<svg enable-background="new 0 0 400 400" viewBox="0 0 400 400" xmlns="http://www.w3.org/2000/svg"><path d="m385.2 377.6.6-.7c.6.4 1.3.9 1.9 1.5l-.6.7c-.8-.5-1.4-1-1.9-1.5zm.3 7.1c.6-1.4 1.1-2.9 1.5-4.5.3.1.6.3.9.4-.5 1.4-1 2.9-1.5 4.4zm.2-10.1.6-.6c.7.5 1.3 1.1 1.9 1.6l-.7.7c-.6-.6-1.2-1.2-1.8-1.7zm8.4-.8h.8v.9h1.8v.7h-1.8v1.8h-.8v-.3h-1.2v.9h3.3v2.6h-.8v-.4h-2.5c0 .3 0 .6-.1.8h3.4v.7h-3.5c0 .3-.1.6-.1.8h4v.7h-3.5c.7.9 1.9 1.3 3.6 1.5-.2.2-.4.5-.6.9-1.9-.3-3.2-1.1-3.8-2.3-.5 1.1-1.8 2-3.9 2.4-.2-.3-.4-.5-.6-.8 1.9-.4 3.1-.9 3.6-1.7h-3.2v-.7h3.5c.1-.2.1-.5.2-.8h-3.3v-.7h3.4c0-.2 0-.5 0-.8h-2.4v.3h-.8v-2.6h3.3v-.9h-1.2v.3h-.8v-1.8h-1.8v-.7h1.8v-.9h.8v.9h3.2zm-4.4 5.5h2.4c1-.3 0-.6 0-.9h-2.4zm1.2-3.1h3.2v-.8h-3.2zm4.4 2.2h-2.4v.9h2.5v-.9z" fill="#fafafb"/><path d="m389.2 385.8h.9v1.5h1.9v-1.5h.9v1.5h2.7v6h1.1v.9h-11.3v-.9h1.1v-6h2.7zm.2 8.7.5.8c-1.2.6-2.5 1.3-4 1.9-.2-.3-.3-.6-.6-.8 1.6-.6 3-1.3 4.1-1.9zm-2-4.3h1.9v-2.1h-1.9zm0 3.1h1.9v-2.2h-1.9zm2.7-3.1h1.9v-2.1h-1.9zm0 3.1h1.9v-2.2h-1.9zm2.4 1.3c1.4.6 2.7 1.2 4.1 1.8l-.5.9c-1.5-.7-2.8-1.4-4.1-1.9zm2.2-6.5h-1.9v2.1h1.9zm-1.9 5.2h1.9v-2.2h-1.9z" fill="#fafafb"/><g fill="#010100"><path d="m362.81 333.66c-12.73 3.87-22.17 11.3-27.07 24.33-48.46-13.7-92.92-34.96-131.89-66.51-11.62 8.4-22.77 17.08-34.54 24.85-35.95 23.74-75.43 38.81-117.69 46.79-3.74.71-7.49 1.63-11.27 1.81-1.6.08-3.29-1.52-4.93-2.35 1.15-1.31 2.06-3.31 3.49-3.81 4.36-1.52 8.92-2.48 13.42-3.63 50.4-12.92 95.23-36.14 133.22-72.01.97-.91 1.91-1.86 2.84-2.82.58-.59 1.11-1.22 1.99-2.21-21.95-28.26-39.22-59.17-52.06-92.53.66-.51 1-.92 1.44-1.09 2.92-1.15 5.87-2.26 9.45-3.62 11.01 32.12 26.69 61.46 51.26 85.92 23.54-27.11 40.66-57.75 55.53-90.46 10.98 6.8 23.56 9.75 32.57 18.69-.13.79-.25 1.59-.38 2.38-3.74.59-7.53 1.01-11.21 1.85-1.88.43-4.28 1.14-5.26 2.54-9.06 12.94-17.51 26.33-26.85 39.06-9.33 12.73-19.48 24.86-29.67 37.75 43.97 31.81 94.18 47.29 147.61 55.07z"/><path d="m42.04 104.41c0-3 0-5.29 0-8.12h146.77c0-19.07 0-37.62 0-57.07 9.85 1.9 18.95 3.51 27.96 5.52 1.62.36 2.87 2.35 4.29 3.59-1.41 1.27-2.72 3.48-4.26 3.66-9.46 1.09-10 7.11-9.53 14.79.58 9.59.14 19.23.14 28.97 1.76.11 2.91.25 4.05.25 32.66.01 65.32.05 97.98-.1 2.03-.01 4.52-1.1 6-2.51 6.39-6.07 12.48-12.45 19.01-19.05 9.86 7.42 19.48 14.5 28.87 21.88 1.43 1.12 1.78 3.61 2.63 5.46-1.99.91-3.93 2-6 2.66-1.21.38-2.64.08-3.98.08-102.14 0-204.29 0-306.43 0-2.31-.01-4.63-.01-7.5-.01z"/><path d="m133.82 114.03c8.22 5.16 16.42 10.21 24.48 15.48 1.4.91 3.36 3.19 3.03 4.04-.6 1.53-2.69 2.54-4.25 3.62-.65.45-1.57.79-2.35.76-8.43-.25-12.55 5.32-17.02 11.4-25.11 34.11-53.67 64.83-89.51 88.05-3.11 2.02-6.26 6.15-11.9 1.9 9.98-9.09 20.14-17.5 29.27-26.91 9.24-9.53 17.94-19.69 25.99-30.25 8.06-10.56 15.39-21.72 22.38-33.02 6.98-11.29 13.13-23.08 19.88-35.07z"/><path d="m230.16 123.56c2.28-.13 4.69-.82 6.83-.32 35.7 8.38 68.31 22.94 95.23 48.54 6.74 6.41 13.91 12.75 16.06 22.32.71 3.16.19 6.99-.94 10.09-1.95 5.35-8.24 7.04-12.78 3.42-3.99-3.19-7.87-6.83-10.81-10.97-21.06-29.74-50.26-48.98-82.35-64.61-4.02-1.96-7.89-4.21-11.82-6.32.19-.72.38-1.43.58-2.15z"/></g></svg>