<svg enable-background="new 0 0 400 400" viewBox="0 0 400 400" xmlns="http://www.w3.org/2000/svg"><path d="m5.17 384 .55-.58c.85.61 1.65 1.24 2.4 1.87l-.59.64c-.83-.73-1.62-1.38-2.36-1.93m1.22 9.53-.82-.34c.71-1.76 1.37-3.64 1.98-5.63.24.13.5.25.76.36-.6 1.67-1.24 3.54-1.92 5.61m-.5-13.5.57-.54c.56.44 1.31 1.06 2.26 1.87l-.64.64c-.68-.66-1.41-1.32-2.19-1.97m3.25.46h2.24v-1.36h.77v1.36h4.57v-1.36h.76v1.36h2.28v.69h-2.28v1.84h-2.64v1.26h4.18v2.64h-4.21c0 .45-.02.86-.05 1.21h4.32v.69h-4.38c-.04.34-.1.75-.19 1.22h5.15v.69h-4.82c.87 1.19 2.51 1.92 4.93 2.19-.17.31-.3.57-.37.76-2.77-.49-4.52-1.41-5.26-2.76-.56 1.26-2.3 2.23-5.24 2.9-.12-.24-.26-.48-.43-.72 2.73-.55 4.38-1.34 4.96-2.38h-4.38v-.69h4.65c.1-.38.17-.79.21-1.22h-4.32v-.69h4.4c.03-.34.05-.75.05-1.21h-4.2v-2.64h4.23v-1.26h-2.69v-1.84h-2.24zm1.46 4.46v1.29h3.45c.01-.4.02-.57.01-.53v-.32-.45h-3.46zm1.55-2.59h4.57v-1.19h-4.57zm6.11 2.59h-3.42v.77c-.02.19-.01.37-.02.53h3.44z" fill="#fcfafa"/><path d="m32.63 379.16h.82v1.98h3.54v7.89h1.46v.78h-14.37v-.78h1.46v-7.89h3.54v-1.98h.82v1.98h2.73zm-3.49 11.48.5.73c-1.61.82-3.28 1.63-5 2.41-.13-.27-.28-.55-.44-.82 1.75-.72 3.4-1.49 4.94-2.32m-2.78-5.55h2.73v-3.18h-2.73zm0 3.95h2.73v-3.2h-2.73zm3.54-3.95h2.73v-3.18h-2.73zm0 3.95h2.73v-3.2h-2.73zm7.89 4.68c-1.84-.92-3.51-1.7-5.02-2.32l.45-.73c1.89.8 3.57 1.55 5.04 2.23zm-1.62-11.81h-2.73v3.18h2.73zm-2.73 7.13h2.73v-3.2h-2.73z" fill="#fcfafa"/><g fill="#010102"><path d="m322.05 263.36c-16.6 0-32.73 0-49.64 0v6 75.49c0 5.56-8.63 13.92-14.1 13.35-1.27-.13-3.02-1.57-3.41-2.78-.75-2.3-.92-4.88-.93-7.34-.06-26.33-.04-52.66-.04-78.99 0-1.79 0-3.58 0-5.63-14.32 0-28.09 0-42.76 0v5.72 79.99c0 5.47-8.69 14.17-13.99 13.65-1.28-.13-2.95-1.64-3.48-2.92-.73-1.75-.73-3.88-.74-5.85-.04-28.33-.03-56.66-.03-84.99 0-1.78 0-3.56 0-5.61-14.82 0-29.07 0-43.93 0v5.5c0 29.33.01 58.66-.01 87.99 0 4.95-9.8 13.75-14.71 13-1.2-.19-2.7-1.43-3.19-2.56-.76-1.77-1.05-3.85-1.05-5.8-.05-39.33-.04-78.66-.03-117.99 0-.65.08-1.3.18-2.87 6.3 4.18 12.14 8.13 18.06 11.95 1.49.96 3.23 2.15 4.87 2.16 17.98.15 35.96.1 54.31.1 3.38-12.11 6.71-24.02 10.21-36.55-37.13 0-73.54 0-110.33 0 0-2.87 0-5.28 0-8.44h5.6c68.16 0 136.32-.03 204.48.08 3.63.01 6.21-.94 8.68-3.62 4.84-5.25 10.02-10.19 15.2-15.39 8.03 6.05 15.84 11.71 23.35 17.75 1.85 1.49 2.7 4.22 4 6.37-2.44 1.01-4.88 2.9-7.32 2.91-40 .18-79.99.2-119.99.02-3.99-.02-5.87 1.35-7.54 4.75-4.61 9.4-9.61 18.61-14.43 27.9-.59 1.14-1.03 2.36-1.83 4.21h5.82c29.5 0 59-.12 88.49.12 4.68.04 7.91-1.03 10.21-5.14 1.2-2.15 2.94-4 4.75-6.4 6.96 5.03 13.94 9.79 20.58 15 4.26 3.34 3.8 6.31-1.4 7.72-4.39 1.19-5.03 3.43-5 7.4.17 23 .01 46 .11 68.99.07 16.39-9.59 22.27-23.83 24.85-2.74.5-4.6-.84-4.62-3.8-.04-6.95-3.75-10.08-10.37-10.92-3.75-.48-7.44-1.63-11.06-2.81-1.37-.45-2.44-1.82-3.65-2.77.21-.53.41-1.05.62-1.58 5.93 0 11.87.02 17.8-.01 2.5-.01 5.02.11 7.48-.23 6.29-.86 9.03-3.56 9.07-9.78.14-23.33.04-46.66.01-69.99.01-.62-.26-1.25-.47-2.21z"/><path d="m324.97 39.32c8.4 6.29 16.25 11.91 23.76 17.96 1.8 1.45 2.49 4.28 3.69 6.47-2.42 1.08-4.84 3.1-7.27 3.11-33.49.21-66.97.14-100.46.14-1.64 0-3.29 0-5.28 0v34.93h5.08c26.49 0 52.98-.1 79.47.1 4.29.03 7.25-.83 9.21-4.88 1.29-2.66 3.29-4.98 4.94-7.41 9.47 9.27 18.97 18.26 28.08 27.64 3.12 3.21 1.9 6.23-2.34 5.77-16.21-1.78-27.04 8.35-38.83 16.53-1.57 1.09-3.3 1.96-4.96 2.93-.43-.24-.86-.47-1.29-.71.57-2.2.81-4.55 1.77-6.56 3.86-8.1 7.94-16.08 12.24-24.71-31.4 0-62.21 0-93.71 0v5.27 68.97c0 5.37-9.21 14.01-14.4 13.08-1.43-.26-3.09-2.33-3.59-3.91-.69-2.14-.46-4.61-.47-6.94-.02-23.49-.01-46.98-.01-70.47 0-1.96 0-3.91 0-6.16-28.01 0-55.41 0-82.74 0-1.25 7.09-2.17 14.14-3.83 21.01-.87 3.62-2.71 7.12-4.71 10.31-3.35 5.36-8.65 7.05-14.72 6.24-5.5-.73-7.94-7.3-5.09-13.68.74-1.64 1.9-3.12 3.03-4.55 9.08-11.53 16.22-23.92 17.51-38.96.07-.81.4-1.61.68-2.39.27-.74.63-1.46.97-2.23 4.23 2.88 4.62 3.97 5.68 15.35h82.9c0-11.4 0-22.66 0-34.53-26.5 0-52.88 0-79.39 0 0-3.03 0-5.44 0-8.45h6.64c51.15 0 102.29-.03 153.44.07 3.61.01 6.28-.85 8.75-3.58 4.8-5.3 9.92-10.3 15.25-15.76z"/><path d="m78.95 134.09c4.06 2.29 7.71 4.27 11.28 6.37 4.06 2.4 4.37 4.8.2 6.81-4.2 2.03-4.43 4.95-4.42 8.81.07 67.16.05 134.33.05 201.49 0 5.7-8.05 14.03-13.75 13.57-1.58-.13-3.74-2.44-4.26-4.16-.79-2.62-.45-5.61-.45-8.43-.02-64.66-.01-129.33-.01-193.99 0-1.95 0-3.9 0-5.84-12.55 17.13-23.95 34.69-39.59 48.72-.68-.26-1.35-.53-2.03-.79.18-2.02-.32-4.48.65-5.99 33.2-51.4 52.38-108.34 66.45-167.31.15-.63.5-1.22 1.01-2.46 10.06 4.31 20.09 8.49 30 12.94 2.91 1.31 2.94 3.55.12 5.22-1.84 1.09-3.88 2.28-5.92 2.49-6.04.64-8.02 4.34-10.05 9.65-8.97 23.4-18.6 46.54-28 69.77-.35.92-.73 1.81-1.28 3.13z"/><path d="m258.87 178.98c0-2.89 0-5.29 0-8.39h17.53c3.33 0 6.68-.22 9.99.04 11.82.91 23.18.83 29.42-12.14 6.17 4.6 11.73 8.51 16.97 12.82 1.29 1.06 2.29 3.51 2.01 5.08-.19 1.08-2.79 2.48-4.31 2.49-23.78.15-47.56.1-71.61.1z"/><path d="m192.99 159.25c5.23 3.9 10.55 7.6 15.52 11.73 1.41 1.17 2.88 4.01 2.36 5.28-.57 1.4-3.39 2.57-5.26 2.62-9.49.26-18.99.12-28.48.12-13.48 0-26.95 0-40.81 0 0-2.76 0-5.29 0-8.41h24.95 2c5.66-.03 11.84 1.35 16.84-.48 4.77-1.74 8.31-6.83 12.88-10.86z"/><path d="m149.16 144.06c0-2.96 0-5.25 0-8.23 8.22 0 16.32-.32 24.38.11 5.27.28 9.31-1.02 12.53-5.24 1.81-2.37 3.97-4.47 6.18-6.92 6.06 4.55 11.71 8.62 17.12 12.98 1.07.87 1.98 3.04 1.65 4.24-.33 1.21-2.29 2-3.6 2.88-.37.24-.97.17-1.47.17-18.77.01-37.54.01-56.79.01z"/><path d="m297.05 123.69c6 4.47 11.32 8.18 16.31 12.3 1.42 1.18 2.98 3.93 2.5 5.21-.53 1.4-3.33 2.7-5.18 2.74-10.81.25-21.63.13-32.44.13-6.94 0-13.89 0-21.06 0 0-2.91 0-5.31 0-8.24 7.68 0 15.13-.23 22.56.09 4.32.18 7.7-.83 10.41-4.3 2.13-2.73 4.54-5.24 6.9-7.93z"/></g></svg>