<svg enable-background="new 0 0 400 400" viewBox="0 0 400 400" xmlns="http://www.w3.org/2000/svg"><path d="m5.17 384 .55-.58c.85.61 1.65 1.24 2.4 1.87l-.59.64c-.83-.73-1.62-1.38-2.36-1.93m1.22 9.53-.82-.34c.71-1.76 1.37-3.64 1.98-5.63.24.13.5.25.76.36-.6 1.67-1.24 3.54-1.92 5.61m-.5-13.5.57-.54c.56.44 1.31 1.06 2.26 1.87l-.64.64c-.68-.66-1.41-1.32-2.19-1.97m3.25.46h2.24v-1.36h.77v1.36h4.57v-1.36h.76v1.36h2.28v.69h-2.28v1.84h-2.64v1.26h4.18v2.64h-4.21c0 .45-.02.86-.05 1.21h4.32v.69h-4.38c-.04.34-.1.75-.19 1.22h5.15v.69h-4.82c.87 1.19 2.51 1.92 4.93 2.19-.17.31-.3.57-.37.76-2.77-.49-4.52-1.41-5.26-2.76-.56 1.26-2.3 2.23-5.24 2.9-.12-.24-.26-.48-.43-.72 2.73-.55 4.38-1.34 4.96-2.38h-4.38v-.69h4.65c.1-.38.17-.79.21-1.22h-4.32v-.69h4.4c.03-.34.05-.75.05-1.21h-4.2v-2.64h4.23v-1.26h-2.69v-1.84h-2.24zm1.46 4.46v1.29h3.45c.01-.4.02-.57.01-.53v-.32-.45h-3.46zm1.55-2.59h4.57v-1.19h-4.57zm6.11 2.59h-3.42v.77c-.02.19-.01.37-.02.53h3.44z" fill="#fcfafa"/><path d="m32.63 379.16h.82v1.98h3.54v7.89h1.46v.78h-14.37v-.78h1.46v-7.89h3.54v-1.98h.82v1.98h2.73zm-3.49 11.48.5.73c-1.61.82-3.28 1.63-5 2.41-.13-.27-.28-.55-.44-.82 1.75-.72 3.4-1.49 4.94-2.32m-2.78-5.55h2.73v-3.18h-2.73zm0 3.95h2.73v-3.2h-2.73zm3.54-3.95h2.73v-3.18h-2.73zm0 3.95h2.73v-3.2h-2.73zm7.89 4.68c-1.84-.92-3.51-1.7-5.02-2.32l.45-.73c1.89.8 3.57 1.55 5.04 2.23zm-1.62-11.81h-2.73v3.18h2.73zm-2.73 7.13h2.73v-3.2h-2.73z" fill="#fcfafa"/><path d="m45.82 182.71c5.68 3.35 10.5 6.62 15.69 9.11 3.43 1.64 7.36 2.81 11.14 3.04 7.77.46 15.58.14 23.8.14 0-50.73 0-101 0-152.41 6.38 3.36 11.88 6.5 17.61 9.17 2.59 1.21 5.62 2.08 8.46 2.08 43.82.13 87.64-.05 131.46.25 6.23.04 10.6-1.62 14.65-6.2 5.09-5.76 5.36-5.52 11.85-1.16 4.55 3.06 9.25 5.92 13.55 9.3 1.77 1.39 3.91 4.11 3.61 5.84-.3 1.74-3.27 3.26-5.34 4.37-2 1.08-4.34 1.53-6.63 2.28v126.45c7.68 0 15.13.11 22.56-.11 1.22-.04 2.57-1.33 3.57-2.34 3.27-3.31 6.4-6.75 9.98-10.56 7.58 5.2 14.86 9.81 21.69 15.02 4.18 3.18 3.6 7.67-1.47 8.4-9.7 1.39-8.65 7.65-8.63 14.31.09 40.66.08 81.31 0 121.97-.01 4.29-.28 8.67-1.2 12.84-2.48 11.21-16.27 19.61-27.33 16.32-2.39-.71-5.05-4.04-5.65-6.61-1.47-6.37-4.92-9.79-11.18-11.08-7.14-1.47-14.25-3.17-21.29-5.07-1.43-.39-2.51-2.07-3.75-3.16 1.49-.76 2.97-2.17 4.47-2.19 11.66-.19 23.33-.09 34.99-.12 9.69-.02 12.52-2.85 12.52-12.43 0-40.32 0-80.65 0-120.97 0-1.66 0-3.31 0-5.37-83.65 0-167.01 0-250.87 0v6.06 147.96c0 5.68-8.96 14.13-14.52 13.4-1.27-.17-2.86-1.61-3.38-2.85-.67-1.6-.55-3.59-.55-5.41-.02-58.48-.02-116.97-.01-175.45-.02-1.32.09-2.65.2-4.82zm220.81-65.88c0-18.63 0-36.38 0-54.22-50.64 0-100.97 0-151.21 0v132.04h61.37c0-29.29 0-58.22 0-87.91 3.24 1.51 5.99 2.58 8.55 4.01 8.31 4.64 16.98 6.62 26.66 6.25 15.97-.62 31.97-.17 47.96-.17zm-.11 78.03c0-23.52 0-46.53 0-69.45-23.96 0-47.52 0-71.05 0v69.45z" fill="#010102"/></svg>