<svg enable-background="new 0 0 400 400" viewBox="0 0 400 400" xmlns="http://www.w3.org/2000/svg"><path d="m5.17 384 .55-.58c.85.61 1.65 1.24 2.4 1.87l-.59.64c-.83-.73-1.62-1.38-2.36-1.93m1.22 9.53-.82-.34c.71-1.76 1.37-3.64 1.98-5.63.24.13.5.25.76.36-.6 1.67-1.24 3.54-1.92 5.61m-.5-13.5.57-.54c.56.44 1.31 1.06 2.26 1.87l-.64.64c-.68-.66-1.41-1.32-2.19-1.97m3.25.46h2.24v-1.36h.77v1.36h4.57v-1.36h.76v1.36h2.28v.69h-2.28v1.84h-2.64v1.26h4.18v2.64h-4.21c0 .45-.02.86-.05 1.21h4.32v.69h-4.38c-.04.34-.1.75-.19 1.22h5.15v.69h-4.82c.87 1.19 2.51 1.92 4.93 2.19-.17.31-.3.57-.37.76-2.77-.49-4.52-1.41-5.26-2.76-.56 1.26-2.3 2.23-5.24 2.9-.12-.24-.26-.48-.43-.72 2.73-.55 4.38-1.34 4.96-2.38h-4.38v-.69h4.65c.1-.38.17-.79.21-1.22h-4.32v-.69h4.4c.03-.34.05-.75.05-1.21h-4.2v-2.64h4.23v-1.26h-2.69v-1.84h-2.24zm1.46 4.46v1.29h3.45c.01-.4.02-.57.01-.53v-.32-.45h-3.46zm1.55-2.59h4.57v-1.19h-4.57zm6.11 2.59h-3.42v.77c-.02.19-.01.37-.02.53h3.44z" fill="#fcfafa"/><path d="m32.63 379.16h.82v1.98h3.54v7.89h1.46v.78h-14.37v-.78h1.46v-7.89h3.54v-1.98h.82v1.98h2.73zm-3.49 11.48.5.73c-1.61.82-3.28 1.63-5 2.41-.13-.27-.28-.55-.44-.82 1.75-.72 3.4-1.49 4.94-2.32m-2.78-5.55h2.73v-3.18h-2.73zm0 3.95h2.73v-3.2h-2.73zm3.54-3.95h2.73v-3.18h-2.73zm0 3.95h2.73v-3.2h-2.73zm7.89 4.68c-1.84-.92-3.51-1.7-5.02-2.32l.45-.73c1.89.8 3.57 1.55 5.04 2.23zm-1.62-11.81h-2.73v3.18h2.73zm-2.73 7.13h2.73v-3.2h-2.73z" fill="#fcfafa"/><g fill="#010102"><path d="m219.74 172.18c6.38 4.44 12.66 8.51 18.6 13.02 4.62 3.5 4.13 6.99-1.32 8.46-3.91 1.06-4.74 2.88-4.7 6.59.18 18.32.09 36.64.07 54.97-.01 5.02-9.39 13.7-14.25 12.58-1.7-.39-3.5-3.23-4-5.25-.68-2.79-.17-5.87-.17-9.09-45.98 0-91.38 0-137.13 0-.15 1.32-.39 2.6-.42 3.88-.2 8.47-3.48 12.91-11.62 16.09-3.25 1.27-5.15.28-6.12-2.86-.38-1.25-.66-2.59-.66-3.89-.03-31.65-.02-63.3 0-94.95 0-.47.16-.95.37-2.15 5.75 3.39 11.13 6.83 16.77 9.77 2.66 1.39 5.83 2.53 8.78 2.54 39.98.16 79.95.01 119.93.23 5.31.03 9.3-.98 12.09-5.67.84-1.4 2.18-2.49 3.78-4.27zm-5.97 49.25c-20.15 0-39.82 0-59.47 0v23.13h59.47c0-7.82 0-15.26 0-23.13zm-78.91-.17c-19.59 0-38.67 0-58.09 0v23.29h58.09c0-7.84 0-15.3 0-23.29zm78.78-8.71c0-7.34 0-14.41 0-21.8-19.88 0-39.6 0-59.33 0v21.8zm-136.87-21.89v21.81h57.94c0-7.43 0-14.5 0-21.81-19.36 0-38.42 0-57.94 0z"/><path d="m84.27 61.52c5.2 2.36 9.88 4.79 14.78 6.63 4.81 1.81 9.84 3.02 15.47 4.7 2.25-12.53 4.23-23.53 6.29-34.99 9.82 2.52 19.12 4.91 28.41 7.29.01.72.02 1.43.04 2.15-2.24 1.2-4.57 2.26-6.7 3.63-2.66 1.71-5.68 3.25-7.61 5.62-3.61 4.43-6.54 9.41-10.34 15.03h11.87c14.16 0 28.32-.15 42.47.1 4.07.07 6.98-.81 9.11-4.44 1.5-2.55 3.54-4.79 5.42-7.29 6.37 4.55 12.71 8.84 18.75 13.51 1.94 1.5 3.12 4 4.65 6.04-2.02 1.31-4.03 2.66-6.09 3.91-.7.43-1.54.62-2.78 1.1v5.2 68.46c0 5.29-9.34 14.36-14.54 13.71-1.34-.17-3.13-1.99-3.52-3.39-.85-2.99-.91-6.19-1.35-9.7-28.25 0-56.63 0-85.45 0 1.51 9.33-5.76 11.94-11.89 15.35-3.48 1.94-5.74.62-6.46-3.24-.36-1.95-.75-3.94-.75-5.91-.05-33.31-.03-66.63-.02-99.94-.02-.95.11-1.9.24-3.53zm18.94 43.13v17.64h85.48c0-5.98 0-11.7 0-17.64-28.55 0-56.78 0-85.48 0zm85.56 26.61c-28.83 0-57.08 0-85.45 0v18.38h85.45c0-6.27 0-12.2 0-18.38zm0-50.92c-28.76 0-57.12 0-85.37 0v15.4h85.37c0-5.17 0-10.1 0-15.4z"/><path d="m304.31 345.59h23.35c10.54-.01 13.16-2.66 13.16-13.41.01-92.77 0-185.55 0-278.32 0-2.14 0-4.28 0-7.23 8.25 1.83 16.05 3.15 23.58 5.36 5.57 1.64 6.25 5.22 1.26 7.7-6.93 3.44-6.55 8.73-6.55 14.77.08 90.44.06 180.88.06 271.33 0 13.75-10.5 24.29-24.22 24.12-3.63-.05-5.99-2.01-5.95-5.92.05-4.98-2.69-7.47-7.16-8.87-4.75-1.49-9.43-3.23-14.06-5.05-1.49-.59-2.74-1.78-4.1-2.69.21-.6.42-1.19.63-1.79z"/><path d="m245.47 262.14c7.97 5.85 15.21 10.88 22.07 16.39 1.94 1.56 2.77 4.51 4.1 6.82-2.5.94-4.99 2.68-7.49 2.7-22.66.21-45.32.12-67.98.12-1.79 0-3.58 0-5.99 0v5.87 57.99c0 5.25-8.74 14.22-13.95 13.71-1.54-.15-3.25-2.44-4.12-4.13-.69-1.33-.27-3.26-.27-4.93-.01-20.83-.01-41.66-.01-62.48 0-1.8 0-3.59 0-5.7-14.92 0-29.31 0-44.42 0 0 2.74-.09 5.36.01 7.97.98 25.8-11.42 43.7-33.25 55.83-17.69 9.83-37.05 14.4-56.91 17.14-1.81.25-3.76-.43-5.64-.67-.16-.52-.31-1.05-.47-1.57 2.31-1.11 4.51-2.61 6.94-3.26 17.93-4.8 35.36-10.7 50.1-22.53 16.96-13.61 22.86-31.51 20.27-53.14-25 0-49.92 0-75.15 0 0-2.88 0-5.29 0-8.45h5.71c61.32 0 122.63-.03 183.95.07 3.77.01 6.6-.81 9.15-3.74 4.17-4.74 8.7-9.16 13.35-14.01z"/><path d="m279.59 87.39c8.54 1.92 16.36 3.34 23.97 5.5 4.84 1.37 5.4 5.48.81 7.73-6.13 3.01-6.41 7.55-6.4 13.3.15 51.62.09 103.25.09 154.87 0 5.53-8.92 14.51-14.29 13.87-1.41-.17-3.17-2.27-3.69-3.84-.71-2.13-.48-4.6-.48-6.93-.02-59.45-.01-118.9-.01-178.35 0-1.78 0-3.55 0-6.15z"/></g></svg>