<svg enable-background="new 0 0 400 400" viewBox="0 0 400 400" xmlns="http://www.w3.org/2000/svg"><path d="m217.26 335.36c3.11.25 6.26.22 9.31.79 11.09 2.07 22.12 4.45 33.21 6.49 7.38 1.36 13.91-.45 18.84-6.46 8.46-10.31 20.56-43.37 21.11-57.79-38.75 0-77.48 0-116.51 0-6.84 18.12-17.68 33.65-32.18 46.66-17.36 15.56-37.46 26.48-59.31 33.99-14.55 5-29.53 8.76-44.38 12.86-2.56.71-5.41.34-8.13.46-.23-.63-.47-1.27-.7-1.9 2.22-1.33 4.27-3.21 6.67-3.91 25.48-7.45 50.04-16.95 72.09-32.07 19.28-13.22 34.93-29.71 45.1-51.01.7-1.48 1.33-2.99 2.31-5.19-33.75 0-66.91 0-100.38 0 0-2.97 0-5.37 0-8.45h5.82c30.65 0 61.31-.11 91.96.12 4.55.04 6.59-1.56 7.66-5.64 2.19-8.33 4.55-16.61 6.91-25.13 6.98 1.88 14.21 3.66 21.3 5.87 1.64.51 2.82 2.5 4.22 3.81-1.19 1.23-2.22 3.31-3.59 3.57-9.68 1.8-8.9 10.55-12.63 17.41h6.32c32.15 0 64.31-.1 96.46.11 4.88.03 8.66-1.02 11.64-4.92 1.92-2.51 4.08-4.82 6.32-7.43 7.88 5.81 15 10.91 21.92 16.28 1.44 1.12 2.14 3.19 3.18 4.83-1.77 1.08-3.72 3.28-5.29 3.04-8.04-1.23-8.33 4.13-9.58 9.66-4.51 20.07-11.88 39.09-22.69 56.62-7.63 12.38-18.4 20.27-33.4 21.75-7.61.75-11.57-1.93-11.77-9.54-.15-5.56-2.76-9.01-7.69-11.1-6.58-2.8-13.15-5.61-19.65-8.56-1.81-.82-3.38-2.15-5.06-3.25.19-.67.39-1.32.59-1.97z" fill="#010103"/><path d="m269.59 104.65c-10.66 17.36-19.35 34.47-35.58 46.02 20.98-35.47 34.19-73.84 44.31-114.05 9.76 5.57 20.35 8.95 29.03 15.74-.06.57-.13 1.14-.19 1.71-3.11.69-6.26 1.27-9.33 2.11-1.61.44-3.94.94-4.51 2.11-5.3 10.85-10.29 21.86-15.76 33.65h24.33 1c8.67 0 17.38.58 25.99-.16 9.42-.8 11.94-11.32 19.97-15.38 6.46 4.68 13.42 9.47 20.05 14.68 1.7 1.34 2.35 4.02 3.48 6.08-2.27 1-4.5 2.76-6.81 2.87-7.82.36-15.66.28-23.49.07-3.15-.08-4.54.76-5.51 4.01-6.88 22.96-14.76 45.55-26.62 66.51-1.72 3.04.13 4.21 1.81 5.75 17.96 16.58 37.51 30.86 59.84 41.08.43.2.79.58 1.01.75-7.69 4.04-15.41 8.08-23.77 12.47-17.6-11.91-32.62-27.82-47.37-44.51-17.37 23.99-39.07 42.23-65.3 55.02-1.34.66-3.06.54-4.6.79-.31-.46-.62-.91-.93-1.37 1.63-1.58 3.1-3.39 4.91-4.71 20.94-15.23 39.09-33.07 52.73-55.28 2.42-3.94 2.85-6.91.42-11.22-11.05-19.61-17.73-40.67-19.11-64.74zm29.83 56.44c.69.05 1.38.11 2.06.16 6.12-20.09 12.24-40.18 18.51-60.75-16.3 0-31.01 0-46.35 0 4.52 22.31 12.23 42.69 25.78 60.59z" fill="#010103"/><path d="m166 198.37c0 10.67.03 20.98-.02 31.29-.02 4.35-10.89 13.28-15.03 12.18-1.19-.31-2.38-1.74-2.95-2.94-.68-1.45-.95-3.22-.96-4.85-.05-36.46-.04-72.92-.04-110.03 4.14 1.64 8 2.97 11.68 4.67 6.75 3.12 13.69 4.96 21.19 4.16 1.48-.16 3-.05 4.49-.02 10.14.24 20.99 2.1 24.49-12.32 7.58 5.27 14.28 9.54 20.53 14.4 4.05 3.15 3.32 6.31-1.36 8.86-1.17.63-2.4 1.15-3.95 1.89 0 14.98.12 30.12-.04 45.25-.11 10.46.29 21.04-1.18 31.33-1.26 8.82-7.62 14.51-16.61 16.48-2.99.66-5.62.37-6.4-3.51-1.44-7.12-2.9-8.21-10.2-9.15-2.06-.27-4.02-1.32-6.03-2.02.15-.82.3-1.64.44-2.45 4.01 0 8.02.02 12.03 0 7.57-.05 9.46-1.92 9.51-9.44.03-4-.01-7.99-.04-11.99 0-.48-.19-.96-.36-1.79-12.86 0-25.73 0-39.19 0zm39.28-29.03c-13.25 0-26.12 0-39.08 0v19.92h39.08c0-6.72 0-13.12 0-19.92zm-39.15-9.18h39.12c0-6.52 0-12.61 0-18.73-13.22 0-26.11 0-39.12 0z" fill="#010103"/><path d="m77 151.63c-15.38 15.71-29.36 31.19-48.05 40.88-.64-.59-1.28-1.17-1.92-1.76 31.52-33 57.76-69.72 79.26-110.45 7.59 4.9 14.88 9.44 21.97 14.27 3.07 2.09 2.24 4.11-1.04 5.25-1.41.49-2.96 1.29-4.31 1.08-6.9-1.06-9.83 3.42-13.1 8.29-5 7.44-10.62 14.46-16.23 22 2.58.93 5.55 1.57 8.02 3.03 1.83 1.08 3.02 3.23 4.5 4.9-1.63 1.22-3.14 2.64-4.91 3.58-1.42.75-3.16.91-5.17 1.44v5.46 85.47c0 5.69-8.66 14.39-14.23 13.9-1.37-.12-3.31-1.76-3.72-3.09-.82-2.64-1-5.56-1.01-8.36-.09-26.49-.06-52.98-.06-79.47 0-1.78 0-3.56 0-6.42z" fill="#010103"/><path d="m155.23 103.53c22.31-1 43.03-1.92 64.98-2.9-6.66-7.91-12.81-15.22-19.71-23.41 2.54 0 3.64-.33 4.4.05 11.51 5.72 23.04 11.67 30.62 22.48 2.59 3.7 3.57 8.75 4.43 13.34.31 1.65-1.57 4.9-3.1 5.38-1.89.59-5.04-.29-6.57-1.7-2.09-1.93-3.52-4.82-4.57-7.55-1.07-2.8-2.48-3.15-5.24-2.72-23.46 3.62-46.93 7.17-70.44 10.45-3.32.46-5.03 1.53-6.02 4.63-.52 1.62-1.89 2.98-3.18 4.91-7.55-6.02-8.39-14.79-12.38-22.89 5.71 0 10.52.12 15.32-.07 1.5-.06 3.57-.48 4.37-1.51 8.42-10.89 16.64-21.94 25.54-33.77-18.02 0-35.05 0-52.4 0 0-2.92 0-5.32 0-8.33h55.21c0-8.84 0-17.1 0-26.35 8.9 1.71 17.12 3.17 25.26 5 1.3.29 3.01 2.15 3.11 3.39.09 1.09-1.62 2.67-2.89 3.44-2.07 1.25-5.94 1.58-6.38 3.08-.98 3.33-.31 7.14-.31 11.31 8.09 0 15.88.1 23.65-.11 1.24-.03 2.62-1.3 3.62-2.3 3.86-3.9 7.59-7.93 11.75-12.3 7.07 5.04 13.78 9.57 20.13 14.55 1.5 1.17 1.79 3.88 2.63 5.89-2.02.85-4.03 2.42-6.06 2.44-18.16.19-36.32.07-54.48.17-1.87.01-4.29.22-5.51 1.35-11.68 10.87-23.15 21.96-35.78 34.05z" fill="#010103"/><path d="m28.83 117.05c27.43-24.42 48.29-53.79 65.85-86.26 6.8 5.29 13.28 10.2 19.59 15.32 2.73 2.21 2.04 4.28-1.13 5.5-1.23.48-2.59 1.17-3.81 1.04-6.77-.74-9.9 3.91-13.47 8.39-17.03 21.39-37.32 39.33-59.41 55.29-1.78 1.28-4.24 1.61-6.39 2.38-.41-.56-.82-1.11-1.23-1.66z" fill="#010103"/><g fill="#fbfcfa"><path d="m346.9 398 5.4-7.3h-5.2v-.6h5.9v.6l-5.4 7.2h5.5l-.1.6h-6.2v-.5z"/><path d="m354.7 390.1h2.8c2.3 0 3.9 1.6 3.9 4.1s-1.6 4.3-3.9 4.3h-2.8zm.6 7.8h2c2.2 0 3.3-1.6 3.3-3.6 0-1.8-1-3.6-3.3-3.6h-2z"/><path d="m363.9 390.1v8.4h-.6v-8.4h1.6z"/><path d="m372.5 396.3c-.4 1.3-1.4 2.3-3.2 2.3-2.4 0-3.7-1.9-3.7-4.3 0-2.3 1.2-4.3 3.7-4.3 1.8 0 2.9 1 3.2 2.4h-.6c-.4-1.1-1.1-1.8-2.5-1.8-2.1 0-3 1.9-3 3.7s.9 3.7 3 3.7c1.4 0 2.1-.7 2.5-1.7z"/><path d="m373.8 398.5v-1.5h.6v1.5z"/><path d="m376.2 398.5v-8.4h1c1.3 2 4.4 6.7 4.9 7.6-.1-1.2-.1-2.4-.1-3.8v-3.8h.7v8.4h-.9c-1.2-1.9-4.4-6.8-5-7.7.1 1.1 0 2.3 0 3.9v3.9h-.6z"/><path d="m390 394.4h-4.3v3.5h4.7l-.1.6h-5.2v-8.4h5.1v.6h-4.5v3.1h4.3z"/><path d="m394.2 390.7h-2.8v-.6h6.3v.6h-2.8v7.8h-.7z"/></g></svg>