<svg enable-background="new 0 0 400 400" viewBox="0 0 400 400" xmlns="http://www.w3.org/2000/svg"><path d="m5.17 384 .55-.58c.85.61 1.65 1.24 2.4 1.87l-.59.64c-.83-.73-1.62-1.38-2.36-1.93m1.22 9.53-.82-.34c.71-1.76 1.37-3.64 1.98-5.63.24.13.5.25.76.36-.6 1.67-1.24 3.54-1.92 5.61m-.5-13.5.57-.54c.56.44 1.31 1.06 2.26 1.87l-.64.64c-.68-.66-1.41-1.32-2.19-1.97m3.25.46h2.24v-1.36h.77v1.36h4.57v-1.36h.76v1.36h2.28v.69h-2.28v1.84h-2.64v1.26h4.18v2.64h-4.21c0 .45-.02.86-.05 1.21h4.32v.69h-4.38c-.04.34-.1.75-.19 1.22h5.15v.69h-4.82c.87 1.19 2.51 1.92 4.93 2.19-.17.31-.3.57-.37.76-2.77-.49-4.52-1.41-5.26-2.76-.56 1.26-2.3 2.23-5.24 2.9-.12-.24-.26-.48-.43-.72 2.73-.55 4.38-1.34 4.96-2.38h-4.38v-.69h4.65c.1-.38.17-.79.21-1.22h-4.32v-.69h4.4c.03-.34.05-.75.05-1.21h-4.2v-2.64h4.23v-1.26h-2.69v-1.84h-2.24zm1.46 4.46v1.29h3.45c.01-.4.02-.57.01-.53v-.32-.45h-3.46zm1.55-2.59h4.57v-1.19h-4.57zm6.11 2.59h-3.42v.77c-.02.19-.01.37-.02.53h3.44z" fill="#fcfafa"/><path d="m32.63 379.16h.82v1.98h3.54v7.89h1.46v.78h-14.37v-.78h1.46v-7.89h3.54v-1.98h.82v1.98h2.73zm-3.49 11.48.5.73c-1.61.82-3.28 1.63-5 2.41-.13-.27-.28-.55-.44-.82 1.75-.72 3.4-1.49 4.94-2.32m-2.78-5.55h2.73v-3.18h-2.73zm0 3.95h2.73v-3.2h-2.73zm3.54-3.95h2.73v-3.18h-2.73zm0 3.95h2.73v-3.2h-2.73zm7.89 4.68c-1.84-.92-3.51-1.7-5.02-2.32l.45-.73c1.89.8 3.57 1.55 5.04 2.23zm-1.62-11.81h-2.73v3.18h2.73zm-2.73 7.13h2.73v-3.2h-2.73z" fill="#fcfafa"/><g fill="#010102"><path d="m189 52.56c6.38 4.25 12.18 7.39 17.08 11.58 5.01 4.3 10.13 2.35 15.17 1.61 28.93-4.26 57.56-9.93 85.2-19.78 3.6-1.28 7.46-2.16 10.68-4.1 4.64-2.79 7.83-1.33 11.36 1.87 4.81 4.35 10.06 8.21 14.89 12.55 1.33 1.19 1.81 3.32 2.68 5.02-1.74.62-3.56 1.94-5.22 1.76-17.34-1.85-33.8 4.07-50.75 5.54-14.23 1.23-28.4 3.16-42.63 4.4-12.89 1.12-25.83 1.73-39.1 2.58v85h5.22c35.83 0 71.65-.05 107.47.07 3.47.01 5.93-1 8.25-3.52 4.85-5.26 9.97-10.28 15.5-15.94 8.76 6.72 17.46 13.03 25.71 19.89 3.45 2.87 2.06 6.52-2.43 7.62-1.58.39-3.3.28-4.96.28-19.98.02-39.97.01-60.7.01v6.57 175.46c0 6.35-7.08 14.29-13.46 14.6-1.34.06-3.5-1.43-3.99-2.7-.87-2.24-.98-4.86-.98-7.32-.05-59.99-.04-119.97-.04-179.96 0-1.98 0-3.96 0-6.29-25.34 0-50.38 0-75.93 0 0 1.87.02 3.66 0 5.44-.31 21.97.13 43.99-1.09 65.91-2.33 42.18-16.36 79.27-50.35 106.59-6.58 5.28-13.92 9.65-21.13 14.07-1.87 1.15-4.61.88-6.95 1.26-.36-.71-.71-1.43-1.07-2.14 2.01-2.18 3.77-4.67 6.06-6.5 23.99-19.17 40.63-43.31 48.9-72.94 4.81-17.22 6.63-34.9 6.63-52.77 0-56.49 0-112.97 0-169.46-.02-1.77-.02-3.54-.02-6.26z"/><path d="m29.27 284.16c17.42-3.85 34.08-7.54 50.75-11.2 8.8-1.93 8.8-1.9 8.8-10.89 0-37.15 0-74.3 0-111.45 0-1.97 0-3.93 0-6.35-21.37 0-42.28 0-63.59 0 0-2.84 0-5.24 0-8.3h63.56c0-33.37 0-66.08 0-99.52 9.98 1.9 19.27 3.46 28.45 5.51 3.83.86 4.13 3 1.15 5.55-1.62 1.39-3.48 2.84-5.47 3.39-5.31 1.46-5.89 4.99-5.84 9.8.22 22.99.1 45.98.1 68.97v6.11c6.83 0 13.27.13 19.69-.11 1.22-.05 2.54-1.42 3.56-2.44 5.4-5.4 10.71-10.89 16.35-16.64 8.36 6.35 16.4 12.22 24.12 18.5 1.64 1.33 2.08 4.13 3.07 6.25-2.19.91-4.37 2.58-6.57 2.61-17.99.21-35.98.12-53.98.12-1.82 0-3.63 0-5.84 0v122.5c4.71-1.43 9.28-2.77 13.82-4.2 14.4-4.54 28.78-9.18 43.22-13.59 2.49-.76 5.26-.55 7.91-.79.3.7.59 1.4.89 2.09-2.08 1.43-3.99 3.28-6.28 4.21-35.68 14.59-71.37 29.13-107.14 43.45-3.76 1.51-5.46 3.46-5.93 7.37-.25 2.08-1.8 4.01-2.76 6.01-2-1.23-4.59-2.03-5.88-3.78-5.44-7.34-10.49-14.96-16.16-23.18z"/></g></svg>