<svg enable-background="new 0 0 400 400" viewBox="0 0 400 400" xmlns="http://www.w3.org/2000/svg"><path d="m5.17 384 .55-.58c.85.61 1.65 1.24 2.4 1.87l-.59.64c-.83-.73-1.62-1.38-2.36-1.93m1.22 9.53-.82-.34c.71-1.76 1.37-3.64 1.98-5.63.24.13.5.25.76.36-.6 1.67-1.24 3.54-1.92 5.61m-.5-13.5.57-.54c.56.44 1.31 1.06 2.26 1.87l-.64.64c-.68-.66-1.41-1.32-2.19-1.97m3.25.46h2.24v-1.36h.77v1.36h4.57v-1.36h.76v1.36h2.28v.69h-2.28v1.84h-2.64v1.26h4.18v2.64h-4.21c0 .45-.02.86-.05 1.21h4.32v.69h-4.38c-.04.34-.1.75-.19 1.22h5.15v.69h-4.82c.87 1.19 2.51 1.92 4.93 2.19-.17.31-.3.57-.37.76-2.77-.49-4.52-1.41-5.26-2.76-.56 1.26-2.3 2.23-5.24 2.9-.12-.24-.26-.48-.43-.72 2.73-.55 4.38-1.34 4.96-2.38h-4.38v-.69h4.65c.1-.38.17-.79.21-1.22h-4.32v-.69h4.4c.03-.34.05-.75.05-1.21h-4.2v-2.64h4.23v-1.26h-2.69v-1.84h-2.24zm1.46 4.46v1.29h3.45c.01-.4.02-.57.01-.53v-.32-.45h-3.46zm1.55-2.59h4.57v-1.19h-4.57zm6.11 2.59h-3.42v.77c-.02.19-.01.37-.02.53h3.44z" fill="#fcfafa"/><path d="m32.63 379.16h.82v1.98h3.54v7.89h1.46v.78h-14.37v-.78h1.46v-7.89h3.54v-1.98h.82v1.98h2.73zm-3.49 11.48.5.73c-1.61.82-3.28 1.63-5 2.41-.13-.27-.28-.55-.44-.82 1.75-.72 3.4-1.49 4.94-2.32m-2.78-5.55h2.73v-3.18h-2.73zm0 3.95h2.73v-3.2h-2.73zm3.54-3.95h2.73v-3.18h-2.73zm0 3.95h2.73v-3.2h-2.73zm7.89 4.68c-1.84-.92-3.51-1.7-5.02-2.32l.45-.73c1.89.8 3.57 1.55 5.04 2.23zm-1.62-11.81h-2.73v3.18h2.73zm-2.73 7.13h2.73v-3.2h-2.73z" fill="#fcfafa"/><g fill="#010102"><path d="m150.73 237.87c1.8.81 2.76 1.09 3.56 1.62 12.68 8.53 26.68 10.04 41.69 9.73 33.47-.7 66.97-.33 100.46-.1 5.14.04 8.97-.81 11.47-5.63 1.05-2.01 2.77-3.68 4.39-5.77 6.95 5.01 13.8 9.68 20.33 14.75 4.32 3.35 3.76 6.79-1.5 8.15-4.24 1.09-4.82 3.25-4.79 7.03.15 22.99.08 45.98.08 68.97v5.37c.49.37.99.74 1.48 1.11 7.87-5.09 13.26-13.16 21.02-19.38 8.13 6.27 16.46 12.54 24.56 19.1 1.29 1.05 2.63 3.97 2.06 4.95-.89 1.55-3.32 2.28-5.19 3.15-.69.32-1.64.06-2.48.06-93.63 0-187.26 0-280.9 0-1.47 0-2.93 0-4.69 0 0-2.79 0-5.2 0-8.37h68.44c.01-35.17.01-69.61.01-104.74zm53.68 19.99c-12.06 0-23.57 0-35.04 0v84.26h35.04c0-28.24 0-56.02 0-84.26zm103.33 84.39c0-28.28 0-56.21 0-84.47-11.72 0-23.26 0-34.89 0v84.47zm-84.42-.08h30.37c0-28.33 0-56.24 0-84.34-10.28 0-20.31 0-30.37 0z"/><path d="m144.79 254.35c-2.17 1.35-4.22 2.96-6.53 4-29.99 13.52-59.99 27.03-90.08 40.34-3.75 1.66-6.32 3.46-7.13 7.77-.38 2.02-2.3 3.74-3.52 5.6-1.84-1.48-4.29-2.59-5.41-4.49-3.79-6.43-7.11-13.14-10.96-20.39 6.31-1.82 12.26-3.57 18.24-5.24 10.07-2.8 20.15-5.56 30.25-8.29 2.42-.65 4.01-1.44 4-4.6-.12-41.82-.09-83.63-.12-125.45 0-.64-.21-1.28-.38-2.3-14.84 0-29.6 0-44.76 0 0-2.8 0-5.2 0-8.21h45.05c0-29.32 0-58.04 0-87.78 8.7 1.61 16.65 2.86 24.46 4.69 1.67.39 2.84 2.89 4.24 4.41-1.56 1.25-2.99 2.72-4.71 3.67-1.41.78-3.17.94-5.08 1.46v72.25c14.51 6.1 20.41-6.15 28.9-13.57 6.42 5.03 12.78 9.8 18.85 14.91 1.43 1.2 1.88 3.56 2.79 5.39-1.87.85-3.73 2.4-5.62 2.43-13.16.22-26.32.12-39.48.12-1.65 0-3.3 0-5.34 0v125.43c4.64-1.4 9.21-2.72 13.74-4.14 9.66-3.02 19.27-6.21 28.98-9.07 2.83-.83 5.93-.77 8.9-1.11.25.72.49 1.44.72 2.17z"/><path d="m288.99 208.26c-30.49 0-60.26 0-90.81 0 0 5.17.04 10.27-.01 15.36-.04 4.85-10.08 13.41-14.71 12.28-1.29-.31-2.58-1.94-3.21-3.28-.59-1.26-.4-2.94-.41-4.43-.02-31.97-.02-63.95 0-95.92 0-.97.14-1.94.28-3.63 6.03 2.8 11.61 5.65 17.4 7.98 2.83 1.14 6.04 1.86 9.08 1.88 23.81.15 47.63-.1 71.44.23 5 .07 8.13-1.46 10.58-5.52 1.28-2.11 2.94-3.99 4.68-6.3 6.81 4.91 13.63 9.55 20.12 14.62 4.8 3.75 4.14 6.75-1.83 8.51-3.32.98-4.28 2.55-4.25 5.95.17 20.32.09 40.63.08 60.95 0 5.43-9.12 14.11-14.31 12.93-1.71-.39-3.69-3.58-3.92-5.66-.59-5.07-.2-10.26-.2-15.95zm-.45-8.7c0-17.87 0-35.11 0-52.14-30.29 0-60.19 0-89.93 0v52.14z"/><path d="m193.12 30.89c8.55 3.15 16.82 6.09 25 9.27 4.22 1.64 4.41 4.57.7 7.32-.8.59-1.63 1.37-2.54 1.54-7.17 1.3-9.37 6.72-11.36 12.77-2.75 8.34-6.09 16.49-9.46 25.49 2.15.13 3.87.31 5.59.31 36.5.02 72.99.08 109.49-.13 2.61-.01 5.77-1.42 7.72-3.22 5.36-4.95 10.21-10.44 15.39-15.86 8.24 6.19 15.93 11.71 23.27 17.66 1.96 1.59 2.85 4.49 4.23 6.79-2.59 1.06-5.18 3.03-7.77 3.04-52.16.18-104.32.21-156.48.01-4.61-.02-6.55 1.47-8.35 5.56-15.13 34.32-37.95 63.16-64.63 89.12-1.42 1.39-4.24 1.34-6.41 1.96.41-2.09.1-4.82 1.32-6.16 31.93-35.13 51.41-76.88 65-121.75 3.31-10.95 6.09-22.04 9.29-33.72z"/></g></svg>