<svg enable-background="new 0 0 400 400" viewBox="0 0 400 400" xmlns="http://www.w3.org/2000/svg"><path d="m5.17 384 .55-.58c.85.61 1.65 1.24 2.4 1.87l-.59.64c-.83-.73-1.62-1.38-2.36-1.93m1.22 9.53-.82-.34c.71-1.76 1.37-3.64 1.98-5.63.24.13.5.25.76.36-.6 1.67-1.24 3.54-1.92 5.61m-.5-13.5.57-.54c.56.44 1.31 1.06 2.26 1.87l-.64.64c-.68-.66-1.41-1.32-2.19-1.97m3.25.46h2.24v-1.36h.77v1.36h4.57v-1.36h.76v1.36h2.28v.69h-2.28v1.84h-2.64v1.26h4.18v2.64h-4.21c0 .45-.02.86-.05 1.21h4.32v.69h-4.38c-.04.34-.1.75-.19 1.22h5.15v.69h-4.82c.87 1.19 2.51 1.92 4.93 2.19-.17.31-.3.57-.37.76-2.77-.49-4.52-1.41-5.26-2.76-.56 1.26-2.3 2.23-5.24 2.9-.12-.24-.26-.48-.43-.72 2.73-.55 4.38-1.34 4.96-2.38h-4.38v-.69h4.65c.1-.38.17-.79.21-1.22h-4.32v-.69h4.4c.03-.34.05-.75.05-1.21h-4.2v-2.64h4.23v-1.26h-2.69v-1.84h-2.24zm1.46 4.46v1.29h3.45c.01-.4.02-.57.01-.53v-.32-.45h-3.46zm1.55-2.59h4.57v-1.19h-4.57zm6.11 2.59h-3.42v.77c-.02.19-.01.37-.02.53h3.44z" fill="#fcfafa"/><path d="m32.63 379.16h.82v1.98h3.54v7.89h1.46v.78h-14.37v-.78h1.46v-7.89h3.54v-1.98h.82v1.98h2.73zm-3.49 11.48.5.73c-1.61.82-3.28 1.63-5 2.41-.13-.27-.28-.55-.44-.82 1.75-.72 3.4-1.49 4.94-2.32m-2.78-5.55h2.73v-3.18h-2.73zm0 3.95h2.73v-3.2h-2.73zm3.54-3.95h2.73v-3.18h-2.73zm0 3.95h2.73v-3.2h-2.73zm7.89 4.68c-1.84-.92-3.51-1.7-5.02-2.32l.45-.73c1.89.8 3.57 1.55 5.04 2.23zm-1.62-11.81h-2.73v3.18h2.73zm-2.73 7.13h2.73v-3.2h-2.73z" fill="#fcfafa"/><g fill="#010102"><path d="m33.38 365.62c-2.55-3.95-.75-5.77 1.32-7.65 21.72-19.71 40.3-42.02 55.43-67.15 3.33-5.53 6.38-11.24 9.64-17.02-9.87-9.27-21.47-14.34-33.91-19.16-1.3 4.54-2.44 8.62-3.64 12.69-1.26 4.26-11.89 7.83-14.88 4.65-1.26-1.34-1.55-4.31-1.19-6.35 2.66-15.35 5.62-30.65 8.42-45.98 4.75-25.93 9.45-51.86 14.15-77.8.11-.62-.06-1.28-.12-2.35-13.75 0-27.37 0-41.37 0 0-2.96 0-5.49 0-8.47h43.25c5.34-30.03 10.61-59.69 16.01-90.05 10.38 3.63 21.31 4.67 30.47 10.59.04.69.08 1.37.12 2.06-2.99 1.49-5.87 3.32-9 4.39-3.07 1.04-4.7 2.24-5.4 5.87-4.27 22.13-8.97 44.18-13.7 67.12h9.45c9.33 0 18.67-.19 27.99.09 3.9.12 6.62-.9 8.64-4.29 1.43-2.4 3.32-4.53 5.31-7.19 6.11 4.72 12.16 9.07 17.76 13.93 1.76 1.52 3.3 4.54 3.05 6.65-.15 1.31-3.8 2.42-6.02 3.19-1.83.64-3.87.66-5.19.86-3.6 21.66-6.75 43.14-10.84 64.44-4.12 21.44-11.31 41.98-20.85 61.84 5.23 4.81 11 9.18 15.57 14.58 4.76 5.63 8.8 12.01 12.32 18.51 2.36 4.36 1.82 9.35-1.01 13.82-4 6.3-9.34 6.13-12.97-.43-3.54-6.4-6.87-12.94-10.84-19.07-2.65-4.08-6.26-7.54-9.89-11.8-20.74 32.6-45.09 60.16-78.08 79.48zm96.83-226.19c-13.99 0-27.11-.08-40.22.16-1.01.02-2.62 2.14-2.88 3.49-4.77 24.73-9.39 49.49-14.02 74.24-1.97 10.52-3.91 21.05-5.78 31.19 12.62 4.44 24.7 8.69 36.99 13.01 16.26-38.77 23.28-79.55 25.91-122.09z"/><path d="m147.03 202.94c1.36-2.51 2.05-4.57 3.36-6.11 39.29-46.53 67.21-99.22 85.31-157.25.24-.77.49-1.54.72-2.26 9.43.47 34.02 9.28 36.63 13.65-3.37 1.04-6.56 2.02-10.41 3.21 26.07 51.17 64.02 91.4 110.92 122.91-7.21 5.99-14.31 11.89-21.78 18.09-40.82-39.34-74.28-84.86-97.76-138.72-3.52 7.42-6.62 14.05-9.8 20.63-21.86 45.2-49.64 86.17-86.29 120.81-5.31 5.02-5.26 5.08-10.9 5.04z"/><path d="m311.99 235.97c-49.47 0-98.55 0-147.89 0 0-2.85 0-5.26 0-8.38h6.44c44.32 0 88.65-.1 132.97.13 5.24.03 8.91-1.12 11.46-5.78 1.17-2.14 2.91-3.97 4.49-6.07 6.95 5.92 13.73 11.56 20.35 17.38 3.69 3.24 3.22 6.96-1.54 7.46-8.73.93-10.82 7.02-13.46 13.51-14.31 35.24-28.79 70.41-43.2 105.61-1.96 4.78-13.96 8.53-17.84 5.15-1.11-.97-1.2-4.23-.52-5.96 9.64-24.56 19.5-49.05 29.3-73.55 6.16-15.41 12.33-30.82 18.47-46.24.35-.87.55-1.82.97-3.26z"/><path d="m192 173.59h6.08c22.97 0 45.95.09 68.92-.13 2.48-.02 5.47-1.31 7.32-3 5.39-4.93 10.32-10.36 15.87-16.04 8.56 6.55 16.89 12.77 24.99 19.28 1.3 1.05 2.54 4.59 2.15 4.91-1.89 1.52-4.35 3.22-6.62 3.24-22.97.23-45.94.14-68.92.14-16.46 0-32.92 0-49.78 0-.01-2.68-.01-5.08-.01-8.4z"/></g></svg>