<svg enable-background="new 0 0 400 400" viewBox="0 0 400 400" xmlns="http://www.w3.org/2000/svg"><path d="m385.2 377.6.6-.7c.6.4 1.3.9 1.9 1.5l-.6.7c-.8-.5-1.4-1-1.9-1.5zm.3 7.1c.6-1.4 1.1-2.9 1.5-4.5.3.1.6.3.9.4-.5 1.4-1 2.9-1.5 4.4zm.2-10.1.6-.6c.7.5 1.3 1.1 1.9 1.6l-.7.7c-.6-.6-1.2-1.2-1.8-1.7zm8.4-.8h.8v.9h1.8v.7h-1.8v1.8h-.8v-.3h-1.2v.9h3.3v2.6h-.8v-.4h-2.5c0 .3 0 .6-.1.8h3.4v.7h-3.5c0 .3-.1.6-.1.8h4v.7h-3.5c.7.9 1.9 1.3 3.6 1.5-.2.2-.4.5-.6.9-1.9-.3-3.2-1.1-3.8-2.3-.5 1.1-1.8 2-3.9 2.4-.2-.3-.4-.5-.6-.8 1.9-.4 3.1-.9 3.6-1.7h-3.2v-.7h3.5c.1-.2.1-.5.2-.8h-3.3v-.7h3.4c0-.2 0-.5 0-.8h-2.4v.3h-.8v-2.6h3.3v-.9h-1.2v.3h-.8v-1.8h-1.8v-.7h1.8v-.9h.8v.9h3.2zm-4.4 5.5h2.4c1-.3 0-.6 0-.9h-2.4zm1.2-3.1h3.2v-.8h-3.2zm4.4 2.2h-2.4v.9h2.5v-.9z" fill="#fafafb"/><path d="m389.2 385.8h.9v1.5h1.9v-1.5h.9v1.5h2.7v6h1.1v.9h-11.3v-.9h1.1v-6h2.7zm.2 8.7.5.8c-1.2.6-2.5 1.3-4 1.9-.2-.3-.3-.6-.6-.8 1.6-.6 3-1.3 4.1-1.9zm-2-4.3h1.9v-2.1h-1.9zm0 3.1h1.9v-2.2h-1.9zm2.7-3.1h1.9v-2.1h-1.9zm0 3.1h1.9v-2.2h-1.9zm2.4 1.3c1.4.6 2.7 1.2 4.1 1.8l-.5.9c-1.5-.7-2.8-1.4-4.1-1.9zm2.2-6.5h-1.9v2.1h1.9zm-1.9 5.2h1.9v-2.2h-1.9z" fill="#fafafb"/><g fill="#010100"><path d="m31.42 365.6c-2.62-3.86-.85-5.7 1.22-7.57 19.96-18.11 37.33-38.42 51.74-61.21 4-6.32 7.54-12.92 11.43-19.3 1.67-2.74 1.48-4.58-1.19-6.67-9.13-7.16-19.5-11.83-30.72-16.22-1.3 4.49-2.74 8.51-3.56 12.64-.56 2.81-1.87 4.03-4.58 4.13-.65.02-1.27.39-1.93.5-10.9 1.84-12.32.31-10.24-10.39 7.77-40.06 15.46-80.13 23.17-120.19.06-.3-.07-.64-.2-1.62-13.59 0-27.29 0-41.36 0 0-3.06 0-5.48 0-8.51h43.24c5.37-30.2 10.64-59.86 16.04-90.22 10.34 3.77 21.41 4.44 30.41 10.77.06.64.11 1.27.17 1.91-2.99 1.49-5.87 3.32-9.01 4.38-3.08 1.04-4.69 2.26-5.39 5.88-4.27 22.13-8.97 44.18-13.7 67.1h9.45c9.33 0 18.67-.19 27.99.09 3.9.12 6.62-.89 8.64-4.28 1.43-2.4 3.32-4.53 5.32-7.19 6.1 4.72 12.15 9.06 17.76 13.92 1.76 1.52 3.31 4.54 3.07 6.65-.15 1.3-3.79 2.42-6.02 3.2-1.83.64-3.88.66-6.39 1.04-3.64 43.46-11.39 86.08-30.48 126.12 5.19 4.77 10.95 9.14 15.51 14.53 4.77 5.63 8.81 12 12.34 18.5 2.36 4.35 1.85 9.35-.97 13.82-3.99 6.33-9.34 6.19-12.97-.35-3.54-6.4-6.86-12.94-10.83-19.07-2.65-4.09-6.26-7.56-9.91-11.86-20.72 32.58-45.08 60.13-78.05 79.47zm96.79-226.17c-13.99 0-27.11-.08-40.22.16-1.01.02-2.62 2.14-2.88 3.49-4.77 24.73-9.39 49.49-14.02 74.24-1.97 10.52-3.91 21.05-5.78 31.19 12.62 4.44 24.7 8.69 36.99 13.01 16.26-38.77 23.28-79.55 25.91-122.09z"/><path d="m310.32 173.27c-37.5 0-74.6 0-112.07 0-.09 1.78-.24 3.39-.25 5-.05 8.19-4.11 13.84-11.99 16.43-3.14 1.04-5.66.55-6.31-3.31-.25-1.46-.68-2.93-.68-4.39-.03-45.16-.01-90.33.01-135.49 0-.33.1-.66.27-1.64 5.96 2.76 11.71 5.6 17.61 8.06 2.52 1.05 5.38 1.8 8.09 1.81 32 .12 64-.04 95.99.21 4.78.04 7.87-1.09 9.8-5.5.85-1.95 2.27-3.65 3.87-6.14 8.1 5.65 16.19 11.05 23.99 16.83 2.75 2.03 2.35 4.78-.91 6.26-2.69 1.22-5.59 1.98-8.75 3.06v5.34 92.49c0 6-8.25 14.39-14.15 13.84-1.47-.13-3.5-2.29-3.92-3.87-.74-2.78-.44-5.85-.6-8.99zm-.13-8.7c0-15.6 0-30.95 0-46.18-37.6 0-74.8 0-111.82 0v46.18zm-111.86-96.27v40.82h111.89c0-13.89 0-27.32 0-40.82-37.47 0-74.57 0-111.89 0z"/><path d="m244.83 281.01c-32.24 0-63.71 0-95.59 0 0-2.76 0-5.27 0-8.35h95.2c0-18.25 0-35.97 0-54.2-24.89 0-49.79 0-75.1 0 0-2.9 0-5.31 0-8.53h5.51c42.32 0 84.64-.06 126.95.09 4.02.01 6.85-1.09 9.52-4.05 4.67-5.17 9.71-10.01 14.73-15.12 8.29 6.28 16.21 12.06 23.81 18.23 1.68 1.36 2.25 4.09 3.33 6.18-2.27.97-4.54 2.76-6.82 2.77-25.66.2-51.31.13-76.97.13-1.81 0-3.62 0-5.83 0v54.11c1.48.1 3.08.29 4.69.29 17.99.02 35.99.14 53.98-.13 2.46-.04 5.41-1.44 7.25-3.16 5.35-4.97 10.25-10.42 15.42-15.78 8.28 6.23 16.1 11.87 23.58 17.93 1.81 1.47 2.49 4.32 3.69 6.54-2.43 1.01-4.85 2.88-7.28 2.9-31.82.2-63.64.13-95.46.13-1.83 0-3.65 0-6.26 0v5.51 74.47c0 5.45-8.89 14.01-14.17 13.19-1.47-.23-3.17-2.2-3.8-3.76-.7-1.75-.37-3.93-.37-5.93-.02-25.82-.01-51.65-.01-77.47 0-1.78 0-3.57 0-5.99z"/></g></svg>