<svg enable-background="new 0 0 400 400" viewBox="0 0 400 400" xmlns="http://www.w3.org/2000/svg"><path d="m385.2 377.6.6-.7c.6.4 1.3.9 1.9 1.5l-.6.7c-.8-.5-1.4-1-1.9-1.5zm.3 7.1c.6-1.4 1.1-2.9 1.5-4.5.3.1.6.3.9.4-.5 1.4-1 2.9-1.5 4.4zm.2-10.1.6-.6c.7.5 1.3 1.1 1.9 1.6l-.7.7c-.6-.6-1.2-1.2-1.8-1.7zm8.4-.8h.8v.9h1.8v.7h-1.8v1.8h-.8v-.3h-1.2v.9h3.3v2.6h-.8v-.4h-2.5c0 .3 0 .6-.1.8h3.4v.7h-3.5c0 .3-.1.6-.1.8h4v.7h-3.5c.7.9 1.9 1.3 3.6 1.5-.2.2-.4.5-.6.9-1.9-.3-3.2-1.1-3.8-2.3-.5 1.1-1.8 2-3.9 2.4-.2-.3-.4-.5-.6-.8 1.9-.4 3.1-.9 3.6-1.7h-3.2v-.7h3.5c.1-.2.1-.5.2-.8h-3.3v-.7h3.4c0-.2 0-.5 0-.8h-2.4v.3h-.8v-2.6h3.3v-.9h-1.2v.3h-.8v-1.8h-1.8v-.7h1.8v-.9h.8v.9h3.2zm-4.4 5.5h2.4c1-.3 0-.6 0-.9h-2.4zm1.2-3.1h3.2v-.8h-3.2zm4.4 2.2h-2.4v.9h2.5v-.9z" fill="#fafafb"/><path d="m389.2 385.8h.9v1.5h1.9v-1.5h.9v1.5h2.7v6h1.1v.9h-11.3v-.9h1.1v-6h2.7zm.2 8.7.5.8c-1.2.6-2.5 1.3-4 1.9-.2-.3-.3-.6-.6-.8 1.6-.6 3-1.3 4.1-1.9zm-2-4.3h1.9v-2.1h-1.9zm0 3.1h1.9v-2.2h-1.9zm2.7-3.1h1.9v-2.1h-1.9zm0 3.1h1.9v-2.2h-1.9zm2.4 1.3c1.4.6 2.7 1.2 4.1 1.8l-.5.9c-1.5-.7-2.8-1.4-4.1-1.9zm2.2-6.5h-1.9v2.1h1.9zm-1.9 5.2h1.9v-2.2h-1.9z" fill="#fafafb"/><g fill="#010100"><path d="m91.13 266.13c-8.19-7.33-16.29-14.59-24.78-22.2-1.87 7.38-3.73 14.21-5.28 21.1-.58 2.56-1.47 3.3-4.06 2.51-4.97-1.5-10.02-2.7-14.96-3.99 9.28-46.65 18.53-93.18 27.95-140.55-8.08 0-15.01 0-21.94 0-8.48 0-8.48 0-12.03-8.73h33.85c1.41-10.23 2.84-20.04 4.11-29.86 1.71-13.15 3.26-26.32 4.98-39.47.38-2.95.22-7.01 2.01-8.44 1.65-1.32 5.68-.18 8.47.58 7.35 2 14.62 4.28 21.83 6.73 1.17.4 2.6 2.33 2.52 3.46-.1 1.41-1.34 3.39-2.6 3.94-4.13 1.8-8.49 3.05-12.91 4.57-2.39 19.04-4.8 38.34-7.29 58.2 7.53 0 14.82.08 22.11-.09.99-.02 2.19-1.15 2.9-2.06 3.5-4.52 6.87-9.13 10.76-14.36 5.67 5.94 11.09 11.66 16.57 17.33 2.62 2.72 2.79 6.03-.39 7.51-8.45 3.93-6.94 11.69-7.89 18.46-2.08 14.91-3.57 29.9-5.92 44.77-2.31 14.64-5.14 29.22-8.21 43.73-2.05 9.69-4.66 19.29-7.58 28.76-1.26 4.1-.02 6.45 2.97 8.69 9.13 6.83 17.49 14.57 22.48 24.92 1.93 4 2.42 9.31 1.8 13.77-.84 6.07-10.63 8.13-15.3 3.19-4.24-4.48-7.57-9.82-11.32-14.77-2.66-3.52-5.33-7.02-8.52-11.22-14.16 33.57-36.92 59.02-67.08 77.83-1.66-2.1-3.48-4.4-5.51-6.97 26.56-24.18 45.86-53.02 58.26-87.34zm4.53-15.43c11.16-41.88 17.62-84.2 20.46-127.43-9.27 0-18 0-26.5 0-2.23 12.29-4.3 24.32-6.62 36.31-4.52 23.33-9.19 46.63-13.79 69.94-.52 2.62-.16 4.4 2.63 6.04 8 4.68 15.69 9.91 23.82 15.14z"/><path d="m258.25 210v16c9.36 0 18.52.49 27.57-.29 2.8-.24 5.39-3.84 7.88-6.11 1.29-1.18 2.14-2.85 3.92-5.29 5.68 4.93 11.17 9.45 16.35 14.31 2.49 2.34 1 5.08-1.43 6.05-6.06 2.43-6.79 6.88-6.64 12.64.34 13.64.11 27.3.11 41.32-5.6 0-10.99 0-16.8 0-.13-2.01-.25-4.08-.4-6.38-10.18 0-20.11 0-30.43 0v8.4c12.74 3.13 25.4 6.02 37.9 9.46 3.83 1.05 7.49 3.28 10.78 5.6 5.76 4.06 6.85 12.97 2.51 17.2-3.58 3.49-9.58 2.69-14.58-1.3-5.6-4.47-11.34-8.87-17.45-12.59-5.91-3.6-12.38-6.31-19.42-9.82v48.49c-5.88 0-11.26 0-17.06 0 0-15.76 0-31.34 0-47.09-8.39 6.62-16.1 13.45-24.56 19.18-9.29 6.3-19.29 11.54-28.93 17.34-2.24 1.35-3.53 1.06-4.69-1.33-.69-1.42-1.97-2.55-2.92-3.72 10.24-7.39 20.84-13.94 30.11-22.04 9.3-8.12 17.27-17.77 26.66-27.63-9.96 0-18.6 0-27.58 0v7.22c-5.73 0-11.12 0-16.84 0 0-23.39 0-46.81 0-71.43 15.25 9.22 31.66 8.42 48.39 7.46 0-4.97 0-9.91 0-15.67-1.6 0-3.34 0-5.08 0-14.66 0-29.33 0-43.99 0-7.84 0-8.49-.58-10-9.14h59.26c0-5.6 0-10.88 0-17.58 8.12 1.66 15.72 2.88 23.1 4.89 3.51.95 2.23 3.67.02 5.16-1.56 1.06-3.63 1.37-5.76 2.12v5.55c10.7 0 21.32.06 31.94-.09 1.09-.01 2.4-1.01 3.22-1.91 3.75-4.13 7.36-8.39 11.84-13.54 6.33 6.08 12.68 12.18 18.14 17.43-1.99 7.05-5.67 7.23-9.9 7.2-18.29-.16-36.59-.07-55.24-.07zm-49.03 63.64h31.38c0-13.4 0-26.44 0-39.38-10.66 0-20.91 0-31.38 0zm79.41.16c0-13.5 0-26.54 0-39.55-10.3 0-20.22 0-30.34 0v39.55z"/><path d="m286.01 329.78c12.36.42 24.2.91 36.03 1.19 5.82.14 8.94-2.96 8.94-8.62.03-46.98.01-93.96.01-140.94 0-.96-.09-1.93-.16-3.14-16.87 0-33.46 0-50.42 0-.21 1.3-.44 2.69-.72 4.42-5.65 0-11.39 0-17.41 0 0-28.49 0-56.9 0-85.67 2.84 1.1 5.8 1.72 8.17 3.25 7.84 5.04 16.28 6.43 25.45 5.84 7.8-.5 15.74-.84 23.46.1 8.05.98 12.13-3.74 16.47-8.76 1.27-1.47 2.38-3.06 4.15-5.36 6.17 5.61 12.14 10.73 17.72 16.25 3.76 3.72 3.25 7.26-1.41 9.86-4.98 2.78-6.51 6.34-6.48 12.17.27 66.64.17 133.28.17 199.92 0 12.4-4.73 20.88-16.86 24.94-3.79 1.27-8.02 1.36-12.08 1.65-.95.07-2.72-1.08-2.89-1.91-1.7-8.29-8.42-10.69-15.1-12.82-4.63-1.48-9.57-1.98-14.27-3.29-1.14-.32-2.38-1.98-2.68-3.24-.43-1.86-.09-3.93-.09-5.84zm44.77-183.42c-17.12 0-33.82 0-50.37 0v22.38h50.37c0-7.53 0-14.79 0-22.38zm-.07-9.6c0-7.28 0-14.32 0-21.44-16.99 0-33.69 0-50.33 0v21.44z"/><path d="m173.18 356.75c-6.83 0-12.77 0-18.94 0 0-86.83 0-173.42 0-260.31 3.22 1.32 6.63 2.19 9.46 3.97 7.42 4.67 15.31 6.17 24.01 5.69 9.14-.5 18.33-.2 27.49-.07 3.21.05 5.48-.46 7.27-3.7 1.64-2.95 4.55-5.2 7.38-8.28 5.89 5.28 11.41 9.93 16.57 14.95 3.93 3.82 3.67 6.66-1.18 9.19-5.26 2.73-6.53 6.46-6.39 12.17.41 17.3.15 34.62.15 52.28-5.99 0-11.72 0-17.8 0-.13-1.41-.25-2.81-.4-4.42-15.86 0-31.47 0-47.62 0zm.02-188.13h47.55c0-7.64 0-14.9 0-22.34-15.95 0-31.65 0-47.55 0zm47.58-53.27c-16.11 0-31.81 0-47.37 0v21.38h47.37c0-7.18 0-14.11 0-21.38z"/><path d="m285.02 94.75c0-7.93 0-15.53 0-23.75-3.95 0-7.56 0-11.16 0-8.55 0-8.55 0-11.74-8.88h22.83c0-9.87 0-19.26 0-29.95 9.76 1.01 18.88 1.74 27.92 3.05 1.86.27 4.04 2.37 4.83 4.18.39.9-1.71 3.54-3.24 4.49-3.13 1.94-6.64 3.28-10.29 5v13.09c9.56 0 18.99.07 28.41-.11.9-.02 1.93-1.47 2.64-2.44 4.43-6.04 8.79-12.13 13.47-18.62 6.21 6.68 12.45 13.09 18.24 19.89 1.22 1.43 1.24 4.39.92 6.51-.45 3.01-2.69 3.9-5.83 3.87-17.34-.16-34.66-.08-51.99-.08-1.8 0-3.61 0-5.96 0v23.75c-6.46 0-12.39 0-19.05 0z"/><path d="m240.04 44.05c5.59 5.77 10.65 10.83 15.51 16.07 1.59 1.72 4.56 2.71 2.75 6.49-1.6 3.36-3.41 4.56-7.09 4.47-10.16-.24-20.33-.08-30.5-.08-1.66 0-3.31 0-5.52 0v23.69c-6.6 0-12.65 0-19.08 0 0-7.75 0-15.36 0-23.44-1.94-.09-3.54-.23-5.13-.23-13.32-.03-26.65-.02-39.98-.02-7.35 0-8.07-.6-9.93-8.74h54.75c0-9.89 0-19.29 0-29.79 9.65 1.3 18.7 2.17 27.6 3.88 4.26.82 4.65 4.37 1.41 7.3-.49.44-.96.97-1.55 1.23-2.65 1.18-7.12 1.75-7.63 3.51-1.16 3.97-.36 8.52-.36 12.85 8.14 2.17 10.18 1.43 15.3-5.28 2.86-3.76 5.87-7.42 9.45-11.91z"/><path d="m215.03 241.38c.22-.23 1.34-1.42 2.54-2.69 7.07 3.9 13.07 8.47 16.02 15.72 1.29 3.18 1.42 7.06 1.13 10.54-.12 1.44-2.63 3.66-4.19 3.78-2.3.18-5.06-.72-6.99-2.07-1.34-.94-1.72-3.38-2.31-5.22-2.03-6.39-3.97-12.81-6.2-20.06z"/><path d="m269.43 239.56c4.82 2.28 9.27 4.23 13.54 6.53 1.27.68 2.01 2.34 3 3.55-1.22.8-2.51 1.51-3.64 2.42-1.97 1.56-4.15 2.98-5.69 4.9-3.35 4.18-6.35 8.65-9.54 13.07-1.77-1.14-3.09-1.99-4.65-3 2.27-8.98 4.56-17.97 6.98-27.47z"/></g></svg>