<svg enable-background="new 0 0 400 400" viewBox="0 0 400 400" xmlns="http://www.w3.org/2000/svg"><path d="m385.2 377.6.6-.7c.6.4 1.3.9 1.9 1.5l-.6.7c-.8-.5-1.4-1-1.9-1.5zm.3 7.1c.6-1.4 1.1-2.9 1.5-4.5.3.1.6.3.9.4-.5 1.4-1 2.9-1.5 4.4zm.2-10.1.6-.6c.7.5 1.3 1.1 1.9 1.6l-.7.7c-.6-.6-1.2-1.2-1.8-1.7zm8.4-.8h.8v.9h1.8v.7h-1.8v1.8h-.8v-.3h-1.2v.9h3.3v2.6h-.8v-.4h-2.5c0 .3 0 .6-.1.8h3.4v.7h-3.5c0 .3-.1.6-.1.8h4v.7h-3.5c.7.9 1.9 1.3 3.6 1.5-.2.2-.4.5-.6.9-1.9-.3-3.2-1.1-3.8-2.3-.5 1.1-1.8 2-3.9 2.4-.2-.3-.4-.5-.6-.8 1.9-.4 3.1-.9 3.6-1.7h-3.2v-.7h3.5c.1-.2.1-.5.2-.8h-3.3v-.7h3.4c0-.2 0-.5 0-.8h-2.4v.3h-.8v-2.6h3.3v-.9h-1.2v.3h-.8v-1.8h-1.8v-.7h1.8v-.9h.8v.9h3.2zm-4.4 5.5h2.4c1-.3 0-.6 0-.9h-2.4zm1.2-3.1h3.2v-.8h-3.2zm4.4 2.2h-2.4v.9h2.5v-.9z" fill="#fafafb"/><path d="m389.2 385.8h.9v1.5h1.9v-1.5h.9v1.5h2.7v6h1.1v.9h-11.3v-.9h1.1v-6h2.7zm.2 8.7.5.8c-1.2.6-2.5 1.3-4 1.9-.2-.3-.3-.6-.6-.8 1.6-.6 3-1.3 4.1-1.9zm-2-4.3h1.9v-2.1h-1.9zm0 3.1h1.9v-2.2h-1.9zm2.7-3.1h1.9v-2.1h-1.9zm0 3.1h1.9v-2.2h-1.9zm2.4 1.3c1.4.6 2.7 1.2 4.1 1.8l-.5.9c-1.5-.7-2.8-1.4-4.1-1.9zm2.2-6.5h-1.9v2.1h1.9zm-1.9 5.2h1.9v-2.2h-1.9z" fill="#fafafb"/><g fill="#010100"><path d="m40.5 344.35c.68-1.58 1.16-3.28 2.06-4.71 19.39-30.93 32.26-64.4 37.91-100.43 2.31-14.72 3.79-29.72 3.94-44.6.48-48.81.18-97.62.18-146.44 0-1.95 0-3.9 0-6.99 6.53 3.9 12.08 7.43 17.85 10.55 2.22 1.2 4.93 2.1 7.41 2.11 68.8.11 137.61.07 206.41.16 3.21 0 5.24-.86 6.91-3.61 1.62-2.66 3.8-4.99 6.03-7.84 7.81 5.74 15.5 11.19 22.94 16.95 3.13 2.42 2.62 4.65-1.02 6.34-1.34.62-2.83.92-4.25 1.33-1.43.42-2.88.79-4.81 1.32v24.25c0 11.33-.12 22.66.08 33.98.05 3.07-.81 5.06-3.54 6.34-3.44 1.62-6.72 3.72-10.31 4.88-3.98 1.28-5.52-.43-5.17-4.62.26-3.08.34-6.18.52-9.6-73.72 0-146.77 0-220.33 0-.08 1.84-.23 3.6-.23 5.35-.04 22.16.54 44.33-.2 66.47-1.51 45.3-11.4 88.26-38.28 125.89-5.01 7.02-10.76 13.54-16.43 20.06-1.59 1.83-4.12 2.84-6.22 4.23-.49-.45-.97-.91-1.45-1.37zm282.74-281.73c-73.54 0-146.74 0-219.77 0v52.06h219.77c0-17.55 0-34.8 0-52.06z"/><path d="m226.02 195.17c0-3.21 0-5.51 0-8.58h6.95c10.16 0 20.34-.27 30.48.12 4.69.18 6.5-1.24 7.68-5.83 4.02-15.57 8.6-31 13-46.48.4-1.4.98-2.75 1.61-4.49 8.88 3.3 17.63 6.33 26.15 9.9 1.95.82 3.12 3.48 4.65 5.3-1.72 1.35-3.39 3.77-5.17 3.86-9.2.44-13.63 6.69-18.09 13.4-5.23 7.86-10.86 15.46-17.01 24.16 8.25 0 15.5.12 22.74-.12 1.16-.04 2.44-1.56 3.37-2.64 4.01-4.66 7.91-9.42 12.21-14.57 8.14 5.67 16.24 11.11 24.07 16.93 1.59 1.19 2.12 3.8 3.14 5.76-2.28 1.06-4.54 3-6.85 3.05-14.16.29-28.32.14-42.48.14-1.8 0-3.6 0-5.73 0v61.43c6.64 0 13.24.13 19.81-.12 1.22-.05 2.51-1.5 3.53-2.53 5.26-5.32 10.45-10.71 15.89-16.31 8.38 6.31 16.44 12.14 24.16 18.38 1.63 1.31 2.01 4.16 2.97 6.3-2.16.93-4.3 2.63-6.47 2.66-17.99.22-35.98.12-53.98.12-1.82 0-3.64 0-6.25 0v6.04 80.97c0 5.41-8.58 14.17-13.89 13.74-1.36-.11-3.21-1.88-3.7-3.29-.79-2.28-.85-4.88-.85-7.35-.05-27.99-.03-55.98-.03-83.97 0-1.81 0-3.62 0-5.94-16.37 0-32.44 0-48.92 0 0-2.88 0-5.28 0-8.45h48.66c0-20.85 0-40.93 0-61.59-13.84 0-27.57 0-41.65 0z"/><path d="m153.02 272c-7.41 3.96-14.05 7.33-20.44 11.11-1.06.63-1.07 3.07-1.51 4.68-.46 1.67-.85 3.36-1.27 5.04-1.76-.71-4.13-.91-5.19-2.2-5.79-6.99-11.27-14.25-17.51-22.25 16.05-4.19 30.73-8.02 45.59-11.89 0-20.32 0-40.44 0-61.26-11.82 0-23.69 0-35.82 0 0-3.11 0-5.52 0-8.64h28.03c9.55 0 9.48-.02 12.04-9.15 4.42-15.79 8.94-31.55 13.49-47.59 8.93 3.31 17.71 6.37 26.31 9.88 1.85.76 3.07 3.09 4.57 4.69-1.55 1.33-3.1 2.67-4.66 4-.12.11-.29.23-.44.24-9.85.48-14.12 7.97-18.89 14.92-5.06 7.39-10.29 14.66-16.13 22.97 6.72 0 12.48.18 18.21-.13 1.35-.07 2.79-1.62 3.89-2.78 4.33-4.6 8.54-9.31 13.31-14.54 7.7 5.86 15.42 11.51 22.82 17.56 1.52 1.25 1.84 3.97 2.71 6.02-2.07.79-4.12 2.23-6.2 2.26-13.83.22-27.66.14-41.49.17-.8 0-1.6.16-2.7.28v54.75c16.18-1.36 31.14-10.39 47.65-8.7.23.74.46 1.48.68 2.21-2.32 1.37-4.53 3.01-6.98 4.06-12.23 5.2-24.43 10.49-36.85 15.19-4.12 1.56-4.96 3.77-5.14 7.7-1.07 24.29-8.68 45.96-26.59 63.16-13.4 12.88-29.7 20.52-47.43 25.35-1.53.42-3.3-.07-4.96-.13 1.2-1.54 2.11-3.53 3.66-4.53 7.38-4.77 15.4-8.68 22.35-13.99 22.06-16.87 33.17-39.65 34.89-68.46z"/></g></svg>