<svg enable-background="new 0 0 400 400" viewBox="0 0 400 400" xmlns="http://www.w3.org/2000/svg"><path d="m385.2 377.6.6-.7c.6.4 1.3.9 1.9 1.5l-.6.7c-.8-.5-1.4-1-1.9-1.5zm.3 7.1c.6-1.4 1.1-2.9 1.5-4.5.3.1.6.3.9.4-.5 1.4-1 2.9-1.5 4.4zm.2-10.1.6-.6c.7.5 1.3 1.1 1.9 1.6l-.7.7c-.6-.6-1.2-1.2-1.8-1.7zm8.4-.8h.8v.9h1.8v.7h-1.8v1.8h-.8v-.3h-1.2v.9h3.3v2.6h-.8v-.4h-2.5c0 .3 0 .6-.1.8h3.4v.7h-3.5c0 .3-.1.6-.1.8h4v.7h-3.5c.7.9 1.9 1.3 3.6 1.5-.2.2-.4.5-.6.9-1.9-.3-3.2-1.1-3.8-2.3-.5 1.1-1.8 2-3.9 2.4-.2-.3-.4-.5-.6-.8 1.9-.4 3.1-.9 3.6-1.7h-3.2v-.7h3.5c.1-.2.1-.5.2-.8h-3.3v-.7h3.4c0-.2 0-.5 0-.8h-2.4v.3h-.8v-2.6h3.3v-.9h-1.2v.3h-.8v-1.8h-1.8v-.7h1.8v-.9h.8v.9h3.2zm-4.4 5.5h2.4c1-.3 0-.6 0-.9h-2.4zm1.2-3.1h3.2v-.8h-3.2zm4.4 2.2h-2.4v.9h2.5v-.9z" fill="#fafafb"/><path d="m389.2 385.8h.9v1.5h1.9v-1.5h.9v1.5h2.7v6h1.1v.9h-11.3v-.9h1.1v-6h2.7zm.2 8.7.5.8c-1.2.6-2.5 1.3-4 1.9-.2-.3-.3-.6-.6-.8 1.6-.6 3-1.3 4.1-1.9zm-2-4.3h1.9v-2.1h-1.9zm0 3.1h1.9v-2.2h-1.9zm2.7-3.1h1.9v-2.1h-1.9zm0 3.1h1.9v-2.2h-1.9zm2.4 1.3c1.4.6 2.7 1.2 4.1 1.8l-.5.9c-1.5-.7-2.8-1.4-4.1-1.9zm2.2-6.5h-1.9v2.1h1.9zm-1.9 5.2h1.9v-2.2h-1.9z" fill="#fafafb"/><g fill="#010100"><path d="m333.84 234.72c9.76 7.16 18.98 13.71 27.9 20.64 1.83 1.42 2.52 4.3 3.74 6.51-2.44 1.04-4.87 2.99-7.31 3-46.81.18-93.63.13-140.44.13-1.97 0-3.94 0-6.56 0v5.71c0 20.82.05 41.65-.01 62.47-.05 19.01-11.43 31.61-30.38 33.82-5.41.63-7.64-.98-8.15-6.66-.59-6.56-3.94-10.22-10.28-11.69-5.65-1.3-11.24-2.93-16.81-4.55-1.99-.58-3.87-1.55-5.79-2.34-.05-.6-.1-1.2-.15-1.81 2.26-.65 4.51-1.83 6.78-1.87 10.99-.2 21.99-.04 32.99-.11 9.24-.05 13.43-4.23 13.45-13.43.04-18.49.02-36.99.01-55.48 0-1.14-.1-2.28-.18-3.99-55.25 0-110.28 0-165.56 0 0-3 0-5.41 0-8.5h7.01c90.8 0 181.59-.02 272.39.08 3.98 0 6.88-.97 9.61-3.93 5.63-6.07 11.62-11.83 17.74-18z"/><path d="m183.81 30.66c8.48 1.53 16.05 2.6 23.44 4.41 2.17.53 3.82 3.15 5.71 4.82-1.75 1.32-3.42 3.61-5.28 3.78-5.12.46-5.45 3.29-5.36 7.43.24 10.66.08 21.33.08 31.99v5.61h88.04c0-14.13 0-28.21 0-43.41 8.8 1.66 16.9 2.97 24.84 4.87 1.57.38 2.59 3.04 3.87 4.65-1.52 1.12-2.92 2.46-4.58 3.28-1.57.78-3.41 1.03-5.51 1.62v43.46c0 1.5-.27 3.06.04 4.49 1.81 8.36-3.27 12.51-9.57 15.94-5.99 3.27-8.79 1.75-8.91-5.01-.13-6.95-.03-13.91-.03-21.13-64.05 0-127.45 0-191.53 0 0 6.42.07 12.69-.02 18.96-.07 4.56-10.54 12.83-14.87 11.55-1.27-.38-2.53-2.05-3.04-3.41-.56-1.48-.3-3.28-.3-4.94-.01-23.66-.01-47.32-.01-70.99 0-1.8 0-3.6 0-6.22 8.54 1.59 16.51 2.85 24.34 4.7 1.64.39 2.76 2.95 4.11 4.51-1.44 1.18-2.75 2.63-4.37 3.47-1.57.82-3.46 1.03-5.53 1.59v31.95h84.42c.02-19.16.02-38.23.02-57.97z"/><path d="m66.69 132.87c5.53 6.73 2.16 13.48 3.82 19.73h113.22c0-14.69 0-29.42 0-44.64 8.41 1.44 16.24 2.51 23.91 4.28 2.03.47 3.56 3.09 5.32 4.72-1.72 1.33-3.33 2.86-5.2 3.92-1.4.79-3.14.97-5.01 1.5v30.55h5.76c36.48 0 72.97-.11 109.45.12 5.48.03 9.68-.94 12.44-5.98.76-1.4 2.16-2.45 3.59-4.02 9.12 7.12 18.01 14.05 26.88 21 2.09 1.64 4.38 3.13 6.12 5.1 3.55 3.99 1.97 8.12-3.3 8.94-2.12.33-4.4.61-6.46.19-6.68-1.38-12.07.83-17.46 4.66-8.67 6.16-17.67 11.86-26.66 17.55-2.18 1.38-4.85 2.01-7.3 2.98-.47-.53-.94-1.06-1.4-1.59 7.86-13.28 15.71-26.55 23.9-40.38-86.43 0-172.1 0-257.77 0-1.57 7.95-2.87 15.8-4.7 23.51-2.26 9.51-7.6 16.97-16.36 21.58-4.99 2.63-10.48 1.81-13.36-1.53-3.15-3.66-2.88-8.95.77-13.71.91-1.18 1.83-2.44 3-3.33 15.12-11.42 21.1-27.62 24.1-45.46.49-2.95 1.59-5.78 2.7-9.69z"/><path d="m92 218.17c0-2.26-.02-3.75.01-5.23.01-.81.1-1.61.19-3.01h5.98c48.32 0 96.64-.03 144.95.07 3.42.01 5.96-.79 8.31-3.36 4.82-5.28 9.94-10.28 15.35-15.83 8.64 6.65 16.99 12.91 25.09 19.48 1.26 1.02 2.31 3.8 1.8 5.12-.52 1.34-3.06 1.97-4.8 2.71-.71.3-1.65.06-2.48.06-63.15 0-126.29 0-189.44 0-1.44-.01-2.91-.01-4.96-.01z"/><path d="m250.05 286.01c2.37 0 4.84-.45 7.09.07 24.69 5.66 48.82 12.98 69.86 27.66 7.28 5.08 13.81 11.37 20.12 17.67 5.93 5.93 6.12 13.8 4.81 21.55-1.03 6.1-5.98 8.59-11.05 4.99-5.35-3.79-10.71-8.2-14.45-13.49-16.63-23.51-39.36-38.71-65.37-49.73-2.44-1.04-5-1.87-7.29-3.18-1.65-.94-2.94-2.5-4.4-3.79.22-.58.45-1.16.68-1.75z"/><path d="m35.7 363.36c-2.15-4.44.89-5.87 2.89-7.57 17.93-15.21 34.98-31.33 49.51-49.85 7.78-9.92 14.66-20.53 22.37-31.42 7.6 3.79 15.97 7.74 24.08 12.15 3.01 1.64 2.09 4.44-.49 5.81-2.44 1.29-5.32 2.35-8.03 2.38-3.76.05-6.1 1.73-8.43 4.31-21.97 24.22-47.4 44.19-75.41 60.93-1.95 1.17-4.07 2.05-6.49 3.26z"/></g></svg>