<svg enable-background="new 0 0 400 400" viewBox="0 0 400 400" xmlns="http://www.w3.org/2000/svg"><path d="m385.2 377.6.6-.7c.6.4 1.3.9 1.9 1.5l-.6.7c-.8-.5-1.4-1-1.9-1.5zm.3 7.1c.6-1.4 1.1-2.9 1.5-4.5.3.1.6.3.9.4-.5 1.4-1 2.9-1.5 4.4zm.2-10.1.6-.6c.7.5 1.3 1.1 1.9 1.6l-.7.7c-.6-.6-1.2-1.2-1.8-1.7zm8.4-.8h.8v.9h1.8v.7h-1.8v1.8h-.8v-.3h-1.2v.9h3.3v2.6h-.8v-.4h-2.5c0 .3 0 .6-.1.8h3.4v.7h-3.5c0 .3-.1.6-.1.8h4v.7h-3.5c.7.9 1.9 1.3 3.6 1.5-.2.2-.4.5-.6.9-1.9-.3-3.2-1.1-3.8-2.3-.5 1.1-1.8 2-3.9 2.4-.2-.3-.4-.5-.6-.8 1.9-.4 3.1-.9 3.6-1.7h-3.2v-.7h3.5c.1-.2.1-.5.2-.8h-3.3v-.7h3.4c0-.2 0-.5 0-.8h-2.4v.3h-.8v-2.6h3.3v-.9h-1.2v.3h-.8v-1.8h-1.8v-.7h1.8v-.9h.8v.9h3.2zm-4.4 5.5h2.4c1-.3 0-.6 0-.9h-2.4zm1.2-3.1h3.2v-.8h-3.2zm4.4 2.2h-2.4v.9h2.5v-.9z" fill="#fafafb"/><path d="m389.2 385.8h.9v1.5h1.9v-1.5h.9v1.5h2.7v6h1.1v.9h-11.3v-.9h1.1v-6h2.7zm.2 8.7.5.8c-1.2.6-2.5 1.3-4 1.9-.2-.3-.3-.6-.6-.8 1.6-.6 3-1.3 4.1-1.9zm-2-4.3h1.9v-2.1h-1.9zm0 3.1h1.9v-2.2h-1.9zm2.7-3.1h1.9v-2.1h-1.9zm0 3.1h1.9v-2.2h-1.9zm2.4 1.3c1.4.6 2.7 1.2 4.1 1.8l-.5.9c-1.5-.7-2.8-1.4-4.1-1.9zm2.2-6.5h-1.9v2.1h1.9zm-1.9 5.2h1.9v-2.2h-1.9z" fill="#fafafb"/><g fill="#010100"><path d="m185.26 132.61c-9.11 10.02-17.62 19.4-26.14 28.77-1.88 2.07-3.25 3.47-6.52 1.05-3.49-2.57-2.1-4.11-.6-6.63 7.86-13.16 16.28-26.05 23.18-39.71 7.7-15.24 13.77-31.26 17.9-47.93.53-2.14 1.58-4.16 2.75-7.15 9.51 4.18 18.67 7.96 27.56 12.31 1.74.85 3.12 3.82 3.3 5.92.09 1.07-2.94 3.53-4.42 3.43-9.97-.66-12.43 6.75-16.09 13.58-6.08 11.35-12.79 22.36-18.99 33.09 16.53 14.42 37.18 10.26 57.6 10.57 0-35.19 0-70.24 0-105.93 11.17.27 21.7.79 31.66 4.95 4.66 1.95 5 5.13.88 8.1-2.74 1.97-6.08 3.08-8.93 4.93-1.39.9-3.25 2.58-3.26 3.91-.18 27.81-.14 55.62-.14 84.13h21.53c3.17 0 6.4-.43 9.48.09 6.86 1.15 11.08-1.84 14.24-7.57 1.24-2.25 3.32-4.03 5.62-6.73 5.75 5.62 11.77 11.06 17.27 16.99 4.48 4.83 4.06 7.58-1.85 10.95-3.58 2.04-4.38 4.41-4.37 8.19.1 55.82.07 111.64.07 167.46 0 13.47-7.73 22.55-21.13 24.6-4.35.67-8.77.95-13.62 1.45-.11-12.54-8.24-16.58-18.11-18.86-5.86-1.36-11.71-2.74-17.88-4.19 0-2.81 0-5.89 0-8.46 14 .36 27.82.79 41.64 1.04 6.27.12 9.1-2.77 9.1-8.83.01-18.48 0-36.96 0-55.79-33.98 0-67.69 0-101.95 0v96.4c-6.81 0-13.07 0-19.79 0 .01-74.55.01-149.1.01-224.13zm20.15 70.57v47.55h101.27c0-15.98 0-31.69 0-47.55-33.9 0-67.49 0-101.27 0zm101.36-53.84c-34.08 0-67.78 0-101.37 0v44.4h101.37c0-14.84 0-29.43 0-44.4z"/><path d="m41.1 289.58c0-65.22 0-130.02 0-195.3 5.28 2.36 10.76 3.95 15.26 6.98 8.6 5.79 17.92 2.89 27.5 3.89 0-23.5 0-46.55 0-69.9 10.75-.78 20.83-.07 30.6 3.08 1.76.57 4.01 2.55 4.22 4.12s-1.54 3.82-3.01 5.09c-1.94 1.67-4.31 3.3-6.74 3.84-4.33.95-5.11 3.28-5.04 7.3.24 13.66.09 27.32.09 40.99v5.32c7.61 0 14.74.16 21.85-.13 1.51-.06 3.35-1.42 4.35-2.72 3.29-4.24 6.27-8.72 10-14 6.08 6.72 12.13 12.99 17.63 19.7 2.32 2.83 2.1 6.31-1.95 8.15-5.56 2.54-7.1 6.55-7.05 12.77.33 46.32.18 92.64.18 138.96 0 5.89-.89 11.62-5.77 15.49-2.94 2.33-6.41 4.35-9.96 5.45-3.67 1.13-7.73.98-11.95 1.42-.97-10.36-7.92-14.49-17.1-17.1v83.65c-6.88 0-13.26 0-20.18 0 0-80.77 0-161.48 0-242.42-7.79 0-15.05 0-22.85 0v175.34c-7.04.03-13.54.03-20.08.03zm63.26-175.34v149.76h16.3c7.7-.01 9.34-1.61 9.34-9.2 0-45.15 0-90.31 0-135.46 0-1.62 0-3.24 0-5.1-8.75 0-17.02 0-25.64 0z"/><path d="m294.11 62.6c9.29 6.19 18.59 11.94 27.4 18.36 13.87 10.11 26.46 21.57 35.49 36.49 3.38 5.59 3.86 11.7 2.6 17.58-.57 2.68-4.01 5.79-6.81 6.74-6.05 2.06-9.82-2.25-12.78-6.85-7.39-11.51-13.93-23.65-22.19-34.49-6.93-9.09-15.82-16.7-23.84-24.96-.81-.84-1.6-1.71-2.5-2.44-2.66-2.17-3.57-4.29-.3-6.78 1.01-.77 1.65-2.01 2.93-3.65z"/></g></svg>