<svg enable-background="new 0 0 400 400" viewBox="0 0 400 400" xmlns="http://www.w3.org/2000/svg"><path d="m385.2 377.6.6-.7c.6.4 1.3.9 1.9 1.5l-.6.7c-.8-.5-1.4-1-1.9-1.5zm.3 7.1c.6-1.4 1.1-2.9 1.5-4.5.3.1.6.3.9.4-.5 1.4-1 2.9-1.5 4.4zm.2-10.1.6-.6c.7.5 1.3 1.1 1.9 1.6l-.7.7c-.6-.6-1.2-1.2-1.8-1.7zm8.4-.8h.8v.9h1.8v.7h-1.8v1.8h-.8v-.3h-1.2v.9h3.3v2.6h-.8v-.4h-2.5c0 .3 0 .6-.1.8h3.4v.7h-3.5c0 .3-.1.6-.1.8h4v.7h-3.5c.7.9 1.9 1.3 3.6 1.5-.2.2-.4.5-.6.9-1.9-.3-3.2-1.1-3.8-2.3-.5 1.1-1.8 2-3.9 2.4-.2-.3-.4-.5-.6-.8 1.9-.4 3.1-.9 3.6-1.7h-3.2v-.7h3.5c.1-.2.1-.5.2-.8h-3.3v-.7h3.4c0-.2 0-.5 0-.8h-2.4v.3h-.8v-2.6h3.3v-.9h-1.2v.3h-.8v-1.8h-1.8v-.7h1.8v-.9h.8v.9h3.2zm-4.4 5.5h2.4c1-.3 0-.6 0-.9h-2.4zm1.2-3.1h3.2v-.8h-3.2zm4.4 2.2h-2.4v.9h2.5v-.9z" fill="#fafafb"/><path d="m389.2 385.8h.9v1.5h1.9v-1.5h.9v1.5h2.7v6h1.1v.9h-11.3v-.9h1.1v-6h2.7zm.2 8.7.5.8c-1.2.6-2.5 1.3-4 1.9-.2-.3-.3-.6-.6-.8 1.6-.6 3-1.3 4.1-1.9zm-2-4.3h1.9v-2.1h-1.9zm0 3.1h1.9v-2.2h-1.9zm2.7-3.1h1.9v-2.1h-1.9zm0 3.1h1.9v-2.2h-1.9zm2.4 1.3c1.4.6 2.7 1.2 4.1 1.8l-.5.9c-1.5-.7-2.8-1.4-4.1-1.9zm2.2-6.5h-1.9v2.1h1.9zm-1.9 5.2h1.9v-2.2h-1.9z" fill="#fafafb"/><g fill="#010100"><path d="m167.83 61.56c6.76 4.04 12.64 7.71 18.69 11.07 1.93 1.07 4.32 1.87 6.51 1.88 46.98.11 93.96.13 140.94-.06 2.18-.01 4.72-1.74 6.44-3.36 2.37-2.25 4.1-5.16 6.41-8.18 6.9 5.3 13.73 10.3 20.27 15.66 3.48 2.85 1.46 5.87-1.54 6.94-6.26 2.24-6.22 6.74-6.21 12.16.13 79.3.09 158.6.09 237.9 0 7.1-5.63 13.99-12.56 15.36-4.64.92-5.44-2.45-5.72-5.65-.36-3.97-.11-7.99-.13-11.99-.01-1.79 0-3.58 0-5.59-51.75 0-102.98 0-154.83 0 0 7.05.01 13.83 0 20.6-.01 5.4-9.39 13.76-14.59 12.72-1.29-.26-2.72-1.79-3.29-3.09-.63-1.43-.45-3.26-.45-4.92-.02-95.63-.01-191.25-.01-286.88-.02-1.14-.02-2.3-.02-4.57zm18.72 21.59v235.55h154.11c0-78.67 0-157.04 0-235.55-51.46 0-102.58 0-154.11 0z"/><path d="m110.28 173.49c2.56 1.2 5.65 2.44 8.53 4.04 3.11 1.73 2.88 3.95-.03 5.63-2.42 1.4-5 2.77-7.68 3.4-3.13.74-3.78 2.35-3.75 5.26.13 12.83.06 25.67.06 38.5v124.5c0 5.75-8.28 14.07-13.9 13.63-1.3-.1-3.15-1.48-3.56-2.68-.79-2.29-.98-4.87-.98-7.33-.05-51.33-.04-102.66-.04-154 0-1.76 0-3.52 0-6.67-17 19.01-34.22 35.55-56.86 44.9-.52-.43-1.04-.87-1.57-1.3.96-1.63 1.59-3.6 2.92-4.84 38.33-35.96 66.79-78.79 88.32-126.46.66-1.47 1.46-2.88 2.41-4.76 9.69 6.49 18.98 12.71 28.47 19.06-3.05 4.88-7.32 4.64-10.96 5.8-2.06.66-4.77 1.3-5.79 2.86-8.69 13.33-17.06 26.88-25.59 40.46z"/><path d="m30.35 140.99c1.14-1.81 1.93-4 3.46-5.37 31.86-28.5 58.97-60.9 80.66-97.78.16-.27.5-.42 1.1-.91 8.01 5.34 16.19 10.67 24.19 16.26 1.46 1.02 2.17 3.1 3.23 4.69-1.65.86-3.24 1.91-4.97 2.53-1.37.49-2.99.82-4.39.58-6.55-1.1-10.36 2.04-14.43 6.98-21.8 26.43-45.62 50.76-75.56 68.23-3.83 2.24-7.86 4.14-11.8 6.2-.49-.47-.99-.94-1.49-1.41z"/><path d="m289.97 131.37c6.55 5.03 12.65 9.64 18.66 14.36 4.51 3.54 4.69 6.17-.37 8.49-4.96 2.27-5.37 5.52-5.35 10.16.17 33.14.09 66.29.08 99.43 0 4.88-9.93 13.89-14.7 13.04-1.27-.23-2.84-1.83-3.26-3.13-.75-2.32-.92-4.89-1-7.36-.16-5.32-.09-10.66-.14-15.98 0-.29-.24-.58-.47-1.11-15.15 0-30.39 0-46.26 0 0 8.26.01 16.37 0 24.47-.01 5.41-9.06 13.97-14.34 13.18-1.38-.21-2.93-1.96-3.6-3.38-.66-1.39-.39-3.26-.4-4.92-.01-47.8-.01-95.6 0-143.4 0-1.42.17-2.84.3-4.99 6.37 3.82 12.1 7.44 18.02 10.7 2.07 1.14 4.63 1.89 6.98 1.94 10.49.2 20.99-.14 31.47.2 4.14.14 6.91-.97 9.02-4.48 1.45-2.41 3.34-4.53 5.36-7.22zm-6.24 108.85c0-29.72 0-59.12 0-88.59-15.61 0-30.95 0-46.35 0v88.59z"/></g></svg>