<svg enable-background="new 0 0 400 400" viewBox="0 0 400 400" xmlns="http://www.w3.org/2000/svg"><path d="m5.17 384 .55-.58c.85.61 1.65 1.24 2.4 1.87l-.59.64c-.83-.73-1.62-1.38-2.36-1.93m1.22 9.53-.82-.34c.71-1.76 1.37-3.64 1.98-5.63.24.13.5.25.76.36-.6 1.67-1.24 3.54-1.92 5.61m-.5-13.5.57-.54c.56.44 1.31 1.06 2.26 1.87l-.64.64c-.68-.66-1.41-1.32-2.19-1.97m3.25.46h2.24v-1.36h.77v1.36h4.57v-1.36h.76v1.36h2.28v.69h-2.28v1.84h-2.64v1.26h4.18v2.64h-4.21c0 .45-.02.86-.05 1.21h4.32v.69h-4.38c-.04.34-.1.75-.19 1.22h5.15v.69h-4.82c.87 1.19 2.51 1.92 4.93 2.19-.17.31-.3.57-.37.76-2.77-.49-4.52-1.41-5.26-2.76-.56 1.26-2.3 2.23-5.24 2.9-.12-.24-.26-.48-.43-.72 2.73-.55 4.38-1.34 4.96-2.38h-4.38v-.69h4.65c.1-.38.17-.79.21-1.22h-4.32v-.69h4.4c.03-.34.05-.75.05-1.21h-4.2v-2.64h4.23v-1.26h-2.69v-1.84h-2.24zm1.46 4.46v1.29h3.45c.01-.4.02-.57.01-.53v-.32-.45h-3.46zm1.55-2.59h4.57v-1.19h-4.57zm6.11 2.59h-3.42v.77c-.02.19-.01.37-.02.53h3.44z" fill="#fcfafa"/><path d="m32.63 379.16h.82v1.98h3.54v7.89h1.46v.78h-14.37v-.78h1.46v-7.89h3.54v-1.98h.82v1.98h2.73zm-3.49 11.48.5.73c-1.61.82-3.28 1.63-5 2.41-.13-.27-.28-.55-.44-.82 1.75-.72 3.4-1.49 4.94-2.32m-2.78-5.55h2.73v-3.18h-2.73zm0 3.95h2.73v-3.2h-2.73zm3.54-3.95h2.73v-3.18h-2.73zm0 3.95h2.73v-3.2h-2.73zm7.89 4.68c-1.84-.92-3.51-1.7-5.02-2.32l.45-.73c1.89.8 3.57 1.55 5.04 2.23zm-1.62-11.81h-2.73v3.18h2.73zm-2.73 7.13h2.73v-3.2h-2.73z" fill="#fcfafa"/><g fill="#010102"><path d="m257.04 207.24c-20.68 0-41.61 0-62.79 0v105.6c26-7.05 51.52-13.96 76.94-20.85.33.48.65.73.68 1.01.8 7.65.84 7.75-6.39 10.86-31.74 13.65-64.13 25.43-97.56 34.25-3.9 1.03-7.08 2.46-7.22 7.75-.08 2.75-2.19 6.89-4.43 7.81-3.79 1.54-6.1-2.37-7.58-5.48-3.83-8.06-7.38-16.25-11.25-24.86 9.23-1.54 17.56-2.98 25.9-4.29 9.65-1.51 9.66-1.46 9.66-10.95 0-86.16 0-172.32 0-258.48 0-1.95 0-3.91 0-6.44 7.57 3.53 14.61 6.91 21.75 10.08 2.03.9 4.33 1.69 6.51 1.7 36.16.1 72.33 0 108.49.19 3.81.02 5.8-1.89 7.82-4.29 2.96-3.51 5.79-7.12 9.17-11.3 2.89 2.24 5.87 4.15 8.36 6.56 4.15 4 8.17 8.16 11.87 12.57 1.82 2.16 2.1 4.85-1.27 6.45-8.34 3.97-10.32 10.47-9.95 19.57.81 19.8.25 39.65.25 59.48v5.6c-6.75 0-13.02 0-19.84 0 0-6.39 0-12.79 0-19.46-14.81 0-29.08 0-43.97 0 0 9.59-.21 19.33.08 29.06.18 5.89 1.09 11.76 1.75 17.63.62 5.54 1.19 11.09 2.18 16.56.18 1 2.28 2.33 3.51 2.35 12.83.17 25.66.17 38.49.01 1.3-.02 2.98-1.08 3.82-2.17 5.19-6.72 10.18-13.59 15.8-21.16 7.59 8.67 15.01 17.15 21.68 24.78-.91 7.17-4.71 7.84-9.99 7.78-23.65-.29-47.3-.13-72.53-.13 5.37 16.53 10.05 32.52 15.77 48.13 6.99 19.12 17.84 36.24 29.74 52.66 2.32 3.2 5.41 5.91 8.44 8.49 3.48 2.96 6.56 2.47 8.11-1.84 3.02-8.39 5.76-16.93 7.8-25.6 2.05-8.72 3.12-17.68 4.62-26.54 7.38.83 8.48 3.27 7.85 10.45-1.57 18.06-4.23 36.17-1.21 54.32.86 5.18 2.86 10.09 9.06 12.46-1.13 2.74-1.94 5.69-3.47 8.21-4.64 7.6-14.29 9.45-22.22 5.3-15.73-8.23-26.77-21.37-37.73-34.69-17.52-21.29-28.61-45.91-36.81-71.91-3.83-12.1-6.56-24.52-9.89-37.23zm58.68-86.46c0-19.17 0-37.76 0-56.46-40.64 0-81.01 0-121.36 0v56.46zm-60.77 77.02c-1.66-22.56-3.3-44.96-4.95-67.46-18.29 0-37 0-55.61 0v67.46z"/><path d="m88.33 32.99c9.21 1.37 18.01 2.16 26.56 4.09 7.57 1.71 8.04 4.96 2.28 10.21-.83.76-1.79 1.56-2.83 1.88-5.42 1.66-6.5 5.24-6.49 10.7.19 96.45.14 192.91.14 289.36v6.37c-6.55 0-12.94 0-19.67 0 .01-106.92.01-213.94.01-322.61z"/><path d="m56.4 104.04c2.19 0 4.29-.42 6.1.14 1.36.42 3.15 1.93 3.37 3.2 3.58 20.04 5.19 40.28 4 60.59-.7 11.99-1.85 24.04-8.73 34.68-5.13 7.94-12.12 8.67-20.26 6.55-5.1-1.33-6.65-8.44-3.83-14.36 3.22-6.78 7.22-13.31 9.56-20.38 2.85-8.59 4.65-17.58 6.28-26.52 1.29-7.08 1.78-14.32 2.34-21.51.57-7.23.78-14.49 1.17-22.39z"/><path d="m114.21 99.12c1.74-.97 3.7-2.06 5.99-3.34 16.37 15.51 29.54 32.95 33.55 55.66 1.01 5.75 1.73 12.24-1.85 17.89-2.59 4.1-8.63 6.78-13.54 4.35-2.84-1.41-5.92-5.58-6.08-8.66-1.19-23.08-6.81-44.79-18.15-64.97-.07-.11.01-.32.08-.93z"/></g></svg>