<svg enable-background="new 0 0 400 400" viewBox="0 0 400 400" xmlns="http://www.w3.org/2000/svg"><path d="m5.17 384 .55-.58c.85.61 1.65 1.24 2.4 1.87l-.59.64c-.83-.73-1.62-1.38-2.36-1.93m1.22 9.53-.82-.34c.71-1.76 1.37-3.64 1.98-5.63.24.13.5.25.76.36-.6 1.67-1.24 3.54-1.92 5.61m-.5-13.5.57-.54c.56.44 1.31 1.06 2.26 1.87l-.64.64c-.68-.66-1.41-1.32-2.19-1.97m3.25.46h2.24v-1.36h.77v1.36h4.57v-1.36h.76v1.36h2.28v.69h-2.28v1.84h-2.64v1.26h4.18v2.64h-4.21c0 .45-.02.86-.05 1.21h4.32v.69h-4.38c-.04.34-.1.75-.19 1.22h5.15v.69h-4.82c.87 1.19 2.51 1.92 4.93 2.19-.17.31-.3.57-.37.76-2.77-.49-4.52-1.41-5.26-2.76-.56 1.26-2.3 2.23-5.24 2.9-.12-.24-.26-.48-.43-.72 2.73-.55 4.38-1.34 4.96-2.38h-4.38v-.69h4.65c.1-.38.17-.79.21-1.22h-4.32v-.69h4.4c.03-.34.05-.75.05-1.21h-4.2v-2.64h4.23v-1.26h-2.69v-1.84h-2.24zm1.46 4.46v1.29h3.45c.01-.4.02-.57.01-.53v-.32-.45h-3.46zm1.55-2.59h4.57v-1.19h-4.57zm6.11 2.59h-3.42v.77c-.02.19-.01.37-.02.53h3.44z" fill="#fcfafa"/><path d="m32.63 379.16h.82v1.98h3.54v7.89h1.46v.78h-14.37v-.78h1.46v-7.89h3.54v-1.98h.82v1.98h2.73zm-3.49 11.48.5.73c-1.61.82-3.28 1.63-5 2.41-.13-.27-.28-.55-.44-.82 1.75-.72 3.4-1.49 4.94-2.32m-2.78-5.55h2.73v-3.18h-2.73zm0 3.95h2.73v-3.2h-2.73zm3.54-3.95h2.73v-3.18h-2.73zm0 3.95h2.73v-3.2h-2.73zm7.89 4.68c-1.84-.92-3.51-1.7-5.02-2.32l.45-.73c1.89.8 3.57 1.55 5.04 2.23zm-1.62-11.81h-2.73v3.18h2.73zm-2.73 7.13h2.73v-3.2h-2.73z" fill="#fcfafa"/><g fill="#010102"><path d="m93.12 63.08c6.33 3.54 11.81 6.99 17.63 9.72 3.46 1.62 7.41 2.84 11.2 2.99 9.82.41 19.66.03 29.49.2 2.87.05 4.4-.82 5.68-3.48 5.16-10.76 10.59-21.4 15.94-32.08.8-1.59 1.71-3.13 2.84-5.19 7.39 4.69 14.63 9.04 21.59 13.8 3.36 2.3 2.74 4.6-1.13 5.94-.16.05-.33.1-.49.1-14.41-.16-19.93 12.87-31.09 20.27 2.69.3 3.87.55 5.04.55 35.16.02 70.33.07 105.49-.11 2.05-.01 4.47-1.48 6.04-2.99 2.37-2.27 4.13-5.17 6.72-8.55 7.59 5.59 15.31 10.94 22.61 16.81 3.29 2.65.79 5.29-2.01 5.66-6.6.87-6.61 4.9-6.6 10.14.17 46.16.1 92.33.1 138.49 0 5.73-8.21 14.11-13.93 13.49-1.6-.17-3.88-2.99-4.14-4.84-.61-4.38-.2-8.91-.2-13.7-57.59 0-114.67 0-171.99 0-.15.85-.44 1.79-.48 2.74-.27 7.51-4.96 13.57-12.21 15.74-3.18.95-5.23-.1-5.94-3.36-.28-1.29-.34-2.64-.34-3.96-.02-58.33-.01-116.66-.01-174.99.01-.79.09-1.61.19-3.39zm190.38 158.14c0-45.75 0-91.13 0-136.78-57.36 0-114.39 0-171.66 0v136.78z"/><path d="m124.37 250.66c10.37 3.2 21.94 1.5 31.51 7.86.16.66.33 1.32.49 1.99-4.57 2.13-9.14 4.26-14.31 6.68v5.28c0 20.32-.01 40.65.01 60.97.01 6.29 1.25 7.5 7.67 7.5 30.48.01 60.97.02 91.45 0 9.91-.01 15.54-4.45 17.67-14.13 2.78-12.63 5.35-25.3 8.15-37.92.54-2.43 1.74-4.71 2.63-7.06.62.04 1.24.08 1.85.12.52 2.24 1.47 4.47 1.5 6.72.15 12.16.19 24.32.02 36.48-.09 6.05 1.65 10.9 6.47 14.88 5.24 4.34 4.73 8.13-1.17 11.81-7.44 4.62-15.87 6.1-24.34 6.15-38.15.22-76.29.13-114.44.07-9.55-.02-15.57-5.17-15.66-14.4-.3-30.31-.17-60.63-.18-90.94-.01-.48.29-.94.68-2.06z"/><path d="m286.48 259.92c1.47 0 3.04-.35 4.39.05 24.55 7.36 47.42 17.8 64.36 37.88 4.04 4.79 6.88 10.93 8.93 16.91 1.24 3.6.63 8.3-.45 12.14-2.04 7.21-10.3 8.42-13.93 3.14-3.47-5.05-7.51-9.84-10.23-15.28-10.18-20.34-25.98-35.08-45.03-46.81-3.11-1.92-5.94-4.3-8.9-6.46.28-.52.57-1.05.86-1.57z"/><path d="m73.03 256.03c.67 2.17 1.86 4.33 1.92 6.52.57 21.01-.16 41.92-7.72 61.89-1.69 4.45-4.28 8.58-6.67 12.74-.8 1.4-2.18 2.52-3.43 3.6-5.58 4.82-13.64 5.71-17.88 2.04-4.13-3.57-4.48-10.5-.42-16.98 2.19-3.5 4.64-7.01 7.64-9.81 11.74-10.99 16.83-25.22 20.41-40.26 1.55-6.53 2.89-13.11 4.32-19.67.61-.02 1.22-.04 1.83-.07z"/><path d="m176.27 240.97c7.85.91 14.69 4.55 20.9 9.16 12.91 9.58 22.45 21.28 21.95 38.57-.19 6.57-2.6 10.22-7.15 11.13-4.24.84-8.84-1.92-11.1-7.4-1.5-3.63-2.34-7.56-3.2-11.41-2.79-12.49-8.98-23.06-17.68-32.32-1.83-1.94-3.29-4.23-4.92-6.36.39-.46.8-.91 1.2-1.37z"/><path d="m205.35 162.42c-26.27 20.37-54.61 34.67-84.58 45.9-.46-.42-.92-.84-1.38-1.26 1.28-1.62 2.27-3.65 3.88-4.81 16.33-11.74 32.89-23.19 49.12-35.06 6.28-4.59 11.9-10.07 19.11-16.25-20.43-12.87-40.07-25.24-59.71-37.6.08-.55.16-1.1.23-1.65 2.36 0 4.88-.55 7.06.08 22.47 6.5 43.57 16.19 64.53 28.28 11.07-13.91 22.19-27.87 33.65-42.27 6.84 5.77 13.55 11.18 19.92 16.97 1.48 1.35 2.64 4.08 2.37 5.94-.16 1.09-3.55 2.58-5.32 2.39-6.86-.73-11.54 2.49-16.05 7.07-6.52 6.62-13.42 12.87-20.58 19.68 10.12 7.5 20.2 14.26 29.41 22.05 5.16 4.37 9.43 10.08 13.05 15.85 2.34 3.73 2.76 8.94-1.15 12.45-4.14 3.71-9.05 2.41-12.89-.48-5.96-4.47-11.52-9.5-16.99-14.57-7.92-7.34-15.59-14.93-23.68-22.71z"/></g></svg>