<svg enable-background="new 0 0 400 400" viewBox="0 0 400 400" xmlns="http://www.w3.org/2000/svg"><path d="m77.27 356c-.19-9.88-5.92-14.61-13.99-17.29-3.85-1.28-7.76-2.39-11.69-3.41-7.18-1.87-7.2-1.82-6.18-9.6 9.67.43 19.32.82 28.96 1.31 13.07.67 14.85-1.67 14.74-14.47-.3-31.65-.11-63.29-.11-95.97-5.82 3.3-11.07 6.28-16.32 9.27-.28.16-.45.58-.73.66-7.49 2.19-10.98 7.13-11.14 14.97-.04 1.85-2.3 5.28-3.25 5.18-2.37-.25-5.55-1.52-6.68-3.41-4.83-8.07-9.04-16.51-13.76-25.36 6.9-2.84 13.01-5.3 19.09-7.85 10.06-4.22 20.13-8.4 30.09-12.85 1.25-.56 2.59-2.62 2.59-3.99.15-23.82.11-47.63.11-72.19-2.63 0-5.05 0-7.46 0-11 0-21.99 0-32.99 0-8.45 0-8.45 0-9.81-9h50.01c0-25.56 0-50.94 0-76.72 11.55-.74 22.48-.58 33.01 3.2 1.7.61 3.86 2.75 3.94 4.29.09 1.62-1.69 3.99-3.3 4.92-3.21 1.85-6.97 2.72-10.26 4.47-1.38.73-3 2.65-3.01 4.04-.19 17.99-.12 35.98-.1 53.98 0 .46.22.92.45 1.83 4.78 0 9.59.22 14.35-.14 1.45-.11 3.15-1.56 4.09-2.86 4.49-6.2 8.76-12.57 13.48-19.4 6.15 7.64 12.09 14.77 17.65 22.18.91 1.21.52 3.72.15 5.51-.48 2.31-1.62 3.84-4.7 3.8-14.96-.2-29.93-.09-45.2-.09v65c14.02-7.71 27.81-15.28 41.98-23.08 1.25 2.35 2.51 4.72 4.02 7.56-6.08 4.53-12 9.11-18.1 13.44-8.24 5.86-16.52 11.68-25 17.18-2.63 1.7-3.27 3.5-3.27 6.4.09 40.65-.01 81.3.09 121.95.04 15.72-7.84 23.46-22.12 25.57-1.61.24-3.18.76-4.79.94-1.45.16-2.95.03-4.84.03z" fill="#010103"/><path d="m151.7 197.43c-2.11-2.69-3.91-4.99-5.94-7.59 44.68-44.18 75.24-96.79 93.81-157.22 10.99 3.44 22.12 5.95 31.64 12.57 1.07.75 2.03 3.24 1.57 4.23-.71 1.5-2.54 2.87-4.19 3.45-3.09 1.1-6.4 1.6-9.9 2.41 28.97 39.56 64.66 70.42 106.99 94.42-3.44 3.85-6.59 6.99-9.27 10.49-2.56 3.35-4.63 7.08-7.17 11.03-40.34-27.71-70.64-64.31-96.06-106.97-22.13 53.73-56.18 97.38-101.48 133.18z" fill="#010103"/><path d="m160.15 356.62c-2.01-2.96-3.62-5.34-5.69-8.39 6.75-2.82 13.28-5.2 19.49-8.23 16.39-7.98 33.19-15.33 48.81-24.63 16.63-9.9 32.96-20.72 47.83-33.05 14.65-12.15 27.4-26.62 40.8-40.25 4.37-4.44 8.1-9.51 12.31-14.12.7-.76 2.83-1.27 3.54-.79 7.29 4.93 14.5 9.99 21.54 15.26 1.45 1.09 2.61 3.07 3.08 4.86.71 2.73-.03 5.04-3.7 4.72-3.58-.31-7.18-.84-10.76-.72-1.53.05-3.26 1.23-4.46 2.36-8.92 8.43-17.17 17.68-26.71 25.32-14.77 11.83-29.89 23.37-45.78 33.62-20.02 12.91-41.46 23.37-63.97 31.4-12.07 4.31-24.21 8.43-36.33 12.64z" fill="#010103"/><path d="m291.35 176.95c6.16 4.19 11.95 8.13 17.75 12.07.27.18.65.25.85.48 2.56 2.88 7.28 5.18 5.73 9.62-1.44 4.13-6.2 3.05-9.68 2.8-4.88-.34-7.7 1.61-11.13 5.26-8.81 9.38-18.13 18.47-28.3 26.32-13.13 10.15-26.81 19.78-41.11 28.18-14.73 8.67-30.46 15.66-45.81 23.26-3.77 1.87-7.77 3.3-12 5.07-1.49-2.39-3.01-4.83-5.06-8.13 51.06-24.92 94.61-58.85 128.76-104.93z" fill="#010103"/><path d="m169.87 226.15c-.7-.61-1.26-.98-1.68-1.48-4.46-5.41-4.54-6.02 1.45-9.54 17.72-10.41 34.1-22.61 49.17-36.52 13.8-12.73 26.37-26.61 37.04-42.13 2.21-3.21 4.53-6.33 7.1-9.89 9.04 4.87 17.96 9.7 24.61 17.63 3.16 3.78 1.12 8.37-3.66 7.55-10.23-1.74-16.24 3.83-21.77 10.66-10.37 12.81-23.49 22.61-36.62 32.04-16.82 12.08-34.96 22.3-54 30.71-.44.19-.83.49-1.64.97z" fill="#010103"/><g fill="#fbfcfa"><path d="m346.9 398 5.4-7.3h-5.2v-.6h5.9v.6l-5.4 7.2h5.5l-.1.6h-6.2v-.5z"/><path d="m354.7 390.1h2.8c2.3 0 3.9 1.6 3.9 4.1s-1.6 4.3-3.9 4.3h-2.8zm.6 7.8h2c2.2 0 3.3-1.6 3.3-3.6 0-1.8-1-3.6-3.3-3.6h-2z"/><path d="m363.9 390.1v8.4h-.6v-8.4h1.6z"/><path d="m372.5 396.3c-.4 1.3-1.4 2.3-3.2 2.3-2.4 0-3.7-1.9-3.7-4.3 0-2.3 1.2-4.3 3.7-4.3 1.8 0 2.9 1 3.2 2.4h-.6c-.4-1.1-1.1-1.8-2.5-1.8-2.1 0-3 1.9-3 3.7s.9 3.7 3 3.7c1.4 0 2.1-.7 2.5-1.7z"/><path d="m373.8 398.5v-1.5h.6v1.5z"/><path d="m376.2 398.5v-8.4h1c1.3 2 4.4 6.7 4.9 7.6-.1-1.2-.1-2.4-.1-3.8v-3.8h.7v8.4h-.9c-1.2-1.9-4.4-6.8-5-7.7.1 1.1 0 2.3 0 3.9v3.9h-.6z"/><path d="m390 394.4h-4.3v3.5h4.7l-.1.6h-5.2v-8.4h5.1v.6h-4.5v3.1h4.3z"/><path d="m394.2 390.7h-2.8v-.6h6.3v.6h-2.8v7.8h-.7z"/></g></svg>