<svg enable-background="new 0 0 400 400" viewBox="0 0 400 400" xmlns="http://www.w3.org/2000/svg"><path d="m44.04 288.12c-3.1-2.53-5.52-4.49-8.37-6.81 31.15-48.57 50.72-101.82 64.29-158.31-1.83 0-3.55 0-5.27 0-14.16 0-28.33 0-42.49 0-8.64 0-8.64 0-11.03-8.92h59.8c0-26.54 0-52.6 0-80.11 10.81 1.9 20.97 3.26 30.9 5.6 5.22 1.23 5.61 5.49 1.3 8.67-2.35 1.73-4.87 3.7-7.6 4.33-3.96.91-4.68 2.91-4.64 6.56.18 16.49.08 32.99.08 49.49v5.38c8.23 0 16.01.15 23.78-.14 1.32-.05 2.9-1.78 3.81-3.11 4.59-6.73 8.99-13.58 13.85-20.98 7.74 9.01 15.24 17.75 22.19 25.85-1.26 6.39-4.69 7.62-9.96 7.52-17.65-.35-35.3-.14-53.68-.14v17.99c0 5.67.27 11.35-.1 16.99-.24 3.64 1.02 5.76 4.08 7.53 13.08 7.59 25.23 16.39 36.17 26.96 7.05 6.81 12.87 14.15 16.25 23.4 2.43 6.66.48 15.45-4.34 18.62-5.31 3.5-12.12 1.91-15.09-3.86-3.81-7.37-6.7-15.29-11.07-22.29-5.86-9.39-12.72-18.16-19.24-27.14-1.72-2.37-3.76-4.52-6.48-7.76v183.29c-6.89 0-13.16 0-19.88 0 0-57.85 0-115.74 0-174.91-8.83 19.31-16.2 37.88-25.62 55.34-9.42 17.47-20.89 33.83-31.64 50.96z" fill="#010103"/><path d="m344.24 146.84c6.63 6.95 12.86 13.06 18.58 19.62 5.2 5.96 4.39 9.77-3.04 11.95-5.82 1.71-8.4 5.75-10.71 10.4-9.08 18.26-20.82 34.71-33.75 50.38-1.55 1.88-3.02 3.83-4.49 5.7-2.99-1.5-5.61-2.81-8.65-4.32 13.25-21.34 24.16-43.76 31.83-68.17-18.59 0-36.94 0-56.02 0v5.62c0 50.16-.01 100.32.01 150.48.01 13.42-8.19 21.86-20.82 24.43-4.32.88-8.8.98-13.16 1.43-1.66-3.77-2.32-8.04-4.8-10.23-3.77-3.33-8.66-5.58-13.37-7.58-3.39-1.44-7.24-1.89-10.93-2.52-8.22-1.41-8.64-1.91-7.4-11.09 5.83.38 11.7.86 17.57 1.13 8.43.38 16.88 1.01 25.29.73 3.6-.12 6.64-2.51 6.64-7.16-.06-37.82-.03-75.65-.03-114.87-5.63 8.09-10.37 15.34-15.57 22.25-7.96 10.6-15.91 21.24-24.47 31.35-8.12 9.59-16.69 18.84-25.65 27.64-8.7 8.54-18.1 16.37-27.36 24.32-.8.69-3.17.32-4.33-.36-1.82-1.07-3.25-2.82-5.48-4.88 41.1-37.28 74.44-79.79 96.89-131.08-12.97 0-25.25 0-37.52 0-12.5 0-25 0-37.49 0-8.51 0-8.51 0-11.43-9h5.93c52.33 0 104.65-.05 156.98.1 3.95.01 6.36-1.11 8.36-4.46 2.25-3.76 5.06-7.17 8.39-11.81z" fill="#010103"/><path d="m214.84 96.06c1.48-2.33 3.02-4.75 5.07-7.97 15.25 8.77 30.19 17.35 45.35 26.07 12.29-13.29 24.63-27.42 34.68-44.16-19.19 0-37.67 0-56.14 0-14 0-28 0-42 0-8.02 0-8.48-.39-10.21-9h16.91c27.83 0 55.67-.22 83.5.17 6.25.09 10.69-1.33 14.01-6.61 1.82-2.89 4.11-5.48 6.57-8.7 1.27.71 2.85 1.21 3.91 2.24 5.9 5.74 11.82 11.48 17.45 17.48 3.52 3.75 3.01 7.41-1.92 8.69-11.68 3.05-18.36 12.2-26.57 19.66-10.55 9.6-21.48 18.78-32.31 28.19 2.54 3.04 5.1 6.23 7.8 9.3 3.79 4.3 4.9 9.3 5.19 14.94.31 5.94-3.92 9.71-7.2 10.55-5.8 1.48-10.3-.43-13.06-5.38-7.96-14.3-17.04-27.78-29.52-38.55-6.66-5.77-13.85-10.94-21.51-16.92z" fill="#010103"/><g fill="#fbfcfa"><path d="m346.9 398 5.4-7.3h-5.2v-.6h5.9v.6l-5.4 7.2h5.5l-.1.6h-6.2v-.5z"/><path d="m354.7 390.1h2.8c2.3 0 3.9 1.6 3.9 4.1s-1.6 4.3-3.9 4.3h-2.8zm.6 7.8h2c2.2 0 3.3-1.6 3.3-3.6 0-1.8-1-3.6-3.3-3.6h-2z"/><path d="m363.9 390.1v8.4h-.6v-8.4h1.6z"/><path d="m372.5 396.3c-.4 1.3-1.4 2.3-3.2 2.3-2.4 0-3.7-1.9-3.7-4.3 0-2.3 1.2-4.3 3.7-4.3 1.8 0 2.9 1 3.2 2.4h-.6c-.4-1.1-1.1-1.8-2.5-1.8-2.1 0-3 1.9-3 3.7s.9 3.7 3 3.7c1.4 0 2.1-.7 2.5-1.7z"/><path d="m373.8 398.5v-1.5h.6v1.5z"/><path d="m376.2 398.5v-8.4h1c1.3 2 4.4 6.7 4.9 7.6-.1-1.2-.1-2.4-.1-3.8v-3.8h.7v8.4h-.9c-1.2-1.9-4.4-6.8-5-7.7.1 1.1 0 2.3 0 3.9v3.9h-.6z"/><path d="m390 394.4h-4.3v3.5h4.7l-.1.6h-5.2v-8.4h5.1v.6h-4.5v3.1h4.3z"/><path d="m394.2 390.7h-2.8v-.6h6.3v.6h-2.8v7.8h-.7z"/></g></svg>