<svg enable-background="new 0 0 400 400" viewBox="0 0 400 400" xmlns="http://www.w3.org/2000/svg"><path d="m184.58 324.76c4.88.86 9.78 1.62 14.64 2.6 6.83 1.37 13.59 3.09 20.44 4.3 9.77 1.72 17.96-1.76 25.03-8.37 9.59-8.96 14.08-20.61 15.99-33.08 2.06-13.44 3.29-27.05 4.13-40.63.65-10.41.13-20.89.13-32.64-2.67 3.29-4.54 5.86-6.67 8.18-6.76 7.35-13.5 14.72-20.52 21.82-2.48 2.51-3.53 4.42-2.09 8.07 2.12 5.38 3.55 11.08 4.78 16.75.73 3.36.86 6.94.66 10.38-.33 5.57-3.53 8.87-8.07 9.01-4.98.16-9.18-3.2-10.26-8.28-1.32-6.27-2.6-12.54-4.03-19.47-9 6.46-17.27 12.55-25.7 18.42-20.78 14.48-42.27 27.75-65.65 37.69-2.88 1.23-6.99 4.22-8.87.47-1.84-3.67 3.1-4.71 5.67-6.08 31.84-16.96 59.86-39.05 86.03-63.68 3.01-2.83 4.28-5.32 2.77-9.46-4.29-11.81-8.23-23.75-12.35-35.76-13.58 8.81-25.97 17.21-38.72 25.01-10.2 6.23-20.86 11.73-31.32 17.55-.73.4-1.55 1.12-2.24 1.02-1.83-.27-3.61-.9-5.41-1.39.85-1.58 1.3-3.79 2.63-4.65 11.27-7.38 22.98-14.1 34-21.83 11.82-8.3 23.03-17.47 35.4-26.95-5.29-8.83-10.25-17-15.09-25.25-1.07-1.82-1.73-3.89-1.75-6.45 10.24 5.75 17.43 14.61 26.45 23.58 5.89-6.24 11.87-12.4 17.66-18.74 6.28-6.89 12.33-13.99 18.59-20.89 2.04-2.25 2.73-4.34.93-7.05-5.04-7.57-10.01-15.2-15.13-22.98-9.41 6.96-17.65 13.66-26.48 19.45-15.71 10.32-31.78 20.09-47.71 30.08-1.27.8-2.55 1.94-3.92 2.12-2.12.28-4.33-.14-6.49-.27.97-1.86 1.47-4.34 2.98-5.49 18.28-13.89 37.03-27.17 54.99-41.45 15.41-12.24 29.17-26.33 40.98-42.18 1.17-1.57 2.25-3.2 4.04-5.75-31.21 0-61.41 0-91.84 0 0-3.11 0-5.53 0-8.5h6.01c51.33 0 102.67-.03 154 .07 3.45.01 5.92-.92 8.27-3.45 5.66-6.1 11.59-11.94 17.9-18.39 10.07 7.64 19.89 14.96 29.51 22.52 1.2.95 2.4 3.6 1.9 4.61-.71 1.42-2.93 2.28-4.67 2.93-1.17.44-2.64.11-3.97.11-20.67 0-41.33 0-62 0-1.8 0-3.61 0-6.74 0 3.5 29.84 6.93 59.04 10.35 88.25.44.12.89.23 1.33.35 12.73-16.94 25.47-33.89 38.92-51.79 6.46 6.37 12.85 12.49 19.01 18.84 2.06 2.12.9 3.94-1.61 4.96-.3.12-.65.22-.97.2-11.99-.7-18.93 8.23-27.28 14.39-7.77 5.73-15.12 12.05-23.04 17.55-3.84 2.67-4.5 5.59-3.78 9.72 3.69 21.28 10.74 41.42 20.17 60.8 12.28 25.25 27.71 48.48 44.65 70.77.69.91 1.35 1.86 1.94 2.67-8.1 4.19-16.04 8.31-24.41 12.65-48.92-75.11-64.03-159.86-63.05-249.31-5.24 0-10.19-.07-15.14.06-.86.02-1.75.82-2.54 1.39-.67.48-1.2 1.15-1.79 1.74-11.56 11.52-23.11 23.05-34.34 34.25 8.23 10.94 16.59 21.31 24.13 32.23 13.8 19.97 23.46 41.93 25.68 66.21 1.52 16.67 1.01 33.56.81 50.35-.21 17.15-2.47 34.14-7.46 50.6-4.14 13.64-9.85 26.53-20.67 36.44-8.5 7.78-18.89 11.64-29.85 14.19-3.72.87-6.6-.78-6.63-4.71-.08-9.78-6.5-13.73-14.3-16.86-4.93-1.98-9.76-4.24-14.46-6.71-2.04-1.07-3.63-2.98-5.43-4.5.29-.78.61-1.57.94-2.36zm44.61-92.68c10.59-13.75 20.74-26.88 30.81-40.07.55-.72.93-1.92.76-2.77-1.97-9.64-4.06-19.25-6.36-30.04-14.38 13.26-27.47 25.29-40.45 37.43-.66.61-.84 2.49-.42 3.39 4.93 10.33 10.02 20.58 15.66 32.06z" fill="#010103"/><path d="m104.44 125.07c0 13.84-.1 27.13.18 40.42.02 1.15 2.45 2.75 4.05 3.29 14.37 4.89 26.74 12.53 35.9 24.92 4.01 5.42 6.71 11.38 5.6 18.08-.47 2.84-2.67 6.13-5.07 7.73-2.98 1.98-6.61.53-8.85-2.36-2.11-2.72-3.99-5.7-5.51-8.79-5.81-11.86-11.97-23.44-22.77-31.7-.77-.59-1.63-1.06-3.56-2.31v6.47 176.47c0 6.18-7.31 13.94-13.5 13.91-1.39-.01-3.52-1.38-3.99-2.63-.85-2.24-.95-4.86-.95-7.32-.05-54.82-.03-109.65-.03-164.47 0-1.83 0-3.65 0-5.48-.28-.14-.56-.27-.83-.41-.79 1.47-1.61 2.92-2.35 4.42-10.56 21.22-22.45 41.58-38.2 59.45-3.52 3.99-7.26 7.81-11.12 11.47-1.13 1.08-3.04 1.34-5.27 1.23 27.52-44.14 50.52-89.64 57.94-142.19-18.44 0-36.5 0-54.9 0 0-2.94 0-5.34 0-8.35h54.72c0-28 0-55.39 0-83.44 9.58 2.09 18.51 3.9 27.35 6.09 1.65.41 3.62 2.07 4.12 3.59.3.93-1.9 2.71-3.04 4.06-.31.36-.8.68-1.26.79-8.86 2.11-9.02 8.53-8.8 16 .46 15.65.13 31.32.15 46.99 0 1.79.15 3.57.24 5.82 5.55 0 10.68.17 15.79-.11 1.42-.08 2.99-1.28 4.11-2.36 5.01-4.87 9.87-9.89 15.19-15.26 8.74 6.17 17.42 12 25.74 18.29 3.91 2.96 3.01 6.07-1.73 7.37-1.56.43-3.3.31-4.95.31-17.85.01-35.67.01-54.4.01z" fill="#010103"/><g fill="#fcfafa"><path d="m6.44 374.46.42-.45c.65.47 1.27.95 1.85 1.44l-.45.49c-.65-.56-1.25-1.06-1.82-1.48m.93 7.33-.63-.26c.55-1.36 1.05-2.8 1.52-4.33.19.1.38.19.59.27-.46 1.29-.95 2.73-1.48 4.32m-.38-10.38.44-.42c.43.34 1.01.82 1.74 1.44l-.49.49c-.53-.51-1.09-1.01-1.69-1.51m2.5.35h1.72v-1.04h.59v1.04h3.52v-1.04h.59v1.04h1.75v.53h-1.75v1.42h-2.03v.97h3.22v2.03h-3.24c0 .35-.01.66-.03.93h3.32v.53h-3.37c-.03.27-.08.58-.15.94h3.96v.53h-3.71c.67.92 1.93 1.48 3.79 1.68-.13.24-.23.44-.29.59-2.13-.38-3.48-1.08-4.04-2.12-.43.97-1.77 1.72-4.03 2.23-.09-.19-.2-.37-.33-.55 2.1-.42 3.37-1.03 3.81-1.83h-3.36v-.53h3.58c.08-.29.13-.61.16-.94h-3.33v-.53h3.39c.02-.27.04-.58.04-.93h-3.23v-2.03h3.25v-.97h-2.07v-1.42h-1.73zm1.12 3.44v1h2.65c.01-.3.02-.44.01-.4v-.25-.35zm1.19-2h3.52v-.91h-3.52zm4.71 2h-2.63v.59c0 .16-.01.28-.01.4h2.64z"/><path d="m13.56 383.74h.63v1.52h2.72v6.07h1.13v.6h-11.06v-.6h1.13v-6.07h2.73v-1.52h.63v1.52h2.1v-1.52zm-2.69 8.83.38.56c-1.24.63-2.53 1.25-3.85 1.85-.1-.21-.21-.42-.34-.63 1.36-.55 2.63-1.15 3.81-1.78m-2.13-4.27h2.1v-2.45h-2.1zm0 3.04h2.1v-2.46h-2.1zm2.72-3.04h2.1v-2.45h-2.1zm0 3.04h2.1v-2.46h-2.1zm6.07 3.6c-1.41-.71-2.7-1.3-3.86-1.78l.35-.56c1.45.62 2.75 1.19 3.88 1.72zm-1.25-9.09h-2.1v2.45h2.1zm-2.09 5.49h2.1v-2.46h-2.1z"/></g></svg>