<svg enable-background="new 0 0 400 400" viewBox="0 0 400 400" xmlns="http://www.w3.org/2000/svg"><path d="m318.85 338.17c-42.19 0-83.63 0-125.79 0v7.91c0 6.59-6.48 14.3-13.12 14.83-1.59.13-3.72-1.81-4.94-3.33-.77-.95-.4-2.89-.4-4.38-.01-45.99-.01-91.97 0-137.96 0-1.31.16-2.62.3-4.89 5.84 2.51 11.13 5.09 16.64 7.06 3.66 1.31 7.63 2.46 11.46 2.48 34.82.19 69.65-.01 104.47.23 5.71.04 10.43-.81 13.82-5.7 1.83-2.64 3.94-2.88 6.77-1.24 5.03 2.9 10.35 5.31 15.34 8.28 1.49.88 2.3 2.91 3.42 4.42-1.46 1.01-2.88 2.83-4.38 2.89-5.22.24-5.36 3.26-5.34 7.36.13 35.66.07 71.31.07 106.97 0 5.65-8.87 14.56-14.34 13.7-1.56-.24-3.53-3.25-3.8-5.19-.58-4.24-.18-8.6-.18-13.44zm-54.46-55.72v46.68h54.02c0-15.85 0-31.22 0-46.68-18.14 0-35.87 0-54.02 0zm-71.09 46.8h52.21c0-15.74 0-31.14 0-46.74-17.54 0-34.76 0-52.21 0zm125.36-100.4c-18.44 0-36.32 0-54.14 0v44.67h54.14c0-15.04 0-29.67 0-44.67zm-73.09-.02c-17.54 0-34.88 0-52.19 0v44.8h52.19c0-15.04 0-29.78 0-44.8z" fill="#010103"/><path d="m79.83 192.53c-14.65 28.98-28.82 58.06-53.01 80.78 21.62-44.72 42.54-89.57 52.82-139.06-17.49 0-34.69 0-52.26 0 0-3.02 0-5.55 0-8.67h52.38c0-30.8 0-61.04 0-92.12 9.91 2.2 19.1 4.24 28.28 6.28.11.75.21 1.5.32 2.25-2.49 1.96-5.09 3.8-7.41 5.94-1.18 1.09-2.64 2.71-2.65 4.1-.15 23.83-.09 47.66-.06 71.48 0 .47.23.93.41 1.62 6.16.89 11.9 1.49 16.55-4.44 3.98-5.07 8.84-9.46 13.52-14.36 8.55 6.44 16.61 12.28 24.34 18.53 1.63 1.32 2.03 4.15 2.99 6.29-2.18.95-4.35 2.68-6.55 2.72-15.17.24-30.33.13-45.5.13-1.78 0-3.56 0-5.82 0 0 14.19-.1 27.82.17 41.43.02 1.19 2.26 2.9 3.79 3.41 11.41 3.81 22.58 8.01 31.84 16.03 5.54 4.79 9.78 10.35 10.83 17.94.79 5.75-1.63 11.09-6.23 12.88-5.05 1.97-9.67.23-12.79-5.61-3.52-6.58-6.15-13.64-9.76-20.16-4.72-8.53-10.93-13.87-17.86-16.09v5.91 162.47c0 5.15-9.19 14.29-14.15 13.52-1.54-.24-3.17-2.58-3.94-4.32-.68-1.55-.25-3.6-.25-5.44-.01-52.66-.01-105.31-.01-157.97.01-1.81.01-3.64.01-5.47z" fill="#010103"/><path d="m342.69 60.58c7.97 6.22 14.73 11.33 21.25 16.71 1.35 1.12 2.99 3.98 2.48 4.81-.92 1.5-3.26 2.36-5.18 2.95-1.85.57-3.91.45-6.19.67 0 14.66.65 29.15-.19 43.54-.77 13.2-2.42 26.46-4.99 39.43-2.84 14.35-12.78 22.88-26.56 26.98-5.78 1.72-8.44-.17-9.27-6.17-1.08-7.81-1.43-8.2-9.31-9.67-3.59-.67-7.26-1.01-10.79-1.89-2.55-.64-4.93-1.95-7.38-2.96.09-.63.17-1.25.26-1.88 2.12-.39 4.24-1.08 6.37-1.13 7.33-.14 14.66 0 21.99-.07 8.68-.08 14.49-4.25 16.4-12.5 6.03-26.02 6.18-52.4 4.55-79.15-12.28 0-24.22 0-36.77 0-3.11 60.19-31.01 102.43-88.42 122.73-.66-.57-1.32-1.13-1.98-1.7 1.67-1.37 3.19-3 5.03-4.06 35.32-20.23 53.85-51.72 60.85-90.86 1.51-8.46 2.24-17.06 3.42-26.24-10.07 0-19.47 0-29.14 0 0-2.98 0-5.39 0-8.56h5.86c23.49 0 46.98-.16 70.47.12 5.42.07 9.75-.94 12.97-5.42 1.27-1.72 2.6-3.44 4.27-5.68z" fill="#010103"/><path d="m251.16 59.35c-2 .24-4 .47-6 .72-5.52.68-11.18.8-16.54 2.15-13.19 3.31-26.27 7.09-39.31 10.95-1.56.46-3.72 2.59-3.74 3.96-.22 22.65-.14 45.31-.1 67.96 0 .48.23.96.52 2.11 14.94-2.41 29.89-4.82 45.07-7.27-1.93-14.27-9.17-25.35-17.37-35.98.25-.45.5-.91.75-1.36 1.55.08 3.44-.38 4.6.33 11.16 6.81 21.6 14.54 28.48 25.97 4.19 6.97 6.78 14.61 4.35 22.77-.74 2.49-3.09 5.29-5.42 6.33-3.35 1.5-7.1.21-9.17-3.12-1.99-3.2-3.38-6.78-5.3-10.73-9.87 3.3-20.04 6.67-30.19 10.1-12.57 4.26-25.08 8.68-37.69 12.79-3.42 1.11-5.69 2.42-4.99 6.47.17.95-.02 2-.22 2.98-1.23 6.01-4.61 7.4-8.9 2.97-6.56-6.77-12.48-14.15-19.29-21.98 12.55-2.04 24.08-3.91 36.1-5.86 0-30.71 0-61.44 0-93.15 4.52 2.45 8.35 4.31 11.96 6.54 2.84 1.75 5.18 1.82 8.19.1 12.28-6.98 24.79-13.56 37.06-20.56 3.06-1.74 5.34-1.65 8.17.22 4.57 3.02 9.42 5.64 14.05 8.58 1.89 1.2 3.52 2.81 5.26 4.23-.1.59-.21 1.18-.33 1.78z" fill="#010103"/><g fill="#fbfcfa"><path d="m346.9 398 5.4-7.3h-5.2v-.6h5.9v.6l-5.4 7.2h5.5l-.1.6h-6.2v-.5z"/><path d="m354.7 390.1h2.8c2.3 0 3.9 1.6 3.9 4.1s-1.6 4.3-3.9 4.3h-2.8zm.6 7.8h2c2.2 0 3.3-1.6 3.3-3.6 0-1.8-1-3.6-3.3-3.6h-2z"/><path d="m363.9 390.1v8.4h-.6v-8.4h1.6z"/><path d="m372.5 396.3c-.4 1.3-1.4 2.3-3.2 2.3-2.4 0-3.7-1.9-3.7-4.3 0-2.3 1.2-4.3 3.7-4.3 1.8 0 2.9 1 3.2 2.4h-.6c-.4-1.1-1.1-1.8-2.5-1.8-2.1 0-3 1.9-3 3.7s.9 3.7 3 3.7c1.4 0 2.1-.7 2.5-1.7z"/><path d="m373.8 398.5v-1.5h.6v1.5z"/><path d="m376.2 398.5v-8.4h1c1.3 2 4.4 6.7 4.9 7.6-.1-1.2-.1-2.4-.1-3.8v-3.8h.7v8.4h-.9c-1.2-1.9-4.4-6.8-5-7.7.1 1.1 0 2.3 0 3.9v3.9h-.6z"/><path d="m390 394.4h-4.3v3.5h4.7l-.1.6h-5.2v-8.4h5.1v.6h-4.5v3.1h4.3z"/><path d="m394.2 390.7h-2.8v-.6h6.3v.6h-2.8v7.8h-.7z"/></g></svg>