<svg enable-background="new 0 0 400 400" viewBox="0 0 400 400" xmlns="http://www.w3.org/2000/svg"><path d="m385.2 377.6.6-.7c.6.4 1.3.9 1.9 1.5l-.6.7c-.8-.5-1.4-1-1.9-1.5zm.3 7.1c.6-1.4 1.1-2.9 1.5-4.5.3.1.6.3.9.4-.5 1.4-1 2.9-1.5 4.4zm.2-10.1.6-.6c.7.5 1.3 1.1 1.9 1.6l-.7.7c-.6-.6-1.2-1.2-1.8-1.7zm8.4-.8h.8v.9h1.8v.7h-1.8v1.8h-.8v-.3h-1.2v.9h3.3v2.6h-.8v-.4h-2.5c0 .3 0 .6-.1.8h3.4v.7h-3.5c0 .3-.1.6-.1.8h4v.7h-3.5c.7.9 1.9 1.3 3.6 1.5-.2.2-.4.5-.6.9-1.9-.3-3.2-1.1-3.8-2.3-.5 1.1-1.8 2-3.9 2.4-.2-.3-.4-.5-.6-.8 1.9-.4 3.1-.9 3.6-1.7h-3.2v-.7h3.5c.1-.2.1-.5.2-.8h-3.3v-.7h3.4c0-.2 0-.5 0-.8h-2.4v.3h-.8v-2.6h3.3v-.9h-1.2v.3h-.8v-1.8h-1.8v-.7h1.8v-.9h.8v.9h3.2zm-4.4 5.5h2.4c1-.3 0-.6 0-.9h-2.4zm1.2-3.1h3.2v-.8h-3.2zm4.4 2.2h-2.4v.9h2.5v-.9z" fill="#fafafb"/><path d="m389.2 385.8h.9v1.5h1.9v-1.5h.9v1.5h2.7v6h1.1v.9h-11.3v-.9h1.1v-6h2.7zm.2 8.7.5.8c-1.2.6-2.5 1.3-4 1.9-.2-.3-.3-.6-.6-.8 1.6-.6 3-1.3 4.1-1.9zm-2-4.3h1.9v-2.1h-1.9zm0 3.1h1.9v-2.2h-1.9zm2.7-3.1h1.9v-2.1h-1.9zm0 3.1h1.9v-2.2h-1.9zm2.4 1.3c1.4.6 2.7 1.2 4.1 1.8l-.5.9c-1.5-.7-2.8-1.4-4.1-1.9zm2.2-6.5h-1.9v2.1h1.9zm-1.9 5.2h1.9v-2.2h-1.9z" fill="#fafafb"/><g fill="#010100"><path d="m83 200.58c-6.94 14.57-12.62 28.65-20.11 41.69-9.42 16.41-20.18 32.06-30.76 47.77-1.49 2.21-6.43 4.75-7.76 3.92-3.41-2.14-.19-5.32 1.14-7.74 19.41-35.35 36.13-71.86 46.91-110.83 3.84-13.87 6.59-28.03 10.05-42.99-17.75 0-34.42 0-51.36 0 0-3.12 0-5.52 0-8.28h51.59c0-28.74 0-57.13 0-86.14 8.54 1.49 16.51 2.59 24.3 4.42 1.95.46 3.35 3.24 5 4.95-1.65 1.22-3.19 2.65-4.98 3.6-1.41.75-3.14.91-4.81 1.35v71.34c7.96.64 15.57 1.66 20.96-6.29 2.4-3.53 5.86-6.35 9.03-9.69 7.36 5.36 14.45 10.27 21.2 15.61 1.67 1.32 2.26 4.02 3.35 6.09-2.14.94-4.27 2.65-6.42 2.69-14.16.24-28.33.13-42.5.13-1.79 0-3.58 0-5.59 0v32.06c9.01 3.97 18.15 7.25 26.52 11.91 6.88 3.83 13.23 8.86 19.09 14.16 4.83 4.37 6.89 10.54 6.16 17.26-.41 3.79-1.67 7.07-5.76 8.56-4.28 1.56-8.01.77-10.73-2.72-2-2.56-3.63-5.53-4.91-8.53-6.19-14.62-16.93-25.11-30.62-34.59v6.64 182c0 5.49-8.74 14.26-14.29 13.99-1.3-.06-3.22-1.4-3.65-2.59-.81-2.28-1.02-4.86-1.02-7.32-.04-52.01-.03-104.01-.03-156.01 0-1.83 0-3.65 0-6.42z"/><path d="m298.57 125.66c0-9.15 0-17.57 0-26.54-51.22 0-102.27 0-153.65 0 0-2.94 0-5.34 0-8.41h153.57c0-9.06 0-17.47 0-26.52-39.97 0-80 0-120.29 0 0-3.04 0-5.45 0-8.59h5.9c34.33 0 68.65-.16 102.98.15 6.2.06 11.01-1.19 14.64-6.26 1.06-1.48 2.23-2.87 3.55-4.56 7.51 5.78 14.31 10.82 20.87 16.15 3.25 2.64 2.78 5.99-1.28 6.46-8.3.96-8.14 6.16-7.73 12.16.23 3.31.04 6.65.04 10.17 4.92 1.3 9.03 1.37 12.69-2.9 4.65-5.41 9.81-10.37 14.95-15.74 9.29 6.62 18.02 12.67 26.51 19.04 1.61 1.2 2.26 3.67 3.36 5.55-2.17 1.06-4.31 2.92-6.52 3.02-8.15.37-16.32.15-24.49.15-8.63 0-17.26 0-26.5 0v17.26c0 9.16.05 18.33-.02 27.49-.04 4.89-11.1 12.19-15.34 9.86-1.49-.82-2.64-3.38-2.8-5.25-.4-4.59-.13-9.23-.13-14.29-40.51 0-80.42 0-120.64 0 0-2.85 0-5.26 0-8.41 40.03.01 80.06.01 120.33.01z"/><path d="m307.07 265c6.31 0 11.96.18 17.58-.12 1.57-.08 3.33-1.29 4.54-2.46 4.77-4.65 9.35-9.49 14.53-14.8 8.98 6.42 17.86 12.46 26.35 19 3.28 2.53 2.33 5.29-1.71 6.39-1.57.43-3.3.38-4.95.39-16.83.03-33.65.02-50.48.02-1.79 0-3.58 0-5.86 0v5.98c0 20.83.06 41.65-.02 62.48-.06 15.95-9.13 21.09-23.38 24.17-2.78.6-4.88-.52-5.07-3.88-.31-5.35-3.81-7.81-8.53-9.05-5.45-1.44-10.93-2.76-16.33-4.35-1.71-.5-3.23-1.68-4.83-2.54.1-.5.2-1 .3-1.5 1.64-.26 3.27-.73 4.91-.74 8.16-.08 16.33.05 24.49-.07 6.37-.09 9.85-3.15 9.91-9.4.17-19.66.04-39.32.01-58.98 0-.47-.25-.93-.56-2.03-48.09 0-96.29 0-144.76 0 0-3.06 0-5.48 0-8.41h145.33c0-10.58 0-20.67 0-31.69 7.7 2.06 14.72 3.72 21.58 5.89 2.8.89 5.25 2.89 7.86 4.39-2.43 1.78-4.66 4.02-7.35 5.21-2.68 1.19-3.85 2.51-3.62 5.47.26 3.3.06 6.62.06 10.63z"/><path d="m332.92 154.21c7.59 4.69 14.17 8.59 20.54 12.79 1.49.98 2.31 2.97 3.44 4.5-1.45 1.03-2.85 2.85-4.37 2.97-6.02.44-6.29 4.1-6.2 8.88.24 13.15.09 26.31.08 39.46-.01 5.24-9.44 14.2-14.39 12.97-1.72-.43-3.56-3.61-3.89-5.76-.62-4.04-.18-8.24-.18-12.69-16.25 0-32.12 0-48.53 0 0 1.81.01 3.44 0 5.06-.03 7.98-4.38 14.02-12.28 16.05-1.54.4-3.97-1.16-5.41-2.47-.85-.77-.75-2.8-.76-4.27-.04-25.98-.03-51.95-.02-77.93 0-.79.11-1.59.24-3.25 6.11 3.65 11.66 7.18 17.42 10.3 2.21 1.2 4.92 2.02 7.42 2.08 10.49.23 20.99-.22 31.47.23 5.45.23 9.75-.88 12.95-5.37.76-1.09 1.52-2.2 2.47-3.55zm-5.13 17.64c-16.28 0-32.14 0-48.05 0v36.33h48.05c0-12.23 0-24.03 0-36.33z"/><path d="m225.7 150.14c8.14 5.51 15.92 10.59 23.44 16.02 1.49 1.08 2 3.51 2.96 5.32-1.98.97-3.93 2.74-5.93 2.79-10.65.28-21.32.14-31.97.14-1.8 0-3.61 0-5.77 0v42.41c14.98-1.42 29.41-6.51 44.39-6.87.23.81.47 1.61.7 2.42-2.51 1.27-4.9 2.94-7.55 3.76-24.56 7.61-49.13 15.17-73.78 22.47-3.59 1.06-5.85 2.7-7.09 6.08-.4 1.08-.9 2.23-1.67 3.05-1.31 1.4-2.83 3.49-4.33 3.54-1.21.05-2.95-2.27-3.71-3.89-3.23-6.91-6.18-13.94-9.45-21.43 14.6-1.99 28.83-3.93 43.33-5.9 0-15.24 0-30.11 0-45.62-13.5 0-26.72 0-40.19 0 0-3.04 0-5.46 0-8.43h12.01c14.82 0 29.65.14 44.47-.13 2.48-.05 5.4-1.31 7.3-2.96 4.4-3.8 8.29-8.17 12.84-12.77z"/><path d="m184.44 285.2c2.66-.42 4.13-1.1 5.32-.77 15.62 4.37 29.45 11.44 37.68 26.32 3.38 6.11 4.71 12.66 2.91 19.65-1.14 4.44-4.36 7.39-8.37 7.25-2.9-.1-6.26-2.62-8.37-4.98-1.97-2.2-2.94-5.54-3.7-8.54-3.32-13.12-10.07-24.05-20.2-32.99-1.66-1.46-2.97-3.31-5.27-5.94z"/></g></svg>