<svg enable-background="new 0 0 400 400" viewBox="0 0 400 400" xmlns="http://www.w3.org/2000/svg"><path d="m385.2 377.6.6-.7c.6.4 1.3.9 1.9 1.5l-.6.7c-.8-.5-1.4-1-1.9-1.5zm.3 7.1c.6-1.4 1.1-2.9 1.5-4.5.3.1.6.3.9.4-.5 1.4-1 2.9-1.5 4.4zm.2-10.1.6-.6c.7.5 1.3 1.1 1.9 1.6l-.7.7c-.6-.6-1.2-1.2-1.8-1.7zm8.4-.8h.8v.9h1.8v.7h-1.8v1.8h-.8v-.3h-1.2v.9h3.3v2.6h-.8v-.4h-2.5c0 .3 0 .6-.1.8h3.4v.7h-3.5c0 .3-.1.6-.1.8h4v.7h-3.5c.7.9 1.9 1.3 3.6 1.5-.2.2-.4.5-.6.9-1.9-.3-3.2-1.1-3.8-2.3-.5 1.1-1.8 2-3.9 2.4-.2-.3-.4-.5-.6-.8 1.9-.4 3.1-.9 3.6-1.7h-3.2v-.7h3.5c.1-.2.1-.5.2-.8h-3.3v-.7h3.4c0-.2 0-.5 0-.8h-2.4v.3h-.8v-2.6h3.3v-.9h-1.2v.3h-.8v-1.8h-1.8v-.7h1.8v-.9h.8v.9h3.2zm-4.4 5.5h2.4c1-.3 0-.6 0-.9h-2.4zm1.2-3.1h3.2v-.8h-3.2zm4.4 2.2h-2.4v.9h2.5v-.9z" fill="#fafafb"/><path d="m389.2 385.8h.9v1.5h1.9v-1.5h.9v1.5h2.7v6h1.1v.9h-11.3v-.9h1.1v-6h2.7zm.2 8.7.5.8c-1.2.6-2.5 1.3-4 1.9-.2-.3-.3-.6-.6-.8 1.6-.6 3-1.3 4.1-1.9zm-2-4.3h1.9v-2.1h-1.9zm0 3.1h1.9v-2.2h-1.9zm2.7-3.1h1.9v-2.1h-1.9zm0 3.1h1.9v-2.2h-1.9zm2.4 1.3c1.4.6 2.7 1.2 4.1 1.8l-.5.9c-1.5-.7-2.8-1.4-4.1-1.9zm2.2-6.5h-1.9v2.1h1.9zm-1.9 5.2h1.9v-2.2h-1.9z" fill="#fafafb"/><g fill="#010100"><path d="m244.18 160.59h11.41c11.83 0 23.67.17 35.49-.14 2.49-.07 5.4-1.39 7.3-3.06 3.97-3.5 7.39-7.63 11.54-12.03 9.45 7.92 18.52 15.16 27.11 22.91 3.86 3.48 2.89 6.67-2.16 7.86-4.15.98-8.55 1.16-12.84 1.19-3.22.03-5.51.86-7.8 3.33-35.5 38.22-74.46 72.38-118.56 100.44-7.71 4.91-15.6 9.53-24.32 14.85 4.17 3.43 7.85 6.91 11.96 9.78 15.76 11 33.66 16.81 52.46 18.99 17.14 1.99 34.47 2.76 51.73 3.1 25.15.5 50.32.13 75.49.13h4.45c-4.24 5.13-8.32 10.24-12.64 15.14-.92 1.04-2.68 1.9-4.05 1.91-30 .09-60.02.84-89.98-.19-36.83-1.27-69.21-13.79-94.03-42.34-3.79-4.36-7.23-9.01-11.81-14.75-6.93 19.12-13.51 37.27-20.05 55.32-5.24-3.15-10.96-6.59-17.23-10.35 16.51-19.96 26.78-43.93 34.84-68.65 4.65 1.71 8.91 3.28 13.58 5-1.54 2.37-3.19 5.34-5.26 7.99-2.28 2.92-2.16 5.17.7 7.6 1.62 1.38 2.79 3.28 4.52 5.36 48.98-33.19 91.25-73.43 128.25-120.89-53.36 0-105.72 0-158.38 0 0-2.96 0-5.36 0-8.38h89.71c0-24.17 0-47.73 0-71.94-8.13.86-16.13 1.8-24.16 2.55-17.37 1.6-34.75 3.18-52.14 4.52-1.51.12-3.16-1.63-4.74-2.52 1.65-1.12 3.18-2.89 4.98-3.25 19.36-3.86 38.87-7 58.12-11.3 35.24-7.86 69.69-18.31 102.55-33.55 1.19-.55 3.38-.61 4.29.13 6.74 5.43 13.31 11.07 19.81 16.79 1.09.96 1.55 2.63 3.16 5.51-5.11 0-8.8-.07-12.49.02-4.27.1-8.7-.38-12.76.62-21.58 5.35-43.07 11.04-64.54 16.8-1.39.37-3.35 2.32-3.36 3.55-.2 23.64-.15 47.3-.15 71.95z"/><path d="m31.38 253.83c10.99 0 21.8-.15 32.6.09 3.42.08 4.91-1.15 6.24-4.17 21.21-47.83 42.54-95.6 63.93-143.35.99-2.22 2.85-4.05 4.31-6.07.69.21 1.37.42 2.06.63-.11 2.39.36 4.99-.41 7.14-15.89 44.72-31.84 89.42-47.96 134.05-7.36 20.37-8.36 41.19-5.54 62.42 1.59 11.98 3.43 23.95 4.33 35.98.3 4.02-1.35 8.55-3.24 12.27-2.76 5.43-7.95 7.19-13.97 6.55-5.41-.57-8.7-3.69-10.72-8.51-3.47-8.28-1.26-16.73-.72-25.09.96-14.57 2.56-29.11 3.16-43.7.44-10.73-4.87-16.62-15.35-18.89-5.02-1.09-10.04-2.23-15.09-3.1-3.42-.59-5.16-1.99-3.63-6.25z"/><path d="m33.3 123.61c4.34.77 8.74 1.28 13.01 2.35 14.51 3.64 27.91 9.36 35.6 23.18 2.21 3.97 2.8 9.04 3.32 13.69.46 4.17-1.99 7.41-5.93 8.89-3.81 1.44-7.79 1.12-10.63-2.01-2.41-2.65-4.9-5.65-6.03-8.95-4.63-13.51-13.3-23.54-25.08-31.22-1.81-1.18-3.4-2.7-5.09-4.06.27-.61.55-1.24.83-1.87z"/><path d="m62.57 49.32c2.43-.66 3.64-1.38 4.7-1.21 12.55 2.06 24.76 5.07 34.81 13.55 6.23 5.26 11.17 11.36 12.61 19.73 1.05 6.1-1.39 12.03-5.78 13.55-5.2 1.8-10.21-.63-13.58-6.54-3.85-6.78-7.04-14.09-11.79-20.17-4.42-5.66-10.49-10.03-15.87-14.92-1.27-1.15-2.7-2.12-5.1-3.99z"/></g></svg>