<svg enable-background="new 0 0 400 400" viewBox="0 0 400 400" xmlns="http://www.w3.org/2000/svg"><path d="m385.2 377.6.6-.7c.6.4 1.3.9 1.9 1.5l-.6.7c-.8-.5-1.4-1-1.9-1.5zm.3 7.1c.6-1.4 1.1-2.9 1.5-4.5.3.1.6.3.9.4-.5 1.4-1 2.9-1.5 4.4zm.2-10.1.6-.6c.7.5 1.3 1.1 1.9 1.6l-.7.7c-.6-.6-1.2-1.2-1.8-1.7zm8.4-.8h.8v.9h1.8v.7h-1.8v1.8h-.8v-.3h-1.2v.9h3.3v2.6h-.8v-.4h-2.5c0 .3 0 .6-.1.8h3.4v.7h-3.5c0 .3-.1.6-.1.8h4v.7h-3.5c.7.9 1.9 1.3 3.6 1.5-.2.2-.4.5-.6.9-1.9-.3-3.2-1.1-3.8-2.3-.5 1.1-1.8 2-3.9 2.4-.2-.3-.4-.5-.6-.8 1.9-.4 3.1-.9 3.6-1.7h-3.2v-.7h3.5c.1-.2.1-.5.2-.8h-3.3v-.7h3.4c0-.2 0-.5 0-.8h-2.4v.3h-.8v-2.6h3.3v-.9h-1.2v.3h-.8v-1.8h-1.8v-.7h1.8v-.9h.8v.9h3.2zm-4.4 5.5h2.4c1-.3 0-.6 0-.9h-2.4zm1.2-3.1h3.2v-.8h-3.2zm4.4 2.2h-2.4v.9h2.5v-.9z" fill="#fafafb"/><path d="m389.2 385.8h.9v1.5h1.9v-1.5h.9v1.5h2.7v6h1.1v.9h-11.3v-.9h1.1v-6h2.7zm.2 8.7.5.8c-1.2.6-2.5 1.3-4 1.9-.2-.3-.3-.6-.6-.8 1.6-.6 3-1.3 4.1-1.9zm-2-4.3h1.9v-2.1h-1.9zm0 3.1h1.9v-2.2h-1.9zm2.7-3.1h1.9v-2.1h-1.9zm0 3.1h1.9v-2.2h-1.9zm2.4 1.3c1.4.6 2.7 1.2 4.1 1.8l-.5.9c-1.5-.7-2.8-1.4-4.1-1.9zm2.2-6.5h-1.9v2.1h1.9zm-1.9 5.2h1.9v-2.2h-1.9z" fill="#fafafb"/><g fill="#010100"><path d="m330.46 169.37c5.77 5.97 11.4 11.7 16.93 17.53 3.01 3.17 2.35 6.08-1.35 8.04-5.54 2.94-7.27 7.08-7.21 13.52.36 39.82.26 79.64.06 119.46-.02 4.1-.93 8.58-2.77 12.2-4.82 9.43-13.76 11-23.69 10.88-.82-9.47-5.94-14.92-15.03-17.45-4.78-1.33-1.48-5.91-2.54-9.57 6.58 0 12.69-.05 18.8.02 3.93.04 6.34-1.51 6.33-5.69-.01-18.66-.04-37.32-.09-55.98 0-.29-.24-.58-.48-1.1-8.84 0-17.77 0-27.25 0v89.45c-6.59 0-12.64 0-19.06 0 0-29.79 0-59.38 0-89.34-7.74 0-15.13 0-23.06 0v89.4c-6.47 0-12.4 0-18.88 0 0-29.73 0-59.45 0-89.46-7.92 0-15.31 0-23.06 0v94.34c-6.74 0-13.13 0-19.81 0 0-60.27 0-120.52 0-181.59 6.2 2.74 12.18 5.52 18.27 8.02 2.35.97 4.96 1.84 7.45 1.85 32.32.12 64.65-.04 96.97.2 5.41.04 9.52-.68 12.36-5.81 1.63-2.94 4.23-5.37 7.11-8.92zm-38.11 23.86v58.37h27.39c0-19.65 0-38.9 0-58.37-9.19 0-18.11 0-27.39 0zm-61.7 58.55c0-19.78 0-39.14 0-58.37-7.74 0-15.12 0-22.38 0v58.37zm19.7-58.56v58.37h22.38c0-19.66 0-38.91 0-58.37-7.52 0-14.78 0-22.38 0z"/><path d="m138.27 183.46c-10.59 19.19-20.72 37.54-31.05 56.27-3.34-2.18-5.74-3.75-8.73-5.71 33.13-62.74 51.54-130.21 63.81-200.25 10.84 2.45 21.6 4.24 30.97 10.13 4.34 2.73 3.71 6.88-.96 8.92-1.48.65-3.12 1.12-4.72 1.23-5.59.4-6.78 4.16-8.18 8.83-7.48 24.91-15.37 49.7-23.12 74.54-.09.3-.07.63-.08.73 4.52 1.39 9.19 2.31 13.38 4.26 4.77 2.22 4.72 6.5.01 9.22-3.49 2.02-7.39 3.36-11.5 5.17v198.77c-6.62 0-13.01 0-19.84 0 .01-57.06.01-114.28.01-172.11z"/><path d="m368.41 142.72c-4.99 6.82-9.71 13.27-14.72 20.11-37.76-26.04-64.75-62.18-87.28-100.96-14.37 21.15-28.35 42.56-43.2 63.35-15.05 21.07-31.67 40.9-51.85 57.67-1.37-2.11-2.92-4.03-3.9-6.22-.38-.85.18-2.55.88-3.41 7.52-9.33 15.75-18.14 22.6-27.92 10.47-14.96 20.28-30.4 29.85-45.95 6.07-9.86 11.62-20.09 16.66-30.51 5.32-10.99 9.83-22.37 14.53-33.65.93-2.23 1.95-3.93 4.53-3.17 7.63 2.24 15.28 4.47 22.76 7.15 1.58.57 3.18 2.89 3.45 4.62.16.99-2.14 2.83-3.68 3.52-2.47 1.1-5.23 1.55-8.91 2.57 26.99 37.6 57.93 70.32 98.28 92.8z"/><path d="m111.51 102.73c3.35 2.09 6.11 3.8 8.97 5.59-3.85 16.82-7.64 33.61-11.52 50.37-6.29 27.11-12.66 54.21-18.94 81.32-2.68 11.58-6.13 23.07-7.58 34.81-1.05 8.54 0 17.5 1.18 26.12 1.84 13.49 5.23 26.75 4.45 40.57-.59 10.52-11.56 17.99-21.14 13.87-3.99-1.71-6.13-4.76-5.94-9.31.71-17.53 1.83-35.07 1.84-52.6.01-11.15-4.11-20.8-15.58-25.35-2.09-.83-4.36-1.23-6.56-1.78-7.2-1.82-7.21-1.81-6.28-10.03 4.84.23 9.72.27 14.57.74 9.4.92 15.59-4.41 18.73-11.85 6.45-15.27 12.16-30.91 17.13-46.73 5.99-19.08 10.9-38.5 16.25-57.78 3.46-12.5 6.87-25.02 10.42-37.96z"/><path d="m105.04 78.14c-.05 9.46-4.58 14.1-13.1 13.93-4.69-.1-6.35-3.32-8.15-6.65-2.92-5.43-5.14-11.43-8.94-16.15-5.31-6.58-11.61-12.43-17.91-18.13-2.18-1.97-3.25-3.13-1.69-5.89 1.35-2.4 2.24-3.45 5.64-2.48 11.85 3.38 23.14 7.72 33.03 15.23 6.71 5.07 11.29 11.3 11.12 20.14z"/><path d="m32.92 127.21c1.33-2.19 2.43-3.99 4.08-6.69 5.64 2.42 11.65 4.71 17.41 7.53 8.86 4.33 17.28 9.33 22.98 17.83 3.72 5.55 4.44 11.79 3.38 18-.72 4.23-3.44 7.79-8.52 8.11-7.95.51-11.14-1.17-13.24-7.95-4.66-15.09-13.49-27.14-26.09-36.83z"/><path d="m290.49 120.6c6.34 6.82 12.29 13.05 17.96 19.52.86.98.75 3.13.52 4.65-.36 2.37-1.88 3.31-4.5 3.29-15.66-.13-31.32-.06-46.98-.06-10.98 0-21.96 0-33.04 0-.92-2.98-1.76-5.73-2.77-9 15.56 0 30.56-.54 45.49.21 8.33.42 13.72-1.83 17.05-9.57 1.32-3.08 3.85-5.63 6.27-9.04z"/></g></svg>