<svg enable-background="new 0 0 400 400" viewBox="0 0 400 400" xmlns="http://www.w3.org/2000/svg"><path d="m5.17 384 .55-.58c.85.61 1.65 1.24 2.4 1.87l-.59.64c-.83-.73-1.62-1.38-2.36-1.93m1.22 9.53-.82-.34c.71-1.76 1.37-3.64 1.98-5.63.24.13.5.25.76.36-.6 1.67-1.24 3.54-1.92 5.61m-.5-13.5.57-.54c.56.44 1.31 1.06 2.26 1.87l-.64.64c-.68-.66-1.41-1.32-2.19-1.97m3.25.46h2.24v-1.36h.77v1.36h4.57v-1.36h.76v1.36h2.28v.69h-2.28v1.84h-2.64v1.26h4.18v2.64h-4.21c0 .45-.02.86-.05 1.21h4.32v.69h-4.38c-.04.34-.1.75-.19 1.22h5.15v.69h-4.82c.87 1.19 2.51 1.92 4.93 2.19-.17.31-.3.57-.37.76-2.77-.49-4.52-1.41-5.26-2.76-.56 1.26-2.3 2.23-5.24 2.9-.12-.24-.26-.48-.43-.72 2.73-.55 4.38-1.34 4.96-2.38h-4.38v-.69h4.65c.1-.38.17-.79.21-1.22h-4.32v-.69h4.4c.03-.34.05-.75.05-1.21h-4.2v-2.64h4.23v-1.26h-2.69v-1.84h-2.24zm1.46 4.46v1.29h3.45c.01-.4.02-.57.01-.53v-.32-.45h-3.46zm1.55-2.59h4.57v-1.19h-4.57zm6.11 2.59h-3.42v.77c-.02.19-.01.37-.02.53h3.44z" fill="#fcfafa"/><path d="m32.63 379.16h.82v1.98h3.54v7.89h1.46v.78h-14.37v-.78h1.46v-7.89h3.54v-1.98h.82v1.98h2.73zm-3.49 11.48.5.73c-1.61.82-3.28 1.63-5 2.41-.13-.27-.28-.55-.44-.82 1.75-.72 3.4-1.49 4.94-2.32m-2.78-5.55h2.73v-3.18h-2.73zm0 3.95h2.73v-3.2h-2.73zm3.54-3.95h2.73v-3.18h-2.73zm0 3.95h2.73v-3.2h-2.73zm7.89 4.68c-1.84-.92-3.51-1.7-5.02-2.32l.45-.73c1.89.8 3.57 1.55 5.04 2.23zm-1.62-11.81h-2.73v3.18h2.73zm-2.73 7.13h2.73v-3.2h-2.73z" fill="#fcfafa"/><g fill="#010102"><path d="m167 167.89c1.9.91 3.18 1.31 4.21 2.06 10.88 7.86 22.98 10.16 36.25 9.21 10.58-.76 21.25-.15 31.61-.15 0-13.18 0-25.91 0-39.4-22.8 0-44.83 0-67.16 0 0-3.18 0-5.59 0-8.6h8.45c16.33 0 32.67-.19 49 .12 4.71.09 7.89-1.07 10.16-5.24 1.17-2.14 2.99-3.93 4.74-6.16 6.47 3.79 12.85 7.32 19 11.19 3.72 2.34 3.58 4.94-.51 7.03-3.82 1.95-8 3.19-12.11 4.77v36.29h5.88c20 0 40-.12 60 .09 4.64.05 8.38-.71 11.29-4.62 1.78-2.38 4.09-4.36 6.49-6.86 7.31 5.37 14.37 10.55 21.42 15.75 2.51 1.85 1.87 3.62-.29 5.18-1.21.87-2.47 2.01-3.85 2.26-6.41 1.15-7.35 5.06-7.31 11 .27 42.16.1 84.33.18 126.5.02 10.38-1.64 20.18-10.27 26.9-3.62 2.82-8.39 4.49-12.9 5.71-4.37 1.18-6.73-1.56-7.28-5.98-.87-7.04-2.35-8.57-9.47-9.94-7.01-1.35-14.06-2.53-21.06-3.93-1.96-.39-3.81-1.31-5.71-1.99-.04-.66-.08-1.33-.11-1.99 2.08-.69 4.15-1.94 6.24-1.98 10.66-.2 21.33-.05 32-.11 6.72-.04 9.99-3.04 10-9.68.06-45.33.01-90.66-.01-136 0-.32-.13-.65-.3-1.43-23.95 0-47.99 0-72.84 0 10.21 41.02 34.65 71.52 68.23 95.19-6.83 4.56-13.59 9.07-21.05 14.05-19.44-18.51-36.68-39.86-46.88-66.81-3.92 7.02-7.34 13.59-11.17 19.92-13.42 22.13-31.19 40.15-52.65 54.52-2.82 1.89-3.94 3.86-3.89 7.27.19 13.16.1 26.33.07 39.5-.01 5.13-9.32 13.45-14.36 12.51-1.33-.25-2.65-2.09-3.4-3.51-.64-1.22-.62-2.88-.62-4.35-.03-61.67-.02-123.33-.02-185 0-.87 0-1.7 0-3.29zm18.73 19.52v111.93c.62-.12 1.01-.07 1.21-.24.88-.76 1.74-1.56 2.54-2.4 21.25-22.29 37.49-47.75 48.61-76.48 2.76-7.12 6.01-14.1 4.65-22.1-2.17-12.83 1.7-10.41-11.63-10.71-1.66-.04-3.33-.01-4.99-.01-13.3.01-26.6.01-40.39.01z"/><path d="m95.96 262.25c-3.72 10.06-6.92 19.8-10.9 29.22-11.76 27.8-29.91 50.92-52.82 70.38-1.97 1.67-4.54 2.63-6.83 3.91-.38-.46-.75-.92-1.13-1.37 1.01-1.56 1.82-3.3 3.05-4.66 29.3-32.36 46.3-70.5 53.69-113.27 3.35-19.4 4.58-38.92 4.58-58.55 0-47.15 0-94.3 0-141.46 0-1.97 0-3.94 0-7.01 8.93 1.92 17.28 3.6 25.52 5.68.72.18.85 2.98 1.1 4.59.04.28-.6.86-1.03 1-8.31 2.86-7.19 9.7-7.16 16.31.12 21.33.04 42.65.04 63.98v4.83c.51.33 1.03.67 1.54 1 10.44-11.66 20.89-23.32 31.72-35.4 4.42 3.55 9.74 7.46 14.64 11.86 3.4 3.05 2.84 6.26-1.45 6.82-15.06 1.97-24.09 13.97-36.23 20.7-8.21 4.55-10.82 10.56-10.47 20.04 1.05 27.78-.52 55.53-4.74 83.07-.65 4.22-2.8 9.35-1.18 12.46 1.66 3.2 7.11 4.39 10.85 6.55 13.94 8.06 26.96 17.25 35.89 31.06 3.61 5.59 6.82 11.52 6.39 18.55-.28 4.55-1.57 8.46-6.7 9.93-5.05 1.45-8.2-1.37-10.31-5-3.33-5.72-5.92-11.86-8.89-17.79-6.16-12.3-13.98-23.42-24-32.91-1.67-1.56-3.44-3-5.17-4.52z"/><path d="m277.94 87.29c-20.21 0-39.79 0-59.94 0 0 8.33.01 16.43 0 24.54-.01 5.43-9.57 14-14.94 13.23-1.07-.15-2.52-1.17-2.87-2.13-.72-1.98-1.11-4.18-1.13-6.3-.12-9.63-.06-19.27-.06-29.45-19.4 0-38.45 0-57.78 0 0-2.94 0-5.34 0-8.33h57.76c0-12.33 0-24.09 0-36.65 8.84 1.95 17.09 3.59 25.24 5.64 3.94.99 3.93 4.2.8 5.52-8.04 3.37-7.33 9.84-7.04 16.45.12 2.79.02 5.6.02 8.71h59.73c0-11.74 0-23.47 0-35.14 7.56-.61 25.22 3.87 28.61 7.46-1.85 1.58-3.45 3.67-5.56 4.61-4.03 1.79-5 4.56-4.69 8.67.35 4.61.08 9.28.08 14.65 10.27 0 20.19.09 30.1-.11 1.2-.02 2.51-1.48 3.53-2.51 4.79-4.85 9.5-9.78 14.53-14.98 9.46 6.14 18.58 11.85 27.47 17.91 3.57 2.44 3.12 5.33-.84 7.1-1.58.71-3.52.87-5.29.87-21.15.06-42.31.04-63.46.04-1.79 0-3.59 0-6.03 0 0 7.56.04 14.66-.01 21.77-.04 4.59-10.12 13.42-14.37 11.91-1.82-.65-3.57-4.16-3.68-6.45-.44-8.82-.18-17.65-.18-27.03z"/><path d="m54.54 120.77c1 2.11 2.65 4.15 2.89 6.34 2.23 19.89 2.84 39.73-3.33 59.15-1.97 6.22-5.16 11.59-11.84 13.76-3.69 1.19-7.38 1.99-10.65-1.39-3.31-3.42-4.55-7.37-3.27-11.86.77-2.68 1.86-5.42 3.44-7.69 10.89-15.6 17.08-32.85 18.82-51.78.2-2.15 1.21-4.23 1.85-6.34.7-.06 1.39-.13 2.09-.19z"/></g></svg>