<svg enable-background="new 0 0 400 400" viewBox="0 0 400 400" xmlns="http://www.w3.org/2000/svg"><path d="m5.17 384 .55-.58c.85.61 1.65 1.24 2.4 1.87l-.59.64c-.83-.73-1.62-1.38-2.36-1.93m1.22 9.53-.82-.34c.71-1.76 1.37-3.64 1.98-5.63.24.13.5.25.76.36-.6 1.67-1.24 3.54-1.92 5.61m-.5-13.5.57-.54c.56.44 1.31 1.06 2.26 1.87l-.64.64c-.68-.66-1.41-1.32-2.19-1.97m3.25.46h2.24v-1.36h.77v1.36h4.57v-1.36h.76v1.36h2.28v.69h-2.28v1.84h-2.64v1.26h4.18v2.64h-4.21c0 .45-.02.86-.05 1.21h4.32v.69h-4.38c-.04.34-.1.75-.19 1.22h5.15v.69h-4.82c.87 1.19 2.51 1.92 4.93 2.19-.17.31-.3.57-.37.76-2.77-.49-4.52-1.41-5.26-2.76-.56 1.26-2.3 2.23-5.24 2.9-.12-.24-.26-.48-.43-.72 2.73-.55 4.38-1.34 4.96-2.38h-4.38v-.69h4.65c.1-.38.17-.79.21-1.22h-4.32v-.69h4.4c.03-.34.05-.75.05-1.21h-4.2v-2.64h4.23v-1.26h-2.69v-1.84h-2.24zm1.46 4.46v1.29h3.45c.01-.4.02-.57.01-.53v-.32-.45h-3.46zm1.55-2.59h4.57v-1.19h-4.57zm6.11 2.59h-3.42v.77c-.02.19-.01.37-.02.53h3.44z" fill="#fcfafa"/><path d="m32.63 379.16h.82v1.98h3.54v7.89h1.46v.78h-14.37v-.78h1.46v-7.89h3.54v-1.98h.82v1.98h2.73zm-3.49 11.48.5.73c-1.61.82-3.28 1.63-5 2.41-.13-.27-.28-.55-.44-.82 1.75-.72 3.4-1.49 4.94-2.32m-2.78-5.55h2.73v-3.18h-2.73zm0 3.95h2.73v-3.2h-2.73zm3.54-3.95h2.73v-3.18h-2.73zm0 3.95h2.73v-3.2h-2.73zm7.89 4.68c-1.84-.92-3.51-1.7-5.02-2.32l.45-.73c1.89.8 3.57 1.55 5.04 2.23zm-1.62-11.81h-2.73v3.18h2.73zm-2.73 7.13h2.73v-3.2h-2.73z" fill="#fcfafa"/><g fill="#010102"><path d="m249.86 205.88c-6.52 10.31-12.3 20.8-19.37 30.34-17.04 23.02-39.59 39.74-64.25 53.77-1.91 1.09-4.53.93-6.82 1.35-.22-.47-.44-.94-.66-1.41 2.06-1.77 4.08-3.61 6.2-5.31 21.76-17.53 42.03-36.53 56.75-60.54 5.26-8.58 8.85-18.17 13.32-27.23 1.24-2.51.55-3.88-1.68-5.25-10.06-6.18-20.07-12.44-30.04-18.75-1.67-1.06-3.11-2.5-4.25-4.49 14.71.83 27.72 6.89 40.93 12.06 4.8-10.83 11.02-52.54 10.59-71.14-16.33 0-32.7 0-49.31 0 0-3.07 0-5.47 0-8.41h49.52c0-21.58 0-42.64 0-64.29 8.51 1.54 16.38 2.71 24.09 4.53 1.84.43 3.17 3.03 4.73 4.63-1.62 1.24-3.14 3.35-4.87 3.55-5.43.61-5.73 3.75-5.65 8.21.26 14.15.1 28.3.1 43.34h13.01c1 0 2-.06 3 .01 9.95.64 19.93 1.37 24.63-10.61 7.27 5.54 13.79 10.41 20.18 15.45 3.2 2.52 2.8 4.47-1.08 6.09-1.68.7-3.47 1.12-5.84 1.86v5.13c.04 23.16-.28 46.33.21 69.48.43 20.14 2.44 40.15 9.99 59.13 1.1 2.75 2.6 5.44 4.39 7.79 2.99 3.92 6.31 3.79 8.61-.55 2.24-4.23 3.8-8.83 5.5-13.33 3.41-9.01 6.6-18.09 10.12-27.06.81-2.08 2.56-3.79 3.88-5.67.56.2 1.12.4 1.68.6 0 2.61.54 5.36-.09 7.8-3.64 14.14-7.52 28.21-11.39 42.28-1.49 5.41-.88 10.47 1.7 15.46 1.29 2.49 2.22 5.21 2.97 7.92 1.21 4.39-.19 6.28-4.69 6.7-7.92.74-14.71-1.94-20.65-7.01-9.63-8.22-15.75-18.86-20.35-30.4-7.28-18.29-10.03-37.47-10.11-57.05-.11-26.49-.03-52.99-.03-79.48 0-1.82 0-3.64 0-5.89-11.82 0-23.36 0-35.48 0-1.28 26.93-5.41 53.55-12.96 78.9 6.95 5.91 13.79 11.21 20 17.16 5.98 5.73 9.2 12.97 8.78 21.51-.2 4.12-.57 8.47-5.18 9.79-4.52 1.3-6.77-2.58-9.18-5.54-6.69-8.23-13.35-16.48-20.04-24.71-.3-.37-.77-.61-.91-.72z"/><path d="m39.89 186.37c0-3.13 0-5.52 0-8.44h6.14c35.33 0 70.66-.07 105.99.05 8.36.03 16.82 1.03 22.27-7.44 7.92 6.17 15.33 11.96 24.1 18.8-4.58 1.02-7.88 2.56-11.04 2.3-9.41-.78-16.95 3.86-24.84 7.58-7.07 3.34-13.92 7.19-21.15 10.11-5.21 2.1-7.17 5.23-6.2 10.57.23 1.27.22 2.59.37 4.49 9.13-1.37 17.95-2.71 26.77-4.02 12.65-1.89 25.28-3.85 37.96-5.56 2.2-.3 4.55.48 7.05.79-1.27 4.95-4.4 5.78-7.75 6.49-19.96 4.23-39.87 8.69-59.89 12.64-4.03.8-4.59 2.46-4.55 5.91.15 12.16.14 24.33.04 36.5-.12 14.15-8.34 23.39-22.3 25.52-4.04.62-5.81-.88-6.3-4.87-.8-6.57-2.81-8.48-9.34-9.68-3.74-.69-7.52-1.25-11.21-2.17-1.78-.44-3.38-1.57-5.06-2.38.04-.48.08-.97.12-1.45 1.76-.36 3.52-1.01 5.29-1.04 7-.12 14 0 21-.07 5.47-.06 8.92-2.45 9.14-7.83.46-11.27.14-22.57.14-34.47-9.73 1.65-19.04 3.2-28.33 4.81-8.67 1.5-17.3 3.22-26 4.52-3.11.46-4.96 1.53-5.33 4.74-.07.64-.47 1.24-.71 1.86-2.57 6.58-5.6 7.3-9.7 1.7-4.89-6.67-9.14-13.81-14.24-21.62 28.61-2.49 56.32-4.9 84.55-7.35 0-9.09 0-17.82 0-27.29 5.71 2.54 10.63 4.86 15.67 6.9 1.31.53 3.51.82 4.4.11 8.04-6.42 15.89-13.1 24.96-20.68-41.51-.03-81.63-.03-122.02-.03z"/><path d="m182 117.02c0 11.9.01 23.88-.01 35.86-.01 5.05-9.64 13.86-14.62 13.01-1.35-.23-2.97-2.02-3.46-3.44-.84-2.45-.89-5.18-1.32-8.09-25.47 0-51.01 0-76.77 0-.15 1.12-.54 2.13-.38 3.04 1.58 8.79-4.88 11.91-10.87 15.07-4.04 2.13-6.6.51-7.47-4.01-.09-.49-.12-.99-.12-1.49-.01-24.63 0-49.27 0-74.98 5.33 2.85 10.15 5.24 14.77 7.96 4.42 2.59 8.93 3.82 14.17 3.75 18.98-.25 37.97-.32 56.94.04 5.38.1 9.27-1.21 12.17-5.69.98-1.51 2.34-2.77 3.9-4.59 7.51 5.83 14.91 11.57 23.52 18.25-4.08 2.07-7.01 3.56-10.45 5.31zm-96.23 28.44h76.93c0-11.28 0-22.18 0-33.11-25.82 0-51.34 0-76.93 0z"/><path d="m34.01 80c0-2.91 0-5.2 0-8.27h80.96c0-14.39 0-28.02 0-42.45 8.36 1.49 16.33 2.65 24.14 4.5 1.93.46 3.33 3.19 4.97 4.87-1.67 1.18-3.25 2.53-5.04 3.47-1.42.74-3.1.98-4.81 1.48v27.99c9 0 17.87-.74 26.57.19 10.29 1.11 18.06-1.92 24.05-10.2 1.55-2.15 3.51-4 5.66-6.4 7.78 5.74 15.18 11.03 22.32 16.65 1.27 1 2.35 3.75 1.85 5.06-.54 1.41-2.98 2.19-4.7 3.03-.68.33-1.64.08-2.47.08-56.66 0-113.32 0-169.98 0-1 0-1.98 0-3.52 0z"/><path d="m283.47 283.16c1.66.11 3.53-.24 4.96.4 16.86 7.52 33.43 15.55 47.44 27.94 9.16 8.11 14.24 18.28 15.01 30.42.19 3.01-.54 6.37-1.83 9.11-2.15 4.59-9.03 5.81-12.8 2.08-2.86-2.83-5.53-6.42-6.81-10.18-7.05-20.66-21.29-35.74-37.37-49.51-3.2-2.74-6.35-5.56-9.52-8.34.31-.63.61-1.28.92-1.92z"/><path d="m78.05 304.65c-.51 14.79-2.09 29.33-8.57 43-4.66 9.83-12.37 13.8-22.8 13.4-9.18-.35-13.2-7.37-8.09-15.07 2.67-4.02 6.59-7.45 10.53-10.34 7.86-5.76 14.01-12.79 17.49-21.84 1.95-5.06 2.93-10.49 4.32-15.76.29-1.12.12-2.49.72-3.36.96-1.4 2.38-2.49 3.6-3.71.93 1.4 2.47 2.72 2.67 4.22.42 3.11.13 6.3.13 9.46z"/><path d="m211.53 290.5c1.95.65 4 1.1 5.85 1.98 13.05 6.23 24.49 14.73 34.33 25.29 7.92 8.5 10.58 19 10.24 30.33-.11 3.56-1.34 7.02-5.43 8-3.99.95-7.89.39-10.19-3.33-2.07-3.34-4.09-6.95-5.03-10.72-4.31-17.35-14.05-31.36-26.09-44.07-1.75-1.85-3.24-3.95-4.85-5.93.39-.51.78-1.03 1.17-1.55z"/><path d="m175.98 352.48c.16 9.3-3.24 13.13-11.08 12.7-5.24-.29-7.82-3.81-8.78-8.14-1.11-4.97-1.2-10.18-1.67-15.28-1.17-12.55-6.25-23.62-12.79-34.15-.96-1.55-2.27-2.96-2.91-4.63-.62-1.63-.6-3.5-.86-5.27 2.1.33 4.69.01 6.2 1.13 3.72 2.76 6.95 6.17 10.35 9.34 12.86 12 21.73 25.94 21.54 44.3z"/></g></svg>