<svg enable-background="new 0 0 400 400" viewBox="0 0 400 400" xmlns="http://www.w3.org/2000/svg"><g fill="#010103"><path d="m47.36 55.95c1.22.48 2.21.67 2.97 1.19 12.98 8.91 27.39 11.38 42.81 9.94 5.12-.48 10.35-.4 15.48.02 4.47.37 7.07-1.65 9.39-5 2.68-3.86 5.62-7.55 9.2-12.31 6.35 6.33 12.41 12.03 18.03 18.13 3.13 3.4 2.63 6.7-1.5 8.69-7.35 3.53-8.99 8.87-8.95 16.8.35 69.66.2 139.33.2 209v6.26c-6.35 0-12.41 0-18.84 0 0-7.03 0-13.97 0-21.29-16.42 0-32.47 0-49.08 0v35.37c-6.81 0-13.08 0-19.72 0 .01-88.74.01-177.48.01-266.8zm19.82 221.64h48.55c0-21.33 0-42.24 0-63.28-16.31 0-32.35 0-48.55 0zm48.6-133.33c-16.49 0-32.42 0-48.48 0v60.38h48.48c0-20.26 0-40.18 0-60.38zm-.13-9.49c0-19.76 0-39.13 0-58.38-16.39 0-32.44 0-48.39 0v58.38z"/><path d="m144.51 316.78c11.35-.63 21.7-1.18 32.05-1.79 4.6-.27 9.23-.45 13.78-1.12 1.33-.2 3.13-1.75 3.52-3.04 7.48-24.75 15.29-49.42 21.95-74.39 4.57-17.13 7.51-34.69 11.14-52.07.13-.6-.09-1.28-.19-2.37-5.39 0-10.69 0-15.99 0-16.66 0-33.33 0-49.99 0-7.82 0-7.82 0-9.72-9h5.83c48.66 0 97.32-.22 145.97.23 7.37.07 11.49-2.62 15.2-8.15 3.53-5.26 7.56-10.19 12.05-16.15 7.61 8.42 14.86 16.28 21.85 24.36.97 1.12 1.4 3.62.82 4.94-.89 2.03-2.17 3.94-5.41 3.89-16.99-.24-33.99-.11-50.99-.11-13.83 0-27.65 0-42.03 0-13.35 44.21-29.35 87.49-49.8 130.89 36.45-4.91 71.66-9.65 107.58-14.5-11.48-20.34-25.35-37.76-40.5-53.99 1.84-2.43 3.22-4.25 5.11-6.75 2.94 2.13 6.08 4.03 8.77 6.43 11.21 10.02 22.79 19.69 33.26 30.44 11.65 11.96 22.12 25.02 29.61 40.2 4.14 8.4 5.31 17.22 4.54 26.35-.37 4.44-3.4 7.57-7.43 8.77-5.73 1.71-10.02-.17-12.47-5.15-2.3-4.66-4.1-9.56-6.02-14.4-2.93-7.38-5.79-14.79-8.76-22.4-24.72 5.41-48.78 11.03-73 15.85-15.21 3.03-30.66 4.85-45.99 7.27-10.32 1.63-20.64 3.29-30.93 5.13-.9.16-1.8 1.63-2.26 2.68-1.03 2.37-1.58 4.97-2.7 7.29-1.8 3.74-5.35 4.22-7.3.51-3.46-6.59-6.2-13.57-9-20.48-1.09-2.67-1.55-5.59-2.55-9.37z"/><path d="m169.91 76h5.91c37.8 0 75.6-.05 113.4.09 3.02.01 4.79-.9 6.41-3.24 4.62-6.67 9.38-13.24 13.74-19.35 8.66 7.59 17.23 15.1 25.12 22.01-3.36 9.46-3.39 9.49-11.05 9.49-47.13 0-94.25 0-141.38 0-8.53 0-8.53 0-12.15-9z"/></g><path d="m6.44 374.46.42-.45c.65.47 1.27.95 1.85 1.44l-.45.49c-.65-.56-1.25-1.06-1.82-1.48m.93 7.33-.63-.26c.55-1.36 1.05-2.8 1.52-4.33.19.1.38.19.59.27-.46 1.29-.95 2.73-1.48 4.32m-.38-10.38.44-.42c.43.34 1.01.82 1.74 1.44l-.49.49c-.53-.51-1.09-1.01-1.69-1.51m2.5.35h1.72v-1.04h.59v1.04h3.52v-1.04h.59v1.04h1.75v.53h-1.75v1.42h-2.03v.97h3.22v2.03h-3.24c0 .35-.01.66-.03.93h3.32v.53h-3.37c-.03.27-.08.58-.15.94h3.96v.53h-3.71c.67.92 1.93 1.48 3.79 1.68-.13.24-.23.44-.29.59-2.13-.38-3.48-1.08-4.04-2.12-.43.97-1.77 1.72-4.03 2.23-.09-.19-.2-.37-.33-.55 2.1-.42 3.37-1.03 3.81-1.83h-3.36v-.53h3.58c.08-.29.13-.61.16-.94h-3.33v-.53h3.39c.02-.27.04-.58.04-.93h-3.23v-2.03h3.25v-.97h-2.07v-1.42h-1.73zm1.12 3.44v1h2.65c.01-.3.02-.44.01-.4v-.25-.35zm1.19-2h3.52v-.91h-3.52zm4.71 2h-2.63v.59c0 .16-.01.28-.01.4h2.64z" fill="#fcfafa"/><path d="m13.56 383.74h.63v1.52h2.72v6.07h1.13v.6h-11.06v-.6h1.13v-6.07h2.73v-1.52h.63v1.52h2.1v-1.52zm-2.69 8.83.38.56c-1.24.63-2.53 1.25-3.85 1.85-.1-.21-.21-.42-.34-.63 1.36-.55 2.63-1.15 3.81-1.78m-2.13-4.27h2.1v-2.45h-2.1zm0 3.04h2.1v-2.46h-2.1zm2.72-3.04h2.1v-2.45h-2.1zm0 3.04h2.1v-2.46h-2.1zm6.07 3.6c-1.41-.71-2.7-1.3-3.86-1.78l.35-.56c1.45.62 2.75 1.19 3.88 1.72zm-1.25-9.09h-2.1v2.45h2.1zm-2.09 5.49h2.1v-2.46h-2.1z" fill="#fcfafa"/></svg>