<svg enable-background="new 0 0 400 400" viewBox="0 0 400 400" xmlns="http://www.w3.org/2000/svg"><path d="m385.2 377.6.6-.7c.6.4 1.3.9 1.9 1.5l-.6.7c-.8-.5-1.4-1-1.9-1.5zm.3 7.1c.6-1.4 1.1-2.9 1.5-4.5.3.1.6.3.9.4-.5 1.4-1 2.9-1.5 4.4zm.2-10.1.6-.6c.7.5 1.3 1.1 1.9 1.6l-.7.7c-.6-.6-1.2-1.2-1.8-1.7zm8.4-.8h.8v.9h1.8v.7h-1.8v1.8h-.8v-.3h-1.2v.9h3.3v2.6h-.8v-.4h-2.5c0 .3 0 .6-.1.8h3.4v.7h-3.5c0 .3-.1.6-.1.8h4v.7h-3.5c.7.9 1.9 1.3 3.6 1.5-.2.2-.4.5-.6.9-1.9-.3-3.2-1.1-3.8-2.3-.5 1.1-1.8 2-3.9 2.4-.2-.3-.4-.5-.6-.8 1.9-.4 3.1-.9 3.6-1.7h-3.2v-.7h3.5c.1-.2.1-.5.2-.8h-3.3v-.7h3.4c0-.2 0-.5 0-.8h-2.4v.3h-.8v-2.6h3.3v-.9h-1.2v.3h-.8v-1.8h-1.8v-.7h1.8v-.9h.8v.9h3.2zm-4.4 5.5h2.4c1-.3 0-.6 0-.9h-2.4zm1.2-3.1h3.2v-.8h-3.2zm4.4 2.2h-2.4v.9h2.5v-.9z" fill="#fafafb"/><path d="m389.2 385.8h.9v1.5h1.9v-1.5h.9v1.5h2.7v6h1.1v.9h-11.3v-.9h1.1v-6h2.7zm.2 8.7.5.8c-1.2.6-2.5 1.3-4 1.9-.2-.3-.3-.6-.6-.8 1.6-.6 3-1.3 4.1-1.9zm-2-4.3h1.9v-2.1h-1.9zm0 3.1h1.9v-2.2h-1.9zm2.7-3.1h1.9v-2.1h-1.9zm0 3.1h1.9v-2.2h-1.9zm2.4 1.3c1.4.6 2.7 1.2 4.1 1.8l-.5.9c-1.5-.7-2.8-1.4-4.1-1.9zm2.2-6.5h-1.9v2.1h1.9zm-1.9 5.2h1.9v-2.2h-1.9z" fill="#fafafb"/><g fill="#010100"><path d="m309.24 151.35c9.32 6.76 17.94 12.74 26.18 19.18 2.06 1.61 2.94 4.71 4.37 7.13-2.55.84-5.09 2.4-7.64 2.41-39.33.15-78.67.11-118 .11-1.98 0-3.97 0-6.35 0v61.52c1.81.08 3.57.23 5.33.23 32.17.01 64.33.08 96.5-.13 2.61-.02 5.77-1.37 7.7-3.16 6.22-5.77 11.98-12.02 18.35-18.53 6.45 4.69 12.61 9.12 18.71 13.62 3.48 2.57 7.06 5.06 10.18 8.02 1.46 1.38 1.93 3.8 2.85 5.74-2 .89-3.96 1.93-6.03 2.62-1.05.35-2.31.06-3.48.06-48 0-96 0-144 0-1.95 0-3.9 0-6.5 0 0 2.48.01 4.43 0 6.39-.09 26 .09 52-.37 77.99-.24 13.59-10.96 25.83-24.16 29.06-6.64 1.63-10.4-.91-11.33-7.68-.9-6.51-2.6-8.3-9.29-9.87-6.95-1.63-13.91-3.22-20.83-4.99-1.96-.5-3.78-1.57-5.67-2.38-.02-.59-.05-1.19-.07-1.78 2.31-.64 4.61-1.78 6.93-1.82 11.5-.19 23-.01 34.5-.12 6.98-.07 11.64-4.14 11.7-10.96.2-24.32.08-48.65.08-73.61-49.93 0-99.64 0-149.66 0 0-3.03 0-5.44 0-8.27h149.27c0-20.65 0-40.88 0-61.73-36.9 0-73.96 0-111.35 0 0-3 0-5.4 0-8.45h5.83c61.17 0 122.33.01 183.5-.01 7.66 0 16.15 1.9 22.75-.78 6.41-2.6 10.91-9.95 16.2-15.27 1.29-1.31 2.37-2.81 3.8-4.54z"/><path d="m261.69 94.17c6.81 5.71 13.06 10.32 18.56 15.7 10.16 9.94 18.61 20.94 17.93 36.35-.25 5.77-2.62 9.33-7.33 10.61-4.85 1.32-9.09-.62-11.78-6.02-1.76-3.54-3.13-7.35-4.12-11.18-4.15-16.05-11.83-30.28-21.95-43.27-.87-1.11-2.67-1.52-4.08-2.16-.42-.19-.99-.03-1.49-.03-6.67.03-14.18-1.85-19.75.63-5.3 2.36-8.59 9.27-12.75 14.18-11.58 13.67-24.26 26.11-39.69 35.44-3.41 2.06-7.18 3.54-10.78 5.28-.38-.5-.76-.99-1.14-1.49 1.02-1.52 1.77-3.35 3.11-4.5 31.91-27.36 52.12-62.66 68.43-100.62.64-1.5 1.35-2.96 2.28-4.99 9 4.61 17.73 8.97 26.34 13.58 1.23.66 2.4 2.46 2.49 3.81.05.82-1.91 2.08-3.19 2.59-2.14.86-4.49 1.91-6.69 1.77-6.4-.4-9.32 3.29-12.07 8.3-3.23 5.9-7.27 11.36-11.44 17.76h5.61c25.33 0 50.66.09 75.99-.14 2.61-.02 5.76-1.39 7.71-3.18 6.24-5.73 12.04-11.95 18.51-18.49 10.01 7.63 19.8 14.98 29.42 22.57 1.2.95 2.45 3.95 1.94 4.55-1.2 1.44-3.42 2.76-5.26 2.8-11.99.24-24 .13-35.99.13-21 0-42 0-62.99 0-1.61.02-3.21.02-5.83.02z"/><path d="m26.95 159.4c14.62-20 29.36-38.98 42.78-58.84 13.53-20.03 23.16-42.21 31.88-65.62 9.28 4.88 18.44 9.46 27.34 14.48 3.29 1.86 2.84 4.12-.75 5.7-1.95.86-4.11 1.81-6.16 1.78-6.12-.09-9.44 3.08-12.21 8.2-3.71 6.85-8.21 13.27-12.74 20.47 1.74.14 3.11.35 4.48.35 16.16.02 32.33.13 48.49-.12 2.33-.04 5.11-1.29 6.84-2.89 5.35-4.97 10.3-10.37 15.72-15.94 8.9 6.41 17.48 12.39 25.77 18.75 1.53 1.17 1.88 3.87 2.78 5.87-2 .86-3.99 2.46-5.99 2.47-25.33.17-50.66.11-75.98.11-1.75 0-3.5 0-5.9 0 5.28 5.74 10.24 10.59 14.57 15.96 8.76 10.85 13.51 23.22 12.52 37.39-.43 6.19-2.86 8.96-8.1 9.62-5.54.69-8.94-1.39-10.4-7.59-2.01-8.54-2.6-17.48-5.19-25.81-2.64-8.49-6.55-16.67-10.7-24.56-3.81-7.25-11.62-7.28-16.51-.71-13.74 18.47-28.19 36.31-45.94 51.17-3.56 2.98-7.43 5.63-11.32 8.18-1.37.88-3.23.99-5.28 1.58z"/></g></svg>