<svg enable-background="new 0 0 400 400" viewBox="0 0 400 400" xmlns="http://www.w3.org/2000/svg"><path d="m385.2 377.6.6-.7c.6.4 1.3.9 1.9 1.5l-.6.7c-.8-.5-1.4-1-1.9-1.5zm.3 7.1c.6-1.4 1.1-2.9 1.5-4.5.3.1.6.3.9.4-.5 1.4-1 2.9-1.5 4.4zm.2-10.1.6-.6c.7.5 1.3 1.1 1.9 1.6l-.7.7c-.6-.6-1.2-1.2-1.8-1.7zm8.4-.8h.8v.9h1.8v.7h-1.8v1.8h-.8v-.3h-1.2v.9h3.3v2.6h-.8v-.4h-2.5c0 .3 0 .6-.1.8h3.4v.7h-3.5c0 .3-.1.6-.1.8h4v.7h-3.5c.7.9 1.9 1.3 3.6 1.5-.2.2-.4.5-.6.9-1.9-.3-3.2-1.1-3.8-2.3-.5 1.1-1.8 2-3.9 2.4-.2-.3-.4-.5-.6-.8 1.9-.4 3.1-.9 3.6-1.7h-3.2v-.7h3.5c.1-.2.1-.5.2-.8h-3.3v-.7h3.4c0-.2 0-.5 0-.8h-2.4v.3h-.8v-2.6h3.3v-.9h-1.2v.3h-.8v-1.8h-1.8v-.7h1.8v-.9h.8v.9h3.2zm-4.4 5.5h2.4c1-.3 0-.6 0-.9h-2.4zm1.2-3.1h3.2v-.8h-3.2zm4.4 2.2h-2.4v.9h2.5v-.9z" fill="#fafafb"/><path d="m389.2 385.8h.9v1.5h1.9v-1.5h.9v1.5h2.7v6h1.1v.9h-11.3v-.9h1.1v-6h2.7zm.2 8.7.5.8c-1.2.6-2.5 1.3-4 1.9-.2-.3-.3-.6-.6-.8 1.6-.6 3-1.3 4.1-1.9zm-2-4.3h1.9v-2.1h-1.9zm0 3.1h1.9v-2.2h-1.9zm2.7-3.1h1.9v-2.1h-1.9zm0 3.1h1.9v-2.2h-1.9zm2.4 1.3c1.4.6 2.7 1.2 4.1 1.8l-.5.9c-1.5-.7-2.8-1.4-4.1-1.9zm2.2-6.5h-1.9v2.1h1.9zm-1.9 5.2h1.9v-2.2h-1.9z" fill="#fafafb"/><g fill="#010100"><path d="m214.58 33.75c9.47 3.36 18.88 6.54 28.13 10.11 1.73.67 2.85 2.89 4.25 4.39-1.52 1.14-3.03 3.25-4.56 3.26-9.16.05-11.12 6.31-13.41 13.43-4.27 13.24-9.45 26.19-14.43 39.74 1.59.08 3.32.23 5.04.23 35.83.01 71.66-.09 107.49.13 4.84.03 8.24-1.01 10.6-5.37 1.16-2.15 2.99-3.93 4.75-6.19 6.97 4.99 13.84 9.64 20.39 14.7 4.43 3.42 4.01 6.56-1.38 8-4.68 1.26-5.13 3.74-5.11 7.82.13 41 .2 81.99.03 122.99-.09 22.14-1.09 44.28-7.34 65.69-6.1 20.89-19.32 36.16-38.98 45.52-3.63 1.73-7.95 2.2-12.03 2.76-3.78.52-6.23-1.58-6.2-5.41.05-7.26-3.38-11.23-10.3-13.17-5.9-1.65-11.56-4.15-17.31-6.34-1.93-.74-3.77-1.68-5.66-2.53.06-.57.13-1.15.19-1.72 1.86-.09 3.72-.33 5.57-.25 11.91.48 23.86 1.9 35.72 1.36 19.13-.86 27.99-15.93 30.81-29.78 4.85-23.86 7.18-47.98 7.17-72.32-.02-37.83 0-75.66-.01-113.49 0-1.15-.12-2.3-.22-4.15-1.7 0-3.3 0-4.9 0-39 0-78 .04-116.99-.07-3.42-.01-5.28.84-6.75 4.17-8.17 18.43-19.68 34.71-33.13 49.63-1.33 1.47-3.77 1.94-5.7 2.87.15-2.24-.41-4.88.56-6.68 17.41-32.18 30.74-65.89 38.52-101.7 1.93-8.89 3.38-17.9 5.19-27.63z"/><path d="m152.22 186.18c-6.02-9.61-11.53-18.4-17.04-27.2.34-.32.68-.64 1.02-.97 1.17.35 2.53.42 3.47 1.08 12.88 8.98 25.56 18.37 33.83 32.02 2.97 4.9 4.71 11.06 5.24 16.8.64 6.88-5.17 10.59-11.72 8.28-1.69-.6-3.34-2.46-4.17-4.16-2.54-5.2-4.58-10.65-7.05-15.89-.51-1.07-2.13-2.44-3.12-2.35-12.41 1.13-24.79 2.5-37.17 3.84-.64.07-1.24.46-2.32.88v5.75 153.45c0 5.52-8.9 13.29-14.21 11.93-1.6-.41-3.2-2.73-3.84-4.51-.69-1.94-.3-4.28-.3-6.44-.01-50.98-.01-101.97-.01-152.95 0-1.96 0-3.93 0-6.41-11.07 1.11-21.58 2.15-32.09 3.22-.66.07-1.33.49-1.94.4-6.21-.91-9.9 1.65-11.55 7.73-.43 1.57-2.1 2.79-4.21 5.44-5.01-9.81-9.53-18.64-14.35-28.08 17.07-.42 33.32-.87 49.57-1.16 2.69-.05 4.59-.4 6.04-3.12 16.14-30.19 32.45-60.28 48.63-90.45 1.87-3.49 3.2-7.26 5.07-11.55 8.68 5.02 17.11 9.89 25.54 14.76-.13.61-.25 1.22-.38 1.83-1.91.57-3.86 1.7-5.74 1.59-4.02-.24-6.26 1.56-8.47 4.7-18.01 25.57-36.19 51.02-54.31 76.51-1.05 1.47-2.04 2.98-3.43 5.03z"/><path d="m269.86 278.26c-16.87 0-32.99 0-49.86 0v23.83c0 5.59-8.75 14.3-14.32 13.91-1.31-.09-2.99-1.39-3.64-2.6-.81-1.52-1-3.52-1.01-5.31-.05-52.5-.04-104.99-.03-157.49 0-.76.12-1.53.25-3.06 6.49 3.87 12.35 7.58 18.42 10.89 2.22 1.21 4.94 2.01 7.45 2.06 10.66.22 21.34-.11 31.99.2 4.31.12 7.27-.92 9.42-4.79 1.35-2.42 3.39-4.45 5.42-7.05 6.92 5 13.77 9.64 20.28 14.74 4.41 3.46 3.92 6.7-1.33 8.11-4.14 1.12-4.84 3.17-4.83 7.01.14 35.66.08 71.33.08 106.99 0 6.17-7.7 14.2-13.83 14.37-3.67.1-4.4-2.46-4.46-5.32-.07-5.31 0-10.62 0-16.49zm-49.64-8.86h49.16c0-16.32 0-32.2 0-47.94-16.69 0-32.93 0-49.16 0zm.15-100.17v43.24h49.14c0-14.58 0-28.8 0-43.24-16.53 0-32.76 0-49.14 0z"/><path d="m37.88 96.35c6.3 2.47 11.52 4.33 16.59 6.55 5.14 2.26 10.12 4.88 15.57 7.55 11.98-24.42 24.01-48.97 36.23-73.88 7.84 4.94 15.34 9.52 22.63 14.41 1.4.94 1.95 3.14 2.9 4.76-1.59.76-3.39 2.44-4.75 2.14-8.58-1.9-12.36 3.78-16.7 9.42-11.87 15.4-24.05 30.57-36.24 45.99 2.69 2.53 5.31 4.78 7.69 7.28 5.37 5.63 8.74 12.28 8.07 20.17-.21 2.42-2 5.75-3.99 6.68-2.02.94-5.66.17-7.72-1.18-2.51-1.64-4.52-4.43-6.03-7.12-7.92-14.08-18.27-26.1-30.36-36.71-1.12-.98-2.14-2.09-3.17-3.18-.19-.2-.16-.59-.72-2.88z"/><path d="m35.75 344.92c0-2.17-.43-4.44.07-6.48 7.4-30.4 12.49-61.12 13.22-92.48.14-5.93.7-11.85 1.1-18.3 7.99 2.34 15.67 4.37 23.15 6.95 1.62.56 3.31 3 3.54 4.76.14 1.08-2.3 2.72-3.84 3.72-1.21.78-2.8.96-4.63 1.53-5.48 34.83-11.05 69.9-30.97 100.44-.54-.06-1.09-.1-1.64-.14z"/><path d="m130.54 229.93c1.33.49 2.84.73 3.97 1.52 16.04 11.14 29.63 24.42 34.99 43.9 1.59 5.8 1.73 12.17 1.56 18.25-.18 6.67-4.89 10.49-11.51 10.55-5.25.05-7.9-2.7-8.82-9.89-1.05-8.22-1.42-16.53-2.72-24.7-1.94-12.23-7.65-22.9-14.91-32.81-1.33-1.82-2.39-3.84-3.57-5.76.34-.35.67-.7 1.01-1.06z"/></g></svg>