<svg enable-background="new 0 0 400 400" viewBox="0 0 400 400" xmlns="http://www.w3.org/2000/svg"><path d="m385.2 377.6.6-.7c.6.4 1.3.9 1.9 1.5l-.6.7c-.8-.5-1.4-1-1.9-1.5zm.3 7.1c.6-1.4 1.1-2.9 1.5-4.5.3.1.6.3.9.4-.5 1.4-1 2.9-1.5 4.4zm.2-10.1.6-.6c.7.5 1.3 1.1 1.9 1.6l-.7.7c-.6-.6-1.2-1.2-1.8-1.7zm8.4-.8h.8v.9h1.8v.7h-1.8v1.8h-.8v-.3h-1.2v.9h3.3v2.6h-.8v-.4h-2.5c0 .3 0 .6-.1.8h3.4v.7h-3.5c0 .3-.1.6-.1.8h4v.7h-3.5c.7.9 1.9 1.3 3.6 1.5-.2.2-.4.5-.6.9-1.9-.3-3.2-1.1-3.8-2.3-.5 1.1-1.8 2-3.9 2.4-.2-.3-.4-.5-.6-.8 1.9-.4 3.1-.9 3.6-1.7h-3.2v-.7h3.5c.1-.2.1-.5.2-.8h-3.3v-.7h3.4c0-.2 0-.5 0-.8h-2.4v.3h-.8v-2.6h3.3v-.9h-1.2v.3h-.8v-1.8h-1.8v-.7h1.8v-.9h.8v.9h3.2zm-4.4 5.5h2.4c1-.3 0-.6 0-.9h-2.4zm1.2-3.1h3.2v-.8h-3.2zm4.4 2.2h-2.4v.9h2.5v-.9z" fill="#fafafb"/><path d="m389.2 385.8h.9v1.5h1.9v-1.5h.9v1.5h2.7v6h1.1v.9h-11.3v-.9h1.1v-6h2.7zm.2 8.7.5.8c-1.2.6-2.5 1.3-4 1.9-.2-.3-.3-.6-.6-.8 1.6-.6 3-1.3 4.1-1.9zm-2-4.3h1.9v-2.1h-1.9zm0 3.1h1.9v-2.2h-1.9zm2.7-3.1h1.9v-2.1h-1.9zm0 3.1h1.9v-2.2h-1.9zm2.4 1.3c1.4.6 2.7 1.2 4.1 1.8l-.5.9c-1.5-.7-2.8-1.4-4.1-1.9zm2.2-6.5h-1.9v2.1h1.9zm-1.9 5.2h1.9v-2.2h-1.9z" fill="#fafafb"/><g fill="#010100"><path d="m307.52 355.25c-1.64-8.86-7.83-12.39-14.42-15.08-4.63-1.89-9.61-3.52-14.55-3.94-5.08-.44-6.07-2.74-5.56-6.97.1-.82.01-1.66.01-3.51 3.89.43 7.54 1.11 11.19 1.18 8.5.17 17 .21 25.5 0 5.1-.13 8.26-3.25 8.28-7.89.06-20.5.01-41-.02-61.5 0-.27-.24-.54-.74-1.61-2.79 2.91-5.24 5.78-8 8.29-9.39 8.55-19.03 16.84-28.25 25.57-1.76 1.67-1.92 4.98-3.01 7.44-.87 1.97-2.04 3.8-3.08 5.69-1.96-1.14-4.65-1.81-5.76-3.51-4.36-6.65-8.22-13.63-12.32-20.59 19.97-8.93 37.99-19.95 55.65-31.65 4.03-2.67 5.77-5.45 5.7-10.53-.33-24.83-.15-49.66-.15-74.49 0-1.82 0-3.63 0-5.85-1.66-.11-3.09-.29-4.52-.3-17.33-.02-34.67-.21-51.99.15-3.53.07-7.29 1.76-10.39 3.63-1.4.85-2.01 3.96-2.02 6.04-.1 54.66-.16 109.33-.03 163.99.04 14.36-7.55 22.12-22.05 24.19-2.4.34-4.79.82-7.49 1.28-.83-8.89-6.22-13.22-13.86-15.25-6.29-1.67-12.65-3.09-19.35-4.71 0-2.65 0-5.73 0-9.38 4.76.68 9.37 1.7 14.01 1.91 7.32.33 14.68.44 21.98-.03 3.48-.22 6.69-2.26 6.69-6.59.04-21.14.02-42.28.02-64.25-1.36 1.13-2.19 1.77-2.96 2.48-14.08 12.74-28.2 25.45-42.16 38.32-1.43 1.32-2.13 3.57-2.79 5.51-.41 1.2.27 2.77-.17 3.94-.75 2-1.99 3.81-3.03 5.7-1.95-1.26-4.67-2.08-5.69-3.88-2.81-4.91-4.76-10.31-7.36-15.35-.78-1.51-2.59-3.53-3.95-3.55-16.12-.25-32.24-.16-48.73-.16v66.62c-6.75 0-13.13 0-20.08 0 0-22.04 0-44.1 0-66.63-10.5 0-20.45 0-30.4 0-6.33 0-12.67 0-19 0-8.16 0-8.16 0-10.47-8.96h59.55c0-14.75 0-29.02 0-43.66-6.66 0-13.38 0-20.66 0v14.37c-6.81 0-13.08 0-19.71 0 0-44.41 0-88.82 0-134.11 12.32 7.81 24.76 14.83 40.29 10.49 0-11.8 0-24.19 0-37.13-7.51 0-14.95 0-22.39 0-8.33 0-16.67 0-25 0-8.87 0-8.87 0-10.71-9.06h58.25c0-15.6 0-30.87 0-47.56 9.37 1.05 18.26 1.84 27.09 3.14 3.18.47 7.57.72 7.96 5.13.4 4.58-4.17 5.59-7.12 6.2-7.43 1.53-8.39 6-7.85 12.46.55 6.61.12 13.3.12 20.67 9.64 0 19.07.19 28.47-.19 1.57-.06 3.29-2.39 4.52-4 4.15-5.46 8.11-11.06 12.51-17.1 6.63 8.15 13 15.99 19.35 23.8-1.58 5.38-4.92 6.84-10.5 6.68-16.34-.45-32.68-.15-49.01-.15-1.62 0-3.24 0-5.11 0v37.98c6.4 0 12.91.58 19.21-.3 2.4-.33 4.48-3.88 6.46-6.18 2.24-2.59 4.2-5.41 6.93-8.98 5.41 5.69 10.81 11.11 15.89 16.81 3.71 4.16 3.39 7.21-1.53 9.76-5.11 2.65-6.4 6.18-6.35 11.75.29 30.66.14 61.33.14 91.99v5.81c-6.3 0-12.36 0-18.79 0 0-3.95 0-7.89 0-12.24-7.41 0-14.46 0-21.87 0v43.58c10.01 0 19.96.18 29.89-.18 1.63-.06 3.45-2.22 4.7-3.79 4.17-5.25 8.11-10.67 12.56-16.57 5.89 6.71 11.42 13.01 17.49 19.92 13.36-8.98 26.74-17.98 40.12-26.97.14-.09.22-.28.36-.34 11.01-4.55 12.12-13.31 11.76-24-.74-22.31-.23-44.66-.23-66.99 0-1.81 0-3.62 0-6.07-6.08 0-11.84 0-17.61 0-9.17 0-18.34-.2-27.49.12-2.74.1-5.71 1.2-8.09 2.64-4.99 3.01-9.66 6.55-14.77 10.09-1.75-2.23-3.55-4.51-5.58-7.1 3.01-2.54 5.83-4.57 8.23-7.01 10.3-10.47 21.24-20.44 30.47-31.79 9.22-11.34 17.56-23.63 24.68-36.39 8.88-15.91 16.24-32.67 23.99-49.19 1.89-4.03 3.31-6.48 8.56-4.56 6.21 2.28 12.93 3.15 19.22 5.24 2.41.8 4.27 3.28 6.38 5-2.22 1.94-4.26 4.16-6.73 5.71-1.56.98-3.75.95-5.86 1.43 29.59 37.09 64.9 67.19 105.88 89.56-5.22 6.09-10.27 11.97-15.52 18.09-2.43-1.62-5.26-3.52-8.1-5.41-1.02 1.14-1.83 2.86-3.13 3.38-5.82 2.32-5.6 6.99-5.59 12.06.1 53-.12 106 .17 158.99.09 15.65-9.91 25.76-24.23 27.17-2.06.22-4.08.79-6.35 1.23zm-48.88-297.43c-17.01 34.59-38.5 64.3-68.47 89.18 11.65 0 21.74-.3 31.81.14 4.58.2 7.56-1.49 10.15-4.77 2.42-3.08 4.84-6.16 7.86-10 4.4 3.77 8.93 7.2 12.9 11.2 2.57 2.59 5.11 3.55 8.7 3.51 15.98-.18 31.98-.56 47.93.12 8.18.35 13.99-2.02 18.21-9.18-27.11-22.46-49.37-49.42-69.09-80.2zm-125.06 170.08c0-13.86 0-27.69 0-41.56-20.88 0-41.58 0-62.2 0v41.56zm.19-89.55c-21.1 0-41.8 0-62.37 0v38.39h62.37c0-12.85 0-25.44 0-38.39z"/><path d="m170.82 184.11c1.42-1.81 2.62-3.35 4.11-5.26 12.93 7.4 26.05 14.65 34.36 27.95 4.17 6.67 5.93 14.12 4.37 21.62-.61 2.9-4.37 6.37-7.39 7.28-6.24 1.89-9.61.1-11.51-4.49-1.23-2.97-2.04-6.15-2.73-9.3-2.79-12.76-9.45-23.4-17.77-33.18-1.25-1.46-2.31-3.09-3.44-4.62z"/><path d="m301.79 222.75c.34 10.31-5.19 14.23-14.44 13.25-4.13-.43-6.92-2.7-7.27-6.75-1.34-15.51-7.07-28.97-17.63-40.47-.94-1.02-1.15-3.98-.36-5 .98-1.27 3.98-2.54 5.04-1.93 12.73 7.27 25.11 15.12 31.36 29.28 1.62 3.64 2.23 7.73 3.3 11.62z"/></g></svg>