<svg enable-background="new 0 0 400 400" viewBox="0 0 400 400" xmlns="http://www.w3.org/2000/svg"><g fill="#010103"><path d="m114.92 238.67v117.98c-6.59 0-12.98 0-19.86 0 0-34.59 0-69.1 0-104.4-6.89 11.51-12.91 22.48-19.81 32.87-7.4 11.15-15.55 21.79-23.51 32.56-2.24 3.04-5.1 5.62-7.4 8.62-4.18 5.47-4.1 5.53-8.92.62-.46-.47-.89-.98-1.77-1.95 27.26-36.45 47.4-76.56 59.81-120.86-16.99 0-33.88 0-50.97 0-.93-2.99-1.79-5.71-2.83-9.03h55.04c0-15.07 0-29.67 0-45.09-1.76 0-3.67 0-5.58 0-10.16 0-20.33 0-30.49 0-8.39 0-8.39 0-10.01-9.14h46.13c0-13.43 0-26.51 0-39.96-14.19 2.62-28.11 5.18-42.03 7.75-2.24.41-4.46.9-6.71 1.27-4.48.74-3.52-3.46-4.65-5.57-.26-.49 1.59-2.93 2.79-3.24 16.83-4.4 33.72-8.59 50.86-12.9 0-18.28 0-36.07 0-53.91 7.25.59 14.1.98 20.91 1.77 3.36.39 6.73 1.27 9.94 2.4 3.85 1.36 4.58 4.83 1.41 7.6-2.38 2.09-5.38 3.6-8.3 4.91-2.69 1.21-4.16 2.53-4.04 5.83.27 7.61.09 15.24.09 23.92 10.2-4.66 19.7-8.85 29.05-13.38 2.71-1.32 4.89-1.54 7.16.39 4.64 3.94 9.42 7.73 13.75 11.98 1.28 1.25 1.65 3.83 1.6 5.78-.01.54-3.13 1.63-4.67 1.41-13.87-2.01-25.85 5.39-38.85 7.6-2.56.44-5.05 1.23-7.82 1.92v44.56c4.98 0 10.07.12 15.14-.11.96-.04 2.06-1.32 2.75-2.28 4.06-5.71 8.02-11.5 12.4-17.81 6.18 7.31 12.3 14.29 18.07 21.55 1.76 2.22-2.52 7.64-5.88 7.65-13 .04-25.99.02-38.99.02-.99 0-1.98 0-3.34 0v44.98c7.55 0 15.17.3 22.73-.23 1.74-.12 3.47-2.98 4.86-4.83 3.69-4.92 7.19-9.99 11.24-15.67 6.44 7.68 12.64 14.87 18.57 22.27 1.94 2.42-1.63 7.45-5.16 7.46-15.5.04-30.99.02-46.49.02-1.81 0-3.63 0-6.12 0 0 7.52-.11 14.78.12 22.04.03 1 1.57 2.21 2.68 2.86 13.44 7.87 27.11 15.48 37.71 27.22 5.78 6.4 10.34 13.45 9.57 22.87-.51 6.23-2.62 10.32-6.89 10.99-6.75 1.06-10.58-1.21-13.22-7.47-6.49-15.4-15.68-29.04-27.14-41.16-.65-.67-1.38-1.27-2.93-2.68z"/><path d="m168.47 356.63c-1.45-.66-2.78-1.28-4.13-1.87-2.77-1.21-3.53-2.65-2.82-6.11 3.79-18.52 7.45-37.09 10.36-55.77 2.04-13.12 2.98-26.42 4.08-39.67.93-11.18 1.85-22.39 1.96-33.6.52-49.92.75-99.85 1.09-149.78.01-1.15.1-2.29.2-4.26 5.72 2.96 10.94 5.89 16.36 8.38 3.03 1.39 6.37 2.86 9.6 2.91 16.49.29 32.99.13 49.49.13h5.23c0-14.75 0-29.02 0-43.8 11.24-.73 21.9.45 32.19 3.99 3.33 1.14 2.67 4.18.25 5.86-3.72 2.57-7.82 4.59-12.17 7.08v26.88h11.92c11 0 22.01-.31 32.99.15 4.31.18 6.62-1.79 8.79-4.67 3.9-5.2 7.69-10.47 12.23-16.66 6.91 7.88 13.34 15.1 19.63 22.46 1.64 1.92-1.23 7.4-3.89 7.7-1.15.13-2.33.03-3.5.03-50.99 0-101.98 0-152.97 0-1.95 0-3.91 0-6.1 0v37.64h31.54c0-9.62 0-19.22 0-29.15 7.95-1.38 15.31-.13 22.32 2.65 4 1.59 4.29 6.24.34 7.43-8.42 2.54-7.81 8.58-7.46 14.97.07 1.29.01 2.59.01 4.45 4.5 0 8.62.16 12.71-.1 1.16-.08 2.6-1.15 3.31-2.18 2.64-3.86 5.02-7.88 8.03-12.69 3.95 4.65 7.38 8.8 10.96 12.81.86.96 2.24 2.03 3.4 2.06 6.3.2 12.61.1 19.46.1 0-10.36 0-20.43 0-31.78 7.8 1.69 14.9 3.06 21.88 4.88 1.32.35 2.98 2.49 3.01 3.84.02 1.34-1.64 3.71-2.85 3.92-8.95 1.53-8.35 7.96-7.92 14.45.09 1.31.01 2.64.01 4.67 5.96 0 11.72.08 17.48-.09.86-.03 1.84-1.11 2.49-1.93 3.38-4.21 6.68-8.5 10.76-13.72 4.4 6.14 8.64 11.62 12.36 17.43 2.03 3.16-.7 7.31-4.47 7.32-12.64.05-25.29.02-38.48.02v84.72c-4.8 0-9.07 0-13.89 0 0-27.93 0-55.98 0-84.37-19.59 0-38.64 0-58.06 0v84.26c-5.07 0-9.79 0-15.07 0 0-27.95 0-56 0-84.33-10.81 0-21.07 0-32.12 0v5.15c0 15.66.13 31.33-.04 46.99-.13 12.27-.06 24.58-1.1 36.79-1.44 16.81-3.76 33.55-5.85 50.29-2.96 23.7-8.56 46.77-17.06 69.1-1.92 5.01-4.25 9.86-6.49 15.02z"/><path d="m250.72 241c-12.61 0-24.74 0-36.88 0-7.76 0-7.76 0-9.79-8.76 1.81-.08 3.53-.23 5.25-.23 36.32-.01 72.65-.38 108.95.28 7.9.15 11.96-3.6 16.31-8.44 2.19-2.44 4.19-5.06 6.74-8.15 8.14 6.43 15.99 12.64 23.6 18.66-1.05 5.77-4.29 6.83-9.33 6.77-25.32-.28-50.65-.07-75.97-.2-3.15-.02-4.97.86-6.78 3.57-6.78 10.18-13.96 20.1-20.92 30.16-2.09 3.01-.45 4.23 2.51 4.31 4 .11 8 .03 11.99.03 15.83 0 31.69-.61 47.47.25 8.15.45 13.25-2.58 16.93-8.9 2.27-3.9 4.08-4.72 7.76-1.59 4.96 4.23 10.44 7.85 15.53 11.94 3.21 2.58 2.96 6.05-.35 7.83-7.45 4-8.14 10.15-7.9 17.67.48 15.15.14 30.32.14 45.48v5.09c-6.76 0-13.02 0-19.84 0 0-5.07 0-10.13 0-15.47-26.93 0-53.31 0-80.06 0v15.36c-6.75 0-13.13 0-19.91 0 0-18.29 0-36.55 0-55.98-5.75 4.51-10.59 8.52-15.65 12.24-5.26 3.86-10.65 7.56-16.18 11.02-.93.58-3.21-.01-4.23-.84-1.31-1.07-1.97-2.94-3.19-4.91 26.1-21.5 50.01-44.9 63.8-77.19zm-4.49 90.66h79.37c0-14.72 0-29.1 0-43.4-26.64 0-52.89 0-79.37 0z"/><path d="m327 142.37c7.27 1.35 13.83 2.45 20.32 3.89 1.36.3 3.27 1.81 3.4 2.93.14 1.21-1.31 2.85-2.45 3.89-1.03.94-2.52 1.58-3.91 1.87-2.87.59-3.46 2.26-3.41 4.95.15 9.16-.01 18.33.11 27.5.03 2.25.41 4.59 1.11 6.73 1.16 3.56 6.82 4.28 8.66.72 2.1-4.06 3.12-8.75 4.07-13.28.57-2.71.1-5.64.1-8.47 5.7-.03 7.24.82 7.92 7.67.56 5.72.19 11.35 6.13 15.08 2.83 1.78-.97 10.53-5.21 12.09-8.95 3.3-18.3 2.37-27.46 1.67-5.18-.4-7.71-4.96-8.26-9.71-.78-6.88-.98-13.85-1.08-20.78-.16-11.83-.04-23.64-.04-36.75z"/><path d="m208 142.49c5.52 1.12 10.4 1.72 15.03 3.16 4.75 1.48 4.96 4.28 1.83 8.17-1.49 1.85-2.67 4.53-2.73 6.87-.31 12.02.92 24.19-3.17 35.81-2.57 7.32-5.76 14.42-8.66 21.6-8.09-2.99-7.65-2.88-6.04-9.91 1.74-7.62 3.26-15.42 3.59-23.2.56-13.79.15-27.61.15-42.5z"/><path d="m281.3 142.26c5.89 1.5 11.46 2.55 16.74 4.4 3.82 1.34 4.12 4.23.65 6.26-3.51 2.05-3.75 4.75-3.73 8.17.07 11.35 1.24 22.91-3.07 33.75-2.32 5.83-5.86 11.17-8.95 16.68-.79 1.41-1.95 2.6-3.26 4.3-1.79-1.06-3.64-2.17-5.88-3.5 10.8-21.97 6.01-45.59 7.5-70.06z"/><path d="m254.36 142.8c5.65.86 11.03 1.43 16.26 2.61 1.63.37 3.96 2.34 4.04 3.68.09 1.6-1.59 3.72-3.07 4.9-2.44 1.94-3.76 3.8-3.69 7.2.25 13.77.11 27.56.11 41.57-4.75 0-9.02 0-13.64 0-.01-19.73-.01-39.45-.01-59.96z"/></g><path d="m6.44 374.46.42-.45c.65.47 1.27.95 1.85 1.44l-.45.49c-.65-.56-1.25-1.06-1.82-1.48m.93 7.33-.63-.26c.55-1.36 1.05-2.8 1.52-4.33.19.1.38.19.59.27-.46 1.29-.95 2.73-1.48 4.32m-.38-10.38.44-.42c.43.34 1.01.82 1.74 1.44l-.49.49c-.53-.51-1.09-1.01-1.69-1.51m2.5.35h1.72v-1.04h.59v1.04h3.52v-1.04h.59v1.04h1.75v.53h-1.75v1.42h-2.03v.97h3.22v2.03h-3.24c0 .35-.01.66-.03.93h3.32v.53h-3.37c-.03.27-.08.58-.15.94h3.96v.53h-3.71c.67.92 1.93 1.48 3.79 1.68-.13.24-.23.44-.29.59-2.13-.38-3.48-1.08-4.04-2.12-.43.97-1.77 1.72-4.03 2.23-.09-.19-.2-.37-.33-.55 2.1-.42 3.37-1.03 3.81-1.83h-3.36v-.53h3.58c.08-.29.13-.61.16-.94h-3.33v-.53h3.39c.02-.27.04-.58.04-.93h-3.23v-2.03h3.25v-.97h-2.07v-1.42h-1.73zm1.12 3.44v1h2.65c.01-.3.02-.44.01-.4v-.25-.35zm1.19-2h3.52v-.91h-3.52zm4.71 2h-2.63v.59c0 .16-.01.28-.01.4h2.64z" fill="#fcfafa"/><path d="m13.56 383.74h.63v1.52h2.72v6.07h1.13v.6h-11.06v-.6h1.13v-6.07h2.73v-1.52h.63v1.52h2.1v-1.52zm-2.69 8.83.38.56c-1.24.63-2.53 1.25-3.85 1.85-.1-.21-.21-.42-.34-.63 1.36-.55 2.63-1.15 3.81-1.78m-2.13-4.27h2.1v-2.45h-2.1zm0 3.04h2.1v-2.46h-2.1zm2.72-3.04h2.1v-2.45h-2.1zm0 3.04h2.1v-2.46h-2.1zm6.07 3.6c-1.41-.71-2.7-1.3-3.86-1.78l.35-.56c1.45.62 2.75 1.19 3.88 1.72zm-1.25-9.09h-2.1v2.45h2.1zm-2.09 5.49h2.1v-2.46h-2.1z" fill="#fcfafa"/></svg>