<svg enable-background="new 0 0 400 400" viewBox="0 0 400 400" xmlns="http://www.w3.org/2000/svg"><path d="m5.17 384 .55-.58c.85.61 1.65 1.24 2.4 1.87l-.59.64c-.83-.73-1.62-1.38-2.36-1.93m1.22 9.53-.82-.34c.71-1.76 1.37-3.64 1.98-5.63.24.13.5.25.76.36-.6 1.67-1.24 3.54-1.92 5.61m-.5-13.5.57-.54c.56.44 1.31 1.06 2.26 1.87l-.64.64c-.68-.66-1.41-1.32-2.19-1.97m3.25.46h2.24v-1.36h.77v1.36h4.57v-1.36h.76v1.36h2.28v.69h-2.28v1.84h-2.64v1.26h4.18v2.64h-4.21c0 .45-.02.86-.05 1.21h4.32v.69h-4.38c-.04.34-.1.75-.19 1.22h5.15v.69h-4.82c.87 1.19 2.51 1.92 4.93 2.19-.17.31-.3.57-.37.76-2.77-.49-4.52-1.41-5.26-2.76-.56 1.26-2.3 2.23-5.24 2.9-.12-.24-.26-.48-.43-.72 2.73-.55 4.38-1.34 4.96-2.38h-4.38v-.69h4.65c.1-.38.17-.79.21-1.22h-4.32v-.69h4.4c.03-.34.05-.75.05-1.21h-4.2v-2.64h4.23v-1.26h-2.69v-1.84h-2.24zm1.46 4.46v1.29h3.45c.01-.4.02-.57.01-.53v-.32-.45h-3.46zm1.55-2.59h4.57v-1.19h-4.57zm6.11 2.59h-3.42v.77c-.02.19-.01.37-.02.53h3.44z" fill="#fcfafa"/><path d="m32.63 379.16h.82v1.98h3.54v7.89h1.46v.78h-14.37v-.78h1.46v-7.89h3.54v-1.98h.82v1.98h2.73zm-3.49 11.48.5.73c-1.61.82-3.28 1.63-5 2.41-.13-.27-.28-.55-.44-.82 1.75-.72 3.4-1.49 4.94-2.32m-2.78-5.55h2.73v-3.18h-2.73zm0 3.95h2.73v-3.2h-2.73zm3.54-3.95h2.73v-3.18h-2.73zm0 3.95h2.73v-3.2h-2.73zm7.89 4.68c-1.84-.92-3.51-1.7-5.02-2.32l.45-.73c1.89.8 3.57 1.55 5.04 2.23zm-1.62-11.81h-2.73v3.18h2.73zm-2.73 7.13h2.73v-3.2h-2.73z" fill="#fcfafa"/><g fill="#010102"><path d="m146.42 37.16c6.87 8.14 13.33 15.78 19.61 23.21-1.46 5.22-4.32 7.13-9.46 6.75-6.6-.49-13.27-.12-20.43-.12v289.7c-6.9 0-13.28 0-20.03 0 0-27.45 0-54.7 0-82.44-8.93 4.04-17.29 8.03-25.83 11.64-9.9 4.18-19.83 8.33-29.98 11.81-3.43 1.17-4.63 2.98-5.31 5.95-.29 1.26-.57 2.54-1.02 3.75-1.61 4.37-4.88 5.11-7.62 1.28-2.53-3.53-4.56-7.51-6.24-11.54-2.11-5.05-3.63-10.34-5.41-15.56 8.31-1.27 16.06-2.45 24.04-3.67 0-70.25 0-140.31 0-210.92-4.27 0-8.39 0-12.5 0-8.62 0-8.62 0-11.13-9h5.4c28.99 0 57.98-.04 86.97.06 2.89.01 4.73-.59 6.41-3.25 3.66-5.76 7.87-11.16 12.53-17.65zm-30.78 226.76c0-19.87 0-39.27 0-58.67-12.3 0-24.23 0-36.37 0v68.56c12.52-3.41 24.53-6.67 36.37-9.89zm-36.29-128.69v60.37h36.39c0-20.32 0-40.23 0-60.37-12.18 0-24.1 0-36.39 0zm36.56-67.92c-12.46 0-24.5 0-36.56 0v58.3h36.56c0-19.53 0-38.66 0-58.3z"/><path d="m315.23 356c-.84-10.02-8.21-12.68-15.74-14.92-4.35-1.3-8.87-2.75-13.33-2.81-5.35-.08-5.47-2.91-5.18-6.71.07-.97.01-1.96.01-3.35 7.08.72 13.82 1.57 20.59 2.03 6.6.45 13.27.97 19.82.44 2-.16 3.84-3.63 5.5-5.78.48-.63.08-1.94.08-2.94 0-14.8 0-29.61 0-44.33-5.7-2.36-9.28 1.09-12.28 4.3-12.66 13.6-27.73 24.18-42.93 34.55-5.75 3.92-12.28 6.71-18.55 10.07-.05-.04-.4-.2-.57-.46-4.58-7.16-4.5-7.05 2.73-12.25 13.67-9.83 26.19-20.9 36.55-34.28 6.21-8.01 12.56-15.92 19.09-24.19 4.84 3.1 10.12 6.49 15.66 10.04 0-20.01 0-39.88 0-60.42-1.78 0-3.54 0-5.31 0-17.66 0-35.32 0-52.99 0-7.54 0-8.23-.65-9.17-9h33.97c7.5 0 15.08-.68 22.47.19 7.42.87 11.57-2.69 15.29-8.01 1.4-2 3.01-3.85 5.01-6.39 3.75 2.69 7.81 5.27 11.48 8.32 3.25 2.71 6.12 5.88 9.07 8.95 2.4 2.5 2.17 5-.41 7.3-.37.33-.65.88-1.08 1.03-7.85 2.76-8.27 8.79-8.2 16.03.32 35.82.2 71.65.06 107.47-.01 3.67-.72 7.53-1.98 10.98-3.64 10.03-12.53 12.51-21.77 14.08-2.37.41-4.92.06-7.89.06z"/><path d="m212.57 354.87c-3.5-3.11-6.57-7.09-10.61-9.13-5.88-2.98-12.34-5.1-18.78-6.6-7.55-1.76-7.94-1.75-6.61-11.36 6.26.79 12.52 1.83 18.82 2.31 7.24.56 14.56 1.19 21.78.69 4.56-.31 5.87-4.53 5.86-8.91-.04-24.31-.02-48.63-.02-72.94 0-14.45 0-28.91 0-43.93-2.17 0-3.94 0-5.72 0-19.49 0-38.97 0-58.46 0-8.28 0-8.28 0-10.67-9h5.41c21.15 0 42.3-.02 63.45.02 2.88.01 5.12-.12 6.95-3.22 2.3-3.9 5.69-7.15 9.28-11.48 5.94 5.42 12.02 10.64 17.69 16.28 3.36 3.34 3 6.69-1.24 8.91-5.6 2.94-6.88 7.05-6.83 13.06.27 37.14-.14 74.28.26 111.41.18 16.57-11.4 23.7-24.9 24.98-2.14.2-4.31.03-6.47.03.27-.37.54-.74.81-1.12z"/><path d="m167.82 155c10.58 0 19.72-.09 28.85.05 3.11.05 4.92-.91 6.76-3.68 11.78-17.77 20.85-36.86 28.56-56.66.58-1.48 1.21-2.94 2.03-4.91 7.84 2.93 15.26 5.65 22.63 8.52 1.65.64 3.25 1.64 4.59 2.8 2.92 2.51 2.16 6.07-1.67 7.55-1.95.75-4.18.75-6.19 1.38-1.82.57-4.09 1.07-5.17 2.4-11.44 14.11-22.69 28.39-33.14 41.55 13.1 0 27.63.31 42.14-.1 11.34-.32 22.66-1.52 33.99-2.32.54-.5 1.08-1 1.62-1.5-8.37-8.9-16.75-17.8-25.12-26.7-.86.7-1.72 1.4-2.58 2.1 1.47-2.08 2.95-4.16 4.57-6.45 17.14 7.64 34.07 15.82 47.71 29.08 6.43 6.25 10.85 13.93 9.71 23.75-.49 4.18-2.18 7.82-5.83 8.74-3.98 1-8.84 1.73-12-2.78-2.06-2.94-4.52-5.66-6.19-8.81-4.71-8.89-4.71-8.69-14.57-6.89-9.49 1.73-19.12 2.67-28.7 3.87-10.89 1.36-21.79 2.66-32.7 3.91-4.25.49-8.52.82-12.8 1.08-6.76.41-13.53.65-20.3 1.04-3.52.2-6.45.89-7.82 5.08-.75 2.28-3.19 5.24-5.17 5.49-1.68.21-4.69-2.68-5.54-4.82-2.85-7.16-4.98-14.59-7.67-22.77z"/><path d="m220.9 48c14.1 0 27.81-.86 41.34.3 9.18.79 13.86-3.86 18.63-9.84 1.42-1.78 2.83-3.58 4.63-5.86 6.25 5.35 12.32 10.31 18.12 15.57 3.85 3.49 3.56 5.66-.73 8.41-3 1.93-6.19 3.59-9.7 5.6 8.31 13.58 19.02 25.09 32.12 33.6 12.99 8.43 27.26 14.9 40.46 21.95-4.29 5.3-9.16 11.3-14.57 17.98-6.54-4.12-14.43-8.35-21.48-13.69-15.58-11.79-28.76-25.99-39.48-42.35-3.48-5.31-6.6-10.87-9.54-16.5-2.23-4.27-4.7-6.59-10.17-6.35-12.46.56-24.96.18-37.45.18-8.53 0-8.53 0-12.18-9z"/><path d="m148.77 139.04c-4.81-7.06-5.04-7.33 2.14-13.35 14.24-11.94 25.45-26.41 35.57-41.77 4.28-6.5 7.74-13.55 12.13-21.34 7.65 3.55 15.48 6.92 22.99 10.9 1.7.9 3.01 3.92 3.07 6.01.03 1.1-3.08 3.39-4.63 3.27-9.41-.69-13.04 6.89-18.39 12.08-9.69 9.38-19.13 19.07-29.31 27.88-6.73 5.83-14.57 10.37-21.92 15.47-.51.36-1.11.58-1.65.85z"/><path d="m140.31 314.98c23.8-15.41 43.78-34.86 60.37-59.03 6.39 5.06 12.38 9.55 18.01 14.44 1.34 1.16 1.97 3.66 2 5.56.01.67-2.79 2.06-4.23 1.96-9.34-.63-13.71 7.04-19.47 11.86-12.85 10.74-26.28 20.48-41.12 28.25-.58.3-1.15.63-1.73.95-8.53 4.8-8.53 4.8-13.83-3.99z"/><path d="m302.64 209.99c6.37 4.64 12.3 8.64 17.8 13.16 1.48 1.22 2.36 4.06 2.19 6.05-.09 1.04-3.24 2.86-4.66 2.58-8.75-1.73-12.7 5.37-17.71 9.72-11.78 10.23-24.31 19.23-37.93 26.78-2.83 1.57-5.64 3.2-8.73 4.96-1.82-2.28-3.53-4.44-5.69-7.14 21.24-15.34 39.47-33.78 54.73-56.11z"/><path d="m148.22 272.1c-2.15-3.1-4-5.78-5.24-7.58 12.19-11.18 24.51-22.01 36.24-33.46 5.23-5.1 9.4-11.32 13.75-17.25 1.75-2.39 3.05-2.84 5.41-1 5.15 4 10.56 7.69 15.58 11.85 1.24 1.03 2.02 3.52 1.74 5.11-.17.97-2.76 2.05-4.3 2.13-6.85.33-11.78 3.43-17.15 7.87-12.03 9.96-25.24 18.5-38.02 27.54-2.41 1.69-5.05 3.03-8.01 4.79z"/></g></svg>