<svg enable-background="new 0 0 400 400" viewBox="0 0 400 400" xmlns="http://www.w3.org/2000/svg"><path d="m79.33 323.75c11.84.43 23.37.95 34.89 1.21 7.72.18 10.77-2.96 10.77-10.5 0-28.16 0-56.32 0-84.48 0-1.8 0-3.6 0-5.69-13.98 0-27.58 0-41.57 0-3.25 46.67-11.95 91.94-39.18 131.8-1.5-.76-2.84-1.36-4.1-2.09s-2.45-1.6-3.9-2.56c11.17-22.62 16.99-46.96 21.54-71.59 2.17-11.74 3.06-23.74 4.16-35.65 4.07-43.8 1.31-87.72 1.98-131.58.35-20.98.08-41.98.08-62.97 0-1.78 0-3.55 0-6.08 5.77 2.86 11.09 5.01 15.86 8.03 3.65 2.32 7.18 3.57 11.5 3.46 8.66-.22 17.34-.35 25.99.06 4.24.2 7.09-1.09 9.46-4.39 2.85-3.96 5.89-7.79 9.64-12.72 6.08 6.04 11.98 11.86 17.84 17.72 3.15 3.15 2 5.89-.92 8.41-.25.22-.44.58-.72.68-8.3 2.87-7.74 9.58-7.73 16.55.12 81.98.04 163.97.11 245.95.01 14.08-8.86 21.85-21.26 24.67-.95.22-1.91.36-2.85.59-6.25 1.56-8.18.64-10.21-5.33-1.96-5.79-6.71-8.3-11.86-10.15-4.27-1.53-8.72-2.58-13.12-3.74-7.19-1.9-7.2-1.86-6.4-9.61zm45.45-182.39c-13.77 0-27.15 0-40.39 0v73.37h40.39c0-24.52 0-48.77 0-73.37zm-40.36-77.25v67.55h40.21c0-22.71 0-45.08 0-67.55-13.52 0-26.66 0-40.21 0z" fill="#010103"/><path d="m177.05 148.92c-7.68 8.39-15.35 16.78-23.28 25.45-2.24-2.52-4.1-4.61-6.37-7.16 5.98-8.39 12.87-16.85 18.43-26.11 10.23-17.05 19.91-34.5 26.09-53.52 5.02-15.45 9.51-31.07 14.11-46.65 1.77-6 2.24-6.76 8.33-4.81 7.85 2.51 15.6 5.47 23.13 8.83 3.86 1.73 3.66 5.2-.2 7.11-2.86 1.42-6.19 1.86-9.2 3-1.17.44-2.6 1.42-3 2.49-4.2 11.27-8.21 22.62-12.45 34.44h4.72c36.16 0 72.32-.02 108.47.04 3.13.01 5.4-.3 7.35-3.46 2.89-4.7 6.71-8.83 10.56-13.75 6.07 5.53 12.23 10.93 18.12 16.6 4.77 4.59 4.66 8.31-1.16 11.13-6.68 3.24-7.98 7.81-7.87 14.78.43 29.32.28 58.65.14 87.97-.07 13.6-.38 27.21-1.02 40.79-.72 15.15-1.33 30.34-3.13 45.38-1.5 12.54-1.83 25.47-8.01 37.09-6.88 12.93-17.57 20.27-31.96 22.44-2.73.41-5.43.99-8.43 1.55-2.34-10.67-10.68-14.37-20.06-16.56-9.19-2.15-18.43-4.11-27.7-5.93-7.29-1.43-7.31-1.28-6.12-10.35 5.79.59 11.61 1.54 17.45 1.69 15.31.38 30.69 1.25 45.92.25 8.42-.55 14.59-6.93 15.97-15.75 1.82-11.64 3.44-23.38 3.98-35.13 1.12-24.18 1.7-48.38 2.09-72.59.51-32.09.62-64.18.89-96.27 0-.13-.18-.26-.69-.93-1.2 0-2.81 0-4.42 0-38.32 0-76.65.04-114.97-.07-3.55-.01-5.87.82-7.44 4.23-7.36 15.99-17.58 30.15-28.42 43.9z" fill="#010103"/><path d="m176.91 149.06c7.61.99 15.24 1.81 22.8 3.11 1.56.27 3.66 2.15 3.96 3.61.27 1.32-1.23 3.55-2.57 4.54-3.18 2.35-4.24 5.02-4.21 9.07.21 31.16.12 62.33.12 93.5v5.78h84.98c0-39.8 0-79.53 0-120.36 9.49 1.5 18.35 2.7 27.1 4.45 1.83.36 4.16 2.55 4.56 4.28.3 1.32-1.8 4.21-3.39 4.74-9.03 2.99-9.5 9.56-9.42 17.73.38 38.16.17 76.33.17 114.5v5.7c-6.42 0-12.47 0-18.9 0 0-7.13 0-14.07 0-21.35-28.42 0-56.48 0-84.9 0v29.25c-6.75 0-13.13 0-20.14 0 0-52.83 0-105.76 0-158.68-.02-.01-.16.13-.16.13z" fill="#010103"/><path d="m245.49 201.85c-9.05 21.8-21.09 40.86-37.22 57.39-2.27-1.72-4.21-3.18-6.52-4.94 1.8-2.92 3.38-5.91 5.35-8.63 12.53-17.25 20.28-36.75 26.76-56.83.41-1.28-.25-3.45-1.19-4.53-7.93-9.09-16.05-18.03-24.26-27.17 1.23-1.57 2.7-3.45 4.32-5.53 8.64 6.66 16.91 13.03 26.1 20.1 2.54-18.58 4.97-36.43 7.54-55.21 8.72 3.4 17.18 6.54 25.47 10.07 1.41.6 2.82 2.86 2.9 4.43.06 1.18-1.97 2.49-3.11 3.7-.2.21-.6.32-.91.34-6.79.55-8.24 5.13-9.39 10.96-2.35 11.96-5.63 23.74-8.25 35.66-.35 1.6.44 3.86 1.46 5.27 5.83 8.08 12.21 15.78 17.7 24.07 1.93 2.91 2.37 7.08 2.64 10.74.43 5.81-1.98 9.61-5.59 10.24-5.61.98-9.68-1.44-12.27-6.87-3.64-7.62-7.49-15.14-11.53-23.26z" fill="#010103"/><g fill="#fbfcfa"><path d="m346.9 398 5.4-7.3h-5.2v-.6h5.9v.6l-5.4 7.2h5.5l-.1.6h-6.2v-.5z"/><path d="m354.7 390.1h2.8c2.3 0 3.9 1.6 3.9 4.1s-1.6 4.3-3.9 4.3h-2.8zm.6 7.8h2c2.2 0 3.3-1.6 3.3-3.6 0-1.8-1-3.6-3.3-3.6h-2z"/><path d="m363.9 390.1v8.4h-.6v-8.4h1.6z"/><path d="m372.5 396.3c-.4 1.3-1.4 2.3-3.2 2.3-2.4 0-3.7-1.9-3.7-4.3 0-2.3 1.2-4.3 3.7-4.3 1.8 0 2.9 1 3.2 2.4h-.6c-.4-1.1-1.1-1.8-2.5-1.8-2.1 0-3 1.9-3 3.7s.9 3.7 3 3.7c1.4 0 2.1-.7 2.5-1.7z"/><path d="m373.8 398.5v-1.5h.6v1.5z"/><path d="m376.2 398.5v-8.4h1c1.3 2 4.4 6.7 4.9 7.6-.1-1.2-.1-2.4-.1-3.8v-3.8h.7v8.4h-.9c-1.2-1.9-4.4-6.8-5-7.7.1 1.1 0 2.3 0 3.9v3.9h-.6z"/><path d="m390 394.4h-4.3v3.5h4.7l-.1.6h-5.2v-8.4h5.1v.6h-4.5v3.1h4.3z"/><path d="m394.2 390.7h-2.8v-.6h6.3v.6h-2.8v7.8h-.7z"/></g></svg>