<svg enable-background="new 0 0 400 400" viewBox="0 0 400 400" xmlns="http://www.w3.org/2000/svg"><path d="m208.9 167.3v56.38c-6.62 0-13 0-19.78 0 0-15.72 0-31.31 0-48.32-43.09 36.56-92.47 58.07-145.35 72.81-1.59-2.7-3.07-5.2-4.57-7.73 60.61-20.6 103.24-46.96 134.02-77.44-2.47 0-4.18 0-5.88 0-36.83 0-73.66 0-110.49 0-8.28 0-8.28 0-10.7-8.91h142.55c0-9.54 0-18.6 0-28.08-6.29.36-12.34.6-18.38 1.06-7.21.55-14.4 1.44-21.61 1.88-8.59.52-17.2.64-25.8 1.08-15.02.77-30.04 1.65-45.24 2.49-1.31-3.01-2.4-5.51-3.72-8.56 6.72-.68 13.03-1.47 19.36-1.93 10.86-.79 21.76-1.1 32.59-2.11 14.86-1.39 29.68-3.18 44.5-4.91 13.83-1.61 27.72-2.9 41.45-5.14 18.34-2.99 36.56-6.73 54.81-10.24 3.51-.67 6.95-2.4 10.41-2.38 2.84.02 5.94 1.48 8.45 3.05 5.67 3.53 11.17 7.38 16.48 11.43 1.15.88 1.23 3.17 1.81 4.81-1.49.48-2.99 1.39-4.47 1.35-4.94-.12-9.89-1.04-14.8-.81-7.37.34-14.71 1.33-22.05 2.16-7.49.84-14.94 1.98-22.44 2.7-10.15.96-20.32 1.64-30.77 2.46v29.58h5.11c30.33 0 60.68-.55 90.98.33 9.18.27 13.79-4.03 18.56-9.99 3.06-3.82 6.17-7.59 10.48-12.87 8.15 8.4 15.84 16.33 22.85 23.56-1.94 7.31-5.79 8.13-11.13 8.1-41.99-.23-83.98-.13-127.38-.13 44.82 28.27 93.04 42.85 144.41 49.83-3.31 3.9-6.16 6.88-8.55 10.19-2.38 3.29-4.29 6.91-6.52 10.57-50.63-12.28-97.72-31.86-139.19-66.27z" fill="#010103"/><path d="m300.24 280c-4.81 0-9.1 0-13.4 0-13.33 0-26.66.24-39.98-.14-4.48-.13-6.89 1.4-8.92 5.11-5.15 9.43-5.26 9.35-15.74 6.66-2.83-.73-5.69-1.39-8.21-2 6.79-15.06 13.72-30.41 21.04-46.63-7.5 0-13.62 0-19.74 0-11.5 0-22.99.07-34.49-.05-3.2-.03-4.44.73-4.98 4.33-1.92 12.73-4.61 25.38-10.57 36.93-4.24 8.21-8.25 16.92-14.23 23.77-8.26 9.48-17.52 18.46-27.7 25.8-19.66 14.18-42.49 21.59-65.93 26.99-1.14.26-3.05-1.03-4-2.12-1.25-1.43-1.91-3.39-2.89-5.26 54.2-17.89 95.18-48.38 103.38-110.21-18.81 0-37.56 0-56.27 0-1.1-3.13-2.06-5.86-3.23-9.18h5.44c42.15 0 84.31-.23 126.45.24 6.75.07 10.41-3 14.16-7.23 1.96-2.2 3.71-4.59 5.93-7.36 5.68 5.06 11.19 9.69 16.36 14.65 5.24 5.03 4.59 8.94-2.28 10.53-8.65 2.01-8.61 9.6-11.34 15.43-1.5 3.21-2.31 6.75-3.63 10.74h20.83 11c6.66 0 13.93 1.65 19.82-.48 5.65-2.04 9.89-8 15.3-12.73 5.14 4.86 10.7 9.76 15.8 15.09 3.2 3.35 2.62 6.56-1.69 8.08-5.99 2.12-7.71 6.27-8.55 11.98-1.26 8.52-2.57 17.15-5.14 25.34-3.78 12.03-8.61 24.13-19.95 31-5.89 3.57-13.33 4.62-20.11 6.68-1.66.5-3.46.5-5.46.77-.49-11.68-9.98-13.51-18.32-15.48-10.95-2.57-22.21-3.81-33.67-5.68 0-2.86 0-5.94 0-9.53 6.34.85 12.56 1.91 18.81 2.48 14.58 1.33 29.17 3.48 43.72-.43 5.82-1.56 9.58-5.71 12.14-10.59 5.09-9.74 8.02-20.25 9.05-31.24.16-1.9.7-3.77 1.19-6.26z" fill="#010103"/><path d="m237.12 64.64c0-10.63 0-20.9 0-32.47 9.91.99 19.37 1.73 28.75 3.03 1.85.26 4.5 2.47 4.78 4.12.27 1.6-2.01 3.65-3.2 5.49-.07.11-.29.14-.45.17-12.06 2.05-10.65 10.81-9.62 19.73 1.37.09 2.81.26 4.25.26 17.99.02 35.99-.09 53.98.1 3.24.03 5.38-1.04 7.15-3.46 4.53-6.18 9.05-12.37 13.72-18.75 5.59 5.37 11.06 10.57 16.45 15.85 1.28 1.25 2.57 2.62 3.39 4.18 1.09 2.06 2.68 4.51 2.36 6.52-.55 3.45-3.09 4.74-7.11 4.71-29.5-.24-58.99-.12-88.48-.12-1.81 0-3.62 0-5.98 0v18.73c-6.81 0-13.07 0-19.89 0 0-5.96 0-12.03 0-18.4-25.59 0-50.64 0-76.06 0v28.29c-6.74 0-13.13 0-20.07 0 0-9.32 0-18.71 0-28.61-2.32 0-4.1 0-5.88 0-26.66 0-53.31 0-79.97 0-8.3 0-8.3 0-11.05-9h96.67c0-10.73 0-21 0-31.65 10.88-1 21.28-.42 31.35 2.93 1.61.53 3.3 3.02 3.51 4.78.15 1.24-2.06 2.85-3.37 4.14-.68.66-1.65 1.23-2.57 1.4-8.56 1.59-9.96 7.38-8.81 14.75.15.96.02 1.96.02 3.3 25.31-.02 50.36-.02 76.13-.02z" fill="#010103"/><g fill="#fbfcfa"><path d="m346.9 398 5.4-7.3h-5.2v-.6h5.9v.6l-5.4 7.2h5.5l-.1.6h-6.2v-.5z"/><path d="m354.7 390.1h2.8c2.3 0 3.9 1.6 3.9 4.1s-1.6 4.3-3.9 4.3h-2.8zm.6 7.8h2c2.2 0 3.3-1.6 3.3-3.6 0-1.8-1-3.6-3.3-3.6h-2z"/><path d="m363.9 390.1v8.4h-.6v-8.4h1.6z"/><path d="m372.5 396.3c-.4 1.3-1.4 2.3-3.2 2.3-2.4 0-3.7-1.9-3.7-4.3 0-2.3 1.2-4.3 3.7-4.3 1.8 0 2.9 1 3.2 2.4h-.6c-.4-1.1-1.1-1.8-2.5-1.8-2.1 0-3 1.9-3 3.7s.9 3.7 3 3.7c1.4 0 2.1-.7 2.5-1.7z"/><path d="m373.8 398.5v-1.5h.6v1.5z"/><path d="m376.2 398.5v-8.4h1c1.3 2 4.4 6.7 4.9 7.6-.1-1.2-.1-2.4-.1-3.8v-3.8h.7v8.4h-.9c-1.2-1.9-4.4-6.8-5-7.7.1 1.1 0 2.3 0 3.9v3.9h-.6z"/><path d="m390 394.4h-4.3v3.5h4.7l-.1.6h-5.2v-8.4h5.1v.6h-4.5v3.1h4.3z"/><path d="m394.2 390.7h-2.8v-.6h6.3v.6h-2.8v7.8h-.7z"/></g></svg>