<svg enable-background="new 0 0 400 400" viewBox="0 0 400 400" xmlns="http://www.w3.org/2000/svg"><g fill="#010103"><path d="m119.66 155.04c-20.89 0-41.36 0-62.15 0-1.4-2.91-2.79-5.78-4.35-9.03h66.6c0-10.22 0-20.28 0-31.14 10.42 1.06 20.42.59 29.64 5 4.78 2.29 4.91 5.39.68 8.52-.52.38-1.17.57-1.74.88-9.17 4.96-9.16 4.96-7.94 16.43h116.48c0-10.43 0-20.69 0-31.91 6.24.54 12.09.74 17.83 1.65 4.44.71 8.92 1.88 13.04 3.64 4.43 1.89 4.55 4.9.72 7.87-1.65 1.28-3.6 2.55-5.59 2.98-5.28 1.12-6.61 4.32-5.93 9.19.29 2.09.05 4.25.05 6.87 10.72 0 21 .14 31.28-.17 1.39-.04 2.88-2.25 4.03-3.68 4.52-5.6 8.92-11.29 13.97-17.73 7.22 7.96 14.37 15.84 21.27 23.45-1.01 6.3-4.57 7.42-10.13 7.3-18.15-.39-36.32-.15-54.48-.15-1.8 0-3.6 0-5.66 0v118h6.61c10 0 20 .19 29.99-.15 2.28-.08 5.12-1.43 6.62-3.15 5.59-6.38 10.73-13.15 15.97-19.69 6.28 6.02 12.39 11.82 18.44 17.7 1.16 1.13 2.21 2.44 3.05 3.82 1.02 1.66 2.96 4.16 2.42 5.11-1.42 2.48-2.19 5.54-6.85 5.53-101.31-.23-202.62-.25-303.93-.01-6.85.02-6.12-5.57-9.7-9.02h79.74c.02-39.48.02-78.53.02-118.11zm20.57 117.61h116.37c0-12.4 0-24.45 0-36.39-38.98 0-77.56 0-116.37 0zm116.55-77.29c-39.13 0-77.82 0-116.37 0v31.38h116.37c0-10.53 0-20.8 0-31.38zm0-40c-39.13 0-77.83 0-116.54 0v30.37h116.54c0-10.2 0-20.12 0-30.37z"/><path d="m158.89 77.36v30.4c-6.63 0-12.9 0-19.71 0 0-10.04 0-20.1 0-30.53-31.13 0-61.71 0-92.53 0-1.16-3.08-2.22-5.91-3.46-9.21h95.72c0-11.72 0-23.11 0-34.77 10.6-.84 20.5.26 30.18 2.89 4.96 1.35 5.6 5.65 1.39 8.77-2.6 1.92-5.8 3.01-8.54 4.76-1.21.77-2.71 2.19-2.79 3.41-.32 4.77-.13 9.58-.13 14.65h77.74c0-11.26 0-22.65 0-34.52 10.72-.56 20.79-.17 30.43 3.52 4.92 1.88 5.3 5.41 1.06 8.43-2.23 1.59-4.79 3.08-7.41 3.68-3.39.78-3.99 2.59-3.87 5.59.18 4.3.05 8.61.05 13.58h5.59c15.83 0 31.67-.45 47.47.21 6.88.29 11-2.25 14.66-7.43 3.37-4.78 7.23-9.23 11.38-14.46 7.83 8.26 15.41 16.27 22.89 24.16-1.41 5.02-4.2 6.7-9.35 6.65-28.84-.29-57.66-.14-86.48-.14-1.82 0-3.64 0-6 0v30.7c-6.93 0-13.31 0-20.07 0 0-10.11 0-20.05 0-30.34-26.08 0-51.79 0-78.22 0z"/><path d="m44.88 350.21c16.39-6.88 32.74-13.34 48.75-20.56 19.62-8.86 37.26-20.91 53.43-35.12.98-.86 3-1.78 3.88-1.34 8.28 4.11 16.49 8.38 24.51 12.96 1.33.76 2.62 3.54 2.22 4.85-.41 1.34-2.84 2.54-4.57 2.89-3.52.7-7.34.21-10.71 1.26-4.59 1.43-9.08 3.48-13.24 5.9-18.24 10.66-37.57 18.8-57.73 24.91-12.91 3.91-25.98 7.29-38.98 10.92-3.88 1.08-4.2-2.91-6.25-4.42-.84-.63-1.15-1.95-1.31-2.25z"/><path d="m222.81 302.72c5.2-8.8 3.24-8.16 16.76-5.31 19.07 4.03 38.1 8.42 56.83 13.79 14.85 4.26 29.22 10.22 42.14 19.02 4.75 3.24 7.71 11.09 6.31 16.09-1.96 7.02-11.28 9.13-18.9 4.07-15.11-10.03-30.35-19.96-47.16-26.84-17.43-7.13-35.34-13.07-53.04-19.54-.88-.31-1.73-.74-2.94-1.28z"/></g><path d="m6.44 374.46.42-.45c.65.47 1.27.95 1.85 1.44l-.45.49c-.65-.56-1.25-1.06-1.82-1.48m.93 7.33-.63-.26c.55-1.36 1.05-2.8 1.52-4.33.19.1.38.19.59.27-.46 1.29-.95 2.73-1.48 4.32m-.38-10.38.44-.42c.43.34 1.01.82 1.74 1.44l-.49.49c-.53-.51-1.09-1.01-1.69-1.51m2.5.35h1.72v-1.04h.59v1.04h3.52v-1.04h.59v1.04h1.75v.53h-1.75v1.42h-2.03v.97h3.22v2.03h-3.24c0 .35-.01.66-.03.93h3.32v.53h-3.37c-.03.27-.08.58-.15.94h3.96v.53h-3.71c.67.92 1.93 1.48 3.79 1.68-.13.24-.23.44-.29.59-2.13-.38-3.48-1.08-4.04-2.12-.43.97-1.77 1.72-4.03 2.23-.09-.19-.2-.37-.33-.55 2.1-.42 3.37-1.03 3.81-1.83h-3.36v-.53h3.58c.08-.29.13-.61.16-.94h-3.33v-.53h3.39c.02-.27.04-.58.04-.93h-3.23v-2.03h3.25v-.97h-2.07v-1.42h-1.73zm1.12 3.44v1h2.65c.01-.3.02-.44.01-.4v-.25-.35zm1.19-2h3.52v-.91h-3.52zm4.71 2h-2.63v.59c0 .16-.01.28-.01.4h2.64z" fill="#fcfafa"/><path d="m13.56 383.74h.63v1.52h2.72v6.07h1.13v.6h-11.06v-.6h1.13v-6.07h2.73v-1.52h.63v1.52h2.1v-1.52zm-2.69 8.83.38.56c-1.24.63-2.53 1.25-3.85 1.85-.1-.21-.21-.42-.34-.63 1.36-.55 2.63-1.15 3.81-1.78m-2.13-4.27h2.1v-2.45h-2.1zm0 3.04h2.1v-2.46h-2.1zm2.72-3.04h2.1v-2.45h-2.1zm0 3.04h2.1v-2.46h-2.1zm6.07 3.6c-1.41-.71-2.7-1.3-3.86-1.78l.35-.56c1.45.62 2.75 1.19 3.88 1.72zm-1.25-9.09h-2.1v2.45h2.1zm-2.09 5.49h2.1v-2.46h-2.1z" fill="#fcfafa"/></svg>