<svg enable-background="new 0 0 400 400" viewBox="0 0 400 400" xmlns="http://www.w3.org/2000/svg"><path d="m5.17 384 .55-.58c.85.61 1.65 1.24 2.4 1.87l-.59.64c-.83-.73-1.62-1.38-2.36-1.93m1.22 9.53-.82-.34c.71-1.76 1.37-3.64 1.98-5.63.24.13.5.25.76.36-.6 1.67-1.24 3.54-1.92 5.61m-.5-13.5.57-.54c.56.44 1.31 1.06 2.26 1.87l-.64.64c-.68-.66-1.41-1.32-2.19-1.97m3.25.46h2.24v-1.36h.77v1.36h4.57v-1.36h.76v1.36h2.28v.69h-2.28v1.84h-2.64v1.26h4.18v2.64h-4.21c0 .45-.02.86-.05 1.21h4.32v.69h-4.38c-.04.34-.1.75-.19 1.22h5.15v.69h-4.82c.87 1.19 2.51 1.92 4.93 2.19-.17.31-.3.57-.37.76-2.77-.49-4.52-1.41-5.26-2.76-.56 1.26-2.3 2.23-5.24 2.9-.12-.24-.26-.48-.43-.72 2.73-.55 4.38-1.34 4.96-2.38h-4.38v-.69h4.65c.1-.38.17-.79.21-1.22h-4.32v-.69h4.4c.03-.34.05-.75.05-1.21h-4.2v-2.64h4.23v-1.26h-2.69v-1.84h-2.24zm1.46 4.46v1.29h3.45c.01-.4.02-.57.01-.53v-.32-.45h-3.46zm1.55-2.59h4.57v-1.19h-4.57zm6.11 2.59h-3.42v.77c-.02.19-.01.37-.02.53h3.44z" fill="#fcfafa"/><path d="m32.63 379.16h.82v1.98h3.54v7.89h1.46v.78h-14.37v-.78h1.46v-7.89h3.54v-1.98h.82v1.98h2.73zm-3.49 11.48.5.73c-1.61.82-3.28 1.63-5 2.41-.13-.27-.28-.55-.44-.82 1.75-.72 3.4-1.49 4.94-2.32m-2.78-5.55h2.73v-3.18h-2.73zm0 3.95h2.73v-3.2h-2.73zm3.54-3.95h2.73v-3.18h-2.73zm0 3.95h2.73v-3.2h-2.73zm7.89 4.68c-1.84-.92-3.51-1.7-5.02-2.32l.45-.73c1.89.8 3.57 1.55 5.04 2.23zm-1.62-11.81h-2.73v3.18h2.73zm-2.73 7.13h2.73v-3.2h-2.73z" fill="#fcfafa"/><g fill="#010102"><path d="m139.87 348.88c3.19-9.12 6.18-17.66 9.34-26.67-2.57.69-4.59 1.61-6.66 1.72-6.34.35-9.21-2.55-9.56-8.99-.31-5.75-.79-11.49-1.24-18-11.55 5.69-22.69 11.5-34.11 16.71-12.59 5.74-25.5 10.8-38.13 16.47-2.2.99-3.95 3.4-5.42 5.49-1.83 2.6-2.59 7.28-4.81 8-4.35 1.4-6.55-3.44-8.02-6.51-3.08-6.39-5.14-13.28-7.92-20.78 6.14-1.53 11.74-2.85 17.31-4.33 9.74-2.59 19.49-5.19 29.16-8.03 1.28-.38 3.05-2.21 3.06-3.38.17-27.64.13-55.28.13-83.25-6.01 0-11.73 0-17.82 0v26.28c-6.41 0-12.47 0-18.85 0 0-49.02 0-98.1 0-148.01 4.95 2.64 9.97 4.65 14.22 7.73 6.87 4.98 14.37 3.47 22.34 3.56 0-23.96 0-47.7 0-72.02 9.78 1.08 18.99 2.09 28.2 3.15.94.11 1.98.4 2.74.94 1.8 1.3 5 3.01 4.84 4.19-.28 2.12-2.21 4.62-4.16 5.78-3.44 2.04-7.4 3.18-11.32 4.78v53.27c5.76 0 11.36.05 16.96-.06.86-.02 1.99-.55 2.51-1.22 3.68-4.75 7.23-9.6 11.35-15.13 5.34 5.64 10.59 11.08 15.7 16.65 3.6 3.93 3.31 7.13-1.31 9.93-5.69 3.45-7.72 7.73-7.61 14.7.49 31.99.22 63.98.22 95.98v5.8c-5.98 0-11.69 0-17.79 0 0-5.29 0-10.57 0-16.24-6.74 0-13.13 0-19.87 0v79.8c8.02-2.96 15.89-5.83 23.73-8.79 3.22-1.22 2.05-3.56 1.23-5.74-3.52-9.44-7.05-18.88-10.56-28.33-.5-1.34-.93-2.7-1.38-4 5.99-4.17 6.07-4.24 11.08 1.63 11.03 12.93 19.68 27.18 23.93 43.82.76 2.98 1.31 6.01 2.69 9.13 1.98-13.54 4.36-27.04 5.87-40.64 7.87-70.75 2.51-141.77 4.06-212.66.04-1.63 0-3.26 0-5.7 7.15 3.83 13.69 7.45 20.35 10.84 2.1 1.07 4.53 2.13 6.8 2.14 44.49.12 88.98.08 133.47.12 2.58 0 4.37-.31 6.05-2.95 3.92-6.14 8.55-11.84 12.98-17.84 7.07 7.49 14.12 14.95 21.36 22.62-1.08 2.21-2.22 4.53-3.49 7.11-58.86 0-117.82 0-177.53 0v5.51c0 34.99-.11 69.99.04 104.98.1 23.32-.81 46.53-3.85 69.71-2.6 19.8-6.12 39.37-12.36 58.27-4.79 14.5-11.16 28.48-16.87 42.67-.54 1.34-1.44 2.53-2.36 4.12-2.93-1.44-5.65-2.79-8.72-4.33zm-17.23-141.1c0-30.8 0-61.16 0-91.54-6.62 0-12.88 0-19.38 0v91.54zm-39.98-.02c0-30.74 0-61.1 0-91.37-6.06 0-11.78 0-17.41 0v91.37z"/><path d="m320.93 81.87c10.83.67 21.05 1.18 30.49 5.93 3.23 1.62 3.88 4.76 1.09 7.04-2.74 2.24-6.22 3.54-9.2 5.52-1.33.89-3.15 2.45-3.16 3.72-.21 17.46-.14 34.92-.14 52.33 5.41 1.94 7.63-.33 9.13-5.06 1.52-4.78 3.97-9.27 6.58-15.16 4.61 8.22 8.97 15.51 12.82 23.06 1.69 3.32-1.09 6.71-5 6.74-7.3.05-14.61.01-22.54.01v6.14c0 50.31.08 100.63-.05 150.94-.03 13.16-5.16 21.01-16.88 24.29-2.94.82-6.09.85-8.91 1.21-1.64-3.57-2.9-7.54-5.11-10.88-4.25-6.4-11.73-7.34-18.3-9.64-7.25-2.54-7.3-2.4-6.39-10.27 10 .4 19.97.7 29.94 1.24 4.61.25 6-2.52 6.69-6.23.12-.64.02-1.33.02-2 0-46.82 0-93.63 0-140.45 0-1.29 0-2.58 0-4.22-15.06 0-29.66 0-44.48 0-.94-2.99-1.81-5.71-2.85-9.03h46.27c-.02-25.17-.02-49.89-.02-75.23z"/><path d="m247.18 217.21c-11.65 0-22.58 0-34.06 0v14.52c-6.14 0-11.74 0-17.73 0 0-30.09 0-60.25 0-90.83 3.53 1.49 7.27 2.26 9.96 4.37 4.9 3.83 10.27 3.86 15.92 3.76 6.49-.12 13.02-.41 19.48.1 4.67.37 7.22-1.56 9.34-5.27 1.6-2.79 3.63-5.33 6.11-8.91 4.93 5.87 9.51 11.18 13.91 16.63 3.03 3.75 2.72 7.45-1.41 10.12-3.36 2.18-3.81 5.03-3.78 8.73.18 19.3.08 38.6.08 58.24-6.02 0-11.73 0-17.82 0 0-3.68 0-7.29 0-11.46zm-33.83-58.99v49.38h33.38c0-16.65 0-32.91 0-49.38-11.18 0-22.1 0-33.38 0z"/><path d="m280.43 301.83c-24.37 9.8-48.33 19.54-72.4 29.03-4.21 1.66-7.79 2.74-8.4 8.35-.3 2.74-2.99 5.66-5.37 7.52-.89.7-4.58-.78-5.85-2.25-1.72-2-2.69-4.86-3.34-7.5-1.56-6.29-2.76-12.68-4.29-19.9 5.36-1.05 10.53-2.03 15.69-3.08 11.32-2.32 22.65-4.61 33.93-7.13 1.03-.23 2.23-1.91 2.47-3.1 3.14-15.64 6.18-31.31 9.11-46.99 1.26-6.73 2.23-13.52 3.44-20.95 8.9 3.22 17.87 5.93 25.09 12.27 2.53 2.22 2.42 4.61-1.06 6.12-.45.2-.83.67-1.28.73-6.95.93-8.82 5.94-10.71 11.83-3.87 12.05-8.59 23.83-13.21 36.39 10.94-3.73 21.72-7.4 33.31-11.35.81 2.8 1.61 5.6 2.87 10.01z"/><path d="m278.94 189.05c6.18-4.77 6-4.62 11 1.31 10.21 12.11 18.51 25.46 22.3 40.78 1.94 7.86 1.4 16.63.44 24.81-.7 5.96-8.65 9.66-13.7 6.74-4.57-2.63-5.84-8.14-5.9-13.22-.17-15.68-2.37-30.96-8.06-45.63-1.94-4.98-4.06-9.89-6.08-14.79z"/><path d="m263.76 85.05c4.88 7.46 9.6 14.49 14.12 21.65 2.11 3.34-.2 8.26-3.81 8.27-27.44.05-54.89.03-82.67.03-.78-2.86-1.53-5.61-2.45-9h5.59c17.8 0 35.61-.05 53.41.05 2.75.01 4.49-.57 5.86-3.27 2.93-5.81 6.34-11.37 9.95-17.73z"/><path d="m202.42 240.92c10.55 10.8 20.42 22.23 23.12 37.68.94 5.38-.14 11.44-1.64 16.82-1.47 5.28-6.92 5.41-11.14 4.28-2.02-.54-4.13-3.97-4.63-6.41-1.75-8.6-2.49-17.41-4.26-26.01-1.04-5.04-2.9-10.02-5.12-14.68-3.73-7.87-4.31-6.68 3.67-11.68z"/></g></svg>