<svg enable-background="new 0 0 400 400" viewBox="0 0 400 400" xmlns="http://www.w3.org/2000/svg"><g fill="#010103"><path d="m112.51 301.85c29.55-26.84 41.67-61.02 42.61-100.58-12.36 0-24.44 0-36.55 0-1.17-3.28-2.18-6.11-3.31-9.27h53.5c0-11.91 0-23.65 0-35.7 7.16.6 13.79 1.01 20.37 1.78 2.53.3 5.13 1.11 7.4 2.27 3.41 1.74 3.47 7.38-.18 8.35-8.84 2.35-8.95 8.58-8.39 15.6.18 2.31.03 4.64.03 7.68 8.63 0 17.05.1 25.47-.11 1.2-.03 2.58-1.36 3.51-2.41 3.92-4.42 7.71-8.95 11.94-13.91 6.22 6.19 12.44 12.12 18.33 18.38 2.08 2.21-1.03 7.01-4.42 7.05-7 .07-14 .02-21 .02-14.99 0-29.98 0-45.84 0-.73 8.15-1.45 16.22-2.24 24.99 11.75 0 23.03.21 34.28-.21 1.8-.07 3.56-2.9 5.23-4.56 7.56-7.53 7.56-7.56 15.26-.17 2.69 2.59 5.28 5.29 7.95 7.9 2.88 2.81 1.62 5.02-1.04 6.93-1.18.85-2.93 1.18-3.7 2.26-1.51 2.12-3.24 4.49-3.61 6.95-1.94 12.94-2.32 26.23-5.5 38.83-3.48 13.8-10.31 22.53-27.39 23.13-2.22.08-4.41.73-6.89 1.17-1.46-9.36-7.58-13.7-15.49-16.3-6.42-2.11-6.41-2.15-5.31-9.94 3.68.35 7.38.79 11.1 1.05 5.59.39 11.2.95 16.79.87 3.7-.05 7.31-1.65 8.4-5.59 1.98-7.19 3.91-14.45 5.04-21.8 1.05-6.82 1.05-13.8 1.54-21.12-13.03 0-25.43 0-37.85 0-9.86 42.06-34.5 60.98-54.56 72.83 8.97 3.52 16.73 7.6 25 9.59 15.35 3.7 30.97 6.28 46.52 9.11 4.19.76 8.52 1 12.79 1.05 32.27.41 64.53.93 96.8.94 12.7 0 25.41-1.11 38.11-1.93 9.01-.58 18.01-1.54 27.32-2.35-3.31 8.11-6.36 15.58-9.54 23.4-14.81 0-29.97 0-45.12 0-24.67 0-49.35.49-73.99-.17-17.26-.46-34.54-1.99-51.69-3.99-12.43-1.45-24.79-3.96-36.97-6.88-20.21-4.83-36.66-15.41-47.55-33.65-.32-.53-.92-.89-1.71-1.62-4.8 5.76-9.41 11.44-14.17 16.99-4.94 5.75-9.8 11.59-15.12 16.99-3.93 3.99-6.38 8.05-5.84 13.93.21 2.27-1.39 4.7-2.17 7.06-2.57-1.06-6.06-1.41-7.54-3.32-5.66-7.32-10.68-15.14-16.31-23.3 6.43-3.74 11.96-6.76 17.29-10.1 9.4-5.89 18.71-11.93 27.95-18.06.99-.66 1.84-2.34 1.85-3.55.1-25.36.04-50.69 0-76.02 0-.29-.24-.58-.59-1.34-10.92 0-22.04 0-33.16 0-8.55 0-8.55 0-12.12-8.59 1.32-.15 2.53-.39 3.73-.39 10.83-.03 21.72-.66 32.48.21 7.14.58 10.77-3.17 14.58-7.7 1.88-2.25 3.76-4.5 5.94-7.11 6.05 5.31 11.87 10.11 17.34 15.3 4.44 4.22 4.23 7.59-1.18 10.15-6.68 3.17-8.36 7.79-8.07 14.84.56 13.81.87 27.71-.07 41.48-.68 9.68 3.69 16.2 9.73 22.66z"/><path d="m263.67 34.48c8.9 2.19 17.56 4.31 26.21 6.47.92.23 1.84.62 2.65 1.11 4.65 2.86 4.94 7.3-.15 8.44-9.35 2.1-9.51 9.15-11.15 15.92-2.63 10.91-5.44 21.77-8.14 32.66-.11.45.07.98.16 1.9 15.8 0 31.6.04 47.4-.09.97-.01 2.18-1.06 2.86-1.95 5.1-6.57 10.1-13.22 15.49-20.34 7.22 8.18 14.36 16.26 21.56 24.4-1.17 4.99-3.41 7.72-9.33 7.13-6.75-.68-13.62-.16-21.02-.16-1.08 7.65-1.92 15.23-3.27 22.72-2.82 15.71-5.09 31.58-9.1 46.99-4 15.37-9.93 30.24-14.81 45.39-.48 1.5-.14 3.76.71 5.11 11.21 17.77 24.7 33.7 40.05 48.02 4.8 4.48 10.02 8.52 15.03 12.74-5.36 6.33-10.49 12.4-15.97 18.86-9.12-9.68-19.06-19.07-27.6-29.61-8.37-10.34-15.32-21.84-22.95-32.92-15.02 28.01-36.25 50.55-62.59 69.04-1.87-2.31-3.59-4.45-5.67-7.03 4.63-4.58 9.38-9.13 13.97-13.85 18.95-19.45 33.62-41.75 43.95-66.85.62-1.5.29-3.8-.42-5.36-8.6-18.94-13.48-39.03-18.38-59.1-1.62-6.64-2.13-13.55-3.22-20.32-.18-1.1-.72-2.14-1.26-3.66-6.03 11.41-11.87 22.46-17.68 33.46-.64-.16-.92-.18-1.15-.29-7.53-3.45-7.69-3.52-4.63-10.81 10.4-24.79 16.68-50.69 20.75-77.16 2.31-15.03 4.01-30.16 6.06-45.24.25-1.71.97-3.36 1.64-5.62zm44.41 75.52c-12.3 0-23.77-.02-35.25.04-1.06.01-2.89.35-3.06.94-1.41 4.62-4.32 9.73-3.39 13.94 4.27 19.34 9.34 38.53 14.77 57.59 2.37 8.34 6.3 16.23 9.97 25.47 10.13-32.71 15.29-64.72 16.96-97.98z"/><path d="m217.06 57.9c6.05 5.23 11.82 9.8 17.06 14.92 3.27 3.19 2.73 6.81-1.66 8.82-5.93 2.72-6.63 6.99-6.56 12.71.26 21.64.1 43.28.1 65.28-6.28 0-12.33 0-18.94 0 0-3.7 0-7.44 0-11.39-19.14 0-37.73 0-56.88 0v15.45c-6.26 0-11.98 0-17.94 0 0-33.25 0-66.32 0-100.31 4.41 1.96 8.54 3.42 12.28 5.56 5.78 3.31 11.97 3.43 18.21 2.87 1.19-.11 2.87-2.4 3.14-3.89 2.03-11.22 3.76-22.48 5.73-34.58 9.09 2.6 18 4.99 26.78 7.78 1.77.56 3.63 2.43 4.3 4.15.31.78-1.98 3.55-3.44 3.89-12.02 2.75-14.49 14.33-22.33 22.82 10.06 0 18.89.76 27.46-.4 3.17-.43 5.78-5.33 8.54-8.28 1.22-1.31 2.2-2.84 4.15-5.4zm-10.34 80.87c0-8.51 0-16.44 0-24.46-18.98 0-37.68 0-56.35 0v24.46zm-56.51-34.14h56.55c0-7.96 0-15.56 0-23.35-18.94 0-37.64 0-56.55 0z"/><path d="m115 85.2c0 10.64-3.57 14.33-13.05 13.77-5.03-.3-6.96-4.29-8.91-8.12-4.63-9.1-8.87-18.43-13.99-27.24-3.01-5.17-7.55-9.43-11.09-14.33-.86-1.19-1.22-3.73-.52-4.81 1.16-1.79 2.37-4.53 5.83-2.85 13.48 6.53 26.5 13.73 35.69 25.99 3.92 5.24 6.85 11.16 6.04 17.59z"/><path d="m51.07 114.55c4.46-4.84 4.71-5.26 11.05-1.41 8.76 5.32 17.74 10.59 25.41 17.27 8.59 7.48 13.17 17.6 11.39 29.5-.65 4.36-3.72 7.29-8.04 8-6.76 1.12-9.81-.75-11.87-5.93-2.63-6.62-4.74-13.62-8.42-19.62-5.87-9.56-12.86-18.44-19.52-27.81z"/></g><path d="m6.44 374.46.42-.45c.65.47 1.27.95 1.85 1.44l-.45.49c-.65-.56-1.25-1.06-1.82-1.48m.93 7.33-.63-.26c.55-1.36 1.05-2.8 1.52-4.33.19.1.38.19.59.27-.46 1.29-.95 2.73-1.48 4.32m-.38-10.38.44-.42c.43.34 1.01.82 1.74 1.44l-.49.49c-.53-.51-1.09-1.01-1.69-1.51m2.5.35h1.72v-1.04h.59v1.04h3.52v-1.04h.59v1.04h1.75v.53h-1.75v1.42h-2.03v.97h3.22v2.03h-3.24c0 .35-.01.66-.03.93h3.32v.53h-3.37c-.03.27-.08.58-.15.94h3.96v.53h-3.71c.67.92 1.93 1.48 3.79 1.68-.13.24-.23.44-.29.59-2.13-.38-3.48-1.08-4.04-2.12-.43.97-1.77 1.72-4.03 2.23-.09-.19-.2-.37-.33-.55 2.1-.42 3.37-1.03 3.81-1.83h-3.36v-.53h3.58c.08-.29.13-.61.16-.94h-3.33v-.53h3.39c.02-.27.04-.58.04-.93h-3.23v-2.03h3.25v-.97h-2.07v-1.42h-1.73zm1.12 3.44v1h2.65c.01-.3.02-.44.01-.4v-.25-.35zm1.19-2h3.52v-.91h-3.52zm4.71 2h-2.63v.59c0 .16-.01.28-.01.4h2.64z" fill="#fcfafa"/><path d="m13.56 383.74h.63v1.52h2.72v6.07h1.13v.6h-11.06v-.6h1.13v-6.07h2.73v-1.52h.63v1.52h2.1v-1.52zm-2.69 8.83.38.56c-1.24.63-2.53 1.25-3.85 1.85-.1-.21-.21-.42-.34-.63 1.36-.55 2.63-1.15 3.81-1.78m-2.13-4.27h2.1v-2.45h-2.1zm0 3.04h2.1v-2.46h-2.1zm2.72-3.04h2.1v-2.45h-2.1zm0 3.04h2.1v-2.46h-2.1zm6.07 3.6c-1.41-.71-2.7-1.3-3.86-1.78l.35-.56c1.45.62 2.75 1.19 3.88 1.72zm-1.25-9.09h-2.1v2.45h2.1zm-2.09 5.49h2.1v-2.46h-2.1z" fill="#fcfafa"/></svg>