<svg enable-background="new 0 0 400 400" viewBox="0 0 400 400" xmlns="http://www.w3.org/2000/svg"><path d="m5.17 384 .55-.58c.85.61 1.65 1.24 2.4 1.87l-.59.64c-.83-.73-1.62-1.38-2.36-1.93m1.22 9.53-.82-.34c.71-1.76 1.37-3.64 1.98-5.63.24.13.5.25.76.36-.6 1.67-1.24 3.54-1.92 5.61m-.5-13.5.57-.54c.56.44 1.31 1.06 2.26 1.87l-.64.64c-.68-.66-1.41-1.32-2.19-1.97m3.25.46h2.24v-1.36h.77v1.36h4.57v-1.36h.76v1.36h2.28v.69h-2.28v1.84h-2.64v1.26h4.18v2.64h-4.21c0 .45-.02.86-.05 1.21h4.32v.69h-4.38c-.04.34-.1.75-.19 1.22h5.15v.69h-4.82c.87 1.19 2.51 1.92 4.93 2.19-.17.31-.3.57-.37.76-2.77-.49-4.52-1.41-5.26-2.76-.56 1.26-2.3 2.23-5.24 2.9-.12-.24-.26-.48-.43-.72 2.73-.55 4.38-1.34 4.96-2.38h-4.38v-.69h4.65c.1-.38.17-.79.21-1.22h-4.32v-.69h4.4c.03-.34.05-.75.05-1.21h-4.2v-2.64h4.23v-1.26h-2.69v-1.84h-2.24zm1.46 4.46v1.29h3.45c.01-.4.02-.57.01-.53v-.32-.45h-3.46zm1.55-2.59h4.57v-1.19h-4.57zm6.11 2.59h-3.42v.77c-.02.19-.01.37-.02.53h3.44z" fill="#fcfafa"/><path d="m32.63 379.16h.82v1.98h3.54v7.89h1.46v.78h-14.37v-.78h1.46v-7.89h3.54v-1.98h.82v1.98h2.73zm-3.49 11.48.5.73c-1.61.82-3.28 1.63-5 2.41-.13-.27-.28-.55-.44-.82 1.75-.72 3.4-1.49 4.94-2.32m-2.78-5.55h2.73v-3.18h-2.73zm0 3.95h2.73v-3.2h-2.73zm3.54-3.95h2.73v-3.18h-2.73zm0 3.95h2.73v-3.2h-2.73zm7.89 4.68c-1.84-.92-3.51-1.7-5.02-2.32l.45-.73c1.89.8 3.57 1.55 5.04 2.23zm-1.62-11.81h-2.73v3.18h2.73zm-2.73 7.13h2.73v-3.2h-2.73z" fill="#fcfafa"/><g fill="#010102"><path d="m118.2 196v107.74c19.62-6.31 38.75-12.46 58.34-18.76.66 3.12 1.31 6.23 2.07 9.84-12.38 5.47-24.71 11.37-37.39 16.41-16.77 6.67-33.76 12.82-50.76 18.9-7.49 2.68-15.23 4.66-22.88 6.86-2.25.64-3.71 1.34-3.71 4.22.01 2.17-.97 4.42-1.85 6.49-1.73 4.09-5.13 4.52-8.05 1.15-6.19-7.16-8.21-16.18-11.02-24.84-.15-.47-.34-.93-.63-1.71 10.89-2.43 21.78-4.79 32.64-7.31 6.5-1.51 12.87-3.61 19.42-4.8 3.19-.58 3.72-1.98 3.64-4.63-.1-3.66-.03-7.33-.03-11 0-30.83 0-61.65 0-92.48 0-1.81 0-3.61 0-6.07-5.25 0-10.18 0-15.11 0-9 0-18 0-26.99 0-8.43 0-8.43 0-10.34-8.94h52.11c0-17.07 0-33.78 0-51.05-8.18 0-16.29-.05-24.4.07-.85.01-1.8.95-2.5 1.65-8.67 8.63-17.28 17.31-25.96 25.92-.91.9-2.13 1.47-3.46 2.36-1.4-1.51-2.75-2.97-4.98-5.38 32.79-36.99 53.71-80.56 66.84-129.24 10.26 3.12 20 6 29.66 9.13 1.26.41 3 2.22 2.91 3.24-.13 1.47-1.44 3.35-2.78 4.09-2.36 1.3-5.13 1.87-8.82 3.12 4.67 2.89 8.88 5.38 12.97 8.06 16.82 11.03 32.37 23.37 42.68 41.2 3.23 5.58 3.83 11.56 3.03 17.6-.83 6.23-10.85 8.76-16.17 4.16-1.92-1.66-3.57-3.93-4.65-6.24-8.49-18.12-19.28-34.64-33.56-48.73-3.16-3.12-6.7-5.85-10.48-9.13-9.97 24.56-22.86 47.29-39.05 69.08 15.57 0 30.32.05 45.08-.1 1.22-.01 2.76-1.12 3.59-2.16 4.04-5.12 7.89-10.4 11.2-14.81 7.35 6.02 14.72 12.07 21.03 17.24-1.32 7.98-4.86 9.25-10.43 8.98-10.27-.5-20.57-.14-31.12-.14v50.98c6.33 0 12.77.27 19.16-.19 1.62-.12 3.36-2.35 4.55-3.97 4.04-5.5 7.86-11.16 12.37-17.64 6.79 8.01 13.33 15.72 19.46 22.96-1.12 6.92-4.93 8.21-10.91 8.02-14.8-.48-29.6-.15-44.72-.15z"/><path d="m336.63 159.45c5.32 4.88 10.54 9.98 16.1 14.67 4.37 3.68 7.07 7.31 1.99 12.98-23.62 0-47.9 0-72.44 0v62.9h16.16c6.33 0 12.68.27 18.98-.16 2-.14 4.36-1.76 5.69-3.4 4.28-5.29 8.16-10.9 12.31-16.55 5.93 6.97 11.47 13.69 17.29 20.16 1.74 1.93 1.78 3.16.65 5.41-1.24 2.49-2.44 3.65-5.45 3.62-19.99-.16-39.99-.08-59.98-.08-1.8 0-3.6 0-5.65 0v74.63c1.14.11 2.39.35 3.65.35 13.33.03 26.66-.05 39.99.07 2.75.02 4.36-.72 5.94-3.2 4.11-6.46 8.73-12.6 13.46-19.31 7.44 8.48 14.47 16.49 21.22 24.19-.87 6.47-4.51 7.42-10.03 7.4-60.65-.21-121.3-.13-181.94-.13-8.19 0-8.19 0-10.29-8.86h40.46c0-37 0-73.71 0-111.16 10.67.44 20.72.81 29.8 5.97 2.98 1.7 3.8 4.56.77 7.18-1.45 1.26-3.18 2.6-4.98 2.99-4.96 1.08-5.45 4.15-5.42 8.6.21 28.49.11 56.97.11 85.87h37.65c0-48.58 0-97.29 0-146.38-26.95 0-53.88 0-80.97 0-1.12-3.12-2.15-5.96-3.32-9.22h5.67c44.32 0 88.64-.03 132.96.05 3.41.01 5.57-.75 7.66-3.91 3.45-5.25 7.93-9.84 11.96-14.68z"/><path d="m347 152.77c-6.29 0-11.89 0-17.86 0 0-4.16 0-8.1 0-12.4-39.09 0-77.81 0-117.08 0v15.39c-6.48 0-12.42 0-18.71 0 0-36.61 0-73.19 0-110.42 6.13 2.97 12.15 6.02 18.3 8.8 2.17.98 4.64 1.78 6.98 1.79 34.83.11 69.67.01 104.5.18 3.27.02 5.17-1.07 6.75-3.58 2.42-3.86 4.9-7.68 8.17-12.78 6.32 7.27 12.42 13.86 17.99 20.85 3.27 4.1-.29 7.43-3.32 8.82-5.48 2.5-5.86 6.44-5.81 11.53.2 22 .09 44 .09 66zm-45.65-87.54v65.37h27.39c0-21.99 0-43.57 0-65.37-9.19 0-18.11 0-27.39 0zm-18.7 65.54c0-22.1 0-43.8 0-65.37-9.07 0-17.78 0-26.39 0v65.37zm-70.33-65.67v65.53h25.28c0-22.07 0-43.77 0-65.53-8.55 0-16.69 0-25.28 0z"/><path d="m135.67 289.69c-2.73-1.21-5.1-2.26-6.51-2.88 6.25-25.69 12.45-51.19 18.93-77.85 7.56 3.32 15.07 6.31 22.24 9.97 2.06 1.05 3.13 4.04 4.66 6.14-2.23 1.6-4.38 4.37-6.72 4.54-4.31.32-5.73 2.47-7.27 5.95-7.13 16.08-14.56 32.03-21.93 48-.95 2.06-2.19 3.98-3.4 6.13z"/><path d="m47.51 219.8c2.24-1.15 3.75-2.2 5.42-2.69.94-.28 2.62-.03 3.18.64 11.6 13.83 21.91 28.55 26.25 46.34 1.69 6.93 1.85 14.44 1.41 21.61-.47 7.63-8.62 11.72-15.75 8.79-4.74-1.95-4.29-6.54-4.93-10.39-.45-2.75-.24-5.65-.06-8.47 1.03-16.69-3.97-31.94-11.04-46.71-1.41-2.91-2.86-5.8-4.48-9.12z"/></g></svg>