<svg enable-background="new 0 0 400 400" viewBox="0 0 400 400" xmlns="http://www.w3.org/2000/svg"><path d="m117.14 356.89c-7.38 0-13.86 0-20.74 0 0-69.59 0-139.1 0-209.47 4.3 2.04 8.47 3.51 12.09 5.84 8.83 5.69 18.28 7.44 28.68 6.87 10.62-.59 21.31-.13 32.96-.13 3.26-15.3 6.53-30.65 9.96-46.73-45.64 0-90.03 0-134.47 0-1.2-3.26-2.24-6.1-3.4-9.27h6.47c57.49 0 114.97-.03 172.46.08 3.23.01 4.81-.9 6.31-3.84 10.62-20.83 18.52-42.68 25.3-65.75 9.36 3.96 18.65 7.85 27.9 11.83 1.18.51 2.5 1.19 3.21 2.18 1.26 1.76 3.14 4.03 2.81 5.71-.29 1.52-3.12 2.64-4.96 3.71-.94.55-2.26 1.01-3.25.81-6.72-1.4-8.63 3.83-11.69 7.92-8.82 11.79-17.91 23.37-26.89 35.05-.36.47-.58 1.03-1.29 2.32h5.91c19.99 0 40.02-.62 59.97.27 9.44.42 15.01-2.97 19.69-10.46 3.11-4.97 7.3-9.26 11.42-14.38 7.7 8.45 15.15 16.44 22.32 24.68 1.08 1.24 1.73 4.25.98 5.36-1.13 1.67-3.65 3.34-5.61 3.38-15.66.27-31.32.15-46.99.15-30.66 0-61.32.11-91.98-.13-4.13-.03-6.32 1.51-8.21 4.7-7.92 13.31-15.91 26.58-23.85 39.88-.39.66-.47 1.5-.77 2.54 30.79 0 61.26.01 91.74-.04 1.06 0 2.51-.26 3.11-.97 4.17-4.84 8.16-9.83 13.08-15.85 7.12 6.72 14.37 13.19 21.13 20.13 2.89 2.96 2.02 6.92-2.17 8.44-8.59 3.11-9.6 9.04-9.55 17.22.35 53.82.18 107.64.18 161.46v6.28c-7 0-13.72 0-20.81 0 0-8 0-15.94 0-24.26-53.75 0-107.12 0-161.05 0 0 7.91 0 15.97 0 24.47zm.09-34.24h160.37c0-15.73 0-31.11 0-46.39-53.65 0-106.9 0-160.37 0zm160.55-101.29c-53.8 0-107.17 0-160.55 0v45.37h160.55c0-15.2 0-30.13 0-45.37zm0-52.01c-53.78 0-107.15 0-160.37 0v42.38h160.37c0-14.19 0-28.11 0-42.38z" fill="#010103"/><path d="m111.72 42.32c1.75-2.3 3.21-4.24 4.78-6.31 14.59 5.44 27.96 12.97 39.24 23.5 8.65 8.08 14.03 18.24 12.22 30.8-.66 4.56-3.4 7.88-7.6 9.45-5 1.86-11.54.1-13.84-3.96-2.29-4.04-4.12-8.46-5.4-12.93-3.46-12.03-10.63-21.6-19.15-30.37-3.34-3.45-6.8-6.77-10.25-10.18z" fill="#010103"/><g fill="#fcfafa"><path d="m6.44 374.46.42-.45c.65.47 1.27.95 1.85 1.44l-.45.49c-.65-.56-1.25-1.06-1.82-1.48m.93 7.33-.63-.26c.55-1.36 1.05-2.8 1.52-4.33.19.1.38.19.59.27-.46 1.29-.95 2.73-1.48 4.32m-.38-10.38.44-.42c.43.34 1.01.82 1.74 1.44l-.49.49c-.53-.51-1.09-1.01-1.69-1.51m2.5.35h1.72v-1.04h.59v1.04h3.52v-1.04h.59v1.04h1.75v.53h-1.75v1.42h-2.03v.97h3.22v2.03h-3.24c0 .35-.01.66-.03.93h3.32v.53h-3.37c-.03.27-.08.58-.15.94h3.96v.53h-3.71c.67.92 1.93 1.48 3.79 1.68-.13.24-.23.44-.29.59-2.13-.38-3.48-1.08-4.04-2.12-.43.97-1.77 1.72-4.03 2.23-.09-.19-.2-.37-.33-.55 2.1-.42 3.37-1.03 3.81-1.83h-3.36v-.53h3.58c.08-.29.13-.61.16-.94h-3.33v-.53h3.39c.02-.27.04-.58.04-.93h-3.23v-2.03h3.25v-.97h-2.07v-1.42h-1.73zm1.12 3.44v1h2.65c.01-.3.02-.44.01-.4v-.25-.35zm1.19-2h3.52v-.91h-3.52zm4.71 2h-2.63v.59c0 .16-.01.28-.01.4h2.64z"/><path d="m13.56 383.74h.63v1.52h2.72v6.07h1.13v.6h-11.06v-.6h1.13v-6.07h2.73v-1.52h.63v1.52h2.1v-1.52zm-2.69 8.83.38.56c-1.24.63-2.53 1.25-3.85 1.85-.1-.21-.21-.42-.34-.63 1.36-.55 2.63-1.15 3.81-1.78m-2.13-4.27h2.1v-2.45h-2.1zm0 3.04h2.1v-2.46h-2.1zm2.72-3.04h2.1v-2.45h-2.1zm0 3.04h2.1v-2.46h-2.1zm6.07 3.6c-1.41-.71-2.7-1.3-3.86-1.78l.35-.56c1.45.62 2.75 1.19 3.88 1.72zm-1.25-9.09h-2.1v2.45h2.1zm-2.09 5.49h2.1v-2.46h-2.1z"/></g></svg>