<svg enable-background="new 0 0 400 400" viewBox="0 0 400 400" xmlns="http://www.w3.org/2000/svg"><g fill="#010103"><path d="m123.41 107c3.86 0 7.75.79 11.06-.25 2.73-.85 5.08-3.63 7.08-5.99 2.83-3.35 5.19-7.1 8.31-11.44 4.51 4.93 8.78 9.59 13.02 14.28.87.96 1.88 1.97 2.28 3.14.61 1.79 1.63 4.29.89 5.5-1.07 1.72-3.55 3.55-5.48 3.6-12.3.32-24.6.16-37.23.16v43c3.73 0 7.35.13 10.96-.08 1.03-.06 2.25-.87 2.97-1.7 4.1-4.7 8.08-9.52 12.72-15.04 5.74 6.2 11.4 11.91 16.55 18.05 2.22 2.65-1.82 7.74-5.98 7.76-11 .05-21.99.02-32.99.02-1.3 0-2.61 0-4.23 0v46c7.92 0 15.71.09 23.48-.09 1.25-.03 2.77-1.03 3.65-2.03 1.82-2.07 3.09-4.64 4.97-6.64 6.42-6.83 4.11-7.2 10.32-1 4.29 4.29 8.58 8.57 12.88 12.84 2.63 2.62 1.7 5.46-.94 6.55-8.53 3.51-7.62 10.49-7.78 17.64-.34 15.37-.62 30.79-2.07 46.08-1.52 16.04-3 32.18-8.69 47.56-4.31 11.65-13.91 19.28-26.32 20.13-2.4.16-4.77.73-7.35 1.15-3.6-17.98-19.76-14.24-31.29-18.9 0-2.44 0-5.05 0-8.25 4.2.34 8.21.78 12.23.97 8.09.4 16.2 1.06 24.29.85 5.07-.13 9.37-3.39 10.81-8.14 2.4-7.91 4.46-16.07 5.34-24.27 1.58-14.73 2.24-29.57 3.15-44.37.62-10.08.99-20.17 1.49-30.67-26.03 0-51.41 0-77.34 0v15.33c-6.81 0-13.08 0-19.74 0 0-63.74 0-127.57 0-191.83 6.49 2.8 12.69 5.62 19.01 8.13 2.51 1 5.29 1.87 7.95 1.9 17.99.16 36.02-.54 53.97.37 8.13.41 12.53-3.01 16.57-8.81 2.24-3.21 4.74-6.23 7.84-10.27 4.61 4.68 8.88 8.95 13.07 13.29 1.13 1.17 2.06 2.53 3.03 3.84 1.34 1.8 4.43 2.72 2.46 6.11-1.65 2.83-3.1 4.73-7 4.66-15.86-.31-31.69-.14-47.92-.14zm-19.76 106.77c0-15.43 0-30.47 0-45.38-10.07 0-19.78 0-29.39 0v45.38zm-29.3-97.54v42.38h29.39c0-14.32 0-28.24 0-42.38-9.85 0-19.44 0-29.39 0zm29.41-49.9c-10.04 0-19.74 0-29.38 0v40.42h29.38c0-13.49 0-26.74 0-40.42z"/><path d="m224.05 138.62c-7.17-2.49-14.04-4.88-20.86-7.24 1.95-7.62 2.41-7.99 8.79-6.28 5.64 1.51 11.22 3.27 17.85 5.22 5.08-12.54 10.18-25.1 15.52-38.3-9.6 0-18.22-.1-26.84.11-1.26.03-2.88 1.27-3.65 2.41-6.25 9.16-11.99 18.69-18.59 27.59-6.16 8.31-13.18 15.99-20.03 24.18-2.94-2.16-5.24-3.85-8.13-5.98 24.78-31.33 39.05-67.73 48.99-107.2 9.14 3.33 17.67 6.19 25.95 9.64 1.77.74 3.19 3.51 3.66 5.59.2.89-2.32 2.64-3.85 3.6-1.48.93-3.38 2.06-4.93 1.86-4.52-.57-5.79 1.93-7.12 5.54-2.87 7.76-6.26 15.33-9.62 23.39 1.39.09 2.79.25 4.19.25 32.66.01 65.32-.01 97.98.06 2.63.01 4.48-.48 6.09-2.89 2.53-3.8 5.62-7.23 9.31-11.87 6.83 6.21 13.72 11.93 19.89 18.33 2.55 2.64 2.54 6.6-1.96 8.43-7.69 3.12-8.56 9.25-8.88 16.68-.76 17.76-1.86 35.55-4 53.18-1.68 13.86-4.5 27.67-7.96 41.21-3.53 13.8-12.8 22.84-26.87 26.32-2.67.66-5.54.5-8.7.74-1.66-12.71-11.85-14.46-21.28-17.08-3.45-.96-7.03-1.42-10.54-2.14-3.66-.75-3.81-1.21-3.19-9.74 4.47.28 8.97.63 13.48.81 9.1.37 18.27 1.46 27.27.67 6.33-.56 10.13-6.11 11.9-12.18 1.95-6.71 4.01-13.47 4.93-20.36 1.79-13.33 3.01-26.75 4.08-40.16.95-11.84 1.4-23.73 2.05-35.6.09-1.63.01-3.26.01-5.14-7.36 0-14.29 0-21.5 0-5.01 20.45-11.92 40.33-22.21 58.69 5.51 3.66 11.15 7.19 16.52 11.09 2.18 1.58 4.48 3.67 5.5 6.05 1.5 3.5 1.99 8.35-1.72 10.25-3.02 1.55-8.04 1.8-11 .31-5.61-2.82-10.5-7.15-15.45-11.15-2.2-1.78-2.99-1.69-4.91.58-9.35 11.08-18.18 22.8-28.8 32.53-12.01 11.01-25.71 20.2-38.79 30.01-.77.58-2.9.05-3.98-.63-1.66-1.04-2.95-2.67-5.02-4.64 25.78-18.96 48.01-40.88 64.67-68.8-7.57-3.97-15-7.87-22.93-12.03-14.97 21.44-33.29 39.07-54.83 53.09-2.28-2.12-4.45-4.16-7.07-6.59 18.84-14.82 34.42-32.12 46.58-52.41zm44.98 5.6c8.59-16.89 14.48-33.92 17.96-52.21-6.81 0-13.11-.11-19.4.1-1.11.04-2.72 1.17-3.17 2.2-6.01 13.66-11.86 27.39-17.9 41.45 7.16 2.69 14.83 5.57 22.51 8.46z"/><path d="m331.64 327.2c-.33 10.32-5.35 17-15.02 19.39-5.85 1.44-11.98 2.18-18.01 2.31-14.66.32-29.36.62-43.99-.1-7.68-.38-15.32-2.67-22.87-4.55-6.82-1.7-8.45-7.9-8.59-13.48-.67-26.59-.76-53.19-1.04-79.79 0-.13.17-.27.66-1.01 9.06.57 18.47 1.06 27.34 4.7 3.6 1.48 3.86 5.58.79 7.84-.65.48-1.4 1-2.17 1.12-7.42 1.24-8.13 6.1-7.89 12.57.48 13.32-.03 26.66.23 39.99.1 5.05.95 10.37 6.45 12.71 2.77 1.17 5.93 2.01 8.9 2 10.1-.06 20.26.03 30.27-1.05 10.4-1.13 16.06-4.12 18.28-15.69 1.87-9.78 3.28-19.66 4.96-29.84 2.17.55 4.91 1.24 7.5 1.9.86 9.46 1.65 18.8 2.59 28.13.23 2.25.88 4.46 1.46 6.66 1.41 5.27 5.46 6.47 10.15 6.19z"/><path d="m318.54 246.48c11.39 9.6 23.73 18.66 34.41 29.38 10.93 10.98 18.21 24.31 17.17 40.88-.31 4.99-2.33 8.24-6.6 9.97-4.48 1.82-10.6.12-12.9-3.79-2.02-3.43-3.51-7.3-4.57-11.15-5.17-18.87-13.02-36.23-27.05-50.33-1.85-1.85-3.59-3.89-4.96-6.1-.58-.92-.5-2.75.04-3.76.83-1.52 2.31-2.71 4.46-5.1z"/><path d="m52.16 254.95c2.44.39 5.44.87 9.62 1.53.41 15.29 1.45 30.63.99 45.93-.3 9.99-1.87 20.16-7.83 28.86-3.38 4.93-11.23 7.43-16.79 5.34-5.12-1.92-6.84-7.43-3.89-13.17 5.6-10.89 10.72-22.02 12.94-34.12 2.03-11.08 3.26-22.32 4.96-34.37z"/><path d="m196.33 256.04c2.99.82 5.76 1.57 8.44 2.3 1.18 19.73-.77 38.82-7.19 57.16-2.69 7.68-5.81 15.81-15.03 18.68-5.72 1.78-11.17.98-13.54-2.24-3.14-4.25-2.57-10.57.99-15.48 5.55-7.65 12.1-14.9 16-23.34 4.31-9.31 6.15-19.77 8.96-29.76.66-2.35.91-4.8 1.37-7.32z"/><path d="m246.99 230.69c5.58-5.98 5.67-6.15 12.18-2.62 12.28 6.68 23.79 14.32 31.75 26.3 4.5 6.77 5.85 14.23 4.94 22.06-.42 3.64-2.57 6.87-6.62 7.48-4.71.71-9.43.52-12.04-4.49-1.27-2.44-2.43-5.01-3.12-7.66-3.83-14.53-11.53-26.63-22.53-36.73-1.47-1.34-2.89-2.75-4.56-4.34z"/><path d="m71.98 256.11c1.62-.43 3.95-1.04 7.41-1.96 3.18 9.88 7.09 19.69 9.38 29.86 1.78 7.92 1.84 16.28 2.09 24.46.1 3.29-.97 6.76-2.15 9.91-1.34 3.61-6.77 5.45-11.07 4.47-4.4-.99-4.85-4.3-4.61-7.82.54-7.85 2.01-15.71 1.79-23.53-.32-11.56-1.79-23.09-2.84-35.39z"/><path d="m119.7 295.54c-.78 4.12-.92 7.15-1.95 9.83-1.79 4.68-5.99 5.21-10.24 4.54-4.16-.66-5.17-4.13-5.47-7.64-1.38-15.83-3.83-31.39-10.26-46.11-.5-1.15.3-3.63 1.33-4.53 1.57-1.36 3.93-3.08 5.81.01 5.64 9.27 11.78 18.29 16.68 27.94 2.57 5.06 2.95 11.23 4.1 15.96z"/><path d="m110.64 246.53c1.64-1.46 3.11-2.77 5.19-4.62 4.27 3.75 9 7.25 12.92 11.49 7.22 7.81 12.76 16.55 12.29 27.9-.17 4.19-1.54 7.61-5.79 8.6-5.62 1.31-7.5-.03-9.28-5.98-1.81-6.04-2.78-12.4-5.19-18.17-2.8-6.7-6.75-12.92-10.14-19.22z"/></g><path d="m346.9 398 5.4-7.3h-5.2v-.6h5.9v.6l-5.4 7.2h5.5l-.1.6h-6.2v-.5z" fill="#fbfcfa"/><path d="m354.7 390.1h2.8c2.3 0 3.9 1.6 3.9 4.1s-1.6 4.3-3.9 4.3h-2.8zm.6 7.8h2c2.2 0 3.3-1.6 3.3-3.6 0-1.8-1-3.6-3.3-3.6h-2z" fill="#fbfcfa"/><path d="m363.9 390.1v8.4h-.6v-8.4h1.6z" fill="#fbfcfa"/><path d="m372.5 396.3c-.4 1.3-1.4 2.3-3.2 2.3-2.4 0-3.7-1.9-3.7-4.3 0-2.3 1.2-4.3 3.7-4.3 1.8 0 2.9 1 3.2 2.4h-.6c-.4-1.1-1.1-1.8-2.5-1.8-2.1 0-3 1.9-3 3.7s.9 3.7 3 3.7c1.4 0 2.1-.7 2.5-1.7z" fill="#fbfcfa"/><path d="m373.8 398.5v-1.5h.6v1.5z" fill="#fbfcfa"/><path d="m376.2 398.5v-8.4h1c1.3 2 4.4 6.7 4.9 7.6-.1-1.2-.1-2.4-.1-3.8v-3.8h.7v8.4h-.9c-1.2-1.9-4.4-6.8-5-7.7.1 1.1 0 2.3 0 3.9v3.9h-.6z" fill="#fbfcfa"/><path d="m390 394.4h-4.3v3.5h4.7l-.1.6h-5.2v-8.4h5.1v.6h-4.5v3.1h4.3z" fill="#fbfcfa"/><path d="m394.2 390.7h-2.8v-.6h6.3v.6h-2.8v7.8h-.7z" fill="#fbfcfa"/></svg>