<svg enable-background="new 0 0 400 400" viewBox="0 0 400 400" xmlns="http://www.w3.org/2000/svg"><path d="m60.36 177.08c6.04 3.23 11.74 6.35 17.53 9.32 1.52.78 3.28 1.51 4.94 1.53 11.67.13 23.33.17 35-.04 1.74-.03 3.86-1.16 5.11-2.46 3.4-3.52 6.42-7.39 9.5-11.02 2 1.5 4.04 3.03 6.87 5.15 2.56-7.07 4.86-13.41 7.36-20.28-31.31 0-61.72 0-91.67 0 0 8.32.38 16.54-.15 24.7-.3 4.62-1.51 9.38-3.31 13.67-2.14 5.11-12.31 7.22-17.08 4.13-4.36-2.83-5.03-9.25-1.1-14.6 6.53-8.89 7.48-19.31 8.57-29.69.38-3.63-.27-7.37.22-10.97.22-1.62 1.77-3.78 3.24-4.33 2.3-.87 4.43-.08 4.81 3.2.69 5.91 5.18 4.68 9.7 4.46 0-34.85 0-69.7 0-105.77 6.15 3.66 11.24 6.78 16.44 9.72 1.75.99 3.76 2.08 5.67 2.11 12.33.19 24.67.05 37 .13 2.49.02 4.03-.49 5.59-2.88 2.76-4.23 6.37-7.9 10.13-12.41 4.88 5.06 9.83 9.91 14.45 15.07 3.1 3.47 2.71 7.4-1.35 9.6-5.05 2.73-5.97 6.6-5.92 11.85.22 22.33.09 44.67.09 67v6.06c8.98-.89 8.32-10.01 13.2-13.73 3.82 3.32 7.72 6.72 11.45 9.97 0-24.33 0-49.49 0-75.67 6.9 4.09 12.97 7.76 19.11 11.28 1.51.86 3.29 1.74 4.96 1.75 19.83.12 39.65.08 60.03.08 0-16.22 0-32.28 0-48.64 10.26-1.03 19.82-.18 29.1 2.82 1.68.55 3.71 2.85 3.85 4.49.12 1.43-1.88 3.58-3.48 4.52-3.05 1.81-6.48 2.99-10.05 4.56v31.95c1.44.1 2.87.28 4.3.28 18 .02 36-.1 54 .11 3.72.04 5.64-1.34 7.37-4.43 3.5-6.24 7.4-12.26 11.54-19.02 7.01 8.73 13.71 17.07 20.15 25.09-.87 6.43-4.48 7.42-10.01 7.4-55-.22-110-.13-165-.13-1.97 0-3.94 0-6.21 0v61.76h33.54c0-16.07 0-32.13 0-48.58 9.45-.54 18.17.12 26.39 3.86 2.94 1.34 4.16 4.03 1.51 6.52-2.2 2.08-5.28 3.2-7.75 5.05-1.26.94-2.84 2.54-2.87 3.87-.24 9.63-.13 19.27-.13 29.5 5.28 0 10.25.29 15.14-.18 1.39-.13 2.82-2.31 3.81-3.83 3-4.6 5.8-9.34 9.16-14.81 3.97 5.53 7.6 10.48 11.11 15.51 1.57 2.25 3.19 3.66 6.33 3.44 5.27-.37 10.59-.1 16.42-.1 0-16.46 0-32.53 0-50.03 8.67 1.84 16.7 3.05 24.4 5.35 4.84 1.44 5.16 6.63.5 8.51-7.35 2.97-8.53 8.06-7.99 15.04.53 6.77.12 13.62.12 21.11 6.35 0 12.44.1 18.53-.11.92-.03 1.98-1.43 2.66-2.42 3.5-5.09 6.9-10.26 11.01-16.4 5.26 7.2 10.46 13.81 14.94 20.89.91 1.44-.89 4.61-1.46 7.04-15.22 0-30.04 0-45.41 0v192.68c-5.93 0-11.31 0-17.05 0 0-52.51 0-104.94 0-157.94-2.31 1.38-4.03 2.74-5.97 3.5-2.86 1.12-3.31 3.09-3.29 5.85.09 18.33.42 36.68-.07 55-.38 14.23-2.38 28.32-6.8 41.98-3.69 11.41-8.8 22.04-16.43 31.61-4.34-2.62-5.84-5.34-3.26-10.85 5.57-11.86 7.96-24.71 9.65-37.7 4.02-30.97.99-62.08 1.95-93.1.07-2.14.01-4.28.01-7.56 8.35 1.52 16.15 2.93 23.83 4.33 0-8.26 0-17.69 0-27.45-20.55 0-40.93 0-61.69 0v192.31c-5.75 0-11.13 0-16.92 0 0-52.58 0-105.17 0-158.32-5.64 3.11-8.71 6.38-8.41 13.15.64 14.64.08 29.33.23 43.99.21 21.44-4.01 42-12.67 61.52-3.14 7.07-7.75 13.48-11.88 20.53-2.41-2.03-4.37-3.68-6.52-5.49 6.88-13.44 10.16-27.96 12.09-42.92 4.01-30.98 1-62.08 1.95-93.1.08-2.47.01-4.95.01-8.51 8.68 1.47 16.83 2.86 24.83 4.21 0-8.18 0-17.62 0-27.38-11.22 0-22.27 0-33.83 0 0 14.11.61 28.09-.15 42-1.06 19.37-3.03 38.69-4.84 58.01-1.88 20.08-6.8 39.53-14.18 58.22-4.7 11.91-10.89 23.23-16.46 34.93-8.01-4.9-7.93-4.87-4.89-12.47 6.57-16.41 10.97-33.41 13.49-50.88 2.15-14.9 4.09-29.84 5.96-44.78.61-4.9.94-9.86 1.03-14.8.41-23.93.69-47.87 1.01-71.8.01-.46-.18-.92-.43-2.08-10.65 4.97-12.66 16.91-20.71 23.92.7 1.02 1.32 1.91 1.91 2.81 3.62 5.55 3.65 7.42-1.94 11.08-4.8 3.14-5.95 6.87-5.92 12.34.23 39.66.16 79.33.08 119-.01 5.19-.62 10.23-3.93 14.81-4.28 5.92-10.13 8.42-16.94 9.32-2.37.31-4.83.05-7.57.05-1.86-11.79-11.89-14.29-21.34-17.44 0-2.78 0-5.41 0-7.81 8.3.42 16.43.98 24.56 1.2 4.84.13 7.2-2.11 7.23-6.72.1-14.49.04-28.98.04-43.84-14.59 0-28.98 0-43.92 0v77.37c-6.15 0-11.75 0-17.72 0-.04-59.61-.04-119.19-.04-179.7zm64.22-81.92c0-9.46 0-19.62 0-29.82-15.55 0-30.92 0-46.23 0v84.43h12.49c0-21.14 0-42.06 0-64.07 10.5 7.17 20.6 13.43 33.74 9.46zm-46.36 174.49h43.38c0-11.4 0-22.44 0-33.38-14.65 0-28.91 0-43.38 0zm0-43h43.38c0-10.07 0-19.78 0-29.38-14.65 0-28.9 0-43.38 0zm46.43-76.87c0-15.11 0-29.81 0-44.37-6.41 0-12.45 0-18.38 0v44.37z" fill="#010103"/><path d="m356.82 263.24c5.94.22 7.49 2.88 7.35 8.23-.25 9.24.28 18.53.93 27.76.33 4.7 1.64 9.34 6.82 11.25-.39 2.48-.31 4.91-1.2 6.91-1.88 4.21-4.8 7.63-9.93 7.67-8.83.07-17.69.33-26.49-.25-4.32-.28-6.64-4.04-7.2-8.26-.59-4.4-1.03-8.86-1.04-13.29-.08-37.31-.05-74.63-.04-111.94 0-.97.11-1.94.26-4.3 7.2 1.73 14.05 2.91 20.56 5.1 4.42 1.49 4.75 6.05.42 7.96-6.44 2.85-6.34 7.63-6.31 13.23.14 27.15.03 54.31.11 81.46.01 3.42.32 6.91 1.07 10.24.4 1.79 2.21 4.75 3.07 4.64 2.07-.25 4.82-1.55 5.73-3.25 1.63-3.06 2.62-6.68 2.97-10.16.96-9.5 1.42-19.05 2.14-28.58.1-1.52.52-3.03.78-4.42z" fill="#010103"/><path d="m247.35 187.63c6.25 1.17 12.21 2.06 18.03 3.5 1.73.42 4.41 2.47 4.32 3.58-.18 2.1-1.6 5.24-3.28 5.86-4.28 1.6-4.48 4.43-4.47 8.14.09 26.15.05 52.31.05 78.47v5.59c-5.09 0-9.69 0-14.65 0 0-34.75 0-69.46 0-105.14z" fill="#010103"/><g fill="#fbfcfa"><path d="m346.9 398 5.4-7.3h-5.2v-.6h5.9v.6l-5.4 7.2h5.5l-.1.6h-6.2v-.5z"/><path d="m354.7 390.1h2.8c2.3 0 3.9 1.6 3.9 4.1s-1.6 4.3-3.9 4.3h-2.8zm.6 7.8h2c2.2 0 3.3-1.6 3.3-3.6 0-1.8-1-3.6-3.3-3.6h-2z"/><path d="m363.9 390.1v8.4h-.6v-8.4h1.6z"/><path d="m372.5 396.3c-.4 1.3-1.4 2.3-3.2 2.3-2.4 0-3.7-1.9-3.7-4.3 0-2.3 1.2-4.3 3.7-4.3 1.8 0 2.9 1 3.2 2.4h-.6c-.4-1.1-1.1-1.8-2.5-1.8-2.1 0-3 1.9-3 3.7s.9 3.7 3 3.7c1.4 0 2.1-.7 2.5-1.7z"/><path d="m373.8 398.5v-1.5h.6v1.5z"/><path d="m376.2 398.5v-8.4h1c1.3 2 4.4 6.7 4.9 7.6-.1-1.2-.1-2.4-.1-3.8v-3.8h.7v8.4h-.9c-1.2-1.9-4.4-6.8-5-7.7.1 1.1 0 2.3 0 3.9v3.9h-.6z"/><path d="m390 394.4h-4.3v3.5h4.7l-.1.6h-5.2v-8.4h5.1v.6h-4.5v3.1h4.3z"/><path d="m394.2 390.7h-2.8v-.6h6.3v.6h-2.8v7.8h-.7z"/></g></svg>