<svg enable-background="new 0 0 400 400" viewBox="0 0 400 400" xmlns="http://www.w3.org/2000/svg"><path d="m189 263.81c-6.55 0-12.48 0-18.79 0 0-3.44 0-6.72 0-10.4-27.74 0-55.12 0-83.05 0v15.3c-6.81 0-13.07 0-19.91 0 0-42.87 0-85.88 0-130.26-7.1 7.93-13.29 14.83-19.78 22.07-2.6-1.79-4.83-3.34-7.61-5.25 27.04-36.44 45.4-76.93 55.2-121.16 7.22 1.02 13.85 1.82 20.42 2.97 3.01.53 5.94 1.64 8.83 2.7 3.46 1.27 3.79 3.65 1.28 6.03-1.74 1.65-3.95 3.57-6.14 3.85-7.28.91-8.29 6.19-9.57 12.34 10.43 0 20.52.06 30.61-.09 1.07-.02 2.32-1.16 3.15-2.09 3.93-4.42 7.74-8.94 12.32-14.27 6.28 6.58 12.78 12.81 18.55 19.66 4.21 4.99 3.82 6.19-1.93 8.46-6.16 2.44-10.29 6.46-13.92 11.97-7.86 11.94-16.45 23.41-24.95 35.37 11.14 0 22.24.13 33.33-.15 1.58-.04 3.38-1.83 4.62-3.21 2.62-2.91 4.72-6.32 7.51-9.04.84-.81 3.87-.72 4.81.14 5.45 4.99 10.68 10.24 15.76 15.6 2.64 2.79 1.81 6.27-1.35 7.38-8.62 3.02-9.69 8.98-9.59 17.18.43 36.31.19 72.63.19 108.95.01 1.8.01 3.62.01 5.95zm-45.51-192.81c-12 0-22.81.15-33.61-.08-3.53-.07-4.66 1.57-5.97 4.45-3.96 8.75-8.27 17.35-12.63 25.91-2.72 5.32-5.78 10.46-9.52 17.17 5.09.99 9.06 2.22 13.08 2.44 6.64.37 13.33-.21 19.97.2 4.99.31 7.8-.7 9.86-6.01 5.7-14.66 12.3-28.99 18.82-44.08zm26.29 119.36c-11.77 0-23.15 0-34.38 0v53.38h34.38c0-17.86 0-35.44 0-53.38zm-34.49-60.25v50.55h34.33c0-17.05 0-33.75 0-50.55-11.52 0-22.65 0-34.33 0zm-18.51 60.16c-10.17 0-19.77 0-29.46 0v53.36h29.46c0-17.94 0-35.52 0-53.36zm-.18-9.45c0-17.24 0-33.94 0-50.55-9.99 0-19.58 0-29.29 0v50.55z" fill="#010103"/><path d="m179.53 358.13c-1.81-2.27-3.63-4.55-6.15-7.7 2.23-2 4.61-4.02 6.85-6.18 18.98-18.31 34.09-39.45 45.23-63.3 8.3-17.77 14.43-36.35 17.45-55.76 2.47-15.85 5.02-31.77 5.93-47.75 1.65-28.93 2.1-57.93 3.07-87.29-17.65 0-33.93 0-50.32 0-1.15-3.12-2.21-5.96-3.39-9.14h55.94c22.5 0 44.99.05 67.49-.1 1.76-.01 3.97-1.02 5.18-2.32 4.25-4.57 8.15-9.46 12.59-14.7 2.25 1.77 4.47 3.3 6.44 5.11 4.56 4.21 9.22 8.34 13.4 12.9 3.14 3.43 2.71 7.76-1.47 9.52-9.12 3.85-10.22 10.57-9.94 19.39.61 19.31.31 38.65.15 57.98-.12 13.77-.48 27.54-1 41.3-.46 12.21-.95 24.43-2.03 36.6-2.08 23.48-3.39 47.08-8.9 70.14-2.2 9.2-5.75 17.8-12.23 24.71-7.19 7.68-16.34 11.8-26.93 12.43-2.1.13-4.22.02-6.72.02-2.01-14.08-14.3-15.6-25.01-18.92-5.86-1.82-11.95-2.88-17.95-4.28 0-2.99 0-5.61 0-8.91 4.09.39 7.93.86 11.79 1.11 11.03.72 22.06 1.78 33.09 1.91 17.77.21 22.78-10.01 24.8-22.31 2.53-15.33 4.21-30.81 6.06-46.25.66-5.56.84-11.19 1.06-16.79.72-18.7 1.74-37.39 1.94-56.1.32-30.91.09-61.82.09-93.09-17.31 0-35.36 0-53.75 0-.09 1.44-.25 2.89-.25 4.33-.02 12.5-.15 25 .02 37.49.29 21.67-1.34 43.19-3.89 64.71-2.6 21.97-6.85 43.52-14.23 64.33-7.64 21.54-18.67 41.28-33.45 58.91-11.93 14.2-25.25 26.8-40.96 38z" fill="#010103"/><path d="m82.41 301.94c.26 17.04-3.39 32.9-13.43 46.89-3.65 5.1-7.62 9.82-15.12 9.27-5.97-.43-10.18-3.59-12.27-8.41-1.8-4.16-1.11-8.82 2.76-12.69 11.13-11.13 20.25-23.59 23.74-39.38 1.01-4.6 1.75-9.27 3.01-13.8.41-1.45 2.84-3.76 3.09-3.61 2.24 1.35 6.57-.82 6.83 3.98.33 5.93.92 11.83 1.39 17.75z" fill="#010103"/><path d="m96.91 281.47c2.49-.77 4.62-1.42 7.13-2.2 10.15 17.27 19.04 34.94 16.83 55.79-.97 9.1-5.17 14.86-15.76 13.95-3.43-.3-5.79-2.19-5.96-5.44-.25-4.6.45-9.24.47-13.86.04-10.61.17-21.23-.26-31.82-.24-5.48-1.59-10.9-2.45-16.42z" fill="#010103"/><path d="m130.63 277.7c2.7-1.33 4.84-2.39 7.35-3.62 5.9 7.37 12.02 14.45 17.51 22 6.43 8.85 8.48 19.07 7.48 29.87-.76 8.19-12.22 13.73-18.93 8.83-1.89-1.38-2.94-5.1-2.89-7.72.22-12.43-.39-24.66-5.13-36.35-1.71-4.21-3.48-8.4-5.39-13.01z" fill="#010103"/><path d="m162.93 272.53c2.19-3.45 5.41-3.96 9.76-1.33 10.05 6.09 20.76 11.27 27.53 21.54 3.96 6.01 3.74 12.4 1.49 18.82-1.41 4.04-4.58 5.51-8.9 5.52-4.39.01-7.87-1.08-9.48-5.41-1.91-5.16-2.88-10.78-5.48-15.53-4.35-7.96-9.66-15.4-14.92-23.61z" fill="#010103"/><g fill="#fbfcfa"><path d="m346.9 398 5.4-7.3h-5.2v-.6h5.9v.6l-5.4 7.2h5.5l-.1.6h-6.2v-.5z"/><path d="m354.7 390.1h2.8c2.3 0 3.9 1.6 3.9 4.1s-1.6 4.3-3.9 4.3h-2.8zm.6 7.8h2c2.2 0 3.3-1.6 3.3-3.6 0-1.8-1-3.6-3.3-3.6h-2z"/><path d="m363.9 390.1v8.4h-.6v-8.4h1.6z"/><path d="m372.5 396.3c-.4 1.3-1.4 2.3-3.2 2.3-2.4 0-3.7-1.9-3.7-4.3 0-2.3 1.2-4.3 3.7-4.3 1.8 0 2.9 1 3.2 2.4h-.6c-.4-1.1-1.1-1.8-2.5-1.8-2.1 0-3 1.9-3 3.7s.9 3.7 3 3.7c1.4 0 2.1-.7 2.5-1.7z"/><path d="m373.8 398.5v-1.5h.6v1.5z"/><path d="m376.2 398.5v-8.4h1c1.3 2 4.4 6.7 4.9 7.6-.1-1.2-.1-2.4-.1-3.8v-3.8h.7v8.4h-.9c-1.2-1.9-4.4-6.8-5-7.7.1 1.1 0 2.3 0 3.9v3.9h-.6z"/><path d="m390 394.4h-4.3v3.5h4.7l-.1.6h-5.2v-8.4h5.1v.6h-4.5v3.1h4.3z"/><path d="m394.2 390.7h-2.8v-.6h6.3v.6h-2.8v7.8h-.7z"/></g></svg>