<svg enable-background="new 0 0 400 400" viewBox="0 0 400 400" xmlns="http://www.w3.org/2000/svg"><path d="m142.97 261.68c0-3.63 0-6.78 0-10.31-21.57 0-42.96 0-64.9 0v15.38c-6.14 0-11.75 0-17.95 0 0-43.33 0-86.68 0-131.29-6.99 7.82-13.09 14.64-19.43 21.73-2.06-2.15-3.84-4.03-5.85-6.13 24.92-36.03 42.09-75.58 52.77-119.2 9 1.78 17.89 3.34 26.65 5.44 1.82.44 3.77 2.67 4.44 4.52.3.84-2.27 2.88-3.74 4.14-.97.83-2.29 1.73-3.46 1.74-8.13.1-7.31 7.01-10.13 12.29 9.18 0 17.47.07 25.76-.09 1.1-.02 2.41-.99 3.22-1.89 3.83-4.26 7.52-8.65 12.34-14.23 6.06 6.55 12.13 12.76 17.73 19.37 1.67 1.98 3.87 6.22-.51 7.17-12.12 2.64-16.37 12.75-22.37 21.47-6.2 9.02-12.89 17.7-19.35 26.54-.26.35-.39.79-.81 1.66 7.34 0 14.31.35 21.21-.22 2.02-.17 4.03-2.75 5.7-4.54 3.24-3.49 6.23-7.2 9.65-11.19 4.91 5.04 10.12 10.06 14.94 15.44 3.71 4.15 3.04 7.97-1.71 10.85-4.47 2.72-6.36 5.98-6.31 11.61.32 37.99.17 75.99.17 113.98v5.74c-6.07.02-11.79.02-18.06.02zm-13.89-192.68c-9.92 0-18.9-.13-27.86.13-1.43.04-3.4 1.56-4.13 2.93-4.8 9.07-9.2 18.34-13.99 27.41-2.85 5.39-6.17 10.53-8.91 15.15 5.13 6.31 11.73 5.44 18.14 5.38 3.66-.04 7.35.3 10.95-.14 1.67-.21 3.86-1.52 4.6-2.96 4.31-8.41 8.46-16.92 12.29-25.56 3.16-7.12 5.79-14.45 8.91-22.34zm-10.99 172.68h24.56c0-18.02 0-35.72 0-53.28-8.4 0-16.45 0-24.56 0zm.26-112.45v49.37h24.39c0-16.65 0-32.9 0-49.37-8.19 0-16.11 0-24.39 0zm-40 58.99v53.37h21.38c0-17.99 0-35.57 0-53.37-7.18 0-14.11 0-21.38 0zm21.42-58.87c-7.42 0-14.46 0-21.39 0v49.39h21.39c0-16.51 0-32.76 0-49.39z" fill="#010103"/><path d="m298.18 353.99c-6.54 0-12.19.01-17.84-.01-.63 0-1.26-.15-2.09-.27 0-105.11 0-210.02 0-315.72 10.34.75 20.78.28 30.49 4.97 3.64 1.76 3.13 4.66.84 6.77-2.07 1.92-5.15 2.69-7.49 4.39-1.63 1.18-3.88 3.05-3.91 4.64-.29 16.15-.18 32.3-.18 49.17 8.75 0 17.38.46 25.89-.31 2.21-.2 4.2-4.18 6.07-6.59 3.81-4.9 7.47-9.91 11.61-15.44 6.8 7.66 13.49 14.91 19.76 22.51 1.1 1.33 1.13 4.4.38 6.12-.59 1.36-3.11 2.64-4.79 2.66-17.66.19-35.32.12-52.98.12-1.8 0-3.6 0-5.66 0v55.94c7.45 0 15.04.09 22.61-.11 1.04-.03 2.28-1.32 3.04-2.32 4.55-5.98 8.98-12.05 13.7-18.41 6.86 7.55 13.74 15.03 20.46 22.66.6.68.65 2.74.08 3.37-1.39 1.54-3.24 3.61-5 3.7-7.81.4-15.65.17-23.48.17-10.32 0-20.63 0-31.32 0v62.98c8.91 0 17.84.05 26.77-.09.81-.01 1.75-1.12 2.38-1.92 5.52-6.91 10.97-13.87 17.11-21.65 7.95 9.19 15.54 17.96 22.92 26.48-1.48 5.97-5.44 6.37-10.4 6.3-19.47-.26-38.95-.11-58.97-.11z" fill="#010103"/><path d="m226.81 243.75c-10.96 7.95-22.04 15.71-32.71 24-1.91 1.49-2.05 5.2-3.12 7.84-.87 2.15-1.92 4.23-2.89 6.34-1.98-1.09-4.72-1.67-5.82-3.34-4.82-7.31-9.18-14.93-13.88-22.75 11.62-4.52 22.38-8.48 32.96-12.89 7.82-3.27 15.44-7.04 23.04-10.8 1.17-.58 2.48-2.34 2.49-3.57.17-15.3.11-30.6.11-46.57-6.21 0-12.15 0-18.08 0-6.33 0-12.66 0-18.99 0-8.55 0-8.55 0-11.31-9.06h48.11c0-18.63 0-36.9 0-55.94-1.49 0-3.07 0-4.65 0-12.83 0-25.66 0-38.48 0-7.76 0-8.53-.68-9.89-8.98h53.02c0-23.21 0-46.26 0-69.98 10.66.13 20.76.21 30.4 3.74 1.61.59 3.37 2.8 3.63 4.48.22 1.4-1.55 3.21-2.64 4.68-.55.75-1.49 1.47-2.38 1.67-7.7 1.75-7.89 7.15-7.87 13.75.23 56.14.18 112.28.1 168.42-.02 14.65-2.58 28.98-6.38 43.11-4.33 16.08-11.33 30.91-21.23 44.27-9.88 13.32-21.77 24.57-36.06 33.15-2.09 1.25-4.16 2.52-6.22 3.76-2.1-2.11-4.05-4.07-6.37-6.4 36.36-27.27 52.26-64.87 55.11-108.93z" fill="#010103"/><path d="m70.89 280.32c.11 18.69 1.89 37.29-5.94 54.76-2.64 5.9-5.63 11.91-9.72 16.82-4.99 5.98-15.75 6.19-19.43-.62-2.03-3.75-.76-11.47 3.39-15.88 14.03-14.93 20.39-33.1 22.79-52.98.33-2.7 1.08-4.05 4.08-2.92 1.35.51 2.9.51 4.83.82z" fill="#010103"/><path d="m85.72 280.61c6.94-4.27 9.01 1.03 11.28 5.54 8.05 16.03 13.74 32.74 11.88 50.98-.92 9.07-4.32 14.89-15.09 13.9-4.33-.4-6.84-2.41-6.74-6.78.1-4.77.44-9.55.99-14.29 1.71-14.84 1.88-29.58-1.95-44.17-.44-1.68-.26-3.52-.37-5.18z" fill="#010103"/><path d="m113.97 279.74c.48-.54.77-.95 1.14-1.28 3.57-3.16 5.87-3.36 9.36 1.18 9.47 12.29 17.58 25.17 20.01 40.66 1.03 6.55 2.73 13.91-3.01 19.66-4.3 4.32-11.48 2.85-13.79-2.83-.84-2.07-1.61-4.37-1.6-6.56.02-17.94-4.35-34.82-12.11-50.83z" fill="#010103"/><path d="m140.11 273.43c2.15-1.64 3.96-3.02 6.08-4.62 13.71 9.79 28.16 19.02 32.79 36.78 1.14 4.37.85 9.43-.02 13.94-1.06 5.45-5.87 5.72-10.56 5.5-4.48-.21-5.69-3.49-6.33-6.84-2.5-13.12-6.89-25.41-15.07-36.14-2.23-2.92-4.58-5.74-6.89-8.62z" fill="#010103"/><g fill="#fbfcfa"><path d="m346.9 398 5.4-7.3h-5.2v-.6h5.9v.6l-5.4 7.2h5.5l-.1.6h-6.2v-.5z"/><path d="m354.7 390.1h2.8c2.3 0 3.9 1.6 3.9 4.1s-1.6 4.3-3.9 4.3h-2.8zm.6 7.8h2c2.2 0 3.3-1.6 3.3-3.6 0-1.8-1-3.6-3.3-3.6h-2z"/><path d="m363.9 390.1v8.4h-.6v-8.4h1.6z"/><path d="m372.5 396.3c-.4 1.3-1.4 2.3-3.2 2.3-2.4 0-3.7-1.9-3.7-4.3 0-2.3 1.2-4.3 3.7-4.3 1.8 0 2.9 1 3.2 2.4h-.6c-.4-1.1-1.1-1.8-2.5-1.8-2.1 0-3 1.9-3 3.7s.9 3.7 3 3.7c1.4 0 2.1-.7 2.5-1.7z"/><path d="m373.8 398.5v-1.5h.6v1.5z"/><path d="m376.2 398.5v-8.4h1c1.3 2 4.4 6.7 4.9 7.6-.1-1.2-.1-2.4-.1-3.8v-3.8h.7v8.4h-.9c-1.2-1.9-4.4-6.8-5-7.7.1 1.1 0 2.3 0 3.9v3.9h-.6z"/><path d="m390 394.4h-4.3v3.5h4.7l-.1.6h-5.2v-8.4h5.1v.6h-4.5v3.1h4.3z"/><path d="m394.2 390.7h-2.8v-.6h6.3v.6h-2.8v7.8h-.7z"/></g></svg>