<svg enable-background="new 0 0 400 400" viewBox="0 0 400 400" xmlns="http://www.w3.org/2000/svg"><path d="m86.31 31.69c8.69 2.38 17.47 4.63 26.12 7.29 1.47.45 3.35 2.74 3.28 4.09s-2.3 2.65-3.69 3.84c-.44.38-1.25.3-1.86.51-7.99 2.8-7.99 2.81-10.18 12.54 9.36 0 18.58.31 27.74-.26 1.85-.11 3.56-3.49 5.22-5.46 2.52-3.01 4.93-6.11 7.64-9.5 5.82 5.24 11.57 10.19 17.04 15.43 5.25 5.04 4.89 9.02-1.78 11.18-6.72 2.18-9.57 7.2-12.84 12.46-7.47 12.03-15.17 23.91-22.96 36.16 9.17 0 18.72.04 28.27-.07.67-.01 1.42-1.01 1.99-1.67 3.73-4.33 7.43-8.7 11.59-13.59 5.62 5.85 11.14 11.49 16.53 17.25 2.96 3.16 2.38 6.22-1.4 8.04-6.6 3.17-8.28 8.02-8.21 15.28.41 38.32.19 76.65.19 115.39-6.2 0-12.26 0-18.86 0 0-2.93 0-5.99 0-9.32-24.48 0-48.41 0-72.9 0v15.39c-6.6 0-12.65 0-19.11 0 0-42.36 0-84.61 0-128.39-6.35 7.48-11.79 13.88-17.23 20.29-.31-.05-.66.01-.83-.14-6.63-5.81-6.74-5.89-1.7-13.15 15.83-22.84 28.05-47.47 36.58-73.88 4.02-12.5 7.25-25.27 11.36-39.71zm44.02 37.31c-11.24 0-20.72.17-30.19-.08-3.7-.1-5.04 1.44-6.26 4.69-2.86 7.6-6 15.13-9.55 22.43-3.4 6.98-7.47 13.62-11.96 21.69 5.47.85 10.02 1.91 14.63 2.19 5.97.36 11.98-.06 17.97.15 2.69.1 4.08-.69 5.14-3.24 6.47-15.59 13.13-31.11 20.22-47.83zm-8.98 119.22v53.37h28.39c0-17.99 0-35.57 0-53.37-9.52 0-18.78 0-28.39 0zm28.32-9.47c0-16.69 0-33.06 0-49.37-9.71 0-19.08 0-28.44 0v49.37zm-72.33 9.48v53.37h25.4c0-17.98 0-35.56 0-53.37-8.51 0-16.77 0-25.4 0zm25.3-9.44c0-16.81 0-33.17 0-49.55-8.62 0-16.88 0-25.36 0v49.55z" fill="#010103"/><path d="m272.25 93v46h30.1c4 0 8.07-.48 11.98.1 8.73 1.28 15.06-1.39 19.51-9.27 2.38-4.22 5.87-7.8 9.21-12.12 4.57 4.56 9.17 9.05 13.66 13.65 1.95 2 3.68 4.2 5.48 6.34 1.39 1.64 4.02 2.7 2.09 5.75-1.58 2.51-2.68 4.7-6.49 4.66-20.66-.23-41.32-.11-62.79-.11v5.88c0 10.33-.1 20.67.05 31 .07 4.77.32 9.58 1.13 14.26.3 1.75 2.44 4.53 3.75 4.54 10 .06 20.1 1.64 29.94-1.99 8.02-2.96 7.96-10.04 9.06-16.47 1.13-6.59 1.73-13.28 2.6-20.19 1.68.59 3.31 1.46 5.03 1.7 2.72.38 3.44 1.76 3.5 4.35.16 6.77.6 13.53.95 20.29.26 4.93 2.8 8.76 7.28 10.12 4.87 1.48 4.2 4.34 3.09 7.59-2.62 7.7-8.74 10.61-16.24 10.86-15.59.51-31.2 1.04-46.79.89-5.86-.06-12.05-.5-17.03-4.91-3.64-3.22-5.1-7.26-5.26-11.74-.5-14.09-.75-28.2-1.05-42.3-.09-4.46-.01-8.92-.01-13.88-7.89 0-15.35-.17-22.78.18-1.13.05-2.78 2.41-3.11 3.93-1.56 7.32-2.23 14.87-4.18 22.07-4.93 18.21-14.83 33.23-29.6 45.23-9.9 8.04-20.91 13.7-32.48 18.76-5.08 2.22-5.17-2.07-6.71-4.07-2.04-2.64.81-3.39 2.57-4.41 22.01-12.79 37.89-30.62 44.58-55.57 2.23-8.33 3.21-16.99 4.87-26.13-10.03 0-19.45 0-28.87 0-4.33 0-8.67 0-13 0-8.92 0-8.92 0-11.72-9.03h77.13c0-15.3 0-30.24 0-45.97-1.62 0-3.36 0-5.11 0-17.33 0-34.66 0-51.99 0-8.39 0-8.39 0-10.31-8.94h67.5c0-15.99 0-31.72 0-48.18 10.77.94 21.12.35 30.66 5.03 4.92 2.41 5 5.6.54 8.62-1.08.73-2.1 1.85-3.29 2.09-7.15 1.47-8.46 6.06-7.84 12.61.6 6.28.14 12.65.14 19.78h14.89c5.33 0 10.71-.45 15.98.12 5.39.59 8.4-1.81 11.15-5.92 3.53-5.28 7.53-10.24 11.97-16.21 7.54 8.38 14.67 16.3 21.4 23.79-1.42 7.2-6.27 7.39-11.9 7.32-19.16-.25-38.33-.1-57.49-.1-1.79 0-3.59 0-5.75 0z" fill="#010103"/><path d="m272 264c12.57 0 24.39.07 36.2-.1 1.3-.02 2.95-1.1 3.81-2.18 4.86-6.13 9.52-12.41 14.57-19.05 6.59 7.08 13 13.79 19.15 20.73 1.05 1.19 1.74 3.55 1.32 5-.74 2.56-2.14 4.72-5.79 4.69-20.99-.18-41.99-.09-62.99-.09-1.83 0-3.65 0-5.88 0v59h10.68c12.66 0 25.33-.14 37.99.09 3.54.06 6.04-1.02 8.07-3.73 4.99-6.66 10-13.32 15.53-20.68 5.87 6.48 11.59 12.78 17.28 19.1 1.09 1.22 2.26 2.42 3.08 3.82.99 1.68 2.79 4.16 2.23 5.24-1.25 2.37-1.96 5.35-6.43 5.33-63.48-.24-126.97-.23-190.46-.07-6.74.02-5.39-5.66-8.74-9.22h90.14c0-19.63 0-38.89 0-58.88-1.76 0-3.51 0-5.27 0-17.66 0-35.33 0-52.99 0-7.67 0-8.62-.86-9.7-9.03h68c0-15.24 0-30.3 0-46.07 10.26.98 20.07.91 29.13 5.14 4 1.87 4.17 4.73.79 7.7-.6.53-1.3 1.08-2.05 1.29-6.99 2.01-8.48 6.81-7.8 13.52.6 5.9.13 11.91.13 18.45z" fill="#010103"/><path d="m62.44 278.41c8.56 1.73 8.57 1.73 8.56 10.34-.02 12.52.82 25.11-3 37.33-2.8 8.94-6.17 17.59-12.97 24.39-4.89 4.89-11.97 5.03-16.97-.08-3.99-4.07-4.68-8.35-.04-14.92 4.61-6.53 9.67-12.82 13.51-19.78 5.55-10.07 7.88-21.3 9.47-32.64.11-.82-.01-1.7.23-2.47.22-.77.78-1.43 1.21-2.17z" fill="#010103"/><path d="m93.32 277.97c7.37 13.04 13.33 26.51 15.34 41.08 1.07 7.78 1.7 16.07-1.64 23.91-2.62 6.13-11.04 9.45-16.85 6.05-5.03-2.94-3.52-8.06-2.93-12.1 2.27-15.58 2.99-31.07-.09-46.6-.44-2.24-.79-4.49-1.11-6.75-.48-3.3-.12-3.56 7.28-5.59z" fill="#010103"/><path d="m116.21 278.2c6.47-4.1 6.51-4.13 10.72 1.25 7.55 9.64 14.46 19.68 18.46 31.4 2.74 8.03 4.34 16.33 1.34 24.51-2.2 5.98-7.21 8.25-13.28 6.52-4.81-1.38-6.24-6-6.3-10.16-.2-13.54-2.45-26.69-6.18-39.62-1.34-4.64-3.12-9.15-4.76-13.9z" fill="#010103"/><path d="m149.88 266.88c6.45 5.95 13.08 11.66 19.24 17.84 7.19 7.22 11.36 15.89 10.91 26.41-.22 5.17-3.01 9.29-6.97 9.85-7.34 1.03-10.45-.87-12.02-7.54-1.45-6.17-1.93-12.7-4.3-18.48-3.31-8.07-7.96-15.58-12.33-23.88 1.29-.97 3.18-2.43 5.47-4.2z" fill="#010103"/><g fill="#fbfcfa"><path d="m346.9 398 5.4-7.3h-5.2v-.6h5.9v.6l-5.4 7.2h5.5l-.1.6h-6.2v-.5z"/><path d="m354.7 390.1h2.8c2.3 0 3.9 1.6 3.9 4.1s-1.6 4.3-3.9 4.3h-2.8zm.6 7.8h2c2.2 0 3.3-1.6 3.3-3.6 0-1.8-1-3.6-3.3-3.6h-2z"/><path d="m363.9 390.1v8.4h-.6v-8.4h1.6z"/><path d="m372.5 396.3c-.4 1.3-1.4 2.3-3.2 2.3-2.4 0-3.7-1.9-3.7-4.3 0-2.3 1.2-4.3 3.7-4.3 1.8 0 2.9 1 3.2 2.4h-.6c-.4-1.1-1.1-1.8-2.5-1.8-2.1 0-3 1.9-3 3.7s.9 3.7 3 3.7c1.4 0 2.1-.7 2.5-1.7z"/><path d="m373.8 398.5v-1.5h.6v1.5z"/><path d="m376.2 398.5v-8.4h1c1.3 2 4.4 6.7 4.9 7.6-.1-1.2-.1-2.4-.1-3.8v-3.8h.7v8.4h-.9c-1.2-1.9-4.4-6.8-5-7.7.1 1.1 0 2.3 0 3.9v3.9h-.6z"/><path d="m390 394.4h-4.3v3.5h4.7l-.1.6h-5.2v-8.4h5.1v.6h-4.5v3.1h4.3z"/><path d="m394.2 390.7h-2.8v-.6h6.3v.6h-2.8v7.8h-.7z"/></g></svg>