<svg enable-background="new 0 0 400 400" viewBox="0 0 400 400" xmlns="http://www.w3.org/2000/svg"><g fill="#010103"><path d="m208.25 192v36h5.6c34.5 0 69-.42 103.48.29 8.94.18 13.64-4.22 18.54-9.86 1.5-1.72 2.85-3.57 4.78-6 6.37 5.94 12.53 11.48 18.44 17.28 3.33 3.26 2.96 7.18-1.23 9.21-7.36 3.57-8.89 8.97-9.15 16.93-.77 23.58-2.7 47.12-8.74 70.11-4.73 18.03-20.67 30.37-37.44 28.7-1.78-10.15-7.23-14.44-20.56-16.68-9.28-1.56-18.51-3.47-27.79-5.23 0-3.33 0-6.28 0-8.49 17.07.59 33.97 1.27 50.88 1.71 8.65.22 14.93-5.03 16.96-13.34 3.37-13.71 5.69-27.54 6.05-41.71.25-9.71 1.26-19.4 1.9-29.1.09-1.44.01-2.9.01-4.57-40.74 0-81.01 0-121.83 0v15.48c-6.81 0-13.08 0-19.75 0 0-60.26 0-120.65 0-181.74 12.66 5.72 24.81 13.75 40.75 8.9 2.74-14.99 5.68-31.11 8.76-47.98 3.8.68 8.12 1.15 12.28 2.26 5.64 1.51 11.32 3.13 16.65 5.46 2.16.94 4.18 3.65 4.83 5.96.3 1.08-2.6 3.42-4.42 4.62-1.55 1.03-3.74 1.03-5.45 1.88-1.78.89-3.84 1.9-4.87 3.45-5.43 8.26-10.58 16.73-16.04 25.46h20.03c10.33 0 20.67-.27 30.99.12 4.8.18 8.42-.75 11.33-4.76 2.69-3.7 5.85-7.07 9.35-11.24 1.88 1.5 4.02 3.02 5.95 4.78 4.69 4.29 9.34 8.63 13.89 13.07 2.71 2.65 2.16 5.28-.56 7.65-.38.33-.67.84-1.11.99-8.46 2.92-9.16 9.35-8.93 17.2.51 17.8.16 35.63.16 53.82-6.6 0-12.99 0-19.93 0 0-4.35 0-8.76 0-13.38-31.48 0-62.41 0-93.71 0v33.49c1.27.09 2.54.26 3.82.26 38.5.01 76.99 0 115.49.04 2.6 0 4.28-.48 6.05-2.96 4.26-5.97 9.29-11.38 14.44-17.52 8.03 7.23 15.98 14.38 23.8 21.42-1.72 6.34-5.2 8.24-11.47 8.2-48.66-.29-97.32-.16-145.98-.16-1.96-.02-3.92-.02-6.25-.02zm-.03-52.35h93.37c0-16.73 0-33.11 0-49.39-31.32 0-62.23 0-93.37 0z"/><path d="m163 261.75c-6.33 0-11.94 0-17.9 0 0-3.51 0-6.78 0-10.4-24.08 0-47.8 0-71.9 0v15.25c-6.41 0-12.47 0-19.15 0 0-42.89 0-85.89 0-129.95-6.04 7.32-11.31 13.71-17.02 20.63-2.23-1.69-4.51-3.41-7.16-5.42 24.82-36.48 41.62-76.06 50.64-120.03 8.99 1.77 17.73 3.27 26.33 5.36 1.97.48 3.44 2.99 5.14 4.57-1.5 1.47-2.75 3.61-4.55 4.28-6.58 2.46-11.69 5.86-11.62 13.96 8.33 0 16.84.21 25.31-.17 1.77-.08 3.7-2.05 5.12-3.56 3.34-3.58 6.41-7.41 10.23-11.9 6.08 6.29 12.26 12.39 18.04 18.85 1.57 1.75 3.37 5.48-.41 6.58-10.19 2.99-14.33 11.21-19.07 19.46-5.89 10.26-12.61 20.03-19.41 30.72 9.6 0 18.52.04 27.44-.07.71-.01 1.55-.85 2.11-1.5 3.43-3.97 6.8-7.99 10.85-12.78 5.62 5.38 11.54 10.54 16.8 16.3 2.16 2.36 2.52 5.88-1.79 7.55-7.22 2.8-8.29 8.24-8.22 15.5.4 36.99.18 74 .18 111 .01 1.82.01 3.62.01 5.77zm-38.23-192.75c-10.18 0-19.28.16-28.37-.09-3.3-.09-5.03.95-6.43 3.92-6.84 14.44-13.89 28.79-20.79 43 5.8 5.25 13.46 3.48 20.74 4.35 10.35 1.23 16.65-1.45 19.95-12.3 3.94-12.99 9.65-25.43 14.9-38.88zm-51.52 172.67h26.39c0-18.03 0-35.73 0-53.44-8.96 0-17.55 0-26.39 0zm71.4.1c0-18.1 0-35.8 0-53.37-9.07 0-17.78 0-26.39 0v53.37zm-71.44-63.03h26.49c0-16.63 0-32.99 0-49.39-9.01 0-17.72 0-26.49 0zm71.44.03c0-16.76 0-33.13 0-49.37-9.07 0-17.78 0-26.39 0v49.37z"/><path d="m57.03 278.23c10.47 1.91 8.2.55 9.6 14.07 1.63 15.6 1.71 31.74-5.81 46.35-2.79 5.41-6.81 10.39-11.07 14.78-3.42 3.52-11.96 1.98-15.73-1.9-4.22-4.34-4.38-10.74.03-16 6.96-8.3 13.81-16.77 16.71-27.34 2.67-9.7 4.18-19.71 6.27-29.96z"/><path d="m192.34 265.45c2.8.65 5.59 1.29 8.65 2 0 21.33.57 42.6-6.04 63.18-2.95 9.17-7.18 12.24-15.42 12.42-4.24.09-7.72-.77-9.84-4.8-2.56-4.87-2.86-9.78.14-14.49 4.46-7 10.29-13.39 13.41-20.93 3.75-9.05 5.34-19.01 7.72-28.62.7-2.84.93-5.8 1.38-8.76z"/><path d="m79.94 280.39c.98-.33 2.43-1.31 3.71-1.12 1.79.26 4.34.92 5.05 2.23 6.39 11.79 12.11 24.08 13.87 37.37 1.11 8.39 2.46 17.48-2.43 25.68-3.28 5.5-8.16 7.95-14.16 6.34-4.72-1.27-5.33-5.1-5.19-9.21.39-11.26 1.19-22.51 1.09-33.76-.09-9.15-1.25-18.29-1.94-27.53z"/><path d="m214.85 265.54c2.53-1.23 4.57-2.22 7.3-3.54 4.84 8.76 10.39 17.25 14.4 26.42 5.02 11.48 7.45 23.7 4.38 36.31-1.02 4.19-4.17 6.74-8.34 7.17-4.54.47-9.7.99-11.66-4.68-.93-2.67-1.16-5.83-.82-8.66 2.1-17.17 1.29-34.02-4.53-50.45-.26-.74-.43-1.52-.73-2.57z"/><path d="m108.88 278.61c1.9-.94 3.56-2.04 5.39-2.57 1.1-.32 3.04-.21 3.62.51 8.95 11.01 18.08 22.12 21.27 36.3 1.5 6.67 1.91 14.08.63 20.73-1.27 6.62-5.67 8.32-11.89 7.41-3.5-.51-6.95-5.36-6.83-10.78.4-18.21-4.27-35.18-12.19-51.6z"/><path d="m240.99 259.38c1.43-1.29 3.02-2.73 4.96-4.48 12.05 8.09 23.12 17.21 30.23 30.55 3.32 6.22 3.29 12.76 2.58 19.2-.42 3.83-3.11 7.22-7.94 7.36-6.09.18-11.28-2.23-11.52-6.73-.9-17.01-8.1-31.28-17.97-44.57-.18-.23-.17-.61-.34-1.33z"/><path d="m274.72 252.14c1.58-2.28 3.05-4.4 4.65-6.71 11.34 6.62 22.01 13.98 29.68 25.06 4.35 6.29 5.77 13.19 4.86 20.56-.5 4.07-2.68 7.37-7.25 7.91-5.86.69-8.96-.91-10.49-5.76-1.46-4.63-2.1-9.54-3.67-14.13-3.5-10.22-9.64-18.83-17.78-26.93z"/><path d="m135.96 272.98c1.72-1.98 3.02-3.48 4.4-5.06 11.53 7.02 22.63 13.92 29.67 25.6 3.73 6.2 4.29 12.69 1.54 19.25-1.35 3.22-4.3 4.46-8 4.31-3.49-.14-6.14-1.13-7.34-4.56-1.88-5.35-3.01-11.08-5.62-16.03-3.7-7.02-8.48-13.48-12.77-20.2-.7-1.08-1.28-2.24-1.88-3.31z"/></g><path d="m346.9 398 5.4-7.3h-5.2v-.6h5.9v.6l-5.4 7.2h5.5l-.1.6h-6.2v-.5z" fill="#fbfcfa"/><path d="m354.7 390.1h2.8c2.3 0 3.9 1.6 3.9 4.1s-1.6 4.3-3.9 4.3h-2.8zm.6 7.8h2c2.2 0 3.3-1.6 3.3-3.6 0-1.8-1-3.6-3.3-3.6h-2z" fill="#fbfcfa"/><path d="m363.9 390.1v8.4h-.6v-8.4h1.6z" fill="#fbfcfa"/><path d="m372.5 396.3c-.4 1.3-1.4 2.3-3.2 2.3-2.4 0-3.7-1.9-3.7-4.3 0-2.3 1.2-4.3 3.7-4.3 1.8 0 2.9 1 3.2 2.4h-.6c-.4-1.1-1.1-1.8-2.5-1.8-2.1 0-3 1.9-3 3.7s.9 3.7 3 3.7c1.4 0 2.1-.7 2.5-1.7z" fill="#fbfcfa"/><path d="m373.8 398.5v-1.5h.6v1.5z" fill="#fbfcfa"/><path d="m376.2 398.5v-8.4h1c1.3 2 4.4 6.7 4.9 7.6-.1-1.2-.1-2.4-.1-3.8v-3.8h.7v8.4h-.9c-1.2-1.9-4.4-6.8-5-7.7.1 1.1 0 2.3 0 3.9v3.9h-.6z" fill="#fbfcfa"/><path d="m390 394.4h-4.3v3.5h4.7l-.1.6h-5.2v-8.4h5.1v.6h-4.5v3.1h4.3z" fill="#fbfcfa"/><path d="m394.2 390.7h-2.8v-.6h6.3v.6h-2.8v7.8h-.7z" fill="#fbfcfa"/></svg>