<svg enable-background="new 0 0 400 400" viewBox="0 0 400 400" xmlns="http://www.w3.org/2000/svg"><path d="m261.12 68.99c0-12.66 0-24.6 0-38.04 9.8 2.01 19.09 3.47 28.1 5.93 4.93 1.35 5.03 5.68.8 8.55-.4.27-.86.51-1.32.62-9.42 2.12-9.48 9.11-8.73 16.6.19 1.94.03 3.92.03 6.35 14.59 0 28.71.02 42.82-.06.76 0 1.73-.66 2.25-1.29 5.17-6.35 10.27-12.76 15.75-19.61 7.32 7.75 14.67 15.53 22.07 23.37-1.49 5.05-4.35 6.87-9.89 6.76-20.49-.41-41-.16-61.49-.16-1.59 0-3.19 0-5.56 0 11.26 11.13 23.41 19.68 36.49 26.55 12.92 6.78 26.63 12.07 39.85 17.95-3.77 5.77-7.75 11.86-11.81 18.06-27.91-12.05-51.06-30.52-70.38-55.77v62.93c-6.46 0-12.39 0-18.93 0 0-17.26 0-34.62 0-51.3-15.04 11.26-30.02 22.48-44.69 33.46.67.79 3.6 3.25 3.22 3.98-1.24 2.38-3.4 5.31-5.74 5.9-5.98 1.51-6.47 5.31-6.01 10.22.23 2.45.04 4.94.04 8.02h5.66c31.33 0 62.66-.04 94 .06 3.58.01 5.85-.78 8.14-4.01 3.29-4.67 7.81-8.49 11.94-12.81 7.73 6.26 15.63 12.64 23.25 18.81-1.06 5.74-4.05 7.13-9.18 7.08-28.99-.26-57.99-.12-87.39-.12v28h10.15c12.33 0 24.67-.15 37 .09 3.67.07 6.31-.89 8.62-3.69 2.54-3.07 5.38-5.88 8.73-9.49 5.89 5.33 11.4 10.08 16.61 15.14 2.91 2.82 2.25 6.24-1.22 7.74-6.53 2.81-7.76 7.44-7.44 14.02.55 11.46.15 22.96.15 34.81-6.29 0-12.34 0-18.94 0 0-3.38 0-6.78 0-10.39-72.81 0-145.08 0-217.89 0-2.87 43.25-14.78 83.08-45.58 115.62-2.22-1.7-4.38-3.37-6.71-5.16 3.29-5.71 6.41-11.18 9.57-16.62 8.19-14.09 13.36-29.33 16.45-45.22 2.18-11.21 4.58-22.58 4.88-33.93.92-34.75.88-69.53 1.22-104.29.01-1.46.12-2.92.23-5.31 6.6 2.88 12.66 5.57 18.75 8.15 1.63.69 3.4 1.46 5.1 1.47 31 .08 62 .05 93 .03.47 0 .93-.2 1.75-.38 0-10.28 0-20.55 0-31.08 1.25-.2 2.3-.71 3.08-.44 9.22 3.16 15.55-2.41 21.79-7.46 14.04-11.34 26.17-24.47 35.96-40.29-38.57 0-76.77 0-115.32 0v9.15c8.58 2.13 17.58 4.09 26.41 6.65 8.21 2.37 15.91 5.8 22.12 12.15 4.52 4.62 4.87 10.16 3.9 15.66-1.15 6.52-12.68 8.61-17.95 3.27-4.85-4.91-8.68-10.9-13.83-15.43-6.06-5.33-13.06-9.6-20.72-15.09v52.97c-6.56 0-12.61 0-19.07 0 0-16.25 0-32.51 0-48.87-11.09 10.19-21.38 20.81-32.89 29.89-11.47 9.06-24.16 16.57-36.31 24.76-2.28-2.78-4.02-4.9-5.94-7.24 26.75-17.9 48.59-40.39 65.96-68.18-16.61 0-32.42 0-48.22 0-8.02 0-8.48-.39-10.22-9.01h67.36c0-12.41 0-24.47 0-37.08 10.67.51 20.85.29 30.41 4.33 1.5.64 3.3 2.57 3.38 4 .08 1.39-1.56 3.45-2.98 4.25-3.65 2.04-7.61 3.54-11.55 5.31v19.19c11.15 0 22.1.16 33.03-.18 1.62-.05 3.43-2.23 4.7-3.8 4.21-5.21 8.22-10.59 12.7-16.42 5.61 6.3 10.96 12.36 16.39 18.35.79.87 1.97 1.96 2.98 1.97 18.79.08 37.59.05 57.11.05zm-108.35 135.35c-21.09 0-41.79 0-62.37 0v29.4h62.37c0-9.84 0-19.43 0-29.4zm19.45 29.4h62.46c0-9.97 0-19.68 0-29.39-21.01 0-41.71 0-62.46 0zm-19.44-66.38c-21.12 0-41.82 0-62.37 0v27.38h62.37c0-9.2 0-18.12 0-27.38zm19.45 27.29h62.37c0-9.4 0-18.44 0-27.4-20.98 0-41.56 0-62.37 0zm135.55 9.7c-18.11 0-35.81 0-53.37 0v29.38h53.37c0-9.85 0-19.44 0-29.38z" fill="#010103"/><path d="m245 293.15c22.78-5.22 44.01-12.41 64.59-21.48 4.02-1.77 8-3.86 11.55-6.42 3.32-2.4 6.18-2.18 9.26-.13 5.43 3.62 10.88 7.21 16.14 11.06.92.67 1.4 2.66 1.2 3.9-.12.77-1.98 1.93-2.92 1.82-15.02-1.9-27.96 6.03-41.99 8.75-15.18 2.94-30.3 6.24-45.45 9.35-3.98.82-7.98 1.51-12.77 2.41.47 6.75.75 13.47 1.48 20.15.45 4.08 4.94 7.31 9.79 7.42 16.93.38 33.86.91 50.79.91 6.69 0 13.44-.92 20.06-2.01 9.02-1.49 12.2-8.71 14.14-16.36 1.6-6.29 2.32-12.8 3.43-19.21 8.02.87 8.44 1.59 8.77 9.1.27 6.2.85 12.44 2.07 18.5.4 1.96 3.06 4.4 5.09 4.88 3.92.93 4.24 3.27 3.65 6.16-1.44 7.01-8.79 13.22-16.03 14.05-30.63 3.52-61.37 1.61-92.06 1.84-6.1.05-12.27-1.6-18.31-2.92-7.24-1.58-10.4-7.2-11.36-13.84-.89-6.18-1.04-12.51-1.08-18.78-.13-18.83-.05-37.65-.05-56.48 0-1.79 0-3.58 0-6.88 10.78 1.77 20.88 3.33 30.92 5.22 1.2.22 2.75 2.18 2.87 3.45.12 1.28-1.05 3.08-2.18 3.98-1.63 1.29-3.65 2.47-5.66 2.83-5.22.92-6.35 3.94-6.05 8.79.41 6.47.11 12.96.11 19.94z" fill="#010103"/><path d="m192.9 267.41c7.87 6.33 15.12 12.17 21.63 17.4-2.09 6.43-5.2 7.36-9.69 7.3-19.98-.25-39.97-.11-59.96-.11-1.79 0-3.59 0-5.62 0v33.05c8.7-1 17.11-2 25.54-2.93 6.69-.74 13.39-1.37 20.07-2.11 8.79-.97 17.67-1.54 26.33-3.21 4.68-.9 5.04.78 4.83 4.33-.06 1.11.22 2.23.5 4.69-39.37 7.45-79.05 14.96-119.48 22.6-.38 1.07-.95 3.47-2.08 5.57-.83 1.54-2.29 3.58-3.69 3.76-1.58.2-4.42-1.01-4.94-2.31-3.44-8.7-6.4-17.58-9.72-26.97 15.05-.77 28.51-1.45 42.27-2.15 0-25.31 0-49.91 0-75.12 8.3.97 16.21 1.67 24.03 2.92 3.53.57 8.84 1.03 8.61 5.44-.13 2.57-4.58 5.1-7.37 7.26-1.3 1-3.3 1.09-4.95 1.58v14.59c13.14 0 26.08.19 39.01-.2 1.92-.06 4.02-2.58 5.6-4.36 3.58-4.05 6.89-8.34 9.08-11.02z" fill="#010103"/><g fill="#fbfcfa"><path d="m346.9 398 5.4-7.3h-5.2v-.6h5.9v.6l-5.4 7.2h5.5l-.1.6h-6.2v-.5z"/><path d="m354.7 390.1h2.8c2.3 0 3.9 1.6 3.9 4.1s-1.6 4.3-3.9 4.3h-2.8zm.6 7.8h2c2.2 0 3.3-1.6 3.3-3.6 0-1.8-1-3.6-3.3-3.6h-2z"/><path d="m363.9 390.1v8.4h-.6v-8.4h1.6z"/><path d="m372.5 396.3c-.4 1.3-1.4 2.3-3.2 2.3-2.4 0-3.7-1.9-3.7-4.3 0-2.3 1.2-4.3 3.7-4.3 1.8 0 2.9 1 3.2 2.4h-.6c-.4-1.1-1.1-1.8-2.5-1.8-2.1 0-3 1.9-3 3.7s.9 3.7 3 3.7c1.4 0 2.1-.7 2.5-1.7z"/><path d="m373.8 398.5v-1.5h.6v1.5z"/><path d="m376.2 398.5v-8.4h1c1.3 2 4.4 6.7 4.9 7.6-.1-1.2-.1-2.4-.1-3.8v-3.8h.7v8.4h-.9c-1.2-1.9-4.4-6.8-5-7.7.1 1.1 0 2.3 0 3.9v3.9h-.6z"/><path d="m390 394.4h-4.3v3.5h4.7l-.1.6h-5.2v-8.4h5.1v.6h-4.5v3.1h4.3z"/><path d="m394.2 390.7h-2.8v-.6h6.3v.6h-2.8v7.8h-.7z"/></g></svg>