<svg enable-background="new 0 0 400 400" viewBox="0 0 400 400" xmlns="http://www.w3.org/2000/svg"><path d="m95.21 178.08h10.21c-1.82-7.71-3.57-15.11-5.37-22.73 9.09-.56 17.75-1.09 26.67-1.64 0-13.38 0-26.64 0-40.31-12.27 0-24.65 0-37.72 0v5.18c0 17.83.51 35.68-.14 53.49-.74 20.25-1.79 40.55-4.07 60.68-1.92 16.98-4.7 34.03-9.11 50.51-4.44 16.59-10.94 32.67-17.34 48.66-3.61 9.02-8.83 17.4-13.55 26.51-3.32-2.1-6.12-3.87-9.05-5.72 9.6-20.05 16.05-40.7 20.7-61.85 2.84-12.9 4.9-26.02 6.44-39.14 1.85-15.67 3.39-31.43 3.97-47.19.88-23.75.96-47.53 1.1-71.29.18-28.83.05-57.65.05-86.96 6.04 2.38 12.03 4.13 17.41 7.03 5.31 2.86 10.61 3.81 16.53 3.77 29.33-.18 58.66-.08 87.99-.08h5.97c0-8.7 0-17.1 0-26.96 10.22 1.4 19.79 2.36 29.19 4.16 4.96.95 5.35 4.53 1.39 7.76-1 .82-2.2 1.41-3.37 2-7.56 3.8-7.56 3.79-6.78 13.04h5.24c32.5 0 65-.19 97.49.18 5.62.06 8.96-2.27 12.18-5.95 3.04-3.47 6.05-6.96 9.63-11.08 7.91 6.81 15.46 13.31 22.97 19.77-1.28 2.23-2.31 4.03-3.52 6.13-35.42 0-71.05 0-107 0v13.95h24.47c11.17 0 22.34-.22 33.49.11 4.55.13 7.47-1.44 9.78-5.15 1.28-2.07 3.06-3.82 5.4-6.68 5.54 4.74 11.23 9.44 16.72 14.37 3.25 2.92 2.37 5.68-1.33 7.33-5.04 2.26-6.77 5.85-5.93 11.24.45 2.93.43 6.04.01 8.98-.94 6.51.88 11.46 6.78 14.83 1.06.61 1.48 2.3 2.29 3.43.86 1.2 1.81 2.33 2.74 3.47 1.41 1.71 3.75 3.24 4.1 5.14 1.29 7.05 2.65 10.61 10.37 12.73-.81 10.29-3.8 12.55-21.57 15.94 5.36 5 10.44 9.75 15.93 14.88-1.53 3.75-3.41 6.55-9.07 6.54-81-.22-162-.16-242.99-.16-7.65 0-8.12-.43-9.3-8.92zm17.5-.35c1.43.12 2.36.26 3.29.26 69.16.01 138.32.02 207.48-.04 1.38 0 3.24-.25 4.04-1.14 2.91-3.23 5.47-6.78 8.77-10.99-4.41.47-7.78 1.16-11.15 1.13-24.93-.23-49.87-.43-74.79-1.07-6.23-.16-13.37-.72-16.29-7.61-1.91-4.52-2.72-9.74-2.94-14.69-.43-10.08-.13-20.19-.13-30.17-29.06 0-57.45 0-85.71 0v14.6c13.08 0 25.92-.68 38.66.24 8.45.61 12.97-3.46 17.12-9.44.65-.94 1.49-1.75 2.53-2.96 6.56 5.38 13.01 10.67 19.18 15.74-1.48 5.02-4.56 5.54-8.55 5.5-21.16-.18-42.33-.08-63.49-.08-1.78 0-3.55 0-5.38 0v16.58c25.67-1.9 50.94-3.76 76.22-5.63.55 1.95 1.06 3.49 1.39 5.06.16.77-.04 1.61-.14 3.64-35.43 4.83-70.9 9.66-106.74 14.54-.15.4-.54 1.65-1.11 2.81-.55 1.11-1.29 2.14-2.26 3.72zm136.48-36.68c.3 8.48.92 10.02 8.4 10.97 8.16 1.04 16.5.99 24.75.92 13.59-.11 27.19-.31 40.75-1.1 4.66-.27 10.34-.3 13.26-4.9 2.73-4.31 4.37-9.3 6.49-13.99-.45-.59-.91-1.18-1.36-1.77-6.14.27-12.32.2-18.41.88-19.35 2.17-38.68 4.61-58.01 6.96-5.31.64-10.61 1.35-15.87 2.03zm-79.97-37.41h65.37c0-5.08 0-9.8 0-14.38-21.99 0-43.57 0-65.37 0zm84.01.01h64.37c0-5.07 0-9.79 0-14.4-21.65 0-42.9 0-64.37 0zm-102.48-14.37c-20.61 0-40.97 0-61.42 0v14.36h61.42c0-4.97 0-9.57 0-14.36zm18.48-9.54h65.45c0-4.65 0-9.02 0-13.39-22.02 0-43.72 0-65.45 0zm-79.81-13.64v13.57h61.19c0-4.72 0-9.1 0-13.57-20.52 0-40.64 0-61.19 0zm229.18 48.42c-.39-.39-.78-.77-1.17-1.16-22.72 0-45.45 0-68.04 0v18.49c8.27-1.32 16.24-2.21 24.03-3.93 13.81-3.05 27.53-6.52 41.23-10.04 1.5-.39 2.64-2.21 3.95-3.36z" fill="#010103"/><path d="m322 335.78c-6.13 0-11.73 0-17.69 0-.19-1.44-.38-2.84-.6-4.5-55.12 0-110.19 0-165.46 0-.15 1.8-.28 3.42-.45 5.39-5.71 0-11.45 0-17.5 0 0-21.62 0-43.21 0-65.47 5.3 2.14 10.44 4.44 15.74 6.26 3.48 1.2 7.2 2.43 10.81 2.44 49.16.16 98.32-.01 147.48.25 6.47.04 11.69-.95 15.47-6.45 1.75-2.54 3.52-2.64 5.96-.55 4.22 3.61 8.8 6.8 13.13 10.3 3.38 2.73 2.93 5.76-.74 7.4-5.49 2.44-6.45 6.42-6.27 11.88.37 10.81.12 21.65.12 33.05zm-94.78-35.13h76.55c0-3.95 0-7.55 0-11.38-25.6 0-50.96 0-76.55 0zm76.53 9.67c-25.71 0-51.07 0-76.37 0v11.44h76.37c0-3.82 0-7.42 0-11.44zm-94.97-20.97c-23.79 0-47.15 0-70.37 0v11.39h70.37c0-3.86 0-7.46 0-11.39zm-.01 20.91c-23.59 0-46.96 0-70.46 0v11.4h70.46c0-3.95 0-7.55 0-11.4z" fill="#010103"/><path d="m120.4 189.17c5.72 2.33 11.4 4.76 17.18 6.94 2.39.9 4.97 1.81 7.47 1.81 50.15.1 100.3-.02 150.45.22 5.8.03 10.3-1.17 13.7-5.85 2.11-2.91 4.11-3.38 7.08-.72 4.01 3.59 8.55 6.57 12.71 10.01 2.98 2.46 3.23 4.86-.74 6.8-5.05 2.47-6.77 6.29-6.42 12.15.62 10.59.18 21.25.18 32.18-5.96 0-11.56 0-15.58 0-2.72-1.71-4.29-3.57-5.88-3.57-53.65-.14-107.29-.09-160.94-.07-.31 0-.63.15-1.33.34-.16 1.6-.34 3.33-.54 5.33-5.7 0-11.32 0-17.34 0 0-21.63 0-43.35 0-65.57zm106.83 50.48h76.37c0-4.4 0-8.45 0-12.39-25.65 0-50.9 0-76.37 0zm-88.94-12.42v12.45h70.33c0-4.37 0-8.42 0-12.45-23.62 0-46.87 0-70.33 0zm165.52-19.83c-25.93 0-51.29 0-76.52 0v10.28h76.52c0-3.58 0-6.84 0-10.28zm-165.58 10.26h70.37c0-3.73 0-7.11 0-10.41-23.65 0-46.9 0-70.37 0z" fill="#010103"/><path d="m349.2 325.37c5.7 6.22 11.32 12.02 16.52 18.17 2.5 2.96-.45 8.21-4.4 8.45-1.33.08-2.67.01-4 .01-91.14 0-182.29 0-273.43 0-8.27 0-8.27 0-10.76-9h5.9c84.15 0 168.29-.03 252.44.08 4.31.01 7.04-1.18 9.17-5.04 2.31-4.22 5.38-8.04 8.56-12.67z" fill="#010103"/><path d="m90.88 260h6.4c75.78 0 151.56-.03 227.34.08 4.09.01 6.72-1.06 8.82-4.75 2.3-4.05 5.43-7.63 8.69-12.09 5.91 6.4 11.55 12.38 17.03 18.52 1.53 1.71-1.56 6.88-4.21 7.2-1.31.16-2.66.04-3.99.04-82.61 0-165.22 0-247.83 0-8.55 0-8.55 0-12.25-9z" fill="#010103"/><g fill="#fbfcfa"><path d="m346.9 398 5.4-7.3h-5.2v-.6h5.9v.6l-5.4 7.2h5.5l-.1.6h-6.2v-.5z"/><path d="m354.7 390.1h2.8c2.3 0 3.9 1.6 3.9 4.1s-1.6 4.3-3.9 4.3h-2.8zm.6 7.8h2c2.2 0 3.3-1.6 3.3-3.6 0-1.8-1-3.6-3.3-3.6h-2z"/><path d="m363.9 390.1v8.4h-.6v-8.4h1.6z"/><path d="m372.5 396.3c-.4 1.3-1.4 2.3-3.2 2.3-2.4 0-3.7-1.9-3.7-4.3 0-2.3 1.2-4.3 3.7-4.3 1.8 0 2.9 1 3.2 2.4h-.6c-.4-1.1-1.1-1.8-2.5-1.8-2.1 0-3 1.9-3 3.7s.9 3.7 3 3.7c1.4 0 2.1-.7 2.5-1.7z"/><path d="m373.8 398.5v-1.5h.6v1.5z"/><path d="m376.2 398.5v-8.4h1c1.3 2 4.4 6.7 4.9 7.6-.1-1.2-.1-2.4-.1-3.8v-3.8h.7v8.4h-.9c-1.2-1.9-4.4-6.8-5-7.7.1 1.1 0 2.3 0 3.9v3.9h-.6z"/><path d="m390 394.4h-4.3v3.5h4.7l-.1.6h-5.2v-8.4h5.1v.6h-4.5v3.1h4.3z"/><path d="m394.2 390.7h-2.8v-.6h6.3v.6h-2.8v7.8h-.7z"/></g></svg>