<svg enable-background="new 0 0 400 400" viewBox="0 0 400 400" xmlns="http://www.w3.org/2000/svg"><path d="m288.24 133v84c12.02 0 23.81.14 35.59-.16 1.72-.04 3.74-1.91 5-3.44 3.53-4.28 6.74-8.83 10.59-13.97 6.41 6.59 12.6 12.64 18.41 19.03 3.69 4.06 3.3 7.37-1.7 9.77-6.92 3.32-8.42 8.18-8.33 15.55.43 35.66.19 71.32.19 106.98v5.85c-6.58 0-12.96 0-19.91 0 0-7.32 0-14.72 0-22.36-29.48 0-58.41 0-87.89 0v22.43c-6.93 0-13.32 0-19.95 0 0-50.42 0-100.68 0-151.95 14.66 9.32 29.78 15.68 47.61 11.32 0-58.44 0-117.37 0-177.08 6.39.4 12.45.3 18.34 1.28 5.52.91 11.03 2.52 16.19 4.66 3.73 1.54 3.77 5.46.37 7.61-3.28 2.07-6.77 4.09-10.45 5.16-3.3.96-4.41 2.28-4.39 5.7.15 19.97.07 39.95.07 60.6 8.71 0 17.23-.77 25.55.19 11.08 1.27 18.8-1.72 23.42-12.42 1.83-4.24 5.37-7.74 8.64-12.28 6.43 7.98 12.31 15.81 18.8 23.09 2.76 3.1 3.95 5.5.53 8.3-1.43 1.17-3.6 2.02-5.44 2.03-21.83.14-43.66.09-65.49.09-1.78.02-3.59.02-5.75.02zm39.55 93.36c-29.46 0-58.5 0-87.38 0v98.36h87.38c0-32.85 0-65.44 0-98.36z" fill="#010103"/><path d="m132.23 159v32c11.34 0 22.46.18 33.57-.18 1.77-.06 3.77-2.24 5.14-3.88 2.7-3.23 5.02-6.76 8.19-11.12 6.71 6.31 13.08 11.99 19.03 18.09 1.74 1.78 1.74 4.52-1.27 6.14-6.23 3.37-8.23 8.37-8.1 15.69.5 27.48.2 54.98.2 82.87-6.23 0-12.28 0-18.88 0 0-2.63 0-5.35 0-8.34-31.81 0-63.07 0-94.88 0v8.41c-6.59 0-12.65 0-18.97 0 0-39.06 0-78 0-117.31 4.71 1.91 9.64 3.32 13.94 5.81 5.4 3.12 10.9 4.12 17 3.89 8.32-.3 16.65-.08 25.39-.08 0-10.54 0-20.93 0-32-1.64 0-3.41 0-5.17 0-19.33 0-38.67 0-58 0-8.64 0-8.64 0-11.44-9h5.84c46.33 0 92.66-.04 139 .08 3.49.01 5.74-.69 7.64-3.91 3.21-5.47 7.04-10.57 11.22-16.73 6.25 7.25 12.42 14.01 18.09 21.17 2.59 3.28-1.08 8.38-5.71 8.38-25.33.02-50.67.01-76 .01-1.81.01-3.62.01-5.83.01zm-57.01 121.65h37.38c0-12.73 0-25.1 0-37.38-12.65 0-24.91 0-37.38 0zm57.13-37.43v37.38h37.38c0-12.65 0-24.91 0-37.38-12.51 0-24.77 0-37.38 0zm-57.25-9.54h37.54c0-11.36 0-22.4 0-33.28-12.74 0-25.11 0-37.54 0zm94.56.09c0-11.41 0-22.45 0-33.38-12.72 0-25.09 0-37.4 0v33.38z" fill="#010103"/><path d="m82.9 135.63c0-17.6 0-34.86 0-52.63-9.81 0-19.26 0-28.71 0-8.64 0-8.64 0-11.02-8.92h39.81c0-13.54 0-26.6 0-41.27 9.35 1.88 18.03 3.09 26.37 5.51 4.95 1.43 5.26 7.52.4 9.51-7.73 3.16-8.52 8.7-7.81 15.64.33 3.27.06 6.6.06 10.22h38.86c0-13.08 0-26.01 0-39.51 9.93-.65 19.21.54 28.03 4.34 3.78 1.63 4.11 4.85 1.24 7.8-1.02 1.04-2.15 2.28-3.46 2.67-5.96 1.77-7.45 5.74-6.77 11.53.5 4.24.1 8.59.1 13.48 6.3 0 12.25.2 18.16-.15 1.36-.08 2.94-1.8 3.84-3.16 3.59-5.39 6.95-10.93 10.83-17.11 5.85 6.84 11.48 13.29 16.89 19.92.84 1.03 1.28 3.18.79 4.34-1.07 2.52-1.73 5.4-5.96 5.29-12.81-.35-25.65-.13-38.48-.13-1.81 0-3.62 0-5.97 0v51.73c-6.47 0-12.41 0-18.89 0 0-4.32 0-8.71 0-13.42-13.26 0-25.98 0-39.07 0v14.31c-6.41.01-12.46.01-19.24.01zm19.32-23.98h38.38c0-9.73 0-19.11 0-28.38-12.99 0-25.57 0-38.38 0z" fill="#010103"/><path d="m138.69 309.39c1.04-3.03 1.88-5.47 2.74-7.97 19.62 4.53 38.76 10.33 55.48 21.76 5.37 3.67 10.02 8.97 13.58 14.44 1.95 3 1.87 8.1 1.09 11.93-1.33 6.59-10.54 9.11-15.85 4.45-4.14-3.63-7.58-8.05-11.33-12.12-12.84-13.94-28.25-24.32-45.71-32.49z" fill="#010103"/><path d="m40.63 359.18c-2.13-4.28-3.43-6.87-4.63-9.28 9.6-6.68 19.45-12.61 28.19-19.87 9.48-7.87 18.1-16.8 26.73-25.63 3.33-3.4 5.74-4.05 9.43-.77 4.52 4.02 9.55 7.46 14.08 11.47 1.09.97 1.64 3.34 1.32 4.83-.26 1.2-2.4 3.07-3.36 2.88-9.49-1.85-14.99 5.27-21.97 9.18-16.34 9.14-32.85 17.96-49.79 27.19z" fill="#010103"/><g fill="#fbfcfa"><path d="m346.9 398 5.4-7.3h-5.2v-.6h5.9v.6l-5.4 7.2h5.5l-.1.6h-6.2v-.5z"/><path d="m354.7 390.1h2.8c2.3 0 3.9 1.6 3.9 4.1s-1.6 4.3-3.9 4.3h-2.8zm.6 7.8h2c2.2 0 3.3-1.6 3.3-3.6 0-1.8-1-3.6-3.3-3.6h-2z"/><path d="m363.9 390.1v8.4h-.6v-8.4h1.6z"/><path d="m372.5 396.3c-.4 1.3-1.4 2.3-3.2 2.3-2.4 0-3.7-1.9-3.7-4.3 0-2.3 1.2-4.3 3.7-4.3 1.8 0 2.9 1 3.2 2.4h-.6c-.4-1.1-1.1-1.8-2.5-1.8-2.1 0-3 1.9-3 3.7s.9 3.7 3 3.7c1.4 0 2.1-.7 2.5-1.7z"/><path d="m373.8 398.5v-1.5h.6v1.5z"/><path d="m376.2 398.5v-8.4h1c1.3 2 4.4 6.7 4.9 7.6-.1-1.2-.1-2.4-.1-3.8v-3.8h.7v8.4h-.9c-1.2-1.9-4.4-6.8-5-7.7.1 1.1 0 2.3 0 3.9v3.9h-.6z"/><path d="m390 394.4h-4.3v3.5h4.7l-.1.6h-5.2v-8.4h5.1v.6h-4.5v3.1h4.3z"/><path d="m394.2 390.7h-2.8v-.6h6.3v.6h-2.8v7.8h-.7z"/></g></svg>