<svg enable-background="new 0 0 400 400" viewBox="0 0 400 400" xmlns="http://www.w3.org/2000/svg"><path d="m254 273.2c-14.22 0-26.82 0-39.79 0v21.4c-6.74 0-13.13 0-20.13 0 0-35.88 0-71.88 0-108.46-4.94 5.06-9.3 9.53-13.91 14.26-2.41-3.29-4.26-5.81-6.33-8.62 25.38-26.96 46.6-56.76 61.19-91.77-6.72 0-13.13 0-19.54 0-7.83 0-15.66 0-23.49 0-8.25 0-8.25 0-10.88-8.76 1.84-.08 3.57-.22 5.3-.22 15.83-.02 31.67-.25 47.49.14 4.61.12 6.13-2.03 7.07-5.56 3.06-11.47 6.15-22.93 8.97-34.46 1.38-5.63 2.21-11.41 3.55-18.51 9.48 3.62 18.27 6.78 26.85 10.44 1.65.71 3.67 3.69 3.34 5.12-.43 1.88-2.89 4.46-4.71 4.66-8.69.94-10.63 6.76-12.11 13.99-1.63 7.93-4.37 15.63-6.76 23.93 1.82.08 3.55.23 5.28.23 16.83.02 33.66-.17 50.49.14 4.3.08 6.77-1.78 9.07-4.78 4.38-5.7 8.79-11.38 14.07-18.21 7.78 8.25 15.36 16.2 22.77 24.31.66.72.68 2.94.07 3.7-1.28 1.56-3.15 3.62-4.85 3.69-8.98.36-17.99.17-26.99.17-11.66 0-23.32 0-35.6 0 16.44 35.37 42.45 61.47 74.12 81.76-5.03 6.65-9.83 13.01-14.69 19.43-5.38-4.75-11.42-10.07-18.66-16.45-.53 3.02-1.14 4.88-1.14 6.74-.06 29.83-.04 59.65-.04 89.48v5.73c-6.72 0-13.11 0-19.87 0 0-4.41 0-8.69 0-13.32-13.75 0-27.13 0-41.13 0 0 8.76-.11 17.53.04 26.3.11 6.43.05 12.94 1 19.27 1.44 9.59 3.84 11.69 13.46 11.98 11.65.35 23.33.33 34.99 0 8.97-.25 14.5-5.51 16.42-15.71 2.05-10.9 3.4-21.94 5.12-32.9.22-1.38.8-2.7 1.14-3.78 1.65.24 2.98.3 4.24.63 3.11.81 4.59 2.29 4.77 6.11.5 10.8 1.63 21.59 2.93 32.33.64 5.27 4.05 8.4 9.49 8.63 2.3 9.86-5.91 18.92-19.15 20.91-20.67 3.1-41.4 1.57-62.1 1.7-6.6.04-13.33-1.5-19.79-3.16-7.54-1.94-11.52-8.22-11.54-16.72-.06-18.46-.03-36.87-.03-55.79zm19-100.2c13.12 0 25.45-.21 37.76.12 3.84.1 6.37-1.72 7.56-4.41.64-1.45-1.24-4.3-2.43-6.23-5.66-9.14-12.24-17.81-17.03-27.37-5.15-10.29-8.59-21.42-13.04-32.08-.56-1.35-2.68-2.83-4.13-2.89-6.82-.31-13.67.17-20.48-.25-4.21-.26-5.99 1.5-7.77 5-5.62 11.03-10.99 22.28-17.74 32.61-7.2 11.02-15.87 21.09-24.62 32.53 3.45.99 6.9 2.71 10.41 2.84 10.41.38 20.84.14 31.61.14 0-14.3 0-27.91 0-42.46 7.27.68 14.11 1.17 20.9 2.02 2.85.36 5.8 1.11 8.33 2.41 1.58.81 3.25 2.91 3.42 4.57.14 1.38-1.55 3.43-2.97 4.38-2.12 1.43-4.84 1.94-7.06 3.26-1.17.69-2.55 2.23-2.59 3.43-.25 7.28-.13 14.57-.13 22.38zm.24 52.2v38.52h40.43c0-12.99 0-25.7 0-38.52-13.58 0-26.83 0-40.43 0zm-58.95.05v38.42h38.33c0-13.05 0-25.75 0-38.42-12.97 0-25.56 0-38.33 0zm59.06-43.03v33.38h40.38c0-11.32 0-22.24 0-33.38-13.51 0-26.77 0-40.38 0zm-59.09-.01v33.49h38.4c0-11.34 0-22.38 0-33.49-12.93 0-25.52 0-38.4 0z" fill="#010103"/><path d="m120.23 213v33.53c20.58-3.41 40.79-6.75 61.46-10.17.47 2.47 1.01 5.24 1.61 8.39-20.32 4.91-40.01 9.95-59.84 14.39-17.64 3.96-35.42 7.29-53.15 10.84-4 .8-8.06 1.28-12.06 2.09-3.39.68-5.9 1.68-6.61 6.19-.96 6.02-4.77 8.09-8.26 5.74-1.27-.86-2.66-2.16-3.1-3.55-2.49-7.83-4.71-15.75-7.12-23.96 22.91-2.54 44.7-4.96 66.62-7.39 0-12.19 0-23.8 0-36.1-1.82 0-3.58 0-5.34 0-14.16 0-28.33 0-42.49 0-8.24 0-8.24 0-10.83-8.83h58.56c0-12.22 0-23.93 0-35.91-10.07 0-20 0-30.48 0v13.43c-6.6 0-12.65 0-18.95 0 0-46.76 0-93.35 0-140.75 5.7 3.2 10.96 6.44 16.48 9.13 2.98 1.45 6.41 2.77 9.65 2.8 22.16.24 44.33-.22 66.48.34 6.45.17 9.97-2.39 13.15-7.09 1.91-2.82 4.11-5.44 6.58-8.66 6.22 6.07 12.13 11.73 17.89 17.54 2.88 2.91 2.33 6.44-1.12 7.75-8.92 3.38-9.65 9.89-9.52 18.22.44 29.99.17 59.99.17 89.98v5.73c-6.06 0-11.78 0-17.86 0 0-2.75 0-5.36 0-8.32-10.74 0-21.13 0-31.83 0v35.63c6.61 0 13.07.17 19.51-.13 1.51-.07 3.33-1.42 4.37-2.7 4.3-5.3 8.35-10.8 11.72-15.21 7.82 6.36 15.53 12.63 21.89 17.81-1.81 9.23-6.67 9.43-12.3 9.33-14.98-.28-29.95-.09-45.28-.09zm-1.13-54.32h32.57c0-22.01 0-43.7 0-65.4-.47-.15-.94-.3-1.4-.45-6.43 17.43-12.86 34.87-19.21 52.09-8.04-.63-8.25-1.14-6.73-7.73 2.73-11.9 5.28-23.84 7.67-35.81 1.59-7.98 2.78-16.05 4.15-24.07 5.28 1.66 10.32 3.24 15.53 4.87 0-7.06 0-13.47 0-19.82-11.04 0-21.76 0-32.57 0-.01 32.21-.01 64.02-.01 96.32zm-49.75-96.45v96.37h30.39c0-32.32 0-64.23 0-96.37-10.19 0-20.11 0-30.39 0z" fill="#010103"/><path d="m60.45 285.36c2.71.32 5.29.63 8.32.99 1.24 17.33 3.85 34.96-2.93 51.88-2.25 5.6-6.26 10.64-10.15 15.38-2.93 3.57-11.3 4.7-14.68 2.8-4.57-2.57-8.24-6.04-6.87-11.79.72-3.02 2.17-6.42 4.39-8.43 13.05-11.8 18.39-27.02 20.5-43.85.3-2.42.96-4.77 1.42-6.98z" fill="#010103"/><path d="m84.15 284.76c5.68-3.33 7.73-.43 10.44 4.01 8.95 14.71 14.18 30.29 12.26 47.54-.93 8.28-5 13.76-14.65 12.69-3.86-.43-5.96-2.51-6.16-6.32-.16-2.98-.11-5.98-.02-8.97.29-9.41 1.1-18.83.83-28.22-.19-6.94-1.75-13.85-2.7-20.73z" fill="#010103"/><path d="m110.93 280.92c4.63-5.75 7.5-2.57 11.19.49 9.21 7.63 17.33 16 22.63 26.9 3.45 7.1 3.66 14.6 3.13 22.15-.3 4.18-5.21 7.49-10.02 7.54-6.47.06-8.77-1.43-9.82-7.08-1.22-6.56-1.18-13.49-3.31-19.7-3.14-9.15-7.7-17.81-11.69-26.65-.59-1.31-1.44-2.5-2.11-3.65z" fill="#010103"/><path d="m143.65 273.1c1.05-1.02 2.59-2.52 4.35-4.24 12.46 7.03 24.24 14.87 31.92 27.55 3.32 5.49 3.93 11.63 2.72 17.56-.48 2.33-3.84 5.18-6.33 5.73-3.7.81-8.66 1.68-10.62-3.53-2.16-5.76-3.11-12.09-5.97-17.43-4.68-8.71-10.47-16.83-16.07-25.64z" fill="#010103"/><path d="m78.87 81.28c10.39 15.53 18.32 31.85 17.16 51.3-.34 5.66-2.92 9.98-6.92 10.37-5.78.57-7.86-.87-9.03-9.32-.47-3.43-.13-6.97-.07-10.46.18-11.23-2.26-22.06-5.32-32.74-1.87-6.5-2.11-6.43 4.18-9.15z" fill="#010103"/><g fill="#fbfcfa"><path d="m346.9 398 5.4-7.3h-5.2v-.6h5.9v.6l-5.4 7.2h5.5l-.1.6h-6.2v-.5z"/><path d="m354.7 390.1h2.8c2.3 0 3.9 1.6 3.9 4.1s-1.6 4.3-3.9 4.3h-2.8zm.6 7.8h2c2.2 0 3.3-1.6 3.3-3.6 0-1.8-1-3.6-3.3-3.6h-2z"/><path d="m363.9 390.1v8.4h-.6v-8.4h1.6z"/><path d="m372.5 396.3c-.4 1.3-1.4 2.3-3.2 2.3-2.4 0-3.7-1.9-3.7-4.3 0-2.3 1.2-4.3 3.7-4.3 1.8 0 2.9 1 3.2 2.4h-.6c-.4-1.1-1.1-1.8-2.5-1.8-2.1 0-3 1.9-3 3.7s.9 3.7 3 3.7c1.4 0 2.1-.7 2.5-1.7z"/><path d="m373.8 398.5v-1.5h.6v1.5z"/><path d="m376.2 398.5v-8.4h1c1.3 2 4.4 6.7 4.9 7.6-.1-1.2-.1-2.4-.1-3.8v-3.8h.7v8.4h-.9c-1.2-1.9-4.4-6.8-5-7.7.1 1.1 0 2.3 0 3.9v3.9h-.6z"/><path d="m390 394.4h-4.3v3.5h4.7l-.1.6h-5.2v-8.4h5.1v.6h-4.5v3.1h4.3z"/><path d="m394.2 390.7h-2.8v-.6h6.3v.6h-2.8v7.8h-.7z"/></g></svg>