<?xml version="1.0" encoding="utf-8"?>
<svg version="1.1" id="zdic.net" xmlns="http://www.w3.org/2000/svg" xmlns:xlink="http://www.w3.org/1999/xlink" x="0px" y="0px"
	 viewBox="0 0 400 400" style="enable-background:new 0 0 400 400;" xml:space="preserve">
<g>
	<path d="M251.1,206c-6.4-0.9-11.6-1.9-16.9-2.4c-12.1-1.2-18-9.4-21.7-19.6c-3.4-9.4-2.2-19,1.6-28.1c0.3-0.8,0.7-1.6,1.4-2.2
		c8.8-7.3,17.2-15.3,29.1-17.6c0.6-0.1,1.2-0.3,2.1-0.6c-0.6-12.5-1.1-24.9-1.8-38.3c-4.5,1.3-8.8,2-12.7,3.6
		c-6,2.5-11.7,5.5-16.1,10.6c-3.2,3.7-7.3,6.4-12.4,7.1c-2.1,0.3-3.3-0.4-4-2.3c-1.3-3.6-1-6.9,1.8-9.7c3.9-3.9,7.6-8,12-11.3
		c4.2-3.1,9.1-5.6,13.9-7.6c4.6-1.9,9.5-3,14.3-4.2c2.5-0.6,3.4-1.6,3.3-4.3c-0.4-12.4-0.7-24.7-0.8-37.1c0-6,2-11.5,5.9-16.4
		c4.8,1.2,7.9,4.4,8.4,8.9c0.7,5.9,0.4,11.9,0.3,17.8c-0.1,8.8-0.5,17.7-0.6,26.5c0,2.6,1.4,3.9,4.1,4.3c18.1,2.3,32.1,13,46.4,23.1
		c4.7,3.4,8.3,8,9.4,14c0.3,1.6,0.1,4.4-0.8,5c-1.7,1-4.4,1.4-6.1,0.7c-3-1.4-5.7-3.6-8.2-5.8c-12.6-11.4-26.9-19.3-43.9-23.1
		c-0.6,12.4-1.1,24.6-1.7,37.1c4.9,0.9,9.6,1.7,14.2,2.6c21.4,4.3,40.3,25.6,28.4,52.6c-3.1,7.1-9.9,11.2-17,13.2
		c-7.3,2-15.2,2.2-22.8,3.2c-1.2,0.1-2.4,0-3.9,0c3,8.5,5.8,16.6,8.7,24.7c3.5,9.9,7.6,19.8,5.8,30.5c-1.5,8.9-3.9,17.8-6.1,26.6
		c-2.6,10-6.1,20-5,30.5c0.6,5.7,2.3,11.4,4,17c2.3,7.8,5.2,15.3,7.3,23.1c1.6,5.9,0,9.1-4.5,9.5c-1.5,0.1-3.7-0.6-4.7-1.8
		c-7.2-8.5-9.7-19-12.2-29.4c-3.6-15-2.9-29.7,0.9-44.8c3.3-13.1,5-26.8,5.9-40.3c0.4-6.1-2.5-12.6-4.3-18.8
		c-1.6-5.7-3.8-11.3-5.3-17.1C246.2,212.1,245.6,208.2,251.1,206z M257.4,194.1c0-0.2,0.1-0.4,0.1-0.7c3.5-0.2,7-0.3,10.4-0.6
		c2.3-0.3,4.8-0.5,6.9-1.6c4.6-2.3,10.3-4,13.2-7.8c5.6-7.3,2.4-20.3-5.3-25.8c-13.3-9.4-27.6-11.9-42.7-5.1
		c-4.3,1.9-9.3,4.5-11.7,8.2c-3.6,5.7-5,12.8-3.2,19.8c1.2,4.7,3.5,8.8,9.1,9.7C242,191.5,249.7,192.9,257.4,194.1z"/>
	<path d="M154.9,148.5c6-2.1,11.7-3.2,16.4-5.9c3.1-1.7,5.3-5.5,7.2-8.8c4.7-8,6-16.9,4-25.7c-2.7-11.9-6.5-23.5-9.6-35.3
		c-0.9-3.6-1.6-7.3-1.8-11c-0.2-2.9,1.7-4.8,4.5-5.8c2.1-0.7,3.6-0.5,4.9,1.8c10.9,18,16.4,37.4,15.9,58.4c-0.2,9.6-2,19.1-6.8,27.4
		c-4.8,8.2-11.9,14.4-21.8,16.3c-4.2,0.8-8.3,1.7-12.5,2.4c-2.3,0.4-3.4,1.3-4.1,3.8c-8,31.7-10,63.8-7.9,96.3
		c1.2,19.1,6.3,37.4,10.8,55.8c3.1,12.7,6.4,25.4,9.3,38.2c0.9,3.9,0.7,8.2,0.6,12.3c-0.1,2.1-0.3,4.9-3.4,5.1
		c-2.8,0.2-5.7-0.4-6.8-3.5c-3.3-8.7-7.5-17.3-9.4-26.3c-5.5-25.5-10.5-51.1-14.6-76.9c-1.7-10.5-0.8-21.4-1-32.1
		c0-1.5,0.4-3,0.3-4.5c-1.4-19.5,3.2-38.2,6.4-57.2c2.8-16.5,6.4-32.9,8.5-49.5c2.1-17-1-33.6-7-49.6c-2.8-7.5-6.2-14.7-9.1-22.1
		c-1.6-4-1.3-8,1-11.9c1-1.7,2.4-2.5,3.9-1.2c2.8,2.3,6.1,4.5,8,7.5c7.4,11.7,10.5,25.3,14.7,38.3c3,9.6,5.3,19.4,4.2,29.5
		c-1,9.4-2.6,18.8-3.9,28.2C155.3,144.3,155.2,146,154.9,148.5z"/>
	<path d="M120.9,175.7c-0.3,0.9-0.6,2.9-1.3,4.7c-8.8,22.6-12,46.3-14.6,70.1c-1.5,13.7,1.3,27.1,4.1,40.5
		c2.9,13.9,6.6,27.6,9.6,41.5c0.9,4,0.5,8.4,0.6,12.6c0.1,2.3-1.4,3.1-3.3,3.2c-2.4,0-4.8,2.4-7.1-0.8c-4.6-6.8-6.6-14.4-8-22.3
		c-4.4-24.7-8.3-49.4-8.6-74.7c-0.3-27.3,5.9-53.2,17.2-77.9c1.3-2.8,3.2-4.9,6.6-4.1C119.2,169,120.8,171.3,120.9,175.7z"/>
	<path d="M206.6,211.4c7.8,0.4,12.4,4.5,15.9,10.1c9.3,14.6,11.7,30.8,9.4,47.5c-1.4,10.2-5.4,20-7.1,30.2
		c-1.7,10-2.5,20.3-2.5,30.5c0,5.3,2.4,10.6,3.9,15.9c2.4,8.8,5.5,17.5,4,26.8c-0.2,1.3-1.5,3.2-2.4,3.3c-2.5,0.3-5.6,3.1-7.8-0.5
		c-1.7-2.9-3.7-5.9-4.3-9c-2.8-15.6-5.7-31.2-7.6-46.9c-1.4-11.3,1.8-22.3,5.3-33c3.1-9.9,7.3-19.7,5.6-30.3
		c-1.1-7-4.1-13.7-6.4-20.5c-1.9-5.6-4.1-11.2-5.8-16.9C206.1,216.4,206.6,213.9,206.6,211.4z"/>
	<path d="M159.1,235.8c-0.2-25.3,3-41.9,11.4-57.1c1.4-2.5,4.6-5,7.3-5.4c3.8-0.7,5.9,3.4,4.9,8.2c-2.3,10.6-4.5,21.2-7.1,31.8
		c-4.5,18.5-3.4,36.9,0,55.4c2.7,14.5,5.4,29,8.3,43.4c0.9,4.5,2.9,8.8,3.9,13.3c0.8,3.6,0.9,7.4,1.1,11.1c0.1,2.9-1.8,4.6-4.4,4.6
		c-2.6,0-5.8-0.2-6.7-3.6c-4.5-18.3-9.8-36.4-13.1-54.9C161.4,264.4,160.2,246,159.1,235.8z"/>
	<path d="M310.9,361.6c-7.1,2.9-8.1,2.5-12.5-2.7c-10-12.1-13.8-25.8-12.9-41.4c0.9-16.8,4.4-33.1,8.2-49.4
		c1.7-7.2,1.7-13.9-0.1-21.2c-2.5-10.2-6.7-19.3-12.3-27.9c-2.4-3.7,0.1-6,1.7-8.3c0.6-0.8,3.8-0.7,5.2,0c2.8,1.5,6,3.1,7.7,5.6
		c10.6,16,16.2,33.4,13.1,52.8c-0.7,4.6-2.4,9.2-4.1,13.6c-5.3,13.9-7.4,28.2-6.5,43c0.1,1.6,0.6,3.2,1.2,4.7
		c3.4,9.5,6.9,19,10.3,28.5C310.3,359.8,310.6,360.7,310.9,361.6z"/>
	<path d="M99.6,61.2c5.7,0.8,9.5,3.8,11.7,8.3c6.8,14.1,11.8,28.8,13.2,44.5c1,11.5-3.4,21.7-7.8,32c-4.6,10.7-12.5,18.5-21.4,25.5
		c-4.5,3.5-9.6,4.6-15.2,3.3c-3-0.7-4.1-2.7-3.1-5.2c0.9-2.5,2.3-5,4.2-6.8c6.4-6.1,13.1-11.9,19.7-17.8c10.2-9.1,12.7-20.8,10-33.4
		c-2-9.5-5.8-18.5-8.7-27.8c-2.1-6.5-4.2-13.1-3.3-20.1C99.1,62.9,99.3,62.2,99.6,61.2z"/>
</g>
</svg>
