<?xml version="1.0" encoding="utf-8"?>
<!-- Generator: Adobe Illustrator 23.0.0, SVG Export Plug-In . SVG Version: 6.00 Build 0)  -->
<svg version="1.1" id="图层_1" xmlns="http://www.w3.org/2000/svg" xmlns:xlink="http://www.w3.org/1999/xlink" x="0px" y="0px"
	 viewBox="0 0 400 400" style="enable-background:new 0 0 400 400;" xml:space="preserve">
<g>
	<path d="M206.01,289.65c0,14.99,0.05,29.98-0.05,44.97c-0.02,2.45-0.31,5.1-1.3,7.28c-0.62,1.37-2.8,2.82-4.26,2.8
		c-1.38-0.02-3.74-1.78-3.91-3.02c-0.91-6.57-1.68-13.21-1.72-19.83c-0.15-24.32,0.01-48.65,0.05-72.98c0-0.83,0.17-1.71-0.04-2.49
		c-0.84-3.08-1.24-8.33-2.83-8.73c-3.07-0.78-7.26,0.43-10.23,2.14c-8.91,5.13-13.39,14.06-17.8,22.85
		c-7.23,14.4-7.49,29.83-6.38,45.43c0.18,2.49,0.71,5.17,0.01,7.43c-0.63,2.04-2.72,3.63-4.17,5.42c-1.64-1.57-4.53-3.01-4.72-4.74
		c-1.04-9.38-2.26-18.88-1.75-28.25c0.45-8.2,2.51-16.46,4.94-24.36c4.46-14.44,13.59-25.73,26.01-34.26
		c2.1-1.45,5.03-1.64,7.46-2.68c2.56-1.09,5.41-2.06,7.34-3.92c1.41-1.35,2.45-4.31,1.95-6.07c-0.49-1.72-2.94-3.54-4.88-4.07
		c-15.8-4.33-29.9-11.41-39.45-25.22c-4.14-5.99-7.51-12.72-6.31-20.53c0.29-1.88,0.93-3.99,2.12-5.38
		c2.35-2.76,5.05-1.91,6.22,1.56c1.58,4.71,2.9,9.54,4.94,14.04c4.33,9.56,12.34,15.37,21.53,19.74c2.85,1.36,5.77,2.65,8.78,3.55
		c5.66,1.68,8.22-0.43,8.08-6.33c-0.2-8.48-0.51-16.96-0.56-25.44c-0.01-2.28,0.37-4.74,1.29-6.81c0.69-1.56,2.65-3.76,3.8-3.63
		c1.73,0.2,3.56,1.97,4.76,3.52c0.8,1.03,0.78,2.85,0.79,4.32c0.05,9.49,0.02,18.99,0,28.48c-0.01,5.32,2.49,6.75,7.69,5.31
		c11.1-3.07,20.7-8.3,27.17-18.09c1.88-2.85,2.93-6.26,4.24-9.47c1.56-3.81,2.83-7.76,4.53-11.5c1.51-3.31,4.04-2.62,5.03,0.04
		c1.23,3.31,2.53,7.33,1.73,10.53c-3.18,12.79-9.69,23.39-21.42,30.56c-7.73,4.73-15.46,8.92-24.49,10.56
		c-1.76,0.32-4.31,2.35-4.5,3.84c-0.27,2.12,0.76,4.98,2.25,6.59c1.57,1.69,4.22,2.75,6.58,3.27c14.36,3.17,22.51,13.87,29.15,25.34
		c11.07,19.12,11.64,40.35,9.55,61.72c-0.35,3.59-1.61,8.16-6.07,7.86c-4.24-0.29-4.39-4.95-4.62-8.35c-0.18-2.6,0.42-5.29,0.9-7.9
		c1.65-9.08,0.4-17.86-2.3-26.56c-1.13-3.64-1.42-7.6-2.97-11.03c-2.82-6.25-5.62-12.73-9.72-18.14
		c-3.21-4.24-8.17-7.31-12.74-10.32c-1.98-1.3-5.3-2.09-7.32-1.31c-1.49,0.57-2.57,4.05-2.6,6.25c-0.22,15.32-0.12,30.65-0.12,45.98
		C205.78,289.65,205.89,289.65,206.01,289.65z"/>
	<path d="M292.3,119.73c-3.32,4.39-7.37,4.91-12.3,2.79c-14.84-6.39-30.81-5.94-46.46-7.43c-1.82-0.17-3.62-0.58-5.41-0.92
		c-7.56-1.45-9.52,0.78-11.81,7.97c-2.68,8.4-6.93,16.32-10.87,24.26c-0.72,1.44-3.44,3.06-4.78,2.73
		c-1.67-0.41-3.41-2.53-4.15-4.32c-3.36-8.1-6.51-16.3-9.46-24.56c-1.87-5.25-4.58-6.95-10.51-5.85
		c-9.94,1.84-20.19,1.94-30.18,3.56c-6.98,1.13-13.69,3.93-20.65,5.27c-2.23,0.43-4.9-1.41-7.36-2.21c0.95-1.87,1.43-4.37,2.94-5.5
		c9.77-7.34,21.4-9.33,33.14-10.7c5.61-0.65,11.29-0.61,16.91-1.2c4.74-0.5,6.1-2.34,4.17-6.71c-2.12-4.81-5.26-9.16-7.97-13.71
		c-1.78-2.99-3.9-5.83-5.22-9c-0.58-1.4,0.02-4.71,0.81-4.98c1.7-0.57,4.72-0.47,5.72,0.66c5.25,5.96,10.41,12.07,14.86,18.64
		c3.13,4.62,5.06,10.04,7.53,15.1c2.67,5.47,5.06,11.11,8.11,16.35c2.46,4.23,4.73,3.83,7.12-0.54
		c8.06-14.74,15.88-29.66,27.28-42.21c2.85-3.14,6.42-5.75,10.01-8.06c2.94-1.89,6.34,0.53,5.66,4.16c-0.52,2.8-1.9,5.73-3.68,7.97
		c-4.55,5.7-9.63,10.98-14.28,16.61c-1.01,1.23-1.07,3.25-1.57,4.91c1.55,0.23,3.1,0.47,4.66,0.68c9.86,1.3,19.72,2.55,29.57,3.92
		c3.11,0.43,6.19,1.1,9.26,1.77C280.59,110.74,287.62,112.68,292.3,119.73z"/>
</g>
</svg>
