<svg enable-background="new 0 0 400 400" viewBox="0 0 400 400" xmlns="http://www.w3.org/2000/svg"><g fill="#010102"><path d="m117.7 172.2c0-16.4-.5-32.8.2-49.2.5-10.9-1-22.2 5-32.3 1.2-2 2.1-4.7 3.9-5.8 5.6-3.6 10.9-7.3 18.1-8.9 36.5-8.1 73.4-2 110-4 2.3-.1 4.5-.1 6.8-.1 4.5.1 7.3 2.3 6.8 5.7-.5 3.9-3.6 3.4-6.4 3.5-4.1 0-8.1-.1-12.2.2-4.6.3-5.8 2.8-4 6.9.9 2 1.7 4.4 1.6 6.5-.9 11.6-1.6 23.2-3.2 34.8-1 7.3-6.5 11.4-13.1 14.1-15.7 6.2-31.3 3.4-46.5-1.1-5.4-1.6-9.4-7.2-9.9-13-1.1-13-1.5-26.1-1.4-39.2 0-6.3-.2-7.8-6.5-7-9.1 1.2-18.1 3-27.1 4.9-2 .4-4.5 1.8-5.4 3.5-3.8 7.5-7.9 14.9-7.4 23.8.4 7.6.1 15.3-.1 22.9-.4 20.4-1.4 40.8-1.2 61.3.1 13.4 1.7 26.8 3.3 40.2.9 7.6 5.2 13.6 11.3 18.1 1.3 1 3.3 1.6 4.9 1.6 14.1.3 28.1.4 42.2.7 3.9.1 7.7.6 11.6 1 7 .8 14.1 1.2 21 2.6 10.2 2.1 20.5 4.1 30.3 7.7 5.2 1.9 9.6 6.7 13.9 10.7 9.8 9.2 14.8 21.6 21.2 33.1 3.5 6.4 6 13.4 8.4 20.3.6 1.6-.5 5.2-1.6 5.6-2.9 1-6.3 1.7-8.2-2.5-5.1-11.3-10.7-22.4-15.6-33.8-4.1-9.5-11.5-15.9-19.5-21.5-7.2-5-15.4-7.1-24.2-8.8-23.2-4.5-46.5-2.6-69.8-3.3-10.9-.3-22.1-1.1-29-11.4-2.7-4-5.7-8.7-6-13.3-1.5-24.8-2.2-49.6-3.2-74.4.3-.1.7-.1 1-.1zm79.3-89.8c-3-.2-4.8-.4-6.5-.5-7.8-.2-10.3 3.3-7.9 10.8.7 2.3 1.5 4.6 1.7 7 .5 6.3 2 7.2 8.3 6.8 12.4-.8 24.8-1.2 37.3-1.2 4.1 0 6.3-1.3 6.6-5.1.4-5 .5-10 .4-15-.1-3.2-1.6-4.9-5.3-4.6-11.9.8-23.9 1.2-34.6 1.8zm15.3 53c3.8-.3 8.8-.4 13.8-1 3.6-.4 5.7-2.7 6.2-6.4.2-1.8.4-3.5.7-5.3.5-3.7-2-6.1-5.7-5.8-6.1.5-12.2 1-18.3 1.1-5.8.1-11.7-.1-17.4-.8-4.2-.5-6.4.5-6.9 4.8-.6 4.9 4.9 12 10 12.5 5.5.5 11 .6 17.6.9z"/><path d="m274.3 190.4c-.4 13.4 1.1 26.9-3.4 40-2.6 7.6-5.3 13.9-14.7 14-2.8 0-5.5 1.9-8.3 2.5-9 2.1-23.1-3.9-26-12.2-2.6-7.4-4.1-15.4-4.5-23.2-.8-14.2-.6-28.5-.3-42.8.1-3.2 2.3-6.6 4.3-9.3.7-.9 5.1-.7 5.7.3 2.6 4.2 5.2 8.4 3.4 14-1.4 4.4-2 9.2-2.3 13.8-.3 4.9 1.9 7.2 6.9 7.6 7.3.6 14.5 1 21.8 1.1 5.4.1 6.7-1.8 6.7-7.1-.1-8.9 0-17.8.3-26.7 0-1.4 1.6-3.8 2.5-3.8 1.7-.1 3.8.9 5.2 2 3 2.7 3.1 6.3 2.9 10.2-.5 6.6-.2 13.1-.2 19.6zm-45.4 25.6c0 1.5-.4 3.1.1 4.3 1.9 4.5 1.7 9.8 6.5 13.3 6.5 4.7 12.9 3.6 19.2.7 2.6-1.2 5.4-3.7 6.5-6.3 1.4-3.1 1.4-6.9 1.6-10.5.6-8.8-2-11.1-11-10.8-4.4.2-8.8.2-13.1-.2-7.8-.5-10.3 1.6-9.8 9.5z"/><path d="m173.1 249c-6-2-11.7-3-16.4-5.7-2.9-1.7-5.3-5.5-6.3-8.9-2.2-7.4-4.2-15-4.7-22.7-.8-11.8-.5-23.7-.1-35.5.2-5.3 1.4-10.5 2.5-15.7.2-1.1 1.9-2.7 2.8-2.7 1.3 0 3.5 1.1 3.8 2.1 1.2 4.2 2.5 8.6 2.5 13 0 4.9-1.4 9.9-2 14.8-.6 4.6 3 7.8 7.8 7.9 6.7.1 13.5.2 20.1.9 5.8.6 7.6-.9 7.2-6.8-.5-7.3-1-14.6-.6-21.8.2-3 2.3-6.2 4.2-8.8.7-.9 3.3-.8 5-.4.7.2 1.6 2 1.6 3.1 0 21 .2 42-.4 63-.1 4.9-2.8 9.9-5 14.4-1.5 3-3.7 6.4-8.3 4.9-.5-.2-1.2.2-1.8.5-4 1.3-7.8 2.8-11.9 4.4zm-15-29.8c-.9 5.9-.4 12 6.2 15 3.4 1.5 7.5 1.8 11.3 2 9.5.3 15.2-6.2 14.4-15.7-.2-2.4-.2-4.8 0-7.2.3-5.3-1.5-7-6.8-6.6-5.3.3-10.7 1-15.9.2-6.1-1-9.4.9-9.4 7.2-.1 1.5.1 3.1.2 5.1z"/></g><path d="m385.2 377.6.6-.7c.6.4 1.3.9 1.9 1.5l-.6.7c-.8-.5-1.4-1-1.9-1.5zm.3 7.1c.6-1.4 1.1-2.9 1.5-4.5.3.1.6.3.9.4-.5 1.4-1 2.9-1.5 4.4zm.2-10.1.6-.6c.7.5 1.3 1.1 1.9 1.6l-.7.7c-.6-.6-1.2-1.2-1.8-1.7zm8.4-.8h.8v.9h1.8v.7h-1.8v1.8h-.8v-.3h-1.2v.9h3.3v2.6h-.8v-.4h-2.5c0 .3 0 .6-.1.8h3.4v.7h-3.5c0 .3-.1.6-.1.8h4v.7h-3.5c.7.9 1.9 1.3 3.6 1.5-.2.2-.4.5-.6.9-1.9-.3-3.2-1.1-3.8-2.3-.5 1.1-1.8 2-3.9 2.4-.2-.3-.4-.5-.6-.8 1.9-.4 3.1-.9 3.6-1.7h-3.2v-.7h3.5c.1-.2.1-.5.2-.8h-3.3v-.7h3.4c0-.2 0-.5 0-.8h-2.4v.3h-.8v-2.6h3.3v-.9h-1.2v.3h-.8v-1.8h-1.8v-.7h1.8v-.9h.8v.9h3.2zm-4.4 5.5h2.4c0-.3 0-.6 0-.9h-2.4zm1.2-3.1h3.2v-.8h-3.2zm4.4 2.2h-2.4v.9h2.5v-.9z" fill="#fcfbfa"/><path d="m389.2 385.8h.9v1.5h1.9v-1.5h.9v1.5h2.7v6h1.1v.9h-11.3v-.9h1.1v-6h2.7zm.2 8.7.5.8c-1.2.6-2.5 1.3-4 1.9-.2-.3-.3-.6-.6-.8 1.6-.6 3-1.3 4.1-1.9zm-2-4.3h1.9v-2.1h-1.9zm0 3.1h1.9v-2.2h-1.9zm2.7-3.1h1.9v-2.1h-1.9zm0 3.1h1.9v-2.2h-1.9zm2.4 1.3c1.4.6 2.7 1.2 4.1 1.8l-.5.9c-1.5-.7-2.8-1.4-4.1-1.9zm2.2-6.5h-1.9v2.1h1.9zm-1.9 5.2h1.9v-2.2h-1.9z" fill="#fcfbfa"/></svg>