<svg enable-background="new 0 0 400 400" viewBox="0 0 400 400" xmlns="http://www.w3.org/2000/svg"><path d="m374.8 390.4.4-.4c.7.5 1.3 1 1.8 1.4l-.5.5c-.5-.6-1.1-1.1-1.7-1.5zm1 7.3-.6-.3c.5-1.4 1.1-2.8 1.5-4.3.2.1.4.2.6.3-.5 1.3-1 2.8-1.5 4.3zm-.4-10.3.4-.4c.4.3 1 .8 1.7 1.4l-.5.5c-.4-.5-1-1-1.6-1.5zm2.5.3h1.7v-1h.6v1h3.5v-1h.6v1h1.8v.5h-1.8v1.4h-2v1h3.2v2h-3.2v.9h3.3v.5h-3.4c0 .3-.1.6-.1.9h4v.5h-3.7c.7.9 1.9 1.5 3.8 1.7-.1.2-.2.4-.3.6-2.1-.4-3.5-1.1-4-2.1-.4 1-1.8 1.7-4 2.2-.1-.2-.2-.4-.3-.6 2.1-.4 3.4-1 3.8-1.8h-3.4v-.5h3.6c.1-.3.1-.6.2-.9h-3.3v-.5h3.4c0-.3 0-.6 0-.9h-3.2v-2h3.3v-1h-2.1v-1.4h-1.7v-.5zm1.1 3.5v1h2.7c0-.3 0-.4 0-.4 0-.1 0-.2 0-.2 0-.1 0-.2 0-.3h-2.7zm1.2-3v.9h3.5v-.9zm4.7 3h-2.6v.6.4h2.6z" fill="#fbfafc"/><path d="m393.6 386.7h.6v1.5h2.7v6.1h1.1v.6h-11v-.6h1.1v-6.1h2.7v-1.5h.6v1.5h2.1v-1.5zm-2.7 8.8.4.6c-1.2.6-2.5 1.3-3.8 1.9-.1-.2-.2-.4-.3-.6 1.2-.6 2.5-1.2 3.7-1.9zm-2.2-6.7v2.4h2.1v-2.4zm0 3v2.5h2.1v-2.5zm2.8-3v2.4h2.1v-2.4zm0 3v2.5h2.1v-2.5zm6 6.1c-1.4-.7-2.7-1.3-3.9-1.8l.3-.6c1.5.6 2.7 1.2 3.9 1.7zm-1.2-9.1h-2.1v2.4h2.1zm-2.1 3v2.5h2.1v-2.5z" fill="#fbfafc"/><g fill="#010000"><path d="m203.7 296.8c-26.6 23.7-57.5 35.2-92.5 35.9-4.9.1-9.9-1.2-14.9-1.8 0-.8 0-1.6-.1-2.3 3-.9 5.9-2 8.9-2.7 27.8-6 53.4-17 75.7-34.9 1-.8 1.9-1.7 4-3.5-10.1-2.9-19.4-5.6-28.6-8.1-3.1-.9-6.4-1.2-9.5-1.9-9.2-2-11.1-7.6-6.3-15.7 4.5-7.6 8.4-15.6 12.4-23.6.9-1.8 1.4-3.9 2.3-6.6-8.6 1.1-16.6 1.7-24.5 3.1-15.9 2.8-31.8 6.1-47.7 9.1-2 .4-4.4.8-6.3.1-8.4-3.2-16.8-6.7-25-10.3-1.3-.6-2.8-2.9-2.5-4.1.2-1.3 2.3-2.9 3.7-3.1 5.1-.6 10.3-.7 15.5-1.1 23.4-1.8 46.8-3.7 70.2-5.5 5.5-.4 11-1 16.5-1.3 3.4-.2 5.3-1.3 6.6-5 4.4-13.4 5.8-27.2 6-41.2.1-6.9 1.6-8.1 8.2-6.3 3.7 1.1 7.3 2.6 10.7 4.5 9.4 5.2 10.1 9.6 4.9 18.9-4.8 8.4-8.7 17.3-13.5 26.8 17.2-1 33.4-2 50.5-3.1-.4-4.6-.9-8.8-1.2-13.1-.1-2.3-.7-5.7.4-6.6 1.6-1.3 5.1-1.7 7.1-.8 8.7 3.8 16.5 9 21.5 18.3 13.3-1.8 26.9-3.5 40.5-5.4 7.1-1 14.2-3.7 21.1-3 12 1.2 23.5 5.1 31.7 14.9 2.8 3.3 1.9 6.4-2.5 7.2-6.6 1.2-13.5 1.8-20.2 1.8-13.3.1-26.6-.5-39.9-.7-11.5-.1-23.1-.1-34.6.2-1.7 0-4.4 1.7-5 3.2-6.9 18.7-16.2 36-28.8 52 8.1 2.9 16.1 5.5 23.8 8.6 14.7 5.8 28.7 12.9 39.7 24.7 4.2 4.5 8.1 9.4 8.6 15.9.7 8.5-3.1 12.7-11.4 11.2-4.6-.9-9.2-3.2-13-6-19.6-14.3-40.3-27.4-62.5-38.7zm22-68.7c-1-.7-1.3-1.1-1.5-1.1-16.5.9-33 1.8-49.5 2.9-1.3.1-3.2 1.2-3.8 2.4-4.8 9.7-9.3 19.6-13.9 29.5-1.8 3.9-.6 6 3.8 6.7 11.3 2 22.5 4.5 33.8 6.5 1.5.3 4-.6 4.8-1.8 6.4-8.9 12.9-17.8 18.6-27.2 3.4-5.6 5.2-12.1 7.7-17.9z"/><path d="m135.4 112.5c2.6-1.1 5.3-2.3 7.9-3.4 25.4-10.6 49.7-23 70.9-40.8.2-.2.6-.4.8-.6 8.3-9.2 12.9-8.7 24-1.3 4.4 2.9 8.6 6.3 12.5 10 4.4 4.2 3.7 7.8-1.7 10.7-1.4.8-2.9 1.4-4.5 1.8-22.4 6.7-44.9 13.3-67.4 20-12 3.5-23.9 7.3-36.6 6.7-2-.1-4-.8-6-1.2.1-.6.1-1.3.1-1.9z"/><path d="m296.6 131.8c-1.8 2.1-3.4 5.1-5.9 6.6-17.1 9.8-34.4 19.2-51.7 28.8-2.5 1.4-5.2 2.7-7.9 3.6-1.2.4-2.7-.3-4-.4.6-1.1 1-2.6 1.9-3.4 11.1-10 21.5-20.7 29-33.7 3.7-6.4 6.8-13.2 10.1-19.9 1.6-3.2 4.1-4.9 7-2.8 6.5 4.6 12.8 9.7 18.9 14.9 1.3 1 1.5 3.4 2.6 6.3z"/><path d="m213.8 148.1c-1.1 9.6-5 15-12.4 15-2.7 0-6.6-1.4-7.8-3.4-6.9-11.3-13.3-22.8-19.6-34.5-2-3.7 1-5.3 4.1-4.9 11.5 1.5 22.2 5.6 30 14.4 3 3.4 3.8 8.8 5.7 13.4z"/><path d="m156.5 159.1c-.4 2.4-.6 4.8-1.4 7.1-2.3 6.6-9.6 9.1-14.8 4.4-4.4-4-8.1-8.8-11.5-13.7-4.4-6.4-8.2-13.2-12-20-.7-1.2-1.2-3.4-.6-4.4s2.9-1.8 4.2-1.5c10.5 2.3 20.9 5.2 29.5 11.8 5.2 3.8 6.3 10 6.6 16.3z"/></g></svg>