<svg enable-background="new 0 0 400 400" viewBox="0 0 400 400" xmlns="http://www.w3.org/2000/svg"><path d="m374.8 390.4.4-.4c.7.5 1.3 1 1.8 1.4l-.5.5c-.5-.6-1.1-1.1-1.7-1.5zm1 7.3-.6-.3c.5-1.4 1.1-2.8 1.5-4.3.2.1.4.2.6.3-.5 1.3-1 2.8-1.5 4.3zm-.4-10.3.4-.4c.4.3 1 .8 1.7 1.4l-.5.5c-.4-.5-1-1-1.6-1.5zm2.5.3h1.7v-1h.6v1h3.5v-1h.6v1h1.8v.5h-1.8v1.4h-2v1h3.2v2h-3.2v.9h3.3v.5h-3.4c0 .3-.1.6-.1.9h4v.5h-3.7c.7.9 1.9 1.5 3.8 1.7-.1.2-.2.4-.3.6-2.1-.4-3.5-1.1-4-2.1-.4 1-1.8 1.7-4 2.2-.1-.2-.2-.4-.3-.6 2.1-.4 3.4-1 3.8-1.8h-3.4v-.5h3.6c.1-.3.1-.6.2-.9h-3.3v-.5h3.4c0-.3 0-.6 0-.9h-3.2v-2h3.3v-1h-2.1v-1.4h-1.7v-.5zm1.1 3.5v1h2.7c0-.3 0-.4 0-.4 0-.1 0-.2 0-.2 0-.1 0-.2 0-.3h-2.7zm1.2-3v.9h3.5v-.9zm4.7 3h-2.6v.6.4h2.6z" fill="#fbfafc"/><path d="m393.6 386.7h.6v1.5h2.7v6.1h1.1v.6h-11v-.6h1.1v-6.1h2.7v-1.5h.6v1.5h2.1v-1.5zm-2.7 8.8.4.6c-1.2.6-2.5 1.3-3.8 1.9-.1-.2-.2-.4-.3-.6 1.2-.6 2.5-1.2 3.7-1.9zm-2.2-6.7v2.4h2.1v-2.4zm0 3v2.5h2.1v-2.5zm2.8-3v2.4h2.1v-2.4zm0 3v2.5h2.1v-2.5zm6 6.1c-1.4-.7-2.7-1.3-3.9-1.8l.3-.6c1.5.6 2.7 1.2 3.9 1.7zm-1.2-9.1h-2.1v2.4h2.1zm-2.1 3v2.5h2.1v-2.5z" fill="#fbfafc"/><g fill="#010000"><path d="m188.1 197.8c.4-5.3.7-10.2 1.1-15 .2-1.9-.1-4.4 1-5.6 1.7-1.9 4.3-3.6 6.7-4.2.9-.2 3.6 2.6 3.8 4.2 1 9.3 2.5 18.7 1.9 28-.7 10.9-2.7 21.8-5.1 32.5-2.5 11.4-11.1 17.6-23 18.1-4.8.2-9.7.7-15.1 1.1.3 4.8.5 9.4.8 15.1 6.6 0 13.2-.1 19.8 0 10.5.2 21.1.6 31.6 1 1.4.1 3.1.3 4.1 1.2 1.3 1.1 2.8 2.9 2.9 4.4 0 1.4-1.4 3.8-2.8 4.2-4.2 1.4-8.7 2.9-13.1 3-12 .1-24-.5-36-.8-1.7 0-3.5 0-5.6 0-.4 7-.9 13.4-1 19.9-.1 16.2.1 32.5-.1 48.7 0 3.1-.9 6.5-2.3 9.3-.8 1.5-3.6 2.9-5.3 2.7-1.6-.2-3.9-2.6-4-4.2-.9-13.2-1.6-26.5-2-39.7-.3-10.4-.2-20.8-.3-31.2 0-1.7-.5-3.4-.8-5.8-8.7.4-17.1 1-25.5 1-8.1 0-16.2-.2-24.2-1-2.8-.3-5.7-2.3-7.8-4.3-3.1-3-2.3-5 1.8-6.6 7.6-3.1 15.5-2.8 23.5-2.5 9.9.4 19.8.6 29.7.7 1.2 0 3.1-1.7 3.3-2.8.7-3.8.9-7.7 1.3-12.3-4.1-.7-8.2-2-12.3-2-16.7.1-23.1-9.4-25.1-21.3-2.9-17.3-3.3-34.8-1.9-52.3.1-1.4.4-3 1.2-4.2 1.3-2.1 1.2-5.9 5.3-5.1s6.9 4.2 6.5 8.4c-.2 3-1 6-1.4 9.1-.7 6.4.8 8.1 7.2 8.1h55.5c1.6.2 3.3.2 5.7.2zm-66.1 12.3c0 7.3-.6 14.4.2 21.4.6 5.7 3.7 10.4 10.5 10.7 11.5.5 22.9 1.4 34.4 1.3 4.5 0 9.1-2.1 13.5-3.7 1.5-.5 3.4-2.1 3.6-3.4 1.2-8.7 2-17.5 3-26.3-22.1 0-43.5 0-65.2 0z"/><path d="m227.3 83.7c-7.7 3.4-15.2 4.8-23.4 4-4.8-.5-10.6-1.3-14.2.9-3 1.8-3.5 7.8-5 12-.5 1.5-.9 3.1-1 4.7-1.1 8.8-6.3 13.3-14.7 15-7.9 1.6-7.9 1.9-8.1 9.7-.2 7.6-.6 15.2-1 23.5 8.1-.9 15.6-1.6 23.1-2.6 1.1-.2 2.4-1.8 2.8-3 1.9-5.5 3.5-11 5.3-16.5 1-2.9 1.6-6.1 3.4-8.3 2.7-3.3 5.7-2.6 7.4 1.3 5.8 13.7 1.6 35.9-21 40.7-4.9 1-9.9 1.8-14.9 2.3-4.7.4-6.5 3.3-6.7 7.3-.2 3.5.2 7.1.6 10.6.4 3.4-.3 6.1-3.5 7.8-4.6 2.5-7 1.7-8-3.5-.9-4.6-1-9.3-1.1-14-.3-8-.5-8.3-8.1-9.7-4.1-.7-8.4-1.3-12.3-2.7-17.2-6.1-20.5-26-15.6-38.4.8-1.9 4.5-2.7 7.5-4.3 1.9 7.9 3.4 14.8 5.5 21.6.8 2.6 2.8 5.7 5.2 6.9 4.8 2.4 10.2 3.8 15.7 5.7.4-2 .8-3.2.9-4.4.5-7.4 1-14.9 1.1-22.3 0-1.8-1.3-4.7-2.7-5.3-12.3-5.1-19.2-14-21.6-27.2-1.4-7.5-2.3-7.3-10.1-7.4-5.4-.1-10.7.1-16.1-.1-6.3-.3-9.7-3.2-8.5-7.3.4-1.5 2-3.4 3.5-3.9 3.4-1 6.9-1.8 10.4-1.8 30.5-.1 61.1-.1 91.6-.1 8.1 0 16.2 0 24.3.3 4.8.2 8.3 2.6 9.3 8.5zm-91.5 4.7c.9 5.3 1 9.9 2.4 14 2.5 7.5 9.4 7.8 15.9 8.4 10.5 1 18.5-4.8 20.2-15 .5-3.3.5-7.2-4-7.3-11-.3-22-.1-34.5-.1z"/><path d="m235.8 359.7c-.3-4.2-1.2-8-.7-11.6 4.3-29 15.1-55.8 28.2-81.8.4-.7.7-1.5 1.2-2.1 8.6-10.7 17-21.7 26.1-32.1 4.3-4.9 9.8-8.9 15.2-12.7 1.8-1.3 5.6-1.5 7.4-.4 1.4.8 2.1 4.8 1.4 6.8-1.1 3.2-3 6.5-5.4 8.9-25.1 25.3-43.8 54.5-54.6 88.6-2.6 8.3-3.9 17-5.9 25.5-1.4 5.9-4.7 10.2-12.9 10.9z"/><path d="m226.2 231.6c1.2-8.8 4.9-16.7 10.1-23.8 14.9-20.8 29.7-41.7 45.2-62 4.9-6.5 11.8-11.5 17.7-17.2 2.3-2.2 5.1-2.1 6.9-.1 1.1 1.3 1.5 4.3.8 5.9-1.5 3.6-3.4 7.4-6.1 10.2-17.6 18.8-31.9 40-46.4 61.2-5.1 7.5-9.7 15.3-14.7 22.9-3.6 5.2-7.7 6-13.5 2.9z"/><path d="m221.4 135.8c1.3-3.3 2.2-6.7 3.9-9.7 14.6-25.7 33.3-48.5 50.7-72.3 4.4-6 10.9-10.5 16.6-15.5 2.8-2.5 6.4-3.7 9-.3 2.4 3.1 1.3 6.7-1.4 9.7-5.5 5.9-11.1 11.8-16.5 17.9-16.8 19-32.2 39-42.8 62.2-1.4 3.1-3.1 6.1-5.1 8.8-1.3 1.8-3 3.5-4.9 4.6-6 3.4-8.8 1.7-9.5-5.4z"/><path d="m107.6 59.4c-.9-8.2 2.9-12.3 10.9-12.3 24.8-.2 49.7-.1 74.5 0 3.1 0 6.1.5 9.2 1 3.8.6 6 3.1 6.4 6.9s-2.9 4.3-5.4 5.1c-2.4.8-5 1.4-7.6 1.4-21.5.5-43.1 1.1-64.6.9-7.9.1-15.7-1.9-23.4-3z"/><path d="m156.6 234.5c-6.1-.9-10.8-1.4-15.4-2.2-3.4-.7-6-2.6-6.1-6.5s2.7-5.1 5.7-5.2c8.9-.4 17.7-.7 26.6-.7 1.6 0 3.3 1.3 4.6 2.4 3.8 3.3 3.6 6.7-1 8.4-4.9 1.9-10.4 2.8-14.4 3.8z"/></g></svg>