<svg enable-background="new 0 0 400 400" viewBox="0 0 400 400" xmlns="http://www.w3.org/2000/svg"><path d="m374.8 390.4.4-.4c.7.5 1.3 1 1.8 1.4l-.5.5c-.5-.6-1.1-1.1-1.7-1.5zm1 7.3-.6-.3c.5-1.4 1.1-2.8 1.5-4.3.2.1.4.2.6.3-.5 1.3-1 2.8-1.5 4.3zm-.4-10.3.4-.4c.4.3 1 .8 1.7 1.4l-.5.5c-.4-.5-1-1-1.6-1.5zm2.5.3h1.7v-1h.6v1h3.5v-1h.6v1h1.8v.5h-1.8v1.4h-2v1h3.2v2h-3.2v.9h3.3v.5h-3.4c0 .3-.1.6-.1.9h4v.5h-3.7c.7.9 1.9 1.5 3.8 1.7-.1.2-.2.4-.3.6-2.1-.4-3.5-1.1-4-2.1-.4 1-1.8 1.7-4 2.2-.1-.2-.2-.4-.3-.6 2.1-.4 3.4-1 3.8-1.8h-3.4v-.5h3.6c.1-.3.1-.6.2-.9h-3.3v-.5h3.4c0-.3 0-.6 0-.9h-3.2v-2h3.3v-1h-2.1v-1.4h-1.7v-.5zm1.1 3.5v1h2.7c0-.3 0-.4 0-.4 0-.1 0-.2 0-.2 0-.1 0-.2 0-.3h-2.7zm1.2-3v.9h3.5v-.9zm4.7 3h-2.6v.6.4h2.6z" fill="#fbfafc"/><path d="m393.6 386.7h.6v1.5h2.7v6.1h1.1v.6h-11v-.6h1.1v-6.1h2.7v-1.5h.6v1.5h2.1v-1.5zm-2.7 8.8.4.6c-1.2.6-2.5 1.3-3.8 1.9-.1-.2-.2-.4-.3-.6 1.2-.6 2.5-1.2 3.7-1.9zm-2.2-6.7v2.4h2.1v-2.4zm0 3v2.5h2.1v-2.5zm2.8-3v2.4h2.1v-2.4zm0 3v2.5h2.1v-2.5zm6 6.1c-1.4-.7-2.7-1.3-3.9-1.8l.3-.6c1.5.6 2.7 1.2 3.9 1.7zm-1.2-9.1h-2.1v2.4h2.1zm-2.1 3v2.5h2.1v-2.5z" fill="#fbfafc"/><g fill="#010000"><path d="m215.2 192.8c-1.5 1.4-3.5 2.5-4.6 4.2-5.5 8.9-7.9 18.9-8.5 29.1-.9 14.2-1 28.5-1.1 42.7 0 5.5 1.5 10.9 1.6 16.4 0 5.6-.1 11.4-1.6 16.7-1.7 6-7.2 7.1-11.7 2.4-.4 2.7-.5 5.1-1.1 7.3-.4 1.6-1.8 4.4-2.3 4.3-2.6-.5-6.7-1.1-7.3-2.8-10.7-29.8-23.7-59.3-21.4-92 .9-13.2 3.9-26.2 6.2-39.2.3-1.7 1.7-3.5 3.1-4.6 3.2-2.4 6.1-1.3 7.3 2.6 2.7 8.1 2.1 16.5.2 24.5-7.3 30.9-.9 60.1 10.4 88.7.4 1.1 1.2 2.2 2.4 4.4.2-2.2.3-3 .3-3.9.3-15.9.3-31.8 1.1-47.7.7-13.7 2.1-27.5 4-41.1.6-4.1 3.9-7.7 5.8-11.6 3.5-7.1 7.9-13.2 15.4-16.8 1.5-.7 2.1-3.4 2.9-5.3.3-.7 0-1.6.1-2.4 1.3-9.3.3-16.4-11.3-18.9-7.5-1.6-10.3-9.6-11.9-16.6-4.8-20.1-5.7-40.4-2.2-60.8 1.2-7.2 1.4-7.1 10.1-8 1.2 6.1 3 12.3 3.5 18.6.6 7.2.2 14.6-.2 21.9-.6 10.2-.4 20.1 5.3 29.1 1.3 2 3.1 3.5 5.9 4.9.2-9.3.6-18.6.7-27.9.1-19 .1-38 .1-57 0-5.5 1.9-10.1 6.1-13.9 5.9 2.2 7.9 6.6 7.8 12.6-.1 22.4-.1 44.8 0 67.3 0 6.3.6 12.6 1.1 20.4 2.5-1.9 5.3-3 6-4.8 2.5-6.7 5.4-13.7 6-20.7 1-11.6.2-23.3.3-35 0-3.4.4-6.8 1.1-10.1.7-3.4 3-5.2 6.6-5.4s3.9 2.8 4.1 5c1.1 10.3 2.6 20.6 2.6 30.9.1 8.7-1.1 17.5-2.7 26.1-1.2 6.1-3.6 12.1-6.4 17.6-1.2 2.3-4.7 4-7.5 4.9-9.6 3.1-12.8 9.2-11.7 19.3.6 5.7 1.3 9.3 7.3 11.3 7.6 2.6 12.2 8.6 15.1 16.1 5.1 13.5 7.9 27.6 7.8 41.8-.1 22-1.6 44-2.8 66.1-.1 1.7-2.5 4-4.4 4.8-2.6 1.1-5-.6-5.3-3.4-.8-7.5-2.5-15.2-1.5-22.5 2.1-14.8 1.2-29.5 0-44.2-1-12.1-2.5-24.2-7.5-35.4-1.6-3.6-4-6.8-6-10.2-.4.1-.8.3-1.1.4-.1.9-.3 1.7-.3 2.6-.3 41.1-.7 82.2-1 123.3-.1 10.2.1 20.4.1 30.6 0 1 .1 2-.2 2.9-1 3.6-1.5 7.6-6.6 7.7-4.9.1-5-3.8-5.5-7.1-.7-4.8-1.6-9.6-1.6-14.4-.1-46.3 0-92.6 0-138.9 0-1.9 0-3.9 0-5.8-.3-.4-.7-.7-1.1-1.1z"/><path d="m147.3 142.2c12.9-2.5 19.4-13.3 16.9-28.3-2.2-13.1-5.3-26-7.6-39.1-.9-5.5-.9-11.3-.7-16.9.1-1.7 2.3-4.1 4-4.6 1.6-.4 5 .9 5.5 2.2 2.5 6.6 4.7 13.3 6.1 20.2 2.5 11.9 4.4 23.9 6.4 35.8 1.7 10 .7 19.8-3.7 28.9-1.6 3.3-5.2 5.6-8 8.2-4.7 4.3-9.5 8.2-16.5 8.1-3.8 0-6.1 2.4-6.4 7-.9 12.6-2.8 25.1-3.7 37.7-1.5 21.2 3.1 41.9 6.3 62.7 4.3 27.4 15.8 52.6 23.8 78.8 1.2 4 3 8 3.5 12.1.3 2.5-.8 5.8-2.4 7.7-3.2 3.6-5.2 3.1-7.9-.9-8.8-12.8-13.2-27.4-17.5-42-5.5-18.8-11.1-37.6-15.4-56.7-3.8-17.2-6.1-34.6-3.8-52.5 1.9-15.4 2.3-31 3.5-46.5 1.1-15.7 2.5-31.3 3.5-47 1.3-20.9-.7-41.1-11.8-59.6-2.8-4.7-4.5-10.4-5.4-15.8-.9-5 3.4-7.3 7.5-4.4 2.5 1.8 5 4.4 6.3 7.1 10.2 22.2 18 45.1 17.6 70-.2 9.3-.1 18.3-.1 27.8z"/><path d="m267.1 188.2c0-14.6-.5-35.1.2-55.5.4-9.9 2.8-19.8 4.8-29.5 1.5-7.1 7.4-9.7 13.7-10.3 7.4-.7 14.9-.6 22.4-.1 10.2.6 17.2 8.5 17.4 20.6.6 34.7.9 69.5.9 104.2 0 9.7-1.1 19.5-2.9 29-3 16.4-10.3 21.7-29.8 20.8-1.6-.1-3.2-.5-4.8-.8-12.8-1.8-17.4-8.1-18.8-21-1.8-17.2-1.9-34.4-3.1-57.4zm15-29v37.2h31.1c0-12.5 0-24.6 0-37.2-10.5 0-20.6 0-31.1 0zm-1.6 53.6c.4 8.6.6 16.7 1.3 24.7.3 3.3 1.5 6.7 3.1 9.6 3.7 6.8 15.4 9.2 21.7 4.6.8-.5 1.8-1.3 1.9-2.1 1.8-11.6 3.5-23.3 5-34.9.3-2.2-.9-3.9-3.8-3.7-9.5.7-18.9 1.2-29.2 1.8zm31.7-69.9c0-10 .2-19.6-.1-29.3-.2-5-3.1-7.3-8.4-7-5.1.2-10.3-.6-15.5-.4-1.4 0-3.5 1.6-4.1 2.9-4.4 10.3-3.4 21.2-3 32 .1 2.8 2.1 3.2 4.5 3.1 7.9-.3 15.8-.5 23.7-.8 1.1-.1 2.2-.4 2.9-.5z"/><path d="m130.1 334.7c-9 2.8-9.1 2.9-13.9-3.8-8.6-12-12.9-25.8-15-40.1-2.7-19-5.2-38.2-6.5-57.3-1.2-17.5 3-34.4 9.8-50.6 1.4-3.3 3.2-6.3 7.2-5.6 3.5.6 5.7 5.3 4.1 9.6-6.1 16.1-5.6 33.1-7.1 49.8-.9 10.8 2.2 21.8 2.9 32.8 1.3 21.1 9.7 40.1 16.4 59.7.7 1.6 1.4 3.4 2.1 5.5z"/><path d="m100.4 64.1c5.4.2 8.9 1.9 10 6.2 2.8 10.5 5.3 21 7.7 31.5 2.5 10.8-1.1 20.8-5.1 30.6-5.2 12.9-12.1 24.7-21.2 35.3-3.2 3.7-6.7 6.6-12 6.2-3.8-.3-5.8-2.5-4.3-6.1 1.3-3.2 3.1-6.3 5.3-9.1 5.9-7.5 12.4-14.6 18-22.3 6.9-9.7 7-20.6 4.4-32.1-2.2-9.7-3.4-19.7-4.5-29.7-.5-3.3 1-6.9 1.7-10.5z"/></g></svg>