<svg enable-background="new 0 0 400 400" viewBox="0 0 400 400" xmlns="http://www.w3.org/2000/svg"><path d="m374.8 390.4.4-.4c.7.5 1.3 1 1.8 1.4l-.5.5c-.5-.6-1.1-1.1-1.7-1.5zm1 7.3-.6-.3c.5-1.4 1.1-2.8 1.5-4.3.2.1.4.2.6.3-.5 1.3-1 2.8-1.5 4.3zm-.4-10.3.4-.4c.4.3 1 .8 1.7 1.4l-.5.5c-.4-.5-1-1-1.6-1.5zm2.5.3h1.7v-1h.6v1h3.5v-1h.6v1h1.8v.5h-1.8v1.4h-2v1h3.2v2h-3.2v.9h3.3v.5h-3.4c0 .3-.1.6-.1.9h4v.5h-3.7c.7.9 1.9 1.5 3.8 1.7-.1.2-.2.4-.3.6-2.1-.4-3.5-1.1-4-2.1-.4 1-1.8 1.7-4 2.2-.1-.2-.2-.4-.3-.6 2.1-.4 3.4-1 3.8-1.8h-3.4v-.5h3.6c.1-.3.1-.6.2-.9h-3.3v-.5h3.4c0-.3 0-.6 0-.9h-3.2v-2h3.3v-1h-2.1v-1.4h-1.7v-.5zm1.1 3.5v1h2.7c0-.3 0-.4 0-.4 0-.1 0-.2 0-.2 0-.1 0-.2 0-.3h-2.7zm1.2-3v.9h3.5v-.9zm4.7 3h-2.6v.6.4h2.6z" fill="#fbfafc"/><path d="m393.6 386.7h.6v1.5h2.7v6.1h1.1v.6h-11v-.6h1.1v-6.1h2.7v-1.5h.6v1.5h2.1v-1.5zm-2.7 8.8.4.6c-1.2.6-2.5 1.3-3.8 1.9-.1-.2-.2-.4-.3-.6 1.2-.6 2.5-1.2 3.7-1.9zm-2.2-6.7v2.4h2.1v-2.4zm0 3v2.5h2.1v-2.5zm2.8-3v2.4h2.1v-2.4zm0 3v2.5h2.1v-2.5zm6 6.1c-1.4-.7-2.7-1.3-3.9-1.8l.3-.6c1.5.6 2.7 1.2 3.9 1.7zm-1.2-9.1h-2.1v2.4h2.1zm-2.1 3v2.5h2.1v-2.5z" fill="#fbfafc"/><g fill="#010000"><path d="m201 303.2c0-3 0-5.4 0-8.4 4.1-.7 8.2-1.4 12.2-2.1 4.1-.7 6.1-2.8 6.1-7.3-.1-14.1 0-28.3.1-42.4.3-34.1.4-68.2 1.1-102.3.2-9.3 1.9-18.7 3.9-27.8 2.4-11 12.1-18.3 23.5-18.2 9.4 0 18.9-.4 28.1 1.2 12.4 2.1 19.1 10.9 19.5 23.7.8 23.7 1.8 47.3 2.2 71 .6 31.7.8 63.3.9 95 0 5 2.3 6.8 6.5 7 3.1.2 6.2-.6 9.2-.1 2.5.4 5.4 1.5 6.9 3.3 2.9 3.6 2.1 6.6-2.4 7.6-7 1.6-14.3 2.5-21.5 2.8-13.4.6-26.9.5-40.3.8-17.3.5-34.7 1.3-51.8-2.6-1.4-.2-2.7-.8-4.2-1.2zm33.6-11.9h50.3c-.6-18.1-1.2-35.5-1.8-52.8-16.6 0-32.5 0-48.5 0zm.2-117.3v50.2h50.2c-.6-17.3-1.2-33.7-1.8-50.2-16.4 0-32.1 0-48.4 0zm49.9-13.9c-.6-10.6-.6-20.6-1.9-30.5-.7-5.6-3.1-11.1-5.3-16.4-.7-1.7-3.3-3.4-5.2-3.6-7.9-.6-15.9-.8-23.8-.9-5.9-.1-9.2 2.6-10.5 8.4-1 4.2-1.9 8.5-2.5 12.8-1.3 10-2.9 20.1-1 30.1 16.6.1 32.9.1 50.2.1z"/><path d="m134.5 133.1c0-15.3 0-30.1 0-44.9 0-12.5-.4-25 .2-37.4.2-4.3 2.4-8.5 4.2-12.6 1-2.4 3.6-2.8 5.1-.7 2.1 2.8 4.7 6.1 5 9.4.6 6.1-.4 12.3-.4 18.4-.1 21.4 0 42.9 0 64.3 0 .6.1 1.3.3 2.6h18.5c-.6-8.2-2.5-17-1.5-25.4 2-16.7 5.4-33.2 8.5-49.7.9-4.7 3.6-8.5 8.8-9.1 1.4-.2 4.1 1.1 4.4 2.1.8 3.2 1.9 7 .9 9.8-5.2 13.8-5.1 28.3-7.1 42.5-1.2 9-2.5 17.9-3.7 26.9-.2 1.1-.2 2.2-.3 3.8h16c2.1 0 4.6-.4 6.1.6 1.9 1.3 3.8 3.7 4 5.8.2 1.7-1.8 4.9-3.4 5.3-6.2 1.4-12.6 2.6-19 2.8-8.7.3-17.5-.5-26.3-.7-1.6 0-3.2.2-5.3.3v6c-.1 26.6-.3 53.3-.4 79.9-.2 34.8-.4 69.5-.6 104.3 0 7.3-.1 14.5-.2 21.8 0 3.8-2 6.2-5.8 6.5-4.1.3-6.1-2.1-6.3-6.1-.5-14.1-1-28.1-1.4-42.2 0-1.5.2-2.9.2-4.4 0-53.1-.1-106.3.1-159.4 0-5.1-1.6-6.4-6.3-6.3-12.3.3-24.6.4-36.9 0-3.7-.1-8-1.8-10.9-4.1-4.1-3.2-3-7.3 2-8.7 3.8-1.1 7.9-1.5 11.9-1.7 4.6-.3 9.2-.1 12.6-.1-.9-8.6-1.6-16.3-2.4-24.1-1.4-14.7-2.7-29.3-7.9-43.3-1.7-4.7-1.6-10.3-2.3-15.3 7.6-3.2 7.6-3.1 11.7 2.6 6.9 9.5 9.2 20.5 10.5 31.9.8 7.6 2.3 15.1 2.5 22.7.1 6.7-1.2 13.5-1.9 20.2-.2 1.7-.4 3.5-.7 5.6 5.7.1 11.1.1 17.5.1z"/><path d="m164.6 231.7c1.2-11.8 2.5-23.5 3.6-35.3.5-5.6.5-11.3 1.3-16.9.6-3.9 1.9-7.8 3.3-11.6.6-1.7 2.9-4.3 3.6-4.1 2.6.8 5.9 2.2 6.9 4.3 1.4 2.8 1.2 6.6 1.1 9.9-.3 6.9-1.2 13.8-1.6 20.8-.7 12.8-1.8 25.6-1.6 38.4.1 8.3 2.4 16.6 3.6 24.9 1.9 12.8 3.4 25.7 5.6 38.4 1.4 7.6 4.1 15 5.8 22.5 1 4.5 1.3 9.2 1.2 13.8 0 1.6-2.4 4.5-3.4 4.4-3.1-.4-7.3 1.1-8.6-4-3.7-14.1-7.9-28-11.3-42.2-5.1-20.7-9.1-41.7-9.5-63.3z"/><path d="m104.6 165.2c8.2 1.9 12.2 6.9 12.5 15.3.4 10 .2 20.1.4 30.1.2 12 1.5 24.1.5 36-1.3 15.4-4 30.8-7 46-2.9 14.9-6.8 29.6-10.6 44.3-.5 1.9-2.1 4.1-3.8 5.1-3 1.7-6.6 1.4-6.8-2.9-.3-6.7-.9-13.7.8-20 6.5-24.3 10.6-49 12.8-74 1.6-18.6 1.2-37.2-.7-55.8-.8-7.8 1.1-15.7 1.9-24.1z"/></g></svg>