<svg enable-background="new 0 0 400 400" viewBox="0 0 400 400" xmlns="http://www.w3.org/2000/svg"><path d="m374.8 390.4.4-.4c.7.5 1.3 1 1.8 1.4l-.5.5c-.5-.6-1.1-1.1-1.7-1.5zm1 7.3-.6-.3c.5-1.4 1.1-2.8 1.5-4.3.2.1.4.2.6.3-.5 1.3-1 2.8-1.5 4.3zm-.4-10.3.4-.4c.4.3 1 .8 1.7 1.4l-.5.5c-.4-.5-1-1-1.6-1.5zm2.5.3h1.7v-1h.6v1h3.5v-1h.6v1h1.8v.5h-1.8v1.4h-2v1h3.2v2h-3.2v.9h3.3v.5h-3.4c0 .3-.1.6-.1.9h4v.5h-3.7c.7.9 1.9 1.5 3.8 1.7-.1.2-.2.4-.3.6-2.1-.4-3.5-1.1-4-2.1-.4 1-1.8 1.7-4 2.2-.1-.2-.2-.4-.3-.6 2.1-.4 3.4-1 3.8-1.8h-3.4v-.5h3.6c.1-.3.1-.6.2-.9h-3.3v-.5h3.4c0-.3 0-.6 0-.9h-3.2v-2h3.3v-1h-2.1v-1.4h-1.7v-.5zm1.1 3.5v1h2.7c0-.3 0-.4 0-.4 0-.1 0-.2 0-.2 0-.1 0-.2 0-.3h-2.7zm1.2-3v.9h3.5v-.9zm4.7 3h-2.6v.6.4h2.6z" fill="#fbfafc"/><path d="m393.6 386.7h.6v1.5h2.7v6.1h1.1v.6h-11v-.6h1.1v-6.1h2.7v-1.5h.6v1.5h2.1v-1.5zm-2.7 8.8.4.6c-1.2.6-2.5 1.3-3.8 1.9-.1-.2-.2-.4-.3-.6 1.2-.6 2.5-1.2 3.7-1.9zm-2.2-6.7v2.4h2.1v-2.4zm0 3v2.5h2.1v-2.5zm2.8-3v2.4h2.1v-2.4zm0 3v2.5h2.1v-2.5zm6 6.1c-1.4-.7-2.7-1.3-3.9-1.8l.3-.6c1.5.6 2.7 1.2 3.9 1.7zm-1.2-9.1h-2.1v2.4h2.1zm-2.1 3v2.5h2.1v-2.5z" fill="#fbfafc"/><g fill="#010000"><path d="m268.1 316.7c-1.1-7-2.1-13.3-3.1-20.1-8.7.5-17 1.1-25.4 1.6-11.2.6-22.3 1.1-33.5 1.4-2.3.1-5.2-.5-6.9-1.9s-2.5-4.1-2.9-6.4c-.1-.6 2.9-2.3 4.6-2.5 18.8-1.9 37.6-3.5 57.5-5.3-7.5-7-15.7-9.6-24.8-10.1-10.2-.5-20.4-1.2-30.5-1.9-1.4-.1-3.2-.3-4.1-1.2-1.4-1.3-2.8-3.2-2.9-4.9-.1-1.5 1.4-4 2.7-4.3 4.3-1 8.9-1.9 13.3-1.7 9.5.5 19 1.8 28.5 2.7 11.5 1 21.3 5.2 28.6 14.5.5.6 1.2 1.1 2.9 2.6 1.3-4 3-7.3 3.3-10.7.4-4-.1-8.1-.7-12.1-.2-1.3-1.4-2.8-2.6-3.7-7.7-5.7-16.5-6.3-25.5-5.4-10.8 1-21.6 2.1-32.4 2.9-2.7.2-5.5 0-8.2-.5-3.1-.6-4.5-2.7-4.4-6 .1-3.5 2.8-3.1 4.8-3.5 10.4-1.7 20.8-3.3 31.3-4.9 0-7.3 0-14.2 0-21.9-9.4 0-18.7 0-28.4 0-.7 4.3-1.5 9.1-2.3 13.8-.6 3.5-.9 7.4-6 7.2s-5.4-4-6-7.8c-1.6-10.6.2-21 2.3-31.3 3.1-15.8 4-31.4-1.6-47-1.5-4.1-1.5-8.9-1.4-13.4 0-1.7 2.1-4.5 3.5-4.7 2.1-.3 5.8.8 6.4 2.2 2.7 7.2 5 14.7 6.6 22.2 1.1 5.3 1 10.9 1.5 16.8h24.7c.3-9.4.8-19.1.8-28.8 0-1-2.6-2.7-4-2.8-19.3-.8-31-13-41.6-27-3.4-4.4-4.8-9.7-3.9-15.1.3-1.8 1.9-3.9 3.5-4.8.8-.5 3.4 1 4.3 2.3 5.4 7.1 10.6 14.4 15.8 21.6 5.9 8 15.2 11.6 23.9 9.1.5-4.1-.3-7.4-3.3-10.9-6-7.3-11.5-15.2-16.4-23.4-5.7-9.6-4.1-28.6 6.2-36.5 7.1-5.4 13.4-11.7 20.3-17.4 3-2.5 6.6-2.6 9 .7 2.3 3.1.2 5.7-2.1 8-5.7 5.6-11.4 11.1-16.8 17-8.5 9.3-8.5 22.1-.5 31.8 4.3 5.3 8.8 10.4 12.8 15.9 2 2.7 3.1 6 5 9.8 2.5-1.3 5.3-2.3 7.6-4.1 2.4-1.9 4.4-4.3 6.3-6.7 6.3-7.9 6.2-13.1 1.7-22.4-3.4-7-8.9-11.8-14.4-16.8-4.2-3.7-4.5-6-2.3-11.6 5.5 1.2 11.3 1.6 15 7 4.5 6.5 9.8 12.7 13.3 19.7 6 12 3.8 23.5-4.5 34-5.1 6.5-11.5 11.5-19.1 14.6-3.9 1.6-4.1 4.6-3.2 7.5.4 1.2 3.4 2.2 5.3 2.3 5.8.3 11.7 0 17.5.3 3.3.2 5-.7 5.9-4 .8-2.7 2-5.6 3.8-7.8 3-3.6 7-2.9 7.6 1.6.8 6 1.2 12.4-.2 18.1-4 16.4-2.4 32.4-.1 48.7 1.3 9.1 1.3 18.4 1.3 27.6 0 1.8-2.5 4.3-4.5 5.2-2.8 1.3-4.9-.6-5.6-3.6-1-4.4-1.8-8.9-2.6-13.3-.6-3.5-1.9-5.4-6-5.2-7.1.4-14.2.1-21.6.1-.3 7.1-.8 13.7-.8 20.3 0 .8 1.7 2.3 2.7 2.4 3.7.6 7.4 1 11.1 1.2 13.2.8 22.2 9.4 23.8 22.5 1.4 11.9 0 22.9-9.4 31.7-1.1 1-1.5 3.7-1.1 5.2 5 17.6 5 35.9 7.3 53.8.5 3.8.1 7.9-.9 11.5-.5 2-2.9 4.1-4.9 4.8-3.1 1.2-3.5-1.9-4-4-1.7-8.2-3.4-16.5-4.7-24.7-.9-5.3-3.4-7.1-8.9-6.9-14.6.4-29.2.2-43.9.1-3 0-6.3-.4-8.9-1.7-1.5-.7-2.7-3.5-2.8-5.5-.1-1.3 1.7-3.6 3.1-4 3.9-1.3 8.1-2.7 12.2-2.7 13.8-.1 27.6.3 41.4.5 1.5.1 3.3.1 5.6.1zm-57.8-117.3h27.1c0-4.5 0-8.2 0-12.7-9 0-17.6 0-26.4 0-.3 3.9-.6 7.9-.8 11.9-.1.2.1.5.1.8zm65.6 0c-.2-15.4 1-12.2-11.6-12.8-4.4-.2-8.9 0-13.1 0v12.9c8.3-.1 16.3-.1 24.7-.1zm-24.8-41.1v13.7c8.1-.5 16-1 24-1.5 0-4.3 0-8.2 0-12.2-8.1 0-15.8 0-24 0z"/><path d="m155.1 221.4c2.5 1 5.1 2.4 7.9 3 7.3 1.7 12.5 6 14.7 12.9 3.5 10.9 7 21.9 9.1 33.1 2.7 14.3 4 28.9.7 43.4-.3 1.1-.3 2.6-1 3.2-1.6 1.3-3.5 2.9-5.3 2.9-1.3 0-3.7-2.3-3.8-3.7-1.2-15.5-2.1-31-2.9-46.5-.4-8.4-1.3-16.7-6.1-23.7-3-4.5-7.4-8.2-11.1-12.2-.7.3-1.3.7-2 1v20.3c0 19.5 0 39-.2 58.5-.1 10.5-.2 21-.9 31.5-.1 2.1-2.5 4.9-4.6 5.9-2.3 1.2-4.8.5-5.6-3.2-3.2-14.2-3.6-28.5-3-42.9.9-23 1.1-46 1.6-69.4-5.5.4-8.9 2-11.4 6.7-6.2 12-6.4 24.9-7.2 37.9-.7 11.2-1.3 22.3-2.1 33.5-.2 3.2-1.3 6.2-5.1 6.7-3 .4-5.1-.4-5.8-4.1-2.9-13.9-2.3-27.8-.4-41.6 1.5-11 3.7-22 6.7-32.7 2.5-8.9 9.1-15.1 17.9-18.2 7-2.5 7-2.4 7-10 0-2.7 0-5.5 0-8.8-3.9-.8-7.6-2.1-11.4-2.3-9.7-.7-16.2-8.4-14.8-20.4 1.6-13.9 8.9-23.6 20.6-30.5 5.1-3 7.5-9.1 5.4-14.6-.3-.9-1.8-1.6-2.9-1.9-4.2-1.1-8.5-1.9-12.8-2.8-7.4-1.7-12.2-7.8-11.2-15.2.7-5.4 1.3-11.1 3.2-16.2 3.2-8.6 9.2-15.5 17.3-19.4 6.1-2.9 7.5-6.9 7.7-12.9.2-6.4.7-12.9 1.9-19.1.8-4.2 4.1-5.1 6.9-1.7 1.9 2.2 2.9 5.7 3 8.7.2 4.5-.8 9-1 13.5s1.5 7.7 5.7 10.2c18.2 10.8 24.3 26.2 17.9 45.1-.7 2.1-2.8 4.4-4.8 5.2-5.1 2-10.5 3.1-15.6 4.8-1.1.4-2.6 1.8-2.7 2.9-.7 5.1.1 9.2 5.1 12.8 5.7 4 10.5 9.6 14.8 15.2 6.8 8.9 6.7 19 3.2 29.2-1.8 5.2-6.7 6.4-11.4 6.8-11 .9-11 .7-11.2 11.6zm-4.1-28.6c3.6-.6 8.5-1.1 13.4-2.2 1.3-.3 3-2.1 3.2-3.4 1.5-10.4-5.6-22.4-15.3-26.4-1.4-.6-3.2-.9-4.6-.5-9.6 2.3-19.3 15.7-19 25.5.1 3.5 1.7 5 4.9 5.3 5.2.6 10.6 1 17.4 1.7zm-22-72h37.5c.8-8 0-14.8-3.6-21.1-3.2-5.6-8.1-9.7-14.5-10.2-5.4-.5-17.3 10.9-18.2 16.5-.7 5-.8 10-1.2 14.8z"/></g></svg>