<svg enable-background="new 0 0 400 400" viewBox="0 0 400 400" xmlns="http://www.w3.org/2000/svg"><g fill="#010102"><path d="m114.9 97.2c6.8 3.1 13.7 5.7 20 9.3 14.4 8.2 24.8 20.2 30.3 36 .7 2-.3 4.5-.5 6.8-2.6-.7-6-.6-7.7-2.3-4.7-4.6-9-9.8-13-15.1-8.3-11-19.5-17.7-32.5-22.4-4.1 6.3-5.2 13.5-5.6 20.7-.3 5.5-.1 11-.3 16.6-.1 2.7.9 3.9 3.4 4.9 15.5 6.2 29 15.2 38.9 28.9 4.9 6.8 7.4 15.4 7.3 22.8-5.9 3.6-6.7 3.6-10.6-1.5-4.8-6.3-9.5-12.7-14-19.3-5.9-8.6-13.9-14.2-24.7-18.8 1.5 11.5 2.9 22 4.1 32.5 1.6 14 5.7 27.2 10.6 40.2 2.1 5.7-.5 9.6-5.6 8.5-1.7-.4-3.5-2.2-4.4-3.8-7.9-14-12.5-29.1-14.8-44.9-3.3-22.4-3.4-44.9-2.1-67.4 1-17.4 6.8-33.7 15.1-48.3 6.3-11.2 17.5-20.5 31.6-21.3 12-.7 21.9 5.6 29.2 15.6 7.1 9.8 9.7 21 11.6 32.6 3 17.5 5 34.9 4.7 52.7-.3 17.4-5.8 33.4-12.4 49.1-4.8 11.3-10 22.4-17.6 32.3-8.6 11.3-11 24.9-12.4 38.8-1.9 18.4 2.7 35.9 6.5 53.6.9 4.1 1.2 8.3 1.4 12.5.1 1.8-.6 3.9-1.7 5.4-2.6 3.5-6.3 3.1-8.3-.7-5.3-9.8-8-20.5-9.5-31.4-2.1-15.8-3.3-31.7-1-47.5.8-5.7 2.9-11.2 4.8-16.7 2.8-8.2 6.3-16 12.1-22.9 12.8-15.3 19.4-33.5 22.5-53 3.4-20.9 4.9-42 .4-62.8-2.6-11.9-6.7-23.9-12.5-34.6-5-9.3-15.8-12.6-26.5-5-6 4.3-10.3 11.1-15.3 16.8-1 .5-1.1 1.8-1.5 3.1z"/><path d="m247.7 36.3c7.4 2.3 10 8.2 8.7 17.4-.8 5.4-.8 10.9-.8 16.3 0 3.7 1.6 5.9 6.1 6.5 13.4 1.8 24.7 8.6 35 16.8 4.9 4 7.5 10.3 5.2 12-4.2 3.1-8.7.7-12.7-1.3-4.2-2.1-7.8-5.3-12.1-7.3-6.7-3.1-13.6-5.7-21.5-8.9 0 9.9-.1 18.4.2 26.9 0 1.1 2 2.3 3.3 3.1 12.3 7.3 24.6 14.4 36.9 21.7 3.5 2.1 6.7 4.5 9.9 7 3.4 2.6 4.7 6.4 2.6 9.9-2.1 3.4-6.3 2.7-9.2.9-7.6-4.7-14.5-10.3-22.2-14.8-8.6-5.1-17.5-9.7-26.6-13.7-2.6-1.1-6.8-.4-9.6.9-9.8 4.7-19.3 9.7-27.4 17.3-4.5 4.3-10.2 6.9-16.8 6.1-2.1-7.4-1.5-9.2 4.5-13.3 8-5.3 15.8-10.8 24-15.9 4.3-2.7 9.1-4.9 13.8-6.9 2.4-1 3.6-2 3.6-4.8-.2-7.6-.1-15.2-.1-23.2-7 0-12.9 2.6-18.6 6.1-5.8 3.5-11.6 7.2-17.5 10.5-2.9 1.7-6.3 3.6-8.9-.5-2.1-3.2-.7-7.7 2.8-10 5.8-3.8 11.5-8.1 17.7-11.2 5.8-2.9 12.2-5 18.5-6.8 4.2-1.2 6.9-3.2 7.1-7.4.3-5.3.6-10.7-.2-15.9-1.2-6.6.9-12.1 4.3-17.5z"/><path d="m188.1 199.2c4.3-.8 8.1-2 12-2 29.2-.2 58.4-.2 87.7-.3 4.3 0 8.7-.2 13 .1 1.9.1 4.2.5 5.4 1.7 1.4 1.5 2.2 3.9 2.2 6 0 1.1-2.2 2.9-3.6 3.1-7 .8-14.1 1.5-21.1 1.7-7.6.2-15.2-.2-22.8-.5-3.7-.1-5.9 2.2-5.6 5.2.6 6.5 2.1 13 3.5 19.4.2 1 1.8 1.7 2.9 2.4 4.4 2.5 8.7 5 13.2 7.3 11.1 5.6 16.2 14.7 16.8 26.9s-1.3 24.1-6.4 35.1c-8.3 18.1-17.7 35.6-26.6 53.4-2.4 4.8-5.9 7.5-11.8 7.2-2.8-4.1-1.7-8.4.4-12.6 5.8-11.4 12.2-22.5 17.4-34.2 5.1-11.5 10.5-23.2 13.1-35.3 3.4-15.6 1.6-25.1-16.6-33-10.3-4.5-15.9-12.3-16.7-23.6-.3-4.2-1.3-8.3-2-12.4-.7-4-2.7-5.8-7-5.5-9.4.5-18.8.8-28.2 1-3.8 0-7.8-.2-11.5-1.1-5-1.5-6-3.1-7.7-10z"/><path d="m249.6 161c8 0 15.9-.3 23.8.1 3.6.2 7.3 1.3 10.7 2.7 1.4.6 2.7 3.3 2.6 5 0 1.3-2 3.1-3.5 3.6-11.4 3.7-23.3 3.8-35.1 3.2-10.3-.5-20.6-1.8-30.9-2.7-2.2-.2-4.6 0-4.7-3.4-.1-3-.1-5.5 3.6-6.2 3.8-.7 7.5-2 11.2-2.2 7.4-.4 14.8-.1 22.3-.1z"/></g><path d="m385.2 377.6.6-.7c.6.4 1.3.9 1.9 1.5l-.6.7c-.8-.5-1.4-1-1.9-1.5zm.3 7.1c.6-1.4 1.1-2.9 1.5-4.5.3.1.6.3.9.4-.5 1.4-1 2.9-1.5 4.4zm.2-10.1.6-.6c.7.5 1.3 1.1 1.9 1.6l-.7.7c-.6-.6-1.2-1.2-1.8-1.7zm8.4-.8h.8v.9h1.8v.7h-1.8v1.8h-.8v-.3h-1.2v.9h3.3v2.6h-.8v-.4h-2.5c0 .3 0 .6-.1.8h3.4v.7h-3.5c0 .3-.1.6-.1.8h4v.7h-3.5c.7.9 1.9 1.3 3.6 1.5-.2.2-.4.5-.6.9-1.9-.3-3.2-1.1-3.8-2.3-.5 1.1-1.8 2-3.9 2.4-.2-.3-.4-.5-.6-.8 1.9-.4 3.1-.9 3.6-1.7h-3.2v-.7h3.5c.1-.2.1-.5.2-.8h-3.3v-.7h3.4c0-.2 0-.5 0-.8h-2.4v.3h-.8v-2.6h3.3v-.9h-1.2v.3h-.8v-1.8h-1.8v-.7h1.8v-.9h.8v.9h3.2zm-4.4 5.5h2.4c0-.3 0-.6 0-.9h-2.4zm1.2-3.1h3.2v-.8h-3.2zm4.4 2.2h-2.4v.9h2.5v-.9z" fill="#fcfbfa"/><path d="m389.2 385.8h.9v1.5h1.9v-1.5h.9v1.5h2.7v6h1.1v.9h-11.3v-.9h1.1v-6h2.7zm.2 8.7.5.8c-1.2.6-2.5 1.3-4 1.9-.2-.3-.3-.6-.6-.8 1.6-.6 3-1.3 4.1-1.9zm-2-4.3h1.9v-2.1h-1.9zm0 3.1h1.9v-2.2h-1.9zm2.7-3.1h1.9v-2.1h-1.9zm0 3.1h1.9v-2.2h-1.9zm2.4 1.3c1.4.6 2.7 1.2 4.1 1.8l-.5.9c-1.5-.7-2.8-1.4-4.1-1.9zm2.2-6.5h-1.9v2.1h1.9zm-1.9 5.2h1.9v-2.2h-1.9z" fill="#fcfbfa"/></svg>