<svg enable-background="new 0 0 400 400" viewBox="0 0 400 400" xmlns="http://www.w3.org/2000/svg"><path d="m374.8 390.4.4-.4c.7.5 1.3 1 1.8 1.4l-.5.5c-.5-.6-1.1-1.1-1.7-1.5zm1 7.3-.6-.3c.5-1.4 1.1-2.8 1.5-4.3.2.1.4.2.6.3-.5 1.3-1 2.8-1.5 4.3zm-.4-10.3.4-.4c.4.3 1 .8 1.7 1.4l-.5.5c-.4-.5-1-1-1.6-1.5zm2.5.3h1.7v-1h.6v1h3.5v-1h.6v1h1.8v.5h-1.8v1.4h-2v1h3.2v2h-3.2v.9h3.3v.5h-3.4c0 .3-.1.6-.1.9h4v.5h-3.7c.7.9 1.9 1.5 3.8 1.7-.1.2-.2.4-.3.6-2.1-.4-3.5-1.1-4-2.1-.4 1-1.8 1.7-4 2.2-.1-.2-.2-.4-.3-.6 2.1-.4 3.4-1 3.8-1.8h-3.4v-.5h3.6c.1-.3.1-.6.2-.9h-3.3v-.5h3.4c0-.3 0-.6 0-.9h-3.2v-2h3.3v-1h-2.1v-1.4h-1.7v-.5zm1.1 3.5v1h2.7c0-.3 0-.4 0-.4 0-.1 0-.2 0-.2 0-.1 0-.2 0-.3h-2.7zm1.2-3v.9h3.5v-.9zm4.7 3h-2.6v.6.4h2.6z" fill="#fbfafc"/><path d="m393.6 386.7h.6v1.5h2.7v6.1h1.1v.6h-11v-.6h1.1v-6.1h2.7v-1.5h.6v1.5h2.1v-1.5zm-2.7 8.8.4.6c-1.2.6-2.5 1.3-3.8 1.9-.1-.2-.2-.4-.3-.6 1.2-.6 2.5-1.2 3.7-1.9zm-2.2-6.7v2.4h2.1v-2.4zm0 3v2.5h2.1v-2.5zm2.8-3v2.4h2.1v-2.4zm0 3v2.5h2.1v-2.5zm6 6.1c-1.4-.7-2.7-1.3-3.9-1.8l.3-.6c1.5.6 2.7 1.2 3.9 1.7zm-1.2-9.1h-2.1v2.4h2.1zm-2.1 3v2.5h2.1v-2.5z" fill="#fbfafc"/><path d="m181.2 316c0-61.4 0-122.3 0-183.6-10.5-3.3-20.9-6.7-31.4-10-16.2-5.1-27.1-18.4-27.8-35.4-.3-8.2 1-16.5 1.9-24.6 1.3-11.1 8.6-17.5 18.5-20.1 10.1-2.7 20.6-4.5 31-4.9 15.8-.6 31.8-.2 47.5.9 24.8 1.8 31.8 16.4 30.4 39.6-.3 4.3-1 8.7-1.9 13-4.4 20-22.2 35.8-42.7 38.3-2.7.3-5.4.9-8.9 1.4-.6 40.2-1.2 80.3-1.8 120.9 12.5.7 24.3-.4 35.7-4.6 1.5-.6 2.8-2.1 3.7-3.6 5.3-7.9 8.2-16.8 8-26.1-.5-23-1.7-46-2.6-69-.2-4.1-.2-8.2 3.6-11 2.9-2.1 5.6-2.1 6.8 1.8 1.6 5.6 3.9 11.2 4 16.9.4 25.7.4 51.3.2 77-.1 13.4-9.7 25.1-23.8 28.6-8.5 2.2-17.5 2.8-26.3 3.9-2.5.3-5.1.1-8.2.1-.7 16.8-1.4 33.2-2.1 49.6 8.7 1.7 17.2 2.9 25.5 4.9 18.3 4.5 35.2 12 50.4 23.3 3 2.2 5.9 4.7 8.1 7.7 1.8 2.5 3.2 5.7 3.6 8.7.3 1.9-1.1 4.9-2.7 6-1.2.9-4.4.1-6-1-4.2-3-8-6.6-12.1-9.8-16.8-13.2-36.8-18.6-57.2-23.1-14.9-3.3-29.9-2.9-45-1.3-9.8 1-19.5-.8-28.3-5.4-8.3-4.4-11.2-12.3-11.5-21.2-1.2-34.4-2.5-68.7-3.2-103.1-.4-20.1.2-40.2.2-60.3 0-3.7 1.5-5.4 4.8-6 3.4-.6 5.9.5 6.4 4.1 1 7.5 2.3 15 2.4 22.5.2 15.1-.7 30.2-.6 45.3.1 27.3.5 54.6 1 81.8.1 5 1 10 1.8 14.9 1.3 7.7 6 12.5 13.7 12.8 11.6.5 23.1.1 34.9.1zm19.1-266.3c-14.9.8-29.1.8-43 2.6-18.9 2.5-17 3.1-21.3 18.1-3.5 12.3-.1 24.1 8.4 32.3 6.6 6.3 16.1 10.7 25.1 13.2 23.8 6.6 44.7-.7 62.6-17.1 1.1-1 2.4-2.5 2.6-3.9 1.2-8.6 2.9-17.3 2.8-25.9 0-10.7-6-16.6-16.7-17.8-7-.9-14.2-1.1-20.5-1.5z" fill="#010000"/></svg>