<svg enable-background="new 0 0 400 400" viewBox="0 0 400 400" xmlns="http://www.w3.org/2000/svg"><g fill="#010102"><path d="m121.7 74.7c-7.3 0-14.1.1-20.8 0-7.7-.1-11.3-2.5-11.2-7.2 0-3.6 4.4-5.9 11.2-5.9h81.4c7.9 0 9.8 1.5 12 9.4-4 .8-8 2-12 2.4-4.2.4-8.4-.1-12.7 0-3.2.1-4.8 1.4-4.9 5-.1 6.9-1 13.9-1.3 20.8-.1 1.2.9 3.4 1.9 3.7 16.1 5.5 20.8 18.6 21.9 33.5 1.5 19.4 2.5 38.8 3 58.2.5 18.6.3 37.3-.1 55.9-.2 13.6-3.2 26.8-9.2 39-3.8 7.7-11.5 11.9-19.2 14.8-17.6 6.8-34.7 3.3-50.5-5.3-7.1-3.8-10.6-12-11.7-20-2.5-18.9-4.8-37.9-6.2-56.9-2-26.4-.1-52.8 3.3-79 1.1-8.6 3.4-17.1 5.5-25.6.6-2.2 2.7-4.1 4.3-5.9.8-.9 2.1-1.7 3.2-2.1 9.2-3.3 11.9-10.1 11.2-19.3-.2-4.6.5-9.3.9-15.5zm14.3 39.3c-.1 1.4-.2 2.3-.3 3.3-.7 19.8-1.2 39.5-2 59.3-.8 19.9-7.1 37.9-19.8 53.2-4.9 5.9-7 11.2-5.6 18.6 1.3 6.9 1.6 13.9 2.5 21.9 1.6-2.1 2.5-3.3 3.3-4.4 5.2-7 9.9-14.5 17.8-19 4.6-2.6 5.3-6.7 4.8-11.7-.3-3.1.2-6.4.8-9.5.7-3.1 3.5-4.3 6-3.1 1.7.8 3.4 3.3 3.7 5.3.6 3.8.2 7.8.1 11.7-.1 3 1.3 4.7 3.8 6.6 6.3 4.8 12.1 10.2 17.9 15.7 1.6 1.5 2.4 3.7 4.2 6.7.6-6.5.4-11.7 1.6-16.5 2.8-11.7 1.2-22-8-30.4-1.2-1.1-2.4-2.3-3.2-3.7-3.3-6.4-8.6-12.7-9.2-19.4-2.4-25.3-3.3-50.7-4.6-76.1-.4-7.9-.9-8.8-9-8.8-1.6.1-3.1.2-4.8.3zm33.5 170.8c-6.4-8.5-12.3-17.2-19.2-25-2.9-3.3-8-4.6-12.4-1.4-3 2.2-6.1 4.4-8.5 7.1-4.9 5.8-9.3 12-14 18.2 4 7.1 4 7.3 12.8 9.5 14.4 3.5 28.2 3.8 41.3-8.4zm7-70.5h1.7c.6-7 1.8-14.1 1.7-21.1-.2-12.5-.7-25-1.8-37.4-.9-10.1-2.8-20.2-4.6-30.2-.9-4.9-4.1-8.2-9.7-9.7-.2 33.8-5.7 67.6 12.7 98.4zm-55.9-97.6c-.4-.3-.8-.5-1.2-.8-2.4 2.6-5.8 4.9-6.8 7.9-2.1 6.2-3.8 12.9-4 19.4-.7 23.6-.8 47.3-1.1 70.9 0 .3.5.7.9 1.2 5.9-6.5 8.5-14.3 10.5-22.3 4.1-15.9 3-32.2 2.9-48.4-.2-9.3-.8-18.6-1.2-27.9zm15.4-41.9v26.9c4.7-.4 9.1-.7 13.8-1.1-.5-9.1-1-17.5-1.4-25.8-4.7 0-8.4 0-12.4 0z"/><path d="m247 196.9c-7.2 6.7-13.1 13.3-20 18.5-4.6 3.4-10.6 5.2-16.1 7.1-2.4.8-5.5.5-6.3-2.9-.7-2.9.3-5.1 3.1-6.9 10.6-6.8 20-15.1 26.8-25.9 3.7-6 6.7-12.4 10.4-19.3-3.7-1.4-6.5-2.9-9.4-3.4-16.1-2.4-23.3-13.2-25.7-27.7-1.5-9.3-1.5-19-1-28.5.6-12.6 8.3-21.6 18.3-27.6 5.6-3.4 13.2-3.8 20-4.9 3.2-.5 4.7-1.5 4.5-4.7-.3-6-.7-11.9-.7-17.9 0-5.5.5-11.1.8-16.6 8.4.5 12.4 7.2 11.5 16-.6 5.8-.6 11.6-.9 17.5-.1 3.8 1.6 5.8 5.5 6.4 5.7.9 11.4 2.2 17.1 3.6 13 3.2 18.4 13.5 21 25 3.6 15.9.2 31.6-6.2 46-4.3 9.6-14.6 13.8-25.2 15.3-1.6.2-3.2.4-4.8.6-3.5.5-8.4-.3-10.1 1.7-3.2 3.8-4.8 9.1-6.7 13.9-.4.9.4 2.8 1.2 3.7 14.8 16.1 11.1 35.5-1.2 49-22.9 25.2-24 51.9-9.4 81.3 6.5 13.2 15.2 25.3 22.8 38 1.5 2.6 2.5 5.6 3.1 8.6.6 3.1-1.4 4.8-4.4 3.9-2.5-.8-5.6-1.8-7-3.8-15.2-21-28.3-43.1-35.3-68.3-4.8-17.2-.8-33.6 7-48.8 3.7-7.2 10.3-12.8 15-19.6 4.9-6.9 5.7-15.1 4.7-23.3-.3-2-1.6-4-2.4-6zm3.7-108.3c-19.6-1.9-31.2 10.3-28.1 26.7 9.5-.6 19.1-1.1 28.1-1.6 0-8.9 0-17 0-25.1zm10.8 66.7c7-1.7 12.9-3 18.7-4.5 8.3-2.1 11.3-8.7 12.7-16 .4-1.8-1.6-5.9-2.5-5.9-8.7.1-17.3.9-26.2 1.4-.4 4.2-.7 7.9-1.1 11.6-.4 3.8-.9 7.6-1.6 13.4zm31.6-41.3c2-13.7-10.6-26.5-27.4-25.3v25.3zm-43.9 14.9c-7.4 0-14.3.1-21.2 0-6.1-.1-6.3-.2-5.6 5.9.6 5.4 2.2 11.1 7.3 13.4 5.4 2.5 11.6 3.4 17.7 5.1.6-8.2 1.2-15.7 1.8-24.4z"/><path d="m278.3 177.5c6.8 2.3 10.1 7.7 11.1 13.6 2 11.9 3.6 24 3.9 36.1.1 5.4-3.3 11-5.2 16.8 3.1 2.2 6.2 4.6 9.3 6.8 12.8 9.3 17.1 25.4 10.7 39.8-3.3 7.5-16.2 13.2-25.9 11.9-12.8-1.8-21.1-9-24.6-21.1s-1.6-23.4 7.3-33c3.6-3.9 7-8.1 10.3-12.3 6.2-7.9 6.8-17 4.7-26.3-1.2-5.4-3-10.6-4.5-15.9-1.5-5.7-1.2-11.2 2.9-16.4zm-.5 73.3c-3.2 5.5-6.4 9.5-8 14.1-3.1 9.1-.9 22.6 12.8 25.5 5.4 1.2 10.9-.7 13.5-5.3 3.7-6.5 3.2-14.4-2-19.8-4.7-4.9-10.1-9-16.3-14.5z"/></g><path d="m385.2 377.6.6-.7c.6.4 1.3.9 1.9 1.5l-.6.7c-.8-.5-1.4-1-1.9-1.5zm.3 7.1c.6-1.4 1.1-2.9 1.5-4.5.3.1.6.3.9.4-.5 1.4-1 2.9-1.5 4.4zm.2-10.1.6-.6c.7.5 1.3 1.1 1.9 1.6l-.7.7c-.6-.6-1.2-1.2-1.8-1.7zm8.4-.8h.8v.9h1.8v.7h-1.8v1.8h-.8v-.3h-1.2v.9h3.3v2.6h-.8v-.4h-2.5c0 .3 0 .6-.1.8h3.4v.7h-3.5c0 .3-.1.6-.1.8h4v.7h-3.5c.7.9 1.9 1.3 3.6 1.5-.2.2-.4.5-.6.9-1.9-.3-3.2-1.1-3.8-2.3-.5 1.1-1.8 2-3.9 2.4-.2-.3-.4-.5-.6-.8 1.9-.4 3.1-.9 3.6-1.7h-3.2v-.7h3.5c.1-.2.1-.5.2-.8h-3.3v-.7h3.4c0-.2 0-.5 0-.8h-2.4v.3h-.8v-2.6h3.3v-.9h-1.2v.3h-.8v-1.8h-1.8v-.7h1.8v-.9h.8v.9h3.2zm-4.4 5.5h2.4c0-.3 0-.6 0-.9h-2.4zm1.2-3.1h3.2v-.8h-3.2zm4.4 2.2h-2.4v.9h2.5v-.9z" fill="#fcfbfa"/><path d="m389.2 385.8h.9v1.5h1.9v-1.5h.9v1.5h2.7v6h1.1v.9h-11.3v-.9h1.1v-6h2.7zm.2 8.7.5.8c-1.2.6-2.5 1.3-4 1.9-.2-.3-.3-.6-.6-.8 1.6-.6 3-1.3 4.1-1.9zm-2-4.3h1.9v-2.1h-1.9zm0 3.1h1.9v-2.2h-1.9zm2.7-3.1h1.9v-2.1h-1.9zm0 3.1h1.9v-2.2h-1.9zm2.4 1.3c1.4.6 2.7 1.2 4.1 1.8l-.5.9c-1.5-.7-2.8-1.4-4.1-1.9zm2.2-6.5h-1.9v2.1h1.9zm-1.9 5.2h1.9v-2.2h-1.9z" fill="#fcfbfa"/></svg>