<svg enable-background="new 0 0 400 400" viewBox="0 0 400 400" xmlns="http://www.w3.org/2000/svg"><g fill="#010102"><path d="m267.6 188.3c6.9.3 14.3.7 21.7 1 2.1.1 4.3-.1 6.3.3 4.8 1 8.3 4.6 5.2 10.5-9.5.8-19 1.7-28.5 2.2-4.1.2-6.2 1.2-5.8 6 .5 5.1.1 10.4.1 16.5 5.4.3 10.5.6 15.6.8 6.1.3 12.3.4 18.4.9 1.6.1 3.7 1 4.6 2.3 1.3 1.7 2.2 4 2.3 6 0 .8-2.6 2.4-4.1 2.5-6.4.5-12.9.6-19.3.8-.8 0-1.6-.4-2.4-.4-3.7.2-7.6-.2-11.1.9-4.7 1.5-2.1 6.2-2.6 9.3-1.1 7.7-1.3 15.5-1.9 23.8 2.5.2 4.7.6 6.9.6 9.6 0 19.2-.2 28.7.1 3.1.1 6.4 1.1 9.1 2.6 1.6.9 2.8 3.6 3 5.5.1 1.1-2.3 2.8-3.9 3.4-10.3 3.7-21 3.4-31.7 3-17-.6-34-1.1-51.1-1.7-3.9-.1-3.6 2.4-3.6 4.8-.3 20.8-.5 41.5-.8 62.3 0 1.6 0 3.2-.2 4.9-.3 3.5-2.4 5-5.8 5.3-3.6.3-4.6-1.6-5.3-4.7-2.6-11.8-2.6-23.7-2.4-35.7.6-30.8.1-61.7.7-92.6.3-19.8 3.3-39.4 9-58.4 2.6-8.6 6.3-17 13.4-23.3 2.3-2 4.2-4.5 6.7-7-4.6-6-9.1-11.8-14-18.1-3.8 4.7-7.1 9.2-11 13.2-2.4 2.4-5.5 4.6-8.7 5.6-4.3 1.4-7-1.7-5.4-6 1.1-3 2.5-6 4.5-8.4 7.4-9 14.9-18 22.9-26.5 5.2-5.5 10.8-11 17.1-15.1 9.2-5.9 9.6-14.2 8.8-23.3-.9-8.9.3-17.4 3.5-25.6 5.4.4 8.6 3.1 9 8.4.3 4.2-.1 8.4-.3 12.6-.1 2.1-.4 4.2-.7 6.3-1.2 9.2 2 15.1 10 20.9 10 7.2 19.6 16.1 26.3 26.2 12.1 18.5 8.9 25.2-10.4 32.1-4.4 1.6-9.2 1.8-13.8 2.8-3.2.7-6.3 1.5-9.4 2.3v1.7c2.5 1.2 5.1 2.4 7.5 3.7 12.5 6.6 25.1 12.7 38.9 16 2.3.5 4.8 2.8 5.8 5 1.3 2.7.1 5.3-3.2 6.4-5.9 2-11.5.7-17-1.6-10.3-4.2-20.6-8.6-31.5-13.2-.1 7.1-.1 14.3-.1 22.1zm0-54.1c9.4-2.3 18.1-4.4 27.9-6.8-3-4.7-5.2-8.9-8.1-12.7-6.4-8.4-13.4-16.3-23.1-21.1-4.3-2.2-8.3-2.5-12.1.9-4.6 4.1-9 8.4-13.6 12.4-2.9 2.6-3.6 5.7-1.7 8.7 4.5 7.1 9.5 14 14.3 21 .5-.2 1.1-.5 1.6-.7.2-1.4.6-2.7.7-4.1.6-5.6 1.1-11.2 1.7-16.8.4-3.4 2.7-4 5.6-3.8 4.1.4 5.3 3.1 5.5 6.7.4 5.1.8 10.2 1.3 16.3zm-14.1 137.6c0-11.3 0-21.8 0-32.4-10.3 0-19.8 0-29.6 0v32.4zm.8-83.6c0-8.5.3-16.6-.2-24.6-.2-3-2.2-6-3.8-8.7-1.2-2.1-2.9-2.1-5.2-.4-11.5 8.3-14.8 20.4-16.5 33.8 8.4-.1 16.2-.1 25.7-.1zm-1 36.6c0-7.7 0-14.4 0-21.9-9-.6-17.9-1.1-27.1-1.7-.6 8.3-1.2 15.9-1.8 23.6z"/><path d="m178.7 283.3c-6.6 11.4-9.8 23.1-11.9 35-.3 1.6-.5 3.2-.8 4.8-2.2 11.5-8.8 15.3-20.4 13.5-16.1-2.6-17.3-15.7-15.5-27.8 1.6-10.7 4.7-21.2 6.5-31.8 1.2-7 1.1-14.2 1.8-21.3.3-3.5-1.4-4.5-4.3-3.8-3.6.8-7.1 2-11.3 3.2 0 4.5-.1 9.2 0 13.9.5 22.1-5.4 42.9-13.7 63.1-2.3 5.7-5.3 11.1-8 16.6-.6 1.1-1.2 2.7-2.2 3.1-3 1.3-6.1 2-9.2 3-.6-2.8-2.3-6-1.5-8.4 1.5-5.1 4-9.9 6.6-14.5 9.1-16 15.1-33 16.8-51.3.6-6.9-.7-14.1-1.2-22.4-6.2 2.2-11.1 4-16 5.8-1.7.6-3.2 1.5-4.9 2-3 .9-6.1 1.3-7.2-2.5-.9-3.2-1.6-6.5 3.2-8.1 6.1-2.1 11.9-5.2 17.9-7.6 3.2-1.3 4.3-3.3 3.3-6.4-1.1-3.4-2.3-6.7-3.7-10-2.8-6.4-1.7-9.3 5.4-12.4 3.6 6.4 7.3 12.8 10.7 19.4 1.7 3.2 3.2 4.3 7.1 3 10.9-3.5 10.7-3.2 11.1-14.6.2-4.8-1.5-6.7-6-7.2-2.7-.3-5.4-1.2-8.1-1.7-9.7-1.7-16.3-7-18.6-16.7-3.8-16.3-3.2-32.8-.8-49.3.5-3.7 3-4.1 5.3-4.1 1.3 0 3.2 1.8 3.9 3.2 3.4 7.1 3.7 14.6 2.7 22.3-1 7.6-1.4 15.2 1.6 22.5 1 2.5 2.5 4.8 4.2 7.9 7.5-12.8 14.4-24.8 21.6-37-6.7-5.2-13.1-10.1-19.5-15-5.4-4.2-5.4-4.2-2.4-10.6 13.4-.4 21.1 11.1 32.1 15.6 4.5-3.8 8.8-7.8 13.4-11.3 2.4-1.8 5.4-3 8.3-3.8 1.5-.4 4.3-.2 4.9.8 1.1 1.7 1.4 4.2 1 6.2-.2 1.5-1.8 3-3.1 4.2-5.4 4.9-11 9.6-15.9 13.9 6.9 10.4 13.6 20.5 20.7 31.3.6-7.2.9-13.8 1.7-20.4 1.1-8.8 2.4-17.6 4-26.3.3-1.4 2-3.6 3.2-3.6 1.3-.1 3.4 1.5 4.1 2.9 4.9 9.8 5.3 20.3 4.1 30.9-.7 6.7-2.5 13.3-3.8 20-1.6 7.9-6.9 12.6-14 14.7-7.7 2.2-15.8 3.2-23.7 4.5-2.7.4-5.5.1-9.1.1.5 5 1 9.4 1.4 13.6 6.7 0 13.2.4 19.5-.1 20-1.6 29 16.3 26.8 32.2-1.1 7.5-3.2 14.9-4.2 22.4-.5 3.8.2 7.7.6 11.6 2.1 19.9 2.6 40.1 9.9 59.2.9 2.4 1.8 4.9-1.3 6.2-2.8 1.1-5.6.5-7.1-2.4-2.9-5.9-6.6-11.7-8.2-18.1-2.7-10.3-4.6-20.8-5.9-31.4-1.1-9.3-.8-18.8-1.2-28.2-.1-.7-.4-1.3-.7-2.5zm4.3-16.1c.8-13-5-19.7-17.2-20.1-3.3-.1-6.7.7-10 1.1-3.5.4-4.5 2.3-4.6 5.9-.1 19.5-3.3 38.6-7.9 57.5-2.5 10.3-1.2 12.2 9.4 11.1.1 0 .3-.1.8-.5.5-4.3.7-9 1.5-13.6 2.9-18.1 6.3-35.9 28-41.4zm-31.6-91.6c-7.3 10.3-14.2 19.6-16.6 32 12.7-.6 24.6-1.2 37.3-1.8-7.1-10.4-13.5-19.8-20.7-30.2z"/><path d="m149.8 35.9c5.6 2.3 6.6 6.3 6.6 10.9v38.5 30.2c5.8-1.1 10.4-1.8 14.9-3 1.5-.4 2.9-1.9 3.9-3.3 6.2-8.4 4.9-18.1 4.7-27.7-.1-5.6 0-11.3.5-16.9.3-3 1.5-5.9 5.5-6.3 4.2-.4 4.8 2.6 5.6 5.3 5 18.2 1.8 35.6-5.1 52.6-.4 1.1-1.5 2.3-2.5 2.8-8.2 3.7-15.4 9.8-25.1 9.8-.8 0-1.6.2-2.8.5 0 4.1-.1 8.2 0 12.4.1 3.4-1.6 4.9-4.6 4.8-1.2-.1-2.8-1.3-3.2-2.4-.9-2.4-1.5-5-1.5-7.6 0-6.4-3.9-8.8-9.4-10.1-3.3-.8-6.4-2.4-9.7-3-7.7-1.4-11.4-6.6-13.9-13.4-4.7-13-4-26.4-3.3-39.9.1-2.1.4-4.2.7-6.3.5-3.3 2.3-5.1 5.8-5.4 3.6-.3 4.2 2 4.9 4.6 2.2 9.3 3.5 18.7 2.3 28.4-1.7 13.5 3.6 21.1 15.8 23.6 1.4.3 2.8.2 5.5.4 0-10.8.6-21.1-.1-31.4-.9-13.1-3.3-26.1.7-39 1.1-3 2.5-5.8 3.8-9.1z"/></g><path d="m385.2 377.6.6-.7c.6.4 1.3.9 1.9 1.5l-.6.7c-.8-.5-1.4-1-1.9-1.5zm.3 7.1c.6-1.4 1.1-2.9 1.5-4.5.3.1.6.3.9.4-.5 1.4-1 2.9-1.5 4.4zm.2-10.1.6-.6c.7.5 1.3 1.1 1.9 1.6l-.7.7c-.6-.6-1.2-1.2-1.8-1.7zm8.4-.8h.8v.9h1.8v.7h-1.8v1.8h-.8v-.3h-1.2v.9h3.3v2.6h-.8v-.4h-2.5c0 .3 0 .6-.1.8h3.4v.7h-3.5c0 .3-.1.6-.1.8h4v.7h-3.5c.7.9 1.9 1.3 3.6 1.5-.2.2-.4.5-.6.9-1.9-.3-3.2-1.1-3.8-2.3-.5 1.1-1.8 2-3.9 2.4-.2-.3-.4-.5-.6-.8 1.9-.4 3.1-.9 3.6-1.7h-3.2v-.7h3.5c.1-.2.1-.5.2-.8h-3.3v-.7h3.4c0-.2 0-.5 0-.8h-2.4v.3h-.8v-2.6h3.3v-.9h-1.2v.3h-.8v-1.8h-1.8v-.7h1.8v-.9h.8v.9h3.2zm-4.4 5.5h2.4c0-.3 0-.6 0-.9h-2.4zm1.2-3.1h3.2v-.8h-3.2zm4.4 2.2h-2.4v.9h2.5v-.9z" fill="#fcfbfa"/><path d="m389.2 385.8h.9v1.5h1.9v-1.5h.9v1.5h2.7v6h1.1v.9h-11.3v-.9h1.1v-6h2.7zm.2 8.7.5.8c-1.2.6-2.5 1.3-4 1.9-.2-.3-.3-.6-.6-.8 1.6-.6 3-1.3 4.1-1.9zm-2-4.3h1.9v-2.1h-1.9zm0 3.1h1.9v-2.2h-1.9zm2.7-3.1h1.9v-2.1h-1.9zm0 3.1h1.9v-2.2h-1.9zm2.4 1.3c1.4.6 2.7 1.2 4.1 1.8l-.5.9c-1.5-.7-2.8-1.4-4.1-1.9zm2.2-6.5h-1.9v2.1h1.9zm-1.9 5.2h1.9v-2.2h-1.9z" fill="#fcfbfa"/></svg>