<svg enable-background="new 0 0 400 400" viewBox="0 0 400 400" xmlns="http://www.w3.org/2000/svg"><g fill="#000001"><path d="m130.8 233.9c-1-8.6-1.9-17-2.9-26-5.1 0-10.1 0-15 0-6.3-.1-12.6 0-18.9-.5-5.7-.4-9.2-3.2-10.1-7.1-.5-2.1-.1-3.4 2.1-4.4 5.9-2.6 12.1-2.4 18.2-2.6 6.3-.2 12.5-.4 19.3-.6-4-8.5-7.6-16.3-11.3-24-3.1-6.6-6.4-13.1-9.2-19.8-1.3-3.1-3-3.6-5.8-2.5-4.4 1.8-8.8 3.5-13.3 5.1-2.1.8-4.2 1.5-6.3 1.9-2.3.4-3.7-.8-4.1-3.3-.7-4.2.2-6.1 3.9-8.5 17.2-10.9 34.4-21.8 51.6-32.5 1.8-1.1 2.5-2.3 2.5-4.5-.1-7.2-.1-14.4-.1-22-6 2.2-11.7 4.3-17.3 6.4-7.8 2.9-15.4 6-23.3 8.7-2.5.9-5.5 1.2-8.1.8-1.5-.2-3.7-2-4-3.4-.5-2.2-.7-5 2.3-6.5 12.3-5.9 24.6-12 37-17.9 2.9-1.3 6.1-1.9 9.2-2.6 2.4-.5 3.9-1.8 4.1-4.1.4-3.9 1-7.9.8-11.8-.3-8.5.1-16.8 4.8-24.3 6.5 3.2 8.8 9.1 7.5 17.4-.8 5.6-1.1 11.4-1.2 17-.1 3.3 1.8 5.9 5 7.1 9.3 3.4 18.7 6.6 28 10.1 5.8 2.2 11.7 4.4 17.3 7.3 4.3 2.3 7 6.3 7.9 11.6-4.9 3.1-10.2 3.1-15.5 1.1-4.3-1.7-8.4-4-12.6-5.8-9-3.9-18-7.7-27.7-11.8-.2 4.1-.4 7.1-.6 10.1-.3 5.4-.6 10.8-1.1 16.2-.2 2.1.5 3.1 2.4 4 15.5 7.8 31 15.6 46.4 23.6 3.7 1.9 7.1 4.5 10.3 7.1 3.1 2.5 4.8 7.4 3 9-2 1.7-5.4 2.7-8 2.4-2.9-.3-5.6-2.2-8.3-3.6-3.6-1.9-7-4-10.6-5.9-1.5-.8-2.6-.2-3.3 1.5-7.2 15.1-14.4 30.1-21.6 45.1-.1.2-.1.4-.2 1.6 6.5.1 13 .2 19.4.4 4.4.1 8.8-.2 13.2.4 3.9.5 6.3 3.3 7.4 7.2.5 1.8 0 2.8-1.6 3.7-6.5 3.8-13.5 3.4-20.6 2.7-5.4-.5-10.8-.4-16.2-.4-2.6 0-4 1.2-4.4 4.1-1 7.5-2.5 15-3.9 23.1 4.3.3 8.4.8 12.6.9 8.4.1 16.8-.3 25.2-.1 3.6.1 7.2 1 10.6 2.1 3.2 1.1 3.7 6.6.9 8.7-4 3.1-8.7 4.4-13.6 4.3-9.5-.2-19-.7-28.5-1-1.2 0-2.4 0-3.6.1-2.9.3-4.3 1.7-4.3 4.8-.2 22.3-.5 44.7-.7 67-.1 14 0 28.1 0 42.1 0 1.5-.2 3.1-.5 4.6-1 4.9-5.6 7.2-10.1 4.8-1-.5-1.5-2.3-1.8-3.5-3.9-16-3.5-32.2-3.2-48.5.4-23 .3-46 .5-69 0-.3-.1-.6-.3-1.6-4.8-.1-9.7-.3-14.6-.4-8.9-.1-17.9.3-26.8-.3-5.2-.3-8.1-3.9-8.7-8.2-.2-1.8.3-2.8 2-3.5 7.2-3.2 14.9-2.9 22.5-2.8 5.5.1 11.1.1 16.6 0 2.9-.1 5.9-.5 9.3-.8zm8.3-44.3c1.2-1.9 2-3.1 2.7-4.4 6.8-14.5 13.4-29 20.5-43.4 1.7-3.4.8-5.3-2-6.6-7.6-3.4-15.3-6.6-23.1-9.8-.7-.3-1.8-.3-2.5 0-7.2 3.6-14.3 7.2-21.7 11 8.5 17.8 17.1 35.1 26.1 53.2z"/><path d="m250.4 91.7c-7.2 0-14.6.1-21.9-.1-2.6-.1-5.4-.2-7.8-1.2-1.8-.8-3.6-2.6-4.5-4.4-1.7-3.3-.5-5 2.7-6.6 5.2-2.6 10.5-3.5 16.3-3.3 15.5.6 30.9.4 46.4 1.5 7.7.6 15.3 3.1 22.8 5.1 8.6 2.3 13.2 8.6 15 16.9 1.9 8.4 1.4 16.7-2.5 24.5-.7 1.3-1.7 2.6-2.9 3.5-10 8.4-21.6 12.2-34.5 12.2-10.8 0-21.4 2.3-31.3 6.4-7.3 3-11.9 9.4-15.6 16.1-4.3 7.9-5.8 16.6-6.9 25.4-1.5 11.4-3.4 22.7-4.3 34.2-.9 12.2-.8 24.5-1.1 36.8-.6 25.2-1.2 50.4-1.7 75.6-.2 7.8.1 15.7-.3 23.5-.3 5.5-3.1 8.2-7.5 8.4-2.2.1-3.8-.7-4.1-2.8-1.1-6.5-3.1-13-3-19.5.7-39.9 1.4-79.8 2.9-119.7 1-25.8 6.6-50.8 16.9-74.6.7-1.6 1.7-3.1 3-4.2 3.2-3 6.6-5.9 10.1-8.6 2-1.6 4.1-3.1 6.3-4.2s4.7-1.8 7.6-2.9c-.1-12.1-.1-24.6-.1-38zm17.1 36c8.7-1.2 17.2-1.4 24.9-3.8 12.4-3.9 13.2-6.5 12.9-16.7-.2-6.7-3.7-10.8-10.3-12.3-3.5-.8-7.1-1.6-10.7-1.9-5.5-.5-11.1-.6-16.7-.9-.1 11.9-.1 23.1-.1 35.6z"/><path d="m277.2 227.7c-3-11.7-12.3-14.6-22.5-16.1-2.8-.4-5.8-.2-8.6-.8-2.2-.5-4.5-1.4-6.1-2.9-3.6-3.5-2.6-7.5 1.9-9.3 5-2 10.1-2.2 15.3-1.2s10.4 2.1 15.5 3.5c2 .6 4.1 1.8 5.4 3.3 3.5 4.2 6.4 8.7 9.8 13 1.9 2.4 4.1 4.4 6.3 6.8 7-6.7 12.3-13.6 13.9-22.7.9-5.2-.4-10.1-2.4-14.9-.4-.9-1.3-1.8-2.2-2.4-7-5.2-15-7.5-23.7-6.6-9.4 1-18.7 1.4-28.1-.4-.9-.2-1.8-.3-2.6-.5-4.4-1.4-6.9-4.8-6.4-8.8.3-2.1 4.8-5.1 8-5.2 14.7-.8 29.4.1 43.9 3 6 1.2 12 2.4 17 6.1 7.1 5.2 9.6 12.8 10.8 21.2 1.5 10.5-2.9 19.7-6.2 29.1-.3.9-1.2 1.6-1.9 2.2-5.8 4.7-11.7 9.3-17.5 14-.7.5-.9 2.1-.7 3.1 2.9 14.9 5.8 29.7 8.7 44.5 4.4 22.1 8.9 44.2 13.2 66.3.7 3.7 1 7.4 1.3 11.2.1 1.5 0 3.1-.4 4.6-.9 3.2-3.2 4.5-6.4 4.8-3.1.3-4.9-1-5.5-3.8-1.7-7.5-3.4-15-4.9-22.6-4-20.4-8-40.7-11.9-61.1-2.4-12.8-4.6-25.6-6.9-38.5-.1-.5-.2-1-.5-2-8 1.7-15.8 3.5-23.7 5.2-4.1.9-8.2 1.7-12.4 2.1-2.4.3-4.9.1-7.2-.3-4.1-.9-6.8-4.8-6.1-8.9.1-.8 1.1-2 1.9-2.2 7.4-2.1 14.8-4.5 22.3-6.1 7-1.7 13.8-2.8 19.6-6.7z"/></g><path d="m362.1 8.8c1.1.8 2.1 1.6 3.1 2.4l-1 1.1c-1.3-1.1-2.3-2-3-2.5zm1.9 4.8c.5.2.9.4 1.4.5-.6 2.3-1.3 4.5-1.9 6.8l-1.5-.5c.8-2.1 1.4-4.3 2-6.8zm-1-9.4c1.3.9 2.4 1.8 3.4 2.5l-1 1.1c-1.4-1.2-2.4-2.1-3.2-2.6zm3.7 2.2v-1.4h10.3v1.2c-.5 3.6-1.8 6.8-4 9.4 1.5 1.6 3.4 2.8 5.7 3.8-.3.4-.7.8-1.1 1.4-2.3-1.1-4.1-2.5-5.6-4.1-1.6 1.6-3.6 3.1-5.9 4.3-.3-.5-.7-.9-1-1.3 2.4-1.1 4.4-2.5 6-4.1-1.9-2.5-3-5.6-3.3-9.3h-1.1zm8.8 0h-6.4c.3 3.3 1.3 6 3 8.2 2-2.3 3.1-5.1 3.4-8.2z" fill="#fafafb"/><path d="m385.3 3.8h1.3v2.2h2.8v-2.2h1.3v2.2h4.1v9.1h1.7v1.3h-16.9v-1.3h1.7v-9.1h4.1v-2.2zm.4 13.1.7 1.2c-1.8.9-3.8 1.9-6 2.9-.2-.4-.5-.8-.8-1.3 2.3-1 4.3-1.9 6.1-2.8zm-3.1-6.4h2.8v-3.2h-2.8zm0 4.6h2.8v-3.3h-2.8zm4-4.6h2.8v-3.2h-2.8zm0 4.6h2.8v-3.3h-2.8zm3.7 1.9c2.1.9 4.1 1.8 6.1 2.7l-.7 1.3c-2.2-1.1-4.2-2-6.1-2.9zm3.2-9.7h-2.8v3.2h2.8zm-2.8 7.8h2.8v-3.3h-2.8z" fill="#fafafb"/></svg>