<svg enable-background="new 0 0 400 400" viewBox="0 0 400 400" xmlns="http://www.w3.org/2000/svg"><g fill="#000001"><path d="m103.1 66c-.5 12.1-1.2 23.5-1.5 35-1.4 58.5-2.8 116.9-3.9 175.4-.3 15.9.8 31.8.7 47.7 0 6.7-1.4 13.4-2.5 20-.1.8-2.5 1.5-3.9 1.8-1.6.4-3.4.6-4.1-1.6-1.3-4.3-3.2-8.6-3.5-13-.9-13.8-1.6-27.6-1.5-41.4.4-45.7 1-91.3 2.1-137 .7-27.5 2.4-55 3.7-82.5.2-4.3.2-4.6-4-4.9-2.4-.2-4.8 0-7.3.1-3.1.1-5.8-.3-6.9-3.8-1.2-3.9-.3-6.8 3.1-8.5 2-1 4.3-1.8 6.5-1.8 11.2 0 22.3.2 33.5.4.8 0 1.5.1 2.3.3 17.1 3.6 20.5 6.3 21.7 26.2 1.1 17.8-.8 35.8-1.1 53.7-.2 13.7-.1 27.4 0 41.1.2 31.6.2 63.3.9 94.9.3 11.9 2.1 23.7 3.6 35.6 2.1 17.7 4.6 35.3 6.7 52.9.1 1-.7 2.5-1.5 3.2-4.4 3.3-9.5 1.5-10.9-3.7-4.9-17.4-7-35.3-8.6-53.2-1.1-12.1-3.3-24.1-3.8-36.2-.9-21-1.1-42-1.1-63 .1-24 .8-48 1.3-72 .3-13.9.9-27.8.9-41.7 0-5.4-1.2-10.7-1.8-16.1-.4-3.2-1.7-5-5.4-5.4-4.5-.3-8.8-1.5-13.7-2.5z"/><path d="m244.9 208.2c-4.1-.4-8.1-.7-12.5-1.1v14c0 4.2.1 8.4-.2 12.6-.3 4.9-2.7 7.6-6.8 8.7-2.1.6-3.3-.2-4.3-1.8-4-6-4.1-12.8-3.6-19.5 1.1-15.9 2.2-31.7 3.6-47.6.7-8.3 3.6-16.1 7.4-23.6.5-1 1.6-1.8 2.6-2.5 3.3-2.1 6.6-4 10-5.9 2.7-1.6 4.6-3.7 5.1-7.4-1.8-.2-3.6-.5-5.5-.6-6.3-.3-12.6-.4-18.9-.7-5.8-.4-8.8-3-8.9-7.4-.1-1.9.5-3 2.4-3.7 6.1-2.3 12.2-3.7 18.8-2.9.7.1 1.3.1 2 .1 7 .3 10.3-3 9.8-10.9-6.6-.1-13.4-.2-20.1-.4-3.4-.1-6.9 0-10.2-.8-1.9-.5-3.9-2.2-5-3.9-2.4-3.8-1.2-6.6 3.3-7.1 7-.8 14.1-1.1 21.1-1.6 13.9-1 11 .6 11.1-12.4-6-.5-12-.9-18-1.5-2.5-.2-5.1-.5-7.5-1.4-3.8-1.3-5.3-6-3.3-9.3.4-.7 1.8-1.1 2.7-1.2 7.7-1 15.3-2 23-2.8 2.5-.3 4-1.2 3.9-3.8-.1-4.8-.1-9.7-.5-14.5-.4-6.1 1-11.6 3.8-16.9 1.1-2 2.3-2.2 4.3-1.4 4 1.7 6.2 4.8 6.2 9 0 4.1-.9 8.1-.9 12.2 0 4.6.4 9.2.9 13.8.1.9 1.7 2.2 2.8 2.4 9 1.7 18.1 3.1 27.1 4.6 6.2 1 12.2 6.9 12.6 13.1.6 9.9 5.3 16.9 14.2 21 4.5 2.1 6.8 5.7 7.5 10.5.3 1.8-.3 2.9-1.9 3.7-3.6 1.8-6.9 1.2-9.9-1.1-2.6-2-5.1-4.1-7.9-6.3-.8 2-1.4 3.6-2.2 5.2-4 8.6-11.4 12.4-20.3 13.5-5 .7-10.1.4-15.2.7-1.7.1-3.6.4-5 1.3-2.9 1.9-2.6 4.6.4 6.2 2 1 3.9 2.2 5.9 2.9 7.7 2.6 11.6 8.7 14.9 15.5 4.9 10.3 6.1 21.4 6.5 32.6.5 12.7.6 25.4.7 38.1 0 3.3-.8 6.5-1.4 9.8-.4 2.5-1.8 3.9-4.5 3.8-1.4 0-2.8.3-4.6.5-4.7-11.3-5.7-23-5.4-35l-.1.1c2.2-.6 4.5-1.1 6.6-1.9.7-.2 1.6-1 1.7-1.6.9-4.1-.8-6.7-4.9-7.8-1-.2-1.9-.5-2.9-.8l.1.1c.1-7.8.2-15.7-2.1-23.3-2.3-7.5-6-14-12.1-18.9-.4.1-.8.2-1.2.2v41.4l.1-.1c-5 0-10 0-14.9 0 .2 5.1-.1 9.5-.4 13.8zm-12.4-12.9c4.5-.3 8.6-.5 13.2-.8 0-13.6 0-26.9 0-40.3-11.3 11.6-13.6 25.9-13.2 41.1zm29-102.3h30.5c-.6-1.3-1-2.3-1.5-3.3-.4-.7-.9-1.3-1.4-1.8-7.8-8-17.9-6.2-27.5-7.3-.1 4.5-.1 8.4-.1 12.4zm.1 24.5c5.4 0 10.7.4 15.9-.1 3.5-.4 6.9-2 10.3-3.2 2.2-.8 1.8-2.3.5-3.5-.8-.7-1.8-1.5-2.8-1.6-7.9-.9-15.8-1.6-23.9-2.4zm-29.4 78.7c-6.3 1.3-7.7 2.5-6.9 5.9.6 2.7 3.7 4.3 6.9 3.5 0-3 0-6.1 0-9.4z"/><path d="m298.5 373.6c-2.4-13.1-4.9-25.7-7.1-38.4s-3.9-25.6-6-38.3c-1.6-9.9-6.7-16.9-16.6-20.5-9.4-3.4-18.9-5.2-28.8-5.8-9.4-.5-18.7-1.4-27.3-5.7-13.9-7.1-23.4-17.8-24.7-33.7-1.3-14.9-1-30-1.5-45-.1-2.6-.3-5.3-.6-7.9-.5-4.2-2.8-7.1-7-8.4-5 5.8-6.8 12.7-7 20.2-1.2 40.6-2.4 81.1-3.5 121.7-.3 11.5-.2 23-.6 34.5-.1 4-.7 8.3-2.1 12-1 2.6-3.5 4.9-5.8 6.7-1.8 1.4-4 .9-4.6-1.7-1.2-5.1-3.2-10.3-3.2-15.4.1-15.7 1-31.4 1.4-47 .7-26.9 1.2-53.7 2.1-80.6.4-12.4 1.3-24.7 2.3-37.1.5-6.7 2.6-13 6-18.8.6-1 1.6-1.8 2.5-2.4 2-1.2 4.3-1.9 6.1-3.3 6.6-4.8 12.5-2.1 18.2 1.7 6.9 4.7 9.9 12 10.2 19.9.3 9-.4 18.1-.6 27.1-.2 8.8 1.1 17.3 3.1 25.9 2.3 10.2 8.6 16.2 17.9 19.9 8.3 3.3 17 3.3 25.7 4.1 8.1.7 16.3 1.8 24.1 3.8 13.4 3.5 22.2 12.9 26.5 25.7 3 8.9 4.5 18.4 6 27.8 2.2 14.1 4.1 28.2 5.7 42.4.5 4.3-.5 8.8-.7 13.2-.1 2.3-1.3 3-3.4 3-1.9 0-3.8.2-6.7.4z"/><path d="m198.2 85.7c-1.6 5.1-2.5 10.6-4.9 15.3-6.5 13-15 24.7-25.3 35-3 3.1-6.8 4.9-11.2 5.2-1 .1-2.4-.7-2.9-1.6-2.4-4-1.6-8.2 1.8-11.3 8.7-8 16.4-16.7 22.4-26.8 6-10 6.2-20.4 1.5-30.7-2.1-4.6-5.2-8.9-8.1-13.1-3.4-4.9-7.2-9.5-7.1-16 .1-4.7 2.7-6.4 6.8-4.1 10.4 5.7 16.5 15 21.2 25.5 3.2 7.1 5.1 14.5 5.8 22.6z"/><path d="m275.5 206.8c-4.8.7-9.6 1.3-15 2.1v24c0 4.8 0 9.7-.4 14.5-.3 5.1-2.9 7-7.9 6.7-2.3-.2-3.4-1.2-4-3.5-3-12-3.8-24.2-3.4-36.5.1-2 0-4 0-5.9 0 0-.1.1-.1.1h16c0-4.8 0-9.4 0-14l-.1.1c5.1.2 10.2.4 15.4.7 0 0-.1-.1-.1-.1-.1 3.9-.3 7.9-.4 11.8z"/></g><path d="m362.1 8.8c1.1.8 2.1 1.6 3.1 2.4l-1 1.1c-1.3-1.1-2.3-2-3-2.5zm1.9 4.8c.5.2.9.4 1.4.5-.6 2.3-1.3 4.5-1.9 6.8l-1.5-.5c.8-2.1 1.4-4.3 2-6.8zm-1-9.4c1.3.9 2.4 1.8 3.4 2.5l-1 1.1c-1.4-1.2-2.4-2.1-3.2-2.6zm3.7 2.2v-1.4h10.3v1.2c-.5 3.6-1.8 6.8-4 9.4 1.5 1.6 3.4 2.8 5.7 3.8-.3.4-.7.8-1.1 1.4-2.3-1.1-4.1-2.5-5.6-4.1-1.6 1.6-3.6 3.1-5.9 4.3-.3-.5-.7-.9-1-1.3 2.4-1.1 4.4-2.5 6-4.1-1.9-2.5-3-5.6-3.3-9.3h-1.1zm8.8 0h-6.4c.3 3.3 1.3 6 3 8.2 2-2.3 3.1-5.1 3.4-8.2z" fill="#fafafb"/><path d="m385.3 3.8h1.3v2.2h2.8v-2.2h1.3v2.2h4.1v9.1h1.7v1.3h-16.9v-1.3h1.7v-9.1h4.1v-2.2zm.4 13.1.7 1.2c-1.8.9-3.8 1.9-6 2.9-.2-.4-.5-.8-.8-1.3 2.3-1 4.3-1.9 6.1-2.8zm-3.1-6.4h2.8v-3.2h-2.8zm0 4.6h2.8v-3.3h-2.8zm4-4.6h2.8v-3.2h-2.8zm0 4.6h2.8v-3.3h-2.8zm3.7 1.9c2.1.9 4.1 1.8 6.1 2.7l-.7 1.3c-2.2-1.1-4.2-2-6.1-2.9zm3.2-9.7h-2.8v3.2h2.8zm-2.8 7.8h2.8v-3.3h-2.8z" fill="#fafafb"/></svg>