<svg enable-background="new 0 0 400 400" viewBox="0 0 400 400" xmlns="http://www.w3.org/2000/svg"><g fill="#000001"><path d="m275.9 111.8c-17.2 0-34.2 0-51.4 0 .5 5.3.9 10.8 1.6 16.3.1.9 1.5 2.1 2.5 2.3 4 .7 8.1 1.2 12.1 1.6 5.7.6 8.3 4.2 6.7 9.6-.2.8-1.1 1.8-1.9 2-2.9.9-5.9 1.6-8.9 2.1-2.5.3-5.1 0-7.6.3-.8.1-2 1.2-2 1.9-.1 6.7-.1 13.4-.1 20.7 4.6.3 9.6.6 14.6.9 3.6.2 6.3 1.6 7.6 5.3.9 2.6.6 4.4-2.3 4.9-7.9 1.4-15.8 3.3-23.8 3.8-11.7.8-23.4.5-34.9-2.6-2.7-.7-3.8-1.9-3.8-5 0-3 1.2-4.3 3.8-4.7 3.4-.5 6.8-.7 10.2-.9 2-.1 4 .2 6 .2 7.6.1 8-.2 8.5-7.8.3-4.4.3-8.8.7-13.3.1-2-.5-2.8-2.5-2.9-4.6-.3-9.2-.9-13.9-1.3-6-.5-8.9-5.7-5.8-10.9.4-.6 1.6-1 2.4-1.1 5.3-.7 10.5-1.2 15.8-2 1-.2 2.4-1.2 2.6-2.1 1.4-5.6 2.5-11.2 3.8-17.1-5.5-.4-10.8-.5-16-1.4-2-.3-4.4-1.8-5.4-3.5-2.1-3.4-.9-5.8 2.9-7.3 7-2.7 14.3-2.1 21.6-1.5 5.9.5 11.9.3 17.8.3 2.2 0 3.2-1.2 3.3-3.6.3-5.2.9-10.3 1.4-16.1-4.2-.3-8.2-.7-12.2-.8-4.5-.1-9.1.1-13.6 0-2.1 0-4.2-.3-6.2-.9-3.5-1.1-5-3.7-5-7.3 0-2.1.6-3.2 3-3.3 10-.5 20.1-1.4 30.1-1.8 2.8-.1 4.2-1.1 4.3-3.7.2-4.1.4-8.2.2-12.2-.4-6.6.1-13 3.5-18.9 1-1.8 2-2 3.7-1.3 4.5 1.9 6.4 5.5 6.3 10-.1 4.6-1.1 9.2-1.2 13.8-.3 13.5.4 12.9 12 12.8 6.1 0 12.1-.8 18.2-1 2.6-.1 5.5-.1 7.8.8 2.2.8 4.4 2.7 5.5 4.7 1.7 3.1.5 5.4-3 5.9-6.9 1.1-14 1.9-21 2.4-6.1.5-12.3.5-18.7.8v18.1c4 .3 8 .8 12 .9 8.8.1 17.8.1 26.7.1.9 0 1.7.2 2.6.4 6.7 1.5 7.3 2.3 6.4 9.4-4.8 1.1-9.7 2.3-14.9 3.5v10 10.5c5.3.3 10.4.6 15.5.8 5.2.2 8 2.3 8.7 6.8.1 1-.6 2.8-1.4 3-3.2 1.1-6.5 2-9.8 2.6-3.5.6-8-.6-10.2 1.2-1.9 1.6-1.5 6.2-1.8 9.6-.4 4-.6 8.1-1 12.8 6 .1 11.7.3 17.4.4 4.2.1 7 2.2 8.3 5.9.8 2.4.5 4.2-2.3 4.7-7.2 1.3-14.5 3.2-21.8 3.7-10.4.8-20.7.4-30.9-2.3-3.5-.9-5.2-2.4-4.7-6.3.2-1.9.7-2.8 2.5-3.1 4.8-.8 9.6-1.6 14.3-2.5 1.2-.2 2.3-.5 3.7-.9 0-6.7.1-13.2-.1-19.7 0-.7-1.4-1.8-2.3-2-3.5-.6-7-1-10.5-1.5-2.6-.4-4.6-1.5-5.5-4.1-1.3-4.1-.4-5.8 3.8-6.5 3.6-.6 7.3-.6 10.8-1.3 1.1-.2 2.6-1.7 2.8-2.8 1.1-6 1.7-12 2.4-18.5z"/><path d="m260.1 213.4c0 5.8-.1 11.4.1 17 0 .8 1 1.8 1.8 2.2 2.8 1.3 5.7 2.5 8.6 3.4 11.9 3.5 17.1 12.5 19.3 23.8 1.4 7.4 1.5 14.8-2 21.7-.8 1.6-2.1 3.1-3.3 4.5-4.1 4.9-8.7 9.5-12.3 14.7-1.7 2.4-2.4 6.1-2.1 9 .8 6.5 3.3 12.6 8.1 17.4 3.4 3.5 6.9 6.9 10.1 10.5 5.6 6.3 11.9 11.8 19.3 15.9 3.5 1.9 5.7 4.6 6.6 8.5.3 1.6 1 3.1 1.5 4.8-4.1 2.8-8 2.8-12.1.4-10.5-6-18.9-14.5-27.5-22.8-3.3-3.2-6.3-6.8-9.6-10.1-10.5-10.3-12.6-22.8-9.5-36.6.9-4.1 2.5-7.5 6-10.2 3.8-3 7-6.7 10.4-10.2 2.3-2.4 3.1-5.4 2.3-8.6-1.3-5.1-2.5-10.3-4.5-15.2-.8-2-3.3-3.9-5.5-4.7-7.3-2.8-14.1-1.8-20.7 2.6-13 8.8-18 22-19.2 36.5-1.2 14.3-1.2 28.7-.6 43.1.5 10 3.1 19.8 4.6 29.8.4 2.7.2 5.5-.1 8.2-.2 2.4-1.9 4.5-4.3 4.2s-5.5-1.1-6.8-2.9c-3.5-4.8-4-10.8-4.7-16.7-1.7-14.3-4.1-28.4-3.9-42.9.3-20.2 4.3-39.5 12.6-57.8.6-1.2 1.6-2.4 2.7-3.2 6.2-4.4 12.6-8.6 18.8-13 1.1-.8 2.1-2.6 2.1-3.9.2-5.3 0-10.6.2-15.9.1-2.6-1-3.2-3.2-3.3-13.8-.9-27.6-1.6-41.3-2.9-4.5-.4-9.1-1.7-13.3-3.5-3.8-1.6-4.5-5.3-2.3-8.9.5-.8 1.7-1.5 2.6-1.5 5.3-.2 10.6-.3 15.9-.2 14.6.3 29.2.7 43.7 1.1 12.7.3 25.4.8 38.1 1 6.6.1 13.2-.5 19.9-.5 4.6 0 7 2.2 7.7 6.2.3 1.8-.1 3-1.9 4.1-6 3.6-12.5 4.8-19.4 4.9-10.5.1-21.1 0-32.9 0z"/><path d="m152.3 145.1c3.8-.5 7.2-.9 10.5-1.6.9-.2 1.9-1.1 2.5-1.9 7.1-9.1 8.1-19.6 6.2-30.5-1.9-11.1-4.3-22.1-6.3-33.2-.6-3.1-.6-6.4-.6-9.5 0-2.7 1.1-5.1 4.3-5.4 2.9-.3 5.5.1 7 3.5 4.6 10.5 6.6 21.5 7.8 32.7 1.3 11.3 2.1 22.7.1 34-.7 3.8-1.6 7.6-3.1 11.1-.8 2.1-2.7 3.8-4.5 5.4-1.6 1.5-3.7 2.4-5.4 3.8-5.8 4.5-12.1 7.6-19.5 8.1-1.9.1-2.6.9-3 2.7-5.6 27.7-9.5 55.5-8.9 83.9.4 21.7 4.6 42.7 11.4 63.3 5.3 15.8 9.8 31.9 14.6 47.8.7 2.4 1.2 4.9 1.6 7.4s-.3 4.9-2.9 5.7c-2.5.7-5.1 1.3-7.1-1.6-5.7-8.2-9.7-17.2-12.2-26.7-6-22.6-12-45.3-17-68.1-2.3-10.4-1.9-21.3-3.2-32-2.6-22 2.1-43.3 6.1-64.7 4.1-22 7.8-44.2 10.9-66.4 2.1-14.7-.7-28.8-8.9-41.6-5.5-8.6-9.7-17.8-11.6-28-.6-3.2 1.6-5.3 4.9-4.8 4 .7 7.1 2.8 9.1 6.1 10.7 17.5 19.6 35.8 21.5 56.4.8 8.3-.9 16.9-1.8 25.4-.5 6.2-1.6 12.3-2.5 18.7z"/><path d="m94.4 247.2c.8-25.7 4.3-53.6 12.6-80.7.6-2 3.2-4.3 5.2-4.6 2.8-.5 5.6 1.7 5.8 4.7.4 4.9.5 9.9-.3 14.8-2.9 18.1-6.4 36.1-9.4 54.2-2.6 15.6-.6 31 1.5 46.5 2.2 15.8 6.1 31.1 10.6 46.4 1.6 5.2 1 11.1 1.3 16.7.1 1.8-.9 2.3-2.5 2.7-6.3 1.4-6.2 1.4-9.1-4.4-5.1-10.4-6.8-21.6-8.9-32.8-3.6-20.2-6.6-40.4-6.8-63.5z"/><path d="m162.2 170.3c7.2.3 10.7 4.5 10.1 12.2-1 15.1-1.8 30.2-3.4 45.2-2.2 20.5 1.7 40 7.9 59.3 2.9 8.9 6.3 17.7 9.1 26.6 1.3 4.3 1.9 8.8 2.6 13.2.4 2.6-1 5.1-3.4 5.2-1.9.1-4.8-1.4-5.6-3-4.9-10.1-10.1-20.1-13.7-30.7-7.5-22.1-11.7-44.9-11.1-68.3.2-9.7 1.6-19.4 2.2-29.1.6-9.6 1-19.2 4.4-28.3.3-.7.6-1.5.9-2.3z"/><path d="m103.7 65.4c4.2.4 7.6 1.7 9.2 5.2 4.4 10 9.2 19.8 12.5 30.2 3.6 11 .5 21.8-3.9 32.2-.6 1.3-1.7 2.3-2.7 3.4-6.1 6.2-12.1 12.6-18.5 18.5-5.1 4.7-11.2 7.5-18.3 7.5-1 0-1.9-.2-3.1-.3 0-2.9-.2-5.5.1-8.1.1-1 1.1-2.1 1.9-2.8 6-5.2 12.1-10.3 18.2-15.4 5.2-4.4 9.3-9.7 12.2-15.9 3-6.5 2.8-13.1.4-19.6-1.8-4.9-3.9-9.6-5.9-14.3-2.2-5.2-3.9-10.6-3-16.4.2-1.5.6-2.7.9-4.2z"/></g><path d="m362.1 8.8c1.1.8 2.1 1.6 3.1 2.4l-1 1.1c-1.3-1.1-2.3-2-3-2.5zm1.9 4.8c.5.2.9.4 1.4.5-.6 2.3-1.3 4.5-1.9 6.8l-1.5-.5c.8-2.1 1.4-4.3 2-6.8zm-1-9.4c1.3.9 2.4 1.8 3.4 2.5l-1 1.1c-1.4-1.2-2.4-2.1-3.2-2.6zm3.7 2.2v-1.4h10.3v1.2c-.5 3.6-1.8 6.8-4 9.4 1.5 1.6 3.4 2.8 5.7 3.8-.3.4-.7.8-1.1 1.4-2.3-1.1-4.1-2.5-5.6-4.1-1.6 1.6-3.6 3.1-5.9 4.3-.3-.5-.7-.9-1-1.3 2.4-1.1 4.4-2.5 6-4.1-1.9-2.5-3-5.6-3.3-9.3h-1.1zm8.8 0h-6.4c.3 3.3 1.3 6 3 8.2 2-2.3 3.1-5.1 3.4-8.2z" fill="#fafafb"/><path d="m385.3 3.8h1.3v2.2h2.8v-2.2h1.3v2.2h4.1v9.1h1.7v1.3h-16.9v-1.3h1.7v-9.1h4.1v-2.2zm.4 13.1.7 1.2c-1.8.9-3.8 1.9-6 2.9-.2-.4-.5-.8-.8-1.3 2.3-1 4.3-1.9 6.1-2.8zm-3.1-6.4h2.8v-3.2h-2.8zm0 4.6h2.8v-3.3h-2.8zm4-4.6h2.8v-3.2h-2.8zm0 4.6h2.8v-3.3h-2.8zm3.7 1.9c2.1.9 4.1 1.8 6.1 2.7l-.7 1.3c-2.2-1.1-4.2-2-6.1-2.9zm3.2-9.7h-2.8v3.2h2.8zm-2.8 7.8h2.8v-3.3h-2.8z" fill="#fafafb"/></svg>