<svg enable-background="new 0 0 400 400" viewBox="0 0 400 400" xmlns="http://www.w3.org/2000/svg"><g fill="#000001"><path d="m122.2 122.9c0-13.5-.1-26 0-38.5.1-14.7.1-29.4.6-44.1.2-4.2 2.1-8.4 3.2-12.4 6.9.4 9.7 3.2 9.9 9.6.3 9.5.5 19 .5 28.5.1 18.7 0 37.4 0 56.3 8.9-1.8 13.9-7.3 17.2-14.7 4.3-9.7 5-20.1 5.4-30.5.2-4.3 0-8.6.2-12.9.1-1.5.1-3.5 1-4.4 1.6-1.6 3.7-3.1 5.8-3.7.8-.2 2.6 1.8 3.4 3.1 4.5 7.8 4.6 16.3 3.5 24.8-1.6 12.1-4.3 23.9-9 35.2-2.7 6.4-8.3 10.2-14.2 13.2-3.3 1.7-7 2.5-10.6 3.6-1.7.5-2.4 1.4-2.4 3.3-.1 7-.4 13.9-.4 20.9 0 1.1.8 2.5 1.6 3.1 2.2 1.5 4.5 2.9 6.9 3.9 12.5 4.9 19.5 14.6 24.3 26.5 4.3 10.8 6.1 22.1 7.2 33.6 2.3 25 1.4 49.9-.2 74.9-.3 4.6-2 6.2-6.4 5.8-1.2-.1-3.1-1.3-3.3-2.3-1.1-4.4-2.5-9-2.5-13.5-.3-16.6.2-33.2-.1-49.7-.2-18.9-4.7-37-12.8-54.1-2.7-5.8-7.1-9.7-14.3-10.7v18.7c-.1 36.6-.3 73.2-.4 109.8 0 11.9.3 23.9.2 35.8 0 3.7-.6 7.5-1.5 11.1-.9 3.5-3.1 6.2-7 6.5-1 .1-2.7-.8-2.9-1.6-1.2-4.4-3-8.9-3-13.4-.2-23.2.2-46.4.2-69.7.1-30.3 0-60.6 0-90.9 0-1.4 0-2.8 0-4.2-4-.9-6.6-.3-9.4 2.7-9.6 10.3-14.1 22.7-16.1 36.3-2.4 16.6-3.9 33.2-3.3 49.9.2 5.3 1.3 10.5 1.5 15.8.2 4.9-.1 9.9-.7 14.8-.2 2-1.6 4.2-3 5.7-4.2 4.4-7.1 3.5-9.2-2-2.8-7.3-2.2-14.8-2-22.3.6-18 1.2-36 2.2-54 .9-15.4 4.9-30.1 12.3-43.7 4.2-7.7 10-13.8 18.7-16.7 8.6-2.9 8.5-3.2 8.7-12.4.1-4.3.1-8.6.3-12.9.1-2.2-.4-3.5-2.6-4.2-2.4-.7-4.7-2-7.1-2.7-12-3.4-18.3-12.3-22.3-23.1-5.8-15.6-6-31.7-3.3-48.1.8-5 3.3-7 8.4-6.9 3.5 7 5.4 14.8 6 22.9.3 4.2.4 8.4-.1 12.6-1.3 13.2 4.9 22.2 15.7 28.7 1.4.7 2.8 1.4 5.2 2.7z"/><path d="m229 255.8c-.5 24-.6 48-1.5 71.9-.4 11.7-2 23.3-3.2 34.9-.2 1.8-.8 3.7-1.4 5.4-1.5 4.5-3.9 5.9-8.4 4.4-.9-.3-1.8-1.7-1.9-2.7-.7-6-1.9-12.1-1.6-18.1.8-13.6 2.3-27.1 3.6-40.6 2.2-21.2 2.2-42.4 1.5-63.6-.6-17.2-1.6-34.5-1.6-51.7 0-16.9 2.8-33.4 7.8-49.6.3-1 .8-2.1 1.5-2.8 7.1-7.2 15.7-11 26-9.9 4.9.6 9.8 1.7 14.6 2.9 9.2 2.3 13.6 8.8 15.1 17.7 3.9 23.8 3.9 47.8 3.3 71.8-.4 16.4-.4 32.7-.9 49.1-.5 14.9 1.3 29.5 3.2 44.2 1.8 13.9 3.5 27.9 2.4 42-.2 2.7-.6 5.5-1.2 8.2s-4 4.6-6.7 4.1c-1.9-.4-3.2-1.2-3.5-3.3-1.1-9.4-2.5-18.8-3.5-28.2-1.5-13.6-3.6-27.2-4.2-40.9-.9-17.6-.9-35.3-.8-53 .1-22.3 1-44.6 1-67 0-7.5-1.3-15-2.6-22.3-1.5-8.8-8.5-13-18.7-12.2-.5 0-1.1.3-1.6.2-7.8-.4-11.5 3.8-13.4 11-2.3 8.6-2.3 17.2-2.2 26 .1 24 0 48 0 71.9-.5.2-.8.2-1.1.2z"/><path d="m240.5 64.1c-14.9 0-29.1 0-43.4 0-4.7 0-9.5 0-14.2-.7-2-.3-4.4-2-5.4-3.7-2.5-4.4.8-9.2 6.4-9.2 37.4-.1 74.8 0 112.1.1 3.1 0 6.2.4 9.2 1.1 1.5.3 3.1 1.3 4.1 2.5 2.5 2.8 1.6 6.4-1.7 8-5.5 2.7-11.5 3.1-17.5 2.9-10.5-.3-21-.8-31.5-1.2-1.2 0-2.4 0-3.9 0-.3 4.9-.7 9.5-.8 14.1 0 .8 1.4 1.9 2.5 2.3 8 3 16.2 5.3 23.9 8.8 14.9 6.7 23.1 19.4 28.8 34 6.2 16.2 6.6 33.3 6.4 50.3-.2 14.3-1.6 28.5-4.9 42.4-.6 2.6-1.6 3.6-4.3 3.7-5.9.2-6.6.4-7.2-5.6-.6-6.4-.2-13 .5-19.4 1.5-12.1 3.8-24 2.2-36.3-2.3-17.2-5.7-34-16.6-48.3-7.5-9.9-17.2-15.1-29.8-15.9-12.8-.8-25.2.3-36.7 6.3-1.4.7-2.8 1.8-3.8 3-12.7 14.5-19 31.6-21.1 50.5-1.8 16.2-1.2 32.2 1.6 48.2.7 3.9.2 8.2-.2 12.2-.5 4.4-3 6-7.3 5.9-2.2 0-2.8-1.2-3.3-2.9-4.8-16.3-6.2-33-5.8-49.8.4-16.4 3-32.2 8.8-47.7 5.7-15.2 16.5-25.8 29.9-33.7 4.6-2.7 10.4-3.4 15.8-4.5 3.9-.8 6-2.2 5.9-6.5 0-3.2.7-6.5 1.3-10.9z"/></g><path d="m362.1 8.8c1.1.8 2.1 1.6 3.1 2.4l-1 1.1c-1.3-1.1-2.3-2-3-2.5zm1.9 4.8c.5.2.9.4 1.4.5-.6 2.3-1.3 4.5-1.9 6.8l-1.5-.5c.8-2.1 1.4-4.3 2-6.8zm-1-9.4c1.3.9 2.4 1.8 3.4 2.5l-1 1.1c-1.4-1.2-2.4-2.1-3.2-2.6zm3.7 2.2v-1.4h10.3v1.2c-.5 3.6-1.8 6.8-4 9.4 1.5 1.6 3.4 2.8 5.7 3.8-.3.4-.7.8-1.1 1.4-2.3-1.1-4.1-2.5-5.6-4.1-1.6 1.6-3.6 3.1-5.9 4.3-.3-.5-.7-.9-1-1.3 2.4-1.1 4.4-2.5 6-4.1-1.9-2.5-3-5.6-3.3-9.3h-1.1zm8.8 0h-6.4c.3 3.3 1.3 6 3 8.2 2-2.3 3.1-5.1 3.4-8.2z" fill="#fafafb"/><path d="m385.3 3.8h1.3v2.2h2.8v-2.2h1.3v2.2h4.1v9.1h1.7v1.3h-16.9v-1.3h1.7v-9.1h4.1v-2.2zm.4 13.1.7 1.2c-1.8.9-3.8 1.9-6 2.9-.2-.4-.5-.8-.8-1.3 2.3-1 4.3-1.9 6.1-2.8zm-3.1-6.4h2.8v-3.2h-2.8zm0 4.6h2.8v-3.3h-2.8zm4-4.6h2.8v-3.2h-2.8zm0 4.6h2.8v-3.3h-2.8zm3.7 1.9c2.1.9 4.1 1.8 6.1 2.7l-.7 1.3c-2.2-1.1-4.2-2-6.1-2.9zm3.2-9.7h-2.8v3.2h2.8zm-2.8 7.8h2.8v-3.3h-2.8z" fill="#fafafb"/></svg>