<svg enable-background="new 0 0 400 400" viewBox="0 0 400 400" xmlns="http://www.w3.org/2000/svg"><path d="m195.2 230.2v15.4c-.1 31.5-.3 63-.4 94.6 0 7.7-.1 15.5-.3 23.2 0 1.6-.3 3.3-.7 4.9-1.3 5.1-5.4 6.8-9.9 4-.9-.6-1.6-2-1.9-3.2-2.7-11.5-3.7-23.1-3.5-34.9.5-32.7 1.1-65.4 1.7-98.2 0-1.4 0-2.8 0-4.5-3.6-.3-6.2 0-8.4 3.3-7.8 11.6-12.1 24.5-13 38.2-1.4 22.4-1.8 44.8-2.7 67.2-.2 5.8-.7 11.7-1.6 17.5-.7 4.7-3.8 6.5-7.8 5-1.2-.4-2.7-1.9-2.8-3-.8-7.1-1.7-14.3-1.7-21.4.1-16.2.6-32.5 1.2-48.7.7-17.6 2.6-35.1 10-51.4 1.6-3.6 3.1-7.4 5.4-10.6 3.3-4.8 8.4-7.7 13.9-9 6.3-1.5 7.3-5.9 7.4-11.2 0-.8-1.3-2.1-2.3-2.5-5.3-2.5-11-4.1-15.9-7.2-9.3-5.9-13.6-15.4-16.5-25.6-.3-1.2-.6-2.4-1.1-4.7-1.2 4.8-4.6 5-7.8 5.5-2.2.3-3.3 1.7-3.5 3.8-.3 3.9-.6 7.7-.9 11.6-.2 3.2-.2 6.4-.7 9.6-1.3 9.2-5.9 13.7-15.2 15.2-5.2.8-10.4 1.6-15.7 2.4-2.6.4-3.5 1.9-3.6 4.6-.2 6.5-.8 13-1.3 19.5 0 .2.1.4.4 1.3 8.8 0 17.8-.1 26.8.1 4.2.1 8.4.3 12.5 1.2 4.3.9 7 3.9 7.8 8.8-2.5 1.2-4.9 2.6-7.4 3.6-1.9.8-2.7 1.9-3 3.9-1.1 8.2-2.5 16.4-3.4 24.6-.4 3.3-2 5.4-4.8 6.5-5.1 1.9-10.4 3.4-15.7 5-4.1 1.3-8.2 2.4-12.3 3.8-2.1.7-2.9 2.3-2.9 4.6-.1 17.4-.2 34.7-.6 52.1-.1 4-1.3 8-2.4 11.9-.7 2.4-2.7 3.8-5.4 3.3-2.6-.5-4.2-1.6-4.9-4.5-2.4-9.6-1.2-19.4-1.1-29.1.5-40 1.6-80 1.6-120.1 0-20.7-1.8-41.3-2.8-62-.7-14.1-1.4-28.3-2.3-42.4-.8-11.5-2.4-22.9-2.6-34.3-.1-7.5 1.4-15.1 2.4-22.7.2-1.3 1.3-2.8 2.3-3.6 9.7-7.6 21.2-9.4 33.1-9.8 5-.1 10.1.8 15.2 1 3.6.1 5.3 1.9 6 5.3.2 1 .6 1.9.9 3-6.5 3.1-13.3 4.9-20.3 5.8-4 .6-8.1.8-12.2 1.3-7.8.8-12 5-12.7 12.8-.2 2.3 0 4.6 0 7.1h15.4c7.3 0 14.6-.1 21.9.2 2.8.1 5.8.9 8.2 2.2 2.1 1.1 3.9 3.2 5.1 5.3s1 4.4-2.2 4.7c-3.8.4-5.1 2.6-5.6 6.3-1.1 7.4-3 14.7-4.1 22.1-.5 3.6-2.3 6.2-5.3 7.4-5 2.2-10.3 3.8-15.5 5.5-3.8 1.2-7.7 2.1-11.4 3.4-.9.3-2 2.1-1.9 3.2.3 7.2.9 14.3 1.4 21.7 7.2 1.9 14.4 1.9 21.7 1.3 4.7-.4 9.6-1.3 14.2-.7 4.7.6 9.1 2.8 13.8 4.3 2.3-7.8 2.3-16.4 1.8-25-.4-6.7.8-13.1 3.3-19.4 3.5-9 10.1-13.6 19.4-14.8 1.4-.2 2.9-.3 4.3-.6 4.7-.9 7.3-3.7 7.8-8.9-4.9-1.5-9.9-3.3-15-4.4-5.8-1.3-9.4-4.9-12.3-9.7-4.4-7.2-5.9-15.3-6.4-23.4-.4-6.1.1-12.3.4-18.5.1-3.2 2.9-3.4 5-3.7 2-.2 4.2-.1 5.3 2.7 3.1 8.1 4.3 16.4 4.7 24.9.5 11.8 5.5 16.5 17.5 17.4 2-7.3 1.9-14.8 1.1-22.3-.7-6.8-1.8-13.6.4-20.4.8-2.3 1.9-4.5 2.8-6.7 1.1-2.8 3-2.7 5.3-1.8 5.1 2.1 5.7 6.8 5.9 11.3.4 11.2.5 22.3.7 33.5v6.5c4.8-.6 9.1-1.1 13.4-1.8.7-.1 1.3-1.1 1.7-1.8 4.4-7.2 5.4-15.3 6-23.5.2-3 .7-5.9 1.4-8.8.3-1.5.9-3.1 1.9-4.1 1.9-1.8 4.3-3.3 6.4-4.9 1.2 1.9 2.9 3.7 3.7 5.9 3.1 8.1 2.3 16.3.2 24.4-.9 3.5-2.3 6.9-3.2 10.4-2.4 8.7-8.7 12.9-16.9 15.1-4.1 1.2-8.1 2.4-12.1 3.1-2.8.5-3.8 1.7-3.4 4.4.1 1 0 2 0 3.2 5.8 1.4 11.5 2.6 17.1 4.2 2 .6 4.1 1.7 5.5 3.2 7.9 8.2 11.9 18.3 12.7 29.5 1.2 14.5-.6 28.7-6.4 42.2-1 2.3-2.7 4.2-4.2 6.2-1.1 1.4-2.6 2.4-3.7 3.8-4.5 5.6-10.2 9.3-17.4 10.6-2.3.4-3.1 1.7-3.2 4.1-.3 8.7-.5 9 8 11.8 9.6 3.2 14.3 10.6 18.3 18.9 6.4 13.5 8.3 28 9.6 42.7 2.3 25.6.7 51.3.5 76.9 0 3.2-2 5.4-4.8 5.7-3.6.3-6-1.2-6.3-4.5-.7-6.2-1.7-12.6-1.4-18.8.9-15.5-.4-30.9-2.2-46.3-1.5-12.7-2.7-25.5-4.5-38.2-1-7-3-13.9-8-19.3-2.3-2.5-5.3-4.4-8-6.5-.3.3-.6.5-1 .7zm-103.8-109.3c7.5-2.5 14.4-4.8 21.3-7.1.6-.2 1.4-1 1.4-1.5.4-6.1.7-12.3 1.1-18.7-8.7-.6-17-1.1-25.6-1.7.6 9.9 1.2 19.2 1.8 29zm4.3 162.4c7.1-2.5 13.9-5 20.7-7.5.6-.2 1.2-1.1 1.2-1.7.4-6.2.7-12.5 1.1-18.9-7.9 0-15.4 0-23 0zm.5-80.3c7.4-2.7 13.8-5 20.2-7.3.6-.2 1.2-1.1 1.2-1.6.4-6.2.7-12.5 1.1-18.8-7.9 0-15.4 0-22.5 0zm83.3-85.4c-6.9-1-11.5 3-16.6 4.9-.5.2-.8 1-1 1.5-1.2 4-2.7 7.9-3.5 12-.6 2.9-.1 6-.1 9.1 7.8-.4 14.7-.8 21.3-1.1-.1-8.9-.1-17.6-.1-26.4zm.7 71.3c-.3-9.9-.7-19.7-1-29.6-3.8 0-7.1 0-10.4 0s-6.5 0-9.7 0c-2.2 15 7.2 28.1 21.1 29.6zm15.3-43.9h19.4c.4-6.4-.6-12.3-3.1-17.9-2.7-6.1-9.2-9.8-16.3-9zm-.2 44.5c5-3.2 9.4-5.9 13.7-8.7.5-.3.8-1 1.1-1.6 1.4-3.4 3.2-6.8 4.1-10.4.7-2.5.3-5.4.1-8.1 0-.7-1.2-1.9-1.8-1.8-5.8.4-11.6 1-17.1 1.5-.1 9.7-.1 19-.1 29.1z" fill="#000001"/><path d="m281.4 259.8c-8.7 2.4-17 5.1-25.5 7-4.3.9-9 .7-13.5.4-3.3-.2-5.8-2.1-7-5.3-1.7-4.5-.8-6 3.7-7.1 9.5-2.2 18.9-4.4 28.3-6.8 7.4-1.9 10.4-5.6 9.3-13.3-.8-5.8-3.1-11.4-5-17-.3-.8-1.6-1.4-2.6-1.7-7.2-2.8-14.9-2.9-22.5-3.2-2.3-.1-5.1-.5-6.8-1.9-1.6-1.3-2.5-4-2.7-6.2-.1-1 2-2.7 3.4-3.3 9.9-4.3 19.9-2.7 29.9-.2 5.9 1.4 9.9 4.3 11.9 10.4 1.7 5.4 4.6 10.4 7.2 16.3 8.7-16.3 13-32.4 6.5-49.9-.6-1.5-1.8-3.1-3.2-3.9-7.8-4.8-16.4-6.8-25.5-7.2-4.9-.2-9.9-.6-14.8-1.3-3.4-.5-6.4-2.3-7.8-5.9-.9-2.4-.7-4.2 2.1-4.8 4.1-.9 8.2-1.5 12.3-2.3 1.1-.2 2.2-.3 3.3-.5 2.8-.6 3.9-2 3.9-5.1-.6-25.4-1-50.8-1.3-76.3-.2-12.6.3-25.2 3.7-37.5.5-1.7 1.1-3.3 1.6-4.9 4.9 0 7.7 2 8.7 6.3.6 2.7 1 5.4 1 8.2.1 17.4.1 34.7 0 52.1 0 3 1.1 4.7 3.7 4.8 6 .3 12 .1 18.1 0 3.5-.1 7.1-.6 10.5-.3 1.9.1 4.1.9 5.3 2.3 1.7 1.9 3 4.4 3.4 6.8.1.8-3.2 2.8-5.1 3-5.9.8-11.8 1.2-17.7 1.4-5.7.2-11.4 0-17.9 0v28.7c0 3.1 0 6.2-.2 9.3-.1 2.1.7 3 2.6 3.4 2.7.7 5.3 1.7 7.9 2.4 13.7 3.6 20.6 13.2 22.6 26.5 2.2 14.6.2 28.9-6.4 42.3-3 6.1-6.5 12-10 17.9-2.1 3.6-2.6 7.4-1.9 11.5 4.8 25.6 9.5 51.2 14.4 76.8 1.4 7.4 3.5 14.6 4.9 22 1 5.3-1.2 9.1-5.7 10.1-1.1.2-2.8-.4-3.5-1.2-3.6-4.4-3.9-9.9-5-15.2-6-28.9-12.2-57.7-18.3-86.5 0-.6-.2-.9-.3-1.1z" fill="#000001"/><g fill="#fafafb"><path d="m362.1 8.8c1.1.8 2.1 1.6 3.1 2.4l-1 1.1c-1.3-1.1-2.3-2-3-2.5zm1.9 4.8c.5.2.9.4 1.4.5-.6 2.3-1.3 4.5-1.9 6.8l-1.5-.5c.8-2.1 1.4-4.3 2-6.8zm-1-9.4c1.3.9 2.4 1.8 3.4 2.5l-1 1.1c-1.4-1.2-2.4-2.1-3.2-2.6zm3.7 2.2v-1.4h10.3v1.2c-.5 3.6-1.8 6.8-4 9.4 1.5 1.6 3.4 2.8 5.7 3.8-.3.4-.7.8-1.1 1.4-2.3-1.1-4.1-2.5-5.6-4.1-1.6 1.6-3.6 3.1-5.9 4.3-.3-.5-.7-.9-1-1.3 2.4-1.1 4.4-2.5 6-4.1-1.9-2.5-3-5.6-3.3-9.3h-1.1zm8.8 0h-6.4c.3 3.3 1.3 6 3 8.2 2-2.3 3.1-5.1 3.4-8.2z"/><path d="m385.3 3.8h1.3v2.2h2.8v-2.2h1.3v2.2h4.1v9.1h1.7v1.3h-16.9v-1.3h1.7v-9.1h4.1v-2.2zm.4 13.1.7 1.2c-1.8.9-3.8 1.9-6 2.9-.2-.4-.5-.8-.8-1.3 2.3-1 4.3-1.9 6.1-2.8zm-3.1-6.4h2.8v-3.2h-2.8zm0 4.6h2.8v-3.3h-2.8zm4-4.6h2.8v-3.2h-2.8zm0 4.6h2.8v-3.3h-2.8zm3.7 1.9c2.1.9 4.1 1.8 6.1 2.7l-.7 1.3c-2.2-1.1-4.2-2-6.1-2.9zm3.2-9.7h-2.8v3.2h2.8zm-2.8 7.8h2.8v-3.3h-2.8z"/></g></svg>