<svg enable-background="new 0 0 400 400" viewBox="0 0 400 400" xmlns="http://www.w3.org/2000/svg"><g fill="#000001"><path d="m129.4 110.3c-4.6-1.4-9-3.1-13.5-3.9-8.5-1.5-12.7-7.4-15.6-14.6-3.5-8.5-4.1-17.5-3.1-26.4.6-5.9 2.5-11.6 3.7-17.4.7-3.5 3.7-2.5 5.8-2.7.8-.1 2.2 1.4 2.7 2.5 3.5 8.5 4.4 17.4 2.5 26.3-2 9.7 1.9 18.4 17 21.4.5-5.9 1.5-11.6 1.3-17.4-.3-9.4-1.7-18.7-2-28.1-.3-7.6 2-14.8 5.4-21.8 4.1.7 6.5 3.3 7.6 6.7 1.2 3.4 2.1 7.1 2.2 10.6.1 10.9-.3 21.9-.4 32.8-.1 4.5 0 9.1.1 13.6.1 2.9 1.9 4.1 4.7 3.7 3.9-.6 6.8-2.1 8.9-6.2 4.2-8.1 4.1-16.5 3.7-25.2-.2-4.2.1-8.4.3-12.5.1-1.2.8-2.5 1.5-3.6 3.3-5.1 6.9-5 9.5.4 3.1 6.4 4 13.4 3.2 20.4-.9 7.6-2.3 15-3.7 22.5-1.8 9.4-8.7 13.6-17.1 15.9-2.6.7-5.4 1-8.2 1.3-1.9.2-2.6 1.1-2.6 3 0 3.6-.1 7.3-.4 10.9-.2 1.9.4 2.8 2.2 3.3 5.5 1.7 10.8 3.8 16.3 5.4 3.1.9 5.4 2.8 7.4 5.3 5.7 7.3 7.9 15.8 7.4 24.9-.5 10.7-2.1 21.3-6 31.4-.6 1.5-1.5 3-2.7 4-8.9 8.1-19.6 11.1-31.3 11.6-7.9.3-15.6-.8-23.1-3.5-3.5-1.3-6.1-3.3-8.4-6.1-12.5-15.1-13.9-32.1-8.8-50.3.7-2.3 1.6-4.6 2.3-6.9 2.9-9.6 10.4-13 19.4-13.7 10.5-.8 10.5-.5 11.3-11 .2-2.1.4-4.3.5-6.6zm31.8 64c-17.8 0-35.3 0-52.8 0-1.1 9.3 2.6 15.6 11.5 18 5.3 1.4 10.8 2.2 16.3 2.5 7.4.4 14.5-1 20.7-5.5.8-.6 1.8-1.5 2-2.4.9-4 1.5-8 2.3-12.6zm.1-15.6c-.3-2.1-.4-3.5-.6-4.9-1.4-9.4-5.5-13.3-15-14-5.9-.4-11.9-.3-17.9-.7s-10.6 3.2-15.9 5c-.4.1-.9.7-1 1.2-1.1 4.5-2.1 8.9-3.1 13.3 17.9.1 35.4.1 53.5.1z"/><path d="m185.4 263.2c0-2.7-.2-5.1.1-7.5.1-1 .9-2.2 1.7-2.9 9-6.8 17.9-13.8 27.1-20.2 3.8-2.6 8.6-3.9 13-5.8 3.7-1.5 7.4-3 11.1-4.4 1.7-.6 2.5-1.4 2.4-3.4-.2-3.8 0-7.7 0-12.5-4.2 1.2-8 2.1-11.6 3.5-4.8 1.9-9.5 4.2-14.1 6.5-1.5.8-2.7 2.2-3.9 3.5-3.5 3.8-7.3 7.1-12.7 7.9-2.2.3-3.5-.1-4.3-2.3-1.5-4-1-7.5 2.4-10.1 8.5-6.3 17-12.8 26-18.2 3.7-2.2 8.9-2.3 13.4-2.9 2.4-.3 3.1-1.2 3.1-3.5 0-4.7.4-9.5.6-14.5-7.3.6-13.9 2.5-20.1 5.7-7.4 3.8-14.8 7.4-22.2 10.9-2.4 1.1-5.2 1.9-7.2-.8-1.5-2-.2-7.7 1.8-9.5 6.4-5.6 13.5-9.9 21.6-12.6 7-2.4 13.8-5.3 20.7-8 .5-.2.9-.5 1.3-.8 0-.3 0-.7.1-1-4.9-.8-9.8-2-14.7-2.5-5.6-.5-11.3-.2-16.9-.7-4-.3-8.1-.9-12-2.1-3.7-1.1-6.4-3.8-7.1-8.1 5.6-2.6 11.1-4.9 17.5-4.5 7.8.5 15.7 0 23.5.8 13.8 1.4 24.2 7.9 25.9 23.9 1.8 17.4 4.5 34.6 3.1 52.2-1.6 19.6-6.6 38-17.7 54.5-3.6 5.3-7.4 10.5-10.1 16.3-5 10.6-4.1 21.7-1.8 32.8 2.5 11.9 5 23.8 7.1 35.7.6 3.5.1 7.2-.2 10.8-.2 2.5-1.8 4.3-4.5 4.6s-4.7-.2-6.1-3.2c-5.3-11.4-7.8-23.4-9.5-35.7-1.9-13.9-3.3-27.9-1.7-42 .2-1.4.5-2.8 1.1-4.1 3.5-7 6.9-14.1 10.6-21 1.1-2.1 2.6-4.1 4.2-5.8 6.1-6.4 10.6-15.5 12.3-25.9-7.8 4.4-16.7 5.4-23.3 11.8-4.8 4.6-10.4 8.5-16 12.2-4 2.7-8.7 4-14 2.9z"/><path d="m295.9 242.3c-10 1.2-18.6 4.4-26 10.9-2.4 2.1-5.1 3.9-8 5.3-3.9 1.8-7.2.9-8.6-1.6-1.2-2.2-.1-7.5 2.4-9.3 7-5.1 13.8-10.5 21.2-14.8 4.4-2.5 9.8-3.4 14.8-4.7 2.6-.7 3.5-1.9 3.6-4.5.2-5 .8-10.1 1.3-15.5-5.3 1.2-10.3.9-14.5 5.1-3.6 3.6-8.4 5.9-12.9 8.5-1.5.9-3.6 1-5.5 1-2.5 0-5.2-.2-5.9-3.2-.7-2.8-.2-5.4 2.5-7.2 2.4-1.6 4.7-3.3 6.9-5.2 7.9-6.7 16.4-12.3 27-13.8.5-.1 1-.4 1.6-.6.3-5.4.5-10.6.8-16.3-5.7.4-10.7 2.1-15.6 4.5-4.3 2.1-8.4 4.4-12.7 6.4-1.4.7-2.9 1.1-4.4 1.2-2.6.1-5.2-.3-6.3-3.1-1-2.6.3-6.8 2.7-8.2 6.8-4.1 13.6-8.2 20.6-12 1.8-1 4.3-.7 6.4-1.3 2-.5 3.8-1.4 5.7-2.2 0-.5-.1-1-.1-1.5-2.2-.8-4.3-2-6.6-2.3-6.2-.7-12.5-.9-18.8-1.4-3.7-.2-7.5-.1-11.2-.9-2-.4-4-1.9-5.3-3.5-2.2-2.7-1.2-5 2-6.6 4.9-2.4 9.9-3.4 15.4-3.1 5.7.3 11.5.2 17.2.6 13.9.9 21.2 10.9 22.9 23 .8 5.8.7 11.7 1 17.5.7 11.7 2.1 23.4 2.2 35 .1 16.8-3.3 33.1-8.7 49-.4 1.2-1.4 2.2-2.2 3.2-6.1 6.8-12.4 13.5-18.5 20.4-6.6 7.6-7.7 16.8-7.4 26.4.2 7.2 3 13.5 5.4 20 2.7 7.2 5.5 14.4 8.1 21.7.6 1.7 1.2 3.8.8 5.5-.5 1.8-1.8 4.1-3.3 4.6s-4.5-.4-5.4-1.7c-3-4.4-5.6-9.2-8-14-5.7-11.3-10.1-23.1-10.7-35.9-.5-9.5.6-18.9 4.1-27.6 2-4.9 6.1-9.1 9.7-13.3 3.7-4.3 7.8-8.1 11.8-12.1 6-5.9 8.3-13.4 8.5-22.4z"/><path d="m127.9 232.4c-4.1 0-8 .1-12 0-8.6-.3-17.2-.3-25.8-1.1-5.3-.5-8.1-3.6-8.2-7.6 0-2 .6-3.4 2.8-4.2 5.7-2.3 11.5-3.4 17.7-3.3 22.2.3 44.5 0 66.7.2 4.4 0 8.8.6 13.2 1.2 4.7.7 7.3 5.3 5.6 9.7-.3.8-1.3 1.7-2.1 1.9-5.1 1.2-10.2 2.8-15.4 3.2-8.1.6-16.3.4-24.5.4-2.4 0-3.6.9-4.1 3.2-1.3 5.5 0 10.6 2.5 15.4 2.5 4.9 5.1 9.8 8 14.5 6.5 10.4 6.1 21.3 2 32.1-2.1 5.4-4.7 10.8-7.9 15.6-9.3 14.1-18.9 28-28.5 42-1.3 1.9-2.6 4-4.3 5.4-2.4 1.9-5.1 3.3-7.8 4.7-1.8.9-2.8-.1-3.4-1.8-2.2-6.6 1-11.7 4.9-16.3 13.1-15 24.1-31.3 32.4-49.4.2-.4.3-.8.5-1.2 5-8.5 2.4-17.1 0-25.6-.2-.8-.9-1.5-1.4-2.2-5-6.2-8.3-13.3-10.4-20.9-.4-1.6-.4-3.3-.4-4.9-.2-3.5-.1-6.8-.1-11z"/><path d="m249.9 69.9c-9.1 11.1-18.1 21.9-27.1 32.9-7.6 9.3-15.2 18.7-22.7 28.1-2.3 2.8-4.9 5.1-8.7 5.5-4 .5-6.9-2.6-5.9-6.6.9-3.9 2.5-7.3 5.2-10.5 9.9-11.9 19.6-23.9 29-36.2 8.3-10.8 17.3-20.9 27.5-30 1-.9 3.2-1.4 4.3-1 2.8 1.2 5.9 2.5 7.8 4.7 14.5 16.8 29.1 33.6 43 50.9 4.7 5.8 7.6 13.1 11 19.9.6 1.3.6 4.2-.2 4.6-1.9 1.1-4.4 1.7-6.6 1.6-1.4 0-3-1.4-4-2.7-14-17.4-29.7-33.4-41.8-52.3-2.5-3.7-6-6.8-10.8-8.9z"/></g><path d="m362.1 8.8c1.1.8 2.1 1.6 3.1 2.4l-1 1.1c-1.3-1.1-2.3-2-3-2.5zm1.9 4.8c.5.2.9.4 1.4.5-.6 2.3-1.3 4.5-1.9 6.8l-1.5-.5c.8-2.1 1.4-4.3 2-6.8zm-1-9.4c1.3.9 2.4 1.8 3.4 2.5l-1 1.1c-1.4-1.2-2.4-2.1-3.2-2.6zm3.7 2.2v-1.4h10.3v1.2c-.5 3.6-1.8 6.8-4 9.4 1.5 1.6 3.4 2.8 5.7 3.8-.3.4-.7.8-1.1 1.4-2.3-1.1-4.1-2.5-5.6-4.1-1.6 1.6-3.6 3.1-5.9 4.3-.3-.5-.7-.9-1-1.3 2.4-1.1 4.4-2.5 6-4.1-1.9-2.5-3-5.6-3.3-9.3h-1.1zm8.8 0h-6.4c.3 3.3 1.3 6 3 8.2 2-2.3 3.1-5.1 3.4-8.2z" fill="#fafafb"/><path d="m385.3 3.8h1.3v2.2h2.8v-2.2h1.3v2.2h4.1v9.1h1.7v1.3h-16.9v-1.3h1.7v-9.1h4.1v-2.2zm.4 13.1.7 1.2c-1.8.9-3.8 1.9-6 2.9-.2-.4-.5-.8-.8-1.3 2.3-1 4.3-1.9 6.1-2.8zm-3.1-6.4h2.8v-3.2h-2.8zm0 4.6h2.8v-3.3h-2.8zm4-4.6h2.8v-3.2h-2.8zm0 4.6h2.8v-3.3h-2.8zm3.7 1.9c2.1.9 4.1 1.8 6.1 2.7l-.7 1.3c-2.2-1.1-4.2-2-6.1-2.9zm3.2-9.7h-2.8v3.2h2.8zm-2.8 7.8h2.8v-3.3h-2.8z" fill="#fafafb"/></svg>