<svg enable-background="new 0 0 400 400" viewBox="0 0 400 400" xmlns="http://www.w3.org/2000/svg"><g fill="#000001"><path d="m174 205.7c-2.1 15.9-4.1 31.3-6.1 46.8-1.5 11.6-2.7 23.3-4.8 34.8-.9 5.1-3.4 10-5.7 14.7-.9 1.8-2.9 3.4-4.7 4.4-6.2 3.2-10 .9-9.1-5.9.8-6.2 2-12.5 3.9-18.4 6.5-20.5 8.8-41.7 11.1-62.9 2-18.7 0-37-4.9-55.2-1.4-5.4-1.5-10.9-.1-16.4 6.6-1.5 8.3-1 11.9 4.5 4.7 7.3 5.7 15.7 7 24 .6 3.9.8 7.9 1.4 11.9.1.8.7 2 1.4 2.3 5.6 2.5 11.3 4.9 17.3 7.4 2-7.1 1.7-14 .2-20.9-2.6-12-6.9-23.5-12.6-34.4-.6-1.2-1.8-2.2-2.8-3.2-4.7-5-9.7-9.7-14.1-14.9-6.7-7.9-6-20 .4-28.1 5.4-6.9 12.9-9 20.8-9.2 19.3-.6 38.7-.5 58-.4 16 0 32.1.2 48.1.5 8.9.2 17.9.6 26.8 1.2 4.8.3 7.7 3.1 8.7 7.3.4 1.7 0 2.6-1.5 3.4-4.6 2.6-9.5 3.5-14.7 3.5-32.2-.3-64.3-.8-96.5-1-10.2-.1-20.3.4-30.5.9-8.1.3-12.8 7.9-9.7 15.4.2.5.8 1.1 1.3 1.3 15.6 7.2 22.6 21.1 26.8 36.4 2.9 10.3 3.8 21.1 5.6 31.6.5 3.3 1 6.5 1.5 10.1 4.8-1.9 9.4-3.7 13.9-5.8.9-.4 1.7-2.3 1.6-3.5-.1-6.5-.5-13-.8-19.5-.2-4.4-.4-8.8-.3-13.2.1-1.8 1-3.6 2-5.2 3.3-5.1 6.8-5 9.8.1 2.7 4.7 4.1 9.7 4.1 15.2 0 26.3.2 52.6-.1 78.9-.1 11.1-1.5 22.3-2 33.4-.4 9.2-.1 18.4-.6 27.5-.3 5.7-1.6 11.4-2.3 17.1-.2 1.9-1.1 2.8-3.1 3.1-7.4 1.3-8.1 1.3-9.1-6.3-.8-6.2-.4-12.5-.1-18.8.6-12 1.9-24 2.4-36.1.7-17.8 1-35.6 1.4-53.4 0-1.1 0-2.2 0-3.9-5.2 1.7-10.1 3.2-14.9 5-.7.2-1 2-1.1 3.1-.6 12.9-.6 25.9-1.8 38.8-1.1 12.9-2.8 25.7-5.2 38.4-2.7 14.9-6.2 29.6-9.8 44.3-2.2 8.9-5 17.6-8 26.2-1.4 4.1-3.8 7.8-8 9.8-4.2 2.1-6.1 1.5-6.7-3-.5-3.8-1-8.3.5-11.7 7.4-17.1 9.5-35.6 13.9-53.5 7.1-29 8.1-58.6 9.1-88.2 0-1-.6-2.5-1.4-2.8-5.4-2.6-11.4-5-17.8-7.5z"/><path d="m118.2 244.1c-7.9 0-15.3 0-23 0-.8 5.8-1.5 11.6-2.3 17.3-2.8 20.9-5.6 41.8-8.6 62.7-.5 3.4-1.5 6.7-2.8 9.8-.8 1.9-2.4 3.9-4.1 4.9-4.2 2.6-7.4 1.1-8.5-3.6-1.6-7-.2-13.8 1.1-20.7 3.6-19.2 7.3-38.4 10.4-57.7 2-12.4.1-24.9-1.6-37.3-1.4-10.2-1.6-20.5 1.5-30.6.3-1.1 1.3-2.7 2.1-2.7 2 0 4.3-1.2 6 1.3 3 4.3 4.2 9.2 4.6 14.3.7 8.1 1.3 16.3 2 24.4.1.6.2 1.3.4 2.3 7.3.3 14.5.7 22 1 .3-37.7.7-74.9 1-112.5-5.9-.4-11.4-.7-17.7-1.1-.6 5.1-1.3 10.2-1.7 15.3-.7 7.7-1.1 15.4-2 23.1-.4 3.2-1.6 6.4-3 9.4-.8 1.7-2.5 3.2-4.2 4.1-4 2.1-6.3.9-7.7-3.3-2.1-6.4-.8-12.8.5-19 4.2-20.5 5.7-41.2 3.1-62-1.1-8.4-2.9-16.8-4.2-25.2-.4-2.4-.4-4.9-.1-7.3.8-6.1.9-6 7.1-6.5 1.9-.1 2.8.4 3.6 2 3.9 6.6 5.5 13.9 6.2 21.5.9 10 1.7 20 2.7 30 .1.8 1 2.1 1.7 2.2 4.8.9 9.6 1.6 15 2.5.6-4.8 1.8-9.5 1.8-14.1-.1-9-.8-18.1-1.6-27.1-1-11.7-.4-23.2 5.1-33.8 5.5.5 7.8 2.4 8.7 7.5.6 3.1 1 6.4 1 9.5-.2 56.5-.4 113-.6 169.5-.2 36.7-.5 73.4-.8 110.1-.1 13.1 0 26.3 0 39.6-2.9.6-5.4 1.3-7.9 1.5-.8.1-2.2-1.1-2.4-1.8-1-4.6-2.5-9.2-2.5-13.9-.2-33.8 0-67.7 0-101.5-.3-1.1-.3-2.5-.3-4.1z"/><path d="m267.6 129.6c5.7 1.5 8.5 4.7 9.8 9.4 2.3 7.8.4 15.5-.3 23.3-.8 8.2-1.1 16.5-1.6 24.8-.2 2.6.7 3.8 3.8 3.9 8.4.2 16.8.8 25.2 1.3h2.9c.2-5.6.7-11.1.5-16.6-.1-7.5-.9-15-1-22.5-.1-4.7.5-9.4 1-14.1.1-1.4.6-3 1.5-4 1.8-1.9 4-3.5 6.1-5.2 1.3 1.8 3.3 3.5 3.8 5.5 1.2 4.8 2.5 9.7 2.2 14.5-.7 11.2.6 22.3 1 33.4.6 18.5.6 37.1.1 55.7-.4 15.1-2.2 30.2-6.1 44.9-.4 1.5-1.6 3.2-2.9 4-8.6 5.4-17.8 8.6-28.2 7.4-13.3-1.5-19.5-11.4-20.7-22.6-2.1-19.6-2.2-39.3-2-58.9.1-13.3-.1-26.5.1-39.8.2-10.7.6-21.4 1.4-32.1.4-4.1 2.2-8 3.4-12.3zm38.6 80.1c-10.1 0-19.6 0-29.3 0-.4 7.4-1 14.5-1.2 21.7-.4 12-1.2 24.1 1.6 36 2.8 11.6 5.8 14 17.8 13.2h.7c4.7-.7 8.8-2.3 10.1-7.6.7-2.8 2-5.5 2.1-8.3.3-11.6.4-23.2.2-34.8-.2-6.8-1.3-13.4-2-20.2z"/><path d="m226.9 52.5c-23.9-.3-47.7-.6-71.6-1-4.8-.1-6.6-2-6-6.4.2-1.1 1.2-2.5 2.2-3 5.7-2.9 11.7-4 18.1-3.9 36.8.2 73.6.1 110.4.1 9.3 0 18.6.1 27.8.7 5.5.3 8.4 3.5 8.8 7.8.2 2-.3 3.2-2.3 4.1-7.2 3.5-14.9 3.8-22.7 3.6-17.2-.6-34.4-1.2-51.7-1.7-4.4-.1-8.8 0-13.3 0 .3-.1.3-.2.3-.3z"/></g><path d="m362.1 8.8c1.1.8 2.1 1.6 3.1 2.4l-1 1.1c-1.3-1.1-2.3-2-3-2.5zm1.9 4.8c.5.2.9.4 1.4.5-.6 2.3-1.3 4.5-1.9 6.8l-1.5-.5c.8-2.1 1.4-4.3 2-6.8zm-1-9.4c1.3.9 2.4 1.8 3.4 2.5l-1 1.1c-1.4-1.2-2.4-2.1-3.2-2.6zm3.7 2.2v-1.4h10.3v1.2c-.5 3.6-1.8 6.8-4 9.4 1.5 1.6 3.4 2.8 5.7 3.8-.3.4-.7.8-1.1 1.4-2.3-1.1-4.1-2.5-5.6-4.1-1.6 1.6-3.6 3.1-5.9 4.3-.3-.5-.7-.9-1-1.3 2.4-1.1 4.4-2.5 6-4.1-1.9-2.5-3-5.6-3.3-9.3h-1.1zm8.8 0h-6.4c.3 3.3 1.3 6 3 8.2 2-2.3 3.1-5.1 3.4-8.2z" fill="#fafafb"/><path d="m385.3 3.8h1.3v2.2h2.8v-2.2h1.3v2.2h4.1v9.1h1.7v1.3h-16.9v-1.3h1.7v-9.1h4.1v-2.2zm.4 13.1.7 1.2c-1.8.9-3.8 1.9-6 2.9-.2-.4-.5-.8-.8-1.3 2.3-1 4.3-1.9 6.1-2.8zm-3.1-6.4h2.8v-3.2h-2.8zm0 4.6h2.8v-3.3h-2.8zm4-4.6h2.8v-3.2h-2.8zm0 4.6h2.8v-3.3h-2.8zm3.7 1.9c2.1.9 4.1 1.8 6.1 2.7l-.7 1.3c-2.2-1.1-4.2-2-6.1-2.9zm3.2-9.7h-2.8v3.2h2.8zm-2.8 7.8h2.8v-3.3h-2.8z" fill="#fafafb"/></svg>