<svg enable-background="new 0 0 400 400" viewBox="0 0 400 400" xmlns="http://www.w3.org/2000/svg"><path d="m139.7 173.7c-10.5-1.1-14 6.2-16.1 13.7-2.7 9.6-4.6 19.6-5.9 29.5-1.9 15.6-3 31.2-4.4 46.9-.2 1.9-.2 3.8-.2 5.6-.3 19.6-.6 39.1-1 58.7 0 2.1-.8 4.4-1.7 6.3-1.3 2.7-3.9 3.3-6.8 3.1-2.8-.2-3.8-2.1-4-4.4-.6-7.1-1.6-14.3-1.6-21.4.1-19 .4-38 .9-57 .5-16.8.7-33.6 4.4-50.1 2.5-11 5.8-21.8 11.4-31.7 3.2-5.7 8.3-9.9 14.5-12.3 3.3-1.3 8-1.3 9.6-3.6 1.8-2.5.7-7 .8-10.6.1-7.6.1-7.9-7.4-9.2-12.4-2.1-21.6-8.5-26.5-20-2.6-6-3.8-12.6-5.7-19-2.3-7.8-.1-15.6.4-23.3.4-6.6 1.2-13.1 1.8-20.2-4.1.7-7.6 1.4-11.2 2-4.9.9-6.6-.6-6.4-5.5.1-3.4 1.2-5.9 4.5-7.7 12.1-6.5 24.9-11 38.6-12.2 5.6-.5 11.4.6 17.1 1.3 1.2.2 2.5 1.8 3.3 3 4.3 6.5 5.9 13.8 6.2 21.4.4 11.5.3 23 .4 34.5.1 9.6.4 19.2.5 28.8 0 2.5 1.3 3.6 3.5 3 6.4-1.6 12.6-3.5 16-9.9 3.6-6.5 5.3-13.6 5.2-21-.1-9.3-.4-18.6-.5-27.8 0-2 .4-4 .7-5.9.5-3 2.5-4.5 5.3-5.4 1.8-.6 2.8 0 3.8 1.5 3.3 5.2 5.1 10.9 5.5 16.9 1.2 15.7-.8 31.1-5.9 46-2.9 8.5-9.7 12.6-17.4 15.4-4.1 1.5-8.5 2.4-12.8 3.5-1.9.5-2.7 1.5-2.8 3.5-.3 5.2-.7 10.4-1.3 15.5-.2 2 .7 2.6 2.2 3.3 5.3 2.7 10.9 5 15.6 8.5 7.4 5.5 10.1 14.3 13.1 22.6 5.3 14.6 6.6 29.9 7.4 45.3 1.7 32.4.3 64.8-.4 97.2-.1 3.1-2.2 5.4-5.1 5.8-2.8.4-5.4-1.2-5.9-4.3-1-7.3-2-14.6-2.3-22-.8-19.4-1.2-38.9-1.8-58.3-.2-7.4-.3-14.8-1.1-22.2-1.5-12.6-3.1-25.2-5.4-37.7-1.6-8.7-7.5-15-15.5-20.5v13.8c-.2 28.9-.3 57.7-.5 86.6-.1 14.2-.3 28.3-.3 42.5 0 9.7.5 19.4.4 29.2 0 4.2-.5 8.4-1.3 12.5-1.2 5.3-4.9 7.6-9.3 6.9-2.1-.4-2.8-1.6-3-3.3-.8-8.3-2.2-16.7-2.2-25 0-53.6.3-107.3.5-160.9.2-.8.1-1.3.1-1.9zm-29.9-121.9c6.6 10.1 6.9 20.8 5.1 31.9-1.9 11.7-.3 22.7 6.6 32.6 3.3 4.8 12.7 7.3 18.2 4.9 0-.5.1-1 .1-1.6.1-22.2.2-44.4.2-66.7 0-5.6-4.2-9.3-9.6-7.8-6.8 1.9-13.5 4.4-20.6 6.7z" fill="#000001"/><path d="m252.4 41.7c-7.8 1.3-14.8 2.5-21.9 3.6-6.7 1-13.5 2.4-20.3 2.8-5.5.3-8.6-3.1-8.1-7.7.2-1.4 1.2-3.1 2.4-3.8 8.5-4.9 18.1-6.4 27.6-7.5 6.6-.8 13.2-.5 19.8-1.2 4.7-.4 7.5 1.9 9.9 5.3 3.6 5.3 5.4 11.2 5.6 17.5.6 18 .9 36 1.3 54v4.3c13-.1 18.5-9.5 19.9-20.3 1-7.7.9-15.4 1.4-23.2.3-5.6 2.9-8.6 7.1-8.7 2.3-.1 4 .7 4.6 2.9 1.3 5.1 3.2 10.2 3.6 15.4.8 11-1.2 21.6-6.4 31.4-1.2 2.3-3.3 4.3-5.3 6.2-7.1 6.4-14.8 11.5-25 12.3.3 20.3.7 40.3 1 60.5 6.7-1.6 13.4-1.7 17.8-8 2.5-3.6 4.3-7.2 4.3-11.5 0-5.1-.3-10.2-.3-15.2 0-3.7 0-7.5.5-11.2.2-1.6 1.4-3.3 2.5-4.5 3.5-3.6 6-3.2 8.6 1 4.9 7.9 5.6 16.4 4 25.3-1 5.6-2.2 11.3-4 16.7-4 12.8-16.3 21.9-29.8 22.3-.5 0-1.1.1-1.7.2 0 4.3-.1 8.5 0 12.7.5 25 4.1 49.6 9.8 73.8 3 12.8 9 24.8 13.9 37.1 3.9 9.7 8.4 19.2 12.2 29 1.9 4.9 2.8 10.2 3.9 15.3.4 2.1.3 4.6-2.4 5.1-2.6.5-5.4.7-7-2.3-5.1-9.7-10.5-19.2-15.1-29.1-11.3-24.8-20.4-50.4-25.1-77.3-1.9-11-2.3-22.2-3.3-33.3-.8-8.5-1.6-16.9-2.3-25.4-.2-2.1-.9-3.3-3-4.1-6.2-2.7-12.2-5.8-18.4-8.3-4.3-1.7-7.2-4.8-9.2-8.6-8.6-15.9-8.9-32.5-3.6-49.4.2-.8 1.2-1.3 1.9-1.9.4-.3 1-.4 1.6-.5 1.3-.3 2.6-.6 4.1-.9 4.1 8.7 6.3 18 4.7 27.4-2.2 13.3 3.2 19.3 14.5 24.4 1.6.7 3.2 1.2 5.1 1.8.1-1.4.2-2.4.2-3.4 0-18 0-36.1.1-54.1 0-2.4-.7-3.6-3.1-4-2-.3-3.9-.9-5.8-1.4-15.7-4-25.2-14.6-27.2-30.7-1.3-10.1-.7-20 1.4-30 .7-3.5 2.2-5.3 5.7-5.5.8-.1 1.5-.3 2.6-.5 3.2 6.1 5 12.6 5.5 19.4.3 4 .1 8-.2 11.9-.5 6 1.5 11 6.1 14.7 3.8 3 8.2 5.4 12.9 8.3.4-23.4.4-45.7.4-69.1z" fill="#000001"/><g fill="#fafafb"><path d="m362.1 8.8c1.1.8 2.1 1.6 3.1 2.4l-1 1.1c-1.3-1.1-2.3-2-3-2.5zm1.9 4.8c.5.2.9.4 1.4.5-.6 2.3-1.3 4.5-1.9 6.8l-1.5-.5c.8-2.1 1.4-4.3 2-6.8zm-1-9.4c1.3.9 2.4 1.8 3.4 2.5l-1 1.1c-1.4-1.2-2.4-2.1-3.2-2.6zm3.7 2.2v-1.4h10.3v1.2c-.5 3.6-1.8 6.8-4 9.4 1.5 1.6 3.4 2.8 5.7 3.8-.3.4-.7.8-1.1 1.4-2.3-1.1-4.1-2.5-5.6-4.1-1.6 1.6-3.6 3.1-5.9 4.3-.3-.5-.7-.9-1-1.3 2.4-1.1 4.4-2.5 6-4.1-1.9-2.5-3-5.6-3.3-9.3h-1.1zm8.8 0h-6.4c.3 3.3 1.3 6 3 8.2 2-2.3 3.1-5.1 3.4-8.2z"/><path d="m385.3 3.8h1.3v2.2h2.8v-2.2h1.3v2.2h4.1v9.1h1.7v1.3h-16.9v-1.3h1.7v-9.1h4.1v-2.2zm.4 13.1.7 1.2c-1.8.9-3.8 1.9-6 2.9-.2-.4-.5-.8-.8-1.3 2.3-1 4.3-1.9 6.1-2.8zm-3.1-6.4h2.8v-3.2h-2.8zm0 4.6h2.8v-3.3h-2.8zm4-4.6h2.8v-3.2h-2.8zm0 4.6h2.8v-3.3h-2.8zm3.7 1.9c2.1.9 4.1 1.8 6.1 2.7l-.7 1.3c-2.2-1.1-4.2-2-6.1-2.9zm3.2-9.7h-2.8v3.2h2.8zm-2.8 7.8h2.8v-3.3h-2.8z"/></g></svg>