<svg enable-background="new 0 0 400 400" viewBox="0 0 400 400" xmlns="http://www.w3.org/2000/svg"><g fill="#000001"><path d="m179.8 159.2c.9-8.4 1.8-16.6 2.8-25.1-7.3-.8-14.3-1.5-21.3-2.2-5.4-.5-10.8-1.2-16.2-1.5-5.7-.3-9.5-3.7-12.5-7.8-10.3-14.6-11.4-30.4-5-46.9 1.2-3 5.6-3.1 7.5-.4 3.7 5.3 4.6 11.3 4.2 17.7-.3 4.4 0 8.8.4 13.2.9 9.3 7 12.4 13.2 12.9 9.3.7 18.7.1 28.1-.1.8 0 2-1.1 2.2-1.9 1-4.2 1.9-8.4 2.6-12.6.4-2.2.2-4.4.4-6.6.9-9.3 5.8-14.5 15.1-15.5 7.3-.8 14.8-1 22.1-1.4 7.9-.4 12-4.6 11.5-12.2-.1-1.2-.9-2.7-1.8-3.5-4.4-3.4-9.7-4.1-15.1-4.2-16.6-.1-33.2.3-49.7-.2-19.7-.6-39-3.6-55.8-15.1-7.3-5-9.5-10.7-6.3-17.9 5.8.6 11 2.7 15.9 5.8 6.5 4.1 13 8.2 20.6 9.7 5.3 1 10.7 1.2 16.1 1.5 19.5 1.2 39.1 2.2 58.6 3.6 6.2.5 12.5 1.6 18.6 3.2 10.3 2.8 15 10.8 13.4 21.2-2 13-6 17.4-20.5 20.5-7.6 1.7-15.5 2.4-23.3 3.3-2.4.3-3.4 1-3.8 3.5-1.1 6.2-2.5 12.3-3.9 19.1 7.7 1.4 15.1 3 22.6 4 10.3 1.3 20.7 2.2 29.4 8.2 6.3 4.4 12.2 9.9 17.1 15.9 13.1 16 23.7 33.6 30.5 53.2 1.6 4.7 2.2 9.7 3.4 14.5 1 3.8-1.9 4.7-4.2 5.6-2.4.9-4.5-.4-5.7-2.7-4.5-8.4-9.1-16.7-13.3-25.2-5.3-10.6-9.2-21.8-17-31-8.8-10.4-18.4-19.7-32.2-22.6-10-2.1-20.2-3.3-30.6-4.9-.5 7.5-.9 14.7-1.4 22.2 7.7 1.5 15.2.4 22.6-.2 4.3-.3 8.6-.7 12.9-.2 5.3.5 8.1 3.9 8.8 9.3-8.4 5.3-17.7 6.2-27.3 5.9-4.5-.1-9 .4-13.6.5-2.4.1-3.8 1.4-4 3.6-.7 6.1-1.4 12.2-1.6 18.4-.2 5.2.5 10.4.2 15.6-.3 6.2-3.5 9.9-8.3 11-2.2.5-3.7.1-4.7-2.3-2-4.9-3-9.9-2.5-15.2.7-8.1 1.5-16.2 2.3-24.4.4-4.1-1.4-5.9-5.9-5-10.9 2.3-21.7 5.2-32.6 7.3-17.5 3.4-32.2 13.1-47.9 20.6-3 1.4-5.9 3-9 4.1-3.7 1.3-6.4.2-7.7-2.4-1.4-2.9-.3-8.3 2.4-9.9 20.6-12 41.7-23 64.8-28.9 10-2.6 20.5-2.9 30.8-4.2 1.1-.5 2.3-.7 3.6-.9z"/><path d="m233.2 183.3c3.9 1.1 6.5 3.8 7.6 7.3 1.7 5.3 2.9 10.8 4 16.3 1.3 6.8 2.9 13.4 6.5 19.3 1.1 1.8 2.4 2.4 4.5 2.6 8.7.7 17.5-.2 25.9 3.2 15.1 6 27 15.6 33.8 30.5 3.8 8.3 3.4 16.9-.2 25.1-2.1 4.8-6.9 7.1-12 6.9-8.3-.2-16.4-1.9-22.1-8.6-3.8-4.4-7.2-9.2-10.6-13.9-.7-1-.9-2.5-1.1-3.8-.8-6 .6-7.8 6.6-8.2.8-.1 1.8.7 2.4 1.3 3.5 3.7 6.8 7.6 10.2 11.3 3.4 3.8 7.6 6.4 12.8 7 3.7.5 5.4-1.3 4-4.7-1.7-4-3.7-8.2-6.5-11.5-6.6-7.7-14.6-13.7-23.8-18.2-9.3-4.5-18.3-3.5-27.5.3-11.8 4.8-17.6 15.3-24.1 25.2-4.7 7.2-6.9 15.2-6 24 .4 3.7 2.3 5.1 5.9 3.8 2.6-1 5.1-2.5 7.3-4.3 4.1-3.2 7.8-6.9 11.8-10.1 5.1-4.1 11-5.3 17.5-4.3.7.1 1.7.3 2.1.8 3.6 4.6 7.9 8.9 10.3 14 2.8 6 .7 12.3-3.9 17-6.2 6.4-13.1 12.3-19.1 18.9-3.1 3.5-5.4 8-7.1 12.5-3.2 8.3 2.9 12.3 9.4 13.7 4.7 1.1 9.3-.1 11.7-4.8 3.4-6.7 6.9-13.3 9.3-20.4 2.8-8 7.7-14.1 14.5-18.7 4.8-3.3 9.8-6.4 14.8-9.5.8-.5 1.8-.9 2.7-1.3 4.6-1.6 9.3 2.3 8.4 7.1-.2.8-1.2 1.5-1.9 2.2-6.3 5.4-12.7 10.7-18.9 16.2-1.3 1.1-2.5 2.5-3.4 4-5.4 9.5-10.7 19.1-15.9 28.7-5.5 10.1-12.4 12.9-23.7 10.7-11.1-2.1-16.8-9.6-20.4-19.1-1.2-3-1-7.1-.2-10.3 1.5-6.1 4.3-11.7 9.5-15.9 5-4 9.4-8.7 14-13.2 3.7-3.7 6.7-7.9 7.8-13.2.3-1.7.1-2.8-1.8-3.1-.1 0-.2-.1-.3-.1-3.7-2-6.4-1.4-9.7 1.9-4.4 4.5-9.8 8.2-15.1 11.7-5.7 3.7-12.2 4.3-18.8 2.4-1.5-.4-3-1.4-4-2.6-6.8-8.3-8.3-17.8-5.4-28.1 3-10.5 7.2-20.4 13-29.7.7-1.1 1.6-2.1 2.6-2.9 4.7-3.8 9.5-7.5 14.3-11.3 4.7-3.6 4.5-3.6 2.2-9.2-2.7-6.6-5.7-13.2-7.5-20.1-2.1-8-2.2-16.2 2.8-23.6.1-.3.4-.7.8-1.2z"/><path d="m130.2 228c-6.9-13.6-8.6-26.9.3-40.3 6.2 3.1 9.1 7.9 9.4 14.3.2 3.1-.2 6.2 0 9.3.1 2.9.4 5.7.9 8.5 1.1 5.7 3.8 9.6 10.3 11.3 17.2 4.3 29.1 15.6 37.6 30.7 3.7 6.7 4.1 13.9 2.2 21.2-1.7 6.8-10.6 12.7-17.9 11.8-6.8-.8-13-3-17.9-8.3-5.1-5.5-10.8-10.6-12.2-18.5-.3-1.8-.5-3.7-.7-5.2.3-.4.4-.6.5-.6 6.7-2.8 6.7-2.8 11.4 2.6 3.1 3.6 6.3 7.1 9.7 10.5 3.3 3.3 7.4 5 12.3 4.7 3.2-.2 4.1-1.8 3.1-4.2-1.8-4.1-3.6-8.4-6.4-11.8-5.8-6.9-12.9-12.4-20.8-16.8-11.7-6.5-23.1-4.8-34.6.5-5 2.3-8.3 6.2-11.5 10.3-5.9 7.6-12.2 15.1-14.4 24.7-1 4-1 8.3-1 12.5 0 3 2.4 4.7 5.2 3.7 2.4-.9 4.8-2.2 6.9-3.7 4.9-3.4 9.4-7.3 14.4-10.6 6.3-4.2 13.4-4.5 20.4-1.9 4.7 1.8 6.9 6.4 8.5 10.9 2.6 7.1.9 13.5-4.1 19-5.2 5.7-10.7 11.2-15.9 16.9-4 4.3-6.4 9.4-7 15.4-.6 5.1.8 9.3 4.6 12.8 2.5 2.3 6.5 2.6 8.4-.2 4.4-6.4 9.8-12.6 12.5-19.7 5.6-14.9 15.6-25.4 28.9-33.3 2.2-1.3 4.9-2.2 7.4-2.6 4.5-.6 7.1 3.3 5.3 7.5-.6 1.4-1.8 2.8-3 3.9-3.5 3.1-6.9 6.2-10.7 8.9-6.4 4.5-11 10.4-14.5 17.3-3.6 7-7.7 13.6-11.3 20.6-7.1 14-18 15.8-30.9 9.8-6.1-2.8-9.1-9.5-10.6-16.1-2.3-10.2.7-19.6 5.6-28.3 1.6-2.9 5.2-4.7 7.7-7.2 4-3.9 8.1-7.8 11.8-12 1.5-1.7 2.2-4.1 2.9-6.2.4-1.2.3-3.3-.4-3.8-1.4-.9-3.7-1.8-5.1-1.2-3.4 1.4-6.6 3.5-9.6 5.6-4.8 3.3-9.4 7-14.3 10.1-2.1 1.3-4.7 2.1-7.2 2.3-10.2 1.1-14.4-2.5-18.5-15.6-2.4-7.6-.2-15.1 2.2-22.4 1.6-4.8 3.6-9.5 5.7-14.1 1.9-4.4 4.4-8.3 8.4-11.2 2.4-1.7 4.7-3.8 6.7-5.9 7-7.3 15.2-12.3 25.1-14.3 1.3-.4 2.5-1 4.2-1.6z"/></g><path d="m362.1 8.8c1.1.8 2.1 1.6 3.1 2.4l-1 1.1c-1.3-1.1-2.3-2-3-2.5zm1.9 4.8c.5.2.9.4 1.4.5-.6 2.3-1.3 4.5-1.9 6.8l-1.5-.5c.8-2.1 1.4-4.3 2-6.8zm-1-9.4c1.3.9 2.4 1.8 3.4 2.5l-1 1.1c-1.4-1.2-2.4-2.1-3.2-2.6zm3.7 2.2v-1.4h10.3v1.2c-.5 3.6-1.8 6.8-4 9.4 1.5 1.6 3.4 2.8 5.7 3.8-.3.4-.7.8-1.1 1.4-2.3-1.1-4.1-2.5-5.6-4.1-1.6 1.6-3.6 3.1-5.9 4.3-.3-.5-.7-.9-1-1.3 2.4-1.1 4.4-2.5 6-4.1-1.9-2.5-3-5.6-3.3-9.3h-1.1zm8.8 0h-6.4c.3 3.3 1.3 6 3 8.2 2-2.3 3.1-5.1 3.4-8.2z" fill="#fafafb"/><path d="m385.3 3.8h1.3v2.2h2.8v-2.2h1.3v2.2h4.1v9.1h1.7v1.3h-16.9v-1.3h1.7v-9.1h4.1v-2.2zm.4 13.1.7 1.2c-1.8.9-3.8 1.9-6 2.9-.2-.4-.5-.8-.8-1.3 2.3-1 4.3-1.9 6.1-2.8zm-3.1-6.4h2.8v-3.2h-2.8zm0 4.6h2.8v-3.3h-2.8zm4-4.6h2.8v-3.2h-2.8zm0 4.6h2.8v-3.3h-2.8zm3.7 1.9c2.1.9 4.1 1.8 6.1 2.7l-.7 1.3c-2.2-1.1-4.2-2-6.1-2.9zm3.2-9.7h-2.8v3.2h2.8zm-2.8 7.8h2.8v-3.3h-2.8z" fill="#fafafb"/></svg>