<svg enable-background="new 0 0 400 400" viewBox="0 0 400 400" xmlns="http://www.w3.org/2000/svg"><path d="m152.5 235.4c-4.3 5.3-8.2 9.7-11.7 14.5-11.9 16.5-21 34.5-27.5 53.8-1.4 4.1-2.2 8.3-3.3 12.5-.4 1.6-1 3.2-1.8 4.6-1.6 2.8-5.7 5-8.5 3.6-1.7-.9-3.2-3.6-3.6-5.6-1.2-6.6 1.1-12.8 3.8-18.6 4.9-10.8 10.4-21.4 15.9-32 4.2-8 8.6-16 13-23.9 1.3-2.3 2.9-4.4 4.6-6.5 5.8-7.2 11.7-14.5 17.6-21.6 1.4-1.7 1.9-3.3 1.2-5.4-.6-2-.8-4.1-1.3-6.2-.8-3.5-2.4-4.3-5.7-2.7-2.5 1.2-4.8 2.7-7.1 4.2-8.8 5.5-15.4 13-20.1 22.3-1.8 3.6-4.3 6.9-6.8 10.2-2.2 2.9-5.3 4.5-9 5-2.5.4-4-.7-4.4-2.9-.4-2-.6-4.2-.1-6.2 1.3-4.8 3.4-9.2 6.7-13.1 4.9-5.7 9.3-11.8 14.2-17.5 2-2.4 4.6-4.4 7.2-6.1 3.1-2.1 6.6-3.6 9.8-5.5 1.9-1.2 3.7-2.8 5.4-4.3 1.6-1.5 1.8-2.9-.1-4.7-3.6-3.4-7-7.1-11.5-11.7-.8 1.4-1.3 2.8-2.2 3.7-7.8 7.8-15.5 15.8-23.8 23.1-5.7 5.1-13 7.4-21.1 7.9.1-5.2-1.6-10.1 4.2-13.8 6.8-4.3 12.9-9.6 19.3-14.6 5.7-4.5 10.3-9.9 13.3-15.8-4.6-7-9.7-13.2-13.2-20.3-12.6-25.2-14.3-51.1-3.6-77.5 1.4-3.6 4.3-5.5 7.1-7.5 8.9-6.1 19.2-7.6 29.5-9 14.7-2.1 29.5-1.1 44.3-.2 2 .1 3.9.7 5.8 1.2 4.5 1.3 5.7 3.5 4.5 7.9-.2.7-1 1.4-1.7 1.7-7.2 3.1-14.6 4.2-22.3 2.7-8.2-1.7-11.7.5-13.6 8.7-.7 3-1 6.1-1.6 10 8.1 0 15.7-.1 23.3 0 3 0 5.9.4 8.8.9 1.2.2 2.7.9 3.4 1.9 1.5 2.2 3.2 4.7 3.4 7.2.1 1.1-3.3 3.3-5.3 3.6-6.1.8-12.3 1-18.4 1.3-4.8.2-9.7.1-14.6.4-.8 0-2.1 1-2.2 1.7-.7 3.9-1 7.9-1.6 12.6 6.8.1 13.4.2 20 .3 3.6.1 7.3-.2 10.9.5 5.1.9 7.5 4.2 8 9.8-6.7 2.4-13.6 4.1-20.9 4.2-5.7.1-11.5.4-17.2.5-1.9 0-2.7.8-3.2 2.5-3.1 10-6.2 20-9.5 30-.7 2-.3 3.2 1.2 4.6 6.7 6.5 13.2 13.2 17.3 21.7 2.6 5.4 4.4 11.3 6.5 17 1.2 3.3 2.8 4.1 6.1 2.5 2.2-1.1 4-2.7 6.1-4 4.5-2.9 8.9-3.8 13 2.2 3.3 4.9 4.2 10.4 5.1 15.9 2.7 17.6 5.4 35.2 5.7 53 .3 15.4-.8 30.7-4.3 45.8-.2.8-1.2 1.8-2 2.1-6.5 2.1-7.4 1.6-9.2-4.8-2-7.5-.5-14.9.2-22.4.2-2.4.6-4.8.5-7.3-.6-16.9-1.3-33.8-2.1-50.7-.2-3.9-1-7.9-2-11.7-.4-1.7-1.6-3.6-2.9-4.6-2.1-1.5-4.5-1.6-6.3.9-3.3 4.4-5.4 9.2-4.6 14.8 1.5 10.5-.4 20.9-1 31.4-1.4 25.4-7 50.1-11.4 75-1.4 7.9-2.6 15.9-4.2 23.8-.5 2.4-1.5 4.9-2.8 7-1 1.6-2.7 2.9-4.5 3.7-3.7 1.6-6.3.4-6.7-3.6-.4-4.8-.8-9.9.4-14.4 6.8-25.8 9.5-52.4 13.3-78.7 1.8-12.6 1.6-25.5 2.3-38.3-.1-.6-.2-1.1-.4-2.7zm-39.9-154.8c.1 0 .4.2.7.2 5.8-.3 11.6-.7 17.5-1.1 3-.2 7.1.5 8.8-1.2 1.8-1.7 1.4-5.7 1.8-8.8.9-5.8-2.7-8.7-8.4-7-3 .9-5.9 1.8-8.8 2.9-6.9 2.5-12.3 6.4-11.6 15zm-1 13.4v16.5c8.1-.5 16-1 23.9-1.7.6 0 1.7-1 1.7-1.5.2-3.3.4-6.6.1-9.9-.2-2.5-2.1-3.6-4.7-3.5-6.9.2-13.9.1-21 .1zm17 54.6c2-8.4 3.8-16 5.7-24.1-7.1 0-13.5 0-20.2 0 1.6 9.4 6.7 16.8 14.5 24.1z" fill="#000001"/><path d="m239.4 121.4c0-7.7 0-14.3 0-21.7-5.6 0-10.9 0-16.3 0-4.1 0-8.2 0-12.3-.4-5.3-.5-8.4-3.4-8.6-7.5-.1-1.8.5-2.8 2.2-3.5 6.6-2.7 13.3-2.5 20.2-2.1 3.3.2 6.6 0 9.9-.2 2.4-.1 3.3-1.4 3.8-4 1.9-10.9.9-21.8.5-32.8-.3-7.6.8-14.7 6-21 4.5 2.5 6.3 6.6 7.3 11.3 1.6 7.5-.4 14.9-.9 22.4-.4 6.3-.3 12.6-.5 18.8 0 2.4.9 3.5 3.6 3.5 7.2 0 14.4.4 21.5.6h5c.2-6.5.3-12.7.5-19 .1-2.7 0-5.6.8-8.2.6-1.8 2.1-3.7 3.7-4.7 3.6-2.3 6.2-1.4 7.1 2.7 1.4 6.2 2.7 12.6 3 18.9.6 15.8-.9 31.6-4 47.1-.3 1.4-1.2 2.9-2.2 3.9-5.4 5.6-12.4 7.5-19.7 8.2-5.5.6-11 .9-16.9 1.4-.6 7.9-1.2 15.6-1.8 24 7.1 1.6 14.1 3 21 4.6 8.5 2 17 3.7 23.9 9.9 8.6 7.8 12.1 17.5 10.9 28.9-1.2 12.1-3.7 23.9-9.8 34.5-2.4 4.2-6.2 7.7-9.6 11.2-1.6 1.7-1.9 3.1-1.4 5.3 7.8 30.5 15.6 61 23.2 91.5 1.2 5 2 10.2 2.3 15.3.1 1.7-1.5 4.7-2.9 5.2-2.3.8-5.1 0-7.7-.4-.5-.1-.9-1.7-1.1-2.6-9.1-34.4-18.2-68.7-27.3-103.1-.3-1.1-.6-2.1-1-3.7-4.5.7-9.1 1-13.6 2.1-11.2 2.7-22.5 3.6-33.9 3.4-2.7-.1-5.5-.7-8-1.9-1.7-.8-3.1-2.7-4.2-4.4-1.2-2.1-.6-3.7 1.9-4.9 7.4-3.4 15.4-3.8 23.3-4.6 10-1.1 19.9-2.5 30.4-3.9-3.3-7.9-5.4-15.9-9.6-22.6-3.9-6.1-11.1-8.7-18.6-8.5-5.8.1-11.7 1-17.5 1.4-3.5.3-7.1.5-10.5.3-1.7-.1-3.7-1.1-5-2.2-3.3-2.9-2.9-6 1-7.7 17-7.4 34.2-7.9 51.6-1.6 1.1.4 2.1 1.2 2.9 2.1 7.3 8.1 13.3 17.1 16.3 27.7.3 1.1 1.4 2.9 2 2.9 1.4-.1 3.2-.8 4.1-1.8 10.7-12.1 10.8-30.4 4.5-43.6-.8-1.7-2.6-2.9-4.2-4.1-10-7.5-21.5-10.3-33.7-10-11.5.3-22.9 1.6-34.3 2.3-3.2.2-6.5.2-9.5-.7-2-.5-4.1-2.4-5.1-4.2-2.2-3.8-1.1-5.6 3.2-6.4 11.3-2 22.6-3.9 34.1-5.9 0-7.6 0-15.1 0-23.3-5.3 0-10.6-.1-16 0-4.7.1-9.5.7-14.2.8-2.5.1-5.2 0-7.5-.7-2.1-.6-4.4-1.8-5.8-3.4-3.6-3.8-2.7-6.7 2.2-8.5 7.3-2.8 15-2.4 22.6-2.4zm13-21.7c0 7 0 13.6.1 20.2 0 .6 1.1 1.8 1.7 1.8 7.7.2 15.5.5 22.6-3.4.8-.4 1.8-1.2 1.9-2 .7-5.4 1.1-10.9 1.7-16.6-9.5 0-18.5 0-28 0z" fill="#000001"/><g fill="#fafafb"><path d="m362.1 8.8c1.1.8 2.1 1.6 3.1 2.4l-1 1.1c-1.3-1.1-2.3-2-3-2.5zm1.9 4.8c.5.2.9.4 1.4.5-.6 2.3-1.3 4.5-1.9 6.8l-1.5-.5c.8-2.1 1.4-4.3 2-6.8zm-1-9.4c1.3.9 2.4 1.8 3.4 2.5l-1 1.1c-1.4-1.2-2.4-2.1-3.2-2.6zm3.7 2.2v-1.4h10.3v1.2c-.5 3.6-1.8 6.8-4 9.4 1.5 1.6 3.4 2.8 5.7 3.8-.3.4-.7.8-1.1 1.4-2.3-1.1-4.1-2.5-5.6-4.1-1.6 1.6-3.6 3.1-5.9 4.3-.3-.5-.7-.9-1-1.3 2.4-1.1 4.4-2.5 6-4.1-1.9-2.5-3-5.6-3.3-9.3h-1.1zm8.8 0h-6.4c.3 3.3 1.3 6 3 8.2 2-2.3 3.1-5.1 3.4-8.2z"/><path d="m385.3 3.8h1.3v2.2h2.8v-2.2h1.3v2.2h4.1v9.1h1.7v1.3h-16.9v-1.3h1.7v-9.1h4.1v-2.2zm.4 13.1.7 1.2c-1.8.9-3.8 1.9-6 2.9-.2-.4-.5-.8-.8-1.3 2.3-1 4.3-1.9 6.1-2.8zm-3.1-6.4h2.8v-3.2h-2.8zm0 4.6h2.8v-3.3h-2.8zm4-4.6h2.8v-3.2h-2.8zm0 4.6h2.8v-3.3h-2.8zm3.7 1.9c2.1.9 4.1 1.8 6.1 2.7l-.7 1.3c-2.2-1.1-4.2-2-6.1-2.9zm3.2-9.7h-2.8v3.2h2.8zm-2.8 7.8h2.8v-3.3h-2.8z"/></g></svg>