<svg enable-background="new 0 0 400 400" viewBox="0 0 400 400" xmlns="http://www.w3.org/2000/svg"><path d="m173.5 308.4c-7.5-2.5-15-5-22.5-7.5-.9-.3-1.6-1.2-2.3-1.9-5.5-5.5-10.8-11.1-16.5-16.4-11.3-10.8-16.4-24.1-16.8-39.5-.4-13.8 1.2-27.4 5.9-40.4.4-1.1.9-2.3 1.6-3.2l13.5-16.8c4.9-6 11-9.9 18.7-11.8 9.4-2.2 18.7-5.2 28.1-7.8 1.1-.3 2.1-.8 3.1-1.2 7-3 7-3.6 6.8-11-.1-5.7-2.5-8.4-7.7-10.4-15.1-5.9-30.6-7-46.6-5.6-15.6 1.3-31.1.3-46.4-3.6-.7-.2-1.4-.5-3-1.1 35.3-4.5 69.6-8.9 104.1-13.4 0-3.4 0-6.6 0-10-19.9-3.3-39.7-6.5-59.6-9.8 0-.4 0-.8-.1-1.2 6.2-1 12.4-2.4 18.7-2.9 6.7-.6 13.5-.5 20.2-.7 4.7-.2 9.9-.2 11.9-5.3 2.2-5.3 0-10.4-3.6-14.3-4.7-5-9.9-9.4-15.1-14-1.6-1.5-3.5-2.7-5.4-3.8-7.5-4.2-16.5-3-22.6 2.9-13.6 13-27.2 26-40.8 39-.8.8-1.7 1.5-2.6 2.3-.3-.2-.6-.4-.9-.6 2.6-4.4 5-8.9 7.9-13 5.8-7.9 12.3-15.3 17.8-23.5 7.4-11 15.8-21 25.6-29.9 1.5-1.3 2.8-1.7 4.7-1.2 11.5 3 19.4 10.5 25.5 20.3 4 6.5 8 13 12.8 18.9 2.7 3.2 7 5.2 10.7 7.6 2 1.3 3.8.8 5.2-1.4 5.4-8.2 10.8-16.5 16.4-24.5 3.8-5.4 7.8-10.7 12.1-15.7 1.7-1.9 4.2-3.3 6.5-4.4 3.2-1.6 6.2-1.3 9.7.4 17.2 8.4 27.5 23.5 37.9 38.5 6.7 9.8 12.6 20.2 18.5 30.7-4.4-2-8.7-3.4-11.9-7.7-11.3-15-25.2-27.3-42.5-35-7.4-3.3-15.2-3.6-22.9-.7-1 .4-2.2.9-2.7 1.7-5.3 8.5-10.6 17.1-16.1 26 19 3.3 37.5 6.5 56.1 9.7v1c-6.2.9-12.3 1.9-18.5 2.6-7.2.8-14.6 1-21.8 2.2-9.2 1.5-16 6.5-19.3 15.9 6.6 4.7 13.9 7.1 21.6 7.7 8.9.6 17.9.7 26.8.3 14.5-.6 28.9-.7 43.1 3.2 1.4.4 2.7.9 4.1 1.3.4.1.7.4 1.8 1-7.2.5-13.7 1-20.2 1.5-23.7 1.6-47.4 3.3-71.1 4.8-1.9.1-2.9.6-3.4 2.7-1.3 6.4-3 12.7-4.6 19.3 6.6 2 13 3.9 19.4 5.8 4.1 1.2 8.2 2.7 12.4 3.7 19.1 4.4 31.5 17.4 42.1 32.6 7.3 10.5 8.7 22.7 7.5 35.3-1.7 17.6-7 34.1-15.3 49.7-.4.8-.9 1.6-1.5 2.1-9.3 7.2-18.3 15-29.1 20.1-2.4 1.1-4.8 2.3-7.4 2.8-7.4 1.5-13.3 5.8-19.6 9.3-1.1.6-1.9 2.3-2.3 3.7-4.5 15.5-8.9 31-13.3 46.5-.3 1-.6 1.9-1.1 3.5-3.3-9.6-4.9-18.7-4-28.2 1.2-12.1 5.6-23.1 11.7-33.5.7-1.1 2-2 3.2-2.7 17.9-10.2 34.8-21.8 50.3-35.5 12.1-10.7 16.9-24.2 15.8-39.7-.6-8.9-2.8-17.6-4.4-26.4-.2-1.1-.9-2.4-1.8-3-12.2-8.2-24.5-16.2-38.1-22-9.3-4-19-3.6-28.7-3.4-12.2.2-24.3.7-36.4 1.2-1.1 0-2.6.3-3.3 1-7.4 8.3-14.8 16.7-21.9 25.3-4.4 5.3-5.5 12-5.6 18.7-.2 10.5-.1 21 0 31.5 0 1.2.7 2.5 1.4 3.5 6.3 8.9 12.9 17.6 19.1 26.6 5.3 7.7 11.9 13.9 19.3 19.4.6.5 1.2 1 1.7 1.5.1 0 0 .1 0 .3z" fill="#000001"/><path d="m196.7 299c-1.8-6.5-3.7-13-5.5-19.6-2.3-8.7-4.6-17.5-6.8-26.3-2.8-10.7-9.5-19.1-16.5-27.2-5.4-6.4-11.2-12.5-17-18.9.9-.3 1.7-.7 2.6-1 9.6-3 19.1-6.2 28.8-8.9 3-.8 6.2-1.1 9.3-.8 12.8.9 25.5 2 38.3 3.2 8.4.8 16.3 3.1 21.7 10.4.8 1.1 1.4 2.4 2 3.5-5 1.4-9.9 2.4-14.4 4.2-14 5.8-21.6 17.2-26.7 30.8-5.9 15.7-11.1 31.6-14.4 48.1-.2.8-.4 1.6-.6 2.4-.4.1-.6.1-.8.1zm-14.4-86.8c5 11.2 9.8 21.9 14.9 33.2 7.4-9.7 14.4-18.8 21.7-28.3-12.5-1.7-24.3-3.3-36.6-4.9z" fill="#000001"/><g fill="#fafafb"><path d="m362.1 8.8c1.1.8 2.1 1.6 3.1 2.4l-1 1.1c-1.3-1.1-2.3-2-3-2.5zm1.9 4.8c.5.2.9.4 1.4.5-.6 2.3-1.3 4.5-1.9 6.8l-1.5-.5c.8-2.1 1.4-4.3 2-6.8zm-1-9.4c1.3.9 2.4 1.8 3.4 2.5l-1 1.1c-1.4-1.2-2.4-2.1-3.2-2.6zm3.7 2.2v-1.4h10.3v1.2c-.5 3.6-1.8 6.8-4 9.4 1.5 1.6 3.4 2.8 5.7 3.8-.3.4-.7.8-1.1 1.4-2.3-1.1-4.1-2.5-5.6-4.1-1.6 1.6-3.6 3.1-5.9 4.3-.3-.5-.7-.9-1-1.3 2.4-1.1 4.4-2.5 6-4.1-1.9-2.5-3-5.6-3.3-9.3h-1.1zm8.8 0h-6.4c.3 3.3 1.3 6 3 8.2 2-2.3 3.1-5.1 3.4-8.2z"/><path d="m385.3 3.8h1.3v2.2h2.8v-2.2h1.3v2.2h4.1v9.1h1.7v1.3h-16.9v-1.3h1.7v-9.1h4.1v-2.2zm.4 13.1.7 1.2c-1.8.9-3.8 1.9-6 2.9-.2-.4-.5-.8-.8-1.3 2.3-1 4.3-1.9 6.1-2.8zm-3.1-6.4h2.8v-3.2h-2.8zm0 4.6h2.8v-3.3h-2.8zm4-4.6h2.8v-3.2h-2.8zm0 4.6h2.8v-3.3h-2.8zm3.7 1.9c2.1.9 4.1 1.8 6.1 2.7l-.7 1.3c-2.2-1.1-4.2-2-6.1-2.9zm3.2-9.7h-2.8v3.2h2.8zm-2.8 7.8h2.8v-3.3h-2.8z"/></g></svg>