<svg enable-background="new 0 0 400 400" viewBox="0 0 400 400" xmlns="http://www.w3.org/2000/svg"><path d="m6.8 9.5c.6.3 1.3.7 2.1 1.1-.4.4-.7.8-.9 1.2-.7-.4-1.3-.8-1.8-1.1s-1.1-.6-1.6-.8c.2-.4.5-.8.7-1.2.4.2.8.5 1.5.8zm.9 6.9c-.3.6-.5 1.1-.7 1.7s-.4 1.1-.6 1.7c-.6-.4-1.1-.7-1.6-1 .7-1 1.2-1.8 1.5-2.4.3-.5.6-1.1.8-1.7.3-.6.5-1.2.8-1.8.3.3.8.6 1.3.8-.7 1.3-1.2 2.2-1.5 2.7zm.1-11c.4.3 1 .7 1.7 1.1-.5.2-.8.6-1.1 1.1-.5-.6-1-1-1.4-1.2s-.9-.6-1.5-.8c.2-.4.5-.7.9-1.1.5.3.9.6 1.4.9zm10.5 13.1c1 .4 2 .6 3.1.7-.4.4-.7.8-.8 1.3-.9-.2-1.9-.6-3-.9-1-.4-2-.9-2.8-1.6-.5.4-1.1.9-1.9 1.3s-1.9.9-3.3 1.2c-.1-.3-.5-.8-1.1-1.3 1 0 2.1-.3 3.2-.8 1.2-.5 1.9-1 2.3-1.7h-3.2c-.4 0-1 0-2 .1v-1.2c1 0 1.7.1 2 .1h3.3v-1h-2.3c-.2 0-.9 0-2 .1v-1.2c1.2 0 1.9.1 2 .1h2.3v-.8h-4.1c0-.7.1-1.2.1-1.6 0-.5 0-1.1-.1-1.8h4.1v-.7h-2.5c1-.6.1-1.1.1-1.6v-.6h-.5c-.4 0-1 0-1.8.1v-1.3c1.2 0 1.9.1 2.1.1h.2c0-.3 0-.8-.1-1.4h1.4c0 .6-.1 1-.1 1.4h3.4c0-.4 0-.8-.1-1.3h1.5c0 .4-.1.9-.1 1.3.7 0 1.5 0 2.5-.1v1.2c-1 0-1.8-.1-2.5-.1v.6c0 .3 0 .8.1 1.5h-2.5v.8h4.1c0 .7-.1 1.3-.1 1.8s0 1 .1 1.5h-4.1v.8h1.4c.8 0 1.8 0 2.9-.1v1.2c-1 0-1.9-.1-2.8-.1h-1.5v1h3.2c.3 0 1 0 2.1-.1v1.2c-1.1 0-1.8-.1-2.1-.1h-3.4l-.1.1c1.4 1 2.4 1.5 3.4 1.9zm-4.1-6.7v-1.3h-2.7v1.3zm2.2-4.1v-1.1h-3.4v1.1zm1.9 4.1v-1.3h-2.8v1.3z" fill="#fcfafa"/><path d="m37 6.7v2.3 5.4c1 0 1.8 0 2.2-.1v1.3c-.6 0-1.5-.1-2.5-.1h-11.9c-.7 0-1.3 0-1.8.1v-1.3c.5 0 1.1.1 2 .1v-5.2c0-1 0-1.8-.1-2.5h3.7c0-1.3 0-2.1-.1-2.5h1.5c0 .4-.1 1.3-.1 2.5h2.2c0-1.2 0-2.1-.1-2.6h1.5c0 .4-.1 1.3-.1 2.6zm-12.3 13.7c-.3-.4-.7-.8-1.1-1.1 1.1-.4 2.1-.9 2.9-1.3.8-.5 1.5-1 2.1-1.6.4.4.9.8 1.3 1.1-2.5 1.4-4.2 2.4-5.2 2.9zm3.9-10.1v-2.4h-2.2v2.4zm0 4.1v-2.9h-2.2v2.9zm3.5-4.1v-2.4h-2.2v2.4zm0 4.1v-2.9h-2.2v2.9zm.4 2.9 1-1.1c.6.3 1.4.7 2.5 1.3s2 1.1 2.7 1.5c-.4.4-.8.8-1.1 1.3-.8-.8-2.5-1.7-5.1-3zm3.1-7v-2.4h-2.1v2.4zm0 4.1v-2.9h-2.1v2.9z" fill="#fcfafa"/><g fill="#010100"><path d="m134 313c0 5.69-.2 9.69.04 13.67.69 11.77-5.41 20.65-12.43 29.03-1.21 1.45-3.79 1.75-5.74 2.58-1.32-3.36-6.86-3.64-5.59-9.31 1.17-5.23.43-10.89.53-16.36.09-4.86.19-9.72.24-14.58.03-2.35-.04-4.7-.05-7.05-.01-5 .12-10-.03-15-.21-6.94-.93-13.87-.87-20.8.04-4.55 1.36-9.08 1.55-13.64.17-4.06-.05-8.22-.73-12.23-1.27-7.45.64-14.77-.28-22.45-1.65-13.81.3-28.05.71-41.03-1.02-2.29-2.15-3.75-2.26-5.29-.27-3.98.17-8.02-.21-11.98-.18-1.91-1.51-5.21-2.43-5.25-2.4-.1-5.56.56-7.14 2.18-3.51 3.6-5.92 8.26-9.36 11.94-6.41 6.87-12.84 13.82-19.99 19.88-10.4 8.81-20.08 18.15-28.2 29.14-1.17 1.58-3.75 2.12-6.05 3.34-1.17-3.93-.88-6.3 2.18-8.31 4.68-3.08 9.08-6.57 9.84-12.77.02-.15.09-.34.2-.44 7.4-6.53 10.17-17.11 19.41-22.1 1.73-.94 2.86-2.95 4.32-4.42 2.78-2.79 5.31-5.92 8.44-8.23 6.89-5.08 9.53-12.99 13.86-19.77 3.85-6.03 7.84-12.06 10.79-18.53 3.02-6.6 4.97-13.71 7.16-20.66 1.55-4.94 2.67-10.02 4.1-15 .43-1.52 1.25-2.92 2.32-5.34.48 2.17.71 3.22.94 4.27.33.04.65.09.98.13.11-1.47.66-3.09.24-4.38-1.11-3.37 1.35-11.43 3.44-12.7.26-4.04.64-7.41.66-10.78.04-6.61-.23-13.23-.11-19.84.03-1.62 1.16-4.66 1.57-4.62 8.19.74 15.91-1.57 23.74-3.18.14-.03.31.08 1.09.29-.17 2.01-.34 4.15-.56 6.79 1.04-.81 1.8-1.41 2.56-2.01 4.1 3.67 5.48 9.67 11.29 12.06 3.79 1.55 3.78 8.36.8 12.26-8.13 10.65-15.91 21.59-24.36 31.98-3.35 4.12-8.12 7.08-12.21 10.54.97 1.52 1.83 2.87 2.99 4.7-2.78.21-4.87.36-6.96.52.38.27.77.55 1.15.82-1.08 1.8-2.73 3.49-3.07 5.42-.36 2.04-.14 4.83 1.04 6.36 2.34 3.06 5.3 5.75 8.38 8.1 3.56 2.72 4.99 5.37 4.26 10.28-1.93 12.97-3.73 26.06-4.08 39.15-.84 31.59-.84 63.2-1.16 94.8-.08 8.08 1.73 15.52 7.86 22.08 10.51-6.57 21.93-11.99 30.6-21.36 1.5-1.62 1.89-4.37 2.48-6.68.56-2.2.94-4.5.97-6.76.02-1.95-.61-3.91-.86-5.88-.69-5.34-2.54-10.91-1.61-15.96.68-3.72 1-5.98-1.19-9.22-1.25-1.85-.14-5.23-.32-7.9-.18-2.76-.06-5.77-1.18-8.16-.73-1.57-3.93-3.56-5.13-3.09-10.5 4.13-17.15-1.5-23.41-8.52-.43-.48-.81-1.01-1.95-2.43 4.49-.84 8.32-1.97 12.2-2.19 8.36-.48 17.85-6.3 19.81-12.7 3.43-.69 7-2.28 10.34-1.9 6.2.69 11.03 9.18 8.4 14.99-5.76 12.74-8.51 26.06-6.82 39.78 1.65 13.39 3.54 27.04 7.92 39.68 2.41 6.95 9.35 13.18 15.68 17.72 11.39 8.16 24.66 12.85 38.72 14.24 6.96.69 14.05.05 21.07.19 2.77.06 5.55.96 8.3.84 5.41-.24 10.79-1.12 16.19-1.38 3.37-.16 6.78.26 10.15.55 1.77.15 3.5.74 5.27.89 4.43.39 8.87.67 13.3.91.76.04 1.67-.15 2.3-.56 6.07-3.99 12.45-4.88 19.84-4.67 9.04.26 18.15-2.01 27.22-3.25 3.37-.46 6.72-1.12 10.46-1.76-1.05 5.9-3.66 9.96-7.94 13.3-5.31 4.15-10.53 8.5-15.27 13.28-6.62 6.68-14.27 9.54-23.7 9.95-16.1.69-32.13 2.85-48.22 3.62-7.29.35-15.08 2.31-21.8-3.64-2.43-2.15-6.7-2.15-10.07-3.32-16.65-5.78-32.44-13.07-45.11-25.81-5.69-5.72-11.57-11.26-17.07-17.16-4-4.29-9.96-4.87-14.17-.59-3.99 4.06-7.86 8.24-11.61 12.52-5.95 6.77-14.12 7.59-21.28 2.19-1.89-1.5-4.27-2.4-7.32-4.02z"/><path d="m208.49 69.76c3.51 2.41 7.01 4.86 10.55 7.22.73.49 1.65.68 2.49 1.02 2.68 1.07 5.38 2.1 8.02 3.24 2.77 1.2 5.46 2.56 8.22 3.78 1.98.88 4.02 1.63 6.03 2.44-.74.62-1.48 1.25-2.22 1.87 1.72-.44 3.49-1.4 5.15-1.24 6.4.61 11.81-1.82 17.36-4.5 2.73-1.32 6.26-.93 9.1-2.1 2.8-1.15 5.12-3.41 7.79-4.95 1.34-.77 2.98-.99 4.46-1.55 1.75-.66 3.59-1.21 5.18-2.17 4.69-2.84 9.26-5.88 13.89-8.81 3.82-2.42 7.66-4.81 10.06-6.31 2.81.85 4.2 1.3 5.61 1.69.55.15 1.24.02 1.69.3 1.61 1.01 3.18 2.1 4.7 3.24 3.41 2.57 9.37 3.09 8.24 9.43-.99 5.56-7.48 10.24-13.81 10.68-7.53.53-15.08 1.08-22.56 2.08-2.87.39-5.56 2.06-10.03 3.82 3.69 3.46 6.01 5.95 8.66 8.02 2.81 2.2 4.77 4.29 3.03 8.21-1.98 4.44-3.59 9.05-5.42 13.56-.97 2.41-2.24 4.72-3.06 7.17-1.76 5.29-.52 7.16 4.95 7.06 7.59-.14 15.31-1.62 22.73-.63 7.91 1.05 13.91-3.03 20.74-4.87.76-.21 1.49-.69 2.14-1.16 8.41-6.15 13.6-5.29 19.86 3.29 2.06 2.82.64 5.88-2.96 6.42-9.4 1.41-18.66 2.83-28.37 1.36-5.59-.85-11.61 1.38-17.47 1.98-4.29.44-8.62.57-12.93.67-6.3.15-13.28-1.16-17.14 5.53-2.06 3.57-3.16 7.81-4.07 11.88-.92 4.09-1.06 8.36-1.56 12.74.74.37 1.43.96 2.18 1.05 10.32 1.33 20.65 2.16 30.32-2.86 3.17-1.65 5.82-4.36 9.07-5.76 5.11-2.21 9.79.16 13.89 3.02 10.71 7.46 10.9 10.27 5.67 22.53-1.9 4.44-1.62 9.99-1.59 15.03.06 11.43.58 22.87.91 34.3.16 5.38 1.67 10.72 2.18 15.82 1.65 16.46 3.21 33.59-10.09 47.14-2.67 2.72-5.25 5.51-7.74 8.12-10.64-.94-11.66-9.02-12.31-17.21-.46-5.8-3.9-9.48-9.87-9.29-14.1.46-28.18 1.22-42.35 1.86-2.34 5.81-4.44 11.53-7.02 17.03-.49 1.05-3.28 2.12-4.27 1.64-3.21-1.56-5.79-3.45-5.7-8.16.2-9.78 1.76-19.59-.63-29.41-.66-2.72 1.24-6.01 1.62-9.08.17-1.37-.59-2.83-.76-4.27-1.37-11.05-2.7-22.1-4.02-33.16-.08-.64-.12-1.48.21-1.94 4.01-5.49.5-11.27.46-16.84-.09-11.87-1.22-23.73-1.62-35.61-.12-3.6 2.7-4.3 5.39-2.9 3.31 1.73 6.45 3.88 9.37 6.21 4.55 3.65 7.87 3.51 10.06-1.79 2.01-4.87 3.45-10.21 3.86-15.44.28-3.61-2.76-6.14-6.86-6.19-4.08-.05-8.16-.01-12.42-.01 1.13-4.25 7.17-9.22 11.59-8.86 13.97 1.13 17.04-8.8 20-19.61.64-2.33 2.18-4.41 3.3-6.6.54.2 1.08.41 1.63.61 0-4.33.1-8.65-.05-12.97-.06-1.76-.41-3.58-1.03-5.23-.94-2.53-2.14-3.56-5.57-2.66-4.5 1.18-9.75 3.32-13.89-1.61-3.65 6.1-9.64 6.56-15.48 6.82-2.7.12-3.99.87-5.11 3.34-2.67 5.87-5.79 11.53-8.64 17.32-.48.98-.98 2.3-.7 3.24 2.61 9.1 2.68 18.01-1.26 26.8-.44.99-.49 2.37-.21 3.44 3.04 11.56-2.58 22.25-3.29 33.42-.38 6.05-1.3 12.07-1.74 18.13-1.53 21.12-6.22 41.27-18.02 59.24-2.32 3.54-4.96 6.89-7.66 10.15-.53.64-2.78.9-2.92.63-1.14-2.12-3.12-4.68-2.67-6.6 2.17-9.34 4.75-18.6 7.69-27.73 2.48-7.68 3.64-15.61 7-23.22 3.32-7.51 3.32-16.53 4.51-24.92.9-6.33 1.7-12.7 1.97-19.08.33-8.02-.09-16.07.14-24.1.16-5.39.64-10.64-.86-16.05-.77-2.79 1.01-6.2.7-9.23-1.58-15.48-3.46-30.93-5.25-46.39-.15-1.32-.45-2.63-.68-3.95-.16.48-.33.96-.49 1.43zm86.9 141.84c-.23.53-.47 1.07-.7 1.6-11.11 1.6-22.24 3.07-33.3 4.94-1.62.27-4.08 2.32-4.17 3.68-.44 6.3-.54 12.67-.01 18.95.23 2.77 1.02 6.49 5.5 6.23 9.67-.58 19.34-1.13 30.03-1.75-2.2 4.84-6.07 5.44-9.75 5.66-5.31.32-10.65-.04-15.98.11-8.1.24-11.85 3.92-10.91 11.38.75 5.97 2.41 11.82 3.86 18.63 2.93-1.84 4.55-3.59 6.41-3.89 6.3-1 12.68-1.52 19.04-2.14 6.46-.63 12.84.21 19.48-1.57 5.4-1.45 6.7-4.2 7-8.27.65-8.76 1.02-17.55 1.02-26.33.01-8.26-.73-16.52-.89-24.78-.17-9.02.05-18.05-.08-27.08-.06-4.14-2.22-6.8-6.56-6.95-4.68-.15-9.38-.04-14.06-.04-7.99 0-15.98-.08-23.98.02-6.74.09-10.5 2.42-11.59 8.88-1.01 5.98-.63 12.23-.47 18.36.03 1.25 1.81 3.51 2.81 3.52 7.09.07 14.19-.23 21.28-.59 4.41-.22 8.79-.91 13.19-1.02.94-.01 1.89 1.6 2.83 2.45z"/><path d="m180.38 84.94c1.65 2.05 3.45 3.99 4.91 6.16 3.34 4.97 6.8 9.9 9.69 15.13 2.63 4.77-1.76 18.35-6.64 22.04-3.88 2.93-9.15 2.03-11.24-2.26-1.11-2.28-2.12-4.99-1.97-7.43.67-11.06 1.77-22.08 2.71-33.12.84-.18 1.69-.35 2.54-.52z"/><path d="m163.67 143.16c3.7-3.26 8.21-2.16 11.15 2.37.88 1.36 1.29 3.27 2.49 4.13 3.82 2.76 4.49 6.55 3.47 10.55-1.31 5.14-3.76 10.05-8.93 12.11-1.79.71-5.78-.49-6.75-2.06-2.83-4.58-5.26-9.62-6.67-14.8-1.28-4.67-1.21-9.76-1.28-14.67-.02-1.24 1.48-3.26 2.67-3.61 2.33-.69 3.1.71 2.39 3.12-.2.65.81 1.66 1.46 2.86z"/></g></svg>