<svg enable-background="new 0 0 400 400" viewBox="0 0 400 400" xmlns="http://www.w3.org/2000/svg"><path d="m6.8 9.5c.6.3 1.3.7 2.1 1.1-.4.4-.7.8-.9 1.2-.7-.4-1.3-.8-1.8-1.1s-1.1-.6-1.6-.8c.2-.4.5-.8.7-1.2.4.2.8.5 1.5.8zm.9 6.9c-.3.6-.5 1.1-.7 1.7s-.4 1.1-.6 1.7c-.6-.4-1.1-.7-1.6-1 .7-1 1.2-1.8 1.5-2.4.3-.5.6-1.1.8-1.7.3-.6.5-1.2.8-1.8.3.3.8.6 1.3.8-.7 1.3-1.2 2.2-1.5 2.7zm.1-11c.4.3 1 .7 1.7 1.1-.5.2-.8.6-1.1 1.1-.5-.6-1-1-1.4-1.2s-.9-.6-1.5-.8c.2-.4.5-.7.9-1.1.5.3.9.6 1.4.9zm10.5 13.1c1 .4 2 .6 3.1.7-.4.4-.7.8-.8 1.3-.9-.2-1.9-.6-3-.9-1-.4-2-.9-2.8-1.6-.5.4-1.1.9-1.9 1.3s-1.9.9-3.3 1.2c-.1-.3-.5-.8-1.1-1.3 1 0 2.1-.3 3.2-.8 1.2-.5 1.9-1 2.3-1.7h-3.2c-.4 0-1 0-2 .1v-1.2c1 0 1.7.1 2 .1h3.3v-1h-2.3c-.2 0-.9 0-2 .1v-1.2c1.2 0 1.9.1 2 .1h2.3v-.8h-4.1c0-.7.1-1.2.1-1.6 0-.5 0-1.1-.1-1.8h4.1v-.7h-2.5c1-.6.1-1.1.1-1.6v-.6h-.5c-.4 0-1 0-1.8.1v-1.3c1.2 0 1.9.1 2.1.1h.2c0-.3 0-.8-.1-1.4h1.4c0 .6-.1 1-.1 1.4h3.4c0-.4 0-.8-.1-1.3h1.5c0 .4-.1.9-.1 1.3.7 0 1.5 0 2.5-.1v1.2c-1 0-1.8-.1-2.5-.1v.6c0 .3 0 .8.1 1.5h-2.5v.8h4.1c0 .7-.1 1.3-.1 1.8s0 1 .1 1.5h-4.1v.8h1.4c.8 0 1.8 0 2.9-.1v1.2c-1 0-1.9-.1-2.8-.1h-1.5v1h3.2c.3 0 1 0 2.1-.1v1.2c-1.1 0-1.8-.1-2.1-.1h-3.4l-.1.1c1.4 1 2.4 1.5 3.4 1.9zm-4.1-6.7v-1.3h-2.7v1.3zm2.2-4.1v-1.1h-3.4v1.1zm1.9 4.1v-1.3h-2.8v1.3z" fill="#fcfafa"/><path d="m37 6.7v2.3 5.4c1 0 1.8 0 2.2-.1v1.3c-.6 0-1.5-.1-2.5-.1h-11.9c-.7 0-1.3 0-1.8.1v-1.3c.5 0 1.1.1 2 .1v-5.2c0-1 0-1.8-.1-2.5h3.7c0-1.3 0-2.1-.1-2.5h1.5c0 .4-.1 1.3-.1 2.5h2.2c0-1.2 0-2.1-.1-2.6h1.5c0 .4-.1 1.3-.1 2.6zm-12.3 13.7c-.3-.4-.7-.8-1.1-1.1 1.1-.4 2.1-.9 2.9-1.3.8-.5 1.5-1 2.1-1.6.4.4.9.8 1.3 1.1-2.5 1.4-4.2 2.4-5.2 2.9zm3.9-10.1v-2.4h-2.2v2.4zm0 4.1v-2.9h-2.2v2.9zm3.5-4.1v-2.4h-2.2v2.4zm0 4.1v-2.9h-2.2v2.9zm.4 2.9 1-1.1c.6.3 1.4.7 2.5 1.3s2 1.1 2.7 1.5c-.4.4-.8.8-1.1 1.3-.8-.8-2.5-1.7-5.1-3zm3.1-7v-2.4h-2.1v2.4zm0 4.1v-2.9h-2.1v2.9z" fill="#fcfafa"/><g fill="#010100"><path d="m201.25 272c-7.9 0-8 .01-9.21-7.83-.58-3.78-3.31-4.96-6.26-5.07-7.82-.28-15.92-1.37-23.41.24-8.63 1.85-17.15.35-25.66 1.56-8.3 1.18-14.1 4.61-16.74 13.05-2.53 8.07-13.66 11.36-20.29 6.05-4.7-3.77-3.96-9.4-3.35-14.62 1.13-9.74 3.3-19.44 3.5-29.19.51-24.8.24-49.63.08-74.44-.02-3.16-1.46-6.3-1.74-9.49-.19-2.18-.31-5.09.9-6.56 6.08-7.46 20.66-7.17 25.67 1.14 5.53 9.17 12.71 10.61 22.15 8.38 3.32-.78 7 .12 10.45-.27 6.46-.72 12.87-1.91 19.32-2.71 2.62-.33 5.32-.33 7.96-.19 4.25.23 7.02-1.91 9.4-5.09 2.06-2.75 4.23-5.46 6.56-7.98 4.16-4.5 11.17-3.84 14.99 1.16 3.58 4.68 7.56 9.07 10.79 13.97 1.27 1.92 1.28 4.87 1.29 7.35.01 1.5-.81 3.2-1.72 4.48-5.76 8.18-5.83 17.74-5.79 26.96.06 15.86 1.3 31.71 1.75 47.58.15 5.08-.27 10.24-1.04 15.28-1.5 9.99-9.29 16.24-19.6 16.24zm-36.5-27.44c.02.27.04.55.07.82 6.42-.46 12.89-.55 19.21-1.6 2.19-.36 5.47-2.91 5.71-4.79 1.21-9.46 1.82-19.01 2.19-28.55.33-8.48.05-16.99.08-25.48.01-3.15-.28-6.39.32-9.44 1.44-7.38-.79-10.7-8.25-10.44-5.38.19-10.71 1.37-16.08 1.88-8.52.79-17.1 1.07-25.56 2.21-4.04.55-8.14 2.12-11.75 4.07-3.82 2.06-4.48 6.04-3.68 10.16.81 4.17 4.11 3.83 7.05 3.55 8.63-.84 17.22-2.02 25.85-2.8 3.96-.36 8.02-.42 11.97-.02 3.68.37 4.39 3.15 4.2 6.56-.2 3.6-2.51 3.3-4.88 3.3-4.52 0-9.05-.23-13.55.08-6.18.42-12.4.93-18.48 2.05-3.36.62-6.86 2.06-9.57 4.1-1.71 1.29-3.37 4.96-2.68 6.49.78 1.72 4.26 3.18 6.51 3.11 10.87-.31 21.76-.8 32.56-1.96 10.13-1.08 9.84-1.47 10.12 8.51.13 4.6-1.8 5.6-5.81 5.66-10.1.16-20.19.57-30.28.96-9.42.36-13.85 3.61-15.74 11.4-1.71 7.03 2.68 12.88 9.94 12.51 10.18-.49 20.35-1.52 30.53-2.34z"/><path d="m293.97 333.37c-4.37.32-8.15-1.33-9.68-5.01-2.78-6.71-7.81-11.35-12.69-16.25-3.73-3.75-3.14-6.33 2.05-8.07 2.76-.92 5.64-1.7 8.52-1.98 11.5-1.08 14.68-4.4 15.57-17.24 1.3-18.53.92-37.18 1.24-55.78.17-9.68-.54-19.38 2.7-28.88.8-2.35-1.57-5.61-1.62-8.46-.21-13.02-.21-26.05-.07-39.08.06-5.44.67-10.87.97-16.3.69-12.53 1.74-25.06 1.92-37.6.17-12.09-.91-24.2-.69-36.29.08-4.13 1.96-8.49 3.94-12.25 1.73-3.28 5.39-4.43 8.91-2.58 10.14 5.35 20.08 11.05 28.3 19.24 4.83 4.81 4.73 6.23-.87 10.13-5.39 3.75-6.73 9.67-8.41 15.37-2.02 6.84-3.65 13.62-1.27 20.94.88 2.7-.77 6.14-.73 9.23.06 4.6.92 9.21.87 13.8-.16 13.27-.6 26.54-.94 39.8-.32 12.27-.66 24.54-1 36.8-.33 12.1-.66 24.2-1 36.3-.32 11.43.17 22.97-1.23 34.27-1.37 10.99-1.42 22.99-8.9 32-5.23 6.3-12.26 11.18-18.82 16.27-1.73 1.37-4.68 1.13-7.07 1.62z"/><path d="m139.48 82.93c7.67 11.69 14.91 23.39 22.85 34.59 4.89 6.9 3.93 12.91-.29 19.35-3.5 5.34-8.28 7.65-14.65 7.17-4.81-.36-7.33-3.51-6.26-8.36 1.32-6-.7-8.96-6.77-8.6-11.14.67-22.24 2.07-33.38 2.76-6.83.43-13.7.16-20.55.14-6.65-.02-14.83-13.2-12.11-21.29.41-1.23 2.66-2.2 4.24-2.61 2.51-.65 5.19-1.13 7.76-.98 10.6.61 15.45-7.65 21.55-13.82 7.95-8.03 11.31-18.87 16.7-28.46 2.65-4.72 1.99-7.44-2.63-10.22-2.67-1.61-4.65-3.22-3.88-6.57.78-3.41 3.71-3.57 6.43-4.06 5.27-.95 10.5-2.16 15.8-2.91 2.65-.37 3.93.92 5 3.94 1.7 4.81 4.71 9.23 7.61 13.52 6.89 10.21 4.92 17-5.58 24.75-.38.31-.73.67-1.84 1.66zm-11.97 27.18c8.93-1.11 11.08-2.96 9.42-9.23-.88-3.35-2.42-6.53-3.66-9.79-3.4 2.11-7.12 3.84-10.09 6.44-2.45 2.15-4 5.32-5.96 8.04 3.43 1.52 6.86 3.03 10.29 4.54z"/><path d="m202.65 41.67c5.3 1.04 9.5-.64 13.76 2.78 6.46 5.2 6.74 11.7 3.1 17.6-4.8 7.76-9.09 15.83-13.86 23.6-2.04 3.32-4.81 6.19-7.13 9.36-1.15 1.57-2.24 3.24-2.99 5.02-1.17 2.79-.8 4.97 2.97 4.96 4.33-.01 8.73.43 12.96-.22 1.7-.26 4.27-2.87 4.3-4.45.07-3.82-1.09-7.67-1.8-11.51-.26-1.43-.99-2.87-.86-4.24.15-1.52.73-3.88 1.71-4.23 1.38-.49 3.81 0 4.88 1.02 3.52 3.34 6.93 6.89 9.84 10.77 5.86 7.82 11.72 15.69 16.89 23.97 3.84 6.14 2.19 10.73-3.96 15.09-2.53 1.79-5.44 3.26-7.47 5.52-3.2 3.57-7.09 2.06-10.7 2.06-.8 0-2.23-2.31-2.29-3.61-.43-9.18-3.39-11.92-11.33-12.01-7.96-.1-15.97.87-23.9 1.87-7.25.91-11.78-2.09-12.8-9.26-.09-.63-.18-1.4-.58-1.83-4.18-4.52-.61-7.78 2.04-10.76 5.11-5.78 8.61-12.11 9.72-19.88.52-3.63 2.7-6.99 3.43-10.62.86-4.31.88-8.79 1.44-13.17.54-4.17 2.23-8.39-1.59-12.09-.21-.2 1.73-3.87 3.12-4.23 3.93-1.01 8.09-1.15 11.1-1.51z"/><path d="m255.59 173.91c-.53-14.71-.74-29.43-1.7-44.11-.63-9.62 10.79-17.8 19.47-12.04 2.03 1.34 4.33 2.27 6.37 3.61 6.92 4.53 6.75 5.16 3.38 12.77-2.01 4.53-3.51 9.56-3.92 14.48-.86 10.22-2.42 20.77-.84 30.73 2.91 18.42 1 36.76 1.51 55.12.19 6.76-.8 13.68-4.87 19.63-4 5.84-12.97 7.69-18.63 3.51-1.47-1.08-3.09-3.1-3.16-4.75-.32-7.67-.16-15.36-.06-23.05.02-1.27.79-2.53.83-3.81.39-14.1.65-28.2 1.08-42.3.1-3.27.71-6.52 1.09-9.79-.19 0-.37 0-.55 0z"/><path d="m158.57 294.84c-2.25 2.17-4.99 5.64-8.47 8.03-9.13 6.28-18.85 11.71-27.83 18.19-10.6 7.65-20.57 16.18-31 24.09-6.62 5.02-13.34 10.01-20.48 14.22-3.18 1.87-7.48 1.99-11.33 2.46-1.08.13-2.84-1.08-3.36-2.14-.38-.78.47-2.52 1.24-3.46 12.77-15.74 28.97-27.82 43.89-41.29 9.65-8.72 17.79-19.11 26.75-28.61 3.7-3.92 7.57-7.75 11.81-11.05 1.43-1.11 4.48-1.15 6.36-.48 5.52 1.98 12.56 12.87 12.42 20.04z"/><path d="m173.46 270.68c9.68-2.13 11.96-.33 17.72 6.07 5.49 6.1 12.7 10.63 19.08 15.96 4.85 4.05 9.62 8.18 14.28 12.44.84.76 1.41 2.29 1.38 3.45-.29 12.33-13.04 21.49-23.17 17.05-3.62-1.58-7.48-5.07-8.95-8.63-5.38-13.04-11.3-25.76-18.22-38.05-1.28-2.31-1.38-5.29-2.12-8.29z"/></g></svg>