<svg enable-background="new 0 0 400 400" viewBox="0 0 400 400" xmlns="http://www.w3.org/2000/svg"><path d="m6.8 9.5c.6.3 1.3.7 2.1 1.1-.4.4-.7.8-.9 1.2-.7-.4-1.3-.8-1.8-1.1s-1.1-.6-1.6-.8c.2-.4.5-.8.7-1.2.4.2.8.5 1.5.8zm.9 6.9c-.3.6-.5 1.1-.7 1.7s-.4 1.1-.6 1.7c-.6-.4-1.1-.7-1.6-1 .7-1 1.2-1.8 1.5-2.4.3-.5.6-1.1.8-1.7.3-.6.5-1.2.8-1.8.3.3.8.6 1.3.8-.7 1.3-1.2 2.2-1.5 2.7zm.1-11c.4.3 1 .7 1.7 1.1-.5.2-.8.6-1.1 1.1-.5-.6-1-1-1.4-1.2s-.9-.6-1.5-.8c.2-.4.5-.7.9-1.1.5.3.9.6 1.4.9zm10.5 13.1c1 .4 2 .6 3.1.7-.4.4-.7.8-.8 1.3-.9-.2-1.9-.6-3-.9-1-.4-2-.9-2.8-1.6-.5.4-1.1.9-1.9 1.3s-1.9.9-3.3 1.2c-.1-.3-.5-.8-1.1-1.3 1 0 2.1-.3 3.2-.8 1.2-.5 1.9-1 2.3-1.7h-3.2c-.4 0-1 0-2 .1v-1.2c1 0 1.7.1 2 .1h3.3v-1h-2.3c-.2 0-.9 0-2 .1v-1.2c1.2 0 1.9.1 2 .1h2.3v-.8h-4.1c0-.7.1-1.2.1-1.6 0-.5 0-1.1-.1-1.8h4.1v-.7h-2.5c1-.6.1-1.1.1-1.6v-.6h-.5c-.4 0-1 0-1.8.1v-1.3c1.2 0 1.9.1 2.1.1h.2c0-.3 0-.8-.1-1.4h1.4c0 .6-.1 1-.1 1.4h3.4c0-.4 0-.8-.1-1.3h1.5c0 .4-.1.9-.1 1.3.7 0 1.5 0 2.5-.1v1.2c-1 0-1.8-.1-2.5-.1v.6c0 .3 0 .8.1 1.5h-2.5v.8h4.1c0 .7-.1 1.3-.1 1.8s0 1 .1 1.5h-4.1v.8h1.4c.8 0 1.8 0 2.9-.1v1.2c-1 0-1.9-.1-2.8-.1h-1.5v1h3.2c.3 0 1 0 2.1-.1v1.2c-1.1 0-1.8-.1-2.1-.1h-3.4l-.1.1c1.4 1 2.4 1.5 3.4 1.9zm-4.1-6.7v-1.3h-2.7v1.3zm2.2-4.1v-1.1h-3.4v1.1zm1.9 4.1v-1.3h-2.8v1.3z" fill="#fcfafa"/><path d="m37 6.7v2.3 5.4c1 0 1.8 0 2.2-.1v1.3c-.6 0-1.5-.1-2.5-.1h-11.9c-.7 0-1.3 0-1.8.1v-1.3c.5 0 1.1.1 2 .1v-5.2c0-1 0-1.8-.1-2.5h3.7c0-1.3 0-2.1-.1-2.5h1.5c0 .4-.1 1.3-.1 2.5h2.2c0-1.2 0-2.1-.1-2.6h1.5c0 .4-.1 1.3-.1 2.6zm-12.3 13.7c-.3-.4-.7-.8-1.1-1.1 1.1-.4 2.1-.9 2.9-1.3.8-.5 1.5-1 2.1-1.6.4.4.9.8 1.3 1.1-2.5 1.4-4.2 2.4-5.2 2.9zm3.9-10.1v-2.4h-2.2v2.4zm0 4.1v-2.9h-2.2v2.9zm3.5-4.1v-2.4h-2.2v2.4zm0 4.1v-2.9h-2.2v2.9zm.4 2.9 1-1.1c.6.3 1.4.7 2.5 1.3s2 1.1 2.7 1.5c-.4.4-.8.8-1.1 1.3-.8-.8-2.5-1.7-5.1-3zm3.1-7v-2.4h-2.1v2.4zm0 4.1v-2.9h-2.1v2.9z" fill="#fcfafa"/><path d="m250.26 326c5.61 0 11.24.3 16.83-.08 6.59-.45 13.21-1.14 19.7-2.35 9.4-1.75 11.25-9.73 13.17-17.36.87-3.46 1.28-7.04 2.17-10.5 1.71-6.65 4.7-13.17 5.19-19.89.71-9.69 3.65-18.46 7.36-27.19.43-1.01.53-2.37.26-3.43-2.42-9.54.99-18.37 2.95-27.44 1.41-6.52 1.7-13.28 3.17-19.78 4.13-18.15 2.58-36.56 3.02-54.88.1-4.06-1.78-6.65-5.1-7.43-4.01-.93-8.3-.96-12.46-.86-5.93.15-11.84.89-17.77 1.16-9.6.44-19.2.77-28.8.97-1.7.03-3.42-.82-6.33-1.58-7.01 7.84-14.92 16.26-22.27 25.15-3.16 3.82-5.54 8.93-3 13.85 2.49 4.83 7.4 6.58 12.91 6.7 6.93.14 13.89.37 20.79 1.02 8.05.76 14.4-2.53 19.99-7.7 2.91-2.69 5.96-3.32 9.69-2.4 9.14 2.25 13.06 9.9 8.67 18.05-4.17 7.75-3.97 15.29-1.88 23.7 1.52 6.13.55 12.92.42 19.4-.1 4.94-.56 9.87-.96 14.8-.28 3.43-.33 6.96-1.19 10.25-1.68 6.38-7.7 5.84-12.44 6.69-3.96.71-7.23-.64-8.65-5.31-1.41-4.67-9.79-7.73-15.95-6.48-2.07.42-4.23 1.03-6.29.85-8.72-.78-9.94 2.87-11.54 11.5-.93 5.01-1.97 10.22-4.25 14.68-1.2 2.36-5.33 4.78-7.83 4.49-2.7-.31-5.42-3.46-7.35-5.97-.84-1.1.46-3.69.47-5.61.06-12.83.03-25.66.03-38.5 0-11.04.21-22.08-.08-33.1-.15-5.7-.79-11.46-1.93-17.04-1.01-4.96-3.04-5.68-7.65-3.41-3.06 1.51-5.83 3.6-8.86 5.16-3.45 1.77-6.95 4.23-10.61 4.61-6.15.64-9.77 3.96-12.95 8.59-3.88 5.65-9.55 7.33-16.01 6.56-1.24-.15-2.71-1.67-3.34-2.92-3.13-6.21-6.1-12.51-8.97-18.85-2.48-5.48-1.48-7.01 4.32-7.09 9.87-.14 11.9-1.5 15.06-10.53 4.29-12.24 9.01-24.36 12.53-36.82 2.39-8.43 3.35-17.32 4.37-26.07.69-5.95-.3-6.83-6.11-6.51-7.04.39-14.07 1.13-21.07 2-4.2.52-5.45 4.14-6.69 7.53-5.5 15.11-10.34 30.49-16.65 45.25-6.59 15.41-14.56 30.24-22 45.29-2.68 5.42-3.28 10.93-1.33 16.66 1.62 4.76 5.97 6.38 10.54 4.23 1.41-.66 3.1-.97 4.67-.98 10.5-.08 21.05-.65 31.48.17 6.98.55 13.73.94 20.37-1.26 3.8-1.26 7.77-2.57 11.01-4.81 3.43-2.37 6.15-1.53 8.82.42 2.9 2.12 4.92 4.99 3.85 8.95-2.94 10.89-1.88 21.69-.35 32.73 1.22 8.83.51 17.93.57 26.91.06 8.8-8.46 18-17.24 18.87-3.53.35-6.52-.31-8.68-3.42-3.86-5.54-9.09-7.31-15.84-6.73-7.11.61-14.32.08-21.49.15-7.55.07-13.16 3.99-15.01 10.84-.56 2.06-.34 4.49.1 6.63 1.71 8.42-5.05 17.13-12.32 16.62-4.93-.35-7.65-3.47-8.23-7.18-1.35-8.59-2.77-17.46-2.03-26.03 1.64-19.12.03-38.21.75-57.3.02-.5.19-1.13-.03-1.48-1.7-2.62-3-6.45-5.38-7.35-1.76-.66-5.57 2-7.4 4.11-3.17 3.67-5.11 8.39-8.29 12.05-3.53 4.05-7.88 7.39-11.84 11.06-3.09 2.86-6.1 5.8-9.21 8.64-2.78 2.54-3.36 2.53-5.09.96 7.38-10.01 14.96-19.77 21.92-29.95 3.29-4.81 8.56-8.84 7.64-15.96-.2-1.57 1.49-3.58 2.68-5.1 9.87-12.72 14.28-28.12 21.2-42.29 5.4-11.05 5.28-23.02 8.72-34.3 2.13-6.97 4.08-14.12 4.9-21.33.82-7.24-3.35-9.88-10.59-8.36-4.31.9-8.79 1.01-13.14 1.73-4.15.69-6.84-1.14-8.15-4.73-1.86-5.06-3.25-10.28-4.81-15.31 7.72 0 14.1-.12 20.47.03 8.6.21 17.21 1.05 25.8.86 12.03-.27 24.16-.5 36.04-2.18 7.08-1 13.68-5.04 20.66-7.17 4.93-1.5 10.14-2.09 15.22-3.08.16-.03.39-.04.49.05 4.71 4.44 9.97 8.45 13.9 13.5 2.45 3.16-1.47 13.82-5.75 16.22-3.49 1.96-3.91 4.94-4.88 7.94-3.73 11.6-7.4 23.23-11.07 34.86-.73 2.31-1.5 4.63-1.96 7.01-.94 4.94-1.98 9.9-2.42 14.9-.31 3.49.32 7.07.57 11.31 5.56-1.52 9.67-4.73 12.62-8.94 6.44-9.2 11.99-19.06 18.67-28.07 9.23-12.45 16.02-26.03 21.54-40.4 1.3-3.38 3.51-6.39 5.18-9.64.55-1.07.93-2.34.99-3.54.33-6.41.98-12.85.64-19.23-.32-5.98-1.14-12.02-6.24-16.5-1.94-1.7-2.96-4.45-5-7.65 6.32-.93 10.96-1.73 15.64-2.26 4.25-.49 8.53-.98 12.79-.93 3.04.04 6.22.55 9.07 1.59 7.63 2.76 12.55 8.88 17.11 15.16 2.84 3.91 1.41 8.07-1.65 10.94-11.68 10.97-18.98 24.95-27.18 38.34-.76 1.25-2.08 2.27-2.5 3.6-.74 2.32-1.96 5.21-1.16 7.1.79 1.87 3.78 3.92 5.86 3.98 13.66.35 27.33.28 40.99.07 2.13-.03 4.24-1.51 6.35-2.34 6.26-2.46 12.5-5 18.79-7.37 4.75-1.79 19.92 3.13 22.38 7.75 1.03 1.95.69 5.12-.07 7.4-.9 2.71-2.39 5.7-4.55 7.41-5.67 4.5-6.56 10.91-7.35 17.12-1.44 11.41-1.88 22.94-3.2 34.37-1.57 13.63-3.64 27.21-5.48 40.81-1.49 11.01-2.56 22.09-4.55 33-2.92 15.97-1.4 32.7-9.07 47.92-2.55 5.05-2.68 11.34-3.81 17.08-1.8 9.11-6.16 16.84-13.94 21.78-6.64 4.22-13.95 7.46-21.2 10.61-3.46 1.51-5.56-1.26-7.23-4.15-4.36-7.54-8.99-14.92-17.05-19.12-3.44-1.79-7.18-3.03-10.64-4.78-1.32-.67-2.27-2.07-3.39-3.14.25-.42.48-.83.71-1.25zm-96.28-100.72c-6.01.88-12.59 1.33-18.89 2.93-4.42 1.13-7.79 4.16-7.17 9.76.23 2.07-.44 4.22-.58 6.34-.48 7.58-1.23 15.18-1.12 22.76.03 2.02 2.31 4.68 4.27 5.89 7.5 4.65 16.17 3.47 24.42 3.81 4.99.21 10.03-1.26 15.06-1.75 12.6-1.22 15.4-3.93 14.95-15.93-.31-8.2-.88-16.44-2.2-24.52-.4-2.43-3.37-5.81-5.7-6.31-7.32-1.58-14.9-2.02-23.04-2.98zm106.31-35.28c-1.67 0-3.33 0-5 0-7.44 0-10.79 3-11.27 10.4-.46 7.09-.69 14.19-1.03 21.28-.08 1.66.16 3.42-.31 4.95-3.16 10.13 2.76 18.37 13.33 18.37h5.5c9.68 0 10.35-.5 12.32-9.81.27-1.28.11-2.65.17-3.98.33-7.26.73-14.51.98-21.78.13-3.85.37-7.75-.07-11.55-.67-5.83-3.33-7.89-9.12-7.89-1.83.01-3.67.01-5.5.01z" fill="#010100"/></svg>