<svg enable-background="new 0 0 400 400" viewBox="0 0 400 400" xmlns="http://www.w3.org/2000/svg"><path d="m5.17 384 .55-.58c.85.61 1.65 1.24 2.4 1.87l-.59.64c-.83-.73-1.62-1.38-2.36-1.93m1.22 9.53-.82-.34c.71-1.76 1.37-3.64 1.98-5.63.24.13.5.25.76.36-.6 1.67-1.24 3.54-1.92 5.61m-.5-13.5.57-.54c.56.44 1.31 1.06 2.26 1.87l-.64.64c-.68-.66-1.41-1.32-2.19-1.97m3.25.46h2.24v-1.36h.77v1.36h4.57v-1.36h.76v1.36h2.28v.69h-2.28v1.84h-2.64v1.26h4.18v2.64h-4.21c0 .45-.02.86-.05 1.21h4.32v.69h-4.38c-.04.34-.1.75-.19 1.22h5.15v.69h-4.82c.87 1.19 2.51 1.92 4.93 2.19-.17.31-.3.57-.37.76-2.77-.49-4.52-1.41-5.26-2.76-.56 1.26-2.3 2.23-5.24 2.9-.12-.24-.26-.48-.43-.72 2.73-.55 4.38-1.34 4.96-2.38h-4.38v-.69h4.65c.1-.38.17-.79.21-1.22h-4.32v-.69h4.4c.03-.34.05-.75.05-1.21h-4.2v-2.64h4.23v-1.26h-2.69v-1.84h-2.24zm1.46 4.46v1.29h3.45c.01-.4.02-.57.01-.53v-.32-.45h-3.46zm1.55-2.59h4.57v-1.19h-4.57zm6.11 2.59h-3.42v.77c-.01.19-.01.37-.02.53h3.44v-1.29z" fill="#fcfbfa"/><path d="m32.63 379.16h.82v1.98h3.54v7.89h1.46v.78h-14.37v-.78h1.46v-7.89h3.54v-1.98h.82v1.98h2.73zm-3.49 11.48.5.73c-1.61.82-3.28 1.63-5 2.41-.13-.27-.28-.55-.44-.82 1.75-.72 3.4-1.49 4.94-2.32m-2.78-5.55h2.73v-3.18h-2.73zm0 3.95h2.73v-3.2h-2.73zm3.54-3.95h2.73v-3.18h-2.73zm0 3.95h2.73v-3.2h-2.73zm7.89 4.68c-1.84-.92-3.51-1.7-5.02-2.32l.45-.73c1.89.8 3.57 1.55 5.04 2.23zm-1.62-11.81h-2.73v3.18h2.73zm-2.73 7.13h2.73v-3.2h-2.73z" fill="#fcfbfa"/><g fill="#010102"><path d="m175.35 136.23c4.49 3.61 8.02 7.12 12.18 9.57 3.94 2.32 8.48 4.74 12.86 4.95 9.73.47 19.54-.14 29.28-.86 6.11-.45 7.42-2.2 8.15-9.97 1.3-13.81 1.62-27.71 2.11-41.59.12-3.41-.58-6.85-1-10.27-.6-4.86-1.81-9.71-1.82-14.56-.03-11.77-2.85-22.28-11.7-30.59-.36-.34-.79-.67-1.01-1.1-.82-1.59-1.57-3.22-2.36-4.87 2.13-4.14 5.7-2.18 8.59-1.83 9.24 1.11 18.47 2.38 27.64 3.97 4.77.82 9.48 2.18 14.06 3.76 3.92 1.36 4.98 3.82 1.99 7.54-4.89 6.07-7.96 12.9-8.36 20.9-.73 14.67 6.36 15.13 18.22 14.54 10.14-.5 18.43-5 25.93-12.09 7.05-6.67 11.64-5.67 21.24 2.15 2.16 1.76 4.5 3.43 6.25 5.56 2.21 2.69 3.81 5.41.65 9.11-4.22 4.93-8.41 8.32-15.51 8.64-14.76.68-29.48 2.39-44.2 3.82-3.36.33-6.91.71-9.91 2.08-1.69.77-3.48 3.64-3.43 5.52.25 8.2 1.13 16.38 1.82 24.57.45 5.3 4.06 8.86 9.36 8.77 5.26-.09 10.7.09 15.72-1.18 3.87-.98 7.33-3.87 10.78-6.2 3.39-2.28 6.24-5.53 9.86-7.25 4.57-2.17 9.56-2.87 14.1.94 4.77 4 9.99 7.49 14.52 11.73 4.59 4.3 3.62 9.25-.99 13.51-2.1 1.95-3.58 5.15-4.17 8.02-.92 4.48-1.09 9.16-1.13 13.76-.13 13.5-.17 27-.02 40.49.2 17.1.48 34.2 1.04 51.3.26 8.05 1.48 16.06 1.88 24.11.54 10.95.74 21.92 1.05 32.88.3 10.74-3.48 19.07-13.66 23.98-3 1.45-5.26 4.46-8.27 5.88-4.46 2.1-8.3-.35-9.05-5.19-.74-4.83-1.17-9.72-2.12-14.51-.74-3.72-3.39-5.38-7.23-5.23-17.53.7-35.09 1.04-52.6 2.13-12.6.79-25.12 2.73-37.7 3.81-5.59.48-6.35 4.64-6.18 8.28.37 8.04-4.83 12.26-9.95 16.69-1.83 1.59-3.95 3.73-6.1 3.93-9.01.85-11.36-1.65-11.82-11.58-.67-14.48 1.01-29.06 1.29-43.6.09-5-1.61-10.02-1.51-15.02.44-22.21 1.74-44.4 1.76-66.6.01-21.2-1.26-42.4-1.82-63.6-.22-8.19-.08-16.39.02-24.58-.01-1.31.67-2.59 1.27-4.62zm37.16 53.23c4.75 4.43 8.73 7.95 12.49 11.69 6.05 6.03 11.87 12.29 17.95 18.29 3.24 3.2 5.79 1.66 7.13-1.99 5.55-15.19 10.65-30.52 10.89-46.94.12-8.31-2.06-9.69-10.15-8.52-13.61 1.96-27.28 3.5-40.95 4.94-4.9.51-10.93 6.01-10.87 10.87.31 22.42.65 44.85.99 67.27.32 21.26.64 42.52 1.02 63.77.11 6.2 1.18 7.34 7.18 7.13 16.2-.57 32.39-1.3 48.58-1.98.49-.02.99-.09 1.48-.14 11.39-1.28 22.79-2.51 34.18-3.87 3.87-.46 7.68-1.3 11.53-1.91 4.65-.74 6.19-3.68 6.04-8.06-.39-11.26-.98-22.53-.95-33.79.04-15.26.99-30.52.82-45.78-.17-15.7-1.23-31.39-1.88-47.09-.07-1.66.19-3.36-.05-4.99-.95-6.62-3-11.32-11.18-10.42-3.62.39-7.35-.2-10.98.14-4.41.41-9.34.97-11.42 5.46-2.01 4.32 1.42 7.72 3.75 11.06 1.03 1.48 2.49 2.74 3.16 4.35.77 1.83 1.77 4.28 1.15 5.88-4.01 10.42-8.06 20.87-12.88 30.93-2.72 5.68-6.71 10.81-10.54 15.89-3.1 4.12-1.96 7.12 1.31 10.23 3.43 3.26 6.85 6.55 10.03 10.05 7.42 8.17 13.71 17.01 16.2 28.08 1.22 5.42-.38 11.22-4.36 14.28-4.13 3.18-7.76 2.24-10.24-2.32-5.21-9.58-10.38-19.18-15.94-28.56-4.26-7.18-8.55-7.58-14.29-1.53-6.82 7.18-13.15 14.84-20.14 21.84-2.61 2.61-6.48 3.95-9.77 5.87-.28-.46-.57-.92-.85-1.38.88-2.08 1.45-4.38 2.69-6.21 6.04-8.91 12.5-17.55 18.33-26.6 3.64-5.65 7.82-11.53 4.74-19-1.74-4.21-3.13-8.65-5.43-12.53-4.79-8.06-8.46-16.96-16.54-22.76-3.17-2.28-4.64-5.72-2.23-11.65z"/><path d="m57.09 90.18c1.46 0 2.59-.34 3.35.05 7.36 3.83 14.74 7.65 21.92 11.79 1.55.89 2.82 2.91 3.43 4.68 3.17 9.2 10.06 13.39 19.15 9.56 8.32-3.51 15.85-8.87 23.72-13.44.98-.57 1.87-1.3 2.8-1.95 8.16-5.73 11.25-5.37 17.3 2.49.97 1.26 1.2 3.34 1.2 5.04.08 21.82-.21 43.64.18 65.46.15 8.31 1.84 16.58 2.69 24.89.28 2.8.63 5.78-.03 8.43-.38 1.53-2.67 3.54-4.2 3.63-3.89.24-7.85-.48-11.78-.82-13.97-1.19-27.74.7-41.38 3.23-3.89.72-7.93 3.4-8.16 8.36-.33 7.17-.62 14.38-.21 21.54.3 5.22-4.5 15.67-9.43 17.44-1.3.47-4.07-.32-4.73-1.41-2.31-3.81-5.43-7.92-5.65-12.06-.93-17.23-1.07-34.5-1.19-51.76-.05-8.26.99-16.53.81-24.77-.16-7.03-1.36-14.03-2.13-21.04-.21-1.95-.62-3.89-.73-5.84-.7-12.35-.96-24.75-2.2-37.04-.55-5.49-3.03-10.77-4.73-16.46zm67.91 77.2c.14-.01.29-.01.43-.02-.48-9.59-.22-19.29-1.63-28.73-1.6-10.69-1.15-12.07-12.04-11.61-4.44.19-8.88.48-13.28 1.05-5.85.75-11.26 5.16-11.4 9.72-.51 17.59-.9 35.18-1 52.78-.04 6.18 3.95 9.96 10.18 9.28 7.91-.86 15.73-2.61 23.52-4.29 3.86-.83 5.25-3.86 5.22-7.69-.04-6.83 0-13.66 0-20.49z"/></g></svg>