<svg enable-background="new 0 0 400 400" viewBox="0 0 400 400" xmlns="http://www.w3.org/2000/svg"><path d="m5.17 384 .55-.58c.85.61 1.65 1.24 2.4 1.87l-.59.64c-.83-.73-1.62-1.38-2.36-1.93m1.22 9.53-.82-.34c.71-1.76 1.37-3.64 1.98-5.63.24.13.5.25.76.36-.6 1.67-1.24 3.54-1.92 5.61m-.5-13.5.57-.54c.56.44 1.31 1.06 2.26 1.87l-.64.64c-.68-.66-1.41-1.32-2.19-1.97m3.25.46h2.24v-1.36h.77v1.36h4.57v-1.36h.76v1.36h2.28v.69h-2.28v1.84h-2.64v1.26h4.18v2.64h-4.21c0 .45-.02.86-.05 1.21h4.32v.69h-4.38c-.04.34-.1.75-.19 1.22h5.15v.69h-4.82c.87 1.19 2.51 1.92 4.93 2.19-.17.31-.3.57-.37.76-2.77-.49-4.52-1.41-5.26-2.76-.56 1.26-2.3 2.23-5.24 2.9-.12-.24-.26-.48-.43-.72 2.73-.55 4.38-1.34 4.96-2.38h-4.38v-.69h4.65c.1-.38.17-.79.21-1.22h-4.32v-.69h4.4c.03-.34.05-.75.05-1.21h-4.2v-2.64h4.23v-1.26h-2.69v-1.84h-2.24zm1.46 4.46v1.29h3.45c.01-.4.02-.57.01-.53v-.32-.45h-3.46zm1.55-2.59h4.57v-1.19h-4.57zm6.11 2.59h-3.42v.77c-.01.19-.01.37-.02.53h3.44v-1.29z" fill="#fcfbfa"/><path d="m32.63 379.16h.82v1.98h3.54v7.89h1.46v.78h-14.37v-.78h1.46v-7.89h3.54v-1.98h.82v1.98h2.73zm-3.49 11.48.5.73c-1.61.82-3.28 1.63-5 2.41-.13-.27-.28-.55-.44-.82 1.75-.72 3.4-1.49 4.94-2.32m-2.78-5.55h2.73v-3.18h-2.73zm0 3.95h2.73v-3.2h-2.73zm3.54-3.95h2.73v-3.18h-2.73zm0 3.95h2.73v-3.2h-2.73zm7.89 4.68c-1.84-.92-3.51-1.7-5.02-2.32l.45-.73c1.89.8 3.57 1.55 5.04 2.23zm-1.62-11.81h-2.73v3.18h2.73zm-2.73 7.13h2.73v-3.2h-2.73z" fill="#fcfbfa"/><g fill="#010102"><path d="m98.26 378.55c6.51-3.64 13.89-6.29 19.36-11.12 11.58-10.23 27.1-15.78 35.36-29.9 8.44-14.43 18.4-28.11 22.12-44.86.56-2.52 1.48-5 1.7-7.55.32-3.78-5.23-7.54-9.46-6.92-11.31 1.66-22.67 3.04-33.96 4.86-4.95.8-9.78 2.36-14.65 3.61-5.48 1.41-10.95 2.85-16.79 4.37-.7-2.28-1.67-3.69-1.4-4.82 1.45-6.15-2.74-10.06-5.36-14.64-.9-1.57-1.31-3.42-1.95-5.14 1.65-.48 3.32-1.46 4.94-1.37 9.73.5 19.45 1.86 29.16 1.72 8.29-.12 16.54-1.94 24.83-2.83 2.81-.3 5.69-.17 8.53-.04 6.11.28 12.22.8 18.34.95.88.02 2.31-1.31 2.61-2.28 2.16-7.09 2.73-14.26-.01-21.37-.16-.42-.7-.69-1.26-1.23-.93.39-2.24.56-2.92 1.3-2.48 2.74-5.04 4.66-8.86 2.53-4.43-2.46-7.26-6.15-7.54-11.22-.52-9.42-.65-18.86-1.08-28.29-.59-12.89-1.32-25.77-1.96-38.66-.06-1.12.14-2.26.23-3.46.85 0 1.65-.25 2.13.04 7.22 4.37 15.23 7.89 21.33 13.48 5.85 5.37 12.05 5.83 18.68 5.1 6.49-.71 12.35-2.93 12.97-11.29.24-3.29 2.23-6.43 3.23-9.69 1.48-4.84-1.68-9.75-6.77-9.72-6.24.03-12.48.85-18.72 1.33-2.29.18-4.6.62-6.88.5-4.58-.26-6.3-2.61-5.75-8.84 7.62 1.18 15.13 2.85 22.72 3.37 6.86.47 13.81-.3 20.72-.58.36-.01.74-.51 1.04-.85 3.89-4.35 7.58-8.9 11.79-12.92.85-.81 4.48-.28 5.34.8 2.05 2.58 3.9 5.47 2.29 9.45-2.8 6.92-5.34 13.98-7.44 21.14-2.84 9.7-.59 12.29 9.22 12.55 8.64.22 16.01-1.42 23.19-7.29 5.37-4.38 13.07-6.19 19.98-8.32 6.13-1.88 15.01 4.05 15.73 9.83.18 1.47-.02 3.11-.5 4.52-2.86 8.44-5.08 16.79-1.87 25.78 1.75 4.91-1.64 11.1-6.71 11.74-7.6.97-15.36.57-23.01 1.3-2.27.22-4.36 2.26-6.53 3.47 1.05 1.36 2 2.81 3.18 4.05.65.68 1.64 1.08 2.54 1.46 10.52 4.38 11.18 5.54 9.84 16.62-.46 3.75-.53 7.55-1.04 11.3-.67 4.83 1.03 7.46 6.08 8.09 9.94 1.24 19.96 2.71 28.75-3.67 3.39-2.46 5.76-6.27 9.01-8.99 1.28-1.07 4.09-1.72 5.46-1.04 8.14 4.01 16.45 7.51 22.66 14.97 2.84 3.42 7.17 5.37 7.1 10.68-.07 5.22-2.98 8.67-8.16 8.38-13.31-.74-26.6-1.99-39.91-2.81-9.25-.57-18.53-.84-27.8-1.05-3.11-.07-4.51 2.08-4.1 4.97.99 6.94 2.58 13.82 3.28 20.78 1.16 11.62 5.19 23.29.69 34.97-1.96 5.09-2.94 11.01-9.77 12.82-1.65.43-2.24 3.99-3.97 5.13-4.64 3.06-11.44.59-13.13-4.95-1.55-5.1-2.38-10.46-3.08-15.77-.66-5.06-.93-10.19-.99-15.29-.04-3.43 1.01-6.89.84-10.3-.47-9.54-1.11-19.08-2.13-28.57-.4-3.75-2.08-5.65-7.21-5.15-10.23 1-20.64.14-30.96.36-5.87.13-11.96 1.44-14.22 7.51-2.25 6.03-3 12.62-4.38 18.97-.14.64.03 1.42-.27 1.95-6.16 11.14-6.64 24.94-15.84 34.57-4.52 4.73-9.8 8.72-14.63 13.16-10.47 9.62-22.96 16.18-35.58 22.15-8.64 4.09-18.38 5.86-27.63 8.67-.25-.84-.52-1.67-.79-2.51zm139.68-167.83c.01.09.01.18.02.27 3.16 0 6.34.16 9.49-.03 8.38-.5 10.19-2.49 10.59-10.7.14-2.93.63-5.87 1.21-8.75 1.13-5.58-1.94-9.75-7.62-9.45-6.7.36-13.35 1.46-20.04 1.89-12.85.82-25.74 1.11-38.57 2.2-4.34.37-10.12.3-10.92 6.7-.48 3.83-.43 7.81.01 11.65.73 6.48 5.14 10.79 9.43 10.38 15.45-1.49 30.93-2.79 46.4-4.16zm-40.33 11.1c2.8 5.86 6.92 9.54 16.56 14.74 4.38 2.36 5.58 5.73 4.42 10.25-.77 2.99-2.04 5.9-2.33 8.92-.13 1.33 1.43 3.84 2.58 4.08 5.09 1.07 10.4 2.44 15.48 1.99 10.37-.93 16.34-.12 15.66-15.62-.27-6.1.03-12.33-1.16-18.25-1.7-8.47-1.17-10.44-11.05-9.98-11.08.52-22.18.58-33.26 1.16-2.22.12-4.37 1.68-6.9 2.71z"/><path d="m38.5 85.96c2.52-2.16 4-4 5.91-4.95 5.23-2.59 10.78-4.22 15.18-8.66 3.79-3.83 8.29-3.31 13.52.38 3.74 2.64 7.12 5.8 10.75 8.6 1.64 1.26 3.47 3.06 5.3 3.16 9.21.54 18.62 2.61 26.56-5.26 2.2-2.18 7.04-1.71 10.82-2.48-.01-.02-.87-.9-.73-1.57.47-2.4.67-5.33 2.19-6.89.93-.96 4.47-.45 6.12.57 4.29 2.65 8.2 5.93 12.23 8.99 3.71 2.83 2.96 5.88.93 9.52-1.59 2.84-2.72 6.15-3.18 9.38-1.21 8.57-2.34 17.19-2.74 25.83-.3 6.37.37 12.82 1.08 19.18.27 2.43 2.28 4.09 5.15 2.96 5.52-2.16 10.27-4.77 13.21-10.71 2.52-5.09 7.26-9.04 10.5-13.84 4.64-6.88 8.99-13.99 13.15-21.17 5.16-8.9 10.69-17.67 14.77-27.06 3-6.9 3.91-14.71 5.78-22.11 2.4-9.46-1.28-16.57-9.45-22.33 1.8-1.08 2.92-2.27 4.15-2.4 10.61-1.14 21.22-2.72 31.86-2.88 7.77-.12 14.78 3.63 20.8 8.68 2.87 2.41 2.81 4.82.44 7.97-4.3 5.72-8.1 11.83-12.02 17.83-2.31 3.53-2.28 7.14.72 10.22 6.37 6.55 12.66 13.22 19.47 19.29 2.94 2.61 7.31 3.53 10.65 5.78 16.5 11.11 34.96 17.96 53.36 24.95 11.25 4.27 22.37 9.01 34.56 10.19 1.2.12 2.28 1.44 3.41 2.21-.83 1.16-1.42 2.98-2.52 3.36-3.96 1.37-8.1 3.16-12.16 3.13-8.85-.06-15.85 3.19-21.93 9.28-2.2 2.2-4.52 4.44-7.19 5.96-1.22.7-4.23.36-5.02-.63-8.7-10.87-20.82-17.18-31.88-24.98-7.95-5.61-15.06-12.46-22.23-19.1-2.31-2.14-3.34-5.61-5.43-8.07-5.37-6.34-10.89-12.58-16.58-18.63-2.98-3.17-7.61-2.98-11.36.29-8.14 7.11-14.41 15.72-19.67 25.11-1.6 2.86-1.31 4.62 2.37 5.09 3.86.49 7.67 1.67 11.53 1.78 8.85.27 17.71-.06 26.56.23 1.44.05 2.81 2.06 4.22 3.17-1.26 1.26-2.36 3.35-3.8 3.62-5.45 1-11 1.53-16.54 2.01-5.59.49-11.22.49-16.79 1.13-4.43.51-7.28-1.45-9.46-4.86-2.45-3.84-5.7-3.99-9.31-2.08-1.72.91-3.35 2.09-4.77 3.42-7.18 6.74-13.85 14.11-21.51 20.25-12.87 10.32-26.2 20.08-39.68 29.58-2.81 1.98-7.12 2.07-10.8 2.56-8.76 1.17-17.58 1.84-26.32 3.13-4.73.7-7 4.03-6.67 8.86.61 8.87 2.07 17.76 1.69 26.58-.25 5.76-2.34 11.82-5.06 16.98-2.51 4.76-9.38 4.42-13.81.93-6.09-4.79-6.53-11.67-6.7-18.28-.39-15.15-.13-30.32-.12-45.49 0-.99-.15-2.1.21-2.96 3.82-9.05.06-18.27.53-27.41.34-6.48-.76-13.11-1.87-19.56-.91-5.26-1.9-10.86-4.51-15.35-2.21-3.81-6.65-6.43-10.36-9.24-1.71-1.31-4.05-1.78-7.51-3.19zm63.85 12.04c-1.5 0-3.02-.19-4.49.03-9.12 1.4-16.69 2.3-15.87 16.37.72 12.52.96 25.08 2.18 37.55.65 6.66 1.62 9.65 9.78 9.09 3.99-.28 8.03.2 12-.18 1.78-.17 3.97-1.18 5.06-2.55 5.07-6.31 6.36-13.85 5.76-21.66-.69-8.97-2.23-17.89-2.66-26.86-.48-9.89-1.98-11.79-11.76-11.79z"/></g></svg>