<svg enable-background="new 0 0 400 400" viewBox="0 0 400 400" xmlns="http://www.w3.org/2000/svg"><path d="m5.17 384 .55-.58c.85.61 1.65 1.24 2.4 1.87l-.59.64c-.83-.73-1.62-1.38-2.36-1.93m1.22 9.53-.82-.34c.71-1.76 1.37-3.64 1.98-5.63.24.13.5.25.76.36-.6 1.67-1.24 3.54-1.92 5.61m-.5-13.5.57-.54c.56.44 1.31 1.06 2.26 1.87l-.64.64c-.68-.66-1.41-1.32-2.19-1.97m3.25.46h2.24v-1.36h.77v1.36h4.57v-1.36h.76v1.36h2.28v.69h-2.28v1.84h-2.64v1.26h4.18v2.64h-4.21c0 .45-.02.86-.05 1.21h4.32v.69h-4.38c-.04.34-.1.75-.19 1.22h5.15v.69h-4.82c.87 1.19 2.51 1.92 4.93 2.19-.17.31-.3.57-.37.76-2.77-.49-4.52-1.41-5.26-2.76-.56 1.26-2.3 2.23-5.24 2.9-.12-.24-.26-.48-.43-.72 2.73-.55 4.38-1.34 4.96-2.38h-4.38v-.69h4.65c.1-.38.17-.79.21-1.22h-4.32v-.69h4.4c.03-.34.05-.75.05-1.21h-4.2v-2.64h4.23v-1.26h-2.69v-1.84h-2.24zm1.46 4.46v1.29h3.45c.01-.4.02-.57.01-.53v-.32-.45h-3.46zm1.55-2.59h4.57v-1.19h-4.57zm6.11 2.59h-3.42v.77c-.01.19-.01.37-.02.53h3.44v-1.29z" fill="#fcfbfa"/><path d="m32.63 379.16h.82v1.98h3.54v7.89h1.46v.78h-14.37v-.78h1.46v-7.89h3.54v-1.98h.82v1.98h2.73zm-3.49 11.48.5.73c-1.61.82-3.28 1.63-5 2.41-.13-.27-.28-.55-.44-.82 1.75-.72 3.4-1.49 4.94-2.32m-2.78-5.55h2.73v-3.18h-2.73zm0 3.95h2.73v-3.2h-2.73zm3.54-3.95h2.73v-3.18h-2.73zm0 3.95h2.73v-3.2h-2.73zm7.89 4.68c-1.84-.92-3.51-1.7-5.02-2.32l.45-.73c1.89.8 3.57 1.55 5.04 2.23zm-1.62-11.81h-2.73v3.18h2.73zm-2.73 7.13h2.73v-3.2h-2.73z" fill="#fcfbfa"/><g fill="#010102"><path d="m163.5 273.02h40.17c1.5 0 3.15-.42 4.48.06 8.85 3.18 15.59-.46 21.68-6.41 3.45-3.37 7.14-3.41 11.25-1.19 2.71 1.46 5.58 2.72 8.51 3.67 1.48.48 3.24.08 5.11-.92-9.41-5.51-18.82-11.03-28.23-16.54.33-.74.66-1.49.99-2.23 9.67 1.91 19.34 3.86 29.02 5.72 5.43 1.04 11.06 1.41 16.27 3.08 2.47.79 5.2 3.61 6.02 6.1 1.42 4.28-.21 7.85-5.62 8.05-2.94.11-6.05.85-8.78.13-4.62-1.22-6.91-.16-8.08 4.6-.94 3.83-3.63 7.33-4.06 11.15-.64 5.74-.81 11.8.32 17.42 1.71 8.57-5.75 19.18-11.75 21.89-4.11 1.85-11.1-2.22-12.8-7.09-2.83-8.14-3.36-8.26-12.05-7.55-10.85.89-21.72 1.51-32.6 2-10.63.48-11.19 2.72-12.47 9.68-.54 2.93-1.99 5.45-5.92 5.45-3.69 0-6.18-1.35-6.91-4.88-.66-3.18-.74-6.49-1.01-9.74-.1-1.22-.03-2.45 0-3.68.18-7.97.62-15.95.42-23.92-.06-2.51-1.42-5.26-2.98-7.3-.52-.68-3.7.08-5.3.9-5.37 2.75-10.49 5.97-15.86 8.71-2.68 1.37-5.68 2.11-8.54 3.13-.26-.35-.53-.7-.79-1.05 6.68-7.59 13.02-15.51 20.15-22.65 4.21-4.22 9.94-6.89 14.41-10.9 2.1-1.89 3.69-5.2 3.98-8.03.4-3.77-3.36-4.54-6.19-4.55-4.58-.01-9.16.86-13.76 1.05-3.85.16-7.86.41-11.52-.5-1.41-.35-2.48-3.74-2.8-5.89-.11-.7 2.6-2.61 4.05-2.65 9.69-.24 19.4.12 29.09-.21 6.7-.23 13.42-1 20.05-2.02 5.02-.78 8.87-10.62 5.92-14.81-.78-1.12-2.71-1.87-4.17-1.99-3.64-.28-7.36-.42-10.98-.03-10.75 1.14-21.46 2.7-32.21 3.79-4.46.45-8.99.07-13.49.16-6.53.12-12.08 3.76-14.2 9.34-.43 1.15-1.12 2.75-.67 3.59 3.28 6.08.95 12.48 1.32 18.7 1.09 18.13 2.16 36.26 2.99 54.4.35 7.67.24 15.38-.03 23.06-.06 1.7-1.46 3.48-2.58 4.98-1.76 2.36-4.01 4.38-5.68 6.8-1.8 2.6-3.13 5.83-7.04 5.04-3.97-.8-6.43-3.99-6.46-7.62-.1-11.43.52-22.86.71-34.29.04-2.43-.82-4.87-.76-7.29.1-4.44 1.08-8.9.8-13.3-1.1-17.25-2.09-34.52-4.01-51.69-1.45-13.02-2.05-12.95-10.91-21.09 4.11-1.22 8.05-3.21 12.07-3.37 4.77-.19 9.84.52 14.36 2.08 4.89 1.69 9.38 3.88 14.64 1.76.87-.35 1.98-.06 2.98-.12 17.63-1 35.26-1.97 52.89-3.05 2.26-.14 4.5-.78 6.73-1.27 2.91-.63 4.64-2.3 4.33-5.47-.65-6.69-1.11-13.41-2.11-20.05-.91-5.97-5.91-4.31-9.53-4.03-8.99.7-17.93 1.95-26.9 2.84-10.78 1.08-21.58 1.92-32.35 3.07-3.51.37-5.99 2.01-6.32 6.24-.18 2.26-1.21 5.31-2.89 6.42-3.03 1.99-7.03 4.07-10.28 3.63-2.17-.3-5.19-4.83-5.34-7.6-.61-11.49-.04-23.04-.36-34.56-.18-6.52-1.18-13.03-1.9-19.53-.3-2.69-.84-5.36-1.31-8.22 11.13-1.91 19.81 2.84 28.45 7.43.78.41 1.2 2.83.79 3.94-1.81 4.88-4.23 9.54-5.92 14.45-.88 2.55-1.06 5.49-.9 8.22.25 4.11 3.6 5.37 6.94 5.44 9.99.22 20 .13 29.99.01 1.33-.02 2.65-.9 3.8-1.32.05-.76.22-1.26.07-1.4-7.65-7.25-2.77-15.83-2.57-23.92.25-9.95.69-19.92.49-29.86-.08-4.06-6.39-6.52-12.04-5.32-2.87.61-5.78 1.98-8.58 1.76-9.4-.74-18.24 1.12-26.93 4.43-7.24 2.75-14.54 5.34-21.86 7.84-6.41 2.18-7.46 1.4-9.72-4.71-2.7-7.28-5.81-14.41-9.25-22.86 4.28.65 8.06.42 11.05 1.84 8.51 4.03 17 2.25 25.6 1.08 6.65-.91 13.32-1.75 20-2.44 3.83-.4 7.47-.06 10.69 2.75 1.09.95 3.36.94 5.03.75 6.32-.71 12.6-2.21 18.92-2.44 17.25-.63 34.53-.74 51.79-1.11 12.77-.28 25.53-.65 38.3-.99 12.43-.33 24.87-.87 37.3-.89 4.66-.01 9.4.87 13.97 1.92 6.1 1.41 9.84-2.67 13.83-5.63 10.8-8.02 8.81-7.64 21.57-.33 2.68 1.53 5.01 3.65 7.54 5.46 4.89 3.51 4.35 8.65 3.77 13.56-.4 3.38-4.09 4.52-7.83 3.46-7.16-2.02-14.41-3.75-21.65-5.5-1.1-.26-2.32.02-3.49.02-2.77.01-5.54 0-8.94 0-1.39 4.13 1.04 7.23 8.34 10.5 2.94 1.31 6.28 1.7 9.36 2.72 8.19 2.72 10.38 9.25 4.14 15.14-7.07 6.68-6.02 14.15-4.97 22.3 1.71 13.21.15 25.49-12.51 33.34-1.61 1-3.9.88-6.33 1.38.05.15.48 1.51.91 2.85-11.17 4.22-15.99.76-16.86-12.01-.41-6.08-2.82-8.47-9.01-8.27-18.54.58-37.07 1.27-55.6 2.02-1.73.07-3.43.83-4.35 1.07-.71 8.09-1.7 15.65-1.8 23.23-.03 1.85 2.48 4.48 4.46 5.43 2.37 1.14 5.41 1.14 8.17 1.16 13.19.1 26.39.41 39.56-.05 15.92-.55 31.72-2.26 45.87-10.63 4.4-2.6 7.78-.53 11.28 1.79 2.04 1.35 4 3.05 6.26 3.78 10.35 3.37 9.6 10.3 5.78 16.47-4.82 7.77-6.19 15.67-4.52 24.25 3.04 15.6 4.54 31.29 3.94 47.19-.17 4.49-.28 9.01.02 13.49 1.02 15.29-6.33 27.14-15.86 37.84-3.61 4.05-8.3 7.4-13.07 10.04-2.94 1.63-6.96 1.69-10.51 1.77-3.79.09-6.34-1.45-7.84-5.77-1.43-4.12-5-7.47-7.36-11.32-1.01-1.66-1.34-3.73-1.98-5.62 2.05-.46 4.1-1.29 6.15-1.28 2.76.02 5.5.74 8.26 1.07 4.61.56 7.94-2.28 8.15-6.91.07-1.5-.01-3 .02-4.5.33-18.43.61-36.87 1.03-55.3.13-5.77 1.18-11.57.84-17.3-.55-9.32-1.71-18.62-3.04-27.86-.42-2.92-2.22-5.23-6.13-5.19-16.16.17-32.33-.14-48.49.16-7.88.15-15.73 1.25-23.6 1.95-.62.06-1.29.3-1.82.65-5.09 3.31-2.69 8.5-2.45 12.69.11 1.98 3.75 5.29 5.87 5.35 9.42.27 18.88-.19 28.28-.91 2.58-.2 5.12-2.05 7.5-3.44 5.86-3.42 18.41.47 20.9 6.72.48 1.2.83 3.49.27 3.86-1.21.82-3.06 1.09-4.6.96-5.87-.51-11.74-1.91-17.59-1.8-21.04.37-42.07 1.14-63.1 1.96-3.87.15-7.77 1-11.53 2.01-4.16 1.12-5.34 4.07-2.52 7.06 4.15 4.39 1.46 6.4-1.94 8.93-3.42 2.55-6.59 5.45-9.74 8.34-.71.69-.9 1.92-1.66 3.64zm57.66-120.12c-3.04 3.56-5.95 6.72-8.53 10.12-.91 1.19-1.74 3.31-1.26 4.42.42.95 2.76 1.52 4.23 1.49 9.63-.19 19.25-.58 28.88-.92 8.93-.32 17.86-.73 26.79-.99 8.09-.23 14.18-3.75 14.61-9.4.96-12.67 1.68-25.37 1.99-38.07.11-4.28-1.58-8.85-6.05-10.46-6.34-2.28-13.08-3.33-19.67-.89-1.06.39-2.32 3.65-1.92 4.08 3.45 3.61.98 5.92-1.37 8.38-1.6 1.68-3.34 3.26-4.74 5.1-3.91 5.11-2.71 11.2-3.23 17.03-.41 4.63-1.3 9.37-2.92 13.71-1.94 5.2-4.64 5.6-9.22 2.8-4.3-2.63-6.87-6.1-7.91-11.19-1.31-6.35-8.54-9.32-14.77-6.64-2.07.9-2.89 2.01-1.09 4.03 2.06 2.31 3.99 4.76 6.18 7.4zm-30.65-16.89c9.66-.18 19.17-.13 28.84-2.61 8.95-2.29 12.54-4.46 13.78-14.87 1.17-9.82-3.76-11.87-12.37-11.44-6.91.34-13.96 1.54-20.71.61-10.33-1.42-20.21.25-30.18 2.02-1.71.3-3.18 1.95-4.76 2.98 1.15 1.45 2.01 3.42 3.5 4.25 4.37 2.44 4.04 5.77 2.49 9.56-.37.91-.76 1.82-1.15 2.72-2.2 4.99-1.16 6.73 4.1 6.77 5.49.03 10.98 0 16.46.01zm34.85 156.94c-.46-3.07-.56-6.24-1.47-9.17-1.09-3.48-2.97-6.27-7.6-5.81-11.77 1.17-23.55 2.28-35.36 2.94-8.87.5-8.88.17-9.97 9.17-.1.8-.5 1.55-.68 2.34-2.43 10.21 2.76 15.82 13.09 14.6 10.26-1.22 20.58-1.85 30.84-3.07 11.21-1.34 11.04-2 11.15-11zm-66.5-122.95c3.93 0 7.09-.13 10.23.04 3.1.16 6.18.9 9.27.88 3.34-.02 6.81-.79 7.12-4.99.38-5.11.4-10.26.2-15.37-.05-1.19-1.36-2.75-2.51-3.4-5.15-2.91-13.14-.3-16.22 5.05-2.48 4.32-5.12 8.55-7.45 12.95-.63 1.21-.41 2.86-.64 4.84z"/><path d="m216.73 64.04c1-.26 2.83-.17 3.54-1.02 3.05-3.66 6.77-4.91 11.47-5.64 4.12-.64 8.07-3.34 11.76-5.64 8.37-5.22 11.65-5.45 18.01 1.46 5.6 6.09 9.9 13.14 8.02 23.27-2.94-.71-6.16-.8-8.62-2.21-5.94-3.41-12.07-4.79-18.88-4.32-12.67.87-25.38 1.25-38.04 2.17-9.85.71-19.67 1.91-29.5 2.89-.66.07-1.45-.08-1.95.24-7.84 5.05-17.16 3.31-25.64 5.5-1.31.34-3.86-1.5-4.83-2.99-2.65-4.07-4.85-8.43-7.01-12.79-.56-1.14-.32-2.67-.45-4.03 1.16.01 2.33.02 3.49.02 10.19.02 20.38.05 30.57.06 5.83.01 11.68-.3 17.49.05 7.22.44 14.05-.81 20.69-3.49 1.05-.42 2.13-1.06 3.21-1.09 2.38-.07 4.78.19 7.16.32-.13 2.12-.28 4.23-.49 7.24z"/></g></svg>