<svg enable-background="new 0 0 400 400" viewBox="0 0 400 400" xmlns="http://www.w3.org/2000/svg"><path d="m5.17 384 .55-.58c.85.61 1.65 1.24 2.4 1.87l-.59.64c-.83-.73-1.62-1.38-2.36-1.93m1.22 9.53-.82-.34c.71-1.76 1.37-3.64 1.98-5.63.24.13.5.25.76.36-.6 1.67-1.24 3.54-1.92 5.61m-.5-13.5.57-.54c.56.44 1.31 1.06 2.26 1.87l-.64.64c-.68-.66-1.41-1.32-2.19-1.97m3.25.46h2.24v-1.36h.77v1.36h4.57v-1.36h.76v1.36h2.28v.69h-2.28v1.84h-2.64v1.26h4.18v2.64h-4.21c0 .45-.02.86-.05 1.21h4.32v.69h-4.38c-.04.34-.1.75-.19 1.22h5.15v.69h-4.82c.87 1.19 2.51 1.92 4.93 2.19-.17.31-.3.57-.37.76-2.77-.49-4.52-1.41-5.26-2.76-.56 1.26-2.3 2.23-5.24 2.9-.12-.24-.26-.48-.43-.72 2.73-.55 4.38-1.34 4.96-2.38h-4.38v-.69h4.65c.1-.38.17-.79.21-1.22h-4.32v-.69h4.4c.03-.34.05-.75.05-1.21h-4.2v-2.64h4.23v-1.26h-2.69v-1.84h-2.24zm1.46 4.46v1.29h3.45c.01-.4.02-.57.01-.53v-.32-.45h-3.46zm1.55-2.59h4.57v-1.19h-4.57zm6.11 2.59h-3.42v.77c-.01.19-.01.37-.02.53h3.44v-1.29z" fill="#fcfbfa"/><path d="m32.63 379.16h.82v1.98h3.54v7.89h1.46v.78h-14.37v-.78h1.46v-7.89h3.54v-1.98h.82v1.98h2.73zm-3.49 11.48.5.73c-1.61.82-3.28 1.63-5 2.41-.13-.27-.28-.55-.44-.82 1.75-.72 3.4-1.49 4.94-2.32m-2.78-5.55h2.73v-3.18h-2.73zm0 3.95h2.73v-3.2h-2.73zm3.54-3.95h2.73v-3.18h-2.73zm0 3.95h2.73v-3.2h-2.73zm7.89 4.68c-1.84-.92-3.51-1.7-5.02-2.32l.45-.73c1.89.8 3.57 1.55 5.04 2.23zm-1.62-11.81h-2.73v3.18h2.73zm-2.73 7.13h2.73v-3.2h-2.73z" fill="#fcfbfa"/><g fill="#010102"><path d="m284.53 80.91c6.04 8.93 4.75 12.55-4.86 19.93-6.12 4.71-11.73 10.12-17.33 15.47-1.25 1.2-1.5 3.44-2.21 5.2 1.81.5 3.64 1.46 5.44 1.41 8.67-.21 15.91-4.32 22.9-8.93 5.31-3.5 10.37-7.41 15.89-10.51 1.86-1.05 5.25-1.06 7.16-.06 6.92 3.61 13.68 7.61 20.17 11.95 3.43 2.3 3.35 5.73.52 8.92-1.85 2.09-3.76 4.16-5.32 6.46-.94 1.38-1.8 3.16-1.82 4.77-.14 13.66-.08 27.32-.08 40.98 0 4.85-.17 9.72.03 14.56.55 13.36 1.79 26.72 1.7 40.07-.05 7.86-1.16 16.18-9.22 20.85-5.1 2.96-6.48 8.38-8.99 13.04-3.18 5.9-3.16 5.97 2.73 9.64 6.13 3.82 12.25 7.65 18.49 11.27 7.78 4.51 11.61 11.95 10.24 20.51-.88 5.52-11.3 15.77-17.26 16.05-2.06.09-5.1-1.89-6.23-3.79-7.34-12.29-14.44-24.74-21.25-37.32-1.97-3.64-3.38-7.84-3.86-11.93-.24-2.05 1.61-5.21 3.46-6.5 5.92-4.13 5.18-10.2 5.47-15.97.14-2.64-1.26-4.24-4.35-3.98-8.69.74-17.38 1.63-26.09 1.87-6.75.18-13.52-.7-20.29-.77-3.59-.03-7.33.19-10.71 1.23-2.05.63-3.7 2.9-5.29 4.66-4.78 5.3-9.26 10.9-14.23 16.01-2.57 2.64-5.55.85-6.11-1.95-1.76-8.8-4.06-17.74-3.93-26.6.16-10.71 2.66-21.39 3.98-32.1.74-6.03 1.26-12.09 1.67-18.15.76-11.19 1.84-22.39 1.9-33.59.05-9.36-1.37-18.71-1.72-28.08-.11-2.98 1.07-6.03 1.78-9.02.79-3.31 3.51-2.99 5.58-2.15 2.83 1.15 5.66 2.71 7.95 4.71 8.61 7.52 13.46 4.39 17.24-3.25 4.34-8.75 6.37-18.67 9.16-28.15.28-.96-.78-3.06-1.75-3.53-6.23-3.01-12.59-4.53-19.79-3.49-7.98 1.15-16.15 1.07-24.25 1.29-4.04.11-5.76-3.39-6.54-6.29-.81-3.01-.14-6.5.35-9.71.08-.51 2.63-.97 4.01-.9 16.63.92 33.25 2.39 49.9 2.77 10.68.24 21.4-1.06 32.09-1.75 5.58-.36 11.24-.44 16.71-1.44 8.9-1.63 15.47-7.47 21.77-13.49 4.38-4.19 6.86-4.32 11.23-.04 4.52 4.43 9.22 8.72 13.31 13.53 1.69 2 2.79 5.27 2.53 7.79-.11 1.08-4.33 2.3-6.75 2.47-5.3.37-10.67-.14-15.98.19-5.38.33-10.7 1.36-16.07 1.87-8.18.78-16.39 1.29-24.56 2.11-2.76.28-5.45 1.17-8.52 1.86zm-12.15 106.94c3.15 1.92 5.48 3.41 7.87 4.8 2.75 1.61 3.38 3.67 1.73 6.48-2.34 3.97-6.39 3.49-10.01 3.82-8.85.81-17.76 1.04-26.56 2.19-8.03 1.05-11.73 4.34-11.37 13.54.12 3.1.43 6.24 1.14 9.24.28 1.18 1.82 2.74 2.97 2.91 6.48.93 13.03 2.11 19.53 2.02 11.04-.15 22.07-1.08 33.08-1.95 2.1-.17 5.25-1.07 5.92-2.55 2.26-4.94 4.96-10.26 5.08-15.49.53-23.31.25-46.63.22-69.95-.01-5.28-2.12-9.64-7.23-11.44-3.17-1.12-6.78-1.51-10.16-1.38-11.54.43-23.05 1.52-34.59 1.84-12.54.34-19.29 10.26-14.49 22.03.41 1.02 1.18 2.54 1.95 2.65 5.77.82 11.58 1.8 17.39 1.84 6.05.04 12.1-1.23 18.16-1.3 2.67-.03 5.36 1.5 8.05 2.32-.02.48-.04.97-.07 1.45-1.37.73-2.69 1.88-4.14 2.1-5.49.83-11.02 1.4-16.54 1.98-5.87.62-11.85.66-17.61 1.81-9.18 1.84-9.68 2.85-9.7 12.09 0 1-.01 2 0 3 .07 7.6 4.5 12.11 11.9 12.11 2.83 0 5.89.7 8.45-.14 6.43-2.12 14.85 2.38 19.03-6.02z"/><path d="m68.49 80.45c5.39 2.13 10.8 3.61 15.46 6.37 2.38 1.41 3.6 4.99 5.01 7.77 1.47 2.91 1.23 7.11 5.86 7.38 4.5.26 8.36-1.39 11.13-4.91 2.92-3.71 5.47-7.71 8.24-11.54 2.68-3.72 5.61-5.09 10.38-2.78 5.66 2.73 10.41 6.48 11.68 12.35 1.06 4.92-.09 10.37-.59 15.55-.72 7.5-1.75 14.97-2.64 22.45-1.29 10.9-2.68 21.78-3.83 32.7-.6 5.72.26 11.84-1.5 17.13-1.46 4.4-5.4 8.27-8.97 11.59-2.34 2.17-6.43-.76-6.65-4.57-.21-3.49-.08-7-.04-10.49.04-4.29-2.02-6.58-6.33-6.38-4.93.23-9.91.36-14.77 1.15-6.12.98-8.5 5.07-8.97 12.53-.79 12.63-1.87 25.25-3.03 37.86-.17 1.81-1.09 3.86-2.31 5.21-3.33 3.72-6.79 7.37-10.64 10.53-1.51 1.24-4.66 2.02-6.17 1.25s-2.8-3.81-2.64-5.72c1.05-12.91 2.71-25.77 3.81-38.68 1.51-17.71 2.91-35.44 3.98-53.19 1.23-20.28 2.06-40.59 3.07-60.89.02-.67.21-1.29.46-2.67zm18.51 58.52c0 5.33.05 10.67-.02 16-.04 2.93 1.13 4.42 4.14 5.11 8.07 1.85 13.71-.79 15.66-9.54 1.95-8.73 3.05-17.84 3.02-26.78-.04-13.4-2.89-12.71-11.67-11.76-7.27.79-10.37 3.27-11.06 11.48-.42 5.13-.07 10.32-.07 15.49z"/><path d="m99.85 229.2c2.52-3.37 4.71-7.07 7.61-10.06 19.06-19.62 37.17-40.04 53.13-62.29 1.18-1.65 1.4-3.96 2.49-5.69 3.53-5.62 7.18-11.16 10.94-16.63 2.84-4.14 6.42-7.84 8.76-12.23 2.25-4.24 5.09-3.4 7.4-1.37 5.97 5.24 9.62 10.83 3.73 19.04-5.24 7.31-11.09 14.19-16.65 21.27-.7.89-1.32 1.87-1.85 2.88-4.49 8.6-4.2 9.8 2.13 17.05 3.54 4.05 6.4 8.71 9.98 12.73 4.6 5.17 3.82 10.68 1.01 15.85-6.22 11.46-12.73 22.79-19.55 33.91-8.26 13.46-18.27 25.56-29.62 36.6-5.06 4.92-9.04 10.96-14.14 15.83-6.53 6.23-13.57 11.96-20.63 17.6-5.74 4.57-11.83 8.7-17.78 13.01-10.9 7.9-21.78 15.9-32.81 23.68-2.44 1.72-5.42 2.67-9.03 4.4.46-6.71 4.98-9.43 8.48-12.44 11.18-9.64 22.71-18.87 34.04-28.34 5.18-4.33 10.85-8.29 15.16-13.38 9.83-11.61 19.27-23.58 28.31-35.82 11.47-15.52 21.52-31.96 29.43-49.63 2.93-6.55 6.37-12.94 8.52-19.74 1.06-3.35 1.01-8.33-.82-10.99-2.14-3.1-6.73-1.84-9.79.56-6.83 5.36-13.63 10.78-20.18 16.47-9.81 8.52-19.28 17.42-29.15 25.87-2.11 1.8-5.31 2.32-8 3.43-.38-.54-.75-1.06-1.12-1.57z"/><path d="m165.43 344.95c2.71-3.33 5.22-6.84 8.15-9.97 11.88-12.7 24.41-24.84 35.69-38.06 8.33-9.77 15.09-20.88 22.56-31.38.94-1.33 1.88-2.69 3.02-3.85 5.62-5.74 7.37-5.36 10.98 1.61 1.94 3.74 4.66 7.08 6.69 10.78 3.16 5.74 2.88 8.52-2.04 12.86-11.47 10.11-22.71 20.57-34.92 29.71-13.41 10.03-27.76 18.83-41.85 27.92-1.99 1.28-4.84 1.24-7.29 1.81-.34-.48-.66-.96-.99-1.43z"/><path d="m148.5 124.15c1.31-3.04 2.49-6.14 3.95-9.1 7.55-15.32 15.8-30.34 16.67-48.04.19-3.96 1.6-7.93 2.89-11.74.92-2.71 2.7-3.72 5.55-1.51 3.72 2.89 7.83 5.26 11.66 8.02 3.09 2.23 4.07 5.33 1.82 8.57-11.91 17.14-23.9 34.22-35.99 51.22-1.17 1.65-3.24 2.67-4.9 3.98-.55-.46-1.1-.93-1.65-1.4z"/></g></svg>