<svg enable-background="new 0 0 400 400" viewBox="0 0 400 400" xmlns="http://www.w3.org/2000/svg"><path d="m102.46 303.97c2-2.65 3.69-5.62 6.05-7.88 9.32-8.93 18.95-17.53 28.29-26.44 12-11.45 22.85-23.9 31.88-37.86 1.77-2.73 3.36-5.63 4.57-8.64.6-1.5.84-4 0-4.99-.83-.98-3.54-1.31-4.88-.72-5.04 2.23-9.95 4.81-14.76 7.52-12.37 6.97-24.59 14.19-37.04 21.01-1.55.85-4.11-.13-6.2-.26.78-1.96 1.03-4.61 2.46-5.74 2.36-1.86 6-2.17 8.2-4.13 7.66-6.82 17.21-10 26.05-14.55 1.54-.79 2.61-2.53 3.82-3.9 4.18-4.74 8.26-9.57 12.52-14.25 4.95-5.44 9.96-10.83 15.1-16.1 6.21-6.38 12.73-12.46 18.81-18.95 4.31-4.61 8.13-9.68 12.59-15.06-3.62-2.08-5.62-2.79-9.6-1.37-6.06 2.16-8.76 6.77-12.84 10.7-6.87 6.62-16.07 7.35-19.81-3.31-.52-1.48.32-3.4.27-5.1-.26-9.59-.14-19.22-1.07-28.74-.64-6.55-3.27-7.05-8.43-3.25-4.19 3.09-8.53 6.27-13.3 8.19-8.02 3.23-8.69 9.79-9.09 16.76-.14 2.49.01 5-.03 7.5-.32 18.1-.65 36.2-1 54.3-.1 5.03-8.68 12.14-14.74 12.29-5.09.12-10.9-5.87-11.24-11.63-.09-1.5.52-3.34-.16-4.42-.97-1.56-2.94-3.74-4.28-3.61-4.64.45-9.24 1.63-13.77 2.83-3.75.99-6.49 3.58-6.68 7.5-.22 4.58.11 9.24.72 13.8 1.23 9.2-.36 18.17-2.24 27.01-1.13 5.32-8.77 8.86-14.26 7.61-4.54-1.04-6.28-4.25-6.36-8.68-.31-16.6-.6-33.2-1.01-49.8-.2-7.94-.67-15.87-.97-23.8-.69-17.89-.81-35.82-2.22-53.65-.81-10.24-1.77-20.83-8.71-29.59-1.28-1.61-1.81-6.09-.88-6.76 3.21-2.32 7.65-5.52 10.81-4.8 7.15 1.64 14.28 4.65 20.59 8.47 12.81 7.75 18.71 7.54 29.36-2.92 1.9-1.87 3.66-3.91 5.7-5.61 4.43-3.69 8.64-3.01 12.1 1.35 3.57 4.51 7.27 8.94 11.22 13.11 7.08 7.47 5.43 10.03 1.3 17.78-.23.42-.75.68-1.02 1.09-2.1 3.15-3.87 7.08-.96 9.86 2.92 2.79 5.77-.54 7.8-2.76 3.49-3.82 6.66-7.92 9.95-11.92 4.59-5.57 9.57-10.88 13.6-16.84 2.54-3.75 3.49-8.55 5.44-12.75 1.36-2.93 3.33-5.56 4.78-8.45 4.45-8.83 8.78-17.72 13.17-26.58.8-1.62 1.54-3.28 2.49-4.8 3.27-5.26 2.47-8.09-3.08-11.26-2.26-1.29-4.27-3.03-6.54-4.3-3.56-1.99-2.13-3.96-.05-5.76 7.47-6.46 17.26-7.76 25.55-2.8 5.86 3.51 11.26 7.79 16.81 11.81 3.98 2.89 5.12 6.86 4.88 11.73-.34 7.23 2.44 9.14 9.6 7.75 4.97-.97 10.28-.76 14.96-2.43 4.42-1.58 8.77-4.35 12.15-7.64 4.6-4.47 7.19-11.15 14.33-12.7 1.53-.33 3.76-.68 4.73.12 6 4.95 12.88 9.1 15.29 17.4 1.52 5.24-.64 9.13-4.18 11.89-8.19 6.39-16.84 12.2-25.3 18.24-.13.1-.31.14-.44.24-6.98 5.95-14.01 11.85-20.89 17.91-1.1.97-2.46 3.32-2.04 3.95.86 1.31 2.88 2.73 4.33 2.63 11.29-.73 23.09.07 30.64-11.42 3.45-5.25 5.95-5.18 11.79-2.45 4.25 1.98 8.8 3.37 12.92 5.59 4.32 2.33 4.67 6.07 2.75 10.3-1.76 3.9-3.4 8.22-3.54 12.4-.28 8.58.57 17.19.78 25.79.12 4.96-1.51 5.75-6.24 4.94-3.93-.67-8.07-.53-12.07-.21-5.87.46-11.79 1.04-17.52 2.29-2.92.64-7.25 2.32-7.9 4.45-1.56 5.16-2.39 11.02-1.57 16.3 1.16 7.5 8.74 10.4 17.6 8.62 7.52-1.51 15.16-2.53 22.79-3.34 11.05-1.17 15.65-8.2 18.07-18.05 1.19-4.85 1.59-10.39 6.35-13.79 1.86 7.65 3.42 15.1 5.55 22.39.98 3.33 2.74 6.57 4.74 9.44 4 5.76 3.56 13.06-1.85 17.36-1.67 1.33-4.06 2.19-6.2 2.4-11.94 1.19-23.92 2.04-35.87 3.16-5.7.53-11.47.95-17.03 2.19-8.53 1.9-9.44 6.37-3.27 12.89 1.75 1.85 2.91 4.27 4.53 6.72-2.42.98-3.99 1.18-4.92 2.06-5.82 5.48-11.65 10.97-17.11 16.79-1.56 1.67-1.91 4.47-2.82 6.75 2.21.85 4.46 2.54 6.61 2.41 6.71-.39 13.14-1.62 18.13-7.14 5.34-5.91 5.14-8.55 15.88-2.77 3.42 1.85 7.16 3.15 10.45 5.19 5.23 3.25 6.5 10.46 4.85 16.17-1.79 6.19-2.88 12.8-2.88 19.22 0 6.34-1.38 9.49-7.98 10.41-8.76 1.22-17.57 2.06-26.35 3.07-2.77.32-5.79.1-8.21 1.2-1.87.85-3.53 3.15-4.33 5.18-3.01 7.68-3.23 15.62-1.46 23.68 1.13 5.15 4.89 7.12 9.37 6.79 6.31-.47 12.65-1.53 18.8-3.03 7.7-1.88 15.11-4.94 22.84-6.65 10.42-2.3 15.36-9.6 19.08-18.55 2.22-5.35 4.75-10.57 7.13-15.84.56.01 1.12.03 1.68.04 1.04 3.4 2.09 6.8 3.11 10.21 2.41 8.1 4.74 16.22 7.27 24.28.47 1.49 1.69 2.78 2.69 4.07 4.76 6.16 4.09 15.84-1.83 20.92-1.9 1.63-4.47 3.18-6.87 3.4-5.81.54-11.71.13-17.56.38-5.09.21-10.18.68-15.24 1.24-7.16.79-14.28 2.04-21.45 2.61-11.18.9-22.39 1.64-33.6 1.99-10.41.32-18.09-7.68-18.42-17.82-.28-8.37-.9-16.76-2.04-25.05-.79-5.72-6.19-7.03-10.44-2.99-6.62 6.28-12.83 13.06-19.99 18.65-4.79 3.75-9.23 7.32-13.28 12.09-6.9 8.12-15.28 15.11-23.64 21.82-7.48 6-15.71 11.07-23.74 16.36-2.69 1.77-5.68 3.13-8.66 4.39-7.19 3.04-14.38 6.12-21.75 8.68-1.75.61-4.19-.76-6.31-1.21 1.13-1.56 1.92-3.77 3.45-4.57 5.89-3.08 12.07-5.6 18.02-8.59 2.01-1.01 3.67-2.72 5.44-4.17 3.93-3.22 8.03-6.28 11.71-9.77 10.18-9.64 20.24-19.42 30.23-29.26 1.71-1.68 3.06-3.84 4.18-5.98 2.52-4.83 2.05-5.47-3.54-5.5-1.33-.01-2.67 0-4 0-7.18 0-10.22-4.74-9.23-11.97 1.18-8.64 1.55-17.45 1.51-26.18-.02-5.19-4.53-7.64-12.47-3.68-6.48 3.23-11.57 9.17-17.96 12.67-10.12 5.55-18.99 13.63-30.56 16.37-.52-.36-.98-.77-1.44-1.19zm94.55-110.6c3.76 9.92 11.85 15.87 21.17 20.55.53.26 1.4.21 1.97-.03 8.86-3.71 18.22-3.67 27.57-4.08 2.02-.09 4.41-2.24 5.78-4.08 1.63-2.2 1.17-4.72-1.07-6.91-2.7-2.64-5.39-5.42-7.46-8.56-1.73-2.63-3.37-5.79-3.61-8.83-.4-5.04.74-10.18.55-15.25-.24-6.24-4.75-8.38-9.99-5.07-3.17 2-5.97 4.65-8.71 7.24-8.71 8.2-17.31 16.51-26.2 25.02zm-90.01-37.87c0-5.49.13-10.98-.04-16.46-.17-5.43-.22-10.91-1.11-16.24-.59-3.57-1.96-7.34-4.05-10.25-2.85-3.98-7.73-4-12.12-3.29-3.7.6-5.23 3.81-5.6 7.21-.56 5.23-1.06 10.5-1.02 15.76.07 8.75.82 17.49.86 26.23.03 6.75-.87 13.5-.82 20.25.03 3.61.35 7.88 4.86 9.15 8.65 2.43 19.02-5.81 19.03-14.9.02-5.82.01-11.64.01-17.46zm81.14-52.52c11.66 0 21.91.16 32.14-.2 1.29-.04 3.62-2.87 3.5-4.22-.35-3.82-1.59-7.59-2.73-11.3-1.76-5.73-1.46-6.21 4.55-6.26 4.38-.04 8.85.71 12.62-2.68 4.15-3.74 8.72-7.01 12.71-10.9 1.69-1.65 3.82-5.38 3.15-6.36-1.38-1.98-4.59-3.91-6.94-3.78-7.31.4-14.57 1.71-21.83 2.81-1.22.19-2.6.83-3.46 1.7-9.17 9.36-18.53 18.57-27.21 28.38-3.06 3.45-4.36 8.45-6.5 12.81zm53.87 121.98c-2.87-2.67-4.5-5.12-6.73-6-2.41-.95-5.55-1.04-8.11-.43-4.85 1.16-9.4 2.17-14.35.09-1.39-.58-4.44.45-5.47 1.74-6.1 7.64-12.16 15.35-17.57 23.49-3.85 5.79-1.01 10.18 6.04 10.09 4.42-.05 8.94-1.35 13.24-.77 6.68.91 12.5-.93 17.79-4.26 8.63-5.4 7.5-16.54 15.16-23.95zm37.62-105.49c-.21-.03-.42-.07-.63-.1 0-1.5-.22-3.04.04-4.49 1.38-7.76-4.42-12.72-13.09-10.04-4.95 1.53-10.15 2.51-15.31 3.07-10.08 1.1-14.23 7.13-12.15 17.34.73 3.57-.24 7.46-.22 11.21.01 1.69.01 4.1 1.01 4.87 1.04.8 3.35.23 5.02-.13 6.13-1.31 12.24-2.74 18.33-4.22 5.42-1.32 12.29.01 14.91-6.85 1.28-3.33 1.43-7.09 2.09-10.66zm-25.89 163.02c7.45-1.34 14.24-2.36 20.91-3.92 1.56-.36 3.58-2.36 3.89-3.9 1.44-7.19 2.4-14.48 3.43-21.76.47-3.29-1.98-4.23-4.34-3.81-10.41 1.87-20.81 3.82-31.11 6.22-4.43 1.03-7.6 3.79-6.6 9.3.41 2.26.28 4.68.02 6.98-.5 4.41 2.01 6.88 5.47 8.42 2.78 1.23 5.86 1.76 8.33 2.47zm-65.76-157.97c1.34 4.81 2.22 9.81 4.14 14.37 1.89 4.5 7.15 6.87 11.16 4.75 4.18-2.21 7.64-5.79 11.31-8.91.46-.39.41-1.57.36-2.37-.28-4.42-.82-8.83-.91-13.26-.16-8-2.69-10.29-10.5-9.09-11.71 1.8-14.54 4.57-15.56 14.51zm13.32 137.49c-2.15 0-3.67-.15-5.15.03-4.06.49-7.47 2.01-9.13 6.15-1.83 4.57-1.31 9.1 1.01 13.18 1.64 2.87 15.54 3.64 18.52 1.43 3.13-2.32 4.75-10.77 3.64-15.44-1.33-5.58-5.2-5.66-8.89-5.35zm50.72-182.32c1.41 1.43 2.61 3.74 4.26 4.12 3.4.78 5.84-2.96 5.72-7.83-.08-3.24-2.37-2.85-4.53-3.01-4.5-.33-4.41 2.74-5.45 6.72zm-51.96 219.05c-4.96-2.6-8.46-2.03-9.98 1.77-.84 2.1-2.67 4.81.77 6.36 4.04 1.81 6.71-.56 9.21-8.13z" fill="#000001"/><g fill="#fafafb"><path d="m2.6 9.9.8-1c.9.7 1.9 1.4 2.9 2.3l-.9 1.1c-1.1-1-2-1.8-2.8-2.4zm.5 10.6c.9-2.1 1.6-4.3 2.3-6.7.4.2.8.4 1.3.6-.7 2.1-1.5 4.3-2.2 6.6zm.3-15.2.9-.9c1 .8 2 1.6 2.8 2.4l-1 1c-.9-.9-1.8-1.7-2.7-2.5zm12.6-1.2h1.2v1.4h2.7v1.1h-2.7v2.7h-1.2v-.6h-1.8v1.3h4.9v3.8h-1.2v-.5h-3.7c0 .4-.1.9-.1 1.2h5.1v1h-5.2c0 .5-.1.9-.2 1.2h6v1h-5.2c1.1 1.3 2.9 2 5.5 2.2-.4.4-.7.8-.9 1.3-2.9-.5-4.8-1.6-5.7-3.5h-.1c-.8 1.7-2.7 2.9-5.9 3.6-.2-.4-.6-.8-.9-1.1 2.8-.6 4.6-1.4 5.4-2.5h-4.8v-1h5.3c.1-.3.2-.7.2-1.2h-4.9v-1h5c0-.4 0-.8.1-1.2h-3.6v.5h-1.2v-3.8h4.9v-1.3h-1.8v.5h-1.2v-2.7h-2.7v-1h2.7v-1.4h1.2v1.4h4.8zm-6.7 8.3h3.6c0-.4 0-.9 0-1.4h-3.6zm1.9-4.6h4.8v-1.3h-4.7v1.3zm6.7 3.2h-3.7v1.4h3.7v-2.4z"/><path d="m8.7 22.1h1.3v2.2h2.8v-2.2h1.3v2.2h4.1v9.1h1.7v1.3h-17v-1.3h1.7v-9.1h4.1zm.3 13.1.7 1.2c-1.8.9-3.8 1.9-6 2.9-.2-.4-.5-.8-.8-1.3 2.3-1 4.4-1.9 6.1-2.8zm-3.1-6.4h2.8v-3.2h-2.8zm0 4.6h2.8v-3.3h-2.8zm4.1-4.6h2.8v-3.2h-2.8zm0 4.6h2.8v-3.3h-2.8zm3.6 1.9c2.1.9 4.1 1.8 6.1 2.7l-.7 1.4c-2.2-1.1-4.2-2-6.1-2.9zm3.2-9.7h-2.8v3.2h2.8zm-2.7 7.8h2.8v-3.3h-2.8z"/></g></svg>