<svg enable-background="new 0 0 400 400" viewBox="0 0 400 400" xmlns="http://www.w3.org/2000/svg"><path d="m71.95 347.55c2.23-2.39 3.49-4.3 5.24-5.52 8.55-5.97 17.13-11.93 25.92-17.55 4.88-3.12 10.23-5.47 15.28-8.33 1.22-.69 2.1-1.98 3.09-3.03.97-1.03 1.73-2.33 2.86-3.14 7.04-5.02 14.67-9.33 21.11-15.01 9.05-7.98 20.49-12.89 28.02-22.8 5.46-7.19 11.71-13.78 17.47-20.75.72-.87 1.18-2.6.8-3.56-.34-.88-1.93-1.64-3.05-1.79-7.43-.93-12.48-6.69-13.85-14.06-1.48-7.95-.43-15.21 2.83-22.42.57-1.27.31-2.95.31-4.44.02-12.83.01-25.65.01-39.4 1.96.38 3.95.21 5.2 1.09 6.21 4.39 13.12 5.6 20.48 5.09 8.87-.61 17.75-1.16 26.6-1.98 8.14-.76 16.25-1.91 24.38-2.74 2.97-.3 6.01-.48 8.96-.15 5.63.63 9.98-1.16 13.46-5.6 2.55-3.25 7.77-5.44 5.69-10.58-2.1-5.21-7.29-2.49-11.13-2.81-7.41-.62-14.87-1.17-22.29-.98-13.24.33-26.57 2.58-39.66 1.53-13.7-1.11-26.81 2.05-40.22 2.25-2.77.04-5.86-.99-8.29-2.41-4.06-2.37-4.37-6.64-.68-9.29 2.97-2.14 3.62-4.65 3.53-7.97-.42-15.43-.42-30.88-1.14-46.29-.43-9.32-1.99-18.59-2.81-27.9-.17-1.96.69-4 1.2-6.68 6.05 2.06 11.32 4.25 16.79 5.57 2.96.72 6.31.28 9.41-.17 4.49-.66 8.87-2.38 13.36-2.63 12.08-.66 24.2-.55 36.29-1.17 14.48-.75 28.99-1.48 43.37-3.23 4.25-.52 8.54-3.92 12-6.94 5.28-4.61 10.57-5.17 16.08-1.45 8.56 5.78 17.07 11.67 25.14 18.1 4.73 3.77 3.62 4.27-.25 9.1-3.13 3.9-5.18 9.14-6.26 14.1-1.71 7.79-2.28 15.85-3.16 23.81-.31 2.82-.03 5.7-.13 8.55-.12 3.52 2.3 3.56 4.85 4.11 3.4.74 7.4 1.28 9.85 3.41 6.82 5.93 13.05 12.57 19.28 19.15.6.64.06 3.59-.78 4.11-1.54.95-3.71 1.19-5.62 1.2-13.16.09-26.33-.19-39.49.18-4.27.12-8.57 1.58-12.71 2.88-3.19 1.01-3.8 3.6-1.59 6.07 3.27 3.64 6.83 7.03 10.37 10.42 2.02 1.93 4.28 3.59 6.37 5.44 3.11 2.77 6.07 5.18.01 8.51-1.97 1.08-2.89 4.99-3.35 7.76-1.71 10.49-2.77 21.08-4.61 31.54-.73 4.14-.59 7.26 2.8 10.14 3.29 2.8 6.02 6.25 9.3 9.06 2.92 2.49 3.27 5.78 1.95 8.48-.99 2.04-3.84 3.85-6.19 4.42-9.65 2.36-19.5 3.98-27.86 9.94-4.32 3.08-4.26 4.41-.83 8.43 8.99 10.55 20.18 17.4 33.1 22.29 12.71 4.82 24.96 10.89 37.33 16.57 3.63 1.67 7.01 3.91 10.96 6.15-.91.67-1.89 1.92-3.09 2.2-9.9 2.25-16.8 8.81-23.74 15.63-3.46 3.4-7.94 5.78-11.95 8.63-.15-.73-.31-1.45-.46-2.18-2.36-.84-4.77-1.56-7.06-2.56-3.39-1.48-6.95-2.77-9.97-4.83-4.85-3.31-9.4-7.1-13.94-10.85-6.27-5.18-12.66-10.18-16.21-17.95-3.08-6.75-12.59-11.08-19.58-9.16-1.65.45-3.38 2.02-4.27 3.55-7.73 13.22-15.35 26.54-20.13 41.17-2.27 6.94-3.69 14.15-5.72 21.18-.5 1.74-1.86 3.24-2.83 4.84-1.28-1.05-2.75-1.93-3.8-3.17-3.78-4.5-11.79-5.31-16.25-1.24-3.15 2.88-5.26 1.14-5.86-1.66-1.24-5.78-3.95-10.47-7.54-15.08-1.54-1.98-1.9-5.89-1.16-8.45 2.93-10.13 7.06-19.93 9.64-30.13 1.44-5.67 1.47-11.98.75-17.82-.67-5.44-4.59-6.95-9.75-4.96-5.6 2.17-11.18 4.42-16.66 6.89-1.43.64-2.85 2-3.56 3.39-3.9 7.56-10.78 11.41-17.83 15.34-19.53 10.87-38.9 22.03-58.37 33-10.46 5.92-18.22 8.28-25.76 7.54zm113.09-211.38c6.91.67 12.71 1.52 18.53 1.69 4.75.14 9.52-.68 14.29-.79 2.25-.05 4.55.98 6.78.82 16.71-1.2 33.42-2.55 50.12-3.9 7.13-.57 14.52-2.23 16.2-12.91.77-4.86-1.63-8.06-6.62-8.07-13.99-.04-27.97-.16-41.95.07-5.02.08-10.02 1.52-15.03 1.56-9.76.08-19.53-.6-29.29-.49-2.52.03-6.5 1.21-7.25 2.95-2.46 5.73-3.74 11.96-5.78 19.07zm46.69 68.26c8.66-.77 18.38-1.31 27.98-2.69 2.55-.37 7.21.7 7.63-3.72.46-4.82.49-9.85-.37-14.59-.84-4.6-5-5.6-9.23-5.41-14.52.64-29.04 1.62-43.57 1.8-4.71.06-8.43 1.25-9.94 5.27-1.89 5.03-2.88 10.66 1.01 15.45 1.01 1.25 3.02 2.19 4.66 2.35 6.88.68 13.82 1.01 21.83 1.54zm4.58 8.35c-.94 5.52.96 9.05 4.03 12.04 4.14 4.02 8.69 7.65 12.51 11.94 3.87 4.37 6.92 9.46 10.59 14.03 3.88 4.83 9.52 5 14.87 4.05 4.23-.76 6.24-4.54 6.96-8.62.51-2.88.61-5.85.72-8.79.15-4.31-1.42-7.04-6.35-6.43-4.92.61-7.09-1.5-6.66-6.53.38-4.54-1.93-6.6-6.49-6.49-5.48.13-10.98-.03-16.46.05-4 .06-8.02.51-10.21-4.14-.35-.71-2.14-.71-3.51-1.11zm18.04 66.44c-.41-2.23-.73-4.48-1.23-6.69-1.35-5.86-2.47-11.8-4.28-17.52-1.49-4.73-3.53-9.37-5.95-13.7-.87-1.56-3.92-3.28-5.35-2.85-3.01.9-6.14 2.72-8.15 5.08-1.02 1.2.32 4.38.57 6.67.07.66.01 1.33.05 1.99.66 10.84 1.1 21.71 2.18 32.51.24 2.45 2.18 5.89 4.25 6.78 7.41 3.23 17.56-4.15 17.91-12.27zm24.53-212.22c-9.36 0-15.08 5.24-13.8 12.42.83 4.64.95 9.44 2.06 14 .58 2.39 2.36 6.04 4.06 6.32 4.45.74 9.61 1.06 13.63-.57 3.72-1.51 8.04-4.91 5.28-10.8-.45-.96.4-2.49.59-3.77 1.45-9.46-.68-19.12-11.82-17.6zm-71.32 20.41c-.62-5.14-.98-9.06-1.58-12.93-.52-3.37-1.45-6.41-5.88-6.52-4.68-.11-8.66.91-10.09 5.89-2.48 8.62-3.17 17.2-.24 26.05 1.41 4.26 4.01 4.16 7.22 4.1 3.42-.07 7.18.58 8.1-4.29.85-4.45 1.79-8.89 2.47-12.3zm39.92-1.07c-.16-.03-.32-.05-.48-.08 0-1.16-.03-2.32 0-3.48.12-4.12-.48-8.18-4.93-9.59-3.88-1.23-12.04 3.8-13.32 7.48-2.5 7.22 1.55 13.66 2.51 20.46.11.78 2.34 1.6 3.68 1.81 4.82.76 9.3-1.8 10.78-6.53 1.01-3.23 1.2-6.71 1.76-10.07zm61.46 18.68c-.03-.47.05-1-.1-1.45-1.31-3.9-8.13-6.47-11.51-4.19-.6.4-.84 1.94-.64 2.81 1.02 4.48 7.5 5.95 12.25 2.83zm-105.93 121.48c.33.55.67 1.11 1 1.66 1.58-.52 4.21-.69 4.53-1.63.65-1.95.07-4.3-.01-6.49-.75-.11-1.51-.22-2.26-.33-1.09 2.27-2.17 4.53-3.26 6.79z" fill="#000001"/><path d="m165.37 232.38c-3.65 2.83-7.3 5.66-10.95 8.49-11.5 8.91-23.63 17.13-34.36 26.89-14.4 13.1-27.81 27.31-41.44 41.24-3.08 3.15-5.79 4.79-10.27 3.05-4.04-1.57-6-4.49-6.24-8.35-.83-13.23-6.86-23.23-17.61-30.84-5.12-3.62-4.68-4.91 1.21-7.22 1.04-.41 2.54-1.03 2.77-1.85 2.13-7.54 8.34-6.46 13.38-5.58 6 1.05 11.19-.52 16.65-2.14 5.74-1.71 11.77-2.59 17.37-4.64 5-1.84 5.69-5.63 2.32-9.67-4.44-5.33-3.07-11.42-2.89-17.48.34-11.81.99-23.66.35-35.43-.39-7.09-4.49-9.12-13.7-8.16-6.93.72-13.81.07-20.79 2.99-8.32 3.49-16.7-.46-21.93-8.22-2-2.97-6.49-6.26-3.63-9.74 1.83-2.23 6.8-2.57 10.36-2.55 5.37.04 10.72 1.59 16.09 1.65 6.23.08 12.48-.74 18.72-1.21 1.13-.09 2.24-.53 3.37-.58 8.45-.37 10.75-2.19 11.79-10.55 1.91-15.3 2.04-30.59-2.04-45.61-2.51-9.24-5.37-18.38-8.22-27.52-.52-1.66-2.11-3-2.56-4.67-1.53-5.72 1.74-8.83 8.26-8.76 3.74.04 7.49-.83 11.25-1.14 2.18-.18 5.56-.94 6.39.12 4.6 5.91 11.85 5.32 17.71 7.98 3.7 1.68 7.53 3.07 11.29 4.61 5.68 2.33 7.01 7.16.59 11.67-2.27 1.6-4.44 3.4-6.39 5.37-3.71 3.75-4.54 8.34-4.31 13.57.38 8.81-.03 17.66.14 26.48.13 6.79.16 13.63 1.15 20.32.53 3.58 2.48 6.95 7.88 5.28 5.25-1.62 10.81-2.54 16.3-2.97 2.47-.19 6.1.81 7.43 2.59 2.59 3.48 1.2 10.29-2.24 12.18-3.45 1.9-7.43 2.98-11.3 3.93-2.98.73-6.15.87-9.24.99-7.17.28-10.38 4.97-10.75 11.07-.5 8.09 0 16.28.51 24.39.4 6.36 1.69 12.67 2.17 19.03.47 6.1 1.69 7.31 7.59 5.79 7.21-1.85 14.36-3.92 21.58-5.74 1.8-.45 3.75-.3 5.62-.42.19.47.41.92.62 1.36z" fill="#000001"/><g fill="#fafafb"><path d="m2.6 9.9.8-1c.9.7 1.9 1.4 2.9 2.3l-.9 1.1c-1.1-1-2-1.8-2.8-2.4zm.5 10.6c.9-2.1 1.6-4.3 2.3-6.7.4.2.8.4 1.3.6-.7 2.1-1.5 4.3-2.2 6.6zm.3-15.2.9-.9c1 .8 2 1.6 2.8 2.4l-1 1c-.9-.9-1.8-1.7-2.7-2.5zm12.6-1.2h1.2v1.4h2.7v1.1h-2.7v2.7h-1.2v-.6h-1.8v1.3h4.9v3.8h-1.2v-.5h-3.7c0 .4-.1.9-.1 1.2h5.1v1h-5.2c0 .5-.1.9-.2 1.2h6v1h-5.2c1.1 1.3 2.9 2 5.5 2.2-.4.4-.7.8-.9 1.3-2.9-.5-4.8-1.6-5.7-3.5h-.1c-.8 1.7-2.7 2.9-5.9 3.6-.2-.4-.6-.8-.9-1.1 2.8-.6 4.6-1.4 5.4-2.5h-4.8v-1h5.3c.1-.3.2-.7.2-1.2h-4.9v-1h5c0-.4 0-.8.1-1.2h-3.6v.5h-1.2v-3.8h4.9v-1.3h-1.8v.5h-1.2v-2.7h-2.7v-1h2.7v-1.4h1.2v1.4h4.8zm-6.7 8.3h3.6c0-.4 0-.9 0-1.4h-3.6zm1.9-4.6h4.8v-1.3h-4.7v1.3zm6.7 3.2h-3.7v1.4h3.7v-2.4z"/><path d="m8.7 22.1h1.3v2.2h2.8v-2.2h1.3v2.2h4.1v9.1h1.7v1.3h-17v-1.3h1.7v-9.1h4.1zm.3 13.1.7 1.2c-1.8.9-3.8 1.9-6 2.9-.2-.4-.5-.8-.8-1.3 2.3-1 4.4-1.9 6.1-2.8zm-3.1-6.4h2.8v-3.2h-2.8zm0 4.6h2.8v-3.3h-2.8zm4.1-4.6h2.8v-3.2h-2.8zm0 4.6h2.8v-3.3h-2.8zm3.6 1.9c2.1.9 4.1 1.8 6.1 2.7l-.7 1.4c-2.2-1.1-4.2-2-6.1-2.9zm3.2-9.7h-2.8v3.2h2.8zm-2.7 7.8h2.8v-3.3h-2.8z"/></g></svg>