<svg enable-background="new 0 0 400 400" viewBox="0 0 400 400" xmlns="http://www.w3.org/2000/svg"><g fill="#000001"><path d="m254.72 172.79c-.91 3.31-2.3 6.57-2.63 9.93-1.27 12.79-10.38 15.33-19.75 14.07-1.13-.15-2.43-2.44-2.81-3.95-.94-3.67-2.9-4.99-6.71-4.92-11.83.21-23.68-.31-35.49.19-10.82.46-21.61 1.77-32.37 3.01-1.42.16-2.74 2-3.9 3.24-1.34 1.43-2.72 4.49-3.64 4.33-2.09-.37-4.65-1.86-5.65-3.66-1.78-3.19-3.28-6.89-3.6-10.49-.78-8.73-.15-17.61-1.29-26.27-2.21-16.79-.39-33.88-4.66-50.53-2.18-8.49-2.81-17.37-4.21-26.06-.18-1.1-1.05-2.13-1.09-3.22-.07-1.76.29-3.55.46-5.32 1.68.2 3.49.05 5.01.65 4.09 1.61 8.29 3.15 12.03 5.41 8.65 5.23 12.16 9.81 8.08 19.8-2.78 6.82-3.72 13.81-3.56 21.18.3 14.33.11 28.66.08 43-.02 7.34 2.07 13.56 9.39 16.58 2.13.88 4.81 1.24 6.99.74.88-.2 1.51-3.31 1.53-5.1.03-2.75-.4-5.54-.94-8.25-.72-3.56-2.6-6.3-6.42-7.15-2.31-.51-4.43-1.54-3.41-4.19.7-1.82 2.55-4.51 3.92-4.54 5.61-.11 5.98-3.56 5.95-7.65-.01-1.17-.06-2.34.01-3.5.3-5.4-1.19-9.55-6.83-11.67-1.68-.63-2.77-2.82-4.13-4.3 1.53-1.06 3.01-2.19 4.6-3.15 1.25-.76 3.02-.97 3.87-2 1.44-1.73 3.32-3.98 3.18-5.87-.13-1.8-2.29-4.16-4.14-4.99-5.46-2.46-6.67-5.19-2.17-7.8 10.16-5.89 7.65-14.85 7.01-23.63-.36-4.96-.39-9.96-.22-14.92.02-.54 3-1.8 3.5-1.39 5.76 4.77 11.55 9.57 16.74 14.93 1.12 1.16.33 4.72-.36 6.94-.76 2.44-2.85 4.48-3.55 6.92-.53 1.85.2 4.07.37 6.13 2.3-.19 5.08.38 6.81-.71 5.41-3.42 6.69-9.22 7.32-15.17.34-3.26.62-6.53 1.08-9.78.09-.63.74-1.39 1.33-1.7 4.53-2.38 8.79-.66 12.51 1.7 2.7 1.71 3.61 4.45 2.32 8.19-1.69 4.87-2.65 10.12-3.11 15.27-.4 4.48 2.84 5.97 6.89 3.9 4.9-2.5 5.72-7.35 6.78-11.89.82-3.49.97-7.16 1.16-10.77.29-5.34 2.93-6.96 8.13-4.77 4.26 1.79 5.98 6.12 4.82 12.27-.15.79-.91 1.59-.8 2.29.36 2.39.22 5.54 1.67 6.95 2.86 2.77 4.94-.37 6.9-2.3 1.9-1.87 3.77-3.77 5.66-5.65 3.52-3.51 7.63-4.21 11.43-1.71 3.53 2.32 2.55 6.01 1.84 9.07-1.03 4.4-3.28 8.52-4.28 12.92-1.45 6.33-2.63 12.77-3.24 19.23-1 10.67-1.48 21.39-2.06 32.1-.09 1.68.44 3.38.69 5.13 5.23-.57 7.74-3.5 10.24-7.17 7.34-10.8 15.36-21.13 22.63-31.98 3.15-4.69 5.24-10.12 7.57-15.31 3.12-6.94 6.47-13.83 8.82-21.03 1.29-3.93.46-8.51 1.12-12.71.31-1.97 1.89-3.74 2.89-5.6 1.74 1.17 4.02 1.98 5.11 3.59 2.91 4.32 5 9.2 7.99 13.46 4.84 6.9 13.67 10.33 20.94 5.56 10.05-6.58 17.57-3.23 25.25 3.18 3.85 3.22 6.73 6.76 5.84 12.57-.72 4.66-.99 7.34-8.13 7.39-5.65.04-8.92 2.3-12.2 6.63-6.43 8.51-13.53 16.52-20.45 24.64-5.34 6.27-10.85 12.4-16.27 18.58 2.01 4.56 4.61 5.71 9.18 3.51 5.14-2.48 10.24-5.13 15.08-8.14 6.84-4.25 8.24-4.3 13.6 1.41 3.62 3.85 6.9 8.07 10.79 11.62 4.02 3.66 1.79 6.48-1.36 7.58-6.71 2.34-7.66 6.88-7.52 13.08.19 8.09-.66 16.2-.81 24.3-.06 3.09.61 6.2.94 9.29.49 4.65-2.53 6.05-6.14 5.56-8.41-1.14-16.64-1.05-25.16-.18-11.38 1.17-22.97.18-34.47.36-3.4.05-6.84.64-10.16 1.43-6.58 1.58-5.7 7.7-5.87 12.04-.59 14.98-.18 30.03 3.93 44.59 1.13 4.01 2.73 8.74 8.06 9.42 2.17.28 4.48-.65 6.68-.49 4.08.29 8.13 1.09 12.2 1.47 3.8.36 7.63.59 11.45.64 11.46.15 22.94-.03 34.39.39 3.38.12 12.11-4.88 13.04-8.52.8-3.13 1.75-6.23 2.75-9.31 2.4-7.39 4.87-14.75 7.43-22.51h4.99c-.41 2.94-.42 5.87-1.25 8.55-3.39 10.94-2.34 21.82.4 32.59.97 3.82 4.06 7.2 4.59 11 .67 4.83.02 9.93-.63 14.83-.51 3.79-3.11 5.03-7.14 4.91-28.7-.85-57.43-.83-86.09-2.37-13.12-.7-21.16-5.84-25.13-20.68-3.33-12.46-4.58-25.12-4.89-37.94-.31-12.77-.68-25.54-.99-38.3-.36-14.77-.49-29.54-1.11-44.3-.21-4.89-1.62-9.73-2.49-14.59-.89-.05-1.79-.1-2.68-.14zm38.43-5.79c.22.42.45.84.67 1.26 4-2.19 9.02-3.52 11.79-6.77 5.25-6.15 8.44-14.09 13.87-20.03 9.02-9.86 12.66-22.34 18.54-33.73 2.02-3.91 1.01-4.99-3.29-5.79-7.22-1.35-12.8 1.75-16.82 6.88-11.33 14.47-23.72 27.92-36.83 40.77-3.22 3.16-5.81 7.09-8.14 10.99-2.36 3.95-.93 6.25 3.64 6.38 5.52.16 11.05.04 16.57.04zm-16.56 36.75c.14.02.29.04.43.06 0 1.83-.18 3.68.03 5.49.59 5.08 4.96 9.29 9.53 9.72 5.3.5 8.5-2.12 8.77-7.02.53-9.78.71-19.61.3-29.38-.18-4.36-4.77-5.47-8.2-5.36-2.5.08-6.64 1.96-7.1 3.78-1.86 7.43-2.6 15.12-3.76 22.71zm57.81-11.67c.27-17.19-1.65-14.93-14.56-15.11-2.75-.04-4.06 1.01-3.84 3.81.35 4.43.8 8.85.96 13.28.17 4.49-.12 8.99.08 13.48.24 5.38 3.48 9.37 7.33 9.45 3.78.09 8.14-4.49 8.61-9.19.53-5.23.95-10.48 1.42-15.72zm-128.86-59.84c-.77 5.68-1.4 10.88-2.21 16.05-1.33 8.52-2.94 17-4.03 25.55-.18 1.39 1.46 3.93 2.76 4.34 1.29.41 4-.74 4.73-2 2.88-4.91 4.09-10.09.5-15.42-2.28-3.4-2.22-6.61 1.56-9.22 1.48-1.02 3.32-2.32 3.79-3.86 1.1-3.64 2.67-7.8 1.79-11.17-.85-3.3-4.73-5.35-8.89-4.27zm-14.56 8.16c.13-.02.27-.04.4-.07-.46-2.72-1.31-5.44-1.27-8.16.06-3.83-1.91-4.27-5-4.23-3.29.04-6.19.43-6.08 4.55.11 4.13.84 8.24.91 12.37.06 3.69 2.45 4.73 5.26 5.07 3.21.39 5.35-1.24 5.75-4.57.19-1.63.03-3.31.03-4.96zm-.98 27.88c0-1.16-.08-2.32.01-3.48.31-3.8-2.15-5.29-5.22-5.68-3.33-.42-5.95 1.22-6.09 4.73-.12 3.1-.07 6.61 1.3 9.22.99 1.91 4.24 3.55 6.47 3.53 1.19-.01 2.44-3.73 3.48-5.87.32-.66.05-1.62.05-2.45zm-3.96-61.22c-4.18-.88-6.27.78-6.08 5.41.17 4.08 2.53 6.69 6.86 6.45 4.76-.25 4.6-4.39 5.13-7.61.76-4.69-2.56-4.48-5.91-4.25zm36.92 66.41c.51.3 1.01.6 1.52.89 1.09-.12 2.18-.28 3.28-.36 5.19-.37 7.76-2.64 8.14-7.81.12-1.6-.37-4.07-1.43-4.7-1.13-.66-4.07-.2-4.82.81-2.56 3.49-4.51 7.42-6.69 11.17zm11.3-38.95c-1.7.8-2.48 1.05-3.13 1.49-1.84 1.25-1.77 12.44.12 13.54.65.38 1.58.48 2.35.38 2.53-.31 6.1-6 5.18-9.54-.59-2.22-2.99-3.97-4.52-5.87zm.57-12.14c5.72-2.71 9.18-8.27 8.09-12.11-1.1-3.88-4.23-3.45-8.09-2.98zm-26.68-7.89c-.37.34-.73.68-1.1 1.02 1.69 1.46 3.31 4.03 5.09 4.15 4.27.28 5.47-3.6 5.54-6.87.02-1.19-3.1-3.5-4.71-3.42-2.42.11-6.01.68-4.82 5.12z"/><path d="m27.03 339.56c3.02-4.04 5.8-8.3 9.13-12.07 2.71-3.07 6.45-5.25 9.06-8.38 3.86-4.63 7.41-9.57 10.58-14.7 8.92-14.42 14.37-30.24 17.92-46.74.16-.76.31-1.83-.08-2.36-4.61-6.15-8.57-12.99-16.18-16.1-4.85-1.98-7.21-.69-8.44 4.43-1.02 4.26-2.06 8.51-3 12.78-1.51 6.84-9.63 9.37-14.33 8.37-1.47-.31-3.37-2.76-3.49-4.34-.22-3.03.28-6.27 1.23-9.18 1.95-5.97 4.63-11.71 6.6-17.68 5.1-15.38 9.99-30.84 14.95-46.26 2.17-6.76 4.12-13.6 6.55-20.26 2.25-6.19-.19-10.31-6.79-9.99-6.38.31-12.76 1.05-19.09 1.93-7.77 1.07-14.39-4.04-16.69-13.82 2-.4 3.99-1.11 5.98-1.13 13.19-.11 26.39.04 39.58-.19 1.64-.03 3.75-1.45 4.78-2.85 4.92-6.68 7.83-14.18 8.77-22.51.36-3.18 1.13-6.46 2.44-9.37 4.04-9 3.35-17.22-2.03-25.62-1.79-2.79-2.95-8.21-1.44-10.37 2.51-3.59 6.16.6 8.97 1.97 6.45 3.13 12.53 7.03 18.94 10.28 10.67 5.42 11.43 20.37 1.53 27.58-2.98 2.17-5.34 5.39-7.5 8.47-2.99 4.27-5.34 8.98-8.27 13.3-3.32 4.88-1.96 8.45 3.91 9.21 6.36.82 11.82-1.17 16.99-4.96 7.51-5.5 8.77-5.32 15.27 1.46 3.71 3.88 7.01 8.16 10.27 11.99-8.95 11.89-12.83 24.72-15.17 38.16-.25 1.43-.4 2.98-1.07 4.23-3.4 6.35-4.2 13.22-5.12 20.26-.83 6.32-3.74 12.34-4.99 18.63-.89 4.48-1.29 9.34-.48 13.78.45 2.45 3.6 4.65 5.92 6.47 3.2 2.51 6.82 4.48 10.16 6.82 7.39 5.18 7.25 18.87-.42 23.49-1.29.78-4.22.59-5.33-.37-4.44-3.86-8.33-8.35-12.68-12.32-2.44-2.23-5.38-3.91-8.87-6.39-8 16.03-16.62 30.8-28.27 43.06-11.5 12.11-21.95 25.9-37.62 33.28-.72-.68-1.45-1.34-2.18-1.99zm53.14-187.56c-5.81 7.59-4.87 16.97-9.63 24.69-3.43 5.57-3.59 13.06-5.71 19.53-2.52 7.69-5.88 15.12-8.3 22.84-2.91 9.29-.79 11.07 7.24 15.84 3.64 2.16 7.58 3.83 11.39 5.71 4.77 2.35 7.52 1.22 8.77-3.79 2.75-11 5.78-21.96 7.97-33.07 2.54-12.92 4.21-26 9.01-38.4.86-2.22.97-4.8 1.04-7.23.1-3.99-2.08-6.07-6.06-6.1-5.32-.05-10.64-.02-15.72-.02z"/><path d="m248.22 195.95c4.49 1.14 6.34 3.48 5.83 7.68-.26 2.13-.04 4.33-.05 6.49 0 6.59-.8 8.47-7.32 9.38-7.06.98-14.33.47-21.5.59-1.5.02-2.99-.09-4.49-.09-15.49-.01-30.99-.13-46.48.07-5 .06-10 .97-15.01 1.5.81 6.72 4.74 10.54 10.29 10.4 7.93-.2 15.86-.75 23.79-.9 3.26-.06 6.54.85 9.8.8 5.93-.1 11.87-.48 17.78-1.03.92-.09 1.74-1.69 2.52-2.66 3.43-4.27 8.58-3.34 12.03.11 8.58 8.58 7.14 18.41 5.71 28.58-.18 1.31.28 2.82-.21 3.95-.65 1.51-1.87 3.86-2.95 3.92-3.89.22-7.94.12-11.7-.8-3.99-.98-6.43 0-6.64 4.15-.09 1.88-.05 4.11.84 5.65 3.47 6.03 4.92 12.04 1.57 18.59-.4.78-.39 1.77-.7 3.32 8.03 0 15.73.11 23.43-.07 2.21-.05 4.44-1.35 6.6-1.22 1.42.08 3.76 1.57 3.89 2.65.2 1.63-.71 4.43-1.96 5-3.17 1.48-6.76 2.07-10.22 2.89-5.37 1.27-10.72 3.12-16.16 3.51-12.13.88-22.56 7.1-33.98 9.92-13.4 3.3-27.15 5.17-40.75 7.67-2.25.41-4.54.67-6.73 1.28-8.59 2.4-17.15 4.94-25.73 7.38-6.01 1.71-12.34-1.95-17.77-9.75-7.74-11.11-6.27-12.69 5.58-14.09 6.52-.77 13.07-1.16 19.6-1.84 8.45-.89 16.97-1.47 25.3-3 5.82-1.06 11.98-10.28 11.32-15.86-.13-1.14-1.66-2.38-2.84-3.07-2.8-1.62-5.77-2.93-8.67-4.39-4.01-2.01-5.47-5.48-5.22-9.72.6-10.36 1.5-20.71 1.88-31.07.17-4.75-.45-9.54-.98-14.29-.48-4.3-4.05-6.2-11.64-6.59-6.21-.32-8.4-2.26-9.9-8.05-.69-2.68.1-3.67 2.67-3.96 10.84-1.2 21.53-.85 32.42.69 9.47 1.34 19.29.43 28.94.29 14.43-.22 28.87-.43 43.27-1.17 2.57-.13 5.33-2.46 7.41-4.41 2.75-2.54 4.89-5.72 7.13-8.43zm-56.7 107.78c.67-1.26 1.58-2.79 2.3-4.39 2.43-5.42 4.76-10.88 7.18-16.3 1.85-4.13 3.96-8.15 5.61-12.35 1.18-3.02.52-5.08-3.32-6.13-8.99-2.46-17.92-1.84-26.88-.39-.92.15-2.38 2.18-2.18 3.01.88 3.77 2.09 7.48 3.49 11.09 2.57 6.65 5.97 13.11 2.47 20.53-.49 1.04-.07 2.52-.07 3.84 3.9.37 7.46.72 11.4 1.09zm8.26-49.17c5.4-.63 9.48-1.01 13.52-1.6 3.44-.5 4.69-3.36 3.45-5.82-1.25-2.47-3.82-4.88-6.38-5.93-3.37-1.38-7.28-1.74-10.99-1.94-9.51-.53-19.09-1.13-28.18 2.78-3.57 1.54-4.24 4.85-1.23 7.28 1.97 1.59 4.43 3.25 6.82 3.52 8.04.93 16.15 1.25 22.99 1.71z"/></g><path d="m2.6 9.9.8-1c.9.7 1.9 1.4 2.9 2.3l-.9 1.1c-1.1-1-2-1.8-2.8-2.4zm.5 10.6c.9-2.1 1.6-4.3 2.3-6.7.4.2.8.4 1.3.6-.7 2.1-1.5 4.3-2.2 6.6zm.3-15.2.9-.9c1 .8 2 1.6 2.8 2.4l-1 1c-.9-.9-1.8-1.7-2.7-2.5zm12.6-1.2h1.2v1.4h2.7v1.1h-2.7v2.7h-1.2v-.6h-1.8v1.3h4.9v3.8h-1.2v-.5h-3.7c0 .4-.1.9-.1 1.2h5.1v1h-5.2c0 .5-.1.9-.2 1.2h6v1h-5.2c1.1 1.3 2.9 2 5.5 2.2-.4.4-.7.8-.9 1.3-2.9-.5-4.8-1.6-5.7-3.5h-.1c-.8 1.7-2.7 2.9-5.9 3.6-.2-.4-.6-.8-.9-1.1 2.8-.6 4.6-1.4 5.4-2.5h-4.8v-1h5.3c.1-.3.2-.7.2-1.2h-4.9v-1h5c0-.4 0-.8.1-1.2h-3.6v.5h-1.2v-3.8h4.9v-1.3h-1.8v.5h-1.2v-2.7h-2.7v-1h2.7v-1.4h1.2v1.4h4.8zm-6.7 8.3h3.6c0-.4 0-.9 0-1.4h-3.6zm1.9-4.6h4.8v-1.3h-4.7v1.3zm6.7 3.2h-3.7v1.4h3.7v-2.4z" fill="#fafafb"/><path d="m8.7 22.1h1.3v2.2h2.8v-2.2h1.3v2.2h4.1v9.1h1.7v1.3h-17v-1.3h1.7v-9.1h4.1zm.3 13.1.7 1.2c-1.8.9-3.8 1.9-6 2.9-.2-.4-.5-.8-.8-1.3 2.3-1 4.4-1.9 6.1-2.8zm-3.1-6.4h2.8v-3.2h-2.8zm0 4.6h2.8v-3.3h-2.8zm4.1-4.6h2.8v-3.2h-2.8zm0 4.6h2.8v-3.3h-2.8zm3.6 1.9c2.1.9 4.1 1.8 6.1 2.7l-.7 1.4c-2.2-1.1-4.2-2-6.1-2.9zm3.2-9.7h-2.8v3.2h2.8zm-2.7 7.8h2.8v-3.3h-2.8z" fill="#fafafb"/></svg>