<svg enable-background="new 0 0 400 400" viewBox="0 0 400 400" xmlns="http://www.w3.org/2000/svg"><path d="m5.17 384 .55-.58c.85.61 1.65 1.24 2.4 1.87l-.59.64c-.83-.73-1.62-1.38-2.36-1.93m1.22 9.53-.82-.34c.71-1.76 1.37-3.64 1.98-5.63.24.13.5.25.76.36-.6 1.67-1.24 3.54-1.92 5.61m-.5-13.5.57-.54c.56.44 1.31 1.06 2.26 1.87l-.64.64c-.68-.66-1.41-1.32-2.19-1.97m3.25.46h2.24v-1.36h.77v1.36h4.57v-1.36h.76v1.36h2.28v.69h-2.28v1.84h-2.64v1.26h4.18v2.64h-4.21c0 .45-.02.86-.05 1.21h4.32v.69h-4.38c-.04.34-.1.75-.19 1.22h5.15v.69h-4.82c.87 1.19 2.51 1.92 4.93 2.19-.17.31-.3.57-.37.76-2.77-.49-4.52-1.41-5.26-2.76-.56 1.26-2.3 2.23-5.24 2.9-.12-.24-.26-.48-.43-.72 2.73-.55 4.38-1.34 4.96-2.38h-4.38v-.69h4.65c.1-.38.17-.79.21-1.22h-4.32v-.69h4.4c.03-.34.05-.75.05-1.21h-4.2v-2.64h4.23v-1.26h-2.69v-1.84h-2.24zm1.46 4.46v1.29h3.45c.01-.4.02-.57.01-.53v-.32-.45h-3.46zm1.55-2.59h4.57v-1.19h-4.57zm6.11 2.59h-3.42v.77c-.01.19-.01.37-.02.53h3.44v-1.29z" fill="#fcfbfa"/><path d="m32.63 379.16h.82v1.98h3.54v7.89h1.46v.78h-14.37v-.78h1.46v-7.89h3.54v-1.98h.82v1.98h2.73zm-3.49 11.48.5.73c-1.61.82-3.28 1.63-5 2.41-.13-.27-.28-.55-.44-.82 1.75-.72 3.4-1.49 4.94-2.32m-2.78-5.55h2.73v-3.18h-2.73zm0 3.95h2.73v-3.2h-2.73zm3.54-3.95h2.73v-3.18h-2.73zm0 3.95h2.73v-3.2h-2.73zm7.89 4.68c-1.84-.92-3.51-1.7-5.02-2.32l.45-.73c1.89.8 3.57 1.55 5.04 2.23zm-1.62-11.81h-2.73v3.18h2.73zm-2.73 7.13h2.73v-3.2h-2.73z" fill="#fcfbfa"/><g fill="#010102"><path d="m227.41 341.33c10.36-.78 20.81-.97 31.02-2.65 4.11-.68 8.21-4.09 11.4-7.19 12.96-12.59 11.07-9.26 22.56-.68 1.8 1.34 3.9 2.7 6.03 3.08 7.44 1.35 11.06 6.84 13.68 12.85 2.75 6.31-2.53 13.5-10.1 14.02-9.05.63-18.22-.39-27.33-.94-6.55-.4-13.06-1.46-19.61-1.76-18.02-.82-36.06-1.97-54.08-1.76-6.92.08-13.58.09-20.4-1.17-7.92-1.46-15.55 1.37-23.29 2.76-6.76 1.21-13.74 1.18-20.56 2.16-9.67 1.4-19.27 3.3-28.92 4.88-6.77 1.11-13.56 2.15-20.36 3.03-6.17.81-12.37 1.37-18.56 2.03-2.78.3-4.25-.46-5.34-3.57-2.08-5.93-5.33-11.44-7.7-17.28-.8-1.97-.75-4.51-.28-6.62.12-.53 3.32-.56 5.09-.52 11.59.28 23.18.82 34.78.95 15.33.17 30.66.13 45.99 0 5.6-.05 11.22-.43 16.79-1.02 6.99-.73 11.64-7.61 10.13-14.33-.36-1.59-.23-3.29-.34-4.94-.48-7.29-6.71-10.29-12.75-9.32-4.19.67-8.43 1.11-12.64 1.66-10.22 1.33-20.51 2.25-30.63 4.12-12.17 2.25-8.87.22-13.75-8.89-1.27-2.36-1.54-5.29-2.11-7.99-.73-3.44 1.48-4.73 5.12-4.67 10.76.18 21.53-.19 32.29-.32 8.84-.11 17.68-.2 26.52-.24 9.95-.04 10.08-.01 9.91-9.87-.13-7.44-.18-14.93-1.16-22.27-.52-3.89-3-7.5-4.52-11.27-2.75-6.85.99-12.56 8.11-11.33 10.56 1.84 20.2 6.51 28.34 13.42 1.79 1.52 1.04 6.24 1.13 9.5.19 6.59-.55 13.3.41 19.76.83 5.57 6.45 6.29 11.1 6.99 8.97 1.35 16.41-1.65 22.59-8.31 2.79-3.01 6.01-5.64 9.19-8.26 3.16-2.62 6.52-1.82 8.85 1.39 3.17 4.37 6.48 8.65 10.04 12.7 3.23 3.68 4.01 8.85 1.46 13.5-2.27 4.15-6.37 5.57-11.61 4.51-2.57-.52-5.27-.44-7.92-.45-12.16-.04-24.33-.04-36.49-.01-8.92.02-13.77 6.48-11.51 14.88.76 2.82.45 5.92 1.12 8.78 1.48 6.35 5.46 9.2 12 9.37 2.77.07 5.53.75 8.3.92 2.66.17 5.33.04 8 .04-.01.11 0 .22.01.33z"/><path d="m355.2 262.84c-7.04 3.2-13.9 6.86-21.15 9.47-8.3 2.99-14.72 8.42-20.98 14.2-1.94 1.79-3.47 3.17-6.38 1.61-2.68-1.43-5.89-1.84-8.64-3.17-9.29-4.51-18.69-8.88-27.64-14.02-5.05-2.91-9.28-7.24-13.9-10.9-8.21-6.51-12.54-6.71-21.18-.84-8.53 5.79-17.43 10.7-28.3 11.98 4.84-4.34 9.64-8.72 14.52-13.01 3.82-3.35 7.94-6.4 11.48-10.02.93-.95.84-3.87.1-5.31-3.5-6.76-7.35-13.35-11.17-19.95-2.95-5.09-6.57-6.52-12.43-5.14-8.8 2.07-16.72-4.12-16.35-13.17.06-1.52 2.11-3.32 3.67-4.31 1.09-.69 3.08-.66 4.38-.18 14.34 5.26 29.22 2.08 43.83 2.88 4.32.24 8.8.69 12.95-.18 3.19-.66 7.17-2.54 8.65-5.12 1.94-3.38-1.04-6.14-4.37-8.13-2.29-1.37-3.88-3.86-5.97-5.64-2.98-2.54-6.12-4.91-9.22-7.31-2.84-2.21-6.11-4.01-8.49-6.63-3.32-3.65-6.77-3.9-10.52-1.49-8.92 5.72-17.64 11.74-26.57 17.44-5.76 3.68-11.86 6.71-19.02 7.13-1.22-3.7.3-5.36 3.08-7.44 10.1-7.54 19.94-15.43 29.64-23.48 2.95-2.45 3-6.04-.23-8.5-5.71-4.35-11.62-8.44-17.61-12.39-1.79-1.18-4.61-1.97-3.06-4.35.86-1.32 4.13-2 5.99-1.57 6 1.4 11.8 3.66 17.78 5.17 3.62.91 7.43 1.33 11.17 1.46 6.11.22 12.37-6.45 11.54-12.33-.38-2.65-1.97-4.94-5.24-4.58-9.77 1.05-19.57 1.91-29.27 3.41-7.61 1.18-11.11.52-11.49-4.18-.28-3.39.45-4.32 3.64-4.3 11.83.08 23.67-.33 35.48.17 6.65.28 11.11-2.63 14.69-7.4 9.34-12.41 12.75-12.5 21.64-.13 6.45 8.97 6.41 8.94-.99 16.67-4.05 4.23-8 8.56-11.92 12.91-3.38 3.75-3.5 6.82.75 9.2 6.61 3.7 13.84 6.28 20.62 9.72 3.3 1.67 6.4 3.94 9.18 6.4 4.35 3.86 1.93 9.01.83 13.01-1.75 6.38 1.2 10.06 5.14 13.78 3 2.83 6.27 5.38 9.16 8.3 4.81 4.85 3.71 10.63-1.96 14.47-6.22 4.21-12.04 8.99-18.09 13.44-1.54 1.13-3.28 1.99-4.94 2.96-3.65 2.14-7.77 4.83-6.68 9.29.69 2.81 4.19 6 7.13 7.03 15.69 5.5 31.62 9.8 48.5 10.47 7.12.28 13.95.5 20.91-1.11 2.11-.49 4.61.71 6.94 1.13.11.88.24 1.73.37 2.58zm-98.94-51.5c-8.94 1.68-17.28 3.06-25.52 4.88-3.39.74-4.06 3.83-1.79 5.97 4.37 4.11 9.13 7.91 14.14 11.21 2.87 1.89 6.19 1.9 8.84-1.65 2.26-3.03 5.06-5.78 8.06-8.09 3.55-2.73 3.81-6.45 2.62-9.72-.55-1.52-4.31-1.84-6.35-2.6z"/><path d="m64.77 209.63c4.23.45 8.45 1.13 12.69 1.26 3.09.09 6.2-.86 9.29-.81 5.1.08 10.21 1 15.29.83 8.88-.29 17.75-1 26.6-1.82 3.86-.36 7.76-1.06 11.44-2.23 5.21-1.65 6.38-7.21 2.96-11.34-3.76-4.54-7.25-9.3-10.84-13.97-7.32-9.51-13.59-7.55-19.25-2-6.63 6.5-15.04 9.57-23.58 12.52-5.07 1.75-10.23 3.56-14.83 6.24-4.47 2.6-9.02 3.05-13.79 2.56-1.33-.14-3.65-2-3.52-2.69.35-1.82 1.43-4.44 2.86-4.95 6.87-2.42 14.02-4.02 20.93-6.34 12.24-4.1 22.15-11.49 30.37-21.5 3.66-4.46 1.12-7.26-.52-11.27-3.92-9.55-11.41-15.95-18.19-23.06-.94-.99-1.28-2.55-2.2-4.48 2.02-.61 3.61-1.45 5.23-1.52 9.59-.45 19.19-.7 28.79-1.07 7.77-.3 15.53-.61 23.29-1.02 5.8-.31 8.84-4.78 12.02-8.65 3.92-4.75 7.74-4.85 11.39.22 2.11 2.92 4.43 5.69 6.39 8.69 2.93 4.47 2.65 7.75-1.06 10.65-6.88 5.38-13.92 10.55-20.87 15.85-1.82 1.39-3.72 2.75-5.27 4.42-3.54 3.8-3.84 7.8-.69 12.08 2.81 3.82 5.62 7.82 9.15 10.9 3.79 3.31 3.46 7.1.99 9.74-7.63 8.11-4.34 15.37.52 22.94 5.7 8.88 2.59 19.6-6.93 24.38-2.78 1.4-5.56 2.79-8.32 4.23-9.14 4.77-10.68 10.9-4.3 18.79 5.79 7.16 5.31 14.97 2.46 22.73-.91 2.48-4.23 5.48-6.62 5.63-2.72.17-6.37-1.94-8.29-4.19-3.02-3.54-4.79-8.11-7.34-12.09-3.92-6.13-7.14-7.57-13.49-5.02-14.61 5.87-28.99 12.29-43.59 18.17-4.31 1.74-9.01 2.62-13.61 3.5-4.12.78-5.58-2.36-3.98-5.05 1.87-3.13 5-6.03 8.26-7.69 5.3-2.68 11.35-3.85 16.72-6.41 6.62-3.16 12.9-7.04 19.26-10.73 2.81-1.63 5.63-3.32 8.13-5.37 4.02-3.3 4.09-6.55 1.45-11.21-3.11-5.49-5.37-11.41-11.11-15.1-3-1.92-5.6-2.56-9.15-1.94-4.53.79-9.84 2.6-13.18-2.38-1.77-2.63-2.42-6.02-3.58-9.06.54-.46 1.08-.92 1.62-1.37zm53.42 8.37c-.03-.19-.06-.38-.1-.57-4.01.67-8.15.91-11.99 2.11-4.81 1.51-5.47 4.15-3.35 8.83 2.54 5.6 9.02 7.6 15.62 8.12 2.86.23 9.44-6.52 10.48-10.2 1.56-5.55-.45-8.25-6.18-8.29-1.49-.01-2.98 0-4.48 0zm10.98-70c5.97-.12 12.55-9.12 10.46-14.56-.41-1.05-2.02-2.36-3.05-2.34-7.58.15-15.18.4-22.73 1.1-2.58.24-3.53 2.19-2.25 5.11 1.66 3.77 12.66 10.79 17.57 10.69z"/><path d="m68.07 57.39c5.28-1.59 6.71 1.92 7.86 5.13 2.23 6.27 4 12.71 6.1 19.03 2.72 8.19 6.49 10.24 14.73 8.09 9.52-2.49 18.91-3.83 29.02-2.97 12.31 1.05 24.85-.04 37.24-.84 4.17-.27 7.99-2.45 9.27-7.48 2.37-9.3.94-18.47-.63-27.6-.27-1.61-2.85-2.99-4.59-4.14-3.67-2.43-4.11-4.56-.89-7.24 7.29-6.09 15.29-8.15 24.85-5.58 7.97 2.14 16.3 2.95 24.5 4.15 3.52.52 3.84 1.43 2.39 4.84-4.34 10.22-8.23 20.68-6.92 32.18.73 6.4 4.41 8.64 12.71 8.06 6.92-.48 13.88-.48 20.78-1.08 7.33-.64 14.6-1.96 21.93-2.56 3.54-.29 7.17.24 10.73.66 4.7.56 7.9-1.24 10.01-5.43.72-1.44 1.92-2.64 2.92-3.94 2.67-3.46 7.38-3.87 10.71-.24 3.97 4.34 8.68 6.36 14.25 7.89 3.87 1.06 7.22 4.31 10.57 6.89 3.13 2.4 6 5.15 8.91 7.83 3.9 3.58 3.33 12.68-.72 17.74-4.11 5.14-9.94 7.04-15.85 8.02-7.76 1.29-15.68 1.94-23.55 2.1-9.36.19-13.71-6.06-11.8-15.31.66-3.18.52-6.64.12-9.89-.38-3.14-1.96-4.98-5.94-4.82-9.81.39-19.66-.11-29.48.21-6.88.23-13.72 1.56-20.6 1.76-6.08.18-12.32-1.47-18.27-.68-22.65 3.04-45.38 1.21-68.05 1.91-7.88.24-15.73 1.25-23.6 1.93-7.79.67-15.59 1.18-23.35 2.1-4.21.5-6.25 4.76-6.45 12.14-.28 10.6-14.72 25.05-25.14 24.69-9-.3-11.21-2.08-7-11.44 4.07-9.04 8.52-17.95 11.83-27.27 2.27-6.39 2.98-13.17 1.62-20.3-1.12-5.93-.22-12.25-.22-18.54z"/></g></svg>