<svg enable-background="new 0 0 400 400" viewBox="0 0 400 400" xmlns="http://www.w3.org/2000/svg"><path d="m5.17 384 .55-.58c.85.61 1.65 1.24 2.4 1.87l-.59.64c-.83-.73-1.62-1.38-2.36-1.93m1.22 9.53-.82-.34c.71-1.76 1.37-3.64 1.98-5.63.24.13.5.25.76.36-.6 1.67-1.24 3.54-1.92 5.61m-.5-13.5.57-.54c.56.44 1.31 1.06 2.26 1.87l-.64.64c-.68-.66-1.41-1.32-2.19-1.97m3.25.46h2.24v-1.36h.77v1.36h4.57v-1.36h.76v1.36h2.28v.69h-2.28v1.84h-2.64v1.26h4.18v2.64h-4.21c0 .45-.02.86-.05 1.21h4.32v.69h-4.38c-.04.34-.1.75-.19 1.22h5.15v.69h-4.82c.87 1.19 2.51 1.92 4.93 2.19-.17.31-.3.57-.37.76-2.77-.49-4.52-1.41-5.26-2.76-.56 1.26-2.3 2.23-5.24 2.9-.12-.24-.26-.48-.43-.72 2.73-.55 4.38-1.34 4.96-2.38h-4.38v-.69h4.65c.1-.38.17-.79.21-1.22h-4.32v-.69h4.4c.03-.34.05-.75.05-1.21h-4.2v-2.64h4.23v-1.26h-2.69v-1.84h-2.24zm1.46 4.46v1.29h3.45c.01-.4.02-.57.01-.53v-.32-.45h-3.46zm1.55-2.59h4.57v-1.19h-4.57zm6.11 2.59h-3.42v.77c-.01.19-.01.37-.02.53h3.44v-1.29z" fill="#fcfbfa"/><path d="m32.63 379.16h.82v1.98h3.54v7.89h1.46v.78h-14.37v-.78h1.46v-7.89h3.54v-1.98h.82v1.98h2.73zm-3.49 11.48.5.73c-1.61.82-3.28 1.63-5 2.41-.13-.27-.28-.55-.44-.82 1.75-.72 3.4-1.49 4.94-2.32m-2.78-5.55h2.73v-3.18h-2.73zm0 3.95h2.73v-3.2h-2.73zm3.54-3.95h2.73v-3.18h-2.73zm0 3.95h2.73v-3.2h-2.73zm7.89 4.68c-1.84-.92-3.51-1.7-5.02-2.32l.45-.73c1.89.8 3.57 1.55 5.04 2.23zm-1.62-11.81h-2.73v3.18h2.73zm-2.73 7.13h2.73v-3.2h-2.73z" fill="#fcfbfa"/><g fill="#010102"><path d="m101.41 359.66c1.09-3.7 2.89-6.16 7.17-6.91 1.95-.34 3.32-3.29 5.23-4.66 5.82-4.19 12.25-7.65 17.57-12.38 9.07-8.08 20.17-14.61 23.72-27.54.17-.61 1.1-1 1.67-1.5 8.85-7.89 15.9-16.95 19.37-28.57 1.05-3.53 3.52-6.61 4.75-10.11 5.23-14.83 8.05-30.2 9.08-45.85 1.48-22.38 3.17-44.77 3.84-67.18.37-12.34-2.17-24.78-1.53-37.08.67-12.98-3.76-25.08-4.2-37.75-.03-.83-.15-1.67-.07-2.5.88-8.9-4.21-13.85-11.42-17.51-1.57-.8-2.92-2.03-5.61-3.94 3.14-1.34 5.3-2.27 7.47-3.19 4.01-1.7 7.93-3.66 12.04-5.04 6.51-2.18 11.59-.82 16.35 5.01 4.53 5.55 8.97 12.69 17.34 12.9 9.57.25 19.18-.58 28.77-.9 2.19-.07 4.39.16 6.57.03 15.3-.97 30.6-1.89 45.88-3.06 5.15-.39 7.39-5.04 10.33-8.41 3.23-3.7 6.1-7.69 9.95-12.61 5.73 4.68 11.17 8.85 16.28 13.4 2.55 2.27 4.68 5.09 6.64 7.92 1.71 2.46 3.37 5.14 4.21 7.97 1.13 3.81-1.4 6.92-5.51 6.71-6.38-.33-12.82-.79-19.07-2.03-7.82-1.55-15.46-1.56-23.42-1.11-14.45.82-28.99-.02-43.48.31-10.88.25-21.81.68-32.58 2.09-13.02 1.7-13.3 7.83-12.63 19.32.47 8.03-.07 16.11.07 24.16.13 7.75.34 15.5.93 23.22.23 2.98 8.53 7.46 11.65 7.3 5.32-.27 10.66-.13 15.99-.18 6.83-.05 9.06-1.9 11.38-8.47 2.38-6.74 2.36-13.54.7-20.3-.98-3.99-4.35-5.16-8.29-5.27-6.26-.18-12.51-.58-18.76-.99-2.66-.18-4.74-1.66-3.65-4.4.73-1.83 2.85-4.22 4.53-4.37 8.39-.76 16.86-.71 25.28-1.25 6.04-.39 12.04-1.48 18.08-1.89 8.1-.54 16.24-1.17 24.34-.93 7.75.22 13.21-4.39 18.11-8.69 6.39-5.61 13.76-6.09 19.54.64 4.02 4.68 4.5 10.11 3.85 15.8-.29 2.54-2.06 3.2-4.6 3.18-14.5-.12-28.99-.07-43.49-.06-7.16 0-10 2.58-9.72 9.83.28 7.21 1.1 14.41 2.08 21.56.18 1.33 2.02 2.94 3.45 3.51 6.26 2.5 12.63 1.47 19.22.94 9.88-.78 15.8-7.29 22.54-12.8 4.69-3.84 7.51-3.93 11.63.48 4.98 5.31 7.07 11.73 4.01 17.6-2.24 4.3-5.44 6.57-10.22 5.83-25.78-4-51.72-1.19-77.58-1.88-7.92-.21-15.86.69-23.8.86-2.58.05-5.21-.42-7.75-.95-6.13-1.29-9.21.87-9.64 7.27-.47 6.92-.5 13.88-1.09 20.79-.77 8.98-1.64 17.97-2.95 26.88-1.09 7.44 2.32 11.61 10.22 12.12 10.53.69 20.49-2.12 30.55-4.39 1.43-.32 2.89-.51 4.35-.65 10.78-1.01 21.55-2.23 32.35-2.89 7.3-.45 14.66-.28 21.99-.07 6.08.18 10.53-2.17 14.15-7.01 2.17-2.91 5.06-5.29 7.69-7.84 3.25-3.15 6.07-.21 8.37 1.26 4.26 2.72 8.04 6.2 11.96 9.44.64.53 1.21 1.44 1.32 2.25.98 7.1-5 13.97-12.17 13.81-7.77-.17-15.54-.94-23.3-.89-12.27.07-24.53.53-36.8.97-4.2.15-7.28 1.48-8.21 6.61-.6 3.31-3.4 6.18-4.97 9.37-1.34 2.73-2.87 5.56-3.33 8.49-.49 3.12.09 6.36 4.63 6.53 4.1.15 8.18.62 12.27.96 3.76.31 7.57 1.17 11.26.81 3.21-.31 6.84-1.29 9.31-3.22 4.43-3.46 7.95-8.07 12.25-11.73 1.24-1.05 4.44-1.34 5.74-.47 4.2 2.82 8.22 6.05 11.78 9.65 5.3 5.35 4.57 10.2-1.03 15.21-2.27 2.03-4.16 4.85-5.35 7.67-7.15 16.95-13.92 34.06-21.13 50.98-1.77 4.15-4.38 8.07-7.21 11.6-4.54 5.67-11.31 5.3-17.37 4.22-4.33-.77-5.3-5.5-6.5-9.56-.77-2.61-2.81-5-4.74-7.06-1.75-1.88-4.02-3.36-6.26-4.66-1.42-.83-3.24-.97-4.84-1.51-1.3-.44-2.55-1.03-3.83-1.56 1.01-.79 1.94-2.12 3.04-2.27 6-.86 12.14-.96 18.02-2.3 3.12-.71 6.85-2.74 8.45-5.33 3.71-5.98 6.4-12.61 9.32-19.07 1.94-4.3 3.74-8.68 5.28-13.13 1.9-5.49-.11-8.47-5.68-8.22-11.21.5-22.41 1.15-33.59 2.07-2.27.19-4.33 2.28-6.63 2.75-3.51.72-7.16.74-10.75 1.13-5.52.61-11.03 1.27-16.55 1.92-5.18.61-9.46-.38-13.37-4.54-9.12-9.7-10.87-9.09-16.82 2.55-2.65 5.18-6.83 9.56-9.83 14.59-6.08 10.17-14.46 17.66-24.17 24.41-14.69 10.21-28.57 21.58-42.74 32.51-1.57 1.21-2.97 2.7-4.26 4.21-3.51 4.21-7.92 6.61-13.42 7.03zm102.71-104.23c1.02 2.5 1.64 6.86 3.14 7.19 6.52 1.43 13.3 2.24 19.98 2.15 3.98-.05 8.52-1.02 10.42-5.92 1.47-3.76 3.3-7.39 4.99-11.06 3.47-7.58-.32-13.27-8.68-13.9-5.64-.42-11.36-1.34-16.74-3.02-4.42-1.37-7.14-.72-8.29 3.66-1.76 6.75-3.15 13.59-4.82 20.9z"/><path d="m127.49 108.82c3.3-.98 5.62-1.2 7.42-2.28 13.45-8.05 30.44-2.49 36.26 12.24.91 2.29.73 5.15.52 7.71-.34 4.21-1.22 8.38-1.66 12.59-.74 7.02-1.52 14.04-1.88 21.08-.18 3.4.76 6.85.84 10.28.15 6.69-.06 13.39.09 20.09.09 3.77.92 7.53.87 11.29-.18 12.76-.19 25.55-1.1 38.27-.56 7.82-10.65 17.39-20.3 14.69-3.94-1.1-6.21-5.31-5.32-9.34.67-3.01 2.05-6.23 1.51-9.04-.45-2.35-2.97-5.76-5.01-6.11-7.92-1.33-15.99-1.86-24.03-2.21-4.41-.19-8.86.8-13.29.86-10.64.14-12.29 1.74-12.41 12.28-.12 10.57-4.79 19.8-9.22 28.99-.85 1.77-4.58 3.93-5.79 3.37-2.14-1-4.6-3.87-4.77-6.11-1.06-14.33-2.65-28.77-1.93-43.06.94-18.38-2.66-36.3-3.44-54.47-.47-10.92-2.39-21.79-3.76-32.67-1.09-8.64-4.49-15.99-12.12-20.89-.8-.51-1.34-1.42-2.81-3.05 3.3-.9 6.06-2.51 8.55-2.18 8.2 1.1 16.33 2.76 24.42 4.53 1.96.43 3.69 2.04 5.46 3.2 4.08 2.68 4.1 4.82.66 8.44-1.15 1.21-2.12 3.16-2.14 4.78-.17 13.49-.6 27.01.05 40.47.59 12.08 2.16 24.13 3.87 36.12.88 6.19 5.58 9.61 10.57 9.04 7.18-.81 12.08-4.94 12.36-10.98.51-11.09 1.13-22.2.95-33.28-.21-13.04-1.28-26.06-1.88-39.09-.46-9.79-.37-19.62-1.29-29.36-.59-6.25-2.73-12.35-3.86-18.57-.62-3.4.13-7.17-.97-10.35-2.18-6.28-6.78-10.75-12.84-13.63-1.12-.53-2.09-1.37-3.15-2.07 5.93-8.2 14.79-9.36 22.35-3.87 4.55 3.31 9.61 6.18 14.83 8.26 8.54 3.41 9.73 7.34 5.12 14.86-2.24 3.64-2.81 8.65-3.03 13.09-.27 4.99.74 10.02 1.3 16.08zm21.51 50.63c.12-.01.25-.02.37-.03-.46-6.75-.34-13.6-1.53-20.21-1.29-7.12-3.44-14.14-5.93-20.95-1.56-4.26-5.52-6.99-10.17-5.95-3.75.84-6.55 3.8-6.72 8.17-.37 9.58-1.04 19.17-.89 28.74.14 8.75 1.29 17.48 1.84 26.23.75 11.84 1.28 23.7 2.11 35.53.11 1.58 1.01 3.59 2.22 4.54 4.44 3.5 12.14 2.27 14.58-2.81 2.11-4.4 3.74-9.45 3.94-14.27.53-12.98.18-25.99.18-38.99z"/><path d="m265.45 184.63c11.83-.88 23.72-1.33 35.46-2.89 3.79-.5 8.07-3.2 10.59-6.19 4.99-5.91 9.61-7.42 15.96-3.37 5.08 3.24 7.73 14.79 4.06 19.45-1.09 1.38-3.75 2.25-5.63 2.16-6.36-.31-12.67-1.47-19.03-1.72-8.15-.32-16.33-.31-24.48-.02-13.2.47-26.39 1.29-39.58 1.93-1.32.06-2.95.4-3.92-.21-1.82-1.14-3.26-2.88-4.85-4.36 1.45-1.17 2.79-3.17 4.36-3.38 8.94-1.2 17.94-1.98 26.93-2.89.04.5.08.99.13 1.49z"/></g></svg>