<svg enable-background="new 0 0 400 400" viewBox="0 0 400 400" xmlns="http://www.w3.org/2000/svg"><g fill="#000001"><path d="m75 176.46c0 13.6.37 27.22-.13 40.8-.34 9.32-1.83 18.61-2.91 27.89-.48 4.18-10.59 14.14-14.43 13.45-1.8-.32-4.37-3.57-4.35-5.48.05-5.52 1.07-11.06 2.03-16.53.89-5.09.87-9.98.29-15.21-.8-7.27.47-14.76.9-22.16.1-1.8.56-3.59.56-5.38.05-13-.24-26 .11-38.99.3-11.31-2.84-21.7-7.59-31.64-1.98-4.14-.92-6.05 2.9-7.29 7.5-2.44 15-3.56 22.38.43 3.73 2.02 7.48 4.01 11.15 6.16 4.45 2.6 8.98.69 8.97-4.45-.03-12.93-.21-25.9-1.2-38.78-.22-2.92-3.79-5.74-6.16-8.29-1.16-1.25-3.11-1.76-4.7-2.61-5.03-2.72-5.41-6.58-.28-9.05 6.72-3.25 13.78-5.87 20.9-8.11 2.17-.68 5.37.2 7.51 1.42 5.08 2.89 9.99 6.17 14.61 9.76 3.28 2.55 3.68 9.02.74 12.63-4.34 5.33-5.4 11.29-5.38 17.9.02 7.1-.75 14.2-.87 21.3-.11 6.53 3.46 9.18 9.42 6.66 4.3-1.82 8.31-4.47 12.2-7.12 4.66-3.17 9.47-3.84 14.32-1.18 4.69 2.58 9.35 5.4 13.48 8.78 3.09 2.53 3.6 6.15.28 9.38-.6.58-1.07 1.43-1.78 1.73-7.49 3.15-8.58 9.99-9.5 16.76-.34 2.49.35 5.11.52 7.68.35 5.11.35 10.26 1.08 15.31.56 3.84 3.24 3.78 5.05 1.01 7.03-10.73 13.78-21.4 16.21-34.6 1.68-9.13 6.49-17.66 9.59-26.57 2.3-6.62 5.01-13.49 1.95-20.47-1.8-4.11-4.59-7.86-7.36-11.44-2.13-2.76-2.25-4.23 1.4-5.22 4.39-1.19 8.66-3.09 13.11-3.68 2.81-.38 6.5.22 8.68 1.86 6.63 4.98 12.8 10.59 18.95 16.17 1.49 1.35 2.52 3.41 3.27 5.33 1.52 3.91.57 7.18-3.81 8.29-4.11 1.04-6.05 3.79-7.88 7.31-3.66 7.05-8.09 13.71-11.61 20.83-1.6 3.24-2.38 7.15-2.54 10.8-.87 20.52-.87 41.1-2.48 61.55-.42 5.34.27 10.31.43 15.44.66 21.38-1.52 42.72-.23 64.13.71 11.7-.71 23.52-.75 35.29-.03 10.1-4.12 17.86-11.85 24.08-3.76 3.03-7.71 4.27-11.98 1.64-3.75-2.31-3.92-5.92-3.33-10.1 2.17-15.4 5.72-30.57 5.28-46.39-.51-18.41.32-36.87.87-55.29.25-8.21 1.73-16.39 1.74-24.59.01-7.01-.81-14.11-2.15-21-1.18-6.1-7.24-7.45-11.65-3.13-.48.47-.88 1.03-1.41 1.41-9.58 6.94-12.48 16.12-11.97 27.94.4 9.4.06 19.32-4.52 28.34-2.35 4.64-5.93 7.42-10.62 8.7-2.57.7-5.23.65-6.72-2.99-1.13-2.76-3.62-5.05-5.77-7.31-2.96-3.11-3.25-6.2.01-8.98 5.52-4.72 6.7-10.94 7.02-17.69.51-11.03 1.51-22.05 1.78-33.09.11-4.51-1.48-9.03-1.73-13.58-.32-5.81.05-11.67-.13-17.49-.09-2.75-.48-5.57-1.24-8.21-1.31-4.53-6.69-6.13-11.92-3.82-3.48 1.54-6.94 8.61-6.81 12.26.23 6.5-.16 13.02-.21 19.53-.04 5.06.12 10.12.05 15.17-.12 8.94-.43 17.88-.52 26.82-.1 9.64-.09 19.28-.03 28.92.01 1.95.66 3.89.72 5.84.38 13.59.92 27.19.94 40.79.02 11.6-.1 23.24-1.18 34.76-.41 4.35-3.2 8.77-5.81 12.53-2.53 3.64-6.26 6.43-9.39 9.65-2.35 2.42-5.72 4.63-8.14 2.33-1.86-1.77-2.3-6.04-1.91-9 1.1-8.37 3.7-16.58 4.37-24.96 1.49-18.6 2.33-37.25 3.08-55.89.4-10.02-.05-20.07.11-30.1.11-6.77.94-13.54.89-20.3-.12-14.94-.55-29.87-.97-44.8-.16-5.61-.96-11.21-.85-16.8.08-3.89-1.24-5.7-4.96-6.55-3.87-.88-7.38-2.19-10.57 1.81-4.12 5.18-3.96 11.36-4.45 17.27-.57 6.79-.13 13.65-.13 20.49-.32-.02-.66-.02-.99-.02z"/><path d="m239.87 321.84c5.94-1.44 10.96-2.42 15.83-3.88 11.34-3.38 14.15-7.81 15.32-18.75 1.1-10.25 2.46-20.47 3.71-30.71.1-.82.23-1.64.25-2.46.35-14.26.62-28.53 1.04-42.79.19-6.44 1.17-12.89.86-19.29-.54-10.97-1.65-21.93-2.88-32.85-.6-5.31-4.27-7.25-9.49-7.17-10.33.16-20.66.06-30.99.04-5.68-.01-12.48-7.84-11.37-13.45.2-1.03 2.23-2.42 3.41-2.42 4.6.02 9.19.71 13.8.83 6.7.16 13.4.06 20.1.03 2.67-.01 5.4.2 8.01-.26 4.91-.87 6.4-4.7 6.47-9.04.16-9.16.17-18.33.01-27.49-.12-6.95.08-14.02-1.14-20.8-1.29-7.14-4.26-13.73-13.2-14.71-1.68-.19-3.33-2.02-4.67-3.41-.59-.61-.84-2.63-.43-2.95 5.4-4.2 10.67-8.7 16.55-12.12 4.6-2.68 9.86-1.28 14.67.73 7.17 3.01 14.34 6.03 21.51 9.04 7.43 3.11 11.24 8.42 3.38 14.86-5.51 4.51-6.88 10.03-4.88 16.75.41 1.39-.66 3.15-.67 4.74-.1 9.36-.05 18.72-.15 28.07-.03 2.61-.17 5.27-.65 7.83-.72 3.86.79 6.16 4.55 5.63 4.11-.58 8.57-1.37 12.02-3.48 11.39-6.97 13.84-4.97 23.78 1.85 2.49 1.71 4.75 4 6.56 6.43 3.6 4.85 2.02 10.09-3.81 10.96-6.23.94-12.69.36-19.04.55-6.91.21-13.87.12-20.71.95-4.61.55-6.87 4.21-6.59 8.87.91 15.3 2.19 30.59 2.85 45.9.3 6.91-.74 13.86-.84 20.79-.2 14.45.28 28.9-.99 43.34-.93 10.52-.58 21.22-2.24 31.6-2.47 15.42-11.57 26.82-24.85 34.85-3.41 2.07-6.99 1.61-8.73-2.09-4.45-9.5-12.34-15.08-21.13-19.84-1-.54-1.96-1.18-2.86-1.87-.5-.34-.83-.94-2.37-2.81z"/><path d="m232.7 196.72c11.57 3.73 27.66 23.48 26.45 34.72-.94 8.79-10.41 20.26-19.24 21.61-4.99.76-9.62-2.88-9.43-7.72.66-16.16 1.46-32.31 2.22-48.61z"/></g><path d="m2.6 9.9.8-1c.9.7 1.9 1.4 2.9 2.3l-.9 1.1c-1.1-1-2-1.8-2.8-2.4zm.5 10.6c.9-2.1 1.6-4.3 2.3-6.7.4.2.8.4 1.3.6-.7 2.1-1.5 4.3-2.2 6.6zm.3-15.2.9-.9c1 .8 2 1.6 2.8 2.4l-1 1c-.9-.9-1.8-1.7-2.7-2.5zm12.6-1.2h1.2v1.4h2.7v1.1h-2.7v2.7h-1.2v-.6h-1.8v1.3h4.9v3.8h-1.2v-.5h-3.7c0 .4-.1.9-.1 1.2h5.1v1h-5.2c0 .5-.1.9-.2 1.2h6v1h-5.2c1.1 1.3 2.9 2 5.5 2.2-.4.4-.7.8-.9 1.3-2.9-.5-4.8-1.6-5.7-3.5h-.1c-.8 1.7-2.7 2.9-5.9 3.6-.2-.4-.6-.8-.9-1.1 2.8-.6 4.6-1.4 5.4-2.5h-4.8v-1h5.3c.1-.3.2-.7.2-1.2h-4.9v-1h5c0-.4 0-.8.1-1.2h-3.6v.5h-1.2v-3.8h4.9v-1.3h-1.8v.5h-1.2v-2.7h-2.7v-1h2.7v-1.4h1.2v1.4h4.8zm-6.7 8.3h3.6c0-.4 0-.9 0-1.4h-3.6zm1.9-4.6h4.8v-1.3h-4.7v1.3zm6.7 3.2h-3.7v1.4h3.7v-2.4z" fill="#fafafb"/><path d="m8.7 22.1h1.3v2.2h2.8v-2.2h1.3v2.2h4.1v9.1h1.7v1.3h-17v-1.3h1.7v-9.1h4.1zm.3 13.1.7 1.2c-1.8.9-3.8 1.9-6 2.9-.2-.4-.5-.8-.8-1.3 2.3-1 4.4-1.9 6.1-2.8zm-3.1-6.4h2.8v-3.2h-2.8zm0 4.6h2.8v-3.3h-2.8zm4.1-4.6h2.8v-3.2h-2.8zm0 4.6h2.8v-3.3h-2.8zm3.6 1.9c2.1.9 4.1 1.8 6.1 2.7l-.7 1.4c-2.2-1.1-4.2-2-6.1-2.9zm3.2-9.7h-2.8v3.2h2.8zm-2.7 7.8h2.8v-3.3h-2.8z" fill="#fafafb"/></svg>