<svg enable-background="new 0 0 400 400" viewBox="0 0 400 400" xmlns="http://www.w3.org/2000/svg"><path d="m6.8 9.5c.6.3 1.3.7 2.1 1.1-.4.4-.7.8-.9 1.2-.7-.4-1.3-.8-1.8-1.1s-1.1-.6-1.6-.8c.2-.4.5-.8.7-1.2.4.2.8.5 1.5.8zm.9 6.9c-.3.6-.5 1.1-.7 1.7s-.4 1.1-.6 1.7c-.6-.4-1.1-.7-1.6-1 .7-1 1.2-1.8 1.5-2.4.3-.5.6-1.1.8-1.7.3-.6.5-1.2.8-1.8.3.3.8.6 1.3.8-.7 1.3-1.2 2.2-1.5 2.7zm.1-11c.4.3 1 .7 1.7 1.1-.5.2-.8.6-1.1 1.1-.5-.6-1-1-1.4-1.2s-.9-.6-1.5-.8c.2-.4.5-.7.9-1.1.5.3.9.6 1.4.9zm10.5 13.1c1 .4 2 .6 3.1.7-.4.4-.7.8-.8 1.3-.9-.2-1.9-.6-3-.9-1-.4-2-.9-2.8-1.6-.5.4-1.1.9-1.9 1.3s-1.9.9-3.3 1.2c-.1-.3-.5-.8-1.1-1.3 1 0 2.1-.3 3.2-.8 1.2-.5 1.9-1 2.3-1.7h-3.2c-.4 0-1 0-2 .1v-1.2c1 0 1.7.1 2 .1h3.3v-1h-2.3c-.2 0-.9 0-2 .1v-1.2c1.2 0 1.9.1 2 .1h2.3v-.8h-4.1c0-.7.1-1.2.1-1.6 0-.5 0-1.1-.1-1.8h4.1v-.7h-2.5c1-.6.1-1.1.1-1.6v-.6h-.5c-.4 0-1 0-1.8.1v-1.3c1.2 0 1.9.1 2.1.1h.2c0-.3 0-.8-.1-1.4h1.4c0 .6-.1 1-.1 1.4h3.4c0-.4 0-.8-.1-1.3h1.5c0 .4-.1.9-.1 1.3.7 0 1.5 0 2.5-.1v1.2c-1 0-1.8-.1-2.5-.1v.6c0 .3 0 .8.1 1.5h-2.5v.8h4.1c0 .7-.1 1.3-.1 1.8s0 1 .1 1.5h-4.1v.8h1.4c.8 0 1.8 0 2.9-.1v1.2c-1 0-1.9-.1-2.8-.1h-1.5v1h3.2c.3 0 1 0 2.1-.1v1.2c-1.1 0-1.8-.1-2.1-.1h-3.4l-.1.1c1.4 1 2.4 1.5 3.4 1.9zm-4.1-6.7v-1.3h-2.7v1.3zm2.2-4.1v-1.1h-3.4v1.1zm1.9 4.1v-1.3h-2.8v1.3z" fill="#fcfafa"/><path d="m37 6.7v2.3 5.4c1 0 1.8 0 2.2-.1v1.3c-.6 0-1.5-.1-2.5-.1h-11.9c-.7 0-1.3 0-1.8.1v-1.3c.5 0 1.1.1 2 .1v-5.2c0-1 0-1.8-.1-2.5h3.7c0-1.3 0-2.1-.1-2.5h1.5c0 .4-.1 1.3-.1 2.5h2.2c0-1.2 0-2.1-.1-2.6h1.5c0 .4-.1 1.3-.1 2.6zm-12.3 13.7c-.3-.4-.7-.8-1.1-1.1 1.1-.4 2.1-.9 2.9-1.3.8-.5 1.5-1 2.1-1.6.4.4.9.8 1.3 1.1-2.5 1.4-4.2 2.4-5.2 2.9zm3.9-10.1v-2.4h-2.2v2.4zm0 4.1v-2.9h-2.2v2.9zm3.5-4.1v-2.4h-2.2v2.4zm0 4.1v-2.9h-2.2v2.9zm.4 2.9 1-1.1c.6.3 1.4.7 2.5 1.3s2 1.1 2.7 1.5c-.4.4-.8.8-1.1 1.3-.8-.8-2.5-1.7-5.1-3zm3.1-7v-2.4h-2.1v2.4zm0 4.1v-2.9h-2.1v2.9z" fill="#fcfafa"/><g fill="#010100"><path d="m111.95 241.11c2.38-.69 4.71-1.64 7.14-2.01 5.62-.84 9.05-4.13 9.92-9.46.79-4.83 1.01-9.85.64-14.72-.11-1.42-2.98-3.45-4.81-3.73-2.81-.43-5.9.09-8.73.78-9.77 2.4-19.44 5.18-29.22 7.51-2.84.68-6.1.96-8.84.22-1.95-.53-3.98-2.85-4.74-4.85-.38-1 1.68-3.93 3.17-4.46 5.18-1.83 10.56-3.2 15.94-4.36 11.46-2.47 22.99-4.64 34.44-7.14 1.21-.26 2.54-1.7 3.1-2.92 2.18-4.76 3.21-9.64 1.77-15.01-.35-1.3 1.49-4.02 2.99-4.79 2.53-1.29 5.74-1.19 8.35-2.37 1.29-.58 1.9-2.7 2.82-4.12-1.5-.9-3.02-2.61-4.48-2.56-12.21.44-24.41 1.23-36.61 1.85-1.72.09-3.46-.16-5.78-.28 2.77-6.65 8.47-4.73 12.56-5.52 9.94-1.9 20.24-2.14 30.04-4.54 4.71-1.15 8.9-5.31 12.79-8.72 5.33-4.68 5.45-4.94 10.82-.18.94.84 1.93 1.63 2.8 2.54 5.36 5.6 4.57 8.41-1.83 13.14-5.14 3.8-10.21 7.72-14.98 11.96-4.56 4.06-4.32 5.19-.31 12.41 2.23 4 5.58 4.72 9.65 3.94 3.63-.7 7.27-1.39 10.92-2.08 1.4 5.04-1.74 6.25-4.69 7.25-3.07 1.04-6.28 1.7-9.46 2.37-4.72 1-6.58 4.36-6.27 8.6.86 11.88-2.08 23.13-5.14 34.37-.56 2.05-1.98 4.02-3.43 5.64-3.32 3.69-3.62 7.16-.24 10.85 2.86 3.12 5.88 6.1 8.98 8.98 3.81 3.54 4.9 7.83 4.81 12.92-.26 14.29 2.08 28.04 9.94 40.36 3.03 4.75 6.67 7.88 13.1 7.22 3.7-.38 7.59 1.75 11.42 1.84 4.59.11 9.23-.56 13.8-1.24 7.58-1.12 15.09-2.68 22.67-3.77 7.21-1.04 12.22-6.43 13.02-14.31.59-5.83 1.39-11.64 2.17-18.12 1.37.98 2.49 1.42 3.06 2.24 5.68 8.16 11.21 16.43 16.94 24.55 1.42 2.02 3.27 3.79 5.17 5.39 3.96 3.35 4.77 7.7 3.07 12.08-1.82 4.7-5.85 7.75-10.95 8.05-20.29 1.19-40.6 2.07-60.9 3.09-5.49.28-11 1.08-16.47.88-6.2-.23-12.5-.74-18.51-2.19-9.87-2.38-20.51-17.21-20.6-27.71-.05-5.5.38-11.03-.1-16.49-.82-9.45-2.18-18.86-3.31-28.28-.21-1.79-.45-3.58-.6-5.37-.43-5.11-2.02-9.36-7.24-11.62-1.88-.82-3.94-2.28-4.87-4.01-3.04-5.68-7.76-9.1-13.5-11.47-.62-.25-1.16-.68-1.74-1.03.15-.53.25-1.06.34-1.6z"/><path d="m181.39 241.36c2.45-1.77 4.84-3.62 7.35-5.28 6.38-4.23 13.27-7.83 19.08-12.71 5.84-4.9 11.09-10.71 15.74-16.77 4.04-5.27 1.36-11.07-.97-16.47-1.59-3.69-3.05-7.44-4.66-11.13-1.95-4.45-3.88-8.91-6.05-13.25-1.93-3.84-.19-4.85 3.25-4.72 14.21.51 28.31-.35 42.08-4.11 2.32-.63 4.79-2.23 6.28-4.11 6.35-8.04 13.58-7.92 19.65.68 5.49 7.78 5.06 8.81-2.35 14.44-4.28 3.26-7.82 7.51-11.59 11.42-4.52 4.69-9.24 9.24-13.31 14.31-4.68 5.83-4.06 9.42 2.61 13.04 10.22 5.55 20.41 11.32 32.44 12.43 4.16.38 8.17 2.23 12.33 2.84 9.56 1.4 19.17 2.44 30.08 3.79-3.15 1.99-5.52 4.04-8.27 5.12-6.74 2.64-12.54 6.39-17.37 11.85-6.08 6.87-11.93 7.63-22.74 2-11.06-5.76-21.05-13.6-31.41-20.67-4.55-3.11-8.71-6.77-13.28-9.84-4.16-2.79-8.46-.96-12.01 1.26-10.09 6.3-19.81 13.18-29.87 19.54-4.97 3.15-10.35 5.66-15.54 8.46-.48-.73-.98-1.42-1.47-2.12zm52.99-75.36c-5.3 0-9.53 2.29-10.34 6.22-1.03 4.97 1.89 10.18 6.81 12.16 6.93 2.78 18.16-2.57 20.07-9.78.82-3.09 1.43-6.74-3.16-7.49-4.03-.66-8.16-.71-13.38-1.11z"/><path d="m76.58 89.73c7.6-.26 14.7-.03 21.68-.85 7.56-.89 15.04-2.59 22.47-4.29 3.25-.74 4.75-3.22 4.32-6.78-.26-2.14-.29-4.36 0-6.49 1.05-7.63-1.31-13.93-7.17-18.86 2.11-5.97 6.76-4.82 10.78-4.04 3.79.73 7.6 1.97 11.02 3.73 3.03 1.56 7.53 3.89 7.84 6.33.51 4.02-1.17 8.8-6.38 10.87.27 1.01.69 2.03.82 3.09 1.45 11.42 1.44 11.34 13.08 11.6 5.43.12 10.86.58 16.28 1.03 1.02.08 2 .79 3.02 2.41-8.73 1.53-17.49 2.88-26.18 4.63-6.32 1.27-9.25 5.3-9.12 12.04.07 3.59.77 7.17.84 10.76.12 6.17 4.41 7.77 9.17 7.99 9.03.42 18.03-.03 26.15-4.91 4.62-2.78 8.15.78 10.97 3.06 3.8 3.08 6.63 7.44 9.59 11.46 2.37 3.22 1.05 5.71-2.52 6.71-3.11.87-6.43 1.87-9.55 1.61-4.2-.36-8.43-1.23-7.9-7.61.25-3.01-1.69-5.71-6.14-4.62-3.94.97-8.12 1.08-12.2 1.38-10 .73-20.24 2.99-29.93 1.54-8.72-1.31-15.96 2.9-24.13 2.74-5.62-.11-7.93 3.95-9.38 12.46-1.44 8.48-6.86 14.55-13.21 19.48-1.9 1.47-6.44.62-9.14-.59-1-.44-.68-5.08-.09-7.6 1.93-8.22 4.24-16.34 6.44-24.5.59-2.18 1.13-4.41 2.04-6.46 1.14-2.56 2.78-3.8 5.87-2.14 3.8 2.03 7.75 2.41 12.29 1.39 4.6-1.04 9.63-.05 14.44-.37 2.7-.18 5.42-.96 7.98-1.9 3.05-1.12 4.62-3.35 4.43-6.89-.24-4.32-.05-8.66-.06-12.99-.01-8.64-5.72-12.88-14.02-10.74-2.68.69-5.59.49-8.4.62-2.32.11-4.66.27-6.97.14-5.96-.36-11.92-.84-17.86-1.41-.33-.04-.54-1.35-1.17-3.03z"/><path d="m194.36 162.11c3.03-6.07 6.72-11.57 8.58-17.63 3.26-10.65 6-21.55 7.72-32.54.79-5.07-1.34-10.6-2.12-15.93-.21-1.45-.92-3.17-.41-4.33 1.69-3.79.06-6.44-1.97-9.46-2.57-3.8-1.02-6.78 3.61-7.12 2.39-.18 4.92.3 7.27.93 10.09 2.73 19.37-.77 28.81-3.4 3.9-1.09 7.89-2.32 11.89-2.51 7.58-.38 10.97 4.46 9.37 11.95-1.57 7.32-3.1 14.69-3.99 22.11-.6 5 1.39 8.81 7.15 10.04 2.55.54 4.78 2.55 6.63 3.6 3.76-.76 7.27-1.69 10.84-2.13 5.92-.73 11.87-1.21 17.82-1.66 4.04-.3 6.21 2.78 7.04 5.74.57 2.04-.52 5.7-2.16 6.94-3.26 2.48-7.3 5.06-11.19 5.36-11.58.89-23.27 1.26-34.86.71-6.45-.31-11.13-7.72-11.44-14.44-.45-9.7-1.13-19.4-2.01-29.07-.48-5.31-5.17-8.04-10.25-6.6-1.4.4-2.95.29-4.44.31-6.46.05-9.74 3.36-10.29 10-.48 5.87-1.25 11.71-1.96 17.56-.62 5.17-.81 10.48-2.13 15.48-1.89 7.17-3.35 14.6-8.73 20.41-3.9 4.21-7.28 8.91-11.1 13.2-1.97 2.22-4.28 4.45-7.68 2.48z"/><path d="m86.08 270.06c6.13 1.72 8.14 6.18 10.58 10.11 5.99 9.68 10.01 20.38 10.91 31.52.81 9.99-4.48 18.78-10.5 26.71-2.37 3.13-4.82 6.2-7.26 9.28-2.95 3.72-6.65 6.21-11.37 3.98-4.83-2.28-7.69-9.26-6.05-14.34 2.09-6.47 5.2-12.64 6.88-19.2 2.38-9.26 4.19-18.69 5.61-28.15.96-6.38.82-12.94 1.2-19.91z"/><path d="m263.06 254.26c9.24 4.36 18.76 8.22 27.62 13.24 8.49 4.81 16.84 9.99 22.82 18.29 3.8 5.28 4.67 10.51 1.99 16.07-2.43 5.05-6.45 8.58-12.44 9.14-4.76.44-9.37-2.58-11.13-7.12-5.75-14.83-13.53-28.37-25.03-39.62-2.3-2.26-3.75-5.39-5.59-8.12.59-.62 1.18-1.25 1.76-1.88z"/><path d="m218.6 259.52c-1.52 4.49-3.05 8.97-4.54 13.47-3.02 9.08-6.11 18.13-9 27.25-1.53 4.82-5.8 6.63-9.67 7.25-3.72.6-6.76-2.41-8.37-6.28-3.74-8.97-3.18-18.39-2.88-27.73.12-3.83 2.94-2.17 4.6-1.1 8.91 5.77 14.15 4.77 20.19-4.1 1.46-2.15 2.61-4.52 4.2-6.56.99-1.28 2.54-2.12 3.83-3.16.55.33 1.09.64 1.64.96z"/></g></svg>