<svg enable-background="new 0 0 400 400" viewBox="0 0 400 400" xmlns="http://www.w3.org/2000/svg"><path d="m362.1 8.8c1.1.8 2.1 1.6 3.1 2.4l-1 1.1c-1.3-1.1-2.3-2-3-2.5zm1.9 4.8c.5.2.9.4 1.4.5-.6 2.3-1.3 4.5-1.9 6.8l-1.5-.5c.8-2.1 1.4-4.3 2-6.8zm-1-9.4c1.3.9 2.4 1.8 3.4 2.5l-1 1.1c-1.4-1.2-2.4-2.1-3.2-2.6zm3.7 2.2v-1.4h10.3v1.2c-.5 3.6-1.8 6.8-4 9.4 1.5 1.6 3.4 2.8 5.7 3.8-.3.4-.7.8-1.1 1.4-2.3-1.1-4.1-2.5-5.6-4.1-1.6 1.6-3.6 3.1-5.9 4.3-.3-.5-.7-.9-1-1.3 2.4-1.1 4.4-2.5 6-4.1-1.9-2.5-3-5.6-3.3-9.3h-1.1zm8.8 0h-6.4c.3 3.3 1.3 6 3 8.2 2-2.2 3.1-5.1 3.4-8.2z" fill="#fbfcfa"/><path d="m385.3 3.8h1.3v2.2h2.8v-2.2h1.3v2.2h4.1v9.1h1.7v1.3h-16.9v-1.3h1.7v-9.1h4.1v-2.2zm.4 13.1.7 1.2c-1.8.9-3.8 1.9-6 2.9-.2-.4-.5-.8-.8-1.3 2.3-1 4.3-1.9 6.1-2.8zm-3.1-6.4h2.8v-3.2h-2.8zm0 4.6h2.8v-3.3h-2.8zm4-4.6h2.8v-3.2h-2.8zm0 4.6h2.8v-3.3h-2.8zm3.7 1.9c2.1.9 4.1 1.8 6.1 2.7l-.7 1.3c-2.2-1.1-4.2-2-6.1-2.9zm3.2-9.7h-2.8v3.2h2.8zm-2.8 7.8h2.8v-3.3h-2.8z" fill="#fbfcfa"/><g fill="#010102"><path d="m42.76 238.21c11.29 2.52 22.01-1.37 32.93-3.02 3.24-.49 6.51-.82 9.78-1.14 10.61-1.04 21.27-1.69 31.82-3.15 9.85-1.36 15.29-1.67 17.75-14.86.41-2.2 1.24-4.33 1.95-6.73-1.3-.67-2.54-1.32-3.51-1.82-.48-4.94-.65-9.73-1.46-14.41-1.29-7.37-6.38-10.22-13.68-8.81-11.05 2.13-22.16 3.99-33.29 5.6-2.01.29-4.74-.57-6.32-1.87-4.78-3.95-7.6-9.23-8.84-15.98 13.3 0 26.25.17 39.19-.09 4.69-.09 9.49-.74 14.01-1.98 7.85-2.16 8.78-4.16 7.94-12.15-.55-5.24-.89-10.53-.99-15.8-.17-9.29-3.27-11.67-12.46-9.82-17.87 3.59-35.77 7.05-53.72 10.27-2.06.37-5.23-.44-6.57-1.9-4.9-5.35-9.25-11.21-14.35-17.57 1.57-.24 3.31-1.07 4.63-.62 7.94 2.67 15.86 1.88 23.92.79 4.09-.55 8.35.18 12.48-.19 13.07-1.18 26.12-2.52 39.16-4.01 3.89-.45 5.93-2.32 6.05-7.09.33-13.46-1.62-26.6-5.49-39.31-1.41-4.64-5.75-8.63-9.39-12.28-3.21-3.22-3.28-6.56.7-8.79 4.26-2.39 8.21-2.47 12.97-.67 7.08 2.69 14.54 4.52 21.98 6.04 3 .61 4.28 1.93 3.95 4.39-.69 5.12-1.87 10.16-2.91 15.23-.12.6-.97 1.34-.81 1.67 3.86 7.75-.93 16.02 1.62 24.02 1.52 4.77 3.45 7.22 8.37 7.96 7.89 1.19 12.71-2.51 16.74-8.63 4.64-7.04 5.14-7.05 11.48-1.51 3.06 2.67 6.01 5.53 8.6 8.64 5.06 6.09 3.21 11.44-4.42 12.27-9.49 1.04-19.06 1.44-28.59 2.13-1.64.12-3.3.18-4.91.45-5.3.87-7.66 3.56-7.22 9.39.58 7.64.01 15.37.21 23.05.07 2.72.61 5.55 1.54 8.11 1.2 3.29 3.45 5.45 7.51 5.04 7.04-.71 13.34-2.8 18.42-8.04 5.3-5.47 8.66-4.7 11.63 2.39.44 1.04 1.16 1.97 1.71 2.97.96 1.74 1.89 3.5 2.83 5.25-2.31 1.13-4.52 2.89-6.94 3.23-3.92.54-8-.1-11.97.21-5.37.42-10.73 1.11-16.05 1.97-4.15.67-6.04 3.06-5.85 7.61.34 7.98 0 16 .12 23.99.13 8.4 2.84 9.93 10.9 11.67 6.61 1.42 10.57-2.56 15.77-4.12 7.61-2.28 15.65-3.09 23.3-5.27 4.75-1.35 9.16-3.96 13.62-6.21 3.9-1.97 5.38-5.63 5.31-9.7-.11-6.77-.55-13.53-.97-20.29-.6-9.7-1.1-19.41-2.02-29.08-1.02-10.76-2.83-21.45-3.62-32.22-.66-8.98-.09-18.04-.5-27.04-.53-11.77-.86-23.71-10.52-32.61-1.06-.97-1.92-2.26-2.58-3.54-1.39-2.68-1.15-4.37 2.42-5.32 6.1-1.63 11.93-4.28 18.05-5.85 7.06-1.81 14.27-2.15 21.22.85.87.38 1.99.89 2.33 1.64 2.82 6.15 6.21 12.18 7.83 18.65.63 2.52-2.29 6.55-4.57 8.99-2.07 2.22-5.45 3.21-7.53 4.35-1.19 6.38-2.73 12.5-3.41 18.72-1.28 11.76-2.46 23.56-2.96 35.38-.54 12.68-.34 25.35 2.7 37.89 1.57 6.47 1.24 13.38 2.31 20.01.59 3.62 1.8 7.35 3.62 10.52 3.6 6.28 10.19 4.55 15.31 3.67 13.61-2.33 27.06-5.65 40.54-8.73 4.85-1.11 8.95-3.19 11.94-7.76 4.17-6.36 10.47-10.04 18.01-6.94 3.86 1.59 6.93 5.5 9.89 8.78 5.27 5.86 10.29 11.95 15.15 18.15 1.27 1.62 2.66 4.5 2.02 5.92-.67 1.5-3.69 2.76-5.68 2.75-11.1-.06-22.21-.86-33.3-.75-7.2.07-14.5.69-21.55 2.12-6.27 1.27-12.3 1.38-17.68-1.69-6.72-3.85-13.31-2.49-20.08-1.2-2.69.51-5.34 1.26-7.95 1.89-2.09 13.91 3.1 25.64 10.23 36.7 3.17 4.92 9.56 3.9 13.37-1.9 3.94-5.99 7.7-12.11 11.59-18.14 5.32-8.24 9.32-10.63 19.22-3.76 3.89 2.7 6.98 6.93 9.47 11.05.86 1.42-.55 5.22-2.08 6.9-8.04 8.84-16.32 17.46-24.8 25.89-2.82 2.8-6.45 4.79-10.24 7.54 1.6 4.34 2.65 9.87 8.32 12.68.86.43 1.48 1.32 2.22 1.99 6.27 5.61 12.52 11.24 18.82 16.82 5.23 4.63 10.32 9.46 15.86 13.69 3.34 2.55 7.3 4.39 11.19 6.07 5.29 2.28 11.88-2.82 13.55-9.23 1.44-5.52 3.9-10.78 6.02-16.1 1.23-3.09 2.68-6.09 4.98-8.85-.73 3.56-1.54 7.11-2.16 10.69-.73 4.16-.94 8.45-2.01 12.52-2.05 7.85 1.62 14.91 3.73 21.73 3.03 9.79.21 12.89-6.27 16.95-6.12 3.84-13.77 5.39-20.92 7.34-1.61.44-4.07-1.44-5.87-2.65-6.61-4.47-13.49-8.67-19.56-13.81-7.71-6.52-14.26-14.46-22.18-20.69-8.95-7.05-14.4-16.66-21.14-25.35-3.25-4.19-5.62-4.76-10.25-2.09-7 4.03-14.06 7.96-21.03 12.05-1.82 1.07-3.31 2.69-5.09 3.84-3.24 2.11-6.5 4.21-9.88 6.06-6.28 3.43-12.68 6.66-18.99 10.03-9.23 4.92-18.2 10.39-27.7 14.72-12.24 5.58-24.81 10.5-37.41 15.22-5.99 2.25-11.3.64-11-2.51.45-4.7 4.85-4.84 8.48-5.73 1.84-.45 3.44-1.83 5.27-2.36 2.47-.72 5.2-.69 7.57-1.62 3.83-1.5 7.64-3.2 11.12-5.37 10.51-6.56 20.77-13.53 31.3-20.05 10.68-6.61 21.95-12.33 32.24-19.47 8.84-6.14 16.87-13.53 24.84-20.82 3.68-3.37 3.48-8.05 1.68-12.78-1.38-3.62-1.8-7.58-2.89-11.33-3.58-12.31-7.37-24.55-10.84-36.89-1.25-4.46-4.12-5.85-8.15-5.13-9.3 1.65-18.55 3.6-27.83 5.35-3.37.64-6.8.99-10.17 1.6-9.6 1.75-19.39 2.88-28.74 5.54-10.38 2.96-20.2 7.84-30.55 10.96-9.47 2.85-17.69 7.94-26.43 12.18-9.46 4.58-19.65 7.72-29.63 11.17-2.19.76-4.07-.15-6.18-2.47-5.52-6.07-12.09-11.17-18.17-16.74-1.43-1.31-2.55-2.94-3.82-4.43.48-.4.91-.74 1.34-1.07z"/><path d="m257.23 110.12c7.89-.59 15.03 2.19 21.19 6.29 6.39 4.25 12.19 9.63 17.44 15.27 3.43 3.68 5.53 8.64 7.92 13.19.37.7-.64 2.74-1.55 3.38-6.01 4.2-12.05 8.38-18.31 12.18-4.3 2.61-9.32-.14-11.03-5.2-.82-2.43-3.07-4.44-3.62-6.88-2.81-12.58-6.66-24.79-12.17-36.46-.18-.38.06-.96.13-1.77z"/></g></svg>