<svg enable-background="new 0 0 400 400" viewBox="0 0 400 400" xmlns="http://www.w3.org/2000/svg"><path d="m5.17 384 .55-.58c.85.61 1.65 1.24 2.4 1.87l-.59.64c-.83-.73-1.62-1.38-2.36-1.93m1.22 9.53-.82-.34c.71-1.76 1.37-3.64 1.98-5.63.24.13.5.25.76.36-.6 1.67-1.24 3.54-1.92 5.61m-.5-13.5.57-.54c.56.44 1.31 1.06 2.26 1.87l-.64.64c-.68-.66-1.41-1.32-2.19-1.97m3.25.46h2.24v-1.36h.77v1.36h4.57v-1.36h.76v1.36h2.28v.69h-2.28v1.84h-2.64v1.26h4.18v2.64h-4.21c0 .45-.02.86-.05 1.21h4.32v.69h-4.38c-.04.34-.1.75-.19 1.22h5.15v.69h-4.82c.87 1.19 2.51 1.92 4.93 2.19-.17.31-.3.57-.37.76-2.77-.49-4.52-1.41-5.26-2.76-.56 1.26-2.3 2.23-5.24 2.9-.12-.24-.26-.48-.43-.72 2.73-.55 4.38-1.34 4.96-2.38h-4.38v-.69h4.65c.1-.38.17-.79.21-1.22h-4.32v-.69h4.4c.03-.34.05-.75.05-1.21h-4.2v-2.64h4.23v-1.26h-2.69v-1.84h-2.24zm1.46 4.46v1.29h3.45c.01-.4.02-.57.01-.53v-.32-.45h-3.46zm1.55-2.59h4.57v-1.19h-4.57zm6.11 2.59h-3.42v.77c-.01.19-.01.37-.02.53h3.44v-1.29z" fill="#fcfbfa"/><path d="m32.63 379.16h.82v1.98h3.54v7.89h1.46v.78h-14.37v-.78h1.46v-7.89h3.54v-1.98h.82v1.98h2.73zm-3.49 11.48.5.73c-1.61.82-3.28 1.63-5 2.41-.13-.27-.28-.55-.44-.82 1.75-.72 3.4-1.49 4.94-2.32m-2.78-5.55h2.73v-3.18h-2.73zm0 3.95h2.73v-3.2h-2.73zm3.54-3.95h2.73v-3.18h-2.73zm0 3.95h2.73v-3.2h-2.73zm7.89 4.68c-1.84-.92-3.51-1.7-5.02-2.32l.45-.73c1.89.8 3.57 1.55 5.04 2.23zm-1.62-11.81h-2.73v3.18h2.73zm-2.73 7.13h2.73v-3.2h-2.73z" fill="#fcfbfa"/><g fill="#010102"><path d="m356.97 131.32c-8.2 4.35-15.32 8.09-23.94 5.21-1.22-.41-2.59-.51-3.89-.51-16.67-.03-33.33.07-50-.08-4.47-.04-6.19 1.56-6.21 6.11-.06 15.75.35 15.3 14.51 14.96 2.5-.06 5.07-.39 7.49.06 7.75 1.43 12.71-2.03 16.79-8.24 3.98-6.05 7.71-6.37 12.46-.96 3.03 3.45 5.9 7.46 7.4 11.73 1.88 5.34-1.39 11.89-8.71 11.5-12.58-.67-25.2-.62-37.8-1.14-8.94-.37-11.39 3.95-9.37 12.44.23.95.22 1.96.31 2.94.45 5.03 2.52 8.39 7.39 11.04 6.68 3.64 12.95 8.34 18.63 13.43 4.29 3.84 5.22 8.62.92 13.19-.88.94-2.3 1.84-3.53 1.92-7.59.49-15.2.81-22.8 1.07-6.95.23-7.86 1.74-5.85 8.64 1.27 4.36 1.05 9.29 2.92 13.3 2.93 6.28 6.25 12.73 10.86 17.79 8.48 9.31 17.32 18.56 27.3 26.15 9.41 7.15 20.22 12.63 30.88 17.9 7.82 3.87 16.4 6.18 24.62 9.25 4.11 1.54 6.46 4.86 6.31 8.33-8.55 1.7-16.97 4.4-25.51 4.81-9.67.47-16.49 5.4-23.76 10.57-4.27 3.03-9.38 4.03-14.17.35-8.3-6.38-16.5-12.91-24.88-19.19-10.88-8.15-15.29-20.34-20.27-32.13-1.61-3.8-2.61-8.04-2.95-12.16-1.25-14.94-2.03-29.93-3.17-44.88-.29-3.78-1.89-6.61-6.61-5.72-5.56 1.05-11.32 1.41-16.7 3.03-5.48 1.64-8.09 8.1-6.86 15.54.59 3.55 1.07 7.14 1.21 10.73.75 18.7 1.72 37.4 1.92 56.1.14 12.76-3.73 24.78-10.02 35.83-3.35 5.89-12.08 9.23-16.26 6.49-4.78-3.13-8.52-7.7-9.39-13.38-.68-4.48.08-9.24.62-13.83.87-7.3 2.8-14.54 3.04-21.84.71-21.42.72-42.87 1.21-64.3.09-4.12-1.12-6.04-5.35-5.35-7.87 1.29-15.78 2.39-23.56 4.08-1.96.42-4.48 2.46-5.07 4.29-3.62 11.27-7.93 22.51-9.8 34.12-2.96 18.38-11.05 33.78-22.32 48.15-14.2 18.1-31.6 32.04-52.26 41.94-2.85 1.37-6.21 1.82-9.39 2.3-.97.15-2.51-.8-3.08-1.7-.35-.55.36-2.28 1.09-2.92 4.11-3.66 8.51-6.99 12.53-10.74 5.16-4.82 9.57-10.58 15.16-14.78 10.26-7.71 13.83-19.7 19.14-30.11 6.63-13.02 10.52-27.55 14.58-41.72 2.42-8.41 3.86-17.37 3.96-26.1.08-7.34-2.39-14.71-3.76-22.06-.59-3.18-1.94-6.38-1.73-9.5.29-4.47 4.31-5.57 7.86-2.74 4.04 3.23 8.15 6.15 10.57 11.15.77 1.59 4.64 2.35 7.09 2.34 7.09-.02 14.2-.33 21.25-1.08 8.43-.89 16.9-1.88 25.18-3.65 16.19-3.47 32.25-7.55 48.39-11.27 4.29-.99 6.04-5.04 3.76-10.17-3.31-7.46-5.63-14.91-3.55-23.27.28-1.13-2.47-4.33-3.82-4.33-7.58.01-15.17.52-22.73 1.22-6.51.6-12.98 1.68-19.47 2.55-3.8.51-4.61-1.29-4.86-4.87-.66-9.61 3.33-10.78 11.3-10.33 3.97.23 8.01-1.54 12.05-1.71 7.15-.31 14.33-.1 21.5-.08 3.59.01 5.84-.91 4.37-5.23-.41-1.2-.09-2.65-.1-3.98-.04-9.33-5.29-12.95-14.42-11.79-10.78 1.36-21.72 1.56-32.61 1.89-3.67.11-7.17-5.93-6.54-11.23.47-3.94 3.41-5.5 7.28-5.69 3.64-.18 7.56 1.21 10.53-2.6 4.42-5.67 6.12-12.23 6.65-19.11.25-3.28-1.45-5.66-5.45-5.29-2.15.2-4.38-.26-6.49.09-6.91 1.12-11.23-7.53-9.74-13.4.2-.77 1.18-1.65 1.99-1.92 10.73-3.58 21.81-4.16 33-3.74 1.16.04 2.34.09 3.5-.01 9.45-.81 13.32-6.34 11.59-15.65-.66-3.53.09-7.29-.12-10.93-.28-4.67-1.2-9.31-1.23-13.97-.01-2.32.74-5.49 2.33-6.67 1.16-.86 4.32.77 6.49 1.56 3.01 1.09 5.82 2.95 8.9 3.58 7.01 1.42 13.33 8.38 13.34 15.41 0 5.17.08 10.33-.03 15.5-.05 2.52.65 3.7 3.4 4.41 8.79 2.27 17.47 2.74 26.05-.5 1.72-.65 3.41-2.09 4.46-3.62 2.11-3.07 5.05-3.12 7.59-1.82 6.32 3.24 10.11 8.74 11.46 15.69.48 2.5.38 4.92-3.49 5.12-8.37.43-16.71 1.41-25.08 1.86-5.94.32-7.19 2.18-4.45 7.6.44.86 1.09 1.62 1.57 2.47 2.78 4.9 2.72 7.47-1.26 12.26-3.05 3.66-6.32 7.14-9.19 10.93-2.31 3.05-.55 5.28 2.55 5.68 5.54.71 11.19 1.27 16.73.87 2.31-.16 4.62-2.73 6.61-4.55 4.14-3.78 7.94-7.93 12.18-11.58.82-.71 3.35-.38 4.47.38 5.94 4.03 11.95 8.05 17.4 12.7 2.75 2.33 4.45 6.02 6.96 9.57zm-107.02-7.81c4.8-.21 8.23-.7 11.6-.42 3.8.32 5.46-1.57 7.34-4.48 5.46-8.49 3.29-18.48 5.84-27.53.8-2.82-3.31-5.45-6.46-4.81-1.75.36-3.54.48-5.31.74-7.1 1.05-14.27 1.8-21.29 3.27-5.07 1.06-6.01 3.42-4.76 8.58 1.23 5.05 2.32 10.14 3.61 15.18 1.94 7.53 3.38 8.75 9.43 9.47z"/><path d="m127.13 115.65c5.81 0 11.35.66 16.67-.15 9.16-1.39 12.86-9.26 17.15-16.21 1.11-1.79 2-4.09 3.64-5.08 1.45-.88 4.57-1.12 5.64-.17 7.65 6.8 14.69 14.25 16.57 24.85.49 2.78-.8 5.84-.75 8.76.22 14.6.66 29.2.93 43.8.11 6.02-2.05 10.65-7.78 13.65-3.27 1.72-5.75 4.88-8.88 6.95-5.28 3.51-8.13 2.18-9.39-3.96-.26-1.27-.81-2.51-.9-3.78-.65-9.48-3.57-11.79-12.8-10.27-6.61 1.09-13.23 2.2-19.88 2.92-9.11.99-12.71 7.77-15.17 14.92-7.95 23.11-21.03 42.95-37.38 60.83-11.45 12.52-24.21 23.54-38.15 33.22-2.34 1.63-4.73 3.1-6.98.8-2.5-2.56-.44-5.09 1.32-7.14 14.22-16.63 28.77-32.99 42.66-49.9 8.91-10.84 13.91-23.8 17.4-37.36 2.8-10.86 6.19-21.58 8.83-32.47 1.54-6.32 2.84-12.85 3-19.32.41-17.16.74-34.36-.08-51.48-.53-11.03-2.78-22.04-4.96-32.92-1.34-6.7-.38-11.62 5.81-16.6 4.13 5.22 8.31 10.41 12.39 15.68 2 2.58 3.7 5.39 5.71 7.97 5.39 6.93 8.25 8.37 16.31 4.68 9.85-4.52 19.4-9.92 28.42-15.95 4.59-3.07 8.66-7.83 11.26-12.73 3.7-6.95 7.05-6.51 12.36-3.12 14.29 9.12 13.96 22.84 3.93 33.03-2.85 2.9-8.1 3.97-12.45 4.76-14.62 2.66-29.32 4.84-44.01 7.14-9.81 1.53-13.81 7.73-11.92 17.5 1.03 5.46.99 11.14 1.48 17.15zm27.6 45.75c1.72-5.01 3.6-8.88 4.29-12.95.79-4.63 1.06-9.52.42-14.14-.23-1.66-3.82-4.2-5.72-4.07-7.79.53-15.67 1.31-23.22 3.19-6.68 1.66-8.48 5.33-8.5 12.57 0 2.66.05 5.33-.01 7.99-.08 3.22 1.19 5.7 4.5 5.94 9.67.67 19.37 1.03 28.24 1.47z"/></g></svg>