<svg enable-background="new 0 0 400 400" viewBox="0 0 400 400" xmlns="http://www.w3.org/2000/svg"><path d="m5.17 384 .55-.58c.85.61 1.65 1.24 2.4 1.87l-.59.64c-.83-.73-1.62-1.38-2.36-1.93m1.22 9.53-.82-.34c.71-1.76 1.37-3.64 1.98-5.63.24.13.5.25.76.36-.6 1.67-1.24 3.54-1.92 5.61m-.5-13.5.57-.54c.56.44 1.31 1.06 2.26 1.87l-.64.64c-.68-.66-1.41-1.32-2.19-1.97m3.25.46h2.24v-1.36h.77v1.36h4.57v-1.36h.76v1.36h2.28v.69h-2.28v1.84h-2.64v1.26h4.18v2.64h-4.21c0 .45-.02.86-.05 1.21h4.32v.69h-4.38c-.04.34-.1.75-.19 1.22h5.15v.69h-4.82c.87 1.19 2.51 1.92 4.93 2.19-.17.31-.3.57-.37.76-2.77-.49-4.52-1.41-5.26-2.76-.56 1.26-2.3 2.23-5.24 2.9-.12-.24-.26-.48-.43-.72 2.73-.55 4.38-1.34 4.96-2.38h-4.38v-.69h4.65c.1-.38.17-.79.21-1.22h-4.32v-.69h4.4c.03-.34.05-.75.05-1.21h-4.2v-2.64h4.23v-1.26h-2.69v-1.84h-2.24zm1.46 4.46v1.29h3.45c.01-.4.02-.57.01-.53v-.32-.45h-3.46zm1.55-2.59h4.57v-1.19h-4.57zm6.11 2.59h-3.42v.77c-.01.19-.01.37-.02.53h3.44v-1.29z" fill="#fcfbfa"/><path d="m32.63 379.16h.82v1.98h3.54v7.89h1.46v.78h-14.37v-.78h1.46v-7.89h3.54v-1.98h.82v1.98h2.73zm-3.49 11.48.5.73c-1.61.82-3.28 1.63-5 2.41-.13-.27-.28-.55-.44-.82 1.75-.72 3.4-1.49 4.94-2.32m-2.78-5.55h2.73v-3.18h-2.73zm0 3.95h2.73v-3.2h-2.73zm3.54-3.95h2.73v-3.18h-2.73zm0 3.95h2.73v-3.2h-2.73zm7.89 4.68c-1.84-.92-3.51-1.7-5.02-2.32l.45-.73c1.89.8 3.57 1.55 5.04 2.23zm-1.62-11.81h-2.73v3.18h2.73zm-2.73 7.13h2.73v-3.2h-2.73z" fill="#fcfbfa"/><g fill="#010102"><path d="m303.77 300.43c-3.94 5.84-10.34 4.86-15.64 6.52-2.93.91-5.99 1.36-8.98 2.1-11.99 2.96-24.05 5.68-35.93 9.04-7.47 2.11-14.66 5.23-21.99 7.86-11.32 4.05-22.67 7.98-33.95 12.13-4.12 1.52-7.98 3.76-12.13 5.17-1.49.5-4.33.12-5.11-.93-5.52-7.48-10.93-15.08-15.79-22.99-1.97-3.2-.45-6.32 3.58-7.33 2.99-.76 6-1.71 9.04-1.91 12.52-.83 25.08-1.13 37.58-2.18 7.94-.67 15.78-2.56 23.71-3.44 7.77-.85 9.22-6.31 9.79-12.43.83-8.84 1.44-17.71 2.04-26.57.73-10.86 1.53-21.72 1.95-32.59.3-7.71-1.81-8.94-9.2-7.29-3.5.78-7.28.4-10.93.41-11.96.04-16.24 3.62-16.69 15.53-.33 8.86-6.25 14.27-11.41 19.9-3.42 3.74-11.98 1.64-12.45-8.07-.52-10.84.83-21.77 1.39-32.65.06-1.15.29-2.29.34-3.44.68-16.53 1.56-33.06 1.95-49.6.32-13.69.05-27.4.08-41.1 0-1.72.3-3.44.58-6.56 3.21 1.99 5.41 3.39 7.64 4.72 3.49 2.09 7.69 3.51 10.38 6.36 5.78 6.13 12.9 5.1 19.86 4.79 3.84-.17 7.81-1.06 11.39-2.46 4.38-1.72 5.69-5.87 6.15-10.32.56-5.51 1.29-11.01 1.94-16.51.04-.33.05-.67.03-1-1.19-20.98-1.82-42.06-15.56-59.84-3.17-4.1-1.58-6.38 3.7-6.8 11.26-.89 21.97 1.41 31.44 7.18 5.39 3.29 9.75 8.47 14 13.3.92 1.05-.24 4.42-1.09 6.44-1.93 4.6-5.56 8.85-6.2 13.55-1.74 12.69-2.32 25.54-3.25 38.34-.22 2.99-.27 6.05.14 9.01.16 1.15 1.82 2.99 2.8 2.99 9.1.03 18.29.43 27.26-.74 6.26-.81 11.54-4.66 15.02-10.57 2.31-3.93 6.46-3.11 9.78-1.78 5.12 2.05 9.98 4.78 14.89 7.32 3.69 1.91 3.63 5.57 2.92 8.69-2.87 12.51-4.46 25.08-5.08 37.95-.68 13.86-2.61 27.72-4.94 41.41-1.66 9.77-12.68 26.46-20.96 29.25-1.26-3.04-2.91-6.09-3.8-9.35-1.93-7.12-4.36-8.2-11.68-7.35-5.87.68-11.96-.13-17.91-.66-8.39-.74-9.65 1.62-9.42 9.6.48 17.04 1.24 34.07 2 51.1.11 2.42.61 4.89 1.37 7.19 2.04 6.14 7.49 7.96 16.52 5.72 8.71-2.14 14.39-1.3 18.83 2.89zm6.16-146.54c-.31-.07-.62-.14-.93-.2 0-1.33-.18-2.69.03-3.99 1.18-7.49-3.96-10.98-10.58-10.68-5.43.25-10.96.07-16.23 1.15-5.41 1.1-12.08 1.54-14.38 7.72-2.07 5.56-3.61 11.68-3.63 17.56-.04 11.86 1.22 23.71 1.75 35.58.26 5.79 4.9 9.68 10.67 8.78 4.84-.76 9.73-1.14 14.58-1.82 6.9-.96 9.71-1.89 11.47-8.57 1.32-5.02 1.66-10.31 2.29-15.49.5-4.13.54-8.33 1.24-12.42 1.03-5.92 2.46-11.75 3.72-17.62zm-68 9.73c.58-14.98-5.62-19.56-14.7-18.59-5.37.57-10.74 1.22-16.07 2.07-1.01.16-2.37 1.22-2.68 2.16-.77 2.29-1.4 4.76-1.42 7.16-.12 15.32-.12 30.64-.01 45.96.02 2.93.51 5.89 1.13 8.76.23 1.06 1.37 2.55 2.3 2.72 8.3 1.51 16.64 1.98 24.76-1 3.49-1.28 5.71-3.66 5.78-7.71.27-14.44.63-28.88.91-41.53z"/><path d="m48.21 141.52c11.35.54 21.25 1.29 31.15 1.39 8.43.08 16.89-.29 25.27-1.14 1.92-.19 4.67-2.88 5.12-4.86 1.54-6.82 2.68-13.81 3.13-20.79.52-7.96.97-16.09-.03-23.96-1.62-12.75.89-26.11-4.9-38.23-2.43-5.09-5.76-9.75-8.34-15.99 2.45.51 4.98.8 7.33 1.61 2.68.92 5.41 2 7.77 3.54 6.61 4.33 15.03 5.73 20.18 12.34 7.24 9.3 5.47 20.62-4.99 25.85-1.67.84-2.49 4.36-2.78 6.75-.45 3.78.06 7.66-.16 11.48-.56 10.04-1.57 20.06-1.89 30.1-.3 9.66 4.43 13.64 13.89 12.33 1.04-.14 2.11-.77 2.98-1.43 3.29-2.5 6.23-5.62 9.83-7.46 2.22-1.14 5.62-1.09 8.13-.36 7.88 2.29 14.5 12.49 14.15 20.52-.12 2.79-1.14 3.96-3.9 3.79-12.18-.79-24.49 1.69-36.6-1.8-1.52-.44-4.7 1-5.43 2.43-1.88 3.69-3.66 7.8-3.95 11.86-.59 8.29-.25 16.65-.16 24.98.08 7.56 3.79 10.54 10.78 8.04 4.94-1.77 9.4-4.86 14.24-6.96 6.61-2.86 13.38-5.34 20.08-7.99.41.43.81.86 1.22 1.29-.99 1.35-1.7 3.11-3.01 3.99-12.67 8.6-25.51 16.95-38.08 25.69-1.71 1.19-2.9 4.06-3.13 6.27-1.29 12.48-.41 24.89.62 37.41 1.1 13.4.47 26.97.16 40.46-.17 7.36-.46 14.88-2.07 22.02-2.64 11.71-9.47 21.04-19.05 28.38-3.78 2.9-7.04 6.5-10.86 9.35-3.96 2.95-6.17 2.22-8.24-2.23-1.1-2.35-1.63-4.97-2.78-7.28-2.39-4.79-4.76-9.63-7.62-14.13-3.32-5.23-3.06-6.49 3.03-7.77 3.98-.83 8.01-1.54 12.05-1.98 7.05-.76 12.56-5.57 13.58-12.6.92-6.31 1.97-12.66 2.15-19.02.52-18.16.68-36.33.87-54.49.04-3.9-2.3-5.44-5.93-3.28-5.16 3.07-9.52 7.55-14.78 10.41-11.11 6.06-19.11 15.52-27.94 24.1-1.98 1.93-4.26 3.58-5.69-.13-2.8-7.25-5.34-14.62-7.62-22.05-1.76-5.72-.36-7.88 5.21-9.98 5.63-2.12 11.38-4.02 16.79-6.62 8.51-4.09 16.77-8.7 25.15-13.05 3.32-1.72 6.66-3.39 10.05-4.95 3.4-1.57 4.9-4.16 4.81-7.84-.07-2.66.04-5.33-.02-8-.2-9.54-.01-18.93 3.05-28.24 1.23-3.75.42-8.39-.31-12.47-.44-2.46-2.52-3.88-5.81-3.97-15.07-.43-30.07.22-44.8 3.35-5.69 1.21-7.12-2.74-8.67-5.77-1.77-3.47-2.03-7.73-3.23-12.91z"/><path d="m293.85 253.54c2.45.17 4.45 0 6.27.49 4.37 1.18 8.73 2.46 12.92 4.16 1.62.66 2.56 2.88 4.15 3.78 3.96 2.23 7.98 4.47 12.22 6.03 7.94 2.92 12.46 9.26 16.93 15.77.92 1.34 1.72 2.86 2.91 3.92 10.85 9.63 11.41 26.98 2.31 38.66-2.87 3.68-8.61 5.03-12.84 7.75-9.26 5.96-13.22 2.2-16.59-6.51-3.21-8.31-5.06-17.14-8.27-25.45-5.49-14.19-11.57-28.15-17.4-42.21-.75-1.8-1.47-3.6-2.61-6.39z"/></g></svg>