<svg enable-background="new 0 0 400 400" viewBox="0 0 400 400" xmlns="http://www.w3.org/2000/svg"><path d="m5.17 384 .55-.58c.85.61 1.65 1.24 2.4 1.87l-.59.64c-.83-.73-1.62-1.38-2.36-1.93m1.22 9.53-.82-.34c.71-1.76 1.37-3.64 1.98-5.63.24.13.5.25.76.36-.6 1.67-1.24 3.54-1.92 5.61m-.5-13.5.57-.54c.56.44 1.31 1.06 2.26 1.87l-.64.64c-.68-.66-1.41-1.32-2.19-1.97m3.25.46h2.24v-1.36h.77v1.36h4.57v-1.36h.76v1.36h2.28v.69h-2.28v1.84h-2.64v1.26h4.18v2.64h-4.21c0 .45-.02.86-.05 1.21h4.32v.69h-4.38c-.04.34-.1.75-.19 1.22h5.15v.69h-4.82c.87 1.19 2.51 1.92 4.93 2.19-.17.31-.3.57-.37.76-2.77-.49-4.52-1.41-5.26-2.76-.56 1.26-2.3 2.23-5.24 2.9-.12-.24-.26-.48-.43-.72 2.73-.55 4.38-1.34 4.96-2.38h-4.38v-.69h4.65c.1-.38.17-.79.21-1.22h-4.32v-.69h4.4c.03-.34.05-.75.05-1.21h-4.2v-2.64h4.23v-1.26h-2.69v-1.84h-2.24zm1.46 4.46v1.29h3.45c.01-.4.02-.57.01-.53v-.32-.45h-3.46zm1.55-2.59h4.57v-1.19h-4.57zm6.11 2.59h-3.42v.77c-.01.19-.01.37-.02.53h3.44v-1.29z" fill="#fcfbfa"/><path d="m32.63 379.16h.82v1.98h3.54v7.89h1.46v.78h-14.37v-.78h1.46v-7.89h3.54v-1.98h.82v1.98h2.73zm-3.49 11.48.5.73c-1.61.82-3.28 1.63-5 2.41-.13-.27-.28-.55-.44-.82 1.75-.72 3.4-1.49 4.94-2.32m-2.78-5.55h2.73v-3.18h-2.73zm0 3.95h2.73v-3.2h-2.73zm3.54-3.95h2.73v-3.18h-2.73zm0 3.95h2.73v-3.2h-2.73zm7.89 4.68c-1.84-.92-3.51-1.7-5.02-2.32l.45-.73c1.89.8 3.57 1.55 5.04 2.23zm-1.62-11.81h-2.73v3.18h2.73zm-2.73 7.13h2.73v-3.2h-2.73z" fill="#fcfbfa"/><g fill="#010102"><path d="m152.9 128.63c4.68 4.96 9.08 9.24 12.94 13.96 1.09 1.34 1.06 4.06.64 5.94-.17.77-2.73 1.31-4.24 1.42-10.51.77-21.08 1.01-31.55 2.2-6.63.76-8.8 4.07-8.67 10.88.26 14.77.54 29.54 1.13 44.3.07 1.67 1.93 3.95 3.52 4.61 1 .41 3.12-1.57 4.56-2.71.71-.57 1.41-1.66 1.41-2.52.02-8.93 6.73-12.36 12.7-17.13 6.91-5.53 12.5-12.74 18.58-19.29 2.46-2.65 4.65-5.54 7.08-8.21 5.99-6.58 8.85-14.63 11.55-22.92 1.48-4.56 4.41-8.62 6.38-13.04 4.62-10.34 8.76-20.73 6.25-32.57-.65-3.06.76-6.5.75-9.77-.02-5.41-.42-10.82-.65-16.08 5.6-.51 6.84 4.62 9.61 7.74 6.45 7.26 13.06 14.41 18.98 22.09 5.86 7.6 3.67 15.48-4.57 20.92-1.75 1.15-2.62 3.66-3.85 5.57-2.96 4.59-6.1 9.09-8.79 13.83-3.76 6.64-1.43 10.79 5.97 12.19 8.75 1.65 17.19.26 25.89-.78 10.02-1.19 20.3-.17 30.46-.36 2.83-.05 5.63-.98 10.04-1.81-4.15-8.7-7.85-16.35-11.43-24.04-.74-1.59-1.46-3.36-1.53-5.08-.46-11.26-.78-22.53-1.05-33.8-.16-6.57-2.28-7.91-8.62-7.05-7.98 1.09-16.08 1.28-24.13 1.83-.64.04-1.38 0-1.95-.27-3.47-1.67-7.39-15.5-5.28-18.79 2.57-4.01 6.63-2.96 10.33-2.73 8.54.53 17.12 1.93 25.6 1.44 3.36-.19 6.5-4.44 9.68-6.92.46-.36.54-1.18.91-1.72 5.07-7.52 7.79-7.67 13.51-.31 2.79 3.59 5.29 7.47 7.47 11.46 4.71 8.65 1.74 16.5-7.36 20.23-1.62.66-4.43 1.02-4.65 1.98-.8 3.47-2.04 7.76-.71 10.62 3.35 7.16 7.88 13.79 12.2 20.45 2.22 3.42 4.74 6.75 7.63 9.6 3.43 3.38 7.3 6.37 11.18 9.24 9.06 6.69 18.04 13.52 27.45 19.67 5.12 3.34 11.07 5.41 16.63 8.08 1.18.56 2.4 1.1 3.42 1.89 3.75 2.91 3.63 4.69-.56 6.74-6.87 3.36-13.56 7.31-20.78 9.66-10.1 3.28-15.09 4.61-22.36-4.13-.74-.89-1.6-1.7-2.47-2.48-4.71-4.27-8.95-3.71-10.98 2.24s-3.26 12.26-4.1 18.51c-2.08 15.59-4.82 30.99-13.25 44.58-1.98 3.2-5.59 5.47-8.65 7.91-2.82 2.25-6 4.04-8.85 6.25-2.41 1.86-5.77.63-8.39-3.63-1.18-1.92-2.74-4.18-2.64-6.21.33-6.92-4.64-11.29-7.27-16.76-.71-1.47-1.54-2.87-2.33-4.29-1.51-2.74-.49-4.05 2.42-4.25 1.33-.09 2.71.14 3.99-.12 10.12-2.05 12.01-3.93 13.89-14.6 1.81-10.28 3.72-20.57 4.85-30.93.71-6.51-4.44-10.9-10.86-10.26-5.2.51-10.36 1.57-15.56 1.78-3.36.14-4.81 1.73-4.34 4.48 1.42 8.41-2.73 14.62-7.05 21.14-2.99 4.52-3.92 10.46-7.11 14.76-6.77 9.1-14.42 17.55-21.82 26.39-1.9-1.24-2.94-1.92-3.98-2.59-.26.3-.65.59-.6.74 2.32 7.24-4.16 9.6-7.87 12.63-8.32 6.78-17.44 12.57-26.22 18.78-5.62 3.97-6.27 7.12-4.57 14.06 1.51 6.15 2.46 12.5 3.04 18.82.96 10.51 1.23 21.08 2.15 31.59.66 7.54-2.99 13.45-5.9 19.91-2.96 6.58-9.47 9.15-13.66 14.22-.7.85-3 1.32-3.91.81-1.2-.68-2.57-2.59-2.44-3.81.44-4 .86-8.22 2.49-11.82 6.58-14.54 11.33-29.51 12.35-45.52.39-6.1.58-12.21 1.04-18.3.31-4.13-1.62-6.91-4.79-9.13-5.48-3.84-5.63-5.43-.14-8.6 9.24-5.34 18.73-10.24 27.97-15.57 3.58-2.06 6.79-4.76 9.11-6.41 2.11-4.03 3.25-7.98 5.75-10.67 10.4-11.21 14.88-25.12 19.08-39.26.88-2.95 2.49-5.75 2.96-8.74.51-3.26.4-6.7-.02-9.98-.45-3.54-2.74-5.52-6.51-4.8-4.91.94-7.44-1.6-9.42-5.64-1.27-2.59-3.16-4.89-5.12-7.86-3.07 2.35-5.82 4.07-8.11 6.28-6.83 6.6-13.36 13.52-20.23 20.06-5.06 4.82-10.52 9.21-15.74 13.86-2.75 2.45-3.7 5.26-1.64 8.76 4.64 7.88 3.87 10.17-4.29 14.55-6.05 3.24-11.95 6.74-18.01 9.96-5.61 2.98-4.45 8.69-4.66 13.13-.83 17.74-.46 35.55-1.34 53.29-.66 13.26-1.65 26.64-4.19 39.63-2.7 13.81-12.53 23.43-23.34 31.85-.64.5-1.4.82-2.04 1.32-3.72 2.9-5.81 2.43-7.17-2.1-1.54-5.13-2.85-10.35-3.87-15.6-1.58-8.18-5.95-14.4-12.49-19.29-.66-.49-1.22-1.14-1.76-1.77-.39-.46-.68-1.02-1.32-2.01 6.85-1.29 12.82.43 18.23 3.2 6.38 3.26 10.44 2.14 11.99-4.58 3.67-15.9 5.01-32.01 4.09-48.3-.33-5.93-.69-11.87-.99-17.81-.35-6.94-2.81-8.8-9.19-6.23-3.87 1.57-7.44 3.92-11.07 6.05-6.3 3.69-12.67 7.28-18.75 11.3-5.15 3.4-9.95 7.34-16.25 12.04-.26-9.03-.62-16.81-.58-24.6.01-1.18 1.7-2.71 2.97-3.48 6.28-3.8 12.61-7.55 19.08-11 2.67-1.43 5.7-2.28 8.65-3.05 9.91-2.58 18.86-7.25 22.37-17.12 2.91-8.17 3.73-17.2 4.63-25.93.91-8.87.43-17.89 1.22-26.78 1.01-11.47-4.92-13.04-15.55-11.83-9.69 1.11-19.28 3.13-28.93 4.63-3.72.58-6.8-.06-7.96-4.53-.42-1.62-2.28-2.82-3.01-4.42-.78-1.7-1.61-3.82-1.2-5.45.22-.86 3.02-1.46 4.68-1.5 7.2-.16 14.4.06 21.6-.11 6.11-.14 12.2-.63 18.3-.97 5.63-.31 8.19-4.19 8.79-8.92 1.7-13.5 5.66-26.74 4.26-40.61-1.01-10-.6-20.21-2.42-30.03-1.01-5.44-5.51-10.17-8.07-15.4-1.86-3.8-3.1-7.91-4.62-11.88.42-.64.85-1.28 1.27-1.92 7.89-.1 16.15-1.75 23.57.06 10.64 2.59 18.32 10.66 24.15 19.84 3.66 5.77 1.06 19.93-4.97 25.14-5.78 5-6.96 10.77-7.15 17.95-.34 12.81-1.74 25.6-2.83 38.39-.39 4.59 4.61 8.12 10.23 7.35 7.42-1.02 13.27-4.02 16.9-10.96.93-1.78 3.16-2.92 4.77-4.34z"/><path d="m280.17 290.28c1.94 2.57 4.47 4.89 5.72 7.76 4.9 11.23 13.15 19.89 21.32 28.58 7.15 7.6 10.02 16.35 8.76 26.57-.78 6.31-7.41 11.72-14.44 11.82-25.28.34-50.55.7-75.83.98-8.47.09-15.46-2.59-20.53-10.05-2.4-3.52-6.13-6.22-9.54-8.95-4.59-3.68-5.76-8.42-5.61-14 .21-7.69.05-15.39.04-23.09 0-.33-.04-.66-.05-1-.67-14.03-1.35-28.06-2-42.09-.07-1.47-.01-2.95-.01-4.65 7.49-.71 11.44 4.86 16.56 7.99.48.3.6 1.48 1.01 1.56 7.63 1.42 5.56 6.46 4.55 11.4-1.24 6.07-2.59 12.18-3 18.34-.66 10.03 2.93 18.98 9.06 26.77 1.36 1.73 4 2.61 6.22 3.48 13.52 5.29 27.58 7.21 42.04 6.29 3.11-.2 6.4-.13 9.23-1.19 2.12-.79 4.83-2.98 5.18-4.93.99-5.49 1.22-11.18 1.17-16.79-.07-8.08-.66-16.15-1.03-24.23.38-.2.78-.39 1.18-.57z"/><path d="m297.8 258.72c11.35-2.42 20.01 1.96 28.98 4.65 5.13 1.54 10.25 3.09 15.38 4.63.47.14 1.17-.01 1.43.27 5.68 6.26 13.62 10.73 15.89 19.73.22.89.47 2.04.1 2.77-2.82 5.62-5.35 11.47-8.83 16.67-3.92 5.86-17.83 3.35-21.12-3.18-3.86-7.64-7.99-15.16-12.37-22.52-3.15-5.29-6.65-10.43-10.49-15.25-2.19-2.74-5.36-4.7-8.97-7.77z"/><path d="m223.06 250.81c2.55 2.84 5.47 5.42 7.58 8.55 6.83 10.14 13.34 20.49 20.01 30.73 3.16 4.86 2.6 9.87.79 14.96-.21.59-.64 1.58-.97 1.59-5.11.05-10.64 1.12-15.17-.54-2.61-.95-4.6-6.22-5.1-9.8-1.52-10.71-1.86-21.6-3.34-32.32-.58-4.2-2.96-8.16-4.52-12.23.23-.31.47-.63.72-.94z"/></g></svg>