<svg enable-background="new 0 0 400 400" viewBox="0 0 400 400" xmlns="http://www.w3.org/2000/svg"><path d="m5.17 384 .55-.58c.85.61 1.65 1.24 2.4 1.87l-.59.64c-.83-.73-1.62-1.38-2.36-1.93m1.22 9.53-.82-.34c.71-1.76 1.37-3.64 1.98-5.63.24.13.5.25.76.36-.6 1.67-1.24 3.54-1.92 5.61m-.5-13.5.57-.54c.56.44 1.31 1.06 2.26 1.87l-.64.64c-.68-.66-1.41-1.32-2.19-1.97m3.25.46h2.24v-1.36h.77v1.36h4.57v-1.36h.76v1.36h2.28v.69h-2.28v1.84h-2.64v1.26h4.18v2.64h-4.21c0 .45-.02.86-.05 1.21h4.32v.69h-4.38c-.04.34-.1.75-.19 1.22h5.15v.69h-4.82c.87 1.19 2.51 1.92 4.93 2.19-.17.31-.3.57-.37.76-2.77-.49-4.52-1.41-5.26-2.76-.56 1.26-2.3 2.23-5.24 2.9-.12-.24-.26-.48-.43-.72 2.73-.55 4.38-1.34 4.96-2.38h-4.38v-.69h4.65c.1-.38.17-.79.21-1.22h-4.32v-.69h4.4c.03-.34.05-.75.05-1.21h-4.2v-2.64h4.23v-1.26h-2.69v-1.84h-2.24zm1.46 4.46v1.29h3.45c.01-.4.02-.57.01-.53v-.32-.45h-3.46zm1.55-2.59h4.57v-1.19h-4.57zm6.11 2.59h-3.42v.77c-.01.19-.01.37-.02.53h3.44v-1.29z" fill="#fcfbfa"/><path d="m32.63 379.16h.82v1.98h3.54v7.89h1.46v.78h-14.37v-.78h1.46v-7.89h3.54v-1.98h.82v1.98h2.73zm-3.49 11.48.5.73c-1.61.82-3.28 1.63-5 2.41-.13-.27-.28-.55-.44-.82 1.75-.72 3.4-1.49 4.94-2.32m-2.78-5.55h2.73v-3.18h-2.73zm0 3.95h2.73v-3.2h-2.73zm3.54-3.95h2.73v-3.18h-2.73zm0 3.95h2.73v-3.2h-2.73zm7.89 4.68c-1.84-.92-3.51-1.7-5.02-2.32l.45-.73c1.89.8 3.57 1.55 5.04 2.23zm-1.62-11.81h-2.73v3.18h2.73zm-2.73 7.13h2.73v-3.2h-2.73z" fill="#fcfbfa"/><g fill="#010102"><path d="m186.35 195.45c7.54 5 15.71 7.6 19.87 15.82 1.97 3.88 6.38 4.2 10.49 3.67 4.7-.61 9.38-1.39 14.09-1.92 4.27-.48 6.66-3.26 7.08-6.95.78-6.87 1.42-13.87.92-20.73-.56-7.66-7.59-10.36-14.91-6.77-3.75 1.84-7.81 3.06-11.76 4.47-4.43 1.59-8.87 3.12-13.34 4.58-1.02.33-2.19.24-3.28.34-.33-.46-.65-.92-.98-1.38 2.95-2.55 5.66-5.47 8.9-7.56 6.44-4.15 13.12-7.95 19.82-11.68 3.05-1.71 6.3-3.14 9.6-4.31 3.73-1.33 6.69-8.65 5.45-12.33-3.31-9.84-9.29-17.83-16.26-25.26-1.08-1.15-1.62-2.8-2.37-4.25-1.46-2.81-.27-4.01 2.58-4.16.33-.02.67 0 1-.01 10.16-.37 10.41-.45 13.69-10.13 1.68-4.95 4.2-9.81 1.29-15.4-.76-1.46.92-4.04.97-6.11.02-1.03-1.42-3.07-1.7-2.98-4.69 1.41-10.18-.31-14.22 4.27-1.32 1.5-4.94 1.25-7.51 1.27-2.45.02-3.84.62-4.76 3.1-2.07 5.56-4.99 10.85-6.63 16.52-1.21 4.19-.57 8.89-1.43 13.22-2.29 11.48-3.59 23.41-7.82 34.17-5.16 13.17-11.84 25.77-20.43 37.45-5.84 7.95-12.21 14.53-20.22 19.95-2.09 1.41-3.35 4.01-5.17 5.89-.72.74-1.92 1.01-2.91 1.49-.35-1.14-1.16-2.37-.95-3.39.31-1.52 1.15-3.03 2.09-4.3 5.03-6.8 10.42-13.34 15.17-20.32 5.03-7.4 6.99-15.99 8.37-24.76 1.88-11.92 4.44-23.74 6.19-35.67 1.08-7.31 1.43-14.75 1.68-22.15.28-8.16-.27-16.35.17-24.49.35-6.38-2.35-11.16-6.46-15.36-2.58-2.63-1.68-4.32.75-5.98 7.89-5.4 16.32-3.77 22.95 3.04 2.81 2.89 7.44 4.77 11.53 5.49 7.74 1.36 15.71 1.38 23.54 2.33 2.12.26 4.08 1.85 6.89 3.19.58-1.76 1.68-3.47 1.61-5.14-.51-11.54-1.1-23.08-2.12-34.58-.15-1.64-2.49-3.45-4.23-4.52-3.42-2.1-9.34-2.17-8.34-7.87.83-4.76 6.18-4.03 9.82-5.29 4.94-1.71 9.09-.42 13.6 1.79 4.17 2.05 9.01 2.7 13.41 4.34 4.26 1.58 8.57 3.55 9.28 8.81.31 2.31.21 4.89-.49 7.09-1.99 6.3-2.86 12.97-7.41 18.4-3.11 3.72.23 9.49 5.6 9.51 6.57.03 13.17-.64 19.72-1.31 4.51-.46 9.13-.96 13.39-2.36 3.1-1.02 6.03-3.2 8.47-5.47 3.67-3.41 6.75-7.43 10.26-11.02 2.12-2.18 4.19-3.72 7.57-1.06 6.27 4.93 13.2 9.01 19.44 13.97 2.58 2.05 4.28 5.33 6.04 8.26 6.79 11.27-.29 17.14-9.63 20.19-10.81 3.53-21.93 6.67-30.36 15.36 3.14 2.81 6.07 5.46 9.04 8.06 3.28 2.88 4.91 6.48-.12 10.82-6.38 5.51-13.75 9.9-20.78 14.64-3.92 2.64-8.18 4.77-12 7.54-4.24 3.07-3.97 7.06.83 9.37 3.9 1.88 8.2 3.07 12.45 4.05 10.13 2.34 20.28 4.69 30.52 6.42 5.34.9 10.92.31 16.36.76 2.55.21 5.02 1.28 7.66 1.99-1.98 6.38-6.78 7.37-11.11 8.88-7.44 2.59-11.6 9.11-16.68 14.34-2.49 2.56-1.91 6.17 1.65 9.22 4.8 4.1 9.13 8.9 12.98 13.92 5.12 6.68 3.39 13.33-4.96 15.64-6.87 1.9-13.5 4.67-20.28 6.91-3.25 1.08-4.11 3.36-3.7 6.38.66 4.85 1.45 9.69 2.18 14.53.67 4.47-1.46 7.18-5.04 9.75-11.55 8.29-22.93 16.81-34.17 25.52-4.69 3.64-3.69 12.43 1.82 14.54 8.44 3.23 17.1 6.06 25.88 8.2 11.23 2.74 22.63 4.84 34.03 6.77 4.4.74 9 .19 13.5.39 1.76.08 3.62.34 5.22 1.04 1.11.48 2.54 1.81 2.58 2.81.05 1.34-.75 3.21-1.82 3.99-1.95 1.43-4.28 2.87-6.6 3.16-9.86 1.25-15.79 8.71-22.96 14.12-8.62 6.5-13.79 6.58-23.26.96-12.91-7.66-26.17-14.71-39.2-22.17-4.38-2.51-8.47-5.53-12.76-8.2-4.68-2.91-9.09-5.01-14.58-.77-18.78 14.5-40.27 24.53-61.91 33.49-10.25 4.25-20.5 8.95-31.07 12.59-1.51.52-3.21 1.04-4.74.84-2.72-.35-3.65-2.11-1.8-4.39 1-1.23 2.41-2.47 3.87-2.91 14.61-4.47 27.84-11.98 40.47-20.13 8.01-5.17 16.97-9.08 23.47-17.08 4.64-5.72 12.32-8.95 18.56-13.4 9.68-6.9 8.46-7.44 5.01-16.55-2.85-7.53-6.42-15.52-11.92-21.08-4.18-4.23-8.58-8.4-12.62-12.88-2.16-2.4-3.48-1.66-5.25 1.01-4.44 6.68-5.17 14.35-6.61 21.82-1.71 8.86-6.4 15.83-12.22 22.5-6.23 7.15-11.31 15.3-17.64 22.34-7.16 7.97-15.08 15.27-22.83 22.69-3.19 3.05-6.68 5.83-10.25 8.43-3.52 2.57-7.35 4.71-10.98 7.14-6.36 4.27-12.55 8.82-19.06 12.84-3.23 2-6.92 3.47-10.6 4.47-3.01.82-5.78-2.73-4.07-5.32 1.69-2.57 4.27-5 7.02-6.37 17.77-8.86 33.18-21.16 47.22-34.75 10.15-9.82 19.06-21.39 26.37-33.48 4.68-7.74 5.94-17.74 7.8-26.92 2.42-11.97 3.94-24.13 5.77-36.22.18-1.22-.29-2.52-.24-3.77.51-11.5 1-23 1.69-34.49.11-1.55 1.31-2.97 2.28-5.01zm134.76 4.84c.16-.85.31-1.7.47-2.55-5.64-3.82-10.92-8.38-16.99-11.27-9.59-4.58-19.73-7.98-29.59-12.01-2.84-1.16-5.62-2.56-8.22-4.17-5.9-3.65-11.75-7.62-18.57-2.2-2.28 1.81-4.71 3.98-5.72 6.52-.37.93 2.95 3.81 5.03 5.11 4.28 2.67 8.88 4.82 13.31 7.26 3.63 2 4.79 4.9 3.75 9.06-.66 2.67-.6 5.59-.41 8.36.06.9 1.44 2.3 2.39 2.46 3.55.61 7.21 1.32 10.75 1.03 7.97-.66 15.95-1.62 23.83-2.98 6.71-1.15 13.31-3.05 19.97-4.62zm-56.83-116.96c.6 7.69.95 15.05 1.82 22.36.74 6.18 4.89 9.89 9.41 9.31 5.64-.73 11.29-1.48 16.96-1.96 8.7-.74 11.2-3.22 11.55-11.81.04-1.12.38-2.23.58-3.34.8-4.45 1.64-8.88 2.38-13.34.54-3.27-1.39-4.56-4.24-4.47-2.93.09-5.84.68-8.77.92-9.81.79-19.63 1.54-29.69 2.33zm45.72 140.14c.01-7.71-.86-8.44-8.26-7.45-9.86 1.31-19.77 2.39-29.54 4.17-2.45.45-5.74 2.76-6.45 4.92-1.39 4.24-1.74 9.02-1.56 13.53.18 4.42 2.73 7.29 7.86 6.37 2.41-.43 4.84-.91 7.27-.97 6.35-.15 11.4-1.82 15.33-7.67 2.03-3.02 3.31-8.7 9.47-7.43 4.86 1.02 6.85-1.26 5.88-5.47zm-105.99 29.12c7.86-.83 15.26-1.06 22.42-2.49 11.35-2.26 14.34-6.58 13.57-17.55-.33-4.64-3.32-7.75-7.91-7.49-8.2.47-16.41 1.13-24.56 2.14-1.32.16-3.29 2.54-3.37 3.97-.35 6.77-.15 13.57-.15 21.42zm56.62 9.42c-.01-.08-.01-.15-.02-.23-5.75.42-11.51.69-17.24 1.32-2.55.28-5.06 1.14-7.5 1.99-4.71 1.63-5.59 3.76-3.96 8.67 2 6 5.84 10.58 11.2 13.72 3.5 2.06 7.06 2.16 10.19-1.25 5.4-5.9 10.99-11.63 16.41-17.52.88-.96 2.09-3 1.75-3.43-1.1-1.37-2.72-2.71-4.38-3.15-2.02-.52-4.28-.12-6.45-.12zm11.32-138.76c-.08.22-.17.45-.25.67-4.75.36-9.49.69-14.24 1.08-3.58.3-7.18.5-10.72 1.06-2.93.46-3.98 2.46-3.01 5.28 2.08 6.07 6.51 9.92 12.15 12.6 4.57 2.17 7.01-1.68 10.24-3.46 4.59-2.53 7.21-8.03 13.63-8.05 2.65-.01 3.28-4.68.72-6.24-2.51-1.52-5.65-2-8.52-2.94z"/><path d="m78.42 310.15c.58-5.34 4.53-6.28 8.25-7.05 3.35-.7 6.83-.92 10.27-1.06 4.96-.19 7.63-2.73 8.01-8.61.27-4.17-.17-8.39.11-12.57.49-7.37.03-15.14 2.3-21.96 2.57-7.73.81-15.2 1.54-22.73.06-.64-.78-1.36-1.19-2.03-11.21 2.75-19.03 9.65-25.82 18.59-4.78 6.3-10.83 11.66-16.57 17.18-.68.65-3.76.21-4.35-.65-5.19-7.66-10.32-15.39-14.83-23.46-.98-1.76-.11-5.49 1.24-7.36 1.72-2.39 4.63-4.1 7.31-5.59 5.31-2.95 10.92-5.35 16.2-8.35 4.95-2.82 9.55-6.23 14.44-9.16 4.28-2.56 8.63-5.06 13.15-7.15 7-3.25 10.38-8.42 10.58-16.2.36-13.86 1.22-27.72 1.72-41.58.08-2.24-.23-4.67-1.04-6.74-3.34-8.56-2.72-17.22-2.16-26.18.53-8.46-1.15-17.03-1.46-25.57-.31-8.49-.19-16.99-.09-25.49.05-3.98.01-7.19-5.19-8.31-2.75-.59-5.01-3.45-8.86-6.31 6.79-4.12 11.97-7.45 17.36-10.39 1.2-.65 3.48-.48 4.69.26 5.12 3.1 10.04 6.54 15.01 9.89 1.49 1 2.8 2.32 4.36 3.16 5.64 3.02 6.76 5.1 4.94 11.46-2.09 7.31-4.56 14.5-6.81 21.76-1.89 6.09-2.63 11.96-1.1 18.59 1.5 6.5.39 13.57.63 20.39.06 1.65.51 4.15 1.57 4.69 1.22.62 3.46-.23 5.01-.96 2.71-1.28 5.32-4.28 7.79-4.1 2.65.19 5.26 3.02 7.59 5.04 3.48 3.03 7.46 5.88 9.83 9.68 2.51 4.03.68 6.39-4.07 6.7-6.76.45-13.54.64-20.3 1.07-2.43.15-4.88.5-7.24 1.11-.83.21-1.99 1.48-1.98 2.25.12 8.09.32 16.19.82 24.27.11 1.72 1.15 4.36 2.38 4.79 1.58.55 4.05-.27 5.69-1.26 4.99-3 9.62-6.63 14.69-9.48 3.55-2 4.55-.38 4.32 3.62-.31 5.23-3.78 7.71-7.09 10.67-7.75 6.91-15.1 14.18-18.21 24.53-.55 1.84-.74 3.83-.86 5.76-1.18 19.07-2.43 38.11-2.22 57.26.11 9.62-.86 19.48-3.03 28.84-3.08 13.27-7.74 26.23-17.31 36.52-4.92 5.3-9.43 4.24-12.22-2.34-.82-1.95-1.64-3.92-2.2-5.95-2.36-8.66-7.3-15.26-15.6-19.49z"/><path d="m41.59 145.5c1.89-.64 4.58-2.11 7.4-2.41 14.17-1.52 28.38-2.79 42.58-4.02 3.14-.27 6.43-.56 9.43.13 1.87.42 3.74 2.4 4.83 4.16.95 1.54.92 3.75 1.14 5.69.71 6.21-1.19 7.88-7.36 9.06-11.94 2.29-23.77 5.18-35.64 7.85-2.52.57-5.05 1.89-7.5 1.73-1.84-.12-4.26-1.66-5.2-3.27-3.28-5.69-6.04-11.69-9.68-18.92zm37.78 7.2c6.12 3.61 8.58 3.06 10.45-2.15-3.45.71-6.5 1.34-10.45 2.15z"/></g></svg>