<svg enable-background="new 0 0 400 400" viewBox="0 0 400 400" xmlns="http://www.w3.org/2000/svg"><path d="m5.17 384 .55-.58c.85.61 1.65 1.24 2.4 1.87l-.59.64c-.83-.73-1.62-1.38-2.36-1.93m1.22 9.53-.82-.34c.71-1.76 1.37-3.64 1.98-5.63.24.13.5.25.76.36-.6 1.67-1.24 3.54-1.92 5.61m-.5-13.5.57-.54c.56.44 1.31 1.06 2.26 1.87l-.64.64c-.68-.66-1.41-1.32-2.19-1.97m3.25.46h2.24v-1.36h.77v1.36h4.57v-1.36h.76v1.36h2.28v.69h-2.28v1.84h-2.64v1.26h4.18v2.64h-4.21c0 .45-.02.86-.05 1.21h4.32v.69h-4.38c-.04.34-.1.75-.19 1.22h5.15v.69h-4.82c.87 1.19 2.51 1.92 4.93 2.19-.17.31-.3.57-.37.76-2.77-.49-4.52-1.41-5.26-2.76-.56 1.26-2.3 2.23-5.24 2.9-.12-.24-.26-.48-.43-.72 2.73-.55 4.38-1.34 4.96-2.38h-4.38v-.69h4.65c.1-.38.17-.79.21-1.22h-4.32v-.69h4.4c.03-.34.05-.75.05-1.21h-4.2v-2.64h4.23v-1.26h-2.69v-1.84h-2.24zm1.46 4.46v1.29h3.45c.01-.4.02-.57.01-.53v-.32-.45h-3.46zm1.55-2.59h4.57v-1.19h-4.57zm6.11 2.59h-3.42v.77c-.01.19-.01.37-.02.53h3.44v-1.29z" fill="#fcfbfa"/><path d="m32.63 379.16h.82v1.98h3.54v7.89h1.46v.78h-14.37v-.78h1.46v-7.89h3.54v-1.98h.82v1.98h2.73zm-3.49 11.48.5.73c-1.61.82-3.28 1.63-5 2.41-.13-.27-.28-.55-.44-.82 1.75-.72 3.4-1.49 4.94-2.32m-2.78-5.55h2.73v-3.18h-2.73zm0 3.95h2.73v-3.2h-2.73zm3.54-3.95h2.73v-3.18h-2.73zm0 3.95h2.73v-3.2h-2.73zm7.89 4.68c-1.84-.92-3.51-1.7-5.02-2.32l.45-.73c1.89.8 3.57 1.55 5.04 2.23zm-1.62-11.81h-2.73v3.18h2.73zm-2.73 7.13h2.73v-3.2h-2.73z" fill="#fcfbfa"/><g fill="#010102"><path d="m194.03 202.32c2.08-4.33 4.1-8.69 6.26-12.98 7.64-15.19 13.73-30.94 17.84-47.46.58-2.34 2.03-4.46 2.79-6.78 6.29-19.11 12.93-38.11 18.62-57.39 5.02-17 9.07-34.31 7.49-52.33-.11-1.31-.02-2.63-.02-5.49 5.04 2.64 9.44 4.51 13.34 7.11 4.75 3.17 9.09 6.96 13.62 10.47 1.16.9 2.38 1.72 3.59 2.56 2.13 1.47 6.13 3.02 6.06 4.36-.2 3.7-1.69 7.51-3.42 10.9-3.15 6.21-8.07 11.77-10.03 18.27-3.91 12.99-10.74 24.37-16.92 36.18-1.78 3.41-1.96 7.66-3.1 12.5 8.52-.49 15.74-.78 22.93-1.35 5.38-.43 10.75-1.84 16.1-1.74 8.45.16 15.19-3.23 21.44-8.28 3.57-2.88 6.95-6.06 10.78-8.56 1.72-1.13 5.21-2.05 6.37-1.13 7.07 5.57 13.95 11.45 20.38 17.76 2.98 2.92.02 9.63-4.73 10.96-3.28.91-6.85 1.11-10.29 1.06-7.1-.11-14.2-.71-21.3-.91-5.85-.16-11.72-.29-17.56.04-5.48.32-10.92 1.38-16.39 1.9-8.18.77-16.41 2.19-24.55 1.82-10.84-.5-17.2 5.2-21.82 13.58-1.3 2.35-.56 5.99-.29 8.99.35 3.86 1.52 7.67 1.72 11.53.53 10.08.41 20.21 1.24 30.27.3 3.73 2.77 7.24 3.77 10.98 1.29 4.85 1.76 9.93 3.26 14.7.63 2 3 3.44 4.58 5.14 1.46-1.51 3.47-2.76 4.29-4.56 7.41-16.12 15.67-31.96 21.52-48.64 3.98-11.35 6.66-23.11 13.16-33.72 6.07 2.53 12.04 5.29 15.95 11.17.67 1 1.77 2.36 2.73 2.41 5.39.29 6.06 4.11 6.57 8.17.08.65.1 1.33.3 1.95.54 1.67 2.12 3.89 1.54 4.86-1.04 1.75-3.16 3.37-5.15 3.95-9.42 2.75-14.26 8.53-16.53 18.37-1.97 8.57-6.98 16.42-10.37 24.7-3.14 7.65-5.91 15.45-8.85 23.18-.06.15-.01.37-.1.48-7.77 8.86-.67 15.59 3.99 21.71 6.43 8.43 14.24 15.8 21.34 23.73 8.97 10.01 20.91 16 31.96 23 6.52 4.13 14.78 5.49 22.16 8.34 1.95.75 3.54 2.42 5.3 3.66-1.49 1.41-2.75 3.43-4.52 4.13-6.74 2.68-12.5 7.09-20.08 8.59-8.49 1.68-14.4-1.17-20.09-6.13-4.02-3.5-7.79-5.95-13.48-3.63-3.17 1.29-11.9-5.67-12.45-9.27-.95-6.27-1.15-6.15-7.22-5.63-2.16.19-4.9-.9-6.64-2.31-7.38-5.98-14.45-12.34-21.69-18.49-3.52-2.99-6.99-2.61-10.47.46-7.04 6.19-14.24 12.2-21.36 18.3-9.05 7.74-18.02 15.57-27.16 23.2-2.45 2.05-5.47 3.41-8.05 5.33-4.2 3.13-8.24 6.46-12.36 9.7-11.78 9.26-24.97 16.05-38.66 21.9-6.66 2.84-13.46 5.35-20.19 8.02-.33-.77-.67-1.54-1-2.31 3.23-1.51 6.42-3.12 9.7-4.51 10.48-4.45 21.3-8.22 31.36-13.46 5.25-2.73 9.06-8.11 13.73-12.06 11.91-10.07 24.17-19.74 35.76-30.16 3.88-3.49 6.97-8.4 9.04-13.26 4.1-9.59 10.53-17.29 17.36-24.87 4.47-4.96 5.6-11.16 4.18-17.39-2.02-8.87-5.66-17.42-7.09-26.35-1.86-11.65-2.15-23.55-3.28-35.32-.4-4.2-1.17-8.38-1.98-12.53-.68-3.48-2.79-3.61-4.84-1.26-4.53 5.18-8.76 10.62-13.22 15.86-1.62 1.91-3.54 3.56-5.33 5.32-.51-.45-1.02-.88-1.54-1.31z"/><path d="m60.94 98.12c4.01 4.85 7.81 8.91 10.99 13.42 6.46 9.15 8.92 8.88 19.04 6.97 5.76-1.08 11.63-1.9 17.15-3.74 2.34-.78 5-3.6 5.63-5.99 1.64-6.28 2.74-12.79 3.12-19.27.51-8.64.13-17.32.12-25.99 0-5.85.15-11.71-.13-17.55-.07-1.38-1.65-2.66-2.42-4.05-2.41-4.33-4.77-8.69-7.16-13.04.37-.46.75-.93 1.12-1.39 4.59.84 9.37 1.14 13.75 2.62 10 3.36 20.27 6.1 28.75 13.08 3.72 3.06 4.34 6.8 2.27 9.86-6.43 9.53-7.39 19.84-7.51 30.97-.09 8.21-1.69 16.42 1.49 24.25.83 2.04 3.82 4.38 5.93 4.5 5.89.31 12.08.4 17.7-1.09 4.79-1.27 8.85-5.11 13.47-7.28 1.58-.74 4.62-.64 5.79.41 5.73 5.17 11.18 10.68 16.49 16.3 3.8 4.02 1.22 16.78-4.66 20.22-5.53 3.23-11.93 4.95-17.75 7.75-4.06 1.95-7.73 4.67-11.68 6.88-1.84 1.03-3.92 1.64-5.39 2.24.69-6.06 1.24-11.5 1.96-16.92.23-1.75.68-3.54 1.42-5.13 3.59-7.69.86-13.67-7.53-12.83-15.95 1.58-32.09-1.43-47.9 2.56-8.03 2.03-16.2 3.54-24.34 5.08-4.36.83-5.86 4.12-6.56 7.62-1.07 5.28-1.17 10.75-2.26 16.03-.49 2.38-1.94 4.97-3.73 6.6-6.34 5.73-12.81 11.35-19.62 16.48-5.79 4.36-10.39 3.11-11.88-2.58-.29-1.1-.17-2.56.33-3.56 7.11-14.29 9.43-29.59 10.1-45.33.36-8.37 1.28-16.71 2.03-25.05.08-.73.82-1.38 1.87-3.05z"/><path d="m92.02 138.35c3.53 1.53 7.21 2.77 10.55 4.64 5.94 3.32 11.57 7.21 17.54 10.48 6.97 3.82 6.57 8.84 5.45 15.34-1.57 9.12-3.96 18.1-5.44 27.23-.71 4.41-.49 9.06-.05 13.53.53 5.43 1.91 6.27 6.93 3.81 7.55-3.71 15.17-7.48 22.06-12.24 5.66-3.91 10.33-9.26 15.35-14.07 4.08-3.91 6.93-4.29 11.62-1.02 1.61 1.13 3.4 2.36 4.36 3.99 1.5 2.54 3.94 6.12 3.12 8.04-1.22 2.85-4.76 6.25-7.62 6.57-8.54.95-16.29 2.68-24.08 6.96-7.22 3.97-15.97 5.27-24.15 7.35-9.94 2.53-12.39 6.69-10.45 16.73 1.57 8.1 3.44 16.09 2.24 24.74-.55 3.97 2.81 9.17 5.76 12.64 1.25 1.47 6.37.74 9.15-.39 8.55-3.47 17.64-3.11 26.43-4.73 9.6-1.77 16.17-5.89 18.23-15.63.38-1.79 1.31-3.46 1.99-5.18.42.05.84.1 1.26.15.57 3.61.99 7.25 1.77 10.81.44 2 1.33 3.95 2.31 5.77 2.85 5.29 6.01 10.41 8.75 15.75 2.72 5.3-.04 9.18-6.7 10.41-22.47 4.13-45.11 5.94-67.92 4.88-4.62-.21-9.35-1.44-13.7-3.08-5.53-2.08-8.11-7.51-7.82-13.49.46-9.26.85-18.52.99-27.79.17-11.16.04-22.33.04-33.49 0-8.53-.04-17.07.01-25.6.08-12.08-2.54-23.68-5.87-35.21-1.57-5.42-2.49-11.02-3.71-16.54.54-.47 1.07-.92 1.6-1.36z"/></g></svg>