<svg enable-background="new 0 0 400 400" viewBox="0 0 400 400" xmlns="http://www.w3.org/2000/svg"><path d="m362.1 8.8c1.1.8 2.1 1.6 3.1 2.4l-1 1.1c-1.3-1.1-2.3-2-3-2.5zm1.9 4.8c.5.2.9.4 1.4.5-.6 2.3-1.3 4.5-1.9 6.8l-1.5-.5c.8-2.1 1.4-4.3 2-6.8zm-1-9.4c1.3.9 2.4 1.8 3.4 2.5l-1 1.1c-1.4-1.2-2.4-2.1-3.2-2.6zm3.7 2.2v-1.4h10.3v1.2c-.5 3.6-1.8 6.8-4 9.4 1.5 1.6 3.4 2.8 5.7 3.8-.3.4-.7.8-1.1 1.4-2.3-1.1-4.1-2.5-5.6-4.1-1.6 1.6-3.6 3.1-5.9 4.3-.3-.5-.7-.9-1-1.3 2.4-1.1 4.4-2.5 6-4.1-1.9-2.5-3-5.6-3.3-9.3h-1.1zm8.8 0h-6.4c.3 3.3 1.3 6 3 8.2 2-2.2 3.1-5.1 3.4-8.2z" fill="#fbfcfa"/><path d="m385.3 3.8h1.3v2.2h2.8v-2.2h1.3v2.2h4.1v9.1h1.7v1.3h-16.9v-1.3h1.7v-9.1h4.1v-2.2zm.4 13.1.7 1.2c-1.8.9-3.8 1.9-6 2.9-.2-.4-.5-.8-.8-1.3 2.3-1 4.3-1.9 6.1-2.8zm-3.1-6.4h2.8v-3.2h-2.8zm0 4.6h2.8v-3.3h-2.8zm4-4.6h2.8v-3.2h-2.8zm0 4.6h2.8v-3.3h-2.8zm3.7 1.9c2.1.9 4.1 1.8 6.1 2.7l-.7 1.3c-2.2-1.1-4.2-2-6.1-2.9zm3.2-9.7h-2.8v3.2h2.8zm-2.8 7.8h2.8v-3.3h-2.8z" fill="#fbfcfa"/><g fill="#010102"><path d="m206.93 292.2c-2.23 1.64-4.78 2.64-5.95 4.51-9.16 14.58-23.25 23.85-36.46 33.99-6.53 5.01-13.11 9.76-21.03 13.1-6.12 2.58-10.46 9.44-15.5 14.5-1.14 1.14-1.62 3.01-2.86 3.95-2.93 2.23-6.14 4.1-9.23 6.11-1.3-3.3-3.41-6.52-3.74-9.91-1.07-10.82-1.14-21.75-2.26-32.56-.89-8.58.78-16.81 1.45-25.22 1.25-15.54.58-31.24.65-46.87.05-10.83-.85-21.75.28-32.47.89-8.39-.45-16.34-1.33-24.46-.22-2.01-1.11-3.94-1.69-5.9-.59-.24-1.18-.48-1.77-.72-4.82 5.88-9.89 11.59-14.4 17.7-4.93 6.69-9.21 13.86-14.03 20.64-5.31 7.49-10.76 14.89-16.46 22.08-2.11 2.67-5.2 4.53-7.67 6.94-5.77 5.64-11.38 11.43-17.17 17.06-1.11 1.08-2.62 1.9-4.1 2.4-2.67.89-3.87-.09-2.67-2.89.57-1.33 1.15-2.87 2.2-3.76 7.21-6.12 11.21-14.41 15.89-22.34 8.59-14.57 17.79-28.79 26.5-43.29 6.45-10.74 13.46-21.28 18.46-32.69 4.19-9.55 5.91-20.2 8.49-30.42.15-.61-1.88-2.56-2.87-2.54-7.42.2-14.84.68-22.25 1.17-7.72.51-15.43 1.42-23.16 1.57-4.38.09-7.64-2.27-8.88-6.94-.87-3.28-2.18-6.45-3.3-9.66-1.18-3.39-.3-6.1 3.48-6.16 8.81-.14 17.64.21 26.46.39 1.45.03 2.96.52 4.34.27 9.6-1.78 19.17-3.71 30.27-5.89.97-6.17 2.94-13.45 3.1-20.77.26-11.81 1.92-23.81-2.35-35.39-2.78-7.55 4.12-17.33 12.27-17.67.78-.03 1.75.1 2.33.54 6.24 4.78 12.63 9.4 18.52 14.58 3.45 3.03 4.26 7.64 1.46 11.45-5.54 7.52-7.65 15.28-5.14 24.55 1.05 3.88.16 8.29.18 12.45.03 7.17 2.64 10.48 9.51 11.3 5.64.68 11.09.04 16.14-3.14 6.83-4.31 12.42-1.88 14.29 6.17.77 3.31.96 6.76 1.52 10.9-7.03 1.1-13.56 2.12-20.09 3.16-1.93.31-3.87.58-5.76 1.03-6.55 1.55-7.5 3.92-3.34 9.52-1.74 1.15-3.37 2.46-5.2 3.39-3.57 1.81-5.12 4.59-5.09 8.55.07 12.66.02 25.33.02 37.99 0 5.87-.26 11.75.07 17.6.36 6.52 1.73 13.01 1.78 19.51.06 8.07-.79 16.15-1.28 24.22-.11 1.8-.54 3.59-.54 5.38-.05 13.83.22 27.67-.11 41.49-.22 9.37-1.45 18.71-1.77 28.08-.08 2.32 1.6 4.71 2.47 7.07 2.32-.98 5.23-1.38 6.87-3.03 14.38-14.49 27.53-30.03 38.26-47.46 1.81-2.94 2.13-6.76 3.33-10.1 1.52-4.24-.6-5.41-4.26-5.25-6.1.27-12.22.46-18.29 1.05-4.05.39-7.08-1.4-7.15-4.94-.04-2.43 2.27-6.35 4.4-7.09 5.92-2.05 12.24-3.23 18.5-3.9 5.77-.62 11.65-.03 17.48-.16 9.04-.2 14.29-6.95 12.41-15.72-.14-.64-.04-1.33-.16-1.98-.53-2.81-.34-7.44-1.8-8.05-3.68-1.53-8.11-1.56-12.25-1.6-10.46-.11-20.94.37-31.39.01-3.19-.11-7.63-1.84-6.81-5.9.34-1.72 5.21-3.43 8.09-3.56 9.65-.44 19.33.02 28.99-.27 3.51-.1 7.58-.46 10.31-2.31 2.4-1.63 4.53-5.5 4.53-8.38-.01-3.78-3.28-6.22-7.54-6.22-4.83 0-9.68.2-14.49-.12-1.58-.1-4.03-1.27-4.38-2.45-.63-2.12-1.04-4.78 2.82-5.61 5.35-1.15 10.6-2.95 15.77-4.8 5.69-2.04 8.21-12.1 4.12-16.43-.96-1.01-2.89-1.48-4.39-1.53-5.66-.17-11.33-.07-17-.07-8.51 0-9.87-1.49-9.34-10.69 5.52-2.16 10.77-5.61 17.46-3.4 3.59 1.19 6.27-.86 8.56-3.59 2.24-2.67 4.34-12.41 2.33-14.94-1.55-1.95-4.29-2.97-7.72-5.19.8-1.61 1.61-4.54 3.43-6.59 3.03-3.42 2.52-6.68.78-10.2-1.09-2.19-2.74-4.16-3.45-6.45-.91-2.92-1.85-6.13-1.51-9.07.84-7.16-1.12-9.87-8.24-9.88-6.18 0-12.39.37-18.53-.12-4.12-.33-9.07-11.79-6.99-15.37.41-.71 1.51-1.33 2.36-1.44 6.02-.77 12.04-1.51 18.08-2.04 6.31-.55 9.82-5.01 7.97-11.35-1.49-5.12-3.42-10.21-5.89-14.92-4.06-7.72-1.24-9.15 5.12-10.14 1-.16 2.34.47 3.22 1.13 7.17 5.43 14.22 11.02 21.42 16.41 2.76 2.07 4.85 4.12 4.45 8-.54 5.28 3.89 5.71 7.38 6.75 2.48.74 5.08 1.1 7.63 1.59.77.15 2.03.51 2.27.19 2.93-3.93 5.68-1.12 7.95.49 2.94 2.08 4.28 5.29 3.7 9.05-.6 3.87-3.8 4.17-6.63 4.43-4.18.37-8.48-.22-12.58.46-6.27 1.03-10.7 3.94-10.94 11.05-.15 4.31-1.97 8.55-2.68 12.87-.25 1.56.18 3.57 1.08 4.82.38.52 2.95-.06 4.21-.73 4.59-2.41 9.11-4.95 13.54-7.65 5.98-3.65 7.54-3.33 11.06 2.71.25.42.59.79.85 1.21 5.78 9.41 4.21 12.94-6.44 14.64-1.12.18-2.17.82-3.28.9-3.33.24-6.3 1.04-7.16 4.76-.97 4.23.14 8.07 3.36 10.95 3.12 2.78 6.46 3.24 10.17.42 2.55-1.93 5.79-2.91 8.5-4.67 3.61-2.35 7.18-4.84 10.45-7.63 10.67-9.12 20.56-19.04 28.64-30.57 1.58-2.26 2.01-5.3-1.7-6.28-3.59-.95-7.31-1.61-11.01-1.84-4.96-.31-9.95-.08-14.97-.08-.3-1.08-.71-1.84-.7-2.6.05-2.99-.75-6.66.7-8.74.97-1.4 5.24-.97 7.93-.59 4.65.66 9.18 2.08 13.82 2.88 4.86.84 7.59-2.55 7.57-6.38-.05-9.68-.53-19.44-2.04-28.97-.66-4.18-4.22-7.9-6.51-11.91 4.05-2.13 8.05-5 12.51-6.37 5.22-1.6 9.21 2.06 13.24 5.02 3.8 2.79 7.83 5.32 11.95 7.6 9.59 5.3 7.58 12.2 4.35 19.43-1.14 2.56-1.02 5.77-1 8.68 0 .45 2.87 1.63 3.85 1.19 5.43-2.41 10.88-4.88 15.94-7.96 6.87-4.17 9.17-3.81 14.01 2.83 3.18 4.37 6.87 8.37 10.13 12.68 1.23 1.63 2.07 3.62 2.76 5.56 1.05 2.96-.07 4.5-3.35 4.67-12.04.6-24.07 1.27-36.1 2-3.6.22-7.24.46-10.77 1.18-6.81 1.38-10.02 8.02-6.02 13.84 6.14 8.95 3.58 13.02-5.81 17.36-6.74 3.12-14.03 5.04-21.04 7.57-3.06 1.11-6.02 2.48-9.06 3.62-3.86 1.44-5.35 6.36-2.88 9.78.29.4.86.65 1.02 1.08 3.44 9.51 11.27 9.05 19.18 8.57 2.82-.17 5.69-.25 8.49.02 6.46.62 11.84-.8 17.23-5.05 8.17-6.43 17.63-2.8 21.28 6.97.77 2.07 2.45 3.85 3.93 5.58 3.36 3.92 2.79 7.5-2.25 8.21-5.8.81-11.87-.45-17.74.05-3.19.27-6.22 2.35-9.32 3.62-.17.68-.34 1.37-.52 2.05 4.2 3.96 8.45 7.87 12.55 11.93 1 .99 2.16 2.54 2.08 3.76-.24 4.06-1.43 8.1-1.4 12.14.02 2.67.73 6.45 2.54 7.72 2.38 1.67 6.38 2.31 9.26 1.63 2.94-.7 5.57-3.33 7.99-5.5 3.32-2.98 6.25-4.78 10.01-.55 3.36 3.78 7.33 7.03 10.52 10.94 1.1 1.35 1.24 4.13.7 5.91-.27.91-3.02 1.41-4.68 1.49-9.76.45-19.54.64-29.3 1.09-6.09.28-11.14 6.85-11.49 14.8-.15 3.49-.03 7-.03 10.5 0 9.76-2.02 9.56-10.62 10.69-4.03.53-8.13.95-12.01 2.09-4.67 1.37-5.98 4.18-3.16 8.03 4.14 5.65 8.81 11.05 13.96 15.78 13.46 12.36 30.38 18.97 46.44 26.99 1.17.58 2.5.96 3.48 1.77 1.42 1.18 2.59 2.66 3.87 4.01-1.69.97-3.36 2.73-5.08 2.77-9.16.25-16.28 5.56-24.08 9.18-6.7 3.11-12.73 3.39-19.27-1.38-11.97-8.73-17.76-21.13-22.46-34.37-2.5-7.04-4.71-14.19-7.07-21.29-.36-1.08-.59-2.33-1.29-3.13-1.01-1.16-2.41-1.99-3.64-2.95-.73 1.26-2.07 2.52-2.09 3.8-.14 9.01-.24 18.04.11 27.05.33 8.2 1.29 16.36 1.88 24.55.18 2.49.23 5.02-.02 7.49-.42 4.11.42 7.16 4.67 9 2.26.98 3.76 3.27.96 5.47-5.14 4.02-6.46 9.99-8.67 15.62-2.36 6.02-4.5 12.57-12.14 14.08-1.29.26-3.54.19-3.99-.55-2.18-3.62-5.25-7.41-5.53-11.32-.75-10.78-.38-21.65-.23-32.48.21-14.6.73-29.2.9-43.8.04-3.92-.39-7.91-1.18-11.76-1.81-8.86-6.6-11.59-15.98-9.53-7.41 1.63-7.77 2.09-7.78 9.88 0 23.5.63 47.02-.26 70.48-.45 11.82-5.41 22.74-14.74 30.84-1.64 1.43-5.33 2.91-6.36 2.12-1.89-1.44-3.44-4.53-3.49-6.97-.31-14.99.08-29.99-.24-44.98-.2-9.22-1.23-18.43-1.95-27.64-.06-.77-.5-1.52-.81-2.26-.23-.54-.54-1.07-1.22-2.39zm26.07-56.45c0 2.02-.11 3.36.02 4.68.52 5.04 3.18 8.62 8.02 10 3.95 1.13 8.09 1.5 11.62-1.59 3.43-3 6.19-16.85 2.89-20.78-.6-.71-1.09-1.68-1.86-2.05-5.23-2.49-10.44-3.09-15.96-.39-4.89 2.38-4.94 6.44-4.73 10.13zm46-.63c0 1.16-.08 2.34.01 3.49.42 5.51 4.92 10.17 9.98 10.38 6.16.26 10.11-2.51 10.87-8.21.45-3.33.88-7.02-.11-10.08-.93-2.88-3.25-6.59-5.8-7.45-8.99-3.03-14.95 2.07-14.95 11.87zm11.75-68.35c-.17-.32-.33-.64-.5-.96-3.76 1.48-8.49 2.04-11 4.7-2.28 2.41-2.82 7.11-2.79 10.79.01 1.58 3.15 3.83 5.29 4.56 5.94 2.03 11.81.11 16.52-3.21 3.29-2.32 5.52-6.44 7.55-10.14.95-1.74.45-4.32-2.82-4.54-4.09-.27-8.17-.79-12.25-1.2zm-45.14-.77c-7.49-.01-12.39 2.55-14.07 8.08-1.06 3.52-2.75 8.2.68 10.68 8.33 6.01 18.96.96 20.8-9.33 1.3-7.2-.44-9.42-7.41-9.43zm48.21 30.72c-3.47.57-6.99.29-9.44 1.78-2.65 1.61-5.08 4.62-6.01 7.53-.43 1.35 2.54 4.84 4.66 5.73 5.31 2.23 10.92 1.42 15.92-1.35 1.92-1.07 4.59-3.57 4.39-5.07-.35-2.57-2.35-5.21-4.32-7.15-1.19-1.18-3.62-1.08-5.2-1.47zm-47.92 2.66c-3.26.85-6.68 1.33-9.71 2.69-1.73.77-4.04 3.11-3.9 4.52.24 2.34 1.81 5.91 3.59 6.45 3.8 1.15 8.17 1.27 12.15.72 3.67-.51 6.84-7.09 6.03-10.14-1.24-4.64-4.87-3.45-8.16-4.24z"/><path d="m143.79 158.02c2.85 1.77 4.88 2.68 6.47 4.09 9.21 8.18 18.13 16.83 17.52 30.38-.21 4.62-2.7 9.23-4.63 13.63-.5 1.15-3.01 2.28-4.27 2-1.51-.34-3.51-2.01-3.86-3.46-2.23-9.09-3.91-18.31-6.08-27.41-1.15-4.82-2.96-9.48-4.39-14.24-.36-1.19-.39-2.47-.76-4.99z"/></g></svg>