<svg enable-background="new 0 0 400 400" viewBox="0 0 400 400" xmlns="http://www.w3.org/2000/svg"><path d="m6.8 9.5c.6.3 1.3.7 2.1 1.1-.4.4-.7.8-.9 1.2-.7-.4-1.3-.8-1.8-1.1s-1.1-.6-1.6-.8c.2-.4.5-.8.7-1.2.4.2.8.5 1.5.8zm.9 6.9c-.3.6-.5 1.1-.7 1.7s-.4 1.1-.6 1.7c-.6-.4-1.1-.7-1.6-1 .7-1 1.2-1.8 1.5-2.4.3-.5.6-1.1.8-1.7.3-.6.5-1.2.8-1.8.3.3.8.6 1.3.8-.7 1.3-1.2 2.2-1.5 2.7zm.1-11c.4.3 1 .7 1.7 1.1-.5.2-.8.6-1.1 1.1-.5-.6-1-1-1.4-1.2s-.9-.6-1.5-.8c.2-.4.5-.7.9-1.1.5.3.9.6 1.4.9zm10.5 13.1c1 .4 2 .6 3.1.7-.4.4-.7.8-.8 1.3-.9-.2-1.9-.6-3-.9-1-.4-2-.9-2.8-1.6-.5.4-1.1.9-1.9 1.3s-1.9.9-3.3 1.2c-.1-.3-.5-.8-1.1-1.3 1 0 2.1-.3 3.2-.8 1.2-.5 1.9-1 2.3-1.7h-3.2c-.4 0-1 0-2 .1v-1.2c1 0 1.7.1 2 .1h3.3v-1h-2.3c-.2 0-.9 0-2 .1v-1.2c1.2 0 1.9.1 2 .1h2.3v-.8h-4.1c0-.7.1-1.2.1-1.6 0-.5 0-1.1-.1-1.8h4.1v-.7h-2.5c1-.6.1-1.1.1-1.6v-.6h-.5c-.4 0-1 0-1.8.1v-1.3c1.2 0 1.9.1 2.1.1h.2c0-.3 0-.8-.1-1.4h1.4c0 .6-.1 1-.1 1.4h3.4c0-.4 0-.8-.1-1.3h1.5c0 .4-.1.9-.1 1.3.7 0 1.5 0 2.5-.1v1.2c-1 0-1.8-.1-2.5-.1v.6c0 .3 0 .8.1 1.5h-2.5v.8h4.1c0 .7-.1 1.3-.1 1.8s0 1 .1 1.5h-4.1v.8h1.4c.8 0 1.8 0 2.9-.1v1.2c-1 0-1.9-.1-2.8-.1h-1.5v1h3.2c.3 0 1 0 2.1-.1v1.2c-1.1 0-1.8-.1-2.1-.1h-3.4l-.1.1c1.4 1 2.4 1.5 3.4 1.9zm-4.1-6.7v-1.3h-2.7v1.3zm2.2-4.1v-1.1h-3.4v1.1zm1.9 4.1v-1.3h-2.8v1.3z" fill="#fcfafa"/><path d="m37 6.7v2.3 5.4c1 0 1.8 0 2.2-.1v1.3c-.6 0-1.5-.1-2.5-.1h-11.9c-.7 0-1.3 0-1.8.1v-1.3c.5 0 1.1.1 2 .1v-5.2c0-1 0-1.8-.1-2.5h3.7c0-1.3 0-2.1-.1-2.5h1.5c0 .4-.1 1.3-.1 2.5h2.2c0-1.2 0-2.1-.1-2.6h1.5c0 .4-.1 1.3-.1 2.6zm-12.3 13.7c-.3-.4-.7-.8-1.1-1.1 1.1-.4 2.1-.9 2.9-1.3.8-.5 1.5-1 2.1-1.6.4.4.9.8 1.3 1.1-2.5 1.4-4.2 2.4-5.2 2.9zm3.9-10.1v-2.4h-2.2v2.4zm0 4.1v-2.9h-2.2v2.9zm3.5-4.1v-2.4h-2.2v2.4zm0 4.1v-2.9h-2.2v2.9zm.4 2.9 1-1.1c.6.3 1.4.7 2.5 1.3s2 1.1 2.7 1.5c-.4.4-.8.8-1.1 1.3-.8-.8-2.5-1.7-5.1-3zm3.1-7v-2.4h-2.1v2.4zm0 4.1v-2.9h-2.1v2.9z" fill="#fcfafa"/><g fill="#010100"><path d="m297.35 290.57c2.44-1.49 5.9-3.34 9.08-5.59 8.34-5.89 6.97-14.55 6.09-22.92-1.03-9.77-2.93-19.48-3.26-29.26-.16-4.7 1.78-9.56-2.23-13.32-3.24-3.04-6.81-5.84-10.64-8.04-.94-.54-3.48 1.7-5.28 2.66 2.19 3.42-1.01 3.97-2.82 4.72-7.1 2.98-10.54 9.83-8.79 17.32.85 3.64 1.38 7.43 1.44 11.17.44 27.76.74 55.52 1.05 83.28.08 7.52.29 15.06-.14 22.56-.15 2.54-1.59 5.44-3.35 7.31-1.66 1.76-4.21 2.85-6.58-.42-6.34-8.76-9.83-18.3-9.96-29.17-.12-10.27-.27-20.56-1.07-30.79-.61-7.78-2.68-15.44-3.32-23.22-.69-8.29-.15-16.69-.72-25-.57-8.3-1.76-16.57-2.88-24.83-.14-1.01-1.31-2.36-2.29-2.69-8.87-2.91-19.98 3.38-19.81 13.53.41 25.32.31 50.65.01 75.98-.07 5.87-1.71 11.82-8.34 14.13-1.32.46-3.84.2-4.51-.7-2.59-3.48-5.88-7.12-6.64-11.14-1.34-7.1-1.09-14.51-1.39-21.8-.37-8.93-.47-17.87-1-26.79-.41-6.87-1.03-13.76-2.12-20.55-.51-3.2-2.36-6.18-4.27-10.94-21.77 25.66-45.72 46.52-72.52 64.49.45-.83.72-1.85 1.37-2.46 17.8-16.63 31.63-36.37 44.71-56.73 9.36-14.56 17.61-29.61 24.17-45.71 3.73-9.15 9.66-17.4 14.4-26.16 1.45-2.68 2.49-5.65 3.3-8.61 1.95-7.18 1.39-8.16-5.77-8.78-3.21-.28-6.5.6-9.77.87-4.59.37-9.18.85-13.77.83-.91-.01-2.6-2.11-2.56-3.2.08-2.36-3.67-5.61.91-7.07 4.63-1.47 9.38-2.64 14.16-3.48 7.08-1.24 14.32-1.66 21.31-3.24 4.82-1.09 8.94-3.91 10.57-9.24 4.74-15.52 9.85-30.94 14.23-46.56 1.7-6.08 2.35-12.59 2.52-18.93.2-7.51-.64-15.04-1.05-22.93.88.4 2.44.64 3.26 1.55 8.98 9.85 21.46 14.27 32.37 21.1.27.17.65.15.93.31 9.17 5.46 9.82 10.09 2.27 17.68-2.78 2.8-6.05 5.13-8.79 7.97-1.78 1.85-3.36 4.07-4.43 6.41-3.08 6.77-5.87 13.67-8.72 20.54-1.12 2.69-2.28 5.38-3.11 8.17-1.41 4.73.02 6.56 4.93 6.08 8.64-.84 17.24-2.65 25.87-2.75 11.87-.14 18.82-6.69 24.9-15.68 2.37-3.5 6.04-6.11 9.47-9.48 9.04 8.41 17.31 16.23 25.74 23.88 2.6 2.36 3.58 5.27 1.86 7.88-1.29 1.96-4.09 3.6-6.47 4.02-4.83.87-9.84.68-14.75 1.19-7.97.83-15.91 1.97-23.89 2.77-5.89.59-11.86.55-17.72 1.31-4.75.62-8.4 3.39-10.49 7.82-.6 1.27-.77 2.79-.97 4.21-.54 3.89.08 8.37-1.67 11.58-5.53 10.13-3.84 20.54-2.02 30.83 1.2 6.78 7.2 8.6 13.37 9.48 5.64.8 10.14-.74 13.13-5.71 3.44-5.73 6.6-11.63 10.13-17.3 3.07-4.94 7.52-5.32 11.92-1.63 4.89 4.1 10.1 7.83 14.88 12.06 3.54 3.14 3.59 9.86.08 12.99-5.26 4.68-5.67 10.28-4.44 16.63.81 4.17 1.14 8.45 1.48 12.7.45 5.59.55 11.21 1.09 16.79.41 4.32 1.29 8.59 1.92 12.89 1.69 11.65 1.9 23.28-.72 34.85-2.42 10.69-9.95 15.33-20.09 16.64-6.52.84-7.62-5.22-10.5-8.83-4.46-5.58-8.66-11.39-13.29-17.53zm-58.16-76.39c2.59-.75 6.47-1.89 10.35-3 6.69-1.9 9.59-7.02 8.26-13.76-.66-3.35-1.18-6.97-.62-10.27 1.6-9.56-.66-18.44-4.38-26.96-.82-1.88-5.59-4.2-6.27-3.62-3.9 3.27-7.75 6.97-10.4 11.27-3.89 6.29-6.77 13.21-10.07 19.88-1.79 3.62-3.78 7.18-5.2 10.94-.59 1.58-.6 4.09.28 5.4 3.92 5.82 9.32 9.56 18.05 10.12z"/><path d="m173.48 162.64c8.55 5.03 12.36 12.7 15.97 20.4 2.24 4.79-.69 8.94-3.6 12.02-7.68 8.15-12.03 17.99-16.65 27.94-2.9 6.24-8.32 11.26-12.14 17.13-4.6 7.08-8.65 14.51-13.06 21.71-1.02 1.66-2.48 3.07-3.84 4.49-10.55 10.92-21.47 21.51-31.6 32.81-10.97 12.21-23.75 22.14-36.76 31.86-7.18 5.37-14.59 10.45-21.97 15.55-1.23.85-2.86 1.12-4.75 1.83.16-1.24.05-1.85.3-2.13 9.3-9.98 19.47-18.97 30.06-27.61 13.46-10.99 26.78-22.31 37.04-36.61 5.14-7.16 10.39-14.25 15.23-21.61 1.48-2.26 1.77-5.3 3-9.27-5.59 2.38-9.84 3.96-13.87 5.98-3.42 1.71-4.91.24-5.84-2.75-1.63-5.27-3.09-10.59-4.84-15.82-2.46-7.34-6.76-8.76-12.4-3.68-5.22 4.71-9.73 10.19-14.8 15.07-4.95 4.77-10.22 9.22-15.34 13.82-2.94 2.64-5.82 5.36-8.85 7.9-1.37 1.15-3.04 1.95-4.58 2.91-.5-.51-1.01-1.01-1.51-1.52 3.42-4.58 7.01-9.05 10.22-13.78 5.76-8.5 11.79-16.88 16.81-25.81 9.1-16.21 17.52-32.8 26.26-49.21 2.09-3.92 4.99-7.56 6.3-11.71 3.31-10.48 5.91-21.18 8.82-31.78 1.06-3.86-2.31-9-6.23-8.67-8.64.71-17.31 1.49-25.84 2.97-7.5 1.31-11.18-.21-13.99-5.48-1.21-2.28-2.76-4.38-5.04-7.94 6.21-1.32 11.57-3.07 17.03-3.46 5.87-.42 11.83.52 17.75.67 1.57.04 3.14-.73 4.73-1.04 8.47-1.62 16.9-3.46 25.43-4.72 7.14-1.06 14.43-1.14 21.57-2.19 6.42-.95 9.43-6.67 13.52-10.85 2.98-3.04 5.77-6.61 9.39-8.58 4.99-2.71 10.08-1.16 14.28 2.74 4.13 3.82 8.54 7.37 12.29 11.53 1.66 1.85 3.5 6.14 2.65 7.18-2.67 3.24-6.27 6.96-10.08 7.75-8.15 1.69-16.68 1.51-25.02 2.39-7.97.84-15.9 2.05-23.85 3.1-5.05.67-5.25 4.2-4.53 8.03.39 2.06.9 4.25 1.98 6 4.51 7.29 2.11 13.29-2.28 19.75-3.12 4.59-4.82 10.18-6.96 15.4-1.15 2.8.44 3.71 3.08 3.69 6-.05 12.18.87 17.93-.32 3.9-.81 7.46-4.22 10.68-7.04 2.94-2.59 5.22-5.92 7.9-9.04zm-39.28 84.4c1.29-2.38 2.23-3.72 2.8-5.2 3.09-8.02 5.4-16.44 9.32-24.02 3.95-7.65 5.82-15.33 5.78-23.82-.02-4.47-2.12-6.01-5.93-5.93-3.93.08-7.85.81-11.79.9-9.53.23-20.31 10.97-20.34 20.63-.01 1.9.24 4.06 1.14 5.67 5.13 9.23 10.47 18.35 15.78 27.47.73 1.22 1.71 2.28 3.24 4.3z"/></g></svg>