<svg enable-background="new 0 0 400 400" viewBox="0 0 400 400" xmlns="http://www.w3.org/2000/svg"><path d="m5.17 384 .55-.58c.85.61 1.65 1.24 2.4 1.87l-.59.64c-.83-.73-1.62-1.38-2.36-1.93m1.22 9.53-.82-.34c.71-1.76 1.37-3.64 1.98-5.63.24.13.5.25.76.36-.6 1.67-1.24 3.54-1.92 5.61m-.5-13.5.57-.54c.56.44 1.31 1.06 2.26 1.87l-.64.64c-.68-.66-1.41-1.32-2.19-1.97m3.25.46h2.24v-1.36h.77v1.36h4.57v-1.36h.76v1.36h2.28v.69h-2.28v1.84h-2.64v1.26h4.18v2.64h-4.21c0 .45-.02.86-.05 1.21h4.32v.69h-4.38c-.04.34-.1.75-.19 1.22h5.15v.69h-4.82c.87 1.19 2.51 1.92 4.93 2.19-.17.31-.3.57-.37.76-2.77-.49-4.52-1.41-5.26-2.76-.56 1.26-2.3 2.23-5.24 2.9-.12-.24-.26-.48-.43-.72 2.73-.55 4.38-1.34 4.96-2.38h-4.38v-.69h4.65c.1-.38.17-.79.21-1.22h-4.32v-.69h4.4c.03-.34.05-.75.05-1.21h-4.2v-2.64h4.23v-1.26h-2.69v-1.84h-2.24zm1.46 4.46v1.29h3.45c.01-.4.02-.57.01-.53v-.32-.45h-3.46zm1.55-2.59h4.57v-1.19h-4.57zm6.11 2.59h-3.42v.77c-.01.19-.01.37-.02.53h3.44v-1.29z" fill="#fcfbfa"/><path d="m32.63 379.16h.82v1.98h3.54v7.89h1.46v.78h-14.37v-.78h1.46v-7.89h3.54v-1.98h.82v1.98h2.73zm-3.49 11.48.5.73c-1.61.82-3.28 1.63-5 2.41-.13-.27-.28-.55-.44-.82 1.75-.72 3.4-1.49 4.94-2.32m-2.78-5.55h2.73v-3.18h-2.73zm0 3.95h2.73v-3.2h-2.73zm3.54-3.95h2.73v-3.18h-2.73zm0 3.95h2.73v-3.2h-2.73zm7.89 4.68c-1.84-.92-3.51-1.7-5.02-2.32l.45-.73c1.89.8 3.57 1.55 5.04 2.23zm-1.62-11.81h-2.73v3.18h2.73zm-2.73 7.13h2.73v-3.2h-2.73z" fill="#fcfbfa"/><g fill="#010102"><path d="m181.89 48.14c4.93 5.03 9.53 9 13.12 13.73 1.51 1.99 1.52 5.71 1.04 8.43-.57 3.24-2.3 6.12-6.71 5.75-6.42-.54-12.86-.93-19.3-.97-3.57-.02-7.24.45-10.71 1.3-6.95 1.69-8.3 3.98-7.3 11 1.11 7.84 4.55 11.38 10.8 11.66 7.18.32 13.4-1.55 18.99-6.28 3.55-3 6.27-1.99 7.74 2.38.82 2.45 1.22 5.09 1.41 7.68.47 6.45 8.28 16.03 14.42 18.42 4.2 1.63 5.71-.73 7.3-3.52.38-.66.29-1.61.31-2.43.35-11.77.99-23.54.9-35.3-.06-7.54-1.46-15.06-1.74-22.6-.09-2.34.89-5.96 2.52-6.79 1.65-.85 4.8.76 7.1 1.76 2.07.9 3.83 2.46 5.78 3.66 5.18 3.2 10.23 4.1 16.19 1.22 5.65-2.74 11.99-4.03 17.86-6.37 1.77-.7 3.29-2.56 4.44-4.22 8.18-11.75 9.56-12.72 21.76-3.65 4.71 3.5 4.37 6.33 2.81 11.17-4.57 14.23-8.75 28.61-12.43 43.09-2.31 9.08 1.23 12.95 10.8 12.67 5.2-.15 10.41-.95 15.56-1.82 7.05-1.19 9.04-6.86 10.43-12.76 1.09-4.61.81-9.77 6.17-13.49.32 5.96.97 11.17.78 16.35-.32 8.78 1.34 16.84 5.91 24.48 3.54 5.93 2.08 8.13-4.82 9.33-9.14 1.59-18.25 3.34-27.38 5-5.61 1.02-11.19 2.27-16.85 2.93-12.01 1.41-17.19-7.19-17.71-17.67-.35-7.15.2-14.34-.14-21.49-.37-7.88-.97-15.78-2.15-23.56-.42-2.76-2.36-6.87-4.46-7.5-7.17-2.16-12.8.24-15.27 5.57-.92 1.99-.86 4.48-1.09 6.75-.38 3.75-.36 7.57-1.01 11.27-1.78 10.09-3.82 20.14-5.75 30.21-2.2 11.5-7.94 21.26-14.71 30.57-1.69 2.32-2.89 5.09-3.86 7.81-1.66 4.66-.07 7.16 4.95 7 11.88-.38 23.74-1.25 35.61-1.82 3.66-.18 7.37-.4 10.99-.01 5.86.63 10.1-1.95 12.59-6.69 3.97-7.56 10.64-7.12 17.15-2.92 3.28 2.12 6.44 4.56 9.22 7.29 4.69 4.61 4.33 9.55.11 14.59-4.08 4.87-8.31 9.81-11.25 15.37-2.42 4.58-2.78 10.2-4.52 15.19-2.25 6.44-4.52 12.94-7.6 19-2.88 5.67-3.64 10.79-1.09 16.84 2.82 6.69 1.75 7.91-5.27 10.39-1.11.39-2.66 2.75-2.34 3.4 1.28 2.66 2.69 5.7 4.96 7.37 21.07 15.49 44.59 26.33 68.9 35.57 5.85 2.22 11.93 3.85 19.33 6.2-2.57 1.78-3.59 3.03-4.79 3.24-10.7 1.85-18.04 9.38-26.31 15.34-.4.29-.69.73-1.08 1.03-7.9 6.04-10.41 6.15-18.84.54-11.94-7.95-23.94-15.82-35.72-24-8.72-6.05-17.28-12.37-25.62-18.93-3.18-2.51-5.69-1.65-8.35.06-2.74 1.77-5.38 3.73-7.87 5.84-7.29 6.16-14.43 12.5-21.74 18.64-7.22 6.05-14.26 12.39-21.94 17.79-12.58 8.85-25.45 17.32-38.54 25.41-7.02 4.34-14.79 7.45-22.13 11.3-6.07 3.18-11.84 7-18.08 9.76-3.16 1.4-7.09 1.36-10.67 1.35-1.08 0-2.53-1.94-3.04-3.28-.2-.52 1.57-2.2 2.73-2.76 7.8-3.73 15.67-7.3 23.51-10.94 1.6-.74 3.24-1.45 4.76-2.34 11.07-6.53 22.34-12.77 33.09-19.79 7.87-5.14 16.19-9.73 21.99-17.83 3.59-5.01 9.24-8.49 13.58-13.02 4.43-4.63 8.42-9.69 12.54-14.61 4.46-5.33 8.39-11.2 13.4-15.94 4.77-4.52 5.11-9.69 4.66-15.36-.53-6.71-1.49-13.39-1.86-20.11-.82-14.86-1.23-29.74-2.15-44.59-.27-4.27-.71-8.82-7.34-8.97-2.21-.05-4.53-3.47-6.45-5.66-1.46-1.66-1.92-4.45-3.6-5.63-5.48-3.87-4.67-8.65-3.2-14.02 2.09-7.64 3.89-15.38 5.55-23.12.61-2.85-2.4-4.75-5.21-3.19-3.83 2.12-7.49 4.6-11.06 7.14-2.54 1.8-4.82 3.95-8.33 6.87-.5-3.32-1.13-5.83-1.2-8.36-.19-6.84-1.76-8.92-8.42-8.42-13.92 1.03-27.81 2.55-41.71 3.84-7.86.73-15.72 1.37-23.58 2.08-7.37.66-14.82.87-22.05 2.26-3.01.58-6.17 3.2-8.15 5.75-7.02 9.02-13.49 18.46-20.35 27.6-1.49 1.99-3.43 4.86-6.51 2.9-2.76-1.75-2.17-4.58-1.28-7.48 4.29-13.98 8.47-28 12.47-42.06.97-3.42.85-7.15 1.68-10.63.37-1.56 1.86-2.86 2.84-4.28 1.02 1.04 2.18 1.99 3.04 3.16 1.64 2.24 3.09 4.62 4.65 6.91 4.97 7.32 12.39 5.15 19.22 4.73 5.22-.32 10.4-1.27 15.61-1.86 11.89-1.34 23.77-2.87 35.7-3.84 4.71-.38 9.53.42 14.28.85 7.29.65 12.42-4.6 18.6-6.91 2.99-1.12 1.92-6.33-1.57-6.94-3.89-.68-8-.27-12-.1-3.61.15-7.2.57-10.8.94-12.57 1.29-25.16 2.4-37.68 4-6.76.86-13.4 2.62-20.1 3.92-6.82 1.32-11.69-3.86-9.8-10.54.27-.96 1.66-2.17 2.64-2.28 7.68-.84 15.39-1.4 23.08-2.13 3.26-.31 6.68-.31 9.71-1.35 3.89-1.33 7.24-3.44 7.56-8.59.33-5.39-.63-9.95-5.04-13.32-.7-.53-1.84-.75-2.75-.68-9.35.72-18.71 1.29-28.02 2.38-6.29.74-12.45 2.44-18.73 3.33-5.74.78-12.88-7.17-12.13-14.78 10.23 0 20.64.26 31.04-.08 9.54-.31 19.07-1.22 28.59-2 .95-.08 2.62-1.12 2.61-1.68-.22-7.42 2.79-15.58-3.17-21.83-2.95-3.09-7.26-4.88-11-7.2-1.11-.68-2.53-.93-3.5-1.75-2.09-1.77-3.98-3.77-5.96-5.67 2.73-1.26 5.36-3.27 8.2-3.64 8.83-1.16 17.22 1.25 25.49 4.17 2.28.81 4.71 1.27 7.1 1.66 3.91.64 7.97 6.09 8.05 11.69.05 3.42-.51 6.85-.94 10.26-.54 4.35-.76 8.5 3.87 11.04 3.98 2.19 11.66 1.89 14.69-1.18 2.39-2.42 4.15-5.46 6.23-8.19 1.57-2.05 3.21-4.06 5.11-6.46zm86.52 139.82c-.47-.17-.94-.33-1.41-.5 0-8.73 0-8.71-8.59-7.51-1.3.18-2.7-.18-3.97.09-6.48 1.4-12.96 2.78-19.36 4.48-3 .79-4.09 3.03-4.18 6.37-.24 9.2 3.95 17.05 7.27 25.08 1.7 4.11 4.62 7.93 7.73 11.17 3.2 3.32 5.94 2.47 7.96-1.7 1.78-3.66 3.59-7.32 5.02-11.11 3.29-8.74 6.37-17.57 9.53-26.37z"/><path d="m204.07 251.16c3.37 3.92 6.18 6.84 8.54 10.08 1.11 1.52 1.37 3.65 2.02 5.5-2.25.73-5.26 2.78-6.64 1.99-12.88-7.4-25.56-2.16-38.31-.07-3.23.53-6.47 1.05-9.73 1.31-5.66.45-8.43 4.62-8.01 10.19.57 7.49.18 15.06.18 22.59 0 1.5-.24 3.01-.1 4.48.92 9.91-3.83 17.61-9.66 24.87-3.29 4.1-6.75 8.05-10.09 12.11-2.6 3.16-6.94 4.38-8.6 1.78-5.51-8.63-10.53-17.56-15.81-26.49 5.37-.54 10.27-.91 15.13-1.55 4.31-.57 6.51-3.2 7.05-7.56.74-5.99 2.4-11.92 2.53-17.9.1-4.38-1.06-9.04-2.8-13.08-.71-1.64-4.96-3.32-6.74-2.66-13.63 5.05-28.08 5.54-42.08 8.44-7.71 1.6-15.04 5.07-22.55 7.67-1.5.52-3.04.91-3.37 1.01-4.67-7.28-9.04-13.87-13.13-20.63-1.01-1.67-1.53-3.92-1.38-5.84.05-.59 3.04-1.16 4.73-1.38 12.19-1.56 24.76.51 36.64-3.94.15-.06.34-.08.49-.05 9.59 2.42 18.65-2.32 28.1-2.12 3.92.08 7.9-.41 11.76-1.14 5.6-1.06 7.18-5.12 5.46-12.45-1.22-5.19-2.21-10.43-3.31-15.65.48-.4.96-.8 1.44-1.2 3.08 1.71 6.41 3.09 9.17 5.22 3 2.31 6.11 2.32 8.28.06 3.58-3.73 6.87-7.94 9.37-12.46 1.89-3.43-.72-6.78-4.92-6.16-8.84 1.31-17.53 3.59-26.35 5-5.04.8-10.25 1.02-15.33.7-1.43-.09-3.51-2.87-3.73-4.62-.14-1.13 2.39-2.88 4.02-3.85 1.02-.6 2.59-.28 3.91-.37 5.26-.34 10.54-.51 15.78-1.05 6.15-.64 12.21-12.98 8.41-17.61-1.35-1.64-4.76-2.3-7.18-2.2-5.38.23-10.73 1.19-16.08 1.92-.78.11-1.66.44-2.22.97-6.79 6.4-15.47 10.42-21.54 17.82-4.2 5.12-9.37 9.44-14.14 14.08-2.71 2.64-6.04 4.84-8.07 7.91-2.27 3.42-4.54 2.35-6.61.85-3.94-2.86-3.91-8.51-.57-12.27 9.63-10.84 19.32-21.63 28.64-32.73 4.49-5.36 8.21-11.37 12.22-17.13 2.1-3.03 1.79-5.51-1.9-7.06-1.79-.75-3.76-1.28-5.29-2.4-3.9-2.84-3.6-6.34.91-8.16 3.57-1.43 7.43-2.36 11.25-2.87 13.63-1.81 27.3-3.4 40.96-4.95 4.91-.56 9.91-.43 14.77-1.24 2.88-.48 5.58-2.11 8.32-3.32 2.27-1.01 4.67-3.27 6.63-2.91 1.46.27 3.27 3.89 3.18 5.93-.11 2.45-1.61 5.28-3.38 7.08-1.58 1.61-4.35 2.06-6.61 2.99-6.91 2.82-7.51 5.17-1.61 9.77 5.23 4.07 11.34 7 16.6 11.03 6.91 5.29 13.58 10.95 19.86 16.96 1.49 1.43 1.8 5.07 1.3 7.4-.81 3.75-2.37 7.48-4.34 10.78-1.13 1.89-4.09 4.39-5.53 4.01-2.27-.6-4.7-3.07-5.73-5.35-1.93-4.26-3.12-8.89-4.23-13.47-3.34-13.75-9.99-13.29-22.57-12.49-1.71.11-3.36 1.11-5.07 1.58-10.02 2.8-8.01 4.65-5.96 12.87.95 3.81 5.12 4.31 7.77 2.92 7.66-4.04 13.62-.77 19.66 3.31 4.83 3.26 5.3 5.73.84 9.63-7.63 6.67-15.63 12.91-23.48 19.32-.24.2-.72.14-.9.36-2.63 3.07-7.62 4.94-6.5 10.05 1.21 5.52 7.38 10.07 13.12 9.58 11.59-.99 23.14-2.55 34.72-3.71 3.14-.29 6.32-.03 8.39-.03zm-85.29-68.46c3.61-.66 6.49-1.12 9.34-1.71s5.65-1.66 8.53-1.93c11.15-1.02 14.9-7.05 17.23-15.21.8-2.81-.23-5.52-3.64-5.78-2.17-.17-4.4.64-6.61.92-8.25 1.03-16.54 1.8-24.76 3.1-4.45.7-9.62.89-11.86 5.91-2.74 6.13 4.71 14.71 11.77 14.7z"/></g></svg>