<svg enable-background="new 0 0 400 400" viewBox="0 0 400 400" xmlns="http://www.w3.org/2000/svg"><path d="m5.17 384 .55-.58c.85.61 1.65 1.24 2.4 1.87l-.59.64c-.83-.73-1.62-1.38-2.36-1.93m1.22 9.53-.82-.34c.71-1.76 1.37-3.64 1.98-5.63.24.13.5.25.76.36-.6 1.67-1.24 3.54-1.92 5.61m-.5-13.5.57-.54c.56.44 1.31 1.06 2.26 1.87l-.64.64c-.68-.66-1.41-1.32-2.19-1.97m3.25.46h2.24v-1.36h.77v1.36h4.57v-1.36h.76v1.36h2.28v.69h-2.28v1.84h-2.64v1.26h4.18v2.64h-4.21c0 .45-.02.86-.05 1.21h4.32v.69h-4.38c-.04.34-.1.75-.19 1.22h5.15v.69h-4.82c.87 1.19 2.51 1.92 4.93 2.19-.17.31-.3.57-.37.76-2.77-.49-4.52-1.41-5.26-2.76-.56 1.26-2.3 2.23-5.24 2.9-.12-.24-.26-.48-.43-.72 2.73-.55 4.38-1.34 4.96-2.38h-4.38v-.69h4.65c.1-.38.17-.79.21-1.22h-4.32v-.69h4.4c.03-.34.05-.75.05-1.21h-4.2v-2.64h4.23v-1.26h-2.69v-1.84h-2.24zm1.46 4.46v1.29h3.45c.01-.4.02-.57.01-.53v-.32-.45h-3.46zm1.55-2.59h4.57v-1.19h-4.57zm6.11 2.59h-3.42v.77c-.01.19-.01.37-.02.53h3.44v-1.29z" fill="#fcfbfa"/><path d="m32.63 379.16h.82v1.98h3.54v7.89h1.46v.78h-14.37v-.78h1.46v-7.89h3.54v-1.98h.82v1.98h2.73zm-3.49 11.48.5.73c-1.61.82-3.28 1.63-5 2.41-.13-.27-.28-.55-.44-.82 1.75-.72 3.4-1.49 4.94-2.32m-2.78-5.55h2.73v-3.18h-2.73zm0 3.95h2.73v-3.2h-2.73zm3.54-3.95h2.73v-3.18h-2.73zm0 3.95h2.73v-3.2h-2.73zm7.89 4.68c-1.84-.92-3.51-1.7-5.02-2.32l.45-.73c1.89.8 3.57 1.55 5.04 2.23zm-1.62-11.81h-2.73v3.18h2.73zm-2.73 7.13h2.73v-3.2h-2.73z" fill="#fcfbfa"/><g fill="#010102"><path d="m204.68 169.06c2.92 2.63 5.98 5.12 8.74 7.92 3.36 3.41 6.36 7.17 9.69 10.6 2.75 2.83 2.68 4.54-.85 6.96-3.43 2.34-6.49 5.55-8.94 8.94-7.55 10.43-14.64 21.19-22.06 31.72-7.62 10.8-15.43 21.47-23.13 32.21-.76 1.06-1.52 2.17-1.99 3.37-2.48 6.37-.57 9.02 6.42 9.24 7.78.24 15.56.72 23.34.7 1.38 0 3.11-1.63 4.09-2.95 4.6-6.21 4.29-12.89 1.56-19.77-1.36-3.42-2.44-6.96-3.35-10.59 8.88 9.22 19.56 16.65 25.72 28.25 5.47 10.31 3.39 20.37-1.02 30.17-1.64 3.63-4.34 7.02-7.27 9.75-1.52 1.42-4.93 2.09-6.88 1.4-1.69-.6-3.12-3.47-3.62-5.58-1.06-4.42-1.04-9.1-2.18-13.49-1.57-6.02-3.69-6.75-9.86-5.5-10.06 2.04-20.17 3.77-30.28 5.56-1.11.2-2.64.3-3.41-.29-7.21-5.52-12.53-.93-17.76 3.31-2 1.62-3.16 4.35-5.23 5.82-1.48 1.06-4.76 1.9-5.67 1.09-6.37-5.66-9.84-12.93-9.68-21.59.07-3.95 2.35-5.53 5.83-3.78 6.81 3.42 12 .67 16.84-3.78 4.16-3.82 8.16-7.81 12.21-11.75.42-.41.73-.94 1.04-1.44 2.09-3.42 3.82-7.14 6.34-10.21 3.96-4.83 4.65-7.57 1.87-12.18-10.13 3.46-14.53-.21-15.35-10.92-.81-10.67-5.54-20.17-11.23-29.27-5.42-8.67-11.28-16.78-20.51-22.55-5.29 4.87-6.83 11.97-7.96 18.85-2.72 16.61-4.94 33.3-7.1 50-1.56 12.03-3.25 24.09-3.81 36.19-.33 7.11 1.59 14.29 2.22 21.47.68 7.72 1.68 15.49 1.34 23.19-.25 5.77-5.44 9.02-9.74 12.3-3.64 2.77-7.36 5.43-11.08 8.1-4.9 3.52-9.34 2.29-10.49-3.82-1.1-5.86-.67-12.03-.77-18.06-.11-6.79.61-13.67-.23-20.36-1.26-10-3.78-19.84-5.26-29.82-.27-1.82 1.7-4.12 2.97-5.96.57-.82 1.94-1.24 3.03-1.5 9.41-2.25 13.12-9.72 15.74-17.76 4.12-12.65 8.66-25.27 11.31-38.25 3.11-15.24 11.69-28.25 15.68-43.01 5.08-18.84 10.1-37.7 15.07-56.57 1.47-5.58 2.86-6.64 7.12-4.18 1.15.66 2.3 3.26 1.89 4.41-5.33 14.84-10.68 29.69-16.64 44.28-2.18 5.34-3.67 10.76-.85 15.48 2.33 3.9 6.87 6.51 10.51 9.59 1.23 1.04 2.74 1.77 4.09 2.67 9.77 6.56 14.11 5.84 20.51-3.97 3.87-5.92 6.32-12.31 6.53-19.69.16-5.42 2.12-10.76 2.74-16.2.45-3.98-1.08-6.61-5.96-7.05-2.12-.19-4.84-2.67-5.81-4.79-1.92-4.17-3.41-8.75-3.97-13.29-.61-4.97 1.91-6.73 7.32-6.38 1.25 7.6 1.25 7.67 9.5 7.69 15.37.05 30.74.18 46.1-.1 3.99-.07 8.2-.95 11.86-2.51 7.45-3.18 8.63-10.57 8.88-17.3.56-15.01.43-30.07.07-45.1-.19-7.85-1.44-15.67-1.55-24.03 6.86 4.24 13.41 8.43 19.84 13.06 6.27 4.52 14.76 5.96 21.26 8.38-1.12 3.11-1.92 6.63-3.59 9.66-3.2 5.81-6.81 11.41-10.43 16.98-2.66 4.1-5.8 7.9-8.38 12.06-2.11 3.41-1.73 5.85 2.98 7.09 6.53 1.72 6.79 2.73 5.06 9.6-.32 1.26-.61 2.53-.9 3.8-1.34 5.84 2.21 10.41 8.12 10.42 13.07.02 26.15.29 39.2-.18 3.43-.12 7.28-1.94 10.02-4.13 3.54-2.85 7.42-5.63 9.13-10.49.54-1.54 3.65-2.57 5.74-2.95.75-.14 1.95 2.35 2.98 3.62 3 3.69 6.17 7.25 8.97 11.08 2.21 3.02 3.97 6.38 5.93 9.58-.34.49-.67.98-1.01 1.47-1.73 0-3.46 0-5.19 0-25 0-50 0-74.99 0-9.74 0-11.41 1.21-12.02 11.1-1.04 17.06 1.02 33.77 7.35 49.78.47 1.18 1.41 2.18 2.18 3.23.64.87 1.35 1.68 2.09 2.59 5.84-6.01 8.5-13.32 9.32-21.5.89-8.79 1.87-17.58 3.06-26.34.35-2.59 1.71-4.86 5.09-3.23 2.03.98 4.36 1.68 5.95 3.16 5.91 5.47 11.21 11.47 18.85 15.02 4.56 2.12 3.96 8.65-.09 12.4-.69.64-.43 2.32-.55 3.53-.13 1.35.12 2.83-.35 4.04-4.68 12.28-9.39 24.55-14.26 36.76-2.71 6.77-5.85 13.36-8.54 20.14-.48 1.21-.27 3.27.48 4.32 5.78 8.02 11.66 15.96 17.76 23.74 1.69 2.15 4.14 3.72 6.3 5.49 5.27 4.31 10.53 8.63 15.88 12.84 5.73 4.51 9.97 4.15 13.29-2.29 5.15-9.96 9.37-20.38 14.06-30.58.83-1.81 2.03-3.44 3.49-5.87.63 1.49 1.16 2.12 1.03 2.56-2.83 9.83-5.03 19.92-8.81 29.37-4.24 10.59-4.75 21.39-4.63 32.41.04 3.1.17 6.35 1.11 9.25 1.97 6.03 2.44 11.63-3.37 15.65-4.48 3.1-13.29 1.48-18.78-3.08-3.3-2.74-6.37-5.74-9.61-8.56-4.59-3.99-9.52-7.64-13.77-11.96-5.08-5.15-9.53-10.92-14.39-16.3-4.43-4.91-8.84-9.88-13.65-14.42-2.96-2.79-5.66-1.56-8.07 1.68-7.52 10.1-14.71 20.54-23.13 29.86-7.77 8.61-16.66 16.3-25.6 23.74-9.03 7.52-18.71 14.26-28.14 21.29-1.43 1.06-3.02 2.32-4.67 2.56-1.85.27-3.86-.52-5.79-.84.85-1.82 1.3-4.81 2.61-5.25 7.09-2.38 11.32-7.62 15.88-13.09 3.23-3.87 8.43-6.04 12.52-9.26 4.81-3.78 9.34-7.19 11.83-13.79 2.77-7.36 8.86-13.48 13.48-20.14.84-1.21 2.06-2.38 2.31-3.72 1.26-6.68 5.8-11.43 9.09-16.97 3.31-5.58 4.33-12.47 7.14-18.42 3.85-8.14 1.58-16.18 1.64-24.45.08-13.18-7.69-24.34-7.04-37.53.35-7.08-2.62-14.31-3.92-21.51-.61-3.38-.51-6.9-1.25-10.24-1.4-6.31-3.27-12.52-4.74-18.82-.55-2.37-.62-4.87-.75-7.32-.34-6.33-2.96-9.2-9.17-8.93-10.37.45-20.72 1.24-31.07 1.96-2.93.2-6.01.17-8.71 1.13-2.22.79-4.36 2.62-5.69 4.57-.46.67 1.53 3.15 2.58 4.69 1.1 1.62 2.51 3.03 3.61 4.65 6.32 9.33 5.03 14.44-3.65 21.67-7.75 6.45-14.62 13.93-22.01 20.82-3.22 3-1.7 5.44.27 8.15 5.01 6.85 10.02 13.69 14.85 20.66 1.81 2.6 3.82 3.17 5.97 1.03 3.92-3.89 7.39-7.84 9.33-13.52 2.83-8.26 7.31-15.97 11.18-23.87 1.51-3.08 3.22-5.8 1.67-9.67-.92-2.28-.17-5.24-.17-7.9.61-.49 1.16-.95 1.72-1.41z"/><path d="m81.2 55.57c6.28 3.99 12.9 7.54 18.74 12.09 6.99 5.45 13.44 11.63 19.88 17.75 4.93 4.68 5.88 10.02 2.17 15.94-2.86 4.57-6.39 9.16-10.68 12.28-5.17 3.75-8.56 1.29-10.37-4.92-3.27-11.17-6.79-22.3-10.94-33.16-1.98-5.19-5.7-9.72-8.54-14.6-.75-1.29-1.18-2.77-1.76-4.17.5-.4 1-.8 1.5-1.21z"/><path d="m46.31 126.25c10.95 4.26 20.45 10.17 28.63 18.18 13.79 13.51 8.49 24.97-.95 36.86-3.25 4.1-9.03 2.1-10.88-3.22-.42-1.21-.77-2.49-.91-3.76-1.85-16.76-8.32-31.93-15.97-46.7-.14-.24.02-.61.08-1.36z"/><path d="m283.27 60.44c12.15 3.82 23.3 7.12 34.28 10.9 4.25 1.46 7.56 4.52 7.85 9.57.08 1.35.24 3.11-.48 4.02-5.03 6.46-10.21 12.81-15.6 18.97-.49.56-3.99-.33-4.03-.73-1.01-11.63-8.81-19.76-14.65-28.87-1.93-3.02-4.52-5.63-6.37-8.69-.86-1.43-.71-3.48-1-5.17z"/></g></svg>