<svg enable-background="new 0 0 400 400" viewBox="0 0 400 400" xmlns="http://www.w3.org/2000/svg"><path d="m5.17 384 .55-.58c.85.61 1.65 1.24 2.4 1.87l-.59.64c-.83-.73-1.62-1.38-2.36-1.93m1.22 9.53-.82-.34c.71-1.76 1.37-3.64 1.98-5.63.24.13.5.25.76.36-.6 1.67-1.24 3.54-1.92 5.61m-.5-13.5.57-.54c.56.44 1.31 1.06 2.26 1.87l-.64.64c-.68-.66-1.41-1.32-2.19-1.97m3.25.46h2.24v-1.36h.77v1.36h4.57v-1.36h.76v1.36h2.28v.69h-2.28v1.84h-2.64v1.26h4.18v2.64h-4.21c0 .45-.02.86-.05 1.21h4.32v.69h-4.38c-.04.34-.1.75-.19 1.22h5.15v.69h-4.82c.87 1.19 2.51 1.92 4.93 2.19-.17.31-.3.57-.37.76-2.77-.49-4.52-1.41-5.26-2.76-.56 1.26-2.3 2.23-5.24 2.9-.12-.24-.26-.48-.43-.72 2.73-.55 4.38-1.34 4.96-2.38h-4.38v-.69h4.65c.1-.38.17-.79.21-1.22h-4.32v-.69h4.4c.03-.34.05-.75.05-1.21h-4.2v-2.64h4.23v-1.26h-2.69v-1.84h-2.24zm1.46 4.46v1.29h3.45c.01-.4.02-.57.01-.53v-.32-.45h-3.46zm1.55-2.59h4.57v-1.19h-4.57zm6.11 2.59h-3.42v.77c-.01.19-.01.37-.02.53h3.44v-1.29z" fill="#fcfbfa"/><path d="m32.63 379.16h.82v1.98h3.54v7.89h1.46v.78h-14.37v-.78h1.46v-7.89h3.54v-1.98h.82v1.98h2.73zm-3.49 11.48.5.73c-1.61.82-3.28 1.63-5 2.41-.13-.27-.28-.55-.44-.82 1.75-.72 3.4-1.49 4.94-2.32m-2.78-5.55h2.73v-3.18h-2.73zm0 3.95h2.73v-3.2h-2.73zm3.54-3.95h2.73v-3.18h-2.73zm0 3.95h2.73v-3.2h-2.73zm7.89 4.68c-1.84-.92-3.51-1.7-5.02-2.32l.45-.73c1.89.8 3.57 1.55 5.04 2.23zm-1.62-11.81h-2.73v3.18h2.73zm-2.73 7.13h2.73v-3.2h-2.73z" fill="#fcfbfa"/><g fill="#010102"><path d="m122.9 319.3c3.47-1.1 6.93-2.22 10.41-3.29 5.43-1.66 10.88-3.24 16.29-4.95 5.67-1.79 7.39-6.63 8.34-11.69 1.64-8.65 3.18-17.34 4.28-26.07.45-3.6-.15-7.39-.65-11.04-.44-3.21-1.39-6.35-2.24-10.06-4.25-.79-7.16 2.39-9.96 5.05-6.16 5.81-12.01 11.95-17.65 17.62-7.29-3.3-13.97-6.67-20.91-9.36-4.55-1.77-7.8.24-7.66 5.07.3 10.71 1.02 21.44 2.3 32.07 1.03 8.53 3.13 16.93.65 25.52-.27.93-.41 2.16-.02 2.96 2.9 5.93-.9 10.02-3.95 14.14-3.95 5.35-9.46 8.64-16.03 9.41-1.17.14-3.65-2.7-3.91-4.41-1.35-8.9-1.63-17.99-3.34-26.81-1.45-7.43-3.65-14.86-9.39-20.57-5.86-5.84-11.51-11.88-17.47-18.07 3.25-4.38 8.27-5.08 13.23-5.8 1.47-.21 3 .04 4.49-.09 6.75-.58 10.46-3.69 12.04-10.89 1.94-8.82 5.91-17.17 8.48-25.88 1.74-5.9 2.24-12.16 3.9-18.1 3.15-11.27 7.03-22.35 10.06-33.65 4.84-18.05 9.17-36.24 13.87-54.33.97-3.75 2.4-7.43 4.03-10.95.69-1.48 2.46-2.46 3.74-3.67.48.29.96.58 1.43.87-.4 2.51-.69 5.04-1.21 7.52-2.31 10.99-4.65 21.97-7.05 32.94-2.01 9.22-4.38 18.37-6.11 27.65-2.22 11.87-4.14 23.8-5.82 35.75-1.05 7.47-1.54 15.04-1.97 22.58-.1 1.81.87 5.18 1.67 5.28 2.48.31 5.61.13 7.59-1.2 3.8-2.55 6.82-6.22 10.44-9.08 7.67-6.05 15.5-11.89 23.29-17.78 8.87-6.72 14.72-14.99 13.91-26.73-.63-9.19-1.42-18.38-1.9-27.58-.17-3.28-1.83-3.67-4.52-3.74-6.28-.15-12.54 2.1-18.87-.82-5.02-2.31-5.95-3.05-5.29-8.63 4.92-.5 9.83-.93 14.72-1.5 12.27-1.43 15.25-6.2 15.7-17.22.95-23.26-.39-46.46-7.03-68.93-1.94-6.58-6.08-12.52-9.24-18.74-.55-1.08-1.26-2.08-1.9-3.12.31-.53.61-1.07.92-1.6 4.25 1.57 8.59 2.92 12.72 4.75 8.65 3.83 17.15 8.03 25.81 11.84 3.7 1.62 7.59 2.9 11.52 3.88 4.82 1.2 5.78 4.37 5.58 8.71-.33 6.92-3.54 12.51-8.87 16.31-4.45 3.18-5.25 7.41-5.24 11.86.02 11.6.32 23.21 1.09 34.78.17 2.51 2.48 6.49 4.4 6.89 2.93.61 6.64-.84 9.54-2.34 1.78-.92 3.06-3.42 3.85-5.49 1.48-3.84 4.69-5.32 8.03-5.25 2.63.06 5.8 1.13 6.29 5.07.15 1.2 1.72 2.47 2.93 3.26 4.46 2.88 4.39 7.34 3.54 11.51-.38 1.85-2.9 4.33-4.76 4.64-6.94 1.16-14.03 1.43-21.03 2.25-2.87.34-5.66 1.35-8.53 1.81-4.14.66-5.57 3.54-5.37 7.06.38 6.54 1.17 13.06 2.08 19.55.1.74 2.14 1.76 3.23 1.7 5.99-.28 9.14-5.27 13.4-8.44 2.71-2.02 5.44-4.06 8.36-5.74 3.62-2.08 5.34.55 5.7 3.42.75 5.98.15 11.42-4.76 16.26-5.58 5.51-11.33 10.22-19.58 11.42 2.73 6.55 1.31 10.66-4.07 14.16-6.9 4.47-4.14 11.83-4.21 18.24-.05 4.72-.13 9.45-.05 14.17.09 4.93.26 9.87.59 14.8.24 3.59.93 7.15 1.17 10.74.44 6.43 1.07 12.87.94 19.3-.19 9.23-1.32 18.53-8.04 25.56-4.99 5.22-10.05 10.25-18.66 10.26-6.16.01-10.35-1.35-15.23-5.22-4.39-3.48-10.97-4.21-16.61-6.07-2.46-.81-5-1.43-7.5-2.13.03-.54.04-1.07.05-1.6z"/><path d="m337.74 183.48c5.42 3.01 10.31 5.95 15.4 8.49 4.42 2.2 7.19 5.52 8.51 10.19 1.91 6.73-1.15 10.76-8.14 10.86-9.07.12-17.89-.82-26.75-3.28-3.71-1.03-9.21.2-12.4 2.5-5.11 3.68-10.65 2.91-15.93 3.59-10.41 1.34-14.04 4.58-13.5 13.91.93 16.02 1.3 32.06 2.14 48.08.32 6.05 1.2 12.07 1.97 18.09.55 4.3 3.09 6.93 7.48 7.04 6.99.18 14.05.57 20.97-.18 3.46-.38 6.95-2.69 9.92-4.82 5.86-4.2 10.23-3.36 15.68 1.59 2.43 2.21 4.92 4.38 7.57 6.32 5.35 3.91 6.12 9.39 1.72 14.23-1.84 2.02-3.89 3.85-5.78 5.83-5.67 5.95-11.64 4.02-17.01-1.1-3.08-2.94-6.01-4.05-10.07-3.89-6.32.25-12.68.41-18.98-.07-3.42-.26-7.07-1.33-10.04-3.04-6.7-3.86-9.67-3.56-15.99.88-2.87 2.02-6.95 2.33-10.49 3.36-7.24 2.12-14.39 3.91-22.18 2.17-3.06-.68-6.7.95-10.03 1.74-7.49 1.77-12.5-1.94-17.46-6.93-3.89-3.91-8.69-6.92-13.05-10.36-.91-.72-1.89-1.49-2.47-2.45-.72-1.19-1.05-2.61-1.55-3.93 1.34-.43 2.71-1.29 4.03-1.22 7.24.35 14.46 1 21.7 1.37 2.37.12 4.77-.3 7.16-.45 5.26-.34 10.52-.84 15.79-.95 7.73-.16 9.66-1.35 9.93-9.12.63-18.08.91-36.18.99-54.27.02-4.52-.91-9.15-2.16-13.51-.4-1.4-3.24-2.88-5.02-2.95-5.09-.18-10.21.6-15.32.54-5.07-.06-10.25-.15-15.13-1.3-2.26-.53-4.58-3.3-5.7-5.62-1.54-3.19-.79-6.44 3.65-6.78 6.4-.49 12.85-.54 19.24-1.09 4.37-.38 8.79-.93 13.02-2.04 5.4-1.41 7.25-4.63 7.6-10.07.36-5.72 1.66-11.39 1.77-17.1.11-6.07-.58-12.17-1.13-18.24-.38-4.23-1.37-8.41-1.65-12.64-.5-7.59-1.98-9.31-9.52-9.82-1.99-.14-4-.11-6-.01-3.1.16-6.29-.8-6.17-3.95.08-2.06 2.67-4.5 4.73-5.91 3.67-2.5 7.72-4.49 11.74-6.42 4.69-2.25 9.64-3.98 14.25-6.37 8.81-4.56 17.53-9.32 26.17-14.2 5.68-3.21 11.22-6.67 16.71-10.18 7.22-4.62 12.44-.04 16.06 5.07 3.31 4.66 7.04 9.03 10.16 13.81 1.41 2.16 2.51 5.01 2.45 7.51-.08 3.17-2.92 3.72-5.86 3.78-6.43.12-12.93.01-19.25 1-6.34.99-12.72 2.63-18.64 5.06-5.29 2.17-5.2 4.26-1.06 8.14 3.83 3.6 4.51 10.78 1.32 15.89-1.55 2.49-2.99 5.28-5.18 7.09-5.13 4.25-4.24 9.72-3.72 15.1.74 7.66 2.1 15.26 2.64 22.92.46 6.47 5.58 10.5 11.94 8.72 4.38-1.23 8.74-2.6 13.19-3.53 9-1.89 14.83-8.61 21.68-13.78 1.6-1.2 3.07-2.5 4.05-3.3z"/><path d="m47.87 125.65c3.98 2.18 8.01 4.04 11.65 6.48 5.15 3.45 10.31 6.99 14.91 11.12 6.54 5.87 13.03 11.91 18.66 18.63 4.93 5.88 3.48 11.17-3.48 18.99-1 1.12-1.95 2.42-3.21 3.12-3.18 1.77-7.73 5.38-9.53 4.37-3.43-1.94-6.96-6.33-7.58-10.17-2.87-17.53-12.91-30.75-24.09-43.48-.22-.25-.51-.44-.71-.71-1.2-1.58-2.38-3.17-3.56-4.75 1.98-1.03 3.95-2.05 6.94-3.6z"/><path d="m76.94 46.88c2.51.7 5.53.73 7.43 2.2 8.78 6.78 17.59 13.37 24.36 22.62 4.22 5.76 11.11 9.56 16.76 14.28 3.01 2.52 3.76 5.2.73 8.42-1.05 1.11-1.95 2.84-2.01 4.32-.38 9.28-8.23 10.95-14.39 14.08-2.05 1.04-4.11.05-5.92-2.56-9.09-13.07-9.82-29.1-15.96-43.16-1.71-3.92-4.16-7.56-6.57-11.12-1.63-2.41-3.8-4.45-5.74-6.66.43-.79.87-1.61 1.31-2.42z"/></g></svg>