<svg enable-background="new 0 0 400 400" viewBox="0 0 400 400" xmlns="http://www.w3.org/2000/svg"><path d="m362.1 8.8c1.1.8 2.1 1.6 3.1 2.4l-1 1.1c-1.3-1.1-2.3-2-3-2.5zm1.9 4.8c.5.2.9.4 1.4.5-.6 2.3-1.3 4.5-1.9 6.8l-1.5-.5c.8-2.1 1.4-4.3 2-6.8zm-1-9.4c1.3.9 2.4 1.8 3.4 2.5l-1 1.1c-1.4-1.2-2.4-2.1-3.2-2.6zm3.7 2.2v-1.4h10.3v1.2c-.5 3.6-1.8 6.8-4 9.4 1.5 1.6 3.4 2.8 5.7 3.8-.3.4-.7.8-1.1 1.4-2.3-1.1-4.1-2.5-5.6-4.1-1.6 1.6-3.6 3.1-5.9 4.3-.3-.5-.7-.9-1-1.3 2.4-1.1 4.4-2.5 6-4.1-1.9-2.5-3-5.6-3.3-9.3h-1.1zm8.8 0h-6.4c.3 3.3 1.3 6 3 8.2 2-2.2 3.1-5.1 3.4-8.2z" fill="#fbfcfa"/><path d="m385.3 3.8h1.3v2.2h2.8v-2.2h1.3v2.2h4.1v9.1h1.7v1.3h-16.9v-1.3h1.7v-9.1h4.1v-2.2zm.4 13.1.7 1.2c-1.8.9-3.8 1.9-6 2.9-.2-.4-.5-.8-.8-1.3 2.3-1 4.3-1.9 6.1-2.8zm-3.1-6.4h2.8v-3.2h-2.8zm0 4.6h2.8v-3.3h-2.8zm4-4.6h2.8v-3.2h-2.8zm0 4.6h2.8v-3.3h-2.8zm3.7 1.9c2.1.9 4.1 1.8 6.1 2.7l-.7 1.3c-2.2-1.1-4.2-2-6.1-2.9zm3.2-9.7h-2.8v3.2h2.8zm-2.8 7.8h2.8v-3.3h-2.8z" fill="#fbfcfa"/><g fill="#010102"><path d="m94.46 353.55c1.3-1.21 2.41-3.05 3.94-3.51 9.42-2.84 15.86-10.11 23.48-15.56 11.44-8.18 22.9-16.43 33.59-25.53 8.12-6.92 15.11-15.18 22.5-22.94 2.6-2.73 4.89-5.74 7.3-8.65 6.37-7.72 12.73-15.45 19.07-23.2 1.14-1.39 2.4-2.75 3.21-4.33 2.25-4.38.13-7.96-4.71-7.79-16.7.58-33.4 1.44-50.1 1.85-3.48.09-7.17-.79-10.44-2.04-3.5-1.34-6.02-.61-8.45 1.81-.71.7-1.35 1.74-2.2 1.97-1.57.43-3.27.38-4.92.54.31-1.45.15-3.33 1.01-4.29 5-5.61 10.37-10.9 15.35-16.52 4.18-4.71 8.12-9.64 11.95-14.63 6.37-8.3 12.66-16.67 18.81-25.14 2.63-3.61 4.31-7.61 2.26-12.4-5.29 1.35-10.5 2.1-15.13 4.15-1.95.87-3.23 4.37-3.81 6.91-.91 3.98-3.49 5.47-6.93 5.62-3.26.14-8.97-4.83-9.18-7.66-1.06-14.3-2.16-28.59-2.98-42.9-.36-6.29 4.18-9.6 9.79-6.72 6.18 3.17 12.28 6.15 19.33 5.94 4.49-.13 9.02-.63 13.41-1.54 3.41-.71 4.86-3.21 4.48-6.96-.52-5.08-.44-10.21-.83-15.3-.28-3.67-2.55-4.84-6.14-4.78-9.66.17-19.34-.22-28.99.18-4.59.19-6.8-2.76-8.72-5.54-2.53-3.67.06-7.67 4.51-7.54 5.94.17 11.87.84 17.8.88 3.58.03 7.19-.56 10.74-1.18 3.85-.68 5.07-2.93 5.79-7.11 2.34-13.69-.93-26.89-2.21-40.26-.09-.97.08-1.96.18-3.75 3.34 1.18 6.39 2.06 9.27 3.3 5.37 2.31 10.68 4.75 15.94 7.29 5.22 2.52 6.72 12.65 2.84 17.1-2.3 2.64-5.19 5.35-6.11 8.53-3.19 10.99 1.84 16.15 13.09 14.25 1.78-.3 3.68.09 5.49-.12 5.72-.68 11.36-1.5 14.28-7.63.81-1.69 2.35-3.03 3.87-4.92 4.39 5.02 5.53 10.45 4.95 16.26-.09.87-1.96 2.09-3.13 2.25-6.5.85-13.05 1.33-19.56 2.11-4.03.48-8.14.89-12.03 1.98-7.14 2-9.32 6.79-7.22 14.02.72 2.48.93 5.15 1.08 7.75.3 5.15 2.22 7.18 7.21 7.21 3.5.02 7.01.13 10.5-.03 4.61-.22 8.64-1.7 11.31-5.84 1.96-3.03 4.56-4.12 7.89-2.15 3.49 2.07 6.2 5.12 4.38 9.16-3.54 7.86-2.43 15.71-1.36 23.71.61 4.62-1.75 10.79-9.24 9.79.42-6.11.51-12.36 1.36-18.5.88-6.37-1.96-10.4-8.42-10.08-5.52.28-11 1.31-16.52 1.8-2.07.18-4.2-.22-7.06-.41 0 1.46-.05 3.18.01 4.89.65 18.35 1.53 36.69 1.87 55.05.11 5.85-.93 11.76-1.87 17.58-1.16 7.21 1.03 10.11 8.54 9.99 14.8-.24 29.61-.4 44.4-1.04 16.81-.73 33.61-1.86 50.4-3 4.05-.28 8.04-1.65 12.09-1.85 6.51-.32 13.06.04 19.58-.13 5.11-.13 10.23-1.02 15.29-.73 1.63.09 3.79 2.61 4.5 4.48.96 2.53-.35 4.4-3.58 4.38-1.75-.01-3.5.75-5.27.88-14.96 1.05-30.08 1.06-44.79 3.53-5.5.92-9.41-2.63-14.08-1.46-15.6 3.93-31.49 2.65-47.3 3.06-4.34.11-7.73 2.18-6.79 7.52.65 3.7-1.14 6.09-3.61 8.63-4.11 4.23-7.84 8.86-11.52 13.48-2.39 3 .2 8.06 4.6 8.11 9.43.11 18.87-.45 28.31-.73 1-.03 1.99-.06 2.99-.12 10.7-.66 21.4-1.27 32.09-2.08 1.28-.1 2.65-1.12 3.69-2.04 4.21-3.73 8.12-7.81 12.54-11.25 1.41-1.1 4.78-1.6 6.01-.69 6.86 5.07 13.33 10.65 19.83 15.96-.76 5.37-3.18 8.04-8.4 8.22-2.21.08-3.93 1.04-3.78 4.34.65 14.58.68 29.2 1.35 43.78.23 5.08-1.83 7.37-7.85 8.73-3.33.75-6.83.98-9.98 2.16-3.29 1.23-5.31.02-6.04-2.7-2.74-10.22-8.64-13.11-19.02-10.7-7.28 1.69-15.14 1.22-22.74 1.17-5.55-.04-11.09-1.06-16.65-1.48-1.35-.1-2.87.18-4.12.72-4.13 1.79-8.18 3.78-12.86 5.98.23 2.04.31 4.68.86 7.2 1.94 8.75-4.07 13.79-13.18 12.51-.96-.13-2.23-1.94-2.42-3.12-1.5-9.35-2.9-18.73-4.08-28.13-1.16-9.26-1.95-18.56-3.04-27.83-.43-3.65-2.46-5.02-5.76-2.81-4.3 2.89-8.53 5.9-12.67 9.02-5.75 4.33-11.91 8.27-16.97 13.3-16.27 16.2-38.94 22.37-56.43 36.6-2.29 1.86-5.43 2.69-8.17 3.99-.52-.74-1.03-1.51-1.55-2.28zm119.41-70.62c.35 1.97.86 4.17 1.11 6.4.73 6.68 1.39 13.37 2.02 20.07.56 5.94 4.85 12.6 10.91 12.64 4.18.03 8.37.11 12.55-.07 14.69-.61 29.37-1.32 44.06-1.97 4.9-.22 6.89-2.69 6.53-7.6-.52-7.08-.53-14.2-1.1-21.28-.74-9.21-3.01-11.25-12.23-11.09-7.77.14-15.53.6-23.3.96-13.26.63-26.53 1.27-40.55 1.94zm-62.21-53.97c.41.68.82 1.36 1.23 2.03 7.9 0 15.82.41 23.67-.21 2.9-.23 7.75-2.56 8.05-4.5 1.47-9.55 1.87-19.28 2.23-28.96.06-1.71-1.82-3.49-2.81-5.24-1.92 1.1-4.86 1.73-5.6 3.37-3.81 8.4-10.87 13.96-16.8 20.53-3.64 4.04-6.66 8.64-9.97 12.98zm23.04-61.57c11.36-.05 10.38-.97 11.95-7.4.93-3.8-.7-8.31-1.58-12.41-.22-1.03-2.01-2.5-3-2.45-5.84.34-11.67.88-17.46 1.71-6.98 1.01-5.67 6.57-5.55 11.18.1 4.17 1.26 7.7 6.49 8.03 3.06.21 6.09.88 9.15 1.34z"/><path d="m285.19 202.35c4.21-.75 8.4-1.86 12.65-2.17 4.6-.34 5.24-2.88 5.2-6.68-.12-12.66-.17-25.32 0-37.98.12-9.43 1.19-18.88.8-28.28-.39-9.63-1.93-19.22-3.16-28.81-.98-7.61-2.31-15.17-3.36-22.77-1.44-10.47-6.35-19.41-12.15-27.96-.28-.41-.8-.71-.93-1.15-.57-1.88-1.03-3.8-1.54-5.7 1.67.48 3.42.78 5 1.48 10.25 4.55 20.6 8.9 30.61 13.93 3.83 1.92 6.87 5.44 10.48 8.41-2.16 3.06-3.55 5.08-4.99 7.05-2.46 3.37-4.19 6.79-3.91 11.29.41 6.47-.3 13.02.19 19.48 1.04 13.91 2.74 27.78 3.77 41.69.5 6.79-.11 13.66.22 20.48.26 5.38 1.46 10.72 1.73 16.1.46 9.52-1.17 18.45-8.49 25.48-4.09 3.92-7.97 8.05-12.05 11.98-4.15 4-6.43 3.66-9.73-1.12-3.24-4.71-6.55-9.36-10.34-14.75z"/><path d="m103.62 330c-10.06 0-11.26-.96-13.67-10.85-1.31-5.37-2.7-10.73-4-16.1-2.18-9.02-9.62-13.92-15.61-19.94-.79-.8-2.14-1.16-2.69-2.05-1.05-1.7-1.7-3.64-2.52-5.47 1.79-.53 3.56-1.36 5.38-1.52 4.93-.44 10.43 1.48 13.94-4 2.61-4.08 6.24-7.74 7.91-12.15 4.42-11.71 8.5-23.59 11.79-35.66 2.13-7.83 2.49-16.12 3.87-24.17 1.66-9.63 3.82-19.18 5.28-28.83 1.82-11.96 3.06-24.01 4.74-35.99.72-5.14 1.62-10.3 3.09-15.26.48-1.64 2.84-3.38 4.64-3.82 3.07-.74 3.37 1.83 3.23 4.17-.19 3.3-.05 6.68-.74 9.88-1.89 8.72-4.4 17.32-6.18 26.06-1.8 8.78-3.04 17.68-4.47 26.54-.31 1.94-.4 3.92-.6 5.88-1.3 12.73-2.65 25.46-3.9 38.2-.48 4.92-1.02 9.86-1.05 14.8-.13 17.86-.16 35.72 0 53.58.08 9.1.76 18.2.92 27.3.15 9.4.02 9.4-9.36 9.4z"/><path d="m260.14 106.17c4.69-2.53 3.74-6.86 3.91-10.98.09-2.15.47-5.05 1.88-6.15 1.35-1.07 4.33-.77 6.33-.19 6.01 1.74 8.53 6.46 8.65 12.3.1 4.76-.89 9.53-.8 14.29.17 8.75.68 17.49 1.26 26.22.3 4.57 1.27 9.09 1.57 13.66.51 7.75.42 15.55 1.14 23.28.7 7.54-8.14 12.02-13.61 11.16-1.7-.27-4.29-3.17-4.26-4.82.27-13.86 1.25-27.71 1.58-41.57.14-6.05-.45-12.17-1.29-18.18-.71-5.05-2.15-10.01-3.52-14.94-.37-1.34-1.65-2.42-2.84-4.08z"/><path d="m98 164.77c.81 3.75-1.57 5.86-4.87 7.73-3.95 2.24-7.42 5.47-11.56 7.17-2.88 1.18-6.8 1.31-9.71.33-1.8-.61-3.64-4.17-3.69-6.44-.4-16.03-2.95-31.53-10.34-45.9-2.52-4.9-5.86-9.38-8.74-14.1-.42-.69-.39-1.67-.57-2.51.86-.02 1.84-.32 2.57-.02 2.23.92 4.76 1.63 6.48 3.19 10.15 9.21 20.2 18.53 30.09 28.02 5.96 5.71 10.32 15.58 10.34 22.53z"/><path d="m83.75 70.51c8.5 2.72 18.46.31 25.67 6.88 4.23 3.85 7.61 9.01 10.16 14.18 2.02 4.08.3 8.43-3.88 11.09-4.39 2.79-8.83 5.51-13.3 8.17-4.17 2.47-7.3 1.01-7.3-3.91 0-10.94-3.75-20.32-10.36-28.86-1.28-1.65-1.49-4.13-2.19-6.23.4-.44.8-.88 1.2-1.32z"/><path d="m210.85 183.7c8.16 2.33 16.93 4.61 25.53 7.4 3.16 1.03 6.11 3.04 8.76 5.11.92.72 1.37 3.35.8 4.46-6.08 11.76-12.89 12.61-22.16 2.69-3.17-3.39-6.95-6.22-10.46-9.3-1.85-1.62-3.94-3.04-5.45-4.93-.71-.89-.49-2.71-.27-4.04.07-.43 1.47-.66 3.25-1.39z"/><path d="m82.18 360.42c1.17-4.92 2.43-5.68 8.38-5.05-.25 5.37-1.82 6.32-8.38 5.05z"/></g></svg>