<svg enable-background="new 0 0 400 400" viewBox="0 0 400 400" xmlns="http://www.w3.org/2000/svg"><path d="m362.1 8.8c1.1.8 2.1 1.6 3.1 2.4l-1 1.1c-1.3-1.1-2.3-2-3-2.5zm1.9 4.8c.5.2.9.4 1.4.5-.6 2.3-1.3 4.5-1.9 6.8l-1.5-.5c.8-2.1 1.4-4.3 2-6.8zm-1-9.4c1.3.9 2.4 1.8 3.4 2.5l-1 1.1c-1.4-1.2-2.4-2.1-3.2-2.6zm3.7 2.2v-1.4h10.3v1.2c-.5 3.6-1.8 6.8-4 9.4 1.5 1.6 3.4 2.8 5.7 3.8-.3.4-.7.8-1.1 1.4-2.3-1.1-4.1-2.5-5.6-4.1-1.6 1.6-3.6 3.1-5.9 4.3-.3-.5-.7-.9-1-1.3 2.4-1.1 4.4-2.5 6-4.1-1.9-2.5-3-5.6-3.3-9.3h-1.1zm8.8 0h-6.4c.3 3.3 1.3 6 3 8.2 2-2.2 3.1-5.1 3.4-8.2z" fill="#fbfcfa"/><path d="m385.3 3.8h1.3v2.2h2.8v-2.2h1.3v2.2h4.1v9.1h1.7v1.3h-16.9v-1.3h1.7v-9.1h4.1v-2.2zm.4 13.1.7 1.2c-1.8.9-3.8 1.9-6 2.9-.2-.4-.5-.8-.8-1.3 2.3-1 4.3-1.9 6.1-2.8zm-3.1-6.4h2.8v-3.2h-2.8zm0 4.6h2.8v-3.3h-2.8zm4-4.6h2.8v-3.2h-2.8zm0 4.6h2.8v-3.3h-2.8zm3.7 1.9c2.1.9 4.1 1.8 6.1 2.7l-.7 1.3c-2.2-1.1-4.2-2-6.1-2.9zm3.2-9.7h-2.8v3.2h2.8zm-2.8 7.8h2.8v-3.3h-2.8z" fill="#fbfcfa"/><g fill="#010102"><path d="m110.68 344.5c.44-16.04.97-32.07 1.27-48.11.07-3.92-.68-7.85-.91-11.78-.12-2.02-.55-4.39.27-6.05 5.34-10.66 2.77-21.2.06-31.81-1.84-7.24-3.58-14.51-5.26-21.78-.21-.89-.07-2.08.37-2.88 2.56-4.69 5.01-9.48 7.98-13.9 2.22-3.3 5.32-3.08 7.56.13 3.15 4.51 7.11 6.38 12.65 5.76 5.89-.67 11.85-.93 17.79-1 3.76-.04 7.89-.27 11.22 1.11 7.37 3.06 14.65.19 21.91.83 6.53.58 13.03 1.52 19.57 1.84 3.91.19 7.86-.74 11.79-.81 8.33-.14 16.67-.21 24.99.04 3.52.1 5.42-1.47 7.12-4.2 2.76-4.43 5.66-8.77 8.67-13.04 2-2.84 4.24-4.09 7.07-.59 5.05 6.26 10.55 12.18 15.38 18.6 3.58 4.76 5.11 9.91 1.16 15.76-1.68 2.49-2.22 6.16-2.25 9.31-.19 21.16.58 42.35-.36 63.47-.53 11.95-3.21 23.9-5.86 35.64-1.85 8.18-8.07 13.77-15.1 17.96-6.06 3.61-12.29-.32-13.72-8.27-.15-.81.02-1.67-.07-2.49-1.15-10.55-4.14-13.34-14.78-13.18-7.44.11-14.88 1.05-22.3.87-15.04-.37-30.06-1.42-45.1-1.83-6.25-.17-12.57.28-18.77 1.12-1.84.25-4.19 2.48-4.88 4.34-2.69 7.14-4.73 14.52-7.17 21.76-1.72 5.1-6.2 8.34-9.31 6.39-2.95-1.85-6.11-4.33-7.59-7.32-2.41-4.84-3.52-10.32-5.18-15.53.6-.14 1.19-.25 1.78-.36zm90.16-23.5h33.5c7.69 0 8.73-.24 10.55-7.97 1.71-7.27 2.79-14.83 2.98-22.28.43-16.82.17-33.66.12-50.49-.04-12.06-5.09-15.87-16.84-12.88-2.2.56-4.4 1.46-6.63 1.55-18.03.78-36.07 1.38-54.1 2.07-7.77.3-15.57.36-23.29 1.14-3.38.34-7.35 1.4-9.69 3.59-2.55 2.4 1.72 12.92 4.74 15.41 3.47 2.86 6.87.77 10.31.86 7.4.21 14.81.61 22.21.62 7.45.01 15.17-1.64 22.28-.19 7.32 1.5 12.63-.76 17.66-4.72 8.19-6.44 14.78-4.85 18.37 4.94 1.41 3.84-1.14 8.08-5.24 8.31-13.03.75-26.06 1.65-39.1 1.96-14.32.34-28.66.1-42.99.06-4.49-.01-6.75 2.05-6.68 6.59.03 2 0 4 0 6 0 7.97 2.49 10.42 10.67 10.43 12 .02 24-.04 36 .05 1.75.01 3.49.71 5.26.92 3.07.37 6.63 1.76 9.16.71 7.89-3.27 15.45-7.35 23-11.38 3.03-1.62 5.53-2.57 7.16 1.37 1.42 3.44 2.76 6.94 3.79 10.52 1.44 4.98.21 7.3-4.56 8.78-2 .62-4.18 1.1-6.24.98-7.86-.46-15.71-1.68-23.56-1.69-7.69-.01-15.37 1.43-23.07 1.68-9.66.32-19.33.16-28.99.04-4.2-.05-7 1.79-8.36 5.58-1.55 4.3.88 11.01 5.36 12.46 6.9 2.23 14.08 4.31 21.25 4.79 11.6.76 23.3.19 34.97.19z"/><path d="m323.9 162.91c0 4.32-.27 8.66.06 12.95.48 6.2 1.48 12.36 2.07 18.56.12 1.27-.16 3.34-.98 3.82-5.27 3.09-10.73 5.87-16.18 8.66-.43.22-1.37-.07-1.83-.43-5.44-4.35-10.75-8.88-16.28-13.12-4.27-3.27-9.14-5.81-13.13-9.37-8.08-7.23-15.77-14.9-23.58-22.43-4.47-4.31-6.75-4.77-11.63-1.27-8.22 5.92-16.55 11.75-24.3 18.25-7.28 6.1-13.92 12.97-20.75 19.6-5.84 5.67-8.32 5.67-13.34-.67-1.6-2.02-2.77-4.39-4.01-6.68-1.72-3.18-1.12-5.76 1.78-8.18 11.54-9.61 13.55-23.28 15.1-36.96 1.03-9.16 1.73-18.38 1.95-27.59.17-7.08-.69-14.18-.97-21.28-.12-3.02.07-6.06.08-9.09.02-6.19-.58-12.46.17-18.56.79-6.36-.35-12.18-2.01-18.17-.87-3.12-.88-6.49-1.11-9.76-.08-1.09.01-2.52.64-3.27 1.76-2.06 3.85-3.84 5.81-5.74 2.49 2.7 5.36 5.15 7.36 8.18 1.36 2.06 1.29 5 2.26 7.38.64 1.58 1.99 2.87 4.11 5.79.45-7.97 4.8-7.75 9.35-7.59 12.59.44 25.19.65 37.78 1.07 3.78.13 7.65.19 11.28 1.08 4.97 1.21 7.74-1.51 10.41-4.7 6.52-7.81 10.78-8.05 18.83-1.06 4.81 4.18 8.05 8.42 4.49 15.35-1.47 2.86-1.07 6.73-1.34 10.15-.72 8.85-1.46 17.71-1.96 26.58-.17 2.93-1.5 3.84-4.09 3.56-2.6-.27-5.22-1.05-7.79-.9-7.7.46-15.39 1.17-23.05 2.06-1.23.14-2.47 1.59-3.4 2.69-2.74 3.25-5.45 6.55-7.94 9.99-2.69 3.72-.03 9.21 4.66 9.06 10.54-.34 21.06-1.19 31.59-1.82 1.49-.09 3.02-.23 4.49-.05 4.17.52 6.93-1.27 9.55-4.46 6.16-7.51 8.35-7.67 14.16-.6 2.08 2.52 4.48 7.03 3.52 9.22-1.18 2.7-5.55 5.06-8.85 5.58-8.42 1.33-17 1.71-25.53 2.17-5.48.3-10.99.06-16.49.06-8.95 0-9.75 1.31-5.61 9.63 6.72 13.52 16.6 24.24 29.28 32.39 4.13 2.66 8.92 1.71 13.13-2.17 3.41-3.15 7-6.12 10.52-9.17.59.44 1.15.85 1.72 1.26zm-79.85-74.91c8.16 0 16.33-.01 24.49 0 4.32.01 6.76-1.69 6.5-6.45-.21-3.99-.04-7.99-.04-11.99 0-9.01-1.54-10.79-10.7-10.5-12.37.4-24.73 1.38-37.1 1.89-7 .29-10.89 3.36-12.16 10.3-.38 2.09-.71 4.18-1.02 6.28-.99 6.61 2.34 10.46 9.03 10.46 7.01.01 14.01.01 21 .01zm-14.42 44c-3.32 0-6.65.11-9.96-.03-3.72-.15-6.15 1.5-6.67 5.08-.61 4.19-.92 8.46-.96 12.71-.12 12.91 2.46 14.9 14.13 10.09 9.27-3.82 17.7-8.64 18.78-20.48.5-5.55-.27-7.3-5.86-7.36-3.15-.04-6.31-.01-9.46-.01zm2.5-10c4.44-.05 11.35-6.27 10.65-10.49-.61-3.68.09-9.13-5.08-10.1-7.51-1.41-15.07-.63-21.49 4.08-3.89 2.85-4 12.2-.28 13.28 5.26 1.53 10.78 2.19 16.2 3.23z"/><path d="m76 185.3c0-9.26-1.38-18.77.25-27.74 5.99-33.02 1.15-66.22 2.6-99.29.21-4.76-1.71-9.6-2.36-14.43-.19-1.42.13-3.67 1.05-4.29 1.03-.7 3.62-.59 4.48.25 2.61 2.55 5.11 5.39 6.92 8.54 1.83 3.18 3.71 4.87 7.68 4.76 12.51-.36 24.96-.35 37.21 3.51 2.58.81 6.8-1.73 9.53-3.73 3.59-2.62 6.3-6.42 9.75-9.28.98-.81 4.17-.8 4.72-.02 3.92 5.59 7.65 11.35 10.91 17.35.84 1.54.54 4.74-.56 6.09-3.33 4.08-2.33 8.47-2.15 12.95.2 5.02-.12 10.06.09 15.08.25 5.91 1.12 11.81 1.21 17.72.18 10.57-.39 21.16.04 31.71.41 10.03-3.46 19.33-4.11 29.03-.57 8.53-4.44 14.5-10.19 19.9-2.94 2.75-6.21 1.92-6.96-1.96-.71-3.68-.79-7.49-1.1-11.24-.74-8.94-3.76-11.45-12.54-11.19-7.27.22-14.53.93-21.79.87-5.12-.04-8.17 1.72-9.01 6.88-.52 3.21-1.85 6.49-1.53 9.61 1.09 10.6-7.72 14.09-13.68 19.47-.76.68-5.34-.94-6.04-2.47-2.62-5.69-4.36-11.79-6.43-17.73.67-.11 1.34-.23 2.01-.35zm50.29-25.85c.01-.15.03-.3.04-.45 3.83 0 7.66-.05 11.49.01 3.54.06 5.42-1.73 6.2-5.07 2.8-11.99 4.86-23.84 3.24-36.43-1.76-13.72-1.66-27.68-2.23-41.54-.36-8.58-4.23-11.58-12.64-9.72-2.54.56-5.23.74-7.83.67-4.27-.12-8.54-.92-12.79-.78-2.27.07-5.09.91-6.64 2.44-6.92 6.84-6.37 19.79 1.1 25.93 1.52 1.25 4.33 1.63 6.4 1.35 4.31-.58 8.5-2 12.8-2.76 1-.18 2.77.63 3.25 1.5 2.5 4.45-2.21 12.33-7.28 12.38-5.5.06-11-.12-16.48.12-1.31.06-3.63 1.31-3.68 2.13-.39 6.03-1.22 12.32 3.19 17.4.87 1 2.87 1.46 4.32 1.42 6.09-.19 12.17-.8 18.26-1 3.54-.11 5.7 2.45 5.4 5.48-.13 1.32-3.49 3.08-5.53 3.31-6.38.72-12.84.73-19.26 1.18-3.09.22-6.09.87-5.52 5.17.34 2.58.78 5.17.88 7.76.16 4.45 2.42 7.28 6.63 7.92 5.5.86 11.11 1.09 16.68 1.58z"/></g></svg>