<svg enable-background="new 0 0 400 400" viewBox="0 0 400 400" xmlns="http://www.w3.org/2000/svg"><path d="m6.8 9.5c.6.3 1.3.7 2.1 1.1-.4.4-.7.8-.9 1.2-.7-.4-1.3-.8-1.8-1.1s-1.1-.6-1.6-.8c.2-.4.5-.8.7-1.2.4.2.8.5 1.5.8zm.9 6.9c-.3.6-.5 1.1-.7 1.7s-.4 1.1-.6 1.7c-.6-.4-1.1-.7-1.6-1 .7-1 1.2-1.8 1.5-2.4.3-.5.6-1.1.8-1.7.3-.6.5-1.2.8-1.8.3.3.8.6 1.3.8-.7 1.3-1.2 2.2-1.5 2.7zm.1-11c.4.3 1 .7 1.7 1.1-.5.2-.8.6-1.1 1.1-.5-.6-1-1-1.4-1.2s-.9-.6-1.5-.8c.2-.4.5-.7.9-1.1.5.3.9.6 1.4.9zm10.5 13.1c1 .4 2 .6 3.1.7-.4.4-.7.8-.8 1.3-.9-.2-1.9-.6-3-.9-1-.4-2-.9-2.8-1.6-.5.4-1.1.9-1.9 1.3s-1.9.9-3.3 1.2c-.1-.3-.5-.8-1.1-1.3 1 0 2.1-.3 3.2-.8 1.2-.5 1.9-1 2.3-1.7h-3.2c-.4 0-1 0-2 .1v-1.2c1 0 1.7.1 2 .1h3.3v-1h-2.3c-.2 0-.9 0-2 .1v-1.2c1.2 0 1.9.1 2 .1h2.3v-.8h-4.1c0-.7.1-1.2.1-1.6 0-.5 0-1.1-.1-1.8h4.1v-.7h-2.5c1-.6.1-1.1.1-1.6v-.6h-.5c-.4 0-1 0-1.8.1v-1.3c1.2 0 1.9.1 2.1.1h.2c0-.3 0-.8-.1-1.4h1.4c0 .6-.1 1-.1 1.4h3.4c0-.4 0-.8-.1-1.3h1.5c0 .4-.1.9-.1 1.3.7 0 1.5 0 2.5-.1v1.2c-1 0-1.8-.1-2.5-.1v.6c0 .3 0 .8.1 1.5h-2.5v.8h4.1c0 .7-.1 1.3-.1 1.8s0 1 .1 1.5h-4.1v.8h1.4c.8 0 1.8 0 2.9-.1v1.2c-1 0-1.9-.1-2.8-.1h-1.5v1h3.2c.3 0 1 0 2.1-.1v1.2c-1.1 0-1.8-.1-2.1-.1h-3.4l-.1.1c1.4 1 2.4 1.5 3.4 1.9zm-4.1-6.7v-1.3h-2.7v1.3zm2.2-4.1v-1.1h-3.4v1.1zm1.9 4.1v-1.3h-2.8v1.3z" fill="#fcfafa"/><path d="m37 6.7v2.3 5.4c1 0 1.8 0 2.2-.1v1.3c-.6 0-1.5-.1-2.5-.1h-11.9c-.7 0-1.3 0-1.8.1v-1.3c.5 0 1.1.1 2 .1v-5.2c0-1 0-1.8-.1-2.5h3.7c0-1.3 0-2.1-.1-2.5h1.5c0 .4-.1 1.3-.1 2.5h2.2c0-1.2 0-2.1-.1-2.6h1.5c0 .4-.1 1.3-.1 2.6zm-12.3 13.7c-.3-.4-.7-.8-1.1-1.1 1.1-.4 2.1-.9 2.9-1.3.8-.5 1.5-1 2.1-1.6.4.4.9.8 1.3 1.1-2.5 1.4-4.2 2.4-5.2 2.9zm3.9-10.1v-2.4h-2.2v2.4zm0 4.1v-2.9h-2.2v2.9zm3.5-4.1v-2.4h-2.2v2.4zm0 4.1v-2.9h-2.2v2.9zm.4 2.9 1-1.1c.6.3 1.4.7 2.5 1.3s2 1.1 2.7 1.5c-.4.4-.8.8-1.1 1.3-.8-.8-2.5-1.7-5.1-3zm3.1-7v-2.4h-2.1v2.4zm0 4.1v-2.9h-2.1v2.9z" fill="#fcfafa"/><path d="m177.27 268.13c-8.06 3.53-8.18 3.53-8.22-5.52-.02-4.02-1.59-5.76-5.64-5.64-4.96.15-9.93.04-14.83.04-1.92 7.97-.6 16.51-6.73 22.79-5.87-2.88-8.18-7.08-7.9-13.29.45-9.76.92-19.53.93-29.3 0-4.54-1.21-9.08-1.57-13.64-.16-2.05.58-4.15.63-6.24.38-14.09 1.28-28.21.84-42.28-.31-9.96-2.55-19.85-3.75-29.79-.81-6.73 3.01-10.5 9.11-7.95 6.81 2.85 13.25 2.33 20.02 1.12.84-.15 1.81.28 2.7.54 3.5.99 5.97.13 7.16-3.6 1.43-4.47 3.96-6.15 8.95-4.54 5.54 1.78 9.55 4.75 11.48 10.22.4 1.14.56 2.73.08 3.77-4.99 10.69-4.4 22.09-4.57 33.43-.23 15.27-.48 30.54-1.04 45.8-.34 9.38-1.36 18.73-1.85 28.11-.08 1.55 1.05 3.17 1.63 4.75 1.53-.86 3.56-1.34 4.51-2.63 6.84-9.34 9.45-20.44 10.53-31.5 1.35-13.69.85-27.55 1.27-41.34.15-5.11 1.08-10.22.85-15.3-.24-5.33-1.64-10.6-2.19-15.93-.73-7.03-1.37-14.09-1.63-21.15-.28-7.77-2.49-10.69-9.98-12.07-.92-.17-1.95-.48-2.62-1.08-7.14-6.4-15.89-7.23-24.78-6.79-6.7.33-13.61-2.11-20.19 1.52-1.02.57-3.37-.64-4.78-1.53-2.76-1.74-5.13-4.11-7.96-5.7-1.96-1.1-5.89-2.42-6.38-1.75-1.71 2.31-3.18 5.46-3.13 8.27.11 6.87 1.44 13.71 1.7 20.59.55 14.59.92 29.2 1 43.8.05 8.63-.7 17.26-.86 25.89-.05 2.76.39 5.58 1 8.28 3.38 15.06 1.49 30.2 1.38 45.35-.04 5.7-.3 10.88-2.3 16.11-.29.77.21 1.87.42 2.8.44 1.93 1.91 4.33 1.24 5.68-3.4 6.85-1.3 14-1.73 20.98-.36 5.78-3.37 10.09-8.87 11.51-3.37.87-10.38-4.35-11.16-8.51-3.09-16.38-1.05-13.15-17.35-13.26-3.62-.02-7.31 1.42-10.85 2.55-5.54 1.77-7.6 5.77-8.01 11.57-.39 5.61-1.77 11.23-3.39 16.64-1.6 5.35-10.88 7.23-14.93 2.82-2.26-2.45-4.35-6.25-4.31-9.42.32-27.54.6-55.1 2.06-82.6.59-11.1-2.33-21.81-1.32-32.83 1.98-21.52-.5-43.07-.15-64.62.15-9.59-2.05-19.21-3.03-28.84-.44-4.26-.22-8.6-.84-12.83-.54-3.7-1.67-7.35-2.82-10.93-1.07-3.36-2.81-6.53-3.69-9.92-.74-2.86 4.55-6.02 7.52-4.17 7.88 4.9 17.32 7.46 23.32 15.21 1.38 1.78 2.74 3.66 3.7 5.68 1.65 3.48 5.68 5.47 9.42 4.89 4.59-.71 9.33-.57 13.86-1.51 1.81-.38 3.71-2.38 4.72-4.12 2.85-4.93 5.21-10.14 7.87-15.18 2.47-4.66 7.37-5.32 10.14-.89 3.7 5.92 7.38 11.6 13.86 14.86.65.33 1 1.63 1.13 2.54 1.4 9.15 2.46 9.74 12.01 9 11.85-.91 23.72-1.4 35.59-2.03 1.99-.11 4-.01 6-.02 11.44-.03 12.53-2.87 14.93-11.48 2.42-8.71.85-17.04.23-25.45-.34-4.67-4.42-7.76-8.62-10.13-1.62-.92-4.13-3.49-3.84-4.02 1.2-2.22 2.98-5.03 5.14-5.67 5.84-1.75 11.89-2.27 17.36 1.86 1.34 1.01 3.31 1.73 4.98 1.69 4.28-.09 6.36 1.12 4.04 6.03 8.74-5.08 16.64-3.88 22.56 4.02 2.76 3.68 2.37 9.63-1.71 11.62-3.13 1.53-4.6 4.19-6.95 6.08-4.65 3.74-5.68 8.39-5.67 13.77.01 10.13 4.57 13.86 14.39 11.44 3.89-.96 7.51-2.21 10.7 1.6.4.48 3.19-.06 3.25-.42.72-4 3.72-2.8 6.14-2.94 6.09-.34 12.24-.27 18.25-1.16 3.4-.5 7.22-1.86 9.69-4.11 3.29-2.99 7.06-4.74 10.76-6.86 1.24-.71 1.95-2.35 3.59-4.42 11.63.93 19.52 6.91 22.33 17.86 1.41 5.49-3.7 12.35-9.64 12.66-8.76.45-17.53.96-26.3.96-9.13 0-18.26-1-27.38-.81-11.01.23-22.02 1.11-32.99 2.13-1.07.1-2.51 3.09-2.66 4.83-.61 7.08-.91 14.19-1.08 21.29-.17 6.86-.04 13.73-.04 20.6 0 6.69.47 13.43-.1 20.07-1.08 12.57-2.97 25.07-4.11 37.63-.67 7.44-1.26 15.02-.53 22.41.46 4.59 2.72 9.37 7.39 12.06 4.7 2.71 8.23.96 8.33-4.31.37-18.1.74-36.2.99-54.3.14-9.88.28-19.78-.06-29.65-.28-8.2-1.27-16.38-1.91-24.57-.3-3.91.59-5.35 5.32-4.57 5.45.9 8.69 4.15 12.43 7.36 1.44 1.23 3.9 1.9 5.83 1.79 6.2-.36 12.36-1.56 18.56-1.75 4.21-.12 7.27-1.24 9.26-5.04 1.67-3.18 3.62-6.21 5.26-9.41 1.56-3.05 3.33-4.92 6.97-2.8 2.08 1.21 4.99 1.57 6.4 3.26 4.08 4.9 11.93 5.94 13.38 13.58.5 2.63.5 4.07-1.6 6.25-5.7 5.92-10.52 12.33-9.96 21.54.57 9.3-.1 18.67.17 27.99.5 17.04 1.38 34.07 1.91 51.1.23 7.31-8.04 20.47-14.45 23.4-3.55-3.34-3.76-7.91-3.28-12.14.7-6.12-1.11-9.34-7.26-9.81-7.08-.54-14.19-.87-21.29-1.01-6.02-.11-9.93 3.86-10.74 9.74-.44 3.18-1.2 6.48-2.63 9.31-2.09 4.13-.64 7.24 1.07 10.98 2.42 5.31 6.25 7.97 11.52 10.08 6.75 2.7 13.77 5.71 19.28 10.27 5.2 4.31 11.26 4.76 16.8 7.21 5.99 2.65 11.48 6.41 17.2 9.68.4.23.8.49 1.23.62 10.87 3.2 21.69 6.6 32.66 9.45 3.6.94 7.57.4 11.37.61 4.57.25 9.14.57 13.84 2.05-6.97 1.31-13.98 2.48-20.91 3.98-6.8 1.47-13.87 2.46-20.18 5.16-7.25 3.1-14.16 7.36-20.52 12.05-5.22 3.86-9.64 3.11-14.54.32-6.77-3.85-13.53-7.75-20.3-11.61-.85-.49-1.97-.69-2.6-1.37-4.62-4.96-9.99-8.71-15.94-12.09-8.79-5-14.02-13.67-19.14-22.13-3.56-5.89-7.28-11.74-10.17-17.96-2.83-6.1-4.52-12.73-7.08-18.97-1.18-2.88-3.23-5.41-4.89-8.1-.77 0-1.54-.01-2.31-.01-3.97 5.75-7.9 11.52-11.92 17.23-2.72 3.87-5.27 7.92-8.4 11.45-5.76 6.49-11.58 12.99-17.95 18.87-5.88 5.42-12.25 10.42-18.88 14.91-10.45 7.1-21.1 13.95-32.03 20.3-11.43 6.63-22.72 13.44-33.84 20.58-4.8 3.08-10.34 5-15.9 6.75 2.23-6.55 8-8.73 12.94-11.5 5.2-2.92 11.04-4.71 16.57-7.06 1.19-.51 2.32-1.22 3.35-2 12.61-9.63 25.47-18.96 37.66-29.08 6.63-5.51 12.09-12.43 18.15-18.64 4.94-5.07 9.92-10.11 15.02-15.01 3.62-3.48 3.66-9.42-.18-12.99zm-112.05-13.12c-.07.01-.15.01-.22.02 0 3-.09 5.99.02 8.99.22 6.11 2.09 8.08 8.05 7.95 6.26-.14 12.53-.52 18.77-1.06 1.15-.1 2.63-1.23 3.21-2.29 2.6-4.71 3.87-9.38 3.32-15.25-.75-7.89.69-16.03 1.61-24.01.52-4.49-.88-7.25-4.14-6.75-8.06 1.23-16.12 2.49-24.22 3.35-7.1.76-7.78 1.06-7.57 8.3.19 6.91.77 13.83 1.17 20.75zm14.44-153.01c-2 0-4-.09-5.99.02-7.45.42-10.9 3.77-10.61 11.01.48 12.05 1.09 24.11 2.09 36.12.27 3.23 1.52 7.02 5.95 7.23 3.09.14 6.27.08 9.31-.46 9.88-1.75 13.93-4.47 13.58-15.88-.25-7.93-.48-15.87-1.07-23.78-.27-3.67-.72-7.56-2.22-10.83-2.15-4.7-7.02-3.3-11.04-3.43zm13.88 67.32c-6.36-3.94-13.52-3.04-20.53-3.42-4.56-.25-6.78 2.12-7.76 5.84-.83 3.13-1.13 6.47-1.19 9.72-.16 8.34-.11 16.69-.03 25.03.06 6.49 2.62 9.78 8.51 11.29 8.32 2.13 14.79-1.72 16.51-10.13.68-3.34.57-6.84.97-10.25 1.11-9.22 2.3-18.44 3.52-28.08zm67.57 12.68c-8.8 0-12.57 2.37-13.68 9.31-.42 2.63.52 5.45.54 8.19.07 13.02.11 26.04 0 39.06-.05 5.93 4.86 6.1 8.18 6.05 2.62-.04 5.61-2.67 7.65-4.88 1.2-1.3.88-4.02 1.2-6.12 1.04-6.93 1.33-14.09 3.32-20.73 1.46-4.85 1.55-9.09.33-13.81-.64-2.46-.72-5.29-.21-7.78 1.5-7.25.05-9.29-7.33-9.29zm123.89 38.78c0-2.82.05-5.65-.01-8.47-.12-5.34-3.09-8.05-8.37-7.49-6.17.65-12.35 1.27-18.46 2.3-3.71.62-6.44 2.17-6.34 7.12.11 5.32-1.04 10.69-1.8 16.01-.71 4.96 1.6 8.7 6.57 9.93 2.82.7 5.69 1.22 8.56 1.75 11.62 2.14 19.85-4.58 19.85-16.17 0-1.66 0-3.32 0-4.98zm-47.99-55.78c.08.57.15 1.14.23 1.71 6.01 1.11 13.04-1.78 17.85 4.2.21.26.99-.04 1.45.1 6.97 2.18 13.61.5 19.96-2.16 2.72-1.14 6.26-3.21 6.96-5.58.91-3.12-.66-6.95-1.1-10.48-.43-3.44-2.74-4.92-5.78-4.71-5.52.37-11.04 1.05-16.51 1.9-4.69.73-7.16 3.63-7.08 8.53.05 3.2-1.34 4.51-4.78 4.61-3.75.11-7.47 1.21-11.2 1.88zm26.9 34.99c2.46 0 4.13.1 5.79-.02 4.09-.3 8.07-1.52 9.88-5.35 1.71-3.62 2.45-7.72 3.38-11.67.77-3.24-2.69-7.16-5.93-6.88-6.83.59-13.68 1.14-20.47 2.04-1.43.19-3.74 1.75-3.8 2.78-.23 4.24-.65 8.83.72 12.68 1.64 4.62 5.28 8.16 10.43 6.42zm-117.91-36.8c0 11.47 3.07 13.73 14.03 10.29 1.23-.39 2.39-1.2 3.63-1.34 5.42-.63 6.19-4.37 6.37-8.81.21-5.18-1.17-10.12-5.93-12.03-8.01-3.22-20.03.13-18.1 11.89zm56.91-67.09c.6.15 1.2.29 1.79.44.56-3.31 1.12-6.62 1.82-10.71-5.87 2.81-2.38 7.15-3.61 10.27z" fill="#010100"/></svg>