<svg enable-background="new 0 0 400 400" viewBox="0 0 400 400" xmlns="http://www.w3.org/2000/svg"><path d="m304.37 164.9c6.28-3 10.94-5.71 15.94-7.4 2.36-.8 5.8-.4 8.02.81 6.71 3.66 13.14 7.87 19.53 12.1 3.66 2.42 4.72 6.75 1.87 9.95-7.52 8.45-6.56 18.31-5.72 28.31.21 2.5-.11 5.04.01 7.56.26 5.28.73 10.55.96 15.83.49 11.49-1.28 22.2-10.13 30.7-2.33 2.23-3.71 5.43-5.98 7.74-1.53 1.56-4.41 3.68-5.7 3.15-2.14-.88-4.23-3.45-4.99-5.75-1.05-3.18-.8-6.78-1.2-10.19-.26-2.26-.31-4.65-1.14-6.71-.95-2.36-2.68-3.52-5.73-4.23-9.34-2.15-18.44 1.6-27.6.16-1.6-.25-3.14-1.47-4.48-2.53-1.13-.89-1.93-2.2-2.88-3.32-.9 1.59-2.48 3.14-2.57 4.78-.23 3.93.4 7.9.37 11.85-.02 2.42-.19 5.01-1.06 7.22-4.66 11.76-8.98 23.71-14.62 35-3.19 6.4-8.64 11.69-13.13 17.43-1.72 2.2-3.42 4.48-5.48 6.32-4.01 3.57-8.3 6.83-12.39 10.31-.75.64-1.02 1.8-1.65 2.62-1.6 2.07-2.87 4.89-5.01 5.98-6.55 3.34-9.77 9.43-13.8 14.94-3.9 5.33-7.4 10.97-14.72 12.65-3.21.73-5.95 3.35-9.05 4.8-4.97 2.33-9.99 4.57-15.14 6.45-1.3.47-3.15-.59-4.75-.94.84-1.46 1.33-3.47 2.59-4.3 6.65-4.4 13.39-8.69 20.31-12.66 15.7-9.02 27.57-22.11 38.87-35.86 1.89-2.3 4.14-4.3 6.05-6.58 9.31-11.11 11.12-25.4 15.84-38.41 2.3-6.34 3.04-13.29 4.13-20.02.67-4.13-3.79-10.24-8.01-10.54-4.46-.32-9.09.04-13.46.99-1.75.38-4.06 3-4.27 4.82-.82 6.9-6.05 10.43-10.37 14.55-2.11 2.01-8.48-1.76-9.76-5.47-.42-1.22-1.21-2.69-.87-3.74 2.7-8.37-.42-16.64-.48-24.95-.14-19.63-1.86-39.24-2.59-58.88-.12-3.35 1.49-6.77 2.3-10.16 3.19 1.43 6.67 2.45 9.48 4.41 2.15 1.5 3.46 4.21 5.14 6.38.4.51.67 1.36 1.16 1.52 6.57 2.08 5.76 7.51 5.78 12.56.02 8.83-.02 17.66.01 26.49.04 9.83 8.78 16.21 18.29 13.43 1.55-.45 3.16-.77 4.76-1.04 5.03-.84 6.93-3.02 6.94-8.19.02-14.16-.35-28.34.13-42.49.34-9.82 1.54-19.64 2.89-29.39 1.22-8.76-3.55-15.15-12.38-14.87-13.89.44-27.79.89-41.62 2.15-5.29.48-10.31 2.65-15.85.88-5.42-1.73-10.65-12.93-7.75-17.81 1.76-2.97 4.6-2.03 7.48-1.93 11.45.4 22.93.87 34.36.31 6.16-.3 7.07-3.32 5.19-8.93-1.27-3.79-2.3-7.89-2.3-11.85.01-6.82-.35-13.44-3.14-19.78-.64-1.45-.67-3.15-1.01-4.74-.9-4.26-1.87-8.5-2.71-12.77-.53-2.72-.5-5.6-1.41-8.17-1.99-5.65-4.38-11.15-6.69-16.68-.56-1.34-1.99-2.53-2.04-3.83-.11-3.13-1.49-6.95 2.64-8.74 3.19-1.39 10.59 1.34 11.39 4.59 3.67 14.86 13.75 26.58 19.49 40.41 2.61 6.3 5.69 12.41 8.64 18.57 3.5 7.34 3.05 15.08 2.76 22.89-.29 7.63 1.01 8.55 8.35 7.44 1.63-.25 3.33-.07 4.99-.07 7.19-.01 10.51-2.06 12.59-9.19 4.34-14.89 10.35-29.06 16.39-43.32 2.95-6.96 2.97-15.34 3.37-23.13.15-2.88-2.13-6.07-3.79-8.81-3.37-5.57-3.49-8.82.11-12.15s8.28-3.1 12.88-.07c8.02 5.3 16.26 10.28 24.4 15.41 1.79 1.13 3.71 2.13 5.24 3.55 2.15 2.01 3.66 4.61 1.43 7.38-4 4.95-8.42 9.56-12.37 14.56-3 3.79-6.2 7.66-8.14 12.01-4.52 10.16-11.8 18.09-19.22 26-2.36 2.52-4.7 5.09-6.78 7.84-2.32 3.06-1.44 5.78 2.18 6.65 3.63.87 7.45 1.11 11.21 1.21 6.35.17 12.85.82 19.01-.3 4.34-.78 8.27-4.06 12.28-6.41 1.25-.73 2.09-2.14 3.23-3.11 6.06-5.17 10.35-6 15.88-.78 5.9 5.56 10.98 12.17 15.58 18.89 3.13 4.58.75 7.75-4.92 7.75-26.66.02-53.32.01-79.98.01-8.2 0-11.62 4.9-9.64 12.93 1.59 6.46 2.72 13.06 3.55 19.65.36 2.84-.79 5.84-.84 8.78-.13 9.03.11 18.06-.12 27.09-.1 3.89-1.25 7.75-1.42 11.65-.15 3.37-.17 6.94.79 10.11.95 3.13 3.24 5.34 7.39 4.88 8.48-.93 17.04-1.2 25.52-2.14 4.22-.47 6.05-3.45 6.96-7.71 1.01-4.71 2.03-8.91 1.14-14.08-1.7-9.85-1.42-20.03-2.49-30.02-.2-1.91-2.64-3.8-4.41-5.26-1.99-1.65-4.37-2.77-8.04-5z" fill="#000001"/><path d="m29.95 274.29c1.51-2.09 3.11-4.12 4.51-6.28 1.37-2.12 2.42-4.45 3.82-6.55 1.84-2.77 4.04-5.31 5.8-8.13 1.69-2.7 2.86-5.72 4.53-8.44 3.72-6.07 7.81-11.93 11.39-18.09 6.15-10.54 12.11-21.19 18-31.88 5.42-9.84 10.71-19.76 15.92-29.72 1.58-3.02 2.94-6.19 4.01-9.43 1.97-5.99 4.21-11.58 7.76-17.06 4.38-6.76 6.19-15.16 9.37-22.74 2.05-4.89 4.32-9.72 6.92-14.33 1.7-3.01.45-6.01-3.47-6.6-12.06-1.82-24.02-1.31-35.85 1.67-6.29 1.59-9.11.58-12.68-5-1.41-2.2-2.82-4.42-3.94-6.77-2.71-5.67-.16-9.86 6.15-9.92 12.33-.1 24.66.23 36.98-.1 13.54-.36 27.07-1.19 40.59-2.05 1.46-.09 3.23-1.49 4.16-2.78 7.36-10.22 8.39-10.41 16.94-1.72 3.84 3.9 6.67 8.34 7.21 14.05.46 4.86-1.85 6.6-6.3 6.58-8.66-.03-17.34.24-25.98-.1-5.77-.23-9.49 3.23-13.28 6.46-.97.83-1.08 3.74-.44 5.2 2.65 6.04 5.79 11.86 8.65 17.8 1.34 2.79 1.74 6.32-.83 7.95-3.74 2.37-4.47 6.04-6.27 9.4-4.26 7.95-9.01 15.65-13.3 23.59-1.17 2.16-2.17 4.93-1.89 7.25.67 5.58 4.31 7.56 10.46 6.37 5.37-1.03 10.63-1.7 15.28-5.61 1.91-1.6 7.14-1.02 9.83.45 5.45 2.97 10.54 6.87 15.13 11.08 3.37 3.09 5.35 7.42 4.89 12.4-.68 7.36-1.35 14.72-1.93 22.09-.16 1.98-.24 4.04.13 5.96 1.17 6.09 2.35 12.04-1.5 17.78-.54.8.34 3.06 1.18 4.2 3.19 4.38 4.81 8.48.98 13.56-1.17 1.55-.99 4.63-.52 6.81 1.38 6.37-.21 8.93-6.72 9.35-11.53.74-23.06 1.31-34.59 2.04-10.09.64-16.02 4.73-14.54 17.99.71 6.35 1.29 14.12-3.98 20.08-4.3 4.87-7.73 4.86-11.33-.37-2.5-3.64-3.2-7.12-2.57-11.87.94-7.1-.36-14.49-.51-21.75-.16-7.33-.31-14.67-.05-21.98.49-14.04 1.26-28.06 1.95-42.09.16-3.25 1.06-6.59.53-9.7-.81-4.82-4.81-5.92-7.99-2.2-3.26 3.82-5.6 8.41-8.78 12.31-4.82 5.93-10.17 11.43-14.97 17.37-2.65 3.27-4.3 7.36-7.01 10.57-6.15 7.3-12.72 14.23-19.02 21.41-2.78 3.17-5.22 6.64-7.97 9.84-.97 1.13-2.41 1.86-3.64 2.77-.41-.39-.81-.75-1.22-1.12zm102.1-89.07c-.05.26-.1.52-.16.78-1.83 0-3.66-.01-5.49 0-6.3.04-7.99 1.36-8.34 7.62-.31 5.67-.27 11.38-.02 17.06.54 12.53 1.29 25.04 1.97 37.56.34 6.26 3.03 9 9.36 8.67 4.54-.24 9.07-1.12 13.53-2.08 1.17-.26 2.77-1.8 2.94-2.94 1.21-8.22 4.28-16.99 2.51-24.6-1.83-7.88.94-15.37-1.15-22.95-1.07-3.87.03-8.29-.31-12.42-.12-1.44-1.33-3.63-2.51-4-4-1.26-8.21-1.85-12.33-2.7z" fill="#000001"/><g fill="#fafafb"><path d="m2.6 9.9.8-1c.9.7 1.9 1.4 2.9 2.3l-.9 1.1c-1.1-1-2-1.8-2.8-2.4zm.5 10.6c.9-2.1 1.6-4.3 2.3-6.7.4.2.8.4 1.3.6-.7 2.1-1.5 4.3-2.2 6.6zm.3-15.2.9-.9c1 .8 2 1.6 2.8 2.4l-1 1c-.9-.9-1.8-1.7-2.7-2.5zm12.6-1.2h1.2v1.4h2.7v1.1h-2.7v2.7h-1.2v-.6h-1.8v1.3h4.9v3.8h-1.2v-.5h-3.7c0 .4-.1.9-.1 1.2h5.1v1h-5.2c0 .5-.1.9-.2 1.2h6v1h-5.2c1.1 1.3 2.9 2 5.5 2.2-.4.4-.7.8-.9 1.3-2.9-.5-4.8-1.6-5.7-3.5h-.1c-.8 1.7-2.7 2.9-5.9 3.6-.2-.4-.6-.8-.9-1.1 2.8-.6 4.6-1.4 5.4-2.5h-4.8v-1h5.3c.1-.3.2-.7.2-1.2h-4.9v-1h5c0-.4 0-.8.1-1.2h-3.6v.5h-1.2v-3.8h4.9v-1.3h-1.8v.5h-1.2v-2.7h-2.7v-1h2.7v-1.4h1.2v1.4h4.8zm-6.7 8.3h3.6c0-.4 0-.9 0-1.4h-3.6zm1.9-4.6h4.8v-1.3h-4.7v1.3zm6.7 3.2h-3.7v1.4h3.7v-2.4z"/><path d="m8.7 22.1h1.3v2.2h2.8v-2.2h1.3v2.2h4.1v9.1h1.7v1.3h-17v-1.3h1.7v-9.1h4.1zm.3 13.1.7 1.2c-1.8.9-3.8 1.9-6 2.9-.2-.4-.5-.8-.8-1.3 2.3-1 4.4-1.9 6.1-2.8zm-3.1-6.4h2.8v-3.2h-2.8zm0 4.6h2.8v-3.3h-2.8zm4.1-4.6h2.8v-3.2h-2.8zm0 4.6h2.8v-3.3h-2.8zm3.6 1.9c2.1.9 4.1 1.8 6.1 2.7l-.7 1.4c-2.2-1.1-4.2-2-6.1-2.9zm3.2-9.7h-2.8v3.2h2.8zm-2.7 7.8h2.8v-3.3h-2.8z"/></g></svg>