<svg enable-background="new 0 0 400 400" viewBox="0 0 400 400" xmlns="http://www.w3.org/2000/svg"><path d="m362.1 8.8c1.1.8 2.1 1.6 3.1 2.4l-1 1.1c-1.3-1.1-2.3-2-3-2.5zm1.9 4.8c.5.2.9.4 1.4.5-.6 2.3-1.3 4.5-1.9 6.8l-1.5-.5c.8-2.1 1.4-4.3 2-6.8zm-1-9.4c1.3.9 2.4 1.8 3.4 2.5l-1 1.1c-1.4-1.2-2.4-2.1-3.2-2.6zm3.7 2.2v-1.4h10.3v1.2c-.5 3.6-1.8 6.8-4 9.4 1.5 1.6 3.4 2.8 5.7 3.8-.3.4-.7.8-1.1 1.4-2.3-1.1-4.1-2.5-5.6-4.1-1.6 1.6-3.6 3.1-5.9 4.3-.3-.5-.7-.9-1-1.3 2.4-1.1 4.4-2.5 6-4.1-1.9-2.5-3-5.6-3.3-9.3h-1.1zm8.8 0h-6.4c.3 3.3 1.3 6 3 8.2 2-2.2 3.1-5.1 3.4-8.2z" fill="#fbfcfa"/><path d="m385.3 3.8h1.3v2.2h2.8v-2.2h1.3v2.2h4.1v9.1h1.7v1.3h-16.9v-1.3h1.7v-9.1h4.1v-2.2zm.4 13.1.7 1.2c-1.8.9-3.8 1.9-6 2.9-.2-.4-.5-.8-.8-1.3 2.3-1 4.3-1.9 6.1-2.8zm-3.1-6.4h2.8v-3.2h-2.8zm0 4.6h2.8v-3.3h-2.8zm4-4.6h2.8v-3.2h-2.8zm0 4.6h2.8v-3.3h-2.8zm3.7 1.9c2.1.9 4.1 1.8 6.1 2.7l-.7 1.3c-2.2-1.1-4.2-2-6.1-2.9zm3.2-9.7h-2.8v3.2h2.8zm-2.8 7.8h2.8v-3.3h-2.8z" fill="#fbfcfa"/><g fill="#010102"><path d="m183.42 163.36c2.05-2.2 5.49-2.12 9.37-.27 5.54 2.64 9.23 8.01 15.92 9.2 5.49.98 2.98 6.45 3.07 10.11.17 7.19.05 14.38.05 21.42-.94 1.13-1.84 2.21-2.74 3.3 1.4.97 2.72 2.08 4.22 2.87 7.72 4.1 16 1.87 24.08 2.03 2.27.05 4.54.25 7.21.41 1.1-4.26 4.56-3.78 8.35-3.1 1.23.22 3.14-.3 3.94-1.19 3.42-3.81 4.91-9.26 11.69-9.88 2.29-.21 3.83-5.31 6.31-7.49 5.85-5.11 9.08-4.76 15.22-.29 4.83 3.52 9.98 6.65 15.22 9.53 7.24 3.97 8.8 11.77 3.37 17.85-3.7 4.14-5.94 8.84-5.75 14.67.49 14.92.78 29.86 1 44.79.04 2.75-.88 5.51-.86 8.27.02 3.26.76 6.52.84 9.78.16 6.52.34 13.05.01 19.55-.31 6.21-1.29 12.39-1.93 18.58-.68 6.61-4.55 11.09-9.66 14.81-3.96 2.88-7.74 6.02-11.8 8.75-8.96 6.03-14.98 2.96-15.51-7.85-.19-3.82.06-7.67-.06-11.49-.12-3.76-1.99-5.43-5.83-4.31-.78.23-1.57.54-2.37.56-10.11.37-20.22.78-30.33.93-1.45.02-2.92-1.33-4.38-2.05.91-1.74 1.46-4.59 2.8-5.02 5.21-1.69 10.62-3.1 16.06-3.68 4.18-.45 8.52.43 12.77.85 4.09.41 7.54-.07 8.73-4.86 1.48-5.98 3.74-11.86 4.4-17.92.77-7.08.34-14.31.12-21.47-.12-3.97-1.76-6.43-6.55-6.89-15.57-1.48-30.36 3.09-45.44 5.29-1.15.17-2.81 2.63-2.8 4.02.05 8.1.87 16.2.76 24.3-.11 7.61-.98 15.21-1.65 22.8-.33 3.77-3.01 5.51-6.37 5.61-3.59.11-7.19-.54-10.79-.81-1.33-.1-2.7-.27-3.99-.05-7.55 1.31-15.08 2.73-22.62 4.11-1.59.29-3.22.93-4.78.79-11.32-1-22.24 2.18-33.37 3.19-1.2.11-2.91 1.89-3.21 3.18-.74 3.16-.92 6.48-1.11 9.75-.41 6.88-10.17 17.12-16.88 16.57-2.49-.2-6.14-2.86-6.8-5.12-1.13-3.84-.34-8.25-.27-12.41.02-.91.91-2.15.56-2.67-3.34-4.86-1.93-10.34-1.44-15.33.92-9.41-.1-18.7-.23-28.04-.17-11.56-.59-23.12-.98-34.68-.26-7.77-.43-15.55-1.06-23.29-.39-4.73-1.59-9.36 1.76-13.6.4-.51-.21-1.8-.33-2.73-.45-3.56-1.68-7.25-1.15-10.66.68-4.43-.68-8.15-1.57-12.22-.59-2.71.68-5.83 1.12-8.77 2.86.57 6.01.58 8.54 1.82 8.14 4.01 15.67 9.64 24.17 12.37 6.17 1.98 13.49.3 20.3.33 3.38.01 6.91-.42 10.09.4 7.68 1.98 20.27-4.28 23.24-11.68 1.84-4.59 4.28-8.79 1.08-13.82-.68-1.06.54-3.17.42-4.77-.6-7.56-1.34-15.14-2.18-24.38zm4.23 132.76c-.22-.02-.43-.04-.65-.05 0-2.33.23-4.69-.04-6.99-.72-6.16-4.2-10.09-11.06-9.09-11.33 1.65-22.73 2.99-34.14 3.94-12.77 1.07-14.11 4.29-13.91 13.66.14 6.81-.22 13.92-2.06 20.41-1.74 6.12.65 10.94 3.84 14.35 2.25 2.4 7.86 2.55 11.87 2.26 11.1-.8 22.12-2.61 33.21-3.5 6.75-.54 10.84-3.92 11.3-10.7.53-8.1 1.09-16.2 1.64-24.29zm-6.79-25.77c1.35-9.18 6.74-18.53 4.2-29.17-.16-.69.63-1.59.51-2.32-.61-3.63-.4-7.98-2.41-10.59-1.51-1.96-5.91-1.94-9.08-2.32-5.32-.63-10.67-1.06-16.02-1.23-3-.09-6.07.28-9.02.86-2.42.48-4.67 1.83-7.09 2.34-3.03.64-6.21.59-9.23 1.27-4.09.91-6.1 4.83-5.23 9.29-1.15.49-2.27.97-3.39 1.45.8.46 1.71.82 2.36 1.44.38.36.49 1.14.52 1.75.36 6.59.85 13.18.98 19.77.18 8.61 2.24 9.86 10.79 9.19 13.67-1.05 27.42-1.17 42.11-1.73zm90.2-34.9c-.25-.08-.5-.17-.75-.25-.45-4.25-.84-8.5-1.37-12.74-.3-2.44-1.52-3.72-4.29-3.51-5.91.46-11.76-.46-17.81.79-6.87 1.42-14.14.86-21.23 1.29-2.77.17-5.7.2-8.23 1.16-1.75.66-4.19 2.8-4.19 4.29-.01 11.54-3.71 23-.4 34.69 1.01 3.56 2.79 5.52 5.7 5.67 8 .39 16.05.4 24.05-.01 2.89-.15 5.66-1.25 6.8-5.21 1.66-5.81 4.98-6.64 10.43-3.67 4.06 2.21 6.11 1.63 7.18-2.73 1.62-6.53 2.77-13.17 4.11-19.77z"/><path d="m79.27 171.86c.82 4.69-2.16 7.17-6.89 8.1-2.74.54-10.93-3.7-12.06-6.43-.56-1.34-.57-3.09-.29-4.55.39-2.05.97-4.2 2.03-5.96 7.55-12.58 11.11-26.74 15.9-40.37 4.01-11.43 7.22-23.14 8.24-35.39.3-3.67 2.9-7.15 4.45-10.71.68.14 1.37.28 2.05.42.43 1.77 1.01 3.52 1.27 5.31.74 4.95 2.44 8.87 7.97 10.3 4.36 1.12 8.17 2.67 13.08.82 3.79-1.43 9.05-1.55 12.77-.05 6.59 2.64 12.64-.73 18.96.01 5.66.67 11.49.43 17.21.03 7.42-.52 14.8-1.55 22.18-2.56.62-.09 1.55-1.72 1.48-2.56-.59-7.02-1.94-14 1.09-20.89.54-1.22-.3-3.15-.73-4.69-1.78-6.34.28-13.66-4.98-19.18-.63-.66-.42-3.43.19-3.77 6.35-3.49 12.71-7.06 19.4-9.82 4.61-1.9 15.18 2.95 16.29 7.69.85 3.62.25 8.16-1.29 11.58-1.27 2.82-1.84 4.47-.95 7.73 1.06 3.87.38 8.64-.85 12.62-1.91 6.19-4.09 12.11-.6 19.96 5.36.15 11.86.65 18.33.44 14.37-.46 28.73-1.35 43.1-1.88 4.41-.16 8.28-.39 10.91-4.9 1.33-2.28 4.32-3.51 6.19-5.56 3.33-3.65 6.21-7.71 9.58-11.33 4.38-4.69 7.56-3.93 10.68 1.54 3.78 6.62 9.03 11.72 15.94 15.44 3.25 1.75 6.07 5.24 7.83 8.6 2.37 4.54 3.91 9.63 5.1 14.64 1.29 5.45-3.77 10.64-10.12 11.56-4.97.72-9.91 1.77-14.8 2.95-4.68 1.13-9.24 2.75-13.92 3.89-4.09.99-6.21-1.14-6.08-5.32.16-4.83.16-9.67.02-14.49-.22-7.73-6-12.07-14.09-9.88-9.3 2.52-18.52 2.3-27.86.88-4.06-.62-8.18 3.06-10.22 6.43-3.5 5.79-3.06 11.34-1.99 17.54.68 3.92.15 8.32-.92 12.21-1.42 5.19.84 9.4 2.2 13.92.13.45.5.86.84 1.2 5.43 5.36 20.56 2.46 24.15-4.48 2.47-4.77 5.17-9.44 8.01-14.01.77-1.24 2.67-2.87 3.64-2.63 1.6.39 3.16 1.94 4.2 3.38 2.65 3.65 4.73 7.72 7.55 11.21 2.67 3.31 6.03 6.06 8.99 9.15 3.21 3.36 2.69 9.38-1 10.04-3.9.71-8.29 1.58-11.89.49-5.81-1.77-10.6-.57-15.97 1.37-4.98 1.8-10.45 2.47-15.77 3-7.08.69-14.22.96-21.34 1.05-10.71.13-16.18-5.51-16.56-16.04-.49-13.54-1.21-27.07-2-40.6-.39-6.81-2.7-8.51-9.17-7.38-.65.11-1.34.12-1.99.05-12.69-1.46-24.86 1.74-37.2 3.8-5.33.89-10.97-.27-16.46-.1-2.95.1-5.86 1.29-8.82 1.56-3.44.31-6.93-.05-10.37.23-5.49.44-11.01.86-16.41 1.85-4.26.78-8.61 1.93-12.48 3.82-3.6 1.77-6.05 4.65-4.38 9.66.77 2.31-.79 5.3-.89 8-.12 3.36.11 6.73.3 10.09.25 4.27 2.24 9.38.57 12.62-3.42 6.64-8.51 12.53-13.56 18.14-1.12 1.3-4.91.21-7.79.21z"/><path d="m73.4 201.12c4.2-2.52 7.98-5.05 11.98-7.16 16.87-8.9 33.04-18.84 46.51-32.5 5.84-5.92 10.83-12.68 16.32-18.95 1.27-1.45 2.95-2.59 4.54-3.71 2.56-1.81 5.02-3.04 5.74-7.03.51-2.78 4-5.45 6.74-7.3 3.62-2.44 4.5-6.04 5.88-9.64 1.18-3.06 3.71-5.51 6.67-2.72 3.95 3.73 7.16 8.27 10.42 12.67.57.77.14 3.51-.43 3.72-8.78 3.19-10.89 12.53-16.99 18.04-5.05 4.55-12.32 7.31-15.89 12.68-4.59 6.88-11.87 9.88-17.51 14.87-9.81 8.67-22.01 14.72-33.5 21.36-6.42 3.71-13.38 6.5-20.19 9.48-5.03 2.22-6.39 1.68-10.29-3.81z"/></g></svg>