<svg enable-background="new 0 0 400 400" viewBox="0 0 400 400" xmlns="http://www.w3.org/2000/svg"><path d="m192.81 207.38c.68 8.87 1.39 17.55 1.97 26.24.22 3.31 1.28 7.22-.04 9.86-3.28 6.57-.12 12.62.56 18.68 1.63 14.54 5.43 28.99 3.39 43.64-.75 5.41-4.69 10.55-7.82 15.4-4.58 7.09-11.26 11.55-19.46 13.85-3.6 1.01-6.7.46-8.44-2.7-4.1-7.46-11.13-10.5-18.5-13.24-1.2-.45-2.31-1.1-3.51-1.69.71-5.22 4.65-5.65 8.46-6.43 5.72-1.19 11.4-2.59 17.12-3.8 3.88-.83 5.26-2.82 5.68-7.04.74-7.42 3.03-14.66 4.16-22.06.7-4.57.49-9.29.63-13.94.07-2.35 0-4.71 0-7.06 0-3.85.34-7.74-.06-11.54-1.11-10.4-2.16-20.83-3.98-31.11-1.04-5.85-3.1-6.53-8.8-5.04-.46.12-.88.45-1.34.56-10.35 2.5-11.03 4.37-4.81 12.67.94 1.25 1.78 2.88 1.9 4.39.52 6.42.82 12.86 1.07 19.3.39 9.93.86 19.87.92 29.8.02 3.7-.67 7.51-1.65 11.09-1.74 6.38-6.98 7.92-11.94 3.54-4.52-4-7.62-8.51-7.51-15.31.15-8.83-1.27-17.68-1.67-26.54-.17-3.74.96-7.53.76-11.26-.31-5.87-1.17-11.72-1.93-17.57-.39-2.96-1.37-5.23-5.24-5.15-3.83.08-3.6 2.37-3.83 4.97-.51 5.87-1.68 11.72-1.82 17.59-.37 15.35-3.21 29.93-8.7 44.46-5.68 15.05-11.89 29.59-21.36 42.57-3.19 4.38-7.06 8.38-11.13 11.97-7.13 6.29-14.56 12.26-22.1 18.06-1.36 1.05-3.83.67-5.79.95.3-2-.06-4.48 1-5.92 6.49-8.82 13.69-17.14 19.87-26.17 3.72-5.44 6.12-11.8 8.9-17.84 4.43-9.63 9.23-19.15 12.76-29.11 1.82-5.14 1.18-11.13 1.77-16.73.2-1.9.15-4.48 1.31-5.51 2.88-2.57 2.38-5.62 2.38-8.7.02-8.97.01-17.93.01-27.88-7.94.45-15.48.79-23 1.34-8.03.58-16.04 1.51-24.08 2-4.88.29-14.2-7.84-14.73-12.78-.11-1 1.2-2.79 2.22-3.14 2.89-.98 5.95-1.86 8.97-1.94 8.99-.24 18 .03 26.99-.13 6.1-.11 12.24-.33 18.27-1.16 1.62-.22 3.78-2.65 4.18-4.4 1.41-6.18 2.92-12.5 3.01-18.79.23-17.09.5-34.32-5.9-50.62-1.76-4.48-4.44-8.68-7.24-12.64-2.57-3.64-2.24-8.02 1.67-10.02 9.25-4.75 17.6-1.9 24.05 6.43 2.77-3.67 5.88-6.85 7.88-10.63 6.01-11.3 11.89-22.69 17.07-34.38 1.09-2.46-.81-6.44-1.79-9.57-.75-2.4-1.98-3.54.58-6.54 9.89-11.57 22.2-5.16 27.51 5.05 2.58 4.95 3.63 10.69 5.31 16.1 2.05 6.59-2.01 10.67-6.52 13.96-14.23 10.39-28.68 20.47-43.09 30.7 1.73 6.52 2.19 6.57 8.7 5.7 7.48-1 15.03-1.57 22.57-2.07 4.94-.32 8.6-2.74 11.89-6.11 2.56-2.62 5.15-5.22 7.77-7.77 3.21-3.13 8.16-3.14 11.35 0 3.92 3.85 7.85 7.7 11.65 11.68 4 4.18 4.72 9.63.63 13.42-7.23 6.7-8.59 15.24-8.85 24.11-.37 12.3-.09 24.62-.09 37.59 9.36 0 18.46.05 27.55-.09.83-.01 2.02-1.13 2.4-2.01 2.42-5.48 4.62-11.04 6.96-16.56 1.44-3.41 2.31-7.36 4.63-10.05 5.46-6.35 6.35-14.46 9.59-21.63 4.38-9.72 9.57-19.08 14.35-28.63 1.22-2.44 2.34-4.94 3.27-7.5 3.81-10.54 7.36-21.18 11.36-31.65 2.22-5.81 3.88-11.48 3.05-17.85-.3-2.32.35-6.12 1.87-7 1.9-1.1 5.63-.72 7.7.5 7.16 4.2 14.25 8.65 20.81 13.72 8.38 6.48 8.72 12.22 1.25 20.31-5.59 6.05-8.7 13.19-12.09 20.5-3.25 7.01-8.82 12.9-12.7 19.66-2.6 4.54-4.1 9.73-5.96 14.68-.62 1.65-.31 3.98-1.37 5.08-3.08 3.16-1.05 5.02 1.24 6.87 1.77 1.43 3.77 2.56 5.63 3.87 4.85 3.42 5.86 7.49 1.67 11.84-5.43 5.64-6.44 11.98-6.34 19.38.17 12.26-.48 24.53-.88 36.8-.23 7.12-.83 14.23-.91 21.35-.05 4.26.81 8.52.88 12.78.15 9.02.05 18.04.05 27.06 0 8.06 7.68 16.58 15.54 16.04 10.07-.7 20.11-2.21 30.1-3.78 7.76-1.22 9.87-8.17 11.93-14.11 3.95-11.36 7.12-22.99 10.28-34.6.98-3.59.36-7.64 1.51-11.14.55-1.67 3.53-2.53 5.41-3.76.73 1.84 2.17 3.71 2.08 5.5-.32 6.04-1.3 12.05-1.81 18.09-.49 5.75-.84 11.53-1.01 17.3-.31 11.26 1.71 22.23 5.1 32.88 1.93 6.05 1.69 11.71-.27 17.6-1.6 4.81-4.8 7.2-9.68 7.53-5.93.4-11.86.84-17.8 1-15.26.42-30.53.7-45.8 1.03-1.17.03-2.53.4-3.47-.07-6.59-3.29-14.15-5.64-19.27-10.52-3.9-3.72-6.07-10.61-6.55-16.29-.98-11.61-.24-23.36-.35-35.05-.03-2.93-.95-5.87-.89-8.79.57-25.22 1.35-50.44 1.84-75.66.05-2.5-1.33-5.03-2.04-7.55-2.15 1.69-4.83 3-6.36 5.14-6.45 9.02-12.57 18.27-18.77 27.46-1.73 2.56-3.01 5.48-5 7.8-1.82 2.12-4.08 4.25-6.6 5.29-2.7 1.11-4.44-.84-3.57-3.69 1.09-3.55 2.94-6.88 4.07-10.42.72-2.25 1.82-5.81.8-6.83-1.51-1.5-4.88-2.02-7.23-1.62-5.37.9-10.63 2.64-16.37 4.15zm-62.81-26.31c0 3.83.19 7.68-.05 11.5-.29 4.67 1.47 6.82 6.31 6.46 10.36-.77 20.73-1.26 31.08-2.11 3.62-.3 6.54-1.88 6.71-6.32.18-4.8 1.12-9.62.85-14.38-.71-12.64-1.95-25.25-2.87-37.87-.31-4.18-3.35-6.8-7.57-6.33-9.45 1.04-18.93 1.84-28.34 3.14-1.79.25-4.21 2.04-4.78 3.67-1.05 3.02-1.24 6.44-1.28 9.69-.15 10.84-.06 21.7-.06 32.55z" fill="#010000"/><path d="m146.9 188c-7.23-.03-9.69-3.72-8.67-10.76 1.16-7.98 1.24-16.11 1.78-24.18.13-1.97-.45-4.48.54-5.8 1.63-2.16 4.04-4.22 6.55-5.09 3.88-1.34 6.45 1.85 7.73 4.75 3.07 6.97 6.14 14.08 7.95 21.44 2.17 8.82-7.5 20.79-15.88 19.64z" fill="#010000"/><g fill="#fbfafc"><path d="m6.44 374.46.42-.45c.65.47 1.27.95 1.85 1.44l-.45.49c-.65-.56-1.25-1.06-1.82-1.48m.93 7.33-.63-.26c.55-1.36 1.05-2.8 1.52-4.33.19.1.38.19.59.27-.46 1.29-.95 2.73-1.48 4.32m-.38-10.38.44-.42c.43.34 1.01.82 1.74 1.44l-.49.49c-.53-.51-1.09-1.01-1.69-1.51m2.5.35h1.72v-1.04h.59v1.04h3.52v-1.04h.59v1.04h1.75v.53h-1.75v1.42h-2.03v.97h3.22v2.03h-3.24c0 .35-.01.66-.03.93h3.32v.53h-3.37c-.03.27-.08.58-.15.94h3.96v.53h-3.71c.67.92 1.93 1.48 3.79 1.68-.13.24-.23.44-.29.59-2.13-.38-3.48-1.08-4.04-2.12-.43.97-1.77 1.72-4.03 2.23-.09-.19-.2-.37-.33-.55 2.1-.42 3.37-1.03 3.81-1.83h-3.36v-.53h3.58c.08-.29.13-.61.16-.94h-3.33v-.53h3.39c.02-.27.04-.58.04-.93h-3.23v-2.03h3.25v-.97h-2.07v-1.42h-1.73zm1.12 3.44v1h2.65c.01-.3.02-.44.01-.4v-.25-.35zm1.19-2h3.52v-.91h-3.52zm4.71 2h-2.63v.59c0 .15-.01.28-.01.4h2.64z"/><path d="m13.56 383.74h.63v1.52h2.72v6.07h1.13v.6h-11.06v-.6h1.13v-6.07h2.73v-1.52h.63v1.52h2.1v-1.52zm-2.69 8.83.38.56c-1.24.63-2.53 1.25-3.85 1.85-.1-.21-.21-.42-.34-.63 1.36-.55 2.63-1.15 3.81-1.78m-2.13-4.27h2.1v-2.45h-2.1zm0 3.04h2.1v-2.46h-2.1zm2.72-3.04h2.1v-2.45h-2.1zm0 3.04h2.1v-2.46h-2.1zm6.07 3.6c-1.41-.71-2.7-1.3-3.86-1.78l.35-.56c1.45.62 2.75 1.19 3.88 1.72zm-1.25-9.09h-2.1v2.45h2.1zm-2.09 5.49h2.1v-2.45h-2.1z"/></g></svg>