<svg enable-background="new 0 0 400 400" viewBox="0 0 400 400" xmlns="http://www.w3.org/2000/svg"><g fill="#010000"><path d="m33.39 369.24c8.14-4.06 14.98-7.54 21.89-10.87 1.73-.84 3.8-.98 5.54-1.81 5.41-2.57 10.94-5 16.06-8.07 11.93-7.16 24.45-13.6 33.65-24.52 7.09-8.42 14.21-16.82 21.18-25.34 6.22-7.6 12.39-15.25 18.34-23.06 12.1-15.87 17.89-35.16 28.01-52.07 4.96-8.28 7.61-17.15 10.25-26.18 1.73-5.93.88-7.3-4.97-7.31-10.17-.01-20.36-.48-30.49.14-9.11.56-18.14 2.35-27.21 3.52-1.43.19-2.92-.08-4.37.01-3.01.17-6.01.47-9.02.66-3.96.25-7.92.61-11.88.6-2.59-.01-5.44-1.45-7.72-.75-5 1.53-8.65-.69-12-3.39-3.87-3.12-7.34-6.78-10.7-10.46-2.11-2.32-.96-4.42 1.91-4.21 6.64.5 13.54-1.99 19.96 1.68 1.02.58 2.62.27 3.94.18 14.3-.97 28.58-2.08 42.89-2.91 5.68-.33 11.4.15 17.08-.12 10.71-.51 21.4-1.72 32.11-1.81 7.86-.07 15.73 1.18 23.6 1.81.99.08 2.01.15 3 .02 18-2.29 36.1-1.65 54.17-2.13 6.78-.18 14.03-.96 20.11-3.63 4.74-2.08 8.16-7.38 11.89-11.5 4.02-4.44 8.17-5.06 11.14-.21 4.84 7.91 12.29 14.1 15.2 23.25.59 1.85 1.34 3.64 2.16 5.84-11.22 8.06-11.87 21.07-15.15 32.96-2.4 8.7-5.18 17.3-7.86 25.93-1.35 4.34-2.71 8.68-4.31 12.92-2.17 5.74-4.72 11.35-6.86 17.1-1.58 4.24-2.42 8.77-4.21 12.91-3.14 7.27-6.67 14.38-10.18 21.49-7.27 14.73-16.51 28.22-29.08 38.73-7 5.85-15.71 9.76-23.95 13.97-3.19 1.63-6.36.03-8.04-3.59-1.78-3.83-3.4-7.78-5.66-11.32-2.4-3.76-5.18-7.39-8.33-10.55-3.61-3.63-3.55-6.86 1.33-7.87 6.38-1.33 12.99-2 19.51-2.14 6.27-.13 10.62-2.12 13.22-8.1 6.55-15.11 13.93-29.89 19.89-45.22 5.57-14.33 9.74-29.19 14.51-43.83 2.77-8.51 5.58-17.01 8.21-25.56 1.14-3.7 2.13-7.49 2.77-11.31.9-5.37-.82-7.31-6.49-7.07-12.04.51-24.07 1.42-36.11 1.9-7.02.28-14.06-.01-21.09.1-1.59.02-3.22.49-4.74.99-3.45 1.14-4.42 4.04-2.2 6.37 6.58 6.91 5.86 12.81.63 20.6-4.81 7.17-6.31 16.47-10.7 24.01-7.04 12.1-14.95 23.74-23.09 35.14-5.71 7.99-12.64 15.1-18.62 22.91-7.33 9.57-17.36 15.63-27.06 22.24-4.46 3.04-8.33 6.92-12.6 10.25-3.31 2.58-6.74 5.04-10.29 7.28-2.28 1.43-4.9 2.32-7.33 3.52-8.45 4.2-16.73 8.78-25.36 12.56-8.6 3.76-17.51 6.81-26.34 10.03-4.28 1.56-8.65 2.87-13.04 4.11-2 .57-4.15.71-7.1 1.18z"/><path d="m260 124.76c0-1.33 0-2.67 0-4 0-9.7-2.29-11.38-11.98-10.97-7.72.33-15.5-.39-23.24-.88-1.69-.11-3.43-1.07-4.94-1.99-3.36-2.06-3.34-6.12.33-7.4 3.93-1.38 8.22-1.81 12.38-2.49 8.35-1.36 16.72-2.57 25.06-3.94 2.7-.44 3.57-2.15 3.44-4.94-.48-9.92-.51-19.88-1.23-29.78-.17-2.3-2.14-4.63-3.68-6.64-5.26-6.83-4.47-11.99 3.28-15.37 12.91-5.63 16.14-6.95 29.19 3.81 3.05 2.52 5.77 5.46 8.93 7.81 5.59 4.16 5.4 9.5 3.77 15.32-1.45 5.16-3.4 10.24-4.21 15.5-1.41 9.04-.29 10.43 8.8 11.12 8.9.68 17.33-.77 23.73-7.99 1.3-1.47 2.93-2.65 4.44-3.92 7.62-6.43 13.1-1.14 18.78 3.38 2.04 1.62 4.25 3.05 6.5 4.36 6.03 3.47 8.25 8.97 8.65 15.55.17 2.86-1.21 3.91-3.91 3.72-4.77-.34-9.53-.84-14.3-.88-4.44-.05-8.89.53-13.34.61-4.46.08-8.95.22-13.37-.25-9.31-1-18.35.16-26.9 3.62-5.57 2.26-4.33 8.25-5.16 12.9-1.44 8.1-.26 16.81-5.98 23.86-3.23 3.99-11.26 9.24-15.99 6.03-2.86-1.94-4.83-5.28-6.97-8.15-.72-.97-.91-2.44-1.05-3.71-.54-4.74-.96-9.49-1.43-14.23.14-.03.27-.05.4-.06z"/><path d="m108.82 116c-7.72 1.23-15.5 2.23-23.16 3.77-5.76 1.15-17.25-2.49-21.06-9.72-1.62-3.07-.14-5.62 3.27-4.96 9.92 1.94 19.62.66 29.39-.98 2.31-.39 5.05.06 7.23.98 5.98 2.52 10.7-1.19 15.71-2.87 7.42-2.49 8.15-4.7 6.76-16.26-.45-3.71-.73-7.64-2.2-10.97-1.37-3.1-3.98-5.8-6.47-8.23-5.27-5.13-6.07-7.44-.65-12.59 3.57-3.39 8.31-5.84 12.93-7.73 2.21-.9 5.84-.32 8 .98 7.52 4.54 14.82 9.49 21.91 14.68 2.99 2.19 4 5.38 2.9 9.56-1.16 4.39-1.05 9.13-1.34 13.73-.53 8.26 1.75 9.69 10.4 6.76 3.08-1.05 6.12-2.22 9.15-3.41 8.06-3.14 14.65-1.03 19.8 5.88 1.73 2.31 4.51 3.81 6.58 5.9 4.4 4.44 3.17 9.59-2.92 10.22-8.32.86-16.77.32-25.14.78-6.05.34-12.55-.6-17.68 3.8-6.21 5.33-6.02 12.57-4.68 19.61 1.59 8.32-4.39 23.36-11.09 26.23-8.45 3.62-15.51-1.33-15.64-10.25-.14-9.68-1.05-19.35-1.9-29-.38-4.34-4.27-4.58-7.45-4.83-4.14-.33-8.32-.08-12.49-.08-.05-.33-.11-.67-.16-1z"/><path d="m109.07 197.29c4.66 3.08 9.37 6.08 13.97 9.25 6.71 4.61 13.4 9.24 19.98 14.03 6.88 5.01 9.84 11.56 6.97 20-2.58 7.6-5.63 14.96-12.66 19.7-6.47 4.37-13.56 1.53-15.28-6.33-1.56-7.13-3.16-14.31-3.91-21.56-1.02-9.88-3.57-19.09-8.7-27.63-1.08-1.8-1.18-4.19-1.73-6.31.45-.38.9-.77 1.36-1.15z"/></g><path d="m6.44 374.46.42-.45c.65.47 1.27.95 1.85 1.44l-.45.49c-.65-.56-1.25-1.06-1.82-1.48m.93 7.33-.63-.26c.55-1.36 1.05-2.8 1.52-4.33.19.1.38.19.59.27-.46 1.29-.95 2.73-1.48 4.32m-.38-10.38.44-.42c.43.34 1.01.82 1.74 1.44l-.49.49c-.53-.51-1.09-1.01-1.69-1.51m2.5.35h1.72v-1.04h.59v1.04h3.52v-1.04h.59v1.04h1.75v.53h-1.75v1.42h-2.03v.97h3.22v2.03h-3.24c0 .35-.01.66-.03.93h3.32v.53h-3.37c-.03.27-.08.58-.15.94h3.96v.53h-3.71c.67.92 1.93 1.48 3.79 1.68-.13.24-.23.44-.29.59-2.13-.38-3.48-1.08-4.04-2.12-.43.97-1.77 1.72-4.03 2.23-.09-.19-.2-.37-.33-.55 2.1-.42 3.37-1.03 3.81-1.83h-3.36v-.53h3.58c.08-.29.13-.61.16-.94h-3.33v-.53h3.39c.02-.27.04-.58.04-.93h-3.23v-2.03h3.25v-.97h-2.07v-1.42h-1.73zm1.12 3.44v1h2.65c.01-.3.02-.44.01-.4v-.25-.35zm1.19-2h3.52v-.91h-3.52zm4.71 2h-2.63v.59c0 .15-.01.28-.01.4h2.64z" fill="#fbfafc"/><path d="m13.56 383.74h.63v1.52h2.72v6.07h1.13v.6h-11.06v-.6h1.13v-6.07h2.73v-1.52h.63v1.52h2.1v-1.52zm-2.69 8.83.38.56c-1.24.63-2.53 1.25-3.85 1.85-.1-.21-.21-.42-.34-.63 1.36-.55 2.63-1.15 3.81-1.78m-2.13-4.27h2.1v-2.45h-2.1zm0 3.04h2.1v-2.46h-2.1zm2.72-3.04h2.1v-2.45h-2.1zm0 3.04h2.1v-2.46h-2.1zm6.07 3.6c-1.41-.71-2.7-1.3-3.86-1.78l.35-.56c1.45.62 2.75 1.19 3.88 1.72zm-1.25-9.09h-2.1v2.45h2.1zm-2.09 5.49h2.1v-2.45h-2.1z" fill="#fbfafc"/></svg>