<svg enable-background="new 0 0 400 400" viewBox="0 0 400 400" xmlns="http://www.w3.org/2000/svg"><path d="m362.1 8.8c1.1.8 2.1 1.6 3.1 2.4l-1 1.1c-1.3-1.1-2.3-2-3-2.5zm1.9 4.8c.5.2.9.4 1.4.5-.6 2.3-1.3 4.5-1.9 6.8l-1.5-.5c.8-2.1 1.4-4.3 2-6.8zm-1-9.4c1.3.9 2.4 1.8 3.4 2.5l-1 1.1c-1.4-1.2-2.4-2.1-3.2-2.6zm3.7 2.2v-1.4h10.3v1.2c-.5 3.6-1.8 6.8-4 9.4 1.5 1.6 3.4 2.8 5.7 3.8-.3.4-.7.8-1.1 1.4-2.3-1.1-4.1-2.5-5.6-4.1-1.6 1.6-3.6 3.1-5.9 4.3-.3-.5-.7-.9-1-1.3 2.4-1.1 4.4-2.5 6-4.1-1.9-2.5-3-5.6-3.3-9.3h-1.1zm8.8 0h-6.4c.3 3.3 1.3 6 3 8.2 2-2.2 3.1-5.1 3.4-8.2z" fill="#fbfcfa"/><path d="m385.3 3.8h1.3v2.2h2.8v-2.2h1.3v2.2h4.1v9.1h1.7v1.3h-16.9v-1.3h1.7v-9.1h4.1v-2.2zm.4 13.1.7 1.2c-1.8.9-3.8 1.9-6 2.9-.2-.4-.5-.8-.8-1.3 2.3-1 4.3-1.9 6.1-2.8zm-3.1-6.4h2.8v-3.2h-2.8zm0 4.6h2.8v-3.3h-2.8zm4-4.6h2.8v-3.2h-2.8zm0 4.6h2.8v-3.3h-2.8zm3.7 1.9c2.1.9 4.1 1.8 6.1 2.7l-.7 1.3c-2.2-1.1-4.2-2-6.1-2.9zm3.2-9.7h-2.8v3.2h2.8zm-2.8 7.8h2.8v-3.3h-2.8z" fill="#fbfcfa"/><g fill="#010102"><path d="m160.35 280.51c-3.79.19-6.85.33-9.91.49-18.8 1-37.62 1.84-56.4 3.09-7.16.48-14.27 1.83-21.39 2.88-5.3.78-8.95-1.66-11.56-5.9-1-1.63-1.48-3.59-2.17-5.41-2.52-6.57-.99-8.71 6.08-7.6 14.41 2.28 28.7.7 42.61-2.39 9.49-2.11 18.57-2.36 28.18-2.05 10.16.33 20.4-2.21 30.63-3.3 3.62-.39 7.34-.61 10.95-.22 7.9.84 11.13-1.66 11.64-9.7.06-1 .02-2 .01-3-.04-6.71-.81-7.48-7.18-6.38-8.18 1.41-8 2.94-12.11-7.51-.76-1.94-2.37-3.73-4-5.08-2.24-1.86-4.87-3.24-6.73-3.69-3.13 1.09-6.18 2.65-9.4 3.17-7.9 1.27-15.93 1.83-23.8 3.24-1.8.32-4.58 2.99-4.52 4.48.28 7.37-3.91 11.96-8.75 16.38-1.23 1.12-2.36 2.36-3.54 3.53-5.19 5.19-7.37 5.07-10.79-1.16-2.27-4.13-4.35-8.45-5.79-12.92-.68-2.12.45-4.78.58-7.21.71-12.86 1.37-25.73 2.02-38.6.05-.99.03-2.02-.18-2.97-1.93-8.69-5.98-10.71-16.26-8.5-3.98.86-8.06 1.51-12.12 1.66-1.52.06-3.65-1.18-4.55-2.49-2.27-3.28-4.03-6.91-5.93-10.44-1.8-3.35.38-4.4 3.07-4.89 4.17-.76 8.39-1.26 12.55-2.09 5.85-1.16 9.83-4.86 12.9-9.82 1.63-2.63 3.53-5.11 5.47-7.52 7.19-8.95 15.07-17.42 21.4-26.94 3.04-4.58 3.35-11.05 4.6-16.73.67-3.05-1.19-4.09-4.11-3.96-9.43.4-18.87.78-28.3.99-4.57.1-11.25-9.28-9.15-13.26.94-1.78 3.86-3.43 5.95-3.51 5.57-.22 11.18.6 16.78.68 2.75.04 5.51-.68 8.26-1.03 10.06-1.28 20.09-2.86 30.19-3.73 6.82-.59 9.44-2.74 9.44-9.61 0-8.23.17-16.39-2.79-24.39-1.8-4.87 1.76-8.26 6.81-7 7.39 1.85 14.76 3.77 22.04 6 10.17 3.13 12.46 7.86 9.34 18.13-.61 2.01-.86 4.14-1.41 6.18-1.25 4.71 1.49 5.44 5.23 5.63 4.08.21 8.23.41 12.2 1.27 3.5.76 5.02 3.66 4.51 7.18-.51 3.57-2.85 5.33-6.46 5.52-3.6.19-7.23.25-10.78.81-5.71.91-8.64 4.81-9.75 10.23-.72 3.5-2.17 7.13-1.77 10.53.83 7.03-2.45 10.54-8.35 13.12-6.35 2.78-10.34 1.36-11.56-5.53-.71-4.01-1.81-8.73 2.74-11.69-7.04-10.71-12.26-12.88-22.44-9.48-5.12 1.71-6.53 6.08-2.7 10.14 2.6 2.76 6.16 4.61 10.51 7.73-.87 2.14-2.01 5.38-3.51 8.44-1.43 2.91-3.24 5.64-5.34 9.22 7.6.76 13.3.8 18.93-2.11 2.12-1.09 5.35-.8 7.86-.22 7.83 1.84 14.51.2 20.34-5.32 1.27-1.2 2.87-2.06 4.91-3.5 4.12 5.05 8.22 9.74 11.87 14.76 1.12 1.54 1.9 4.5 1.15 5.9-.69 1.28-3.64 1.81-5.62 1.86-7.83.2-15.66.03-23.5.1-6.18.06-12.43 10.91-9.17 16.15.67 1.08 2.8 1.69 4.28 1.75 9.77.37 19.53.62 27.29-7.1.74-.73 2.69-.29 4.08-.33 1.69-.05 4.01.68 4.96-.17 5.27-4.69 10.03-9.71 12.3-16.85 1.02-3.21 4.23-5.7 6.36-8.58 4.35-5.89 8.64-11.62 9.67-19.41.57-4.31 3.09-8.52 5.35-12.41 2.37-4.09 5.02-4.2 8.3-.63 3.78 4.11 7.15 8.59 10.88 12.75 2.58 2.88 1.88 5.74.07 8.35-2.42 3.5-5.32 6.65-7.87 10.06-.71.94-1.61 2.73-1.22 3.29.72 1.03 2.37 2.07 3.56 1.99 5.53-.39 11.18-.62 16.48-2.03 3.02-.8 6.17-3.24 8.05-5.83 5.82-8.04 11.04-16.52 16.54-24.8 2.27-3.42 5.39-6.83 9.54-5 4.18 1.84 8.11 5.05 10.95 8.61.83 1.04-2.08 5.59-3.88 8.09-2.72 3.76-6.44 6.83-8.86 10.74-2.06 3.34.76 4.87 3.81 5.28 1.64.22 3.33.05 4.99.05 3.69 0 7.38.06 11.06-.02 5.14-.11 7.86-3.68 10.15-7.56 3.34-5.65 4.92-5.97 9.54-1.19 3.79 3.92 7.62 7.84 10.97 12.12 1.11 1.42 1.41 4.13.89 5.89-.28.96-3.06 1.66-4.72 1.68-10.69.15-21.38-.07-32.07.12-8.62.15-15.64 3.09-18.82 12.03-1.22 3.42.02 5.79 3.69 5.89 5 .13 10.12.7 14.96-.19 3.6-.66 7.48-2.68 10.08-5.26 3.93-3.9 8.81-4.96 13.55.22 2.56 2.8 5.18 5.56 7.46 8.58.89 1.18 1.65 3.42 1.1 4.47-.75 1.43-2.74 2.96-4.3 3.07-5.47.37-11-.1-16.49.21-7.87.44-15.74 1.17-23.58 2.02-3.82.41-7.06 4.98-6.25 8.65.2.9 1.73 2.12 2.68 2.15 6.16.19 12.33.17 18.49.03 1.22-.03 2.78-.57 3.57-1.43 6.59-7.28 11.63-1.58 16.94 1.89.69.45 1.53.92 1.87 1.6 1.17 2.31 2.75 4.68 2.88 7.1.05.87-3.49 2.58-5.52 2.8-6.06.67-12.2.66-18.28 1.17-5.21.44-10.37 1.39-15.58 1.79-2.54.2-5.14-.34-8.51-.61.58 3.99.63 7.98 1.82 11.59 1.41 4.29 6.92 6.14 13.06 5.14 3.7-.61 7.41-1.89 11.08-1.79 4.78.14 7.09-2.45 9.31-5.92 3.11-4.87 5.07-5.38 9.41-2.06 4.69 3.59 9.34 7.32 13.53 11.47 1.87 1.85 2.59 4.86 3.83 7.34-.36.42-.72.84-1.08 1.25-3.87-.42-7.79-1.43-11.6-1.14-13.26.99-26.48 2.5-39.72 3.65-3.97.35-7.98.08-11.97.25-7.13.29-14.26.58-21.38 1.1-6.38.47-12.73 1.38-19.1 1.84-4.77.35-9.35.19-11.57 5.96-.88 2.28-3.6 3.84-5.47 5.74-3.25 3.28-4.47 7.27-3.79 11.75.42 2.78 1.81 4.13 5.13 4.77 12.01 2.31 23.88-.52 35.81-.27 7.76.16 15.61-1.4 23.28-.68 8.06.76 12.63-2.99 16.67-8.86 1.85-2.69 3.75-5.4 6.03-7.71 3.38-3.42 8.35-3.76 12.55-.31 5.8 4.77 11.13 10.1 16.52 15.34 1.12 1.08 1.76 2.76 2.36 4.26 2.37 5.94.27 9.17-6.02 9.01-4.61-.12-9.22-1.07-13.8-.88-19.14.82-38.28 1.88-57.41 2.97-3.58.2-7.13.93-10.99 1.45-1.4 8.13 5.15 11.4 9.95 15.46 9.34 7.92 21.01 9.93 32.59 12.05 6.89 1.26 14.15 1.68 20.53 4.24 9.21 3.69 18.67 4.7 27.99 3.46 8.79-1.17 16.51 3.99 25.11 2.5.98-.17 3.46 2.23 3.36 3.27-.15 1.58-1.67 3.96-3.06 4.34-12.36 3.35-23.66 9.32-32.85 17.69-6.31 5.74-12.56 8.26-20.18 7.29-5.2-.66-10.17-3.23-15.21-5.05-12.65-4.55-24.76-10.34-35.19-18.82-10.47-8.51-19.4-18.27-24.62-31.39-2.19-5.49-7.77-10.13-12.79-13.82-4.18-3.07-9.82 1.2-9.82 6.61-.02 15.88.2 31.77-.08 47.65-.17 9.62-.63 19.25-5.76 28-1.59 2.71-1.4 6.48-3.01 9.18-1.6 2.67-4.09 5.7-6.84 6.59-4.14 1.35-7.09-2.26-9.13-5.44-4.37-6.82-4.47-14.61-4.09-22.39.22-4.44.89-8.88.83-13.31-.12-9.1-.61-18.2-.93-27.3-.05-1.5.39-3.15-.11-4.47-.89-2.34-1.92-4.97-3.73-6.44-.72-.58-3.94 1.33-5.59 2.64-3.48 2.77-6.82 5.75-9.97 8.9-11.18 11.21-23.22 21.32-37.02 29.16-12.44 7.07-24.9 14.1-37.53 20.83-10.23 5.45-20.67 10.5-31.11 15.54-2.6 1.26-5.54 1.83-8.35 2.65-9.49 2.77-18.96 5.64-28.52 8.14-1.37.36-3.2-1.07-4.82-1.68 1.04-1.44 1.77-3.54 3.18-4.2 10.8-5.13 21.73-9.97 32.61-14.92 7.99-3.64 16.22-6.86 23.88-11.09 6.1-3.36 11.71-7.73 17.18-12.09 5.92-4.72 11.41-9.98 17.11-14.98.61-.53 1.3-1.07 2.04-1.32 15.15-5 22.58-19.13 33.74-28.83 2.39-2.01 2.91-6.18 4.37-9.59zm54.61-117.01c-.66-.37-1.31-.74-1.97-1.11-2.18.89-4.51 1.54-6.51 2.74-3.5 2.08-6.81 4.48-10.17 6.78-1.76 1.21-3.47 2.5-5.2 3.76 1.49 1.52 2.78 3.33 4.5 4.51 6.15 4.23 6.83 6.76 3.18 13.36-1.26 2.28-3.32 4.47-3.6 6.86-.79 6.71-1.49 13.56-.96 20.25.37 4.72-.7 10.81 5.67 13.34 1.82.72 3.49 1.81 5.29 2.6 3.32 1.46 6.18 1.25 6.75-3.02.86-6.49 1.55-13.02 2.02-19.55.51-7.11.84-14.24.96-21.36.16-9.71.04-19.44.04-29.16zm-104.52 17.7c-.29.46-.57.92-.86 1.38 2.69 1.89 5.32 3.87 8.08 5.65 3.83 2.46 4.87 5.82 3.57 9.84-1.51 4.65-1.6 9.86-1.73 14.85-.13 4.92 3.27 5.56 7.36 5.11 8.42-.93 10.14-2.74 10.14-11.16 0-6.49.06-12.98-.02-19.47-.07-5.74-2.69-8.06-8.31-7.61-6.08.48-12.15.94-18.23 1.41zm68.82 2.01c-.41-.15-.83-.29-1.24-.44-.19-3.3 1.02-7.7-4.37-7.65-3.5.03-7.01 1.1-10.49 1.81-3.28.67-4.42 2.79-5.32 6.08-2.45 8.97 1.25 16.69 4.18 24.53 1.56 4.19 6.64 4.43 8.44.22 3.41-7.97 5.91-16.34 8.8-24.55zm70.21 35.79c.02.14.04.28.06.42 3.38-.48 6.89-.54 10.11-1.53 4.89-1.5 7.89-6.26 7.3-11.31-.59-5.02-2.83-9.1-8.86-9.17-6.24-.07-12.55 2.37-18.74 4.06-1.01.28-1.9 2.26-2.22 3.6-2.37 9.76.94 13.93 10.85 13.93zm-158.01-55.63c2.99.73 4.83 1.53 6.68 1.57 7.33.15 14.69-.33 21.99.16 8.65.59 11.05-2.47 10.95-11.42-.04-3.18-1.22-4.61-4.2-4.65-4.84-.07-9.71-.29-14.53.03-9.27.61-15.33 6.18-20.89 14.31zm172.54-2.92c0-4.01-.09-7.81.03-11.61.08-2.74-1-4.05-3.79-3.84-4.58.35-9.15.86-13.73.96-9.01.2-9.79 1.16-11.71 9.91-.86 3.94 1.09 5.44 3.64 5.98 8.4 1.77 16.86 1.8 25.56-1.4zm-14.26 27.89c2.44-.61 5.71-1.03 8.63-2.27 4.13-1.75 3.94-5.05 2.82-8.99-1.23-4.31-3.68-3.01-6.47-2.5-1.86.34-3.85-.17-5.77-.1-3.37.12-7.06-.36-9.98.88-1.9.81-3.6 4.22-3.64 6.5-.03 1.63 2.55 4.04 4.48 4.81 2.78 1.13 6.03 1.09 9.93 1.67z"/><path d="m306.51 86.18c-.94-.25-2.64-1.05-4.37-1.12-4.65-.19-9.34.18-13.98-.13-4.84-.33-7.13 2.49-8.01 6.38-.83 3.7-2.14 6.39-5.39 8.73-2.81 2.02-4.67 5.41-6.81 8.29-2.86 3.85-5.57 3.79-7.95-.43-3.39-6-6.46-12.2-10.17-18-1.17-1.82-3.86-3.57-5.97-3.73-6.46-.48-12.97-.17-19.46-.18-4.56-.01-9.08-3.76-9.28-7.67-.17-3.28 3.11-5.06 8.57-5.39 6.87-.41 13.73-1.15 20.55-2.07 1.33-.18 3.15-1.58 3.59-2.83 3.26-9.22 2.73-18.64.68-28.01-1.24-5.65-2.82-11.22-4.26-16.91 4.2-2.64 7.32-.03 10.74 1.32 6.73 2.66 13.88 4.44 20.25 7.76 5.82 3.03 14.78 2 16.4 11.13.29 1.65.23 3.78-.59 5.12-2.73 4.43-5.64 8.8-8.93 12.82-3.32 4.06-2.67 8.87 2.34 9.3 8.88.77 18.19 2.17 26.24-3.58 1.75-1.25 2.81-3.44 4.36-5.02 1.73-1.76 3.45-4.09 5.58-4.66 1.21-.32 3.93 2.05 4.76 3.78 2.65 5.56 6.14 9.77 12.03 12.33 1.6.69 2.45 4.79 2.26 7.22-.09 1.24-3.23 3.18-5 3.2-7.24.08-14.49-.69-21.73-.63-2.06.02-4.08 1.83-6.45 2.98z"/></g></svg>