<svg enable-background="new 0 0 400 400" viewBox="0 0 400 400" xmlns="http://www.w3.org/2000/svg"><path d="m243.56 293.4c14.66-2.01 25.8 4.08 36.28 11.14 8.4 5.65 16.13 12.33 23.94 18.81 10 8.29 9.14 31.59-3.54 39.82-.65.42-1.47.75-2.23.79-7.26.39-14.53.72-21.8 1.03-3.73.16-6.32-1.6-7.71-4.99-1.9-4.67-3.38-9.53-5.56-14.06-1.88-3.92-3.88-8.13-6.95-11.01-2.15-2.02-6.25-2.91-9.39-2.74-11.15.58-22.29 1.58-33.38 2.88-12.67 1.49-25.28 3.48-37.91 5.27-8.42 1.2-16.84 2.36-25.23 3.68-5.47.86-10.92 1.92-16.36 2.98-15.81 3.08-32.21 2.98-47.53 8.8-2.22.84-5.01 1.45-7.18.86-2.18-.59-4.88-2.42-5.67-4.38-2.35-5.84-3.69-12.08-5.78-18.04-1.24-3.54-.18-5.79 3.22-6.18 8.14-.94 16.33-1.73 24.52-1.99 10.68-.33 10.31-.1 10.78-10.57.58-12.97 2.41-25.9 2.7-38.88.26-11.95 2.06-24.18-2.78-35.78-.87-2.09-2.36-3.96-2.96-6.1-.53-1.87-1-4.61-.05-5.81 1-1.26 3.94-1.91 5.66-1.45 2.99.8 5.77 2.53 8.48 4.13 3.22 1.91 6.24 2.93 10.32 2.57 10.38-.91 20.85-.8 31.28-1.23 3.93-.16 7.89-.4 11.76-1.07 3.54-.62 5.85-2.54 5.55-6.8-.81-11.68-1.51-23.38-1.92-35.08-.08-2.22.83-5.14 2.38-6.53 1.06-.95 4.22-.3 6.06.51 5.36 2.35 10.57 5.06 15.77 7.76 4.29 2.24 7.38 5.14 4.69 10.57-.35.7-.78 1.61-.6 2.26 1.95 7.13 3.81 14.29 6.21 21.28.48 1.41 3.07 2.94 4.72 2.98 10.99.26 22 .3 32.99.07 5.83-.12 8.94-4.85 12.57-8.55 1.19-1.22 2.38-2.63 3.86-3.33 2.86-1.35 2.96-3.04.87-4.87-16.27-14.34-27.26-32.68-38.71-50.69-3.99-6.28-5.56-6.9-13.97-3.86-9.63 3.49-19.02 7.64-28.48 11.58-14.13 5.89-28.23 11.86-42.36 17.76-5.41 2.26-10.88 4.34-16.27 6.65-9.13 3.9-17.43 8.83-25.09 15.5-5.14 4.47-12.73 6.49-19.57 8.38-1.54.43-4.93-3.96-6.68-6.64-2.45-3.75-4.13-7.99-6.22-11.99-.9-1.73-2.25-3.27-2.93-5.07-1.99-5.25.07-7.97 5.59-8.85 7.72-1.22 15.36-2.92 23.03-4.44 4.14-.82 8.31-1.54 12.41-2.52 5.23-1.25 7.61-4.98 7.56-10.1-.26-26.1-.32-52.21-1.22-78.28-.19-5.58.58-12.02-5.1-16.88-3.6-3.07-.95-7.25 4.06-7.75 7.45-.74 14.3 1.01 19.62 6.07 6.93 6.58 14.23 6.81 22.57 3.6 15.63-6 31.42-11.57 47.03-17.63 15.9-6.17 31.72-12.56 47.43-19.19 4.3-1.82 7.98-2.38 12.01.26 4.49 2.95 9.91 4.95 13.45 8.75 2.83 3.03 4.17 8.04 4.63 12.34.14 1.33-4.6 4.19-7.39 4.64-9.04 1.49-18.22 2.15-27.33 3.21-2.09.24-4.25.52-6.21 1.24-6.66 2.44-6.9 3.79-3.01 9.86 2.18 3.4 2.72 7 .17 10.81-3.29 4.9-1.9 16.36 2.42 20.53 1.02.98 2.92 1.45 4.42 1.47 9.66.13 19.46 1.01 28.94-.31 5.12-.71 9.75-5.23 14.53-8.14 5.12-3.12 9.97-6.72 15.32-9.34 1.64-.8 5.48.17 6.67 1.64 5.42 6.72 10.56 13.72 15.12 21.03 1.5 2.4 2.15 6.63 1.02 8.98-1.04 2.14-5.01 4.01-7.7 4.02-16.6.04-33.2-.36-49.79-.89-4.54-.15-9.09-1.97-13.57-1.77-10.26.44-11.41 2.13-9.19 12.5 2.38 11.1 10.39 18.69 16.67 27.38 9.77 13.53 24.41 21 37.81 29.94 7.26 4.85 11.88 4.12 17.11-3.9 6.44-9.88 12.92-19.74 19.76-29.34 1.26-1.77 4.29-2.3 6.5-3.4.13 2.43 1.12 5.24.24 7.22-4.96 11.18-7.67 22.77-7.97 34.98-.26 10.6-.61 21.2-1.01 31.8-.16 4.33-7.44 9.44-13.83 9.65-4.83.16-9.68-.18-14.49.15-1.57.11-3.84 1.25-4.45 2.54-4.23 9.06-7.59 18.33-7.31 28.68.29 10.75-2.85 12.95-12.57 12.73-12.52-.28-25.06-.44-37.56.06-8.98.36-17.92 1.86-26.87 2.88-3.97.45-5.85 2.58-7.36 6.52-3 7.88-4.47 15.47 1.12 22.42 1.97 2.45 5.7 4.59 8.77 4.83 8.62.65 17.31.29 25.98.21 7.02-.06 10.58-4.99 8.26-11.59-1.45-4.14-3.52-8.06-4.98-12.2-.71-2.14-.75-4.53-1.11-6.79zm-76.16-165.4c0 .33 0 .67.01 1-5.82 0-11.64-.04-17.46.01-8.79.08-14.83 6.05-14.93 14.77-.06 5.15.01 10.31-.02 15.47-.04 7.36 3.23 9.85 11.17 7.98 7.38-1.74 14.4-4.97 21.68-7.22 13.32-4.11 26.74-7.92 40.06-12.03 1.52-.47 3.52-1.78 3.9-3.11 2.63-9.23.11-17.2-11.67-16.92-10.91.25-21.82.05-32.74.05zm12.11-14.48c6.01-.62 15.34-1.45 24.61-2.66 1.39-.18 3.5-1.93 3.69-3.19 1.01-6.79 2.31-13.7 2.01-20.49-.53-12.06-3.08-14.11-12.19-11.98-15.19 3.56-30.35 7.2-45.53 10.79-8.96 2.11-12.1 5.93-12.1 14.86 0 1.33.06 2.67-.01 3.99-.29 5.61.65 6.81 6.39 7.13 9.9.55 19.82.94 33.13 1.55zm26.49 130.48c0 9.21-.03 16.72.01 24.24.03 5.21 1.54 6.84 6.73 6.71 6.92-.16 13.84-.57 20.75-.98 3.76-.22 7.58-.31 11.22-1.13 3.1-.69 6.61-1.94 6.8-5.94.31-6.44.49-12.91.05-19.32-.09-1.3-3.12-3.39-4.83-3.43-13.37-.28-26.75-.15-40.73-.15zm-29.53 61.59c-.16-.02-.31-.04-.47-.06 0-1-.08-2 .01-2.99.72-7.76-1.82-10.35-9.7-9.51-8.3.89-16.55 2.19-24.86 2.9-5.48.47-8.19 2.96-8.5 8.55-.21 3.74-.47 7.56-1.36 11.18-1.57 6.4.05 10.87 8.04 10.38 8.41-.51 16.84-.66 25.26-1.07 5.07-.24 8.76-2.64 9.92-7.74.86-3.81 1.13-7.75 1.66-11.64zm-24.03-26.39c0-.07.01-.14.01-.2 2.83 0 5.65.09 8.48-.02 10.91-.41 14.07-3.72 14.08-14.59 0-3.32 0-6.65 0-9.97-.01-7.28-4.39-10.64-11.47-9.28-4.96.95-10.03 1.65-15.07 1.78-10.32.28-11.18.87-12.49 11.24-.1.79-.61 1.54-.69 2.33-.79 7.48.14 16.42 6.83 17.96 3.31.77 6.87.54 10.32.75z" fill="#000001"/><g fill="#fafafb"><path d="m2.6 9.9.8-1c.9.7 1.9 1.4 2.9 2.3l-.9 1.1c-1.1-1-2-1.8-2.8-2.4zm.5 10.6c.9-2.1 1.6-4.3 2.3-6.7.4.2.8.4 1.3.6-.7 2.1-1.5 4.3-2.2 6.6zm.3-15.2.9-.9c1 .8 2 1.6 2.8 2.4l-1 1c-.9-.9-1.8-1.7-2.7-2.5zm12.6-1.2h1.2v1.4h2.7v1.1h-2.7v2.7h-1.2v-.6h-1.8v1.3h4.9v3.8h-1.2v-.5h-3.7c0 .4-.1.9-.1 1.2h5.1v1h-5.2c0 .5-.1.9-.2 1.2h6v1h-5.2c1.1 1.3 2.9 2 5.5 2.2-.4.4-.7.8-.9 1.3-2.9-.5-4.8-1.6-5.7-3.5h-.1c-.8 1.7-2.7 2.9-5.9 3.6-.2-.4-.6-.8-.9-1.1 2.8-.6 4.6-1.4 5.4-2.5h-4.8v-1h5.3c.1-.3.2-.7.2-1.2h-4.9v-1h5c0-.4 0-.8.1-1.2h-3.6v.5h-1.2v-3.8h4.9v-1.3h-1.8v.5h-1.2v-2.7h-2.7v-1h2.7v-1.4h1.2v1.4h4.8zm-6.7 8.3h3.6c0-.4 0-.9 0-1.4h-3.6zm1.9-4.6h4.8v-1.3h-4.7v1.3zm6.7 3.2h-3.7v1.4h3.7v-2.4z"/><path d="m8.7 22.1h1.3v2.2h2.8v-2.2h1.3v2.2h4.1v9.1h1.7v1.3h-17v-1.3h1.7v-9.1h4.1zm.3 13.1.7 1.2c-1.8.9-3.8 1.9-6 2.9-.2-.4-.5-.8-.8-1.3 2.3-1 4.4-1.9 6.1-2.8zm-3.1-6.4h2.8v-3.2h-2.8zm0 4.6h2.8v-3.3h-2.8zm4.1-4.6h2.8v-3.2h-2.8zm0 4.6h2.8v-3.3h-2.8zm3.6 1.9c2.1.9 4.1 1.8 6.1 2.7l-.7 1.4c-2.2-1.1-4.2-2-6.1-2.9zm3.2-9.7h-2.8v3.2h2.8zm-2.7 7.8h2.8v-3.3h-2.8z"/></g></svg>