<svg enable-background="new 0 0 400 400" viewBox="0 0 400 400" xmlns="http://www.w3.org/2000/svg"><g fill="#010000"><path d="m155.5 182.67c4.22-2.01 6.92-3.43 9.72-4.61 4.03-1.7 8.12-3.28 12.22-4.84 4.69-1.78 9.36-3.66 14.15-5.15 4.28-1.34 5.78-3.31 3.75-7.13-2.98-5.62-3.34-11.51-3.4-17.66-.11-11.47-.47-22.94-.99-34.4-.33-7.34-1.23-14.55-7.35-19.92-1.01-.89-1.65-3.89-.99-4.63 1.08-1.22 3.36-1.93 5.11-1.87 2.02.07 3.99 1.24 6 1.85 4.17 1.26 8.29 2.87 12.55 3.62 7.38 1.31 10.33 6.81 8.52 15.7-1.04 5.12-1.6 10.41-1.69 15.63-.1 5.87 3.16 9.08 8.9 8.64 8.13-.61 16.26-1.6 24.29-3 4.82-.84 6.99-4.02 6.85-9.45-.22-8.92.26-17.88.91-26.79.76-10.46-2.96-19.82-6.35-29.3-.38-1.07-1.39-1.99-1.54-3.06-.33-2.47-.3-4.99-.41-7.5 2.65.17 5.45-.16 7.91.61 4.9 1.53 9.63 3.65 14.41 5.55 3.32 1.32 6.76 2.43 9.9 4.11 5.04 2.68 5.88 6.86 2.72 11.75-.8 1.24-1.58 2.5-2.51 3.63-5.03 6.16-5.79 13.25-6.57 21.03-1.09 10.88 2.48 21.21 1.51 31.95-.7 7.78-4.28 10.51-12.05 9.85-7.24-.62-14.63.31-21.94.84-5.71.41-11.48.87-17.06 2.05-2.86.6-6.16 2.27-7.81 4.52-1.27 1.73-.88 7.2-.17 7.41 3.38.99 7.48 1.83 10.65.75 8.7-2.96 11.64-2.47 16.62 4.96 4.13 6.17 1.34 12.71-5.95 14.22-3.81.79-7.5 2.14-11.32 2.86-3.7.7-5.18 3.42-3.93 6.09 2.66 5.62.49 10.77-.13 16.14-.32 2.78-.06 5.62-.06 9.94 3.86-1.35 7.07-2.14 9.96-3.56 4.26-2.1 8.25-4.56 12.97-1.08 4.34 3.21 8.34 11.58 6.87 16.02-.4 1.21-2.8 2.26-4.41 2.48-6.48.88-13.02 1.33-19.51 2.12-1.4.17-2.77.95-4.06 1.63-4.83 2.56-5.34 7.54-.62 10.28 7.45 4.33 15.28 8.01 22.92 12.04 4.01 2.12 8.21 4.04 11.8 6.75 1.67 1.26 3.15 4.33 2.88 6.33-.91 6.78-3.39 13-9.94 16.54-5.28 2.86-8.76 1.66-11.56-3.93-2.12-4.21-4.14-8.47-6.33-12.65-.6-1.13-1.47-2.4-2.55-2.94-1.36-.68-3.22-1.21-4.57-.81-.89.27-1.72 2.28-1.77 3.53-.2 5.19-.19 10.39-.06 15.58.25 9.77.86 19.53.9 29.3.03 7.09.37 14.41-1.24 21.2-1.25 5.28-4.84 10.28-8.37 14.6-1.18 1.44-6.16 1.54-7.99.25-2.22-1.56-4.07-5.22-4.13-8.02-.38-16.49-.13-32.99-.25-49.49-.02-2.32-.88-4.63-1.36-7-11.86 3.94-15.53 17.32-27.09 21.83-1.46-7.53 2.51-12.2 4.63-17.34 2.67-6.45 5.89-12.67 8.55-19.12 2.79-6.75 5.05-13.72 7.83-20.48 1.62-3.93 4.63-7.84 1.13-11.83-3.79-4.33-9.2-4.76-14.5-3.77-7.47 1.39-14.07.14-19.48-5.39-2.86-2.92-2.38-6.32 1.31-8.01 2.46-1.13 5.27-1.91 7.95-2.01 6.82-.28 13.66-.04 20.49-.11 6.62-.07 8.94-2.75 8.55-9.12-.22-3.55.6-7.23.01-10.69-1.26-7.43-3.32-8.26-10.59-6.96-8.84 1.58-17.77 2.72-26.7 3.56-1.51.13-3.28-2.14-6.14-4.12z"/><path d="m280.5 134.98c-1.52-3.85-.04-6.18 4-6.93 5.93-1.1 11.86-2.21 17.83-2.99 4.94-.65 8.26-2.44 8.78-8 .77-8.3 1.42-16.66 3.04-24.82 1.34-6.74-1.78-10.93-5.71-15.5-2.04-2.38-2.86-5.8-4.37-9.06 9.43-3.04 16.03.57 22.65 4.6 5.23 3.19 10.56 6.26 16.04 8.99 4.8 2.4 7.17 6.51 5.15 11.47-4.84 11.84-7.53 23.98-7.07 36.86.08 2.28-1.46 4.99-3 6.9-3.53 4.36-7.55 8.31-11.31 12.49-2.65 2.94-2.2 5.69 1.37 7.4 3.51 1.68 7.31 2.79 10.74 4.61 7 3.7 9.34 11.61 3.76 16.71-9.61 8.78-5.6 19.52-6.15 29.67-.11 2.09.58 4.21.74 6.33 1.02 13.95 2.08 27.9 2.92 41.87.19 3.24-.66 6.52-.62 9.78.04 3.96.62 7.91.79 11.86.46 10.37.82 20.75 1.27 31.12.07 1.58.18 3.23.71 4.7 2.8 7.79-1.17 13.4-5.59 19.14-2.87 3.72-4.91 8.06-7.53 11.99-3.48 5.2-8.3 8-14.7 6.74-1.52-.3-4.01-1.94-3.96-2.83.27-4.3-2.92-6.11-5.28-8.51-5.61-5.71-10.63-12.29-19.43-13.43-.77-.1-1.64-.53-2.18-1.08-.92-.96-2.25-2.17-2.19-3.22.05-.99 1.56-2.58 2.59-2.73 6.15-.89 12.34-1.74 18.54-2.01 7.83-.35 11.58-3.95 11.68-11.87.3-25.92.82-51.84.92-77.77.05-12.93-.17-25.89-1.08-38.77-.66-9.4-2.65-18.72-4.04-28.07-.93-6.29-1.65-12.62-2.84-18.86-1.17-6.14-3.18-7.75-9.38-7.69-5.5.04-11.01.56-17.09.91z"/><path d="m82 246.79c4.53-3.31 8.39-.59 12.12.9 4.27 1.7 7.96 1.33 12.28-.26 8.03-2.96 16.39-5 24.62-7.42 1.55-.46 3.21-.67 4.65-1.35 7.1-3.33 17.04-1.33 22.06 4.59 2.59 3.05 2.02 6.39.27 9.44-2.66 4.63-3.06 9.5-3.09 14.72-.08 14.76-.57 29.52-.92 44.28-.1 4.24-3.19 5.87-7.07 3.63-2.26-1.3-4.16-3.5-6.55-4.22-3.05-.91-6.44-1.14-9.64-.94-5.37.32-10.69 1.55-16.05 1.77-8.62.34-11.64 3.21-12.77 11.81-.87 6.59-2.2 13.17-4 19.56-1.52 5.38-4.83 9.11-11.14 10.03-3.67.53-4.67-.96-4.66-3.55.02-5.93.75-11.85.76-17.78.01-4.92-.81-9.85-.87-14.77-.14-10.86-.04-21.73-.03-32.59 0-1.33.04-2.66.04-4-.01-11.35-.01-22.7-.01-33.85zm47 30.78c0-5.49-.1-10.99.04-16.48.08-3-1.03-4.22-4.08-4.12-4.66.15-9.32-.03-13.98.06-3.94.08-10.95 7.54-10.8 11.31.29 6.92.59 13.84.81 20.76.18 5.65 2.05 10.78 7.41 12.85 5.16 1.99 10.91 2.46 16.07-.94 3.02-1.99 4.83-4.5 4.6-8.46-.29-4.98-.07-9.99-.07-14.98z"/><path d="m268 289.17c.45-3.07 1.36-8.07 1.86-13.1.34-3.48.24-7.03.11-10.54-.23-6.26-.42-12.53-1.02-18.76-1.14-11.89-2.69-23.73-3.83-35.62-.89-9.34-1.58-18.7-2.06-28.06-.22-4.26 1.83-5.62 5.88-4.6 5.82 1.48 11.69 2.81 17.43 4.55 6.48 1.97 7.1 4.65 3.23 9.97-1.35 1.86-2.46 4.39-2.48 6.62-.05 7.08.65 14.16.68 21.24.01 2.29-1.9 4.66-1.67 6.87.72 6.97 2.09 13.87 3.1 20.81.4 2.75.64 5.54.73 8.33.12 3.69.35 7.42-.04 11.07-.78 7.28-1.47 14.62-3.1 21.73-1.17 5.1-9.41 9.86-14.73 9.69-2.67-.09-4.09-2.93-4.09-10.2z"/><path d="m175.74 125.46c-2.3 3.55-5.59 4.41-9.73 4.65-17.57 1.04-35.12 2.52-52.68 3.72-1.9.13-3.85-.82-5.78-.79-15.28.25-30.56.62-45.85.95-4.57.1-7.77-1.61-8.81-7.34 2.41-.57 4.68-1.51 6.99-1.59 14.26-.46 28.52-.78 42.79-1.05 6.86-.13 13.77-.49 20.59.1 8.5.73 15.76-2.46 21.99-7.14 13.22-9.91 23.43-4.36 30.49 8.49z"/><path d="m67.42 86.58c3.32-5.66 8-7.02 15.22-5.28.78.19 1.6.75 2.32.64 16.16-2.49 33.61.68 47.3-12.41 5.81-5.55 10.8-4.27 15.73 2.06 2.9 3.72 6.14 7.71 4.84 12.83-.45 1.79-2.9 4.36-4.46 4.38-23.94.28-47.88.27-71.82.09-2.9-.02-5.78-1.42-9.13-2.31z"/><path d="m126.16 172.01c-8.44 0-16.89-.25-25.31.09-5.69.23-11.35 1.33-17.03 1.98-1.06.12-2.33.32-3.19-.13-1.35-.71-3.31-1.87-3.39-2.96-.09-1.24 1.4-3.47 2.57-3.76 5.52-1.36 11.14-2.46 16.78-3.16 7.48-.93 15.11-.92 22.51-2.24 4.36-.78 8.49-3.17 12.58-5.13 7.86-3.76 16.96-.22 18.93 8.03.31 1.29-2.48 3.64-4.24 4.97-1.19.9-3.06.98-4.66 1.24-5.15.83-10.32 1.57-15.48 2.35-.02-.43-.05-.85-.07-1.28z"/><path d="m122.7 213.07c-11.6.64-23.21 1.29-34.81 1.92-1.16.06-2.57.39-3.44-.12-1.33-.77-3.16-2.15-3.19-3.31-.02-1.15 1.79-3.19 3.02-3.38 10.52-1.58 21.15-2.52 31.63-4.32 4.65-.8 9.34-2.62 13.48-4.94 6.07-3.39 14.2-2.35 18.19 3.18 2.81 3.89 1.65 7.44-2.98 8.99-2 .67-3.98 1.58-6.04 1.81-5.24.59-10.52.86-15.78 1.25-.03-.36-.06-.72-.08-1.08z"/></g><path d="m6.44 374.46.42-.45c.65.47 1.27.95 1.85 1.44l-.45.49c-.65-.56-1.25-1.06-1.82-1.48m.93 7.33-.63-.26c.55-1.36 1.05-2.8 1.52-4.33.19.1.38.19.59.27-.46 1.29-.95 2.73-1.48 4.32m-.38-10.38.44-.42c.43.34 1.01.82 1.74 1.44l-.49.49c-.53-.51-1.09-1.01-1.69-1.51m2.5.35h1.72v-1.04h.59v1.04h3.52v-1.04h.59v1.04h1.75v.53h-1.75v1.42h-2.03v.97h3.22v2.03h-3.24c0 .35-.01.66-.03.93h3.32v.53h-3.37c-.03.27-.08.58-.15.94h3.96v.53h-3.71c.67.92 1.93 1.48 3.79 1.68-.13.24-.23.44-.29.59-2.13-.38-3.48-1.08-4.04-2.12-.43.97-1.77 1.72-4.03 2.23-.09-.19-.2-.37-.33-.55 2.1-.42 3.37-1.03 3.81-1.83h-3.36v-.53h3.58c.08-.29.13-.61.16-.94h-3.33v-.53h3.39c.02-.27.04-.58.04-.93h-3.23v-2.03h3.25v-.97h-2.07v-1.42h-1.73zm1.12 3.44v1h2.65c.01-.3.02-.44.01-.4v-.25-.35zm1.19-2h3.52v-.91h-3.52zm4.71 2h-2.63v.59c0 .15-.01.28-.01.4h2.64z" fill="#fbfafc"/><path d="m13.56 383.74h.63v1.52h2.72v6.07h1.13v.6h-11.06v-.6h1.13v-6.07h2.73v-1.52h.63v1.52h2.1v-1.52zm-2.69 8.83.38.56c-1.24.63-2.53 1.25-3.85 1.85-.1-.21-.21-.42-.34-.63 1.36-.55 2.63-1.15 3.81-1.78m-2.13-4.27h2.1v-2.45h-2.1zm0 3.04h2.1v-2.46h-2.1zm2.72-3.04h2.1v-2.45h-2.1zm0 3.04h2.1v-2.46h-2.1zm6.07 3.6c-1.41-.71-2.7-1.3-3.86-1.78l.35-.56c1.45.62 2.75 1.19 3.88 1.72zm-1.25-9.09h-2.1v2.45h2.1zm-2.09 5.49h2.1v-2.45h-2.1z" fill="#fbfafc"/></svg>