<svg enable-background="new 0 0 400 400" viewBox="0 0 400 400" xmlns="http://www.w3.org/2000/svg"><g fill="#010000"><path d="m128.78 272.56c0-4.7.39-9.45-.24-14.06-.18-1.36-3.21-3.21-5.01-3.3-7.34-.38-14.81-.86-22.03.17-3.03.43-7 4.11-7.86 7.09-.91 3.16.61 7.66 2.4 10.82 3.36 5.94 7.83 11.23 11.53 17 1.56 2.43 1.81 5.23-1.41 7.06-8.32 4.75-13.5 12.08-18.71 20.03-5.34 8.15-13.38 14.5-19.98 21.86-3.09 3.45-5.01 8.13-8.49 11.01-5.21 4.31-11.33 7.53-17.48 10.71.17-7.2 3.46-12.9 8.26-16.84 5.6-4.59 8.15-10.89 11.95-16.49 3.63-5.36 7.38-10.7 10.4-16.4 3.35-6.31 6.37-12.88 8.71-19.62 1.8-5.19-2.97-8.16-6.34-10.11-4.58-2.65-5.93-5.76-5.54-10.67 1.15-14.62 2.75-29.25 2.87-43.89.14-16.19-1.13-32.4-1.83-48.6-.63-14.7-1.04-29.42-2.07-44.1-.96-13.74-2.26-27.47-4.11-41.12-.57-4.17-3.37-8.07-5.29-12.03-2.85-5.9-1.87-10.42 3.27-14.34 5.16-3.94 11.81-4.14 16.01-.4 1.37 1.21 2.5 2.69 3.87 3.89 1.78 1.56 3.47 3.65 5.57 4.32 7.19 2.3 28.77-1.7 33.54-8.75 1.74-2.57 3.93-4.87 6.09-7.12 2.45-2.55 5.42-2.79 8.16-.62 6.43 5.09 12.94 10.12 18.99 15.64 5.02 4.58 4.55 8.41-1.23 11.91-4.51 2.73-6.11 6.28-5.89 11.44.34 8.02-.17 16.08.16 24.1.37 9.05 1.53 18.06 1.85 27.11.33 9.52-.17 19.07.16 28.6.25 7.21 1.49 14.39 1.86 21.6.55 10.94.81 21.89 1.01 32.85.05 2.75-.85 5.51-.87 8.27-.03 4.81.43 9.63.41 14.44-.03 6.56.29 13.21-.76 19.62-.52 3.2-3.6 6.08-5.79 8.9-2.37 3.06-2.51 5.88-.02 8.86 1.37 1.63 2.82 3.23 3.96 5.01 7.26 11.37 18.66 8.75 29.16 8.36 4.44-.17 6.86-5.4 6.94-13.19.11-10.33-.8-20.75.27-30.97.98-9.31-3.61-14.38-10.17-19.08-7.55-5.41-8.05-13.1-6.66-21.33.16-.97.53-1.92.56-2.88.37-11.27.9-22.53.98-33.8.15-22.72-.01-45.44.09-68.16.02-4.76.89-9.52.87-14.28-.03-5.6-.52-11.2-1.03-16.78-.09-.97-1.14-1.93-1.9-2.74-6.18-6.61-6.44-9.2-1.08-17.03 6.17-9.01 8.7-8.69 18.1-5.07 4.51 1.74 9.14 4.1 13.8 4.31 6.49.29 13.05-1.6 19.61-1.79 8.04-.23 13.11-3.64 16.37-11.07 1.76-4.01 7.64-3.79 10.13-.27 3.76 5.32 7.54 10.64 11.17 16.05.97 1.45 1.29 3.32 2.16 4.86 1.52 2.67-.12 3.22-2.18 3.46-6.19.71-12.37 1.47-18.58 1.99-11.98 1.02-18.04 9.4-15.29 21.38.36 1.58.9 3.12 1.31 4.69.94 3.57 3.38 5.19 6.52 3.32 5.47-3.27 10.13-1.86 15.01 1.1 5.61 3.4 10.16 7.87 12.48 13.9.94 2.45-.31 5.74-.52 8.65-.35 4.93-.9 9.86-.95 14.79-.13 14.16-2.68 16.72-17.01 17.25-4.84.18-10.25.42-12.79 5.4-1.76 3.45-2.39 7.55-3.09 11.44-.3 1.65.59 3.5.84 5.27.85 6.03 3.99 8.73 9.49 6.41 10.78-4.57 17.85 1.67 24.98 7.63 1.9 1.59 2.79 4.77 3.32 7.39.22 1.07-1.55 3.44-2.79 3.76-7.62 1.96-15.02 3.5-23.33 2.32-10.77-1.53-21.91-.53-32.89-.46-1.36.01-2.74.93-4.06 1.55-4.46 2.1-4.26 3.82-1.76 7.93 3.14 5.16 7.4 5.88 12.55 5.3 9.29-1.04 18.82-1.16 27.78-3.47 7.35-1.9 14.51-2.63 21.92-2.49 1.78.03 3.55.55 5.34.73 5.12.51 9.99.53 14.76-2.41 5.57-3.43 11.49-3.53 17.65-.47 6.26 3.11 13.03 5.17 19.33 8.21 3.67 1.77 7.42 4.04 10.1 7.02 3.44 3.82 2.97 8.84-1.07 11.9-6.99 5.3-8.56 12.48-8.26 20.41.47 12.35 1.26 24.69 1.95 37.58 4.8 0 9.25-.08 13.7.02 6.47.15 12.38.63 15.98 7.8 2.22 4.41 6.74 7.63 10.1 11.49 4.43 5.09 2.77 13.11-3.18 14.25-2.69.51-5.71-.63-8.58-1.05-12.61-1.83-25.24-3.54-37.83-5.56-9.18-1.47-18.23-3.98-27.45-4.88-10.01-.97-20.14-.7-30.22-.79-3.61-.03-7.33 1.13-10.82.59-15.42-2.41-30.52.11-45.7 2.12-2.43.32-5.01-.47-7.45-.16-3.52.45-6.94 1.7-10.46 2.09-1.85.21-4.21-.14-5.68-1.18-7.62-5.39-9.85-5.36-16.7 1.05-.85.8-1.64 1.66-2.48 2.47-2.76 2.68-5.89 3.4-8.3.03-3.26-4.56-6.08-9.47-8.84-14.36-1.83-3.25-3.88-6.6-4.68-10.17-1.28-5.72-4.96-9.55-8.09-14.11-3.51-5.12-4.83-12-6.01-18.31-.38-2.04 2.48-4.9 4.36-6.92.3-.32 3.33 1.72 4.95 2.88.7.5 1.02 1.54 1.51 2.34.56-.06 1.11-.09 1.66-.11zm-36.78-35.51c8.48 2.9 26.03 1.62 32.53-1.98 1.07-.6 2.31-2.06 2.35-3.17.22-5.82.41-11.67.01-17.47-1.15-17.05-2.61-34.07-3.87-51.11-.22-2.98.35-6.05-.12-8.97-.67-4.16-1.96-8.23-2.98-12.34-3.84 6.95-5.36 7.99-12.59 7.99-3 0-6-.05-8.99.01-4.28.08-7.27 3.11-7.34 7.44-.05 3.33-.14 6.67.03 9.99.15 2.94.85 5.81 4.72 5.56 4.6-.29 9.24-.51 13.76-1.33 4.99-.91 9.49 1.45 9.3 6.27-.17 4.24-1.47 8.53-2.92 12.56-.41 1.13-3.07 1.92-4.74 2.02-2.92.17-5.88-.47-8.83-.49-7.81-.04-10.31 2.49-10.32 10.3-.02 11.59 0 23.18 0 34.72zm26.23-104.93c.25-.05.5-.11.76-.16 0-12.38.13-24.77-.15-37.14-.04-1.62-2.22-4.6-3.32-4.55-7 .27-13.99 1.05-20.92 2.08-1.33.2-3.28 2.19-3.42 3.51-.67 6.55-.87 13.15-1.14 19.74-.12 3.02.21 6.06-.06 9.06-.42 4.73-1.17 9.43-1.91 15.09 3.16-1.53 5.55-3.74 7.71-3.53 8.35.78 14.31-3.65 20.38-8.4.77 1.61 1.42 2.95 2.07 4.3zm173.24 139.76c-.49-8.95-.91-17.86-1.49-26.75-.36-5.54-2.43-7.41-7.6-5.94-3.33.94-8.14 2.74-8.94 5.24-1.66 5.16-1.36 11.04-1.35 16.63.01 6.42.71 12.84.88 19.26.16 6.15.24 12.31-.03 18.46-.21 4.85 1.87 6.7 6.5 6.24.99-.1 2.02-.16 2.99.01 5.18.92 7.22-1.94 7.54-6.45.61-8.9 1.01-17.8 1.5-26.7zm-67.47.64c0-8.48-.05-16.96.02-25.45.05-5.25-4.21-5.31-7.48-5.95-3.6-.71-6.09 1.36-6.49 5.05-.54 5.08-.67 10.21-1.08 15.3-.2 2.44-.91 4.85-.93 7.28-.11 10.48.1 20.96-.13 31.43-.07 3.28 1.24 4.8 4.05 5.77 5.47 1.9 12.05.15 12.03-9 0-8.13.01-16.28.01-24.43zm32.81-15.25c.06 0 .13-.01.19-.01 0-3.33.28-6.68-.08-9.97-.38-3.48-1.53-6.88-5.84-7.24-4.38-.36-5.4 2.84-6.09 6.25-.29 1.42-.9 2.83-.94 4.25-.4 15.74-.75 31.47-.97 47.21-.02 1.46.62 3.7 1.65 4.24 2.6 1.37 6.04 3.32 8.35 2.57 3.44-1.11 6.17-4.37 5.92-8.78-.72-12.84-1.46-25.68-2.19-38.52zm-62.09-105.51c.32-.28.65-.56.97-.84 1.93.61 3.95 1.04 5.78 1.87 6.06 2.75 19.92.6 21.52-8.17.86-4.73.95-9.77.36-14.54-.36-2.89-2.54-4.76-6.62-3.61-5.28 1.48-10.98 1.46-16.37 2.65-2.27.5-5.44 2-6.1 3.82-2.26 6.23-2.16 12.69.46 18.82zm11.02-57.97c-.98-3.85-1.29-7.41-2.84-10.3-.9-1.69-3.76-3.11-5.78-3.16-1.33-.03-3.86 2.58-3.89 4.04-.15 7.06.23 14.15.78 21.2.12 1.53 2.14 4.31 2.58 4.17 1.97-.59 4.61-1.63 5.31-3.24 1.79-4.09 2.66-8.58 3.84-12.71zm-5.51 75.28c-4.02-.43-6.33.84-6.25 5.07.08 4.82.05 9.64.02 14.46-.02 3.37 1.93 3.89 4.6 3.12 6.68-1.92 10.27-4.88 8.83-15.07-.68-4.8-1.47-8.48-7.2-7.58zm-72.92 13.19c1.02 3.19 1.59 7.22 6.17 4.59 1.44-.82 3.2-3.98 2.69-4.85-2.93-5.1-5.86-.08-8.86.26z"/><path d="m280.76 57.04c-4.65-2.23-6.72-6.18-5.72-11.49.65-3.44 2.74-5.97 6.32-4.67 6.35 2.31 13.18 3.81 18.14 9.08 4.3 4.57 4.47 7.2 1.64 12.82-2.24 4.46-4.51 9.19-5.26 14.03-.57 3.65.04 8.96 2.36 11.14 2.01 1.88 7.41 1.2 10.91.22 7.71-2.16 13.7-6.97 18.12-13.86 2.84-4.42 6.17-4.51 9.82-.61 2.1 2.25 3.74 4.94 5.51 7.49 2.04 2.94 3.75 6.15 6.07 8.86 2.27 2.65 4.24 5.16 2.93 8.81-1.45 4.05-4.91 5.09-8.66 5.11-13.35.09-26.71.03-40.06.04-9.12.01-15.1 5.33-17 14.41-.68 3.24-2.39 6.3-3.86 9.34-3.6 7.45-7.27 14.87-11.07 22.22-.8 1.55-2.28 2.75-3.42 4.08-7.42-3.05-4.2-8.85-3.24-13.23 1.71-7.84 3.39-15.52 3.99-23.63.78-10.52 3.54-20.89 5.28-31.35 1-6.02 1.31-12.17 2.62-18.11.78-3.59 2.89-6.87 4.58-10.7z"/><path d="m330.42 159.99c-13.99-.68-27.49-1.25-40.97-2.04-4.87-.29-5.91-4.79-7.27-8.21-1.35-3.4 1.32-5.06 4.3-5.81 2.97-.74 5.95-1.47 8.97-1.88 3.09-.41 6.69 1.07 8.48-3.2.24-.58 2.6-.35 3.98-.36 3.36-.03 7.08.95 10.01-.16 6.67-2.54 8.29-2.66 13.29 2.37 2.05 2.06 4.04 4.19 6.19 6.15 3.46 3.16 2.68 7.24 2.39 11.11-.06.74-1.82 1.79-2.89 1.93-2.29.31-4.65.1-6.48.1z"/></g><path d="m6.44 374.46.42-.45c.65.47 1.27.95 1.85 1.44l-.45.49c-.65-.56-1.25-1.06-1.82-1.48m.93 7.33-.63-.26c.55-1.36 1.05-2.8 1.52-4.33.19.1.38.19.59.27-.46 1.29-.95 2.73-1.48 4.32m-.38-10.38.44-.42c.43.34 1.01.82 1.74 1.44l-.49.49c-.53-.51-1.09-1.01-1.69-1.51m2.5.35h1.72v-1.04h.59v1.04h3.52v-1.04h.59v1.04h1.75v.53h-1.75v1.42h-2.03v.97h3.22v2.03h-3.24c0 .35-.01.66-.03.93h3.32v.53h-3.37c-.03.27-.08.58-.15.94h3.96v.53h-3.71c.67.92 1.93 1.48 3.79 1.68-.13.24-.23.44-.29.59-2.13-.38-3.48-1.08-4.04-2.12-.43.97-1.77 1.72-4.03 2.23-.09-.19-.2-.37-.33-.55 2.1-.42 3.37-1.03 3.81-1.83h-3.36v-.53h3.58c.08-.29.13-.61.16-.94h-3.33v-.53h3.39c.02-.27.04-.58.04-.93h-3.23v-2.03h3.25v-.97h-2.07v-1.42h-1.73zm1.12 3.44v1h2.65c.01-.3.02-.44.01-.4v-.25-.35zm1.19-2h3.52v-.91h-3.52zm4.71 2h-2.63v.59c0 .15-.01.28-.01.4h2.64z" fill="#fbfafc"/><path d="m13.56 383.74h.63v1.52h2.72v6.07h1.13v.6h-11.06v-.6h1.13v-6.07h2.73v-1.52h.63v1.52h2.1v-1.52zm-2.69 8.83.38.56c-1.24.63-2.53 1.25-3.85 1.85-.1-.21-.21-.42-.34-.63 1.36-.55 2.63-1.15 3.81-1.78m-2.13-4.27h2.1v-2.45h-2.1zm0 3.04h2.1v-2.46h-2.1zm2.72-3.04h2.1v-2.45h-2.1zm0 3.04h2.1v-2.46h-2.1zm6.07 3.6c-1.41-.71-2.7-1.3-3.86-1.78l.35-.56c1.45.62 2.75 1.19 3.88 1.72zm-1.25-9.09h-2.1v2.45h2.1zm-2.09 5.49h2.1v-2.45h-2.1z" fill="#fbfafc"/></svg>