<svg enable-background="new 0 0 400 400" viewBox="0 0 400 400" xmlns="http://www.w3.org/2000/svg"><g fill="#010000"><path d="m82.7 114.92c4.1-4.58 8.23-5.97 13.88-5.16 4.95.71 10.17-.34 15.26-.68 4.43-.3 8.85-.92 13.29-1.03 7.35-.19 11.2-4.76 9.51-11.78-2.36-9.79-5.68-19.46-6.92-29.38-1-7.99-6.7-13.67-8.07-21.29-.47-2.6-.06-3.27 2.18-3.59 6.95-.99 13.89-2.07 20.87-2.92 1.36-.16 2.86.45 4.23.92 5.83 2.01 11.86 3.63 17.37 6.31 4.3 2.09 8.3 5.19 11.66 8.61 1.11 1.12.71 5.39-.56 6.88-3.23 3.78-7.47 6.68-11.05 10.19-1.75 1.72-3.85 3.89-4.16 6.08-.86 6.02-1.01 12.17-1.14 18.27-.15 6.92 4.41 10.28 10.99 8.06 3.21-1.09 6.29-2.66 9.29-4.29 3.62-1.97 6.91-3.18 10.78-.19 4.12 3.18 9.02 5.41 12.86 8.86 1.8 1.63 3.1 5.53 2.4 7.68-.56 1.74-4.41 3.23-6.89 3.38-11.08.67-22.19.91-33.29 1.1-5.58.1-5.79 4.57-5.98 7.92-.33 5.9.49 11.85.79 17.79.08 1.5.16 3.02-.01 4.5-.77 6.77.85 9.53 7.75 9.64 8 .13 16.01-1.19 24.03-1.59 5.48-.28 11-.39 16.46.03 3.38.26 6.21 5.65 5.8 9.73-.41 4.14-4.31 7.91-8.65 7.99-7 .13-14.01-.18-20.99.11-5.55.23-11.07 1.03-16.59 1.71-.89.11-1.69.9-1.21 1.75-.56 5.61-1.2 11.21-1.65 16.82-.7 8.86-1.62 17.72-1.77 26.59-.09 5.45 4.55 7.43 11.04 5.43 6.19-1.91 12.44-3.66 18.58-5.74 5-1.7 7.09 2.73 9.81 4.9 1.53 1.21 1.88 5.52.97 7.68-.76 1.82-3.99 3.28-6.33 3.65-8.4 1.33-16.89 2.15-25.35 3.13-5.15.6-7.63 2.83-7.8 8.15-.49 15.93-.73 31.87-1.06 47.8-.1 4.67 2.91 7.09 6.65 8.89 4.79 2.3 9.59 4.55 14.42 6.77 1.89.87 3.8 2.14 5.79 2.31 20.06 1.73 40.08 4.44 60.3 3.11 6.1-.4 12.2-.87 18.3-.94 3.59-.04 7.18.77 10.78 1.03 9.18.68 18.38 1.79 27.56 1.72 7.5-.06 15.08-1.14 22.46-2.58 8.92-1.75 17.71-4.22 26.47-6.67 2.9-.81 5.42-1.03 6.88 1.8 1.65 3.19-1.06 4.95-3.15 6.43-6.91 4.9-14.03 9.51-20.93 14.43-2.14 1.53-4.43 3.35-5.64 5.59-2.9 5.32-7.23 6.54-12.82 6.25-10.59-.55-21.2-1.01-31.8-.99-12.6.02-25.2.72-37.8.89-12.2.17-24.46.81-36.58-.16-14.8-1.18-30.12.41-44.19-5.88-5.34-2.39-11.36-3.44-15.39-8.77-1.99-2.63-6.06-3.66-9.15-5.5-12.7-7.57-21.61-18.52-28.14-31.59-.29-.59-.51-1.28-.96-1.71-1.6-1.5-3.11-3.62-4.99-4.05-1.02-.23-3.13 2.28-4.01 3.95-3.89 7.35-6.94 15.21-11.4 22.17-3.73 5.83-8.56 11.14-13.65 15.88-10 9.31-20.51 18.06-30.83 27.03-1.98 1.72-3.9 3.58-6.1 4.97-1.08.68-2.73.46-4.12.65-.15-1.64-1.06-4.02-.31-4.78 3.89-3.97 8.44-7.29 12.29-11.29 3.7-3.84 7.11-8.04 10.14-12.42 3.52-5.09 7-10.33 9.54-15.94 2.18-4.82 2.62-10.41 4.53-15.38 1.32-3.44 3.92-6.36 5.82-9.6 2.4-4.1 4.79-8.21 6.96-12.43 4.35-8.44 7.36-17.26 8.29-26.85.31-3.16 3.17-6.03 3.67-9.22 1.4-8.9 2.02-17.92 3.24-26.85.68-4.97 1.68-9.94 2.98-14.78 1.23-4.56 4.43-5.43 7.77-1.96 4.44 4.61 8.64 9.52 12.46 14.65 1.06 1.42 1.34 5.19.37 6.04-5.53 4.85-3.75 12.35-7.12 17.91-1.41 2.32-1.84 5.2-2.97 7.72-2.43 5.45-.57 9.95 1.59 15.21 3.11 7.57 8.17 13.8 11.88 20.9.86 1.64 2.48 3.13 4.11 4.07 4.5 2.62 6.9 1.22 6.78-3.96-.11-4.44-.93-8.87-.88-13.3.08-7.6.9-15.2.86-22.8-.07-11.77-.57-23.54-.94-35.3-.28-8.6-.71-17.2-.97-25.8-.2-6.56-2.33-7.57-8.67-6.16-6.69 1.49-13.7 1.49-20.53 2.39-5.98.79-11.91 1.94-17.86 2.9-2.41.39-4.84.68-7.26 1.07-3.36.54-6.7 1.49-10.07 1.57-2.38.06-5.23-.42-7.08-1.76-3.86-2.79-7.48-6.05-10.61-9.63-1.42-1.62-2.63-5.22-1.78-6.57 1.01-1.61 4.28-2.16 6.66-2.48 4.09-.55 8.24-.64 12.37-.77 5.98-.19 11.97-.47 17.95-.32 10.43.26 20.7-.12 30.37-4.75 1.11-.53 2.62-.27 3.94-.29 6.48-.09 7.85-1.49 7.54-7.97-.29-6.29-.58-12.59-1.03-18.87-.16-2.26-.58-4.54-1.25-6.7-1.8-5.72-2.86-5.86-9.08-4.87-7.45 1.19-15.13 2.78-22.48 2.01-5.02-.53-9.71-4.69-14.41-7.45-1.9-1.09-3.39-2.77-5.1-4.24z"/><path d="m250.29 192.18c-1.64 2.93-3.15 4.88-3.9 7.08-5.71 16.87-13.8 32.38-25.23 46.14-9.87 11.89-19.43 24.04-29.33 35.9-1.34 1.61-3.92 2.19-5.93 3.24-.42-.38-.83-.76-1.25-1.14.88-2.69 1.42-5.55 2.69-8.02 4.77-9.26 9.62-18.49 14.79-27.53 1.77-3.09 4.99-5.34 6.81-8.42 6.27-10.57 12.98-21 18.04-32.15 3.84-8.46 6.32-17.81 7.75-27.02 1.26-8.11 2.6-16.02 5.25-23.81 1.18-3.47 1.1-7.5.9-11.23-.06-1.14-2.45-3.07-3.77-3.06-7.26.01-14.55.24-21.79.9-7.62.69-13.05-1.78-15.5-8.65 4.02-.82 7.88-2.02 11.81-2.32 11.51-.89 23.07-1.27 34.58-2.15 6.63-.51 9.15-4.82 8.03-11.67-.4-2.48 1.03-5.24.65-7.73-1.23-8.22-2.64-16.42-4.47-24.53-2.22-9.83-4.68-19.63-7.55-29.29-1.34-4.49-3.74-8.7-5.97-12.87-1.83-3.42-.24-4.81 2.7-5.82 4.46-1.53 8.64-1.4 12.56 1.62.96.74 2.3 1.07 3.53 1.34 6.17 1.38 12.61 2.02 18.44 4.27 3.31 1.28 5.96 4.87 8.34 7.87 5.79 7.3 5.35 12.59-2.38 20.1-4.71 4.58-6.18 9.77-6.12 15.94.1 9.66-.01 19.33.04 29 .03 6.02 1.95 7.98 8.02 7.81 5.44-.15 11.09.19 16.23-1.24 4.18-1.16 7.75-4.57 11.55-7.05 4.23-2.77 8.34-5.74 12.63-8.4 2.88-1.79 6.06-1.03 7.67 1.56 2.72 4.38 5.28 9.05 6.78 13.95 2.49 8.09-2.34 12.21-10.91 11.31-9.39-.99-18.91-1.07-28.36-.93-4.93.07-7.72 5.33-6.99 10.23 1.09 7.34 1.25 14.82 2.52 22.11.87 4.99 2.96 9.76 4.47 14.64.23.76.25 1.58.38 2.37.28 1.62.24 3.39.91 4.83 2.57 5.51 6.29 10.66 7.89 16.42 3.07 10.98 10.21 19.15 18.11 26.19 7.26 6.47 13.99 14.23 24.55 16.57 3.97.88 7.38 4.66 10.84 7.38 2.77 2.17 2.33 4.38-1.04 5.37-5.9 1.74-11.93 3.05-17.82 4.83-2.59.78-5.08 2.08-7.43 3.47-11.58 6.82-15.51 3.28-21.56-7.21-5.56-9.66-9.7-20.33-13.11-30.99-5.18-16.2-11.33-32.26-12.36-49.52-.7-11.7-1.3-23.41-2.02-35.11-.13-2.1-.26-4.35-1.11-6.2-.66-1.43-2.86-3.53-3.62-3.25-1.65.6-3.59 2.33-4.03 3.96-.89 3.28-1.26 6.83-1.13 10.25.47 12.37 1.32 24.72 1.84 37.09.1 2.41-.97 4.88-.85 7.28.51 10.37 1.62 20.72 1.81 31.08.17 9.59-.67 19.2-.84 28.8-.16 9.03-.05 18.06-.03 27.08.02 7.19-3 12.99-8.13 17.79-2.78 2.6-5.78 2.48-8.65.11-4.11-3.39-6.74-7.2-6.37-13.14.55-8.96 0-17.99.22-26.99.08-3.55 1.28-7.08 1.39-10.63.11-3.53-.62-7.08-.77-10.63-.3-7.28-1.79-14.85-.31-21.78 1.66-7.8-.43-14.53-2.02-21.62-.19-.95-.91-1.73-2.07-3.78z"/><path d="m331.93 88.93c.36 8.2-11.97 20.07-17.55 15.94-2.9-2.14-5.71-5.04-7.28-8.22-3.49-7.11-6.31-14.57-9.09-22-.57-1.52-.34-4.56.59-5.12 1.48-.89 4.74-1.17 5.73-.18 6.73 6.73 15.24 10.23 23.53 14.3 2.13 1.04 3.25 4.16 4.07 5.28z"/></g><path d="m6.44 374.46.42-.45c.65.47 1.27.95 1.85 1.44l-.45.49c-.65-.56-1.25-1.06-1.82-1.48m.93 7.33-.63-.26c.55-1.36 1.05-2.8 1.52-4.33.19.1.38.19.59.27-.46 1.29-.95 2.73-1.48 4.32m-.38-10.38.44-.42c.43.34 1.01.82 1.74 1.44l-.49.49c-.53-.51-1.09-1.01-1.69-1.51m2.5.35h1.72v-1.04h.59v1.04h3.52v-1.04h.59v1.04h1.75v.53h-1.75v1.42h-2.03v.97h3.22v2.03h-3.24c0 .35-.01.66-.03.93h3.32v.53h-3.37c-.03.27-.08.58-.15.94h3.96v.53h-3.71c.67.92 1.93 1.48 3.79 1.68-.13.24-.23.44-.29.59-2.13-.38-3.48-1.08-4.04-2.12-.43.97-1.77 1.72-4.03 2.23-.09-.19-.2-.37-.33-.55 2.1-.42 3.37-1.03 3.81-1.83h-3.36v-.53h3.58c.08-.29.13-.61.16-.94h-3.33v-.53h3.39c.02-.27.04-.58.04-.93h-3.23v-2.03h3.25v-.97h-2.07v-1.42h-1.73zm1.12 3.44v1h2.65c.01-.3.02-.44.01-.4v-.25-.35zm1.19-2h3.52v-.91h-3.52zm4.71 2h-2.63v.59c0 .15-.01.28-.01.4h2.64z" fill="#fbfafc"/><path d="m13.56 383.74h.63v1.52h2.72v6.07h1.13v.6h-11.06v-.6h1.13v-6.07h2.73v-1.52h.63v1.52h2.1v-1.52zm-2.69 8.83.38.56c-1.24.63-2.53 1.25-3.85 1.85-.1-.21-.21-.42-.34-.63 1.36-.55 2.63-1.15 3.81-1.78m-2.13-4.27h2.1v-2.45h-2.1zm0 3.04h2.1v-2.46h-2.1zm2.72-3.04h2.1v-2.45h-2.1zm0 3.04h2.1v-2.46h-2.1zm6.07 3.6c-1.41-.71-2.7-1.3-3.86-1.78l.35-.56c1.45.62 2.75 1.19 3.88 1.72zm-1.25-9.09h-2.1v2.45h2.1zm-2.09 5.49h2.1v-2.45h-2.1z" fill="#fbfafc"/></svg>