<svg enable-background="new 0 0 400 400" viewBox="0 0 400 400" xmlns="http://www.w3.org/2000/svg"><g fill="#010000"><path d="m50.46 181.8c3.03-1.09 5.38-1.98 7.78-2.76.6-.2 1.32-.02 1.99-.04 20.67-.66 41.34-1.31 62.01-2.02 3.96-.13 7.43-4.25 7.67-9.94.33-7.65.49-15.37-.21-22.97-.17-1.86-3.95-4.84-6.04-4.82-9.87.08-19.74 1.05-29.61 1.66-6.43.4-12.86.89-19.3 1.03-4.34.1-7.45-2.52-9.28-6.15-1.5-2.98.08-5.24 3.3-5.77 6.75-1.12 13.52-2.62 20.32-2.89 11.98-.47 24-.19 35.99-.1 4.57.03 7.56-2.35 8.76-6.31 1.22-4.01 2.04-8.32 2.04-12.5 0-10.59-.2-21.2-.99-31.76-.57-7.58-4.66-13.41-11.28-17.5-1.49-.92-2.2-3.09-3.27-4.69 1.71-.42 3.59-1.53 5.1-1.16 8.02 2.01 16.05 4.08 23.86 6.75 5.22 1.78 10.18 4.43 15.11 6.98 6.17 3.19 6.89 13.51.88 16.94-5.06 2.89-6.22 6.96-6.35 12.12-.15 6.1-.55 12.2-.97 18.29-.63 9.2 6.79 14.63 15.28 11.08 1.66-.69 3.28-1.5 4.89-2.31 3.24-1.65 6.07-1.68 7.78 2.1 1.88 4.16-1.31 5.66-4.14 6.48-4.21 1.21-8.66 1.57-12.96 2.5-2.99.65-6.05 1.34-8.8 2.61-1.33.62-2.81 2.57-2.89 3.99-.58 9.58-.84 19.19-1.13 28.79-.12 3.89 2.92 5.5 5.79 5.37 3.91-.18 7.97-1.19 11.57-2.76 3.83-1.68 7.28-4.31 10.74-6.75 2.71-1.91 5.34-3.45 8.54-1.33 3.86 2.57 2.77 6.8 1.97 9.89-.55 2.11-3.86 4.31-6.34 4.96-5.95 1.55-12.16 2.13-18.23 3.27-4.01.75-7.85 5.28-8.04 9.39-.4 8.6-.74 17.2-1 25.8-.13 4.36.04 9.27 4.39 11.25 4.99 2.26 10.15 2.32 15.04-2.05 1.91-1.71 6.7-1.99 9.15-.81 2.46 1.2 3.89 4.92 5.19 7.8.26.57-1.93 3.07-3.3 3.41-7.89 1.92-15.92 3.29-23.82 5.18-6.05 1.45-8.37 5.59-9.97 11.76-2.81 10.79-2.43 21.56-2.85 32.41-.1 2.67-2.08 5.26-3.43 8.47 3.69 6.31 11.16 6.85 17.84 8.15 15.69 3.05 31.51 5.47 47.28 8.13.16.03.33.02.5.03 14.17.67 28.34 1.46 42.51 1.96 7.86.27 15.73-.07 23.6.08 11.77.22 23.54 1.04 35.3.86 13.21-.2 26.41-1.2 39.61-1.93 2.11-.12 4.21-.92 6.29-.85 1.21.04 3.09.96 3.38 1.89.34 1.08-.66 2.63-1.2 3.93-.17.41-.69.8-1.13.95-11.23 3.82-16.9 13.41-23.13 22.37-6.91 9.93-17.99 13.48-30.11 11.6-8.57-1.33-17.51-.29-26.29-.27-1.47 0-2.96.46-4.41.34-7.02-.57-14.03-1.35-21.05-1.92-17.05-1.38-34.19-2.08-51.12-4.31-7.04-.93-13.85-4.65-20.41-7.84-9.63-4.68-19.3-9.45-28.26-15.25-6.57-4.26-11.89-10.4-18-15.42-8.36-6.86-16.97-13.41-25.4-20.18-2.44-1.96-4.72-4.13-6.98-6.3-3.81-3.67-5.11-3.7-8.03.8-3.72 5.74-6.84 11.89-10.77 17.47-9.06 12.82-18.51 25.3-30.98 35.23-6.25 4.98-11.59 11.09-17.67 16.32-2.18 1.87-5.3 2.64-7.99 3.92-.46-.54-.93-1.07-1.39-1.61 2.43-3.02 4.78-6.1 7.32-9.03 5.33-6.16 10.99-12.06 16.06-18.43 3.12-3.92 5.21-8.65 8.11-12.77 1.55-2.2 3.87-3.85 5.78-5.8 8.11-8.32 14.51-17.96 18.1-28.86 5.65-17.1 10.81-34.43 14.86-51.97 1.98-8.57 1.29-17.83 1.26-26.77-.02-5.99-5.25-8.87-11.35-8.17-9.48 1.08-19.06 1.36-28.6 1.91-.73.04-1.63-.33-2.2-.81-3.78-3.12-7.51-6.31-12.27-10.34zm93.03 59.44c-.5-.01-.99-.03-1.49-.04 0-7.93-.13-15.85.04-23.78.14-6.43.86-12.85.89-19.28.03-6.77-3.4-11.22-9.16-10.96-5.77.26-11.55 1.66-17.19 3.07-3.81.95-4.25 3.59-2.79 7.3 2.35 5.97 8 7.91 12.52 11.2 9.6 6.99 10.53 8.67 5.24 20.81-3.67 8.43-9.03 16.14-13.73 24.12-2.83 4.8-4.79 10.13-.55 14.5 4.71 4.86 10.32 9.02 16.07 12.64 3.64 2.29 6.16.52 6.62-3.78 1.27-11.93 2.36-23.87 3.53-35.8z"/><path d="m245 121.07c5.36 1.37 10.56 1.82 15.74-.43 1.18-.51 2.12-1.54 3.27-2.14 5.37-2.82 9.15-.78 9.99 5.32.29 2.1.57 4.2.97 6.28.47 2.49-.29 4.31-2.86 4.79-5.92 1.12-11.85 2.49-17.83 2.95-3.79.29-4.92 2.22-5.22 5.19-.5 5.07-.83 10.17-1.02 15.27-.16 4.33-.98 7.39-6.37 7.98-4.27.46-8.75 1.81-12.42 3.98-2.39 1.41-4.72 4.93-4.87 7.63-.18 3.11 1.65 6.3 5.98 7.22 10.33 2.19 20.17-.32 30.07-2.41 1.02-.21 2.52-2.04 2.43-2.97-.49-4.7 2.66-10.54-3.91-13.69-.4-.19.14-4.66 1.37-5.51 5.85-4.07 15.49-3.17 21.1 1.4 4.07 3.32 8.09 3.49 11.62-.65 5.02-5.89 9.8-12.09 13.9-18.64 4.24-6.77 7.27-14.29 11.36-21.15 3.4-5.7 9.84-6.06 14.23-1.49 2.5 2.6 3.18 5.21.73 8.22-5.69 6.99-11.4 13.97-16.98 21.05-1.6 2.03-3.24 4.23-4.08 6.62-.76 2.16-1.47 5.96-.42 6.78 1.72 1.36 5.01 1.57 7.4 1.08 6.99-1.44 13.87-3.46 20.79-5.27 7.16-1.87 14.31 1.03 16.74 6.82 2.04 4.88-.47 9.06-5.83 9.66-.82.09-1.67 0-2.5.02-14.76.33-29.54.42-44.29 1.11-6.47.31-13.07 1.24-19.23 3.13-3.06.94-6.11 4.25-7.62 7.27-1.86 3.7-3.53 5.96-8.01 5.58-2.55-.22-5.27.12-7.74.83-6.89 1.99-7.49 2.98-7.48 10.06 0 3.83.02 7.66.05 11.49 0 .32.15.64.44 1.82 2.53-.77 5.08-1.41 7.53-2.34 2.74-1.04 5.28-2.76 8.09-3.37 1.76-.38 5.23.3 5.54 1.28 1.02 3.2 2.42 7.75.93 9.9-1.77 2.56-6.26 4.02-9.76 4.44-6.35.76-12.85.14-19.25.59-5.19.36-10.39 1.19-15.47 2.34-1.87.42-3.39 2.35-5.07 3.59 1.67 1.08 3.3 2.99 5.02 3.08 7 .37 14.02.17 21.04.19 5.03.02 10.05.13 15.07.09 13.84-.11 27.72.34 41.5-.64 8.48-.6 14.66 3.27 21.12 7.24.59.36.4 2.67-.01 3.88-1.96 5.81-4.15 11.55-6.21 17.33-1.54 4.31-.41 8.64 2.57 11.35 2.85 2.59 6.93 1.34 10.43-.41 4.49-2.25 9.04-4.36 13.61-6.43 6.17-2.78 10.93.89 12.95 5.02 2.92 5.98.22 10.57-6.33 10.58-21.33.02-42.65-.03-63.98.05-2.93.01-5.85.84-8.78.91-6.02.13-12.05-.09-18.07-.01-10.33.13-20.66.36-30.99.59-.8.02-1.6.41-2.41.45-16.36.69-32.73 1.35-49.09 2.03-2.94.12-5.93.14-6.43-3.69-.46-3.55 1.59-5.71 4.88-6.3 4.81-.87 9.68-1.81 14.54-1.92 11.99-.28 14.52-2.66 14.52-14.84 0-11.33.11-22.66-.03-33.99-.24-19.1-1.1-38.2-.82-57.29.2-13.48 1.78-26.94 2.91-40.39.46-5.53 5.45-5.57 9.18-6.44 8.41-1.96 8.75-2.11 8.75-10.57 0-11.9-1.78-13.75-13.73-13.53-6.6.13-13.2.71-19.8.93-3.51.11-6.94-.82-7.35-4.89-.43-4.19 3.01-5.55 6.36-5.99 6.82-.89 13.69-1.44 20.55-2.09 6.18-.59 8.21-2.52 7.9-8.75-.37-7.54-1.11-15.07-1.94-22.57-.65-5.92 3.37-9.46 9.29-8.05 8.77 2.09 15.94 6.4 21.03 14.04 1.94 2.92 1.95 5.36-.39 7.92-4.95 5.45-4.36 12.73 4.55 15.27 2.79.79 5.56 1.87 8.08 3.28 3.38 1.89 3.26 4.87-.09 6.97-1.23.77-2.71 1.88-3.97 1.75-7.01-.72-9.34 2.82-10.69 9.23-1.04 5.05-4.26 9.64-6.78 14.98zm64 137.63c0-1.67-.17-3.35.03-4.99.52-4.06-2.01-6.07-5.24-6.53-4.41-.63-9.26-.39-12.05 3.75-3.81 5.66-3.67 12.16-1.85 18.48 1.6 5.57 6.51 3.37 10.15 3.52 5.55.22 8.5-2.68 8.92-8.22.16-2 .03-4.01.04-6.01zm-76 3.46c0 2.15.14 4.32-.03 6.46-.31 3.79.97 6.74 4.86 7.27 5.42.74 10.67-2.42 11.08-6.44.34-3.3.41-6.7.02-9.98-.86-7.28-3.41-8.9-11.37-8.52-6.79.32-3.98 5.35-4.55 8.72-.13.82-.01 1.66-.01 2.49zm-9-54.93v1.99c.02 7.11 3.58 9.04 10.15 6.31 5.72-2.38 7.19-6.3 6.94-12.03-.35-7.97-.59-8.37-8.1-6.44-7.92 2.04-8.99 3.25-8.99 10.17zm43.17 43.77c-3.2-.74-3.96 1.58-4.18 4.57-.28 3.75-.55 7.51-1 11.24-.44 3.68 2.05 5.16 4.74 5.94 2.7.78 5.78.89 6.8-2.82.9-3.27 2.02-6.57 2.24-9.91.35-5.4-3.14-8.98-8.6-9.02zm-29.57-106.67c-2.47-1.44-4.81-3.7-7.45-4.12-3.73-.59-6.58 3.93-5.9 9.72.18 1.53 3.06 3.54 4.96 3.88 3.15.55 7.87-4.97 8.39-9.48z"/><path d="m345.94 91.47c-11.26 1.19-22.54 2.17-33.74 3.78-1.96.28-4.24 2.94-5.11 5.03-1.29 3.07-1.69 6.58-2.03 9.95-.56 5.43-3.31 9.21-7.25 9.35-3.36.11-9.61-5.33-9.69-9.17-.15-7.24-2.61-12.63-9.56-15.74-.81-.36-.98-3.4-.53-4.94.33-1.15 2.06-1.99 3.29-2.77 4.07-2.57 5.98-6.06 5.76-11.01-.28-6.31-.24-12.65.02-18.96.1-2.34.93-4.81 2.06-6.87.52-.95 2.72-1.72 3.89-1.44 5.03 1.23 10 2.73 14.91 4.4 7.96 2.7 9.18 5.57 6.19 13.54-.85 2.28-1.57 4.61-2.32 6.93-1.99 6.18.81 10.02 7.26 10.5 6.75.51 12.85-1.64 19.15-3.52 5-1.49 10.41-2.46 15.57-2.22 2.56.12 5.56 3.06 7.29 5.49 2.14 3.02.93 6.25-2.88 7.13-3.96.92-8.1 1.05-12.16 1.53-.05-.34-.09-.67-.12-.99z"/><path d="m329.03 194.75c-1.44 2.35-2.49 5.08-4.38 6.97-7.85 7.83-15.93 15.42-23.96 23.07-2.92 2.79-5.56 1.97-6.73-1.77-1.43-4.56-.69-8.05 2.33-12.18 6.02-8.25 11.21-17.16 16.21-26.09 2.42-4.31 4.48-4.1 8.02-1.64 6.95 4.83 7.48 5.33 8.51 11.64z"/></g><path d="m6.44 374.46.42-.45c.65.47 1.27.95 1.85 1.44l-.45.49c-.65-.56-1.25-1.06-1.82-1.48m.93 7.33-.63-.26c.55-1.36 1.05-2.8 1.52-4.33.19.1.38.19.59.27-.46 1.29-.95 2.73-1.48 4.32m-.38-10.38.44-.42c.43.34 1.01.82 1.74 1.44l-.49.49c-.53-.51-1.09-1.01-1.69-1.51m2.5.35h1.72v-1.04h.59v1.04h3.52v-1.04h.59v1.04h1.75v.53h-1.75v1.42h-2.03v.97h3.22v2.03h-3.24c0 .35-.01.66-.03.93h3.32v.53h-3.37c-.03.27-.08.58-.15.94h3.96v.53h-3.71c.67.92 1.93 1.48 3.79 1.68-.13.24-.23.44-.29.59-2.13-.38-3.48-1.08-4.04-2.12-.43.97-1.77 1.72-4.03 2.23-.09-.19-.2-.37-.33-.55 2.1-.42 3.37-1.03 3.81-1.83h-3.36v-.53h3.58c.08-.29.13-.61.16-.94h-3.33v-.53h3.39c.02-.27.04-.58.04-.93h-3.23v-2.03h3.25v-.97h-2.07v-1.42h-1.73zm1.12 3.44v1h2.65c.01-.3.02-.44.01-.4v-.25-.35zm1.19-2h3.52v-.91h-3.52zm4.71 2h-2.63v.59c0 .15-.01.28-.01.4h2.64z" fill="#fbfafc"/><path d="m13.56 383.74h.63v1.52h2.72v6.07h1.13v.6h-11.06v-.6h1.13v-6.07h2.73v-1.52h.63v1.52h2.1v-1.52zm-2.69 8.83.38.56c-1.24.63-2.53 1.25-3.85 1.85-.1-.21-.21-.42-.34-.63 1.36-.55 2.63-1.15 3.81-1.78m-2.13-4.27h2.1v-2.45h-2.1zm0 3.04h2.1v-2.46h-2.1zm2.72-3.04h2.1v-2.45h-2.1zm0 3.04h2.1v-2.46h-2.1zm6.07 3.6c-1.41-.71-2.7-1.3-3.86-1.78l.35-.56c1.45.62 2.75 1.19 3.88 1.72zm-1.25-9.09h-2.1v2.45h2.1zm-2.09 5.49h2.1v-2.45h-2.1z" fill="#fbfafc"/></svg>