<svg enable-background="new 0 0 400 400" viewBox="0 0 400 400" xmlns="http://www.w3.org/2000/svg"><path d="m362.1 8.8c1.1.8 2.1 1.6 3.1 2.4l-1 1.1c-1.3-1.1-2.3-2-3-2.5zm1.9 4.8c.5.2.9.4 1.4.5-.6 2.3-1.3 4.5-1.9 6.8l-1.5-.5c.8-2.1 1.4-4.3 2-6.8zm-1-9.4c1.3.9 2.4 1.8 3.4 2.5l-1 1.1c-1.4-1.2-2.4-2.1-3.2-2.6zm3.7 2.2v-1.4h10.3v1.2c-.5 3.6-1.8 6.8-4 9.4 1.5 1.6 3.4 2.8 5.7 3.8-.3.4-.7.8-1.1 1.4-2.3-1.1-4.1-2.5-5.6-4.1-1.6 1.6-3.6 3.1-5.9 4.3-.3-.5-.7-.9-1-1.3 2.4-1.1 4.4-2.5 6-4.1-1.9-2.5-3-5.6-3.3-9.3h-1.1zm8.8 0h-6.4c.3 3.3 1.3 6 3 8.2 2-2.2 3.1-5.1 3.4-8.2z" fill="#fbfcfa"/><path d="m385.3 3.8h1.3v2.2h2.8v-2.2h1.3v2.2h4.1v9.1h1.7v1.3h-16.9v-1.3h1.7v-9.1h4.1v-2.2zm.4 13.1.7 1.2c-1.8.9-3.8 1.9-6 2.9-.2-.4-.5-.8-.8-1.3 2.3-1 4.3-1.9 6.1-2.8zm-3.1-6.4h2.8v-3.2h-2.8zm0 4.6h2.8v-3.3h-2.8zm4-4.6h2.8v-3.2h-2.8zm0 4.6h2.8v-3.3h-2.8zm3.7 1.9c2.1.9 4.1 1.8 6.1 2.7l-.7 1.3c-2.2-1.1-4.2-2-6.1-2.9zm3.2-9.7h-2.8v3.2h2.8zm-2.8 7.8h2.8v-3.3h-2.8z" fill="#fbfcfa"/><g fill="#010102"><path d="m220.94 321.21c-4.49-3.56-5.72-7.74-6-12.58-.43-7.37-1.1-14.74-2.02-22.07-.71-5.65-3.1-6.48-8.51-4.77-5.14 1.62-7.69 5.69-11.07 9.22-6.18 6.46-13.49 11.91-19.22 18.71-5.49 6.51-11.21 12.73-17.09 18.85-4.59 4.78-6.59 4.89-9.99-.58-2.71-4.37-5.64-8.72-7.52-13.46-.67-1.7.85-5.06 2.4-6.68 3.27-3.4 7.21-6.17 10.92-9.14.86-.69 2.08-.97 2.84-1.74 1.55-1.56 3.84-3.14 4.17-5.01 1.67-9.49 3.04-19.06 4.03-28.65.38-3.69-.81-7.52-.73-11.28.29-14.6.9-29.19 1.2-43.79.13-6.22-.03-12.46-.41-18.66-.42-6.71-.88-13.47-2.07-20.07-.66-3.65-1.89-8.41-4.55-10.25-6.61-4.57-4.84-10.4-3.81-16.04.86-4.75 3.15-9.23 4.33-13.94.81-3.22.94-6.63 1.15-9.97.42-6.42.72-12.85 1.02-19.28.39-8.39-1.83-16.29-4.5-24.13-.78-2.29-1.35-4.76-1.39-7.16-.03-1.85.39-4.7 1.56-5.34 1.6-.87 4.74-.89 6.13.17 5.94 4.51 10.49 10.14 11.24 18.05.2 2.09.55 4.28 1.38 6.18 1.36 3.1 3.3 5.47 7.43 5.28 6.48-.3 12.99-.03 19.49-.09 6.53-.06 8.76-2.19 8.63-8.55-.23-10.93.33-22.02-1.36-32.73-.92-5.83-5.7-11.09-8.97-16.48-1.5-2.48-3.56-4.62-5-8.24 3.42.81 7.32.81 10.16 2.55 13.84 8.49 29.49 11.02 44.89 14.46 5.62 1.25 6.58 2.45 4.3 7.74-4.46 10.37-3.19 20.94-1.96 31.56.27 2.32 1.19 3.99 4.08 3.74 2.48-.21 5.01-.22 7.49-.01 6.19.54 12.4 1.03 18.54 1.96 8.94 1.36 15.17-3.7 21.75-8.33 4.09-2.88 8.44-5.41 12.79-7.89 3.4-1.93 6.36-.95 8.67 2.1 6.9 9.12 13.8 18.25 20.67 27.4.58.77 1.01 1.69 1.35 2.6 2.99 8.15.9 8.89-6.03 9.31-10.26.62-20.48 2.28-30.62 4.03-4.36.75-9.14 2.24-11.98-1.41-2.79-3.59-1.41-8.33 1.06-12.25 1.56-2.47 1.22-4.32-1.05-6.41-4.96-4.57-9.52-4.76-15.94-2.75-9.11 2.86-18.56 4.72-27.97 6.47-4.03.75-8.33-.13-12.47.19-4.82.38-9.59 1.76-14.4 1.82-8.46.12-16.92-.42-25.39-.69-.32-.01-.8-.18-.94-.03-4.98 5.27-11.81 2.98-17.73 4.4-5.1 1.23-8.46 6.19-6.54 10.9 2.24 5.49 1.07 10-1.4 14.88-3.08 6.09-1.85 8.25 4.86 8.61 17.24.91 34.33-1.04 51.46-2.8 9.2-.94 18.52-.82 27.78-1.14 2.47-.08 4.94-.01 6.41-1.01 2.02-3.69 3.53-7.8 6.18-10.97 4.26-5.1 5.9-5.04 11.29-1.51 2.46 1.61 4.95 3.23 7.14 5.16 4.67 4.1 3.29 10.8-2.84 12.05-9.15 1.87-18.47 2.91-27.73 4.25-2.26.33-4.55.42-6.82.74-5.15.72-10.27 1.81-15.44 2.2-5.51.41-7.26 1.88-7.28 7.53-.02 6.5.28 13.01-.1 19.49-.28 4.66.77 7.54 5.87 8.16 2.06.25 4.11 1.08 6 1.99 1.54.74 2.84 1.99 4.24 3.02-.05.52-.1 1.05-.15 1.57-3.24 1.13-6.57 2.05-9.7 3.45-2.09.93-4.49 1.77-4.23 5.15.49 6.34-.87 12.83 2.46 18.93.76 1.39-.75 3.91-.95 5.94-.29 2.95-.75 5.98-.41 8.89.76 6.63 2.08 13.19 2.94 19.8 1.37 10.56 2.19 21.2 3.9 31.7 1.74 10.69-5.21 25.94-13.43 32.31-2.02 1.57-4.26 2.88-6.49 4.37zm-9.1-140.37c-.15-2.42-1.48-6.04-.29-8.38 2.52-4.96 1.16-9.41-.48-13.69-.88-2.31-3.5-5.04-5.76-5.49-4.34-.87-8.98-.25-13.5-.27-10.25-.05-12.07 6.34-10.38 13.93 1.38 6.18 2.83 12.35 4.34 18.92 8.23-1.59 16.77-3.23 26.07-5.02zm.58 29.63c-.14-.02-.28-.04-.42-.06 0-1.83.2-3.69-.03-5.48-1.02-7.81-3.56-11.93-12.57-8.96-2.76.91-5.66 1.48-8.53 2.01-5.72 1.06-7.98 3.51-7.83 9.37.15 5.92.42 11.84 1.01 17.73.52 5.2 4.19 7.06 9.13 5.35 3.04-1.06 6.29-1.51 9.36-2.49 3.8-1.21 7.54-2.75 8.41-7.29.64-3.37.99-6.79 1.47-10.18zm-.42 41.59c0-3.66-.18-6 .04-8.3.36-3.76-1.28-5.49-4.87-4.71-6.63 1.44-13.21 3.1-19.74 4.94-1.02.29-2.24 2-2.33 3.13-.54 6.72-.95 13.46-1.06 20.21-.16 9.89 2.95 11.96 11.26 6.78 8.63-5.37 20.03-9.27 16.7-22.05z"/><path d="m167.73 372.71c3.14-1.93 6.06-4.59 9.47-5.64 11.17-3.43 19.39-11.18 28.32-17.99 4.62-3.52 10.31-5.82 14.43-9.8 7.39-7.15 14.47-14.76 20.73-22.91 5.3-6.91 9.18-14.89 13.82-22.33 4.91-7.88 6.71-16.05 3.05-24.96-.36-.89-.51-1.91-.54-2.88-.11-4.68-.32-8.97-2.66-13.61-2.77-5.5-3.3-12.23-4.29-18.5-1.07-6.8-1.73-13.68-2.15-20.55-.13-2.1 1.09-4.28 1.7-6.42 1.56 1.19 3.55 2.08 4.58 3.62 1.88 2.81 3.25 5.98 4.71 9.05 2.51 5.28 4.7 10.73 7.47 15.87 2.2 4.08 6.82 4.11 8.59 0 6.21-14.39 11.82-29 12-45 .05-4.81-2.74-6.89-7.54-5.85-6.53 1.41-13.02 3-19.58 4.2-3.05.56-6.24.39-9.3.54-.74-6.5 3.86-11.33 9.85-11.57 6.59-.26 13.32.07 19.72-1.22 4.53-.91 8.79-3.81 12.83-6.35 3.03-1.91 5.4-4.83 8.29-7 4.03-3.03 8.88-2.04 14.4 2.75 3.61 3.14 7.14 6.38 10.65 9.63 4.66 4.31 4.91 6.3.33 10.96-3.43 3.49-7.61 6.24-11.23 9.57-1.97 1.81-4.2 3.85-5.06 6.24-3.06 8.55-5.57 17.3-8.32 25.97-2.01 6.32-4.07 12.62-6.1 18.92-1.99 6.15-3.57 12.46-6.09 18.39-1.81 4.26.38 6.73 2.82 8.94 2.37 2.15 5.47 3.49 8.25 5.19 7.19 4.38 14.1 9.36 21.64 13.02 11.97 5.82 24.39 10.71 36.56 16.13 1.49.66 3.38 2.02 3.65 3.34.22 1.09-1.43 2.99-2.71 3.85-1.86 1.24-4.06 2.08-6.23 2.72-6.83 2.03-12.88 4.88-18.04 10.3-2.86 3-7.96 3.91-12.14 5.54-.58.23-1.74-.69-2.48-1.27-12.87-10.16-25.82-20.23-38.51-30.62-4-3.28-7.73-2.71-10.38.53-3.53 4.32-8.64 8-8.42 14.64.02.74-1.12 1.54-1.76 2.28-3.95 4.62-7.5 9.7-11.98 13.74-4.94 4.45-10.7 8.01-16.19 11.82-4.15 2.88-8.37 5.67-12.7 8.25-4.57 2.72-9.23 5.32-14.01 7.64-5.64 2.74-11.42 5.2-17.2 7.63-4.3 1.81-8.62 3.66-13.09 4.93-2.64.75-5.58.4-8.39.54-.27-.76-.52-1.52-.77-2.27z"/><path d="m43.82 206.52c.37.13.84.46 1.29.43 10.82-.62 18.72 6.02 27.39 10.85 4.72 2.63 6.59 6.47 6.52 11.7-.11 8.52-.11 17.04.02 25.56.05 3.09.78 6.17.92 9.26.42 9.43.62 18.86 1.07 28.29.24 5.1 4.4 8.27 9.53 7.31 2.7-.5 5.39-1.28 7.98-2.21 4.88-1.75 8.77-4.02 7.58-10.58-.94-5.17-.99-10.53-1.04-15.81-.03-3.89 1.19-7.84.8-11.66-.86-8.44-2.5-16.79-3.6-25.21-.64-4.89-.84-9.83-1.23-14.75-.69-8.86-1.26-17.74-2.1-26.58-.46-4.84 2.23-7.48 6.08-8.96 4.42-1.7 10.65.29 13.09 3.02 1.7 1.9 3.8 3.71 6.09 4.76 6.24 2.87 7.77 7.42 4.32 13.75-2.78 5.1-3.75 10.22-3.55 15.82.24 6.85 3.21 9.11 9.83 7.11 4.18-1.27 8.25-2.93 12.43-4.23 3.83-1.19 7.11.03 8.63 3.68 2.51 6.03 1.64 10.27-2.67 11.75-5.48 1.88-11.21 3.49-16.95 4.03-9.81.92-17.59 9.24-12.9 18.4 2.02 3.95 1.21 9.35 1.64 14.09.09.99-.17 2.04.04 2.99 2.01 8.87.94 11.28 11.7 8.82 4.12-.94 8.3-1.93 12.49-2.09 2.16-.08 5.31 1.01 6.36 2.63 1.53 2.37.37 5.34-2.76 6.28-5.58 1.67-11.37 2.67-16.84 4.6-12.86 4.52-25.5 9.65-38.38 14.09-8.27 2.85-16.92 4.6-25.19 7.46-5.8 2.01-11.27 4.99-16.83 7.66-3.61 1.73-6.9 2.18-9.7-1.4-.41-.52-.96-.92-1.39-1.43-1.96-2.3-6.08-4.21-4.14-7.56 1.14-1.97 5.33-1.95 7.67-3.53 1.73-1.17 3.31-3.3 3.88-5.3 1.37-4.82 2.28-9.8 3.05-14.76 1.27-8.23 2.87-16.52-1.15-24.56-.56-1.11-.72-2.51-.74-3.78-.07-7.69.75-15.49-.3-23.04-.73-5.24-3.88-10.17-6.12-15.16-1-2.22-2.28-4.35-3.66-6.36-3.62-5.2-4.04-10.24.84-15.38z"/><path d="m68.33 123.09c-.46-3.52-1.51-10.49-2.24-17.49-.33-3.15.53-6.5-.15-9.53-1.09-4.85-2.86-9.58-4.64-14.24-1.46-3.82-.19-5.95 3.94-5.8.96.04 2.01.15 2.84.59 7.03 3.73 14.76 6.35 19.99 12.93 3.08 3.87 6.78 3.72 10.69 1.11 5.97-3.98 11.82-8.16 18-11.79 6.52-3.84 13.46-7.41 21.07-2.84 6.4 3.85 9.86 10.01 11.02 17.23.31 1.93-.56 5.28-1.95 6.03-6.84 3.7-4.72 9.67-4.67 15.22.05 5.72-.03 11.43-.07 17.15-.01 1.32-.16 2.65-.16 3.97-.01 9.36.01 18.71-.01 28.07-.02 6.27-1.49 7.55-7.56 8.37-13.53 1.83-27.21 2.78-40.29 7.25-2.88.99-4.46 2.09-4.26 5.45.12 2.02-.4 4.36-1.4 6.12-3.23 5.68-6.31 8.81-13.39 6.27-9.85-3.53-13.03-9.52-11.08-21.85 1.15-7.27 2.3-14.56 2.9-21.88.73-8.9.87-17.85 1.42-30.34zm23.14 40.91c2.36-.12 3.69-.43 4.91-.19 2.37.47 4.78 2.01 7 1.73 3.23-.4 8.02 1.36 9.37-2.84 1.53-4.75 2.12-9.97 2.14-14.99.03-11.42-.69-22.84-.85-34.26-.17-11.9-.04-11.9-11.88-11.46-10.86.41-15.51 5.09-15.09 15.97.32 8.21 1.17 16.4 1.96 24.58.7 7.3 1.64 14.58 2.44 21.46z"/></g></svg>