<svg enable-background="new 0 0 400 400" viewBox="0 0 400 400" xmlns="http://www.w3.org/2000/svg"><g fill="#000001"><path d="m55.93 204.48c1.89-6.16 6.76-8.71 12.68-7.22 5.35 1.35 10.74 2.55 16.12 3.78 4.79 1.09 6.58 4.34 5.63 9.3-1.3 6.87-2.96 13.79-3.13 20.72-.12 4.94-1.01 10.79 4.43 14.59 1.02.72 1.46 4.2.65 5.29-4.25 5.73-3.27 12.19-3.32 18.53-.02 2.83.27 5.7-.07 8.49-.53 4.42 1.03 6.19 5.6 6.34 9.27.31 15.27-2.57 15.55-13.95.24-9.7 1.43-19.37 1.83-29.07.17-4.24-.99-8.54-.82-12.78.26-6.71 1.38-13.39 1.68-20.11.33-7.51.43-15.05.13-22.55-.3-7.38-1.34-14.72-1.88-22.1-.47-6.56-3.01-9.54-9.65-11.86-3.22-1.12-6.15-3.08-10.38-5.26 0 6.94.03 12.36-.01 17.78-.04 4.24-6.52 12.18-10.19 12.58-6.36.69-11.45-4.06-11.72-11.49-.14-3.74.92-7.52.84-11.27-.24-11.6-.77-23.2-1.19-34.8-.26-7.31-.44-14.63-.8-21.93-.22-4.6.29-9.6-1.39-13.65-1.35-3.27-5.49-5.39-8.54-8.15 3.14-3.71 6.72-3.16 10-1.58 7.71 3.71 15.36 5.44 23.42 1.17.55-.29 1.36-.43 1.94-.26 7.99 2.45 15.62-.17 23.06-2.26 4-1.12 7.48-4.28 11.02-6.78 3.72-2.63 7.69-2.5 11.18.27 3.76 2.99 7.61 5.95 11.74 8.38 6.7 3.95 7.63 7.66 2.81 13.69-1.33 1.66-2.5 3.5-4.02 4.96-3.16 3.04-4.06 5.99-3.51 10.84 1.31 11.49 1.2 23.16 1.1 34.76-.01 1.39-3.37 3.24-5.49 4-4.38 1.58-9.02 2.44-13.47 3.85-3.08.98-3.01 3.54-1.11 5.22 2.9 2.58 6.3 4.64 9.62 6.69 4.1 2.54 5.16 5.59 1.69 8.62-6.23 5.44-6.36 12.78-6.82 19.81-.44 6.71.7 13.5.77 20.27.06 5.53 3.83 7.59 8.03 8.39 3.82.72 8.05.57 11.86-.29 3.09-.7 5.46-.15 5.86 2.46.4 2.65 2.25 6.55-2.11 8.14-2.41.88-4.97 1.52-7.51 1.89-2.12.31-4.33-.05-6.49.09-8.9.56-11.7 3.43-11.54 12.27.17 8.93.86 17.85.87 26.77.01 5.47 6.06 8.44 11.13 6.41 2.27-.91 4.44-2.35 6.78-2.68 1.94-.28 4.05.71 6.09 1.14-.83 2.1-1.2 4.64-2.64 6.19-1.46 1.57-3.92 2.3-6.03 3.16-10.54 4.28-21.1 8.49-31.66 12.71-.3.12-.78.01-.95.2-6.67 7.7-17.37 7.93-25.2 13.52-1.46 1.04-3.89.61-5.6 1.43-6.37 3.03-12.95 5.81-18.82 9.64-3.84 2.51-6.15 2.08-8.68-1.07-3.79-4.72-7.53-9.49-11.32-14.22-2.72-3.39-2.46-5.16 1.59-6.43 5.09-1.6 10.3-2.84 15.5-4.03 3.13-.72 5.79-1.44 6.63-5.28 1.92-8.78 4.05-17.27 2.55-26.62-1.51-9.41-.88-19.16-1.29-28.76-.23-5.27-.36-10.57-1.08-15.79-.9-6.67-6.26-9.52-11.95-12.1zm68.53-96.28c-.15-.01-.31-.02-.46-.03 0-5.32-.07-10.64.02-15.96.06-3.44-1.24-5.81-4.81-6.18-3.17-.33-6.4-.45-9.58-.28-3.42.18-6.8 1.01-10.21 1.21-5.72.34-9.5 3.93-9.39 9.76.17 8.42.46 16.84 1.02 25.24.3 4.54 1.13 9.06 2.08 13.52.21 1 2 2.47 2.94 2.39 6.98-.6 14.07-.99 20.83-2.64 2.45-.6 5.35-4.23 5.85-6.89 1.26-6.59 1.23-13.42 1.71-20.14z"/><path d="m248.72 264.5c-2.92 4.6-5.67 8.22-7.65 12.22-3.03 6.13-5.81 12.41-8.19 18.82-4.04 10.84-13.46 16.14-22.18 22.08-16.34 11.13-33.8 20.15-52.62 26.43-11.37 3.8-22.7 7.72-34.1 11.43-2.71.88-5.7 1.5-8.78-2.09 3.94-1.6 7.19-3.42 10.67-4.24 17.13-4.04 32.38-12.38 46.83-21.8 9.34-6.1 17.33-14.4 25.44-22.21 3.84-3.69 7.36-8.17 9.62-12.95 4.58-9.68 8.37-19.75 12.18-29.78 2.13-5.61 4.1-11.35 5.31-17.21 1.15-5.58 1.49-11.37 1.66-17.09.12-3.86-2.52-6.21-6.31-6.04-9.88.43-19.74 1.43-29.62 1.76-5.23.18-10.53-.29-15.73-1.02-1.67-.23-3.09-2.24-4.63-3.43.09-.54.18-1.07.27-1.61 2.4-.59 4.78-1.61 7.2-1.71 12.1-.5 24.22-.45 36.3-1.17 17.08-1.03 34.11-3.01 51.2-3.74 11.27-.48 22.6.39 33.9.88 9.67.42 17.77-2.64 24.03-10.07 5.46-6.48 9.71-5.85 17.18-1.48 3.73 2.18 6.83 6.09 9.11 9.88 2.21 3.66-.09 7.37-4.36 7.5-5.07.16-10.16-.72-15.25-.82-2.59-.05-5.19.6-7.78.97-4.68.66-9.42 1.1-14.02 2.15-1.9.43-3.49 2.22-5.22 3.38 1.21 1.58 2.17 3.46 3.67 4.69 3.91 3.22 8.31 5.87 12.02 9.29 4.78 4.41 4.57 8.88-.6 12.61-5.58 4.03-10.77 8.37-18.41 9.38-5.07.67-9.65 5.05-14.47 7.72-1.98 1.09-4.18 1.83-6.02 3.11-4.62 3.22-4.24 9.03.95 11.26 13.84 5.95 27.56 12.34 41.82 17.08 9.32 3.1 19.53 3.45 29.26 5.42 3.3.67 6.36 2.54 9.54 3.87-2.25 2.13-4.13 5.14-6.8 6.25-12.23 5.06-24.24 10.39-35.05 18.18-7.79 5.61-15.13 1.68-22.16-4.09-8.02-6.58-16.26-13.05-23.31-20.59-5.12-5.48-11.24-10.83-12.61-19.02-.08-.49-.03-1.23-.32-1.42-6.84-4.42-6.55-12.45-9.58-18.79-.43-.85-.99-1.64-2.39-3.99zm44.28-43.93c-7.33-.19-14.35-.61-21.35-.43-3.14.08-7.57.29-9.12 2.26-5.58 7.05-11 14.61-10.43 24.35.16 2.77.99 5.83 2.49 8.1 2.24 3.39 5.22 6.35 8.18 9.18.8.77 2.81.89 4.01.51 5.8-1.8 11.16-4.23 15.37-9.07 6.91-7.96 13.23-15.91 10.9-27.49-.38-1.91-.05-3.97-.05-7.41z"/><path d="m175.5 144.85c-.83-12.52-1.48-25.06-2.65-37.54-.25-2.7-2.5-5.18-3.64-7.85-.45-1.06-.9-3.09-.48-3.37 1.11-.73 2.85-1.29 4.06-.95 4.52 1.27 9.12 2.53 13.31 4.57 3.75 1.82 7.13 2.75 11.23 1.37 2.43-.82 5.15-.88 7.75-1.05 5.22-.34 8.72-3.79 8.92-9.04.06-1.5.01-3 .01-4.5 0-9.61-5.92-13.37-15.69-11.83-10.21 1.61-20.67 1.89-31.04 2.11-2.05.04-4.17-2.84-6.26-4.38 1.6-1.58 3.05-4.3 4.83-4.54 9.41-1.25 18.89-1.99 28.37-2.66 5-.36 10.08.12 15.06-.4 9.76-1.03 19.44-2.94 29.22-3.68 17.6-1.34 35.25-2.02 52.87-3.15 6.05-.39 12.16-.86 18.05-2.16 2.97-.66 5.85-2.89 8.2-5.04 5.57-5.09 8.48-5.93 14.53-3.14 5.71 2.63 11.23 9.26 9.74 14.88-.37 1.38-2.19 3.19-3.54 3.37-9.26 1.25-18.56 2.21-27.87 3.04-2.05.18-4.21-.93-6.28-.82-10.03.52-20.08.93-30.05 2.05-5.53.62-8.23 8.32-7.43 13.63 1.26 8.37 5.7 9.02 13.04 9.66 9.1.79 15.16-3.2 21.43-8.11 2.33-1.82 4.29-4.2 6.8-5.67 2.47-1.43 6.27-3.59 7.99-2.66 4.11 2.21 8.77 4.93 8.08 11.21-.83 7.51-1.35 15.05-1.92 22.58-.08 1.1.38 2.24.44 3.36.44 8.42 1.31 16.85 1.09 25.26-.16 5.99-4.28 8.06-10.25 7.69-6.64-.41-13.35.15-20.02.21-6.24.06-12.48.03-18.72.04-6.79.01-13.59-.19-20.37.07-8.59.34-17.15 1.25-25.73 1.57-11.99.45-23.99.77-34.78 6.85-1.91 1.08-3.07 3.54-4.5 5.42-.79 1.04-1.37 2.23-2.15 3.28-1.93 2.6-2.92 7.85-6.91 6.03-2.59-1.18-4.48-5.85-4.98-9.21-.81-5.38-.22-10.97-.22-16.46.13-.01.29-.02.46-.04zm121.5-24.91c0-2.66.02-5.31 0-7.97-.05-5.39-2.48-8.61-7.73-8.86-6.53-.3-13.16.03-18.88 3.85-1.12.75-2.29 2.46-2.27 3.7.12 7.57.47 15.15.96 22.71.2 3.05 2.25 4.58 5.3 4.61 4.15.03 8.32.26 12.45-.05 8.05-.59 10.17-3.04 10.18-11.02-.01-2.32-.01-4.64-.01-6.97zm-44.94 3.07c-.31-3.04-.56-6.82-1.13-10.54-.52-3.4-6.8-6.99-10.49-6.23-5.74 1.19-9.48 5.38-8.99 9.73.64 5.7 1.17 11.42 1.52 17.14.4 6.43 6.44 10.89 12.49 8.51 2.17-.85 4.73-3.09 5.3-5.19 1.09-4.04.9-8.44 1.3-13.42zm-57.13 10.19c-1.13 4.5.74 7.7 5.14 8.22 3.13.37 6.42-.32 9.6-.77 3.2-.46 4.78-2.1 4.43-5.74-.38-3.95-1.42-8.77.31-11.8 3.21-5.63.22-8.39-3.18-11.23-3.51-2.93-8.33-3.37-11.84-1.26-2.83 1.7-5.41 5.66-5.89 8.94-.65 4.38.85 9.08 1.43 13.64zm54.06-48.62c0-1.5.12-3-.02-4.48-.42-4.57-4.06-7.88-8.78-8.1-5.19-.24-8.51 1.87-8.94 6.93-.36 4.16-.06 8.68 1.31 12.56.71 2.01 4.42 4.28 6.68 4.18 7.21-.31 9.76-3.7 9.75-11.09z"/><path d="m170.67 181.17c7.44-.72 14.88-1.88 22.33-2.08 13.15-.34 26.33.27 39.48-.18 19.14-.66 38.29-1.5 57.35-3.22 4.54-.41 8.78-4.57 13.08-7.14 3.74-2.24 7.22-4.96 11.11-6.88 1.39-.69 4.03-.25 5.4.69 3.97 2.72 7.67 5.88 11.31 9.04 1.45 1.26 2.83 2.85 3.65 4.57 1.95 4.14.04 6.69-4.58 6.31-13.74-1.11-27.25.67-40.84 2.44-8.19 1.07-16.64.08-24.96.31-7.26.2-14.5.96-21.76 1.21-11.14.38-22.3.37-33.44.88-3.85.18-7.67 2.14-11.48 2.04-7.57-.2-15.15-1.04-22.64-2.17-1.78-.27-3.23-2.73-4.83-4.18.27-.53.55-1.08.82-1.64z"/><path d="m196.23 244.45c-.53 3.63-1.06 6.05-1.19 8.48-.42 7.94-.39 15.93-1.2 23.83-.28 2.77-2.03 5.7-3.87 7.94-6.21 7.6-12.43 15.27-21.33 20.01-3.55 1.89-5.38.56-6.7-3.18-3.36-9.49 2.89-15.15 8.16-20.99 7.22-8.01 13.01-16.93 17.78-26.5 1.33-2.67 1.18-6.05 2.24-8.91.58-1.58 2.27-2.74 3.46-4.09 1.05 1.35 2.1 2.7 2.65 3.41z"/></g><path d="m2.6 9.9.8-1c.9.7 1.9 1.4 2.9 2.3l-.9 1.1c-1.1-1-2-1.8-2.8-2.4zm.5 10.6c.9-2.1 1.6-4.3 2.3-6.7.4.2.8.4 1.3.6-.7 2.1-1.5 4.3-2.2 6.6zm.3-15.2.9-.9c1 .8 2 1.6 2.8 2.4l-1 1c-.9-.9-1.8-1.7-2.7-2.5zm12.6-1.2h1.2v1.4h2.7v1.1h-2.7v2.7h-1.2v-.6h-1.8v1.3h4.9v3.8h-1.2v-.5h-3.7c0 .4-.1.9-.1 1.2h5.1v1h-5.2c0 .5-.1.9-.2 1.2h6v1h-5.2c1.1 1.3 2.9 2 5.5 2.2-.4.4-.7.8-.9 1.3-2.9-.5-4.8-1.6-5.7-3.5h-.1c-.8 1.7-2.7 2.9-5.9 3.6-.2-.4-.6-.8-.9-1.1 2.8-.6 4.6-1.4 5.4-2.5h-4.8v-1h5.3c.1-.3.2-.7.2-1.2h-4.9v-1h5c0-.4 0-.8.1-1.2h-3.6v.5h-1.2v-3.8h4.9v-1.3h-1.8v.5h-1.2v-2.7h-2.7v-1h2.7v-1.4h1.2v1.4h4.8zm-6.7 8.3h3.6c0-.4 0-.9 0-1.4h-3.6zm1.9-4.6h4.8v-1.3h-4.7v1.3zm6.7 3.2h-3.7v1.4h3.7v-2.4z" fill="#fafafb"/><path d="m8.7 22.1h1.3v2.2h2.8v-2.2h1.3v2.2h4.1v9.1h1.7v1.3h-17v-1.3h1.7v-9.1h4.1zm.3 13.1.7 1.2c-1.8.9-3.8 1.9-6 2.9-.2-.4-.5-.8-.8-1.3 2.3-1 4.4-1.9 6.1-2.8zm-3.1-6.4h2.8v-3.2h-2.8zm0 4.6h2.8v-3.3h-2.8zm4.1-4.6h2.8v-3.2h-2.8zm0 4.6h2.8v-3.3h-2.8zm3.6 1.9c2.1.9 4.1 1.8 6.1 2.7l-.7 1.4c-2.2-1.1-4.2-2-6.1-2.9zm3.2-9.7h-2.8v3.2h2.8zm-2.7 7.8h2.8v-3.3h-2.8z" fill="#fafafb"/></svg>