<svg enable-background="new 0 0 400 400" viewBox="0 0 400 400" xmlns="http://www.w3.org/2000/svg"><path d="m239.67 204.53c-2.79.35-5.03-.02-6.36.91-5.89 4.12-11.67 8.44-17.2 13.03-6.21 5.16-12.08 10.73-18.17 16.04-1.21 1.05-2.7 1.86-4.19 2.48-1.09.45-3.01.94-3.46.44-.84-.95-1.57-2.9-1.14-3.92 1.73-4.13 3.12-8.85 6.12-11.91 5.71-5.83 10.09-12.32 14.15-19.32 4.81-8.3 10.13-16.41 16.12-23.88 3.06-3.82 1.98-6.65 1.09-10.35-1.77-7.4-3.91-14.85-4.44-22.38-.75-10.78-.19-21.65-.19-32.48 0-15.02-.19-30.05.09-45.07.13-6.93-.98-12.7-8.11-15.71-1.16-.49-2.07-1.58-3.09-2.42-2.52-2.07-6.43-4.2-4.51-7.72 1.07-1.96 5.35-3.26 8.03-3.04 5.28.44 10.98 1.14 15.55 3.55 7.78 4.1 16.18 4.46 24.29 4.93 9.96.58 20.28.01 30.01-2.06 7.74-1.65 14.86-6.27 22.22-9.65 2.66-1.22 5.12-3.25 7.89-3.79 2.34-.45 5.35.11 7.44 1.3 3.52 2.01 6.46 5.01 9.81 7.36 5.24 3.67 7.83 10.22 3.83 14.68-5.83 6.51-5.34 14.21-6.27 21.6-.85 6.75.32 13.74-.31 20.55-1.48 16.09-1.07 32.57-7.09 47.89-2.06 5.23-4.19 10.88-9.83 14.26-3.1 1.86-5.01 5.62-7.67 8.31-3.7 3.73-5.76 3.63-9.59.05-4.03-3.77-5.81-7.95-4.12-13.67.91-3.08.92-6.74.17-9.85-.44-1.84-3.2-4.48-4.86-4.45-9.53.22-19.09.73-28.54 1.95-5.95.76-8.98 4.89-8.24 9.67.24 1.54 1.4 3.08 2.48 4.33 1.74 2 3.79 3.72 5.67 5.6 2.38 2.38 3.25 4.92 2.2 8.46-2.09 7.07.9 10.75 8.21 10.76 8.83.01 17.71.57 26.48-.15 9.37-.77 19.15.39 27.94-4.38.66-.36 1.74-.56 2.36-.27 4.36 2.03 7.21.44 10.08-3.08 3.64-4.46 8.83-4.22 13.89-.16 5.49 4.41 11.03 8.76 16.61 13.05 3.2 2.46 3.01 6.43.95 8.12-10.51 8.62-12.89 20.69-15.61 32.9-2.66 11.89-6.07 23.61-9.11 35.42-2.27 8.82-4.56 17.64-6.7 26.49-1.84 7.61-6.61 13.3-11.5 19.11-6.32 7.5-10.92 16.54-19.57 21.9-6.51 4.04-13.11 7.96-19.8 11.69-4.35 2.43-7.54.84-8.66-4.09-1.12-4.9-1.62-9.99-3.17-14.74-1.13-3.47-3.67-6.46-5.3-9.8-.8-1.64-1.44-3.67-1.19-5.38.11-.72 2.7-1.56 4.15-1.53 4.44.09 8.87.52 13.3.93 9.97.93 13.55-1.2 17.17-10.75 5.84-15.36 10.76-30.97 14.14-47.12 2.39-11.44 6.35-22.54 9.12-33.91 1.46-5.99 2.15-12.22 2.6-18.39.23-3.2-2.2-4.85-5.52-4.85-3.64 0-8.11.49-8.03 4.56.11 5.85-2.92 9.65-5.45 14.24-7.64 13.87-14.75 28.03-21.81 42.21-5.88 11.8-13.43 22.38-21.89 32.44-6.21 7.39-11.57 15.51-18.01 22.67-4.82 5.35-10.82 9.62-16.19 14.49-8.5 7.71-16.32 16.33-25.5 23.09-10.59 7.81-22.28 14.16-33.67 20.83-2.74 1.61-6.21 1.99-10.34 3.24 1.72-6.99 6.29-9.17 10.79-10.57 5.56-1.73 9.77-4.86 13.99-8.71 7.26-6.63 15.34-12.36 22.59-19 3.67-3.37 6.23-7.95 9.35-11.93 4.04-5.16 8.66-9.96 12.12-15.48 9.44-15.06 18.96-30.11 27.38-45.75 6.32-11.73 11.15-24.29 16.33-36.61 2.83-6.73 5.33-13.64 7.28-20.66.65-2.34-.29-7.24-1.48-7.58-3.32-.95-5.36 1.4-7.1 4.92-6.24 12.65-13.05 25.02-19.97 37.32-4.07 7.24-8.48 14.32-13.25 21.11-2.49 3.55-6.02 6.39-9.22 9.4-8.5 7.99-14.84 17.71-21.89 26.87-1.95 2.53-4.47 4.68-6.98 6.69-2.76 2.21-5.97 3.86-8.7 6.1-7.25 5.93-14.37 12.03-21.51 18.1-2.3 1.95-4.29 4.34-6.8 5.94-2.95 1.89-6.35 1.14-8.17-1.62-2.13-3.25.44-5.78 2.86-7.8 7.36-6.13 15.64-11.41 21.99-18.44 9.45-10.47 20.66-19.41 27.7-32.12 6.23-11.26 13.58-21.89 20.14-32.97 1.7-2.87 2.17-6.45 3.43-9.62 2.88-7.24 5.88-14.38 9.36-22.85zm17.7-110.4c2.48-1.38 4.05-2.9 5.77-3.1 7.81-.88 15.67-1.36 23.5-2.04 3.37-.29 5.64 1.48 6.2 4.4.63 3.33-1.56 5.68-4.74 6.45-2.83.69-5.8.87-8.72 1.14-7.5.71-15.07.98-22.51 2.14-5.79.9-11.18 5.07-8 12.63.24.58.09 1.31.13 1.98.4 6.12 2.39 8.18 8.35 8.24 8.82.09 17.64.08 26.46 0 5.23-.05 9.2-2.1 10.19-7.73 1.41-8.01 3.32-16.01 3.84-24.08.66-10.27.16-20.62.16-30.94 0-5.45-1.57-6.7-7.08-6.24-9.18.77-18.36 1.52-27.55 1.97-10.12.5-12.18 2.22-13.4 12.17-.1.8-.58 1.54-.68 2.34-1.14 8.66-.43 16.66 8.08 20.67z" fill="#010000"/><path d="m207.05 185.21c-4.1 5.9-10.75 4.95-16.43 5.63-8.19.98-16.51.83-24.78 1.17-3.01.12-5.37.83-6.1 4.42-.47 2.35-1.87 4.5-2.68 6.8-3.87 10.89 3.27 17.89 9.03 25.37 6.89 8.94 13.91 17.79 20.59 26.88 2.78 3.78 3.14 8.57.68 12.46-3.65 5.77-7.95 11.17-12.43 16.35-1.23 1.42-4.05 1.46-5.95 2.07-2.04-7.37-4.19-14.02-5.66-20.8-1.06-4.89-4.4-5.16-7.86-4.39-4.56 1.01-8.99 2.71-13.4 4.33-11.74 4.31-23.22 9.48-35.2 12.88-11.43 3.25-21.74 8.88-32.71 13.02-3.51 1.33-6.25.37-8.37-2.18-5.18-6.23-10.25-12.56-15.07-19.08-1.1-1.48-1.99-4.62-1.21-5.66 1.51-2 4.26-4.2 6.55-4.26 8.08-.22 16.19.26 24.26.8 6.79.46 11.51-2.24 14.5-8.35 1.71-3.5 4.15-6.62 6-10.06 2.2-4.08 4.03-8.37 6.21-12.47 1.04-1.96 2.7-3.59 3.79-5.53 3.81-6.81 7.74-13.58 11.12-20.6 1.9-3.96.38-6.25-3.81-5.9-7.48.62-14.91 1.84-22.35 2.88-4.35.61-8.67 1.43-13.03 2-7.78 1.01-15.66 1.47-23.36 2.93-10.65 2.01-20.47-2.77-23.54-11.77-.94-2.75-.15-4.06 2.01-4.99 1.47-.63 3.13-1.05 4.72-1.11 18.52-.73 37.05-1.44 55.58-2.01 7.17-.22 9.8-2.59 9.82-9.83.05-18.33.27-36.66-.07-54.98-.26-14.03-1.26-28.05-1.92-42.08-.28-6-5-8.68-8.78-12.21-1.85-1.72-4.19-4.7-3.78-6.57.39-1.81 3.85-3.4 6.25-4.2 2.1-.7 4.62-.16 6.95-.17 1.5-.01 3.5.62 4.42-.11 7.66-6.07 14.23 2.2 21.52 1.6 2.14-.18 4.95 2.49 6.75 4.49 3.45 3.86 7.48 4.82 12.32 4.02 2.89-.48 5.88-1.16 8.75-.92 9.26.8 15.62-2.76 19.72-11.2 2.79-5.73 8.02-6.24 12.6-1.63 2.43 2.44 4.84 5 6.76 7.84 2.08 3.09.74 5.99-2.59 6.76-11.4 2.61-22.87 4.99-34.38 7.07-7.55 1.36-15.25 1.83-22.81 3.15-4.81.84-7.31 3.92-6.76 9.21.35 3.3.06 6.66.06 9.99 0 10.89 3.77 13.64 14.48 11.62 5.5-1.04 11.29-.48 16.86-1.26 2.33-.33 4.8-1.89 6.55-3.58 2.82-2.71 4.95-6.12 7.64-8.98 2.73-2.91 6.8-2.96 8.95.12 2.5 3.57 4.77 7.41 6.44 11.43 2.28 5.48.41 8.66-5.31 9.29-8.34.92-16.72 1.41-25.08 2.1-8.02.66-16.06 1.19-24.05 2.08-4.87.54-7.7 6.73-6.35 13.09 1.86 8.76 4.29 10.47 16.11 10.78 6.01.16 12.16.7 17.98-.36 3.49-.63 6.74-3.72 9.62-6.26 3.2-2.82 5.82-6.29 8.77-9.4 1.78-1.88 3.74-2.05 5.15.34 2.81 4.74 5.8 9.43 7.99 14.46 1.28 2.95-.74 5.13-4.07 5.22-4.66.13-9.38-.39-13.99.12-13.16 1.45-26.31 3.06-39.4 5.06-5.6.86-6.98 4.17-5.93 9.72.88 4.66 1.02 9.45 1.69 14.16.28 1.98.89 5.45 1.65 5.53 2.41.27 5.1-.41 7.43-1.33 2.79-1.1 5.22-3.18 8.04-4.14 1.47-.5 3.84-.07 5.11.87 7.25 5.38 19.25 3.55 24.95-3.32 6.73-8.11 7.83-8.89 15.64-.25 1.42 1.58 2.78 3.27 3.87 5.08 1.27 2.1 2.18 4.38 3.33 6.75zm-57.44 35.6c-10.49 4.11-14.89 13.01-18.34 22.12-2.23 5.87 2.4 9.59 8.45 7.83 2.63-.76 5.38-1.08 8.03-1.79 3.99-1.06 9.45-1.22 9.38-6.74-.11-7.75-2.24-15.19-7.52-21.42z" fill="#010000"/><g fill="#fbfafc"><path d="m6.44 374.46.42-.45c.65.47 1.27.95 1.85 1.44l-.45.49c-.65-.56-1.25-1.06-1.82-1.48m.93 7.33-.63-.26c.55-1.36 1.05-2.8 1.52-4.33.19.1.38.19.59.27-.46 1.29-.95 2.73-1.48 4.32m-.38-10.38.44-.42c.43.34 1.01.82 1.74 1.44l-.49.49c-.53-.51-1.09-1.01-1.69-1.51m2.5.35h1.72v-1.04h.59v1.04h3.52v-1.04h.59v1.04h1.75v.53h-1.75v1.42h-2.03v.97h3.22v2.03h-3.24c0 .35-.01.66-.03.93h3.32v.53h-3.37c-.03.27-.08.58-.15.94h3.96v.53h-3.71c.67.92 1.93 1.48 3.79 1.68-.13.24-.23.44-.29.59-2.13-.38-3.48-1.08-4.04-2.12-.43.97-1.77 1.72-4.03 2.23-.09-.19-.2-.37-.33-.55 2.1-.42 3.37-1.03 3.81-1.83h-3.36v-.53h3.58c.08-.29.13-.61.16-.94h-3.33v-.53h3.39c.02-.27.04-.58.04-.93h-3.23v-2.03h3.25v-.97h-2.07v-1.42h-1.73zm1.12 3.44v1h2.65c.01-.3.02-.44.01-.4v-.25-.35zm1.19-2h3.52v-.91h-3.52zm4.71 2h-2.63v.59c0 .15-.01.28-.01.4h2.64z"/><path d="m13.56 383.74h.63v1.52h2.72v6.07h1.13v.6h-11.06v-.6h1.13v-6.07h2.73v-1.52h.63v1.52h2.1v-1.52zm-2.69 8.83.38.56c-1.24.63-2.53 1.25-3.85 1.85-.1-.21-.21-.42-.34-.63 1.36-.55 2.63-1.15 3.81-1.78m-2.13-4.27h2.1v-2.45h-2.1zm0 3.04h2.1v-2.46h-2.1zm2.72-3.04h2.1v-2.45h-2.1zm0 3.04h2.1v-2.46h-2.1zm6.07 3.6c-1.41-.71-2.7-1.3-3.86-1.78l.35-.56c1.45.62 2.75 1.19 3.88 1.72zm-1.25-9.09h-2.1v2.45h2.1zm-2.09 5.49h2.1v-2.45h-2.1z"/></g></svg>