<svg enable-background="new 0 0 400 400" viewBox="0 0 400 400" xmlns="http://www.w3.org/2000/svg"><path d="m362.1 8.8c1.1.8 2.1 1.6 3.1 2.4l-1 1.1c-1.3-1.1-2.3-2-3-2.5zm1.9 4.8c.5.2.9.4 1.4.5-.6 2.3-1.3 4.5-1.9 6.8l-1.5-.5c.8-2.1 1.4-4.3 2-6.8zm-1-9.4c1.3.9 2.4 1.8 3.4 2.5l-1 1.1c-1.4-1.2-2.4-2.1-3.2-2.6zm3.7 2.2v-1.4h10.3v1.2c-.5 3.6-1.8 6.8-4 9.4 1.5 1.6 3.4 2.8 5.7 3.8-.3.4-.7.8-1.1 1.4-2.3-1.1-4.1-2.5-5.6-4.1-1.6 1.6-3.6 3.1-5.9 4.3-.3-.5-.7-.9-1-1.3 2.4-1.1 4.4-2.5 6-4.1-1.9-2.5-3-5.6-3.3-9.3h-1.1zm8.8 0h-6.4c.3 3.3 1.3 6 3 8.2 2-2.2 3.1-5.1 3.4-8.2z" fill="#fbfcfa"/><path d="m385.3 3.8h1.3v2.2h2.8v-2.2h1.3v2.2h4.1v9.1h1.7v1.3h-16.9v-1.3h1.7v-9.1h4.1v-2.2zm.4 13.1.7 1.2c-1.8.9-3.8 1.9-6 2.9-.2-.4-.5-.8-.8-1.3 2.3-1 4.3-1.9 6.1-2.8zm-3.1-6.4h2.8v-3.2h-2.8zm0 4.6h2.8v-3.3h-2.8zm4-4.6h2.8v-3.2h-2.8zm0 4.6h2.8v-3.3h-2.8zm3.7 1.9c2.1.9 4.1 1.8 6.1 2.7l-.7 1.3c-2.2-1.1-4.2-2-6.1-2.9zm3.2-9.7h-2.8v3.2h2.8zm-2.8 7.8h2.8v-3.3h-2.8z" fill="#fbfcfa"/><path d="m113.58 258.21c-11.64.99-23.29 1.79-34.9 3.04-5.69.61-10.54-1.5-12.41-6.75-1.67-4.69-4.34-9.71 1.45-13.62 1.27-.86 2.93-1.92 4.28-1.76 6.79.79 13.54 1.98 20.31 2.95 1.32.19 2.7.04 4.05-.05 4.42-.3 8.83-.74 13.25-.94 7.64-.35 15.28-.72 22.92-.76 4.05-.02 8.1.6 12.15.98 1.78.17 3.55.66 5.32.68 6.16.09 12.33.15 18.5-.01 3.97-.1 7.63-.98 10.49-4.32 2.91-3.41 6.27-6.45 9.49-9.58 3.23-3.14 7.4-2.96 10.29.34.5.57.96 1.47 1.58 1.61 6.05 1.38 8.77 6.3 12.05 10.8 3.57 4.9 2.24 11.54-3.67 12.69-6.37 1.24-13.11 1.42-19.6.93-5.39-.41-7.01-.24-8.31 5.09-3.4 13.94-8.02 27.66-7.83 42.27.11 8.01.88 8.85 8.49 11.52 3.53 1.24 6.67 3.59 10.21 4.76 1.63.54 3.78-.62 5.71-.88 1.44-.19 3.2-.72 4.3-.13 6.16 3.27 12.77 4.05 19.53 3.92 9.43-.19 18.86-.63 28.29-.96.67-.02 1.49-.24 1.97.06 4.8 2.96 9.78 1.65 14.84.98 11.37-1.51 22.79-2.6 34.16-4.14 7.86-1.06 15.84-1.97 23.42-4.13 5.83-1.66 11.23-5.01 16.6-7.99 1.27-.7 1.7-2.94 2.51-4.47 1.04-1.98 1.81-4.18 3.17-5.91 2.02-2.57 5.62-5.09 3.01-8.38-1.95-2.45-5.63-4.37-8.78-4.83-5.39-.78-10.97-.22-16.47-.22-12 0-24 .17-35.99-.08-4.87-.1-9.77-1.82-14.59-1.57-7.95.42-15.88 1.68-23.74 3.02-1.1.19-1.96 2.77-2.64 4.37-3.39 8.07-6.47 16.29-10.11 24.25-1.6 3.49-8.9 5.32-11.73 3.61-2.25-1.36-4.33-9.3-3.42-12.11.65-1.99 1.18-4.11 1.19-6.18.09-16.5-.1-33 .14-49.49.07-5.2 1.38-10.38 1.76-15.59.32-4.34.15-8.72.16-13.08.01-6.17.12-12.34-.04-18.5-.2-7.6-1.05-15.21-.84-22.8.17-6.52 1.74-13 2.11-19.53.31-5.51.07-11.09-.51-16.58-.29-2.7-2.58-3.99-5.06-1.87-3.35 2.88-6.39 6.13-9.69 9.07-1.32 1.17-3.11 2.86-4.52 2.71-6.11-.65-10.63 3.5-10.03 11.21 4.18-1.28 8.17-2.3 12-3.74 3.35-1.26 5.64-.98 6.62 2.86.93 3.61 2.3 7.15 2.75 10.81.45 3.65-2.76 3.84-5.38 4.22-4.85.69-9.73 1.2-14.53 2.15-2.57.51-4.29 2.07-3.96 5.3.33 3.3-.15 6.68.18 9.98.15 1.48 1.28 3.91 2.21 4.02 1.5.19 3.98-.73 4.67-1.96 2.19-3.91 4.61-5.98 9.07-3.49 5.25 2.94 7.11 7.38 5.62 11.86-3.13 9.35-10.29 12.46-19.22 13.13-4.6.35-9.21.55-13.79 1.08-1.38.16-2.66 1.22-4 1.87-1.65-.84-3.71-2.82-5.67-2.72-11.76.59-22.66-5.17-35.06-2.73-11.71 2.31-24.24.24-36.4.57-10.89.3-21.77 1.11-32.64 1.96-9.13.71-14.02-2.46-16.39-10.95-1.16-4.14-.37-7.45 2.05-9.21 5.83.8 10.59 1.7 15.4 2.07 7.08.55 14.19.87 21.3 1.01 5.86.12 8.66-2.88 8.75-8.82.18-12.64-2.29-15.12-15.13-15.14-4.83-.01-9.67.01-14.5-.01-1.16 0-2.58.34-3.44-.18-2.3-1.4-6.61-1.22-5.79-5.46.69-3.53 3.37-5.37 7.11-5.36 8.46.01 16.91.1 25.37-.03 5.46-.08 8.71-3.2 8.26-8.69-.45-5.48-1.62-10.94-2.97-16.28-.94-3.7-1.52-6.7 2.87-8.49.73-.3.96-1.81 1.82-3.59-6.74.4-12.61.74-18.47 1.1-5.32.33-8.07-2.91-9.75-7.29-1.25-3.27 2.37-7.1 7.57-7.65 8.34-.88 16.7-1.51 25.07-2.03 7.92-.49 15.88-.49 23.79-1.09 9.95-.76 16.57-14.85 10.42-22.77-1.4-1.8-5.74-2.3-8.51-1.9-13.63 1.96-27.24 2.68-40.89.68-4.21-.62-6.03-3.58-5.81-7.71.23-4.27 2.99-5.53 6.75-5.21 6.87.58 13.72 1.72 20.6 1.82 8.26.12 16.54-.38 24.78-1.07 3.48-.29 5.78-6.53 4.79-12.2-1.18-6.73-2.41-13.46-4.01-20.09-.75-3.08-2.2-6.07-3.72-8.88-2.74-5.05-1.52-7.42 4.01-7.63 8.02-.31 15.55 1.31 22.93 4.5 3.37 1.46 7.26 1.73 10.91 2.53.93.21 2.12.11 2.76.66 2.4 2.06 2.98 13.68 1.37 16.71-3.09 5.84-5.95 11.8-8.69 17.81-.62 1.37-.36 3.14-.48 4.48 6.14.46 11.83 1.54 17.38 1.06 3.42-.29 7.18-2.34 9.81-4.7 3.56-3.2 7.1-4.51 11.36-2.68 3.73 1.6 7.21 8.85 6.35 12.59-1.12 4.88-4.9 7.02-9.32 7.95-2.22.46-4.63-.1-6.95-.04-3.84.11-8.04-.56-11.41.8-3.58 1.44-6.65 1.59-10.24 1.02-1.67-.27-3.95.29-5.26 1.34-3.2 2.56-2.35 15.97 2.78 17.68 7.79 2.6 15.81 5.21 23.03-1.67.45-.43 1.08-.84 1.67-.93 2.5-.35 8.24 7.01 8.99 11.45.68 4.05-2.27 4.68-5.14 5.49-3.53 1-6.75 1.87-10.64.26-2.38-.99-5.86.03-8.66.82-7.73 2.18-15.89 0-23.76 3.41-3.73 1.62-9.38-1.59-14.21-2.04-12.15-1.12-24.19-.8-35.7 3.67-.21.61-.42 1.21-.63 1.82 4.06 2.02 7.92 4.97 12.21 5.84 7.19 1.47 9.42 4.4 7.41 11.59-1.35 4.83-2.08 9.83-3.38 16.21 6.7-1.58 12.67-2.98 19.06-4.49 1.12 1.78 2.67 3.56 3.42 5.64.75 2.07 1.65 4.98.76 6.51-1.06 1.82-3.85 3.06-6.12 3.63-3.13.8-6.55.4-9.72 1.11-9.31 2.09-13.29 9.83-9.81 18.64.65 1.66 1.45 3.25 2.34 5.22 4.9.99 8.28-2.55 11.98-5.03 5.56-3.73 7.48-3.6 11.35.69 3.16 3.51 6.94 5.39 11.64 5.48 6.94.14 10.14-2.16 11.21-8.99.58-3.74.71-7.77-.08-11.43-.39-1.83-3.19-3.26-5.08-4.62-3.1-2.24-6.27-4.22-5.69-8.89.42-3.39 2.06-4.69 5.41-4.33 5.08.54 8.59-2.38 8.56-7.55-.04-5.95-.81-11.91-.8-17.86 0-2.13 1.25-6.01 2.09-6.05 2.75-.15 5.77.69 8.31 1.93 3.04 1.49 5.45 4.34 8.54 5.61 4.45 1.82 12.23-1.38 14.75-6.7 5.65-11.89 13.75-22.28 19.1-34.53 4.06-9.31 6.88-19.28 12.25-28.37 4.66-7.89 6.43-18.45 4.27-28.59-.57-2.69.23-5.68.4-8.53 2.77.83 6.08.96 8.22 2.61 7.01 5.43 13.77 11.22 20.28 17.25 4.19 3.87 3.75 9.16-.85 14.98-5.9 7.46-12.24 14.58-17.97 22.16-4.53 5.98-8.31 12.49-6.19 20.57 1.29 4.94 4.47 7.68 9.68 7.08 7.09-.82 14.09-2.5 21.11-3.87.58-.11 1.27-.63 1.54-1.15 3.5-6.75 7.19-13.41 10.3-20.33 2.73-6.06 5.13-12.32 7.01-18.69 1.05-3.53.91-7.47 1-11.22.17-6.67 4.24-9.39 10.75-8.77 8.4.8 13.32 6.54 18.77 11.55.95.88.82 4.49-.19 5.71-9.51 11.55-19.37 22.82-28.96 34.3-1.26 1.51-1.98 3.77-2.14 5.75-.07.87 1.93 2.78 2.92 2.74 7.69-.34 15.38-1.65 23.04-1.48 7.68.17 12.03-4.56 16.79-9.09 1.76-1.68 3.17-3.88 5.18-5.12 2.62-1.62 4.94-1.93 7.42 1.53 2.44 3.4 6.28 6.05 9.98 8.22 4.14 2.43 5.27 5.48 4.18 9.84-1.09 4.37-4.69 5.07-8.24 5.27-14.53.8-29.06 1.44-43.6 2.04-5.94.24-6.37 1.02-7.01 6.96-.48 4.45-2.25 8.76-3.4 13.14-.86 3.28-2.6 6.72-2.15 9.83.36 2.51 3.12 6.18 5.32 6.58 3.97.72 8.72.31 12.39-1.32 4.42-1.98 8.25-5.5 11.96-8.77 3.46-3.05 8.49-3.34 11.89-.04 2.69 2.61 6.28 4.74 7.9 7.89 3.65 7.09-2.44 15.24-11.33 15.73-8.43.47-16.87.62-25.3 1.07-2.93.16-5.89.55-8.73 1.26-5.26 1.32-4.93 6.22-5.27 9.99-.55 6.12-.4 12.33-.08 18.48.34 6.72 7.9 10.61 15.85 7.58 5.08-1.93 9.71-5.18 14.32-8.18 8.97-5.85 21.47-.14 22.66 10.51.52 4.69-6.86 12.24-12.19 12.29-8 .08-16-.11-24 .09-2.9.07-5.81.78-8.66 1.41-7.47 1.65-7.6 7.82-8 13.61-.27 3.98-.15 8-.03 11.99.18 5.7 4.34 8.25 10.07 7.52 3.46-.44 7.35.3 10.67 1.53 2.73 1 4 .32 6.05-1.27 3.78-2.94 8-5.33 12.1-7.86.58-.36 1.78-.57 2.18-.24 6.41 5.25 13.25 10.11 18.92 16.08 4.64 4.88 4.54 12.2 3.63 18.29-1.42 9.51.28 17.68 5.45 25.57 2.67 4.08 6 7.85 5.37 13.57-.83 7.47-8.82 12.82-18 13.75-15.34 1.56-30.66 3.37-46 4.9-6.07.6-12.21.56-18.29 1.11-9.81.89-19.57 2.55-29.39 2.92-11.49.43-23.01-.18-34.52-.3-2.04-.02-4.11.47-6.13.28-15.31-1.45-31.12 1.13-45.84-5.05-6.1-2.56-13.09-4.48-16.05-11.31-1.91-4.4-3.8-9.17-4.04-13.86-.57-11.33-.18-22.72-.18-34.08 0-7 .05-14-.01-21-.06-6.55-4.24-9.83-10.88-8.74-3.38.55-6.78.98-9.09 1.31.79 6.15 1.86 10.96 1.83 15.76-.01 2.08-2.06 4.31-3.55 6.18-10.77 13.5-21.47 27.07-32.54 40.32-6.88 8.23-14.62 15.75-21.56 23.94-9.78 11.54-22.83 18.98-34.37 28.32-3.43 2.77-7.27 3.8-11.52 3.21-1.45-.2-3.74-.87-3.98-1.77-.33-1.26.47-3.43 1.53-4.34 9.02-7.74 18.27-15.2 27.3-22.92 2.46-2.11 4.61-4.67 6.55-7.29 6.99-9.45 14.37-18.68 20.57-28.63 6.52-10.47 15.5-19.49 19.16-31.73.62-2.09 2.57-3.74 3.67-5.73 2.29-4.16 4.42-8.41 6.61-12.63-.39-.56-.77-1.13-1.14-1.69zm163.42-56.79c.14-.01.27-.03.41-.04-.48-4.89-.76-9.81-1.47-14.67-.98-6.73-2.8-8.25-9.32-8.74-1.1-.08-2.2-.48-3.24-.88-5.87-2.24-10.45 2.07-15.66 3.17-.76.16-1.27 2.13-1.68 3.33-2.7 7.97-.76 16.15-.89 24.23-.03 1.98.97 4.09 1.9 5.94.48.96 1.85 2.11 2.8 2.09 5.07-.09 10.14-.58 15.21-.83 11.94-.6 11.94-.58 11.94-12.59 0-.34 0-.68 0-1.01zm-13.66-74.42c-12.47 0-14.69 1.82-17.49 14.33-.11.47-.57.86-.67 1.33-1.57 6.94 2.87 17.31 8.9 18.68 4.93 1.12 10.26.3 15.38.74 4.52.39 6.23-1.61 6.62-5.83.44-4.69 1.66-9.34 1.83-14.03.45-12.15 2.43-15.03-14.57-15.22zm10.66 120.8c0-3 .11-6-.02-8.99-.33-7.28-.93-7.81-8.05-7.81-3.33 0-6.66-.06-9.99.02-5.08.12-9.03 2.19-9.84 7.52-.77 5.01-.86 10.14-1.08 15.23-.42 9.76 3.56 10.04 10.14 11.08 3.45.54 7.2-.18 10.73-.82 6.98-1.28 8.11-2.81 8.11-9.72 0-2.18 0-4.35 0-6.51z" fill="#010102"/></svg>