<svg enable-background="new 0 0 400 400" viewBox="0 0 400 400" xmlns="http://www.w3.org/2000/svg"><path d="m6.8 9.5c.6.3 1.3.7 2.1 1.1-.4.4-.7.8-.9 1.2-.7-.4-1.3-.8-1.8-1.1s-1.1-.6-1.6-.8c.2-.4.5-.8.7-1.2.4.2.8.5 1.5.8zm.9 6.9c-.3.6-.5 1.1-.7 1.7s-.4 1.1-.6 1.7c-.6-.4-1.1-.7-1.6-1 .7-1 1.2-1.8 1.5-2.4.3-.5.6-1.1.8-1.7.3-.6.5-1.2.8-1.8.3.3.8.6 1.3.8-.7 1.3-1.2 2.2-1.5 2.7zm.1-11c.4.3 1 .7 1.7 1.1-.5.2-.8.6-1.1 1.1-.5-.6-1-1-1.4-1.2s-.9-.6-1.5-.8c.2-.4.5-.7.9-1.1.5.3.9.6 1.4.9zm10.5 13.1c1 .4 2 .6 3.1.7-.4.4-.7.8-.8 1.3-.9-.2-1.9-.6-3-.9-1-.4-2-.9-2.8-1.6-.5.4-1.1.9-1.9 1.3s-1.9.9-3.3 1.2c-.1-.3-.5-.8-1.1-1.3 1 0 2.1-.3 3.2-.8 1.2-.5 1.9-1 2.3-1.7h-3.2c-.4 0-1 0-2 .1v-1.2c1 0 1.7.1 2 .1h3.3v-1h-2.3c-.2 0-.9 0-2 .1v-1.2c1.2 0 1.9.1 2 .1h2.3v-.8h-4.1c0-.7.1-1.2.1-1.6 0-.5 0-1.1-.1-1.8h4.1v-.7h-2.5c1-.6.1-1.1.1-1.6v-.6h-.5c-.4 0-1 0-1.8.1v-1.3c1.2 0 1.9.1 2.1.1h.2c0-.3 0-.8-.1-1.4h1.4c0 .6-.1 1-.1 1.4h3.4c0-.4 0-.8-.1-1.3h1.5c0 .4-.1.9-.1 1.3.7 0 1.5 0 2.5-.1v1.2c-1 0-1.8-.1-2.5-.1v.6c0 .3 0 .8.1 1.5h-2.5v.8h4.1c0 .7-.1 1.3-.1 1.8s0 1 .1 1.5h-4.1v.8h1.4c.8 0 1.8 0 2.9-.1v1.2c-1 0-1.9-.1-2.8-.1h-1.5v1h3.2c.3 0 1 0 2.1-.1v1.2c-1.1 0-1.8-.1-2.1-.1h-3.4l-.1.1c1.4 1 2.4 1.5 3.4 1.9zm-4.1-6.7v-1.3h-2.7v1.3zm2.2-4.1v-1.1h-3.4v1.1zm1.9 4.1v-1.3h-2.8v1.3z" fill="#fcfafa"/><path d="m37 6.7v2.3 5.4c1 0 1.8 0 2.2-.1v1.3c-.6 0-1.5-.1-2.5-.1h-11.9c-.7 0-1.3 0-1.8.1v-1.3c.5 0 1.1.1 2 .1v-5.2c0-1 0-1.8-.1-2.5h3.7c0-1.3 0-2.1-.1-2.5h1.5c0 .4-.1 1.3-.1 2.5h2.2c0-1.2 0-2.1-.1-2.6h1.5c0 .4-.1 1.3-.1 2.6zm-12.3 13.7c-.3-.4-.7-.8-1.1-1.1 1.1-.4 2.1-.9 2.9-1.3.8-.5 1.5-1 2.1-1.6.4.4.9.8 1.3 1.1-2.5 1.4-4.2 2.4-5.2 2.9zm3.9-10.1v-2.4h-2.2v2.4zm0 4.1v-2.9h-2.2v2.9zm3.5-4.1v-2.4h-2.2v2.4zm0 4.1v-2.9h-2.2v2.9zm.4 2.9 1-1.1c.6.3 1.4.7 2.5 1.3s2 1.1 2.7 1.5c-.4.4-.8.8-1.1 1.3-.8-.8-2.5-1.7-5.1-3zm3.1-7v-2.4h-2.1v2.4zm0 4.1v-2.9h-2.1v2.9z" fill="#fcfafa"/><g fill="#010100"><path d="m181 329.03c0-4.93.1-10.08-.03-15.23-.11-4.5-5.53-8.45-9.93-7.94-8.52.99-17.11 1.39-25.62 2.48-14.88 1.91-29.69 4.34-44.58 6.16-4.31.53-8.9.26-13.15-.64-5.19-1.09-7.77-7.47-5.43-12.17.41-.81 1.74-1.49 2.73-1.63 5.51-.79 11.04-1.67 16.59-2 9.25-.56 18.55-.44 27.79-1.15 7.98-.61 15.89-2.06 23.85-3 6.35-.75 12.77-1.03 19.06-2.08 1.73-.29 4.22-2.45 4.42-4 .32-2.55 2.1-6.25-1.92-7.82-2.4-.94-5.06-2.09-7.5-1.87-8.3.73-16.56 1.99-24.82 3.13-3.23.45-6.51 1.87-9.62 1.53-9.26-1.01-17.46 2.7-25.73 5.46-7.63 2.55-15 .99-22.4.4-1.73-.14-3.48-4.08-4.58-6.56-.67-1.53-.12-3.59-.12-5.68 8.77-4.49 18.19-5.51 27.67-5.28 5.29.13 6.84-1.94 6.31-6.64-1.09-9.84-2.21-19.68-3.31-29.52-.6-.19-1.2-.39-1.81-.58-2.77 1.86-5.97 3.3-8.24 5.65-6.25 6.46-11.9 13.51-18.2 19.91-4.54 4.61-9.57 8.78-14.71 12.72-6.73 5.16-13.8 9.88-20.69 14.82-2.36 1.69-5.34 1.81-6.21-.62-.6-1.68.95-5.15 2.61-6.44 6.05-4.69 12.95-8.33 18.75-13.28 4.86-4.15 8.64-9.56 12.9-14.41.87-.99 1.67-2.09 2.67-2.94 8.6-7.3 14.1-16.9 19.44-26.55 1.01-1.83 1.41-6.06.72-6.41-2.43-1.21-5.6-1.95-8.26-1.51-6.85 1.13-13.53 3.41-20.39 4.38-3.2.45-6.71-.79-8.29-4.66-1.49-3.65-1.64-7.01 1.12-10.07.46-.51 1.35-.96 2.01-.93 9.55.48 19.23-2.98 28.72 1.57 2.11 1.01 5.55-.65 8.34-1.23 1.09-.23 2.05-1.04 3.14-1.33 8.9-2.42 11.23-6.6 9.59-15.55-.88-4.83-.96-9.88-.75-14.81.17-4.04 3.83-5.04 7.54-2.95 2.21 1.24 4.92 1.57 7.41 2.31 3.07.91 4.31 2.88 4.29 6.14-.03 4.57.15 9.17.68 13.7.7 5.99 5.05 8.04 10.6 5.16 2.17-1.12 3.98-3.02 6.21-3.91 1.82-.73 4.45-1.24 5.94-.42 1.08.6.99 3.51 1.23 5.41.77 6.06-2.5 8.72-8.07 9.4-.81.1-1.6.29-2.4.48-11.07 2.59-12.56 4.45-12.56 15.63 0 7.67-.14 15.33.05 23 .14 5.79-1.27 10.93-4.74 15.62-1.62 2.19-2.73 4.75-4.65 8.19 4.44-.57 7.78-1.2 11.15-1.4 7.92-.46 15.9-.34 23.77-1.19 4.72-.51 9.47-2.01 13.85-3.9 1.7-.73 3.22-3.67 3.42-5.73.49-5.12.4-10.33.03-15.47-.13-1.79-1.43-4.4-2.85-4.95-1.69-.66-4.56-.16-6.1.96-5.68 4.17-10.83 9.06-16.55 13.15-2.7 1.93-6.26 2.64-9.43 3.91-.44-.51-.88-1.01-1.32-1.52.81-1.95 1.29-4.14 2.49-5.81 2.32-3.24 2.06-6.11.45-9.62-2.21-4.82-3.98-9.9-5.35-15.02-.45-1.67.35-4.53 1.62-5.54 1.04-.83 3.97-.25 5.44.68 2.26 1.43 4.24 3.51 5.91 5.65 3.25 4.14 5.77 4.63 9.12.38 3.3-4.18 5.82-8.99 8.69-13.52 2.41-3.8-.45-6.26-2.08-9.23-1.32-2.41-3.14-5.98-2.23-7.77.97-1.93 4.84-3.26 7.48-3.31 4.22-.09 5.63-1.87 4.76-5.45-1.33-5.49-2.65-11.07-4.88-16.22-2.58-5.96 1.56-7.37 5.15-9.58 3.79-2.33 6.29-1.38 8.05 2.59.45 1 1.46 1.82 2.36 2.55 4.07 3.26 5.14 6.22 2.49 11.74-2.71 5.66.07 12.47 8.41 12.9 5.65.29 11.84.21 16.95-3.63 2.53-1.9 5.44-3.81 8.24-.59 2.61 3.01 1.85 9.77-1.69 11.33-5.12 2.25-10.6 3.88-16.07 5.08-6.95 1.52-11.7 4.96-12.08 10.79-.23 3.6 1.11 7.27 1.38 10.93.4 5.43.71 10.89.64 16.34-.12 8.39-1.74 16.89 8.54 21.58 2.19 1 3.46 6.31 3.4 9.6-.29 16.37-1.07 32.74-1.86 49.09-.49 10.02-1.16 20.05-2.05 30.04-.38 4.26-3.63 6.23-7.44 7.56-3 1.05-5.95 2.33-8.72 3.87-3.02 1.67-5.36 1.7-6.73-1.81-1.12-2.86-2.19-5.78-2.9-8.76-1.97-8.32-4.03-9.49-12.33-8.1-15.12 2.52-30.32 4.59-45.46 6.99-8.05 1.28-16.04 2.99-24.09 4.27-3.4.54-6.96.93-10.34.54-3.16-.37-5.76-2.27-5.89-6.06-.04-1.17-.01-2.33-.01-3.5.01-6.55.74-7.14 7.53-7.33 6.09-.17 12.19-.47 18.25-1.05 2.02-.19 3.89-1.61 5.91-2.17 3.73-1.03 7.49-2.41 11.3-2.65 19.11-1.2 38.25-2.07 58-3.08z"/><path d="m259.22 158.71c4.56 4.55 9.21 8.56 13.07 13.22 3.71 4.48 1.5 9.04-1.69 12.93-3.95 4.84-8.39 9.31-12.08 14.33-1.45 1.98-2.28 5.19-1.79 7.5.25 1.16 4.15 2.37 6.27 2.18 12.07-1.06 24.27-1.77 36.1-4.17 6.8-1.38 13.22-5.33 19.38-8.87 4.82-2.77 11.77-1.97 15.32 2.49 2.26 2.84 5.31 5.06 7.61 7.88 1.81 2.22 3.23 4.84 4.31 7.49.28.69-1.13 2.74-2.17 3.16-1.91.78-4.11.88-6.2 1.13-8.78 1.05-17.6 1.87-26.34 3.16-3.66.54-6.52 1.89-3.64 6.89 3.56 6.19 1.26 12.85-.47 19.08-3.8 13.66-12.74 24.49-20.48 35.98-1.73 2.57-3.65 5.12-4.71 7.97-.53 1.42.08 4.18 1.2 5.17 9.09 8.04 20.49 11.91 31.35 16.72 5.48 2.43 10.95 4.94 16.6 6.9 3.49 1.21 7.34 1.34 10.97 2.19 2 .47 4.19 1.01 5.77 2.21 2.79 2.13 2.69 4.75-.39 6.67-9.83 6.11-19.77 12.03-29.57 18.18-3.84 2.41-6.91 1.25-10.16-1.1-13.09-9.5-26.18-18.98-39.37-28.33-7.39-5.24-8.41-4.76-15.24.83-10.13 8.28-20.66 16.07-30.96 24.15-3.74 2.93-7.79 4.07-13.46 2.84.92-1.81 1.34-3.76 2.55-4.84 6.82-6.13 14.03-11.84 20.67-18.15 2.22-2.11 2.86-5.8 4.78-8.35 4.14-5.5 8.76-10.63 12.88-16.14.95-1.27 1.55-3.9.88-5.14-7.91-14.68-11.46-30.64-14.21-46.85-.03-.16.02-.35-.03-.5-3.43-10.22-4-10.66-12.35-3.7-2.26 1.88-4.84 3.37-6.71 4.66-2.26-4.71-4.37-8.27-5.72-12.1-2.95-8.4-5.58-16.91-8.17-25.43-.33-1.07.36-2.45.73-4.55 5.23 5.92 9.62 11.14 14.3 16.11 4.05 4.3 6.54 3.52 9.08-1.73 4.49-9.27 9.66-18.22 13.91-27.59 1.56-3.42 1.22-7.68 1.94-11.51 1.25-6.71 2.76-13.36 3.93-20.08.58-3.3-.8-5.6-4.3-6.63-2.11-.63-4.79-1.4-5.85-3-1.28-1.93-1.47-4.83-1.36-7.28.03-.63 2.95-1.55 4.57-1.61 11.26-.46 22.53-.58 33.78-1.13 5.37-.26 10.7-1.27 16.07-1.83 4.41-.46 6.88-3.13 8.59-6.92.73-1.62 1.44-3.62 2.78-4.52 1.86-1.25 5.62-2.88 6.29-2.17 4.83 5.04 11.62 8.48 13.67 15.95 1.35 4.91-.3 7.78-5.31 8.57-15.41 2.43-30.88 2.47-46.38 1.01-1.48-.14-3.04-.19-4.48.1-3.8.77-5.46 3.46-5.76 6.57zm11.1 65.01c-9.25.83-17.25 1.82-25.28 2.2-7.62.37-8.91 1.55-5.98 8.45 5.2 12.26 10.71 24.4 16.42 36.43.86 1.82 4.01 4.28 5.2 3.86 2.74-.97 5.65-3.06 7.19-5.52 2.96-4.71 5.51-9.82 7.34-15.07 2.11-6.08 2.93-12.6 4.94-18.73 1.38-4.21 1.01-7.79-2.56-10-2.3-1.42-5.56-1.28-7.27-1.62z"/><path d="m95.1 83.25c3.84 3.22 7.19 5.26 9.51 8.13 5.43 6.75 12.7 4.51 19.39 4.43 5.88-.08 11.72-1.44 17.61-1.75 15.69-.83 31.4-1.24 47.08-2.18 3.29-.2 6.99-1.3 9.57-3.23 1.98-1.49 3.11-4.83 3.55-7.52 1.2-7.25-3.58-12.07-10.79-11.08-4.96.68-9.82 2.24-14.79 2.72-5.14.5-10.39-.12-15.55.3-9.31.75-18.59 1.84-27.86 2.92-4.21.49-8.34-2.53-10.88-8.44-.7-1.63-1.33-3.32-1.69-5.04-.76-3.67 2.21-6.44 6.02-5.36 6.42 1.81 12.76 2.67 19.4 1 1.9-.48 4.17.83 6.26.79 7.63-.15 15.26-.52 22.89-.81 1.5-.06 2.99-.08 4.49-.13 21.03-.67 42.07-1.13 63.09-2.13 6.47-.31 13.22-1.16 19.19-3.47 4.54-1.76 8.16-6.07 11.97-9.49 5.04-4.54 9.78-5.64 15.65-2.15 5.02 2.98 9.68 6.64 14.26 10.3 3.13 2.51 2.75 6.69 1.1 9.21-1.51 2.32-5.17 4.38-7.98 4.52-10.64.52-21.35-.3-31.97.38-7.91.5-15.84 2.1-23.56 4.02-6.36 1.58-8.82 7.24-7.16 12.88.96 3.26 2.84 4.21 5.83 3.93 10.47-.97 20.92-2.08 31.4-2.87 4.84-.37 9.72-.01 14.58-.18 3.43-.12 6.85-.61 10.29-.86 5.59-.4 11.22-.47 16.76-1.17 3.98-.5 8.07-1.3 11.73-2.84 7.97-3.36 15.11-3.03 21.91 2.71 3.87 3.26 8.03 6.2 12.23 9.03 3.15 2.12 4.65 4.8 4.42 8.59-.13 2.16-.15 4.34 0 6.5.54 7.74-1.47 8.74-8.44 9.96-9.96 1.74-20.05 2.88-30.12 3.82-1.9.18-4.55-1.33-5.79-2.9-.8-1 .14-3.61.65-5.39 1.46-5.09 3.52-10.05 4.49-15.22.53-2.83-1.08-5.47-4.94-5.17-9.69.75-19.4 1.28-29.08 2.16-8.49.77-16.93 1.97-25.41 2.83-7.84.79-15.73 1.17-23.56 2.1-5.88.7-9.97 5.58-9.77 11.65.36 10.93-.06 21.8-3.15 32.31-2.55 8.69-6.03 16.96-14.36 22.1-7.32 4.52-13.34 1.75-13.45-6.84-.09-7.76.81-15.52.89-23.29.05-4.76-.68-9.53-.97-14.3-.12-1.99-.23-4.03.03-5.99 1.22-9.24.32-10.76-9.14-10.59-7.85.14-15.7 1.32-23.53 2.2-10.09 1.14-20.14 2.54-30.23 3.63-5.41.58-10.95.24-16.25 1.26-2.52.48-5.1 2.8-6.79 4.96-2.29 2.92-3.97 6.38-5.52 9.79-3.57 7.9-11.51 10.87-17.58 15.92-3.72 3.1-8.05 5.45-11.8 8.52-2.82 2.31-6.09 3.91-8.97 1.96-2.83-1.92-3.14-5.55-1.37-8.93 1.27-2.43 2.23-5.04 3.61-7.4 2.63-4.5 5.43-8.91 8.21-13.32 5.33-8.44 7.37-17.94 9.44-27.52.73-3.42 3.15-6.47 4.95-9.97z"/><path d="m253 115.13c9.26-.38 18.58-.34 27.77-1.35 3.44-.38 6.49-3.5 9.92-4.85 2.65-1.04 6.31-2.58 8.27-1.54 2.64 1.41 5.24 4.86 5.8 7.82 1.32 6.96-3.22 10.1-10.45 10-8.17-.11-16.37 1.15-24.55 1.9-6.03.56-12.03 1.52-18.07 1.81-5.58.27-9.02-3.1-8.57-8.36.42-4.9 4.46-5.39 8.38-5.56.5-.02 1 0 1.5 0z"/><path d="m183.83 122.58c.14 6.45-2.62 9.53-9.37 8.94-12.92-1.13-25.28 1.8-37.78 4.12-3.69.68-7.46.94-11.2 1.37-5.35.62-8.2-2.35-9.94-6.94-2.15-5.66-.58-8.16 5.37-8.01 3.77.09 7.53.94 11.28.88 6.92-.11 13.92-.09 20.74-1.12 10.27-1.56 20.4-2.76 30.9.76z"/><path d="m124.36 159.99c-2.17 0-4.35.16-6.5-.04-3.85-.35-5.15-2.56-4.96-6.42.2-3.93 2.67-3.31 5.17-3.57 15.34-1.57 30.64-3.57 46-4.75 6.84-.52 13.09-1.07 17.2-7.45.11-.17 3.41.95 3.51 1.69.38 2.94.38 6.01-.07 8.94-.58 3.82-2.72 5.41-7.07 5.78-12.87 1.12-25.66 3.14-38.5 4.7-4.9.6-9.84.92-14.76 1.37 0-.07-.01-.16-.02-.25z"/></g></svg>