<svg enable-background="new 0 0 400 400" viewBox="0 0 400 400" xmlns="http://www.w3.org/2000/svg"><path d="m277 91.99c5.05 0 9.61.54 13.95-.22 2.23-.4 4.55-2.78 5.97-4.86 5.75-8.38 7.91-8.81 14.89-1.5 3.27 3.43 6.33 7.16 8.84 11.17 1.15 1.84 1.25 4.77.77 6.98-.18.82-3.39 1.4-5.2 1.37-4.27-.08-8.54-.91-12.8-.85-8.94.11-17.88.47-26.79 1.09-1.28.09-3.42 2.16-3.46 3.37-.28 9.02-.63 18.09.01 27.07.62 8.74 10.47 10.07 18.36 9.14 1.79-.21 3.64-.93 5.33-.65 5.29.87 8.37-2.07 11.07-5.85.76-1.05 1.41-2.19 2.07-3.3 5.48-9.16 8.41-7.27 15.29-3.67 5.3 2.76 8.69 6.33 11.55 11.07 2.75 4.55.54 10.41-4.64 11.62-2.69.62-5.48.88-8.25 1.03-13.53.73-27.06 1.27-40.58 2.1-2.83.17-5.6 1.32-9.33 2.25 2.79 4.72 5.01 8.83 7.56 12.73 7.8 11.94 18.05 20.64 31.61 25.89 8.43 3.27 15.91 8.92 24.21 12.64 5.72 2.57 12.13 3.58 18.18 5.44 2.86.88 5.62 2.12 8.93 3.39.12-.26.54-1.17.99-2.15 3 2.43 1.08 4.59-.99 5.34-4.24 1.55-8.72 3-13.17 3.24-7.59.41-13.84 3.56-19.6 7.94-7.09 5.39-12.42 5.26-19.17-.64-5.94-5.18-12.05-10.17-18.18-15.12-1.22-.98-2.85-1.54-4.37-2.04-6.93-2.32-8.05-1.49-8.05 5.83 0 10.83-.13 21.67.04 32.5.12 7.94.91 15.87.88 23.8-.03 8.87-2.88 16.69-10.04 22.55-3.91 3.21-6.22 2.66-7.64-2.11-3.26-10.98-4.55-11.68-16.43-9.66-3.71.63-7.49.8-11.18 1.17-2.96 13.34-.72 25.33 7.87 35.9 2.15 2.64 4.49 4.55 8.4 4.09 12.7-1.49 25.41-2.83 38.15-3.93 3.83-.33 5.1-2.66 5.88-5.59 2.1-7.84 3.93-15.75 6.05-23.59.62-2.28 1.83-4.39 2.83-6.71 2.79 10.92 5.07 21.47 8.27 31.73 1.8 5.77 3.35 11.9 8.41 16.33 1.29 1.14 1.76 5.37.73 6.55-2.03 2.32-5.25 4.64-8.18 4.95-11.15 1.17-22.38 1.59-33.58 2.2-13.2.72-26.42 1.16-39.6 2.06-13.89.95-18.66-8.5-20.8-19.79-1.34-7.06-2.33-14.22-2.89-21.38-.33-4.22.7-8.52.78-12.79.12-6.64-3.37-9.25-9.81-7.69-1.26.31-2.58.56-3.87.56-4.42.03-6.29 1.76-6.5 6.56-.15 3.45-1.81 7.22-3.85 10.1-3.56 5.03-10.35 3.97-11.69-2-1.2-5.33-1-11.09-.67-16.62.38-6.35 1.93-12.62 2.36-18.96.88-13.01 1.51-26.03 1.87-39.06.08-2.78-1.41-5.6-2.6-9.94-3.85 4.29-7.17 8.2-10.74 11.85-.97.99-2.72 1.21-4.12 1.79-.09-1.59-.77-3.45-.18-4.71 2-4.24 4.48-8.26 6.74-12.39 1.45-2.66 3.05-5.27 4.19-8.06 2.71-6.61 4.26-13.9 8-19.82 4.68-7.41 6.16-15.55 8.33-23.62.46-1.71.51-3.53.62-4.36-5.93-3.14-11.16-6.19-16.67-8.63-1.51-.67-4.04.08-5.75.91-6.14 2.98-9.19 8.21-9.59 14.92-1.06 17.79-2.42 35.58-2.93 53.4-.71 24.92-.77 49.86-1.08 74.8-.05 3.85 1.17 8.16-.19 11.43-1.6 3.86-5.03 7.21-8.29 10.07-2.26 1.98-5.19-.21-5.52-3.76-.36-3.92-.24-7.92-1.02-11.74-1.48-7.26-6.61-11.78-13.99-12.05-9.18-.33-18.4-.34-27.58-.01-11.21.39-22.41 1.13-33.6 2.01-6.46.51-8.26 4.23-6.71 13.02.96 5.48-.8 10.19-4.12 14.31-2.62 3.26-6.29 3.06-8.41-.48-1.3-2.17-2.43-4.82-2.48-7.27-.51-21.93-1.07-43.87-.99-65.8.05-13.04 1.41-26.07 1.82-39.11.31-9.86.16-19.73.02-29.6-.06-4.27-.03-8.71-1.18-12.74-.89-3.12-3.78-5.62-5.38-8.61-1.29-2.41-3.51-6.45-2.64-7.46 2.32-2.69 5.82-4.67 10.06-2.42 9.45 5.03 19.36 6.25 30.01 4.27 6.39-1.19 7.47-6.45 8.87-10.49 2.64-7.63 3.58-15.83 5.35-23.78.41-1.86 1.09-3.73 2-5.41 2.44-4.47-.07-9.46-5.1-9.48-12.36-.05-24.71-.47-36.9 2.78-9.05 2.41-18.22-2.85-21.07-11.53 6.02-.77 11.91-1.94 17.85-2.21 25.46-1.17 50.93-2.28 76.41-2.98 10.73-.3 16.51-6.43 20.79-15.11.36-.73.64-1.51 1.06-2.21 2.78-4.56 4.83-4.92 7.63-.42 4.78 7.69 9.4 15.55 13.2 23.74 2.26 4.88.42 6.92-5.01 6.84-10.94-.16-21.87-.7-32.8-.89-2.92-.05-5.96.27-8.72 1.14-1.36.43-2.55 2.34-3.24 3.84-2.49 5.41-4.72 10.94-7.07 16.41-2.7 6.26-5.54 12.45-8.09 18.77-1.6 3.95.16 7.23 4.11 7.57 6.45.55 13 .21 19.48-.13 4.73-.24 9.45-1.64 14.14-1.5 4.48.13 7.16-1.68 9.31-5.14.61-.97 1.31-1.88 1.95-2.83 2.8-4.16 5.17-4.49 8.67-1.04 8.77 8.65 19.32 11.11 31.1 8.74 3.89-.78 6.26-3.49 6.27-7.74.01-6.36 0-12.72 0-19.08 0-1.67.13-3.35-.03-5-.77-7.93-.8-7.92-8.11-8.09-7.77-.17-11.83-3.42-11.68-9.52 3.51-.48 7.03-1.05 10.58-1.44 4.87-.53 7.82-3.15 8.19-7.94.49-6.32-1.34-11.68-7.13-15.13-1.54-.92-3.12-1.87-4.41-3.09-2.37-2.26-2.01-4.24 1.04-5.65 1.46-.67 2.86-1.46 4.31-2.15 3.51-1.66 7.52-5.28 10.44-4.55 6.82 1.71 13.17 5.4 19.55 8.59.7.35.92 2.83.51 4.02-.75 2.12-2.29 3.94-3.26 6-4.98 10.62.08 14.38 9.17 15.68 4.94.7 10.2-.23 15.22-1.01 1.37-.21 3.48-2.59 3.42-3.89-.29-6.84-.77-13.73-2.01-20.45-.52-2.82-2.94-5.37-4.76-7.84-1.61-2.18-1.05-3.17 1.02-4.71 9.09-6.74 18.45-9.37 29.03-3.42 2.23 1.25 4.91 1.68 7.38 2.52 5.7 1.94 7.23 7.34 2.29 10.39-5.76 3.57-6.09 8.29-5.81 13.91.21 4.32.04 8.64.04 13.69zm-146 135.05c0 13.81-.11 27.62.09 41.43.04 2.84.84 5.82 1.99 8.44 1.72 3.94 9.07 7.26 12.49 5.71 3.88-1.75 3.47-5.48 3.46-9.01-.05-25.13-.05-50.25.01-75.38 0-1.94.76-3.89.7-5.83-.24-7.72-.24-15.5-1.2-23.14-.53-4.24-5.23-6.02-10.77-5.25-3.92.54-6.73 4.34-6.75 9.45-.05 17.87-.02 35.72-.02 53.58zm-63.43-60.56c-.57 9.23-1.5 17.41-1.48 25.59.04 17.42.54 34.84.92 52.26.27 12.09.61 24.18 1.05 36.27.06 1.5.53 3.68 1.57 4.32 3.59 2.23 7.74 2.97 11.41.36 3.05-2.17 4.82-5.09 3.49-9.4-1.05-3.39-1.43-7.1-1.47-10.68-.16-13.82-.27-27.65.02-41.46.15-7.2 2.53-13.94.34-21.69-2.46-8.68-1.91-18.25-2.34-27.45-.16-3.5-1.54-5.67-4.73-6.55-2.46-.69-5.05-.93-8.78-1.57zm170.33-20.09c.02-.13.03-.26.05-.39 1.5 0 2.99.01 4.49 0 6.87-.03 9.51-2.67 9.57-9.5.02-1.98.14-3.96.22-5.95.26-6.95.56-13.9.76-20.85.11-3.69-2.1-4.77-5.44-4.73-6.98.09-13.96.15-20.94-.01-6.54-.14-8.86 3.8-8.56 8.66.52 8.35.9 16.75 2.25 24.98.39 2.38 3.52 5.18 6.03 6.13 3.54 1.36 7.68 1.18 11.57 1.66zm39.65 58.05c-1.88-6.45-3-12.01-7.04-16.76-2.33-2.74-4.09-6.14-5.41-9.52-1.99-5.11-3.37-10.45-4.98-15.71-1.15-3.77-2.96-6.09-7.61-5.57-4.78.53-9.68-.05-14.51.19-3.37.17-5.62 1.85-4.99 5.74 1.17 7.28 6.08 11.56 11.95 15.21 1.91 1.19 4.44 2.95 4.72 4.74.25 1.63-2.01 3.84-3.53 5.45-1.04 1.11-2.71 1.63-4.14 2.44 0 2.98-.19 5.82.09 8.62.12 1.26 1.12 3.45 1.8 3.48 6.13.26 12.57 1.27 18.32-.24 4.31-1.14 7.68-2.66 11.52.39.7.57 1.74.73 3.81 1.54zm-159.08 13.58c-.16-.02-.31-.04-.47-.06 0-2.67.09-5.33-.02-8-.25-6.46-2.85-8.97-9.16-8.97-2 0-4-.02-6 0-5.72.07-8.56 2.54-8.76 8.31-.25 7.15-.35 14.34.02 21.48.42 7.99 2.67 10.27 9.62 11.19 5.55.73 11.56-2.7 12.89-8.32 1.21-5.06 1.3-10.4 1.88-15.63zm128.5 59.98c1.49 0 2.99-.06 4.48.01 5.1.24 9.36-1.09 9.52-7.02.2-7.61.25-15.29-.55-22.84-.42-3.96-5.18-5.88-9.43-5.09-1.91.36-3.83.74-5.76.93-10.17.99-11.34 2.15-11.19 12.41.08 5.25.41 10.52 1.04 15.73.42 3.48 2.08 6.25 6.41 5.89 1.82-.15 3.66-.02 5.48-.02zm-19.38-98.48c-.2-.02-.39-.05-.59-.07 0-1.5.18-3.02-.03-4.48-.58-4.01-.91-8.13-2.21-11.91-.58-1.69-3.27-2.66-5-3.96-.25 1.99-.48 3.98-.75 5.96-.43 3.22.06 7-1.49 9.54-4.47 7.31-9.85 14.06-14.65 21.18-.95 1.41-1.8 3.98-1.15 5.18 2.71 5 7.27 7.65 12.99 8.01 4.38.28 9.67-3.51 10.23-7.51 1.01-7.3 1.78-14.62 2.65-21.94zm-131.59 88.08c0 3.83-.29 7.69.14 11.48.18 1.57 1.74 4.1 2.9 4.24 4.55.53 9.21.53 13.78.13 1.18-.1 2.95-2.29 3.12-3.69.9-7.47 1.73-14.99 1.88-22.5.1-4.74-4.09-5.89-7.87-6.17-4.89-.37-9.93-.37-13.71 3.6-.53.55-.23 1.92-.24 2.92-.01 3.33 0 6.66 0 9.99zm126-2.49c0-3.17.24-6.35-.06-9.49-.36-3.81-1.2-7.73-5.83-8.56-6.1-1.1-12.38 1.68-13.1 6.48-.95 6.32-.6 12.83-1.04 19.24-.32 4.53 2.73 6.11 6.07 7.08 5.29 1.53 12.48-.35 13.71-3.29.36-.87.24-1.97.25-2.96.02-2.84 0-5.67 0-8.5zm-107.35-77.08c.84-5.55 1.83-10.51 2.25-15.52.29-3.47-.36-7.03-4.44-8.3-3.69-1.15-7.42-2.58-11.2-2.82-1.69-.11-4.9 2.21-5.09 3.72-.78 6.15-.95 12.43-.66 18.63.07 1.5 2.68 3.9 4.33 4.09 4.76.56 9.62.2 14.81.2zm122.35 45.97h12.93c8.42 0 8.42 0 11.45-7.86 2.92-7.57-.45-13.4-8.3-14.11-3.15-.29-6.36.06-9.51-.28-4.59-.5-6.45.67-6.54 5.03-.12 5.48-.03 10.97-.03 17.22zm-14-8.33c0-10.98-.5-11.35-11.58-8.69-.32.08-.69-.05-.99.06-4.85 1.77-7.08 5.66-7.04 10.41.02 2.44 1.2 6.08 2.99 7.03 2.78 1.47 6.52 1.37 9.87 1.47 6.25.17 6.73-.45 6.75-6.8 0-1.16 0-2.32 0-3.48z" fill="#000001"/><g fill="#fafafb"><path d="m2.6 9.9.8-1c.9.7 1.9 1.4 2.9 2.3l-.9 1.1c-1.1-1-2-1.8-2.8-2.4zm.5 10.6c.9-2.1 1.6-4.3 2.3-6.7.4.2.8.4 1.3.6-.7 2.1-1.5 4.3-2.2 6.6zm.3-15.2.9-.9c1 .8 2 1.6 2.8 2.4l-1 1c-.9-.9-1.8-1.7-2.7-2.5zm12.6-1.2h1.2v1.4h2.7v1.1h-2.7v2.7h-1.2v-.6h-1.8v1.3h4.9v3.8h-1.2v-.5h-3.7c0 .4-.1.9-.1 1.2h5.1v1h-5.2c0 .5-.1.9-.2 1.2h6v1h-5.2c1.1 1.3 2.9 2 5.5 2.2-.4.4-.7.8-.9 1.3-2.9-.5-4.8-1.6-5.7-3.5h-.1c-.8 1.7-2.7 2.9-5.9 3.6-.2-.4-.6-.8-.9-1.1 2.8-.6 4.6-1.4 5.4-2.5h-4.8v-1h5.3c.1-.3.2-.7.2-1.2h-4.9v-1h5c0-.4 0-.8.1-1.2h-3.6v.5h-1.2v-3.8h4.9v-1.3h-1.8v.5h-1.2v-2.7h-2.7v-1h2.7v-1.4h1.2v1.4h4.8zm-6.7 8.3h3.6c0-.4 0-.9 0-1.4h-3.6zm1.9-4.6h4.8v-1.3h-4.7v1.3zm6.7 3.2h-3.7v1.4h3.7v-2.4z"/><path d="m8.7 22.1h1.3v2.2h2.8v-2.2h1.3v2.2h4.1v9.1h1.7v1.3h-17v-1.3h1.7v-9.1h4.1zm.3 13.1.7 1.2c-1.8.9-3.8 1.9-6 2.9-.2-.4-.5-.8-.8-1.3 2.3-1 4.4-1.9 6.1-2.8zm-3.1-6.4h2.8v-3.2h-2.8zm0 4.6h2.8v-3.3h-2.8zm4.1-4.6h2.8v-3.2h-2.8zm0 4.6h2.8v-3.3h-2.8zm3.6 1.9c2.1.9 4.1 1.8 6.1 2.7l-.7 1.4c-2.2-1.1-4.2-2-6.1-2.9zm3.2-9.7h-2.8v3.2h2.8zm-2.7 7.8h2.8v-3.3h-2.8z"/></g></svg>