<svg enable-background="new 0 0 400 400" viewBox="0 0 400 400" xmlns="http://www.w3.org/2000/svg"><path d="m362.1 8.8c1.1.8 2.1 1.6 3.1 2.4l-1 1.1c-1.3-1.1-2.3-2-3-2.5zm1.9 4.8c.5.2.9.4 1.4.5-.6 2.3-1.3 4.5-1.9 6.8l-1.5-.5c.8-2.1 1.4-4.3 2-6.8zm-1-9.4c1.3.9 2.4 1.8 3.4 2.5l-1 1.1c-1.4-1.2-2.4-2.1-3.2-2.6zm3.7 2.2v-1.4h10.3v1.2c-.5 3.6-1.8 6.8-4 9.4 1.5 1.6 3.4 2.8 5.7 3.8-.3.4-.7.8-1.1 1.4-2.3-1.1-4.1-2.5-5.6-4.1-1.6 1.6-3.6 3.1-5.9 4.3-.3-.5-.7-.9-1-1.3 2.4-1.1 4.4-2.5 6-4.1-1.9-2.5-3-5.6-3.3-9.3h-1.1zm8.8 0h-6.4c.3 3.3 1.3 6 3 8.2 2-2.2 3.1-5.1 3.4-8.2z" fill="#fbfcfa"/><path d="m385.3 3.8h1.3v2.2h2.8v-2.2h1.3v2.2h4.1v9.1h1.7v1.3h-16.9v-1.3h1.7v-9.1h4.1v-2.2zm.4 13.1.7 1.2c-1.8.9-3.8 1.9-6 2.9-.2-.4-.5-.8-.8-1.3 2.3-1 4.3-1.9 6.1-2.8zm-3.1-6.4h2.8v-3.2h-2.8zm0 4.6h2.8v-3.3h-2.8zm4-4.6h2.8v-3.2h-2.8zm0 4.6h2.8v-3.3h-2.8zm3.7 1.9c2.1.9 4.1 1.8 6.1 2.7l-.7 1.3c-2.2-1.1-4.2-2-6.1-2.9zm3.2-9.7h-2.8v3.2h2.8zm-2.8 7.8h2.8v-3.3h-2.8z" fill="#fbfcfa"/><g fill="#010102"><path d="m257.15 84.22c-5.43 6.74-9.99 11.94-14.05 17.5-15.38 21.11-30.55 42.38-45.91 63.51-3.75 5.16-7.93 10-11.83 15.05-.67.87-1.02 2.05-1.32 3.14-1.55 5.76-4.23 8.18-10.31 8.54-8.09.48-16.19.87-24.3.97-4.1.05-8.32-1.39-12.28-.8-18.38 2.73-37.06.9-55.44 4.58-14.09 2.82-28.57 3.76-42.91 5.19-4.95.49-14.3-7.93-14.54-12.84-.05-.96 2.39-2.88 3.73-2.93 8.16-.28 16.34.12 24.49-.21 7.68-.31 15.32-1.42 22.99-1.81 3.41-.17 6.85.74 10.29.85 12.06.36 23.42-2.03 33.47-9.07 1-.7 1.85-1.89 2.32-3.04 4.16-10.17 8.3-20.36 12.23-30.62.73-1.9.52-4.15.84-7.25-3.48-.61-7.37-1.91-11.23-1.82-6.87.16-13.71 1.49-20.59 1.72-4.87.16-9.36 1.51-11.37 5.6-2.28 4.63 1.08 8.69 3.92 12.44 2.13 2.82 4.51 5.65 5.81 8.86 2.32 5.74-1.31 11.86-7.21 13.15-3.22.7-5.51-.84-5.78-3.8-.71-7.91-1.13-15.87-1.23-23.81-.05-3.72-3.43-8.4-7.23-8.28-7.1.22-14.19.67-21.28 1.1-4.92.3-7.47-1.96-8.85-9.33-.3-1.63 1.49-5.06 2.78-5.31 3.84-.75 7.91-.33 11.89-.37 4.7-.04 9.4-.09 14.1-.11 9.55-.04 19.11-.01 28.66-.13 5.45-.07 10.9-.37 16.35-.59 6.54-.26 13.14-.08 19.58-1.02 3.4-.49 6.74-2.62 9.7-4.61 3.12-2.1 5.51-5.29 8.68-7.29 1.87-1.18 4.84-1.81 6.92-1.24 5.56 1.52 9.38 9.96 7.52 15.39-1.4 4.07-7.1 5.61-13.02 5.07-3.35-.31-7 1.55-10.31 2.92-.63.26-.92 3.17-.31 4.29 4.13 7.64.24 13.01-4.67 18.25-3.85 4.1-7.98 8-11.32 12.48-2.8 3.75-4.63 8.22-7.13 12.82 11.22 3.06 20.77 3.8 28.8-4.58.65-.68 1.6-1.3 2.5-1.49 5.71-1.17 11.43-2.39 17.19-3.24 5.24-.78 7.71-4.86 10.15-8.52 6.27-9.42 12.82-18.72 15.47-30.09.68-2.91 2.82-5.46 4.22-8.21 2.43-4.76 4.72-9.58 7.21-14.3 5.46-10.33 8.29-21.6 11.66-32.66 1.8-5.93 1.87-12.15.29-18.28-1.48-5.78.46-7.37 6.15-6.83 5.97.57 12.06-.26 18.09-.04 2.06.07 4.09 1.43 6.11 2.26 2.07.85 4.11 1.79 6.17 2.68 5.91 2.57 10.04 6.23 4.57 13.87-2.51 3.51-.76 11.69 2.94 16.25 2.21 2.72 3.58 6.11 5.57 9.03 2.78 4.11 5.44 8.38 8.77 12.01 6.28 6.85 13.01 13.29 19.56 19.9 12.13 12.27 28.95 16.22 43.16 24.67 9.33 5.55 21.35 6.94 27.99 17.12 2.28 3.49 2.66 5.61-1.35 6.86-4.3 1.35-9.04 1.24-13.41 2.43-6.24 1.7-12.46 3.66-18.43 6.13-7.06 2.92-12.61 1.5-18.24-3.51-8.94-7.95-18.92-14.79-27.43-23.14-5.61-5.5-9.75-12.63-13.94-19.41-8.84-14.31-14.81-29.9-19.9-45.88-.98-3.13-3.23-5.84-5.72-10.17z"/><path d="m211.87 196.99c9.6 0 19.22.32 28.8-.12 6.02-.28 10.3-4.62 14.44-8.54 6.16-5.84 8.76-5.96 14.81.12 1.96 1.97 3.77 4.15 5.38 6.42 2.55 3.6.93 7.38-1.62 9.53-8.11 6.85-9.75 16.72-13.37 25.75-1.55 3.87-3.78 7.52-6.09 11.02-2.07 3.13-1.45 5.29 2.36 5.77 3.91.49 7.87.6 11.78 1.09 5.55.69 8.55-3.47 12.31-6.2 2.24-1.63 4.26-3.91 6.76-4.71 2.03-.65 4.77.08 6.93.91 2.54.98 4.82 2.68 7.17 4.14 4.61 2.86 9.38 5.53 13.64 8.84 1.05.81.47 3.8.5 5.79.01.35-.62.75-1.01 1.05-6.36 4.95-9.51 10.78-8.94 19.5.76 11.38-.19 22.9-.88 34.32-.17 2.82-1.57 6.04-3.43 8.2-3.32 3.85-7.37 7.09-11.21 10.48-3.41 3.02-5.22 1.07-6.24-2.33-.79-2.64-1.46-5.32-1.95-8.02-.61-3.35-1.95-5.1-5.86-5.09-7.6.03-15.22-1.1-22.79-.77-12.98.57-25.94 1.81-38.88 2.97-3.5.31-6.03 1.76-5.6 6.3.46 4.81.39 9.72.02 14.55-.37 4.75-6.37 10.1-10.56 10.06-4.69-.05-7.57-2.53-7.27-7.24.75-11.98 2.08-23.92 2.8-35.9.64-10.58.94-21.19 1.05-31.79.06-5.76-.8-11.53-.85-17.3-.03-3.92.32-7.91 1.08-11.76.55-2.79 2.67-2.14 4.68-1.07 9.22 4.9 19.03 6.86 29.47 6.1 5.43-.39 8.05-2.69 8.72-7.96 1.21-9.56 2.91-19.07 3.86-28.65.55-5.59-1.68-7.77-7.18-7.34-7.97.63-15.93 1.68-23.83 2.93-4.77.75-9.5 1.51-13.33-1.99-1.41-1.29-2.17-3.81-2.23-5.8-.02-.69 2.92-1.99 4.57-2.12 3.97-.31 7.99-.1 11.99-.1 0-.36 0-.7 0-1.04zm67.64 74.42c.16-.02.33-.03.49-.05 0-2 0-3.99 0-5.99-.01-7.13-2.25-9.24-9.41-9.4-8.58-.2-17.15-.65-25.73-.97-1.68-.06-3.62-.58-5 .06-7.19 3.31-14.77 3.7-22.5 4.08-5.76.29-9.17 2.79-8.39 8.99.27 2.16.28 4.39.17 6.57-.32 6.92-1.28 13.86-.94 20.73.21 4.32.83 10.07 6.04 11.26 4.31.98 9.06 2.75 13.83-.06 2.23-1.31 5.49-1.85 8.06-1.42 11.44 1.91 22.85 2.41 34.34.75 5.52-.8 11.86-6.96 11.44-11.08-.8-7.82-1.6-15.65-2.4-23.47z"/><path d="m156.43 201.15c4 3.51 7.19 6.12 10.15 8.97 3.01 2.91 3.39 6.45.9 9.79-3.26 4.36-4.95 8.52-3.76 14.41 1.01 4.99-.59 10.47-.67 15.74-.15 10.19-.15 20.39 0 30.58.07 5.1 1.21 10.24.83 15.29-.98 12.89-1.93 25.85-4.12 38.56-1.19 6.88-7.58 11.91-16.09 9.88.6-4.07 1.56-8.21 1.71-12.38.11-3.1-.28-6.44-1.39-9.32-2.47-6.41-8.62-5.49-13.21-4.43-8.54 1.98-16.96.14-25.39.78-3.93.3-8.01.19-11.73 1.28-8.62 2.54-11.37 5.52-9.59 17.44.73 4.94-2.93 8.47-7.97 7.16-4.79-1.25-8.31-4.45-8.91-9.38-.46-3.82.36-7.83.82-11.73.54-4.53 1.71-9.01 1.92-13.54.56-11.92.59-23.86 1.13-35.79.4-8.88 2.2-17.79 1.7-26.59-.59-10.52-2.9-20.96-4.58-31.41-.52-3.22-.2-6.02 2.76-7.82 3.17-1.92 6.49-1.96 9.48.37 1.82 1.43 3.51 3.11 4.96 4.91 3.21 3.99 7.79 4.2 12.09 3.94 10.98-.66 21.97-1.51 32.86-3.01 5.86-.81 11.53-3.07 17.24-4.83.95-.29 1.69-1.36 2.45-2.14 2.11-2.18 4.2-4.4 6.41-6.73zm-36.42 107.42c.01.14.02.29.02.43h12.49c10.33 0 10.46.03 12.9-9.96.92-3.79 1.46-7.76 1.51-11.66.19-13.54-.01-27.09.13-40.64.06-5.59.82-11.17.87-16.76.05-5.21-3.22-8.17-8.4-7.94-2.44.1-4.86.64-7.29.96-12.97 1.67-25.93 3.37-38.9 4.97-4.8.59-6.8 4.11-7.18 7.99-.59 5.96-.49 12.04-.03 18.02.22 2.92 1.68 5.85 3.01 8.56 2.13 4.34 5.76 1.34 8.77 1.49 3.09.15 6.54 1.59 9.19.66 6.59-2.31 14.01-1.69 20.1-6.04 1.27-.9 5.81.17 6.49 1.52 2.92 5.79.02 9.93-6.43 9.8-10.4-.21-20.66.21-30.57 3.97-7.3 2.77-12.57 8.12-11.77 16.04.4 3.96.05 7.98.08 11.98.04 5.27 2.88 8.19 8.26 7.99 8.93-.32 17.84-.91 26.75-1.38z"/><path d="m151.6 76.29c.81 1.18 1.4 1.82 1.74 2.57 1.55 3.45 4.41 7.01 4.2 10.37-.27 4.46-5.17 6.27-9.16 6.62-11.96 1.04-23.99 1.32-35.97 2.2-10.12.74-20.2 2.24-30.32 2.68-3.27.14-6.94-1.52-9.82-3.32-1.38-.86-2.48-5.05-1.72-5.84 1.72-1.8 4.56-2.85 7.13-3.4 2.56-.56 5.33-.26 8-.13 4.93.23 9.85.77 14.77.9 12.83.32 25.65-.06 37.71-5.1 4.43-1.86 8.45-4.72 13.44-7.55z"/><path d="m224.94 160.12c2.79.72 5.04 1.8 7.28 1.79 5.92-.04 11.94-.03 17.74-1.07 4.52-.81 8.9-2.88 13.08-4.93 4.95-2.42 6.17 1.73 7.9 4.28 1.86 2.75 2.15 6.12-1.11 8.29-1.84 1.23-4.15 2.21-6.33 2.41-13.12 1.18-26.25 2.22-39.39 3.03-3.23.2-6.63-.23-9.73-1.14-1.41-.41-2.87-2.59-3.17-4.18-.24-1.24.93-3.56 2.09-4.1 3.9-1.83 8.09-3.09 11.64-4.38z"/></g></svg>