<svg enable-background="new 0 0 400 400" viewBox="0 0 400 400" xmlns="http://www.w3.org/2000/svg"><path d="m362.1 8.8c1.1.8 2.1 1.6 3.1 2.4l-1 1.1c-1.3-1.1-2.3-2-3-2.5zm1.9 4.8c.5.2.9.4 1.4.5-.6 2.3-1.3 4.5-1.9 6.8l-1.5-.5c.8-2.1 1.4-4.3 2-6.8zm-1-9.4c1.3.9 2.4 1.8 3.4 2.5l-1 1.1c-1.4-1.2-2.4-2.1-3.2-2.6zm3.7 2.2v-1.4h10.3v1.2c-.5 3.6-1.8 6.8-4 9.4 1.5 1.6 3.4 2.8 5.7 3.8-.3.4-.7.8-1.1 1.4-2.3-1.1-4.1-2.5-5.6-4.1-1.6 1.6-3.6 3.1-5.9 4.3-.3-.5-.7-.9-1-1.3 2.4-1.1 4.4-2.5 6-4.1-1.9-2.5-3-5.6-3.3-9.3h-1.1zm8.8 0h-6.4c.3 3.3 1.3 6 3 8.2 2-2.2 3.1-5.1 3.4-8.2z" fill="#fbfcfa"/><path d="m385.3 3.8h1.3v2.2h2.8v-2.2h1.3v2.2h4.1v9.1h1.7v1.3h-16.9v-1.3h1.7v-9.1h4.1v-2.2zm.4 13.1.7 1.2c-1.8.9-3.8 1.9-6 2.9-.2-.4-.5-.8-.8-1.3 2.3-1 4.3-1.9 6.1-2.8zm-3.1-6.4h2.8v-3.2h-2.8zm0 4.6h2.8v-3.3h-2.8zm4-4.6h2.8v-3.2h-2.8zm0 4.6h2.8v-3.3h-2.8zm3.7 1.9c2.1.9 4.1 1.8 6.1 2.7l-.7 1.3c-2.2-1.1-4.2-2-6.1-2.9zm3.2-9.7h-2.8v3.2h2.8zm-2.8 7.8h2.8v-3.3h-2.8z" fill="#fbfcfa"/><g fill="#010102"><path d="m330.19 354.44c-1.98-.2-4.78.3-6.61-.8-5.85-3.53-11.71-7.23-16.9-11.63-10.15-8.61-15.21-20.68-20.67-32.4-9.67-20.75-10.86-42.8-9.92-65.14.21-4.89-.95-6.81-6.25-6.59-10.08.41-12 1.49-11.69 11.89.38 12.68 2.19 25.31 2.62 37.99.66 19.18 4.08 38.58-2.77 57.37-2.87 7.88-6.79 10.93-11.01 9.75-1.86-.52-4.22-2.04-4.81-3.67-1.26-3.46-2.04-7.29-2.08-10.97-.19-19.16-.31-38.33 0-57.49.16-10.21 1.06-20.42 1.96-30.6.85-9.56-4.08-11.17-13.31-9.58-7.8 1.34-9.17 6.63-10.74 13.08-4.21 17.35-9.36 34.48-13.66 51.81-2.63 10.61-10.72 17.67-15.91 26.6-7.53 12.97-18.54 22.74-30.49 31.32-7.46 5.36-15.83 9.44-23.84 14.01-.93.53-2.18.53-4.48 1.04.76-2.04.85-3.79 1.74-4.44 11.66-8.49 23.75-16.42 35.03-25.38 4.72-3.75 8.31-9.29 11.48-14.58 11.28-18.83 17.73-39.37 20.09-61.17.62-5.76.69-11.57 1.04-17.36.24-4.05-1.94-6.01-5.42-7.77-4.33-2.19-9.79-3.31-11.78-9.49 2-.76 3.85-1.94 5.8-2.14 16.14-1.62 16.98-9.23 16.15-22.78-.58-9.37-2.49-9.96-11.71-6.84-5.46 1.85-12.55 1.22-14.04 9.17-.66 3.52-1.1 7.1-2.1 10.53-.8 2.76-2 5.51-3.55 7.93-2.52 3.94-6.43 3.57-8.5-.64-1.07-2.18-2.43-4.43-2.73-6.76-.7-5.49-3.66-7.34-8.82-6.71-1.31.16-2.66.02-4 .03-8.97.07-11.3 2.01-11.21 10.89.06 6.03.66 12.15 1.92 18.04 2.68 12.53 14.99 15.99 24.37 7.15.24-.23.48-.46.72-.7 6.82-6.72 12.99-5.8 17.88 2.73 1.14 1.98 2.04 4.1 3.06 6.15 3.01 6.08.95 9.79-6 9.61-5.53-.14-11.04-1.3-16.54-2.11-5.45-.81-10.86-2.01-16.33-2.45-1.29-.1-3.89 2.08-3.97 3.33-.49 7.85-.47 15.74-.56 23.62-.02 1.48.34 2.95.34 4.43.03 11.33-.15 22.67.07 34 .15 7.97-3.29 14.08-9.63 18.15-5.36 3.44-12.04 1.56-12.39-4.4-.29-4.84-.02-9.71-.12-14.56-.25-12.94-.59-25.87-.83-38.8-.11-6-.41-12.02 0-17.99.39-5.59-1.88-7.54-7.35-7-6.6.65-13.29 3.26-19.66 2.53-10.7-1.22-20.03 3.98-30.23 4.41-5.43.23-10.86.82-16.29.94-7.22.16-15.37-5.76-18.28-13.36 1.34-.21 2.57-.6 3.79-.56 8.44.27 16.88 1.02 25.3.85 8.37-.17 16.71-1.37 25.08-1.85 8.76-.51 17.53-.87 26.3-.99 12.01-.17 15.24-4.05 13.22-15.92-.93-5.48-1.58-11.04-1.93-16.59-.42-6.81-1.9-8.31-8.46-8.58-11.55-.47-11.47 1.36-13.58 13.19-.79 4.45-1.7 8.62-6.52 10.72-4.93 2.15-9.79-.34-10.49-5.67-.04-.33-.01-.67-.02-1-.62-14.7-1.37-29.39-1.79-44.09-.15-5.25.89-10.54.7-15.78-.3-8.37-2.29-16.82-1.51-25.05.82-8.64-1.24-16.43-3-24.51-.5-2.3.75-3.48 3.15-1.89 3.79 2.52 7.95 4.63 11.29 7.65 6.12 5.53 15.21 7.67 22.19 3.68 2.21-1.26 4.16-4.4 4.66-6.98 1.51-7.85 2.57-15.83 3.19-23.81.42-5.47-2.93-8.32-8.58-8.41-13.21-.22-26.29.67-39.2 3.82-3.85.94-7.8.45-10.93-2.99-1.83-2-4.61-3.11-6.6-5-1.37-1.29-2.12-3.24-3.84-6.01 9.6.52 17.66 1.04 25.72 1.37 3.21.13 6.44-.17 9.67-.19 9.13-.04 18.28 1.03 27.36-.98 5.49-1.22 8.98-7.38 7.36-14.17-1.45-6.08-3.29-11.99-8.56-16.16-1.46-1.16-2.34-3.06-3.97-5.26 7.2-3.6 13.67-7.97 20.8-10.08 6.16-1.82 12.06 2.18 17.22 5.65 5.81 3.9 6.99 9.48 4.78 16.13-1.38 4.15-2.13 8.53-3.04 12.83-1.2 5.66.01 7.03 5.98 7.05 1.33 0 2.68-.12 4 .02 4.38.46 7.5-.57 10.35-4.64 4.42-6.32 6.36-6.37 13.05-2.46 5.72 3.34 11.83 6.24 13.16 14.07 1.05 6.19-.46 8.17-6.62 7.1-13.95-2.43-27.97-2.98-42.04-1.07-2.67.36-8.54 6.3-8.89 9.5-.83 7.51-1.63 15.04-2 22.59-.32 6.48 2.34 8.4 8.7 7.06.8-.17 1.67-.23 2.48-.13 7.37.88 11.59-3.23 14.8-9.13.93-1.71 2.03-3.43 3.42-4.75 2.17-2.06 4.22-2.9 7.19-.26 2.7 2.4 6.43 3.7 9.82 5.22 7.61 3.41 9.16 8.48 5.72 16.42-2.23 5.14-3.5 10.71-5.17 16.09-.14.46-.19 1.06-.01 1.48 3.65 8.71-.67 17.39-.04 26.09.26 3.62-1.04 7.9 2.94 10.15 4.3 2.43 8.24-.37 11.38-2.62 7.45-5.34 14.54-11.22 21.51-17.2 2.29-1.97 3.73-4.93 5.57-7.42 3.1-4.22 6.13-4.29 9.12-.07 1.32 1.86 2.11 4.12 3.57 5.84.88 1.04 2.6 1.92 3.9 1.86.72-.03 2.05-2.21 1.92-3.27-.9-7.1-2.07-14.17-3.25-21.24-.5-3.01-1.24-5.98-2.05-9.78-6.37 1.06-12.43 2.28-18.55 3.03-11.43 1.4-13.59 1.28-19.08-6.98-1.49-2.24-1.24-3.78 1.36-4.38 2.54-.59 5.17-1 7.77-1.05 20.93-.41 41.87-.97 62.8-.88 5.97.02 9.89-2.37 12.87-6.75 2.32-3.41 4.88-6.05 9.16-5.29 5.06.9 6.71 5.21 8.02 9.47.57 1.85 1.08 3.87.93 5.77-.2 2.65-.16 6.19-1.76 7.7-8.51 8.03-10.13 17.87-6.34 27.91 3.93 10.41 9.39 20.33 15.07 29.95 1.76 2.97 6.37 4.32 9.75 6.26 3.69 2.12 7.41 4.18 11.23 6.05 4.08 2 7.36-.42 9.04-3.41 2.92-5.19 4.87-10.93 7.15-16.47 1.58-3.85 2.9-7.91 9.1-7.14-.39 3.85-1.1 7.69-1.09 11.53.02 9.49-.46 19.09.82 28.43 1.37 9.93-2.27 15.6-12.38 15.8-2.32.05-5.04.63-6.9-.34-4.99-2.61-7.21-.05-9.7 3.69-5.19 7.81-5.32 7.72 1.29 14.33 4.18 4.17 8.54 8.17 12.47 12.56 3.87 4.32 3.43 11.18-.49 14.12-4.51 3.39-8.91 1.87-13.27-3.62-6.04-7.6-12.28-15.07-18.95-22.11-3.36-3.55-3.73-6.69-1.45-10.55 1.24-2.1 2.67-4.09 4.08-6.1 8.56-12.24 7.23-15.71-2.93-22.45-11.56-7.67-15.81-19.47-20.52-31.21-1.68-4.19-2.81-8.72-3.42-13.19-.69-5.09-.66-10.3-.68-15.45-.03-6.41.31-12.86-3.43-18.51-.66-1-2.19-2.07-3.3-2.05-8.77.16-17.53.53-26.29.97-.97.05-2.41.81-2.7 1.58-.29.79.28 2.31.97 2.99 3.06 3 6.19 5.96 9.52 8.65 3.75 3.02 4.81 6.21 3.64 11.19-2.47 10.49-4.7 21.1-2.54 32.1.94 4.81.35 9.91 1.3 14.72.54 2.73 2.38 6.77 4.37 7.27 2.83.71 6.56-.85 9.5-2.27 3.32-1.61 5.93-5 9.33-6.07 6.12-1.93 10.83 1.41 14.5 6.18 3.36 4.37 4.46 9.09 1.85 14.24-6.29 12.41-5.5 25.4-3.14 38.51.4 2.24 1.26 4.47 1.27 6.7.05 9.72 6.7 14.95 13.56 19.8 5.71 4.04 11.83 7.52 17.92 11.01 6.87 3.94 9.99 3.52 13.38-2.84 1.52-2.85 2.89-5.81 4.67-8.49 1.53-2.31 3.55-4.31 5.35-6.45.44.27.87.55 1.31.82-.34 4.52-.3 9.11-1.1 13.55-2.34 12.95-.55 25.46 3.02 37.93 1.78 6.22-.75 9.38-7.38 9.77-4.01.23-8.06.27-12.05-.07-1.47-.22-2.86-1.68-4.29-2.53zm-191.14-177.44c0-.33 0-.67-.01-1 4.83 0 9.65.01 14.48 0 5.69-.02 7.58-1.73 7.44-7.24-.12-4.6-.31-9.25-1.14-13.75-.28-1.53-2.39-3.16-4.04-3.94-11.7-5.49-23.98-2.27-36.02-1.91-5.13.15-10.25 1.71-15.32 2.86-7.81 1.76-7.8 3.71-7.3 11.24.14 2.11.77 4.19.83 6.29.15 5.65 1.79 7.43 7.32 7.44 11.25.02 22.5.01 33.76.01zm-20.87 38c.01.09.01.19.02.28 7.9-.43 15.83-.63 23.71-1.34 14.21-1.29 14.4-1.54 16.94-13.72.37-1.76.61-3.74.17-5.43-.61-2.34-1.34-5.61-3.05-6.49-3.05-1.56-6.84-2.08-10.35-2.21-7.8-.3-15.67-.69-23.41.08-6.85.68-13.6 2.69-20.28 4.57-1.28.36-2.63 2.73-2.81 4.3-.42 3.61-.23 7.3-.11 10.95.24 7.05 2.28 9 9.19 9 3.34.01 6.66.01 9.98.01zm123.3-1.93c-.16-.02-.32-.04-.48-.06 0-1.67 0-3.33 0-5 0-12.65-.49-13.15-12.91-13.02-7.79.08-11.57 5.79-6.88 11.83 4.97 6.4 6.2 13.03 6.02 20.65-.03 1.47 2.68 3.98 4.45 4.32 4.1.8 7.13-1.74 8.07-5.59 1.05-4.25 1.19-8.74 1.73-13.13z"/><path d="m249.15 22.03c3.81 2.02 8.05 3.5 11.32 6.18 4.92 4.04 9.02 9.07 13.73 13.41 4.38 4.03 5.24 9.29 5.71 14.68.11 1.24-.74 2.83-1.63 3.84-5.58 6.37-5.41 9.8-.09 16.62 14.39 18.46 33.84 29.74 54.86 38.62 8.02 3.39 16.54 5.67 24.95 8.03 4.67 1.31 9.63 1.57 14.36 2.71 1.27.3 2.92 1.98 3.05 3.17.1 1.03-1.49 2.85-2.71 3.3-10.64 3.92-21.26 7.95-32.1 11.27-8.13 2.49-15.26-1.4-21.81-5.68-15.24-9.97-27.32-23.11-37.34-38.23-4.87-7.34-9.9-14.57-14.82-21.87-1.91-2.84-3.78-4.3-7.01-1.37-7.86 7.12-15.9 14.05-23.87 21.05-2.6 2.28-5.32 4.44-7.8 6.84-9.4 9.09-18.98 17.98-30.07 25.03-1.07.68-2.33 1.54-3.48 1.5-1.38-.04-2.98-.69-3.98-1.61-.39-.36.28-2.42.98-3.32 4.9-6.35 9.78-12.73 14.99-18.83 2.44-2.86 5.76-4.94 8.38-7.66 13.64-14.21 23.98-30.68 31.42-48.78 1.82-4.41.25-10.31-.14-15.5-.15-2.04-1.39-3.98-2.03-6-1.42-4.47.06-6.47 5.13-7.4z"/><path d="m302.29 172.02c1.05-2.06 1.77-4.04 2.95-5.7 2.83-3.97 6.01-7.7 8.8-11.7 3.86-5.54 9.42-5.17 12.66.55.9 1.6 2.46 2.93 3.96 4.06 4.65 3.52 4.41 6.92-.77 9.8-2.38 1.33-6.32 1.2-5.84 5.44.44 3.92 3.91 4.43 6.73 6.08 7.83 4.58 11.59 9.94 3.52 17.6-1.41 1.34-3.03 2.47-4.6 3.64-3.25 2.42-5.54 1.42-7.75-1.75-5.56-7.98-11.38-15.78-17.05-23.69-.89-1.25-1.59-2.64-2.61-4.33z"/></g></svg>