<svg enable-background="new 0 0 400 400" viewBox="0 0 400 400" xmlns="http://www.w3.org/2000/svg"><g fill="#000001"><path d="m267.06 255.49c6.37 4.79 22.38 5.9 27.58-.58 2.56-3.19 5.32-.65 7.24.7 3.49 2.45 6.54 5.57 9.57 8.61 1.78 1.78-.18 5.7-3.72 6.67-3.91 1.07-8.01 2.05-12.01 2-9.95-.13-19.6 1.03-29.21 3.71-3.72 1.04-7.98-.04-11.91.49-5.89.8-11.69 2.17-19.17 3.61 3.46 5.94 6.16 10.4 8.66 14.97 1.16 2.12 2.69 4.42 2.76 6.68.32 10.38 4.6 19.79 6.74 29.71 1.31 6.05-6.9 12.53-13.99 10.76-4.77-1.2-7.34-4.7-7.57-10.64-.39-10.1-.36-20.23-1.14-30.3-.48-6.22-.48-12.91-5.45-17.79-1.14-1.12-3.19-2.14-4.66-1.95-5.55.72-9.93-2.02-14.29-4.51-1.56-.89-3.42-3.58-3.08-4.92.46-1.81 2.76-4.16 4.54-4.42 4.77-.69 9.73-.04 14.53-.59 5.78-.65 11.64-1.52 17.18-3.21 3.29-1.01 3.04-6.85-.08-9.24-1.67-1.29-3.76-2.09-5.27-3.53-1.63-1.55-2.8-3.59-4.18-5.41.36-.43.72-.87 1.08-1.3 3.47 0 6.96-.23 10.4.06 4.58.39 6.09-1.81 6.43-6 .74-9.1 1.26-18.09.17-27.29-1.03-8.71.09-17.66-.33-26.47-.28-5.82-1.77-11.58-2.37-17.4-.22-2.11.57-4.33.9-6.5 1.96.47 3.97.78 5.85 1.46 1.19.43 2.11 1.56 3.28 2.12 3.22 1.54 6.13 3.13 9.61-.37 3.54-3.56 8.06-6.12 11.94-9.37.79-.66 1.18-2.66.77-3.62-.34-.8-2.19-1.5-3.26-1.37-9.23 1.14-18.46 2.34-27.65 3.79-7.88 1.24-15.72 2.77-23.56 4.29-7.68 1.48-15.31 3.18-22.99 4.64-5.86 1.11-13.28-4.04-15.85-8.31-.61-1.02.98-4.47 2.43-5.36 1.92-1.17 4.71-1.21 7.12-1.24 8.94-.11 17.9.16 26-4.61.28-.16.61-.36.91-.34 9.11.55 17.9-1.33 26.83-2.89 10.64-1.86 21.55-2.09 32.32-3.26 5-.55 7.78-4.7 6.66-9.33-1.6-6.61-2.96-13.32-5.13-19.74-.68-2-3.51-3.5-5.64-4.73-1.93-1.11-4.41-1.28-6.35-2.38-1.08-.62-2.32-2.47-2.1-3.44.23-.98 2.12-2.05 3.39-2.21 2.79-.33 5.65-.09 8.49-.12 3.61-.03 5.4-1.92 5.53-5.48.38-10.41.67-20.93-4.21-30.46-1.92-3.76-5.64-6.61-9.01-10.4 1.79-1.09 3.52-2.88 5.5-3.23 9.15-1.64 18.33-3.24 27.58-4.13 5.1-.49 11.03 10.39 9.49 16.02-2.53 9.27-5.53 18.45-5.37 28.25.12 7.51 1.88 8.76 9.64 9.57 9.69 1 17.67-2.47 25.32-7.62 7.76-5.22 18.79-.26 20.04 8.98.56 4.18-2.63 8.26-7.08 8.43-2.91.11-5.85-.65-8.79-.81-13.03-.74-26.05-1.6-39.09-1.85-1.63-.03-4.05 3.04-4.86 5.15-2.04 5.28-3.51 10.8-4.96 16.29-1.69 6.41.56 9.19 7.34 9.28 4.61.06 9.23-.34 12.74 3.74 3.6 4.18 2.83 7.08-1.97 9.3-4.23 1.96-8.06 4.79-12.07 7.22-4.98 3.03-9.93 6.12-14.97 9.05-5.25 3.05-6.34 5.16-4.14 10.82 1.69 4.35 3.46 8.89 6.25 12.55 4.69 6.15 9.32 5.13 14.21 1.93 7.84-5.13 14.52-11.51 17.46-20.98 1.56-5.01 5.7-6.03 10.1-3.01 4.17 2.86 8.47 5.52 12.64 8.38 6.62 4.54 6.32 11.93-1.01 14.94-7.63 3.14-15.68 5.27-23.46 8.05-2.88 1.03-5.63 2.51-8.28 4.07-3.46 2.05-3.82 5.02-1.89 8.4 3.83 6.72 9.07 12.01 15.95 15.57 12.32 6.38 24.61 12.82 37.06 18.95 3.74 1.84 8.06 2.47 11.86 4.2 1.58.72 2.5 2.86 3.72 4.36-1.56 1.13-2.97 2.84-4.72 3.31-9.87 2.66-19.84 4.94-29.74 7.53-11.07 2.89-15.31.64-22.37-8.72-.89-1.17-1.4-2.78-2.52-3.6-11.29-8.27-14.07-21.89-20.75-33.02-6.98-11.61-12.87-23.87-19.75-35.55-1.75-2.97-5.15-5.35-8.31-7.01-3.28-1.72-4.74.4-4.62 3.91.72 20.19 1.6 40.38 1.85 60.58.09 5.73-1.76 11.51-2.76 17.51z"/><path d="m114.45 326c5.49 0 9.58.03 13.67-.01 8.37-.07 16.83.01 24.49-3.99 2.45-1.28 4.84-3.25 6.42-5.5 6.52-9.22 12.56-5.11 16.27 1.31.8 1.39 1.26 2.99 1.76 4.53 1.39 4.3-.7 7.48-5.05 7.65-17.2.68-34.39 1.35-51.59 2-5.02.19-8.43 4.73-8.4 11.78.02 5.21-.25 10.18-4.38 14.1-4.58 4.34-11.73 3.75-14.5-1.83-1.68-3.39-2.67-7.34-3.04-11.12-.72-7.39-1.21-14.86-1.02-22.28.35-13.87 1.21-27.73 1.93-41.59.61-11.87 1.36-23.73 1.96-35.59.41-8.09 1.32-16.23.86-24.28-.61-10.61-2.22-21.17-3.69-31.71-.67-4.79-2.43-9.44-2.84-14.23-.14-1.6 2.03-4.33 3.75-4.99 6.03-2.32 12.17.04 15.9 5.8 2.69 4.16 5.94 5.69 11.15 6.23 13.95 1.42 19.99-8.26 26.85-17.16 2.13-2.77 3.78-5.95 6.11-8.52 1.93-2.13 4.32-1.43 6.43.41 4.09 3.55 9.14 6.4 12.11 10.7 2.1 3.04 2.77 8.34 1.79 12.02-2.95 10.97-3.8 22-3.41 33.23.37 10.93.77 21.86.97 32.79.13 6.8-10.03 14.05-16.74 13.6-10.94-.72-21.99-.6-32.94-.01-2.18.12-5.23 3.6-5.99 6.11-1.01 3.34-.6 7.31-.03 10.88.81 5.07 4.62 7.96 9.83 7.62 4.88-.32 9.8-2.04 14.57-1.62 7.31.64 10.99-4.54 15.59-8.19 5.08-4.02 7.29-4.41 11.66.42 2.42 2.68 8.11 4.56 5.71 8.95-1.46 2.66-6.19 4.14-9.72 4.91-5.1 1.12-10.45 1.02-15.68 1.61-8.3.93-16.62 1.78-24.86 3.1-5.04.8-5.56 5.56-6.21 9.4-.82 4.85-1.07 9.84-1.05 14.77.02 3.14.96 6.28 1.36 8.7zm-3.45-90.78c0 1.17.06 2.34-.01 3.5-.27 4.84 1.61 7.33 6.72 8.48 7.26 1.62 13.91.19 20.64-1.94 8.8-2.79 10.1-6.8 10.57-14.44.52-8.45-2.96-11.94-11.25-11.77-4.77.09-9.57.36-14.28 1.05-11.61 1.71-12.39 2.76-12.39 14.62zm18.11-42.22c-3.33 0-6.66.02-9.99-.01-4.16-.04-6.77 2.2-8.39 5.77-3.03 6.67.28 12.61 7.23 12.09 6.96-.52 13.93-1.73 20.74-3.28 6.86-1.57 7.44-3.4 5.33-10.19-.97-3.12-2.43-4.77-5.94-4.44-2.97.28-5.98.06-8.98.06z"/><path d="m95.88 45c5.32 0 9.38-.39 13.33.09 5.81.71 11.73 1.49 17.27 3.27 7.3 2.35 12.55 8.71 14.74 15.04 3.1 8.98 9.36 13.91 16.58 17.66 10.81 5.62 17.93 13.78 22.31 24.91 1.17 2.98 1.02 5-1.45 6.9-2.93 2.25-4.56 6.83-9.83 4.57-6.97-3-10.07-8.92-12.79-15.37-3.9-9.27-9.98-16.79-18.11-22.77-2.63-1.94-4.56-1.68-6.34.68-4.71 6.26-9.3 12.61-13.97 18.9-5.84 7.87-12.11 15.47-17.47 23.65-6.15 9.4-6.22 12.26 5.75 14.48 2.28.42 4.71.2 7.06.04 3.44-.23 6.86-.99 10.29-.98 8.23.02 15.39-1.74 20.95-8.61 5.13-6.34 11.31-5.52 14.88.47 1.6 2.69 1.82 6.9 1.06 10.04-.42 1.75-4.01 3.59-6.36 3.9-15.12 1.94-30.27 3.74-45.46 4.96-4.02.33-8.37-1.07-12.3-2.45-6.96-2.45-9.21-2.05-14.47 3.56-7.15 7.62-14.53 15.02-21.62 22.69-9.98 10.79-19.74 21.78-29.7 32.58-2.26 2.45-5.48 6.25-8.47 3.31-2.8-2.76.48-6.21 2.96-8.76 18.21-18.8 34.08-39.44 48.2-61.44 6.75-10.52 13.83-20.88 19.83-31.82 4.78-8.72 9.2-17.93 11.83-27.47 2.29-8.29-.96-16.78-4.67-24.59-.96-1.99-2.1-3.89-4.03-7.44z"/><path d="m215.29 51.32c9.14.68 16.54 5.96 16.6 13.03.04 4.89-1.02 9.78-1.37 14.68-.31 4.29-.77 8.65-.33 12.89.48 4.6 3.26 5.36 6.9 2.52 2.05-1.6 4.2-3.09 6.36-4.54 4.66-3.14 8.07-2.93 10.33.57 3.25 5.02 2.27 11.14-2.74 13.38-3.64 1.63-7.73 2.52-11.72 3.06-7.27.98-10.28 3.89-10.31 11.11-.03 7.78-4.54 13.82-7.95 20.2-1.68 3.15-5.84 2.56-7.28-.93-2.21-5.37-4.22-10.87-5.7-16.48-1.36-5.16-5.23-7.91-13.7-8.88-1.65-.19-3.76-.8-4.67-1.98-1.44-1.86-1.32-4.15 1.68-4.9 1.74-.44 3.5-.78 5.28-1.03 9.46-1.33 11.76-4.72 10.45-14.37-.54-3.93-.38-8.01-.06-11.98.35-4.3-.7-7.66-4.2-10.42-1.76-1.39-3.15-3.37-4.34-5.32-2.21-3.61-1.2-6.69 2.9-7.84 4.54-1.26 9.25-1.87 13.87-2.77z"/><path d="m205.32 198c-5.59 0-10.38-.13-15.16.04-4.12.14-5.92-2.53-5.95-5.74-.03-3.57 2.94-3.16 5.92-3.49 9.9-1.08 20.13-.74 28.7-7.82 4.86-4.02 9.97.04 14.15 2.74 3.9 2.52 5.1 6.88 3.41 11.33-2.07 5.43-5.38 10.48-6.81 16.05-4.1 15.99-14.15 28.41-23.47 41.34-4.48 6.22-8.27 12.96-13.05 18.92-3.87 4.83-8.7 8.9-13.24 13.15-.65.61-2.13.33-4.6.62 2.44-4.35 4.23-7.85 6.31-11.17 10.68-16.99 17.85-35.44 22.22-54.91 1.5-6.63 1.08-13.68 1.57-21.06z"/><path d="m355.13 322.89c-.88 9.09-4.46 12.4-15.46 15.01-5.3 1.26-10.72-2.74-12.71-9.14-2.45-7.89-4.29-15.99-7.03-23.78-1.94-5.52-5.01-10.62-7.41-15.99-1.05-2.36-1.87-4.87-2.41-7.39-.23-1.07.14-2.81.9-3.41.72-.57 2.66-.54 3.45.06 4.06 3.05 7.68 6.74 11.91 9.52 10.91 7.17 19.36 16.49 25.63 27.83 1.48 2.65 2.41 5.59 3.13 7.29z"/><path d="m213.44 323.02c-.47 4.57-1.11 9.14-1.38 13.73-.39 6.71-4.77 10.38-10.2 12.58-1.97.8-5.82-.09-7.35-1.65-4.8-4.9-6.68-10.83-4.62-17.94 2.7-9.33 4.59-18.89 7.22-28.24.67-2.37 2.84-4.32 4.32-6.47 2.39 1.69 5.55 2.89 7.01 5.17 4.39 6.88 5.22 14.74 5 22.82z"/><path d="m279.37 289.44c9.22 7.26 11.7 16.75 14.45 25.89 1.48 4.94 1.65 10.3 2.14 15.5.52 5.5-2.22 9.75-5.84 13.55-2.85 2.99-6.83 3.89-9.89 1.94-2.46-1.56-4.83-5.25-4.96-8.09-.26-5.62 1.4-11.3 1.64-16.99.33-7.81-.1-15.66.18-23.47.11-2.62 1.39-5.2 2.28-8.33z"/></g><path d="m2.6 9.9.8-1c.9.7 1.9 1.4 2.9 2.3l-.9 1.1c-1.1-1-2-1.8-2.8-2.4zm.5 10.6c.9-2.1 1.6-4.3 2.3-6.7.4.2.8.4 1.3.6-.7 2.1-1.5 4.3-2.2 6.6zm.3-15.2.9-.9c1 .8 2 1.6 2.8 2.4l-1 1c-.9-.9-1.8-1.7-2.7-2.5zm12.6-1.2h1.2v1.4h2.7v1.1h-2.7v2.7h-1.2v-.6h-1.8v1.3h4.9v3.8h-1.2v-.5h-3.7c0 .4-.1.9-.1 1.2h5.1v1h-5.2c0 .5-.1.9-.2 1.2h6v1h-5.2c1.1 1.3 2.9 2 5.5 2.2-.4.4-.7.8-.9 1.3-2.9-.5-4.8-1.6-5.7-3.5h-.1c-.8 1.7-2.7 2.9-5.9 3.6-.2-.4-.6-.8-.9-1.1 2.8-.6 4.6-1.4 5.4-2.5h-4.8v-1h5.3c.1-.3.2-.7.2-1.2h-4.9v-1h5c0-.4 0-.8.1-1.2h-3.6v.5h-1.2v-3.8h4.9v-1.3h-1.8v.5h-1.2v-2.7h-2.7v-1h2.7v-1.4h1.2v1.4h4.8zm-6.7 8.3h3.6c0-.4 0-.9 0-1.4h-3.6zm1.9-4.6h4.8v-1.3h-4.7v1.3zm6.7 3.2h-3.7v1.4h3.7v-2.4z" fill="#fafafb"/><path d="m8.7 22.1h1.3v2.2h2.8v-2.2h1.3v2.2h4.1v9.1h1.7v1.3h-17v-1.3h1.7v-9.1h4.1zm.3 13.1.7 1.2c-1.8.9-3.8 1.9-6 2.9-.2-.4-.5-.8-.8-1.3 2.3-1 4.4-1.9 6.1-2.8zm-3.1-6.4h2.8v-3.2h-2.8zm0 4.6h2.8v-3.3h-2.8zm4.1-4.6h2.8v-3.2h-2.8zm0 4.6h2.8v-3.3h-2.8zm3.6 1.9c2.1.9 4.1 1.8 6.1 2.7l-.7 1.4c-2.2-1.1-4.2-2-6.1-2.9zm3.2-9.7h-2.8v3.2h2.8zm-2.7 7.8h2.8v-3.3h-2.8z" fill="#fafafb"/></svg>