<svg enable-background="new 0 0 400 400" viewBox="0 0 400 400" xmlns="http://www.w3.org/2000/svg"><path d="m33.43 383.89c1-1.95 1.62-4.29 3.08-5.78 4.41-4.48 9.31-8.46 13.72-12.94 6.04-6.14 11.8-12.55 17.7-18.83 1.42-1.51 3.1-2.82 4.38-4.44 2.9-3.68 5.38-7.71 8.47-11.21 7.68-8.7 11.63-18.82 13.64-30.18 1.45-8.23 4.76-16.11 6.84-24.24 1.04-4.09 1.39-8.4 1.68-12.64.32-4.52-.8-9.23 3.07-13 .86-.84.81-2.74.97-4.17.7-6.19 1.66-12.38 1.81-18.59.07-2.86-1.49-5.75-2.32-8.63-3.61 1.55-8.06 2.27-10.63 4.85-3.96 3.98-6.42 9.4-9.89 13.93-5.88 7.67-12.07 15.11-18.1 22.67-2.03 2.55-3.69 5.49-6.04 7.68-1.78 1.66-4.32 2.85-6.7 3.33-.72.14-2.06-2.8-3.12-4.33-2.86-4.15-5.56-8.43-8.63-12.42-5.28-6.87-4.01-11.5 3.29-16 8.83-5.44 17.27-11.55 25.58-17.78 8.52-6.38 16.63-13.31 25.03-19.84 2.56-1.99 5.33-3.97 8.33-5.07 5.22-1.91 5.37-5.83 5.37-10.3-.01-9.51.15-19.03.35-28.54.15-7.32.46-14.64.72-21.95.31-8.6 1.15-17.22.82-25.8-.32-8.14-1.41-16.33-3.12-24.3-.64-3.01-4.17-5.32-5.97-8.21-1.82-2.91-3.14-6.14-4.68-9.24 3.41-1.31 6.73-3.13 10.26-3.83 10.93-2.17 19.5 3.58 28.26 8.86 5.19 3.13 10.75 4.9 17.24 3.34 4.1-.98 8.61-.23 12.94-.25 3.7-.02 7.4.06 11.09-.07 7.76-.27 15.53-1.02 23.28-.87 5.26.1 7.63-1.93 8.8-6.88 2.97-12.56 1-24.5-5.29-35.39-2.4-4.16-7.37-6.84-11.53-10.52.49-2.26 1.14-3.87 4.68-3.83 4.88.05 9.95-2.06 14.6-1.25 5.38.94 10.4 4.01 15.55 6.23 3.59 1.55 7.26 2.99 10.66 4.91 1.71.96 3.41 2.64 4.22 4.4 3.14 6.81 3.26 13.18-1.57 19.84-2.58 3.56-3.5 8.7-4.04 13.26-.5 4.19 3.14 7.17 8.31 7.03 16.37-.45 32.74-1.21 49.1-1.93 3.27-.14 6.54-.54 9.78-1.04 1.57-.24 3.26-.69 4.55-1.55 4.84-3.21 9.21-7.37 14.42-9.68 2.66-1.18 7.35-.18 10.03 1.54 7.41 4.75 14.43 10.17 21.2 15.82 2.04 1.7 3.92 5.08 3.78 7.57-.19 3.55-3.72 4.58-7.17 4.34-13.97-.96-27.92-2.13-41.9-2.74-3.56-.15-7.19 1.48-12.52 2.68 3.56 4.48 6.46 8.08 9.3 11.72 2.31 2.96 7.02 4.56 5.73 9.62-1.01 3.98-6.26 7.56-11.59 7.68-7 .15-14 .04-21 .04s-14 0-21 0c-6.97 0-9.76 1.57-11.24 8.44-1.13 5.25-1.11 10.86-.8 16.26.09 1.52 3.06 4.13 4.65 4.09 8.69-.2 17.36-1.39 26.05-1.61 7.08-.18 14.18.39 21.26.86 10.46.69 20.13-1.52 29.28-6.74 6.87-3.92 13.52-2.63 19.94 1.77 4.14 2.84 8.55 5.33 13.02 7.63 4.23 2.17 4.43 6.17 3.17 9.28-.79 1.98-4.64 3.88-7.08 3.84-10.37-.19-20.73-1.28-31.1-1.7-3.91-.16-7.85.71-11.79.89-3.52.16-7.06-.08-10.58.04-8.29.28-16.58.5-24.85 1.1-3.36.24-4.76 4.41-2.3 8.2 4.24 6.55 8.64 12.98 16.05 16.75 8.29 4.21 16.18 9.2 24.39 13.57 6.35 3.38 13.04 5.69 20.34 6.51 4.05.46 7.84 2.85 11.89 3.76 6.01 1.36 12.15 2.18 18.22 3.23.8 4.53-2.37 6.07-5.04 7.88-6.34 4.3-12.86 8.35-19.04 12.86-9.73 7.09-13.67 5.62-21.35-.05-.79-.58-1.46-1.49-2.34-1.78-8.93-3.03-15-9.28-20.51-16.69-1.99-2.67-6.1-4.26-9.55-5.22-4.61-1.29-7.75-3.73-10.2-7.71-2.73-4.44-6.2-8.45-8.65-13.03-2.2-4.11-3.46-8.71-5.09-13.12-.9-2.43-1.46-5.02-2.6-7.33-2.71-5.52-9.38-8.31-14.68-5.65-2.06 1.03-4.47 3.94-4.47 6-.02 7.37 1.03 14.74 1.45 22.12.26 4.65.24 9.33.14 13.99-.12 5.59-.91 11.21-.55 16.76.2 2.95 2.47 5.07 6.29 4.9 7.5-.34 14.96.76 21.73-4.55 4.3-3.37 13.12-.29 17.69 4.21 2.2 2.17 5.04 4.13 7.94 5.07 7.02 2.26 8.7 4.13 5.33 10.19-4.42 7.94-3.63 15.62-1.47 23.76.87 3.29.88 6.82 1.17 10.25.7 8.2 1.45 16.39 1.92 24.6.14 2.57-.88 5.2-.83 7.79.09 4.6-.01 9.35 1.05 13.77 3.26 13.62-9.84 30.51-23.53 32.6-5.23.8-8.39-1.76-8.62-7.22-.26-6.27-.38-12.56-1.17-18.77-.21-1.64-2.55-4.09-4.14-4.28-5.97-.7-12.05-1-18.06-.72-8.03.38-16.03 1.48-24.05 2.2-8.03.72-16.07 1.27-24.09 2.07-6.38.64-5.69 6.09-6.41 10.28-1.25 7.22-2.99 14.26-9.04 18.95-2.83 2.19-6.45 3.74-9.95 4.56-4.08.96-7.09-2.11-7.02-6.77.18-11.1.79-22.2.9-33.3.16-17.16.14-34.33 0-51.49-.07-7.77-.62-15.54-.94-23.3-.05-1.33.11-2.68-.04-4-.89-8.19-4.65-10.72-12.37-7.91-4.74 1.72-9.21 4.16-13.92 5.97-1.92.74-4.16.97-6.23.85-1.17-.07-3.16-1.27-3.21-2.05-.09-1.55.46-4.1 1.53-4.61 9.1-4.39 14.97-11.74 20.39-19.96 2.5-3.8 7.37-5.96 10.43-9.51 7.49-8.68 14.76-17.58 21.69-26.71 4.29-5.64.68-12.75-6.55-12.92-5.56-.13-11.24.36-16.68 1.46-7.19 1.46-12.54-1.07-17.05-6.17-2.29-2.59-2.04-5.6-.39-8.5 1.8-3.14 4.27-1 6.56-.9 3.84.17 7.69-.11 11.54-.05 10.15.17 20.31.74 30.46.52 6.56-.15 13.67-.49 18.65-5.28 1.96-1.89 2-6.28 2.07-9.55.16-7.38-3.95-14.08-10.83-15.78-4.34-1.07-9.31.12-13.96.61-10.27 1.07-20.5 2.43-30.78 3.4-1.35.13-2.85-1.36-4.29-2.1 1.03-1.12 1.88-2.95 3.1-3.25 9.62-2.34 19.26-4.7 29.01-6.44 10.6-1.9 21.33-3.13 31.99-4.69 9.87-1.44 19.83-2.46 29.56-4.55 7.37-1.59 14.62-4.16 21.6-7.06 5.37-2.23 5.6-11.19-.83-12.45-8.14-1.59-16.44-2.54-24.72-3.11-7.5-.51-15.09-.49-22.59-.02-5.64.35-11.21 1.85-16.83 2.67-2.49.37-5.05.33-7.57.48-3.58.21-7.16.43-10.74.63-6.27.35-12.54.62-18.8 1.03-9.7.62-19.43 1.05-29.06 2.23-1.91.23-4.47 3.27-4.96 5.42-1.34 5.87-1.87 11.95-2.43 17.97-.26 2.84.26 5.74.21 8.61-.3 16.62-.7 33.24-.98 49.86-.14 8.19-.08 16.38-.14 24.57-.01.8-.04 1.72-.42 2.36-3.42 5.71-2.7 12.01-2.38 18.13 1.08 20.95-3.5 40.99-8.52 61.12-2.81 11.26-7.6 21.68-11.7 32.36-3.62 9.41-8.25 18.69-13.99 26.95-7.57 10.88-16.34 20.98-27.67 28.48-3.39 2.24-5.95 5.71-9.03 8.46-7.05 6.27-15.8 8.87-24.28 12.01-.46-.56-.93-1.11-1.41-1.66zm198.7-101.27c-.07-.57-.13-1.15-.2-1.72-10.38 1.37-20.79 2.57-31.13 4.26-1.76.29-4.18 2.42-4.56 4.1-.95 4.12-1.24 8.47-1.17 12.72.17 9.17 3.3 12.21 12.25 11.92 2.81-.09 5.56-1.56 8.39-1.84 5.74-.56 11.53-.52 17.27-1.11 11.55-1.19 23.14-2.29 34.6-4.11 7.65-1.21 8.92-2.81 8.44-9.94-.15-2.32 0-4.66-.03-6.99-.08-6.78-4.67-10.58-11.38-9.94-10.81 1.04-21.65 1.79-32.48 2.65zm-22-12.4c14.76-1.16 28.06-2.1 41.34-3.3 5.52-.5 11.1-1.11 16.45-2.46 7.77-1.97 11.47-14.15 6.48-20.46-.88-1.11-2.25-2.31-3.54-2.51-4.52-.7-9.14-1.56-13.66-1.3-10.98.63-21.94 1.84-32.9 2.82-7.35.66-14.73 1.14-22.05 2.04-6.54.81-9.14 4.31-9.24 11.57-.11 7.56 2.46 11.24 8.83 12.41 3.2.58 6.45.93 8.29 1.19zm7.87-54.1c.4-.07.8-.14 1.21-.21-1.73-9.77-3.37-19.56-5.35-29.29-.19-.95-2.92-2.42-3.67-2.05-3.73 1.87-7.65 3.79-10.66 6.6-5.55 5.18-10.55 10.95-15.72 16.54-2.37 2.56-5 5.01-6.7 7.98-.87 1.52-.55 4.39.35 6.06 1.13 2.1 3.12 4.08 5.22 5.25 4.69 2.62 8.18 7.83 14.58 7 3.57-.46 7.19-.61 10.77-1.03 6.15-.71 10.42-2.75 9.99-10.37-.12-2.14-.02-4.31-.02-6.48z" fill="#000001"/><path d="m65.02 129.6c7.73 5.07 15.73 10.03 23.39 15.46 3.87 2.74 7.3 6.18 10.62 9.61 3.85 3.96 3.51 9.24 2.83 14.05-.76 5.37-3.19 10.49-8.14 13.23-8 4.42-19.18-.4-19.6-12.45-.39-11.41-4.5-21.44-9.38-31.4-1.17-2.4-3.39-5.22.28-8.5z" fill="#000001"/><g fill="#fafafb"><path d="m2.6 9.9.8-1c.9.7 1.9 1.4 2.9 2.3l-.9 1.1c-1.1-1-2-1.8-2.8-2.4zm.5 10.6c.9-2.1 1.6-4.3 2.3-6.7.4.2.8.4 1.3.6-.7 2.1-1.5 4.3-2.2 6.6zm.3-15.2.9-.9c1 .8 2 1.6 2.8 2.4l-1 1c-.9-.9-1.8-1.7-2.7-2.5zm12.6-1.2h1.2v1.4h2.7v1.1h-2.7v2.7h-1.2v-.6h-1.8v1.3h4.9v3.8h-1.2v-.5h-3.7c0 .4-.1.9-.1 1.2h5.1v1h-5.2c0 .5-.1.9-.2 1.2h6v1h-5.2c1.1 1.3 2.9 2 5.5 2.2-.4.4-.7.8-.9 1.3-2.9-.5-4.8-1.6-5.7-3.5h-.1c-.8 1.7-2.7 2.9-5.9 3.6-.2-.4-.6-.8-.9-1.1 2.8-.6 4.6-1.4 5.4-2.5h-4.8v-1h5.3c.1-.3.2-.7.2-1.2h-4.9v-1h5c0-.4 0-.8.1-1.2h-3.6v.5h-1.2v-3.8h4.9v-1.3h-1.8v.5h-1.2v-2.7h-2.7v-1h2.7v-1.4h1.2v1.4h4.8zm-6.7 8.3h3.6c0-.4 0-.9 0-1.4h-3.6zm1.9-4.6h4.8v-1.3h-4.7v1.3zm6.7 3.2h-3.7v1.4h3.7v-2.4z"/><path d="m8.7 22.1h1.3v2.2h2.8v-2.2h1.3v2.2h4.1v9.1h1.7v1.3h-17v-1.3h1.7v-9.1h4.1zm.3 13.1.7 1.2c-1.8.9-3.8 1.9-6 2.9-.2-.4-.5-.8-.8-1.3 2.3-1 4.4-1.9 6.1-2.8zm-3.1-6.4h2.8v-3.2h-2.8zm0 4.6h2.8v-3.3h-2.8zm4.1-4.6h2.8v-3.2h-2.8zm0 4.6h2.8v-3.3h-2.8zm3.6 1.9c2.1.9 4.1 1.8 6.1 2.7l-.7 1.4c-2.2-1.1-4.2-2-6.1-2.9zm3.2-9.7h-2.8v3.2h2.8zm-2.7 7.8h2.8v-3.3h-2.8z"/></g></svg>