<svg enable-background="new 0 0 400 400" viewBox="0 0 400 400" xmlns="http://www.w3.org/2000/svg"><g fill="#010000"><path d="m82.01 54.11c7.5 1.36 12.68 5.59 15.99 10.93 2.05 3.31 1.23 8.43 1.56 12.75.08 1.1-.52 2.25-.54 3.38-.37 17.93-.45 35.87-1.17 53.78-.21 5.3 1.95 8.56 6.34 9.43 4.2.83 8.9-.89 10.59-5.21 2.05-5.22 3.59-10.86 4.05-16.43.67-8.11.15-16.31.18-24.48.03-7.81 1.1-8.37 8.58-8.19 3.8.09 7.67-1.63 11.47-2.67 2.46-.67 4.82-2.09 7.29-2.29 6.48-.52 9.5-4.4 8.33-10.89-.84-4.67-2.86-6.76-7.99-6.31-11.33.99-22.71 1.56-34.08 2.01-2.99.12-6.02-.81-9.26-1.29 1.1-5.83 5.53-7.53 9.54-8.37 7.66-1.62 15.52-2.3 23.31-3.23 8.58-1.03 17.58-.84 22.51-10.14 2.02-3.81 6.11-3.61 9.29-2.64 4.57 1.4 8.67 4.34 9.86 9.34.71 3.01.56 6.4.06 9.49-1.44 8.84-3.44 17.59-4.88 26.43-1.54 9.49-3.1 19.01-3.85 28.59-.35 4.44 1.04 9.05 2 13.5.16.73 2.58 1.82 3.29 1.46 4.87-2.53 7.94-.83 10.5 3.51 1.9 3.22 4.03 6.34 6.41 9.21 4.61 5.59 3.17 12.91-3.39 16.22-2.49 1.25-4.86 2.8-7.45 3.76-9.31 3.44-13.35 10.81-14.41 19.92-1.1 9.48-2 19.04-2 28.57 0 24.09.12 48.21 1.11 72.28.38 9.25 1.08 18.31-1.14 27.4-.35 1.43.23 3.08.37 4.63.49.23.97.47 1.46.7 4.23-4.45 8.99-8.52 12.58-13.44 6.52-8.95 12.48-18.32 18.4-27.69 1.89-2.99 2.94-6.53 4.39-9.81 1.23-2.79 3.07-3.34 5.32-1.19 3.13 2.99 6.25 6 9.18 9.18 2.35 2.56 1.27 9.92-2.22 13.54-3.48 3.61-7.41 6.78-11.1 10.19-4.8 4.42-9.35 9.13-14.38 13.26-6.95 5.7-14.24 11-21.44 16.38-.86.65-2.18 1.18-3.2 1.05-9-1.11-14.46 5-20.54 9.87-6.6 5.29-11.23 4.65-14.85-3.11-3.34-7.15-8.54-12.16-14.81-16.45-.77-.53-1.49-1.18-2.07-1.9-.24-.3-.04-.95-.04-2.15h15.25c9.58 0 14.23-4.41 14.61-14 .38-9.76.82-19.52.99-29.29.42-24.59.72-49.19 1.01-73.78.08-6.43-.47-7.14-6.74-6.87-10.53.46-21.06 1.16-31.57 2-4.12.33-7.65 1.82-7.79 6.99-.06 2.26-.82 4.51-.85 6.76-.1 8.21 3.07 10.41 11.16 9.21 7.63-1.13 15.38-1.53 23.09-1.88 1.52-.07 4.47 1.69 4.42 2.45-.13 1.96-1.15 5.05-2.55 5.53-4.41 1.5-9.14 2.13-13.78 2.85-6.56 1.01-13.36.84-19.15 4.95-4.41 3.13-5.84 7.4-4.2 13.7 1.1 4.25 5.02 7.54 9.92 7.28 7.87-.41 15.75-1.1 23.53-2.29 2.88-.44 4.68-.6 5.56 2.43.95 3.28-.07 6.01-3.38 6.84-4.25 1.06-8.68 1.4-13.02 2.12-5.78.96-11.65 1.64-17.28 3.17-2.06.56-4.1 2.94-5.15 4.99-1.05 2.07-1.06 4.77-1.16 7.2-.73 18.36-1.37 36.72-2.04 55.09-.21 5.74-1.53 11.03-6.01 15.05-.61.55-1.24 1.15-1.97 1.46-8.75 3.75-11.81 3.18-11.03-6.24 1.34-16.07 2.73-32.13 3.91-48.2.35-4.81-.17-9.68.15-14.49.41-6.21 1.62-12.37 1.87-18.58.56-13.75.58-27.52 1.13-41.27.3-7.55 1.54-15.06 1.8-22.6.19-5.58-.43-11.2-.89-16.79-.54-6.54-1.28-13.05-2-19.57-.1-.94-.49-1.87-.88-2.75-1.84-4.11-2.24-8.28.77-11.87 3.84-4.57 3.88-10.24 3.94-15.36.2-17.79-.5-35.59-.76-53.39-.16-7.81-.06-15.63-.06-23.73zm62.62 124.93c1.03-4.03 1.67-7.58 2.86-10.94 1.34-3.77 3.83-4.06 6.49-1.07.87.98 1.54 2.47 2.61 2.87 1.18.43 3.75.25 3.96-.32 2.02-5.43 3.87-10.95 5.36-16.56.77-2.9-.98-4.38-3.98-4.01-2.09.26-4.38.19-6.21 1.05-8.45 3.99-17.09 4.8-26.5 4.82-10.78.02-21.44 3.73-32.35-.55-2.12-.83-6.49.99-8.07 2.98-1.04 1.32.78 5.23 1.82 7.77.85 2.06 2.37 3.88 3.74 5.69 5.08 6.7 11.62 10.35 20.23 9.18 2.38-.32 4.67-1.83 7-1.81 7.61.05 15.19.55 23.04.9zm6.6-69.16c-.08-.01-.15-.01-.23-.02 0-.33 0-.67 0-1 .13-13.65-.2-10.41-10.96-10.9-4.73-.22-6.66 2.31-7 6.4-.79 9.68-1.5 19.37-2 29.08-.39 7.37 2.44 8.26 7.57 9.35 3.53.75 9.94-4.63 10.34-8.34.86-8.18 1.53-16.38 2.28-24.57z"/><path d="m189.2 197.5c1.32-.48 2.65-1.13 4.06-1.43 6.92-1.46 8.73-3.56 8.73-10.57.02-18.32.22-36.65-.08-54.97-.16-9.54-1.41-19.05-1.77-28.59-.07-1.91 1.67-3.89 2.57-5.84 1.82.86 3.96 1.37 5.41 2.65 3.49 3.08 6.53 6.67 9.97 9.8 4.35 3.95 12.09 5.72 15.59.15 1.16-1.85 2.2-4.19 2.17-6.29-.13-7.08-.23-14.24-1.36-21.2-1.03-6.34-4.94-7.61-12.9-6.08-4.97.96-10.05 1.5-15.11 1.8-4.78.29-12.55-5.46-14.06-10.04-1.35-4.08 2.32-5.03 4.36-4.68 6.33 1.06 12.47 1.21 18.78-.06 2.27-.46 4.82.75 7.25.82 15.09.41 30.18.77 45.27 1.01 8.99.14 18 .28 26.98-.06 6.54-.25 13.08-1.12 19.57-2.06 1.39-.2 2.81-1.68 3.78-2.91 2.02-2.55 3.74-5.34 5.6-8.02 3.3-4.73 7.01-5.31 11.02-1.31 4.33 4.32 8.45 8.86 12.41 13.52.82.96 1.1 3.11.6 4.27s-2.26 2.42-3.52 2.49c-14.85.83-29.71 1.53-44.58 2.03-3 .1-6.03-.75-9.12-1.18-8.76 5.58-6.74 14.92-6.82 23.64-.1 12.1-1.49 12.47 13.45 13.8 9.42.84 15.19-2.41 18.95-10.86 1.78-4.01 5.24-5.63 9.69-3.32 1.73.89 3.66 1.38 5.41 2.22 6.45 3.12 8.46 7.05 5.88 13.79-4.79 12.54-6.05 25.67-7.4 38.82-.66 6.36-1.28 12.73-2.04 19.08-.13 1.04-.72 2.14-1.38 3-2.71 3.56-5.96 6.79-8.09 10.65-.97 1.75-.06 4.76.51 7.08.7 2.82 2.24 5.45 2.86 8.28.66 3.02-.02 5.77-3.91 6.07-13.45 1.03-26.89 2.18-40.35 2.96-10.32.6-20.76 1.73-30.98.78-11.24-1.04-21.44 4.04-32.36 3.59-4.82-.2-9.66-.59-14.42-1.32-7.98-1.23-10.31-3.9-10.62-11.51zm80.31.5c10.17-1.69 22.38-3.79 33.37-10.06 1.28-.73 3.05-2.68 2.81-3.61-1.06-4.19-2.37-8.45-4.51-12.15-.59-1.01-4.36-.15-6.67-.22-2.48-.08-4.96-.13-7.42-.4-4.06-.44-8.09-1.47-12.14-1.47-7.93.01-15.95 1.42-23.78.66-8-.77-15.86-2.55-23.91-.75-4.15.93-9.2.23-11.21 5.38-1.23 3.17-2.29 6.45-2.96 9.78-1.83 9.08 1.95 13.37 10.58 12.87 9.29-.54 18.59-.87 27.89-.98 5.28-.05 10.55.54 17.95.95zm14.49-64.98c.38 3.72.38 6.89 1.09 9.9 1.03 4.39 2.27 8.79 3.98 12.96 1.86 4.54 6.37 7.06 10.57 6.56 2.54-.3 5.55-4.43 6.69-7.46 4.22-11.27 3.57-23.11 2.1-34.78-.28-2.23-3.44-5.84-5.31-5.86-11.97-.14-19.22 7.56-19.12 18.68zm-69 8.61c0 2.32.03 4.65 0 6.97-.18 14.16-.68 12.34 13.19 12.27 1.28-.01 3.05-1.42 3.76-2.66 4.42-7.73 3.05-16.31 2.99-24.61-.09-12.51-4.53-13.22-13.08-12.61-4.4.31-6.76 2.66-6.84 7.2-.08 4.48-.02 8.96-.02 13.44zm55.43-5.19c-.14-.01-.29-.03-.43-.04 0-3 .02-6 0-9-.05-8.55-1.48-9.75-9.91-8.42-.49.08-1.01-.04-1.5.05-4.17.78-8.52 4.87-8.49 8.9.06 8.93.32 17.88 1.16 26.76.18 1.9 2.85 4.39 4.91 5.14 4.97 1.79 11.67-2.57 12.71-8.2.92-4.99 1.06-10.12 1.55-15.19zm-20.02-62.17c.97 4.26 2.19 7.78 2.49 11.39.41 4.77.08 9.61.1 14.42.05 10.05-1.13 8.52 9.12 9.05 5.29.27 6.71-2.4 6.82-6.57.19-6.99.29-13.99-.01-20.97-.27-6.25-3.15-8.72-9.37-8.54-2.73.08-5.44.7-9.15 1.22z"/><path d="m267.91 247.98c-.67 6.24-1.73 12.07-1.82 17.92-.25 15.33.14 30.67-.17 45.99-.21 10.13 1.55 20.64-3.94 30.05-1.24 2.12-3.15 3.97-5.07 5.55-4.3 3.53-8.72 6.92-13.25 10.16-2.81 2.01-7.01.45-7.56-3.02-1.84-11.7-9.41-17.65-19.92-21.15-1.84-.61-3.22-2.59-5.29-4.34 8.27-1.53 15.14-2.8 22-4.09 5.65-1.06 7.32-4.57 8.34-10.19 2.8-15.36 1.2-30.76 1.79-46.12.15-3.94 1.26-7.94.85-11.8-.91-8.57-2.27-9.52-11.01-8.91-6.55.46-13.06 1.42-19.61 1.91-10.53.79-21.08 1.23-31.6 2.11-5.04.42-7.21-2.28-8.36-6.45-.6-2.19-1.22-4.51-1.08-6.72.07-1.02 1.94-2.78 2.98-2.76 13.43.15 26.85.57 40.28.88 2.86.07 5.72.03 8.57-.02 16.63-.32 33.26-.61 49.89-1.02 8.6-.21 17.21-.56 25.8-1 7.95-.4 13.96-4.81 19.65-9.85 1.96-1.74 3.96-3.5 6.16-4.9 6.28-4.01 10.89-2.39 16.87 4.59 4.52 5.27 9.87 9.83 14.64 14.91 1.33 1.42 1.92 3.54 2.85 5.34-1.69.65-3.38 1.87-5.06 1.85-9.8-.14-19.6-.99-29.39-.8-14.07.27-28.12 1.27-42.19 1.84-4.79.2-9.62.04-15.35.04z"/><path d="m277.79 260.2c7.84-.55 12.87 2.35 18.1 5.12 6.08 3.22 12.49 5.84 18.78 8.66 6.93 3.1 14.15 5.65 20.74 9.35 5.06 2.84 7.81 7.84 7.63 14.05-.09 3.03.14 6.07.2 9.11.2 9.92-8.31 13.79-14.06 19.23-4.15 3.93-9.99 1.46-13.15-5.11-3.09-6.43-4.84-13.53-8.21-19.79-5.82-10.8-12.6-21.03-21.29-29.88-2.93-2.98-5.32-6.49-8.74-10.74z"/><path d="m59.3 127.04c1.87 4.26 3.77 8.5 5.62 12.77 1.92 4.44 3.52 9.05 5.77 13.32 2.35 4.46 2.81 8.78-.2 12.78-5.26 6.98-10.81 13.75-16.45 20.44-1.19 1.41-3.19 2.27-4.96 3.04-3.43 1.49-6.42-.14-5.92-3.78.73-5.26 2.64-10.34 3.86-15.54 2.07-8.85 3.94-17.74 6-26.59 1.27-5.46 2.73-10.88 4.1-16.32.73-.05 1.46-.09 2.18-.12z"/></g><path d="m6.44 374.46.42-.45c.65.47 1.27.95 1.85 1.44l-.45.49c-.65-.56-1.25-1.06-1.82-1.48m.93 7.33-.63-.26c.55-1.36 1.05-2.8 1.52-4.33.19.1.38.19.59.27-.46 1.29-.95 2.73-1.48 4.32m-.38-10.38.44-.42c.43.34 1.01.82 1.74 1.44l-.49.49c-.53-.51-1.09-1.01-1.69-1.51m2.5.35h1.72v-1.04h.59v1.04h3.52v-1.04h.59v1.04h1.75v.53h-1.75v1.42h-2.03v.97h3.22v2.03h-3.24c0 .35-.01.66-.03.93h3.32v.53h-3.37c-.03.27-.08.58-.15.94h3.96v.53h-3.71c.67.92 1.93 1.48 3.79 1.68-.13.24-.23.44-.29.59-2.13-.38-3.48-1.08-4.04-2.12-.43.97-1.77 1.72-4.03 2.23-.09-.19-.2-.37-.33-.55 2.1-.42 3.37-1.03 3.81-1.83h-3.36v-.53h3.58c.08-.29.13-.61.16-.94h-3.33v-.53h3.39c.02-.27.04-.58.04-.93h-3.23v-2.03h3.25v-.97h-2.07v-1.42h-1.73zm1.12 3.44v1h2.65c.01-.3.02-.44.01-.4v-.25-.35zm1.19-2h3.52v-.91h-3.52zm4.71 2h-2.63v.59c0 .15-.01.28-.01.4h2.64z" fill="#fbfafc"/><path d="m13.56 383.74h.63v1.52h2.72v6.07h1.13v.6h-11.06v-.6h1.13v-6.07h2.73v-1.52h.63v1.52h2.1v-1.52zm-2.69 8.83.38.56c-1.24.63-2.53 1.25-3.85 1.85-.1-.21-.21-.42-.34-.63 1.36-.55 2.63-1.15 3.81-1.78m-2.13-4.27h2.1v-2.45h-2.1zm0 3.04h2.1v-2.46h-2.1zm2.72-3.04h2.1v-2.45h-2.1zm0 3.04h2.1v-2.46h-2.1zm6.07 3.6c-1.41-.71-2.7-1.3-3.86-1.78l.35-.56c1.45.62 2.75 1.19 3.88 1.72zm-1.25-9.09h-2.1v2.45h2.1zm-2.09 5.49h2.1v-2.45h-2.1z" fill="#fbfafc"/></svg>