<svg enable-background="new 0 0 400 400" viewBox="0 0 400 400" xmlns="http://www.w3.org/2000/svg"><path d="m5.17 384 .55-.58c.85.61 1.65 1.24 2.4 1.87l-.59.64c-.83-.73-1.62-1.38-2.36-1.93m1.22 9.53-.82-.34c.71-1.76 1.37-3.64 1.98-5.63.24.13.5.25.76.36-.6 1.67-1.24 3.54-1.92 5.61m-.5-13.5.57-.54c.56.44 1.31 1.06 2.26 1.87l-.64.64c-.68-.66-1.41-1.32-2.19-1.97m3.25.46h2.24v-1.36h.77v1.36h4.57v-1.36h.76v1.36h2.28v.69h-2.28v1.84h-2.64v1.26h4.18v2.64h-4.21c0 .45-.02.86-.05 1.21h4.32v.69h-4.38c-.04.34-.1.75-.19 1.22h5.15v.69h-4.82c.87 1.19 2.51 1.92 4.93 2.19-.17.31-.3.57-.37.76-2.77-.49-4.52-1.41-5.26-2.76-.56 1.26-2.3 2.23-5.24 2.9-.12-.24-.26-.48-.43-.72 2.73-.55 4.38-1.34 4.96-2.38h-4.38v-.69h4.65c.1-.38.17-.79.21-1.22h-4.32v-.69h4.4c.03-.34.05-.75.05-1.21h-4.2v-2.64h4.23v-1.26h-2.69v-1.84h-2.24zm1.46 4.46v1.29h3.45c.01-.4.02-.57.01-.53v-.32-.45h-3.46zm1.55-2.59h4.57v-1.19h-4.57zm6.11 2.59h-3.42v.77c-.01.19-.01.37-.02.53h3.44v-1.29z" fill="#fcfbfa"/><path d="m32.63 379.16h.82v1.98h3.54v7.89h1.46v.78h-14.37v-.78h1.46v-7.89h3.54v-1.98h.82v1.98h2.73zm-3.49 11.48.5.73c-1.61.82-3.28 1.63-5 2.41-.13-.27-.28-.55-.44-.82 1.75-.72 3.4-1.49 4.94-2.32m-2.78-5.55h2.73v-3.18h-2.73zm0 3.95h2.73v-3.2h-2.73zm3.54-3.95h2.73v-3.18h-2.73zm0 3.95h2.73v-3.2h-2.73zm7.89 4.68c-1.84-.92-3.51-1.7-5.02-2.32l.45-.73c1.89.8 3.57 1.55 5.04 2.23zm-1.62-11.81h-2.73v3.18h2.73zm-2.73 7.13h2.73v-3.2h-2.73z" fill="#fcfbfa"/><g fill="#010102"><path d="m276.09 339.56c0-1.81 0-3.3 0-5.56 3.13 0 6.29-.47 9.26.09 8.18 1.53 12.59-3.51 16.62-9.11 6.75-9.4 9.2-20.4 11.01-31.55 1.49-9.2 2.52-18.47 4.15-27.63.56-3.13 2.53-5.98 3.51-9.08 3.48-10.95 1.55-13.25-9.95-12.66-8.05.41-16.07 1.3-24.1 1.93-17.07 1.34-34.14 2.63-51.21 3.99-7.87.62-15.76 1.11-23.57 2.13-4.02.53-4.92-1.11-4.81-4.5.08-2.5.02-5 .02-7.5 0-36.99.16-73.99-.09-110.98-.08-11.54-1.25-23.07-1.9-34.61-.09-1.64-.01-3.29-.01-6.45 4.26 1.5 7.96 2.37 11.23 4.06 6.05 3.13 8.56 3.11 12.71-2.2 8.56-10.94 14.6-23.12 17.08-36.92.17-.94.59-1.84.89-2.76 3.25-10 6.14-10.77 14.56-4.38 5.16 3.92 10.97 7.02 15.91 11.18 5 4.21 4.91 7.55.04 11.9-6.61 5.91-13.48 11.52-20.48 16.96-2.93 2.28-4.37 4.76-3.67 9.27 9.07.7 17.74.55 25.33-6.17 4.21-3.74 8.87-7.13 13.8-9.81 1.84-1 5.66-.39 7.48.96 5.99 4.44 12.1 9 16.99 14.55 5.95 6.77 3.9 12.8-2.49 17.83-3.56 2.8-4.16 5.67-3.05 8.87 3.2 9.2.68 18.19-.14 27.27-.48 5.24-.13 10.62-1.13 15.75-1.91 9.8-5.74 11.7-15.7 10.66-6.79-.71-13.74-.4-20.57.08-8.33.59-16.6 1.91-24.91 2.79-4.42.47-8.88.55-13.29 1.09-6.14.75-8.64 4.73-7.11 10.88.2.79.35 1.6.51 2.4.59 2.96.3 7.66 1.95 8.49 3.1 1.55 7.67 1.96 11.01.9 11.12-3.53 22.65-3.22 33.98-4.68 7.17-.92 12.08-5.47 17.16-9.74 6.38-5.36 11.54-6.13 17.93-1.22 4.11 3.16 8.06 6.8 11.13 10.93 1.63 2.19 1.46 5.87 1.6 8.89.03.64-2.11 1.91-3.3 1.98-8.42.5-16.89.45-25.29 1.16-12.09 1.03-24.13 2.61-36.2 3.84-7.85.8-15.72 1.47-23.59 2.07-5.4.41-7.26 2.23-7.37 7.69-.01.5 0 1 0 1.5-.01 7.65 5.04 11.23 11.63 7.28 5.23-3.13 10.37-2.54 14.99-.89 6.59 2.35 12.74 1.4 19.16.43 7.44-1.12 14.89-2.17 22.38-2.93 5.91-.6 12.11.17 17.7-1.39 3.52-.98 6.95-4.64 9.04-7.97 8.29-13.21 8.63-10.23 16.28-1.86 5.74 6.27 10.94 13.06 16.01 19.9 4.22 5.69 3.65 12-.75 17.11-7.63 8.86-9.57 19.79-12.43 30.46-3.42 12.72-5.73 25.88-10.6 38.02-3.12 7.77-10.08 13.96-15.15 20.98-4.51 6.24-10.02 11.16-17.16 14.15-7.68 3.21-10.25 2.11-13.05-5.55-2.82-7.62-4.26-9.43-9.98-12.32zm-9.38-199.56c-6.45.56-14.99 1.01-23.45 2.14-7.11.96-15.04 1.32-15.24 11.76-.14 7.57 1.52 13.22 7.49 13.01 3.56-.12 7.1-.91 10.63-1.5 6.58-1.1 13.11-2.87 19.72-3.28 9.55-.59 10.21-.67 12.48-9.88 2.59-10.45 1.18-12.25-11.63-12.25zm.5-33c-.01-.07-.02-.15-.02-.22-4.09.41-8.17.84-12.27 1.21-4.09.37-8.18.82-12.28.98-12.38.5-14.9 3.1-14.64 15.38.01.5-.02 1 .01 1.5.16 2.93 1.4 4.47 4.65 4.18 12.32-1.08 24.66-1.9 36.97-3.09 6.06-.58 9.99-6.81 9.36-14.02-.34-3.88-3.87-5.91-10.28-5.92-.5 0-1 0-1.5 0z"/><path d="m151.53 86.33c10.11 6.92 19.79 13.7 29.64 20.23 6 3.98 12.13 7.52 14.27 15.26 2.66 9.65-3.09 19.11-12.89 19.79-1.6.11-3.84-2.05-4.99-3.71-2.17-3.15-3.71-6.73-5.61-10.08-3.63-6.38-7.16-12.82-11.06-19.02-2.35-3.72-5.33-7.04-8.03-10.55-.64.19-1.28.39-1.92.58-.64 1.85-1.83 3.69-1.85 5.55-.14 19.83-.12 39.66-.06 59.48.02 5.04 1.37 5.99 5.4 4.29 8.8-3.71 13.16-2.79 20.36 4.1 2.01 1.93 4.08 3.89 6.41 5.38 4.31 2.74 4.03 6.78 2.28 10.2-9.75 19.03-4.58 39.37-5.21 59.1-.4 12.75 2.22 25.56 2.59 38.37.34 11.61.27 23.36-1.1 34.87-1.38 11.61-9.67 19.27-18.77 25.8-1.71 1.23-3.58 2.33-5.52 3.13-3.88 1.6-7.09 1.46-10.38-2.21-4.29-4.79-8.14-10.48-15.4-11.78-1.43-.26-3.6-2.85-3.42-4.09.25-1.79 2.05-4.31 3.68-4.77 5.3-1.51 10.79-2.45 16.27-3.16 3.24-.42 4.11-1.88 4.92-4.94 4.26-16.19 3.84-32.68 3.86-49.16.02-21.49.01-42.99 0-64.48 0-1.17.1-2.34-.02-3.5-1-9.34-4.08-11.14-13.46-9.36-8.35 1.59-16.85 2.39-25.31 3.31-6.88.75-13.28 4.24-12.26 12.77.63 5.22.28 10.57 1.14 15.73 1.17 6.99 8.18 9.07 13.68 4.19 2.44-2.17 4.53-4.79 6.52-7.4 4.24-5.58 9.5-5.89 13.19-.04 2.66 4.21 4.71 8.92 6.28 13.66.99 2.97.91 5.91-4.18 6.31-8.76.7-17.49 2.18-26.13 3.87-10.26 2.01-14.85 13.17-9.42 22.04 2.4 3.92 11.85 4.16 16.03.29 1.31-1.21 2.15-2.93 3.47-4.11 5.03-4.49 10.26-4.18 15.09.9 2.27 2.38 4.44 4.87 6.44 7.48 2.88 3.77.73 9.42-4.3 10.19-5.67.87-11.52.52-17.23 1.24-5.78.73-11.61 1.67-17.17 3.35-5.7 1.73-4.05 7.51-4.17 11.39-.48 15.31-.19 30.65-.2 45.98-.01 10.79-9.5 18.8-20.29 17.18-4.84-.73-4.66-4.85-4.51-7.87.66-13.64 1.95-27.25 2.76-40.88.56-9.42.89-18.86 1.01-28.3.42-32.44.7-64.88 1.05-97.33.01-1.15.06-2.34.36-3.43 1.97-7.1 4.54-8.2 11.29-4.9 2.65 1.29 5.33 2.52 7.9 3.95 8.77 4.91 19.03 1.99 19.45-9.63.24-6.76.7-13.52.97-20.29.38-9.6.97-19.2.94-28.8-.04-12.27-.42-24.54-1.02-36.79-.25-5.07-3.62-8.63-7.83-11.14-5.18-3.09-5.49-4.65-1.27-8.9 3.41-3.43 6.76-6.91 10.25-10.24 2.73-2.61 5.91-3.49 9.45-1.58 7.45 4.02 14.97 7.9 22.28 12.14 4.69 2.72 4.89 4.67 2.22 9.01-2.04 3.36-3.89 6.82-6.47 11.33z"/><path d="m50.35 174.86c-1.99-1.23-4.75-1.98-5.32-3.53-.69-1.87-.14-4.82.99-6.6 2.68-4.27 6.11-8.06 9.07-12.16 9.75-13.52 15.27-29.03 20.96-44.5 2.4-6.54 5.85-12.7 8.96-18.96 1.61-3.24 4.7-3.11 6.46-.92 6.35 7.88 12.35 16.06 18.18 24.34.72 1.02.17 3.83-.79 4.97-8.58 10.2-17.03 20.55-26.23 30.17-8.1 8.46-17.07 16.1-25.81 23.93-1.6 1.42-3.93 2.01-6.47 3.26z"/><path d="m213.23 306.69c-.08 12.66-7.84 20.07-17.61 25.97-3.1 1.87-8.03-.88-8.46-4.97-.52-4.94-1.28-10.39.23-14.9 3.23-9.63 5.3-19.38 6.63-29.38.25-1.91.97-3.77 1.6-5.61 1.62-4.71 4.21-5.4 7.1-1.44 4.91 6.72 9.33 13.73 9.33 22.59.01 2.58.77 5.16 1.18 7.74z"/><path d="m225.77 271.93c14.54 12.97 21.75 33.02 11.63 51.23-2.83 5.09-6.62 7.2-10.88 5.83-4.42-1.41-7.06-6.85-6.65-12.06.91-11.49 1.48-23.01 2.11-34.53.21-3.89.21-7.8 3.79-10.47z"/><path d="m272.59 271.55c2.95-2.43 5.2-4.67 7.83-6.26 1.08-.66 3.76-.56 4.41.24 7.84 9.71 17.26 18.56 19.65 31.55 1.22 6.62.9 13.45-5.21 17.8-2.11 1.5-5.79 1.66-8.54 1.19-3-.51-4.5-2.97-4.87-6.5-.94-8.9-2.37-17.77-3.91-26.59-.4-2.26-1.62-4.59-3.09-6.39-1.49-1.85-3.76-3.08-6.27-5.04z"/><path d="m252 271.51c6.94 1.11 9.79 6.77 12.83 11.48 5.01 7.78 8.24 16.27 7.29 26.02-.62 6.41-9.75 17.48-16.08 17.76-1.48.07-4.18-1.64-4.37-2.85-.66-4.05-.55-8.24-.52-12.37.01-1.76.8-3.5.81-5.26.08-11.49.04-22.99.04-34.78z"/></g></svg>