<svg enable-background="new 0 0 400 400" viewBox="0 0 400 400" xmlns="http://www.w3.org/2000/svg"><path d="m5.17 384 .55-.58c.85.61 1.65 1.24 2.4 1.87l-.59.64c-.83-.73-1.62-1.38-2.36-1.93m1.22 9.53-.82-.34c.71-1.76 1.37-3.64 1.98-5.63.24.13.5.25.76.36-.6 1.67-1.24 3.54-1.92 5.61m-.5-13.5.57-.54c.56.44 1.31 1.06 2.26 1.87l-.64.64c-.68-.66-1.41-1.32-2.19-1.97m3.25.46h2.24v-1.36h.77v1.36h4.57v-1.36h.76v1.36h2.28v.69h-2.28v1.84h-2.64v1.26h4.18v2.64h-4.21c0 .45-.02.86-.05 1.21h4.32v.69h-4.38c-.04.34-.1.75-.19 1.22h5.15v.69h-4.82c.87 1.19 2.51 1.92 4.93 2.19-.17.31-.3.57-.37.76-2.77-.49-4.52-1.41-5.26-2.76-.56 1.26-2.3 2.23-5.24 2.9-.12-.24-.26-.48-.43-.72 2.73-.55 4.38-1.34 4.96-2.38h-4.38v-.69h4.65c.1-.38.17-.79.21-1.22h-4.32v-.69h4.4c.03-.34.05-.75.05-1.21h-4.2v-2.64h4.23v-1.26h-2.69v-1.84h-2.24zm1.46 4.46v1.29h3.45c.01-.4.02-.57.01-.53v-.32-.45h-3.46zm1.55-2.59h4.57v-1.19h-4.57zm6.11 2.59h-3.42v.77c-.01.19-.01.37-.02.53h3.44v-1.29z" fill="#fcfbfa"/><path d="m32.63 379.16h.82v1.98h3.54v7.89h1.46v.78h-14.37v-.78h1.46v-7.89h3.54v-1.98h.82v1.98h2.73zm-3.49 11.48.5.73c-1.61.82-3.28 1.63-5 2.41-.13-.27-.28-.55-.44-.82 1.75-.72 3.4-1.49 4.94-2.32m-2.78-5.55h2.73v-3.18h-2.73zm0 3.95h2.73v-3.2h-2.73zm3.54-3.95h2.73v-3.18h-2.73zm0 3.95h2.73v-3.2h-2.73zm7.89 4.68c-1.84-.92-3.51-1.7-5.02-2.32l.45-.73c1.89.8 3.57 1.55 5.04 2.23zm-1.62-11.81h-2.73v3.18h2.73zm-2.73 7.13h2.73v-3.2h-2.73z" fill="#fcfbfa"/><g fill="#010102"><path d="m63.68 58.8c4.77 3.56 9.39 7.37 14.36 10.62 4.22 2.76 8.63 5.95 13.38 6.96 3.94.84 8.49-1.27 12.79-1.98 8.99-1.5 18.04-2.71 26.98-4.48 6.1-1.21 11.99-.81 18.11-.3 2.72.23 6.73-2.87 8.49-5.56 6.59-10.08 17.65-6.88 24.83-1.76 1 .71 1.28 2.92 1.29 4.45.09 13.19.05 26.38.05 39.58 0 1.67-.05 3.34.06 5 .94 13.46 2.4 26.91 2.71 40.38.2 8.58-4.4 15.55-11.05 20.99-.88.72-1.89 1.27-2.79 1.96-3.5 2.65-7.2 1.11-7.85-3.31-.38-2.58-.12-5.43-1.16-7.69-1.14-2.44-3.18-5.75-5.32-6.18-6.11-1.22-12.6-1.31-18.26 2.04-1.57.93-3.23 3.54-3.09 5.23.57 6.46 1.76 12.88 2.99 19.26.16.82 1.96 1.97 2.92 1.89 10.8-.85 21.57-1.99 32.36-2.82 2.14-.17 5.75-.02 6.26 1.09 1.53 3.37 2.51 7.3 2.36 10.96-.06 1.37-3.7 3.45-5.9 3.74-10.24 1.33-20.54 2.26-30.84 3.08-4.58.36-6.42 3.6-7.06 7.02-.71 3.83-.44 7.99.21 11.88.7 4.13 2.96 6.77 8.08 6.29 5.78-.54 11.66-.3 17.49-.07 4.4.17 7.63-1.12 9.7-5.22 1.39-2.76 3.02-5.45 4.96-7.84.87-1.07 2.79-1.81 4.19-1.73.75.04 1.68 2.02 2.05 3.26 1.05 3.58 1.87 7.24 2.77 10.87 1.66 6.74-2.31 11.84-9.23 12.68-8.08.98-16.1 2.51-24.16 3.73-1.63.25-3.32.08-4.97.22-15.55 1.3-31.12 2.5-46.65 3.98-12.05 1.15-24.06 2.73-36.1 3.99-10.46 1.1-20.93 1.98-31.39 3.04-3.21.33-4.77-.78-5.33-4.1-1.08-6.41-2.72-12.72-3.79-19.12-.47-2.81.56-4.05 4.09-3.34 9.27 1.85 18.65 4.2 28 4.3 17.27.19 34.55-1.05 51.82-1.86 1.24-.06 3.18-1.16 3.5-2.19 1.96-6.21 4.01-12.42.86-19.01-2.21-4.62-6.65-4.39-10.07-4.2-14.43.77-28.81 2.51-43.24 3.37-5 .3-10.18-.5-15.11-1.56-4.8-1.04-4.86-5.74-5.29-9.54-.09-.77 2.4-2.54 3.8-2.65 18.04-1.5 36.09-2.77 54.14-4.13 3.44-.26 6.86-.72 10.3-.97 4.48-.33 5.83-3.81 5.95-7.13.21-5.74-.25-11.55-1.06-17.24-.2-1.39-2.7-3.23-4.37-3.5-9.03-1.49-15.17 2.97-20.59 9.84-2.8 3.55-7.02 6.17-11.01 8.51-3.15 1.85-5.69.18-6.73-3.35-.41-1.4-.95-2.82-1.04-4.25-.42-7.26-.8-14.53-1.03-21.8-.41-13.27-.41-26.55-1.1-39.8-.6-11.48-1.8-22.93-3.01-34.37-.22-2.11-1.89-4.03-2.6-6.13-1.08-3.19-1.91-6.46-2.85-9.7.71-.48 1.45-.9 2.19-1.33zm39.49 50.08c2.5 3.32 4.35 6.51 6.92 8.94 1.97 1.85 4.85 2.74 7.32 4.05.53-2.12 1.47-4.23 1.52-6.35.18-7.99-.05-16 .12-23.99.09-4.02-2.36-6.98-5.36-7.26-8.34-.8-16.81-.49-24.35 4.07-3.24 1.96-3.87 4.85-3 8.57 1.48 6.32 2.9 12.71 3.54 19.15.8 8.05.41 16.22 1.28 24.26.4 3.64 2.07 9.74 4.08 10.14 7.36 1.47 15.15.62 21.54-4.07 1.5-1.1 1.85-4.31 1.85-6.55 0-.62-3.21-1.81-4.91-1.74-4.98.2-8.64-1.62-9.72-6.47-1.38-6.18-2.16-12.5-2.89-18.79-.12-1.12 1.21-2.41 2.06-3.96zm57.56-6.85c.59-2.51 1.25-3.98 1.2-5.43-.14-3.77-.91-7.53-.85-11.29.07-4.13-2.5-6.19-5.65-6.12-6.01.13-12.02 1.18-17.97 2.17-.96.16-2.38 2.01-2.34 3.03.49 14.03 1.15 28.05 1.94 42.07.09 1.52 1.3 2.98 1.99 4.46 1.3-1.26 3.4-2.32 3.78-3.82 1.96-7.7 3.66-15.49 5.09-23.31.71-3.88 2.2-6.81 5.78-8.5 2.15 2.08 4.07 3.91 7.03 6.74zm-1.66 12.99c-3.64 7.21-7.27 13.49-10.04 20.13-3.8 9.09-2.6 10.54 7.3 8.65 2.99-.57 7.48-2.84 7.99-5.08 1.8-7.92.77-15.84-5.25-23.7z"/><path d="m246 288.09c-6.85-.35-11.27 2.96-14.94 7.66-2.92 3.73-5.33 7.96-8.69 11.22-11.38 11.02-15.28 5.91-19.25-5.06-1.02-2.82-1.15-5.97-1.65-8.79 13.38-7.48 26.35-15.06 39.64-22.02 5.97-3.13 6.68-8.64 6.66-13.65-.05-14.7-1.07-29.4-1.77-44.1-.2-4.09-.15-8.29-1.15-12.2-.43-1.69-3.18-3.92-4.93-3.96-6.74-.16-13.51.39-20.26.86-1.35.1-2.59 1.27-3.97 1.53-2.29.43-4.66.74-6.98.68-1.58-.04-3.1-1.01-4.7-1.23-8.45-1.13-8.58-1.13-10.58-9.13-.67-2.69-1.26-5.46-1.34-8.2-.04-1.61.51-3.97 1.66-4.76 7.26-5.07 8.34-12.62 9.32-20.53.9-7.26 2.55-14.42 3.87-21.63 2.02-11.06 4.16-22.09 6-33.18 1.25-7.56.75-15.69 3.4-22.66 3.2-8.41-.14-14.51-3.37-21.3-1.51-3.17-3.78-7.48.03-9.66 2.93-1.67 8.34-2.29 10.89-.65 5.63 3.64 11.12 8.36 14.71 13.91 1.96 3.03.19 8.68-.41 13.08-.46 3.32-1.74 6.53-2.78 10.22 9.3 1.94 17.89 2.05 26.6.61 3.25-.54 6.68.11 9.97-.27 8.49-.98 13.98-6.65 18.96-12.86 1.62-2.02 2.75-4.42 4.26-6.54 2.13-2.99 4.16-4.05 7.3-.62 5.54 6.07 11.6 11.68 17.37 17.55 4.27 4.35 4.16 6.83-.1 11.32-4.79 5.04-9.98 9.8-14.08 15.35-2.71 3.66-4.23 8.39-5.54 12.86-2.56 8.73-4.97 17.54-6.78 26.46-2.16 10.68-3.54 21.52-5.45 32.26-.45 2.52-.9 6.05-2.61 7.15-7.59 4.86-5.14 13.94-9.23 20.15-.88 1.33-.93 3.48-2.06 4.31-6.24 4.61-6.33 11.05-6.07 17.82.46 11.59.74 23.19 1.03 34.79.37 15.1-.04 30.25 1.22 45.27 1.16 13.9-3.07 25.53-11.33 36.07-3.53 4.5-7.62 8.25-13.62 10-5.29 1.54-6.9-1.27-8.2-4.89-1.59-4.42-2.44-9.11-4.12-13.49-1.26-3.3-3.42-6.24-4.98-9.44-.91-1.88-2.57-4.89-1.88-5.72 1.28-1.54 3.98-2.13 6.19-2.56 1.31-.26 2.82.7 4.26.85 6.78.7 9.95-1.29 9.56-8.75-.4-7.95-.08-15.93-.08-24.13zm8.54-108.75c.01-.11.01-.23.02-.34 3.33 0 6.67.16 9.98-.04 4.37-.26 6.95-2.78 7.41-7.11.5-4.74 1.23-9.55.95-14.28-.9-15.11 1.83-29.79 4.51-44.51 1.15-6.33-4.69-12.82-10.1-11.84-6.73 1.22-13.54 2.43-20.35 2.66-13.11.44-18.08 3.85-21.46 16.16-.26.94-.2 1.99-.57 2.86-1.87 4.4 1.04 6.31 4.32 6.91 3.54.64 7.39.64 10.93-.04 8.45-1.61 16.9-2.98 25.32-.62 2.1.59 4.6 2.86 5.14 4.84.42 1.53-1.51 4.98-3.12 5.57-5.44 1.96-11.16 3.35-16.87 4.37-8.98 1.61-18.1 2.44-27.02 4.27-2.44.5-5.41 2.97-6.36 5.27-1.84 4.44-2.36 9.42-3.55 14.15-1.5 5.95.3 8.87 6.31 9.34 11.48.9 23 1.6 34.51 2.38z"/><path d="m289.96 242.88c9.71-6.08 14.47-14.15 17.97-23.1 1.73-4.43 3.91-8.33 9.18-8.72 5.67-.42 10.3 2.16 13.63 6.53 2.76 3.62 1.27 8.31-3.46 11.69-7.84 5.6-15.81 11.01-23.71 16.52-2.66 1.86-5.27 3.81-8.27 5.98 4.15 11.06 11.86 19.52 21.63 26.16 15.22 10.34 32.07 17.26 49.4 23.19 2.88.99 5.11 3.86 7.65 5.85-2.9 1.67-5.62 3.91-8.73 4.89-5.55 1.75-11.63 2.01-16.97 4.19-10.76 4.4-19.92.84-27.87-5.51-17.7-14.13-32.53-30.75-38.61-53.3-2.03-7.51-2.67-15.41-3.77-23.16-.53-3.73-.74-7.51-.95-11.27-.07-1.28-.03-2.74.53-3.83.6-1.17 1.88-1.99 2.86-2.96.83 1.07 2.11 2.03 2.41 3.24 1.2 4.89 1.89 9.92 3.2 14.78.78 2.86 2.37 5.48 3.88 8.83z"/><path d="m80.08 270.51c1.36 6.53 2.87 12.62 3.85 18.79 1.24 7.74 2.39 15.53 2.95 23.35.69 9.54-.26 18.76-8.48 25.5-1.92 1.57-3.54 3.51-5.32 5.27-4.36 4.31-9.47 4.83-15.2 1.56-4.92-2.8-7.98-9.02-6.17-14.16 2.03-5.77 5.06-11.18 7.24-16.9 4.49-11.79 8.95-23.61 12.88-35.59 1.29-3.88 3.02-6.32 8.25-7.82z"/><path d="m309.65 191.25c-2.55-.29-6.81-.58-11-1.29-3.63-.61-6.89-5.09-6.59-8.95.3-3.81 3.46-3.79 6.23-4.11 5.52-.64 11.02-1.54 16.55-1.84 7.69-.41 14.78-1.4 20.47-7.67 4.32-4.76 8-4.82 13.18-.35 3.82 3.29 7 7.53 9.72 11.81 2.12 3.35 1.03 6.41-3.47 7.22-7.19 1.3-14.34 2.97-21.59 3.82-7.2.85-14.5.88-23.5 1.36z"/><path d="m116.01 266.2c3.33 10.47 7.14 20.81 9.82 31.44 1.86 7.39 2.26 15.17 3.14 22.79.55 4.74-3.05 6.98-6.52 8.19-4.07 1.41-8.06 1.44-11.63-2.74-5.48-6.41-3.66-13.27-2.64-20.17 1.81-12.27 3.86-24.5 5.85-36.74.14-.89.61-1.73.92-2.59.35-.07.71-.13 1.06-.18z"/><path d="m173.32 261.63c5.2 9.38 9.85 18.65 15.34 27.39 6.08 9.68 4.57 20-4.75 26.53-5.22 3.66-12.93-.67-13.78-8.12-.4-3.53.47-7.19.54-10.8.2-9.47.35-18.94.38-28.41.02-2.98-.71-6.12 2.27-6.59z"/><path d="m143.55 268.93c2.2 1.65 4.6 2.53 5.33 4.16 4.51 10.06 8.94 20.18 12.8 30.5 2.15 5.75-1.68 12.27-7.48 13.7-4.25 1.05-10.2-.22-11.81-7.84-.98-4.65-.53-9.65-.34-14.48.3-8.08.91-16.16 1.5-26.04z"/><path d="m210.93 207.54c3.79-1.17 5.88-.61 7.41 2.97 3.37 7.86 7.64 15.34 10.86 23.26 2.67 6.59-3.33 16.62-10.18 18.19-4.58 1.05-8.89-2.77-8.92-8.52-.02-4.9.73-9.8 1.04-14.71.1-1.66-.18-3.34-.19-5.02-.04-5.32-.02-10.64-.02-16.17z"/></g></svg>