<svg enable-background="new 0 0 400 400" viewBox="0 0 400 400" xmlns="http://www.w3.org/2000/svg"><path d="m5.17 384 .55-.58c.85.61 1.65 1.24 2.4 1.87l-.59.64c-.83-.73-1.62-1.38-2.36-1.93m1.22 9.53-.82-.34c.71-1.76 1.37-3.64 1.98-5.63.24.13.5.25.76.36-.6 1.67-1.24 3.54-1.92 5.61m-.5-13.5.57-.54c.56.44 1.31 1.06 2.26 1.87l-.64.64c-.68-.66-1.41-1.32-2.19-1.97m3.25.46h2.24v-1.36h.77v1.36h4.57v-1.36h.76v1.36h2.28v.69h-2.28v1.84h-2.64v1.26h4.18v2.64h-4.21c0 .45-.02.86-.05 1.21h4.32v.69h-4.38c-.04.34-.1.75-.19 1.22h5.15v.69h-4.82c.87 1.19 2.51 1.92 4.93 2.19-.17.31-.3.57-.37.76-2.77-.49-4.52-1.41-5.26-2.76-.56 1.26-2.3 2.23-5.24 2.9-.12-.24-.26-.48-.43-.72 2.73-.55 4.38-1.34 4.96-2.38h-4.38v-.69h4.65c.1-.38.17-.79.21-1.22h-4.32v-.69h4.4c.03-.34.05-.75.05-1.21h-4.2v-2.64h4.23v-1.26h-2.69v-1.84h-2.24zm1.46 4.46v1.29h3.45c.01-.4.02-.57.01-.53v-.32-.45h-3.46zm1.55-2.59h4.57v-1.19h-4.57zm6.11 2.59h-3.42v.77c-.01.19-.01.37-.02.53h3.44v-1.29z" fill="#fcfbfa"/><path d="m32.63 379.16h.82v1.98h3.54v7.89h1.46v.78h-14.37v-.78h1.46v-7.89h3.54v-1.98h.82v1.98h2.73zm-3.49 11.48.5.73c-1.61.82-3.28 1.63-5 2.41-.13-.27-.28-.55-.44-.82 1.75-.72 3.4-1.49 4.94-2.32m-2.78-5.55h2.73v-3.18h-2.73zm0 3.95h2.73v-3.2h-2.73zm3.54-3.95h2.73v-3.18h-2.73zm0 3.95h2.73v-3.2h-2.73zm7.89 4.68c-1.84-.92-3.51-1.7-5.02-2.32l.45-.73c1.89.8 3.57 1.55 5.04 2.23zm-1.62-11.81h-2.73v3.18h2.73zm-2.73 7.13h2.73v-3.2h-2.73z" fill="#fcfbfa"/><g fill="#010102"><path d="m191.74 368.34c-.99-3.56-2.98-8.42-3.6-13.45-1.14-9.14-1.51-18.38-2.13-27.58-.36-5.46-2.33-7.43-7.59-7.31-5.18.12-6.59 1.6-6.37 7.59.15 4.09.91 8.15 1.25 12.24.46 5.52-1.22 7.05-6.36 5.59-8.61-2.45-16.69.49-24.95 2.03-7.37 1.37-14.8 2.54-22.24 3.51-10.72 1.41-21.45 2.67-32.21 3.71-1.42.14-3.81-1.06-4.34-2.26-1.08-2.43.74-3.74 3.13-4.38 15.22-4.07 30.83-5.53 46.43-7.04 5.59-.54 9.61-4.3 10.37-9.19.59-3.76-1.27-5.85-4.63-5.69-10.03.48-20.04 1.27-30.04 2.2-11.75 1.09-23.47 2.62-35.23 3.62-4.27.36-5.86-2.11-5.22-6.86.52-3.85 3.35-3.44 6.15-3.46 4.08-.03 8.16-.23 12.22-.59 10.3-.93 20.6-1.89 30.88-3.04 7.46-.83 14.91-1.81 22.3-3.11 1.54-.27 2.77-2.27 4.15-3.47-1.68-.79-3.43-2.39-5.03-2.25-10.94.94-21.85 2.27-32.77 3.43-4.9.52-9.81 1.33-14.69 1.2-1.44-.04-3.38-2.61-4.07-4.42-1.17-3.07 1.25-4.67 3.8-5.2 4.47-.94 9.01-1.72 13.56-2.08 10.52-.84 21.09-1.16 31.59-2.17 4.6-.44 9.53-1.15 12-6.21 1.88-3.86.93-5.91-3.25-5.59-7.35.55-14.64 1.86-21.99 2.43-12.66.99-25.33 2-38.01 2.31-5.9.14-8.05-2.56-7.84-7.06.17-3.88 1.64-5.77 6.05-5.88 14.21-.37 28.41-1.2 42.61-1.91 4.45-.22 8.93-.33 13.31-1.03 2.9-.46 5.92-6.13 4.92-8.85-1.45-3.93-4.6-3.2-7.88-2.67-6.46 1.05-13 1.61-19.47 2.59-9.18 1.39-18.29 3.34-27.51 4.34-5.12.55-10.49.12-15.56-.85-2.04-.39-4.13-3.15-5.18-5.33-1.26-2.61.08-4.79 3.26-5.14 3.59-.4 7.21-1.08 10.79-.97 10.28.32 20.28-.76 30.21-3.67 3.72-1.09 7.99-.15 11.98-.48 4.7-.4 9.48-.77 14.03-1.9 5.54-1.38 6.45-4.93 3.59-8.97-10.66 1.01-20.86 2.08-31.08 2.92-6.25.52-12.53.85-18.8.98-4.76.1-7.02-2.26-7.15-6.77-.1-3.87 2.52-6.15 7.14-6.18 3.33-.02 6.69-.27 9.99.06 4.93.48 8.32-1.63 9.2-6.17 1.19-6.19 1.81-12.55 1.96-18.85.09-3.75-2.71-4.89-6.23-3.64-5.8 2.07-11.69 3.95-17.38 6.29-11.6 4.76-23.04 9.93-34.68 14.58-3.09 1.23-6.7 1.58-10.06 1.52-1.37-.02-2.69-2.21-4.04-3.42 1.06-1.15 1.9-2.8 3.22-3.38 16.25-7.1 32.87-13.4 48.75-21.24 10.9-5.39 20.78-12.86 31.12-19.38 7.17-4.52 14.71-8.55 21.45-13.64 7.79-5.88 14.41-13.36 22.41-18.89 8.2-5.66 9.74-15.36 15.73-22.19.53-.6.75-1.46 1.26-2.08 6.23-7.61 7.56-7.53 13.09.57 2.66 3.9 6.02 5.89 11.14 5.98 14.04.27 28.12.72 42.07 2.18 3.72.39 7.22 4.5 10.38 7.39.62.57-.39 3.77-1.45 5.14-4.99 6.43-10.46 12.49-15.32 19.01-1.45 1.95-2.65 5.55-1.78 7.32.82 1.67 4.59 2.85 6.93 2.65 9.77-.84 19.47-2.59 29.24-3.4 10.05-.84 20.16-1.31 30.23-1.2 2.88.03 5.73 2.61 9.28 4.36-1.28 1.83-1.94 3.63-3.22 4.44-6.52 4.13-5.83 10.36-5.22 16.63.18 1.79.56 3.56.64 5.36.13 2.94-.63 4.95-4.3 5.16-5.37.31-10.71 1.2-16.07 1.81-8.78 1.01-17.55 2.07-26.34 2.95-2.82.28-5.7-.05-8.55.08-6.1.27-12.23.41-18.27 1.18-1.6.21-4.15 2.51-4.18 3.9-.16 6.91.04 13.87.74 20.75.7 6.91 7.6 8.87 13.54 7.93 6.78-1.08 13.59-2.46 20.42-2.65 11.67-.32 21.8-3.74 30.33-11.84 1.51-1.43 3.52-2.32 5.3-3.46 3.52-2.24 6.39-2.06 9.32 1.41 2.53 2.99 5.63 5.62 8.86 7.87 4.2 2.93 4.38 6.75 1.97 10.19-5.19 7.39-5.69 15.92-6.64 24.26-1.67 14.69-2.61 29.46-4.18 44.16-.56 5.24-2.92 9.87-6.75 13.8-1.85 1.9-2.79 4.67-4.14 7.05.39.7.79 1.41 1.18 2.11 6.54-.37 13.09-.71 19.63-1.11 1.63-.1 3.27-.64 4.88-.53 13.95.98 14.8-6.56 16.26-15.97.85-5.5 1.19-11.08 2.19-16.55.28-1.52 2.06-2.76 3.15-4.13.52.23 1.03.47 1.55.7.71 6.63.93 13.37 2.29 19.87 1.25 5.98 3 12.1 5.83 17.47 5.93 11.26-1.9 18.5-11.64 19.45-14.58 1.43-29.27 1.8-43.85 3.2-17.12 1.64-34.18 4-51.29 5.81-3.21.34-6.55-.74-9.82-.65-6.41.19-12.8.73-19.2 1.16-1.8.12-3.58.52-5.37.56-8.25.18-16.48.25-26.09.38zm96.18-110.93c2.22 5.3 1.23 9.55-2.92 13.13-2.14 1.84-4.47 3.72-5.87 6.08-1.21 2.04-2.26 5.21-1.5 7.13 1.07 2.72 4.04 4.64 5.88 7.13 1.12 1.51 2.47 3.55 2.29 5.19-.34 3.16-1.5 6.29-2.68 9.29-2.14 5.44-5.85 8.08-12.17 7.77-9.51-.47-19.02-.66-28.32 2.74-6.19 2.27-8.7 4.63-8.65 11.11.03 4.35-.35 8.75.18 13.04.22 1.77 2.06 4.34 3.61 4.73 2.78.7 5.9-.01 8.88-.08 10.81-.26 21.63-.55 32.44-.7 3.27-.04 6.59.34 6.88-4.26.38-6.26.02-12.66 1.2-18.76 1.27-6.59-1.49-14.26 5.44-19.69 1.9-1.49 2.2-5.72 2.28-8.72.27-9.82.11-19.66.1-29.49 0-6.34 0-6.34-7.07-5.64zm-131.64-75.39c4.4 2.49 4.39 2.48 1.98 8.42-.24.59-.31 1.32-.23 1.96.57 4.97-2.85 6.43-6.63 7.59-2.17.66-4.47 1.08-6.48 2.07-1.2.59-2.88 2.26-2.71 3.12.34 1.74 1.61 4.48 2.83 4.67 6.42 1.01 12.96 1.91 19.43 1.72 4.58-.13 9.31-1.54 13.61-3.29 5.08-2.06 4.49-7.01 3.78-11.28-.61-3.63-3.97-3.74-6.91-4.01-.82-.07-1.82.11-2.43-.29-1.59-1.07-4.39-2.64-4.22-3.56.4-2.15 1.89-4.48 3.62-5.89 1.33-1.08 3.69-1.05 5.62-1.22 4.92-.44 9.91-.37 14.75-1.21 2.22-.38 5.36-2.03 5.94-3.8.84-2.58.17-5.91-.65-8.69-1.07-3.61-.39-4.92 3.52-5.54 6.33-1 12.9-1.49 17.86-6.72 3.73-3.93 4.05-10.11-.19-10.58-8.25-.9-17.08-2.41-24.42 2.83-8.65 6.17-16.9 12.95-24.93 19.92-4.75 4.12-8.74 9.1-13.14 13.78zm60.72 118.07c0-11.16.14-22.31-.15-33.46-.05-1.79-1.64-4.55-3.17-5.11-5.58-2.04-13.58.66-12.84 8.64 1.52 16.24 2 32.57 3.24 48.84.58 7.65 1.96 15.23 2.89 22.85.46 3.75 2.18 5.72 6.18 5.15 3.94-.56 5.1-3.12 4.83-6.66-.28-3.6-.89-7.18-.94-10.78-.13-9.82-.04-19.65-.04-29.47zm-1.58-112.26c-3.1.26-6.49-.02-9.51.91-5.46 1.69-7.78 9.65-6.69 17.01 1.17 7.94 1.3 16.05 1.68 24.1.24 5-.24 10.05.27 15.01.32 3.12 3.09 5.16 6.09 3.85 3.73-1.64 6.88-4.16 6.83-9.23-.06-5.75.36-11.54 1.02-17.26 1.31-11.26 3.19-22.46.31-34.39zm36.16 14.17c.01.15.02.31.03.46 6.23-.48 12.47-.93 18.7-1.46 10.03-.86 10.74-1.65 10.69-11.51-.03-5.17-1.92-7.5-6.87-7.43-11.08.16-22.17.45-33.24 1.02-5.71.29-9.07 3.61-8.88 7.78.35 7.61 3.54 11.14 10.1 11.14zm-79.02 59.17c-.52 10.32-1.33 20.58-1.41 30.84-.04 4.81.8 9.82 2.32 14.38.67 1.99 3.94 3.95 6.26 4.27 1.56.22 4.24-2.1 5.14-3.91 1.31-2.66 2.12-5.92 2.01-8.88-.35-9.51-1.21-18.99-1.88-28.48-.59-8.32-.79-8.51-8.93-8.37-.81 0-1.62.06-3.51.15zm60.02 15.72c.51 6.18.95 11.93 1.49 17.67.09.94.62 1.83.92 2.76 1.8 5.38 4.76 6.61 8.37 2.54 3.96-4.46 6.85-9.87 10.14-14.91.29-.44.17-1.21.09-1.81-1.09-8.66-5.22-15.72-11.54-21.57-3.22-2.98-6.93-2.23-7.92 2.01-1.05 4.43-1.1 9.1-1.55 13.31zm-48.59-26.1c0-8.43.19-16.57-.18-24.68-.07-1.43-2.45-3.8-3.9-3.91-4.41-.32-8.89.1-13.32.53-6.16.6-12.3 1.42-18.43 2.27-1.08.15-2.08.94-3.12 1.43.89 1.18 1.65 3.2 2.68 3.36 2.19.32 4.53-.23 6.78-.61 10.33-1.71 15.14-.39 17.56 10.84.24 1.11.67 2.17.93 3.27 1.57 6.69 3.23 7.91 11 7.5zm84.13 8.29c-2.93-1.47-4.27-2.59-5.72-2.76-1.71-.2-3.51.47-5.29.68-4.12.49-5.59 3.23-2.84 6.27 1.53 1.7 4.81 3.59 6.45 3.01 2.46-.87 4.16-3.85 7.4-7.2z"/><path d="m360.44 136.27c-4.03 6.96-10.47 6.4-15.82 7.51-6.5 1.35-12.42 3.27-17.91 7.18-8.38 5.97-15.11 5.39-22.54-1.34-3.13-2.83-6.94-2.29-10.6-3.1-6.09-1.34-11.89-4.33-17.54-7.17-4.05-2.03-7.69-4.89-11.42-7.51-1.35-.94-2.65-2.1-3.6-3.43-10.85-15.1-22.01-30-32.21-45.54-3.26-4.96-3.89-11.63-5.81-17.49-.49-1.51-1.33-2.9-2.34-5.04-5.36 11.19-10.39 21.26-18.65 29.27-.61.59-.8 1.73-.97 2.65-1.03 5.67-4.54 9.78-7.74 14.41-5.25 7.59-10.91 14.66-17.26 21.28-1.48 1.54-2.73 3.35-4.36 4.7-9.07 7.56-18.05 15.24-27.39 22.45-10.3 7.97-20.8 15.34-33.77 19.17-11.71 3.46-22.74 9.24-34.1 13.91-7.81 3.21-15.59 6.55-23.57 9.28-3.25 1.11-7.93 2.19-9.56-2.27-1.66-4.55 2.97-5.11 5.87-6.19 10.65-3.96 21.95-6.63 31.91-11.88 19.91-10.5 38.88-22.59 56.52-36.86 12.74-10.31 23.17-22.22 31.57-36.05 4.71-7.74 7.52-17.01 13.44-23.55 7.43-8.21 6.87-18.72 11.05-27.72 1.16-2.5-.21-6.97-1.8-9.75-2.07-3.62-.33-5.57 1.93-7.08 9.79-6.54 13.19-6.22 23.25-.52 5.1 2.89 9.91 6.29 14.92 9.36 4.42 2.71 5.55 6.63 2.12 11.22-2.5 3.34-2.54 6.26-1.02 9.7 3.01 6.83 4.65 14.41 10.83 19.48 2.91 2.39 6.1 2.71 8.93.28 6.68-5.75 12.97-11.95 19.74-17.58 5.79-4.81 6.94-10.66 5.28-17.51-.8-3.31-2.46-6.99 1.08-9.41 3.56-2.44 6.98-1.08 10.38 1.43 8.65 6.39 17.55 12.44 26.33 18.67 3.3 2.34 3.49 4.78-.43 6.86-7.58 4.02-15.54 7.35-23.41 10.81-3.1 1.36-6.44 2.16-9.56 3.48-7.32 3.12-14.5 6.56-21.86 9.56-5.99 2.44-7.32 5.3-3.1 10.23 2.74 3.2 6.53 5.89 10.37 7.68 9.44 4.39 18.89 9.17 28.86 11.88 17.72 4.83 35.83 8.25 53.77 12.26 3.24.75 6.48 1.46 10.19 2.28z"/><path d="m106.77 122.36c2.11-4.12 3.77-7.93 5.91-11.45 4.63-7.64 9.93-14.91 14.13-22.77 2.76-5.16 6.56-7.97 11.95-9.01 3.17-.61 5.31.88 5.2 4.26-.34 10.89-2.31 21.51-8.68 30.51-2.42 3.43-6.83 5.44-10.33 8.11-2.08 1.58-3.96 3.58-6.26 4.66-2.48 1.16-5.5 2.26-8.01 1.82-1.47-.25-2.39-3.58-3.91-6.13z"/></g></svg>