<svg enable-background="new 0 0 400 400" viewBox="0 0 400 400" xmlns="http://www.w3.org/2000/svg"><path d="m159.57 314.69c-3.89.75-7.86 1.87-11.9 2.24-9.68.87-19.38 1.38-29.08 2.04-.17.01-.33.01-.5.02-2.62.1-6.96-.67-7.52.45-1.66 3.34-1.94 7.39-2.55 11.2-.75 4.66-.76 9.52-2.13 13.97-.85 2.76-3.64 6.95-5.52 6.93-3.45-.03-7.59-1.95-10.17-4.42-5.74-5.5-4.44-13.1-4.06-20.12.32-5.89 1.73-11.74 1.77-17.61.19-29.66 1.5-59.41-.25-88.97-2.58-43.72-.88-87.4-1.7-131.09-.13-6.79-4.81-10.43-10.23-13.28-1.72-.91-3.72-1.33-5.34-2.38-1.03-.67-2.41-2.29-2.19-3.08.38-1.35 1.96-3.44 2.92-3.37 7.64.5 12.13-5.26 17.64-8.72 7.37-4.63 13.82-5.37 20.45 2.08 2.83 3.19 6.04 6.24 9.63 8.48 2.91 1.81 6.58 2.89 10.02 3.24 6.44.65 12.97.59 19.46.74 3.83.08 7.7.3 11.49-.09 10.24-1.07 20.45-2.45 30.68-3.68 1.48-.18 2.98-.25 4.46-.25 13.67-.02 27.37.64 40.98-.19 14.19-.87 28.35-2.76 42.38-5.1 3.76-.63 6.95-4.56 10.43-6.94 5.8-3.98 11.42-8.34 19.09-7.79 6.4.47 12.14 2.37 16.74 7.07 2.8 2.86 5.65 5.66 8.47 8.5 3.83 3.85 4.47 9.14.27 12.4-9.25 7.17-10.99 16.75-10.29 27.37 1.19 18.07.89 36.2 3.65 54.24 1.62 10.61.12 21.67.41 32.51.13 4.65 1.64 9.25 1.8 13.9.16 4.75-.97 9.54-.81 14.29.42 12.24 1.34 24.46 1.84 36.69.12 2.91-.92 5.87-.86 8.79.16 8.77 1.14 17.56.8 26.3-.38 9.65-.76 19.55-3.24 28.79-2.22 8.27-6.93 16.3-16.84 18.07-2.49.44-5.92-.31-7.86-1.84-2.87-2.27-5.59-5.4-6.96-8.75-2.99-7.35-8.71-10.44-15.73-10.1-6.28.31-12.52-1.38-18.93.5-3.53 1.04-7.79-.68-11.72-.69-27.33-.08-54.66.01-81.99-.14-2.35-.01-4.7-1.45-7.01-2.21zm-30.42-181.9c3.26-.72 5.69-1.44 8.17-1.75 6.15-.77 12.68-.32 18.42-2.25 7.96-2.67 16-4.86 24.08-3.56 12.07 1.94 23.22-3.78 35.11-2.84 4.06.32 8.27-1.46 12.44-2.13 4.99-.8 6.54-3.72 6.8-8.6.21-3.77 1.55-7.65 3.17-11.13 1.4-3.02 3.9-3.56 6.83-.94 9.7 8.65 16.93 19.01 21.85 30.96.7 1.71.61 4.14-.01 5.93-1.69 4.93-6.27 6.82-10.63 8.45-5.64 2.1-9.75 5.58-11.3 11.37-4.42 16.53-10.83 32.06-21.47 45.66-3.54 4.53-3.35 9.07 1.35 12.3 8.18 5.62 15 13.39 24.99 16.25 1.85.53 3.75 1.27 5.32 2.35 8.82 6.07 18.24 10.67 28.97 12.12 3.24.44 6.52 1 9.77.91 3.01-.09 4.49-1.63 5.17-5.2 2.14-11.15.36-22.29.67-33.42.32-11.42-.56-22.86-.84-34.3-.11-4.7-.01-9.4-.02-14.1 0-1.67.07-3.34-.1-5-.58-5.7-1.64-11.38-1.83-17.09-.54-16.26-.46-32.54-1.2-48.79-.32-6.98-1.38-11.7-7.99-12.38-2.17-.22-4.5 2.08-6.84 2.28-13.61 1.19-27.24 2.39-40.89 3.02-14.75.68-29.54.59-44.3 1.11-24.31.87-48.6 1.96-72.9 2.97-4.72.2-9.03 3.52-9.84 8.02-.64 3.54-.88 7.17-1.09 10.77-.41 7.09-.64 14.2-1.03 21.3-.23 4.27-1.02 8.55-.83 12.79.27 6.22 1.75 12.41 1.7 18.61-.07 7.86-1.53 15.71-1.69 23.57-.17 7.95.82 15.92.77 23.87-.1 14.27-.69 28.53-.91 42.8-.15 9.83.15 19.67-.11 29.5-.12 4.73-.74 9.5-1.71 14.13-1.92 9.18 4.46 17.08 13.83 16.6 1.77-.09 3.55-.92 5.28-.8 12.3.86 24.58 2.23 36.9 2.68 6 .22 12.06-1.74 18.09-1.73 16.6.02 33.2.56 49.8.87 18.43.35 36.87.78 55.3.95 5.53.05 10.35-4.34 10.48-9.79.3-12.69.12-25.39.08-38.08-.01-3.04-1.59-4.54-4.72-4.05-3.53.55-7.46.35-10.5 1.89-7.5 3.81-14.55 8.52-21.86 12.7-3.41 1.95-7.26 3.92-10.97 1.3-8.24-5.81-18.25-9.21-24.44-17.86-.63-.89-1.81-1.37-2.69-2.09-4.44-3.65-9.45-6.81-13.16-11.1-6.36-7.34-11.95-8.09-18.84-1.09-4.8 4.89-9.34 10.05-14.09 14.99-1.82 1.89-3.7 3.9-5.92 5.21-7.48 4.41-15.23 8.25-21.33 14.82-2.67 2.88-6.63 4.76-10.3 6.43-2.18.99-4.94.68-7.44.96-.26-.59-.53-1.17-.79-1.76 1.28-1.59 2.33-3.47 3.88-4.71 5.75-4.59 11.55-9.15 17.59-13.33 2.67-1.85 5.98-2.77 10.47-4.77.56-5.63 9.44-8.09 10.8-15.64.15-.81 1.39-1.38 2.02-2.16 2.68-3.31 5.84-6.38 7.8-10.08 1.49-2.82 2.75-6.9 1.82-9.63-2.64-7.68-3.36-16.35-9.89-22.39-.76-.7-1.1-2.02-1.35-3.11-1.24-5.54-2.48-11.08-3.54-16.66-1.58-8.33-3.22-16.65-4.46-25.03-1.24-8.4-3.24-10.43-11.27-9.88-3.43.23-7.06.21-10.21 1.35-4.04 1.46-6.47-.4-8.53-2.99-2.09-2.61-3.57-5.73-5.89-9.58zm94.95 8.44c.29-4.02-1.02-6.57-5.54-6.24-3.94.29-7.88.6-11.81 1.01-9.44.98-18.88 1.87-28.29 3.07-7.25.93-9.14 3.81-7.29 10.32.53 1.87 1.4 3.66 1.85 5.55 3.14 13.44 11.31 23.78 20.74 33.24 5.63 5.64 8.95 4.95 12.68-2.1.23-.43.42-.89.61-1.34 5.56-13.35 11.15-26.7 16.65-40.07.42-1.03.28-2.29.4-3.44z" fill="#000001"/><g fill="#fafbfa"><path d="m377.9 391.2c-.2.3-.4.5-.6.8-.7-.6-1.4-1-2.2-1.5.2-.3.4-.5.5-.8.6.4 1.4.8 2.3 1.5zm-1.8 6.1c-.2-.2-.5-.4-.9-.6.4-.6.8-1.2 1.2-1.9s.7-1.3.9-1.9c.3.3.5.5.8.7-.7 1.3-1.4 2.6-2 3.7zm2.2-9c-.3.3-.5.5-.6.8-.6-.6-1.3-1.1-2-1.5.3-.3.5-.5.6-.7.6.5 1.3.9 2 1.4zm.3.2v-.9h2 4.5c-.3 1.3-.6 2.5-1 3.6s-.9 2.1-1.4 3c.4.5 1 1 1.6 1.4s1.2.8 1.9 1.1c-.3.2-.5.4-.8.8-.4-.3-1-.7-1.6-1.2s-1.2-1.1-1.6-1.6c-.5.6-1.1 1.1-1.7 1.6s-1.4.9-2.1 1.4c-.1-.3-.3-.5-.7-.8.6-.2 1.2-.5 1.9-1s1.4-1.1 2-1.8c-.5-.8-.9-1.6-1.2-2.5s-.6-2-.8-3.2c-.4.1-.7.1-1 .1zm2.5 2.7c.2 1 .7 1.7 1 2.2.3-.5.6-1.1 1-2s.6-1.9.9-3h-3.2-.4c.1.9.3 1.8.7 2.8z"/><path d="m396.5 388.5v1.5 3.6h1.5v.9c-.4 0-1 0-1.7 0h-7.9c-.5 0-.9 0-1.2 0v-.9h1.3v-3.5c0-.7 0-1.2 0-1.6h2.4c0-.8 0-1.4 0-1.7h1c0 .3-.1.8-.1 1.7h1.5c0-.8 0-1.4 0-1.7h1c0 .3-.1.9-.1 1.7zm-8.2 9.2c-.2-.3-.5-.5-.8-.8.8-.3 1.4-.6 1.9-.9s1-.7 1.4-1.1c.3.3.6.5.9.8-1.6 1-2.8 1.6-3.4 2zm2.6-6.8v-1.6h-1.5v1.6zm0 2.7v-1.9h-1.5v1.9zm2.4-2.7v-1.6h-1.5v1.6zm0 2.7v-1.9h-1.5v1.9zm.2 2 .7-.8c.4.2.9.5 1.6.8s1.3.7 1.8 1c-.3.3-.5.5-.8.8-.4-.3-1.5-1-3.3-1.8zm2-4.7v-1.6h-1.4v1.6zm0 2.7v-1.9h-1.4v1.9z"/></g></svg>