<svg enable-background="new 0 0 400 400" viewBox="0 0 400 400" xmlns="http://www.w3.org/2000/svg"><path d="m184.54 344.75c-1.36-6.22 2.97-8.38 5.69-11.38 1.05-1.16 2.48-2.08 3.25-3.39 4.18-7.06 8.13-14.26 12.35-21.29 1.42-2.36 3.45-4.35 5.13-6.57 6.7-8.87 8.9-19.46 10.95-29.98 3.58-18.4 7.13-36.82 9.83-55.36 1.18-8.05.24-16.41.25-24.63.01-6.19-.28-12.39.14-18.55.17-2.43 1.9-4.74 2.92-7.11 2 1.02 4.25 1.74 5.95 3.13 3.82 3.14 7.42 6.56 11.02 9.97 2.39 2.26 3.03 4.58 2.27 8.29-2 9.75-3.27 19.69-4.2 29.62-1.14 12.22-1.96 24.42-5.37 36.33-2.49 8.7 3.16 17.66 11.74 19.93 4.76 1.26 8.24-1.11 8.51-6.07.45-8.09.78-16.2 1.02-24.3.4-13.26 1.07-26.54.91-39.8-.16-12.87-.99-25.75-2.08-38.58-.23-2.77-2.27-5.95-4.42-7.89-4.21-3.78-5.75-7.99-5.51-13.57.24-5.57-.25-11.23-1.02-16.78-.38-2.73-2.09-5.27-3.59-8.82-2.55 1.86-4.61 3.09-6.35 4.68-5.68 5.2-11.81 10.06-16.68 15.94-4.29 5.18-10 9.41-11.68 16.82-.84 3.7-3.91 7.21-6.72 10.08-5 5.09-6.28 11.36-6.78 17.92-.56 7.42-1.03 14.87-.95 22.3.06 5.89 1.4 11.77 1.47 17.66.08 6.21-.65 12.43-1.05 18.64-.08 1.29-.75 2.72-.4 3.85 3.8 11.93 1.3 23.8-.07 35.69-.19 1.65 0 3.33-.07 5-.32 8.27-.71 16.53-.98 24.8-.2 6.09-3.71 10.58-8.53 10.67-6.06.12-11.55-4.4-11.37-10.43.33-10.86-1.69-21.83 1.69-32.61 1.15-3.68 1.02-7.82 1.16-11.76.43-12.6.76-25.2 1.01-37.8.14-6.86.11-13.73-.04-20.58-.04-1.65-.87-3.28-1.64-5.94-3.6 2.57-6.77 4.3-9.28 6.71-7.93 7.62-15.63 15.48-23.38 23.28-7.05 7.1-7.36 16.92-1.52 24.88 4.5 6.14 8.75 12.57 12.23 19.32 2.72 5.26.04 10.94-5.28 13.91-4.09 2.29-10.93.93-14.05-3.26-2.32-3.11-4.27-6.56-5.94-10.07-2.03-4.28-5.01-5.18-8.35-1.79-4.53 4.59-8.72 9.52-13.25 14.11-5.2 5.25-10.9 9.55-18.04 12.35-4.45 1.74-7.53 6.69-11.79 9.24-6.54 3.9-13.59 6.93-20.38 10.41-7.57 3.87-15.02 7.98-22.68 11.65-1.7.81-5.17 3.36-5.51-.97 6.62-5.31 12.97-10.11 19-15.29 13.37-11.49 26.8-22.91 39.76-34.84 9.86-9.06 16.69-20.57 22.93-32.29 1.04-1.96.8-5.09.13-7.38-2.07-7.08-4.63-14.01-7.16-21.46-3.97 5.34-6.93 10.21-10.8 14.19-2.43 2.5-6.1 4.01-9.47 5.28-2.1.79-7.46-5.36-7.33-8.7.12-2.97.45-6.67 2.22-8.72 8.35-9.7 11.01-21.56 13.67-33.44 1.87-8.35 3.28-16.81 4.94-25.47-10.97-1.78-19.76 2.08-28.75 4.01-10.06 2.16-17.48-2.09-20.3-12.14-1.04-3.71 1.62-4.48 3.61-5.04 6.1-1.72 12.4-2.72 18.51-4.38 7.83-2.12 15.9-3.89 23.19-7.27 3.41-1.58 5.99-6.25 7.63-10.09 5.91-13.8 9.87-28.23 12.1-43.09.95-6.32-2.05-11.48-5.44-16.37-1.96-2.82-4.12-5.58-1.27-8.78 3.1-3.47 6.66-6.24 11.92-4.41 7.12 2.47 12.7 6.9 16.38 13.38.92 1.61.95 4.54.1 6.2-4.51 8.81-5.87 18.23-6.74 27.9-.48 5.33-1.95 10.57-3 15.85-.25 1.27-.96 2.56-.82 3.76.28 2.31 1.01 4.57 1.56 6.84 1.96-.95 3.89-1.95 5.88-2.84 1-.45 2.35-1.26 3.12-.92 5.52 2.39 7.96-1.64 10.73-4.92 2.33-2.77 4.75-5.02 8.83-4.23 3.73.72 5.98-1.11 7.99-4.29 5.93-9.38 12.51-18.36 18.28-27.83 3.38-5.55 5.67-11.76 8.53-17.63.85-1.75 1.84-3.48 3.02-5.03 1.68-2.19 3.65-3.22 6.03-.7 2.23 2.36 4.72 4.49 6.84 6.94 3.73 4.3 3.57 8.09-.23 12.43-6.99 7.98-13.69 16.24-21.05 23.86-5.95 6.15-12.64 11.6-19.11 17.22-2.23 1.94-2.63 3.57-.94 6.19 2.99 4.66 1.63 9.24-1.51 13.22-4.14 5.24-5.71 11.08-6.19 17.69-.42 5.76-2.34 11.4-3.42 17.12-1.72 9.1-3.39 18.22-4.83 27.37-.17 1.07 1.17 2.38 1.81 3.58.89-.56 2.06-.92 2.62-1.71 11.25-15.83 22.95-31.38 33.42-47.73 5.63-8.79 9-19.01 13.6-28.48 1.12-2.31 2.71-4.66 4.71-6.16 1.44-1.08 4.23-1.57 5.87-.93 3.18 1.24 5.56.76 7.27-1.84 5.46-8.26 10.24-17.02 16.18-24.9 7.35-9.76 10.69-20.98 14.03-32.35.59-2 1.86-3.79 2.77-5.61 10.97 1.5 18.58 8.54 17.97 17.13-.2 2.88-1.92 5.77-3.38 8.41-2.83 5.1-6.02 9.99-8.92 15.06-.51.89-.78 2.53-.31 3.29 4.4 7.05 8.69 14.2 13.62 20.87 2.88 3.89 6.71 3.54 8.9-.83 3.78-7.53 6.79-15.45 10.17-23.18 1.5-3.43 3.23-6.77 4.62-10.25 2.25-5.61 4.5-11.23 6.37-16.97.93-2.87 5.03-5.31 7.81-3.55 4.79 3.03 9.25 6.57 13.95 9.76s2.96 6.25.36 9.83c-5.04 6.92-10.74 13.59-14.39 21.22-5.53 11.55-13.89 20.63-22.24 29.89-2.65 2.94-5.4 5.8-7.83 8.92-3.47 4.44-3.04 9.22-.4 14.74 1.9 3.98 3.36 8.49 3.65 12.86.56 8.46-.13 17 .32 25.48.16 3 1.45 6.52 3.44 8.7 3.69 4.04 9.51 2.76 12.47-1.94.82-1.3 2.02-3.3 3.12-3.34 6.16-.25 9.96-4.61 14.48-7.69 3.48-2.37 6.41-2.69 9.52.76 3.79 4.2 7.8 8.23 12 12.02 4.03 3.63 4.11 8.11 2.6 12.43-1.43 4.07-5.66 4.37-9.29 3.89-14.22-1.88-28.04.97-41.95 3.03-3.99.59-5.61 2.82-5.57 6.74.09 7.7.02 15.4.02 23.1 0 7.03.21 14.07-.07 21.08-.21 5.23 3.15 7.54 7.04 8.94 4.24 1.53 8.78 2.69 13.26 3.01 10.26.72 20.59.53 30.85 1.27 8.47.61 16.92 1.83 25.32 3.19 3.52.57 5.05 4.93 2.92 7.74-4.93 6.52-10.03 12.92-15.18 19.27-2 2.47-4.26 3.34-8 2.92-11.46-1.28-23.02-1.69-34.56-2.18-7.02-.3-13.54-1.1-20.49-3.58-17.84-6.38-30.52-17.86-40.22-33.54-1.4-2.26-3.95-3.88-6.19-5.48-.6-.43-2.36-.07-3 .54-1.4 1.34-2.7 2.94-3.55 4.67-3.57 7.27-6.56 14.87-10.56 21.88-2.56 4.5-6.2 8.52-9.94 12.17-7.01 6.85-14.33 13.42-21.78 19.8-2.19 1.89-5.26 2.74-8.32 4.25zm-37.65-187.9c-1.53-3.02.75-7.35-4.53-7.82-5.72-.51-16.85 5.98-19.39 11.18-5.8 11.89-10.13 24.3-11.85 37.42-1.31 9.98-.13 19.35 9.51 25.53 3.81 2.45 8.38 2.07 10.08-1.68 1.4-3.08 2.41-6.37 3.26-9.66 2.01-7.69 3.89-15.41 5.7-23.15 2.46-10.58 4.82-21.21 7.22-31.82z" fill="#000001"/><path d="m335.96 167.69c-1.69-1.39-3.74-2.59-5.12-4.33-2.5-3.16-2.73-7.02-3.4-10.97-1.09-6.45-4.3-12.52-6.09-18.89-.91-3.23-.66-6.78-.94-10.19 3.49 1.01 7.27 1.46 10.4 3.14 7.71 4.15 15.52 8.31 22.55 13.47 10.01 7.34 7.4 17.66-2.36 22.92-4.31 2.32-9.45 3.11-15.04 4.85z" fill="#000001"/><g fill="#fafbfa"><path d="m377.9 391.2c-.2.3-.4.5-.6.8-.7-.6-1.4-1-2.2-1.5.2-.3.4-.5.5-.8.6.4 1.4.8 2.3 1.5zm-1.8 6.1c-.2-.2-.5-.4-.9-.6.4-.6.8-1.2 1.2-1.9s.7-1.3.9-1.9c.3.3.5.5.8.7-.7 1.3-1.4 2.6-2 3.7zm2.2-9c-.3.3-.5.5-.6.8-.6-.6-1.3-1.1-2-1.5.3-.3.5-.5.6-.7.6.5 1.3.9 2 1.4zm.3.2v-.9h2 4.5c-.3 1.3-.6 2.5-1 3.6s-.9 2.1-1.4 3c.4.5 1 1 1.6 1.4s1.2.8 1.9 1.1c-.3.2-.5.4-.8.8-.4-.3-1-.7-1.6-1.2s-1.2-1.1-1.6-1.6c-.5.6-1.1 1.1-1.7 1.6s-1.4.9-2.1 1.4c-.1-.3-.3-.5-.7-.8.6-.2 1.2-.5 1.9-1s1.4-1.1 2-1.8c-.5-.8-.9-1.6-1.2-2.5s-.6-2-.8-3.2c-.4.1-.7.1-1 .1zm2.5 2.7c.2 1 .7 1.7 1 2.2.3-.5.6-1.1 1-2s.6-1.9.9-3h-3.2-.4c.1.9.3 1.8.7 2.8z"/><path d="m396.5 388.5v1.5 3.6h1.5v.9c-.4 0-1 0-1.7 0h-7.9c-.5 0-.9 0-1.2 0v-.9h1.3v-3.5c0-.7 0-1.2 0-1.6h2.4c0-.8 0-1.4 0-1.7h1c0 .3-.1.8-.1 1.7h1.5c0-.8 0-1.4 0-1.7h1c0 .3-.1.9-.1 1.7zm-8.2 9.2c-.2-.3-.5-.5-.8-.8.8-.3 1.4-.6 1.9-.9s1-.7 1.4-1.1c.3.3.6.5.9.8-1.6 1-2.8 1.6-3.4 2zm2.6-6.8v-1.6h-1.5v1.6zm0 2.7v-1.9h-1.5v1.9zm2.4-2.7v-1.6h-1.5v1.6zm0 2.7v-1.9h-1.5v1.9zm.2 2 .7-.8c.4.2.9.5 1.6.8s1.3.7 1.8 1c-.3.3-.5.5-.8.8-.4-.3-1.5-1-3.3-1.8zm2-4.7v-1.6h-1.4v1.6zm0 2.7v-1.9h-1.4v1.9z"/></g></svg>