<svg enable-background="new 0 0 400 400" viewBox="0 0 400 400" xmlns="http://www.w3.org/2000/svg"><g fill="#000001"><path d="m176.32 186.87c14.83 1.7 29.15 3.35 43.48 4.98 1.15.13 2.32.14 3.48.14 14.5.01 28.99-.01 43.49.02 3.26 0 6.17.04 6.63-4.52.16-1.59 2.01-3.44 3.57-4.38 4.75-2.86 9.6-5.65 14.68-7.88 6.1-2.68 9.64 2.97 14.19 5.2 1.13.55 1.91 1.83 2.85 2.77 5.98 6 5.75 10.45-.83 15.41-3.57 2.7-5.24 8.67-3.56 13.15 1.61 4.28 5.26 4.38 9.03 4.26 2.5-.08 5.02-.23 7.49.03 7.05.72 11.41-2.3 14.21-8.75 2.89-6.67 6.96-7.1 11.18-1.48 2.94 3.9 5.68 7.98 8.15 12.19.84 1.43 1.41 4.36.64 5.11-1.28 1.25-3.77 1.86-5.69 1.76-7.2-.4-14.38-1.75-21.56-1.71-8.03.04-16.07 1.11-24.08 2-.98.11-2.41 1.77-2.54 2.84-.35 2.96-.22 5.99-.1 8.98.26 6.44.77 12.86.93 19.3.12 4.84-2.11 5.96-6.9 5.79-10.68-.38-21.39-.14-32.08-.12-8.86.01-17.73-.04-26.59.13-7.1.14-14.19.73-21.29.79-4.43.04-8.89-.99-13.28-.7-2.97.2-5.84 1.87-8.75 2.89 1.51 2.69 2.36 6.37 4.64 7.88 7.36 4.84 9.87 9.7 6.71 19.05-3.22 9.51 2.94 18.49 7.18 27.05 3.58 7.22 10.51 9.94 17.71 10.78 14.34 1.66 28.44 5.53 43.12 4.3 7.33-.61 9.92-2.17 9.45-9.58-.63-9.8-2.17-19.53-3.24-29.3-.39-3.58-.58-7.19-.86-10.78.4-.2.79-.39 1.19-.59.97 1.24 2.19 2.35 2.88 3.73 3.14 6.27 5.39 13.13 9.35 18.8 5.25 7.51 11.94 14.01 17.73 21.16 2.72 3.37 4.83 7.24 7.17 10.91 2.4 3.77.41 6.43-2.61 8.29-5.13 3.17-10.42 6.09-15.77 8.87-1.67.87-3.75 1.31-5.64 1.32-23.33.09-46.65.08-69.98.04-9.24-.02-22.74-10.83-25.21-19.73-.91-3.27-2.15-6.62-4.04-9.4-3.45-5.07-2.9-9.93-.84-15.21 1.5-3.85 2.45-7.91 3.75-12.21-8.01.23-10.34-2.49-10.8-10.67-.26-4.58-1.29-9.14-1.33-13.72-.07-8.28-5.8-13.54-9.77-19.78-.89-1.39-1.14-3.18-1.69-4.79 1.48-.5 2.93-1.33 4.44-1.44 11.19-.76 22.38-1.82 33.57-1.88 6.65-.04 13.28 1.86 19.96 2.32 10.53.74 21.1 1.21 31.65 1.27 1.92.01 4.78-2.08 5.62-3.92 2.31-5.09 4.53-10.45 5.38-15.92.9-5.81-1.52-7.89-7.75-7.86-6.95.03-13.89.84-20.84.88-20.66.13-41.32.05-61.98.05-9.65 0-10.8-.94-12.83-10.77 3.55.26 7.01.56 10.47.77 6.1.36 12.19.85 18.29.97 22.59.42 45.19.84 67.78.88 3.26 0 8.33-1.24 9.4-3.44 1.91-3.95 2.67-9.27-.5-13.46-.92-1.22-3.32-1.85-5.04-1.86-28.16-.11-56.31-.07-84.47-.08-5.83-.01-9.39-3.78-9-11.13z"/><path d="m131.25 258.39c-4.64-6.04-8.93-11.62-13.21-17.2-.7-.91-1.19-2.21-2.1-2.66-2.12-1.04-4.82-2.77-6.56-2.16-1.61.56-3.04 3.75-3.22 5.89-.46 5.29-.03 10.65-.19 15.98-.17 5.6-.9 11.2-.88 16.8.02 5.43.46 10.88 1.1 16.27 1.83 15.36 1.4 30.72-2.06 45.69-1.23 5.32-5.91 9.93-9.42 14.56-.88 1.17-3.68 1.96-4.98 1.43-1.31-.54-2.61-2.96-2.6-4.54.05-8.12.9-16.25.76-24.37-.16-9.22-1.17-18.42-1.62-27.64-.28-5.81-.33-11.64-.25-17.46.27-20.26.48-40.53 1.04-60.79.35-12.88 1.43-25.73 1.89-38.6.31-8.51-.02-17.04.16-25.56.11-5.21-3.77-6.56-7.33-6.81-5.03-.35-10.19.31-15.2 1.16-1.38.23-2.99 2.5-3.44 4.12-1.6 5.8-3.33 11.66-3.9 17.61-.48 5 .49 10.16.98 15.23.86 8.98 2.84 17.98 2.56 26.91-.41 13.24-2.36 26.42-3.74 39.62-.13 1.26-.62 2.6-1.32 3.65-1.87 2.83-5.02 2.7-6.14-.63-1.91-5.67-4.17-11.56-4.32-17.4-.25-9.85 1.43-19.72 1.58-29.6.17-11.26-.46-22.53-.74-33.79-.06-2.33.05-4.67-.11-6.99-.61-8.53-1.37-17.05-1.88-25.59-.1-1.67.28-3.71 1.25-4.94.44-.56 2.84.49 4.37.68 4.84.6 9.69 1.2 14.55 1.68 1.81.18 3.66.03 5.5.03 8.87 0 11.5-2.58 12.3-11.44.41-4.55.83-9.2 2.11-13.55 3.52-11.93 2.13-24.14 1.42-36.06-.43-7.24-4.85-14.25-7.49-21.35-1.01-2.72-2.35-5.36-2.91-8.16-.19-.94 1.34-2.86 2.49-3.32 8.84-3.51 16.71 2.36 21.19 7.4 2.85 3.2 5.73 6.38 8.81 9.35 2.03 1.96 3.29 3.48 3.84 6.83.83 5.06-1.55 6.31-4.79 8.01-3.98 2.09-6.21 7.28-5.74 12.48.46 5.08.89 10.19.97 15.28.15 9.99-.14 20 .08 29.99.56 24.87 1.21 49.73 2.03 74.59.18 5.37.82 10.8 2.01 16.03 1.08 4.76 8.1 9.25 12.5 7.62 2.52-.93 5.44-4.28 5.84-6.9 2.17-14.2 7.43-27.97 6.54-42.59-.82-13.48-1.93-26.94-3.02-40.39-.13-1.58-.8-3.15-1.36-4.67-.84-2.25-3.17-5.1-2.47-6.56 2.06-4.36 5.16-8.27 8.17-12.1.46-.58 3.27-.33 3.92.45 3.79 4.46 7.38 9.11 10.78 13.87 2.04 2.86 1.06 5.73-1.3 7.97-3.9 3.69-5.24 7.49-1.45 12.08.55.67.73 1.81.75 2.74.37 16.6.73 33.19 1.01 49.79.11 6.52-.07 13.04.04 19.56.16 9.88-3.89 18.49-8.56 26.73-1.39 2.41-4.97 3.55-8.24 5.74z"/><path d="m243.25 127.2c2.91.85 4.5 1.21 6.02 1.77 5.66 2.1 10.36.79 14.74-3.34 2.21-2.08 5.43-3.05 7.76-5.03 4.11-3.48 7.89-7.35 12.52-11.73 1.19 1.16 2.91 2.44 4.11 4.1 2.37 3.3 4.76 6.67 6.53 10.3 1.1 2.27 2.3 6.57 1.33 7.36-2.27 1.86-6.56 3.78-8.72 2.79-7.16-3.25-13.53-.3-20.17.88-4.65.83-9.31 1.64-13.88 2.77-1.56.39-4.14 1.76-4.12 2.64.11 5.51.2 11.19 1.64 16.44.58 2.1 4.52 4.52 7.04 4.63 16.24.73 32.51.99 48.78 1.14 4.98.05 10-1.12 13.03-5.49 1.65-2.38 2.09-5.6 3.09-8.43.79-2.25 1.34-4.64 2.45-6.72 2.17-4.04 6.08-4.68 9.07-1.19 5.97 6.96 11.67 14.17 17.23 21.47.82 1.08.99 3.86.23 4.66-1.11 1.17-3.36 1.73-5.12 1.72-8.55-.02-17.11-.34-25.66-.49-.96-.02-1.92.49-2.89.52-12.26.37-24.54 1.23-36.79.89-17.48-.49-34.92-2.51-52.39-2.69-17.19-.17-34.39 1.23-51.59 1.73-2.52.07-5.08-1.04-7.62-1.6-.04-.73-.09-1.45-.13-2.18 1.92-.71 3.82-1.98 5.76-2.04 7.82-.24 15.67.18 23.48-.19 5.53-.26 11.15-.86 16.48-2.26 7.29-1.91 11.48-10.3 10.09-17.75-.62-3.34-2.87-4.49-5.37-4.67-5.5-.41-11.05-.1-16.56-.31-3.6-.14-7.39-.11-10.67-1.31-1.24-.46-2.31-4.61-1.59-6.28.69-1.61 3.81-3.13 5.81-3.07 8.86.26 17.7 1.35 26.57 1.67 8.81.32 11.07-2.13 11.25-11.29.13-6.66-.12-13.33.11-19.99.08-2.27 1.12-4.5 2-7.78 6.5 7.12 12.12 13.28 12.27 22.21.04 2.52-1.58 5.1-2.55 7.6-1.11 2.82-2.32 5.56-3.57 8.54z"/><path d="m229.95 79.15c-1.61-.42-3.77-.7-5.64-1.58-1.01-.47-2.1-1.98-2.09-3.02 0-.83 1.47-2.02 2.52-2.41 11.4-4.29 22.62-9.28 34.35-12.37 7.62-2.01 13.38-5.95 19.36-10.45 2.65-1.99 6.54-2.49 9.97-3.19 1.11-.23 2.83.75 3.76 1.69 2.84 2.86 5.73 5.75 8 9.04 1.52 2.19 3.43 5.73 2.62 7.5-1 2.18-4.5 4.01-7.18 4.47-6.93 1.17-14 1.49-21.01 2.18-11.85 1.16-23.63 2.59-34.97 6.6-2.87 1.01-6.11 1-9.69 1.54z"/><path d="m309.11 275.5c2.12-.1 4.5-.88 6.3-.17 7.7 3 15.65 5.74 22.67 9.95 5.06 3.03 9.7 7.68 12.85 12.67 2.62 4.15 3.03 9.8 3.98 14.87.51 2.75.56 5.76.03 8.5-1.35 6.98-7.33 9.28-13.51 5.64-5.23-3.08-8.53-7.57-10.15-13.31-4.01-14.25-13.61-25.09-22.59-36.32.14-.61.28-1.22.42-1.83z"/><path d="m170.82 318.23c2.33 14.59-6.74 23.84-17.72 31.88-.82.6-4.28-.49-4.6-1.44-2.76-8.34-5.27-16.79-1.55-25.6 3.78-8.97 7.3-18.05 11.17-26.98.76-1.76 2.6-3.06 3.94-4.57 1.24 1.3 2.84 2.41 3.65 3.94 3.66 6.87 6.09 14.09 5.11 22.77z"/><path d="m153.08 130c5.83-4.52 11.04-7.69 15.14-11.94 6.31-6.54 12.25-13.54 17.6-20.88 4.59-6.3 8.28-13.27 12.09-20.1 1.78-3.2 4.04-2.24 5.58-.68 3.22 3.25 6.11 6.86 8.81 10.56 2.38 3.26.08 8.1-4.28 11.12-3.55 2.45-6.87 5.34-9.94 8.39-10.34 10.27-21.76 18.79-35.97 22.95-.93.27-1.91.5-2.87.55-1.62.09-3.25.03-6.16.03z"/><path d="m335.57 120.35c-1.68 2.46-3.12 5.74-5.58 7.83-2.5 2.12-5.25 1.07-7.27-1.91-7.47-11.06-14.99-22.08-22.73-32.95-2.37-3.33-5.61-6.03-8.25-9.19-.82-.98-.98-2.5-1.45-3.78 1.25-.14 2.67-.74 3.72-.34 13.71 5.1 27.52 10.38 35.71 23.51 2.9 4.65 3.76 10.58 5.85 16.83z"/><path d="m239.56 276.95c1.08.21 2.63.03 3.43.73 7.65 6.61 14.38 14.07 17.66 23.81 2.36 6.99-8.69 18.85-15.91 17.42-1.01-.2-2.52-1.43-2.6-2.29-1.12-12.91-2.04-25.84-2.99-38.77 0-.15.14-.31.41-.9z"/></g><path d="m377.9 391.2c-.2.3-.4.5-.6.8-.7-.6-1.4-1-2.2-1.5.2-.3.4-.5.5-.8.6.4 1.4.8 2.3 1.5zm-1.8 6.1c-.2-.2-.5-.4-.9-.6.4-.6.8-1.2 1.2-1.9s.7-1.3.9-1.9c.3.3.5.5.8.7-.7 1.3-1.4 2.6-2 3.7zm2.2-9c-.3.3-.5.5-.6.8-.6-.6-1.3-1.1-2-1.5.3-.3.5-.5.6-.7.6.5 1.3.9 2 1.4zm.3.2v-.9h2 4.5c-.3 1.3-.6 2.5-1 3.6s-.9 2.1-1.4 3c.4.5 1 1 1.6 1.4s1.2.8 1.9 1.1c-.3.2-.5.4-.8.8-.4-.3-1-.7-1.6-1.2s-1.2-1.1-1.6-1.6c-.5.6-1.1 1.1-1.7 1.6s-1.4.9-2.1 1.4c-.1-.3-.3-.5-.7-.8.6-.2 1.2-.5 1.9-1s1.4-1.1 2-1.8c-.5-.8-.9-1.6-1.2-2.5s-.6-2-.8-3.2c-.4.1-.7.1-1 .1zm2.5 2.7c.2 1 .7 1.7 1 2.2.3-.5.6-1.1 1-2s.6-1.9.9-3h-3.2-.4c.1.9.3 1.8.7 2.8z" fill="#fafbfa"/><path d="m396.5 388.5v1.5 3.6h1.5v.9c-.4 0-1 0-1.7 0h-7.9c-.5 0-.9 0-1.2 0v-.9h1.3v-3.5c0-.7 0-1.2 0-1.6h2.4c0-.8 0-1.4 0-1.7h1c0 .3-.1.8-.1 1.7h1.5c0-.8 0-1.4 0-1.7h1c0 .3-.1.9-.1 1.7zm-8.2 9.2c-.2-.3-.5-.5-.8-.8.8-.3 1.4-.6 1.9-.9s1-.7 1.4-1.1c.3.3.6.5.9.8-1.6 1-2.8 1.6-3.4 2zm2.6-6.8v-1.6h-1.5v1.6zm0 2.7v-1.9h-1.5v1.9zm2.4-2.7v-1.6h-1.5v1.6zm0 2.7v-1.9h-1.5v1.9zm.2 2 .7-.8c.4.2.9.5 1.6.8s1.3.7 1.8 1c-.3.3-.5.5-.8.8-.4-.3-1.5-1-3.3-1.8zm2-4.7v-1.6h-1.4v1.6zm0 2.7v-1.9h-1.4v1.9z" fill="#fafbfa"/></svg>