<svg enable-background="new 0 0 400 400" viewBox="0 0 400 400" xmlns="http://www.w3.org/2000/svg"><g fill="#000001"><path d="m176.21 165.4h26.89c4.32-8.22 8.35-15.4 11.91-22.81 3.3-6.88 6.35-13.91 9.05-21.05 2.65-7.01-1.07-12.5-8.71-12.39-6.01.08-12 1.59-18.02 2.14-8.03.73-16.09 1.33-24.15 1.55-1.41.04-3.47-1.81-4.19-3.3-2.34-4.8-4.2-9.84-6.5-15.4 1.87-.47 3.23-1.16 4.53-1.07 7.71.52 15.39 1.37 23.1 1.8 2.74.15 5.55-.94 8.28-.78 7.21.42 14.43.94 21.58 1.92 7.39 1.02 13.89-3.98 14-11.45.09-5.83-.1-11.67.05-17.5.22-8.63-5.41-13.02-11.8-17.06-1.6-1.01-2.78-2.69-4.15-4.06 1.69-.64 3.35-1.38 5.08-1.92 6.78-2.12 13.49-4.61 20.41-6.11 5.78-1.25 11.82-1.86 17.73-1.77 9.13.13 14.4 9.22 9.85 17.13-4.62 8.03-3.73 17.13-6.14 25.54-.36 1.25-.78 2.5-.97 3.79-.9 6.14 1.89 9.53 7.96 9.39 8.59-.21 17.2-.39 25.76-1.11 2.51-.21 4.91-2.12 7.26-3.44.98-.55 1.57-1.77 2.52-2.4 11.1-7.31 10.76-7.57 18.74.69 2.74 2.84 6.44 4.9 8.65 8.05 1.8 2.56 3.61 6.92 2.59 9.22-1.46 3.27-5.45 7.54-8.46 7.62-11.68.3-23.4-.9-35.1-1.53-6.93-.37-13.86-.8-20.8-1.05-4.69-.17-9.47-.64-14.06.02-7.22 1.05-9.13 5.52-6.28 12.46 3.52 8.57 10.45 13.31 18.6 16.41 14.11 5.37 28.58 9.85 42.49 15.69 12.53 5.26 12.67 11.36 12.21 21.73-.52 11.96-4.58 15.48-16.73 16.66-1.14.11-2.28.24-3.39.51-5.77 1.41-8.98.01-10.86-5.41-1.18-3.42-3.02-4.95-6.73-5.23-3.86-.3-7.6-1.84-11.46-2.29-2.65-.31-5.48.08-8.09.71-.72.17-1.34 2.35-1.3 3.58.03.96.94 2.4 1.81 2.75 11.31 4.62 9.47 13.39 7.65 22.54-1.43 7.2-2.48 14.53-2.92 21.85-.96 16.19-1.5 32.4-2.05 48.61-.14 4.13-.17 8.38.61 12.4 1.59 8.12 8.73 9.5 15.04 9.74 11.4.44 22.89-.04 34.28-.95 6.14-.49 9.53-5.96 11.84-10.92 3.06-6.56 4.85-13.72 7.18-20.62 1.16-3.44 2.32-6.87 3.47-10.31.5.11 1.01.22 1.51.32 0 2.69.25 5.41-.04 8.06-1.73 16.02-.01 31.08 9.54 44.9 7.71 11.15 2.38 19.19-7.97 22.33-2.45.74-5.46-.62-8.2-.54-5.94.16-11.87.75-17.8.92-14.97.42-29.95.42-44.9 1.16-6.42.32-11.07-2.13-15.31-6.32-1.07-1.05-2.01-2.28-3.2-3.15-9.35-6.83-11.31-15.87-10.36-27.15 1.59-18.79 1.52-37.72 2.31-56.58.18-4.4 1.05-8.78 1.56-13.17.19-1.64.31-3.28.37-4.93.35-8.79 1.16-17.6.78-26.37-.19-4.34-1.89-9.03-4.26-12.69-1.09-1.68-5.41-1.44-8.3-1.74-10.35-1.06-20.05 2.59-30.03 4.25-8.4 1.4-16.95 1.98-25.45 2.58-1.43.1-3.99-1.25-4.3-2.4-1.76-6.6-3.02-13.34-4.39-20.04-.12-.58.11-1.25.18-2.01zm84.32 2.3c5.72-.78 12.86-1.61 19.92-2.89 1.03-.19 2.67-2.96 2.31-3.81-1.74-4.11-3.38-8.61-6.33-11.79-5-5.4-11.05-9.81-16.48-14.84-2.6-2.41-4.68-2.29-7.01.17-6.59 6.98-13.32 13.83-19.8 20.9-3.92 4.28-2.89 8.63 2.53 10.27 2.61.79 5.63.15 8.45.37 5.04.41 10.05.98 16.41 1.62zm-24.98-73.01c2.11 4.37 3.79 8.46 6.06 12.19.71 1.16 3.01 1.36 4.58 1.99.6-1.61 1.68-3.22 1.69-4.84.02-2.74-.49-5.51-1.06-8.22-.36-1.72-1.34-3.3-1.84-5-.84-2.9-3.39-3.72-5.28-2.6-1.73 1.05-2.49 3.74-4.15 6.48z"/><path d="m89.26 50.88c10.17-2.21 18.35-4.83 26.69-5.51 5.26-.43 10.75 2.02 16.14 3.19.15.03.27.21.42.26 12.01 3.86 12.56 4.95 8.45 16.86-.74 2.15-1.3 4.48-2.55 6.33-9.79 14.58-8.16 30.67-6.44 46.8.05.49.01 1 .02 1.5.33 21.59.52 43.18 1.07 64.76.23 8.87 1.58 17.72 1.8 26.59.18 7.25-.58 14.52-.87 21.78-.37 9.26-1.1 18.53-.91 27.78.35 17.53 1.69 35.05 1.73 52.57.02 10.16-6.74 17.12-14.72 22.44-3.56 2.38-7.81.42-9.99-4.23-1.21-2.57-2.03-5.61-2.01-8.44.15-18.76.61-37.51.9-56.27.37-24.25.89-48.5.94-72.76.03-18.09-.56-36.18-.94-54.27-.28-13.43-.5-26.86-1.04-40.28-.43-10.71-.92-21.44-2.13-32.07-.56-4.99-4.08-8.65-8.83-11.04-2.49-1.23-4.51-3.43-7.73-5.99z"/><path d="m95.89 363.63c1.02-.71 1.98-1.55 3.08-2.09 14.82-7.29 29.29-15.17 42.2-25.6 1.8-1.45 3.42-3.14 5.1-4.73 6.14-5.79 12.12-11.74 18.43-17.33 7.62-6.75 12.71-15.38 15.94-24.57 5.25-14.93 9.27-30.33 13.19-45.69 1.56-6.13 1.93-12.68 1.96-19.04.02-3.36-1.14-7.2-3.01-10-2.67-4.01-1.73-6.67 1.92-8.39 3.93-1.86 8.39-4.3 12.35-3.9 4.37.44 8.56 3.63 12.63 5.96 10.84 6.21 9.55 15.74 6.2 25.32-5.52 15.8-10.52 31.9-17.54 47.03-5.66 12.2-14.33 22.86-22.66 33.63-7.85 10.15-17.38 17.84-27.98 24.25-7.81 4.72-16.66 7.7-25.01 11.54-1.44.66-2.61 1.91-4.03 2.63-8.7 4.41-17.36 8.91-26.23 12.96-1.73.79-4.3-.27-6.48-.48-.01-.49-.03-.99-.06-1.5z"/><path d="m73.79 112.73c1.42 3.17 2.8 6.35 4.26 9.5 3.8 8.18 7.72 16.38 6.9 25.72-1.33 15.13-4.9 29.57-14.39 41.92-6.14 7.99-19.35 9.08-25.95 1.87-1.27-1.38-1.86-4.62-1.16-6.36 6.46-16.18 12.8-32.43 20.21-48.18 2.98-6.33 3.96-13 6.33-19.35.65-1.73 1.58-3.36 2.38-5.03.48-.04.95-.07 1.42-.09z"/><path d="m148.28 121.2c3.3 1.99 6.05 3.57 8.71 5.28 3.94 2.53 8.32 4.65 11.64 7.85 8.9 8.59 6.91 25.78-3.58 31.91-2.62 1.53-6.06 2.86-9.07.18-2.8-2.5-4.38-5.12-3.67-9.47.68-4.19-.24-8.73-.9-13.04-.91-5.95-2.3-11.83-3.36-17.76-.23-1.23.1-2.57.23-4.95z"/></g><path d="m377.9 391.2c-.2.3-.4.5-.6.8-.7-.6-1.4-1-2.2-1.5.2-.3.4-.5.5-.8.6.4 1.4.8 2.3 1.5zm-1.8 6.1c-.2-.2-.5-.4-.9-.6.4-.6.8-1.2 1.2-1.9s.7-1.3.9-1.9c.3.3.5.5.8.7-.7 1.3-1.4 2.6-2 3.7zm2.2-9c-.3.3-.5.5-.6.8-.6-.6-1.3-1.1-2-1.5.3-.3.5-.5.6-.7.6.5 1.3.9 2 1.4zm.3.2v-.9h2 4.5c-.3 1.3-.6 2.5-1 3.6s-.9 2.1-1.4 3c.4.5 1 1 1.6 1.4s1.2.8 1.9 1.1c-.3.2-.5.4-.8.8-.4-.3-1-.7-1.6-1.2s-1.2-1.1-1.6-1.6c-.5.6-1.1 1.1-1.7 1.6s-1.4.9-2.1 1.4c-.1-.3-.3-.5-.7-.8.6-.2 1.2-.5 1.9-1s1.4-1.1 2-1.8c-.5-.8-.9-1.6-1.2-2.5s-.6-2-.8-3.2c-.4.1-.7.1-1 .1zm2.5 2.7c.2 1 .7 1.7 1 2.2.3-.5.6-1.1 1-2s.6-1.9.9-3h-3.2-.4c.1.9.3 1.8.7 2.8z" fill="#fafbfa"/><path d="m396.5 388.5v1.5 3.6h1.5v.9c-.4 0-1 0-1.7 0h-7.9c-.5 0-.9 0-1.2 0v-.9h1.3v-3.5c0-.7 0-1.2 0-1.6h2.4c0-.8 0-1.4 0-1.7h1c0 .3-.1.8-.1 1.7h1.5c0-.8 0-1.4 0-1.7h1c0 .3-.1.9-.1 1.7zm-8.2 9.2c-.2-.3-.5-.5-.8-.8.8-.3 1.4-.6 1.9-.9s1-.7 1.4-1.1c.3.3.6.5.9.8-1.6 1-2.8 1.6-3.4 2zm2.6-6.8v-1.6h-1.5v1.6zm0 2.7v-1.9h-1.5v1.9zm2.4-2.7v-1.6h-1.5v1.6zm0 2.7v-1.9h-1.5v1.9zm.2 2 .7-.8c.4.2.9.5 1.6.8s1.3.7 1.8 1c-.3.3-.5.5-.8.8-.4-.3-1.5-1-3.3-1.8zm2-4.7v-1.6h-1.4v1.6zm0 2.7v-1.9h-1.4v1.9z" fill="#fafbfa"/></svg>