<svg enable-background="new 0 0 400 400" viewBox="0 0 400 400" xmlns="http://www.w3.org/2000/svg"><g fill="#000001"><path d="m208.95 350.63c-.62-5.54 3.25-6.33 5.99-8.02 9.45-5.83 17.55-13.11 23.98-22.12 4.71-6.6 8.51-13.89 13.57-20.18 5.58-6.93 12.15-13.06 18.25-19.57 3.96-4.22 8.46-8.11 11.58-12.89 2.89-4.44.76-9.75-.66-14.46-3.68-12.12-8.38-23.97-11.31-36.26-2.45-10.28-2.77-21.06-4.41-31.56-1.38-8.85-3.29-17.62-4.99-26.43-.09-.47-.4-.89-.57-1.35-1.11-2.93-1.52-7.69-3.44-8.4-3.9-1.46-8.66-1.18-12.98-.75-3.46.34-6.96 1.6-10.1 3.15-1.59.79-2.96 3.03-3.34 4.84-.18.86 2.64 2.04 3.33 3.45 1.63 3.35 4.08 6.99 3.9 10.39-.47 8.95-2.24 17.82-3.34 26.75-.62 5.05-1.26 10.13-1.31 15.21-.05 5.02 2.63 6.5 7.54 5.85 4.7-.62 9.62.06 13.23-4.12.38-.44 2.13-.27 2.8.22 3.9 2.88 3.79 7.28 3.11 11.25-.29 1.68-2.9 3.73-4.81 4.2-5.84 1.43-11.89 1.99-17.78 3.25-6.58 1.41-8.35 5.09-9.39 11.76-1.21 7.77-3.38 15.55-6.29 22.86-5.04 12.65-10.35 25.26-16.71 37.28-5.16 9.75-11.14 19.37-18.4 27.59-5.83 6.6-14.1 11.04-21.37 16.35-.93.68-2.29.77-3.45 1.14-.43-.43-.85-.85-1.28-1.28 1.89-2.41 3.4-5.29 5.74-7.12 4.67-3.66 9.8-6.74 14.73-10.07.14-.09.38-.22.37-.31-.87-6.8 6.63-8.49 8.42-13.99 2.85-8.76 6.9-17.14 10.56-25.63 6.15-14.26 6.64-29.76 9.75-44.68.7-3.36-3.32-6.57-6.77-5.95-10.9 1.98-21.76 4.15-32.71 5.79-2.93.44-6.26-.36-9.14-1.35-2.61-.9-1.68-9.02 1.41-10.29 4.32-1.79 8.87-3.29 13.46-4.08 6.45-1.11 13.1-1.1 19.54-2.25 4.42-.79 8.78-2.43 12.87-4.34 1.32-.61 2.16-3.21 2.4-5.01.84-6.32 1.79-12.7 1.81-19.05.01-6.01-1.05-12.04-1.73-18.04-.94-8.29-1.9-16.58-3.06-24.84-.14-.97-1.52-1.85-2.47-2.59-2.32-1.8-5.05-3.2-7.02-5.32-2.07-2.23-3.45-5.1-5.92-8.9 4.3-.96 8.33-2.35 12.44-2.69 14.27-1.16 28.78.45 42.76-4.02 2.56-.82 7.08-.16 7.69-1.53 2.22-4.96 4.11-10.45 4.4-15.83.81-15-.49-29.92-3.62-44.69-1.12-5.27-.66-10.85-1.26-16.25-.35-3.15-1.37-6.23-2.09-9.34.44-.39.88-.77 1.32-1.16 3.65 2.78 7.17 5.76 10.99 8.27 1.9 1.24 4.38 2.37 6.55 2.29 10.27-.39 19.8 2.43 28.97 6.49 4.24 1.88 4.4 4.5 1.35 8.08-1.72 2.02-4.1 3.56-5.53 5.74-2.8 4.29-5.47 8.74-7.62 13.38-4.46 9.65-4.42 20.25-5.81 30.53-1.04 7.71 3 12.18 10.83 11.86 5.38-.22 10.72-1.54 16.1-1.74 4.41-.17 8.85.61 13.28.93 5.15.37 9.06-1.83 12.93-5.15 1.92-1.65 5.58-2.5 8.07-1.95 3.34.74 6.36 3.09 9.38 4.98.73.46.95 1.77 1.36 2.71.95 2.2 1.57 4.6 2.86 6.57 1.91 2.93 1.67 5.03-1.72 6.08-3.9 1.2-7.67 1.59-10.32-2.76-1.85-3.03-4.35-3.48-7.59-1.46-1.83 1.14-4.24 1.65-6.44 1.83-14.29 1.12-28.6 1.94-42.88 3.24-1.74.16-3.83 2.24-4.82 3.97-3.35 5.89-1.21 12.03-.04 18.03 2.56 13.1 5.15 26.19 8.03 39.22.72 3.27 2.63 6.27 3.88 9.44 2.28 5.81 4.48 11.66 6.84 17.82.61-.97 1.36-2.11 2.05-3.28 1.79-3.02 3.82-5.94 5.27-9.12 1.87-4.1 3.02-8.54 4.93-12.62 4.06-8.72 8.24-17.39 12.73-25.9 2.07-3.93 4.13-3.53 7.42-.53 1.74 1.58 4.55 2.16 6.99 2.76 8.05 1.96 8.18 2.77 3.97 9.73-7.34 12.13-14.07 24.64-21.39 36.79-3.19 5.3-7.11 10.18-10.89 15.1-1.75 2.27-1.79 4.16-.33 6.58 2.61 4.33 4.96 8.82 7.37 13.27.81 1.5 1.89 3.04 2.07 4.65.48 4.09 4.13 3.67 6.49 5.13.83.51 1.56 1.26 2.16 2.04 3.07 3.98 6.01 8.06 9.15 11.99 3.26 4.1 6.39 8.38 10.15 11.99 2.86 2.75 6.6 4.57 10.89 7.43 4.81-10.68 9.48-21.02 13.83-30.67-.51 7.71-1.67 16.2-1.46 24.66.2 7.97 1.68 15.93 2.9 23.85 1.22 7.91-.98 12.38-8.23 15.45-1.94.82-3.94 1.53-5.97 2.11-4.58 1.3-8.23 2.14-12.03-3.18-4.44-6.22-11.34-10.61-16.64-16.29-13.4-14.38-26.45-29.08-39.74-43.56-3.68-4.01-5.5-3.76-9.21.2-10.29 11.02-20.6 22.01-30.96 32.96-11.36 12.01-24.87 21.37-38.31 30.8-2.35 1.62-4.74 3.1-7.09 4.64z"/><path d="m171.21 217.84c-1.53-1.86-3.07-3.6-4.46-5.45-3.28-4.37-6.68-8.67-9.66-13.24-2.93-4.5-5.32-9.36-8.1-13.96-.97-1.61-2.42-2.94-3.64-4.39-.6.1-1.19.21-1.79.31-.16 6.27-.77 12.56-.36 18.8.37 5.76 2.67 11.53-1.97 16.66-.32.35-.27 1.42.03 1.89 4.01 6.45 2.62 13.11.55 20.26 1.54-.17 2.68-.29 3.96-.43.08.71.21 1.35.23 2 .34 9.59.8 19.19.96 28.79.17 10.03.24 20.07-.09 30.08-.08 2.53-1.87 5.01-3.05 7.94 5.62 8.2.05 44.9-15.75 48.95-2.96-8.3-5.06-16.83-3.93-25.7 2-15.81 3.31-31.62 2.91-47.58-.49-19.32-.43-38.65-1.15-57.96-.38-10.16-1.84-20.28-2.99-30.4-.17-1.51-1.29-2.92-2.55-5.61-4.03 4.92-7.7 8.97-10.89 13.37-6.61 9.12-12.72 18.6-19.49 27.6-8.31 11.05-18.17 20.62-28.95 29.35-6.23 5.05-11.71 11.03-17.38 16.73-2.95 2.97-5.51 6.31-8.39 9.36-2.86 3.02-6.33 3.5-9.89 2.74 2.4-2.71 4.04-5.83 6.61-7.21 8.53-4.58 10.22-13.75 15.02-20.8.64-.94 1.9-1.46 3.58-2.7-.58-3.47 3.76-4.83 6.19-7.73 6.49-7.77 12.83-15.74 18.36-24.2 10.42-15.9 17.09-33.68 24.26-51.18.18-.45.45-.89.55-1.36 2.49-11.78 1.53-10.9-9.61-10.82-11.34.08-22.68-.17-34.03-.1-1.75.01-3.71.67-5.18 1.62-2.85 1.85-4.82 1.67-7.23-.93-3.19-3.44-6.98-6.31-10.37-9.57-1.35-1.3-2.32-3-3.66-4.77 1.23-.54 1.95-1.12 2.67-1.13 7.68-.07 15.36.06 23.04-.11 4.79-.1 9.57-.51 14.34-1.01 1.51-.16 3.35-.71 4.33-1.75 4.8-5.12 10.25-3.42 16.15-2.74 6.08.7 12.59.27 18.54-1.17 7.21-1.75 10.27-9.41 9.08-17.43-.9-6.04-.45-12.27-1.28-18.33-.93-6.74-2.42-13.43-4.05-20.04-1.86-7.56-4.24-14.98-6.17-22.53-.6-2.34-.46-4.86-.77-8.72 4.07 1.38 7.98 1.69 10.37 3.74 4.55 3.92 8.92 4.83 14.59 3.09 6.33-1.94 8.61.03 9.39 6.31.24 1.92 1.24 4.35 2.71 5.4 3.41 2.43 7.16 4.53 11.05 6.07 6.5 2.57 7.55 5.88 2.66 11.04-2.59 2.74-5.32 5.69-8.58 7.4-4.61 2.42-5.47 6.58-5.82 10.63-.96 11.39.45 21.91 11.73 28.65 5.22 3.12 8.61 3.26 12.54-1.4.85-1.02 1.7-2.35 2.83-2.74 1.18-.41 3.25-.4 3.97.35 3.93 4.14 7.6 8.19 7.01 14.9-.43 4.89-2.46 5.93-6.68 6.42-8.41.97-16.81 2.17-25.09 3.9-5.61 1.17-7.32 5.28-4.53 10.3 1.6 2.89 4.3 5.17 6.41 7.79 1.96 2.44 3.55 5.23 5.75 7.41 5.64 5.6 11.62 10.86 17.28 16.44 2.12 2.1 4.29 4.5 5.34 7.19.55 1.42-.98 3.94-2.07 5.64-1.19 1.89-2.97 3.41-5.39 6.07z"/><path d="m320.21 74.1c7.45 3.72 14.05 7.22 20.83 10.31 2.89 1.31 6.17 1.78 9.29 2.59 1.71.45 3.76.37 5.09 1.33 1.52 1.1 3.38 3.13 3.31 4.66-.09 1.68-2.05 4.48-3.48 4.68-5.9.81-9.49 3.8-11.86 9.13-.38.86-3.64 1.08-5.25.58-1.3-.4-2.36-2.21-3.14-3.61-4.67-8.39-9.24-16.83-13.78-25.29-.49-.92-.5-2.08-1.01-4.38z"/></g><path d="m377.9 391.2c-.2.3-.4.5-.6.8-.7-.6-1.4-1-2.2-1.5.2-.3.4-.5.5-.8.6.4 1.4.8 2.3 1.5zm-1.8 6.1c-.2-.2-.5-.4-.9-.6.4-.6.8-1.2 1.2-1.9s.7-1.3.9-1.9c.3.3.5.5.8.7-.7 1.3-1.4 2.6-2 3.7zm2.2-9c-.3.3-.5.5-.6.8-.6-.6-1.3-1.1-2-1.5.3-.3.5-.5.6-.7.6.5 1.3.9 2 1.4zm.3.2v-.9h2 4.5c-.3 1.3-.6 2.5-1 3.6s-.9 2.1-1.4 3c.4.5 1 1 1.6 1.4s1.2.8 1.9 1.1c-.3.2-.5.4-.8.8-.4-.3-1-.7-1.6-1.2s-1.2-1.1-1.6-1.6c-.5.6-1.1 1.1-1.7 1.6s-1.4.9-2.1 1.4c-.1-.3-.3-.5-.7-.8.6-.2 1.2-.5 1.9-1s1.4-1.1 2-1.8c-.5-.8-.9-1.6-1.2-2.5s-.6-2-.8-3.2c-.4.1-.7.1-1 .1zm2.5 2.7c.2 1 .7 1.7 1 2.2.3-.5.6-1.1 1-2s.6-1.9.9-3h-3.2-.4c.1.9.3 1.8.7 2.8z" fill="#fafbfa"/><path d="m396.5 388.5v1.5 3.6h1.5v.9c-.4 0-1 0-1.7 0h-7.9c-.5 0-.9 0-1.2 0v-.9h1.3v-3.5c0-.7 0-1.2 0-1.6h2.4c0-.8 0-1.4 0-1.7h1c0 .3-.1.8-.1 1.7h1.5c0-.8 0-1.4 0-1.7h1c0 .3-.1.9-.1 1.7zm-8.2 9.2c-.2-.3-.5-.5-.8-.8.8-.3 1.4-.6 1.9-.9s1-.7 1.4-1.1c.3.3.6.5.9.8-1.6 1-2.8 1.6-3.4 2zm2.6-6.8v-1.6h-1.5v1.6zm0 2.7v-1.9h-1.5v1.9zm2.4-2.7v-1.6h-1.5v1.6zm0 2.7v-1.9h-1.5v1.9zm.2 2 .7-.8c.4.2.9.5 1.6.8s1.3.7 1.8 1c-.3.3-.5.5-.8.8-.4-.3-1.5-1-3.3-1.8zm2-4.7v-1.6h-1.4v1.6zm0 2.7v-1.9h-1.4v1.9z" fill="#fafbfa"/></svg>