<svg enable-background="new 0 0 400 400" viewBox="0 0 400 400" xmlns="http://www.w3.org/2000/svg"><g fill="#000001"><path d="m277.17 64.43c2.77 1.85 5.9 3.32 8.24 5.61 10.87 10.63 23.64 10.72 37.01 6.81 2.19-.64 3.95-3.2 5.58-5.14 1.45-1.73 2.37-3.9 3.64-5.8 5.04-7.5 10.19-8.21 17.34-2.41 3.95 3.2 7.97 6.34 11.71 9.79 2.98 2.74 3.22 6.13.33 9.12-7.44 7.71-6.36 17.11-5.56 26.49.13 1.47.48 2.92.53 4.39.37 11.93.59 23.87 1.05 35.8.56 14.7 1.31 29.4 1.97 44.1.34 7.43.75 14.86.98 22.3.51 16.78-6.7 30.67-16.51 43.56-.89 1.17-1.73 2.37-2.65 3.51-3.73 4.63-8.48 4.24-12.21-.3-3.35-4.08-7-8.16-11.27-11.15-2.34-1.63-6.64-2.08-9.37-1.12-3.27 1.15-5.38 10.73-3.99 13.54.42.85.96 1.77.97 2.67.39 17.76 1.01 35.53.85 53.29-.04 5.02-1.87 10.24-3.93 14.92-.93 2.11-4.32 4.04-6.76 4.28-1.78.17-4.87-2.17-5.59-4.07-1.73-4.61-3.13-9.59-3.38-14.48-.5-9.81-.15-19.65-.15-29.49 0-17.02.21-34.04-.09-51.06-.14-8.04-1.51-16.06-1.86-24.11-.83-19.38-1.38-38.76-2.06-58.15-.31-8.96-.86-17.92-.92-26.89-.04-5.76 1.28-11.59.78-17.29-.98-11.06-2.83-22.05-4.31-33.07-.65-4.85-1.31-9.69-1.96-14.54.53-.36 1.06-.74 1.59-1.11zm27.83 129.82c0 11.66-.21 23.32.15 34.97.09 2.94 1.68 8.07 3.2 8.31 5.37.86 11.42 1.9 16.22-1.95 2-1.6 4-4.37 4.24-6.78.82-8.21 1.05-16.5 1.12-24.77.05-5.26-.89-10.53-.85-15.79.05-7.6.73-15.19.88-22.79.17-8.53.16-17.06.01-25.59-.24-13.93-.6-27.85-1.02-41.77-.07-2.43-.57-4.88-1.09-7.27-1.36-6.27-2.75-7.26-9.19-6.83-9.65.64-14.03 4.45-15.7 13.6-1.37 7.54-1.02 14.95-.22 22.62 1.51 14.44 1.75 29.02 2.19 43.55.31 10.17.06 20.33.06 30.49z"/><path d="m184.01 80.74c10.83 4.69 16.54 1.86 23.08-5.37 4.97-5.5 10-10.96 14.66-16.72 3.99-4.94 7.8-10.09 11.13-15.49 3.58-5.79 6.58-7.05 11.15-1.73 4.63 5.4 9.99 10.19 14.46 15.7 4.22 5.21 6 8.54-2.85 11.01-12.36 3.45-24.75 6.88-36.89 11.03-5.13 1.75-9.75 5.13-14.4 8.07-3.89 2.46-2.14 5.24.19 7.75.43.46 1.06.76 1.64 1.03 8.2 3.9 9.57 10.88 8.86 19.02-.56 6.41-.5 12.88-1.09 19.29-.74 8.15-1.89 16.25-2.78 24.39-.2 1.8-.58 3.85.03 5.44 2.69 7.09 1.52 14.15 1.04 21.4-.55 8.19.49 16.49.71 24.74.1 3.91 2.78 4.52 5.68 4.66 9.85.47 15.69-4.67 16.35-14.55.51-7.58.78-15.18 1.01-22.78.4-13.26.89-26.53.92-39.79.01-5.19-1.39-10.37-1.67-15.58-.18-3.4.78-6.85.71-10.27-.15-8.1-.62-16.2-.93-24.3-.06-1.66-.01-3.32-.01-5.23 10.36 1.51 18.65 6.71 26.6 12.64 1.18.88 2.4 1.7 3.57 2.59 2.47 1.88 2.57 4.16-.08 5.55-3.55 1.85-4.29 4.02-3.27 7.85.58 2.17-.29 4.88-1 7.2-4.26 13.93-2.27 27.96-.88 41.99.05.5.04 1 .06 1.5.33 9.93 1.34 19.9.84 29.79-.66 13.09-3.17 26.1-3.65 39.19-.65 17.82-8.06 33.84-12.08 50.74-1.32 5.53-3.59 10.69-8.38 14.41-1.15.89-1.8 2.68-2.25 4.18-5.33 17.84-15.18 32.13-30.96 40.48-.68 2.26-.68 3.99-1.55 4.84-4.76 4.71-9.77 9.17-14.62 13.79-1.05 1-1.7 2.4-2.67 3.49-2.59 2.88-5.44 4.74-10.08 1.18 2.07-1.7 4.05-3.21 5.89-4.88 10.07-9.13 18.48-19.65 26.53-30.59 10.54-14.31 15.17-30.76 19.01-47.65 2.31-10.16 4.92-20.24 7.23-30.4 1.08-4.75 2.15-9.56 2.52-14.4.38-4.94-5.18-7.26-9.99-4.07-3.81 2.52-7.11 5.8-10.78 8.54-1.73 1.29-3.81 2.11-5.98 2.29-.99 1.39-1.91 2.84-2.99 4.16-2.7 3.31-5.25 6.78-8.28 9.77-3.83 3.77-6.02 2.99-8.35-1.68-2.45-4.93-5.57-9.52-8.12-14.4-2.94-5.62-2.43-8.3 3.32-10.25 8.33-2.83 10.4-8.81 10.4-16.48 0-13.83.13-27.66-.04-41.49-.14-11.27-.35-22.55-1.07-33.79-.38-5.98-1.97-11.88-2.89-17.84-1.07-6.94-1.81-13.94-3.07-20.85-.73-3.97-2.34-7.78-3.28-11.72-.52-2.08-.42-4.3-.66-7.4z"/><path d="m39.38 350.58c2.27-2.07 4.32-4.49 6.86-6.15 15.19-9.91 26.68-23.32 36.72-38.16 2.19-3.24 4.33-6.56 6.87-9.52 3.34-3.89 3.88-8.1 2.65-12.84-1.43-5.51.61-11.98 5.23-14.78 6.55-3.98 9.13-10.36 10.15-17.16 2.33-15.56 5.39-30.98 5.43-46.93.03-14.74 1.87-29.54 3.96-44.17.84-5.91.9-11.34-.07-17.15-.63-3.77.81-7.84.76-11.77-.19-14.1.03-28.25-1.12-42.29-1.16-14.09-3.37-28.14-12.43-39.98-2.36-3.08-2.15-6.15 2.14-7.86 5.43-2.17 10.74-4.67 16.26-6.57 1.63-.56 3.91.14 5.69.79 6.83 2.52 13.58 5.25 20.36 7.91 2.52.99 2.62 2.52 1.26 4.68-8.38 13.27-7.91 28.34-9.26 43.2-1.81 19.95-3.36 39.87-2.84 59.92.11 4.08-.37 8.97 3.86 10.7 1.2.49 5.11-4.06 6.9-6.87 6.4-10.04 10.45-20.98 11.26-32.98.07-1.07.43-2.12.66-3.18.54-.27 1.08-.54 1.62-.8 2.91 4.33 5.17 9.36 8.89 12.8 4.94 4.58 4 11.34 7.78 16.28 3.74 4.9 2.42 7.82-2.77 11.74-12.41 9.36-24.67 18.91-36.9 28.5-4.35 3.41-4.4 11.48-1.01 16 4.2 5.59 8.11 11.43 11.72 17.42 5.64 9.36 10.99 18.91 16.33 28.45 4.36 7.79 8.39 15.77 9.79 24.72.32 2.05.4 5.45-.74 6.2-4.82 3.17-9.9 6.59-15.37 7.97-5.42 1.37-10.57-3.66-11.88-10.67-2.33-12.52-4.12-25.14-6.15-37.71-.99-6.11-1.87-12.24-3.16-18.29-.32-1.49-2.04-2.67-3.12-4-1.2 1.18-3.01 2.17-3.46 3.59-1.09 3.44-1.58 7.07-2.24 10.63-.72 3.83-1.11 7.74-2.1 11.49-3.16 12.03-6.4 24.04-9.86 35.99-3.56 12.32-10.16 23.02-18.78 32.38-6.25 6.79-12.85 13.28-19.6 19.56-3.05 2.83-6.66 5.23-10.37 7.14-8.68 4.47-17.58 8.53-26.4 12.71-.68.32-1.52.31-2.28.45-.42-.45-.83-.92-1.24-1.39z"/><path d="m80.09 123.56c1.19 2.24 2.82 4.35 3.51 6.73 4.08 14.18 9.07 28.23 11.57 42.71 2.35 13.64 4.09 27.85-.52 41.56-2.54 7.56-7.12 13.94-14.05 18.3-2.73 1.71-11.46-1.56-14.27-5.09-4.19-5.28-4.62-10.11-2.13-17.01 4.44-12.29 6.76-25.36 9.75-38.16 1.59-6.81 3.2-13.68 3.93-20.61.96-9.14 1.06-18.38 1.53-27.58.24-.28.46-.57.68-.85z"/></g><path d="m377.9 391.2c-.2.3-.4.5-.6.8-.7-.6-1.4-1-2.2-1.5.2-.3.4-.5.5-.8.6.4 1.4.8 2.3 1.5zm-1.8 6.1c-.2-.2-.5-.4-.9-.6.4-.6.8-1.2 1.2-1.9s.7-1.3.9-1.9c.3.3.5.5.8.7-.7 1.3-1.4 2.6-2 3.7zm2.2-9c-.3.3-.5.5-.6.8-.6-.6-1.3-1.1-2-1.5.3-.3.5-.5.6-.7.6.5 1.3.9 2 1.4zm.3.2v-.9h2 4.5c-.3 1.3-.6 2.5-1 3.6s-.9 2.1-1.4 3c.4.5 1 1 1.6 1.4s1.2.8 1.9 1.1c-.3.2-.5.4-.8.8-.4-.3-1-.7-1.6-1.2s-1.2-1.1-1.6-1.6c-.5.6-1.1 1.1-1.7 1.6s-1.4.9-2.1 1.4c-.1-.3-.3-.5-.7-.8.6-.2 1.2-.5 1.9-1s1.4-1.1 2-1.8c-.5-.8-.9-1.6-1.2-2.5s-.6-2-.8-3.2c-.4.1-.7.1-1 .1zm2.5 2.7c.2 1 .7 1.7 1 2.2.3-.5.6-1.1 1-2s.6-1.9.9-3h-3.2-.4c.1.9.3 1.8.7 2.8z" fill="#fafbfa"/><path d="m396.5 388.5v1.5 3.6h1.5v.9c-.4 0-1 0-1.7 0h-7.9c-.5 0-.9 0-1.2 0v-.9h1.3v-3.5c0-.7 0-1.2 0-1.6h2.4c0-.8 0-1.4 0-1.7h1c0 .3-.1.8-.1 1.7h1.5c0-.8 0-1.4 0-1.7h1c0 .3-.1.9-.1 1.7zm-8.2 9.2c-.2-.3-.5-.5-.8-.8.8-.3 1.4-.6 1.9-.9s1-.7 1.4-1.1c.3.3.6.5.9.8-1.6 1-2.8 1.6-3.4 2zm2.6-6.8v-1.6h-1.5v1.6zm0 2.7v-1.9h-1.5v1.9zm2.4-2.7v-1.6h-1.5v1.6zm0 2.7v-1.9h-1.5v1.9zm.2 2 .7-.8c.4.2.9.5 1.6.8s1.3.7 1.8 1c-.3.3-.5.5-.8.8-.4-.3-1.5-1-3.3-1.8zm2-4.7v-1.6h-1.4v1.6zm0 2.7v-1.9h-1.4v1.9z" fill="#fafbfa"/></svg>