<svg enable-background="new 0 0 400 400" viewBox="0 0 400 400" xmlns="http://www.w3.org/2000/svg"><path d="m225.19 329.54c-.64-.32-1.51-.75-2.37-1.19-2.72-1.38-6.95-2.14-7.84-4.28-1.59-3.84-1.38-8.51-1.54-12.85-.31-8.04-.13-16.1-.6-24.12-.16-2.84-2.18-4.51-5.57-4.15-8.65.93-17.38 1.28-25.99 2.48-8.01 1.12-11.17-.75-14.47-7.92-1.82-3.96-5.36-7.15-8.24-10.58-.71-.85-1.91-1.28-2.89-1.9.24-.56.47-1.11.71-1.67 1.79 0 3.67-.37 5.35.07 5.01 1.3 9.87 3.24 14.92 4.26 2.6.52 5.48-.46 8.24-.66 9.86-.7 19.72-1.58 29.6-1.93 5.08-.18 10.2.58 15.29.97 7.87.61 15.73 1.4 23.61 1.85 2.22.13 4.96-.01 6.62-1.2 2.09-1.49 4.61-4.13 4.7-6.37.3-7.23-.13-14.52-.87-21.73-.48-4.62-3.37-7.46-8.48-6.59-7.23 1.23-14.42 2.62-21.63 3.97-8.78 1.65-17.6 3.14-26.33 5.03-10.95 2.37-21.81 5.14-32.75 7.59-2.23.5-4.6.33-6.81.46-.94-4.34-1.95-8.4-2.58-12.53-.11-.72 1.3-2.2 2.24-2.45 3.44-.9 6.96-1.77 10.5-2.04 11.01-.84 22.07-1.2 33.07-2.14 8.17-.7 12.69-6.05 12.92-14.22.04-1.44.75-2.86.78-4.3.14-5.52.9-11.17-.02-16.52-1.06-6.13.99-11.51 1.86-17.22.37-2.44-.13-5-.02-7.5.11-2.49.48-4.96.8-8.13-5.57-3.48-12.44-3.34-19.27-2.91-3.88.25-7.71 1.19-11.59 1.68-3.48.44-4.75 2.36-4.62 5.76.16 4.33.06 8.66.03 13-.03 4.32 1.43 6.9 6.4 6.5 3.81-.31 7.68-.27 11.49.02 2.11.16 4.16 1.16 6.24 1.78.03.61.05 1.23.08 1.84-2.64.77-5.24 1.74-7.93 2.23-1.93.35-3.99.02-5.99.08-6.7.19-11.03 4.33-11.24 11.04-.22 7-2.42 12.68-8.87 16.35-4.55 2.58-11.29-.49-11.04-5.83.62-13.47 1.93-26.92 2.7-40.39.21-3.73-.78-7.52-.77-11.28.05-10.18-.73-20.4 2.53-30.39.66-2.04-1.24-4.8-1.52-7.28-.3-2.61-.07-5.28-.07-8.21 1.56.14 2.78-.02 3.78.38 12.53 5.08 25.68 3.39 38.63 3.46 4.24.02 7.08-4.77 7.56-11.13.19-2.49.19-5.01 0-7.49-.4-5.34-2.5-7.22-7.77-7.22-9.83-.01-19.67-.16-29.49.08-4.04.1-8.12.81-12.08 1.7-6.16 1.38-12.05-1.42-13.09-6.98-.2-1.08 1.22-3.43 2.2-3.61 3.85-.73 7.82-1.08 11.75-1.14 10.33-.14 20.7-.56 30.98.17 5.08.36 9.64.35 13.99-2.25.99-.59 2.31-1.57 2.43-2.51 1.29-9.85-.84-19.14-6.49-27.15-1.94-2.75-6.24-3.83-10.05-6.01 1.46-1.35 2.33-2.77 3.55-3.19 10.06-3.52 20.35-5.77 31.07-4.14 9.33 1.42 10.63 7.9 8.5 15.09-1.84 6.21-4.27 12.29-5.55 18.61-.62 3.05-.1 7.16 1.6 9.58 1.16 1.65 5.29 1.66 8.09 1.62 10.8-.13 21.59-.71 32.39-.84 6.68-.08 10.34-4.46 13.96-8.98 1.93-2.41 3.3-5.27 5.23-7.66 3.96-4.89 8.76-5.1 13.12-.53 3.06 3.21 5.77 6.75 8.72 10.07.94 1.05 2.04 2.14 3.3 2.69 2.82 1.24 4.77 3.42 3.41 6.1-.84 1.66-3.77 2.9-5.9 3.14-6.06.7-12.21.51-18.27 1.19-9.59 1.07-19.1 2.97-28.7 3.77-10.23.85-20.52.89-30.79 1.15-6.01.15-8.3 1.81-7.91 7.88.32 4.96 1.6 9.97 3.3 14.65.59 1.63 3.68 3.29 5.66 3.32 7.08.1 14.19-.93 21.27-.72 10.7.32 17.62-5.02 22.48-13.77 3.31-5.96 5.73-6.17 9.59-.44 3.06 4.54 5.05 9.83 10.9 12.15 3.13 1.25 3.11 4.63 2.3 7.79-.72 2.81-1.3 5.69-1.61 8.58-1.39 12.89-2.61 25.8-3.99 38.69-.56 5.2-.68 10.59-2.25 15.48-1.22 3.79-3.75 7.75-6.83 10.22-7.18 5.77-7.15 13.42.94 18.1 2.23 1.29 4.7 2.32 7.19 2.98 6.21 1.65 10.24 5.98 13.14 11.17 1.05 1.87.33 5.07-.31 7.48-1.58 6.04-6.79 8.21-11.89 10.56-4.32 1.99-6.47-.91-8.72-3.38-4.44-4.86-8.76-9.82-12.94-14.9-3.54-4.3-7.94-2.56-11.76-1.44-3.15.93-3.55 4.36-2.53 7.37.4 1.19 1.4 2.43 2.47 3.1 6.01 3.75 7.14 6.71 4.86 13.27-2.24 6.46 2.49 17.46 11.33 16.02 6.02-.98 12.83.94 18.26-1.12 7.09-2.68 13.43-7.68 19.6-12.33 4.25-3.2 8.21-6.36 12.38-6.65 3.34 5.34 6.27 9.9 9.07 14.54.64 1.07 1.55 2.95 1.12 3.49-.81 1.01-2.55 1.92-3.82 1.81-5.06-.43-9.13.32-10.91 5.95-.3.94-2.02 2.04-3.07 2.03-5.61-.03-11.23-.58-16.84-.57-4.58 0-9.56-.51-13.64 1.07-6.03 2.33-11.72.11-17.52.39-5.09.24-6.41.41-6.31 5.66.17 8.77 1.17 17.56.81 26.3-.42 10.15-1.81 20.27-3.07 30.36-.2 1.63-1.83 3.15-2.96 4.59-1.62 2.06-3.49 3.93-5.09 6.01-5.71 7.44-14.15 10.24-22.44 13.28-.59.21-1.33.07-1.99-.01-.46-.06-.91-.29-1.41-.46-.38-6.1-2.26-11.55-6.16-16.26-2.62-3.16-5.79-4.49-9.99-4.36-2.21.07-4.47-1.25-6.71-1.94.01-.76.02-1.52.03-2.27 7.38-2.2 14.65-4.89 22.15-6.5 11.45-2.45 13.82-9.36 15.77-18.58.9-4.29 1.88-8.57 2.64-12.88.54-3.02 1.57-6.26 1-9.13-2.05-10.29-6.61-12.95-18.66-11.53-3.87.46-7.81.85-11.54 1.91-6.23 1.77-7.33 6.42-2.92 11.07.57.6 1.12 1.34 1.84 1.68 8.56 3.99 8.38 12.1 8.31 19.46-.02 2.56-3.67 5.36-6.11 7.55-3.4 3.05-7.22 5.65-11.36 8.83zm34.03-173.47c-3.44.9-5.39 1.56-7.4 1.91-6.54 1.14-8.05 2.81-7.78 9.44.17 4.27.61 8.52 1 12.78.24 2.68 1.52 4.09 4.48 3.83 8.82-.77 17.74-.82 26.44-2.27 7.1-1.19 10.59-2.02 10.07-12.09-.13-2.49-.02-4.99-.02-7.49-.01-5.98-1.08-7.1-7.18-7.14-1.44-.01-2.88.64-4.33.68-4.36.11-9.16 1.83-13.08-3.44 1.87-.54 3.14-1.17 4.45-1.23 3.32-.15 6.66.03 9.98-.07 8.44-.27 10.16-2.06 10.16-10.38 0-1.17 0-2.33 0-3.5 0-10.04-2.05-12.09-12.16-12.1-7.52-.01-15.06-.26-22.55.16-2.19.12-5.23 1.63-6.24 3.42-4.62 8.18.26 20.15 8.93 23.44 1.53.59 2.73 2.08 5.23 4.05zm5.86 45.2c2.86 0 4.3-.29 5.56.06 2.65.74 5.24 1.72 7.78 2.78 5.7 2.38 8.75.6 8.5-5.45-.13-3.05-1.25-6.04-1.62-9.09-.36-3.02-2.01-3.8-4.74-3.6-10.01.72-20.04 1.26-30.03 2.17-1.43.13-3.37 1.62-3.96 2.96-4.27 9.77-4.78 19.97-2.32 30.27.77 3.22 3.33 4.95 6.68 4.57 7.45-.84 14.9-1.77 22.29-3 2-.33 5.28-1.72 5.38-2.87.19-2.06-1.18-4.6-2.59-6.41-3.02-3.87-6.48-7.41-10.93-12.39zm-56.07-75.27c-2.33 0-4.65 0-6.98 0-6.66.01-9.03 2.43-9.03 9.24 0 3.99.24 8-.07 11.96-.26 3.3 1.18 5.41 4.07 5.65 7.19.58 14.46 1.13 21.64.72 4.08-.23 5.83-4.13 6.32-8.06.25-1.96-.11-4.03.3-5.94 2.07-9.48-1.12-13.56-10.77-13.56-1.82-.01-3.65-.01-5.48-.01z" fill="#000001"/><path d="m64.14 82.23c2.65-1.62 5.14-4.29 6.74-3.84 2.19.63 6.77 1.49 4.48 6.37 4.73-1.83 6.66 2.11 9.06 4.35 2.58 2.41 4.44 5.6 6.33 8.07 2.37-.44 4.42-1.33 6.34-1.09 7.8.97 14.65-.6 19.97-6.7 2.94-3.38 5.96-6.76 8.41-10.5 2.68-4.1 5.06-4.94 8.42-1.41 4.62 4.85 8.95 10.01 13.13 15.25.78.97.82 3.19.29 4.44-4.04 9.56-3.67 19.86-5.27 29.82-.78 4.84-1.78 9.7-1.96 14.58-.3 7.84-.08 15.7.07 23.55.04 2.27.66 4.53.86 6.81.7 7.86 1.65 15.71 1.88 23.59.17 5.91-.79 11.84-.96 17.77-.18 5.87-.09 11.75.04 17.62.29 12.76 1.17 25.54.89 38.28-.2 9.47-1.68 18.93-2.93 28.35-.4 2.99-1.43 6.11-2.98 8.68-3.4 5.61-7.31 10.91-11.02 16.34-.62-.21-1.24-.41-1.86-.62-.68-5.4-1.44-10.8-2.02-16.21-.47-4.41-.69-8.85-1.06-13.28-.32-3.76-2.57-6.14-6.12-6.29-4.75-.2-9.53.53-14.3.59-4.29.05-8.65.13-12.86-.54-5.24-.83-8.21 1.16-8.71 6.44-.91 9.63-1.44 19.35-3.26 28.82-.76 3.96-3.97 7.77-6.87 10.9-2.59 2.8-11.12-2.06-11.76-6.65-1.7-12.14-1.23-24.22.69-36.36 1.13-7.18.91-14.56 1.48-21.84.44-5.56 1.48-11.09 1.67-16.66.29-8.35.08-16.72.08-25.08 0-22.16.12-44.32-.09-66.47-.05-5.19-1.29-10.37-1.84-15.57-.47-4.41-.8-8.84-1.05-13.27-.39-6.76-.77-13.52-.97-20.28-.19-6.31-2.93-11.15-7.57-15.32-3.94-3.53-3.21-6.57 1.64-8.91 2.48-1.2 4.81-2.83 7.4-3.63 1.85-.57 4.07-.1 5.59-.1zm47.24 144.59c-1.9-.24-3.83-.81-5.7-.64-4.35.41-8.67 1.23-13 1.8-3.24.43-6.59.39-9.71 1.24-1.55.42-3.85 2.37-3.84 3.61.08 10.37-1.2 20.7-.22 31.11.84 8.94 4.53 13 11.76 12.07 7.15-.91 14.36-1.67 21.56-1.91 4.99-.16 8.01-2.35 8.6-6.97 1.61-12.67 3.66-25.38 3.96-38.11.33-13.98-1.12-28.01-1.78-42.01-.2-4.2-3.23-5.88-6.54-5.87-9.58.03-19.18.36-28.73 1.11-4.69.37-8.11 4.2-8.47 8.34-.77 8.89-.99 18 3.52 26.4 6.47 0 12.79-.08 19.11.02 5.5.11 10.17 5 9.48 9.81zm-20.64-54.56c7.65-1.16 14.54-2.64 21.51-3.14 7.53-.53 7.7-.1 9.33-7.36 1.03-4.59 2.06-9.27 2.22-13.95.34-9.49-.24-19.02.23-28.5.24-4.84-1.98-10.52-7.02-11.17-7.62-.98-15.54-1.79-23.09-.78-9.5 1.27-12.95 6.67-12.91 16.55.02 5.19-.16 10.74-.8 15.47-1.2 8.84.57 17.38-.12 26.02-.23 2.83.7 5.53 4.59 5.7 2.24.09 4.45.83 6.06 1.16z" fill="#000001"/><g fill="#fafbfa"><path d="m377.9 391.2c-.2.3-.4.5-.6.8-.7-.6-1.4-1-2.2-1.5.2-.3.4-.5.5-.8.6.4 1.4.8 2.3 1.5zm-1.8 6.1c-.2-.2-.5-.4-.9-.6.4-.6.8-1.2 1.2-1.9s.7-1.3.9-1.9c.3.3.5.5.8.7-.7 1.3-1.4 2.6-2 3.7zm2.2-9c-.3.3-.5.5-.6.8-.6-.6-1.3-1.1-2-1.5.3-.3.5-.5.6-.7.6.5 1.3.9 2 1.4zm.3.2v-.9h2 4.5c-.3 1.3-.6 2.5-1 3.6s-.9 2.1-1.4 3c.4.5 1 1 1.6 1.4s1.2.8 1.9 1.1c-.3.2-.5.4-.8.8-.4-.3-1-.7-1.6-1.2s-1.2-1.1-1.6-1.6c-.5.6-1.1 1.1-1.7 1.6s-1.4.9-2.1 1.4c-.1-.3-.3-.5-.7-.8.6-.2 1.2-.5 1.9-1s1.4-1.1 2-1.8c-.5-.8-.9-1.6-1.2-2.5s-.6-2-.8-3.2c-.4.1-.7.1-1 .1zm2.5 2.7c.2 1 .7 1.7 1 2.2.3-.5.6-1.1 1-2s.6-1.9.9-3h-3.2-.4c.1.9.3 1.8.7 2.8z"/><path d="m396.5 388.5v1.5 3.6h1.5v.9c-.4 0-1 0-1.7 0h-7.9c-.5 0-.9 0-1.2 0v-.9h1.3v-3.5c0-.7 0-1.2 0-1.6h2.4c0-.8 0-1.4 0-1.7h1c0 .3-.1.8-.1 1.7h1.5c0-.8 0-1.4 0-1.7h1c0 .3-.1.9-.1 1.7zm-8.2 9.2c-.2-.3-.5-.5-.8-.8.8-.3 1.4-.6 1.9-.9s1-.7 1.4-1.1c.3.3.6.5.9.8-1.6 1-2.8 1.6-3.4 2zm2.6-6.8v-1.6h-1.5v1.6zm0 2.7v-1.9h-1.5v1.9zm2.4-2.7v-1.6h-1.5v1.6zm0 2.7v-1.9h-1.5v1.9zm.2 2 .7-.8c.4.2.9.5 1.6.8s1.3.7 1.8 1c-.3.3-.5.5-.8.8-.4-.3-1.5-1-3.3-1.8zm2-4.7v-1.6h-1.4v1.6zm0 2.7v-1.9h-1.4v1.9z"/></g></svg>