<svg enable-background="new 0 0 400 400" viewBox="0 0 400 400" xmlns="http://www.w3.org/2000/svg"><g fill="#000001"><path d="m209.54 69.42c.93 5.84 1.51 10.68 2.57 15.41.34 1.53 1.76 3.65 3.07 3.98 5.52 1.38 11.15 2.78 16.8 3.08 13.41.7 26.87.63 40.29 1.17 9.9.4 19.78 1.18 29.66 1.97 5.23.42 9.71-.57 13.33-4.69 1.38-1.57 3.16-2.9 4.98-3.96 3.73-2.19 7.7-2.33 10.91.73 7.11 6.77 15.1 12.78 19.05 22.35 5.15 12.47 3.09 13.28-6.02 17.07-11.1 4.61-22.7 9.01-35.09 9.44-6.09.21-7.25-1.48-5.85-7.46.97-4.12 1.96-8.23 2.81-12.38 2.2-10.75.27-13.59-10.52-14.05-14.59-.61-29.19-.82-43.8-1.04-10.03-.15-20.07-.09-30.1-.01-8.19.07-11.3 6.32-9.25 14.27 1.78 6.9 1.22 14.42 1.52 21.67.25 6.18.36 12.37.33 18.55-.04 7.03.55 14.24-.84 21.02-.66 3.22-5.28 5.63-8.1 8.41-1.96 1.94-3.91 3.89-5.86 5.83 2.45 1.09 4.85 2.99 7.35 3.11 6.64.32 13.32-.17 19.98-.26 6.76-.09 13.52-.1 20.27-.11 3.61-.01 7.23.26 10.82.01 3.07-.22 6.12-1.51 9.16-1.43 8.27.24 15.07-2.23 20.32-8.87 4.89-6.19 7.7-5.39 13.62-.79 5.55 4.31 11.27 8.41 16.74 12.83 4.04 3.26 4.35 7.58 2.18 12.04-3.5 7.2-4.86 14.65-5.11 22.75-.33 10.6-2.66 21.11-3.55 31.71-.65 7.74-2.08 15.11-4.91 22.39-.8 2.06.83 5.89 2.53 7.91 3.02 3.59 6.94 6.42 10.78 9.84-.61 10.18-11.83 14.34-19.42 11.36-11.03-4.33-21.41-1.57-32.11-.39-2.79.31-5.65.07-8.46-.09-2.45-.14-4.89-.76-7.33-.73-6.83.09-8.39 2.29-6.84 8.92.41 1.74.48 3.59.53 5.39.21 8.23 6.63 12.6 14.68 11.53 8.36-1.11 16.95-.31 25.37-1.08 7.54-.69 15.59.25 20.9-7.95 5.1-7.87 9.95-8.24 18.01-3.91 6.55 3.52 13.3 6.65 19.92 10.04 3.57 1.83 4.54 5.11 3.75 8.7-.92 4.18-3.53 7.17-8.09 7.26-8.66.17-17.61 1.44-25.94-.23-18.23-3.65-36.45-1.19-54.63-1.44-11.55-.16-23.12 2.4-34.7 3.53-3.96.39-8.01-.15-11.97.26-10.26 1.07-20.49 2.41-30.73 3.68-8.62 1.06-17.23 2.11-25.84 3.28-4.85.66-9.8 1.13-14.47 2.48-4.32 1.25-7.65-.17-9.37-3.4-2.54-4.77-4.03-10.12-5.72-15.3-.22-.66.83-2.31 1.64-2.62 1.78-.69 3.78-1.13 5.69-1.13 17.2-.08 34.4.16 51.6-.14 8.37-.15 16.73-1.12 25.07-1.95 4.65-.46 8.57-6.14 7.79-10.79-.08-.47-.42-.89-.54-1.36-.85-3.45-.61-8.28-2.8-9.97-2.35-1.82-6.98-.77-10.61-.82-6.03-.07-12.08-.27-18.09.06-5.15.29-10.25 1.46-15.41 1.85-3.66.27-11.29-8.4-10.24-11.86.5-1.66 2.99-3.92 4.53-3.89 15.53.35 31.07.98 46.58 1.86 5.73.33 8.61-1.77 8.64-7.5.01-2.5.01-5 0-7.5-.06-12.33-5.91-13.91-16.8-12.68-6.07.68-9.31 4.32-10.22 10.27-1.2 7.76-8.57 8.34-13.82 10.89-1.2.58-5.69-3.05-6.87-5.58-1.87-4.02-2.7-8.7-3.14-13.18-.99-10.17-1.74-20.37-2.05-30.58-.2-6.58.57-13.19.9-19.79.63-12.93-.95-25.57-5.23-37.8-1.47-4.2 1.6-4.2 3.64-3.64 3.24.9 6.19 2.79 9.28 4.23 2.32 1.08 4.58 2.35 7.01 3.08 5.62 1.68 7.53-.25 6.02-5.83-.3-1.1-.73-2.16-1.11-3.23-2.46-6.96-3.7-13.74-3-21.48.9-10.06-1.01-20.37-1.48-30.58-.27-5.84 0-11.71-.18-17.56-.08-2.59-.39-5.26-1.14-7.73-.89-2.96-2.59-5.4-6.39-4.85-6.61.95-13.22 1.87-19.85 2.71-1.97.25-3.97.21-5.96.29-8.79.36-17.6.56-26.38 1.11-6.38.4-12.73 1.25-19.1 1.89-1.31.13-2.67.08-3.94.38-12.22 2.88-12.94 5.5-10.04 18.31 1.22 5.41 6.34 4.6 10.51 4.43 6.6-.27 13.19-.81 19.79-1.06 1.74-.06 3.5.72 5.25.78 1.23.04 3.31-.19 3.57-.85 1.29-3.33 3.93-2.74 6.54-3.04 7.11-.82 14.16-2.12 21.28-2.84 2.52-.26 5.37.11 7.68 1.11 1.71.74 3.52 2.81 3.9 4.58.31 1.46-.98 4.01-2.34 4.9-2.38 1.57-5.31 2.97-8.1 3.14-7.16.44-14.36.16-21.55.22-.95.01-2.09.09-2.82.6-5.39 3.79-11.51 3.31-17.62 3.39-8.77.13-17.54.48-26.29 1.09-1.38.1-3.53 1.9-3.79 3.21-1.51 7.51-5.36 13.78-10.51 19.03-3 3.05-7.36 5.19-12.06 2.77-4.46-2.29-8.89-4.68-13.17-7.29-2.92-1.78-2.84-4.32-1.36-7.28 4.52-9.04 9.27-18 13.09-27.33 3.69-9.02 6.96-18.27 6.94-28.34-.01-3.52 1.41-7.02 1.73-10.57.33-3.66 1.69-7.31 5.3-6.95 2.48.25 5.35 3.38 6.79 5.93 4.86 8.67 9.75 11.67 19.07 10.66 3.26-.35 6.53-.76 9.8-.98 5.76-.4 11.53-.64 17.3-1.02 4.09-.27 8.17-.86 12.26-.96 6.56-.16 13.16.37 19.69-.15 6.14-.48 12.22-1.81 18.28-3.01 3.09-.61 4.18-2.92 3.69-5.99-.47-2.9-.69-5.87-1.42-8.71-1.04-4.07-3-6.79-8.14-6.3-5.61.54-11.32.11-16.99.13-5.26.02-10.17.88-15.36 2.48-6.56 2.02-14.05 1.54-21.1 1.26-3.79-.15-10.2-11.61-8.77-15.29.61-1.57 3.31-3.28 5.07-3.29 7.93-.05 15.86.64 23.8.76 3.59.06 7.2-.88 10.79-.84 4.94.05 9.88.96 14.8.85 23.2-.52 46.41-1.05 69.6-2.07 7.04-.31 11.56-5.88 15.96-10.75 3.48-3.85 8.24-5.75 12.79-3.46 6.4 3.22 12.55 6.94 18.71 10.61 3.97 2.37 6.14 5.82 4.81 10.64-1.16 4.21-6.4 9.1-10.58 8.99-16.04-.43-32.06-1.42-48.09-1.74-6.94-.14-13.89.83-20.34 1.26zm52.79 233.44c.07-.27.13-.54.2-.81 6.25-.36 12.52-.59 18.76-1.15 2.2-.2 4.64-.77 6.4-1.99 1.39-.97 3.01-3.53 2.62-4.8-1.46-4.76-3.35-9.49-5.8-13.82-1.31-2.3-3.83-4.45-6.3-5.42-3.24-1.27-6.99-1.89-10.49-1.76-5.87.21-11.72 1.13-17.53 2.01-1.08.16-2.66 1.43-2.86 2.41-1.27 6.36-2.32 12.77-3.14 19.21-.09.73 1.51 2.19 2.55 2.47 5.16 1.39 10.39 2.47 15.59 3.65zm3.22-66.86c-.01-.14-.02-.27-.04-.41-5.24.47-10.48.85-15.7 1.45-3.56.41-6.11 1.89-5.85 6.21.23 3.81-.02 7.65.06 11.47.15 6.65 3.87 10.22 10.5 10.28 4.31.04 8.7-.32 12.92.33 5.89.91 10.14-.63 11.45-6.4 1.36-5.98 1.71-12.25 1.96-18.41.12-3-2.29-4.5-5.33-4.52-3.32-.01-6.65 0-9.97 0zm-7.71-8.28c5.79-.94 11.66-1.57 17.35-2.92 4.21-1 6.58-4.45 6.69-8.71.08-3.04-1.15-6.08-1.33-9.15-.26-4.48-2.71-5.16-6.6-5-6.98.28-13.98-.05-20.97.12-7.52.18-9.74 2.81-10.02 10.1-.52 13.35 1.57 15.52 14.88 15.56zm-36.84 25.12c0-1.82.11-3.66-.02-5.47-.35-4.93-3.65-8.95-8.41-9.22-4.37-.25-8.8.77-13.2.67-5.4-.12-6.19 3.7-6.21 7.34-.03 4.68.59 9.45 1.67 14 .48 2.02 2.46 4.65 4.29 5.18 3.99 1.17 8.31 1.46 12.51 1.6 6.52.21 9.16-2.54 9.37-9.12.04-1.67 0-3.33 0-4.98zm-14.05-47.93c-1.81.11-3.63.17-5.44.35-1.94.19-3.88.46-5.81.77-3.73.61-6.42 4.18-5.61 7.81.74 3.31 1.53 6.68 2.93 9.73.81 1.77 2.68 3.85 4.42 4.23 4.13.9 8.46 1.12 12.71 1.16 8.19.06 10.76-2.62 9.78-10.59-1.09-8.81-2.84-14.09-12.98-13.46z"/><path d="m113.58 177.97c3.5 1.86 6.93 3.85 10.51 5.55 6.42 3.06 8.6 4.44 6.62 13.49-.93 4.24.8 6.28 3.27 8.35 4.78 4.01 4.78 5.55.16 9.12-1.72 1.33-2.74 3.57-4.08 5.39 2.4 1.37 4.7 3.63 7.23 3.95 6.69.84 13.49.88 20.25 1.16 3.05.12 5.38 1.55 5.29 4.55-.1 3.15-1.53 6.12-5.44 6.43-4.92.39-9.85.9-14.78.99-10.18.19-16.39 7.03-15.63 17.24.51 6.91.76 13.85 1 20.78.18 5.32 2.49 7.16 7.62 5.74 3.28-.91 6.51-2.61 9.79-2.67 2.63-.05 6.67 1.12 7.63 3 1.57 3.07 1.14 7.16 1.56 10.82-2.12.06-4.61.86-6.29.04-3.32-1.63-5.48-1.1-8.77.66-11.76 6.28-24.01 11.62-35.89 17.68-8.42 4.3-16.59 9.1-24.8 13.82-11.23 6.47-13.99 5.71-20.23-5.93-.47-.87-.96-1.72-1.39-2.61-3.11-6.39-.99-10.5 6.22-10.4 12.03.16 21.74-6.44 32.36-10.29 1.87-.68 3.91-3.8 4.04-5.91.71-11.24.95-22.51 1.15-33.78.15-8.82-1.27-10.41-9.74-10.08-9.03.35-18.04 1.46-27.07 1.86-6.3.28-14.4-9.51-12.94-15.71.39-1.66 2.84-3.97 4.42-4.03 9.67-.37 19.38.04 29.06-.29 4.35-.15 8.68-1.29 12.97-2.24 5.13-1.13 6.09-4.87 5.27-9.41-1.9-10.58-4.56-21.08-5.49-31.74-.42-4.86-2.19-8.39-4.23-12.35-.82-1.59-.32-4.42.59-6.14.61-1.15 3.16-2.16 4.58-1.88 14.48 2.87 28.32-.53 42.41-3.2 8.5-1.62 17.51-.97 26.27-.67 3.43.12 5.24 3.26 4.87 6.85-.32 3.07-1.65 4.87-5.38 5-8.71.31-17.39 1.35-26.09 1.81-2.91.15-5.93-.26-8.77-.94-6.73-1.61-11.97 2.04-17.69 4.06-.15.65-.29 1.29-.44 1.93z"/><path d="m281.41 169.35c-10.53-.45-21.06-1.12-31.59-1.27-6.42-.1-12.86.6-19.29.91-1.16.06-2.41.23-3.48-.11-2.42-.75-5.85-1.55-4.76-4.78.7-2.09 3.41-3.88 5.63-4.94 1.63-.78 3.95.04 5.92-.19 10.18-1.16 20.34-2.5 30.52-3.61 1.86-.2 3.96-.02 5.68.66 4.64 1.85 8.62.8 12.42-2 1.32-.97 2.84-1.73 3.98-2.87 6.72-6.72 13.8-4.44 20.56-.47 2.18 1.28 3.92 4.05 4.86 6.52 1.07 2.81-.6 5.18-3.57 6.06-8.85 2.63-17.74 5.16-26.61 7.73-.09-.53-.18-1.08-.27-1.64z"/><path d="m255.59 134c-6.65 0-13.3.08-19.95-.06-1.73-.04-3.77-.33-5.08-1.3-1.23-.91-2.21-2.85-2.27-4.38-.03-.7 2.39-2.11 3.73-2.15 6.84-.22 13.68-.05 20.52-.13 8.07-.09 15.17-2.73 21.75-7.52 2.19-1.6 7.02-2.88 8.27-1.74 2.13 1.97 3.23 5.98 3.17 9.11-.05 2.4-2.16 5.14-4.08 6.99-1.16 1.12-3.68 1.1-5.6 1.13-6.82.12-13.64.05-20.46.05z"/></g><path d="m377.9 391.2c-.2.3-.4.5-.6.8-.7-.6-1.4-1-2.2-1.5.2-.3.4-.5.5-.8.6.4 1.4.8 2.3 1.5zm-1.8 6.1c-.2-.2-.5-.4-.9-.6.4-.6.8-1.2 1.2-1.9s.7-1.3.9-1.9c.3.3.5.5.8.7-.7 1.3-1.4 2.6-2 3.7zm2.2-9c-.3.3-.5.5-.6.8-.6-.6-1.3-1.1-2-1.5.3-.3.5-.5.6-.7.6.5 1.3.9 2 1.4zm.3.2v-.9h2 4.5c-.3 1.3-.6 2.5-1 3.6s-.9 2.1-1.4 3c.4.5 1 1 1.6 1.4s1.2.8 1.9 1.1c-.3.2-.5.4-.8.8-.4-.3-1-.7-1.6-1.2s-1.2-1.1-1.6-1.6c-.5.6-1.1 1.1-1.7 1.6s-1.4.9-2.1 1.4c-.1-.3-.3-.5-.7-.8.6-.2 1.2-.5 1.9-1s1.4-1.1 2-1.8c-.5-.8-.9-1.6-1.2-2.5s-.6-2-.8-3.2c-.4.1-.7.1-1 .1zm2.5 2.7c.2 1 .7 1.7 1 2.2.3-.5.6-1.1 1-2s.6-1.9.9-3h-3.2-.4c.1.9.3 1.8.7 2.8z" fill="#fafbfa"/><path d="m396.5 388.5v1.5 3.6h1.5v.9c-.4 0-1 0-1.7 0h-7.9c-.5 0-.9 0-1.2 0v-.9h1.3v-3.5c0-.7 0-1.2 0-1.6h2.4c0-.8 0-1.4 0-1.7h1c0 .3-.1.8-.1 1.7h1.5c0-.8 0-1.4 0-1.7h1c0 .3-.1.9-.1 1.7zm-8.2 9.2c-.2-.3-.5-.5-.8-.8.8-.3 1.4-.6 1.9-.9s1-.7 1.4-1.1c.3.3.6.5.9.8-1.6 1-2.8 1.6-3.4 2zm2.6-6.8v-1.6h-1.5v1.6zm0 2.7v-1.9h-1.5v1.9zm2.4-2.7v-1.6h-1.5v1.6zm0 2.7v-1.9h-1.5v1.9zm.2 2 .7-.8c.4.2.9.5 1.6.8s1.3.7 1.8 1c-.3.3-.5.5-.8.8-.4-.3-1.5-1-3.3-1.8zm2-4.7v-1.6h-1.4v1.6zm0 2.7v-1.9h-1.4v1.9z" fill="#fafbfa"/></svg>