<svg enable-background="new 0 0 400 400" viewBox="0 0 400 400" xmlns="http://www.w3.org/2000/svg"><path d="m134.03 216.79c.98 2.29 2.18 4.52 2.89 6.9.64 2.17.67 4.51 1.12 6.75.74 3.73 2.21 7.06 6.55 7.46 2.99.28 6.77-4.22 7.42-8.16 2.1-12.69.87-25.28-.9-37.88-.75-5.33-1.08-10.73-1.65-16.68 2.06-2.52 4.48-2.45 7.39.09 3.45 3.02 6.88 6.24 10.83 8.47 4.26 2.41 9.1 3.79 14.04 5.77-.58.85-1.31 3.13-2.78 3.82-4.64 2.17-5.12 5.78-5 10.22.23 8.66-.12 17.34.21 25.99.07 1.87 1.54 4.53 3.13 5.35 6.91 3.54 23.85 2.98 30.17-3.69.6-.63 1.45-1.4 1.48-2.14.43-10.26.94-20.53.97-30.8.01-4.01-3.02-5.46-6.87-5.28-3.74.17-7.46.14-8.84-5.75 8.53-.41 16.86-1.05 25.19-1.11 4.27-.03 6.92 2.63 5.52 7.07-1.42 4.52 1.03 6.7 4.08 8.78 4.05 2.75 8.31 5.21 12.18 8.17 1.36 1.04 1.87 3.2 2.77 4.85-1.5.67-2.95 1.73-4.52 1.93-6.12.8-9.51 4.22-9.41 9.87.1 5.41 3.94 9.07 10.02 9.17 8.66.13 17.39.67 25.98-.13 10.68-.99 12.74-5.24 10.58-14.62-.52-2.27-5.43-3.93-8.61-5.08-2.7-.97-5.81-.93-8.75-1.1-2.97-.17-5.95-.04-8.93-.04-.25-.45-.49-.9-.74-1.34 1.14-.88 2.2-2.37 3.43-2.54 4.56-.61 9.17-.9 13.76-1.09 8.98-.38 15.96-9.05 13.19-16.84-.48-1.35-2.55-3.04-3.87-3.03-7.6.04-15.2.51-22.8.92-3.94.21-7.87.86-11.81.86-3.73 0-7.46-.6-10.86-.91 2.36-25.17 4.45-49.84 1.58-75.79-14.98.94-29.31 1.56-43.57 2.88-6 .56-8.57 4.44-8.59 10.62-.05 10.83-.47 21.69.15 32.49.41 7.2-1.47 12.59-7.83 16.38-5.33-3.82-7.21-9.57-7.29-16.01-.13-9.83.05-19.67-.07-29.5-.05-4.23-.53-8.45-.84-13.08-7.35 0-14.18-.34-20.92.26-1.54.14-4 3.55-3.98 5.42.14 10.89.72 21.79 1.52 32.65.51 6.98.69 13.89-2.78 20.14-1.08 1.95-3.78 3.01-5.74 4.48-1.74-2.35-4.96-4.7-4.96-7.05-.02-8.2 1.38-16.39 1.65-24.6.34-9.97.08-19.96.08-29.88-8.42-.94-8.58-.47-9.07 7.16-1.1 17.09-2.6 34.15-3.9 51.22-.39 5.1-.51 10.22-1.05 15.3-.86 8.14-1.76 16.28-3.02 24.36-1.79 11.43-3.12 23.03-6.15 34.15-3.84 14.09-8.61 28.01-14.15 41.52-2.92 7.11-8.87 12.9-12.52 19.78-9.12 17.19-21.46 31.79-35.08 45.41-3.32 3.32-7.38 5.94-11.28 8.62-.95.65-2.62.24-3.96.31-.03-1.19-.53-2.65-.02-3.53 1.77-3.06 3.62-6.14 5.91-8.82 5.31-6.19 11.22-11.88 16.26-18.27 5.31-6.72 10.68-13.61 14.58-21.17 4.05-7.86 6.38-16.6 9.42-24.98.22-.6.05-1.35.26-1.96 3.46-9.94 7.51-19.72 10.27-29.85 2.55-9.36 3.99-19.05 5.44-28.67 1.61-10.69 3.04-21.43 3.87-32.2.49-6.39-.33-12.88-.56-19.33-.08-2.32-.19-4.64-.2-6.96-.03-5.37-.01-10.74-.01-16.11 0-3.67.03-7.33-.04-11-.32-17.77-.26-35.56-1.13-53.3-.59-11.92-2.23-23.81-4.02-35.62-.54-3.57-3.17-6.83-5.02-10.6.49-.72 1.71-2.48 3.67-5.34 1.57.86 4.23 1.53 5.64 3.23 10.76 12.93 25.33 21.11 38.46 31.05 1.71 1.3 4.69 1.24 7.08 1.26 8.53.07 17.06 0 25.58-.2 9.93-.23 19.94-.03 29.77-1.23 6.59-.81 6.91-7.43 7.97-12.71.32-1.59.32-3.32.98-4.75 3.57-7.7 1.28-15.49.49-23.24-.63-6.14-.12-12.51-3.78-18.1-.39-.59.72-2.75 1.67-3.54 3.83-3.17 11.93-1.18 14.83 2.9 1.45 2.04 3.86 3.71 6.19 4.75 6.09 2.71 12.4 4.91 18.57 7.47 5.38 2.23 6.18 4.93 3.37 9.97-.62 1.11-1.08 2.41-1.25 3.67-1.06 7.45-1.96 14.92-3.02 22.37-.92 6.49-.07 7.4 6.58 7.56 6.93.17 13.87.92 20.79.85 4.03-.04 8.04-1.4 12.09-1.82 2.99-.31 6.04-.15 9.06-.05 7.96.28 15.91.75 23.87.89 1.6.03 3.54-.72 4.78-1.76 2.8-2.35 5.25-5.1 7.85-7.69 7.6-7.59 15.26-7.42 23.11.05 3.38 3.22 7.54 5.61 11.09 8.67 1.03.88 2.03 3.21 1.57 4.12-.95 1.84-2.72 4.19-4.48 4.5-6.44 1.14-13 1.89-19.54 2.12-9.32.33-18.67-.15-27.99.18-5.03.18-10.14.9-15.02 2.14-7.3 1.85-12.09 11.51-9.44 18.5 1.85 4.88 6.3 5.92 10.83 6.21 4.15.27 8.33.18 12.5.03 5.24-.19 8.61-3.35 11.2-7.56.83-1.36 1.38-2.94 2.41-4.11 7.17-8.11 8.57-6.62 16.05-.4 3.66 3.04 8.46 5.13 8.8 11.15.28 5.09-.75 7.19-5.98 7.89-4.23.57-8.52.61-12.76 1.09-3.35.38-6.66 1.06-8.42 1.35-.57 5.34-.45 9.65-1.58 13.61-1.81 6.39-3.63 12.67-1.27 19.19.64 1.78 2.06 3.75 3.68 4.62 8.06 4.32 17.24 1.01 21-7.07.82-1.77 2.54-4.47 3.72-4.41 1.87.1 4.18 1.79 5.35 3.48 3.05 4.4 5.56 9.18 8.34 13.78 1.68 2.78 1.06 4.87-2 5.75-4.82 1.39-9.66 3-14.6 3.54-7.37.82-14.88.45-22.25 1.28-3.57.4-6.96 2.35-10.85 3.76.84 1.39 1.09 2.38 1.66 2.64 6.9 3.1 5.83 8.06 3.85 13.82-4.26 12.33-5.93 25.12-6.05 38.16-.03 3.61 1.4 4.36 4.72 4.58 6 .4 10.77-.83 14.82-5.81 2.35-2.88 6.08-4.78 9.45-6.65 3.09-1.71 5.52-.63 7.2 2.7 5.63 11.14 13.94 19.7 24.92 25.78 1.98 1.1 3.24 3.5 4.83 5.31-1.94 1.54-3.83 3.15-5.85 4.58-.76.54-1.79.83-2.74.94-9.26 1.05-18.54 1.97-27.79 3.09-3.71.45-7.36 1.75-11.06 1.86-6.52.19-9.02-4.47-5.74-10.08.58-.98 1.26-1.9 1.88-2.86 3.14-4.92 1.78-7.73-3.97-7.93-4.18-.15-8.43-.5-12.52.13-1.56.24-3.62 2.87-3.85 4.62-.26 1.98.65 5.21 2.14 6.13 5.23 3.22 7.21 7.23 6.72 13.42-1.31 16.78-3.53 33.66-2.68 50.37.73 14.32-2.75 28.08-2.48 42.18.02 1.08-.39 2.29-.94 3.24-5.11 8.83-11.67 16.35-21.21 20.39-5.3 2.25-8.17-2.33-10.41-5.93-3.44-5.52-6.23-11.35-11.63-15.46-2.99-2.27-2.61-4.47 1.52-5.23 1.58-.29 3.11-.91 4.67-1.34 9.31-2.58 12.6-6.34 13.01-16.08.83-19.69 1.39-39.4 2.05-59.1.03-.83.04-1.67 0-2.5-.43-8.3-2.05-9.86-10.21-9.86-7.83 0-15.68-.25-23.5.07-7.22.3-14.4 1.37-21.61 1.81-3.27.2-6.58-.45-9.88-.44-3.4.01-6.8.39-10.21.55-8.1.36-16.2.58-24.29 1.05-5.3.3-7.41 2.56-7.25 7.7.11 3.43.44 6.88 1.07 10.24.55 2.91 2.39 4.2 5.69 4.11 8.69-.26 17.42.35 26.09-.2 9.63-.61 19.19-2.14 28.79-3.19 1.87-.2 3.79.03 5.68-.01 3.94-.07 7.89-.26 11.83-.26 2.4 0 4.86-.02 7.17.49 1.32.29 2.4 1.65 3.59 2.53-1.02 1.19-1.83 3.01-3.11 3.45-3.81 1.32-7.76 2.52-11.75 2.99-6.06.71-12.2 1.2-18.29 1.01-9.88-.3-19.74-1.67-29.61-1.73-6.66-.04-13.44.92-19.97 2.31-4.97 1.06-8.24 8.75-7.22 14.81.69 4.1 6.41 8.55 11.72 8.67 8.02.18 16.05-.13 24.07.12 3.87.12 7.71 1.06 11.56 1.64.32.05.64.25.94.22 8.79-.91 17.55-2.22 26.36-2.62 5.49-.25 11.12.5 16.52 1.62 1.57.33 3.16 3.39 3.54 5.43.18.96-2.45 2.47-3.85 3.68-.36.31-.86.66-1.28.65-12.24-.39-24.49-.57-36.69-1.43-3.19-.22-6.1-1.9-9.29.35-1.04.73-2.91.36-4.4.36-9.5.02-19-.04-28.5.03-7.09.05-8.48 1.75-8.78 8.69-.44 9.87-1.21 19.72-1.96 29.57-.48 6.25-4.61 10.46-9.04 14.07-4.03 3.28-10.03 1.38-11.48-3.68-1.16-4.05-1.35-8.45-1.42-12.71-.36-21.11-.68-42.22-.72-63.33-.03-14.6.67-29.21.54-43.8-.04-4.43-1.48-8.94-2.87-13.22-.48-1.47-2.79-3.33-4.17-3.25-1.47.08-3.49 1.98-4.11 3.55-3.96 10.05-12.04 17.04-18.52 25.17-3.99 5-8.21 4.45-12.43.26-2.56-2.54-1.99-4.98-.66-7.61 3.29-6.53 7.21-12.8 9.79-19.6 2.98-7.85 4.7-16.18 7.17-24.23.97-3.15 2.49-6.12 3.76-9.18.68.03 1.42.06 2.16.08zm105.92-32.4c7.76.42 14.42 1.4 20.98.98 7.46-.47 14.86-2.07 22.23-3.46 2.12-.4 4.2-1.55 6.05-2.74 1.65-1.07 2.71-3.18 4.43-3.95 5.84-2.61 7.47-7.4 7.32-13.13-.12-4.6-1.01-9.21-.82-13.79.33-8.19 1.47-16.36 1.77-24.55.19-5.36-6.33-9.32-9.81-5.93-2.83 2.75-5.47 6.96-5.8 10.74-.65 7.35.77 14.85.6 22.27-.18 7.72-1.82 15.24-6.8 21.54-2.88 3.64-5.01 3.58-7.04-.44-2.55-5.07-4.54-10.22-3.23-16.27.74-3.41.26-7.11.13-10.68-.28-7.61-.86-15.21-.95-22.83-.03-2.65-.31-4.9-3.18-5.02-5.98-.26-12.01-.35-17.96.19-1.43.13-3.96 4.15-3.72 4.44 5.28 6.13 3.3 12.75 1.92 19.45-.43 2.08-.06 4.32-.07 6.48-.05 11.98.65 24.06-6.05 36.7zm-75.74 65.43c5.78 7.79 10.57 14.87 20.44 14.26 6.83-.42 13.72.04 20.57-.11 10.26-.22 20.51-.75 30.77-.91 3.59-.06 7.2.92 10.79.86 7.1-.1 14.21-1.08 21.27-.77 5.54.24 9.38-2 12.17-6.09 1.72-2.52 2.34-5.8 3.46-8.73-3.11-1.11-6.21-3.17-9.32-3.17-15.78-.01-31.56.62-47.34.8-13.82.16-27.65-.38-41.45.21-7.16.3-14.24 2.37-21.36 3.65zm73.09-140.82c4.16 0 8.34.24 12.48-.05 9.46-.67 17.67-3.25 16.27-16.89-.47-4.59-2.54-7.6-7.09-7.97-4.99-.4-10.03-.1-15.05-.1-18.32 0-36.63 0-54.95 0-8.27 0-8.38-.02-10.03 8.34-.45 2.26-.13 4.72.09 7.06.86 9.15 7.2 12.79 14.95 7.82 3.73-2.4 6.39-6.73 9.01-10.55 3.18-4.63 5.5-4.92 8.75-.28 1.49 2.13 2.86 4.35 4.25 6.56 2.63 4.18 5.92 6.82 11.33 6.13 3.29-.41 6.66-.07 9.99-.07zm-103.25 3c.02.17.04.33.06.5 7.32-.83 14.62-1.85 21.96-2.45 6.77-.55 8.39-1.63 9.8-7.87 1.45-6.39-1.14-13.29-5.76-13.97-4.09-.6-8.35-.49-12.5-.18-4.2.32-8.34 1.56-12.54 1.9-8.83.71-12.79 4.11-14.05 12.61-.97 6.55 1.49 9.44 8.04 9.45 1.67.01 3.33.01 4.99.01zm-28.29 24.17c-5.25 1.01-5.88 2.73-2.97 7.75 4.88-1.16 2.94-4.75 2.97-7.75z" fill="#000001"/><path d="m207.75 145.12c.42 6.57 1.14 13.14 1.13 19.71-.01 3.66-.92 7.41-2.01 10.94-.95 3.08-3.6 5.29-6.79 3.99-1.53-.62-2.86-3.61-2.94-5.57-.29-7.25-.56-14.46.61-21.79.84-5.23-.69-10.83-1.12-16.27-.11-1.4-.53-3.02 0-4.16 1.01-2.13 2.61-3.98 3.97-5.95 2.15 1.96 5.39 3.55 6.19 5.96 1.36 4.09 1.17 8.7 1.64 13.09-.23.01-.46.03-.68.05z" fill="#000001"/><g fill="#fafbfa"><path d="m377.9 391.2c-.2.3-.4.5-.6.8-.7-.6-1.4-1-2.2-1.5.2-.3.4-.5.5-.8.6.4 1.4.8 2.3 1.5zm-1.8 6.1c-.2-.2-.5-.4-.9-.6.4-.6.8-1.2 1.2-1.9s.7-1.3.9-1.9c.3.3.5.5.8.7-.7 1.3-1.4 2.6-2 3.7zm2.2-9c-.3.3-.5.5-.6.8-.6-.6-1.3-1.1-2-1.5.3-.3.5-.5.6-.7.6.5 1.3.9 2 1.4zm.3.2v-.9h2 4.5c-.3 1.3-.6 2.5-1 3.6s-.9 2.1-1.4 3c.4.5 1 1 1.6 1.4s1.2.8 1.9 1.1c-.3.2-.5.4-.8.8-.4-.3-1-.7-1.6-1.2s-1.2-1.1-1.6-1.6c-.5.6-1.1 1.1-1.7 1.6s-1.4.9-2.1 1.4c-.1-.3-.3-.5-.7-.8.6-.2 1.2-.5 1.9-1s1.4-1.1 2-1.8c-.5-.8-.9-1.6-1.2-2.5s-.6-2-.8-3.2c-.4.1-.7.1-1 .1zm2.5 2.7c.2 1 .7 1.7 1 2.2.3-.5.6-1.1 1-2s.6-1.9.9-3h-3.2-.4c.1.9.3 1.8.7 2.8z"/><path d="m396.5 388.5v1.5 3.6h1.5v.9c-.4 0-1 0-1.7 0h-7.9c-.5 0-.9 0-1.2 0v-.9h1.3v-3.5c0-.7 0-1.2 0-1.6h2.4c0-.8 0-1.4 0-1.7h1c0 .3-.1.8-.1 1.7h1.5c0-.8 0-1.4 0-1.7h1c0 .3-.1.9-.1 1.7zm-8.2 9.2c-.2-.3-.5-.5-.8-.8.8-.3 1.4-.6 1.9-.9s1-.7 1.4-1.1c.3.3.6.5.9.8-1.6 1-2.8 1.6-3.4 2zm2.6-6.8v-1.6h-1.5v1.6zm0 2.7v-1.9h-1.5v1.9zm2.4-2.7v-1.6h-1.5v1.6zm0 2.7v-1.9h-1.5v1.9zm.2 2 .7-.8c.4.2.9.5 1.6.8s1.3.7 1.8 1c-.3.3-.5.5-.8.8-.4-.3-1.5-1-3.3-1.8zm2-4.7v-1.6h-1.4v1.6zm0 2.7v-1.9h-1.4v1.9z"/></g></svg>