<svg enable-background="new 0 0 400 400" viewBox="0 0 400 400" xmlns="http://www.w3.org/2000/svg"><path d="m288 281.99c0 10.36-.09 20.96.06 31.55.04 2.75.48 5.58 1.31 8.2 1.56 4.91 6.47 6.94 13.07 5.02 9.48-2.76 18.81-6.04 28.23-9.03 7.65-2.44 9.65-9.39 12.17-15.66 2.22-5.54 3.1-11.63 5.42-17.11 1.28-3.02 4.83-7.76 6.47-7.42 4.53.93 2.59 6.03 2.05 8.82-2.74 14.03 1.49 25.32 11.27 35.38 6.49 6.67 5.05 10.55-2.78 18.18-4.32 4.21-9.86 6.87-16.91 5.38-3.88-.82-8.32 1.49-12.53 1.62-9.69.3-19.4-.21-29.07.26-8.49.42-16.92 2.11-25.42 2.56-9.47.5-18.98.07-28.47.31-15.06.39-30.17-13.67-29.25-28.85.65-10.76-2.22-21.76-3.78-32.61-.14-1-2.32-2.56-3.38-2.43-5.48.68-11.02 1.46-16.29 3.02-1.48.44-2.55 3.54-3.07 5.61-.79 3.16-1.22 6.47-1.28 9.73-.17 8.2-6.61 11.92-11.65 16.56-1 .92-3.63 1.04-4.99.41-4.85-2.25-7.24-8.58-6.26-14.06.94-5.31 1.69-10.69 2.01-16.07.56-9.42.59-18.87 1.13-28.3.26-4.56 1.53-9.08 1.65-13.63.14-5.41-.64-10.84-.73-16.26-.1-5.85-.13-11.73.29-17.56.6-8.32 4.11-16.29.98-25.04-2.02-5.62 3.61-10.61 7.74-7.25 8.86 7.21 16.93 2.12 25.15-.01 8.94-2.32 9.86-4.04 9.86-13.07 0-8.5.04-17-.01-25.5-.04-6.19-2.98-8.77-9.73-8.72-5.61.04-8.23 2.75-8.26 8.56-.03 5.12-3.12 10.19-7.95 11.71-1.79.57-4.74.13-6.1-1.06-4.37-3.81-6.2-8.65-4.04-14.57.77-2.1.98-4.48 1.05-6.74.41-12.26.78-24.53 1.02-36.8.2-10.3-.67-20.29-7.71-28.77-1.43-1.73-1.96-4.54-2.06-6.9-.05-1.1 2.24-3.43 2.9-3.24 4.12 1.2 8.2 2.73 12.06 4.63 2.15 1.06 3.81 3.09 5.77 4.58 4.12 3.11 8.41 5.17 13.97 4.75 5.05-.38 10.2.89 15.29.75 7.4-.2 14.77-1.24 22.16-1.52 9.5-.36 19.03-.11 28.52-.57 3.48-.17 7.08-1.18 10.31-2.57 7.31-3.14 14.42-6.72 21.58-10.22 1.15-.56 2.31-1.41 3.07-2.42 4.13-5.5 9.67-5.16 15.02-3.06 5.11 2 10.15 4.58 14.53 7.84 1.79 1.33 3.07 5.61 2.3 7.73-4.95 13.68-4.63 27.82-4.68 41.97-.01 1.5-.24 3.04.04 4.49 2.63 13.99-4.79 22.83-15.31 30.09-2.81 1.94-5.68 3.82-8.52 5.71-6.2 4.13-10.35 2.17-11.19-5.34-.4-3.59-.64-7.2-1.04-10.79-.36-3.28-1.53-5.78-5.55-5.26-3.25.42-6.8.12-9.65 1.4-2.07.93-4.35 3.81-4.57 6.01-.83 8.55-.99 17.18-1.17 25.78-.15 7.32 2.43 9.7 9.61 9.84 10.9.21 20.31-3.41 27.89-11.15 6.75-6.89 14.75-3.88 21.35 1.68 11.93 10.04 12.03 12.31 2.33 24.56-2.95 3.72-4.22 7.45-4.34 12.15-.17 6.38-1.45 12.73-1.74 19.11-.19 4.08.78 8.19.82 12.3.11 14 0 28 .09 42 .01 2.43.4 4.9.91 7.29 1.44 6.67-3.63 10.18-7 14.42-1.26 1.59-3.47 2.39-5.15 3.67-9.73 7.41-14.16 1.81-15.82-7.79-.61-3.52-1.19-7.06-2.11-10.5-.62-2.32-2.05-3.31-4.84-2.39-5.09 1.67-10.34 2.83-17.05 4.61zm-47-35.18c.67 0 1.34 0 2.01-.01 0 9.93-.18 19.87.09 29.8.11 4.05 1.25 8.06 1.76 12.11 1.1 8.78 1.57 17.67 3.32 26.32 1.36 6.72 2.15 14.28 10.01 17.66 4.42 1.9 10.25.91 12.79-2.57 3.33-4.56 2.7-8.45-1.38-13.17-1.96-2.27-4.15-5.16-4.4-7.94-1.1-11.99-1.86-24.04-2.09-36.08-.19-9.75.72-19.53.85-29.29.12-9.08 3.16-17.67-.37-27.44-3.1-8.6-1.34-18.98-1.55-28.58-.16-7.02 1.07-14.28-.36-21.01-1.55-7.29-.93-14.23-.9-21.42.03-7.44-2.08-14.87-2.7-22.35-.94-11.5-1.51-23.04-2.03-34.58-.21-4.69-4.19-3.98-6.81-4.87-.51-.17-2.88 2.8-3.1 4.49-.98 7.49-1.52 15.03-2.15 22.56-1.02 12.3-2.11 24.59-2.9 36.9-.21 3.23.91 6.53.85 9.79-.15 8.77-.58 17.53-.96 26.29-.06 1.29-.48 2.55-.64 3.84-.45 3.55-1.3 7.13-1.15 10.66.19 4.72 1.62 9.39 1.73 14.11.26 11.58.08 23.18.08 34.78zm70-40.25c0-5.32.15-10.64-.04-15.94-.2-5.76-1.61-7.08-7.16-6.55-3.86.37-7.93.69-11.42 2.17-2.46 1.05-5.68 3.9-5.85 6.14-.6 8.2-.25 16.49.12 24.74.22 4.87 2.3 8.39 8.12 8.31 3.59-.05 7.35-.01 10.75.95 4.48 1.27 5.41-.83 5.46-4.36.08-5.16.02-10.31.02-15.46zm-26.52-92.77c3.16.72 6.14 1.58 9.17 2.06 7.29 1.17 12.14-2.19 12.3-8.64.18-7.13.15-14.27-.05-21.4-.04-1.43-1.21-4.05-1.9-4.06-6.15-.11-12.32.12-18.46.58-.82.06-1.82 1.85-2.19 3.02-1.74 5.43-3.41 10.82-1.44 16.69 1.24 3.66 1.69 7.59 2.57 11.75zm-75.89 117.2c2.33 0 4.75.4 6.94-.13 1.63-.4 4.18-1.97 4.22-3.09.28-8.14.74-16.39-.26-24.43-.87-7.01-3.76-8.03-11.26-6.5-1.44.29-2.99.26-4.46.14-4.87-.41-6.53 2.68-6.69 6.62-.27 6.65-.26 13.33-.02 19.99.22 6.08 1.89 7.42 8.04 7.42 1.16-.01 2.32-.01 3.49-.02zm100.95 8.13c-22.9-.82-22 4.99-21.52 17.98.36 9.56 4 10.96 21.36 8.52 4.47-8.79 2.34-17.52.16-26.5zm-106.54-136.51v8.96c.01 6.89 1.94 8.54 8.7 7.38 1.76-.3 3.6-.44 5.24-1.06 2.84-1.08 5.76-1.96 5.16-6.35-.75-5.52-.19-11.26-1.32-16.66-.74-3.52-.18-8.94-6.67-8.94-11.11.01-11.11-.14-11.11 11.19zm-6 159c0 2.49-.08 4.98.04 7.46.05 1.08.19 2.47.86 3.16 3.42 3.48 7.68 3.96 12.01 2.25 4.14-1.64 9.81-1.9 9.14-8.81-.3-3.12-.05-6.3-.05-9.45-.01-7.8-1.29-8.96-9.08-8.22-12.59 1.18-12.92 1.53-12.92 13.61z" fill="#000001"/><path d="m175.2 132.49c-12.95 1.27-24.43 2.39-36.19 3.54 0 8.64-.16 16.79.09 24.92.09 2.76 1.81 3.81 5.09 4.3 10.19 1.51 17.25-5.21 25.52-8.63 5.39-2.23 6.13-1.9 6.33 3.98.18 5.35.68 10.69 1.05 16.1-12.37-3.08-24.46.65-36.88 2.16v40.15c5.09 0 10.19.25 15.26-.09 3.6-.24 6.24.98 6.05 4.43-.12 2.29-1.89 5.16-3.81 6.51-2.09 1.47-5.18 1.86-7.88 2.07-6.48.49-7.72 1.49-8.83 8-1.17 6.87-2.15 13.36-.41 20.68 1.84 7.73.41 16.23.42 24.4 0 .81.07 1.63.15 3.27 4.22-.83 8.11-1.7 12.03-2.33 2.9-.47 5.9-1.09 8.76-.77 1.76.19 3.34 2.01 5 3.1-1.16 1.63-1.98 4.18-3.52 4.74-8.99 3.25-18.01 6.64-27.29 8.82-10.15 2.38-20.63 3.28-30.89 5.23-11.34 2.16-22.62 4.71-33.88 7.27-5.7 1.29-11.29 3.08-16.98 4.44-3.27.78-5.9.27-7.76-3.36-2.81-5.51-6.41-10.61-9.44-16.02-.85-1.51-1.66-3.97-.99-5.15.71-1.26 3.47-2.48 4.85-2.07 7.29 2.16 14.51 1.39 21.92 1.01 8.73-.44 17.55 1.06 26.28.62 6.23-.31 12.46-2.11 18.5-3.88 4.34-1.27 5.95-5.04 6.29-9.49.47-6.21 1.94-12.43 1.71-18.59-.27-6.91-1.7-13.82-3.24-20.59-.32-1.4-3.43-3.22-5.12-3.08-10.12.81-20.22 1.93-30.27 3.36-5.11.73-10.06 2.69-15.17 3.34-1.83.23-4.81-1.25-5.72-2.84-1.65-2.86-2.5-6.35-2.87-9.67-.11-.96 2.47-3.1 3.94-3.22 14.78-1.22 29.59-2.11 44.39-3.16 2.77-.2 5.81-.1 8.18-1.25 1.55-.75 2.94-3.49 3-5.38.29-9.86.13-19.73.15-29.6 0-1.49.34-2.99.2-4.46-.13-1.42-.3-3.63-1.13-4.01-1.54-.71-4.06-1.1-5.33-.3-4.79 3.05-9.98 3.6-15.42 4.11-8.45.8-16.82 2.45-25.26 3.31-8.03.82-16.12 1.1-24.19 1.54-.72.04-1.67-.35-2.16-.87-2.59-2.76-5.28-5.48-7.5-8.53-.98-1.34-1.61-3.69-1.11-5.12.41-1.16 2.73-2.25 4.26-2.32 16.19-.82 32.4-1.34 48.59-2.16 4.55-.23 9.07-1.18 13.6-1.78.66-.09 1.32-.14 1.98-.15 1.97-.03 5.13.73 5.7-.17 2.06-3.24 4.11-6.93 4.53-10.63.49-4.29-.36-8.86-1.31-13.16-1.66-7.49-1.87-7.34-9.6-7.07-12.13.42-24.27.69-36.4 1.02-.5.01-1 0-1.5 0-7.37 0-14.02-5.2-15.64-12.5-.21-.96.54-2.45 1.31-3.23.72-.73 2.16-1.36 3.11-1.17 11.72 2.33 23.01-1.99 34.57-2.2 7.37-.13 14.76-.97 22.05-2.12 1.73-.27 4.22-2.97 4.38-4.74 1.21-12.95 2.42-25.89-.52-38.87-1.39-6.15-4.05-11.16-8.13-15.83-1.41-1.61-1.32-4.54-1.91-6.86 2.43-.09 5.57-1.22 7.17-.12 10.07 6.98 20.88 11.9 33.05 13.69.78.11 1.58.46 2.25.89 2.13 1.33 5.73 2.57 5.9 4.16.22 2.03-1.84 5.26-3.81 6.38-4.76 2.71-4 7.43-4.52 11.23-1.03 7.51-.85 15.17-1.24 22.77-.21 4.08 1.71 6 5.67 5.48 6.78-.89 13.63-1.46 18.91-6.88 3.03-3.11 6.25-2.3 7.28 1.81 1.66 6.59 2.73 13.35 4.35 21.59z" fill="#000001"/><g fill="#fafbfa"><path d="m377.9 391.2c-.2.3-.4.5-.6.8-.7-.6-1.4-1-2.2-1.5.2-.3.4-.5.5-.8.6.4 1.4.8 2.3 1.5zm-1.8 6.1c-.2-.2-.5-.4-.9-.6.4-.6.8-1.2 1.2-1.9s.7-1.3.9-1.9c.3.3.5.5.8.7-.7 1.3-1.4 2.6-2 3.7zm2.2-9c-.3.3-.5.5-.6.8-.6-.6-1.3-1.1-2-1.5.3-.3.5-.5.6-.7.6.5 1.3.9 2 1.4zm.3.2v-.9h2 4.5c-.3 1.3-.6 2.5-1 3.6s-.9 2.1-1.4 3c.4.5 1 1 1.6 1.4s1.2.8 1.9 1.1c-.3.2-.5.4-.8.8-.4-.3-1-.7-1.6-1.2s-1.2-1.1-1.6-1.6c-.5.6-1.1 1.1-1.7 1.6s-1.4.9-2.1 1.4c-.1-.3-.3-.5-.7-.8.6-.2 1.2-.5 1.9-1s1.4-1.1 2-1.8c-.5-.8-.9-1.6-1.2-2.5s-.6-2-.8-3.2c-.4.1-.7.1-1 .1zm2.5 2.7c.2 1 .7 1.7 1 2.2.3-.5.6-1.1 1-2s.6-1.9.9-3h-3.2-.4c.1.9.3 1.8.7 2.8z"/><path d="m396.5 388.5v1.5 3.6h1.5v.9c-.4 0-1 0-1.7 0h-7.9c-.5 0-.9 0-1.2 0v-.9h1.3v-3.5c0-.7 0-1.2 0-1.6h2.4c0-.8 0-1.4 0-1.7h1c0 .3-.1.8-.1 1.7h1.5c0-.8 0-1.4 0-1.7h1c0 .3-.1.9-.1 1.7zm-8.2 9.2c-.2-.3-.5-.5-.8-.8.8-.3 1.4-.6 1.9-.9s1-.7 1.4-1.1c.3.3.6.5.9.8-1.6 1-2.8 1.6-3.4 2zm2.6-6.8v-1.6h-1.5v1.6zm0 2.7v-1.9h-1.5v1.9zm2.4-2.7v-1.6h-1.5v1.6zm0 2.7v-1.9h-1.5v1.9zm.2 2 .7-.8c.4.2.9.5 1.6.8s1.3.7 1.8 1c-.3.3-.5.5-.8.8-.4-.3-1.5-1-3.3-1.8zm2-4.7v-1.6h-1.4v1.6zm0 2.7v-1.9h-1.4v1.9z"/></g></svg>