<svg enable-background="new 0 0 400 400" viewBox="0 0 400 400" xmlns="http://www.w3.org/2000/svg"><path d="m374.8 390.4.4-.4c.7.5 1.3 1 1.8 1.4l-.5.5c-.5-.6-1.1-1.1-1.7-1.5zm1 7.3-.6-.3c.5-1.4 1.1-2.8 1.5-4.3.2.1.4.2.6.3-.5 1.3-1 2.8-1.5 4.3zm-.4-10.3.5-.4c.4.3 1 .8 1.7 1.4l-.5.5c-.5-.5-1.1-1-1.7-1.5zm2.5.3h1.7v-1h.6v1h3.5v-1h.6v1h1.8v.5h-1.8v1.4h-2v1h3.2v2h-3.2v.9h3.3v.5h-3.4c0 .3-.1.6-.1.9h4v.5h-3.7c.7.9 1.9 1.5 3.8 1.7-.1.2-.2.4-.3.6-2.1-.4-3.5-1.1-4-2.1-.4 1-1.8 1.7-4 2.2-.1-.2-.2-.4-.3-.6 2.1-.4 3.4-1 3.8-1.8h-3.4v-.5h3.6c.1-.3.1-.6.2-.9h-3.3v-.5h3.4c0-.3 0-.6 0-.9h-3.2v-2h3.3v-1h-2.1v-1.4h-1.7v-.5zm1.1 3.5v1h2.7c0-.3 0-.4 0-.4 0-.1 0-.2 0-.2 0-.1 0-.2 0-.3h-2.7zm1.2-3v.9h3.5v-.9zm4.7 3h-2.6v.6.4h2.6z" fill="#fcfbfa"/><path d="m393.6 386.7h.6v1.5h2.7v6.1h1.1v.6h-11v-.6h1.1v-6.1h2.7v-1.5h.6v1.5h2.1v-1.5zm-2.7 8.8.4.6c-1.2.6-2.5 1.3-3.8 1.9-.1-.2-.2-.4-.3-.6 1.2-.6 2.5-1.2 3.7-1.9zm-2.2-6.7v2.4h2.1v-2.4zm0 3v2.5h2.1v-2.5zm2.8-3v2.4h2.1v-2.4zm0 3v2.5h2.1v-2.5zm6 6.1c-1.4-.7-2.7-1.3-3.9-1.8l.3-.6c1.5.6 2.7 1.2 3.9 1.7zm-1.2-9.1h-2.1v2.4h2.1zm-2.1 3v2.5h2.1v-2.5z" fill="#fcfbfa"/><g fill="#010103"><path d="m228.04 85.66c2.33 3.2 3.83 5.97 5.98 8.07 4.96 4.83 3.85 9.92.64 14.7-3.1 4.62-3.32 9.2-1.77 14.2.39 1.25.81 2.49 1.06 3.77 1.32 6.83 6.72 9.15 12.71 5.44 3.25-2.02 6.33-4.5 9.84-5.88 3.61-1.41 5.24 1.94 6.18 4.57.96 2.67.98 5.65-2.91 6.5-4.43.98-8.82 2.26-13.3 2.89-6.59.93-10 3.9-9.36 9.4.2 1.73 1.74 3.3 2.67 4.94 3.61 6.31 7.54 12.46 10.6 19.02.75 1.62-.76 5.19-2.35 6.68-1.15 1.08-4.35.78-6.26.09-3.62-1.31-5.52-.47-5.76 3.48-.39 6.6-.56 13.21-1.08 19.79-.19 2.38-.76 4.89-1.86 6.98-.95 1.81-3.01 4.47-4.37 4.35-2.94-.25-6.41-.34-8.03-4.32-2.8-6.82-2.16-12.99 1.51-18.28-2.11-4.08-4.42-7.67-5.82-11.59-.98-2.73-1.59-3.9-4.67-2.62-2.19.92-4.74.99-7.13 1.45-.11 2.9-4.36 6.92-6.9 6.21-.42-.12-.81-2.36-.38-3.19 5.25-10.07 10.74-20.02 15.93-30.11.84-1.63.93-3.88.7-5.76-.59-4.71-2.55-5.66-7.27-4.85-3.08.53-6.34.6-9.42.18-1.41-.19-2.58-2.08-3.86-3.19 1.41-.87 2.77-2.38 4.23-2.49 4.48-.33 8.99-.1 13.49-.13 4.62-.03 7.93-2.89 7.87-7.51-.15-12.77-.51-25.54-1.08-38.29-.06-1.32-1.79-3.09-3.17-3.76-6.89-3.33-20.99-.09-24.8 6.55-2.65 4.63-4.42 10.35-4.69 15.67-1.12 22.33-1.24 44.72-2.32 67.06-.49 10.26-2.16 20.49-3.63 30.68-1.54 10.63-3.05 21.3-5.36 31.78-3.11 14.1-7.08 28-10.46 42.04-2.38 9.86-4.56 19.93-11.51 27.66-7.58 8.42-15.83 16.25-24.02 24.09-3.65 3.5-7.69 6.69-11.92 9.47-4.85 3.19-10.1 5.77-15.17 8.62-.36-.32-.72-.63-1.09-.95.96-1.39 1.68-3.08 2.93-4.13 4.78-3.99 9.8-7.68 14.58-11.67 2.08-1.74 4.03-3.75 5.62-5.95 4.5-6.2 8.69-12.62 13.17-18.83 5.88-8.17 8.23-17.56 10.07-27.23.93-4.9 3.02-9.57 3.94-14.47 1.89-10.1 3.52-20.25 4.94-30.42 1.52-10.86 2.87-21.75 3.92-32.67.49-5.15-.11-10.39.18-15.56.48-8.53.57-17.16 2.09-25.52 3.89-21.31.9-42.73 1.71-64.07.12-3.21-1.2-6.72-2.66-9.69-2.3-4.66-1.01-8.52 4.07-8.75 5.77-.25 11.59.56 17.39.65 9.49.15 18.98.2 28.47.1 4.44-.05 8.89-.4 13.3-.9 9.59-1.09 19.16-2.43 28.75-3.53 2.95-.34 5.95-.4 8.92-.32 6.77.19 13.55.94 20.3.75 7.38-.21 14.73-1.49 22.11-1.8 9.65-.4 17.81-3.32 23.55-11.55 2.23-3.19 5.35-2.13 7.67-.46 3.99 2.87 7.75 6.12 11.25 9.57 2.21 2.18.18 5.83-3.96 6.27-9.15.99-18.35 1.39-27.53 2.13-2.59.21-5.24.47-7.71 1.21-1.39.42-3.41 1.81-3.48 2.86-.1 1.5.97 3.55 2.19 4.59 6.47 5.51 7.3 7.57 3.32 14.65-3.58 6.37-4.01 13.1-3.77 20.04.14 4.11 2.89 5.29 6.56 5.87 11.34 1.79 22.36 1.56 31.94-5.62 3.32-2.48 5.67-6.25 9.42-10.54 4.51 3.75 9.66 7.23 13.76 11.67 3.2 3.47 1.56 6.55-3.17 7.22-10.04 1.42-20.08 2.94-30.16 3.94-11.17 1.11-13.95 4.86-9.78 15.08 2.76 6.77 5.73 13.55 9.55 19.74 2.37 3.83 6.34 6.77 9.91 9.73 9.78 8.14 21.66 12.33 33.14 17.27 1.72.74 2.98 2.55 4.46 3.86-1.75 1.13-3.36 2.6-5.26 3.34-15.2 5.89-27.73.87-39.35-9.26-10.65-9.28-16.24-21.04-19.08-34.52-1.04-4.92-2.31-9.82-3.89-14.59-.47-1.43-2.36-2.38-3.6-3.55-.82 1.37-2.28 2.69-2.37 4.1-.54 8.42-1.04 16.86-1.03 25.29.01 9.1.73 18.2.85 27.3.04 3.24-.42 6.58-1.23 9.73-1.02 3.99-2.52 8.47-7.55 8.39-4.93-.09-8.22-4.03-9.61-8.16-1.43-4.25-1.11-9.09-1.55-13.67-.31-3.25-.16-6.62-.99-9.74-1.63-6.11-6.01-7.19-10.83-2.94-6.31 5.56-12.44 11.34-18.88 16.75-2.51 2.11-5.66 3.48-8.51 5.18-.41-.39-.81-.78-1.22-1.17 2.06-3.12 3.69-6.67 6.27-9.27 13.58-13.74 22.79-30.23 30.52-47.67 2.6-5.88 1.54-7.72-4.69-9.16-2.06-.48-4.11-.95-7.53-1.73 1.68-1.68 2.74-3.38 4.26-4.13 2.96-1.44 7.78-1.49 8.95-3.66 2.03-3.79 2.53-8.76 2.5-13.22-.05-6.37-1.03-12.75-1.9-19.08-.42-3.03-1.19-6.11-2.38-8.91-1.52-3.58-4.54-5.29-8.56-5.27-12.33.06-24.66-.11-36.99.13-2.68.06-5.3 1.47-9 2.56z"/><path d="m285.9 220.39c-.31 10.28-.89 19.97-.78 29.65.06 5.77 2.81 7.76 8.21 5.83 8.13-2.9 17.36-3.7 23.12-11.66 2.18-3.01 5.29-2.63 8.12-.15 4.32 3.79 8.9 7.32 13 11.33.92.9.97 4.54.33 4.88-3.02 1.61-6.37 3.31-9.69 3.54-11.09.76-22.28.33-33.31 1.49-7.05.74-10.13 5.54-9.8 12.94.22 5.02 1.01 10.07 2.13 14.97.34 1.48 2.49 3.36 4.04 3.61 6.47 1.03 13.01 1.75 19.55 2.12 6.32.36 11.88-1.66 16.35-6.49 1.87-2.03 4.16-3.76 6.5-5.26 4.41-2.82 9.17-2.77 13.23.36 5.47 4.21 10.6 8.89 15.66 13.6 1.46 1.36 2.53 3.41 3.15 5.34 1.19 3.69-1.01 6.55-4.93 6.46-4.77-.12-9.53-.8-14.3-.85-3.26-.04-6.55.98-9.79.82-9.04-.43-18.1-1.99-27.1-1.69-10.81.36-21.63-2.4-32.47.51-2.97.8-6.48-.56-9.75-.72-8.42-.4-16.85-.9-25.28-.9-3.36 0-6.7 1.29-10.08 1.85-8.54 1.4-17.12 2.59-25.63 4.12-3.99.72-7.98 1.71-11.76 3.15-5.63 2.13-9.47-.11-13.05-4.14-4.06-4.58-8.34-8.97-12.41-13.53-.92-1.03-2.25-3.08-1.9-3.56.96-1.31 2.72-2.85 4.16-2.85 9.13.02 18.26.47 27.39.71 4.49.12 9 .24 13.48-.03.96-.06 2.58-1.77 2.6-2.75.13-8.51.3-17.04-.2-25.53-.47-7.84-1.74-15.63-2.68-23.44-.31-2.6-.89-5.19-.95-7.79-.12-4.98 2.72-6.69 6.95-4.33 5.27 2.94 10.77 5.58 15.61 9.13 1.91 1.4 3.18 4.86 3.23 7.41.13 7.43-.73 14.86-.76 22.3-.03 5.76.48 11.54.98 17.29.4 4.65 4.79 8.1 10.78 8.85.33.04.67.01 1 .02 13.53.22 16.7.1 16.22-15.51-.27-8.66.22-17.34-.12-25.99-.33-8.3-.74-16.52-3.23-24.72-1.72-5.66-.63-12.2-.51-18.34.01-.57 2.4-1.83 3.24-1.53 3.64 1.3 7.12 3.05 10.67 4.64 3.82 1.72 7.66 3.44 10.78 4.84z"/><path d="m121.02 50.21c4.05 1.5 8.44 2.43 12.06 4.63 4.3 2.62 8 6.26 11.83 9.61 5.22 4.56 5.55 9.71 1.01 15.08-2.66 3.15-5.55 6.1-8.17 9.28-1.33 1.62-3.07 3.47-3.27 5.37-1.08 10.2-6.97 18.15-11.84 26.58-3.46 5.99-7.05 11.41-6 19.35.96 7.31-1.51 15.01-1.48 22.53.02 6.68 1.46 13.34 2.14 20.02.22 2.21-.07 4.46.03 6.69.27 6.07.79 12.12.92 18.19.18 8.57.11 17.14.13 25.71.01 3.79-.04 7.58-.04 11.37 0 7.9.01 15.81-.01 23.71 0 .81-.28 1.62-.3 2.44-.35 12.93-.7 25.86-1 38.78-.08 3.51.81 7.27-.2 10.47-.93 2.97-3.46 5.72-5.91 7.85-2.27 1.98-4.85 1.47-7.47-.78-4.1-3.52-5.76-7.37-5.59-12.88.26-8.24-.77-16.52-.77-24.79 0-8.1.91-16.2.86-24.29-.1-15.93-.74-31.85-.87-47.78-.06-7.09 1.02-14.21.83-21.29-.26-9.71-1.18-19.4-1.94-29.09-.24-3.08-5.64-4.81-7.08-1.99-4.17 8.17-12.52 11.36-18.59 17.18-4.22 4.04-8.36 8.29-13.08 11.67-7.54 5.4-15.52 10.17-23.34 15.17-2.71 1.74-5.41 3.5-8.24 5.03-.77.42-1.96.06-2.96.06.05-.87-.18-1.89.2-2.58.99-1.81 1.95-3.82 3.45-5.14 11.75-10.3 24.56-19.58 35.15-30.94 8.14-8.73 17.8-16.44 23.29-27.6 4.64-9.43 9.83-18.58 14.74-27.87 3.21-6.06 6.94-11.93 9.41-18.28 3.51-9.03 5.98-18.46 9.06-27.66 2.46-7.34 4.78-14.65 1.51-22.57.51-.4 1.02-.82 1.53-1.24z"/></g></svg>