<svg enable-background="new 0 0 400 400" viewBox="0 0 400 400" xmlns="http://www.w3.org/2000/svg"><path d="m374.8 390.4.4-.4c.7.5 1.3 1 1.8 1.4l-.5.5c-.5-.6-1.1-1.1-1.7-1.5zm1 7.3-.6-.3c.5-1.4 1.1-2.8 1.5-4.3.2.1.4.2.6.3-.5 1.3-1 2.8-1.5 4.3zm-.4-10.3.5-.4c.4.3 1 .8 1.7 1.4l-.5.5c-.5-.5-1.1-1-1.7-1.5zm2.5.3h1.7v-1h.6v1h3.5v-1h.6v1h1.8v.5h-1.8v1.4h-2v1h3.2v2h-3.2v.9h3.3v.5h-3.4c0 .3-.1.6-.1.9h4v.5h-3.7c.7.9 1.9 1.5 3.8 1.7-.1.2-.2.4-.3.6-2.1-.4-3.5-1.1-4-2.1-.4 1-1.8 1.7-4 2.2-.1-.2-.2-.4-.3-.6 2.1-.4 3.4-1 3.8-1.8h-3.4v-.5h3.6c.1-.3.1-.6.2-.9h-3.3v-.5h3.4c0-.3 0-.6 0-.9h-3.2v-2h3.3v-1h-2.1v-1.4h-1.7v-.5zm1.1 3.5v1h2.7c0-.3 0-.4 0-.4 0-.1 0-.2 0-.2 0-.1 0-.2 0-.3h-2.7zm1.2-3v.9h3.5v-.9zm4.7 3h-2.6v.6.4h2.6z" fill="#fcfbfa"/><path d="m393.6 386.7h.6v1.5h2.7v6.1h1.1v.6h-11v-.6h1.1v-6.1h2.7v-1.5h.6v1.5h2.1v-1.5zm-2.7 8.8.4.6c-1.2.6-2.5 1.3-3.8 1.9-.1-.2-.2-.4-.3-.6 1.2-.6 2.5-1.2 3.7-1.9zm-2.2-6.7v2.4h2.1v-2.4zm0 3v2.5h2.1v-2.5zm2.8-3v2.4h2.1v-2.4zm0 3v2.5h2.1v-2.5zm6 6.1c-1.4-.7-2.7-1.3-3.9-1.8l.3-.6c1.5.6 2.7 1.2 3.9 1.7zm-1.2-9.1h-2.1v2.4h2.1zm-2.1 3v2.5h2.1v-2.5z" fill="#fcfbfa"/><path d="m38.82 217.03c.95-5.53 5.21-6.26 8.52-8.12 4.38-2.46 8.74-4.96 12.97-7.66 4.25-2.72 8.38-5.64 12.43-8.65 1.57-1.17 3.53-2.62 4.02-4.31 2.48-8.54 9.57-12.29 16.18-16.8 8.19-5.58 14.76-12.62 20.42-20.98 7.33-10.82 15.78-20.97 24.56-30.68 8.34-9.22 13.61-20.26 20.39-30.39 7-10.46 9.34-22.47 12.45-34.23.56-2.12-.62-4.78-1.25-7.12-1.21-4.51.84-6.75 5.35-5.67 5.14 1.23 10.76 1.55 15.3 3.92 4.99 2.6 8.82 7.31 13.46 10.7 5.51 4.02 5.94 13.96 3.52 19.25-.68 1.49-2.2 2.7-3.55 3.77-4.73 3.79-9.58 7.41-14.31 11.19-3 2.4-4.77 6.18-2.78 9.14 1.61 2.38 5.5 3.85 8.61 4.42 3.1.57 6.51-.86 9.75-.73 11.54.48 23.08 1.16 34.6 1.96 8.84.62 17.49-.57 25.79-3.25 8.86-2.86 17.67-2.32 26.3-.34 12.38 2.83 24.09 1.79 35.29-3.94 4.88-2.5 9.33-5.83 13.97-8.79 2.15-1.37 3.9-2.4 6.53-.13 3.94 3.39 8.46 6.09 12.75 9.05 4.18 2.89 4.66 6.83 3.44 11.38-3.04 11.3-6.4 22.52-8.87 33.94-1.59 7.33-1.88 14.96-2.66 22.46-1.35 12.9-2.65 25.8-3.94 38.7-1.06 10.62-1.96 21.26-3.1 31.88-1 9.28-2.18 18.54-3.38 27.79-.53 4.04-.9 8.17-2.08 12.04-4.02 13.2-7.65 26.6-12.9 39.32-2.63 6.37-3.34 14-9.54 18.84-9.61 7.5-16.08 18.81-28.34 23.17-3.74 1.33-6.61.3-8.44-2.7s-4.14-6.54-3.98-9.73c.38-7.37-4.91-9.44-9.54-12.34-4.25-2.66-8.63-5.1-12.96-7.64.04-.51.08-1.02.11-1.54 4.31-.62 8.63-1.22 12.94-1.87 5.57-.84 11.11-2.14 16.71-2.51 12.77-.84 14.87-11.17 17.19-20.13 4.69-18.1 8.45-36.46 12.08-54.82 1.68-8.48 2.12-17.2 3.2-25.81.24-1.92.82-3.81 1.28-5.7.88-3.57 1.83-7.12 2.67-10.7.4-1.73.21-3.7.97-5.22 2.03-4.06 2.28-7.82 1.48-12.49-.71-4.14 1.71-8.8 2.66-13.25 3.16-14.81 3.22-29.84 2.83-44.86-.12-4.5-4.27-7.72-10.29-7.78-18.69-.19-37.4-.41-56.08.06-10.81.27-21.59 1.81-32.36 2.94-1.42.15-2.74 1.32-4.1 2.01.98 1.14 1.75 2.65 2.98 3.34 3.98 2.24 8.62 4.01 9.06 9.26.25 2.97-.73 6.1-1.48 9.08-.64 2.56-2.55 5.02-2.46 7.48.15 4.42-1.35 8.86 1.63 13.39 2.72 4.15 5.98 3.55 9.42 3.18 6.98-.75 13.9-2.2 20.89-2.7 3.72-.27 6.9-.89 9.13-3.93 1.9-2.59 3.94-2.46 6.38-.96 6.52 3.99 12 8.82 14.08 16.75-.76.39-1.32.91-1.89.93-9.1.4-18.26.19-27.28 1.19-18.43 2.04-36.86 3.04-55.41 3.07-9.46.02-18.93 1.77-28.39 2.86-6.88.79-10.59 5.27-10.76 12.3-.24 9.77-1.13 19.55-.82 29.29.25 7.96 1.59 15.93 2.95 23.8.78 4.51 4.13 5.64 8.73 6.86 16.53 4.38 33.31 3.27 49.8 2.25 11.09-.68 22.67-3.26 32.17-10.75 8.12-6.4 11.71-3.13 15.26 2.91 2.46 4.19 6 7.74 8.79 11.76 1.02 1.47 1.25 3.48 1.83 5.24-1.68.43-3.34 1.13-5.04 1.24-16.96 1.08-33.93 2.01-50.89 3.07-14.8.93-29.6 2.07-44.41 2.89-3.23.18-6.55-.37-9.75-.99-5.8-1.12-8.9.98-9.55 7-.2 1.81-.23 3.69-.01 5.49.99 8.16-3.58 13.21-9.62 17.4-7.24 5.03-12.72-.21-16.44-6.54-4.77-8.12-2.16-16.43-1.04-24.83 1.37-10.24 2.44-20.55 2.95-30.87.49-9.97.74-20.04-.06-29.97-.94-11.73.43-23.76-3.82-35.14-.39-1.04-.6-2.2-1.21-3.09-2.85-4.14-2.45-6.47 2.38-7.28 4.7-.79 9.79-.8 14.47.1 9.08 1.74 17.94 4.61 26.99 6.49 3.67.76 7.67.59 11.43.12 4.77-.6 7.85-4.59 7.89-9.76.1-12.66 0-25.33.05-37.99.02-4.36-2.92-6.12-6.35-5.93-12.13.7-24.32 1.36-36.31 3.23-3.62.57-7.17 4.59-9.83 7.8-12.88 15.54-26.58 30.13-42.99 42.12-8.6 6.28-16.24 13.88-24.77 20.29-7.67 5.77-15.83 10.94-24.02 15.96-3.82 2.34-8.12 4.06-12.42 5.36-2.51.8-5.45.18-8.51.18z" fill="#010103"/></svg>