<svg enable-background="new 0 0 400 400" viewBox="0 0 400 400" xmlns="http://www.w3.org/2000/svg"><path d="m374.8 390.4.4-.4c.7.5 1.3 1 1.8 1.4l-.5.5c-.5-.6-1.1-1.1-1.7-1.5zm1 7.3-.6-.3c.5-1.4 1.1-2.8 1.5-4.3.2.1.4.2.6.3-.5 1.3-1 2.8-1.5 4.3zm-.4-10.3.5-.4c.4.3 1 .8 1.7 1.4l-.5.5c-.5-.5-1.1-1-1.7-1.5zm2.5.3h1.7v-1h.6v1h3.5v-1h.6v1h1.8v.5h-1.8v1.4h-2v1h3.2v2h-3.2v.9h3.3v.5h-3.4c0 .3-.1.6-.1.9h4v.5h-3.7c.7.9 1.9 1.5 3.8 1.7-.1.2-.2.4-.3.6-2.1-.4-3.5-1.1-4-2.1-.4 1-1.8 1.7-4 2.2-.1-.2-.2-.4-.3-.6 2.1-.4 3.4-1 3.8-1.8h-3.4v-.5h3.6c.1-.3.1-.6.2-.9h-3.3v-.5h3.4c0-.3 0-.6 0-.9h-3.2v-2h3.3v-1h-2.1v-1.4h-1.7v-.5zm1.1 3.5v1h2.7c0-.3 0-.4 0-.4 0-.1 0-.2 0-.2 0-.1 0-.2 0-.3h-2.7zm1.2-3v.9h3.5v-.9zm4.7 3h-2.6v.6.4h2.6z" fill="#fcfbfa"/><path d="m393.6 386.7h.6v1.5h2.7v6.1h1.1v.6h-11v-.6h1.1v-6.1h2.7v-1.5h.6v1.5h2.1v-1.5zm-2.7 8.8.4.6c-1.2.6-2.5 1.3-3.8 1.9-.1-.2-.2-.4-.3-.6 1.2-.6 2.5-1.2 3.7-1.9zm-2.2-6.7v2.4h2.1v-2.4zm0 3v2.5h2.1v-2.5zm2.8-3v2.4h2.1v-2.4zm0 3v2.5h2.1v-2.5zm6 6.1c-1.4-.7-2.7-1.3-3.9-1.8l.3-.6c1.5.6 2.7 1.2 3.9 1.7zm-1.2-9.1h-2.1v2.4h2.1zm-2.1 3v2.5h2.1v-2.5z" fill="#fcfbfa"/><path d="m33.22 376.01c-.18-6.24 3.32-10.68 7.75-11.61.65-.14 1.63-.51 1.78-.98 2.27-7.28 8.9-10.31 14.02-14.9 9.27-8.32 18.15-17.02 24.49-28.01 2.76-4.78 7.08-8.69 9.58-13.57 4.49-8.77 7.42-18.39 12.35-26.87 5.57-9.59 7.5-19.47 8.03-30.37.69-14.04 3.38-27.98 4.59-42.01.7-8.14-.13-16.4.29-24.57.31-6.02 1.72-11.97 2.29-17.99.78-8.34 1.96-16.72-1.59-24.85-.73-1.68-1.31-4.6-.42-5.62 4.55-5.26 2.62-11.66 3.42-17.45.87-6.38-.31-13.02.32-19.45.97-9.98-2.79-18.48-7.17-26.87-3.21-6.14-3.29-7.78 2.85-11.08 6.39-3.44 13.21-6.24 20.11-8.49 2.16-.7 5.68.62 7.74 2.15 7.01 5.17 15.14 5.98 23.25 6.44 8.64.48 17.33.35 25.98.05 13.7-.46 27.6-.08 41.04-2.31 12.3-2.04 24.44-.78 36.61-1.69 9.15-.69 18.25-2.09 27.4-2.75 2.99-.22 6.07 1.16 9.13 1.31 4.92.24 9.87.06 16.03.06-5.17-7.6-2.72-12.57 1.95-17.11 2.91-2.84 5.54-6.03 8.75-8.48 1.36-1.04 4.5-1.54 5.75-.69 10.07 6.82 19.92 13.94 27.27 23.95 6.16 8.38 4.19 16.78-5.77 20.57-4.92 1.87-10.41 2.93-15.68 3.06-15.16.38-30.33.12-45.49.12-9.37 0-18.74-.31-28.09.07-19.49.79-38.98 1.89-58.46 2.96-10.04.55-20.18.59-30.06 2.22-6.99 1.15-14.51.94-20.68 6.31-6.65 5.78-8.49 11.97-4.07 19.53.24.41.46.91.47 1.37.29 8.67.6 17.34.77 26.01.03 1.77-.59 3.54-.73 5.33-1.35 16.22-2.6 32.45-4 48.67-.53 6.2.2 13.17-2.44 18.36-3.77 7.4-1.38 15.49-5.12 22.83-3.47 6.82-4.68 14.79-6.9 22.24-2.27 7.59-3.82 15.5-7.06 22.65-2.84 6.26-7.45 11.75-11.51 17.42-7.61 10.62-15.03 21.39-23.19 31.58-9.23 11.54-19.41 22.16-32 30.4-8.32 5.45-15.62 12.43-23.68 18.31-2.56 1.86-6.1 2.37-9.9 3.75z" fill="#010103"/></svg>