<svg enable-background="new 0 0 400 400" viewBox="0 0 400 400" xmlns="http://www.w3.org/2000/svg"><path d="m72.51 66.93c9.47-2.39 18.37-4.99 27.45-6.69 2.34-.44 5.74 1.37 7.74 3.17 4.85 4.36 9.74 7.18 16.71 6.7 19.45-1.34 38.94-2.01 58.4-3.17 13.15-.78 26.28-1.91 39.41-2.96 15.91-1.28 31.84-2.36 47.68-4.22 3.67-.43 7.31-3.3 10.4-5.76 3.05-2.44 5.43-5.74 8.01-8.73 3.32-3.84 7.48-4.68 12.59-2.28 10.78 5.08 19.64 12.55 26.66 22.13 4.42 6.03 2.89 11.93-3.79 15.93-2.11 1.26-4.13 2.68-6.31 3.8-6.84 3.52-8.1 6.06-7.49 13.34.61 7.27.52 14.6 1.1 21.88.77 9.65 1.98 19.27 2.84 28.91.53 5.92.72 11.87 1.11 17.8.67 10.04 1.25 20.08 2.09 30.1.82 9.81 2.25 19.59 2.76 29.41.25 4.67-1.08 9.42-1.54 14.14-.24 2.47-.63 5.05-.19 7.43 3.52 18.91 1.22 37.88 1.19 56.85-.03 18.49-11.76 26.99-25.75 34.4-3.97 2.1-7.44 1.08-9.25-2.61-2.84-5.78-4.68-12.04-7.44-17.87-1.04-2.19-3.25-5.04-5.25-5.32-4.51-.65-9.22.1-13.84.31-1.48.07-2.95.37-4.42.37-9.87.03-19.75-.23-29.61.08-14.21.44-28.51.44-42.58 2.2-12.97 1.62-25.85 2.74-38.92 2.91-7.46.09-14.99 1.37-22.31 2.93-6.18 1.32-8.19 4.39-7.9 10.65.36 7.89-2.04 15.09-6.25 21.32-5.27 7.81-10.39 9.99-17.52 1.5-1.84-2.19-3.14-5.6-3.14-8.45.02-16.1.49-32.2.86-48.3.29-12.6.92-25.2.91-37.8 0-12.77-.95-25.54-.81-38.3.11-10.54 1.82-21.08 1.71-31.61-.12-12-1.47-24-2.3-35.99-.11-1.64-.49-3.26-.5-4.9-.05-10.03.39-20.07-.12-30.07-.72-14.2 0-28.69-5.92-42.14-1.54-3.54-3.88-6.71-6.47-11.09zm208.12 143.71c.49-1.01 1-1.86 1.32-2.77 4.85-13.66 2.85-27.68 1.93-41.58-1.03-15.59-3.07-31.12-3.72-46.71-.49-11.9.69-23.85.78-35.79.08-10.84-3.26-14.21-12.31-12.73-17.98 2.96-35.84 5.31-54.3 4.33-13.11-.7-26.38 2.59-39.62 3.52-18.44 1.31-36.92 2.07-55.38 3.1-1.12.06-2.59-.03-3.27.61-6.22 5.87-13.1 11.33-12.11 21.43 1.19 12.1 2.56 24.23 2.92 36.37.5 16.9.1 33.82.16 50.73.01 1.78.59 3.55.71 5.33.46 6.77 1.02 13.53 1.17 20.31.08 3.75-.9 7.53-.85 11.28.2 15.98.68 31.96.91 47.94.13 9.21-.42 18.48 3.18 27.24 1.66 4.04 4.23 6.32 9.36 5.88 12.83-1.09 25.72-1.44 38.59-2.16 12.84-.72 25.71-1.16 38.5-2.38 15.8-1.51 31.52-3.92 47.32-5.52 8.22-.83 16.57-.36 24.77-1.26 4.13-.45 9.92.5 11.16-5.73 1.02-5.12 1.78-10.33 2.06-15.53.35-6.65-.86-13.5.35-19.95 1.69-9.06 2.1-17.82-.28-26.7-.79-2.95-1.68-5.87-2.67-9.28-5.44 4.52-9.96 8.34-14.54 12.07-5.46 4.44-13.5 3.4-17.11-2.63-2.66-4.43-4.59-9.31-6.69-14.06-2.7-6.09-4.92-12.42-7.95-18.34-2.86-5.58-6.6-10.69-9.7-16.16-.62-1.1-.09-2.86-.09-5.39 2.85 1.95 5 3.5 7.22 4.95 7.69 5.01 15.45 9.93 23.11 15 7.98 5.29 15.06 12.07 25.07 14.58z" fill="#010103"/><path d="m217.85 133.08c3.3 4.11 6.15 8 9.36 11.56 2.51 2.78 2.86 5.37-.1 7.64-6.68 5.1-10.55 12.09-14.11 19.43-2.03 4.19-4.34 4.43-7.02 1.39-.77-.87-2.53-2.14-2.87-1.9-1.23.89-2.51 2.23-2.87 3.63-.28 1.12.61 2.65 1.23 3.86.69 1.33 2.22 2.41 2.44 3.76 2.32 14.51 4.52 29.04 6.59 43.59 1.31 9.24 2.46 18.51 3.45 27.79.58 5.41.31 10.93 1.14 16.28 1.18 7.65-2.72 12.34-8.21 16.47-1.7 1.28-3.42 2.57-4.94 4.04-3.38 3.27-7.22 2.8-10.99 1.25-3.28-1.35-3.91-4.18-4.05-7.69-.79-18.47-1.89-36.92-2.95-55.38-.06-1.1-.47-2.24-.96-3.25-1.22-2.53-2.57-4.99-3.87-7.47-2.54 1.65-5.4 2.97-7.57 5.02-6.84 6.44-13.32 13.26-20.13 19.73-4.79 4.55-9.81 8.89-14.92 13.08-2.21 1.81-4.86 3.18-7.48 4.36-.67.3-2.29-.66-2.93-1.47-.4-.51-.07-2.03.44-2.73 5.04-6.85 10.27-13.55 15.28-20.43 4.56-6.26 8.88-12.7 13.35-19.02.76-1.07 1.61-2.23 2.69-2.91 7.72-4.79 11.71-12.76 16.58-19.84 6.69-9.73 5.76-20.49 2.46-31.2-.98-3.17-3.34-6.18-.31-9.99 2.65 1.41 5.28 2.61 7.69 4.16 5.47 3.51 9.39 2.42 12.03-3.56 2.28-5.18 4.83-10.26 6.72-15.58 1.35-3.79-1.56-7.65-5.54-7.62-5.1.05-10.2.66-15.3.92-7.6.39-15.21.58-22.8 1.05-3.74.23-7.46 1.22-11.19 1.29-5.2.1-10.5.18-15.59-.71-3.66-.64-4.22-4.44-3.89-7.69.32-3.13 2.93-2.88 5.34-2.96 17.85-.61 35.7-1.27 53.55-1.98 15.7-.62 31.44-.9 47.08-2.29 4.06-.36 7.84-4.22 11.68-6.6 2.32-1.44 4.33-3.45 6.76-4.6 3.28-1.54 6.21-.12 8.31 2.53 2.73 3.45 5.27 7.06 7.74 10.71 2.32 3.42-1.49 9.15-6.19 9.22-7.66.11-15.34-.24-22.99.11-6.37.29-12.71 1.27-19.05 2.02-.57.07-1.09.67-3.09 1.98zm-18.12 115.22c.37.38.74.75 1.1 1.13 1.82-.94 3.64-1.89 5.46-2.83-.1-.58-.21-1.16-.31-1.73-1.54-.19-3.34-.95-4.52-.39-.96.46-1.18 2.49-1.73 3.82z" fill="#010103"/><g fill="#fafbfc"><path d="m361.2 9.6.8-1c.9.7 1.9 1.4 2.9 2.3l-.9 1.1c-1-1-2-1.8-2.8-2.4zm.5 10.6c.9-2.1 1.6-4.3 2.3-6.7.4.2.8.4 1.3.6-.7 2.1-1.5 4.3-2.2 6.6zm.4-15.2.9-.9c1 .8 2 1.6 2.8 2.4l-1 1c-.9-.9-1.8-1.7-2.7-2.5zm12.5-1.2h1.2v1.4h2.7v1.1h-2.7v2.7h-1.2v-.6h-1.8v1.3h4.9v3.8h-1.2v-.5h-3.7c0 .4-.1.9-.1 1.2h5.1v1h-5.2c0 .5-.1.9-.2 1.2h6v1h-5.2c1.1 1.3 2.9 2 5.5 2.3-.4.4-.7.8-.9 1.3-2.9-.5-4.8-1.6-5.7-3.5h-.1c-.8 1.7-2.7 2.9-5.9 3.6-.2-.4-.6-.8-.9-1.1 2.8-.6 4.6-1.4 5.4-2.5h-4.8v-1h5.3c.1-.3.2-.7.2-1.2h-4.9v-1h5c0-.4 0-.8.1-1.2h-3.5v.5h-1.2v-3.9h4.9v-1.3h-1.8v.5h-1.2v-2.7h-2.7v-1h2.6v-1.4h1.2v1.4h4.7v-1.4zm-6.6 8.3h3.6c0-.4 0-.9 0-1.4h-3.6zm1.9-4.6h4.7v-1.3h-4.7zm6.6 3.2h-3.7v1.4h3.7z"/><path d="m385.3 3.8h1.3v2.2h2.8v-2.2h1.3v2.2h4.1v9.1h1.7v1.3h-16.9v-1.3h1.7v-9.1h4.1v-2.2zm.4 13.1.7 1.2c-1.8.9-3.8 1.9-6 2.9-.2-.4-.5-.8-.8-1.3 2.3-1 4.3-1.9 6.1-2.8zm-3.1-6.4h2.8v-3.2h-2.8zm0 4.6h2.8v-3.3h-2.8zm4-4.6h2.8v-3.2h-2.8zm0 4.6h2.8v-3.3h-2.8zm3.7 1.9c2.1.9 4.1 1.8 6.1 2.7l-.7 1.3c-2.2-1.1-4.2-2-6.1-2.9zm3.2-9.7h-2.8v3.2h2.8zm-2.8 7.8h2.8v-3.3h-2.8z"/></g></svg>