<svg enable-background="new 0 0 400 400" viewBox="0 0 400 400" xmlns="http://www.w3.org/2000/svg"><g fill="#010103"><path d="m87.36 363.55c1.17-1.17 2.14-2.71 3.53-3.46 10.01-5.46 20.43-10.24 30.06-16.28 6.96-4.37 12.89-10.37 19.33-15.59 15.13-12.25 26.91-27.41 37.44-43.58 3.24-4.98 5.73-10.49 8.19-15.92 1.21-2.66.19-4.89-3.23-4.69-8.39.49-16.77 1.61-25.15 1.56-8.77-.05-16.62 3.15-24.79 5.34-3.61.97-6.22-.99-7.94-3.75-2.38-3.81-4.29-7.91-6.87-12.75 2.98-.62 4.96-1.4 6.92-1.36 5.77.13 11.55 1.02 17.3.81 7.37-.26 14.71-1.36 22.07-1.98 2.17-.18 4.46-.29 6.55.19 9.15 2.06 18.38 1.87 26.02-3.44 3.36-2.33 4.82-8.11 6.04-12.63 1.77-6.58 2.65-13.41 3.7-20.17.43-2.76.64-5.64.35-8.41-.43-4.13-3.01-4.98-7.76-4.64-14.6 1.04-23.66 10.58-32.84 20.3-6.97 7.38-13.99 14.82-24.5 19.32.49-1.77.48-2.99 1.09-3.7 3.77-4.43 5.03-11.05 11.6-13.11.99-.31 2.01-1.95 2.2-3.11 2.25-13.51 11.8-23.54 16.88-35.67 3.39-8.09 6.54-16.28 9.64-24.49.62-1.63.65-3.52.77-5.31.25-3.7 2.35-5.39 5.7-4.06 6.24 2.49 11.36 6.56 14.31 12.63.89 1.83.39 4.7-.27 6.85-1.27 4.16-3.84 8.03-4.53 12.24-.84 5.14 1.78 7.43 7.91 7.2 7.04-.27 14.05-1.35 21.08-1.96 4.81-.42 9.7-1.23 14.46-.81 12.33 1.07 23.29-2.39 32.51-10.14 3.67-3.08 5.62-8.3 8.11-12.69 2.5-4.39 4.11-4.38 7.29-.38 4.19 5.28 9 10.07 13.14 15.38 2.34 3.01 3.37 6.99 1.15 10.45-1.22 1.9-3.82 3.97-5.9 4.08-12.91.69-25.86.69-38.78 1.26-4.53.2-9.09 1.12-13.49 2.27-1.2.31-2.82 2.77-2.65 4.04 1.08 8.07-1.99 14.79-6.14 21.27-3.45 5.38-5.59 11.1-4.88 17.66.29 2.66.61 4.89 4.16 4.76 1.58-.06 3.17.65 4.78.92 5.81.96 7.46 2.79 7.05 8.65-.38 5.51.81 10.41 4.63 14.52 6.16 6.62 10.68 15.03 20.04 18.15 1.2.4 2.21 1.37 3.3 2.1 7.26 4.92 14.63 9.27 23.39 11.56 8.43 2.2 16.21 6.86 24.6 9.31 10.88 3.17 21.45 8.35 33.38 6.83 1.56-.2 3.3 1.07 4.96 1.66-.02.59-.03 1.18-.05 1.78-5.33 1.48-10.74 2.74-15.98 4.51-6.12 2.07-12.07 4.62-18.12 6.89-2.12.8-4.39 1.21-6.46 2.1-3.4 1.47-7.31 2.53-9.92 4.94-8.17 7.56-10.91 5.58-17.86 1.93-2.14-1.13-4.05-2.79-5.88-4.42-7.38-6.61-14.88-13.11-21.97-20.03-9.38-9.15-16.61-19.93-20.94-32.29-2.45-6.99-3.66-14.45-5.02-21.78-.73-3.96-2.35-5.31-6.5-5.53-9.99-.54-14.92 5.48-19.68 12.89-4.4 6.85-9.66 13.18-14.78 19.54-4.23 5.25-8.64 10.38-13.28 15.28-11.71 12.38-25.96 21.47-40.23 30.51-3.03 1.92-5.81 4.28-8.98 5.93-10.51 5.47-21.11 10.8-31.75 16.01-4.08 2-8.37 3.6-12.62 5.22-1.45.55-3.1.61-4.66.89-.39-.55-.81-1.07-1.23-1.6z"/><path d="m94 200.12c2.2 2.21 4.2 4.06 6.02 6.08 2.46 2.76 4.64 5.78 7.23 8.41.86.88 3.23 1.61 3.84 1.11 1.07-.89 1.82-2.77 1.8-4.23-.06-4.42-.86-8.85-.79-13.26.06-3.56-1.93-4.72-4.7-5.14-2.12-.32-4.39-.43-6.47-.02-5.64 1.11-7.11-2.32-7.91-6.72-.23-1.28-.47-2.56-.8-3.81-1.65-6.32-5.63-8.27-12.12-7.17-9.19 1.55-18.49 2.41-27.73 3.66-3.46.47-5.71-1.09-7.31-3.89-2.43-4.26-7.06-7.58-5.73-14.14 5.09 0 10.35.11 15.6-.03 8.92-.24 17.85-.49 26.75-1.05 2.87-.18 5.8-1.01 8.45-2.14 1.27-.54 2.79-2.49 2.75-3.76-.44-13.54-1-27.08-1.89-40.59-.75-11.48-1.85-22.93-3.07-34.37-.27-2.48-1.45-4.99-2.68-7.22-2.42-4.42-1.55-7.89 3.01-9.87 5.47-2.37 10.97-2.98 16.5-.04 5.85 3.11 12.72 4.86 16.41 10.93 1.28 2.11 1.48 5.14 1.44 7.73-.04 2.49-1.4 4.95-1.52 7.45-.79 16.86-1.43 33.72-2.05 50.58-.14 3.68-.44 7.43.08 11.04.66 4.51 3.2 5.26 7.53 3.5 4.59-1.87 6.04-6.04 8.38-9.73 1.34-2.11 3.37-4.71 5.51-5.19 3.62-.81 5.91 2.12 7.33 5.34.92 2.08 1.51 4.34 2.64 6.29 1.85 3.17 2.3 6.3-.13 9.14-2.83 3.31-6.1 1.22-8.82-.23-3.76-2.01-7.22-1.9-11.31-.99-7.4 1.64-9.6 7.48-9.96 13.21-.63 9.9.37 19.9.64 29.86.1 3.83.08 7.66.1 11.49.03 5.48 1.89 7.31 7.23 7.72 1.93.15 3.79 1.14 5.68 1.75-1.01 1.93-1.62 4.26-3.09 5.72-8.17 8.11-16.67 15.9-24.82 24.03-7.16 7.14-13.88 14.73-21.04 21.86-3.59 3.58-7.89 6.44-11.58 9.92-1.85 1.75-3.25 4.06-4.56 6.29-2.47 4.2-5.83 4.38-8.79.63-5.49-6.94-11.02-13.86-16.85-20.52-4.6-5.25-4.22-7.47 1.99-10.42 14.06-6.68 27.9-13.81 42.05-20.27 7.12-3.25 6.17-9.58 6.63-15.11.6-7.49.13-15.09.13-23.83zm10.62-24.13c6.15.06 9.59-3.08 9.29-8.45-.21-3.7-1.25-7.34-1.91-11.01-.73-4-3.92-4.81-6.97-4.32-3.11.5-6.57 1.51-6.07 6.2.34 3.16-.1 6-3.44 8.02-1.29.78-1.83 3.63-1.76 5.5.04.94 2.08 2.21 3.43 2.61 2.63.8 5.42 1.09 7.43 1.45zm-3.99-40.32c1.59-.81 3.17-1.64 4.77-2.42 7.6-3.73 8.75-5.89 7.61-14.12-.38-2.73-1.72-3.86-3.83-1.7-3.25 3.32-6.28 6.88-9.11 10.57-1.91 2.49-1.97 5.27.56 7.67zm11.98 11.66c.39-1.74 1.2-3.89 1.24-6.07.02-1.06-1.35-3.03-2.14-3.05-2.13-.06-4.28.69-6.43 1.13.66 1.24 1.09 2.71 2.04 3.67 1.56 1.59 3.45 2.86 5.29 4.32z"/><path d="m160.05 120.69c4.77 0 9.33.57 13.68-.12 9.82-1.55 14.02-9.5 19.69-16.66 7.18-9.05 9.56-19.87 14.56-29.64 3.29-6.41 5.63-13.65 6.64-20.76.66-4.61-1.86-9.67-3.12-15.29 1.12-.29 2.86-.97 4.66-1.17 2.14-.23 4.37.23 6.49-.1 10.52-1.69 19.12 2.9 27.59 8.09 6.47 3.96 7.12 9.6 3.16 14.79-5.18 6.8-11.31 12.89-17.04 19.27-2.91 3.24-5.75 6.56-8.78 9.69-4.56 4.73-9.24 9.33-13.88 13.98-1.29 1.3-2.79 2.45-3.83 3.93-2.4 3.44-4.62 7.3-1.77 11.31 2.47 3.48 6.12 2.78 10.12 2.22 7.35-1.04 15.32-2.61 22.21-.82 9.2 2.38 17.05-2.48 25.82-1.95 6.16.37 8.28-5.83 5.87-12.09-3.25-8.45-7.21-16.36-14.4-22.26-.62-.51-.89-1.95-.68-2.8.14-.58 1.47-1.34 2.14-1.24 3.02.48 6.22.74 8.96 1.97 13.69 6.12 27.94 11.41 39.19 21.8 4.9 4.52 9.48 9.55 13.38 14.94 2.84 3.93 2.33 14.24-3.27 20.22-2.73 2.92-5.53 5.79-8.48 8.48-7.49 6.84-19.98 4.54-24.43-4.46-2.17-4.39-4.09-8.9-6.25-13.29-1.98-4.03-4.81-5.94-9.76-4.9-5.91 1.25-12.11 1.15-17.99 2.49-5.78 1.33-11.21 4.19-16.99 5.55-7.6 1.79-15.71 1.86-23.03 4.35-8.12 2.76-16.38 3.98-24.68 5.45-1.85.33-4.07 1.06-5.22 2.38-3.09 3.55-6.25 1.88-7.99-.45-4.49-6.01-8.31-12.53-12.26-18.94-.5-.8-.19-2.15-.31-3.97z"/><path d="m256.21 252.91c5.21-1.61 10.38-3.33 15.64-4.75 1.31-.35 3.12-.15 4.29.52 5.18 2.99 7.93-.29 11.31-3.5 7.17-6.79 14.74-13.15 22.47-19.97 6.16 5.87 11.9 10.72 16.85 16.28 3.26 3.67 2.11 12.58-1.58 15.65-3.56 2.95-7.64.52-11.51.16-2.8-.26-5.63-.37-8.45-.37-6.35 0-12.69.13-19.04.16-2.99.02-5.98-.08-8.97-.09-3.78 0-7.18-.28-10.76-2.49-2.6-1.6-6.78-.64-10.25-.82-.01-.25-.01-.52 0-.78z"/></g><path d="m361.2 9.6.8-1c.9.7 1.9 1.4 2.9 2.3l-.9 1.1c-1-1-2-1.8-2.8-2.4zm.5 10.6c.9-2.1 1.6-4.3 2.3-6.7.4.2.8.4 1.3.6-.7 2.1-1.5 4.3-2.2 6.6zm.4-15.2.9-.9c1 .8 2 1.6 2.8 2.4l-1 1c-.9-.9-1.8-1.7-2.7-2.5zm12.5-1.2h1.2v1.4h2.7v1.1h-2.7v2.7h-1.2v-.6h-1.8v1.3h4.9v3.8h-1.2v-.5h-3.7c0 .4-.1.9-.1 1.2h5.1v1h-5.2c0 .5-.1.9-.2 1.2h6v1h-5.2c1.1 1.3 2.9 2 5.5 2.3-.4.4-.7.8-.9 1.3-2.9-.5-4.8-1.6-5.7-3.5h-.1c-.8 1.7-2.7 2.9-5.9 3.6-.2-.4-.6-.8-.9-1.1 2.8-.6 4.6-1.4 5.4-2.5h-4.8v-1h5.3c.1-.3.2-.7.2-1.2h-4.9v-1h5c0-.4 0-.8.1-1.2h-3.5v.5h-1.2v-3.9h4.9v-1.3h-1.8v.5h-1.2v-2.7h-2.7v-1h2.6v-1.4h1.2v1.4h4.7v-1.4zm-6.6 8.3h3.6c0-.4 0-.9 0-1.4h-3.6zm1.9-4.6h4.7v-1.3h-4.7zm6.6 3.2h-3.7v1.4h3.7z" fill="#fafbfc"/><path d="m385.3 3.8h1.3v2.2h2.8v-2.2h1.3v2.2h4.1v9.1h1.7v1.3h-16.9v-1.3h1.7v-9.1h4.1v-2.2zm.4 13.1.7 1.2c-1.8.9-3.8 1.9-6 2.9-.2-.4-.5-.8-.8-1.3 2.3-1 4.3-1.9 6.1-2.8zm-3.1-6.4h2.8v-3.2h-2.8zm0 4.6h2.8v-3.3h-2.8zm4-4.6h2.8v-3.2h-2.8zm0 4.6h2.8v-3.3h-2.8zm3.7 1.9c2.1.9 4.1 1.8 6.1 2.7l-.7 1.3c-2.2-1.1-4.2-2-6.1-2.9zm3.2-9.7h-2.8v3.2h2.8zm-2.8 7.8h2.8v-3.3h-2.8z" fill="#fafbfc"/></svg>