<svg enable-background="new 0 0 400 400" viewBox="0 0 400 400" xmlns="http://www.w3.org/2000/svg"><path d="m235.76 231.71c-2.22 6-5.14 11.85-6.52 18.04-3.9 17.53-13.09 32.34-23.82 46.1-14.73 18.88-33.3 33.53-54.06 45.41-4.96 2.84-9.83 5.81-14.79 8.64-1.31.75-2.8 1.18-4.2 1.75-.25-.4-.51-.81-.76-1.21 3.33-2.45 6.73-4.8 9.97-7.36 9.76-7.73 19.35-15.67 29.2-23.28 6.25-4.83 12.41-9.93 16.08-16.86 5.54-10.45 10.88-21.14 14.9-32.24 3.69-10.19 5.61-21.03 8.12-31.63.68-2.89-.86-4.84-3.95-5.04-2.32-.15-4.68-.21-6.99.01-7.74.73-10.44-.86-12.86-8.38-1.54-4.78-2.51-9.74-4.04-14.51-1.91-5.95-5.94-7.31-10.33-3.23-6.63 6.17-12.61 13.06-19.38 19.07-5.3 4.7-11.38 8.52-17.11 12.73-.7-.57-1.39-1.15-2.09-1.72 1.51-3.05 2.33-6.81 4.63-9.02 11.68-11.24 19.48-25.02 26.86-39.14 4.39-8.41 8.97-16.72 13.07-25.27 2.16-4.51 3.67-9.37 5.1-14.18 1.09-3.65-1.24-6.26-5.18-6.38-.67-.02-1.33 0-2 0-12.7-.01-19.42-7.5-18.28-20.77 6.33.32 12.74.26 19.04 1.04 13.3 1.66 26.63 2.96 39.86.39 2-.39 4.45-4.87 4.55-7.53.5-13.86 1.1-27.84-2.55-41.4-1.69-6.28-4.69-12.21-7.3-18.83 6.44-7.35 15.19-9 26.24-4.31 4.63 1.96 9.48 3.42 14.01 5.58 5.27 2.51 8.78 6.75 9.74 12.66.22 1.36.06 3.15-.68 4.24-7.9 11.69-10.79 24.92-12.27 38.63-.16 1.44-.63 2.85-.9 4.28-.82 4.37 2.55 8.85 6.87 9 10.93.37 21.88.33 32.78 1.15 6.12.46 10.37-2.21 14.5-5.87.5-.44.9-1 1.42-1.4 4.27-3.21 8.56-6.39 12.84-9.59 5.87 4.12 12.64 7.45 17.23 12.69 2.27 2.59 1.26 8.83.42 13.16-.77 3.95-5 2.81-8 2.84-8.33.08-16.66-.08-24.99.09-2.32.05-4.61.9-8.63 1.74 3.49 3.48 5.63 6.01 8.17 8.06 3.91 3.15 4.55 6.41 2.19 10.82-3.49 6.53-6.86 13.14-9.96 19.87-2.51 5.46.87 12.53 7.86 17.35 6.44 4.44 13.21 8.4 19.6 12.9 8.21 5.78 8.95 14.67 2.2 22.14-1.98 2.2-3.63 4.74-5.81 6.71-7.76 7-14.4 5.84-19.12-3.56-3.81-7.57-7.27-15.33-10.55-23.15-3.63-8.64-9.02-10.1-15.25-3.07-4.4 4.97-8.04 10.71-11.35 16.48-1.18 2.05-.51 5.22-.52 7.88-.04 9.23 6.29 15.71 9.96 23.38 5.19 10.83 14.2 17.91 22.94 25.31 5.8 4.91 11.45 10.37 18.09 13.85 16.31 8.54 31.75 19.1 50.14 23.23 1.68.38 3.24 1.34 6.43 2.7-3.54 2.24-5.79 4.52-8.46 5.19-8.03 2.02-16.25 3.23-24.32 5.11-6.62 1.55-13.12 3.59-19.66 5.44-2.8.79-5.54 1.94-8.39 2.4-1.42.23-3.39-.29-4.49-1.21-13.46-11.27-24.7-24.53-35.35-38.46-8.46-11.07-15.07-22.8-18.47-36.3-2.18-8.67-4.16-17.38-6.43-26.02-.64-2.44-2-4.69-3.03-7.02-.72-.03-1.44-.08-2.17-.12zm28.9-92.87c-.14.39-.29.77-.43 1.16-2 0-4-.06-6 .01-9.42.31-13.13 3.68-14.23 13.02-.48 4.08-.91 8.17-1.13 12.27-.38 7.3-1.44 14.7-.6 21.87.7 5.99 3.27 11.9 5.79 17.5 2.57 5.73 5.86 5.82 9.81.96 1.03-1.27 2.11-2.55 2.83-4 8.11-16.27 13.87-33.38 17.35-51.2.44-2.26-.8-6.03-2.56-7.28-3.08-2.18-7.16-2.95-10.83-4.31zm-44.66 23.78c-.18-.01-.37-.02-.55-.04-.5-6.07-.79-12.16-1.65-18.17-.18-1.29-2.36-3.16-3.73-3.25-5.46-.37-10.97-.17-16.46-.15-3.8.02-4.92 2.58-4.24 5.58.71 3.12 2.24 6.07 3.52 9.04 2.67 6.21 3.68 12.16-1.57 17.73-1.54 1.63-2.74 3.66-3.79 5.67-3.36 6.42-3.37 11.11 1.67 16.42 4.24 4.46 9.66 7.77 14.37 11.82 2.86 2.47 6.07 3.1 8.69.8 1.9-1.67 3.5-4.74 3.57-7.23.36-12.73.17-25.48.17-38.22z" fill="#010103"/><path d="m37.36 169.59c9.77.47 18.61 1.03 27.47 1.27 8.16.22 16.38.71 24.46-.09 5.2-.52 6.33-5.93 6.59-10.29.68-10.9.68-21.85 1.14-32.77.56-13.53 1.44-27.05 1.9-40.58.14-4.24.3-8.87-1.2-12.68-1.61-4.09-5.13-7.45-7.88-11.08-2.23-2.95-1.52-5.24 2.1-6.3 4.52-1.32 9.02-2.78 13.61-3.8 6.37-1.42 10.3 2.96 14.42 6.65 12.08 10.79 7.42 23.71 4.91 36.58-2.37 12.16-4.19 24.45-5.81 36.73-1.09 8.31-1.54 16.71-2.03 25.09-.27 4.56.44 9.63 4.99 11.41 5.02 1.96 10.51 3.04 15.64-1.58 2.68-2.41 4.91-4.74 6.9-7.75 1.22-1.85 4.91-3.52 6.9-3 1.91.5 4.48 4.11 4.24 6.04-.61 4.88-1.88 10.05-4.42 14.17-1.19 1.92-5.88 1.82-9.03 2.36-6.6 1.13-13.23 2.04-19.84 3.09-4.82.76-7.04 3.68-7.38 10.37-.48 9.42-.46 18.87-1.11 28.28-.68 9.81-2.06 19.57-2.8 29.37-.4 5.33-.47 10.74-.01 16.05.4 4.55 4.65 4.99 7.92 4.75 7.65-.58 15.3-1.58 22.85-2.95 6.22-1.13 12.26-3.25 18.47-4.49 1.99-.4 4.27.6 6.41.96-1.37 1.56-2.44 3.81-4.16 4.57-13.99 6.17-28.11 12.07-42.19 18.05-.45.19-.94.27-1.39.47-15.09 6.53-30.2 13-45.24 19.63-11.72 5.17-11.52 5.16-17.7-5.49-2.77-4.77-6.43-9.02-9.54-13.61-2.63-3.88-2.2-5.64 2.47-6.39 7.91-1.28 15.96-2.54 23.94-2.44 14.67.18 18.42-7.76 18.87-18.67.88-21.07.88-42.18 1.14-63.28.13-10.51-1.05-11.51-11.65-11.23-3.86.1-7.75-.29-11.57.1-4.53.45-9.04 1.31-13.49 2.32-7.35 1.67-12.36-1.27-14.39-8.34-1-3.57-2.67-6.91-4.51-11.5z" fill="#010103"/><g fill="#fafbfc"><path d="m361.2 9.6.8-1c.9.7 1.9 1.4 2.9 2.3l-.9 1.1c-1-1-2-1.8-2.8-2.4zm.5 10.6c.9-2.1 1.6-4.3 2.3-6.7.4.2.8.4 1.3.6-.7 2.1-1.5 4.3-2.2 6.6zm.4-15.2.9-.9c1 .8 2 1.6 2.8 2.4l-1 1c-.9-.9-1.8-1.7-2.7-2.5zm12.5-1.2h1.2v1.4h2.7v1.1h-2.7v2.7h-1.2v-.6h-1.8v1.3h4.9v3.8h-1.2v-.5h-3.7c0 .4-.1.9-.1 1.2h5.1v1h-5.2c0 .5-.1.9-.2 1.2h6v1h-5.2c1.1 1.3 2.9 2 5.5 2.3-.4.4-.7.8-.9 1.3-2.9-.5-4.8-1.6-5.7-3.5h-.1c-.8 1.7-2.7 2.9-5.9 3.6-.2-.4-.6-.8-.9-1.1 2.8-.6 4.6-1.4 5.4-2.5h-4.8v-1h5.3c.1-.3.2-.7.2-1.2h-4.9v-1h5c0-.4 0-.8.1-1.2h-3.5v.5h-1.2v-3.9h4.9v-1.3h-1.8v.5h-1.2v-2.7h-2.7v-1h2.6v-1.4h1.2v1.4h4.7v-1.4zm-6.6 8.3h3.6c0-.4 0-.9 0-1.4h-3.6zm1.9-4.6h4.7v-1.3h-4.7zm6.6 3.2h-3.7v1.4h3.7z"/><path d="m385.3 3.8h1.3v2.2h2.8v-2.2h1.3v2.2h4.1v9.1h1.7v1.3h-16.9v-1.3h1.7v-9.1h4.1v-2.2zm.4 13.1.7 1.2c-1.8.9-3.8 1.9-6 2.9-.2-.4-.5-.8-.8-1.3 2.3-1 4.3-1.9 6.1-2.8zm-3.1-6.4h2.8v-3.2h-2.8zm0 4.6h2.8v-3.3h-2.8zm4-4.6h2.8v-3.2h-2.8zm0 4.6h2.8v-3.3h-2.8zm3.7 1.9c2.1.9 4.1 1.8 6.1 2.7l-.7 1.3c-2.2-1.1-4.2-2-6.1-2.9zm3.2-9.7h-2.8v3.2h2.8zm-2.8 7.8h2.8v-3.3h-2.8z"/></g></svg>