<svg enable-background="new 0 0 400 400" viewBox="0 0 400 400" xmlns="http://www.w3.org/2000/svg"><path d="m374.8 390.4.4-.4c.7.5 1.3 1 1.8 1.4l-.5.5c-.5-.6-1.1-1.1-1.7-1.5zm1 7.3-.6-.3c.5-1.4 1.1-2.8 1.5-4.3.2.1.4.2.6.3-.5 1.3-1 2.8-1.5 4.3zm-.4-10.3.5-.4c.4.3 1 .8 1.7 1.4l-.5.5c-.5-.5-1.1-1-1.7-1.5zm2.5.3h1.7v-1h.6v1h3.5v-1h.6v1h1.8v.5h-1.8v1.4h-2v1h3.2v2h-3.2v.9h3.3v.5h-3.4c0 .3-.1.6-.1.9h4v.5h-3.7c.7.9 1.9 1.5 3.8 1.7-.1.2-.2.4-.3.6-2.1-.4-3.5-1.1-4-2.1-.4 1-1.8 1.7-4 2.2-.1-.2-.2-.4-.3-.6 2.1-.4 3.4-1 3.8-1.8h-3.4v-.5h3.6c.1-.3.1-.6.2-.9h-3.3v-.5h3.4c0-.3 0-.6 0-.9h-3.2v-2h3.3v-1h-2.1v-1.4h-1.7v-.5zm1.1 3.5v1h2.7c0-.3 0-.4 0-.4 0-.1 0-.2 0-.2 0-.1 0-.2 0-.3h-2.7zm1.2-3v.9h3.5v-.9zm4.7 3h-2.6v.6.4h2.6z" fill="#fcfbfa"/><path d="m393.6 386.7h.6v1.5h2.7v6.1h1.1v.6h-11v-.6h1.1v-6.1h2.7v-1.5h.6v1.5h2.1v-1.5zm-2.7 8.8.4.6c-1.2.6-2.5 1.3-3.8 1.9-.1-.2-.2-.4-.3-.6 1.2-.6 2.5-1.2 3.7-1.9zm-2.2-6.7v2.4h2.1v-2.4zm0 3v2.5h2.1v-2.5zm2.8-3v2.4h2.1v-2.4zm0 3v2.5h2.1v-2.5zm6 6.1c-1.4-.7-2.7-1.3-3.9-1.8l.3-.6c1.5.6 2.7 1.2 3.9 1.7zm-1.2-9.1h-2.1v2.4h2.1zm-2.1 3v2.5h2.1v-2.5z" fill="#fcfbfa"/><g fill="#010103"><path d="m56.58 218.89c3.35-1.01 6.36-2.61 9.42-2.69 7.46-.2 14.94.31 22.41.53 1.64.05 3.51.6 4.89.01 8.41-3.58 17.27-3.92 26.13-3.62 4.42.15 6.63-1.64 7.25-5.53.97-6.13 2.01-12.31 2.22-18.49.23-6.92-4.13-10.02-10.96-9.21-10.27 1.22-20.59 1.98-30.86 3.15-6.64.76-13.25 1.85-19.85 2.9-3.29.52-10.22-4.46-10.08-7.71.05-1.09 1.26-2.74 2.28-3.07 2.29-.74 4.79-.92 7.22-1.14 7.85-.72 15.73-1.17 23.56-2.09 5.8-.69 7.8-3.37 7.81-9.23 0-4.67-.22-9.34.06-13.99.29-4.8-2.27-6.69-6.43-6.64-7.1.1-14.19.81-21.29.85-7.59.04-14.94-1.4-18.45-11.57 3.43-.8 6.72-2.12 10.07-2.25 8.49-.32 17.01.25 25.48-.19 13.31-.69 26.6-1.83 39.88-2.99 4.88-.43 8.9-4.19 9.58-9.17.58-4.29.48-8.7.3-13.05-.15-3.69-2.54-4.88-6.12-4.75-12.43.45-24.9.23-37.28 1.2-9.69.75-15.8-6.09-18.89-14.86 3.64-.2 7.03-.54 10.42-.56 8.98-.04 17.96.18 26.93.08 5.61-.06 11.21-.62 16.82-.79 6.52-.19 9.81-4.8 6.98-10.51-1.85-3.73-4.33-7.18-6.73-10.61-2.05-2.91-4.13-5.46.83-7.66 3.27-1.46 6.23-3.63 9.52-5.03 4.06-1.73 8.24-2.04 12.17.74 3.86 2.73 7.91 5.21 11.63 8.12 2.04 1.6 2.62 3.46-.32 5.45-3.31 2.24-4.37 8.87-2.58 12.56 1.61 3.32 7.65 4.15 12.29 1.41 2.1-1.24 3.91-2.99 5.75-4.62 3.22-2.86 6.45-3 9.63-.09 4.32 3.95 7.95 8.2 7.83 14.66-.07 4.06-1.74 5.34-5.7 5.65-7.97.64-15.91 1.75-23.82 2.95-4.22.64-6.26 3.35-5.56 7.77.05.33.03.67 0 1-1.39 16.13 6.3 15.89 19.16 14.73 6.24-.56 9.56-4.33 12.85-8.66 3.21-4.22 5.08-4.37 8.86-.53.35.36.86.65 1.03 1.08 1.31 3.37 2.56 6.76 3.82 10.14-3.26 1.14-6.48 2.46-9.81 3.37-6.4 1.74-13.03 2.8-19.26 4.98-4.56 1.6-4.77 3.74-1.8 7.38 3.81 4.68 5.17 9.62 2.01 15.19-.16.29-.53.55-.53.82-.07 2.77-.08 5.54-.11 8.3 3.53-.33 7.24-.14 10.53-1.21 1.85-.6 3.09-3.25 4.48-5.07 2.66-3.48 6.7-4.3 9.47-.92 2.92 3.55 5.1 7.83 6.97 12.06 1.15 2.61-2.54 6.05-6.46 5.38-15.1-2.58-29.48 3.67-44.41 3.31-3.64-.09-7.98 1.24-7.88 6.75.12 7.01-.27 14.06.39 21.02.17 1.82 3.31 4.62 5.28 4.8 9.43.84 18.68.01 26.51-6.36 3-2.44 5.39-1.72 6.86 1.88.31.75.61 1.51.85 2.28 3.44 10.89 4.04 10.54-8.12 13.19-7.97 1.73-16.34 1.71-24.55 2.19-5.52.33-6.95 1.4-7.12 6.97-.13 4.16-.16 8.34 0 12.49.34 8.9-4.75 14.39-11.75 18.41-5 2.87-10.4.4-11.11-5.35-.91-7.35-1.24-14.83-1.02-22.23.15-5.19-1.54-6.92-6.53-6.28-9.42 1.22-18.86 2.4-28.31 3.33-7.7.76-15.46 1.82-23.14 1.48-6.31-.23-8.93-5.85-11.6-11.84zm102.29-80.88c-12.71 0-23.82-.5-34.87.14-11.44.66-13.65 4.63-9.99 15.4.05.15 0 .34.06.49 4.26 11.83 9.76 16.14 20.38 15.96 15.55-.27 18.32-2.1 22.16-16.4 1.39-5.17 1.58-10.67 2.26-15.59z"/><path d="m341.12 186.51c.63 5.18 1.81 10.36 1.75 15.53-.09 7.91 1.69 15.22 4.85 22.33.46 1.04 1.03 2.08 1.22 3.18 1.42 8.32.43 9.22-8.11 9.49-16.37.51-32.72 1.38-49.09 1.88-3.4.1-6.93-.36-10.23-1.23-6.29-1.65-9.38-6.06-9.48-13.02-.11-7.49.01-14.99-.05-22.49-.01-1.44-.19-2.95-.65-4.31-1.04-3.12-2.66-3.88-5.42-1.36-5.66 5.16-5.81 5.08-11.16-.26-1.77-1.77-3.42-3.66-5.34-5.26-5.23-4.36-10.71-2.45-13.54 3.43-6.57 13.69-13.15 27.48-24.22 38.36-1.26 1.24-2.78 2.47-4.41 3.02-1.58.54-3.47.2-5.22.25.12-1.97-.51-4.52.48-5.84 10.49-13.98 16.51-30.05 21.99-46.36 1.91-5.67 5.53-11.33 1.99-17.69-1.35-2.42-2.49-5-4.12-7.21-2.72-3.66-5.76-7.09-8.76-10.72 3.02-3.85 6.81-2.2 9.93-2.12 7.63.2 11.33-1.94 13.33-9.02.88-3.12 1.52-6.33 2.06-9.54.68-4.06-1.51-6.51-5.67-6.57-2.5-.03-5 .08-7.5-.03-4.69-.21-10.43-9.7-7.45-13.1 1.76-2 5.77-2.64 8.81-2.76 8.47-.32 13.24-3.07 13.98-11.07.16-1.74 1.33-3.4 1.4-5.13.24-6.46.86-13 .11-19.37-.8-6.77-6.2-10.82-11.29-14.84-1.46-1.15-2.18-3.24-3.24-4.9 1.63-.96 3.15-2.25 4.91-2.82 12.76-4.15 24.89-2.98 36.15 4.66 2.16 1.46 4.3 2.95 6.71 4.62-.84 6.18-5.91 9.76-9.06 14.51-.94 1.42-1.5 3.24-1.75 4.95-.65 4.37-1.27 8.78-1.42 13.19-.1 2.96-.47 7.01 1.19 8.69 2.86 2.9 7.68 3.99 11.4 1.47 4.92-3.34 9.45-7.37 13.67-11.59 7.89-7.89 8.14-6.23 16.35-1.62 3.39 1.9 6.48 4.51 9.28 7.23 3.55 3.44 3.44 7.24.01 10.85-3.6 3.79-8.26 6.89-10.88 11.23-3.09 5.13-5.24 11.13-6.48 17.02-2.56 12.2-4.48 24.48-4.36 37.11.08 8.29-1.84 16.58-2.69 24.9-.25 2.45-.24 5.04.23 7.44 1.5 7.6 8.43 6.18 13.38 7.12 4.98.95 10.64 1.34 15.35-.13 4.11-1.29 7.84-5.07 10.76-8.57 3.49-4.18 5.93-9.23 8.83-13.9.49.16.98.27 1.47.37zm-71.52-71.73c-.22.41-.44.81-.66 1.22-7.64 0-11.49 2.6-13.92 9.68-1.04 3.05-1.81 6.2-2.52 9.35-1.89 8.39-3.8 16.79-5.48 25.23-1.58 7.93-.14 10.25 7.1 13.37 3.57 1.54 6.87 3.72 10.48 5.13 2.6 1.01 7.04 2.6 7.99 1.54 2.74-3.06 4.22-7.28 5.98-11.14.54-1.19.75-2.75.51-4.03-.48-2.53-1.97-4.97-1.97-7.46-.01-6.59.5-13.18.95-19.76.08-1.24.62-2.6 1.35-3.62 3.56-4.98 1.65-10.16-.75-14.28-1.52-2.62-5.94-3.54-9.06-5.23z"/><path d="m81.48 338.67c9.57 0 18.16.13 26.74-.08 2.63-.06 5.24-1.54 7.85-1.51 12.62.14 25.24.95 37.86.78 8.01-.1 16-1.54 24.01-2.27 2.22-.2 4.47-.03 7.53-.03 3.87-4.69 6.15-10.98 5.63-18.48-.47-6.65.04-13.37-.15-20.04-.11-3.79-2.26-5.21-6.23-5.12-19.43.46-38.82 1.11-57.96 4.97-3.53.71-7.2.66-10.78 1.12-5.63.73-10.15-.59-13.97-5.29-2.85-3.52-6.78-6.16-11.52-10.32 3.07-.67 4.75-1.35 6.43-1.36 15.99-.08 32 .34 47.97-.17 13.81-.44 27.59-1.84 41.38-2.93 5.56-.44 5.2-5.17 5.62-8.83.45-3.95.08-7.98.11-11.98.07-9.09 5.39-12.87 13.77-9.81 8.48 3.09 11.27 7.01 11.21 16.04-.08 12.35-.77 11.74 11.56 11.63 4.16-.04 8.36-.35 12.49.06 9.4.94 17.07-3 24.95-7.37 12.32-6.84 13.47-7.74 25.65.31 4.28 2.83 9.07 4.97 13.78 7.08 3.84 1.72 4.83 4.85 4.46 8.37-.39 3.82-3.62 3.52-6.52 3.57-16.26.28-32.53.48-48.78 1.04-9.04.31-18.08 1.03-27.07 2-8.31.9-12.24 5.1-12.41 13.49-.14 7.08.33 14.2.98 21.26.55 5.9 6.33 9.9 12.3 9.18 6.02-.72 12.07-1.99 18.07-1.86 14.04.32 26.37-4.41 38.19-11.3 4.74-2.77 14.07-2.25 16.91.46 3.91 3.72 7.99 7.26 11.98 10.89 2.55 2.32 4.17 4.55 2.73 8.58-1.21 3.39-2.9 4.32-6.11 4.28-8.99-.1-17.99-.13-26.99-.02-21.93.28-43.86.38-65.77 1.06-19.64.62-39.31 1.35-58.88 3.1-16.25 1.45-32.36 4.55-48.55 6.69-5.65.75-11.45 2.4-15.86-3.96-2.33-3.35-6.62-5.29-9.73-8.18-1.31-1.22-1.89-3.25-2.88-5.05z"/></g></svg>