<svg enable-background="new 0 0 400 400" viewBox="0 0 400 400" xmlns="http://www.w3.org/2000/svg"><path d="m374.8 390.4.4-.4c.7.5 1.3 1 1.8 1.4l-.5.5c-.5-.6-1.1-1.1-1.7-1.5zm1 7.3-.6-.3c.5-1.4 1.1-2.8 1.5-4.3.2.1.4.2.6.3-.5 1.3-1 2.8-1.5 4.3zm-.4-10.3.5-.4c.4.3 1 .8 1.7 1.4l-.5.5c-.5-.5-1.1-1-1.7-1.5zm2.5.3h1.7v-1h.6v1h3.5v-1h.6v1h1.8v.5h-1.8v1.4h-2v1h3.2v2h-3.2v.9h3.3v.5h-3.4c0 .3-.1.6-.1.9h4v.5h-3.7c.7.9 1.9 1.5 3.8 1.7-.1.2-.2.4-.3.6-2.1-.4-3.5-1.1-4-2.1-.4 1-1.8 1.7-4 2.2-.1-.2-.2-.4-.3-.6 2.1-.4 3.4-1 3.8-1.8h-3.4v-.5h3.6c.1-.3.1-.6.2-.9h-3.3v-.5h3.4c0-.3 0-.6 0-.9h-3.2v-2h3.3v-1h-2.1v-1.4h-1.7v-.5zm1.1 3.5v1h2.7c0-.3 0-.4 0-.4 0-.1 0-.2 0-.2 0-.1 0-.2 0-.3h-2.7zm1.2-3v.9h3.5v-.9zm4.7 3h-2.6v.6.4h2.6z" fill="#fcfbfa"/><path d="m393.6 386.7h.6v1.5h2.7v6.1h1.1v.6h-11v-.6h1.1v-6.1h2.7v-1.5h.6v1.5h2.1v-1.5zm-2.7 8.8.4.6c-1.2.6-2.5 1.3-3.8 1.9-.1-.2-.2-.4-.3-.6 1.2-.6 2.5-1.2 3.7-1.9zm-2.2-6.7v2.4h2.1v-2.4zm0 3v2.5h2.1v-2.5zm2.8-3v2.4h2.1v-2.4zm0 3v2.5h2.1v-2.5zm6 6.1c-1.4-.7-2.7-1.3-3.9-1.8l.3-.6c1.5.6 2.7 1.2 3.9 1.7zm-1.2-9.1h-2.1v2.4h2.1zm-2.1 3v2.5h2.1v-2.5z" fill="#fcfbfa"/><path d="m51.38 354.24c5.82-4.73 11.47-9.71 17.51-14.14 7.14-5.24 14.28-10.19 18.99-18.15 2.29-3.87 6.52-6.59 9.8-9.89 6.05-6.08 12.64-11.73 17.94-18.41 7.7-9.69 15.61-19.53 21.32-30.41 6.64-12.67 13.96-25.36 15.25-40.33.49-5.72 3.19-11.22 4.28-16.94 1.38-7.23.87-14.47-3.53-20.69-1.17-1.65-3.94-3.24-5.84-3.09-7.15.54-14.22 2.1-21.37 2.75-12.26 1.12-24.19 3.46-35.66 8-.3.12-.68.02-.99.13-10.73 3.81-10.98 3.93-15.59-6.24-3.62-8-5.98-16.56-12.73-22.89-1-.94-.81-3.89-.18-5.53.33-.87 2.85-1.4 4.29-1.26 7.98.81 15.91 2.16 23.9 2.78 8.57.67 17.2 1.08 25.8.97 6.54-.09 13.06-1.51 19.61-1.73 5.42-.18 10.88.34 16.29.89 4.31.44 6.51-1.57 7.53-5.39 2.99-11.23 3.84-22.57 1.86-34.1-.8-4.67-1.42-9.4-1.78-14.13-.52-6.75-.6-13.54-1.09-20.29-.47-6.4-4.45-9.33-10.81-8.07-16.29 3.22-32.47 7.32-48.9 9.5-11.39 1.51-21.61 5.81-32.2 9.39-4.82 1.63-7.66.65-8.68-4.45-1.41-7.02-5.67-11.91-10.13-17-1.61-1.84-1.85-4.87-2.63-7.12 9.45.23 17.61.35 25.76.65 2.77.1 5.53.95 8.28.89 6.29-.13 12.58-.54 18.87-.97 8.54-.58 17.06-1.44 25.6-1.9 5.32-.29 10.66-.03 16-.06 6.4-.04 12.78.57 18.85-2.76 2.4-1.31 5.78-1.33 8.67-1.16 17.93 1.04 35.44-4.05 53.18-3.79 15.56.23 30.02-5.2 45.21-6.32.76-.06 1.52-.46 2.23-.8 3.9-1.85 7.65-4.15 11.71-5.53 9.33-3.16 13.06-2.04 19.15 6.13 3.98 5.35 7.56 11.08 10.59 17 .98 1.92.31 5.32-.73 7.49-1.42 2.95-4.43 4.83-7.89 3.61-18.42-6.49-38.05-5.77-56.89-9.77-6.05-1.28-12.39-2.22-18.52-1.89-11.16.59-22.27 2.25-33.39 3.47-.19.68-.38 1.37-.57 2.05 1.13 1.28 2.08 2.82 3.44 3.78 3.33 2.34 6.94 4.26 10.26 6.61 3.49 2.48 3.89 8.81.99 11.99-3.61 3.95-7.52 7.67-10.72 11.92-1.56 2.08-2.33 5.1-2.55 7.77-.9 10.68-1.38 21.4-2.13 32.09-.33 4.65 1.42 6.06 6.24 6.25 16.27.65 32.19-1.99 48.19-4.1 3.25-.43 6.67-.18 9.76-1.11 6-1.81 12.16-3.59 17.61-6.55 6.69-3.63 15.2-3.63 19.88 4.48 4.31 7.46 7.86 14.56 5.41 23.49-1.19 4.33-8.94 9.06-13.85 7.16-10.85-4.22-22.21-3.8-33.49-4.59-9.15-.64-18.27-1.75-27.37-2.88-4.36-.54-9.04 2.44-9.05 7.92 0 6.92.35 14.39 2.92 20.64 4.88 11.85 11.16 23.17 17.47 34.37 2.32 4.13 6.26 7.4 9.67 10.85 17.87 18.04 35.93 35.76 59.47 46.71 9.72 4.52 18.76 10.48 28.31 15.4 5.3 2.73 11 4.69 16.58 6.85.74.28 1.86-.61 2.75-.5 2.2.28 4.82.23 6.42 1.44 1.53 1.15 3.26 4.81 2.7 5.46-1.77 2.05-4.98 4.87-6.92 4.4-8.49-2.06-16.39.32-24.46 1.8-1.28.24-2.61.3-3.87.64-4.8 1.29-10.14 1.72-14.27 4.17-9.1 5.39-17.91 5.38-26.72.42-6.09-3.43-11.91-7.44-17.45-11.7-9.49-7.29-19.03-14.59-27.84-22.67-3.91-3.59-6.11-9.06-9.08-13.68-4.19-6.53-8.42-13.04-12.54-19.62-1.02-1.63-1.84-3.42-2.52-5.22-2.87-7.57-7.17-14.99-8.14-22.8-1.53-12.35-.72-24.99-1.06-37.5-.17-6.4-.44-12.83-1.27-19.17-.19-1.43-2.72-3.08-4.5-3.67-7.24-2.42-13.52 2.59-14.09 10.03-.79 10.27-2.36 20.48-3.56 30.72-.44 3.74-1 7.48-1.15 11.24-.32 7.67-4.73 13.5-8.76 19.37-7.57 11.05-15.3 22.01-23.42 32.67-8.87 11.64-17.92 23.13-29.44 32.47-8.75 7.09-16.62 15.3-25.53 22.16-8.34 6.42-17.51 11.78-26.4 17.48-2.6 1.67-5.39 3.14-8.26 4.26-1.56.61-3.47.3-5.23.4-.3-.72-.55-1.44-.8-2.15z" fill="#010103"/></svg>