<svg enable-background="new 0 0 400 400" viewBox="0 0 400 400" xmlns="http://www.w3.org/2000/svg"><path d="m185.91 302.05c-5.69-2.18-10.71-4-15.66-6.02-10.81-4.4-15.6-4.69-22.68 3.99-7.41 9.09-17.43 12.67-28.45 13.67-2.88.26-7.14-1.53-8.77-3.8-2.49-3.5-.09-9.84 3.6-11.26 9.42-3.61 15.08-11.63 22-18.17 1.05-.99 1.9-2.27 2.56-3.56 3.13-6.04.34-11.19-6.5-10.76-13.25.83-26.49 2.13-39.66 3.78-9.86 1.24-19.59 3.5-29.43 5-3.91.6-8.23.83-9.23-4.67-1.13-6.17-4.25-11.19-8.43-15.73-.71-.77-.88-2.02-1.57-3.72 2.12-.31 3.83-.84 5.51-.74 9.87.56 19.72 1.38 29.59 1.89 5.01.26 10.04.16 15.06.02 9.44-.25 18.87-.95 28.3-.86 5.86.05 11.75 1.99 17.55 1.7 8.81-.45 18.49 1.35 24.9-7.82 5.34-7.63 11.35-14.79 16.97-22.22.75-1 1.02-2.38 1.43-3.62 1.45-4.4.33-5.98-4.3-6.15-18.08-.7-35.57 2.77-52.86 7.58-1.57.44-3.12.96-4.7 1.3-8.47 1.83-17.88-7.44-16.02-15.99.25-1.14 2.07-2.59 3.32-2.75 7-.91 14.03-1.8 21.07-2.07 14.26-.57 28.53-.69 42.8-1.1 5.27-.15 9.82-3.39 10.77-8.68.93-5.16 1.11-10.58.72-15.82-.29-3.94-3.27-6.66-7.47-6.4-13.14.8-26.3 1.51-39.37 2.97-13.95 1.56-27.82 3.87-41.7 6-4.95.76-9.81 2.58-14.74 2.71-2.65.07-6.2-1.79-7.86-3.92-2.76-3.55-4.54-7.94-6.32-12.15-1.37-3.25-.02-5.77 3.69-5.56 3.73.2 7.42 1.73 11.13 1.8 13.16.23 26.36.6 39.49-.04 15.93-.77 31.81-2.52 47.71-3.81 1.66-.13 3.33-.05 5-.06 4.55-.03 9.03-.54 11.22-5.25 2.41-5.18 2.14-10.41.2-14.24-8.86-.46-16.56-1.27-24.24-1.13-6.83.13-13.64 1.23-20.44 2.08-4.52.56-8.98 1.84-13.5 2.05-3.34.15-6.6-1.3-7.42-5.17-.64-3.02-.94-6.13-1.18-9.22-.28-3.53 1.51-5.44 5.04-5.06 4.37.47 8.78 2.16 13.04 1.78 9.91-.89 19.74-2.66 29.59-4.18 4.98-.77 9.95-1.66 14.89-2.69 4.68-.97 8.36-6.26 7.41-12.24-.81-5.13-5.03-8.76-10.75-8.69-18.12.21-35.85 2.61-53.07 8.73-4.21 1.5-9.26 1.77-13.73 1.16-6.41-.88-11.65-9.47-10.06-15.45.34-1.29 1.99-2.91 3.28-3.17 5.1-1.03 10.33-2.35 15.46-2.15 15.96.61 31.41-1.34 46.62-6.32 5.35-1.75 11.19-2.3 16.86-2.7 4.59-.33 7.17-3.1 7.17-6.67.01-8.17-.45-16.46-1.96-24.47-.93-4.89-3.44-9.85-10.11-10.34-1.33-.1-3.22-2.83-3.42-4.51-.14-1.17 2.11-2.71 3.44-3.92.39-.35 1.32-.32 1.94-.18 13.14 2.89 27.26 1.02 39.54 8.05 1.97 1.13 3.84 2.56 5.47 4.14 3.77 3.67 4.07 8.13.1 11.35-7.15 5.81-8.15 13.48-7.74 21.77.23 4.74 4.29 8.47 11.75 8.44 11.35-.05 22.71-1.15 34.01-2.28 2.72-.27 5.38-2.19 7.86-3.7 12.88-7.85 24.9-4.68 33.71 6.37 1.34 1.68 1.43 5.57.4 7.58-1.01 1.98-4.15 4.03-6.38 4.06-22.66.29-45.33.13-67.99.23-3.93.02-8.24-.24-11.65 1.26-2.61 1.15-4.86 4.61-5.91 7.53-3.29 9.12.58 18.88 8.53 20.68 5.09 1.15 10.65.56 15.97.27 5.06-.27 10.1-1.79 15.11-1.63 6.37.21 11.11-2.46 15.37-6.51 7.17-6.81 7.01-6.7 15.74-1.78 3.01 1.7 6.79 1.98 9.99 3.42 6.34 2.85 10.21 9.08 2.75 15.11-4.67 3.78-5.81 10.05-2.94 15.1 2.36 4.14 6.85 5.84 11.46 5.41 9.1-.85 18.2-1.95 27.2-3.55 4.52-.8 8.79-.02 11.21 3.05 2.08 2.64 2.99 7.12 2.6 10.58-.54 4.75-6.65 6.18-12.74 5.72-10.58-.8-21.26-.89-31.87-.5-5.42.2-8.8 5.76-9.26 11.66-.7 8.97-1.6 17.94-2.91 26.84-1.39 9.45-8.42 14.22-16.32 17.96-1.32.62-2.8.9-4.16 1.46-4.85 1.97-9.41.82-10.26-3.95-1.71-9.57-8.57-9.92-15.69-10.12-7.99-.22-16-.12-24 0-2.09.03-4.24.4-6.24 1.02-4.75 1.48-5.76 4.92-2.77 8.97 1.17 1.58 2.31 3.22 3.7 4.58 3.95 3.85 2.26 6.9-1.18 9.77-1.51 1.26-3.47 2.17-4.55 3.71-1.49 2.13-3.9 5.72-3.15 6.87 1.7 2.6 4.96 5.48 7.84 5.77 9.02.92 18.07.43 26.29-4.47 1.27-.76 3.54-.92 4.87-.32 5.31 2.42 10.43 5.25 15.62 7.92 5.28-4.21 11.29-4.14 17.68-3.66 7.43.56 14.93.21 22.4.21.81 0 1.65-.51 2.41-.38 9.9 1.63 16.92-3.6 23.67-9.7 4.94-4.46 8.53-4.84 13.94-.64 5.71 4.43 11.25 9.21 16.18 14.47 1.49 1.6 1.41 5.5.8 8.05-1.01 4.23-4.86 5.89-8.79 5.67-7.36-.41-14.7-1.38-22.03-2.26-9.59-1.14-19.13-2.72-28.74-3.53-6.47-.55-13.03-.15-19.55-.06-1.08.02-2.31.44-3.2 1.06-11.3 7.84-23.9 14.08-32.52 25.28-2.56 3.32-4.42 7.29-5.99 11.21-1.35 3.35 1.31 5.42 3.98 6.37 7.17 2.56 14.54 4.54 21.71 7.08 7.62 2.7 15.52 4.6 22.02 10.16 3.94 3.37 9.8 4.54 13.58 8.02 4.8 4.41 11.44 7.72 12.29 15.49.6 5.53.02 10.64-4.55 14.4-5.25 4.31-11.63 3.28-17.52 2.59-7.49-.87-13.23-5.52-19.11-10.18-7.37-5.85-15.75-10.43-23.72-15.51-5.77-3.68-11.56-7.35-17.41-10.9-7.99-4.85-11.94-5.25-19.13 0-7.99 5.83-15.36 12.68-23.87 17.56-20.7 11.87-42.12 22.47-65.79 27.17-8.87 1.76-17.99 2.28-27 3.36-.17-.41-.34-.82-.51-1.24 2.01-1.55 3.79-3.72 6.06-4.55 8.36-3.06 17-5.36 25.29-8.58 4.3-1.67 8.12-4.61 12.09-7.08 3.85-2.39 7.68-4.81 11.4-7.38 5.77-3.98 11.51-8.02 17.15-12.2 4.6-3.41 8.91-7.22 13.58-10.53 7.35-5.22 11.59-11.71 10.09-20.62zm76.52-120.11c-.15-.02-.29-.04-.44-.06 0-2.16.13-4.34-.02-6.49-.52-7.14-3.19-9.79-10.33-10.38-.83-.07-1.67-.06-2.5-.01-9.85.66-19.76.91-29.53 2.24-3.66.5-9.05 2.79-10.03 5.54-2.06 5.81-2.42 12.5-2.15 18.77.22 5 5.5 8.13 9.88 7.35 2.24-.4 4.5-.85 6.76-.87 9.35-.1 18.71-.08 28.06-.02 4.35.03 7.7-1.47 8.77-5.93.81-3.3 1.05-6.75 1.53-10.14zm-65.99 113.34c4.61-1.59 8.78-2.06 11.71-4.22 7.7-5.69 12.1-14.07 15.52-22.78.82-2.09 2.12-6.26-1.93-7.07-4.79-.96-9.82-1.26-14.72-1.08-5.86.21-11.72 1.04-17.53 1.93-6.24.96-12.13 3.18-16.17 8.25s-6 14.7-.02 17.21c7.55 3.15 15.54 5.26 23.14 7.76zm51.49-142.31c.08.34.17.69.25 1.03 1.83 0 3.69-.18 5.49.04 4.47.54 8.4-.9 9.19-5.3.79-4.41 1.31-9.89-.62-13.53-3.33-6.25-10.52-5.42-16.65-5.11-8.04.4-16.05 1.52-24.09 1.83-8.6.33-10.28 1.11-12.12 9.52-.72 3.3-.78 7.13.19 10.31.83 2.71 3.11 5.91 5.56 6.94 2.56 1.08 6.17.15 9.2-.46 7.9-1.59 15.74-3.5 23.6-5.27zm-52.02 149.55c-2.74-.48-4.35-.77-7.08-1.25.46 2.77.72 4.99 1.32 7.12.07.26 2.54.42 2.9-.09 1.13-1.57 1.79-3.5 2.86-5.78z" fill="#010103"/><g fill="#fafbfc"><path d="m361.2 9.6.8-1c.9.7 1.9 1.4 2.9 2.3l-.9 1.1c-1-1-2-1.8-2.8-2.4zm.5 10.6c.9-2.1 1.6-4.3 2.3-6.7.4.2.8.4 1.3.6-.7 2.1-1.5 4.3-2.2 6.6zm.4-15.2.9-.9c1 .8 2 1.6 2.8 2.4l-1 1c-.9-.9-1.8-1.7-2.7-2.5zm12.5-1.2h1.2v1.4h2.7v1.1h-2.7v2.7h-1.2v-.6h-1.8v1.3h4.9v3.8h-1.2v-.5h-3.7c0 .4-.1.9-.1 1.2h5.1v1h-5.2c0 .5-.1.9-.2 1.2h6v1h-5.2c1.1 1.3 2.9 2 5.5 2.3-.4.4-.7.8-.9 1.3-2.9-.5-4.8-1.6-5.7-3.5h-.1c-.8 1.7-2.7 2.9-5.9 3.6-.2-.4-.6-.8-.9-1.1 2.8-.6 4.6-1.4 5.4-2.5h-4.8v-1h5.3c.1-.3.2-.7.2-1.2h-4.9v-1h5c0-.4 0-.8.1-1.2h-3.5v.5h-1.2v-3.9h4.9v-1.3h-1.8v.5h-1.2v-2.7h-2.7v-1h2.6v-1.4h1.2v1.4h4.7v-1.4zm-6.6 8.3h3.6c0-.4 0-.9 0-1.4h-3.6zm1.9-4.6h4.7v-1.3h-4.7zm6.6 3.2h-3.7v1.4h3.7z"/><path d="m385.3 3.8h1.3v2.2h2.8v-2.2h1.3v2.2h4.1v9.1h1.7v1.3h-16.9v-1.3h1.7v-9.1h4.1v-2.2zm.4 13.1.7 1.2c-1.8.9-3.8 1.9-6 2.9-.2-.4-.5-.8-.8-1.3 2.3-1 4.3-1.9 6.1-2.8zm-3.1-6.4h2.8v-3.2h-2.8zm0 4.6h2.8v-3.3h-2.8zm4-4.6h2.8v-3.2h-2.8zm0 4.6h2.8v-3.3h-2.8zm3.7 1.9c2.1.9 4.1 1.8 6.1 2.7l-.7 1.3c-2.2-1.1-4.2-2-6.1-2.9zm3.2-9.7h-2.8v3.2h2.8zm-2.8 7.8h2.8v-3.3h-2.8z"/></g></svg>