<svg enable-background="new 0 0 400 400" viewBox="0 0 400 400" xmlns="http://www.w3.org/2000/svg"><path d="m6.4 11.7c-1-.8-1.9-1.6-2.9-2.3l.6-.7c.9.7 1.9 1.4 2.9 2.2zm-2.1 8.3c.7-2.1 1.4-4.2 2-6.4.2.1.6.3 1 .4-.7 2.3-1.3 4.4-1.9 6.4zm3-12.8c-1.1-.9-2.1-1.7-2.9-2.4l.6-.7c1 .8 2 1.5 3 2.4zm1.4-1.3v-.9h10.2v.9c-.9 4.2-2.3 7.3-4.1 9.4 1.3 1.4 3.2 2.7 5.7 4-.2.2-.4.5-.7.9-2.5-1.4-4.4-2.7-5.7-4.2-1.4 1.5-3.5 3-6.1 4.4 0 0 0 0-.1-.1-.3-.4-.5-.7-.7-.8 2.7-2.3 4.7-2.8 6.2-4.2-1.8-2.2-3-5.3-3.7-9.4zm9.2 0h-7.1c.6 3.8 1.7 6.7 3.4 8.7 1.7-2 2.9-4.8 3.7-8.7z" fill="#fbfcfa"/><path d="m31.6 3.6h.9v2.3h4.1v9.1h1.7v.9h-16.6v-.9h1.7v-9.1h4.1v-2.3h.9v2.3h3.1v-2.3zm-4 13.3.6.8c-1.9.9-3.8 1.9-5.8 2.8-.2-.3-.3-.6-.5-.9 2-.9 3.9-1.8 5.7-2.7zm-3.2-10.1v3.7h3.1v-3.7zm0 4.5v3.7h3.1v-3.7zm4.1-4.5v3.7h3.1v-3.7zm0 4.5v3.7h3.1v-3.7zm9.1 9.1c-2.1-1.1-4.1-2-5.8-2.7l.5-.8c2.2.9 4.1 1.8 5.8 2.6zm-1.9-13.6h-3.1v3.7h3.1zm-3.2 4.5v3.7h3.1v-3.7z" fill="#fbfcfa"/><g fill="#010100"><path d="m163.29 65.19c-3.33 4.41-6.6 8.25-9.3 12.45-3.11 4.83-5.51 9.92-1.48 15.67.49.7-.3 3.01-1.19 3.86-5.48 5.33-9.47 11.24-9.4 19.3.01 1.53-1.18 3.03-1.42 4.61-.91 6.11-1.79 12.23-2.29 18.38-.06.74 2.17 2.36 3.39 2.41 5.99.25 12.01.39 17.99.04 6.87-.4 10.19-5.37 12.33-11.12 1.64-4.41 2.68-9.03 4.14-13.51 1.65-5.05 5.43-5.99 9.28-2.42 4.73 4.38 10.03 8.33 13.94 13.35 1.76 2.25 1.7 6.93.82 10.04-2.57 9.05-6.37 17.76-8.94 26.81-3.41 12.03-5.79 24.36-9.24 36.37-2.36 8.22-5.79 16.13-8.79 24.17-2.66 7.14-5.62 14.19-8 21.43-2.48 7.53.81 14.3 8.63 19.97 3.71 2.69 7.32 5.63 10.51 8.9 5.55 5.68 4.45 13.07 3.21 19.7-.95 5.09-3.95 9.91-6.59 14.55-3.99 7.02-11.54 5.79-14.88-.27-3.63-6.58-7.04-13.29-10.55-19.94-6.88-13.05-13.51-12.18-22.74-6.07-11.7 7.74-23.17 15.84-34.81 23.68-2.13 1.43-4.67 2.23-6.93 3.48-10.12 5.57-20.06 11.51-30.36 16.72-7.67 3.88-15.71 7.1-23.8 10.01-1.8.65-4.51-1.21-8.44-2.43 2.66-2.65 4.19-4.9 6.3-6.15 6.6-3.91 13.28-7.72 20.19-11.05 6.99-3.37 14.48-5.71 21.36-9.25 6.04-3.1 12.06-6.65 17.2-11.03 11.56-9.85 22.38-20.58 33.91-30.47 4.83-4.15 4.63-8.78 2.85-13.52-1.45-3.85-4.01-7.4-6.64-10.64-2.2-2.71-5.9-1.74-7.16 2.15-2.59 8.01-7.67 14.05-13.74 19.51-2.39 2.15-5.05 4.18-8.15 2.11-3-2.01-3.67-4.81-2.75-8.84 2.25-9.84 3.52-19.91 5.27-29.87 1.16-6.58 2.18-13.2 3.78-19.67 3.27-13.23 2.08-26.66 1.93-40.01-.02-1.55-3.48-4.34-5.38-4.36-6.91-.09-14.05-1.75-20.54 3.13-2.61 1.97-6.78 2.19-10.3 2.56-7.67.81-8.05.41-10.45-6.98-.81-2.48-1.28-5.09-2.34-7.45-1.65-3.66.35-5 3.3-5.43 4.05-.58 8.17-.8 12.26-1.06 11.35-.7 22.71-1.33 34.07-2.02 4.2-.25 6.85-2.22 7.69-6.6 2.24-11.67 4.83-23.27 6.89-34.97 1.11-6.28 1.73-12.7 1.99-19.08.28-6.79-1.47-12.84-7.81-16.88-3.16-2.01-5.95-4.71-8.6-7.4-1.33-1.34-2.29-3.29-2.71-5.12-.1-.45 2.52-1.79 4.04-2.28 8.77-2.84 17.51-5.82 26.43-8.11 2.46-.63 5.86.28 8.18 1.61 5.08 2.9 9.79 6.45 14.57 9.86 3.04 2.19 5.94 4.6 9.27 7.17zm-8.46 86.43c-3.83.76-7.63 1.75-11.49 2.23-7.19.9-10.4 5.86-12.12 11.94-1.76 6.25-3.1 12.64-4.16 19.05-2.18 13.21-4.18 26.45-5.89 39.72-.23 1.78 1.22 4.28 2.65 5.66 3.16 3.06 7 5.41 10.21 8.42 5.3 4.96 9.8 4.44 13.13-2.33 2.41-4.9 4.16-10.12 6.21-15.19 1.2-2.97 3.47-5.96 3.43-8.91-.23-16.43 5.11-31.97 7.19-48.02.98-7.43-2.12-12.2-9.16-12.57z"/><path d="m196.47 187.4c2.11-.46 4.24-1.28 6.4-1.33 6.99-.17 13.99-.06 20.99-.06 7.35 0 10.01-3.02 9.13-10.3-.69-5.69-.96-11.45-2.06-17.05-2.56-13.12-7.28-25.54-13.45-37.36-1.01-1.93-3.71-3.38-5.95-4.2-4.58-1.68-11.36-9.96-10.21-14.21.53-1.97 3.29-3.79 5.45-4.73 2.47-1.07 5.44-.93 8.12-1.61 2.5-.63 4.89-1.65 7.33-2.49-.09.49-.17.98-.26 1.46 4.54 1.15 9.02 2.67 13.62 3.37 5.03.77 10.18.97 15.28 1.08 7.51.17 8.97-.47 10.04-8.31 1.15-8.48 1.41-17.22.8-25.75-.28-3.86-3.6-7.51-5.57-11.24-.84-1.58-1.96-3.04-2.62-4.69-1.91-4.76-.39-6.86 4.13-9.09 10.21-5.03 19.3-1.15 28.48 2.74 4.88 2.07 9.84 4.05 14.45 6.63 3.35 1.88 3.62 5.05 1.51 8.39-2.52 3.99-5.43 7.86-7.2 12.18-2.89 7.06-4.21 14.56-2.9 22.25.65 3.79 3.65 5.19 6.95 4.84 9.41-.99 18.67-2.77 27.3-6.95 2.49-1.21 5.14-2.11 7.59-3.39 9.98-5.24 10.01-5.31 17.67 2.48 2.53 2.58 5.01 5.27 7.09 8.21 2.57 3.64.48 6.19-2.89 7.62-1.89.8-4.14 1.1-6.22 1.05-9.77-.21-19.53-.79-29.29-.81-2.34-.01-6.61 1.53-6.66 2.53-.14 2.59.86 6.08 2.71 7.76 3.7 3.36 8.29 5.73 12.49 8.53 7.24 4.81 7.27 11.08.16 16.08-5.94 4.18-9.76 10.09-13.05 16.42-3.06 5.89-6.26 11.7-9.33 17.58-2.05 3.94 1.08 8.34 5.9 9.01 8.79 1.24 15.95-2.44 22.99-6.91 2.75-1.75 5.62-3.42 8.64-4.58 4.31-1.65 8.41-.4 12.09 2.14 3.49 2.41 7.02 4.8 10.26 7.51 1.98 1.65 3.98 3.66 5.07 5.94 2.21 4.64-.04 7.92-5.16 7.81-9.93-.21-19.88-1.16-29.79-.85-20.8.64-41.59 1.91-62.38 2.89-7.93.37-15.86.63-23.79 1.01-13.2.63-26.39 1.43-39.59 1.91-2.87.1-5.87-.57-8.65-1.41-3.47-1.04-3.95-2.42-5.62-12.1zm72.75-1.08c9.15.25 15.54-3.64 18.69-12.18 2.59-7.01 5.17-14.07 6.99-21.31 2.37-9.43 3.34-19.18 7.63-28.16 1.21-2.54 1.11-6.06.64-8.97-.79-4.88-8.18-7.73-15.08-6.69-7.76 1.18-15.56 2.27-23.38 2.92-11.18.92-22.41 1.2-33.57 2.21-3.11.28-7.89 1.43-8.72 3.47-1.7 4.21 3.06 6.1 5.9 8.47 7.31 6.13 15.01 11.89 21.65 18.68 5.29 5.41 10.28 11.68 9.02 20.31-.45 3.06-.93 6.14-1.63 9.15-1.6 6.91-.62 8.81 6.18 10.9 1.83.57 3.78.81 5.68 1.2z"/><path d="m209 347.63c0-7.59.21-15.2-.04-22.78-.52-15.54-1.34-31.07-1.95-46.61-.71-17.87-1.41-35.73-1.96-53.61-.17-5.5 2.22-6.86 7.02-3.99 3.06 1.83 5.76 4.28 8.58 6.52 5.13 4.07 10.1 8.37 15.43 12.17 1.7 1.22 4.32 1.55 6.53 1.59 9.16.17 18.37.62 27.48-.09 8.9-.69 17.94-1.87 26.45-4.4 5.05-1.5 9.28-5.92 13.72-9.25 3.93-2.95 7.53-6.36 11.52-9.23.84-.6 3.16-.23 4.09.54 5.74 4.8 11.37 9.74 16.83 14.86 3.16 2.96 5.6 6.12 3.56 11.21-2.65 6.61-4.56 13.52-6.66 20.34-.47 1.54-.51 3.24-.57 4.88-.37 10.6-.5 21.21-1.08 31.8-.56 10.24-14.15 27.11-23.95 29.71-1.34.36-3.45-1.37-4.88-2.53-.75-.61-.74-2.1-1.19-3.14-4.89-11.27-8.05-12.44-20.25-10.14-7.08 1.34-14.47 1.01-21.71 1.52-8.69.61-17.38 1.27-26.06 2.02-3.49.3-5.28 2.09-4.93 5.91.88 9.56-2.26 18.43-5.12 27.31-.59 1.83-1.5 3.79-2.85 5.09-2.89 2.79-5.01 7.26-10.62 4.84-4.75-2.05-8.23-6.27-8.37-11.53-.03-1 0-2 0-3 .31 0 .65-.01.98-.01zm26-69.2c0 5.66-.01 11.32 0 16.99.02 7.54 6.35 12.52 13.84 11.6 12.85-1.57 25.74-3.33 38.66-3.83 12.33-.48 14.46-5.54 15.32-15.38.83-9.45.27-19.04.15-28.56-.09-7.25-5.9-11.9-13.15-11.28-10.17.86-20.38 1.37-30.57 2.04-4.93.33-9.92.3-14.77 1.13-5.4.93-10.35 4.78-9.62 10.83.66 5.41.14 10.96.14 16.46z"/></g></svg>