<svg enable-background="new 0 0 400 400" viewBox="0 0 400 400" xmlns="http://www.w3.org/2000/svg"><path d="m6.4 11.7c-1-.8-1.9-1.6-2.9-2.3l.6-.7c.9.7 1.9 1.4 2.9 2.2zm-2.1 8.3c.7-2.1 1.4-4.2 2-6.4.2.1.6.3 1 .4-.7 2.3-1.3 4.4-1.9 6.4zm3-12.8c-1.1-.9-2.1-1.7-2.9-2.4l.6-.7c1 .8 2 1.5 3 2.4zm1.4-1.3v-.9h10.2v.9c-.9 4.2-2.3 7.3-4.1 9.4 1.3 1.4 3.2 2.7 5.7 4-.2.2-.4.5-.7.9-2.5-1.4-4.4-2.7-5.7-4.2-1.4 1.5-3.5 3-6.1 4.4 0 0 0 0-.1-.1-.3-.4-.5-.7-.7-.8 2.7-2.3 4.7-2.8 6.2-4.2-1.8-2.2-3-5.3-3.7-9.4zm9.2 0h-7.1c.6 3.8 1.7 6.7 3.4 8.7 1.7-2 2.9-4.8 3.7-8.7z" fill="#fbfcfa"/><path d="m31.6 3.6h.9v2.3h4.1v9.1h1.7v.9h-16.6v-.9h1.7v-9.1h4.1v-2.3h.9v2.3h3.1v-2.3zm-4 13.3.6.8c-1.9.9-3.8 1.9-5.8 2.8-.2-.3-.3-.6-.5-.9 2-.9 3.9-1.8 5.7-2.7zm-3.2-10.1v3.7h3.1v-3.7zm0 4.5v3.7h3.1v-3.7zm4.1-4.5v3.7h3.1v-3.7zm0 4.5v3.7h3.1v-3.7zm9.1 9.1c-2.1-1.1-4.1-2-5.8-2.7l.5-.8c2.2.9 4.1 1.8 5.8 2.6zm-1.9-13.6h-3.1v3.7h3.1zm-3.2 4.5v3.7h3.1v-3.7z" fill="#fbfcfa"/><g fill="#010100"><path d="m207.63 143.18c.59 2.03.69 3.78 1.52 5.04 5.02 7.63 10 15.29 15.44 22.62 1.66 2.23 4.52 3.94 7.18 4.98 4.67 1.83 7.36 5.58 10.81 8.78 4.45 4.13 10.15 7.05 15.61 9.92 7.31 3.85 14.73 7.65 22.44 10.55 9.51 3.58 19.38 6.2 29.09 9.26 8.04 2.54 15.92 6.04 24.15 7.41 8.74 1.46 17.82.84 26.74 1.32 1.78.1 3.51 1.06 5.26 1.63-1.1 1.82-1.8 4.17-3.38 5.37-10.14 7.71-20.41 15.25-30.77 22.66-6.68 4.78-12.42 4.57-19.06.23-5.05-3.29-10.16-6.55-15.53-9.28-15.51-7.88-30.57-16.5-43.3-28.47-10.95-10.3-21.68-20.87-31.92-31.87-5.53-5.94-9.83-13.02-14.68-19.6-2.14-2.9-4.63-2.82-6.94-.47-12.35 12.57-24.49 25.33-36.94 37.8-11.03 11.05-21.85 22.41-33.74 32.48-9.52 8.07-20.6 14.28-30.8 21.57-4.01 2.86-7.13 7.1-11.33 9.54-10.25 5.95-20.81 11.37-31.4 16.7-5.14 2.59-10.59 4.57-15.98 6.62-1.07.4-2.5-.16-3.76-.27.7-1.28 1.09-2.99 2.16-3.76 5.7-4.1 11.48-8.12 17.4-11.88 14.46-9.18 28.07-19.45 40.07-31.67 5.16-5.25 9.42-11.37 14.3-16.91 2.05-2.32 4.9-3.93 6.93-6.27 4.62-5.33 8.99-10.87 13.4-16.38 4.91-6.14 9.81-12.28 14.58-18.52 6.26-8.18 12.38-16.47 18.59-24.69 2.17-2.87 4.54-5.6 6.56-8.57.86-1.27 1.76-3.27 1.31-4.42-.37-.94-2.73-1.6-4.17-1.54-13.87.54-27.75 1.1-41.59 2.14-1.74.13-4.2 2.79-4.73 4.72-1.49 5.47-2.11 11.18-3.15 16.77-1.55 8.33-7.31 13.97-13.44 18.81-2.93 2.31-7.05.23-8.43-3.53-1.77-4.84-3.68-9.91-3.94-14.96-.58-11.3-.31-22.66-.14-33.99.13-8.77 1.03-17.55.84-26.3-.17-7.67-1.6-15.25-7.34-22.17 2.93-1.25 5.6-2.48 8.34-3.54 2.11-.82 4.47-1.13 6.43-2.19 6.91-3.73 15.76-2.42 20.5 3.71 1.12 1.45 1.52 4.2 1.03 6.03-3.31 12.32-2.7 24.87-2.93 37.4-.08 4.47 2.05 5.87 5.89 6.02 8.93.35 17.87 1.02 26.8.89 6.86-.1 13.77-.87 20.54-1.99 6.73-1.11 9.68-5.05 9.83-12 .39-18.27.71-36.53 1.01-54.8.09-5.59-4.33-11.94-9.53-14.12-1.76-.74-3.4-1.74-6.57-3.39 6.29-1.77 11.01-3.67 15.91-4.33 6.71-.91 13.57-1.44 20.31-1.09 6.38.33 12.24 3.58 15.81 8.74 1.9 2.75 2.82 8.44 1.24 10.95-5.46 8.65-5.08 18.24-6.01 27.56-.92 9.21-.96 18.52-1.09 27.79-.17 11.8 1.44 13.07 13.06 11.8 7.19-.79 14.42-1.17 21.6-2.06 6.63-.82 13.21-2.08 19.82-3.14 1.77-.28 3.6-.98 5.29-.74 5.41.77 6.7-2.24 7.25-6.76 1.04-8.59 2.45-17.13 3.64-25.7.13-.9-.04-1.91-.32-2.79-1.93-5.96-3.97-11.89-5.86-17.86-.43-1.36-.42-2.87-.64-4.49 11.69-2.94 22.68-2.06 33.29 3.12 1.75.86 3.6 1.5 5.39 2.3 5.8 2.59 7.68 6.43 4.37 11.79-3.72 6.02-4.11 12.27-3.96 18.91.17 7.5.11 15 .02 22.5-.13 11.17-2.19 21.78-9.42 30.78-4.71 5.86-10.56 10.16-17.89 12.06-6.04 1.56-11.48-2.7-11.65-8.97-.12-4.35-.06-8.71-.01-13.07.04-3.64-1.85-5-5.3-4.91-14.1.37-28.22.41-42.3 1.14-7.15.36-14.22 1.95-21.81 3.05z"/><path d="m53.11 333.52c11.51 1.01 21.52 2.66 31.5 2.56 11.63-.12 23.46 3.54 34.88-1.07 2.03-.82 4.3-2.6 5.13-4.52 3.06-7.1 4.81-14.61 4.36-22.44-.66-11.51 1.91-23.24-2.05-34.51-.79-2.24-2.48-4.23-4.04-6.1-1.48-1.78-3.33-3.25-4.96-4.8 7.61-11.93 25.24-16.42 37.08-9.58 1.19.68 2.79 2.04 2.81 3.12.21 7.99.27 15.99-.04 23.97-.17 4.32-1.59 8.6-1.67 12.92-.1 5.95.55 11.91.88 17.86.34 6.11.54 12.24 1.17 18.33.1 1.01 2.1 2.58 3.25 2.61 9.49.21 19 .24 28.49.06 3.72-.07 7.69-5.94 8.06-11.64.47-7.25.81-14.52 1.01-21.78.72-25.36 1.4-50.73 1.99-76.1.18-7.76-2.32-10.6-10.11-12.44-1.67-.4-3.27-1.07-4.9-1.61-.11-.5-.22-1-.32-1.49 1.72-.62 3.4-1.58 5.17-1.8 6.67-.83 13.36-1.51 20.07-2.04 1.49-.12 3.17.34 4.56.97 4.6 2.08 9.14 4.28 13.64 6.58 5.15 2.63 6.65 5.77 3.84 10.28-4.93 7.93-4.49 16.93-5.74 25.52-.9 6.23-.46 12.7-.08 19.04.29 4.81 4.7 7.53 9.41 6.36 14.02-3.49 28.02-7.05 42.05-10.53 6.76-1.67 12.74-.18 14.9 5.02 1.41 3.39.63 7.78.39 11.69-.05.75-2.17 1.92-3.38 1.97-17.53.79-35.06 1.49-52.59 2.05-7.19.23-9.8 2.58-9.85 9.81-.06 8.66-.03 17.33-.01 26 .02 5.67 2.28 8.17 7.99 8.19 20.14.05 40.26.55 60.22-3.71 8.71-1.86 17.84-1.92 25.43 4.85 1.93 1.72 4.81 2.39 7.37 3.6-.68 3.57-1.05 7.15-2.08 10.53-1.53 5.05-5.41 7.99-10.53 7.71-14.61-.81-29.2-2.02-43.81-2.82-3.57-.2-7.19.83-10.79.84-23 .08-46-.39-68.98.22-12.59.33-25.13 2.51-37.7 3.71-5.75.55-11.55.57-17.29 1.16-11.74 1.19-23.49 2.4-35.19 3.98-10.35 1.39-20.61 3.42-30.96 4.79-1.54.2-3.65-1.36-4.94-2.65-1.05-1.06-1.63-2.91-1.78-4.47-.59-6.34-2.93-11.48-8.6-14.95-1.19-.76-1.68-2.64-3.26-5.25z"/></g></svg>