<svg enable-background="new 0 0 400 400" viewBox="0 0 400 400" xmlns="http://www.w3.org/2000/svg"><path d="m6.4 11.7c-1-.8-1.9-1.6-2.9-2.3l.6-.7c.9.7 1.9 1.4 2.9 2.2zm-2.1 8.3c.7-2.1 1.4-4.2 2-6.4.2.1.6.3 1 .4-.7 2.3-1.3 4.4-1.9 6.4zm3-12.8c-1.1-.9-2.1-1.7-2.9-2.4l.6-.7c1 .8 2 1.5 3 2.4zm1.4-1.3v-.9h10.2v.9c-.9 4.2-2.3 7.3-4.1 9.4 1.3 1.4 3.2 2.7 5.7 4-.2.2-.4.5-.7.9-2.5-1.4-4.4-2.7-5.7-4.2-1.4 1.5-3.5 3-6.1 4.4 0 0 0 0-.1-.1-.3-.4-.5-.7-.7-.8 2.7-2.3 4.7-2.8 6.2-4.2-1.8-2.2-3-5.3-3.7-9.4zm9.2 0h-7.1c.6 3.8 1.7 6.7 3.4 8.7 1.7-2 2.9-4.8 3.7-8.7z" fill="#fbfcfa"/><path d="m31.6 3.6h.9v2.3h4.1v9.1h1.7v.9h-16.6v-.9h1.7v-9.1h4.1v-2.3h.9v2.3h3.1v-2.3zm-4 13.3.6.8c-1.9.9-3.8 1.9-5.8 2.8-.2-.3-.3-.6-.5-.9 2-.9 3.9-1.8 5.7-2.7zm-3.2-10.1v3.7h3.1v-3.7zm0 4.5v3.7h3.1v-3.7zm4.1-4.5v3.7h3.1v-3.7zm0 4.5v3.7h3.1v-3.7zm9.1 9.1c-2.1-1.1-4.1-2-5.8-2.7l.5-.8c2.2.9 4.1 1.8 5.8 2.6zm-1.9-13.6h-3.1v3.7h3.1zm-3.2 4.5v3.7h3.1v-3.7z" fill="#fbfcfa"/><path d="m160.41 143h14.72c8.59 0 13.39-6.13 11.73-14.49-.95-4.8-1.39-9.72-1.83-14.6-1.09-12.12-1.88-24.27-3.2-36.37-.26-2.37-1.91-5.03-3.71-6.72-5.3-4.98-5.17-8.8 1.62-10.45 6.11-1.49 12.45-3.85 19.07-.58 3.57 1.76 7.86 2.03 11.72 3.29 3.29 1.07 5.83 1.97 4.8 7.18-1.53 7.74-2.76 15.36-7.08 22.13-.24.38-.2.97-.23 1.46-.68 12.02-1.71 24.04-1.91 36.08-.16 9.74 6.38 12.92 14.75 7.75 2.07-1.27 4.2-2.44 6.76-3.91 2.87 3.34 6.28 6.38 8.54 10.12 4.25 7.06.97 14.13-7.8 14.07-5.73-.04-11.3-.47-15.58 4.67-3.63 4.36-3.93 8.57.05 12.63 1.71 1.75 3.62 3.4 5.69 4.69 9.16 5.72 15.77 13.51 19.72 23.56.11.29.4.51.59.78 5.76 8.32 5.71 8.2-3.19 12.81-12.54 6.49-13.79 5.45-14.88-6.97-.66-7.53-2.98-14.93-4.87-22.31-.38-1.46-2.21-2.55-3.38-3.81-.83 1.52-2.37 3.05-2.37 4.57 0 5.27.84 10.54.8 15.8-.06 7.77-1.14 15.56-.81 23.3.57 13.48 1.83 26.94 2.98 40.39.12 1.4 1.42 2.7 2.38 4.43 7.38-6.09 13.46-12.48 17.49-20.54 4.61-9.21 10.48-18.15 13.04-27.93 3.4-12.99 11.61-23.68 15-36.42 1.71-6.42 3.2-12.98 3.84-19.56.54-5.58-3.68-8.44-9.24-7.37-1.09.21-2.35.27-3.38-.07-5.14-1.69-10.24-11.92-8.71-17.63 3.92 0 7.91.05 11.9-.01 5.77-.08 9.95-3.86 9.47-9.59-.95-11.42-2.4-22.81-3.83-34.19-.81-6.46-1.48-13.03-3.23-19.26-1-3.56-3.66-6.91-6.3-9.67-2.12-2.22-6.11-3.65-4.27-7.23 1.42-2.76 4.52-6.23 7.18-6.51 8.98-.93 17.75-5.1 26.99-2.51 3.9 1.09 7.76 2.43 11.46 4.06 1.28.57 2.79 2.35 2.84 3.64.21 5.46 1.23 10.76-3.3 15.85-3.09 3.47-4.71 9.04-5.2 13.86-1.03 10.03-1.04 20.18-1.15 30.28-.05 5.1.5 10.21.97 15.3.46 4.98 7.6 8.33 14.27 6.81 5.69-1.3 10.65-3.57 14.7-8.18 5.08-5.78 7.88-5.81 14.34-1.56 4.36 2.88 8.94 5.51 12.89 8.88 1.88 1.6 3.9 5.1 3.33 6.97-.65 2.13-3.99 4.58-6.38 4.83-8.36.88-16.82.83-25.23 1.25-2.93.15-5.97.29-8.72 1.18-1.36.44-3.13 2.58-3.1 3.9.5 17.88 1.64 35.34 10.51 51.91 7.26 13.56 15.51 26.14 26.18 36.93 5.28 5.34 12.49 8.8 18.93 12.97 4.38 2.83 8.97 5.33 13.34 8.18.89.58 1.5 1.99 1.68 3.11.08.46-1.32 1.7-2.02 1.68-11.76-.4-21.64 5.75-32.3 9.14-8.43 2.68-11.72 1.35-16.83-5.8-5.32-7.44-11.05-14.6-16.73-21.77-3.91-4.94-5.66-10.46-5.96-16.73-.84-17.64-1.96-35.26-2.95-52.89-.36-6.43-.51-12.88-1.1-19.29-.14-1.56-1.62-3-2.48-4.5-1.79 1.08-4.92 1.95-5.14 3.29-.9 5.49-1.31 11.14-1.14 16.71.17 5.72 1.41 11.39 1.82 17.11.54 7.59.74 15.2 1.06 22.8.68 16.7 1.26 33.41 2.05 50.1.5 10.71 1.42 21.4 1.91 32.1.36 7.75-.75 15.23-3.86 22.55-3.54 8.32-11.74 10.39-17.42 3.15-2.93-3.73-4.52-8.91-5.48-13.69-.91-4.48-.08-9.3-.22-13.96-.23-7.6-1.43-15.27-.77-22.79.83-9.49-.9-18.83-.32-28.27.28-4.49-.54-9.12-5.69-12.97-5.19 7.2-10.16 14.23-15.28 21.14-4.48 6.05-8.82 12.24-13.76 17.89-5.87 6.72-12.32 12.94-18.61 19.47 1.28 14.53.39 29-7.54 42.25-.33.56-.67 1.13-1.09 1.63-3.67 4.38-10.54 7.05-13.95 4.82-4.75-3.1-2.74-8.24-2.82-12.62-.15-8.2-.06-16.41-.07-24.62 0-1-.07-2-.08-3-.34-22.77-.57-45.53-1.14-68.29-.07-2.62-1.6-5.48-3.27-7.6-.5-.64-4.23.27-5.58 1.48-2.39 2.14-4.07 5.07-6.1 7.63-5.5 6.93-10.94 13.93-16.59 20.74-4.02 4.83-3.8 10.7-4.23 16.3-.6 7.75-8.18 16.85-14.75 16.55-4.47-.21-8.28-1.89-9.38-6.9-.7-3.17-1.52-6.33-1.92-9.54-.72-5.69-3.45-9.4-8.79-9.35-9.89.09-19.77 1.01-29.66 1.53-3.64.19-7.3.27-10.95.31-6.23.07-9.25 3.26-9.7 9.56-.62 8.7-3.33 16.37-11.96 20.45-5.41 2.56-9.66 1.53-11.34-4.11-1.98-6.65-3.02-13.69-3.51-20.63-.58-8.12-.02-16.32-.16-24.49-.24-14.27-.37-28.55-1.06-42.8-.58-11.82-1.74-23.61-3.03-35.37-.32-2.92-1.95-5.78-3.32-8.49-1.88-3.72-4.15-7.41-1.65-11.53 2.35-3.89 6.43-4.23 10.61-4.68 7-.75 12.31 3.3 17.79 6.18 9.61 5.06 10.68 8.65 6.2 21.57-2.83 8.15-3.13 16.46-3.34 24.72-.31 12.95.3 25.93.93 38.88.23 4.69 1.09 9.72 6.36 11.85 5.42 2.19 10.8.77 15.52-1.82 5.55-3.04 4.73-9.4 4.79-14.26.22-17.26.32-34.59-1.01-51.78-1.33-17.26-4.23-34.42-6.79-51.57-1.66-11.11-3.78-22.17-6.09-33.17-.6-2.88-2.21-5.84-4.15-8.08-2.74-3.15-2.12-5.29.89-7.34 3.09-2.1 6.11-4.47 9.48-5.97 7.65-3.41 14.24 1.11 21.04 3.53 1.52.54 2.92 1.46 4.35 2.25 6.41 3.55 7.68 6.18 5.16 12.68-4.84 12.47-7.89 25.16-7.76 38.69.27 29.35-.11 58.7.23 88.05.08 6.95 1.8 13.89 3.01 20.8.89 5.08 3.21 6.28 10.06 5.88 4.51-.27 6.73-3.43 6.65-7.17-.34-16.04-1.05-32.08-1.85-48.1-.44-8.71-1.35-17.4-2-26.1-.38-5.1-.65-10.2-1.02-15.3-.41-5.76 3.02-8.91 7.52-11.46 4.5-2.56 8.8-2.95 13.35.05 3.1 2.04 6.52 3.59 9.78 5.39 3.89 2.15 6.16 7.07 3.78 11.56-6.13 11.53-5.52 23.81-5.43 36.15.08 11.7.02 23.4.02 35.1 0 .67-.14 1.37.04 1.99.96 3.4 1.22 8.28 5.38 8.29 2.55.01 6.02-3.22 7.51-5.88 9.96-17.76 15.4-37.27 20.95-56.69.84-2.96.85-6.17 1.1-9.27.3-3.7-.82-5.82-5.24-5.68-3.28.1-7.63.13-9.67-1.77-4.21-3.9-8.31-10.68-6.68-17.08z" fill="#010100"/></svg>