<svg enable-background="new 0 0 400 400" viewBox="0 0 400 400" xmlns="http://www.w3.org/2000/svg"><path d="m6.4 11.7c-1-.8-1.9-1.6-2.9-2.3l.6-.7c.9.7 1.9 1.4 2.9 2.2zm-2.1 8.3c.7-2.1 1.4-4.2 2-6.4.2.1.6.3 1 .4-.7 2.3-1.3 4.4-1.9 6.4zm3-12.8c-1.1-.9-2.1-1.7-2.9-2.4l.6-.7c1 .8 2 1.5 3 2.4zm1.4-1.3v-.9h10.2v.9c-.9 4.2-2.3 7.3-4.1 9.4 1.3 1.4 3.2 2.7 5.7 4-.2.2-.4.5-.7.9-2.5-1.4-4.4-2.7-5.7-4.2-1.4 1.5-3.5 3-6.1 4.4 0 0 0 0-.1-.1-.3-.4-.5-.7-.7-.8 2.7-2.3 4.7-2.8 6.2-4.2-1.8-2.2-3-5.3-3.7-9.4zm9.2 0h-7.1c.6 3.8 1.7 6.7 3.4 8.7 1.7-2 2.9-4.8 3.7-8.7z" fill="#fbfcfa"/><path d="m31.6 3.6h.9v2.3h4.1v9.1h1.7v.9h-16.6v-.9h1.7v-9.1h4.1v-2.3h.9v2.3h3.1v-2.3zm-4 13.3.6.8c-1.9.9-3.8 1.9-5.8 2.8-.2-.3-.3-.6-.5-.9 2-.9 3.9-1.8 5.7-2.7zm-3.2-10.1v3.7h3.1v-3.7zm0 4.5v3.7h3.1v-3.7zm4.1-4.5v3.7h3.1v-3.7zm0 4.5v3.7h3.1v-3.7zm9.1 9.1c-2.1-1.1-4.1-2-5.8-2.7l.5-.8c2.2.9 4.1 1.8 5.8 2.6zm-1.9-13.6h-3.1v3.7h3.1zm-3.2 4.5v3.7h3.1v-3.7z" fill="#fbfcfa"/><g fill="#010100"><path d="m145.48 328.82c-.85-1.85-1.49-2.62-1.31-2.95 2.94-5.55 5.98-11.05 9.02-16.55.23-.42.87-.67 1-1.09 3.85-12.49 14.24-21.43 17.39-34.67 3.52-14.79 10.46-28.72 14.57-43.41 3.59-12.82 5.56-26.12 7.77-39.28 1.97-11.77 3.47-23.64 4.84-35.5 1.6-13.84 3.07-27.71 4.13-41.6.49-6.43-3.04-9.1-9.47-7.73-4.9 1.05-9.64 2.86-14.55 3.89-1.41.3-3.8-.45-4.63-1.56-4.69-6.25-9.02-12.78-13.52-19.17-2-2.84.49-3.72 2.14-4.04 6.57-1.26 13.17-2.45 19.82-3.11 15.21-1.51 30.46-2.72 45.69-4.01 8.53-.72 17.05-1.63 25.59-1.98 9.84-.41 18.65-2.9 25.73-10.18 2.7-2.78 8.6-2.5 11.63-.11 3.67 2.91 7.96 5.11 11.35 8.28 3.77 3.52 7.01 7.67 10.08 11.84.64.87.08 3.53-.84 4.47-3.34 3.4-7.14 6.34-10.62 9.61-2.72 2.56-5.27 5.32-7.81 8.07-7.57 8.18-15.18 16.33-22.54 24.69-1.27 1.44-2.49 4.48-1.81 5.72.94 1.71 3.68 3.29 5.71 3.37 5.07.19 10.17-.48 15.26-.85.63-.05 1.31-.21 1.85-.52 10.65-6 11.29-6.31 20.09 1.33 5.85 5.07 11.04 11 15.98 16.99 2.85 3.46 2.27 7.66-1.18 10.8-4.69 4.26-8.82 8.76-9.87 15.34-.15.93-.58 2.29-1.26 2.59-5.04 2.17-6.13 6.96-8.21 11.29-2.43 5.04-5.68 9.7-8.56 14.52-2.58 4.31-4.92 8.78-7.77 12.9-4.45 6.45-9.27 12.65-13.87 19.01-1.14 1.58-1.95 3.4-3.06 5-5.35 7.65-5.15 10.56 1.73 17.9 4.73 5.05 11.03 8.66 16.71 12.79 19.79 14.39 42.59 22.18 65.52 29.66 1.68.55 3.56.48 6.76.87-1.51 2.01-2.28 4.09-3.69 4.7-3.1 1.34-6.51 1.94-9.8 2.85-1.87.52-3.89.77-5.57 1.67-5.44 2.89-11.12 5.54-16.04 9.17-10.63 7.84-14.21 5.78-24.81-.37-5.35-3.11-10.66-6.32-15.75-9.84-6.58-4.55-13.61-8.76-19.16-14.38-5.56-5.64-9.48-12.9-14.28-19.33-.73-.98-2.32-1.76-3.56-1.84-5.51-.37-10.12 1.71-14.3 5.34-8.3 7.22-16.22 15.11-25.34 21.13-18.36 12.1-37.39 23.21-56.26 34.54-2.54 1.53-5.71 2-8.59 2.96-.33-.4-.65-.8-.98-1.2 1.83-1.85 3.37-4.21 5.55-5.42 3.48-1.94 7.57-2.79 11.06-4.72 4.69-2.59 9.24-5.53 13.52-8.75 8.6-6.47 17.65-12.54 25.3-20.02 11.09-10.84 21.19-22.7 31.5-34.31 2.75-3.1 3.59-6.81 2.34-11.32-4.29-15.52-8.32-31.11-11.91-46.8-1.01-4.44-.05-9.3-.24-13.96-.12-2.93-.38-5.93-1.21-8.71-.43-1.45-2.08-3-3.52-3.48-.69-.23-2.73 1.73-3.2 3.04-2.24 6.27-3.8 12.79-6.24 18.97-4.25 10.75-9.09 21.27-13.46 31.98-3.93 9.64-6.92 19.72-11.51 29.02-4.13 8.38-7.83 17.04-14.5 24.2-5.61 6.02-9.42 13.67-14.37 20.35-2.99 4.03-6.62 7.59-10.46 11.91zm110.1-90.32c6.61-6.01 11.39-13.15 14.41-21.54 1.15-3.19 1.53-6.91 3.43-9.55 7.29-10.08 11.95-21.27 14.89-33.2 1.76-7.17 2.91-14.49 4.33-21.74-.52-.4-1.04-.81-1.56-1.21-4.95 1.37-9.89 2.82-14.87 4.09-6.03 1.53-11.7 1.66-16.7-3.22-4.57-4.46-5.62-9.36-3.56-15.19 2.38-6.74 4.6-13.53 7.15-20.2 3.13-8.18 7.13-16.13 5.62-25.3-11.76-1.4-20.25-.51-30.35 2.8-3.54 1.16-7.2 1.97-10.84 2.77-7.04 1.55-14.91.54-20.83 7.76 2.38 2.27 4.77 5.18 7.75 7.23 4.39 3.02 9.34 5.21 13.81 8.12 7.2 4.68 9.08 9.16 6.7 15.6-2.54 6.86-5.25 13.66-8.01 20.43-1.82 4.46-1.43 8.45 2.35 11.58 3.8 3.15 4.64 7.13 4.82 11.81.26 6.86.39 13.89 2.02 20.49 3.38 13.79 8.25 27.11 19.44 38.47z"/><path d="m113.66 48.82c11.99 1.06 24.98 9.57 25.96 21.3.36 4.32-2.98 8.96-4.67 13.44-.95 2.51-2.71 4.97-2.81 7.51-.35 8.98-.14 17.99-.14 26.99 0 18.36-.26 36.73.08 55.09.29 15.87 1.57 31.72 1.86 47.6.56 30.26.86 60.52.95 90.78.02 7.2-1.31 14.39-1.88 21.6-.54 6.92-4.68 11.25-10.22 14.58-3.36 2.02-6.7 5.48-10.92 3.15-4.54-2.51-6.11-6.98-5.91-12.2.45-11.76.79-23.53 1.02-35.29.4-20.93.63-41.86 1.04-62.79.2-9.93.85-19.86.91-29.8.04-6.76-.78-13.53-.89-20.3-.16-10.53.16-21.07-.08-31.6-.54-23.37-1.04-46.74-2.12-70.08-.33-7.08-2.24-14.13-3.96-21.06-.67-2.71-2.35-5.5-4.34-7.48-2.91-2.89-2.54-4.67.97-6.01 5.59-2.15 11.26-4.05 15.15-5.43z"/><path d="m66.3 124.2c2.4 5.26 4.97 10.45 7.15 15.8 2.63 6.46 5.64 12.89 7.23 19.62 3.58 15.19 1.41 29.55-10.03 40.99-5.38 5.38-11.89 9.69-18.16 14.1-4.37 3.07-8.71 1.11-12.08-1.99-3.39-3.12-3.33-7.44-1.44-11.39 4.14-8.68 8.98-17.04 12.74-25.87 3.35-7.87 5.21-16.37 8.48-24.28 2.76-6.67 3.44-13.3 2.95-20.35-.15-2.1 1.16-4.31 1.79-6.47.45-.05.91-.11 1.37-.16z"/><path d="m178.19 162.03c-.68 7.63-3.7 14.78-8.77 20.95-4.14 5.03-10.17 3.57-12.45-2.56-4.48-12.06-8.1-24.32-10.09-37.08-.53-3.43-2.85-6.55-3.94-9.95-.52-1.61-.07-3.53-.07-5.31 1.59.35 3.42.29 4.71 1.1 6.62 4.17 13.4 8.17 19.54 12.97 6.15 4.82 10.88 10.93 11.07 19.88z"/></g></svg>