<svg enable-background="new 0 0 400 400" viewBox="0 0 400 400" xmlns="http://www.w3.org/2000/svg"><g fill="#010103"><path d="m130.83 270.45c11.25-3.36 22.1-4.03 33.44-2.75 8.46.95 17.17-.31 25.77-.63 6.42-.24 12.84-.56 19.12-.84 3.91-6.06 4.51-12.08 3.21-18.7-.97-4.97-1.12-10.13-1.28-15.22-.04-1.38.9-3.58 1.95-4s3.11.59 4.19 1.56c9.26 8.34 15.96 7.65 22.89-2.54 2.02-2.97 4-5.96 5.94-8.98 1.93-3.01 1.46-5.84-2.25-6.18-7.19-.66-14.75-1.98-21.61-.49-13.67 2.96-27.35 4.79-41.28 5.38-3.36.14-5.05-1.28-6.54-4.06-1.68-3.14-3.51-6.41-6.02-8.84-3.58-3.47-8.53-3.34-12.41-.99-6.68 4.05-13.11 8.64-19.09 13.66-4.97 4.17-10.42 4.78-16.19 3.9-4.21-.64-5.84.74-5.68 4.7.28 6.93.92 13.87.91 20.8-.01 7.43-.72 14.86-.9 22.3-.41 17.26-.71 34.53-1.01 51.8-.08 4.86.01 9.72-.03 14.57-.01.97.12 2.44-.43 2.84-4.87 3.52-9.55 7.6-14.96 10-4.71 2.09-9.47-2.88-10.61-9.41-1.79-10.22-.6-20.27.86-30.41 1.1-7.63 1.59-15.36 2.12-23.07 1.41-20.55 3.13-41.1 3.88-61.68.49-13.24-.63-26.53-.78-39.79-.06-4.76.92-9.54.89-14.3-.24-32.1-.49-64.2-1.08-96.29-.09-4.96-1.5-10.01-3.02-14.79-3.68-11.56 2.87-16.45 12.86-17.61 13.89-1.61 25.97 4.28 34.6 15.59 4.78 6.27 3.6 10-3.39 13.53-7.09 3.58-8.58 10.22-9.92 17.06-.34 1.74-.6 3.58-1.38 5.14-2.87 5.72-3.5 11.68-3.81 18.06-.74 15.26-2.81 30.45-3.65 45.7-.62 11.13-.15 22.32-.16 33.49-.01 5.33-.41 10.71.16 15.98.32 3.04 1.54 6.68 3.68 8.53 1.09.94 5.48-.93 7.7-2.5 5.21-3.68 10.24-7.68 14.91-12.03 6.82-6.36 13.13-13.27 19.9-19.68 4.53-4.29 9.67-7.94 14.23-12.2 4.61-4.31 9.01-8.87 13.13-13.64 1.19-1.37 1.1-3.85 1.81-6.69-6.13.65-11.39.81-16.47 1.85-8.46 1.74-10.16 1.23-12.59-6.83-1.45-4.8-2.11-9.83-3.26-15.43 3.55-.53 6.22-1.23 8.9-1.27 9.33-.14 18.71-.6 27.98.15 5.54.45 10.56 1 15.58-2.04 3.02-1.83 4.43-3.83 4.45-7.46.04-7.6.75-15.2.86-22.8.11-7.41-1.4-8.92-8.55-7.83-10.63 1.61-21.15 3.86-31.77 5.55-4.04.65-8.21.52-12.32.75-.31-.59-.61-1.18-.92-1.77 1.87-1.7 3.45-4.14 5.65-4.99 10.62-4.09 21.2-8.54 32.17-11.38 14.63-3.79 28.23-9.9 41.99-15.8 8.82-3.78 17.91-6.9 26.79-10.54 3.74-1.54 5.51 1.27 7.31 3.11 3.9 3.98 7.26 8.48 10.92 12.7 2.53 2.91 2.29 5.18-1.48 6.16-7.69 2.01-15.51 3.59-23.32 5.08-4.97.95-10.08 1.14-15.01 2.22-1.76.39-3.94 2.13-4.46 3.73-.35 1.07 1.82 3.04 3 4.5 1.31 1.61 2.79 3.09 4.47 4.93-4.74 3.31-5.7 7.35-5.52 12.15.15 4.24-1.06 8.55-.65 12.73.21 2.09 2.38 5.13 4.25 5.67 4.63 1.32 9.67 2.26 14.42 1.87 7.44-.61 14.79-2.42 22.17-3.74 5.95-1.06 10.58-3.93 13.71-9.31 1.72-2.97 4.1-5.56 6.74-9.06 5.32 5.88 10.23 10.4 13.92 15.76 1.94 2.82 2.22 7.11 2.26 10.75.01 1.27-2.8 3.41-4.57 3.71-7.74 1.32-15.54 2.29-23.36 3.02-4.32.41-8.72-.05-13.07.18-2.24.12-4.51.72-6.66 1.42-5.43 1.76-6.44 5.35-1.84 9.01 4.65 3.7 10.2 6.26 15.32 9.39 13.52 8.28 28.22 13.32 43.77 16.14 10.25 1.86 20.47 3.88 30.68 5.99 1.79.37 3.43 1.48 5.13 2.25-.01.54-.01 1.08-.02 1.63-3.66.7-7.3 1.8-10.99 2.02-4.91.29-9 1.36-12.79 5-3.96 3.8-8.73 6.91-13.55 9.59-4.08 2.27-8.25.93-12.39-1.33-12.68-6.92-25.44-13.69-38.4-20.07-7.19-3.54-12.83-8.49-16.98-15.19-3.67-5.93-6.92-12.13-10.7-17.98-1.2-1.85-3.41-3.83-5.41-4.15-2.17-.35-5.16-.47-4.48 4.43 1.5 10.74 2.27 21.65 2.32 32.5.02 4.1-2.77 8.22-4.29 12.32-.23.62-.56 1.19-.8 1.8-2.74 7.02-.69 10.17 6.63 10.17.83 0 1.67-.06 2.5.01 8.56.75 16.66.27 22.18-9.33 5.01 6.82 9.84 12.55 13.67 18.9 2.75 4.55.9 8.31-4.48 10.3-14.09 5.21-25.36 14.57-36.64 24.03-3.07 2.58-3.65 5.27-1.42 8.31 2.77 3.76 2.4 10.01 8.63 11.07 1.43.24 2.87.73 4.3.69 21.1-.51 41.89-2.56 60.74-13.32 3.83-2.19 6.9-.94 9.41 2.09 4.66 5.61 9.33 11.23 13.66 17.09 1.17 1.59 2.25 5.16 1.48 5.93-2.53 2.54-5.75 5.43-9.05 5.94-4.91.77-10.15-.15-15.2-.76-3.86-.46-8.15-.65-9.77-5.82-2.92 5.08-7.71 4.01-12.07 3.84-14.37-.56-28.73-1.23-43.09-1.98-4.49-.24-6.17 1.56-6.2 6.09-.09 10.94.49 22.04-1.26 32.75-1.39 8.52-1.13 17.71-4.25 25.45-4.05 10.03-12.47 17.13-23.69 19.7-3.01.69-6.03 1.38-9.06 1.99-6.59 1.32-11.26-1.78-14.19-7.19-3.1-5.73-7.07-9.82-13.55-11.47-1.21-.31-1.94-2.51-2.9-3.84 1.38-.81 2.73-2.27 4.14-2.32 6.32-.25 12.69-.5 18.98 0 5.66.45 8.57-2.67 9.65-7.1 1.89-7.73 3.02-15.67 4.14-23.56.67-4.72.96-9.52 1-14.29.05-5.63-4.75-9.88-9.86-7.96-14.81 5.55-30.6 6.19-45.76 9.84-4.11.99-8.19 2.06-12.32 2.94-4.08.86-6.55-1.08-7.98-4.84-2.02-5.31-4.25-10.53-6.25-15.85-.55-1.49-.61-3.13-.93-4.87zm62.97-70.45c5.48 0 11.03.51 16.42-.21 2.74-.37 7.24-2.76 7.42-4.57 1.02-10.84 1.13-21.77 1.19-32.67.01-1.17-2.12-3.25-3.42-3.39-6.68-.7-11.29 3.11-15.44 7.81-4.23 4.78-8.53 9.51-13.06 13.99-3.79 3.74-8.24 6.84-11.81 10.76-1.23 1.35-1.21 4.41-.76 6.47.19.89 2.91 1.66 4.51 1.73 4.98.22 9.97.08 14.95.08z"/><path d="m48.47 127.82c10.64 7.88 16.42 25.25 12.54 37.2-1.19 3.66-3.11 7.09-4.27 10.76-1.4 4.44-2.33 9.04-3.5 13.56-1.37 5.24-4.48 8.55-10.12 9.06-3.34.3-5.88-.47-7.17-4.03-1.66-4.62-1.21-8.41.9-13.22 3.47-7.92 5.36-16.64 7.01-25.2 1.64-8.48 2.14-17.18 3.22-25.78.1-.71.79-1.35 1.39-2.35z"/><path d="m131.01 131.11c3.31 1.5 6.72 1.97 8.21 3.91 5.94 7.7 13.91 13.97 16.06 24.44 1.65 8.02.26 11.42-7.78 13.61-2 .55-3.98 1.53-5.7 2.71-4.35 2.99-8.76 1.66-9.56-3.63-.63-4.2.11-8.6-.03-12.9-.06-1.81-1.12-3.59-1.16-5.4-.13-7.14-.04-14.29-.04-22.74z"/></g><path d="m361.2 9.6.8-1c.9.7 1.9 1.4 2.9 2.3l-.9 1.1c-1-1-2-1.8-2.8-2.4zm.5 10.6c.9-2.1 1.6-4.3 2.3-6.7.4.2.8.4 1.3.6-.7 2.1-1.5 4.3-2.2 6.6zm.4-15.2.9-.9c1 .8 2 1.6 2.8 2.4l-1 1c-.9-.9-1.8-1.7-2.7-2.5zm12.5-1.2h1.2v1.4h2.7v1.1h-2.7v2.7h-1.2v-.6h-1.8v1.3h4.9v3.8h-1.2v-.5h-3.7c0 .4-.1.9-.1 1.2h5.1v1h-5.2c0 .5-.1.9-.2 1.2h6v1h-5.2c1.1 1.3 2.9 2 5.5 2.3-.4.4-.7.8-.9 1.3-2.9-.5-4.8-1.6-5.7-3.5h-.1c-.8 1.7-2.7 2.9-5.9 3.6-.2-.4-.6-.8-.9-1.1 2.8-.6 4.6-1.4 5.4-2.5h-4.8v-1h5.3c.1-.3.2-.7.2-1.2h-4.9v-1h5c0-.4 0-.8.1-1.2h-3.5v.5h-1.2v-3.9h4.9v-1.3h-1.8v.5h-1.2v-2.7h-2.7v-1h2.6v-1.4h1.2v1.4h4.7v-1.4zm-6.6 8.3h3.6c0-.4 0-.9 0-1.4h-3.6zm1.9-4.6h4.7v-1.3h-4.7zm6.6 3.2h-3.7v1.4h3.7z" fill="#fafbfc"/><path d="m385.3 3.8h1.3v2.2h2.8v-2.2h1.3v2.2h4.1v9.1h1.7v1.3h-16.9v-1.3h1.7v-9.1h4.1v-2.2zm.4 13.1.7 1.2c-1.8.9-3.8 1.9-6 2.9-.2-.4-.5-.8-.8-1.3 2.3-1 4.3-1.9 6.1-2.8zm-3.1-6.4h2.8v-3.2h-2.8zm0 4.6h2.8v-3.3h-2.8zm4-4.6h2.8v-3.2h-2.8zm0 4.6h2.8v-3.3h-2.8zm3.7 1.9c2.1.9 4.1 1.8 6.1 2.7l-.7 1.3c-2.2-1.1-4.2-2-6.1-2.9zm3.2-9.7h-2.8v3.2h2.8zm-2.8 7.8h2.8v-3.3h-2.8z" fill="#fafbfc"/></svg>