<svg enable-background="new 0 0 400 400" viewBox="0 0 400 400" xmlns="http://www.w3.org/2000/svg"><g fill="#010103"><path d="m306.88 198.17c1.55-5.98 3-11.22 4.25-16.5 1.66-7.03 1.25-7.9-5.66-8.56-9.59-.91-19.18-3.59-28.86-1.03-3.11.82-6.05 2.33-8.99 3.69-4.72 2.19-8.33 1.78-12.4-1.79-5.78 3.59-11.93 4.57-18.95 3.29-4.09-.74-8.66 1.63-13 1.59-4.68-.05-9.2-.86-13.79 1.24-4.13 1.89-5.41 4.9-4.36 8.77 2.2 8.09 4.16 16.1 4.07 24.64-.06 5.37 4.17 7.93 9.5 8.62 7.74 1.01 15.37 2.88 23.07 4.21 2.74.48 5.57.6 8.36.65 5.34.08 5.96-1.65 5.62-6.81-.67-10.05-3.59-19.19-8.59-27.81-.42-.72-.06-1.89-.06-4.19 6.45 7.43 12.28 13.87 17.8 20.57 3.73 4.53 7.08 9.38 10.51 14.15.83 1.15 1.61 2.51 1.86 3.88.41 2.21 1.24 5.96.34 6.5-2.43 1.47-5.92 2.61-8.53 1.99-3.05-.73-5.11-1.11-8.16.49-3.15 1.66-7.19 1.78-10.88 2.23-6.68.81-13.39 1.54-20.1 2-14.22.96-22.3-3.19-29.69-16.51-5.35-9.64-7.54-20.34-9.33-31.18-1.33-8.07-6.04-11-14.6-10.26-7.68.67-11.92 5.19-12.32 12.97-.34 6.51-5.94 9.17-9.9 12.91-1.35 1.27-3.63 2.29-5.43 2.2-7.01-.32-9.5-4.17-7.02-11.14 1.95-5.47 4.76-10.62 6.86-16.04 1.17-3.01 1.78-6.25 2.48-9.42.85-3.84 2.78-3.98 6.09-2.56 3.99 1.71 8.19 3.44 12.44 3.91 5.51.6 8.57-2.8 8.47-8.27-.22-11.79-.54-23.58-.86-35.38-.23-8.47-.63-16.94-.63-25.4 0-.92 2.25-2.72 3.3-2.61 3.7.38 7.46 1.05 10.96 2.28 11.74 4.11 13.85.56 19.94-7.29 3.24-4.18 4.55-10.01 6.17-15.27 1.68-5.47-5.48-8.48-11.42-7.58-11.94 1.8-23.82 4.09-35.79 5.61-10.39 1.32-13.69-.95-18.6-10.96 2.18-3.83 5.09-4.38 9.48-3.35 6.02 1.42 12.81 3.48 18.38 1.98 8.8-2.38 17.37-1.13 26.01-1.47 10.68-.42 21.4-.35 32.09-.02 8.38.25 16.72 1.43 25.1 1.77 4.57.18 9.26-1.19 13.76-.7 9.29 1.01 18.39.15 26.8-3.4 5.58-2.35 10.23-6.86 15.38-10.27 1.73-1.15 3.8-1.78 5.62-2.8 3-1.68 4.13.36 5.3 2.48 1.01 1.83 1.78 3.92 3.19 5.38 3.64 3.76 6.96 7.64 4.79 13.23-1.48 3.82-9.28 6.45-14.86 5.12-7.65-1.82-15.15-4.07-23.2-2.01-2.05.52-4.48-.67-6.75-.75-4.35-.16-8.72 0-13.07-.14-8.1-.26-16.21-.98-24.3-.89-8.87.09-16.15 3.25-19.92 12.2-1.12 2.65-3.14 4.96-4.93 7.28-3.25 4.23-2.44 8.14 2.61 9.28 3.72.84 7.73.48 11.61.55 1.47.02 2.95-.46 4.41-.38 12.25.68 22.63-3.66 32.25-10.99 2.28-1.73 6.34-2.28 9.26-1.71 3.71.72 7.24 2.88 10.56 4.89 4.76 2.88 5.29 5.21 1.38 9.07-3.48 3.42-4.12 7.15-4.06 11.64.17 12.83.18 25.67-.01 38.5-.06 4.27 1.2 8.16 5.02 9.28 2.97.87 6.88-.12 9.95-1.35 2.94-1.17 5.21-3.92 7.98-5.62 5.36-3.3 12.9-.35 17.12 6.02 3.33 5.02 6.86 9.99 10.89 14.45 2.76 3.05 2.94 6.13 1.75 9.35-1.15 3.11-3.96 4-7.33 4.61-7.5 1.35-14.82 3.73-22.29 5.27-4.78.91-9.72 1.15-14.14 1.67zm-30.28-86.28c-1.49-.12-3.45.32-4.47-.46-7.26-5.52-15.37-3.26-23.26-2.85-7.73.4-15.68 2.26-23.13 1.03-7.46-1.23-13.87 1.72-20.83 2.05-5.76.27-3.95 5.21-3.76 8.41.19 3.18 1.65 6.19 5.81 5.92 9.7-.62 19.39-1.47 29.09-1.85 6.26-.24 12.56.2 18.83.34.18.72.35 1.44.53 2.16-1.53 1.12-3 3.09-4.61 3.21-12 .92-24.02 1.43-36.04 2.17-3.76.23-7.53.64-11.24 1.28-1.49.26-3.44 1.02-4.15 2.18-3.36 5.53 1.8 14.57 8.24 14.47 8.26-.14 16.52-.75 24.79-.91 9.02-.17 18.05.06 27.08-.1 3.26-.05 6.56-.45 9.74-1.14 4.1-.89 6.01-5.3 6-9.68-.01-8.8-1.69-17.75 1.38-26.23zm-58.84 59.34c15.87-1.16 30.15-2.13 44.41-3.31 2.71-.22 5.48-.93 7.97-2.01 1.53-.66 3.85-3.18 3.6-3.63-1.45-2.59-.87-6.98-5.28-7.25-7.08-.43-14.17-1.01-21.25-.96-12.9.09-25.81.41-38.7 1.05-3.62.18-7.49 1.36-7.52 6.47-.04 5.98 1.16 7.53 7.12 8.41 3.71.55 7.45.95 9.65 1.23z"/><path d="m138.09 353.28c1.14-.76 2.2-1.96 3.44-2.21 11.04-2.19 19.99-8.66 29.15-14.49 14.16-9 28-18.49 41.92-27.86 4.85-3.27 5.5-5.92 3.11-11.36-1.77-4.03-3.75-7.97-5.56-11.99-1.73-3.85-3.34-7.76-4.4-12.65 1.36.92 2.97 1.63 4.03 2.82 1.72 1.94 2.89 4.36 4.61 6.3 8.75 9.85 23.2 11.09 32.66-1.16 2.3-2.98 4.78-5.88 6.62-9.13 1.81-3.22.73-6.38-2.98-7.13-4.63-.94-9.46-1.43-14.17-1.27-7.38.25-14.74 1.12-22.09 1.92-1.65.18-3.91.73-4.68 1.91-2.21 3.39-5.71 3.87-8.85 3.86-6.46 0-10.59 3.18-14.26 7.95-3.55 4.6-7.39 8.99-11.28 13.31-9.94 11.05-19.61 22.38-30.14 32.84-4.8 4.77-11.37 7.75-18.08 12.16-.19-7.2 3.93-10.51 7.45-14.2 5.42-5.68 11.04-11.2 16.02-17.26 6.43-7.82 12.54-15.93 18.34-24.22 4.05-5.8 7.36-12.12 10.95-18.23.32-.54.06-1.53.46-1.88 6.1-5.33 7.33-13.19 10.6-20 2.5-5.21 5.08-5.7 9.24-1.53 4.37 4.38 8.3 9.2 12.74 13.5 1.47 1.42 3.9 2.58 5.9 2.61 16.49.21 32.98.21 49.47.01 2.24-.03 4.87-1.05 6.61-2.48 4.72-3.88 9.28-8.01 13.46-12.45 2.34-2.49 4.52-2.24 6.41-.49 5.15 4.78 10.71 9.3 12.04 16.96.58 3.35-.54 5.64-3.08 7.14-4.61 2.71-9.36 5.22-14.2 7.5-3.75 1.76-8.19 2.39-11.5 4.7-4.01 2.8-6.98 7.05-10.72 10.29-3.17 2.74-7.03 4.68-10.17 7.44-3.42 3-2.91 6.61 1.29 8.5 3.95 1.77 8.2 3.07 12.45 3.94 12.92 2.65 25.88 5.14 38.88 7.38 5.65.97 11.44 1.05 17.14 1.74 3.7.45 7.38 1.14 11.02 1.97 1.1.25 2.9 1.43 2.83 1.98-.16 1.28-.98 2.94-2.05 3.57-4.88 2.89-10.23 5.08-14.86 8.31-4.29 3-7.68 7.28-11.87 10.46-2 1.52-5.19 2.92-7.39 2.42-5.98-1.36-12.07-3.1-17.5-5.89-12.79-6.57-25.14-13.98-37.84-20.72-4.42-2.34-9.24-4.43-14.11-5.24-2.86-.48-6.85.97-9.19 2.92-14.95 12.46-33.17 18.68-50.34 26.86-8.33 3.97-16.9 7.49-25.57 10.65-3.57 1.3-7.66 1.15-11.52 1.65-.16-.59-.3-1.16-.44-1.73z"/><path d="m92.76 328.45c1.43-11.85 3.18-23.04 4.03-34.3.86-11.39.7-22.85 1.26-34.26.44-9.03 1.69-18.05 1.77-27.07.04-4.05-1.94-8.12-2.92-12.2-.28-1.18-.84-2.95-.29-3.57 5.34-5.99 3.74-13.63 4.08-20.32.69-13.71-.32-27.5-.71-41.26-.25-8.6-.61-17.19-.99-25.79-.64-14.86-1.31-29.72-2.02-44.58-.29-6.11-.03-12.36-1.31-18.27-1.11-5.14-4.27-9.81-6.09-14.85-1.41-3.92.23-6.06 4.47-5.88 2.85.12 5.73.94 8.46 1.85 5.55 1.85 10.93 4.26 16.53 5.94 9.82 2.95 10.4 11.46 5 17.16-5.72 6.04-6.5 13.09-6.9 20.3-.54 9.83.18 19.72-.26 29.56-.26 5.72-.34 11.37.04 17.08.39 5.97.6 12.04-.04 17.97-.92 8.54.68 16.86 1.04 25.28.38 8.81-1.13 17.86.3 26.44 6.21 37.09 2.99 74.43 3.67 111.65.18 9.98-4.05 18.2-13.17 23.4-5.66 3.22-12.94.6-14.59-5.67-.77-2.97-.98-6.1-1.36-8.61z"/><path d="m77.53 144.57c1.16 7.18 2.17 14.38 3.5 21.53 2.15 11.54-2.64 19.47-12.42 25.07-.89.51-1.33 1.79-2.03 2.67-4.28 5.37-7.01 5.28-11.41 2.69-4.49-2.64-5.71-8.9-3.05-13.16 6.2-9.93 12.48-19.81 18.59-29.79 1.88-3.07 3.28-6.44 4.9-9.67.64.23 1.28.44 1.92.66z"/><path d="m179.08 198.87c1.6 4.17 3.27 7.03 3.72 10.07.79 5.34.93 10.79 1.13 16.21.05 1.38-.34 3.03-1.12 4.15-3.62 5.2-7.18 10.49-11.3 15.27-2.28 2.65-5.49 1.18-7.92-.58-4.61-3.34-4.65-9.78-1.07-14.22 2.77-3.44 4.71-7.59 6.79-11.54 3.1-5.87 6-11.86 9.77-19.36z"/><path d="m275 187.41c4.32 2.49 7.92 4.63 11.6 6.65.97.53 2.13.91 3.23.98 3.26.22 8.73 4.82 9.16 7.87.75 5.28-1.75 9.96-5.9 11.79-1.46.64-2.62 3.22-3.75 3.11-4.44-.42-8.48-2.57-9.83-6.98-1.94-6.34-3.06-12.93-4.49-19.43-.17-.79-.02-1.65-.02-3.99z"/><path d="m136.24 118.61c1.1.82 2.36 1.5 3.29 2.48 3.61 3.83 7.54 7.47 10.49 11.78 1.36 1.98 1.74 5.74.81 7.97-2.46 5.9-9.91 8.58-14.53 5.73-1.1-.68-2.16-2.4-2.19-3.67-.2-7.87-.1-15.74-.1-23.61.74-.23 1.49-.45 2.23-.68z"/><path d="m223.3 190.32c2.57 2.97 5.71 5.58 7.53 8.91 2.74 5.03-1.67 14.62-7.16 16.33-.94.29-2.99-.7-3.47-1.64-1.82-3.53.48-19.68 3.1-23.6z"/></g><path d="m361.2 9.6.8-1c.9.7 1.9 1.4 2.9 2.3l-.9 1.1c-1-1-2-1.8-2.8-2.4zm.5 10.6c.9-2.1 1.6-4.3 2.3-6.7.4.2.8.4 1.3.6-.7 2.1-1.5 4.3-2.2 6.6zm.4-15.2.9-.9c1 .8 2 1.6 2.8 2.4l-1 1c-.9-.9-1.8-1.7-2.7-2.5zm12.5-1.2h1.2v1.4h2.7v1.1h-2.7v2.7h-1.2v-.6h-1.8v1.3h4.9v3.8h-1.2v-.5h-3.7c0 .4-.1.9-.1 1.2h5.1v1h-5.2c0 .5-.1.9-.2 1.2h6v1h-5.2c1.1 1.3 2.9 2 5.5 2.3-.4.4-.7.8-.9 1.3-2.9-.5-4.8-1.6-5.7-3.5h-.1c-.8 1.7-2.7 2.9-5.9 3.6-.2-.4-.6-.8-.9-1.1 2.8-.6 4.6-1.4 5.4-2.5h-4.8v-1h5.3c.1-.3.2-.7.2-1.2h-4.9v-1h5c0-.4 0-.8.1-1.2h-3.5v.5h-1.2v-3.9h4.9v-1.3h-1.8v.5h-1.2v-2.7h-2.7v-1h2.6v-1.4h1.2v1.4h4.7v-1.4zm-6.6 8.3h3.6c0-.4 0-.9 0-1.4h-3.6zm1.9-4.6h4.7v-1.3h-4.7zm6.6 3.2h-3.7v1.4h3.7z" fill="#fafbfc"/><path d="m385.3 3.8h1.3v2.2h2.8v-2.2h1.3v2.2h4.1v9.1h1.7v1.3h-16.9v-1.3h1.7v-9.1h4.1v-2.2zm.4 13.1.7 1.2c-1.8.9-3.8 1.9-6 2.9-.2-.4-.5-.8-.8-1.3 2.3-1 4.3-1.9 6.1-2.8zm-3.1-6.4h2.8v-3.2h-2.8zm0 4.6h2.8v-3.3h-2.8zm4-4.6h2.8v-3.2h-2.8zm0 4.6h2.8v-3.3h-2.8zm3.7 1.9c2.1.9 4.1 1.8 6.1 2.7l-.7 1.3c-2.2-1.1-4.2-2-6.1-2.9zm3.2-9.7h-2.8v3.2h2.8zm-2.8 7.8h2.8v-3.3h-2.8z" fill="#fafbfc"/></svg>