<svg enable-background="new 0 0 400 400" viewBox="0 0 400 400" xmlns="http://www.w3.org/2000/svg"><path d="m374.8 390.4.4-.4c.7.5 1.3 1 1.8 1.4l-.5.5c-.5-.6-1.1-1.1-1.7-1.5zm1 7.3-.6-.3c.5-1.4 1.1-2.8 1.5-4.3.2.1.4.2.6.3-.5 1.3-1 2.8-1.5 4.3zm-.4-10.3.5-.4c.4.3 1 .8 1.7 1.4l-.5.5c-.5-.5-1.1-1-1.7-1.5zm2.5.3h1.7v-1h.6v1h3.5v-1h.6v1h1.8v.5h-1.8v1.4h-2v1h3.2v2h-3.2v.9h3.3v.5h-3.4c0 .3-.1.6-.1.9h4v.5h-3.7c.7.9 1.9 1.5 3.8 1.7-.1.2-.2.4-.3.6-2.1-.4-3.5-1.1-4-2.1-.4 1-1.8 1.7-4 2.2-.1-.2-.2-.4-.3-.6 2.1-.4 3.4-1 3.8-1.8h-3.4v-.5h3.6c.1-.3.1-.6.2-.9h-3.3v-.5h3.4c0-.3 0-.6 0-.9h-3.2v-2h3.3v-1h-2.1v-1.4h-1.7v-.5zm1.1 3.5v1h2.7c0-.3 0-.4 0-.4 0-.1 0-.2 0-.2 0-.1 0-.2 0-.3h-2.7zm1.2-3v.9h3.5v-.9zm4.7 3h-2.6v.6.4h2.6z" fill="#fcfbfa"/><path d="m393.6 386.7h.6v1.5h2.7v6.1h1.1v.6h-11v-.6h1.1v-6.1h2.7v-1.5h.6v1.5h2.1v-1.5zm-2.7 8.8.4.6c-1.2.6-2.5 1.3-3.8 1.9-.1-.2-.2-.4-.3-.6 1.2-.6 2.5-1.2 3.7-1.9zm-2.2-6.7v2.4h2.1v-2.4zm0 3v2.5h2.1v-2.5zm2.8-3v2.4h2.1v-2.4zm0 3v2.5h2.1v-2.5zm6 6.1c-1.4-.7-2.7-1.3-3.9-1.8l.3-.6c1.5.6 2.7 1.2 3.9 1.7zm-1.2-9.1h-2.1v2.4h2.1zm-2.1 3v2.5h2.1v-2.5z" fill="#fcfbfa"/><g fill="#010103"><path d="m162.68 224.83c2.7 9.03 5.93 16.61 7.05 24.49 1.09 7.65-5.72 12.92-13.27 11.6-2.86-.5-5.58-1.7-8.42-2.32-1.32-.29-2.84-.22-4.17.12-3.83.98-7.55 2.5-11.42 3.2-3.98.71-8.08.7-13.45 1.11 0 9.78.03 19.04-.02 28.3-.01 2.98 1.06 6.48-3.76 7.22-.93.14-1.54 2.29-2.67 4.12 2.3.16 4 .27 6.1.41.01-6.81 4.68-8.15 9.99-9.13 10.9-2 21.03-5.69 29.49-13.35 1.53-1.39 5.37-2.22 6.79-1.27 2.28 1.52 4.05 4.58 4.76 7.32.29 1.1-2.64 3.29-4.4 4.6-2.87 2.14-5.97 3.96-8.97 5.93-1.09.72-2.04 1.83-3.22 2.17-10.32 3.01-17.89 10.12-25.93 16.7-3.66 2.99-8.68 4.26-12.69 6.9-11.44 7.52-22.75 15.26-33.97 23.12-3.49 2.44-5.93 2.39-8.91-.84-5.3-5.75-11.17-10.99-16.45-16.76-1.59-1.74-3.17-4.83-2.66-6.76.43-1.64 3.79-2.63 5.97-3.67 2.16-1.03 4.41-1.91 6.71-2.59 5.27-1.55 10.51-3.4 15.91-4.28 6.99-1.15 8.52-5.98 9.94-11.16 2.59-9.47 4.57-19.07 4.79-28.87.2-8.93.36-17.98-.86-26.78-1.56-11.24-4.6-22.27-6.84-33.42-.4-1.99-.06-4.13-.06-5.76 3.51-.44 6.2-.57 8.79-1.14 4.41-.97 5.82-3.28 3.32-7.22-6.51-10.29-3.85-21.19-3.33-32.11.53-11.31-.07-22.66.26-33.99.17-5.68 1.59-11.32 1.91-17.01.19-3.26-.65-6.58-1.1-9.86-.95-6.96-1.69-13.97-3.03-20.86-.56-2.9-2.03-5.84-3.81-8.22-2.16-2.91-5.21-5.15-7.61-7.9-.85-.98-1.55-2.82-1.19-3.9.31-.93 2.17-1.77 3.42-1.88 5.74-.5 11.5-.88 17.25-.97 1.47-.02 3.09.95 4.4 1.83 9.45 6.32 18.54 13.26 28.41 18.85 3.59 2.03 8.98 1.2 13.54 1.14 10.27-.13 20.54-.48 30.8-.97 11.04-.52 22.07-1.32 33.11-1.94 1.48-.08 3.23-.32 4.42.33 10.58 5.71 21.3.28 31.93.51.87.02 1.93-1.46 2.65-2.42 5.01-6.66 10.04-13.32 14.9-20.09 2.72-3.79 5.82-3.71 9.15-1.26 3.43 2.52 6.61 5.38 10.02 7.94 5.22 3.93 10.97 7.27 15.7 11.71 4.41 4.14 6.08 10.65-1.03 16-5.85 4.41-7.84 11.86-7.53 18.56.43 9.27 1.21 18.39-.22 27.67-.97 6.34-.65 12.86-1.24 19.28-1.06 11.69-1.47 23.63-8.99 33.56-1.64 2.16-3.69 4.29-6.03 5.6-6.03 3.38-12.14 6.81-18.58 9.22-5.69 2.13-6.99.34-7.47-5.8-.45-5.8-1.29-11.67-2.84-17.27-1.5-5.43-5.29-6.76-10.54-4.79-4.15 1.56-10.07-.98-12.65-5.17-1.3-2.12-3.01-3.98-4.54-5.96-.54.27-1.07.54-1.61.81.62 2.19 1.25 4.38 1.84 6.57.4 1.47 1.5 3.83.99 4.27-1.23 1.04-3.19 1.36-4.91 1.61-.86.12-2.01-1.03-2.73-.77-2.64.95-5.16 2.25-7.73 3.43 1.09 1.8 1.79 4.07 3.33 5.3 5.22 4.2 10.85 7.9 16.06 12.1 2.06 1.66 3.96 3.94 4.96 6.34.7 1.67.43 5.32-.59 5.86-6.21 3.26-4.98 8.8-4.88 13.94.11 5.44.6 10.87.94 16.3.09 1.48-.09 3.09.43 4.42 1.49 3.84-.33 5.75-3.54 7.23-1.72.79-3.31 1.88-6.13 3.52 3.59 1.39 5.79 2.24 7.88 3.06.45 8.42.68 16.86 1.43 25.25.62 6.98 1.9 13.9 2.82 20.86.59 4.48 3.91 6.42 7.56 6.11 13.2-1.14 26.36-2.84 39.52-4.36 6.83-.79 13.64-1.81 20.48-2.41 2.57-.23 4.47-.4 4.84-3.55.16-1.38 1.27-2.63 1.84-3.98 2.83-6.79 7-11.34 15.23-9.56 3.77.81 5.7-1.13 6.96-4.53.49-1.34 2.03-2.29 3.09-3.42 1.19 1.18 3.2 2.21 3.45 3.57 2.13 11.33 9.43 19.84 15.26 29.18 2.14 3.43 4.78 6.9 3.14 11.74-1.89 5.58-4.91 8.1-10.83 8.58-1.95.16-3.79 1.61-5.68 2.45-1.14.5-2.31 1.39-3.45 1.37-15.12-.23-30.24-.7-45.36-.9-12.03-.16-24.06-.16-36.09.01-9.6.13-19.2.7-28.8.9-2.24.05-4.58-.36-6.74-1.02-6.97-2.11-9.87-5.58-10.26-12.88-.54-10.08-.74-20.19-1.04-30.28-.09-3.16-.3-6.36.05-9.49.52-4.61-1.2-7.35-5.74-8.15-6.53-1.15-4.1-6.27-4.21-9.94-.12-3.79 3.14-4.21 6.01-4.13 3.15.09 4.61-.56 5-4.29 1.27-12.21 1.49-24.28-1.03-36.4-2.08-10.03-3.37-20.22-5.19-30.31-1.27-7.03-6.96-11.22-15.7-10.96-9.71.29-19.39 1.38-29.1 1.86-5.65.28-11.33.04-17 .05-4.52.01-8.87 1.92-9.81 6.01-1.34 5.86-4.93 9.57-9 13.05-5.73 4.9-3.68 9.17 1.3 12.86 2.76 2.04 5.53 4.08 8.11 6.34 3.35 2.95 3.68 6.51.1 9.25-4.4 3.37-5.18 7.54-4.89 12.65.41 7.16 4.9 10.49 11.32 6.91 9.05-5.05 18.67-9.67 24.04-19.51.94-1.64 3.29-2.47 6.45-4.74zm92.04-100.19c-.24-.03-.48-.05-.73-.08 0-4.5.1-9-.02-13.49-.17-6.4-3.55-12.09-7.89-12.91-3.54-.67-7.18-1.08-10.77-1.11-16.16-.11-32.32-.1-48.48-.01-3.76.02-7.51.69-11.26.7-3.61.01-7.25-.9-10.82-.63-10.31.76-20.59 2.01-30.9 2.83-2.7.22-3.95 1.01-3.88 3.83.12 4.52-.1 9.05.07 13.56.19 5.24 3.87 8.41 9.1 8.72 7.87.47 15.71 1.32 23.58 1.9 2.32.17 4.7.28 6.99-.05 14.81-2.09 29.56-4.88 44.64-3.91 4.17.27 8.04-.05 11.65-2.87 2.96-2.31 5.56-1.2 6.36 2.69.62 3.02 1.29 6.06 1.52 9.13.07.94-1.14 2.76-1.93 2.87-6.83.9-13.69 1.93-20.55 2.07-7.98.16-15.98-.84-23.97-.81-10.6.04-21.2.54-31.79.95-5.94.23-11.89.41-17.79 1.08-3.8.44-8.72.41-8.48 6.27.23 5.68.75 11.37 1.54 16.99.7 4.96 5.28 5.3 8.72 5.26 8.53-.1 17.05-1.03 25.57-1.64 4.6-.33 9.21-.63 13.79-1.08 12.89-1.27 25.78-2.62 38.67-3.91 6.67-.67 13.41-2.17 20.02-1.76 9.99.62 12.6-1.46 14.28-9.66 1.66-8.15 1.9-16.61 2.76-24.93z"/><path d="m228.63 253.76c10.12-3.37 18.77-7 25.53-13.62 7.79-7.62 14.87-15.96 22.18-24.05.81-.9 1.1-2.26 1.66-3.39.61-1.22 1.14-3.34 1.91-3.44 1.59-.2 3.9.14 4.9 1.21 4.85 5.16 9.37 10.61 13.98 15.99 3.42 3.99 6.58 8.23 10.26 11.96 2.33 2.36 4.18 5 2.57 7.76-1.09 1.87-4.1 3.42-6.4 3.66-15.37 1.6-30.77 2.96-46.18 4.09-6.16.45-12.38-.07-18.55.21-2.36.11-4.66 1.65-7.02 1.71-1.59.04-3.22-1.34-4.84-2.09z"/></g></svg>