<svg enable-background="new 0 0 400 400" viewBox="0 0 400 400" xmlns="http://www.w3.org/2000/svg"><path d="m374.8 390.4.4-.4c.7.5 1.3 1 1.8 1.4l-.5.5c-.5-.6-1.1-1.1-1.7-1.5zm1 7.3-.6-.3c.5-1.4 1.1-2.8 1.5-4.3.2.1.4.2.6.3-.5 1.3-1 2.8-1.5 4.3zm-.4-10.3.5-.4c.4.3 1 .8 1.7 1.4l-.5.5c-.5-.5-1.1-1-1.7-1.5zm2.5.3h1.7v-1h.6v1h3.5v-1h.6v1h1.8v.5h-1.8v1.4h-2v1h3.2v2h-3.2v.9h3.3v.5h-3.4c0 .3-.1.6-.1.9h4v.5h-3.7c.7.9 1.9 1.5 3.8 1.7-.1.2-.2.4-.3.6-2.1-.4-3.5-1.1-4-2.1-.4 1-1.8 1.7-4 2.2-.1-.2-.2-.4-.3-.6 2.1-.4 3.4-1 3.8-1.8h-3.4v-.5h3.6c.1-.3.1-.6.2-.9h-3.3v-.5h3.4c0-.3 0-.6 0-.9h-3.2v-2h3.3v-1h-2.1v-1.4h-1.7v-.5zm1.1 3.5v1h2.7c0-.3 0-.4 0-.4 0-.1 0-.2 0-.2 0-.1 0-.2 0-.3h-2.7zm1.2-3v.9h3.5v-.9zm4.7 3h-2.6v.6.4h2.6z" fill="#fcfbfa"/><path d="m393.6 386.7h.6v1.5h2.7v6.1h1.1v.6h-11v-.6h1.1v-6.1h2.7v-1.5h.6v1.5h2.1v-1.5zm-2.7 8.8.4.6c-1.2.6-2.5 1.3-3.8 1.9-.1-.2-.2-.4-.3-.6 1.2-.6 2.5-1.2 3.7-1.9zm-2.2-6.7v2.4h2.1v-2.4zm0 3v2.5h2.1v-2.5zm2.8-3v2.4h2.1v-2.4zm0 3v2.5h2.1v-2.5zm6 6.1c-1.4-.7-2.7-1.3-3.9-1.8l.3-.6c1.5.6 2.7 1.2 3.9 1.7zm-1.2-9.1h-2.1v2.4h2.1zm-2.1 3v2.5h2.1v-2.5z" fill="#fcfbfa"/><g fill="#010103"><path d="m285.79 285.99c-4.02.78-7.14 1.7-10.31 1.96-18.06 1.43-36.13 2.8-54.21 3.97-5.81.38-11.69-.31-17.49.18-6.44.55-14.37.55-15.76 8.71-1.12 6.55-.28 13.66.97 20.27.39 2.04 4.84 4.38 7.65 4.71 8.03.92 16.18 1.15 24.28 1.11 4.87-.03 9.72-1.34 14.61-1.57 3.73-.18 7.5.48 11.25.67 9.53.47 19.07.89 28.81 2.2-2.7.6-5.38 1.61-8.1 1.74-17.84.8-35.7 1.39-53.54 2.08-7.77.3-15.54.56-23.29 1.1-1.31.09-2.88 1.21-3.73 2.32-2.68 3.5-4.78 7.48-7.71 10.74-1.59 1.78-5.16 4-6.48 3.34-2.73-1.37-5.65-4.24-6.45-7.06-.92-3.25.48-7.11.69-10.72 1.04-17.8 1.97-35.61 3.05-53.4.54-8.88.29-17.97 2.2-26.55 3.21-14.37.09-28.84 2-43.03 1.69-12.54-1.58-24.81-.22-37.19.19-1.76.36-3.58.94-5.24.98-2.8 2.88-3.2 4.84-.97 8.54 9.72 19.76 8.46 30.85 7.58 1.21-.1 2.56-.83 3.48-1.66 3.27-2.97 4.38-15.07 3.62-19.27-1.66-9.08-7.84-9.4-14.74-8.94-8.04.53-16.05 1.55-24.09 1.81-5.93.2-11.89-.48-17.84-.76-.45-.8-.89-1.6-1.34-2.4 2.14-1.44 4.53-2.61 6.36-4.37 6.65-6.41 13.18-12.93 19.6-19.57 3.98-4.11 8.47-7.55 10.58-13.56 1.51-4.29 6.05-7.42 8.67-11.44 2.45-3.76 4.27-7.96 6.14-12.07 3.36-7.39 8.17-8.44 13.29-2.94 7.5 8.07 6.77 13.83-3.28 21.71-2.27 1.78-3.88 4.53-6.31 5.95-3.4 1.97-7.29 3.08-10.95 4.61-1.07.45-2.88.98-2.97 1.66-.69 5.03-1.75 10.18-1.28 15.15.41 4.35 4.19 5.8 8.55 5.11 10.65-1.68 21.25-3.77 31.96-4.83 14.59-1.45 29.26-2.11 43.89-3.09 1.16-.08 2.6-.42 3.45.1 2.32 1.42 4.39 3.25 6.56 4.91-1.63 1.98-2.87 4.95-4.96 5.76-5.72 2.23-11.81 3.49-17.71 5.28-1.83.55-3.57 1.48-5.27 2.38-3.61 1.91-5.17 3.71-1.66 7.82 2.73 3.2 5.92 7.03 4.06 12.41-.25.72 3.58 4.09 5.52 4.1 7.41.02 14.81-1.08 22.22-1.31 10.95-.34 22.2-2.52 32.14 4.6 5.46 3.91 5.98 6.49 3.55 12.64-1.53 3.86-2.4 8.12-2.77 12.28-.46 5.29-.18 10.66-.1 15.99.3 19.27-.34 38.62 1.26 57.78 1.69 20.2-.56 39.69-6.48 58.75-3.71 11.95-8.03 24.14-21.42 29.45-4.25 1.69-5.37 1.31-5.31-3.37.07-5.79.8-11.58.86-17.37.04-4.09-.84-8.2-.79-12.29.08-6.29.19-12.63 1.06-18.84.81-5.78 1.55-11.21-.92-16.89-1.05-2.41-.3-5.69-.09-8.56.53-7.52 1.55-15.03 1.7-22.55.1-4.97-4.02-7-9.71-6.06-5.46.91-10.99 1.5-16.5 1.96-5.91.49-11.85 1.03-17.75.8-2.41-.09-5.6-1.58-6.85-3.48-1.18-1.78-.42-4.96-.23-7.5.12-1.55 1.1-3.06 1.13-4.59.12-7.5.06-15 .06-22.5 0-7.19-.04-14.39.01-21.58.06-8.86-3.48-11.87-11.99-10.13-.79.16-1.62.11-2.79.17-.42 2.96-1.18 5.84-1.18 8.72.01 16.69-5.57 31.49-13.94 45.71-5.94 10.1-13.55 18.58-21.81 26.67-3.56 3.49-6.84 7.31-4.89 13.43 8.26 4.27 17.13 6.33 26.82 3.76 2.35-.62 4.94-.42 7.42-.43 12.35-.04 24.71.08 37.06-.07 3.93-.05 7.84-.96 11.77-1.09 3.64-.16 7.33.19 10.28 5.09zm10.87-54.12c.55-2 1.21-3.39 1.29-4.81.74-13.32 1.34-26.65 2.08-39.98.23-4.18-1.61-6.43-5.64-7.29-8.05-1.74-15.93-.79-23.77 1.21-4.66 1.19-6.69 4.16-6.65 8.97.11 12.31-.05 24.61.1 36.92.03 2.71.58 5.55 1.51 8.1 2.05 5.61 7.09 6.92 11.14 2.59 2.67-2.86 4.62-6.6 6.16-10.26 1.46-3.49 1.97-7.39 3.02-11.6 5.18 4.75 4.05 12.84 10.76 16.15zm-106.66 4.96c0 4.83-.29 9.69.11 14.48.22 2.61.92 6.61 2.59 7.38 3.59 1.65 4.72-2.7 6.25-4.91 7.31-10.5 11.36-22.34 12.96-34.93 1.08-8.46 1.68-17 1.99-25.53.24-6.45-1.04-7.45-7.45-7.27-2.94.08-5.86.64-8.79.95-9.95 1.07-9.97 2.23-9.64 11.13.35 9.41 1.36 18.8 1.94 28.21.22 3.48.04 6.99.04 10.49zm55.57-66.83c.46-.23 3.06-.64 3.62-1.94 3.2-7.35 6.89-14.97 2.21-22.95-1.28-2.18-4.27-4.84-6.38-4.77-5.45.2-10.09 4.91-9.97 8.97.12 4.25.76 8.48.92 12.73.21 5.63 2.48 7.97 9.6 7.96z"/><path d="m32.22 267.46c.54-2.26.66-4.73 1.7-6.73 3.53-6.76 8.21-13.02 10.93-20.07 3.83-9.9 10.96-17.36 16.86-25.7 7.66-10.82 14.92-21.76 19.43-34.32.22-.61.48-1.27.9-1.74 9.58-10.66 10.71-25.17 16.91-37.39 1.84-3.63 2.61-8.13 2.58-12.22-.01-1.77-3.15-4.83-5.09-5.03-5.94-.6-12.01-.39-17.98.08-7.34.58-14.62 1.78-21.94 2.64-3.59.42-7.21.59-10.79 1.04-5.06.63-8.08-2.36-10.15-6.17-1.24-2.28-1.65-5.26 2.49-5.94 5.29-.87 10.51-2.2 15.82-2.84 5.56-.67 11.29-1.57 16.77-.92 10.67 1.28 20.35-4.98 31.03-3.44 1.16.17 3.72-3.31 4.16-5.4 1.71-8.13 2.41-16.48 4.26-24.57 2.35-10.29-1.55-20.41-.12-30.6.16-1.13.02-2.3.02-4.78 11.22 2.91 21.8 5.47 32.24 12.06-2.41 2.76-4.13 4.69-5.8 6.66-3.74 4.41-8.67 8.32-10.8 13.41-1.63 3.91.25 9.31.63 14.04.15 1.78 1.02 3.69.62 5.31-1.41 5.67 2.13 8.28 6.38 8.69 9.6.93 19.52 1.98 27.68-5.55 1.49.99 3.6 1.64 4.32 3.03 1.6 3.09 3.69 6.71 3.23 9.76-.27 1.77-4.96 3.6-7.89 4.11-8.03 1.4-16.18 2.17-24.3 3.1-7.35.84-10.17 9.92-10.2 15.68-.05 9.11 7.68 10.86 12.63 15.26 6.51 5.79 13.5 11.08 19.68 17.2 4.61 4.56 4.31 10.72 1.06 15.7s-8.71 4.99-12.4-.07c-2.25-3.08-3.64-6.86-5.05-10.47-2.09-5.36-5.28-9.81-10.18-12.77-2.33-1.41-5.48-1.93-5.74 2.05-.35 5.3.05 10.66.16 15.99.17 8.94.37 17.88.55 26.81.03 1.53.1 3.05.11 4.58.04 6.86-.04 13.72.14 20.57.15 5.6.63 11.2.93 16.79.35 6.61.77 13.23.97 19.84.41 12.95 1.62 25.96.74 38.83-.72 10.43-3.26 20.91-6.43 30.92-2.26 7.16-11.36 10.87-15.93 7.72-4.63-3.19-7.58-7.99-7.26-13.75.68-12.31 1.98-24.59 2.8-36.9.77-11.46 3.92-22.58 3.34-34.31-.67-13.55.5-27.18.75-40.78.15-8.02.16-16.04-.05-24.06-.03-1.23-1.59-3.43-2.41-3.42-1.75.02-3.89.79-5.12 2.02-1.8 1.81-2.94 4.28-4.37 6.46-10.39 15.8-21.01 31.42-34.37 44.95-6.53 6.62-13.1 13.21-19.74 19.71-2.09 2.04-4.48 3.77-6.73 5.64-.67-.23-1.32-.47-1.98-.71z"/><path d="m263.95 67.94c-6.99.64-14.67 1.56-22.38 1.96-3.34.18-8.19.91-8.38-4.19-.2-5.36 5.27-3.87 8.19-4.52 5.87-1.3 12.1-1.03 17.96-2.38 3.06-.7 5.83-3.23 8.4-5.34 2-1.64 3.27-4.15 5.22-5.87 5.03-4.43 8.42 1.13 12.2 2.68 2.6 1.06 6.17 3.28 4.37 7.67-.55 1.35-.88 2.82-1.57 4.1-4.53 8.35-.65 15.51 6.16 20.88 14.52 11.45 32.34 15.74 49.19 22.25 7.68 2.96 15.54 3.32 23.33 4.84 3.65.71 4.7 3.57 2.33 6.37-1.13 1.34-2.67 2.81-4.27 3.19-9.08 2.18-14.75 8.87-20.86 15.07-3.97 4.04-7.43 4.58-12.14 1.46-12.38-8.18-25.05-15.99-36.86-24.94-10.59-8.03-18.24-18.54-19.86-32.41-.26-2.27-.58-4.54-1.08-6.77-1.21-5.52-5.69-3.71-9.95-4.05z"/></g></svg>