<svg enable-background="new 0 0 400 400" viewBox="0 0 400 400" xmlns="http://www.w3.org/2000/svg"><path d="m158.23 324.58c7.1.46 13.83.89 20.56 1.32.66.04 1.42.24 1.98.01 8.23-3.38 16.84-1.39 25.27-1.96 7.37-.5 14.73-1.32 22.08-2.06 1.28-.13 2.58-.93 3.78-.77 9.84 1.29 13.98-1.75 13.94-11.89-.04-8-1.44-16-2.22-24-.24-2.45-.4-4.92-.63-7.37-.48-5.18-.98-10.36-1.5-15.83-14.39.08-27.95-.99-41.4 1.85-2.88.61-5.86.7-8.78 1.13-6.53.96-10.95-1.85-14.44-7.25-4.49-6.94-7.38-7.05-14.85-3.49-7.76 3.7-16.15 6.09-23.92 9.78-8.06 3.83-15.67 8.61-23.54 12.85-6.06 3.26-12.34 6.12-18.32 9.52-4.5 2.55-8.56 5.88-13.04 8.47-4.35 2.52-8.88 4.81-13.53 6.72-4.14 1.7-6.36-1.1-8.09-4.44-2.17-4.2-4.11-8.59-6.79-12.46-2.71-3.9-6.21-7.26-10.47-12.12 6.04-1.32 11.3-3.65 16.38-3.32 8.87.58 15.92-4.73 24.17-5.77 3.86-.49 7.59-1.85 11.44-2.46 5.09-.81 6.23-4.95 6.51-8.64 1.32-17.27 2.37-34.58 3.07-51.89.33-8.22-4.1-11.11-12.43-9.28-4.92 1.08-9.95 2.67-14.87 2.46-3.26-.14-7.16-2.36-9.42-4.87-3.08-3.41-4.87-7.99-7.43-12.45 1.16-.12 2.02-.47 2.65-.23 11.85 4.62 23.8 3.25 35.87 1 4.25-.79 5.66-3.41 5.63-6.79-.12-13.43-.44-26.87-1.03-40.29-.12-2.82-1.5-5.65-2.67-8.31-.38-.85-1.98-1.74-2.96-1.67-10.98.81-22 1.45-32.91 2.88-7.49.98-13.64-1.16-16.35-7.53-.65-1.53-.66-4.1.24-5.29.79-1.05 3.26-1.14 4.98-1.12 5.9.07 11.79.35 17.69.59 1.71.07 3.43.4 5.13.36 10.96-.28 21.92-.67 32.88-.91 1.42-.03 2.86.84 4.29.84 13.52.02 26.89-1.21 38.69-8.5 3.42-2.11 5.8-6 8.47-9.23 2.51-3.04 4.6-4.44 7.88-.64 2.06 2.39 4.98 4.1 7.68 5.86 5.05 3.28 4.98 7.38-.24 10.38-1.26.72-2.43 1.65-3.53 2.62-3.16 2.79-6.5 4.37-11.01 3.7-9.5-1.41-18.47 1.82-27.6 3.67-3.31.67-4.33 2.21-3.05 5.16 1.85 4.27.24 7.66-2.02 11.25-1.32 2.09-2.15 4.74-2.36 7.21-.6 6.91-.9 13.86-1.02 20.79-.05 2.91.33 5.92 1.07 8.73.84 3.21 2.7 5.05 6.68 5.24 7 .34 12.67-.73 17.49-6.67 3.89-4.8 12.71-4.91 15.39-.73 1.45 2.25 1.92 5.89 1.3 8.55-.88 3.77-4.16 5.41-8.25 5.77-8.47.76-16.95 1.65-25.34 3.05-6.7 1.12-9.33 4.46-9.37 11.02-.11 15-.06 29.99-.02 44.99.01 4.34 2.28 6.73 6.66 6.85 3.5.09 7 .09 10.5-.02 1.07-.03 2.57-.24 3.12-.94 5.6-7.22 14.57-6.09 21.94-8.83 1.19-.44 4.36 1.07 4.7 2.24 2.37 8.16 9.3 8.22 15.42 8.36 5.39.12 10.85 1.76 16.44-.42 2.11-.82 5.29 1.62 7.93 1.51 9.04-.38 18.07-1.13 27.08-2.06 1.16-.12 3.07-2.18 3.03-3.29-.39-10.86-.93-21.73-1.86-32.55-.38-4.45-3.76-6.37-8.08-5.93-12.72 1.29-25.42 2.78-38.14 4.04-1.91.19-4.03-.15-5.81-.86-.9-.36-1.81-2.16-1.67-3.16.11-.79 1.73-1.63 2.83-1.99 6.31-2.1 12.63-4.18 19.02-6.04 8.39-2.45 16.83-4.77 25.29-6.97 5.17-1.35 10.42-2.45 15.66-3.52 6.22-1.26 12.52-2.15 18.69-3.6 4.22-.99 8.2-2.99 12.43-3.93 9.83-2.19 19.72-4.13 29.63-5.93 5.19-.94 11.17 2.17 13.32 6.4 2.36 4.65 1.65 7.28-3.23 8.38-5.39 1.22-11 1.49-16.52 2.16-8.45 1.03-16.9 2.02-25.35 3.11-1.27.16-2.57.63-3.69 1.24-3.17 1.72-3.05 4.9.11 6.81 2.63 1.59 5.19 3.29 7.9 5.01-1.41 2.91-2.26 5.43-3.71 7.54-5.8 8.41-6.2 17.84-5.63 27.51.22 3.78 2.22 5.9 5.97 5.74 13.19-.56 26.41-1 39.55-2.15 3.68-.32 7.22-2.81 10.73-4.51 6.43-3.11 11.49-2.09 15.93 3.38 1.66 2.04 3.31 4.08 5.06 6.04 2.94 3.29 2.4 6.14-2.02 7.17-3.95.92-8.14 1.1-12.22 1.05-13.93-.18-27.87-.62-41.8-.93-3.66-.08-7.33-.01-11-.01-9.1 0-10.87 2.4-12.35 11.47-2.35 14.35.25 28.41 1.2 42.57.24 3.58 2.42 5.86 6.03 5.91 10.52.15 21.05-.13 31.57.15 6.93.19 13.4-.92 19.31-4.59 1.65-1.03 3.39-2.17 4.57-3.67 4.4-5.6 7.76-6.65 13-2.45 3.6 2.88 6.48 6.78 9.22 10.56.53.73-.76 3.99-1.87 4.44-3.26 1.32-7.46 3.39-10.2 2.33-7.96-3.06-15.65-1.38-23.46-.63-5.54.53-11.05 1.52-16.61 1.86-8.92.55-17.88.48-26.79 1.12-15.75 1.13-31.48 2.51-47.2 3.93-13.9 1.25-27.79 2.58-41.66 4.08-4.01.44-8.07 1.22-11.88 2.5-8.71 2.87-19.22-4.21-18.88-14.02z" fill="#010103"/><path d="m190.7 73.18c4.35-4.66 12.46-6.11 19.11-2.7 12.86 6.61 26.43 8.67 40.58 7.46 12.26-1.04 24.47-3.52 36.71-3.56 9.05-.03 15.89-2.04 21.56-9.17 1.06-1.34 5.1-1.32 7.29-.56 5.03 1.74 9.91 4.06 14.58 6.65 4.62 2.57 4.81 6 .49 9.1-7.6 5.46-6.34 13.3-5.8 20.77.53 7.34 2.33 14.6 2.64 21.93.31 7.41-.43 14.87-.94 22.29-.1 1.48-.96 3.07-1.88 4.31-4.7 6.32-10.27 11.54-18.61 12.15-1.38.1-3.21-1.5-4.26-2.78-.84-1.03-.92-2.75-1.15-4.19-1.46-9.17-5.46-12.01-14.5-10.91-7.66.93-15.4 1.22-23.08 2.06-10.73 1.18-21.46 2.44-32.12 4.12-1.95.31-4.28 2.47-5.15 4.36-1.32 2.88-2.26 6.33-2.04 9.44.61 8.46-5.33 12.78-10.46 17.48-1.04.96-4.52.55-5.99-.48-6.52-4.56-10.58-11.17-10.53-19.06.1-14.37 1.43-28.72 1.67-43.1.14-8.56-.8-17.13-1.29-25.7-.06-.97-.63-1.97-.49-2.88 1.03-6.72-1.35-12.23-6.34-17.03zm31.3 36.07c-.11.01-.23.02-.34.03.45 6.58.55 13.2 1.47 19.71.61 4.29 2.21 8.76 7.25 9.89 3.49.78 7.19 1.26 10.74 1.03 11.95-.79 23.88-1.82 35.8-3.03 6.65-.68 13.26-1.79 19.83-2.99 1.21-.22 3.05-1.77 3.1-2.78.54-12.26 1.21-24.54 1.01-36.81-.15-9.35-2.87-11.34-12.42-11.3-9.34.04-18.5-.01-27.81 2.65-7.24 2.07-15.39.85-23.12 1.38-9.26.63-16.76 4.75-15.54 15.73.23 2.15.03 4.33.03 6.49z" fill="#010103"/><g fill="#fafbfc"><path d="m361.2 9.6.8-1c.9.7 1.9 1.4 2.9 2.3l-.9 1.1c-1-1-2-1.8-2.8-2.4zm.5 10.6c.9-2.1 1.6-4.3 2.3-6.7.4.2.8.4 1.3.6-.7 2.1-1.5 4.3-2.2 6.6zm.4-15.2.9-.9c1 .8 2 1.6 2.8 2.4l-1 1c-.9-.9-1.8-1.7-2.7-2.5zm12.5-1.2h1.2v1.4h2.7v1.1h-2.7v2.7h-1.2v-.6h-1.8v1.3h4.9v3.8h-1.2v-.5h-3.7c0 .4-.1.9-.1 1.2h5.1v1h-5.2c0 .5-.1.9-.2 1.2h6v1h-5.2c1.1 1.3 2.9 2 5.5 2.3-.4.4-.7.8-.9 1.3-2.9-.5-4.8-1.6-5.7-3.5h-.1c-.8 1.7-2.7 2.9-5.9 3.6-.2-.4-.6-.8-.9-1.1 2.8-.6 4.6-1.4 5.4-2.5h-4.8v-1h5.3c.1-.3.2-.7.2-1.2h-4.9v-1h5c0-.4 0-.8.1-1.2h-3.5v.5h-1.2v-3.9h4.9v-1.3h-1.8v.5h-1.2v-2.7h-2.7v-1h2.6v-1.4h1.2v1.4h4.7v-1.4zm-6.6 8.3h3.6c0-.4 0-.9 0-1.4h-3.6zm1.9-4.6h4.7v-1.3h-4.7zm6.6 3.2h-3.7v1.4h3.7z"/><path d="m385.3 3.8h1.3v2.2h2.8v-2.2h1.3v2.2h4.1v9.1h1.7v1.3h-16.9v-1.3h1.7v-9.1h4.1v-2.2zm.4 13.1.7 1.2c-1.8.9-3.8 1.9-6 2.9-.2-.4-.5-.8-.8-1.3 2.3-1 4.3-1.9 6.1-2.8zm-3.1-6.4h2.8v-3.2h-2.8zm0 4.6h2.8v-3.3h-2.8zm4-4.6h2.8v-3.2h-2.8zm0 4.6h2.8v-3.3h-2.8zm3.7 1.9c2.1.9 4.1 1.8 6.1 2.7l-.7 1.3c-2.2-1.1-4.2-2-6.1-2.9zm3.2-9.7h-2.8v3.2h2.8zm-2.8 7.8h2.8v-3.3h-2.8z"/></g></svg>