<svg enable-background="new 0 0 400 400" viewBox="0 0 400 400" xmlns="http://www.w3.org/2000/svg"><path d="m374.8 390.4.4-.4c.7.5 1.3 1 1.8 1.4l-.5.5c-.5-.6-1.1-1.1-1.7-1.5zm1 7.3-.6-.3c.5-1.4 1.1-2.8 1.5-4.3.2.1.4.2.6.3-.5 1.3-1 2.8-1.5 4.3zm-.4-10.3.5-.4c.4.3 1 .8 1.7 1.4l-.5.5c-.5-.5-1.1-1-1.7-1.5zm2.5.3h1.7v-1h.6v1h3.5v-1h.6v1h1.8v.5h-1.8v1.4h-2v1h3.2v2h-3.2v.9h3.3v.5h-3.4c0 .3-.1.6-.1.9h4v.5h-3.7c.7.9 1.9 1.5 3.8 1.7-.1.2-.2.4-.3.6-2.1-.4-3.5-1.1-4-2.1-.4 1-1.8 1.7-4 2.2-.1-.2-.2-.4-.3-.6 2.1-.4 3.4-1 3.8-1.8h-3.4v-.5h3.6c.1-.3.1-.6.2-.9h-3.3v-.5h3.4c0-.3 0-.6 0-.9h-3.2v-2h3.3v-1h-2.1v-1.4h-1.7v-.5zm1.1 3.5v1h2.7c0-.3 0-.4 0-.4 0-.1 0-.2 0-.2 0-.1 0-.2 0-.3h-2.7zm1.2-3v.9h3.5v-.9zm4.7 3h-2.6v.6.4h2.6z" fill="#fcfbfa"/><path d="m393.6 386.7h.6v1.5h2.7v6.1h1.1v.6h-11v-.6h1.1v-6.1h2.7v-1.5h.6v1.5h2.1v-1.5zm-2.7 8.8.4.6c-1.2.6-2.5 1.3-3.8 1.9-.1-.2-.2-.4-.3-.6 1.2-.6 2.5-1.2 3.7-1.9zm-2.2-6.7v2.4h2.1v-2.4zm0 3v2.5h2.1v-2.5zm2.8-3v2.4h2.1v-2.4zm0 3v2.5h2.1v-2.5zm6 6.1c-1.4-.7-2.7-1.3-3.9-1.8l.3-.6c1.5.6 2.7 1.2 3.9 1.7zm-1.2-9.1h-2.1v2.4h2.1zm-2.1 3v2.5h2.1v-2.5z" fill="#fcfbfa"/><g fill="#010103"><path d="m295.92 328.67c2.9-.56 5.79-1.5 8.71-1.6 8.88-.3 13.01-3.95 13.33-12.82.77-21.7 1.46-43.4 1.97-65.1.12-5.26-.83-10.53-.86-15.8-.02-4.27 1.05-8.56.83-12.8-.39-7.37-1.55-14.69-2.09-22.05-.49-6.63-.38-13.3-.91-19.92-.38-4.7-1.35-9.36-2.1-14.03-.18-1.12-1.01-2.37-.71-3.29 2.64-8.22-2.29-15.6-2.53-23.58-.27-8.94-2.3-17.77.79-26.62.38-1.09-.98-2.7-1.18-4.11-.29-2.03-.95-4.39-.25-6.12 1.96-4.83-2.51-12.87-7.65-12.78-12.94.24-25.87.6-38.8.99-8.12.25-16.25.52-24.36 1.02-7.7.47-15.38 1.59-23.08 1.73-3.17.06-6.38-1.69-10.13-2.77-.64 9.42-.59 18.71-2.06 27.75-1.82 11.23 2.81 21.62 2.86 32.52.03 7.23.01 14.47.38 21.69.25 4.89 1.38 9.73 1.64 14.62.18 3.4-.83 6.86-.64 10.25.84 14.64 1.96 29.25 2.87 43.88.13 2.11-.37 4.26-.47 6.39-.22 4.66-.37 9.31-.53 13.97-.02.66.29 1.49.01 1.97-4.25 7.15.03 13.54 1.71 20.15.12.48.28.96.31 1.45.69 11.53 2.4 23.13 1.66 34.56-.48 7.31-.29 15.57-5.37 21.97-1.83 2.3-4.15 4.67-6.76 5.79-5.64 2.42-6.83 1.45-7.49-4.49-.04-.33.12-.82-.05-.98-3.58-3.18-1.97-7.34-2.36-11.2-.42-4.17-2.05-8.2-2.57-12.37-.47-3.81-.2-7.72-.2-11.59 0-3.32.76-6.81 0-9.94-1.86-7.65-1.57-15.13-1.11-22.93.54-9.29-1.23-18.71-1.63-28.08-.17-4.07 1.09-8.21.78-12.25-.39-5.14 1.74-10.72-2.38-15.43-.79-.9-.46-2.86-.46-4.34-.03-13.5.35-27.01-.11-40.5-.66-19.32-1.26-38.68-3.23-57.88-.85-8.25-2.74-16.82-7.23-24.44-1.34-2.27.21-6.09-.74-8.79-1.76-5.02-4.39-9.73-6.65-14.57-1.56-3.35-1.89-5.27 3.02-6.48 12.82-3.16 23.81-.66 33.45 8.25 1.32 1.22 2.73 2.41 4.3 3.25 3.65 1.96 6.13 4.49 5.06 9.44 10.86-4.37 21.86-3.64 32.79-3.68.33 0 .81-.12.98.05 6.06 6.1 12.13 1.47 18.21.1 1.27-.29 2.65-.14 3.98-.15 8.69-.05 17.41.33 26.04-.38 2.87-.24 5.58-3.15 8.22-5.06 2.25-1.62 4.16-4.87 6.42-5.07 4.99-.45 6.24-4.2 8.39-7.25 3.33-4.72 4.6-5.33 8.89-1.84 7.66 6.23 15.07 12.77 22.39 19.4 3.18 2.88 2.18 9.84-.73 15.34-4.37 8.26-9.77 16.44-6.52 26.66.29.91.11 1.99.04 2.99-.77 11.38.24 22.76-.59 34.21-.72 9.92 2.03 20.09 3.23 30.15.16 1.31.33 2.63.35 3.95.05 3 .16 6.01-.01 9-.65 11.75 1.01 23.25 2.87 34.83 1.15 7.17.16 14.68.15 22.04-.01 4.52.09 9.04.03 13.57-.1 8.16-.36 16.31-.37 24.47 0 2.37.64 4.74.92 7.12.19 1.63.9 3.55.32 4.88-3.58 8.18-4.44 17.98-13.53 23.03-1.61.89-2.93 2.93-3.61 4.73-3.16 8.37-11.82 11.26-19.4 6.34-5.31-3.44-10.71-6.76-16.06-10.13-.15-.41-.27-.85-.39-1.29zm-96.68-123.32c-3.35 1.61-4.83 9.35-2.66 12.82.9-4.36 1.74-8.41 2.66-12.82z"/><path d="m94.47 307.91c-.47 5.25-.32 10.95-1.59 16.32-2.36 10.01-9.78 9.27-15.88 4.31-5.74-4.67-8.59-10.26-8.16-18.06.62-11.33.27-22.72.11-34.08-.09-6.44-1.11-12.89-.83-19.3.32-7.16 1.82-14.26 2.45-21.41.27-3.03-.62-6.16-.52-9.22.3-9.42.9-18.83 1.22-28.24.12-3.49.37-7.15-.47-10.46-2.85-11.21-3.5-22.34-1.98-33.9.65-5-2.13-10.35-2.72-15.62-.97-8.7-1.28-17.48-2.13-26.19-.98-9.99-3.82-19.46-9.02-28.1-1.25-2.08-2.98-3.87-5.28-6.8 10.2-.8 18.68-1.72 27.19-1.96 2.55-.07 5.43 1.34 7.67 2.81 7.21 4.75 14.78 4.47 22.63 2.45.93-.24 2.14-.67 2.86-.31 7.98 4.09 14.83-.96 22-2.76 4.71-1.18 7.62-4.47 7.04-9.87 4.1-1.33 7.08.09 9.89 2.86 4.04 3.99 8.63 7.48 12.38 11.71 2.36 2.66 2.1 5.77.07 9.45-2.17 3.94-3.29 8.99-3.23 13.53.24 16.71 1.08 33.41 1.88 50.1.48 10.04 1.46 20.06 1.86 30.11.13 3.19-.99 6.42-1.34 9.65-.31 2.95-.7 5.95-.45 8.88.8 9.13 1.94 18.23 2.86 27.36.43 4.24-2.34 8.99 2.7 12.5.98.68.27 3.8.31 5.79.04 2.17-.54 4.55.18 6.45 1.52 4 1.74 6.79-3.9 6.78 4.55 4.72 2.32 10.03 2.42 14.98.02.92-.8 2.17-.42 2.72 3.49 5.13.6 10.13-.02 15.2-.66 5.37-.11 11.1-1.79 16.1-3.31 9.85-8.73 18.67-18.17 25.97-.51-2.18-1.08-3.81-1.26-5.49-.74-6.82-1.04-13.72-2.14-20.48-1.02-6.31-3.22-7.79-9.87-7.64-4.6.11-9.21.49-13.78 1-7.49.82-14.95 1.86-22.77 2.86zm-4.39-89.65c3.8 4.35 7.06 9.05 13.87 7.82 1.15-.21 2.47.8 3.74.89 1.64.11 3.87.5 4.84-.36 3.3-2.95 6.64-2.79 10.53-1.68 3.23.91 5.64 2 4.89 5.92-.71 3.69-4.51 5.87-7.81 5.89-6.63.05-13.26.66-19.86 1.36-3.25.34-4.6 2.48-4.32 5.94.81 10.18 1.57 20.38 1.97 30.58.17 4.41-1.07 8.89-.81 13.28.48 8.03 4.24 12.68 12.73 8.72.72-.34 1.56-.55 2.35-.6 5.92-.37 11.91-.25 17.75-1.12 10.68-1.59 11.97 1.39 12.05-12 .01-.83.03-1.67 0-2.5-.66-15.35-1.35-30.7-1.98-46.05-.14-3.34.09-6.7-.08-10.05-.1-2.1-.91-4.18-.89-6.26.07-6.57 1.79-13.49.27-19.63-2.11-8.52-2.22-16.91-2.37-25.46-.02-1.26-.74-2.48-.88-3.75-.3-2.71-.7-5.45-.56-8.15.35-7.06 1.5-14.12 1.31-21.15-.17-6.15-1.74-12.27-2.67-18.29 2.4-.55 3.58-.82 3.89-.89-1.07-6.08-2.58-11.64-2.88-17.27-.27-4.92-3.04-6.98-6.92-7.32-8.21-.73-16.52-1.43-24.72-.91-7.15.46-13.39 3.44-13.71 12.31-.07 1.93-.81 3.86-.77 5.78.25 12.76.7 25.52.92 38.28.12 6.58 1.95 12.2 6.93 15.66 3-.86 5.41-1.7 7.89-2.22 3.49-.73 7.26-.65 10.49-1.97 4.21-1.72 5.64.18 6.54 3.55.89 3.32-1.87 6.21-6.29 6.34-5.49.17-11.01-.25-16.47.2-2.07.17-5.7 1.98-5.74 3.14-.35 10.14-.26 20.31.14 30.45.17 4.32 2.46 8.88-3.37 11.52z"/><path d="m233.15 189.54c7.83 5.53 15.18 10.49 25.06 7.89 2.67-.7 5.46-.95 8.18-1.43 4.62-.81 9.37-.91 10.06-7.59.4-3.89 3.3-4.4 6.52-1.96 5.34 4.05 10.63 8.16 16.07 12.07 4.41 3.17 4.08 7.4 1.89 11.15-3.59 6.17-4.22 12.61-4.03 19.49.14 4.92 1.01 10.85-1.29 14.56-3.36 5.41.3 7.39 2.45 10.38 3.16 4.39 2.27 8.99.13 13.03-2.06 3.9-6.62 3.76-9.99 2.32-4.79-2.05-8.64-.43-13.13.73-5.63 1.46-11.68 1.32-17.56 1.79-1.64.13-3.29.02-5.31.02-1.1 6.81-2.47 13.34-3.13 19.94-.73 7.29-5.75 13.12-13.39 14.38-.21-.55-.61-1.12-.64-1.72-.38-5.93-.94-11.86-.97-17.8-.02-4.08.82-8.16 1.08-12.25.16-2.52-.15-5.06-.08-7.58.07-2.41.68-4.85.46-7.22-.25-2.79-1.39-5.49-1.66-8.28-.34-3.52-.01-7.11-.32-10.64-.22-2.5-1.47-4.95-1.46-7.42.02-5.33 1.03-10.68.76-15.98-.33-6.51-1.36-13.01-2.45-19.45-.61-3.6-1.16-6.83 2.75-8.43zm13.23 31.7c.93 2.46 2.22 4.66 2.55 6.99 1.2 8.42 2.2 16.86 3.02 25.33.39 3.99 1.24 7.06 5.55 8.75 3.66 1.43 6.69 2.81 11.09 2.01 5.93-1.08 9.21-4.38 9.09-10.26-.22-11.15-3.44-22.12-1.64-33.4.97-6.06-2.68-9.21-8.78-9.77-6.89-.63-12.29 1.21-16.5 6.77-1.06 1.38-2.76 2.28-4.38 3.58z"/><path d="m257.78 141.46c6.23-.48 12.46-1.15 18.7-1.4 5.24-.21 7.87-3.07 9.64-7.64.55-1.41 2.46-2.29 3.75-3.41 1.04 1.32 2.11 2.61 3.12 3.95.72.95 1.31 2.78 2.03 2.81 5.08.22 6.86 3.91 6.74 7.69-.13 4.32-4.54 5.89-8.03 6.37-6.51.89-13.15.85-19.73 1.16-14.5.68-29 1.28-43.5 2.05-3.19.17-6.23-.45-6.14-3.81.05-1.8 2.76-4.72 4.67-5.08 9.44-1.8 19.02-2.91 28.55-4.27.07.53.13 1.05.2 1.58z"/></g></svg>