<svg enable-background="new 0 0 400 400" viewBox="0 0 400 400" xmlns="http://www.w3.org/2000/svg"><path d="m6.4 11.7c-1-.8-1.9-1.6-2.9-2.3l.6-.7c.9.7 1.9 1.4 2.9 2.2zm-2.1 8.3c.7-2.1 1.4-4.2 2-6.4.2.1.6.3 1 .4-.7 2.3-1.3 4.4-1.9 6.4zm3-12.8c-1.1-.9-2.1-1.7-2.9-2.4l.6-.7c1 .8 2 1.5 3 2.4zm1.4-1.3v-.9h10.2v.9c-.9 4.2-2.3 7.3-4.1 9.4 1.3 1.4 3.2 2.7 5.7 4-.2.2-.4.5-.7.9-2.5-1.4-4.4-2.7-5.7-4.2-1.4 1.5-3.5 3-6.1 4.4 0 0 0 0-.1-.1-.3-.4-.5-.7-.7-.8 2.7-2.3 4.7-2.8 6.2-4.2-1.8-2.2-3-5.3-3.7-9.4zm9.2 0h-7.1c.6 3.8 1.7 6.7 3.4 8.7 1.7-2 2.9-4.8 3.7-8.7z" fill="#fbfcfa"/><path d="m31.6 3.6h.9v2.3h4.1v9.1h1.7v.9h-16.6v-.9h1.7v-9.1h4.1v-2.3h.9v2.3h3.1v-2.3zm-4 13.3.6.8c-1.9.9-3.8 1.9-5.8 2.8-.2-.3-.3-.6-.5-.9 2-.9 3.9-1.8 5.7-2.7zm-3.2-10.1v3.7h3.1v-3.7zm0 4.5v3.7h3.1v-3.7zm4.1-4.5v3.7h3.1v-3.7zm0 4.5v3.7h3.1v-3.7zm9.1 9.1c-2.1-1.1-4.1-2-5.8-2.7l.5-.8c2.2.9 4.1 1.8 5.8 2.6zm-1.9-13.6h-3.1v3.7h3.1zm-3.2 4.5v3.7h3.1v-3.7z" fill="#fbfcfa"/><g fill="#010100"><path d="m180.22 228.61c9.83-4.5 20.23-2.07 30.38-2.56 6.21-.3 9.08-2.78 9.4-8.9.58-11.25-1.16-12.64-12.59-11.23-7.96.99-15.99 1.49-24 2.04-2.65.18-7.4-5.14-6.76-8 .74-3.31 3.21-3.81 6.64-3.14 4.15.81 5.65-2.92 5.58-5.95-.25-10.21-1.32-20.39-1.6-30.6-.15-5.37.92-10.75 1.03-16.14.05-2.43-1.03-4.87-1.34-7.33-.98-7.77-1.83-15.56-2.74-23.35.61-.45 1.22-.91 1.83-1.36 4.5 2.32 8.99 4.63 13.49 6.95 3.85 1.99 7.5 4.93 11.58 5.76 6.63 1.35 11.96-2.31 16.54-6.92 6.68-6.71 11.99-6.14 18.05 1.29 3.55 4.35 3.52 8.51 2.51 13.87-1.36 7.22-1.13 14.79-1.11 22.21.01 4.4-.19 7.62-5.97 6.9-1.25-.16-3.82 1.29-3.83 2.03-.04 1.92.42 4.78 1.74 5.63 6.56 4.23 7.12 9.33 4.15 16.08-2.45 5.58-.21 8.77 5.98 9.04 6.82.3 13.66.14 20.49 0 1.15-.02 2.89-.69 3.34-1.57 2.95-5.86 3.91-12.13 3.76-18.41-.94-.35-1.25-.6-1.46-.53-9.21 3.18-10.43 2.13-10.46-7.53-.04-13.2-1.46-26.4-1.71-39.61-.11-5.67 1.18-11.37 1.96-17.04.11-.82.96-1.53 1.95-3.02 4.23 6.69 10.56 8.11 17.26 8.4 3.06.13 6.14-.47 9.21-.59 8.64-.33 16.44-2.37 21.87-9.86 2.53-3.49 5.38-2.31 8.07-.16 3.43 2.74 7.05 5.31 10.04 8.48 1.23 1.31 2.07 4.52 1.32 5.91-4.33 8.05-1.93 16.41-1.81 24.66.01.5.01 1 0 1.5-.18 6.79-.82 7.44-8.11 8.09-5.23.46-10.47.81-15.7 1.34-5.28.54-10.54 1.24-15.81 1.87-.24.68-.48 1.36-.72 2.05 2.06 2.18 3.82 4.83 6.26 6.43 5.42 3.57 6.32 9.55 1.23 14.12-3.44 3.09-3.02 13.78.68 16.65.96.74 3.4.79 4.4.08 5.74-4.08 12.11-4.25 18.79-4.44 2.32-.06 5-3.04 6.74-5.29 4.72-6.14 5.97-6.69 12.6-3.31 3.78 1.93 7.65 3.78 11.13 6.18 2.62 1.81 5.7 3.9 4.11 8.62-8.38 0-17.01-.15-25.64.09-2.49.07-4.9 1.5-7.42 1.92-6.76 1.13-13.57 1.95-20.32 3.13-2.36.41-4.68 1.3-6.87 2.3-4.1 1.87-1.08 5.17-1.31 7.82-.33 3.71.87 7.63 4.37 8.28 3.53.65 7.69-.43 11.18-1.78 2.61-1.01 4.47-3.8 6.86-5.53 3.31-2.39 6.58-3.71 10.45-.34 1.99 1.73 5.33 1.85 7.47 3.47 1.68 1.27 2.87 3.64 3.39 5.74.16.66-2.43 2.55-4 2.97-3.59.97-7.31 1.61-11.02 1.97-8.32.82-16.68 1.31-25 2.1-4.22.4-5.83 3.12-4.92 7.56.2.96.16 1.98.21 2.97.41 8.23 2.66 10.27 10.72 10.46 6.92.16 13.83.8 20.74 1.01 1.4.04 3.01-.62 4.23-1.42 5.73-3.76 11.11-8.11 17.09-11.41 5.35-2.96 10.1.91 14.26 3.62 2.89 1.88 5.21 5.19 6.78 8.36 1.1 2.23.25 4.8-3.54 4.86-8.76.13-17.53.46-26.28 1-3.54.22-7.08 1.01-10.52 1.92-1.29.34-3.17 1.67-3.24 2.66-.09 1.3 1.01 3.16 2.17 3.99 3.03 2.18 6.49 3.77 9.54 5.92 1.6 1.12 4.06 3.34 3.76 4.34-.61 1.97-2.56 4.2-4.5 4.96-3.87 1.53-8.49 1.41-12.11 3.3-5.81 3.04-11.5 6.67-16.35 11.04-2.34 2.1-.95 6.26 2.39 7.74 8.77 3.9 17.7 7.42 26.57 11.08.9.37 2.04.41 2.72 1.01 6.59 5.85 14.97 5.58 22.9 7.06 4.22.79 8.21 2.8 12.68 4.4-.5 1.19-.57 1.99-.96 2.21-5.01 2.8-10.01 5.62-15.18 8.1-.6.29-2.15-1.38-2.6-1.68-1.88 1.89-3.69 3.83-5.63 5.62-1.68 1.55-3.82 2.7-5.22 4.45-4.73 5.92-10.8 6.05-16.97 3.68-5.04-1.94-9.48-4.12-13.73-8.78-9.02-9.88-20.51-17.49-31.59-26.52-7.23 7.15-13.45 13.55-19.97 19.62-2.35 2.18-5.52 3.46-8.17 5.35-7.25 5.15-14.55 10.25-21.59 15.68-5.38 4.15-10.4 4.42-14.94.64-2.83-2.36-7.48-3.07-7.68-8.09-.02-.53-1.78-.99-3.89-2.07 2.15-1.87 3.6-3.83 5.53-4.64 4-1.68 8.26-2.76 12.41-4.08 4.76-1.51 7.47-5.16 8.05-9.69 1.1-8.64 1.68-17.36 2.08-26.07.32-7.09-1.83-8.28-8.56-5.25-3.13 1.41-6.11 3.21-9.3 4.45-11.22 4.35-20.11 12.88-31.3 17.24-5.6 2.19-11.26 4.21-16.87 6.39-1.17.45-2.17 1.31-3.31 1.88-5.38 2.67-10.67 5.53-16.23 7.75-1.23.49-3.38-1.34-5.11-2.1 1.02-2.09 1.51-4.93 3.18-6.11 3.84-2.71 8.26-4.58 12.42-6.86 10.46-5.73 21.18-11.03 31.27-17.35 12.71-7.95 24.98-16.61 37.2-25.31 1.65-1.18 1.92-4.31 2.82-6.54-2.08-.8-4.17-2.3-6.25-2.29-8.44.05-16.89.26-25.3.98-12.03 1.04-24 2.78-36.03 3.8-5.25.45-8.1-2.49-8.44-8.05 12.48-1.28 25-2.57 37.52-3.85 6.7-.69 13.42-1.19 20.08-2.11 3.23-.45 5.19-2.71 5.25-6.16.06-3.67-.18-7.35.07-11 .3-4.26-2.09-5.81-5.65-5.64-4.57.22-9.1 1.27-13.66 1.48-4.39.19-8.8-.18-13.2-.42-4.21-.26-6.04-2.81-6.38-6.57zm78.78 60.38c.15.01.3.02.45.04-.48 5.74-.96 11.48-1.45 17.22-.45 5.35 1.66 7.69 6.97 7.75 11.61.13 16.93-4.99 15.92-16.32-.77-8.6-2.75-17.05-7.87-24.31-1.9-2.7-4.47-4.76-8.09-3.27-3.46 1.42-6.38 3.31-6 7.92.31 3.63.07 7.31.07 10.97zm58.31-25.3c-.41-1.01-.68-2.83-1.27-2.93-3.99-.73-8.04-1.44-12.08-1.46-2.79-.01-5.55 1.37-8.37 1.65-5.38.54-10.84.44-16.18 1.2-3.61.51-4.33 3.78-2.16 6.68 3.02 4.03 6 8.1 8.73 12.33 3.39 5.24 10.87 8.49 15.61 2.8 4.78-5.72 9.85-11.2 14.68-16.89.67-.77.67-2.1 1.04-3.38zm-108.59-67.69c1.99 0 4.04-.31 5.96.06 4.47.86 6.64-1.55 6.9-5.31.45-6.59.74-13.27.16-19.84-.44-5.07-4.68-8.07-9.12-7.91-4.82.18-10.39 4.38-10.5 8.71-.14 5.36-2.13 9.96-5.42 13.7-2.68 3.04-1.63 5.77-.24 8.03.91 1.48 3.72 2.07 5.8 2.47 2.08.41 4.3.09 6.46.09zm65.27 44.92c-.68-1.54-1.1-3.21-2.07-4.46-1.27-1.65-2.97-4.22-4.49-4.23-7.4-.03-14.8.57-22.19 1.16-3.35.27-4.68 2.25-4.32 5.79.36 3.63.11 7.32.08 10.98-.03 3.28 1.56 4.86 4.84 4.84 4.49-.03 9 .16 13.48-.04 7.86-.36 10.6-2.75 12.7-10.24.43-1.54 1.5-2.92 1.97-3.8zm-17.82-16.92c2.67 0 5.51.6 7.95-.14 3.42-1.04 8.4-2.31 9.43-4.82 2.29-5.59.7-12.57-6.71-14.97-8.43-2.73-16.54-.67-24.42 2.37-1.14.44-2.4 2.64-2.3 3.91.86 10.77.93 14.57 12.04 13.67 1.33-.11 2.67-.02 4.01-.02zm34.77-77c11.29 0 11.64-.15 13.63-7.1.62-2.18 1.33-4.45 1.35-6.68.06-6.46-1.15-9.38-8.25-9.06-5.44.25-10.83 1.91-16.2 3.15-1.17.27-3.12 1.44-3.07 2.09.36 5.34.59 10.8 2.09 15.86.37 1.25 5.19 1.22 7.97 1.71.79.15 1.65.03 2.48.03zm-76.35-14.69c-3.24.77-7 .73-9.6 2.46-5.63 3.76-4.51 9.56-2.96 15.12 1.67 5.98 9.18 8.84 14.13 5.65 4.59-2.96 6.43-6.61 6.99-11.97 1.13-10.61 1.47-10.57-8.56-11.26z"/><path d="m91.1 261.44c-3.18 3.97-5.32 7.1-7.91 9.78-6.36 6.56-12.83 13.02-19.44 19.32-3.19 3.04-6.88 5.55-10.2 8.47-6.69 5.89-13.23 11.95-19.94 17.81-1.7 1.49-3.83 2.49-5.76 3.72-.26-.37-.52-.74-.78-1.11 4.78-6.39 9.09-13.21 14.54-18.96 2.48-2.62 7.22-3.1 11.21-4.65-1.99-5.52 1.53-9.84 5.06-14.18 2.74-3.36 5.78-6.54 8.08-10.19 5.81-9.21 12.67-18.1 16.58-28.1 7.71-19.73 13.82-40.09 20.33-60.28 1.71-5.29-1.13-8.1-6.63-9.16-10.31-1.99-20.17.17-30.21 1.89-4.53.78-9.36.59-13.95.02-5.14-.64-8.18-5.98-7.77-12.14 14.9-4.26 30.11-5.06 45.49-4.8 5.34.09 10.73-1.04 16.04-1.99 4.16-.74 5.29-4.17 5.12-7.79-.26-5.61.9-11.06-.54-16.91-1.3-5.3.65-11.37 1.04-17.12.22-3.27.88-6.73.11-9.8-1.48-5.93-6.98-7.59-15.08-6.1-7.23 1.33-14.61 1.9-21.91 2.83-5.68.72-11.36 1.5-17.05 2.21-3.03.38-6.07.69-9.1 1.02-.18-.42-.36-.84-.54-1.27.87-.71 1.64-1.65 2.63-2.1 12.74-5.79 25.18-12.19 39.68-13.12 5.28-.34 10.37-3.37 15.58-5.09 6.9-2.27 13.79-4.6 20.77-6.64 5.87-1.72 7.1-3.38 6.12-7.98-.59-2.79-.28-5.77-.38-8.66 4.26.06 9.42-1.37 12.56.53 4.67 2.84 7.99 7.96 11.73 12.25 2.36 2.71 4.3 5.78 6.64 8.5 2.97 3.46 2.69 6.23-1.59 7.97-3.1 1.25-6.53 1.74-9.86 2.34-4.65.84-9.45 1.05-13.98 2.27-4.89 1.32-6.1 5.75-2.48 9.35 4.11 4.08 4.82 7.54.21 11.54-.52.45-.5 1.61-.58 2.45-.07.82.42 1.93.03 2.45-5.33 7.22-1.73 15.58-3.1 23.28-1.66 9.32 2.77 13.38 11.91 11.47 6.25-1.31 11.22-4.15 15.11-9.12 3.05-3.91 7.1-3.83 9.63-.35 3.15 4.33 5.19 9.54 7.18 14.59.32.8-1.95 3.68-3.32 3.93-7.38 1.35-14.9 1.93-22.28 3.27-4.74.86-9.44 2.27-13.91 4.07-1.47.59-2.97 3.17-3.02 4.88-.28 10.32-1.5 20.88.14 30.94 3.48 21.33.52 42.66 1.75 63.93.47 8.19 1.44 16.36 1.89 24.55.15 2.73-.8 5.51-.86 8.27-.09 3.99.29 7.99.27 11.99-.02 5.04.01 10.1-.46 15.11-.32 3.37-1.79 6.62-2.19 9.99-.9 7.47-5.09 13.27-9.2 19.12-.75 1.07-1.73 2.27-2.88 2.69-1.72.63-3.96 1.29-5.43.66-1.15-.49-2.02-2.91-2.07-4.5-.22-7.16.22-14.34-.15-21.49-1.17-22.08-2.59-44.14-3.93-66.21-.31-5.09-.1-10.28-1.12-15.22-1.12-5.43-5.22-6.44-9.38-2.77-1.7 1.5-2.82 3.64-4.44 5.24-1.47 1.42-3.23 2.51-4.01 3.1z"/><path d="m274.57 99.47c-8.57-.49-17.16-.98-25.74-1.46-.66-.04-1.4-.18-1.99.03-17.05 6.12-34.8 4.65-52.41 5.04-5.04.11-10.09 1.02-15.08 1.86-4.5.75-8.19-1.3-9.37-5.66-1.07-3.94.65-7.09 4.65-7.16 6.09-.1 12.2.52 18.3.78 2.33.1 4.68.22 6.99 0 9.62-.9 19.24-1.93 28.85-2.91 3.09-.31 6.21-1.03 9.28-.84 4.64.29 5.13-2.13 5.01-5.83-.2-6.16-.18-12.33-.02-18.49.13-4.85-.07-9.33-3.69-13.3-2.64-2.9-.59-6.3 2.18-7.12 7.27-2.15 14.13-7.66 22.08-5.23 6.87 2.1 13.31 5.67 19.76 8.94.97.49 1.79 3.26 1.29 4.34-4.15 9.04-3.71 18.61-3.65 28.14.03 5.34 2.73 7.33 7.94 6.49 9.2-1.47 18.45-2.61 27.62-4.21 1.97-.35 3.81-1.96 5.49-3.27 1.42-1.11 2.39-2.79 3.8-3.92 6.57-5.24 8.14-5.05 14.11.75 2.63 2.55 4.6 5.78 9.24 5.98 1.96.08 4.21 3.14 5.53 5.33 1.09 1.82 1.39 4.48-1.94 5.23-1.42.32-2.82.87-4.26.99-16.05 1.38-32.1 2.78-48.16 4.01-8.55.65-17.16 1-25.81 1.49z"/><path d="m145.89 191.81c8.95 3.03 14.31 9.2 19.01 15.93 10 14.33 9.77 15.69-2.62 28.52-.89.93-1.48 2.15-2.36 3.09-.9.95-1.99 1.73-2.99 2.59-1.14-1.51-3.42-3.16-3.25-4.49 1.87-14.14-3.82-26.88-6.95-40.09-.4-1.66-.52-3.36-.84-5.55z"/></g></svg>