<svg enable-background="new 0 0 400 400" viewBox="0 0 400 400" xmlns="http://www.w3.org/2000/svg"><path d="m6.4 11.7c-1-.8-1.9-1.6-2.9-2.3l.6-.7c.9.7 1.9 1.4 2.9 2.2zm-2.1 8.3c.7-2.1 1.4-4.2 2-6.4.2.1.6.3 1 .4-.7 2.3-1.3 4.4-1.9 6.4zm3-12.8c-1.1-.9-2.1-1.7-2.9-2.4l.6-.7c1 .8 2 1.5 3 2.4zm1.4-1.3v-.9h10.2v.9c-.9 4.2-2.3 7.3-4.1 9.4 1.3 1.4 3.2 2.7 5.7 4-.2.2-.4.5-.7.9-2.5-1.4-4.4-2.7-5.7-4.2-1.4 1.5-3.5 3-6.1 4.4 0 0 0 0-.1-.1-.3-.4-.5-.7-.7-.8 2.7-2.3 4.7-2.8 6.2-4.2-1.8-2.2-3-5.3-3.7-9.4zm9.2 0h-7.1c.6 3.8 1.7 6.7 3.4 8.7 1.7-2 2.9-4.8 3.7-8.7z" fill="#fbfcfa"/><path d="m31.6 3.6h.9v2.3h4.1v9.1h1.7v.9h-16.6v-.9h1.7v-9.1h4.1v-2.3h.9v2.3h3.1v-2.3zm-4 13.3.6.8c-1.9.9-3.8 1.9-5.8 2.8-.2-.3-.3-.6-.5-.9 2-.9 3.9-1.8 5.7-2.7zm-3.2-10.1v3.7h3.1v-3.7zm0 4.5v3.7h3.1v-3.7zm4.1-4.5v3.7h3.1v-3.7zm0 4.5v3.7h3.1v-3.7zm9.1 9.1c-2.1-1.1-4.1-2-5.8-2.7l.5-.8c2.2.9 4.1 1.8 5.8 2.6zm-1.9-13.6h-3.1v3.7h3.1zm-3.2 4.5v3.7h3.1v-3.7z" fill="#fbfcfa"/><g fill="#010100"><path d="m192.25 226.54c-4.82 1.37-4.03 4.29-3.54 8.19.53 4.2-.54 8.85-1.89 12.98-1.54 4.67-.83 8.02 3.91 11.04 2.22-1.6 5.18-3.07 7.22-5.35 4.2-4.69 7.91-9.8 11.8-14.76.7-.89 1.09-2.28 1.98-2.73 3.24-1.64 5.36-3.74 5.81-7.67.16-1.43 3.13-2.53 3.31-3.96 1.72-14.04 10.1-25.46 14.63-38.37 3.16-9.01 5.61-18.26 8.55-27.35.99-3.07 2.15-6.2 3.85-8.91 3.39-5.38 3.42-10.19-.94-15.02-1.29-1.42-2.1-3.29-3.05-5-1.94-3.48-1.01-4.87 2.96-5.68 5.84-1.2 10.53 1.9 15.13 4.2 13.98 6.99 22.64 3.24 25.96-12.19 1.67-7.79 2.77-15.7 4.17-23.78 0 0 .93-.28 1.25.04 3.67 3.7 7.1 7.64 10.9 11.2 1.98 1.86 4.44 3.28 6.87 4.55 7.59 3.98 7.96 9.24.87 14.01-6.76 4.55-13.45 9.21-20.29 13.63-2.75 1.78-6.52 2.42-8.62 4.69-4.77 5.16-1.81 11.45-.29 16.79 3.16 11.07 7.28 21.88 11.34 32.67.87 2.32 3.24 4.06 4.83 6.14 6.79 8.94 16.1 15.09 24.29 22.5 9.89 8.95 23.31 10.06 33.58 17.58 1.04.76 2.64 2.31 2.41 2.92-.5 1.34-1.81 2.97-3.1 3.32-8.39 2.27-14.67 9.52-23.9 9.94-1.8.08-3.6 2.07-5.25 3.37-2.78 2.2-9.05 2.23-11.28-.43-5.8-6.89-11.78-13.68-17.02-21-7.88-11-13.05-23.51-17.55-36.14-2.42-6.79-2.91-14.28-4.13-21.48-1-5.89-4.36-7.46-9.77-5.3-7.3 2.91-9.04 9.97-12.58 15.64-6.83 10.92-13.39 22.01-20.01 33.06-.66 1.1-1.2 2.35-1.43 3.6-.88 4.78-3.66 7.67-8.09 9.59-2.07.9-3.67 2.97-5.35 4.64-8.9 8.83-17.17 18.44-26.91 26.2-4.03 3.21-9.24 4.99-12.22 9.77-2.38 3.82-3.79 7.3-1.57 12.05 2.18 4.64-1.55 8.88-4.52 11.33-2.6 2.15-2.47 3.98-2.58 6.41-.75 17.08-5.44 33.17-14.08 47.75-2.54 4.29-8.24 7.3-13.14 9.39-2.73 1.17-4.59 1.83-6.03 4.61-1.17 2.26-3.35 4.84-5.62 5.53-4.8 1.46-7.06-.41-8.61-6.83-2.59-10.74-4.77-21.57-7.24-32.92 5.18.63 10.99-2.2 14.91 2.9 2.04-.67 4.02-1.96 5.88-1.81 4.19.35 6.37-1.41 7.94-5.07 4.18-9.73 9.11-19.05 9.21-30.21.05-5.19 2.76-10.31 3.98-15.54.7-3.01.51-6.24 1.26-9.23 2.41-9.57 5.9-18.86 6.49-28.86.21-3.52-3.24-7.24-8.34-7.11-5.21.14-10.39 1.27-15.58 1.93-2.76.35-5.53.88-8.29.88-3.53 0-5.86.95-5.79 4.97.01.64-.06 1.38-.37 1.92-7.19 12.71-7.96 27.81-14.9 40.51-5.23 9.57-11.34 18.67-17.41 27.75-7.33 10.98-14.54 22.1-22.75 32.41-5.21 6.53-12.07 11.76-18.34 17.41-3.97 3.58-8.21 6.85-13.15 10.94.24-1.65.11-2.4.42-2.73 13.42-14.38 26.9-28.72 40.31-43.11.67-.72.83-1.89 1.26-2.84 3.31-7.37 6.24-14.95 10.03-22.07 5.98-11.22 10.86-22.81 13.85-35.16 2.56-10.59 5.42-21.14 7.41-31.84 2.03-10.92 3.66-21.97 4.51-33.03.73-9.53-3.95-12.65-13.25-10.98-7.73 1.39-15.59 2.02-23.41 2.89-6.52.73-13.1 2.08-19.59 1.76-6.22-.31-12.37-2.32-18.48-3.83-.87-.22-2.02-1.99-1.87-2.84.14-.82 1.75-1.9 2.79-1.98 10.51-.8 21.02-1.47 31.54-2.07 12.7-.73 25.41-1.27 38.1-2.13 1.54-.1 3.87-1.35 4.33-2.62 1.8-4.93 5.7-9.3 2.69-15.55-1.52-3.15-.51-7.54-.56-11.37-.13-9.2-3.2-16.47-13.13-19 4.81-6.49 13.12-8.34 20.32-5.76 5.3 1.9 10.87 3.34 16.44 4.11 4.29.59 7.66-2.36 8.93-6.26 2.52-7.75 4.9-15.7 2.42-23.98-1.94-6.47-3.8-7.4-10.05-6.48-2.34.34-4.86-.7-7.23-.46-5.73.58-11.95.38-16.98 2.68-4.77 2.18-10.02 6.42-11.91 11.04-2.45 6-7.04 8.89-11.31 12.47-3.22 2.7-7.33 4.3-10.65 6.9-5.12 4.02-9.83 8.57-14.87 12.69-2.25 1.84-4.97 3.1-7.37 4.78-6.13 4.28-12.17 8.68-18.3 12.94-1.61 1.12-3.44 1.94-5.17 2.89-.48-.3-.96-.6-1.44-.9.61-1.72.71-4.07 1.92-5.05 4.14-3.36 8.72-6.16 13.01-9.35 2.29-1.7 4.4-3.68 6.46-5.67 9.83-9.51 20.88-17.74 27.97-30.01 5.94-10.27 13.59-19.54 19.84-29.66 4.99-8.09 9.18-16.7 13.29-25.29.74-1.54-.1-4.42-1.14-6.12-2.37-3.88-5.31-7.42-8.04-11.12 5.65-4.12 11.89-3.88 18.08-3.67 1.08.04 2.27.53 3.19 1.14 6.91 4.56 13.79 9.16 20.64 13.82 4.94 3.37 5.21 7.05 1.14 11.31-3.42 3.58-6.76 7.25-9.99 11.01-3.21 3.74-2.29 8.28 2.13 10.3 2.34 1.07 4.89 2.04 7.41 2.25 7.08.59 14.19.95 21.29 1.06 7.81.12 12.01-3.44 14.07-11.25.62-2.35.95-4.92 2.16-6.94 1.14-1.89 3.27-3.18 4.96-4.74 1.59 1.86 3.31 3.64 4.69 5.64.46.67.07 1.92.07 2.94 5.16-.63 10.6 5.37 11.01 11.75.31 4.86-2.29 7.1-7.92 7.72-6.32.69-12.56 2.3-18.89 2.72-5.1.34-10.06-.66-15.15 1.9-2.87 1.45-3.15 2.91-3 5.23.17 2.73-.98 5.81 3.11 7.27 4.54 1.62 9.08 3.86 7.84 10.18-.21 1.08-.42 2.3-1.05 3.14-7.37 9.81-14.77 19.59-22.26 29.3-2.95 3.83-4.86 7.69-2.94 12.68 1.45 3.77 2.06 7.94 3.96 11.44 1.02 1.89 4.26 4.19 5.96 3.82 5.3-1.15 10.75-2.79 15.36-5.55 4.45-2.66 7.92-6.94 11.82-10.51 4.2-3.85 6.87-3.59 10.1 1 1.6 2.27 3.31 4.46 4.82 6.79 2.1 3.25 1.42 5.61-2.54 6.56-5.69 1.36-11.33 3.3-17.1 3.84-11.99 1.12-24.05 1.48-36.08 2.14-.83.05-1.67-.03-2.5.01-2.08.11-5.65-.35-5.99.48-1.3 3.19-1.62 6.78-2.18 10.25-.45 2.79.22 6.26-1.21 8.28-4.35 6.14-4.23 12.91-4.1 19.77.06 2.96 6.16 6.47 11.01 6.14 5.37-.37 10.7-1.65 16.07-1.76 5.28-.11 8.17-3.38 10.76-6.95 7.07-9.76 10.07-9.67 15.67.85.79 1.45 1.68 2.79 2.72 4.5zm-56.75-83.42c.63.33 1.25.66 1.88.99 3.55-1.11 4.35-3.46 1.79-7.39-1.22 2.13-2.45 4.27-3.67 6.4z"/><path d="m241.77 32.91c7.16-2.05 13.24-6.15 20.99-2.04 6.96 3.69 14.91 5.53 21.87 9.23 7.34 3.9 7.61 6.11 3.55 13.22-2.71 4.74-5.43 9.44-10.93 11.99-1.46.68-2.46 4.72-1.93 6.75.67 2.57.38 7.08 4.87 6.85 7.87-.4 15.77-.97 23.55-2.17 2.12-.33 4.16-2.9 5.73-4.85 8.57-10.62 12.01-11.6 22.84-4.66 4.31 2.76 8 6.61 11.58 10.34 1.99 2.07 2.03 4.62-1.64 5.42-2.06.45-4.18 1.03-6.25.95-16.54-.63-32.82.67-48.94 4.79-4.54 1.16-9.61.12-14.44.3-5.26.2-10.53.51-15.77 1.07-1.28.14-2.68 1.19-3.62 2.2-7.13 7.67-14.11 15.48-21.27 23.12-2.12 2.27-4.69 4.12-7.06 6.15-6.62 5.65-12.98 11.66-19.99 16.78-3.83 2.8-8.77 4.08-13.21 6.05-.26-.45-.52-.9-.79-1.35.25-.74.29-1.86.8-2.15 8.25-4.81 12.1-13.51 18.1-20.3 11.11-12.56 19.96-26.64 28.14-41.16 3.19-5.67 5.2-12.07 8.82-17.41 2.97-4.37 5.89-8.56 4.05-13.69-1.65-4.61-4.64-8.75-7.08-13.07-.38-.68-1.01-1.24-1.97-2.36z"/><path d="m225.24 299.78c9.74-3.07 16.02 2.75 23.02 6.01 2.2 1.02 4.37 2.12 6.52 3.25 4.85 2.53 9.59 5.29 14.53 7.61 7.7 3.61 15.53 6.93 23.3 10.39 4.74 2.11 9.63 3.93 14.14 6.44 4.13 2.29 5.06 6 2.39 9.83-6.16 8.83-12.71 17.39-18.7 25.52-5.1-2.57-10.2-3.87-13.41-7.07-4.41-4.39-7.85-9.96-10.85-15.49-2.89-5.32-7.98-9.76-7.53-16.72.05-.79-1.82-1.68-2.75-2.57-4.13-3.95-8.12-8.05-12.4-11.83-3.67-3.24-7.72-6.06-11.51-9.17-2.18-1.82-4.2-3.86-6.75-6.2z"/><path d="m242.94 241.72c9.86 1.99 16.08 7.29 22.55 12.22 6.72 5.13 13.56 10.09 20.44 15.01 4.36 3.12 5.36 6.96 2.23 11.28-2.79 3.84-5.79 7.56-9.02 11.04-4 4.3-9.85 3.46-12.33-2.03-2.4-5.29-4.38-10.85-5.78-16.49-1.94-7.86-6.58-14.04-11.12-20.39-2.17-3.02-4.1-6.22-6.97-10.64z"/></g></svg>