<svg enable-background="new 0 0 400 400" viewBox="0 0 400 400" xmlns="http://www.w3.org/2000/svg"><path d="m6.4 11.7c-1-.8-1.9-1.6-2.9-2.3l.6-.7c.9.7 1.9 1.4 2.9 2.2zm-2.1 8.3c.7-2.1 1.4-4.2 2-6.4.2.1.6.3 1 .4-.7 2.3-1.3 4.4-1.9 6.4zm3-12.8c-1.1-.9-2.1-1.7-2.9-2.4l.6-.7c1 .8 2 1.5 3 2.4zm1.4-1.3v-.9h10.2v.9c-.9 4.2-2.3 7.3-4.1 9.4 1.3 1.4 3.2 2.7 5.7 4-.2.2-.4.5-.7.9-2.5-1.4-4.4-2.7-5.7-4.2-1.4 1.5-3.5 3-6.1 4.4 0 0 0 0-.1-.1-.3-.4-.5-.7-.7-.8 2.7-2.3 4.7-2.8 6.2-4.2-1.8-2.2-3-5.3-3.7-9.4zm9.2 0h-7.1c.6 3.8 1.7 6.7 3.4 8.7 1.7-2 2.9-4.8 3.7-8.7z" fill="#fbfcfa"/><path d="m31.6 3.6h.9v2.3h4.1v9.1h1.7v.9h-16.6v-.9h1.7v-9.1h4.1v-2.3h.9v2.3h3.1v-2.3zm-4 13.3.6.8c-1.9.9-3.8 1.9-5.8 2.8-.2-.3-.3-.6-.5-.9 2-.9 3.9-1.8 5.7-2.7zm-3.2-10.1v3.7h3.1v-3.7zm0 4.5v3.7h3.1v-3.7zm4.1-4.5v3.7h3.1v-3.7zm0 4.5v3.7h3.1v-3.7zm9.1 9.1c-2.1-1.1-4.1-2-5.8-2.7l.5-.8c2.2.9 4.1 1.8 5.8 2.6zm-1.9-13.6h-3.1v3.7h3.1zm-3.2 4.5v3.7h3.1v-3.7z" fill="#fbfcfa"/><g fill="#010100"><path d="m49.05 357.76c-1.74-1.85-2.88-3.05-4.25-4.5 4.42-4.95 8.92-9.72 13.13-14.73 5.8-6.91 10.86-14.51 17.18-20.88 8.76-8.84 14.29-19.72 20.49-30.11 9.34-15.65 15.89-32.62 19.78-50.48 2.49-11.43 4.21-23.03 6.69-34.47 2.38-10.96 4.87-21.93 8.1-32.66 2.15-7.15-.53-13.31-7.89-14.96-4.16-.93-6.6-4.51-5.93-8.73.09-.6.59-1.47.35-1.74-4.25-4.94.03-5.14 3.24-5.95.79-.2 1.58-.49 2.38-.52 18.04-.69 36.09-1.24 54.13-2.08 7.54-.35 15.06-1.14 22.55-2.08 1.45-.18 3.07-1.71 3.97-3.05 3.53-5.26 7.02-10.27 12.43-14.12 3.68-2.61 5.8-7.37 8.71-11.1 2.06-2.64 4.37-5.1 6.4-7.77.95-1.26 1.83-2.74 2.18-4.25 1.49-6.45 5-11.65 9.5-16.32.76-.79 1.87-2.03 1.69-2.8-1.79-7.7 4.34-12.16 7.13-17.95 4.36-9.06 10.65-17.45 9.97-28.26-.16-2.61-.92-5.2-.9-7.79.02-3.53 2.37-4.6 5.26-2.55 7.19 5.11 14.44 10.13 21.47 15.45 8.33 6.29 8.36 10.78.02 17.61-5.06 4.14-8.03 9.34-9.62 15.53-.94 3.66.52 6.02 4.08 6.37 4.15.41 8.4.48 12.54.06 6.81-.69 13.65-1.52 20.32-3 5.58-1.24 10.85-3.09 14.41-8.64 3.46-5.39 9.17-4.58 13.02.7 4.33 5.95 9.01 11.65 13.37 17.58 1 1.36 1.3 3.22 1.92 4.85-1.62.53-3.28 1.61-4.85 1.49-6.04-.45-12.05-1.41-18.09-1.92-2.99-.25-6.04-.04-9.05.11-4.79.24-9.57.6-14.35.91-.99.06-2.03-.03-2.96.24-8.3 2.35-8.68 2.29-6.66 10.12.9 3.47-.19 6.58-3.47 8.53-4.61 2.73-8.32 5.78-11.18 10.88-4.39 7.81-12.66 8.4-21.54 6.73 3.59-10.27 7.16-20.46 11.01-31.45-5.18-.57-9.52-1.14-13.87-1.45-.75-.05-1.65.85-2.37 1.46-4.98 4.2-8.61 9.79-15.1 12.54-3.35 1.42-5.52 5.54-8.36 8.3-3.88 3.76-7.97 7.31-11.82 11.1-2.79 2.75-5.34 5.74-7.99 8.62.26.57.51 1.14.77 1.72 3.11.56 6.22 1.15 9.35 1.66 4.69.76 9.75-1.67 14.19 1.86.68.54 2.51-.18 3.74-.55 6.54-1.94 12.88-3.15 20.04-2.79 7.79.4 15.67-2.21 21.94-8.56 3.85-3.9 9.33-6.4 14.45-8.69 1.5-.67 4.53 1.21 6.44 2.53 2.61 1.8 4.69 4.37 7.25 6.25 5.07 3.71 5.55 5.5 3.85 11.76-.89 3.29-.98 6.82-1.19 10.26-.43 6.93-.66 13.87-1.05 20.8-.27 4.77-.39 9.58-1.16 14.27-.24 1.45-2.18 3.13-3.72 3.72-1.96.75-5.58-.5-4.89 3.06.54 2.83 2.42 5.76 4.53 7.81 1.91 1.86 5.61 1.99 7.33 3.93 4.81 5.45 4.22 12.27 1.35 18.05-2.46 4.95-3.54 9.66-3.46 15.02.17 11.33.25 22.67-.03 33.99-.13 5.37-1.67 10.72-1.66 16.08s1.55 10.7 1.71 16.07c.25 8.51-.02 17.04-.21 25.55-.09 3.95-.88 7.91-.67 11.83.36 7.03-.81 13.64-3.2 20.25-4.57 12.63-10.81 17.58-24.44 18.5-6.27.43-11.14-4.64-11.42-11.96-.1-2.73.34-5.53-.1-8.2-.92-5.69-5.58-8.5-11.12-7.21-1.43.33-2.96.34-4.44.37-14.77.35-29.54.4-44.29 1.1-12.32.58-24.62 1.73-36.9 2.98-7.1.72-11.34 5.1-13.28 11.98-1.1 3.9-1.85 8.41-4.33 11.3-3.47 4.05-8.33 6.97-12.81 10.04-.49.34-2.92-1.16-3.65-2.31-4.37-6.87-6.38-14.17-5.28-22.58.88-6.75.18-13.71.18-20.58 0-10.02-.1-20.05.05-30.07.06-4.44.95-8.87.89-13.3-.15-11.6-.5-23.21-1.01-34.8-.13-3.04-.96-6.1-1.78-9.06-.34-1.2-1.43-2.95-2.33-3.05-1.13-.13-2.88.9-3.55 1.94-1.65 2.58-2.77 5.49-4.2 8.21-4.01 7.6-7.58 15.49-12.23 22.68-7.26 11.22-15.25 21.96-22.95 32.89-.47.67-1.05 1.28-1.63 1.88-9.74 10.01-19.3 20.18-29.2 30-3.89 3.86-8.55 6.92-13.05 10.5zm226.95-115.67c0-4.5.05-9-.01-13.49-.11-7.23-3.49-10.71-10.61-10.55-5.77.13-11.54.5-17.29 1.05-12.57 1.2-25.12 2.63-37.69 3.88-5.51.55-11.29-1.86-16.56 1.85-.86.6-2.82-.24-4.24-.57-5.95-1.38-15.18 3.23-16.43 8.51-1.32 5.54-2.31 11.16-3.38 16.76-.97 5.09 2.69 9.01 7.89 8.57 16.05-1.37 32.11-2.74 48.16-4.12 5.73-.49 11.52-.65 17.18-1.61 3.89-.66 7.21-.7 8.32 3.57 1.02 3.95-1.15 6.56-5.2 7.05-9.2 1.09-18.41 2.2-27.64 2.95-14.45 1.17-28.93 1.88-43.36 3.2-2.76.25-7.18 1.92-7.67 3.76-1.35 5.15-1.49 10.75-1.19 16.13.16 2.9 2.31 5.18 6.18 5.03 7.02-.27 14.06-.07 21.08-.09.99 0 1.98-.1 2.96-.24 8.39-1.24 16.75-3.04 25.19-3.6 9.45-.63 18.98 0 28.47-.23 3.3-.08 4.28 1.94 4.22 4.16-.05 1.66-1.35 4.13-2.74 4.7-2.47 1.03-5.41 1-8.17 1.23-16.06 1.36-32.13 2.57-48.17 4.02-8.96.81-17.9 1.91-26.82 3.12-.94.13-2.2 1.88-2.37 3.02-.92 5.97-1.3 11.76.62 17.9 2.5 8.01 3.95 9.97 12.62 9.91 23.86-.19 47.74.94 71.54-1.92 6.72-.81 13.59-.36 20.29-1.29 2.27-.31 5.61-2.8 6.01-4.79 1.24-6.19 1.95-12.64 1.67-18.94-.4-9.14-2.4-18.22-2.72-27.37-.5-13.81-.14-27.69-.14-41.56zm-32.21-56.43c-.41.3-1.84 2.21-3.24 2.19-14.52-.16-28.82 1.35-43.1 3.97-7.09 1.3-14.5.7-21.75 1.21-7.04.49-14.06 1.21-21.07 2.02-4.2.48-5.69 2.88-4.62 6.96 1.25 4.81 5.48 6.28 9.39 7.62 9.56 3.27 19.45 2.86 29.47 1.78-.23 1.08-.45 2.09-.47 2.2 5.48-.87 10.96-2.15 16.51-2.53 17.44-1.21 34.92-1.93 52.36-3.18 5.79-.41 11.84-.97 17.17-3.03 5.96-2.29 11.49-6.01 16.71-9.8 2.67-1.93 4.24-5.38 6.49-8.38-7.97-.72-15.31-2.98-21.84-1.55-7.35 1.61-14.48 1.87-21.77 1.78-3.24-.02-6.49-.77-10.24-1.26zm29.76-11c6.76-6.47 4.3-15.33 2.65-23.98-.38-1.99-1.37-4.7-2.88-5.43-2.36-1.15-5.4-1.11-8.17-1.21-8.28-.29-16.52-.2-24.79.86-9.84 1.26-11.66 2.69-12.37 12.59-.05.66.04 1.4-.23 1.96-3.06 6.38.14 11.53 3.32 16.62.52.84 1.73 1.88 2.55 1.82 6.3-.47 12.38 2.08 19.03-.37 6.03-2.23 13-1.9 20.89-2.86zm-87.59-25.66c-3.33 0-6.79-.59-9.94.16-3.49.82-7.96 1.97-9.78 4.55-4.08 5.78-8.13 12.22-9.7 18.98-1.82 7.83-2.31 11.76 8.33 11.31 7.58-.32 15.18-.49 22.74-1.05 7.79-.58 15.11-6.63 15.34-12.51.2-4.98.14-9.98.01-14.97-.11-4.1-2.4-6.33-6.52-6.44-3.49-.1-6.98-.03-10.48-.03z"/><path d="m118.09 112.99c-3.94 6.39-8.65 11.37-14.68 15.32-5.73 3.76-10.87 8.39-16.56 12.22-4.56 3.07-9.45 5.67-14.37 8.13-1.34.67-3.31.1-5.19-.57 6.32-5.88 10.19-14.19 17.6-16.26 3.29-5.17 5.55-9.86 8.85-13.64 4.33-4.96 9.41-9.28 14.32-13.7 2.17-1.95 5.26-3.08 6.96-5.32 2.01-2.64 7.53-3.28 4.99-9.28-.71-1.66 3.93-5.53 6.03-8.46 3.33-4.64 6.58-9.34 9.85-14.02 1.01-1.45 1.68-3.34 3.02-4.31 6.29-4.55 6.67-10.81 5.32-17.51-1.19-5.91.98-8.45 6.89-7.62 5.01.71 10.11 1.05 15.03 2.16 2.26.51 4.62 2.11 6.16 3.89 2.22 2.55 3.82 5.67 5.54 8.63 2.69 4.61-.18 12.91-5.53 16.24-.41.26-1.05.28-1.31.62-1.68 2.2-4.76 4.58-4.59 6.67.28 3.44 4.16 2.93 6.95 2.78 4.77-.26 9.77.15 14.22-1.2 4.65-1.41 8.7-4.7 13.13-6.93 2.34-1.18 5.18-2.92 7.3-2.4 1.44.36 2.22 4.15 2.91 6.52.97 3.36 1.59 6.83 2.32 10.11-15.27.99-30.09 1.96-45.02 2.93-.19 4.28-.32 7.22-.46 10.28 6.88 3.85 11.71 16.27 9.03 23.92-.31.89-.98 1.99-1.77 2.31-4.65 1.92-9.27 4.35-14.14 5.17-3.31.56-6.01-3-6.5-6.12-.68-4.37-.5-8.99.09-13.4.67-4.95 2.36-9.76 3.25-14.69.2-1.13-.87-3.47-1.67-3.62-2.62-.5-5.62-.91-8.04-.09-2.32.79-4.48 2.86-6.06 4.89-2.77 3.55-5.28 7.06-10.29 7.59-.77.08-1.3 1.72-2.07 2.52-3.23 3.44-5.99 7.87-11.51 6.24z"/></g></svg>