<svg enable-background="new 0 0 400 400" viewBox="0 0 400 400" xmlns="http://www.w3.org/2000/svg"><path d="m6.4 11.7c-1-.8-1.9-1.6-2.9-2.3l.6-.7c.9.7 1.9 1.4 2.9 2.2zm-2.1 8.3c.7-2.1 1.4-4.2 2-6.4.2.1.6.3 1 .4-.7 2.3-1.3 4.4-1.9 6.4zm3-12.8c-1.1-.9-2.1-1.7-2.9-2.4l.6-.7c1 .8 2 1.5 3 2.4zm1.4-1.3v-.9h10.2v.9c-.9 4.2-2.3 7.3-4.1 9.4 1.3 1.4 3.2 2.7 5.7 4-.2.2-.4.5-.7.9-2.5-1.4-4.4-2.7-5.7-4.2-1.4 1.5-3.5 3-6.1 4.4 0 0 0 0-.1-.1-.3-.4-.5-.7-.7-.8 2.7-2.3 4.7-2.8 6.2-4.2-1.8-2.2-3-5.3-3.7-9.4zm9.2 0h-7.1c.6 3.8 1.7 6.7 3.4 8.7 1.7-2 2.9-4.8 3.7-8.7z" fill="#fbfcfa"/><path d="m31.6 3.6h.9v2.3h4.1v9.1h1.7v.9h-16.6v-.9h1.7v-9.1h4.1v-2.3h.9v2.3h3.1v-2.3zm-4 13.3.6.8c-1.9.9-3.8 1.9-5.8 2.8-.2-.3-.3-.6-.5-.9 2-.9 3.9-1.8 5.7-2.7zm-3.2-10.1v3.7h3.1v-3.7zm0 4.5v3.7h3.1v-3.7zm4.1-4.5v3.7h3.1v-3.7zm0 4.5v3.7h3.1v-3.7zm9.1 9.1c-2.1-1.1-4.1-2-5.8-2.7l.5-.8c2.2.9 4.1 1.8 5.8 2.6zm-1.9-13.6h-3.1v3.7h3.1zm-3.2 4.5v3.7h3.1v-3.7z" fill="#fbfcfa"/><g fill="#010100"><path d="m56.72 222.26c-.19-.28-.98-2.01-2.27-3.19-2.4-2.2-4.21-5.03-2-7.52 1.52-1.72 5.21-2.86 7.45-2.31 4.28 1.05 7.01-.78 10.27-2.73 5.79-3.46 7.91-9.34 10.95-14.74 2.21-3.93 5.22-7.4 7.72-11.17 2.95-4.44 6.07-8.83 8.4-13.59.86-1.76.42-5.15-.82-6.63-1.02-1.22-4.13-1.04-6.27-.89-3.9.27-7.77 1.25-11.67 1.42-4.92.22-8.28-3.04-10.58-6.72-3.52-5.63-5.28-11.38-2.1-18.44 3.22-7.17 8.88-11.95 13.61-17.68 5.94-7.21 12.52-14.03 17.5-21.86 4.3-6.76 6.84-14.66 9.98-22.13 1.57-3.74 2.56-7.73 4.19-11.45.63-1.44 2.14-2.66 3.51-3.58 1.46-.98 3.33-1.35 4.87-2.25 6.84-4.02 10.81-3.03 15.66 3.39 2.17 2.88 4.85 5.53 7.74 7.68 3.53 2.62 5.04 4.75 2.26 9.19-4.68 7.47-9.85 14.1-17.42 18.99-3.95 2.55-6.85 6.7-10.28 10.06-5.08 4.98-10.2 9.92-15.32 14.87-5.66 5.47-11.58 10.69-16.88 16.49-2.84 3.11-1.61 5.85 2.58 6.46 8.42 1.23 16.87 2.24 25.35 3 4.22.38 6.54-2.41 7.83-6.17 2.98-8.7 6.02-17.37 8.97-26.08.52-1.53.95-3.16 1-4.75.15-4.08 2.1-6.35 4.86-6.76 5.79 5.11 10.83 9.64 15.96 14.07 2.68 2.31 3.3 5.22 1.46 7.93-3.9 5.75-6.72 12.15-12.91 16.46-4.4 3.06-6.72 9.07-11.07 12.27-6.95 5.12-10.08 12.73-14.93 19.21-7.62 10.18-15.45 20.19-23.21 30.26-.6.78-1.36 1.45-2.17 2.3 1.99 4.86 6.75 3.88 10.11 4.12 8.53.62 17.18.72 25.69-.03 3.73-.33 7.31-3.14 10.77-5.14.52-.3.1-2.38-.04-3.62-.95-8.87-1.93-17.74-2.91-26.6.48-.15.96-.3 1.44-.46.68.74 1.49 1.41 2.03 2.24 4.92 7.69 10.21 15.18 14.49 23.21 2.14 4.01 2.64 8.98 3.43 13.59 1.53 8.89-4.85 14.19-9.86 19.88-2.23 2.53-5.45 1.15-6.03-2.2-.47-2.74-.21-5.73-1.22-8.21-.86-2.1-2.79-4.57-4.78-5.21-3.05-.97-3.17 2.08-3.15 4.23.04 7.34-.21 14.72.49 22 .39 4.03 4.33 2.27 6.91 2.37 1.51.06 3.55-.55 4.44.21 6.58 5.64 13.1 11.36 19.31 17.4 9.16 8.91 6.43 18.3.4 27.53-1.52 2.32-3.44 4.39-5.07 6.45-6.49-1.21-7.38-3.38-8.59-9.29-1.51-7.39-.03-15.56-4.84-22.13-3.1-4.24-6.65-8.15-10-12.21-.98.54-1.96 1.07-2.95 1.61 0 4.02.07 8.03-.02 12.05-.17 7.74-.75 15.48-.58 23.21.18 8.05 1.53 16.1 1.42 24.13-.08 5.44-1.7 10.87-2.86 16.26-.28 1.31-1.2 2.89-2.3 3.54-3.35 1.99-5.21 4.52-5.92 8.5-.35 1.97-2.76 3.57-4.21 5.32-10.08-6.68-10.76-15.98-10.7-26.09.08-12.54-1.01-25.09-1.47-37.64-.09-2.39.6-4.81.61-7.22.07-11.66-.04-23.33.08-34.99.03-3.27.47-6.55.94-9.79.72-5.03-1.44-8.03-6.17-7.6-8.8.8-17.58 1.85-26.34 2.96-2.04.26-4.06 1.06-5.96 1.9-2.68 1.18-5.75 3.02-7.95.51-1.28-1.44-.59-4.59-.86-8.2z"/><path d="m219.97 259.26c-3.48-3.06-.63-5.57.37-7.84 2.21-4.99 5.12-9.68 7.26-14.71 4.43-10.42 8.83-20.88 12.66-31.53 2.46-6.84 3.89-14.06 5.8-21.11.13-.46.35-.95.66-1.3 4.93-5.66 4.36-13.04 6.2-19.67 2.09-7.52 4.22-15.03 6.26-22.56 2.67-9.86 5.03-19.82 8.01-29.59 1.15-3.77-.44-4.04-3.16-3.93-7.44.29-14.87.81-22.3.95-9.09.17-9.1.04-11.81-9.16 3.93-1.22 7.82-3.15 11.85-3.54 13.02-1.23 25.97-4.02 39.22-.58 4.55 1.18 9.85-.04 14.72-.77 8.54-1.27 17.22-2.31 25.45-4.76 7.4-2.2 14.31-6.09 21.37-9.37 4.76-2.21 6.84-1.64 8.34 3.31.76 2.5 1.53 3.9 4.43 4.18 1.79.17 3.89 1.38 5.05 2.79 1.32 1.6 1.75 3.93 2.57 5.94-1.68.66-3.31 1.72-5.04 1.93-16.91 2.07-33.84 3.99-50.76 5.99-5.34.63-10.67 1.39-16.21 2.12.24 1.28.12 2.32.58 2.81 4.35 4.61 4.49 6.63 1.16 12.06-2.71 4.41-5.52 8.82-7.58 13.54-.78 1.8-.2 4.84.92 6.57.65 1.01 3.65.98 5.48.68 10.77-1.74 21.44-4.33 32.27-5.31 4.97-.45 10.65.88 13.88 6.46 1.23 2.12 3.81 3.61 6.02 4.98 4.92 3.04 5.7 6.44 2.11 10.88-3.2 3.95-7.05 7.52-9.59 11.85-3.24 5.55-5.78 11.58-8.04 17.62-3.22 8.61-5.98 17.39-8.82 26.14-3.5 10.79-6.43 21.79-10.42 32.4-4.57 12.16-10.02 23.99-15.09 35.97-1.17 2.77-2.31 5.55-4.08 9.8 8.21-.63 14.88-1.17 21.56-1.63 1.85-.13 3.92-.5 5.55.13 6.32 2.45 11.62-.18 16.66-3.24 4.34-2.64 8.55-2.45 11.57.99 2.69 3.07 4.16 7.29 5.77 11.16.22.54-1.65 2.31-2.85 2.96-.9.49-2.28.11-3.45.11-19.36 0-38.72-.19-58.08.09-7.88.11-15.73 1.68-23.61 1.79-9.59.14-19.2-.59-28.8-.87-4.01-.11-8.09.38-12.04-.12-4.48-.57-8.38-5.08-7.74-9.23.27-1.74 3.01-4.46 4.6-4.43 10.22.15 20.43 1.04 30.65 1.48 6.64.28 13.31.34 19.95.11 1.13-.04 2.67-1.89 3.21-3.22 2.94-7.19 5.57-14.51 8.43-21.74 1.3-3.3 3.01-6.44 4.29-9.74 3.27-8.47 6.35-17.02 9.61-25.5 2.61-6.79 3.74-13.72 4.27-21.02.42-5.83 3.35-11.45 4.98-17.21 3.13-11.08 6.15-22.2 9.17-33.31 1.19-4.37.18-5.45-4.51-5.11-9.19.66-18.38 1.4-27.57 1.91-7.28.4-10.34 4.58-12.07 11.24-1.87 7.19-4.64 14.18-7.4 21.11-4.12 10.35-7.64 21.11-13.14 30.72-6.41 11.21-14.61 21.4-22.17 31.94-1.79 2.51-4.11 4.65-6.58 7.39z"/><path d="m182 320.83c.77-6.37 2.37-15.63 2.85-24.94.4-7.73-1.28-15.58-.72-23.28 3.33-46.43 2.98-92.91 2.93-139.4-.01-10.1 1.3-20.24.75-30.29-.52-9.57-2.45-19.1-4.18-28.57-.78-4.26-1.34-8.12 2.02-11.49 3.31-3.32 7.05-2.54 10.68-.84 4.27 2.01 8.64 3.95 12.49 6.62 1.67 1.16 3.03 4.05 3 6.13-.05 4.19-1.04 8.39-1.83 12.55-.88 4.62-2.41 9.16-2.88 13.81-.72 7.23-.86 14.52-1.09 21.79-.4 12.76-.85 25.53-.98 38.3-.17 16.36-.04 32.73-.04 49.1 0 13.03.38 26.08-.13 39.1-.42 10.82-2.33 21.58-2.69 32.4-.23 6.83.75 13.79 1.92 20.56 1.58 9.1-1.14 17.41-3.79 25.74-.96 3.02-2.81 5.81-4.53 8.53-2.09 3.29-4.93 2.76-7.7.89-5.97-4.04-6.08-4.35-6.08-16.71z"/><path d="m40.01 311.76c.32-.52.82-2.33 1.99-3.08 12.67-8.13 16.06-21.52 20.03-34.64 2.25-7.43 4.35-14.93 7.21-22.13.83-2.1 3.87-4.11 6.19-4.54 1.31-.24 4.26 2.57 4.71 4.43 3.57 14.67 7.07 29.81-1.62 43.62-4.43 7.04-11.41 12.51-17.42 18.51-2.42 2.41-5.23 4.48-8.04 6.44-7.29 5.08-12.26 2.56-13.06-6.5-.02-.34.01-.67.01-2.11z"/><path d="m167.34 119.87c1.94 4.21 4.05 8.35 5.77 12.64 2.89 7.22 6 14.15 6.17 22.43.2 9.81-2.88 17.87-8.12 25.67-1.9 2.83-3.8 5.73-7.5 4.37-3.61-1.33-5.85-7.11-4.33-10.58 4.16-9.47 4.9-19.55 5.63-29.62.58-8.04.85-16.1 1.26-24.15.38-.25.75-.51 1.12-.76z"/><path d="m259.14 273.52c-4.9-5.18-6.3-10.33-6.3-16.45 0-7.35-1.29-14.69-1.77-22.04-.13-1.97.67-4 1.17-6.7 2.14 1.04 3.83 1.45 4.93 2.48 4.47 4.23 9.1 8.36 13.01 13.07 4.93 5.94 6.16 13.51-.14 20.41-3.14 3.43-7.15 6.09-10.9 9.23z"/><path d="m233.67 159c-5.35 2.01-7.26-3.25-9.4-6.69-6.09-9.75-7.8-20.75-7.22-32.11.16-3.07 1.58-4.12 4.49-2.19 4.24 2.81 7 6.39 8.63 11.4 1.48 4.55 4.41 8.61 6.66 12.92 1.43 2.74 3.24 5.38 4.07 8.3 2.1 7.39 1.2 8.37-7.23 8.37z"/><path d="m274 193.26c0-3.82-.09-7.65.03-11.46.11-3.41 2.66-4.94 5.04-2.61 2.53 2.49 4.08 6.03 5.87 9.21.85 1.52.81 3.87 1.99 4.82 4.24 3.4 3.52 6.97 1.04 10.8-1.24 1.91-2.33 4.19-4.11 5.39-1.7 1.15-4.64 2.06-6.24 1.34-1.69-.76-3.18-3.49-3.46-5.54-.54-3.92-.16-7.96-.16-11.95z"/></g></svg>