<svg enable-background="new 0 0 400 400" viewBox="0 0 400 400" xmlns="http://www.w3.org/2000/svg"><path d="m123.14 46.05c2.16-.08 4.44-.7 6.34-.11 4.49 1.39 8.75 3.52 13.2 5.04 5.51 1.89 11.11 3.51 16.68 5.18 6.67 2 9.2 6.53 7.84 13.44-1.2 6.1 4.29 15.11 13.1 15.37 5.99.18 12 .03 18 .03 2 0 4 .09 6-.02 4.17-.22 7.95 1.69 7.98 5.46.02 1.83-4.63 4.8-7.51 5.33-7.24 1.33-14.68 1.49-22.02 2.26-2.25.24-4.52.73-6.67 1.44-4.96 1.66-8.17 4.52-7.15 10.49.44 2.59.23 5.33.04 7.98-.45 6.54.8 12.87-3.29 19.43-4.68 7.5-1.14 14.13 8.14 20.58 1.87 1.3 3.97 2.4 5.52 4.02 4.12 4.33 1.5 11.69-4.81 12.88-3.79.71-5.89 2.05-7.11 5.97-1.08 3.48-3.7 6.47-5.54 9.73-1.91 3.39-1.05 5.74 2.52 7.58 7.96 4.1 16.43 4.15 25 3.62 2.12-.13 4.22-.59 6.34-.75 5.25-.4 10.82.28 15.71-1.25 10.74-3.36 21.73-2.87 32.64-3.99 13.55-1.39 27.55-1.79 40.1-7.98 5.5-2.71 10.23-6.99 15.27-10.61 6.21-4.46 11.57-2.98 17.05 1.7 4.32 3.69 9.12 6.88 13.96 9.88 5.38 3.33 7.62 7.21 6.38 12.5-1.19 5.04-5.16 7.39-11.36 7.8-11.31.75-22.59 2.6-33.9 2.75-11.86.16-23.73-1.53-35.6-1.65-6.3-.07-12.61 1.48-18.92 2.28-1.79.23-3.58.48-5.38.54-20.7.69-41.39 1.32-62.09 2.04-4.67.16-7.69 3.26-7.56 7.83.14 4.77 1.15 9.57.83 14.29-.56 8.2.37 16.24.95 24.37.52 7.37-.79 14.86-.71 22.29.05 4.69 1.57 9.36 1.7 14.06.12 4.33 3.09 5.43 6.02 5.9 11.67 1.87 23.35 2.42 35.17.43 8.12-1.36 16.44-1.58 24.68-2.15 1.56-.11 3.18.76 4.76.74 2.76-.05 5.51-.4 8.26-.7 2.91-.31 5.8-.88 8.72-1.04 10.1-.54 20.22-.74 30.31-1.48 7.01-.51 13.94-2.03 20.95-2.49 9.34-.61 18.46-.98 26.54-6.94 3.53-2.6 8.2-4.12 12.57-5.01 8.93-1.81 14.31 4.64 19.67 10.08 2.64 2.68 4.75 6.31 5.98 9.89 3.11 9.05-3.21 17.8-13.18 17.79-22.26-.02-44.57.15-66.77-1.19-12.3-.74-24.29.63-36.43 1.04-13.16.44-26.4-1.68-39.59-1.55-9.44.1-18.86 2.05-28.28 3.22-3.89.48-7.85.72-11.62 1.68-5.79 1.47-9.55 4.26-8.1 13.1.9 5.53.81 11.31.46 16.94-.32 5.11-4.58 7.15-8.9 7.72-4.99.66-10.64 1.17-13.23-4.72-1.73-3.95-3.37-8.24-3.64-12.47-.77-12.41-.89-24.85-1.14-37.29-.39-19.77-.4-39.56-1.19-59.31-.24-6.05-2.27-12.09-4.11-17.95-.33-1.05-4.53-2.25-5.54-1.5-12.33 9.2-24.23 18.98-36.6 28.11-6.27 4.63-13.38 8.1-19.92 12.38-5.25 3.44-9.93 7.83-15.38 10.89-6.77 3.8-14.05 6.7-21.17 9.84-.61.27-2.04-.35-2.5-.98-.36-.51-.14-2.01.37-2.48 2.73-2.5 5.27-5.69 8.53-7.01 8.11-3.27 14.08-8.71 19.23-15.52 2.23-2.95 5.21-5.34 7.85-7.98 13.41-13.41 26.48-27.18 40.37-40.09 9.13-8.48 13.37-19.72 19.58-29.87 4.19-6.85 8.27-13.78 12.71-20.47 4.32-6.51 5.32-13.62 5.23-21.19-.08-7.32.89-14.7.31-21.96-.43-5.35-2.48-10.61-4.17-15.79-.27-.83-2.54-1.58-3.78-1.43-7.46.89-14.87 2.08-22.31 3.11-9.4 1.3-18.8 2.54-28.21 3.79-.66.09-1.33.06-2 .05-3.98-.04-9.47 1.54-11.62-.47-4.74-4.43-8.58-10.27-8.75-17.49-.07-2.75 1.13-4.1 3.73-3.77 17.41 2.2 34.7 1.35 52.02-1.17 4.18-.61 8.38-.47 11.55-3.77 5.35-5.57 3.87-12.47 1.94-18.34-2.49-7.55-6.88-14.51-11.05-22.93z" fill="#010103"/><path d="m339.29 102.52c-11.49-.61-20.08-1.42-28.67-1.43-9.14-.01-11.32 2.66-11.83 11.59-.49 8.46.51 17.43-4.71 25.16-3.8 5.63-9.19 8.72-15.59 10.06-5.32 1.11-9.91-3.23-10.49-9.24-.57-5.85-1.67-11.69-1.77-17.55-.07-4.11 1.48-8.23 1.69-12.38.26-5.21-1.49-6.73-6.56-6.74-6-.01-12-.18-17.99.05-4.84.18-6.11-3.5-7.21-6.7-1.28-3.73.98-6.08 4.76-6.35 6.74-.48 13.5-.9 20.25-.91 3.45-.01 4.64-1.38 4.87-4.56.57-7.86 2.02-15.73 1.73-23.55-.22-5.93-2.9-11.58-7.29-16.13-1.17-1.21-1.68-3.06-2.5-4.62 1.6-.41 3.19-1.1 4.81-1.19 13.96-.74 26.62 4.52 39.31 9.13 7.65 2.78 8.18 7.38 3.42 13.94-3.94 5.43-6.66 11.55-2.65 18.12 1.06 1.73 3.76 3.74 5.5 3.57 11.44-1.12 23.23-1.15 32.47-9.96 3.91-3.73 9.26-4.12 13.76-1.42 5.7 3.43 11.07 7.56 16.09 11.94 3.26 2.85 2.11 7.73-1.62 10.09-3.41 2.16-6.52 5.49-10.22 6.37-7.28 1.75-14.88 2.12-19.56 2.71z" fill="#010103"/><g fill="#fafbfc"><path d="m361.2 9.6.8-1c.9.7 1.9 1.4 2.9 2.3l-.9 1.1c-1-1-2-1.8-2.8-2.4zm.5 10.6c.9-2.1 1.6-4.3 2.3-6.7.4.2.8.4 1.3.6-.7 2.1-1.5 4.3-2.2 6.6zm.4-15.2.9-.9c1 .8 2 1.6 2.8 2.4l-1 1c-.9-.9-1.8-1.7-2.7-2.5zm12.5-1.2h1.2v1.4h2.7v1.1h-2.7v2.7h-1.2v-.6h-1.8v1.3h4.9v3.8h-1.2v-.5h-3.7c0 .4-.1.9-.1 1.2h5.1v1h-5.2c0 .5-.1.9-.2 1.2h6v1h-5.2c1.1 1.3 2.9 2 5.5 2.3-.4.4-.7.8-.9 1.3-2.9-.5-4.8-1.6-5.7-3.5h-.1c-.8 1.7-2.7 2.9-5.9 3.6-.2-.4-.6-.8-.9-1.1 2.8-.6 4.6-1.4 5.4-2.5h-4.8v-1h5.3c.1-.3.2-.7.2-1.2h-4.9v-1h5c0-.4 0-.8.1-1.2h-3.5v.5h-1.2v-3.9h4.9v-1.3h-1.8v.5h-1.2v-2.7h-2.7v-1h2.6v-1.4h1.2v1.4h4.7v-1.4zm-6.6 8.3h3.6c0-.4 0-.9 0-1.4h-3.6zm1.9-4.6h4.7v-1.3h-4.7zm6.6 3.2h-3.7v1.4h3.7z"/><path d="m385.3 3.8h1.3v2.2h2.8v-2.2h1.3v2.2h4.1v9.1h1.7v1.3h-16.9v-1.3h1.7v-9.1h4.1v-2.2zm.4 13.1.7 1.2c-1.8.9-3.8 1.9-6 2.9-.2-.4-.5-.8-.8-1.3 2.3-1 4.3-1.9 6.1-2.8zm-3.1-6.4h2.8v-3.2h-2.8zm0 4.6h2.8v-3.3h-2.8zm4-4.6h2.8v-3.2h-2.8zm0 4.6h2.8v-3.3h-2.8zm3.7 1.9c2.1.9 4.1 1.8 6.1 2.7l-.7 1.3c-2.2-1.1-4.2-2-6.1-2.9zm3.2-9.7h-2.8v3.2h2.8zm-2.8 7.8h2.8v-3.3h-2.8z"/></g></svg>