<svg enable-background="new 0 0 400 400" viewBox="0 0 400 400" xmlns="http://www.w3.org/2000/svg"><path d="m374.8 390.4.4-.4c.7.5 1.3 1 1.8 1.4l-.5.5c-.5-.6-1.1-1.1-1.7-1.5zm1 7.3-.6-.3c.5-1.4 1.1-2.8 1.5-4.3.2.1.4.2.6.3-.5 1.3-1 2.8-1.5 4.3zm-.4-10.3.5-.4c.4.3 1 .8 1.7 1.4l-.5.5c-.5-.5-1.1-1-1.7-1.5zm2.5.3h1.7v-1h.6v1h3.5v-1h.6v1h1.8v.5h-1.8v1.4h-2v1h3.2v2h-3.2v.9h3.3v.5h-3.4c0 .3-.1.6-.1.9h4v.5h-3.7c.7.9 1.9 1.5 3.8 1.7-.1.2-.2.4-.3.6-2.1-.4-3.5-1.1-4-2.1-.4 1-1.8 1.7-4 2.2-.1-.2-.2-.4-.3-.6 2.1-.4 3.4-1 3.8-1.8h-3.4v-.5h3.6c.1-.3.1-.6.2-.9h-3.3v-.5h3.4c0-.3 0-.6 0-.9h-3.2v-2h3.3v-1h-2.1v-1.4h-1.7v-.5zm1.1 3.5v1h2.7c0-.3 0-.4 0-.4 0-.1 0-.2 0-.2 0-.1 0-.2 0-.3h-2.7zm1.2-3v.9h3.5v-.9zm4.7 3h-2.6v.6.4h2.6z" fill="#fcfbfa"/><path d="m393.6 386.7h.6v1.5h2.7v6.1h1.1v.6h-11v-.6h1.1v-6.1h2.7v-1.5h.6v1.5h2.1v-1.5zm-2.7 8.8.4.6c-1.2.6-2.5 1.3-3.8 1.9-.1-.2-.2-.4-.3-.6 1.2-.6 2.5-1.2 3.7-1.9zm-2.2-6.7v2.4h2.1v-2.4zm0 3v2.5h2.1v-2.5zm2.8-3v2.4h2.1v-2.4zm0 3v2.5h2.1v-2.5zm6 6.1c-1.4-.7-2.7-1.3-3.9-1.8l.3-.6c1.5.6 2.7 1.2 3.9 1.7zm-1.2-9.1h-2.1v2.4h2.1zm-2.1 3v2.5h2.1v-2.5z" fill="#fcfbfa"/><g fill="#010103"><path d="m78.65 285.15c1.82 1.42 3 2.33 5 3.9 1.57-8.86 3.45-16.61 4.21-24.47.89-9.21 1.52-18.57.94-27.78-.61-9.59.42-18.95.84-28.43.45-10.02-2.03-20.15-3.01-30.26-.22-2.26-.35-5.44.94-6.68 1.22-1.18 4.37-.55 6.65-.43 4.61.25 9.27 1.35 13.79.88 5.31-.55 8.7-5.2 8.97-10.56.11-2.16.54-4.51-.13-6.45-.63-1.83-2.46-4.55-3.86-4.6-8.83-.35-17.69-.27-26.53.06-8.06.3-16.1 1.26-24.16 1.59-4.32.18-4.69-3.99-5.11-6.68-.65-4.25-3.72-9.12 1.11-12.82.99-.76 2.9-.45 4.38-.4 17.86.63 35.71 1.3 53.57 1.98 6.48.25 12.85.07 18.25-4.64-.48-6.09-1.17-12.58-1.44-19.09-.16-3.81-1.78-5.88-5.45-5.2-6.54 1.2-12.95 3.15-19.5 4.3-11.74 2.06-23.52 3.89-35.33 5.55-4.38.62-7.07-1.53-7.85-6.16-.81-4.81-2.01-9.55-3.16-14.29-.66-2.7.5-3.58 2.96-3.47 7.09.31 14.2 1.02 21.28.8 5.68-.18 11.31-1.6 16.99-2.24 2.38-.27 4.86-.17 7.25.11 7.11.83 14.21 1.94 21.04-1.39 2.62-1.27 3.81-2.82 2.97-6.12-.72-2.82-.83-6.11-.13-8.92 1.49-6.02-2.15-9.67-5.13-13.88-1.27-1.8-1.69-4.2-2.5-6.33 1.96-.68 3.99-2.09 5.87-1.91 11.23 1.11 22.45 2.39 33.6 4.12 1.87.29 4.76 3.06 4.72 4.64-.06 2.96-1.7 5.99-3.11 8.77-.7 1.37-3.22 2.13-3.4 3.38-.4 2.89-.38 6.05.41 8.83.75 2.63 7.74 4.03 11.25 2.77.3-.11.53-.39.83-.52 8.3-3.68 8.38-3.74 14.08 3.29 1.11 1.37 2.37 4.3 1.76 5.04-1.37 1.68-3.75 3.01-5.93 3.45-3.83.77-7.81.82-11.74 1.07-6.24.4-9.9 5.54-9.6 11.63.36 7.19-2.41 12.02-7.54 16.23-.9.74-2.05 1.5-2.4 2.49-.7 1.96-1.61 4.29-1.08 6.07.29.97 3.54 1.89 5.13 1.5 8.35-2.07 16.7-4.22 24.81-7.05 3.76-1.31 5.83.05 8.32 2.14 3.87 3.23 4.56 7.57 2.92 11.64-.71 1.76-4.31 2.92-6.75 3.27-3.76.54-7.65.14-11.48.14-10.03 0-18.58 8.19-19.18 18.38-.22 3.67 4.3 7.27 8.99 6.49 2.77-.46 5.76-1.66 7.9-3.42 6.63-5.45 15.2-5.52 21.43.45 1.43 1.37 2.53 3.09 3.58 4.41 13.52-6.56 18.1-17.84 20.1-30.78.52-3.37.54-7.05 1.97-10.02 4.81-10 .39-20.1.75-30.11.13-3.49-2.66-6.77-7.31-6.39-.5.04-1-.02-1.5.01-9.75.65-14.94-2.61-13.99-13.8.39-4.63 2.62-6.86 7.17-6.19.49.07 1.24-.01 1.42.27 3.12 4.8 6.32 1.26 9.54.19 2.17-.72 5.4-.54 6.4-1.98 1.78-2.56 3.56-6.34 2.95-9.08-1.13-5.06-3.96-9.75-6.12-14.58-.72-1.62-1.81-3.11-2.3-4.79-1.07-3.7 1.09-6.21 4.87-6 11.68.66 23.36 1.66 35.05 1.78 5.23.06 7.92 2.72 10.12 6.48 2.4 4.11.33 13.32-1.85 17.32-1.97 3.62-2.64 8.21-2.8 12.42-.05 1.22 3.49 3.38 5.61 3.73 6.63 1.09 13.37 1.51 20.07 2.22 2.27.24 4.53.66 6.8.89 4.23.43 8.22.28 11.26-3.47 2.7-3.33 5.57-6.53 8.56-9.61 1.4-1.45 3.09-2.96 4.93-3.55 2.47-.79 5-1.4 6.75 2.28 2.62 5.5 6.96 10.25 9.12 15.87 2.66 6.9-1.35 11.56-8.77 11.57-14.5.03-29 .1-43.5-.04-5.79-.06-11.58-.65-17.37-.95-4.45-.24-6.71 3.11-7.69 6.33-2.45 8.05-7.92 13.37-14.24 18.23-2.73 2.1-5.32 4.39-7.99 6.6 2.38 4.36 6.21 8.35 6.29 12.4.09 4.22-3.46 8.5-5.41 12.77 9.78 4.29 15.76 4.47 21.59-3.27 2.07-2.74 3.91-5.69 6.24-8.19 4.5-4.83 5.59-10.79 6.36-16.95.16-1.27.54-2.54.92-3.77 2.43-7.7 2.6-7.6 10.05-3.8 4.15 2.12 8.95 3.01 13.01 5.27 6.13 3.41 5.73 8.74-.21 12.5-3.64 2.31-7.37 4.8-10.19 7.98-3.24 3.65-1.59 8.48 2.97 9.63 8.43 2.12 16.95 2.19 25.18-.89 1.7-.64 3.55-2.78 3.98-4.56 1.03-4.28 3.67-3.79 6.36-2.64 5.17 2.22 8.77 6.18 10.52 11.52 1.9 5.82-1.08 9.78-7.22 9.82-10 .06-20.07.78-29.98-.21-9.16-.91-17.2 10.2-12.97 17.95 9.27 1.89 15.85-4.87 23.77-7.63 3.49 2.59 6.91 5.42 10.61 7.81 5.39 3.49 7.27 8.06 6.34 14.46-.54 3.73-2.42 3.71-5.1 3.59-2.18-.1-4.38.07-6.56 0-3.81-.11-7.74.25-11.4-.57-6.37-1.43-15.66 1.19-18.08 5.24-2.03 3.41.36 10.08 2.61 12.12 3.29 2.98 9.81 2.88 13.19-.08 1.49-1.31 2.89-2.78 4.07-4.37 2.69-3.63 6.51-5 9.46-1.98 4.41 4.51 8.18 9.73 11.61 15.05 1.8 2.79-1.65 6.55-5.79 6.6-8.67.09-17.36.47-25.99-.13-5.52-.39-8.17 2.05-10.27 6.44-2.97 6.21-2.67 12.15 1.77 14.62 3.15 1.75 7.01 2.38 10.65 3.02 2.59.45 5.32.06 7.98.1 5.78.08 10.06-1.86 13.51-7.06 6.02-9.08 7.02-10.17 16.15-1.47 3.78 3.61 6.61 7.6 6.12 13.36-.41 4.95-2.15 7.06-7.3 7.14-5.86.09-11.75-.29-17.58.09-11.48.75-22.93 2.11-34.42 2.78-5.93.35-11.93-.54-17.88-.32-6.15.23-12.27 1.21-18.42 1.69-10.7.84-14.08 11.12-22.52 16.66 5.09 5.7 9.09 12 14.72 16.02 7.49 5.35 12.31 12.48 13.94 20.61 1.02 5.1-2.44 11.32-4.56 16.78-2.44 6.28-8.31 7.05-13.63 5.48-6.25-1.85-10.55-6.9-12.23-13.19-1.17-4.37-.82-9.13-1.2-13.71-.28-3.43-.88-6.85-.88-10.27 0-1.98.91-3.95 1.5-6.3-2.59-2.52-3.68-5.63-2.9-10.08.47-2.7-1.19-6.37-3-8.77-4.38-5.83-5.58-11.84-4.09-18.97 1.1-5.28 1-10.81 1.38-16.23.66-9.36 1.86-18.73 1.77-28.09-.12-12.22-1.25-24.43-2.04-36.63-.06-.85-.89-1.65-1.34-2.43-8.47 2.12-15.53 13.95-13.79 22.22.87 4.16 1.09 8.48 1.36 12.74.45 6.93.73 13.86 1.04 20.8.36 8.16 1.87 16.48.75 24.44-2.04 14.5-7.01 27.78-22.52 33.76-3.35 1.3-4.64.1-5.17-2.77-1.93-10.27-1.9-10.64-12.16-10.18-14.65.66-29.28 1.76-43.89 3.1-2.13.2-4.77 2.3-5.95 4.26-6.24 10.38-7.45 10.86-17.89 5.18-.42-.23-.87-.39-1.86-.84-.32 1.5-1.17 3.02-.77 4.05 1.97 5.12 4.05 10.22 6.51 15.12 6.88 13.72 4.03 36.72-11.52 46.26-8.67 5.32-15.72 5.33-18.88-1.25-3.12-6.5-3.7-13.24-.92-20.4 4.11-10.57 7.72-21.35 10.97-32.22 1.48-4.96 1.52-10.34 2.35-15.51.32-1.9 1.04-3.69 1.63-5.73zm89.35-63.15c-4.41 0-8.22 0-12.02 0-10.46 0-12.86-2.48-13.02-12.76-.12-7.45 1.93-15.02-1-22.32-.43-1.07-1.4-2.68-2.15-2.69-1.12-.02-2.7.88-3.3 1.87-.87 1.43-1.22 3.26-1.47 4.97-.65 4.36-.34 9.05-1.84 13.07-3.01 8.06-7.06 15.74-10.49 23.65-1.32 3.05-2.12 6.32-3.49 10.48 5.2-.5 9.23-1.14 13.28-1.23 8.32-.18 16.68-.45 24.98.05 10.33.61 10.85-3.3 10.54-10.96-.06-1.13-.02-2.29-.02-4.13zm-45.22 46c0 .04.01.08.01.12 13.93-1.05 27.86-2 41.76-3.28 1.59-.15 3.77-1.77 4.36-3.24 1.18-2.94 1.67-6.21 2.04-9.39.51-4.44-2.64-5.31-6.02-5.08-7.02.47-14.01 1.3-21.03 1.86-9.33.74-18.68 1.34-28.01 2.06-.76.06-1.53.46-2.21.85-3.4 1.99-5.16 8.44-3.59 13.77 1.2 4.07 4.72 1.87 7.21 2.28 1.78.28 3.65.05 5.48.05zm-14.15-46.05c.84.17 1.67.34 2.51.51 1.94-3.95 4.87-7.72 5.6-11.89 1.18-6.74.9-13.73 1.26-20.62.18-3.38-.54-5.92-4.68-5.98-4.26-.06-6.37 1.83-6.34 6.16.06 7.13-.16 14.27.09 21.39.12 3.5 1.02 6.96 1.56 10.43zm136.38 10.15c-2.22 1.35-5.72 2.24-6.41 4.14-1.77 4.87-2.56 10.17-3.09 15.37-.1.97 2.78 3.1 4.42 3.25 8.72.78 11.08-1.42 13.34-11.43 1.35-6.06-1.86-10.42-8.26-11.33zm-73.07-40.67c-.31-.09-.63-.18-.94-.28 0-1.83-.16-3.67.03-5.47.42-3.85-1.38-5.1-4.95-4.7-1.31.14-2.66-.08-3.98.05-3.68.36-5.7 2.07-5.06 6.15.23 1.47-.33 3.04-.31 4.56.06 3.5-.38 7.21.66 10.43.55 1.71 3.66 3.37 5.76 3.58 1.71.17 4.52-1.43 5.28-3 1.69-3.53 2.4-7.52 3.51-11.32zm80.89-24.42c-4.89 0-9.35-.2-13.78.06-4.08.24-6.08 2.82-6.03 6.86.04 3.59-1.32 8.8 4.15 8.85 12.94.13 16.6 3.76 15.82-12.66-.03-.82-.08-1.63-.16-3.11zm.17 42.02c.01-5.9-2.31-8.06-8.55-7.99-6.69.07-11.19 3.96-11.52 9.39-.29 4.79 2.65 8.35 11.26 8.56 6.65.15 8.31-2.33 8.81-9.96z"/><path d="m331.64 351.35c-8.26-1.07-13.88-5.1-18.13-10.58-6.2-7.97-11.6-16.55-17.56-24.71-2.13-2.92-5.02-5.27-7.36-8.04-2.2-2.61-4.02-5.56-6.24-8.16-1.54-1.8-3.58-3.15-5.22-4.87-4.07-4.25-8.23-8.46-11.94-13.02-.91-1.12-.21-3.53-.26-5.35 1.87.08 3.91-.31 5.57.32 7.96 3.07 15.84 6.38 23.71 9.69 7.24 3.04 14.25 6.8 21.71 9.12 7.81 2.43 14.49 6.36 20.99 11.13 7.24 5.31 12.05 13.46 8.9 23.35-1.98 6.22-5.58 11.99-8.95 17.66-1.06 1.77-3.76 2.55-5.22 3.46z"/><path d="m144.45 288.38c3.09 2.28 6.17 4.56 9.26 6.83 3.94 2.89 7.76 5.98 11.88 8.61 6.3 4.02 12.85 7.64 19.16 11.64 1.07.68 1.89 2.27 2.18 3.58 2.49 11.41-7.75 23.54-13.9 27.28-4.4 2.68-15.04-.47-17.75-6.01-3.39-6.91-5.87-14.34-8.15-21.72-1.95-6.33-3.28-12.87-4.41-19.41-.57-3.3-.1-6.78-.1-10.17.61-.21 1.22-.42 1.83-.63z"/></g></svg>