<svg enable-background="new 0 0 400 400" viewBox="0 0 400 400" xmlns="http://www.w3.org/2000/svg"><path d="m6.4 11.7c-1-.8-1.9-1.6-2.9-2.3l.6-.7c.9.7 1.9 1.4 2.9 2.2zm-2.1 8.3c.7-2.1 1.4-4.2 2-6.4.2.1.6.3 1 .4-.7 2.3-1.3 4.4-1.9 6.4zm3-12.8c-1.1-.9-2.1-1.7-2.9-2.4l.6-.7c1 .8 2 1.5 3 2.4zm1.4-1.3v-.9h10.2v.9c-.9 4.2-2.3 7.3-4.1 9.4 1.3 1.4 3.2 2.7 5.7 4-.2.2-.4.5-.7.9-2.5-1.4-4.4-2.7-5.7-4.2-1.4 1.5-3.5 3-6.1 4.4 0 0 0 0-.1-.1-.3-.4-.5-.7-.7-.8 2.7-2.3 4.7-2.8 6.2-4.2-1.8-2.2-3-5.3-3.7-9.4zm9.2 0h-7.1c.6 3.8 1.7 6.7 3.4 8.7 1.7-2 2.9-4.8 3.7-8.7z" fill="#fbfcfa"/><path d="m31.6 3.6h.9v2.3h4.1v9.1h1.7v.9h-16.6v-.9h1.7v-9.1h4.1v-2.3h.9v2.3h3.1v-2.3zm-4 13.3.6.8c-1.9.9-3.8 1.9-5.8 2.8-.2-.3-.3-.6-.5-.9 2-.9 3.9-1.8 5.7-2.7zm-3.2-10.1v3.7h3.1v-3.7zm0 4.5v3.7h3.1v-3.7zm4.1-4.5v3.7h3.1v-3.7zm0 4.5v3.7h3.1v-3.7zm9.1 9.1c-2.1-1.1-4.1-2-5.8-2.7l.5-.8c2.2.9 4.1 1.8 5.8 2.6zm-1.9-13.6h-3.1v3.7h3.1zm-3.2 4.5v3.7h3.1v-3.7z" fill="#fbfcfa"/><g fill="#010100"><path d="m200.82 336.18c1.67-6.75 6.79-6.68 11.11-7.09 10.17-.97 20.4-1.29 30.57-2.25 1.6-.15 3.97-2.06 4.35-3.56 1.42-5.67 2.81-11.48 3.02-17.29.45-11.98 0-23.99.17-35.99.18-12.77.58-25.53.99-38.3.21-6.6.55-13.21 1.01-19.8.26-3.61-.93-5.07-4.76-4.99-9.7.21-19.19.82-28.7 3.54-7.94 2.27-16.46 2.66-24.77 3.45-4.76.45-11.38-8.58-9.66-12.96 1.09-2.76 3.37-4.03 6.69-4.04 6.46-.02 12.96-.19 19.35-1.01 10.52-1.34 20.92-3.66 31.46-4.8 15.84-1.71 31.77-2.62 47.63-4.2 4.13-.41 8.12-2.11 12.21-3.06 2.38-.55 4.82-.88 7.25-1.16 10.2-1.15 14.14-9.56 19.21-16.59 4.21-5.83 6.48-6.75 12.13-2.99 8.86 5.89 17.96 11.67 24.05 20.73 1.09 1.63 1.86 5.29 1.03 6.02-1.79 1.57-4.66 2.24-7.18 2.55-6.45.81-12.95 1.18-19.42 1.81-5.54.54-11.07 1.24-16.61 1.78-10.89 1.05-21.96.79-32.39 4.97-4.41 1.77-4.8 2.9-1.58 6.51 5.03 5.65 5.81 10 1.03 15.78-6.2 7.49-5.16 15.62-4.42 24.22.73 8.47.68 17.04.4 25.54-.3 8.88-1.19 17.74-2.03 26.59-.42 4.37-.87 8.81-2.07 13-1.95 6.81-3.55 14-7.08 19.99-4.19 7.12-10.11 13.26-15.57 19.57-3.52 4.07-7.31 8-11.44 11.45-6.14 5.12-13.91 3.33-16.78-3.9-4.06-10.22-11.5-16.3-21.68-19.68-2.68-.89-5.09-2.57-7.52-3.84z"/><path d="m290.36 115c-14.85 1.03-29.8.67-44.24 5.68-5.59 1.94-11.92 1.68-17.87 2.71-5.53.95-7.53 4.12-7.43 10.06.23 13.83-7.21 23.84-18.29 31.15-3.48 2.3-8.24 3.05-11.86.1-3.68-3-2.61-7.37-1.37-11.35 4.48-14.47 7.31-29.28 9.75-44.2 1.01-6.14.72-12.13.38-18.31-.21-3.86-.77-7.97-.34-11.93.17-1.58 1.45-3.05 2.23-4.56 1.47 1.01 3.69 1.7 4.29 3.09 2.71 6.26 4.98 12.71 7.37 19.11.45 1.22.68 2.52 1.14 3.73 3.18 8.47 4.99 9.71 14.07 9.71 15.08 0 15.7-.05 14.56-15.21-.65-8.63-3.7-17.08-5.73-25.6-.6-2.52-1.21-5.07-2.16-7.47-1.84-4.65-3.87-9.22-5.9-13.79-2.39-5.35-.71-10.16 4.25-10.8 3.6-.46 7.54-.85 10.93.14 13.09 3.8 26.08 7.99 38.98 12.39 6.54 2.23 7.87 6.03 3.96 11.56-4.25 6.01-6.38 12.31-6.23 19.7.08 3.67-1.94 7.41-1.72 11.03.59 9.87 2.9 11.01 11.69 12.15 11.6 1.5 18.88-3.58 23.42-13.73.27-.6.5-1.23.87-1.75 4.51-6.26 5.68-9.97 15.32-4.36 9.43 5.49 18.59 11.47 27.7 17.49 7.47 4.94 7.42 18.79-2.81 25.08-9.02 5.55-18.47 10.18-29.07 12.38-5.33 1.11-10.24 4.14-15.51 5.72-5.47 1.64-7.59-.8-6.72-6.21.96-5.96 1.32-12.02 1.97-18.03.46-4.25-2.07-5.54-5.65-5.65-3.31-.11-6.64-.03-9.98-.03z"/><path d="m147.87 296.87c-11.33 2.24-22.72 4.25-33.98 6.81-6.34 1.44-7.58 4.89-6.96 13.43.41 5.66.17 11.37-.03 17.06-.04 1.11-1.03 2.34-1.88 3.24-3.1 3.26-6.56 6.19-9.44 9.63-2.67 3.19-6.29 4.25-9.2 2.44-3.05-1.89-6.8-5.5-7-8.57-.5-7.44.97-15 1.5-22.52.42-5.98.85-11.98.84-17.97-.01-7.44-.16-14.9-.78-22.3-.93-11.1-2.24-22.17-3.57-33.24-.42-3.48 1.62-6.99 5.03-6.76 3.17.22 6.6.86 9.34 2.36 6.89 3.77 13.42 5.51 21.45 2.78 5.89-2.01 12.59-1.96 18.94-2.16 7.16-.22 12.9-2.02 17.16-8.47 2.64-4 6.66-7.17 10.39-10.33 1.01-.85 3.54-.96 4.79-.31 6.2 3.24 12.3 6.72 18.22 10.45 1.23.78 2.15 2.96 2.2 4.53.19 5.75-.97 10.88-4.05 16.26-3.09 5.4-3.75 12.36-4.71 18.75-.69 4.56-.32 9.32-.09 13.97.46 9.34-1.13 9.05-9.68 10.86-5.92 1.25-12.14 1.05-18.23 1.49-.09-.47-.18-.95-.26-1.43zm-40.87-28.41c.25 3.6.46 9.22 1.06 14.79.76 7.1 1.98 7.67 9.42 6.05 3.35-.73 6.87-.63 10.22-1.37 4.14-.91 9.15.37 11.97-4.23 5.01-8.18 5.89-17.25 5.14-26.51-.12-1.47-2.11-3.78-3.48-3.98-3.77-.53-7.72-.52-11.52-.03-4.5.58-8.89 1.97-13.36 2.83-9.44 1.79-9.45 1.74-9.45 12.45z"/><path d="m187.94 114.96c-3.96.97-6.18 1.54-8.42 2.06-4.41 1.02-8.79 2.2-13.24 2.99-6.43 1.14-12.89 2.09-19.36 2.96-8.11 1.09-16.23 2.04-24.35 3.03-8.45 1.02-16.92 1.84-25.34 3.04-12.75 1.83-25.44 4.13-38.22 5.79-5.08.66-10.56 1.09-15.37-.2-3-.8-5.2-4.92-7.4-7.83-.24-.32 1.69-3.13 3.05-3.63 3.01-1.11 6.28-1.96 9.47-2.09 18.7-.78 37.14-3.14 55.5-6.86 9.76-1.98 19.85-2.63 29.83-3.12 12.24-.59 20.77-6.21 26.88-16.62 3.49-5.94 7.29-6.42 11.58-1.22 5.23 6.35 9.6 13.44 15.39 21.7z"/><path d="m107.92 189c9.65 0 19.31.24 28.95-.09 6.19-.21 12.5-.65 18.48-2.11 3.72-.91 7.03-3.77 10.32-6.03 3.56-2.44 6.16-1.77 7.67 2.09 1.75 4.5 3.33 9.09 4.6 13.75 1.19 4.37-1.86 5.88-5.39 6.32-16.71 2.09-33.43 4.16-50.16 6.02-8.32.92-16.7 1.28-25.04 2.09-4.54.44-9.04 1.24-13.55 1.92-5 .76-11.83-4.53-13.65-10.76-.55-1.86-1.14-3.85-1.04-5.74.34-6.09 2.02-7.46 8.37-7.46z"/><path d="m178 81.06c-4.34-.77-8.07-2.2-11.66-1.91-11.75.92-23.45 2.47-35.17 3.76-3.43.38-6.86.71-10.29 1.02-7.84.71-15.69 1.25-23.52 2.1-9.1.99-18.19 2.07-27.24 3.44-4.4.67-13.74-4.08-14.98-8.18-.88-2.88 2.11-6.86 5.6-7.27 14.64-1.71 29.26-3.55 43.92-4.98 12.91-1.26 25.86-2.07 38.8-3.05 6.32-.48 9.8-3.76 11.66-9.98.76-2.53 2.83-4.67 4.31-6.99 2.48 1.83 5.14 3.46 7.4 5.54 2.28 2.1 3.88 4.99 6.28 6.91 4.01 3.22 5.66 7.02 4.95 12.09-.32 2.27-.06 4.62-.06 7.5z"/><path d="m76.32 161.26c8.73-1.03 16.26-1.85 23.77-2.82 8.43-1.08 16.84-2.3 25.26-3.43 5.68-.76 11.48-.98 17-2.37 3.47-.87 6.39-3.75 9.8-5.16 1.81-.75 5.24-1.16 5.99-.2 2.72 3.49 4.79 7.55 6.67 11.59.29.62-1.45 3.01-2.61 3.35-6.21 1.8-12.47 3.65-18.84 4.67-10.65 1.7-21.42 2.65-32.11 4.15-9.04 1.27-18.03 2.93-27.05 4.33-2.43.38-4.9.58-7.36.6-5.92.07-7.02-1.39-4.79-7.13 1.22-3.11 3.29-5.88 4.27-7.58z"/></g></svg>