<svg enable-background="new 0 0 400 400" viewBox="0 0 400 400" xmlns="http://www.w3.org/2000/svg"><path d="m55.85 287.55c9.91-5.56 23.65.37 35.68-5.98-1.34-1.91-2.09-4.31-3.57-4.9-8.75-3.52-8.88-11.31-8.81-18.49.16-15.04 1.43-30.06 1.75-45.1.19-8.76-.95-17.54-.8-26.3.15-8.87 1.36-17.71 1.68-26.58.1-2.83-1.42-5.67-1.73-8.56-.72-6.77 2.2-9.12 8.3-6.41 5.83 2.6 11.43 5.59 15.01 11.43 3.2 5.21 8.29 2.31 12.47 1.81 3.8-.46 6.38-2.77 6.23-7.4-.26-7.85.04-15.72-.12-23.58-.1-4.62-3.3-7.65-7.92-7.45-12.87.55-25.73 1.48-38.61 1.88-6.8.21-12.68-2.91-17.76-7.17-1.35-1.14-2.53-4.11-1.95-5.45.57-1.3 3.47-2.18 5.37-2.21 12.16-.19 24.33 0 36.5-.14 4.94-.06 9.9-.38 14.79-1.04 5.31-.71 8.19-5.24 8.36-13.37.19-9.42-1.39-18.95-2.97-28.3-.46-2.7-3.36-5.12-5.46-7.38-4.98-5.36-3.98-7.69 2.11-11.27 6.55-3.86 11.09-1.51 16.64 1.69 6.57 3.78 13.82 6.36 20.66 9.7 2.49 1.22 4.63 3.16 6.93 4.77-1.82 2.55-3.42 5.29-5.5 7.61-4.15 4.62-11.15 6.4-12.74 13.66-1.22 5.6 2.04 14.59 7.12 17.78 4.37 2.74 10.77 1.29 15.66-3.43 3.33-3.22 6.58-6.57 10.23-9.39 4.04-3.12 8.38-2.79 11.82.84 3.61 3.81 6.96 7.89 10.02 12.15.98 1.36.65 3.67.86 5.16-17.13 4.85-33.64 9.52-51.06 14.45 0 8.45-.35 18.24.18 27.99.19 3.6 2.68 6.74 7.34 6.45 2.32-.15 4.72-.36 6.99.04 6.53 1.15 10.25-2.03 12.64-7.6.26-.6.58-1.17.88-1.75 4.23-8.28 9.67-9.35 16.74-3.47 1.84 1.53 4.38 2.27 6.04 3.92 1.08 1.07 2.07 4.15 1.55 4.62-5.35 4.86-4 11.59-4.11 17.24-.24 12.68 1 25.4 1.79 38.09.11 1.71.78 3.55 1.69 5.02 1.7 2.74 4.54 2.56 6.25-.2.51-.83.84-1.78 1.33-2.63 6.64-11.33 13.24-22.69 20-33.95 1.38-2.3 3.49-4.15 5.1-6.33 1.23-1.67 2.66-3.41 3.19-5.34 1.7-6.26 2.52-12.79 4.64-18.89 2.34-6.71 6.4-12.85 8.48-19.62 1.69-5.52 2.3-11.64 2.01-17.42-.24-4.72-5.02-3.75-8.33-3.67-5.44.14-10.91 1.13-16.27.66-2.36-.21-5.12-2.74-6.47-4.96-.81-1.32.48-4.22 1.37-6.15.41-.87 2.16-1.53 3.32-1.56 5.52-.16 11.05-.08 16.57-.08 8.22 0 16.47.44 24.64-.12 8.79-.61 17.51-2.21 26.28-3.28 3-.36 6.25-1.19 9.01-.42 4.17 1.15 7.12-.19 9.39-3.06 4.96-6.27 10.11-12.5 14.16-19.35 4.02-6.8 11.21-7.67 17.49-2.35 4.9 4.16 9.86 8.26 14.43 12.76 3.47 3.42 4.76 8.2 3.43 12.75-1.32 4.53-6.14 3.68-9.71 3.99-7.38.65-12.21 4.81-12.07 10.84.07 3.02.3 6.07-.04 9.06-2.25 19.85-4.45 39.72-7.05 59.52-1.22 9.31-7.6 16.27-13.2 23.07-6.01 7.3-13.44 13.47-20.57 19.77-3.7 3.26-7.86 2.08-10.14-4.03-2.75-7.36-6.73-13.6-11.74-19.44-2.47-2.88-1.37-4.47 2.18-4.7 1.33-.08 2.7-.22 3.99.02 6.53 1.18 10.68-.72 12.63-7.69 1.95-6.96 5.76-13.44 7.35-20.45 3.06-13.5 5.19-27.21 7.57-40.86.62-3.55 1.1-7.21.92-10.78-.19-3.73-1.93-6.44-6.53-6.34-3.42.08-6.95-.24-10.27-1.06-6.82-1.69-12.87.73-18.79 3.28-1.24.53-2.48 3.73-2.02 5.15 4.78 14.75-2.26 26.99-9.25 38.47-2.69 4.41-4.77 8.76-6.79 13.39-.99 2.27-3.22 4.18-5.26 5.78-2.3 1.81-3.83 3.48-4.18 6.75-.28 2.68-2.2 5.31-3.77 7.72-2.94 4.5-5.97 8.98-9.31 13.18-3.23 4.06-6.88 7.8-10.42 11.61-3.43 3.69-2.91 5.62-.3 9.51 6.16 9.16 14.92 10.82 24.95 10.35 11.42-.54 23.15.75 34.23-1.4 15.45-2.99 31.39-1.1 46.4-5.05 10.26-2.7 16.26 1.42 22.26 7.83 1.91 2.04 3.76 4.76.86 7.33-8.39 7.44-8.35 16.81-6.52 26.69.33 1.76.64 3.53.82 5.31 1.01 10.12 2.11 20.23 2.87 30.37.23 3.06-1.27 6.33-.71 9.26 1.44 7.47-1.71 12.54-5.89 18.51-4.35 6.23-10.11 9.41-16.01 13.04-3.26 2.01-5.74.87-6.99-2.45-1.31-3.48-2.6-7.08-3.1-10.73-.54-3.97-2.6-4.81-6.07-4.79-11.5.1-23-.13-34.5.13-3.86.09-7.69 1.71-11.55 1.78-5.59.11-11.2-.48-16.79-.89-6.47-.48-8.41.07-8.25 8.59.17 9.21-1.85 17.85-7.05 25.57-5.49 8.16-19.2 8.14-24.25-.09-.81-1.31-1.12-3.46-.68-4.92 3.77-12.46 4.59-25.2 3.95-38.09-.16-3.27-.22-6.65-1.11-9.75-1.53-5.3-6.7-4.95-10.64-5.13-10.01-.46-20.06-.1-30.09-.19-2.26-.02-4.52-.52-6.78-.86-2.85-.42-4.42.41-4.38 3.66.1 9.5-.17 19.01.12 28.5.14 4.52 1.51 8.99 1.81 13.52.18 2.72-.15 5.67-1.09 8.22-1.33 3.63-4.53 4.47-8.29 4.31-2.16-.09-4.92.14-6.43 1.4-2.9 2.41-6.2 4.27-9.06 2-2.19-1.74-3.54-5.45-3.86-8.44-.59-5.63-.05-11.38-.2-17.07-.23-8.62-.57-17.25-1.01-25.86-.23-4.53-4.31-8.64-8.67-8.25-11.26 1.01-22.48 2.41-33.71 3.64-7.02.77-14.02 1.75-21.05 2.19-3.9.25-8.08.29-11.75-.82-5.06-1.53-6.66-6.48-7.51-11.15-.24-1.29 1.76-4.21 2.86-4.28 2.48-.15 5.07 1 8.69 1.88zm181.15-13.1c0 8.17.25 16.34-.09 24.49-.22 5.13 2.62 7.27 6.78 7.94 4.69.76 9.52 1.2 14.26 1.03 10.54-.39 21.07-1.21 31.6-1.93 3.6-.25 7.24-.46 10.74-1.22 4.09-.89 7.35-3.26 7.63-7.82.3-4.83.07-9.7.07-14.55 0-11.83 0-23.67 0-35.5 0-5.67-2.79-8.6-8.41-8.89-6.26-.33-12.52-.77-18.79-.99-11.1-.4-22.21-.95-33.3-.81-2.82.04-7.17 1.76-8.09 3.9-1.81 4.18-2.08 9.17-2.31 13.87-.34 6.8-.09 13.65-.09 20.48zm-30.78 12.8c6.77-22.57 6.52-44.16 4.54-66.27-10.91 3.36-15.94 9.35-17.85 19.18-1.52 7.83-3.89 15.36-8.46 22.2-2.65 3.97-6.3 5.79-10.18 5.2-1.75-.27-3.46-4.57-4.13-7.31-.88-3.59-2.55-6.43-5.99-6.99-3.92-.64-8.02-.15-11.81-.15.25 3.7.1 6.7.72 9.54 1.07 4.88 2.08 9.92 4.22 14.36.87 1.8 4.53 2.73 7.08 3.15 5.86.98 9.43-3.03 12.84-6.91 3.32-3.78 6.8-4.21 10.6-.87 3.47 3.05 6.8 6.26 10.34 9.21 2.17 1.8 4.62 3.26 8.08 5.66zm-74.95-66.4c-.09-.01-.18-.02-.27-.03 0-2.5.24-5.03-.06-7.49-.43-3.56-2.34-6.14-6.21-6.28-4.49-.17-9.01-.27-13.49.01-7.1.45-8.65 2.57-8.27 10.02.17 3.32.43 6.72-.05 9.98-.88 5.88 3.17 10.01 4.79 14.97.28.85 1.77 1.86 2.68 1.84 4.26-.1 8.51-.48 12.76-.85 4.47-.4 6.03-3.96 6.7-7.43.93-4.83.98-9.82 1.42-14.74zm-13.32-22.75c0-.04 0-.07 0-.11 1.66 0 3.39.29 4.98-.06 3.56-.77 7.64-1.94 7.86-6.12.31-5.89-.35-11.86-.94-17.77-.17-1.65-1.13-3.89-2.44-4.65-6.37-3.71-13.31-2.99-20.04-1.27-4.24 1.08-5.38 5.06-5.81 8.85-1.19 10.45-.8 19.38 9.93 20.77 2.13.28 4.3.25 6.46.36zm41.44.9c9.03.02 12.56-3 13.55-12.3.43-3.97.56-8.11-.15-12-.43-2.39-2.28-5.72-4.24-6.39-3.77-1.28-8.1-1.35-12.18-1.22-6.68.22-9.65 4.47-8.45 11.04.53 2.89.53 5.88 1.13 8.75 1.8 8.73 3.29 12.74 10.34 12.12zm-61.22 82.23c2.71.65 5.02 1.43 7.4 1.72 4.07.5 8.19.64 12.28 1.05 4.66.47 8.15-1.67 9.04-6.34.73-3.85.87-7.82 1.09-11.74.57-10.02-4.2-12.16-12.48-10.68-3.39.61-9.28.39-9.23 5.48.07 7.27-1.13 13.37-7.16 17.94-.44.34-.47 1.22-.94 2.57zm54.25-57.39c-.14.02-.28.03-.42.05 0 2-.02 4 0 5.99.06 6.88 3.63 9.21 10.25 7.56 4.38-1.09 5.83-4.37 6.56-7.71 1.21-5.56 1.49-11.32 2.19-17 .53-4.3-2.18-5.88-5.66-6.68-2.05-.47-4.15-.73-6.25-.95-4.13-.44-8.6 4.13-8.03 8.04.53 3.55.92 7.13 1.36 10.7z" fill="#010103"/><g fill="#fafbfc"><path d="m361.2 9.6.8-1c.9.7 1.9 1.4 2.9 2.3l-.9 1.1c-1-1-2-1.8-2.8-2.4zm.5 10.6c.9-2.1 1.6-4.3 2.3-6.7.4.2.8.4 1.3.6-.7 2.1-1.5 4.3-2.2 6.6zm.4-15.2.9-.9c1 .8 2 1.6 2.8 2.4l-1 1c-.9-.9-1.8-1.7-2.7-2.5zm12.5-1.2h1.2v1.4h2.7v1.1h-2.7v2.7h-1.2v-.6h-1.8v1.3h4.9v3.8h-1.2v-.5h-3.7c0 .4-.1.9-.1 1.2h5.1v1h-5.2c0 .5-.1.9-.2 1.2h6v1h-5.2c1.1 1.3 2.9 2 5.5 2.3-.4.4-.7.8-.9 1.3-2.9-.5-4.8-1.6-5.7-3.5h-.1c-.8 1.7-2.7 2.9-5.9 3.6-.2-.4-.6-.8-.9-1.1 2.8-.6 4.6-1.4 5.4-2.5h-4.8v-1h5.3c.1-.3.2-.7.2-1.2h-4.9v-1h5c0-.4 0-.8.1-1.2h-3.5v.5h-1.2v-3.9h4.9v-1.3h-1.8v.5h-1.2v-2.7h-2.7v-1h2.6v-1.4h1.2v1.4h4.7v-1.4zm-6.6 8.3h3.6c0-.4 0-.9 0-1.4h-3.6zm1.9-4.6h4.7v-1.3h-4.7zm6.6 3.2h-3.7v1.4h3.7z"/><path d="m385.3 3.8h1.3v2.2h2.8v-2.2h1.3v2.2h4.1v9.1h1.7v1.3h-16.9v-1.3h1.7v-9.1h4.1v-2.2zm.4 13.1.7 1.2c-1.8.9-3.8 1.9-6 2.9-.2-.4-.5-.8-.8-1.3 2.3-1 4.3-1.9 6.1-2.8zm-3.1-6.4h2.8v-3.2h-2.8zm0 4.6h2.8v-3.3h-2.8zm4-4.6h2.8v-3.2h-2.8zm0 4.6h2.8v-3.3h-2.8zm3.7 1.9c2.1.9 4.1 1.8 6.1 2.7l-.7 1.3c-2.2-1.1-4.2-2-6.1-2.9zm3.2-9.7h-2.8v3.2h2.8zm-2.8 7.8h2.8v-3.3h-2.8z"/></g></svg>