<svg enable-background="new 0 0 400 400" viewBox="0 0 400 400" xmlns="http://www.w3.org/2000/svg"><g fill="#010103"><path d="m215.25 159.31c-.69-3.06-.83-5.19-1.64-7.01-2.16-4.86-6.01-9.01-2.9-15.28 1.07-2.15-.59-6.07-1.79-8.84-2.3-5.33-2.72-11.26-6.86-16.13-1.95-2.3-1.47-7.39-.85-10.99 1.08-6.22 3.33-12.23 4.66-18.42.58-2.72.51-5.74.04-8.5-1.36-7.9.46-16.8-8.33-23.57 3.03-1.13 4.89-2.18 6.87-2.47 2.45-.36 5.18-.68 7.44.06 3.34 1.09 6.78 2.64 9.43 4.88 3.56 3.01 6.35 6.92 9.57 10.35 4.07 4.34 4.47 8.46 1.14 13.46-4.67 7.02-9.34 14.05-14.02 21.07-.63.95-1.47 1.76-2.09 2.72-3.82 5.89-7.08 8.42.9 15.89 7.09 6.64 13.34 14.18 19.49 20.82-1.1 5.46-2.05 10.19-3.18 15.82 4.6.63 9.03 1.65 13.48 1.76 10.32.26 20.68-.34 30.98.2 11.23.58 21.24-1.77 30.4-8.51 5.57-4.1 16.55-1.26 19.63 4.72 1.71 3.33.73 6.73-1.82 9.29-2.96 2.96-3.95 6.08-3.95 10.42.02 21.1.02 42.22-1.27 63.26-.27 4.39-5.56 8.93-9.38 12.51-4.14 3.88-7.11 8.18-4.8 10.65 3.32 3.56 7.41 1.99 10.96-.27 2.61-1.66 4.95-3.72 7.49-5.5 3-2.09 5.92-3.9 9.28-.21 1.2 1.31 3.33 1.88 5.14 2.51 6.41 2.22 10.96 6.16 13.19 12.8 1.18 3.52-.71 4.98-3.27 5.07-4.23.16-8.49-.73-12.75-.81-5.33-.11-10.66.11-16 .26-8.48.23-16.75 3.83-25.48.9-4.17-1.4-7.47 2.76-5.97 6.94 2.38 6.62 7.14 11.44 13.02 14.77 17.44 9.88 35.1 19.37 52.66 29.03 2.22 1.22 4.38 2.53 7.66 4.44-2.59 1.58-4.14 2.97-5.95 3.56-5.71 1.86-11.55 3.33-17.26 5.17-1.66.53-3.12 1.75-4.62 2.72-6.83 4.44-11.58 4.49-17.84-.85-4.73-4.02-9.2-8.47-13.2-13.22-8.22-9.78-16.19-19.78-23.98-29.91-3.06-3.98-5.32-8.57-7.99-12.86-.84-1.35-1.83-2.61-3.47-4.94-1.63 8.26-5.63 14.3-2.63 22.8 2.58 7.3 1.79 16.03 1.32 24.06-.3 5.12-.66 9.78.92 14.91 1.87 6.08-.46 15.82-9.21 17.57-2.69.54-5.25 2.52-7.49 4.31-2.86 2.29-5.12 1.56-6.54-1.14-1.25-2.38-1.98-5.19-2.31-7.89-1.07-8.89-.54-18.01-4.77-26.41-.64-1.28 1.13-3.6 1.27-5.47.3-3.95.87-8.05.15-11.86-.54-2.83-2.97-4.22-5.92-1.31-6.38 6.28-12.77 12.57-19.52 18.43-3.76 3.27-8.28 5.66-12.39 8.53-6.82 4.76-13.45 9.8-20.42 14.34-8.05 5.25-16.33 10.16-24.65 14.99-1.21.7-3.15.16-4.75.19.29-1.61.04-3.76.99-4.73 2.1-2.13 4.83-3.65 7.26-5.46 3.14-2.35 6.48-4.5 9.33-7.17 9.32-8.75 18.86-17.32 27.54-26.67 8.92-9.61 16.98-20.03 25.35-30.15 2.16-2.61 4.38-5.26 5.92-8.23.48-.92-.78-3.61-1.96-4.37-4.57-2.94-9.61-1.99-14.53-.79-6.65 1.63-12.08-.21-15.03-5.14-.25-.42-.78-.81-.78-1.2.22-13.72-7.26-27.3-.78-41.2.63-1.36-.34-3.4-.3-5.11.23-8.59.6-17.19.82-25.78.3-11.41-.16-22.72-3.15-33.87-.92-3.45-.74-7.25-.65-10.88.03-1.12 1.28-3.02 2.17-3.14 1.65-.22 4.76.26 4.95 1.04 1.48 5.81 6.89 4.92 10.65 6.75 1.45.7 3.04 1.11 6.37 2.29zm67.2 36.69c-3.5 0-7-.09-10.49.02-4.03.14-6.6 2.56-6.84 6.33-.41 6.14-.32 12.33-.04 18.48.25 5.62 2.15 7.15 7.7 7.16 5.5.01 11.01-.24 16.49.08 4.06.24 6.12-2.01 6.58-5.24 1.05-7.31 1.43-14.71 2.18-22.06.36-3.51-1.4-4.76-4.57-4.77-3.68 0-7.34 0-11.01 0zm-42.45 17.86c0-3 .01-6 0-9-.01-5.57-2.96-7.8-8.44-6.73-4.16.81-8.38 1.51-12.6 1.79-3.61.23-5.03 1.82-4.98 5.29.08 6.16 0 12.33.03 18.5.02 4.6 2.08 6.56 6.61 6.28 4.95-.31 9.97-.29 14.81-1.19 1.74-.32 4-2.7 4.37-4.48.7-3.36.2-6.96.2-10.46zm54.99 25.14c-5.73 0-10.72.18-15.69-.04-10.69-.48-14.11 6.24-13.19 15.52.78 7.91 3.05 9.61 11.18 9.47 3.59-.06 7.2-1.06 10.76-.84 5.51.35 6.41-3.65 6.79-7.2.58-5.39.15-10.89.15-16.91zm-17.61-76c-3.17 0-6.33.04-9.5-.01-3.86-.06-5.1 2.14-3.22 5.03 3.2 4.91 2.47 9.9 1.87 15.15-.14 1.19 1.43 3.61 2.37 3.7 4.82.43 9.69.3 14.54.33 3.65.02 7.86-1.06 8.38-4.51.85-5.67.74-11.79-.67-17.28-.4-1.57-6.67-1.69-10.28-2.36-1.12-.23-2.32-.05-3.49-.05zm-63.05 2v22.59c.63.18.94.34 1.25.34 4.99.03 10-.23 14.96.15 4.34.33 6.39-1.71 7.46-5.49.44-1.55 1.05-3.06 1.51-4.61 2.51-8.33-.83-12.99-9.29-12.99-5.15.01-10.29.01-15.89.01zm-2.33 90.37c0 8.77 0 8.77 8.78 7.65.33-.04.68-.08.99-.01 8.5 2.03 11.23-3.92 13.71-10.03 1.98-4.86.03-10.45-3.9-11.75-10.75-3.57-19.58 2.81-19.58 14.14z"/><path d="m115.65 132.6c-.7-5.19-1.05-10.46-2.24-15.53-.84-3.57-3.04-4.84-6.9-2.32-2.72 1.78-6.26 2.87-9.52 3.13-12 .96-24.05 1.32-36.06 2.17-5.24.37-12.51-4.53-12.08-9.73.1-1.17 1.6-3.1 2.58-3.18 10.35-.89 20.74-1.29 31.08-2.2 8.13-.71 16.25-1.75 24.32-3.03 3.45-.55 5.32-2.14 4.54-6.82-1.06-6.32-.17-12.95-.43-19.44-.13-3.23-.78-6.48-1.47-9.65-1.05-4.85-4.7-7.42-8.7-9.87-4.77-2.92-4.39-5.45.39-8.23 2.52-1.47 4.79-3.47 6.9-5.51 5.96-5.77 8.7-6.24 15.29-1.46 4.11 2.98 8.1 6.21 11.71 9.76 4.07 4.01 5.81 9.51 2.69 14.33-4.75 7.34-4.73 15.18-4.75 23.22-.02 9.43 7.78 16.52 17.44 15.68 1.45-.13 2.97-1.14 4.16-2.11 2.18-1.78 3.97-4.06 6.22-5.72 5.45-4.01 8.81-4.1 13.76-.83 4.16 2.74 6.42 8.7 5.29 13.94-1.75 8.06-4.89 9.07-13.42 8.3-9.13-.82-18.46.08-27.67.77-3.2.24-5.03 3.09-4.76 6.5.56 6.87 1.25 13.73 2.06 20.57.11.93 1.04 2.2 1.89 2.52 10.52 4.07 20.26.2 25.63-9.99 1.37-2.6 3.02-5.05 4.31-7.69 1.61-3.28 3.62-2.7 5.25-.41 3.3 4.65 6.77 9.29 9.17 14.41 1.05 2.24-.32 5.63-.66 8.5-1.21 10.04-3.2 20.05-3.51 30.11-.57 18.67-.02 37.37-.27 56.05-.06 4.32-1.72 8.6-2.2 12.94-.5 4.58-1.47 9.46-.47 13.79 2.06 8.94 1.41 10.04-7.43 10.54-9.48.54-18.93 1.74-28.35 2.99-4.87.65-8.22 6.09-8.42 12.91-.39 13.59-.63 27.19-1.06 40.79-.12 3.76-.44 7.56-1.09 11.26-.86 4.86-5.3 7.87-10.82 7.95-5.21.07-6.43-4.22-6.82-7.6-.74-6.44-.18-13.02-.31-19.53-.26-12.42-.47-24.85-1.15-37.24-.07-1.3-3.2-3.54-4.8-3.45-8.83.52-17.63 1.67-26.44 2.54-5.08.5-10.17.79-15.25 1.3-3.75.37-7.51.74-11.2 1.47-4.32.85-9.31-1.02-10.74-4.89-1.08-2.93-.47-5.93 3.19-6.5 6.15-.95 12.35-1.82 18.55-1.97 4.24-.1 5.37-2.15 4.84-5.5-1.12-7.04-1.53-13.8.81-20.87 1.51-4.55 1.07-9.79 1.23-14.72.18-5.33-.03-10.66.05-15.99.3-17.93.87-35.86.84-53.78-.01-4.76-1.31-9.7-2.92-14.25-2.29-6.49 1.64-10.88 6.34-13.65 2.68-1.58 7.83.86 10.78 4.89 5.36 7.31 16.3 10.49 24.92 7.25 3.41-1.28 5.41-3.34 5.07-7.34-.27-3.14-.05-6.33-.05-9.49.23-.03.44-.06.66-.09zm-14.77 105.05c-9.62.36-10.11 1.06-10.97 10.56-.5 5.54-2.41 10.38-7.27 14.27-1.88 1.51-1.4 6.35-1.29 9.64.02.68 3.28 1.97 4.88 1.75 8.22-1.09 16.41-2.49 24.55-4.06.91-.18 2.03-2.07 2.12-3.23.52-6.76.72-13.54 1.11-20.3.25-4.31-1.35-6.94-5.95-7.37-2.41-.23-4.79-.83-7.18-1.26zm32.12 14.25c0 3.5-.52 7.1.15 10.47.65 3.31 1.64 7.9 4 9.24 5.34 3.02 15.45-1.15 17.43-7.12 2.23-6.71 3.23-13.88 4.33-20.92.76-4.83-2.78-6.47-6.72-6.48-5.26-.02-10.53.52-15.79.99-2.45.22-3.67 1.6-3.47 4.33.26 3.15.07 6.33.07 9.49zm-28.06-93.11c-.01.08-.02.16-.03.25-1.16 0-2.34-.12-3.48.03-1.76.23-3.52.55-5.24 1-3.07.8-6.46 6.02-6.18 9.25.37 4.23.81 8.47.95 12.71.1 3.21 1.27 5.54 4.54 5.9 3.13.34 6.33.21 9.48.06 7.57-.36 10.12-2.23 11.7-9.46.9-4.12 1.44-8.48 1.1-12.65-.16-2.04-2.3-4.68-4.24-5.62-2.51-1.25-5.71-1.05-8.6-1.47zm-1.65 39.21c-1.16 0-2.32 0-3.48 0-7.34 0-9.91 2.53-9.76 10.07.08 3.92.81 7.83.91 11.75.17 6.29 3.22 9.57 9.3 9.09 2.86-.23 5.95-.67 8.41-1.99 2.14-1.14 4.46-3.38 5.1-5.6 1.08-3.7 1.14-7.76 1.17-11.68.11-10.89-.74-11.64-11.65-11.64zm31.72 13.53c0 2.83-.47 5.78.16 8.46.43 1.84 2.23 4.51 3.71 4.72 3.31.46 6.82-.28 10.22-.74 3.37-.46 6.38-1.52 6.92-5.63.59-4.52 1.88-9.04 1.78-13.54-.07-3.2.37-7.78-4.47-8.72-12.56-2.44-18.33 2.35-18.33 14.96 0 .15 0 .32.01.49zm-.01-40.65c.12 9.5.5 12.57 8.68 14.03 5.67 1.01 11.43-1.77 12.76-6.92.81-3.13 1.24-6.4 1.51-9.64.38-4.64-2.49-7.59-6.32-9.02-9.43-3.53-16.63 1.64-16.63 11.55z"/><path d="m301.99 94.29c1.09-8.94 2.54-17.86 3.13-26.84.32-4.9-.41-9.97-1.4-14.82-1.03-5.01-.02-6.97 5.14-6.57 5.18.41 11.53.35 14.14 5.16 2.7 4.97 7.38 7.55 10.39 11.79 2.87 4.03 1.52 10.14-2.23 14.37-3.48 3.93-6.99 7.88-10.06 12.13-4.59 6.37-2.64 14.25 4.15 18.15.28.16.68.17.9.39 2.95 2.93 4.3 7.01 7.88 9.69 2.14 1.61-.87 10.92-3.59 12.4-2.71 1.47-5.54 2.88-8.49 3.73-4.81 1.39-7.9-.14-9.45-5.04-1.55-4.94-2.24-10.14-3.55-15.17-.73-2.79-1.83-5.5-2.99-8.14-1.59-3.6-3.41-7.11-5.13-10.66.39-.19.78-.38 1.16-.57z"/><path d="m264.35 42.93c4.99.13 7.87 4.25 10.56 8.07 6.73 9.56 8.91 18.98-.61 28.64-4.28 4.34-7.43 9.9-10.54 15.24-5.03 8.65-5.49 13.5 1.99 20.43 3.59 3.32 7.25 6.64 10.37 10.37 3.4 4.07 4.11 9.86-1.44 14.34-2.08 1.68-3.3 4.4-4.95 6.63-3.3 4.47-6.56 4.09-10.08-.16-3.85-4.65-4.58-9.68-4.84-15.48-.43-9.28-2.22-18.49-3.15-27.76-.89-8.79-2.25-17.59 2.57-25.98 3.79-6.6 4.52-13.3 1.18-20.9-4.02-9.15-.88-12.21 8.94-13.44z"/></g><path d="m361.2 9.6.8-1c.9.7 1.9 1.4 2.9 2.3l-.9 1.1c-1-1-2-1.8-2.8-2.4zm.5 10.6c.9-2.1 1.6-4.3 2.3-6.7.4.2.8.4 1.3.6-.7 2.1-1.5 4.3-2.2 6.6zm.4-15.2.9-.9c1 .8 2 1.6 2.8 2.4l-1 1c-.9-.9-1.8-1.7-2.7-2.5zm12.5-1.2h1.2v1.4h2.7v1.1h-2.7v2.7h-1.2v-.6h-1.8v1.3h4.9v3.8h-1.2v-.5h-3.7c0 .4-.1.9-.1 1.2h5.1v1h-5.2c0 .5-.1.9-.2 1.2h6v1h-5.2c1.1 1.3 2.9 2 5.5 2.3-.4.4-.7.8-.9 1.3-2.9-.5-4.8-1.6-5.7-3.5h-.1c-.8 1.7-2.7 2.9-5.9 3.6-.2-.4-.6-.8-.9-1.1 2.8-.6 4.6-1.4 5.4-2.5h-4.8v-1h5.3c.1-.3.2-.7.2-1.2h-4.9v-1h5c0-.4 0-.8.1-1.2h-3.5v.5h-1.2v-3.9h4.9v-1.3h-1.8v.5h-1.2v-2.7h-2.7v-1h2.6v-1.4h1.2v1.4h4.7v-1.4zm-6.6 8.3h3.6c0-.4 0-.9 0-1.4h-3.6zm1.9-4.6h4.7v-1.3h-4.7zm6.6 3.2h-3.7v1.4h3.7z" fill="#fafbfc"/><path d="m385.3 3.8h1.3v2.2h2.8v-2.2h1.3v2.2h4.1v9.1h1.7v1.3h-16.9v-1.3h1.7v-9.1h4.1v-2.2zm.4 13.1.7 1.2c-1.8.9-3.8 1.9-6 2.9-.2-.4-.5-.8-.8-1.3 2.3-1 4.3-1.9 6.1-2.8zm-3.1-6.4h2.8v-3.2h-2.8zm0 4.6h2.8v-3.3h-2.8zm4-4.6h2.8v-3.2h-2.8zm0 4.6h2.8v-3.3h-2.8zm3.7 1.9c2.1.9 4.1 1.8 6.1 2.7l-.7 1.3c-2.2-1.1-4.2-2-6.1-2.9zm3.2-9.7h-2.8v3.2h2.8zm-2.8 7.8h2.8v-3.3h-2.8z" fill="#fafbfc"/></svg>