<svg enable-background="new 0 0 400 400" viewBox="0 0 400 400" xmlns="http://www.w3.org/2000/svg"><path d="m374.8 390.4.4-.4c.7.5 1.3 1 1.8 1.4l-.5.5c-.5-.6-1.1-1.1-1.7-1.5zm1 7.3-.6-.3c.5-1.4 1.1-2.8 1.5-4.3.2.1.4.2.6.3-.5 1.3-1 2.8-1.5 4.3zm-.4-10.3.5-.4c.4.3 1 .8 1.7 1.4l-.5.5c-.5-.5-1.1-1-1.7-1.5zm2.5.3h1.7v-1h.6v1h3.5v-1h.6v1h1.8v.5h-1.8v1.4h-2v1h3.2v2h-3.2v.9h3.3v.5h-3.4c0 .3-.1.6-.1.9h4v.5h-3.7c.7.9 1.9 1.5 3.8 1.7-.1.2-.2.4-.3.6-2.1-.4-3.5-1.1-4-2.1-.4 1-1.8 1.7-4 2.2-.1-.2-.2-.4-.3-.6 2.1-.4 3.4-1 3.8-1.8h-3.4v-.5h3.6c.1-.3.1-.6.2-.9h-3.3v-.5h3.4c0-.3 0-.6 0-.9h-3.2v-2h3.3v-1h-2.1v-1.4h-1.7v-.5zm1.1 3.5v1h2.7c0-.3 0-.4 0-.4 0-.1 0-.2 0-.2 0-.1 0-.2 0-.3h-2.7zm1.2-3v.9h3.5v-.9zm4.7 3h-2.6v.6.4h2.6z" fill="#fcfbfa"/><path d="m393.6 386.7h.6v1.5h2.7v6.1h1.1v.6h-11v-.6h1.1v-6.1h2.7v-1.5h.6v1.5h2.1v-1.5zm-2.7 8.8.4.6c-1.2.6-2.5 1.3-3.8 1.9-.1-.2-.2-.4-.3-.6 1.2-.6 2.5-1.2 3.7-1.9zm-2.2-6.7v2.4h2.1v-2.4zm0 3v2.5h2.1v-2.5zm2.8-3v2.4h2.1v-2.4zm0 3v2.5h2.1v-2.5zm6 6.1c-1.4-.7-2.7-1.3-3.9-1.8l.3-.6c1.5.6 2.7 1.2 3.9 1.7zm-1.2-9.1h-2.1v2.4h2.1zm-2.1 3v2.5h2.1v-2.5z" fill="#fcfbfa"/><g fill="#010103"><path d="m198 129.16c-3.49 1.5-6.5 2.29-8.93 3.93-11.12 7.51-22.28 14.98-33.01 23.01-7.88 5.9-15.07 12.72-22.68 18.98-6.33 5.2-12.94 10.12-21.35 11.24-1.84.24-3.91-1.26-5.88-1.95.87-1.77 1.28-4.13 2.69-5.2 5.19-3.95 11.37-6.79 15.95-11.29 8.78-8.63 16.56-18.27 25.06-27.19 3.77-3.95 8.43-7.04 12.44-10.79 3.37-3.15 8.06-5.59 7.61-11.89-7.09 0-14.05-.06-21 .02-4.79.06-7.98-1.61-9.24-6.67-1.19-4.79.22-7.82 5.23-8.26 7.4-.64 14.85-.59 22.26-1.14 5.36-.4 10.87-.66 15.97-2.16 6.3-1.84 7.55-8.7 10.65-13.49 6.67-10.3 11.6-21.5 13.91-33.68.64-3.37 1.04-6.8 1.29-10.23.28-3.75 2.32-4.07 5.07-2.79 1.45.68 2.8 1.74 3.92 2.89 7.51 7.74 14.91 15.58 22.4 23.34 2.89 2.99 3.66 6.3 1.32 9.79-4.5 6.7-6.58 15.18-14.41 19.46.35 4.94 2.34 7.3 7.74 7.04 5.74-.27 11.53.84 17.29.79 10.93-.1 21.89-.32 32.78-1.14 2.51-.19 4.94-2.86 7.2-4.65 1.82-1.43 3.32-3.27 4.99-4.9 5.91-5.74 8.75-6.05 15.85-2.25 5.85 3.13 12.17 5.5 17.65 9.17 3.67 2.46 6.9 6.23 9.03 10.12 1.31 2.4 1.1 6.54-.08 9.16-1.64 3.66-5.74 3.9-9.57 3.52-10.29-1.02-20.58-2.11-30.89-2.91-8.23-.64-16.48-.88-26.6-1.39 2.07 3.6 2.91 6.56 4.87 8.16 5.42 4.43 11.12 8.6 17.06 12.31 12.38 7.72 26.57 10.32 40.42 14.03 8.86 2.38 17.43 5.97 25.94 9.49 2.08.86 4.35 3.41 4.7 5.49.22 1.33-2.75 3.48-4.61 4.81-5.58 3.97-11.3 7.72-17 11.52-.91.61-2.07 1.55-2.94 1.39-8.31-1.47-16.74-2.58-24.81-4.91-10.82-3.13-19.8-9.87-28.57-16.74-3.09-2.42-6.25-4.77-9.26-7.29-9.13-7.65-11.62-18.76-14.26-29.42-2.81-11.36-4.91-10.41-12.5-10.59-11.54-.27-23.06-1.27-34.6-1.85-2.88-.14-6.6-1.09-7.78 2.61-1.08 3.35 1.13 5.66 4.08 7.54 6.65 4.25 8.46 11.35 9.51 18.48.65 4.41.33 8.99.06 13.48-.24 3.96 1.5 6.58 5.07 7.23 5.4.99 10.95 1.73 16.42 1.6 2.38-.06 4.8-2.42 7.02-3.99 2.53-1.8 4.57-4.61 7.33-5.7 5.32-2.08 9.39.47 10.93 5.94 1.89 6.7-.54 12.31-6 13.72-2.16.56-4.37.97-8.19 1.8 4.17 2.67 7.14 4.74 10.26 6.54 6.1 3.52 6.84 6.03 5.76 12.93-.84 5.38-.66 10.98-.39 16.45.18 3.64 2.83 4.79 6.37 4.32 10.38-1.4 20.79-2.51 31.13-4.12 2.59-.4 5.31-1.82 7.34-3.53 3.83-3.24 7.61-4.29 11.86-1.34 3.62 2.51 7.39 4.95 10.5 8.01 2.95 2.9 5.65 7.18 2.81 10.97-2.54 3.38-6.62 6.92-10.54 7.65-5.67 1.06-11.81-.2-17.72-.75-8.98-.83-17.93-1.94-26.91-2.86-1.81-.18-3.67.07-5.5-.05-8.62-.56-12.08 3.83-10.31 12.49 3.46 16.89 3.23 33.64-3.23 49.88-2.21 5.57-5.72 10.38-12.25 11.15-1.76.21-5.04-1.15-5.42-2.44-1.84-6.21-3.29-12.59-4.19-19.01-1.06-7.47-1.43-15.05-2.05-22.58-.12-1.49-.55-3.33.12-4.44 3.53-5.88.27-11.78-1.01-16.86-2.63-10.4-6-9.95-16.64-9.02-2.76.24-5.59-.28-8.39-.42-.56-.03-1.14-.01-1.68.11-6.67 1.46-13.31 3.09-20.02 4.38-4.81.93-6.82 4.16-7.21 8.45-1.32 14.65-7.15 27.31-16.72 38.27-4.32 4.95-9.19 9.41-13.77 14.13-2.78 2.86-5.48 5.79-8.47 8.96 6.78 5.42 14.58 9.18 23.63 9.95 16.23 1.39 32.45 3.03 48.71 3.87 12.13.62 24.35-.36 36.48.31 9.89.54 19.17-2.02 28.7-3.48 5.67-.87 11.5-.79 17.15-1.74 8.99-1.51 17.85-3.8 26.85-5.22 8.08-1.28 16.27-1.92 24.43-2.62 1.18-.1 3.16.82 3.51 1.75.4 1.04-.21 3.04-1.09 3.91-3.87 3.81-8.3 7.1-11.97 11.08-5.83 6.33-11.25 13.04-16.75 19.67-.92 1.1-1.4 2.58-2.02 3.92-2.78 6.02-6.53 9.94-14.1 8.71-4.55-.74-9.34.19-13.97-.21-7.82-.66-15.57-2.09-23.39-2.62-7.29-.49-14.64-.19-21.96-.32-16.43-.3-32.87-.64-49.3-1.02-1.26-.03-2.76-.2-3.73-.89-6.35-4.5-13.56-2.64-20.48-3.16-2.81-.21-5.59-1.2-8.32-2.03-6.18-1.9-12.48-3.53-18.43-6.01-5.2-2.17-10.4-4.8-14.82-8.23-6.77-5.23-12.97-11.23-19.25-17.07-5.11-4.76-7.47-4.97-12.38.24-7.03 7.45-14.47 14.65-20.49 22.86-3.53 4.82-6.62 9.86-11.19 13.81-.45.39-.84 1.06-.92 1.65-.55 3.75-1 7.51-1.48 11.27-.49-.06-.98-.13-1.47-.19-.3.12-.63.38-.9.33-12.29-2.24-12.44-2.24-12.2-15.16.07-3.57-.84-5.92-4.07-7.37-5.42-2.43-4.66-9.81.16-12.08 1.91-.9 3.59-2.28 5.51-3.18 4.83-2.27 8.42-5.49 11.69-9.97 3.25-4.46 8.71-7.28 13.08-10.96 3.97-3.34 8.22-6.5 11.54-10.42 5.63-6.63 3.89-14.96 3.9-22.74.01-4.93-.44-9.88-.96-14.8-.41-3.87-1.33-7.69-1.83-11.55-.58-4.44-3.72-4.95-6.95-4.17-10.73 2.59-21.41 5.39-32.04 8.34-7.84 2.18-16.68-3.56-17-11.59-.13-3.42 2.22-5.39 5.52-5.84 10.38-1.41 20.8-2.57 31.15-4.12 3.83-.57 7.72-1.55 11.22-3.14 2.02-.92 3.6-3.25 4.88-5.26 1.11-1.74 1.48-3.93 2.24-5.9 3.83-9.96 9.25-11.61 18.37-5.57 2.45 1.62 4.63 3.71 7.21 5.05 5.15 2.67 4.79 7.1 3.9 11.52-.89 4.44-2.53 8.73-3.6 13.15-2.58 10.65 1.27 20.67 3.28 30.86.79 3.99 2.14 7.89 2.59 11.9.68 5.98 4.29 10 8.66 13.2 1.56 1.14 6.03 1.13 6.91-.04 9.65-12.93 19.9-25.73 20.5-42.96.25-7.17-2.53-10.26-9.69-9.58-9.5.89-13.76-5.03-16.29-11.33-2.01-4.99.29-7.49 5.62-6.81 3.91.5 7.85.92 11.78.95 6.98.05 9.72-2.67 9.58-9.47-.18-8.6-.76-17.2-.92-25.8-.11-6.05 3.61-8.37 9.01-5.6 4.64 2.38 8.97 5.37 13.59 7.79 4.28 2.24 5.35 5.89 5.35 10.22.01 5.5.09 11-.03 16.5-.08 3.73 1.44 5.62 5.28 5.43 13.87-.68 27.74-1.28 41.59-2.14 1.09-.07 2.99-2.01 2.96-3.03-.43-11.53-.83-23.08-1.97-34.54-.57-5.7-8.48-9.54-12.78-5.65-1.56 1.41-2.58 3.89-2.95 6.04-.96 5.62-1.31 11.33-2.13 16.98-.59 4.06-2.63 7.14-6.35 9.34-5.07 3-10.35 2.26-12.5-3.34-2.41-6.29-3.5-13.09-5.1-19.68-.46-1.89-.43-3.95-1.18-5.7-.35-.81-2-1.49-3.07-1.5-5.32-.06-10.67.49-15.94.04-2.14-.18-4.52-2-6.05-3.73-2.52-2.86-1.51-5.97 2.2-6.96 4.85-1.29 9.93-1.73 14.75-3.11 7.83-2.25 9.26-4.42 9.27-12.22-.02-7.54-.02-15.02-.02-23.69z"/><path d="m72.65 76.31c5.96 1.31 12.27 1.77 17.79 4.1 10.16 4.29 19.93 9.53 29.7 14.67 6.27 3.3 10.7 7.79 10 15.96-.51 6.04-.13 12.03-3.88 17.37-4.25 6.06-15.35 10.34-21.84 7.08-2.52-1.27-4.42-5.04-5.31-8.05-4.27-14.43-9.97-28.11-21.06-38.63-3.53-3.34-7.28-5.76-5.4-12.5z"/><path d="m98.08 170.94c-.02 11.28-3.89 17.26-11.21 21.08-4.31 2.26-11.13-1.18-13.63-6.31-3.75-7.72-7.73-15.33-11.88-22.84-3.82-6.91-10.22-11.18-16.52-15.6-2.73-1.92-5.11-4.52-7.14-7.19-1.26-1.66-1.7-3.63 2.08-3.28 4.82.44 8.94 1.63 13.22 4.28 4.39 2.72 10.16 3.09 15.1 5.06 8.44 3.37 17.77 5.56 23.59 13.27 3.14 4.14 5.11 9.16 6.39 11.53z"/></g></svg>