<svg enable-background="new 0 0 400 400" viewBox="0 0 400 400" xmlns="http://www.w3.org/2000/svg"><path d="m357.52 220.74c-7.34 4.4-14.17 7.91-20.3 12.37-4.84 3.52-8.59 8.5-13.27 12.28-3.03 2.45-6.72 3.45-10.93 1.71-4.94-2.05-10.41-2.91-15.19-5.23-3.78-1.84-6.79-5.22-10.28-7.72-5.72-4.1-11.49-8.13-17.43-11.91-.59-.37-3.32 1.01-3.56 1.96-1.33 5.24-5.28 5.64-9.53 5.81-7.92.31-15.85.53-23.75 1.13-1.17.09-2.65 1.9-3.19 3.24-1.58 3.9-3 7.89-4.01 11.97-1 4.03 1.24 6.76 4.86 8.05 4.89 1.74 9.89 3.16 14.89 4.57 2.96.83 6.02 1.29 9 2.05 11.39 2.91 18.31-4.36 25.73-10.94 5.07-4.49 7.55-3.89 12.73.53 2.67 2.28 6.16 3.57 9.21 5.41 4.45 2.69 9.13 5.11 13.1 8.38 1.58 1.3 2.33 4.72 1.93 6.89-.22 1.21-3.66 2.68-5.55 2.55-6.35-.43-12.64-2.05-18.98-2.23-5.96-.17-11.97.84-17.94 1.51-.72.08-1.9 1.31-1.84 1.9.09.86.98 1.79 1.77 2.37 1.44 1.06 3.15 1.73 4.56 2.82 2.82 2.18 2.69 5.64.35 7.84-6.23 5.86-12.32 11.85-18.32 17.94-4.23 4.29-8.27 8.76-12.26 13.27-1.04 1.18-1.71 2.76-2.28 4.26-1.13 2.97-.38 4.58 3.2 4.5 6.5-.15 13.17.86 19.44-.34 4.63-.89 9.44-3.78 12.94-7.07 13.11-12.33 9.56-10.84 25.28-3.51 5.1 2.38 9.64 6.1 14.12 9.61 1.49 1.17 2.46 3.48 2.88 5.43.84 3.93-.35 6.44-5.17 5.87-24.95-2.96-50.02-2.3-75.04-1.85-11.42.21-22.83 2.18-34.2 3.66-4.45.58-9.38 3.83-13.07 2.66-7.57-2.4-14.35 1.56-21.57.7-2.92-.35-6.06 1.77-9.18 2.43-4.45.94-9.02 1.31-13.43 2.4-13.88 3.43-27.7 7.08-41.54 10.65-3.48.89-6.37.07-9.04-2.46-4.84-4.58-9.89-8.93-15.24-13.72.98-3.5 3.85-4.57 8.45-4.65 14.38-.25 28.74-1.1 43.1-1.93 2.7-.16 5.64-.78 7.93-2.12 2.08-1.21 4.65-3.56 4.88-5.64 1.41-12.91 2.43-25.86 3.14-38.83.44-8.03-3.72-10.98-11.61-9.02-5.21 1.29-10.37 2.85-15.65 3.75-5.73.97-10.54-2.4-11.41-7.92-.19-1.21 1.52-3.73 2.7-3.97 6.72-1.34 13.54-2.16 20.32-3.22.76-.12 1.75-.41 2.13-.97 3.99-5.86 9.49-4.09 14.74-2.86 5.37 1.26 10.64 2.95 15.96 4.41.75.21 1.61.38 2.35.24 6.2-1.21 12.36-2.59 18.57-3.75 5.7-1.06 8.2-5.26 7.04-10.92-.87-4.25-3.74-8.62-.35-13.2.23-.31-1.91-3.26-3.38-3.79-6.11-2.19-12.57-3.47-18.51-5.99-3.65-1.54-6.61-4.73-10.66-7.77-7.47 6.03-18.52 8.83-25.34 18.13-2.85 3.89-6.33 7.58-12.06 7.68-1.26.02-3.16 1.89-3.62 3.28-1.43 4.41-4.11 5.62-8.64 6.93-7.32 2.13-15.4 3.36-20.82 10.59-2.38 3.18-7.73 4.32-11.9 5.94-13.04 5.06-26.15 9.96-39.27 14.8-2.21.81-4.63 1.03-6.95 1.53-.31-.37-.61-.74-.92-1.11.7-1.15 1.13-2.73 2.14-3.37 5.66-3.55 11.35-7.07 17.24-10.22 10.41-5.56 20.79-11.04 29.48-19.3 2.31-2.2 6.36-2.46 9.03-4.42 12.51-9.19 25.12-18.29 37.12-28.13 13.62-11.18 26.78-22.92 39.75-34.85 3.04-2.8 4.7-7.22 6.63-11.07 1.33-2.65-.22-4.65-2.91-4.69-6.65-.12-13.31.18-19.97.37-1.3.04-2.59.46-3.89.53-6.93.37-13.91.32-20.76 1.25-2.03.28-4.14 3.01-5.39 5.11-1.77 2.97-1.99 7.3-4.35 9.38-2.29 2.02-6.46 2.73-9.75 2.59-4.85-.2-4.56-5.03-4.88-8.23-1.59-16.04-2.96-32.11-4.07-48.19-.67-9.74-.57-19.54-1.13-29.29-.3-5.22-1.38-10.39-1.91-15.6-.77-7.7-1.33-15.43-2.04-23.14-.24-2.61-.76-5.19-.96-7.79-.26-3.54 1.61-5.69 5.05-4.98 5.38 1.11 10.61 2.97 15.93 4.38 3.59.95 7.24 2.39 10.86 2.39 12.77-.01 25.54-.35 38.3-.99 3.79-.19 7.48-2.06 11.29-2.64 2.96-.45 6.04-.09 9.55-.09 0-3.16-.37-5.86.11-8.4.42-2.16 1.44-5.47 2.88-5.88 2.24-.64 5.64-.02 7.51 1.43 4.3 3.33 6.12 8.33 6.47 13.75.14 2.12.02 4.26.02 7.81-5.9-.97-11.24-1.89-16.6-2.68-1.08-.16-2.36-.06-3.34.38-3.34 1.5-6.71 2.99-9.8 4.92-1.41.88-3.13 2.82-3.07 4.21.27 6.04 1.18 12.05 1.8 18.07.47 4.62 3.61 6.79 8.08 5.24 2.12-.73 4.38-1.63 6-3.09 3.95-3.56 7.91-3.13 12.11-.85 2.44 1.32 4.91 2.6 7.24 4.1 3.62 2.33 3.73 4.84 2.16 9.16-1.76 4.85-1.84 10.68-1.22 15.92.63 5.39 2.69 10.69 4.66 15.82 2.73 7.1 7.73 12.49 14.46 16.04 3.25 1.71 6.43 1.61 9.41-1.35 5.21-5.19 10.3-10.43 10.26-18.34-.01-2.64-.67-5.94-2.31-7.8-7.38-8.31-8.02-19.38-12.37-28.89-.54-1.18.68-3.17 1.41-6.11-4.64-3.85-10.01-8.24-15.3-12.73-1.95-1.66-4-3.34-5.45-5.4-.94-1.33-1.68-3.82-1.04-4.97.72-1.3 3.03-2.14 4.76-2.37 2.78-.38 5.66-.02 8.48-.12 12.22-.43 24.43-.96 36.65-1.34 1.64-.05 3.32.87 4.96.81 9.45-.34 12.83-7.68 16.68-14.57 1.83-3.26 4.28-6.17 6.16-9.41 1.67-2.88 3.62-2.3 5.44-.66 8.34 7.53 16.64 15.12 24.82 22.84 3.24 3.06 3 6.95-1.04 8.59-7.05 2.87-9.79 9.16-13.55 14.77-2.36 3.52-4.37 7.53-7.48 10.26-6.39 5.62-9.25 12.83-11.5 20.62-1.14 3.96-.07 6.98 3.18 8.99 11.29 6.99 23.92 9.99 36.84 12.18 6.4 1.09 12.69 2.82 19.04 4.19 4.61.99 9.31 1.66 13.85 2.87 1.67.45 3.03 2.05 4.53 3.13-1.32.94-2.52 2.19-3.99 2.76-12.73 4.97-25.2 10.37-34.44 21.01-2 2.31-4.06 2.57-6.51.98-3.41-2.22-6.65-4.79-10.26-6.62-4.16-2.11-8.72-3.43-12.97-5.4-2.08-.96-4.04-2.41-5.74-3.97-4.85-4.46-9.1-9.69-14.39-13.52-7.75-5.61-18.89-2.87-24.58 5.1-1.23 1.73-2.49 3.57-4.13 4.85-8.33 6.49-8.2 16.37.57 22.34 3.9 2.66 8.3 4.6 12.07 7.41 11.14 8.3 23.01 15.47 35.79 20.65 9.08 3.68 18.22 7.48 28.69 7.45 9.69-.02 19.39 2.34 29.07 3.76 1.4.19 2.65.98 4.44 1.69zm-185-.56c4.23.84 6.73 1.78 9.22 1.74 7.77-.11 15.54-.43 23.28-.99 4.55-.33 9.07-1.19 13.57-2 2.37-.43 4.81-2.09 6.97-1.72 3.92.67 6.38-1.02 8.33-3.7 3.27-4.49 5.13-10.38 12.31-10.28-5.36-9.39-10.13-18.21-15.37-26.74-2.45-3.99-6.32-4.22-10.18-1.6-4.45 3.03-9.16 5.77-13.19 9.29-7.03 6.15-13.79 12.63-20.33 19.3-4.8 4.91-9.08 10.34-14.61 16.7zm31.4 115.09c.82-2.72 2.19-4.95 2.02-7.06-.71-8.61-2.14-17.17-2.78-25.79-.31-4.22.94-8.54.76-12.79-.42-10.26-5.17-15.56-12.4-14.65-4.07.51-8.18.68-12.28 1.01-4.08.33-8.21.39-12.24 1.08-3.62.62-4.98 3.01-3.05 6.46 1.1 1.98 2.23 4.06 3.82 5.62 5.59 5.51 11.48 10.72 17.07 16.23 5.01 4.93 4.26 10.07-1.66 13.58-3.92 2.32-8.16 4.29-11.62 7.18-3.9 3.26-2.98 6.95 2.01 7.81 3.99.68 8.54.6 12.34-.65 5.96-1.97 11.32-2.1 18.01 1.97zm-41.16-200.97c.03.33.06.66.09.99 4.25-.44 8.54-.64 12.73-1.4 3.72-.68 5.97-3.15 6.43-7.09.29-2.42 1.04-4.81 1.07-7.22.02-1.44-.57-3.51-1.61-4.17-1.53-.99-3.7-1.27-5.61-1.35-5.05-.21-10.25.56-15.14-.36-11.25-2.12-21.46.48-31.18 5.68-1.44.77-2.55 3.67-2.47 5.53.29 6.67 6.93 11.69 13.9 11.09 7.26-.62 14.53-1.14 21.79-1.7zm78.11 137.35c-.02.12-.03.23-.05.35-1 0-2 0-3 0-8.3.03-10.34 1.57-9.69 9.73.76 9.59 2.51 19.1 3.87 28.64.7 4.92 1.79 5.7 6.39 3.68 1.83-.8 3.61-2.57 4.56-4.35 3.19-6.03 6.17-12.18 8.88-18.44 1.73-4 2.66-8.35 4.29-12.4 1.52-3.79-.68-5.19-3.55-5.76-3.84-.76-7.8-.99-11.7-1.45zm31.99-193.71c-6.45.37-12.48.65-18.51 1.08-3.58.26-7.2.5-10.71 1.22-5.1 1.04-6.57 3.96-4.96 9.01 2.9 9.05 10.7 13.59 17.67 18.77 4.89 3.64 8.14 2.7 10.94-2.77 4.24-8.3 6.25-17.11 5.57-27.31zm-148.86 10.77c0 1.5.27 3.05-.05 4.48-1.12 4.96 1.63 7.22 5.81 7.53 4.04.3 8.15-.39 12.23-.73 8.07-.69 10.01-2.77 10.01-10.59 0-2.66-.18-5.33.04-7.98.34-4.12-2.3-5.81-5.51-6.28-3.42-.5-7.05-.58-10.44 0-12.11 2.07-12.09 2.2-12.09 13.57zm17.68 56.29c-2.16 0-4.45-.47-6.43.12-2.26.67-5.02 1.78-6.2 3.58-3.95 6.05-1 12.48-.03 18.74.11.74.66 1.56 1.25 2.06 5.12 4.34 19.21 1.12 21.48-5.23 1.12-3.12 1.15-6.73 1.19-10.12.1-7.81-1.32-9.16-8.77-9.16-.83.01-1.66.01-2.49.01zm45.61-1.99c-.05-.26-.1-.52-.15-.78-4.6.9-9.27 1.57-13.77 2.83-1.27.35-2.95 2.47-2.88 3.7.18 3.36 1.38 6.65 1.83 10.01.56 4.22 2.6 5.84 6.88 5.3 2.94-.37 5.98.04 8.96-.13 1.21-.07 2.96-.39 3.49-1.22 2.95-4.6 5.9-9.26 8.27-14.17 1.79-3.7-.71-5.32-4.16-5.52-2.82-.15-5.65-.02-8.47-.02z" fill="#010103"/><g fill="#fafbfc"><path d="m361.2 9.6.8-1c.9.7 1.9 1.4 2.9 2.3l-.9 1.1c-1-1-2-1.8-2.8-2.4zm.5 10.6c.9-2.1 1.6-4.3 2.3-6.7.4.2.8.4 1.3.6-.7 2.1-1.5 4.3-2.2 6.6zm.4-15.2.9-.9c1 .8 2 1.6 2.8 2.4l-1 1c-.9-.9-1.8-1.7-2.7-2.5zm12.5-1.2h1.2v1.4h2.7v1.1h-2.7v2.7h-1.2v-.6h-1.8v1.3h4.9v3.8h-1.2v-.5h-3.7c0 .4-.1.9-.1 1.2h5.1v1h-5.2c0 .5-.1.9-.2 1.2h6v1h-5.2c1.1 1.3 2.9 2 5.5 2.3-.4.4-.7.8-.9 1.3-2.9-.5-4.8-1.6-5.7-3.5h-.1c-.8 1.7-2.7 2.9-5.9 3.6-.2-.4-.6-.8-.9-1.1 2.8-.6 4.6-1.4 5.4-2.5h-4.8v-1h5.3c.1-.3.2-.7.2-1.2h-4.9v-1h5c0-.4 0-.8.1-1.2h-3.5v.5h-1.2v-3.9h4.9v-1.3h-1.8v.5h-1.2v-2.7h-2.7v-1h2.6v-1.4h1.2v1.4h4.7v-1.4zm-6.6 8.3h3.6c0-.4 0-.9 0-1.4h-3.6zm1.9-4.6h4.7v-1.3h-4.7zm6.6 3.2h-3.7v1.4h3.7z"/><path d="m385.3 3.8h1.3v2.2h2.8v-2.2h1.3v2.2h4.1v9.1h1.7v1.3h-16.9v-1.3h1.7v-9.1h4.1v-2.2zm.4 13.1.7 1.2c-1.8.9-3.8 1.9-6 2.9-.2-.4-.5-.8-.8-1.3 2.3-1 4.3-1.9 6.1-2.8zm-3.1-6.4h2.8v-3.2h-2.8zm0 4.6h2.8v-3.3h-2.8zm4-4.6h2.8v-3.2h-2.8zm0 4.6h2.8v-3.3h-2.8zm3.7 1.9c2.1.9 4.1 1.8 6.1 2.7l-.7 1.3c-2.2-1.1-4.2-2-6.1-2.9zm3.2-9.7h-2.8v3.2h2.8zm-2.8 7.8h2.8v-3.3h-2.8z"/></g></svg>