<svg enable-background="new 0 0 400 400" viewBox="0 0 400 400" xmlns="http://www.w3.org/2000/svg"><path d="m374.8 390.4.4-.4c.7.5 1.3 1 1.8 1.4l-.5.5c-.5-.6-1.1-1.1-1.7-1.5zm1 7.3-.6-.3c.5-1.4 1.1-2.8 1.5-4.3.2.1.4.2.6.3-.5 1.3-1 2.8-1.5 4.3zm-.4-10.3.5-.4c.4.3 1 .8 1.7 1.4l-.5.5c-.5-.5-1.1-1-1.7-1.5zm2.5.3h1.7v-1h.6v1h3.5v-1h.6v1h1.8v.5h-1.8v1.4h-2v1h3.2v2h-3.2v.9h3.3v.5h-3.4c0 .3-.1.6-.1.9h4v.5h-3.7c.7.9 1.9 1.5 3.8 1.7-.1.2-.2.4-.3.6-2.1-.4-3.5-1.1-4-2.1-.4 1-1.8 1.7-4 2.2-.1-.2-.2-.4-.3-.6 2.1-.4 3.4-1 3.8-1.8h-3.4v-.5h3.6c.1-.3.1-.6.2-.9h-3.3v-.5h3.4c0-.3 0-.6 0-.9h-3.2v-2h3.3v-1h-2.1v-1.4h-1.7v-.5zm1.1 3.5v1h2.7c0-.3 0-.4 0-.4 0-.1 0-.2 0-.2 0-.1 0-.2 0-.3h-2.7zm1.2-3v.9h3.5v-.9zm4.7 3h-2.6v.6.4h2.6z" fill="#fcfbfa"/><path d="m393.6 386.7h.6v1.5h2.7v6.1h1.1v.6h-11v-.6h1.1v-6.1h2.7v-1.5h.6v1.5h2.1v-1.5zm-2.7 8.8.4.6c-1.2.6-2.5 1.3-3.8 1.9-.1-.2-.2-.4-.3-.6 1.2-.6 2.5-1.2 3.7-1.9zm-2.2-6.7v2.4h2.1v-2.4zm0 3v2.5h2.1v-2.5zm2.8-3v2.4h2.1v-2.4zm0 3v2.5h2.1v-2.5zm6 6.1c-1.4-.7-2.7-1.3-3.9-1.8l.3-.6c1.5.6 2.7 1.2 3.9 1.7zm-1.2-9.1h-2.1v2.4h2.1zm-2.1 3v2.5h2.1v-2.5z" fill="#fcfbfa"/><g fill="#010103"><path d="m226.89 55.48c.2 1.13.12 1.77.4 2.06 4.48 4.64 3.39 9.55 1.12 14.78-.94 2.17-1.69 4.92-1.18 7.07.43 1.78 2.89 4.43 4.39 4.39 9.54-.27 19.05-1.21 28.58-1.84 2.35-.16 4.72.01 7.07.02 4.35.01 8.71.15 13.06 0 4.77-.17 9.52-.7 14.28-.93 6.5-.32 12.46-1.39 17.54-6.32 1.89-1.83 6.53-2.93 8.81-1.91 12.02 5.43 24.3 10.57 33.8 20.36 5.03 5.18 3.78 13.78-3.56 16.84-9.51 3.96-18.83 8.36-28.25 12.53-4.71 2.09-9.49 3.59-14.64 1.46-2.93-1.21-3.66-2.91-2.83-6.21 1.55-6.12 2.54-12.41 3.44-18.68.52-3.59-1.15-5.22-5.14-5.19-12.22.11-24.32.46-36.42 2.83-6.58 1.29-13.62.14-20.45.3-3.6.09-7.32.17-10.74 1.12-4.14 1.16-6.73 3.21-7.54 8.74-1.41 9.56-.31 18.78.25 28.17.37 6.07-1.4 11.38-7.34 14.95-3.04 1.83-5.57 5.06-7.36 8.21-.84 1.49-.18 5.27 1.15 6.31 10.13 7.94 16.43 19.21 25.19 28.24 9.83 10.13 20.97 18.41 35.35 21.83 9.44 2.25 18.34 6.67 27.68 9.48 8.06 2.42 16.67 3.2 24.54 6.07 7.93 2.89 15.76 3.99 24.09 3.96 5.34-.02 10.72 1.11 16.03 2.06 3.38.6 4.42 4.58 1.84 7.12-1.72 1.69-4.04 2.73-6 4.19-7.86 5.85-15.72 11.7-23.51 17.64-2.73 2.09-4.89 2.76-8.61 1.13-7.24-3.18-15.28-4.53-22.52-7.7-8.83-3.86-17.21-8.75-25.74-13.3-7.35-3.92-14.65-7.96-21.93-12.02-1.41-.79-2.75-1.8-3.9-2.94-6.73-6.66-13.78-13.06-19.95-20.21-3.78-4.38-6.02-10.05-9.27-14.93-7.01-10.52-7.7-10.47-16.66-1.68-6.86 6.74-13.76 13.45-20.93 19.86-3.91 3.49-8.41 6.31-12.65 9.44.18.7.36 1.4.54 2.1 4.49.7 9.03 2.19 13.47 1.95 10.6-.57 21.88 1.23 30.48-7.96 2.89-3.09 7.42-2.15 10.27.33 3.84 3.35 7.5 7.28 10.04 11.66 3.34 5.75.21 10.61-6.36 10-9.41-.88-18.53.98-27.7 1.42-8.35.4-16.43 1.56-24.61 2.7-5.35.75-9.28-1.31-12.72-5.54-5.04-6.19-8.89-6.26-15.34-1.4-6.37 4.8-12.62 9.79-19.29 14.13-5.5 3.59-11.54 6.36-17.35 9.47-1 .54-2.16.83-3.08 1.47-5.86 4.01-11.32 8.78-17.6 11.95-6.75 3.41-14.26 5.29-21.4 7.93-2.56.95-5.13 1.98-7.5 3.33-8.73 4.94-17.35 10.07-26.08 15.02-1.52.86-3.37 1.11-5.04 1.72-3.12 1.15-5.59.89-7.14-2.56-1.78-3.97-.34-6.74 3.17-8.49 8.93-4.44 18.13-8.35 26.88-13.1 16.03-8.71 31.9-17.75 47.67-26.92 6.05-3.51 12.07-7.29 17.35-11.83 4.56-3.92 7.76-9.39 12.08-13.64 5.75-5.66 12.38-10.45 17.96-16.26 12.14-12.64 24.15-25.45 35.53-38.76 3.04-3.55 4.72-9.08 5.14-13.87.8-9.1.56-18.33.14-27.47-.41-8.86-1.6-17.69-2.59-28.06-4.78-.03-9.99-.21-15.2-.07-7.44.2-14.89.37-22.3 1.05-8.45.77-16.84 2.17-25.28 3.1-4.42.49-8.91 1.03-13.32.73-10.15-.7-10.25-.05-10.65 9.05-.41 9.41-4.43 15.01-10.55 20.59-3.93 3.59-7.78 7.33-11.28 11.33-3.08 3.52-5.11 8.1-8.57 11.1-2.83 2.45-7.12 4.6-10.69 4.5-6.17-.17-8.83-6.83-6.65-13.03 5.61-15.95 11.82-31.76 16.11-48.07 3.09-11.75 3.4-24.22 5.12-36.35.28-1.98 1.48-3.83 2.25-5.75 2.05 1.21 5.02 1.93 5.97 3.72 2.65 4.98 5.05 10.25 6.43 15.7 1.22 4.8 4.56 6.82 8.3 8.11 3.95 1.35 8.29 2.04 12.48 2.11 15 .24 30.01.47 44.99-.04 9.31-.32 18.57-1.95 27.85-3.05 4.07-.48 6.23-3.75 6.41-6.98.31-5.52-.4-11.16-1.24-16.67-.43-2.83-2.42-2.84-5.54-2.46-12.73 1.58-25.55 2.53-38.36 3.21-10.81.57-21.66.24-31.92 4.69-3.06 1.33-7.22-2.3-7.65-6.42-.21-1.98-.05-4-.05-6 0-8 2.1-9.33 10.13-8.2 11.11 1.56 22.31 2.37 33.38-.7 1.4-.39 2.97-.24 4.46-.28 14.43-.34 29.02.52 43.26-1.34 14.49-1.9 28.9-2.38 43.42-2.79 11.06-.31 19.11-7.64 27.62-13.62 2.11-1.49 4.23-2.99 6.48-4.23 3.07-1.69 5.53-1.08 8.41 1.35 3.15 2.67 7.16 4.43 11 6.14 3.42 1.52 5.42 3.59 4.82 7.45-.59 3.79-2.5 7.04-6.28 7.89-6.06 1.37-11.76 3.88-18.61 2.5-4.97-1-10.59 1.25-15.92 2.08-.31.05-.6.39-.9.41-10.53.41-21.07.74-31.6 1.25-1.58.05-3.16.89-4.74 1.37z"/><path d="m207.43 295.3c-.47 4.92-1.19 9.83-1.34 14.76-.11 3.59.95 7.22.75 10.8-.8 14.28-1.19 28.64-3.12 42.78-1.19 8.76-9.41 12.21-16.93 14.7-4.9 1.62-11.79-5.28-11.67-11.8.18-9.54 1.3-19.06 1.73-28.6.15-3.24-.71-6.52-.83-9.79-.41-11.59-1.12-23.2-.91-34.78.23-12.86-1.98-11.91-14.25-11.11-6.77.44-13.41 2.71-20.18 3.54-2.1.26-5.53-.82-6.48-2.41-2.85-4.77-5.01-10.02-6.83-15.29-.27-.78 2.68-3.77 4.27-3.89 4.05-.3 8.18.61 12.28.76 12.13.42 24.28 1.36 36.38.87 16.76-.68 33.47-2.5 50.2-3.79 5.09-.39 10.21-1.06 15.28-.85 6.26.27 10.4-3.68 14.94-6.66 6.9-4.51 12.25-4.8 18.85-.35 3.38 2.27 6.74 4.91 10.51 6.17 5.41 1.82 5.62 5.59 4.76 9.78-2.03 9.87-4.65 19.62-6.53 29.52-.77 4.02-.37 8.3-.28 12.45.23 10.41-4.22 18.24-12.62 24.19-3.08 2.18-5.65 5.06-8.63 7.39-8.08 6.32-16.15 4.3-19.48-5.23-2.55-7.28-5.57-13.94-12.44-18.16-.97-.59-1.74-1.55-2.5-2.43-2.61-3.04-1.71-6.78 2.16-7.53 2.48-.49 5.26-.15 7.79.39 6.73 1.44 12.11-1.99 12.63-8.71.55-7.08.52-14.21 1.13-21.29.4-4.63-2.25-6.94-7.41-6.67-9.7.5-19.37 1.37-29.07 1.91-11.2.62-13.55 5.06-12.63 12.79.25 2.14.04 4.33.04 6.49.14.02.29.04.43.05z"/><path d="m262.13 150.09c8.25-.37 16.51-.56 24.73-1.23 1.79-.14 3.42-2.01 5.18-2.97 2.45-1.34 4.86-3.38 7.45-3.67 3.33-.37 4.47 2.82 4.84 5.64.43 3.24 1.36 6.89.32 9.71-.76 2.03-4.29 4.01-6.76 4.25-11.12 1.07-22.31 1.42-33.46 2.22-6.49.47-12.93 1.53-19.42 1.89-5.47.3-7.02-1.78-7.01-8.13.01-6.28.51-6.6 6.86-6.84 5.75-.22 11.49-.85 17.23-1.3.01.14.03.28.04.43z"/><path d="m181.56 144.43c2.83 9.61 4.98 17.56 1.61 26.89-6.29-.39-13.16-.82-20.02-1.23-1.33-.08-2.66-.09-3.99-.09-10.35-.01-20.7.01-31.04-.01-4.66-.01-7.73-2.73-8.05-7.37-.26-3.82 2.18-4.67 5.46-4.65 13.48.06 26.97-.1 40.45.1 3.94.06 6.41-1.14 8.38-4.63 1.65-2.92 4.2-5.33 7.2-9.01z"/><path d="m253.26 131c-2.83 0-5.67-.21-8.47.05-4.24.39-6.13-1.17-6.92-5.53-1.49-8.23-1.17-9.36 7.24-9.42 9.43-.07 18.88.92 28.3.78 5.49-.08 11-1.25 16.41-2.37 3.47-.72 6.73-1.03 8.87 2.09 1.85 2.7-.32 7.06-4.27 9.2-1.7.92-3.56 1.86-5.43 2.07-11.88 1.3-23.79 2.4-35.69 3.57-.01-.16-.03-.3-.04-.44z"/><path d="m161.46 132.83c-10.83.72-21.65 1.61-32.49 2.1-6.16.28-9.61-3.28-9.97-9.34-.22-3.64 1.15-5.82 5.09-5.58 4.44.27 8.87.98 13.3.92 11.27-.14 22.53-.65 33.8-.89 1.91-.04 3.84.59 5.76.87 3.27.48 6.32 2.41 5.71 5.47-.44 2.22-3.57 4.92-5.97 5.51-4.89 1.19-10.1 1.09-15.18 1.53-.02-.2-.03-.39-.05-.59z"/></g></svg>