<svg enable-background="new 0 0 400 400" viewBox="0 0 400 400" xmlns="http://www.w3.org/2000/svg"><path d="m374.8 390.4.4-.4c.7.5 1.3 1 1.8 1.4l-.5.5c-.5-.6-1.1-1.1-1.7-1.5zm1 7.3-.6-.3c.5-1.4 1.1-2.8 1.5-4.3.2.1.4.2.6.3-.5 1.3-1 2.8-1.5 4.3zm-.4-10.3.5-.4c.4.3 1 .8 1.7 1.4l-.5.5c-.5-.5-1.1-1-1.7-1.5zm2.5.3h1.7v-1h.6v1h3.5v-1h.6v1h1.8v.5h-1.8v1.4h-2v1h3.2v2h-3.2v.9h3.3v.5h-3.4c0 .3-.1.6-.1.9h4v.5h-3.7c.7.9 1.9 1.5 3.8 1.7-.1.2-.2.4-.3.6-2.1-.4-3.5-1.1-4-2.1-.4 1-1.8 1.7-4 2.2-.1-.2-.2-.4-.3-.6 2.1-.4 3.4-1 3.8-1.8h-3.4v-.5h3.6c.1-.3.1-.6.2-.9h-3.3v-.5h3.4c0-.3 0-.6 0-.9h-3.2v-2h3.3v-1h-2.1v-1.4h-1.7v-.5zm1.1 3.5v1h2.7c0-.3 0-.4 0-.4 0-.1 0-.2 0-.2 0-.1 0-.2 0-.3h-2.7zm1.2-3v.9h3.5v-.9zm4.7 3h-2.6v.6.4h2.6z" fill="#fcfbfa"/><path d="m393.6 386.7h.6v1.5h2.7v6.1h1.1v.6h-11v-.6h1.1v-6.1h2.7v-1.5h.6v1.5h2.1v-1.5zm-2.7 8.8.4.6c-1.2.6-2.5 1.3-3.8 1.9-.1-.2-.2-.4-.3-.6 1.2-.6 2.5-1.2 3.7-1.9zm-2.2-6.7v2.4h2.1v-2.4zm0 3v2.5h2.1v-2.5zm2.8-3v2.4h2.1v-2.4zm0 3v2.5h2.1v-2.5zm6 6.1c-1.4-.7-2.7-1.3-3.9-1.8l.3-.6c1.5.6 2.7 1.2 3.9 1.7zm-1.2-9.1h-2.1v2.4h2.1zm-2.1 3v2.5h2.1v-2.5z" fill="#fcfbfa"/><g fill="#010103"><path d="m253.5 263.37c-8.64-.93-13.15 2.38-15.67 10.73-.97 3.2-3.01 6.08-4.56 9.11-.43.85-1.13 1.68-1.22 2.57-1.3 13.27-7.87 24.11-17.31 32.65-12.55 11.36-25.48 22.47-40.61 30.48-4.29 2.27-8.78 4.19-13.3 5.96-1.28.5-2.98-.09-4.49-.18.31-1.83-.01-4.24 1.04-5.39 2.53-2.75 5.66-4.97 8.63-7.3 3.34-2.62 6.87-5 10.12-7.72 6.94-5.8 13.87-11.62 20.55-17.72 2.37-2.16 4.18-5.03 5.89-7.79 3.58-5.8 7.32-11.55 10.26-17.67 2.85-5.94 5.16-12.22 6.99-18.55 1.43-4.97-.76-7.47-6.12-7.43-3.18.02-6.78.45-9.43 2-4.53 2.66-8.56 1.09-12.55-.34-3.92-1.4-2.85-5.25-2.64-8.25.28-3.96 2.72-6.63 6.56-7.4 2.02-.41 4.25.18 6.38.39 4.71.47 9.41 1.27 14.11 1.28 1.29 0 3.44-2.16 3.74-3.63 1.62-7.97 3.2-16 3.97-24.08.53-5.55-3.81-8.68-9.25-8.17-3.47.33-7 .25-10.49.04-4.46-.28-7.02-3.47-7.42-8.76-.32-4.26 1.85-6.06 5.93-6.5 7.66-.82 13.77-4.03 18.21-10.8 2.54-3.87 6.74-6.62 9.75-10.25 1.2-1.45 1.21-3.89 1.94-6.53-14.45 1.17-28.13 2.29-41.71 3.39-1.89-9.14-1.53-9.57 6.16-13.12 1.8-.83 3.23-2.75 4.48-4.43 3.31-4.44 5.96-9.47 9.74-13.43 5.62-5.88 6.9-13.53 9.78-20.53.8-1.94 1.2-4.06 2.05-5.97 2.48-5.53 3.99-6.25 9.48-3.73 2.96 1.36 5.05.62 6.26-1.85 1.98-4.06 6.87-7.48 2.44-13.16-2.31-2.97-4.66-4.75-8.17-4.19-4.05.64-7.71 2.01-10.09 6.04-3.29 5.58-6.49 11.47-10.94 16.05-6.98 7.18-14.9 13.45-22.61 19.88-1.12.94-4.46 1.28-4.74.77-.92-1.64-1.67-4.13-1.04-5.71 1.07-2.64 3.17-4.9 4.98-7.21 4.76-6.05 10.27-11.64 14.22-18.17 3.57-5.9 6.2-12.3 5.5-20.04-.54-5.95 1.82-12.17 3.03-19.04 7.52 1.88 8.18 9.67 12.66 13.34 8.7-1.01 17.67-1.1 26.1-3.27 9.16-2.37 17.95-6.39 26.61-10.34 2.03-.93 3.6-4.31 4.11-6.83 1.26-6.17 8.34-7.64 12.91-3.44 2.06 1.89 4.73 3.26 7.34 4.38 7.06 3.01 8.56 8.17 3.72 14.14-2.6 3.2-5.37 6.27-8.24 9.22-1.95 2.01-2.42 3.62.56 4.77 7.36 2.85 14.84 5.39 22.08 8.51 2.24.97 4.18 3.17 5.66 5.23 1.77 2.46 2.91 5.38 4.84 7.85-.05 10.92-7.07 13.6-16.15 16.59-4.12 1.36-8.91 1.65-13.25 1.13-6.66-.79-7.97-3.29-9.43-9.68-1.82-7.99-4.55-15.77-6.73-23.69-1.86-6.76-6.96-7.1-12.52-6.54-6.17.62-12.33 1.38-19.48 2.19 3.38 6.05 6.22 11.6 9.52 16.87 1.91 3.05 4.68 5.56 2.2 9.54-4.06 6.51-7.53 8.63-12.52 7.05-4-1.27-7.86-2.98-12.07-4.61.42 2.73 1.87 5.78.98 7.79-1.36 3.05-4.13 5.6-6.67 7.95-7.13 6.6-13.17 13.83-15.72 24.19 9.14 0 17.98.64 26.67-.22 6-.59 9.76-5.59 9.45-12.4-.12-2.67-.23-5.38.09-8.03.32-2.66 2.09-4.68 4.7-2.84 3.71 2.63 5.38.05 7.21-2.12 1.78-2.12 3.27-4.49 4.76-6.84 2.47-3.89 5.68-5 9.75-2.66 3.39 1.95 6.82 3.86 9.95 6.17 3.44 2.54 3.83 10.29.61 13.25-14.7 13.54-29.57 26.9-44.24 40.47-2.72 2.52-4.83 5.71-8.13 9.68 2.9 1.09 4.79 2.39 6.72 2.44 8.83.22 17.66.13 26.49.09 8.12-.04 10.9-3.15 10.09-11.02-.4-3.92-.86-7.86-.93-11.79-.03-1.64.58-4.49 1.42-4.7 1.64-.42 3.91.22 5.46 1.18 3.65 2.27 7.04 4.96 10.51 7.51 1.72 1.26 3.39 2.58 5.06 3.89 3.79 2.97 7.48 6.06 11.37 8.89 2.61 1.9 4.66 7.78 2.79 10.65-3.92 6.01-8.07 11.89-12.46 17.57-3.59 4.64-8.93 5.26-14.35 4.78-3.94-.35-3.57-3.9-3.81-6.43-.91-9.51-.8-9.3-10.37-9.59-6.36-.2-12.7-1.13-19.05-1.73-.19.27-.57.58-.52.8 1.49 6.9-2.99 11.2-6.57 16.08-1.52 2.06-2.23 5.02-2.47 7.65-.4 4.49-.06 9.04-.17 13.56-.08 3.65 2.48 4.55 5.16 4.61 3.07.08 6.16-.7 9.25-.84 1.91-.09 3.85.56 5.75.45 6.19-.38 12.93 3.5 18.48-2.42.74-.79 2.54-1.28 3.58-.98 10.17 2.88 17.28-2.44 23.97-8.79 3.34-3.17 6.51-4.8 10.74-1.37 4.82 3.91 10 7.37 14.74 11.38 1.29 1.09 1.53 3.41 2.25 5.17-1.47.52-2.93 1.42-4.42 1.48-5.67.2-11.36.13-17.04.16-.5 0-1.01-.11-1.49-.02-6.71 1.27-13.51 2.18-20.07 4-4.49 1.25-8.52.77-13 .26-5.01-.57-10.3 1.05-15.42 1.99-.78.14-1.52 1.68-1.88 2.72-1.09 3.12 2.27 12.1 5.21 14.28.13.1.31.19.36.33 2.94 7.68 11.33 9.14 16.38 14.38 10.06 10.43 22.86 16.08 36.3 20.12 9.94 2.99 20.33 4.46 30.45 6.9 2.08.5 3.84 2.3 5.75 3.5-1.67 1.79-3.01 4.47-5.06 5.21-5.93 2.16-12.1 3.72-18.25 5.19-9.71 2.32-18.72 5.79-25.61 13.46-3.33 3.71-7.67 3.32-11.32 1.3-7.55-4.17-14.97-8.67-22.01-13.64-8.25-5.83-13.94-14.19-16.51-23.69-4.2-15.73-7.1-31.77-10.66-48.07z"/><path d="m172.98 260.82c6.04 2.75 10.17 10.01 8.95 15.44-.92 4.06-4.64 3.63-7.57 3.67-11.33.16-22.67.24-33.99-.02-4.61-.11-6.45 2.04-7.41 6.09-2.55 10.78-1.3 21.5.69 32.11 2.35 12.5 1.33 23.97-9.11 32.59-2.39 1.97-6.42 3.58-9.25 3.04-4.7-.89-7.53-4.26-7.41-10.02.34-17.16.13-34.32.11-51.49-.01-6.45-1.83-8.57-8.14-8.16-10.65.7-21.31 1.57-31.89 2.95-8.31 1.08-17.36-3.31-19.02-10.09-1.26-5.11 1.03-7.53 6.4-6.94 3.92.43 7.85.88 11.78.93 2.58.03 5.16-.79 7.75-.91 1.76-.08 3.6.22 5.32.66 9.12 2.3 18.14 2.5 26.74-1.74 4.86-2.39 4.99-6.95 4.72-11.81-.38-6.93-4.88-13.34-1.95-20.79 1.25-3.17-1.86-5.58-5.74-5.35-8.12.47-11.02 2.45-12.14 8.58-.18.98.5 2.13 2.2 4.33-5.26 1.7-10.42 4.06-15.81 4.9-4.88.76-7.34-2.06-7.16-7.1.5-13.54 1.18-27.08 1.96-40.6.5-8.7-1.53-16.91-4-25.11-.57-1.89-.27-4.05-.37-6.08 2.16.02 4.49-.51 6.44.14 11.01 3.71 13.92 7.96 13.92 19.55 0 8.52-.04 17.04.01 25.57.03 5.94 1 6.93 6.96 6.81 3.26-.07 6.57-.26 9.75-.92 5.22-1.08 8.03-4.69 8.27-9.96.41-8.93-.51-17.67-2.47-26.43-.99-4.4.11-9.25.15-13.89.06-6.09.01-12.17.01-18.26-.71-.09-1.42-.18-2.14-.27-.85 2.49-1.63 5-2.57 7.46-1.04 2.73-1.94 5.57-3.43 8.05-2.11 3.51-6.48 4.26-9.99 2.09-4.37-2.71-7.13-5.75-6.78-11.83.62-10.97.91-22.03-2.66-32.84-2.3-6.98-4.3-9.28-11.61-9.11-6.27.14-12.55 1.07-18.79.8-3.76-.16-7.67-1.5-11.12-3.13-3.58-1.69-4.51-5.67-3.28-8.96.56-1.5 4.16-2.62 6.38-2.61 10.1.04 20.2.46 30.3.9 6.48.28 8.21-.91 8.81-8.29.81-10.1.46-20.32.04-30.47-.12-2.92-.2-6.58-5.07-7.61-3.91-.82-3.26-5.14-2.27-8 .3-.86 4.15-1.41 5.79-.72 7.17 3.01 14.23 6.32 21.07 10.02 1.72.93 3.39 3.62 3.48 5.58.39 8.15.5 16.34.09 24.48-.71 13.95 9.69 16.45 19.11 14.46 7.58-1.6 8.01-4.57 7.98-10.51-.05-7.17.46-14.37-.18-21.48-.43-4.72-2.54-9.27-3.73-13.94-.6-2.34-1.76-5.22-.91-7.03.69-1.48 3.96-2.24 6.16-2.42 7.68-.64 14.33 2.56 20.63 6.46 7.24 4.48 6.25 11.7 5.91 18.69-.35 7.1-.92 14.22-.65 21.3.08 2.1 2.27 5.06 4.21 5.84 1.49.6 4.35-1.28 6.17-2.64 3.16-2.36 5.8-5.41 8.99-7.72 3.34-2.42 6.25-.68 6.39 3.49.02.5-.02 1 .01 1.5.58 12.13.43 12.29-12.12 12.97-9.37.51-13.22 5.43-13.75 14.47-.36 6.06.71 12.19.82 18.29.13 7.22-1.38 8.55-8.44 8.24-14.15-.63-23.92 12.29-19.11 25.58.54 1.5 2.96 3.19 4.59 3.27 8.92.44 17.48-.46 23.16-8.88.47-.7 2.76-.85 3.78-.37 7.08 3.37 10.67 9.63 7.82 16.78-3.59 9-.58 17.68-.74 26.48-.14 7.89-3.28 10.7-11.06 11.29-5.38.41-10.66 2.2-15.98 3.39-.48.11-.93.33-1.41.42-2.82.58-7.04.21-8.17 1.9-2.34 3.5-3.68 8.01-4.26 12.27-.97 7.17-1.01 14.46-1.47 21.7-.3 4.73 1.91 7.94 6.31 8.1 7.35.25 14.75.46 22.06-.1 2.93-.23 5.89-2.26 8.47-4.01 1.86-1.3 3.11-3.46 4.46-5.02zm-64.98-137.29c.28 2.71.23 6.76 1.27 10.5.57 2.05 2.67 4.26 4.64 5.22 7.15 3.45 20.74-3.05 22.8-10.55 2.34-8.52-1.9-16.24-10.14-17.25-3.53-.43-7.33.8-10.94 1.57-6.5 1.38-7.63 2.88-7.63 10.51zm25.01 74.21c0 2.99-.47 6.08.13 8.94.6 2.83 1.63 6.19 3.66 7.94 2.47 2.12 10.18-.72 12.21-3.71 5.1-7.5 2.82-15.83 2.32-23.88-.07-1.08-2.44-2.63-3.94-2.9-11.95-2.16-14.39-.02-14.39 12.12 0 .5 0 .99.01 1.49z"/></g></svg>