<svg enable-background="new 0 0 400 400" viewBox="0 0 400 400" xmlns="http://www.w3.org/2000/svg"><path d="m374.8 390.4.4-.4c.7.5 1.3 1 1.8 1.4l-.5.5c-.5-.6-1.1-1.1-1.7-1.5zm1 7.3-.6-.3c.5-1.4 1.1-2.8 1.5-4.3.2.1.4.2.6.3-.5 1.3-1 2.8-1.5 4.3zm-.4-10.3.5-.4c.4.3 1 .8 1.7 1.4l-.5.5c-.5-.5-1.1-1-1.7-1.5zm2.5.3h1.7v-1h.6v1h3.5v-1h.6v1h1.8v.5h-1.8v1.4h-2v1h3.2v2h-3.2v.9h3.3v.5h-3.4c0 .3-.1.6-.1.9h4v.5h-3.7c.7.9 1.9 1.5 3.8 1.7-.1.2-.2.4-.3.6-2.1-.4-3.5-1.1-4-2.1-.4 1-1.8 1.7-4 2.2-.1-.2-.2-.4-.3-.6 2.1-.4 3.4-1 3.8-1.8h-3.4v-.5h3.6c.1-.3.1-.6.2-.9h-3.3v-.5h3.4c0-.3 0-.6 0-.9h-3.2v-2h3.3v-1h-2.1v-1.4h-1.7v-.5zm1.1 3.5v1h2.7c0-.3 0-.4 0-.4 0-.1 0-.2 0-.2 0-.1 0-.2 0-.3h-2.7zm1.2-3v.9h3.5v-.9zm4.7 3h-2.6v.6.4h2.6z" fill="#fcfbfa"/><path d="m393.6 386.7h.6v1.5h2.7v6.1h1.1v.6h-11v-.6h1.1v-6.1h2.7v-1.5h.6v1.5h2.1v-1.5zm-2.7 8.8.4.6c-1.2.6-2.5 1.3-3.8 1.9-.1-.2-.2-.4-.3-.6 1.2-.6 2.5-1.2 3.7-1.9zm-2.2-6.7v2.4h2.1v-2.4zm0 3v2.5h2.1v-2.5zm2.8-3v2.4h2.1v-2.4zm0 3v2.5h2.1v-2.5zm6 6.1c-1.4-.7-2.7-1.3-3.9-1.8l.3-.6c1.5.6 2.7 1.2 3.9 1.7zm-1.2-9.1h-2.1v2.4h2.1zm-2.1 3v2.5h2.1v-2.5z" fill="#fcfbfa"/><g fill="#010103"><path d="m350.53 280.26c.49 5.01 1.65 10.06 1.31 15.01-.49 7.29 1.61 13.55 5.12 19.66 3.17 5.52 6.1 11.18 9.19 16.75 1.96 3.53.37 10.45-3.31 15.01-3.42 4.23-7.39 5.91-12.86 4.34-2.94-.85-6.14-.84-9.24-1.01-24.59-1.31-48.75-4.09-71.55-14.77-12.49-5.85-25.96-9.62-37.09-18.24-5.32-4.12-12.26-7.23-15.63-12.58-8.3-13.2-14.87-27.42-16.52-43.4-1.76-17.11-3.17-34.32-6.17-51.23-2.96-16.63-2.95-33.25-2.67-49.92.25-14.71 1.38-29.4 1.86-44.11.27-8.29-1.48-10.27-9.74-9.67-18.19 1.32-36.34 3.21-54.51 4.84-4.25.38-8.52.53-12.75 1.03-9.75 1.14-10.35 8.39-9.79 15.52.65 8.28.63 16.62.89 24.93.04 1.16-.01 2.33-.04 3.5-.42 17.63-1.14 35.19-3.8 52.72-2.99 19.74-6.63 39.2-14.19 57.76-6.27 15.4-14.24 29.71-25.75 41.95-6.64 7.07-12.63 14.75-19.16 21.93-2.98 3.28-6.56 6.03-9.88 8.99-3.14 2.79-6.27 5.59-9.49 8.27-.51.42-1.47.29-3.01.54.61-1.9.69-3.49 1.51-4.46 4.68-5.57 9.55-10.98 14.32-16.48 1.78-2.06 3.65-4.08 5.11-6.35 6.33-9.84 13.88-19.18 18.44-29.8 5.74-13.38 9.94-27.62 13.07-41.87 3.7-16.82 9.94-33.1 10.05-50.78.1-15.81 2.82-31.62 2.53-47.4-.32-17.6-1.82-35.33-8.71-51.97-1.86-4.49-4.25-8.77-5.99-13.3-.59-1.53-.48-3.89.36-5.2.53-.82 3.19-.93 4.57-.44 4.41 1.56 8.58 3.77 12.99 5.32 7.18 2.52 14.48 4.72 22.01 7.14-.83 4.72 1.2 5.77 5.98 6.88 12.46 2.89 24.38 1.17 36.57-.97 5.5-.97 11.36.22 16.92-.55 5.9-.82 12-2.04 17.3-4.58 2.67-1.28 3.73-5.89 5.58-8.96 1.68-2.8 3.79-5.39 5.1-8.35 2-4.52 5.02-4.45 8.84-2.89 6.23 2.54 11.52 6.35 15.81 11.53 3 3.63 2.38 9.08-1.5 13.36-2.12 2.34-4.39 4.53-6.49 6.88-5.75 6.41-6.24 14.65-6.88 22.47-1.21 14.65-1.55 29.38-2.1 44.08-.08 2.23.37 4.59 1.07 6.73 1.53 4.7 6.64 5.53 9.89 1.69 5.84-6.9 12.65-13.24 17.19-20.91 8.02-13.55 14.67-27.91 21.82-41.96 1.89-3.7.94-5.47-3.54-5-7.85.83-15.78 1.06-23.56 2.26-4.54.7-5.28-2.31-5.63-4.89-.48-3.55 2.62-3.18 5.13-3.35 8.02-.56 16.12-.78 24.03-2.11 9.24-1.56 13.16-6.16 14.47-15.4.62-4.39 1.38-8.92.89-13.26-.49-4.37-2.33-8.61-3.79-12.84-.78-2.27-2.31-4.32-2.91-6.62-.71-2.75 2.15-5.18 4.8-4.22 11.26 4.08 22.57 8.03 33.66 12.51 6.37 2.57 6.47 6.01.74 9.89-5.47 3.7-10.31 7.78-12.43 14.45-.99 3.12-1.58 6.48 1.27 7.95 3.13 1.61 7.84 3.24 10.55 2.01 8.8-4.01 17.91-4.76 27.24-5.48 2.48-.19 5.28-1.82 7.12-3.62 3.63-3.54 6.84-7.54 9.94-11.57 3.19-4.15 5.97-4.44 9.5-.64 2.66 2.86 5.86 5.32 8.02 8.5 1.61 2.37 2.64 5.63 2.5 8.43-.06 1.12-3.84 2.52-6.09 2.96-3.68.72-7.52.57-11.23 1.19-1.65.27-4.44 1.52-4.43 2.3.02 1.84 1.03 4.02 2.35 5.39 1.28 1.32 3.47 1.74 5.21 2.64 5.04 2.61 5.83 5.71 1.54 9.49-4 3.52-8.89 6.02-13.3 9.1-3.33 2.33-6.53 4.85-10.12 7.53 14.46 15.11 34.46 14.45 50.66 22.84-2.56 4.26-6.63 5.62-11.18 6.74-4.01.99-8.02 2.55-11.57 4.64-6.67 3.91-13.02 8.09-21.28 4.58-3.18-1.35-5.72-.02-6.36 3.34-.6 3.12-.7 6.39-.57 9.58.3 7.58 1.07 15.14 1.16 22.71.02 1.81-1.39 4.32-2.92 5.35-3.98 2.68-8.36 4.78-12.64 7-3.58 1.85-5.94.54-7.27-3.12-.39-1.07-.73-2.65-1.53-2.99-2.85-1.24-5.96-3-8.85-2.79-4.33.31-3.89 5-4.03 7.84-.09 1.85 2.16 4.72 4.08 5.62 11.17 5.26 22.47 10.27 33.89 14.98 11.77 4.86 12.36 13.91 3.1 22.09-2.57 2.27-4.39 5.37-6.91 7.72-4.66 4.35-10.2 3.19-12.27-2.81-3.56-10.32-9.21-19.41-15.63-28.05-1.86-2.5-4.69-4.29-7.93-7.18-.89 2.8-2.03 4.47-1.81 5.95 2.26 15.38.25 30.5-3.28 45.38-1.79 7.53-7.92 12.58-13.79 17.25-2.21 1.75-8.42-1.02-10-4.21-2.35-4.74-4.64-9.38-9.56-12.16-.91-.52-1.71-2.98-1.25-3.79.77-1.33 2.49-2.59 4.02-2.92 4.63-1 9.61-1.09 12.6-5.56 1.02-1.52 2.01-3.43 2.05-5.18.2-9.49.32-19 0-28.49-.17-5.21-1.08-10.41-2.01-15.56-.72-3.97-5.52-6.08-9.87-4.17-3.76 1.64-1.84 4.63-.92 7.19.22.61.53 1.2.85 1.77 5.55 9.62 3.52 17.14-5.29 23.98-6.19 4.81-11.23 11.09-16.91 16.57-1.25 1.21-3.03 1.89-4.62 2.73-5.77 3.06-6.33 5.4-3.19 11.09 5.59 10.13 13.18 17.74 24.49 21.39 9.27 2.99 18.26 6.89 27.61 9.54 8.66 2.46 17.94 2.91 26.37 5.9 6.99 2.48 13.77 4.58 21.05 3.52 2.68-.39 5.79-2.15 7.48-4.27 7-8.8 9.44-19.42 11.15-30.3.46-2.91 2.07-5.65 3.16-8.46.36.13.79.29 1.21.44zm-114.51-107.29c-3.77 2.78-6.62 4.88-9.47 6.98-3.67 2.71-7.03 6.07-11.08 7.97-4.73 2.22-6.81 5.47-6.43 10.28 1.23 15.57 2.49 31.14 4.12 46.67.48 4.55.7 9.63 5.51 12.51.6.36.78 1.4 1.16 2.13 2.75 5.31 4.78 5.97 8.49 1.44 5.34-6.52 9.95-13.63 14.79-20.55 1.83-2.61.6-4.59-1.04-7.07-1.97-2.98-3.78-6.69-3.9-10.15-.45-12.81-.06-25.65-.26-38.48-.05-3.5-1.09-6.99-1.89-11.73zm69.98 12.47c.15-.01.29-.03.44-.04-.48-5.41-.78-10.84-1.49-16.22-1-7.64-4.95-10.32-12.6-9.16-9.2 1.41-18.42 2.69-27.64 3.99-7.05.99-9.71 3.51-10.66 10.37-.39 2.78.42 5.33 3.51 5.49 4.45.24 8.95.02 13.4-.38 7.34-.67 14.64-1.78 21.98-2.36 1.28-.1 2.69 1.54 4.05 2.38-.97 1.32-1.72 2.95-2.99 3.87-1.25.91-2.99 1.31-4.58 1.56-6.77 1.09-13.53 2.28-20.34 3-11.78 1.26-13.36 2.87-13.07 14.54 0 .17-.01.33 0 .5.2 4.25 3.69 7.08 7.75 5.56 9.87-3.68 20.18-3.93 30.47-4.54 8.17-.48 11.78-4.16 11.78-12.07-.01-2.16-.01-4.32-.01-6.49zm-42.49-27.09c.21-.34.42-.68.64-1.02 2.41-.37 4.83-.75 7.24-1.12 6.91-1.07 13.81-2.19 20.73-3.2 11.03-1.61 12.57-1.77 8.45-12.39-4.05-10.46-9-20.51-10.72-31.76-.35-2.29-1.92-3.1-4.73-2.58-5.53 1.02-9.2 4.38-12.03 8.65-5.89 8.89-11.27 18.11-17.15 27-2.62 3.96-4.79 8.24-1.64 12.11 1.92 2.37 6.06 2.93 9.21 4.31zm60.56-56.32c-.01-.13-.03-.25-.04-.38-5.49.77-10.99 1.45-16.45 2.34-5.75.93-7.76 4.34-4.45 8.81 3.33 4.5 7.62 8.38 11.89 12.08 2.23 1.93 4.94 1.72 7.45-.75 4.92-4.87 7.85-10.72 9.48-17.31.68-2.76-.58-4.44-3.39-4.76-1.49-.16-3-.03-4.49-.03z"/><path d="m157.57 260.44c6.52 7.06 13.21 13.97 19.49 21.23 5.35 6.18 10.93 12.34 15.13 19.28 5.36 8.86 2.59 17.98-5.92 23.99-.53.37-1.12.65-1.68.98-1.77 1.05-4.62 3.37-5.12 2.95-2.2-1.9-4.1-4.39-5.4-7.02-1.71-3.46-2.62-7.32-4.16-10.88-1.1-2.53-2.9-3.23-6-2.53-15.07 3.41-30.26 6.28-45.34 9.66-6.33 1.42-12.42 3.82-18.71 5.45-5.25 1.36-10.2.86-13.8-3.97-1.7-2.28-1.9-4.42 1.07-5.54 3.32-1.24 6.75-2.33 10.23-2.97 10.42-1.94 20.88-3.67 31.34-5.4 14.98-2.49 11.92-4.98 12.3-15.87.14-4.1.98-8.21.83-12.29-.13-3.51-.71-7.19-1.99-10.44-1.59-4.04-7.32-6.02-12.47-3.74-2.14.95-3.38 4.73-4.3 7.47-1.12 3.35-1.09 7.1-2.33 10.4-.6 1.6-3.09 3.69-4.46 3.5-1.89-.25-4.11-2.1-5.12-3.87-1.06-1.84-1.14-4.41-1.15-6.66-.08-18.66.1-37.32-.13-55.98-.07-5.87-1.35-11.71-1.6-17.59-.09-2.05.8-4.62 2.18-6.06.73-.75 3.53.26 5.3.8 3.71 1.11 7.27 3.02 11.04 3.54 5.87.82 10.16-1.9 10.82-7.54.85-7.27.4-14.7.48-22.05.04-3.49.01-6.98.01-11.02-4.99 0-9.7 0-14.55 0 2.62-9.28 5.69-11.38 15.28-12.24 7.53-.67 15.1-1.07 22.57-2.12 5.39-.76 7.35-5.65 9.43-9.86 1.14-2.31 1.19-5.75 4.84-4.86 3.19.77 4.71 3.36 4.31 6.83-.12.99-.02 2-.02 3 0 10.18.14 10.8-9.58 13.04-7.54 1.74-10 7.04-12.35 13-2.5 6.35-3.94 12.94-2.96 19.75.31 2.15 1.38 5.29 2.92 5.9 1.88.75 5.12-.01 6.92-1.3 7.52-5.39 12-5.81 18.04-.88 3.31 2.69 3.46 6.1.95 10.98-.99 1.93-1.79 4.2-1.85 6.34-.22 7.82-.25 15.66-.02 23.49.12 4.24.62 8.52 1.48 12.68 1.3 6.34-.5 9.48-6.68 11.06-6.38 1.63-12.7 3.48-19.04 5.24-.06.67-.14 1.39-.23 2.12zm-16.03-25.26c-.77-6.39-1.8-13.69-2.47-21.03-.37-4.03-1.49-6.33-6.22-6.27-4.84.07-6.68 2.88-7.77 6.72-.44 1.55-.31 3.28-.31 4.93.03 10.18.15 20.36.14 30.54 0 4.18 2.1 5.21 5.94 5.01 4.05-.21 8.29.26 9.1-5.17.69-4.53 1.01-9.12 1.59-14.73zm14.46-11.74c-.15.01-.3.02-.44.03.48 5.89.74 11.81 1.56 17.65.27 1.94 1.66 4.71 3.16 5.2 1.58.52 4.51-.71 5.75-2.14 1.57-1.79 2.82-4.55 2.83-6.9.02-8.73-.65-17.46-.8-26.19-.07-3.82-.85-7.12-4.97-7.89-3.74-.7-7.01 3.39-7.08 8.28-.06 3.99-.01 7.97-.01 11.96zm2.16 47.47c-.82 8.55-1.63 15.46-2.05 22.4-.1 1.61.66 4.25 1.78 4.76 2.57 1.18 5.6 1.44 8.46 1.91 3.85.63 5.64-1.55 4.54-4.87-2.03-6.1-4.58-12.05-7.28-17.89-.95-2.02-2.99-3.52-5.45-6.31z"/><path d="m242.22 130.4c-2.81 3.33-5.15 6.76-8.15 9.46-2.04 1.84-3.82-.13-3.96-2.25-.29-4.3-.31-8.66-.01-12.96.23-3.19 5.03-5.02 7.16-2.66 1.89 2.08 2.95 4.89 4.96 8.41z"/></g></svg>