<svg enable-background="new 0 0 400 400" viewBox="0 0 400 400" xmlns="http://www.w3.org/2000/svg"><g fill="#010103"><path d="m191.77 93.26c14.19 1.7 27-6.18 41.35-2.74 3.21-4.57.99-9.7.32-14.34-.92-6.36-3.95-12.17-9.16-16.34-3.94-3.15-1.87-5.41.89-7.42 5.41-3.95 13.38-2.81 20.4 2.64 2.32 1.8 4.62 3.67 7.13 5.18 4.76 2.86 3.92 7.99 5.23 12.24.62 2.01.72 4.17 1.07 6.26.91 5.48 2.85 7.02 8.26 6.21 3.7-.55 7.37-1.38 11.05-2.1 5.93-1.17 9.42-5.27 12.42-10.11 1.88-3.03 4.13-5.84 6.56-9.23 7.44 5.09 14.48 9.76 21.32 14.7 1.49 1.07 2.69 3.01 3.25 4.79 1.28 4.07-.21 5.35-4.42 6.07-10.43 1.77-20.77 4.1-31.2 5.91-7.24 1.26-14.54 2.23-21.86 2.91-3.38.31-5.03.73-3.45 4.62 1.09 2.68 1.45 5.66 2.15 8.5 1.79 7.21 5.06 9.9 12.49 8.86 7.12-1 14.01-1.4 21.19-.18 2.62.44 6.08-1.93 8.62-3.77 2.93-2.12 5.24-5.1 7.87-7.65 8.57-8.36 19.36-4.12 24.47 5.19 1.52 2.77-1.15 5.56-5.12 6.55-10.22 2.54-20.42 5.19-30.5 8.23-1.4.42-2.72 3.23-2.93 5.07-.44 3.95-.31 7.99-.09 11.98.19 3.34 1.26 6.34 5.09 7.32 3.6.92 6.42.2 8.24-3.35.51-1 1.69-1.64 2.3-2.61 4.74-7.52 6.75-9.56 15.24-1.13 2.17 2.16 3.91 4.84 5.48 7.5 2 3.36-.67 6.11-5.75 7.04-7.49 1.37-14.9 3.21-22.34 4.86-2.69.6-3.65 2.25-3.36 5.01.25 2.47.3 5.02 0 7.49-.46 3.71.98 6.49 4.38 7.2 2.37.49 5.14-.45 7.61-1.19 1.32-.39 2.48-1.57 3.51-2.6 9.73-9.78 19.1-4.39 27.03 1.18 1.86 1.31 3.52 2.92 5.26 4.4-1.48 5.71-5.17 8.36-12.64 8.55-13.5.34-26.59 3.14-39.79 5.67-7.55 1.45-15.47 1.18-23.23 1.28-4.53.06-7.15-2.68-7.5-7.66 1.29-.51 2.86-1.21 4.48-1.78 8.81-3.08 10.56-6.47 8.92-15.66-.91-5.08-2.48-8.84-8.45-9.12-1.48-.07-3.08-1.09-4.3-2.07-3.23-2.59-2.98-5.45.47-7.54.27-.16.64-.17.93-.31 3.95-1.78 9.99-2.52 9.91-7.51-.09-5.59-2.31-11.38-4.64-16.63-2.12-4.78-7.1-4.01-11.39-3.37-7.89 1.17-15.75 2.5-23.63 3.71-1.47.23-3.02-.01-4.46.32-4.41 1-7.32 3.02-6.5 8.42.54 3.58.09 7.32.11 10.98.03 5.08 1.99 7.04 7.09 7.31 4.25.23 8.55.32 12.72 1.09 1.43.26 3.7 2.63 3.5 3.61-.31 1.54-2.18 3.17-3.78 3.93-2.47 1.16-5.22 1.88-7.93 2.32-5.7.92-9.68 4.58-12.49 8.92-1.23 1.9-.21 5.95.96 8.47.92 1.98 3.51 4.13 5.61 4.42 3.48.49 7.16-.66 10.76-.73 7.54-.15 9.68 1.66 11.47 9.11-6.14 5.56-13.84 7.19-21.65 7.74-9.81.68-19.65.35-28.6 5.68-3 1.79-8.97-1.22-11.36-4.94-.79-1.23-1.53-2.55-1.96-3.94-1.96-6.31-3.26-9.63 5.75-8.63 4.77.53 6.99-1.1 7.36-5.88.26-3.41 1.08-6.77 1.53-10.17.4-3.03-1.07-4.2-4.07-4.06-3.49.16-7.01.23-10.49-.05-1.64-.13-3.63-.78-4.68-1.92-1.29-1.4-2.88-4.13-2.31-5.24.88-1.71 3.36-3.19 5.4-3.58 3.05-.59 6.32-.4 9.46-.11 4.07.38 6.31-2.06 6.5-5.25.31-5.21-.14-10.54-.95-15.72-.56-3.56-3.02-5.39-7.16-5.18-6.42.32-12.61-5.74-12.54-12.1.01-1.27 1.71-3.59 2.67-3.61 6.45-.14 12.94.7 19.36.27 7.29-.48 14.83.27 21.54-4.41 3.78-2.64 5.68-6.36 4.61-9.71-1.27-3.99-6.01-4.53-10.15-4.33-6.93.33-13.86.79-20.79.96-7.07.17-10.79-2.94-12.37-9.84-.32-1.1-.62-2.19-1.3-4.86z"/><path d="m176.97 99.06c-9.59 1.07-18.03 2.73-26.47 2.77-12.48.06-10.88 4.97-10.19 13.53.33 4.17 1.88 8.22 2.71 12.36.89 4.46 4.67 5.11 8.01 6.16 3.33 1.04 3.52-2.17 4.5-3.99 5.3-9.81 8.47-10.28 16.54-2.33 1.31 1.29 2.8 2.45 3.82 3.94.95 1.38 2.36 3.76 1.83 4.56-1.12 1.7-3.28 3.59-5.17 3.77-5.34.5-10.75.16-16.13.18-6.11.02-11.25 3.31-11.91 9.29-.56 5.02-.07 10.61 1.67 15.32 2.19 5.94 10.89 6.12 14.64.94 6.13-8.48 7.81-8.48 13.4.23 1.49 2.32 2.59 4.88 3.95 7.49-4.41 4.8-9.84 4.21-15.17 3.19-4.75-.91-17.4 4.83-17.49 9.26-.07 3.31 2.35 7.73 5.07 9.82 4.99 3.83 14.47 1.48 18.46-3.44 9.5 6.31 18.42 12.25 14.13 24.8-.43 1.25-.07 3.04.51 4.31 3.79 8.33 1.94 16.6.36 25.03-.8 4.24-.22 8.74-.38 13.11-.09 2.41-.12 4.89-.69 7.2-2.89 11.65-5.89 23.28-8.98 34.88-4.08 15.31-21.62 22.68-32.02 23.61-5.37.48-8.62-2.21-11.15-6.54-1.89-3.23-4.28-6.17-6.12-9.43-.9-1.6-1.97-4.23-1.28-5.33.91-1.45 3.43-2.43 5.36-2.62 6.24-.62 12.54-.71 18.8-1.15 3.82-.27 5.55-2.95 6.38-6.3 2.04-8.19 4.34-16.34 5.89-24.63 3.32-17.81 5.17-35.78 5.22-53.94.02-6.23-1.14-8.04-8.15-6.39-7.28 1.72-15.01 1.43-22.51 2.34-8.27 1.01-16.46 2.75-24.75 3.48-5 .44-10.29.25-15.12-.96-4.31-1.09-5.7-5.21-5.59-9.76.43-17.93 1.47-35.89.81-53.79-.58-15.68-2.57-31.38-5.16-46.87-.78-4.62-5.86-8.44-8.67-12.83-1.19-1.86-2.85-4.95-2.12-6.2 1.68-2.88 4.34-4.94 8.68-3.49 6.75 2.26 13.8 3.6 20.66 5.57 1.29.37 2.71 1.64 3.29 2.87 1.95 4.09 5.35 4.2 9.09 3.95 10.36-.7 20.73-1.24 31.06-2.16 1.21-.11 2.57-1.95 3.31-3.29 1.08-1.97 1.32-4.42 2.51-6.29 3.71-5.79 7.39-5.6 11.34-.14 3.17 4.38 6.95 8.32 10.33 12.55.98 1.2 1.52 2.76 2.89 5.36zm-66.97 22.23c-.5 4.58-.24 10.17 4.75 13.71 2.02 1.43 5.3 2.04 7.78 1.64 3.01-.49 4.97-2.86 4.51-6.54-.53-4.22-.16-8.64-1.25-12.68-.97-3.59-1.5-8.58-7.17-8.36-7.5.29-8.62 1.65-8.62 9.72zm18.86 40.97c-1.36-4.27-2.16-8.86-4.34-12.66-.96-1.68-4.81-2.58-7.18-2.3-1.91.22-4.24 2.41-5.15 4.31-1.21 2.54-1.25 5.64-1.74 8.51-.58 3.38 2.66 11.14 4.89 11.84 6.7 2.07 12.66-2.36 13.52-9.7zm-8.51 21.74c-8.07 0-8.33.21-8.35 6.79-.02 7.62 2.47 10.2 9.84 10.21 7.15.01 8.15-1.02 8.16-8.31 0-7.3-1.54-8.69-9.65-8.69z"/><path d="m334.03 256.1c1.1 9.71 1.69 18.24 3.14 26.63 1.07 6.22 3.24 12.24 4.91 18.35.86 3.13-.49 4.85-3.18 6.62-7.55 4.97-16.55 4.59-24.71 7.22-7.79 2.51-15.69 5.16-24.06 4-5.3-.73-11.18-.98-15.57-3.54-4.25-2.49-8.83-6.1-8.67-12.78.35-14.32.11-28.65.11-42.98 0-13.45-11.91-21.81-24.71-17.36-4.14 1.44-5.86 4.88-3.05 7.98 7.64 8.43 5.29 16.99.06 24.72-8.32 12.3-17.64 23.92-26.61 35.78-.75.99-2 1.66-3.11 2.33-14.19 8.51-28.09 17.6-42.73 25.27-8.96 4.69-19 7.41-28.69 10.57-5.54 1.8-11.34 2.95-17.1 3.91-2.59.43-5.38-.32-8.08-.53-.07-.7-.15-1.4-.22-2.1 2.43-1.06 4.79-2.37 7.31-3.14 9.62-2.94 19.89-4.49 28.79-8.86 10.45-5.12 20.21-12.03 29.38-19.29 7-5.54 14.32-11.91 18.49-19.56 7.27-13.32 12.29-27.87 18.07-41.97.91-2.23-.05-3.8-2.95-4.56-4.36-1.14-8.65-2.85-12.7-4.86-4.87-2.41-6.22-6.45-4.82-10.92 5.97-.35 11.66-.42 17.28-1.08 9.91-1.16 19.74-2.99 29.66-3.94 8.07-.78 16.23-.93 24.35-.93 7.61 0 15.02-.46 22.38-2.84 3.2-1.04 7.17.35 10.41-.63 3.23-.98 6.53-3.04 8.84-5.52 9.79-10.5 16.64-9.29 27.3-3.82 2.88 1.47 5.55 3.37 8.48 4.7 3.23 1.47 4.48 3.9 4.28 7.19-.2 3.17-2.5 3.7-5.15 3.93-6.36.56-12.7 1.24-19.05 1.94-1.94.22-4.17.15-5.71 1.11-5.94 3.67-12.11 3.51-18.86 3.16-7.16-.37-9.69 5.33-9.54 13.16.11 5.52.07 11.06-.11 16.58-.13 4.27-.87 8.54-.8 12.79.07 4.43 3.83 7.86 9.6 8.03 6.9.21 13.84-.37 20.74-.94 3.56-.3 4.93-2.86 5.67-6.35 1.7-8.08 3.72-16.1 6.08-24.01.43-1.46 3.06-2.25 4.85-3.46z"/><path d="m55 221.62c2.11 1.75 3.82 2.7 4.88 4.14 2.59 3.53 5.2 7.11 7.23 10.98 3.61 6.88 7.34 13.79 9.92 21.07 1.16 3.28.69 7.95-.8 11.18-3.19 6.96-7.46 13.38-14.29 17.67-6.92 4.35-11.87.28-11.82-6.14.05-5.52.88-11.08 1.92-16.52 2.44-12.66 3.39-25.4 2.95-38.27-.02-.97.01-1.95.01-4.11z"/><path d="m90.26 258.11c-1.44-10.36-2.97-20.7-4.19-31.08-.17-1.41 1.26-3.01 1.95-4.53 1.4.69 3.35 1.01 4.11 2.13 6.73 9.81 13.76 19.56 15.51 31.75.86 5.97-.43 11.86-3.93 16.69-1.1 1.51-4.93 2.12-7.07 1.54-3.73-1.01-7.45-2.98-7.61-7.84-.09-2.82-.02-5.65-.02-8.47.41-.06.83-.13 1.25-.19z"/><path d="m135.9 228.62c2.11 3.37 4.26 6.72 6.32 10.12 4.64 7.66 10.28 14.86 8.88 24.83-.7 4.97-4.98 10.55-9.89 11.35-2.7.44-6.09-3.61-6.18-7.68-.11-5.66.19-11.34-.1-16.99-.23-4.56-1.23-9.08-1.58-13.64-.19-2.46.24-4.97.4-7.46.72-.17 1.44-.35 2.15-.53z"/><path d="m112.32 228.87c2.5 1.43 4.1 1.78 4.47 2.65 4.73 11.12 11.97 21.47 10.29 34.56-.48 3.77-1.9 6.23-5.66 6.86-4.1.7-5.99-2.22-6.28-5.39-1.14-12.37-1.85-24.79-2.82-38.68z"/></g><path d="m361.2 9.6.8-1c.9.7 1.9 1.4 2.9 2.3l-.9 1.1c-1-1-2-1.8-2.8-2.4zm.5 10.6c.9-2.1 1.6-4.3 2.3-6.7.4.2.8.4 1.3.6-.7 2.1-1.5 4.3-2.2 6.6zm.4-15.2.9-.9c1 .8 2 1.6 2.8 2.4l-1 1c-.9-.9-1.8-1.7-2.7-2.5zm12.5-1.2h1.2v1.4h2.7v1.1h-2.7v2.7h-1.2v-.6h-1.8v1.3h4.9v3.8h-1.2v-.5h-3.7c0 .4-.1.9-.1 1.2h5.1v1h-5.2c0 .5-.1.9-.2 1.2h6v1h-5.2c1.1 1.3 2.9 2 5.5 2.3-.4.4-.7.8-.9 1.3-2.9-.5-4.8-1.6-5.7-3.5h-.1c-.8 1.7-2.7 2.9-5.9 3.6-.2-.4-.6-.8-.9-1.1 2.8-.6 4.6-1.4 5.4-2.5h-4.8v-1h5.3c.1-.3.2-.7.2-1.2h-4.9v-1h5c0-.4 0-.8.1-1.2h-3.5v.5h-1.2v-3.9h4.9v-1.3h-1.8v.5h-1.2v-2.7h-2.7v-1h2.6v-1.4h1.2v1.4h4.7v-1.4zm-6.6 8.3h3.6c0-.4 0-.9 0-1.4h-3.6zm1.9-4.6h4.7v-1.3h-4.7zm6.6 3.2h-3.7v1.4h3.7z" fill="#fafbfc"/><path d="m385.3 3.8h1.3v2.2h2.8v-2.2h1.3v2.2h4.1v9.1h1.7v1.3h-16.9v-1.3h1.7v-9.1h4.1v-2.2zm.4 13.1.7 1.2c-1.8.9-3.8 1.9-6 2.9-.2-.4-.5-.8-.8-1.3 2.3-1 4.3-1.9 6.1-2.8zm-3.1-6.4h2.8v-3.2h-2.8zm0 4.6h2.8v-3.3h-2.8zm4-4.6h2.8v-3.2h-2.8zm0 4.6h2.8v-3.3h-2.8zm3.7 1.9c2.1.9 4.1 1.8 6.1 2.7l-.7 1.3c-2.2-1.1-4.2-2-6.1-2.9zm3.2-9.7h-2.8v3.2h2.8zm-2.8 7.8h2.8v-3.3h-2.8z" fill="#fafbfc"/></svg>