<svg enable-background="new 0 0 400 400" viewBox="0 0 400 400" xmlns="http://www.w3.org/2000/svg"><g fill="#010103"><path d="m153.71 372.33c.55-1.41.89-2.96 1.69-4.21 4.28-6.7 8.75-13.27 12.98-20 1.63-2.59 2.84-5.46 4.18-8.23 9.48-19.63 14.49-40.43 18.84-61.78 6.4-31.45 3.45-62.99 4.66-94.49.6-15.47 2.02-30.91 2.7-46.38.14-3.1-1.37-6.26-2.09-9.29-14.57-1.18-19.98 8.43-20.45 21.19-.83 22.46-.05 44.98-.32 67.48-.11 8.72-.8 17.48-2.04 26.11-.95 6.59-5.38 11.05-11.77 13.3-3.17 1.11-4.1 2.55-1.92 5.77 5.57 8.22 11.12 16.48 16.11 25.05 5.39 9.26 3.8 18.3-.91 27.76-1.92 3.86-4.06 6.42-7.4 8.36-3.91 2.27-6.24 1.54-7.24-2.74-1.55-6.64-2.44-13.44-3.76-20.14-1.39-7.02-2.92-14.02-4.46-21.01-2.02-9.15-4.1-18.29-6.22-27.72 2.7.93 5.34 1.84 8.7 2.99 0-4.13.47-7.81-.21-11.27-.31-1.59-2.86-3.86-4.43-3.89-13.32-.31-26.66-.16-39.99-.18-7.49-.01-11.25 4.37-13.35 10.98-.78 2.47-1.81 4.92-3.1 7.16-2.91 5.06-8.53 5.32-10.67.02-2.21-5.49-3.84-11.56-4.08-17.44-.79-19.75-.98-39.52-1.11-59.29-.06-8.26.74-16.53.9-24.8.17-8.52.2-17.04-.04-25.55-.11-3.92.05-8.2-4.4-11.75-7.12 5.34-14.21 10.81-21.5 15.99-1.3.92-3.43.68-5.17.98.13-1.64-.32-3.68.49-4.84 5.41-7.77 10.7-15.69 16.79-22.92 9-10.67 15.14-23.01 22.03-34.95 3.81-6.59 6.95-13.26 6.87-21.1-.04-3.97-1.01-7.29-4.02-10.16-1.32-1.26-2.69-3.82-2.24-5.22.45-1.41 3.04-2.33 4.85-3.04 2.1-.82 4.51-.87 6.57-1.76 6.01-2.62 11.43-3.24 16.3 2.44 3.93 4.59 8.67 8.51 12.4 13.24 4.25 5.41 1.76 11.16-.68 16.58 8.62 4.71 21.63 2.96 28.31-3.56 3.54-3.46 7.22-6.79 11.01-9.98 3.74-3.15 7.24-3.15 10.29.35 4.85 5.55 9.66 11.2 13.89 17.22 2.65 3.77 1.31 6.39-2.67 8.35-15.24 7.53-28.8 17.48-41.37 28.86-3.3 2.99-6.87 5.74-9.85 9.03-2.03 2.24-3.24 5.22-5.57 9.12 8.71 0 15.58.67 22.23-.28 3.32-.47 6.63-3.48 9.2-6.09 3.46-3.52 6.47-3.24 9.91-.48.52.42.92.98 1.45 1.37 7.24 5.39 12.59 4.44 17.89-3.28 7.39-10.75 14.65-21.59 22.11-32.28 3.36-4.82 7.26-9.28 10.57-14.13 2.83-4.13 3.34-8.69 2.08-13.74-.92-3.71-1.05-7.76-.75-11.59.38-4.73 10.45-9.16 15.23-6.74 8.16 4.14 15.23 9.71 20.38 17.4 3.02 4.5 2.99 5.52.84 12.5 1.71.13 3.27.34 4.83.35 7.16.04 14.34.26 21.49-.05 7.26-.32 11.1-7.65 17.89-9.26 3.08-.73 6.91-4.05 8.77-3.08 5.35 2.78 9.89 7.12 14.68 10.93.59.47.8 1.4 1.17 2.14 4.06 8.08 3.32 8.99-5.33 12.57-4.22 1.75-7.8 5.16-11.51 8.02-13.74 10.59-27.46 21.23-41.08 31.98-1.36 1.07-2 3.06-3.6 5.62 12.06 1.68 22.73 2.44 33.01-1.1 3.63-1.25 6.33-5.07 9.59-7.55 4.6-3.49 9.27-7.81 15.56-6.08 8.29 2.28 14.03 8.31 17.86 15.69 2.32 4.48-.66 8.03-5.94 8.17-3.16.08-6.33-.06-9.5.03-22.53.64-45.07 1.11-67.59 2.08-10.48.45-20.94 1.77-31.38 2.95-6.89.78-11.14 6.12-11.39 12.99-.55 15.54-.8 31.11-2.11 46.59-1.37 16.31-4.76 32.48-5.56 48.8-.85 17.36-5.32 33.86-9.55 50.4-2.39 9.35-6.9 18.28-11.28 26.99-4.61 9.17-9.19 18.67-15.63 26.52-6.24 7.69-10.85 17.52-22.07 21zm82.99-243.62c.03-.24.06-.48.1-.71 1.66 0 3.37-.24 4.98.04 5.66.97 9.77-1.19 13.3-5.54 5.78-7.14 11.81-14.09 17.81-21.05 4.5-5.23 9.29-10.23 13.58-15.62 1.34-1.69 2.61-4.93 1.85-6.38-.78-1.5-4.1-2.4-6.27-2.32-10.02.39-20.02 1.53-30.04 1.73-4.7.09-8.07 1.49-11.3 4.8-5.56 5.69-10.43 11.98-17.64 16.18-4.92 2.87-8.63 7.93-12.63 12.24-5.96 6.44-.73 12.69 5.37 13.83 6.9 1.29 13.92 1.9 20.89 2.8zm-128.69-3.71c8.99.27 13.24-2.76 16.36-8.62 5.17-9.74 10.82-19.24 16.54-28.67 2.05-3.38 1.03-5.31-2.04-6.59-1.75-.73-3.81-1.1-5.71-1.05-6.09.17-12.2.35-18.24 1.06-2.56.3-5.62 1.28-7.34 3.03-7.46 7.61-14.59 15.56-21.61 23.58-.93 1.06-1.38 3.94-.65 4.85 6.41 7.9 15.03 11.66 22.69 12.41zm44.99 30.64c0-3.82.5-7.73-.15-11.44-.55-3.17-1.93-8.31-3.8-8.73-4.8-1.08-10.63-1.25-14.95.68-2.47 1.1-3.61 6.96-3.89 10.78-.41 5.7.59 11.48.76 17.24.13 4.52 1.29 8.83 5.53 10.54 3.53 1.42 7.81 1.95 11.6 1.5 4.53-.54 4.39-5.23 4.79-8.61.46-3.94.1-7.97.11-11.96zm-34.69 56.06c-.48-4.54-1.11-8.45-1.26-12.37-.25-6.59-2.8-9.05-9.29-9.4-6.15-.33-10.54.96-10.68 9.42-.09 5.75.64 11.5.9 17.26.25 5.36 3.35 9.94 7.17 10.38 8.79 1.01 9.87.31 11.9-8.15.61-2.51.91-5.1 1.26-7.14zm-1.31-50.63c.05 0 .09-.01.14-.01-.38-6.57-.64-13.15-1.24-19.7-.13-1.4-1.15-3.29-2.32-3.94-6.61-3.69-13.76-.24-14.47 7.27-.77 8.19-.94 16.44-.98 24.67-.01 1.82 1.16 4.47 2.62 5.35 7.77 4.64 16.24-.28 16.24-9.15.01-1.5.01-3 .01-4.49zm17 43.44h.19c0 3.98-.14 7.96.08 11.93.07 1.36.97 2.71 1.6 4.01 2.32 4.75 6.63 7.01 12.4 5.32 2.26-.66 5.29-3.59 5.46-5.68.63-8.11.64-16.33 0-24.44-.19-2.37-3.31-6.41-5.08-6.4-4.75.02-9.5 1.75-14.2 3.02-.38.1-.42 1.82-.44 2.78-.04 3.15-.01 6.3-.01 9.46z"/><path d="m349.3 248.52c-.42 2.56-1.23 5.12-1.18 7.67.25 13.11.44 26.23 1.3 39.31.22 3.34 2.81 6.52 4.25 9.79.85 1.93 1.73 3.87 2.39 5.88 3 9.13 1.16 11.14-8.02 12.97-25.41 5.08-51.07 3.88-76.67 3.7-6.76-.05-13.76-1.33-20.21-3.41-11.84-3.82-15.36-12.25-15.98-22.66-.99-16.39-.89-32.84-1.16-49.27-.38-22.59-.64-45.18-1.05-67.77-.06-3.44-1.09-6.9-.83-10.29.25-3.25 1.6-6.42 2.65-10.33 6.57 4.03 12.06 7.5 17.67 10.77 1.73 1 3.74 1.67 5.71 2.05 1.77.34 3.69-.18 5.48.11 11.42 1.87 19.46-4.45 27.08-11.36 5.79-5.25 5.94-5.62 12.33-1.1 4.67 3.3 9.33 6.71 13.5 10.6 3.92 3.65 3.12 6.67-.9 10.07-1.99 1.68-4.03 4.28-4.41 6.72-1.46 9.19-1.54 18.5-1.82 27.82-.38 12.6 2.47 25.86-3.41 38.01-4.17 8.61-10.51 15.65-18.42 20.78-7.21 4.67-9.95 3.48-13.36-3.92-1.81-3.92-4.12-7.62-6.38-11.31-1.43-2.33-1.31-4.38 1.43-4.91 8.07-1.54 8.56-7.07 8.9-13.87.78-15.72 2.32-31.42 3.76-47.1.49-5.35-2.59-9.47-8.12-9.41-5.26.06-10.53.42-15.76 1.03-2.55.3-4.95 1.29-5.08 4.76-.58 14.53-1.64 29.05-1.83 43.58-.1 8.02 1.49 16.05 1.73 24.09.19 6.25-.87 12.53-.76 18.78.08 4.52 1.19 9.03 1.81 13.54.71 5.16 5 8.8 11.87 9.04 15.02.53 30.08.57 44.81-3.03 2.42-.59 5.2-1.96 6.66-3.86 6.37-8.26 12.72-16.6 18.28-25.41 3.35-5.31 5.11-11.61 7.87-17.33.99-2.06 2.8-3.73 4.24-5.57.53.29 1.08.56 1.63.84z"/><path d="m69.36 257.55c1.75 3.87 4.32 7.59 5.09 11.65 1.95 10.25 3.41 20.63 4.36 31.02.32 3.51-.91 7.5-2.48 10.77-2.74 5.7-5.75 11.45-9.69 16.35-2.95 3.67-7.26 6.55-11.51 8.72-1.84.94-5.87.01-7.4-1.54-1.73-1.77-2.93-5.49-2.33-7.84 1.4-5.43 4.25-10.45 6.1-15.79 4.52-13.04 8.96-26.11 13.09-39.27 1.1-3.52.91-7.44 1.46-11.16.13-.86.87-1.63 1.33-2.45.67-.15 1.33-.31 1.98-.46z"/><path d="m127.78 270.66c3.68 6.65 8.48 12.94 10.75 20.05 2.65 8.28 3.38 17.23 4.36 25.95.63 5.61-1.69 10.17-7.34 12.48-1.51.62-3.16 1.22-4.31 2.3-2.45 2.31-5 2.82-7.9 1.23-3.13-1.72-4.63-4.5-4.31-8.01.55-6.03 1.42-12.04 1.96-18.07.76-8.35 1.22-16.72 2.06-25.06.35-3.45 1.33-6.83 2.03-10.24.9-.21 1.8-.42 2.7-.63z"/><path d="m100.75 278.73c5.52 10.32 8.57 19.66 9.52 30 .63 6.9-.19 12.55-4.98 17.44-3.56 3.64-8.32 5.56-13.08 5.31-1.85-.1-4.98-4.43-4.9-6.73.18-4.72 2.08-9.39 3.38-14.05 2.38-8.58 4.79-17.15 7.29-25.69.53-1.78 1.5-3.43 2.77-6.28z"/></g><path d="m361.2 9.6.8-1c.9.7 1.9 1.4 2.9 2.3l-.9 1.1c-1-1-2-1.8-2.8-2.4zm.5 10.6c.9-2.1 1.6-4.3 2.3-6.7.4.2.8.4 1.3.6-.7 2.1-1.5 4.3-2.2 6.6zm.4-15.2.9-.9c1 .8 2 1.6 2.8 2.4l-1 1c-.9-.9-1.8-1.7-2.7-2.5zm12.5-1.2h1.2v1.4h2.7v1.1h-2.7v2.7h-1.2v-.6h-1.8v1.3h4.9v3.8h-1.2v-.5h-3.7c0 .4-.1.9-.1 1.2h5.1v1h-5.2c0 .5-.1.9-.2 1.2h6v1h-5.2c1.1 1.3 2.9 2 5.5 2.3-.4.4-.7.8-.9 1.3-2.9-.5-4.8-1.6-5.7-3.5h-.1c-.8 1.7-2.7 2.9-5.9 3.6-.2-.4-.6-.8-.9-1.1 2.8-.6 4.6-1.4 5.4-2.5h-4.8v-1h5.3c.1-.3.2-.7.2-1.2h-4.9v-1h5c0-.4 0-.8.1-1.2h-3.5v.5h-1.2v-3.9h4.9v-1.3h-1.8v.5h-1.2v-2.7h-2.7v-1h2.6v-1.4h1.2v1.4h4.7v-1.4zm-6.6 8.3h3.6c0-.4 0-.9 0-1.4h-3.6zm1.9-4.6h4.7v-1.3h-4.7zm6.6 3.2h-3.7v1.4h3.7z" fill="#fafbfc"/><path d="m385.3 3.8h1.3v2.2h2.8v-2.2h1.3v2.2h4.1v9.1h1.7v1.3h-16.9v-1.3h1.7v-9.1h4.1v-2.2zm.4 13.1.7 1.2c-1.8.9-3.8 1.9-6 2.9-.2-.4-.5-.8-.8-1.3 2.3-1 4.3-1.9 6.1-2.8zm-3.1-6.4h2.8v-3.2h-2.8zm0 4.6h2.8v-3.3h-2.8zm4-4.6h2.8v-3.2h-2.8zm0 4.6h2.8v-3.3h-2.8zm3.7 1.9c2.1.9 4.1 1.8 6.1 2.7l-.7 1.3c-2.2-1.1-4.2-2-6.1-2.9zm3.2-9.7h-2.8v3.2h2.8zm-2.8 7.8h2.8v-3.3h-2.8z" fill="#fafbfc"/></svg>