<svg enable-background="new 0 0 400 400" viewBox="0 0 400 400" xmlns="http://www.w3.org/2000/svg"><g fill="#fafafb"><path d="m37.59 393.81c-.92.31-1.52.05-2-.78-.7-1.2-1.52-2.34-2.47-3.78v4.59c-.55.03-.95.05-1.41.07-.03-.37-.06-.64-.06-.91 0-1.91 0-3.81 0-5.7 1.13-.41 1.77-.03 2.29.91.62 1.11 1.38 2.14 2.31 3.19v-4.2h1.35v6.61z"/><path d="m12.94 393.88v-6.75c1.9.19 3.93-.54 5.37 1.29.8 1.01.78 2.88.03 3.97-1.37 1.97-3.4 1.51-5.4 1.49m1.45-1.22c2.04.12 2.92-.58 2.89-2.21-.03-1.51-.98-2.19-2.89-2z"/><path d="m11.81 393.87h-5.49c.68-2.18 2.47-3.48 3.51-5.45h-3.08v-1.21h5.29c-.71 2.13-2.44 3.48-3.47 5.51.86 0 1.63.04 2.39-.01.79-.05 1.14.21.85 1.16"/><path d="m39.33 393.86v-6.61h3.7v1.07h-2.22v1.52c.68.04 1.34.09 2.07.13v1.07c-.72.05-1.38.09-2.1.14v1.48h2.4v1.19h-3.85z"/><path d="m27.71 388.56c-1.15-.3-2.46-.61-3.1.64-.37.73-.41 1.93-.06 2.67.63 1.35 1.99.93 3.17.68.35.94-.01 1.32-.93 1.46-1.62.25-3.05-.27-3.76-1.48-.73-1.24-.6-3.03.31-4.17.88-1.11 2.71-1.7 4-1.16.32.13.44.74.65 1.12-.1.08-.19.16-.28.24"/><path d="m49.15 387.24v1.07c-.59.02-1.17.05-1.87.08v5.44h-1.48v-5.44h-1.85c-.05-.4-.08-.73-.13-1.15z"/><path d="m20.06 387.21h1.33v6.62h-1.33z"/><path d="m30.68 393.25c-.49.38-.8.79-1.05.76-.32-.05-.6-.45-.9-.7.26-.24.51-.64.8-.67.29-.04.62.3 1.15.61"/></g><path d="m194.67 211.16c-14.41 2.02-28.4 3.98-42.39 5.94-.04.47-.08.95-.13 1.42 3.38 2.72 6.68 5.56 10.17 8.15 8.1 6 8.39 8.47 2.92 16.8-9.22 14.04-17.82 28.49-27.31 42.34-10.77 15.71-24.09 29.07-39.68 40.17-14.39 10.25-30.14 17.49-47.06 22.28-2.67.75-5.61.52-8.43.74-.25-.51-.5-1.01-.76-1.52 1.2-1.25 2.24-2.75 3.64-3.71 20.41-13.87 40.28-28.47 57.35-46.4 13.52-14.2 25.3-29.75 31.03-48.87 2.32-7.74 3.39-15.86 4.87-23.83.18-.96-.25-2.52-.96-3.09-9.48-7.68-10.83-19.35-15.02-29.69-5.31-13.09-11.55-25.8-17.16-38.76-1.23-2.83-1.5-6.07-2.22-9.12 3.29-.61 6.58-1.73 9.87-1.73 10.44 0 21 1.53 31.29.4 14.21-1.57 28.32-4.58 42.27-7.82 11.39-2.64 22.74-5.87 33.64-10.05 13.01-5 24.29-1.24 35.39 4.84 4.56 2.5 8.71 5.75 12.92 8.85 7.16 5.27 6.86 13.42-.52 18.76-10.97 7.94-17.21 19.49-23.45 31.01-1.01 1.86-1.96 3.76-3.99 6.82 1.66 1.11 3.52 2.02 4.9 3.4 1.17 1.17 2.86 3.56 2.44 4.24-.92 1.48-2.95 2.9-4.68 3.13-7.49.96-15.05 1.39-22.57 2.18-4.48.47-8.92 1.24-14.34 2.02 2.85 1.66 4.8 2.78 6.75 3.92 7.16 4.2 6.55 10.67 5.37 17.52-2.08 12.07-4.26 24.13-5.71 36.28-1.21 10.13-1.71 20.37-2.05 30.58-.77 23.01 8.75 29.94 27.53 34.55 15.83 3.88 31.92 3.74 48.14 2.27 9.91-.89 19.38-2.63 28.25-7.17 4.88-2.51 9.14-5.63 11.07-11.15 5.17-14.73 10.38-29.44 15.68-44.12.6-1.68 1.84-3.13 2.78-4.68 1.16 1.83 2.96 3.52 3.36 5.5 1.91 9.6 3.17 19.32 5.2 28.89 1.65 7.79 3.94 15.44 6.15 23.1 1.9 6.57.08 10.2-5.66 13.73-10.99 6.74-22.84 11.25-35.29 13.94-8.92 1.93-18.09 3.12-27.2 3.66-10.49.62-21.05.39-31.57.08-16.04-.47-31.49-3.68-45.63-11.61-12.16-6.81-18.07-17.72-18.75-31.34-.47-9.47-.57-19.02.02-28.48.86-13.6 3.07-27.12 3.62-40.72.34-8.46-1.23-17.01-2.13-25.5-.29-2.56-1.2-5.04-1.96-8.15zm25.75-20.31c1.49-3.89 3.13-7.45 4.21-11.17 2.95-10.14 7.8-19.8 7.46-30.79-.09-2.77-.8-4.77-3.48-4.89-5.5-.24-11.15-.71-16.52.2-19.78 3.32-39.48 7.12-59.19 10.84-6.33 1.19-12.61 2.69-18.74 4.01 3.63 15.7 7.1 30.72 10.85 46.96 25.02-5.04 50.09-10.07 75.41-15.16z" fill="#010100"/><path d="m193.32 118.89c4.49-6.72 9.23-13.3 13.42-20.2 7.85-12.95 15.46-26.04 22.93-39.21.99-1.75 1.13-4.44.69-6.48-1.69-7.8 1.21-11.69 8.85-9.82 9.72 2.37 18.91 6.42 26.16 13.74 3.5 3.53 3.13 6.98-.83 10.23-21.04 17.31-42.05 34.65-63.2 51.81-1.66 1.35-4.33 1.47-6.52 2.17-.5-.74-1-1.49-1.5-2.24z" fill="#010100"/><path d="m117.6 68.08c9.04 3.08 18.17 5.95 27.09 9.35 3.6 1.37 6.66 4.08 10.14 5.82 5.16 2.57 6.96 7.28 7.82 12.3.67 3.9.74 8.05.25 11.98-.87 7.03-7.12 9.65-13.08 5.69-2.31-1.54-4.38-3.46-6.43-5.34-8.53-7.8-17.16-15.5-25.41-23.59-2.57-2.52-4.74-5.95-5.79-9.37-1.03-3.39.1-6.8 5.41-6.84z" fill="#010100"/></svg>