<svg enable-background="new 0 0 400 400" viewBox="0 0 400 400" xmlns="http://www.w3.org/2000/svg"><g fill="#fafafb"><path d="m37.59 393.81c-.92.31-1.52.05-2-.78-.7-1.2-1.52-2.34-2.47-3.78v4.59c-.55.03-.95.05-1.41.07-.03-.37-.06-.64-.06-.91 0-1.91 0-3.81 0-5.7 1.13-.41 1.77-.03 2.29.91.62 1.11 1.38 2.14 2.31 3.19v-4.2h1.35v6.61z"/><path d="m12.94 393.88v-6.75c1.9.19 3.93-.54 5.37 1.29.8 1.01.78 2.88.03 3.97-1.37 1.97-3.4 1.51-5.4 1.49m1.45-1.22c2.04.12 2.92-.58 2.89-2.21-.03-1.51-.98-2.19-2.89-2z"/><path d="m11.81 393.87h-5.49c.68-2.18 2.47-3.48 3.51-5.45h-3.08v-1.21h5.29c-.71 2.13-2.44 3.48-3.47 5.51.86 0 1.63.04 2.39-.01.79-.05 1.14.21.85 1.16"/><path d="m39.33 393.86v-6.61h3.7v1.07h-2.22v1.52c.68.04 1.34.09 2.07.13v1.07c-.72.05-1.38.09-2.1.14v1.48h2.4v1.19h-3.85z"/><path d="m27.71 388.56c-1.15-.3-2.46-.61-3.1.64-.37.73-.41 1.93-.06 2.67.63 1.35 1.99.93 3.17.68.35.94-.01 1.32-.93 1.46-1.62.25-3.05-.27-3.76-1.48-.73-1.24-.6-3.03.31-4.17.88-1.11 2.71-1.7 4-1.16.32.13.44.74.65 1.12-.1.08-.19.16-.28.24"/><path d="m49.15 387.24v1.07c-.59.02-1.17.05-1.87.08v5.44h-1.48v-5.44h-1.85c-.05-.4-.08-.73-.13-1.15z"/><path d="m20.06 387.21h1.33v6.62h-1.33z"/><path d="m30.68 393.25c-.49.38-.8.79-1.05.76-.32-.05-.6-.45-.9-.7.26-.24.51-.64.8-.67.29-.04.62.3 1.15.61"/></g><path d="m282.43 311.2c1.94.15 3.9.2 5.83.47 7.6 1.07 15.17 2.46 22.8 3.27 11.48 1.22 13.75-2.97 14.84-14.97.55-6.11.1-12.32.1-18.48 0-41.15.11-82.29-.04-123.44-.09-23.92-.43-47.85-1.05-71.77-.25-9.61-3.69-18.46-8.74-26.68-2.11-3.44-5.89-7.24-2.58-11.3 3.16-3.89 8.07-2.84 12.39-1.34 8.2 2.85 16.37 5.84 22.67 12.2 2.82 2.84 3.55 5.99 2.81 10.22-2.18 12.38-4 24.85-5.39 37.35-3.69 33.28-1.83 66.7-1.93 100.05-.05 18.19 1.12 36.39 1.91 54.58.49 11.37 1.37 22.73 1.95 34.1.45 8.92 1.33 17.89.86 26.78-.61 11.36-1.72 22.75-8.27 32.81-3.75 5.75-8.42 6.87-13.14 1.74-4.65-5.05-8.18-11.24-13.22-15.82-9.21-8.38-19.18-15.92-28.79-23.87-1.4-1.16-2.53-2.66-3.78-4 .25-.64.51-1.27.77-1.9z" fill="#010100"/><path d="m166.36 300.85c6.77 5.37 13.18 10.14 19.23 15.34 6.32 5.42 8.67 12.91 9.35 20.93.31 3.66.57 7.45-.06 11.02-1.22 6.85-6.84 9.21-12.24 4.88-4.96-3.98-9.2-8.87-13.59-13.52-8.97-9.5-17.81-19.13-26.74-28.67-5.77-6.17-11.62-12.26-17.36-18.46-.86-.93-1.74-2.23-1.8-3.4-.1-2.06.42-4.15.68-6.23 1.78.29 3.74.21 5.32.94 10.08 4.63 20.08 9.44 30.09 14.19 11.49-18.75 23.16-37.39 34.28-56.35 1.51-2.57 1.58-7.58.04-9.99-3.06-4.79-8.67-4.62-13.64-2.91-13.07 4.49-26.06 9.23-39.03 13.98-10.69 3.91-21.37 7.84-31.95 12.02-11.91 4.7-24.65-2.7-31.06-10.37-2.59-3.09-.81-7.33 3.18-8.3 1.57-.38 3.22-1.03 4.76-.88 20.67 1.98 39.9-3.94 59.08-10.45 16.17-5.49 32.49-10.55 48.72-15.9 6-1.98 11.72-2.27 17.33 1.25 7.59 4.76 15.46 9.1 22.84 14.16 2.29 1.57 4.1 4.72 4.75 7.47.37 1.56-1.65 4.3-3.31 5.61-8.19 6.5-16.7 12.6-24.92 19.06-3.88 3.05-7.56 6.43-11 9.98-11.15 11.55-22.15 23.24-32.95 34.6z" fill="#010100"/><path d="m157.55 92.23c-16.57 26.26-33.9 50.55-52.93 73.6-8.27 10.02-16.42 20.25-25.66 29.33-6.3 6.19-14.25 10.77-21.77 15.59-1.69 1.09-4.68.16-7.07.16-.26-.43-.51-.87-.77-1.3 2.73-3.55 5.45-7.11 8.21-10.64 14.42-18.44 29.29-36.54 43.11-55.42 9.22-12.6 17.28-26.11 25.21-39.59 5.36-9.12 9.34-19.04 14.36-28.37 4.27-7.93 3.9-15.89 1.53-24.11-.41-1.41-.79-2.82-1.09-4.26-.64-3.06.45-5.65 3.7-5.07 4.88.87 10 2.01 14.26 4.39 4.65 2.6 8.69 6.48 12.54 10.27 5.29 5.19 5.05 11.03.01 16.53-3 3.27-5.87 6.66-8.5 9.65 12.21 4.7 24.64 8.89 36.55 14.23 10.58 4.74 18.19 12.71 20.26 24.79.3 1.78.49 3.6.48 5.4-.04 5.36-4.21 8.4-8.93 5.97-4.45-2.29-8.58-5.33-12.54-8.45-13.74-10.81-27.33-21.79-40.96-32.7z" fill="#010100"/><path d="m266.18 124c5.56.09 18.51 9.05 19.26 14.13.6 4.11-.23 8.43-.44 12.66-.32 6.43-.85 12.86-.95 19.29-.16 10.49.47 21.02-.18 31.47-.77 12.41-2.35 24.78-3.96 37.12-.49 3.75-1.57 8.45-6.05 9.06-4.35.58-6.01-3.79-7.9-7.02-3.8-6.5-4.58-13.23-3.21-20.77 1.5-8.22 1.91-16.68 2.17-25.06.35-11.01.69-22.09-.11-33.06-.62-8.53-2.51-17.06-4.74-25.35-2.31-8.51-.78-11.56 6.11-12.47z" fill="#010100"/><path d="m177.98 188.94c0 1.16.39 2.53-.08 3.46-1.29 2.56-2.43 6.14-4.59 7.06-2.08.89-6.22-.17-7.98-1.89-10.9-10.67-21.39-21.76-31.99-32.73-2.24-2.32-3.24-4.92-1.31-7.99 2.14-3.4 4.95-1.77 7.42-.8 8.16 3.2 16.25 6.59 24.35 9.92 10.29 4.22 14.2 12.39 14.18 22.97z" fill="#010100"/></svg>