<svg enable-background="new 0 0 400 400" viewBox="0 0 400 400" xmlns="http://www.w3.org/2000/svg"><g fill="#fafafb"><path d="m37.59 393.81c-.92.31-1.52.05-2-.78-.7-1.2-1.52-2.34-2.47-3.78v4.59c-.55.03-.95.05-1.41.07-.03-.37-.06-.64-.06-.91 0-1.91 0-3.81 0-5.7 1.13-.41 1.77-.03 2.29.91.62 1.11 1.38 2.14 2.31 3.19v-4.2h1.35v6.61z"/><path d="m12.94 393.88v-6.75c1.9.19 3.93-.54 5.37 1.29.8 1.01.78 2.88.03 3.97-1.37 1.97-3.4 1.51-5.4 1.49m1.45-1.22c2.04.12 2.92-.58 2.89-2.21-.03-1.51-.98-2.19-2.89-2z"/><path d="m11.81 393.87h-5.49c.68-2.18 2.47-3.48 3.51-5.45h-3.08v-1.21h5.29c-.71 2.13-2.44 3.48-3.47 5.51.86 0 1.63.04 2.39-.01.79-.05 1.14.21.85 1.16"/><path d="m39.33 393.86v-6.61h3.7v1.07h-2.22v1.52c.68.04 1.34.09 2.07.13v1.07c-.72.05-1.38.09-2.1.14v1.48h2.4v1.19h-3.85z"/><path d="m27.71 388.56c-1.15-.3-2.46-.61-3.1.64-.37.73-.41 1.93-.06 2.67.63 1.35 1.99.93 3.17.68.35.94-.01 1.32-.93 1.46-1.62.25-3.05-.27-3.76-1.48-.73-1.24-.6-3.03.31-4.17.88-1.11 2.71-1.7 4-1.16.32.13.44.74.65 1.12-.1.08-.19.16-.28.24"/><path d="m49.15 387.24v1.07c-.59.02-1.17.05-1.87.08v5.44h-1.48v-5.44h-1.85c-.05-.4-.08-.73-.13-1.15z"/><path d="m20.06 387.21h1.33v6.62h-1.33z"/><path d="m30.68 393.25c-.49.38-.8.79-1.05.76-.32-.05-.6-.45-.9-.7.26-.24.51-.64.8-.67.29-.04.62.3 1.15.61"/></g><path d="m146.68 261.39c-5 1.2-9.9 3.37-14.76 3.27-4.82-.1-9.98-1.74-14.32-3.99-8.45-4.37-8-4.35-15.58.64-13.06 8.61-26.15 17.27-39.88 24.71-6.36 3.45-14.24 4.12-21.46 5.92-.95.24-2.12-.36-4.95-.93 6.56-4.93 11.79-9.22 17.37-12.98 15.8-10.66 31.36-21.54 44.79-35.28 13.21-13.51 25.01-27.99 34.4-44.41 1.82-3.19 3.88-6.25 6.61-10.62-13.57 3.53-25.73 6.97-38.03 9.8-9.41 2.16-17.97-.03-24.91-7.11-2.91-2.97-2.35-5.48 1.75-6.18 9.51-1.63 19.09-2.82 28.63-4.24 10.35-1.53 20.65-4 31.03-4.4 8.08-.31 9.8-5 11.66-10.91 1.81-5.72 4-11.32 5.81-16.39-6.86-.52-13.73-.47-20.35-1.72-6.41-1.21-13.09-2.88-17.08-10.61 3.72-1.06 6.97-2.49 10.34-2.86 8.5-.95 17.05-1.66 25.59-2.02 4.36-.18 6.92-1.6 7.61-6.08 1.97-12.92 3.92-25.83 6.08-38.72 2.05-12.23 1.02-24.24-2.06-36.15-.61-2.35-1.55-4.62-2.34-6.92-2.37-6.88 1.49-11.44 8.86-10.13 3.16.56 6.47 1.39 9.22 2.96 5.65 3.22 11.07 6.89 16.38 10.66 2.59 1.84 3.33 4.4 1.96 7.77-8.69 21.37-12.52 44.09-17.96 66.36-.37 1.53-.31 3.16-.48 5.21 9.16-2.51 18.16-5.01 27.19-7.44 9.93-2.68 19.71-6.64 30.23-5.48 5.07.56 10.17 2.11 14.89 4.09 1.86.78 3.55 3.84 3.85 6.05.4 2.93-2.12 4.23-5.02 4.85-13.37 2.86-26.66 6.04-40.05 8.82-10.86 2.25-21.81 4.01-32.68 6.22-1.2.24-2.59 1.85-3.04 3.13-2.79 7.9-5.34 15.88-8.17 24.43 19.8-3.82 38.93-7.68 58.13-11.16 15.25-2.76 30.52-6.02 45.92-7.23 10.15-.8 19.21 4.86 26.66 11.84 4.4 4.12 3.24 7.66-2.58 8.82-4.79.96-9.68 1.76-14.55 1.92-15.43.54-30.87.65-46.3 1.13-5.43.17-10.83.91-17.2 1.47 4.84 3.67 9.1 7.29 13.73 10.34 18.79 12.38 37.35 25.17 56.71 36.59 8.52 5.02 18.71 7.28 28.24 10.52 13.09 4.46 26.32 8.51 39.37 13.09 3.16 1.11 5.84 3.58 8.75 5.42-3.21 1.18-6.35 2.68-9.65 3.47-17.07 4.11-34.4 5.65-51.95 5.09-6.32-.2-11.91-2.21-16.64-6.18-6.57-5.51-13.04-11.18-19.19-17.15-19.33-18.78-38.43-37.79-57.8-56.53-1.77-1.71-4.88-3.24-7.19-3.01-12.85 1.29-25.66 3.09-38.45 4.94-1.25.18-2.59 1.73-3.35 2.97-8.55 13.88-16.63 28.07-25.63 41.65-4.95 7.47-11.4 13.95-17.22 20.92 31.09-1.75 61.66-6.95 91.62-15.66 5.27-1.53 10.38-4.26 15.73-4.78 8.11-.78 14.03 5.59 21.08 8.44 1.04.42 1.9 1.27 2.89 1.82 5.75 3.21 6.62 6.09 3 11.39-6.74 9.85-9.18 21.08-11.02 32.59-3.11 19.49-6.4 39.06-14.51 57.15-5.05 11.27-13.38 20.58-24.02 27.39-3.84 2.46-8.41.89-12.52-4.64-6.9-9.3-13.62-18.75-20.29-28.22-.98-1.39-1.32-3.23-1.95-4.85.39-.37.79-.73 1.18-1.1 3.77 1.14 7.63 2.07 11.3 3.47 16.93 6.48 22.65.47 28.79-14.13 5.74-13.64 8.46-28.05 10.01-42.69.62-5.92 1.61-12 .88-17.81-.96-7.71-3.88-9.21-11.44-7.97-15.75 2.59-31.49 5.22-48.4 8.02 1.73 1.85 2.62 2.91 3.62 3.84 2.83 2.63 6.09 4.92 8.4 7.94 1.15 1.51 1.66 5.12.67 6.43-13.74 18.31-23.58 39.59-41.34 54.85-14.3 12.28-30.07 21.92-48.58 26.38-2.03.49-4.39-.42-7.38-1.93 3.53-2.86 7.11-5.67 10.59-8.59 11.7-9.83 24.07-18.99 34.88-29.73 12.41-12.32 21.31-27.23 24.83-44.76.75-3.46.71-7.1 1.04-11.09z" fill="#010100"/><path d="m205.64 98.82c2.5-3.16 4.91-6.39 7.52-9.45 8.09-9.5 16.52-18.72 24.23-28.51 2.45-3.11 3.71-7.57 4.34-11.6.74-4.74 3.67-4.94 6.7-3.94 9.11 3.01 16.44 8.88 22.28 16.31 2.84 3.61 2.55 8.05-2.72 10.54-14.16 6.7-27.88 14.31-41.96 21.21-6.16 3.02-12.74 5.16-19.12 7.7-.42-.75-.84-1.51-1.27-2.26z" fill="#010100"/><path d="m150.23 103.63c-1.76 3.29-2.78 7.53-5.47 9.65-3.37 2.66-8.13 1.14-11.17-1.56-8.21-7.28-16.18-14.86-23.79-22.77-1.52-1.58-2.02-5.67-1.04-7.62.67-1.34 4.82-1.64 7.24-1.26 6.37.99 12.77 2.18 18.92 4.08 8.2 2.53 14.07 10.9 14.07 18.82.42.22.83.44 1.24.66z" fill="#010100"/></svg>