<svg enable-background="new 0 0 400 400" viewBox="0 0 400 400" xmlns="http://www.w3.org/2000/svg"><g fill="#fafafb"><path d="m37.59 393.81c-.92.31-1.52.05-2-.78-.7-1.2-1.52-2.34-2.47-3.78v4.59c-.55.03-.95.05-1.41.07-.03-.37-.06-.64-.06-.91 0-1.91 0-3.81 0-5.7 1.13-.41 1.77-.03 2.29.91.62 1.11 1.38 2.14 2.31 3.19v-4.2h1.35v6.61z"/><path d="m12.94 393.88v-6.75c1.9.19 3.93-.54 5.37 1.29.8 1.01.78 2.88.03 3.97-1.37 1.97-3.4 1.51-5.4 1.49m1.45-1.22c2.04.12 2.92-.58 2.89-2.21-.03-1.51-.98-2.19-2.89-2z"/><path d="m11.81 393.87h-5.49c.68-2.18 2.47-3.48 3.51-5.45h-3.08v-1.21h5.29c-.71 2.13-2.44 3.48-3.47 5.51.86 0 1.63.04 2.39-.01.79-.05 1.14.21.85 1.16"/><path d="m39.33 393.86v-6.61h3.7v1.07h-2.22v1.52c.68.04 1.34.09 2.07.13v1.07c-.72.05-1.38.09-2.1.14v1.48h2.4v1.19h-3.85z"/><path d="m27.71 388.56c-1.15-.3-2.46-.61-3.1.64-.37.73-.41 1.93-.06 2.67.63 1.35 1.99.93 3.17.68.35.94-.01 1.32-.93 1.46-1.62.25-3.05-.27-3.76-1.48-.73-1.24-.6-3.03.31-4.17.88-1.11 2.71-1.7 4-1.16.32.13.44.74.65 1.12-.1.08-.19.16-.28.24"/><path d="m49.15 387.24v1.07c-.59.02-1.17.05-1.87.08v5.44h-1.48v-5.44h-1.85c-.05-.4-.08-.73-.13-1.15z"/><path d="m20.06 387.21h1.33v6.62h-1.33z"/><path d="m30.68 393.25c-.49.38-.8.79-1.05.76-.32-.05-.6-.45-.9-.7.26-.24.51-.64.8-.67.29-.04.62.3 1.15.61"/></g><path d="m206.83 90.32c5.77-.98 10.97-1.5 15.96-2.79 12.11-3.14 24.03-7.08 36.21-9.86 8.42-1.92 17.11-1.67 24.17 4.52 1.03.9 1.35 3.97.61 5.2-.98 1.63-3.18 3.05-5.1 3.5-13.79 3.19-27.59 6.41-41.5 9.01-7.24 1.35-14.7 1.55-22.07 2.06-2.69.19-6.08-1.23-7.91-.03-1.43.93-.99 4.79-1.3 7.35-.98 7.96-1.95 15.93-2.88 23.9-.32 2.73-.5 5.47-.8 8.89 4.88-.79 9.72-1.19 14.35-2.4 14.79-3.85 29.59-7.72 44.21-12.15 8.33-2.52 14.94 1.03 21.54 4.68 5.7 3.15 10.97 7.08 16.37 10.76 5.55 3.78 6.51 6.03 3.3 11.68-8.59 15.1-6.2 31.22-5.07 47.28.06.83.07 1.66.09 2.5.34 15.43.43 30.88 1.06 46.3.74 18.15 1.22 36.36 3.18 54.39 1.64 15.08-.66 28.99-7.45 42.28-1.42 2.78-3.71 5.35-6.14 7.35-4.45 3.65-7.39 2.99-10.64-1.66-7.01-10.04-13.95-20.13-21.11-30.06-.99-1.38-3.06-2.89-4.59-2.85-17.87.46-35.75 1.11-53.61 1.93-9.21.42-18.4 1.43-27.61 1.9-15.53.79-31.07 1.3-46.6 2.18-1.21.07-2.66 1.87-3.4 3.2-1.73 3.09-2.81 6.56-4.67 9.55-1.94 3.11-5.9 3.11-7.85.08-6.16-9.57-11.67-19.57-10.43-31.43.65-6.24 3.22-12.27 4.24-18.5 1.52-9.2 3.07-18.47 3.48-27.76 1.04-23.18 1.25-46.41 2.2-69.6.57-13.99-1.23-27.5-5.54-40.79-.95-2.91-.85-6.17-1.28-9.68 9.14-.72 15.75 2.76 22.04 7.46 1.27.95 3.27 1.39 4.89 1.3 9.04-.52 18.08-1.2 27.1-1.98 11.1-.96 22.19-2.07 34.11-3.2-.46-7.5-.96-14.72-1.32-21.94-.17-3.33.09-6.67-.12-9.99-.94-15.46-1.81-30.94-3.11-46.37-.27-3.26-2.31-6.35-3.46-9.55-.86-2.4-1.86-4.8-2.35-7.29-.78-3.94 1.86-5.8 5.1-5.49 4.65.45 9.45 1.28 13.72 3.06 4.88 2.03 9.55 4.91 13.7 8.2 1.64 1.3 2.61 4.84 2.23 7.07-1.53 8.91-3.74 17.76-5.95 27.79zm-83.83 223.62c1.56 0 3.71.16 5.82-.03 14.57-1.26 29.13-2.65 43.7-3.9 9.02-.77 18.06-1.47 27.1-2.04 16.49-1.05 32.98-2.43 49.48-2.67 4.36-.06 8.74 3.64 13.19 5.43 2.1.85 4.88 2.34 6.45 1.6 1.91-.89 3.96-3.75 4.09-5.87.97-17.01 1.78-34.05 2.1-51.09.34-17.66.45-35.33-.05-52.98-.38-13.31-1.59-26.62-2.97-39.87-1.11-10.61-5.12-15.86-19.08-16.37-6.5-.24-13.08.98-19.57 1.87-16.36 2.24-32.69 4.69-49.04 7.03s-32.71 4.55-49.04 7.04c-3.06.47-7.05.19-7.22 5.34-.53 15.87-1.29 31.73-1.95 47.6-.67 16.2-1.41 32.4-1.97 48.6-.45 12.93-.71 25.86-1.02 38.79-.09 3.59-.02 7.17-.02 11.52z" fill="#010100"/><path d="m220.62 252.68c-4.3 4.77-7.48 8.74-11.1 12.25-9.09 8.8-17.92 17.97-27.74 25.89-6.99 5.64-15.33 9.67-23.28 14.05-2 1.1-4.77 1.06-7.18 1.02-1.41-.02-2.81-1.06-4.21-1.65.75-1.37 1.2-3.09 2.3-4.06 11.65-10.15 23.86-19.71 34.99-30.41 8.26-7.94 15.15-17.29 22.65-26.02.86-1 1.7-2.03 2.94-3.51-9.38-8.06-18.78-16.14-28.2-24.23-14.19 12.67-28.12 25.21-47.06 29.35-.44-.52-.89-1.04-1.33-1.56 1.77-1.92 3.24-4.28 5.36-5.67 12.17-8.01 23.28-17.14 32.91-30.05-8.33-4.4-16.74-8.5-24.77-13.25-3.07-1.82-5.41-5-7.75-7.83-.73-.88-.83-3.69-.47-3.84 1.52-.64 3.53-1.22 5-.73 5.08 1.7 10.04 3.77 14.98 5.87 6.59 2.79 13.11 5.74 19.56 8.58 5.46-7.71 7.29-15.94 5-25.23-.56-2.27.26-5.77 1.81-7.46 2.38-2.6 5.43-1.01 7.84 1.13 1.33 1.18 2.92 2.12 4.05 3.47 4.78 5.71 8.51 10.89 1.78 18.56-3.69 4.21-4.4 11.03-6.53 16.88 9.18 6.23 18.51 12.55 27.94 18.95 7.16-14.55 11.57-29.31 9.4-45.52-.2-1.52 1.23-4.56 2.21-4.69 2.48-.34 5.94-.31 7.55 1.16 4.09 3.72 7.5 8.24 10.97 12.6 2.63 3.3 2.53 6.36.38 10.5-4.49 8.64-6.81 18.51-11.92 26.69-5.34 8.55-5.52 14.82 1.22 22.57 8.17 9.39 10.58 21.54 11.76 33.56.41 4.21-1.6 8.95-3.49 13-1.94 4.16-5.81 3.46-9.19-.97-5.7-7.47-9.56-15.74-12.13-24.79-1.34-4.69-3.84-9.07-6.25-14.61z" fill="#010100"/></svg>