<svg enable-background="new 0 0 400 400" viewBox="0 0 400 400" xmlns="http://www.w3.org/2000/svg"><path d="m299 183.34c-6.98 1.89-14.38 3.21-21.27 5.89-13.63 5.3-27.02 11.23-40.4 17.15-2.78 1.23-5.25 3.34-7.55 5.4-6.21 5.55-10.21 5.87-16.83.58-2.46-1.96-4.78-4.21-6.7-6.69-2.57-3.32-1.78-6.96.66-9.96 5.94-7.31 10.64-15.12 12.55-24.54 3.82-18.87 4.07-37.44-3.51-55.58-.86-2.07-1.85-4.38-1.68-6.48.12-1.44 2.09-3.8 3.32-3.86 2.82-.14 6.08.21 8.45 1.58 4.35 2.52 8.44 5.66 12.18 9.04 4.52 4.08 6.3 9.74 5.66 15.62-1.29 11.86-3.23 23.66-4.79 35.49-.54 4.07-1.02 8.19-1.02 12.28 0 3.49 1.21 5.32 5.65 3.95 15.54-4.77 31.22-9.05 46.87-13.47 2.96-.83 5.99-1.41 10.39-2.44 0-17.62.25-35.53-.08-53.42-.25-13.2-.51-26.48-2.24-39.54-.86-6.51-4.92-12.63-7.73-18.84-1.3-2.88-4.08-5.59-1.76-8.84 2.38-3.34 5.76-4.47 10.13-3.8 10.33 1.59 18.83 6.36 26.45 13.29 3.38 3.08 2.79 6.98 2.04 10.16-5.4 22.93-4.76 46.21-4.87 69.48-.14 33.09-.77 66.19-.89 99.28-.05 15.6 1.26 31.22.76 46.79-.57 17.59-2.18 35.17-3.95 52.69-.68 6.69-2.76 13.3-4.82 19.75-.61 1.91-3.55 4.57-5.03 4.34-2.06-.32-4.7-2.71-5.41-4.79-1.72-5.03-3.38-10.38-3.47-15.63-.6-38.42-.84-76.85-1.13-115.27-.06-12.74.02-25.48.02-39.61z" fill="#010000"/><path d="m109.11 213.49c-.43 8.61 1.11 17.53-3.81 25.49-4.8-.26-6.17-4.32-8.37-7.38-4.98-6.92-5.63-15.14-6.95-23.19-3.11-18.82-6.06-37.68-9.63-56.42-1.55-8.1-4.55-15.92-6.78-23.9-1.76-6.29.37-8.45 6.8-6.89 3.31.8 6.92 1.24 9.77 2.92 6.67 3.93 12.83 1.35 18.97-.75 11.06-3.79 22.09-7.73 32.96-12.02 10.61-4.18 20.51-1.9 30.27 2.46 4.16 1.86 8.27 3.94 12.1 6.4 6.55 4.21 8.99 9.74 3 16.56-11.22 12.78-14.44 28.54-18.44 44.14-.16.63-.22 1.29-.41 1.91-1.67 5.28-2.94 10.08 3.34 13.89 3.53 2.14 2.74 5.16-1.42 6.18-5.84 1.42-11.86 2.08-17.8 3.11-11.73 2.04-23.45 4.13-35.18 6.17-2.58.45-5.18.81-8.42 1.32zm35.39-22.59c.78-3.74 1.61-6.9 2.09-10.11 2.19-14.69 4.45-29.38 6.34-44.11.81-6.28-2.74-11.86-11.92-9.31-12.05 3.34-24.36 5.75-36.51 8.78-1.05.26-2.46 2.27-2.39 3.38.83 13.3 1.73 26.59 2.99 39.85.68 7.21 2.09 14.36 3.2 21.77 12.44-3.52 24.32-6.89 36.2-10.25z" fill="#010000"/><g fill="#fafbfa"><path d="m6.44 374.46.42-.45c.65.47 1.27.95 1.85 1.44l-.45.49c-.65-.56-1.25-1.06-1.82-1.48m.93 7.33-.63-.26c.55-1.36 1.05-2.8 1.52-4.33.19.1.38.19.59.27-.46 1.29-.95 2.73-1.48 4.32m-.38-10.38.44-.42c.43.34 1.01.82 1.74 1.44l-.49.49c-.53-.51-1.09-1.01-1.69-1.51m2.5.35h1.72v-1.04h.59v1.04h3.52v-1.04h.59v1.04h1.75v.53h-1.75v1.42h-2.03v.97h3.22v2.03h-3.24c0 .35-.01.66-.03.93h3.32v.53h-3.37c-.03.27-.08.58-.15.94h3.96v.53h-3.71c.67.92 1.93 1.48 3.79 1.68-.13.24-.23.44-.29.59-2.13-.38-3.48-1.08-4.04-2.12-.43.97-1.77 1.72-4.03 2.23-.09-.19-.2-.37-.33-.55 2.1-.42 3.37-1.03 3.81-1.83h-3.36v-.53h3.58c.08-.29.13-.61.16-.94h-3.33v-.53h3.39c.02-.27.04-.58.04-.93h-3.23v-2.03h3.25v-.97h-2.07v-1.42h-1.73zm1.12 3.44v1h2.65c.01-.3.02-.44.01-.4v-.25-.35zm1.19-2h3.52v-.91h-3.52zm4.71 2h-2.63v.59c0 .15-.01.28-.01.4h2.64z"/><path d="m13.56 383.74h.63v1.52h2.72v6.07h1.13v.6h-11.06v-.6h1.13v-6.07h2.73v-1.52h.63v1.52h2.1v-1.52zm-2.69 8.83.38.56c-1.24.63-2.53 1.25-3.85 1.85-.1-.21-.21-.42-.34-.63 1.36-.55 2.63-1.15 3.81-1.78m-2.13-4.27h2.1v-2.45h-2.1zm0 3.04h2.1v-2.46h-2.1zm2.72-3.04h2.1v-2.45h-2.1zm0 3.04h2.1v-2.46h-2.1zm6.07 3.6c-1.41-.71-2.7-1.3-3.86-1.78l.35-.56c1.45.62 2.75 1.19 3.88 1.72zm-1.25-9.09h-2.1v2.45h2.1zm-2.09 5.49h2.1v-2.46h-2.1z"/></g></svg>