<svg enable-background="new 0 0 400 400" viewBox="0 0 400 400" xmlns="http://www.w3.org/2000/svg"><g fill="#010000"><path d="m153.68 183.91c3.81-5.36 6.69-9.95 10.09-14.09 11.49-13.99 19.91-29.48 22.92-47.46.71-4.25-.58-8.8-.64-13.22-.05-4.22 2.41-6.17 6.42-4.84 4.92 1.62 9.83 3.46 14.45 5.79 5.55 2.8 6.47 7.45 3.13 12.66-1.47 2.3-2.89 4.63-4.55 7.3 9.21 4.24 18.02 8.3 28.16 12.97-1.42-22.67-2.79-44.57-4.23-67.51-7.47 1.84-13.97 3.6-20.54 5.01-7.8 1.66-15.63 3.29-23.52 4.33-2.5.33-5.64-.75-7.77-2.22-1.75-1.21-3.24-3.95-3.28-6.04-.02-1.16 3.01-3.09 4.92-3.48 18.84-3.85 37.78-7.18 56.57-11.2 11.44-2.45 22.64-5.96 34-8.78 6.48-1.6 13.02-3.02 19.61-4.06 12.33-1.96 21.46 5.52 31.2 11.1.98.56 2.14 1.1 2.75 1.98 1.06 1.51 2.64 3.44 2.38 4.9-.32 1.79-2.03 4.25-3.63 4.73-12.1 3.58-21.2 11.98-31.23 18.88-3.23 2.22-6.1 4.96-9.34 7.17-1.34.91-3.2 1.04-4.83 1.52-.42-.32-.84-.65-1.25-.97 1.29-3.72 2.51-7.47 3.9-11.14 1.91-5.02 4.12-9.92 5.89-14.98 2.03-5.8-.34-9.13-6.21-8.07-12.61 2.27-25.12 5.11-38.55 7.9 1.78 1.29 2.84 1.96 3.79 2.76 3.74 3.19 6.37 6.54 5.87 12.22-.69 7.86-.17 15.82-.17 24.02 9.45-5.32 19.32-9.42 30.34-7.93 4.56.62 9.07 2.43 13.3 4.36 1.55.71 3.2 3.39 3.04 5-.13 1.28-2.81 3-4.57 3.3-7.57 1.31-15.23 2.14-22.84 3.21-6.62.93-13.22 1.96-21.26 3.16 0 8.38-.12 16.6.12 24.82.04 1.34 1.49 3.47 2.69 3.81 17.2 4.87 34.3 10.3 51.77 13.9 12 2.47 24.54 2.28 36.83 3.32 7.37.63 14.74 1.26 22.08 2.1 1.22.14 2.31 1.41 3.45 2.16-.96 1.23-1.66 3.08-2.92 3.6-7.2 3.01-14.46 5.91-21.84 8.44-9.08 3.11-18.36 5.61-27.43 8.75-7.23 2.51-13.82.21-19.85-2.82-14.7-7.4-29.26-15.14-43.46-23.45-16.18-9.46-31.92-19.68-47.78-29.52-5.94 9.03-11.32 18.41-17.88 26.88-6.88 8.88-14.56 17.35-26.5 19.73-.59.1-1.25 0-3.6 0z"/><path d="m230.08 312.59c5.54.92 10.25 1.6 14.92 2.5 4.95.96 9.83 2.44 14.82 3.05 1.59.2 4.49-1.29 4.97-2.65 1.27-3.64 2.06-7.61 2.13-11.47.24-13.66.47-27.33 0-40.98-.61-17.31-1.88-34.6-2.94-51.89-.15-2.44-.23-5.05-1.17-7.23-1.44-3.33-2.62-6.46-8.19-5.18-14.44 3.31-29.14 5.53-43.7 8.35-1.1.21-2.48 1.55-2.82 2.64-.92 2.93-1.6 5.99-1.9 9.04-.58 5.89-.82 11.81-1.23 18.09 7.66-2.23 14.82-4.81 22.19-6.34 8.13-1.69 16.63-3.7 24.34 1.48 1.91 1.28 2.99 3.8 4.45 5.76-2.07 1.08-4.07 2.87-6.23 3.11-14.03 1.56-28.11 2.73-42.15 4.22-1.25.13-3.25 1.5-3.38 2.49-1.03 7.8-1.69 15.66-2.5 23.93 9.84-2.11 19.07-4.4 28.41-5.99 7.02-1.2 14.21-2.27 21.23.45.91.35 2.11.42 2.68 1.07 2.11 2.36 5.8 5.06 5.6 7.34-.37 4.02-4.92 2.42-7.79 2.57-16.68.86-33.36 1.6-50.34 2.4-.47 6.03-.73 12.25-1.49 18.41-1.61 13.11-2.92 26.34-10.75 37.7-4.18 6.07-7.35 5.83-11.21-.05-7.46-11.39-4.54-22.21-.46-34 4.34-12.53 6.55-25.8 9.4-38.82 1.36-6.21 2.86-12.57 2.82-18.86-.05-9.83-.99-19.7-2.26-29.47-.79-6.08-2.91-11.99-4.37-17.99-1.22-5.01 1.43-8.32 6.22-7.13 4.18 1.03 8.58 2.43 12.01 4.89 3.62 2.59 7.15 2.55 10.8 1.82 14.87-2.99 29.3-7.38 43.12-13.82 7.06-3.29 13.83-.03 20.09 3.21 4.17 2.16 7.97 5.08 11.82 7.84 2.26 1.62 3.39 3.54 1.96 6.7-6.8 14.99-5.54 31.02-4.97 46.76.57 15.76 2.38 31.48 3.89 47.19.67 6.99 2.75 13.93 2.73 20.88-.04 10.71-2.54 21.04-8.94 30.03-.19.27-.48.46-.69.72-7.59 9.51-10.83 9.32-19.1.33-10.09-10.93-20.66-21.39-32.02-33.1z"/><path d="m113.39 139.3c8.74-3.56 17.25-3.18 25.37.8 2.14 1.05 4.64 3.56 4.87 5.63.17 1.57-2.68 4.39-4.73 5.12-7.64 2.73-15.44 5.08-23.31 7.01-2.71.66-3.56 1.52-3.62 4.14-.24 11.27-.54 22.53-.99 33.79-.29 7.25-.89 14.49-1.37 21.96 9.9-2.99 19.14-5.77 29.07-8.77-1.01 7.71-6.62 10.07-10.95 12.94-15.89 10.56-32.14 20.58-48.16 30.94-3.28 2.12-6.35 4.66-9.19 7.35-3.55 3.35-7.22 5.01-11.9 2.56-6.36-3.34-12.82-6.52-19.06-10.09-3.45-1.97-4.35-5.81-3.16-9.13.69-1.93 3.51-3.71 5.73-4.37 16.04-4.78 32.15-9.37 48.31-13.74 3.14-.85 3.79-2.32 3.75-5.22-.14-9.66-.05-19.32-.05-28.99 0-9.25 0-18.49 0-27.88-5.07.88-10.79 1.77-16.46 2.89-9.59 1.89-19.09 1.46-28.37-1.41-1.9-.58-3.29-2.83-4.91-4.3 1.55-1.16 2.96-2.94 4.69-3.37 11.68-2.88 23.45-5.42 35.16-8.19 3.72-.88 7.35-2.13 10.46-3.05-.22-3.95-.42-7.03-.57-10.12-.68-14.86-.63-29.81-2.33-44.55-.79-6.84-4.67-13.42-7.65-19.88-4.25-9.2-1.81-13.88 8.04-12.04 8.13 1.52 16.01 5.27 23.47 9.06 3.98 2.02 5.98 5.8 4.73 11.62-2.56 11.95-3.7 24.22-5.27 36.38-.84 6.5-1.37 13.05-1.98 19.58-.07.92.21 1.9.38 3.33z"/></g><path d="m6.44 374.46.42-.45c.65.47 1.27.95 1.85 1.44l-.45.49c-.65-.56-1.25-1.06-1.82-1.48m.93 7.33-.63-.26c.55-1.36 1.05-2.8 1.52-4.33.19.1.38.19.59.27-.46 1.29-.95 2.73-1.48 4.32m-.38-10.38.44-.42c.43.34 1.01.82 1.74 1.44l-.49.49c-.53-.51-1.09-1.01-1.69-1.51m2.5.35h1.72v-1.04h.59v1.04h3.52v-1.04h.59v1.04h1.75v.53h-1.75v1.42h-2.03v.97h3.22v2.03h-3.24c0 .35-.01.66-.03.93h3.32v.53h-3.37c-.03.27-.08.58-.15.94h3.96v.53h-3.71c.67.92 1.93 1.48 3.79 1.68-.13.24-.23.44-.29.59-2.13-.38-3.48-1.08-4.04-2.12-.43.97-1.77 1.72-4.03 2.23-.09-.19-.2-.37-.33-.55 2.1-.42 3.37-1.03 3.81-1.83h-3.36v-.53h3.58c.08-.29.13-.61.16-.94h-3.33v-.53h3.39c.02-.27.04-.58.04-.93h-3.23v-2.03h3.25v-.97h-2.07v-1.42h-1.73zm1.12 3.44v1h2.65c.01-.3.02-.44.01-.4v-.25-.35zm1.19-2h3.52v-.91h-3.52zm4.71 2h-2.63v.59c0 .15-.01.28-.01.4h2.64z" fill="#fafbfa"/><path d="m13.56 383.74h.63v1.52h2.72v6.07h1.13v.6h-11.06v-.6h1.13v-6.07h2.73v-1.52h.63v1.52h2.1v-1.52zm-2.69 8.83.38.56c-1.24.63-2.53 1.25-3.85 1.85-.1-.21-.21-.42-.34-.63 1.36-.55 2.63-1.15 3.81-1.78m-2.13-4.27h2.1v-2.45h-2.1zm0 3.04h2.1v-2.46h-2.1zm2.72-3.04h2.1v-2.45h-2.1zm0 3.04h2.1v-2.46h-2.1zm6.07 3.6c-1.41-.71-2.7-1.3-3.86-1.78l.35-.56c1.45.62 2.75 1.19 3.88 1.72zm-1.25-9.09h-2.1v2.45h2.1zm-2.09 5.49h2.1v-2.46h-2.1z" fill="#fafbfa"/></svg>