<svg enable-background="new 0 0 400 400" viewBox="0 0 400 400" xmlns="http://www.w3.org/2000/svg"><path d="m228.12 175.1c9.35-1.61 18.27-2.69 26.96-4.74 21.84-5.13 43.52-10.99 65.4-15.93 7.18-1.62 14.88-1.39 21.21 3.6 1.54 1.22 3.3 3.75 3 5.3-.34 1.74-2.66 3.88-4.52 4.42-9.22 2.67-18.53 5.01-27.88 7.21-16.01 3.76-31.97 7.8-48.12 10.79-11.83 2.19-24.06 4.76-35.97-3.29-2.63 18.86-5.13 36.8-7.7 55.22 7.83 2.59 15.96 5.35 25.08 3.36 14.96-3.27 30.06-5.88 45.04-9.1 8.1-1.74 16.03-4.28 24.1-6.22 5.86-1.41 11.78-1.72 17.18 1.71 6.74 4.28 13.63 8.39 20.03 13.15 6.43 4.78 5.83 10.88-1.98 17.76-9.4 8.28-14.34 19.22-19.9 29.88-.14.27.03.73-.13.98-4.42 6.45-4.91 11.98 2.96 16.42 1.42.8 2.74 4.17 2.16 5.5-.64 1.47-3.48 2.64-5.44 2.76-13.68.88-27.41 1.15-41.08 2.2-12.06.93-24.07 2.63-35.77 3.96-.9 4.75-1.86 9.03-2.5 13.35-.76 5.12-4.16 4.25-6.1 1.91-3.27-3.95-6.49-8.45-7.96-13.26-2.46-8.05-3.29-16.59-5.23-24.82-3.77-15.93-7.84-31.79-11.78-47.68-.63.07-1.26.14-1.89.21-1.77 5.4-3.3 10.89-5.39 16.16-2.16 5.45-4.46 10.94-7.44 15.97-5.13 8.66-9.94 17.77-16.5 25.27-8.98 10.26-18.97 19.81-29.52 28.46-5.44 4.46-12.99 6.4-19.69 9.23-.83.35-2.56-.51-3.33-1.33-.4-.43.09-2.19.67-2.96 1.14-1.51 2.63-2.77 4-4.11 14.53-14.19 28.97-28.56 39.14-46.31 5.73-10 10.58-20.63 14.58-31.44 4.16-11.25 7.15-22.97 10-34.64 1.47-6.01 1.87-12.35 2.14-18.56.85-19.69 1.86-39.4 1.89-59.1.02-11.24-1.66-22.46-7.35-32.68-1.13-2.03-1.73-6.4-.72-7.14 1.92-1.4 5.49-1.87 7.84-1.1 6.32 2.06 12.49 4.72 18.46 7.66 2.96 1.46 5.24 1.54 8.02-.11 16.32-9.67 33-18.89 46.58-32.41 2.95-2.94 4.9-7.2 6.45-11.18 2.04-5.23 3.83-6.73 9.19-4.66 10.14 3.93 20.32 7.84 30.11 12.55 5.38 2.59 5.91 6.22 2.9 9.9-.7.85-1.91 1.51-3 1.76-15.3 3.56-29.9 9.13-43.94 16.03-14.86 7.3-30.56 12.15-46.34 16.69-3.13.9-3.62 2.7-3.86 4.58-.95 7.32-1.55 14.7-2.14 22.06-.71 8.68-1.26 17.36-1.92 26.76zm21.77 131.21c1.59-.64 2.31-1.1 3.08-1.22 15.5-2.4 31-4.79 46.51-7.1 4.01-.6 7.07-1.95 8.29-6.34 2.27-8.14 5.03-16.15 7.2-24.32 1.37-5.17 2.49-10.49 2.89-15.8.31-4.07-1.29-7.38-6.67-6.58-7.77 1.16-15.59 1.97-23.37 3.05-14.87 2.07-29.74 4.23-44.97 6.4 2.33 17.21 4.63 34.17 7.04 51.91z" fill="#010000"/><path d="m152.6 171.82c-1.16-4.29-2.24-8.21-3.28-12.14-.93-3.54.57-5.23 4.1-5.7 7.55-1 13.13 3.21 18.93 6.91 1.24.79 2.46 1.63 3.56 2.6 3.17 2.77 4.32 5.21 2.51 10.11-5.12 13.84-8.86 28.19-13.38 42.26-4.78 14.84-9.83 29.59-15.11 45.39 1.49 1.09 4.06 3.29 6.91 5.02 8.58 5.24 11.32 13.6 11.99 22.81.19 2.55-1.03 5.5-2.41 7.79-1.79 2.98-3.88 4.21-7.44.88-6.69-6.26-14.1-11.74-21.23-17.56-20.95 21.52-41.51 43.42-74.59 44.42 21.4-17.36 44-33.21 61.97-55.78-8.38-5.92-16.82-11.9-25.27-17.85-1.2-.84-2.52-1.52-3.7-2.39-6.53-4.78-7.29-8.5-4.33-16.17 4.42-11.44 8.47-23.03 12.68-34.56-.52-.41-1.04-.82-1.55-1.24-10.66 4.62-21.39 9.12-31.96 13.95-3.22 1.47-6.01 1.15-8.52-.71-5.13-3.8-10.44-7.52-14.84-12.08-1.91-1.98-2.42-6-2.17-8.98.09-1.11 4.22-2.79 6.42-2.66 15.69.89 30.87-2.31 46.13-5.05 3.19-.57 6.43-.82 9.47-1.19 2.17-12.16 4.5-23.84 6.27-35.6 1.42-9.4 2.45-18.88 3.15-28.36.69-9.41.6-18.87 1.12-28.29.43-7.73-1.41-14.93-4.17-22.01-2.4-6.16.98-11.02 7.44-9.29 10.66 2.85 19.95 8.78 27.65 16.77 4.2 4.36 2.4 9.65-.16 13.66-6.69 10.47-8.77 22.35-11.7 34-4.44 17.68-8.71 35.4-13.01 53.12-.19.77-.02 1.63-.02 3.3 9.63-1.82 18.97-3.57 28.54-5.38zm-.46 10.63c-10.93 3.4-20.86 6.42-30.72 9.66-1.05.35-2.05 1.9-2.43 3.1-3.97 12.37-7.92 24.74-11.64 37.19-1.26 4.22.36 8.16 4.06 10.22 7.29 4.06 14.91 7.53 22.4 11.24 10.62-22.67 15.94-46.13 18.33-71.41z" fill="#010000"/><g fill="#fafbfa"><path d="m6.44 374.46.42-.45c.65.47 1.27.95 1.85 1.44l-.45.49c-.65-.56-1.25-1.06-1.82-1.48m.93 7.33-.63-.26c.55-1.36 1.05-2.8 1.52-4.33.19.1.38.19.59.27-.46 1.29-.95 2.73-1.48 4.32m-.38-10.38.44-.42c.43.34 1.01.82 1.74 1.44l-.49.49c-.53-.51-1.09-1.01-1.69-1.51m2.5.35h1.72v-1.04h.59v1.04h3.52v-1.04h.59v1.04h1.75v.53h-1.75v1.42h-2.03v.97h3.22v2.03h-3.24c0 .35-.01.66-.03.93h3.32v.53h-3.37c-.03.27-.08.58-.15.94h3.96v.53h-3.71c.67.92 1.93 1.48 3.79 1.68-.13.24-.23.44-.29.59-2.13-.38-3.48-1.08-4.04-2.12-.43.97-1.77 1.72-4.03 2.23-.09-.19-.2-.37-.33-.55 2.1-.42 3.37-1.03 3.81-1.83h-3.36v-.53h3.58c.08-.29.13-.61.16-.94h-3.33v-.53h3.39c.02-.27.04-.58.04-.93h-3.23v-2.03h3.25v-.97h-2.07v-1.42h-1.73zm1.12 3.44v1h2.65c.01-.3.02-.44.01-.4v-.25-.35zm1.19-2h3.52v-.91h-3.52zm4.71 2h-2.63v.59c0 .15-.01.28-.01.4h2.64z"/><path d="m13.56 383.74h.63v1.52h2.72v6.07h1.13v.6h-11.06v-.6h1.13v-6.07h2.73v-1.52h.63v1.52h2.1v-1.52zm-2.69 8.83.38.56c-1.24.63-2.53 1.25-3.85 1.85-.1-.21-.21-.42-.34-.63 1.36-.55 2.63-1.15 3.81-1.78m-2.13-4.27h2.1v-2.45h-2.1zm0 3.04h2.1v-2.46h-2.1zm2.72-3.04h2.1v-2.45h-2.1zm0 3.04h2.1v-2.46h-2.1zm6.07 3.6c-1.41-.71-2.7-1.3-3.86-1.78l.35-.56c1.45.62 2.75 1.19 3.88 1.72zm-1.25-9.09h-2.1v2.45h2.1zm-2.09 5.49h2.1v-2.46h-2.1z"/></g></svg>