<svg enable-background="new 0 0 400 400" viewBox="0 0 400 400" xmlns="http://www.w3.org/2000/svg"><path d="m5.17 384 .55-.58c.85.61 1.65 1.24 2.4 1.87l-.59.64c-.83-.73-1.62-1.38-2.36-1.93m1.22 9.53-.82-.34c.71-1.76 1.37-3.64 1.98-5.63.24.13.5.25.76.36-.6 1.67-1.24 3.54-1.92 5.61m-.5-13.5.57-.54c.56.44 1.31 1.06 2.26 1.87l-.64.64c-.68-.66-1.41-1.32-2.19-1.97m3.25.46h2.24v-1.36h.77v1.36h4.57v-1.36h.76v1.36h2.28v.69h-2.28v1.84h-2.64v1.26h4.18v2.64h-4.21c0 .45-.02.86-.05 1.21h4.32v.69h-4.38c-.04.34-.1.75-.19 1.22h5.15v.69h-4.82c.87 1.19 2.51 1.92 4.93 2.19-.17.31-.3.57-.37.76-2.77-.49-4.52-1.41-5.26-2.76-.56 1.26-2.3 2.23-5.24 2.9-.12-.24-.26-.48-.43-.72 2.73-.55 4.38-1.34 4.96-2.38h-4.38v-.69h4.65c.1-.38.17-.79.21-1.22h-4.32v-.69h4.4c.03-.34.05-.75.05-1.21h-4.2v-2.64h4.23v-1.26h-2.69v-1.84h-2.24zm1.46 4.46v1.29h3.45c.01-.4.02-.57.01-.53v-.32-.45h-3.46zm1.55-2.59h4.57v-1.19h-4.57zm6.11 2.59h-3.42v.77c-.01.19-.01.37-.02.53h3.44z" fill="#fafafa"/><path d="m32.63 379.16h.82v1.98h3.54v7.89h1.46v.78h-14.37v-.78h1.46v-7.89h3.54v-1.98h.82v1.98h2.73zm-3.49 11.48.5.73c-1.61.82-3.28 1.63-5 2.41-.13-.27-.28-.55-.44-.82 1.75-.72 3.4-1.49 4.94-2.32m-2.78-5.55h2.73v-3.18h-2.73zm0 3.95h2.73v-3.2h-2.73zm3.54-3.95h2.73v-3.18h-2.73zm0 3.95h2.73v-3.2h-2.73zm7.89 4.68c-1.84-.92-3.51-1.7-5.02-2.32l.45-.73c1.89.8 3.57 1.55 5.04 2.23zm-1.62-11.81h-2.73v3.18h2.73zm-2.73 7.13h2.73v-3.2h-2.73z" fill="#fafafa"/><g fill="#000001"><path d="m187.1 104.09c6.88-.75 13.52-1.45 20.16-2.22 7.97-.92 15.92-2.06 23.91-2.82 6.08-.58 12.2-.64 18.29-1.13 1.02-.08 2.5-.97 2.86-1.86 5.3-13.11 9.99-26.31 6.39-40.89-.6-2.41.39-5.21.64-7.83 3.19.37 7.1-.3 9.41 1.33 5.1 3.59 9.45 8.25 13.97 12.61 3.47 3.34 2.61 7.24.57 10.82-5.99 10.54-10.51 21.54-13.57 33.36-1.84 7.12-5.76 13.79-9.34 20.33-1.07 1.95-4.17 3.78-6.33 3.78-1.34 0-3.07-3.42-3.9-5.58-.85-2.23-1.22-4.82-1.09-7.22.29-5.11-2.51-6.57-6.88-6.79-15.91-.79-31.54 1.26-47.08 4.44-6.38 1.31-12.78 2.52-19.06 3.75 3.8 2.94 7.96 5.65 11.51 9.01 7.18 6.79 7.16 10.04.31 17.75 18.76 12.56 37.39 25.16 56.14 37.57 18.88 12.51 38.95 22.19 61.14 27.76 17.33 4.35 34.23 10.38 51.29 15.79 2.06.65 3.86 2.11 6.79 3.77-2.48 1.44-3.85 2.68-5.42 3.07-19.13 4.74-38.29 9.02-58.26 8.21-9.62-.39-17.64-3.65-24.89-9.84-14.11-12.06-28.48-23.81-42.64-35.8-4.67-3.95-9.03-8.27-13.51-12.44-11.63-10.84-23.26-21.7-35.14-32.79-4.9 5.52-9.89 11.1-14.83 16.73-4.34 4.95-8.42 10.15-12.99 14.87-9.32 9.62-18.65 19.27-28.44 28.4-13.31 12.42-27.21 24.2-43.88 32.05-11.63 5.48-23.31 10.87-35.12 15.95-2.71 1.17-6.09 2.33-9.54.07 11.3-7.95 22.24-15.31 32.82-23.17 11.82-8.77 23.57-17.69 34.9-27.08 18.26-15.13 33.91-32.74 46.67-52.72 6.51-10.19 11.77-21.09 10.9-34.71-6.17 1.52-12 2.67-17.66 4.41-12.41 3.82-24.74 7.9-37.08 11.96-1.37.45-2.64 1.31-3.82 2.17-3.83 2.8-7.31 2.4-10.57-.92-.23-.24-.48-.46-.72-.7-9.44-9.55-9.29-8.71-1.8-17.92 5.55-6.83 6.59-14.82 7.64-22.82 1.08-8.24-.54-16.35-2.96-24.31-.55-1.81-.57-4.58.47-5.81.8-.96 3.84-.78 5.53-.16 11.13 4.08 18.84 12.68 15.39 26.12-1.5 5.82-1.79 11.99-2.24 18.04-.37 5.05 1.33 6.28 6.22 5.16 6.98-1.6 13.91-3.44 20.94-4.81 8.01-1.56 16.07-2.91 24.15-3.96 3.5-.45 4.74-1.67 4.69-5.27-.19-13.16.17-26.34-.22-39.49-.13-4.27-1.55-8.62-3.06-12.68-1.16-3.12-3.13-5.93-.73-9.16 2.67-3.59 6.55-2.15 9.37-1.08 5.75 2.19 11.3 5.09 16.58 8.28 4.63 2.79 4.81 6.33 3.38 11.7-3.11 11.63-5.65 23.41-8.38 35.13-.66 3-1.17 6.03-1.88 9.59z"/><path d="m211.08 324.67c1.79-.16 3.67-.74 5.37-.41 5.42 1.07 10.78 2.49 16.16 3.76 9.54 2.24 12.14.74 13.31-8.57 1.27-10.09 2.11-20.24 3.08-30.37 1.03-10.79 1.8-21.6 3.05-32.36.58-4.97-4.6-9.21-10.98-9.11-10.4.15-20.79.83-31.18 1.44-3.6.21-7.17.88-11.11 1.38 1.68 1.2 3.16 2.62 4.93 3.46 4.84 2.31 6.05 6.26 5.25 11.07s-1.86 9.58-2.74 14c5.57.7 11.02.96 16.22 2.21 2.84.68 5.42 2.87 7.83 4.76.96.75 1.78 2.69 1.49 3.76-.27.99-2.06 2.01-3.3 2.21-7.58 1.21-15.21 2.18-23.2 3.29-1.42 9.83-2.66 19.69-4.35 29.47-.62 3.58-1.81 7.28-3.66 10.38-1.71 2.85-4.36 3.33-5.27-1.05-.73-3.49-1.64-6.99-1.9-10.53-.62-8.57-.91-17.17-1.34-25.93-8.7 1.16-17.38 2.47-26.09 3.4-2.86.3-3.53 1.44-3.69 4.06-.49 7.53-1.17 15.06-2.01 22.56-.22 1.93-1.31 3.77-2.29 6.44-9.15-8.66-7.33-19.73-10.18-29.75-4.08.25-8.55 1.22-12.76.57-3.79-.59-7.55-2.57-10.88-4.67-2.72-1.72-1.73-3.59 1.28-4.11 6.1-1.05 12.25-1.88 18.3-3.12 1.34-.27 3.53-2.11 3.4-2.9-1.69-10.05-3.73-20.04-5.76-30.49-8.62 2.36-16.29 4.43-23.95 6.56-2.81.78-4.3 2.28-4.17 5.66.53 13.92.84 27.86 1.06 41.79.15 9.69.26 19.39-.16 29.06-.09 2.17-2.04 5.19-3.94 6.06-1.4.64-4.53-1.11-6.17-2.59-7.52-6.81-10.2-14.96-9.26-25.5 1.62-18.14 3.9-36.53-1.45-54.54-1.34-4.49-3.76-8.67-4.96-13.19-1.2-4.53.95-6.25 5.31-4.78 2.12.72 4.4 1.48 6.1 2.86 5.79 4.72 12.12 2.67 18.28 1.71 13.05-2.04 26.02-4.68 39.1-6.52 16.38-2.31 32.84-4.09 49.27-6.05 11.72-1.39 23.45-2.63 35.16-4.06 2.41-.29 4.85-.83 7.1-1.72 7.04-2.78 13.16-1.08 18.78 3.43 4.1 3.29 8.02 6.8 12.19 9.99 3.39 2.6 3.65 5.63 1.54 8.9-5.1 7.93-6.88 16.79-7.89 25.95-2.4 21.77-2.13 43.95-9.1 65.04-1.6 4.85-4.3 9.39-6.89 13.84-2.15 3.69-5.15 2.96-7.72.31-2.64-2.71-4.88-5.82-7.59-8.46-7.75-7.59-15.64-15.05-23.5-22.52-1.49-1.42-3.13-2.7-4.69-4.04.17-.7.37-1.37.57-2.04zm-23.49-72.54c-14.73-.58-27.68 1.23-41.18 5.98 1.94.79 2.9 1.21 3.88 1.57 8.35 3.02 8.71 3.52 8.71 12.33v17.2c9.94-1.9 19.23-3.55 28.44-5.59 1.09-.24 2.51-2.62 2.43-3.93-.55-9.13-1.47-18.23-2.28-27.56z"/><path d="m155.82 221.08c-6.06-1.5-12.51-2.96-18.86-4.79-1.19-.34-1.93-2.21-2.88-3.37 1.22-.98 2.31-2.51 3.68-2.84 6.47-1.53 13.06-2.56 19.54-4.07 11.06-2.58 22.17-5.04 33.06-8.24 7.7-2.26 15.06-2.54 22.52.28 1.2.46 2.6.94 3.38 1.85 1.29 1.5 3.17 3.53 2.92 5.03-.26 1.54-2.57 3.41-4.32 3.9-9.06 2.53-18.16 4.97-27.37 6.84-10.23 2.1-20.57 3.55-31.67 5.41z"/></g></svg>