<svg enable-background="new 0 0 400 400" viewBox="0 0 400 400" xmlns="http://www.w3.org/2000/svg"><g fill="#fafafb"><path d="m37.59 393.81c-.92.31-1.52.05-2-.78-.7-1.2-1.52-2.34-2.47-3.78v4.59c-.55.03-.95.05-1.41.07-.03-.37-.06-.64-.06-.91 0-1.91 0-3.81 0-5.7 1.13-.41 1.77-.03 2.29.91.62 1.11 1.38 2.14 2.31 3.19v-4.2h1.35v6.61z"/><path d="m12.94 393.88v-6.75c1.9.19 3.93-.54 5.37 1.29.8 1.01.78 2.88.03 3.97-1.37 1.97-3.4 1.51-5.4 1.49m1.45-1.22c2.04.12 2.92-.58 2.89-2.21-.03-1.51-.98-2.19-2.89-2z"/><path d="m11.81 393.87h-5.49c.68-2.18 2.47-3.48 3.51-5.45h-3.08v-1.21h5.29c-.71 2.13-2.44 3.48-3.47 5.51.86 0 1.63.04 2.39-.01.79-.05 1.14.21.85 1.16"/><path d="m39.33 393.86v-6.61h3.7v1.07h-2.22v1.52c.68.04 1.34.09 2.07.13v1.07c-.72.05-1.38.09-2.1.14v1.48h2.4v1.19h-3.85z"/><path d="m27.71 388.56c-1.15-.3-2.46-.61-3.1.64-.37.73-.41 1.93-.06 2.67.63 1.35 1.99.93 3.17.68.35.94-.01 1.32-.93 1.46-1.62.25-3.05-.27-3.76-1.48-.73-1.24-.6-3.03.31-4.17.88-1.11 2.71-1.7 4-1.16.32.13.44.74.65 1.12-.1.08-.19.16-.28.24"/><path d="m49.15 387.24v1.07c-.59.02-1.17.05-1.87.08v5.44h-1.48v-5.44h-1.85c-.05-.4-.08-.73-.13-1.15z"/><path d="m20.06 387.21h1.33v6.62h-1.33z"/><path d="m30.68 393.25c-.49.38-.8.79-1.05.76-.32-.05-.6-.45-.9-.7.26-.24.51-.64.8-.67.29-.04.62.3 1.15.61"/></g><path d="m157.72 210.61c-4.57-40.6 2.56-81.4-6.16-119.61-10.02-3.03-18.55-5.53-27.03-8.24-1.49-.48-2.87-1.64-4-2.79-2.69-2.73-2.05-5.21 1.76-5.86 5.64-.96 11.35-1.76 17.06-2.05 30.99-1.58 61.39-6.9 91.57-13.88 7.62-1.76 15.54-2.24 23.35-3.16 5.87-.69 11.05 1.46 15.46 5.04 1.64 1.33 3.11 4.02 2.99 5.98-.09 1.49-2.63 3.67-4.41 4.08-10.94 2.52-21.98 4.64-32.99 6.86-3.91.79-7.84 1.48-13.21 2.48 8.3 3.85 6.99 10.38 6.88 16.41-.24 12.77-.53 25.54-1 38.3-.54 14.54-1.27 29.07-1.98 43.61-.4 8.23-.94 16.46-1.45 25.36 6.34-.92 11.76-1.69 17.18-2.51 10.18-1.53 20.35-3.08 30.53-4.64 6.46-.99 13.05-1.5 19.34-3.14 13.55-3.53 24.6 1.35 34.96 9.25 1.64 1.25 3.43 2.61 4.42 4.33 1.04 1.81 2.29 4.96 1.48 6.03-1.36 1.8-4.28 3.34-6.55 3.36-8.76.07-17.53-.64-26.3-.8-9.66-.17-19.33-.04-29-.04-14.7 0-29.42-.52-44.09.14-16.1.72-32.16 2.35-48.21 3.9-10.75 1.04-21.52 2.24-32.17 4.04-14.78 2.49-29.46 5.55-44.16 8.47-8.8 1.75-17.58 4.49-26.23-.52-.83-.48-1.94-.68-2.52-1.35-2.46-2.85-4.78-5.84-7.14-8.78 3.45-.97 6.85-2.39 10.37-2.81 12.54-1.52 25.12-2.77 37.7-3.99 8.35-.81 16.73-1.41 25.1-2.08 5.7-.45 11.44-.86 18.45-1.39zm11.75-123.65c-.25.35-.5.71-.75 1.06 6.74 2.27 5.31 7.5 5.25 12.12-.28 21.93-.66 43.85-.96 65.78-.09 6.66.1 13.33-.12 19.99-.26 7.55-.84 15.1-1.31 23.21 13.38-1.51 25.8-2.9 38.14-4.29.14-1.03.27-1.52.26-2-.62-37.35 1.65-74.75-1.94-112.06-.88-9.21-.81-9.35-10.45-7.83-.65.1-1.34-.04-1.99.06-8.71 1.32-17.42 2.64-26.13 3.96z" fill="#010100"/><path d="m262.04 307.05c-1.41-6.05-3.34-14.28-5.23-22.53-.94-4.11-1.99-8.2-2.62-12.36-.19-1.24.9-2.67 1.41-4.01 1.37.72 3.22 1.09 4.03 2.22 11.96 16.59 25.21 32.06 39.71 46.48 2.65 2.63 5.4 5.17 7.89 7.94 4.22 4.7 3.56 9.48-2.43 12.11-6.65 2.92-13.62 5.52-20.72 6.91-7.85 1.53-16.04 2.39-24.01 2.02-20.76-.97-41.7-1.45-61.72-7.92-18.87-6.1-36.98-13.84-49.85-29.94-9.5-11.88-15.8-25.33-18.52-40.39-.46-2.55-1.58-5.02-1.8-7.57-.14-1.61.36-3.86 1.45-4.81.97-.84 3.25-.67 4.78-.27 6.67 1.74 7.92 7.72 9.6 13.13 3.45 11.05 8.36 21.13 16.82 29.37 10.94 10.65 24.38 16.31 38.89 19.44 9.71 2.1 19.69 3.21 29.61 4.03 7.8.65 15.71.46 23.55.12 7.44-.33 8.93-1.33 9.16-13.97z" fill="#010100"/><path d="m262.29 231.38c5.94 1.24 11.76 1.95 17.26 3.7 11.58 3.69 23.15 7.53 34.44 12.02 12.54 4.99 18.64 15.49 20.73 28.2.49 2.98-1.43 7.07-3.57 9.46-1.04 1.17-5.68.46-7.75-.87-7.12-4.56-13.88-9.7-20.69-14.74-11.29-8.34-22.51-16.78-33.76-25.18-3.88-2.88-7.36-6-6.66-12.59z" fill="#010100"/><path d="m99.75 257.27c5.78 5.11 5.6 11.12 5.08 16.67-.74 8.1-2.03 16.23-3.95 24.14-3.24 13.34-10.75 24.11-21.82 32.24-4.78 3.52-9.01 1.24-11.2-4.32-3.91-9.93-.49-17.99 4.66-26.22 7.62-12.16 14.7-24.66 22.15-36.92 1.21-1.98 3.16-3.5 5.08-5.59z" fill="#010100"/><path d="m235.33 157.96c1.42-2.35 2.67-4.82 4.28-7.03 7.69-10.55 15.81-20.81 23.05-31.66 2.28-3.41 2.62-8.29 3.23-12.58.39-2.77 1.37-3.48 4.01-3.77 7.93-.86 13.29 3.74 18.73 8.25 1.78 1.48 3.34 3.25 4.97 4.91 4.63 4.72 4.24 8.5-1.32 11.85-16.6 9.99-33.21 19.98-49.9 29.84-1.67.99-3.89 1.03-5.86 1.51-.4-.44-.79-.88-1.19-1.32z" fill="#010100"/><path d="m132.44 175.99c-7 .63-9.74-4.92-13.41-8.63-5.66-5.72-10.89-11.89-16.13-18.02-2.85-3.34-5.71-6.8-7.79-10.62-.97-1.78-.78-4.95.23-6.73.59-1.05 4.2-1.47 5.78-.73 9.69 4.49 19.33 9.13 28.73 14.21 10.01 5.4 10.75 14.75 9.04 24.56-.58 3.35-2.09 6.78-6.45 5.96z" fill="#010100"/><path d="m221.52 271.02c-2.22 3.35-3.56 7.69-5.73 8.16-3.61.78-8.87.39-11.47-1.82-9.61-8.19-18.5-17.24-27.44-26.18-1.49-1.49-2.3-3.98-2.72-6.15-.74-3.81 2.08-6.14 6.07-5.03 12.28 3.43 24.51 7.39 33.63 16.73 3.49 3.57 4.98 9.1 7.66 14.29z" fill="#010100"/></svg>