<svg enable-background="new 0 0 400 400" viewBox="0 0 400 400" xmlns="http://www.w3.org/2000/svg"><g fill="#010100"><path d="m134.14 267.75c2.9-4.36 5.88-8.68 8.7-13.1 9.82-15.39 19.75-30.72 29.3-46.28 3.66-5.96 6.44-12.45 9.56-18.73.62-1.25.97-2.64 1.8-4.96-5.06 1.27-9.33 2.04-13.4 3.42-8.05 2.74-14.74-.78-21.39-4.33-.96-.51-1.85-2.87-1.45-3.8.55-1.26 2.27-2.54 3.67-2.8 10.11-1.87 20.24-3.67 30.42-5.1 5.13-.72 9.06-1.68 10.24-7.93 1.17-6.16 3.73-12.06 5.74-18.26-9.81-.34-19.88 5.08-28.99-4.14 2.08-1.04 3.71-2.21 5.53-2.7 7.85-2.12 15.76-4.03 23.64-6.06.84-.22 2.19-.6 2.32-1.14 1.63-6.73 3.08-13.5 4.78-21.21-9.13 2.13-17.02 1.93-24.5-1.67-2.76-1.33-5.31-3.08-7.95-4.64-.05-.61-.1-1.21-.14-1.82 3.44-1.16 6.8-2.76 10.33-3.39 7.4-1.32 14.94-1.93 22.32-3.32 1.33-.25 3.1-2.79 3.18-4.35.59-11.42 1.01-22.86 1.03-34.3.01-4.02-1.42-8.02-1.88-12.07-.31-2.79-1.18-6.97.21-8.13 1.78-1.48 6.25-1.71 8.36-.45 7.13 4.23 13.94 9.08 20.36 14.33 1.5 1.23 1.75 5.17 1.18 7.52-2.52 10.38-5.56 20.63-8.7 31.98 11.6-3.87 22.13-7.44 32.69-10.9 7.79-2.55 15.63-5.18 23.95-2.41 2.15.71 4.35 1.54 6.21 2.78 1.47.99 3.71 3.1 3.41 4.01-.63 1.96-2.37 4.45-4.18 5.01-10.71 3.33-21.55 6.27-32.4 9.13-9.43 2.49-18.95 4.67-28.4 7.1-1.18.3-2.86 1.12-3.14 2.05-1.82 6.01-3.31 12.13-4.98 18.49 11.5-2.57 22.16-5.48 33.01-7.19 6.01-.95 12.67-2.15 18.32 1.7 1.81 1.23 3 3.69 3.77 5.84.16.44-2.7 2.58-4.39 2.95-9.85 2.19-19.77 4.09-29.66 6.08-7.03 1.41-14.12 2.6-21.06 4.36-1.77.45-3.83 2.46-4.45 4.21-2.53 7.2-4.56 14.59-6.96 22.5 7.49-1.58 14.74-3 21.93-4.65 17.61-4.05 35.08-8.79 52.82-12.1 11.38-2.12 22.67.07 32.18 7.48 1.77 1.38 2.58 4 3.84 6.04-1.86 1.12-3.64 2.4-5.59 3.29-1.28.58-2.81.73-4.25.85-15.9 1.36-31.8 2.68-47.7 3.99-3.22.27-6.45.46-11.13.78 20.06 14.84 37.15 31.43 58.37 41.93 20.85 10.32 42.37 19.28 63.6 28.83-.05.64-.1 1.28-.14 1.92-4.67.86-9.31 2.25-14.01 2.47-13.59.62-27.23.35-40.79 1.26-8.11.54-14-3.14-19.43-7.91-19.9-17.44-36.2-38.12-52.23-59.02-1.5-1.95-3.11-3.82-4.65-5.74-2.92-3.64-6.9-1.61-10.06-1.21-8.22 1.03-16.34 2.94-24.44 4.8-1.67.38-3.67 1.75-4.45 3.23-6.87 12.99-12.85 26.49-20.41 39.05-5.7 9.47-12.95 18.12-20.23 26.51-5.56 6.4-12.08 12.02-18.53 17.58-2.4 2.07-5.82 2.94-8.77 4.37-.64-.65-1.29-1.34-1.94-2.03z"/><path d="m101 219.59c-6.57 5.45-12.51 10.02-18.03 15.04-7.73 7.03-15.13 14.42-22.72 21.6-5.03 4.76-10.41 7.74-17.48 3.75-5.89-3.33-11.64-6.68-15.29-13.84 6-3.78 11.77-7.7 17.81-11.14 17.16-9.77 34.4-19.4 51.7-28.94 3.7-2.04 5.26-4.4 5.14-8.9-.38-14.14-.14-28.29-.14-43.51-6.19 1.29-11.96 2.45-17.72 3.71-11.11 2.42-22.23 4.12-33.23-.35-1.81-.74-3.35-2.16-5.01-3.26 1.53-1.54 2.82-3.92 4.65-4.47 7-2.08 14.21-3.4 21.26-5.31 9.26-2.51 18.42-5.38 27.67-7.92 2.75-.76 3.45-2.2 3.44-4.93-.12-18.49.07-36.99-.12-55.48-.09-8.57-4.52-15.81-8.09-23.29-1.02-2.15-.96-4.82-1.39-7.25 2.39-.42 5.06-1.74 7.11-1.09 7.24 2.3 14.39 5 21.32 8.1 4.65 2.08 6.37 6.3 4.92 11.12-3.61 11.99-5.53 24.2-5.88 36.72-.26 9.42-.92 18.82-1.35 27.16 7.43 1.1 14.18 1.64 20.65 3.29 2.27.58 4.91 3.67 5.34 5.99.27 1.44-2.97 4.42-5.19 5.27-5.75 2.21-11.85 3.49-17.69 5.48-1.46.5-3.53 2.28-3.55 3.5-.25 13.98-.16 27.96-.16 42.35 6.2-3.25 11.99-6.42 17.93-9.29 1.32-.64 3.16-.21 4.76-.28-.47 1.61-.43 3.8-1.49 4.72-4.84 4.15-9.84 8.16-15.08 11.79-4.29 2.96-6.5 6.24-6.24 11.81.7 15.08.64 30.19 1.18 45.28.38 10.54 1.87 21.07 1.78 31.6-.16 17.56-1.72 35.04-11.01 50.63-1.43 2.4-5.04 5.77-6.63 5.3-2.8-.83-5.94-3.88-6.96-6.72-4.68-13.07-13.34-23.15-22.73-32.87-2.29-2.37-4.11-5.21-6.82-8.7 2.61 0 3.78-.24 4.82.04 6.71 1.81 13.36 3.81 20.08 5.59 3.22.85 6.43-2.14 7.32-7.04.64-3.54 1.04-7.17 1.05-10.76.1-19.49.05-38.99.05-58.48.02-1.64.02-3.24.02-6.02z"/><path d="m218 268.59c-4.8 7.18-8.52 13.64-13.09 19.44-12.88 16.35-27.64 30.74-46.23 40.54-5.59 2.94-11.89 4.47-20.29 2.68 23.78-18.68 46.14-37.15 61.53-63.3-12.34 1.07-24.67 3.87-35.16-8 18.14-4.73 35.88-5.46 53.26-9.01-2.4-9.12 1.04-18.59-4.21-26.92-10.03 1.99-19.78 3.93-29.52 5.86-.17-.37-.34-.74-.51-1.12 1.38-.92 2.71-1.92 4.14-2.73 12.33-7.02 24.79-13.82 36.92-21.17 2.67-1.61 4.09-5.21 6.24-7.78 1.24-1.48 2.62-3.68 4.18-3.91 6.96-1.03 21.77 8.4 24.63 15.3-11.31 3.56-22.63 7.12-33.95 10.69-.08.47-.17.95-.25 1.42 12.34 5.48 6.48 17.24 10.33 26.4 1.9-.38 4.42-.67 6.81-1.41 10.37-3.22 20.95-5.37 31.73-3.35 3.54.66 6.98 3.38 9.79 5.91 2.07 1.87-.54 5.33-4.16 5.87-13.41 1.99-26.82 3.99-40.22 6.04-1.58.24-3.1.87-4.94 1.4v61.44c0 11.36.38 22.75-.26 34.07-.19 3.42-3.25 6.67-5 10.01-2.65-2.18-5.81-3.97-7.87-6.61-5.69-7.27-8.1-16-8.72-25.01-.29-4.28 1.34-8.67 1.84-13.04.78-6.85 1.54-13.71 1.94-20.58.53-9.08.72-18.19 1.04-27.29.05-1.57 0-3.14 0-5.84z"/><path d="m312.28 325.57c-.4 1.1-.95 3.82-2.28 6.08-2.3 3.89-5.69 4.61-8.96 1.73-4.41-3.88-8.37-8.28-12.58-12.39-10.09-9.83-20.23-19.62-30.35-29.43-.84-.81-2.06-1.5-2.41-2.48-1.06-3-1.77-6.12-2.62-9.19 2.86.35 5.92.17 8.54 1.15 10.35 3.85 20.89 7.42 30.77 12.29 12.33 6.07 18.95 16.58 19.89 32.24z"/></g><path d="m5.17 384 .55-.58c.85.61 1.65 1.24 2.4 1.87l-.59.64c-.83-.73-1.62-1.37-2.36-1.93m1.22 9.53-.82-.34c.71-1.76 1.37-3.64 1.98-5.63.24.13.5.25.76.36-.6 1.67-1.24 3.54-1.92 5.61m-.5-13.5.57-.54c.56.44 1.31 1.06 2.26 1.87l-.64.64c-.68-.66-1.41-1.32-2.19-1.97m3.25.46h2.24v-1.36h.77v1.36h4.57v-1.36h.76v1.36h2.28v.69h-2.28v1.84h-2.64v1.26h4.18v2.64h-4.21c0 .45-.02.86-.05 1.21h4.32v.69h-4.38c-.04.34-.1.75-.19 1.22h5.15v.69h-4.82c.87 1.19 2.51 1.92 4.93 2.19-.17.31-.3.57-.37.76-2.77-.49-4.52-1.41-5.26-2.76-.56 1.26-2.3 2.23-5.24 2.9-.12-.24-.26-.48-.43-.72 2.73-.55 4.38-1.34 4.96-2.38h-4.38v-.69h4.65c.1-.38.17-.79.21-1.22h-4.32v-.69h4.4c.03-.34.05-.75.05-1.21h-4.2v-2.64h4.23v-1.26h-2.69v-1.84h-2.24zm1.46 4.46v1.29h3.45c.01-.4.02-.57.01-.53v-.32-.45h-3.46zm1.55-2.59h4.57v-1.19h-4.57zm6.11 2.59h-3.42v.77c-.01.19-.01.37-.02.53h3.44z" fill="#fbfafc"/><path d="m32.63 379.16h.82v1.98h3.54v7.89h1.45v.78h-14.36v-.78h1.46v-7.89h3.54v-1.98h.82v1.98h2.73zm-3.49 11.48.5.73c-1.61.82-3.28 1.63-5 2.41-.13-.27-.28-.55-.44-.82 1.75-.72 3.4-1.49 4.94-2.32m-2.78-5.55h2.73v-3.18h-2.73zm0 3.95h2.73v-3.2h-2.73zm3.54-3.95h2.73v-3.18h-2.73zm0 3.95h2.73v-3.2h-2.73zm7.89 4.68c-1.84-.92-3.51-1.7-5.02-2.32l.45-.73c1.89.8 3.57 1.55 5.04 2.23zm-1.62-11.81h-2.73v3.18h2.73zm-2.73 7.13h2.73v-3.2h-2.73z" fill="#fbfafc"/></svg>