<svg enable-background="new 0 0 400 400" viewBox="0 0 400 400" xmlns="http://www.w3.org/2000/svg"><g fill="#fafafb"><path d="m37.59 393.81c-.92.31-1.52.05-2-.78-.7-1.2-1.52-2.34-2.47-3.78v4.59c-.55.03-.95.05-1.41.07-.03-.37-.06-.64-.06-.91 0-1.91 0-3.81 0-5.7 1.13-.41 1.77-.03 2.29.91.62 1.11 1.38 2.14 2.31 3.19v-4.2h1.35v6.61z"/><path d="m12.94 393.88v-6.75c1.9.19 3.93-.54 5.37 1.29.8 1.01.78 2.88.03 3.97-1.37 1.97-3.4 1.51-5.4 1.49m1.45-1.22c2.04.12 2.92-.58 2.89-2.21-.03-1.51-.98-2.19-2.89-2z"/><path d="m11.81 393.87h-5.49c.68-2.18 2.47-3.48 3.51-5.45h-3.08v-1.21h5.29c-.71 2.13-2.44 3.48-3.47 5.51.86 0 1.63.04 2.39-.01.79-.05 1.14.21.85 1.16"/><path d="m39.33 393.86v-6.61h3.7v1.07h-2.22v1.52c.68.04 1.34.09 2.07.13v1.07c-.72.05-1.38.09-2.1.14v1.48h2.4v1.19h-3.85z"/><path d="m27.71 388.56c-1.15-.3-2.46-.61-3.1.64-.37.73-.41 1.93-.06 2.67.63 1.35 1.99.93 3.17.68.35.94-.01 1.32-.93 1.46-1.62.25-3.05-.27-3.76-1.48-.73-1.24-.6-3.03.31-4.17.88-1.11 2.71-1.7 4-1.16.32.13.44.74.65 1.12-.1.08-.19.16-.28.24"/><path d="m49.15 387.24v1.07c-.59.02-1.17.05-1.87.08v5.44h-1.48v-5.44h-1.85c-.05-.4-.08-.73-.13-1.15z"/><path d="m20.06 387.21h1.33v6.62h-1.33z"/><path d="m30.68 393.25c-.49.38-.8.79-1.05.76-.32-.05-.6-.45-.9-.7.26-.24.51-.64.8-.67.29-.04.62.3 1.15.61"/></g><path d="m291.5 317c-13.6 0-27.21-.39-40.78.11-13.48.5-26.94 1.79-40.39 2.93-9.81.83-19.61 1.81-29.36 3.14-1.48.2-2.64 2.72-3.96 4.16-1.74 1.89-3.43 5.19-5.25 5.27-1.99.08-4.48-2.52-6.08-4.5-5.12-6.31-7.32-14.07-7.42-21.85-.1-7.25 1.85-14.54 2.99-21.8 1.54-9.83 3.38-19.62 4.71-29.48 3.22-23.94 4.37-48.01 4.11-72.17-.1-9.09 1.24-18.23.76-27.28-.59-11.1-2.01-22.2-3.79-33.18-2.01-12.37-4.82-24.61-7.29-36.91-.78-3.89 1.13-6.11 4.91-5.36 2.37.47 5.01.92 6.89 2.27 7.98 5.67 16.6 3.77 25.22 2.78 7.01-.8 14.08-1.18 21.07-2.18 16-2.3 32.15-4.04 47.9-7.56 18.22-4.06 36.05-9.86 54.11-14.69 2.19-.58 4.93-.39 7.07.39 10.46 3.82 20.44 8.6 28.81 16.16 2.99 2.7 3.61 5.5 1.46 9.44-6.11 11.17-7.03 23.1-5.45 35.72 1.13 9.02.13 18.3.29 27.46.22 12.43.61 24.86.98 37.29.28 9.1.63 18.2.99 27.29.64 15.86 1.27 31.73 2.01 47.59.57 12.04.88 24.11 2.12 36.08 1.12 10.75 2.03 21.46-1.31 31.8-2.07 6.42-5.06 12.8-8.9 18.33-3.89 5.6-8.89 4.82-12.8-.8-5.32-7.63-11.03-15.02-15.81-22.98-3.9-6.49-8.55-9.82-16.35-8.57-3.74.6-7.65.1-11.48.1.02.33.02.67.02 1zm-110.68-8c8.14 0 15.4.27 22.62-.07 8.21-.39 16.42-1.14 24.59-2.05 10.08-1.12 20.13-2.53 30.19-3.89 11.01-1.49 22-3.24 33.03-4.58 11.24-1.37 22.16-1.46 29.94 9.13 1.15 1.56 4.45 3.31 5.62 2.72 2.17-1.09 4.66-3.69 4.97-5.94 1.46-10.39 2.63-20.86 3.12-31.34.72-15.41 1.19-30.86 1.01-46.28-.36-30.69-.94-61.39-2.05-92.07-.43-11.92-2.28-23.81-3.93-35.66-1.98-14.22-7.79-19.91-21.85-18.71-16.4 1.4-32.65 4.57-48.93 7.21-12.23 1.98-24.38 4.47-36.6 6.51-12.05 2.01-24.16 3.73-36.09 5.56-.49 4.19-1.26 8.25-1.4 12.33-.47 13.42-.75 26.86-1.05 40.29-.37 16.76-.77 33.52-.99 50.29-.4 30.59-.64 61.18-1.07 91.77-.07 5.03-.76 10.08-1.13 14.78z" fill="#010100"/><path d="m114.74 208.97c-13.72 11.98-27.46 23.93-41.14 35.95-4.74 4.16-9.45 6.17-15.7 2.66-5-2.81-10.03-5.19-13.3-10.3-2.61-4.08-1.19-6.51 2.47-8.24 5.44-2.57 11.2-4.53 16.51-7.33 17.04-9.01 33.96-18.24 50.82-27.59 1.31-.73 2.47-3 2.49-4.57.19-14.16.11-28.32.11-42.99-8.58 2.22-16.94 4.36-25.3 6.55-8.35 2.19-16.22.57-23.72-3.21-1.26-.64-2.79-2.43-2.71-3.59.08-1.11 1.94-2.66 3.28-3.01 7.39-1.94 14.91-3.38 22.29-5.35 7.85-2.1 15.64-4.48 23.35-7.05 1.21-.4 2.66-2.44 2.67-3.74.18-15.83.3-31.66.04-47.49-.14-8.4-4.4-15.51-8.34-22.67-1-1.82-1.58-4.43-1.05-6.31.27-.98 3.4-1.66 5.22-1.61 10.43.28 19.28 4.81 26.78 11.58 1.68 1.52 1.66 5.77 1.26 8.6-1.7 12.1-3.96 24.13-5.74 36.22-.81 5.53-1 11.15-1.53 17.41 3.53-1.05 6.22-2.19 9.01-2.61 6.46-.96 12.75.04 18.44 3.3 1.38.79 3.03 3.09 2.76 4.3-.36 1.6-2.24 3.4-3.89 4.07-7.84 3.19-15.85 5.95-23.72 9.05-1.24.49-2.97 1.94-2.99 2.96-.2 13.24-.13 26.49-.13 40.35 4.98-3 9.07-5.98 13.6-8 2.63-1.18 5.96-.81 8.97-1.14-1.7 2.55-2.95 5.6-5.18 7.53-4.3 3.72-9.11 6.88-13.8 10.13-2.78 1.93-3.83 4.21-3.7 7.75.57 15.42.72 30.86 1.12 46.29.25 9.6.63 19.2.99 28.8.3 7.77.89 15.53.94 23.3.07 11.7-1.82 23.12-6 34.1-.06.15-.09.34-.19.45-2.54 2.82-4.98 7.76-7.65 7.89-3.21.16-7.82-3.04-9.72-6.09-7.91-12.71-19.06-21.85-30.8-30.58-2.75-2.04-4.84-4.98-7.23-7.5.3-.41.6-.81.89-1.22 1.23.14 2.47.24 3.69.43 9.34 1.5 18.68 3.04 28.02 4.52 4.6.72 6.77-2.37 7.85-5.94.93-3.08 1.15-6.47 1.16-9.73.09-25.15.05-50.3.05-75.46-.41-.27-.83-.57-1.25-.87z" fill="#010100"/><path d="m273.52 246.3c7.55-10.25 18.04-18.3 20.56-31.74.52-2.78 2.41-3.68 5.48-2.81 7.24 2.05 11.42 7.37 14.93 13.36 1.4 2.39.68 4.47-2.2 5.88-11.53 5.67-22.96 11.55-34.95 17.61 15.83 13.61 34.21 20.08 53.35 27.92-9.8 5.61-18.71 8.01-27.83 9.24-2.43.33-5.85-1.5-7.77-3.4-11.02-10.91-21.7-22.17-32.55-33.26-4.74-4.84-9.59-9.57-14.52-14.47-3.64 3.73-6.75 6.92-10.26 10.51 5.77 4.3 4.49 9.97 2.78 15.87-.63 2.17-.67 4.61-.48 6.88.27 3.18 1.79 4.71 5.25 3.08 6.19-2.92 12.44-5.7 18.71-8.44 1.02-.45 2.27-.37 3.41-.53-.31 1.32-.26 2.91-1 3.9-1.43 1.9-3.4 3.39-5 5.17-8.84 9.8-17.62 19.65-26.46 29.46-2.66 2.95-4.32 3.42-7.7-.31-6.67-7.35-5.88-14.12-2.5-22.58 2.71-6.78 3.03-14.51 3.54-22.35-14.94 6.7-26.9 18.48-43.8 19.5 17.36-13.15 35.47-25.46 45.27-46.24-5.98-2.95-7.49-9.12-9.53-14.96-3.11-8.89-6.12-17.81-9.32-26.67-1.43-3.95-.7-5.4 3.49-4.85 20.41 2.72 39.27-2.9 57.66-10.72 6.86-2.92 11.34 2.09 16.75 4.1.58.22.96.93 1.51 1.28 12.88 8.18 11.31 10.05 2.8 18.17-2.27 2.17-3.48 5.46-5.11 8.28-1.54 2.66-1.08 4.87 1.38 6.87 1.07.87 1.65 2.34 3.29 4.8-18.45 2.13-35.99 4.16-53.05 6.13 2.26 2.66 4.37 5.17 6.5 7.67.21.25.51.66.74.64 12.58-.9 17.34 10.3 25.4 16.4.13.08.29.13 1.23.61zm-42.42-32.9c10.67-2.02 20.65-4.55 30.79-5.63 8.27-.88 11.13-5.47 12.02-12.63.12-.99-.03-2.02.16-2.99.95-5.07-.75-7.66-5.89-7.05-13.4 1.59-26.74 3.74-40.35 5.71 1.15 7.95 2.17 14.98 3.27 22.59z" fill="#010100"/><path d="m298.54 132.77c1.29 1.02 2.47 1.72 3.35 2.7 2.09 2.3 1.37 4.12-1.54 4.46-10.1 1.16-20.25 1.87-30.33 3.13-12.64 1.59-25.22 3.56-37.83 5.35-2.58.37-5.17.64-7.74.96-.44 2.63-.87 5.17-1.37 8.1-7.34-4.11-9.59-10.27-11.84-16.7-3.65-10.41-7.95-20.6-11.8-30.94-.68-1.82-.53-3.94-.77-5.92 2.04-.17 4.17-.78 6.11-.41 4.88.93 9.64 3.05 14.51 3.3 4.44.23 9.04-1.1 13.46-2.21 17.96-4.5 35.96-8.85 53.76-13.93 8.3-2.37 13.57 3.27 20.09 5.67 1.65.61 3.11 1.76 4.61 2.75 2.75 1.8 3.81 6.6 1.97 9.16-2.76 3.84-5.91 7.42-8.34 11.45-2.33 3.86-3.97 8.16-6.3 13.08zm-49.78 3.45c1.6-.26 4.69-.53 7.65-1.32 1.29-.34 3.19-1.63 3.31-2.66.91-7.94 1.44-15.93 2.18-24.94-8.63 1.79-15.57 3.22-21.5 4.45 2.86 8.36 5.5 16.09 8.36 24.47zm-8.64 1.48c-1.72-6.78-3.86-13.4-4.96-20.19-.72-4.41-2.92-5.16-6.36-4.35-3.6.84-7.1 2.15-10.6 3.24 1.3 6.56 2.82 12.87 3.71 19.26.51 3.68 2.2 4.85 5.52 4.3 4.45-.73 8.89-1.57 12.69-2.26zm46.58-9.01c.77-5.12 2.07-9.94 2.04-14.74-.02-3.51.73-8.83-4.4-9.56-4.42-.63-9.1.55-13.67.93 6.05 6.21 6.03 6.2 2.71 12.85-2.4 4.8-4.76 9.63-7.5 15.18 7.3-1.62 13.91-3.1 20.82-4.66z" fill="#010100"/><path d="m191.44 167.59c19.22-3.29 37.41-6.29 55.54-9.55 15.71-2.83 31.29-6.42 47.06-8.8 9.75-1.47 18.65 2.48 26.57 8.03 2.79 1.95 1.87 5.58-1.37 6.98-1.02.44-2.18.7-3.28.73-12.42.38-24.89.2-37.26 1.16-13.2 1.03-26.35 2.87-39.45 4.84-10.94 1.65-21.71 4.63-32.69 5.69-4.14.4-8.73-2.75-12.91-4.72-1.07-.5-1.38-2.63-2.21-4.36z" fill="#010100"/></svg>