<svg enable-background="new 0 0 400 400" viewBox="0 0 400 400" xmlns="http://www.w3.org/2000/svg"><g fill="#010100"><path d="m65.36 301.32c3.11-.14 4.4-.37 5.66-.22 7.96.92 15.89 2.21 23.87 2.82 6.9.52 9.5-1.95 10.06-8.93.54-6.75.95-13.53 1.01-20.3.14-17.6.05-35.19.05-52.68-3.33 2.88-7.4 6.07-11.08 9.64-8.18 7.94-16.31 15.94-24.18 24.19-7.52 7.88-24.46 5.34-28.55-4.71-.51-1.26.23-4.08 1.3-4.77 17.69-11.38 35.52-22.54 53.33-33.73 3.04-1.91 6.19-3.66 9.14-5.7.92-.64 1.39-1.95 2-3 .15-.25.02-.65.03-.99.33-16.6.67-33.2.99-49.81.02-1.29-.15-2.58-.23-3.87-9.31 1.91-18.31 4.54-27.48 5.39-7.41.68-14.87-1.42-21.3-5.71-2.65-1.76-1.68-3.91.63-4.68 5.05-1.69 10.28-2.9 15.46-4.19 8.21-2.05 16.36-4.65 24.7-5.78 6.49-.87 9.29-4.03 9.13-9.87-.41-14.36-.8-28.75-2.13-43.04-.41-4.39-3.99-8.43-5.74-12.79-.76-1.89-1.49-5.2-.57-6.05 1.69-1.56 4.91-2.88 6.99-2.34 8.91 2.3 17.57 5.61 23.82 12.78 1.47 1.68 1.99 4.97 1.64 7.32-1.72 11.6-3.91 23.14-5.88 34.71-.52 3.04-.85 6.12-1.37 9.97 4.34 0 8.16-.38 11.87.11 3.81.5 7.69 1.46 11.18 3.02 1.73.77 3.5 3.29 3.65 5.15.11 1.37-2.08 3.72-3.72 4.31-6.72 2.42-13.65 4.23-20.43 6.5-1.24.41-2.9 1.78-3.04 2.89-.64 4.89-1.03 9.84-1.1 14.78-.15 10.76-.05 21.53-.05 32.47 6.87-4.13 14.33-8.62 21.79-13.1.63.64 1.27 1.29 1.9 1.93-1.96 2.86-3.47 6.24-5.99 8.47-5.01 4.42-10.74 8.02-15.84 12.35-1.51 1.28-2.72 3.84-2.74 5.82-.2 18.83-.12 37.66-.12 56.5v37.75c.54.08 1.07.15 1.61.23 3.46-6.35 7.22-12.56 10.3-19.09 5.83-12.39 11.46-24.88 16.8-37.49 6.19-14.61 9.59-30.01 12.38-45.61 4.26-23.77 5.91-47.67 6.09-71.79.08-10.52-.06-20.82-3.23-30.89-.77-2.44-2.49-4.6-3.13-7.05-.48-1.87-.68-4.64.35-5.86 1.12-1.32 4.04-2.15 5.77-1.69 4.51 1.22 8.77 3.38 13.2 4.93 2.85 1 5.94 2.53 8.74 2.22 21.43-2.39 42.94-4.31 63.95-9.69 12.61-3.23 25.38-5.81 38.1-8.62 7.13-1.57 14.27-2.23 20.59 2.45 1.81 1.34 2.98 3.52 4.45 5.32-1.81 1.28-3.46 3.26-5.46 3.74-13.3 3.17-26.67 6.01-40.01 8.99-1.26.28-2.47.8-4.14 1.35 5.91 3.79 14.39 5.5 11.46 15.39 6.52-1.7 12.59-2.93 18.4-4.9 4.28-1.45 7.72-.17 11.06 1.91 5.11 3.19 10.38 6.29 14.95 10.16 4.33 3.67 3.54 7.74-1.05 11.03-2.87 2.05-5.77 4.12-8.31 6.56-2.58 2.48-4.72 5.41-6.76 7.8 2.7 3.24 5.12 6.14 7.53 9.03-.19.6-.39 1.2-.58 1.79-14.94 1.67-29.88 3.35-44.61 5 3.26 3.54 7.91 6.49 9.09 10.46 1.21 4.08-.98 9.17-1.86 14.95 14.81-6.76 29.4-11.85 38-27.3 5.12 2.6 10.21 4.96 15.04 7.77 1.65.96 2.66 3.05 3.96 4.62-1.57 1.28-2.93 3.11-4.73 3.76-15.57 5.66-30.51 13.16-47.01 16.22-2.13.4-5.27 2.04-5.67 3.67-.96 3.87.77 7.74 4.53 9.5 3.93 1.84 8.29 4.01 12.41 3.92 9.13-.21 18.26-1.53 27.33-2.84 5.96-.86 9.76-4.95 12.18-10.27 2.9-6.38 5.67-12.83 8.55-19.22.52-1.15 1.33-2.18 2.72-4.41 1.08 4.16 1.82 7.22 2.66 10.26 1.91 6.89 3.79 13.78 5.81 20.63 1.26 4.27.58 7.41-3.41 10.18-9.38 6.52-19.87 9.43-30.97 10.95-11.2 1.53-22.48 2.27-33.32-1.16-11.85-3.76-21.51-9.06-20.99-23.74.41-11.88-1.15-23.83-1.89-36.57-8.53 1.07-15.68 1.73-22.73 2.92-9.64 1.63-19.16 4.19-28.85 5.21-3.23.34-7.23-2.35-10.11-4.63-1.98-1.57-2.18-4.6 1.88-5.13 7.12-.94 14.21-2.21 21.36-2.82 4.06-.34 4.92-1.35 4.02-5.51-1.21-5.59-1.23-11.43-1.78-17.27-5.14 1.17-10.21 3.18-15.32 3.26-5.22.08-10.61-1.29-15.66-2.86-2.75-.86-2.46-3.63.34-4.63 3.03-1.08 6.3-1.59 9.5-2.02 6.33-.86 12.69-1.49 19.96-2.33-1.69-4.38-3.43-8.31-4.67-12.39-.58-1.9-.2-4.09-.26-6.15 2.11.07 4.41-.37 6.27.34 3.02 1.14 6.24 2.54 8.48 4.75 2.55 2.52 4.12 6.05 6.58 9.86 5.45-1.19 12.52-2.73 20.52-4.48-.63-6.39-1.27-12.83-1.96-19.77-7.31.78-13.8 1.37-20.25 2.2-6.48.84-12.91 2.17-19.41 2.83-6.4.65-12.86.75-19.3 1.07-.66.03-1.34.04-2-.01-8.17-.58-8.36-.61-9.41 7.38-.95 7.16-1.38 14.39-2.1 21.59-1.3 12.9-2.11 25.88-4.1 38.68-2.83 18.2-6.11 36.35-10 54.35-5.09 23.5-15.01 45.11-27.82 65.39-3.92 6.2-8.12 12.22-12.37 18.21-1.33 1.88-2.93 4.16-4.9 4.87-6.64 2.4-7.46 7.99-8.91 13.66-1.12 4.37-2.85 8.68-4.94 12.69-3.54 6.8-8.41 6.81-13.16.76-5.17-6.59-10.37-13.21-16.17-19.24-4.41-4.58-9.83-8.18-14.67-12.37-2.36-2.02-4.41-4.39-7.6-7.62zm205.79-153.82c4.82-1.02 9.3-1.77 13.65-2.95 4.56-1.24 10.22-.75 11.65-7.35.82-3.78 2.53-7.36 3.57-11.11 1.37-4.94-.34-6.81-5.67-6.18-4.54.54-9.09 1.15-13.52 2.22-1.45.35-3.25 1.99-3.69 3.41-2.18 7.12-3.96 14.37-5.99 21.96zm-29.38-17.04v23.34c6.26-1.39 12.7-2.81 18.93-4.19.86-8.06 1.67-15.68 2.53-23.74-7.41 1.59-14.06 3.01-21.46 4.59z"/><path d="m163.93 343.71c25.55-17.2 52.57-32.79 68.99-62.26-10.38 2.12-19.44 3.9-28.48 5.83-5.25 1.12-10.42 3.27-15.69 3.49-7.99.32-15.2-2.28-19.95-10.27 1.5-.82 2.91-2.13 4.49-2.37 14.06-2.15 28.15-4.12 42.23-6.11 9.72-1.37 19.46-2.61 29.15-4.15 1.23-.19 3.2-1.9 3.17-2.84-.42-11.69-1.13-23.37-1.8-35.05-.13-2.22-.39-4.44-.59-6.66 2.87.43 5.84.54 8.58 1.4 1.94.61 3.67 2.09 5.31 3.42 3.77 3.06 6.58 5.79 5.05 12-1.82 7.4-1.24 15.39-1.78 24.36 5.98-1.07 11.14-2.09 16.33-2.92 15.96-2.55 31.86-5.71 47.91-7.28 8.56-.83 16.5 3.49 23.04 9.24 4.03 3.54 3.11 6.94-1.87 8.52-1.38.44-2.83.88-4.25.93-11.26.4-22.54.56-33.79 1.07-14.44.66-28.88 1.59-43.31 2.4-.12.43-.23.86-.35 1.29 4.54 3.89 8.85 8.09 13.66 11.62 10.52 7.73 20.86 15.87 32.09 22.44 12.34 7.22 25.59 12.89 38.46 19.21 2.79 1.37 5.66 2.57 8.38 4.05.87.47 2.11 1.92 1.91 2.37-.43 1.01-1.57 2.17-2.6 2.38-7.51 1.52-15.03 3.04-22.61 4.13-5.04.72-10.18.92-15.28 1.03-6.99.14-12.34-2.59-16.69-8.47-5.56-7.52-12.16-14.26-18.1-21.52-7.36-8.99-14.5-18.15-22.19-27.82-.13 1.75-.32 3.07-.32 4.4-.02 19 .14 37.99-.14 56.99-.06 3.95-1.39 7.99-2.72 11.78-1.23 3.5-4.07 3.82-6.35.92-8.53-10.86-13.14-22.23-9.39-36.82 2.69-10.45 2.22-21.71 3.16-32.61-.4-.05-.79-.11-1.19-.16-5.25 6.39-10.18 13.09-15.86 19.06-5.09 5.35-10.91 10.03-16.59 14.79-12.26 10.26-26.74 16.03-42.01 19.98-2.43.63-5.16.09-7.75.09-.1-.65-.18-1.26-.26-1.88z"/><path d="m217.37 182.39c8.46-2.23 16.67-4.93 25.09-6.35 3.56-.6 7.8 1 11.29 2.57 2.21.99 2.25 3.97-.7 4.77-10.04 2.71-20.1 5.41-30.29 7.46-3.75.76-7.44.23-6.98 5.66.02.27-.48.58-.46.85.29 4.37.63 8.73.96 13.1 3.36-.81 6.78-1.42 10.06-2.47 6.97-2.23 13.85-4.74 20.82-7.01 1.97-.64 4.09-.84 6.65-1.35-2 6.47-7.92 7.35-11.95 10.31-13.13 9.69-26.59 18.94-39.77 28.57-3.98 2.91-6.96 1.13-10.22-4.79-4.06-7.34.06-12.17 4.07-17.07 7.31-8.93 8.62-18.74 5.12-29.45-1.32-4.02-2.89-7.97-4.03-12.03-.48-1.71-.8-4.78-.03-5.24 1.65-.96 4.75-1.57 6.04-.64 5.4 3.9 12.96 5.65 14.33 13.11z"/><path d="m224.66 38.88c11.93.72 23.54 3.3 34.03 9.57 4.29 2.56 7.04 15.09 4.76 19.54-1.99 3.87-5.55 3.96-8.76 2.11-4.06-2.34-7.81-5.25-11.56-8.09-5.32-4.04-10.72-8.02-15.7-12.46-2.8-2.51-4.7-5.92-2.77-10.67z"/><path d="m275.65 256.37c2.18-3.02 4.24-6.12 6.56-9.03 4.86-6.11 9.96-12.07 10.78-20.29.35-3.47 2.43-3.38 4.95-2.61 7 2.14 11.58 6.97 14.31 13.5.42 1-.85 3.61-2 4.23-8.74 4.68-17.61 9.12-26.52 13.45-2.18 1.06-4.7 1.41-7.07 2.09-.34-.45-.67-.89-1.01-1.34z"/><path d="m208.32 239.04c7.6 2.21 17.44 2.39 21.73 12.48.84 1.98 1.71 4.37 1.36 6.36-.78 4.48-3.95 6.06-8.35 4.11-8.49-3.76-14.36-10.5-19.07-18.26-2.09-3.46-.29-4.85 4.33-4.69z"/></g><path d="m5.17 384 .55-.58c.85.61 1.65 1.24 2.4 1.87l-.59.64c-.83-.73-1.62-1.37-2.36-1.93m1.22 9.53-.82-.34c.71-1.76 1.37-3.64 1.98-5.63.24.13.5.25.76.36-.6 1.67-1.24 3.54-1.92 5.61m-.5-13.5.57-.54c.56.44 1.31 1.06 2.26 1.87l-.64.64c-.68-.66-1.41-1.32-2.19-1.97m3.25.46h2.24v-1.36h.77v1.36h4.57v-1.36h.76v1.36h2.28v.69h-2.28v1.84h-2.64v1.26h4.18v2.64h-4.21c0 .45-.02.86-.05 1.21h4.32v.69h-4.38c-.04.34-.1.75-.19 1.22h5.15v.69h-4.82c.87 1.19 2.51 1.92 4.93 2.19-.17.31-.3.57-.37.76-2.77-.49-4.52-1.41-5.26-2.76-.56 1.26-2.3 2.23-5.24 2.9-.12-.24-.26-.48-.43-.72 2.73-.55 4.38-1.34 4.96-2.38h-4.38v-.69h4.65c.1-.38.17-.79.21-1.22h-4.32v-.69h4.4c.03-.34.05-.75.05-1.21h-4.2v-2.64h4.23v-1.26h-2.69v-1.84h-2.24zm1.46 4.46v1.29h3.45c.01-.4.02-.57.01-.53v-.32-.45h-3.46zm1.55-2.59h4.57v-1.19h-4.57zm6.11 2.59h-3.42v.77c-.01.19-.01.37-.02.53h3.44z" fill="#fbfafc"/><path d="m32.63 379.16h.82v1.98h3.54v7.89h1.45v.78h-14.36v-.78h1.46v-7.89h3.54v-1.98h.82v1.98h2.73zm-3.49 11.48.5.73c-1.61.82-3.28 1.63-5 2.41-.13-.27-.28-.55-.44-.82 1.75-.72 3.4-1.49 4.94-2.32m-2.78-5.55h2.73v-3.18h-2.73zm0 3.95h2.73v-3.2h-2.73zm3.54-3.95h2.73v-3.18h-2.73zm0 3.95h2.73v-3.2h-2.73zm7.89 4.68c-1.84-.92-3.51-1.7-5.02-2.32l.45-.73c1.89.8 3.57 1.55 5.04 2.23zm-1.62-11.81h-2.73v3.18h2.73zm-2.73 7.13h2.73v-3.2h-2.73z" fill="#fbfafc"/></svg>