<svg enable-background="new 0 0 400 400" viewBox="0 0 400 400" xmlns="http://www.w3.org/2000/svg"><path d="m5.17 384 .55-.58c.85.61 1.65 1.24 2.4 1.87l-.59.64c-.83-.73-1.62-1.38-2.36-1.93m1.22 9.53-.82-.34c.71-1.76 1.37-3.64 1.98-5.63.24.13.5.25.76.36-.6 1.67-1.24 3.54-1.92 5.61m-.5-13.5.57-.54c.56.44 1.31 1.06 2.26 1.87l-.64.64c-.68-.66-1.41-1.32-2.19-1.97m3.25.46h2.24v-1.36h.77v1.36h4.57v-1.36h.76v1.36h2.28v.69h-2.28v1.84h-2.64v1.26h4.18v2.64h-4.21c0 .45-.02.86-.05 1.21h4.32v.69h-4.38c-.04.34-.1.75-.19 1.22h5.15v.69h-4.82c.87 1.19 2.51 1.92 4.93 2.19-.17.31-.3.57-.37.76-2.77-.49-4.52-1.41-5.26-2.76-.56 1.26-2.3 2.23-5.24 2.9-.12-.24-.26-.48-.43-.72 2.73-.55 4.38-1.34 4.96-2.38h-4.38v-.69h4.65c.1-.38.17-.79.21-1.22h-4.32v-.69h4.4c.03-.34.05-.75.05-1.21h-4.2v-2.64h4.23v-1.26h-2.69v-1.84h-2.24zm1.46 4.46v1.29h3.45c.01-.4.02-.57.01-.53v-.32-.45h-3.46zm1.55-2.59h4.57v-1.19h-4.57zm6.11 2.59h-3.42v.77c-.01.19-.01.37-.02.53h3.44z" fill="#fafafa"/><path d="m32.63 379.16h.82v1.98h3.54v7.89h1.46v.78h-14.37v-.78h1.46v-7.89h3.54v-1.98h.82v1.98h2.73zm-3.49 11.48.5.73c-1.61.82-3.28 1.63-5 2.41-.13-.27-.28-.55-.44-.82 1.75-.72 3.4-1.49 4.94-2.32m-2.78-5.55h2.73v-3.18h-2.73zm0 3.95h2.73v-3.2h-2.73zm3.54-3.95h2.73v-3.18h-2.73zm0 3.95h2.73v-3.2h-2.73zm7.89 4.68c-1.84-.92-3.51-1.7-5.02-2.32l.45-.73c1.89.8 3.57 1.55 5.04 2.23zm-1.62-11.81h-2.73v3.18h2.73zm-2.73 7.13h2.73v-3.2h-2.73z" fill="#fafafa"/><g fill="#000001"><path d="m369.72 322.98c.9 4.5-1.72 6.28-4.51 7.28-9.01 3.25-18.05 6.49-27.24 9.17-10.92 3.19-22.08 5.58-33.02 8.71-7.7 2.21-14.14-.93-20.5-4.13-13.73-6.89-27.71-13.42-40.84-21.33-24.02-14.46-47.58-29.7-71.17-44.88-6.04-3.89-11.45-8.76-17.14-13.18-8.88 15.26-16.71 31.99-35.24 38.59-.55-.41-1.1-.82-1.65-1.22 2.8-4.43 5.8-8.74 8.35-13.3 4.9-8.79 10.36-17.4 14.04-26.7 2.94-7.43 3.87-15.73 5.07-23.74.52-3.47-.76-7.18-.71-10.77.01-1.16 1.5-3.18 2.52-3.32 7.83-1.06 14.27 2.65 20.21 7.03 1.2.88 1.69 4.26 1.02 5.87-2.5 5.98-5.61 11.71-8.62 17.78 8.21 5.33 16.51 10.71 25.38 16.46 0-9 .04-17.51-.03-26.01-.01-1.79-.48-3.57-.6-5.37-.7-10.53-1.35-21.05-2.02-31.58-.2-3.23-1.48-3.45-4.59-2.66-7.23 1.84-14.61 3.46-22.03 4.1-3.81.33-8.13-1.04-11.63-2.8-2.15-1.08-3.18-4.36-4.71-6.66 2-1.1 3.87-2.77 6.01-3.22 12.12-2.54 24.31-4.73 36.44-7.24 1-.21 2.38-1.94 2.4-2.99.17-11.15.11-22.29.11-33.44-9.27.32-18.81 7.37-27.97-2.87 4.63-1.99 8.52-3.74 12.48-5.32 3.63-1.44 7.25-3.04 11.03-3.91 3.02-.69 3.68-2.23 3.48-4.87-1.03-13.96-1.5-27.99-3.3-41.84-.68-5.21-4.63-9.94-6.69-15.05-.69-1.71-.93-4.71.06-5.74 1.46-1.53 4.19-2.43 6.41-2.5 2.5-.08 5.19.71 7.53 1.74 5.03 2.21 10.01 4.59 14.76 7.33 3.68 2.13 3.38 5.68 2.82 9.59-2.08 14.42-3.73 28.9-5.63 44 8.86-1.61 16.38-3.79 23.8-.08 1.15.57 2.55.89 3.39 1.76 1.45 1.51 2.55 3.36 3.8 5.07-1.68 1.07-3.24 2.64-5.08 3.11-7.41 1.91-14.93 3.35-22.33 5.27-1.36.35-3.36 2.05-3.38 3.16-.26 10.74-.15 21.49-.15 32.32 8.87-1.72 18.39-4.94 28.11-.98 1.94.79 3.77 1.86 5.64 2.8-.5.94-1.01 1.87-1.51 2.81-3.07 1.23-6.05 2.85-9.23 3.63-9.26 2.28-18.61 4.22-28.94 6.52 2.11 2.21 3.29 4.25 5.04 5.11 3.91 1.91 4.04 4.99 3.93 8.63-.2 6.14-.05 12.29-.05 17.65 6.05.43 11.68.76 17.3 1.28 1.24.12 2.68.64 3.56 1.47 1.26 1.18 3.19 3.22 2.84 4.15-.53 1.43-2.62 2.8-4.29 3.22-6.62 1.65-13.33 2.92-21.41 4.63 0 10.76-.09 21.66.11 32.55.03 1.4 1.26 3.38 2.5 4.07 20.69 11.54 41.92 21.99 64.49 29.33 14.62 4.75 29.5 8.52 45.1 8.59 10.43.04 20.87.46 31.29.99 8.32.42 16.66 1.26 25.19 1.93z"/><path d="m96.35 209.05c-6.54 11.1-12 21.48-18.51 31.15-10.96 16.26-23.38 31.4-37.57 45.01-.7.67-1.47 1.49-2.34 1.73-1.72.48-3.53.62-5.31.89.37-1.73.3-3.73 1.18-5.14 15.35-24.66 31.42-48.92 43.47-75.46 5.01-11.03 9.39-22.34 14.1-33.64-8.97 1.58-17.21 3.24-25.51 4.44-7.1 1.03-13.8-.97-20.06-4.2-1.23-.64-2.64-2.56-2.5-3.73.13-1.15 1.96-2.64 3.31-3.03 8.75-2.51 17.61-4.61 26.36-7.13 7.35-2.12 14.62-4.53 21.81-7.12 1.05-.38 2.13-2.44 2.14-3.73.14-19.16.81-38.36-.17-57.47-.62-11.96-3.65-23.76-10.37-34.3-1.57-2.46-2.19-8.43-1.01-9.17 2.8-1.74 7.77-2.84 10.41-1.44 8.18 4.31 15.88 9.66 23.3 15.22 1.58 1.18 1.97 5.13 1.55 7.57-1.95 11.54-5.09 22.91-6.44 34.51-1.5 12.93-1.52 26.04-2.17 39.07-.04.8.08 1.61.17 3 2.17-.25 4.08-.32 5.93-.7 6.4-1.32 12.43.11 18.1 2.82 1.65.79 3.68 3.3 3.5 4.76-.25 2-2.07 4.7-3.9 5.44-7.07 2.86-14.45 4.96-21.61 7.61-1.3.48-3.03 2.21-3.06 3.39-.23 11.64-.14 23.28-.14 35.26 7.24.96 14.62 1.23 20.11 6.43 2.31 2.18 4.64 4.91 5.54 7.82.7 2.29.07 6.38-1.54 7.61-1.87 1.43-5.86 1.58-8.22.59-4.57-1.93-8.64-5.03-12.91-7.66-1.08-.66-2.14-1.36-3.98-2.53v5.38c0 22.66.09 45.32-.05 67.98-.06 9.27-1.33 18.58-.75 27.78.57 8.93-.26 17.53-2.22 26.14-.14.63-.2 1.39-.59 1.84-2.88 3.25-5.57 8.69-8.83 9.07-4.33.5-6.55-5.05-7.61-9.42-2.06-8.5-4.99-17-5.47-25.62-.38-6.77 1.98-13.81 3.81-20.55 3.81-14.03 5.74-28.22 5.77-42.76.02-12.27.54-24.53.98-36.79.12-3.3.77-6.6 1.3-10.92z"/><path d="m298.24 243.02c-5.37 5.45-10.72 11.04-16.24 16.44-6.26 6.13-13.49 10.77-21.87 13.46-.78.25-1.71.05-2.57.06.28-.96.29-2.16.89-2.84 10.57-12.01 21.13-24.02 31.89-35.86 2.31-2.55 2.79-4.96 1.43-7.86-8.73-18.52-13.57-38.26-18.15-58.69-5.8.82-11.42 1.62-16.84 2.39v56.77c7.56-3.66 14.07-6.81 20.59-9.96.28.24.56.49.84.73-.98 1.52-1.8 3.17-2.95 4.53-9.56 11.3-19.21 22.52-28.77 33.81-3.03 3.58-5.96 3.64-8.96-.03-5.79-7.09-5.68-11.19.76-21.6 3.59-5.81 5.71-11.98 5.79-18.91.06-5.44.75-10.86.92-16.3.39-12.8-1.2-25.14-8.4-36.26-1-1.54-1.63-4.78-.78-5.69 1.12-1.2 4.03-1.51 5.89-1.06 3.74.9 7.28 2.61 10.94 3.9.79.28 1.76.43 2.55.23 4.26-1.05 8.48-2.32 12.75-3.33 2.97-.7 3.38-2.61 3.01-5.18-1.66-11.32-3.41-22.62-4.89-33.96-1.21-9.27-1.69-18.65-3.23-27.86-1.18-7.06-5.02-12.97-10.21-18.1-1.67-1.66-2.03-4.64-2.99-7.02 2.39-.95 4.73-2.54 7.18-2.74 7.56-.61 13.92 2.73 19.87 7.03 6.17 4.47 4.62 10.81 4.38 16.95-.46 11.93-1.28 23.88-.86 35.79.35 9.92 2.25 19.78 3.47 29.78 13.05-3.4 25.08-13.8 39.41-1.66-11.32 8.03-24.62 8.64-36.88 14.06 1.93 8.56 3.53 17.47 6.01 26.13 2.46 8.57 5.8 16.9 9.04 26.16 5.4-6.67 9.06-13.49 10.81-20.98 1.72-7.32 2.21-14.92 3.34-23.09 6.03-2.63 18.38 1.64 21.48 8.66.54 1.23-.07 3.41-.86 4.72-8.26 13.67-16.6 27.3-25.11 40.83-1.33 2.11-1.56 3.5.07 5.44 5.41 6.47 10.33 13.39 16.16 19.45 4.22 4.39 8.63 3.18 11.31-2.35 2.42-4.98 4.4-10.16 6.67-15.21.92-2.05 2.13-3.97 3.21-5.95.6-.04 1.2-.09 1.81-.13.63 3.1 1.53 6.18 1.84 9.32 1.42 14.39 2.84 28.78 3.86 43.2.2 2.8-.6 6.64-2.45 8.3-1.51 1.35-5.66 1-8-.03-11.35-5-21.68-11.51-29.19-21.8-5.81-7.88-11.84-15.6-17.97-23.69z"/><path d="m292.58 94c11.02-.07 21.63 1.9 31.5 7.07 4 2.09 8.04 13.11 6.7 17.44-1.52 4.9-5.61 6.61-11.13 3.5-5.21-2.93-9.81-6.95-14.66-10.52-2.49-1.83-5-3.66-7.39-5.62-3.48-2.86-7.23-5.66-5.02-11.87z"/></g></svg>