<svg enable-background="new 0 0 400 400" viewBox="0 0 400 400" xmlns="http://www.w3.org/2000/svg"><path d="m5.17 384 .55-.58c.85.61 1.65 1.24 2.4 1.87l-.59.64c-.83-.73-1.62-1.38-2.36-1.93m1.22 9.53-.82-.34c.71-1.76 1.37-3.64 1.98-5.63.24.13.5.25.76.36-.6 1.67-1.24 3.54-1.92 5.61m-.5-13.5.57-.54c.56.44 1.31 1.06 2.26 1.87l-.64.64c-.68-.66-1.41-1.32-2.19-1.97m3.25.46h2.24v-1.36h.77v1.36h4.57v-1.36h.76v1.36h2.28v.69h-2.28v1.84h-2.64v1.26h4.18v2.64h-4.21c0 .45-.02.86-.05 1.21h4.32v.69h-4.38c-.04.34-.1.75-.19 1.22h5.15v.69h-4.82c.87 1.19 2.51 1.92 4.93 2.19-.17.31-.3.57-.37.76-2.77-.49-4.52-1.41-5.26-2.76-.56 1.26-2.3 2.23-5.24 2.9-.12-.24-.26-.48-.43-.72 2.73-.55 4.38-1.34 4.96-2.38h-4.38v-.69h4.65c.1-.38.17-.79.21-1.22h-4.32v-.69h4.4c.03-.34.05-.75.05-1.21h-4.2v-2.64h4.23v-1.26h-2.69v-1.84h-2.24zm1.46 4.46v1.29h3.45c.01-.4.02-.57.01-.53v-.32-.45h-3.46zm1.55-2.59h4.57v-1.19h-4.57zm6.11 2.59h-3.42v.77c-.01.19-.01.37-.02.53h3.44z" fill="#fafafa"/><path d="m32.63 379.16h.82v1.98h3.54v7.89h1.46v.78h-14.37v-.78h1.46v-7.89h3.54v-1.98h.82v1.98h2.73zm-3.49 11.48.5.73c-1.61.82-3.28 1.63-5 2.41-.13-.27-.28-.55-.44-.82 1.75-.72 3.4-1.49 4.94-2.32m-2.78-5.55h2.73v-3.18h-2.73zm0 3.95h2.73v-3.2h-2.73zm3.54-3.95h2.73v-3.18h-2.73zm0 3.95h2.73v-3.2h-2.73zm7.89 4.68c-1.84-.92-3.51-1.7-5.02-2.32l.45-.73c1.89.8 3.57 1.55 5.04 2.23zm-1.62-11.81h-2.73v3.18h2.73zm-2.73 7.13h2.73v-3.2h-2.73z" fill="#fafafa"/><g fill="#000001"><path d="m104.26 157.78c-7.95 1.68-15.02 3.51-22.2 4.62-9.2 1.42-18.51 2.01-27.39-1.67-1.85-.77-3.1-2.96-4.63-4.5 1.67-1.1 3.21-2.75 5.04-3.19 9.01-2.17 18.13-3.87 27.13-6.04 9.01-2.17 17.97-4.59 26.87-7.2 1.23-.36 2.76-2.43 2.78-3.73.2-13.5.56-27.01-.01-40.49-.48-11.45-2.77-22.66-9.31-32.53-.81-1.22-1.63-2.56-1.91-3.96-.49-2.41-1.69-5.96-.58-7.13 2.19-2.31 5.58-4.41 9.29-2.18 6.81 4.1 13.85 7.91 20.29 12.53 7.81 5.6 6.99 5.77 4.6 15.52-2.71 11.06-4.49 22.38-6.14 33.66-1.02 6.97-1.03 14.1-1.43 20.25 6.72 1.18 12.51 2.18 18.28 3.23.78.14 1.72.32 2.24.83 1.66 1.67 4.16 3.39 4.37 5.3.14 1.32-2.75 3.53-4.7 4.38-4.15 1.82-8.51 3.24-12.9 4.41-8.23 2.21-8.44 2.08-8.88 10.49-.32 5.98-.21 12 .06 17.99.05 1.21 1.39 2.76 2.55 3.47 5.69 3.51 11.6 6.65 17.27 10.19 5.98 3.73 7.48 9.71 6.97 16.22-.34 4.31-6.29 6.65-9.45 3.53-5.44-5.37-10.36-11.27-15.49-16.96-.41-.45-.79-.93-1.84-2.16-.43 4.36-1.03 7.83-1.09 11.31-.41 25.43-.66 50.87-1.06 76.3-.24 15.44-.3 30.89-1.14 46.29-.41 7.46-2.03 15.08-8.42 20.22-3.87 3.11-6.57 2.83-8.62-1.71-4.86-10.77-9.2-21.99-7.57-34.05 1.22-8.99 4.23-17.73 5.97-26.67 1.59-8.17 3.05-16.42 3.67-24.71.83-11.06.77-22.19 1.13-33.29.31-9.77.6-19.54 1.04-29.3.12-2.71.75-5.4.24-8.42-3.08 6.06-6.04 12.18-9.28 18.15-4.81 8.86-9.15 18.09-14.9 26.31-8.62 12.32-18.19 23.99-27.58 35.76-3.71 4.64-7.92 8.89-12.15 13.08-.99.98-2.97.96-4.5 1.4.12-1.63-.33-3.61.44-4.85 7.45-12.08 15.4-23.85 22.64-36.05 15.84-26.68 30.25-54.09 40.3-84.65z"/><path d="m318.81 89.09c-5.16 7.34-12.11 7.4-18.09 8.72-23.07 5.07-46.22 9.82-69.44 14.11-9.65 1.78-19.55 2.29-29.36 3.01-5.63.42-6.52 1.07-6.93 7.02-.94 13.64-1.66 27.3-3.1 40.89-1.1 10.38-3.19 20.65-4.77 30.98-.22 1.45-.03 2.97-.03 4.39 5.61 3.53 11.32 2.33 16.77.3 9.11-3.4 17.95-7.51 27.1-10.78 2.92-1.04 6.66-1.09 9.66-.25 4.18 1.16 8.09 3.43 11.98 5.49 5.75 3.06 6.02 5.35 3.15 10.86-3.43 6.57-6.26 13.47-9.24 20.28-.57 1.3-.63 2.81-.87 3.98 1.96 2.02 3.87 3.98 6.72 6.91-6.4 1.54-11.38 2.81-16.39 3.94-9.21 2.08-18.44 4.02-27.62 6.21-.93.22-1.88 1.62-2.26 2.68-1.43 4.02-3.38 4.72-5.48.99-3.13-5.57-5.33-11.71-7.52-17.76-2.74-7.54-5.07-15.24-8.09-22.74-5.6 20.71-11.77 40.93-22.09 59.45-6.89 12.36-15.04 24.04-23.08 35.7-2.14 3.1-5.82 5.26-9.09 7.39-1.21.79-3.27.28-4.94.36.18-1.64-.11-3.56.63-4.89 4.62-8.25 10.1-16.09 14.12-24.61 7.37-15.61 15.03-31.24 20.49-47.56 4.82-14.41 6.86-29.77 10.02-44.73 4.21-19.94 5.95-40.15 4.78-60.45-.43-7.5-3.25-14.85-4.82-22.3-.56-2.67-1.72-7.27-.79-7.81 2.57-1.47 6.09-1.27 9.25-1.65.39-.05.89.39 1.26.69 9.72 7.94 20.55 4.51 31 2.63 15.86-2.85 31.67-6.08 47.39-9.65 9.98-2.27 19.69-5.67 29.63-8.15 7.13-1.77 14.51-3.63 21.57.29 2.91 1.66 5.53 3.94 8.48 6.06zm-112.74 147.57c8.65-3.16 16.26-5.9 23.84-8.76.8-.3 1.85-1.19 1.95-1.92.99-7.44 1.98-14.89 2.46-22.37.06-.97-2.96-3.24-4.2-3.01-9.36 1.78-18.63 4.04-28.39 6.25 1.49 10.2 2.87 19.7 4.34 29.81z"/><path d="m272.47 305.73c5.7 1.18 11.4 2.39 17.12 3.53 4.8.96 9.58 1.98 14.42 2.69 5.04.74 8-1.71 7.95-6.84-.22-19.93-.72-39.86-.93-59.8-.16-15.59-.03-31.18-.03-47.12-9.72 2.05-18.08 4.36-26.6 5.46-7.27.94-14.27-1.26-20.06-5.96-2.55-2.07-1.73-4.07 1.55-4.72 6.06-1.2 12.14-2.35 18.2-3.53 8.15-1.58 16.3-3.17 24.81-4.82.37-14.67.14-29.33-3.18-43.69-.83-3.59-4.36-6.47-6.06-9.96-1.19-2.44-2.68-5.99-1.75-7.94 1.75-3.65 6.12-3.91 9.67-2.65 6.27 2.22 12.46 4.77 18.42 7.72 5.3 2.62 6.31 6.65 5.37 12.32-2.11 12.75-3.74 25.59-5.61 38.77 7.85-1.2 14.36-3.12 20.78-2.89 4.94.18 9.85 2.93 14.61 4.9.95.39 2.04 3.13 1.63 3.63-1.36 1.66-3.2 3.61-5.15 4-8.32 1.67-16.74 2.81-25.12 4.19-1.75.29-3.46.82-5.88 1.41.76 13.52 1.53 27.02 2.28 40.53.38 6.93.56 13.88 1.12 20.79 1.21 14.91 3.15 29.78 3.78 44.71.71 16.91.99 34-8.72 49.14-2.56 3.99-5.67 4.83-9.25 1.57-3.9-3.55-6.61-8.38-10.39-12.09-7.71-7.58-15.79-14.79-23.73-22.13-3.4-3.14-6.86-6.22-10.29-9.33.35-.63.69-1.26 1.04-1.89z"/><path d="m237.24 290.99c8.18-.1 14.6-5.86 22.74-3.16-2.67 5.25-7.35 7.78-11.7 9.97-17.2 8.65-34.65 16.81-52.01 25.15-.29.14-.64.18-.92.33-3.96 2.14-7.9 6.68-12.43 4.38-6.46-3.29-12.41-7.83-17.98-12.54-2.96-2.51.28-9.66 3.88-8.8 7.34 1.74 13.9-.92 20.62-2.42 11.89-2.66 23.67-5.83 35.44-8.98 1.23-.33 2.79-1.74 3.07-2.92 2.8-11.68 5.44-23.4 7.9-35.15.34-1.62-.41-3.53-.9-5.24-1.08-3.77.94-4.62 4.07-4.6 5.16.02 14.97 6.62 16.66 11.5.37 1.06.12 2.69-.48 3.67-5.68 9.28-11.5 18.49-17.96 28.81z"/><path d="m214.68 171.13c-5.29-1.79-11.08-3.63-16.76-5.78-1.08-.41-1.71-2.01-2.54-3.06 1.03-.76 1.96-1.95 3.09-2.21 4.44-1 9.02-1.4 13.41-2.56 8.95-2.38 17.8-5.1 26.7-7.68 6.8-1.97 13.25-.88 19.27 2.6 1.34.77 3.11 2.69 2.92 3.76-.29 1.67-1.85 4.05-3.31 4.43-13.85 3.61-27.78 6.87-42.78 10.5z"/><path d="m297 256.4c0 1.86.29 2.97-.06 3.83-.9 2.19-1.62 5.45-3.26 6.09-1.93.75-5.65.02-7.06-1.5-7.81-8.43-15.29-17.18-22.52-26.11-1.16-1.43-.46-4.37-.62-6.61 1.79-.03 3.88-.69 5.33 0 7.47 3.58 15.04 7.08 22.03 11.48 4.6 2.89 7.19 7.73 6.16 12.82z"/><path d="m209.94 288.69c-1.8 2.36-3.22 5.36-5.59 6.79-1.09.66-4.91-1.19-6-2.87-5.32-8.19-10.22-16.67-15.02-25.18-.49-.87.33-2.9 1.13-3.93.44-.56 2.4-.63 3.18-.14 8.63 5.43 17.1 11.1 21.09 21.15.41 1.03.24 2.29.35 3.45.29.25.57.49.86.73z"/></g></svg>