<svg enable-background="new 0 0 400 400" viewBox="0 0 400 400" xmlns="http://www.w3.org/2000/svg"><path d="m5.17 384 .55-.58c.85.61 1.65 1.24 2.4 1.87l-.59.64c-.83-.73-1.62-1.38-2.36-1.93m1.22 9.53-.82-.34c.71-1.76 1.37-3.64 1.98-5.63.24.13.5.25.76.36-.6 1.67-1.24 3.54-1.92 5.61m-.5-13.5.57-.54c.56.44 1.31 1.06 2.26 1.87l-.64.64c-.68-.66-1.41-1.32-2.19-1.97m3.25.46h2.24v-1.36h.77v1.36h4.57v-1.36h.76v1.36h2.28v.69h-2.28v1.84h-2.64v1.26h4.18v2.64h-4.21c0 .45-.02.86-.05 1.21h4.32v.69h-4.38c-.04.34-.1.75-.19 1.22h5.15v.69h-4.82c.87 1.19 2.51 1.92 4.93 2.19-.17.31-.3.57-.37.76-2.77-.49-4.52-1.41-5.26-2.76-.56 1.26-2.3 2.23-5.24 2.9-.12-.24-.26-.48-.43-.72 2.73-.55 4.38-1.34 4.96-2.38h-4.38v-.69h4.65c.1-.38.17-.79.21-1.22h-4.32v-.69h4.4c.03-.34.05-.75.05-1.21h-4.2v-2.64h4.23v-1.26h-2.69v-1.84h-2.24zm1.46 4.46v1.29h3.45c.01-.4.02-.57.01-.53v-.32-.45h-3.46zm1.55-2.59h4.57v-1.19h-4.57zm6.11 2.59h-3.42v.77c-.01.19-.01.37-.02.53h3.44z" fill="#fafafa"/><path d="m32.63 379.16h.82v1.98h3.54v7.89h1.46v.78h-14.37v-.78h1.46v-7.89h3.54v-1.98h.82v1.98h2.73zm-3.49 11.48.5.73c-1.61.82-3.28 1.63-5 2.41-.13-.27-.28-.55-.44-.82 1.75-.72 3.4-1.49 4.94-2.32m-2.78-5.55h2.73v-3.18h-2.73zm0 3.95h2.73v-3.2h-2.73zm3.54-3.95h2.73v-3.18h-2.73zm0 3.95h2.73v-3.2h-2.73zm7.89 4.68c-1.84-.92-3.51-1.7-5.02-2.32l.45-.73c1.89.8 3.57 1.55 5.04 2.23zm-1.62-11.81h-2.73v3.18h2.73zm-2.73 7.13h2.73v-3.2h-2.73z" fill="#fafafa"/><g fill="#000001"><path d="m125.62 135.48c7.17-1.3 13.2-3.15 19.26-3.24 4.69-.07 9.57 1.65 14.03 3.43 2.01.8 4.5 3.76 4.39 5.6-.11 1.92-2.75 4.6-4.86 5.35-8.72 3.12-17.57 5.98-26.55 8.25-5.03 1.27-7.28 2.97-7.07 8.77.53 14.41.17 28.85.17 43.45 9.94 1.19 20.37 3.75 28.71 11.34 2.77 2.52 6.16 10.39 3.59 14.08-2.24 3.2-4.79 4.72-8.15 2.45-5.81-3.92-11.49-8.07-16.99-12.42-2.69-2.12-4.85-4.91-7.84-8.01-.56 3.01-1.23 5.01-1.26 7.02-.4 31.26-.59 62.52-1.12 93.77-.15 8.7-.57 17.51-2.18 26.02-.95 5.02-4.26 9.67-6.93 14.24-2.23 3.82-7.06 3.7-9.48-1.15-2.66-5.34-4.39-11.17-6.3-16.86-5.36-15.99 1.14-30.92 4.17-46.19 1.65-8.32 3.08-16.75 3.68-25.19.83-11.73.7-23.52 1.16-35.28.31-8.04.92-16.07 1.39-24.1-.43-.14-.87-.27-1.3-.41-3.22 4.56-6.48 9.1-9.67 13.69-12.42 17.85-27.27 33.47-43.69 47.66-4.73 4.09-9.32 8.37-14.31 12.1-2.12 1.59-5.12 2.01-7.72 2.96-.49-.71-.98-1.41-1.47-2.12 3.16-3.98 6.31-7.98 9.5-11.95 8.73-10.86 17.95-21.37 26.08-32.65 10.39-14.41 20.25-29.22 29.66-44.29 5.66-9.07 10.02-18.95 15.55-29.6-11.19 2.61-21 5.08-30.89 7.16-10.77 2.26-21.39 2.18-31.14-3.89-1.22-.76-1.99-2.24-2.97-3.38 1.22-.99 2.3-2.52 3.68-2.89 8.33-2.21 16.75-4.05 25.09-6.23 11.17-2.92 22.32-5.95 33.39-9.2 1.2-.35 2.64-2.51 2.66-3.84.18-16.99.57-34-.04-50.98-.4-11.12-3.11-21.91-9.55-31.43-1.44-2.13-2.66-4.62-3.17-7.11-1.28-6.17 4.95-10.37 11.6-6.87 8.33 4.39 16.21 9.8 23.64 15.6 3.87 3.02 3.23 8.36 2.08 12.93-3.76 14.92-7.38 29.83-7.51 45.37-.06 6.09-.87 12.15-1.32 18.04z"/><path d="m197.07 260.93c14.73-4.3 24.74-2.98 27.06 4.03-9.56 1.5-18.99 2.99-29.02 4.57-.46 5.49-.94 11.31-1.47 17.73 11.73-3.39 22.76-7.99 33.26-.09.07.75.15 1.5.22 2.24-5.44.86-10.87 1.8-16.33 2.56-5.68.79-11.38 1.4-17.29 2.11-1.16 7.41-1.78 14.92-3.65 22.11-1.27 4.89-4.03 9.47-6.68 13.86-.82 1.36-4.55 2.71-5.07 2.19-2.4-2.4-5.4-5.3-5.79-8.33-.54-4.18.67-8.75 1.82-12.97 3.67-13.47 8.61-26.67 11.25-40.32 2.21-11.44 1.37-23.3-3.68-34.35-.82-1.81-1.38-3.74-2.47-6.78 3.65.61 6.23.52 8.34 1.48 7.19 3.28 14.04 1.22 20.91-.83 4.05-1.21 8.2-2.29 12.03-4.04 6.59-3.02 12.63-1.96 18.6 1.45.85.49 1.73.94 2.61 1.38 9.34 4.65 9.06 4.57 6.32 14.3-1.58 5.61-2.83 11.51-2.88 17.29-.12 14.92.46 29.85.88 44.78.15 5.27.68 10.53.96 15.8.5 9.35-4.68 15.94-11.23 21.43-4.62 3.87-8.96.43-12.17-2.67-6.15-5.96-11.73-12.51-18.39-19.74 4.2.37 7.47.42 10.65.97 11.31 1.94 13.86.51 14.04-10.56.38-22.65.31-45.31 0-67.96-.1-7.16-2.31-8.36-9.84-7.05-4.96.86-9.8 2.96-14.75 3.16-4.96.19-6.51 2.42-7 6.64-.3 2.59-.97 5.15-1.19 7.74-.22 2.47-.05 4.97-.05 7.87z"/><path d="m278.4 325.9c4.64.74 9.28 1.49 13.92 2.21 3.85.6 7.74 1.72 11.55 1.49 1.78-.11 3.45-2.81 5.08-4.42.25-.25.05-.96.05-1.46.33-29.57.71-59.13.97-88.7.06-7.14-3-13.19-7.15-18.87-1.07-1.47-.99-3.78-1.44-5.71 1.82-.34 3.84-1.36 5.44-.91 6.85 1.91 13.6 4.16 20.33 6.47 3.6 1.23 5.58 3.01 4.13 7.71-6.71 21.82-5.66 44.38-5.14 66.78.31 13.47 2.16 26.9 2.76 40.37.35 7.9-1.63 15.58-5.73 22.47-1.23 2.06-2.91 4.07-4.85 5.44-2.58 1.82-5.36 2.05-7.9-.8-4.9-5.48-9.83-10.95-15.11-16.04-3.76-3.62-8.14-6.6-12.19-9.92-1.85-1.52-3.59-3.18-5.37-4.78.21-.44.43-.89.65-1.33z"/><path d="m299.13 84.97c-9.95 16.77-18.99 33.9-40.14 41.56 1.6-3.69 2.26-6.58 3.88-8.75 8.83-11.8 16.21-24.36 20.38-38.55 2.14-7.27 4.48-14.56 2.9-22.45-.64-3.21-.64-6.76.08-9.92.35-1.55 3.52-3.99 4.55-3.62 6.98 2.51 13.83 5.45 20.51 8.69 3.22 1.56 3.26 4.45 1.55 7.61-3.57 6.61-6.91 13.35-10.77 20.88 11.64-2.91 22.75-5.6 33.8-8.49 6.6-1.73 13.01-4.6 19.7-5.42 4.55-.56 9.51 1.26 14.11 2.61 1.4.41 3.19 2.89 3.03 4.22-.15 1.34-2.32 3.08-3.92 3.51-9.58 2.57-19.25 4.8-28.89 7.16-7.74 1.89-15.42 4.1-23.24 5.58-6.15 1.15-11.87-.95-17.53-4.62z"/><path d="m334.9 198c-12.09 0-24.23-.7-36.26.16-19.62 1.41-39.24 3.37-58.74 6-15 2.02-29.84 5.28-44.68 8.3-7.47 1.52-14.48.96-21-2.96-1.42-.85-2.12-2.91-3.15-4.42 1.47-.7 2.89-1.79 4.43-2.02 9.86-1.49 19.76-2.71 29.63-4.17 10.49-1.55 20.96-3.28 31.45-4.89 15.17-2.33 30.33-4.74 45.52-6.91 12.96-1.85 26.03-2.98 38.91-5.24 10.87-1.91 20.23 1.54 29.54 6.09 1.29.63 2.64 1.53 3.44 2.68 1.67 2.4 1.88 4.87-1.84 5.32-5.71.69-11.47 1.03-17.2 1.52-.03.18-.04.36-.05.54z"/><path d="m219.13 87.9c13.01-2.93 25.66-5.76 38.31-8.64 5.48-1.25 11.93 1.24 17 7.09-1.56 1.22-2.92 3.02-4.65 3.52-15.1 4.35-30.44 8.55-46.19 7.77-7.64-.38-10.65 1.82-13.8 8.24-6.73 13.71-16.77 25.05-28.77 34.55-1.7 1.35-3.97 1.97-6.47 3.17-1.44-5.51 2.08-8.77 4.36-11.76 10.86-14.25 18.93-29.75 21.72-47.51.91-5.76.33-11.92-.53-17.76-1-6.86 1.8-10.24 8.41-8.21 4.79 1.47 9.48 3.5 13.88 5.89 5.34 2.91 5.71 5.3 2.87 11.07-2.01 4.07-3.98 8.16-6.14 12.58z"/><path d="m260.66 182.73c3.46-4.09 6.96-8.14 10.37-12.27 5.93-7.19 11.89-14.36 17.61-21.72 1.15-1.48 1.9-3.78 1.8-5.64-.25-4.34 1.03-6.57 5.12-6.01 8.84 1.23 16.92 4.44 23.68 10.58 3.01 2.73 1.74 4.7-.92 6.22-10.74 6.12-21.56 12.1-32.36 18.12-6.25 3.49-12.49 7-18.81 10.37-1.73.92-3.71 1.36-5.58 2.02-.31-.55-.61-1.11-.91-1.67z"/><path d="m284.7 248.48c-.9 15.09-1.63 30.19-2.83 45.25-.31 3.83-1.16 8.47-6.25 9.14-2.83.38-7.61-6.31-7.56-10.46.07-5.42.76-10.84.89-16.26.27-11.18.32-22.35-2.99-33.25-1.42-4.68.12-6.86 4.62-5.72 4.47 1.14 8.72 3.51 12.72 5.92 1.3.78 1.48 3.41 2.18 5.19-.25.07-.51.13-.78.19z"/><path d="m341.85 130.91c-1.17 2.1-1.92 5.48-3.59 6.02-2.52.81-6.38.63-8.45-.84-8.12-5.76-15.83-12.12-23.54-18.44-1.43-1.17-2.63-3.09-3.04-4.87-.24-1.03 1.17-3.46 2.07-3.58 10.26-1.4 20.04.71 28.93 5.75 4.78 2.71 6.76 8.66 7.62 15.96z"/><path d="m203.24 150.4c8.1 2.81 16.57 5.46 24.82 8.7 6.6 2.59 9.87 7.57 9.01 15.05-.6 5.15-3.62 7.24-8.44 4.99-9.57-4.47-16.75-12-24.26-19.15-2.89-2.73-4.25-5.21-1.13-9.59z"/><path d="m209.45 118.09c10.99-.4 20.15 2.25 28.28 8.27 2.03 1.51 3.36 12.75 1.67 14.52-.82.86-2.5 1.45-3.67 1.29-2.03-.28-4.38-.75-5.88-2-6.31-5.26-12.46-10.73-18.42-16.39-1.18-1.11-1.23-3.39-1.98-5.69z"/></g></svg>