<svg enable-background="new 0 0 400 400" viewBox="0 0 400 400" xmlns="http://www.w3.org/2000/svg"><path d="m5.17 384 .55-.58c.85.61 1.65 1.24 2.4 1.87l-.59.64c-.83-.73-1.62-1.38-2.36-1.93m1.22 9.53-.82-.34c.71-1.76 1.37-3.64 1.98-5.63.24.13.5.25.76.36-.6 1.67-1.24 3.54-1.92 5.61m-.5-13.5.57-.54c.56.44 1.31 1.06 2.26 1.87l-.64.64c-.68-.66-1.41-1.32-2.19-1.97m3.25.46h2.24v-1.36h.77v1.36h4.57v-1.36h.76v1.36h2.28v.69h-2.28v1.84h-2.64v1.26h4.18v2.64h-4.21c0 .45-.02.86-.05 1.21h4.32v.69h-4.38c-.04.34-.1.75-.19 1.22h5.15v.69h-4.82c.87 1.19 2.51 1.92 4.93 2.19-.17.31-.3.57-.37.76-2.77-.49-4.52-1.41-5.26-2.76-.56 1.26-2.3 2.23-5.24 2.9-.12-.24-.26-.48-.43-.72 2.73-.55 4.38-1.34 4.96-2.38h-4.38v-.69h4.65c.1-.38.17-.79.21-1.22h-4.32v-.69h4.4c.03-.34.05-.75.05-1.21h-4.2v-2.64h4.23v-1.26h-2.69v-1.84h-2.24zm1.46 4.46v1.29h3.45c.01-.4.02-.57.01-.53v-.32-.45h-3.46zm1.55-2.59h4.57v-1.19h-4.57zm6.11 2.59h-3.42v.77c-.01.19-.01.37-.02.53h3.44z" fill="#fafafa"/><path d="m32.63 379.16h.82v1.98h3.54v7.89h1.46v.78h-14.37v-.78h1.46v-7.89h3.54v-1.98h.82v1.98h2.73zm-3.49 11.48.5.73c-1.61.82-3.28 1.63-5 2.41-.13-.27-.28-.55-.44-.82 1.75-.72 3.4-1.49 4.94-2.32m-2.78-5.55h2.73v-3.18h-2.73zm0 3.95h2.73v-3.2h-2.73zm3.54-3.95h2.73v-3.18h-2.73zm0 3.95h2.73v-3.2h-2.73zm7.89 4.68c-1.84-.92-3.51-1.7-5.02-2.32l.45-.73c1.89.8 3.57 1.55 5.04 2.23zm-1.62-11.81h-2.73v3.18h2.73zm-2.73 7.13h2.73v-3.2h-2.73z" fill="#fafafa"/><g fill="#000001"><path d="m228.14 300.78c7.54 2.72 15.08 5.42 22.6 8.18 3.21 1.18 6.36 3.41 9.56 3.45 3.03.04 7.01-1.34 8.99-3.52 11.47-12.66 18.9-27.68 23.62-44 5.15-17.8 10.56-35.56 14.73-53.6 3.2-13.84 3.67-28.16 1.12-42.26-.41-2.25-3.81-5.71-5.75-5.66-12.54.31-25.05 1.43-37.58 2.29.04.49.07.98.11 1.47 3.22 1.98 6.51 3.86 9.66 5.95 4.19 2.77 4.71 6.56 2.33 11.02-5.32 9.95-10.23 20.11-15.6 30.03-11.34 20.97-22.76 41.97-37.53 60.75-12.58 15.99-26.67 30.7-43.45 42.41-4.81 3.35-9.89 7.55-17.44 6.31 3.46-4.05 6.37-7.77 9.61-11.17 17.49-18.36 34.32-37.35 48.13-58.59 7.77-11.94 13.72-25.17 19.54-38.24 3.74-8.4 6.23-17.46 8.38-26.43 1.21-5.04.76-10.53.7-15.81-.03-2.42-1.66-3.89-4.34-3.33-12.38 2.58-24.76 5.2-36.81 7.73 3.01 4.9 6.19 9.26 8.39 14.06.87 1.91.36 5.35-.87 7.19-7.87 11.81-15.76 23.65-24.34 34.96-10.67 14.06-21.94 27.7-38.3 35.7-2.68 1.31-5.76 1.78-8.66 2.64-.31-.6-.63-1.21-.94-1.81 1.48-1.82 2.89-3.7 4.46-5.44 14.68-16.19 28.18-33.21 37.95-52.92 4.35-8.78 7.75-22.44 7.46-30.54-4.82 1.15-9.55 2.42-14.35 3.37-6.83 1.36-9.5-1.96-9.22-8.92.25-6.37 4.58-9.31 8.24-13.09 9.64-9.95 19.66-19.57 28.76-30 9.25-10.6 17.78-21.86 26.22-33.13 4.74-6.33 8.67-13.26 12.96-19.92-.43-.61-.87-1.21-1.3-1.82-9.53 2.02-19.08 3.91-28.57 6.1-10.46 2.41-20.83 5.17-31.27 7.65-5.95 1.41-18.27-5.65-20.13-11.64-1.11-3.57.85-5.09 4.37-5.24 5.27-.23 10.63-.14 15.79-1.07 14.74-2.65 29.42-5.65 44.08-8.71 6.68-1.39 13.21-3.57 19.93-4.73 2.65-.46 5.71.63 8.43 1.5 7.81 2.5 13.86 7.61 19.39 13.5 3.05 3.25 1.77 5.57-1.31 7.53-4.79 3.05-10.3 5.27-14.38 9.06-10.5 9.71-20.6 19.9-30.45 30.27-6.67 7.03-12.85 14.56-18.9 22.14-5.64 7.07-10.81 14.52-16.18 21.81.44.6.88 1.2 1.32 1.8 2.08-.35 4.16-.73 6.24-1.05 21.63-3.36 43.29-6.55 64.89-10.12 12.06-1.99 23.97-4.86 36.02-6.87 10.52-1.75 19.74 2.06 28.18 8.06 1.74 1.23 3.47 2.51 4.99 3.99 2.87 2.81 3.68 6.27.55 9.1-6.01 5.45-6.69 12.86-8.07 19.99-3.55 18.42-6.34 37-10.45 55.28-3.42 15.21-7.91 30.21-12.59 45.09-4.42 14.06-12.73 26.11-22.36 37.03-5.24 5.94-11.79 10.72-17.75 16.03-2.9 2.58-5.64 1.87-7.64-.94-4.14-5.85-7.69-12.14-12.06-17.82-4.52-5.86-9.73-11.19-14.6-16.78-1.88-2.16-3.66-4.41-5.49-6.62.3-.52.64-1.08.98-1.65z"/><path d="m134.23 190.05c-.61 2.37-1.01 4.82-1.87 7.1-6.21 16.27-12.64 32.45-18.76 48.75-5.89 15.69-11.89 31.36-17.06 47.29-3.25 10.02-5.01 20.51-7.62 30.75-.45 1.77-1.55 4.45-2.76 4.7-1.96.4-4.56-.39-6.37-1.52-9.26-5.74-12.45-15.27-15.97-24.93-3.41-9.34-1.21-15.79 6.68-21.29 7.58-5.29 11.6-13.55 16.15-21.22 9.82-16.56 19.33-33.3 29.11-49.87 3.06-5.19 6.44-10.22 10.01-15.07 1.71-2.32 4.21-4.06 6.35-6.06.71.46 1.41.92 2.11 1.37z"/><path d="m100.95 55.93c5.61 1.9 13.31 4.02 20.59 7.11 5.62 2.38 11.24 5.35 15.93 9.19 6.26 5.13 8.01 17.65 4.64 25.3-2.16 4.89-6.56 5.98-12.16 2.79-1.83-1.04-3.48-2.47-5.01-3.93-8.76-8.35-17.53-16.7-26.15-25.21-1.94-1.92-3.57-4.29-4.86-6.72-2.41-4.51-.13-8.25 7.02-8.53z"/><path d="m112 162.2c-.02 8.65-5.27 14.85-11.49 12.55-4.57-1.69-8.92-4.9-12.42-8.38-7.36-7.31-14.25-15.12-21.05-22.97-3.89-4.49-2.37-11.86 2.24-12.27 2.04-.18 4.3.22 6.23.96 11.25 4.29 23.3 7.37 31.24 17.36 2.8 3.53 4.36 8.04 6.49 12.1-.41.22-.83.43-1.24.65z"/></g></svg>