<svg enable-background="new 0 0 400 400" viewBox="0 0 400 400" xmlns="http://www.w3.org/2000/svg"><g fill="#010100"><path d="m310 282.43c0 10.64.38 20.97-.09 31.27-.63 13.65-1.7 27.28-3.08 40.87-.4 3.92-2.28 7.79-3.97 11.45-.62 1.33-2.91 2.99-4.01 2.73-1.48-.36-3.32-2.27-3.64-3.8-1.06-5.11-2.04-10.34-2.1-15.53-.24-18.66-.14-37.32-.05-55.98.01-3.03.62-6.05.97-9.19-23.09 2.54-45.23 6.93-67.03 13.2-11.14 3.21-18.68 1.23-25.48-8.07 10.98-4.94 22.96-4.4 34.49-7.8 0-5.07 0-10.37 0-15.66 0-13 .36-26.01-.13-38.98-.33-8.64-1.65-17.28-3.04-25.83-.3-1.87-2.54-3.73-4.31-5.01-3.18-2.31-6.68-4.18-9.81-7.16 12.74-4.85 25.89-4.28 37.41-6.15-1.35-11.98-2.72-24.12-4.15-36.8-4.37.33-9.29.38-14.1 1.11-11.61 1.78-23.25 3.5-34.73 5.94-14.32 3.04-28.55 6.51-42.69 10.32-8.16 2.2-14.07-1.58-19.57-6.26-2.19-1.86-1.41-4.51 2.23-5.1 9.82-1.59 19.62-3.32 29.43-4.96 4.98-.83 9.97-1.59 15.66-2.49-1.41-27.72-1.15-55.56-5.13-83.56-10.04 1.01-17.21-2.77-23.07-11.55 4.29-.91 7.65-1.88 11.07-2.3 12.04-1.47 24.14-2.56 36.16-4.16 12.79-1.7 25.51-4 38.3-5.68 12.51-1.65 25.07-2.92 37.62-4.23 5.93-.62 10.13 3.23 14.48 6.33.89.64 1.43 2.81 1.05 3.91-.39 1.14-2.01 2.44-3.23 2.61-6.67.89-13.38 1.43-20.07 2.15-2.92.31-5.83.75-9.45 1.23 1.23.93 1.99 1.62 2.85 2.13 4.91 2.94 4.56 7.68 4.09 12.33-.47 4.55-1.6 9.05-1.84 13.61-.83 15.69-1.41 31.39-2.06 47.09-.07 1.65-.01 3.31-.01 5.43 7.83-1.8 15.27-3.95 22.85-5.15 12.96-2.06 25.26-.49 35.31 9.05 2.92 2.77 2.13 5.37-1.87 6.21-4.3.9-8.67 1.73-13.05 1.99-9.42.56-18.87.64-28.29 1.11-4.76.24-9.49.88-14.43 1.36-1.88 12.38-3.79 24.93-5.66 37.27 6.04-1.07 13.26-2.18 20.41-3.66 10.03-2.08 19.94-4.89 30.04-6.51 7.25-1.17 14.94-2.45 21.3 3.53 3.3 3.1 3 6.59-1.42 7.8-6.26 1.72-12.69 2.84-19.06 4.16-2.65.55-5.32.94-7.86 1.38-.07.52-.14.8-.1.82 8.73 4.03 9.67 10.62 8.06 19.5-2.01 11.11-2.32 22.54-3.21 33.84-.61 7.7-.95 15.42-1.45 23.67 11.77-3.58 22.78-5.07 33.69-1.1 4.21 1.53 8.28 3.93 11.81 6.7 3.45 2.7 2.49 5.66-1.77 7.19-1.21.44-2.49.9-3.75.96-8.6.41-17.2.62-25.79 1.08-4.71.2-9.43.83-14.73 1.34zm-107.23-188.26v19.81c6.01-1.83 12.17-3.82 18.38-5.56 6.8-1.91 13.62-2.06 19.89 1.7 1.65.99 2.62 3.11 3.9 4.71-1.53 1.05-2.95 2.78-4.6 3.04-12.59 1.95-25.22 3.62-38.09 5.41v18.49c.8.08 1.46.3 2.06.19 14.27-2.61 28.47-5.76 42.83-7.64 5.4-.71 5.97-2.58 5.92-7.06-.19-18.82.17-37.65-.24-56.47-.12-5.57-2-11.13-3.31-16.64-.61-2.57-2.34-3.49-5.24-2.95-6.25 1.17-12.6 1.83-18.89 2.81-9.09 1.42-18.17 2.95-28.38 4.61 7.02 3.94 7.64 9.53 6.84 15.69-.45 3.45-.72 6.93-1.1 10.75 5.33-2.07 9.61-4.14 14.11-5.39 7.85-2.18 15.9-4.66 23.85-.64 2.3 1.17 3.99 3.55 5.96 5.38-2.34 1.19-4.56 3.01-7.04 3.47-11.99 2.26-24.07 4.15-36.85 6.29zm47.98 154.21c3.43-1.49 7.21-3.46 11.21-4.79 7.57-2.53 15.18-2.72 22.26 1.57 1.3.79 2.31 2.75 2.54 4.3.1.67-2.01 2.2-3.3 2.47-10.97 2.32-21.99 4.44-33.14 6.65-.41 6.66-.83 13.44-1.29 20.84 15.52-3.28 30.24-6.4 45.15-9.55.07-26.87 4.75-53.34-5.56-78.87-13.41 2.12-26.43 4.19-38.37 6.08.85 7.76 1.66 15.21 2.53 23.17 7.73-5.85 16.39-6.45 25.17-4.07 2.62.71 4.68 3.47 7 5.3-1.59 1.14-3.04 2.94-4.79 3.31-9.54 2.03-19.16 3.71-29.42 5.64.01 5.87.01 11.74.01 17.95z"/><path d="m186.96 192c9.29 3.62 10.4 9.92 9.45 19.27-1.75 17.12-1.07 34.49-1.38 51.75-.01.6.25 1.21.37 1.75 3.08-.33 5.95-.63 8.83-.93.37.49.74.98 1.11 1.48-1.67 1.27-3.18 2.89-5.03 3.75-4.89 2.28-5.53 6.17-5.39 11 .28 10.16-.04 20.33.13 30.49.12 7.6 1.07 15.22.8 22.79-.17 4.95-1.39 10-3 14.72-1.63 4.78-3.76 5.08-6.88 1.3-5.29-6.41-9.31-13.51-8.94-22.22.6-14.2 1.31-28.39 2.02-42.59.05-.93.49-1.84 1.26-4.53-16 8.01-30.93 15.34-45.7 22.97-4.91 2.54-9.22 6.27-14.2 8.61-2.25 1.06-5.77.81-8.19-.17-3.89-1.56-7.64-3.85-10.86-6.53-1.99-1.66-3.65-4.55-3.94-7.06-.12-1.06 3.51-3.18 5.71-3.76 8.65-2.29 17.45-4.02 26.09-6.35 1.22-.33 2.58-2.79 2.65-4.32.3-6.32 0-12.66.16-18.99.19-7.27 1.17-14.56.85-21.79-.57-12.65-1.83-25.27-2.93-37.88-.31-3.6-2.82-5.2-6.2-4.7-5.61.84-10.25-1.72-15-3.84-1.12-.5-1.81-1.97-2.69-3 1.1-.74 2.13-1.97 3.32-2.16 9.36-1.47 18.77-2.62 28.13-4.09 13.22-2.08 26.4-4.35 39.6-6.53 6.92-1.15 13.82-2.58 20.78-3.3 2.57-.26 5.51.76 7.91 1.95 1.71.85 2.8 2.95 4.17 4.49-1.65 1.45-3.08 3.7-4.98 4.21-5.49 1.46-11.16 2.22-16.76 3.28-.23.05-.43.31-1.27.93zm-40.87 31.59c3.74-1.21 7.07-2.69 10.56-3.33 5.39-.99 11-2.13 15.86 1.8 1.01.82 2.55 2.52 2.29 3.07-.57 1.2-2.03 2.46-3.33 2.75-6.99 1.53-14.07 2.68-21.07 4.18-1.54.33-4.01 1.39-4.16 2.38-.83 5.71-1.09 11.5-1.61 18.14 3.31-1.62 5.28-2.82 7.41-3.56 6.44-2.26 13.01-3.37 19.38.04 1.48.79 2.36 2.7 3.51 4.09-1.63.94-3.15 2.36-4.9 2.75-6.99 1.56-14.07 2.71-21.07 4.22-2.11.45-4.11 1.13-4.16 4.3-.08 6.06-.74 12.12-1.2 18.82 11.32-3.74 21.75-7.31 32.28-10.59 3.76-1.17 5.24-3.37 5.16-7.15-.38-17.25-.55-34.51-1.1-51.75-.19-5.87-1.18-11.73-2.02-17.57-.34-2.36-1.63-3.64-4.5-3.01-5.25 1.15-10.58 1.9-15.87 2.82-5.07.88-10.14 1.78-16.2 2.84 9.68 7.22 4.28 16.25 4.74 24.76z"/><path d="m44.39 289.68c1.08-1.83 1.83-4.85 3.72-6.02 11.66-7.16 18.91-18.29 26.96-28.77 10.27-13.38 20.77-26.59 31.39-39.68 1.59-1.96 2.21-6.75 6.14-4.47.93.54-.01 5.59-1.13 8.12-5.52 12.54-11.67 24.81-17.06 37.4-8.4 19.6-16.38 39.37-24.48 59.1-.85 2.08-1.19 4.36-1.88 6.52-1.48 4.65-4.21 5.41-8.23 2.41-5.54-4.13-9.36-9.5-11.16-16.13-1.57-5.8-2.72-11.72-4.27-18.48z"/><path d="m119 98.79c-.45 2.11-.46 4.92-1.62 7.14-3.55 6.81-8.69 6.21-15.17.47-6.72-5.97-12.21-13.35-18.14-20.19-2.78-3.21-5.64-6.43-7.84-10.02-1.07-1.75-1.2-4.46-.82-6.56.19-1.04 2.75-2.66 3.81-2.38 12.16 3.2 24.08 7.04 33.94 15.36 3.83 3.23 5.68 8.15 5.84 16.18z"/><path d="m52.8 139.82c8.42 3.73 17.02 7.12 25.22 11.3 7.24 3.69 12.27 9.64 14.44 17.76 1.32 4.95-1.25 12.72-5.65 14.57-1.66.69-4.64.44-5.97-.65-7-5.76-13.91-11.67-20.34-18.04-3.92-3.88-7.05-8.59-10.26-13.13-1.16-1.64-1.86-3.81-2.15-5.82-.57-3.89.36-4.75 4.71-5.99z"/></g><path d="m5.17 384 .55-.58c.85.61 1.65 1.24 2.4 1.87l-.59.64c-.83-.73-1.62-1.37-2.36-1.93m1.22 9.53-.82-.34c.71-1.76 1.37-3.64 1.98-5.63.24.13.5.25.76.36-.6 1.67-1.24 3.54-1.92 5.61m-.5-13.5.57-.54c.56.44 1.31 1.06 2.26 1.87l-.64.64c-.68-.66-1.41-1.32-2.19-1.97m3.25.46h2.24v-1.36h.77v1.36h4.57v-1.36h.76v1.36h2.28v.69h-2.28v1.84h-2.64v1.26h4.18v2.64h-4.21c0 .45-.02.86-.05 1.21h4.32v.69h-4.38c-.04.34-.1.75-.19 1.22h5.15v.69h-4.82c.87 1.19 2.51 1.92 4.93 2.19-.17.31-.3.57-.37.76-2.77-.49-4.52-1.41-5.26-2.76-.56 1.26-2.3 2.23-5.24 2.9-.12-.24-.26-.48-.43-.72 2.73-.55 4.38-1.34 4.96-2.38h-4.38v-.69h4.65c.1-.38.17-.79.21-1.22h-4.32v-.69h4.4c.03-.34.05-.75.05-1.21h-4.2v-2.64h4.23v-1.26h-2.69v-1.84h-2.24zm1.46 4.46v1.29h3.45c.01-.4.02-.57.01-.53v-.32-.45h-3.46zm1.55-2.59h4.57v-1.19h-4.57zm6.11 2.59h-3.42v.77c-.01.19-.01.37-.02.53h3.44z" fill="#fbfafc"/><path d="m32.63 379.16h.82v1.98h3.54v7.89h1.45v.78h-14.36v-.78h1.46v-7.89h3.54v-1.98h.82v1.98h2.73zm-3.49 11.48.5.73c-1.61.82-3.28 1.63-5 2.41-.13-.27-.28-.55-.44-.82 1.75-.72 3.4-1.49 4.94-2.32m-2.78-5.55h2.73v-3.18h-2.73zm0 3.95h2.73v-3.2h-2.73zm3.54-3.95h2.73v-3.18h-2.73zm0 3.95h2.73v-3.2h-2.73zm7.89 4.68c-1.84-.92-3.51-1.7-5.02-2.32l.45-.73c1.89.8 3.57 1.55 5.04 2.23zm-1.62-11.81h-2.73v3.18h2.73zm-2.73 7.13h2.73v-3.2h-2.73z" fill="#fbfafc"/></svg>