<svg enable-background="new 0 0 400 400" viewBox="0 0 400 400" xmlns="http://www.w3.org/2000/svg"><g fill="#fafafb"><path d="m37.59 393.81c-.92.31-1.52.05-2-.78-.7-1.2-1.52-2.34-2.47-3.78v4.59c-.55.03-.95.05-1.41.07-.03-.37-.06-.64-.06-.91 0-1.91 0-3.81 0-5.7 1.13-.41 1.77-.03 2.29.91.62 1.11 1.38 2.14 2.31 3.19v-4.2h1.35v6.61z"/><path d="m12.94 393.88v-6.75c1.9.19 3.93-.54 5.37 1.29.8 1.01.78 2.88.03 3.97-1.37 1.97-3.4 1.51-5.4 1.49m1.45-1.22c2.04.12 2.92-.58 2.89-2.21-.03-1.51-.98-2.19-2.89-2z"/><path d="m11.81 393.87h-5.49c.68-2.18 2.47-3.48 3.51-5.45h-3.08v-1.21h5.29c-.71 2.13-2.44 3.48-3.47 5.51.86 0 1.63.04 2.39-.01.79-.05 1.14.21.85 1.16"/><path d="m39.33 393.86v-6.61h3.7v1.07h-2.22v1.52c.68.04 1.34.09 2.07.13v1.07c-.72.05-1.38.09-2.1.14v1.48h2.4v1.19h-3.85z"/><path d="m27.71 388.56c-1.15-.3-2.46-.61-3.1.64-.37.73-.41 1.93-.06 2.67.63 1.35 1.99.93 3.17.68.35.94-.01 1.32-.93 1.46-1.62.25-3.05-.27-3.76-1.48-.73-1.24-.6-3.03.31-4.17.88-1.11 2.71-1.7 4-1.16.32.13.44.74.65 1.12-.1.08-.19.16-.28.24"/><path d="m49.15 387.24v1.07c-.59.02-1.17.05-1.87.08v5.44h-1.48v-5.44h-1.85c-.05-.4-.08-.73-.13-1.15z"/><path d="m20.06 387.21h1.33v6.62h-1.33z"/><path d="m30.68 393.25c-.49.38-.8.79-1.05.76-.32-.05-.6-.45-.9-.7.26-.24.51-.64.8-.67.29-.04.62.3 1.15.61"/></g><path d="m345.34 294.48c.94 1.18 2.25 2.14 2.58 3.35 3.89 14.61 7.56 29.29 11.48 43.89 1.04 3.87.09 7.04-2.94 9.05-13.05 8.65-27.26 14.5-42.76 17.26-23.06 4.1-45.34 1.14-67-7.18-11.57-4.45-15.82-14.03-17.81-25.54-2.13-12.32-.35-24.62-1-36.89-.4-7.48-1.88-14.9-2.96-22.33-.43-2.98-2.61-3.45-5.14-3.07-7.59 1.15-15.18 2.35-22.78 3.47-2.6.38-5.34.23-7.8 1-1.57.49-2.74 2.24-4.09 3.42 1.26.84 2.44 1.86 3.8 2.49 5 2.3 9.55 5.32 11.35 10.63.72 2.12.04 5.81-1.47 7.4-9.91 10.44-19.82 20.95-30.55 30.52-6.89 6.14-15 11.01-22.93 15.86-5.09 3.12-10.74 5.38-16.31 7.61-2.95 1.18-6.25 1.45-9.4 2.13-.32-.57-.64-1.14-.96-1.72 3.83-2.95 7.65-5.9 11.49-8.84 15.43-11.82 30.92-23.65 41.52-40.33 3.25-5.12 5.5-11.09 7.09-16.98.94-3.49 1-7.46-2.26-11.08-5.19-5.77-5.46-12.92-3.53-20.38 1.43-5.51 2.33-11.19 2.97-16.85.67-5.9 1.3-11.89.94-17.78-.51-8.32-1.83-16.6-3.04-24.86-.49-3.36-1.54-6.65-2.48-9.93-.79-2.73.37-3.85 2.91-3.72 1.59.08 3.64.09 4.66 1.03 4.96 4.54 10.47 3.24 15.91 1.83 14.79-3.85 29.54-7.88 44.29-11.9 1.72-.47 3.41-1.16 4.99-1.99 12.36-6.55 22.23.26 32.33 5.93.71.4 1.41.81 2.09 1.25 8.17 5.36 8.18 6.61 4.48 15.36-2.37 5.62-4.58 11.78-4.74 17.76-.29 10.84 1.52 21.72 1.51 32.59-.01 11.24-2.5 22.1-10.2 30.91-3.18 3.63-6.52 2.84-8.91-1.56-4.72-8.66-4.72-8.68-14.1-7.21-2.58.4-5.14.92-8.01 1.45.34.51.61 1.41 1.18 1.67 7.37 3.43 6.69 9.89 6.05 16.21-1.17 11.58-2.99 23.12-3.54 34.72-.21 4.37 1.29 9.73 3.95 13.1 2.99 3.79 7.83 7.14 12.48 8.43 18.91 5.23 37.92 5.01 56.62-1.58 6.41-2.26 11.66-5.83 14.46-12.37 5.04-11.88 10.16-23.66 15.58-36.23zm-157.11-25.43c7.77-1.55 15.26-3.03 22.75-4.55 12.3-2.49 24.54-5.25 36.9-7.4 8.39-1.46 9-1.09 9-8.37.01-17.26-.19-34.53-1.01-51.77-.49-10.33-3.11-12.88-15.04-10.24-17.27 3.82-34.36 8.48-51.55 12.8-.4 6.16-.8 12.24-1.22 18.64 13.25-4.1 25.64-8.04 38.1-11.73 6.87-2.03 13.17.95 14.56 7.02-17.43 4.35-34.87 8.71-52.45 13.11v18.14c12.78-3.47 25.3-6.92 37.86-10.25 7.04-1.87 13.85-2.39 19.9 5.72-19.36 6.48-39.1 8.22-57.79 13.23-.01 5.45-.01 10.41-.01 15.65z" fill="#010100"/><path d="m133.45 152.69c6.36 1.87 9.44 6.34 11.83 11.2 1.39 2.82 3.22 3.51 5.92 3.01 3.2-.59 6.35-1.41 9.57-1.86 2.46-.34 3.32-.73 2.49-3.73-5.81-20.91-12.47-41.48-23.31-60.43-1.81-3.17-3.86-6.2-5.92-9.5 6.14-3.6 11.39-2.72 16.37-.52 4.72 2.08 6.85.66 8.75-3.92 2.87-6.91 6.73-13.41 9.82-20.24 1.17-2.59 1.88-5.62 1.92-8.46.06-4.56 3.07-5.53 6.04-4.56 5.17 1.69 10.05 4.33 14.97 6.73 3.32 1.62 2.88 4.18.77 6.35-2.57 2.65-5.64 4.82-8.28 7.4-7.02 6.88-14.66 13.32-20.52 21.09-2.39 3.17-.83 9.33-1.14 15.49 11.71-6.9 21.97-11.59 34.67-2.52-3.41 1.57-5.72 3.02-8.23 3.71-7.82 2.14-15.71 3.99-23.89 6.03 1.34 5.64 2.59 10.85 3.86 16.19 20.86-9.21 28.92-9.63 33.19-1.05-10.5 3.14-20.85 6.24-31.58 9.45 1.9 6.59 3.74 12.95 5.47 18.92 18.61-3.87 36.9-7.77 55.23-11.45 15.66-3.14 31.37-6.01 47.05-9.04.85-.16 2.19-.57 2.33-1.12 1.25-4.7 2.27-9.46 3.37-14.22-9.45-2.58-19.78 2.65-29.52-4.88 10.94-4.58 21.25-6.06 32.02-7.1 1.29-6.04 2.6-12.2 3.98-18.67-7.89 0-15.55-.08-23.2.04-3.11.05-5.03-.97-5.61-4.29 9.51-3.92 18.89-7.33 30.01-6.25.34-2.89.66-6.21 1.15-9.51.69-4.63-1.43-6.56-5.83-5.96-5.16.71-10.29 1.7-15.42 2.61-4.84.85-9.62.88-13.69-2.26-1.09-.84-1.91-2.78-1.81-4.15.06-.81 2.05-1.87 3.32-2.15 11.75-2.59 23.48-5.27 35.32-7.38 3.3-.59 7.36-.25 10.28 1.23 4.89 2.48 9.19 6.14 13.64 9.44 3.51 2.6 2.86 6.11.46 8.64-8.07 8.55-11 19.58-14.73 30.11-3.71 10.48-6.33 21.36-9.53 32.41 4.85-.91 9.39-1.4 13.7-2.65 8.84-2.58 16.57-.95 23.65 4.85 5.95 4.87 12.23 9.35 18.07 14.34 3.89 3.33 3.66 4.72-.91 6.62-6.44 2.69-13.27 4.48-19.58 7.42-8.85 4.12-17.35 9.01-26.08 13.4-1.92.97-4.2 1.22-7.81 2.22 1.66-4.02 2.61-6.69 3.83-9.24 3.31-6.91 6.8-13.74 10.1-20.66 2.42-5.08 1.19-7.18-4.51-6.75-9.15.7-18.29 1.71-27.37 3.04-11.78 1.73-23.62 3.38-35.22 5.98-20.94 4.71-41.74 10.07-62.59 15.22-7.26 1.79-14.45 3.83-21.72 5.58-1.56.37-3.35.22-4.95-.11-6.75-1.41-7.17-1.15-9.64 5.39-3.34 8.82-6.56 17.7-10.38 26.32-1.14 2.58-4.12 4.34-6.26 6.48-1.78-2.4-4.71-4.63-5.09-7.23-.7-4.83-.91-10.17.46-14.76 3.33-11.21 8.86-21.8 8.39-34-.08-1.93 1.4-3.92 2.32-6.29z" fill="#010100"/><path d="m110.39 219.02c-2.21 6.97-4.41 13.43-6.31 19.97-7.98 27.46-16.16 54.87-23.64 82.46-2.46 9.07-3.05 18.65-4.43 28.01-1.13 7.67-3.51 7.79-8.95 5.09-9.22-4.57-13.21-13.19-17.04-21.94-.33-.74-.65-1.5-.88-2.27-5.07-16.84-4.95-12.01 5.53-23.8 4.92-5.53 8.7-12.21 12.29-18.76 12.49-22.75 24.64-45.69 37.07-68.47.78-1.43 2.84-2.16 4.31-3.22.7 1.01 1.4 2.01 2.05 2.93z" fill="#010100"/><path d="m201.45 66.64c6.87 1.04 13.75 2.07 21.93 3.31 3.79-8.5 7.84-17.47 11.74-26.5.62-1.44 1.24-3.42.75-4.72-2.18-5.77 2.68-5.49 5.03-4.97 4.81 1.07 9.59 2.94 13.91 5.34 5.68 3.15 5.09 5.72.35 10.01-7.69 6.96-14.74 14.62-22.95 22.87 8.57 2.48 15.17 5.04 17.82 12.44.76 2.11.7 4.52 1.22 8.24-9.39-4.25-17.3-7.84-26.21-11.88-4.83 5.39-10.01 11.16-15.19 16.94-.6-.43-1.21-.85-1.81-1.28.1-7.65 7-12.27 9.22-19.1-5.23-2.8-10.84-5.81-16.44-8.82.21-.63.42-1.26.63-1.88z" fill="#010100"/><path d="m119.98 102.71c0 .84.14 2.19-.02 3.5-.94 7.8-8.06 10.89-14.18 5.92-3.65-2.96-6.86-6.5-10.05-9.97-5.46-5.93-10.87-11.92-16.06-18.08-2.39-2.84-4.55-5.99-6.22-9.3-1.58-3.13.58-6.43 3.91-5.61 7.49 1.83 14.94 4.11 22.08 6.99 4.61 1.86 8.84 4.85 12.91 7.8 5.51 4 7.92 10.23 7.63 18.75z" fill="#010100"/><path d="m85 178.53c.25 3.91-.44 7.9-4.95 9.81-3.83 1.62-7.4.84-10.41-2.11-6.55-6.4-13.29-12.61-19.55-19.28-3.05-3.26-5.69-7.15-7.58-11.19-1.9-4.06 1.06-7.72 5.4-6.58 11.17 2.95 22.46 5.93 31.13 14.38 3.85 3.76 5.97 9.1 5.96 14.97z" fill="#010100"/><path d="m231.42 100.21c7.16-1.18 12.07 3.1 16.83 6.84 2.69 2.12.97 4.92-1.65 6.71-3.56 2.44-7.09 4.92-10.82 7.52 13.39 9.33 15.6 13.6 10.37 19.75-6.13-3.9-12.29-7.83-18.12-11.54-8.31 6.82-16.5 13.55-24.7 20.29-.64-.63-1.28-1.26-1.92-1.89 6.11-7.8 12.23-15.61 18.46-23.56-6.04-3.96-12.06-7.91-18.09-11.86.21-.56.43-1.12.64-1.68 4.83 1.21 9.7 2.28 14.48 3.66 8.39 2.43 8.42 2.54 11.67-5.57 1.12-2.83 1.91-5.8 2.85-8.67z" fill="#010100"/></svg>