<svg enable-background="new 0 0 400 400" viewBox="0 0 400 400" xmlns="http://www.w3.org/2000/svg"><g fill="#010100"><path d="m49.31 337.56c3.1-2.82 6.01-5.89 9.33-8.42 16.93-12.91 30.06-28.43 37.58-48.82 6.02-16.32 10.03-33.01 12.68-50.07 1.18-7.62 1.74-15.38 2.04-23.09.84-21.7 2.01-43.41 1.86-65.1-.11-16.85-1.96-33.71-7.28-49.9-1.31-4-3.6-7.67-5.25-11.57-1.86-4.38 1.8-9.54 6.32-8.22 8.98 2.64 17.79 5.94 26.51 9.37 5.1 2 5.92 6.45 4.83 11.38-2.28 10.32-5.38 20.55-6.66 30.99-1.7 13.91-1.98 27.99-2.87 42l1.77.75c5.6-8.22 11.56-16.22 16.64-24.74 2.6-4.37 3.79-9.62 5.34-14.56 1.42-4.53 3.72-5.89 8.19-4.48 8.41 2.65 14.14 8.46 18.59 15.74 1.74 2.85.34 4.58-2.21 6.3-15.71 10.57-31.34 21.25-46.89 32.05-1.06.73-1.71 2.69-1.76 4.12-.46 11.93-.64 23.87-1.11 35.8-.29 7.4-.95 14.78-1.38 21.05 9.73 5.1 18.99 10.07 28.36 14.82 5.73 2.91 8.06 13.76 6.83 19.37-.95 4.32-4.17 5.74-8.25 3.74-2.17-1.06-4.29-2.46-6.01-4.14-7.12-6.97-14.08-14.11-22.23-22.33-1.28 5.65-2.29 10.06-3.29 14.48-4.98 22.11-13.51 42.38-30.66 58.03-8.46 7.72-18.69 12.6-29.24 16.59-3.17 1.2-7.18.19-10.8.19-.32-.45-.65-.89-.98-1.33z"/><path d="m185.86 339.06c-8.09-3.31-14.22-11.7-13.77-19.62.65-11.65 2.37-23.26 2.74-34.91.35-10.91-.01-21.9-.93-32.78-.59-6.91-2.92-13.66-4.16-20.53-.34-1.88-.17-4.42.89-5.79.65-.85 3.57-.49 5.2.09 2.4.85 4.67 2.21 6.79 3.65 4.37 2.97 8.65.27 12.68-.45 22.14-3.96 44.2-8.34 66.25-12.77 19.32-3.89 38.56-8.2 57.91-11.92 3.56-.68 8.03-.47 11.14 1.13 6.34 3.26 12.18 7.58 17.97 11.81 2.85 2.08 4.3 4.96 2.17 8.77-7.12 12.76-7.89 26.49-5.8 40.6.07.49.05 1 .06 1.5.33 16.1 1.11 32.21.85 48.3-.18 11.12-1.93 22.09-8.72 31.65-3.29 4.62-7.08 5.86-10.9 1.86-10.4-10.91-22.19-20-34.91-28-1.29-.81-2.06-2.45-3.98-4.83 4.02-.29 6.99-.92 9.85-.62 6.48.69 12.89 2.27 19.37 2.52 1.74.07 4.52-3.03 5.22-5.19 1.35-4.13 1.98-8.63 2.14-13 .54-14.93.94-29.86 1.01-44.8.05-9.27-.85-18.53-.85-27.8.01-6.78-8.07-9.23-14.57-8.77-7.49.52-14.95 1.77-22.39 2.87-15.35 2.27-30.85 3.91-45.98 7.2-13.45 2.93-26.4 8.04-39.74 11.59-8.25 2.2-8.13 8.61-8.3 14.63-.58 20.76-.65 41.53-1.18 62.29-.13 5.19-.94 10.44-2.08 15.51-.49 2.16-2.65 3.95-3.98 5.81z"/><path d="m208.73 147.01c.78.18 2.6.37 4.25 1.02 9.81 3.87 18.97 0 28.03-2.68 11.2-3.31 22.16-7.46 33.14-11.47 4.02-1.47 7.89-1.67 11.68.1 6.36 2.95 12.83 5.76 18.82 9.35 5.98 3.59 5.63 9.4.1 13.78-7.25 5.74-9.9 14.44-13.44 22.47-.35.79 1.96 2.69 2.95 4.13.94 1.37 1.78 2.82 2.66 4.23-1.31.71-2.56 1.83-3.95 2.07-10.12 1.76-20.29 3.29-30.42 5.01-7.72 1.31-15.4 2.8-23.1 4.22-1.28.24-2.57.82-3.82.71-3.59-.31-4.42 1.65-4.73 4.71-.18 1.79-1.2 3.5-1.84 5.25-1.47-.91-3.06-1.67-4.39-2.76-5.51-4.5-6.02-11.22-7.95-17.45-3.74-12.1-8.14-23.99-12.42-35.91-1.8-5.08-1.07-6.83 4.43-6.78zm22.16 43.38c14.28-3.93 27.42-7.47 40.5-11.25 1.61-.47 3.8-1.99 4.11-3.39 1.47-6.5 2.8-13.09 3.37-19.72.52-6.05-2.71-8.12-8.74-6.64-11.82 2.91-23.65 5.78-35.49 8.6-7.38 1.76-7.38 1.7-6.67 9.16.09.99-.1 2.01.04 2.99.91 6.58 1.87 13.14 2.88 20.25z"/><path d="m230.37 318.49c-2.46-4.2-5.9-8.12-7.18-12.65-2.95-10.46-4.69-21.26-7.27-31.83-1.23-5.02-3.25-9.84-4.97-14.74-1.16-3.31.21-4.51 3.42-4.27 1.15.09 2.42-.05 3.41.41 7.87 3.67 15.47 1.94 23.1-.83 10.37-3.77 20.68-7.75 31.23-10.93 3.02-.91 7.01.06 10.15 1.25 3.75 1.42 7.06 4 10.58 6.06 5.94 3.48 6.21 6.04 2.89 11.97-4.28 7.63-7.85 15.65-11.73 23.5-1.36 2.74-1.36 4.96 2.05 6.19 1.04.38 2.16 1.04 2.8 1.9.91 1.23 1.95 2.78 1.89 4.15-.03.81-2.01 2.02-3.24 2.21-5.49.87-11.04 1.33-16.54 2.13-9.2 1.34-18.35 3.49-27.59 4.04-7.28.43-10.66 3.5-10.65 11.17-.77.1-1.56.19-2.35.27zm3.88-20.08c10.65-2.92 20.66-5.63 30.64-8.46.84-.24 1.9-1.15 2.09-1.94 1.95-8.04 3.95-16.08 5.37-24.22.23-1.33-2.06-4.03-3.68-4.54-2.4-.76-5.35-.6-7.88-.02-9.01 2.09-17.97 4.4-26.85 6.99-1.27.37-2.88 2.81-2.76 4.16.75 9.1 1.93 18.16 3.07 28.03z"/><path d="m313.57 91.63c7.26-.24 12.91 3.5 18.54 7.13.92.59 2.01 2.7 1.69 3.15-1.35 1.88-2.96 4.36-4.92 4.87-6.92 1.8-14.02 2.91-21.07 4.2-11.86 2.17-23.81 3.95-35.59 6.48-21.47 4.6-42.76 10.08-64.32 14.12-4.84.91-10.52-2.53-15.78-4.06-.73-.21-1.38-.91-1.94-1.5-1.74-1.87-3.43-3.8-5.13-5.7 2.39-1.11 4.68-2.75 7.19-3.23 19.21-3.65 38.57-6.6 57.68-10.7 17.15-3.68 34.02-8.62 51.06-12.83 4.1-1.01 8.39-1.31 12.59-1.93z"/><path d="m89.15 181.32c-.75 11.47-2.63 21.48-8.11 30.55-3.12 5.17-7.25 5.11-11.28.8-7.86-8.43-5.12-17.81-3.5-27.25 1.96-11.4 3.82-22.81 5.76-34.22.16-.94.38-1.96.88-2.74.99-1.54 2.19-4.12 3.31-4.12 1.53 0 3.81 1.68 4.45 3.2 2.25 5.35 4.37 10.83 5.73 16.46 1.45 6 1.98 12.24 2.76 17.32z"/><path d="m271 76.15c-.02 9.67-5.98 13.59-12.45 9.5-8.11-5.13-15.58-11.26-23.35-16.93-3.42-2.5-7.38-4.48-10.17-7.54-1.83-2-2.42-5.48-2.65-8.37-.06-.75 3.23-2.25 5.12-2.54 2-.3 4.17.34 6.23.75 7.48 1.49 15.13 2.45 22.37 4.74 10.66 3.36 14.09 12.22 14.9 20.39z"/></g><path d="m5.17 384 .55-.58c.85.61 1.65 1.24 2.4 1.87l-.59.64c-.83-.73-1.62-1.37-2.36-1.93m1.22 9.53-.82-.34c.71-1.76 1.37-3.64 1.98-5.63.24.13.5.25.76.36-.6 1.67-1.24 3.54-1.92 5.61m-.5-13.5.57-.54c.56.44 1.31 1.06 2.26 1.87l-.64.64c-.68-.66-1.41-1.32-2.19-1.97m3.25.46h2.24v-1.36h.77v1.36h4.57v-1.36h.76v1.36h2.28v.69h-2.28v1.84h-2.64v1.26h4.18v2.64h-4.21c0 .45-.02.86-.05 1.21h4.32v.69h-4.38c-.04.34-.1.75-.19 1.22h5.15v.69h-4.82c.87 1.19 2.51 1.92 4.93 2.19-.17.31-.3.57-.37.76-2.77-.49-4.52-1.41-5.26-2.76-.56 1.26-2.3 2.23-5.24 2.9-.12-.24-.26-.48-.43-.72 2.73-.55 4.38-1.34 4.96-2.38h-4.38v-.69h4.65c.1-.38.17-.79.21-1.22h-4.32v-.69h4.4c.03-.34.05-.75.05-1.21h-4.2v-2.64h4.23v-1.26h-2.69v-1.84h-2.24zm1.46 4.46v1.29h3.45c.01-.4.02-.57.01-.53v-.32-.45h-3.46zm1.55-2.59h4.57v-1.19h-4.57zm6.11 2.59h-3.42v.77c-.01.19-.01.37-.02.53h3.44z" fill="#fbfafc"/><path d="m32.63 379.16h.82v1.98h3.54v7.89h1.45v.78h-14.36v-.78h1.46v-7.89h3.54v-1.98h.82v1.98h2.73zm-3.49 11.48.5.73c-1.61.82-3.28 1.63-5 2.41-.13-.27-.28-.55-.44-.82 1.75-.72 3.4-1.49 4.94-2.32m-2.78-5.55h2.73v-3.18h-2.73zm0 3.95h2.73v-3.2h-2.73zm3.54-3.95h2.73v-3.18h-2.73zm0 3.95h2.73v-3.2h-2.73zm7.89 4.68c-1.84-.92-3.51-1.7-5.02-2.32l.45-.73c1.89.8 3.57 1.55 5.04 2.23zm-1.62-11.81h-2.73v3.18h2.73zm-2.73 7.13h2.73v-3.2h-2.73z" fill="#fbfafc"/></svg>