<svg enable-background="new 0 0 400 400" viewBox="0 0 400 400" xmlns="http://www.w3.org/2000/svg"><g fill="#010100"><path d="m158.7 219.45c-5.35 1.65-10.41 2.82-15.15 4.75-11.03 4.48-19.08 3.03-27.87-6.26 3.28-1.39 6.13-2.92 9.17-3.83 18.22-5.46 36.49-10.76 54.74-16.15 1.05-.31 2.03-.85 2.25-.94-4.95-7.85-9.89-15.69-14.99-23.79-5.29 1.19-11.07 2.94-16.98 3.65-3.02.37-6.3-.95-9.36-1.85-.99-.29-1.65-1.71-2.46-2.61.94-.79 1.75-1.91 2.83-2.31 9.16-3.37 18.35-6.66 27.57-9.87 9.55-3.33 9.57-3.28 9.56-13.4 0-5.83-.03-11.66-.06-17.5 0-.32-.17-.64-.08-.33-6.57.67-13.03 1.89-19.46 1.78-4.41-.08-8.83-1.88-13.14-3.24-1.17-.37-1.97-1.92-2.94-2.93 1.07-.93 2-2.33 3.24-2.7 6.99-2.11 14.04-4 21.09-5.91 2.83-.77 5.82-1.11 8.48-2.24 1.26-.54 2.88-2.6 2.73-3.75-1.9-13.96 1.1-28.8-7.61-41.59-2.39-3.51.46-7.84 4.98-7.31 8 .94 15.48 3.76 22.06 8.63 5.54 4.09 3.15 9.29 2.18 14.36-1.37 7.14-2.62 14.31-4.11 22.57 8.74-4.68 16.67-4.5 24.64-2.62 1.82.43 3.68 1.44 5.08 2.68 2.16 1.91.97 5.13-2.26 6.3-8.42 3.04-16.9 5.91-25.3 9.01-1.32.49-3.23 1.7-3.35 2.75-1 8.81-1.65 17.66-2.38 26.26 6.82-1.68 13.22-3.56 19.74-4.77 5.63-1.05 10.81.97 14.76 4.93 2.17 2.18.45 4.33-2.15 5.14-5.28 1.64-10.61 3.11-15.92 4.62-10.79 3.05-21.6 6.07-32.38 9.14-.58.16-1.04.75-1.69 1.24 8.49 4.97 19.2 8 16.71 21.62 11.19-3.02 21.19-2.95 29.28 6.14-4.65 6.02-11.32 5.08-16.92 6.82-8.33 2.59-16.77 4.85-25.59 7.37 2.5 4.66 9.91 7.31 3.33 14.7 5.57.76 10.11 1.52 14.67 1.96 8.18.79 16.37 1.66 23.03 7.04 3.01 2.43 5.87 5.32 7.92 8.56.97 1.53.78 5.32-.43 6.45-7.59 7.13-10.11 16.38-12.17 26.01-3.61 16.88-7.2 33.83-15.15 49.34-4.36 8.51-9.72 16.29-19.07 20.39-4.68 2.05-8.48 1.09-10.34-3.17-4.82-11-12.55-19.61-21.01-27.76-.97-.94-1.49-2.33-2.22-3.52.21-.47.42-.94.63-1.4 2.61.68 5.26 1.25 7.83 2.05 5.13 1.6 10.14 3.6 15.33 4.91 6.51 1.64 12.15-.96 15.1-8.58 5.22-13.46 9.55-27.28 13.84-41.08 1.58-5.08 2.09-10.51 2.96-15.8.88-5.33-1.96-9.91-7.53-11.6-6.04-1.83-12.2-3.27-18.15-4.84-7.71 11.9-14.93 23.91-23 35.31-13.21 18.66-28.59 35.32-47.92 47.94-5.24 3.42-9.99 4.88-14.86 4.14 1.62-1.72 2.86-3.15 4.21-4.46 17.65-17.15 33.95-35.54 47.66-55.96 8.16-12.15 14.65-25.4 16.66-40.29.12-1.1-.14-2.25-.26-4.2z"/><path d="m252.11 157.73c12.73-4.81 25.49-9.55 38.19-14.47 8.94-3.46 17.62-7.68 26.73-10.58 5.92-1.88 12.4-1.45 18.03 1.95 1.62.98 3.67 3.15 3.53 4.59-.14 1.46-2.52 3.23-4.29 3.93-14.36 5.72-28.81 11.22-43.23 16.78-2.12.82-4.25 1.6-6.63 2.49 3.81 1.87 7.42 3.61 11.01 5.4 3.47 1.73 4.65 3.81 3.32 8.14-1.95 6.33-2.51 13.09-3.78 19.65-3.31 17.11-6.2 34.33-10.33 51.25-1.28 5.24-.43 8.41 2.69 12.04 19.31 22.46 42.6 39.8 68.66 53.61 3.46 1.83 7 3.55 10.29 5.65 1.2.77 1.77 2.53 2.62 3.84-1.17.67-2.33 1.9-3.52 1.92-11.36.2-22.73.43-34.08.15-6.02-.15-11.99-1.49-18.01-1.92-5.13-.37-7.94-3.64-10.35-7.45-8.38-13.22-16.66-26.51-25-39.76-.75-1.19-1.65-2.28-2.65-3.64-14.84 25.72-34.13 44.69-65.92 45.28 10.95-9.11 23.06-17.17 32.51-27.63 9.4-10.41 16.14-23.23 23.88-34.74-12.01-18.73-19.78-38.71-36.8-52.53 7.64-5.19 15.28-2.39 21.02 6.15 6.27 9.33 12.81 18.48 19.99 28.78 1.13-6.85 2.56-12.49 2.9-18.2.68-11.41.91-22.86 1.04-34.29.06-4.76-.58-9.53-.96-14.29-.19-2.3-1.02-2.93-3.59-2.14-3.87 1.19-7.97 2.09-11.99 2.18-4.83.11-9.69-.75-14.96-1.23-3.76 3.78-6.96 9.46-14.89 10.68.72-2.85.91-5.12 1.84-7.04 7.31-15.14 15.39-29.95 21.98-45.39 7.41-17.37 15.13-34.9 14.51-54.44-.12-3.77-1.61-7.58-2.89-11.22-1.49-4.24-.27-7.19 4.04-7.14 11.28.14 20.68 4.89 27.6 13.65 1.44 1.82 1.12 6.22-.01 8.68-5.33 11.57-10.9 23.04-16.98 34.23-8.41 15.48-17.36 30.67-26.08 45.99.19.36.38.73.56 1.09z"/><path d="m101.44 182.62c8.24-3.97 15.62-4.97 23.07-2.49 2.07.69 3.65 2.83 5.45 4.31-1.83 1.85-3.32 4.49-5.54 5.41-6.59 2.75-13.51 4.72-20.19 7.28-1.32.51-2.87 2.15-3.1 3.48-.7 4.04-.92 8.17-1.11 12.28-.42 9.26-.64 18.53-1.06 27.79-.11 2.35-.65 4.67-1.04 7.27 12.91-3.08 22.44-13.27 36.12-14.28-.14 6.64-5.01 9.33-8.64 11.98-15.67 11.44-31.82 22.23-47.66 33.45-5.47 3.88-10.45 8.45-15.87 12.4-1.38 1-3.91 1.68-5.36 1.11-6.82-2.69-13.6-5.58-20.03-9.07-1.8-.97-3.19-4.23-3.2-6.45 0-1.6 2.3-4.01 4.09-4.68 15.08-5.63 30.27-10.94 45.95-16.54 0-17.15 0-34.06 0-51.23-11.17 1.55-23.06 5.85-35.54-2.41 3.84-1.75 6.5-3.29 9.36-4.2 7.9-2.51 15.94-4.62 23.8-7.24 1.32-.44 2.95-2.71 2.91-4.08-.45-15.53-1.09-31.06-1.92-46.58-.3-5.62-3.14-6.6-9.16-6.25-5.66.33-11.45-.86-17.1-1.84-1.38-.24-2.44-2.29-3.65-3.51 1.24-1.15 2.3-2.89 3.76-3.35 8.68-2.72 17.57-4.82 26.17-7.76 9.38-3.21 18.36-7.64 27.82-10.54 6.8-2.08 14.1-2.35 20.63 1.88 3.62 2.35 3.54 5.79-.44 7.67-4.4 2.08-9.01 3.76-13.61 5.4-7.35 2.62-14.76 5.08-22.65 7.78 1.34 1.19 2.36 2.36 3.62 3.17 7.56 4.93 7.43 12.29 6.66 20.02-.95 9.5-1.63 19.01-2.54 29.82z"/></g><path d="m5.17 384 .55-.58c.85.61 1.65 1.24 2.4 1.87l-.59.64c-.83-.73-1.62-1.37-2.36-1.93m1.22 9.53-.82-.34c.71-1.76 1.37-3.64 1.98-5.63.24.13.5.25.76.36-.6 1.67-1.24 3.54-1.92 5.61m-.5-13.5.57-.54c.56.44 1.31 1.06 2.26 1.87l-.64.64c-.68-.66-1.41-1.32-2.19-1.97m3.25.46h2.24v-1.36h.77v1.36h4.57v-1.36h.76v1.36h2.28v.69h-2.28v1.84h-2.64v1.26h4.18v2.64h-4.21c0 .45-.02.86-.05 1.21h4.32v.69h-4.38c-.04.34-.1.75-.19 1.22h5.15v.69h-4.82c.87 1.19 2.51 1.92 4.93 2.19-.17.31-.3.57-.37.76-2.77-.49-4.52-1.41-5.26-2.76-.56 1.26-2.3 2.23-5.24 2.9-.12-.24-.26-.48-.43-.72 2.73-.55 4.38-1.34 4.96-2.38h-4.38v-.69h4.65c.1-.38.17-.79.21-1.22h-4.32v-.69h4.4c.03-.34.05-.75.05-1.21h-4.2v-2.64h4.23v-1.26h-2.69v-1.84h-2.24zm1.46 4.46v1.29h3.45c.01-.4.02-.57.01-.53v-.32-.45h-3.46zm1.55-2.59h4.57v-1.19h-4.57zm6.11 2.59h-3.42v.77c-.01.19-.01.37-.02.53h3.44z" fill="#fbfafc"/><path d="m32.63 379.16h.82v1.98h3.54v7.89h1.45v.78h-14.36v-.78h1.46v-7.89h3.54v-1.98h.82v1.98h2.73zm-3.49 11.48.5.73c-1.61.82-3.28 1.63-5 2.41-.13-.27-.28-.55-.44-.82 1.75-.72 3.4-1.49 4.94-2.32m-2.78-5.55h2.73v-3.18h-2.73zm0 3.95h2.73v-3.2h-2.73zm3.54-3.95h2.73v-3.18h-2.73zm0 3.95h2.73v-3.2h-2.73zm7.89 4.68c-1.84-.92-3.51-1.7-5.02-2.32l.45-.73c1.89.8 3.57 1.55 5.04 2.23zm-1.62-11.81h-2.73v3.18h2.73zm-2.73 7.13h2.73v-3.2h-2.73z" fill="#fbfafc"/></svg>