<svg enable-background="new 0 0 400 400" viewBox="0 0 400 400" xmlns="http://www.w3.org/2000/svg"><g fill="#010100"><path d="m64.04 283.12c-1.22 3.92-1.85 7.33-3.34 10.31s-4.16 3.93-6.79.96c-6.86-7.76-10.09-16.81-8.5-27.12 2.69-17.41 6.02-34.72 8.53-52.15 3.75-26.08 2.13-52.37 1.73-78.55-.14-9.21-4.04-18.36-6.15-27.55-1.01-4.42-1.87-8.87-2.85-13.58 9.36-2.81 14.99 3.15 21.66 7.77 5.66-2.46 12.13-4.22 17.4-7.78 11.91-8.04 23.57-5.71 35.44-.77 8.82 3.67 8.9 5.12 6.57 14.21-2.25 8.8-4.14 17.89-4.55 26.93-.73 15.79-.72 31.66-.07 47.46.74 17.92 2.49 35.8 3.87 53.69.58 7.54 1.99 15.08 1.82 22.59-.31 13.53-.56 27.26-8.74 39.13-3.78 5.49-6.75 5.44-9.86 1.06-3.59-5.06-7.77-9.78-10.77-15.15-2.24-4.01-4.92-5.06-9.03-4.58-6.52.76-13.06 1.29-19.58 2.01-2.55.3-5.09.83-6.79 1.11zm2.98-73.86c1.57-.5 2.6-.89 3.67-1.16 7.17-1.82 14.19-5.72 21.81-2.98 3.38 1.21 6.28 3.76 9.4 5.7-3.11 1.73-6.03 4.24-9.35 5.03-8.68 2.04-17.53 3.33-26.93 5.02v52.88c12.9-3.37 25.7-9.15 39.21-1.28.37-1.08 1.06-2.23 1.13-3.43.74-13.36 1.94-26.73 1.94-40.1 0-33.43-.52-66.85-.93-100.28-.05-4.43-.04-8.99-1.09-13.24-2.04-8.33-2.99-11.59-13.63-8.53-6.25 1.8-12.48 3.83-18.87 4.92-3.24.55-4.35 1.77-4.35 4.6-.03 14.26-.01 28.52-.01 42.95 1.71-.56 4.11-1.38 6.53-2.15 6.99-2.22 13.97-3.21 21.03-.21 3.51 1.49 4.79 4.39 2.4 6.34-1.56 1.27-3.63 2.16-5.61 2.6-7.32 1.61-14.75 2.74-22.01 4.55-1.7.42-4.09 2.8-4.14 4.35-.37 11.29-.2 22.59-.2 34.42z"/><path d="m324.08 327.86c1.56-10.93 2.79-19.52 4.01-28.11.97-6.8 2.36-13.57 2.8-20.4.7-10.74.79-21.53 1.09-32.3.36-13.1.99-26.2.94-39.3-.09-24.1-.54-48.2-.96-72.3-.19-11.27-.15-22.58-1.1-33.79-1.14-13.46-.35-27.35-6.87-39.89-2.1-4.04-4.51-7.91-6.59-11.95-1.61-3.14-4.49-6.82-1.42-9.93 3.19-3.23 7.98-4.41 12.31-1.98 9.11 5.09 18.06 10.46 26.93 15.96 4 2.48 3.4 6.61 2.13 10.25-4.05 11.63-4.48 23.77-5.34 35.84-3.35 46.99-1.76 94.07-1.97 141.11-.08 17.27.6 34.54.94 51.8.33 16.77.89 33.54.9 50.31 0 7.53-2.72 14.31-8.28 19.8-3.08 3.04-5.93 3.03-8.33-.29-2.05-2.83-4.08-5.95-5-9.26-2.52-9.1-4.46-18.32-6.19-25.57z"/><path d="m194.36 319.34c3.4-4.17 6.5-8.04 9.68-11.87 10.46-12.59 20.38-25.53 27.45-40.43 6.55-13.8 11.14-28.28 12.34-43.44 1.39-17.62 2.42-35.38 1.89-53.02-.46-15.41-2.33-30.97-11.1-44.58-2.06-3.19-.44-5.67 3.29-6.02 9.37-.88 17.23 3.38 24.88 7.71 1.84 1.04 3.08 4.74 3.07 7.21-.07 18.92.06 37.87-1.01 56.74-1.27 22.51-4.35 44.79-11.7 66.36-8.25 24.2-23.19 43.11-43.65 57.96-4.18 3.01-8.73 5.22-15.14 3.38z"/><path d="m281.98 255.56c1.13-10.09 2.08-18.89 3.12-27.68.91-7.64 2.37-15.24 2.8-22.9.7-12.58.64-25.2 1.13-37.79.74-19.08-2.39-37.6-7.33-55.92-.65-2.39-1.61-5.31-.81-7.36 1.83-4.67 6.53-3.49 9.76-2.43 4.89 1.6 9.52 4.22 13.96 6.9 3.51 2.12 4.89 5.32 4.56 9.91-1.35 19.11-2.47 38.24-3.07 57.38-.48 15.35-.3 30.73-.01 46.09.13 7.04 1.58 14.06 1.82 21.11.41 12.31-1.59 24.15-8.72 34.63-2.09 3.08-5.89 3.51-8.11.58-5.33-7.03-8.77-14.85-9.1-22.52z"/><path d="m203.68 278.69c2.08 2.42 3.84 4.47 5.6 6.52-2.73.93-5.4 2.28-8.2 2.71-7.91 1.22-15.89 2.04-23.83 3.09-3.44.45-4.33 1.84-3.63 5.74.93 5.2.23 10.68.23 16.91-7.71-2.25-11.64-6.71-13.71-12.24-3.8-10.18-6.36-20.83-10.3-30.95-3.55-9.1-8.39-17.69-12.35-26.64-.98-2.21-1.83-5.91-.72-7.23 1.26-1.5 5.12-2.08 7.27-1.35 14.89 5.05 27.91.71 39.84-7.85 5.77-4.14 10.76-4.94 16.89-1.16 4.86 3 10.19 5.22 15.31 7.8 6.44 3.24 7.87 7.19 3.31 12.89-6.97 8.71-11.46 18.48-14.76 28.96-.4 1.17-.81 2.37-.95 2.8zm-33.38 2.67c1.4-.13 2.78.03 3.92-.42 3.95-1.59 10.36-2.55 11.26-5.27 2.93-8.85 3.94-18.35 5.46-27.64.52-3.15-1.23-5.27-4.53-4.99-5.75.47-11.51 1.09-17.2 2.08-4.92.86-6.18 3.13-5.13 8 2.07 9.5 4.18 18.99 6.22 28.24z"/><path d="m216.29 119.25c-3.3 1.2-6.51 2.5-9.8 3.53-12.85 3.99-25.61 8.4-38.65 11.66-9.17 2.29-17.98.33-24.87-6.99-3.49-3.71-2.82-7 2.15-8.32 6.27-1.67 12.69-2.74 19.05-4.07 10.18-2.13 20.37-4.21 30.54-6.41 8.38-1.82 18.08 2.55 21.58 10.6z"/><path d="m167.5 39.94c9.8 2.83 19.76 5.23 29.36 8.65 6.28 2.24 8.45 8.27 9.07 14.54.34 3.47.69 7.15-.09 10.46-1.27 5.43-3.98 6.82-9.09 4.53-4.53-2.02-8.91-4.71-12.76-7.83-6.77-5.5-13.1-11.54-19.57-17.41-.96-.87-1.82-1.93-2.44-3.07-2.6-4.79-.16-8.85 5.52-9.87z"/><path d="m146.1 165.34c3.27-1.26 6.46-2.77 9.81-3.74 9.51-2.73 19.14-5.06 28.61-7.91 5.61-1.69 10.74-.36 15.76 1.61 1.47.58 3.4 3.21 3.1 4.38-.53 2.06-2.27 4.77-4.1 5.36-8.33 2.67-16.85 4.75-25.33 6.94-7.54 1.95-14.94 1.17-22.12-1.67-2.04-.81-3.9-2.09-5.84-3.15.04-.6.07-1.21.11-1.82z"/><path d="m165 212.58c-4.27-1.12-9.48-2.32-14.58-3.89-3.31-1.02-3.29-3.9-.57-4.8 12.63-4.16 24.26-12 38.37-10.9.83.06 1.78-.22 2.48.1 3.52 1.57 8.95 1.37 9.12 6.59.17 5.33-5.15 5.1-8.64 6.26-5.55 1.84-11.2 3.38-16.85 4.89-2.67.7-5.43 1.03-9.33 1.75z"/></g><path d="m5.17 384 .55-.58c.85.61 1.65 1.24 2.4 1.87l-.59.64c-.83-.73-1.62-1.37-2.36-1.93m1.22 9.53-.82-.34c.71-1.76 1.37-3.64 1.98-5.63.24.13.5.25.76.36-.6 1.67-1.24 3.54-1.92 5.61m-.5-13.5.57-.54c.56.44 1.31 1.06 2.26 1.87l-.64.64c-.68-.66-1.41-1.32-2.19-1.97m3.25.46h2.24v-1.36h.77v1.36h4.57v-1.36h.76v1.36h2.28v.69h-2.28v1.84h-2.64v1.26h4.18v2.64h-4.21c0 .45-.02.86-.05 1.21h4.32v.69h-4.38c-.04.34-.1.75-.19 1.22h5.15v.69h-4.82c.87 1.19 2.51 1.92 4.93 2.19-.17.31-.3.57-.37.76-2.77-.49-4.52-1.41-5.26-2.76-.56 1.26-2.3 2.23-5.24 2.9-.12-.24-.26-.48-.43-.72 2.73-.55 4.38-1.34 4.96-2.38h-4.38v-.69h4.65c.1-.38.17-.79.21-1.22h-4.32v-.69h4.4c.03-.34.05-.75.05-1.21h-4.2v-2.64h4.23v-1.26h-2.69v-1.84h-2.24zm1.46 4.46v1.29h3.45c.01-.4.02-.57.01-.53v-.32-.45h-3.46zm1.55-2.59h4.57v-1.19h-4.57zm6.11 2.59h-3.42v.77c-.01.19-.01.37-.02.53h3.44z" fill="#fbfafc"/><path d="m32.63 379.16h.82v1.98h3.54v7.89h1.45v.78h-14.36v-.78h1.46v-7.89h3.54v-1.98h.82v1.98h2.73zm-3.49 11.48.5.73c-1.61.82-3.28 1.63-5 2.41-.13-.27-.28-.55-.44-.82 1.75-.72 3.4-1.49 4.94-2.32m-2.78-5.55h2.73v-3.18h-2.73zm0 3.95h2.73v-3.2h-2.73zm3.54-3.95h2.73v-3.18h-2.73zm0 3.95h2.73v-3.2h-2.73zm7.89 4.68c-1.84-.92-3.51-1.7-5.02-2.32l.45-.73c1.89.8 3.57 1.55 5.04 2.23zm-1.62-11.81h-2.73v3.18h2.73zm-2.73 7.13h2.73v-3.2h-2.73z" fill="#fbfafc"/></svg>