<svg enable-background="new 0 0 400 400" viewBox="0 0 400 400" xmlns="http://www.w3.org/2000/svg"><g fill="#010100"><path d="m243.2 205.69c-3.24.39-6.62.94-10.02 1.18-10.4.75-20.25-1.22-29.24-6.6-1.34-.8-2.57-2.81-2.63-4.31-.04-.91 2.15-2.45 3.55-2.77 4.28-.97 8.65-1.69 13.02-2.15 8.49-.89 17.01-1.53 26.45-2.35-2.38-23.59.93-47.69-8.28-70.36-13.67 2.16-26.85 3.76-39.4-2.54-2.48-1.24-4.42-3.54-6.61-5.35 2.48-1.52 4.78-3.77 7.47-4.42 6-1.43 12.23-1.89 18.31-3.06 16.15-3.11 32.29-6.3 48.41-9.62 12.91-2.66 25.67-6.34 38.69-7.95 5.02-.62 10.72 2.92 15.82 5.2 1.31.58 2.24 3.65 2.05 5.44-.15 1.44-2.04 3.45-3.53 3.86-10.18 2.82-20.42 5.46-30.72 7.81-10.59 2.42-21.27 4.45-32.23 6.72 2.9 2.7 5.8 5.08 8.32 7.81 6 6.53 2.92 14.55 3.22 21.98.09 2.25-.77 4.54-.79 6.81-.09 10.57-.04 21.15-.04 31.83 7.05-1.74 14.54-3.92 22.17-5.38 8.75-1.68 17.59-1.83 25.35 3.54 1.92 1.33 3.89 3.84 4.06 5.95.1 1.2-3.22 3.44-5.3 3.94-14.88 3.54-29.82 6.88-44.8 9.96-2.83.58-3.47 1.7-3.51 4.23-.26 15.44-.59 30.87-.98 46.3-.26 10.44-.66 20.87-.98 31.31-.05 1.64-.01 3.29-.01 5.26 20.13-3.7 39.74-7.93 59.56-10.7 9.82-1.37 19.39 2.2 27.84 7.7 3.14 2.05 6.21 4.34 8.9 6.94 3.43 3.32 2.27 7.58-2.24 9.1-1.52.51-3.16.89-4.75.94-4.16.13-8.33-.02-12.5.06-15.6.3-31.22.28-46.8 1.09-17.09.89-34.23 1.92-51.19 4.1-15.5 1.99-30.81 5.48-46.16 8.52-10.38 2.06-19.81.66-27.66-6.84-1.47-1.41-1.98-3.83-2.94-5.78 1.64-.72 3.23-1.86 4.94-2.11 12.14-1.77 24.3-3.35 36.46-5.01 12.65-1.73 25.3-3.48 38.74-5.33-.02-27.89-.02-55.93-.02-84.95z"/><path d="m91.21 227.37c-14.98 16.11-27.46 33.03-46.16 42.97-.47-.37-.94-.75-1.41-1.12 1.17-1.95 2.13-4.08 3.55-5.84 13.65-16.93 26.89-34.15 37.76-53.05.97-1.69.78-4.39.37-6.48-.85-4.29-2.19-8.48-3.36-12.71-1.13-4.12.96-5.59 4.59-5.07 3.36.48 6.63 1.55 11.06 2.63 4.6-15.73 9.75-31.64 13.71-47.84 1.38-5.66-.02-12.06-.59-18.09-.1-1.01-2.63-2.77-3.73-2.56-10.65 2.03-20.91.81-30.77-3.38-2.08-.88-3.48-3.33-5.2-5.06 1.9-1.26 3.66-3.25 5.73-3.65 10.57-2.03 21.35-3.1 31.81-5.56 11.53-2.71 22.82-6.5 34.17-9.94 8.44-2.56 16.99-4.16 25.62-1.55 4.4 1.33 10.26 2.68 10.1 8.39-.14 5.33-6.08 5.2-9.96 6.21-14.16 3.69-28.41 7.05-42.63 10.53 3.57 1.89 7.09 3.73 10.59 5.61 3.44 1.85 4.68 4.35 3.01 8.26-6.05 14.23-11.9 28.55-17.93 42.8-2.22 5.26-4.72 10.41-7.78 17.12 11.68-4.37 22.65-7.7 32.87-12.58 5.91-2.83 10.45-2.35 15.58.61 4.24 2.45 8.58 4.75 12.93 6.99 7.35 3.78 8.72 7.87 3.81 14.37-5.71 7.55-9.61 15.82-12.05 24.88-.97 3.6-2.28 7.17-2.69 10.84-.18 1.6 1.17 3.74 2.42 5.06 1.88 1.99 4.28 3.49 6.3 5.07-.94 6.45-6.15 5.03-9.7 5.64-14 2.43-28.07 4.43-42.12 6.54-2.77.42-5.57.59-9.13.96 0 5.01.25 10.29-.09 15.52-.24 3.7-.96 7.43-2.04 10.98-1.09 3.59-3.38 3.73-5.94.83-6.15-6.97-8.15-15.39-8.98-24.36-1-10.97-2.37-21.92-3.72-33.97zm18.87 20.53c11.09-3.03 21.93-5.83 32.64-9.08 1.7-.52 3.66-2.86 4.02-4.66 2-9.91 3.88-19.88 5.12-29.91.78-6.31-2.03-10.12-8.17-9.21-11.14 1.64-22.28 3.35-33.33 5.48-1.39.27-3.28 3.34-3.2 5.02.73 13.98 1.87 27.93 2.92 42.36z"/><path d="m357.57 246.87c-.67 3.34-1.06 5.58-1.56 7.79-1.64 7.26-7.53 9.27-12.8 3.86-4.79-4.91-8.93-10.49-13.08-15.98-4.52-5.99-8.91-12.1-12.94-18.42-.87-1.36-.57-4.2.31-5.69.62-1.06 3.46-1.8 4.77-1.29 11.77 4.57 23.56 9.41 31.55 19.8 2.22 2.88 2.72 7.08 3.75 9.93z"/></g><path d="m5.17 384 .55-.58c.85.61 1.65 1.24 2.4 1.87l-.59.64c-.83-.73-1.62-1.37-2.36-1.93m1.22 9.53-.82-.34c.71-1.76 1.37-3.64 1.98-5.63.24.13.5.25.76.36-.6 1.67-1.24 3.54-1.92 5.61m-.5-13.5.57-.54c.56.44 1.31 1.06 2.26 1.87l-.64.64c-.68-.66-1.41-1.32-2.19-1.97m3.25.46h2.24v-1.36h.77v1.36h4.57v-1.36h.76v1.36h2.28v.69h-2.28v1.84h-2.64v1.26h4.18v2.64h-4.21c0 .45-.02.86-.05 1.21h4.32v.69h-4.38c-.04.34-.1.75-.19 1.22h5.15v.69h-4.82c.87 1.19 2.51 1.92 4.93 2.19-.17.31-.3.57-.37.76-2.77-.49-4.52-1.41-5.26-2.76-.56 1.26-2.3 2.23-5.24 2.9-.12-.24-.26-.48-.43-.72 2.73-.55 4.38-1.34 4.96-2.38h-4.38v-.69h4.65c.1-.38.17-.79.21-1.22h-4.32v-.69h4.4c.03-.34.05-.75.05-1.21h-4.2v-2.64h4.23v-1.26h-2.69v-1.84h-2.24zm1.46 4.46v1.29h3.45c.01-.4.02-.57.01-.53v-.32-.45h-3.46zm1.55-2.59h4.57v-1.19h-4.57zm6.11 2.59h-3.42v.77c-.01.19-.01.37-.02.53h3.44z" fill="#fbfafc"/><path d="m32.63 379.16h.82v1.98h3.54v7.89h1.45v.78h-14.36v-.78h1.46v-7.89h3.54v-1.98h.82v1.98h2.73zm-3.49 11.48.5.73c-1.61.82-3.28 1.63-5 2.41-.13-.27-.28-.55-.44-.82 1.75-.72 3.4-1.49 4.94-2.32m-2.78-5.55h2.73v-3.18h-2.73zm0 3.95h2.73v-3.2h-2.73zm3.54-3.95h2.73v-3.18h-2.73zm0 3.95h2.73v-3.2h-2.73zm7.89 4.68c-1.84-.92-3.51-1.7-5.02-2.32l.45-.73c1.89.8 3.57 1.55 5.04 2.23zm-1.62-11.81h-2.73v3.18h2.73zm-2.73 7.13h2.73v-3.2h-2.73z" fill="#fbfafc"/></svg>