<svg enable-background="new 0 0 400 400" viewBox="0 0 400 400" xmlns="http://www.w3.org/2000/svg"><path d="m5.17 384 .55-.58c.85.61 1.65 1.24 2.4 1.87l-.59.64c-.83-.73-1.62-1.38-2.36-1.93m1.22 9.53-.82-.34c.71-1.76 1.37-3.64 1.98-5.63.24.13.5.25.76.36-.6 1.67-1.24 3.54-1.92 5.61m-.5-13.5.57-.54c.56.44 1.31 1.06 2.26 1.87l-.64.64c-.68-.66-1.41-1.32-2.19-1.97m3.25.46h2.24v-1.36h.77v1.36h4.57v-1.36h.76v1.36h2.28v.69h-2.28v1.84h-2.64v1.26h4.18v2.64h-4.21c0 .45-.02.86-.05 1.21h4.32v.69h-4.38c-.04.34-.1.75-.19 1.22h5.15v.69h-4.82c.87 1.19 2.51 1.92 4.93 2.19-.17.31-.3.57-.37.76-2.77-.49-4.52-1.41-5.26-2.76-.56 1.26-2.3 2.23-5.24 2.9-.12-.24-.26-.48-.43-.72 2.73-.55 4.38-1.34 4.96-2.38h-4.38v-.69h4.65c.1-.38.17-.79.21-1.22h-4.32v-.69h4.4c.03-.34.05-.75.05-1.21h-4.2v-2.64h4.23v-1.26h-2.69v-1.84h-2.24zm1.46 4.46v1.29h3.45c.01-.4.02-.57.01-.53v-.32-.45h-3.46zm1.55-2.59h4.57v-1.19h-4.57zm6.11 2.59h-3.42v.77c-.01.19-.01.37-.02.53h3.44z" fill="#fafafa"/><path d="m32.63 379.16h.82v1.98h3.54v7.89h1.46v.78h-14.37v-.78h1.46v-7.89h3.54v-1.98h.82v1.98h2.73zm-3.49 11.48.5.73c-1.61.82-3.28 1.63-5 2.41-.13-.27-.28-.55-.44-.82 1.75-.72 3.4-1.49 4.94-2.32m-2.78-5.55h2.73v-3.18h-2.73zm0 3.95h2.73v-3.2h-2.73zm3.54-3.95h2.73v-3.18h-2.73zm0 3.95h2.73v-3.2h-2.73zm7.89 4.68c-1.84-.92-3.51-1.7-5.02-2.32l.45-.73c1.89.8 3.57 1.55 5.04 2.23zm-1.62-11.81h-2.73v3.18h2.73zm-2.73 7.13h2.73v-3.2h-2.73z" fill="#fafafa"/><g fill="#000001"><path d="m280.74 311.77c-19.42 18.15-43.73 29.38-69.64 37.57-4.59 1.45-9.61 2.66-14.71-1.39 26.63-16.76 55.28-29.78 76.78-53.84-9.72-17.37-17.75-35.61-20.53-56.47-8.41 2.01-16.64 3.7-24.71 5.96-10.25 2.88-20.24 4.21-29.81-2.01-.68-.44-1.64-.61-2.12-1.19-1.41-1.73-2.64-3.6-3.93-5.41 1.77-.9 3.46-2.26 5.34-2.64 15.64-3.22 31.3-6.39 47-9.25 3.52-.64 3.88-1.99 3.19-5.01-1.49-6.51-2.69-13.08-4.01-19.64-14.5 4.11-28.38 4.15-40.63-5.68-.06-.78-.12-1.56-.18-2.34 6.2-1.38 12.37-2.87 18.6-4.12 6.38-1.28 12.81-2.33 19.31-3.49-4.01-16.04-8.36-31.68-17.63-45.39-2.1-3.11-4.95-5.73-6.86-8.93-1.21-2.03-2.13-4.89-1.65-7.04.33-1.46 3.17-2.98 5.11-3.36 11.49-2.28 21.12 2.08 29.28 9.65 2.24 2.07 3.63 5.93 3.9 9.1 1.05 12.5 1.52 25.05 2.14 37.58.15 3.11 1.13 4.1 4.39 2.92 7.95-2.88 15.92-5.77 24.07-7.99 7.74-2.1 15.57-4.79 23.79-1.45 4.45 1.81 5.65 2.64 7.66 7.52-4.47 5.82-11.48 6.55-17.78 8.39-12.48 3.66-25.1 6.83-38.56 10.45 1.82 7.99 3.59 15.81 5.42 23.85 12.76-3.32 24.74-6.95 36.96-9.44 10.39-2.11 21.21-4.27 31.14 1.98 2.01 1.26 3.3 3.67 4.92 5.56-1.87 1.59-3.52 4.13-5.64 4.61-9.05 2.05-18.26 3.35-27.36 5.19-12.27 2.48-24.49 5.2-37.56 8 5.91 15.68 11.57 30.7 17.5 46.42 6.29-9.8 10.79-18.99 11.23-29.92.25-5.97 3.83-8.09 9.04-5.4 6.67 3.44 12.95 7.75 16.72 14.66 1.44 2.64 1.57 4.97-.64 7.65-8.37 10.11-16.46 20.45-25.43 31.67 6.45 6.84 13.48 14.3 20.51 21.76.11.12.23.25.36.34 9.66 6.38 15.42 4.53 19.22-6.46 4.46-12.91 8.69-25.9 13.02-38.86.21-.62.17-1.45.57-1.85 1.41-1.39 2.97-2.64 4.47-3.94.67 1.72 1.96 3.47 1.9 5.17-.49 14.2-1.44 28.4-1.82 42.6-.32 12.15-.08 24.32-.08 36.49 0 1.33.06 2.67-.01 4-.59 10.68-4.59 11.18-12.05 7.77-7.78-3.56-15.12-8.47-21.85-13.79-7.25-5.74-13.87-12.36-20.22-19.12-6.36-6.77-12.04-14.17-18.13-21.44z"/><path d="m145.74 255.64c3.96-1.55 6.92-2.84 9.95-3.88 7.53-2.59 15.2-4.06 23.07-1.67 1.65.5 3.27 1.58 4.54 2.79 3.04 2.89 2.52 5.88-1.45 7.66-3.7 1.66-7.58 2.96-11.42 4.29-7.07 2.45-14.15 4.89-21.27 7.19-5.35 1.72-3.24 6.6-3.94 9.93-1.14 5.43-.88 11.15-1.22 16.75-.43 7.17-.88 14.34-1.4 22.92 4.95-3.35 8.99-6.38 13.3-8.94 9.08-5.39 18.28-10.58 27.52-15.71 1.44-.8 3.33-.8 5.32-1.24.8 6.71-4.28 9.18-7.55 12.45-9.97 9.99-20.53 19.39-30.27 29.59-8.16 8.55-15.49 17.88-23.16 26.89-2.48 2.92-5.16 3.68-7.95.61-9.6-10.57-10.32-16.57-4.01-27.32 7.84-13.36 11.41-27.62 12.23-42.85.28-5.24.87-10.45 1.38-16.38-6.32 1.71-11.86 2.88-17.17 4.73-9.04 3.15-17.87 3.19-26.72-.44-.15-.06-.37.02-.49-.06-2.01-1.49-4-3-6-4.5 2.15-1.47 4.1-3.64 6.47-4.3 14.1-3.93 28.29-7.52 42.44-11.23.29-.08.53-.33 1.88-1.19-2.83-9.24-5.97-18.74-8.57-28.39-1.15-4.27-4.61-2.1-6.82-3.1-4.47-2.03-9.45-2.93-14.3-4.32 1.75-4.47 4.23-6.99 9.43-7.58 17.82-2.04 34.26-9.02 51.34-13.7 6.41-1.76 12.69-.6 18.28 3.08 1.26.83 2.87 2.87 2.6 3.92-.44 1.75-1.97 3.96-3.56 4.54-7.01 2.56-14.2 4.65-21.35 6.83-5.82 1.77-11.68 3.43-17.78 5.21 2.44 2.22 4.73 3.89 6.5 5.99 4.75 5.65.78 11.89.87 17.86 0 .73-.3 1.5-.72 3.57z"/><path d="m125.56 174.59c6.06-1.65 12.15-3.22 18.18-4.96 9.04-2.62 17.92-6.09 27.13-7.77 5.52-1 11.63.28 17.27 1.5 1.84.4 3.81 3.72 4.2 5.97.22 1.26-2.4 3.94-4.2 4.48-9.96 2.98-19.97 5.85-30.12 8.09-9.69 2.13-19.57 3.44-29.37 5.09-.49.08-1.08.18-1.49-.01-10.23-4.76-13.51 3.26-18.06 9.51-9.41 12.95-18.69 26.03-28.8 38.42-6.33 7.76-13.95 14.5-21.28 21.39-2.03 1.91-5.05 2.84-7.74 3.93-1.01.41-2.36.01-3.55-.02.07-1.34-.35-3.03.3-3.95 3.69-5.2 7.62-10.22 11.49-15.28 17.24-22.61 34.3-45.37 46.85-71.02 3.26-6.66 5.68-13.89 7.31-21.12.93-4.13-.3-8.82-.96-13.2-.67-4.45 1.32-7.16 5.49-6.5 7.95 1.26 14.68 5.13 20.62 10.34 2.2 1.93 3.93 4.41 5.75 6.73 2.2 2.81 1.07 4.84-1.32 7.13-6.46 6.2-12.62 12.7-18.9 19.08.42.71.81 1.44 1.2 2.17z"/><path d="m94.54 128.84c4.26-4.89 8.36-9.94 12.82-14.64 11.12-11.73 20.99-24.28 26.7-39.63 2.95-7.92 5.21-15.94 4.01-24.62-.94-6.77 3.44-10.05 9.53-6.94 5.46 2.79 10.62 6.24 15.61 9.83 3.45 2.48 2.53 5.9.45 8.98-1.88 2.8-3.86 5.54-5.26 9.5 6.44-1.23 12.89-2.42 19.33-3.69 9.41-1.85 18.78-3.97 28.24-5.56 5.07-.85 9.2 1.95 12.76 5.22 3.44 3.16 3.05 5.18-1.5 6.5-4.83 1.4-9.81 2.34-14.78 3.16-16.44 2.7-32.92 4.79-49.66 4.15-1.49-.06-3.51 1.09-4.49 2.32-6.95 8.67-13.63 17.57-20.53 26.28-6.07 7.66-13.52 13.79-22.33 18-3.05 1.46-6.63 1.81-9.97 2.67-.31-.5-.62-1.01-.93-1.53z"/><path d="m253.54 61.21c7.3-.95 13.88-1.52 20.34-2.71 10.72-1.97 21.32-4.56 32.05-6.47 6.75-1.2 13.18.72 19.03 4.09 1.41.81 2.98 3.15 2.76 4.5-.27 1.63-2.15 3.9-3.72 4.27-8.38 1.97-16.83 3.87-25.36 4.96-11.39 1.45-22.87 2.38-34.34 3.02-3.96.22-8.03-1.02-12.01-1.79-2.41-.47-3.79-.37-5.48 2.15-7.35 10.96-15.57 21.26-26.98 28.38-2.16 1.35-4.83 1.9-7.26 2.82-.29-.42-.59-.83-.88-1.25 4.52-7.31 9.18-14.53 13.52-21.94 5.66-9.69 9.66-19.99 9.75-31.41.03-3.26-.69-6.52-.92-9.79-.26-3.58 1.84-5.95 5.05-4.88 6.7 2.22 13.25 5.04 19.56 8.21 2.35 1.18 3.05 4.09 1.33 6.87-2.04 3.29-3.93 6.68-6.44 10.97z"/><path d="m287.12 125.36c13.96 3.53 27.29 6.08 38.02 15.27 6.01 5.15 5.92 12.6 6.56 19.37.48 5.06-8.16 7.62-13.21 3.67-11.62-9.09-22.99-18.49-34.18-28.11-1.77-1.52-2.87-4.85-2.66-7.19.12-1.22 3.76-2.13 5.47-3.01z"/><path d="m285.51 108.29c-1.03 1.72-2.09 4.93-4.3 6.78-2.98 2.49-5.93.69-8.64-1.77-7.16-6.5-14.71-12.57-21.72-19.21-1.46-1.39-1.25-4.54-1.82-6.87 2.12-.49 4.44-1.8 6.32-1.33 7.04 1.76 14.32 3.32 20.77 6.46 5.34 2.59 8.19 8.19 9.39 15.94z"/><path d="m180.72 118.14c-1.13 1.91-2 5.29-3.93 6.09-1.98.82-5.8-.07-7.43-1.64-6.1-5.9-11.78-12.25-17.24-18.75-1.16-1.38-1.38-4.35-.75-6.12.37-1.04 3.45-1.93 5.03-1.59 9.19 2.01 18.17 4.66 22.36 14.43.89 2.05 1.15 4.37 1.96 7.58z"/></g></svg>