<svg enable-background="new 0 0 400 400" viewBox="0 0 400 400" xmlns="http://www.w3.org/2000/svg"><path d="m5.17 384 .55-.58c.85.61 1.65 1.24 2.4 1.87l-.59.64c-.83-.73-1.62-1.38-2.36-1.93m1.22 9.53-.82-.34c.71-1.76 1.37-3.64 1.98-5.63.24.13.5.25.76.36-.6 1.67-1.24 3.54-1.92 5.61m-.5-13.5.57-.54c.56.44 1.31 1.06 2.26 1.87l-.64.64c-.68-.66-1.41-1.32-2.19-1.97m3.25.46h2.24v-1.36h.77v1.36h4.57v-1.36h.76v1.36h2.28v.69h-2.28v1.84h-2.64v1.26h4.18v2.64h-4.21c0 .45-.02.86-.05 1.21h4.32v.69h-4.38c-.04.34-.1.75-.19 1.22h5.15v.69h-4.82c.87 1.19 2.51 1.92 4.93 2.19-.17.31-.3.57-.37.76-2.77-.49-4.52-1.41-5.26-2.76-.56 1.26-2.3 2.23-5.24 2.9-.12-.24-.26-.48-.43-.72 2.73-.55 4.38-1.34 4.96-2.38h-4.38v-.69h4.65c.1-.38.17-.79.21-1.22h-4.32v-.69h4.4c.03-.34.05-.75.05-1.21h-4.2v-2.64h4.23v-1.26h-2.69v-1.84h-2.24zm1.46 4.46v1.29h3.45c.01-.4.02-.57.01-.53v-.32-.45h-3.46zm1.55-2.59h4.57v-1.19h-4.57zm6.11 2.59h-3.42v.77c-.01.19-.01.37-.02.53h3.44z" fill="#fafafa"/><path d="m32.63 379.16h.82v1.98h3.54v7.89h1.46v.78h-14.37v-.78h1.46v-7.89h3.54v-1.98h.82v1.98h2.73zm-3.49 11.48.5.73c-1.61.82-3.28 1.63-5 2.41-.13-.27-.28-.55-.44-.82 1.75-.72 3.4-1.49 4.94-2.32m-2.78-5.55h2.73v-3.18h-2.73zm0 3.95h2.73v-3.2h-2.73zm3.54-3.95h2.73v-3.18h-2.73zm0 3.95h2.73v-3.2h-2.73zm7.89 4.68c-1.84-.92-3.51-1.7-5.02-2.32l.45-.73c1.89.8 3.57 1.55 5.04 2.23zm-1.62-11.81h-2.73v3.18h2.73zm-2.73 7.13h2.73v-3.2h-2.73z" fill="#fafafa"/><g fill="#000001"><path d="m245.05 173.98c19.51-6.06 39.18-11.68 58.48-18.38 9.32-3.24 17.85-3.42 26.48.96 5.37 2.73 10.68 5.65 15.76 8.89 4.61 2.94 5.37 7.21 2.35 11.86-6.55 10.09-9.29 21.17-9.11 33.08.32 20.76.65 41.52 1 62.28.3 17.74-3.39 34.81-9.22 51.41-1.03 2.94-3.73 6.65-6.36 7.35-3.71.99-6.56-2.43-8.61-5.88-4.41-7.43-8.98-14.78-13.72-22.02-.79-1.2-2.77-2.43-4.11-2.34-10.8.76-21.59 1.71-32.36 2.84-11.06 1.17-22.09 2.61-33.09 3.92-.55 3.4-.68 6.57-1.68 9.43-.68 1.95-2.3 4.26-4.06 4.91-1.3.48-3.95-1.02-5.21-2.37-4.77-5.12-8.31-11.41-8.37-18.27-.1-12.88 1.28-25.77 1.65-38.67.32-11.32.19-22.66.12-33.98-.11-18.46-2.6-36.55-8.93-54-.39-1.07-.94-2.13-1.06-3.24-.15-1.44-.5-3.61.25-4.22 1.13-.91 3.49-1.48 4.71-.91 4.68 2.2 9.2 4.78 13.62 7.49 4.77 2.92 10.93 1.21 13.36-3.77 5.75-11.77 11.91-23.34 17.36-35.24 5.48-11.98 11.05-24.03 15.07-36.54 1.94-6.05 1.1-13.31.22-19.85-.53-3.91.31-5.02 3.65-5.78 9.41-2.13 17.94.88 26.44 4.23.45.18.79.63 1.24.77 10.39 3.23 9.24 9.79 2.52 17.39-10.4 11.76-19.85 24.37-29.44 36.83-9.37 12.17-18.42 24.59-27.59 36.92-.81 1.08-1.44 2.29-2.15 3.44.27.51.53.98.79 1.46zm-13.35 121.71c1.31.15 1.98.39 2.56.27 11.62-2.48 23.16-5.49 34.88-7.36 9.71-1.55 19.62-2.16 29.46-2.37 3.24-.07 6.54 2.38 9.8 3.69 1.58.64 3.7 2.28 4.6 1.76 1.42-.81 2.68-2.99 2.87-4.71.91-8.34 2-16.71 2.01-25.08 0-20.43-.35-40.86-1.01-61.28-.22-6.63-1.5-13.29-2.97-19.79-1.08-4.76-5.7-7.46-9.8-6.76-9.64 1.65-19.34 3.04-28.92 5.01-13.68 2.8-27.28 6.02-41.51 9.2-.95 16.14-1.89 32.07-2.8 47.63 17.51-3.82 34.8-7.52 52.06-11.39 7.86-1.76 17.74 2.67 21.42 10.71-11.51 5.4-24.17 4.49-36.12 6.7-12.19 2.26-24.49 3.85-36.52 5.7-.01 15.92-.01 31.95-.01 48.07z"/><path d="m137 184.05c0-14.45 0-28.26 0-42.07 0-16 .24-32-.08-47.99-.26-13.24-3.25-25.79-10.38-37.3-1.65-2.66-1.16-6.65-1.66-10.02 3.78-.33 8.34-2.16 11.19-.69 8.07 4.17 15.44 9.68 23.08 14.68 3.37 2.2 3.67 5.64 2.53 8.83-4.77 13.29-5.94 27.12-6.66 41.03-1.07 20.8-2.02 41.6-3 62.4-.08 1.61-.01 3.23-.01 4.24 8.33-1.09 16.2-2.79 24.1-2.89 4.23-.05 8.61 2.4 12.69 4.23 1.41.63 3.31 3.42 2.93 4.14-.95 1.8-2.85 3.66-4.77 4.29-8.79 2.91-17.71 5.42-26.6 8.05-2.65.79-5.32 1.52-8.17 2.33-.48 10.37-.97 20.75-1.45 31.1 11.39 2.44 22.33 4.14 31.84 10.42 6.13 4.05 8.24 10 8.32 16.73.07 5.81-5.15 8.29-9.94 4.89-8.78-6.24-17.4-12.72-26.1-19.08-1.01-.74-2.13-1.32-3.85-2.38v10.5c0 22.83.18 45.66-.09 68.48-.1 8.36-.91 16.76-2.03 25.06-.81 5.99-5.08 10.2-9.54 13.94-.57.48-2.62.09-3.25-.58-1.88-2.01-3.99-4.13-4.95-6.61-3.96-10.28-7.27-20.85-6.03-32.04.73-6.61 2.81-13.05 3.84-19.64 1.56-10.02 3.05-20.07 3.99-30.16 1.31-14.1 2.07-28.25 3.05-42.38.08-1.16.01-2.32.01-4.19-5.83 8.7-11.07 16.99-16.79 24.96-8.85 12.33-18.55 23.91-30.47 33.53-8.95 7.22-17.48 14.97-26.45 22.18-2.65 2.13-5.88 4.79-10.5.95 3.47-4.22 6.88-8.63 10.57-12.8 21.3-24.08 41.16-49.23 57.58-76.95 1.8-3.04 3.46-6.16 5.54-9.89-11.57 2.43-22.34 4.77-33.14 6.94-10.24 2.05-19.84.13-28.73-5.25-1.07-.65-2.61-2.6-2.37-2.99.77-1.25 2.14-2.61 3.51-2.94 6.49-1.54 13.06-2.71 19.6-4.07 17.49-3.64 34.98-7.3 52.64-10.99z"/><path d="m183.34 106.36c-.47-1.76-1.18-3.16-1.16-4.55.08-5.39 2.33-6.86 8.22-5.86 8.13 1.38 14.26 5.86 19.27 12.16 2.52 3.17 1.6 5.48-1.39 7.88-12.36 9.95-24.56 20.11-36.93 30.05-1.63 1.31-3.91 1.8-5.89 2.67.22-2.37-.21-5.07.79-7.05 4.55-9.02 9.62-17.77 14.25-26.75 1.38-2.69 1.95-5.8 2.84-8.55z"/><path d="m121.63 149.72c-1.37 4.54-2.21 8.9-4.02 12.81-1.53 3.29-4.85 5.08-8.08 2.16-3.8-3.45-7.5-7.22-10.36-11.46-4.72-7.01-8.93-14.38-12.91-21.84-1.64-3.07-4.4-6.15-2.35-10.36 1.21-2.48 2.91-3.06 5.04-1.95 11.04 5.74 21.58 12.27 29.48 22.1 1.82 2.25 2.18 5.66 3.2 8.54z"/></g></svg>