<svg enable-background="new 0 0 400 400" viewBox="0 0 400 400" xmlns="http://www.w3.org/2000/svg"><path d="m5.17 384 .55-.58c.85.61 1.65 1.24 2.4 1.87l-.59.64c-.83-.73-1.62-1.38-2.36-1.93m1.22 9.53-.82-.34c.71-1.76 1.37-3.64 1.98-5.63.24.13.5.25.76.36-.6 1.67-1.24 3.54-1.92 5.61m-.5-13.5.57-.54c.56.44 1.31 1.06 2.26 1.87l-.64.64c-.68-.66-1.41-1.32-2.19-1.97m3.25.46h2.24v-1.36h.77v1.36h4.57v-1.36h.76v1.36h2.28v.69h-2.28v1.84h-2.64v1.26h4.18v2.64h-4.21c0 .45-.02.86-.05 1.21h4.32v.69h-4.38c-.04.34-.1.75-.19 1.22h5.15v.69h-4.82c.87 1.19 2.51 1.92 4.93 2.19-.17.31-.3.57-.37.76-2.77-.49-4.52-1.41-5.26-2.76-.56 1.26-2.3 2.23-5.24 2.9-.12-.24-.26-.48-.43-.72 2.73-.55 4.38-1.34 4.96-2.38h-4.38v-.69h4.65c.1-.38.17-.79.21-1.22h-4.32v-.69h4.4c.03-.34.05-.75.05-1.21h-4.2v-2.64h4.23v-1.26h-2.69v-1.84h-2.24zm1.46 4.46v1.29h3.45c.01-.4.02-.57.01-.53v-.32-.45h-3.46zm1.55-2.59h4.57v-1.19h-4.57zm6.11 2.59h-3.42v.77c-.01.19-.01.37-.02.53h3.44z" fill="#fafafa"/><path d="m32.63 379.16h.82v1.98h3.54v7.89h1.46v.78h-14.37v-.78h1.46v-7.89h3.54v-1.98h.82v1.98h2.73zm-3.49 11.48.5.73c-1.61.82-3.28 1.63-5 2.41-.13-.27-.28-.55-.44-.82 1.75-.72 3.4-1.49 4.94-2.32m-2.78-5.55h2.73v-3.18h-2.73zm0 3.95h2.73v-3.2h-2.73zm3.54-3.95h2.73v-3.18h-2.73zm0 3.95h2.73v-3.2h-2.73zm7.89 4.68c-1.84-.92-3.51-1.7-5.02-2.32l.45-.73c1.89.8 3.57 1.55 5.04 2.23zm-1.62-11.81h-2.73v3.18h2.73zm-2.73 7.13h2.73v-3.2h-2.73z" fill="#fafafa"/><g fill="#000001"><path d="m217.76 312.55c3.45.34 6.92.57 10.36 1.04 5.33.72 10.62 1.93 15.97 2.21 1.58.08 4.27-2 4.74-3.6 1.23-4.18 1.97-8.63 2.08-12.99.28-10.82.65-21.7-.05-32.48-.84-12.86-2.76-25.65-4.38-40.05-9.91 5.27-18.66 9.5-26.98 14.46-8.75 5.22-13.53 4.58-19.39-3.78-.46-.66-.8-1.42-1.31-2.05-4.36-5.48-4.08-8.8.97-13.6 14.07-13.36 28.26-26.61 42.09-40.21 6.65-6.54 12.62-13.78 18.9-20.71-.22-.49-.44-.97-.66-1.46-7.69 1.71-15.52 2.95-23.02 5.27-7.89 2.45-15.56 5.71-23.15 9.04-7.24 3.17-10.95 2.14-14.6-4.91-5.13-9.9-5.26-12.2 3.21-19.58 14.62-12.73 23.96-28.98 32.78-45.78 6.45-12.28 12.89-24.54 15.97-38.18.68-3 .41-6.22.62-9.33.15-2.26-.34-6.01.68-6.49 2.41-1.13 6.15-1.83 8.28-.7 7.88 4.19 14.98 9.73 19.07 17.88 1.11 2.22.73 6.42-.72 8.47-5.75 8.14-12.33 15.7-18.36 23.65-8.99 11.85-17.83 23.82-26.65 35.8-2.8 3.8-5.36 7.78-7.92 11.75-.74 1.15-1.07 2.57-1.86 4.54 9.47 0 18.23.21 26.98-.08 5.71-.19 11.42-.96 17.08-1.79 1.6-.24 3.65-1.22 4.46-2.52 7.32-11.72 14.71-23.43 21.41-35.51 2.21-3.98 2.68-8.98 3.6-13.59 1.04-5.23 3.39-6.72 8.33-4.55 7.71 3.39 13.76 8.8 18.51 15.71 2.87 4.17 2.39 7.3-1.57 10.99-16.63 15.5-33.22 31.07-49.22 47.21-14.33 14.45-27.88 29.67-41.73 44.6-1.3 1.4-2.22 3.17-4.21 6.07 23.08-5.35 44.86-10.4 67.53-15.66-3.67-5.62-7.14-10.84-10.48-16.14-.93-1.47-1.84-3.17-2.03-4.85-.39-3.44 1.7-5.28 4.69-3.57 7.89 4.5 15.57 9.37 23.16 14.36 6.13 4.03 11.89 8.97 13.22 16.44.84 4.72.06 10.07-1.31 14.75-1.34 4.57-5.5 5.19-8.78 1.81-3.9-4.01-7.56-8.27-11.04-12.65-1.75-2.21-3.01-3.08-6.08-2-13.27 4.67-26.68 8.92-40.46 14.02 14.05 6.36 15.33 17.83 14.67 30.85-.72 14.29-.16 28.65-.16 42.98 0 7.87.3 15.75-.07 23.6-.54 11.69-5.12 22.14-11.07 32-1.66 2.76-6.46 2.6-9.5-.55-3.86-4.02-7.14-8.6-10.9-12.72-6.04-6.6-12.34-12.97-18.41-19.55-1.6-1.73-2.78-3.85-4.15-5.79.29-.66.57-1.37.86-2.08z"/><path d="m117.01 209.11c15.85-3.89 30.18-7.42 44.73-10.99-.34-5.68-7.75-11.07-1.44-18.76 3.83 2.66 8.07 5.03 11.59 8.2 5.32 4.8 11.36 9.38 11.66 17.56.14 3.86.51 7.81-3.96 10.01-4.63 2.27-7.53-.21-10.19-3.37-1.81-2.15-3.04-5.84-5.16-6.38-2.34-.6-5.39 1.64-8.16 2.55-18.07 5.94-34.11 15.52-48.83 27.4-3.75 3.03-6.94 4.03-10.62-.1-2.17-2.44-5.05-4.23-7.38-6.54-4.52-4.48-4.64-9.53.28-13.62 17.91-14.89 30.26-34.51 44.96-52.13.82-.98 1.29-2.24 2.4-4.21-7.93 1.62-15.33 2.84-22.57 4.68-7.39 1.88-14.66 4.27-21.92 6.63-8.82 2.86-11.74 1.59-15.35-7.1-3.39-8.16-2.05-11.52 5.09-17.05 9.62-7.45 17.18-16.84 22.76-27.65 7.48-14.49 14.96-29 21.77-43.81 2.93-6.37 4.84-13.26 3.47-20.75-1.17-6.41 2.91-9.04 9.05-5.89 7.4 3.8 13.56 9.31 17.77 16.5 3.17 5.41 1.65 7.61-3.8 14.03-17.92 21.1-34.05 43.51-49.13 66.7-.52.8-.77 1.76-1.52 3.52 2.21.54 4.1 1.38 6.01 1.4 10.66.13 21.33.19 31.99-.07 1.67-.04 3.87-1.43 4.87-2.86 7.58-10.86 14.68-22.04 17.66-35.2.97-4.28 1.47-8.67 1.94-13.04.44-4.07 4.15-7.35 7.4-5.43 6.86 4.05 13.73 8.34 19.69 13.56 4.75 4.16 4.02 8.18-.61 13.14-6.15 6.59-12.67 12.87-18.56 19.68-9.87 11.42-19.43 23.11-29.03 34.77-7.29 8.86-14.47 17.82-21.61 26.81-1.71 2.13-3.07 4.53-5.25 7.81z"/><path d="m348.1 299.02c-.36 1.81-.55 4.13-1.31 6.25-1.41 3.93-6.99 5.91-9.87 2.99-5.34-5.41-10.05-11.45-14.92-17.31-8.59-10.33-17.21-20.64-25.58-31.15-2.18-2.74-3.67-6.09-5.11-9.32-.36-.81.44-2.5 1.2-3.33.5-.55 2.06-.69 2.84-.34 15.22 6.85 30.15 14.02 42.28 26.1 7.34 7.3 9.2 16.19 10.47 26.11z"/><path d="m96.17 296.18c-1.55 4.44-2.55 7.85-3.92 11.1-2.75 6.54-8.22 6.34-13.09.69-2.89-3.36-4.45-7.87-6.58-11.88-5.3-9.94-10.6-19.88-15.86-29.84-.68-1.28-1.69-2.73-1.58-4.02.21-2.53.42-5.67 1.96-7.25.87-.88 4.9.21 6.67 1.53 10.26 7.67 20.94 15.08 27.51 26.48 2.37 4.11 3.38 9.02 4.89 13.19z"/><path d="m171.95 299.21c1.54-3.71 2.71-7.96 4.92-11.56 5.8-9.41 11.95-18.62 18.26-27.71 1.22-1.76 3.77-2.61 5.71-3.88 1.05 2.2 2.87 4.34 3.03 6.59.82 11.97-.67 23.74-5.96 34.6-3.44 7.06-8.62 12.73-16.25 15.95-3.4 1.43-5.16.07-6.2-2.43-1.41-3.4-2.18-7.06-3.51-11.56z"/><path d="m105.51 244.96c7.59 4.94 15.54 9.42 22.66 14.96 5.73 4.46 6.46 14.26 2.72 20.26-1.96 3.15-6.62 4.14-8.82 1.23-6.58-8.7-12.96-17.58-18.85-26.75-1.28-2-.19-5.52-.19-8.34.83-.45 1.65-.9 2.48-1.36z"/><path d="m171.23 253.28c-1.72 2.98-2.69 6.85-5.11 8.3-3.08 1.85-6.75-.07-9.09-3.06-5.07-6.51-10.27-12.94-14.92-19.74-1.12-1.64-.93-4.84-.11-6.81.35-.85 3.99-.98 5.86-.46 7.62 2.13 14.78 5.33 19.28 12.27 1.69 2.59 2.52 5.75 4.09 9.5z"/></g></svg>