<svg enable-background="new 0 0 400 400" viewBox="0 0 400 400" xmlns="http://www.w3.org/2000/svg"><path d="m5.17 384 .55-.58c.85.61 1.65 1.24 2.4 1.87l-.59.64c-.83-.73-1.62-1.38-2.36-1.93m1.22 9.53-.82-.34c.71-1.76 1.37-3.64 1.98-5.63.24.13.5.25.76.36-.6 1.67-1.24 3.54-1.92 5.61m-.5-13.5.57-.54c.56.44 1.31 1.06 2.26 1.87l-.64.64c-.68-.66-1.41-1.32-2.19-1.97m3.25.46h2.24v-1.36h.77v1.36h4.57v-1.36h.76v1.36h2.28v.69h-2.28v1.84h-2.64v1.26h4.18v2.64h-4.21c0 .45-.02.86-.05 1.21h4.32v.69h-4.38c-.04.34-.1.75-.19 1.22h5.15v.69h-4.82c.87 1.19 2.51 1.92 4.93 2.19-.17.31-.3.57-.37.76-2.77-.49-4.52-1.41-5.26-2.76-.56 1.26-2.3 2.23-5.24 2.9-.12-.24-.26-.48-.43-.72 2.73-.55 4.38-1.34 4.96-2.38h-4.38v-.69h4.65c.1-.38.17-.79.21-1.22h-4.32v-.69h4.4c.03-.34.05-.75.05-1.21h-4.2v-2.64h4.23v-1.26h-2.69v-1.84h-2.24zm1.46 4.46v1.29h3.45c.01-.4.02-.57.01-.53v-.32-.45h-3.46zm1.55-2.59h4.57v-1.19h-4.57zm6.11 2.59h-3.42v.77c-.01.19-.01.37-.02.53h3.44z" fill="#fafafa"/><path d="m32.63 379.16h.82v1.98h3.54v7.89h1.46v.78h-14.37v-.78h1.46v-7.89h3.54v-1.98h.82v1.98h2.73zm-3.49 11.48.5.73c-1.61.82-3.28 1.63-5 2.41-.13-.27-.28-.55-.44-.82 1.75-.72 3.4-1.49 4.94-2.32m-2.78-5.55h2.73v-3.18h-2.73zm0 3.95h2.73v-3.2h-2.73zm3.54-3.95h2.73v-3.18h-2.73zm0 3.95h2.73v-3.2h-2.73zm7.89 4.68c-1.84-.92-3.51-1.7-5.02-2.32l.45-.73c1.89.8 3.57 1.55 5.04 2.23zm-1.62-11.81h-2.73v3.18h2.73zm-2.73 7.13h2.73v-3.2h-2.73z" fill="#fafafa"/><g fill="#000001"><path d="m206.68 319.05c-.86 3.77-1.4 6.99-2.35 10.08-.95 3.1-2.85 4.11-5.38 1.32-5.81-6.41-9.9-13.56-11.04-22.42-1.89-14.75-3.55-29.59-6.69-44.09-3.23-14.9-8.15-29.44-12.28-44.14-.48-1.71-1.31-3.8-.72-5.18.56-1.31 2.9-2.88 4.21-2.68 5.14.77 10.15 2.31 15.27 3.29 1.33.26 3.45.07 4.19-.78 6.78-7.81 13.38-15.78 19.9-23.81 1.32-1.62 2.82-3.6 3.01-5.54.57-5.97 4.62-4.97 7.37-3.2 5.33 3.44 10.32 7.55 14.91 11.95 2.47 2.37 1.12 5.43-1.73 7.02-12.22 6.83-24.48 13.61-36.84 20.18-4.02 2.14-5.04 4.57-4.06 9.16 1.45 6.7 1.72 13.65 2.57 20.49.22 1.74.73 3.45 1.19 5.51 13.21-6.28 26.31-11.59 40.66-5.66 2.89 1.19 5.12 3.97 7.48 5.89-3.72 6.49-9.76 5.21-14.59 6.35-9.36 2.2-18.9 3.61-28.4 5.15-2.72.44-3.49 1.1-2.91 4.15 1.8 9.47 3.18 19.02 4.48 28.57.44 3.23 1.63 4.75 5.03 4.36 6.69-.77 13.42-1.19 20.08-2.15 10.02-1.44 19.98-3.22 29.97-4.86 8.06-1.32 16.08-2.89 24.18-3.88 7.97-.97 15.38.62 21.19 6.78 1.6 1.69 3.15 3.43 4.7 5.13 5.93-3.99 4.76-10.2 5.76-15.36 2.05-10.56 3.32-21.28 4.98-32.39-6.47.34-12.95.61-19.43 1.03-7.72.5-15.45 1.57-23.15 1.44-2.79-.05-5.54-2.83-8.17-5.28 16.88-5.52 33.66-9.79 52.24-8.65.23-10.83.68-21.55.54-32.27-.05-3.7-1.87-6.88-6.72-6.58-12.36.76-24.73 1.65-37.1 1.92-7.28.16-13.68-2.55-18.83-9.92 4.74-.73 8.79-2.01 12.78-1.85 14.17.55 27.97-2.02 41.1-6.47 14.1-4.78 24.38 1 34.13 9.25 9.04 7.65 8.71 7.97 2.27 18.14-6.18 9.76-8.5 20.64-9.56 31.99-1.05 11.26-3.05 22.44-3.81 33.71-.88 13.02-3.48 25.56-8.2 37.64-2.06 5.29-4.52 10.49-7.4 15.36-3.17 5.36-7.22 5.34-10.29-.16-3.48-6.24-6.45-12.81-9.19-19.42-1.74-4.19-3.6-6.66-8.87-6.31-15.68 1.03-31.43 1.04-47.09 2.27-13.18 1.05-26.29 3.24-39.39 4.92z"/><path d="m136.56 220.76c-19.22 7.77-37.7 15.84-54.39 27.53-8.07 5.65-15.7 3.78-21.07-4.99-2.5-4.08-2.23-7.94 1.37-11.27 16.68-15.4 28.82-34.47 42.3-52.45 1.46-1.94 2.72-4.03 4.4-6.55-16.65 4.06-32.84 7.54-47.79 15.1-4.46 2.26-9.37-.67-12.23-6.79-3.56-7.64-3.43-10.17 3.1-15.97 21.8-19.36 33.27-45.18 44.64-71.02 2.79-6.33 4.16-13.3 5.88-20.06.4-1.59-.37-3.5-.71-5.25-1.38-7.13 1.48-10.44 7.94-7.79 8.3 3.4 14.92 9.41 19 17.67 2.37 4.8-1.78 7.64-4.11 10.51-18.28 22.48-34.19 46.6-49.65 71.04-2.38 3.76-1.41 5.76 2.96 5.45 9.49-.68 18.98-2.74 28.41-2.46 8.2.24 10.94-4.07 13.87-10.2 4.73-9.9 9.79-19.54 9.56-30.96-.11-5.43 3.71-7.77 8.61-5.32 4.52 2.26 9.22 4.45 13.09 7.59 3.25 2.64 5.43 6.61 7.79 9.62-25.94 29.5-49.62 59.09-71.32 90.23.36.57.73 1.14 1.09 1.71 3.45-.81 6.93-1.51 10.34-2.45 10.34-2.84 20.62-5.93 31.02-8.57 3.12-.79 3.71-1.67 2.64-4.69-1.13-3.18-1.64-6.61-2.07-9.98-.14-1.07.67-3.15 1.31-3.27 1.5-.26 3.7-.18 4.67.76 4.51 4.37 8.48 9.31 13.06 13.59 4.73 4.41 5.79 9.77 4.56 15.53-.59 2.78-2.42 6.67-4.54 7.34-2.04.65-5.81-1.63-7.71-3.66-2.49-2.65-3.9-6.32-6.02-9.97z"/><path d="m194.8 119.21c-.78-.35-2.19-.99-3.61-1.63 1.23-1.52 2.14-3.73 3.73-4.46 19.2-8.78 37.71-18.75 54.82-31.14 4.25-3.07 8.22-6.6 11.9-10.34 1.45-1.47 1.88-4.03 2.53-6.17 1.56-5.1 3.95-7.17 8.72-5.27 9.63 3.83 19.06 8.24 28.21 13.09 2.03 1.07 4.18 5.67 3.42 7.32-1 2.15-4.7 3.46-7.49 4.29-7.78 2.32-15.94 3.53-23.48 6.41-13.65 5.22-26.77 11.83-40.46 16.93-11.24 4.19-22.98 7.04-34.5 10.44-.91.28-1.93.29-3.79.53z"/><path d="m265.24 175.8c2.26-3.1 4.32-6.38 6.81-9.28 10.92-12.74 21.93-25.39 32.98-38.02 3.96-4.53 5.47-9.95 5.91-15.71.24-3.11 1.56-3.59 4.38-3.14 9.49 1.5 16.33 7.24 22.57 13.86 2.49 2.64 1.44 6.21-2.12 8.54-9.83 6.42-19.76 12.68-29.5 19.22-11.77 7.91-23.36 16.07-35.08 24.06-1.33.91-2.96 1.37-4.45 2.05-.5-.53-1-1.06-1.5-1.58z"/><path d="m87.92 319.32c-1.84 4.56-3.49 9.81-6.03 14.57-2.28 4.28-7.52 4.89-10.25.97-3.57-5.13-6.33-10.89-8.9-16.62-4.79-10.68-9.26-21.51-13.72-32.34-.98-2.37-1.82-4.97-1.86-7.48-.03-1.7 1.03-4.26 2.36-4.92 1.32-.66 4.06.01 5.34 1.08 4.93 4.13 10.04 8.24 14.13 13.15 5.71 6.87 10.76 14.34 15.68 21.82 1.63 2.47 1.98 5.76 3.25 9.77z"/><path d="m261.68 146.97c-1.11 3.28-1.64 6.07-2.94 8.44-2.35 4.29-7.47 4.77-11.42 1.41-9.29-7.9-15.45-18.26-22.01-28.28-.84-1.29-1.02-3.08-1.28-4.68-.62-3.81 1.81-5.79 4.83-4.66 10.5 3.92 21.7 7.08 28.15 17.45 2.02 3.24 3.2 7 4.67 10.32z"/><path d="m177.99 137.15c8.55-.85 14.24 4.09 20.07 8 6.07 4.08 12.32 8.34 14.16 16.35 1.01 4.4-.03 8.25-3.37 10.91-2.96 2.36-6.41.97-8.7-1.46-5.6-5.95-11.03-12.08-16.18-18.43-2.41-2.97-4.26-6.48-5.87-9.96-.68-1.48-.11-3.54-.11-5.41z"/><path d="m122.5 292.22c-.58 2.33-.69 4.22-1.51 5.73-1.17 2.15-2.77 5.56-4.36 5.66-2.49.15-6.29-1.3-7.5-3.31-5.78-9.59-11-19.52-16.06-29.51-.83-1.64.11-4.19.24-6.32 1.97.39 4.43.17 5.82 1.29 7.07 5.69 14.15 11.43 20.6 17.8 1.98 1.97 1.97 5.95 2.77 8.66z"/><path d="m156.08 274.72c-1.53 2.31-2.71 6.15-4.79 6.71-2.3.63-5.9-1.15-8.09-2.92-6.44-5.2-9.86-12.53-12.39-20.21-.41-1.23.06-3.28.93-4.22.73-.8 2.93-1.17 3.93-.66 6.51 3.34 13.48 6.23 17.26 13.1 1.2 2.19 1.83 4.71 3.15 8.2z"/></g></svg>