<svg enable-background="new 0 0 400 400" viewBox="0 0 400 400" xmlns="http://www.w3.org/2000/svg"><path d="m5.17 384 .55-.58c.85.61 1.65 1.24 2.4 1.87l-.59.64c-.83-.73-1.62-1.38-2.36-1.93m1.22 9.53-.82-.34c.71-1.76 1.37-3.64 1.98-5.63.24.13.5.25.76.36-.6 1.67-1.24 3.54-1.92 5.61m-.5-13.5.57-.54c.56.44 1.31 1.06 2.26 1.87l-.64.64c-.68-.66-1.41-1.32-2.19-1.97m3.25.46h2.24v-1.36h.77v1.36h4.57v-1.36h.76v1.36h2.28v.69h-2.28v1.84h-2.64v1.26h4.18v2.64h-4.21c0 .45-.02.86-.05 1.21h4.32v.69h-4.38c-.04.34-.1.75-.19 1.22h5.15v.69h-4.82c.87 1.19 2.51 1.92 4.93 2.19-.17.31-.3.57-.37.76-2.77-.49-4.52-1.41-5.26-2.76-.56 1.26-2.3 2.23-5.24 2.9-.12-.24-.26-.48-.43-.72 2.73-.55 4.38-1.34 4.96-2.38h-4.38v-.69h4.65c.1-.38.17-.79.21-1.22h-4.32v-.69h4.4c.03-.34.05-.75.05-1.21h-4.2v-2.64h4.23v-1.26h-2.69v-1.84h-2.24zm1.46 4.46v1.29h3.45c.01-.4.02-.57.01-.53v-.32-.45h-3.46zm1.55-2.59h4.57v-1.19h-4.57zm6.11 2.59h-3.42v.77c-.01.19-.01.37-.02.53h3.44z" fill="#fafafa"/><path d="m32.63 379.16h.82v1.98h3.54v7.89h1.46v.78h-14.37v-.78h1.46v-7.89h3.54v-1.98h.82v1.98h2.73zm-3.49 11.48.5.73c-1.61.82-3.28 1.63-5 2.41-.13-.27-.28-.55-.44-.82 1.75-.72 3.4-1.49 4.94-2.32m-2.78-5.55h2.73v-3.18h-2.73zm0 3.95h2.73v-3.2h-2.73zm3.54-3.95h2.73v-3.18h-2.73zm0 3.95h2.73v-3.2h-2.73zm7.89 4.68c-1.84-.92-3.51-1.7-5.02-2.32l.45-.73c1.89.8 3.57 1.55 5.04 2.23zm-1.62-11.81h-2.73v3.18h2.73zm-2.73 7.13h2.73v-3.2h-2.73z" fill="#fafafa"/><g fill="#000001"><path d="m264.67 148.1c3.55 3.92 7.2 7.28 9.94 11.27 1.27 1.84 1.68 5.24.91 7.36-4.58 12.67-9.52 25.21-14.53 37.71-7.63 19.04-14.54 38.44-23.35 56.92-10.54 22.09-24.93 41.9-43.67 57.85-9.48 8.07-20.54 14.27-30.95 21.22-.86.57-2.18.46-4.78.93 1.15-2.54 1.56-4.34 2.61-5.6 7.59-9.09 15.65-17.8 22.9-27.14 9.71-12.52 19.87-24.89 27.92-38.47 8.61-14.51 15.8-30.03 22.1-45.71 5.37-13.37 9.21-27.45 12.56-41.5 2.44-10.26 4.53-20.93 1.2-32.05-8.85 2.19-17.76 3.97-26.38 6.66-10.45 3.26-18.98.11-26.61-6.71-1.37-1.22-2.27-3.65-2.21-5.49.03-.85 2.8-2.08 4.45-2.32 4.05-.6 8.19-.61 12.26-1.07 12.21-1.37 24.54-2.19 36.59-4.45 15.33-2.88 30.49-6.79 45.63-10.6 7.71-1.94 15.16-4.86 22.86-6.86 2.64-.69 6.12-.82 8.41.36 7.07 3.66 13.84 7.94 20.56 12.24 3.99 2.55 3.56 6.2 1.68 10.01-2.79 5.68-6.33 11.2-7.94 17.22-2.35 8.78-3.6 17.9-4.72 26.95-1.62 13.03-2.38 26.17-4.09 39.18-2 15.22-3.88 30.52-7.17 45.49-4.63 21.12-10.95 41.8-26.77 57.81-3.86 3.9-8.08 8.15-14.27 7.67-2.72-.21-6.39-.97-7.84-2.86-8.93-11.66-17.4-23.68-25.88-35.68-1.01-1.44-1.14-3.5-1.68-5.27 1.82.08 3.77-.24 5.44.31 5.88 1.91 11.62 4.24 17.49 6.17 11.67 3.84 15.74 2.08 20.8-8.52 4.59-9.62 8.01-19.95 10.73-30.29 3.65-13.84 6.65-27.9 8.94-42.02 1.84-11.33 2.17-22.9 3.24-34.36.58-6.21 1.73-12.4 1.79-18.61.06-6.03-.45-12.17-1.65-18.08-1.17-5.8-4.44-6.99-12.58-5.73-10.32 1.6-20.63 3.29-30.94 5-1.14.19-2.18.76-3 1.06z"/><path d="m111.16 229.31c18.62-3.63 35.84-6.99 53.67-10.47-.13 4.39-.8 6.14-4.17 7.41-14.92 5.63-29.75 11.51-44.39 17.83-5.79 2.5-11.08 6.21-16.4 9.68-2.91 1.9-5.07 1.71-7.38-.75-2.33-2.49-4.93-4.74-7.21-7.28-3.4-3.78-3.52-8.65.32-11.73 16.11-12.95 27.46-30.07 40.51-45.69.69-.83.99-1.99 1.91-3.92-10.24 1.82-19.74 3.29-29.13 5.23-7.15 1.48-14.29 3.25-21.23 5.52-3.44 1.12-5.67-.48-7.1-2.4-2.29-3.08-4.48-6.71-5.1-10.38-.46-2.74.82-6.62 2.72-8.75 4.84-5.41 11.03-9.65 15.63-15.22 5.37-6.51 10.15-13.64 14.25-21.02 7.13-12.83 13.96-25.88 20.13-39.19 4.65-10.04 8.86-20.41 5.92-32.13-1.17-4.66 4.51-7.84 9.65-4.37 6.82 4.6 12.87 10.54 18.49 16.61 1.33 1.44.66 6.43-.84 8.53-11.51 16.08-23.67 31.69-35.2 47.76-7.41 10.33-14.07 21.18-21.1 31.79-3.63 5.48-2.99 7.25 3.39 7.58 10.25.54 20.61.02 30.74 1.32 6.01.77 8.13-1.85 10.2-6.18 4.84-10.12 10.02-20.09 14.48-30.37 1.56-3.61 1.34-7.97 2.1-11.95.61-3.19 2.89-4.98 5.73-3.27 6.39 3.84 12.92 7.69 18.46 12.59 4.46 3.94 3.79 7.02-.63 11.78-6.48 6.97-13.4 13.55-19.61 20.76-11.57 13.43-22.8 27.15-34.09 40.81-3.96 4.8-7.73 9.77-11.52 14.7-.93 1.25-1.66 2.68-3.2 5.17z"/><path d="m172.34 261.23c-2.34 2.57-4.28 5.73-7.08 7.62-24.58 16.59-49.47 32.71-73.88 49.54-6.46 4.45-11.64 3.02-17.47.06-4.22-2.15-8.5-4.21-12.69-6.42-3.66-1.93-6.14-5-4.99-9.19 1.02-3.73 4.71-4.09 8.16-4.96 8.79-2.22 17.57-4.65 26.07-7.79 16.46-6.08 32.75-12.63 49.07-19.11 7.55-3 14.93-6.45 22.5-9.41 2.81-1.1 5.94-1.42 8.92-2.09.45.57.92 1.16 1.39 1.75z"/><path d="m212.04 203.15c-1.19 12.35-1.46 25-9.9 35.22-2.43 2.94-5.63 5.28-8.64 7.71-2.56 2.07-4.99.99-6.17-1.54-2.55-5.47-4.47-11.19-1.4-17.18 5.65-11.04 11.27-22.09 17.1-33.03.74-1.38 2.54-2.82 3.99-2.98.92-.11 2.58 1.93 3.06 3.3.96 2.72 1.34 5.65 1.96 8.5z"/></g></svg>