<svg enable-background="new 0 0 400 400" viewBox="0 0 400 400" xmlns="http://www.w3.org/2000/svg"><path d="m5.17 384 .55-.58c.85.61 1.65 1.24 2.4 1.87l-.59.64c-.83-.73-1.62-1.38-2.36-1.93m1.22 9.53-.82-.34c.71-1.76 1.37-3.64 1.98-5.63.24.13.5.25.76.36-.6 1.67-1.24 3.54-1.92 5.61m-.5-13.5.57-.54c.56.44 1.31 1.06 2.26 1.87l-.64.64c-.68-.66-1.41-1.32-2.19-1.97m3.25.46h2.24v-1.36h.77v1.36h4.57v-1.36h.76v1.36h2.28v.69h-2.28v1.84h-2.64v1.26h4.18v2.64h-4.21c0 .45-.02.86-.05 1.21h4.32v.69h-4.38c-.04.34-.1.75-.19 1.22h5.15v.69h-4.82c.87 1.19 2.51 1.92 4.93 2.19-.17.31-.3.57-.37.76-2.77-.49-4.52-1.41-5.26-2.76-.56 1.26-2.3 2.23-5.24 2.9-.12-.24-.26-.48-.43-.72 2.73-.55 4.38-1.34 4.96-2.38h-4.38v-.69h4.65c.1-.38.17-.79.21-1.22h-4.32v-.69h4.4c.03-.34.05-.75.05-1.21h-4.2v-2.64h4.23v-1.26h-2.69v-1.84h-2.24zm1.46 4.46v1.29h3.45c.01-.4.02-.57.01-.53v-.32-.45h-3.46zm1.55-2.59h4.57v-1.19h-4.57zm6.11 2.59h-3.42v.77c-.01.19-.01.37-.02.53h3.44z" fill="#fafafa"/><path d="m32.63 379.16h.82v1.98h3.54v7.89h1.46v.78h-14.37v-.78h1.46v-7.89h3.54v-1.98h.82v1.98h2.73zm-3.49 11.48.5.73c-1.61.82-3.28 1.63-5 2.41-.13-.27-.28-.55-.44-.82 1.75-.72 3.4-1.49 4.94-2.32m-2.78-5.55h2.73v-3.18h-2.73zm0 3.95h2.73v-3.2h-2.73zm3.54-3.95h2.73v-3.18h-2.73zm0 3.95h2.73v-3.2h-2.73zm7.89 4.68c-1.84-.92-3.51-1.7-5.02-2.32l.45-.73c1.89.8 3.57 1.55 5.04 2.23zm-1.62-11.81h-2.73v3.18h2.73zm-2.73 7.13h2.73v-3.2h-2.73z" fill="#fafafa"/><g fill="#000001"><path d="m208 231.37c-12.27 2.49-23.57 4.93-34.92 7.04-7.74 1.44-15.56 3.27-23.36 3.34-6.78.06-12.7-3.35-16-11.8 29.26-4.44 58.05-8.8 88.27-13.39-1.32-6.53-2.65-12.82-3.85-19.13-.39-2.02-.47-4.1-.69-6.15 2.84-.25 6.26-1.62 8.41-.52 4.74 2.43 9.41 5.6 12.97 9.5 1.93 2.11 1.55 6.34 2.16 9.62.15.8.09 1.63.16 3.26 6.36-1.2 12.48-2.45 18.63-3.49 15.93-2.68 31.51-8.31 47.86-7.45 9.97.53 19.59 3.59 26.11 12.13 2.7 3.53 1.74 5.96-2.64 7.02-3.64.88-7.41 1.48-11.15 1.6-15.76.48-31.55.48-47.3 1.15-11.06.47-22.08 1.75-34.48 2.79 14.49 12.61 27.47 24.76 41.36 35.77 15.11 11.99 31.68 21.84 49.54 29.37 8.55 3.61 17.1 7.25 25.63 10.91 1.32.57 2.68 1.15 3.84 1.99.95.7 1.63 1.78 2.42 2.69-1.05.82-2.01 2.16-3.17 2.38-7.85 1.47-15.72 2.86-23.62 3.96-6.5.9-13.04 1.7-19.59 1.92-7.36.25-14.39-1.46-19.47-7.32-8.92-10.31-17.71-20.75-26.39-31.26-9.77-11.82-19.37-23.78-29.73-36.52v6.15c0 33.33.09 66.67-.12 100-.03 4.11-1.2 8.41-2.7 12.28-2.28 5.91-7.1 6.45-10.01.98-4.31-8.13-8.32-16.51-11.38-25.17-1.23-3.48.22-7.98.71-11.99 1.08-8.93 2.75-17.81 3.4-26.77 1.2-16.33 1.83-32.7 1.8-49.21-4.89 6.93-9.18 14.4-14.78 20.69-15.97 17.94-31.24 36.77-53.6 47.61-7.6 3.69-14.65 8.82-24.85 7.33 1.14-1.75 1.7-3.48 2.89-4.33 18.34-13.02 35.43-27.53 50.68-44.03 11.35-12.29 21.44-25.58 26.96-42.95z"/><path d="m135.72 210.36c-1.39 1.54-2.49 3.84-4.22 4.52-19 7.47-37.71 15.42-54.67 27.06-5.66 3.89-13.14.8-17.66-6.49-2.93-4.73-.89-8.99 4.31-13.85 5.22-4.89 9.61-10.76 13.87-16.56 7.49-10.21 14.61-20.7 21.89-31.07-.23-.48-.47-.97-.7-1.45-6.09 1.28-12.26 2.27-18.25 3.9-7.36 1.99-14.67 4.3-21.84 6.88-4.22 1.52-7.08.19-9.37-3.06-6.8-9.67-6.86-13.11 1.8-21.48 22.76-21.99 33.17-50.57 42.69-79.51 1.83-5.58.51-12.27.23-18.43-.17-3.72 1.18-5.65 4.83-4.69 3.07.81 6.35 1.92 8.76 3.86 4.93 3.97 9.7 8.28 13.75 13.11 1.21 1.44.71 5.67-.56 7.6-7.86 12-16.47 23.52-24.24 35.58-8.47 13.14-16.4 26.64-24.37 40.1-2.5 4.22-1.24 6.48 3.46 6.57 9.32.16 18.66.12 27.98-.04 1.2-.02 2.92-.91 3.49-1.91 7.78-13.85 15.1-27.9 15.11-44.4 0-3.82 2.67-5.7 5.49-4.39 6.44 2.98 12.98 6.22 18.45 10.64 4.74 3.82 4.17 6.96-.08 11.74-22.01 24.76-40.14 52.41-59.25 79.33-.56.8-1.2 1.67-1.37 2.59-.39 2.09-.26 3.36 2.76 2.62 13.57-3.34 27.22-6.41 40.85-9.52 1.87-.42 3.81-.49 5.72-.72.38.49.76.98 1.14 1.47z"/><path d="m271.38 88.32c2.25 1.75 4.44 3.21 6.32 5 .92.87 2.1 2.81 1.73 3.43-.8 1.36-2.4 2.89-3.86 3.1-6.65.95-13.38 1.37-20.06 2.18-11.04 1.34-22.07 2.79-33.1 4.27-5.01.67-9.99 1.53-14.96 2.29-.57 2.7-1.16 5.53-1.77 8.47-7.05-.19-9.57-5.43-11.62-10.14-5.69-13.12-10.7-26.54-16.09-39.79-1.28-3.14-3.05-6.08-4.49-9.16-1.17-2.49-.11-3.95 2.5-3.92 3.45.03 6.93.76 10.35.54 6.49-.41 13.11-.61 19.4-2.1 17.38-4.11 34.53-9.27 51.96-13.13 8.34-1.84 15.96 2.22 22.92 6.79 2.31 1.52 4.46 3.29 6.71 4.9 4.79 3.43 5.7 10.5.97 13.7-8.62 5.85-12.57 14.7-16.91 23.57zm-72.89-23.43c-.28 1-.49 1.34-.43 1.62 1.99 9.56 3.92 19.14 6.19 28.63.21.86 2.78 1.9 4.02 1.65 14.37-2.84 28.7-5.87 43.01-9 1.36-.3 3.35-1.4 3.6-2.47 1.91-8.23 3.77-16.5 4.98-24.85.54-3.69-2.77-5.94-6.41-5.28-3.2.57-6.38 1.24-9.58 1.8-15.23 2.66-30.45 5.3-45.38 7.9z"/><path d="m303.26 154.12c3.15 2.19 5.4 3.33 7.06 5.04 1.25 1.29 2.7 3.58 2.32 4.92-.38 1.3-2.9 2.56-4.62 2.8-6.66.93-13.38 1.33-20.06 2.13-10.2 1.22-20.39 2.6-30.32 3.88-.6 2.26-.93 4.02-1.56 5.66-.58 1.52-1.46 2.93-2.21 4.39-1.45-.98-3.09-1.76-4.32-2.96-6-5.83-6.26-13.99-8.6-21.35-2.85-8.96-6.37-17.7-9.38-26.62-.99-2.92-1.26-6.09-1.87-9.14 3.19-.08 6.66-1 9.52-.06 8.02 2.64 15.73.58 23.23-1.23 9.26-2.24 18.35-5.46 27.22-8.98 6.37-2.53 11.33-.63 16.28 2.9 2.8 1.99 5.46 4.17 8.28 6.12 5.33 3.68 5.85 5.64 2.64 10.77-4.48 7.14-8.95 14.29-13.61 21.73zm-48.02 6.83c1.66 0 3.18.29 4.55-.05 8.37-2.02 16.68-4.28 25.06-6.26 3.51-.83 3.74-3.44 4.15-6.17.79-5.16 1.2-10.43 2.6-15.42 1.14-4.04-.96-5.26-3.8-5.9-2.21-.5-4.69-.41-6.95 0-8.33 1.49-16.59 3.32-24.92 4.81-2.98.53-4.38 1.79-3.95 4.88 1.1 7.91 2.15 15.83 3.26 24.11z"/><path d="m214.89 167.24c2.29 1.35 4.62 2.49 6.69 4.01 2.54 1.87 2.14 4.78-.89 5.64-3.58 1.01-7.33 1.48-11.03 2.05-12.41 1.93-24.82 3.81-36.9 5.66-.89 4.3-1.63 7.87-2.46 11.88-6.78-2.66-8.75-7.86-10.23-13.18-2.84-10.18-5.25-20.48-8.11-30.65-1.14-4.05-3.1-7.86-4.54-11.84-1.25-3.47.17-5.14 3.79-4.79 1.77.17 3.76.23 5.24 1.06 6.98 3.94 13.91 1.74 20.63-.27 6.37-1.91 12.67-4.34 18.63-7.28 4.44-2.19 8.27-3.28 12.92-.73 4.42 2.43 9.33 3.95 13.74 6.39 5.33 2.95 6.2 7.06 2.01 11.73-5.28 5.88-7.63 12.79-9.49 20.32zm-43.98 7.86c8.49-2.2 16.06-3.99 23.49-6.23 1.95-.59 4.55-2.33 4.99-4.03 1.35-5.17 2.13-10.56 2.51-15.91.4-5.55-1.9-7.81-7.43-6.82-9.22 1.65-18.31 4-27.31 6.03 1.29 9.25 2.5 17.92 3.75 26.96z"/><path d="m136.43 254.57c-4.19 3.67-8.18 7.62-12.62 10.97-18.23 13.8-36.56 27.47-55 40.99-1.58 1.16-4.56 1.69-6.36 1.04-5.8-2.11-11.35-4.92-16.99-7.45-2.96-1.33-5.53-3.53-4.26-6.77.9-2.3 3.4-4.96 5.7-5.58 21.04-5.69 40.27-15.76 60.15-24.27 8.22-3.52 16.6-6.68 24.93-9.94 1.02-.4 2.18-.45 3.28-.66.39.56.78 1.11 1.17 1.67z"/></g></svg>