<svg enable-background="new 0 0 400 400" viewBox="0 0 400 400" xmlns="http://www.w3.org/2000/svg"><g fill="#010100"><path d="m148 102.83c16.84-8.04 36-6.05 39.97 5.27-1.93 1.1-3.87 2.55-6.05 3.39-4.24 1.66-8.59 3.07-12.94 4.42-7.14 2.22-14.33 4.32-21.75 6.54v26.3c6.66-.59 13.28-1.6 19.89-1.59 3.2.01 6.68 1.45 9.51 3.12 4.6 2.71 4.32 5.79-.81 7.62-8.41 3.01-17.06 5.34-25.54 8.14-1.26.42-3.04 1.75-3.14 2.79-.71 7.54-1.04 15.12-1.5 22.78 7.37-1.29 14.02-2.99 20.77-3.47 6.67-.48 13.4.3 19.45 6.67 1.71-8.96 3.28-17.96 5.25-26.86.47-2.13 2.27-3.97 3.46-5.94 1.72 1.11 3.7 1.97 5.1 3.4 1.91 1.95 3.37 4.34 5.13 6.67 25.02-4.72 49.99-9.43 74.96-14.14 12.17-2.3 24.29-5.04 36.55-6.68 4.64-.62 10.28.08 14.29 2.3 8.23 4.57 15.7 10.52 23.41 16 3.16 2.24 2.34 4.64-.55 6.19-6 3.23-12.42 5.72-18.19 9.29-7.61 4.71-14.72 10.23-22.16 15.23-1.31.88-3.18.94-4.79 1.37-.23-1.62-.92-3.33-.62-4.84 1.31-6.71 2.9-13.37 4.4-20.04 1.77-7.89-2.86-13.11-10.64-11.7-15.88 2.88-31.79 5.63-47.55 9.06-8.55 1.86-16.79 5.14-25.25 7.51-7.08 1.98-14.25 4.18-22.01-.28-2.69 6.86-5.16 13.31-7.73 19.72-2.36 5.89-4.52 11.9-7.37 17.55-1.12 2.21-3.89 3.59-5.9 5.35-1.38-1.65-3.08-3.12-4.1-4.97-3.35-6.12-2.21-12.36.56-18.83-11.23 2.02-21.92 3.94-32.6 5.87-2.38.43-3.65 1.45-3.59 4.27.19 8.98.07 17.97.07 26.23 8.07 3.3 15.91 5.98 23.24 9.66 7.88 3.96 12.64 10.53 11.63 19.86-.21 1.98-1.71 4.4-3.36 5.44-1.16.73-3.95-.03-5.36-1.04-3.2-2.29-6.05-5.09-8.95-7.77-5.81-5.37-11.57-10.81-17.4-16.26 0 10.55-.01 20.87.01 31.2 0 1.49.19 2.98.19 4.47.01 16 .27 32-.1 47.99-.19 7.93-.67 16.14-5.54 22.93-1.97 2.75-4.93 6.19-7.73 6.47-1.98.2-5.24-4.02-6.53-6.9-4.37-9.71-8.35-19.76-6.98-30.71.91-7.25 3.03-14.35 4.18-21.58 1.77-11.14 3.48-22.31 4.62-33.52.95-9.29 1.04-18.66.38-28.17-5.75 8.4-11.39 16.88-17.27 25.19-12.91 18.24-27.63 34.75-46.49 47.11-3.26 2.14-6.81 3.93-10.43 5.39-1.91.77-4.25.48-6.4.66-.22-.45-.43-.9-.65-1.35 1.33-1.71 2.5-3.59 4.02-5.11 18.75-18.8 36.62-38.38 50.73-60.97 6.95-11.12 12.72-22.97 19.03-34.49-.46-.5-.93-1-1.39-1.5-8.8 2.65-17.67 5.12-26.39 8-7.82 2.58-15.6 5.48-23.95 4.35-4.92-.66-9.76-2.2-14.49-3.8-3.52-1.19-6.32-4.26-5.24-7.81.58-1.93 4.34-3.62 6.91-4.1 10.76-2 21.65-3.24 32.41-5.25 12.81-2.4 25.53-5.25 38.25-8.08 1.15-.25 2.83-1.64 2.91-2.62.66-7.54.98-15.12 1.46-23.54-4.21.88-7.6 1.94-11.06 2.23-6.93.58-13.9 1.04-20.85.95-3.13-.04-6.34-1.3-9.33-2.47-1.25-.49-2.02-2.19-3.01-3.34 1.08-.91 2.03-2.33 3.26-2.65 5.03-1.31 10.16-2.27 15.24-3.41 7.3-1.64 14.58-3.41 21.9-4.95 2.8-.59 3.64-2.01 3.58-4.8-.17-8.16-.06-16.32-.06-24.74-8.14 1.7-16 3.64-23.96 4.91-8.64 1.38-16.79-.53-24.33-5.08-3.72-2.24-2.62-4.22.49-5.28 4.43-1.5 9.08-2.4 13.65-3.46 11.25-2.61 22.51-5.16 33.96-7.78.78-19.38.12-38.2-11.24-55.06-1.73-2.56-2.78-7.71-1.37-9.77 2.21-3.23 7.02-4.45 11.09-1.93 8.71 5.39 17.31 10.96 25.81 16.68 3.04 2.04 1.83 4.99 1.05 8.02-2.9 11.29-5.45 22.7-8.13 34.07z"/><path d="m237.28 314.94c1.92.19 3.93.1 5.75.63 5.94 1.7 11.91 3.35 17.69 5.51 13.86 5.18 19.06-.02 24.81-10.23 7.2-12.78 10.65-26.89 13.43-41.15 1.19-6.08 2.33-12.2 2.97-18.35 1.18-11.32-2.32-14.43-13.71-12.25-11.19 2.14-22.36 4.42-33.43 7.07-2.15.51-4.89 2.67-5.55 4.66-5.43 16.5-12.28 32.29-22.14 46.64-2.86 4.16-5.77 8.43-9.35 11.94-10.16 9.96-20.42 19.85-31.22 29.09-3.14 2.68-8.22 3.09-12.42 4.54-.34-.55-.69-1.11-1.03-1.66 1.68-2.34 3.09-4.95 5.1-6.97 15.78-15.95 28.71-34.1 39.96-53.36 5.1-8.74 8.27-18.61 12.71-28.88-7.31 1.94-13.67 3.09-19.61 5.35-7.86 2.98-14.77 1.21-21.56-2.63-2.41-1.36-4.72-2.95-6.9-4.65-3.19-2.5-1.86-4.91 1.04-5.99 3.31-1.23 6.93-1.76 10.47-2.19 11.87-1.46 23.78-2.62 35.64-4.2 2.55-.34 4.48-1.38 5.42-5.07 3.01-11.75 1.59-23.15-.79-34.6-1.16-5.57 1.96-9.18 7.42-7.54 5.73 1.72 11.35 3.95 16.81 6.42 4.17 1.89 5.76 5 3.85 9.91-3.05 7.85-5.45 15.95-8.51 25.11 3.34-.48 5.7-.48 7.83-1.18 11.88-3.92 23.63-8.26 35.59-11.89 3.56-1.08 8.12-1.45 11.46-.16 6.97 2.69 13.56 6.47 20.04 10.26 5.46 3.19 6.09 6.66 2.55 11.67-8.26 11.67-10.5 25.41-13.59 38.85-4.76 20.72-10.41 41.14-23.21 58.57-3.6 4.9-8.63 8.85-13.4 12.75-4.05 3.31-7.94 2.12-11.62-1.53-9.35-9.28-19.04-18.21-28.5-27.37-1.83-1.77-3.27-3.95-4.89-5.95.3-.41.59-.79.89-1.17z"/><path d="m301.03 94.18c4.66-.49 7.88-1.02 11.11-1.15 8.22-.32 15.44 2.84 21.71 7.69 1.91 1.47 2.56 5.08 2.85 7.81.08.82-2.95 2.65-4.7 2.84-4.76.54-9.58.41-14.38.63-5.93.28-11.85.89-17.78.91-5.66.01-7.87 2.99-10.12 7.89-3.52 7.64-8.36 14.7-13 21.77-1.06 1.61-3.58 2.26-6 3.69-2.37-10.97 2-20.04 4.44-30.1-4.44.3-8.62.28-12.68.93-6.58 1.06-13.08 2.68-19.65 3.85-3.01.54-3.92 1.95-3.93 4.99-.03 6.1-.34 12.22-1.06 18.27-.26 2.22-2.02 4.26-3.09 6.38-1.65-1.39-4.06-2.45-4.81-4.22-2.7-6.35-4.83-12.94-7.49-20.31-12.44 1.98-26.36 4.82-38.3-4.79-.02-.64-.04-1.28-.05-1.92 12.08-2.3 24.16-4.59 37.51-7.13-1.92-5.59-3.59-11.39-5.91-16.91-1.89-4.49-4.7-8.58-6.86-12.96-1.74-3.54.34-7.06 4.28-7.32 9.03-.61 16.44 3.77 23.55 8.43 1.48.97 2.12 4.02 2.21 6.15.28 6.37.1 12.76.1 19.1 12.6-2.53 25.67-5.1 38.71-7.87.91-.19 2.05-1.68 2.21-2.7 1.47-9.52 2.92-19.05 3.98-28.62.32-2.85-.38-5.89-1.03-8.74-1.53-6.7 2.12-10.62 8.65-8.46 7.85 2.6 14.79 6.93 20.43 13.13 2.62 2.87 2.37 5.59.33 8.88-3.77 6.09-7.07 12.45-11.23 19.86z"/></g><path d="m5.17 384 .55-.58c.85.61 1.65 1.24 2.4 1.87l-.59.64c-.83-.73-1.62-1.37-2.36-1.93m1.22 9.53-.82-.34c.71-1.76 1.37-3.64 1.98-5.63.24.13.5.25.76.36-.6 1.67-1.24 3.54-1.92 5.61m-.5-13.5.57-.54c.56.44 1.31 1.06 2.26 1.87l-.64.64c-.68-.66-1.41-1.32-2.19-1.97m3.25.46h2.24v-1.36h.77v1.36h4.57v-1.36h.76v1.36h2.28v.69h-2.28v1.84h-2.64v1.26h4.18v2.64h-4.21c0 .45-.02.86-.05 1.21h4.32v.69h-4.38c-.04.34-.1.75-.19 1.22h5.15v.69h-4.82c.87 1.19 2.51 1.92 4.93 2.19-.17.31-.3.57-.37.76-2.77-.49-4.52-1.41-5.26-2.76-.56 1.26-2.3 2.23-5.24 2.9-.12-.24-.26-.48-.43-.72 2.73-.55 4.38-1.34 4.96-2.38h-4.38v-.69h4.65c.1-.38.17-.79.21-1.22h-4.32v-.69h4.4c.03-.34.05-.75.05-1.21h-4.2v-2.64h4.23v-1.26h-2.69v-1.84h-2.24zm1.46 4.46v1.29h3.45c.01-.4.02-.57.01-.53v-.32-.45h-3.46zm1.55-2.59h4.57v-1.19h-4.57zm6.11 2.59h-3.42v.77c-.01.19-.01.37-.02.53h3.44z" fill="#fbfafc"/><path d="m32.63 379.16h.82v1.98h3.54v7.89h1.45v.78h-14.36v-.78h1.46v-7.89h3.54v-1.98h.82v1.98h2.73zm-3.49 11.48.5.73c-1.61.82-3.28 1.63-5 2.41-.13-.27-.28-.55-.44-.82 1.75-.72 3.4-1.49 4.94-2.32m-2.78-5.55h2.73v-3.18h-2.73zm0 3.95h2.73v-3.2h-2.73zm3.54-3.95h2.73v-3.18h-2.73zm0 3.95h2.73v-3.2h-2.73zm7.89 4.68c-1.84-.92-3.51-1.7-5.02-2.32l.45-.73c1.89.8 3.57 1.55 5.04 2.23zm-1.62-11.81h-2.73v3.18h2.73zm-2.73 7.13h2.73v-3.2h-2.73z" fill="#fbfafc"/></svg>