<svg enable-background="new 0 0 400 400" viewBox="0 0 400 400" xmlns="http://www.w3.org/2000/svg"><path d="m230 234.04c-6.32 9.89-12.26 19.75-18.76 29.23-9.97 14.52-20.46 28.7-33.65 40.52-8.61 7.72-15.1 10.65-24.07 8.7 27.74-28.84 53.31-58.68 66.73-97.29-7.25.62-14.02 1.2-20.78 1.78-.21.86-.31 1.33-.45 1.79-.69 2.38-1.39 4.76-2.09 7.14-2.3-1.59-5.16-2.75-6.8-4.86-6.26-8.03-7.22-17.98-9.1-27.53-3.06-15.56-7.46-30.67-13.9-45.18-.85-1.92-1.56-3.94-1.98-5.99-.59-2.84 2.2-4.94 5.65-4.28 2.71.52 5.38 1.26 8.07 1.92 8.12 1.98 15.77-1.26 23.59-2.31 8.55-1.15 17.02-2.98 25.46-4.8 1.51-.33 3.84-2 3.89-3.14.34-7.79.18-15.61.18-23.56-8.85 1.64-17.28 4.32-25.74 4.44-8.3.12-16.78-1.99-24.29-9.31 3.8-1.61 6.83-3.51 10.1-4.15 11.69-2.29 23.43-4.32 35.21-6.04 3.19-.47 3.88-1.76 3.74-4.49-.7-14.57-3.88-28.38-11.71-40.94-1.3-2.09-1.77-4.79-2.26-7.27-.74-3.75 1.86-5.33 4.85-5.28 3.51.06 7.55.19 10.41 1.89 7.7 4.57 14.99 9.85 22.24 15.13 3.28 2.4 1.55 5.9.86 8.99-1.77 7.93-3.6 15.85-5.35 23.78-.13.57.18 1.24.34 2.19 10.64-4.67 21.35-8.34 32.92-7 3.72.43 7.77 1.64 10.79 3.75 4.65 3.24 3.71 7.31-1.68 8.89-7.65 2.23-15.39 4.17-23.09 6.23-6.29 1.68-12.62 3.2-18.81 5.18-1.15.37-2.34 2.56-2.41 3.96-.28 5.49-.07 10.99-.14 16.49-.03 2.23-.29 4.47-.46 6.96 13.98-2.77 27.96-5.68 41.99-8.28 8.94-1.66 17.28-.17 24.31 6.1 3.82 3.41 7.95 6.57 11.2 10.47 1.37 1.65 2.06 6.03.95 7.24-10.28 11.18-13.8 25.26-18.01 39.16-3.01 9.95-6.57 19.75-10.01 29.56-2.89 8.23-10.65 9.65-16.48 3.1-1.08-1.22-2.24-2.48-2.91-3.93-2-4.34-5.68-4.47-9.53-3.96-7.59 1.01-15.15 2.2-23.42 3.42 3.69 4.62 6.9 9.1 10.58 13.14 9.48 10.4 18.89 20.89 28.86 30.81 14.95 14.87 31.69 27.44 50.66 36.89 9.2 4.58 18.43 9.11 27.57 13.81 2.13 1.1 3.96 2.8 5.92 4.23-.02.51-.04 1.03-.06 1.54-3.65.71-7.28 1.96-10.94 2.03-12.83.25-25.66.16-38.49.07-8.37-.06-14.9-3.35-19.82-10.49-14.72-21.37-29.78-42.51-44.65-63.79-2.94-4.21-5.59-8.62-9.23-12.67v5.27c0 26-.08 51.99.05 77.99.04 8.6.95 17.21.84 25.8-.08 6.03-.55 12.22-2.11 18.01-1.18 4.37-3.88 8.56-6.75 12.16-3.43 4.31-6.47 3.8-8.95-1.38-2.73-5.71-4.89-11.7-7.04-17.66-3.67-10.18-1.73-20.37.08-30.59 2.13-12.05 4.57-24.09 5.72-36.24 1.36-14.3 1.5-28.72 2.15-43.09.07-1.41.01-2.84.01-4.26zm15.85-34.64c2.4-.6 3.97-.93 5.5-1.4 7.36-2.24 15.08-3.62 22.17-.5 5.12 2.26 7.21.64 8.42-3.54 4.49-15.44 9.1-30.85 12.88-46.47 1.57-6.5-2.74-10.8-9.57-10.41-11.64.68-23.26 1.86-34.86 3.06-1.21.13-3.18 1.78-3.22 2.79-.29 6.61-.15 13.23-.15 20.2 3.09-.67 5.6-1.32 8.15-1.74 5.66-.93 11.23-.74 15.83 3.17 1.44 1.23 2.75 3.34 2.87 5.13.06.99-2.32 2.75-3.85 3.13-6.47 1.6-13.07 2.71-19.56 4.25-1.27.3-3.17 1.61-3.28 2.61-.67 6.23-.9 12.48-1.33 19.72zm-13.87-55.77c-2.68.39-6.07.69-9.37 1.41-10.15 2.21-20.26 4.65-30.41 6.84-2.72.59-3.23 1.4-2.67 4.34 3.04 15.83 5.81 31.72 8.4 47.64.62 3.78 2.52 4.71 5.72 4.07 9.06-1.79 18.09-3.69 27.2-5.56.45-7.11.9-14.11 1.39-21.77-6.48 1.16-12.08 2.13-17.65 3.19-3.25.62-9.33-2.06-9.41-4.66-.11-3.92 3.31-3.52 5.95-4.28 6.09-1.75 12.1-3.78 18.06-5.9 1.12-.4 2.64-1.78 2.67-2.74.22-7.55.12-15.11.12-22.58z" fill="#010100"/><path d="m33.42 327.41c.77-2.91 1.13-6.01 2.39-8.68 9.38-19.91 18.79-39.78 25.32-60.89 4.97-16.07 8.58-32.36 11.01-49.03 3.5-23.91 3.4-47.93 2.58-71.89-.48-14.11-.31-28.63-5.77-42.16-1.14-2.82-3.03-5.35-4.63-7.98-3.08-5.1-1.05-9.34 4.86-8.54 5.67.77 11.33 2.87 16.56 5.31 4.3 2 8.13 2.94 12.49.84 7-3.38 14.16-6.46 21-10.13 6.63-3.55 12.57-1.26 18.64 1.18 1.36.55 2.64 1.3 3.95 1.96 11.98 6.02 11.96 7.79 8.08 20.5-2.26 7.41-1.57 15.72-2.14 23.63-.11 1.47.21 2.97.21 4.46.02 12.16-.1 24.33.04 36.49.25 22.26.48 44.53 1.03 66.78.39 15.71 1.31 31.4 1.94 47.1.39 9.79 1.04 19.58.91 29.36-.14 10.1-4.34 19.06-10.26 26.99-4.49 6.01-8.83 5.21-14.67-.5-9.05-8.85-18.64-17.15-27.95-25.74-1.87-1.73-3.53-3.68-6.17-6.45 12.07 1.62 22.69 3.04 34.15 4.57 1.07-6.16 2.48-11.67 2.94-17.25 3.75-46.14 1.57-92.37 2-138.56.13-14.26-.48-28.53-1.01-42.79-.15-4.04-.89-8.13-1.96-12.03-1.34-4.85-5.04-6.51-9.76-5.03-7.6 2.38-15.24 4.64-22.77 7.23-1.09.38-2.31 2.33-2.33 3.56-.16 14.49-.1 28.98-.1 43.11 5.41-.62 10.7-1.82 15.94-1.62 3.73.14 7.57 1.78 10.98 3.51 1.5.76 2.81 3.42 2.74 5.16-.05 1.1-2.69 2.67-4.38 3.01-6.23 1.27-12.54 2.1-18.82 3.12-1.93.31-3.85.72-6.53 1.22-1.07 13.72-2.16 27.56-3.29 42.06 5.13-1.11 9.34-2.33 13.63-2.87 6.37-.8 12.92-1.59 18.58 2.63 1.31.98 2.91 2.66 2.89 4-.02 1.25-1.83 3.24-3.17 3.57-5.67 1.4-11.46 2.4-17.23 3.36-4.84.81-9.74 1.22-14.55 2.16-1.06.21-2.37 1.76-2.65 2.91-2.83 11.7-5.1 23.55-8.24 35.17-4.54 16.75-11.19 32.73-20.26 47.56-5.19 8.48-10.81 16.71-16.65 24.76-1.85 2.55-5 4.16-7.56 6.19-.66-.44-1.34-.88-2.01-1.32z" fill="#010100"/><g fill="#fbfafc"><path d="m5.17 384 .55-.58c.85.61 1.65 1.24 2.4 1.87l-.59.64c-.83-.73-1.62-1.37-2.36-1.93m1.22 9.53-.82-.34c.71-1.76 1.37-3.64 1.98-5.63.24.13.5.25.76.36-.6 1.67-1.24 3.54-1.92 5.61m-.5-13.5.57-.54c.56.44 1.31 1.06 2.26 1.87l-.64.64c-.68-.66-1.41-1.32-2.19-1.97m3.25.46h2.24v-1.36h.77v1.36h4.57v-1.36h.76v1.36h2.28v.69h-2.28v1.84h-2.64v1.26h4.18v2.64h-4.21c0 .45-.02.86-.05 1.21h4.32v.69h-4.38c-.04.34-.1.75-.19 1.22h5.15v.69h-4.82c.87 1.19 2.51 1.92 4.93 2.19-.17.31-.3.57-.37.76-2.77-.49-4.52-1.41-5.26-2.76-.56 1.26-2.3 2.23-5.24 2.9-.12-.24-.26-.48-.43-.72 2.73-.55 4.38-1.34 4.96-2.38h-4.38v-.69h4.65c.1-.38.17-.79.21-1.22h-4.32v-.69h4.4c.03-.34.05-.75.05-1.21h-4.2v-2.64h4.23v-1.26h-2.69v-1.84h-2.24zm1.46 4.46v1.29h3.45c.01-.4.02-.57.01-.53v-.32-.45h-3.46zm1.55-2.59h4.57v-1.19h-4.57zm6.11 2.59h-3.42v.77c-.01.19-.01.37-.02.53h3.44z"/><path d="m32.63 379.16h.82v1.98h3.54v7.89h1.45v.78h-14.36v-.78h1.46v-7.89h3.54v-1.98h.82v1.98h2.73zm-3.49 11.48.5.73c-1.61.82-3.28 1.63-5 2.41-.13-.27-.28-.55-.44-.82 1.75-.72 3.4-1.49 4.94-2.32m-2.78-5.55h2.73v-3.18h-2.73zm0 3.95h2.73v-3.2h-2.73zm3.54-3.95h2.73v-3.18h-2.73zm0 3.95h2.73v-3.2h-2.73zm7.89 4.68c-1.84-.92-3.51-1.7-5.02-2.32l.45-.73c1.89.8 3.57 1.55 5.04 2.23zm-1.62-11.81h-2.73v3.18h2.73zm-2.73 7.13h2.73v-3.2h-2.73z"/></g></svg>