<svg enable-background="new 0 0 400 400" viewBox="0 0 400 400" xmlns="http://www.w3.org/2000/svg"><g fill="#fafafb"><path d="m37.59 393.81c-.92.31-1.52.05-2-.78-.7-1.2-1.52-2.34-2.47-3.78v4.59c-.55.03-.95.05-1.41.07-.03-.37-.06-.64-.06-.91 0-1.91 0-3.81 0-5.7 1.13-.41 1.77-.03 2.29.91.62 1.11 1.38 2.14 2.31 3.19v-4.2h1.35v6.61z"/><path d="m12.94 393.88v-6.75c1.9.19 3.93-.54 5.37 1.29.8 1.01.78 2.88.03 3.97-1.37 1.97-3.4 1.51-5.4 1.49m1.45-1.22c2.04.12 2.92-.58 2.89-2.21-.03-1.51-.98-2.19-2.89-2z"/><path d="m11.81 393.87h-5.49c.68-2.18 2.47-3.48 3.51-5.45h-3.08v-1.21h5.29c-.71 2.13-2.44 3.48-3.47 5.51.86 0 1.63.04 2.39-.01.79-.05 1.14.21.85 1.16"/><path d="m39.33 393.86v-6.61h3.7v1.07h-2.22v1.52c.68.04 1.34.09 2.07.13v1.07c-.72.05-1.38.09-2.1.14v1.48h2.4v1.19h-3.85z"/><path d="m27.71 388.56c-1.15-.3-2.46-.61-3.1.64-.37.73-.41 1.93-.06 2.67.63 1.35 1.99.93 3.17.68.35.94-.01 1.32-.93 1.46-1.62.25-3.05-.27-3.76-1.48-.73-1.24-.6-3.03.31-4.17.88-1.11 2.71-1.7 4-1.16.32.13.44.74.65 1.12-.1.08-.19.16-.28.24"/><path d="m49.15 387.24v1.07c-.59.02-1.17.05-1.87.08v5.44h-1.48v-5.44h-1.85c-.05-.4-.08-.73-.13-1.15z"/><path d="m20.06 387.21h1.33v6.62h-1.33z"/><path d="m30.68 393.25c-.49.38-.8.79-1.05.76-.32-.05-.6-.45-.9-.7.26-.24.51-.64.8-.67.29-.04.62.3 1.15.61"/></g><path d="m258.97 196.53c1.5 1.21 2.84 2.08 3.93 3.21 4.68 4.84 5.75 10.23 4.5 17.08-1.22 6.66-.26 13.72-.26 20.62 8.01.8 16.88 1.32 25.62 2.63 21.88 3.29 41.46 11.35 48.59 36.84.68 2.45.97 5.42.22 7.76-1.47 4.58-6.45 5.53-11.24 2.07-8.35-6.02-16.13-12.87-24.76-18.44-8.04-5.19-16.92-9.07-25.34-13.7-4.66-2.56-9.13-5.47-14.24-8.56v27.55c0 21.49.2 42.98-.13 64.47-.09 5.62-1.39 11.33-2.91 16.78-1.98 7.09-5.43 7.95-9.96 2.55-9.61-11.45-15.19-24-12.23-39.72 2.3-12.21 3.05-24.73 4.19-37.14.92-10.01 2.13-20.07 1.88-30.08-.44-17.3-1.92-34.58-2.97-52.08-9.36 2.05-18.52 4.26-27.76 6.02-7.9 1.51-15.98 2.38-22.33-4.17-1.75-1.81-2.51-4.58-3.72-6.91 1.8-.82 3.53-2.06 5.42-2.39 9.95-1.77 19.94-3.35 29.93-4.92 10.33-1.62 20.69-3 31-4.76 15.43-2.63 30.83-5.43 46.23-8.28 9.61-1.78 19.17-3.81 28.76-5.67 10.05-1.96 19.36.23 27.89 5.59 3.38 2.12 6.63 4.63 9.37 7.5 1.36 1.42 2.54 4.68 1.81 6.02-.95 1.75-3.88 2.44-5.97 3.57-.13.07-.33.01-.49.01-15.93.33-31.87.29-47.78 1.1-17.58.9-35.12 2.56-52.67 3.96-1.37.14-2.7.87-4.58 1.49z" fill="#010100"/><path d="m97.14 221.42c-19.48 19.7-38.97 38.66-65.04 48.24-.49-.6-.98-1.2-1.47-1.79 6.29-6.28 12.58-12.56 18.87-18.85 6.53-6.53 13.38-12.77 19.48-19.67 7.82-8.84 15.62-17.8 22.38-27.44 9.62-13.74 18.37-28.09 27.26-42.33 1.06-1.69.63-4.31.89-6.5-2.14-.05-4.52-.74-6.37-.04-13.52 5.18-27.16 10.15-40.33 16.15-13.99 6.37-19.93 2.3-31.01-7.04-1.04-.87-1.87-3.07-1.49-4.22.33-.97 2.5-1.69 3.93-1.87 14.74-1.8 29.61-2.68 43.98-6.98 11.61-3.47 22.76-7.96 32.8-14.75 6.52-4.4 13.09-5.66 20.33-2.56 4.77 2.04 9.63 3.96 14.12 6.51 5.46 3.09 6.32 8.41 1.56 12.01-21.51 16.27-34.35 39.76-50.61 59.66 4.46 4.79 8.34 9.77 13.03 13.8 5.8 4.98 5.63 10.89 4.49 17.41-.81 4.67-1.75 9.38-1.87 14.09-.51 20.92-.59 41.86-1.14 62.78-.27 10.3-1.34 20.61-5.06 30.33-.96 2.5-3.1 5.46-5.37 6.24-1.5.51-4.56-2.16-6.31-4-8.78-9.26-9.07-20.33-7.02-32.18 2.36-13.69 3.97-27.5 5.8-41.28.52-3.91.82-7.86 1-11.8.68-14.75-1.33-29.13-6.83-43.92z" fill="#010100"/><path d="m247.75 149.13c-.64-6.79-1.37-12.64-1.7-18.52-.5-8.76-.75-17.53-1.04-26.29-.37-10.93.09-21.96-1.3-32.75-.84-6.57-3.98-13.04-7.02-19.09-3.99-7.95-.65-11.5 6.7-10.4 10.49 1.56 20.48 4.74 27.83 12.93 1.36 1.52 1.64 4.92 1.08 7.11-3.3 12.92-5.4 25.94-5.27 40.23 8.6-2.69 16.69-5.31 24.84-7.74 7.63-2.28 15.21-5.3 23.02-6.17 4.73-.53 10.21 1.69 14.69 3.98 3.96 2.02 3.33 6.65-.98 8.2-6.25 2.23-12.73 3.94-19.23 5.32-14.18 3.01-28.43 5.66-43.4 8.6-1.03 9.54-2.18 20.23-3.41 31.6 7.94-1.23 15.01-2.08 21.98-3.45 15.66-3.08 31.2-6.8 46.91-9.54 14.16-2.47 26.19 2.93 36.41 12.44 1.66 1.55 3.18 4.93 2.59 6.74-.56 1.71-3.94 3.36-6.19 3.52-9.56.69-19.17.87-28.76 1.13-13.93.38-27.88.25-41.78 1.11-25.33 1.57-50.37 5.22-75.04 11.45-7.24 1.83-14.79 2.8-22.25 3.3-5.65.38-10.52-2.53-14-7.03-3.23-4.17-1.59-7.12 3.64-7.86 15.36-2.2 30.69-4.62 46.04-6.88 5.16-.75 10.34-1.28 15.64-1.94z" fill="#010100"/><path d="m151.01 88.78c-.01.67 0 1.34-.01 2-.07 8.47-5.78 11.82-13.06 7.57-1.68-.98-3.26-2.23-4.64-3.6-8.41-8.32-16.91-16.55-25-25.16-2.2-2.34-3.78-5.78-4.4-8.96-.84-4.36 2.48-5.36 5.98-4.55 5.85 1.34 11.71 2.77 17.37 4.74 4.11 1.43 7.86 3.87 11.84 5.7 9.61 4.43 12.05 12.64 11.92 22.26z" fill="#010100"/><path d="m151.23 213.39c6.65 3.63 12.63 6.52 14.07 13.5.69 3.33.87 6.91.46 10.28-.45 3.77-3.8 5.44-7.21 3.51-2.95-1.67-5.5-4.16-7.91-6.61-5.79-5.9-11.4-11.98-17.07-18-.9-.96-1.87-1.9-2.53-3.02-1.96-3.33-1.11-5.15 2.66-4.95 2.85.15 5.79.93 8.43 2.03 2.43 1.01 3.8 1.18 5.05-1.56 2.51-5.5 5.61-10.74 7.93-16.3.98-2.36.87-5.28.83-7.94-.09-5.8 2.97-8.15 8.25-5.52 4.04 2.01 7.72 4.78 11.44 7.38 3.88 2.72 3.16 5.29-.3 8.01-7.08 5.55-14 11.3-21 16.96-.77.62-1.61 1.17-3.1 2.23z" fill="#010100"/></svg>