<svg enable-background="new 0 0 400 400" viewBox="0 0 400 400" xmlns="http://www.w3.org/2000/svg"><g fill="#fafafb"><path d="m37.59 393.81c-.92.31-1.52.05-2-.78-.7-1.2-1.52-2.34-2.47-3.78v4.59c-.55.03-.95.05-1.41.07-.03-.37-.06-.64-.06-.91 0-1.91 0-3.81 0-5.7 1.13-.41 1.77-.03 2.29.91.62 1.11 1.38 2.14 2.31 3.19v-4.2h1.35v6.61z"/><path d="m12.94 393.88v-6.75c1.9.19 3.93-.54 5.37 1.29.8 1.01.78 2.88.03 3.97-1.37 1.97-3.4 1.51-5.4 1.49m1.45-1.22c2.04.12 2.92-.58 2.89-2.21-.03-1.51-.98-2.19-2.89-2z"/><path d="m11.81 393.87h-5.49c.68-2.18 2.47-3.48 3.51-5.45h-3.08v-1.21h5.29c-.71 2.13-2.44 3.48-3.47 5.51.86 0 1.63.04 2.39-.01.79-.05 1.14.21.85 1.16"/><path d="m39.33 393.86v-6.61h3.7v1.07h-2.22v1.52c.68.04 1.34.09 2.07.13v1.07c-.72.05-1.38.09-2.1.14v1.48h2.4v1.19h-3.85z"/><path d="m27.71 388.56c-1.15-.3-2.46-.61-3.1.64-.37.73-.41 1.93-.06 2.67.63 1.35 1.99.93 3.17.68.35.94-.01 1.32-.93 1.46-1.62.25-3.05-.27-3.76-1.48-.73-1.24-.6-3.03.31-4.17.88-1.11 2.71-1.7 4-1.16.32.13.44.74.65 1.12-.1.08-.19.16-.28.24"/><path d="m49.15 387.24v1.07c-.59.02-1.17.05-1.87.08v5.44h-1.48v-5.44h-1.85c-.05-.4-.08-.73-.13-1.15z"/><path d="m20.06 387.21h1.33v6.62h-1.33z"/><path d="m30.68 393.25c-.49.38-.8.79-1.05.76-.32-.05-.6-.45-.9-.7.26-.24.51-.64.8-.67.29-.04.62.3 1.15.61"/></g><path d="m141.47 277.65c-30.41 22.68-61.25 43.11-99.63 46.99-.37-.62-.73-1.25-1.1-1.87 2.98-1.9 5.81-4.1 8.96-5.66 20.83-10.26 40.89-21.83 60.01-35.03 17.42-12.03 31.51-27.04 41.52-45.77.29-.54.5-1.12 1.16-2.62-6.64 1.02-12.51 2.42-18.43 2.73-10.3.54-20.65.83-30.94.34-3.24-.16-6.34-3.16-9.51-4.86.11-.68.21-1.36.32-2.04 3.14-.94 6.22-2.29 9.43-2.75 12.96-1.86 26.04-3.01 38.93-5.23 15.19-2.61 30.23-6.06 46.1-9.31-8.03-10-18.42-17.01-23.47-29.47 10.48-.46 17.8 3.87 24.99 8.27 7.01 4.28 7.25 10.95 5.18 18.77 7.3-1.96 14.08-3.9 20.92-5.58 7.22-1.78 14.59-3.2 21.58.55 1.88 1.01 3.88 3.26 4.21 5.22.22 1.31-2.14 4.01-3.82 4.52-8.86 2.65-17.81 5.1-26.85 7.06-13.78 2.99-27.65 5.52-41.32 8.22 2.5 3.68 4.84 7.19 7.27 10.63.39.56 1.23 1.18 1.83 1.16 9.71-.41 16.48 5.5 23.48 10.87s13.98 10.78 21.61 16.66c8.77-9.74 17.66-19.1 25.87-29.03 2.66-3.22 4.03-7.79 5.09-11.96 1.08-4.25 2.41-5.92 6.65-4.08 4.56 1.98 8.75 4.89 12.93 7.66 1.77 1.17 3.13 2.98 4.62 4.54 4.45 4.67 3.95 7.63-1.79 10.71-15.22 8.19-30.46 16.36-45.68 24.54-.84.45-1.64.96-3.25 1.9 12.3 7.31 24 14.37 35.81 21.26 14.06 8.2 29.99 10.47 45.51 13.93 16.05 3.58 32.21 6.65 48.29 10.06 1.42.3 2.66 1.47 3.98 2.24-1.14.96-2.13 2.41-3.44 2.8-8.24 2.45-16.46 5.09-24.86 6.84-11.49 2.4-23.08 4.45-34.73 5.82-3.94.46-8.77-.62-12.16-2.68-11.26-6.86-22.62-13.78-32.9-21.98-16.71-13.32-32.38-27.92-48.92-41.46-8.81-7.22-18.47-13.42-27.89-19.87-1.01-.69-3.42-.59-4.4.16-6.75 5.19-13.3 10.65-20.43 16.44 1.94 1.67 3.13 2.85 4.48 3.83 6.5 4.68 5.71 11.2 4.85 17.93-1.34 10.4-2.59 20.83-3.43 31.28-.43 5.33 2.56 7.19 7.11 4.52 11.53-6.77 22.82-13.96 34.32-20.79 2.17-1.29 6.53-2.94 7.06-2.26 2.51 3.27-1.1 5.06-2.99 7.03-10.11 10.55-20.52 20.83-30.4 31.59-7.55 8.22-14.57 16.94-21.67 25.56-3.81 4.62-5.91 4.28-10.27-.08-9.09-9.1-8.6-18.89-3.94-29.78 6.09-14.23 9.15-29.15 7.59-44.68-.47-4.43-2.16-8.78-3.44-13.79z" fill="#010100"/><path d="m106.79 112.81c-2.73 9.52-5.19 18.08-7.61 26.49 10.54 4.99 20.44.59 30.31-2.21 9.52-2.7 18.79-6.28 28.22-9.32 1.8-.58 4.31-1.2 5.7-.41 6.04 3.46 12.03 7.12 17.57 11.32 3.9 2.96 1.06 6.46-.71 9.52-3.33 5.76-6.67 11.51-10.08 17.23-1.66 2.78-1.27 4.76 1.54 6.61 1.24.82 2.85 3.31 2.5 3.85-.92 1.39-2.74 2.71-4.39 3.01-15.42 2.75-30.88 5.28-46.33 7.85-1.61.27-3.26.31-5.01.47-.51 2.75-.94 5.46-1.52 8.14-.63 2.92-2.71 3.93-4.41 1.46-2.62-3.79-5.14-7.94-6.41-12.31-3.37-11.64-6.05-23.48-9.01-35.31-7.95 13.96-14.79 27.53-23.1 40.12-8.28 12.55-16.85 25.42-31.9 31.04-.46-.3-.92-.6-1.38-.89.58-1.5.93-3.15 1.77-4.48 8.22-12.93 16.32-25.96 24.87-38.68 9.92-14.75 14.94-31.42 19.53-48.25 2.82-10.35 4.99-20.9 7.18-31.41 2.5-12.02 3.52-24.04-.66-36.01-.53-1.53 0-4.69 1.01-5.21 1.89-.97 4.92-1.43 6.7-.55 4.2 2.07 8.1 4.87 11.83 7.75 2.07 1.59 3.46 2.77 6.49 1.75 13.53-4.58 27.2-8.73 40.82-13.06 5.14-1.64 9.76-1.32 14.08 2.44 3.81 3.32 8.23 5.94 12.05 9.26 3.64 3.16 3.34 5.93.34 9.8-5.29 6.81-10.32 13.81-15.78 21.18 2.94 1.88 4.98 2.87 6.59 4.33 1.1 1 2.3 2.74 2.16 4-.11 1-2.09 2.32-3.42 2.57-8.18 1.51-16.42 2.71-24.63 4.11-9.65 1.64-19.3 3.31-28.93 5.11-5.28.99-10.54 2.63-15.98-1.31zm.93-5.68c15.52-3.85 30.14-7.46 44.75-11.16 1.07-.27 2.55-1.01 2.86-1.88 2.36-6.55 4.67-13.14 6.59-19.83 1.1-3.84-1.17-5.93-4.93-6.21-2.13-.16-4.34-.16-6.43.22-10.07 1.84-20.11 3.8-30.15 5.78-3.17.63-5.79 1.49-6.54 5.62-1.63 8.89-3.92 17.66-6.15 27.46zm48.28 44.13c.01-8.26.01-8.3-7.02-8.22-1.78.02-3.58.3-5.32.7-7.27 1.69-14.44 4.07-21.8 5.02-5.76.74-8.49 2.02-7 8.5 1.05 4.59.66 9.49 1.22 14.21.41 3.47 1.49 5.31 6.06 3.77 9.66-3.26 19.66-5.53 29.48-8.32.91-.26 2.08-1.3 2.24-2.15.94-4.98 1.6-9.99 2.14-13.51z" fill="#010100"/><path d="m265.5 74.66c-9.99 1.77-18.8 3.41-27.63 4.89-10.44 1.75-20.94 4.83-31.24-.56-2.38-1.25-4.62-2.77-6.93-4.17.05-.59.1-1.17.15-1.76 4.6-1.01 9.17-2.76 13.8-2.91 23.13-.78 44.85-8.28 67.06-13.47 6.76-1.58 13.57-1.66 19.95 1.45 1.73.84 3.85 2.78 3.99 4.38.12 1.38-2.05 3.84-3.66 4.33-6.67 2.03-13.5 3.49-20.28 5.17-1.45.36-2.9.76-4.95 1.31 1.9 1.46 3.27 2.35 4.44 3.44 5.94 5.52 5.88 6.76 1.23 13.42-5.29 7.59-10.26 15.4-16.11 24.23 5.8-1.41 10.55-2.67 15.34-3.69 9.56-2.03 19.17-3.98 27.69 3.1 1.27 1.06 2.2 2.54 3.29 3.82-1.37 1.12-2.59 2.84-4.15 3.24-3.92 1.02-7.99 1.53-12.02 2.1-13.67 1.94-27.34 3.83-41.48 6.28 6.44 4.12 4.95 9.12 3.25 14.63-.92 2.98-.16 6.47-.16 9.87 9.02-1.99 18.33-4.02 27.62-6.11 10.09-2.27 18.74.98 26.46 7.15 3.08 2.47 2.5 4.86-1.11 6.1-1.67.58-3.48.96-5.24 1.06-13.03.73-26.07 1.31-39.1 2.08-3.41.2-6.79.91-9.97 1.35-.93 8.15-1.62 16.31-2.9 24.39-.46 2.91-1.92 5.89-3.65 8.31-1.88 2.62-4.45 2.19-5.19-1.09-1.57-6.96-2.82-14-3.97-21.04-.39-2.42-.06-4.95-.06-8.37-7.05 1.75-13.57 3.42-20.11 4.97-8.17 1.93-16.27 3.21-22.83-4.04-.42-.47-.75-1.02-1.86-2.54 14.54-4.57 29.19-5.28 43.88-8.7-.71-7.72-1.44-15.67-2.25-24.5-3 .55-5.81.94-8.55 1.58-10.47 2.43-21.01 4.08-31.68 1.57-2.61-.61-5.1-2.02-7.41-3.44-.92-.56-1.86-2.31-1.62-3.22.25-.95 1.82-2 2.95-2.19 7.09-1.16 14.23-2.04 21.34-3.11 11.63-1.75 23.26-3.57 34.89-5.36 1.29-.2 2.57-.44 3.86-.63 2.69-.41 4.72-1.07 5.64-4.37 2.35-8.45 5.55-16.66 7.84-25.13 1.13-4.08.95-8.53 1.44-13.82z" fill="#010100"/><path d="m264 51.48c.01 6.75-4.44 9.67-9.09 6.38-8.12-5.74-15.94-11.93-23.58-18.28-1.41-1.17-1.43-4.03-2.09-6.11 1.93-.31 3.94-1.15 5.76-.84 6.38 1.08 12.81 2.16 19 3.99 7.66 2.26 9.1 9.01 10 14.86z" fill="#010100"/><path d="m209.37 87.38c7.71 3.38 15.53 4.93 18.61 12.97 1.04 2.72 1.77 6.04 1.23 8.8-1.05 5.36-5.9 7.07-9.26 2.93-4.65-5.75-8.14-12.49-11.74-19.01-.62-1.14.63-3.32 1.16-5.69z" fill="#010100"/></svg>