<svg enable-background="new 0 0 400 400" viewBox="0 0 400 400" xmlns="http://www.w3.org/2000/svg"><g fill="#fafafb"><path d="m37.59 393.81c-.92.31-1.52.05-2-.78-.7-1.2-1.52-2.34-2.47-3.78v4.59c-.55.03-.95.05-1.41.07-.03-.37-.06-.64-.06-.91 0-1.91 0-3.81 0-5.7 1.13-.41 1.77-.03 2.29.91.62 1.11 1.38 2.14 2.31 3.19v-4.2h1.35v6.61z"/><path d="m12.94 393.88v-6.75c1.9.19 3.93-.54 5.37 1.29.8 1.01.78 2.88.03 3.97-1.37 1.97-3.4 1.51-5.4 1.49m1.45-1.22c2.04.12 2.92-.58 2.89-2.21-.03-1.51-.98-2.19-2.89-2z"/><path d="m11.81 393.87h-5.49c.68-2.18 2.47-3.48 3.51-5.45h-3.08v-1.21h5.29c-.71 2.13-2.44 3.48-3.47 5.51.86 0 1.63.04 2.39-.01.79-.05 1.14.21.85 1.16"/><path d="m39.33 393.86v-6.61h3.7v1.07h-2.22v1.52c.68.04 1.34.09 2.07.13v1.07c-.72.05-1.38.09-2.1.14v1.48h2.4v1.19h-3.85z"/><path d="m27.71 388.56c-1.15-.3-2.46-.61-3.1.64-.37.73-.41 1.93-.06 2.67.63 1.35 1.99.93 3.17.68.35.94-.01 1.32-.93 1.46-1.62.25-3.05-.27-3.76-1.48-.73-1.24-.6-3.03.31-4.17.88-1.11 2.71-1.7 4-1.16.32.13.44.74.65 1.12-.1.08-.19.16-.28.24"/><path d="m49.15 387.24v1.07c-.59.02-1.17.05-1.87.08v5.44h-1.48v-5.44h-1.85c-.05-.4-.08-.73-.13-1.15z"/><path d="m20.06 387.21h1.33v6.62h-1.33z"/><path d="m30.68 393.25c-.49.38-.8.79-1.05.76-.32-.05-.6-.45-.9-.7.26-.24.51-.64.8-.67.29-.04.62.3 1.15.61"/></g><path d="m115.8 283.58c-6.96 1.4-13.44 3-20 3.95-7.24 1.05-14.6 4.58-21.81-.08-1.13-.73-1.97-1.93-2.94-2.91 1.16-.9 2.19-2.24 3.5-2.63 12.47-3.71 24.89-7.61 37.53-10.64 4.36-1.04 5.31-2.77 4.97-6.58-.21-2.3-.04-4.63-.04-7.88-5.55.93-10.74 1.81-15.94 2.65-8.02 1.3-15.94 4.25-24.21 1.58-.92-.3-2.01-.45-2.7-1.05-1.17-1.02-2.09-2.33-3.11-3.52 1.26-.82 2.41-2.02 3.79-2.4 13.94-3.85 27.91-7.57 41.82-11.31.46-6.57.9-12.94 1.4-20.2-10.17 2.03-19.7 3.93-29.79 5.94-.07 1.04-.02 2.49-.3 3.87-.31 1.52-.93 2.98-1.42 4.47-1.76-.7-3.93-.96-5.21-2.17-4.4-4.12-6.21-9.73-8.21-15.26-3.53-9.75-7.35-19.4-11.06-29.09-.23-.61-.7-1.15-.82-1.78-.54-2.9-1-5.81-1.49-8.72 2.87-.04 5.98-.84 8.55 0 9.86 3.25 19.27.35 28.78-1.39 6.42-1.17 12.81-2.51 19.53-3.83 1.82-7.86-2.8-14.08-5.89-20.16-1.09 2.68-2.33 5.76-3.58 8.83-.67-.04-1.34-.07-2.01-.11-6.57-12.95-6.85-27.65-10.91-42.38-5.7 1.13-11.86 2.19-17.94 3.6-9.18 2.12-18.27 4.56-27.77 1.63-4.17-1.28-8.99-5.03-10.81-9.88 18.19-2.72 36.13-5.4 55.49-8.29-5.02-11.32-9.62-21.71-14.18-32 9.18-5.55 17.51-1.92 25.4 2.56 1.91 1.08 3.23 4.57 3.42 7.05.48 6.29.16 12.63.16 19.5 10.85-2.69 21.35-5.22 31.79-7.97 1.23-.33 2.94-1.8 3.07-2.9.92-7.5 1.94-15.05 1.96-22.58.01-4.25-2.06-8.46-2.78-12.76-.4-2.38-.84-5.58.37-7.15 1.08-1.4 4.94-2.13 6.66-1.29 6.25 3.05 12.36 6.55 18.06 10.54 3.6 2.52 3.63 6.59 2.03 10.72-2.39 6.14-4.5 12.39-7.08 19.57 10.09-2.7 17.64.04 24.28 5.69 1.2 1.02 2.71 3.17 2.35 4.17-.57 1.6-2.43 3.51-4.04 3.83-6.72 1.36-13.53 2.35-20.34 3.11-4.11.46-6.85 1.2-7.58 6.27-.92 6.4-2.79 12.73-4.95 18.84-1.12 3.17-.03 4.31 2.12 6.06 1.42 1.16 2.03 3.31 3 5.02-1.54.63-3.04 1.6-4.64 1.82-9.87 1.34-19.76 2.5-30.12 3.78 5.83 6.17 16.09 8.08 14.56 19.29 7.02-2.11 14.04-3.97 20.88-6.36 6.14-2.15 11.73-1.8 17.25 1.69 4.27 2.7 8.83 4.97 13.09 7.68 5.46 3.48 5.24 8.63.6 13.29-5.4 5.41-10.12 11.5-14.88 17.01.8 1.35.94 1.63 1.12 1.89 1.7 2.38 3.41 4.75 5.12 7.13-3.11 1.21-6.12 3.01-9.34 3.51-10.68 1.64-21.42 2.89-32.16 4.1-3.22.36-4.65 1.54-4.45 4.97.26 4.53.06 9.08.06 13.81 4.44-.53 9.5-1.98 14.36-1.49 4.78.48 9.45 2.72 13.98 4.63 1.21.51 2.7 2.95 2.37 3.93-.45 1.34-2.39 2.68-3.93 3.06-5.22 1.27-10.54 2.12-15.82 3.14-3.83.74-7.66 1.49-11.82 2.3-.48 3.7-.96 7.37-1.51 11.59 4.58-.33 8.43-.65 12.29-.87 5.62-.31 10.7 1.16 14.91 4.99.96.87 2.09 2.34 1.96 3.38-.12.99-1.68 2.31-2.81 2.58-7.76 1.81-15.55 3.59-23.4 4.92-2.82.48-3.68 1.51-3.61 4.13.11 4.26.03 8.53.03 13.28 11.71-3 22.68-6 33.77-8.52 2.78-.63 5.91.27 8.88.47-1.99 2.27-3.54 5.52-6.04 6.66-13.16 5.99-26.54 11.51-39.9 17.06-16.23 6.75-32.52 13.38-48.78 20.07-.6.25-1.24.53-1.72.95-10.22 8.96-19.07 4.29-27.53-2.88-3.41-2.89-7.11-5.77-9.56-9.4-2.81-4.18-.33-8.68 4.72-8.56 24.46.56 47.05-9.09 70.96-12.11-.01-5.75-.01-11.04-.01-17.46zm-32.6-91.63c1.33 8.51 2.55 16.3 3.85 24.63 10.78-2.1 20.65-4.03 30.72-5.99 0-8.45 0-16.86 0-25.95-11.57 2.45-22.79 4.82-34.57 7.31zm57.1-80.51c-10.5 2.02-19.94 3.75-29.32 5.78-.87.19-1.92 2.27-1.88 3.43.23 6.72.76 13.43 1.22 20.57 8.72-2.48 17.15-4.84 25.54-7.32.8-.24 1.89-1.16 1.99-1.87.88-6.46 1.57-12.94 2.45-20.59zm-5.3 94.21c7.24-1.55 14.65-3.1 22.04-4.77.69-.15 1.62-.93 1.75-1.56 1.16-5.4 2.41-10.8 3.12-16.26.52-3.98-1.78-6.44-5.83-5.97-5.31.62-10.51 2.23-15.82 2.7-4.27.38-5.57 2.04-5.36 6.2.34 6.56.1 13.15.1 19.66z" fill="#010100"/><path d="m217.92 99.87c-.27 2.23-.84 4.94-.88 7.67-.4 26.26-.21 52.54-1.24 78.77-.55 14.19-2.97 28.32-4.92 42.43-.42 3.06-2.23 6.05-3.85 8.8-2.25 3.81-4.91 3.96-7.42.5-6-8.27-8.06-17.48-6.36-27.61 2.35-14 4.97-27.97 6.61-42.06 1.36-11.62 2.25-23.4 1.94-35.07-.4-14.86-2.29-29.67-8.43-43.53-.46-1.04-1.11-2.17-1.05-3.22.08-1.5.29-3.47 1.25-4.32.95-.84 3.14-1.13 4.38-.63 3.9 1.57 7.96 3.15 11.29 5.62 3.07 2.28 5.69 2.24 8.97 1.19 15.32-4.9 30.9-9.08 45.93-14.72 7.86-2.96 14.46-2.3 21.31 1.49 5.57 3.08 11.11 6.22 16.6 9.44 3.98 2.33 5.3 5.91 1.66 11.58-5.91 9.22-8.12 19.38-8.48 29.75-.49 14.23.12 28.53.93 42.76.87 15.26 3.12 30.45 3.63 45.71.32 9.61-5.06 17.75-10.92 25.12-2.46 3.1-5.29 3.22-8.16-.24-7.02-8.44-8.91-17.84-6.69-28.47 1.1-5.27 1.86-10.71 1.9-16.08.2-24.16.55-48.33-.14-72.47-.28-9.84-3.15-19.6-4.69-29.42-.54-3.42-2.52-4.43-5.5-3.82-9.07 1.86-18.13 3.8-27.16 5.84-6.51 1.46-12.98 3.14-20.51 4.99z" fill="#010100"/><path d="m255 298.19c0-12.09.37-24.2-.13-36.27-.33-7.97-1.94-15.88-2.89-23.83-.53-4.39 1.6-6.58 5.66-5.12 4.52 1.62 8.94 3.79 13.02 6.34 4.48 2.8 4.79 7.36 4.11 12.31-1.75 12.64-3.57 25.29-4.61 38-.56 6.89.02 13.95.77 20.85 1.17 10.78 8.09 16.75 18.19 19.06 10.73 2.45 21.49 2.15 32.23-.47 6.15-1.5 10.06-5.07 11.59-11.1 3.76-14.81 7.39-29.65 11.07-44.49.2-.79.11-1.71.48-2.39.93-1.73 2.05-3.36 3.1-5.04 1.14 1.96 2.98 3.8 3.31 5.89 2.95 18.34 5.67 36.71 12.63 54.12 1.77 4.42.27 9.74-3.55 12.42-10.05 7.05-21.17 11.44-33.45 12.5-6.27.54-12.59.48-18.84 1.09-9.57.93-18.54-1.59-27.56-4.1-15.41-4.28-25-17-25.17-32.96-.06-5.6-.76-11.18-1.16-16.78.39-.01.79-.02 1.2-.03z" fill="#010100"/><path d="m151.81 338.47c6.36-4.82 12.51-9.95 19.13-14.39 14.03-9.4 26-21.19 36.8-33.83 8.44-9.87 12.85-22.47 16.77-35.03 4.24-13.63 7.24-27.46 8.41-41.63 1.08-13 1.61-26.05 2.02-39.09.31-10.02.31-20.06-.03-30.07-.22-6.48-2.43-12.46-7.18-17.2-.47-.47-1.07-.87-1.39-1.43-1.4-2.44-4.32-5.41-3.74-7.28 1.13-3.67 5.33-3.93 8.91-3.49 8.97 1.09 16.66 5.3 24.1 10.09 4.38 2.82 2.53 7.17 2.22 10.8-1.03 12.08-2.88 24.09-3.76 36.18-1.83 25.35-2.33 50.82-9.01 75.62-6.65 24.66-16.8 47.26-36.64 64.28-14.88 12.77-31.24 23.06-50.49 27.99-1.81.46-3.85.06-5.78.06-.11-.52-.22-1.05-.34-1.58z" fill="#010100"/></svg>