<svg enable-background="new 0 0 400 400" viewBox="0 0 400 400" xmlns="http://www.w3.org/2000/svg"><path d="m5.17 384 .55-.58c.85.61 1.65 1.24 2.4 1.87l-.59.64c-.83-.73-1.62-1.38-2.36-1.93m1.22 9.53-.82-.34c.71-1.76 1.37-3.64 1.98-5.63.24.13.5.25.76.36-.6 1.67-1.24 3.54-1.92 5.61m-.5-13.5.57-.54c.56.44 1.31 1.06 2.26 1.87l-.64.64c-.68-.66-1.41-1.32-2.19-1.97m3.25.46h2.24v-1.36h.77v1.36h4.57v-1.36h.76v1.36h2.28v.69h-2.28v1.84h-2.64v1.26h4.18v2.64h-4.21c0 .45-.02.86-.05 1.21h4.32v.69h-4.38c-.04.34-.1.75-.19 1.22h5.15v.69h-4.82c.87 1.19 2.51 1.92 4.93 2.19-.17.31-.3.57-.37.76-2.77-.49-4.52-1.41-5.26-2.76-.56 1.26-2.3 2.23-5.24 2.9-.12-.24-.26-.48-.43-.72 2.73-.55 4.38-1.34 4.96-2.38h-4.38v-.69h4.65c.1-.38.17-.79.21-1.22h-4.32v-.69h4.4c.03-.34.05-.75.05-1.21h-4.2v-2.64h4.23v-1.26h-2.69v-1.84h-2.24zm1.46 4.46v1.29h3.45c.01-.4.02-.57.01-.53v-.32-.45h-3.46zm1.55-2.59h4.57v-1.19h-4.57zm6.11 2.59h-3.42v.77c-.01.19-.01.37-.02.53h3.44z" fill="#fafafa"/><path d="m32.63 379.16h.82v1.98h3.54v7.89h1.46v.78h-14.37v-.78h1.46v-7.89h3.54v-1.98h.82v1.98h2.73zm-3.49 11.48.5.73c-1.61.82-3.28 1.63-5 2.41-.13-.27-.28-.55-.44-.82 1.75-.72 3.4-1.49 4.94-2.32m-2.78-5.55h2.73v-3.18h-2.73zm0 3.95h2.73v-3.2h-2.73zm3.54-3.95h2.73v-3.18h-2.73zm0 3.95h2.73v-3.2h-2.73zm7.89 4.68c-1.84-.92-3.51-1.7-5.02-2.32l.45-.73c1.89.8 3.57 1.55 5.04 2.23zm-1.62-11.81h-2.73v3.18h2.73zm-2.73 7.13h2.73v-3.2h-2.73z" fill="#fafafa"/><g fill="#000001"><path d="m160.78 307.11c3.52-1.28 5.95-2.68 8.52-3.03 16.07-2.15 32.16-4.12 48.26-6.03 9.93-1.18 19.89-2.14 30.45-3.26 0-1.83 0-3.61 0-5.38 0-16.99-.13-33.99.03-50.98.19-19.76.55-39.53 1-59.28.27-11.8-2.09-23.06-6.01-34.12-1.02-2.87-2.78-3.61-5.23-2.9-9.39 2.75-18.89 2.64-28.32.75-3.92-.79-7.69-2.63-11.29-4.46-1.12-.57-2.17-2.8-1.94-4.03.22-1.21 1.95-2.73 3.28-3.04 4.44-1.04 8.97-1.81 13.5-2.31 17.54-1.93 34.87-4.88 51.82-9.93 14.8-4.41 29.58-8.95 44.56-12.65 7.78-1.92 15.79-.31 22.79 3.78 2.04 1.19 4.13 4.36 4.02 6.51-.09 1.82-3.06 4.46-5.22 5.04-11.3 3.03-22.72 5.67-34.16 8.17-11.61 2.54-23.29 4.75-34.93 7.16-.87.18-1.65.84-2.88 1.49 2.57 2.18 4.66 4.74 7.35 6.05 3.89 1.9 3.73 4.89 3.66 8.25-.37 17.93-.56 35.86-1.06 53.79-.5 18.04-1.25 36.06-1.98 54.09-.41 10.22-1 20.43-1.54 31.44 5.82-.87 11.57-1.7 17.31-2.61 11.61-1.85 23.2-3.81 34.81-5.6 5.33-.82 10.81-2.33 16.04-1.78 6.68.7 13.46 2.48 19.64 5.1 4.68 1.98 8.76 5.72 12.57 9.25 1.56 1.44 2.95 5.09 2.18 6.52-1.03 1.91-4.23 3.67-6.53 3.72-15.99.31-31.99-.09-47.98.24-17.37.36-34.81.48-52.07 2.13-22.42 2.15-44.81 4.99-66.76 10.46-10.64 2.65-20.43.97-28.83-6.42-1.57-1.37-2.7-3.23-5.06-6.13z"/><path d="m67.36 268c2.62.52 6.83.52 10.21 2.19 6.91 3.41 13.31 1.61 19.58-.89 10.4-4.15 20.67-8.67 30.82-13.39 3.71-1.73 6.7-2.42 10.54-.17 5.77 3.39 11.99 5.99 17.92 9.12 6.42 3.38 6.8 6.81 3.26 13.14-4.97 8.9-9.13 18.24-13.84 27.29-1.51 2.9-.67 4.1 1.87 5.8 2.61 1.75 4.52 4.54 6.73 6.88-2.62 1.25-5.12 3.07-7.88 3.65-12.59 2.65-25.26 4.92-37.88 7.4-3.18.63-6.56 1.08-9.35 2.56-1.35.72-2.02 3.59-2.17 5.55-.33 4.49.24 9.06-.28 13.52-.48 4.09-2.86 4.6-6.04 1.7-6.36-5.79-8.93-13.54-10.76-21.53-4.22-18.44-9.63-36.47-17.5-53.71-.4-.88-.58-1.86-.87-2.79-1.61-5.11-.76-6.33 5.64-6.32zm27.19 52.87c9.85-3.12 18.99-5.89 28.03-9 1.42-.49 2.98-2.3 3.37-3.78 2.34-8.96 4.43-17.99 6.45-27.03.83-3.72-2.35-8.11-5.83-7.94-2.9.14-5.82.69-8.63 1.45-8.78 2.37-17.44 5.27-26.3 7.23-3.56.79-4.05 2.51-3.58 5.12 2.03 11.16 4.24 22.3 6.49 33.95z"/><path d="m303.19 223.4c-9.8 10.7-17.19 23.21-31.03 28.07-.53-.41-1.07-.83-1.6-1.24 1.25-2.64 2.23-5.46 3.8-7.89 5.93-9.18 12.91-17.79 17.92-27.43 8.29-15.93 14.58-32.65 10.78-51.3-.39-1.91-.94-3.97-.58-5.79.27-1.39 1.77-3.51 2.89-3.62 9.35-.91 17.21 3.23 24.4 8.48 3.54 2.59 2.14 6.37.41 9.74-6.41 12.52-12.8 25.06-19.18 37.59-.89 1.75-1.72 3.53-2.51 5.16 8.43 3.26 16.92 6.27 25.18 9.8 12.38 5.29 15.37 11.71 15.27 24.4-.04 5.45-4.98 8.52-9.56 5.56-6.84-4.42-13.39-9.42-19.53-14.77-5.77-5.02-10.83-10.83-16.66-16.76z"/><path d="m155.4 128.71c7.87.63 13.96 1.29 18.89 5.91 3.58 3.36 3.65 5.87-.88 7.38-5.51 1.83-11.32 2.77-17.03 3.96-17.2 3.59-34.5 6.75-51.6 10.79-14.38 3.4-28.35 8.77-42.84 11.39-9.93 1.79-19.7-1.8-26.9-9.73-2.86-3.15-.31-7.63 4.57-8.38 11.14-1.7 22.32-3.13 33.41-5.08 15.08-2.65 30.11-5.59 45.13-8.56 12.93-2.55 25.83-5.32 37.25-7.68z"/><path d="m202.17 226.97c4.56 1.37 9.02 2.75 13.5 4.06 10.19 2.98 17.16 9.93 16.34 21.3-.39 5.36-3.46 7.2-8.39 4.82-1.75-.84-3.49-1.83-4.97-3.08-7.16-6.04-14.24-12.18-21.32-18.32-.34-.29-.44-.87-.83-1.68-9.02 8.38-15.46 19.71-28.9 23.32.81-1.97 1.29-4.15 2.47-5.86 11.73-17.16 22.74-34.74 27.93-55.11 1.48-5.82.7-12.19 1.13-18.3.17-2.36.07-5.75 1.46-6.74 1.6-1.14 5.01-.82 7.12.07 6.31 2.67 11.51 6.99 14.41 13.33.92 2.02 1.27 5.24.28 7.03-6.42 11.72-13.28 23.2-20.23 35.16z"/><path d="m169.03 85.02c.41 3.08-.07 7.28-4.04 8.16-3.54.79-8.48.62-11.21-1.34-8.62-6.19-16.5-13.41-24.67-20.24-4.02-3.36-8.05-6.7-12.06-10.08-3.33-2.81-4.34-6.86-2.44-10.23 1.67-2.97 5.41-2.64 8.93-1.63 8.25 2.37 16.74 3.91 24.95 6.4 15.12 4.61 19.78 12 20.54 28.96z"/><path d="m98.98 238.81c-4.62-1.03-9.9-1.97-15.01-3.5-1.56-.47-2.64-2.55-3.94-3.89 1.33-.98 2.52-2.47 4-2.87 15.67-4.27 31.27-8.98 47.17-12.18 5.88-1.18 12.55 1.07 18.74 2.33 1.28.26 2.97 3.22 2.78 4.73-.2 1.63-2.12 3.91-3.73 4.36-10.48 2.97-21.03 5.7-31.65 8.13-5.71 1.32-11.61 1.86-18.36 2.89z"/><path d="m101.34 197.47c-3.37-.64-8.37-1.35-13.21-2.64-1.57-.42-2.73-2.35-4.07-3.59 1.45-1.11 2.74-2.79 4.38-3.25 15.92-4.43 31.79-9.14 47.92-12.63 4.41-.96 9.89 1.34 14.44 3.21 3.68 1.5 3.56 7.02-.1 7.98-15.78 4.17-31.11 10.34-49.36 10.92z"/></g></svg>