<svg enable-background="new 0 0 400 400" viewBox="0 0 400 400" xmlns="http://www.w3.org/2000/svg"><path d="m5.17 384 .55-.58c.85.61 1.65 1.24 2.4 1.87l-.59.64c-.83-.73-1.62-1.38-2.36-1.93m1.22 9.53-.82-.34c.71-1.76 1.37-3.64 1.98-5.63.24.13.5.25.76.36-.6 1.67-1.24 3.54-1.92 5.61m-.5-13.5.57-.54c.56.44 1.31 1.06 2.26 1.87l-.64.64c-.68-.66-1.41-1.32-2.19-1.97m3.25.46h2.24v-1.36h.77v1.36h4.57v-1.36h.76v1.36h2.28v.69h-2.28v1.84h-2.64v1.26h4.18v2.64h-4.21c0 .45-.02.86-.05 1.21h4.32v.69h-4.38c-.04.34-.1.75-.19 1.22h5.15v.69h-4.82c.87 1.19 2.51 1.92 4.93 2.19-.17.31-.3.57-.37.76-2.77-.49-4.52-1.41-5.26-2.76-.56 1.26-2.3 2.23-5.24 2.9-.12-.24-.26-.48-.43-.72 2.73-.55 4.38-1.34 4.96-2.38h-4.38v-.69h4.65c.1-.38.17-.79.21-1.22h-4.32v-.69h4.4c.03-.34.05-.75.05-1.21h-4.2v-2.64h4.23v-1.26h-2.69v-1.84h-2.24zm1.46 4.46v1.29h3.45c.01-.4.02-.57.01-.53v-.32-.45h-3.46zm1.55-2.59h4.57v-1.19h-4.57zm6.11 2.59h-3.42v.77c-.01.19-.01.37-.02.53h3.44z" fill="#fafafa"/><path d="m32.63 379.16h.82v1.98h3.54v7.89h1.46v.78h-14.37v-.78h1.46v-7.89h3.54v-1.98h.82v1.98h2.73zm-3.49 11.48.5.73c-1.61.82-3.28 1.63-5 2.41-.13-.27-.28-.55-.44-.82 1.75-.72 3.4-1.49 4.94-2.32m-2.78-5.55h2.73v-3.18h-2.73zm0 3.95h2.73v-3.2h-2.73zm3.54-3.95h2.73v-3.18h-2.73zm0 3.95h2.73v-3.2h-2.73zm7.89 4.68c-1.84-.92-3.51-1.7-5.02-2.32l.45-.73c1.89.8 3.57 1.55 5.04 2.23zm-1.62-11.81h-2.73v3.18h2.73zm-2.73 7.13h2.73v-3.2h-2.73z" fill="#fafafa"/><g fill="#000001"><path d="m308.98 318.66c2.86 0 4.7-.42 6.25.07 6.65 2.13 13.15 4.72 19.83 6.76 6.28 1.93 9.67-.78 9.93-7.49.69-17.53 1.58-35.07 1.95-52.61.55-25.93.89-51.87.99-77.8.05-14.1-.32-28.22-1.03-42.3-.51-10.14-1.52-20.28-2.97-30.33-.94-6.5-6.41-9.37-12.64-7.65-8.14 2.26-16.32 4.39-24.39 6.89-1.24.38-2.42 2.32-2.8 3.76-.66 2.51-.8 5.18-.95 7.79-.63 11.32-1.18 22.65-1.71 33.04 7.47-1.25 15.09-3.26 22.77-3.52 4.41-.15 8.97 2.39 13.33 4.08 1.08.42 2.45 2.48 2.2 3.38-.35 1.28-1.92 2.81-3.23 3.14-6.3 1.58-12.69 2.82-19.06 4.11-5.4 1.09-10.82 2.06-16.24 3.09-1.32 12.67-2.58 24.87-3.76 36.18 7.4-1.44 15.17-3.09 22.99-4.43 7.38-1.26 13.77 1.44 18.98 6.39 2.29 2.17 1.34 4.98-2.05 5.75-5.23 1.18-10.51 2.22-15.81 3-7.94 1.17-15.93 1.97-23.86 3.18-1.02.16-2.32 1.68-2.63 2.8-4.88 17.89-8.71 36.11-14.64 53.64-5.59 16.5-13.2 32.36-23.33 46.72-5.28 7.48-11.03 14.63-16.77 21.76-1.87 2.32-4.4 4.03-8.6 1.71 4.08-8.17 8.33-16.15 12.1-24.34 6.87-14.94 13.57-29.96 20.14-45.03 6.21-14.24 10.3-29.17 12.85-44.45 1.57-9.37 2.03-18.92 3.19-28.37 2.79-22.73 3.14-45.55 3.01-68.41-.07-11.47-2.66-22.36-7-32.87-3.29-7.96-1.74-10.19 6.85-9.25 1.6.18 3.49.37 4.66 1.29 8.74 6.95 18.07 4.19 27 1.23 6.72-2.23 12.77-6.43 19.46-8.78 4.16-1.46 9.39-2.52 13.38-1.28 9.03 2.79 17.69 7.02 24.41 14.03 1.21 1.27 1.95 4.34 1.28 5.85-5.82 13.18-6.43 27-6.14 41.08.28 13.49-.06 27 .09 40.5.22 19.27.59 38.54.99 57.8.23 11.27.56 22.54 1.01 33.8.56 14.04 1.67 28.07 1.87 42.11.22 14.97-5.9 27.53-16.23 38.25-3.2 3.33-7.36 4.46-11.32-.22-6.13-7.23-11.73-14.92-17.55-22.42-5.2-6.72-10.43-13.44-16.8-21.63z"/><path d="m196.72 147.56c1.32-8.92 2.58-17.51 3.88-26.29-11.72-1.35-24.53 2.63-36.05-7.92 4.48-1.71 7.83-3.47 11.39-4.25 7.48-1.65 15.09-2.68 22.59-4.23 1.29-.26 3.18-1.67 3.32-2.74.94-7.33 1.49-14.71 2.15-22.07.35-3.93.53-7.88 1.03-11.8 1.11-8.78-1.69-16.82-4.29-24.96-1.69-5.29.14-7.87 5.58-7.2 10.36 1.28 18.59 6.89 25.37 14.54 1.05 1.18.91 4.03.41 5.86-3.02 11.14-6.35 22.2-9.46 33.32-.69 2.47-.94 5.06-1.43 7.85 10.74-6.83 21.78-7.59 32.95-1.88 1.75.9 3.43 3.57 3.52 5.49.06 1.18-2.78 3.07-4.64 3.68-10.49 3.47-21.13 6.51-31.58 10.08-1.82.62-3.84 2.87-4.35 4.75-2.1 7.78-3.66 15.71-5.49 23.94 11.23-2 21.57-4.77 32.03-5.32 5.18-.27 10.83 3.04 15.8 5.62 4.73 2.45 9.03 5.86 13.19 9.25 2.92 2.38 3.64 6.29.69 8.66-15.17 12.19-18.31 30.37-24.4 47.15-1.53 4.21-3.73 8.45-6.62 11.84-4.3 5.06-6.98 4.23-11.53-2.65-7.6.92-15.33 1.86-23.63 2.86 2.51 2.34 4.68 4.4 6.88 6.42 2.83 2.61 3.45 5.64 2.56 9.4s-1.15 7.66-1.8 12.3c3.17-.67 5.64-1.17 8.11-1.71 9.29-2.04 18.58-4.44 27.94-.47 1.62.69 3.26 1.64 4.51 2.86 3.29 3.21 2.18 7.1-2.35 8.03-11.8 2.44-23.65 4.65-35.45 7.12-1.29.27-3.11 1.45-3.38 2.53-.76 2.99-1.05 6.15-1.14 9.26-.42 15.59-.44 31.2-1.15 46.78-.35 7.64-1.61 15.28-3.08 22.79-.41 2.07-2.89 4.97-4.71 5.2-1.85.23-4.56-1.96-6.02-3.78-6.62-8.22-9.96-17.83-8.87-28.3.78-7.56 3.53-14.9 4.62-22.46 1.31-9.09 1.8-18.3 2.69-27.96-8.32 2.24-15.77 4.65-23.39 6.19-9.81 1.98-18.49-1.52-25.81-7.77-4.09-3.49-3.01-8.08 2.44-8.85 1.93-.27 3.87-.71 5.81-.69 12.88.14 25.71.01 38.36-2.97 3-.71 4.23-2.21 4.1-5.13-.35-7.43-.62-14.86-1.07-22.29-.14-2.35-1.24-3.9-4.11-3.7-3.31.23-6.65.05-10.16.05-.95 2.38-1.87 4.7-3.05 7.66-7.9-6.18-10.98-14.15-12.61-22.96-3.07-16.52-6.71-32.87-14.06-48.14-.77-1.6-2.07-3.53-1.7-4.94.42-1.59 2.94-4.17 3.69-3.9 12.82 4.56 24.69-.9 36.84-3.1 1.56-.28 3.14-.66 4.93-1.05zm-20.29 37.93c9.75-2.76 19.17-5.87 28.81-7.97 5.51-1.2 11.59-1.94 16.78 1.59 1.54 1.04 2.86 3.09 3.21 4.88.15.78-2.25 2.58-3.76 3.05-3.07.96-6.32 1.35-9.5 1.95-10.98 2.08-21.97 4.16-33.32 6.31 1.3 6.49 2.48 12.37 3.7 18.49 7.99-1.93 15.84-3.88 23.72-5.72 8.61-2.01 17.27-4.74 25.88.96.78-2.03 1.69-3.62 1.99-5.32 2.42-13.64 5.21-27.23 6.91-40.96 1.2-9.68.51-9.77-9.35-9.75-1.33 0-2.71-.2-3.99.07-17.03 3.61-34.04 7.33-51.07 10.93-3.16.67-3.88 2.53-3.31 5.35 1.1 5.41 2.21 10.83 3.3 16.14z"/><path d="m56.31 253.86c.15-4.57 3.56-5.03 6.28-4.69 4.46.57 8.75 2.53 13.22 3.03 2.84.32 6.11-.37 8.75-1.57 10.2-4.66 20.43-9.31 30.22-14.75 5.69-3.16 10.83-2.44 16.18-.36 4.4 1.7 8.66 3.79 12.88 5.89 5.57 2.78 6.49 6.14 2.82 11.38-6.09 8.68-9.83 18.21-12.04 28.57-.68 3.18.13 4.16 2.46 5.2.74.33 1.59.63 2.11 1.2 1.19 1.31 2.21 2.78 3.3 4.18-1.85 1.35-3.53 3.44-5.59 3.93-13.6 3.22-27.26 6.15-40.93 9.05-4.55.96-6.97 3.19-5.97 8.1.03.16.05.35 0 .5-.94 2.47-1.89 4.93-2.84 7.39-2.37-1.56-5.8-2.59-6.9-4.79-3.23-6.45-5.61-13.34-8.17-20.11-4.69-12.46-9.27-24.96-13.9-37.43-.6-1.59-1.25-3.15-1.88-4.72zm24.77 7.55c2 10.18 4.08 20.16 5.85 30.2.5 2.84 1.07 3.71 4.04 2.52 7.98-3.19 16.11-6.04 24.13-9.14.81-.31 1.74-1.34 1.91-2.17 1.75-8.76 3.41-17.54 4.97-26.34.75-4.23-2.26-5.7-5.52-5.95-2.31-.18-4.77.68-7.05 1.42-9.42 3.05-18.78 6.25-28.33 9.46z"/><path d="m52.18 151.29c-8.45.09-15.2-3.66-21.24-8.96-3.23-2.83-2.51-6.18 1.78-7.27 8.81-2.24 17.72-4.1 26.62-6.02 14.31-3.09 28.68-5.94 42.96-9.2 13.15-3 26.11-6.84 39.32-9.48 6.63-1.32 13.05.84 17.63 6.44 2.5 3.05 1.78 5.97-2.05 7.01-6.11 1.65-12.32 3.02-18.56 4.1-20.22 3.52-40.09 8.31-59.41 15.37-7.16 2.62-14.52 4.67-21.81 6.9-1.69.54-3.49.76-5.24 1.11z"/><path d="m142.4 94.22c-3.93-2.02-7.11-3.04-9.52-5.01-9.28-7.6-18.45-15.35-27.35-23.39-2.12-1.91-3.73-5-4.36-7.81-.85-3.82 1.89-5.68 5.43-4.91 11.96 2.6 23.59 5.98 34.12 12.71 7.34 4.69 9.89 16.54 7.93 22.44-.78 2.35-3.97 3.89-6.25 5.97z"/><path d="m91.17 178.54c-3.69-.65-7.42-1.11-11.04-2.04-1.19-.3-3.04-2.05-2.88-2.71.33-1.29 1.65-2.89 2.91-3.29 7.1-2.3 14.3-4.32 21.48-6.37 7.65-2.18 15.24-4.76 23.03-6.22 3.89-.73 8.22.45 12.27 1.22 1.17.22 2.98 2.15 2.85 3.06-.24 1.68-1.33 3.99-2.72 4.62-3.97 1.81-8.2 3.12-12.43 4.24-10.98 2.9-22.01 5.59-33.02 8.37-.15-.29-.3-.59-.45-.88z"/><path d="m93.42 218.48c-3.77-.96-7.6-1.73-11.28-2.94-3.09-1.01-2.75-3.14-.43-4.59 2.01-1.26 4.41-1.95 6.71-2.67 10.53-3.31 21-6.84 31.65-9.7 5.63-1.51 11.64-1.66 17.09 1.17 1.28.66 2.67 2.61 2.63 3.92-.04 1.45-1.41 3.77-2.65 4.12-14.35 4.06-28.79 7.81-43.21 11.64-.17-.32-.34-.64-.51-.95z"/></g></svg>