<svg enable-background="new 0 0 400 400" viewBox="0 0 400 400" xmlns="http://www.w3.org/2000/svg"><g fill="#010000"><path d="m266.12 280.62c-10.61 10.33-22.2 18.55-35.08 24.8-16.03 7.79-32.88 13.25-50.41 16.52-.81.15-1.72.25-2.48.02-1.72-.52-3.38-1.26-5.06-1.9 1.18-1.1 2.2-2.49 3.57-3.27 17.05-9.64 34.52-18.62 51.13-28.97 10.78-6.72 20.34-15.42 29.87-22.79-7.83-19.9-15.2-38.64-22.71-57.74-11.72 3.83-24.22 7.34-36.27 12-11.22 4.35-20.61 1.21-29.76-4.88-3.56-2.37-3.51-4.63.46-6 7.21-2.49 14.64-4.34 22.01-6.36 12.39-3.4 24.82-6.67 37.17-10.19.82-.23 1.82-2.34 1.59-3.31-2.47-10.43-5.18-20.81-7.92-31.6-5.68 1.2-11.49 2.66-17.38 3.62-8.78 1.44-17.41.45-25.6-3.02-1.6-.68-2.66-2.65-3.97-4.03 1.56-1.16 2.96-2.92 4.7-3.36 7.56-1.93 15.24-3.37 22.83-5.18 5.36-1.28 10.66-2.86 15.77-4.25-3.54-18.09-7.68-35.86-10.33-53.85-1.9-12.94-7.95-22.79-17.71-30.68-3.11-2.51-5.89-5.57-3.87-8.77 1.68-2.66 6.07-5.28 9.1-5.1 6.71.39 13.39 2.29 19.94 4.1 3.05.84 5.96 2.6 8.6 4.44 8.98 6.27 6.61 15.72 6.54 24.51-.05 6.06-.19 12.12.01 18.17.16 4.93.66 9.85 1.15 14.77.87 8.63 1.86 17.25 2.89 26.68 7.51-3.03 14.48-5.83 21.43-8.67 9.09-3.7 18.41-4.49 27.97-2.29 1.1.25 2.44.47 3.14 1.21 1.69 1.79 3.95 3.74 4.27 5.88.21 1.42-2.23 4.1-4.03 4.8-9.4 3.61-18.94 6.87-28.5 10.04-5.71 1.9-11.56 3.36-17.31 5.14-2.26.7-3.29 1.95-2.51 4.77 2.71 9.87 5.07 19.84 7.5 29.49 12.29-4.37 23.98-9.46 36.16-12.55 9.16-2.32 19.04-2.16 27.62 3.44 1.51.98 3.46 3.46 3.11 4.61-.6 1.98-2.56 4.36-4.47 4.99-7.24 2.39-14.71 4.11-22.07 6.15-10.66 2.94-21.27 6.04-31.96 8.85-2.65.7-3.74 1.42-2.66 4.35 5.44 14.8 10.74 29.66 16.23 44.91 9.6-12.89 15.81-26.35 19.33-41.14 1.34-5.63 5.5-7.33 9.98-3.8 5.25 4.14 9.99 9.02 14.43 14.05 3.85 4.36.15 7.96-2.51 11.14-9.49 11.36-19.11 22.61-28.77 33.81-1.74 2.02-1.93 3.47-.33 5.79 9.75 14.12 20.22 27.62 32.89 39.27 2.27 2.08 4.87 3.89 7.55 5.42 4.27 2.42 9.4 1.28 11.7-3.21 3.69-7.22 6.76-14.76 9.94-22.23 3.24-7.61 6.28-15.31 9.47-23.13 3.73 2.63 4.51 4.57 4.52 10.42.01 20-.13 40 .09 59.99.06 5.36 1.05 10.73 1.84 16.06.58 3.93-2.28 8.11-6.47 7.22-6.73-1.43-13.69-3.36-19.61-6.73-15.91-9.06-29.34-21.48-41.18-35.24-8.24-9.59-14.61-20.79-21.8-31.29-1.22-1.75-2.3-3.58-3.77-5.9z"/><path d="m122.27 161.35c2.91 2.54 5.5 4.49 7.72 6.8 6.99 7.27 3.35 16.24 3.61 24.55.08 2.58-.52 5.18-.86 8.18 5.85-1.6 11.05-3.25 16.36-4.41 5.82-1.28 11.39-.25 16.21 3.41 3.84 2.91 3.73 4.78-.91 6.15-9.02 2.67-18.2 4.83-27.39 6.88-2.96.66-4.04 1.75-4.08 4.85-.17 14.26-.53 28.53-.98 42.79-.1 3.24-.78 6.46-1.3 10.54 12.32-4.41 23.86-8.68 35.51-12.61 3.19-1.08 6.72-1.15 10.09-1.69.3.62.6 1.24.9 1.87-1.44 1.67-2.63 3.66-4.34 4.96-16.32 12.38-35.87 18.71-53.64 28.38-14.19 7.72-28.42 15.39-42.24 23.75-6.95 4.2-11.78.4-17.1-2.51-3.57-1.95-6.83-4.45-10.41-6.38-4.06-2.19-5.1-5.93-4.69-9.78.38-3.59 3.82-3.68 6.87-4.19 9.28-1.53 18.49-3.42 28.64-5.34-3.45-14.42-6.6-28.3-10.12-42.09-2.94-11.53-6.35-22.88-12.83-33.14-3.09-4.89-.29-9.1 5.53-8.17 8.32 1.33 16.71 3.42 22.27 10.6 1.58 2.04 2.59 4.93 2.81 7.52.92 10.84 1.23 21.74 2.18 32.58.82 9.3 2.21 18.55 3.39 28.11 7.39-2.44 14.78-4.88 23.09-7.63-3.35-36.54 1.86-73.9-7.17-109.7-10.05-1.77-10.75 5.12-12.12 11.86-6.48-2.91-9.54-7.89-11.15-13.33-3.42-11.52-5.82-23.34-9.21-34.87-2.19-7.46-5.56-14.58-8.05-21.96-.74-2.19-.32-4.77-.44-7.17 2.12-.09 4.31-.55 6.36-.2 4.32.73 8.6 2.76 12.84 2.62 4.91-.16 9.94-1.6 14.6-3.34 10.79-4.03 21.47-8.38 32.01-13.02 4.68-2.06 8.85-2.46 13.41-.01 5.31 2.85 10.78 5.39 16.14 8.14 6.48 3.33 8.21 7.95 3.7 13.41-7.75 9.37-11.38 20.33-14.76 31.62-.97 3.26-.63 4.94 2.37 6.25 1.03.45 2.17 1.04 2.81 1.91.91 1.23 1.92 2.78 1.89 4.17-.02.82-1.88 2.03-3.08 2.3-7.93 1.78-15.92 3.33-23.88 4.99-3.47.72-6.89 1.53-10.56 2.35zm-30.02-48.21c2 13.58 3.96 26.3 5.69 39.04.39 2.84.63 4.25 4.12 2.96 5.78-2.14 11.67-4.16 17.69-5.38 9.59-1.94 15.36-6.44 16.08-17.03.53-7.74 2.94-15.33 4.07-23.04.52-3.57-3.79-7.35-7.19-6.54-13.54 3.23-27.03 6.66-40.46 9.99z"/><path d="m266.87 65.28c7.18 1.9 14.5 3.4 21.5 5.82 8.25 2.85 16.96 4.98 23.21 11.93 5.33 5.92 6.84 12.98 6.28 20.52-.35 4.75-4.83 7.21-9.04 4.6-5.8-3.59-11.08-8.05-16.45-12.31-7.06-5.6-13.89-11.48-20.99-17.02-4.72-3.7-6.16-6.96-4.51-13.54z"/></g><path d="m6.44 374.46.42-.45c.65.47 1.27.95 1.85 1.44l-.45.49c-.65-.56-1.25-1.06-1.82-1.48m.93 7.33-.63-.26c.55-1.36 1.05-2.8 1.52-4.33.19.1.38.19.59.27-.46 1.29-.95 2.73-1.48 4.32m-.38-10.38.44-.42c.43.34 1.01.82 1.74 1.44l-.49.49c-.53-.51-1.09-1.01-1.69-1.51m2.5.35h1.72v-1.04h.59v1.04h3.52v-1.04h.59v1.04h1.75v.53h-1.75v1.42h-2.03v.97h3.22v2.03h-3.24c0 .35-.01.66-.03.93h3.32v.53h-3.37c-.03.27-.08.58-.15.94h3.96v.53h-3.71c.67.92 1.93 1.48 3.79 1.68-.13.24-.23.44-.29.59-2.13-.38-3.48-1.08-4.04-2.12-.43.97-1.77 1.72-4.03 2.23-.09-.19-.2-.37-.33-.55 2.1-.42 3.37-1.03 3.81-1.83h-3.36v-.53h3.58c.08-.29.13-.61.16-.94h-3.33v-.53h3.39c.02-.27.04-.58.04-.93h-3.23v-2.03h3.25v-.97h-2.07v-1.42h-1.73zm1.12 3.44v1h2.65c.01-.3.02-.44.01-.4v-.25-.35zm1.19-2h3.52v-.91h-3.52zm4.71 2h-2.63v.59c0 .15-.01.28-.01.4h2.64z" fill="#fafbfa"/><path d="m13.56 383.74h.63v1.52h2.72v6.07h1.13v.6h-11.06v-.6h1.13v-6.07h2.73v-1.52h.63v1.52h2.1v-1.52zm-2.69 8.83.38.56c-1.24.63-2.53 1.25-3.85 1.85-.1-.21-.21-.42-.34-.63 1.36-.55 2.63-1.15 3.81-1.78m-2.13-4.27h2.1v-2.45h-2.1zm0 3.04h2.1v-2.46h-2.1zm2.72-3.04h2.1v-2.45h-2.1zm0 3.04h2.1v-2.46h-2.1zm6.07 3.6c-1.41-.71-2.7-1.3-3.86-1.78l.35-.56c1.45.62 2.75 1.19 3.88 1.72zm-1.25-9.09h-2.1v2.45h2.1zm-2.09 5.49h2.1v-2.46h-2.1z" fill="#fafbfa"/></svg>