<svg enable-background="new 0 0 400 400" viewBox="0 0 400 400" xmlns="http://www.w3.org/2000/svg"><g fill="#010000"><path d="m121.11 162.36c13.72 7.81 12.58 19.19 11.06 30.99-.71 5.55-.12 11.26-.12 17.08 5.18-2.07 9.99-4.63 15.12-5.89 6.79-1.67 13.92-2.78 20.08 2.2 1.2.97 2.76 2.94 2.47 3.96-.38 1.34-2.3 2.76-3.81 3.16-9.59 2.53-19.21 5.01-28.92 7.05-4.43.93-6.14 2.64-6.14 7.44-.01 10.02-.86 20.04-1.37 30.37 14.36-4.17 27.55-12.52 42.78-14.13.41.44.81.88 1.22 1.32-1.06 1.68-1.77 3.8-3.24 4.96-14.9 11.8-32.82 18.19-49.3 27.17-15.62 8.52-31.13 17.25-46.67 25.92-.99.55-1.81 1.39-2.77 2.01-4.62 2.98-9.01 5.57-14.7 1.55-5.04-3.56-11.06-5.76-15.99-9.44-2.35-1.75-4.34-5.53-4.38-8.42-.05-3.29 3.51-4.16 6.91-4.81 10.37-1.97 20.64-4.48 30.87-7.08 1.15-.29 2.81-2.75 2.56-3.78-4.87-19.56-8.63-39.47-17.74-57.72-.73-1.45-2.06-2.73-2.36-4.24-.45-2.22-1.12-5.28-.03-6.67 1.2-1.53 4.66-2.69 6.5-2.08 6.44 2.13 12.89 4.59 18.74 7.96 2.47 1.42 4.59 5.27 4.93 8.24 1.74 15.35 2.86 30.76 4.15 46.16.15 1.82.02 3.65.02 6.03 7.34-2.33 14.4-4.46 21.35-6.93.88-.31 1.59-2.43 1.6-3.71.1-16.99.31-33.99-.02-50.98-.21-10.87-1.04-21.74-2.02-32.57-.33-3.64-1.83-7.22-3.11-10.71-.23-.64-2.12-1.26-2.95-1-2.06.65-5.27-1.03-5.9 2.97-.39 2.48-1.62 4.83-2.47 7.23-2.42-1.82-5.28-3.26-7.18-5.52-6.26-7.42-6.47-17.13-9.27-25.88-3.6-11.28-7.32-22.54-11.09-33.76-.67-2-2.32-3.72-2.74-5.74-.45-2.17-.86-5.41.31-6.58 1.27-1.26 4.61-1.41 6.66-.78 11.21 3.46 21.82 1.36 32.43-2.52 9.45-3.46 19.04-6.53 28.56-9.81 6.62-2.28 12.79-2.7 18.61 2.45 3.13 2.77 7.1 4.59 10.64 6.92 5.32 3.5 6.35 6.97 2.48 11.73-9.1 11.19-13.8 24.17-17.25 37.92-.8 3.21.23 4.22 2.13 5.98 1.44 1.34 2.18 3.43 3.23 5.19-1.78.81-3.49 2.04-5.36 2.36-8.99 1.55-18.01 2.83-28.51 4.43zm-28.34-52.32c.39 2.86.77 5.93 1.24 8.99 1.67 10.97 3.3 21.95 5.1 32.9.38 2.31 1.73 3.71 4.59 2.79 4.48-1.44 9-3.13 13.63-3.7 10.46-1.29 15.63-6.64 16.48-17.3.7-8.74 2.66-17.38 4.23-26.04.72-3.99-2.07-5.17-4.74-5.39-3-.25-6.14.53-9.16 1.15-10.19 2.08-20.36 4.28-31.37 6.6z"/><path d="m170.59 181.55c4.34-.94 7.89-1.96 11.51-2.44 13.47-1.8 26.99-3.23 40.44-5.16 14.05-2.03 28.05-4.45 42.06-6.76 14.33-2.36 28.67-4.68 42.97-7.22 9.62-1.71 19.13-4.09 28.78-5.54 7.64-1.15 14.3 2.52 20.64 6.23 2.65 1.55 5.03 3.78 7.06 6.11 1.13 1.3 2.01 3.62 1.65 5.17-.29 1.25-2.49 2.63-4.03 2.91-3.86.7-7.83 1.05-11.76 1.11-10.16.14-20.32-.08-30.48.09-8.93.15-17.86.62-26.79 1.01-.73.03-1.45.55-2.42.94 2.99 2.18 5.83 4.02 8.39 6.19 3.62 3.08 5.32 6.91 3.5 11.71-.11.3-.09.66-.1.99-.34 13.93-.84 27.85-.94 41.78-.05 7.26.67 14.53.91 21.79.4 11.93.66 23.86 1.03 35.79.28 9.1.98 18.2.91 27.29-.09 12.58-3.8 24.07-11.78 34.01-3.09 3.85-6.35 5.73-11.5.72-9.95-9.7-20.31-18.99-30.37-28.58-1.91-1.82-3.24-4.23-4.84-6.37.31-.59.61-1.18.92-1.77 5.82.96 11.64 1.89 17.45 2.88 2.73.47 5.42 1.2 8.17 1.55 6.78.85 9.91-1.54 9.96-8.48.17-25.32.28-50.64-.02-75.96-.15-12.37-.79-24.78-2.07-37.08-.8-7.69-3.11-15.23-4.98-22.78-.47-1.89-1.48-2.69-4.3-2.13-7.05 1.42-14.41 1.25-21.5 2.54-16.18 2.94-32.29 6.28-48.38 9.64-9.83 2.05-19.31 2.94-26.91-5.5-1.04-1.16-1.77-2.58-3.18-4.68z"/><path d="m255.43 97.72c13.26-4.11 26.33-8.65 39.67-12.11 7.33-1.9 15.1-1.49 21.66 3.41 1.39 1.04 3.35 3.44 2.97 4.31-.79 1.84-2.72 3.83-4.61 4.44-7.26 2.33-14.67 4.24-22.07 6.13-13.39 3.43-26.84 6.61-40.18 10.24-1.83.5-3.94 2.63-4.56 4.47-3.33 9.85-7.53 19.4-14.68 26.86-12.19 12.72-26.81 21.18-44.91 21.82-.35-.48-.71-.97-1.06-1.45 2.5-1.96 4.95-3.99 7.52-5.86 11-8 20.89-17.15 28.63-28.39 2.37-3.44 4-7.38 6.08-11.32-28.5-1.95-28.88-2.04-34-8.46 3.55-4.52 9.07-3.72 13.73-4.69 7.03-1.46 14.19-2.36 21.33-3.12 6.4-.68 5.43-6.05 5.83-9.62 1.2-10.8 1.82-21.69 2.09-32.55.13-5.35-1.02-10.74-1.57-16.11-.25-2.45.02-5.52 3.16-4.56 7.52 2.31 14.86 5.3 22.09 8.42.75.32.68 3.46.36 5.18-2.54 13.92-5.24 27.8-7.86 41.7-.07.42.27.91.38 1.26z"/><path d="m210 269.34c0 3.12.23 5.96-.08 8.74-.22 1.98-1.15 3.87-1.76 5.8-1.71-1.12-4.29-1.86-4.98-3.44-2.71-6.16-5.07-12.51-7.11-18.93-4.12-12.99-7.98-26.05-11.85-39.11-.73-2.47-1.03-5.06-1.69-8.4 2.38 0 4.31-.47 5.87.07 12.33 4.28 23.31-1.48 34.54-4.68 5.12-1.46 9.8-4.4 14.83-6.23 1.9-.69 4.54-.78 6.36 0 5.56 2.36 10.9 5.25 16.3 7.97 6.16 3.11 7.65 7.53 3.03 12.64-7.31 8.1-9.75 18.15-13.2 28.02 2.11 1.49 4.26 2.72 6 4.37 1.02.97 2.25 3.04 1.85 3.9-.61 1.3-2.45 2.61-3.94 2.83-10.35 1.52-20.74 2.71-31.11 4.13-4.17.57-8.33 1.47-13.06 2.32zm-1.74-10.67c5.39-1.56 10.61-3.7 16.03-4.48 7.52-1.09 12.02-4.19 12.75-12.26.54-5.98 2.05-11.87 2.92-17.84.42-2.87-.91-4.94-4.02-5.06-11.23-.42-21.86 2.49-32.76 5.72 1.7 11.43 3.35 22.38 5.08 33.92z"/><path d="m303.17 145.35c-1.98 2.67-3.42 6.56-6.06 7.72-4.54 2-8.17-1.87-11.18-4.8-5.92-5.76-11.45-11.92-17.08-17.97-1.22-1.3-2.71-2.69-3.16-4.29-.52-1.9-.39-4.19.22-6.05.17-.5 3.21-.45 4.77-.03 6.56 1.79 13.11 3.62 19.55 5.79 8.92 3 11.3 10.35 12.94 19.63z"/></g><path d="m6.44 374.46.42-.45c.65.47 1.27.95 1.85 1.44l-.45.49c-.65-.56-1.25-1.06-1.82-1.48m.93 7.33-.63-.26c.55-1.36 1.05-2.8 1.52-4.33.19.1.38.19.59.27-.46 1.29-.95 2.73-1.48 4.32m-.38-10.38.44-.42c.43.34 1.01.82 1.74 1.44l-.49.49c-.53-.51-1.09-1.01-1.69-1.51m2.5.35h1.72v-1.04h.59v1.04h3.52v-1.04h.59v1.04h1.75v.53h-1.75v1.42h-2.03v.97h3.22v2.03h-3.24c0 .35-.01.66-.03.93h3.32v.53h-3.37c-.03.27-.08.58-.15.94h3.96v.53h-3.71c.67.92 1.93 1.48 3.79 1.68-.13.24-.23.44-.29.59-2.13-.38-3.48-1.08-4.04-2.12-.43.97-1.77 1.72-4.03 2.23-.09-.19-.2-.37-.33-.55 2.1-.42 3.37-1.03 3.81-1.83h-3.36v-.53h3.58c.08-.29.13-.61.16-.94h-3.33v-.53h3.39c.02-.27.04-.58.04-.93h-3.23v-2.03h3.25v-.97h-2.07v-1.42h-1.73zm1.12 3.44v1h2.65c.01-.3.02-.44.01-.4v-.25-.35zm1.19-2h3.52v-.91h-3.52zm4.71 2h-2.63v.59c0 .15-.01.28-.01.4h2.64z" fill="#fafbfa"/><path d="m13.56 383.74h.63v1.52h2.72v6.07h1.13v.6h-11.06v-.6h1.13v-6.07h2.73v-1.52h.63v1.52h2.1v-1.52zm-2.69 8.83.38.56c-1.24.63-2.53 1.25-3.85 1.85-.1-.21-.21-.42-.34-.63 1.36-.55 2.63-1.15 3.81-1.78m-2.13-4.27h2.1v-2.45h-2.1zm0 3.04h2.1v-2.46h-2.1zm2.72-3.04h2.1v-2.45h-2.1zm0 3.04h2.1v-2.46h-2.1zm6.07 3.6c-1.41-.71-2.7-1.3-3.86-1.78l.35-.56c1.45.62 2.75 1.19 3.88 1.72zm-1.25-9.09h-2.1v2.45h2.1zm-2.09 5.49h2.1v-2.46h-2.1z" fill="#fafbfa"/></svg>