<svg enable-background="new 0 0 400 400" viewBox="0 0 400 400" xmlns="http://www.w3.org/2000/svg"><g fill="#010100"><path d="m272.77 317.87c4.51.75 9.04 1.42 13.53 2.29 4.79.93 9.51 2.39 14.34 2.9 1.67.18 4.56-1.41 5.17-2.9 1.32-3.24 2.03-6.91 2.09-10.43.22-13.66.59-27.34-.03-40.98-.87-19.25-2.44-38.46-3.96-57.67-.45-5.71-4.25-8.33-10.98-6.53-12.72 3.41-25.37 7.07-38.09 10.5-7.84 2.11-7.84 2.01-8.87 10.81-.62 5.3-1.34 10.58-2.01 15.9 11.07-3.23 21.64-6.43 32.27-9.38 8.24-2.28 17.29 1.71 20.06 9.42-17.31 5.37-35.51 5.58-53 9.63-.93 8.37-1.84 16.66-2.76 24.95 10.23-2.65 20.22-5.8 30.44-7.7 9.14-1.7 18.66-2.43 25.13 7.51-3.68 4.9-9.55 3.88-14.55 4.75-10.62 1.84-21.31 3.3-32 4.75-3.26.44-6.59.36-9.49.5-2.38 12.81-4.25 25.56-7.29 38.03-1.54 6.33-4.85 12.32-7.98 18.13-2.32 4.3-6.12 3.71-8.87-.45-7.59-11.48-5.12-22.67-.82-34.74 4.67-13.11 8.02-26.79 10.69-40.46 2.07-10.58 3.22-21.57 2.9-32.32-.29-9.66-2.82-19.31-4.96-28.83-1.5-6.65-.51-8.72 6.13-7.33 4.28.9 8.32 3.34 12.23 5.53 2.49 1.39 4.37 2.25 7.62 1.61 16-3.15 31.07-8.67 45.35-16.39 4.98-2.69 9.84-2.08 14.5.04 5.18 2.37 10.04 5.44 15.08 8.13 4.88 2.6 5.76 6.81 4.05 11.43-5.68 15.4-3.92 31.15-2.75 46.91.44 5.92.52 11.88 1.1 17.79 1.17 11.91 2.21 23.85 3.97 35.67 2.52 16.96-.8 32.16-11.88 45.45-3.16 3.79-8.82 3.47-12.98-.7-9.93-9.96-19.85-19.92-29.85-29.8-1.4-1.39-3.21-2.36-4.82-3.53.43-.85.86-1.67 1.29-2.49z"/><path d="m247.89 117.66c-7.91 1.19-15.48 2.54-23.11 3.41-9.46 1.08-15.83-4.47-22.79-11.61 3.19-1.32 5.61-2.89 8.21-3.32 17.24-2.85 34.56-5.19 51.77-8.22 17.65-3.11 35.2-6.74 52.77-10.31 10.19-2.07 20.33-5.26 30.71-1.54 4.98 1.78 10.31 3.49 12.69 10.76-3.52 1.36-7.03 3.47-10.77 4.03-17.47 2.62-35.02 4.65-52.5 7.22-9.61 1.42-19.12 3.51-29.46 5.45 3.55 3.33 6.65 6.13 9.63 9.05 4.3 4.23 4.42 6.7.11 10.71-11.98 11.14-24.08 22.14-36.11 33.22-1.15 1.06-2.13 2.32-3.18 3.49.19.4.38.8.58 1.2 24.55-5.7 49.09-11.4 74.75-17.36-2.99-3.74-5.9-7.22-8.62-10.84-1.66-2.21-3.26-4.53-4.44-7.01-.58-1.21-.72-3.37-.01-4.25.66-.81 3.01-1.1 4.12-.57 8.39 4 16.65 8.28 24.97 12.43 6.54 3.26 12.6 7.18 16.44 13.58 4.39 7.32 6.71 15.28 4.21 23.74-.69 2.32-3.03 4.77-5.25 5.78-1.3.59-4.39-1.03-5.73-2.51-6.81-7.51-13.31-15.3-19.23-22.19-12.73 3.4-25.13 6.59-37.47 10.03-18.5 5.16-37.03 10.26-54.27 19.02-1.31.66-2.52 1.52-3.75 2.31-6.22 4.01-10.53 3.31-14.76-2.61-1.7-2.37-3.25-4.88-4.61-7.46-2.54-4.83-1.46-8.33 2.89-11.24 7.18-4.79 15.05-8.91 21.2-14.8 9.56-9.15 18.1-19.46 20.97-33.05.41-2.06.04-4.29.04-6.54z"/><path d="m133.78 274.7c0-19.43 0-38.38 0-57.82-1.52.28-2.78.42-3.98.75-10.13 2.76-20.32 4.08-30.45.29-2.03-.76-3.56-2.86-5.32-4.34 1.74-1.18 3.34-2.95 5.25-3.43 10.26-2.56 20.61-4.78 30.91-7.17 1.24-.29 2.4-.86 3.96-1.43-1.42-10.25-2.81-20.31-4.13-29.82-9.96-.1-18.54 2.03-26.64-2.06-1.32-.66-2.25-2.09-3.36-3.16 1.26-1.14 2.34-2.92 3.8-3.31 8.16-2.18 16.52-3.67 24.61-6.07 7.78-2.31 15.32-5.4 22.94-8.22 7.88-2.92 15.83-5.82 24.26-2.81 2.91 1.04 5.37 3.31 7.82 5.85-12.45 7.74-26.34 9.63-39.22 14.73 2.83 3.66 7.03 7.11 8.41 11.45 1.49 4.68.34 10.19.34 15.46 4.6-.59 8.89-1.66 13.14-1.53 4.52.14 9.09 1.1 13.44 2.4 1.44.43 3.5 3.68 3.08 4.46-1.07 1.99-3.13 3.99-5.24 4.76-6.54 2.41-13.25 4.42-19.99 6.27-3.77 1.03-5.53 2.44-5.6 6.96-.23 15.37-1.14 30.73-1.87 46.09-.1 2.07-.66 4.13-1.11 6.83 10-3.19 19.5-6.22 29.01-9.24 3.56-1.13 7.07-2.55 10.72-3.27 2-.39 4.24.4 6.98.73-3.71 7.08-9.81 9.96-15.46 12.79-19.42 9.75-39.17 18.85-58.67 28.46-5.98 2.95-11.37 7.1-17.39 9.96-2.57 1.22-6.62 1.69-9 .5-5.95-2.97-11.59-6.74-16.79-10.9-2.02-1.61-3.62-5.25-3.34-7.73.21-1.85 3.78-4.8 5.78-4.75 18.16.49 34.36-7.47 51.47-11.39.49-.11.97-.17 1.64-.29z"/><path d="m153.72 81.4c12 2.49 23.2 3.64 32.89 10.37 6.35 4.41 7.67 10.88 8.18 17.45.41 5.27-5.79 7.81-10.46 4.57-11.68-8.09-23.22-16.37-35.14-24.79-4.82 7.56-9.44 15.24-14.49 22.61-7.75 11.31-15.37 22.75-23.84 33.52-12.78 16.26-25.85 32.32-39.6 47.75-5.07 5.69-12.33 9.49-18.8 13.83-1.75 1.18-4.3 1.18-6.48 1.72-.42-.34-.83-.67-1.25-1.01.91-1.79 1.52-3.82 2.77-5.33 18.87-22.84 37.26-46.04 53.68-70.74 11.88-17.87 21.61-36.91 30.34-56.46 3.35-7.49 1.25-15.12-.84-22.61-1.61-5.75.7-7.89 6.57-6.67 10.15 2.1 17.99 7.51 23.79 15.98 3.26 4.75 2.76 8.98-1.35 13.26-1.91 1.98-3.71 4.06-5.97 6.55z"/><path d="m255.03 46.64c12.7 1.5 23.93 3.24 34.31 8.44 7.27 3.65 8.67 10.62 9.54 17.63.32 2.6.08 5.87-1.27 7.95-2.93 4.48-7.72 3.23-11.35 1.24-5.82-3.19-11.22-7.17-16.64-11.04-5.84-4.18-11.44-8.7-17.25-12.93-3.27-2.38-4.49-5.83-2.98-9.05.74-1.58 4.39-1.79 5.64-2.24z"/><path d="m115.36 267.24c-6.94-.65-10.65-4.55-14.01-8.52-4.53-5.35-8.71-11.02-12.72-16.77-1.12-1.6-1.61-4.04-1.42-5.99.1-1.07 2.58-3.01 3.4-2.75 10.65 3.4 21.12 7.28 27.49 17.45 2.71 4.32 2.98 11.49.45 14.26-1.05 1.13-2.54 1.86-3.19 2.32z"/><path d="m159.21 249.62c3.28-5.97 6.85-11.81 9.73-17.97 1.61-3.44 2.6-7.38 2.93-11.17.5-5.74 3.99-8.06 9.11-4.77 4.25 2.72 8.05 6.21 11.7 9.73.77.74.64 3.97-.16 4.56-8.94 6.56-18.07 12.88-27.24 19.13-1.51 1.03-3.48 1.4-5.23 2.07-.28-.54-.56-1.06-.84-1.58z"/></g><path d="m5.17 384 .55-.58c.85.61 1.65 1.24 2.4 1.87l-.59.64c-.83-.73-1.62-1.37-2.36-1.93m1.22 9.53-.82-.34c.71-1.76 1.37-3.64 1.98-5.63.24.13.5.25.76.36-.6 1.67-1.24 3.54-1.92 5.61m-.5-13.5.57-.54c.56.44 1.31 1.06 2.26 1.87l-.64.64c-.68-.66-1.41-1.32-2.19-1.97m3.25.46h2.24v-1.36h.77v1.36h4.57v-1.36h.76v1.36h2.28v.69h-2.28v1.84h-2.64v1.26h4.18v2.64h-4.21c0 .45-.02.86-.05 1.21h4.32v.69h-4.38c-.04.34-.1.75-.19 1.22h5.15v.69h-4.82c.87 1.19 2.51 1.92 4.93 2.19-.17.31-.3.57-.37.76-2.77-.49-4.52-1.41-5.26-2.76-.56 1.26-2.3 2.23-5.24 2.9-.12-.24-.26-.48-.43-.72 2.73-.55 4.38-1.34 4.96-2.38h-4.38v-.69h4.65c.1-.38.17-.79.21-1.22h-4.32v-.69h4.4c.03-.34.05-.75.05-1.21h-4.2v-2.64h4.23v-1.26h-2.69v-1.84h-2.24zm1.46 4.46v1.29h3.45c.01-.4.02-.57.01-.53v-.32-.45h-3.46zm1.55-2.59h4.57v-1.19h-4.57zm6.11 2.59h-3.42v.77c-.01.19-.01.37-.02.53h3.44z" fill="#fbfafc"/><path d="m32.63 379.16h.82v1.98h3.54v7.89h1.45v.78h-14.36v-.78h1.46v-7.89h3.54v-1.98h.82v1.98h2.73zm-3.49 11.48.5.73c-1.61.82-3.28 1.63-5 2.41-.13-.27-.28-.55-.44-.82 1.75-.72 3.4-1.49 4.94-2.32m-2.78-5.55h2.73v-3.18h-2.73zm0 3.95h2.73v-3.2h-2.73zm3.54-3.95h2.73v-3.18h-2.73zm0 3.95h2.73v-3.2h-2.73zm7.89 4.68c-1.84-.92-3.51-1.7-5.02-2.32l.45-.73c1.89.8 3.57 1.55 5.04 2.23zm-1.62-11.81h-2.73v3.18h2.73zm-2.73 7.13h2.73v-3.2h-2.73z" fill="#fbfafc"/></svg>