<svg enable-background="new 0 0 400 400" viewBox="0 0 400 400" xmlns="http://www.w3.org/2000/svg"><g fill="#fafafb"><path d="m37.59 393.81c-.92.31-1.52.05-2-.78-.7-1.2-1.52-2.34-2.47-3.78v4.59c-.55.03-.95.05-1.41.07-.03-.37-.06-.64-.06-.91 0-1.91 0-3.81 0-5.7 1.13-.41 1.77-.03 2.29.91.62 1.11 1.38 2.14 2.31 3.19v-4.2h1.35v6.61z"/><path d="m12.94 393.88v-6.75c1.9.19 3.93-.54 5.37 1.29.8 1.01.78 2.88.03 3.97-1.37 1.97-3.4 1.51-5.4 1.49m1.45-1.22c2.04.12 2.92-.58 2.89-2.21-.03-1.51-.98-2.19-2.89-2z"/><path d="m11.81 393.87h-5.49c.68-2.18 2.47-3.48 3.51-5.45h-3.08v-1.21h5.29c-.71 2.13-2.44 3.48-3.47 5.51.86 0 1.63.04 2.39-.01.79-.05 1.14.21.85 1.16"/><path d="m39.33 393.86v-6.61h3.7v1.07h-2.22v1.52c.68.04 1.34.09 2.07.13v1.07c-.72.05-1.38.09-2.1.14v1.48h2.4v1.19h-3.85z"/><path d="m27.71 388.56c-1.15-.3-2.46-.61-3.1.64-.37.73-.41 1.93-.06 2.67.63 1.35 1.99.93 3.17.68.35.94-.01 1.32-.93 1.46-1.62.25-3.05-.27-3.76-1.48-.73-1.24-.6-3.03.31-4.17.88-1.11 2.71-1.7 4-1.16.32.13.44.74.65 1.12-.1.08-.19.16-.28.24"/><path d="m49.15 387.24v1.07c-.59.02-1.17.05-1.87.08v5.44h-1.48v-5.44h-1.85c-.05-.4-.08-.73-.13-1.15z"/><path d="m20.06 387.21h1.33v6.62h-1.33z"/><path d="m30.68 393.25c-.49.38-.8.79-1.05.76-.32-.05-.6-.45-.9-.7.26-.24.51-.64.8-.67.29-.04.62.3 1.15.61"/></g><path d="m259.08 253.45c9.9-2.37 19.33-4.76 28.82-6.87 8.52-1.9 16.23.67 23.26 5.29 1.41.92 3.01 3.76 2.53 4.85-.78 1.79-3 3.66-4.94 4.11-10 2.3-20.09 4.21-30.16 6.15-5.76 1.11-11.64 1.76-17.3 3.24-1.71.44-3.93 2.86-4.11 4.57-1.32 12.43-2.18 24.9-3.17 37.37-.06.8.09 1.61.16 2.74 11.01-1.76 21.75-3.42 32.46-5.22 10.78-1.81 21.48-4.82 32.31-5.37 11.97-.61 23.2 3.51 32.35 11.69 1.91 1.71 2.66 4.71 4.66 8.45-4.98.96-9.14 2.32-13.34 2.46-10.49.33-20.99-.02-31.49.14-13.1.2-26.26-.05-39.28 1.12-23.83 2.15-47.6 5.11-71.36 7.95-5.15.62-10.18 2.18-15.27 3.28-9.45 2.05-17.15-1.17-23.36-8.16-2.11-2.38-3.2-4.85 1.92-5.34 6.98-.67 13.9-1.98 20.86-2.87 10.72-1.37 21.45-2.7 32.19-3.9 7.51-.84 15.04-1.42 22.54-2.11 0-14.26 0-28.28 0-43.09-6.48.52-12.29 1.03-18.1 1.43-10.21.71-20.21-.16-29.36-5.17-1.59-.87-2.32-3.3-3.45-5.01 1.55-.75 3.03-1.94 4.65-2.17 7.93-1.14 15.88-2.11 23.85-2.97 6.82-.74 13.67-1.25 20.41-1.85-.5-9.62-3.11-18.01-7.2-26.11-2.27-4.5 1.12-9.27 5.99-7.82 7.98 2.37 15.65 5.99 23.07 9.83 1.71.88 2.72 4.8 2.58 7.23-.24 3.96-1.7 7.86-2.72 12.13z" fill="#010100"/><path d="m114.41 241.56c-16.15 3.94-32.56 11.45-48.32-.66-.12-.83-.25-1.65-.37-2.48 5.5-1.47 10.98-3.03 16.5-4.4 10.54-2.61 21.1-5.12 32.32-7.84-1.96-9.07-3.64-17.3-5.57-25.48-.7-2.99-1.98-5.85-3.03-8.76-.89-2.47-2.14-3.87-5.28-4.13-3.8-.32-7.54-1.82-11.2-3.14-1.19-.43-3.03-2.35-2.83-2.77.69-1.48 1.92-3.19 3.35-3.74 3.31-1.28 6.91-1.75 10.29-2.86 13.43-4.42 26.92-8.67 40.18-13.54 9.52-3.49 18.76-4.42 28.03.15 4.73 2.33 5.05 6.28.28 8.59-6.08 2.96-12.63 5.04-19.1 7.11-9.45 3.03-19 5.71-29.43 8.81 2.94 2.29 5.45 3.93 7.59 5.96 4.81 4.57 6.23 10.02 4.2 16.51-.91 2.92-.94 6.11-1.43 9.6 6.23-1.45 11.79-3.53 17.45-3.83 5.35-.29 11.1.46 16.1 2.31 4.72 1.75 4.21 6.99-.62 9.03-5.38 2.27-10.97 4.04-16.52 5.89-4.01 1.34-8.04 2.7-12.16 3.59-3.36.73-3.83 2.57-3.93 5.61-.48 13.54-1.21 27.07-1.95 40.6-.3 5.5-.83 10.98-1.26 16.48.5.28 1.01.55 1.51.83 4.83-2.45 9.67-4.86 14.48-7.35 9.15-4.73 18.23-9.62 27.48-14.14 1.5-.73 3.74.05 5.64.13-.7 1.71-.94 3.94-2.18 5.04-8.89 7.81-18 15.38-27.01 23.05-12.4 10.56-25.52 20.37-34.99 33.97-2.82 4.05-7.57 4.54-10.49.82-7.34-9.37-10.22-18.74-.95-29.84 4.72-5.64 6.62-14 8.64-21.45 3.6-13.24 4.56-26.88 4.18-40.61-.05-2.22.25-4.49.4-7.06z" fill="#010100"/><path d="m301.66 182.28c9.8 8.11 20.12 14.71 32.08 18.66 9.88 3.27 19.72 6.66 29.49 10.23 2.06.75 3.75 2.5 5.68 5.25-4.2 1.19-8.35 2.66-12.62 3.49-7.84 1.54-15.72 2.95-23.65 3.96-6.69.85-12.61-1.33-17.42-6.16-8.11-8.14-16.2-16.29-23.92-24.06-9.01 4.23-17.41 8.94-26.35 12.11-6.18 2.19-13.09 2.48-19.72 3.06-1.67.15-3.52-1.82-6.56-3.53 16.12-5.96 31.32-10.97 42.68-24.47-10.68-11.68-21.46-23.46-32.51-35.54 2.02-3.45 7.71-4.5 13.31-.38 5.16 3.8 9.7 8.5 14.22 13.08 4.4 4.46 8.43 9.29 12.69 14.03 9.93-12.49 13.35-27.09 16.81-41.6 1.28-5.36-1.4-11.1-9.79-8.37-8.8 2.86-17.42 6.67-26.44 8.31-6.18 1.12-12.93-.6-19.37-1.45-1.22-.16-2.19-2.21-3.27-3.39 1.18-.9 2.23-2.3 3.55-2.6 7.6-1.77 15.39-2.81 22.85-5 12.31-3.61 24.48-7.73 36.58-12 6.71-2.37 22.92 1.2 26.76 6.95.92 1.38.64 4.5-.33 6.05-3.86 6.21-8.77 11.81-12.23 18.21-3.6 6.67-5.58 14.19-8.98 20.99-4.04 8.14-8.86 15.92-13.54 24.17z" fill="#010100"/><path d="m127.69 118.34c10.33-2.12 20.59-4.71 31.02-6.14 3.97-.54 8.46 1.19 12.41 2.69 1.67.63 3.46 3.28 3.53 5.08.05 1.32-2.4 3.45-4.11 3.99-6.18 1.95-12.46 3.82-18.83 4.89-10.32 1.73-20.76 2.73-31.12 4.22-1.51.22-3.4 1.03-4.25 2.19-9.85 13.43-19.03 27.39-29.42 40.39-10.79 13.49-22.46 26.31-34.24 38.97-5.58 5.99-13.05 8.53-19.62 7.9 1.93-3.08 3.24-5.88 5.17-8.14 17.64-20.68 33.97-42.38 48.85-65.12 12.61-19.27 23.48-39.55 32.22-60.92 2.43-5.94 2.22-11.68.06-17.69-3.81-10.61-1.87-13.28 8.81-10.42 9.33 2.5 16.88 8.45 21.6 17.28 2.93 5.48-.78 9.07-3.73 13.04-6.7 9.01-13.16 18.19-19.72 27.31.45.15.91.32 1.37.48z" fill="#010100"/><path d="m219 164c0-12.92.49-25.87-.18-38.76-.43-8.25-2.35-16.45-4.04-24.59-.99-4.77-.21-6.73 4.43-7.6 10.84-2.02 22.96 10.67 20.68 21.42-.98 4.62-1.68 9.37-1.82 14.08-.51 17.42-.35 34.86-1.21 52.25-.55 11.07-2.2 22.12-3.99 33.08-.45 2.77-3.33 5.15-5.09 7.71-1.62-2.6-4.2-5.03-4.68-7.83-1.47-8.52-2.47-17.17-2.99-25.8-.48-7.96-.1-15.98-.1-23.97-.34 0-.68 0-1.01.01z" fill="#010100"/><path d="m200 137.43c0 12.59.5 25.21-.17 37.77-.48 9.08-2.34 18.11-3.96 27.09-.31 1.7-2.15 3.81-3.75 4.33-.96.31-3.18-1.82-4.19-3.29-4.56-6.66-5.16-13.81-4.46-21.96 1.02-11.83.32-23.86-.36-35.76-.3-5.25-2.57-10.37-3.54-15.63-.34-1.85-.13-4.63 1.03-5.69 1.25-1.14 4.38-1.68 5.84-.89 4.56 2.46 8.87 5.46 12.94 8.69 1.27 1.01 1.45 3.38 2.13 5.13-.5.07-1 .14-1.51.21z" fill="#010100"/></svg>