<svg enable-background="new 0 0 400 400" viewBox="0 0 400 400" xmlns="http://www.w3.org/2000/svg"><g fill="#fafafb"><path d="m37.59 393.81c-.92.31-1.52.05-2-.78-.7-1.2-1.52-2.34-2.47-3.78v4.59c-.55.03-.95.05-1.41.07-.03-.37-.06-.64-.06-.91 0-1.91 0-3.81 0-5.7 1.13-.41 1.77-.03 2.29.91.62 1.11 1.38 2.14 2.31 3.19v-4.2h1.35v6.61z"/><path d="m12.94 393.88v-6.75c1.9.19 3.93-.54 5.37 1.29.8 1.01.78 2.88.03 3.97-1.37 1.97-3.4 1.51-5.4 1.49m1.45-1.22c2.04.12 2.92-.58 2.89-2.21-.03-1.51-.98-2.19-2.89-2z"/><path d="m11.81 393.87h-5.49c.68-2.18 2.47-3.48 3.51-5.45h-3.08v-1.21h5.29c-.71 2.13-2.44 3.48-3.47 5.51.86 0 1.63.04 2.39-.01.79-.05 1.14.21.85 1.16"/><path d="m39.33 393.86v-6.61h3.7v1.07h-2.22v1.52c.68.04 1.34.09 2.07.13v1.07c-.72.05-1.38.09-2.1.14v1.48h2.4v1.19h-3.85z"/><path d="m27.71 388.56c-1.15-.3-2.46-.61-3.1.64-.37.73-.41 1.93-.06 2.67.63 1.35 1.99.93 3.17.68.35.94-.01 1.32-.93 1.46-1.62.25-3.05-.27-3.76-1.48-.73-1.24-.6-3.03.31-4.17.88-1.11 2.71-1.7 4-1.16.32.13.44.74.65 1.12-.1.08-.19.16-.28.24"/><path d="m49.15 387.24v1.07c-.59.02-1.17.05-1.87.08v5.44h-1.48v-5.44h-1.85c-.05-.4-.08-.73-.13-1.15z"/><path d="m20.06 387.21h1.33v6.62h-1.33z"/><path d="m30.68 393.25c-.49.38-.8.79-1.05.76-.32-.05-.6-.45-.9-.7.26-.24.51-.64.8-.67.29-.04.62.3 1.15.61"/></g><path d="m154.92 332.69c-1.65 10.24-3.27 20.36-4.94 30.46-.21 1.27-.33 2.79-1.09 3.69-1.58 1.89-3.45 4.62-5.41 4.8-2.02.19-4.84-1.76-6.35-3.57-9.78-11.75-9.48-25.03-6.28-39.17 3.06-13.5 5.33-27.23 7.02-40.98 1.65-13.39 3.05-26.93 2.86-40.38-.17-12.28-.86-24.85-6.36-36.86-1.19.98-2.23 1.71-3.13 2.58-11.58 11.21-22.71 22.93-34.84 33.51-8.81 7.69-18.84 14.02-28.52 20.66-1.96 1.34-4.82 1.35-7.27 1.98-.36-.42-.71-.84-1.07-1.26.83-1.55 1.35-3.39 2.52-4.62 10.55-11.05 21.54-21.71 31.79-33.03 19.24-21.27 38.64-42.47 51.65-68.48 4.11-8.21 5.92-16.72 4.16-25.87-.75-3.89 2.09-6.54 5.84-5.35 10.97 3.48 19.16 10.17 23.81 20.92 2.28 5.26-1.76 7.8-4.48 10.91-8.6 9.85-16.95 19.95-25.99 29.39-4.5 4.7-2.97 8.16.92 11.07 10.69 8 9.83 18.79 8.19 30.03-.88 6-1.64 12.05-1.89 18.1-.55 13.59-.83 27.19-1.04 40.8-.16 10.08-.03 20.16-.03 30.85 23.76-1.91 48.2-3.87 72.8-5.84 0-10.84 0-21.13 0-31.34-11.73.18-23.35 4.22-34.96.22-3.51-1.21-6.89-2.96-10.08-4.88-1.13-.68-2.03-2.63-1.99-3.98.02-.72 2.19-1.81 3.49-1.99 4.06-.55 8.16-.8 12.25-1.07 10.33-.7 20.67-1.35 31.24-2.03 0-9.99 0-19.6 0-29.98-1.68 0-3.43.06-5.17-.01-8.44-.31-16.97-.09-25.3-1.24-4.12-.57-7.88-3.7-11.57-6.8 13.81-5.43 28.37-2.94 42.41-6.62-1.55-10.53-3.11-21.11-4.68-31.81-12.71 1.02-24.71 4.15-36.45-.54-2.97-1.19-5.69-3.07-8.43-4.79-3.28-2.06-1.63-3.94.76-4.76 3.36-1.16 6.92-2.16 10.44-2.35 22.82-1.24 44.95-6.04 66.83-12.3 8.44-2.42 16.87-5.47 25.51-6.42 7.52-.83 15.34.87 21.67 6.03 3.04 2.48 2.31 6.57-2.1 8.18-6.23 2.27-12.72 4-19.22 5.37-13.63 2.88-27.34 5.38-41.9 8.21 1.93 1.71 3.11 2.81 4.34 3.84 4.79 3.98 5.66 9.26 5.03 15.05-.44 4.07-.86 8.15-1.3 12.32 10-1.78 19.36-3.91 28.84-4.96 6.1-.67 11.99 1.46 16.42 6.1 2.41 2.53 1.16 5.84-2.97 6.98-5.48 1.52-11.11 2.58-16.73 3.48-7.59 1.21-15.27 1.92-22.84 3.25-1.3.23-3.07 2.4-3.2 3.81-.81 8.47-1.22 16.98-1.79 26.05 5.8-1.11 11.48-2.23 17.17-3.27 5.3-.97 10.59-1.95 15.91-2.75 5.87-.88 10.95 1.41 15.59 4.62 1.33.92 3.08 3.39 2.69 4.19-.84 1.69-2.8 3.58-4.58 3.92-12.02 2.3-24.11 4.22-36.19 6.23-2.58.43-5.27.44-7.75 1.18-1.25.37-2.98 1.89-3.05 2.99-.66 9.72-1 19.46-1.47 29.87 6.97-.76 13.24-1.33 19.49-2.14 9.41-1.21 18.83-2.36 28.17-3.96 8.08-1.38 16.26-2.08 23.76 1.22 7.06 3.11 13.63 7.46 20.06 11.79 1.61 1.08 3.08 4.86 2.37 6.25-.95 1.86-4.12 3.67-6.29 3.62-11.21-.26-22.4-1.24-33.61-1.72-6.49-.28-12.99-.09-19.49-.09-9.16-.01-18.34-.22-27.49.04-19.39.57-38.74 1.62-57.78 5.85-5.73 1.27-11.54 2.27-17.36 3.01-8.14 1.05-15.45-1.48-21.57-6.21z" fill="#010100"/><path d="m257.57 93.89c-4.66 8.94-9.45 18.22-14.36 27.44-.73 1.38-1.87 2.75-3.17 3.58-3.25 2.08-5.21 1.15-4.94-2.63.38-5.35 1.19-10.71 2.27-15.98 3.43-16.73 7.46-33.35 10.37-50.16.88-5.07-.61-10.77-1.91-15.95-1.56-6.21 1.44-10.59 7.69-9.05 8.73 2.15 16.1 7.1 22.47 13.41 2.85 2.82.93 5.58-.43 8.36-4.21 8.6-8.34 17.25-12.46 25.9-.19.4-.02.98-.02 2.02 6.61-1.07 13.13-1.97 19.58-3.19 9.28-1.75 18.44-4.53 27.79-5.4 11.34-1.05 22.11 1.53 29.96 10.8 1.12 1.32 1.57 4.17.91 5.71-.53 1.23-3.22 2.16-4.94 2.14-9.93-.12-19.89-1.21-29.78-.75-16.27.76-32.51 2.44-49.03 3.75z" fill="#010100"/><path d="m187.29 129.26c-12.3-8.43-11.13-21.24-15.2-32.38-6.65 1.91-13.59 3.95-20.56 5.89-12.68 3.53-25.33 7.18-38.11 10.33-2.68.66-6.06-.14-8.76-1.19-6.49-2.54-13.16-5.04-16.68-11.9-1.67-3.26-1.13-4.68 2.82-5.07 15.33-1.5 30.64-3.3 45.96-4.91 11.11-1.16 22.23-2.18 33.61-3.28-1.69-9.37-6.44-17.38-11.39-25.3-.78-1.24-1.47-2.54-2.07-3.88-2.1-4.7-.58-7.11 4.58-7.57 9.04-.81 16.78 2.69 23.6 7.96 1.88 1.45 2.64 5.18 2.79 7.92.61 10.74.74 21.51 1.14 32.27.23 6.27 1 12.53.85 18.79-.09 3.72-1.5 7.42-2.58 12.32z" fill="#010100"/><path d="m221.07 129.03c9.35 3.14 20.51 5.55 29.61 13.08 4.57 3.78 5.88 15.65 4 20.56-1.2 3.11-7.08 3.8-10.26 1.17-3.68-3.04-7.13-6.34-10.64-9.58-4.85-4.47-9.72-8.93-14.47-13.52-1.62-1.56-3.33-3.3-4.21-5.3-2.21-5.03-1.03-6.54 5.97-6.41z" fill="#010100"/></svg>