<svg enable-background="new 0 0 400 400" viewBox="0 0 400 400" xmlns="http://www.w3.org/2000/svg"><g fill="#010000"><path d="m121.34 296.77c3.88.91 7.72 2.07 11.64 2.66 6.14.93 11.87 5.27 18.44 2.51 1.9-.8 4.22-1.77 5.2-3.37 6.62-10.86 10.19-22.87 12.36-35.31 1.73-9.97 3.35-19.96 4.86-29.97 1.49-9.86 3.11-19.72 4.05-29.64.64-6.74-3.57-11.2-10.4-10.48-11.51 1.22-23.05 2.83-34.3 5.47-7.48 1.76-14.74 5.07-21.59 8.68-4.6 2.42-8.69 3.26-12.55.03-4.09-3.41-5.83-8.07-4.94-13.7 1.5-9.52 2.99-19.07 3.79-28.66.81-9.73 1.42-19.56.91-29.28-.46-8.74-2.53-17.4-3.95-26.09-.2-1.25-.73-2.44-1.14-3.78 7.41-4.07 12.64.46 18.24 3.57 7.97 4.43 6.13 11.24 5.11 18.29-1.4 9.73-2.23 19.56-3.01 29.37-.59 7.41-.86 14.86-1.01 22.29-.18 8.69 1.34 11.66 10.7 9.54 10.44-2.37 20.73-5.43 31.79-8.37-6.53-6.51-2.44-13.39-1.47-20.13 1.61-11.16 3.55-22.27 4.9-33.46 1.32-10.93 2.39-21.9 2.96-32.89.47-9.11-4.25-12.9-12.97-10.95-12.06 2.7-23.97 6.24-36.13 8.28-7.63 1.28-15.66 1.06-23.4.29-2.88-.29-5.42-4.04-8.11-6.22 2.74-1.15 5.38-2.66 8.23-3.37 13.88-3.51 27.81-6.83 41.74-10.16 9.81-2.35 19.55-5.19 29.5-6.63 4.34-.63 9.4 1.02 13.6 2.86 6.84 2.99 13.38 6.76 19.78 10.65 3.7 2.25 4.08 6.95 1.28 10.26-7.9 9.32-13.89 19.76-17.05 31.51-1.86 6.9-2.42 14.17-3.32 21.31-1.5 11.93-3.44 23.73-8.9 35.23 6.26-2.26 12.2-4.05 18.18-1.27 8.16 3.79 15.2 9.23 20.87 16.18 1.02 1.24.79 4.19.13 5.99-2.66 7.29-6.38 14.26-8.44 21.69-2.34 8.44-3.39 17.25-4.86 25.93-2.2 13.04-4.15 26.12-6.46 39.14-1.11 6.24-2.34 12.52-4.37 18.5-2.12 6.24-4.88 12.34-8.12 18.07-1.72 3.04-4.85 5.43-7.7 7.66-2.94 2.3-6.29 4.08-9.5 6.02-2.81 1.7-5.43 1.4-7.04-1.56-5.93-10.85-14.22-19.72-23.02-28.23-2.12-2.06-3.67-4.71-5.48-7.09.3-.46.64-.91.97-1.37z"/><path d="m172.41 346.99c2.8-5.1 5.43-10.3 8.43-15.27 12.34-20.47 23.34-41.7 30.68-64.39 4.94-15.26 7.71-31.32 10.29-47.21 2-12.3 2.27-24.89 3.17-37.36.49-6.76 1.06-13.54.94-20.3-.17-9.33-.97-18.59-5.08-27.31-.86-1.82-.64-5.58.6-6.59 1.66-1.36 5.24-1.93 7.22-1.07 6.09 2.65 11.75 6.25 17.7 9.24 1.38.7 3.41.97 4.87.53 20.09-6.03 40.22-11.94 60.13-18.51 8.46-2.79 16.09-2.44 23.74 1.8 4.43 2.46 9.03 4.64 13.33 7.29 5.64 3.48 6.68 9.65 2.05 14.07-9.6 9.18-14.08 21.06-18.44 33.09-.83 2.29-.45 3.86 2.01 5.1 2.15 1.08 4.12 2.7 5.86 4.4 3.43 3.35 2.62 6.67-1.93 7.38-8.09 1.26-16.26 1.99-24.36 3.15-9.54 1.37-19.06 2.9-28.57 4.46-12.88 2.12-25.73 4.35-38.61 6.47-.91.15-1.89-.18-3.39-.35-1.66 8.29-2.83 16.85-5.14 25.1-5.44 19.4-10.14 39.17-17.63 57.78-5.46 13.59-14.43 25.9-22.73 38.18-4.8 7.09-11.22 13.15-17.28 19.3-1.53 1.55-4.48 1.7-6.78 2.5-.36-.5-.72-.99-1.08-1.48zm72.17-152.54c18.36-4.61 35.97-9.2 53.67-13.39 8.82-2.09 17.45-3.33 18.03-15.44.37-7.75 2.64-15.4 3.64-23.15.54-4.21-1.26-7.1-6.24-6.48-2.93.36-5.92.4-8.78 1.04-17.46 3.92-34.91 7.88-52.3 12.09-1.61.39-3.37 2.35-4.02 3.99-1 2.53-1.31 5.39-1.53 8.14-.89 10.79-1.62 21.59-2.47 33.2z"/><path d="m48 267.52c.36-5.11 3.16-7.04 6.34-7.37 18.06-1.9 34.75-8.51 51.55-14.66 16.04-5.87 31.88-12.27 47.82-18.4 1.35-.52 2.81-1.04 4.23-1.07 1.65-.03 3.31.5 4.97.78-.79 1.68-1.12 4.06-2.44 4.92-9.28 6.03-18.74 11.8-28.19 17.56-17.82 10.85-35.74 21.55-53.46 32.56-3.19 1.98-5.66 2.58-8.97.63-5.06-2.98-10.49-5.37-15.44-8.51-2.49-1.58-4.29-4.26-6.41-6.44z"/><path d="m307.72 86.19c-.84 2.7-1.1 5.8-2.64 8-2.7 3.87-6.83 4.06-13.12-.04-7.22-4.71-13.61-10.68-20.39-16.08-3.83-3.05-7.72-6.03-11.55-9.08-1.41-1.13-3.35-2.14-3.93-3.63-1.06-2.77-2.12-6.04-1.5-8.72.31-1.32 4.46-2.75 6.68-2.48 13.24 1.6 26.43 3.96 38.02 11.04 5.98 3.65 6.51 10.56 7.68 16.79.24 1.28.03 2.65.03 3.98.24.07.48.15.72.22z"/></g><path d="m6.44 374.46.42-.45c.65.47 1.27.95 1.85 1.44l-.45.49c-.65-.56-1.25-1.06-1.82-1.48m.93 7.33-.63-.26c.55-1.36 1.05-2.8 1.52-4.33.19.1.38.19.59.27-.46 1.29-.95 2.73-1.48 4.32m-.38-10.38.44-.42c.43.34 1.01.82 1.74 1.44l-.49.49c-.53-.51-1.09-1.01-1.69-1.51m2.5.35h1.72v-1.04h.59v1.04h3.52v-1.04h.59v1.04h1.75v.53h-1.75v1.42h-2.03v.97h3.22v2.03h-3.24c0 .35-.01.66-.03.93h3.32v.53h-3.37c-.03.27-.08.58-.15.94h3.96v.53h-3.71c.67.92 1.93 1.48 3.79 1.68-.13.24-.23.44-.29.59-2.13-.38-3.48-1.08-4.04-2.12-.43.97-1.77 1.72-4.03 2.23-.09-.19-.2-.37-.33-.55 2.1-.42 3.37-1.03 3.81-1.83h-3.36v-.53h3.58c.08-.29.13-.61.16-.94h-3.33v-.53h3.39c.02-.27.04-.58.04-.93h-3.23v-2.03h3.25v-.97h-2.07v-1.42h-1.73zm1.12 3.44v1h2.65c.01-.3.02-.44.01-.4v-.25-.35zm1.19-2h3.52v-.91h-3.52zm4.71 2h-2.63v.59c0 .15-.01.28-.01.4h2.64z" fill="#fafbfa"/><path d="m13.56 383.74h.63v1.52h2.72v6.07h1.13v.6h-11.06v-.6h1.13v-6.07h2.73v-1.52h.63v1.52h2.1v-1.52zm-2.69 8.83.38.56c-1.24.63-2.53 1.25-3.85 1.85-.1-.21-.21-.42-.34-.63 1.36-.55 2.63-1.15 3.81-1.78m-2.13-4.27h2.1v-2.45h-2.1zm0 3.04h2.1v-2.46h-2.1zm2.72-3.04h2.1v-2.45h-2.1zm0 3.04h2.1v-2.46h-2.1zm6.07 3.6c-1.41-.71-2.7-1.3-3.86-1.78l.35-.56c1.45.62 2.75 1.19 3.88 1.72zm-1.25-9.09h-2.1v2.45h2.1zm-2.09 5.49h2.1v-2.46h-2.1z" fill="#fafbfa"/></svg>