<svg enable-background="new 0 0 400 400" viewBox="0 0 400 400" xmlns="http://www.w3.org/2000/svg"><g fill="#010100"><path d="m114.41 236.41c0 8-.06 15.64.01 23.28.31 31.3.58 62.6 1.03 93.9.17 11.88.38 11.88-10.92 16.46-2.9 1.17-5.82 2.28-9.14 3.58 0-45.95 0-91.42 0-137.27-12.63 0-25.54 0-39.21 0 0 3.15.23 6.43-.11 9.66-.13 1.26-1.31 3.07-2.41 3.44-5.31 1.8-10.76 3.19-16.43 4.81 0-46.27 0-92.08 0-138.51 5.27 2.63 10.35 5.39 15.63 7.69 2.65 1.15 5.67 1.98 8.54 2.04 11.29.23 22.59.09 33.99.09 0-32.7 0-64.89 0-97.41 9.51 3.62 19.09 7.26 29.03 11.04-1.18 1.49-1.91 2.87-3.04 3.76-6.39 5.09-7.29 11.79-7.11 19.53.45 18.98.15 37.98.15 56.98v6.11c8.28 0 16.11-.61 23.8.16 9.4.94 16.53-1.32 20.8-10.23.48-1 1.52-1.73 2.66-2.97 6.56 5.16 13.03 10.25 19.53 15.37-.54.79-.72 1.32-1.09 1.56-7.96 5.37-9.14 12.98-8.88 22.06.82 28.45.48 56.94 1.43 85.39.22 6.48-1.44 9.2-7.21 10.86-4.09 1.18-7.91 3.27-12.35 5.16 0-5.68 0-10.91 0-16.55-12.94.01-25.49.01-38.7.01zm-19.91-10.77c0-30.18 0-60.06 0-90.07-12.87 0-25.41 0-37.92 0v90.07zm58.2-90.2c-12.76 0-25.17 0-37.89 0v90.19h37.89c0-30.06 0-59.81 0-90.19z"/><path d="m316.01 340.69c-31.01 0-61.26 0-92.01 0 0 6.22-.17 12.18.08 18.12.12 2.84-.95 4.23-3.46 5.15-5.73 2.11-11.4 4.39-17.27 6.66 0-54.4 0-108.35 0-162.94 6.16 3.46 12.11 7.01 18.26 10.13 2.4 1.22 5.28 2.08 7.95 2.09 26.48.15 52.97-.02 79.45.21 4.2.04 6.84-1.06 8.77-4.74 1.45-2.76 3.42-5.26 5.41-8.23 7.18 5.73 14.01 11.19 20.71 16.54-.1.66-.04 1.14-.2 1.22-7.64 4.13-7.88 10.94-7.77 18.62.45 30.47.33 60.95.51 91.43.04 6.48.28 12.97.83 19.42.27 3.17-.93 4.42-3.68 5.41-5.75 2.05-11.38 4.43-17.58 6.88 0-9 0-17.29 0-25.97zm-91.66-110.48v100.37h91.3c0-33.6 0-66.94 0-100.37-30.59 0-60.84 0-91.3 0z"/><path d="m202.32 162.21c43.31-1.07 85.45-2.12 127.6-3.16.41-.45.83-.9 1.24-1.35-11.46-19.57-22.92-39.14-34.65-59.18.16-.19.72-.97 1.38-1.67.55-.58 1.2-1.06 2.14-1.86 19.41 18.91 39.86 36.62 54.97 59.22 8.63 12.91 7.24 27.24-2.9 38.47-4.53 5.01-7.11 4.55-9.43-1.74-2.58-7.01-5.25-13.99-7.57-21.09-1-3.07-2.43-4.14-5.69-3.75-15.33 1.86-30.69 3.45-46.03 5.25-18.47 2.17-36.99 4.01-55.36 6.84-11.55 1.78-22.87 5.13-35.04 7.96-3.21-6.79-6.93-14.66-10.69-22.62 7.54-2.64 12.38-8.15 16.62-14.16 14.31-20.25 24.12-42.83 32.77-65.87 5.94-15.82 10.77-32.06 16.09-48.11.46-1.4.9-2.81 1.43-4.46 9.36 5.62 18.44 11.08 27.41 16.46-.15.7-.12 1.19-.29 1.28-8.32 4.19-11.65 12.26-15.68 19.87-16.74 31.63-34.37 62.72-56.77 90.81-.37.49-.59 1.09-1.55 2.86z"/></g><path d="m378.6 9.2.8-1c.9.7 1.9 1.4 2.9 2.3l-.9 1.1c-1.1-.9-2-1.7-2.8-2.4zm.5 10.7c.9-2.1 1.6-4.3 2.3-6.7.4.2.8.4 1.3.6-.7 2.1-1.5 4.3-2.2 6.6zm.4-15.2.9-.9c1 .8 2 1.6 2.8 2.4l-1 1c-1-.9-1.9-1.8-2.7-2.5zm12.5-1.3h1.2v1.4h2.7v1.1h-2.7v2.7h-1.2v-.5h-1.8v1.3h4.9v3.8h-1.2v-.5h-3.7c0 .4-.1.9-.1 1.2h5.1v1h-5.2c0 .5-.1.9-.2 1.2h6v1h-5.2c1.1 1.3 2.9 2 5.5 2.2-.4.4-.7.8-.9 1.3-2.9-.5-4.8-1.6-5.7-3.5h-.1c-.8 1.7-2.7 2.9-5.9 3.6-.2-.4-.6-.8-.9-1.1 2.8-.6 4.6-1.4 5.4-2.5h-4.8v-1h5.3c.1-.3.2-.7.2-1.2h-4.9v-1h5c0-.4 0-.8.1-1.2h-3.6v.5h-1.2v-3.8h4.9v-1.3h-1.8v.5h-1.2v-2.7h-2.6v-1.1h2.6v-1.4h1.2v1.4h4.7v-1.4zm-6.7 8.4h3.6c0-.4 0-.9 0-1.4h-3.6zm1.9-4.7h4.7v-1.2h-4.7zm6.7 3.3h-3.7v1.4h3.7z" fill="#fbfafc"/><path d="m384.7 21.4h1.3v2.2h2.8v-2.2h1.3v2.2h4.1v9.1h1.7v1.3h-16.9v-1.3h1.7v-9.1h4.1v-2.2zm.3 13.2.7 1.2c-1.8.9-3.8 1.9-6 2.9-.2-.4-.5-.8-.8-1.3 2.4-1 4.4-2 6.1-2.8zm-3.1-6.5h2.8v-3.2h-2.8zm0 4.6h2.8v-3.3h-2.8zm4.1-4.6h2.8v-3.2h-2.8zm0 4.6h2.8v-3.3h-2.8zm3.6 1.9c2.1.9 4.1 1.8 6.1 2.7l-.7 1.3c-2.2-1.1-4.2-2-6.1-2.9zm3.3-9.7h-2.8v3.2h2.8zm-2.8 7.8h2.8v-3.3h-2.8z" fill="#fbfafc"/></svg>