<svg enable-background="new 0 0 400 400" viewBox="0 0 400 400" xmlns="http://www.w3.org/2000/svg"><path d="m361.2 9.6.8-1c.9.7 1.9 1.4 2.9 2.3l-.9 1.1c-1-1-2-1.8-2.8-2.4zm.5 10.6c.9-2.1 1.6-4.3 2.3-6.7.4.2.8.4 1.3.6-.7 2.1-1.5 4.3-2.2 6.6zm.4-15.2.9-.9c1 .8 2 1.6 2.8 2.4l-1 1c-.9-.9-1.8-1.7-2.7-2.5zm12.5-1.2h1.2v1.4h2.7v1.1h-2.7v2.7h-1.2v-.6h-1.8v1.3h4.9v3.8h-1.2v-.5h-3.7c0 .4-.1.9-.1 1.2h5.1v1h-5.2c0 .5-.1.9-.2 1.2h6v1h-5.2c1.1 1.3 2.9 2 5.5 2.2-.4.4-.7.8-.9 1.3-2.9-.5-4.8-1.6-5.7-3.5h-.1c-.8 1.7-2.7 2.9-5.9 3.6-.2-.4-.6-.8-.9-1.1 2.8-.6 4.6-1.4 5.4-2.5h-4.8v-1h5.3c.1-.3.2-.7.2-1.2h-4.9v-1h5c0-.4 0-.8.1-1.2h-3.5v.5h-1.2v-3.8h4.9v-1.3h-1.8v.5h-1.2v-2.7h-2.7v-1h2.6v-1.4h1.2v1.4h4.7v-1.4zm-6.6 8.3h3.6c0-.4 0-.9 0-1.4h-3.6zm1.9-4.6h4.7v-1.3h-4.7zm6.6 3.2h-3.7v1.4h3.7z" fill="#fafbfa"/><path d="m385.3 3.8h1.3v2.2h2.8v-2.2h1.3v2.2h4.1v9.1h1.7v1.3h-16.9v-1.3h1.7v-9.1h4.1v-2.2zm.4 13.1.7 1.2c-1.8.9-3.8 1.9-6 2.9-.2-.4-.5-.8-.8-1.3 2.3-1 4.3-1.9 6.1-2.8zm-3.1-6.4h2.8v-3.2h-2.8zm0 4.6h2.8v-3.3h-2.8zm4-4.6h2.8v-3.2h-2.8zm0 4.6h2.8v-3.3h-2.8zm3.7 1.9c2.1.9 4.1 1.8 6.1 2.7l-.7 1.3c-2.2-1.1-4.2-2-6.1-2.9zm3.2-9.7h-2.8v3.2h2.8zm-2.8 7.8h2.8v-3.3h-2.8z" fill="#fafbfa"/><g fill="#010000"><path d="m209.07 137.85v6.48c.04 62.83.03 125.66.15 188.5.02 10.48.49 20.96 1.04 31.43.17 3.32-.97 4.71-4.06 5.53-5.9 1.58-11.7 3.53-17.81 5.41 0-79.07 0-157.75 0-236.77-.73-.1-1.67-.34-2.61-.34-25.67-.02-51.34-.26-77 .14-8.07.13-16.1 2.14-24.18 2.97-1.95.2-4.5-.29-5.96-1.47-3.97-3.21-7.5-6.96-12.24-11.48h122.12c0-15.15 0-29.86 0-45.25-1.71 0-3.47 0-5.24 0-35.33 0-70.67-.19-106 .14-8.4.08-16.77 2.02-25.18 2.88-1.67.17-3.9-.16-5.1-1.17-3.94-3.32-7.52-7.06-12.35-11.72h153.76c0-15.78 0-30.82 0-46.37 9.51 3.61 18.91 7.18 29.73 11.29-12.48 9.39-8.53 22.19-9.12 34.88h5.59c33.67 0 67.33.06 101-.12 2.53-.01 5.44-1.18 7.5-2.71 5.33-3.95 10.28-8.41 15.81-13.03 8.89 8.4 17.63 16.67 27.19 25.71-52.83 0-104.55 0-156.66 0v44.93c1.42.09 2.86.27 4.3.27 24 .02 48 .08 72-.09 2.42-.02 5.2-1.01 7.19-2.43 5.67-4.03 11.02-8.5 16.15-12.53 8.43 8.42 16.54 16.52 24.93 24.92-41.37 0-82.85 0-124.95 0z"/><path d="m341.83 284.35c8.03 8.5 15.67 16.57 24.03 25.41-36.62 0-72.28 0-108.51 0v14.79c-6.85 2.45-13.23 4.72-19.35 6.91 0-52.04 0-103.87 0-155.88 5.42 2.89 11.16 6.15 17.09 9.02 2.3 1.11 5.01 1.89 7.55 1.91 18.83.16 37.66.17 56.49-.03 2.22-.02 4.81-1.11 6.58-2.52 4.52-3.6 8.67-7.66 13.25-11.79 7.38 7.85 14.49 15.4 22.54 23.95-35.52 0-69.71 0-104.15 0v47.46h6.09c13 0 26.03-.56 38.99.2 8.62.51 15.13-1.69 20.22-8.63 2.04-2.79 4.61-5.19 7.18-8.04 8.32 8.81 15.94 16.87 24.42 25.85-32.9 0-64.71 0-96.84 0v46.71c1.31.11 2.59.3 3.87.3 19.83.02 39.66.11 59.49-.11 2.36-.03 5.09-1.26 6.96-2.77 4.75-3.85 9.13-8.2 14.1-12.74z"/><path d="m138.12 313.07c-8.07 0-15.36-.1-22.65.02-15.97.27-31.94.63-47.9 1.02-1.48.04-3.05.23-4.39.79-7.24 3.05-12.85 1.34-17.37-5.14-1.48-2.12-3.92-3.57-5.42-6.46h97.19c0-16.85 0-33.08 0-49.37-.2-.15-.46-.54-.71-.53-23.55.45-47.27-2.65-70.58 3.26-1.31.33-3.32-.19-4.36-1.07-3.91-3.31-7.54-6.93-11.28-10.44.21-.44.41-.88.62-1.31h86.3c0-16.07 0-31.46 0-46.92-.18-.14-.44-.52-.7-.52-22.77.54-45.63.03-68.24 2.2-8.94.86-14.68-.18-19.87-6.93-1.06-1.38-2.93-2.14-4.42-3.19.29-.54.58-1.09.88-1.63 1.69-.09 3.38-.25 5.07-.25 26.65-.02 53.31-.14 79.96.11 4.71.04 7.85-1.23 10.3-5.18 1.65-2.67 3.85-4.99 6.11-7.87 6.18 5.2 12.24 10.3 18.23 15.33-.18.56-.18.96-.37 1.13-6.94 5.84-8.56 13.22-8.28 22.15.63 20.3.02 40.64.25 60.96.19 16.95.85 33.9 1.31 51.47-6.13 2.19-12.6 4.5-19.65 7.01-.03-6.34-.03-12.08-.03-18.64z"/></g></svg>