<svg enable-background="new 0 0 400 400" viewBox="0 0 400 400" xmlns="http://www.w3.org/2000/svg"><path d="m62.75 356.18c-6.85-6.82-13.22-13.15-20.59-20.48 1.16-.71 2.39-1.51 3.67-2.23 7.31-4.14 8.32-10.53 8.27-18.46-.35-62.32-.25-124.65-.28-186.98-.01-11.62 0-23.24 0-35.53 10.49 3.91 21.35 7.97 32.75 12.22-1.03 1.27-1.48 2.18-2.22 2.69-7.81 5.38-9.2 12.83-9.14 21.99.37 64.32.2 128.65.2 192.98v6.82h248.17c0-78.92 0-157.63 0-237.17 11.65 4.35 22.46 8.39 34.17 12.77-3.79 3.46-7.19 6.23-10.15 9.42-1.3 1.39-2.42 3.61-2.42 5.46-.08 72.16-.05 144.32.05 216.48.01 6.15.71 12.29.86 18.44.04 1.46-.42 3.75-1.4 4.29-6.67 3.65-13.53 6.92-21.03 10.67 0-10 0-19.12 0-28.8-2.15-.12-3.91-.3-5.67-.3-79.16-.01-158.32.01-237.47-.1-3.56 0-5.88 1.05-7.96 3.83-3.08 4.09-6.5 7.96-9.81 11.99z" fill="#010100"/><path d="m213.03 175.78v130.33c-6.81 3.2-14.56 6.85-21.93 10.31.68-46.76 1.37-93.35 2.06-140.34-7.23 0-13.2 0-19.18 0-12.83 0-25.67-.28-38.49.08-11.27.32-22.52 1.42-33.79 2.04-1.42.08-3.26-.22-4.27-1.09-4.03-3.46-7.8-7.21-11.14-12h105.89c0-31.5 0-62.4 0-93.24-28.5 2.78-56.97 5.56-85.65 8.35-.54-2.72-.94-4.77-1.41-7.14 57.86-7.72 115.17-16.86 168.88-41.87 2.85 4.38 5.83 8.97 8.81 13.55 2.89 4.44 5.78 8.88 8.99 13.83-1.18.23-1.92.58-2.57.46-16.04-2.96-31.25 2.64-46.81 4.53-10 1.22-19.92 3.12-30.03 4.73v96.25c1.7.09 3.29.24 4.89.25 17.99.02 35.99.11 53.98-.12 2.33-.03 5.13-1.24 6.86-2.83 5.49-5.05 10.58-10.54 16-16.02 9.14 10.09 17.84 19.69 27.12 29.93-36.52.01-72.36.01-108.21.01z" fill="#010100"/><g fill="#fbfafc"><path d="m378.6 9.2.8-1c.9.7 1.9 1.4 2.9 2.3l-.9 1.1c-1.1-.9-2-1.7-2.8-2.4zm.5 10.7c.9-2.1 1.6-4.3 2.3-6.7.4.2.8.4 1.3.6-.7 2.1-1.5 4.3-2.2 6.6zm.4-15.2.9-.9c1 .8 2 1.6 2.8 2.4l-1 1c-1-.9-1.9-1.8-2.7-2.5zm12.5-1.3h1.2v1.4h2.7v1.1h-2.7v2.7h-1.2v-.5h-1.8v1.3h4.9v3.8h-1.2v-.5h-3.7c0 .4-.1.9-.1 1.2h5.1v1h-5.2c0 .5-.1.9-.2 1.2h6v1h-5.2c1.1 1.3 2.9 2 5.5 2.2-.4.4-.7.8-.9 1.3-2.9-.5-4.8-1.6-5.7-3.5h-.1c-.8 1.7-2.7 2.9-5.9 3.6-.2-.4-.6-.8-.9-1.1 2.8-.6 4.6-1.4 5.4-2.5h-4.8v-1h5.3c.1-.3.2-.7.2-1.2h-4.9v-1h5c0-.4 0-.8.1-1.2h-3.6v.5h-1.2v-3.8h4.9v-1.3h-1.8v.5h-1.2v-2.7h-2.6v-1.1h2.6v-1.4h1.2v1.4h4.7v-1.4zm-6.7 8.4h3.6c0-.4 0-.9 0-1.4h-3.6zm1.9-4.7h4.7v-1.2h-4.7zm6.7 3.3h-3.7v1.4h3.7z"/><path d="m384.7 21.4h1.3v2.2h2.8v-2.2h1.3v2.2h4.1v9.1h1.7v1.3h-16.9v-1.3h1.7v-9.1h4.1v-2.2zm.3 13.2.7 1.2c-1.8.9-3.8 1.9-6 2.9-.2-.4-.5-.8-.8-1.3 2.4-1 4.4-2 6.1-2.8zm-3.1-6.5h2.8v-3.2h-2.8zm0 4.6h2.8v-3.3h-2.8zm4.1-4.6h2.8v-3.2h-2.8zm0 4.6h2.8v-3.3h-2.8zm3.6 1.9c2.1.9 4.1 1.8 6.1 2.7l-.7 1.3c-2.2-1.1-4.2-2-6.1-2.9zm3.3-9.7h-2.8v3.2h2.8zm-2.8 7.8h2.8v-3.3h-2.8z"/></g></svg>