<svg enable-background="new 0 0 400 400" viewBox="0 0 400 400" xmlns="http://www.w3.org/2000/svg"><path d="m361.2 9.6.8-1c.9.7 1.9 1.4 2.9 2.3l-.9 1.1c-1-1-2-1.8-2.8-2.4zm.5 10.6c.9-2.1 1.6-4.3 2.3-6.7.4.2.8.4 1.3.6-.7 2.1-1.5 4.3-2.2 6.6zm.4-15.2.9-.9c1 .8 2 1.6 2.8 2.4l-1 1c-.9-.9-1.8-1.7-2.7-2.5zm12.5-1.2h1.2v1.4h2.7v1.1h-2.7v2.7h-1.2v-.6h-1.8v1.3h4.9v3.8h-1.2v-.5h-3.7c0 .4-.1.9-.1 1.2h5.1v1h-5.2c0 .5-.1.9-.2 1.2h6v1h-5.2c1.1 1.3 2.9 2 5.5 2.2-.4.4-.7.8-.9 1.3-2.9-.5-4.8-1.6-5.7-3.5h-.1c-.8 1.7-2.7 2.9-5.9 3.6-.2-.4-.6-.8-.9-1.1 2.8-.6 4.6-1.4 5.4-2.5h-4.8v-1h5.3c.1-.3.2-.7.2-1.2h-4.9v-1h5c0-.4 0-.8.1-1.2h-3.5v.5h-1.2v-3.8h4.9v-1.3h-1.8v.5h-1.2v-2.7h-2.7v-1h2.6v-1.4h1.2v1.4h4.7v-1.4zm-6.6 8.3h3.6c0-.4 0-.9 0-1.4h-3.6zm1.9-4.6h4.7v-1.3h-4.7zm6.6 3.2h-3.7v1.4h3.7z" fill="#fafbfa"/><path d="m385.3 3.8h1.3v2.2h2.8v-2.2h1.3v2.2h4.1v9.1h1.7v1.3h-16.9v-1.3h1.7v-9.1h4.1v-2.2zm.4 13.1.7 1.2c-1.8.9-3.8 1.9-6 2.9-.2-.4-.5-.8-.8-1.3 2.3-1 4.3-1.9 6.1-2.8zm-3.1-6.4h2.8v-3.2h-2.8zm0 4.6h2.8v-3.3h-2.8zm4-4.6h2.8v-3.2h-2.8zm0 4.6h2.8v-3.3h-2.8zm3.7 1.9c2.1.9 4.1 1.8 6.1 2.7l-.7 1.3c-2.2-1.1-4.2-2-6.1-2.9zm3.2-9.7h-2.8v3.2h2.8zm-2.8 7.8h2.8v-3.3h-2.8z" fill="#fafbfa"/><g fill="#010000"><path d="m254.51 234.18c-32.62 0-63.83 0-95.51 0 0 4.68-.31 8.84.17 12.91.17 1.39 2.12 2.98 3.62 3.72 18.6 9.17 37.37 18.01 55.88 27.37 6.88 3.48 12.52 8.77 16.33 15.73 3.37 6.16 4.09 12.55 1.86 19.22-2.18 6.52-5.91 7.81-11.18 3.27-3.62-3.12-6.78-6.86-9.71-10.66-15.46-20.08-35.61-34.67-56.64-49.45-.17 1.44-.33 2.17-.33 2.91.04 29.82.1 59.64.17 89.47 0 1.66.1 3.33.23 4.99.7 8.98.71 8.98-7.53 13.1-4.74 2.37-9.5 4.7-13.87 6.86 0-38.65 0-77.31 0-116.95-28.02 36.54-62.31 65.03-102.65 86.6-.97-1.17-1.78-2.16-3.05-3.7 36.23-30.57 69.05-64.03 94.63-104.92-1.84-.21-3.06-.47-4.27-.47-15.83-.03-31.66-.24-47.48.08-6.94.14-13.85 1.53-20.8 2.03-1.83.13-4.15-.48-5.54-1.62-3.31-2.68-6.2-5.88-10.36-9.95h99.57c0-17.31 0-33.98 0-50.88 10.13 3.54 20.55 7.18 31.39 10.96-.81.97-1.11 1.65-1.61 1.88-8 3.65-9.8 10.04-8.96 18.26.64 6.26.13 12.63.13 19.63h6.64c13.83 0 27.66.15 41.48-.14 2.51-.05 5.42-1.35 7.4-2.98 5.36-4.42 10.31-9.33 15.73-14.33 7.92 8.85 15.55 17.35 24.26 27.06z"/><path d="m329.73 373.69c-8.66-19.61-27.15-24.25-44.91-30.25 0-2 0-3.94 0-6.53 6.08.84 11.9 1.77 17.74 2.42 8.41.94 16.83 2.02 25.27 2.39 8.25.36 10.17-1.94 10.17-10.22-.02-87.45-.04-174.91-.07-262.36 0-12.95 0-25.91 0-39.38 9.48 3.42 19.38 6.99 30.14 10.88-2.01 2.43-3.57 4.66-5.47 6.55-3.22 3.21-4.56 6.72-4.55 11.48.16 92.95.13 185.9.11 278.85 0 18.76-9.83 31.34-28.43 36.17z"/><path d="m106.83 109.99c-18.88 6.67-38.69 7.86-56.03 18.98-4.17-3.75-8.67-7.8-13.8-12.42 15.96-4.01 31.14-7.82 46.32-11.63 6.76-1.69 13.57-3.2 20.24-5.18 1.35-.4 3.14-2.54 3.13-3.86-.18-21.44-.61-42.88-1-64.88 11.35 4.06 22.89 8.2 36.3 13-4.44 3.91-8.11 6.98-11.55 10.28-1.09 1.05-2.23 2.71-2.25 4.1-.18 11.97-.1 23.95-.1 36.45 14.84-3.55 29.16-6.99 43.49-10.41 1.13-.27 2.26-.59 3.41-.69 14.82-1.28 25.77-8.07 31.84-22.02.65-1.48 1.84-2.73 3.14-4.62 9.3 6.95 18.42 13.77 28.45 21.27-9.66 2.35-18.36 4.53-27.08 6.59-25.82 6.1-51.63 12.27-77.52 18.1-4.64 1.05-6.11 2.84-5.86 7.57.44 8.31.1 16.66.13 24.99.03 9.08 4.8 14.11 14.22 14.25 15.49.23 30.99.12 46.49.11 12.28-.01 24.61.89 36.48-3.73 3.38-1.32 6.9-.31 9.5 2.68 2.08 2.38 4.33 4.62 6.34 7.05 3.44 4.16 2.88 7.22-2.17 9.27-3.49 1.41-7.34 2.59-11.05 2.66-28.63.53-57.27.92-85.91.94-6.05 0-12.28-1.1-18.11-2.78-11.15-3.21-16.93-11.42-17.02-22.96-.1-10.61-.03-21.26-.03-33.11z"/><path d="m264.15 282.16c1.62-69.36 2.43-138.07.17-207.47 9.79 3.25 19.4 6.43 29 9.61-.19.71-.17 1.16-.38 1.32-7.3 5.85-7.77 13.69-7.69 22.36.35 35.66-.02 71.32.22 106.98.12 17.95.93 35.91 1.57 53.85.12 3.33-.45 5.34-4.13 6.45-6.17 1.85-12.12 4.42-18.76 6.9z"/></g></svg>