<svg enable-background="new 0 0 400 400" viewBox="0 0 400 400" xmlns="http://www.w3.org/2000/svg"><g fill="#010100"><path d="m201.49 373.69c-4.21-2.26-3.67-4.69-1.37-8.1 25.05-37.19 41.91-77.74 48.41-122.2 3.17-21.68 5.19-43.54 7.36-65.35 1.29-13.03 1.86-26.12 2.86-40.65-7.99.93-15.34 1.45-22.56 2.76-3.26.59-5.23.01-7.15-2.49-2.32-3-4.92-5.8-8.12-9.51h38.29c.54-33.2 1.08-65.71 1.61-98.59 9.73 2.66 19.75 5.39 30.11 8.22-.67 1.13-.87 1.84-1.33 2.19-8.06 6.15-8.64 14.63-8.72 23.99-.19 21.1-1.36 42.19-2.17 64.04h4.72c17.83 0 35.66-.11 53.49.09 3.67.04 5.79-1.02 7.38-4.32 1.64-3.41 3.9-6.53 5.95-9.87 7.1 5.21 13.93 10.23 20.66 15.17-.03.56.08 1.04-.08 1.16-9.49 7.34-9.95 17.81-10.52 28.56-1.13 21.42-2.43 42.85-4.35 64.21-3.06 34.05-5.2 68.29-13.95 101.54-4.02 15.27-11.37 28.84-24.8 38.05-3.91 2.68-8.54 4.39-13.01 6.09-1.01.39-3.66-.79-4-1.78-3.38-9.65-10.46-16.07-18.43-21.71-3.66-2.59-7.44-5.06-11.43-7.08-3.14-1.6-4.03-3.61-2.96-6.76 9.58 2.61 19.12 5.36 28.74 7.8 10.51 2.67 18.5-.36 22.51-10.43 4.08-10.24 7.08-21.09 9.09-31.94 5.96-32.24 8.42-64.89 10.3-97.59 1.1-19.08 2.36-38.15 3.52-57.23.07-1.12-.16-2.25-.27-3.62-20.86 0-41.46 0-62.6 0-.42 5.04-.75 10.12-1.26 15.19-2.41 23.8-4.58 47.63-7.36 71.39-6.7 56.96-27.46 107.54-68.56 148.77z"/><path d="m204.14 156.07h3.47c.25.42.65.8.71 1.22.64 4.6 1.18 9.2 1.85 13.8 1.16 8.03 4.59 14.55 12.8 18.23-4.76 7.96-10.68 13.91-20.34 14.72-5.46.46-10.94.93-16.42.98-14.33.14-28.66.08-42.99.03-14.39-.05-21.21-6.61-21.58-20.86-.17-6.31-.03-12.62-.03-19.96-11.49 3.37-23.37 2.77-33.91 9.85-2.49-3.33-5.12-6.84-8.1-10.82 14.35-2.52 28.01-4.92 42.28-7.43-.52-11.92-1.03-23.48-1.53-35.16-15.1 0-29.37 0-44.26 0v6.06c-.02 36.32.63 72.66-.23 108.97-1.14 47.51-12.12 92.45-38.99 132.55-1.42 2.11-2.5 5.56-6.46 2.83 3.36-8.9 6.92-17.63 9.96-26.55 8.55-25.1 14.49-50.89 15.45-77.38 1.3-35.59 1.42-71.23 1.71-106.84.13-15.63-.55-31.28-.94-46.91-.11-4.3-.48-8.6-.8-14.13 5.48 3.11 9.98 6.11 14.86 8.3 3.64 1.63 7.73 2.99 11.67 3.11 12.81.38 25.63.14 38.51.14 0-27.15 0-53.98 0-81.28 9.26 2.63 18.75 5.32 28.55 8.1-2.52 5.79-10.29 7.6-9.42 15.22.67 5.91.13 11.96.13 18.71h11.61c9.5 0 19-.19 28.49.09 3.87.11 6.64-1.05 9.12-3.9 2.73-3.13 5.78-5.97 9.16-9.41 6.98 7.45 13.71 14.64 21.3 22.73-27.12 0-53.13 0-79.4 0v29.73h5.29c17.16 0 34.33-.12 51.49.08 4.14.05 7.31-.68 9.77-4.33 1.73-2.57 4.15-4.67 6.43-7.16 6.63 6.16 12.94 12.03 19.68 18.29-15.1 4.39-25.56 14.1-34.73 25.63-.79.99-2.92.91-5.6 1.66 3.85-8.88 7.01-16.18 10.43-24.06-26.86 0-53.32 0-79.79 0-.1.19-.19.39-.29.58 8.31 3.14 16.63 6.28 26.21 9.91-10.95 4.46-9.68 12.78-8.8 21 11.34-.45 20.77-4.55 27.09-14.39 2.21-3.45 4.25-3.63 7.55-1.08 5.64 4.35 11.69 8.15 18.54 12.85-18.29 3.99-35.63 7.77-53.34 11.64 0 6.5-.41 12.99.14 19.4.38 4.43 3.2 7.87 8.09 8.14 7.63.42 15.29.48 22.93.59 5.83.09 11.66.04 17.5.01 6.35-.04 9.42-1.67 10.94-7.98 1.94-8.13 2.8-16.55 4.24-25.52z"/><path d="m155.8 319.51c-29.34 22.47-60.13 38.5-95.24 45.73-.32-.79-.54-1.21-.65-1.67-.28-1.1-.5-2.22-.82-3.66 30.17-11.22 57.57-26.81 81.46-49.64-16.57-10.98-34.18-19.33-52.2-27.82.81-1.83 1.58-3.56 2.69-6.06 18.83 7.01 37.34 13.77 55.72 20.86 3.01 1.16 4.6.97 6.73-1.42 8.99-10.08 16.46-21.16 23.14-33.27-24.31 0-48.04 0-71.78.02-.65 0-1.33.18-1.95.41-11.17 4.01-17.99-1.91-24.03-10.99h5.49c34.66 0 69.31.07 103.97-.14 2.61-.02 5.72-1.4 7.72-3.15 4.34-3.8 8.11-8.26 12.42-12.76 7.81 8.78 15.09 16.95 23.24 26.12-8.42 0-15.83.47-23.15-.14-6.45-.54-9.87 1.77-13.35 7.3-8.2 13.07-17.51 25.44-26.61 38.43 5.05 2.93 10.69 5.98 16.1 9.39 4.49 2.83 8.92 5.82 13.02 9.18 9.26 7.61 8.61 18.32 3.12 27.42-2.31 3.83-5.81 3.15-8.48.53-4.03-3.94-7.32-8.66-11.44-12.48-8.11-7.54-16.6-14.7-25.12-22.19z"/><path d="m127.56 214.05c1.68-.54 3.79-2.03 4.96-1.48 8.68 4.05 17.27 8.33 25.68 12.92 3.59 1.96 6.31 5.25 5.49 9.75-.98 5.39-3.56 10.24-8.56 12.76-4.19 2.11-5.57-1.86-7.33-4.64-4.58-7.24-9.05-14.55-13.99-21.54-1.65-2.34-4.55-3.79-6.88-5.64.21-.71.42-1.42.63-2.13z"/></g><path d="m378.6 9.2.8-1c.9.7 1.9 1.4 2.9 2.3l-.9 1.1c-1.1-.9-2-1.7-2.8-2.4zm.5 10.7c.9-2.1 1.6-4.3 2.3-6.7.4.2.8.4 1.3.6-.7 2.1-1.5 4.3-2.2 6.6zm.4-15.2.9-.9c1 .8 2 1.6 2.8 2.4l-1 1c-1-.9-1.9-1.8-2.7-2.5zm12.5-1.3h1.2v1.4h2.7v1.1h-2.7v2.7h-1.2v-.5h-1.8v1.3h4.9v3.8h-1.2v-.5h-3.7c0 .4-.1.9-.1 1.2h5.1v1h-5.2c0 .5-.1.9-.2 1.2h6v1h-5.2c1.1 1.3 2.9 2 5.5 2.2-.4.4-.7.8-.9 1.3-2.9-.5-4.8-1.6-5.7-3.5h-.1c-.8 1.7-2.7 2.9-5.9 3.6-.2-.4-.6-.8-.9-1.1 2.8-.6 4.6-1.4 5.4-2.5h-4.8v-1h5.3c.1-.3.2-.7.2-1.2h-4.9v-1h5c0-.4 0-.8.1-1.2h-3.6v.5h-1.2v-3.8h4.9v-1.3h-1.8v.5h-1.2v-2.7h-2.6v-1.1h2.6v-1.4h1.2v1.4h4.7v-1.4zm-6.7 8.4h3.6c0-.4 0-.9 0-1.4h-3.6zm1.9-4.7h4.7v-1.2h-4.7zm6.7 3.3h-3.7v1.4h3.7z" fill="#fbfafc"/><path d="m384.7 21.4h1.3v2.2h2.8v-2.2h1.3v2.2h4.1v9.1h1.7v1.3h-16.9v-1.3h1.7v-9.1h4.1v-2.2zm.3 13.2.7 1.2c-1.8.9-3.8 1.9-6 2.9-.2-.4-.5-.8-.8-1.3 2.4-1 4.4-2 6.1-2.8zm-3.1-6.5h2.8v-3.2h-2.8zm0 4.6h2.8v-3.3h-2.8zm4.1-4.6h2.8v-3.2h-2.8zm0 4.6h2.8v-3.3h-2.8zm3.6 1.9c2.1.9 4.1 1.8 6.1 2.7l-.7 1.3c-2.2-1.1-4.2-2-6.1-2.9zm3.3-9.7h-2.8v3.2h2.8zm-2.8 7.8h2.8v-3.3h-2.8z" fill="#fbfafc"/></svg>