<svg enable-background="new 0 0 400 400" viewBox="0 0 400 400" xmlns="http://www.w3.org/2000/svg"><g fill="#fbfcfa"><path d="m346.9 398 5.4-7.3h-5.2v-.6h5.9v.6l-5.4 7.2h5.5l-.1.6h-6.2v-.5z"/><path d="m354.7 390.1h2.8c2.3 0 3.9 1.6 3.9 4.1s-1.6 4.3-3.9 4.3h-2.8zm.6 7.8h2c2.2 0 3.3-1.6 3.3-3.6 0-1.8-1-3.6-3.3-3.6h-2z"/><path d="m363.9 390.1v8.4h-.6v-8.4z"/><path d="m372.5 396.3c-.4 1.3-1.4 2.3-3.2 2.3-2.4 0-3.7-1.9-3.7-4.3 0-2.3 1.2-4.3 3.7-4.3 1.8 0 2.9 1 3.2 2.4h-.6c-.4-1.1-1.1-1.8-2.5-1.8-2.1 0-3 1.9-3 3.7s.9 3.7 3 3.7c1.4 0 2.1-.7 2.5-1.7z"/><path d="m373.8 398.5v-1.5h.6v1.5z"/><path d="m376.2 398.5v-8.4h1c1.3 2 4.4 6.7 4.9 7.6-.1-1.2-.1-2.4-.1-3.8v-3.8h.7v8.4h-.9c-1.2-1.9-4.4-6.8-5-7.7.1 1.1 0 2.3 0 3.9v3.9h-.6z"/><path d="m390 394.4h-4.3v3.5h4.7l-.1.6h-5.2v-8.4h5.1v.6h-4.5v3.1h4.3v.7z"/><path d="m394.2 390.7h-2.8v-.6h6.3v.6h-2.8v7.8h-.7z"/></g><path d="m187.38 97.55c0-22.18 0-44.09 0-66.45 11.23 4.03 22.56 8.1 34.76 12.48-4.13 2.54-7.75 4.5-11.03 6.91-1.37 1-2.89 2.94-2.91 4.47-.22 13.49-.12 26.99-.1 40.49 0 .62.22 1.25.37 2.1h79.34c0-16.25 0-32.3 0-49.01 11.09 3.99 22.45 8.08 34.54 12.43-1.54.95-2.18 1.56-2.93 1.76-9.45 2.51-12.18 8.59-11.22 18.07.92 9.07.3 18.31.1 27.47-.03 1.46-1.09 3.8-2.21 4.19-5.44 1.9-11.06 3.27-17.16 4.98-.22-3.41-.41-6.32-.62-9.63-29.81 0-59.48 0-89.14 0-.06.25-.12.49-.18.74 6.99 2.1 13.97 4.21 22.12 6.66-8.67 4.71-16.75 8.89-12.02 20.6h4.83c34.83 0 69.66.07 104.49-.14 2.8-.02 6.02-1.45 8.29-3.2 6.29-4.86 12.17-10.24 18.51-15.66 8.83 9.28 17.4 18.28 26.75 28.11-55.07 0-109.07 0-163.48 0v21.07h5.03c21 0 42-.12 62.99.1 4.42.05 7.58-.8 9.65-5.02 1.3-2.65 3.34-4.94 5.35-7.82 7.04 4.23 13.93 8.37 20.94 12.57-11.29 11.51-8.11 25.49-8.04 38.81.02 4.48.74 8.96.69 13.44-.01 1.36-1.23 3.47-2.4 3.93-5.85 2.27-11.87 4.11-18.39 6.29-.17-2.78-.31-5.16-.48-7.93-25.03 0-50.08 0-75.44 0v22.94c1.83.09 3.74.26 5.66.27 18.16.02 36.34-.25 54.49.16 6 .14 10.61-1.47 14.57-5.73 1.46-1.56 3.17-2.89 5.19-4.71 6.6 6.1 13.02 12.05 19.02 17.59-25.73 14.98-46.11 37.18-71.21 52.97-6.73 4.23-13.25 8.79-20.71 13.76 50.66 18.34 102.48 25.13 155.28 26.44 1.11 3.67.5 5.35-3.57 6.45-5.86 1.59-11.81 3.77-16.9 6.98-4.12 2.6-7.03 7.11-11.72 12.09-11.85-2.33-25.71-4.72-39.42-7.8-33.31-7.48-65.66-17.88-96.55-32.63-1.75-.83-4.61-.77-6.37.07-37.52 18.01-76.88 30.29-117.77 37.57-15.13 2.7-30.48 4.17-46.12 6.26-.12-2.48-.2-3.93-.28-5.69 52.01-11.5 103.28-25 151.6-49.54-1.49-1.17-2.4-2.02-3.43-2.68-25.45-16.18-48.29-35.47-68.48-57.85-2.85-3.16-5.72-4.67-9.89-4.16-6.25.78-12.52 1.45-18.79 1.97-1.62.13-3.68.06-4.89-.82-4.11-3-7.93-6.41-12.99-10.59h122.58c0-8.11 0-15.54 0-23.34-26.56 0-53.1 0-79.89 0-.21 1.66-.42 3.28-.66 5.23-6.77 1.83-13.6 3.67-20.3 5.48 0-24.37 0-48.54 0-73.2 5.69 2.1 11.61 4.45 17.65 6.44 2.78.92 5.78 1.59 8.68 1.6 24.66.12 49.32.07 74.39.07 0-6.88 0-13.56 0-20.83-2.09 0-4.04 0-5.99 0-37.16.08-74.32.06-111.48.31-7.45.05-14.97.63-22.31 1.88-3.52.6-5.56-.21-7.83-2.43-2.83-2.78-5.88-5.33-9.85-8.89h157.15c0-9.72 0-18.76 0-28.31-2.28-.13-3.88-.31-5.49-.31-22.83-.02-45.66-.09-68.49.1-2.39.02-5.04 1.26-7.08 2.64-3 2.03-5.56 4.7-8.68 7.41-6.15-4.73-12.16-9.34-18.11-13.92.32-.62.39-1.06.64-1.19 8.9-4.73 9.52-12.64 9.07-21.55-.56-11.1-.13-22.25-.13-33.63 9.09 2.88 18.83 5.96 29.07 9.2-.85 1-1.3 1.98-2.03 2.31-6.26 2.83-7.49 7.73-7.04 14.17.57 8.07.14 16.22.14 24.59 26.44.04 52.34.04 78.27.04zm-69.38 155.88c1.37 1.27 1.82 1.74 2.33 2.14 23.66 18.72 48.65 35.48 74.98 50.2 1.52.85 4.61.6 6.08-.42 20.05-13.98 39.98-28.13 59.85-42.37 3.67-2.63 6.94-5.83 11.32-9.55-52.08 0-102.76 0-154.56 0zm69.77-77.15c-26.87 0-53.26 0-80.01 0v33.27h80.01c0-11.15 0-21.92 0-33.27zm20.71-.09v33.46h75.12c0-11.31 0-22.33 0-33.46-25.16 0-49.93 0-75.12 0z" fill="#010103"/></svg>