<svg enable-background="new 0 0 400 400" viewBox="0 0 400 400" xmlns="http://www.w3.org/2000/svg"><g fill="#fbfcfa"><path d="m346.9 398 5.4-7.3h-5.2v-.6h5.9v.6l-5.4 7.2h5.5l-.1.6h-6.2v-.5z"/><path d="m354.7 390.1h2.8c2.3 0 3.9 1.6 3.9 4.1s-1.6 4.3-3.9 4.3h-2.8zm.6 7.8h2c2.2 0 3.3-1.6 3.3-3.6 0-1.8-1-3.6-3.3-3.6h-2z"/><path d="m363.9 390.1v8.4h-.6v-8.4z"/><path d="m372.5 396.3c-.4 1.3-1.4 2.3-3.2 2.3-2.4 0-3.7-1.9-3.7-4.3 0-2.3 1.2-4.3 3.7-4.3 1.8 0 2.9 1 3.2 2.4h-.6c-.4-1.1-1.1-1.8-2.5-1.8-2.1 0-3 1.9-3 3.7s.9 3.7 3 3.7c1.4 0 2.1-.7 2.5-1.7z"/><path d="m373.8 398.5v-1.5h.6v1.5z"/><path d="m376.2 398.5v-8.4h1c1.3 2 4.4 6.7 4.9 7.6-.1-1.2-.1-2.4-.1-3.8v-3.8h.7v8.4h-.9c-1.2-1.9-4.4-6.8-5-7.7.1 1.1 0 2.3 0 3.9v3.9h-.6z"/><path d="m390 394.4h-4.3v3.5h4.7l-.1.6h-5.2v-8.4h5.1v.6h-4.5v3.1h4.3v.7z"/><path d="m394.2 390.7h-2.8v-.6h6.3v.6h-2.8v7.8h-.7z"/></g><path d="m234.37 247.51c-6.15 2.33-11.98 4.54-18.43 6.99 0-3.61 0-6.54 0-9.77-7.38 0-14.31 0-21.59 0v35.5c13.62 3.73 24.4-.6 32.63-12.41 6.97 7.95 13.25 15.11 20.31 23.18-18.36 0-35.56 0-53.29 0 0 2.34-.02 4.12 0 5.9.34 21.31.59 42.62 1.11 63.93.09 3.55-.99 5.38-4.18 6.77-5.17 2.25-10.14 4.96-14.9 7.33 0-27.8 0-55.49 0-84.34-12.44.58-25.25.49-37.85 2.06-6.27.78-10.69.29-14.52-4.82-1.63-2.18-4.06-3.76-6.12-5.62.22-.4.45-.8.67-1.19h58.35c0-12.3 0-24.06 0-36.21-7.19 0-14.26 0-21.75 0 .83 5.67-3.21 6.6-7.34 7.66-3.69.94-7.29 2.21-10.7 3.26 0-46.13 0-92.12 0-138.78 11.91 7.5 25.07 10.87 39.71 7.9 0-11.18 0-22.58 0-34.24-8.25 0-16.49-.01-24.72.02-.82 0-1.68.14-2.45.41-11.11 3.97-18.07-1.73-23.69-10.74h50.59c0-17.04 0-33.54 0-50.47 8.87 3.98 17.74 7.97 27.1 12.17-.72.89-1.06 1.66-1.64 1.98-6.85 3.8-8.55 9.65-7.79 17.13.61 6.07.12 12.24.12 17.82 13.4 5.3 20.66-3.9 28.99-11.74 6.56 7.46 12.87 14.63 19.94 22.68-16.77 0-32.58 0-48.66 0v35.66c6.75 0 13.56.45 20.26-.24 2.3-.24 4.45-3.18 6.42-5.14 1.52-1.51 2.64-3.41 4.28-5.6 6.44 6.93 11.95 12.86 17.39 18.72-.21.54-.25 1.02-.45 1.11-8.71 3.9-9.49 11-9.28 19.6.61 25.98.35 51.98.55 77.98.03 5.12.6 10.24.93 15.55zm-79.63-58.2v45.21h21.76c0-15.19 0-30.08 0-45.21-7.25 0-14.19 0-21.76 0zm39.54-.09v45.2h21.27c0-15.29 0-30.17 0-45.2-7.17 0-13.97 0-21.27 0zm-39.56-10.65h21.7c0-14.64 0-28.84 0-43.01-7.45 0-14.49 0-21.7 0zm39.62-43.11v43.12h21.22c0-14.62 0-28.82 0-43.12-7.27 0-14.16 0-21.22 0z" fill="#010103"/><path d="m310.09 373.51c0-69.85 0-139.76 0-210.09-11.54 0-23.56 0-36.09 0 0 1.5.02 2.95 0 4.4-.32 22.48.28 45.02-1.2 67.42-2.1 31.85-5.84 63.59-20.65 92.69-7.83 15.37-18.21 28.93-30.21 41.26-4.16-1.77-1.83-4.09-.68-6.02 9.9-16.63 17.99-34.08 24.07-52.46 6.01-18.14 9.16-36.83 9.49-55.82.94-54.78 1.39-109.57 1.99-164.35.11-10.3.02-20.59.02-31.22 4.13 2.21 8.74 5.01 13.63 7.14 2.16.94 5.23 1.4 7.32.59 9.75-3.76 19.53-7.58 28.86-12.26 9.32-4.68 18.11-10.42 27.75-16.05 5.33 5.69 11.19 11.96 17.77 18.98-7.07 1.53-13.46 2.75-19.75 4.31-18.19 4.53-36.34 9.22-54.52 13.79-2.22.56-3.95.96-3.93 4 .13 23.83.1 47.66.13 71.5 0 .31.18.62.47 1.59h9.1c13.67 0 27.33-.1 41 .07 3.54.04 6.34-.71 9.01-3.19 3.64-3.39 7.69-6.34 11.85-9.71 6.53 7.47 12.91 14.77 19.91 22.78-12.88 0-24.79 0-37.41 0v5.65c.06 57.33.09 114.66.21 171.99.01 6.31.7 12.63.75 18.94.01 1.47-.92 3.58-2.1 4.32-5.63 3.56-11.48 6.72-16.79 9.75z" fill="#010103"/><path d="m93.81 315.49c0-13.44 0-25.88 0-38.7-13.27 0-26.18 0-39.81 0 0 9.1-.19 18.2.1 27.27.11 3.51-1.07 5.37-4.14 6.81-4.61 2.16-9.05 4.71-13.74 7.18 0-83.49 0-166.51 0-250.13 5.16 3.3 10.17 6.74 15.43 9.75 2.18 1.25 4.88 2.15 7.36 2.22 9.83.25 19.67-.12 29.49.21 4.01.14 6.52-1.21 8.63-4.41 1.82-2.76 4.04-5.26 5.74-7.45 6.07 6.09 12.02 12.06 18.74 18.8-.5.34-1.81 1.35-3.23 2.17-6.33 3.69-7.62 9.12-7.57 16.28.37 60.16.27 120.32.39 180.48.01 4.98.72 9.96.73 14.94 0 1.56-.78 3.76-1.95 4.56-4.9 3.38-10.09 6.33-16.17 10.02zm-39.57-49.11h39.3c0-58.88 0-117.32 0-175.9-13.31 0-26.33 0-39.3 0z" fill="#010103"/></svg>