<svg enable-background="new 0 0 400 400" viewBox="0 0 400 400" xmlns="http://www.w3.org/2000/svg"><path d="m361.2 9.6.8-1c.9.7 1.9 1.4 2.9 2.3l-.9 1.1c-1-1-2-1.8-2.8-2.4zm.5 10.6c.9-2.1 1.6-4.3 2.3-6.7.4.2.8.4 1.3.6-.7 2.1-1.5 4.3-2.2 6.6zm.4-15.2.9-.9c1 .8 2 1.6 2.8 2.4l-1 1c-.9-.9-1.8-1.7-2.7-2.5zm12.5-1.2h1.2v1.4h2.7v1.1h-2.7v2.7h-1.2v-.6h-1.8v1.3h4.9v3.8h-1.2v-.5h-3.7c0 .4-.1.9-.1 1.2h5.1v1h-5.2c0 .5-.1.9-.2 1.2h6v1h-5.2c1.1 1.3 2.9 2 5.5 2.2-.4.4-.7.8-.9 1.3-2.9-.5-4.8-1.6-5.7-3.5h-.1c-.8 1.7-2.7 2.9-5.9 3.6-.2-.4-.6-.8-.9-1.1 2.8-.6 4.6-1.4 5.4-2.5h-4.8v-1h5.3c.1-.3.2-.7.2-1.2h-4.9v-1h5c0-.4 0-.8.1-1.2h-3.5v.5h-1.2v-3.8h4.9v-1.3h-1.8v.5h-1.2v-2.7h-2.7v-1h2.6v-1.4h1.2v1.4h4.7v-1.4zm-6.6 8.3h3.6c0-.4 0-.9 0-1.4h-3.6zm1.9-4.6h4.7v-1.3h-4.7zm6.6 3.2h-3.7v1.4h3.7z" fill="#fafbfa"/><path d="m385.3 3.8h1.3v2.2h2.8v-2.2h1.3v2.2h4.1v9.1h1.7v1.3h-16.9v-1.3h1.7v-9.1h4.1v-2.2zm.4 13.1.7 1.2c-1.8.9-3.8 1.9-6 2.9-.2-.4-.5-.8-.8-1.3 2.3-1 4.3-1.9 6.1-2.8zm-3.1-6.4h2.8v-3.2h-2.8zm0 4.6h2.8v-3.3h-2.8zm4-4.6h2.8v-3.2h-2.8zm0 4.6h2.8v-3.3h-2.8zm3.7 1.9c2.1.9 4.1 1.8 6.1 2.7l-.7 1.3c-2.2-1.1-4.2-2-6.1-2.9zm3.2-9.7h-2.8v3.2h2.8zm-2.8 7.8h2.8v-3.3h-2.8z" fill="#fafbfa"/><g fill="#010000"><path d="m230.09 284.23c-25.1 0-49.21 0-73.07 0-1.41 7.69-2.77 15.12-4.28 23.36h12.04c1.67 0 3.33-.04 5 .01 10.46.26 21.43 2 27.06-10.17 5.55 5.57 10.47 10.51 16.64 16.69-1.14.6-2.48 1.27-3.79 1.99-6.08 3.33-7.19 8.63-6.7 15.1.71 9.28.64 18.62 1.18 27.92.17 2.85-.78 4.14-3.3 5.17-4.89 2-9.63 4.34-14.07 6.37 0-17.69 0-35.24 0-53.45-11.32 0-22.92-.11-34.5.17-1.17.03-2.61 2.23-3.37 3.71-11.83 22.76-30.04 38.65-54.18 48.92.75-1.31 1.29-2.8 2.28-3.9 7.76-8.67 15.96-16.98 23.35-25.96 10.34-12.57 12.91-28.19 15.52-43.61 4.6-27.21 4.46-54.67 3.75-82.14-.04-1.64-.01-3.28-.01-5.65 9.49 3.78 18.36 7.31 27.79 11.06-2.95 3.45-6.56 6.13-7.88 9.66-1.3 3.48-.28 7.83-.28 12.12h29.16c0-9.81 0-19.51 0-29.65 7.89 3.48 15.75 6.95 24.44 10.78-1.62 1.43-2.75 2.77-4.18 3.63-4.03 2.43-4.67 5.97-4.19 10.28.66 5.91.92 11.86 1.38 18.07-5.48 1.81-10.91 3.61-16.66 5.51-.18-2.9-.32-5.32-.48-7.97-9.85 0-19.43 0-29.67 0-.43 7.09-.86 13.99-1.31 21.3h71.67c0-23.42 0-46.97 0-70.62-.15-.12-.4-.5-.66-.5-21.11-.02-42.27-1.6-63.3 1.87-1.63.27-3.85-.34-5.15-1.37-3.61-2.83-6.88-6.09-11.44-10.23h80.7c0-6.32 0-11.91 0-17.93-1.49-.12-2.94-.34-4.39-.34-25.33-.02-50.66-.14-75.99.07-6.78.06-13.68.52-20.3 1.92-4.63.98-8.04-.15-11.56-2.55-1.72-1.17-3.52-2.23-6.13-3.87v5.85c.08 30.66.09 61.32.28 91.98.05 7.98.52 15.96.98 23.93.16 2.78-.51 4.55-3.13 5.97-4.93 2.68-9.62 5.78-15.15 9.16 0-13.26 0-25.78 0-38.59-13.8 0-27.06 0-41.09 0 0 8.18-.38 16.46.14 24.69.33 5.27-1.41 8.26-6.17 10.24-3.94 1.64-7.62 3.9-11.7 6.03 0-83.49 0-166.46 0-250.07 5.77 3.42 11.34 6.96 17.15 10.06 2.37 1.27 5.23 2.16 7.89 2.24 8.82.27 17.67.31 26.49-.04 2.28-.09 4.98-1.44 6.62-3.09 3.27-3.28 5.93-7.16 8.43-10.28 7.1 7.07 14.12 14.06 21.29 21.2-2.64 2.1-6.24 4.73-9.54 7.69-1.19 1.07-2.37 2.92-2.38 4.42-.14 23.66-.09 47.33-.07 70.99 0 .63.22 1.25.39 2.14h117.82c0-5.63 0-11.19 0-17.11-.98-.13-2.08-.4-3.17-.4-14.83 0-29.66-.06-44.49.11-4.14.05-8.43.21-12.36 1.34-5.13 1.48-8.86.37-12.31-3.52-2.31-2.6-5.11-4.76-8.36-7.73h80.82c-.4-8.42-.76-16.27-1.08-22.95 2.9-1.56 5.84-2.4 7.74-4.29 10.93-10.82 18.8-23.72 23.89-38.15 5.02-14.22 9.39-28.68 14.14-43.32 6.52 4.05 13.78 8.56 21.96 13.65-11.42 5.16-12.5 16.81-18.9 25.99 2.1.19 3.48.42 4.86.43 9.5.03 19.03-.48 28.49.16 8.78.6 16.52-1.36 23.27-6.72 4.6-3.66 7.73-3.05 11.51 1.38 4.15 4.87 9.2 8.98 13.86 13.42-.22.41-.44.82-.67 1.23-20.17 0-40.33 0-60.5 0-.08.33-.16.65-.24.98 4.23 2.34 8.58 4.5 12.66 7.07 11.53 7.27 13.83 18.04 6.24 28.39-2.99 4.07-5.49 3.99-7.64-.65-3.13-6.78-5.84-13.75-8.86-20.58-.87-1.97-2.45-3.64-3.21-5.63-3.41-8.85-10.2-10.85-18.68-9.38-1.31.23-2.91.91-3.67 1.92-10.42 13.7-21.58 26.63-36.78 36.38 5.85 2.97 11.13 5.65 17.22 8.74-4.95 2.5-8.96 5-6.22 11.66h4.69c15.33 0 30.67-.23 45.99.13 5.12.12 8.95-.95 11.87-5.27 1.46-2.16 3.45-3.96 5.47-6.22 6.14 5.66 12.1 11.15 18.85 17.37-11.06 3.8-11.87 11.96-9.77 21.72 9.6 1.24 13.74-8.25 21.85-10.98 5.88 6.3 12.05 12.91 19.13 20.49-14.39 0-27.57 0-40.56 0-3.81 10.59 3.4 21.63-2.82 31.89 7.1 4.21 14.8 8.77 22.82 13.52-.63.76-.99 1.59-1.61 1.87-6.92 3.13-8.05 8.57-7.94 15.74.5 32.32.24 64.65.59 96.97.09 8.42 1.35 16.83 2.11 25.71-5.98 2.98-12.3 6.14-19.39 9.68 0-17.63 0-34.63 0-52-10.53 0-20.43 0-30.91 0-.07 1.7-.22 3.45-.22 5.21-.02 12.5-.09 25 .05 37.5.03 2.8-.77 4.19-3.54 4.93-4.42 1.19-8.72 2.78-13.21 4.24 0-23.13 0-45.66 0-69.44 14.75 11.13 31.16 6.8 47.28 7.62 0-8.02 0-15.45 0-23.24-23.6 0-47.17 0-71.49 0 0 1.69-.02 3.45 0 5.21.34 24.48.6 48.95 1.11 73.43.06 3.09-.69 4.45-3.65 5.31-5.74 1.66-11.36 3.72-17.07 5.63.46-29.88.97-59.57 1.48-89.73zm-176.8-26.69h40.33c0-58.94 0-117.49 0-176.03-13.63 0-26.87 0-40.33 0zm265.73-15.75c0-11.83 0-23.18 0-35.1-3.95.91-6.91 1.59-10.06 2.32-.32-2.51-.58-4.58-.81-6.4-20.22 0-39.95 0-59.53 0v70.88h70.96c0-7.36 0-14.28 0-21.49-8.16 0-15.99-.27-23.78.11-4.21.21-8.36 1.54-14.15 2.68-3.42-2.52-8.54-6.28-14.3-10.52 7.23-2.8 8.15-7.91 7.55-14.05-.67-6.89-.82-13.82-1.24-21.49 8.29 3.91 15.86 7.48 24.42 11.52-9.59 5.47-8.1 13.47-7.14 21.55 9.57-.01 18.87-.01 28.08-.01zm-10.74-66.88c-20.26 0-40.05 0-59.74 0v17.37h59.74c0-5.89 0-11.46 0-17.37zm-59.83-10.48h59.8c0-5.98 0-11.55 0-17.17-20.07 0-39.8 0-59.8 0z"/><path d="m129.38 125.98c-3.65-1.58-2.25-3.37-.72-5.45 14.44-19.67 26.5-40.68 35.05-63.56 3.47-9.29 6.22-18.85 9.48-28.82 7.72 4.06 15.3 8.05 23.72 12.49-11.56 5.88-14.56 17.19-20.37 27.96h19.24c1.17 0 2.34-.08 3.5.01 12.1 1 23.67.25 31.65-9.7 6.69 6.66 12.9 12.83 19 18.9-18.36 0-37.52 0-56.68 0-.13.39-.25.78-.38 1.17 2.71 1.57 5.48 3.04 8.13 4.72 5.8 3.67 11.41 7.54 13.37 14.74 1.81 6.68-1.7 16.78-7.52 20.27-1.09.65-4.13.09-4.71-.86-1.32-2.16-1.46-5.01-2.46-7.42-4.11-9.95-8.26-19.89-12.68-29.71-.55-1.23-2.66-2.22-4.18-2.46-6.46-1.03-10.96.58-15 6.94-10.14 15.97-23.65 29.11-38.44 40.78z"/></g></svg>