<svg enable-background="new 0 0 400 400" viewBox="0 0 400 400" xmlns="http://www.w3.org/2000/svg"><g fill="#fbfcfa"><path d="m346.9 398 5.4-7.3h-5.2v-.6h5.9v.6l-5.4 7.2h5.5l-.1.6h-6.2v-.5z"/><path d="m354.7 390.1h2.8c2.3 0 3.9 1.6 3.9 4.1s-1.6 4.3-3.9 4.3h-2.8zm.6 7.8h2c2.2 0 3.3-1.6 3.3-3.6 0-1.8-1-3.6-3.3-3.6h-2z"/><path d="m363.9 390.1v8.4h-.6v-8.4z"/><path d="m372.5 396.3c-.4 1.3-1.4 2.3-3.2 2.3-2.4 0-3.7-1.9-3.7-4.3 0-2.3 1.2-4.3 3.7-4.3 1.8 0 2.9 1 3.2 2.4h-.6c-.4-1.1-1.1-1.8-2.5-1.8-2.1 0-3 1.9-3 3.7s.9 3.7 3 3.7c1.4 0 2.1-.7 2.5-1.7z"/><path d="m373.8 398.5v-1.5h.6v1.5z"/><path d="m376.2 398.5v-8.4h1c1.3 2 4.4 6.7 4.9 7.6-.1-1.2-.1-2.4-.1-3.8v-3.8h.7v8.4h-.9c-1.2-1.9-4.4-6.8-5-7.7.1 1.1 0 2.3 0 3.9v3.9h-.6z"/><path d="m390 394.4h-4.3v3.5h4.7l-.1.6h-5.2v-8.4h5.1v.6h-4.5v3.1h4.3v.7z"/><path d="m394.2 390.7h-2.8v-.6h6.3v.6h-2.8v7.8h-.7z"/></g><path d="m339.38 30.82c6.95 7.89 13.72 15.57 21.22 24.09-47.34 0-93.68 0-140.6 0-.54 24.12-1.07 47.66-1.62 72.02h5.86c33.83 0 67.67-.05 101.5.08 3.6.01 6.29-.94 8.93-3.36 4.14-3.82 8.64-7.25 13.44-11.21 6.8 7.69 13.46 15.23 20.94 23.68-28.33 0-55.63 0-83.91 0 6.33 15.41 14 28.8 24.08 42.42 10.49-13.35 20.6-26.21 30.78-39.17 5.14 6.01 10.53 12.31 16.52 19.31-16.38 4.64-30.33 12.48-41.88 24.98 9.32 8.33 19.78 14.62 31.53 18.59 6.74 2.28 13.71 3.92 20.64 5.53 4.4 1.02 4.46.76 3.98 6.02-10.16 1.19-17.67 6.67-22.89 15.84-20.98-11.51-38.5-26.11-50.74-46.51-8.01-13.35-13.75-27.67-17.68-42.69-.85-3.25-2.26-4.26-5.47-4.08-4.78.26-9.59.07-14.65.07v73.37c11.1-3.81 22.01-7.54 33.21-11.38.51 2.08.9 3.64 1.17 4.76-8.2 5.98-16.57 11.24-23.91 17.66-7.19 6.29-13.34 13.77-20.09 20.87-4.55-6.17-9.57-12.99-14.86-20.17 6.91-6.16 7.19-14.35 7.12-22.81-.16-20.49-.05-40.98-.05-61.89-8.17 0-16.09 0-24.85 0-.65 6.72-1.11 13.75-2.03 20.72-3.28 24.76-6.6 49.64-21.53 70.73-6.6 9.33-14.44 17.8-21.84 26.56-1.1 1.3-2.89 2.01-3.35 2.31 0 24.47-.21 48.28.16 72.07.08 5.37-1 8.55-6.24 10.44-4.45 1.61-8.58 4.1-13.47 6.51 0-6.95 0-13.2 0-19.78-30.85 0-61.26 0-92.39 0 0 4.62.18 9.24-.1 13.84-.09 1.5-1.03 3.67-2.21 4.25-5.34 2.62-10.9 4.78-16.71 7.25 0-77.74 0-155 0-232.86 5.17 3.32 10.04 6.71 15.19 9.62 2.33 1.32 5.17 2.32 7.81 2.38 11.29.26 22.58.11 34.16.11 0-21.4 0-42.32 0-64-1.79 0-3.55-.06-5.3.01-15.94.67-31.87 1.4-47.81 2-1.17.04-2.71-.4-3.49-1.19-3.1-3.18-5.96-6.59-9.54-10.62 2.61-.12 4.35-.26 6.08-.26 35.5-.01 71-.05 106.5.06 3.42.01 5.97-.9 8.39-3.31 4.24-4.21 8.76-8.15 13.65-12.64 7.51 8.41 14.89 16.66 23.05 25.79-24.78 0-48.58 0-72.64 0v64.14c10.88 0 21.65.06 32.41-.1 1-.01 2.23-1.21 2.93-2.17 2.34-3.21 4.5-6.57 7.09-10.41 6.64 5.19 13.1 10.24 19.54 15.29-.41.89-.5 1.46-.83 1.74-7.04 5.77-7.65 13.42-7.54 21.92.37 29.83.14 59.66.14 89.5v5.27c.37.11.75.22 1.12.32 1.22-2.05 2.51-4.07 3.66-6.16 13.72-24.91 21.72-51.55 25.11-79.78 4.02-33.46 5.73-66.98 4.49-100.64-.38-10.28-1.02-20.55-1.58-31.79 5.58 3.17 10.46 6.2 15.58 8.76 2.42 1.21 5.27 2.16 7.93 2.17 32 .15 64 .16 96-.03 2.5-.02 5.38-1.34 7.42-2.92 4.33-3.33 8.21-7.25 12.47-11.12zm-235.03 165.33c-1.29 1.76-1.43 1.88-1.48 2.03-.94 3.18-1.85 6.36-2.79 9.54-8.88 29.9-20.73 58.28-41.97 81.85-.65.72-1.53 1.62-1.54 2.45-.12 7.91-.07 15.83-.07 23.61h92c0-58.28 0-116.19 0-174.33-12.26 0-24.19 0-36.29 0-.33 1.96-.67 3.75-.93 5.54-1.78 12.15-3.14 24.38-5.52 36.41-.94 4.76-.05 7.57 3.23 10.87 12.11 12.23 23.15 25.32 30.38 41.17 5.05 11.08 6.61 22.32.73 33.57-1.22 2.34-3.44 4.15-5.2 6.21-1.7-2.07-3.79-3.95-5-6.27-1.37-2.62-2.05-5.61-2.85-8.49-1.83-6.55-3.08-13.3-5.41-19.66-5.37-14.6-11.24-29.01-17.29-44.5zm-47.52-54.87v136.89c23.37-42.67 33.8-88.57 36.41-136.89-12.39 0-24 0-36.41 0z" fill="#010103"/><path d="m298.32 219.23c10.13 4.61 19.9 9.05 30.98 14.09-10.13 5.69-15.04 13.11-11.52 23.58 16.02 6.29 24.67-5.26 34.52-14.98 7.16 8.57 14.04 16.79 21.66 25.91-19.36 0-37.82 0-56.78 0v6.08c0 22.49.09 44.98-.04 67.47-.08 14.99-9.21 27.83-22.7 32.18-2.71-12.8-11.99-19.28-23.29-23.57-4.32-1.64-8.84-2.84-13.34-3.93-3.33-.81-4.99-2.22-3.26-6.31 9.25.86 18.63 1.74 28.01 2.62 1.82.17 3.63.46 5.46.54 7.72.34 10.32-1.17 10.48-8.99.46-21.77.16-43.55.16-65.91-2.09 0-3.87 0-5.65 0-24.82 0-49.65-.12-74.47.08-6.62.05-13.27.8-19.83 1.74-3.44.49-5.97.2-8.38-2.56-2.56-2.94-5.64-5.44-8.49-8.14.21-.36.42-.72.63-1.08h115.84c.01-13.03.01-25.58.01-38.82z" fill="#010103"/><path d="m324.71 71.52c7.67 8.16 14.91 15.86 23 24.48-2.76 0-4.34 0-5.92 0-22.32 0-44.64-.18-66.96.09-8.43.1-16.85 1.42-25.29 1.84-2 .1-4.44-.72-6.04-1.95-3.4-2.62-6.39-5.79-9.55-8.74.15-.44.31-.87.46-1.31h5.1c21.99 0 43.98-.09 65.96.09 3.67.03 6.25-.98 8.64-3.69 3.2-3.61 6.74-6.91 10.6-10.81z" fill="#010103"/><path d="m207.53 276.19c.54-.79 1.35-1.98 2.38-3.51 12.19 7.43 24.75 13.99 33.88 25.11 8.79 10.7 2.89 21.71-4.28 28.15-2.51 2.26-5.29 1.88-7.31-.93-1.04-1.45-1.81-3.14-2.46-4.82-2.97-7.71-5.25-15.76-8.94-23.11-3.61-7.21-8.63-13.71-13.27-20.89z" fill="#010103"/></svg>