<svg enable-background="new 0 0 400 400" viewBox="0 0 400 400" xmlns="http://www.w3.org/2000/svg"><g fill="#fbfcfa"><path d="m346.9 398 5.4-7.3h-5.2v-.6h5.9v.6l-5.4 7.2h5.5l-.1.6h-6.2v-.5z"/><path d="m354.7 390.1h2.8c2.3 0 3.9 1.6 3.9 4.1s-1.6 4.3-3.9 4.3h-2.8zm.6 7.8h2c2.2 0 3.3-1.6 3.3-3.6 0-1.8-1-3.6-3.3-3.6h-2z"/><path d="m363.9 390.1v8.4h-.6v-8.4z"/><path d="m372.5 396.3c-.4 1.3-1.4 2.3-3.2 2.3-2.4 0-3.7-1.9-3.7-4.3 0-2.3 1.2-4.3 3.7-4.3 1.8 0 2.9 1 3.2 2.4h-.6c-.4-1.1-1.1-1.8-2.5-1.8-2.1 0-3 1.9-3 3.7s.9 3.7 3 3.7c1.4 0 2.1-.7 2.5-1.7z"/><path d="m373.8 398.5v-1.5h.6v1.5z"/><path d="m376.2 398.5v-8.4h1c1.3 2 4.4 6.7 4.9 7.6-.1-1.2-.1-2.4-.1-3.8v-3.8h.7v8.4h-.9c-1.2-1.9-4.4-6.8-5-7.7.1 1.1 0 2.3 0 3.9v3.9h-.6z"/><path d="m390 394.4h-4.3v3.5h4.7l-.1.6h-5.2v-8.4h5.1v.6h-4.5v3.1h4.3v.7z"/><path d="m394.2 390.7h-2.8v-.6h6.3v.6h-2.8v7.8h-.7z"/></g><path d="m348.93 283.03h6.57c1.15 10.28 2.65 20.45 3.34 30.67.83 12.39 4.4 23.13 15.52 30.23-6.34 11.01-16.09 16.28-27.67 16.77-14.93.63-29.98.45-44.87-.73-12.65-1.01-19.85-10.35-19.87-23.25-.04-35.83-.02-71.65-.02-107.48 0-23.99 0-47.99 0-71.98 0-1.8 0-3.6 0-5.74-5.99 0-11.56 0-17.55 0-.41 10.45-.74 20.86-1.22 31.27-1.73 37.47-6.24 74.44-19.93 109.76-11.06 28.53-33.94 62.49-55.32 81.48-1.12-1.23-2.27-2.49-2.8-3.07 9.08-15.1 18.45-29.07 26.18-43.89 15.51-29.71 24.64-61.5 28.81-94.81 3.23-25.83 4.14-51.71 3.82-77.68-.01-.96-.16-1.93-.34-3.9-8.16.89-16.07 1.43-23.85 2.75-2.95.5-4.6-.15-6.47-2.08-2.78-2.86-5.8-5.49-8.33-9.45h38.45c0-38.17 0-75.54 0-113.58 10.53 4.56 20.96 9.08 31.38 13.59-.19.61-.19 1.03-.37 1.14-9.21 5.3-10.87 13.38-10.55 23.5.72 22.97.23 45.98.23 68.98v5.83c2.02.09 3.65.23 5.27.23 18.66.01 37.33.12 55.99-.13 2.47-.03 5.44-1.38 7.29-3.08 4.87-4.48 9.25-9.5 14.21-14.7 8.33 9.3 16.02 17.88 24.55 27.41-23.76 0-46.28 0-69.11 0-.1 2.19-.25 3.81-.25 5.42-.02 56.82-.02 113.64-.02 170.46v1.5c.13 11.36 4.82 16.48 16.21 17.03 5.12.25 10.31-.06 15.42-.57 7.98-.81 12.61-4.9 13.24-13.02 1.11-14.41 1.42-28.89 2.05-43.34.07-1.65.01-3.3.01-5.54z" fill="#010103"/><path d="m154.65 135.5c6.6 5.59 12.53 10.61 19.21 16.26-10.63 5.06-9.06 14.28-8.77 23.02.26 7.98.52 15.96 1.06 23.92.19 2.92-.89 4.12-3.52 4.94-5.18 1.62-10.25 3.55-15.96 5.57 0-3.91 0-7.19 0-10.84-16.32 0-32.2 0-48.64 0 2.04 6.98-3.15 8.1-7.9 9.65-3.91 1.28-7.8 2.65-11.64 3.96 0-18.07 0-35.79 0-53.05-15.67 12.88-31.63 25.99-47.56 39.09-3.5-2.73-3.98-4.31-1.37-6.97 21.6-22.06 41.45-45.52 57.02-72.34.67-1.15 1.38-2.28 1.99-3.46.21-.4.16-.93.43-2.88-13.87 1-27.37 1.75-40.8 3.1-3.02.3-4.92.02-6.96-2.14-2.73-2.89-5.8-5.46-8.73-8.17.13-.43.27-.85.4-1.28 1.67-.1 3.34-.27 5.01-.28 16.66-.02 33.32-.09 49.98.05 3.28.03 5.08-.77 6.26-4.1 3.75-10.6 7.87-21.07 12.21-32.54-19.87 1.5-38.33 2.89-56.82 4.29-1.42-4.02-.71-5.79 3.45-6.45 39.92-6.29 79.13-15.29 116.44-31.31.89-.38 1.85-.57 3.06-.93 4.51 7.65 8.95 15.2 13.23 22.47-7.63.66-15.13.89-22.5 2.03-10.64 1.66-21.2 3.91-31.75 6.11-1.34.28-3.08 1.53-3.54 2.75-4.63 12.22-9.02 24.53-13.68 37.37 1.96.09 3.72.24 5.48.24 17.33.02 34.66.16 51.98-.14 3-.05 6.34-1.47 8.87-3.21 4.63-3.19 8.77-7.08 13.62-11.09 6.9 7.79 13.63 15.39 21.07 23.8-22.7 0-44.26 0-65.83 0-.12.36-.24.72-.36 1.08 1.15.59 2.29 1.18 3.45 1.76 12.45 6.24 25.29 11.82 37.23 18.92 11.78 7.01 15.21 17.3 11.37 29.02-.76 2.32-2.71 5.91-4.19 5.95-2.26.06-5.18-1.98-6.77-3.98-4.76-5.97-8.24-13.12-13.6-18.4-11.59-11.42-24.01-22-36.18-32.81-.98-.87-2.73-1.22-4.13-1.24-7.83-.12-15.67-.2-23.49.07-1.62.06-3.77 1.28-4.69 2.63-3.92 5.78-7.49 11.79-11.14 17.75-2.43 3.97 1.7 12.04 6.4 12.09 13.16.15 26.33.12 39.49-.04 1.43-.02 3.09-1.08 4.2-2.13 2.51-2.4 4.78-5.08 7.61-8.11zm-8.38 20.18c-16.24 0-31.99 0-47.93 0v32.02h47.93c0-10.64 0-21.06 0-32.02z" fill="#010103"/><path d="m43.78 213.54c5.39 3.07 10.62 6.28 16.07 9.05 2.26 1.15 4.99 1.91 7.51 1.92 34.32.12 68.63.01 102.95.19 3.92.02 6.12-1.25 7.8-4.6 1.63-3.24 3.73-6.25 6-9.97 6.79 5.82 13.27 11.36 19.59 16.77-.18.63-.17.85-.27.92-8.12 6.47-8.26 15.28-8.14 24.7.37 27.65.15 55.3.12 82.96-.01 14.04-7.73 24.73-21.41 29.47-7.19-11.38-18.56-17-30.76-21.43-3.69-1.34-3.68-1.38-2.61-4.73 8 .39 15.94.93 23.89 1.07 2.75.05 5.87-.33 8.17-1.65 1.92-1.11 4.07-3.87 4.08-5.92.25-31.98.16-63.97.14-95.95 0-.48-.19-.95-.36-1.78-37.54 0-75.11 0-113.53 0v5.59c0 39.15-.06 78.29.09 117.44.01 3.71-.92 5.68-4.53 6.93-5.14 1.78-10.06 4.18-14.78 6.2-.02-52.34-.02-104.49-.02-157.18z" fill="#010103"/><path d="m141.8 246.47c6.68 4.76 13.12 9.35 19.38 13.8-.05.6.01.85-.08.92-6.74 5.6-6.33 13.21-6.15 20.9.23 9.48-.04 18.97.11 28.46.04 2.7-.6 4.21-3.39 5.1-5.02 1.62-9.88 3.7-15.43 5.83 0-3.43 0-6.31 0-9.64-12.84 0-25.19 0-38.1 0 2.51 13.3-10.26 11.21-16.84 17.35 0-27.53 0-53.82 0-80.87 5.62 3.18 10.94 6.41 16.48 9.23 2.26 1.15 4.96 1.86 7.49 1.94 7.65.25 15.32-.12 22.96.18 3.65.14 5.86-1.11 7.6-4.19 1.69-2.99 3.8-5.76 5.97-9.01zm-43.57 54.97h37.35c0-10.93 0-21.47 0-31.96-12.66 0-24.89 0-37.35 0z" fill="#010103"/><path d="m289.12 56.67c1.16-1.47 2.05-2.6 3.79-4.8 11.6 7.59 23.61 14.41 34.4 22.79 11.96 9.28 12.28 21.71 5.23 33.84-3.88 6.69-8.34 6.53-12.22-.1-1.09-1.86-2.18-3.77-2.89-5.8-6-17.18-15.36-32.31-28.31-45.93z" fill="#010103"/></svg>