<svg enable-background="new 0 0 400 400" viewBox="0 0 400 400" xmlns="http://www.w3.org/2000/svg"><g fill="#fbfcfa"><path d="m346.9 398 5.4-7.3h-5.2v-.6h5.9v.6l-5.4 7.2h5.5l-.1.6h-6.2v-.5z"/><path d="m354.7 390.1h2.8c2.3 0 3.9 1.6 3.9 4.1s-1.6 4.3-3.9 4.3h-2.8zm.6 7.8h2c2.2 0 3.3-1.6 3.3-3.6 0-1.8-1-3.6-3.3-3.6h-2z"/><path d="m363.9 390.1v8.4h-.6v-8.4z"/><path d="m372.5 396.3c-.4 1.3-1.4 2.3-3.2 2.3-2.4 0-3.7-1.9-3.7-4.3 0-2.3 1.2-4.3 3.7-4.3 1.8 0 2.9 1 3.2 2.4h-.6c-.4-1.1-1.1-1.8-2.5-1.8-2.1 0-3 1.9-3 3.7s.9 3.7 3 3.7c1.4 0 2.1-.7 2.5-1.7z"/><path d="m373.8 398.5v-1.5h.6v1.5z"/><path d="m376.2 398.5v-8.4h1c1.3 2 4.4 6.7 4.9 7.6-.1-1.2-.1-2.4-.1-3.8v-3.8h.7v8.4h-.9c-1.2-1.9-4.4-6.8-5-7.7.1 1.1 0 2.3 0 3.9v3.9h-.6z"/><path d="m390 394.4h-4.3v3.5h4.7l-.1.6h-5.2v-8.4h5.1v.6h-4.5v3.1h4.3v.7z"/><path d="m394.2 390.7h-2.8v-.6h6.3v.6h-2.8v7.8h-.7z"/></g><path d="m168.8 35.88c5.62 4.07 11.23 8.42 17.16 12.27 2.33 1.51 5.39 2.66 8.12 2.67 45.98.16 91.96.07 137.94.2 3.74.01 6.21-.85 8.12-4.2 1.96-3.44 4.52-6.53 7.1-10.17 7.61 5.7 14.98 11.23 22.6 16.94-1.06 1.14-1.68 2.22-2.62 2.76-7.79 4.43-9.13 11.16-9 19.71.5 32.31.11 64.64.22 96.96.18 52.13.46 104.25.78 156.38.05 8.48.58 16.95.73 25.43.02 1.33-.4 3.45-1.27 3.89-6.33 3.19-12.83 6.05-20.1 9.39 0-9.6 0-18.33 0-27.37-50.33 0-100.05 0-150.51 0 0 6.21-.28 12.31.1 18.37.24 3.84-1.2 5.69-4.62 6.96-4.95 1.84-9.77 4.04-14.75 6.14 0-112.19 0-224.06 0-336.33zm19.56 294.67h149.84c0-89.89 0-179.58 0-269.26-50.16 0-99.92 0-149.84 0z" fill="#010103"/><path d="m85.8 31.14c9.08 4.55 18.11 9.07 26.97 13.5 0 .71.13 1.17-.02 1.29-7.23 6.03-7.87 13.93-7.83 22.79.28 71.99.16 143.98.16 215.97v6.43h25.95c0-62.43 0-124.62 0-186.91 8 4.89 16.34 9.98 25.26 15.44-7.59 7.44-6.1 16.69-6.09 25.6.06 41.16.08 82.32.27 123.47.05 11.98.5 23.96 1.01 35.92.17 3.91-.73 6.5-4.54 8.3-4.91 2.32-9.53 5.28-14.95 8.35 0-6.9 0-13.11 0-19.86-2.24-.1-4-.26-5.76-.26-20.83-.02-41.66.17-62.49-.14-4.84-.07-8.2 1.23-10.95 5.06-1.62 2.25-3.67 4.18-5.3 5.99-5.26-5.27-10.25-10.27-15.44-15.48-.05.31-.08.05.01 0 9.23-5.08 9.79-13.33 9.73-22.82-.36-54.66-.18-109.32-.18-163.98 0-2.14 0-4.28 0-7.47 9.74 3.87 18.72 7.44 27.94 11.1-.63 1.25-.93 2.48-1.7 3.25-7.13 7.17-8.06 15.89-7.99 25.59.33 47.51.14 95 .14 142.5v6.4h25.8c0-86.63 0-173.15 0-260.03z" fill="#010103"/><path d="m254.21 327.3c.52-22.61 1.02-44.35 1.55-67.28-10.23.51-19.78.93-29.33 1.49-2.48.14-5.05.35-7.36 1.16-8.43 2.96-15.23 1.46-20.43-6.25-1.14-1.69-3.3-2.7-4.99-4.03.25-.47.51-.94.76-1.41h60.83c0-11.2 0-21.75 0-33.52-11.11.96-21.84 1.63-32.48 2.96-2.91.37-4.6-.1-6.48-2.06-2.82-2.96-5.88-5.69-8.84-8.52.21-.37.42-.74.62-1.11h37.36c-1.24-6.74-1.87-12.95-3.6-18.84-2.37-8.07-5.39-15.96-8.52-23.78-1.57-3.92-4.94-5.66-9.32-4.95-4.42.71-8.94 1.01-13.24 2.16-2.72.73-4.3.25-5.96-1.8-2.4-2.97-5.02-5.77-8.18-9.36h58.53c0-10.34 0-20.04 0-30.73-9.4.98-18.45 1.96-27.5 2.84-1.2.12-2.86.27-3.6-.39-3.89-3.52-7.56-7.29-12.21-11.87h43c0-15.49 0-30.54 0-45.9 10.22 4.45 20.76 9.03 32.03 13.94-3.79 2.97-7.11 5.19-9.9 7.93-1.45 1.42-2.65 3.75-2.78 5.74-.36 5.8-.13 11.63-.13 17.15 16.22 6.35 24.6-6.31 35.16-14.45 5.18 8.5 10.13 16.62 15.58 25.57-17.37 0-33.75 0-50.43 0v29.8c7.81 0 15.42.1 23.03-.1 1.22-.03 2.61-1.25 3.57-2.26 4.59-4.78 9.06-9.67 14.05-15.04 5.6 8.83 10.97 17.29 16.89 26.61-15.03 0-29.19 0-43.35 0-.17.39-.33.79-.5 1.18 4.33 3.62 8.67 7.23 13.63 11.38-11.14 3.94-11.62 14.47-15.55 22.75-1.74 3.68-3 7.59-4.8 12.23 4.89 0 9.01.23 13.07-.13 1.31-.12 2.78-1.58 3.68-2.8 3.71-5.06 7.23-10.26 11.16-15.9 5.78 9.65 11.2 18.69 17.03 28.41-17.71 0-34.62 0-51.87 0v32.65c8.27 0 16.39.12 24.5-.12 1.36-.04 2.91-1.42 3.98-2.54 4.47-4.68 8.79-9.5 13.57-14.72 5.65 8.92 11.03 17.41 16.94 26.76-20.04 0-39.35 0-58.78 0v57.57c-6.17 2.93-13.01 6.13-20.39 9.58zm-15.61-165.79c21.83 11.76 23.58 27.75 11.79 47.08 7.18 0 12.99-.16 18.79.07 2.95.11 4.18-1.06 4.69-3.79.79-4.24 1.88-8.42 2.69-12.66 1.93-10.07 3.77-20.15 5.73-30.7-14.46 0-28.06 0-43.69 0z" fill="#010103"/></svg>