<svg enable-background="new 0 0 400 400" viewBox="0 0 400 400" xmlns="http://www.w3.org/2000/svg"><g fill="#fbfcfa"><path d="m346.9 398 5.4-7.3h-5.2v-.6h5.9v.6l-5.4 7.2h5.5l-.1.6h-6.2v-.5z"/><path d="m354.7 390.1h2.8c2.3 0 3.9 1.6 3.9 4.1s-1.6 4.3-3.9 4.3h-2.8zm.6 7.8h2c2.2 0 3.3-1.6 3.3-3.6 0-1.8-1-3.6-3.3-3.6h-2z"/><path d="m363.9 390.1v8.4h-.6v-8.4z"/><path d="m372.5 396.3c-.4 1.3-1.4 2.3-3.2 2.3-2.4 0-3.7-1.9-3.7-4.3 0-2.3 1.2-4.3 3.7-4.3 1.8 0 2.9 1 3.2 2.4h-.6c-.4-1.1-1.1-1.8-2.5-1.8-2.1 0-3 1.9-3 3.7s.9 3.7 3 3.7c1.4 0 2.1-.7 2.5-1.7z"/><path d="m373.8 398.5v-1.5h.6v1.5z"/><path d="m376.2 398.5v-8.4h1c1.3 2 4.4 6.7 4.9 7.6-.1-1.2-.1-2.4-.1-3.8v-3.8h.7v8.4h-.9c-1.2-1.9-4.4-6.8-5-7.7.1 1.1 0 2.3 0 3.9v3.9h-.6z"/><path d="m390 394.4h-4.3v3.5h4.7l-.1.6h-5.2v-8.4h5.1v.6h-4.5v3.1h4.3v.7z"/><path d="m394.2 390.7h-2.8v-.6h6.3v.6h-2.8v7.8h-.7z"/></g><path d="m142.92 221.28c-15.41 0-30.82 0-46.63 0-.17 1.81-.33 3.56-.52 5.65-6.81 1.38-13.59 2.76-20.44 4.15 0-31.16 0-62.02 0-93.56 5.39 1.64 10.68 3.41 16.05 4.83 3.17.84 6.48 1.53 9.74 1.57 13.16.17 26.33 0 39.49.13 2.78.03 4.65-.66 6.06-3.19 5.39-9.67 10.94-19.26 16.63-29.22 6.67 3.15 14.13 6.68 21.65 10.22-10.01 7.07-19.78 13.97-29.54 20.87.12.34.25.68.37 1.02 1.56.08 3.12.24 4.67.24 45.82.01 91.65-.04 137.47.11 3.97.01 6.51-1.03 8.37-4.53 1.46-2.75 3.43-5.24 5.41-8.19 7.21 4.29 14.14 8.42 21.07 12.54-.43.75-.53 1.13-.77 1.3-8.26 5.6-9.61 13.57-9.1 22.96.91 16.77.87 33.6 1.22 50.4.03 1.31 0 2.61 0 4.15-6.85 1.84-13.55 3.64-20.78 5.59-.2-2.36-.38-4.4-.59-6.84-50.61 0-101.26 0-152.84 0 5.73 5.34 10.89 10.14 15.99 14.89-.29.54-.4 1.02-.59 1.06-19.06 3.32-35.61 13.4-53.43 20.04-22.59 8.42-45.25 16.46-68.92 21.34-.8.17-1.64.19-2.58.29-2.59-5.03 1.2-5.94 4.47-7.09 25.46-8.94 49.95-20.02 73.32-33.51 8.61-4.97 16.85-10.57 25.26-15.88-.16-.46-.33-.9-.51-1.34zm-4.8-60.66c.53-.79 1.06-1.58 1.58-2.37 19.63 4.81 39.25 9.66 58.91 14.36 1.61.39 3.67.2 5.17-.48 7.27-3.29 14.47-6.72 21.58-10.33 3.85-1.96 7.47-4.4 11.19-6.62-.15-.28-.31-.56-.46-.84-46.53 0-93.06 0-139.74 0v56.79h154.61c.19-.52.38-1.05.57-1.57-14.16-7.23-28.27-14.58-42.55-21.58-2.06-1.01-5.12-1.11-7.37-.45-23.23 6.81-46.41 13.81-69.56 20.91-3.13.96-4.71.73-4.63-2.58 20.2-8.23 40.13-16.34 61.22-24.93-2.64-1.1-3.82-1.67-5.05-2.1-13.76-4.9-27.55-9.72-41.27-14.74-1.6-.61-2.81-2.3-4.2-3.47zm126.85 6.32c-16.42 2.19-30.49 6.93-45.12 13.66 2.81.63 4.44.92 6.03 1.37 10.03 2.83 20.22 5.23 30.03 8.68 7.54 2.65 8.96 7.25 6.03 14.73-.74 1.9-1.67 3.73-2.63 5.85h43.26c0-19.24 0-38.12 0-56.9-19.65 0-38.88 0-59.56 0 7.72 4.43 14.24 8.17 21.96 12.61z" fill="#010103"/><path d="m371.02 349.83v3.48c-.33.2-.69.57-1.12.67-8.82 1.97-18.38 3.71-23.83 11.25-4.87 6.75-9.83 7.1-17.09 6.04-41.35-6.02-82.12-14.07-120.75-30.74-1.71-.74-4.26-.72-5.99-.02-35.95 14.53-73.31 23.38-111.76 27.64-19.15 2.12-38.38 3.45-57.91 5.17-.76-2.45-1.28-4.1-1.85-5.93 53.9-6.87 107.03-14.92 156.43-37.5-15.16-14.07-30.18-28.02-45.33-42.08-12.04 6.34-24.74 13.59-37.92 19.8-13.21 6.22-26.92 11.36-40.37 17.06-2.91 1.23-5.09 1.33-5.89-2.46 9.98-5.61 20.15-10.88 29.88-16.87 27.46-16.9 53.63-35.43 74-61 .75-.94 3.27-1.43 4.42-.92 7.74 3.43 15.33 7.19 23.44 11.06-7.21 3.81-14.06 7.43-20.92 11.05.11.43.21.87.32 1.3h5.25c28.5 0 57-.15 85.49.14 5.1.05 8.93-1.28 12.36-4.81 2.31-2.38 4.91-4.49 7.7-7.01 7.56 7.08 15.03 14.08 21.98 20.59-26 17.97-51.79 35.8-77.92 53.86 23.49 7.18 47.6 13.03 72.2 15.6 24.76 2.57 49.73 3.14 75.18 4.63zm-220.46-69.89c2.04 2.46 2.88 3.66 3.9 4.68 14.12 14.11 30.23 25.48 48 34.46 1.64.83 4.69.61 6.23-.41 13.56-9 27.05-18.11 40.28-27.59 5.57-3.99 10.44-8.96 16.63-14.35-3.08-.15-4.68-.31-6.29-.31-31.8-.01-63.6-.13-95.4.13-4.14.04-8.26 2.04-13.35 3.39z" fill="#010103"/><path d="m81.39 117.54c-6.71-5.76-13.13-11.26-20.33-17.44 9.36-3.17 7.49-10.58 7.52-17.25.04-11.27.01-22.54.01-34.15 9.89 2.88 20.78 6.04 31.95 9.29-.56.71-.77 1.25-1.13 1.38-8.4 3.06-10.35 9.24-9.48 17.59.71 6.76.18 13.65.22 20.48 0 .3.19.61.39 1.23h99.85c0-22.78 0-45.63 0-69 10.03 3.65 19.9 7.25 30.14 10.98-.77 1.08-1.02 1.75-1.51 2.08-7.39 4.95-8.51 12.04-8.1 20.36.58 11.76.15 23.57.15 35.64h97.34c0-16.15 0-32.21 0-48.64 9.45 3.6 18.98 7.24 29.89 11.4-9.64 3.67-9.76 10.64-9.29 18.11.57 9.13.5 18.3 1.12 27.42.26 3.79-.81 5.75-4.43 6.97-5.46 1.83-10.76 4.12-16.64 6.42 0-3.93 0-7.22 0-11.34-2.41 0-4.49 0-6.57 0-67.99 0-135.99.05-203.98-.1-4.99-.01-9.09.8-12.43 4.67-1.17 1.35-2.78 2.33-4.69 3.9z" fill="#010103"/><path d="m229.26 225.35c1.67-.55 3.52-1.87 4.99-1.53 29.34 6.89 58.68 13.81 87.9 21.19 5.15 1.3 10.19 4.13 14.53 7.29 7.05 5.13 10.73 16.7 8.61 23.56-1.04 3.37-3.2 4.68-6.39 3.64-3.13-1.02-6.43-2.08-9.08-3.94-26.48-18.59-56.25-30.45-85.93-42.53-4.73-1.92-9.46-3.86-14.18-5.79-.15-.62-.3-1.26-.45-1.89z" fill="#010103"/></svg>