<svg enable-background="new 0 0 400 400" viewBox="0 0 400 400" xmlns="http://www.w3.org/2000/svg"><g fill="#010100"><path d="m242.74 362.89c-6.31-6.84-11.92-12.92-18.19-19.72 10.96-4.89 9.31-14.3 9.3-23.26-.05-72.33.05-144.66-.09-216.99-.03-15.95-.86-31.89-1.34-48.53 6.1 3.6 11.92 7.23 17.95 10.48 2.21 1.19 4.92 2.03 7.41 2.04 21 .16 42 .21 62.99-.06 2.8-.04 5.99-1.51 8.26-3.28 4.7-3.67 8.91-7.98 13.66-12.35 7.92 8.34 15.66 16.51 24.27 25.58-38.78 0-76.54 0-114.54 0v69.92c1.74.1 3.34.26 4.94.26 20.67.02 41.33-.06 62 .08 3.38.02 5.5-.7 6.94-4.05 1.69-3.91 4.07-7.52 6.36-11.62 7.13 5.22 13.93 10.2 20.62 15.1-.1.64-.04 1.12-.22 1.24-7.47 5.03-7.97 12.36-7.8 20.56.42 20.32.04 40.66.19 60.99.06 7.79.67 15.58 1.07 24.03-6.08 2.18-12.55 4.5-19.58 7.03 0-4.6 0-8.54 0-12.83-24.96 0-49.52 0-74.43 0v93.12c1.6.1 3.04.27 4.49.27 23.83.02 47.66.1 71.49-.12 2.5-.02 5.4-1.32 7.4-2.91 4.78-3.81 9.14-8.16 14.15-12.73 7.54 8.51 14.84 16.75 22.9 25.84-2.93 0-4.69 0-6.46 0-35.33 0-70.66.1-105.99-.11-4.87-.03-8.68.91-11.66 4.86-1.78 2.39-3.85 4.55-6.09 7.16zm9.7-205.58v79.87h74.2c0-26.82 0-53.23 0-79.87-24.73 0-49.15 0-74.2 0z"/><path d="m119.67 262.81c0-9.44 0-17.88 0-26.91-12.03.55-23.79 1.09-35.54 1.62-6.48.29-12.96.63-19.44.84-4.58.15-3.5-3.28-3.93-6.34 37.45-4.25 75.06-6.84 108.98-25.79 5.29 7.93 10.72 16.07 16.59 24.89-14.9-5.28-28.32 1.99-42.23 2.44-1.64.05-3.26.54-5.29.89v27.81c1.46.1 3.05.31 4.63.31 13.5.03 27 .17 40.5-.12 2.51-.05 5.39-1.36 7.4-2.97 4.91-3.94 9.4-8.39 14.42-12.96 6.51 8.34 12.83 16.43 19.75 25.29-26.31 0-51.81 0-78.39 0 2.13 3.35 3.59 5.87 5.25 8.26 14.87 21.35 32.58 39.57 56.45 50.94 2.7 1.29 5.53 2.31 8.19 3.66.83.42 1.79 1.49 1.83 2.3.03.75-.97 2.11-1.71 2.26-8.64 1.8-14.86 7.08-20.18 14.28-27.6-20.71-46-47.54-58.22-79.35-.11 1.35-.3 2.7-.31 4.05-.02 16.83-.2 33.67.05 50.5.16 10.47.87 20.93 1.56 31.38.25 3.79-.48 6.08-4.62 7.3-5.36 1.58-10.46 4.05-16.03 6.28 0-28.83 0-57.13 0-86.4-23.71 32.4-53.81 55.99-89.23 73.38-2.03-3.33-1.73-5.27 1.22-7.45 25.74-19.05 48.7-40.86 66.33-67.85 2.36-3.62 4.48-7.4 6.69-11.12.24-.4.3-.9.59-1.83-1.57-.12-2.96-.34-4.34-.32-17.78.26-35.65-1.16-53.28 2.47-.91.19-2.26-.33-2.98-.99-3.44-3.09-6.73-6.35-10.07-9.55.16-.4.33-.8.49-1.21 28.14.01 56.29.01 84.87.01z"/><path d="m183.06 212.24c-.16-3.53-.3-6.46-.45-9.72-34.48 0-68.71 0-103.28 0-.17 1.6-.33 3.19-.57 5.45-5.65 1.35-11.52 2.74-17.53 4.17 0-39.35 0-78.33 0-117.71.98.52 1.93.83 2.63 1.43 8.07 6.96 17.46 8.1 27.83 7.9 27.65-.53 55.32-.31 82.97-.06 4.79.04 8.27-1.19 11.24-4.83 2.4-2.94 5.15-5.61 7.94-8.61 6.57 6.06 12.51 11.55 18.65 17.22-1.23.95-2.05 1.88-3.07 2.3-8.03 3.33-9.96 9.21-9.63 17.72.81 20.96.5 41.97.63 62.96.03 4.92 2.03 11.85-.43 14.32-3.96 3.98-10.87 5.02-16.93 7.46zm-.46-98.73c-34.79 0-69.01 0-103.34 0v78.63h103.34c0-26.38 0-52.31 0-78.63z"/><path d="m137.27 71.59c10.27 0 19.61-.69 28.81.16 13.87 1.29 25.95-.98 34.75-12.84.38-.51 1-.84 2.1-1.74 7.29 7.68 14.54 15.34 22.75 24-2.86 0-4.71 0-6.57 0-47.8 0-95.6-.11-143.4.1-8.43.04-16.85 1.51-25.29 2.03-1.84.11-4.15-.48-5.54-1.61-3.3-2.69-6.19-5.89-10.29-9.91h92.63c-3.02-15.97-10.76-28.76-20.76-42.13 2.31-.26 4.35-1.16 5.52-.51 8.83 4.95 17.78 9.79 26.13 15.48 8.25 5.62 8.9 10.94 3.8 19.64-1.27 2.14-2.66 4.19-4.64 7.33z"/><path d="m98.99 121.86c.09.02.49.01.72.2 13.88 11.26 30.35 7.15 46.01 7.64 1.26.04 2.83-1.42 3.81-2.56 2.36-2.75 4.45-5.73 6.8-8.82 6.15 5.17 11.98 10.08 19.01 16-1.29.59-2.18 1.03-3.11 1.43-6.76 2.88-7.82 8.26-7.35 14.96.54 7.76.13 15.58.13 24.25-4.42 1.48-9.96 3.33-15.78 5.28-.14-2.47-.26-4.44-.39-6.79-11.07 0-22.09 0-33.75 0 2.04 6.99-2.39 7.84-7.46 8.26-2.95.25-5.87.9-8.63 1.34-.01-20.47-.01-40.78-.01-61.19zm49.77 40.9c0-7.93 0-15.36 0-22.92-11.26 0-22.27 0-33.3 0v22.92z"/></g><path d="m378.6 9.2.8-1c.9.7 1.9 1.4 2.9 2.3l-.9 1.1c-1.1-.9-2-1.7-2.8-2.4zm.5 10.7c.9-2.1 1.6-4.3 2.3-6.7.4.2.8.4 1.3.6-.7 2.1-1.5 4.3-2.2 6.6zm.4-15.2.9-.9c1 .8 2 1.6 2.8 2.4l-1 1c-1-.9-1.9-1.8-2.7-2.5zm12.5-1.3h1.2v1.4h2.7v1.1h-2.7v2.7h-1.2v-.5h-1.8v1.3h4.9v3.8h-1.2v-.5h-3.7c0 .4-.1.9-.1 1.2h5.1v1h-5.2c0 .5-.1.9-.2 1.2h6v1h-5.2c1.1 1.3 2.9 2 5.5 2.2-.4.4-.7.8-.9 1.3-2.9-.5-4.8-1.6-5.7-3.5h-.1c-.8 1.7-2.7 2.9-5.9 3.6-.2-.4-.6-.8-.9-1.1 2.8-.6 4.6-1.4 5.4-2.5h-4.8v-1h5.3c.1-.3.2-.7.2-1.2h-4.9v-1h5c0-.4 0-.8.1-1.2h-3.6v.5h-1.2v-3.8h4.9v-1.3h-1.8v.5h-1.2v-2.7h-2.6v-1.1h2.6v-1.4h1.2v1.4h4.7v-1.4zm-6.7 8.4h3.6c0-.4 0-.9 0-1.4h-3.6zm1.9-4.7h4.7v-1.2h-4.7zm6.7 3.3h-3.7v1.4h3.7z" fill="#fbfafc"/><path d="m384.7 21.4h1.3v2.2h2.8v-2.2h1.3v2.2h4.1v9.1h1.7v1.3h-16.9v-1.3h1.7v-9.1h4.1v-2.2zm.3 13.2.7 1.2c-1.8.9-3.8 1.9-6 2.9-.2-.4-.5-.8-.8-1.3 2.4-1 4.4-2 6.1-2.8zm-3.1-6.5h2.8v-3.2h-2.8zm0 4.6h2.8v-3.3h-2.8zm4.1-4.6h2.8v-3.2h-2.8zm0 4.6h2.8v-3.3h-2.8zm3.6 1.9c2.1.9 4.1 1.8 6.1 2.7l-.7 1.3c-2.2-1.1-4.2-2-6.1-2.9zm3.3-9.7h-2.8v3.2h2.8zm-2.8 7.8h2.8v-3.3h-2.8z" fill="#fbfafc"/></svg>