<svg enable-background="new 0 0 400 400" viewBox="0 0 400 400" xmlns="http://www.w3.org/2000/svg"><path d="m177.28 336.88c11.29.61 22.22 1.35 33.16 1.73 4.62.16 9.3-.25 13.91-.74 4.96-.53 8.25-3.72 8.31-8.52.26-21.8.11-43.61.11-66.17-9.76 0-19.2-.33-28.6.1-8.1.38-16.16 1.71-24.25 2.43-1.46.13-3.4-.2-4.44-1.1-3.49-3.01-6.69-6.37-10.99-10.56h67.92c0-16.43 0-32.32 0-48.54-1-.14-2.1-.42-3.19-.42-17.5 0-35-.12-52.49.16-6.11.1-12.28.82-18.28 1.99-3.8.74-6.33-.09-8.52-3.01-1.59-2.12-3.27-4.18-4.91-6.27-.53.31-1.05.62-1.58.92-.08 1.54-.24 3.07-.24 4.61.06 18.16.16 36.32.22 54.48.04 14.39-6.08 24.91-19.49 30.79-.44.19-.96.19-1.22.23-1.8-4.01-2.77-8.61-5.5-11.62-3.21-3.54-7.74-6.11-12.09-8.3-2.88-1.45-4.39-2.62-2.86-6.06 4.38 0 8.84.01 13.31 0 6.58-.02 8.95-2.16 9.3-8.87.21-4.15-.01-8.33-.01-12.49 0-39.83 0-79.66 0-119.49 0-1.79 0-3.57 0-5.66-9.12 0-17.67 0-26.76 0v5.64c.04 70.33.04 140.65.15 210.98.01 8.64.72 17.29.93 25.93.04 1.44-.37 3.68-1.34 4.24-6.28 3.67-12.77 6.99-19.48 10.57 2.82-86.02.83-171.43 1.64-257.26-8.53 0-16.6 0-25.56 0v6.12c0 50-.05 99.99.1 149.99.01 4.15-1.23 6.27-5.1 7.74-5.38 2.05-10.49 4.78-15.63 7.18 0-63.77 0-127.08 0-191.2 14.07 7.91 28.93 13.01 45.15 9.46 0-25.1 0-50.31 0-76.16 9.81 3.99 19.95 8.11 30.44 12.38-1.11 1.25-1.73 2.3-2.64 2.93-7.64 5.3-9.34 12.58-8.84 21.57.73 13.08.19 26.24.19 39.96 7.59 0 14.72.14 21.84-.13 1.26-.05 2.77-1.6 3.62-2.84 2.83-4.09 5.4-8.34 8.38-13.01 7.57 6.13 14.88 12.05 22.81 18.47-3.07 2.75-6.11 5.2-8.8 7.99-1.26 1.3-2.61 3.24-2.62 4.9-.14 23.83-.06 47.66-.02 71.49 0 .3.2.6.43 1.24h88.84c0-15.73 0-31.32 0-47.24-1.11-.14-2.21-.45-3.3-.4-15.44.67-30.87 1.46-46.32 1.99-1.86.06-4.17-.79-5.56-2.02-3.08-2.72-5.7-5.95-8.62-9.09-6.77 6.18-12.88 11.77-18.94 17.29-4.53-3.24-4.19-6.06-.97-9.98 27.79-33.68 48.21-71.61 64.09-112.12.6-1.52 1.32-2.99 2.26-5.08 9.32 7.01 18.33 13.78 27.54 20.71-.84.73-1.06 1.09-1.3 1.1-7.31.47-12.48 3.55-15.87 10.51-3.3 6.63-7.82 12.65-12.22 19.65h17.01c12.67 0 25.33.12 37.99-.13 1.95-.04 4.32-1.31 5.71-2.76 3.32-3.47 6.17-7.38 8.93-10.77 6.93 6.93 13.73 13.74 20.36 20.37-20.39 12.65-35.1 31.71-52.27 49.82 2.48.19 3.87.38 5.25.38 16.17.02 32.33-.08 48.5.09 3.43.04 6.02-.74 8.3-3.38 3.27-3.77 6.83-7.27 9.84-10.44 6.47 6.44 12.51 12.45 18.71 18.63.07-.07-.28.58-.81.83-8.53 4.03-10.65 10.75-9.92 19.84.84 10.57.2 21.26.2 32.35 11.48 1.23 12.13-10.74 19.75-14.59 5.56 7.69 11.4 15.77 17.8 24.62-12.88 0-24.78 0-37.48 0 0 9.67-.14 18.92.04 28.16.2 10.65.76 21.28.95 31.93.02 1.28-.96 3.29-2.02 3.76-6.04 2.68-12.24 4.99-19.09 7.71 0-4.6 0-8.64 0-12.95-19.68 0-38.77 0-58.71 0v5.8c0 21.5.07 43-.02 64.5-.08 17.63-11.74 33.33-28.51 38.27-7.45-22.46-27.69-23.44-46.6-27.28-.01-2.34-.01-4.78-.01-7.88zm-7.27-199.95c24.51 0 47.97.08 71.42-.16 1.69-.02 3.96-2.04 4.93-3.72 7.47-12.94 14.7-26.03 21.98-39.09.61-1.09 1.05-2.26 1.8-3.88-20.56 0-40.5-.05-60.44.11-1.27.01-2.86 1.32-3.73 2.46-5.33 7-10.24 14.34-15.78 21.16-6.24 7.67-13 14.93-20.18 23.12zm82.76 68.27v48.21h57.83c0-16.31 0-32.21 0-48.21-19.37 0-38.34 0-57.83 0zm57.89-10.42c0-16.08 0-31.78 0-47.58-19.43 0-38.53 0-57.94 0v47.58z" fill="#010102"/><g fill="#fbfcfa"><path d="m374.8 390.4.4-.4c.7.5 1.3 1 1.8 1.4l-.5.5c-.5-.6-1.1-1.1-1.7-1.5zm1 7.3-.6-.3c.5-1.4 1.1-2.8 1.5-4.3.2.1.4.2.6.3-.5 1.3-1 2.8-1.5 4.3zm-.4-10.3.4-.4c.4.3 1 .8 1.7 1.4l-.5.5c-.4-.5-1-1-1.6-1.5zm2.5.3h1.7v-1h.6v1h3.5v-1h.6v1h1.8v.5h-1.8v1.4h-2v1h3.2v2h-3.2v.9h3.3v.5h-3.4c0 .3-.1.6-.1.9h4v.5h-3.7c.7.9 1.9 1.5 3.8 1.7-.1.2-.2.4-.3.6-2.1-.4-3.5-1.1-4-2.1-.4 1-1.8 1.7-4 2.2-.1-.2-.2-.4-.3-.6 2.1-.4 3.4-1 3.8-1.8h-3.4v-.5h3.6c.1-.3.1-.6.2-.9h-3.3v-.5h3.4c0-.3 0-.6 0-.9h-3.2v-2h3.3v-1h-2.1v-1.4h-1.7v-.5zm1.1 3.5v1h2.7c0-.3 0-.4 0-.4 0-.1 0-.2 0-.2 0-.1 0-.2 0-.3h-2.7zm1.2-3v.9h3.5v-.9zm4.7 3h-2.6v.6.4h2.6z"/><path d="m393.6 386.7h.6v1.5h2.7v6.1h1.1v.6h-11v-.6h1.1v-6.1h2.7v-1.5h.6v1.5h2.1v-1.5zm-2.7 8.8.4.6c-1.2.6-2.5 1.3-3.8 1.9-.1-.2-.2-.4-.3-.6 1.2-.6 2.5-1.2 3.7-1.9zm-2.2-6.7v2.4h2.1v-2.4zm0 3v2.5h2.1v-2.5zm2.8-3v2.4h2.1v-2.4zm0 3v2.5h2.1v-2.5zm6 6.1c-1.4-.7-2.7-1.3-3.9-1.8l.3-.6c1.5.6 2.7 1.2 3.9 1.7zm-1.2-9.1h-2.1v2.4h2.1zm-2.1 3v2.5h2.1v-2.5z"/></g></svg>