<svg enable-background="new 0 0 400 400" viewBox="0 0 400 400" xmlns="http://www.w3.org/2000/svg"><path d="m361.2 9.6.8-1c.9.7 1.9 1.4 2.9 2.3l-.9 1.1c-1-1-2-1.8-2.8-2.4zm.5 10.6c.9-2.1 1.6-4.3 2.3-6.7.4.2.8.4 1.3.6-.7 2.1-1.5 4.3-2.2 6.6zm.4-15.2.9-.9c1 .8 2 1.6 2.8 2.4l-1 1c-.9-.9-1.8-1.7-2.7-2.5zm12.5-1.2h1.2v1.4h2.7v1.1h-2.7v2.7h-1.2v-.6h-1.8v1.3h4.9v3.8h-1.2v-.5h-3.7c0 .4-.1.9-.1 1.2h5.1v1h-5.2c0 .5-.1.9-.2 1.2h6v1h-5.2c1.1 1.3 2.9 2 5.5 2.2-.4.4-.7.8-.9 1.3-2.9-.5-4.8-1.6-5.7-3.5h-.1c-.8 1.7-2.7 2.9-5.9 3.6-.2-.4-.6-.8-.9-1.1 2.8-.6 4.6-1.4 5.4-2.5h-4.8v-1h5.3c.1-.3.2-.7.2-1.2h-4.9v-1h5c0-.4 0-.8.1-1.2h-3.5v.5h-1.2v-3.8h4.9v-1.3h-1.8v.5h-1.2v-2.7h-2.7v-1h2.6v-1.4h1.2v1.4h4.7v-1.4zm-6.6 8.3h3.6c0-.4 0-.9 0-1.4h-3.6zm1.9-4.6h4.7v-1.3h-4.7zm6.6 3.2h-3.7v1.4h3.7z" fill="#fafbfa"/><path d="m385.3 3.8h1.3v2.2h2.8v-2.2h1.3v2.2h4.1v9.1h1.7v1.3h-16.9v-1.3h1.7v-9.1h4.1v-2.2zm.4 13.1.7 1.2c-1.8.9-3.8 1.9-6 2.9-.2-.4-.5-.8-.8-1.3 2.3-1 4.3-1.9 6.1-2.8zm-3.1-6.4h2.8v-3.2h-2.8zm0 4.6h2.8v-3.3h-2.8zm4-4.6h2.8v-3.2h-2.8zm0 4.6h2.8v-3.3h-2.8zm3.7 1.9c2.1.9 4.1 1.8 6.1 2.7l-.7 1.3c-2.2-1.1-4.2-2-6.1-2.9zm3.2-9.7h-2.8v3.2h2.8zm-2.8 7.8h2.8v-3.3h-2.8z" fill="#fafbfa"/><g fill="#010000"><path d="m138.47 155.19c.69-1.33 1.51-2.91 2.67-5.15 11.55 4.17 22.97 8.13 34.27 12.41 7.92 3 15.65 6.52 23.55 9.57 1.41.55 3.97.62 4.82-.24 10.85-11.01 21.49-22.22 32.16-33.41.29-.31.34-.85.66-1.7-1.84-.1-3.44-.25-5.05-.25-30.66-.01-61.32-.09-91.98.08-4.26.02-8.61.87-12.75 1.98-3.44.92-6.19.79-8.44-2.1-5.93-7.63-11.96-8.11-21.07-3.73-19.89 9.55-40.71 17.1-62.39 21.86-1.42.31-2.87.51-4.58.81-.53-1.67-.97-3.06-1.58-4.98 67.22-25.06 124.03-64.13 166.5-123.44 3.52 2.45 7.43 5.16 11.33 7.9 3.92 2.76 7.82 5.55 12.21 8.67-3.92 1.57-7.22 2.89-11.17 4.47 45.89 46.57 102.6 65.9 165.83 70.24 1.43 3.74.37 5.47-3.71 6.5-8.99 2.27-16.51 6.83-21.23 15.32-.66 1.18-3.33 2.18-4.75 1.86-55.48-12.7-103.23-38.16-138.38-84.27-.58-.77-1.26-1.46-2.12-2.45-27.76 26.88-56.08 52.77-90.25 71.5h86.04c-2.47-15.51-8.65-29.28-17.91-43.4 2.75 0 4.98-.7 6.17.11 8.08 5.51 16.42 10.8 23.75 17.21 8.51 7.44 8.26 14.96.65 23.4-.63.7-1.25 1.42-2.59 2.95 12.98 0 25.04.05 37.09-.09 1.09-.01 2.27-1.2 3.23-2.04 4.47-3.95 8.89-7.98 13.7-12.32 7.26 7.7 14.37 15.23 22.51 23.86-15.88 0-30.36 0-44.84 0-.1.39-.21.77-.31 1.16 6.91 5.25 13.81 10.5 20.75 15.78-.45.51-.65.93-.83.92-9.62-.54-15.83 5.65-22.42 11.19-6.49 5.45-13.11 10.75-20.17 16.52 6.45 3.25 12.66 5.94 18.42 9.38 6.4 3.83 12.79 7.87 18.45 12.67 6.74 5.72 7.34 13.17 2.86 20.67-3.71 6.22-8.51 7.05-13.11 1.33-10.34-12.85-23.77-21.67-37.42-30.36-2.66-1.69-4.4-1.59-7.09 0-23.88 14.06-49.78 23.43-76.18 32.7-.37-1.39-.67-2.42-.92-3.47-.23-.96-.39-1.94-.65-3.27 23.21-10.76 46.07-22.17 67.39-38.41-17.41-9.53-34.17-18.68-51.12-27.94z"/><path d="m188.38 278.22c-32.93 0-65.57 0-98.97 0v5.96c0 19.33-.09 38.66.08 57.98.03 3.38-.93 5-4.22 6.04-5.99 1.88-11.81 4.29-17.82 6.52 0-31.8 0-63.13 0-94.8 5.04 1.71 9.95 3.77 15.05 5.02 5.72 1.4 11.61 2.87 17.44 2.94 27.65.3 55.31.14 82.97.14h6.21c-.34-7.63-.67-14.85-1.03-22.84 10.15 3.21 19.96 6.32 29.99 9.49-2.02 5.27-10.28 5.81-8.73 13.35h5.46c30.16 0 60.32-.13 90.47.13 4.8.04 7.8-1.24 9.9-5.47 1.24-2.48 3.07-4.67 4.91-7.4 7.17 5.24 13.96 10.21 20.64 15.1-.13.64-.08 1.12-.27 1.25-7.14 4.98-7.99 12.05-7.6 20.1.54 11.14.2 22.32.19 33.48-.01 17.14-9.9 29.65-26.91 33.83-7.27-15.55-22.51-17.34-36.74-20.88-2.25-.56-4.57-.94-6.88-1.06-4.87-.26-5.83-2.76-4.21-7.5 6.52.41 13.1 1.01 19.7 1.19 8.32.24 16.66.29 24.99.13 5.96-.11 9.72-3.45 9.81-9.15.23-14.31.08-28.62.08-43.31-34.49 0-68.72 0-103.5 0-.1 1.21-.31 2.63-.31 4.04.09 19.16.16 38.31.36 57.47.07 6.81.38 13.63.78 20.44.16 2.73-.65 4.18-3.3 5.22-6.15 2.42-12.15 5.22-18.54 8.01 0-32.03 0-63.51 0-95.42z"/><path d="m81 155.27c9.15 4.36 18.66 8.89 28.01 13.34-.11.77-.07 1.01-.16 1.06-8.09 5.41-8.01 13.52-7.77 22.02.36 13.12.1 26.26.1 39.76h195.18c0-25.78 0-51.49 0-77.82 10.82 4.01 21.62 8.01 33.31 12.33-3.66 3.32-7 5.93-9.77 9.04-1.47 1.65-2.78 4.18-2.77 6.31.14 20.14.5 40.29 1.03 60.42.09 3.37-.94 5.07-3.93 6.49-5.65 2.67-11.09 5.8-17.22 9.06 0-5.54 0-10.31 0-15.61-2.1-.1-3.86-.26-5.63-.26-61.32-.01-122.64-.05-183.96.12-2.67.01-5.59 1.51-7.93 3.02-2.9 1.87-5.32 4.48-8.28 7.05-7.04-5.15-13.97-10.21-22.38-16.36 1.57-.69 2.54-.99 3.38-1.5 7.47-4.51 9.34-11 9.02-19.66-.73-19.43-.23-38.91-.23-58.81z"/><path d="m245.44 168.45c11.67 5.59 23.71 10.76 35.13 17.05 8.06 4.44 8.73 15.4 2.39 22.26-2.94 3.18-5.74 2.89-9.01-1.37-3.14-4.08-5.52-8.82-9.01-12.54-5.9-6.29-12.37-12.06-18.68-17.96-1.88-1.74-4.04-3.18-.82-7.44z"/><path d="m115.22 164.47c1.14-3.38 3.03-4.29 6.48-2.92 9.66 3.84 19.71 6.82 29.08 11.25 7.75 3.66 9.18 10.49 5.28 18-3.69 7.11-8.3 7.18-13.12.81-4.66-6.16-9.67-12.14-15.12-17.61-3.68-3.72-8.39-6.41-12.6-9.53z"/></g></svg>