<svg enable-background="new 0 0 400 400" viewBox="0 0 400 400" xmlns="http://www.w3.org/2000/svg"><g fill="#010105"><path d="m337.97 124.09c7.76 6.3 15.1 12.25 22.69 18.41-1.38 1.19-2.34 2.46-3.61 3.06-6.79 3.22-8.28 8.47-8.05 15.74.61 19.81.2 39.65.46 59.47.21 16.3.84 32.6 1.14 48.91.02 1.17-.74 2.91-1.68 3.44-6.04 3.43-12.22 6.6-19.27 10.34 0-5.12 0-9.47 0-14.04-44.15 0-87.57 0-130.91 0-.26.42-.61.73-.57.95 1.7 8.02-2.77 11.17-9.67 12.92-3.8.96-7.36 2.83-11.22 4.36 0-48.34 0-96.17 0-143.96-10.22 9.25-20.58 18.63-30.89 27.97-4.23-4.15-2.68-6.75.03-9.91 32.99-38.61 59.54-81.21 78.92-128.21.69-1.68 1.26-3.42 2.04-5.58 10.59 6.92 21.04 13.74 31.55 20.6-.65.76-.84 1.19-1.05 1.2-8.67.32-14.7 4.39-19.12 11.96-3.58 6.13-8.32 11.57-12.99 17.91 1.95.15 3.33.35 4.72.35 16 .02 32-.08 47.99.1 3.19.04 5.28-.89 7.12-3.42 2.63-3.62 5.56-7.04 8.64-10.89 8.96 7.09 17.73 14.02 27.27 21.57-25.78 9.03-37.07 31.92-54.25 50.95 2.84.15 4.33.29 5.82.29 16.16.02 32.33-.06 48.49.07 3.26.03 5.64-.67 7.6-3.5 2.54-3.68 5.55-7.03 8.8-11.06zm-54.45-34.02c-21.58 0-41.54-.02-61.5.06-1.15.01-2.7.61-3.38 1.47-9.83 12.54-19.55 25.16-29.28 37.74 6.21 6.2 12.69 10.08 22.04 9.47 13.42-.87 26.95-.5 40.42-.09 5.5.17 8.75-1.26 11.15-6.47 6.39-13.82 13.31-27.39 20.55-42.18zm-11.08 118.27v50.92h56.77c0-17.18 0-34.04 0-50.92-19.14 0-37.88 0-56.77 0zm-74.23-.07v50.89h55.27c0-17.18 0-33.94 0-50.89-18.47 0-36.59 0-55.27 0zm74.24-59.84v49.27h56.81c0-16.54 0-32.79 0-49.27-19.09 0-37.83 0-56.81 0zm-74.15-.04v49.35h55.08c0-16.6 0-32.94 0-49.35-18.53 0-36.63 0-55.08 0z"/><path d="m126.67 127.99c0-23.13 0-45.56 0-68.58-2.05 0-3.84 0-5.63 0-13.83 0-27.68-.4-41.49.14-9.74.38-19.48 1.73-29.13 3.24-3.89.61-6.53.37-8.94-3.02-2.29-3.2-5.22-5.93-8.59-9.67 2.67-.12 4.39-.27 6.11-.27 27.16-.01 54.33-.07 81.49.06 3.35.02 5.53-.84 7.29-3.79 2.7-4.55 5.82-8.85 9.11-13.77 7.63 6.18 15.06 12.18 22.77 18.42-1.01 1.18-1.6 2.22-2.49 2.84-7.73 5.4-9.66 12.72-9.18 21.95.75 14.63.1 29.32.25 43.99.06 6.14.76 12.28.92 18.43.04 1.37-.54 3.5-1.52 4.04-6.53 3.56-13.25 6.79-20.51 10.42 0-4.99 0-9.24 0-13.92-18.76 0-37.13 0-56.04 0-2.88 23.46-5.76 46.98-8.73 71.18 1.91.09 3.62.24 5.34.24 17 .02 34-.09 51 .09 3.65.04 6.24-.83 8.53-3.77 2.84-3.65 6.18-6.9 9.65-10.71 6.64 7.09 13.09 13.97 19.58 20.9-.5.56-.78 1.17-1.16 1.25-9.96 2.16-10.46 9.81-11.29 18.02-2.9 28.91-6.16 57.78-14.92 85.69-7.47 23.78-22.63 40.68-45.28 50.94-.73.33-1.49.58-2.1.81-.44-.42-.87-.64-.87-.86 0-13.57-7.39-21.92-19.2-27.08-5.94-2.59-11.88-5.23-17.98-7.37-3.84-1.35-4.83-3.06-2.42-6.47 11.05 2 22.07 4.24 33.18 5.9 5.22.78 10.98 1.7 15.82.28 4.32-1.27 8.6-5.03 11.37-8.82 6.78-9.29 9.85-20.35 11.64-31.54 4.08-25.39 7.69-50.86 11.63-77.19-2.92 0-4.68 0-6.44 0-18 0-36 .14-53.99-.1-4.67-.06-8.39.77-11.26 4.67-1.77 2.4-3.95 4.5-6.23 7.05-5.99-7.46-11.46-14.29-16.89-21.06.22-.46.33-.98.51-1.01 9.69-1.39 11.59-8.11 12.26-16.54 1.78-22.36 4.09-44.67 6.19-67 .25-2.62.55-5.23.94-8.92 4.7 3.12 8.83 5.95 13.06 8.63 1.5.95 3.22 2.16 4.85 2.18 19.45.15 38.92.1 58.79.1z"/><path d="m317.78 295.39c1.36-1.2 2.6-2.29 4.34-3.83 15.65 12.52 33.82 22.41 43.89 41.03 5.3 9.81 3.76 19.28-2.86 27.95-3.25 4.25-5.65 4.07-8.29-.53-1.81-3.15-3.54-6.47-4.55-9.93-5.65-19.25-16.38-35.52-29.17-50.63-1.07-1.26-2.11-2.55-3.36-4.06z"/><path d="m264.86 293.22c3.04 0 5.57-.78 6.52.12 10.13 9.55 20.26 19.13 29.81 29.25 2.92 3.09 4.53 7.7 5.91 11.89 3.17 9.61-1.77 20.87-10.68 25.48-4.01 2.08-6.8 1.4-8.12-3.16-1.74-6.02-2.59-12.3-3.68-18.49-2.47-13.97-8.37-26.53-15.69-38.52-1.03-1.7-2.09-3.38-4.07-6.57z"/><path d="m207.56 297.49c3.17-3.25 5.68-2.9 8.4.37 8.16 9.82 17.17 19.01 24.62 29.34 8.61 11.95 6.32 24.5-4.68 34.18-3.52 3.1-5.4 3.01-6.93-1.44-2.25-6.55-3.53-13.42-5.45-20.08-2.12-7.32-4.19-14.67-6.87-21.79-2.64-6.98-6-13.66-9.09-20.58z"/><path d="m180.3 296.47c-1.97 16.65-3.22 33.15-9.45 48.52-2.04 5.03-6.06 9.43-9.81 13.54-3.63 3.99-8.79 4.48-13.93 3.47-5.85-1.15-8.19-6.19-5.2-11.36 1.4-2.42 3.08-4.88 5.19-6.66 13.97-11.7 21.39-27.28 26.68-44.19 1.25-3.97 1.31-3.95 6.52-3.32z"/></g><path d="m362.1 8.8c1.1.8 2.1 1.6 3.1 2.4l-1 1.1c-1.3-1.1-2.3-2-3-2.5zm1.9 4.8c.5.2.9.4 1.4.5-.6 2.3-1.3 4.5-1.9 6.8l-1.5-.5c.8-2.1 1.4-4.3 2-6.8zm-1-9.4c1.3.9 2.4 1.8 3.4 2.5l-1 1.1c-1.4-1.2-2.4-2.1-3.2-2.6zm3.7 2.2v-1.4h10.3v1.2c-.5 3.6-1.8 6.8-4 9.4 1.5 1.6 3.4 2.8 5.7 3.8-.3.4-.7.8-1.1 1.4-2.3-1.1-4.1-2.5-5.6-4.1-1.6 1.6-3.6 3.1-5.9 4.3-.3-.5-.7-.9-1-1.3 2.4-1.1 4.4-2.5 6-4.1-1.9-2.5-3-5.6-3.3-9.3h-1.1zm8.8 0h-6.4c.3 3.3 1.3 6 3 8.2 2-2.3 3.1-5.1 3.4-8.2z" fill="#fcfbfa"/><path d="m385.3 3.8h1.3v2.2h2.8v-2.2h1.3v2.2h4.1v9.1h1.7v1.3h-16.9v-1.3h1.7v-9.1h4.1v-2.2zm.4 13.1.7 1.2c-1.8.9-3.8 1.9-6 2.9-.2-.4-.5-.8-.8-1.3 2.3-1 4.3-1.9 6.1-2.8zm-3.1-6.4h2.8v-3.2h-2.8zm0 4.6h2.8v-3.3h-2.8zm4-4.6h2.8v-3.2h-2.8zm0 4.6h2.8v-3.3h-2.8zm3.7 1.9c2.1.9 4.1 1.8 6.1 2.7l-.7 1.3c-2.2-1.1-4.2-2-6.1-2.9zm3.2-9.7h-2.8v3.2h2.8zm-2.8 7.8h2.8v-3.3h-2.8z" fill="#fcfbfa"/></svg>