<svg enable-background="new 0 0 400 400" viewBox="0 0 400 400" xmlns="http://www.w3.org/2000/svg"><g fill="#010105"><path d="m140.18 341.83c12.45.73 24.68 1.63 36.93 2.1 6.94.27 10.77-3.44 10.78-10.2.07-42.16.03-84.33.01-126.49 0-.48-.16-.96-.38-2.18-1.67 0-3.43 0-5.18 0-23.67 0-47.33.11-70.99-.11-4.02-.04-6.47 1.3-8.59 4.44-1.94 2.87-4.27 5.46-6.78 8.61-6.18-5.2-12.11-10.19-17.96-15.11.18-.57.17-1.01.37-1.15 6.89-4.84 8.14-11.58 7.7-19.57-.6-10.79-.15-21.64-.15-33.36 9.58 3.8 18.69 7.41 27.75 11-.06.61.01 1.06-.13 1.14-6.93 3.82-8.32 9.86-7.58 17.22.53 5.27.1 10.64.1 16.4h81.57c0-19.93 0-39.85 0-60.57-1.68 0-3.43 0-5.18 0-37 0-74-.18-110.99.14-8.22.07-16.42 1.99-24.65 2.89-1.56.17-3.66.08-4.72-.82-4.05-3.44-7.78-7.26-12.7-11.97h242.82c0-10.18 0-19.75 0-29.82-1.85-.08-3.61-.23-5.37-.24-42-.01-84-.24-125.99.16-10.04.1-20.05 2.41-30.09 3.46-1.7.18-3.96-.34-5.2-1.41-3.77-3.25-7.16-6.93-11.64-11.36h178.34c0-10.78 0-20.85 0-31.63-1.98 0-3.75 0-5.52 0-47.66 0-95.33-.19-142.99.16-9.54.07-19.05 2.34-28.6 3.32-1.83.19-4.25-.38-5.61-1.54-3.79-3.21-7.16-6.91-11.82-11.53h6.89c60.33 0 120.66-.04 180.99.09 3.91.01 6.49-.95 8.49-4.43 1.96-3.42 4.56-6.48 7.15-10.08 7.62 5.24 14.94 10.27 22.32 15.34-.45.8-.59 1.36-.94 1.6-7.98 5.41-9.07 13.1-8.72 22.13.63 16.47.18 32.99.18 49.49v5.94c11.08 0 21.7.09 32.31-.11 1.4-.03 2.95-1.33 4.13-2.38 5.33-4.77 10.56-9.66 16.15-14.81 7.98 8.9 15.82 17.65 24.31 27.12-58.1 0-115.28 0-172.46 0-.1.37-.2.73-.31 1.1 7.36 3.51 14.72 7.02 22.39 10.68-.8.75-1.3 1.48-1.99 1.81-8.52 4.03-10.05 10.96-9.36 19.68.72 9.08.16 18.26.16 27.69h82.19c0-14.62 0-29.05 0-44.35 10.65 3.85 20.53 7.42 30.75 11.11-.65.86-.92 1.56-1.43 1.84-7.4 4.2-8.51 10.8-7.98 18.61.56 8.29.03 16.66.18 24.99.05 2.86-.55 4.5-3.66 5.35-5.84 1.6-11.54 3.74-17.93 5.86 0-4.58 0-8.52 0-12.75-27.42 0-54.34 0-82.1 0 1.15 11.24-3.38 23.01 5.14 33.35 11.29 13.7 22.25 27.68 33.54 41.77 22.08-16.1 40.94-33.73 57.77-54.35 6.19 7.59 12.03 14.77 17.33 21.27-15.09 8.03-30.14 16.1-45.25 24.06-7.92 4.17-15.94 8.13-24.65 12.55 16.56 14.26 34.86 24.55 54.71 32.32 19.77 7.74 40.35 12.06 61.21 14.49.31.47.63.73.65 1.01.06 1.15.02 2.31.02 3.26-6 2.07-12.39 3.24-17.6 6.37-5.23 3.14-9.29 8.23-14.29 12.86-57.56-17.26-97.7-56.91-127.43-108.9-.39.15-.78.31-1.17.46v5.21c-.07 30.16.12 60.33-.33 90.48-.21 14.29-11.21 26.81-25.43 30.51-9.12-17.45-26.51-20.45-43.47-24.4-.02-2.15-.02-4.25-.02-5.82z"/><path d="m174.68 274.21c.8 1.56 1.62 3.16 2.64 5.13-42.89 23.4-86.75 44.87-126.65 73.92-5.42-7.23-10.85-14.46-16.63-22.15 49.32-13.8 94.58-36.14 140.64-56.9z"/><path d="m70.24 228.48c.43-1.9.76-3.33 1.25-5.49 9.77 2.33 19.49 4.24 28.97 7.01 10.49 3.06 21 6.33 31.06 10.55 13.91 5.82 13.23 23.16 9.23 31.9-1.51 3.31-4.35 3.49-7.14 1.98-2.31-1.25-4.65-2.76-6.4-4.68-15.02-16.53-33.86-27.79-52.9-38.8-1.3-.75-2.55-1.54-4.07-2.47z"/></g><path d="m362.1 8.8c1.1.8 2.1 1.6 3.1 2.4l-1 1.1c-1.3-1.1-2.3-2-3-2.5zm1.9 4.8c.5.2.9.4 1.4.5-.6 2.3-1.3 4.5-1.9 6.8l-1.5-.5c.8-2.1 1.4-4.3 2-6.8zm-1-9.4c1.3.9 2.4 1.8 3.4 2.5l-1 1.1c-1.4-1.2-2.4-2.1-3.2-2.6zm3.7 2.2v-1.4h10.3v1.2c-.5 3.6-1.8 6.8-4 9.4 1.5 1.6 3.4 2.8 5.7 3.8-.3.4-.7.8-1.1 1.4-2.3-1.1-4.1-2.5-5.6-4.1-1.6 1.6-3.6 3.1-5.9 4.3-.3-.5-.7-.9-1-1.3 2.4-1.1 4.4-2.5 6-4.1-1.9-2.5-3-5.6-3.3-9.3h-1.1zm8.8 0h-6.4c.3 3.3 1.3 6 3 8.2 2-2.3 3.1-5.1 3.4-8.2z" fill="#fcfbfa"/><path d="m385.3 3.8h1.3v2.2h2.8v-2.2h1.3v2.2h4.1v9.1h1.7v1.3h-16.9v-1.3h1.7v-9.1h4.1v-2.2zm.4 13.1.7 1.2c-1.8.9-3.8 1.9-6 2.9-.2-.4-.5-.8-.8-1.3 2.3-1 4.3-1.9 6.1-2.8zm-3.1-6.4h2.8v-3.2h-2.8zm0 4.6h2.8v-3.3h-2.8zm4-4.6h2.8v-3.2h-2.8zm0 4.6h2.8v-3.3h-2.8zm3.7 1.9c2.1.9 4.1 1.8 6.1 2.7l-.7 1.3c-2.2-1.1-4.2-2-6.1-2.9zm3.2-9.7h-2.8v3.2h2.8zm-2.8 7.8h2.8v-3.3h-2.8z" fill="#fcfbfa"/></svg>