<svg enable-background="new 0 0 400 400" viewBox="0 0 400 400" xmlns="http://www.w3.org/2000/svg"><g fill="#010100"><path d="m121.48 370.9c58.94-38.18 91.61-90.55 88.05-162.81-10.49 0-21.59-.27-32.68.09-8.13.26-16.22 1.48-24.35 1.93-1.96.11-4.37-.66-5.91-1.88-3.46-2.74-6.49-6.01-9.7-9.07.2-.37.39-.75.59-1.12h104.84c0-24.47 0-48.4 0-72.97-2.5 0-4.76 0-7.02 0-13.33 0-26.66.1-39.99-.08-3.09-.04-4.52 1.15-6.19 3.64-10.94 16.27-22.09 32.4-33.31 48.48-2.54 3.64-2.79 3.47-7.47 1.33 22.66-39.83 37.44-82.38 43.86-128.32 9.11 4.55 17.98 8.99 26.06 13.03-4.79 8.44-9.88 16.36-13.88 24.79-4.03 8.5-6.97 17.51-10.57 26.78h48.02c0-28.17 0-56.34 0-85.06 10.35 4.04 20.91 8.17 32.42 12.66-1.61 1.23-2.46 2.05-3.46 2.62-7.69 4.38-8.83 11.15-8.53 19.42.6 16.62.18 33.27.18 50.63h17.15 4c7.5-.03 15.67 1.8 22.3-.62 6.39-2.34 11.18-9.07 16.68-13.85.35-.31.84-.46 1.67-.89 7.69 8.13 15.4 16.29 23.92 25.3-29.07 0-57.07 0-85.39 0v72.78c1.66.1 3.26.27 4.85.27 19.33.02 38.66.11 57.99-.11 2.53-.03 5.45-1.15 7.48-2.69 5.68-4.32 10.98-9.13 17.03-14.24 7.48 8.84 14.8 17.51 22.86 27.04-28.1 0-55.11 0-82.76 0v5.89 109.48c0 10.89 5.33 16.96 16.14 17.43 9.81.43 19.66.34 29.49.05 6.18-.18 9.81-4.44 10.99-9.97 1.56-7.28 2.36-14.75 3.08-22.17.91-9.4 1.41-18.84 2.11-28.58 1.65-.09 3.06-.16 4.49-.24.29.68.58 1.1.64 1.55 1.59 12.85 2.77 25.77 4.83 38.55 1.85 11.47 4.15 14.36 13.61 21.34-5.1 9.26-13.36 14.1-23.36 15.64-7.02 1.08-14.25.97-21.38 1.08-11.49.18-23.01-.23-34.49.22-19.8.78-26.16-10.15-26.25-26.1-.21-39.16-.07-78.32-.07-117.48 0-1.98 0-3.95 0-6.26-12.73 0-25.12 0-37.53 0-1.47 13.12-2.49 26.19-4.48 39.12-5.06 33-15.57 63.58-40.59 87.39-17.32 16.48-37.36 28.85-58.8 39.06-1.67.8-4.34-.5-6.54-.82-.25-.75-.44-1.51-.63-2.26z"/><path d="m88.38 375.18c1.84-115.48 1.75-230.13.2-345.48 11.11 6.01 22.18 12 33.52 18.14-.87 1.01-1.2 1.65-1.72 1.96-9.8 5.75-11.29 14.42-11.23 25.24.47 75.45.15 150.9.32 226.35.04 18.95 1.01 37.89 1.43 56.84.03 1.27-.6 3.14-1.55 3.76-6.75 4.45-13.67 8.65-20.97 13.19z"/><path d="m64.93 115.13h4.5c.23.33.57.6.58.88.24 21.29 1.19 42.64-3.93 63.59-2.13 8.71-6.06 16.56-12.69 22.77-4.46 4.17-9.8 6.27-15.95 5.03-7.43-1.5-11.05-7.71-7.8-14.61 2.51-5.33 5.74-10.7 9.88-14.82 15.62-15.58 21.26-35.26 24.39-56.13.32-2.14.65-4.27 1.02-6.71z"/><path d="m113.78 104.37c1.3-1.52 3.1-2.84 5.48.06 9.27 11.3 18.98 22.25 27.74 33.93 5.59 7.45 6.93 16.4 4.04 25.59-.44 1.41-1.13 2.77-1.86 4.06-2.15 3.77-5.78 6.58-9.7 5.59-2.94-.74-6.33-4.01-7.41-6.94-2.29-6.14-2.84-12.91-4.73-19.23-4.27-14.26-8.92-28.42-13.56-43.06z"/></g><path d="m378.6 9.2.8-1c.9.7 1.9 1.4 2.9 2.3l-.9 1.1c-1.1-.9-2-1.7-2.8-2.4zm.5 10.7c.9-2.1 1.6-4.3 2.3-6.7.4.2.8.4 1.3.6-.7 2.1-1.5 4.3-2.2 6.6zm.4-15.2.9-.9c1 .8 2 1.6 2.8 2.4l-1 1c-1-.9-1.9-1.8-2.7-2.5zm12.5-1.3h1.2v1.4h2.7v1.1h-2.7v2.7h-1.2v-.5h-1.8v1.3h4.9v3.8h-1.2v-.5h-3.7c0 .4-.1.9-.1 1.2h5.1v1h-5.2c0 .5-.1.9-.2 1.2h6v1h-5.2c1.1 1.3 2.9 2 5.5 2.2-.4.4-.7.8-.9 1.3-2.9-.5-4.8-1.6-5.7-3.5h-.1c-.8 1.7-2.7 2.9-5.9 3.6-.2-.4-.6-.8-.9-1.1 2.8-.6 4.6-1.4 5.4-2.5h-4.8v-1h5.3c.1-.3.2-.7.2-1.2h-4.9v-1h5c0-.4 0-.8.1-1.2h-3.6v.5h-1.2v-3.8h4.9v-1.3h-1.8v.5h-1.2v-2.7h-2.6v-1.1h2.6v-1.4h1.2v1.4h4.7v-1.4zm-6.7 8.4h3.6c0-.4 0-.9 0-1.4h-3.6zm1.9-4.7h4.7v-1.2h-4.7zm6.7 3.3h-3.7v1.4h3.7z" fill="#fbfafc"/><path d="m384.7 21.4h1.3v2.2h2.8v-2.2h1.3v2.2h4.1v9.1h1.7v1.3h-16.9v-1.3h1.7v-9.1h4.1v-2.2zm.3 13.2.7 1.2c-1.8.9-3.8 1.9-6 2.9-.2-.4-.5-.8-.8-1.3 2.4-1 4.4-2 6.1-2.8zm-3.1-6.5h2.8v-3.2h-2.8zm0 4.6h2.8v-3.3h-2.8zm4.1-4.6h2.8v-3.2h-2.8zm0 4.6h2.8v-3.3h-2.8zm3.6 1.9c2.1.9 4.1 1.8 6.1 2.7l-.7 1.3c-2.2-1.1-4.2-2-6.1-2.9zm3.3-9.7h-2.8v3.2h2.8zm-2.8 7.8h2.8v-3.3h-2.8z" fill="#fbfafc"/></svg>