<svg enable-background="new 0 0 400 400" viewBox="0 0 400 400" xmlns="http://www.w3.org/2000/svg"><g fill="#010103"><path d="m242.47 189.65h38.14c0-14.31 0-28.18 0-42.57-10.87.25-21.9-1.67-32.44 2.41-4.77 1.85-7.95.85-11.12-2.98-2.52-3.04-5.79-5.46-8.72-8.15.18-.39.36-.79.55-1.18h51.79c0-14.52 0-28.42 0-42.48-8-1.98-15.45.64-22.83 2.89-3.43 1.05-5.55.35-7.81-2.18-2.97-3.31-6.3-6.32-10.43-10.41h41.88c-.66-19.03-1.3-37.39-1.97-56.41 8.09 4.48 16.14 8.94 24.83 13.75-12.05 12.46-5.5 27.69-7.56 42.45 10.3 0 19.9.09 29.5-.12 1.09-.02 2.38-1.54 3.17-2.66 1.9-2.69 3.57-5.55 5.65-8.86 6.69 5.23 13.05 10.2 19.44 15.19-.36.65-.49 1.3-.84 1.46-9.1 4.28-11.47 11.46-10.45 21.1.87 8.19.18 16.54.18 26.39 4.59-4.98 8.11-8.81 12.02-13.06 5.13 7.42 10.07 14.58 15.52 22.49-9.44 0-18.13 0-27.55 0v5.86c0 15-.1 30 .07 45 .04 3.48-.86 5.52-4.3 6.7-3.57 1.23-6.94 3.07-10.95 4.89-.2-3.47-.38-6.48-.57-9.74-10.19 0-20.09 0-29.91 0-4.36 23.12 6.52 41.8 17.05 62.35 11.18-17.28 21.76-33.63 32.53-50.29 4.16 7.88 8.63 16.35 13.28 25.16-9.7.94-16.07 6.71-22.29 12.44-5.62 5.18-10.83 10.82-15.95 16.51-1.03 1.14-1.6 3.74-1.03 5.1 9.86 23.43 26.32 40.43 49.77 50.58 1.59.69 2.57 2.78 4.03 4.44-5.81 1.86-10.78 2.53-14.66 4.95-3.92 2.43-6.76 6.6-10.37 10.32-24.9-26.87-39.62-59.77-53.04-93.84v4.61c0 27.16.23 54.33-.09 81.49-.19 15.92-5.7 29.63-19.32 39.12-.66.46-1.42.79-2.27 1.26-3.88-13.93-14.2-20.01-27.32-22.86 0-2.56 0-4.99 0-7.77 7.33.33 14.4.83 21.49.93 7.78.12 10.06-1.96 11.18-9.6.24-1.64.25-3.32.25-4.99.01-42.16.01-84.33 0-126.49 0-.99-.11-1.97-.25-4.4-6 .97-11.99 1.2-17.45 3.02-5.97 1.98-10.33 1.59-14.23-3.65-1.95-2.61-4.76-4.58-7.18-6.83.19-.43.38-.88.58-1.34zm54.89-95.29v42.17h30.18c0-14.27 0-28.13 0-42.17-10.15 0-19.9 0-30.18 0zm-.04 94.92h30.29c0-14.18 0-28.05 0-42.02-10.23 0-20.14 0-30.29 0z"/><path d="m93.19 124.87v68.91c11.43-6.4 22.36-12.53 33.42-18.72 1.3 2.21 2.54 4.32 4.05 6.87-7 4.87-13.8 9.58-20.57 14.34-5.57 3.92-13.21 6.78-16.05 12.16-2.84 5.37-.95 13.29-.96 20.1-.04 35.66.08 71.31-.07 106.97-.05 12.01-3.12 23.12-12.66 31.32-3.19 2.74-7 4.76-10.98 7.41-2.85-14.54-14.02-19.26-24.83-24.01-4.37-1.92-5.91-4.22-4.45-8.97 6.17.35 12.43.41 18.63 1.11 11.72 1.33 16.4-2.33 17.07-14.2.27-4.82.14-9.66.14-14.49.01-29.99 0-59.97 0-91.73-11.65 8.84-22.35 16.96-33.44 25.37-4.97-6.22-10.33-12.92-15.31-19.15 15.3-7.54 30.37-14.85 45.29-22.46 1.61-.82 3.3-3.36 3.31-5.12.22-24.16.15-48.32.13-72.48 0-.8-.13-1.61-.22-2.66-9.68-1.13-19.02-.51-28.02 2.82-3.03 1.12-4.86.4-6.94-1.78-3.42-3.58-7.15-6.86-11.8-11.26h46.9c0-29.62 0-58.79 0-88.76 9.89 4.44 18.92 8.49 27.95 12.55.48.59.97 1.19 1.45 1.78-1.59.86-3.26 1.59-4.76 2.59-6.49 4.33-7.82 10.46-7.58 18.04.54 17.44.17 34.91.17 53.78 5.39-5.8 9.93-10.7 14.15-15.25 8.39 8.37 16.61 16.57 24.98 24.92-12.57 0-25.55 0-39 0z"/><path d="m235.83 97.23c-17.61 0-34.74 0-52.25 0v45.32c5.45.74 10.52 1.39 14.45-4.2 2.83-4.03 6.63-7.39 9.53-10.53 8.48 8.47 16.77 16.74 25.22 25.18-1.39 0-2.98 0-4.57 0-22.17 0-44.34-.27-66.49.14-8.23.15-16.42 2-24.65 2.85-1.67.17-3.89-.17-5.09-1.18-3.94-3.31-7.53-7.05-12.36-11.68h46.11c0-15.59 0-30.49 0-45.68-10.83-.73-21.41-.91-31.57 2.95-3.33 1.27-5.56.57-7.89-2.02-2.99-3.33-6.39-6.29-10.72-10.49h49.93c0-20.64 0-40.52 0-61.08 9.16 4.1 18.3 8.2 27.41 12.27-.14.47-.14.69-.25.78-9 7.19-10.57 16.8-9.57 27.59.59 6.41.11 12.93.11 19.57 7.6 1.12 14.41 1.81 19.27-5.64 2.32-3.55 5.73-6.4 8.31-9.2 8.36 8.37 16.45 16.44 25.07 25.05z"/><path d="m212.13 216.39c8.17 8.15 16.28 16.22 24.83 24.74-18.2 0-36.19 0-54.69 0-.11 2.37-.25 4.12-.26 5.87-.01 26.16.21 52.33-.11 78.49-.14 11.82-1.51 23.58-7.31 34.3-3.29 6.07-7.64 9.99-12.96 11.96-3.79-4.82-6.76-10.23-11.21-13.8-4.5-3.61-10.47-5.39-16.17-8.16 0-1.67 0-4.11 0-7.11 5.68.68 11.07 1.34 16.46 1.96 9.48 1.1 10.61.43 12.27-9.03.97-5.54 1.73-11.19 1.78-16.8.19-23.66.08-47.33.08-70.99 0-1.82 0-3.65 0-6.85-9.82.53-19.74-.48-28.71 1.99-9.22 2.54-15.74 2.12-21.26-5.95-1.04-1.52-3.17-2.31-4.8-3.43.35-.59.71-1.18 1.06-1.76h5.18c25.83 0 51.66.08 77.49-.14 2.43-.02 5.34-1.45 7.16-3.16 4.1-3.84 7.68-8.27 11.17-12.13z"/><path d="m277.49 268.91c2.07 3.74 1.95 6.47-.89 9.6-12.4 13.69-24.72 27.46-36.69 41.52-4.71 5.52-8.44 11.87-12.99 18.37-3.03-5.27-5.98-10.42-8.93-15.56-1.11-1.94-1.81-3.58-5.03-3.56-1.66.01-4.11-3.95-4.87-6.52-2.02-6.81-2.96-13.95-4.97-20.76-3.09-10.48-6.7-20.8-10.19-31.47 1.08-.73 2.27-1.54 4.01-2.72 6.56 8.7 13.11 17.28 19.54 25.95 6.39 8.61 7.49 17.89 3.12 27.76-.25.58-.39 1.2-1 3.14 21.74-13.74 41.35-28.18 58.89-45.75z"/><path d="m134.27 256.9c7.26 6.78 13.91 13 20.73 19.38-.53.43-.82.84-1.19.94-6.58 1.76-9.89 6.71-13.48 12.15-9.77 14.8-20.28 29.12-30.61 43.55-2 2.79-4.54 5.19-6.7 7.63-4.84-3.26-5.15-5.84-2.32-9.96 14.69-21.39 23.87-45.39 32.1-69.8.37-1.08.81-2.13 1.47-3.89z"/><path d="m128.83 186.59h5.18c14.66 0 29.32.13 43.97-.13 2.29-.04 5.01-1.37 6.72-2.97 4.11-3.85 7.74-8.22 11.27-12.07 8.17 8.15 16.25 16.21 24.81 24.76-1.76 0-3.45-.01-5.14 0-15.82.07-31.65-.19-47.45.37-7.9.28-15.73 2.22-23.62 3.09-1.81.2-4.2-.41-5.57-1.55-3.78-3.14-7.16-6.76-10.7-10.19.16-.44.35-.87.53-1.31z"/><path d="m232.46 214c14.22 8.45 26.21 16.67 31.97 31.24 2.63 6.65 3 13.38-.18 19.81-1.03 2.1-3.55 4.4-5.66 4.7-1.41.2-4.19-2.66-4.85-4.65-5.22-15.87-12.67-30.66-20.91-45.12-.72-1.25-.24-3.2-.37-5.98z"/></g><path d="m385.2 377.6.6-.7c.6.4 1.3.9 1.9 1.5l-.6.7c-.8-.5-1.4-1-1.9-1.5zm.3 7.1c.6-1.4 1.1-2.9 1.5-4.5.3.1.6.3.9.4-.5 1.4-1 2.9-1.5 4.4zm.2-10.1.6-.6c.7.5 1.3 1.1 1.9 1.6l-.7.7c-.6-.6-1.2-1.2-1.8-1.7zm8.4-.8h.8v.9h1.8v.7h-1.8v1.8h-.8v-.3h-1.2v.9h3.3v2.6h-.8v-.4h-2.5c0 .3 0 .6-.1.8h3.4v.7h-3.5c0 .3-.1.6-.1.8h4v.7h-3.5c.7.9 1.9 1.3 3.6 1.5-.2.2-.4.5-.6.9-1.9-.3-3.2-1.1-3.8-2.3-.5 1.1-1.8 2-3.9 2.4-.2-.3-.4-.5-.6-.8 1.9-.4 3.1-.9 3.6-1.7h-3.2v-.7h3.5c.1-.2.1-.5.2-.8h-3.3v-.7h3.4c0-.2 0-.5 0-.8h-2.4v.3h-.8v-2.6h3.3v-.9h-1.2v.3h-.8v-1.8h-1.8v-.7h1.8v-.9h.8v.9h3.2zm-4.4 5.5h2.4c0-.3 0-.6 0-.9h-2.4zm1.2-3.1h3.2v-.8h-3.2zm4.4 2.2h-2.4v.9h2.5v-.9z" fill="#fcfafa"/><path d="m389.2 385.8h.9v1.5h1.9v-1.5h.9v1.5h2.7v6h1.1v.9h-11.3v-.9h1.1v-6h2.7zm.2 8.7.5.8c-1.2.6-2.5 1.3-4 1.9-.2-.3-.3-.6-.6-.8 1.6-.6 3-1.3 4.1-1.9zm-2-4.3h1.9v-2.1h-1.9zm0 3.1h1.9v-2.2h-1.9zm2.7-3.1h1.9v-2.1h-1.9zm0 3.1h1.9v-2.2h-1.9zm2.4 1.3c1.4.6 2.7 1.2 4.1 1.8l-.5.9c-1.5-.7-2.8-1.4-4.1-1.9zm2.2-6.5h-1.9v2.1h1.9zm-1.9 5.2h1.9v-2.2h-1.9z" fill="#fcfafa"/></svg>