<svg enable-background="new 0 0 400 400" viewBox="0 0 400 400" xmlns="http://www.w3.org/2000/svg"><g fill="#010105"><path d="m234.91 166.06c-9.01 20.19-18.06 40.47-27.27 61.1-2.69-1.31-4.24-2.08-5.88-2.88 20.95-62.84 33.83-126.89 37.9-193.21 10.34 4.49 20.89 9.07 31.42 13.63-.26.78-.28 1.23-.47 1.32-9.83 4.64-11.73 13.7-13.5 23.18-2.44 13.05-5.56 25.97-8.37 38.95-.35 1.6-.63 3.2-1.05 5.36 1.97.12 3.54.3 5.12.3 21.66.02 43.33.11 64.99-.12 2.48-.03 5.45-1.33 7.3-3.01 4.4-4.01 8.27-8.6 11.77-12.34 8.77 8.73 16.84 16.74 25.13 24.99-11.73 0-23.62 0-35.38 0-2.91 17.46-5.39 34.37-8.58 51.15-6.04 31.71-13.54 63.01-28.21 92.12-.72 1.43-.76 4.04.08 5.29 19.43 28.79 42.94 53.38 73.61 70.43 2.46 1.37 5.34 2.03 7.68 3.54 1.34.86 2.46 2.71 2.75 4.28.13.69-1.98 2.45-3.23 2.63-8.68 1.24-15.17 5.58-19.78 13.68-15.29-10.78-29.44-22.58-41.33-36.68-11.74-13.92-22.47-28.69-33.69-43.17-22.39 36.3-51.7 66.72-90.79 87.43-.81-1.33-1.55-2.55-2.27-3.72 8.7-7.92 17.32-15.48 25.62-23.39 22.97-21.9 41.9-46.83 55.34-75.7.85-1.82.85-4.62.11-6.52-11.6-29.76-21.25-60.09-27.56-91.43-.53-2.53-1.03-5.05-1.46-7.21zm40.85 85.44c.54-.1 1.09-.2 1.63-.3 16.21-40.84 23.06-83.69 27.34-127.3-1.23-.21-2.03-.46-2.83-.46-17.48-.02-34.95.03-52.43-.08-2.78-.02-3.78 1.2-4.32 3.62-1.25 5.66-2.87 11.25-3.87 16.95-.52 2.98-.77 6.35.07 9.19 6.1 20.66 12.03 41.39 18.98 61.77 4.26 12.49 10.23 24.42 15.43 36.61z"/><path d="m84.77 226.16c8.53 5.03 16.07 9.48 24.83 14.65-12.28 4.37-14.68 15.12-19.49 24.3-6.56 12.5-13.72 24.7-20.79 36.92-.89 1.54-2.84 2.48-5.32 4.55 0 16.36-.12 34.33.1 52.31.04 3.67-.81 5.8-4.37 7.14-4.48 1.68-8.76 3.9-13.68 6.14 0-60.77 0-121.05 0-182.05 4.99 2.66 9.53 5.36 14.31 7.53 2.62 1.19 5.63 2.04 8.48 2.09 13.8.21 27.6.09 41.54.09 0-21.81 0-43.18 0-65.2 9.39 3.56 18.75 7.11 28.24 10.7-.38.68-.52 1.32-.87 1.48-8.88 4.12-10.49 11.31-9.85 20.39.74 10.59.17 21.27.17 32.62h14.17c7.66 0 15.34-.17 22.99.07 3.65.12 6.28-.63 8.31-3.97 1.88-3.1 4.45-5.79 7.12-9.15 6.56 5.58 13.06 11.12 19.71 16.78-.46.74-.67 1.46-1.14 1.78-8.18 5.47-9.12 13.33-9 22.53.46 34.82-.33 69.66.39 104.47.38 18.78-11.22 28.58-24.1 32.62-1.65-13.3-11.91-17.35-22.68-20.33-4.14-1.15-4.43-3.06-3.47-6.39 7.58.46 15.01 1.05 22.46 1.31 7.43.25 9.15-1.48 9.16-8.98.04-34.49.02-68.98.02-103.48 0-5.65 0-11.31 0-17.32-14.68 0-29.07 0-43.39 0v147.19c-5.65 2.01-11.83 4.21-18.3 6.52 0-51.41 0-102.25 0-153.58-14.96 0-30.31 0-45.99 0v89.94c10.38-24.16 17.59-47.79 20.44-73.67z"/><path d="m28.54 122.41h58.38c0-31.69 0-62.88 0-94.18 8.8 3.53 17.99 7.21 27.22 10.9-.34.71-.41 1.12-.64 1.28-7.92 5.44-8.98 13.13-8.68 22.15.62 17.97.18 35.98.18 53.97v5.74h29.96c0-31.39 0-62.57 0-94.08 8.67 3.45 17.8 7.09 27.18 10.82-.32.6-.42 1.13-.72 1.29-8.02 4.39-8.95 11.48-8.57 19.8.56 12.46.15 24.97.15 39.01 11.82-15.68 21.61-30.93 27.9-49.13 6.71 5.72 12.94 11.05 19.29 16.47-17.32 10.68-30.86 25.22-45.14 38.9-1.06 1.02-1.87 2.78-1.96 4.25-.26 4.12-.09 8.26-.09 12.96 5.54 0 10.67.18 15.78-.12 1.4-.08 2.95-1.36 4.03-2.48 4.12-4.3 8.07-8.76 11.83-12.88 8.43 8.36 16.57 16.41 25.33 25.09-2.01 0-3.69 0-5.38 0-43.98 0-87.96-.2-131.94.16-9.53.08-19.05 2.23-28.58 3.31-1.51.17-3.59.3-4.54-.53-4.06-3.57-7.8-7.52-11.66-11.33.22-.45.45-.91.67-1.37z"/><path d="m134.49 233.79c10.45 11.54 21.3 22.8 28.87 36.61 5.01 9.13 2.76 20.94-4.82 27.84-3.34 3.04-6.13 2.67-7.67-1.58-1.51-4.17-2.02-8.7-3.38-12.94-4.7-14.64-9.62-29.2-14.35-43.83-.58-1.79-.49-3.8-.7-5.71.68-.13 1.36-.26 2.05-.39z"/><path d="m39.05 53.56c10.24 8.03 20.69 15.4 30.15 23.88 9.18 8.22 9.01 19.02.9 28.33-3.21 3.68-6.07 3.49-8.72-.7-.79-1.25-1.43-2.64-1.87-4.05-4.64-14.77-12.51-27.73-21.95-39.85-2.37-3.02-2.34-3.05 1.49-7.61z"/><path d="m59.63 142.61c8.2 6.19 17.47 12.14 25.46 19.48 11.23 10.31 5.36 21.33-2.19 28.52-3.21 3.06-6.6 2.26-8.38-1.84-1.3-3-1.54-6.47-2.85-9.47-4.51-10.28-9.14-20.52-14.05-30.61-1.2-2.43-2.23-4.05 2.01-6.08z"/><path d="m170.36 142.6c5.43 4.25 11.56 9.06 18.07 14.16-17.68 9.49-27.65 26.86-43.12 39.08-.82-.46-2.04-1.15-2.53-1.42 9.24-17.35 18.31-34.4 27.58-51.82z"/></g><path d="m362.1 8.8c1.1.8 2.1 1.6 3.1 2.4l-1 1.1c-1.3-1.1-2.3-2-3-2.5zm1.9 4.8c.5.2.9.4 1.4.5-.6 2.3-1.3 4.5-1.9 6.8l-1.5-.5c.8-2.1 1.4-4.3 2-6.8zm-1-9.4c1.3.9 2.4 1.8 3.4 2.5l-1 1.1c-1.4-1.2-2.4-2.1-3.2-2.6zm3.7 2.2v-1.4h10.3v1.2c-.5 3.6-1.8 6.8-4 9.4 1.5 1.6 3.4 2.8 5.7 3.8-.3.4-.7.8-1.1 1.4-2.3-1.1-4.1-2.5-5.6-4.1-1.6 1.6-3.6 3.1-5.9 4.3-.3-.5-.7-.9-1-1.3 2.4-1.1 4.4-2.5 6-4.1-1.9-2.5-3-5.6-3.3-9.3h-1.1zm8.8 0h-6.4c.3 3.3 1.3 6 3 8.2 2-2.3 3.1-5.1 3.4-8.2z" fill="#fcfbfa"/><path d="m385.3 3.8h1.3v2.2h2.8v-2.2h1.3v2.2h4.1v9.1h1.7v1.3h-16.9v-1.3h1.7v-9.1h4.1v-2.2zm.4 13.1.7 1.2c-1.8.9-3.8 1.9-6 2.9-.2-.4-.5-.8-.8-1.3 2.3-1 4.3-1.9 6.1-2.8zm-3.1-6.4h2.8v-3.2h-2.8zm0 4.6h2.8v-3.3h-2.8zm4-4.6h2.8v-3.2h-2.8zm0 4.6h2.8v-3.3h-2.8zm3.7 1.9c2.1.9 4.1 1.8 6.1 2.7l-.7 1.3c-2.2-1.1-4.2-2-6.1-2.9zm3.2-9.7h-2.8v3.2h2.8zm-2.8 7.8h2.8v-3.3h-2.8z" fill="#fcfbfa"/></svg>