<svg enable-background="new 0 0 400 400" viewBox="0 0 400 400" xmlns="http://www.w3.org/2000/svg"><path d="m240.55 303.9c0 1.78.74 4.12-.11 5.25-16.37 21.79-32.94 43.43-49.73 65.47-4.16-5.41-8.56-11-12.74-16.75-.55-.76-.08-2.37.13-3.54 1.55-8.43 4.35-16.82 4.51-25.27.57-28.99.22-57.99.22-86.99 0-1.8 0-3.61 0-5.92-11.45.12-22.62-1.69-33.26 2.7-2.82 1.16-4.59.5-6.65-1.22-3.06-2.56-6.26-4.95-9.34-7.36-.47.18-.82.23-1.07.42-2.14 1.59-4.26 3.2-6.39 4.81-1.49-2.29-3.73-4.39-4.35-6.89-3.33-13.4-6.95-26.66-13.68-38.84-2-3.62-4.01-7.22-6.68-12.04-.2 2.67-.4 4.03-.39 5.39.04 48.33.05 96.65.2 144.98.04 11.65.47 23.29.91 34.93.11 2.91-.75 4.48-3.51 5.64-5.77 2.41-11.39 5.22-17.18 7.91 0-57.62 0-114.64 0-172.56-7.38 27.17-19.46 51.24-35.37 73.39-5.13 7.13-10.76 13.9-16.44 21.19-1.64-1.6-2.82-2.75-4.24-4.14 31.67-50.54 48.4-105.61 53.89-164.98-7.41 0-14.34-.28-21.22.09-5.28.29-10.51 1.5-15.79 2.06-1.24.13-2.97-.34-3.82-1.19-3.05-3.03-5.82-6.34-9.55-10.5h52.59c0-30.79 0-60.83 0-91.68 10.55 4.58 21.07 9.14 32 13.88-2.13 1.77-3.6 3.51-5.46 4.45-6.25 3.15-7.31 8.15-7.16 14.74.44 19.15.16 38.31.16 57.67 5.79 1.24 10.74 1.5 14.49-4.28 2.78-4.29 6.51-7.97 10.21-12.39 5.58 8.8 10.97 17.3 16.86 26.59-14.12 0-27.46 0-41.55 0 0 6.5-.01 12.42 0 18.34.01 7-2.04 14.97.65 20.72 2.65 5.66 10.18 8.99 15.44 13.49 4.17 3.57 8.06 7.47 12.24 11.03 9.26 7.91 10.78 17.82 7.79 28.98-.3 1.11-.61 2.23-.89 3.34-.04.15.05.32.15.81h46.04c0-16.83 0-33.69 0-51.17-8.25 0-16.37-.13-24.49.13-1.23.04-2.68 1.68-3.57 2.91-4.07 5.65-7.98 11.42-12.18 17.48-2.1-1.04-3.78-1.87-5.48-2.7 24.42-52.91 41.48-107.41 48.23-165.43 8.94 4.45 18.06 8.98 27.13 13.49-.09.57-.01 1.06-.2 1.19-8.23 6.18-10.9 15.27-13.69 24.6-3.9 13.01-8.74 25.74-13.17 38.59-.31.9-.51 1.84-.88 3.2 8.33 0 16.31.11 24.27-.1 1.41-.04 3.06-1.15 4.13-2.23 4.42-4.48 8.66-9.14 13.3-14.1 7.61 9.14 14.48 17.39 22.07 26.5-4.79 0-8.54 0-12.28 0-17 0-34-.06-50.99.1-1.6.02-4.08 1.06-4.65 2.31-6.4 14.06-12.5 28.26-18.66 42.44-.18.4-.02.95-.02 1.98 10.48 0 21.02-.95 31.32.24 12.32 1.43 21.07-2.74 27.73-12.69 1.09-1.64 2.63-2.98 4.42-4.97 6.94 8.77 13.69 17.28 21.2 26.77-15.87 0-30.55 0-45.59 0v51.37c6.75 1.13 12.74.92 17.29-5.35 2.7-3.73 6.26-6.85 9.73-10.57 7.43 8.9 14.33 17.18 21.82 26.16-16.66 0-32.65 0-48.92 0v100.68c13.28-11.27 25.99-22.06 38.71-32.85.47.11.99.2 1.51.29z" fill="#010105"/><path d="m250.93 37.41c.62.33 1.55.7 2.31 1.27 10.74 8.08 22.75 10.4 36.08 9.5 12.61-.85 25.32-.04 37.98-.32 2.3-.05 5.02-1.34 6.74-2.93 3.65-3.36 6.76-7.29 10.27-11.18 6.2 7.17 12.17 14.05 18.52 21.4-3.22 2.45-6.38 4.54-9.11 7.08-1.27 1.18-2.44 3.24-2.44 4.9-.06 33.5-.04 66.99.2 100.49.07 9.8.9 19.59 1.26 29.4.04.97-.43 2.48-1.15 2.89-5.58 3.17-11.28 6.13-17.61 9.52 0-4.79 0-8.71 0-12.94-14.13 0-27.87 0-42.2 0 3.28 21.9 9.42 42.57 19.05 63.3 7.16-7.5 14.21-14.3 20.54-21.69 6.23-7.27 11.74-15.14 17.78-23.04 5.28 6.57 10.67 13.29 16.34 20.35-18.3 7.81-33.44 19.96-48.96 31.55-2.22 1.65-2.99 3-1.74 5.74 10.59 23.25 23.62 44.8 43.35 61.54 5.25 4.46 11.3 7.98 17.73 12.45v4.27c-10.28-1.14-17.8 3.45-23.03 12.66-11.58-11.67-20.8-24.4-28.58-38.19-17.4-30.84-27.79-64.22-35.3-98.59-1.98-9.06-3.31-18.26-5.27-27.33-.28-1.31-2.31-2.99-3.69-3.16-3.6-.45-7.29-.15-11.38-.15v146.19c14.48-7.2 28.69-14.27 42.93-21.35 1.72 2.61 2.56 4.75-.59 6.88-18.97 12.83-36.46 27.33-51.16 46.02-4.18-6.03-8.15-11.66-11.95-17.4-.46-.7-.19-2.16.18-3.09 3.97-10.02 3.79-20.47 3.33-30.96-.09-1.99-.34-3.97-.34-5.96-.04-81-.06-162-.08-243-.01-11.99-.01-23.95-.01-36.12zm82.94 87.97c-22.06 0-43.62 0-65.44 0v60.79h65.44c0-20.4 0-40.37 0-60.79zm-.26-10.52c0-19.17 0-37.86 0-56.45-21.92 0-43.46 0-65.02 0v56.45z" fill="#010105"/><g fill="#fcfbfa"><path d="m362.1 8.8c1.1.8 2.1 1.6 3.1 2.4l-1 1.1c-1.3-1.1-2.3-2-3-2.5zm1.9 4.8c.5.2.9.4 1.4.5-.6 2.3-1.3 4.5-1.9 6.8l-1.5-.5c.8-2.1 1.4-4.3 2-6.8zm-1-9.4c1.3.9 2.4 1.8 3.4 2.5l-1 1.1c-1.4-1.2-2.4-2.1-3.2-2.6zm3.7 2.2v-1.4h10.3v1.2c-.5 3.6-1.8 6.8-4 9.4 1.5 1.6 3.4 2.8 5.7 3.8-.3.4-.7.8-1.1 1.4-2.3-1.1-4.1-2.5-5.6-4.1-1.6 1.6-3.6 3.1-5.9 4.3-.3-.5-.7-.9-1-1.3 2.4-1.1 4.4-2.5 6-4.1-1.9-2.5-3-5.6-3.3-9.3h-1.1zm8.8 0h-6.4c.3 3.3 1.3 6 3 8.2 2-2.3 3.1-5.1 3.4-8.2z"/><path d="m385.3 3.8h1.3v2.2h2.8v-2.2h1.3v2.2h4.1v9.1h1.7v1.3h-16.9v-1.3h1.7v-9.1h4.1v-2.2zm.4 13.1.7 1.2c-1.8.9-3.8 1.9-6 2.9-.2-.4-.5-.8-.8-1.3 2.3-1 4.3-1.9 6.1-2.8zm-3.1-6.4h2.8v-3.2h-2.8zm0 4.6h2.8v-3.3h-2.8zm4-4.6h2.8v-3.2h-2.8zm0 4.6h2.8v-3.3h-2.8zm3.7 1.9c2.1.9 4.1 1.8 6.1 2.7l-.7 1.3c-2.2-1.1-4.2-2-6.1-2.9zm3.2-9.7h-2.8v3.2h2.8zm-2.8 7.8h2.8v-3.3h-2.8z"/></g></svg>