<svg enable-background="new 0 0 400 400" viewBox="0 0 400 400" xmlns="http://www.w3.org/2000/svg"><g fill="#010105"><path d="m88.77 204.79c-12.7 37.48-32.65 69.33-59.07 97.55-.96-.81-1.73-1.39-2.41-2.06-.57-.57-1.01-1.26-1.64-2.05 33.28-50.41 53.29-105.56 60.82-165.81-12.2-.39-23.97-1.33-35.28 3.07-3.17 1.23-5.23.38-7.43-1.97-3.13-3.36-6.61-6.4-9.94-9.58.19-.41.37-.81.56-1.22h55.3c-.52-31.84-1.02-63.02-1.53-94.73 11.29 4.7 22.26 9.27 33.81 14.07-1.74 1.56-2.86 3.05-4.34 3.81-6.96 3.56-8.63 9.11-8.39 16.72.57 17.98.18 35.98.18 53.98v6.89c2.85-1.33 5.11-1.78 6.47-3.13 4.35-4.31 8.36-8.95 12.29-13.23 8.31 8.31 16.4 16.4 24.81 24.81-14.25 0-28.44 0-43.09 0-.2 1.9-.47 3.31-.47 4.73-.04 10-.2 20 .13 29.98.07 2.05 1.53 4.64 3.17 5.96 9.98 8.02 20.45 15.43 30.27 23.63 12.79 10.66 8.26 25.33.57 35.11-2.29 2.91-5.3 2.97-7.51-.18-1.69-2.41-3.11-5.11-4.12-7.88-5.52-15.04-12.78-29.18-22.02-44.03-.25 2.6-.49 3.9-.49 5.2-.02 33.32-.14 66.64.03 99.97.12 24.14.14 48.3 1.26 72.4.34 7.26-1.58 10.4-8.07 12.37-4.85 1.47-9.39 3.94-13.88 5.89.01-56.6.01-112.77.01-170.27z"/><path d="m333.76 259.31c6.92 6.44 13.32 12.39 20.03 18.63-1.04.82-1.58 1.49-2.27 1.75-7.89 2.96-9.66 8.68-9.31 16.76.68 15.63.2 31.31.2 46.97v6.67c5.56-6.01 10.05-10.86 14.91-16.1 6 8.28 11.8 16.28 18.42 25.42-2.84 0-4.68 0-6.53 0-61.14 0-122.29.01-183.43-.01-13.15 0-26.25.27-39.08 3.74-1.04.28-2.69-.06-3.47-.76-4.07-3.62-7.96-7.45-11.91-11.2.19-.4.38-.81.57-1.21h29.6c0-29.68 0-58.74 0-88.52 5.05 2.33 9.96 4.92 15.11 6.86 3.63 1.36 7.59 2.57 11.41 2.58 42.48.18 84.97.03 127.45.22 4.87.02 8.64-.9 11.68-4.82 1.83-2.35 4.1-4.36 6.62-6.98zm-100.28 21.83v68.4h37.72c0-22.92 0-45.59 0-68.4-12.67 0-24.97 0-37.72 0zm90.07 68.43c0-23.17 0-45.75 0-68.27-11.81 0-23.23 0-34.81 0v68.27zm-107.78-68.31c-11.81 0-23.07 0-34.37 0v68.26h34.37c0-22.86 0-45.41 0-68.26z"/><path d="m247.97 258.86c-6.31-5.33-12.15-10.26-17.93-15.15.16-.49.16-.96.37-1.07 7.42-4.06 7.76-10.71 7.66-18.23-.42-30.82-.36-61.65-.47-92.47-.02-7.11 0-14.22 0-21.67 4.46 2.7 8.97 5.73 13.77 8.22 2.52 1.31 5.53 2.32 8.33 2.34 20 .2 39.99-.01 59.99.2 4.14.04 7.3-.93 10.17-3.93 2.98-3.12 6.38-5.83 9.97-9.05 6.94 7.38 13.8 14.69 21.39 22.77-18.85 0-36.59 0-54.73 0v27.66c10.77 1.39 21.28 2.41 25.41-11.6 7.42 5.3 13.86 9.91 20.18 14.43-.13.55-.12.79-.22.86-7.93 5.44-8.45 13.4-7.84 21.98.62 8.62.57 17.29 1.13 25.92.2 3.08-.84 4.49-3.63 5.43-4.7 1.59-9.29 3.49-14.42 5.44 0-3.78 0-7.18 0-11.05-7.07 0-13.76 0-20.73 0v29.01c7.98 0 15.95.41 23.82-.24 2.5-.21 4.81-3.19 7.13-5 1.7-1.33 3.26-2.82 5.38-4.68 6.89 6.41 13.72 12.76 21.54 20.03-3.11 0-4.87 0-6.63 0-31.33 0-62.66.17-93.98-.16-5.48-.06-9.16 1.5-12.04 5.87-.92 1.36-2.16 2.48-3.62 4.14zm78.75-89.47c-24.04 0-47.72 0-71.26 0v30.09h71.26c0-10.11 0-19.89 0-30.09zm-39.42 40.33c-10.95 0-21.36 0-31.86 0v28.94h31.86c0-9.67 0-19.07 0-28.94zm-32.09-51.03h32.03c0-9.19 0-18.24 0-27.32-10.82 0-21.35 0-32.03 0z"/><path d="m367.33 80.03c-18.24 0-36.47 0-55.57 0 .44 6.69.66 12.94 1.33 19.14.43 4-.55 6.39-4.68 7.73-4.82 1.56-9.4 3.86-14.85 6.16 0-11.46 0-22.05 0-33.57-9.5.65-18.51.65-27.27 2.1-4.96.82-8.16.03-11.27-3.65-2.1-2.49-4.79-4.48-7.22-6.7.2-.39.4-.78.6-1.17h44.4c0-14.28 0-27.98 0-41.86 9.2 3.51 18.78 7.15 29.77 11.34-15.32 6.63-9.28 19.14-10.56 29.15 15.59 6.27 22.52-5.14 30.05-13.98 8.55 8.57 16.75 16.78 25.27 25.31z"/><path d="m219.23 38.98c-.55.79-.62 1.01-.74 1.05-9.63 3.37-11.23 10.73-10.16 19.73.48 4.03.08 8.16.08 13.31 7.03-4.79 13.04-8.88 18.85-12.84 6.38 6.43 12.7 12.79 19.62 19.77-6.39 0-12.54 0-18.69 0-6.32 0-12.63 0-19.79 0 0 7.48-.29 14.74.11 21.96.24 4.36-1.11 6.64-5.29 8-4.68 1.51-9.14 3.71-13.82 5.67 0-11.04 0-21.57 0-33.14-10.93.64-21.88.79-32.68 2.12-4.71.58-7.84-.03-10.85-3.58-2.12-2.5-4.87-4.48-6.78-7.79h50.33c0-15.55 0-30.57 0-46.35 9.84 3.98 19.67 7.97 29.81 12.09z"/><path d="m166.37 253.01c-5.74-7.68-11.19-14.98-16.85-22.55 29.37-8.87 53.91-25.79 79.21-41.88.64.97 1.23 1.73 1.68 2.57.39.71.63 1.5 1.05 2.53-22.73 18.53-45.72 36.7-65.09 59.33z"/><path d="m160.83 129.42c.56-1.95 1.01-3.53 1.81-6.36 14.87 6.75 29.72 12.86 43.97 20.15 13.37 6.84 14.45 20.66 9.77 32.86-1.49 3.89-4.19 4.43-7.41 1.76-1.4-1.16-2.78-2.49-3.71-4.02-11.07-18.38-26.91-31.97-44.43-44.39z"/></g><path d="m362.1 8.8c1.1.8 2.1 1.6 3.1 2.4l-1 1.1c-1.3-1.1-2.3-2-3-2.5zm1.9 4.8c.5.2.9.4 1.4.5-.6 2.3-1.3 4.5-1.9 6.8l-1.5-.5c.8-2.1 1.4-4.3 2-6.8zm-1-9.4c1.3.9 2.4 1.8 3.4 2.5l-1 1.1c-1.4-1.2-2.4-2.1-3.2-2.6zm3.7 2.2v-1.4h10.3v1.2c-.5 3.6-1.8 6.8-4 9.4 1.5 1.6 3.4 2.8 5.7 3.8-.3.4-.7.8-1.1 1.4-2.3-1.1-4.1-2.5-5.6-4.1-1.6 1.6-3.6 3.1-5.9 4.3-.3-.5-.7-.9-1-1.3 2.4-1.1 4.4-2.5 6-4.1-1.9-2.5-3-5.6-3.3-9.3h-1.1zm8.8 0h-6.4c.3 3.3 1.3 6 3 8.2 2-2.3 3.1-5.1 3.4-8.2z" fill="#fcfbfa"/><path d="m385.3 3.8h1.3v2.2h2.8v-2.2h1.3v2.2h4.1v9.1h1.7v1.3h-16.9v-1.3h1.7v-9.1h4.1v-2.2zm.4 13.1.7 1.2c-1.8.9-3.8 1.9-6 2.9-.2-.4-.5-.8-.8-1.3 2.3-1 4.3-1.9 6.1-2.8zm-3.1-6.4h2.8v-3.2h-2.8zm0 4.6h2.8v-3.3h-2.8zm4-4.6h2.8v-3.2h-2.8zm0 4.6h2.8v-3.3h-2.8zm3.7 1.9c2.1.9 4.1 1.8 6.1 2.7l-.7 1.3c-2.2-1.1-4.2-2-6.1-2.9zm3.2-9.7h-2.8v3.2h2.8zm-2.8 7.8h2.8v-3.3h-2.8z" fill="#fcfbfa"/></svg>