<svg enable-background="new 0 0 400 400" viewBox="0 0 400 400" xmlns="http://www.w3.org/2000/svg"><g fill="#010103"><path d="m161.85 89.43c4.97 2.22 9.23 3.69 13.04 5.93 5.42 3.18 11.1 3.79 17.2 3.71 16.99-.21 33.99-.07 50.98-.07h5.2c0-23.72 0-46.92 0-70.73 11.11 4.63 22.08 9.2 33.3 13.87-.81 1.21-1.21 2.19-1.92 2.82-8.28 7.31-10.65 16.43-9.65 27.25.8 8.58.16 17.29.16 26.55 1.8.09 3.38.23 4.96.23 18.49.02 36.99-.08 55.48.1 3.27.03 5.22-1 6.88-3.69 2.18-3.53 4.71-6.83 7.39-10.66 8.07 5.2 15.97 10.28 24.63 15.86-3.16 3.04-6.3 5.68-8.91 8.76-1.35 1.59-2.5 3.98-2.5 6.01 0 45.32.15 90.63.33 135.95.02 5.81.53 11.62.54 17.43 0 1.42-.64 3.65-1.64 4.13-6.84 3.27-13.85 6.17-21.34 9.43 0-9 0-17.27 0-25.89-21.9 0-43.47 0-64.97 0v110.74c-6.91 2.44-14.68 5.18-22.66 7.99 0-39.74 0-79.06 0-118.73-21.4 0-42.98 0-65.37 0 0 5.27-.17 10.7.07 16.11.13 3-.78 4.49-3.8 5.19-5.3 1.24-10.5 2.86-16.08 4.42 1.17-64.21 2.5-128.03-1.32-192.71zm21.41 85.07h65.31c0-21.98 0-43.54 0-65.19-21.92 0-43.48 0-65.31 0zm87.18.06h65.25c0-21.95 0-43.52 0-65.19-21.87 0-43.43 0-65.25 0zm-21.86 71.2c0-20.42 0-40.44 0-60.36-22.04 0-43.73 0-65.33 0v60.36zm87.21-60.4c-22.12 0-43.68 0-65.36 0v60.3h65.36c0-20.27 0-40.18 0-60.3z"/><path d="m35.28 261.12c5 .27 9.95.87 14.87.71 6.62-.22 13.22-.97 19.82-1.61 6.25-.61 10.35-4.32 12.88-9.76 7.76-16.71 16.06-33.21 22.91-50.28 13.41-33.43 25.97-67.2 38.88-100.84 2.55-6.65 2.58-6.67 10.25-4.15-1.33 4.14-2.59 8.32-4.01 12.44-16.76 48.46-33.55 96.91-50.3 145.37-7.04 20.37-9.68 41.23-7.72 62.77 1.02 11.24 1.13 22.59 1.25 33.89.09 8.61-2.9 13.77-7.66 14.68-6.53 1.26-15.85-4.71-18.86-12.12-2.83-6.98-1.66-13.96-.28-21.06 2.43-12.51 4.6-25.08 6.58-37.68 1.05-6.69-2.22-12.21-7.79-15.02-8.68-4.37-17.83-7.98-27.08-10.96-3.97-1.28-4.8-2.65-3.74-6.38z"/><path d="m60.86 40.81c1.82-.83 3.58-2.4 4.8-2.06 16.59 4.67 33.29 9.26 47.36 19.88 10.89 8.21 12.55 20.69 4.25 29.81-3.99 4.39-8.7 4.69-11.45-.4-10.35-19.2-26.87-32.23-43.62-45.13-.24-.19-.35-.54-1.34-2.1z"/><path d="m33.85 118.36c16.15 6.06 32.71 11.36 46.27 22.67 8.94 7.46 10.07 22.97 2.52 30.35-3.94 3.85-7.45 3.74-11.05-.42-.98-1.13-2.02-2.3-2.61-3.64-7.69-17.38-21.13-30.09-34.48-42.91-1.26-1.21-1.67-3.31-2.48-5 .6-.35 1.21-.7 1.83-1.05z"/></g><path d="m385.2 377.6.6-.7c.6.4 1.3.9 1.9 1.5l-.6.7c-.8-.5-1.4-1-1.9-1.5zm.3 7.1c.6-1.4 1.1-2.9 1.5-4.5.3.1.6.3.9.4-.5 1.4-1 2.9-1.5 4.4zm.2-10.1.6-.6c.7.5 1.3 1.1 1.9 1.6l-.7.7c-.6-.6-1.2-1.2-1.8-1.7zm8.4-.8h.8v.9h1.8v.7h-1.8v1.8h-.8v-.3h-1.2v.9h3.3v2.6h-.8v-.4h-2.5c0 .3 0 .6-.1.8h3.4v.7h-3.5c0 .3-.1.6-.1.8h4v.7h-3.5c.7.9 1.9 1.3 3.6 1.5-.2.2-.4.5-.6.9-1.9-.3-3.2-1.1-3.8-2.3-.5 1.1-1.8 2-3.9 2.4-.2-.3-.4-.5-.6-.8 1.9-.4 3.1-.9 3.6-1.7h-3.2v-.7h3.5c.1-.2.1-.5.2-.8h-3.3v-.7h3.4c0-.2 0-.5 0-.8h-2.4v.3h-.8v-2.6h3.3v-.9h-1.2v.3h-.8v-1.8h-1.8v-.7h1.8v-.9h.8v.9h3.2zm-4.4 5.5h2.4c0-.3 0-.6 0-.9h-2.4zm1.2-3.1h3.2v-.8h-3.2zm4.4 2.2h-2.4v.9h2.5v-.9z" fill="#fcfafa"/><path d="m389.2 385.8h.9v1.5h1.9v-1.5h.9v1.5h2.7v6h1.1v.9h-11.3v-.9h1.1v-6h2.7zm.2 8.7.5.8c-1.2.6-2.5 1.3-4 1.9-.2-.3-.3-.6-.6-.8 1.6-.6 3-1.3 4.1-1.9zm-2-4.3h1.9v-2.1h-1.9zm0 3.1h1.9v-2.2h-1.9zm2.7-3.1h1.9v-2.1h-1.9zm0 3.1h1.9v-2.2h-1.9zm2.4 1.3c1.4.6 2.7 1.2 4.1 1.8l-.5.9c-1.5-.7-2.8-1.4-4.1-1.9zm2.2-6.5h-1.9v2.1h1.9zm-1.9 5.2h1.9v-2.2h-1.9z" fill="#fcfafa"/></svg>