<svg enable-background="new 0 0 400 400" viewBox="0 0 400 400" xmlns="http://www.w3.org/2000/svg"><g fill="#010103"><path d="m375.97 332.3v5.32c-13.7 1.28-26.66 4.27-34.82 17.44-56.83-24.34-99.69-63.08-126.98-119.27v5.12c0 34.16-.17 68.32.11 102.47.08 9.36-3.67 16.2-11.24 20.84-5.59 3.43-11.79 5.87-18 8.89-10.08-21.06-29.95-25.29-48.85-31.25 0-1.55 0-2.99 0-4.95 7.88 1.17 15.48 2.61 23.15 3.36 8.75.86 17.56 1.41 26.35 1.54 6.05.09 7.26-1.53 7.24-7.43-.1-39.65-.19-79.31-.37-118.96-.02-5.41-.55-10.82-.88-17.02 12.6 4.36 24.31 8.41 36.87 12.75-4.51 3.09-8.37 5.74-12.2 8.36 3.46 9.14 23.89 34.94 35.72 45.19 10.72-3.63 37.04-25.6 54.67-45.68 7.68 6.8 15.36 13.59 22.37 19.8-23.71 10.96-47.29 21.86-71.52 33.06 33.1 33.91 71.11 55.8 118.38 60.42z"/><path d="m277.49 163.08c-30.93 20.53-65.52 30.35-101.8 36.44-.39-1.33-.67-2.22-.92-3.11-.21-.76-.39-1.52-.64-2.5 32.39-10.51 64.06-21.89 89.44-44.44-11.49-17.66-22.68-34.87-33.91-52.13-10.03 14.42-21.84 28.85-36.59 40.35-4.01-1.72-1.88-3.7-.77-5.63 7.53-13.11 15.61-25.94 22.45-39.4 10.03-19.74 16.56-40.85 21.92-63.21 9.69 5.05 19.03 9.91 28.83 15.02-.92.75-1.41 1.48-2.03 1.6-6.9 1.3-10.61 6.07-13.57 11.92-3.42 6.74-7.15 13.34-11.2 20.85h6.19c26.17 0 52.33-.09 78.5.1 3.75.03 6.21-1.16 8.5-3.91 3.39-4.06 7.09-7.87 10.29-11.39 8.28 8.26 16.34 16.31 24.83 24.78-8.3 0-16.53.19-24.75-.09-3.8-.13-5.82.99-7.67 4.52-11.31 21.48-25.93 40.61-42.97 58.5 10.01 8.74 20.94 15.51 32.67 21.02 14.83 6.97 30.38 11.63 46.67 13.53 4.01.47 4.62 2.33 3.61 6-12.92.12-22.85 5.73-29.06 17.53-26.27-10.59-47.45-27.96-68.02-46.35zm1.12-26.27c9.36-7.46 31.72-38.7 34.38-47.97-25.35 0-50.66 0-76.18 0 5.99 12.74 26.69 36.43 41.8 47.97z"/><path d="m183.91 27.81c4.28 8.11 8.35 15.84 12.5 23.72-22.92-1.7-43.91 6.58-65.71 9.1-12.52 1.45-24.95 3.63-37.42 5.5-1.29.19-2.56.46-4 .72v16.15h5.53c22.83 0 45.66-.1 68.48.1 3.79.03 6.19-1.03 8.19-4.21 1.84-2.93 4.26-5.48 6.81-8.68 6.73 5.76 13.23 11.32 19.64 16.8-.18.48-.19.69-.29.75-9.8 5.6-11.62 14.24-10.82 24.85 1.07 14.25.77 28.6 1.25 42.9.11 3.18-.48 5.24-3.66 6.66-4.65 2.08-9.05 4.72-14.34 7.54 0-5.47 0-10.17 0-15.26-27.65 0-54.72 0-81.85 0-1.99 8.52-3.63 17.31-6.11 25.85-7.9 27.23-23.07 49.9-43.94 68.94-2.44 2.22-4.11 2.36-6.24-.44 4.71-7.48 9.51-15 14.23-22.57 13.92-22.33 21.11-46.85 22.71-72.93 1.12-18.24 1.55-36.55 1.62-54.83.06-15.95-.83-31.89-1.31-48.53 4.5 2.2 8.63 4.54 13.01 6.24 2.65 1.03 5.84 1.89 8.52 1.39 32.09-5.9 63.54-13.99 93.2-29.76zm-94.58 65.44v50.5h80.11c0-16.95 0-33.64 0-50.5-26.8 0-53.23 0-80.11 0z"/><path d="m137.89 258.86c-23.51 1.21-45.87-2.23-67.82 3.61-1.2.32-3.08.08-3.95-.69-4.19-3.73-8.14-7.73-11.69-12.78h5.2c23.65 0 47.31-.14 70.96.11 5.13.05 9.33-1.05 13.21-4.36 2.9-2.47 6.14-4.53 9.61-7.05 6.58 5.63 13.09 11.2 19.78 16.92-17.37 16.74-33.77 34.23-51.91 49.65-26.42 22.45-57.5 36.82-90.61 46.74-1.35.4-3.05-.41-4.59-.65.97-1.27 1.67-3.08 2.95-3.72 25.19-12.66 49.42-26.83 71.06-45.07 12.65-10.66 24.1-22.46 33.55-36.11 1.19-1.76 2.3-3.58 4.25-6.6z"/></g><path d="m385.2 377.6.6-.7c.6.4 1.3.9 1.9 1.5l-.6.7c-.8-.5-1.4-1-1.9-1.5zm.3 7.1c.6-1.4 1.1-2.9 1.5-4.5.3.1.6.3.9.4-.5 1.4-1 2.9-1.5 4.4zm.2-10.1.6-.6c.7.5 1.3 1.1 1.9 1.6l-.7.7c-.6-.6-1.2-1.2-1.8-1.7zm8.4-.8h.8v.9h1.8v.7h-1.8v1.8h-.8v-.3h-1.2v.9h3.3v2.6h-.8v-.4h-2.5c0 .3 0 .6-.1.8h3.4v.7h-3.5c0 .3-.1.6-.1.8h4v.7h-3.5c.7.9 1.9 1.3 3.6 1.5-.2.2-.4.5-.6.9-1.9-.3-3.2-1.1-3.8-2.3-.5 1.1-1.8 2-3.9 2.4-.2-.3-.4-.5-.6-.8 1.9-.4 3.1-.9 3.6-1.7h-3.2v-.7h3.5c.1-.2.1-.5.2-.8h-3.3v-.7h3.4c0-.2 0-.5 0-.8h-2.4v.3h-.8v-2.6h3.3v-.9h-1.2v.3h-.8v-1.8h-1.8v-.7h1.8v-.9h.8v.9h3.2zm-4.4 5.5h2.4c0-.3 0-.6 0-.9h-2.4zm1.2-3.1h3.2v-.8h-3.2zm4.4 2.2h-2.4v.9h2.5v-.9z" fill="#fcfafa"/><path d="m389.2 385.8h.9v1.5h1.9v-1.5h.9v1.5h2.7v6h1.1v.9h-11.3v-.9h1.1v-6h2.7zm.2 8.7.5.8c-1.2.6-2.5 1.3-4 1.9-.2-.3-.3-.6-.6-.8 1.6-.6 3-1.3 4.1-1.9zm-2-4.3h1.9v-2.1h-1.9zm0 3.1h1.9v-2.2h-1.9zm2.7-3.1h1.9v-2.1h-1.9zm0 3.1h1.9v-2.2h-1.9zm2.4 1.3c1.4.6 2.7 1.2 4.1 1.8l-.5.9c-1.5-.7-2.8-1.4-4.1-1.9zm2.2-6.5h-1.9v2.1h1.9zm-1.9 5.2h1.9v-2.2h-1.9z" fill="#fcfafa"/></svg>