<svg enable-background="new 0 0 400 400" viewBox="0 0 400 400" xmlns="http://www.w3.org/2000/svg"><g fill="#010103"><path d="m235.06 102.27c-25.7 0-51.64 0-77.45 0-.79 5.25-1.11 10.71-2.51 15.88-3.14 11.67-15.23 18.53-26.89 15.75-5.42-1.29-7.02-4.65-4.5-9.67.74-1.48 1.55-3.01 2.67-4.19 11.72-12.33 18.03-27.35 21.79-43.87h8.1v15.46h79.22c0-13.03 0-25.93 0-38.8-.33-.22-.59-.57-.85-.56-23.22.43-46.61-2.56-69.56 3.44-1.1.29-2.83.11-3.59-.59-3.98-3.67-7.74-7.57-12.71-12.52h7.28c51.16 0 102.32-.06 153.47.1 4.44.01 7.52-1.22 10.24-4.65 3.09-3.89 6.64-7.41 9.55-10.61 8.31 8.31 16.45 16.45 24.55 24.55-31.6 0-63.93 0-96.53 0v39.95h5.52c23.5 0 46.99-.13 70.49.11 4.98.05 8.98-.95 12.56-4.49 2.58-2.54 5.69-4.54 9.01-7.13 6.1 7.47 12.07 14.77 18.4 22.51-16.9 4.16-29.25 14.7-41.4 25.71-1.29 1.17-4.32.4-7.93.61 6-9.93 11.02-18.23 16.33-27.01-27.95 0-55.2 0-82.94 0-.1 1.36-.29 2.79-.29 4.21.09 17.66.15 35.32.36 52.98.09 7.31.36 14.63.85 21.93.18 2.69-.7 3.9-3.13 4.71-6.76 2.25-13.46 4.66-20.11 6.98 0-30.27 0-60.4 0-90.79z"/><path d="m179.92 336.81c8.59 1.22 16.56 2.47 24.58 3.45 6.1.74 12.23 1.4 18.37 1.61 8.41.29 12.68-3.35 12.84-11.67.32-16.65.1-33.3.1-50.5-2.02-.11-3.79-.28-5.56-.28-23.33-.02-46.67-.29-69.99.14-8.22.15-16.4 2.2-24.63 3.05-1.96.2-4.51-.37-6.01-1.56-3.76-3-7.07-6.57-11.72-11.01h117.61c0-17.98 0-35.21 0-52.79-1.75-.09-3.36-.24-4.97-.24-15.5-.02-31.01-.35-46.49.13-8.41.26-16.81 1.66-25.13 3.08-2.83.48-4.54.15-6.48-1.88-3.39-3.55-7.08-6.8-10.65-10.18.23-.41.47-.82.7-1.23h5.27c52.83 0 105.65-.03 158.48.07 3.62.01 6.24-.78 8.58-3.71 3.3-4.13 7.08-7.88 10.29-11.39 8.42 8.4 16.64 16.6 24.87 24.8-30.33 0-61.28 0-92.57 0v53.12h4.76c22.16 0 44.33.1 66.49-.14 2.42-.03 5.3-1.46 7.12-3.15 4.13-3.83 7.73-8.23 11.18-12 8.22 8.2 16.38 16.35 24.85 24.8-38 0-76.16 0-114.73 0 0 13.87.09 27-.04 40.13-.07 7.47-.24 14.97-.86 22.41-.69 8.24-4.63 14.93-11.64 19.4-6.4 4.08-13.08 7.72-20.06 11.8-9.03-17.49-24.74-24.02-41.48-28.76-4.9-1.37-2.27-4.48-3.08-7.5z"/><path d="m30.21 266.44c0-.33 0-1.76 0-3.44h15.53c2.5 0 5 .03 7.5-.01 12.76-.21 16.66-2.43 20.47-14.63 7.11-22.79 13.88-45.69 20.11-68.74 6.92-25.61 13.06-51.43 19.59-77.35 2.06.39 4.11.78 6.65 1.27-2.49 12.24-4.86 24.22-7.36 36.17-8.71 41.58-17.75 83.1-26.07 124.75-3.77 18.86-2.6 38.09-1.97 57.24.36 11.1.38 22.31-.79 33.32-1.01 9.49-6.84 11.46-14.87 6.29-8.11-5.23-11.57-15.54-9.76-27.03 2.17-13.75 3.96-27.57 5.72-41.39.86-6.69-2.18-12.08-7.9-14.95-8.52-4.25-17.51-7.56-26.85-11.5z"/><path d="m31.32 118.76c12.47 6.77 25.32 12.94 37.3 20.48 10.07 6.34 13.01 17.46 8.1 27.31-1.68 3.37-5.34 7.37-8.57 7.84-2.41.35-6.26-4.05-8.29-7.11-4.92-7.45-8.72-15.66-13.78-23-4.5-6.53-10.2-12.22-15.13-18.47-1.09-1.38-1.16-3.55-1.7-5.36.69-.56 1.38-1.13 2.07-1.69z"/><path d="m56.57 42.2c1.05-1.6 1.86-2.81 3.37-5.11 11.43 6.55 23.18 12.4 33.96 19.69 11.71 7.92 14.13 19.98 7.88 31.42-3.28 6.01-6.67 6.2-10.71.62-.39-.54-.77-1.1-1.05-1.7-7.88-17.18-19.83-31.37-33.45-44.92z"/><path d="m335.76 163.33v9.49c-19.18 0-38.11 0-57.44 0 0-3.04 0-6.09 0-9.49z"/><path d="m214.81 166.38v9.39c-18.68 0-37.17 0-55.94 0 0-3.15 0-6.08 0-9.39z"/><path d="m333.75 142.23c-18.66 0-36.89 0-55.47 0 0-3.06 0-5.93 0-9.11h55.47z"/><path d="m214.78 133.25v8.8c-18.19 0-36.2 0-54.54 0 0-2.84 0-5.61 0-8.8z"/></g><path d="m385.2 377.6.6-.7c.6.4 1.3.9 1.9 1.5l-.6.7c-.8-.5-1.4-1-1.9-1.5zm.3 7.1c.6-1.4 1.1-2.9 1.5-4.5.3.1.6.3.9.4-.5 1.4-1 2.9-1.5 4.4zm.2-10.1.6-.6c.7.5 1.3 1.1 1.9 1.6l-.7.7c-.6-.6-1.2-1.2-1.8-1.7zm8.4-.8h.8v.9h1.8v.7h-1.8v1.8h-.8v-.3h-1.2v.9h3.3v2.6h-.8v-.4h-2.5c0 .3 0 .6-.1.8h3.4v.7h-3.5c0 .3-.1.6-.1.8h4v.7h-3.5c.7.9 1.9 1.3 3.6 1.5-.2.2-.4.5-.6.9-1.9-.3-3.2-1.1-3.8-2.3-.5 1.1-1.8 2-3.9 2.4-.2-.3-.4-.5-.6-.8 1.9-.4 3.1-.9 3.6-1.7h-3.2v-.7h3.5c.1-.2.1-.5.2-.8h-3.3v-.7h3.4c0-.2 0-.5 0-.8h-2.4v.3h-.8v-2.6h3.3v-.9h-1.2v.3h-.8v-1.8h-1.8v-.7h1.8v-.9h.8v.9h3.2zm-4.4 5.5h2.4c0-.3 0-.6 0-.9h-2.4zm1.2-3.1h3.2v-.8h-3.2zm4.4 2.2h-2.4v.9h2.5v-.9z" fill="#fcfafa"/><path d="m389.2 385.8h.9v1.5h1.9v-1.5h.9v1.5h2.7v6h1.1v.9h-11.3v-.9h1.1v-6h2.7zm.2 8.7.5.8c-1.2.6-2.5 1.3-4 1.9-.2-.3-.3-.6-.6-.8 1.6-.6 3-1.3 4.1-1.9zm-2-4.3h1.9v-2.1h-1.9zm0 3.1h1.9v-2.2h-1.9zm2.7-3.1h1.9v-2.1h-1.9zm0 3.1h1.9v-2.2h-1.9zm2.4 1.3c1.4.6 2.7 1.2 4.1 1.8l-.5.9c-1.5-.7-2.8-1.4-4.1-1.9zm2.2-6.5h-1.9v2.1h1.9zm-1.9 5.2h1.9v-2.2h-1.9z" fill="#fcfafa"/></svg>