<svg enable-background="new 0 0 400 400" viewBox="0 0 400 400" xmlns="http://www.w3.org/2000/svg"><g fill="#010103"><path d="m325.91 218.84c6.73 5.76 13.03 11.16 19.81 16.97-1.25 1.35-2.17 2.74-3.43 3.64-5.45 3.87-6.54 9.06-6.44 15.55.46 30.32.39 60.65.58 90.98.03 4.98.61 9.97.5 14.94-.03 1.37-1.31 3.47-2.52 3.93-5.87 2.24-11.91 4.03-18.46 6.17 0-5.27 0-10.16 0-15.44-49.38 0-98.25 0-147.08 0-.22.38-.56.68-.52.92 1.3 7.46-2.36 11.12-9.24 12.93-3.65.96-7.05 2.92-10.04 4.21 0-50.27 0-100.61 0-151.31 1.07.48 2.04.75 2.83 1.28 10.99 7.34 23.1 8.58 36.1 8.4 39.82-.54 79.66-.26 119.49-.11 4.65.02 8.29-.63 11.03-4.9 1.86-2.89 4.64-5.18 7.39-8.16zm-10.34 23.07c-49.21 0-98.18 0-147.05 0v103.29h147.05c0-34.63 0-68.87 0-103.29z"/><path d="m218.83 55.34c-7.8 0-15.88 0-24.17 0-.87 8.3-1.53 16.38-2.61 24.4-2.74 20.46-6.02 40.88-16.57 59.05-12.22 21.05-30.58 35.66-51.64 47.12-.49-.23-.98-.46-1.47-.69.76-1.79 1.02-4.16 2.34-5.28 25.9-22 40.64-50.01 45.23-83.49 1.84-13.46 3.38-26.96 5.1-40.78-8.56-1.45-16.23-.82-23.54 2.1-4.6 1.84-7.68.85-10.75-2.87-2.63-3.18-5.96-5.79-8.67-9.91h5.01c25.65 0 51.31-.13 76.96.12 4.37.04 7.15-1.23 9.41-4.79 1.68-2.65 3.86-4.98 6.25-7.99 6.14 5.18 12.14 10.25 18.03 15.22-.23.72-.24 1.17-.44 1.3-8.7 5.78-9.19 14.28-9.54 23.86-.9 24.55-2.7 49.09-4.85 73.57-1.34 15.22-13.32 29.59-27.59 34.79-1.68-13.99-12.26-19.97-23.37-25.49.15-.8.21-1.45.4-2.06.29-.93.67-1.84.94-2.56 4.76.69 9.31 1.78 13.89 1.94 10.01.36 16.43-5.11 17.67-15.06 1.15-9.22 1.98-18.49 2.64-27.76.65-9.12 1.08-18.26 1.3-27.4.21-8.94.04-17.89.04-27.34z"/><path d="m326.36 181.49c-2.34-14.71-13.25-20.27-24.4-25.71-.56-4.33.75-5.7 5.27-4.24 3.26 1.05 6.86 1.34 10.32 1.41 10.85.22 17.1-5.21 18.36-16.13 1.12-9.73 2.1-19.5 2.65-29.27.89-15.93 1.39-31.89 2.02-47.84.05-1.3-.14-2.61-.25-4.27-8.73 0-17.27 0-25.95 0-1.44 12.1-2.16 24.25-4.49 36.07-2.71 13.76-5.76 27.65-10.61 40.76-6.75 18.24-20.98 30.9-36.35 42.1-5.77 4.2-11.95 7.82-18.19 11.86-1.08-1.39-1.95-2.51-3.26-4.2 42.2-31.71 53.03-76.81 53.68-126.6-8-.84-16.04-.87-23.75 2.21-4.74 1.89-8.34 1.32-11.65-2.9-2.51-3.2-5.83-5.77-9.93-9.73h6.84c26.49 0 52.98-.1 79.47.1 4.35.03 7.2-.83 8.82-5.15.97-2.59 2.75-4.87 4.35-7.58 7.09 5.21 13.89 10.2 20.57 15.1-.09.65-.03 1.16-.18 1.24-12.72 6.33-10.61 18.33-11.29 29.31-1.38 22.22-2.42 44.48-4.43 66.65-1.58 17.35-11.8 29-27.62 36.81z"/><path d="m117.86 97.85c1.98.42 3.87.82 6.44 1.37-1.11 6.03-2.08 12.01-3.32 17.93-8.54 40.74-17.18 81.45-25.71 122.2-2.61 12.48-5.86 24.91-7.2 37.53-1.24 11.67-.39 23.57-.34 35.37.07 14.1.95 28.24.2 42.3-.56 10.41-7.24 12.71-15.9 6.63-6.28-4.41-9.18-10.88-8.91-18.05.38-10.08 2.14-20.1 3.09-30.17.75-7.93 1.4-15.88 1.7-23.84.22-5.81-2.91-10.53-7.6-13.27-6.54-3.81-13.57-6.84-20.59-9.71-3.16-1.29-4.72-2.57-3.22-6.18 7.42 0 14.84.1 22.26-.03 8.21-.14 14.42-3.19 16.98-11.75 7.32-24.48 15.18-48.81 22.04-73.42 6.9-24.76 12.84-49.78 19.21-74.68.15-.61.46-1.19.87-2.23z"/><path d="m113.12 195h5.39c68.8 0 137.61-.03 206.41.09 4.01.01 6.88-.92 9.41-4.1 3.09-3.89 6.66-7.41 9.65-10.68 8.28 8.28 16.43 16.43 24.76 24.75-1.62 0-3.53 0-5.44 0-70.3.03-140.61-.03-210.91.24-7.56.03-15.1 2.12-22.68 2.93-1.96.21-4.52-.26-5.98-1.44-4-3.2-7.57-6.95-11.31-10.48.23-.43.46-.87.7-1.31z"/><path d="m34.61 116.65c14.56 6.68 29.42 12.24 40.79 23.77 7.91 8.03 7.72 21.83-.25 29.69-4.29 4.23-7.61 3.91-10.94-1.09-.46-.69-.97-1.39-1.22-2.17-5.89-18.22-17.73-32.45-31.12-46.01.91-1.39 1.76-2.69 2.74-4.19z"/><path d="m61.3 35.41c13.91 5.73 28.07 11.07 39.71 20.99 10.15 8.65 7.86 20.94.73 29.74-2.16 2.67-4.94 2.84-7.29.31-1.89-2.04-3.69-4.33-4.9-6.81-6.9-14.19-16.45-26.42-27.38-37.67-2.66-2.73-2.65-2.74-.87-6.56z"/><path d="m125.24 79.11c11.16 5.91 22.05 11.85 30.96 20.79 4.95 4.97 6.92 10.72 5 17.67-.97 3.53-2.27 6.71-6.25 7.58-4.29.93-6.3-2.14-8.16-5.15-5.83-9.41-11.55-18.89-17.45-28.26-1.4-2.23-3.21-4.24-5.05-6.15-2.28-2.37-1.96-4.29.95-6.48z"/><path d="m285.37 109.37c-2.12 4.13-3.66 8.74-6.53 12.26-3.39 4.16-7.26 3.31-10.08-1.24-.52-.84-1.07-1.72-1.37-2.65-3.91-12.01-11.67-21.46-19.99-30.61-1.19-1.31-1.34-3.58-1.97-5.41 1.82.17 3.92-.18 5.41.61 9.34 4.94 18.69 9.9 27.73 15.36 3.77 2.28 6.06 6.15 5.45 11.04.45.21.9.42 1.35.64z"/><path d="m198.47 332.97c0-26.44 0-52.35 0-78.69 4.21 2.19 8.4 4.75 12.89 6.58 3.56 1.45 7.46 2.72 11.24 2.84 11.31.37 22.64-.07 33.95.24 4.04.11 6.49-1.17 8.36-4.62 1.57-2.89 3.6-5.53 5.57-8.49 6.7 5.27 13.19 10.38 20.45 16.1-10.5 4.99-9.17 13.98-8.88 22.61.31 9.3.39 18.62 1.04 27.9.3 4.34-.67 6.7-5.18 7.8-4.63 1.13-9.06 3.09-14.28 4.93 0-3.88 0-7.28 0-10.91-16.01 0-31.41 0-47.47 0 2.02 7.37-3.4 8.41-8.29 10.06-3.09 1.04-6.12 2.36-9.4 3.65zm18.05-59.29v34.95h46.61c0-11.83 0-23.36 0-34.95-15.73 0-31 0-46.61 0z"/></g><path d="m385.2 377.6.6-.7c.6.4 1.3.9 1.9 1.5l-.6.7c-.8-.5-1.4-1-1.9-1.5zm.3 7.1c.6-1.4 1.1-2.9 1.5-4.5.3.1.6.3.9.4-.5 1.4-1 2.9-1.5 4.4zm.2-10.1.6-.6c.7.5 1.3 1.1 1.9 1.6l-.7.7c-.6-.6-1.2-1.2-1.8-1.7zm8.4-.8h.8v.9h1.8v.7h-1.8v1.8h-.8v-.3h-1.2v.9h3.3v2.6h-.8v-.4h-2.5c0 .3 0 .6-.1.8h3.4v.7h-3.5c0 .3-.1.6-.1.8h4v.7h-3.5c.7.9 1.9 1.3 3.6 1.5-.2.2-.4.5-.6.9-1.9-.3-3.2-1.1-3.8-2.3-.5 1.1-1.8 2-3.9 2.4-.2-.3-.4-.5-.6-.8 1.9-.4 3.1-.9 3.6-1.7h-3.2v-.7h3.5c.1-.2.1-.5.2-.8h-3.3v-.7h3.4c0-.2 0-.5 0-.8h-2.4v.3h-.8v-2.6h3.3v-.9h-1.2v.3h-.8v-1.8h-1.8v-.7h1.8v-.9h.8v.9h3.2zm-4.4 5.5h2.4c0-.3 0-.6 0-.9h-2.4zm1.2-3.1h3.2v-.8h-3.2zm4.4 2.2h-2.4v.9h2.5v-.9z" fill="#fcfafa"/><path d="m389.2 385.8h.9v1.5h1.9v-1.5h.9v1.5h2.7v6h1.1v.9h-11.3v-.9h1.1v-6h2.7zm.2 8.7.5.8c-1.2.6-2.5 1.3-4 1.9-.2-.3-.3-.6-.6-.8 1.6-.6 3-1.3 4.1-1.9zm-2-4.3h1.9v-2.1h-1.9zm0 3.1h1.9v-2.2h-1.9zm2.7-3.1h1.9v-2.1h-1.9zm0 3.1h1.9v-2.2h-1.9zm2.4 1.3c1.4.6 2.7 1.2 4.1 1.8l-.5.9c-1.5-.7-2.8-1.4-4.1-1.9zm2.2-6.5h-1.9v2.1h1.9zm-1.9 5.2h1.9v-2.2h-1.9z" fill="#fcfafa"/></svg>