<svg enable-background="new 0 0 400 400" viewBox="0 0 400 400" xmlns="http://www.w3.org/2000/svg"><g fill="#010105"><path d="m340.8 371.07c0-6.01 0-11.29 0-16.81-46.27 0-92.16 0-138.55 0v12.51c-7.12 2.37-13.86 4.62-20.87 6.96 0-58.87 0-117.28 0-176.32 5.95 3.16 11.54 6.35 17.34 9.11 2.45 1.16 5.33 1.98 8.02 1.99 42.47.12 84.95.02 127.42.19 3.92.02 6.09-1.19 7.79-4.56 2.16-4.29 4.76-8.36 7.45-13.02 7.27 5.81 14.23 11.37 21.09 16.85-.14.61-.11 1.01-.29 1.18-8.14 7.44-9.62 16.68-9.41 27.4.69 36.3.46 72.61.65 108.92.03 5.15.6 10.29.5 15.43-.03 1.37-1.3 3.49-2.5 3.94-5.86 2.24-11.9 4.03-18.64 6.23zm-138.59-27.55h138.41c0-20.99 0-41.56 0-62.12-46.31 0-92.31 0-138.41 0zm138.43-124.92c-46.3 0-92.31 0-138.2 0v52.1h138.2c0-17.53 0-34.76 0-52.1z"/><path d="m100.7 28.02c11 4.29 21.32 8.31 32.56 12.69-3.28 3.3-6.28 6.08-8.97 9.12-1.11 1.25-2.19 3.08-2.2 4.66-.13 30.83-.1 61.65.39 92.73 14.99-19.56 27.66-40.48 37.62-63.78 8.26 9.24 16.07 17.97 24.7 27.63-13.04.74-19.21 10.14-26.65 17.72-11.09 11.29-22.17 22.59-33.04 34.09-1.62 1.71-2.86 4.46-2.99 6.8-1.13 19.25-1.82 38.52-2.97 57.77-.25 4.21.89 6.5 4.56 8.71 13.98 8.44 27.64 17.42 38.84 29.52 10.5 11.34 12.87 23.76 6.62 36.14-1.43 2.82-4.46 4.84-6.75 7.22-2.03-2.45-4.93-4.6-5.93-7.42-4.43-12.48-10.1-24.27-18.1-34.83-6.39-8.43-13.13-16.61-20.65-26.07-9.55 54.25-34.87 98.02-74.17 134.52-1.32-1.2-2.61-2.36-3.94-3.57 7.09-9.93 14.36-19.43 20.89-29.42 20.24-30.96 32.88-64.85 37.38-101.56 1.7-13.83 2.7-27.82 2.94-41.75.64-36.8.87-73.62.92-110.43.03-18.64-.68-37.29-1.05-55.93-.03-1.28-.01-2.56-.01-4.56z"/><path d="m321.83 174.33c0-6.12 0-11.41 0-16.97-36.6 0-72.82 0-109.65 0 0 3.98.15 7.77-.09 11.54-.07 1.2-.89 2.97-1.85 3.39-6.21 2.72-12.55 5.14-18.77 7.62 0-44.74 0-89.1 0-133.99 6.08 3.62 11.95 7.31 18.02 10.63 2.07 1.14 4.64 1.94 6.98 1.95 33.16.12 66.31.04 99.47.16 3.25.01 5.23-1.08 6.97-3.67 2.77-4.12 5.8-8.06 9.02-12.49 7.63 6.17 14.94 12.09 22.82 18.47-3.33 2.64-6.26 5.24-9.46 7.43-2.64 1.81-3.37 3.96-3.36 7.1.12 28.99 0 57.98.16 86.97.02 3.6-1.03 5.43-4.45 6.45-5.06 1.53-10 3.41-15.81 5.41zm-109.39-27.74h109.16c0-26.31 0-52.22 0-78.19-36.55 0-72.76 0-109.16 0z"/><path d="m70.24 124.14h6.16c0 9.81.66 19.47-.16 29-1.11 12.85-2.83 25.7-5.3 38.35-1.91 9.81-8.87 16.21-18.07 19.82-4.98 1.96-10.26 1.61-13.76-2.63-1.66-2.01-1.89-5.8-1.61-8.66.23-2.27 1.83-4.77 3.52-6.47 16.69-16.8 22.15-38.53 26.96-60.57.53-2.43 1.04-4.87 1.6-7.3.11-.47.38-.9.66-1.54z"/></g><path d="m362.1 8.8c1.1.8 2.1 1.6 3.1 2.4l-1 1.1c-1.3-1.1-2.3-2-3-2.5zm1.9 4.8c.5.2.9.4 1.4.5-.6 2.3-1.3 4.5-1.9 6.8l-1.5-.5c.8-2.1 1.4-4.3 2-6.8zm-1-9.4c1.3.9 2.4 1.8 3.4 2.5l-1 1.1c-1.4-1.2-2.4-2.1-3.2-2.6zm3.7 2.2v-1.4h10.3v1.2c-.5 3.6-1.8 6.8-4 9.4 1.5 1.6 3.4 2.8 5.7 3.8-.3.4-.7.8-1.1 1.4-2.3-1.1-4.1-2.5-5.6-4.1-1.6 1.6-3.6 3.1-5.9 4.3-.3-.5-.7-.9-1-1.3 2.4-1.1 4.4-2.5 6-4.1-1.9-2.5-3-5.6-3.3-9.3h-1.1zm8.8 0h-6.4c.3 3.3 1.3 6 3 8.2 2-2.3 3.1-5.1 3.4-8.2z" fill="#fcfbfa"/><path d="m385.3 3.8h1.3v2.2h2.8v-2.2h1.3v2.2h4.1v9.1h1.7v1.3h-16.9v-1.3h1.7v-9.1h4.1v-2.2zm.4 13.1.7 1.2c-1.8.9-3.8 1.9-6 2.9-.2-.4-.5-.8-.8-1.3 2.3-1 4.3-1.9 6.1-2.8zm-3.1-6.4h2.8v-3.2h-2.8zm0 4.6h2.8v-3.3h-2.8zm4-4.6h2.8v-3.2h-2.8zm0 4.6h2.8v-3.3h-2.8zm3.7 1.9c2.1.9 4.1 1.8 6.1 2.7l-.7 1.3c-2.2-1.1-4.2-2-6.1-2.9zm3.2-9.7h-2.8v3.2h2.8zm-2.8 7.8h2.8v-3.3h-2.8z" fill="#fcfbfa"/></svg>