<svg enable-background="new 0 0 400 400" viewBox="0 0 400 400" xmlns="http://www.w3.org/2000/svg"><g fill="#010100"><path d="m101.34 255.93c-6.3 31.66-17.82 59.86-37.07 84.63-10.17 13.08-21.85 24.6-34.85 34.29-.62 0-.86.07-.92-.01-.82-1.04-1.61-2.09-2.47-3.24.39-.59.7-1.16 1.1-1.66 16.68-21.07 31.54-43.24 42.21-68.07 8.15-18.98 11.85-38.98 14.58-59.26 4.77-35.44 4.11-71.06 3.65-106.68-.28-21.47-.74-42.94-.96-64.42-.15-14.12-.03-28.25-.03-43.02 10.01 5.46 20.09 10.95 30.17 16.44-.33.63-.37.83-.49.92-8.81 5.96-9.58 14.56-9.39 24.37.54 27.14.19 54.3.73 81.71 13.1-16.27 25.13-33.13 31.97-53.88 8.33 5.99 16.49 11.85 25.14 18.07-23.18 9.9-37.52 29.85-55.71 45.08-1.08.91-1.79 2.8-1.87 4.28-1.42 25.9-2.64 51.81-4.11 77.7-.24 4.25.67 6.66 4.86 8.81 15.59 7.98 30.6 16.92 42.32 30.37 8.82 10.13 11.95 21.42 6.53 34.12-1.11 2.59-3.69 5.77-6.06 6.22-1.91.36-5.37-2.5-6.67-4.77-4.43-7.77-7.85-16.12-12.31-23.87-7.98-13.91-18.68-25.75-30.35-38.13z"/><path d="m167.74 164.78c18.1-1.54 34.55-2.93 52.42-4.45-3.19-6.87-6.17-13.01-8.85-19.3-.6-1.41-.09-3.29-.09-4.95.71-.31 1.42-.62 2.13-.92 6.92 6.38 14.44 12.25 20.61 19.29 6.95 7.95 5.7 17.62-1.72 23.92-3.51 2.98-5.43 2.58-7.05-1.62-.65-1.69-.99-3.5-1.45-5.26-.41-1.59-.8-3.2-1.43-5.73-20.09 4.25-40.73 6.6-58.52 19.58-4.02-7.11-8.09-14.28-12.14-21.44 20.82-13.96 30.9-35.11 40.52-56.58-.35-.44-.7-.88-1.05-1.32-3.1 1.57-6.19 3.14-9.81 4.98-3.54-7.48-7.16-15.15-10.77-22.77 30.39-13.02 54.06-33.21 71.18-61.46 8.75 6.9 17.46 13.78 26.41 20.85-26.31 6.63-44.19 26.56-67.82 38.93h111.22c.26-.65.51-1.29.77-1.94-10.19-8.84-20.39-17.68-31.04-26.92.66-1.33 1.5-3.02 2.5-5.05 18.5 9.31 36.85 17.96 52.45 31.2 5.72 4.86 9.61 11.03 10.15 18.8.38 5.48-1.82 10.09-5.42 14.03-3.05 3.34-4.78 3.07-7.43-.75-4.56-6.55-9.23-13.01-13.65-19.65-1.69-2.54-3.66-3.43-6.63-3.21-23.04 1.69-46.11 2.94-69.11 5.05-14.84 1.36-29.57 3.95-44.35 6-.46.06-.9.29-2.33.77 6.15 5.72 11.9 11.07 18.07 16.8-19.05 10.57-32.37 26.83-47.77 43.12z"/><path d="m375.66 237.55c-1.31 1.14-2.46 2.59-3.96 3.36-4.4 2.25-9.48 3.53-13.24 6.52-3.28 2.6-5.13 6.99-8.03 11.2-39.86-8.54-71.79-30.72-95.96-65.17-33.16 30.9-69.98 54.92-114.17 66.73-1.36-4.17-.94-6.47 3.59-8.49 35.88-16.01 67.25-38.3 92.91-68.27 2.47-2.89 4.5-6.18 6.51-9.43 1.92-3.1 3.55-6.38 5.64-10.19 6.95 6.46 13.82 12.84 21.04 19.54-3.88 2.04-7.34 3.85-11.41 5.98 32.59 31.58 71.24 46.61 115.96 46.78.37.48.75.96 1.12 1.44z"/><path d="m324.42 288.77c7.47 8.43 14.62 16.49 22.61 25.49-3.65.47-6.28 1.1-8.93 1.11-12.82.03-23.49 6.2-34.53 11.58-42.74 20.86-87.45 35.96-134.18 44.93-7.61 1.46-15.33 2.37-22.96 3.52-2.1-4.56.28-5.65 3.59-6.44 46.96-11.15 91.51-28.68 134.19-51.03 14.63-7.66 28.44-16.62 40.21-29.16z"/><path d="m300.12 105.5c7.37 5.53 14.35 10.77 21.8 16.36-18.01 9.91-29.76 25.38-43.27 41.43 18.95-1.53 36.48-2.95 54.56-4.41-3.13-7.76-7.38-14.01-12.99-19.28-2.48-2.32-3.01-4.19.24-6.57 11.74 6.29 23.22 13.18 31.97 23.73 7.58 9.14 7.65 19.1.44 27.14-4.04 4.51-6.16 4.12-8.46-1.42-2.53-6.09-5.18-12.13-7.82-18.31-20.32 3.94-39.92 7.38-57.45 18.7-4.14-7.34-8.34-14.79-12.5-22.18 17.61-14.42 25.84-34.11 33.48-55.19z"/><path d="m290.46 254.93c6.09 6.93 12.86 14.64 19.86 22.61-1.47.52-2.36 1.12-3.26 1.13-11.25.14-19.87 6.47-29.02 11.86-29.78 17.54-61 31.65-95.25 38.04-3.41.64-6.84 1.15-10.36 1.74-1.8-3.94-.34-5.45 3.18-6.7 32.44-11.54 63.24-26.42 90.98-46.95 8.46-6.27 15.7-14.21 23.87-21.73z"/><path d="m256.46 217.89c6.79 7.29 13.52 14.52 20.76 22.29-24.31 6.64-41.76 24.4-63.83 33.44-12.86 5.27-25.95 9.98-38.96 14.89-1.2.45-2.54.51-4.03.79-.4-.96-.77-1.68-1-2.44s-.33-1.57-.54-2.64c33.79-16.05 64.11-36.52 87.6-66.33z"/><path d="m49.23 118.18h6.81c.89 7.14 2.22 14.29 2.56 21.48.53 11.06 1.04 22.2.34 33.22s-7.66 18.27-17.8 20.8c-3.8.95-7.89.78-9.92-2.55-1.48-2.43-1.21-6.07-1.22-9.18-.01-1.53.91-3.19 1.75-4.59 10.88-18.07 13.95-38.44 17.48-59.18z"/></g><path d="m378.6 9.2.8-1c.9.7 1.9 1.4 2.9 2.3l-.9 1.1c-1.1-.9-2-1.7-2.8-2.4zm.5 10.7c.9-2.1 1.6-4.3 2.3-6.7.4.2.8.4 1.3.6-.7 2.1-1.5 4.3-2.2 6.6zm.4-15.2.9-.9c1 .8 2 1.6 2.8 2.4l-1 1c-1-.9-1.9-1.8-2.7-2.5zm12.5-1.3h1.2v1.4h2.7v1.1h-2.7v2.7h-1.2v-.5h-1.8v1.3h4.9v3.8h-1.2v-.5h-3.7c0 .4-.1.9-.1 1.2h5.1v1h-5.2c0 .5-.1.9-.2 1.2h6v1h-5.2c1.1 1.3 2.9 2 5.5 2.2-.4.4-.7.8-.9 1.3-2.9-.5-4.8-1.6-5.7-3.5h-.1c-.8 1.7-2.7 2.9-5.9 3.6-.2-.4-.6-.8-.9-1.1 2.8-.6 4.6-1.4 5.4-2.5h-4.8v-1h5.3c.1-.3.2-.7.2-1.2h-4.9v-1h5c0-.4 0-.8.1-1.2h-3.6v.5h-1.2v-3.8h4.9v-1.3h-1.8v.5h-1.2v-2.7h-2.6v-1.1h2.6v-1.4h1.2v1.4h4.7v-1.4zm-6.7 8.4h3.6c0-.4 0-.9 0-1.4h-3.6zm1.9-4.7h4.7v-1.2h-4.7zm6.7 3.3h-3.7v1.4h3.7z" fill="#fbfafc"/><path d="m384.7 21.4h1.3v2.2h2.8v-2.2h1.3v2.2h4.1v9.1h1.7v1.3h-16.9v-1.3h1.7v-9.1h4.1v-2.2zm.3 13.2.7 1.2c-1.8.9-3.8 1.9-6 2.9-.2-.4-.5-.8-.8-1.3 2.4-1 4.4-2 6.1-2.8zm-3.1-6.5h2.8v-3.2h-2.8zm0 4.6h2.8v-3.3h-2.8zm4.1-4.6h2.8v-3.2h-2.8zm0 4.6h2.8v-3.3h-2.8zm3.6 1.9c2.1.9 4.1 1.8 6.1 2.7l-.7 1.3c-2.2-1.1-4.2-2-6.1-2.9zm3.3-9.7h-2.8v3.2h2.8zm-2.8 7.8h2.8v-3.3h-2.8z" fill="#fbfafc"/></svg>