<svg enable-background="new 0 0 400 400" viewBox="0 0 400 400" xmlns="http://www.w3.org/2000/svg"><path d="m345.17 263.95c8.43 7.98 16.5 15.61 25.42 24.05-34.67 0-68.33 0-102.11 0-.23 1.21-.46 1.83-.45 2.45.11 20.66.24 41.32.37 61.99 0 .33 0 .67.01 1 .71 13.6.72 13.61-12.24 18.36-3.1 1.14-6.22 2.26-9.56 3.47.53-28.99 1.05-57.67 1.58-87.09-2.56 0-4.32 0-6.08 0-16.33 0-32.68-.36-48.99.14-8.91.28-17.77 2.05-26.66 3.08-1.53.18-3.62.63-4.58-.14-4.09-3.27-7.85-6.95-12.68-11.34h98.26c0-15.4 0-30.27 0-45.45-15.44 0-30.68 0-45.95 0 1.49 9.46-4.33 12.31-11.8 13.96-2.71.6-5.27 1.85-8.27 2.94 0-45.77 0-91.06 0-136.96 5.42 3.06 10.62 6.24 16.05 8.97 2.41 1.21 5.28 2.08 7.95 2.12 13.3.21 26.61.1 40.04.1 0-33.01 0-65.56 0-98.83 10.15 4.13 20.28 8.25 31.74 12.92-14.67 8.47-10.72 21.74-10.94 34.51 1.69.14 3.26.38 4.83.39 15 .03 30 .16 45-.13 2.43-.05 5.31-1.54 7.14-3.26 4.09-3.83 7.66-8.22 11.14-12.04 8.37 8.39 16.54 16.57 24.8 24.86-30.49 0-61.35 0-92.61 0v41.23c1.31.11 2.76.34 4.2.35 14.17.03 28.33-.07 42.5.08 3.03.03 4.93-.9 6.45-3.52 2.4-4.15 5.11-8.13 7.96-12.61 7.26 6.76 14.28 13.3 22.07 20.54-11.75 4.26-10.93 13.66-10.76 23.2.38 21.82.27 43.66.46 65.48.05 5.65.62 11.3.67 16.95.01 1.41-.64 3.48-1.68 4.12-5.47 3.4-11.16 6.44-17.76 10.15 0-5.7 0-10.53 0-15.57-17.88 0-34.97 0-52.37 0v45.42h12.09c15 0 30-.14 45 .1 3.89.06 6.55-1.12 8.97-4.03 3.37-4.08 7.07-7.88 10.79-11.96zm-143.79-78.76v38.93h118.9c0-13.23 0-25.99 0-38.93-39.74 0-79.15 0-118.9 0zm-.17-10.46h118.93c0-13.22 0-26.25 0-39.23-39.88 0-79.3 0-118.93 0z" fill="#010105"/><path d="m59.81 68.76c9.95 5.48 19.06 10.49 28.32 15.59-12 8.7-12.52 22.28-15.95 34.51-.93 3.32-1.57 6.72-2.45 10.57h31.65c0-32.57 0-65.08 0-98.19 9.71 4.63 19.23 9.16 28.7 13.67-.23.63-.24.84-.35.93-9.21 7.17-9.83 16.99-9.47 27.67.56 16.81.15 33.65.15 50.48v4.6c16.16 6.55 22.49-5.92 30.18-14.01 8.32 8.29 16.47 16.41 24.91 24.82-18.12 0-36.31 0-54.79 0v76.27c16.14-6.8 31.8-13.4 47.84-20.16.94 1.74 1.78 3.29 2.86 5.3-9.46 5.7-18.68 11.26-27.92 16.81-6.7 4.03-13.51 7.91-20.05 12.19-1.47.96-2.9 3.3-2.91 5.01-.18 27.33-.3 54.65-.05 81.98.13 14.62.91 29.24 1.57 43.86.15 3.42-.68 5.41-4.14 6.75-5.54 2.15-10.82 4.97-16.54 7.66 0-44.45 0-88.44 0-133.25-19.42 11.83-38.8 23.44-56.56 38.5-5.14-9.31-10.16-18.42-15.42-27.96 8.48-2.89 16.7-5.38 24.67-8.48 14.85-5.78 29.6-11.83 44.28-18.01 1.54-.65 3.41-2.89 3.42-4.4.2-26.66.13-53.32.1-79.98 0-.47-.2-.95-.45-2.05-10.36 0-20.81-.11-31.26.17-1.09.03-2.51 2.19-3.12 3.64-6.91 16.35-13.43 32.87-20.62 49.09-3.07 6.92-7.48 13.25-11.41 20.07-2.15-1.07-3.74-1.86-5.75-2.87 19.03-44.86 27.58-91.84 30.56-140.78z" fill="#010105"/><g fill="#fcfbfa"><path d="m362.1 8.8c1.1.8 2.1 1.6 3.1 2.4l-1 1.1c-1.3-1.1-2.3-2-3-2.5zm1.9 4.8c.5.2.9.4 1.4.5-.6 2.3-1.3 4.5-1.9 6.8l-1.5-.5c.8-2.1 1.4-4.3 2-6.8zm-1-9.4c1.3.9 2.4 1.8 3.4 2.5l-1 1.1c-1.4-1.2-2.4-2.1-3.2-2.6zm3.7 2.2v-1.4h10.3v1.2c-.5 3.6-1.8 6.8-4 9.4 1.5 1.6 3.4 2.8 5.7 3.8-.3.4-.7.8-1.1 1.4-2.3-1.1-4.1-2.5-5.6-4.1-1.6 1.6-3.6 3.1-5.9 4.3-.3-.5-.7-.9-1-1.3 2.4-1.1 4.4-2.5 6-4.1-1.9-2.5-3-5.6-3.3-9.3h-1.1zm8.8 0h-6.4c.3 3.3 1.3 6 3 8.2 2-2.3 3.1-5.1 3.4-8.2z"/><path d="m385.3 3.8h1.3v2.2h2.8v-2.2h1.3v2.2h4.1v9.1h1.7v1.3h-16.9v-1.3h1.7v-9.1h4.1v-2.2zm.4 13.1.7 1.2c-1.8.9-3.8 1.9-6 2.9-.2-.4-.5-.8-.8-1.3 2.3-1 4.3-1.9 6.1-2.8zm-3.1-6.4h2.8v-3.2h-2.8zm0 4.6h2.8v-3.3h-2.8zm4-4.6h2.8v-3.2h-2.8zm0 4.6h2.8v-3.3h-2.8zm3.7 1.9c2.1.9 4.1 1.8 6.1 2.7l-.7 1.3c-2.2-1.1-4.2-2-6.1-2.9zm3.2-9.7h-2.8v3.2h2.8zm-2.8 7.8h2.8v-3.3h-2.8z"/></g></svg>