<svg enable-background="new 0 0 400 400" viewBox="0 0 400 400" xmlns="http://www.w3.org/2000/svg"><g fill="#010105"><path d="m326.94 232.65c0-3.82 0-6.62 0-9.83-46.32 0-92.33 0-139.02 0 2.64 8.3-2.79 10.17-8.7 11.84-3.49.99-6.88 2.35-10.26 3.53 0-44.67 0-89.12 0-134.61 15.55 11.14 33.57 8.33 51.56 8.27 0-9.21 0-18.1 0-27.22-12.29 0-24.39-.35-36.46.15-6.07.25-12.07 2.11-18.13 3.01-1.25.19-2.99-.29-3.94-1.11-3.9-3.36-7.58-6.96-11.34-10.48.19-.45.37-.89.56-1.34h69c0-16.3 0-31.84 0-47.88 8.47 3.99 17.07 8.04 26.77 12.61-11.02 5.2-9.04 14.51-8.99 23.2.02 3.66 0 7.31 0 11.38h33.22c0-15.33 0-30.4 0-45.83 9.3 3.97 18.72 7.99 28.33 12.09-2.24 5.76-10.25 7.43-9.49 15.07.6 6.07.12 12.25.12 19.08h9.29c10.16 0 20.33-.24 30.49.1 4.9.16 8.56-.99 11.55-5.04 2.44-3.32 5.5-6.19 7.89-8.82 7.84 7.84 15.5 15.51 23.19 23.19-26.87 0-54.23 0-82 0v27.98c6.98 0 14.16-.73 21.13.17 10.33 1.33 17.64-1.69 21.84-11.43.38-.89 1.15-1.62 2.04-2.84 6.55 5.59 13.05 11.13 19.58 16.71-.29.64-.37 1.25-.7 1.48-8.15 5.62-9.75 13.47-9.24 22.93.72 13.29-.02 26.65.24 39.97.27 13.79.91 27.58 1.58 41.37.17 3.54-.31 5.83-4.37 6.86-5.1 1.31-9.98 3.41-15.74 5.44zm-36.52-70.04h36.19c0-13.63 0-26.87 0-40.21-12.2 0-24.08 0-36.19 0zm36.1 49.95c0-13.5 0-26.38 0-39.07-12.3 0-24.18 0-35.9 0v39.07zm-54.97-90.13c-11.27 0-22.27 0-33.15 0v40.21h33.15c0-13.57 0-26.78 0-40.21zm-33.28 50.88v39.21h33.24c0-13.19 0-26.08 0-39.21-11.09 0-21.87 0-33.24 0zm-49.71-50.96v40.4h31.87c0-13.63 0-27 0-40.4-10.83 0-21.26 0-31.87 0zm31.82 90.22c0-13.5 0-26.38 0-39.18-10.88 0-21.3 0-31.84 0v39.18zm17.86-100.92h33.24c0-9.24 0-18.12 0-27.18-11.23 0-22.11 0-33.24 0z"/><path d="m120.22 199.03c-24.91 36.11-53.86 67.37-90.44 91.79-1.03-1.85-1.89-3.38-2.79-4.99 8.28-8.79 16.64-17.33 24.62-26.22 23.8-26.5 44.2-55.39 60.1-87.31 1.47-2.95 2.07-7.19 1.19-10.3-3.21-11.31-7.19-22.4-10.96-33.55-.52-1.53-1.45-2.91-2.47-4.91-19.05 19.72-39.86 36.38-63.87 49.31-.97-1.84-1.81-3.42-2.51-4.76 9.42-8.26 19.16-15.85 27.74-24.57 10.48-10.66 19.95-22.32 29.96-33.45 2.29-2.54.51-4.25-.73-6.1-10.55-15.73-23.4-29.42-37.45-42.03-2.97-2.67-6.05-5.21-9.51-8.17.73-1.56 1.52-3.25 2.54-5.43 21.68 12.21 39.87 28.1 56.77 46.46 13.67-17.92 23.83-37.41 33.65-58.01 8.16 7.65 15.96 14.96 23.79 22.3-.39.45-.55.82-.75.84-12.58 1.41-17.7 11.81-24.29 20.31-6.93 8.95-13.64 18.07-20.14 27.33-1.03 1.47-1.26 4.48-.47 6.1 11.18 22.83 19.38 46.62 22.63 71.88 3.93 30.56 6.03 61.22 3.53 92.07-1.4 17.27-3.51 34.38-9.36 50.77-8.32 23.31-23.91 39.11-48.26 45.56-6.78-17.86-11.5-21.73-40.95-33.44.29-1.93.59-3.98.89-6 9.8 1.64 19.16 3.73 28.64 4.63 6.52.62 13.29.18 19.79-.81 8.61-1.31 14.54-6.83 18.72-14.37 6.17-11.14 9.06-23.39 9.78-35.78 1.33-22.9 1.55-45.87 1.92-68.82.09-6.77-.85-13.55-1.31-20.33z"/><path d="m201.69 355.51c-.22.77-.54 1.28-.45 1.69 2.01 8.54-2.69 11.82-10.09 13.35-3.02.62-5.88 2-8.94 3.08 0-45.19 0-89.84 0-135.29 6.21 3.71 11.93 7.3 17.82 10.56 1.93 1.07 4.32 1.82 6.5 1.83 34.83.11 69.67.04 104.5.15 3.02.01 4.94-.89 6.54-3.38 2.41-3.75 5.09-7.34 7.84-11.27 6.7 5.28 13.07 10.29 19.34 15.23-.18.65-.17 1.11-.37 1.24-8.62 5.83-9.68 14.18-9.4 23.88.6 20.82.06 41.66.24 62.49.07 8.62.79 17.24 1.25 26.46-6.07 2.59-12.55 5.35-19.71 8.4 0-6.6 0-12.37 0-18.46-38.54.04-76.62.04-115.07.04zm-.23-56.99h115.09c0-12.69 0-25.08 0-37.78-38.45 0-76.64 0-115.09 0zm115.14 10.58c-38.57 0-76.93 0-115.1 0v36.14h115.1c0-12.28 0-24.19 0-36.14z"/></g><path d="m362.1 8.8c1.1.8 2.1 1.6 3.1 2.4l-1 1.1c-1.3-1.1-2.3-2-3-2.5zm1.9 4.8c.5.2.9.4 1.4.5-.6 2.3-1.3 4.5-1.9 6.8l-1.5-.5c.8-2.1 1.4-4.3 2-6.8zm-1-9.4c1.3.9 2.4 1.8 3.4 2.5l-1 1.1c-1.4-1.2-2.4-2.1-3.2-2.6zm3.7 2.2v-1.4h10.3v1.2c-.5 3.6-1.8 6.8-4 9.4 1.5 1.6 3.4 2.8 5.7 3.8-.3.4-.7.8-1.1 1.4-2.3-1.1-4.1-2.5-5.6-4.1-1.6 1.6-3.6 3.1-5.9 4.3-.3-.5-.7-.9-1-1.3 2.4-1.1 4.4-2.5 6-4.1-1.9-2.5-3-5.6-3.3-9.3h-1.1zm8.8 0h-6.4c.3 3.3 1.3 6 3 8.2 2-2.3 3.1-5.1 3.4-8.2z" fill="#fcfbfa"/><path d="m385.3 3.8h1.3v2.2h2.8v-2.2h1.3v2.2h4.1v9.1h1.7v1.3h-16.9v-1.3h1.7v-9.1h4.1v-2.2zm.4 13.1.7 1.2c-1.8.9-3.8 1.9-6 2.9-.2-.4-.5-.8-.8-1.3 2.3-1 4.3-1.9 6.1-2.8zm-3.1-6.4h2.8v-3.2h-2.8zm0 4.6h2.8v-3.3h-2.8zm4-4.6h2.8v-3.2h-2.8zm0 4.6h2.8v-3.3h-2.8zm3.7 1.9c2.1.9 4.1 1.8 6.1 2.7l-.7 1.3c-2.2-1.1-4.2-2-6.1-2.9zm3.2-9.7h-2.8v3.2h2.8zm-2.8 7.8h2.8v-3.3h-2.8z" fill="#fcfbfa"/></svg>