<svg enable-background="new 0 0 400 400" viewBox="0 0 400 400" xmlns="http://www.w3.org/2000/svg"><g fill="#010100"><path d="m172.99 236.14c-6.24 0-11.71 0-17.08 0-.31.38-.71.67-.67.88 1.07 6.23-2.09 9.33-7.68 11.09-3.43 1.08-6.63 2.87-10.18 4.45 0-45.17 0-89.84 0-134.25 6.85 3.16 13.64 7.73 21.07 9.33 7.63 1.64 15.88.36 24.2.36 0-12.18 0-24.07 0-36.43-11.15-.22-22.28-1.23-32.96 3.03-3.21 1.28-5.51.67-7.83-1.98-3.03-3.45-6.51-6.5-10.69-10.59h51.29c0-18.49 0-36.52 0-55.22 10.01 4.53 20 9.05 30.41 13.76-1.25 1.32-1.98 2.55-3.06 3.15-7.06 3.93-8.62 10-7.94 17.6.59 6.58.12 13.25.12 20.48 7.54 0 14.65.11 21.76-.1 1.25-.04 2.65-1.23 3.67-2.21 3.58-3.48 7.01-7.09 10.15-10.3 7.46 7.41 14.61 14.51 22.16 22.01-19.07 0-38.2 0-57.52 0v36.78c8.35 0 16.62.1 24.88-.11 1.17-.03 2.51-1.39 3.4-2.44 2.68-3.16 5.17-6.47 7.54-9.48 5.72 5.73 11.23 11.24 16.79 16.8-.01.02-.13.41-.39.55-9.01 4.91-9.84 12.97-9.15 22.09.58 7.71.12 15.49.67 23.3 19.16-47.84 30.95-97.49 37.8-149.24 9.6 5.25 18.54 10.14 28.01 15.32-1.38 1.11-2.23 2.14-3.32 2.61-6.01 2.6-8.59 7.32-10.18 13.55-4.12 16.07-8.91 31.96-13.42 47.93-.4 1.4-.75 2.8-1.33 4.98h5.82c16.67 0 33.33-.12 50 .09 3.95.05 6.58-.81 8.14-4.68 1.1-2.72 2.81-5.2 4.6-8.4 7.6 7.1 14.84 13.85 22.39 20.9-17.24 9.88-26.3 26.62-37.16 42.23-1.68-.79-3.28-1.54-5.32-2.5 4.77-12.5 9.46-24.82 14.36-37.66-1.89-.17-3.14-.38-4.4-.38-19-.02-38 .07-57-.09-3.41-.03-4.75 1.12-6.06 4.27-8.5 20.52-17.32 40.9-26.09 61.46-3.09-1.12-4.77-1.72-7.18-2.59 0 8.33-.17 16.39.05 24.43.25 9.13.92 18.25 1.19 27.39.03.89-1.29 2.25-2.28 2.67-5.04 2.1-10.17 3.96-15.98 6.17 0-3.9 0-7.29 0-10.9-9.05 0-17.49 0-26.59 0 0 5.81-.17 11.59.15 17.33.07 1.17 1.84 2.45 3.08 3.32 11.3 7.89 23.24 14.99 33.81 23.74 10.11 8.37 11.06 21.89 4.26 33.14-2.77 4.58-5.19 4.68-8.15.21-1.09-1.65-2.02-3.46-2.7-5.31-6.12-16.84-17.75-29.84-29.85-43.29-.3 1.08-.59 1.64-.58 2.19.11 27.33-.67 54.71.81 81.96.61 11.24-1.46 17.9-12.26 21.28-2.78.87-5.25 2.71-8.12 4.24 0-38.22 0-76.01 0-114.82-15.46 34.63-34.03 66.15-63.37 90.36-1.5-1.36-2.7-2.45-4.19-3.8 27.6-32.46 44.1-70.54 58.1-110.66zm-17.7-10.51h27.42c0-13.19 0-26.08 0-39.04-9.33 0-18.35 0-27.42 0zm0-49.37h27.32c0-12.87 0-25.42 0-37.87-9.31 0-18.21 0-27.32 0zm46.91 49.46h25.93c0-13.24 0-26.25 0-39.22-8.89 0-17.32 0-25.93 0zm25.97-49.33c0-13 0-25.52 0-38.05-8.85 0-17.28 0-25.79 0v38.05z"/><path d="m107.25 199.22c-21.44 35-45.72 65.53-78.2 88.56-3.72-2.69-2.3-4.66-.1-7.1 28.65-31.87 52.54-66.96 71.28-105.55 1.96-4.04 3.08-7.77 1.73-12.31-3.81-12.84-7.3-25.77-11.32-40.09-17.95 19.25-35.97 35.75-57.15 48.45-.6-.5-1.04-.76-1.34-1.13-.51-.64-.93-1.34-1.53-2.22.57-.69.99-1.38 1.58-1.89 18.06-15.72 33.46-33.79 47.33-53.26 2.59-3.63 2.81-6.25.51-10.13-10.3-17.35-23.37-32.35-37.99-46.11-.96-.9-1.92-1.8-2.99-2.81.56-1.13 1.04-2.16 1.56-3.16.29-.56.65-1.09 1.23-2.06 19.72 12.3 35.9 28.16 51.47 47.2 9.89-19.7 19.37-38.59 29.19-58.16 6.64 7.05 13.51 14.33 20.37 21.62-.37.45-.51.82-.72.86-8.07 1.64-13.12 6.84-17.29 13.65-6.95 11.34-14.35 22.42-21.71 33.5-1.7 2.56-1.51 4.57-.3 7.28 11.73 26.31 19.06 53.71 21.48 82.53 2.76 32.94 2.67 65.84-.45 98.68-1.57 16.57-4.81 32.94-14.44 47.2-8.58 12.7-20.09 21.53-35.01 26.66-4.14-19.01-19.53-25.31-35.26-31.78.19-1 .42-2.08.6-3.16.17-.96.29-1.93.46-3.07 7.14 1.54 13.98 3.36 20.94 4.45 28.52 4.48 36.74-8.27 41.51-29.89 2.71-12.26 4.45-24.92 4.9-37.46.78-21.59.23-43.24.21-64.86.01-.93-.22-1.88-.55-4.44z"/><path d="m376.3 355.11c-12.42-.57-21.9 2.24-30.24 10.33-22.5-50.4-34.75-102.84-39.27-157.28-3.15 29.05-7.42 57.74-17.75 85.1-12.32 32.65-31.81 60.12-60.27 80.81-.53.38-1.08.72-1.86 1.24-.78-.64-1.55-1.21-2.25-1.87-.6-.56-1.11-1.22-1.19-1.32 9.17-12.33 18.7-24.1 27.08-36.64 17.29-25.85 26.71-54.74 31.43-85.34 4.47-28.97 6.87-58.08 7.02-87.38.04-8.62.01-17.24.01-27.3 10.95 6.24 20.5 11.69 31.46 17.93-2.55 2.07-4.36 3.76-6.38 5.13-4 2.72-4.5 6.44-3.87 10.85 5 35.35 11.62 70.35 22.9 104.32 6.5 19.58 13.52 39.03 24.5 56.6 4.15 6.64 10.29 12.01 15.33 18.12 1.29 1.57 1.89 3.73 3.35 6.7z"/></g><path d="m378.6 9.2.8-1c.9.7 1.9 1.4 2.9 2.3l-.9 1.1c-1.1-.9-2-1.7-2.8-2.4zm.5 10.7c.9-2.1 1.6-4.3 2.3-6.7.4.2.8.4 1.3.6-.7 2.1-1.5 4.3-2.2 6.6zm.4-15.2.9-.9c1 .8 2 1.6 2.8 2.4l-1 1c-1-.9-1.9-1.8-2.7-2.5zm12.5-1.3h1.2v1.4h2.7v1.1h-2.7v2.7h-1.2v-.5h-1.8v1.3h4.9v3.8h-1.2v-.5h-3.7c0 .4-.1.9-.1 1.2h5.1v1h-5.2c0 .5-.1.9-.2 1.2h6v1h-5.2c1.1 1.3 2.9 2 5.5 2.2-.4.4-.7.8-.9 1.3-2.9-.5-4.8-1.6-5.7-3.5h-.1c-.8 1.7-2.7 2.9-5.9 3.6-.2-.4-.6-.8-.9-1.1 2.8-.6 4.6-1.4 5.4-2.5h-4.8v-1h5.3c.1-.3.2-.7.2-1.2h-4.9v-1h5c0-.4 0-.8.1-1.2h-3.6v.5h-1.2v-3.8h4.9v-1.3h-1.8v.5h-1.2v-2.7h-2.6v-1.1h2.6v-1.4h1.2v1.4h4.7v-1.4zm-6.7 8.4h3.6c0-.4 0-.9 0-1.4h-3.6zm1.9-4.7h4.7v-1.2h-4.7zm6.7 3.3h-3.7v1.4h3.7z" fill="#fbfafc"/><path d="m384.7 21.4h1.3v2.2h2.8v-2.2h1.3v2.2h4.1v9.1h1.7v1.3h-16.9v-1.3h1.7v-9.1h4.1v-2.2zm.3 13.2.7 1.2c-1.8.9-3.8 1.9-6 2.9-.2-.4-.5-.8-.8-1.3 2.4-1 4.4-2 6.1-2.8zm-3.1-6.5h2.8v-3.2h-2.8zm0 4.6h2.8v-3.3h-2.8zm4.1-4.6h2.8v-3.2h-2.8zm0 4.6h2.8v-3.3h-2.8zm3.6 1.9c2.1.9 4.1 1.8 6.1 2.7l-.7 1.3c-2.2-1.1-4.2-2-6.1-2.9zm3.3-9.7h-2.8v3.2h2.8zm-2.8 7.8h2.8v-3.3h-2.8z" fill="#fbfafc"/></svg>