<svg enable-background="new 0 0 400 400" viewBox="0 0 400 400" xmlns="http://www.w3.org/2000/svg"><g fill="#010103"><path d="m350.7 202.79c6.17 5.68 12.03 11.07 19.35 17.81-1.77 1.04-3.28 1.99-4.86 2.83-5.47 2.91-6.18 7.64-6.13 13.38.3 32.47.2 64.95.37 97.42.04 7.14.52 14.28.97 21.41.18 2.83-.55 4.55-3.38 5.73-5.79 2.41-11.4 5.23-17.76 8.2 0-9.35 0-18.05 0-27.13-35.2 0-69.9 0-105.27 0 0 4.56.25 9.17-.13 13.74-.15 1.73-1.36 3.97-2.79 4.89-5.27 3.39-10.83 6.33-16.32 9.46 0-55.92 0-111.44 0-167.19 4.65 2.76 9.64 5.36 14.23 8.53 4.45 3.08 9.08 4.08 14.46 4.04 29.81-.2 59.62-.18 89.43-.01 4.35.03 7.58-.89 10.19-4.55 2.13-2.94 4.85-5.46 7.64-8.56zm-11.93 53.56c0-10.5 0-20.43 0-30.64-34.94 0-69.65 0-104.43 0v30.64zm-104.62 40.31h104.53c0-10.25 0-20.15 0-30.11-35.01 0-69.7 0-104.53 0zm104.61 10.76c-35.1 0-69.77 0-104.51 0v24.34h104.51c0-8.16 0-16.07 0-24.34z"/><path d="m91.59 183.32c-12.76-.13-24.92-1.43-36.59 3.07-3.11 1.2-5.24.68-7.48-1.75-3.13-3.4-6.64-6.46-9.52-10.88h53.25c0-31.64 0-62.52 0-93.77-14.19.5-28.22-1.75-41.81 3.12-1.28.46-3.45.38-4.36-.42-4.21-3.69-8.11-7.73-13.29-12.77h6.84c27.17 0 54.33-.08 81.5.1 3.75.03 6.19-1.14 8.49-3.93 3.37-4.09 7.12-7.88 10.37-11.43 8.39 8.4 16.6 16.62 25.19 25.22-17.95 0-35.78 0-53.86 0v92.71c13.86 5.65 20.02-4.93 26.78-12.79 7.89 7.87 15.5 15.45 23.32 23.24-16.43 0-33.1 0-50.06 0v95.17c8.49-3.33 16.77-6.56 25.03-9.83 6.95-2.75 13.87-5.56 20.8-8.35 5.26-2.11 5.26-2.11 7.32 3.34-38.72 21.01-79.55 38.39-115.38 65.57-5.57-7.7-11.45-15.85-17.28-23.92 18.28-6.14 36.09-12.31 54.04-18.06 5.31-1.7 6.92-4.36 6.85-9.98-.34-29.16-.16-58.33-.16-87.49.01-1.94.01-3.88.01-6.17z"/><path d="m338.96 196.29c0-3.65 0-6.58 0-9.81-48.62 0-96.86 0-145.89 0 0 2.29.02 4.54 0 6.79-.31 30.83-3.34 61.36-10.24 91.44-7.24 31.51-24.52 57.12-47.23 79.45-2.96 2.92-6.11 5.64-9.2 8.44-.35.32-.83.51-1.69 1.03-1.27-1.64-2.54-3.29-3.25-4.2 8.66-12.6 17.64-24.42 25.26-37.05 12.79-21.18 20.66-44.24 22.23-69.09 1.78-28.19 3.18-56.41 4.57-84.63.23-4.73-.4-9.5-.69-15.35 6.82 4.09 12.68 7.78 18.71 11.12 2.08 1.15 4.62 2.07 6.95 2.07 45.48.12 90.97.09 136.45.08 1.14 0 2.28-.13 3.51-.21 0-45.9 0-91.54 0-137.85 10.77 5.61 21.27 11.07 32.06 16.69-1.05 1.18-1.59 2.08-2.38 2.62-7.77 5.38-9.41 12.76-9.17 21.95.67 25.64.29 51.31.48 76.96.06 8.48.49 16.96.94 25.43.15 2.83-.48 4.62-3.32 5.82-5.91 2.49-11.69 5.33-18.1 8.3z"/><path d="m248.86 26.47c8.97 5.19 17.28 10.01 25.36 14.68-6.76 5.81-13.4 11.52-21.04 18.09 9.49 2.92 17.31 5 24.88 7.75 10.12 3.67 20.32 7.31 30 11.97 11.91 5.73 16.09 16.18 12.07 27.22-1.92 5.27-4.85 6.47-9.54 3.29-2.99-2.02-5.68-4.62-8.12-7.3-14.72-16.12-33.2-26.79-52.28-36.94-21.49 23.09-46.17 41.34-74 55.05-.63-.46-.96-.6-1.15-.85-.99-1.32-1.95-2.66-3.16-4.31 32.77-23.11 61.78-49.52 76.98-88.65z"/><path d="m182.38 161.34c29.53-21.36 52.93-47.72 69.26-80.95 7.93 6.05 15.65 11.92 23.82 18.16-10.35 3.17-17.49 9.53-23.84 17.74 11.08 3.3 21.79 6.02 32.15 9.73 8.23 2.95 16.39 6.48 23.91 10.9 8.66 5.09 11.33 14.56 8.16 23.91-1.76 5.19-4.97 6.72-9.5 3.68-3.82-2.56-7.31-5.78-10.42-9.19-13.03-14.31-29.13-24.13-46.49-32.07-1.19-.54-3.91.72-5.08 1.95-15.56 16.32-33.44 29.32-53.98 38.71-3.55 1.63-5.92 1.43-7.99-2.57z"/></g><path d="m385.2 377.6.6-.7c.6.4 1.3.9 1.9 1.5l-.6.7c-.8-.5-1.4-1-1.9-1.5zm.3 7.1c.6-1.4 1.1-2.9 1.5-4.5.3.1.6.3.9.4-.5 1.4-1 2.9-1.5 4.4zm.2-10.1.6-.6c.7.5 1.3 1.1 1.9 1.6l-.7.7c-.6-.6-1.2-1.2-1.8-1.7zm8.4-.8h.8v.9h1.8v.7h-1.8v1.8h-.8v-.3h-1.2v.9h3.3v2.6h-.8v-.4h-2.5c0 .3 0 .6-.1.8h3.4v.7h-3.5c0 .3-.1.6-.1.8h4v.7h-3.5c.7.9 1.9 1.3 3.6 1.5-.2.2-.4.5-.6.9-1.9-.3-3.2-1.1-3.8-2.3-.5 1.1-1.8 2-3.9 2.4-.2-.3-.4-.5-.6-.8 1.9-.4 3.1-.9 3.6-1.7h-3.2v-.7h3.5c.1-.2.1-.5.2-.8h-3.3v-.7h3.4c0-.2 0-.5 0-.8h-2.4v.3h-.8v-2.6h3.3v-.9h-1.2v.3h-.8v-1.8h-1.8v-.7h1.8v-.9h.8v.9h3.2zm-4.4 5.5h2.4c0-.3 0-.6 0-.9h-2.4zm1.2-3.1h3.2v-.8h-3.2zm4.4 2.2h-2.4v.9h2.5v-.9z" fill="#fcfafa"/><path d="m389.2 385.8h.9v1.5h1.9v-1.5h.9v1.5h2.7v6h1.1v.9h-11.3v-.9h1.1v-6h2.7zm.2 8.7.5.8c-1.2.6-2.5 1.3-4 1.9-.2-.3-.3-.6-.6-.8 1.6-.6 3-1.3 4.1-1.9zm-2-4.3h1.9v-2.1h-1.9zm0 3.1h1.9v-2.2h-1.9zm2.7-3.1h1.9v-2.1h-1.9zm0 3.1h1.9v-2.2h-1.9zm2.4 1.3c1.4.6 2.7 1.2 4.1 1.8l-.5.9c-1.5-.7-2.8-1.4-4.1-1.9zm2.2-6.5h-1.9v2.1h1.9zm-1.9 5.2h1.9v-2.2h-1.9z" fill="#fcfafa"/></svg>