<svg enable-background="new 0 0 400 400" viewBox="0 0 400 400" xmlns="http://www.w3.org/2000/svg"><g fill="#010103"><path d="m228.75 85.68c2.35.11 3.93.25 5.51.25 27.66.01 55.33.1 82.99-.13 2.61-.02 5.7-1.46 7.69-3.23 5.32-4.73 10.17-10 14.76-14.61 9.5 9.51 18.63 18.65 27.92 27.95-81.2 0-162.56 0-244.16 0-.59 41.14-1.18 81.81-1.77 122.7h47.34c2.07-32.11 4.14-64.19 6.25-96.89 5.66 3.38 11.07 6.87 16.74 9.87 2.51 1.33 5.55 2.3 8.36 2.31 33.66.16 67.33.02 100.99.21 4.09.02 6.92-.92 9.13-4.39 1.78-2.79 4.02-5.28 6.53-8.51 7.11 6.11 14.09 12.1 21.24 18.24-.61.84-.96 1.62-1.57 2.09-6.08 4.74-8.91 10.63-9.3 18.64-.9 18.25-2.84 36.46-4.34 54.68-.09 1.12-.01 2.26-.01 3.4 4.61 1.4 7.91.33 10.87-3.1 3.69-4.28 7.8-8.2 11.34-11.87 8.51 8.51 16.66 16.66 24.88 24.89-1.15.06-2.86.22-4.58.22-13 .02-26 .03-39 0-2.38-.01-4.07.13-4.25 3.32-1.22 22.07-2.61 44.13-4 66.93 6.47-.2 13.01 2.35 18.05-4.5 3.04-4.12 7.08-7.49 10.34-10.86 8.38 8.36 16.47 16.44 24.82 24.77-17.86 0-35.98 0-54.25 0-1.45 9.06-2.71 17.41-4.15 25.74-.68 3.91-1.68 7.77-2.55 11.64-2.38 10.65-8.62 18.2-18.52 22.67-5.72 2.58-11.54 4.94-17.35 7.42-6.77-19.37-24.16-22.73-39.94-28.36-2.47-.88-5.04-1.49-7.67-2.25 0-2.2 0-4.16 0-6.51 9.69 1.28 19.27 2.72 28.89 3.76 7.92.86 15.91 1.13 23.85 1.88 5.51.52 9.42-2.03 10.9-6.82 2.8-9.11 4.77-18.48 7.34-28.81-3.5 0-5.43 0-7.36 0-35.66 0-71.33.1-106.99-.12-4.81-.03-8.26 1.09-10.98 5.07-1.56 2.29-3.67 4.21-5.87 6.66-6.17-5.7-12.09-11.17-17.87-16.5.13-.54.11-.8.21-.84 8.53-4.15 10.29-11.67 11.18-20.32 1.69-16.52 4.22-32.95 6.37-49.42.17-1.29.02-2.63.02-4.06-8.93-1.51-17.39-.19-25.64 2.6-3.44 1.16-5.89.69-8.44-1.93-3.23-3.32-6.86-6.25-11.12-10.06-5.44 61.78-26.15 114.6-79.88 149.63-.39-.31-.85-.55-1.14-.92-.91-1.19-1.75-2.42-2.86-3.99 20.79-18.95 35.77-41.91 46-67.98 10.07-25.65 15.39-52.37 17.88-81.2-20.34 15.27-39.85 29.54-55.63 49.39-6.04-8.77-11.98-17.41-17.96-26.09 9.98-3.6 19.82-6.47 29.07-10.66 14.08-6.37 27.79-13.54 41.51-20.67 1.57-.82 3.07-3.51 3.08-5.34.13-22.99.08-45.99-.13-68.98-.17-17.64-.62-35.28-.98-52.93-.05-2.47-.31-4.93-.52-8.14 7.34 4.32 14.14 8.43 21.06 12.32 1.8 1.01 3.99 1.91 6 1.92 30.66.12 61.33.09 91.99.07.97 0 1.94-.21 3.3-.37-3.39-21.26-14.74-38.35-27.27-54.86.17-.55.35-1.1.52-1.64 2.21.21 4.78-.23 6.57.75 12.3 6.71 24.16 14.08 34.06 24.19 8.13 8.31 8.22 15.87.14 24.36-2.21 2.34-4.67 4.49-7.64 7.32zm-41.57 132.84h116.97c1.44-24.66 2.89-49.27 4.34-74.02-38.34 0-76.19 0-114.07 0-2.42 24.84-4.81 49.25-7.24 74.02zm-8.77 80.07h119.92c1.93-23.29 3.85-46.41 5.82-70.18-2.54 0-4.5 0-6.46 0-33.66 0-67.32 0-100.97 0-10.37 0-10.71-.04-11.91 10.14-2.32 19.78-4.24 39.6-6.4 60.04z"/><path d="m42.01 111.17c11.59 9.65 22.83 19.05 31.19 31.27 6.88 10.05 4.5 21.47-5.61 28.26-3.91 2.63-6.98 2.06-8.77-2.43-1.7-4.27-2.77-8.84-3.62-13.37-2.46-13.07-7.4-25.13-14.08-36.55-2.03-3.46-2.03-3.46.89-7.18z"/><path d="m222.11 152.75c11.29 6.31 23.34 12.04 34.28 19.42 12.55 8.46 12.53 21.47 1.21 30.29-3.47 2.71-6.43 2.33-8.96-1.07-1.18-1.58-2.22-3.37-2.85-5.23-4.87-14.23-13.73-25.73-24.45-35.94-2.21-2.12-3.51-4.01.77-7.47z"/><path d="m261.9 266.64c-1.66 9.03-5.3 15.02-11.87 18.76-1.24.71-4.22-.2-5.49-1.37-1.61-1.48-2.71-3.85-3.32-6.04-3.89-13.89-11.55-25.68-20.08-37.04-.94-1.25-1.15-3.06-1.71-4.61 1.75.01 3.75-.54 5.22.11 11.52 5.02 22.2 11.46 30.96 20.54 2.86 2.96 4.6 6.99 6.29 9.65z"/></g><path d="m385.2 377.6.6-.7c.6.4 1.3.9 1.9 1.5l-.6.7c-.8-.5-1.4-1-1.9-1.5zm.3 7.1c.6-1.4 1.1-2.9 1.5-4.5.3.1.6.3.9.4-.5 1.4-1 2.9-1.5 4.4zm.2-10.1.6-.6c.7.5 1.3 1.1 1.9 1.6l-.7.7c-.6-.6-1.2-1.2-1.8-1.7zm8.4-.8h.8v.9h1.8v.7h-1.8v1.8h-.8v-.3h-1.2v.9h3.3v2.6h-.8v-.4h-2.5c0 .3 0 .6-.1.8h3.4v.7h-3.5c0 .3-.1.6-.1.8h4v.7h-3.5c.7.9 1.9 1.3 3.6 1.5-.2.2-.4.5-.6.9-1.9-.3-3.2-1.1-3.8-2.3-.5 1.1-1.8 2-3.9 2.4-.2-.3-.4-.5-.6-.8 1.9-.4 3.1-.9 3.6-1.7h-3.2v-.7h3.5c.1-.2.1-.5.2-.8h-3.3v-.7h3.4c0-.2 0-.5 0-.8h-2.4v.3h-.8v-2.6h3.3v-.9h-1.2v.3h-.8v-1.8h-1.8v-.7h1.8v-.9h.8v.9h3.2zm-4.4 5.5h2.4c0-.3 0-.6 0-.9h-2.4zm1.2-3.1h3.2v-.8h-3.2zm4.4 2.2h-2.4v.9h2.5v-.9z" fill="#fcfafa"/><path d="m389.2 385.8h.9v1.5h1.9v-1.5h.9v1.5h2.7v6h1.1v.9h-11.3v-.9h1.1v-6h2.7zm.2 8.7.5.8c-1.2.6-2.5 1.3-4 1.9-.2-.3-.3-.6-.6-.8 1.6-.6 3-1.3 4.1-1.9zm-2-4.3h1.9v-2.1h-1.9zm0 3.1h1.9v-2.2h-1.9zm2.7-3.1h1.9v-2.1h-1.9zm0 3.1h1.9v-2.2h-1.9zm2.4 1.3c1.4.6 2.7 1.2 4.1 1.8l-.5.9c-1.5-.7-2.8-1.4-4.1-1.9zm2.2-6.5h-1.9v2.1h1.9zm-1.9 5.2h1.9v-2.2h-1.9z" fill="#fcfafa"/></svg>