<svg enable-background="new 0 0 400 400" viewBox="0 0 400 400" xmlns="http://www.w3.org/2000/svg"><g fill="#fcfafa"><path d="m342.2 3.2-6.3 9.2h6.1v1.2h-8.2v-.5l6.2-9.1h-5.7v-1.2h7.8v.4z"/><path d="m344 13.7v-10.9h3.1c1.6 0 3 .5 4.1 1.4 1.1 1 1.6 2.2 1.6 3.9s-.5 3-1.6 4-2.5 1.5-4.2 1.5h-3zm1.4-9.6v8.4h1.6c1.4 0 2.5-.4 3.2-1.1.8-.8 1.2-1.8 1.2-3.2s-.4-2.4-1.2-3.1-1.8-1-3.1-1z"/><path d="m356.3 2.8v10.9h-1.4v-10.9z"/><path d="m366.6 13.2c-.8.4-1.8.6-3 .6-1.6 0-2.8-.5-3.7-1.5s-1.4-2.3-1.4-3.9c0-1.7.5-3.2 1.6-4.2s2.4-1.6 4-1.6c1 0 1.9.1 2.6.4v1.5c-.8-.4-1.6-.6-2.6-.6-1.2 0-2.2.4-3 1.2s-1.1 1.9-1.1 3.3c0 1.3.4 2.3 1.1 3.1s1.6 1.1 2.8 1.1c1.1 0 2-.2 2.8-.7v1.3z"/><path d="m368.2 13c0-.3.1-.5.3-.6.2-.2.4-.3.6-.3.3 0 .5.1.7.3s.3.4.3.6-.1.5-.3.6c-.2.2-.4.3-.7.3s-.5-.1-.6-.3c-.2-.2-.3-.4-.3-.6z"/><path d="m381.1 13.7h-1.7l-5.5-8.4c-.2-.2-.3-.5-.4-.7 0 .2.1.8.1 1.5v7.6h-1.4v-10.9h1.8l5.3 8.3c.3.4.4.6.4.8 0-.3-.1-.8-.1-1.6v-7.5h1.4v10.9z"/><path d="m389.7 13.7h-5.8v-10.9h5.6v1.2h-4.2v3.5h3.9v1.2h-3.9v3.7h4.4z"/><path d="m398.4 4.1h-3.1v9.6h-1.4v-9.6h-3.1v-1.3h7.7v1.3z"/></g><path d="m78.47 232.33c6.42 4.02 12.37 7.93 18.51 11.5 2.04 1.18 4.59 2.08 6.92 2.08 62.99.11 125.98.12 188.96-.03 2.11-.01 4.64-1.38 6.25-2.89 3.62-3.4 6.78-7.29 10.27-11.12 7.16 6.24 14.16 12.33 21.55 18.76-.98.75-1.6 1.34-2.32 1.74-8.46 4.78-9.87 12.18-9.64 21.37.61 23.65.2 47.32.2 70.98v5.75c5.88.93 11.1 1.59 15.36-3.87 3.56-4.56 7.89-8.52 11.55-12.4 9.24 9.26 17.87 17.91 26.81 26.87-1.67 0-3.57 0-5.46 0-98.31 0-196.63-.09-294.94.14-9.39.02-18.76 2.1-28.15 3.11-1.47.16-3.48.25-4.42-.56-4.23-3.69-8.17-7.72-13.16-12.55h51.7c.01-39.66.01-78.87.01-118.88zm92.89 23.88v94.54h57.81c0-31.63 0-63.02 0-94.54-19.38 0-38.36 0-57.81 0zm-71.82.03v94.47h52.12c0-31.63 0-62.96 0-94.47-17.44 0-34.55 0-52.12 0zm199.06 94.63c0-31.85 0-63.21 0-94.47-16.98 0-33.56 0-50.12 0v94.47z" fill="#010102"/><path d="m199.75 141.22c0-13.95 0-27.72 0-41.81-1.05-.13-2.15-.43-3.24-.39-15.76.66-31.6.7-47.25 2.41-5.92.65-9.88.52-13.54-4.28-1.99-2.6-4.83-4.55-6.83-7.89h70.6c0-20.1 0-39.58 0-59.57 9.73 4.63 19.24 9.16 29.04 13.83-.68.98-1 1.81-1.6 2.27-7.35 5.7-8.75 13.35-8.04 22.13.55 6.76.11 13.59.11 20.97 9.65 0 18.93.09 28.19-.11 1.21-.03 2.57-1.37 3.56-2.39 4.28-4.4 8.44-8.9 12.34-13.04 8.89 8.9 17.1 17.11 25.46 25.48-22.8 0-45.93 0-69.3 0v42.72c6.76 0 13.53.19 20.27-.16 1.39-.07 2.84-2.01 3.96-3.34 2.03-2.41 3.84-5.01 6.15-8.07 6.61 5.15 13.1 10.19 19.67 15.3-.42.8-.58 1.55-1.05 1.91-7.24 5.54-7.54 13.2-7.27 21.44.64 18.96.69 37.95 1.2 56.91.09 3.28-.49 5.16-3.89 6.31-5.01 1.7-9.8 4.03-15.44 6.41 0-6.21 0-11.88 0-17.91-23.85 0-47.05 0-70.78 0 0 3.39-.24 6.7.07 9.96s-1.12 4.73-3.97 5.81c-5.26 2-10.4 4.33-15.23 6.36 0-35.96 0-71.79 0-108.42 14.41 9 30.47 8.15 46.81 7.16zm42.48 10.38c-23.55 0-46.73 0-69.76 0v58.01h69.76c0-19.54 0-38.77 0-58.01z" fill="#010102"/><path d="m69.17 78.01v58.92c7.96 0 15.91-.4 23.8.13 6.03.41 10.52-1.2 14.24-5.98 2.73-3.51 6.02-6.59 8.73-9.5 8.8 8.83 16.96 17.02 25.19 25.27-23.56 0-47.56 0-71.85 0v63.04c10.2 0 20.45.08 30.7-.11 1.21-.02 2.57-1.38 3.57-2.41 4.29-4.39 8.47-8.89 12.35-12.98 8.87 8.9 17.14 17.2 25.37 25.45-23.5 0-47.54 0-71.26 0-.51.69-.9.98-.86 1.18 1.22 6.36-2.4 9.11-7.73 11.05-4.49 1.64-8.76 3.88-13.22 5.89 0-59.99 0-119.77 0-180.18 5.97 3.52 11.69 7.11 17.64 10.26 1.77.94 4.43 1.37 6.3.79 19.65-6.14 38.09-14.7 54.23-27.74 1.03-.83 2.13-1.56 3.78-2.76 5.52 8.73 10.95 17.32 16.94 26.78-27.28-.51-51.83 9.42-77.92 12.9z" fill="#010102"/><path d="m338.57 130.07c0-20.52 0-40.13 0-59.92-.55-.21-1.15-.65-1.74-.64-17.44.03-34.95-1.03-52.1 3.49-1.37.36-3.48.22-4.45-.61-4.14-3.54-7.99-7.43-13.05-12.25 3.33-.15 5.05-.3 6.78-.3 19.16-.02 38.33-.14 57.49.1 4.1.05 6.89-.94 9.1-4.44 1.85-2.94 4.24-5.52 6.67-8.62 6.66 6.19 13.17 12.24 19.64 18.25-.23.49-.28.9-.5 1.03-7.97 4.61-9.59 11.5-9.45 20.44.59 36.65.32 73.32.49 109.98.04 8.31.18 16.66.94 24.93.41 4.49-1.11 6.68-5.02 8.31-4.71 1.97-9.2 4.44-14.52 7.06 0-6.55 0-12.29 0-18.24-10.44 0-20.39-.39-30.29.14-6.25.33-12.41 2.09-18.63 3.05-1.17.18-2.83.05-3.62-.66-4.04-3.64-7.86-7.51-11.24-12.45h63.42c0-23.21 0-45.79 0-68.63-.62-.18-1.38-.6-2.14-.6-16.44-.04-32.94-.81-49.09 3.52-1.22.33-3.12.16-3.99-.6-4.11-3.58-7.98-7.45-11.37-12.32 22.01-.02 44.04-.02 66.67-.02z" fill="#010102"/></svg>