<svg enable-background="new 0 0 400 400" viewBox="0 0 400 400" xmlns="http://www.w3.org/2000/svg"><g fill="#fcfafa"><path d="m342.2 3.2-6.3 9.2h6.1v1.2h-8.2v-.5l6.2-9.1h-5.7v-1.2h7.8v.4z"/><path d="m344 13.7v-10.9h3.1c1.6 0 3 .5 4.1 1.4 1.1 1 1.6 2.2 1.6 3.9s-.5 3-1.6 4-2.5 1.5-4.2 1.5h-3zm1.4-9.6v8.4h1.6c1.4 0 2.5-.4 3.2-1.1.8-.8 1.2-1.8 1.2-3.2s-.4-2.4-1.2-3.1-1.8-1-3.1-1z"/><path d="m356.3 2.8v10.9h-1.4v-10.9z"/><path d="m366.6 13.2c-.8.4-1.8.6-3 .6-1.6 0-2.8-.5-3.7-1.5s-1.4-2.3-1.4-3.9c0-1.7.5-3.2 1.6-4.2s2.4-1.6 4-1.6c1 0 1.9.1 2.6.4v1.5c-.8-.4-1.6-.6-2.6-.6-1.2 0-2.2.4-3 1.2s-1.1 1.9-1.1 3.3c0 1.3.4 2.3 1.1 3.1s1.6 1.1 2.8 1.1c1.1 0 2-.2 2.8-.7v1.3z"/><path d="m368.2 13c0-.3.1-.5.3-.6.2-.2.4-.3.6-.3.3 0 .5.1.7.3s.3.4.3.6-.1.5-.3.6c-.2.2-.4.3-.7.3s-.5-.1-.6-.3c-.2-.2-.3-.4-.3-.6z"/><path d="m381.1 13.7h-1.7l-5.5-8.4c-.2-.2-.3-.5-.4-.7 0 .2.1.8.1 1.5v7.6h-1.4v-10.9h1.8l5.3 8.3c.3.4.4.6.4.8 0-.3-.1-.8-.1-1.6v-7.5h1.4v10.9z"/><path d="m389.7 13.7h-5.8v-10.9h5.6v1.2h-4.2v3.5h3.9v1.2h-3.9v3.7h4.4z"/><path d="m398.4 4.1h-3.1v9.6h-1.4v-9.6h-3.1v-1.3h7.7v1.3z"/></g><path d="m176.08 66.06c1.72.77 3.18 1.18 4.38 1.98 10.22 6.83 21.43 8.62 33.6 8.06 14.97-.69 29.99-.16 44.99-.16h5.85c-3.28-18.61-14.27-32.1-25.79-45.23 1.91-3.87 4.35-4.43 7.98-2.2 8.78 5.4 18.02 10.09 26.49 15.92 12.99 8.95 13.77 15.69 4.51 28.67-.46.65-.83 1.36-1.73 2.84h7.36c14.67 0 29.34.11 44-.12 2.16-.03 4.78-1.2 6.35-2.71 4.65-4.5 8.88-9.44 12.89-13.79 8.67 8.66 17.2 17.19 25.97 25.95-22.17 0-44.66 0-67.43 0v50.54c10.35 0 20.46.08 30.57-.11 1.16-.02 2.48-1.43 3.38-2.49 3.21-3.79 6.26-7.7 9.18-11.33 6.55 6.66 12.9 13.13 19.46 19.8.19-.28.01.3-.35.46-8.21 3.59-9.25 10.16-8.79 18.29.91 16.11.87 32.28 1.42 48.42.09 2.77-.58 4.17-3.24 5.17-5.26 1.98-10.38 4.35-16.41 6.92 0-4.6 0-8.47 0-12.59-48.45 0-96.21 0-144.75 0 .17 62.15-18.33 117.3-62.82 162.65-1.07-1.08-2.22-2.25-3.2-3.23 5.98-10.59 12.2-20.6 17.46-31.09 14.34-28.63 22.58-59.08 26.67-90.82 5.8-44.96 3.66-90.09 3.46-135.18-.09-14.75-.95-29.47-1.46-44.62zm56.41 131.73c0-17.64 0-34.87 0-52.27-12.23 0-24.12 0-36.13 0v52.27zm53.88-.06c0-17.64 0-34.97 0-52.23-11.87 0-23.28 0-34.92 0v52.23zm19.08-52.36v52.37h34.76c0-17.46 0-34.82 0-52.37-11.65 0-22.92 0-34.76 0zm-72.87-59.5c-12.25 0-24.26 0-36.1 0v49.5h36.1c0-16.72 0-33 0-49.5zm18.97-.19v49.72h34.9c0-16.79 0-33.15 0-49.72-11.79 0-23.19 0-34.9 0z" fill="#010102"/><path d="m41.24 109.59h11.94c24.99 0 49.98-.07 74.97.08 3.67.02 6.26-.8 8.41-3.92 2.52-3.67 5.53-7 8.09-10.18 7.16 7.13 14.06 14.02 21.09 21.02.08-.17.02.27-.18.35-11.14 4.44-16.58 13.81-21.86 23.85-7.57 14.4-16.16 28.26-24.51 42.7 6.6 4.06 13.54 7.91 20 12.43 5.28 3.7 10.38 7.83 14.89 12.43 9.34 9.54 1.6 27.02-5.7 31.7-1.1.7-4.31.1-5-.94-2.27-3.38-4.3-7.08-5.58-10.93-4.14-12.45-9.49-24.13-18.97-33.52-.66-.65-1.39-1.22-2.83-2.47v5.72c.06 44.48.06 88.97.21 133.45.04 11.14.45 22.29.93 33.43.12 2.88-.95 4.21-3.45 5.14-5.72 2.12-11.39 4.39-17.22 6.65 0-54.49 0-108.51 0-163.37-19.37 24.72-41.66 45.56-67.32 62.78-3.26-3.16-3-5.35.2-8.31 30.32-28.11 54.24-61.21 74.47-97.06 8.65-15.33 16.58-31.07 24.81-46.64.68-1.3 1.17-2.69 1.7-3.93-.43-.43-.64-.83-.85-.82-22.09.59-44.26.34-66.24 2.29-8.05.71-13.42.1-18.15-6.25-1.21-1.63-3.43-2.52-5.18-3.75.45-.65.89-1.29 1.33-1.93z" fill="#010102"/><path d="m240.06 275.97c11.14 16.1 22.29 32.05 29.69 50.19 2.97 7.28 4.68 14.92 2.3 22.85-1.7 5.68-5.19 9.97-10.24 13.02-3.37 2.03-5.46.96-6-2.8-1.06-7.4-1.92-14.82-2.93-22.23-.27-1.95-.77-3.87-1.33-6.61-22.3 6.06-44.8 10.47-64.3 24.04-4-7.99-8.07-16.13-12.26-24.52 10.86-4.01 15.04-13.48 18.87-22.76 11.07-26.8 18.37-54.71 23.08-83.31.4-2.46.84-4.91 1.35-7.86 9.28 5.09 18.41 10.09 27.69 15.18-.32.56-.45 1.14-.76 1.26-8.15 3.29-11.27 9.94-13.78 17.95-8.05 25.66-19.94 49.62-34.03 72.5-.85 1.38-1.59 2.83-2.84 5.07 18.98-2.01 37.15-3.94 56.44-5.98-4.77-13.9-9.13-26.95-13.77-39.88-1.07-2.99-1.5-5.06 2.82-6.11z" fill="#010102"/><path d="m351.95 328.8c-22.24 6.07-44.76 9.34-64.51 22.36-3.89-7.77-7.86-15.69-11.9-23.77 13.54-7.41 17.42-21.03 22.27-33.73 8.93-23.41 14.55-47.6 15.16-72.8.01-.45.19-.89.39-1.84 9.16 4.58 18.12 9.05 27.25 13.62-.46.76-.59 1.33-.94 1.51-6.57 3.35-9.13 9.04-11.04 15.97-6.97 25.31-17.87 48.91-32.5 70.76-.71 1.07-1.32 2.2-2.49 4.16 19.45-1.51 38.04-2.95 57.92-4.5-5-13.48-9.77-26.31-14.66-39.5.86-.63 2.01-1.47 3.59-2.62 12.85 15.52 27.02 29.9 31.92 50.09 2.54 10.45 1.57 20.58-6.49 28.84-4.58 4.7-7.85 3.96-9.26-2.47-1.6-7.27-2.51-14.7-3.75-22.05-.19-1.14-.53-2.23-.96-4.03z" fill="#010102"/><path d="m80.1 30.76c2.26-4.04 4.57-4.25 8.16-1.77 11.35 7.84 22.94 15.29 31.88 26.1 10.22 12.35 4.1 26.9-5.53 34.59-2.91 2.32-5.78 1.95-7.63-1.15-1.68-2.8-3.23-5.9-3.85-9.07-3.58-18.14-11.58-34.14-23.03-48.7z" fill="#010102"/></svg>