<svg enable-background="new 0 0 400 400" viewBox="0 0 400 400" xmlns="http://www.w3.org/2000/svg"><g fill="#fcfafa"><path d="m342.2 3.2-6.3 9.2h6.1v1.2h-8.2v-.5l6.2-9.1h-5.7v-1.2h7.8v.4z"/><path d="m344 13.7v-10.9h3.1c1.6 0 3 .5 4.1 1.4 1.1 1 1.6 2.2 1.6 3.9s-.5 3-1.6 4-2.5 1.5-4.2 1.5h-3zm1.4-9.6v8.4h1.6c1.4 0 2.5-.4 3.2-1.1.8-.8 1.2-1.8 1.2-3.2s-.4-2.4-1.2-3.1-1.8-1-3.1-1z"/><path d="m356.3 2.8v10.9h-1.4v-10.9z"/><path d="m366.6 13.2c-.8.4-1.8.6-3 .6-1.6 0-2.8-.5-3.7-1.5s-1.4-2.3-1.4-3.9c0-1.7.5-3.2 1.6-4.2s2.4-1.6 4-1.6c1 0 1.9.1 2.6.4v1.5c-.8-.4-1.6-.6-2.6-.6-1.2 0-2.2.4-3 1.2s-1.1 1.9-1.1 3.3c0 1.3.4 2.3 1.1 3.1s1.6 1.1 2.8 1.1c1.1 0 2-.2 2.8-.7v1.3z"/><path d="m368.2 13c0-.3.1-.5.3-.6.2-.2.4-.3.6-.3.3 0 .5.1.7.3s.3.4.3.6-.1.5-.3.6c-.2.2-.4.3-.7.3s-.5-.1-.6-.3c-.2-.2-.3-.4-.3-.6z"/><path d="m381.1 13.7h-1.7l-5.5-8.4c-.2-.2-.3-.5-.4-.7 0 .2.1.8.1 1.5v7.6h-1.4v-10.9h1.8l5.3 8.3c.3.4.4.6.4.8 0-.3-.1-.8-.1-1.6v-7.5h1.4v10.9z"/><path d="m389.7 13.7h-5.8v-10.9h5.6v1.2h-4.2v3.5h3.9v1.2h-3.9v3.7h4.4z"/><path d="m398.4 4.1h-3.1v9.6h-1.4v-9.6h-3.1v-1.3h7.7v1.3z"/></g><path d="m325.73 260.44c5.31 1.5 8.73-.13 11.7-4.03 3.01-3.95 6.62-7.43 9.69-10.8 8.45 8.45 16.76 16.76 25.38 25.39-1.64 0-3.37 0-5.1 0-59.64 0-119.28-.14-178.92.14-9.71.05-19.41 2.03-29.12 3-1.27.13-3.01 0-3.84-.76-4.02-3.68-7.8-7.62-12.55-12.34h41.26c0-72.77 0-144.96 0-217.75 5.18 3.27 10.18 6.71 15.45 9.64 2.48 1.38 5.49 2.53 8.27 2.54 29.49.18 58.98.04 88.46.2 3.6.02 5.86-1.21 7.92-3.95 3.09-4.1 6.46-7.98 9.88-12.16 7.65 5.72 14.95 11.19 22.76 17.04-3.07 2.78-6.16 5.2-8.74 8.07-1.39 1.55-2.71 3.87-2.72 5.85-.14 62.14-.12 124.28-.1 186.42.02 1.17.21 2.31.32 3.5zm-20.25-152.72c0-14.29 0-28.18 0-42.23-33.58 0-66.82 0-100.18 0v42.23zm-100.27 152.9h100.26c0-14.2 0-28.09 0-42.13-33.59 0-66.82 0-100.26 0zm100.33-93.06c-33.62 0-66.95 0-100.2 0v40.7h100.2c0-13.72 0-27.1 0-40.7zm.03-49.22c-33.59 0-66.93 0-100.37 0v38.87h100.37c0-13.15 0-25.9 0-38.87z" fill="#010102"/><path d="m95.58 138.62c0-21.83 0-42.92 0-64.34-18.42 2.84-36.56 5.65-54.95 8.48-.58-1.95-1.03-3.49-1.53-5.21 35.81-9.85 71.13-20.63 101.87-43.46 5.33 7.99 10.79 16.19 16.17 24.27-12.76 3.31-25.05 6.68-37.44 9.59-4.37 1.03-5.72 2.87-5.65 7.39.29 18.99.12 37.99.12 56.99v6.18c6.76 0 13.2.13 19.63-.12 1.21-.05 2.51-1.47 3.5-2.51 4-4.23 7.89-8.55 11.47-12.46 8.24 8.17 16.34 16.22 24.7 24.51-19.37 0-39 0-59.27 0 0 11.32-.09 21.93.15 32.53.02 1.02 2.02 2.25 3.33 2.94 7.76 4.14 15.91 7.66 23.34 12.32 15.5 9.73 14.52 27.43 8.8 38.34-2.51 4.78-5.1 4.99-7.86.45-1.72-2.81-2.98-5.94-4.17-9.03-5.02-12.99-15.61-29.44-23.28-35.58-.13 1.73-.33 3.12-.33 4.52.06 33.99-.01 67.98.28 101.97.18 21.29.95 42.58 1.34 63.87.02 1.03-.83 2.54-1.71 3.04-6.04 3.42-12.2 6.63-18.88 10.2 0-58.74 0-116.87 0-176.29-17.47 38.53-37.91 74.19-64.67 106.17-3.17-2.84-2.93-5.41-1.03-8.83 24.35-43.8 45.91-88.86 60.68-136.91.87-2.83 1.67-5.68 2.7-9.18-8.3 0-16.21-.44-24.04.13-6.75.49-13.4 2.22-20.12 3.22-1.32.2-3.19.08-4.07-.72-4.03-3.63-7.8-7.56-12.78-12.49 22.17.02 42.83.02 63.7.02z" fill="#010102"/><path d="m270.84 292.62c.98-1.38 1.82-2.56 2.82-3.98 22.33 11.07 45.12 20.99 64.65 36.54 14.97 11.92 14.23 27.19 5.88 41.97-2.43 4.3-5.4 3.62-8.5-1.33-4.77-7.59-9.21-15.45-14.58-22.59-13.47-17.91-29.61-33.29-46.79-47.6-1.13-.94-2.23-1.92-3.48-3.01z" fill="#010102"/><path d="m140.92 373.91c-.93-1.28-1.69-2.32-2.78-3.82 31.57-23.35 57.12-51.77 75.51-87.1 8.05 7.54 15.77 14.77 23.94 22.43-1.03.51-1.63 1.01-2.3 1.1-9.14 1.27-15.19 7.11-21.34 13.39-20.7 21.15-43.44 39.67-70.25 52.73-.73.35-1.49.68-2.78 1.27z" fill="#010102"/></svg>