<svg enable-background="new 0 0 400 400" viewBox="0 0 400 400" xmlns="http://www.w3.org/2000/svg"><path d="m377.9 391.2c-.2.3-.4.5-.6.8-.7-.6-1.4-1-2.2-1.5.2-.3.4-.5.5-.8.6.4 1.4.8 2.3 1.5zm-1.8 6.1c-.2-.2-.5-.4-.9-.6.4-.6.8-1.2 1.2-1.9s.7-1.3.9-1.9c.3.3.5.5.8.7-.7 1.3-1.4 2.6-2 3.7zm2.2-9c-.3.3-.5.5-.6.8-.6-.6-1.3-1.1-2-1.5.3-.3.5-.5.6-.7.6.5 1.3.9 2 1.4zm.3.2v-.9h2 4.5c-.3 1.3-.6 2.5-1 3.6s-.9 2.1-1.4 3c.4.5 1 1 1.6 1.4s1.2.8 1.9 1.1c-.3.2-.5.4-.8.8-.4-.3-1-.7-1.6-1.2s-1.2-1.1-1.6-1.6c-.5.6-1.1 1.1-1.7 1.6s-1.4.9-2.1 1.4c-.1-.3-.3-.5-.7-.8.6-.2 1.2-.5 1.9-1s1.4-1.1 2-1.8c-.5-.8-.9-1.6-1.2-2.5s-.6-2-.8-3.2c-.4.1-.7.1-1 .1zm2.5 2.7c.3 1 .7 1.7 1 2.2.3-.5.6-1.1 1-2s.6-1.9.9-3h-3.2-.4c.1.9.3 1.8.7 2.8z" fill="#fafbfa"/><path d="m396.5 388.5v1.5 3.6h1.5v.9c-.4 0-1 0-1.7 0h-7.9c-.5 0-.9 0-1.2 0v-.9h1.3v-3.5c0-.7 0-1.2 0-1.6h2.4c0-.8 0-1.4 0-1.7h1c0 .3-.1.8-.1 1.7h1.5c0-.8 0-1.4 0-1.7h1c0 .3-.1.9-.1 1.7zm-8.2 9.2c-.2-.3-.5-.5-.8-.8.8-.3 1.4-.6 1.9-.9s1-.7 1.4-1.1c.3.3.6.5.9.8-1.6 1-2.8 1.6-3.4 2zm2.6-6.8v-1.6h-1.5v1.6zm0 2.7v-1.9h-1.5v1.9zm2.4-2.7v-1.6h-1.5v1.6zm0 2.7v-1.9h-1.5v1.9zm.2 2 .7-.8c.4.2.9.5 1.6.8s1.3.7 1.8 1c-.3.3-.5.5-.8.8-.4-.3-1.5-1-3.3-1.8zm2-4.7v-1.6h-1.4v1.6zm0 2.7v-1.9h-1.4v1.9z" fill="#fafbfa"/><g fill="#010000"><path d="m62.04 128.82c6.92 2.8 13.47 5.59 20.13 8.06 2.58.95 5.44 1.64 8.17 1.64 71.81.09 143.61.05 215.42.14 3.32 0 5.55-.94 7.63-3.55 2.99-3.75 6.45-7.13 10.02-11 7.55 6.12 15 12.16 22.62 18.34-.59.7-.97 1.52-1.62 1.87-8.9 4.83-9.66 12.64-9.59 21.86.41 57.64.27 115.29.39 172.93.01 6.81.66 13.62.77 20.43.02 1.36-.71 3.37-1.76 4.02-5.74 3.58-11.68 6.82-18.13 10.51 0-6.08 0-11.5 0-17.29-78.4 0-156.41 0-234.47 0 1.89 11.38-5.27 14.57-14.04 16.45-1.92.41-3.74 1.28-5.55 1.92.01-81.94.01-163.71.01-246.33zm253.75 19.69c-78.3 0-156.2 0-234.27 0v198.13h234.27c0-66.09 0-131.88 0-198.13z"/><path d="m189.4 133.32c-.94-1.81-1.69-3.26-2.62-5.04 28.55-27.59 47.98-60.89 60.93-98.87 8.62 4.77 16.85 9.32 25.91 14.33-14.32 4.69-16.14 19.57-26.19 28.57 1.92.3 2.94.6 3.97.6 25.33.03 50.66.06 75.99-.07 1.97-.01 4.21-.85 5.86-1.98 4.93-3.37 9.62-7.08 14.81-10.95 7.93 7.45 15.76 14.79 24.38 22.88-33.89 0-66.87 0-100.57 0 8.99 6.01 17.5 11.11 25.34 17.08 10.95 8.34 11.75 19.44 2.77 28.76-4.78 4.97-8.15 4.52-10.91-1.73-1.4-3.17-2.11-6.64-3.33-9.91-4.56-12.19-12.05-22.55-20.45-32.3-.75-.87-2.18-1.59-3.32-1.63-5.16-.17-10.37-.42-15.48.11-1.88.19-3.92 2.15-5.24 3.81-14.28 17.83-31 32.95-50.07 45.49-.39.27-.87.42-1.78.85z"/><path d="m208.15 83.17c-28.71 0-55.77 0-83.37 0 6.33 4.4 12.31 8.21 17.87 12.54 5.76 4.49 10.62 9.71 9.52 18.02-.84 6.29-3.92 11.29-8.7 15.2-2.85 2.33-5.88 1.72-7.46-1.62-1.68-3.57-2.93-7.38-3.99-11.19-3.17-11.41-8.86-21.49-16.28-30.58-1.13-1.39-3.48-2.13-5.4-2.48-10.01-1.84-17.05 1.85-23.74 9.9-14.41 17.34-31.79 31.64-50.7 44-1.1.72-2.25 1.38-3.42 2.11-3-2.89-3.32-5.21-.01-8.29 30.55-28.37 54.39-61.36 68.74-100.8.22-.61.64-1.14 1.13-1.97 8.2 4.09 16.31 8.14 25.69 12.83-15.53 5.75-18.15 21.75-28.24 32.1h4.72c17.82 0 35.65-.25 53.46.13 6.65.14 12.14-1.44 17.52-5.32 9.28-6.68 9.44-6.43 17.81 1.53 4.55 4.31 9.15 8.57 14.85 13.89z"/><path d="m260.71 244.39c-.16 2.52-.31 3.64-.29 4.75.32 23.47.58 46.93 1.02 70.39.18 9.55.37 9.56-8.81 12.42-4.11 1.28-8.24 2.54-12.37 3.78-.28.08-.63-.06-.48-.04 0-28.9 0-57.72 0-87.42-15.74 30.54-34.77 57.75-60.15 80.09-4.28-2.52-2.22-4.91-.35-7.39 22.91-30.34 41.05-63.22 52.93-99.43.25-.77.45-1.56.91-3.18-3.81 1.02-7.06 1.86-10.29 2.75-3.18.88-6.35 1.82-10.1 2.89-2.99-4.69-6.04-9.48-9.67-15.17h37.01c0-18.13 0-35.66 0-53.71 10.29 4.48 20.66 8.99 31.46 13.69-.96 1.11-1.36 1.9-2 2.26-8.33 4.74-10.28 12.06-9.26 21.06.6 5.21.11 10.55.11 15.41 13.51 4.7 21.63-2.46 29.06-12.46 5.4 7.82 10.36 14.98 15.84 22.92-15.22 0-29.71 0-44.86 0 0 5.39-.26 10.2.16 14.94.12 1.34 2.03 2.82 3.44 3.71 12.57 7.9 24.83 16.12 34.3 27.86 8.98 11.13 10.6 23 3.89 35.73-.92 1.74-2.84 4.07-4.33 4.09-1.54.02-3.5-2.18-4.58-3.86-1.51-2.34-2.49-5.05-3.49-7.68-6.6-17.42-16.38-32.94-29.1-48.4z"/><path d="m139.48 156.6c10.03 4.55 19.94 9.05 30.02 13.62-.62.69-.88 1.22-1.29 1.41-9.48 4.28-10.86 12.13-9.9 21.37.51 4.91.09 9.92.09 14.79 5.28 2.1 8.62.18 11.6-3.58 2.67-3.37 5.72-6.44 9.08-10.17 6.51 7.9 12.76 15.5 19.77 24.01-14.02 0-26.88 0-40.4 0 0 6.84-.13 13.13.14 19.4.04.91 1.87 1.97 3.06 2.57 7.24 3.67 14.69 6.95 21.74 10.95 3.07 1.74 5.73 4.59 7.93 7.43 5.5 7.08 4.47 18.94-1.78 25.26-1.99 2.01-3.86 1.91-5.41-.32-1.23-1.76-2.24-3.7-3.14-5.65-5.23-11.3-12.78-20.83-22.15-30.15-.2 2.18-.44 3.45-.42 4.72.31 22.48.56 44.95 1.02 67.42.19 9.38.4 9.38-8.9 12.44-3.76 1.24-7.51 2.49-11.17 3.7 0-29.85 0-59.45 0-90.32-11.27 30.56-28.55 56.14-50.88 79.12-1.31-1.49-2.39-2.72-3.73-4.25 21.29-30.84 35.23-64.82 43.68-102.7-6.64.87-12.48 1.4-18.22 2.47-2.84.53-4.9.52-7.05-1.79-2.9-3.11-6.28-5.77-10.65-9.7h46.95c.01-17.66.01-34.59.01-52.05z"/></g></svg>