<svg enable-background="new 0 0 400 400" viewBox="0 0 400 400" xmlns="http://www.w3.org/2000/svg"><g fill="#010105"><path d="m203.49 279.24c2.15 6.61-1.34 8.89-5.72 10.99-4.46 2.14-8.63 4.85-13.33 7.54 0-57.39 0-114.21 0-169.74-13 17.29-26.76 35.59-40.81 54.28-2.8-2.11-4.48-3.36-5.23-3.92 12.69-24.22 25.62-47.82 37.52-71.91 11.95-24.18 20.24-49.79 26.65-76.98 10.01 5.68 19.69 11.18 29.47 16.73-.39.41-.48.59-.6.62-10.24 2.37-14.6 10.14-18.26 19.03-4.09 9.95-8.95 19.59-13.7 29.85 1.94.11 3.35.27 4.76.27 39.32.01 78.64.07 117.97-.12 2.64-.01 5.69-1.42 7.82-3.1 4.68-3.7 8.89-7.98 13.69-12.38 6.57 8.44 12.94 16.63 19.87 25.53-27.91 0-54.82 0-82.15 0v48.69c7.49 0 15.2-.73 22.71.17 10.98 1.32 19.35-2.03 25.75-10.9 1.75-2.42 3.77-4.64 6.03-7.39 6.6 9.63 12.4 18.1 18.74 27.36-24.81 0-48.81 0-73.23 0v47.73c11.46 0 22.92.11 34.37-.13 1.51-.03 3.21-1.56 4.44-2.77 5.31-5.26 10.48-10.67 16.01-16.34 6.78 9.67 13.14 18.75 20.02 28.58-25.37 0-50.03 0-74.98 0v48.93c8.72 0 17.43-.85 25.91.19 13.62 1.68 24.32-2.05 32.2-13.42 1.42-2.04 3.08-3.91 5.15-6.51 7.66 10.19 14.49 19.26 21.93 29.15-54.56-.03-108.23-.03-163-.03zm.65-125.09h58.1c0-16.2 0-31.96 0-47.69-19.57 0-38.79 0-58.1 0zm.07 115.35h58.04c0-16.23 0-32.13 0-48.06-19.56 0-38.78 0-58.04 0zm58.15-104.93c-19.73 0-38.92 0-58.03 0v46.58h58.03c0-15.68 0-30.94 0-46.58z"/><path d="m103.68 146.14c-19.05 5.4-38.11 10.81-57.8 16.39-2.99-6.69-6.55-14.67-10.31-23.07 10.93-2.15 16.58-10.29 21.57-18.68 16.16-27.15 27.45-56.36 35.76-86.77.09-.32.22-.62.57-1.6 10.19 5.54 20.27 11.03 31.11 16.92-1.3.5-1.79.78-2.31.88-9.84 2-15.19 8.26-20.11 17-13.82 24.59-29 48.42-43.54 72.38 5.25 0 11.77.09 18.29-.02 9.31-.17 18.62-.66 27.93-.66 4.1 0 6.61-1.11 8.42-5.14 4.66-10.45 9.84-20.66 15.05-31.46 8.9 6.56 17.5 12.9 26.04 19.2-.39.74-.49 1.22-.68 1.25-10.98 2-17.31 9.4-23.42 18.18-20.95 30.06-42.88 59.4-69.23 85.1-2.1 2.05-4.07 4.22-6.89 7.15 24.65-2.47 48.35-4.85 72.85-7.31-2.24-5.31-4.08-10.21-6.34-14.92-3.45-7.18-7.34-14.16-10.72-21.38-.86-1.84-.52-4.25-.73-6.4.76-.3 1.52-.61 2.29-.91 8.97 9.55 18.22 18.85 26.8 28.74 4.42 5.09 8.25 10.92 11.26 16.95 4.25 8.53.71 20.52-6.61 25.51-5.16 3.52-7.6 2.44-9.08-3.56-1.19-4.82-2.72-9.59-4.52-14.21-.44-1.13-2.77-2.51-3.86-2.24-23.69 5.74-47.64 10.61-70.1 20.56-3.31 1.47-6.6 2.99-10.28 4.65-4.16-8.75-8.27-17.41-12.53-26.38 10.16-1.52 16.9-7.81 22.94-14.72 18.78-21.49 33.9-45.57 49.06-69.61-.31-.6-.59-1.21-.88-1.82z"/><path d="m322.86 301.59c1.85 0 4.24-.76 5.47.12 11.48 8.15 23.36 15.89 33.93 25.12 10.2 8.91 8.45 28.68-2.02 37.44-2.74 2.29-5.24 2.15-7.15-.75-1.45-2.19-2.71-4.64-3.42-7.15-5.13-18.16-14.48-34.16-24.9-49.65-.73-1.09-1.41-2.21-2.11-3.31.07-.61.13-1.21.2-1.82z"/><path d="m35.34 287.07c1.51-.79 3.09-1.63 6-3.16 7.12 13.62 14.65 26.82 20.92 40.6 2.64 5.81 3.15 12.78 3.66 19.3.45 5.73-2.64 10.49-6.89 14.34-3.07 2.78-6.67 4.01-10.57 2.45-4.01-1.61-4.98-5.53-4.43-9.18 1.85-12.23.24-24.18-2.23-36.07-1.93-9.38-4.25-18.69-6.46-28.28z"/><path d="m183.1 305.28c.54 14.72.8 29.16-3.14 43.25-3.06 10.94-9.07 19.2-21.21 21.13-1.95.31-3.99.46-5.95.28-9.39-.9-11.34-5.14-5.61-12.69 4.12-5.42 9.58-9.97 12.92-15.78 6.09-10.59 11.34-21.69 16.29-32.87 1.52-3.43 2.97-4.33 6.7-3.32z"/><path d="m215.83 302.06c11.15 9.29 22.49 18.55 30.72 30.84 7.19 10.73 5.44 22.84-4.01 30.8-4.56 3.84-8.03 3.17-10.69-2.18-.88-1.76-1.4-3.7-2.06-5.56-5.42-15.26-10.63-30.6-16.4-45.73-1.47-3.84-1.39-6.13 2.44-8.17z"/><path d="m248.3 31.97c1.22-1.34 2.32-2.54 3.8-4.17 13.46 6.79 27.14 13.29 37.09 25.11 8.51 10.11 7.94 22.22-.7 31.58-3.87 4.19-6.93 3.93-9.86-.93-.76-1.26-1.44-2.64-1.83-4.06-4.79-17.43-14.61-31.86-26.6-45.02-.64-.72-1.17-1.55-1.9-2.51z"/><path d="m265.65 303.38c2.11-.14 4.63-1.11 5.7-.26 10.66 8.46 21.7 16.6 31.4 26.09 8.52 8.34 8.28 19.31 1.44 28.1-4.96 6.38-9.61 6.19-13.16-1.08-3.04-6.25-4.9-13.08-7.95-19.32-5.31-10.89-11.14-21.52-17.43-33.53z"/><path d="m76.58 273.52c12.74 13.27 25.05 24.9 32.51 40.23 2.28 4.68 2.82 10.53 2.87 15.85.02 2.86-2.12 6.31-4.29 8.5-5.28 5.33-11.08 3.85-13.4-3.21-6-18.29-11.84-36.63-17.63-54.99-.47-1.5-.06-3.3-.06-6.38z"/><path d="m114.8 260.56c10.65 10.45 21.75 20.49 31.8 31.49 8.58 9.4 6.92 22.63-2.63 31.25-3.53 3.18-6.37 2.74-7.99-1.74-1.57-4.34-1.9-9.2-3.81-13.35-6.17-13.39-12.9-26.52-19.21-39.85-.9-1.91-.71-4.33-1.02-6.52.95-.42 1.91-.85 2.86-1.28z"/></g><path d="m362.1 8.8c1.1.8 2.1 1.6 3.1 2.4l-1 1.1c-1.3-1.1-2.3-2-3-2.5zm1.9 4.8c.5.2.9.4 1.4.5-.6 2.3-1.3 4.5-1.9 6.8l-1.5-.5c.8-2.1 1.4-4.3 2-6.8zm-1-9.4c1.3.9 2.4 1.8 3.4 2.5l-1 1.1c-1.4-1.2-2.4-2.1-3.2-2.6zm3.7 2.2v-1.4h10.3v1.2c-.5 3.6-1.8 6.8-4 9.4 1.5 1.6 3.4 2.8 5.7 3.8-.3.4-.7.8-1.1 1.4-2.3-1.1-4.1-2.5-5.6-4.1-1.6 1.6-3.6 3.1-5.9 4.3-.3-.5-.7-.9-1-1.3 2.4-1.1 4.4-2.5 6-4.1-1.9-2.5-3-5.6-3.3-9.3h-1.1zm8.8 0h-6.4c.3 3.3 1.3 6 3 8.2 2-2.3 3.1-5.1 3.4-8.2z" fill="#fcfbfa"/><path d="m385.3 3.8h1.3v2.2h2.8v-2.2h1.3v2.2h4.1v9.1h1.7v1.3h-16.9v-1.3h1.7v-9.1h4.1v-2.2zm.4 13.1.7 1.2c-1.8.9-3.8 1.9-6 2.9-.2-.4-.5-.8-.8-1.3 2.3-1 4.3-1.9 6.1-2.8zm-3.1-6.4h2.8v-3.2h-2.8zm0 4.6h2.8v-3.3h-2.8zm4-4.6h2.8v-3.2h-2.8zm0 4.6h2.8v-3.3h-2.8zm3.7 1.9c2.1.9 4.1 1.8 6.1 2.7l-.7 1.3c-2.2-1.1-4.2-2-6.1-2.9zm3.2-9.7h-2.8v3.2h2.8zm-2.8 7.8h2.8v-3.3h-2.8z" fill="#fcfbfa"/></svg>