<svg enable-background="new 0 0 400 400" viewBox="0 0 400 400" xmlns="http://www.w3.org/2000/svg"><path d="m361.2 9.6.8-1c.9.7 1.9 1.4 2.9 2.3l-.9 1.1c-1-1-2-1.8-2.8-2.4zm.5 10.6c.9-2.1 1.6-4.3 2.3-6.7.4.2.8.4 1.3.6-.7 2.1-1.5 4.3-2.2 6.6zm.4-15.2.9-.9c1 .8 2 1.6 2.8 2.4l-1 1c-.9-.9-1.8-1.7-2.7-2.5zm12.5-1.2h1.2v1.4h2.7v1.1h-2.7v2.7h-1.2v-.6h-1.8v1.3h4.9v3.8h-1.2v-.5h-3.7c0 .4-.1.9-.1 1.2h5.1v1h-5.2c0 .5-.1.9-.2 1.2h6v1h-5.2c1.1 1.3 2.9 2 5.5 2.2-.4.4-.7.8-.9 1.3-2.9-.5-4.8-1.6-5.7-3.5h-.1c-.8 1.7-2.7 2.9-5.9 3.6-.2-.4-.6-.8-.9-1.1 2.8-.6 4.6-1.4 5.4-2.5h-4.8v-1h5.3c.1-.3.2-.7.2-1.2h-4.9v-1h5c0-.4 0-.8.1-1.2h-3.5v.5h-1.2v-3.8h4.9v-1.3h-1.8v.5h-1.2v-2.7h-2.7v-1h2.6v-1.4h1.2v1.4h4.7v-1.4zm-6.6 8.3h3.6c0-.4 0-.9 0-1.4h-3.6zm1.9-4.6h4.7v-1.3h-4.7zm6.6 3.2h-3.7v1.4h3.7z" fill="#fafbfa"/><path d="m385.3 3.8h1.3v2.2h2.8v-2.2h1.3v2.2h4.1v9.1h1.7v1.3h-16.9v-1.3h1.7v-9.1h4.1v-2.2zm.4 13.1.7 1.2c-1.8.9-3.8 1.9-6 2.9-.2-.4-.5-.8-.8-1.3 2.3-1 4.3-1.9 6.1-2.8zm-3.1-6.4h2.8v-3.2h-2.8zm0 4.6h2.8v-3.3h-2.8zm4-4.6h2.8v-3.2h-2.8zm0 4.6h2.8v-3.3h-2.8zm3.7 1.9c2.1.9 4.1 1.8 6.1 2.7l-.7 1.3c-2.2-1.1-4.2-2-6.1-2.9zm3.2-9.7h-2.8v3.2h2.8zm-2.8 7.8h2.8v-3.3h-2.8z" fill="#fafbfa"/><g fill="#010000"><path d="m87.12 161.5c-.23.54-.65 1.04-.57 1.43 1.59 7.7-2.86 10.83-9.28 12.93-4.35 1.43-8.46 3.57-13.36 5.69 2.09-48.57 5.24-96.36.01-144.79 6.74 3.34 12.9 6.55 19.21 9.44 2.18 1 4.72 1.73 7.09 1.73 73.48.09 146.96.1 220.44-.05 2.13 0 4.72-1.29 6.29-2.81 4.07-3.91 7.69-8.28 11.8-12.81 7.61 6.67 15.06 13.19 22.84 20.01-4.59 2.53-8.75 4.58-12.61 7.09-1.36.89-2.83 2.9-2.84 4.41-.1 29.16-.07 58.32.14 87.47.04 4.96.9 9.93 1.64 14.85.42 2.77.25 4.63-2.83 5.83-6.3 2.45-12.45 5.3-19.3 8.25 0-6.54 0-12.45 0-18.67-76.55 0-152.6 0-228.67 0zm81.31-10h64.05c0-31.22 0-62.11 0-93.03-21.55 0-42.76 0-64.05 0zm147.12.07c0-31.38 0-62.15 0-93.17-20.48 0-40.69 0-61.01 0v93.17zm-228.8-93.36v93.23h60.87c0-31.29 0-62.19 0-93.23-20.34 0-40.31 0-60.87 0z"/><path d="m373.8 349.86v4.32c-6.85 1.83-13.68 3.18-20.15 5.52-6.93 2.51-11.24 8.01-13.63 16.1-9.93-5.66-19.55-10.79-28.81-16.5-35.18-21.68-64.52-49.23-84.46-85.86-4.99-9.16-9.04-18.86-13.02-28.51-3.52-8.52-3.21-8.65-13.32-7.26-2.43 13.65-6.61 26.86-13.39 39.17-14.88 27.01-36.79 47.04-62.78 62.9-28.86 17.62-60.58 27.59-93.76 34.33-.33-.99-.68-1.88-.93-2.79-.21-.77-.31-1.56-.4-2.03 14.99-6.19 29.9-11.82 44.36-18.43 27.27-12.48 52.49-28.15 73.04-50.43 16.11-17.47 27.15-37.69 31.98-61.1.09-.46-.04-.96-.11-2.12-1.81 0-3.57 0-5.34 0-31.66 0-63.33-.24-94.99.15-9.06.11-18.1 2.13-27.17 3.01-1.82.18-4.19-.27-5.55-1.37-3.75-3.01-7.11-6.51-10.62-9.82.14-.52.28-1.04.42-1.56h5.49c44.66 0 89.33-.07 133.99.1 4.74.02 6.4-1.23 6.29-6.1-.33-14.16-.23-28.32-.3-42.48-.01-1.98 0-3.96 0-6.86 12.71 3.74 24.92 7.33 38.27 11.26-3.81 1.91-6.49 3.58-9.41 4.63-3.88 1.41-5.85 3.83-6.05 7.98-.5 10.27-1.14 20.54-1.77 31.47h5.57c37 0 74 .05 110.99-.12 2.52-.01 5.49-1.18 7.45-2.79 5.5-4.52 10.58-9.55 16.13-14.66 8.4 8.84 16.63 17.51 25.59 26.93-49.57 0-98.36 0-148.4 0 31.62 66.48 86.26 99.18 154.79 112.92z"/></g></svg>