<svg enable-background="new 0 0 400 400" viewBox="0 0 400 400" xmlns="http://www.w3.org/2000/svg"><g fill="#010105"><path d="m289.36 72.65c-9.89 2.3-19.41 4.44-28.88 6.81-.87.22-1.68 1.79-1.98 2.88-.34 1.24-.09 2.64-.09 3.98v240.49 7.35c8.74-9.7 16.46-18.13 23.92-26.79.75-.88.32-3.35-.31-4.75-4.05-8.92-8.3-17.74-12.68-26.99 1.41-1.04 2.66-1.97 4.09-3.03 12.55 13.78 25.57 26.74 34.76 42.79 6.03 10.54 5.26 21.18-2.2 29.61-1.62 1.82-4.25 2.75-6.42 4.09-1.2-2.22-2.8-4.31-3.54-6.67-1.93-6.16-3.36-12.47-5.24-18.65-1.06-3.47-2.6-6.8-4.42-11.47-13.11 20-25.63 39.12-38.2 58.29-4.88-5.76-9.93-11.72-15.13-17.86 6.02-6.18 6.77-14.21 7.68-22.05.71-6.09.82-12.28.82-18.42.05-74.16.03-148.33.03-222.49 0-2.12 0-4.25 0-6.87-12.01 1.98-23.41 3.85-35.42 5.83v7.26c-.06 30.5.63 61.02-.4 91.49-.86 25.54-1.93 51.31-6.09 76.45-7.02 42.43-26.8 78.64-59.93 107.17-.87-.41-1.63-.68-2.28-1.11-.66-.43-1.21-1.03-2.01-1.73 15.73-19.87 27.34-41.84 36.25-65.26 7.91-20.8 12.82-42.4 14.05-64.53 1.63-29.23 2.5-58.53 2.66-87.8.14-25.45-1.16-50.91-1.85-76.36-.05-1.97-.34-3.92-.63-7.03 6.33 4.49 11.89 8.56 17.59 12.38 1.34.9 3.35 1.67 4.81 1.36 30.55-6.35 61.26-12.4 89.84-25.43 10.33-4.71 19.63-11.66 30-17.95 6.07 6.5 12.89 13.8 19.73 21.12-15.98 4.15-31.32 8.13-47.07 12.22.89 11.79 1.63 23.22 2.63 34.63 1.44 16.39 3.1 32.76 4.6 49.15 4.41 48.4 11.35 96.33 27.88 142.33 7.39 20.57 18.5 38.69 37.02 51.43 1.49 1.02 1.85 3.69 2.71 5.53-6.13 1.23-11.55 1.59-16.38 3.49-4.69 1.84-8.77 5.25-14.05 8.55-4.62-8.95-9.96-18.12-14.22-27.77-14.25-32.28-23.48-66.1-28.02-101-3.6-27.66-5.85-55.5-8.14-83.31-2.16-26.85-3.64-53.74-5.49-81.36z"/><path d="m176.75 119.2c-21.96 0-42.58 0-63.47 0v54.34c8.24 0 16.5.1 24.75-.12 1.16-.03 2.46-1.48 3.38-2.54 3.68-4.27 7.24-8.65 11.06-13.23 6.49 8.37 12.77 16.45 19.73 25.42-20.24 0-39.43 0-58.9 0v58.85c9.74 0 19.35.08 28.95-.1 1.2-.02 2.62-1.26 3.52-2.29 4.61-5.24 9.08-10.59 13.96-16.33 7.17 9.55 14.1 18.78 21.58 28.74-23.28 0-45.67 0-68.52 0-7.21 54.38-34.47 95.81-79.61 125.84-3.57-2.21-2.23-4.16.22-6.49 34.16-32.51 55.33-71.84 62.31-119.89-17.1.67-34 1-50.85 2.2-4.41.31-7.54.25-10.47-3.27-2.19-2.64-5.01-4.76-8.67-8.15h69.68c0-19.72 0-38.94 0-58.67-7.49 0-15.08-.28-22.65.1-5.28.26-10.49 1.54-15.77 2.09-1.25.13-2.88-.52-3.86-1.36-3.41-2.91-6.62-6.06-9.9-9.12.16-.44.32-.87.49-1.31h51.73c0-18.51 0-36.24 0-54.59-1.44-.08-3.03-.31-4.6-.22-14.25.84-28.49 1.74-42.74 2.58-.89.05-2.08-.04-2.66-.57-3.62-3.33-7.1-6.81-11.6-11.18 3.22-.15 4.95-.31 6.69-.31 21.16-.02 42.32-.09 63.48.07 3.48.03 5.46-.87 6.67-4.28 7.46-20.92 15.13-41.77 22.59-62.69 1.09-3.06 1.4-6.39 2.19-10.18 8.82 5.1 17.35 10.04 26.37 15.25-21.01 16.21-30.3 40.1-45.15 61.71 10.04 0 18.79.1 27.53-.12 1.16-.03 2.4-1.62 3.39-2.68 3.96-4.23 7.84-8.53 12.07-13.15 5.62 8.44 11.01 16.54 17.08 25.65z"/><path d="m42.11 43.58c1.47-1.4 2.66-2.53 4.19-3.98 13.05 8.65 26.23 16.83 36.37 29.02 7.89 9.49 3.76 24.72-3.56 31.14-2.94 2.58-5.75 2.36-7.8-1.24-.81-1.43-1.67-2.91-2.05-4.49-4.22-17.32-13.87-31.77-24.01-45.98-.97-1.34-1.9-2.7-3.14-4.47z"/></g><path d="m362.1 8.8c1.1.8 2.1 1.6 3.1 2.4l-1 1.1c-1.3-1.1-2.3-2-3-2.5zm1.9 4.8c.5.2.9.4 1.4.5-.6 2.3-1.3 4.5-1.9 6.8l-1.5-.5c.8-2.1 1.4-4.3 2-6.8zm-1-9.4c1.3.9 2.4 1.8 3.4 2.5l-1 1.1c-1.4-1.2-2.4-2.1-3.2-2.6zm3.7 2.2v-1.4h10.3v1.2c-.5 3.6-1.8 6.8-4 9.4 1.5 1.6 3.4 2.8 5.7 3.8-.3.4-.7.8-1.1 1.4-2.3-1.1-4.1-2.5-5.6-4.1-1.6 1.6-3.6 3.1-5.9 4.3-.3-.5-.7-.9-1-1.3 2.4-1.1 4.4-2.5 6-4.1-1.9-2.5-3-5.6-3.3-9.3h-1.1zm8.8 0h-6.4c.3 3.3 1.3 6 3 8.2 2-2.3 3.1-5.1 3.4-8.2z" fill="#fcfbfa"/><path d="m385.3 3.8h1.3v2.2h2.8v-2.2h1.3v2.2h4.1v9.1h1.7v1.3h-16.9v-1.3h1.7v-9.1h4.1v-2.2zm.4 13.1.7 1.2c-1.8.9-3.8 1.9-6 2.9-.2-.4-.5-.8-.8-1.3 2.3-1 4.3-1.9 6.1-2.8zm-3.1-6.4h2.8v-3.2h-2.8zm0 4.6h2.8v-3.3h-2.8zm4-4.6h2.8v-3.2h-2.8zm0 4.6h2.8v-3.3h-2.8zm3.7 1.9c2.1.9 4.1 1.8 6.1 2.7l-.7 1.3c-2.2-1.1-4.2-2-6.1-2.9zm3.2-9.7h-2.8v3.2h2.8zm-2.8 7.8h2.8v-3.3h-2.8z" fill="#fcfbfa"/></svg>