<svg enable-background="new 0 0 400 400" viewBox="0 0 400 400" xmlns="http://www.w3.org/2000/svg"><g fill="#fcfafa"><path d="m342.2 3.2-6.3 9.2h6.1v1.2h-8.2v-.5l6.2-9.1h-5.7v-1.2h7.8v.4z"/><path d="m344 13.7v-10.9h3.1c1.6 0 3 .5 4.1 1.4 1.1 1 1.6 2.2 1.6 3.9s-.5 3-1.6 4-2.5 1.5-4.2 1.5h-3zm1.4-9.6v8.4h1.6c1.4 0 2.5-.4 3.2-1.1.8-.8 1.2-1.8 1.2-3.2s-.4-2.4-1.2-3.1-1.8-1-3.1-1z"/><path d="m356.3 2.8v10.9h-1.4v-10.9z"/><path d="m366.6 13.2c-.8.4-1.8.6-3 .6-1.6 0-2.8-.5-3.7-1.5s-1.4-2.3-1.4-3.9c0-1.7.5-3.2 1.6-4.2s2.4-1.6 4-1.6c1 0 1.9.1 2.6.4v1.5c-.8-.4-1.6-.6-2.6-.6-1.2 0-2.2.4-3 1.2s-1.1 1.9-1.1 3.3c0 1.3.4 2.3 1.1 3.1s1.6 1.1 2.8 1.1c1.1 0 2-.2 2.8-.7v1.3z"/><path d="m368.2 13c0-.3.1-.5.3-.6.2-.2.4-.3.6-.3.3 0 .5.1.7.3s.3.4.3.6-.1.5-.3.6c-.2.2-.4.3-.7.3s-.5-.1-.6-.3c-.2-.2-.3-.4-.3-.6z"/><path d="m381.1 13.7h-1.7l-5.5-8.4c-.2-.2-.3-.5-.4-.7 0 .2.1.8.1 1.5v7.6h-1.4v-10.9h1.8l5.3 8.3c.3.4.4.6.4.8 0-.3-.1-.8-.1-1.6v-7.5h1.4v10.9z"/><path d="m389.7 13.7h-5.8v-10.9h5.6v1.2h-4.2v3.5h3.9v1.2h-3.9v3.7h4.4z"/><path d="m398.4 4.1h-3.1v9.6h-1.4v-9.6h-3.1v-1.3h7.7v1.3z"/></g><path d="m351.04 284.35c6.65 8.58 12.94 16.67 19.86 25.6-74.47 0-147.94 0-222.82 0 6.02 7.12 11.2 13.23 16.33 19.29-.41.49-.63.95-.79.93-9.03-1.24-16.27 3.15-23.77 7.17-29.37 15.74-59.53 29.56-93.01 36.49-.45-2.05-.93-4.19-1.45-6.57 32.15-12.76 62.91-27.28 88.71-50.42 1.93-1.73 3.54-3.81 6.01-6.5-2.48-.13-3.88-.26-5.28-.26-20.33-.01-40.66-.32-60.98.14-8.57.2-17.08 2.15-25.65 3.03-1.8.18-4.17-.34-5.51-1.46-3.94-3.27-7.5-7.01-10.79-11.79h5.65c96.97 0 193.94-.02 290.91.08 3.97 0 6.9-.99 9.68-3.85 3.91-4.04 8.27-7.66 12.9-11.88z" fill="#010102"/><path d="m103.18 269.81c16.91 0 33.21.11 49.5-.14 2.02-.03 4.1-1.88 6.01-3.11 3.34-2.15 6.57-4.47 10.2-6.96 5.4 6.28 10.69 12.44 16.75 19.48-27.79 0-54.72 0-82.02 0 .17 2.05.27 3.29.4 4.83-5.83 1.37-11.61 2.73-17.38 4.08-2.22-32.11-4.43-63.99-6.64-96.09 4.62 2.58 9.81 5.11 14.58 8.29 3.28 2.19 6.34 2.18 9.88 1.33 18.15-4.39 35.52-10.87 52.28-19.07 1.02-.5 2.05-.98 3.34-1.6 5.59 6.5 11.09 12.89 16.42 19.09-25.31 4.21-50.54 8.4-76.23 12.67.45 6.68.89 13.23 1.37 20.38h14.06c10.16 0 20.33-.22 30.48.1 4.96.16 9-.83 12.59-4.43 2.55-2.56 5.69-4.54 8.78-6.95 5.54 6.94 10.91 13.66 16.89 21.15-27.8 0-54.79 0-82.62 0 .44 9.17.88 17.71 1.36 26.95z" fill="#010102"/><path d="m179.63 30.93c8.68 3.2 17.18 6.33 27.4 10.09-13.81 4.71-11.48 15.97-13.53 25.96 8.24 0 16.04.1 23.83-.1 1.25-.03 2.66-1.21 3.65-2.21 3.39-3.43 6.62-7.01 10.25-10.9 5.95 7.93 11.37 15.17 17.34 23.13-19.27 0-37.51 0-56.43 0-1.03 9.77-2.03 19.25-3.12 29.54 8.91 0 17.49.38 26-.26 2.23-.17 4.34-3.35 6.28-5.36 1.37-1.43 2.36-3.22 3.68-5.06 7.44 5.84 13.8 10.84 20.25 15.9-.35.6-.49 1.21-.83 1.36-7.79 3.32-9.66 9.79-10.28 17.54-.97 12.08-2.68 24.09-4.08 36.13-1.32 11.36-9.7 20.59-21.22 22.96-1.1.23-3.47-1.13-3.71-2.12-1.69-6.96-5.9-11.23-12.52-13.7-1.58-.59-2.52-2.86-3.76-4.36.36-.51.72-1.01 1.07-1.52 1.74.1 3.48.18 5.22.3 2.65.17 5.3.59 7.95.52 7.25-.19 9.17-1.51 10.06-8.77 1.74-14.32 2.96-28.7 4.47-43.77-10.32 0-19.82-.62-29.16.31-3.66.36-6.97 4.18-10.85 6.69-4.54-4.97-9.07-9.92-13.5-14.78.41-.71.53-1.17.74-1.22 10.23-2.51 8.06-11.42 8.88-18.24 2.29-19.12 3.95-38.32 5.92-58.06z" fill="#010102"/><path d="m99.8 114.75v39.79c8.55 0 16.34.11 24.11-.11 1.22-.03 2.59-1.35 3.57-2.38 3.53-3.73 6.91-7.59 10.8-11.9 5.55 7.85 10.87 15.36 16.85 23.82-18.16 0-35.45 0-53.3 0 .43 3.91.77 7.01 1.17 10.61-5.67 2.19-11.47 4.43-18.03 6.97-2.39-42.05-4.74-83.55-7.14-125.77 4.28 1.42 8.07 3.11 12.04 3.87 3.07.58 6.66.82 9.5-.22 13.22-4.84 24.98-12.37 36.11-20.92 1.32-1.01 2.65-2 4.33-3.27 6.47 7.41 12.87 14.74 20.25 23.18-10.88-3.3-19.64.02-28.57 2.52-10.23 2.86-20.58 5.29-30.83 8.08-1.28.35-3.28 1.74-3.26 2.6.3 10.95.9 21.9 1.45 33.3 8.57 0 16.7.09 24.84-.1 1.26-.03 2.72-1.1 3.69-2.08 3.4-3.41 6.62-7 10.54-11.2 5.05 8.06 9.56 15.27 14.53 23.2-18.07.01-35.42.01-52.65.01z" fill="#010102"/><path d="m290.41 287.96c.27-2.8.5-5.23.78-8.1-1.61-.16-3.03-.44-4.43-.42-21.63.36-43.26.78-64.89 1.11-1 .02-2.32-.35-2.97-1.03-2.69-2.84-5.18-5.88-8.47-9.69h6.36c23.32 0 46.65-.09 69.97.09 3.97.03 5.17-1.16 5.19-5.06.04-6.97.64-13.93 1.05-21.79-1.98 0-3.72 0-5.45 0-11.83 0-23.67-.28-35.48.09-8.95.28-17.87 1.43-26.81 2.1-1.16.09-2.74.06-3.48-.62-3.75-3.45-7.3-7.13-11.74-11.56h82.82c.5-8.34.98-16.24 1.48-24.46-1.33-.21-2.41-.55-3.48-.52-20.6.54-41.31-1.68-61.78 2.33-.93.18-2.31-.18-3.01-.81-3.77-3.41-7.39-6.98-11.06-10.5.2-.37.4-.74.6-1.11h4.77c22.66 0 45.32-.11 67.97.09 4.38.04 7.55-.83 9.89-4.81 1.65-2.81 4.07-5.18 6.3-7.93 6.52 5.58 12.83 10.98 19.71 16.86-1.56.92-2.74 2-4.11 2.37-6.18 1.66-7.62 5.95-7.86 11.83-.87 20.93-2.24 41.84-3.17 62.77-.15 3.48-1.36 5.13-4.61 5.77-4.56.87-9.08 1.91-14.09 3z" fill="#010102"/><path d="m294.66 175.93c.39-3.57.7-6.48 1.14-10.46-8.57.71-16.86.97-24.99 2.23-4.27.66-7.23.25-10.03-3.15-2.27-2.76-5.16-5.01-8.8-8.44h45.34c.97-12.37 1.9-24.36 2.95-37.69-10.37.96-20.07 1.58-29.67 2.9-3.29.45-5.18-.38-7.25-2.59-2.57-2.74-5.46-5.17-8.2-7.74.23-.41.46-.81.69-1.22h44.32c1.01-13.5 1.99-26.51 3.05-40.65-9.73.47-18.93.84-28.12 1.4-2.63.16-5.24 1.23-7.84 1.18-2.06-.04-4.48-.68-6.08-1.91-3.36-2.59-6.29-5.75-9.4-8.68.2-.43.4-.87.6-1.3h12.7c11.32 0 22.66-.23 33.97.12 4.25.13 6.79-1.25 8.73-4.85 1.47-2.74 3.43-5.21 5.45-8.22 6.26 5.78 12.18 11.25 17.99 16.62-.22.68-.24 1.15-.44 1.26-9.43 4.9-9.95 13.79-10.58 22.86-1.22 17.4-2.72 34.77-4.2 52.15-.93 10.91-2.05 21.8-3.13 33.23-5.8.95-11.63 1.89-18.2 2.95z" fill="#010102"/><path d="m233.52 321.02c.3-1.75.64-3.68 1.1-6.32 10.15 2.45 20.07 4.29 29.63 7.29 18.01 5.66 35.88 11.78 53.64 18.18 4.58 1.65 8.73 4.79 12.71 7.73 2.03 1.5 3.65 3.9 4.77 6.23 3.2 6.7 2.28 14.16-1.74 17.08-3.36 2.44-9.75 1.02-15.22-4.3-12.23-11.9-26.84-20.23-41.91-27.58-13.83-6.75-28.33-12.14-42.98-18.31z" fill="#010102"/><path d="m177.67 128.92c7.77 3.02 15.75 6.13 24.38 9.49-15.25 10.19-18.04 27.89-27.82 41.61-1.83-.7-3.91-1.5-5.55-2.13 3.01-16.39 5.98-32.54 8.99-48.97z" fill="#010102"/></svg>