<svg enable-background="new 0 0 400 400" viewBox="0 0 400 400" xmlns="http://www.w3.org/2000/svg"><path d="m377.9 391.2c-.2.3-.4.5-.6.8-.7-.6-1.4-1-2.2-1.5.2-.3.4-.5.5-.8.6.4 1.4.8 2.3 1.5zm-1.8 6.1c-.2-.2-.5-.4-.9-.6.4-.6.8-1.2 1.2-1.9s.7-1.3.9-1.9c.3.3.5.5.8.7-.7 1.3-1.4 2.6-2 3.7zm2.2-9c-.3.3-.5.5-.6.8-.6-.6-1.3-1.1-2-1.5.3-.3.5-.5.6-.7.6.5 1.3.9 2 1.4zm.3.2v-.9h2 4.5c-.3 1.3-.6 2.5-1 3.6s-.9 2.1-1.4 3c.4.5 1 1 1.6 1.4s1.2.8 1.9 1.1c-.3.2-.5.4-.8.8-.4-.3-1-.7-1.6-1.2s-1.2-1.1-1.6-1.6c-.5.6-1.1 1.1-1.7 1.6s-1.4.9-2.1 1.4c-.1-.3-.3-.5-.7-.8.6-.2 1.2-.5 1.9-1s1.4-1.1 2-1.8c-.5-.8-.9-1.6-1.2-2.5s-.6-2-.8-3.2c-.4.1-.7.1-1 .1zm2.5 2.7c.3 1 .7 1.7 1 2.2.3-.5.6-1.1 1-2s.6-1.9.9-3h-3.2-.4c.1.9.3 1.8.7 2.8z" fill="#fafbfa"/><path d="m396.5 388.5v1.5 3.6h1.5v.9c-.4 0-1 0-1.7 0h-7.9c-.5 0-.9 0-1.2 0v-.9h1.3v-3.5c0-.7 0-1.2 0-1.6h2.4c0-.8 0-1.4 0-1.7h1c0 .3-.1.8-.1 1.7h1.5c0-.8 0-1.4 0-1.7h1c0 .3-.1.9-.1 1.7zm-8.2 9.2c-.2-.3-.5-.5-.8-.8.8-.3 1.4-.6 1.9-.9s1-.7 1.4-1.1c.3.3.6.5.9.8-1.6 1-2.8 1.6-3.4 2zm2.6-6.8v-1.6h-1.5v1.6zm0 2.7v-1.9h-1.5v1.9zm2.4-2.7v-1.6h-1.5v1.6zm0 2.7v-1.9h-1.5v1.9zm.2 2 .7-.8c.4.2.9.5 1.6.8s1.3.7 1.8 1c-.3.3-.5.5-.8.8-.4-.3-1.5-1-3.3-1.8zm2-4.7v-1.6h-1.4v1.6zm0 2.7v-1.9h-1.4v1.9z" fill="#fafbfa"/><g fill="#010000"><path d="m32.28 370.96c-1.89-.95-3.35-1.69-5.23-2.63 9.7-23.34 18.23-46.89 22.63-71.63 4.39-24.69 5-49.73 6.46-75.86-6.12 3.65-11.19 6.67-16.59 9.89-4.57-7.79-9.07-15.46-13.55-23.08 9.17-1.98 17.93-3.73 26.58-5.87 1.34-.33 3.2-2.46 3.21-3.76.06-38.83-.06-77.65-.24-116.48-.02-4.3-.55-8.6-.93-14.08 5.28 3.92 9.73 7.24 14.19 10.54 5.88 4.36 12.25 2.89 14.1-3.89 3.66-13.43 6.72-27.03 10.03-40.56.39-1.58.73-3.18 1.22-5.36 7.91 5.57 15.34 10.8 22.89 16.12-.37.57-.57 1.22-.87 1.28-7.82 1.42-11.75 6.95-15.26 13.46-3.75 6.97-8.29 13.52-12.9 20.92 11.16 0 21.74.1 32.31-.13 1.27-.03 2.7-1.69 3.71-2.88 3-3.52 5.83-7.18 8.84-10.92 5.2 5.5 10.07 10.67 15.22 16.13.18-.62.18-.4.08-.34-8.37 5.6-8.41 13.92-8.25 22.83.39 21.64.13 43.3.13 65.78 4.07-1.9 7.61-3.54 11.16-5.19 2.57 7.56 2.71 7.94-4.48 10.59-5.33 1.97-6.87 4.87-6.83 10.55.28 43.33.42 86.66-.07 129.98-.1 8.79-2.23 17.8-4.89 26.25-3.25 10.34-10.86 17.24-21.83 21.08-.92-7.19-4.4-12.82-10.09-16.6-5.5-3.65-11.5-6.55-17.81-10.07 0-.78 0-2.37 0-4.29 8.43.76 16.67 1.38 24.87 2.29 5.56.62 8.53-2.1 9.75-7.05.84-3.37 1.65-6.85 1.66-10.29.11-42 .07-83.99.06-125.99 0-1.11-.19-2.22-.36-4.08-10.21 4.98-19.88 9.66-29.51 14.42-3.88 1.92-7.5 4.47-11.53 5.92-5.24 1.88-5.97 5.44-6.1 10.37-.67 25.61-2.51 51.13-7.91 76.25-5.73 26.66-16.8 51.05-31.79 73.74-.53.83-1.21 1.56-2.08 2.64zm42.38-177.38c14.62-4.97 28.53-9.88 42.6-14.35 3.64-1.16 4.41-2.92 4.4-6.38-.12-25.82-.06-51.65-.08-77.47 0-1.63-.15-3.25-.23-4.95-15.76 0-31.12 0-46.68 0-.01 34.47-.01 68.56-.01 103.15z"/><path d="m245.85 277.75c.74-1.06 1.48-2.13 2.7-3.89 14.44 8.64 28.78 17.22 43.54 26.06 9.07-12.56 16.12-26.27 20.19-41.89-1.06-.25-1.81-.58-2.55-.58-18.27.08-36.62-1.02-54.62 3.58-1.32.34-3.46-.53-4.51-1.55-3.31-3.25-6.29-6.83-9.29-10.18-5.56 1.02-9.1 8.22-16.73 4.63 14.54-14.11 23.67-30.4 28.25-49.23 4.54-18.66 3.62-37.54 1.74-56.95 2.29.88 4.14 1.24 5.6 2.21 11.39 7.5 24.2 6.06 36.78 5.86 1.53-.02 3.31-1.25 4.48-2.41 2.69-2.68 5.08-5.67 7.36-8.27 5.72 5.73 11.21 11.23 16.84 16.86.13-.26.06.17-.17.29-7.67 3.96-7.87 10.79-7.56 18.21.39 9.15.05 18.33.11 27.49.04 6.47 2.64 9.33 9.15 8.87 5.03-.35 10.17-1.33 14.89-3.07 4.49-1.66 7.68-.12 10.29 2.72 2.59 2.81 4.36 6.38 6.48 9.62-3.28 1.68-6.46 4.52-9.86 4.83-12.38 1.12-24.83 1.8-37.26 1.81-6.67.01-11.04-6.03-11.72-15.09-.67-8.95-.79-17.94-.96-26.92-.15-7.99-.03-15.98-.03-24.37-8.21 0-16.24 0-24.58 0-.39 30.72-4.73 59.93-31 81.43h5.14c20 0 40-.14 59.99.11 4.71.06 8.38-.89 11.27-4.71 1.89-2.51 4.1-4.78 6.45-7.49 6.2 6.69 11.71 12.63 17.22 18.57-.44.64-.62 1.24-1 1.41-9.3 4.22-13.53 12.19-17.33 21.21-4.81 11.42-11.06 22.24-16.8 33.54 7.86 6.58 16.07 13.31 24.12 20.23 3.15 2.71 6.07 5.72 8.89 8.77 8.09 8.75 8.76 17.84 2.2 27.68-4.33 6.5-8.35 6.43-13.18.22-7.04-9.05-14.15-18.06-21.6-26.78-4.29-5.02-9.31-9.43-13.43-13.55-10.31 8.78-20.11 17.77-30.6 25.88-11.79 9.11-25.28 15.29-39.35 20.11-3.34 1.15-3.37 1.07-5.77-3.04 23.6-15.6 46.13-32.53 62.55-57.26-12.01-11.57-23.98-23.08-36.33-34.97z"/><path d="m235.87 64.17c-19.97 1.1-38.5 2.18-57.04 3.05-1.98.09-4.38-.56-5.96-1.72-3.32-2.44-6.23-5.45-9.31-8.22.21-.47.42-.94.63-1.41 1.68-.09 3.37-.26 5.05-.26 20.16-.02 40.33-.12 60.49.07 4.61.04 8.34-.74 11.53-4.37 2.38-2.71 5.45-4.82 8.35-7.32 5.18 7.08 10.26 14.03 15.36 21.01-.67.61-.96 1.09-1.38 1.23-9.5 3.26-13.57 11.09-17.64 19.52-12.92 26.77-31.39 49.31-54.01 68.52-1.14.97-2.28 1.95-3.4 2.95-.24.21-.37.53-1.08 1.59 8.32 0 16.15.29 23.93-.23 1.71-.11 3.26-3.08 4.81-4.79 1.34-1.47 2.59-3.02 4.21-4.92 5.18 4.19 10.29 8.31 15.37 12.42-.11.4-.1.81-.3.98-5.91 5.19-6.8 11.78-6.57 19.31.48 15.15.06 30.32.21 45.49.03 3.08-.65 4.88-3.84 5.86-4.73 1.45-9.29 3.43-14.36 5.34-.23-2.91-.42-5.33-.63-8-9.33 0-18.42 0-27.97 0-1.91 13.94-3.8 27.83-5.78 42.3 9.7 0 18.67.11 27.64-.12 1.31-.03 2.82-1.51 3.81-2.68 2.26-2.66 4.25-5.54 6.64-8.71 6.08 5.12 12.02 10.13 17.87 15.06-.11.56-.07 1.04-.24 1.13-8.64 4.57-8.16 12.96-9.25 20.98-2.06 15.12-4.19 30.26-7.25 45.2-3.41 16.64-15.85 23.91-31.38 27.64-1.19-9.34-7.66-14.26-14.81-18.46-3.86-2.26-7.93-4.21-12.08-5.91-3.17-1.3-4.54-3.03-2.97-7.02 8.85 1.21 17.88 2.19 26.81 3.74 9.77 1.7 16.13-1.34 18.34-11.21 2.49-11.14 3.68-22.58 5.2-33.92.68-5.07.81-10.22 1.25-16.04-9.41 0-18.45-.8-27.23.37-3.81.51-7.07 5.07-11 8.11-4.63-5.54-9.17-10.97-13.93-16.66 6.6-5.16 7.58-12.24 8.04-19.75.83-13.6 2.08-27.17 3.25-41.93 13.91 9.61 29.28 7.78 44.9 7.39 0-16.74 0-33.44 0-51.12-6.63.48-13.22.64-19.71 1.54-5.05.7-9.97 2.31-13-2.75-8.52 5.04-16.33 9.79-24.29 14.25-1.22.69-3.16.1-4.9-.48 36.12-33.37 68-69.38 87.62-117.05z"/><path d="m262.15 33.33c1.64-.33 3.06-.61 4.65-.93 6.71 17.21 11.79 34.82 21.96 51.09 11.8-14.2 23.36-27.62 29.73-45.05 6.97 6.03 13.73 11.89 19.87 17.2-15.02 11.53-29.97 22.99-45.83 35.16 6.78 8.71 13.45 17.27 20.61 26.46 12.77-14.22 23.73-28.28 30.83-44.3 6.2 6.25 12.54 12.66 18.8 18.97-16.47 5.26-27.57 19.75-42.24 30 14.66 14.96 31.6 24.16 51.12 28.81 4.47 1.06 4.47 1.05 4.07 6.2-10.06 2.03-18.83 6.22-22.7 16.78-40.4-15-93.85-97.38-90.87-140.39z"/><path d="m83.66 217.17c7.09 9.69 14.7 18.95 20.99 29.04 4.64 7.45 5.91 16.23 3.4 25.02-.76 2.67-1.65 5.69-3.49 7.56-1.74 1.77-4.81 3.03-7.26 2.98-1.35-.03-3.39-3.07-3.79-5.02-.85-4.2-.83-8.58-1.19-12.88-1.14-13.63-5.88-26.2-11.33-38.55-1.21-2.75-2.17-5.33 2.67-8.15z"/><path d="m204.62 98.54c-.48 8.89-3.61 14.24-8.15 18.86-2.44 2.48-4.86 2-6.48-.94-1.19-2.15-2.23-4.49-2.8-6.87-2.64-11.12-7.48-21.2-13.66-30.74-.76-1.17-.76-2.82-1.12-4.25 1.61.06 3.61-.49 4.77.26 7.64 4.94 15.38 9.8 22.46 15.46 2.79 2.23 3.97 6.46 4.98 8.22z"/><path d="m79.84 109.28c1-.75 2.15-1.61 3.63-2.71 11.29 11.87 22.43 23.49 26.15 40 1.9 8.42-2.78 19.96-9.75 24.68-2.56 1.73-4.45 1.28-5.38-1.63-.7-2.19-1.39-4.51-1.4-6.78-.02-18.5-5.98-35.48-13.06-52.19-.12-.3-.09-.66-.19-1.37z"/></g></svg>