<svg enable-background="new 0 0 400 400" viewBox="0 0 400 400" xmlns="http://www.w3.org/2000/svg"><path d="m377.9 391.2c-.2.3-.4.5-.6.8-.7-.6-1.4-1-2.2-1.5.2-.3.4-.5.5-.8.6.4 1.4.8 2.3 1.5zm-1.8 6.1c-.2-.2-.5-.4-.9-.6.4-.6.8-1.2 1.2-1.9s.7-1.3.9-1.9c.3.3.5.5.8.7-.7 1.3-1.4 2.6-2 3.7zm2.2-9c-.3.3-.5.5-.6.8-.6-.6-1.3-1.1-2-1.5.3-.3.5-.5.6-.7.6.5 1.3.9 2 1.4zm.3.2v-.9h2 4.5c-.3 1.3-.6 2.5-1 3.6s-.9 2.1-1.4 3c.4.5 1 1 1.6 1.4s1.2.8 1.9 1.1c-.3.2-.5.4-.8.8-.4-.3-1-.7-1.6-1.2s-1.2-1.1-1.6-1.6c-.5.6-1.1 1.1-1.7 1.6s-1.4.9-2.1 1.4c-.1-.3-.3-.5-.7-.8.6-.2 1.2-.5 1.9-1s1.4-1.1 2-1.8c-.5-.8-.9-1.6-1.2-2.5s-.6-2-.8-3.2c-.4.1-.7.1-1 .1zm2.5 2.7c.3 1 .7 1.7 1 2.2.3-.5.6-1.1 1-2s.6-1.9.9-3h-3.2-.4c.1.9.3 1.8.7 2.8z" fill="#fafbfa"/><path d="m396.5 388.5v1.5 3.6h1.5v.9c-.4 0-1 0-1.7 0h-7.9c-.5 0-.9 0-1.2 0v-.9h1.3v-3.5c0-.7 0-1.2 0-1.6h2.4c0-.8 0-1.4 0-1.7h1c0 .3-.1.8-.1 1.7h1.5c0-.8 0-1.4 0-1.7h1c0 .3-.1.9-.1 1.7zm-8.2 9.2c-.2-.3-.5-.5-.8-.8.8-.3 1.4-.6 1.9-.9s1-.7 1.4-1.1c.3.3.6.5.9.8-1.6 1-2.8 1.6-3.4 2zm2.6-6.8v-1.6h-1.5v1.6zm0 2.7v-1.9h-1.5v1.9zm2.4-2.7v-1.6h-1.5v1.6zm0 2.7v-1.9h-1.5v1.9zm.2 2 .7-.8c.4.2.9.5 1.6.8s1.3.7 1.8 1c-.3.3-.5.5-.8.8-.4-.3-1.5-1-3.3-1.8zm2-4.7v-1.6h-1.4v1.6zm0 2.7v-1.9h-1.4v1.9z" fill="#fafbfa"/><g fill="#010000"><path d="m239.41 276.31v47.93c0 4-.12 8 .03 12 .36 9.53 5.01 14.54 14.62 14.63 25.49.24 50.99.17 76.49.06 6.13-.03 10.38-4.53 11.23-11.89.9-7.75 1.26-15.56 1.79-23.35.14-1.98.02-3.98.02-6.36h8.37c-.25 17.1 1.66 33.32 20.1 41.67-7.66 10.82-17.85 16.71-30.15 16.91-32.32.53-64.65.37-96.98-.04-5.43-.07-11.11-2.13-16.16-4.4-7.35-3.31-10.7-11.13-9.34-19.15.14-.82.34-1.65.34-2.47.02-21.49.01-42.97.01-64.95-17.09 0-33.97 0-50.78 0-2.55 7.55-4.66 15.4-7.8 22.81-9.64 22.78-26.87 38.5-48.22 50.06-22.03 11.93-45.91 18.16-70.43 22.3-4.37.74-8.76 1.34-13.16 2-1.42-4.04-.15-5.46 3.69-6.46 21.88-5.74 43.51-12.35 63.12-23.99 25.63-15.22 42.6-37.18 50.73-66.79-2.11-.16-3.82-.4-5.54-.4-20.33-.03-40.67-.32-60.99.15-7.21.16-14.41 2.05-21.56 3.44-2.87.56-4.93.32-7-2.02-3.16-3.56-6.73-6.76-11.03-11h148.79c0-22.18 0-43.86 0-65.76-27.43 0-53.89 0-80.34 0 .21.42.43.84.64 1.26-2.22 1.3-4.3 3.08-6.69 3.82-5.51 1.7-11.18 2.89-16.83 4.3 0-32.38 0-64.26 0-96.4 6.63 2.26 13.32 4.68 20.1 6.78 2.8.87 5.81 1.52 8.72 1.53 54.83.09 109.65 0 164.48.17 4.94.01 8.56-1.08 11.4-5.26 1.85-2.72 4.42-4.95 7.13-7.9 7.87 5.08 15.73 10.14 24.33 15.69-1.08.59-1.48.88-1.93 1.04-8.98 3.16-10.01 9.94-9.73 18.47.6 18.47.18 36.98.18 55.99-6.86 2.3-13.71 4.59-20.99 7.03-.31-2.35-.56-4.25-.85-6.45-30.93 0-61.79 0-94.13 0 9.02 4.06 16.79 7.55 24.91 11.19-.77.9-1.17 1.72-1.82 2.07-7.67 4.13-8.21 10.95-7.89 18.66.46 10.95.12 21.92.12 33.52 8.93 0 17.36.1 25.78-.11 1.26-.03 2.57-1.4 3.7-2.34 19.89-16.49 39.15-33.65 56.13-53.22.65-.75 1.1-1.67 1.84-2.83 7.02 8.06 13.41 15.38 20.02 22.97-24.31 7.25-44.22 21.67-65.42 33.57-.51.28-.89.78-2.27 2.02h5.8c21.33 0 42.66-.11 63.99.09 4.15.04 7.24-1 10.15-3.95 4.54-4.6 9.47-8.83 14.6-13.56 7.42 8.8 14.63 17.36 22.68 26.91-43.24.01-85.26.01-128 .01zm49.83-109.94c-60.33 0-120.38 0-180.5 0v24.35h180.5c0-8.21 0-16.28 0-24.35zm-180.49-10.63h180.4c0-7.89 0-15.58 0-23.24-60.35 0-120.26 0-180.4 0z"/><path d="m252.44 115.88c0-12.04 0-23.64 0-36.41-10.54.65-21.3.86-31.93 2.17-4.9.6-8.62.31-12-3.41-2.41-2.65-5.19-4.96-8.55-8.11h52.5c0-13.58 0-26.76 0-40.48 10.57 4.15 21.02 8.25 31.5 12.36-3.78 3.9-8.78 6.98-10.45 11.34-1.78 4.64-.4 10.48-.4 16.6h4.95c12.17 0 24.34.16 36.49-.13 2.54-.06 5.41-1.29 7.48-2.85 5.18-3.89 9.98-8.27 15.35-12.8 7.47 8.35 14.85 16.6 22.87 25.56-29.39 0-58.02 0-87.78 0 .5 7.68.73 14.73 1.46 21.72.78 7.46.99 7.44-6.16 9.68-5.04 1.57-10.1 3.14-15.33 4.76z"/><path d="m146.01 39.24c-3.54 3.91-8.54 6.95-9.32 10.85-1.45 7.16-.41 14.82-.41 21.63 17.13 6.54 26.99-5.02 37.86-14.81 6.8 8.74 13.2 16.96 20.1 25.82-19.52 0-38.38 0-58.22 0 .38 6.92.45 13.33 1.18 19.66.46 4-.57 5.97-4.57 7.15-5.86 1.74-11.51 4.17-17.16 6.27 0-10.85 0-21.44 0-32.31-.05-.02-.48-.42-.9-.4-21.6.62-43.19 1.35-64.8 1.83-2.18.05-4.77-.88-6.52-2.2-3.3-2.5-6.13-5.61-10.22-9.47h82.44c0-15.35 0-30.07 0-45.07 9.97 3.6 20.09 7.27 30.54 11.05z"/><path d="m91.92 219.54c.77-4.2 2.93-5.35 6.79-4.67 13.05 2.32 26.22 4.23 38.2 10.34 11.74 5.99 15.46 19.48 8.32 29.29-3.45 4.74-6.45 5.09-9.91.64-17.49-22.49-21.96-24.94-43.4-35.6z"/></g></svg>