<svg enable-background="new 0 0 400 400" viewBox="0 0 400 400" xmlns="http://www.w3.org/2000/svg"><path d="m377.9 391.2c-.2.3-.4.5-.6.8-.7-.6-1.4-1-2.2-1.5.2-.3.4-.5.5-.8.6.4 1.4.8 2.3 1.5zm-1.8 6.1c-.2-.2-.5-.4-.9-.6.4-.6.8-1.2 1.2-1.9s.7-1.3.9-1.9c.3.3.5.5.8.7-.7 1.3-1.4 2.6-2 3.7zm2.2-9c-.3.3-.5.5-.6.8-.6-.6-1.3-1.1-2-1.5.3-.3.5-.5.6-.7.6.5 1.3.9 2 1.4zm.3.2v-.9h2 4.5c-.3 1.3-.6 2.5-1 3.6s-.9 2.1-1.4 3c.4.5 1 1 1.6 1.4s1.2.8 1.9 1.1c-.3.2-.5.4-.8.8-.4-.3-1-.7-1.6-1.2s-1.2-1.1-1.6-1.6c-.5.6-1.1 1.1-1.7 1.6s-1.4.9-2.1 1.4c-.1-.3-.3-.5-.7-.8.6-.2 1.2-.5 1.9-1s1.4-1.1 2-1.8c-.5-.8-.9-1.6-1.2-2.5s-.6-2-.8-3.2c-.4.1-.7.1-1 .1zm2.5 2.7c.3 1 .7 1.7 1 2.2.3-.5.6-1.1 1-2s.6-1.9.9-3h-3.2-.4c.1.9.3 1.8.7 2.8z" fill="#fafbfa"/><path d="m396.5 388.5v1.5 3.6h1.5v.9c-.4 0-1 0-1.7 0h-7.9c-.5 0-.9 0-1.2 0v-.9h1.3v-3.5c0-.7 0-1.2 0-1.6h2.4c0-.8 0-1.4 0-1.7h1c0 .3-.1.8-.1 1.7h1.5c0-.8 0-1.4 0-1.7h1c0 .3-.1.9-.1 1.7zm-8.2 9.2c-.2-.3-.5-.5-.8-.8.8-.3 1.4-.6 1.9-.9s1-.7 1.4-1.1c.3.3.6.5.9.8-1.6 1-2.8 1.6-3.4 2zm2.6-6.8v-1.6h-1.5v1.6zm0 2.7v-1.9h-1.5v1.9zm2.4-2.7v-1.6h-1.5v1.6zm0 2.7v-1.9h-1.5v1.9zm.2 2 .7-.8c.4.2.9.5 1.6.8s1.3.7 1.8 1c-.3.3-.5.5-.8.8-.4-.3-1.5-1-3.3-1.8zm2-4.7v-1.6h-1.4v1.6zm0 2.7v-1.9h-1.4v1.9z" fill="#fafbfa"/><g fill="#010000"><path d="m90.69 290.06c-12.46 1.53-24.95 2.92-37.38 4.69-2.98.42-4.99.16-6.95-2.26-2.99-3.7-6.31-7.14-10.13-11.4h119.01c0-11.81 0-23.2 0-35.02-9.62 0-18.92 0-28.22 0-11 0-22 .19-32.99-.09-4.32-.11-7.64.95-10.59 4.14-2.36 2.55-5.21 4.63-8.23 7.25-5.2-6.59-10.32-13.07-15.39-19.51.41-.5.56-.9.81-.97 8.87-2.65 9.3-9.32 9.07-17.15-.68-23.79-.78-47.61-1.13-71.41-.03-1.96-.3-3.92-.53-6.75 10.26 4.38 20.02 8.54 30.81 13.15-10.5 7.37-9.73 17.76-9.53 28.2.29 15.66.08 31.32.08 46.98v5.74c1.67.14 2.93.34 4.19.34 19.33.02 38.66-.03 57.98.07 2.74.01 4.61-.6 6.14-3.09 2.33-3.8 5.1-7.32 7.88-11.24 7.07 5.65 13.94 11.14 22.51 17.98-3.49 2.77-6.89 4.94-9.58 7.79-1.62 1.73-2.98 4.5-3 6.81-.21 26.16-.28 52.32-.06 78.47.09 10.79 1.04 21.56 1.39 32.35.04 1.28-.97 3.42-1.98 3.78-6.7 2.34-13.53 4.3-20.08 6.3 0-28.05 0-55.76 0-83.81-13.61 0-27.5 0-40.61 0-2.31 9.29-3.63 18.6-6.93 27.14-8.27 21.35-25.5 33.51-46.02 41.45-8.01 3.1-16.44 5.17-24.76 7.42-1.39.38-3.19-.74-4.8-1.17.06-.56.13-1.12.19-1.68 5.47-2.62 11.04-5.05 16.38-7.91 17-9.11 31.35-21.08 38.31-39.65 2.97-7.93 4.01-16.58 5.93-24.9-.58-.67-1.18-1.36-1.79-2.04z"/><path d="m248.5 276.93h34.3c2 0 4 .02 6 0 14.22-.12 29.44 3.35 39.34-12.31 5.36 8.04 9.95 14.92 14.74 22.09-2.38 1.12-4.37 2.45-6.56 3.02-5.26 1.38-6.84 4.39-6.26 9.79 2.44 22.65 11.68 40.68 33.13 50.85.9.43 1.85.75 2.79 1.06 5.16 1.69 5.16 1.68 4.74 7.69-10.84-1.31-19.14 3.5-25.92 11.97-13.16-9.62-20.92-22.64-24.05-37.91-3.05-14.88-4.4-30.12-6.58-45.79-20.85 0-43.07 0-65.19 0v78.33c-6.52 2.46-13.92 5.25-21.21 8 0-49.94 0-99.72 0-150.13 5.42 2.08 11.13 4.4 16.94 6.46 2.45.87 5.09 1.66 7.65 1.68 17.49.15 34.99.08 52.49.07 1.47 0 2.94-.13 4.53-.21 0-31.28 0-62.32 0-94.05 9.99 4.06 19.89 8.09 30.17 12.27-.63.93-.85 1.58-1.31 1.9-7.09 5.01-8.68 11.79-8.37 20.28.72 19.64.36 39.31.53 58.97.03 3.98.66 7.96.61 11.93-.01 1.34-.91 3.4-1.97 3.87-6.03 2.69-12.22 5-19.01 7.7 0-4.57 0-8.48 0-12.72-20.72 0-40.96 0-61.53 0z"/><path d="m149.27 208.35c1.12 5.26-2.19 6.69-6.04 8.02-4.97 1.71-9.79 3.85-14.76 5.84 0-36.2 0-71.93 0-107.83.67.2 1.67.32 2.48.78 11.52 6.49 23.85 7.89 36.97 7.62 28.65-.59 57.31-.24 85.97-.11 3.49.02 5.91-.8 7.94-3.8 2.51-3.7 5.57-7.04 8.63-10.83 6.99 5.58 13.93 11.13 21.73 17.35-3.25 3.05-6.38 5.72-9.15 8.72-1.24 1.34-2.52 3.35-2.51 5.05.12 23.31.44 46.62.76 69.92.02 1.46.38 2.92.64 4.8-6.86 2.73-13.73 5.47-21.39 8.52 0-5.14 0-9.56 0-14.05-37.39 0-74.13 0-111.27 0zm110.94-48.08c0-9.59 0-18.66 0-27.79-37.08 0-73.78 0-110.76 0v27.79zm-110.84 37.48h110.81c0-9.3 0-18.35 0-27.31-37.14 0-73.88 0-110.81 0z"/><path d="m263.17 83.99v23.44c-6.6 2.36-12.94 4.62-20.02 7.15 0-10.31 0-20 0-30.04-28.02 0-55.44 0-83.74 0 0 6.16-.2 12.43.08 18.67.15 3.36-.94 5.07-4.14 6.21-5.11 1.83-10.03 4.17-15.75 6.6 0-10.91 0-21.02 0-31.59-2.24-.1-4-.25-5.76-.25-21.17-.02-42.34-.32-63.49.14-8.9.19-17.75 2.16-26.65 3.02-1.96.19-4.51-.34-5.98-1.54-3.69-3.01-6.91-6.6-11.4-11.01h112.52c0-16.35 0-32.03 0-47.99 10.25 4.45 20.74 8.99 31.91 13.83-3.06 2.8-6.03 5.12-8.49 7.9-1.38 1.56-2.62 3.83-2.73 5.84-.34 6.45-.13 12.93-.13 19.8h82.98c0-15.31 0-30.38 0-45.96 11.3 4.05 22.52 8.07 34.87 12.49-3.66 2.93-6.7 5.56-9.95 7.91-3.03 2.2-4.65 4.66-4.35 8.7.42 5.46.1 10.97.1 17 2.03.1 3.8.25 5.57.25 19.5.02 39 .11 58.49-.11 2.54-.03 5.48-1.19 7.52-2.76 5.79-4.46 11.21-9.4 17.34-14.64 7.43 8.81 14.73 17.47 22.71 26.93-37.62.01-74.17.01-111.51.01z"/></g></svg>