<svg enable-background="new 0 0 400 400" viewBox="0 0 400 400" xmlns="http://www.w3.org/2000/svg"><g fill="#fcfbfa"><path d="m12.4 4.8-6.1 9h6v1.2h-8v-.5l6.1-8.9h-5.7v-1.2h7.6v.4z"/><path d="m14 15v-10.6h3c1.6 0 2.9.5 4 1.4s1.6 2.2 1.6 3.8-.5 3-1.6 3.9-2.4 1.5-4 1.5zm1.4-9.4v8.2h1.6c1.3 0 2.4-.4 3.1-1.1s1.1-1.8 1.1-3.1-.4-2.3-1.2-3-1.8-1-3.1-1z"/><path d="m26.1 4.4v10.6h-1.4v-10.6z"/><path d="m36.1 14.6c-.8.4-1.8.6-2.9.6-1.5 0-2.7-.5-3.6-1.4s-1.4-2.2-1.4-3.8c0-1.7.5-3.1 1.5-4.1s2.3-1.6 3.9-1.6c1 0 1.8.1 2.5.4v1.4c-.8-.4-1.6-.6-2.5-.6-1.2 0-2.1.4-2.9 1.2s-1.1 1.8-1.1 3.2c0 1.3.3 2.3 1 3s1.6 1.1 2.7 1.1c1 0 2-.2 2.7-.7v1.3z"/><path d="m37.6 14.3c0-.2.1-.5.3-.6s.4-.3.6-.3c.3 0 .5.1.6.3s.3.4.3.6-.1.4-.3.6-.4.3-.6.3c-.3 0-.5-.1-.6-.3s-.3-.4-.3-.6z"/><path d="m50.2 15h-1.6l-5.3-8.2c-.2-.2-.3-.5-.4-.7 0 .2.1.7.1 1.5v7.4h-1.4v-10.6h1.7l5.2 8.1c.2.4.4.6.4.7 0-.3-.1-.8-.1-1.5v-7.3h1.4z"/><path d="m58.6 15h-5.7v-10.6h5.5v1.2h-4.1v3.4h3.8v1.2h-3.8v3.6h4.3z"/><path d="m67.1 5.6h-3.1v9.4h-1.4v-9.4h-3v-1.2h7.5z"/></g><path d="m100.67 34.93h5.38c49 0 98-.18 147 .16 9.6.07 18.49-1.1 26.66-6.17 4.09-2.54 6.93-1.99 9.87 2.11 3.65 5.1 8.07 9.64 12.76 15.14-26.54 3.53-50.38 13.2-74.28 21.64 1.12 2.75 3.14 5.34 2.79 7.56-.34 2.15-3.11 3.92-5.35 6.46h5.38c24.5 0 49-.11 73.5.09 4.94.04 9.01-.81 12.61-4.4 2.67-2.67 5.94-4.74 8.59-6.8 7.54 7.54 14.79 14.79 22.59 22.58-20.19 1.16-35.43 11.97-49.43 25.8-1.28-.83-2.47-1.59-4.15-2.67 6.16-8.15 12.19-16.12 18.69-24.73-29.18 0-57.42 0-85.81 0-.38 7.69-.75 15.11-1.13 22.54-.67 13.25-8.19 21.66-19.38 27.49-1.17.61-2.33 1.25-3.48 1.9-.11.06-.13.28-.39.9 5.22 2.24 10.46 4.48 15.72 6.73-1.75 4.34-9.19 4.7-7.4 11.74h5.24c20.83 0 41.67-.15 62.5.11 4.89.06 8.7-.96 11.66-4.91 1.79-2.39 3.79-4.63 5.75-7.01 6.86 5.85 12.79 10.91 18.69 15.94-.42.59-.55.99-.8 1.1-8.8 3.65-9.84 10.77-9.17 19.14.43 5.41 1.63 12.3-1.03 15.96-2.49 3.41-9.63 3.42-14.72 4.93-.94.28-1.89.54-1.42.41-2.62-1.6-4.23-3.44-5.86-3.46-23-.18-46-.11-69-.09-.48 0-.96.16-1.81.3v21.7h97.42c-5.03-2.73-9.13-4.41-12.55-6.99-2.94-2.21-9.07-1.5-8.23-8.77 5.81 1.22 11.34 2.06 16.67 3.58 11.95 3.41 23.85 7.01 35.66 10.86 3.25 1.06 6.33 2.97 9.11 5.01 7.44 5.47 9.01 14.28 4.18 22.11-2.07 3.36-4.16 3.77-7.65 1.14-8.63-6.49-17.6-12.51-26.57-18.53-1.37-.92-3.44-1.22-5.14-1.12-13.43.78-26.86 1.74-40.56 3.6 6.98 2.7 13.96 5.4 22.03 8.52-9.79 5.41-9.88 13.77-8.27 23.27 10.9 0 22.01.06 33.11-.11.97-.01 2.12-1.41 2.82-2.42 1.97-2.85 3.75-5.83 5.8-9.07 7.19 5.75 14.04 11.23 20.78 16.63-.12.64-.06 1.1-.24 1.22-11.22 7.47-7.86 18.74-7.08 28.96.94 12.21 1.42 12.17-10.16 16.26-2.65.94-5.29 1.91-7.93 2.86.11-.51.21-1.02.32-1.54-2.17-.8-4.33-2.24-6.52-2.29-10.29-.25-20.58-.11-31.15-.11v26.71c14.73-.98 29.19-1.94 45.01-2.98-7.36-5.34-13.62-9.87-19.76-14.33.6-3.96 2.75-4.79 5.73-3.55 13.15 5.47 26.67 10.26 39.27 16.8 13.21 6.85 14.2 19.42 3.64 30-3.61 3.62-5.8 3.07-8.45-1.35-3.5-5.82-7.26-11.51-11.28-16.98-.92-1.25-3.45-2.12-5.08-1.92-24.71 3.06-49.44 6.06-74.08 9.66-14.93 2.19-29.71 5.45-44.58 8.06-1.44.25-3.83-.14-4.52-1.12-3.5-5.02-6.58-10.32-10.4-16.48 21.79-1.51 42.71-2.96 63.8-4.42 0-9.42 0-18.37 0-28.12-5.88 0-11.64 0-17.4 0-4 0-8.02-.22-11.99.11-1.54.13-2.99 1.47-4.45 2.3-.56.32-1 .93-1.59 1.09-5.89 1.68-11.8 3.31-17.91 5 0-23.02 0-45.61 0-68.38 8.76 2.14 15.44 9.79 25.17 9.57 9.15-.21 18.32-.04 27.93-.04 0-10.8 0-21.34 0-32.62-48.81.81-97.66 1.62-146.5 2.42-.09.44-.19.87-.28 1.31 7.26 2.66 14.51 5.32 22.77 8.34-7.74 4.96-12.94 10.59-9.23 20.52 9.12 0 18.72.09 28.32-.11 1.18-.02 2.55-1.36 3.43-2.42 2.32-2.79 4.42-5.76 6.95-9.11 6.24 5.24 12.18 10.23 18.16 15.25-.2.57-.22 1.2-.54 1.45-7.46 5.81-8.25 13.74-7.43 22.36.61 6.45.86 12.95.93 19.43.01 1.39-1.18 3.75-2.26 4.04-5.58 1.51-11.31 2.49-16.98 3.66.13-.57.27-1.14.4-1.71-1.93-.82-3.83-2.3-5.78-2.36-8.46-.26-16.94-.11-25.77-.11v26.68c10.55-.96 20.89-1.91 32.18-2.94-2.83-4.14-5.04-7.79-7.69-11.09-2.31-2.88-2.55-5.22 1.44-8.27 8.61 6.01 17.91 11.84 26.42 18.66 5.85 4.69 9.81 11.26 7.07 19.3-1.12 3.3-3.47 6.43-5.96 8.96-4.03 4.09-6.55 3.39-9-1.87-3.08-6.61-6.09-13.25-9.42-20.5-43.72 8.19-87.21 16.34-131.27 24.6-2.5-5.37-5.19-11.17-8.4-18.06 28.34-2.47 55.99-4.87 83.85-7.29 0-9.39 0-18.47 0-27.86-11.12 0-22.02 0-33.35 0 .96 5.38-2.42 6.83-6.57 7.99-4.29 1.2-8.42 2.92-12.98 4.53 0-23.85 0-47.28 0-72.45 16.55 11.75 34.6 9.4 52.77 9.08 0-9.71 0-19.27 0-29.42-5.38.35-10.8.44-16.15 1.1-13.84 1.69-27.65 3.67-41.48 5.41-1.25.16-3.3-.23-3.83-1.08-3.47-5.61-6.62-11.41-10.39-18.05h150.91c0-7.71 0-14.8 0-22.21-24.76 0-49.33 0-74.32 0 1.03 5.36-2.35 6.76-6.52 7.92-4.46 1.24-8.76 3.08-13.23 4.69 0-22.02 0-43.8 0-65.92 5.41 3.05 10.81 6.19 16.32 9.13 1.69.9 3.68 1.72 5.54 1.73 23.33.11 46.67.07 70 .05.63 0 1.27-.16 2.6-.34-.42-7.81-.84-15.5-1.28-23.64 3.39 1.27 6.27 2.34 9.65 3.6-.95-6.1-4.52-9.45-9.44-10.98-8.85-2.76-17.77-5.46-26.85-7.25-4.34-.85-4.77-2.48-4.01-5.46 11.61 0 23.01.2 34.4-.14 3-.09 6.34-1.31 8.81-3.04 2.06-1.44 4.09-4.25 4.36-6.66.64-5.58.2-11.28.2-17.45-6.5-.05-12.37-.92-18.43 2.71-30.13 18.04-61.03 34.69-94.78 45-22.14 6.76-44.64 12.34-66.93 18.44-1.58-4.66-.44-6.24 3.3-7.5 30.88-10.36 61.96-20.3 90.84-35.68 12.58-6.7 24.68-14.28 37-21.46-.14-.5-.29-1-.43-1.5-1.53-.07-3.06-.2-4.59-.2-19.67-.01-39.34-.19-59 .09-7.11.1-14.19 1.51-21.31 1.9-2.33.13-5.16-.5-7.02-1.83-3.57-2.55-6.61-5.84-10.7-9.59h155.13c-6.25-8.49-13.68-13.93-21.98-17.83-8.21-3.85-16.98-6.51-25.82-9.81.3-.89.69-2.06 1.5-4.49 18.11 4.07 36.03 8.1 53.95 12.09 1.07.24 2.4.59 3.29.19 11.76-5.29 23.46-10.71 35.05-16.93-.72-.07-1.43-.2-2.15-.2-40 .01-80-.02-120 .13-5.13.02-10.33.57-15.35 1.62-4.55.95-7.91.3-10.92-3.41-2.17-2.68-4.99-4.83-7.52-7.22.21-.41.41-.81.62-1.21zm15.76 159.68h74.17c0-7.31 0-14.22 0-21.21-24.87 0-49.41 0-74.17 0zm94.79.12h74.2c0-7.31 0-14.34 0-21.28-24.95 0-49.5 0-74.2 0zm76.12 85.01v30.41h35.92c0-10.34 0-20.23 0-30.41-12.18 0-24.04 0-35.92 0zm-208.88-.04v30.47h33.3c0-10.34 0-20.27 0-30.47-11.12 0-22.01 0-33.3 0zm187.98 30.55c0-10.35 0-20.36 0-30.52-11.28 0-22.17 0-33.1 0v30.52zm-134.03-30.52v30.49h30.4c0-10.3 0-20.24 0-30.49-10.06 0-19.96 0-30.4 0z" fill="#010105"/></svg>