<svg enable-background="new 0 0 400 400" viewBox="0 0 400 400" xmlns="http://www.w3.org/2000/svg"><path d="m361.2 9.6.8-1c.9.7 1.9 1.4 2.9 2.3l-.9 1.1c-1-1-2-1.8-2.8-2.4zm.5 10.6c.9-2.1 1.6-4.3 2.3-6.7.4.2.8.4 1.3.6-.7 2.1-1.5 4.3-2.2 6.6zm.4-15.2.9-.9c1 .8 2 1.6 2.8 2.4l-1 1c-.9-.9-1.8-1.7-2.7-2.5zm12.5-1.2h1.2v1.4h2.7v1.1h-2.7v2.7h-1.2v-.6h-1.8v1.3h4.9v3.8h-1.2v-.5h-3.7c0 .4-.1.9-.1 1.2h5.1v1h-5.2c0 .5-.1.9-.2 1.2h6v1h-5.2c1.1 1.3 2.9 2 5.5 2.2-.4.4-.7.8-.9 1.3-2.9-.5-4.8-1.6-5.7-3.5h-.1c-.8 1.7-2.7 2.9-5.9 3.6-.2-.4-.6-.8-.9-1.1 2.8-.6 4.6-1.4 5.4-2.5h-4.8v-1h5.3c.1-.3.2-.7.2-1.2h-4.9v-1h5c0-.4 0-.8.1-1.2h-3.5v.5h-1.2v-3.8h4.9v-1.3h-1.8v.5h-1.2v-2.7h-2.7v-1h2.6v-1.4h1.2v1.4h4.7v-1.4zm-6.6 8.3h3.6c0-.4 0-.9 0-1.4h-3.6zm1.9-4.6h4.7v-1.3h-4.7zm6.6 3.2h-3.7v1.4h3.7z" fill="#fafbfa"/><path d="m385.3 3.8h1.3v2.2h2.8v-2.2h1.3v2.2h4.1v9.1h1.7v1.3h-16.9v-1.3h1.7v-9.1h4.1v-2.2zm.4 13.1.7 1.2c-1.8.9-3.8 1.9-6 2.9-.2-.4-.5-.8-.8-1.3 2.3-1 4.3-1.9 6.1-2.8zm-3.1-6.4h2.8v-3.2h-2.8zm0 4.6h2.8v-3.3h-2.8zm4-4.6h2.8v-3.2h-2.8zm0 4.6h2.8v-3.3h-2.8zm3.7 1.9c2.1.9 4.1 1.8 6.1 2.7l-.7 1.3c-2.2-1.1-4.2-2-6.1-2.9zm3.2-9.7h-2.8v3.2h2.8zm-2.8 7.8h2.8v-3.3h-2.8z" fill="#fafbfa"/><g fill="#010000"><path d="m248.24 150.15c0-18.46 0-36.19 0-54.7 9.02 4.01 17.89 7.95 26.96 11.98-.15.71-.07 1.54-.44 1.88-6.23 5.74-6.05 13.18-5.8 20.76.21 6.46.04 12.92.04 19.94h11.24c15.83 0 31.67.11 47.5-.11 2.4-.03 5.16-1.08 7.09-2.53 5.3-4 10.25-8.47 15.71-13.06 7 8.37 13.86 16.59 21.36 25.57-34.71 0-68.42 0-102.51 0v26.73h12.87c11.17 0 22.33-.12 33.5.08 3.19.06 5.31-.9 7.16-3.43 2.64-3.62 5.56-7.04 7.96-10.06 6.14 6.16 12.18 12.21 18.45 18.49.24-.38 0 .33-.49.71-7.48 5.82-7.61 13.81-7.55 22.41.29 38.16.13 76.33.12 114.49-.01 18.96-8.46 33.04-24.58 42.65-.46-.26-.91-.37-.96-.57-4.17-16.03-16.74-21.9-31.09-25.1-5.16-1.15-6.15-3.4-5.04-6.66 9.9 0 19.32.01 28.74 0 8.89-.01 12.72-2.65 13.1-11.37.6-14.1.16-28.24.16-42.71-17.62 0-34.85 0-52.04 0-.21.37-.52.64-.51.91.26 23.47.47 46.95.89 70.41.06 3.2-.64 4.74-4.02 5.38-5.95 1.13-11.79 2.81-17.78 4.29 0-27.27 0-53.85 0-80.89-16.91 0-34.13 0-51.95 0-.07 1.59-.22 3.34-.22 5.1-.02 23.33-.09 46.66.07 69.99.02 3.48-.99 5.39-4.17 6.88-5.53 2.59-10.83 5.69-16.61 8.78 0-67.03 0-133.5 0-200.64 4.42 2.68 8.6 5.63 13.13 7.84 3.14 1.53 6.76 2.81 10.19 2.88 14.66.31 29.33.13 43.99.13h5.77c0-8.89 0-17.29 0-26.29-1.67-.08-3.42-.22-5.17-.23-16.17-.02-32.33-.19-48.5.08-6.61.11-13.23.99-19.8 1.92-3.55.5-6.33.17-8.92-2.62-2.82-3.04-6.09-5.65-10.09-9.31zm20.98 125.04h52.27c0-11.83 0-23.25 0-34.83-17.57 0-34.81 0-52.27 0zm-72.79-34.85v34.87h52.11c0-11.79 0-23.19 0-34.87-17.5 0-34.71 0-52.11 0zm52.14-43.89c-17.72 0-34.82 0-52.1 0v33.13h52.1c0-11.2 0-21.97 0-33.13zm72.8 33.28c0-11.28 0-22.29 0-33.17-17.67 0-34.89 0-52.06 0v33.17z"/><path d="m143.34 166.06c6 6.07 11.78 11.91 17.44 17.62-12.57 6.6-30.21 22.35-38.51 34.61 5.22 2.8 10.65 5.26 15.59 8.48 10.17 6.63 18.47 14.7 16.17 28.39-.62 3.67-2.2 7.28-3.91 10.62-1.6 3.12-4.43 3.06-6.45.4-2.19-2.89-4.09-6.08-5.62-9.37-6.36-13.65-15.39-25.17-27.97-35.68v6.12c0 44.32-.06 88.65.1 132.97.01 3.94-1.11 6.02-4.7 7.52-5.03 2.11-9.82 4.77-15.48 7.57 0-53.79 0-106.9 0-160.01-17.25 24.89-36.92 46.94-60.92 65.05-3.31-2.15-2.82-3.83-.47-6.36 40.39-43.61 68.13-94.83 89.73-149.72.18-.45.23-.94.38-1.61-.43-.2-.82-.54-1.21-.54-20.42.12-40.95-1.52-61.09 3.7-1.34.35-3.45-.16-4.49-1.08-4.22-3.71-8.16-7.73-13.36-12.77h6.28c22.5 0 44.99-.09 67.49.09 3.96.03 7.04-.73 9.58-3.92 2.47-3.12 5.3-5.96 8.3-9.29 6.14 7.64 11.65 14.5 17.09 21.28-.22.5-.26.95-.47 1.06-7.76 4.03-10.98 11.21-14.28 18.84-6.39 14.79-13.71 29.18-20.49 43.81-1.08 2.32-1.78 5-1.89 7.55-.27 5.99.18 12.01-.19 17.99-.21 3.35 1.63 4.78 4.06 5.19 1.39.23 3.61-.9 4.55-2.12 10.86-14.07 18.12-30.13 24.74-46.39z"/><path d="m290.75 105.73h5.93c0-9.09 0-18.03 0-28.07-8 1.34-15.67 2.3-23.17 4.01-3.44.78-5.55.32-7.67-2.44-2.58-3.37-5.58-6.42-9.28-10.6h39.8c0-13.71 0-26.77 0-40.38 9.92 3.59 19.85 7.19 31.22 11.31-13.15 6.58-10.82 17.65-10.37 28.11 15.58 4.62 27.23-1.95 37.24-14.03 7.32 8.26 14.06 15.89 21.55 24.36-20.14 0-39.18 0-58.5 0 0 4.55-.37 8.66.08 12.68.88 7.99 1.07 7.96-6.15 11.58-3.24 1.63-6.46 3.3-10.16 5.19 6.52 2.24 12.54 3.99 18.31 6.36 13.34 5.47 17.22 19.76 8.88 31.68-1.98 2.82-3.99 3.4-6.28.45-.81-1.05-1.69-2.09-2.24-3.28-5.87-12.72-15.47-22.31-25.87-31.3-1.37-1.19-1.96-3.26-3.32-5.63z"/><path d="m188.44 120.21c0-13.59 0-26.64 0-40.74-9.8.67-19.58.87-29.21 2.18-4.93.67-8.53.35-11.71-3.72-2-2.56-4.64-4.61-7.9-7.77h48.78c0-14.14 0-27.84 0-41.97 9.91 3.59 19.95 7.24 31.43 11.4-14.66 6.09-10.3 17.87-10.62 28.44 5.48 1.05 10.43 1.17 14.96-2.86 3.83-3.4 8.17-6.21 12.69-9.59 5.94 7.29 11.77 14.43 18.34 22.48-15.89 0-30.72 0-46.14 0 0 10.56-.21 20.51.11 30.44.13 3.9-1.27 5.59-4.83 6.57-5.24 1.46-10.38 3.34-15.9 5.14z"/><path d="m119.1 73.78c-1.64 3.63-4.01 9.96-7.32 15.76-2.34 4.1-6.09 3.69-8.63-.32-1.06-1.66-1.98-3.49-2.56-5.37-5.46-17.91-15.03-33.64-25.66-48.83-.8-1.15-.94-2.77-1.38-4.17 1.6.03 3.61-.56 4.75.19 10.43 6.8 20.94 13.52 30.96 20.9 6.08 4.47 9.66 10.9 9.84 21.84z"/></g></svg>