<svg enable-background="new 0 0 400 400" viewBox="0 0 400 400" xmlns="http://www.w3.org/2000/svg"><g fill="#fcfafa"><path d="m342.2 3.2-6.3 9.2h6.1v1.2h-8.2v-.5l6.2-9.1h-5.7v-1.2h7.8v.4z"/><path d="m344 13.7v-10.9h3.1c1.6 0 3 .5 4.1 1.4 1.1 1 1.6 2.2 1.6 3.9s-.5 3-1.6 4-2.5 1.5-4.2 1.5h-3zm1.4-9.6v8.4h1.6c1.4 0 2.5-.4 3.2-1.1.8-.8 1.2-1.8 1.2-3.2s-.4-2.4-1.2-3.1-1.8-1-3.1-1z"/><path d="m356.3 2.8v10.9h-1.4v-10.9z"/><path d="m366.6 13.2c-.8.4-1.8.6-3 .6-1.6 0-2.8-.5-3.7-1.5s-1.4-2.3-1.4-3.9c0-1.7.5-3.2 1.6-4.2s2.4-1.6 4-1.6c1 0 1.9.1 2.6.4v1.5c-.8-.4-1.6-.6-2.6-.6-1.2 0-2.2.4-3 1.2s-1.1 1.9-1.1 3.3c0 1.3.4 2.3 1.1 3.1s1.6 1.1 2.8 1.1c1.1 0 2-.2 2.8-.7v1.3z"/><path d="m368.2 13c0-.3.1-.5.3-.6.2-.2.4-.3.6-.3.3 0 .5.1.7.3s.3.4.3.6-.1.5-.3.6c-.2.2-.4.3-.7.3s-.5-.1-.6-.3c-.2-.2-.3-.4-.3-.6z"/><path d="m381.1 13.7h-1.7l-5.5-8.4c-.2-.2-.3-.5-.4-.7 0 .2.1.8.1 1.5v7.6h-1.4v-10.9h1.8l5.3 8.3c.3.4.4.6.4.8 0-.3-.1-.8-.1-1.6v-7.5h1.4v10.9z"/><path d="m389.7 13.7h-5.8v-10.9h5.6v1.2h-4.2v3.5h3.9v1.2h-3.9v3.7h4.4z"/><path d="m398.4 4.1h-3.1v9.6h-1.4v-9.6h-3.1v-1.3h7.7v1.3z"/></g><path d="m82 52.97c1.66.5 2.84.69 3.85 1.2 12.38 6.28 25.53 7.26 39.21 6.97 24.82-.52 49.66-.15 74.49-.15h5.85c-1.63-12.6-8.84-22.01-16.26-32.97 2.64-.17 4.69-.94 6.11-.3 6.5 2.95 13.08 5.87 19.16 9.58 10.6 6.47 11.79 11.52 6.36 23.68h10.51c24.33 0 48.66.11 72.99-.13 3.04-.03 6.41-1.33 9.01-3 5.87-3.76 11.35-8.11 17.29-12.45 6.97 8.34 13.77 16.48 21.21 25.39-33.17 0-65.5 0-98.23 0v20.9c1.64.08 3.39.22 5.14.23 12.17.02 24.34-.3 36.49.16 4.96.19 8.16-1.49 10.9-5.21 1.57-2.13 3.44-4.04 5.61-6.54 6.15 4.73 12.16 9.34 18.15 13.94-.19.43-.24.86-.45.98-7.17 3.73-8.25 9.99-7.45 17.23.39 3.46-.44 7.18.48 10.44 1.65 5.85-.94 7.59-6.01 8.34-2.89.43-5.66 1.59-9.27 2.65 4.74 5.79 9.1 11.12 14.14 17.27-26.15 5.32-51.86 8.2-77.61 10.25-2.38 13.56 2.14 19.29 15.38 19.37 19 .12 38 .06 57 .02 7.98-.02 13.11-4.73 13.88-12.64.51-5.27.89-10.54 1.35-16.06h4.88c-.45 12.49 3.44 22.99 14.52 29.93-4.3 6.43-10.16 9.56-16.74 10.89-6.31 1.27-12.82 1.87-19.27 2.05-11.06.32-22.14.09-34.09.09 8.3 4.79 15.86 8.83 23.06 13.43 5.68 3.62 10.47 8.21 11.85 15.38 1.4 7.28-1.06 13.45-5.27 19.08-2.22 2.97-4.83 2.54-7.02-.23-.92-1.16-1.67-2.51-2.24-3.88-6.01-14.34-15.27-26.46-25.58-37.89-1.13-1.25-1.39-3.27-2.43-5.87-5.76 0-12.77.59-19.62-.17-6.67-.74-13.44-2.19-19.7-4.54-7.41-2.78-10.59-9.11-10.72-17.02-.23-14.45-.6-28.9-.92-43.75-28.57 0-56.56 0-84.55 0-.07.23-.15.46-.22.68 5.25 1.66 10.5 3.32 16.16 5.11-2.5 4.18-8.86 6.61-5.6 13.41 10.83 0 21.98.35 33.08-.23 2.9-.15 5.69-3.12 8.45-4.91 2.37-1.53 4.63-3.21 7.24-5.04 5.87 6.32 11.6 12.5 18.15 19.56-23.03 0-45.02 0-67.36 0v19.59c21.7-3.83 43.22-7.63 65.07-11.49.46 1.95.83 3.49 1.21 5.11-13.55 4.24-27.13 8.04-40.37 12.79-11.21 4.02-22.01 9.18-33.06 13.67-1.35.55-3.11.07-4.13.07-2.36 9.9-4.45 20.27-7.36 30.4-2.46 8.58-8.83 14.28-16.37 18.69-1 .58-2.08 1.03-3.17 1.43-5.3 1.96-11.4.98-13.4-2.11-2.08-3.23-.71-7.61 3.95-12.3 1.41-1.42 2.79-2.96 4.46-3.99 12.34-7.52 19-19.21 24.07-32.16.7-1.78 2.08-3.29 3.77-5.87-3.67-3.35-7.82-7.14-12.29-11.22 6.19-3.1 7.37-7.88 7.27-13.63-.21-12.46-.07-24.92-.07-37.68-7.57 0-14.66 0-22.7 0 .5 57.71-22.66 102.54-73.64 131.68-3.07-2.09-2.26-3.86.31-6.35 14.34-13.94 28.26-28.28 37.65-46.26 8.28-15.85 12.3-33 14.1-50.55 1.68-16.35 2.87-32.84 2.71-49.26-.17-17.75-2.16-35.47-3.35-53.21-.04-.66 0-1.31 0-2.58zm95.75 38.57h54.92c0-6.97 0-13.55 0-20.27-18.42 0-36.5 0-54.92 0zm-72.99.21h52.47c0-6.89 0-13.6 0-20.5-17.6 0-34.86 0-52.47 0zm122.73 37.6c-.07.3-.14.6-.21.9 7.35 2.65 14.7 5.31 22.26 8.03-7.31 7.1-7.51 7.64-5.63 14.7 2.25-.35 4.54-.67 6.82-1.07 16.89-2.97 33.48-6.84 48.63-15.38 3-1.69 4.7-3.5 3.02-7.17-24.98-.01-49.93-.01-74.89-.01zm-49.81-10.17h55.08c0-5.84 0-11.27 0-16.91-18.43 0-36.62 0-55.08 0zm-73-.01h52.62c0-5.85 0-11.26 0-16.91-17.64 0-34.99 0-52.62 0zm197.95.07c0-5.91 0-11.47 0-16.91-16.59 0-32.81 0-49.22 0v16.91z" fill="#010102"/><path d="m158.41 348.38c14.63-4.53 28.38-8.79 42.12-13.05 6.81-2.12 13.58-4.41 20.45-6.28 1.63-.44 3.64.5 5.5 1.73-26.38 14.69-54.48 25.34-78.53 43.98-4.66-5.49-9.6-11.31-14.79-17.43 5.85-5.79 5.8-12.97 5.52-20.42-.34-9.1-.08-18.23-.08-28.45-35.55 20.67-73.18 33.07-111.99 42.21-1.9-4.32.34-5.63 3.86-6.81 42.77-14.39 82.02-35.36 117.52-63.28 2.99-2.35 5.81-4.93 9.36-7.96-1.84-.27-2.88-.55-3.92-.55-26.66.01-53.32-.1-79.98.19-7.11.08-14.2 1.48-21.3 2.14-1.32.12-3.08.07-3.99-.69-3.83-3.15-7.41-6.6-12.22-10.97h174.92c-3.34-12.37-8.99-22.59-15.87-32.2-2.52-3.52-2.5-3.54 1.02-7.77 7.81 5.02 16.09 9.63 23.55 15.32 8.47 6.47 8.84 12.48 2.7 21.11-.57.8-1.16 1.6-2.17 2.99 1.87.15 3.24.37 4.62.37 30.49.02 60.99.07 91.48-.09 2.45-.01 5.19-1.01 7.29-2.34 6.73-4.27 13.23-8.91 20.23-13.69 7.81 8.26 15.53 16.42 23.94 25.31-52 0-103.02 0-155.38 0 2.5 3.48 4.06 6.33 6.24 8.57 9.62 9.89 19.46 19.58 29.14 29.41 1.98 2.02 3.69 1.91 6.12.66 18.87-9.63 37.22-19.99 52.18-36.15 7.25 6.79 14.32 13.41 21.86 20.47-24.4 1.2-44.9 12.61-66.75 19.39-1.38.43-2.69 1.05-5.09 2 36.62 22.95 76.01 31.78 117.82 32.11.11.89.23 1.52.26 2.16.04.98.01 1.97.01 2.72-6.09 1.97-11.99 3.55-17.63 5.79-5.84 2.32-9.96 6.6-11.62 13.68-4.79-1.17-9.43-2.18-13.99-3.45-31.39-8.75-60.59-21.85-85.45-43.42-16.03-13.9-28.64-30.58-38.8-49.1-1.83-3.34-3.78-4.41-7.62-4.72-8.17-.65-14.88 1.6-21.01 6.88-6.17 5.31-14.78 9.07-18.4 15.66-3.19 5.8-1.04 14.58-1.1 22.05-.09 10.32-.03 20.64-.03 31.92z" fill="#010102"/><path d="m257.65 224.77c-.65 8.27-3.82 12.83-8.5 16.32-3.02 2.25-5.96 1.78-7.96-1.72-.57-1-.94-2.1-1.45-3.14-5.66-11.41-11.36-22.8-16.94-34.26-.77-1.58-.88-3.48-1.29-5.23 1.79.23 3.97-.11 5.3.79 8.76 5.93 17.62 11.78 25.82 18.43 2.87 2.35 3.96 6.87 5.02 8.81z" fill="#010102"/><path d="m155.44 193.43c9.06 6.07 18.54 11.6 27.08 18.33 11.53 9.09 7.39 19.83-1.24 27.4-3.53 3.1-6.31 2.42-8.24-1.86-1.22-2.69-1.43-5.86-2.74-8.49-5.02-10.05-10.32-19.96-15.46-29.95-.67-1.3-1-2.78-1.48-4.17.69-.42 1.39-.84 2.08-1.26z" fill="#010102"/></svg>