<svg enable-background="new 0 0 400 400" viewBox="0 0 400 400" xmlns="http://www.w3.org/2000/svg"><g fill="#fcfafa"><path d="m342.2 3.2-6.3 9.2h6.1v1.2h-8.2v-.5l6.2-9.1h-5.7v-1.2h7.8v.4z"/><path d="m344 13.7v-10.9h3.1c1.6 0 3 .5 4.1 1.4 1.1 1 1.6 2.2 1.6 3.9s-.5 3-1.6 4-2.5 1.5-4.2 1.5h-3zm1.4-9.6v8.4h1.6c1.4 0 2.5-.4 3.2-1.1.8-.8 1.2-1.8 1.2-3.2s-.4-2.4-1.2-3.1-1.8-1-3.1-1z"/><path d="m356.3 2.8v10.9h-1.4v-10.9z"/><path d="m366.6 13.2c-.8.4-1.8.6-3 .6-1.6 0-2.8-.5-3.7-1.5s-1.4-2.3-1.4-3.9c0-1.7.5-3.2 1.6-4.2s2.4-1.6 4-1.6c1 0 1.9.1 2.6.4v1.5c-.8-.4-1.6-.6-2.6-.6-1.2 0-2.2.4-3 1.2s-1.1 1.9-1.1 3.3c0 1.3.4 2.3 1.1 3.1s1.6 1.1 2.8 1.1c1.1 0 2-.2 2.8-.7v1.3z"/><path d="m368.2 13c0-.3.1-.5.3-.6.2-.2.4-.3.6-.3.3 0 .5.1.7.3s.3.4.3.6-.1.5-.3.6c-.2.2-.4.3-.7.3s-.5-.1-.6-.3c-.2-.2-.3-.4-.3-.6z"/><path d="m381.1 13.7h-1.7l-5.5-8.4c-.2-.2-.3-.5-.4-.7 0 .2.1.8.1 1.5v7.6h-1.4v-10.9h1.8l5.3 8.3c.3.4.4.6.4.8 0-.3-.1-.8-.1-1.6v-7.5h1.4v10.9z"/><path d="m389.7 13.7h-5.8v-10.9h5.6v1.2h-4.2v3.5h3.9v1.2h-3.9v3.7h4.4z"/><path d="m398.4 4.1h-3.1v9.6h-1.4v-9.6h-3.1v-1.3h7.7v1.3z"/></g><path d="m58.17 142.07c-8.61 8.99-16.74 17.47-24.87 25.95-.52-.33-1.05-.66-1.57-.98-1.21-.72-2.42-1.45-3.79-2.27 32.43-41.68 55.03-88 68.89-139.07 9.33 5.78 18.75 11.61 28.47 17.63-16.47 6.8-17.71 24.01-27.6 36.67 10.25 0 19.21-.68 28.01.18 9.92.97 17.48-1.33 22.09-10.65.35-.71 1.07-1.23 1.4-1.59 7.26 7.24 14.42 14.39 21.86 21.82-15.35 1.89-22.91 13.92-31.03 25.16-4.25 5.89-8.11 12.07-12.77 19.06 11.06 0 21.12.08 31.17-.12 1.12-.02 2.46-1.46 3.26-2.56 2.33-3.2 4.44-6.56 6.83-10.14 6.27 4.81 12.2 9.36 18.75 14.38-11.86 10.28-5.59 23.9-6.93 36.32 13.12-22.43 23.2-46.19 31.34-70.68 8.08-24.33 14.91-49.08 22.38-73.96 7.89 4.57 16.44 9.53 24.9 14.43-.16.67-.15 1.14-.32 1.22-7.48 3.7-10.3 10.45-12.78 17.92-4.39 13.21-9.56 26.16-14.57 39.66 1.48.12 2.87.34 4.25.34 30.66.02 61.33.07 91.99-.1 2.36-.01 5.15-1.18 6.98-2.71 5.47-4.58 10.55-9.61 16.06-14.71 6.98 8.83 13.74 17.38 21.16 26.78-23.66 0-46.2 0-69.14 0v64.82c7.94 0 15.87.11 23.8-.12 1.2-.03 2.5-1.47 3.51-2.49 4.8-4.83 9.53-9.74 14.62-14.97 7.35 9.31 14.29 18.12 21.84 27.68-21.81 0-42.7 0-63.87 0v60.94c7.27 0 14.53.09 21.78-.1 1.1-.03 2.24-1.3 3.23-2.14 5.59-4.73 11.14-9.5 17.22-14.7 7.42 8.78 14.75 17.45 22.67 26.83-21.99 0-43.18 0-64.78 0v72.11c5.57 0 11.38-.57 17.04.12 10.77 1.32 19.41-1.62 26.14-10.34 1.99-2.58 4.87-4.49 7.74-7.07 7.49 8.88 14.84 17.6 22.79 27.02-49.16 0-97.63 0-146.89 0 0 7.5-.19 14.44.08 21.35.14 3.62-.93 5.79-4.28 7.44-5.02 2.46-9.76 5.49-14.87 8.41 0-77.86 0-155.07 0-232.58-.69.91-1.41 1.84-2.11 2.78-8.7 11.53-17.47 23.01-26 34.66-1.32 1.8-2.13 4.43-2.13 6.68-.12 49.83-.42 99.66.12 149.48.16 14.65-5.87 24.8-17.22 32.74-2.57 1.8-5.34 3.29-8.5 5.22-2.44-17.54-15.84-22.32-29.63-26.27-3.82-1.09-5.09-2.43-3.78-6.22 9.9.86 19.75 1.99 29.64 2.49 9.26.47 10.87-1.35 10.87-10.49.01-22.83 0-45.66 0-68.49 0-1.79 0-3.57 0-5.58-28.6 0-56.54 0-84.89 0-.52 5.78-.9 11.54-1.57 17.27-4.18 36.05-19.36 67.06-43.43 93.89-.87.97-3.21.63-5.92 1.07 4.97-10.11 9.27-18.66 13.4-27.28 8.27-17.3 12.19-35.85 14.6-54.65 6.24-48.88 3.13-98.06 4.36-147.49zm225.39 114.19c-18.23 0-35.84 0-53.81 0v71.38h53.81c0-23.86 0-47.42 0-71.38zm-53.81-81.75h53.62c0-21.64 0-42.86 0-64.09-18.06 0-35.67 0-53.62 0zm53.69 71.35c0-20.55 0-40.57 0-60.54-18.12 0-35.84 0-53.63 0v60.54zm-143.92-155.79c-8.78 0-16.71-.04-24.64.01-6.47.04-14-1.81-19.11.88-4.89 2.58-7.29 9.92-10.75 15.19-4.78 7.3-9.52 14.62-14.21 21.83 4.84 4.61 9.86 6.49 16.16 6.15 9.29-.5 18.62-.26 27.93-.05 3.09.07 4.82-.78 6.03-3.72 2.14-5.21 4.71-10.25 7.08-15.37 3.74-8.08 7.46-16.15 11.51-24.92zm-29.33 158.72c0-16.13 0-31.83 0-47.57-11.33 0-22.26 0-33.48 0v47.57zm-33.43-58.05h33.48c0-15.56 0-30.93 0-46.47-11.28 0-22.21 0-33.48 0zm52.59 10.47v47.58h31.94c0-15.93 0-31.65 0-47.58-10.73 0-21.16 0-31.94 0zm-.2-10.49h32.07c0-15.59 0-30.96 0-46.25-10.92 0-21.47 0-32.07 0z" fill="#010102"/><path d="m314.3 68.46c-1.3 9.38-4.02 16.05-9.33 21.46-2.71 2.76-5.31 2.34-7.25-.97-.92-1.56-1.76-3.25-2.22-4.99-4.18-15.61-11.93-29.46-20.86-42.75-.84-1.25-.78-3.11-1.14-4.69 1.64.13 3.66-.31 4.86.49 9.94 6.57 20.09 12.91 29.38 20.32 3.5 2.81 4.93 8.24 6.56 11.13z" fill="#010102"/></svg>