<svg enable-background="new 0 0 400 400" viewBox="0 0 400 400" xmlns="http://www.w3.org/2000/svg"><g fill="#fcfafa"><path d="m342.2 3.2-6.3 9.2h6.1v1.2h-8.2v-.5l6.2-9.1h-5.7v-1.2h7.8v.4z"/><path d="m344 13.7v-10.9h3.1c1.6 0 3 .5 4.1 1.4 1.1 1 1.6 2.2 1.6 3.9s-.5 3-1.6 4-2.5 1.5-4.2 1.5h-3zm1.4-9.6v8.4h1.6c1.4 0 2.5-.4 3.2-1.1.8-.8 1.2-1.8 1.2-3.2s-.4-2.4-1.2-3.1-1.8-1-3.1-1z"/><path d="m356.3 2.8v10.9h-1.4v-10.9z"/><path d="m366.6 13.2c-.8.4-1.8.6-3 .6-1.6 0-2.8-.5-3.7-1.5s-1.4-2.3-1.4-3.9c0-1.7.5-3.2 1.6-4.2s2.4-1.6 4-1.6c1 0 1.9.1 2.6.4v1.5c-.8-.4-1.6-.6-2.6-.6-1.2 0-2.2.4-3 1.2s-1.1 1.9-1.1 3.3c0 1.3.4 2.3 1.1 3.1s1.6 1.1 2.8 1.1c1.1 0 2-.2 2.8-.7v1.3z"/><path d="m368.2 13c0-.3.1-.5.3-.6.2-.2.4-.3.6-.3.3 0 .5.1.7.3s.3.4.3.6-.1.5-.3.6c-.2.2-.4.3-.7.3s-.5-.1-.6-.3c-.2-.2-.3-.4-.3-.6z"/><path d="m381.1 13.7h-1.7l-5.5-8.4c-.2-.2-.3-.5-.4-.7 0 .2.1.8.1 1.5v7.6h-1.4v-10.9h1.8l5.3 8.3c.3.4.4.6.4.8 0-.3-.1-.8-.1-1.6v-7.5h1.4v10.9z"/><path d="m389.7 13.7h-5.8v-10.9h5.6v1.2h-4.2v3.5h3.9v1.2h-3.9v3.7h4.4z"/><path d="m398.4 4.1h-3.1v9.6h-1.4v-9.6h-3.1v-1.3h7.7v1.3z"/></g><path d="m182.92 92.48c4.61 2.63 9.34 5.73 14.41 8.09 3.33 1.55 7.1 2.62 10.76 2.89 6.13.46 12.32-.02 18.48.19 2.9.1 3.99-.95 4.69-3.73 5.65-22.19 11.73-44.28 13.71-67.22.02-.29.28-.55.7-1.33 9.58 5.93 19.13 11.83 28.77 17.8-16.73 14.88-26.74 33.69-35.83 54.14 2.37.11 4.1.26 5.83.26 22.33.02 44.65-.09 66.98.1 4.31.04 7.67-.82 10.47-4.27 2.51-3.09 5.48-5.8 7.98-8.41 6.78 6.79 13.22 13.25 20.02 20.06-2.6 2.07-5.88 4.27-8.62 7.02-1.55 1.55-3.13 3.99-3.13 6.04-.16 72.65-.13 145.29-.13 217.94 0 .97.11 1.95.26 4.46 5.63-6.55 10.48-12.2 15.74-18.32 6.54 8.87 12.8 17.36 19.9 26.98-2.92 0-4.78 0-6.64 0-56.82 0-113.63-.13-170.45.14-8.55.04-17.15 1.66-25.61 3.21-2.95.54-4.63.17-6.42-1.96-2.83-3.39-5.83-6.65-9.65-10.97h27.79c-.01-84.74-.01-168.77-.01-253.11zm45.71 252.77c0-77.41 0-154.48 0-231.73-8.86 0-17.42 0-26.13 0v231.73zm45 0c0-77.41 0-154.48 0-231.73-8.86 0-17.42 0-26.13 0v231.73zm19.22-231.91v231.94h25.77c0-77.46 0-154.62 0-231.94-8.68 0-16.97 0-25.77 0z" fill="#010102"/><path d="m125.6 367.82c0-8.36 0-15.97 0-23.99-19.64 0-38.85 0-58.6 0 0 5.88-.14 11.67.06 17.45.1 2.86-.66 4.6-3.45 5.77-5.92 2.48-11.7 5.3-17.4 7.92 0-43.02 0-85.75 0-129.36 5.6 3.14 10.86 6.5 16.46 9.08 3.62 1.67 7.74 3.01 11.67 3.11 14.15.37 28.33-.07 42.49.27 4.37.11 7.17-1.34 9.69-4.58 2.22-2.85 4.78-5.43 7.46-8.44 6.76 6.27 13.2 12.24 19.6 18.18-.25.47-.33.87-.56 1.01-8.28 4.8-9.46 12.2-9.14 21.11.68 19.14.38 38.31.52 57.47.04 5.62 2.29 12.56-.22 16.5-2.54 3.96-9.74 4.95-14.91 7.21-.88.39-1.82.65-3.67 1.29zm-58.43-34.26h58.02c0-21.94 0-43.61 0-65.17-19.61 0-38.81 0-58.02 0z" fill="#010102"/><path d="m174.15 107.41c-3.42 0-5.37 0-7.31 0-31.32 0-62.65-.2-93.97.11-10.25.1-20.49 1.57-30.75 2.29-1.35.1-3.15-.1-4.07-.91-3.56-3.18-6.85-6.67-11.18-10.98h69.39c-5.51-24.77-15.58-46.89-27.28-68.37 2.08-3.11 4.2-3.3 6.9-.75 10.28 9.68 21.24 18.73 30.84 29.04 10.94 11.75 11.04 21.56 2.45 35.23-.79 1.25-1.64 2.46-3.17 4.75 5.98 0 11.21-.5 16.31.11 8.39 1.01 14.68-1.5 19.57-8.51 2.62-3.75 6.19-6.84 9.53-10.45 7.45 9.32 14.6 18.26 22.74 28.44z" fill="#010102"/><path d="m54.52 163.23c-3.02-3.81-6.4-8.07-10.28-12.97 2.36-.11 3.93-.25 5.49-.25 19.82-.01 39.63.1 59.45-.14 2.69-.03 5.72-1.27 7.95-2.84 4.72-3.33 9.03-7.26 13.88-11.26 7.43 7.88 14.68 15.56 22.34 23.68-32.99 2.87-65.77-3.1-98.83 3.78z" fill="#010102"/><path d="m152.26 215.17c-3.05 0-4.66 0-6.26 0-19.31 0-38.62-.33-57.92.15-8.73.22-17.47 1.76-26.09 3.3-2.95.53-4.63.18-6.32-2.13-2.43-3.33-5.08-6.51-8.28-10.58 2.48-.14 4.17-.31 5.87-.31 17.98-.02 35.96.14 53.93-.16 2.98-.05 6.28-1.57 8.81-3.32 4.63-3.21 8.78-7.1 13.52-11.03 7.19 7.62 14.41 15.27 22.74 24.08z" fill="#010102"/></svg>