<svg enable-background="new 0 0 400 400" viewBox="0 0 400 400" xmlns="http://www.w3.org/2000/svg"><path d="m377.9 391.2c-.2.3-.4.5-.6.8-.7-.6-1.4-1-2.2-1.5.2-.3.4-.5.5-.8.6.4 1.4.8 2.3 1.5zm-1.8 6.1c-.2-.2-.5-.4-.9-.6.4-.6.8-1.2 1.2-1.9s.7-1.3.9-1.9c.3.3.5.5.8.7-.7 1.3-1.4 2.6-2 3.7zm2.2-9c-.3.3-.5.5-.6.8-.6-.6-1.3-1.1-2-1.5.3-.3.5-.5.6-.7.6.5 1.3.9 2 1.4zm.3.2v-.9h2 4.5c-.3 1.3-.6 2.5-1 3.6s-.9 2.1-1.4 3c.4.5 1 1 1.6 1.4s1.2.8 1.9 1.1c-.3.2-.5.4-.8.8-.4-.3-1-.7-1.6-1.2s-1.2-1.1-1.6-1.6c-.5.6-1.1 1.1-1.7 1.6s-1.4.9-2.1 1.4c-.1-.3-.3-.5-.7-.8.6-.2 1.2-.5 1.9-1s1.4-1.1 2-1.8c-.5-.8-.9-1.6-1.2-2.5s-.6-2-.8-3.2c-.4.1-.7.1-1 .1zm2.5 2.7c.3 1 .7 1.7 1 2.2.3-.5.6-1.1 1-2s.6-1.9.9-3h-3.2-.4c.1.9.3 1.8.7 2.8z" fill="#fafbfa"/><path d="m396.5 388.5v1.5 3.6h1.5v.9c-.4 0-1 0-1.7 0h-7.9c-.5 0-.9 0-1.2 0v-.9h1.3v-3.5c0-.7 0-1.2 0-1.6h2.4c0-.8 0-1.4 0-1.7h1c0 .3-.1.8-.1 1.7h1.5c0-.8 0-1.4 0-1.7h1c0 .3-.1.9-.1 1.7zm-8.2 9.2c-.2-.3-.5-.5-.8-.8.8-.3 1.4-.6 1.9-.9s1-.7 1.4-1.1c.3.3.6.5.9.8-1.6 1-2.8 1.6-3.4 2zm2.6-6.8v-1.6h-1.5v1.6zm0 2.7v-1.9h-1.5v1.9zm2.4-2.7v-1.6h-1.5v1.6zm0 2.7v-1.9h-1.5v1.9zm.2 2 .7-.8c.4.2.9.5 1.6.8s1.3.7 1.8 1c-.3.3-.5.5-.8.8-.4-.3-1.5-1-3.3-1.8zm2-4.7v-1.6h-1.4v1.6zm0 2.7v-1.9h-1.4v1.9z" fill="#fafbfa"/><g fill="#010000"><path d="m114.88 373.78c8.7-15.73 17.73-30.48 25.22-45.97 10.56-21.83 15.93-45.27 18.91-69.31 6.57-53.06 4.59-106.34 4.61-159.58 0-10.14 0-20.27 0-31.16 4.61 2.62 9.12 5.63 14 7.81 3.64 1.63 7.75 3.06 11.67 3.11 23.16.29 46.32.14 69.48.14h6.65c-3.04-9.54-5.25-18.56-8.81-27.01-3.53-8.38-8.43-16.18-13.29-25.28 1.88 0 4.04-.68 5.16.11 8.95 6.29 18.26 12.23 26.38 19.49 10.06 8.99 10.33 17.59 2.7 28.69-.72 1.05-1.41 2.13-2.5 3.77 2 .1 3.42.22 4.83.22 17.33.01 34.66.13 51.99-.13 2.47-.04 5.4-1.38 7.28-3.06 4.31-3.87 8.1-8.32 12.58-13.03 7.71 8.63 14.87 16.64 22.83 25.55-35.74 0-70.64 0-105.54 0-.11.46-.22.92-.33 1.39 7.98 4.51 15.96 9.01 24.2 13.67-11.35 8.21-16.86 19.88-22.69 32.17 1.83.2 3.05.44 4.26.44 15.33.03 30.66.12 45.99-.1 2.21-.03 4.76-1.17 6.53-2.59 4.53-3.63 8.71-7.71 13.41-11.95 7.28 7.74 14.46 15.38 22.51 23.94-24.17 0-47.03 0-69.89 0-.23.45-.46.9-.68 1.35 22.05 29.59 44.56 58.63 83.83 67.81.1 1.65.19 3.26.31 5.3-9.68 2.17-17.69 6.8-23.11 16.14-6-6.46-11.73-12.61-18.32-19.71v98.68c-5.88 1.97-12.69 4.26-20.27 6.81 0-4.52 0-8.41 0-12.68-11.66 0-22.69 0-33.69 0 0 10.66-.51 21.11.2 31.47.4 5.93 5.23 8.75 11 8.55 10.13-.35 20.26-.68 30.39-.78 6.31-.06 12.63.25 18.94.49 6.83.26 12.13-5.96 12.21-14.74.1-10.99.02-21.98.02-33.53 1.7-.08 3.21-.14 5.07-.23.25 17.38.89 34.3 17.01 45.17-1.99 9.04-11.18 16.3-22.85 17.83-4.6.6-9.26.94-13.89.98-17.83.14-35.66.09-53.49.15-17.08.06-25-7.8-25.08-25-.04-9.97-.01-19.95-.01-30.34-11.45 0-22.48 0-33.43 0-.25.44-.53.71-.55 1-.74 9.3-.74 9.31-9.54 12.19-3.9 1.28-7.82 2.51-11.27 3.62 0-31.52 0-62.89 0-93.55-6.24 5.85-12.68 12.28-19.59 18.16-2.6 2.21-6.3 3.14-10.74 5.24-1.23 6.92-2.85 15.67-4.32 24.44-6.16 36.75-24.54 66.67-51.38 91.82-1.29 1.2-3.43 1.45-4.91 2.03zm66.52-285.1c-1.19 54.35 2 108.33-5.59 163.32 30.35-32.3 53.7-67.29 71.92-107.85-15.5 1.2-29.69 2.32-43.89 3.38-1.4.1-3.27.43-4.16-.29-4.08-3.31-7.89-6.95-12.56-11.16 2.62-.12 4.21-.26 5.79-.26 18.16-.02 36.32-.08 54.48.06 3.17.02 4.71-.9 5.65-4.04 3.27-10.97 6.95-21.81 10.24-32.77.96-3.22 1.14-6.67 1.74-10.39-28.24 0-55.66 0-83.62 0zm109.87 92.29c-13.17 5.53-11.55 15.62-10.36 25.6h38.84c-.98-1.43-1.58-2.39-2.27-3.28-10.82-14.02-21-28.68-26.85-45.33-3.88-11.05-9.62-14.67-20.52-12.94-2.98.47-4.63 1.13-5.94 3.94-8.97 19.34-19.38 37.86-32.36 54.85-.62.82-1.04 1.79-1.66 2.86h29.64c0-13.37 0-26.48 0-39.97 10.04 4.55 19.99 9.06 31.48 14.27zm-31.08 72.59c0-12.28 0-24.28 0-36.34-11.33 0-22.26 0-33.38 0v36.34zm20.58-36.4v36.44h33.45c0-12.23 0-24.26 0-36.44-11.24 0-22.19 0-33.45 0zm-20.59 81.4c0-11.71 0-23.38 0-35.12-11.3 0-22.2 0-33.44 0v35.12zm20.59-35.24v35.1h33.38c0-11.93 0-23.44 0-35.1-11.23 0-22.01 0-33.38 0z"/><path d="m39.79 239.8c6.28 3.91 12.49 8 18.94 11.66 2.32 1.32 5.21 2.22 7.86 2.27 12.49.23 25-.01 37.49.18 3.37.05 5.53-.86 7.28-3.84 2.08-3.57 4.73-6.81 7.58-10.83 6.67 5.68 13.18 11.22 19.59 16.68-.14.62-.11 1.05-.29 1.2-7.47 6.06-8.48 14.04-8.24 23.15.54 20.15.08 40.32.26 60.49.03 3.4-1.01 5.09-4.16 6.24-4.95 1.8-9.75 4.05-15.47 6.47 0-6.08 0-11.44 0-17.03-16.97 0-33.23 0-50.22 0 0 4.95-.16 9.74.06 14.51.14 3.06-.78 4.9-3.72 6.14-5.79 2.43-11.44 5.21-16.96 7.75 0-41.7 0-83.13 0-125.04zm21.05 23.53v62.95h49.33c0-21.14 0-41.97 0-62.95-16.53 0-32.64 0-49.33 0z"/><path d="m95.63 97.82c7.53 0 14.18.15 20.81-.11 1.55-.06 3.38-1.17 4.52-2.33 4.64-4.72 9.05-9.65 13.96-14.94 6.51 8.82 12.78 17.31 19.69 26.66-2.52.13-4.22.3-5.91.3-27.3.02-54.61-.18-81.91.13-8.74.1-17.46 1.6-26.21 2.3-1.51.12-3.52-.06-4.55-.95-3.59-3.14-6.85-6.65-11.22-10.99h62.25c-2.66-14.49-6.95-27.67-12.72-40.37-3.23-7.1-6.94-13.97-10.27-21.03-.59-1.25-.32-2.92-.44-4.39 1.4.28 3.24.09 4.14.91 9.23 8.6 19.02 16.74 27.24 26.22 10.27 11.83 10.25 21.62 2.33 35.2-.48.82-.86 1.7-1.71 3.39z"/><path d="m113.08 135.74c7.56 8.04 14.8 15.73 22.9 24.33-4.36 0-7.6 0-10.85 0-15.49 0-30.98-.23-46.46.09-9.04.19-18.06 1.34-27.1 1.84-1.33.07-3.21-.66-4.01-1.68-2.35-2.97-4.28-6.27-6.72-9.98 1.9-.13 3.29-.32 4.68-.32 15.32-.02 30.65.11 45.97-.13 2.55-.04 5.43-1.18 7.53-2.68 4.7-3.39 9.02-7.32 14.06-11.47z"/><path d="m43.55 203.93c14.51 0 28.1-.37 41.65.16 6.68.26 11.8-1.38 16.19-6.38 2.59-2.95 5.8-5.35 8.81-8.07 7.56 8.04 14.79 15.73 22.65 24.1-2.53.11-4.11.26-5.68.25-17.78-.18-35.55-.57-53.32-.47-6.08.04-12.21.99-18.2 2.14-2.7.52-4.3.5-5.74-1.99-1.74-3-3.79-5.84-6.36-9.74z"/></g></svg>