<svg enable-background="new 0 0 400 400" viewBox="0 0 400 400" xmlns="http://www.w3.org/2000/svg"><path d="m377.9 391.2c-.2.3-.4.5-.6.8-.7-.6-1.4-1-2.2-1.5.2-.3.4-.5.5-.8.6.4 1.4.8 2.3 1.5zm-1.8 6.1c-.2-.2-.5-.4-.9-.6.4-.6.8-1.2 1.2-1.9s.7-1.3.9-1.9c.3.3.5.5.8.7-.7 1.3-1.4 2.6-2 3.7zm2.2-9c-.3.3-.5.5-.6.8-.6-.6-1.3-1.1-2-1.5.3-.3.5-.5.6-.7.6.5 1.3.9 2 1.4zm.3.2v-.9h2 4.5c-.3 1.3-.6 2.5-1 3.6s-.9 2.1-1.4 3c.4.5 1 1 1.6 1.4s1.2.8 1.9 1.1c-.3.2-.5.4-.8.8-.4-.3-1-.7-1.6-1.2s-1.2-1.1-1.6-1.6c-.5.6-1.1 1.1-1.7 1.6s-1.4.9-2.1 1.4c-.1-.3-.3-.5-.7-.8.6-.2 1.2-.5 1.9-1s1.4-1.1 2-1.8c-.5-.8-.9-1.6-1.2-2.5s-.6-2-.8-3.2c-.4.1-.7.1-1 .1zm2.5 2.7c.3 1 .7 1.7 1 2.2.3-.5.6-1.1 1-2s.6-1.9.9-3h-3.2-.4c.1.9.3 1.8.7 2.8z" fill="#fafbfa"/><path d="m396.5 388.5v1.5 3.6h1.5v.9c-.4 0-1 0-1.7 0h-7.9c-.5 0-.9 0-1.2 0v-.9h1.3v-3.5c0-.7 0-1.2 0-1.6h2.4c0-.8 0-1.4 0-1.7h1c0 .3-.1.8-.1 1.7h1.5c0-.8 0-1.4 0-1.7h1c0 .3-.1.9-.1 1.7zm-8.2 9.2c-.2-.3-.5-.5-.8-.8.8-.3 1.4-.6 1.9-.9s1-.7 1.4-1.1c.3.3.6.5.9.8-1.6 1-2.8 1.6-3.4 2zm2.6-6.8v-1.6h-1.5v1.6zm0 2.7v-1.9h-1.5v1.9zm2.4-2.7v-1.6h-1.5v1.6zm0 2.7v-1.9h-1.5v1.9zm.2 2 .7-.8c.4.2.9.5 1.6.8s1.3.7 1.8 1c-.3.3-.5.5-.8.8-.4-.3-1.5-1-3.3-1.8zm2-4.7v-1.6h-1.4v1.6zm0 2.7v-1.9h-1.4v1.9z" fill="#fafbfa"/><g fill="#010000"><path d="m126.33 372.33c12.14-21.19 20.92-43.77 24.85-67.89 2.67-16.37 4.66-32.94 5.45-49.49 1.3-27.08 1.71-54.22 1.84-81.34.08-17.28-1.03-34.57-1.6-51.86-.06-1.8-.01-3.6-.01-6.15 6.59 2.98 12.54 5.82 18.62 8.35 2.22.92 4.75 1.57 7.14 1.57 51.33.09 102.66.04 153.99.14 3.46.01 6.01-.9 8.28-3.5 3.29-3.75 6.86-7.26 10.82-11.4 7.16 8.09 13.92 15.72 21.49 24.27-37.25 0-73.39 0-110.48 0 4.04 7.71 7.62 14.53 10.74 20.49-26.27 5.06-52.4 10.13-78.55 15.08-5.69 1.07-11.47 1.66-17.28 2.49-1.92-4.18 1.15-4.46 3.61-5.15 20.03-5.58 39.71-12.12 58.26-21.64 5.73-2.94 11.2-6.4 16.48-10.64-27.6 0-55.19 0-83.85 0v109.94h42.33c0-12.07 0-24.13 0-36.62 8.26 3.62 16.58 7.27 25.79 11.31 3.53-9.11 7.29-17.92 10.37-26.96 3.09-9.06 5.52-18.35 8.43-28.2 6.19 4.25 12.01 8.25 16.66 11.44-7.35 11.57-14.58 23-21.84 34.4-3.57 5.61-7.21 11.17-10.82 16.74-4.04-2.26-8.77-.19-9 3.96-.25 4.61-.06 9.24-.06 14.32 8.25 0 16.06.33 23.81-.21 2.22-.15 4.36-2.67 6.38-4.3 2.46-1.98 4.75-4.17 7.56-6.67 5.46 6.82 10.88 13.58 16.88 21.08-18.63 0-36.21 0-54.21 0v29.25c9.33 3.47 14.3-1.74 18.22-9.71 5.88 4.88 11.31 9.39 16.65 13.81-.14.62-.11 1.11-.3 1.21-5.41 2.92-6.23 7.57-6.12 13.34.34 18.3.12 36.62.12 56.42 3.7-4.5 6.64-7.95 9.44-11.51 13-16.53 24.74-33.83 32.67-53.48 1.39-3.44 1.55-6.26-.08-9.83-8.63-18.89-12.94-39.02-16.08-59.42-1.56-10.12-2.71-20.31-4.1-30.82-2.05.88-3.68 1.58-5.66 2.43-1.82-4.08-3.55-7.97-5.61-12.58h25.02c8.5 0 17.01-.2 25.49.1 3.59.13 5.88-1.06 7.89-3.88 2.5-3.51 5.34-6.77 7.93-10.01 5.6 5.73 11.03 11.28 16.65 17.04-.14.15-.64 1.12-1.44 1.55-10.65 5.72-10.44 16.35-11.99 26.21-4.08 25.92-9.21 51.59-17.89 76.44-.54 1.54-.77 3.71-.09 5.06 8.72 17.26 19.3 33.06 35.98 43.8 2.37 1.53 5.12 2.49 7.38 4.16 1.75 1.29 2.99 3.26 5.37 5.97-11.2 2.16-16.78 8.91-21.95 16.62-15.18-15.89-26.93-33.44-36.23-53.31-4.47 6.03-8.48 11.82-12.86 17.3-12.59 15.74-27.64 28.81-44.3 40.05-1.22.82-3.24.47-4.89.66-.09-.48-.17-.96-.26-1.44 2.02-2.57 4.04-5.14 6.88-8.74-6 2.1-10.77 3.77-16.1 5.63 0-3.96 0-7.52 0-11.44-13.88 0-27.27 0-41.38 0 3.3 9.31-3.72 10.23-9.43 12.24-3.25 1.14-6.52 2.19-9.41 3.16 0-31.12 0-61.97 0-93.12 9.78 2.07 19.13 9.16 30.72 6.24 0-9.45 0-19.02 0-29.85-9.52.89-18.92 1.41-28.19 2.81-3.95.6-6.63.12-8.96-3.03-1.55-2.1-3.35-4.02-5.39-6.43-2.48 16.02-4.33 30.79-7.13 45.38-5.42 28.27-15.46 54.63-33.9 77.25-3.68 4.55-3.65 4.57-8.75.91zm121.3-25.55c0-17.28 0-34.13 0-51.05-13.62 0-26.87 0-40.17 0v51.05zm68.96-73.85c8.32-25.32 13.2-51.02 14.56-77.6-12.45 0-24.2 0-36.49 0 4.95 26.78 11.39 52.74 21.93 77.6z"/><path d="m143.57 258.41c-11.02 5.07-9.48 14.26-9.43 23.06.11 20.62.04 41.24.04 62.78-4.99 2.14-11.34 4.86-18.32 7.86 0-5.47 0-10.36 0-15.59-17.72 0-34.95 0-52.85 0 0 5.15.12 10.25-.08 15.34-.06 1.43-.67 3.55-1.71 4.12-5.77 3.19-11.75 6.01-17.44 8.84 0-41.29 0-82.28 0-123.58 5.68 3.4 11.53 7.11 17.6 10.42 2.21 1.21 4.93 2.03 7.43 2.07 13.16.2 26.33-.16 39.48.23 4.45.13 7.14-1.46 9.48-4.8 1.99-2.85 4.21-5.53 6.52-8.52 6.26 5.78 12.23 11.28 19.28 17.77zm-80.2 5.03v62.78h52.14c0-21.08 0-41.8 0-62.78-17.54 0-34.75 0-52.14 0z"/><path d="m369.31 49.93c-10.75 3.16-11.2 10.36-10.52 19.05.85 10.73.2 21.57.2 33.01-5.54 1.58-12 3.42-18.74 5.34-.17-2.47-.3-4.44-.47-6.78-15.3 0-30.54 0-45.78 0 .22.38.44.75.66 1.13-2.35 1.49-4.54 3.41-7.09 4.37-4.48 1.67-9.18 2.75-13.74 4.07 0-24.84 0-49.47 0-74.61 4.38 1.88 8.93 4.14 13.68 5.77 3.69 1.26 7.63 2.32 11.49 2.44 10.65.33 21.33-.08 31.99.21 4.34.12 7.69-.84 10.44-4.31 2.05-2.59 4.51-4.86 7.02-7.53 6.86 5.85 13.27 11.34 20.86 17.84zm-76.04 3.82v36.5h46.56c0-12.27 0-24.23 0-36.5-15.57 0-30.97 0-46.56 0z"/><path d="m190.87 101.94c-2.12 1.39-4.08 3.22-6.4 4.07-4.49 1.63-9.18 2.71-14.02 4.08 0-25.37 0-50.48 0-75.89 5.17 2.36 10.32 5.03 15.7 7.08 3.46 1.32 7.24 2.34 10.91 2.45 10.64.32 21.31-.08 31.96.21 4.33.12 7.71-.83 10.42-4.32 2.03-2.62 4.38-4.98 6.79-7.69 6.56 5.55 12.49 10.55 18.59 15.71-.67.77-.99 1.46-1.51 1.69-7.38 3.22-8.87 8.99-8.28 16.53.87 11.09.71 22.26 1.2 33.38.13 2.97-.43 4.49-3.68 5.17-5.11 1.07-10.09 2.78-15.48 4.31-.2-3.07-.36-5.5-.54-8.22-15.49 0-30.75 0-46.01 0 .13.47.24.95.35 1.44zm45.69-48.1c-15.76 0-31.25 0-46.66 0v36.35h46.66c0-12.32 0-24.23 0-36.35z"/><path d="m89.36 99.17c-2.18-14.1-6.41-26.95-11.9-39.37-3.28-7.43-7.26-14.55-10.76-21.89-.6-1.25-.38-2.88-.53-4.34 1.38.27 3.18.08 4.07.89 9.84 8.92 20.08 17.48 29.14 27.15 10.39 11.1 10.24 21.22 1.28 33.65-.67.93-1.29 1.9-2.47 3.64 8.98 0 17.33.08 25.67-.11 1.04-.02 2.13-1.43 3.05-2.35 4.8-4.85 9.54-9.75 14.62-14.95 6.74 9.18 13.17 17.94 20.24 27.57-2.9 0-4.66 0-6.42 0-27.64 0-55.28-.19-82.92.1-10.77.11-21.53 1.4-32.3 1.91-1.81.09-4.04-.61-5.44-1.74-3.47-2.78-6.58-6.01-9.27-10.17 21.17.01 42.34.01 63.94.01z"/><path d="m40.5 151.83h27.37c9.82 0 19.65.13 29.46-.11 2.1-.05 4.51-1.01 6.19-2.31 5.49-4.27 10.7-8.9 16.37-13.68 7.36 8.26 14.61 16.4 22.4 25.14-2.28.13-3.85.29-5.41.29-21.14-.02-42.28-.24-63.42.01-6.42.08-12.81 1.55-19.23 2.14-1.51.14-3.57-.27-4.59-1.25-2.99-2.87-5.57-6.15-9.14-10.23z"/><path d="m44.56 203.93c17.93 0 34.74.15 51.54-.13 3.04-.05 6.4-1.3 8.99-2.97 5-3.24 9.56-7.18 14.77-11.19 7.38 7.82 14.72 15.6 22.29 23.63-.87.37-1.28.7-1.68.69-21.12-.16-42.25-.54-63.37-.42-6.57.04-13.12 1.6-19.7 2.14-1.62.13-3.85-.5-4.91-1.62-2.7-2.84-4.9-6.16-7.93-10.13z"/><path d="m213.12 172.61c2.32.16 3.77-.17 4.62.39 6.51 4.26 13.48 8.07 19.2 13.24 7.02 6.34 3.8 19.89-5.07 23.32-1.09.42-4.4-1.47-4.57-2.61-1.86-12.1-7.27-22.72-14.18-34.34z"/><path d="m185.17 184.94c6.52 4.24 13.16 8.3 19.52 12.76 9.31 6.53 5.47 19.07.33 24.19-2.28 2.28-4.46 2.08-6-.88-.83-1.6-1.32-3.39-2.09-5.03-4.03-8.52-8.12-17-12.14-25.52-.64-1.35-1.05-2.81-1.57-4.22.65-.42 1.3-.86 1.95-1.3z"/></g></svg>