<svg enable-background="new 0 0 400 400" viewBox="0 0 400 400" xmlns="http://www.w3.org/2000/svg"><path d="m377.9 391.2c-.2.3-.4.5-.6.8-.7-.6-1.4-1-2.2-1.5.2-.3.4-.5.5-.8.6.4 1.4.8 2.3 1.5zm-1.8 6.1c-.2-.2-.5-.4-.9-.6.4-.6.8-1.2 1.2-1.9s.7-1.3.9-1.9c.3.3.5.5.8.7-.7 1.3-1.4 2.6-2 3.7zm2.2-9c-.3.3-.5.5-.6.8-.6-.6-1.3-1.1-2-1.5.3-.3.5-.5.6-.7.6.5 1.3.9 2 1.4zm.3.2v-.9h2 4.5c-.3 1.3-.6 2.5-1 3.6s-.9 2.1-1.4 3c.4.5 1 1 1.6 1.4s1.2.8 1.9 1.1c-.3.2-.5.4-.8.8-.4-.3-1-.7-1.6-1.2s-1.2-1.1-1.6-1.6c-.5.6-1.1 1.1-1.7 1.6s-1.4.9-2.1 1.4c-.1-.3-.3-.5-.7-.8.6-.2 1.2-.5 1.9-1s1.4-1.1 2-1.8c-.5-.8-.9-1.6-1.2-2.5s-.6-2-.8-3.2c-.4.1-.7.1-1 .1zm2.5 2.7c.3 1 .7 1.7 1 2.2.3-.5.6-1.1 1-2s.6-1.9.9-3h-3.2-.4c.1.9.3 1.8.7 2.8z" fill="#fafbfa"/><path d="m396.5 388.5v1.5 3.6h1.5v.9c-.4 0-1 0-1.7 0h-7.9c-.5 0-.9 0-1.2 0v-.9h1.3v-3.5c0-.7 0-1.2 0-1.6h2.4c0-.8 0-1.4 0-1.7h1c0 .3-.1.8-.1 1.7h1.5c0-.8 0-1.4 0-1.7h1c0 .3-.1.9-.1 1.7zm-8.2 9.2c-.2-.3-.5-.5-.8-.8.8-.3 1.4-.6 1.9-.9s1-.7 1.4-1.1c.3.3.6.5.9.8-1.6 1-2.8 1.6-3.4 2zm2.6-6.8v-1.6h-1.5v1.6zm0 2.7v-1.9h-1.5v1.9zm2.4-2.7v-1.6h-1.5v1.6zm0 2.7v-1.9h-1.5v1.9zm.2 2 .7-.8c.4.2.9.5 1.6.8s1.3.7 1.8 1c-.3.3-.5.5-.8.8-.4-.3-1.5-1-3.3-1.8zm2-4.7v-1.6h-1.4v1.6zm0 2.7v-1.9h-1.4v1.9z" fill="#fafbfa"/><g fill="#010000"><path d="m55.91 363.03c-6.8 3.39-14.06 7-21.42 10.66 1.78-111.42 1.62-222.28-.2-333.8 5.95 3.13 11.69 6.32 17.59 9.17 2.15 1.04 4.68 1.75 7.05 1.79 11.16.18 22.33.25 33.49-.05 2.3-.06 5-1.37 6.73-2.96 3.65-3.36 6.78-7.28 10.31-11.18 6.67 7.14 13.12 14.04 19.79 21.18-.91.66-1.49 1.32-2.21 1.57-8.91 3.09-13.41 10.11-16.84 18.32-8.58 20.53-17.39 40.97-25.92 61.51-.6 1.44-.37 4.11.6 5.16 9.74 10.48 19.71 20.74 29.63 31.05.21.22.58.29 1.26.6 32.42-24.85 59.57-54.62 81.37-90.33-10.29 0-19.88-.3-29.44.09-7.95.33-15.85 1.59-23.79 2.19-1.43.11-3.25-.6-4.36-1.54-3.41-2.92-6.57-6.13-9.52-10.52h5.01c20.67 0 41.33-.08 61.99.08 3.28.03 5.06-1 6.67-3.82 7.8-13.67 13.57-28.07 16.61-44.2 8.04 5.17 15.91 10.23 23.22 14.94-7.04 10.78-13.9 21.29-21.34 32.68 2.92.15 4.49.3 6.06.3 28.33.01 56.66.09 84.99-.12 2.67-.02 5.76-1.3 7.92-2.95 5.79-4.43 11.17-9.37 17.02-14.37 8.26 8.72 16.32 17.23 25.51 26.93-3.38 0-5.27 0-7.16 0-44.16 0-88.33.06-132.49-.09-3.98-.01-6.38 1.25-8.61 4.45-5.4 7.77-11.16 15.29-17.18 23.45 1.61.27 2.63.58 3.65.59 30.66.03 61.33.07 91.99-.09 2.05-.01 4.45-1.13 6.07-2.48 4.98-4.14 9.66-8.64 14.89-13.39 7.76 8.19 15.39 16.25 23.88 25.23-25.9 0-50.84 0-76.17 0v34.25c1.75.09 3.38.25 5 .25 17.17.02 34.33.14 51.49-.12 2.7-.04 5.77-1.32 7.97-2.96 5.32-3.95 10.22-8.46 15.55-12.96 7.91 8.39 15.6 16.55 24.15 25.63-3.14 0-5.07 0-6.99 0-53.83 0-107.66-.1-161.49.09-9.62.03-19.27.95-28.82 2.18-3.57.46-6-.12-8.55-2.34-2.88-2.49-6-4.7-8.88-6.94-11.33 6.9-22.39 13.63-33.86 20.61 14.25 18.24 22.89 37.94 13.09 61.27-8.16 19.42-24.89 28.07-44.08 34.21-2.49-18.59-17.01-22.75-31.25-27.42.02 38.22.02 75.81.02 114.2zm-.27-301.9c-.22.95-.42 1.42-.42 1.89-.02 58.11-.05 116.22.09 174.33 0 1.34 1.82 3.58 3.12 3.87 9.04 2.01 18.11 4.37 27.3 5.19 15.36 1.36 25.83-7.33 27.06-21.52.86-9.9-.36-19.53-4.47-28.76-8.17-18.31-20.64-33.61-33.42-48.75-1.49-1.77-2.87-4.81-2.42-6.85 3.59-16.34 7.26-32.69 11.67-48.82 2.82-10.3 6.95-20.24 10.58-30.58-13.18 0-25.98 0-39.09 0zm187.95 62.56c-1.82-.1-3.44-.27-5.06-.27-13.83-.02-27.67-.18-41.49.14-2.61.06-5.66 1.52-7.68 3.28-8.66 7.53-16.96 15.47-25.49 23.14-2.64 2.38-5.62 4.39-9.34 7.26h89.07c-.01-11.27-.01-22.2-.01-33.55z"/><path d="m341.09 352.01c-33.83-23.18-53.82-55.86-68.21-93.1-3.21 2.11-5.94 3.9-8.86 5.82 2.96 7.17 6.18 14.06 8.68 21.2 6.35 18.16 8.55 36.53 1.46 55.1-6.8 17.81-19.76 28.74-37.87 33.91-.6.17-1.3.02-2.44.02-2.34-18.4-17.22-22.48-31.71-27.11-.75-4.76 1.73-5.17 5.53-4.77 10.4 1.1 20.82 1.98 31.24 2.84 7.05.58 11.69-3 14.69-9.06 5.78-11.68 6.33-23.95 3.87-36.5-.95-4.84-2.17-9.63-3.46-15.26-38.31 34.47-83.4 54.26-130.79 69.92-2.53-3.15-.9-4.16 1.77-5.59 21.98-11.75 44.19-23.12 65.66-35.74 19.56-11.49 37.15-25.8 52.95-42.21 2.37-2.46 2.87-4.26.86-7.18-3.37-4.91-6.34-10.09-9.66-15.47-30.43 27.16-65.87 44.72-103.26 59.62-.52-1.95-.93-3.49-1.42-5.34 34.98-17.41 67.3-38.39 93.18-68.64-3.55-4.06-6.9-7.9-9.45-10.81-15.99 9.24-31.21 18.36-46.77 26.87-6.52 3.56-13.81 5.68-20.63 8.73-3.19 1.42-4.6.25-5.79-2.92 26.74-15.68 51.83-33.47 73.88-56.91-2.65-.12-4.24-.28-5.82-.24-19.94.44-39.98-1.53-59.76 2.63-.92.19-2.27-.42-3.05-1.09-3.77-3.23-7.41-6.61-10.96-11.14h5.55c59.83 0 119.66-.05 179.48.1 4.66.01 8.29-1.1 11.66-4.25 3.76-3.51 7.87-6.64 12.35-10.37 7.33 7.76 14.56 15.43 22.75 24.1-2.85 0-4.57 0-6.29 0-36.83 0-73.66-.06-110.49.12-2.92.01-6.23 1.05-8.67 2.66-7.6 5.04-14.88 10.58-22.93 16.4 16.19 10.01 28.85 22.95 39.66 38.25 18.53-14.79 35.85-29.96 49.65-49.34 7.07 7.53 13.87 14.76 20.81 22.16-19.19 6.83-37.94 17.09-47.11 25.78 19.15 35.12 43.64 63.99 85.22 72.57.21.87.4 1.34.43 1.82.05.98.02 1.96.02 3.36-12.16 1.32-19.56 9.17-25.95 19.06z"/></g></svg>