<svg enable-background="new 0 0 400 400" viewBox="0 0 400 400" xmlns="http://www.w3.org/2000/svg"><path d="m377.9 391.2c-.2.3-.4.5-.6.8-.7-.6-1.4-1-2.2-1.5.2-.3.4-.5.5-.8.6.4 1.4.8 2.3 1.5zm-1.8 6.1c-.2-.2-.5-.4-.9-.6.4-.6.8-1.2 1.2-1.9s.7-1.3.9-1.9c.3.3.5.5.8.7-.7 1.3-1.4 2.6-2 3.7zm2.2-9c-.3.3-.5.5-.6.8-.6-.6-1.3-1.1-2-1.5.3-.3.5-.5.6-.7.6.5 1.3.9 2 1.4zm.3.2v-.9h2 4.5c-.3 1.3-.6 2.5-1 3.6s-.9 2.1-1.4 3c.4.5 1 1 1.6 1.4s1.2.8 1.9 1.1c-.3.2-.5.4-.8.8-.4-.3-1-.7-1.6-1.2s-1.2-1.1-1.6-1.6c-.5.6-1.1 1.1-1.7 1.6s-1.4.9-2.1 1.4c-.1-.3-.3-.5-.7-.8.6-.2 1.2-.5 1.9-1s1.4-1.1 2-1.8c-.5-.8-.9-1.6-1.2-2.5s-.6-2-.8-3.2c-.4.1-.7.1-1 .1zm2.5 2.7c.3 1 .7 1.7 1 2.2.3-.5.6-1.1 1-2s.6-1.9.9-3h-3.2-.4c.1.9.3 1.8.7 2.8z" fill="#fafbfa"/><path d="m396.5 388.5v1.5 3.6h1.5v.9c-.4 0-1 0-1.7 0h-7.9c-.5 0-.9 0-1.2 0v-.9h1.3v-3.5c0-.7 0-1.2 0-1.6h2.4c0-.8 0-1.4 0-1.7h1c0 .3-.1.8-.1 1.7h1.5c0-.8 0-1.4 0-1.7h1c0 .3-.1.9-.1 1.7zm-8.2 9.2c-.2-.3-.5-.5-.8-.8.8-.3 1.4-.6 1.9-.9s1-.7 1.4-1.1c.3.3.6.5.9.8-1.6 1-2.8 1.6-3.4 2zm2.6-6.8v-1.6h-1.5v1.6zm0 2.7v-1.9h-1.5v1.9zm2.4-2.7v-1.6h-1.5v1.6zm0 2.7v-1.9h-1.5v1.9zm.2 2 .7-.8c.4.2.9.5 1.6.8s1.3.7 1.8 1c-.3.3-.5.5-.8.8-.4-.3-1.5-1-3.3-1.8zm2-4.7v-1.6h-1.4v1.6zm0 2.7v-1.9h-1.4v1.9z" fill="#fafbfa"/><g fill="#010000"><path d="m42.12 171.93h6.63c35.99 0 71.98-.08 107.97.09 5.21.03 9.69-.84 13.95-3.99 3.72-2.75 7.92-4.85 12.33-7.5 6.43 6.87 12.83 13.69 20.04 21.38-24.86 0-48.56 0-72.86 0v5.85c0 17.5-.09 34.99.08 52.49.03 3.23-.84 4.85-4.08 5.48-3.52.69-6.96 1.83-10.53 3.68 3.97 1.28 7.95 2.56 12.7 4.1-4.75 4.33-11.3 7.79-7.31 16.29 9.09 0 18.71.08 28.32-.1 1.21-.02 2.58-1.28 3.54-2.29 2.86-2.98 5.55-6.12 8.39-9.29 6.61 4.74 12.94 9.29 19.44 13.95-.51.59-.72 1.06-1.08 1.21-6.78 2.93-7.54 7.94-6.92 14.91.97 11.03.26 22.21.26 33.81-5.53 1.58-11.87 3.39-18.55 5.3-.31-1.84-.57-3.37-.86-5.08-11.08 0-22 0-33.21 0v25.97c13.16-.87 26.3-1.74 39.44-2.61.15-.36.31-.71.46-1.07-8.02-4.97-16.04-9.93-25.57-15.84 3.28-.7 5.56-1.99 7.17-1.41 13.73 4.95 27.38 10.11 40.94 15.51 3.02 1.2 5.78 3.34 8.31 5.45 7.05 5.89 8.11 11.69 3.97 19.9-2.43 4.82-5.44 5.24-9.29 1.46-5.58-5.47-11.05-11.08-16.99-16.13-1.84-1.57-5.19-2.4-7.64-2.05-28.93 4.06-57.86 8.18-86.71 12.77-11.44 1.82-22.68 4.93-34.05 7.24-1.36.28-3.7-.31-4.39-1.32-3.36-4.91-6.32-10.1-9.77-15.77 25.32-1.5 50.08-2.96 75.21-4.45 0-9.23 0-18.15 0-27.48-11.43 0-22.98 0-34.92 0 .71 4.93-2.63 6.01-6.63 6.67-3.86.63-7.66 1.6-11.42 2.4 0-23.52 0-46.54 0-70.93 16.22 12.99 34.75 8.58 53.44 9.3-.47-8.5-.91-16.51-1.36-24.68 3.16.82 6.15 1.61 9.63 2.52 0-21.91 0-43.46 0-65.31-11.26 0-22.52-.37-33.74.14-6.41.29-12.74 2.1-19.13 3-1.21.17-2.97-.28-3.79-1.12-3.64-3.63-7-7.54-11.42-12.45zm59.45 139.87c0-10.91 0-21.31 0-32.05-11.81 0-23.36 0-34.96 0v32.05zm18.81-32.11v31.83h33.24c0-10.81 0-21.19 0-31.83-11.2 0-22.08 0-33.24 0z"/><path d="m328.86 322.53c-2.17-.79-4.32-2.2-6.5-2.25-9.81-.25-19.63-.11-29.87-.11v26.68c13.54-.95 27.11-1.9 40.68-2.85.1-.35.2-.71.3-1.06-7.98-4.95-15.95-9.89-23.93-14.84-.03-.46-.06-.92-.08-1.38 1.95-.3 4.18-1.37 5.8-.78 14.02 5.09 27.97 10.37 41.84 15.85 2.71 1.07 5.15 3.05 7.42 4.97 7.4 6.24 8.31 11.22 3.91 19.73-2.65 5.13-5.52 5.77-9.67 1.84-5.43-5.15-10.74-10.44-15.98-15.79-2.25-2.3-4.51-3.2-7.88-2.56-38.16 7.14-76.36 14.1-114.53 21.18-2.59.48-5.06 1.61-8.2 2.64-3.98-6.62-8.1-13.48-12.6-20.96 25.51-1.5 50.18-2.95 75.1-4.41 0-9.53 0-18.6 0-27.96-11.65 0-23.07 0-34.87 0 .76 5.49-2.62 6.6-7.05 7.13-4.08.49-8.08 1.67-12.28 2.58 0-23.49 0-46.67 0-70.97 17.01 10.4 35.61 7.25 54.65 7.58-.35-7.88-.69-15.25-1.04-23.14 9.28 2.8 18.12 5.46 27.25 8.22-9.45 8.85-9.45 8.85-8.89 14.92 10.18 0 20.44.18 30.69-.18 1.62-.06 3.24-2.47 4.71-3.95 1.75-1.77 3.33-3.7 5.35-5.98 6.51 4.66 12.9 9.23 19.4 13.87-.54.71-.74 1.3-1.12 1.44-7.37 2.68-7.54 8.57-7.07 15.02.71 9.61 1.19 19.24 1.47 28.87.04 1.24-1.43 3.23-2.64 3.68-4.8 1.78-9.78 3.09-14.69 4.57.1-.53.21-1.06.32-1.6zm-88.99-45.79v33.49h34.85c0-11.29 0-22.23 0-33.49-11.63 0-23.04 0-34.85 0zm52.34 33.42h35.05c0-11.34 0-22.25 0-33.34-11.86 0-23.39 0-35.05 0z"/><path d="m272.07 66.96c-5.66-4.92-10.58-6.74-17.93-3.78-17.21 6.91-34.92 12.57-52.38 18.72-2.97-4.4-2.19-6.14 1.79-7.78 16.43-6.78 32.72-13.88 49.03-20.93 1.74-.75 3.31-1.9 4.96-2.87-.12-.59-.23-1.18-.35-1.76-9.15.63-18.42.6-27.42 2.16-4.72.82-7.7.49-10.66-3.18-1.95-2.42-4.55-4.32-6.43-7.67 1.69-.09 3.38-.27 5.07-.27 31.5-.02 63-.23 94.49.14 8.15.09 15.2-1.38 22.03-5.93 7.26-4.84 7.52-4.49 14.3.75 5.86 4.53 11.67 9.12 18.32 14.31-2.04.16-2.97.3-3.9.3-24-.02-48-.27-71.99.05-6.65.09-13.28 1.89-19.91 2.9-.05.56-.09 1.13-.14 1.69.95.74 1.87 1.52 2.86 2.2 9.14 6.36 18.39 12.56 27.36 19.16 2.36 1.74 3.95 1.83 6.1.23 9.72-7.25 19.43-14.51 29.25-21.62 1.19-.86 3.51-1.66 4.46-1.09 7.09 4.25 13.98 8.85 20.06 12.79-12.93 3.92-26.25 7.96-40.07 12.14 10 25.6 28.14 39.18 53.85 43.43v4.85c-9.8.59-16.31 6.82-22.99 13.44-22.13-12.95-32.84-33.12-37.55-58.04-2.15 1.01-3.98 1.87-6.17 2.9 1.01 3.67 2.11 7.11 2.9 10.62 2.4 10.6.62 20.86-3.15 30.8-2.68 7.08-8.49 11.15-15.39 13.21-6.3 1.88-12.9 2.79-19.3 4.11-5.54-12.85-17.2-13.16-27.58-15.92-1.55-.41-2.89-1.62-4.32-2.46.23-.47.46-.94.69-1.41 5.28 0 10.55-.09 15.82.02 7.98.17 15.96.67 23.95.65 5.05-.01 8.75-3.02 9.97-7.68 1.53-5.82 2.05-11.91 3.19-19.02-8.55 3.42-15.46 6.74-22.7 8.98-23.28 7.17-46.69 13.95-70.06 20.86-.47.14-1.04.27-1.48.14-1.23-.37-2.41-.89-3.62-1.34.87-.94 1.56-2.39 2.63-2.74 9.63-3.16 19.39-5.89 28.97-9.18 18.89-6.49 37.23-14.26 54.35-24.67 1.68-1.02 3.3-2.12 5.47-3.51-2.49-4.09-4.77-7.83-6.93-11.37-10.14 4.21-19.39 8.82-29.14 11.9-13.27 4.19-26.9 7.25-40.42 10.62-1.33.33-2.97-.57-4.41-1.54 22.26-7.95 44.46-15.15 64.52-28.31z"/><path d="m133.3 89.08c-.4-.79-.5-1.13-.71-1.36-5.76-6.52-5.75-6.48-13.77-2.94-24.66 10.87-50.15 19.07-76.58 24.01-2.73-3.58-.27-4.07 2.32-5.11 18.64-7.46 37.27-14.96 55.78-22.73 4.82-2.02 9.2-5.06 14.38-7.97-7.25-4.29-12.93-6.46-21.32-3.19-19.13 7.45-38.98 13.07-58.6 19.22-1.58.5-3.67-.62-5.52-1.97 26.5-11.01 53.13-20.73 77.16-36.74-.65-.53-.98-1.03-1.28-1.02-16.42.72-32.85 1.52-49.28 2.22-1.3.06-2.98-.2-3.9-1-3.5-3.03-6.75-6.33-10.1-9.54.13-.46.26-.92.4-1.37h5.59c33.16 0 66.33-.25 99.48.17 8.74.11 16.51-1.34 23.28-6.71 4.66-3.69 8.09-3.29 12.09 1.21 4.46 5.03 9.71 9.35 15.6 14.9-4.78 0-8.21 0-11.64 0-14.66 0-29.34.24-43.99-.11-6.59-.16-12.51 1.21-18.12 4.41-5.61 3.19-11.19 6.44-17.94 10.34 5.45 1.74 9.63 3.04 13.78 4.42 3.94 1.31 8.23 2.11 11.7 4.22 6.88 4.19 12.86 2.6 18.83-1.45 8.48-5.77 16.92-11.61 25.83-17.74 5.41 3.49 11.51 7.43 18.07 11.66-16.85 5.41-33.09 10.63-49.51 15.9 2.93 3.72 5.28 6.93 7.9 9.88.72.81 2.26 1.02 3.47 1.28 9.24 1.94 18.51 3.77 27.73 5.78 1.92.42 4.13 1.03 5.44 2.33 2.34 2.32 5.92 5.42 5.67 7.85-.39 3.68-2.91 7.89-5.82 10.34-3.82 3.23-7.15-.21-9.49-3.37-5.19-7.02-11.96-11.93-19.77-15.55-1.34-.62-2.75-1.07-4.89-1.89 2.86 11.64 1.08 22.22-5.36 31.48-6.76 9.72-17.52 12.55-28.4 14.65-8.32-11.9-22.22-10.43-33.95-14.54 0-.72-.08-1.51.02-2.29.1-.79.37-1.57.46-1.95 8.58 0 16.85.11 25.11-.05 3.81-.07 7.64-.45 11.39-1.11 8.82-1.54 13.73-8.56 12.68-17.8-.19-1.64-.6-3.25-.96-5.19-7.86 3.77-15.47 7.74-23.32 11.15-24.81 10.75-50.79 17.51-77.24 22.6-1.31.25-2.89-.88-4.27-2.22 35.14-12.07 69.76-24.27 101.57-43.11z"/><path d="m298.28 238.62c-6.47 1.45-12.12 2.71-18.48 4.13 0-20.35 0-40.21 0-60.37-11.88 0-23.14-.4-34.35.15-6.91.34-13.73 2.23-20.62 3.19-1.23.17-3.02-.39-3.87-1.27-3.57-3.69-6.89-7.62-11.23-12.52h6.09c36.64 0 73.29-.09 109.93.1 5.25.03 9.67-1.01 13.81-4.25 3.37-2.63 7.11-4.78 10.36-6.94 7.07 7.1 13.86 13.9 20.85 20.92-23.93 0-47.94 0-72.49 0z"/><path d="m326.78 135.22c8.09 7.6 15.19 14.28 23.23 21.84-2.85 0-4.44 0-6.03 0-25.33 0-50.66-.18-75.98.1-8.45.09-16.88 1.39-25.32 2.04-1.32.1-3.11.13-3.95-.62-3.79-3.4-7.31-7.09-11.84-11.58h6.11c25.33 0 50.66-.15 75.98.13 5.12.06 9-1.06 12.07-5.16 1.7-2.26 3.65-4.32 5.73-6.75z"/><path d="m59.52 147c27.37 0 53.52-.17 79.67.13 5.58.06 9.96-1.12 13.7-5.24 1.98-2.19 4.38-3.99 5.96-5.4 7.05 6.94 13.86 13.65 20.89 20.57-1.56 0-3.16 0-4.76 0-23.49 0-46.98-.21-70.47.1-10.28.14-20.54 1.4-30.82 2.02-1.41.08-3.32-.18-4.22-1.07-3.25-3.24-6.17-6.82-9.95-11.11z"/><path d="m207.03 242.04c-1.16-1.42-1.51-1.78-1.77-2.2-.44-.7-.81-1.44-1.39-2.5 15.9-13.32 29.26-28.81 39-47.64 6.98 4.62 13.58 8.98 20.87 13.8-14.4 3.54-21.25 16.38-32.52 23.28-8.03 4.92-15.95 10.05-24.19 15.26z"/><path d="m70.97 189.63c6.73 5.35 12.82 10.18 18.68 14.84-16.62 10.81-32.99 21.53-49.46 32.11-2.9 1.86-6.19 3.11-10.71 5.34.42-2.58.1-4.8 1.01-5.56 15.87-13.34 30.18-28.01 40.48-46.73z"/><path d="m313.88 198.68c2.52-.59 4.26-1.62 5.51-1.2 11.14 3.71 22.46 7.05 33.18 11.73 10.88 4.76 12.49 14.07 5.22 23.61-3.24 4.25-6.68 4.42-10.28.5-.67-.73-1.34-1.5-1.81-2.37-6.48-12.01-16.25-20.89-27.16-28.7-1.21-.85-2.35-1.79-4.66-3.57z"/><path d="m143.07 199.69c1.46-.27 3.1-1.13 4.34-.73 11.33 3.67 22.62 7.5 33.85 11.46 1.82.64 3.4 2.07 4.94 3.33 3.07 2.5 5.27 6.16 3.47 9.61-1.95 3.72-5.34 6.94-8.76 9.48-1.06.78-5.27-.68-6.36-2.27-8.36-12.16-19.45-21.3-31.58-29.41.03-.49.06-.98.1-1.47z"/></g></svg>