<svg enable-background="new 0 0 400 400" viewBox="0 0 400 400" xmlns="http://www.w3.org/2000/svg"><path d="m361.2 9.6.8-1c.9.7 1.9 1.4 2.9 2.3l-.9 1.1c-1-1-2-1.8-2.8-2.4zm.5 10.6c.9-2.1 1.6-4.3 2.3-6.7.4.2.8.4 1.3.6-.7 2.1-1.5 4.3-2.2 6.6zm.4-15.2.9-.9c1 .8 2 1.6 2.8 2.4l-1 1c-.9-.9-1.8-1.7-2.7-2.5zm12.5-1.2h1.2v1.4h2.7v1.1h-2.7v2.7h-1.2v-.6h-1.8v1.3h4.9v3.8h-1.2v-.5h-3.7c0 .4-.1.9-.1 1.2h5.1v1h-5.2c0 .5-.1.9-.2 1.2h6v1h-5.2c1.1 1.3 2.9 2 5.5 2.2-.4.4-.7.8-.9 1.3-2.9-.5-4.8-1.6-5.7-3.5h-.1c-.8 1.7-2.7 2.9-5.9 3.6-.2-.4-.6-.8-.9-1.1 2.8-.6 4.6-1.4 5.4-2.5h-4.8v-1h5.3c.1-.3.2-.7.2-1.2h-4.9v-1h5c0-.4 0-.8.1-1.2h-3.5v.5h-1.2v-3.8h4.9v-1.3h-1.8v.5h-1.2v-2.7h-2.7v-1h2.6v-1.4h1.2v1.4h4.7v-1.4zm-6.6 8.3h3.6c0-.4 0-.9 0-1.4h-3.6zm1.9-4.6h4.7v-1.3h-4.7zm6.6 3.2h-3.7v1.4h3.7z" fill="#fafbfa"/><path d="m385.3 3.8h1.3v2.2h2.8v-2.2h1.3v2.2h4.1v9.1h1.7v1.3h-16.9v-1.3h1.7v-9.1h4.1v-2.2zm.4 13.1.7 1.2c-1.8.9-3.8 1.9-6 2.9-.2-.4-.5-.8-.8-1.3 2.3-1 4.3-1.9 6.1-2.8zm-3.1-6.4h2.8v-3.2h-2.8zm0 4.6h2.8v-3.3h-2.8zm4-4.6h2.8v-3.2h-2.8zm0 4.6h2.8v-3.3h-2.8zm3.7 1.9c2.1.9 4.1 1.8 6.1 2.7l-.7 1.3c-2.2-1.1-4.2-2-6.1-2.9zm3.2-9.7h-2.8v3.2h2.8zm-2.8 7.8h2.8v-3.3h-2.8z" fill="#fafbfa"/><g fill="#010000"><path d="m97.83 151.46c-10.56 0-20.46 0-31.33 0 4.08 10.42-3.92 12.24-10.25 15.31-2.82 1.37-5.64 2.76-8.78 4.29 0-44.64 0-88.9 0-133.76 6.48 3.97 12.74 7.93 19.15 11.66 1.77 1.03 3.96 1.87 5.96 1.89 20.83.14 41.66.16 62.49-.04 1.98-.02 4.36-1.27 5.85-2.69 3.59-3.44 6.77-7.31 10.49-11.43 6.22 7.62 12.25 15.03 18.28 22.42-.13.34-.16.77-.33.83-9.58 3.53-11.68 10.41-11.18 20.23 1.1 21.77.25 43.65 1.57 65.4.5 8.17-1.59 12.59-8.57 15.84-3.69 1.72-6.96 4.32-11.12 6.97 0-6.02 0-11.25 0-16.83-8.03 0-15.59 0-23.51 0v67.24c6.01 0 11.79.13 17.57-.1 1.26-.05 2.62-1.26 3.69-2.22 4.95-4.42 9.82-8.94 15.04-13.72 7.34 8.25 14.57 16.38 22.76 25.6-20.54 0-39.72 0-59.15 0v87.87c16.52-4.82 32.78-9.57 49.33-14.41.88 1.78 1.65 3.35 2.66 5.38-9.07 3.76-17.81 7.28-26.47 10.99-25.95 11.14-51.99 22.09-77.73 33.71-6.84 3.09-12.71 8.32-19.5 12.88-5.7-6.99-11.76-14.42-18.19-22.3 6.96-2.24 13.3-4.51 19.78-6.26 2.9-.78 3.56-2.18 3.54-4.9-.15-26.49-.1-52.99-.32-79.48-.15-18.64-.62-37.28-.98-55.93-.04-2.29-.29-4.58-.49-7.73 10.32 6.86 20.06 13.34 29.74 19.78-.18.58-.17 1-.36 1.13-8.64 5.78-9.66 14.09-9.49 23.8.53 29.99.19 59.99.19 89.98v6.5c4.85-1.44 9.19-2.69 13.5-4.02 5.23-1.61 12.55-1.79 15.07-5.35 2.71-3.83 1.05-10.86 1.06-16.5.04-48.49.02-96.99.02-145.48.01-1.99.01-3.97.01-6.55zm41.69-10.18c0-26.97 0-53.53 0-79.96-24.34 0-48.27 0-72.32 0v79.96z"/><path d="m327.74 94.99c6.69 7.14 13.15 14.02 19.96 21.3-2.51 1.99-4.6 4.16-7.12 5.54-3.77 2.07-4.56 4.98-4.49 9.03.53 29.61.84 59.23 1.22 89.08-6.63 3.08-13.52 6.29-21.07 9.8 0-6 0-11.37 0-17.15-31.86 0-63.22 0-95.18 0 0 2.57-.34 5.07.07 7.45.96 5.49-1.42 8.59-6.25 10.79-4.51 2.05-8.73 4.72-12.97 7.05 0-46.93 0-93.69 0-140.94 5.48 3.27 11.12 6.92 17.04 10.05 2.66 1.4 5.86 2.48 8.82 2.5 27.33.19 54.67.05 82 .18 3.49.02 5.92-.95 8.1-3.7 2.97-3.76 6.38-7.15 9.87-10.98zm-11.93 24.38c-31.79 0-63.03 0-94.43 0v83.06h94.43c0-27.84 0-55.29 0-83.06z"/><path d="m158.12 345.59h5.34c35.82 0 71.65-.12 107.47.14 4.8.03 6.55-1.63 7.93-5.86 10.51-32.23 19.54-64.81 24.32-99.14 9.89 6.1 19.44 12 29 17.91-20.61 26.17-32.45 56.71-47.3 86.95h11.25c8.33 0 16.68-.31 24.99.12 4.76.24 8.24-1.32 11.59-4.39 5.39-4.94 10.99-9.65 16.83-14.75 7.92 9.32 15.65 18.41 24.31 28.6-2.93 0-4.79 0-6.64 0-55.65 0-111.3-.14-166.95.14-8.72.04-17.48 1.68-26.11 3.19-2.88.5-4.59.2-6.54-1.8-3.24-3.32-6.75-6.38-10.15-9.55.21-.52.44-1.04.66-1.56z"/><path d="m369.48 59.41c-3.28 0-5.21 0-7.13 0-46.61 0-93.23-.2-139.84.16-10.03.08-20.03 2.26-30.06 3.29-1.59.16-3.72-.16-4.83-1.13-3.87-3.36-7.4-7.12-12.26-11.91h6.56c44.95 0 89.9.06 134.85-.14 2.98-.01 6.39-1.42 8.85-3.21 6.57-4.78 12.74-10.12 19.56-15.63 7.89 9.3 15.65 18.42 24.3 28.57z"/><path d="m205.66 261.13c12.98 7.88 25.71 16.06 35.83 27.63 10.92 12.48 11.6 26.26 1.89 37.91-5.12 6.14-8.32 5.78-11.39-1.49-4.72-11.16-8.91-22.56-14.04-33.53-3.71-7.94-8.4-15.45-13.02-22.93-1.75-2.83-2.37-4.96.73-7.59z"/></g></svg>