<svg enable-background="new 0 0 400 400" viewBox="0 0 400 400" xmlns="http://www.w3.org/2000/svg"><path d="m126.56 285.05c0 14.47-.11 28.1.04 41.72.1 9.81.5 19.63.82 29.44.31 9.49.35 9.5-8.46 13.51-3.89 1.77-7.81 3.48-11.62 5.16 0-29.89 0-59.46 0-89.34-.91-.11-2.03-.36-3.14-.35-17.31.27-34.61.57-51.91.87-.5.01-1.06-.1-1.49.09-10.93 4.91-16.72-2.37-23.24-10.36h80.16c0-14.15 0-27.44 0-41.18-11.54 0-23.07 0-35.24 0 2.02 7.74-3.87 8.78-9 10.62-4.04 1.45-7.99 3.16-11.66 4.62 0-45.64 0-91.13 0-136.97 5.87 3.52 11.74 7.24 17.83 10.57 2.22 1.21 4.95 1.98 7.47 2.03 10.12.23 20.24.09 30.56.09 0-10.7 0-20.77 0-30.94-12.88 0-25.49-.26-38.08.1-7.11.21-14.18 1.49-21.28 2.18-.87.08-2.05-.23-2.68-.81-3.6-3.34-7.07-6.82-11.56-11.21h73.33c0-19.52 0-38.56 0-58.1 9.35 3.55 18.73 7.1 28.63 10.85-1.1 1.35-1.71 2.56-2.69 3.22-6.24 4.24-7.46 10.21-7.04 17.34.51 8.6.12 17.26.12 26.54 11.26 0 22.02.08 32.77-.11 1.23-.02 2.53-1.42 3.62-2.4 4.82-4.34 9.58-8.75 14.81-13.55 6.85 8.2 13.6 16.29 21.01 25.18-24.38 0-47.88 0-71.79 0v31.7h7.71c8.66 0 17.34.22 25.99-.15 2.3-.1 4.96-1.49 6.71-3.11 3.64-3.38 6.78-7.3 10.42-11.33 6.15 6.59 12.14 13.01 18.42 19.75-1.31 1.11-2.28 2.31-3.53 2.94-6.48 3.26-7.89 8.41-7.71 15.45.59 23.98.41 47.98.62 71.97.04 4.79.52 9.58.81 14.61-6.85 2.45-13.37 4.77-20.38 7.28 0-3.1 0-5.71 0-8.56-13.14 0-25.91 0-39.07 0v41.16c5.28 0 10.54.04 15.8-.01 7.32-.07 15.34 1.62 21.75-.84 6.23-2.39 10.8-9.08 16.1-13.88.86-.78 1.72-1.54 3.01-2.7 7.39 8.76 14.67 17.41 22.67 26.89-27.14.02-53.05.02-79.61.02zm39.31-99.63c-13 0-25.97 0-39.06 0v38.73h39.06c0-13.06 0-25.69 0-38.73zm-.15-10.63c0-13.31 0-26.21 0-39.21-13.14 0-26 0-38.9 0v39.21zm-93-.22h34.85c0-13.24 0-26.12 0-39.1-11.76 0-23.15 0-34.85 0zm.11 10.58v39.12h34.75c0-13.21 0-26.09 0-39.12-11.67 0-22.97 0-34.75 0z" fill="#010100"/><path d="m278.99 298.01c-12.24 12.23-23.7 24.78-36.32 36.03-20.19 18-43.61 30.86-68.93 40.35-3.43 1.28-4.54-.05-5.38-2.23 12.43-8.79 25.07-17.1 37.01-26.31 23.39-18.05 42.88-39.84 59.17-64.46 1.03-1.56 1.44-4.47.7-6.1-17.74-39.42-30.64-80.3-37.48-123.04-.04-.26-.33-.48-.9-1.27-1.49 3.59-2.57 7-4.24 10.08-8.56 15.77-17.23 31.49-26.05 47.12-.7 1.23-2.84 1.65-4.8 1.84 22.55-58.93 35.56-119.65 44.37-182.09 10.44 5.2 20.58 10.25 31.01 15.44-.68.77-1.09 1.56-1.74 1.9-8.88 4.63-12.04 12.61-14.14 21.88-3.07 13.55-7.19 26.86-10.95 40.57 1.72.08 3.18.2 4.64.2 27.16.01 54.32.09 81.48-.12 2.47-.02 5.42-1.34 7.28-3.02 4.79-4.35 9.09-9.24 14.13-14.48 7.38 9.34 14.28 18.09 21.77 27.56-12.99 0-24.91 0-37.55 0-.68 5.74-1.31 11.25-1.99 16.76-5.3 42.81-13.14 85-30.9 124.72-2.37 5.3-5.4 10.31-7.67 15.65-.74 1.74-.81 4.67.19 6.1 20.49 29.32 45.24 53.6 79.63 66.31 1.54.57 2.43 2.9 4.63 5.68-13.68.76-20.4 8.59-26.38 17.96-28.12-20.38-51.83-44.77-70.59-73.03zm32.91-179.38c-.91-.33-1.22-.54-1.52-.54-23.48-.04-46.96-.08-70.44-.05-1.03 0-2.79.38-2.99.99-2.01 6.07-6.71 11.28-4.32 18.7 7.41 23.05 13.75 46.46 21.68 69.33 6.13 17.66 14.03 34.7 21.14 52.02.6-.1 1.2-.21 1.8-.31 21.27-44.22 29.4-91.73 34.65-140.14z" fill="#010100"/><g fill="#fbfafc"><path d="m378.6 9.2.8-1c.9.7 1.9 1.4 2.9 2.3l-.9 1.1c-1.1-.9-2-1.7-2.8-2.4zm.5 10.7c.9-2.1 1.6-4.3 2.3-6.7.4.2.8.4 1.3.6-.7 2.1-1.5 4.3-2.2 6.6zm.4-15.2.9-.9c1 .8 2 1.6 2.8 2.4l-1 1c-1-.9-1.9-1.8-2.7-2.5zm12.5-1.3h1.2v1.4h2.7v1.1h-2.7v2.7h-1.2v-.5h-1.8v1.3h4.9v3.8h-1.2v-.5h-3.7c0 .4-.1.9-.1 1.2h5.1v1h-5.2c0 .5-.1.9-.2 1.2h6v1h-5.2c1.1 1.3 2.9 2 5.5 2.2-.4.4-.7.8-.9 1.3-2.9-.5-4.8-1.6-5.7-3.5h-.1c-.8 1.7-2.7 2.9-5.9 3.6-.2-.4-.6-.8-.9-1.1 2.8-.6 4.6-1.4 5.4-2.5h-4.8v-1h5.3c.1-.3.2-.7.2-1.2h-4.9v-1h5c0-.4 0-.8.1-1.2h-3.6v.5h-1.2v-3.8h4.9v-1.3h-1.8v.5h-1.2v-2.7h-2.6v-1.1h2.6v-1.4h1.2v1.4h4.7v-1.4zm-6.7 8.4h3.6c0-.4 0-.9 0-1.4h-3.6zm1.9-4.7h4.7v-1.2h-4.7zm6.7 3.3h-3.7v1.4h3.7z"/><path d="m384.7 21.4h1.3v2.2h2.8v-2.2h1.3v2.2h4.1v9.1h1.7v1.3h-16.9v-1.3h1.7v-9.1h4.1v-2.2zm.3 13.2.7 1.2c-1.8.9-3.8 1.9-6 2.9-.2-.4-.5-.8-.8-1.3 2.4-1 4.4-2 6.1-2.8zm-3.1-6.5h2.8v-3.2h-2.8zm0 4.6h2.8v-3.3h-2.8zm4.1-4.6h2.8v-3.2h-2.8zm0 4.6h2.8v-3.3h-2.8zm3.6 1.9c2.1.9 4.1 1.8 6.1 2.7l-.7 1.3c-2.2-1.1-4.2-2-6.1-2.9zm3.3-9.7h-2.8v3.2h2.8zm-2.8 7.8h2.8v-3.3h-2.8z"/></g></svg>