<svg enable-background="new 0 0 400 400" viewBox="0 0 400 400" xmlns="http://www.w3.org/2000/svg"><path d="m361.2 9.6.8-1c.9.7 1.9 1.4 2.9 2.3l-.9 1.1c-1-1-2-1.8-2.8-2.4zm.5 10.6c.9-2.1 1.6-4.3 2.3-6.7.4.2.8.4 1.3.6-.7 2.1-1.5 4.3-2.2 6.6zm.4-15.2.9-.9c1 .8 2 1.6 2.8 2.4l-1 1c-.9-.9-1.8-1.7-2.7-2.5zm12.5-1.2h1.2v1.4h2.7v1.1h-2.7v2.7h-1.2v-.6h-1.8v1.3h4.9v3.8h-1.2v-.5h-3.7c0 .4-.1.9-.1 1.2h5.1v1h-5.2c0 .5-.1.9-.2 1.2h6v1h-5.2c1.1 1.3 2.9 2 5.5 2.2-.4.4-.7.8-.9 1.3-2.9-.5-4.8-1.6-5.7-3.5h-.1c-.8 1.7-2.7 2.9-5.9 3.6-.2-.4-.6-.8-.9-1.1 2.8-.6 4.6-1.4 5.4-2.5h-4.8v-1h5.3c.1-.3.2-.7.2-1.2h-4.9v-1h5c0-.4 0-.8.1-1.2h-3.5v.5h-1.2v-3.8h4.9v-1.3h-1.8v.5h-1.2v-2.7h-2.7v-1h2.6v-1.4h1.2v1.4h4.7v-1.4zm-6.6 8.3h3.6c0-.4 0-.9 0-1.4h-3.6zm1.9-4.6h4.7v-1.3h-4.7zm6.6 3.2h-3.7v1.4h3.7z" fill="#fafbfa"/><path d="m385.3 3.8h1.3v2.2h2.8v-2.2h1.3v2.2h4.1v9.1h1.7v1.3h-16.9v-1.3h1.7v-9.1h4.1v-2.2zm.4 13.1.7 1.2c-1.8.9-3.8 1.9-6 2.9-.2-.4-.5-.8-.8-1.3 2.3-1 4.3-1.9 6.1-2.8zm-3.1-6.4h2.8v-3.2h-2.8zm0 4.6h2.8v-3.3h-2.8zm4-4.6h2.8v-3.2h-2.8zm0 4.6h2.8v-3.3h-2.8zm3.7 1.9c2.1.9 4.1 1.8 6.1 2.7l-.7 1.3c-2.2-1.1-4.2-2-6.1-2.9zm3.2-9.7h-2.8v3.2h2.8zm-2.8 7.8h2.8v-3.3h-2.8z" fill="#fafbfa"/><g fill="#010000"><path d="m315.87 320.27c0-8.18 0-15.47 0-23-46.08 0-91.83 0-138.47 0 0 4.53-.14 9.11.05 13.68.12 2.75-.89 4.14-3.43 5.2-5.92 2.49-11.7 5.32-17.53 8.01 1.72-92.54 1.57-184.57.13-276.89 5.96 3.35 12.05 7 18.37 10.21 2.55 1.29 5.59 2.25 8.42 2.26 41.65.14 83.31.06 124.96.16 3.47.01 5.86-.8 8-3.73 3.33-4.56 7.21-8.7 11.33-13.59 6.64 7.07 13.16 14 19.8 21.07-.58.78-.85 1.48-1.35 1.76-8.87 5.11-10.28 12.89-10.2 22.63.45 57.48.15 114.96.27 172.45.03 15.64.46 31.29 1.12 46.92.15 3.62-1.02 4.89-4.08 5.97-5.6 1.96-11.06 4.35-17.39 6.89zm-.09-180.45c-46.24 0-92.08 0-137.89 0v68.48h137.89c0-22.89 0-45.49 0-68.48zm-.04 146.96c0-22.92 0-45.49 0-68.26-46.1 0-91.94 0-138.04 0v68.26zm-138.02-157.24h138.03c0-20.03 0-39.77 0-59.81-46 0-91.86 0-138.03 0z"/><path d="m47.88 355.02c-7.28-6.31-14.17-12.29-21.85-18.95 9.73-6.71 18.84-13.34 28.31-19.43 8.94-5.75 18.3-10.84 27.34-16.44 1.41-.87 3-2.89 3-4.38.11-40.48.03-80.97-.02-121.45 0-.15-.09-.31-.57-1.76-8.65.61-17.66 1.24-26.66 1.9-1.15.09-2.39.14-3.43.59-12.97 5.67-19.65-3.04-26.97-12.11h12.21c13.33 0 26.66-.08 39.99.06 2.97.03 4.91-.8 6.64-3.28 2.57-3.67 5.58-7.03 8.72-10.92 7.17 6.18 14.28 12.31 22.15 19.09-12.39 5.12-12.69 15.04-12.52 26.11.51 33.15.24 66.31.11 99.47-.01 3.64 1.11 6.13 3.62 8.73 21.66 22.38 48.03 34.01 79 36.86 31.86 2.93 63.74 4.71 95.66 3.27 28.03-1.27 55.98-4.17 83.96-6.35 2.3-.18 4.6-.27 7.2-.41v6.11c-4.15 1.53-8.43 2.85-12.49 4.66-6.97 3.11-12.4 7.91-14.15 15.69-.66 2.94-2.32 3.14-4.67 3.09-33.78-.66-67.56-1.12-101.33-1.98-21.1-.54-42.02-2.66-62.81-6.79-28.32-5.62-51.73-19.67-71.73-39.75-8.73-8.77-14.82-10.65-26.57-.51-11.91 10.27-21.56 22.63-30.14 35.8-.52.84-1.06 1.66-2 3.08z"/><path d="m64.58 38.41c13.5 9.07 27.18 17.89 38.02 30.22 10.45 11.89 8.28 31.07-4.32 40.86-2.8 2.18-5.28 2.1-6.95-1.18-1.27-2.49-2.56-5.13-3-7.85-3.27-20.04-12.74-37.22-24.48-53.3-2.55-3.48-2.23-5.79.73-8.75z"/></g></svg>