<svg enable-background="new 0 0 400 400" viewBox="0 0 400 400" xmlns="http://www.w3.org/2000/svg"><g fill="#010100"><path d="m187.52 191.89c-3.35-4.23-6.42-8.1-9.95-12.56-1.21 10.74-2.04 20.73-3.52 30.63-6.06 40.76-23.7 75.43-54.75 102.95-2.21 1.96-4.18 3.51-6.9-.05 2.89-4.49 5.97-9.14 8.93-13.87 16.3-26.01 29.17-53.6 33.03-84.25 2.55-20.23 2.8-40.79 3.48-61.22.65-19.47.81-38.96.66-58.44-.13-17.13-.97-34.25-1.49-51.38-.04-1.49-.01-2.97-.01-5.45 5.66 3.18 10.62 6.33 15.91 8.79 3.17 1.48 6.83 2.64 10.27 2.66 40.99.18 81.99.02 122.98.25 4.86.03 8.17-1.34 10.99-5.07 2.09-2.77 4.57-5.26 7.19-8.24 7.16 6.2 14.13 12.23 21.66 18.74-1.59 1.31-2.73 2.53-4.12 3.36-6.62 3.94-8.23 9.64-7.9 17.18.63 14.26.18 28.57.18 43.78-5.39 1.8-12.11 4.05-19.55 6.53 0-3.95 0-7.36 0-11-46.03 0-91.45 0-137.22 0v62.69h7.1c10 0 20-.2 29.99.1 3.76.11 6.24-1.07 8.45-3.92 2.34-3.01 5.03-5.75 8.06-9.18 5.79 6.2 11.39 12.2 16.94 18.14-.27.55-.33.94-.55 1.09-7.94 5.35-11.49 13.03-14.44 22.09-5.39 16.52-11.89 32.8-19.34 48.5-10.58 22.3-29.25 37.12-49.89 49.65-2.42 1.47-4.81 3.03-7.39 4.14-1.25.53-2.91.09-4.89-.78 40.11-30.31 56.42-73.19 66.78-120.49-10.59 1.28-21.1-2.93-30.69 4.63zm-10.08-132.17v44.96h136.73c0-15.12 0-29.99 0-44.96-45.81 0-91.21 0-136.73 0z"/><path d="m105.81 128.49c6.29 7.73 12.15 14.94 18.47 22.69-3.77 1.94-7.27 3.65-10.67 5.55-1.56.86-3.52 1.76-4.27 3.19-10.61 20.12-21.05 40.33-32.11 61.62 9.56 0 17.83.25 26.06-.19 1.87-.1 3.72-2.51 5.38-4.08 2.29-2.17 4.4-4.54 7.11-7.38 5.87 6.82 11.43 13.28 17.01 19.76-.64.73-.88 1.25-1.28 1.43-9.8 4.43-14.6 12.87-18.48 22.31-6.68 16.28-13.68 32.43-20.64 48.6-1.21 2.81-.99 4.54 1.75 6.55 18.08 13.22 38.56 20.65 60.18 25.36 22.17 4.83 44.62 7.03 67.3 7.14 15.14.07 30.33 1.2 45.42.39 29.19-1.56 58.33-4.1 87.48-6.37 6.61-.51 13.17-1.56 20.13-2.41.18 1.66.34 3.07.49 4.51-.53.39-.88.72-1.29.92-6.81 3.37-13.76 6.5-20.37 10.21-2.49 1.4-5.19 3.83-6.1 6.4-2.94 8.23-9.52 8.3-16.3 8.31-28 .03-56.02.75-83.98-.21-24.38-.83-48.79-2.75-73.01-5.69-26-3.15-49.25-14.39-71.1-28.47-7.41-4.77-14.46-10.09-22.14-15.49-14.56 15.95-27.98 32.91-37.27 52.22-5.43-5.53-10.84-11.04-16.89-17.2 10.27-9.76 21.08-21.04 33-31 8.05-6.73 13.82-14.2 17.65-23.95 7.72-19.63 16.26-38.95 24.45-58.4.38-.89.66-1.82 1.29-3.57-8.88 0-17.27-.13-25.64.14-1.26.04-2.55 1.91-3.65 3.1-2.83 3.04-5.57 6.17-8.79 9.76-6.06-5.55-12.02-11-18.88-17.29.99-.46 1.72-.8 2.46-1.15 8.45-3.98 13.08-11.06 16.94-19.3 7.41-15.83 15.53-31.33 23.34-46.97.79-1.58 1.47-3.22 2.42-5.3-12.87-.23-25.17-1.4-36.97 3.16-2.78 1.08-4.62.51-6.59-1.6-3.48-3.74-7.22-7.25-11.81-11.81h11.47c13.67 0 27.33-.09 41 .06 3.27.04 5.59-.71 7.59-3.49 2.89-4.01 6.26-7.72 9.84-12.06z"/><path d="m343.09 306.74c-17.54-14.89-32.44-31.32-43.84-50.73-11.32-19.27-19.63-39.84-26.18-61.42v4.9c0 34.16.02 68.33-.01 102.49-.01 15.27-10.57 28.56-25.68 32.27-5.26-15.56-18.51-21.32-32.51-25.88-3.49-1.14-4.72-2.56-3.39-6.45 5.28.45 10.68 1.04 16.09 1.35 5.98.34 11.97.59 17.96.57 4.44-.01 7.09-2.92 8.12-6.89.82-3.18 1.13-6.57 1.14-9.88.07-44.5.05-88.99.05-133.49 0-11.45 0-22.89 0-34.69 8.5 3.22 18 6.81 28.11 10.64-1.54 1.41-2.6 2.67-3.92 3.54-4.72 3.11-6.4 7.11-5.97 12.95 1.43 19.59 5.68 38.32 14.97 56.48 17.06-16.97 30.68-36.12 43.67-56.53 7.6 6.63 14.93 13.03 22.41 19.56-21.08 7.18-35.1 24.25-53.12 35.33-.42.26-.77.63-1.18.92-9.6 6.85-9.57 6.83-3.9 16.93 12.63 22.51 28.3 42.4 50.25 56.5 6.78 4.35 14.58 7.11 21.85 10.73 1.54.77 2.77 2.15 4.14 3.25-1.53.91-2.95 2.33-4.59 2.65-9.79 1.89-18.61 5.21-24.47 14.9z"/><path d="m63.81 36.29c1.01-1.36 1.87-2.53 2.95-4 13.84 8.67 28.04 16.44 38.67 28.94 8.75 10.3 7.86 26.18-1.65 35.91-3.02 3.1-5.93 3.04-8.13-.66-1.76-2.96-3.27-6.22-4.14-9.54-4.92-19.04-14.5-35.51-27.7-50.65z"/></g><path d="m378.6 9.2.8-1c.9.7 1.9 1.4 2.9 2.3l-.9 1.1c-1.1-.9-2-1.7-2.8-2.4zm.5 10.7c.9-2.1 1.6-4.3 2.3-6.7.4.2.8.4 1.3.6-.7 2.1-1.5 4.3-2.2 6.6zm.4-15.2.9-.9c1 .8 2 1.6 2.8 2.4l-1 1c-1-.9-1.9-1.8-2.7-2.5zm12.5-1.3h1.2v1.4h2.7v1.1h-2.7v2.7h-1.2v-.5h-1.8v1.3h4.9v3.8h-1.2v-.5h-3.7c0 .4-.1.9-.1 1.2h5.1v1h-5.2c0 .5-.1.9-.2 1.2h6v1h-5.2c1.1 1.3 2.9 2 5.5 2.2-.4.4-.7.8-.9 1.3-2.9-.5-4.8-1.6-5.7-3.5h-.1c-.8 1.7-2.7 2.9-5.9 3.6-.2-.4-.6-.8-.9-1.1 2.8-.6 4.6-1.4 5.4-2.5h-4.8v-1h5.3c.1-.3.2-.7.2-1.2h-4.9v-1h5c0-.4 0-.8.1-1.2h-3.6v.5h-1.2v-3.8h4.9v-1.3h-1.8v.5h-1.2v-2.7h-2.6v-1.1h2.6v-1.4h1.2v1.4h4.7v-1.4zm-6.7 8.4h3.6c0-.4 0-.9 0-1.4h-3.6zm1.9-4.7h4.7v-1.2h-4.7zm6.7 3.3h-3.7v1.4h3.7z" fill="#fbfafc"/><path d="m384.7 21.4h1.3v2.2h2.8v-2.2h1.3v2.2h4.1v9.1h1.7v1.3h-16.9v-1.3h1.7v-9.1h4.1v-2.2zm.3 13.2.7 1.2c-1.8.9-3.8 1.9-6 2.9-.2-.4-.5-.8-.8-1.3 2.4-1 4.4-2 6.1-2.8zm-3.1-6.5h2.8v-3.2h-2.8zm0 4.6h2.8v-3.3h-2.8zm4.1-4.6h2.8v-3.2h-2.8zm0 4.6h2.8v-3.3h-2.8zm3.6 1.9c2.1.9 4.1 1.8 6.1 2.7l-.7 1.3c-2.2-1.1-4.2-2-6.1-2.9zm3.3-9.7h-2.8v3.2h2.8zm-2.8 7.8h2.8v-3.3h-2.8z" fill="#fbfafc"/></svg>