<svg enable-background="new 0 0 400 400" viewBox="0 0 400 400" xmlns="http://www.w3.org/2000/svg"><path d="m361.2 9.6.8-1c.9.7 1.9 1.4 2.9 2.3l-.9 1.1c-1-1-2-1.8-2.8-2.4zm.5 10.6c.9-2.1 1.6-4.3 2.3-6.7.4.2.8.4 1.3.6-.7 2.1-1.5 4.3-2.2 6.6zm.4-15.2.9-.9c1 .8 2 1.6 2.8 2.4l-1 1c-.9-.9-1.8-1.7-2.7-2.5zm12.5-1.2h1.2v1.4h2.7v1.1h-2.7v2.7h-1.2v-.6h-1.8v1.3h4.9v3.8h-1.2v-.5h-3.7c0 .4-.1.9-.1 1.2h5.1v1h-5.2c0 .5-.1.9-.2 1.2h6v1h-5.2c1.1 1.3 2.9 2 5.5 2.2-.4.4-.7.8-.9 1.3-2.9-.5-4.8-1.6-5.7-3.5h-.1c-.8 1.7-2.7 2.9-5.9 3.6-.2-.4-.6-.8-.9-1.1 2.8-.6 4.6-1.4 5.4-2.5h-4.8v-1h5.3c.1-.3.2-.7.2-1.2h-4.9v-1h5c0-.4 0-.8.1-1.2h-3.5v.5h-1.2v-3.8h4.9v-1.3h-1.8v.5h-1.2v-2.7h-2.7v-1h2.6v-1.4h1.2v1.4h4.7v-1.4zm-6.6 8.3h3.6c0-.4 0-.9 0-1.4h-3.6zm1.9-4.6h4.7v-1.3h-4.7zm6.6 3.2h-3.7v1.4h3.7z" fill="#fafbfa"/><path d="m385.3 3.8h1.3v2.2h2.8v-2.2h1.3v2.2h4.1v9.1h1.7v1.3h-16.9v-1.3h1.7v-9.1h4.1v-2.2zm.4 13.1.7 1.2c-1.8.9-3.8 1.9-6 2.9-.2-.4-.5-.8-.8-1.3 2.3-1 4.3-1.9 6.1-2.8zm-3.1-6.4h2.8v-3.2h-2.8zm0 4.6h2.8v-3.3h-2.8zm4-4.6h2.8v-3.2h-2.8zm0 4.6h2.8v-3.3h-2.8zm3.7 1.9c2.1.9 4.1 1.8 6.1 2.7l-.7 1.3c-2.2-1.1-4.2-2-6.1-2.9zm3.2-9.7h-2.8v3.2h2.8zm-2.8 7.8h2.8v-3.3h-2.8z" fill="#fafbfa"/><g fill="#010000"><path d="m119.5 168.21c-15.76 3.01-15.82 13.36-15.63 25.09.56 33.98.24 67.98.13 101.97-.01 3.41.95 5.87 3.27 8.39 18.59 20.24 41.49 31.34 68.83 34.44 35.79 4.05 71.68 5.68 107.6 4.31 30.01-1.15 59.97-3.93 90.09-6v5.22c-3.77 1.45-7.85 2.75-11.68 4.56-7.04 3.33-12.42 8.22-14.24 16.3-.25 1.09-2.19 2.57-3.34 2.57-22.64-.08-45.28-.24-67.92-.63-14.14-.24-28.29-.64-42.41-1.42-29.26-1.6-58.33-4.5-85.64-16.26-15.96-6.88-29.5-17.37-41.54-29.71-8.72-8.93-15.17-9.96-25.02-2.11-12.35 9.84-22.29 21.89-30.92 35.06-.71 1.08-1.51 2.11-2.42 3.37-7.09-5.67-13.95-11.16-21.92-17.54 10.89-7.35 21.04-14.52 31.52-21.18 7.29-4.63 15.1-8.42 22.5-12.87 1.49-.9 3.1-3.11 3.11-4.72.17-40.49.13-80.97.11-121.46 0-.64-.15-1.28-.4-3.31-13.25.98-26.45 1.77-39.6 3.05-2.82.28-4.59-.07-6.47-2.1-2.94-3.17-6.16-6.08-10.05-9.87 2.3-.17 3.64-.35 4.98-.35 15.16-.02 30.32-.09 45.49.05 3.4.03 5.93-.64 8.12-3.55 2.79-3.7 6.2-6.93 9.59-10.64 7.5 6.08 14.95 12.12 23.86 19.34z"/><path d="m320.61 127.44c3.76-8.11 7.36-15.9 11.17-24.13-26.06 0-51.47 0-77.58 0 0 9.7-.15 19.3.04 28.89.24 11.97.87 23.94 1 35.92.02 1.62-1.46 4.07-2.9 4.74-5.7 2.67-11.66 4.78-17.33 7.02 0-25.4 0-50.72 0-76.43-24.6 0-49.64 0-74.89 0 0 5 .17 9.94-.04 14.87-.36 8.78-6.46 16.84-14.27 19.2-5.12 1.55-10.17-.42-13.46-5.08-3.02-4.27-.88-7.99 1.9-10.77 8.1-8.08 14.09-17.21 16.24-28.59.8-4.23 1.56-8.46 2.37-12.83h6.47v12.38h76.08c0-11.22 0-22.58 0-34.27-1.01-.1-1.96-.29-2.91-.27-18.14.32-36.5-.94-54.33 1.55-11.9 1.66-17.39-4.36-25.06-11.64h6.22c43.32 0 86.64-.04 129.96.07 3.42.01 5.9-.89 8.34-3.33 5.17-5.16 10.68-9.97 16.51-15.35 7.96 9.35 15.78 18.53 24.3 28.54-28.47 0-56.1 0-83.99 0v35.06h5.49c21.83 0 43.65-.09 65.48.09 3.66.03 6.26-.87 8.56-3.76 2.89-3.63 6.18-6.92 9.37-10.44 7.94 7.48 15.68 14.78 23.83 22.46-3.56.8-6.71 1.32-9.75 2.22-12.73 3.76-21.86 12.28-29.57 22.64-2.53 3.4-2.56 3.38-7.25 1.24z"/><path d="m250.98 193.01c8.27 4.8 16.81 9.75 25.62 14.86-22.01 14.34-36.8 34.67-52.9 53.88 9.95 7.77 19.56 15.1 28.96 22.7 3.6 2.91 7.04 6.16 9.99 9.72 7.07 8.5 2.66 25.81-7.67 29.77-1.77.68-5.03-.21-6.49-1.56-2.07-1.93-3.56-4.82-4.53-7.57-6.24-17.82-16.44-33.33-28.01-47.99-2.65-3.35-2.97-5.44-.49-9.31 9.58-14.93 18.82-30.1 27.65-45.49 3.33-5.81 5.2-12.44 7.87-19.01z"/><path d="m136.69 263.77c15-23.65 29.93-46.5 36.51-74 8.85 5.14 17.39 10.09 26.85 15.58-16.82 7.11-23.02 22.95-33.2 35.15-5.42 6.5-10.51 13.27-15.7 19.86 7.57 5.38 15.14 10.45 22.35 16 4.06 3.12 7.79 6.79 11.19 10.63 9.35 10.57 7.23 22.05-.72 32.1-2.53 3.19-5.46 2.9-7.81-.37-.87-1.2-1.67-2.55-2.1-3.95-6-19.28-18.79-33.76-33.12-47.18-1.32-1.24-2.7-2.43-4.25-3.82z"/><path d="m319.16 192.84c8.6 4.5 17.08 8.94 25.83 13.52-20.94 14.31-36.22 33.94-52.41 52.16 9.71 6.52 19.32 12.43 28.28 19.19 4.83 3.64 9.21 8.3 12.64 13.29 8.03 11.68 2.2 23.33-5.51 30.31-3.5 3.17-6.48 2.42-9.03-1.66-.79-1.26-1.54-2.61-1.97-4.02-6.04-19.92-18.59-35.85-31.71-51.35-2.54-3.01-2.02-4.66-.28-7.61 9.96-16.87 19.76-33.83 29.33-50.91 2.13-3.83 3.13-8.29 4.83-12.92z"/><path d="m62.51 44.11c13.9 8.84 28.03 17.54 39.46 29.86 12.09 13.03 6.32 28.48-3.81 38.51-3 2.97-5.97 2.22-8.09-1.61-1.2-2.17-2.36-4.49-2.85-6.89-3.97-19.51-13.5-36.33-25.06-52.16-1.93-2.65-3.38-5.04.35-7.71z"/><path d="m273.83 144.78c0-3.1 0-5.71 0-8.63h51.18v8.63c-16.86 0-33.84 0-51.18 0z"/><path d="m325.12 168.18v8.83c-16.64 0-33.15 0-49.92 0 0-2.95 0-5.71 0-8.83z"/><path d="m167.31 136.02h48.43v8.87c-16.08 0-32.1 0-48.43 0 0-2.83 0-5.57 0-8.87z"/><path d="m215.92 168.21v8.88c-16.29 0-32.34 0-48.65 0 0-2.97 0-5.73 0-8.88z"/></g></svg>