<svg enable-background="new 0 0 400 400" viewBox="0 0 400 400" xmlns="http://www.w3.org/2000/svg"><g fill="#010100"><path d="m76.77 134c0-21.26 0-41.72 0-62.67-10.57-.57-20.97-.88-31.04 2.57-3.9 1.34-6.75.9-9.5-2.5-2.78-3.44-6.24-6.32-10.37-10.4h6.53c35.15 0 70.31.07 105.46-.13 2.85-.02 6.02-1.34 8.47-2.94 4.99-3.26 9.6-7.11 14.82-11.07 6.45 7.83 12.81 15.55 19.84 24.08-16.84 0-32.56 0-48.63 0v63.04c4.73 0 9.36.2 13.96-.13 1.29-.09 2.81-1.47 3.65-2.66 2.85-4.07 5.44-8.31 8.38-12.89 6.23 5.76 12.18 11.26 18.06 16.69-.27.57-.32.98-.54 1.1-7.84 4.55-9.11 11.44-9.05 20.09.43 59.97.28 119.95.41 179.92.01 6.31.71 12.61.74 18.92.01 1.42-1.11 3.52-2.31 4.17-4.8 2.57-9.83 4.68-15.58 7.33 0-9.29 0-17.96 0-26.99-31.06 0-61.46 0-92.65 0 0 4.89.32 9.86-.15 14.76-.2 2.05-1.63 4.62-3.31 5.75-4.92 3.3-10.25 6-15.62 9.04 0-82.93 0-165.4 0-248.6 4.46 3.13 8.96 5.84 12.94 9.19 4.09 3.44 8.44 4.86 13.72 4.39 3.75-.33 7.57-.06 11.77-.06zm17.13 10.32c2 39.63-6.39 75.74-31.86 106.79-1.34-.47-2.76-.98-4.19-1.48v22.55h91.66c0-14.67 0-28.92 0-43.94-6.42 0-12.55.21-18.66-.05-7.71-.32-12.39-4.4-13.81-11.87-.65-3.41-.99-6.93-1-10.4-.1-18.49-.04-36.99-.04-55.48 0-1.95 0-3.9 0-6.1-7.43-.02-14.35-.02-22.1-.02zm-36.25 184.78h91.74c0-15.87 0-31.25 0-46.54-30.79 0-61.15 0-91.74 0zm.17-184.89v101.47c20.58-31.96 17.91-66.93 19.21-101.47-6.89 0-12.85 0-19.21 0zm57.78-10.35c0-21.19 0-41.88 0-62.45-7.32 0-14.23 0-21.11 0v62.45zm16.4 10.4c0 16.83-.01 33.12 0 49.41 0 4.78-.27 9.6.26 14.33.19 1.7 2.19 4.34 3.64 4.53 4.5.59 9.12.22 13.51.22 0-23.36 0-45.9 0-68.49-5.88 0-11.33 0-17.41 0z"/><path d="m244.52 206.12c5.84 2.14 11.69 4.28 18.8 6.88-9.22 4.87-7.27 12.62-7.31 19.74-.05 8-.14 16 .06 24 .07 2.77-.85 4.21-3.35 5.26-5.04 2.11-9.96 4.49-15.56 7.04 0-8.3 0-16.15 0-24.45-12.61-.11-24.75-1.52-36.44 2.97-3.23 1.24-5.49.76-7.84-1.9-3.04-3.44-6.57-6.46-11.03-10.75h54.38c0-10.18 0-19.72 0-29.09-15.9-2.79-30.41.69-44.81 5.08 0-23.22 0-45.61 0-68.72 4.64 2.87 8.98 5.87 13.62 8.3 2.52 1.32 5.54 2.36 8.34 2.37 39.33.15 78.66.05 118 .19 3.59.01 5.87-.96 7.7-4.03 2.03-3.41 4.5-6.56 7.12-10.3 6.15 5.65 12.09 11.09 17.98 16.5-.23.48-.3.93-.51 1-8.04 2.69-9.49 8.59-8.79 16.28.92 10.24 1.05 20.56 1.55 31.45-4.93 1.04-10.54 2.44-16.24 3.27-1.48.22-3.22-1.99-4.85-2.01-13.24-.18-26.49-.1-39.96.85 6.87 2.65 13.74 5.3 21.06 8.12-3.22 5.99-9.69 10.65-6.21 18.84 8.08 0 16.38.09 24.67-.1 1.26-.03 2.66-1.15 3.72-2.08 4.37-3.8 8.64-7.73 13.37-11.99 6.12 8 12.01 15.7 18.44 24.11-20.68 0-40.42 0-61.04 0 0 4.79-.19 9.22.06 13.63.18 3.19-.96 4.77-4.01 5.77-4.06 1.32-7.94 3.19-13.37 5.44 0-21.29 0-41.63 0-62.33-16.71 0-32.09 0-47.47 0-.01.2-.05.43-.08.66zm93.14-42.74c-43.05 0-85.69 0-128.33 0v31.23h128.33c0-10.51 0-20.62 0-31.23z"/><path d="m265.47 374.88c0-18.1 0-36.04 0-54.71-1.37 0-2.97 0-4.57 0-10.83 0-21.69-.46-32.49.13-11.24.61-22.45 2.07-33.64 3.48-3.05.38-5.33.32-7.56-2.14-3.09-3.42-6.59-6.46-9.42-10.82h87.85c0-10.19 0-19.73 0-29.66-16.68-.33-33.35-1.13-49.68 2.44-6.95 1.52-12.02 1.02-15.92-5.39-1.44-2.37-3.75-4.21-6.49-7.2h5.97c40 0 80-.04 120 .08 3.59.01 6.32-.84 8.86-3.4 3.74-3.77 7.8-7.21 11.98-11.01 6.61 8.03 12.99 15.79 19.93 24.22-25.46 0-50.02 0-74.94 0v29.71h6.4c14.67 0 29.34.15 44-.14 2.67-.05 5.7-1.4 7.87-3.06 4.35-3.31 8.22-7.25 12.77-11.35 6.01 7.85 11.86 15.51 18.43 24.1-30.54 0-59.91 0-89.17 0 0 14-.32 27.45.13 40.87.25 7.28.84 7.26-6.25 9.64-4.26 1.43-8.52 2.83-12.79 4.23-.3.07-.65-.02-1.27-.02z"/><path d="m325.89 78.94c6.33 5.36 12.26 10.38 18.14 15.36-.27.44-.33.65-.46.71-11.16 4.66-9.91 14.05-9.01 23.38.45 4.6.62 9.23.92 14.05-6.05 2.31-11.87 4.54-18.13 6.94-.24-2.51-.43-4.57-.65-6.9-29.33 0-58.57 0-87.81 0 .21.41.43.82.64 1.23-2.2 1.44-4.22 3.35-6.63 4.21-3.71 1.33-7.67 1.93-11.13 2.75 0-19.68 0-39.37 0-59.7 3.85 2.24 7.74 4.87 11.94 6.82 3.04 1.41 6.5 2.66 9.79 2.69 25.14.22 50.28.01 75.42.22 4.72.04 8.32-.8 10.98-5 1.51-2.36 3.73-4.25 5.99-6.76zm-9.04 21.51c-29.71 0-58.96 0-88.49 0v21.8h88.49c0-7.33 0-14.31 0-21.8z"/><path d="m280.86 64c13.13 0 25.72-.34 38.28.15 6.03.24 10.41-1.36 14.22-6.01 3.67-4.48 7.96-8.45 12.44-13.14 7.82 9.75 15.14 18.88 23.31 29.07-2.73 0-4.43 0-6.13 0-45.13 0-90.27-.11-135.4.09-9.27.04-18.57 1.01-27.8 1.99-3.62.39-6.24 0-8.7-2.93-2.51-2.98-5.6-5.47-9.44-9.12h89.37c-1.39-3.44-2-6.6-3.73-8.95-5.49-7.49-11.44-14.63-17.07-22.02-.92-1.2-1.12-2.95-1.65-4.44 1.69-.32 3.68-1.39 5.03-.85 8.94 3.58 17.86 7.25 26.54 11.4 7.53 3.6 8.98 8.29 5.58 15.96-1.26 2.83-2.99 5.45-4.85 8.8z"/></g><path d="m378.6 9.2.8-1c.9.7 1.9 1.4 2.9 2.3l-.9 1.1c-1.1-.9-2-1.7-2.8-2.4zm.5 10.7c.9-2.1 1.6-4.3 2.3-6.7.4.2.8.4 1.3.6-.7 2.1-1.5 4.3-2.2 6.6zm.4-15.2.9-.9c1 .8 2 1.6 2.8 2.4l-1 1c-1-.9-1.9-1.8-2.7-2.5zm12.5-1.3h1.2v1.4h2.7v1.1h-2.7v2.7h-1.2v-.5h-1.8v1.3h4.9v3.8h-1.2v-.5h-3.7c0 .4-.1.9-.1 1.2h5.1v1h-5.2c0 .5-.1.9-.2 1.2h6v1h-5.2c1.1 1.3 2.9 2 5.5 2.2-.4.4-.7.8-.9 1.3-2.9-.5-4.8-1.6-5.7-3.5h-.1c-.8 1.7-2.7 2.9-5.9 3.6-.2-.4-.6-.8-.9-1.1 2.8-.6 4.6-1.4 5.4-2.5h-4.8v-1h5.3c.1-.3.2-.7.2-1.2h-4.9v-1h5c0-.4 0-.8.1-1.2h-3.6v.5h-1.2v-3.8h4.9v-1.3h-1.8v.5h-1.2v-2.7h-2.6v-1.1h2.6v-1.4h1.2v1.4h4.7v-1.4zm-6.7 8.4h3.6c0-.4 0-.9 0-1.4h-3.6zm1.9-4.7h4.7v-1.2h-4.7zm6.7 3.3h-3.7v1.4h3.7z" fill="#fbfafc"/><path d="m384.7 21.4h1.3v2.2h2.8v-2.2h1.3v2.2h4.1v9.1h1.7v1.3h-16.9v-1.3h1.7v-9.1h4.1v-2.2zm.3 13.2.7 1.2c-1.8.9-3.8 1.9-6 2.9-.2-.4-.5-.8-.8-1.3 2.4-1 4.4-2 6.1-2.8zm-3.1-6.5h2.8v-3.2h-2.8zm0 4.6h2.8v-3.3h-2.8zm4.1-4.6h2.8v-3.2h-2.8zm0 4.6h2.8v-3.3h-2.8zm3.6 1.9c2.1.9 4.1 1.8 6.1 2.7l-.7 1.3c-2.2-1.1-4.2-2-6.1-2.9zm3.3-9.7h-2.8v3.2h2.8zm-2.8 7.8h2.8v-3.3h-2.8z" fill="#fbfafc"/></svg>