<svg enable-background="new 0 0 400 400" viewBox="0 0 400 400" xmlns="http://www.w3.org/2000/svg"><path d="m377.9 391.2c-.2.3-.4.5-.6.8-.7-.6-1.4-1-2.2-1.5.2-.3.4-.5.5-.8.6.4 1.4.8 2.3 1.5zm-1.8 6.1c-.2-.2-.5-.4-.9-.6.4-.6.8-1.2 1.2-1.9s.7-1.3.9-1.9c.3.3.5.5.8.7-.7 1.3-1.4 2.6-2 3.7zm2.2-9c-.3.3-.5.5-.6.8-.6-.6-1.3-1.1-2-1.5.3-.3.5-.5.6-.7.6.5 1.3.9 2 1.4zm.3.2v-.9h2 4.5c-.3 1.3-.6 2.5-1 3.6s-.9 2.1-1.4 3c.4.5 1 1 1.6 1.4s1.2.8 1.9 1.1c-.3.2-.5.4-.8.8-.4-.3-1-.7-1.6-1.2s-1.2-1.1-1.6-1.6c-.5.6-1.1 1.1-1.7 1.6s-1.4.9-2.1 1.4c-.1-.3-.3-.5-.7-.8.6-.2 1.2-.5 1.9-1s1.4-1.1 2-1.8c-.5-.8-.9-1.6-1.2-2.5s-.6-2-.8-3.2c-.4.1-.7.1-1 .1zm2.5 2.7c.3 1 .7 1.7 1 2.2.3-.5.6-1.1 1-2s.6-1.9.9-3h-3.2-.4c.1.9.3 1.8.7 2.8z" fill="#fafbfa"/><path d="m396.5 388.5v1.5 3.6h1.5v.9c-.4 0-1 0-1.7 0h-7.9c-.5 0-.9 0-1.2 0v-.9h1.3v-3.5c0-.7 0-1.2 0-1.6h2.4c0-.8 0-1.4 0-1.7h1c0 .3-.1.8-.1 1.7h1.5c0-.8 0-1.4 0-1.7h1c0 .3-.1.9-.1 1.7zm-8.2 9.2c-.2-.3-.5-.5-.8-.8.8-.3 1.4-.6 1.9-.9s1-.7 1.4-1.1c.3.3.6.5.9.8-1.6 1-2.8 1.6-3.4 2zm2.6-6.8v-1.6h-1.5v1.6zm0 2.7v-1.9h-1.5v1.9zm2.4-2.7v-1.6h-1.5v1.6zm0 2.7v-1.9h-1.5v1.9zm.2 2 .7-.8c.4.2.9.5 1.6.8s1.3.7 1.8 1c-.3.3-.5.5-.8.8-.4-.3-1.5-1-3.3-1.8zm2-4.7v-1.6h-1.4v1.6zm0 2.7v-1.9h-1.4v1.9z" fill="#fafbfa"/><g fill="#010000"><path d="m112.36 168.83v40.04c15.61 5.33 26.3-2.94 36.25-13.75 6.95 8.41 13.37 16.16 20.39 24.65-19.25 0-37.63 0-56.41 0v76.22c14.89-21.44 24.44-44.11 35.05-66.81 6.68 7.12 13.11 13.99 19.59 20.91-21.31 14.64-35.09 36.16-52.75 53.86-2.65 2.66-2.17 8.43-3.41 14.02 18.23-3.6 34.86-6.88 51.5-10.17 1.38 3.8.21 5.39-3.14 6.67-35.39 13.47-70.71 27.12-106.09 40.6-1.26.48-3.87.17-4.41-.68-4.52-7.11-8.7-14.44-12.76-21.31 17.81-3.78 35.27-7.56 52.77-11.13 3.72-.76 5.01-2.28 4.99-6.26-.19-30.16-.1-60.33-.1-90.49 0-1.48 0-2.95 0-4.82-11.42 0-22.83-1.66-33.49.46-10.99 2.19-18.09-.78-24.18-9.06-.27-.36-.48-.77-1.08-1.74h58.42c0-13.76 0-27.01 0-41.27-6.06.35-12.31-.12-18.09 1.29-5.24 1.28-8.91.39-12.38-3.28-.77-.81-1.75-1.41-2.28-1.83-10.23 11.22-20.26 22.23-30 32.92-5.07-2.15-2.8-4.41-1.69-6.48 9.28-17.28 19.09-34.3 27.78-51.88 17.56-35.53 31.35-72.57 42.7-111.51 8.13 5.22 15.99 10.27 23.01 14.77-5.15 8.91-10.14 17.53-15.44 26.69 6.33 2.48 11.64 4.32 16.76 6.61 9.39 4.21 18.79 8.43 27.96 13.1 15.47 7.89 13.13 22.85 7.39 32.92-1.94 3.39-4.94 4.01-7.88 1.2-2.14-2.05-4.1-4.38-5.71-6.87-10.13-15.55-23.58-27.93-37.53-39.86-.35-.3-.91-.34-1.09-.41-13.89 27.47-27.74 54.84-41.74 82.53.96.07 2.18.24 3.4.24 17.17.02 34.33.12 51.49-.11 2.35-.03 5.08-1.22 6.95-2.72 4.9-3.97 9.43-8.4 14.55-13.06 7.07 8.46 14.04 16.79 21.58 25.8-17.3 0-33.84 0-50.88 0z"/><path d="m141.97 372.11c-4.27-1.87-1.77-4.16-.65-6.09 10.19-17.6 18.58-36 25.09-55.27 7.17-21.19 10.78-43.09 13.58-65.2 5.87-46.28 3.79-92.75 3.56-139.18-.03-6.3-.56-12.59-.92-20.12 5.48 3.35 9.96 6.41 14.73 8.89 2.67 1.39 5.82 2.51 8.78 2.56 15.3.25 30.61.12 46.79.12-.51-23.77-1.02-47.13-1.53-71.2 8.79 3.66 17.4 7.26 27.19 11.33-8.13 7.11-8.43 16-7.14 25.54.54.13 1.3.46 2.06.46 15.5.03 31 .1 46.5-.06 1.78-.02 3.81-1.02 5.26-2.15 4.85-3.77 9.5-7.8 14.55-12 6.48 7.88 12.86 15.64 19.89 24.18-30.03 0-58.93 0-88.23 0v23.89h5.17c21.33 0 42.67-.21 63.99.14 5.78.09 10.31-1.22 14.13-5.49 1.42-1.59 3.22-2.85 5.42-4.76 4.72 6.58 9.32 12.97 14.19 19.75-14.57 4.54-24.99 14.2-34.74 24.71-2.35 2.53-4.12 3.11-6.46-.24 4.51-7.72 9.1-15.59 14.03-24.05-30.19 0-59.85 0-89.51 0-.07.17-.15.34-.22.51 7.57 2.19 15.15 4.38 24.67 7.13-12.73 5.17-11.99 14.45-10.57 24.35 9.6-1.79 19.2-3.49 28.74-5.46 1.43-.3 2.81-1.7 3.83-2.91 3.12-3.67 6.07-7.5 9.48-11.77 6.87 5.46 13.67 10.88 21.31 16.95-21.71 3.97-42.49 7.78-63.19 11.57-2.34 11.24 1.16 17.18 12.23 17.38 16.17.3 32.61 2.83 48.43-3.45 4.67-1.86 15.76 3.06 17.98 7.44 1.73 3.41-1.33 4.8-3.38 5.36-7.49 2.02-15.07 4.6-22.71 4.97-15.63.76-31.32.25-46.99.22-14.52-.03-22.52-7.67-23.28-22.24-.13-2.46-.02-4.94-.02-8.43-12.55 3.79-25.6 2.54-36.86 10.08-3.59-3.19-7.41-6.58-12.25-10.88 16.95-2.53 32.72-4.88 48.23-7.19 0-11.38 0-22.41 0-33.76-17.06 0-33.31 0-49.83 0-.11 1.45-.26 2.74-.28 4.02-.35 26.64-.08 53.31-1.16 79.93-1.31 32.37-2.72 64.83-10.83 96.44-7.93 30.94-23.11 57.91-45.56 80.7-1.16 1.16-2.4 2.24-3.5 3.28z"/><path d="m230.73 244.65c-1.12 5.06-5.04 6.97-18.25 9.25 0-23.52 0-47.04 0-71.09 4.58 2.44 8.94 5.14 13.61 7.14 3.25 1.39 6.91 2.52 10.39 2.54 32.83.19 65.66.04 98.48.19 4.31.02 7.65-.71 10.27-4.47 2.07-2.98 4.83-5.48 7.72-8.68 5.18 5.63 10.29 11.16 16.2 17.58-10.95 2.3-9.12 10.29-9.09 17.52.04 9.8.01 19.6.01 30.26-4.78 1.48-10.69 3.32-16.8 5.22-.25-2.01-.45-3.61-.68-5.44-37.29-.02-74.4-.02-111.86-.02zm42.01-42.2v31.92h27.77c0-10.85 0-21.26 0-31.92-9.36 0-18.4 0-27.77 0zm-16.09.04c-8.83 0-17.39 0-26.09 0v31.93h26.09c0-10.82 0-21.25 0-31.93zm59.79 32.05h26.15c0-10.83 0-21.37 0-31.99-8.89 0-17.45 0-26.15 0z"/><path d="m231.27 344.17c10.82 1.15 21.38 2.24 31.93 3.39 7.49.82 12.52-1.95 13.14-9.52.9-11.01.23-22.15.23-33.45-13.49 0-27.42-.31-41.33.15-6.07.2-12.07 2.05-18.13 3-1.17.18-2.83.09-3.61-.61-4.04-3.61-7.86-7.46-11.76-11.22.2-.44.39-.88.59-1.32h5.69c41.65 0 83.3-.04 124.96.07 3.76.01 6.62-.88 9.29-3.62 3.7-3.79 7.83-7.16 12.12-11.02 6 7.84 11.81 15.43 18.33 23.95-25.6 0-50.24 0-75.54 0v9 31.49c0 16.37-6.63 25.43-22.66 30.66-7.42-17.31-22.84-22.3-39.56-24.97-3.84-.62-4.81-2.18-3.69-5.98z"/><path d="m326.67 252.29c6.61 7.56 12.9 14.74 19.92 22.78-2.71 0-4.3 0-5.9 0-22.49 0-44.99-.31-67.47.15-9.23.19-18.42 2.14-27.66 3.03-1.82.18-4.2-.28-5.54-1.39-3.96-3.29-7.52-7.05-10.96-11.86h5.02c22.66 0 45.32-.08 67.98.07 4.17.03 7.7-.67 11.07-3.34 4.15-3.3 8.7-6.1 13.54-9.44z"/><path d="m42.19 239.25c10.99 10.77 22.15 21.01 32.49 32.03 10.01 10.66 9.28 23.14-.91 33.74-4.35 4.52-7.65 4.08-10.2-1.71-1.39-3.15-2.21-6.57-3.1-9.92-4.41-16.66-11.85-32.01-20.22-46.95-1.56-2.8-1.77-4.88 1.94-7.19z"/></g></svg>