<svg enable-background="new 0 0 400 400" viewBox="0 0 400 400" xmlns="http://www.w3.org/2000/svg"><path d="m377.9 391.2c-.2.3-.4.5-.6.8-.7-.6-1.4-1-2.2-1.5.2-.3.4-.5.5-.8.6.4 1.4.8 2.3 1.5zm-1.8 6.1c-.2-.2-.5-.4-.9-.6.4-.6.8-1.2 1.2-1.9s.7-1.3.9-1.9c.3.3.5.5.8.7-.7 1.3-1.4 2.6-2 3.7zm2.2-9c-.3.3-.5.5-.6.8-.6-.6-1.3-1.1-2-1.5.3-.3.5-.5.6-.7.6.5 1.3.9 2 1.4zm.3.2v-.9h2 4.5c-.3 1.3-.6 2.5-1 3.6s-.9 2.1-1.4 3c.4.5 1 1 1.6 1.4s1.2.8 1.9 1.1c-.3.2-.5.4-.8.8-.4-.3-1-.7-1.6-1.2s-1.2-1.1-1.6-1.6c-.5.6-1.1 1.1-1.7 1.6s-1.4.9-2.1 1.4c-.1-.3-.3-.5-.7-.8.6-.2 1.2-.5 1.9-1s1.4-1.1 2-1.8c-.5-.8-.9-1.6-1.2-2.5s-.6-2-.8-3.2c-.4.1-.7.1-1 .1zm2.5 2.7c.3 1 .7 1.7 1 2.2.3-.5.6-1.1 1-2s.6-1.9.9-3h-3.2-.4c.1.9.3 1.8.7 2.8z" fill="#fafbfa"/><path d="m396.5 388.5v1.5 3.6h1.5v.9c-.4 0-1 0-1.7 0h-7.9c-.5 0-.9 0-1.2 0v-.9h1.3v-3.5c0-.7 0-1.2 0-1.6h2.4c0-.8 0-1.4 0-1.7h1c0 .3-.1.8-.1 1.7h1.5c0-.8 0-1.4 0-1.7h1c0 .3-.1.9-.1 1.7zm-8.2 9.2c-.2-.3-.5-.5-.8-.8.8-.3 1.4-.6 1.9-.9s1-.7 1.4-1.1c.3.3.6.5.9.8-1.6 1-2.8 1.6-3.4 2zm2.6-6.8v-1.6h-1.5v1.6zm0 2.7v-1.9h-1.5v1.9zm2.4-2.7v-1.6h-1.5v1.6zm0 2.7v-1.9h-1.5v1.9zm.2 2 .7-.8c.4.2.9.5 1.6.8s1.3.7 1.8 1c-.3.3-.5.5-.8.8-.4-.3-1.5-1-3.3-1.8zm2-4.7v-1.6h-1.4v1.6zm0 2.7v-1.9h-1.4v1.9z" fill="#fafbfa"/><g fill="#010000"><path d="m305.12 144.93c1.12 41.48 5.16 81.69 13.45 121.58 10.89-32.72 18.18-66.19 22.18-101.43 8.85 5.37 16.98 10.3 25.13 15.24-8.12 9.68-9.98 21.7-13.47 33.1-7.87 25.68-15.99 51.28-23.8 76.97-.67 2.22-.62 5.26.38 7.28 6.85 13.7 14.83 26.68 26.02 39.04 2.51-17.4 4.89-33.81 7.31-50.55 1.77-.14 3.36-.26 5.62-.43-.19 2.9-.47 5.45-.5 8.01-.16 13.33-.93 26.69-.14 39.97.63 10.7 3.26 21.28 4.82 31.94.33 2.28-.09 4.68-.17 7.02-2.51-.42-5.34-.23-7.47-1.35-13.4-7.08-23.84-17.55-32.2-29.99-6-8.94-11.28-18.37-17.05-27.86-13.26 18.84-29.67 34.72-48.83 47.69-7.4 5.01-15.13 9.53-22.67 14.24-3.5-3.57-.76-5.05 1.21-6.75 18.36-15.84 34.37-33.69 48.51-53.48 9.79-13.71 11.83-26.8 7.76-43.44-5.42-22.15-7.6-45.15-10.2-67.9-2.13-18.64-2.83-37.45-4.18-56.18-.05-.64-.22-1.26-.34-1.91-.61-.21-1.06-.5-1.52-.5-35.49.02-70.99-.05-106.48.21-6.76.05-13.51 1.52-20.27 2.22-1.21.13-2.86.17-3.64-.52-3.69-3.24-7.15-6.75-11.72-11.16h66.27c0-12.96 0-25.49 0-39.51-9.07.94-18.33.8-26.91 3.13-7.49 2.04-12.26.56-16.69-5.19-1.58-2.05-3.87-3.56-5.84-5.31.19-.42.38-.83.58-1.25h48.58c0-18.69 0-36.71 0-55.16 8.91 4.44 18.02 8.98 27.38 13.64-.71.83-1.04 1.49-1.57 1.79-7.61 4.22-9.03 10.91-8.34 18.97.56 6.57.11 13.23.11 19.31 14.75 5.28 23.43-2.45 30.63-13.66 6.81 8.27 13.01 15.8 19.98 24.27-17.34 0-33.66 0-50.25 0v38.59h60.06c-.91-35.59-1.83-71.07-2.76-107.42 9.55 5.72 18.58 11.13 28.02 16.78-1.46 1.37-2.38 2.57-3.58 3.3-5.45 3.34-6.68 8.01-6.26 14.29.88 12.94.94 25.94 1.12 38.92.16 11.27.03 22.54.03 34.31 10.71 0 20.33.12 29.95-.12 1.57-.04 3.21-1.56 4.64-2.63 5.05-3.8 10.02-7.7 15.43-11.89 6.86 7.75 13.62 15.39 21.04 23.78-23.4 0-45.92 0-69.36 0z"/><path d="m191.81 338.06c0-9.53 0-18.35 0-27.8-10.31-.17-20.57-1.53-30.59 3.99-3.01-3.88-6-7.74-9.54-12.32h39.88c0-6.69 0-12.9 0-20.17-7.16 1.21-14.2 2.01-21.01 3.72-3.8.95-6.22.38-8.69-2.52-2.45-2.87-5.35-5.35-8.95-8.89h38.7c0-7.08 0-13.66 0-20.62-10.32-1.19-20.37-.29-30.41 3.9-2.62-3.94-5.15-7.74-8.15-12.25h38.5c0-8.45 0-16.49 0-24.82-2.62 0-5.21 0-7.81 0 .18.38.36.76.54 1.14-1.98 1.23-3.82 2.92-5.98 3.6-4.23 1.32-8.63 2.07-13.02 3.08 0-23.26 0-46.14 0-69.88 4.81 2.56 9.43 5.27 14.27 7.5 2.47 1.14 5.32 2 8.01 2.02 18.66.17 37.33-.02 55.99.18 3.71.04 6.28-.97 8.51-3.87 2.42-3.15 5.23-5.99 7.88-8.98 5.5 5.81 10.83 11.44 16.49 17.42.3-.79.26-.32.07-.24-7.02 2.88-8.19 8.38-7.57 15.28.75 8.44.68 16.95 1.13 25.42.14 2.61-.2 4.31-3.09 5.24-4.73 1.51-9.31 3.48-14.07 5.3-1.92-5.5-6.24-2.95-10.09-3.43v24.16c11 3.64 18.94-2.83 27.58-7.98 5.3 5.73 10.47 11.31 16.59 17.93-15.37 0-29.65 0-44.22 0v20.56c11.57 4.35 19.09-3.49 27.64-9.32 5.02 6.39 9.88 12.58 15.45 19.67-14.99 0-28.86 0-43.07 0v16.92c5.24-.23 10.46.5 14.98-.94 4.42-1.4 8.15-5.02 11.83-7.44 5.86 5.89 11.53 11.6 17.47 17.57-14.5 0-29.17 0-44.23 0v21.01c7.81-1.26 15.46-2.48 23.11-3.73 2.95-.48 5.88-1.29 8.84-1.41 1.33-.05 2.71 1.21 3.87 2.53-40.12 12.49-81.18 20.1-120.51 35.17-1.47-3.16-3.06-6.6-4.67-10.03-1.54-3.29-3.1-6.58-5.05-10.71 14.7-2.03 28.9-3.97 43.39-5.96zm-8.66-128.46h68.4c0-10.74 0-21.15 0-31.74-22.95 0-45.63 0-68.4 0zm43.55 10.72c-6.67 0-12.75 0-18.91 0v114.73c6.59-1 12.75-1.93 18.91-2.87 0-37.5 0-74.56 0-111.86z"/><path d="m150.45 170.07c-15.96 0-30.86 0-46.06 0v39.69c6.3 0 13.16 1.61 18.64-.45 5.54-2.08 9.71-7.8 14.88-12.28 6.46 7.37 12.88 14.69 19.95 22.75-18.31 0-35.68 0-53.41 0v75.86c11.78-20.84 20.01-41.73 27.75-63.58 6.63 5.66 12.89 10.99 18.37 15.67-13.33 16.52-25.94 33.31-39.9 48.89-6.24 6.97-7.54 13.73-6.07 22.43 13.19-3.47 26.36-6.79 39.42-10.48 3.26-.92 5.07-.52 6.03 2.53-34.68 14.79-69.28 29.54-104.39 44.52-4.26-7.23-8.88-15.05-13.26-22.47 18.22-3.88 36.28-7.73 54.33-11.57 0-34.56 0-68 0-101.86-12.95-1.08-25.66-.49-38.07 3.02-3.33.94-5.15.38-7.16-2.17-2.66-3.38-5.68-6.47-9.17-10.38h54.21c0-13.55 0-26.58 0-40.7-10.08.88-19.93 1.74-30.69 2.68-1.93-2.88-4.46-6.67-7.53-11.26 2.6-.14 4.32-.31 6.05-.31 18.66-.02 37.32.09 55.98-.14 2.36-.03 5.08-1.26 6.98-2.76 4.56-3.6 8.73-7.7 13.23-11.76 6.42 7.8 12.76 15.48 19.89 24.13z"/><path d="m114.43 43.75c-10.17 5.4-11.18 16.01-16.11 24.4 9.92 4.83 19.55 9.3 28.97 14.18 5.15 2.67 10.21 5.66 14.83 9.14 8.53 6.43 9.48 23.87 1.74 31.01-1.09 1-4.29 1.09-5.56.21-2.23-1.53-3.99-3.97-5.49-6.32-8.14-12.75-27.27-35.29-37.21-43.45-18.2 38.31-37.1 76.11-66.67 107.5-1.73-1.16-2.92-1.96-4.36-2.93 27.46-48.02 50.35-97.8 66.75-151.02 7.79 5.83 15.09 11.29 23.11 17.28z"/><path d="m47.92 236.64c11.4 12.92 23.12 25.64 28.24 42.75 3 10.04-.12 19.75-8.27 26.33-4.5 3.63-7.69 2.74-8.77-3.04-1.36-7.31-1.48-14.87-3.13-22.1-2.9-12.72-6.61-25.25-9.82-37.89-.47-1.84-.06-3.91-.06-5.87.6-.07 1.2-.12 1.81-.18z"/><path d="m315.79 58.16c1.94 0 3.89-.61 5.06.09 11.1 6.64 22.45 12.96 32.94 20.47 9.52 6.8 10.37 17.98 3.41 27.2-3.53 4.67-7.09 4.87-10.21-.11-3.43-5.47-5.69-11.7-9.28-17.05-6.63-9.92-13.87-19.45-21.92-30.6z"/></g></svg>