<svg enable-background="new 0 0 400 400" viewBox="0 0 400 400" xmlns="http://www.w3.org/2000/svg"><path d="m377.9 391.2c-.2.3-.4.5-.6.8-.7-.6-1.4-1-2.2-1.5.2-.3.4-.5.5-.8.6.4 1.4.8 2.3 1.5zm-1.8 6.1c-.2-.2-.5-.4-.9-.6.4-.6.8-1.2 1.2-1.9s.7-1.3.9-1.9c.3.3.5.5.8.7-.7 1.3-1.4 2.6-2 3.7zm2.2-9c-.3.3-.5.5-.6.8-.6-.6-1.3-1.1-2-1.5.3-.3.5-.5.6-.7.6.5 1.3.9 2 1.4zm.3.2v-.9h2 4.5c-.3 1.3-.6 2.5-1 3.6s-.9 2.1-1.4 3c.4.5 1 1 1.6 1.4s1.2.8 1.9 1.1c-.3.2-.5.4-.8.8-.4-.3-1-.7-1.6-1.2s-1.2-1.1-1.6-1.6c-.5.6-1.1 1.1-1.7 1.6s-1.4.9-2.1 1.4c-.1-.3-.3-.5-.7-.8.6-.2 1.2-.5 1.9-1s1.4-1.1 2-1.8c-.5-.8-.9-1.6-1.2-2.5s-.6-2-.8-3.2c-.4.1-.7.1-1 .1zm2.5 2.7c.3 1 .7 1.7 1 2.2.3-.5.6-1.1 1-2s.6-1.9.9-3h-3.2-.4c.1.9.3 1.8.7 2.8z" fill="#fafbfa"/><path d="m396.5 388.5v1.5 3.6h1.5v.9c-.4 0-1 0-1.7 0h-7.9c-.5 0-.9 0-1.2 0v-.9h1.3v-3.5c0-.7 0-1.2 0-1.6h2.4c0-.8 0-1.4 0-1.7h1c0 .3-.1.8-.1 1.7h1.5c0-.8 0-1.4 0-1.7h1c0 .3-.1.9-.1 1.7zm-8.2 9.2c-.2-.3-.5-.5-.8-.8.8-.3 1.4-.6 1.9-.9s1-.7 1.4-1.1c.3.3.6.5.9.8-1.6 1-2.8 1.6-3.4 2zm2.6-6.8v-1.6h-1.5v1.6zm0 2.7v-1.9h-1.5v1.9zm2.4-2.7v-1.6h-1.5v1.6zm0 2.7v-1.9h-1.5v1.9zm.2 2 .7-.8c.4.2.9.5 1.6.8s1.3.7 1.8 1c-.3.3-.5.5-.8.8-.4-.3-1.5-1-3.3-1.8zm2-4.7v-1.6h-1.4v1.6zm0 2.7v-1.9h-1.4v1.9z" fill="#fafbfa"/><g fill="#010000"><path d="m298.07 256.41v5.64c0 23.33-.06 46.66.07 69.99.02 3.08-.83 4.88-3.73 6.11-4.25 1.81-8.32 4.03-13.16 6.42 0-29.64 0-58.66 0-88.09-8.58 0-16.62 0-25.25 0v5.34c0 26.16-.08 52.32.09 78.48.02 3.54-1.06 5.41-4.26 6.74-4.12 1.71-8.04 3.9-12.81 6.25 0-32.58 0-64.57 0-96.89-9.19 0-17.75 0-26.95 0v5.89c0 32.33-.05 64.65.08 96.98.01 3.46-.9 5.42-4.19 6.81-5.18 2.2-10.12 4.94-15.16 7.45 0-38.62 0-76.9 0-115.09-11.49 4.75-13.37-6.3-20-12.25h20.36c0-21.5 0-42.55 0-64.38-12.12 7-13.19-5.5-18.81-11.08h18.45c0-29.22 0-57.76 0-86.06 6.57 3.19 13.4 8.05 20.94 9.75 7.75 1.74 16.19.39 24.29.39 0-22.78 0-45.14 0-67.95 7.74 3.42 15.82 7 23.77 10.52.04.64.21 1.13.07 1.25-6.04 5.09-6.13 11.87-5.95 19.02.31 12.14.08 24.29.08 36.8h24.38c0-22.28 0-44.64 0-67.48 8.43 3.96 16.93 7.97 25.31 11.91 0 .61.13 1.06-.02 1.17-7.13 5.88-8.2 13.61-7.74 22.33.57 10.59.13 21.23.13 32.4 8.64 0 16.75.1 24.86-.11 1.17-.03 2.53-1.36 3.42-2.41 3.21-3.77 6.25-7.68 9.63-11.89 6.26 5.74 12.22 11.22 18.08 16.6-.19.64-.19 1.08-.39 1.21-8.59 5.83-9.94 14.14-9.44 23.89.69 13.46.17 26.99.17 40.48v6.66c4.97-4.27 8.93-7.68 13.43-11.55 5.45 7.24 10.85 14.41 16.83 22.36-10.48 0-19.89 0-29.78 0v64.65c4.53-3.95 8.51-7.41 12.96-11.28 5.5 7.3 10.86 14.42 16.91 22.44-10.49 0-20.13 0-30.35 0v6.6c0 26.49.03 52.99-.01 79.48-.02 12.63-4.01 23.21-15.86 29.52-.88.47-1.76.95-2.69 1.29-1.22.45-2.48.76-4.11 1.25-4.02-12.96-13.95-19.43-25.89-23.43-3.59-1.2-3.63-3.2-3.06-5.28 9.16.21 18.05.87 26.88.44 5.56-.27 7.88-3.55 7.89-9.08.06-25.83.03-51.66.01-77.48 0-.81-.16-1.62-.28-2.75-9.56.02-18.97.02-29.2.02zm.14-86.3h29.01c0-22.05 0-43.62 0-65.23-9.89 0-19.4 0-29.01 0zm.12 75.54h28.89c0-21.92 0-43.5 0-65.18-9.79 0-19.21 0-28.89 0zm-59.75-75.4c0-21.93 0-43.52 0-65.41-8.87 0-17.55 0-26.23 0v65.41zm-26.13 10.18v65.17h25.96c0-21.96 0-43.52 0-65.17-8.85 0-17.29 0-25.96 0zm68.28-10.18c0-21.95 0-43.55 0-65.5-8.26 0-16.33 0-24.35 0v65.5zm-24.39 10.21v65.12h24.23c0-21.95 0-43.48 0-65.12-8.27 0-16.17 0-24.23 0z"/><path d="m145.15 151.77c6.78 9.23 13.05 17.76 19.9 27.09-28.43 0-55.96 0-83.76 0v49.78c1.38.1 2.81.28 4.24.28 18.5.02 37 .13 55.5-.13 2.42-.03 5.3-1.52 7.12-3.24 4.43-4.21 8.37-8.94 12.99-13.99 6.54 8.85 12.79 17.31 19.73 26.71-29.19 0-57.22 0-85.24 0-.18.45-.35.9-.53 1.35 6.07 3.96 12.14 7.92 18.14 11.83-.2.61-.22 1.11-.41 1.19-10.09 4.14-13.83 13.64-19.08 22.05-10.71 17.18-21.89 34.06-33.2 51.57 28.43-3.29 57.1-6.61 86.83-10.05-5.56-12.77-10.76-24.74-16.2-37.23.86-.79 2.07-1.9 3.73-3.43 13.26 15.55 27.35 30.34 34.52 49.77 3.75 10.17 2.26 20.42-4.04 29.46-1.35 1.94-4.14 2.88-6.26 4.28-1.34-2.14-3.36-4.11-3.91-6.44-2.36-9.98-4.29-20.06-6.6-31.18-34.39 9.26-68.81 16.17-101.3 31.39-3.56-8.46-7.25-17.24-11-26.16 11.85-3.85 18.7-12.72 23.42-22.93 9.74-21.08 18.7-42.52 28.13-64.16-1.77-.64-2.5-1.16-3.2-1.12-14.09.79-28.17 1.7-42.26 2.4-1.79.09-4.05-.32-5.37-1.39-3.55-2.89-6.71-6.25-11.15-10.5h34.34c0-64.52 0-128.52 0-193.06 5.95 4.36 11.57 8.7 17.44 12.66 1.92 1.29 4.49 2.23 6.78 2.25 16.16.19 32.33.2 48.5-.02 2.18-.03 4.82-1.17 6.43-2.67 4.37-4.07 8.3-8.61 12.74-13.32 6.97 8.97 13.34 17.17 20.23 26.04-30.78 0-60.69 0-90.96 0v49.97c12.47 0 24.79-.52 37.04.19 7.89.45 13.81-1.63 18.5-7.88 2.18-2.91 4.77-5.51 7.68-8.84 7.01 9 13.25 17.03 20.25 26.03-28.56 0-55.93 0-83.57 0v48.31c1.15.11 2.41.35 3.67.35 13.5.03 27 .14 40.5-.11 2.17-.04 4.79-1.22 6.37-2.74 4.49-4.37 8.57-9.18 13.32-14.36z"/></g></svg>