<svg enable-background="new 0 0 400 400" viewBox="0 0 400 400" xmlns="http://www.w3.org/2000/svg"><g fill="#fcfbfa"><path d="m12.4 4.8-6.1 9h6v1.2h-8v-.5l6.1-8.9h-5.7v-1.2h7.6v.4z"/><path d="m14 15v-10.6h3c1.6 0 2.9.5 4 1.4s1.6 2.2 1.6 3.8-.5 3-1.6 3.9-2.4 1.5-4 1.5zm1.4-9.4v8.2h1.6c1.3 0 2.4-.4 3.1-1.1s1.1-1.8 1.1-3.1-.4-2.3-1.2-3-1.8-1-3.1-1z"/><path d="m26.1 4.4v10.6h-1.4v-10.6z"/><path d="m36.1 14.6c-.8.4-1.8.6-2.9.6-1.5 0-2.7-.5-3.6-1.4s-1.4-2.2-1.4-3.8c0-1.7.5-3.1 1.5-4.1s2.3-1.6 3.9-1.6c1 0 1.8.1 2.5.4v1.4c-.8-.4-1.6-.6-2.5-.6-1.2 0-2.1.4-2.9 1.2s-1.1 1.8-1.1 3.2c0 1.3.3 2.3 1 3s1.6 1.1 2.7 1.1c1 0 2-.2 2.7-.7v1.3z"/><path d="m37.6 14.3c0-.2.1-.5.3-.6s.4-.3.6-.3c.3 0 .5.1.6.3s.3.4.3.6-.1.4-.3.6-.4.3-.6.3c-.3 0-.5-.1-.6-.3s-.3-.4-.3-.6z"/><path d="m50.2 15h-1.6l-5.3-8.2c-.2-.2-.3-.5-.4-.7 0 .2.1.7.1 1.5v7.4h-1.4v-10.6h1.7l5.2 8.1c.2.4.4.6.4.7 0-.3-.1-.8-.1-1.5v-7.3h1.4z"/><path d="m58.6 15h-5.7v-10.6h5.5v1.2h-4.1v3.4h3.8v1.2h-3.8v3.6h4.3z"/><path d="m67.1 5.6h-3.1v9.4h-1.4v-9.4h-3v-1.2h7.5z"/></g><path d="m208.76 133.67c-6.14 10.31-11.46 21.17-18.58 30.67-8.38 11.2-8.79 23.21-6.97 35.92.39 2.69 2.24 5.14 3.09 7.8.66 2.07 1.84 5.47.99 6.21-1.59 1.37-4.57 1.92-6.81 1.61-10.62-1.48-20.52-5.18-29.87-10.46-22.7-12.84-37.96-32-47.46-55.96-1.36-3.44-3.03-4.4-6.51-4.35-13.81.18-27.63.07-41.84.07v34.05c12.74-4.36 25.06-8.58 37.61-12.88.52 1.97.89 3.38 1.38 5.24-18.01 10.58-36.09 21.4-50.77 37.61-4.35-5.79-8.42-11.21-12.7-16.9 5.4-6.91 5.76-14.9 5.7-23.21-.23-32.83-.08-65.66-.25-98.49-.05-8.97-.73-17.93-1.17-27.97 6.19 3.26 11.55 6.37 17.16 8.92 2.9 1.32 6.26 2.27 9.41 2.29 30.83.16 61.66.03 92.49.18 3.45.02 5.48-.95 6.95-4.06 1.81-3.85 4.03-7.52 6.36-11.78 6.95 6.45 13.36 12.39 19.76 18.33-.47.72-.64 1.28-1.02 1.52-8.37 5.41-9.46 13.43-8.83 22.55.57 8.29.28 16.66-.02 24.98-.06 1.67-1.5 3.91-2.96 4.79-4.24 2.54-8.81 4.52-13.72 6.96-.24-2.94-.43-5.33-.64-7.97-15.98 0-31.74 0-48.55 0 2.01 8.41 3.86 16.55 6.01 24.62.23.86 2.22 1.75 3.4 1.77 11.16.13 22.33.2 33.49-.03 1.93-.04 4.05-1.23 5.7-2.41 3.89-2.8 7.55-5.92 11.65-9.19 5.53 6.9 10.79 13.46 16.69 20.81-22.97 0-45 0-67.09 0 2.48 18.65 27.86 43.74 47.69 47.1 3.33-10.73 6.7-21.57 10.17-32.75 2.13.62 3.97 1.15 5.81 1.69 10.58-18.46 36.42-102.49 40.81-133.02 9.43 5.17 18.69 10.24 27.94 15.3-.19.45-.23.88-.43.98-8.34 4.03-11.63 11.81-14.88 19.71-4.15 10.08-8.52 20.07-13.13 30.89h6.22c30.33 0 60.66-.06 90.99.08 3.78.02 6.58-.97 9.23-3.68 3.59-3.68 7.61-6.93 11.96-10.83 7.29 7.72 14.49 15.36 22.57 23.92-23.21 0-45.23 0-67.52 0v63.49c6.75 0 13.36.11 19.96-.1 1.23-.04 2.63-1.21 3.59-2.21 4.25-4.45 8.36-9.02 12.69-13.74 7.78 8.25 15.4 16.33 23.93 25.37-20.71 0-40.2 0-60.06 0v64.78c6.71 0 13.33.14 19.94-.11 1.41-.05 3.01-1.25 4.11-2.33 4.85-4.8 9.55-9.74 14.74-15.08 7.77 9.22 15.17 18 23.14 27.46-21.12 0-41.36 0-61.94 0v74.69c9.61 0 19.23.1 28.85-.12 1.37-.03 2.91-1.44 4.03-2.55 5.31-5.28 10.5-10.69 16.13-16.45 7.63 9.54 14.92 18.65 22.96 28.7-48.06 0-94.92 0-142.32 0 0 8.35-.13 16.14.07 23.92.07 2.9-.79 4.52-3.48 5.73-5.42 2.42-10.68 5.2-15.82 7.73-.03-80.09-.03-159.79-.03-239.81zm69.88 192.65c0-24.97 0-49.52 0-73.92-17.07 0-33.77 0-50.38 0v73.92zm-223.88-262.05v34.37h104.8c0-11.61 0-22.85 0-34.37-34.83 0-69.4 0-104.8 0zm173.62 113.4v63.85h50.34c0-21.48 0-42.53 0-63.85-16.84 0-33.41 0-50.34 0zm50.38-72.94c-16.96 0-33.68 0-50.51 0v62.77h50.51c0-21.06 0-41.79 0-62.77zm-223.99 30.7h43.57c-1.24-8.09-2.3-15.79-3.74-23.42-.22-1.16-2.18-2.67-3.47-2.81-3.62-.38-7.31-.14-10.96-.14-8.42 0-16.83 0-25.39 0-.01 9.21-.01 17.77-.01 26.37z" fill="#010105"/><path d="m44.21 373.56c0-52.17 0-103.67 0-155.66 5.06 2.51 10.11 5.25 15.36 7.53 2.65 1.15 5.67 2.04 8.52 2.06 24.98.16 49.97.02 74.95.17 3.55.02 5.87-.89 7.71-4.03 2.08-3.55 4.72-6.78 7.43-10.61 6.76 6.23 13.3 12.26 19.85 18.3-.41.6-.61 1.13-.98 1.39-8.52 5.7-9.67 13.86-9.06 23.41.79 12.44.26 24.97.43 37.46.27 19.47.5 38.94 1.08 58.4.14 4.64-1.06 7.4-5.6 8.96-4.17 1.43-8.11 3.55-12.81 5.67 0-6.96 0-13.2 0-19.81-29.36 0-58.25 0-87.92 0 0 4.83-.24 9.59.08 14.32.23 3.43-1.04 5.06-4.18 6.21-4.94 1.78-9.71 4.04-14.86 6.23zm19.41-136.16v45.14h86.97c0-15.16 0-30.04 0-45.14-29.1 0-57.87 0-86.97 0zm-.18 99.15h87.21c0-14.68 0-29.08 0-43.68-29.16 0-58.18 0-87.21 0z" fill="#010105"/><path d="m309.14 65.09c-.49 7.11-3.61 13.04-8.57 17.98-2.58 2.56-5.12 1.97-6.83-1.25-.77-1.45-1.52-2.98-1.88-4.57-3.66-15.97-11.37-30.02-20.33-43.51-.8-1.21-.64-3.05-.92-4.6 1.57.32 3.5.15 4.65 1.03 9.38 7.12 18.75 14.26 27.82 21.77 3.9 3.23 6.21 7.73 6.06 13.15z" fill="#010105"/></svg>