<svg enable-background="new 0 0 400 400" viewBox="0 0 400 400" xmlns="http://www.w3.org/2000/svg"><g fill="#fcfbfa"><path d="m12.4 4.8-6.1 9h6v1.2h-8v-.5l6.1-8.9h-5.7v-1.2h7.6v.4z"/><path d="m14 15v-10.6h3c1.6 0 2.9.5 4 1.4s1.6 2.2 1.6 3.8-.5 3-1.6 3.9-2.4 1.5-4 1.5zm1.4-9.4v8.2h1.6c1.3 0 2.4-.4 3.1-1.1s1.1-1.8 1.1-3.1-.4-2.3-1.2-3-1.8-1-3.1-1z"/><path d="m26.1 4.4v10.6h-1.4v-10.6z"/><path d="m36.1 14.6c-.8.4-1.8.6-2.9.6-1.5 0-2.7-.5-3.6-1.4s-1.4-2.2-1.4-3.8c0-1.7.5-3.1 1.5-4.1s2.3-1.6 3.9-1.6c1 0 1.8.1 2.5.4v1.4c-.8-.4-1.6-.6-2.5-.6-1.2 0-2.1.4-2.9 1.2s-1.1 1.8-1.1 3.2c0 1.3.3 2.3 1 3s1.6 1.1 2.7 1.1c1 0 2-.2 2.7-.7v1.3z"/><path d="m37.6 14.3c0-.2.1-.5.3-.6s.4-.3.6-.3c.3 0 .5.1.6.3s.3.4.3.6-.1.4-.3.6-.4.3-.6.3c-.3 0-.5-.1-.6-.3s-.3-.4-.3-.6z"/><path d="m50.2 15h-1.6l-5.3-8.2c-.2-.2-.3-.5-.4-.7 0 .2.1.7.1 1.5v7.4h-1.4v-10.6h1.7l5.2 8.1c.2.4.4.6.4.7 0-.3-.1-.8-.1-1.5v-7.3h1.4z"/><path d="m58.6 15h-5.7v-10.6h5.5v1.2h-4.1v3.4h3.8v1.2h-3.8v3.6h4.3z"/><path d="m67.1 5.6h-3.1v9.4h-1.4v-9.4h-3v-1.2h7.5z"/></g><path d="m304.35 327.93c10.64 0 20.95.09 31.25-.1 1.4-.03 3.02-1.18 4.11-2.25 4.51-4.42 8.85-9 13.53-13.82 6.84 8.78 13.25 17.02 20.3 26.07-47.5 0-94.14 0-141.37 0 0 8.24-.21 15.86.1 23.46.14 3.41-1.1 5.04-4.04 6.35-4.98 2.2-9.79 4.78-15.02 7.38 0-81.1 0-161.8 0-243.37-1.38 1.94-2.32 3.22-3.22 4.54-5.26 7.7-10.72 15.27-15.63 23.19-1.49 2.41-2.36 5.93-1.91 8.67 1.24 7.53-1.74 13.26-6.32 18.58-2.25 2.62-4.97 2.52-6.62-.32-2.24-3.83-4.17-7.93-5.59-12.13-5.2-15.41-9.11-31.34-15.4-46.28-11.78-28.01-24.85-55.48-37.48-83.13-1.38-3.03-2.15-5.3 2.66-6.1 7.48 11.64 15.02 23.37 23.39 36.38 9.42-10.81 18.49-21.23 27.73-31.84 4.67 5.96 9.55 12.19 14.13 18.04-13.16 6.27-26.09 12.43-39.8 18.97 5.4 9.82 10.63 19.32 16.18 29.41 8.58-10.02 16.65-19.45 24.99-29.19 4.82 6.75 9.32 13.06 13.84 19.38-11.75 5.69-23.16 11.22-34.67 16.8 6.4 12.74 12.19 24.25 18.37 36.55 22.84-39.01 34.16-81.37 43.66-125.07 9.18 5.03 18.38 10.08 27.68 15.18-.47.61-.68 1.19-1.07 1.34-8.65 3.31-11.83 10.72-14.71 18.7-3.75 10.4-8.14 20.58-12.51 31.51h6.07c30.16 0 60.32-.08 90.48.09 4.17.02 7.25-1.02 10.13-4.04 3.43-3.59 7.35-6.72 11.55-10.48 7.31 7.74 14.52 15.37 22.59 23.9-23.14 0-45.16 0-67.45 0v64.66c6.82 0 13.74.12 20.65-.12 1.18-.04 2.46-1.49 3.44-2.52 3.98-4.21 7.86-8.51 12.05-13.08 8.04 8.54 15.74 16.7 24.12 25.6-20.63 0-40.2 0-60.16 0v64.72c7.02 0 14.14.14 21.25-.12 1.37-.05 2.89-1.44 3.97-2.57 4.02-4.21 7.88-8.56 12.21-13.32 7.83 8.27 15.52 16.41 24.06 25.43-21.16 0-41.17 0-61.52 0zm-19.57-74.43c-17.62 0-34.85 0-52.27 0v74.14h52.27c0-24.75 0-49.2 0-74.14zm.02-148.69c-17.57 0-34.94 0-52.36 0v63.83h52.36c0-21.44 0-42.53 0-63.83zm-52.37 138.38h52.17c0-21.6 0-42.81 0-63.83-17.62 0-34.85 0-52.17 0z" fill="#010105"/><path d="m127.16 235.99c12.44 0 25.26.07 38.07-.11 1.34-.02 2.95-1.27 3.93-2.39 3.61-4.11 7-8.41 10.96-13.23 7.05 8.46 13.88 16.67 21.37 25.65-26.12 0-51.32 0-76.87 0-1.47 7.58-3.04 14.68-4.04 21.86-.17 1.19 1.96 3.08 3.43 4.06 14.94 9.98 30.21 19.49 44.88 29.84 11.39 8.03 20.99 18.01 26.44 31.24 2.94 7.13 3.78 14.39.95 21.86-2.53 6.69-5.47 7.41-10.17 1.88-2.68-3.15-5.2-6.59-7.05-10.26-12.48-24.71-31.37-44.07-51.6-62.34-2.68-2.42-5.39-4.8-8.7-7.74-15.13 45.51-43.61 77.92-87.89 95.6-2.28-3.1-2.09-2.87 1.22-5.68 11.01-9.36 22.78-18.04 32.6-28.54 23.41-25.01 36.17-55.36 41.1-89.11.09-.63-.06-1.29-.12-2.38-14.85-.14-29.65-1.16-44.1 3-2.96.86-4.84.48-6.93-1.81-3.31-3.64-7.01-6.91-11.49-11.25h64.55c.52-18.07 1.02-35.76 1.54-53.59-7.98-1.42-15.2-.56-22.05 2.01-4.66 1.75-7.68.77-10.7-2.93-2.58-3.16-5.78-5.82-9.72-9.69h6.65c20.33 0 40.67-.09 61 .09 3.66.03 6.27-.87 8.55-3.77 2.87-3.64 6.14-6.96 9.46-10.67 6.16 8.09 12.06 15.83 18.49 24.28-14.85 0-28.77 0-43.76 0z" fill="#010105"/><path d="m93.38 58.09c-11.97.36-23.06-1.69-33.58 2.54-4.84 1.95-7.97.75-11.14-3.02-2.55-3.04-5.77-5.51-9.74-9.22 2.75-.2 4.08-.38 5.41-.38 14.5-.02 29-.22 43.49.09 5.46.12 10.11-.67 13.82-4.96 1.07-1.24 2.53-2.14 4.18-3.5 5.56 6.92 11.06 13.77 16.58 20.63-.42.58-.64 1.25-.97 1.31-7.67 1.37-9.53 7.16-11.38 13.68-8.37 29.5-18.7 58.21-36.68 83.49-11.69 16.44-26.23 30-43.41 41.96-.37-.7-.67-1.31-1.01-1.89-.4-.7-.82-1.39-1.18-2 35.81-39.5 55.55-86.28 65.61-138.73z" fill="#010105"/><path d="m274.41 29.44c2.65 0 4.72-.66 5.73.1 9.83 7.36 19.82 14.57 29.1 22.59 11.32 9.77 4.82 24.03-1.79 30.98-2.36 2.48-4.79 1.82-6.61-.92-.73-1.1-1.45-2.3-1.78-3.56-4.64-17.59-13.42-33.15-24.65-49.19z" fill="#010105"/><path d="m35.35 77.34c2.53 0 4.37-.58 5.25.09 8.72 6.64 17.75 12.97 25.75 20.4 8.42 7.83 7.53 19.6-.91 26.71-3.93 3.3-7.43 2.77-8.69-2.23-4.03-15.86-11.69-29.92-21.4-44.97z" fill="#010105"/></svg>