<svg enable-background="new 0 0 400 400" viewBox="0 0 400 400" xmlns="http://www.w3.org/2000/svg"><g fill="#fcfbfa"><path d="m12.4 4.8-6.1 9h6v1.2h-8v-.5l6.1-8.9h-5.7v-1.2h7.6v.4z"/><path d="m14 15v-10.6h3c1.6 0 2.9.5 4 1.4s1.6 2.2 1.6 3.8-.5 3-1.6 3.9-2.4 1.5-4 1.5zm1.4-9.4v8.2h1.6c1.3 0 2.4-.4 3.1-1.1s1.1-1.8 1.1-3.1-.4-2.3-1.2-3-1.8-1-3.1-1z"/><path d="m26.1 4.4v10.6h-1.4v-10.6z"/><path d="m36.1 14.6c-.8.4-1.8.6-2.9.6-1.5 0-2.7-.5-3.6-1.4s-1.4-2.2-1.4-3.8c0-1.7.5-3.1 1.5-4.1s2.3-1.6 3.9-1.6c1 0 1.8.1 2.5.4v1.4c-.8-.4-1.6-.6-2.5-.6-1.2 0-2.1.4-2.9 1.2s-1.1 1.8-1.1 3.2c0 1.3.3 2.3 1 3s1.6 1.1 2.7 1.1c1 0 2-.2 2.7-.7v1.3z"/><path d="m37.6 14.3c0-.2.1-.5.3-.6s.4-.3.6-.3c.3 0 .5.1.6.3s.3.4.3.6-.1.4-.3.6-.4.3-.6.3c-.3 0-.5-.1-.6-.3s-.3-.4-.3-.6z"/><path d="m50.2 15h-1.6l-5.3-8.2c-.2-.2-.3-.5-.4-.7 0 .2.1.7.1 1.5v7.4h-1.4v-10.6h1.7l5.2 8.1c.2.4.4.6.4.7 0-.3-.1-.8-.1-1.5v-7.3h1.4z"/><path d="m58.6 15h-5.7v-10.6h5.5v1.2h-4.1v3.4h3.8v1.2h-3.8v3.6h4.3z"/><path d="m67.1 5.6h-3.1v9.4h-1.4v-9.4h-3v-1.2h7.5z"/></g><path d="m239.41 336.03c0 8.53-.23 16.49.1 24.43.16 3.91-1.05 6.06-4.63 7.64-4.51 1.99-8.75 4.6-13.08 6.93 0-80 0-159.62 0-238.9-8.04 12.99-16.28 26.3-24.3 39.25-5.91-.73-5.07-3.42-3.61-6.47 1.27-2.66 2.39-5.39 3.77-8.55-15.47 0-30.36 0-46.41 0 6.36 4.45 12.08 8.22 17.55 12.33 9.16 6.9 18.43 13.69 27.14 21.14 7.65 6.54 9.13 15.29 5.59 24.55-.97 2.53-3.59 4.43-5.45 6.61-2.07-1.77-4.77-3.15-6.1-5.36-10.62-17.6-23.36-33.52-36.91-48.95-6.9-7.86-14.01-12.01-24.75-10.81-8.72.98-17.64.11-26.47.29-1.55.03-3.75.75-4.53 1.91-8.73 12.92-17.24 26-25.99 39.3 4.87 5.25 10.14 9.21 18.79 8.81 16.96-.8 33.99-.38 50.98-.13 4.11.06 6.9-1.01 9.11-4.47 1.86-2.9 4.2-5.49 6.62-8.59 6.25 5.26 12.2 10.27 18.12 15.25-.23.48-.28.9-.5 1.02-7 3.78-7.86 9.89-7.6 17.2.5 14.15.14 28.33.15 42.49 0 2.5 0 5.01.2 7.49.73 9.29.77 9.3-7.71 12.99-3.62 1.57-7.27 3.08-11.26 4.77-.17-3.1-.31-5.68-.46-8.47-21.83 0-43.42 0-65.3 0v57.06c11.65-5.75 22.97-11.35 34.44-17.02 1.72 2.95 1.87 4.93-.78 7.19-14.43 12.26-28.71 24.7-43.29 37.3-3.51-4.55-7.74-9.83-11.67-15.32-.71-1-.51-2.94-.2-4.32 1.21-5.28 3.77-10.51 3.81-15.77.33-42.49.2-84.99.2-127.48 0-.76-.12-1.51-.17-2.05-11.93 8.91-23.72 17.71-35.71 26.67-1.26-1.82-2-2.88-2.98-4.3 21.88-20.46 38.54-44.74 53.66-71.46-11.45.04-22.15-1.47-32.44 2.66-4.12 1.66-7.03.81-9.9-2.62-2.76-3.3-6.19-6.03-10.21-9.85 2.54-.19 3.9-.37 5.25-.37 15.16-.02 30.33-.16 45.49.09 3.81.06 5.7-1.21 6.95-4.63 2.54-7.01 5.35-13.92 8.7-22.57-6.94.69-13.13.16-18.4 2.11-8.49 3.13-14.82 2.25-20.03-5.4-1.17-1.72-3.25-2.83-4.91-4.22.18-.41.36-.82.54-1.23h44.69c2.06-9.24 3.99-17.91 6.01-26.97-15.72-.21-31.03-.96-45.98 3.21-2.84.79-4.58.41-6.56-1.65-3.52-3.67-7.32-7.08-12.03-11.59h91.67c-1.4-1.89-2.31-3.13-2.82-3.82 8-14.93 15.82-29.51 23.83-44.45 5.54 3.68 12.21 8.11 18.47 12.28-11.59 11.52-23.06 22.91-34.52 34.3.23.49.47.98.7 1.47 9.36 0 18.74.27 28.08-.22 1.94-.1 3.81-2.96 5.57-4.69 2.48-2.44 4.84-5.01 7.58-7.87 7.16 7.63 13.92 14.83 21.51 22.93-2.84 0-4.44 0-6.03 0-21.5 0-43 .12-64.49-.11-3.99-.04-5.5 1.41-6.37 4.96-1.72 7.04-3.76 14.01-5.92 21.91 7.85 0 15-.61 22 .15 9.56 1.04 17.19-1.54 23.23-9.03 1.21-1.5 2.93-2.59 4.7-4.11 6.86 7.33 13.5 14.43 21.12 22.57-3.07 0-4.81 0-6.54 0-20.83 0-41.66.1-62.49-.09-3.65-.03-5.15 1.17-6.27 4.55-2.4 7.23-5.33 14.27-8.22 21.86 1.71.1 3.27.26 4.82.26 19.83.02 39.66-.09 59.49.1 3.97.04 7.01-.76 9.58-3.92 2.51-3.09 5.42-5.86 8.53-9.16 5.55 5.95 10.7 11.47 16.37 17.54 17.54-40.35 28.72-82 38.1-125.05 9.41 4.68 18.57 9.23 27.67 13.76-.06.53.02 1-.15 1.14-8.75 6.93-12.38 16.98-16.55 26.75-3.45 8.07-7.25 16-11.15 24.55 1.66.13 2.88.31 4.09.31 28.5.02 56.99.08 85.49-.12 2.31-.02 5.07-1.33 6.82-2.92 4.3-3.91 8.12-8.34 12.47-12.9 7.78 8.72 15.07 16.89 23.05 25.83-21.09 0-41.41 0-62 0v63.1c5.45 0 10.89.14 16.3-.11 1.22-.06 2.56-1.34 3.53-2.35 4-4.21 7.88-8.53 12.19-13.24 7.52 8.43 14.77 16.55 22.75 25.49-18.77 0-36.6 0-54.74 0v63.11c6.02 0 12.12.14 18.19-.12 1.2-.05 2.47-1.49 3.49-2.52 4.31-4.36 8.53-8.81 13.02-13.47 7.35 8.86 14.13 17.03 21.59 26.02-19.3 0-37.64 0-56.29 0v74.65c8.47 0 17.04.11 25.59-.12 1.19-.03 2.45-1.58 3.47-2.63 4.63-4.76 9.19-9.59 14.27-14.9 7.79 9.25 15.01 17.81 22.96 27.24-45.56-.08-90.07-.08-135.28-.08zm.27-9.77h49.59c0-24.85 0-49.38 0-73.92-16.69 0-33.06 0-49.59 0zm49.57-219.99c-16.62 0-32.89 0-49.5 0v62.54h49.5c0-20.9 0-41.63 0-62.54zm-49.5 135.46h49.5c0-20.93 0-41.66 0-62.35-16.7 0-33.08 0-49.5 0zm-157.31 3.92h65.16c0-8.73 0-17.11 0-25.29-21.95 0-43.5 0-65.16 0zm65.35 10.73c-21.97 0-43.54 0-65.26 0v23.13h65.26c0-7.77 0-15.23 0-23.13z" fill="#010105"/><path d="m193.84 296.56c-12.25 9.48-23.94 18.53-35.9 27.79 6.71 5.03 13.1 9.49 19.11 14.42 5.52 4.53 11.63 9.27 12.08 16.99.28 4.84-1.15 10.02-2.88 14.66-1.39 3.73-5.24 3.49-7.98 1.28-3.21-2.58-6.43-5.47-8.69-8.86-15.25-22.84-35.68-40.21-57.97-55.67-.55-.38-1.29-.66-1.58-1.19-.7-1.25-1.2-2.63-1.77-3.95 1.3-.12 2.77-.7 3.86-.28 5.57 2.15 11.12 4.38 16.53 6.9 7.98 3.72 15.83 7.71 23.99 11.7 10.31-12.43 18.55-26.15 24.71-41.66 5.69 6.17 11.07 12 16.49 17.87z" fill="#010105"/><path d="m275.74 29.24c2.72 0 4.69-.62 5.63.1 9.2 7.07 18.79 13.77 27.15 21.75 9.23 8.82 8.95 20.7.79 30.48-3.82 4.58-6.47 4.27-9.26-1.09-.38-.73-.82-1.47-1.02-2.26-4.26-17.3-12.27-32.86-23.29-48.98z" fill="#010105"/><path d="m105.14 57.95c-.69 5.64-3.29 10.55-7.95 14.17-2.92 2.27-5.69 1.57-7.5-1.67-1.04-1.87-2.02-3.86-2.53-5.93-2.62-10.5-7.74-19.72-13.87-28.52-.85-1.22-.41-3.35-.56-5.06 1.56.08 3.45-.38 4.62.33 6.78 4.16 13.6 8.32 20 13.03 4.32 3.2 7.35 7.65 7.79 13.65z" fill="#010105"/><path d="m104.24 162.98c7.36 5.84 15.21 11.18 21.94 17.67 6.84 6.6 6.18 16.3-.31 23.24-3.37 3.6-6.29 3.47-8.73-.74-1.39-2.4-2.11-5.19-3.27-7.74-3.84-8.42-7.49-16.95-11.79-25.13-1.5-2.86-1.46-4.43 2.16-7.3z" fill="#010105"/></svg>