<svg enable-background="new 0 0 400 400" viewBox="0 0 400 400" xmlns="http://www.w3.org/2000/svg"><g fill="#fcfbfa"><path d="m12.4 4.8-6.1 9h6v1.2h-8v-.5l6.1-8.9h-5.7v-1.2h7.6v.4z"/><path d="m14 15v-10.6h3c1.6 0 2.9.5 4 1.4s1.6 2.2 1.6 3.8-.5 3-1.6 3.9-2.4 1.5-4 1.5zm1.4-9.4v8.2h1.6c1.3 0 2.4-.4 3.1-1.1s1.1-1.8 1.1-3.1-.4-2.3-1.2-3-1.8-1-3.1-1z"/><path d="m26.1 4.4v10.6h-1.4v-10.6z"/><path d="m36.1 14.6c-.8.4-1.8.6-2.9.6-1.5 0-2.7-.5-3.6-1.4s-1.4-2.2-1.4-3.8c0-1.7.5-3.1 1.5-4.1s2.3-1.6 3.9-1.6c1 0 1.8.1 2.5.4v1.4c-.8-.4-1.6-.6-2.5-.6-1.2 0-2.1.4-2.9 1.2s-1.1 1.8-1.1 3.2c0 1.3.3 2.3 1 3s1.6 1.1 2.7 1.1c1 0 2-.2 2.7-.7v1.3z"/><path d="m37.6 14.3c0-.2.1-.5.3-.6s.4-.3.6-.3c.3 0 .5.1.6.3s.3.4.3.6-.1.4-.3.6-.4.3-.6.3c-.3 0-.5-.1-.6-.3s-.3-.4-.3-.6z"/><path d="m50.2 15h-1.6l-5.3-8.2c-.2-.2-.3-.5-.4-.7 0 .2.1.7.1 1.5v7.4h-1.4v-10.6h1.7l5.2 8.1c.2.4.4.6.4.7 0-.3-.1-.8-.1-1.5v-7.3h1.4z"/><path d="m58.6 15h-5.7v-10.6h5.5v1.2h-4.1v3.4h3.8v1.2h-3.8v3.6h4.3z"/><path d="m67.1 5.6h-3.1v9.4h-1.4v-9.4h-3v-1.2h7.5z"/></g><path d="m109.64 202.93c0-8.21 0-15.78 0-23.64-14.42 0-28.68 0-42.56 0-3.81 8.51-13 5.39-18.86 10.15 0-22.11 0-43.11 0-64.77 4.85 2.15 9.61 4.29 14.39 6.37 1.51.66 3.07 1.66 4.62 1.68 13.97.13 27.94.08 42.3.08 0-7.89 0-15.45 0-23.71-5.7 0-11.48-.24-17.22.17-1.47.11-2.61 2.78-4.23 3.38-6.14 2.27-12.42 4.18-18.25 6.09 0-14.31 0-28.39 0-43.93-6.44.81-13.37.68-19.58 2.74-6.84 2.26-11.55 1.48-15.81-4.3-1.73-2.35-4.4-4-6.64-5.97.19-.41.38-.82.56-1.23h41.5c0-12.36 0-24.08 0-36.34 9.8 3.99 19.84 8.07 31.29 12.73-12.68 4.46-11.59 13.63-10.24 23.09h53.87c0-11.89 0-23.5 0-36.16 10.2 4.34 19.68 8.38 30.64 13.05-11.16 4.7-14.31 12.41-11.22 23.23 9.14 1.37 12.55-8.34 18.91-10.59 6.88 6.77 13.56 13.35 20.61 20.29-13.28 0-26.48 0-39.64 0v32.55c-5.55 2.78-11.9 5.95-18.83 9.42-.21-2.89-.39-5.25-.59-7.93-5.68 0-11.26 0-17.24 0v23.43h14.73c7.66 0 15.34-.19 22.99.09 3.29.12 5.23-.98 6.82-3.72 1.82-3.14 4-6.08 6.25-9.45 5.24 4.26 10.23 8.32 15.13 12.31-.03.52.08.93-.08 1.1-10.41 11.23-5.64 24.82-5.52 37.56.04 3.84-.15 6.12-3.93 7.77-4.52 1.98-8.76 4.6-13.59 7.2-.28-2.45-.49-4.32-.73-6.42-14.06 0-27.98 0-42.17 0v23.51c10.95 0 21.73.23 32.49-.19 2.31-.09 4.56-2.5 6.78-3.93 3.75-2.41 7.45-4.89 11.53-7.57 5.49 6.83 10.77 13.41 16.78 20.89-23.03 0-45.14 0-67.55 0v26.97c13.81 0 27.42.05 41.03-.09 1.31-.01 2.72-1.07 3.89-1.91 4.71-3.41 9.33-6.93 14.58-10.85 6 7.35 11.93 14.62 18.45 22.61-17.18 0-33.66 0-49.93 0-3.59 10.33 1.25 18.42 11.23 19.08 11.15.73 22.25.57 33.12-2.86 2.02-.64 5.03-.1 6.86 1.04 3.46 2.16 6.41 5.15 10.6 8.66-3.25 1.48-5.42 3.02-7.79 3.46-16.93 3.14-34 4.76-50.97.83-4.99-1.16-10.25-3.58-13.98-6.98-2.96-2.69-4.28-7.61-5.35-11.78-.84-3.26-.17-6.91-.17-11.07-10.54 0-20.8-.03-31.05.08-.66.01-1.63 1.04-1.92 1.8-6.37 16.73-19.93 26.06-35.35 32.47-11.86 4.93-24.6 7.8-37.01 11.34-1.29.37-3.05-.89-4.59-1.4 1.09-1.13 1.98-2.78 3.31-3.31 13.17-5.31 26-11.36 36.78-20.71 6.43-5.58 11.87-12.3 17.27-19.22-12.09-1.46-23.64-1.65-34.83 1.59-4.67 1.35-7.65.66-10.67-3.02-2.59-3.16-5.84-5.78-9.72-9.53h78.37c0-9.02 0-17.59 0-26.95-8.3 0-16.76-.48-25.14.13-9.57.7-19.05 2.42-28.6 3.55-1.46.17-3.45 0-4.46-.87-3.98-3.46-7.67-7.26-10.98-12.06 23.03-.03 46.03-.03 69.31-.03zm-18.82-127.17v22.95h53.89c0-7.73 0-15.16 0-22.95-17.9 0-35.65 0-53.89 0zm18.89 93.1c0-8.94 0-17.37 0-26.1-14.62 0-29.01 0-43.32 0v26.1zm59.88-26.01c-14.22 0-28.23 0-42.23 0v25.85h42.23c0-8.72 0-17.15 0-25.85z" fill="#010105"/><path d="m344.29 224.63c6.65 9.04 13.03 17.71 19.91 27.05-19.06 0-37.54 0-56.4 0v74.86c8.93 0 17.71.12 26.47-.12 1.37-.04 2.88-1.48 4.01-2.59 5.33-5.26 10.55-10.63 16.1-16.25 6.64 9.48 13 18.56 19.9 28.42-44.33 0-87.96 0-132.22 0 0 8.76-.15 16.87.07 24.97.09 3.25-.73 5.13-3.9 6.48-5.32 2.27-10.4 5.09-15.44 7.62 0-80.02 0-159.69 0-239.01-8.92 11.56-18.14 23.51-27.36 35.46-.71-.15-1.41-.31-2.12-.46-.09-1.44-.79-3.25-.17-4.25 19.88-32.39 28.26-68.9 37.7-105.01 2.85-10.89 4.94-21.98 7.52-33.63 8.86 5.58 17.49 11.01 26.22 16.5-14.39 13.24-16.6 32.25-24.64 48.31-.19.39-.02.95-.02 1.86h4.97c27.66 0 55.32-.04 82.98.06 3.21.01 5.63-.71 7.87-3.16 4.37-4.79 9.06-9.28 14.16-14.45 6.6 8.95 12.93 17.54 20.01 27.13-21.46 0-41.66 0-62.18 0v63.47c6.77-1.23 13.78 2.62 19.76-2.26 5.15-4.2 9.89-8.91 15.29-13.83 6.41 8.22 12.77 16.38 19.99 25.63-9.96 0-18.82 0-27.68 0-8.97 0-17.93 0-27.29 0v64.5c6.55 0 12.85.15 19.13-.12 1.36-.06 2.87-1.46 3.94-2.59 4.47-4.71 8.78-9.53 13.42-14.59zm-55.54 27.78c-15.73 0-31.1 0-46.36 0v73.9h46.36c0-24.71 0-49.14 0-73.9zm.05-10.63c0-21.58 0-42.67 0-64.03-15.59 0-30.97 0-46.32 0v64.03zm-46.31-137.08v62.78h46.21c0-21.09 0-41.84 0-62.78-15.56 0-30.81 0-46.21 0z" fill="#010105"/><path d="m46.37 369.77c-3.41-5.65-7.49-12.42-11.85-19.65 25.52-3 50.33-5.92 75.21-8.84 0-11.3 0-21.74 0-32.77-7.63 0-15.11-.48-22.51.13-8.4.69-16.72 2.4-25.09 3.53-1.08.15-2.58-.16-3.34-.85-4.04-3.66-7.9-7.5-11.34-12.43h61.94c0-12.74 0-24.81 0-37.54 8.37 2.6 16.82 5.23 26.56 8.26-11.27 7.49-9.11 18.23-8.59 29.18 8.89 0 17.51.09 26.12-.11 1.21-.03 2.57-1.31 3.54-2.32 3.56-3.72 6.97-7.58 10.96-11.96 7.22 7.63 14.35 15.15 22.49 23.74-21.77 0-42.36 0-63.16 0v31.37c23.18-2.87 46.15-5.72 69.43-8.6.51 1.65.97 3.14 1.47 4.73-50.63 11.4-100.87 22.68-151.84 34.13z" fill="#010105"/><path d="m282.83 27.53c9.63 7.81 19.73 15.11 28.76 23.56 9.42 8.82 7.75 26.3-2.26 34.6-2.22 1.84-3.97 1.62-5.3-.69-1.06-1.84-1.97-3.87-2.44-5.93-3.62-16.13-11.14-30.43-20.45-43.87-1.86-2.69-2.13-4.67 1.69-7.67z" fill="#010105"/></svg>