<svg enable-background="new 0 0 400 400" viewBox="0 0 400 400" xmlns="http://www.w3.org/2000/svg"><path d="m361.2 9.6.8-1c.9.7 1.9 1.4 2.9 2.3l-.9 1.1c-1-1-2-1.8-2.8-2.4zm.5 10.6c.9-2.1 1.6-4.3 2.3-6.7.4.2.8.4 1.3.6-.7 2.1-1.5 4.3-2.2 6.6zm.4-15.2.9-.9c1 .8 2 1.6 2.8 2.4l-1 1c-.9-.9-1.8-1.7-2.7-2.5zm12.5-1.2h1.2v1.4h2.7v1.1h-2.7v2.7h-1.2v-.6h-1.8v1.3h4.9v3.8h-1.2v-.5h-3.7c0 .4-.1.9-.1 1.2h5.1v1h-5.2c0 .5-.1.9-.2 1.2h6v1h-5.2c1.1 1.3 2.9 2 5.5 2.2-.4.4-.7.8-.9 1.3-2.9-.5-4.8-1.6-5.7-3.5h-.1c-.8 1.7-2.7 2.9-5.9 3.6-.2-.4-.6-.8-.9-1.1 2.8-.6 4.6-1.4 5.4-2.5h-4.8v-1h5.3c.1-.3.2-.7.2-1.2h-4.9v-1h5c0-.4 0-.8.1-1.2h-3.5v.5h-1.2v-3.8h4.9v-1.3h-1.8v.5h-1.2v-2.7h-2.7v-1h2.6v-1.4h1.2v1.4h4.7v-1.4zm-6.6 8.3h3.6c0-.4 0-.9 0-1.4h-3.6zm1.9-4.6h4.7v-1.3h-4.7zm6.6 3.2h-3.7v1.4h3.7z" fill="#fafbfa"/><path d="m385.3 3.8h1.3v2.2h2.8v-2.2h1.3v2.2h4.1v9.1h1.7v1.3h-16.9v-1.3h1.7v-9.1h4.1v-2.2zm.4 13.1.7 1.2c-1.8.9-3.8 1.9-6 2.9-.2-.4-.5-.8-.8-1.3 2.3-1 4.3-1.9 6.1-2.8zm-3.1-6.4h2.8v-3.2h-2.8zm0 4.6h2.8v-3.3h-2.8zm4-4.6h2.8v-3.2h-2.8zm0 4.6h2.8v-3.3h-2.8zm3.7 1.9c2.1.9 4.1 1.8 6.1 2.7l-.7 1.3c-2.2-1.1-4.2-2-6.1-2.9zm3.2-9.7h-2.8v3.2h2.8zm-2.8 7.8h2.8v-3.3h-2.8z" fill="#fafbfa"/><g fill="#010000"><path d="m224.26 373.92c-6.17-5.2-12.13-10.23-18.15-15.31.22-.5.29-1.07.61-1.33 7.24-5.99 8.24-13.78 8.05-22.74-.52-23.99-.18-48-.18-71.99 0-1.97 0-3.95 0-5.81-5.76-2.12-9.76 1.1-13.9 3.3-2.77 1.47-4.64 1.49-6.77-1.16-3.33-4.14-7.09-7.94-11.31-12.58h50.05c0-47.47 0-94.36 0-142.71-5.23 1.48-10.25 2.33-14.77 4.33-5.81 2.58-10.12 1.88-14.24-3.08-2.78-3.35-6.38-6.04-10.51-9.85h39.32c0-22.28 0-44.15 0-66.69 8.82 4.64 17.54 9.22 27 14.2-8.06 6.32-7.77 14.62-7.53 23.06.27 9.48.06 18.98.06 28.87h57.8c0-21.97 0-43.86 0-66.14 9.29 4.41 18.93 8.99 28.7 13.63-.21.71-.19 1.3-.47 1.52-7.15 5.68-8.26 13.25-7.75 21.84.57 9.6.13 19.26.13 29.32 10.43 1.32 12.53-9.15 19.13-12.18 6.98 7 14.02 14.07 21.56 21.63-13.45 0-26.61 0-40.22 0v141.59c5.2.95 9.77.89 13.34-4.32 2.61-3.8 6.22-6.91 9.81-10.8 7.32 8.21 14.57 16.34 22.59 25.33-47.89 0-94.85 0-142.13 0v96.71c1.85.1 3.47.25 5.08.25 27 .02 54 .09 81-.12 2.51-.02 5.4-1.32 7.43-2.9 4.43-3.44 8.41-7.44 12.94-11.53 7.41 7.87 14.52 15.43 22.72 24.14-3.37 0-5.26 0-7.16 0-38.17 0-76.33.09-114.5-.1-5.22-.03-9.36.74-12.28 5.51-1.33 2.21-3.46 3.94-5.45 6.11zm27.88-128.29h58.08c0-14.6 0-28.83 0-43.07-19.57 0-38.77 0-58.08 0zm58.05-53.32c0-13.33 0-26.18 0-38.93-19.6 0-38.8 0-57.94 0v38.93zm.16-87.54c-19.64 0-38.85 0-58.09 0v37.81h58.09c0-12.64 0-24.93 0-37.81z"/><path d="m104.76 95.78c0-12.72 0-24.85 0-37.71-12.01.52-24.04-1.9-35.53 2.52-5.06 1.95-8.27.78-11.54-3.12-2.54-3.03-5.77-5.49-8.7-8.2.15-.42.31-.85.46-1.27h5.12c28 0 56-.11 84 .1 5.15.04 9.35-.87 12.88-4.81 2.09-2.33 4.66-4.24 6.54-5.91 6.97 6.9 13.77 13.63 20.84 20.63-18.72 0-37.43 0-56.44 0v37.99h11.76 7c7.17 0 14.9 1.69 21.34-.48 6.24-2.1 11.16-8.17 17.19-12.92 5.69 7.83 11.68 16.09 18.08 24.91-11.2 2.86-20.55 8.11-28.25 16.21-1.79 1.88-4.1 3.27-6.17 4.88.53-2.65.78-5.39 1.64-7.92 1.61-4.68 3.57-9.23 5.57-14.3-16.29 0-32.01 0-48.48 0 0 1.76-.02 3.51 0 5.27.36 23.98.67 47.96 1.19 71.93.07 3.11-.57 4.82-3.66 5.94-5.12 1.85-10.07 4.19-15.22 6.39 0-29.9 0-59.44 0-89.41-15.05 0-30.43 0-45.39 0-1.9 4.89-3.21 9.95-5.72 14.32-4.59 7.99-13.07 10.4-19.37 6.22-4.72-3.13-5.46-6.94-2.02-11.34 1.22-1.55 2.67-3.03 4.28-4.15 10.34-7.17 14.51-17.38 14.83-29.55.02-.82.1-1.63.15-2.52 4.46-1.7 6.07-.23 6.02 4.36-.04 3.92.64 7.86 1.01 11.95 15.67-.01 30.93-.01 46.59-.01z"/><path d="m156.79 335.18c-7.19-15.04-13.96-29.09-20.56-43.21-.75-1.6-.55-3.64.06-5.72 15.42 14.33 30.92 28.09 40.61 46.72 5.72 11 3.76 21.85-4.74 30.16-3.77 3.69-5.72 3.33-7.35-1.6-1.77-5.35-3.4-10.76-4.88-16.2-.62-2.27-1.38-3.46-4.05-3.03-24.4 3.97-48.89 7.44-73.18 11.93-10.66 1.97-20.95 5.97-31.76 9.16-3.64-8.15-7.29-16.31-10.86-24.29 25.76-14.87 38.62-40.12 52.94-64.14.58-.97.83-2.12 1.5-3.87-14.95.14-29.54-1.51-43.79 2.49-4.21 1.18-6.98.66-9.83-2.72-2.66-3.16-6.03-5.71-9.08-8.53.17-.46.34-.93.51-1.39h5.08c37.16 0 74.33-.06 111.49.09 4.01.02 6.9-.88 9.38-4.13 2.71-3.55 5.95-6.7 9.29-10.39 7.55 8.02 14.89 15.82 23.05 24.5-5.52 0-9.93 0-14.35 0-16.33 0-32.67-.07-49 .1-1.9.02-4.34.82-5.59 2.14-20.27 21.39-40.38 42.93-60.52 64.45-.29.31-.4.8-.91 1.85 32.1-1.46 63.72-2.88 96.54-4.37z"/><path d="m170.04 227.07c-2.82 0-4.4 0-5.98 0-23.12 0-46.25-.29-69.37.14-9.05.17-18.06 2.09-27.11 2.91-1.93.17-4.44-.41-5.88-1.6-3.89-3.24-7.35-7-11.97-11.51h6.81c23.12 0 46.25.08 69.37-.13 2.32-.02 5.07-1.28 6.85-2.84 4.35-3.84 8.24-8.19 12.79-12.81 8.05 8.5 15.84 16.71 24.49 25.84z"/><path d="m241.99 339.22c-1.53-1.02-2.73-1.83-3.15-2.11 11.27-23.74 22.4-47.18 33.65-70.87 7.3 4.48 15.45 9.47 23.97 14.69-18.39 10.88-26.81 30.14-41 44.1-4.61 4.53-8.91 9.36-13.47 14.19z"/><path d="m356.3 315.16c-1.26 2.86-3.04 8-5.71 12.62-1.98 3.42-5.25 3.17-7.7-.09-1.38-1.83-2.59-3.93-3.33-6.09-6.35-18.7-17.28-34.69-29.09-50.21-.92-1.21-1.04-3.03-1.53-4.57 1.73.21 3.76-.1 5.14.71 12.09 7.09 23.35 15.31 32.89 25.68 5.06 5.51 8.71 11.69 9.33 21.95z"/><path d="m91.04 144.96c-11.4 0-22.44 0-33.79 0 0-2.9 0-5.64 0-8.75h33.79z"/><path d="m57.2 182.73c0-3.05 0-5.81 0-8.85h33.83v8.85c-11.06 0-22.25 0-33.83 0z"/><path d="m168.85 136.13v8.66c-10.9 0-21.71 0-32.77 0 0-2.9 0-5.63 0-8.66z"/><path d="m168.73 182.97c-10.94 0-21.54 0-32.52 0 0-2.98 0-5.85 0-9.06h32.52z"/></g></svg>