<svg enable-background="new 0 0 400 400" viewBox="0 0 400 400" xmlns="http://www.w3.org/2000/svg"><g fill="#010100"><path d="m264.36 348.22c-5.86-13.83-17.38-17.97-29.53-21.09-2.55-.65-5.07-.96-3.93-4.29 10.46.39 20.71 1.01 30.96 1.1 12.27.1 20.1-6.26 22.71-18.2 2-9.13.65-18.12-1.77-27.34-8 5.52-15.6 11.11-23.52 16.16-17.75 11.33-36.8 19.89-57 25.86-3.69 1.09-3.7 1.04-5.1-2.83 29.67-13.65 56.35-31.75 79.86-55.41-2.81-4.27-5.6-8.5-8.79-13.35-21.59 15.27-44.55 27.69-69.52 36.14-2.4-2.65-1.4-4.02 1.39-5.55 20.5-11.3 39.5-24.66 56.03-41.35 1.04-1.05 2.03-2.17 3.38-3.6-3.43-3.93-6.78-7.75-9.82-11.23-16.18 8.3-31.95 16.39-47.46 24.34-3.31-3.42-1.6-4.83.79-6.37 15.87-10.19 30.89-21.46 44.13-34.98.92-.94 1.81-1.89 3.16-3.3-8.9 0-17.77-1.89-25.32.45-10.6 3.28-18.01 1.81-24.14-7.17-.63-.92-1.49-1.68-2.97-3.32 2.55-.12 4.27-.26 5.98-.26 20.99-.02 41.99-.14 62.98.1 4.16.05 6.82-1.21 9.08-4.54 9.32-13.73 18.77-27.37 28.46-41.46 7.15 4.36 15.29 9.33 24.19 14.76-18.2 7.47-33.47 18.3-47.93 31.14h5.24c10.33 0 20.67-.28 30.99.11 5.49.21 10.02-1.05 14.17-4.61 2.89-2.48 6.15-4.54 9.82-7.2 7.2 6.73 14.38 13.45 22.75 21.27-3.27 0-5 0-6.73 0-24.83 0-49.65-.07-74.48.11-2.43.02-5.24.96-7.2 2.4-6.39 4.68-12.46 9.79-18.25 14.41 11.86 10.28 23.36 20.26 36 31.21 12.13-10.51 25.13-21.77 38.74-33.56 5.05 4.24 10.93 9.19 16.78 14.11-18.27 8.35-36.15 16.52-55.77 25.49 3.44 2.46 5.41 4.64 7.84 5.5 12.86 4.56 25.96 8.63 37.1 16.81 4.07 2.99 7.8 6.81 10.67 10.95 3.83 5.52 2.85 12-1.42 17.04-2.81 3.32-6.44 3.73-9.48.6-2.17-2.24-3.92-4.94-5.61-7.59-6.82-10.77-20.37-24.41-30.99-30.96 1.3 6.66 2.9 13.12 3.76 19.67 1.44 11.04.45 21.92-3.71 32.36-3.4 8.53-9.18 15.09-17.36 19.19-6.06 2.99-12.43 5.38-19.16 8.28z"/><path d="m68.63 85.75c-.49 3.89-.72 7.53-1.43 11.06-2.35 11.67-16.34 22.5-28.2 21.31-3.1-.31-7.21-2.22-8.55-4.66-1-1.82 1.14-6.12 2.95-8.51 2.37-3.13 5.81-5.43 8.74-8.13 8.41-7.74 13.94-17.39 17.53-28.05 1.52-4.52 3.74-5.71 8.39-4.24v11.01h121.42c0-6.6 0-13.17 0-20.48-1.82 0-3.57 0-5.33 0-23.33 0-46.66-.31-69.97.15-9.4.19-18.75 2.14-28.14 3.16-1.46.16-3.47.19-4.42-.65-4.2-3.69-8.11-7.72-13.25-12.73h6.86c72.14 0 144.29-.03 216.43.08 4.28.01 7.59-.98 10.7-3.99 3.69-3.57 7.89-6.63 12.32-10.29 8.69 7.76 17.39 15.52 26.97 24.07-43.54 0-85.92 0-128.76 0v21.06h5.93c38.65 0 77.31-.07 115.96.09 4.34.02 7.57-.83 10.18-4.5 2.11-2.96 4.84-5.48 7.67-8.61 7.26 5.88 14.54 11.78 22.28 18.05-18.73 7.77-30 23.2-42.47 37.38-4.02-1.58-4.35-4-2.68-7.8 3.47-7.9 6.46-16.02 9.88-24.65-42.5 0-84.5 0-126.47 0v59.63c-7.81 1.75-16.16 3.62-24.13 5.4 0-21.77 0-43.3 0-65.18-39.93.02-80.14.02-120.41.02z"/><path d="m57.47 154.99c6.04 3.19 11.84 6.4 17.79 9.3 2 .97 4.37 1.61 6.58 1.64 11.5.16 23.01-.17 34.49.19 4.71.15 7.9-1.04 10.16-5.22 1.16-2.15 2.99-3.93 4.73-6.14 7.48 5.61 14.76 11.07 22.12 16.58-.51.58-.77 1.16-1.15 1.26-8.62 2.29-12.32 9.33-16.21 16.37-8.35 15.13-16.9 30.15-24.99 44.55 7.85 8.47 15.86 16.04 22.6 24.61 9.87 12.56 13.93 26.86 8.01 42.53-5.87 15.52-18.62 23.49-33.4 29.56-5.19-13.59-16.59-17.45-29.78-20.34v5.87c0 14.5-.18 29 .11 43.5.09 4.58-1 7.26-5.57 8.88-5.26 1.88-10.22 4.62-15.5 7.08 1.7-73.52 1.74-146.53.01-220.22zm21.27 21.25v129.53c10.26 0 20.21.37 30.13-.12 8.22-.41 11.99-3.88 13.76-11.37 2.1-8.91 2.06-17.79-1.07-26.52-4.11-11.45-10.93-21.26-18.59-30.53-1.71-2.06-1.94-3.67-.94-6.19 5.21-13.11 10.21-26.3 15.19-39.51 1.85-4.92 3.44-9.94 5.27-15.3-14.88.01-29.01.01-43.75.01z"/><path d="m169 243.96c-4.53.87-8.46 1.28-12.16 2.45-2.85.9-4.64.32-6.57-1.76-2.79-3.02-5.85-5.78-8.37-9.82 6.72 0 13.46-.35 20.14.11 5.1.35 8.56-1.01 10.64-5.82.84-1.95 2.28-3.66 3.74-5.94 6.47 4.15 12.82 8.22 19.22 12.32-.2.67-.2 1.32-.49 1.52-6.73 4.59-7.43 11.13-7.29 18.71.41 23.15.22 46.31.07 69.46-.02 3.23.98 5.07 3.68 6.82 15.4 10.01 32.39 15.41 50.53 16.71 16.23 1.16 32.57 2.13 48.81 1.66 21.07-.62 42.11-2.71 63.15-4.25 7.43-.54 14.85-1.31 22.42-1.99 1.43 2.84-.03 3.92-2.49 5.1-4.92 2.37-9.74 5.01-14.4 7.86-2.08 1.27-4.53 2.99-5.34 5.08-2.39 6.15-6.89 6.15-12.34 5.97-27.43-.89-54.88-1.51-82.32-2.15-25.64-.6-48.96-7.9-69.69-23.29-8.47-6.29-14.02-5.61-21.51 1.92-2.81 2.83-5.48 5.81-8.13 8.79-2.52 2.84-4.93 5.79-7.53 8.85-6.51-4.19-12.76-8.23-19.67-12.68 10.73-6.04 20.8-12 31.16-17.39 3.86-2.01 4.9-4.35 4.86-8.51-.22-26.13-.12-52.28-.12-79.73z"/><path d="m165.82 131.4v9.34c-26.53 0-52.9 0-79.55 0 0-3.05 0-5.99 0-9.34z"/><path d="m314.15 140.85c-26.51 0-52.58 0-78.98 0 0-3.21 0-6.25 0-9.58h78.98z"/><path d="m235.03 111.75c0-3.26 0-6.2 0-9.48h76.04v9.48c-25.29 0-50.37 0-76.04 0z"/><path d="m90.96 102.23h74.63v9.41c-24.62 0-49.44 0-74.63 0 0-3.04 0-6.08 0-9.41z"/><path d="m215.63 150.43c1.98-.32 3.83-1.24 4.96-.69 9.09 4.39 18.39 8.5 26.97 13.78 10.17 6.26 9.46 17.63-.81 24.08-2.89 1.81-5.31 1.53-7.42-1.09-.83-1.03-1.55-2.16-2.19-3.32-3.06-5.5-5.76-11.23-9.19-16.48-3.43-5.27-7.57-10.07-12.32-16.28z"/><path d="m158.61 166.86c1.93-.61 3.73-1.8 4.52-1.33 8.45 5.14 17.35 9.81 24.91 16.08 7.43 6.15 2.51 21.34-7.06 23.59-1.28.3-3.29-.46-4.26-1.43-1.2-1.21-2.11-3.07-2.4-4.78-2.05-11.9-7.06-22.37-15.71-32.13z"/></g><path d="m378.6 9.2.8-1c.9.7 1.9 1.4 2.9 2.3l-.9 1.1c-1.1-.9-2-1.7-2.8-2.4zm.5 10.7c.9-2.1 1.6-4.3 2.3-6.7.4.2.8.4 1.3.6-.7 2.1-1.5 4.3-2.2 6.6zm.4-15.2.9-.9c1 .8 2 1.6 2.8 2.4l-1 1c-1-.9-1.9-1.8-2.7-2.5zm12.5-1.3h1.2v1.4h2.7v1.1h-2.7v2.7h-1.2v-.5h-1.8v1.3h4.9v3.8h-1.2v-.5h-3.7c0 .4-.1.9-.1 1.2h5.1v1h-5.2c0 .5-.1.9-.2 1.2h6v1h-5.2c1.1 1.3 2.9 2 5.5 2.2-.4.4-.7.8-.9 1.3-2.9-.5-4.8-1.6-5.7-3.5h-.1c-.8 1.7-2.7 2.9-5.9 3.6-.2-.4-.6-.8-.9-1.1 2.8-.6 4.6-1.4 5.4-2.5h-4.8v-1h5.3c.1-.3.2-.7.2-1.2h-4.9v-1h5c0-.4 0-.8.1-1.2h-3.6v.5h-1.2v-3.8h4.9v-1.3h-1.8v.5h-1.2v-2.7h-2.6v-1.1h2.6v-1.4h1.2v1.4h4.7v-1.4zm-6.7 8.4h3.6c0-.4 0-.9 0-1.4h-3.6zm1.9-4.7h4.7v-1.2h-4.7zm6.7 3.3h-3.7v1.4h3.7z" fill="#fbfafc"/><path d="m384.7 21.4h1.3v2.2h2.8v-2.2h1.3v2.2h4.1v9.1h1.7v1.3h-16.9v-1.3h1.7v-9.1h4.1v-2.2zm.3 13.2.7 1.2c-1.8.9-3.8 1.9-6 2.9-.2-.4-.5-.8-.8-1.3 2.4-1 4.4-2 6.1-2.8zm-3.1-6.5h2.8v-3.2h-2.8zm0 4.6h2.8v-3.3h-2.8zm4.1-4.6h2.8v-3.2h-2.8zm0 4.6h2.8v-3.3h-2.8zm3.6 1.9c2.1.9 4.1 1.8 6.1 2.7l-.7 1.3c-2.2-1.1-4.2-2-6.1-2.9zm3.3-9.7h-2.8v3.2h2.8zm-2.8 7.8h2.8v-3.3h-2.8z" fill="#fbfafc"/></svg>