<svg enable-background="new 0 0 400 400" viewBox="0 0 400 400" xmlns="http://www.w3.org/2000/svg"><g fill="#010100"><path d="m121.66 374.72c-3.96-5.86-6.66-12.37-11.46-16.3-5.73-4.69-13.14-7.48-20.09-10.49-3.3-1.43-5.08-2.74-3.7-6.6 8.61 1 17.29 1.82 25.92 3.05 12.97 1.85 18.58-.56 22.31-13.13 3.42-11.52 5.86-23.56 6.88-35.52 2.09-24.51 2.95-49.12 4.29-73.69.08-1.46.01-2.94.01-5.2-26.35.93-52.36 1.86-78.6 2.79-.13 2.5-.25 4.62-.39 7.29-6.33 1.4-12.73 2.81-19.37 4.28 0-65.76 0-131.18 0-197.01 5.12 2.91 10.02 5.97 15.18 8.52 2.56 1.26 5.58 2.19 8.41 2.22 20.16.19 40.32.2 60.48-.02 2.54-.03 5.41-1.22 7.52-2.73 4.7-3.36 9.01-7.26 13.89-11.27 5.62 7.95 11.04 15.61 16.94 23.95-17.57 0-34.3 0-51.45 0v43.33c13.65 5.42 19.57-6.47 28.74-13.21 5.03 7.74 10.01 15.41 15.52 23.88-15.24 0-29.6 0-44.32 0v43.71c7 1.24 13.16.84 17.75-5.55 2.1-2.93 5.01-5.28 8.01-8.36 5.79 8.17 11.21 15.83 17.16 24.23-14.75 0-28.75 0-43.02 0v45.41c9.27-.84 18.51-1.38 27.63-2.72 2.13-.31 3.92-3.28 5.75-5.13 1.38-1.4 2.59-2.97 4.23-4.87 5.69 6.13 11.2 12.06 16.58 17.85-.19.68-.19 1.18-.38 1.27-10.29 5.05-8.05 14.96-8.8 23.46-2.29 26.16-4.06 52.36-6.32 78.52-1.49 17.29-7.15 33.07-18.65 46.39-4.83 5.59-10.79 9.64-16.65 11.65zm-22.94-166.28c0-15.28 0-30.15 0-45.12-10.65 0-21.02 0-31.32 0v46.6c10.66-.5 20.9-.99 31.32-1.48zm-.11-109.64c0-14.8 0-29.14 0-43.48-10.63 0-20.86 0-31.32 0v43.48zm-31.45 53.79h31.56c0-14.59 0-28.82 0-43.17-10.66 0-21.03 0-31.56 0z"/><path d="m214.98 305.8c3.07 9.49-3.94 10.44-9.94 12.35-2.82.9-5.6 1.95-8.76 3.05 0-51.45 0-102.54 0-154.25 5.24 2.95 10.4 6.09 15.79 8.78 2.41 1.2 5.27 2.1 7.92 2.11 32.64.14 65.29.01 97.93.19 4.05.02 6.9-.99 9.32-4.22 2.26-3.01 4.98-5.67 7.84-8.88 5.86 6.79 11.36 13.18 16.82 19.52-.22.44-.29.88-.53 1-8.17 4.26-8.4 11.55-8.1 19.51.42 11.14-.07 22.32.14 33.47.41 22.11 1.04 44.22 1.57 66.34.03 1.16 0 2.31 0 3.85-6.52 2.31-13 4.62-19.98 7.09 0-3.6 0-6.56 0-9.92-36.62.01-72.97.01-110.02.01zm109.88-118.07c-36.72 0-72.93 0-109.22 0v30.72h109.22c0-10.34 0-20.3 0-30.72zm.01 41.02c-36.71 0-72.96 0-109.25 0v28.8h109.25c0-9.7 0-19.01 0-28.8zm-109.41 66.84h109.13c0-9.38 0-18.42 0-27.25-36.61 0-72.8 0-109.13 0z"/><path d="m183.93 44.18c5.84 4.01 10.82 7.26 15.59 10.79 2.17 1.61 3.89 1.74 6.28.5 15.35-7.94 30.76-15.73 46.76-23.88 4.41 6.01 9.39 12.78 14.43 19.64-13.16 2.32-25.98 4.46-38.75 6.87-7.66 1.44-15.28 3.16-22.81 5.12-1.33.35-3.03 2.49-3.1 3.87-.32 6.97-.14 13.97-.14 21.35 1.46.18 2.71.46 3.96.46 11.33.03 22.66.13 33.99-.08 1.9-.04 4.15-1.02 5.58-2.3 4.08-3.66 7.82-7.69 12.1-11.99 6.13 7.99 12.07 15.73 18.6 24.25-9.41 0-18.08 0-27.16 0 0 12.05-.11 23.48.04 34.91.1 7.81.37 15.63.93 23.43.26 3.53-1.04 5.06-4.26 6.01-4.89 1.45-9.67 3.31-14.6 5.02 0-23.09 0-45.79 0-68.83-9.36 0-18.93 0-28.5 0-.92 8.4-1.44 16.83-2.83 25.12-3.94 23.66-14.59 43.67-33.47 58.88-1.16.93-3 1.01-4.52 1.48.28-1.53.08-3.4.9-4.55 15.69-22.22 21.16-47.29 21.01-74.01-.12-20.27-.03-40.55-.03-62.06z"/><path d="m301.18 88.92c14.21 0 27.82.07 41.43-.11 1.4-.02 2.92-1.38 4.13-2.41 3.89-3.33 7.67-6.79 11.68-10.38 5.69 7.61 11.13 14.87 17.08 22.83-10.51 0-20.08 0-30.44 0 0 2.12-.03 3.87.01 5.62.36 16.14.61 32.28 1.2 48.41.13 3.48-1.04 5.08-4.12 6.23-4.93 1.83-9.73 4.01-14.74 6.11 0-22.14 0-43.84 0-65.87-8.4 0-16.97 0-25.05 0-1.42 9.23-2.09 18.53-4.39 27.41-4.93 19.03-16.72 33.37-32.9 44.2-1.23.82-3.18.58-4.54.8 6.18-11.11 12.34-21.16 17.48-31.7 4.57-9.36 5.85-19.71 5.77-30.09-.14-19.8-.54-39.61-.82-59.41-.03-1.75 0-3.5 0-6.29 4.71 3.37 8.68 5.99 12.38 8.95 2.25 1.8 4.14 2.05 6.72.74 14.83-7.46 29.72-14.78 45.17-22.44 4.95 5.73 10.46 12.09 16.58 19.17-9.43 1.55-18.13 3.01-26.84 4.41-10.81 1.75-21.64 3.35-32.4 5.32-1.31.24-3.19 2.37-3.24 3.69-.3 7.96-.15 15.95-.15 24.81z"/><path d="m156.67 375.16c-3.02-2.97-.97-4.08 1.31-5.69 17.75-12.56 35.69-24.88 52.97-38.07 8.11-6.19 14.89-14.12 22.67-21.65 6.09 6.93 12.39 14.1 19.19 21.84-3.29.48-6 1.35-8.64 1.17-6-.42-10.31 2.92-14.92 5.82-22.52 14.18-45.62 27.23-70.84 36.11-.47.16-.95.26-1.74.47z"/><path d="m293.31 317.58c.39-1.87.71-3.43 1.19-5.74 9.77 3.79 19.39 6.9 28.46 11.19 11.2 5.3 22.25 11.08 32.79 17.59 10.64 6.57 11.35 17.33 7.57 28.22-1.65 4.76-4.87 5.76-8.88 2.74-3.02-2.27-6.06-4.86-8.2-7.93-13.73-19.61-31.53-34.47-52.93-46.07z"/><path d="m42.82 258.14h5.14c2.37 16.43 6.86 32.7 1.08 49.09-1.72 4.86-4.67 9.48-7.92 13.52-1.28 1.59-5.44 2.39-7.36 1.52-1.96-.9-3.54-4.18-3.89-6.62-.35-2.42.46-5.45 1.77-7.6 8.82-14.48 10.25-30.6 10.97-46.92.03-.84.11-1.66.21-2.99z"/><path d="m107.25 237.13c.95-.62 2.15-1.4 3.43-2.24 11.47 10.62 22.25 21.36 24.96 37.51 1.11 6.58.63 12.64-5.3 16.98-3.8 2.78-6.58 2.18-8.12-2.23-1.36-3.88-1.77-8.07-2.98-12.01-3.82-12.48-7.83-24.9-11.99-38.01z"/><path d="m84.4 242.54c7.61 8.97 15.35 17.84 22.79 26.96 4.57 5.6 6.88 12.25 5.82 19.48-.45 3.07-1.97 6.39-4.03 8.68-1.49 1.66-4.89 2.77-7.02 2.29-1.68-.38-3.75-3.47-3.92-5.5-1.34-16.28-7.94-30.67-15.09-44.97-.89-1.78-.39-4.25-.54-6.4.66-.18 1.33-.36 1.99-.54z"/><path d="m58.37 252.19c2.16.87 3.45.98 3.98 1.67 8.7 11.33 17.82 22.46 20.07 37.27 1.12 7.34-1.12 13.44-7.01 17.97-4.95 3.81-8 2.48-8.5-3.74-.49-6.11-.03-12.35-1-18.37-1.6-9.94-4-19.74-6.09-29.6-.27-1.27-.69-2.5-1.45-5.2z"/></g><path d="m378.6 9.2.8-1c.9.7 1.9 1.4 2.9 2.3l-.9 1.1c-1.1-.9-2-1.7-2.8-2.4zm.5 10.7c.9-2.1 1.6-4.3 2.3-6.7.4.2.8.4 1.3.6-.7 2.1-1.5 4.3-2.2 6.6zm.4-15.2.9-.9c1 .8 2 1.6 2.8 2.4l-1 1c-1-.9-1.9-1.8-2.7-2.5zm12.5-1.3h1.2v1.4h2.7v1.1h-2.7v2.7h-1.2v-.5h-1.8v1.3h4.9v3.8h-1.2v-.5h-3.7c0 .4-.1.9-.1 1.2h5.1v1h-5.2c0 .5-.1.9-.2 1.2h6v1h-5.2c1.1 1.3 2.9 2 5.5 2.2-.4.4-.7.8-.9 1.3-2.9-.5-4.8-1.6-5.7-3.5h-.1c-.8 1.7-2.7 2.9-5.9 3.6-.2-.4-.6-.8-.9-1.1 2.8-.6 4.6-1.4 5.4-2.5h-4.8v-1h5.3c.1-.3.2-.7.2-1.2h-4.9v-1h5c0-.4 0-.8.1-1.2h-3.6v.5h-1.2v-3.8h4.9v-1.3h-1.8v.5h-1.2v-2.7h-2.6v-1.1h2.6v-1.4h1.2v1.4h4.7v-1.4zm-6.7 8.4h3.6c0-.4 0-.9 0-1.4h-3.6zm1.9-4.7h4.7v-1.2h-4.7zm6.7 3.3h-3.7v1.4h3.7z" fill="#fbfafc"/><path d="m384.7 21.4h1.3v2.2h2.8v-2.2h1.3v2.2h4.1v9.1h1.7v1.3h-16.9v-1.3h1.7v-9.1h4.1v-2.2zm.3 13.2.7 1.2c-1.8.9-3.8 1.9-6 2.9-.2-.4-.5-.8-.8-1.3 2.4-1 4.4-2 6.1-2.8zm-3.1-6.5h2.8v-3.2h-2.8zm0 4.6h2.8v-3.3h-2.8zm4.1-4.6h2.8v-3.2h-2.8zm0 4.6h2.8v-3.3h-2.8zm3.6 1.9c2.1.9 4.1 1.8 6.1 2.7l-.7 1.3c-2.2-1.1-4.2-2-6.1-2.9zm3.3-9.7h-2.8v3.2h2.8zm-2.8 7.8h2.8v-3.3h-2.8z" fill="#fbfafc"/></svg>