<svg enable-background="new 0 0 400 400" viewBox="0 0 400 400" xmlns="http://www.w3.org/2000/svg"><g fill="#010102"><path d="m63.47 172.7c5.17 3.32 9.88 6.7 14.93 9.44 2.77 1.5 6.1 2.69 9.2 2.73 19.16.24 38.33-.07 57.48.26 4.84.08 8.22-1.23 10.96-5.05 1.54-2.15 3.44-4.04 5.54-6.46 5.77 6.71 11.35 13.2 17.58 20.46-10.91 3.85-9.14 12.65-9.12 20.92.06 42.82.06 85.65.01 128.47-.02 15.03-8.65 25.48-23.71 28.66-2.69-15.93-15.21-21.33-28.39-25.76-3.26-1.1-5.01-2.3-3.61-6.47 4.73.41 9.63.82 14.52 1.26 4.96.45 9.91 1 14.87 1.42 4.51.38 7.88-1.51 7.97-6.19.26-14.44.09-28.89.09-43.65-23.1 0-45.68 0-68.8 0v5.54c0 20.5-.08 40.99.08 61.49.02 3.13-.93 4.79-3.75 6.05-5.28 2.36-10.41 5.07-15.86 7.77.01-67 .01-133.49.01-200.89zm19.71 61.74h68.25c0-13.28 0-26.18 0-39.02-22.97 0-45.55 0-68.25 0zm68.18 48.16c0-12.53 0-25.03 0-37.81-22.73 0-45.4 0-68.04 0v37.81z"/><path d="m164.36 29.22c5.88 6.37 11.36 12.31 16.86 18.27-.43.62-.62 1.22-1 1.38-8.42 3.69-9.17 10.51-8.98 18.75.5 21.98.17 43.97.17 65.96v7.19c4.65-.99 9.02-.93 12.19-2.86 3.37-2.04 5.6-5.96 8.62-9.4 5.64 7.51 11 14.64 16.31 21.72-.3.46-.44.9-.64.93-12.97 2.27-18.07 13.78-25.89 22.07-1.93 2.05-3.66 4.3-5.7 6.72-1.3-.73-2.54-1.43-4.15-2.33 3.8-9.18 7.52-18.15 11.36-27.41-44.02 0-87.44 0-130.7 0-.93 6.26-1.55 12.33-2.79 18.28-1.36 6.53-5.31 11.44-11.28 14.43-6 3-11.61.05-11.55-6.61.03-3.89 1.2-8.64 3.62-11.49 8.6-10.13 11.19-22.41 14.08-34.7.45-1.93.42-4.04 1.19-5.81.66-1.52 2.16-2.68 3.29-3.99.42.26.84.52 1.26.79.52 6.06 1.04 12.12 1.59 18.5h12.82c0-36.44 0-72.81 0-109.5 4.08 2.8 8.59 5.69 12.86 8.92 3.47 2.63 7.09 3.71 11.51 3.66 18.82-.21 37.65-.2 56.47 0 4.01.04 6.98-.98 9.56-4.05 2.66-3.18 5.69-6.05 8.92-9.42zm-10.12 23.22c-23.88 0-47.43 0-70.92 0v36.49c5.61 0 10.97-.52 16.19.12 7.31.9 12.5-1.28 15.76-7.99.61-1.25 1.88-2.18 2.97-3.39 5.75 5.31 11.22 10.36 16.52 15.25-2.44 3.55-6.24 6.56-6.43 9.78-.73 12.22-.29 24.52-.29 37h26.2c0-29.17 0-58.21 0-87.26zm-43.68 46.83c-9.35 0-18.25 0-27.23 0v40.36h27.23c0-13.51 0-26.72 0-40.36z"/><path d="m311.66 55.89c-6.38 1.34-12.2 2.38-17.91 3.84-2.7.69-4.62.69-6.51-1.72-2.82-3.6-6.01-6.91-9.78-11.18h14.31c12.99 0 25.99.15 38.98-.13 2.51-.06 5.37-1.33 7.4-2.9 4.42-3.44 8.4-7.43 12.88-11.47 6.03 7.87 11.76 15.35 18.26 23.84-13.37 0-25.81 0-38.55 0v131.4c5.78.83 11 1.21 15.14-4.29 2.98-3.96 6.8-7.29 10.7-11.39 6.38 8.82 12.36 17.07 18.84 26.02-15.35 0-29.77 0-44.74 0-.1 2.1-.25 3.85-.25 5.6-.01 40.65-.13 81.3.06 121.95.06 12.13 1.07 24.24 1.38 36.37.04 1.56-1.11 3.92-2.4 4.6-5.84 3.09-11.93 5.71-18.15 8.6 0-59.03 0-117.67 0-177.36-6.79.58-13.93.6-20.8 1.96-4.91.97-8.18.12-11.3-3.64-2.09-2.52-4.87-4.47-7.35-6.67.19-.42.38-.84.58-1.26h39.23c-.02-44.07-.02-87.47-.02-132.17z"/><path d="m175.24 373.58c-4.06-2.63-2.25-4.8-.45-7.24 14.74-19.86 28.32-40.58 35.17-64.49 4.92-17.15 8.14-34.9 10.66-52.59 2.32-16.25 2.69-32.77 3.9-49.17.03-.47-.17-.95-.46-2.43-6.14.6-12.42.75-18.49 1.96-4.24.84-7.25.43-10.09-2.99-2.29-2.77-5.2-5.03-8.88-8.5h37.57c0-44.01 0-87.55 0-132.45-6.72 1.98-13.24 3.21-19.13 5.84-4.53 2.02-6.78 1.29-9.21-2.68-2.39-3.91-5.4-7.43-8.8-12.02h11.81c13.5 0 26.99-.12 40.49.07 3.73.05 6.67-.84 9.44-3.38 3.68-3.36 7.69-6.35 11.91-9.79 5.89 7.26 11.68 14.41 18.31 22.58-12.63 0-24 0-35.63 0v131.52c4.04-4.9 7.65-9.28 11.74-14.26 7.36 9.07 13.25 16.32 19.78 24.37-11.1 0-21.15 0-31.49 0-.79 12-1.22 23.59-2.38 35.12-2.87 28.62-6.2 57.24-19.16 83.48-11.08 22.43-27.64 40.59-46.61 57.05z"/></g><path d="m374.8 390.4.4-.4c.7.5 1.3 1 1.8 1.4l-.5.5c-.5-.6-1.1-1.1-1.7-1.5zm1 7.3-.6-.3c.5-1.4 1.1-2.8 1.5-4.3.2.1.4.2.6.3-.5 1.3-1 2.8-1.5 4.3zm-.4-10.3.4-.4c.4.3 1 .8 1.7 1.4l-.5.5c-.4-.5-1-1-1.6-1.5zm2.5.3h1.7v-1h.6v1h3.5v-1h.6v1h1.8v.5h-1.8v1.4h-2v1h3.2v2h-3.2v.9h3.3v.5h-3.4c0 .3-.1.6-.1.9h4v.5h-3.7c.7.9 1.9 1.5 3.8 1.7-.1.2-.2.4-.3.6-2.1-.4-3.5-1.1-4-2.1-.4 1-1.8 1.7-4 2.2-.1-.2-.2-.4-.3-.6 2.1-.4 3.4-1 3.8-1.8h-3.4v-.5h3.6c.1-.3.1-.6.2-.9h-3.3v-.5h3.4c0-.3 0-.6 0-.9h-3.2v-2h3.3v-1h-2.1v-1.4h-1.7v-.5zm1.1 3.5v1h2.7c0-.3 0-.4 0-.4 0-.1 0-.2 0-.2 0-.1 0-.2 0-.3h-2.7zm1.2-3v.9h3.5v-.9zm4.7 3h-2.6v.6.4h2.6z" fill="#fbfcfa"/><path d="m393.6 386.7h.6v1.5h2.7v6.1h1.1v.6h-11v-.6h1.1v-6.1h2.7v-1.5h.6v1.5h2.1v-1.5zm-2.7 8.8.4.6c-1.2.6-2.5 1.3-3.8 1.9-.1-.2-.2-.4-.3-.6 1.2-.6 2.5-1.2 3.7-1.9zm-2.2-6.7v2.4h2.1v-2.4zm0 3v2.5h2.1v-2.5zm2.8-3v2.4h2.1v-2.4zm0 3v2.5h2.1v-2.5zm6 6.1c-1.4-.7-2.7-1.3-3.9-1.8l.3-.6c1.5.6 2.7 1.2 3.9 1.7zm-1.2-9.1h-2.1v2.4h2.1zm-2.1 3v2.5h2.1v-2.5z" fill="#fbfcfa"/></svg>