<svg enable-background="new 0 0 400 400" viewBox="0 0 400 400" xmlns="http://www.w3.org/2000/svg"><g fill="#010102"><path d="m129.17 206.72v32.14c0 27.17-.17 54.33.13 81.5.06 5.87 1.15 11.94 2.94 17.54 2.1 6.6 7.29 10.1 14.49 10.1 61.33-.01 122.66.02 184-.03 9.09-.01 15.24-4 17.28-12.81 2.27-9.82 3.13-19.96 4.6-29.96.14-.96.29-1.92.47-3.1h4.16c1.29 8.84 2.36 17.54 3.87 26.16 1.28 7.33 5.13 12.93 12.84 15.72-3.96 10.74-12.38 15.81-22.63 17.96-6.61 1.39-13.51 2.02-20.27 2.03-62.67.15-125.33-.14-188 .2-23.39.13-31.69-12.92-31.96-32.01-.55-39.66-.23-79.33-.26-118.99 0-1.99 0-3.97 0-6.36-4.54 0-8.77 0-13.19 0-.86 10.02-1.44 19.93-2.6 29.77-5.06 42.73-16.49 83.13-44.52 117.1-5.9 7.15-12.7 13.56-19.08 20.31-4.68-3.32-4.85-5.9-1.69-10.06 23.05-30.31 38.73-63.99 43.77-101.94 2.4-18.08 3.09-36.39 4.6-55.14-6.87 0-12.4 0-18.63 0 2.01 7.67-3.93 8.84-8.92 10.87-3.36 1.37-6.69 2.82-10.21 4.32 0-46.7 0-93.02 0-139.76 1.45.31 3.21.46 4.81 1.07 9.97 3.8 20.28 4.76 30.87 4.35 3.19-.12 4.77-1.09 5.75-4.07 5.99-18.29 12.11-36.54 18.3-55.17 7.54 4.19 15.7 8.73 24.76 13.76-14.39 5.92-18.18 19.89-26.3 30.24-3.47 4.43-6.3 9.36-9.94 14.86 2.46.11 4.18.25 5.9.26 15.83.02 31.67-.18 47.5.12 4.8.09 8.32-.96 10.9-5.14 1.11-1.79 2.84-3.19 4.52-5.02 6.18 5.22 12.11 10.24 17.93 15.15-.19.67-.17 1.12-.37 1.26-7.13 4.9-8.13 11.79-7.95 19.97.5 22.66.05 45.33.24 67.99.08 9.11.85 18.22 1.32 27.62-6.31 1.43-12.2 2.76-18.32 4.15-.18-2.59-.33-4.71-.49-6.98-6.85.02-13.45.02-20.62.02zm-16.89-58.28v48.04h37.35c0-16.22 0-32.09 0-48.04-12.61 0-24.85 0-37.35 0zm-52.54.01v47.92h34.77c0-16.19 0-31.92 0-47.92-11.69 0-23.07 0-34.77 0zm89.99-10.13c0-13.81 0-27.22 0-40.8-12.64 0-25 0-37.46 0v40.8zm-55.22-.1c0-13.75 0-27.12 0-40.77-11.69 0-23.06 0-34.68 0v40.77z"/><path d="m282.23 185.13c0-13.76 0-26.81 0-40.34 7.55 2.65 15 5.27 23.09 8.12-9.54 9.51-3.42 20.98-5.78 32.05 7.63 0 14.56.12 21.48-.11 1.2-.04 2.51-1.43 3.48-2.47 3.4-3.64 6.68-7.4 10.47-11.63 6.57 7.95 12.95 15.67 19.98 24.17-18.79 0-36.52 0-55.51 0 18.05 34.1 33.42 68.91 70.42 87.17v4.54c-9.87 1.06-19.39 3.11-26.17 11.53-20.96-23.52-33.36-51.26-43.68-80.44v4.62c.02 25.66-.02 51.32.11 76.98.04 6.81.55 13.63 1 20.43.17 2.56-.54 3.88-3.16 4.68-5.35 1.63-10.57 3.69-15.74 5.53 0-33.87 0-67.4 0-101.72-3.39 6.1-6.33 11.75-9.58 17.21-13.83 23.28-32.21 42.33-54.7 57.28-3.81 2.53-3.84 5.72-4.5 9.14-1.58 8.19-4.88 9.43-11.33 4.05-7.97-6.64-7.9-15.57-6.76-24.73 1.12-9.06 2.2-18.13 3.5-27.17 1.83-12.73-4.88-20.86-14.56-27.33-2.87-1.92-4.41-3.89-2.91-7.45 1.57.44 3.13.95 4.72 1.31 8.48 1.91 13.82-.24 16.57-8.43 7.7-22.94 14.97-46.03 22.1-69.15 3.72-12.05 6.82-24.29 10.14-36.46.6-2.2 1.16-4.68 4.02-3.35 1 .46 1.74 3.13 1.43 4.53-7.49 33.17-15.24 66.28-22.72 99.45-5.9 26.19-4.84 52.7-3.77 80.58 31.93-28.36 48.96-63.81 61.43-101.99-.29-.61-.57-1.21-.86-1.82-8.25 1.43-16.47 3.02-24.75 4.19-1.89.27-4.47-.37-5.91-1.57-3.89-3.26-7.34-7.05-11.77-11.43 17.47.03 33.72.03 50.22.03z"/><path d="m171.54 228.29c-8.35 22.73-16.4 44.64-24.84 67.6 8.87-2.57 16.87-4.89 25.51-7.4-2.47-5.82-4.6-11.36-7.17-16.69-1.58-3.27-1.61-5.95 1.41-8.94 7.83 8.37 16.26 16.2 20.42 27.17 3.26 8.61 1.19 16.7-3.78 24.15-.58.86-2.04 2.04-2.59 1.82-1.01-.41-2.18-1.66-2.34-2.71-.87-5.68-1.46-11.4-2.2-17.6-11.63 5.63-21.41 12.96-28.98 24.2-4.18-7-8.07-13.46-11.87-19.99-.33-.56-.29-1.67.05-2.24 7.91-13.51 9.98-28.76 12.97-43.7 2.11-10.53 3.61-21.17 5.45-32.11 6.24 2.24 12.42 4.45 17.96 6.44z"/><path d="m256.04 47.37v11.22h6.35c22.64 0 45.28-.17 67.92.12 5.44.07 9.72-1.05 12.89-5.55 1.24-1.76 2.53-3.5 4.06-5.62 7.52 6.96 13.95 12.91 20.21 18.71-5.95 4.23-12.03 8.02-17.44 12.59-3.35 2.84-6.04 6.65-8.39 10.43-1.98 3.19-4.02 3.91-7.68 1.99 2.28-7.45 4.58-14.96 6.99-22.87-28.39 0-56.39 0-83.67 0-.47 5.66-.15 11.24-1.53 16.35-2.11 7.79-9.72 11.14-16.95 8.62-3.91-1.36-4.78-3.76-3.06-7.32.58-1.19 1.16-2.42 1.99-3.43 7.39-9.08 10.55-19.84 12.16-31.14.51-3.6 1.6-5.71 6.15-4.1z"/><path d="m307.59 83.76c7.11 2.36 15.12 5.02 23.6 7.83-.7 1.06-1.03 2.04-1.71 2.51-5.69 3.93-7 9.35-6.53 15.98.51 7.13.06 14.32.13 21.49.07 7 2.6 9.99 9.59 9.87 4.73-.08 9.47-1.39 14.13-2.47 6.51-1.51 15.99 4.99 16.2 11.68.04 1.14-2.15 3.28-3.44 3.39-8.44.7-16.92 1.07-25.39 1.34-4.49.15-9.01.13-13.48-.23-8.04-.66-12.51-5.09-12.83-13.16-.37-9.48-.23-18.99-.26-28.48-.04-9.78-.01-19.56-.01-29.75z"/><path d="m239.14 166.79c-1.74-1.87-3.52-3.23-.97-5.84 18.92-19.39 27.52-42.64 25.78-69.69-.09-1.46-.01-2.93-.01-5.05 8.65 2.38 16.71 4.6 26.09 7.19-10.72 4.36-8.61 13.59-9.74 20.97-3.91 25.34-20.21 40.47-41.15 52.42z"/><path d="m178.93 119.12c9.02 5.96 18.23 11.54 26.88 17.87 9.84 7.21 6.28 19.67.69 26.08-3.38 3.87-6.49 3.57-8.99-.97-1.67-3.02-2.33-6.61-4.05-9.59-4.73-8.19-9.62-16.29-14.78-24.21-1.88-2.88-2.52-5.27.25-9.18z"/><path d="m187 59.87c1.19-3.85 3.1-4.65 6.26-3.22 7.52 3.4 15.59 5.86 22.58 10.1 11.07 6.73 13.51 18.26 6.89 27.18-3.23 4.36-7.08 4.67-9.32-.07-6.28-13.33-15.76-24.05-26.41-33.99z"/></g><path d="m374.8 390.4.4-.4c.7.5 1.3 1 1.8 1.4l-.5.5c-.5-.6-1.1-1.1-1.7-1.5zm1 7.3-.6-.3c.5-1.4 1.1-2.8 1.5-4.3.2.1.4.2.6.3-.5 1.3-1 2.8-1.5 4.3zm-.4-10.3.4-.4c.4.3 1 .8 1.7 1.4l-.5.5c-.4-.5-1-1-1.6-1.5zm2.5.3h1.7v-1h.6v1h3.5v-1h.6v1h1.8v.5h-1.8v1.4h-2v1h3.2v2h-3.2v.9h3.3v.5h-3.4c0 .3-.1.6-.1.9h4v.5h-3.7c.7.9 1.9 1.5 3.8 1.7-.1.2-.2.4-.3.6-2.1-.4-3.5-1.1-4-2.1-.4 1-1.8 1.7-4 2.2-.1-.2-.2-.4-.3-.6 2.1-.4 3.4-1 3.8-1.8h-3.4v-.5h3.6c.1-.3.1-.6.2-.9h-3.3v-.5h3.4c0-.3 0-.6 0-.9h-3.2v-2h3.3v-1h-2.1v-1.4h-1.7v-.5zm1.1 3.5v1h2.7c0-.3 0-.4 0-.4 0-.1 0-.2 0-.2 0-.1 0-.2 0-.3h-2.7zm1.2-3v.9h3.5v-.9zm4.7 3h-2.6v.6.4h2.6z" fill="#fbfcfa"/><path d="m393.6 386.7h.6v1.5h2.7v6.1h1.1v.6h-11v-.6h1.1v-6.1h2.7v-1.5h.6v1.5h2.1v-1.5zm-2.7 8.8.4.6c-1.2.6-2.5 1.3-3.8 1.9-.1-.2-.2-.4-.3-.6 1.2-.6 2.5-1.2 3.7-1.9zm-2.2-6.7v2.4h2.1v-2.4zm0 3v2.5h2.1v-2.5zm2.8-3v2.4h2.1v-2.4zm0 3v2.5h2.1v-2.5zm6 6.1c-1.4-.7-2.7-1.3-3.9-1.8l.3-.6c1.5.6 2.7 1.2 3.9 1.7zm-1.2-9.1h-2.1v2.4h2.1zm-2.1 3v2.5h2.1v-2.5z" fill="#fbfcfa"/></svg>