<svg enable-background="new 0 0 400 400" viewBox="0 0 400 400" xmlns="http://www.w3.org/2000/svg"><g fill="#010102"><path d="m261.29 282.07c-22.33.94-44.7-2.13-66.65 3.75-1.24.33-3.19.13-4.07-.65-4.07-3.59-7.88-7.48-11.78-11.26.17-.4.35-.79.52-1.19h82.32c0-14.92 0-29.18 0-43.87-14.98 0-30 0-45.06 0 1.69 9.46-4.19 12.54-11.46 14.67-2.66.78-5.16 2.08-7.89 3.2 0-45.11 0-89.75 0-135.13 4.95 3.04 9.47 6.08 14.25 8.62 2.38 1.26 5.23 2.23 7.88 2.28 12.96.23 25.93.1 39.04.1 0-31.52 0-62.56 0-94.33 9.54 3.61 19.04 7.21 29.94 11.34-15.29 7.78-10.18 20.92-10.88 33.08 2.12.1 3.88.24 5.63.25 13 .02 26-.14 38.99.1 3.85.07 6.6-1.02 9.08-3.9 3.57-4.14 7.45-8.02 11.71-12.57 7.08 9.08 13.52 17.36 20.52 26.34-29.03 0-57.11 0-85.57 0v39.69h18.5c7.5 0 15.01-.27 22.49.1 4.16.21 6.89-1.1 9.11-4.51 1.89-2.91 4.22-5.53 6.67-8.67 7.09 6.13 13.96 12.07 20.86 18.04-.4.73-.53 1.37-.86 1.51-8.2 3.41-8.83 10.01-8.65 17.86.53 22.98-.94 46.09.98 68.93 1.12 13.33-1.94 21.48-14.05 26.39-1.61.65-3.03 1.79-5.21 3.11 0-5.88 0-10.98 0-16.51-15.81 0-31.17 0-46.89 0v43.43c1.57.1 3.16.3 4.75.3 15.5.02 31 .13 46.49-.11 2.34-.04 5.14-1.25 6.89-2.84 4.4-4.01 8.32-8.55 12.8-13.27 7.76 8.7 14.92 16.74 22.74 25.51-31.57 0-62.39 0-93.6 0-.17 2.04-.43 3.48-.4 4.92.5 24.95 1.07 49.9 1.48 74.86.02 1.52-.73 3.88-1.84 4.47-6.13 3.21-12.49 6-18.78 8.93 0-31.03 0-61.6 0-92.97zm65.93-101.59c-37.08 0-73.78 0-110.67 0v38.04h110.67c0-12.85 0-25.4 0-38.04zm-110.75-10.29h110.76c0-12.8 0-25.2 0-37.71-37.07 0-73.76 0-110.76 0z"/><path d="m159.79 110.98c8.37 6.4 16.24 12.41 25.11 19.19-13.37 3.78-12.83 13.7-12.59 24.08.65 28.29.74 56.59 1.12 84.89.16 11.45.24 11.46-10.43 15.98-2.73 1.16-5.47 2.28-8.96 3.73 0-4.1 0-7.62 0-11.39-27.53 0-54.43 0-81.23 0-.27.47-.61.78-.56 1.02 2.05 9.67-3.65 13.57-11.65 15.93-2.02.6-3.89 1.72-6.21 2.78 0-44.27 0-88.08 0-132.42-8.46 9.3-16.84 18.52-25.12 27.61-4.09-2.41-2.62-4.67-1.13-7.28 12.58-21.89 25.74-43.47 37.35-65.87 9.93-19.16 17.45-39.48 21.83-61.2 9.35 4.44 18.6 8.84 28.48 13.53-11.38 7.69-17 19.08-23.27 31.05 2.14.12 3.67.29 5.21.29 11.33.02 22.66-.14 33.98.1 3.51.07 5.94-.93 8.12-3.61 2.92-3.61 6.16-6.97 9.68-10.91 6.9 6.44 13.59 12.7 20.37 19.03-21.56 10.52-33.63 29.78-48.9 48.01 10.45 0 19.52.09 28.59-.13 1.08-.03 2.37-1.61 3.12-2.75 2.33-3.58 4.48-7.33 7.09-11.66zm-23.22-27.97c-15.64 0-30.28-.04-44.92.07-1.12.01-2.7.71-3.28 1.6-7.49 11.36-14.84 22.82-22.79 35.12 5.1 2.15 9.35 5.17 13.81 5.55 9.59.81 19.31.34 28.97.15 1.53-.03 3.73-.93 4.46-2.13 7.87-13.08 15.51-26.29 23.75-40.36zm-64.25 100.42h31.8c0-16.26 0-32.13 0-47.88-10.89 0-21.3 0-31.8 0zm49.37.06h31.86c0-16.21 0-32.08 0-47.98-10.79 0-21.19 0-31.86 0zm-17.53 53.75c0-14.72 0-29.08 0-43.49-10.85 0-21.27 0-31.89 0v43.49zm17.52 0h32.04c0-14.62 0-28.89 0-43.45-10.74 0-21.27 0-32.04 0z"/><path d="m59.33 280.06h5.76c-.57 16.46 1.96 32.8-2.05 48.88-3.15 12.62-12.46 18.73-25.28 17.37-3.63-.39-4.81-2.32-3.79-5.37.99-2.95 2.26-6.01 4.16-8.43 12.04-15.37 17.5-33.35 21.2-52.45z"/><path d="m151.36 310.98c.07 6.65-1.6 12.42-6.57 16.8-4.41 3.89-7.83 3.05-9.78-2.55-2.61-7.51-4.47-15.31-7.52-22.63-3.65-8.72-8.28-17.03-12.33-25.6-.6-1.27-.35-2.95-.49-4.43 1.46.21 3.34-.1 4.31.7 8.96 7.39 17.97 14.75 26.52 22.6 4.26 3.92 6.49 9.25 5.86 15.11z"/><path d="m82.65 276.35c2.1.19 4.33-.27 5.06.56 10.2 11.65 21.06 23.2 22.95 39.41 1.06 9.07-2.02 17.43-10.06 23.12-3.16 2.23-5.41 1.22-6.55-2.02-.98-2.79-1.79-5.8-1.84-8.73-.27-17.58-4.51-34.43-9.56-52.34z"/><path d="m140.02 263.79c2.22-2.96 4.55-2.83 7.26-.92 9.74 6.86 19.97 13.1 29.2 20.57 11.81 9.57 6.36 23.84-.54 31.82-2.07 2.4-4.27 2.33-6.04-.51-.52-.84-1.09-1.7-1.34-2.63-4.73-17.61-15.3-31.8-26.6-45.57-.71-.89-1.31-1.88-1.94-2.76z"/></g><path d="m374.8 390.4.4-.4c.7.5 1.3 1 1.8 1.4l-.5.5c-.5-.6-1.1-1.1-1.7-1.5zm1 7.3-.6-.3c.5-1.4 1.1-2.8 1.5-4.3.2.1.4.2.6.3-.5 1.3-1 2.8-1.5 4.3zm-.4-10.3.4-.4c.4.3 1 .8 1.7 1.4l-.5.5c-.4-.5-1-1-1.6-1.5zm2.5.3h1.7v-1h.6v1h3.5v-1h.6v1h1.8v.5h-1.8v1.4h-2v1h3.2v2h-3.2v.9h3.3v.5h-3.4c0 .3-.1.6-.1.9h4v.5h-3.7c.7.9 1.9 1.5 3.8 1.7-.1.2-.2.4-.3.6-2.1-.4-3.5-1.1-4-2.1-.4 1-1.8 1.7-4 2.2-.1-.2-.2-.4-.3-.6 2.1-.4 3.4-1 3.8-1.8h-3.4v-.5h3.6c.1-.3.1-.6.2-.9h-3.3v-.5h3.4c0-.3 0-.6 0-.9h-3.2v-2h3.3v-1h-2.1v-1.4h-1.7v-.5zm1.1 3.5v1h2.7c0-.3 0-.4 0-.4 0-.1 0-.2 0-.2 0-.1 0-.2 0-.3h-2.7zm1.2-3v.9h3.5v-.9zm4.7 3h-2.6v.6.4h2.6z" fill="#fbfcfa"/><path d="m393.6 386.7h.6v1.5h2.7v6.1h1.1v.6h-11v-.6h1.1v-6.1h2.7v-1.5h.6v1.5h2.1v-1.5zm-2.7 8.8.4.6c-1.2.6-2.5 1.3-3.8 1.9-.1-.2-.2-.4-.3-.6 1.2-.6 2.5-1.2 3.7-1.9zm-2.2-6.7v2.4h2.1v-2.4zm0 3v2.5h2.1v-2.5zm2.8-3v2.4h2.1v-2.4zm0 3v2.5h2.1v-2.5zm6 6.1c-1.4-.7-2.7-1.3-3.9-1.8l.3-.6c1.5.6 2.7 1.2 3.9 1.7zm-1.2-9.1h-2.1v2.4h2.1zm-2.1 3v2.5h2.1v-2.5z" fill="#fbfcfa"/></svg>