<svg enable-background="new 0 0 400 400" viewBox="0 0 400 400" xmlns="http://www.w3.org/2000/svg"><g fill="#010102"><path d="m50.2 137.24c-5.41 6.4-10.92 12.92-16.45 19.46-3.82-2.48-2.81-4.79-1.26-7.49 14.54-25.22 28.28-50.86 38.92-78 5.24-13.37 9.54-27.11 14.4-41.06 8.29 3.94 17.7 8.4 27.53 13.07-11.63 6.33-17.22 17.04-23.9 28.37h10.67c9.83 0 19.67.19 29.48-.14 2.31-.08 5.01-1.43 6.74-3.04 3.63-3.39 6.73-7.34 9.85-10.83 6.45 6.47 12.78 12.81 18.79 18.84-20.53 9.85-31.93 29.32-46.72 47.47 11.04 0 20.76.09 30.48-.12 1.12-.02 2.36-1.64 3.28-2.74 3.08-3.69 6.03-7.47 9.27-11.51 6.73 6.26 13.13 12.21 19.76 18.38-1.16 1.04-1.77 1.9-2.61 2.29-7.63 3.52-8.75 9.63-8.61 17.46.48 26.15.13 52.31.25 78.47.03 5.98.8 11.95.89 17.93.02 1.45-.96 3.67-2.11 4.24-5.64 2.76-11.49 5.08-17.74 7.76 0-3.44 0-6.35 0-9.62-27.26 0-54.17 0-81.15 0-.14.17-.57.47-.53.67 1.68 8.28-3.24 11.41-10.08 13.39-3.14.91-6.08 2.51-9.14 3.81-.01-42.66-.01-84.95-.01-127.06zm12.39-18.69c5.58 2.09 9.9 4.81 14.39 5.16 9.43.74 18.95.39 28.43.08 1.83-.06 4.32-1.56 5.28-3.14 7.02-11.47 13.74-23.12 20.52-34.73.77-1.32 1.38-2.74 2.37-4.74-15.4 0-29.86-.05-44.31.08-1.24.01-2.95.89-3.63 1.9-7.5 11.32-14.84 22.73-23.05 35.39zm39.04 15.8c-10.99 0-21.53 0-32.11 0v46.08h32.11c0-15.47 0-30.56 0-46.08zm-.05 56.4c-10.79 0-21.33 0-32.07 0v44.89h32.07c0-15.09 0-29.82 0-44.89zm49.07-10.19c0-15.61 0-30.95 0-46.16-10.73 0-21.11 0-31.28 0v46.16zm-31.43 55.18h31.47c0-15.13 0-29.99 0-44.93-10.68 0-21.05 0-31.47 0z"/><path d="m359.94 224.55c.94 1.19 1.79 2.41 2.79 3.51 4.45 4.92 8.94 9.8 13.35 14.62-.16.53-.16 1.01-.35 1.11-11.43 6.04-8.22 17.39-9.52 26.91-3.18 23.36-5.93 46.77-8.79 70.17-1.9 15.53-11.42 25.77-28.18 32.93-4.46-18.26-19.56-23.79-35.09-28.95 0-1.53 0-2.98 0-5.03 7.4.78 14.59 1.59 21.8 2.27 4.3.41 8.65.37 12.92.96 5.63.77 8.76-2.15 9.87-6.96 1.97-8.55 3.86-17.18 4.81-25.88 2.13-19.66 3.67-39.38 5.43-59.08.1-1.12.01-2.26.01-3.69-1.69-.1-3.15-.26-4.61-.26-42-.01-84 .03-125.99-.09-3.78-.01-5.02.92-5.35 4.92-3.76 45.83-20.64 85.27-56.76 115.2-1.79 1.49-3.67 2.91-5.27 4.59-2.28 2.39-4.23 2.16-6.42-.55 4.61-6.09 9.23-12.32 13.96-18.46 19.15-24.85 29.07-53.4 34.5-83.97 6.14-34.52 4.8-69.28 4.54-104.03-.07-9.78-.01-19.56-.01-29.72 5.04 2.83 10.26 5.98 15.68 8.71 2.26 1.14 4.97 1.95 7.47 1.96 28 .14 56-.04 83.99.2 4.99.04 8.62-1.08 11.24-5.41 1-1.65 2.6-2.93 4.22-4.71 5.76 5.29 11.2 10.31 17.37 15.98-9.29 2.51-10.08 9.82-11.42 16.87-1.48 7.77-3.12 15.5-4.72 23.39 8.63 2.49 8.77-6.34 13.75-9.2 5.18 4.73 10.56 9.64 16.79 15.32-.89.36-1.49.66-2.12.86-7.27 2.32-9.16 7.9-9.64 14.83-.53 7.59-1.75 15.14-2.69 22.83 12.11 4.93 15.31-6.6 22.44-12.15zm-144.1 12.77h102.95c1.46-11.59 2.9-23.04 4.38-34.76-35.92 0-71.25 0-107.33 0zm.6-45.06h86.32c2.42-12.08 4.83-24.06 7.32-36.47-31.53 0-62.53 0-93.64 0z"/><path d="m187.93 67.95c0-3.23 0-4.72 0-6.33 49.9-7.71 100.62-11.28 148.47-31.67 5.24 7.85 10.71 16.05 16.43 24.61-55.28 4.49-109.82 8.92-164.9 13.39z"/><path d="m302.33 137.86c-1.71-1.3-3.39-2.59-5.19-3.97 11.79-21.38 24.02-42.15 30.48-66.51 8.35 5.56 16.53 10.99 24.94 16.59-21.4 13.87-34.76 34.5-50.23 53.89z"/><path d="m63.16 279.43c-.96 15.39-.89 30.91-3.17 46.07-1.99 13.18-10.73 18.55-24.07 17.89-4.92-.24-6.28-2.16-4.46-6.77.91-2.3 2.07-4.6 3.58-6.54 10.87-13.96 16.92-30.03 20.48-47.11.85-4.01 2.36-5.08 7.64-3.54z"/><path d="m228.44 116.1c-1.25 9.3-4.53 15.22-10.34 19.7-2.52 1.94-4.9 1.31-6.31-1.21-1.51-2.7-2.87-5.65-3.51-8.66-3.12-14.61-9.38-27.87-16.74-40.73-.81-1.41-.6-3.41-.86-5.14 1.57.37 3.53.26 4.64 1.18 8.92 7.42 18.05 14.65 26.3 22.77 3.52 3.48 5.11 8.93 6.82 12.09z"/><path d="m250.61 70.4c11.59 11.03 24.41 21.14 28.81 37.73 2.2 8.28-4.44 20.35-12.62 23.12-4.81 1.63-5.18-2.46-5.74-5.32-1.15-5.84-1.32-11.91-2.82-17.64-2.85-10.9-6.41-21.62-9.5-32.46-.45-1.58.09-3.44.18-5.17.56-.09 1.13-.18 1.69-.26z"/><path d="m114.37 269.19c9.46 8.27 19.25 16.2 28.3 24.9 10.02 9.63 6.47 24.12-.29 30.36-4.63 4.28-8.61 3.84-10.03-2.1-4.11-17.17-12.17-32.52-20.49-47.82-.61-1.11-.08-2.85-.08-4.29.87-.35 1.73-.7 2.59-1.05z"/><path d="m80.6 274.61c1.54.33 3.95.12 4.68 1.13 6.98 9.65 14.62 19 20.17 29.45 5.2 9.79 3.43 20.11-4.5 28.49-1.77 1.87-4.64 2.69-7.01 4-1.35-2.69-3.41-5.26-3.91-8.11-.99-5.7-.67-11.63-1.71-17.32-2.21-12.18-4.94-24.29-7.72-37.64z"/><path d="m140.48 262.74c2.32-.36 4.19-1.29 5.18-.71 9.73 5.66 19.66 11.08 28.84 17.54 12.02 8.46 8.44 20.18 1.75 28.59-2.38 2.99-5.03 2.89-7.4-.21-.5-.66-1.04-1.34-1.33-2.1-6.03-15.68-15.79-29.06-27.04-43.11z"/><path d="m221.36 279.97h4.15c.29.37.66.63.67.89.2 16.27.43 32.56-7.12 47.65-1.17 2.34-2.7 4.63-4.54 6.47-3.05 3.06-6.75 4.27-10.82 1.78-3.85-2.36-5.54-6.83-3.84-11.14 1.14-2.89 2.53-5.9 4.57-8.16 8.76-9.68 13.17-21.3 15.9-33.77.25-1.12.61-2.22 1.03-3.72z"/><path d="m278.14 273.89c1.28-.79 2.5-1.55 4.14-2.57 8.1 10.1 16.38 19.78 20.19 32.3 2.15 7.05-.95 16.87-6.3 20.69-5.63 4.01-9.42 2.44-10.38-4.36-1.64-11.61-3.15-23.24-4.9-34.83-.54-3.57-1.71-7.05-2.75-11.23z"/><path d="m246.14 278.91c8.78 11.16 17.08 21.79 20.36 35.16 1.79 7.29-4.63 17.87-11.76 19.78-3.03.81-4.93-.63-5.59-3.41-.65-2.72-.9-5.55-1.13-8.35-1.04-12.69-2.07-25.38-2.95-38.09-.11-1.67.69-3.39 1.07-5.09z"/><path d="m315.64 264.11c5.85 8.27 12.52 16.6 17.93 25.68 5 8.39 3.85 17.37-1.52 25.47-1.14 1.73-3.77 3.66-5.48 3.46-1.42-.17-3.15-3.17-3.6-5.17-1.85-8.24-2.91-16.66-4.95-24.85-1.56-6.25-3.9-12.35-6.37-18.31-1.45-3.5-.98-5.31 3.99-6.28z"/></g><path d="m374.8 390.4.4-.4c.7.5 1.3 1 1.8 1.4l-.5.5c-.5-.6-1.1-1.1-1.7-1.5zm1 7.3-.6-.3c.5-1.4 1.1-2.8 1.5-4.3.2.1.4.2.6.3-.5 1.3-1 2.8-1.5 4.3zm-.4-10.3.4-.4c.4.3 1 .8 1.7 1.4l-.5.5c-.4-.5-1-1-1.6-1.5zm2.5.3h1.7v-1h.6v1h3.5v-1h.6v1h1.8v.5h-1.8v1.4h-2v1h3.2v2h-3.2v.9h3.3v.5h-3.4c0 .3-.1.6-.1.9h4v.5h-3.7c.7.9 1.9 1.5 3.8 1.7-.1.2-.2.4-.3.6-2.1-.4-3.5-1.1-4-2.1-.4 1-1.8 1.7-4 2.2-.1-.2-.2-.4-.3-.6 2.1-.4 3.4-1 3.8-1.8h-3.4v-.5h3.6c.1-.3.1-.6.2-.9h-3.3v-.5h3.4c0-.3 0-.6 0-.9h-3.2v-2h3.3v-1h-2.1v-1.4h-1.7v-.5zm1.1 3.5v1h2.7c0-.3 0-.4 0-.4 0-.1 0-.2 0-.2 0-.1 0-.2 0-.3h-2.7zm1.2-3v.9h3.5v-.9zm4.7 3h-2.6v.6.4h2.6z" fill="#fbfcfa"/><path d="m393.6 386.7h.6v1.5h2.7v6.1h1.1v.6h-11v-.6h1.1v-6.1h2.7v-1.5h.6v1.5h2.1v-1.5zm-2.7 8.8.4.6c-1.2.6-2.5 1.3-3.8 1.9-.1-.2-.2-.4-.3-.6 1.2-.6 2.5-1.2 3.7-1.9zm-2.2-6.7v2.4h2.1v-2.4zm0 3v2.5h2.1v-2.5zm2.8-3v2.4h2.1v-2.4zm0 3v2.5h2.1v-2.5zm6 6.1c-1.4-.7-2.7-1.3-3.9-1.8l.3-.6c1.5.6 2.7 1.2 3.9 1.7zm-1.2-9.1h-2.1v2.4h2.1zm-2.1 3v2.5h2.1v-2.5z" fill="#fbfcfa"/></svg>