<svg enable-background="new 0 0 400 400" viewBox="0 0 400 400" xmlns="http://www.w3.org/2000/svg"><g fill="#fbfcfa"><path d="m346.9 398 5.4-7.3h-5.2v-.6h5.9v.6l-5.4 7.2h5.5l-.1.6h-6.2v-.5z"/><path d="m354.7 390.1h2.8c2.3 0 3.9 1.6 3.9 4.1s-1.6 4.3-3.9 4.3h-2.8zm.6 7.8h2c2.2 0 3.3-1.6 3.3-3.6 0-1.8-1-3.6-3.3-3.6h-2z"/><path d="m363.9 390.1v8.4h-.6v-8.4z"/><path d="m372.5 396.3c-.4 1.3-1.4 2.3-3.2 2.3-2.4 0-3.7-1.9-3.7-4.3 0-2.3 1.2-4.3 3.7-4.3 1.8 0 2.9 1 3.2 2.4h-.6c-.4-1.1-1.1-1.8-2.5-1.8-2.1 0-3 1.9-3 3.7s.9 3.7 3 3.7c1.4 0 2.1-.7 2.5-1.7z"/><path d="m373.8 398.5v-1.5h.6v1.5z"/><path d="m376.2 398.5v-8.4h1c1.3 2 4.4 6.7 4.9 7.6-.1-1.2-.1-2.4-.1-3.8v-3.8h.7v8.4h-.9c-1.2-1.9-4.4-6.8-5-7.7.1 1.1 0 2.3 0 3.9v3.9h-.6z"/><path d="m390 394.4h-4.3v3.5h4.7l-.1.6h-5.2v-8.4h5.1v.6h-4.5v3.1h4.3v.7z"/><path d="m394.2 390.7h-2.8v-.6h6.3v.6h-2.8v7.8h-.7z"/></g><path d="m75.6 197.77v29.51c1.84.11 3.59.29 5.34.29 27.16.02 54.32-.06 81.49.1 3.74.02 6.22-1 8.33-4.1 2.42-3.55 5.36-6.75 8.46-10.59 6.65 5.68 13.13 11.21 19.52 16.66-.33.74-.38 1.18-.6 1.28-11.26 5.44-8.85 16.09-9.74 25.49-2.09 22.15-3.76 44.35-6.49 66.42-1.4 11.31-3.95 22.66-12.39 31.47-9.8 10.23-22.1 14.95-36.18 16.81-4.46-17.12-18.95-20.45-33.16-23.56-4.87-1.06-6.2-2.72-4.71-7.68 6.26.77 12.6 1.68 18.96 2.29 7.61.74 15.23 1.56 22.86 1.74 12.31.29 20.23-5.15 23.5-17.26 2.49-9.24 4.03-18.86 4.81-28.41 1.55-19.05 2.28-38.16 3.34-57.25.05-.99.01-1.98.01-3.4-31.05 0-61.92 0-93.2 0-.11 1.4-.53 2.9-.29 4.29.98 5.51-1.4 8.14-6.75 9.08-4.05.71-7.99 2.09-12.34 3.26 0-64.59 0-128.82 0-193.71 4.66 2.48 9.16 4.54 13.31 7.16 5.74 3.63 11.97 1.91 18 2.04.95.02 2.39-2.09 2.86-3.47 4.3-12.52 8.43-25.1 12.69-37.89 8.74 3.74 18.27 7.82 28.99 12.41-15.15 5.34-21.46 18.49-32.36 29.15h21.72c7.17 0 14.34-.24 21.49.09 4.04.19 6.97-.84 9.34-4.17 1.8-2.53 4.09-4.72 6.42-7.35 6.15 5.22 12.05 10.23 17.88 15.17-.33.7-.38 1.14-.59 1.23-8.23 3.71-9.5 10.27-9.14 18.67.9 21.09.88 42.22 1.23 63.74-5.93 2.52-12.3 5.24-19.08 8.12-.23-3.03-.41-5.44-.61-8.1-24.35 0-48.42 0-72.81 0v30.59h5.48c26.66 0 53.32-.07 79.99.08 3.67.02 6.15-.82 8.31-3.99 2.7-3.96 6.08-7.46 9.68-11.77 7.45 8.33 14.79 16.53 22.83 25.52-42.6.04-84.27.04-126.4.04zm72.93-50.99c0-9.82 0-19.06 0-28.54-24.36 0-48.42 0-72.8 0v28.54zm.04-66.4c-24.43 0-48.6 0-72.82 0v27.24h72.82c0-9.22 0-18.13 0-27.24z" fill="#010103"/><path d="m324.23 169.23c-14.02-9.16-27.86-18.21-42.26-27.63-24.6 20.39-53.14 35.11-84.68 44.31-2.15-3.45-1.88-5.29 2.13-7.29 23.74-11.84 46.57-25.12 65.63-43.97.95-.94 1.86-1.91 2.74-2.91.54-.62 1-1.32 1.29-1.71-12.62-14.03-25.14-27.96-37.84-42.09 2.14-1.44 3.36-2.26 4.63-3.12 14.48 11.15 28.83 22.19 43.58 33.55 12.88-16.13 23.19-33.22 30.97-52.52 8.79 6.45 17.43 12.78 26.05 19.11-.17.39-.3.89-.4.88-7.43-.4-11.83 3.53-16.11 9.32-8.38 11.33-17.73 21.95-26.92 33.15 25.36 17.13 53.22 27.47 83.68 32.09v6.58c-8.52 1.5-15.62 5.58-20.6 13.11-.49.75-3.01.76-4.28.29-6.54-2.4-12.98-5.06-20.09-7.19 4.9 5.36 9.8 10.71 15.26 16.68-36.33 4.92-71.88 9.74-107.77 14.6v35.85c1.72.08 3.48.24 5.23.24 29.66.02 59.33.09 88.99-.13 2.62-.02 5.72-1.43 7.74-3.18 4.37-3.78 8.19-8.2 12.65-12.79 7.18 8.58 13.92 16.64 21.4 25.59-17.89 0-34.62 0-51.8 0-.12 2.08-.29 3.68-.29 5.28.06 26.66.08 53.32.26 79.98.06 8.15.51 16.3.98 24.43.17 3-.45 4.89-3.47 6.24-6.2 2.76-12.2 5.96-18.49 9.08 0-41.66 0-82.87 0-124.49-20.73 0-41.77 0-63.47 0 0 9.09-.12 18.19.03 27.29.25 15.86-2.91 31.01-8.73 45.71-8.89 22.47-25.63 37.99-44.76 51.52-3.22-3.13-2.99-5.42-.1-8.6 23.1-25.45 35.03-55.23 34.61-89.86-.32-25.66-.12-51.33-.27-76.99-.03-4.94-.6-9.87-.98-15.67 3.53 1.74 6.49 2.87 9.1 4.54 6.91 4.43 13.89 5.31 22.12 3.55 24.24-5.17 48.22-10.96 70.92-21.19 1.2-.49 2.31-1.12 3.32-1.64z" fill="#010103"/><path d="m299.06 39.11c.97-1.94 1.76-3.52 2.72-5.44 21.02 8.6 41.95 16.76 59.91 30.58 11.1 8.54 13.2 19.78 6.73 30.82-3.1 5.29-7.04 5.79-11.22 1.38-1.14-1.21-2.35-2.45-3.11-3.89-11.42-21.45-30.23-35.51-49.27-49.34-1.85-1.34-3.73-2.66-5.76-4.11z" fill="#010103"/><path d="m271.03 50.17c-.5.53-.59.71-.69.72-10.47.43-17.21 7.02-24.23 13.8-14.73 14.23-30.63 27.07-48.38 37.46-2.12 1.24-4.3 2.37-6.37 3.5-3.23-2.31-2.86-4.06-.33-6.48 17.71-16.93 34.24-34.88 47.56-55.57 2.23-3.46 4.17-7.09 6.51-11.09 8.77 5.97 17.31 11.79 25.93 17.66z" fill="#010103"/><path d="m51.18 267.01h5.89c.24 9.84.95 19.57.53 29.25-.27 6.21-1.65 12.51-3.52 18.47-2.04 6.5-7.33 10.16-13.95 11.46-4.25.83-8.07-.56-10.42-4.3-2.18-3.47-1.26-7.03.95-10.28.65-.96 1.16-2.09 2-2.85 12.11-11.14 16.52-25.71 18.52-41.75z" fill="#010103"/><path d="m69.82 264.75c2.46-2.55 5.01-2.29 7.88 1.25 7.64 9.42 16.31 18.28 18.67 30.75 1.38 7.31-.62 14.2-6 19.6-4.65 4.67-9.12 3.66-10.55-2.71-1.37-6.1-1.09-12.57-2.39-18.7-2.13-9.99-4.95-19.82-7.61-30.19z" fill="#010103"/><path d="m131.25 249.65c1.47-1.82 3.4-1.58 5.94.65 8.72 7.66 18.24 14.53 24.01 25 4.71 8.55 2.86 17.42-4.7 22.89-4.56 3.3-7.72 2.5-9.41-2.91-1.32-4.24-1.38-8.89-2.91-13.03-3.92-10.68-8.35-21.17-12.93-32.6z" fill="#010103"/><path d="m101.32 259.3c2.2-2.68 4.28-2.67 6.61-.16 5.86 6.33 12.32 12.17 17.62 18.93 6.58 8.38 5.96 19.87-.4 26.59-4.77 5.03-8.4 4.59-10.56-1.94-2.12-6.42-2.99-13.25-4.97-19.73-2.42-7.91-5.45-15.64-8.3-23.69z" fill="#010103"/></svg>