<svg enable-background="new 0 0 400 400" viewBox="0 0 400 400" xmlns="http://www.w3.org/2000/svg"><g fill="#fbfcfa"><path d="m346.9 398 5.4-7.3h-5.2v-.6h5.9v.6l-5.4 7.2h5.5l-.1.6h-6.2v-.5z"/><path d="m354.7 390.1h2.8c2.3 0 3.9 1.6 3.9 4.1s-1.6 4.3-3.9 4.3h-2.8zm.6 7.8h2c2.2 0 3.3-1.6 3.3-3.6 0-1.8-1-3.6-3.3-3.6h-2z"/><path d="m363.9 390.1v8.4h-.6v-8.4z"/><path d="m372.5 396.3c-.4 1.3-1.4 2.3-3.2 2.3-2.4 0-3.7-1.9-3.7-4.3 0-2.3 1.2-4.3 3.7-4.3 1.8 0 2.9 1 3.2 2.4h-.6c-.4-1.1-1.1-1.8-2.5-1.8-2.1 0-3 1.9-3 3.7s.9 3.7 3 3.7c1.4 0 2.1-.7 2.5-1.7z"/><path d="m373.8 398.5v-1.5h.6v1.5z"/><path d="m376.2 398.5v-8.4h1c1.3 2 4.4 6.7 4.9 7.6-.1-1.2-.1-2.4-.1-3.8v-3.8h.7v8.4h-.9c-1.2-1.9-4.4-6.8-5-7.7.1 1.1 0 2.3 0 3.9v3.9h-.6z"/><path d="m390 394.4h-4.3v3.5h4.7l-.1.6h-5.2v-8.4h5.1v.6h-4.5v3.1h4.3v.7z"/><path d="m394.2 390.7h-2.8v-.6h6.3v.6h-2.8v7.8h-.7z"/></g><path d="m64.96 50.18c2.04.97 3.34 1.37 4.39 2.12 10.8 7.67 22.79 9.19 35.85 8.91 31.48-.66 62.99-.21 94.49-.21h6.34c-5.56-11.74-11.88-22.02-22.74-29.05.93-3.62 2.79-4.53 6.45-3.26 7.51 2.61 15.44 4.17 22.7 7.3 13.27 5.72 15.07 12.38 7.32 24.78 1.47.08 2.7.21 3.93.21 35.16.01 70.33.06 105.49-.11 2.33-.01 5.02-1.32 6.89-2.83 4.76-3.85 9.16-8.16 14.07-12.63 7.87 8.33 15.57 16.47 24.15 25.55-40.75 0-80.26 0-120.03 0v24.8c1.62.08 3.23.22 4.83.22 16.83.02 33.67-.08 50.5.09 3.35.03 5.59-.98 7.65-3.53 2.91-3.61 6.18-6.94 9.61-10.73 7.45 5.57 14.74 11.02 22.69 16.95-2.98 1.58-5.76 2.62-7.98 4.38-1.53 1.21-3.23 3.41-3.22 5.17.02 8.64.44 17.3 1.02 25.93.21 3.04-.58 4.45-3.62 5.3-5.72 1.61-11.31 3.71-17.31 5.72-.26-1.9-.48-3.46-.75-5.44-25.62 0-51.28 0-76.95 0-.05.2-.1.4-.15.6 7.74 1.69 15.48 3.38 23.23 5.06.38.32.76.64 1.14.96-11.52 5.07-15.43 13.46-11.92 25.39 24.34-4.77 48.16-11.93 70.8-24.4 4.54 6.32 9.05 12.6 13.78 19.18-28.78 4.05-56.96 8.02-84.91 11.96-1.57 12.24 1.17 17.56 9.44 19.12 1.94.37 3.98.29 5.98.29 18 .02 36 .02 54 .01 14.08-.01 20.81-6.29 21.81-20.28.22-3.13.58-6.24.89-9.61h5.78c1.16 5.88 2.09 11.9 3.59 17.78 1.67 6.52 6.66 10.08 12.88 12.43-15.39 17.54-36.12 13.27-56.8 13.98 6.79 6.35 12.64 11.83 18.42 17.25-.34.6-.44 1.07-.67 1.15-8.48 2.65-9.52 8.87-8.97 16.71.85 11.93.8 23.92 1.15 36.57-5.76 1.66-12.2 3.52-18.9 5.45-.3-1.91-.53-3.34-.81-5.09-20.93 0-41.87 0-62.8 0-.08.17-.15.35-.23.52 8.3 2.55 16.59 5.11 25.49 7.85-4.28 3.41-9.61 5.71-11.43 9.63-1.9 4.1-.42 9.77-.42 15.42 24.85-5.73 49.55-10.56 71.64-24.43 6.65 6.21 13.41 12.52 21.09 19.69-31.49 4.45-61.93 8.75-92.74 13.1 0 5.21-.29 10.2.08 15.14.4 5.37 6.24 9.36 13.95 9.66 6.49.25 13 .09 19.5.1 14.33.01 28.66.01 43 0 1.83 0 3.68.05 5.49-.15 10.18-1.12 13.18-3.87 15.1-13.85.59-3.09 1.03-6.22 1.37-9.35.34-3.11.46-6.25.69-9.58h5.7c-.73 13.59 2.75 25.66 14.14 34.35-5.71 9.59-14.46 13.41-24.81 13.6-27.14.51-54.28.76-81.42.89-4.6.02-9.3-.7-13.8-1.73-12.74-2.9-17.92-9.55-18.05-22.57-.15-15.83-.21-31.66-.42-47.49-.05-3.47-.56-6.94-.88-10.77-32.9 0-65.82 0-98.78 0-1.56 6.82-7.9 3.55-12.98 5.73 7.18 2.49 13.46 4.66 20.76 7.18-6.77 4.15-12.8 8.24-8.7 17.55h18.23c3.33 0 6.69-.23 10 .04 11.49.95 22.38.26 29.37-9.72 6.62 6.59 12.81 12.74 19.34 19.25-25.88 0-51.74 0-77.77 0v28.26c25.09-5.29 49.97-10.54 75.24-15.87.52 1.59 1.01 3.08 1.66 5.08-30.14 9.24-61.14 16.03-88.87 33.22-4.47-5.34-9.12-10.88-13.98-16.69 6.55-5.25 7.41-12.35 7.4-19.92-.02-19.83.11-39.66.33-59.48.16-14.47.71-28.94.8-43.42.04-5.76-.7-11.53-1.13-17.91 3.95.78 7.26 1.43 11.35 2.23-3.49-5.59-6.56-10.5-9.94-15.9 7.39-5.65 7.12-13.82 7.01-22.1-.19-13.96-.05-27.93-.05-42.18-11.36 0-22.27 0-33.49 0-.13 1.36-.3 2.46-.32 3.58-.39 20.98 0 42-1.29 62.92-2.34 37.66-5.37 75.28-21.58 110.34-8.69 18.79-19.35 36.29-32.05 52.78-.8-.34-1.43-.53-1.98-.85-.7-.41-1.34-.93-1.72-1.2 6.04-14.75 12.46-29.11 17.84-43.84 10.02-27.43 15.2-55.87 17.74-84.99 3.54-40.7 4.23-81.43 3.63-122.22-.3-20.12-1.19-40.24-1.8-60.36-.08-1.67-.04-3.32-.04-5.69zm240.46 161.99c-2.99 0-4.79 0-6.59 0-13.16 0-26.32.33-39.47-.08-17.12-.52-25.34-9.41-25.57-26.43-.19-13.81-.7-27.61-.94-41.41-.06-3.42-.96-4.96-4.87-4.94-31.66.16-63.32.09-94.98.11-.75 0-1.5.35-3.22.78 7.02 1.93 12.94 3.56 19.63 5.4-5.51 4.72-14.71 6.29-9.98 16.21 7.93 0 15.99-.67 23.89.16 10.59 1.12 19.16-1.61 25.91-9.91.5-.61 1.27-1 2.21-1.72 7.14 6.73 14.17 13.36 21.2 19.99-.19.4-.38.81-.57 1.21-24.39 0-48.78 0-73.24 0v27.88c.9-.09 1.38-.09 1.83-.18 22.87-4.9 45.76-9.72 68.6-14.8 3.05-.68 4.42-.24 4.76 3.13-27.61 10.2-56.1 18.51-81.99 34.46 1.17.58 1.44.83 1.72.83 53.82.03 107.64.05 161.47-.02 1.28 0 2.95-.71 3.75-1.67 2.11-2.49 3.86-5.31 6.45-9zm-174.07 36.55h169.11c0-5.33 0-10.38 0-15.34-56.56 0-112.75 0-169.11 0zm.11 24.91h169.08c0-4.87 0-9.44 0-14.26-56.47 0-112.66 0-169.08 0zm24.79-202.26c-23.41 0-46.49 0-69.66 0v24.25h69.66c0-8.3 0-16.23 0-24.25zm-69.8 58.21h69.67c0-7.92 0-15.6 0-23.1-23.53 0-46.58 0-69.67 0zm231.38-23.15c-21.54 0-42.54 0-63.48 0v23.02h63.48c0-7.82 0-15.26 0-23.02zm-84.43-10.72c0-8.33 0-16.36 0-24.45-19.05 0-37.68 0-56.65 0v24.45zm-56.63 33.78h56.71c0-7.9 0-15.45 0-23.11-19.08 0-37.81 0-56.71 0z" fill="#010103"/></svg>