<svg enable-background="new 0 0 400 400" viewBox="0 0 400 400" xmlns="http://www.w3.org/2000/svg"><g fill="#fbfcfa"><path d="m346.9 398 5.4-7.3h-5.2v-.6h5.9v.6l-5.4 7.2h5.5l-.1.6h-6.2v-.5z"/><path d="m354.7 390.1h2.8c2.3 0 3.9 1.6 3.9 4.1s-1.6 4.3-3.9 4.3h-2.8zm.6 7.8h2c2.2 0 3.3-1.6 3.3-3.6 0-1.8-1-3.6-3.3-3.6h-2z"/><path d="m363.9 390.1v8.4h-.6v-8.4z"/><path d="m372.5 396.3c-.4 1.3-1.4 2.3-3.2 2.3-2.4 0-3.7-1.9-3.7-4.3 0-2.3 1.2-4.3 3.7-4.3 1.8 0 2.9 1 3.2 2.4h-.6c-.4-1.1-1.1-1.8-2.5-1.8-2.1 0-3 1.9-3 3.7s.9 3.7 3 3.7c1.4 0 2.1-.7 2.5-1.7z"/><path d="m373.8 398.5v-1.5h.6v1.5z"/><path d="m376.2 398.5v-8.4h1c1.3 2 4.4 6.7 4.9 7.6-.1-1.2-.1-2.4-.1-3.8v-3.8h.7v8.4h-.9c-1.2-1.9-4.4-6.8-5-7.7.1 1.1 0 2.3 0 3.9v3.9h-.6z"/><path d="m390 394.4h-4.3v3.5h4.7l-.1.6h-5.2v-8.4h5.1v.6h-4.5v3.1h4.3v.7z"/><path d="m394.2 390.7h-2.8v-.6h6.3v.6h-2.8v7.8h-.7z"/></g><path d="m120.34 216.88v39.61c24.23-3.86 48.11-7.66 72.12-11.48 1.61 3.94.15 5.38-3.77 6.5-36.36 10.37-72.75 20.64-108.91 31.67-13.1 3.99-25.59 9.96-38.77 15.19-4.14-8.31-8.7-17.43-13.51-27.08 12.48-1.85 24.41-3.53 36.31-5.4 12.13-1.9 24.25-3.91 36.33-6.1 1.08-.2 2.66-1.99 2.67-3.07.19-12.98.12-25.96.12-39.24-11.48 0-22.71-.03-33.95.03-1.64.01-3.47.03-4.9.71-12.42 5.96-18.51-2.66-25.34-11.16h63.85c0-14.75 0-29 0-43.66-12.77 0-25.66 0-39.41 0 0 2.88-.17 5.97.05 9.03.2 2.88-.93 4.11-3.72 4.76-5.1 1.18-10.11 2.76-15.29 4.22 0-49.7 0-98.74 0-148.41 5.23 3.06 10.29 6.39 15.68 9.04 3.13 1.54 6.78 2.8 10.2 2.83 28.66.22 57.31.06 85.97.2 3.81.02 6.54-.76 8.73-4.15 2.23-3.45 5.13-6.46 7.48-9.35 7.08 7.09 13.97 13.99 21 21.04.12-.23.04.22-.17.29-9.53 3.4-10.55 10.62-10.3 19.67.68 25.14.47 50.3.59 75.45.04 7.79.01 15.59.01 23.93-5.92 2.1-12.41 4.4-19.37 6.86 0-5.48 0-10.28 0-15.45-14.65 0-29.02 0-43.69 0v43.57c7.44 0 14.94-.63 22.28.15 9.96 1.06 17.73-1.22 23-10.3 1.72-2.96 4.46-5.34 7.18-8.51 7.13 9.48 14.06 18.69 21.5 28.6-25.08.01-49.3.01-73.97.01zm.02-161.65v64.42c.53.2 1.06.4 1.59.59 7.16-15.85 14.31-31.69 21.51-47.62 5.29 4.51 11.14 9.49 16.48 14.04-12.63 13.06-24.79 25.6-36.88 38.2-1.21 1.26-2.78 2.92-2.84 4.44-.29 7.75-.13 15.52-.13 23.4h43.56c0-32.6 0-64.95 0-97.45-14.49-.02-28.61-.02-43.29-.02zm-56.78.08v97.24h39.06c0-32.59 0-64.8 0-97.24-13.06 0-25.82 0-39.06 0z" fill="#010103"/><path d="m286.45 218.81c11.33 0 22.29.09 33.24-.12 1.3-.02 2.84-1.47 3.8-2.64 4.63-5.65 9.1-11.43 13.98-17.61 7.49 9.82 14.7 19.28 22.69 29.76-25.16 0-49.28 0-73.68 0v118.73h8.89c9 0 18.04-.58 26.98.17 7.92.66 13.68-1.77 18.52-7.86 3.09-3.89 6.84-7.26 10.86-11.46 7.62 9.48 14.84 18.49 22.99 28.63-2.8 0-4.63 0-6.46 0-41.49 0-82.98 0-124.48 0-15.8 0-31.61-.26-47.1 3.8-1.03.27-2.67-.1-3.44-.81-4.01-3.68-7.82-7.56-12.74-12.39h85.25c0-39.69 0-78.78 0-118.32-10.8 0-21.57-.26-32.33.1-5.94.2-11.83 1.53-17.77 2.08-1.24.12-2.84-.67-3.84-1.54-3.38-2.95-6.56-6.12-10.93-10.26h64.78c0-33.54 0-66.44 0-100.01-3.07 0-6.18-.13-9.27.02-15.43.77-30.85 1.63-46.28 2.38-1.16.06-2.66-.22-3.47-.94-3.46-3.07-6.71-6.37-10.04-9.58.13-.45.25-.9.38-1.35h5.6c37.99 0 75.99-.05 113.98.08 3.48.01 5.92-.92 8.17-3.58 3.97-4.69 8.26-9.11 12.76-14.03 7.89 8.81 15.61 17.42 24.09 26.89-25.57 0-50.21 0-75.11 0-.02 33.46-.02 66.23-.02 99.86z" fill="#010103"/><path d="m241.27 31.32c2.58-.38 4.95-1.52 6.18-.78 13.07 7.93 26.01 16.13 35.53 28.48 8.33 10.81 7.63 23.93-1.58 34.03-3.29 3.61-6.19 3.27-8.57-1.08-.63-1.15-1.23-2.39-1.52-3.66-4.7-20.18-15.56-37.17-27.56-53.58-.59-.78-1.15-1.57-2.48-3.41z" fill="#010103"/><path d="m166.05 272.63c2.33-2.86 4.39-3.03 7.02-.35 8.93 9.12 18.56 17.62 26.93 27.22 9.07 10.42 8.54 22.28.02 31.44-4.52 4.86-7.74 4.33-10.08-2.02-1.48-4.01-2.29-8.27-3.42-12.41-3.95-14.53-10.78-27.74-18.48-40.56-.68-1.11-1.35-2.24-1.99-3.32z" fill="#010103"/><path d="m55.14 306.1h6.76c.35 16.55.84 32.96-4.13 48.87-2.47 7.91-11.27 13.95-19.33 14.09-7.11.13-9.51-3.47-6.51-9.81.64-1.35 1.27-2.76 2.21-3.89 10.88-12.99 15.56-28.7 19.72-44.65.39-1.43.8-2.86 1.28-4.61z" fill="#010103"/><path d="m127.59 289.21c1.37.26 3.41.02 4.35.93 10.22 9.76 20.13 19.78 26.49 32.71 5.56 11.31.21 20.44-8.1 25.53-4.52 2.77-7.82 1.81-9.09-3.27-1.44-5.75-1.45-11.86-2.92-17.59-3.19-12.47-6.91-24.79-10.73-38.31z" fill="#010103"/><path d="m87.13 297.75c9.76 10.81 19.81 21.43 25.92 34.97 3.97 8.81 1.54 18.62-5.82 25.33-3.97 3.62-7.51 3.03-8.95-2.23-1.83-6.68-2.41-13.7-4.08-20.44-2.68-10.76-5.87-21.38-8.7-32.1-.43-1.64-.06-3.48-.06-5.23.56-.11 1.13-.21 1.69-.3z" fill="#010103"/><path d="m74.14 77.73c8.49 9.56 18.68 17.99 21.19 31.62 1.23 6.67-3.3 15.25-9.13 18.6-2.8 1.61-4.59.65-5.36-1.99-.92-3.14-1.72-6.44-1.81-9.68-.32-11.41-2.46-22.39-6.53-33.04-.58-1.52-.08-3.46-.08-5.2.57-.11 1.15-.21 1.72-.31z" fill="#010103"/></svg>