<svg enable-background="new 0 0 400 400" viewBox="0 0 400 400" xmlns="http://www.w3.org/2000/svg"><path d="m346.9 398 5.4-7.3h-5.2v-.6h5.9v.6l-5.4 7.2h5.5l-.1.6h-6.2v-.5z" fill="#fbfcfa"/><path d="m354.7 390.1h2.8c2.3 0 3.9 1.6 3.9 4.1s-1.6 4.3-3.9 4.3h-2.8zm.6 7.8h2c2.2 0 3.3-1.6 3.3-3.6 0-1.8-1-3.6-3.3-3.6h-2z" fill="#fbfcfa"/><path d="m363.9 390.1v8.4h-.6v-8.4z" fill="#fbfcfa"/><path d="m372.5 396.3c-.4 1.3-1.4 2.3-3.2 2.3-2.4 0-3.7-1.9-3.7-4.3 0-2.3 1.2-4.3 3.7-4.3 1.8 0 2.9 1 3.2 2.4h-.6c-.4-1.1-1.1-1.8-2.5-1.8-2.1 0-3 1.9-3 3.7s.9 3.7 3 3.7c1.4 0 2.1-.7 2.5-1.7z" fill="#fbfcfa"/><path d="m373.8 398.5v-1.5h.6v1.5z" fill="#fbfcfa"/><path d="m376.2 398.5v-8.4h1c1.3 2 4.4 6.7 4.9 7.6-.1-1.2-.1-2.4-.1-3.8v-3.8h.7v8.4h-.9c-1.2-1.9-4.4-6.8-5-7.7.1 1.1 0 2.3 0 3.9v3.9h-.6z" fill="#fbfcfa"/><path d="m390 394.4h-4.3v3.5h4.7l-.1.6h-5.2v-8.4h5.1v.6h-4.5v3.1h4.3v.7z" fill="#fbfcfa"/><path d="m394.2 390.7h-2.8v-.6h6.3v.6h-2.8v7.8h-.7z" fill="#fbfcfa"/><g fill="#010103"><path d="m118.57 260.85c22.27-3.84 44.11-7.61 66-11.39 1.23 4.56.78 6.73-4.07 7.96-39.07 9.97-78.26 19.6-116.11 33.73-7.9 2.95-15.44 6.84-23.61 10.5-4.26-7.68-8.81-15.89-13.45-24.25 24.34-4.49 48.13-8.88 72.16-13.32 0-15.36 0-30.25 0-45.61-8.82 0-17.6-.42-26.32.14-6.41.41-12.73 2.17-19.12 3.13-1.29.19-3.1-.05-4.01-.85-3.97-3.49-7.69-7.26-11.51-10.92.16-.43.32-.87.48-1.3h60.57c0-14.57 0-28.32 0-42.38-12.66 0-25.08 0-38.18 0 0 3.14.21 6.28-.1 9.36-.14 1.36-1.06 3.43-2.1 3.78-5.45 1.86-11.06 3.27-16.91 4.93 0-49.59 0-98.71 0-148.37 5.04 3.86 9.87 7.82 14.99 11.36 1.9 1.31 4.46 2.35 6.72 2.36 29.49.15 58.98.16 88.48-.03 2.09-.01 4.65-1.42 6.15-2.99 3.78-3.95 7.07-8.37 10.82-12.92 6.24 7.66 12.3 15.1 18.35 22.53-.19.33-.27.73-.49.84-9.45 4.6-11.93 12.06-11.13 22.32.99 12.59.03 25.31.29 37.97.31 15.3.88 30.59 1.61 45.87.19 4.04-.83 6.29-4.89 7.62-5 1.63-9.74 4.03-15.1 6.3 0-3.87 0-7.14 0-10.82-13.35 0-26.37 0-39.65 0v42.11c10.38 0 20.66.08 30.93-.11 1.22-.02 2.57-1.41 3.58-2.43 4.33-4.37 8.56-8.84 13.28-13.75 6.8 8.72 13.16 16.88 20.1 25.78-22.98 0-45.17 0-67.75 0-.01 14.44-.01 28.33-.01 42.85zm39.12-105.17c0-32.07 0-63.82 0-95.85-13.15 0-26.18 0-39.16 0v63.94c.51.18 1.02.36 1.53.55 7.09-15.22 14.18-30.44 21.36-45.85 4.37 3.97 9.34 8.47 13.92 12.63-11.74 13.5-23.2 26.65-34.6 39.85-1.05 1.21-2.36 2.74-2.41 4.16-.25 6.77-.11 13.55-.11 20.57zm-95.87-95.98v95.85h37.68c0-32.11 0-63.84 0-95.85-12.58 0-24.86 0-37.68 0z"/><path d="m351.42 349.38c-30.88-33.19-47.6-73.51-63.23-114.53-.5.44-.9.63-.9.82.02 28.16-.02 56.31.17 84.47.09 13.15.66 26.29.89 39.43.02 1.32-.38 3.29-1.28 3.87-6.12 3.91-12.43 7.53-18.86 11.35 0-43.11 0-85.74 0-129.62-10.22 23.73-22.26 45.2-37.86 64.54-15.59 19.33-33.71 35.83-54.42 49.35-.5-.24-.89-.3-1.06-.52-.68-.92-1.3-1.89-1.66-2.43 10.47-12.01 21.08-23.51 30.94-35.62 21.85-26.82 36.78-57.65 50.59-89.08 1-2.28 1.87-4.63 2.93-6.88 8.68-18.36 12.34-37.46 11.4-57.96-1.09-23.77-.25-47.63-.25-71.76-1.29-.23-2.37-.61-3.45-.59-20.6.41-41.3-1.51-61.75 2.63-1.17.24-2.89-.55-3.88-1.41-3.4-2.94-6.59-6.12-9.46-10.35h77.94c0-19.62 0-38.51 0-58.11 9.87 4.44 19.74 8.88 30.36 13.65-3.17 2.85-6.14 5.36-8.89 8.08-1.09 1.08-2.38 2.64-2.4 4-.2 10.46-.11 20.93-.11 31.83 2.01.11 3.62.28 5.22.28 13.83.02 27.66-.09 41.49.08 3.3.04 5.57-.92 7.72-3.43 4.43-5.18 9.19-10.09 14.28-15.62 6.51 9.28 12.84 18.3 19.72 28.11-29.82 0-58.69 0-88.16 0-.11 2.22-.27 3.97-.27 5.72-.01 35.33-.15 70.66.15 105.98.04 4.78 1.84 9.72 3.59 14.3 10.35 27.05 26.68 50.52 44.77 72.8 6.91 8.5 14.37 16.63 22.22 24.27 5.16 5.02 11.46 8.86 17.99 13.79v3.87c-9.98 1.37-18.33 5.61-24.48 14.69z"/><path d="m226.87 169.49c-4.9 10.73-9.15 21.56-14.7 31.69-5.25 9.59-11.94 18.39-17.84 27.64-2.3 3.6-4.67 4.47-8.39.58 20.95-34.53 28.86-73.34 33.3-113.94 8.91 5.12 17.46 10.04 26.52 15.24-8.52 8.07-11.86 18.51-15.68 28.74-1.08 2.9-.3 4.24 2.12 5.99 6.31 4.59 12.73 9.18 18.31 14.6 10.6 10.32 11.11 21.61 2.51 33.58-2.28 3.17-4.19 3.11-5.77-.27-1.96-4.19-3.56-8.56-5.37-12.82-2.93-6.87-5.77-13.79-8.94-20.55-1.76-3.69-4.11-7.12-6.07-10.48z"/><path d="m335.65 171.37c-12.36 18.01-23.77 34.64-35.16 51.23-4.46-2.87-3.48-5.26-2.06-8.03 10.98-21.45 20.82-43.41 26.83-66.82 2.75-10.72 4.53-21.68 6.88-33.15 7.87 5.64 16.12 11.56 24.6 17.65-10.28 8.59-14.97 20.24-19.8 31.9 7.63 5.68 15.25 10.99 22.47 16.81 12.62 10.17 15.04 22.08 7.72 35.73-2.53 4.72-5.24 5.02-7.83.36-2.56-4.62-4.11-9.8-6.58-14.48-5.48-10.4-11.26-20.62-17.07-31.2z"/><path d="m159.58 275.6c2.53 0 5.14-.82 6.31.13 8.59 7.02 17.67 13.69 25.07 21.85 9.31 10.27 8.43 22.64-.51 32.38-4.1 4.47-7.5 3.96-9.42-1.85-3.02-9.12-5.06-18.6-8.62-27.49-3.25-8.1-7.95-15.64-12.83-25.02z"/><path d="m124.29 290.66c1.16.27 3.24.1 4.12 1.05 9.81 10.63 19.32 21.54 24.83 35.19 3.78 9.38.88 18.76-7.09 24.12-4.31 2.9-7.08 2.16-8.37-3.01-1.27-5.11-1.24-10.54-2.5-15.64-3.37-13.63-7.13-27.16-10.99-41.71z"/><path d="m84.57 298.85c7.95 11.84 16.35 23.41 23.69 35.62 5.7 9.48 3.19 18.9-5.29 25.7-4.11 3.3-7.18 2.85-8.76-2.16-1.63-5.17-1.97-10.72-3.22-16.03-2.81-11.89-5.93-23.71-8.72-35.61-.52-2.22-.07-4.66-.07-7 .79-.18 1.58-.35 2.37-.52z"/><path d="m53.29 308.95c1.78.08 3.21.15 5.04.23.91 16.36.91 32.39-3.21 48.1-2.33 8.88-10.43 14.06-19.25 12.99-5.29-.64-6.95-3.42-4.83-8.19.47-1.06.93-2.19 1.67-3.05 11.59-13.45 16.35-29.78 19.75-46.69.19-.98.47-1.93.83-3.39z"/><path d="m71.38 81.66c5.5 7.24 11.56 14.13 16.36 21.81 6.12 9.78 4.19 20.28-3.89 27.5-3.65 3.26-5.92 2.8-6.91-2.01-1.06-5.16-.96-10.56-2-15.73-1.76-8.73-4.07-17.34-6.01-26.03-.35-1.56-.05-3.26-.05-4.89.84-.22 1.67-.43 2.5-.65z"/></g></svg>