<svg enable-background="new 0 0 400 400" viewBox="0 0 400 400" xmlns="http://www.w3.org/2000/svg"><g fill="#fbfcfa"><path d="m346.9 398 5.4-7.3h-5.2v-.6h5.9v.6l-5.4 7.2h5.5l-.1.6h-6.2v-.5z"/><path d="m354.7 390.1h2.8c2.3 0 3.9 1.6 3.9 4.1s-1.6 4.3-3.9 4.3h-2.8zm.6 7.8h2c2.2 0 3.3-1.6 3.3-3.6 0-1.8-1-3.6-3.3-3.6h-2z"/><path d="m363.9 390.1v8.4h-.6v-8.4z"/><path d="m372.5 396.3c-.4 1.3-1.4 2.3-3.2 2.3-2.4 0-3.7-1.9-3.7-4.3 0-2.3 1.2-4.3 3.7-4.3 1.8 0 2.9 1 3.2 2.4h-.6c-.4-1.1-1.1-1.8-2.5-1.8-2.1 0-3 1.9-3 3.7s.9 3.7 3 3.7c1.4 0 2.1-.7 2.5-1.7z"/><path d="m373.8 398.5v-1.5h.6v1.5z"/><path d="m376.2 398.5v-8.4h1c1.3 2 4.4 6.7 4.9 7.6-.1-1.2-.1-2.4-.1-3.8v-3.8h.7v8.4h-.9c-1.2-1.9-4.4-6.8-5-7.7.1 1.1 0 2.3 0 3.9v3.9h-.6z"/><path d="m390 394.4h-4.3v3.5h4.7l-.1.6h-5.2v-8.4h5.1v.6h-4.5v3.1h4.3v.7z"/><path d="m394.2 390.7h-2.8v-.6h6.3v.6h-2.8v7.8h-.7z"/></g><path d="m372.94 187.97v4.99c-9.96 2.7-22.47.89-26.44 14.85-24.24-7-47.66-15.98-67.96-31.62-3.24-2.5-5.58-2.59-9.21-.82-25.89 12.68-53.22 20.53-81.9 23.59-1.95.21-3.93.03-5.92.03-1.5-4.01.24-5.32 3.83-6.1 25.36-5.49 49.47-14.12 71.04-28.95 1.23-.85 2.43-1.75 3.61-2.67.36-.28.62-.71.2-.21-9.33-14.76-18.43-29.16-28.02-44.33 1.16.1.74-.07.56.07-5.94 4.6-10.71 2.6-15.29-2.36-2.32-2.51-5.21-4.48-9.1-7.75h57.23c0-8.69 0-16.63 0-25.37-5.88 0-11.81-.3-17.69.08-6.78.44-13.51 1.58-20.29 2.2-1.45.13-3.34-.26-4.42-1.14-3.81-3.11-7.36-6.53-12.13-10.85h54.21c0-14.82 0-28.91 0-43.44 11.19 3.57 22.48 7.18 34.73 11.09-4.19 2.55-7.72 4.53-11.05 6.8-1.21.83-2.73 2.31-2.78 3.54-.26 7.13-.13 14.27-.13 22 10.02 0 19.68-.55 29.25.16 9.29.69 16.83-1.49 23.06-8.61 2.47-2.82 5.79-4.9 8.92-7.48 7 8.4 13.76 16.51 21.22 25.47-27.96 0-54.97 0-82.21 0v25.42c7.8 0 15.43.11 23.05-.12 1.14-.03 2.47-1.49 3.29-2.6 2.36-3.21 4.5-6.58 6.54-9.63 6.89 6.92 13.68 13.74 20.58 20.67.16-.26.04.18-.15.2-7.42.96-11.44 6.38-16.04 11.48-10.9 12.09-22.27 23.77-33.72 35.9 24.97 15.29 52.14 26.19 83.13 25.51zm-66.4-70.3c-.38-.36-.77-.72-1.15-1.09-20.82 0-41.63 0-62.45 0-.32.42-.64.85-.96 1.27 10.49 11.86 20.98 23.72 32.13 36.33 11.39-12.82 21.91-24.66 32.43-36.51z" fill="#010103"/><path d="m35.56 354.03h154.05c0-14.16 0-27.92 0-42.29-1.62-.1-3.36-.33-5.1-.31-18.32.18-36.63.33-54.95.65-4.3.08-8.76.21-12.85 1.36-4.19 1.18-6.97.01-9.75-2.78-2.67-2.69-5.53-5.19-9.44-8.83h6.94c51.17 0 102.33-.07 153.5.1 5.29.02 9.64-1.05 13.63-4.56 3.48-3.06 7.38-5.65 11.45-8.72 8.07 7.17 16.11 14.31 25.29 22.46-33.42 0-65.52 0-97.95 0v42.88h5.6c34.5 0 69-.07 103.5.09 4.41.02 8-.99 11.46-3.69 4.18-3.26 8.72-6.08 13.36-9.27 8.72 7.36 17.33 14.61 27.19 22.93-3.31 0-5.19 0-7.06 0-95.33 0-190.66-.08-286 .14-8.88.02-17.75 2.11-26.65 2.93-1.93.18-4.42-.42-5.9-1.61-3.88-3.12-7.34-6.77-10.96-10.2.23-.42.44-.85.64-1.28z" fill="#010103"/><path d="m145.71 183.46c19.87-3.28 39.74-6.56 59.84-9.88.53 1.8.93 3.2 1.46 5.01-53.83 13.58-108.88 21.95-162.07 40.24-5.89-6.3-12.24-13.09-18.88-20.19 19.7-1.97 39.05-3.9 58.95-5.88-2.35-12.54-8.19-22.46-16.8-30.93.09-.49.19-.99.28-1.48 2.09 0 4.54-.72 6.19.13 6.93 3.55 13.84 7.24 20.33 11.52 6.81 4.51 6.8 8.7.79 14.44-1.29 1.23-2.68 2.37-5.05 4.46 9.94-1.24 18.53-2.28 27.12-3.39 3.46-.44 6.93-1.58 10.33-1.39 6.27.35 9.79-2.77 12.53-7.83 3.69-6.82 7.65-13.49 11.9-20.95-2.38-.13-3.64-.26-4.89-.27-22.49-.01-44.98-.31-67.46.16-7.35.16-14.65 2.34-22.25 3.64 0-16.52 0-32.94 0-49.59 1.01.21 1.98.29 2.86.62 12.35 4.72 25.18 5.25 38.24 5 18.65-.36 37.32-.28 55.97.03 5.1.08 9.06-.98 12.09-5.13 1.37-1.88 2.92-3.63 4.6-5.68 7.12 5.59 13.46 10.56 19.74 15.49-.42.7-.53 1.17-.73 1.2-7.72 1.5-9.54 6.35-8.77 13.67.69 6.57.15 13.26.15 20.38-6.24 0-12.14 0-18.05 0-.13.38-.26.76-.39 1.14 2.76 1.48 5.52 2.96 8.18 4.39-9.01 6.58-17.99 13.13-26.96 19.68.25.47.5.93.75 1.39zm-67.94-56.8v20.08h85.68c0-6.79 0-13.31 0-20.08-28.61 0-56.85 0-85.68 0z" fill="#010103"/><path d="m70.31 250.62c-1.78 13.16-9.84 20.89-22.19 24.64-1.72.52-3.57.81-5.36.82-4.41.02-8.66-1.27-10.28-5.59-1.62-4.33 2.31-6.89 5.27-8.58 13.27-7.58 20.51-19.61 25.42-33.4 1.18-3.33 2.82-4.71 6.76-3.42v15.11c2.21.15 3.96.37 5.7.37 85.16.02 170.31.04 255.47-.11 2.71 0 5.71-1.35 8.05-2.87 3.87-2.51 7.3-5.68 11.03-8.66 8.35 6.98 16.36 13.68 25.16 21.04-3.48.65-6 1.15-8.53 1.6-14.81 2.6-25.93 11.58-36.38 21.47-3 2.84-5.25 3.69-8.69.24 4.94-7.31 9.98-14.78 15.39-22.79-60.94 0-121.11 0-182.4 0 7.77 7.39 14.87 14.15 22.02 20.95-.43.31-.56.48-.65.46-12.58-3.4-23.31 2.54-34.41 6.74-28.89 10.93-57.83 21.73-87.97 28.86-3.87.92-7.78 1.67-12.07 2.58-.52-1.22-1.04-2.46-1.66-3.92 38.86-15.19 77.44-30.08 112.39-55.53-28.19-.01-54.99-.01-82.07-.01z" fill="#010103"/><path d="m35.68 60.89h75.12c0-11.39 0-22.43 0-34.12 10.44 3.46 21.17 7.01 31.9 10.56.3.43.6.87.89 1.3-.66.17-1.33.31-1.98.5-11.14 3.3-11.9 11.58-9.75 21.86h8.37c9.33 0 18.67.24 27.98-.15 2.63-.11 5.64-1.5 7.69-3.24 3.76-3.18 6.94-7.06 10.77-11.06 6.34 8.27 12.19 15.9 18.65 24.32-24.98 0-49.26 0-73.83 0v19.65c8.02 0 15.99.39 23.89-.22 2.61-.2 5.05-2.93 7.5-4.62 3.15-2.16 6.22-4.43 9.5-6.79 6.39 6.86 12.66 13.59 19.57 21.01-2.55.12-3.99.26-5.42.25-32.65-.05-65.3-.2-97.95-.07-5.25.02-10.48 1.55-15.76 1.92-2.15.15-4.8-.36-6.51-1.58-3.49-2.5-6.49-5.67-10.83-9.6h55.81c0-6.95 0-13.02 0-19.77-1.92 0-3.68 0-5.44 0-11.66-.02-23.33-.32-34.98.04-7.1.22-14.17 1.5-21.26 2.15-1.28.12-2.98-.1-3.88-.87-3.75-3.23-7.26-6.72-10.86-10.12.26-.44.53-.89.81-1.35z" fill="#010103"/><path d="m225.58 256.73c7.24 1.07 14.63 1.84 21.88 3.31 22.07 4.47 44.23 8.63 66.04 14.13 8.61 2.17 16.78 6.95 24.44 11.68 6.23 3.84 7.71 11.39 5.39 18.2-2.08 6.09-5.94 7.73-11.54 4.44-5.58-3.28-10.86-7.09-16.4-10.45-23.33-14.14-49.02-22.6-74.73-31-3.95-1.29-7.84-2.8-11.85-3.82-3.44-.88-4.77-2.51-3.23-6.49z" fill="#010103"/><path d="m162.8 205.6c3.1-1.13 5.3-2.78 7.14-2.45 9.26 1.67 18.46 3.75 27.62 5.94 2.7.64 5.29 1.93 7.78 3.23 11.09 5.78 11.81 18.34 1.53 25.72-3.41 2.45-6.61 1.33-9.26-4.07-4.02-8.22-10.26-14.18-17.9-18.81-4.94-3-10.06-5.71-16.91-9.56z" fill="#010103"/></svg>