<svg enable-background="new 0 0 400 400" viewBox="0 0 400 400" xmlns="http://www.w3.org/2000/svg"><g fill="#fbfcfa"><path d="m346.9 398 5.4-7.3h-5.2v-.6h5.9v.6l-5.4 7.2h5.5l-.1.6h-6.2v-.5z"/><path d="m354.7 390.1h2.8c2.3 0 3.9 1.6 3.9 4.1s-1.6 4.3-3.9 4.3h-2.8zm.6 7.8h2c2.2 0 3.3-1.6 3.3-3.6 0-1.8-1-3.6-3.3-3.6h-2z"/><path d="m363.9 390.1v8.4h-.6v-8.4z"/><path d="m372.5 396.3c-.4 1.3-1.4 2.3-3.2 2.3-2.4 0-3.7-1.9-3.7-4.3 0-2.3 1.2-4.3 3.7-4.3 1.8 0 2.9 1 3.2 2.4h-.6c-.4-1.1-1.1-1.8-2.5-1.8-2.1 0-3 1.9-3 3.7s.9 3.7 3 3.7c1.4 0 2.1-.7 2.5-1.7z"/><path d="m373.8 398.5v-1.5h.6v1.5z"/><path d="m376.2 398.5v-8.4h1c1.3 2 4.4 6.7 4.9 7.6-.1-1.2-.1-2.4-.1-3.8v-3.8h.7v8.4h-.9c-1.2-1.9-4.4-6.8-5-7.7.1 1.1 0 2.3 0 3.9v3.9h-.6z"/><path d="m390 394.4h-4.3v3.5h4.7l-.1.6h-5.2v-8.4h5.1v.6h-4.5v3.1h4.3v.7z"/><path d="m394.2 390.7h-2.8v-.6h6.3v.6h-2.8v7.8h-.7z"/></g><path d="m142.58 241.68c0-20.71 0-40.99 0-62.75 9.44 4.58 17.93 8.71 26.43 12.81.85.41 1.81.81 2.71.82 13.32.05 26.63.04 40.41.04 0-25.52 0-50.71 0-77.41-7.85 1.42-15.34 2.38-22.6 4.25-3.86.99-6.23.32-8.56-2.69-2.43-3.14-5.22-6-8.57-9.79h39.38c0-26.55 0-52.4 0-78.62 9.21 4.39 18.82 8.98 28.6 13.64-.5.74-.67 1.27-1.02 1.48-9.14 5.25-10.73 13.34-10.13 23.21.77 12.94.19 25.97.19 38.97 11.49 4.6 16.2-5.6 23.62-10.55 5.86 6.73 11.61 13.34 18.06 20.76-14.17 0-27.5 0-41.25 0v76.68c7.29 0 14.72.25 22.11-.18 1.72-.1 3.41-2.41 4.93-3.89 2.96-2.87 5.8-5.87 9.01-9.15 6.21 7.64 12.04 14.8 18.57 22.83-21.86 0-42.81 0-63.77 0-.11.38-.21.76-.32 1.13 5.98 4.34 11.97 8.68 18.09 13.12-.35.47-.57 1.06-.88 1.12-8.31 1.52-10.77 7.76-13.82 14.77-9.97 22.99-20.93 45.55-31.5 68.28-.48 1.02-.93 2.05-1.83 4.03 18.89-3.97 36.98-7.77 56.18-11.8-7.01-12.1-13.57-23.43-20.45-35.31.71-.79 1.89-2.1 3.38-3.74 12.8 11.88 25.8 23.31 35.23 38.01 5.7 8.88 4.23 22.23-2.73 29.78-2.28 2.47-4.03 2.65-5.41-.94-2.44-6.34-5.08-12.6-7.91-19.58-23.53 8.93-48.46 13.62-68.88 30.14-3.99-7.07-7.97-14.13-11.95-21.17 13.32-10.07 20.25-24.44 25.57-39.15 7.99-22.1 14.28-44.81 21.81-68.9-8.36.38-14.86.66-21.36 1-.81.04-1.66.31-2.38.69-7.05 3.72-12.8 2.25-17.75-3.95-1.82-2.28-4.36-3.99-6.57-5.97-5.31 3.69-8.05 7.74-7.99 14.53.37 37.66.09 75.32.24 112.99.04 8.96.94 17.92 1.26 26.88.04 1.21-.59 3.05-1.51 3.6-5.11 3.02-10.4 5.73-16.59 9.06 0-8.65 0-16.33 0-24.86-34.42 7.58-69.08 11.04-100.07 30-4-5.62-8.45-11.76-12.69-18.04-.52-.77-.01-2.36.26-3.52 1.52-6.41 4.4-12.79 4.47-19.2.36-36.66.16-73.32-.07-109.98-.07-10.61-.88-21.22-1.4-32.72 9.06 3.78 17.66 7.37 26.58 11.09-.72 1.25-1.05 2.51-1.87 3.14-5.48 4.26-6.22 9.96-5.95 16.43.39 9.44.1 18.9.1 28.6 30.29-.02 60.05-.02 90.59-.02zm.01 10.68c-30.55 0-60.45 0-90.35 0v86.8c.71 0 1.19.06 1.65-.01 27.61-3.98 55.2-8.16 82.86-11.81 5.13-.68 6-2.55 5.95-7.15-.23-20.66-.1-41.33-.1-61.99-.01-1.95-.01-3.9-.01-5.84z" fill="#010103"/><path d="m299 131.22c-6.91-.49-14.03-.94-20.65 2.62-2.38 1.28-4.11 1.02-6.04-1.11-3.4-3.77-7.19-7.19-11.81-11.75h38.71c0-31.03 0-61.55 0-92.66 9.55 4.08 18.92 8.08 28.59 12.21-.71.92-1 1.62-1.51 1.9-7.71 4.18-8.52 10.92-8.28 18.94.53 17.82.17 35.66.17 53.49v6.05c8.7 0 16.98.1 25.24-.12 1.11-.03 2.45-1.49 3.21-2.6 2.78-4.08 5.36-8.29 7.92-12.3 6.11 6.25 11.98 12.26 17.99 18.41.16-.22-.04.34-.43.55-8.33 4.65-8.93 12.1-8.86 20.74.28 34.16.23 68.33-.35 102.48-.43 25.1-1.57 50.21-3.01 75.28-.69 12.03-3.72 23.66-11.38 33.51-4.61 5.93-10.41 10.16-17.94 12.63-4.09-14.8-16.02-20.92-28.7-25.99-3.25-1.3-4.75-2.67-3.33-6.55 5.09.68 10.28 1.4 15.47 2.05 4.45.56 8.89 1.13 13.36 1.53 5.71.51 8.96-1.04 10.41-7.03 2.27-9.31 4.43-18.84 4.85-28.36 1.26-28.1 1.79-56.23 2.34-84.36.52-26.64.69-53.29 1.06-79.93.04-3.09.4-6.18.63-9.58-9.67 0-18.75 0-28.18 0-.36 8.04-.74 15.96-1.07 23.89-1.43 34.56-4.46 68.93-11.25 102.92-8.2 41.04-26.25 76.85-55.7 106.75-2.21 2.25-4.54 4.4-6.64 6.75-2.2 2.47-4.08 2.48-5.95-.25 6.55-10.19 13.26-20.28 19.62-30.59 16.8-27.23 27.02-56.92 32.38-88.35 5.26-30.84 8.36-61.9 9.1-93.18.22-9.12.03-18.25.03-27.99z" fill="#010103"/><path d="m57.37 53.03c8.06 3.13 16.06 6.24 24.33 9.44-.59 1.1-.86 2.16-1.54 2.78-6.33 5.85-7.07 13.21-6.88 21.36.41 18.15.13 36.32.13 54.48v5.65h24.8c0-39.3 0-78.45 0-118.37 9.24 4.15 18.08 8.11 27.31 12.25-.86 1.07-1.31 2.01-2.07 2.52-6.89 4.64-8.07 11.24-7.59 19.04.57 9.25.13 18.57.13 28.39 6.1 0 11.73.17 17.34-.12 1.37-.07 2.86-1.48 3.95-2.61 3.53-3.69 6.9-7.53 10.74-11.76 5.68 8.03 11 15.55 16.95 23.95-16.75 0-32.58 0-48.69 0v46.97c6.84 0 13.62.14 20.38-.12 1.35-.05 2.85-1.45 3.93-2.57 3.42-3.57 6.68-7.31 10.4-11.43 6.62 8.06 12.86 15.67 19.87 24.2-3.03 0-4.79 0-6.55 0-30.99 0-61.98-.24-92.97.15-8.89.11-17.75 2.16-26.64 3.14-1.56.17-3.67-.01-4.76-.94-4.14-3.55-7.97-7.46-12.89-12.17h30.3c.02-31.51.02-62.54.02-94.23z" fill="#010103"/><path d="m72.88 160.94c5.04 3.65 9.72 7.03 14.33 10.37-2.21 4.51-4.35 8.77-6.39 13.06-1.51 3.17-1.17 5.49 2.12 7.84 6.7 4.81 12.92 10.51 13.37 19.45.18 3.69-1.21 7.7-2.81 11.13-.75 1.62-3.94 3.34-5.56 2.97-1.62-.36-3.37-3.11-3.84-5.1-1.99-8.55-3.53-17.21-5.25-25.82-.08-.42-.33-.81-.39-.97-4.05 7.8-7.98 15.72-12.27 23.43-1.76 3.17-4.22 5.98-6.57 8.78-.69.83-2.08 1.07-3.15 1.58-.06-1.19-.48-2.5-.14-3.56 3.39-10.58 7.39-20.99 10.24-31.71 2.65-10.06 4.14-20.42 6.31-31.45z" fill="#010103"/><path d="m122.61 195.42c-8.04 12.47-15.56 24.15-22.98 35.66-4.26-1.37-3.35-3.34-2.3-5.62 8.57-18.59 15.05-37.88 19-57.99.38-1.92.71-3.85 1.27-6.9 5.41 3.92 10.27 7.44 15.18 10.99-2.89 5.54-5.58 10.83-8.4 16.05-1.21 2.23-.82 3.73.98 5.6 3.79 3.94 7.43 8.06 10.72 12.42 2.79 3.7 3.81 8.08 2.59 12.73-.88 3.34-2.32 7.16-6.22 6.38-1.88-.38-3.69-4.14-4.42-6.69-2.06-7.27-3.56-14.71-5.42-22.63z" fill="#010103"/><path d="m81.41 292c-7.52 10.86-14.65 21.24-21.9 31.52-.72 1.03-2.21 1.51-3.84 1.68 9.19-21.08 16.36-42.33 19.7-65.55 5.24 3.32 10.22 6.47 15.19 9.62-2.29 4.31-4.37 8.45-6.68 12.45-1.47 2.55-1.06 4.26.87 6.54 3.85 4.53 7.61 9.26 10.58 14.38 3.12 5.38 2.3 11.46-1.27 14.77-1.36 1.26-3.59 2.66-5.08 2.35-1.3-.27-2.68-2.73-3.06-4.43-1.65-7.56-2.97-15.21-4.51-23.33z" fill="#010103"/><path d="m133.69 270.34c-2.71 4.48-5.1 8.41-7.47 12.37-1.69 2.82-1.22 4.75 1.46 7.15 3.91 3.5 7.51 7.58 10.37 11.97 3.54 5.44 3.03 12.45-.56 16.31-1.24 1.34-3.27 1.95-4.94 2.89-.85-1.7-2.06-3.31-2.49-5.11-1.94-8-3.65-16.05-5.65-24.97-8.82 12.89-16.87 24.66-24.93 36.44-.64-.13-1.29-.25-1.93-.38-.21-1.41-1.09-3.19-.54-4.16 10.75-19.11 17.81-39.56 22.18-61.67 5.11 3.24 9.82 6.21 14.5 9.16z" fill="#010103"/></svg>