<svg enable-background="new 0 0 400 400" viewBox="0 0 400 400" xmlns="http://www.w3.org/2000/svg"><g fill="#010103"><path d="m318.82 148.6c7.58 6.08 14.31 11.49 21.64 17.37-3.43 2.7-6.76 4.87-9.49 7.63-1.66 1.68-3.38 4.27-3.4 6.46-.23 26.49-.31 52.98-.08 79.47.11 12.13.89 24.25 1.57 36.36.21 3.73-.36 6.12-4.52 7.36-5.38 1.6-10.49 4.06-16.51 6.46 0-4.93 0-9.27 0-13.95-45.22 0-89.78 0-134.81 0v9.91c-7.18 2.86-13.95 5.55-20.78 8.27 0-54.86 0-109.38 0-164.62 6.14 3.22 12.07 6.72 18.33 9.48 3.65 1.61 7.81 2.88 11.76 2.9 38.98.21 77.97.04 116.96.24 4.93.03 8.59-1.19 11.65-5 2.26-2.84 4.91-5.37 7.68-8.34zm-145.46 53.9h134.16c0-10.38 0-20.44 0-30.76-44.88 0-89.44 0-134.16 0zm-.05 40.76h134.21c0-10.4 0-20.46 0-30.77-44.86 0-89.41 0-134.21 0zm134.26 10.19c-45.05 0-89.49 0-134.1 0v30.13h134.1c0-10.2 0-19.97 0-30.13z"/><path d="m81.21 163.4c-14.09 23.21-28.47 44.76-46.12 64.65-1.44-1.33-2.7-2.48-4.19-3.86 36.9-59.46 62.43-123.26 77.07-191.94 11.71 5.84 22.68 11.32 34.29 17.12-5.06 2.99-9.74 5.59-14.22 8.5-1.55 1.01-3.11 2.57-3.8 4.23-9.27 22.4-18.4 44.86-27.55 67.31-.18.44-.3.91-.57 1.74 4.91 2.72 9.81 5.44 15.38 8.54-1.4 1.18-2.44 2.46-3.78 3.12-6.57 3.22-7.76 8.44-7.72 15.43.3 52.82.06 105.64.23 158.46.05 15.61.88 31.22 1.37 47.35-6.48 3.44-13.31 7.07-20.4 10.84.01-70.51.01-140.33.01-211.49z"/><path d="m120.12 122.54h108.48c0-19.17 0-37.9 0-56.71-.43-.19-.87-.55-1.31-.55-19.92.05-39.92-1.38-59.59 3.46-1.5.37-3.89-.55-5.08-1.69-3.36-3.2-6.31-6.84-10.47-11.47h6.54c44.82 0 89.63-.05 134.45.09 4.04.01 6.84-1.12 9.45-4.17 4.64-5.43 9.67-10.54 15.01-16.3 8.87 9.79 17.57 19.4 26.98 29.79-32.24 0-63.45 0-95.08 0v57.26c1.51.1 3.25.31 4.99.31 20.99.02 41.99.13 62.97-.14 2.59-.03 5.73-1.55 7.62-3.39 6.31-6.14 12.17-12.75 18.71-19.72 8.91 10.77 17.62 21.29 27.19 32.85-3.19 0-5.1 0-7.02 0-65.64 0-131.28-.15-196.92.15-10.21.05-20.44 1.97-30.6 3.43-2.83.41-4.69.15-6.51-2.07-2.82-3.42-5.87-6.67-9.81-11.13z"/><path d="m112.53 370.1c36.09-15.34 67.08-37.25 92.91-66.84 8.43 7.98 16.58 15.7 25.51 24.17-5.38.57-9.78.86-14.11 1.56-2.04.33-4.21 1.06-5.88 2.23-28.35 19.86-59.93 32.78-92.6 43.42-4.09 1.32-4.38-1.44-5.83-4.54z"/><path d="m260.11 307.89c2.68-1.13 4.67-2.81 6-2.4 25.05 7.85 49.9 16.19 71.92 31.14 6.65 4.52 11.55 10.08 12.57 18.17.4 3.15.14 6.75-1.02 9.67-3.15 7.91-9.03 9.63-15.65 4.35-4.63-3.69-9.18-7.93-12.44-12.81-10.86-16.27-26.32-27.04-42.46-37.1-5.77-3.58-11.74-6.85-18.92-11.02z"/></g><path d="m2.6 9.9.8-1c.9.7 1.9 1.4 2.9 2.3l-.9 1.1c-1.1-1-2-1.8-2.8-2.4zm.5 10.6c.9-2.1 1.6-4.3 2.3-6.7.4.2.8.4 1.3.6-.7 2.1-1.5 4.3-2.2 6.6zm.3-15.2.9-.9c1 .8 2 1.6 2.8 2.4l-1 1c-.9-.9-1.8-1.7-2.7-2.5zm12.6-1.2h1.2v1.4h2.7v1.1h-2.7v2.7h-1.2v-.6h-1.8v1.3h4.9v3.8h-1.2v-.5h-3.7c0 .4-.1.9-.1 1.2h5.1v1h-5.2c0 .5-.1.9-.2 1.2h6v1h-5.2c1.1 1.3 2.9 2 5.5 2.2-.4.4-.7.8-.9 1.3-2.9-.5-4.8-1.6-5.7-3.5h-.1c-.8 1.7-2.7 2.9-5.9 3.6-.2-.4-.6-.8-.9-1.1 2.8-.6 4.6-1.4 5.4-2.5h-4.8v-1h5.3c.1-.3.2-.7.2-1.2h-4.9v-1h5c0-.4 0-.8.1-1.2h-3.6v.5h-1.2v-3.8h4.9v-1.3h-1.8v.5h-1.2v-2.7h-2.7v-1h2.7v-1.4h1.2v1.4h4.8zm-6.7 8.3h3.6c0-.4 0-.9 0-1.4h-3.6zm1.9-4.6h4.8v-1.3h-4.7v1.3zm6.7 3.2h-3.7v1.4h3.7z" fill="#fcfafa"/><path d="m8.7 22.1h1.3v2.2h2.8v-2.2h1.3v2.2h4.1v9.1h1.7v1.3h-17v-1.3h1.7v-9.1h4.1zm.3 13.1.7 1.2c-1.8.9-3.8 1.9-6 2.9-.2-.4-.5-.8-.8-1.3 2.3-1 4.4-1.9 6.1-2.8zm-3.1-6.4h2.8v-3.2h-2.8zm0 4.6h2.8v-3.3h-2.8zm4.1-4.6h2.8v-3.2h-2.8zm0 4.6h2.8v-3.3h-2.8zm3.6 1.9c2.1.9 4.1 1.8 6.1 2.7l-.7 1.4c-2.2-1.1-4.2-2-6.1-2.9zm3.2-9.7h-2.8v3.2h2.8zm-2.7 7.8h2.8v-3.3h-2.8z" fill="#fcfafa"/></svg>