<svg enable-background="new 0 0 400 400" viewBox="0 0 400 400" xmlns="http://www.w3.org/2000/svg"><g fill="#010103"><path d="m116.69 289.99c-12.41 18.76-24.68 35.46-40.16 49.21-12.4 11.01-26.04 20.61-39.12 30.85-3.19 2.5-5.96 2.62-7.55-.5 13.58-13.67 27.47-26.76 40.31-40.82 12.8-14.03 23-30.04 31.65-48.02-10.76-5.9-21.25-11.89-31.98-17.43-6.34-3.27-12.99-5.96-19.63-8.57-2.92-1.15-3.61-2.25-2.77-5.47 8.76-33.55 17.33-67.15 25.89-100.75 1.3-5.11 2.27-10.29 3.63-16.52-6.75.51-12.94.98-19.12 1.47-.66.05-1.32.23-1.94.46-11.68 4.36-20.02.48-25.35-11.07 1.4-.07 3.09-.23 4.78-.23 13-.02 25.99-.09 38.99.04 3.05.03 4.23-.81 4.79-4.05 4.8-27.95 9.84-55.86 14.89-84.23 9.86 5.13 20.3 10.56 30.74 15.99-.34.73-.41 1.21-.63 1.28-9.66 3.3-12.76 10.76-14.51 20.21-3.1 16.75-7.4 33.27-11.4 50.75h15.88c7 0 14-.18 20.99.08 3.23.12 5.28-.97 7.05-3.55 2.16-3.14 4.66-6.05 7.42-9.59 7.02 5.12 13.91 10.14 21.36 15.57-3.03 2.41-5.55 4.76-8.4 6.59-3.56 2.28-4.82 5.42-5.47 9.45-6.55 40.16-14.45 80.01-27.93 118.54-1.8 5.15-3.83 10.22-5.69 15.17 8.74 5.38 17.63 10.26 25.88 16.06 12.93 9.1 16.46 20.21 12.04 34.83-1.93 6.4-5.25 7.32-9.88 2.37-3.17-3.39-5.53-7.52-8.69-10.91-8.37-8.97-16.96-17.72-26.07-27.21zm22.84-157.8c-13.96 0-27.25-.07-40.53.14-.97.02-2.45 1.94-2.77 3.21-6.29 24.73-12.32 49.53-18.67 74.25-3.49 13.59-7.45 27.05-11.21 40.64 13.41 5.43 26.39 10.7 39.72 16.1 16.85-43.46 26.07-88.32 33.46-134.34z"/><path d="m181.21 69.3c6.06 3.63 11.64 7.18 17.44 10.32 2.22 1.21 4.92 1.99 7.44 2.1 6.32.29 12.67-.11 18.99.18 3.51.16 5.46-.92 6.68-4.29 5.35-14.79 10.89-29.51 16.56-44.81 9.23 4.61 19.2 9.6 29.19 14.59-.35.7-.43 1.19-.64 1.25-11.41 3.1-19.61 10.4-26.69 19.54-3.63 4.69-8.22 8.65-12.74 13.32 1.59.12 2.97.32 4.36.32 25.16.02 50.33.1 75.49-.13 2.4-.02 5.23-1.59 7.09-3.29 3.64-3.33 6.74-7.27 10.23-11.14 7.63 6.19 14.98 12.16 22.78 18.49-3.22 2.19-6.08 4.44-9.21 6.18-3.04 1.69-3.84 3.96-3.82 7.31.12 31-.52 62.01.3 92.98.44 16.54-7.05 26.69-20.84 33.64-2.95 1.48-6.07 2.63-9.35 4.04-2.45-12.25-10.84-18.57-21.24-22.9-3.36-1.4-6.8-2.97-10.34-3.48-4.77-.69-5.76-3.01-4.43-7.77 6.22.85 12.53 1.84 18.87 2.56 5.77.66 11.58 1.4 17.37 1.42 7.1.03 11.18-3.96 11.2-10.66.08-31.83.02-63.66 0-95.49 0-.49-.17-.97-.32-1.81-41.55 0-83.12 0-125.4 0v5.93c0 38-.07 75.99.1 113.98.02 4.08-1.2 6.35-4.84 8.09-4.75 2.27-9.23 5.12-14.23 7.95 0-52.9 0-105.2 0-158.42z"/><path d="m373.19 344.21c-1.78 2.27-2.73 4.73-4.01 4.92-11.18 1.63-19.58 7.84-27.41 16.14-39.38-24.27-67.58-56.86-78.36-102.65-7.37-1.18-7.33-1.16-9.54 5.48-12.4 37.29-36.87 64.72-70.31 84.27-14.39 8.41-29.78 15.13-45.07 22.79-1.42-2.84-2.2-4.41-3.25-6.51 47.76-21.88 83.26-55.04 100.33-106.2-1.51-.15-2.58-.38-3.64-.36-16.14.31-32.28.52-48.4 1.06-4.11.14-8.31.9-12.22 2.15-3.49 1.12-5.53.04-7.77-2.38-3.15-3.41-6.62-6.53-10.94-10.74h86.75c1.58-16.01 3.1-31.48 4.68-47.55 10.34 3.87 21.2 7.94 32.86 12.3-1.66 1.06-2.38 1.76-3.25 2.04-8 2.58-10.94 8.48-11.68 16.42-.51 5.4-2.11 10.71-3.35 16.62h22.34c12.66 0 25.33.16 37.98-.14 2.47-.06 5.37-1.39 7.25-3.06 4.84-4.3 9.22-9.13 14.11-14.07 8.49 8.95 16.76 17.66 25.81 27.2-32.4 0-63.73 0-95.88 0 9.37 21.98 22.7 39.84 40.92 54.01 18.01 14 38.62 22.5 62.05 28.26z"/><path d="m266.15 158.77c-19.03 13.33-36.68 25.69-54.45 38.14-1.52-1.71-2.31-2.52-3.01-3.41-.6-.77-1.08-1.62-1.8-2.74 17.09-13.28 33.44-27.06 48.19-44.27-13.55-11.66-26.85-23.1-40.5-34.84.97-1.02 2.15-2.27 3.69-3.88 15.61 9.72 30.96 19.27 47.04 29.28 8.08-11.74 16.25-23.62 24.66-35.84 7.84 6.09 16.03 12.44 24.25 18.82-.47.48-.68.88-.88.87-8.01-.16-14.28 2.14-19.18 9.4-4.21 6.23-10.36 11.15-15.95 16.95 3.65 2.58 7.62 5.18 11.35 8.07 6.22 4.84 11.93 10.16 14.73 17.85 2.15 5.91.88 11.22-3.33 15.65-4.72 4.97-10.26 3.28-14.69-3.13-6.51-9.37-13.64-18.31-20.12-26.92z"/></g><path d="m2.6 9.9.8-1c.9.7 1.9 1.4 2.9 2.3l-.9 1.1c-1.1-1-2-1.8-2.8-2.4zm.5 10.6c.9-2.1 1.6-4.3 2.3-6.7.4.2.8.4 1.3.6-.7 2.1-1.5 4.3-2.2 6.6zm.3-15.2.9-.9c1 .8 2 1.6 2.8 2.4l-1 1c-.9-.9-1.8-1.7-2.7-2.5zm12.6-1.2h1.2v1.4h2.7v1.1h-2.7v2.7h-1.2v-.6h-1.8v1.3h4.9v3.8h-1.2v-.5h-3.7c0 .4-.1.9-.1 1.2h5.1v1h-5.2c0 .5-.1.9-.2 1.2h6v1h-5.2c1.1 1.3 2.9 2 5.5 2.2-.4.4-.7.8-.9 1.3-2.9-.5-4.8-1.6-5.7-3.5h-.1c-.8 1.7-2.7 2.9-5.9 3.6-.2-.4-.6-.8-.9-1.1 2.8-.6 4.6-1.4 5.4-2.5h-4.8v-1h5.3c.1-.3.2-.7.2-1.2h-4.9v-1h5c0-.4 0-.8.1-1.2h-3.6v.5h-1.2v-3.8h4.9v-1.3h-1.8v.5h-1.2v-2.7h-2.7v-1h2.7v-1.4h1.2v1.4h4.8zm-6.7 8.3h3.6c0-.4 0-.9 0-1.4h-3.6zm1.9-4.6h4.8v-1.3h-4.7v1.3zm6.7 3.2h-3.7v1.4h3.7z" fill="#fcfafa"/><path d="m8.7 22.1h1.3v2.2h2.8v-2.2h1.3v2.2h4.1v9.1h1.7v1.3h-17v-1.3h1.7v-9.1h4.1zm.3 13.1.7 1.2c-1.8.9-3.8 1.9-6 2.9-.2-.4-.5-.8-.8-1.3 2.3-1 4.4-1.9 6.1-2.8zm-3.1-6.4h2.8v-3.2h-2.8zm0 4.6h2.8v-3.3h-2.8zm4.1-4.6h2.8v-3.2h-2.8zm0 4.6h2.8v-3.3h-2.8zm3.6 1.9c2.1.9 4.1 1.8 6.1 2.7l-.7 1.4c-2.2-1.1-4.2-2-6.1-2.9zm3.2-9.7h-2.8v3.2h2.8zm-2.7 7.8h2.8v-3.3h-2.8z" fill="#fcfafa"/></svg>