<svg enable-background="new 0 0 400 400" viewBox="0 0 400 400" xmlns="http://www.w3.org/2000/svg"><g fill="#010103"><path d="m119.72 345.78h51.87c0-13.26.27-26-.08-38.73-.34-12.58-1.29-25.14-2.01-38.39 10.42 4.06 20.81 8.12 31.18 12.16-.15.62-.13 1.06-.28 1.13-8.94 4.3-11.22 11.31-10.58 21.01.93 13.92.24 27.94.24 42.27h49.36c0-37.62 0-74.88 0-112.99 10.34 4.03 20.66 8.05 31.64 12.32-1.69 1.31-2.7 2.49-3.98 3.01-7.66 3.1-9.61 8.78-8.82 16.63.7 6.9.15 13.92.15 21.36 2.23.1 3.98.25 5.74.25 12.5.02 24.99-.12 37.49.09 3.78.07 6.6-1.02 9.36-3.56 4.64-4.29 9.61-8.21 14.78-12.57 7.29 8.2 14.53 16.34 22.64 25.47-30.57 0-59.91 0-89.62 0v50.01c1.46.11 3.03.32 4.61.32 19.83.02 39.65.12 59.48-.12 2.51-.03 5.43-1.31 7.4-2.93 5.38-4.41 10.35-9.32 15.92-14.44 8.39 8.86 16.55 17.47 25.67 27.09-3.13 0-5.03 0-6.94 0-66.31 0-132.62-.14-198.93.15-10.05.04-20.13 1.88-30.13 3.34-2.86.42-4.63.18-6.46-2.08-2.77-3.43-5.88-6.59-9.7-10.8z"/><path d="m129.38 130.88h42.78c-.74-24.56-1.47-48.75-2.2-73.31 9.83 3.82 20.09 7.82 30.85 12.01-.92 1.03-1.41 1.97-2.17 2.36-7.3 3.65-9.19 9.44-8.77 17.44.7 13.61.19 27.27.19 41.27h49.36c0-32.38 0-64.91 0-98.04 10.36 4.05 20.65 8.07 31.92 12.47-3.68 2.49-6.5 4.65-9.57 6.39-2.68 1.52-3.52 3.5-3.43 6.5.2 7.13.06 14.27.06 22.02 8.89 0 17.42-.77 25.74.17 14.03 1.6 25.78-1.7 35.04-12.69.93-1.1 2.28-1.85 3.77-3.02 3.76 4.22 7.39 8.28 11 12.34 3.63 4.09 7.25 8.18 11.57 13.05-29.42 0-57.92 0-86.78 0v41.14h40.72c8.5 0 17.01.19 25.49-.13 2.37-.09 5.1-1.19 6.93-2.71 5.37-4.46 10.37-9.36 15.75-14.3 7.43 8.83 14.78 17.57 22.87 27.2-2.85 0-4.76 0-6.66 0-62.99 0-125.99-.14-188.98.15-9.72.05-19.43 2.21-29.16 3.13-1.8.17-4.25-.34-5.49-1.51-3.55-3.37-6.66-7.26-10.83-11.93z"/><path d="m84.92 194.09c-14.75 19.18-30.16 37.26-48.21 52.91-1.12.97-2.3 1.86-3.69 2.98-.81-.69-1.57-1.28-2.25-1.95-.57-.56-1.04-1.22-1.74-2.05 34.23-44.87 63.49-92.42 82.76-146.7 10.05 6.75 19.7 13.23 29.64 19.91-.94.57-1.3.92-1.73 1.04-10.43 2.99-17.4 9.6-21.12 19.81-.9 2.47-2.29 4.85-3.88 6.95-9.51 12.6-11.11 26.77-10.88 42.21.71 48.79.27 97.6.4 146.41.02 8.64.48 17.29 1.05 25.92.19 2.94-.51 4.51-3.28 5.69-5.78 2.44-11.42 5.23-17.07 7.86 0-60.26 0-120.31 0-180.99z"/><path d="m169.46 156.69c6.26 3.5 12.22 7.05 18.4 10.17 2.4 1.21 5.29 2.04 7.96 2.06 33.48.14 66.97 0 100.45.19 4.6.03 7.96-.78 10.2-5.11 1.11-2.17 3-3.94 4.9-6.35 7.55 5.19 14.99 10.29 22.47 15.43-.54.63-.71.99-.98 1.12-9.49 4.22-10.67 12-9.99 21.27.86 11.76.74 23.6 1.17 35.4.09 2.52-.48 3.87-3.14 4.68-5.51 1.67-10.88 3.79-16.91 5.93 0-4.61 0-8.54 0-12.76-38.52 0-76.6 0-114.64 0-.26.32-.68.61-.65.82 1.3 7.14-3.08 9.43-8.9 10.86-3.5.86-6.84 2.39-10.35 3.65.01-29.15.01-57.95.01-87.36zm134.18 61.88c0-13.28 0-26.29 0-39.37-38.44 0-76.53 0-114.83 0v39.37z"/><path d="m36.91 140.94c-1.11-1.17-2.23-2.35-3.63-3.84 28.12-32.48 56.14-64.59 71.37-106.01 8.84 7.42 17.56 14.74 26.31 22.09-.45.49-.62.85-.84.89-9.33 1.43-14.62 7.94-20.08 14.88-20.78 26.4-44.53 49.88-70.96 70.64-.51.39-1.1.68-2.17 1.35z"/></g><path d="m2.6 9.9.8-1c.9.7 1.9 1.4 2.9 2.3l-.9 1.1c-1.1-1-2-1.8-2.8-2.4zm.5 10.6c.9-2.1 1.6-4.3 2.3-6.7.4.2.8.4 1.3.6-.7 2.1-1.5 4.3-2.2 6.6zm.3-15.2.9-.9c1 .8 2 1.6 2.8 2.4l-1 1c-.9-.9-1.8-1.7-2.7-2.5zm12.6-1.2h1.2v1.4h2.7v1.1h-2.7v2.7h-1.2v-.6h-1.8v1.3h4.9v3.8h-1.2v-.5h-3.7c0 .4-.1.9-.1 1.2h5.1v1h-5.2c0 .5-.1.9-.2 1.2h6v1h-5.2c1.1 1.3 2.9 2 5.5 2.2-.4.4-.7.8-.9 1.3-2.9-.5-4.8-1.6-5.7-3.5h-.1c-.8 1.7-2.7 2.9-5.9 3.6-.2-.4-.6-.8-.9-1.1 2.8-.6 4.6-1.4 5.4-2.5h-4.8v-1h5.3c.1-.3.2-.7.2-1.2h-4.9v-1h5c0-.4 0-.8.1-1.2h-3.6v.5h-1.2v-3.8h4.9v-1.3h-1.8v.5h-1.2v-2.7h-2.7v-1h2.7v-1.4h1.2v1.4h4.8zm-6.7 8.3h3.6c0-.4 0-.9 0-1.4h-3.6zm1.9-4.6h4.8v-1.3h-4.7v1.3zm6.7 3.2h-3.7v1.4h3.7z" fill="#fcfafa"/><path d="m8.7 22.1h1.3v2.2h2.8v-2.2h1.3v2.2h4.1v9.1h1.7v1.3h-17v-1.3h1.7v-9.1h4.1zm.3 13.1.7 1.2c-1.8.9-3.8 1.9-6 2.9-.2-.4-.5-.8-.8-1.3 2.3-1 4.4-1.9 6.1-2.8zm-3.1-6.4h2.8v-3.2h-2.8zm0 4.6h2.8v-3.3h-2.8zm4.1-4.6h2.8v-3.2h-2.8zm0 4.6h2.8v-3.3h-2.8zm3.6 1.9c2.1.9 4.1 1.8 6.1 2.7l-.7 1.4c-2.2-1.1-4.2-2-6.1-2.9zm3.2-9.7h-2.8v3.2h2.8zm-2.7 7.8h2.8v-3.3h-2.8z" fill="#fcfafa"/></svg>