<svg enable-background="new 0 0 400 400" viewBox="0 0 400 400" xmlns="http://www.w3.org/2000/svg"><g fill="#010103"><path d="m234.48 138.64c6.72 8.18 13.01 15.84 19.86 24.18-10.39 0-19.95 0-29.89 0v130.05c12.36-3.31 24.65-6.6 37.33-9.99.52 2.18 1 4.23 1.6 6.75-11.52 3.86-22.76 7.86-34.16 11.33-4.05 1.23-5.44 3.02-5.24 7.26.81 17.93 1.3 35.87 1.94 54.78-5.72 2.67-12.56 5.87-19.54 9.13 0-21.74 0-42.98 0-65.15-29.46 10.27-60.21 17.05-87.06 34.81-5.07-8.32-10.2-16.73-15.54-25.51 11.31-1.52 21.97-2.96 32.87-4.42 0-49.63 0-99.03 0-149.47-6.84 1.47-13.24 2.84-20.4 4.38-3.15-3.94-6.71-8.4-10.84-13.56 2.62-.11 4.36-.26 6.1-.26 33.99-.01 67.99-.07 101.98.07 3.79.02 6.61-.98 9.26-3.66 3.62-3.66 7.59-6.96 11.73-10.72zm-27.55 122.21c-17.9 0-35.25 0-52.53 0v46.6c17.16-3.29 33.92-6.46 50.64-9.81.79-.16 1.79-1.88 1.81-2.88.12-11.14.08-22.28.08-33.91zm-52.58-49.61v39.19h52.22c0-13.27 0-26.15 0-39.19-17.46 0-34.56 0-52.22 0zm-.16-10.64h52.46c0-12.66 0-24.91 0-37.19-17.65 0-35 0-52.46 0z"/><path d="m34.05 337.36c8.93.54 17.5 1.28 26.09 1.51 8.38.22 12.7-3.98 12.73-12.47.12-34.66.05-69.33.05-103.99 0-.61-.12-1.21-.28-2.69-6.46 4.61-12.58 8.53-18.18 13.09-5.47 4.45-10.4 9.55-15.81 14.59-3.72-7-7.81-14.71-12.11-22.8 8.79-3.69 17.33-7.18 25.78-10.87 5.94-2.59 11.85-5.29 17.58-8.29 1.39-.73 2.9-2.86 2.91-4.35.15-27.16.09-54.33.05-81.49 0-.31-.18-.61-.62-2.03-7.26.59-14.86.77-22.29 1.97-4.33.7-7.63.61-10.71-2.84-2.53-2.83-5.59-5.18-9.34-8.59h42.46c0-26.37 0-52.06 0-78.26 9.12 4.55 18.12 9.05 27.36 13.66-.6.85-.85 1.55-1.35 1.88-7.73 5.14-8.92 12.53-8.46 21.22.63 11.97.15 23.99.17 35.99 0 1.62.14 3.24.21 4.83 6.17 1.41 11.31.86 15.25-4.5 2.16-2.93 4.92-5.41 7.68-8.38 5.9 7.9 11.39 15.25 17.43 23.34-13.97 0-26.89 0-40.19 0v78.76c11.96-5.23 23.76-10.39 35.85-15.68.88 1.12 1.75 2.24 2.78 3.56-.65.62-1.16 1.25-1.81 1.68-11.07 7.41-22.08 14.91-33.29 22.1-3.07 1.97-4.01 4.13-4 7.68.13 39.5.2 78.99.02 118.49-.07 16.26-7.07 28.79-21.63 36.67-.57.31-1.2.52-2.29.98-2.35-16.84-14.84-23.4-28.6-28.68-3.63-1.39-3.6-1.46-3.44-6.09z"/><path d="m332.03 173.94c-4.77-.9-5.48-3-4.36-7.21 4.64-17.47 8.83-35.07 13.35-53.28-2.06-.11-3.78-.27-5.5-.27-14.49-.02-28.99.17-43.47-.13-4.1-.09-5.73 1.25-6.88 5.03-8.85 28.88-21.62 56.03-36.6 82.19-.31.54-.69 1.03-.97 1.45-5.32-1.93-5.19-5-3.26-9.66 14.2-34.32 24.64-69.8 30.26-106.53 2.51-16.38 3.53-32.99 5.23-49.5.1-.95.2-1.9.37-3.53 10.82 5.63 21.2 11.03 31.6 16.44-.19.51-.24.94-.39.98-9.17 2.51-11.96 9.44-13.52 17.98-1.9 10.42-4.82 20.66-7.27 30.99-.3 1.26-.42 2.57-.69 4.29 1.71.15 3.12.38 4.54.39 13.66.03 27.32.16 40.97-.12 2.29-.05 5-1.44 6.72-3.06 4.08-3.84 7.68-8.19 11.81-12.69 7.21 7.68 14.11 15.03 20.96 22.32-.24.52-.29.95-.5 1.04-13.93 6.03-20.19 18.62-26.53 31.1-5.31 10.51-10.53 21.08-15.87 31.78z"/><path d="m293.08 143.01c9.56 3.82 18.61 7.45 27.81 11.12-.31.61-.41 1.21-.74 1.39-8.13 4.49-8.97 11.63-8.91 20.19.35 53.13.19 106.26.15 159.39 0 3.82-.01 7.71-.71 11.44-2.41 12.96-10.71 20.57-23.38 24.52-3.02-7.68-7.09-14.98-14.68-18.69-7.21-3.53-15.04-5.78-23.43-8.9 0-.03-.11-1.46-.23-3.07.81-.21 1.44-.54 2.03-.49 9.28.72 18.57 1.3 27.81 2.29 9.14.98 13.88-2.33 15.21-11.34.31-2.12.55-4.28.55-6.42.03-46.14.14-92.27-.04-138.41-.05-14.11-.92-28.22-1.44-43.02z"/><path d="m238.33 56.6c-1.44 1.37-2.38 2.63-3.62 3.38-6.58 3.98-8.29 9.65-7.81 17.2.9 14.27.76 28.61 1.26 42.91.1 2.74-.65 4.22-3.12 5.41-4.88 2.36-9.6 5.05-14.99 7.93 0-5.04 0-9.3 0-13.95-18.73 0-37.09 0-56.13 0 2.92 9.02-3.95 10.97-9.71 13.81-2.5 1.23-4.91 2.62-7.8 4.17 0-32.12 0-63.68 0-95.85 5.44 3.05 10.51 6.13 15.8 8.75 2.42 1.2 5.27 2.1 7.94 2.14 13.49.21 26.99-.07 40.48.19 4.34.08 7.71-.85 10.42-4.32 2.13-2.73 4.57-5.23 6.86-7.82 7.16 5.62 13.57 10.66 20.42 16.05zm-28.58 6.01c-18.76 0-37.1 0-55.49 0v46.63h55.49c0-15.63 0-30.91 0-46.63z"/></g><path d="m2.6 9.9.8-1c.9.7 1.9 1.4 2.9 2.3l-.9 1.1c-1.1-1-2-1.8-2.8-2.4zm.5 10.6c.9-2.1 1.6-4.3 2.3-6.7.4.2.8.4 1.3.6-.7 2.1-1.5 4.3-2.2 6.6zm.3-15.2.9-.9c1 .8 2 1.6 2.8 2.4l-1 1c-.9-.9-1.8-1.7-2.7-2.5zm12.6-1.2h1.2v1.4h2.7v1.1h-2.7v2.7h-1.2v-.6h-1.8v1.3h4.9v3.8h-1.2v-.5h-3.7c0 .4-.1.9-.1 1.2h5.1v1h-5.2c0 .5-.1.9-.2 1.2h6v1h-5.2c1.1 1.3 2.9 2 5.5 2.2-.4.4-.7.8-.9 1.3-2.9-.5-4.8-1.6-5.7-3.5h-.1c-.8 1.7-2.7 2.9-5.9 3.6-.2-.4-.6-.8-.9-1.1 2.8-.6 4.6-1.4 5.4-2.5h-4.8v-1h5.3c.1-.3.2-.7.2-1.2h-4.9v-1h5c0-.4 0-.8.1-1.2h-3.6v.5h-1.2v-3.8h4.9v-1.3h-1.8v.5h-1.2v-2.7h-2.7v-1h2.7v-1.4h1.2v1.4h4.8zm-6.7 8.3h3.6c0-.4 0-.9 0-1.4h-3.6zm1.9-4.6h4.8v-1.3h-4.7v1.3zm6.7 3.2h-3.7v1.4h3.7z" fill="#fcfafa"/><path d="m8.7 22.1h1.3v2.2h2.8v-2.2h1.3v2.2h4.1v9.1h1.7v1.3h-17v-1.3h1.7v-9.1h4.1zm.3 13.1.7 1.2c-1.8.9-3.8 1.9-6 2.9-.2-.4-.5-.8-.8-1.3 2.3-1 4.4-1.9 6.1-2.8zm-3.1-6.4h2.8v-3.2h-2.8zm0 4.6h2.8v-3.3h-2.8zm4.1-4.6h2.8v-3.2h-2.8zm0 4.6h2.8v-3.3h-2.8zm3.6 1.9c2.1.9 4.1 1.8 6.1 2.7l-.7 1.4c-2.2-1.1-4.2-2-6.1-2.9zm3.2-9.7h-2.8v3.2h2.8zm-2.7 7.8h2.8v-3.3h-2.8z" fill="#fcfafa"/></svg>