<svg enable-background="new 0 0 400 400" viewBox="0 0 400 400" xmlns="http://www.w3.org/2000/svg"><g fill="#010103"><path d="m187.93 244.41c-2.68 0-4.65 0-6.62 0-30.66 0-61.33-.28-91.99.16-10.06.14-20.11 1.98-30.12 3.38-2.89.4-4.93.28-7.02-2.01-3.2-3.51-6.82-6.64-11.36-10.98h146.62c0-7.85 0-15.21 0-23.11 5.28 1.71 10.66 3.14 15.8 5.21 3.53 1.42 6.55 1.14 9.96-.22 15.11-6.03 30.29-11.89 46.7-18.3-2.03-.3-2.84-.52-3.64-.52-48.16-.01-96.32-.15-144.48.17-8.22.05-16.42 2.18-24.66 3.17-1.41.17-3.33-.06-4.33-.92-4.15-3.55-8.03-7.41-12.01-11.16.18-.45.37-.9.55-1.35h5.67c61.16 0 122.32-.07 183.48.12 5.5.02 9.95-1.12 14.05-4.77 3.33-2.97 7.12-5.42 10.89-8.24 7.6 8.55 14.97 16.84 22.76 25.61-33.01 3.67-63.68 13.71-94.29 24.12-5.3 1.8-6.9 4.31-5.27 10.04h5.05c30.66 0 61.33.08 91.99-.13 2.65-.02 5.71-1.38 7.85-3.05 6.27-4.9 12.18-10.28 17.81-15.11 9.28 9.28 18.3 18.31 27.64 27.64-49.96 0-100.21 0-150.91 0 0 9.34-.2 17.81.04 26.27.64 22.7-14.95 31.16-31.61 34.53-1.03.21-3.08-.72-3.4-1.58-3-8.14-9.87-12.02-17.05-15.12-7.14-3.08-14.57-5.6-22.08-7.63-3.96-1.07-4.86-2.69-3.72-6.32 13.23 1.34 26.4 2.68 39.56 3.99 1.98.2 3.99.42 5.97.28 9.81-.69 12.83-2.3 12.23-12.45-.39-6.97-.06-13.98-.06-21.72z"/><path d="m105.81 98.28c3.85 1.76 8.25 3.36 12.23 5.68 6.01 3.51 12.35 4.08 19.14 4.05 42.14-.16 84.28-.21 126.42.06 6.31.04 11.29-1.14 15.04-6.33.97-1.35 2.16-2.54 3.56-4.16 6.92 4.93 13.46 9.6 20.28 14.46-1.21 1.33-1.91 2.54-2.96 3.19-7.63 4.73-7.54 12.09-7.08 19.75.6 10.1.95 20.22 1.43 30.85-6.34 2.28-12.83 4.61-19.8 7.12 0-4.83 0-9.24 0-14.09-49.72 0-99.06 0-148.79 0v9.73c-6.73 1.93-13.18 3.79-19.46 5.59-.01-25.45-.01-50.62-.01-75.9zm167.82 50.36c0-10.42 0-20.33 0-30.24-49.65 0-98.99 0-148.16 0v30.24z"/><path d="m357.57 83c-1.29 0-3.26 0-5.24 0-86.82 0-173.63-.1-260.45.14-9.55.03-19.11 1.78-28.63 3.07-2.5.34-4.2.41-6.09-1.61-3.4-3.62-7.2-6.87-10.27-11.38h149.92c-7.36-16.63-19.21-28.17-32.94-38.21.91-3.12 2.1-4.45 5.7-3.5 11.74 3.12 23.57 5.95 33.88 12.77 7.26 4.81 9.73 11.37 6.72 18.92-1.34 3.37-4.01 6.21-6.36 9.73h4.16c32.16 0 64.32.07 96.48-.13 2.65-.02 5.72-1.37 7.86-3.05 6.15-4.82 11.91-10.12 17.59-15.03 9.31 9.52 18.54 18.95 27.67 28.28z"/><path d="m88.48 302.37c-.67 19.23-.01 38.61-12.6 54.78-5.86 7.53-13.84 12.39-23.74 12.85-4.49.21-9.03-.96-10.88-5.48-1.8-4.38.81-8.03 3.98-10.99 1.81-1.69 3.76-3.3 5.83-4.64 15.58-10.07 25.31-24.33 29.43-42.22 1.12-4.83 3.17-5.53 7.98-4.3z"/><path d="m293.26 305.93c1.41-1.48 2.53-2.66 3.94-4.15 15 9.78 29.93 19.35 40.12 34.54 5.23 7.8 6.6 15.87 1.66 24.33-2.88 4.93-7.53 7.39-12.45 6.41-4.98-.99-6.67-4.91-7.73-9.32-4.56-19.14-12.15-36.84-25.54-51.81z"/><path d="m131.75 306.44c3.24-3.47 5.75-2.95 8.77-.27 9.6 8.53 18.78 17.39 25.12 28.74 6.01 10.75 5.83 21.06-.46 28.39-3.14 3.66-7.68 5.26-11.61 3.3-2.9-1.44-6-5.43-6.33-8.57-1.97-18.15-6.06-35.55-15.49-51.59z"/><path d="m213.19 306.34c3.36-3.35 5.8-2.99 9.07-.07 9.23 8.25 18.17 16.7 24.3 27.59 3.52 6.25 6.75 12.89 4.43 20.29-1.15 3.66-2.89 7.83-5.72 10.06-2.57 2.03-7.43 3.11-10.4 2.08-2.64-.92-5.4-5.13-5.83-8.2-2.54-18.03-5.98-35.7-15.85-51.75z"/></g><path d="m2.6 9.9.8-1c.9.7 1.9 1.4 2.9 2.3l-.9 1.1c-1.1-1-2-1.8-2.8-2.4zm.5 10.6c.9-2.1 1.6-4.3 2.3-6.7.4.2.8.4 1.3.6-.7 2.1-1.5 4.3-2.2 6.6zm.3-15.2.9-.9c1 .8 2 1.6 2.8 2.4l-1 1c-.9-.9-1.8-1.7-2.7-2.5zm12.6-1.2h1.2v1.4h2.7v1.1h-2.7v2.7h-1.2v-.6h-1.8v1.3h4.9v3.8h-1.2v-.5h-3.7c0 .4-.1.9-.1 1.2h5.1v1h-5.2c0 .5-.1.9-.2 1.2h6v1h-5.2c1.1 1.3 2.9 2 5.5 2.2-.4.4-.7.8-.9 1.3-2.9-.5-4.8-1.6-5.7-3.5h-.1c-.8 1.7-2.7 2.9-5.9 3.6-.2-.4-.6-.8-.9-1.1 2.8-.6 4.6-1.4 5.4-2.5h-4.8v-1h5.3c.1-.3.2-.7.2-1.2h-4.9v-1h5c0-.4 0-.8.1-1.2h-3.6v.5h-1.2v-3.8h4.9v-1.3h-1.8v.5h-1.2v-2.7h-2.7v-1h2.7v-1.4h1.2v1.4h4.8zm-6.7 8.3h3.6c0-.4 0-.9 0-1.4h-3.6zm1.9-4.6h4.8v-1.3h-4.7v1.3zm6.7 3.2h-3.7v1.4h3.7z" fill="#fcfafa"/><path d="m8.7 22.1h1.3v2.2h2.8v-2.2h1.3v2.2h4.1v9.1h1.7v1.3h-17v-1.3h1.7v-9.1h4.1zm.3 13.1.7 1.2c-1.8.9-3.8 1.9-6 2.9-.2-.4-.5-.8-.8-1.3 2.3-1 4.4-1.9 6.1-2.8zm-3.1-6.4h2.8v-3.2h-2.8zm0 4.6h2.8v-3.3h-2.8zm4.1-4.6h2.8v-3.2h-2.8zm0 4.6h2.8v-3.3h-2.8zm3.6 1.9c2.1.9 4.1 1.8 6.1 2.7l-.7 1.4c-2.2-1.1-4.2-2-6.1-2.9zm3.2-9.7h-2.8v3.2h2.8zm-2.7 7.8h2.8v-3.3h-2.8z" fill="#fcfafa"/></svg>