<svg enable-background="new 0 0 400 400" viewBox="0 0 400 400" xmlns="http://www.w3.org/2000/svg"><g fill="#010103"><path d="m336.57 84.23c-27.98 0-55.38 0-83.08 0v22.37h6.06c20.66 0 41.33-.13 61.99.11 4.52.05 7.96-1.29 11.21-4.19 3.45-3.08 7.14-5.89 11-9.04 8.31 7.38 16.36 14.53 25.21 22.39-2.27.53-3.73 1-5.22 1.19-8.92 1.12-16.47 4.91-22.81 11.27-3.53 3.54-7.14 7.01-10.95 10.23-1.39 1.17-3.48 1.51-5.26 2.23-.32-.46-.63-.93-.95-1.39 2.29-7.53 4.57-15.06 6.98-22.97-30.79 0-60.99 0-91.19 0-.06.25-.13.51-.19.76 8.1 2.62 16.2 5.25 24.79 8.03-1.49 1.15-2.48 2.35-3.74 2.82-9.22 3.43-9.5 10.62-7.91 19.12 6.78-1.39 13.68-2.4 20.28-4.39 2.32-.7 4-3.73 5.83-5.82 2.29-2.63 4.42-5.39 6.95-8.5 8.25 5.5 16.34 10.88 25.53 17-20.35 3.49-39.47 6.78-59 10.13 0 5.3-.3 10.44.09 15.53.35 4.58 4.08 7.8 8.86 7.84 14.5.11 29 .24 43.49-.08 8.71-.19 14.07-6.42 15.3-16.72.45-3.8.78-7.61 1.2-11.77h6.26c.33 11.65.07 23.9 14.77 28.48-5.58 9.91-14.27 14.53-23.99 14.93-21.41.89-42.91 1.1-64.32.19-13.98-.6-20.56-9.16-20.76-23.16-.05-3.45-.01-6.91-.01-11.89-10.83 2.16-20.93 3.75-30.77 6.29-5.06 1.31-9.12 1.83-12.9-2.47-1.69-1.92-4.03-3.26-6.75-5.39 15.79-2.24 30.65-4.49 45.56-6.37 3.71-.47 5.09-1.53 4.97-5.48-.3-9.6-.1-19.22-.1-29.08-19.66 0-38.75 0-58.59 0 0 2.09.01 4.03 0 5.98-.11 36.49.92 73.03-.61 109.47-2.29 54.3-23.06 100.85-63.19 138.22-2.56 2.38-4.44 2.45-6.57-.53 15.31-18.25 27.15-38.56 35.27-60.98 9.07-25.04 14.2-50.89 14.61-77.5.52-33.97.6-67.96.6-101.94 0-11.24-.82-22.47-1.28-34.02 1.74.79 3.36 1.28 4.71 2.18 12.12 8.02 25.37 10.42 39.78 9.46 12.08-.8 24.26-.17 37.58-.17-.95-24.51-1.87-48.46-2.81-72.7 10.82 3.15 21.58 6.29 33.27 9.7-3.57 2.48-6.71 4.28-9.36 6.64-1.5 1.34-2.95 3.55-3.08 5.46-.39 5.96-.14 11.97-.14 18.56 1.98.12 3.73.32 5.48.32 10.83.03 21.67.18 32.49-.11 2.57-.07 5.48-1.16 7.59-2.69 4.95-3.59 9.51-7.73 13.92-11.4 7.93 7.92 15.56 15.53 23.9 23.85z"/><path d="m155.88 349.86h46.06c0-48.56 0-96.59 0-145.1 5.76 3.2 11.78 6.79 18.02 9.92 2.55 1.28 5.58 2.21 8.41 2.23 22.83.18 45.66-.05 68.48.22 4.74.06 8.23-1.22 11.41-4.56 2.74-2.87 5.87-5.37 9.23-8.4 6.62 6.15 13.12 12.2 19.86 18.45-1.36 1-2.3 2.03-3.47 2.52-8.31 3.44-9.81 9.71-9.68 18.24.51 33.32.21 66.65.21 99.97v5.8c5.21 1.71 8.71.36 11.76-3.52 3.15-4.01 6.82-7.62 10.51-11.69 7.92 8.36 15.54 16.4 24.14 25.47-3.03 0-4.92 0-6.81 0-48.82 0-97.64 0-146.47 0-15.13 0-30.23.28-45.08 3.79-1.06.25-2.69.03-3.44-.65-4.12-3.76-8.05-7.73-13.14-12.69zm149.92-80.24c-28.49 0-56.49 0-84.43 0v34.76h84.43c0-11.75 0-23.05 0-34.76zm-84.6 79.78h84.44c0-11.85 0-23.27 0-34.8-28.3 0-56.31 0-84.44 0zm84.59-121.93c-28.49 0-56.47 0-84.41 0v31.68h84.41c0-10.72 0-21.01 0-31.68z"/><path d="m90.26 143.03c6.81 6.32 13.27 12.31 19.86 18.42-.7.74-1.15 1.52-1.83 1.9-8.56 4.8-9.62 12.29-9.49 21.44.5 35.81.2 71.64.2 107.46v6.55c13.07-13.54 25.25-26.17 37.43-38.78 4.26 2.81 4.31 5.38 1.36 9.7-12.73 18.67-25.02 37.65-37.3 56.63-2.41 3.72-4.04 7.94-6.23 12.36-7.5-7.01-14.88-13.9-22.65-21.17 7.83-9.27 7.29-20.29 7.25-31.31-.11-37.49-.04-74.97-.04-112.46 0-1.97 0-3.93 0-6.21-11.77-1.09-22.97-.42-33.87 2.79-3.35.99-5.17.44-7.05-2.32-2.22-3.26-4.86-6.23-7.92-10.08 2.43-.16 3.98-.35 5.53-.35 12.5-.02 24.99-.13 37.49.06 3.79.06 6.61-.62 8.84-4.05 2.34-3.59 5.33-6.76 8.42-10.58z"/><path d="m63.12 40.75c2-3.83 4.34-4.21 7.99-2.01 13.03 7.87 25.41 16.47 34.52 28.94 8.15 11.17 6.33 22.16-4.74 30.28-3.97 2.91-7.17 2.5-9.42-1.86-1.48-2.88-2.28-6.19-2.91-9.4-3.25-16.69-11.95-30.43-22.9-43-.86-.99-1.72-2-2.54-2.95z"/></g><path d="m2.6 9.9.8-1c.9.7 1.9 1.4 2.9 2.3l-.9 1.1c-1.1-1-2-1.8-2.8-2.4zm.5 10.6c.9-2.1 1.6-4.3 2.3-6.7.4.2.8.4 1.3.6-.7 2.1-1.5 4.3-2.2 6.6zm.3-15.2.9-.9c1 .8 2 1.6 2.8 2.4l-1 1c-.9-.9-1.8-1.7-2.7-2.5zm12.6-1.2h1.2v1.4h2.7v1.1h-2.7v2.7h-1.2v-.6h-1.8v1.3h4.9v3.8h-1.2v-.5h-3.7c0 .4-.1.9-.1 1.2h5.1v1h-5.2c0 .5-.1.9-.2 1.2h6v1h-5.2c1.1 1.3 2.9 2 5.5 2.2-.4.4-.7.8-.9 1.3-2.9-.5-4.8-1.6-5.7-3.5h-.1c-.8 1.7-2.7 2.9-5.9 3.6-.2-.4-.6-.8-.9-1.1 2.8-.6 4.6-1.4 5.4-2.5h-4.8v-1h5.3c.1-.3.2-.7.2-1.2h-4.9v-1h5c0-.4 0-.8.1-1.2h-3.6v.5h-1.2v-3.8h4.9v-1.3h-1.8v.5h-1.2v-2.7h-2.7v-1h2.7v-1.4h1.2v1.4h4.8zm-6.7 8.3h3.6c0-.4 0-.9 0-1.4h-3.6zm1.9-4.6h4.8v-1.3h-4.7v1.3zm6.7 3.2h-3.7v1.4h3.7z" fill="#fcfafa"/><path d="m8.7 22.1h1.3v2.2h2.8v-2.2h1.3v2.2h4.1v9.1h1.7v1.3h-17v-1.3h1.7v-9.1h4.1zm.3 13.1.7 1.2c-1.8.9-3.8 1.9-6 2.9-.2-.4-.5-.8-.8-1.3 2.3-1 4.4-1.9 6.1-2.8zm-3.1-6.4h2.8v-3.2h-2.8zm0 4.6h2.8v-3.3h-2.8zm4.1-4.6h2.8v-3.2h-2.8zm0 4.6h2.8v-3.3h-2.8zm3.6 1.9c2.1.9 4.1 1.8 6.1 2.7l-.7 1.4c-2.2-1.1-4.2-2-6.1-2.9zm3.2-9.7h-2.8v3.2h2.8zm-2.7 7.8h2.8v-3.3h-2.8z" fill="#fcfafa"/></svg>