<svg enable-background="new 0 0 400 400" viewBox="0 0 400 400" xmlns="http://www.w3.org/2000/svg"><g fill="#010103"><path d="m295.26 175.06c7.2 6.25 14.1 12.24 21.5 18.67-.97.68-1.61 1.25-2.35 1.61-8.16 3.91-9.65 10.43-9.46 19.08.65 28.81.31 57.63.49 86.45.04 6.45.65 12.91 1.01 19.5-7.17 3.32-14.02 6.5-21.49 9.97 0-4.7 0-8.63 0-12.86-56.43 0-112.47 0-169.19 0 3 9.01-3.82 10.26-9.4 12.48-3.65 1.45-7.35 2.8-11.14 4.23 0-51.95 0-103.45 0-155.67 6.21 3.08 12.15 6.24 18.29 8.97 2.63 1.17 5.67 2 8.53 2.01 51.64.12 103.29.05 154.93.16 3.65.01 6.25-.87 8.54-3.79 2.87-3.64 6.2-6.92 9.74-10.81zm-10.45 24.5c-56.56 0-112.56 0-168.44 0v29h168.44c0-9.82 0-19.26 0-29zm-168.6 68.09h168.56c0-9.79 0-19.22 0-28.93-56.27 0-112.31 0-168.56 0zm.02 39.55h168.49c0-9.81 0-19.24 0-28.86-56.27 0-112.26 0-168.49 0z"/><path d="m235.44 106.35c-2.12 23.53-15.44 39.22-34.47 50.99-16.72 10.35-35.07 16.5-54.17 21.46-.98-1.86-1.82-3.43-2.2-4.16 12.52-6.66 25.35-12.5 37.12-19.99 17.72-11.27 29.86-27.29 32.49-48.57 1.48-11.98.66-24.27.61-36.42-.03-7.26-.6-14.51-.97-22.58 4.26 2.09 8.12 3.38 11.29 5.64 8.48 6.05 17.6 5.54 27.17 3.94 23.19-3.88 45.68-10 67.02-19.97 2.68-1.25 4.34-.98 6.49 1.01 7.16 6.62 14.54 13.01 22.5 20.08-1.45.15-2.05.3-2.62.26-16.43-1.25-32.39 2.67-48.56 4.27-16.53 1.63-33.11 2.76-49.66 4.09-3.3.27-6.61.45-10.19.7v28.9h5.48c24.99 0 49.98-.07 74.97.07 3.71.02 6.66-.68 9.34-3.41 3.6-3.67 7.56-6.99 10.95-10.08 7.9 7.9 15.6 15.61 23.38 23.39-19.23 0-38.91 0-58.91 0 0 11.17-.12 21.77.04 32.37.12 7.98.64 15.95.86 23.93.03.96-.46 2.43-1.17 2.83-6.19 3.46-12.49 6.73-19.01 10.2 0-23.3 0-45.98 0-68.94-15.7-.01-31.46-.01-47.78-.01z"/><path d="m112.87 110.16c0-10.24 0-19.22 0-28.11-.38-.3-.64-.69-.89-.68-17.76.63-35.53 1.12-53.27 2.15-2.94.17-4.65-.16-6.26-2.39-2.09-2.91-4.3-5.75-7.13-9.5h67.15c0-12.32 0-24.04 0-36.27 10.81 3.14 21.58 6.27 33.43 9.72-3.77 2.57-6.92 4.31-9.54 6.64-1.5 1.34-2.85 3.56-3.04 5.51-.45 4.44-.14 8.96-.14 14.24 7.33 0 14.42.12 21.48-.12 1.2-.04 2.49-1.53 3.51-2.58 4.29-4.39 8.5-8.87 12.91-13.5 8.2 8.68 15.81 16.74 24.35 25.79-21.38 0-41.53 0-61.96 0v26.76c9.03-1.08 17.73-2.06 26.42-3.18 8.72-1.13 17.44-2.32 26.14-3.64 5.46-.83 4.84 2.91 5.12 6.62-19.13 3.85-38.21 7.69-57.97 11.66 0 7.65.02 15.24 0 22.84-.06 19.22-13.17 33.25-32.69 34.82-4.43-18.17-20.14-20.41-34.99-24.46.26-1.34.53-2.74.85-4.38 1.06-.1 2.01-.32 2.95-.25 10.28.69 20.54 1.74 30.83 2.07 9.54.31 12.86-3.34 12.87-12.84.01-4.31 0-8.61 0-13.56-21.81 4.24-43.43 6.87-62.78 18.28-4-8.02-8.06-16.14-12.18-24.39 25.06-2.44 49.74-4.82 74.83-7.25z"/><path d="m184.39 341.28c-15.15-2.02-28.16 4.72-41.71 9.35-31.3 10.68-63.44 17.97-96.28 23.42-.53-2.2-1.02-4.26-1.53-6.4 11.94-3.44 23.78-6.53 35.42-10.27 26.01-8.37 50.85-19.33 73.56-34.73 2.03-1.38 3.5-1.69 5.67-.11 8.2 5.96 16.56 11.68 24.87 17.49z"/><path d="m224.59 328.93c.82-3.72 2.27-5.59 5.98-4.98 26.84 4.42 53.81 8.2 79.72 16.96 3.61 1.22 7.07 2.9 10.64 4.25 7.48 2.83 11.37 8.83 14.15 15.83 1.44 3.63 1.93 7.48-1.63 9.94-3.66 2.53-7.9 4.66-12.5 2.02-10.67-6.13-21.21-12.49-31.9-18.58-19.03-10.85-39.67-17.71-60.49-24.12-1.24-.38-2.47-.82-3.97-1.32z"/></g><path d="m2.6 9.9.8-1c.9.7 1.9 1.4 2.9 2.3l-.9 1.1c-1.1-1-2-1.8-2.8-2.4zm.5 10.6c.9-2.1 1.6-4.3 2.3-6.7.4.2.8.4 1.3.6-.7 2.1-1.5 4.3-2.2 6.6zm.3-15.2.9-.9c1 .8 2 1.6 2.8 2.4l-1 1c-.9-.9-1.8-1.7-2.7-2.5zm12.6-1.2h1.2v1.4h2.7v1.1h-2.7v2.7h-1.2v-.6h-1.8v1.3h4.9v3.8h-1.2v-.5h-3.7c0 .4-.1.9-.1 1.2h5.1v1h-5.2c0 .5-.1.9-.2 1.2h6v1h-5.2c1.1 1.3 2.9 2 5.5 2.2-.4.4-.7.8-.9 1.3-2.9-.5-4.8-1.6-5.7-3.5h-.1c-.8 1.7-2.7 2.9-5.9 3.6-.2-.4-.6-.8-.9-1.1 2.8-.6 4.6-1.4 5.4-2.5h-4.8v-1h5.3c.1-.3.2-.7.2-1.2h-4.9v-1h5c0-.4 0-.8.1-1.2h-3.6v.5h-1.2v-3.8h4.9v-1.3h-1.8v.5h-1.2v-2.7h-2.7v-1h2.7v-1.4h1.2v1.4h4.8zm-6.7 8.3h3.6c0-.4 0-.9 0-1.4h-3.6zm1.9-4.6h4.8v-1.3h-4.7v1.3zm6.7 3.2h-3.7v1.4h3.7z" fill="#fcfafa"/><path d="m8.7 22.1h1.3v2.2h2.8v-2.2h1.3v2.2h4.1v9.1h1.7v1.3h-17v-1.3h1.7v-9.1h4.1zm.3 13.1.7 1.2c-1.8.9-3.8 1.9-6 2.9-.2-.4-.5-.8-.8-1.3 2.3-1 4.4-1.9 6.1-2.8zm-3.1-6.4h2.8v-3.2h-2.8zm0 4.6h2.8v-3.3h-2.8zm4.1-4.6h2.8v-3.2h-2.8zm0 4.6h2.8v-3.3h-2.8zm3.6 1.9c2.1.9 4.1 1.8 6.1 2.7l-.7 1.4c-2.2-1.1-4.2-2-6.1-2.9zm3.2-9.7h-2.8v3.2h2.8zm-2.7 7.8h2.8v-3.3h-2.8z" fill="#fcfafa"/></svg>