<svg enable-background="new 0 0 400 400" viewBox="0 0 400 400" xmlns="http://www.w3.org/2000/svg"><g fill="#010103"><path d="m213.62 325.64c-5.3-11.61-14.79-17.38-26.33-20.66-1.34-.38-2.23-2.37-3.33-3.62 1.52-.79 3.06-2.27 4.57-2.26 6.81.06 13.61.7 20.43.84 5.66.12 8.47-2.68 8.97-8.39.09-.99.07-2 .07-3 0-39.82.01-79.65-.01-119.47 0-1.46-.14-2.92-.23-4.64-27.51 0-54.76 0-82.76 0v5.81c0 43.99-.05 87.98.09 131.96.01 3.67-1.03 5.72-4.4 7.24-4.81 2.18-9.38 4.91-13.76 7.25 0-57.22 0-114.35 0-171.67 5.06 2.86 10.48 5.94 16.15 9.15 0-37.3 0-74.12 0-111.08 5.15 3.29 10.63 7 16.32 10.32 2.03 1.19 4.6 2.01 6.93 2.05 12.33.2 24.66-.07 36.99.19 4.02.08 6.96-.86 9.42-4.13 2.28-3.05 5.03-5.74 7.96-9.01 5.73 5.2 11.33 10.28 16.77 15.22-.16.77-.12 1.19-.31 1.37-7.19 6.85-8.41 15.3-8.15 24.9.58 21.31.18 42.65.18 63.98v6.44c4.3-3.05 7.86-5.58 11.89-8.44 4.68 6.04 9.33 12.04 13.9 17.93-.25.57-.3 1.01-.51 1.11-8.26 3.81-9.6 10.36-9.48 18.98.5 37.48.26 74.98.19 112.47-.06 14.88-7.7 25.23-21.56 29.16zm-11.77-260.07c-17.18 0-33.89 0-50.58 0v31.63c10.87 2.51 19.64.68 23.95-11.49 6.4 5.88 11.94 10.97 17.25 15.85-2.4 3.75-6.02 6.85-6.17 10.1-.65 14.1-.28 28.24-.28 42.59h15.83c0-29.65 0-58.97 0-88.68zm-50.52 42.17v46.5h17.12c0-15.68 0-31.02 0-46.5-5.96 0-11.52 0-17.12 0z"/><path d="m44.6 355.21c-5.67-5.28-11.95-11.14-19.14-17.85 12.91-10.19 24.75-20.72 37.81-29.43 8.33-5.55 11.11-11.39 10.93-21.31-.67-37.14-.27-74.3-.27-111.46 0-1.81 0-3.62 0-5.84-10.25-.84-20.09-.53-29.7 2.57-2.83.91-4.77.83-6.75-1.87-2.63-3.58-5.9-6.7-9.42-10.59 1.86-.22 3.06-.48 4.27-.48 11.66-.03 23.33-.17 34.99.07 3.69.08 6.3-.89 8.53-3.84 2.29-3.04 4.99-5.77 8.04-9.24 6.66 5.67 13.14 11.18 20.97 17.84-1.5.67-2.47 1-3.35 1.5-8.06 4.61-9.44 11.63-9.32 20.53.51 36.48.14 72.97.35 109.46.02 2.8 1.32 6.23 3.21 8.3 19.74 21.68 44.5 34.06 73.46 37.29 33.49 3.73 67.13 2.48 100.73 1.15 15.12-.6 30.25-1.17 45.35-2.13 19.73-1.25 39.44-2.88 59.46-4.36v4.09c-6.74 4.01-13.45 7.34-19.34 11.77-3.12 2.34-5.63 6.3-6.9 10.04-1.13 3.33-2.57 3.99-5.58 4.03-15.64.23-31.28.7-46.92.93-19.64.29-39.29.74-58.93.54-28.52-.29-56.68-3.38-83.86-12.73-20.64-7.1-38.99-17.68-53.52-34.34-2.25-2.58-5.06-5.29-8.16-6.37-3.29-1.15-8.26-1.94-10.71-.27-8.58 5.85-17.37 11.96-24.19 19.64-5.41 6.1-8.04 14.65-12.04 22.36z"/><path d="m292.67 325.69c-2.81-12.81-12.07-18.35-22.44-22.84-1.98-.86-5.42-1-3.59-5.4 5.45.7 11.04 1.24 16.56 2.15 11.2 1.85 14.82-1.07 14.81-12.34-.05-77.99-.09-155.98-.21-233.98-.01-6.27-.56-12.54-.9-19.52 9.65 4.32 18.71 8.38 28.43 12.73-3.05 2.7-6.06 4.97-8.52 7.72-1.38 1.54-2.61 3.88-2.62 5.87-.18 24.5-.16 49-.03 73.49.01 2.16.89 4.48 1.92 6.44 1.92 3.67 4.25 7.12 6.87 11.44 9.51-20.55 15.64-41.55 20.5-63.72 8.04 6.14 15.88 12.13 23.93 18.27-17.57 12.69-27.05 31.24-38.42 48.26-.99 1.48-.99 4.43-.23 6.17 11.14 25.41 22.84 50.57 33.62 76.13 4.94 11.72 5.84 24.2.53 36.4-.66 1.51-1.33 3.26-2.54 4.24-1.77 1.43-4.7 3.64-5.93 3.05-2.29-1.11-4.76-3.76-5.34-6.21-6.24-25.95-11.57-52.14-18.34-77.94-3.85-14.67-9.9-28.77-14.96-43.13-.49.09-.98.18-1.48.27-.07 1.69-.21 3.37-.21 5.06-.01 44.33.16 88.66-.19 132.99-.05 6.79-1.72 13.88-4.14 20.26-2.76 7.25-9.08 11.55-17.08 14.14z"/><path d="m150.43 181.41c4.47 2.74 8.42 5.47 12.65 7.66 2.99 1.55 6.27 2.69 9.56 3.46 10.55 2.49 17.09-3.79 23.17-11.93 5.06 5.55 9.7 10.62 14.96 16.39-10.39 3.67-8.96 12.07-8.77 20.01.35 14.63.54 29.26 1.09 43.87.15 3.95-.65 6.48-4.62 7.99-4 1.52-7.74 3.72-12.3 5.97 0-4.46 0-8.32 0-12.46-6.48 0-12.4 0-19.17 0 0 4.44.27 9.04-.14 13.58-.15 1.72-1.48 3.94-2.94 4.82-4.23 2.53-8.8 4.5-13.49 6.8 0-35.46 0-70.43 0-106.16zm35.33 19.88c-6.29 0-12.33 0-18.33 0v52.2h18.33c0-17.55 0-34.77 0-52.2z"/><path d="m268.9 140.42c-8.57.84-16.41 1.61-25.44 2.49-2.59-2.91-6.18-6.95-10.59-11.91 9.82 0 18.56-.35 27.25.12 5.64.31 10.03-.96 13.37-5.6 1.55-2.15 3.33-4.15 5.12-6.36 6.38 5.84 11.88 10.87 17.29 15.83-.15.56-.13 1-.32 1.12-8.99 5.6-8.53 14.9-9.48 23.75-4.11 38.7-12.74 76.21-30.01 111.35-3.5 7.12-7.61 13.94-11.47 20.97-3.2-1.14-4.65-2.22-3.32-5.54 11.63-29.13 18.84-59.41 22.66-90.48 1.98-16.14 3.33-32.37 4.91-48.56.19-1.96.03-3.94.03-7.18z"/><path d="m60.66 33.18c11.88 11.05 23.94 21.92 35.58 33.23 8.33 8.1 7.48 25.08 2.1 34.67-1.53 2.73-5.69 5.48-8.59 5.43-2.09-.04-5.23-4.44-5.95-7.37-5.18-21.2-14.37-40.56-25.66-59.07-.87-1.43-.11-3.85-.11-5.81.87-.36 1.75-.72 2.63-1.08z"/><path d="m250.67 62.97c2.41-3.07 4.6-3.03 6.99-.89 7.16 6.45 14.71 12.51 21.38 19.43 4.7 4.88 7.52 11.25 4.92 18.29-1.03 2.77-3.07 5.62-5.45 7.33-5.83 4.22-9.64 2.64-10.99-4.39-2.76-14.45-8.88-27.43-16.85-39.77z"/></g><path d="m2.6 9.9.8-1c.9.7 1.9 1.4 2.9 2.3l-.9 1.1c-1.1-1-2-1.8-2.8-2.4zm.5 10.6c.9-2.1 1.6-4.3 2.3-6.7.4.2.8.4 1.3.6-.7 2.1-1.5 4.3-2.2 6.6zm.3-15.2.9-.9c1 .8 2 1.6 2.8 2.4l-1 1c-.9-.9-1.8-1.7-2.7-2.5zm12.6-1.2h1.2v1.4h2.7v1.1h-2.7v2.7h-1.2v-.6h-1.8v1.3h4.9v3.8h-1.2v-.5h-3.7c0 .4-.1.9-.1 1.2h5.1v1h-5.2c0 .5-.1.9-.2 1.2h6v1h-5.2c1.1 1.3 2.9 2 5.5 2.2-.4.4-.7.8-.9 1.3-2.9-.5-4.8-1.6-5.7-3.5h-.1c-.8 1.7-2.7 2.9-5.9 3.6-.2-.4-.6-.8-.9-1.1 2.8-.6 4.6-1.4 5.4-2.5h-4.8v-1h5.3c.1-.3.2-.7.2-1.2h-4.9v-1h5c0-.4 0-.8.1-1.2h-3.6v.5h-1.2v-3.8h4.9v-1.3h-1.8v.5h-1.2v-2.7h-2.7v-1h2.7v-1.4h1.2v1.4h4.8zm-6.7 8.3h3.6c0-.4 0-.9 0-1.4h-3.6zm1.9-4.6h4.8v-1.3h-4.7v1.3zm6.7 3.2h-3.7v1.4h3.7z" fill="#fcfafa"/><path d="m8.7 22.1h1.3v2.2h2.8v-2.2h1.3v2.2h4.1v9.1h1.7v1.3h-17v-1.3h1.7v-9.1h4.1zm.3 13.1.7 1.2c-1.8.9-3.8 1.9-6 2.9-.2-.4-.5-.8-.8-1.3 2.3-1 4.4-1.9 6.1-2.8zm-3.1-6.4h2.8v-3.2h-2.8zm0 4.6h2.8v-3.3h-2.8zm4.1-4.6h2.8v-3.2h-2.8zm0 4.6h2.8v-3.3h-2.8zm3.6 1.9c2.1.9 4.1 1.8 6.1 2.7l-.7 1.4c-2.2-1.1-4.2-2-6.1-2.9zm3.2-9.7h-2.8v3.2h2.8zm-2.7 7.8h2.8v-3.3h-2.8z" fill="#fcfafa"/></svg>