<svg enable-background="new 0 0 400 400" viewBox="0 0 400 400" xmlns="http://www.w3.org/2000/svg"><g fill="#010103"><path d="m146.97 228.51c0 25.22-.05 49.34.02 73.47.05 17.33-.54 34.71.76 51.95.65 8.61-2.13 12.18-9.59 14.38-4.24 1.25-8.19 3.49-13.16 5.67 0-4.89-.06-9.1.01-13.3.31-19.81.74-39.61.97-59.42.29-25.31.3-50.62.72-75.92.07-4.33-1.27-6.64-5.18-8.33-12.76-5.53-25.4-11.33-38.42-17.17.21-.81.58-2.21 1.26-4.76 13.86 3.3 27.61 6.58 41.8 9.96 0-18.29 0-36.47 0-54.84-17.49 0-34.78 0-52.75 0 0 2.07.01 4.02 0 5.97-.11 23.49.51 47.01-.5 70.46-2.11 49.26-13.26 96.29-37.36 139.76-.48.87-.99 1.73-1.52 2.57-.26.41-.61.77-1.15 1.43-2.75-1.68-4.27-3.27-2.96-7.04 11.4-32.79 18.33-66.55 21-101.14 1.3-16.9 2.37-33.85 2.54-50.79.38-36.82.24-73.65.05-110.47-.08-14.78-.84-29.56-1.32-45.18 6.08 3.21 11.74 6.47 17.65 9.16 2.34 1.06 5.42 1.63 7.89 1.11 28.79-6.13 55.97-16.63 81.85-30.59 1.89-1.02 3.81-1.98 5.98-3.1 7.34 8.72 14.58 17.32 21.81 25.91-.6.57-.83.97-1.04.96-18.56-1.04-35.98 5.58-54.02 8.05-19.38 2.66-38.71 5.73-58.5 8.68v63.71c1.68.09 3.27.26 4.87.26 27.99.02 55.99.09 83.98-.12 2.47-.02 5.44-1.31 7.3-2.99 4.93-4.44 9.39-9.41 14.3-14.44 8.23 9.21 16.06 17.96 24.64 27.55-21.44 0-41.79 0-62.72 0v12.88c0 14.66.13 29.33-.1 43.99-.05 3.48 1.25 4.73 4.24 6.08 12.08 5.45 24.32 10.7 35.84 17.19 9.24 5.2 14.71 13.67 12.75 24.98-.51 2.95-2.25 6.8-4.58 7.99-1.9.97-6.04-.74-8.25-2.47-6.55-5.12-12.51-10.97-18.93-16.27-6.48-5.34-13.23-10.37-20.18-15.78z"/><path d="m216.21 305.04c0-67.48 0-134.61 0-202.91 15.02 9.58 30.67 14.64 49.18 10.71 2.34-15.53 4.79-31.81 7.38-49.01-20.4 1.06-39.75-2.11-58.69 3.05-3.78 1.03-6.09.39-8.57-2.45-2.92-3.35-6.3-6.29-10.59-10.5h6.62c40.32 0 80.64-.05 120.95.08 3.62.01 6.3-1 8.92-3.37 5.18-4.69 10.57-9.14 16.22-13.98 7.96 8.87 15.81 17.61 24.55 27.33-2.78 0-4.49 0-6.21 0-21.49 0-42.98.13-64.47-.12-4.02-.05-5.68 1.32-7.25 4.84-5.95 13.36-12.31 26.54-18.51 39.79-.69 1.48-1.4 2.96-2.34 4.95 1.84.14 3.24.35 4.63.35 14.99.02 29.99-.14 44.98.12 4.17.07 7.2-1.14 10.18-3.94 8.48-7.95 8.56-7.85 17.76-1.11 3.88 2.84 7.76 5.69 13.27 9.73-2.07 1.24-3.6 2.23-5.19 3.11-6.39 3.53-7.24 9.07-7.18 15.92.43 43.31.4 86.62.58 129.94.03 6.31.57 12.63.55 18.94-.01 1.45-1.01 3.61-2.19 4.22-5.86 3.04-11.94 5.66-18.6 8.74 0-5.28 0-9.99 0-15.08-31.89 0-63.25 0-94.64 0-.15.27-.48.58-.43.81 1.88 8.86-2.98 12.78-10.6 15.14-3.57 1.1-6.87 3.1-10.31 4.7zm115.58-128.59c-31.83 0-63.18 0-94.51 0v43.18h94.51c0-14.5 0-28.62 0-43.18zm-.02 53.9c-31.78 0-63.14 0-94.5 0v43.2h94.5c0-14.5 0-28.62 0-43.2zm-.06-64.48c0-14.22 0-27.99 0-42.11-31.54 0-62.94 0-94.35 0v42.11z"/><path d="m174.61 367.15c34.07-20.36 62.92-45.21 82.79-79.89 8.52 6.63 16.71 13.01 24.83 19.33-.34.67-.44 1.14-.62 1.17-14.29 2.73-23.16 13.75-33.71 22.13-20.94 16.64-43.32 30.87-67.92 41.49-.75.32-1.52.57-2.61.97-.88-1.67-1.71-3.22-2.76-5.2z"/><path d="m293.05 294.52c1.89-.18 4.19-1.16 5.61-.43 18.47 9.5 37.2 18.62 53.12 32.33 12.25 10.55 14.51 22.44 6.91 36.53-2.9 5.38-7.16 6.21-10.95 1.37-3.45-4.4-5.79-9.66-8.77-14.44-11.82-18.91-26.87-35.12-42.74-50.62-1.07-1.04-2.38-1.83-3.58-2.73.14-.66.27-1.33.4-2.01z"/></g><path d="m2.6 9.9.8-1c.9.7 1.9 1.4 2.9 2.3l-.9 1.1c-1.1-1-2-1.8-2.8-2.4zm.5 10.6c.9-2.1 1.6-4.3 2.3-6.7.4.2.8.4 1.3.6-.7 2.1-1.5 4.3-2.2 6.6zm.3-15.2.9-.9c1 .8 2 1.6 2.8 2.4l-1 1c-.9-.9-1.8-1.7-2.7-2.5zm12.6-1.2h1.2v1.4h2.7v1.1h-2.7v2.7h-1.2v-.6h-1.8v1.3h4.9v3.8h-1.2v-.5h-3.7c0 .4-.1.9-.1 1.2h5.1v1h-5.2c0 .5-.1.9-.2 1.2h6v1h-5.2c1.1 1.3 2.9 2 5.5 2.2-.4.4-.7.8-.9 1.3-2.9-.5-4.8-1.6-5.7-3.5h-.1c-.8 1.7-2.7 2.9-5.9 3.6-.2-.4-.6-.8-.9-1.1 2.8-.6 4.6-1.4 5.4-2.5h-4.8v-1h5.3c.1-.3.2-.7.2-1.2h-4.9v-1h5c0-.4 0-.8.1-1.2h-3.6v.5h-1.2v-3.8h4.9v-1.3h-1.8v.5h-1.2v-2.7h-2.7v-1h2.7v-1.4h1.2v1.4h4.8zm-6.7 8.3h3.6c0-.4 0-.9 0-1.4h-3.6zm1.9-4.6h4.8v-1.3h-4.7v1.3zm6.7 3.2h-3.7v1.4h3.7z" fill="#fcfafa"/><path d="m8.7 22.1h1.3v2.2h2.8v-2.2h1.3v2.2h4.1v9.1h1.7v1.3h-17v-1.3h1.7v-9.1h4.1zm.3 13.1.7 1.2c-1.8.9-3.8 1.9-6 2.9-.2-.4-.5-.8-.8-1.3 2.3-1 4.4-1.9 6.1-2.8zm-3.1-6.4h2.8v-3.2h-2.8zm0 4.6h2.8v-3.3h-2.8zm4.1-4.6h2.8v-3.2h-2.8zm0 4.6h2.8v-3.3h-2.8zm3.6 1.9c2.1.9 4.1 1.8 6.1 2.7l-.7 1.4c-2.2-1.1-4.2-2-6.1-2.9zm3.2-9.7h-2.8v3.2h2.8zm-2.7 7.8h2.8v-3.3h-2.8z" fill="#fcfafa"/></svg>