<svg enable-background="new 0 0 400 400" viewBox="0 0 400 400" xmlns="http://www.w3.org/2000/svg"><g fill="#010105"><path d="m157.81 297.67c0-6.9.52-13.25-.24-19.44-.34-2.78-3.32-5.19-4.94-7.87-.49-.81-.73-2.03-.51-2.92.11-.44 1.69-1.01 2.3-.77 7.92 3.22 15.79 6.57 25.43 10.63-13.44 3.22-9.16 12.3-9.88 20.26 7.66 0 14.8.23 21.91-.17 1.73-.1 3.45-2.17 4.97-3.56 1.33-1.21 2.38-2.73 3.81-4.42 6.04 4.01 11.9 7.9 17.75 11.79-.11.38-.22.76-.33 1.14-15.87 0-31.74 0-47.84 0v30.16c10.1 0 20.2.19 30.27-.2 1.57-.06 3.12-2.68 4.54-4.25 1.64-1.83 3.11-3.8 4.9-6.01 5.33 4.22 10.38 8.21 15.94 12.6 31.59-61.57 37.28-127.92 39.59-194.97-13.19-2.13-29.13-.86-37.17 3.59-.9-1.36-1.91-3.31-3.32-4.88-1.4-1.55-3.21-2.71-4.85-4.05.28-.42.57-.85.85-1.27h45.01c0-3.19 0-5.95 0-8.71 0-15.83-.24-31.67.11-47.49.16-7.35-1.42-13.48-9.06-18.58 2.51-1.02 4.35-2.51 5.4-2.08 8.76 3.57 17.37 7.48 26.01 11.34.39.17.6.75.96 1.23-.27.4-.48 1.07-.81 1.13-8.33 1.57-10.14 6.72-9.81 14.71.66 15.78.19 31.6.19 48.1 1.11.05 2.86.21 4.6.21 11 .02 22-.18 32.99.11 4 .1 7.01-.8 9.57-3.93 2.42-2.96 5.17-5.65 8.12-8.82 4.95 5.7 9.4 10.81 13.84 15.94 2.01 2.32.82 3.93-1.52 4.33-7.4 1.25-7.71 6.14-7.72 12.33-.07 31.97-.07 63.96-1.07 95.91-.53 17.22-1.96 34.56-4.84 51.54-4.5 26.58-20.27 40.78-47.08 44.87-1.46.22-2.9.53-4.51.84-4.22-11.94-15.05-15.3-25.07-19.59-2.6-1.11-4.72-1.86-2.8-5.58 7.53 1.8 15.15 3.95 22.9 5.38 5.51 1.02 11.28 1.88 16.8 1.37 9.99-.92 17.04-6.82 21.8-15.57 5.77-10.62 8.37-22.24 8.65-34.03 1.09-45.61 1.59-91.23 2.3-136.84.01-.48-.16-.96-.31-1.73-.91-.12-1.85-.35-2.79-.35-13.33-.02-26.67.06-40-.08-3.08-.03-4.32.69-4.54 4.09-1.62 24.88-2.76 49.82-5.43 74.6-4.13 38.42-12.78 75.72-33.09 109.3-5.31 8.79-11.66 16.94-17.97 26.01-5.64-6.65 2.28-10.07 1.57-15.6-1.44 0-3.18 0-4.92 0-30.16 0-60.33-.12-90.49.11-5.17.04-10.33 1.54-16.68 2.55-1.32-1.4-3.69-3.92-6.81-7.23h53.25c0-10.44 0-20.05 0-30.41-11.69.86-23.47-2.21-34.92 2.47-1.05.43-2.91.12-3.82-.59-2.16-1.68-3.97-3.8-6.82-6.65z"/><path d="m107.6 190.46c5.68 2.79 12.12 5.95 18.56 9.12-7.57 1.27-10.56 6.74-13.69 12.3-3.1 5.5-6.4 10.94-10.14 16.01-2.42 3.28-3.43 6.48-3.39 10.52.26 33.49.33 66.98.48 100.47.03 7.48-3.01 10.49-12.07 11.88 0-34.5 0-69.01 0-103.83-3.49 4.17-6.71 8.54-10.46 12.39-6.15 6.31-12.59 12.35-19.05 18.35-.97.9-2.75.93-4.95 1.61 13.51-18.78 26.35-36.16 38.62-53.93 4.98-7.22 8.68-15.32 13.03-22.98 1.92-3.39 1.88-6.56-.26-9.32-10.55 7.06-20.89 14.2-31.47 20.98-5.16 3.31-10.69 6.09-16.2 8.8-1.21.59-3.06-.12-4.75-1 25.6-18.43 50.39-37.01 67.13-66.03-18.61 1.6-36.19-2.35-54.38 3.31-2.09-2.39-4.79-5.49-7.75-8.88 1.61-.09 3.18-.25 4.74-.26 18.5-.02 37-.07 55.49.05 2.9.02 4.65-.64 5.47-3.62 1.1-4 2.59-7.89 3.83-11.85 1.48-4.73 1.2-9.14-2.41-12.99-.54-.57-.92-1.95-.6-2.51.36-.62 1.76-1.21 2.44-.99 8.04 2.6 16.04 5.34 24.02 8.12.49.17.77.95 1.31 1.67-3.46 1.9-8 2.89-9.64 5.62-2.82 4.69-3.82 10.47-5.82 16.5h9.26c14.83 0 29.67.13 44.49-.14 2.23-.04 4.87-1.54 6.55-3.16 3.09-2.98 5.6-6.56 8.78-10.42 8.2 5.96 16.29 11.84 24.37 17.72-.12.49-.23.98-.35 1.47-1.96.22-3.92.63-5.88.63-28.33.04-56.66.09-84.99-.05-3.56-.02-5.52 1.06-7.61 4.03-7.25 10.23-14.99 20.14-22.71 30.41z"/><path d="m146.04 72.97c-1.64.34-3.33.54-4.91 1.06-3.23 1.07-7.11 1.52-9.48 3.62-10.22 9.03-19.99 18.57-29.91 27.94-.44.41-.71 1-1.53 2.18 25.73-1.44 50.76-2.85 75.79-4.25.3-.45.6-.9.9-1.35-7.12-7.15-14.23-14.3-21.35-21.45.36-.47.72-.94 1.08-1.41 2.21.83 4.48 1.54 6.62 2.52 10.33 4.72 20.42 9.83 27.62 19.08 3.83 4.92 5.82 10.43 5.16 16.72-.53 5.04-3.48 7.84-8.01 7.75-4.95-.1-5.71-3.63-6.19-7.47-.35-2.77-.88-5.52-1.41-8.77-8.42.75-16.64 1.41-24.83 2.23-15.2 1.51-30.37 3.38-45.6 4.57-9.06.71-16.7 3.95-23.86 10.58-3.15-6.47-6.14-12.61-9.22-18.95.75-.33 1.2-.72 1.53-.64 8.45 2.09 13.55-2.66 18.37-8.58 7.77-9.55 15.83-18.85 23.77-28.26 2.6-3.07 4.25-6.3 2.6-10.51-.34-.86.08-2.3.65-3.1.3-.41 1.97-.38 2.59.06 6.73 4.79 13.36 9.7 20.03 14.58-.15.61-.28 1.23-.41 1.85z"/><path d="m158.79 255.7c0-8.51 0-15.99 0-24.34-11.57.86-23.24-2.24-34.43 3.52-2.3-2.37-4.69-4.84-7.79-8.04h42.32c0-8.06.43-15.52-.23-22.87-.23-2.53-3.22-4.79-4.84-7.24-.47-.71-1-1.88-.72-2.45.33-.65 1.71-1.4 2.32-1.19 7.92 2.78 15.79 5.73 24.49 8.94-4.25 3.2-9.74 3.95-9 10.26.52 4.43.1 8.97.1 14.31 4.64 0 9.3.89 13.39-.26 3.91-1.1 7.23-4.31 11.48-7.03 1.71 1.26 4.37 3.2 7 5.18 2.51 1.88 4.99 3.79 8.7 6.61-14.32 0-27.3 0-40.71 0v24.44c10.52 0 20.96.15 31.38-.17 1.47-.05 2.98-2.31 4.28-3.73 1.67-1.82 3.13-3.83 4.89-6 6.13 4.65 12.01 9.1 17.89 13.56-.11.41-.23.82-.34 1.23-1.73 0-3.45 0-5.18 0-31.49 0-62.97-.11-94.46.11-5.17.04-10.33 1.5-16.24 2.42-1.57-1.64-4.02-4.2-6.92-7.24 17.54-.02 34.87-.02 52.62-.02z"/><path d="m153.93 166.88c1.34-.27 2.87-1.1 4.01-.72 19.61 6.49 39.13 13.33 54.51 27.92 4.27 4.05 7.88 9.01 10.94 14.07 2.61 4.31.89 8.28-3.28 10.48-4.08 2.16-7.85 1.56-9.83-3.4-9.11-22.84-30.35-31.49-49.18-43.02-1.69-1.04-3.51-1.88-5.25-2.83-.57-.31-1.11-.67-1.66-1-.09-.5-.18-1-.26-1.5z"/></g><path d="m362.1 8.8c1.1.8 2.1 1.6 3.1 2.4l-1 1.1c-1.3-1.1-2.3-2-3-2.5zm1.9 4.8c.5.2.9.4 1.4.5-.6 2.3-1.3 4.5-1.9 6.8l-1.5-.5c.8-2.1 1.4-4.3 2-6.8zm-1-9.4c1.3.9 2.4 1.8 3.4 2.5l-1 1.1c-1.4-1.2-2.4-2.1-3.2-2.6zm3.7 2.2v-1.4h10.3v1.2c-.5 3.6-1.8 6.8-4 9.4 1.5 1.6 3.4 2.8 5.7 3.8-.3.4-.7.8-1.1 1.4-2.3-1.1-4.1-2.5-5.6-4.1-1.6 1.6-3.6 3.1-5.9 4.3-.3-.5-.7-.9-1-1.3 2.4-1.1 4.4-2.5 6-4.1-1.9-2.5-3-5.6-3.3-9.3h-1.1zm8.8 0h-6.4c.3 3.3 1.3 6 3 8.2 2-2.3 3.1-5.1 3.4-8.2z" fill="#fcfbfa"/><path d="m385.3 3.8h1.3v2.2h2.8v-2.2h1.3v2.2h4.1v9.1h1.7v1.3h-16.9v-1.3h1.7v-9.1h4.1v-2.2zm.4 13.1.7 1.2c-1.8.9-3.8 1.9-6 2.9-.2-.4-.5-.8-.8-1.3 2.3-1 4.3-1.9 6.1-2.8zm-3.1-6.4h2.8v-3.2h-2.8zm0 4.6h2.8v-3.3h-2.8zm4-4.6h2.8v-3.2h-2.8zm0 4.6h2.8v-3.3h-2.8zm3.7 1.9c2.1.9 4.1 1.8 6.1 2.7l-.7 1.3c-2.2-1.1-4.2-2-6.1-2.9zm3.2-9.7h-2.8v3.2h2.8zm-2.8 7.8h2.8v-3.3h-2.8z" fill="#fcfbfa"/></svg>