<svg enable-background="new 0 0 400 400" viewBox="0 0 400 400" xmlns="http://www.w3.org/2000/svg"><g fill="#010105"><path d="m115.58 140.96c6.51 3.86 13.02 7.72 19.42 11.51-.61 1.36-.71 1.89-.88 1.92-8.83 1.39-13.45 8.56-19.26 14.07-8.62 8.19-17.18 16.44-26.79 25.66 9.27-.54 17.16-.96 25.05-1.46 8.78-.56 17.58-1.01 26.33-1.93 2.37-.25 5.09-1.49 6.78-3.16 3.54-3.48 6.93-7.28 9.55-11.47 1.93-3.08 2.55-6.98 3.98-11.17 5.94 3.04 12.57 7 19.43 12.72-15.86 3.52-22.94 16.5-33.45 25-15.78 12.75-31.16 26-46.7 39.05-.34.28-.6.66-1.45 1.63 25.98-.68 51.29-1.34 76.6-2 .35-.54.7-1.09 1.05-1.63-6.96-6.88-13.92-13.76-21.43-21.2 1.2-.31 2.58-1.18 3.39-.81 12.27 5.69 24.2 11.86 32.29 23.38 3.57 5.09 4.21 10.75 3.56 16.64-.37 3.36-1.95 6.74-5.73 6.15-2.05-.32-4.23-3.07-5.34-5.24-1.7-3.33-1.51-8.51-4-10.3-2.45-1.76-7.25-.44-11-.2-9.77.62-19.53 1.38-29.97 2.13v5.4c0 20.66.05 41.32-.04 61.98-.02 4.14-.38 8.3-.96 12.41-.93 6.59-4.51 11.48-10.74 13.93-5.69 2.24-11.58 3.98-18.01 6.15-.31-9.64-6.31-13.32-14.16-15.27-5.14-1.27-10.21-2.82-15.76-4.37.28-1.44.57-2.94.92-4.7 7.43 1.59 14.48 3.36 21.64 4.54 4.54.75 9.27 1.16 13.82.73 6.24-.59 10.09-4.69 10.15-10.92.21-22.47.08-44.94.08-67.37-10.52-2.26-39.34 2.81-48.85 8.73-2.76-5.64-5.49-11.23-8.5-17.39 4.8-.78 9.25-1.05 13.4-2.3 4.19-1.26 8.73-2.71 11.99-5.42 14.58-12.14 28.76-24.75 43.07-37.21.46-.4.76-.97.92-2-20.3 5.49-42.71.53-61.77 13.19-2.78-4.71-5.7-9.67-8.97-15.21 11.1-.78 18.24-7.17 24.79-14.74 6.75-7.8 14.05-15.13 20.72-22.99 5.39-6.34 5.49-7.94 4.83-16.46z"/><path d="m303.74 74.17c-14.95 0-29.41 0-44.28 0v40.81c5.56 0 11.17.22 16.75-.16 1.33-.09 2.68-2.02 3.76-3.32 1.26-1.52 2.25-3.28 3.71-5.48 5.6 4.11 11.09 8.13 16.58 12.15-.18.49-.36.98-.53 1.47-13.34 0-26.68 0-40.34 0v41.27c5.57 0 11.35.33 17.04-.22 1.55-.15 2.92-2.86 4.24-4.5 1.33-1.66 2.48-3.46 3.88-5.45 5.8 4.75 11.37 9.31 16.94 13.87-.16.37-.33.74-.49 1.1-13.72 0-27.43 0-41.92 0 0 3.24-.02 5.99 0 8.74.1 10.49.16 20.99.36 31.48.16 8.74-4.76 13.34-13.76 12.84.55-17.39 1.1-34.77 1.67-52.85-10.83.65-20.94-1.53-30.79 2.32-1.2.47-3.35-.13-4.43-1.01-1.85-1.51-3.2-3.63-5.31-6.15h39.8c0-13.82 0-27.2 0-41.21-9.47.94-19.03-1.93-28.54 3-2.42-2.1-5.15-4.47-8.83-7.66h37.39c0-13.88 0-27.14 0-41.23-11.31.95-22.91-2.32-34.51 2.75-2.21-2.1-4.7-4.46-8.17-7.75h6.4c27.49 0 54.99-.17 82.48.15 5.31.06 8.79-1.54 11.53-5.79 1.16-1.8 2.67-3.36 4.25-5.31 5.41 4.45 10.62 8.73 15.68 12.88-.49 1.03-.55 1.5-.77 1.58-6 2.39-7.8 6.51-7.63 13.13.53 21.15.05 42.32.25 63.48.13 13.16 1.22 26.27 6.04 38.7 1.24 3.22 2.85 6.54 5.15 9.02 1.82 1.97 5.16 4.03 7.43 3.67 2.25-.36 5.13-3.42 5.79-5.83 2.25-8.31 3.65-16.85 5.39-25.29.36-1.76.79-3.5 1.19-5.24l1.38-.6c.69 1.14 2.07 2.34 1.98 3.42-.92 10.76-2.35 21.49-3.02 32.26-.27 4.34.99 8.78 1.51 13.18.26 2.21.43 4.43.64 6.65-2.37.17-4.89.95-7.09.42-18.1-4.35-28.91-16.16-33.54-33.87-4.07-15.56-4.78-31.52-4.96-47.48-.24-20.33-.06-40.66-.07-60.99-.05-.8-.14-1.61-.23-2.95z"/><path d="m305.92 347.77c0-10.47 0-20.45 0-30.9-26.6 0-52.95 0-79.86 0 0 5.39-.43 10.72.09 15.95 1.18 11.97-6.19 16.53-15.96 17.66.26-4.46.68-8.88.74-13.3.38-28.31.68-56.62.99-84.93.04-3.67-.15-7.34.04-11 .38-7.33-.42-14.32-5.43-20.52 1.51-1.25 2.74-2.26 4.18-3.45 1.26 1.18 2.59 2.01 3.34 3.21 5.18 8.3 12.6 10.02 22.05 9.66 19.64-.73 39.33-.34 58.99-.12 4.07.05 6.92-.99 9.29-4.29 2.02-2.82 4.5-5.29 7.07-8.25 5.55 5.2 10.89 10.16 16.18 15.18 1.85 1.75 2.23 3.69-.76 4.36-6.17 1.37-7.03 5.28-6.93 10.97.36 19.66.03 39.33.19 59 .07 8.81.66 17.62 1 26.42.36 9.28-2.34 12.45-11.7 13.81-1 .13-1.98.3-3.51.54zm-.13-111.28c-26.83 0-53.16 0-79.41 0v74.65h79.41c0-25.07 0-49.67 0-74.65z"/><path d="m124.85 130.53c0-10.82 0-21.28 0-32.67-16.31 1.77-32.77-2.89-48.63 3.15-2.74-2.47-5.7-5.13-9.73-8.75h58.36c0-10.2.33-19.81-.22-29.36-.15-2.58-3.04-4.97-4.52-7.54-.49-.85-.82-2.07-.6-2.97.14-.55 1.67-1.32 2.23-1.1 8.02 3.15 15.98 6.45 23.94 9.74.22.09.27.56.4.85-.11.3-.16.8-.34.86-6.64 2.2-8.58 6.85-7.84 13.55.54 4.92.11 9.95.11 15.65h20.56c.83 0 1.68-.08 2.5.01 10 1.16 19.04.27 22.94-11.37 6.69 5.7 12.74 10.87 19.96 17.03-22.65 0-43.93 0-65.58 0v33.33h32.49c2.5 0 5.02-.21 7.49.04 8.92.9 17.11.37 20.78-10.55 6.59 5.89 12.43 11.12 19.04 17.03-17.49.96-22.78 14.84-31.05 25.14-2.46 3.07-2.27 3.23-6.13 2.21 4.1-9.01 8.18-17.97 12.5-27.44-40.78 0-80.82 0-120.6 0-1.29 7.19-2.23 14.24-3.88 21.11-1.3 5.45-4.07 10.39-9.67 12.52-1.8.68-5.27.51-6.1-.64-1.3-1.78-1.06-4.71-1.3-7.18-.05-.52.56-1.21 1.02-1.67 10.13-10.03 12.83-22.88 14.08-36.37.14-1.47 1.52-2.83 2.33-4.24.71 1.26 1.67 2.45 2.08 3.81.52 1.73.59 3.59.91 5.81 17.27.01 34.64.01 52.47.01z"/><path d="m52.54 337.59c-5.08-2.51-2.57-4.58-1.28-6.49 9.19-13.65 18.46-27.23 27.59-40.93 2.11-3.17 3.78-6.64 5.58-10.02 2.02-3.8 3.26-7.68.17-11.56 3.35-1.61 18.73 5.62 21.75 10.26-13.17 3.6-17.19 16.18-24.92 25.17-9.64 11.22-19.29 22.41-28.89 33.57z"/><path d="m152.33 265.02c16.54 13.23 35.35 24.47 41.86 46.75 1.05 3.59.33 7.87-.28 11.71-.55 3.49-2.69 6.16-6.84 5.88-4.29-.3-4.42-3.81-5.14-6.85-1.51-6.43-2.4-13.09-4.68-19.23-4.86-13.12-14.61-22.85-24.17-32.64-1.16-1.18-1.68-2.99-2.49-4.5.57-.38 1.16-.75 1.74-1.12z"/></g><path d="m362.1 8.8c1.1.8 2.1 1.6 3.1 2.4l-1 1.1c-1.3-1.1-2.3-2-3-2.5zm1.9 4.8c.5.2.9.4 1.4.5-.6 2.3-1.3 4.5-1.9 6.8l-1.5-.5c.8-2.1 1.4-4.3 2-6.8zm-1-9.4c1.3.9 2.4 1.8 3.4 2.5l-1 1.1c-1.4-1.2-2.4-2.1-3.2-2.6zm3.7 2.2v-1.4h10.3v1.2c-.5 3.6-1.8 6.8-4 9.4 1.5 1.6 3.4 2.8 5.7 3.8-.3.4-.7.8-1.1 1.4-2.3-1.1-4.1-2.5-5.6-4.1-1.6 1.6-3.6 3.1-5.9 4.3-.3-.5-.7-.9-1-1.3 2.4-1.1 4.4-2.5 6-4.1-1.9-2.5-3-5.6-3.3-9.3h-1.1zm8.8 0h-6.4c.3 3.3 1.3 6 3 8.2 2-2.3 3.1-5.1 3.4-8.2z" fill="#fcfbfa"/><path d="m385.3 3.8h1.3v2.2h2.8v-2.2h1.3v2.2h4.1v9.1h1.7v1.3h-16.9v-1.3h1.7v-9.1h4.1v-2.2zm.4 13.1.7 1.2c-1.8.9-3.8 1.9-6 2.9-.2-.4-.5-.8-.8-1.3 2.3-1 4.3-1.9 6.1-2.8zm-3.1-6.4h2.8v-3.2h-2.8zm0 4.6h2.8v-3.3h-2.8zm4-4.6h2.8v-3.2h-2.8zm0 4.6h2.8v-3.3h-2.8zm3.7 1.9c2.1.9 4.1 1.8 6.1 2.7l-.7 1.3c-2.2-1.1-4.2-2-6.1-2.9zm3.2-9.7h-2.8v3.2h2.8zm-2.8 7.8h2.8v-3.3h-2.8z" fill="#fcfbfa"/></svg>