<svg enable-background="new 0 0 400 400" viewBox="0 0 400 400" xmlns="http://www.w3.org/2000/svg"><g fill="#010105"><path d="m101.43 136.16c-10.41 0-20.05-.01-29.69.02-.81 0-1.64.27-2.43.5-2.63.77-5.95 2.98-7.74 2.08-3.37-1.68-5.86-5.14-9.55-8.65h53.98c0-2.23 0-3.98 0-5.74 0-16.66-.24-33.33.11-49.99.15-6.9-1.33-12.76-6.07-17.83-.82-.88-.84-2.5-1.23-3.78 1.33.07 2.8-.2 3.97.27 8.75 3.53 17.45 7.2 26.3 10.89-.44.86-.55 1.53-.87 1.64-8.08 2.87-9.76 8.68-9.42 16.8.66 15.61.19 31.27.19 46.71 11.43 3.64 19.08-1.03 24.64-11.01 7.08 5.69 13.58 10.9 20.08 16.12-.2.5-.4 1-.61 1.5-14.48 0-28.96 0-44.11 0 0 10.65.35 20.59-.14 30.5-.27 5.36 1.34 8.35 6.13 10.88 10.84 5.73 20.62 12.81 26.31 24.33 3.1 6.27 4.55 12.63 1.55 19.09-.92 1.99-3.91 4.31-5.8 4.18-1.82-.12-4.57-3.01-4.94-5.04-1.71-9.56-3.47-19.04-9.73-26.85-3.77-4.71-8.01-9.06-12.03-13.56-.45.24-.9.49-1.35.73v5.26c.12 50.49.24 100.98.35 151.47.02 8.21-3.8 11.81-14.34 13.96 0-56.13 0-112.38 0-168.43-9.47 35.31-25.88 67.69-48.84 97.16-1.12-.8-2.26-1.62-3.42-2.46 24.24-44.13 42.14-90.1 48.7-140.75z"/><path d="m165.5 216.16c-.58-1.25-1.1-2.39-1.75-3.81 30.69-14.19 54.9-34.09 63.58-69.57-15.69 1.54-31.16-2.69-46.7 3.77-2.4-2.51-5.35-5.59-8.91-9.32h57.19c.93-7.34 2.11-14.31 2.51-21.33.1-1.83-2.31-3.74-3.4-5.71-.48-.87-.76-1.97-.71-2.95.02-.36 1.35-1.08 1.89-.93 8.69 2.45 17.35 5.02 27.27 7.93-4.82 3.41-9.66 5.25-11.69 8.72-2.16 3.71-1.66 8.97-2.39 14.02h32.01c6.5 0 13.01-.22 19.49.08 3.7.17 6.32-.74 8.29-4.01 1.45-2.4 3.44-4.46 5.6-7.18 5.67 4.35 11.2 8.6 17.93 13.77-10.66 2.75-8.41 10.26-8.74 16.86-.45 9.28-1.2 18.55-1.83 27.83-.8 11.68-7.78 18.3-18.26 21.73-4.23 1.38-8.69 2.05-13.6 3.17-1.39-8.66-8.19-10.97-15.12-13.15-3.96-1.25-7.96-2.43-11.83-3.92-1.24-.48-2.12-1.89-3.17-2.87 1.53-.41 3.16-1.38 4.58-1.15 7.69 1.29 15.28 3.13 22.99 4.3 6.97 1.05 14.06.6 18.57-5.68 2.29-3.18 3.97-7.47 4.17-11.35.56-10.59.19-21.24.19-32.14-20.81 0-41.57 0-62.75 0-8.94 40.73-37.47 61.51-75.41 72.89z"/><path d="m308.77 347.01c-4.84-13.17-17.75-12.94-27.73-17.92-.23-3.48.8-4.6 4.91-3.64 8.06 1.89 16.24 3.41 24.46 4.38 7.69.9 12.56-2.18 14.33-9.95 1.83-8.02 2.65-16.38 2.93-24.62.46-13.45.12-26.93.12-40.8-10.95 0-22.86 0-34.95 0-1.18 7.63-2.09 15.5-3.63 23.25-6.78 34.04-26.18 57.92-58.23 71.37-1.31.55-3.12-.07-4.69-.14.86-1.32 1.42-3.12 2.63-3.9 22.18-14.24 38.77-33.04 46.55-58.52 3.12-10.21 4.5-20.96 6.68-31.46-.55-.55-1.1-1.1-1.65-1.65-6.31 1-12.62 1.99-20.43 3.22-1.4-1.6-4.16-4.73-7.55-8.59h29.27c0-9.12.2-17.88-.16-26.61-.08-1.86-2.24-3.58-3.27-5.46-.4-.73-.69-1.94-.35-2.52.34-.57 1.71-1.09 2.35-.85 7.95 2.89 15.86 5.9 23.76 8.96.47.18.68 1.01 1.19 1.81-.84.35-1.38.66-1.96.8-6.92 1.68-10.43 5.54-9.46 13.15.41 3.2-.55 6.57-.96 10.59 10.47 0 20.57.11 30.67-.14 1.24-.03 2.61-1.82 3.62-3.03 2.22-2.66 4.26-5.47 6.71-8.66 5.72 4.68 11.14 9.11 18.04 14.75-13.37 2.39-11.64 11.37-11.98 19.69-.67 16.43-1.5 32.86-2.77 49.25-1.26 16.18-11.56 23.74-28.45 27.24z"/><path d="m141.76 349.07c-3.27-2.52-1.53-4.01.6-5.85 17.66-15.24 30.88-33.57 36.68-56.38 2.84-11.15 4.14-22.68 6.32-35.07-11.93 1.42-22.93-2.43-33.47 4.19-2.58-2.82-5.43-5.93-9.08-9.91h42.1c-1.01-11.07 3.65-22.41-6.63-31.34.43-.52.86-1.04 1.29-1.56l26.61 9 .96 1.71c-13.82 2.65-11.01 12.53-10.92 22.01 8.15 0 16.25.27 24.3-.23 1.61-.1 3.09-3.11 4.52-4.87 1.25-1.54 2.34-3.21 3.95-5.44 5.26 4.36 10.4 8.61 16.62 13.77-10.07 2.96-7.77 10.54-8.1 16.73-.74 14.12-.64 28.28-1.44 42.4-1.08 19.12-11.37 30.14-30.62 33.61-3.45-12.96-15.94-10.92-24.78-15.05.96-4.17 1.21-4.23 5.29-3.6 6.39.98 12.79 2.2 19.23 2.56 11.26.62 17.73-4.83 18.62-16.12 1.1-13.91 1.51-27.88 2.09-41.82.21-4.97.03-9.96.03-15.33-10.15 0-20.02 0-30.53 0 .12 42.17-17.16 74.76-53.64 96.59z"/><path d="m305.39 61.92c-10.61 7.69-12.14 11.12-10.96 24.65 8.05 0 16.18.12 24.29-.13 1.29-.04 2.76-1.56 3.74-2.73 2.22-2.63 4.18-5.48 6.56-8.65 6.57 5.27 12.83 10.29 19.09 15.31-.12.35-.23.69-.35 1.04-1.83 0-3.66 0-5.49 0-14.81 0-29.63.12-44.44-.08-3.88-.05-5.05 1.38-4.68 4.97.2 1.98.04 3.99.03 5.99-.03 10.85-2.57 13.74-14.12 15.67 1.13-8.68 2.26-17.25 3.57-27.27-6.99.96-12.94.93-18.21 2.79-3.99 1.41-6.37 1.17-8.99-1.74-1.3-1.45-2.87-2.66-5.6-5.15h13.93c4.83 0 9.67-.21 14.48.07 3.6.21 4.65-1.3 4.65-4.6 0-3.14.29-6.31.75-9.42.92-6.26.21-11.9-4.89-16.38-.73-.64-.69-2.17-1.01-3.29.84-.22 1.8-.82 2.5-.59 8.02 2.64 16 5.39 23.97 8.16.38.13.62.7 1.18 1.38z"/><path d="m153.14 86.64h47.97c-1.44-10.76 2.41-21.92-7.44-30.14-.82-.68-.53-2.69-.9-4.93 10.43 3.58 19.76 6.78 29.06 9.97-.27.95-.25 1.38-.44 1.5-3.02 1.97-7.87 3.33-8.71 5.97-1.45 4.52-.51 9.84-.29 14.82.04.94 1.48 2.65 2.13 2.58 3.11-.32 6.65-.37 9.11-1.96 2.47-1.6 3.84-4.89 6.02-7.89 5.85 4.75 11.51 9.35 17.18 13.95-.19.36-.39.71-.58 1.07-10.85 0-21.7 0-33.35 0 .45 2.99.71 5.7 1.27 8.33 2.42 11.28-.07 15.17-12.23 18.05 0-6.33.03-12.54-.01-18.75-.05-7.79-.07-7.87-7.94-7.76-7.31.1-14.62.38-21.94.61-.83.03-1.84-.07-2.44.35-7.26 5.08-11.37.02-16.47-5.77z"/></g><path d="m362.1 8.8c1.1.8 2.1 1.6 3.1 2.4l-1 1.1c-1.3-1.1-2.3-2-3-2.5zm1.9 4.8c.5.2.9.4 1.4.5-.6 2.3-1.3 4.5-1.9 6.8l-1.5-.5c.8-2.1 1.4-4.3 2-6.8zm-1-9.4c1.3.9 2.4 1.8 3.4 2.5l-1 1.1c-1.4-1.2-2.4-2.1-3.2-2.6zm3.7 2.2v-1.4h10.3v1.2c-.5 3.6-1.8 6.8-4 9.4 1.5 1.6 3.4 2.8 5.7 3.8-.3.4-.7.8-1.1 1.4-2.3-1.1-4.1-2.5-5.6-4.1-1.6 1.6-3.6 3.1-5.9 4.3-.3-.5-.7-.9-1-1.3 2.4-1.1 4.4-2.5 6-4.1-1.9-2.5-3-5.6-3.3-9.3h-1.1zm8.8 0h-6.4c.3 3.3 1.3 6 3 8.2 2-2.3 3.1-5.1 3.4-8.2z" fill="#fcfbfa"/><path d="m385.3 3.8h1.3v2.2h2.8v-2.2h1.3v2.2h4.1v9.1h1.7v1.3h-16.9v-1.3h1.7v-9.1h4.1v-2.2zm.4 13.1.7 1.2c-1.8.9-3.8 1.9-6 2.9-.2-.4-.5-.8-.8-1.3 2.3-1 4.3-1.9 6.1-2.8zm-3.1-6.4h2.8v-3.2h-2.8zm0 4.6h2.8v-3.3h-2.8zm4-4.6h2.8v-3.2h-2.8zm0 4.6h2.8v-3.3h-2.8zm3.7 1.9c2.1.9 4.1 1.8 6.1 2.7l-.7 1.3c-2.2-1.1-4.2-2-6.1-2.9zm3.2-9.7h-2.8v3.2h2.8zm-2.8 7.8h2.8v-3.3h-2.8z" fill="#fcfbfa"/></svg>