<svg enable-background="new 0 0 400 400" viewBox="0 0 400 400" xmlns="http://www.w3.org/2000/svg"><g fill="#010105"><path d="m224.3 325.57c.08-3.99 2.12-3.9 5.26-3.15 15.01 3.61 29.96 7.41 45.61 7.41 6.01 0 10.31-2.11 13.5-6.84 5.73-8.51 8.07-18.33 9.06-28.21 1.9-19 2.98-38.09 4.22-57.15.82-12.61 1.34-25.25 1.98-37.87.08-1.65.01-3.3.01-5.31-25.13 0-50.04 0-75.68 0-1.49 72.76-34.25 125.4-101.63 155.22-3-2.64-1.96-3.95.55-5.94 13.17-10.42 26.72-20.46 39.02-31.83 23.54-21.75 37.04-49.43 42.42-80.66 3.35-19.42 4.74-39.21 6.23-58.9.97-12.76.54-25.62.73-38.44.03-1.79 0-3.57 0-5.96-10.76 1.09-21.25-2.36-31.17 3.78-2.89-3.05-5.7-6.03-9.01-9.52 2.22-.1 3.95-.25 5.69-.25 43.17-.01 86.33-.11 129.5.13 4.91.03 8.13-1.35 10.73-5.31 1.82-2.76 4.09-5.23 6.52-8.28 7.98 5.91 15.84 11.74 23.7 17.57-.2.52-.41 1.03-.61 1.55-40.19 0-80.38 0-121.51 0v60.34h4.77c19.67 0 39.33-.11 59 .09 4.35.04 7.59-.78 10.03-4.7 1.72-2.76 4.22-5.04 6.63-7.84 6.01 5.06 11.8 9.93 17.34 14.59-.24 1.03-.24 1.57-.4 1.63-9.85 3.51-8.99 12.04-9.38 19.96-.81 16.62-.94 33.3-2.52 49.84-1.77 18.48-4.2 36.94-7.5 55.2-3.28 18.16-16.1 27.14-33.48 30.29-4.88.88-9.9 1.05-15.17 1.58-2.42-10.65-11.27-13.87-19.55-17.56-4.81-2.16-9.91-3.67-14.89-5.46z"/><path d="m118.73 159.89c11.41-11.8 23.62-22.94 32.27-37.13 1.43-2.35.79-5.95 1.16-8.96.13-1.03.2-2.2.76-2.97.24-.33 1.92-.12 2.5.37 6.97 5.87 13.85 11.85 21.87 18.76-2.61.27-3.83.71-4.89.46-5.04-1.2-8.88.54-12.7 3.84-13.13 11.29-26.54 22.24-39.68 33.52-1.49 1.28-2.58 3.74-2.73 5.74-1.5 20.04-2.7 40.09-4.17 60.13-.22 3.02.54 4.81 3.11 6.54 13.36 8.96 25.57 19.23 34.54 32.81 3.69 5.58 6.94 11.54 6.22 18.51-.27 2.58-1.58 5.5-3.36 7.38-3.02 3.18-7.39 2.27-9.64-1.58-1.07-1.85-1.82-3.93-2.43-5.99-5.25-17.74-16.04-31.96-28.6-45.05-.3-.32-.79-.46-1.55-.88-7.22 39.66-27.54 71.28-57.78 97.05-2.67-1.7-2.88-3.07-.7-5.49 26.37-29.16 40.52-63.95 47.08-102.29 3.55-20.73 4.58-41.61 4.58-62.58 0-33.33-.21-66.67.16-99.99.09-7.62-1.65-13.39-8.44-17.04.7-3.77 2.62-4.03 5.62-2.85 7.73 3.02 15.56 5.81 23.33 8.74 1.32.5 2.54 1.24 5.46 2.69-14.74 3.2-13.5 13.36-13.39 23.4.25 22.33.08 44.66.08 67v5.36c.44.14.88.32 1.32.5z"/><path d="m221.97 53.19c1.41-.3 3.12-1.27 4.2-.8 15.16 6.58 29.74 14.11 39.87 27.86 4.43 6.01 7.17 12.77 6.92 20.35-.08 2.37-.84 4.99-2.08 7-2.15 3.47-7.23 3.54-9.75.3-1.29-1.66-2.39-3.67-2.93-5.7-5.05-19.05-16.68-33.27-32.33-44.61-1.2-.87-2.35-1.82-3.53-2.73-.12-.56-.24-1.11-.37-1.67z"/><path d="m54.45 127.94c10.81 9.58 22.01 19.05 26.74 33.29 2.13 6.43 2.06 13.61 2.8 20.48.13 1.22-.22 3-1.05 3.73-2.05 1.82-4.41 4.14-6.83 4.38-1.5.15-4.28-2.88-4.83-4.93-1.28-4.75-1.61-9.77-2.22-14.69-1.69-13.69-7.22-25.76-15.34-36.76-2.11-2.85-2.1-2.87.73-5.5z"/></g><path d="m362.1 8.8c1.1.8 2.1 1.6 3.1 2.4l-1 1.1c-1.3-1.1-2.3-2-3-2.5zm1.9 4.8c.5.2.9.4 1.4.5-.6 2.3-1.3 4.5-1.9 6.8l-1.5-.5c.8-2.1 1.4-4.3 2-6.8zm-1-9.4c1.3.9 2.4 1.8 3.4 2.5l-1 1.1c-1.4-1.2-2.4-2.1-3.2-2.6zm3.7 2.2v-1.4h10.3v1.2c-.5 3.6-1.8 6.8-4 9.4 1.5 1.6 3.4 2.8 5.7 3.8-.3.4-.7.8-1.1 1.4-2.3-1.1-4.1-2.5-5.6-4.1-1.6 1.6-3.6 3.1-5.9 4.3-.3-.5-.7-.9-1-1.3 2.4-1.1 4.4-2.5 6-4.1-1.9-2.5-3-5.6-3.3-9.3h-1.1zm8.8 0h-6.4c.3 3.3 1.3 6 3 8.2 2-2.3 3.1-5.1 3.4-8.2z" fill="#fcfbfa"/><path d="m385.3 3.8h1.3v2.2h2.8v-2.2h1.3v2.2h4.1v9.1h1.7v1.3h-16.9v-1.3h1.7v-9.1h4.1v-2.2zm.4 13.1.7 1.2c-1.8.9-3.8 1.9-6 2.9-.2-.4-.5-.8-.8-1.3 2.3-1 4.3-1.9 6.1-2.8zm-3.1-6.4h2.8v-3.2h-2.8zm0 4.6h2.8v-3.3h-2.8zm4-4.6h2.8v-3.2h-2.8zm0 4.6h2.8v-3.3h-2.8zm3.7 1.9c2.1.9 4.1 1.8 6.1 2.7l-.7 1.3c-2.2-1.1-4.2-2-6.1-2.9zm3.2-9.7h-2.8v3.2h2.8zm-2.8 7.8h2.8v-3.3h-2.8z" fill="#fcfbfa"/></svg>