<svg enable-background="new 0 0 400 400" viewBox="0 0 400 400" xmlns="http://www.w3.org/2000/svg"><g fill="#010105"><path d="m77.22 141.09c.46-22.47 1.09-44.58 1.24-66.69.03-4.77-1.64-9.55-2.53-14.33-.62-.12-1.24-.24-1.86-.36 1.13-1.09 2.26-2.17 4.75-4.58.8 1.7 1.21 2.83 1.81 3.84 4.73 7.9 11.77 9.23 20.64 9.17 61.65-.4 123.31-.28 184.97-.08 5.19.02 8.9-1.26 11.87-5.41 1.43-2.01 3.3-3.72 5.32-5.95 4.81 4.29 9.52 8.41 14.12 12.64 2.77 2.55 1.44 4.61-1.34 5.67-4.1 1.57-5.15 4.25-4.88 8.46.77 12.28 1 24.59 1.71 36.87.5 8.72-3.32 12.61-14.12 13.4-.22-2.74-.44-5.48-.67-8.44-68.89 0-137.48 0-206.06 0-.97 10.54-5.62 15.33-14.97 15.79zm88.27-66.82v44.29h61.1c0-14.95 0-29.52 0-44.29-20.45 0-40.56 0-61.1 0zm-73.77 44.23h60.85c0-14.99 0-29.54 0-44.2-20.42 0-40.48 0-60.85 0zm147.66-44.23v44.44h58.86c0-14.84 0-29.54 0-44.44-19.72 0-39.11 0-58.86 0z"/><path d="m255.25 160.59c-2.5 1.45-4.7 2.72-7.5 4.35-2.59-2.76-5.56-5.93-9.37-10.01h6.93c18.5 0 37-.14 55.49.09 5.16.06 9.42-.47 12.16-5.52 1.08-2 2.97-3.57 4.61-5.48 4.52 3.73 9.05 7.37 13.44 11.17 1.59 1.38 3.79 3.55.87 5.18-9.46 5.28-9.91 14.94-11.53 23.67-5.18 27.83-11.73 55.21-23.14 81.25-.52 1.19-.69 2.99-.17 4.12 9.32 20.59 20.36 40.08 37.02 55.78 3.62 3.41 7.85 6.16 11.61 9.42 1.38 1.2 2.22 3.02 2.96 5.19-7.68-.56-14.99-1.59-19.39 6.98-17.64-20.04-29.9-42.74-40.33-65.74-9.47 12.86-18.68 26.23-28.82 38.87-10.26 12.78-22.92 23.13-36.39 32.38-4.16-2.26-2.03-4 .06-5.99 23.22-22.18 41.99-47.66 56.28-76.4.94-1.89 1.13-4.85.37-6.8-11.18-28.79-17.66-58.74-22.5-89.11-.55-3.44-1.06-6.89-1.64-10.33-.15-.79-.51-1.54-1.02-3.07zm6.33.69c6.48 31.41 13.34 62.23 25.98 92.77 13.07-30.39 19.12-61.3 24.51-92.77-16.97 0-33.25 0-50.49 0z"/><path d="m92.75 143.72c1.69-.72 3.47-2.19 4.41-1.78 8.73 3.86 17.31 8.05 26.7 12.51-2.02 1.19-3.09 1.9-4.22 2.48-3.89 1.99-5.77 4.81-5.73 9.51.2 24.32.09 48.64.1 72.96 0 1.45.13 2.9.22 4.76 5.94-1.57 11.51-3.05 16.99-4.5 1.99 3.52.69 5.14-2.44 6.24-4.84 1.71-11.56 2.38-13.86 5.87-2.48 3.76-.96 10.28-.89 15.58.48 33.32-14.85 58.15-41.25 77.04-4.58 3.28-9.37 6.26-14.31 9.54-1.1-1.53-1.94-2.69-3.01-4.18 31.19-23.46 51.88-51.97 45.81-93.85-13.48 5.32-26.95 10.98-37.25 22.85-3.94-5.41-7.52-10.3-11.27-15.45 1.57-.66 2.77-1.15 3.98-1.67 3.68-1.57 5.45-3.87 5.4-8.36-.27-23.65-.24-47.31-.04-70.96.05-5.69-1.43-10.4-5.26-14.54-.67-.73-.59-2.15-.86-3.25.88-.19 1.95-.8 2.6-.5 8.22 3.81 16.39 7.76 24.47 11.62-.22.86-.24 1.4-.39 1.44-8.27 2.3-9 8.24-8.81 15.74.49 18.81.16 37.64.16 56.46v5.93c9.14-2.6 17.75-4.93 26.24-7.66.97-.31 1.67-2.93 1.68-4.48.12-18.16.07-36.31.07-54.47 0-7.16 0-14.33 0-21.49.01-13.05.01-13.05-9.24-23.39z"/><path d="m233.42 279.69c5.91 4.64 11.6 9.11 18.53 14.56-20.1 0-38.77 0-57.84 0v39.05c0 1.83.07 3.67.06 5.5-.03 8.51-4.09 12.63-12.74 13.01 0-18.91 0-37.82 0-57.55-16.13 1.55-32.79-2.7-49.72 3.2-1.78-1.82-4.19-4.29-7.5-7.67h57.59c0-11.24 0-21.68 0-32.99-12.16 1.69-24.49-2.68-36.34 2.83-.84.39-2.56-.15-3.36-.85-2.13-1.84-3.99-4-6.36-6.45 1.57-.12 2.92-.31 4.27-.32 17-.02 34-.1 50.99.06 3.16.03 4.73-.93 5.89-3.88 2.25-5.71 4.93-11.25 7.47-16.85 2.51-5.54 4.6-11.04 1.28-17.07-1.23-2.24-.05-4.14 2.25-2.91 6.57 3.52 12.84 7.59 19.18 11.5.47.29.65 1.06 1.49 2.52-10.08-1.39-13.09 6.13-17.29 12.13-3.2 4.58-6.41 9.15-10.15 14.48 6.97 0 12.93.16 18.86-.12 1.29-.06 2.75-1.5 3.69-2.66 1.55-1.9 2.74-4.09 4.29-6.49 5.92 4.5 11.55 8.77 17.17 13.05-.08.34-.15.69-.23 1.03-16.81 0-33.62 0-50.66 0v32.72c10.28 0 20.55.18 30.79-.2 1.49-.06 2.95-2.77 4.3-4.35 1.39-1.63 2.63-3.38 4.09-5.28z"/><path d="m181.98 169.08c-.52-9.46 2.41-18.86-5.09-26.52-.69-.71-.09-2.68-.09-4.75 9.05 4.29 17.21 8.17 25.37 12.04.33.41.66.81.99 1.22-11.15 2.45-9.36 10.18-8.96 17.93 8.39 0 16.51.12 24.63-.13 1.26-.04 2.71-1.55 3.66-2.72 1.56-1.91 2.78-4.1 4.53-6.75 6.25 4.32 12.27 8.47 18.29 12.63-.14.51-.29 1.01-.43 1.52-16.77 0-33.53 0-50.58 0v27.02c10.16 0 20.12.12 30.07-.14 1.39-.04 2.95-1.79 4.03-3.09 1.58-1.9 2.79-4.11 4.55-6.77 6.46 4.47 12.78 8.85 19.09 13.22-.08.43-.17.86-.25 1.29-1.84.11-3.68.31-5.52.31-34.15.02-68.29-.09-102.44.13-4.97.03-9.93 1.57-15.6 2.53-1.59-1.63-4.09-4.2-7.07-7.27h60.65c0-9.26 0-17.7 0-26.96-14.15 1.51-28.48-2.59-42.89 3.25-1.91-2.29-4.22-5.05-6.68-7.99z"/><path d="m173.62 238.55c-.67 2.66-.59 4.7-1.57 5.72-1.45 1.51-3.6 2.98-5.55 3.13-1.15.09-3.17-2.21-3.64-3.78-1.21-4.07-.9-8.78-2.79-12.4-2.72-5.21-6.91-9.65-10.36-14.5-.83-1.17-1.23-2.65-1.83-3.99 1.42.32 3.2.19 4.21 1.02 5.97 4.9 12.14 9.67 17.45 15.24 2.38 2.5 2.95 6.76 4.08 9.56z"/></g><path d="m362.1 8.8c1.1.8 2.1 1.6 3.1 2.4l-1 1.1c-1.3-1.1-2.3-2-3-2.5zm1.9 4.8c.5.2.9.4 1.4.5-.6 2.3-1.3 4.5-1.9 6.8l-1.5-.5c.8-2.1 1.4-4.3 2-6.8zm-1-9.4c1.3.9 2.4 1.8 3.4 2.5l-1 1.1c-1.4-1.2-2.4-2.1-3.2-2.6zm3.7 2.2v-1.4h10.3v1.2c-.5 3.6-1.8 6.8-4 9.4 1.5 1.6 3.4 2.8 5.7 3.8-.3.4-.7.8-1.1 1.4-2.3-1.1-4.1-2.5-5.6-4.1-1.6 1.6-3.6 3.1-5.9 4.3-.3-.5-.7-.9-1-1.3 2.4-1.1 4.4-2.5 6-4.1-1.9-2.5-3-5.6-3.3-9.3h-1.1zm8.8 0h-6.4c.3 3.3 1.3 6 3 8.2 2-2.3 3.1-5.1 3.4-8.2z" fill="#fcfbfa"/><path d="m385.3 3.8h1.3v2.2h2.8v-2.2h1.3v2.2h4.1v9.1h1.7v1.3h-16.9v-1.3h1.7v-9.1h4.1v-2.2zm.4 13.1.7 1.2c-1.8.9-3.8 1.9-6 2.9-.2-.4-.5-.8-.8-1.3 2.3-1 4.3-1.9 6.1-2.8zm-3.1-6.4h2.8v-3.2h-2.8zm0 4.6h2.8v-3.3h-2.8zm4-4.6h2.8v-3.2h-2.8zm0 4.6h2.8v-3.3h-2.8zm3.7 1.9c2.1.9 4.1 1.8 6.1 2.7l-.7 1.3c-2.2-1.1-4.2-2-6.1-2.9zm3.2-9.7h-2.8v3.2h2.8zm-2.8 7.8h2.8v-3.3h-2.8z" fill="#fcfbfa"/></svg>