<svg enable-background="new 0 0 400 400" viewBox="0 0 400 400" xmlns="http://www.w3.org/2000/svg"><g fill="#010105"><path d="m105.82 272.3c1.11.97 1.87 1.42 2.32 2.07 6.42 9.31 15.27 11.03 26.23 10.88 45.97-.6 91.95-.37 137.93-.11 5.65.03 9.58-1.12 11.93-6.38.46-1.03 1.33-1.87 2.41-3.34 5.77 4.49 11.4 8.87 16.79 13.06-.46 1.24-.51 1.75-.7 1.81-5.96 1.88-7.14 6.07-6.78 11.89.72 11.78.65 23.6 1.15 35.39.4 9.6-2.96 12.91-15.16 14.01 0-5.32 0-10.61 0-16.24-53.7 0-107.05 0-160.38 0-1.81 12.59-3.48 14.4-15.3 17.29.22-19.2.27-38.56.77-57.9.18-6.79-1.22-12.83-5.44-18.78 1.34-1.15 2.63-2.26 4.23-3.65zm15.37 57.31h160.45c0-13.32 0-26.24 0-39.21-53.64 0-106.98 0-160.45 0z"/><path d="m80.03 52.7c1.5-.99 2.73-1.81 4.3-2.85 2.31 2.14 4.86 4.03 6.8 6.42 3.27 4.03 7.27 4.91 12.29 4.84 17.99-.27 35.99-.31 53.98.01 5.4.1 9.67-1 13.15-5.22 1.34-1.63 3.21-2.82 5.15-4.47 5.67 4.69 11.2 9.27 18.22 15.08-11.88.91-11.24 7.94-10.98 15.21.56 15.79.66 31.6 1.07 47.4.18 7.18-5.43 12.45-14.7 13.62 0-25.03 0-50.08 0-75.44-23.04 0-46.42 0-69.69 0 0 19.11-.04 38.04.03 56.98.02 4.82.98 9.73.29 14.42-.42 2.85-2.65 6.04-5 7.85-2.91 2.24-6.8 3.2-10.55 4.84.54-13.29 1.25-25.87 1.51-38.46.25-13.33.09-26.66.1-39.99.01-11.24 0-11.24-5.97-20.24z"/><path d="m296.3 143.23c0-25.54 0-51.09 0-76.94-21.96 0-44.22 0-67.3 0 0 1.6-.03 3.34 0 5.08.35 19.8.7 39.6 1.07 59.41.24 12.71-3.04 16.64-15.04 18.68.32-26.13.51-52.39 1.05-78.65.14-6.95-.57-13.27-6.34-18.22 1.72-1.12 3.08-2.01 4.32-2.82.54.24.95.29 1.11.52 6.46 8.9 15.32 10.47 25.78 9.91 14.62-.78 29.31-.39 43.97-.09 4.99.1 9.04-.72 12.27-4.8 1.41-1.79 3.46-3.07 5.56-4.87 5.62 4.67 11.17 9.28 16.55 13.75-.44 1.01-.52 1.53-.69 1.56-8.52 1.53-9.09 7.3-8.76 14.58.76 16.62.82 33.26 1.1 49.9.13 6.87-5.99 12.15-14.65 13z"/><path d="m250.35 82.04c1.86-1.89 20.7 3.08 27.7 8.18-.05.3-.05.86-.16.88-10.98 2.3-8.43 11.36-9.59 18.75-1.63 10.46-2.7 21.16-5.83 31.19-7.04 22.59-24.62 35.59-44.66 45.89-1.47.76-2.95 1.58-4.52 2.07-3.95 1.24-7.37 2.45-6.55 7.99.21 1.45-2.66 4.85-3.81 4.71-2.36-.27-5.59-1.8-6.56-3.75-3.71-7.43-7.99-14.19-15.05-18.86-.28-.18-.52-.53-.81-.56-8.48-1.02-10.08-8.06-12.93-14.29-4.08-8.92-11.28-15.08-19.4-20.26-1.87-1.2-3.73-2.42-5.28-4.78.98-.11 2.08-.56 2.91-.27 10.69 3.74 21.23 7.88 29.67 15.79 6.69 6.27 8.02 10.19 7.09 17.59 7.97 4.91 15.63 9.62 24.39 15.01 23.67-14.55 44.69-33.02 47.93-64.8.96-9.4 1.36-18.95.86-28.38-.24-4.01-3.42-7.86-5.4-12.1z"/><path d="m325.97 194.37c7.15 5.57 13.98 10.88 20.81 16.2-.16.5-.33 1-.49 1.5-2.57 0-5.15 0-7.72 0-86.3 0-172.59-.04-258.89.1-5.34.01-10.67 1.41-17.33 2.35-1.85-1.75-4.95-4.68-9.07-8.58h6.71c82.63 0 165.26-.05 247.89.12 5.76.01 10.34-.77 13.42-6.09 1.08-1.85 2.75-3.33 4.67-5.6z"/><path d="m121.32 82.32c3.02-2.72 21.93 2.55 28.69 7.56-.11.3-.15.81-.33.85-7.93 2.08-8.74 7.59-8.92 14.96-.45 18.69-2.96 37.17-12.92 53.65-10.01 16.55-25.6 26.17-42.77 33.7-2.28 1-4.59 1.97-6.97 2.63-.84.23-1.94-.49-2.92-.77.53-.85.87-1.99 1.62-2.51 7.39-5.08 15.14-9.68 22.22-15.16 17.43-13.5 26.43-31.66 27.92-53.53.63-9.28.52-18.62 1.14-27.9.39-5.88-2.81-9.64-6.76-13.48z"/><path d="m282.14 221.71c7.25 4.74 13.98 9.15 20.72 13.56-.13.48-.27.97-.4 1.45-1.86.09-3.72.27-5.58.27-57.11.01-114.22.06-171.33-.06-5.74-.01-10.94.66-14.81 5.14-3.21-3.48-6.19-6.71-9.3-10.08h5.1c53.61 0 107.23-.08 160.84.13 5.39.02 9.24-1.05 11.65-6.04.71-1.44 1.88-2.67 3.11-4.37z"/><path d="m281.02 248.78c7.12 4.68 13.79 9.06 20.47 13.45-.17.49-.35.99-.52 1.48-1.9.1-3.79.28-5.69.29-56.83.02-113.67.01-170.5.04-2.48 0-5.06-.02-7.41.63-8.2 2.27-9.41 1.96-15.53-5.65h5.67c52.83 0 105.67-.1 158.5.14 5.65.03 9.51-1.24 11.93-6.41.6-1.32 1.79-2.36 3.08-3.97z"/><path d="m274.15 146.03c1.84-.68 3.17-1.71 3.92-1.38 14.24 6.19 28.39 12.74 37.29 26.28 2.32 3.53 3.35 8.27 3.71 12.56.17 2.05-2.15 5.31-4.19 6.31-3.14 1.55-5.62-.95-7.02-3.86-2.09-4.33-3.89-8.79-6.02-13.09-5.46-10.99-14.88-18.1-24.68-24.8-.68-.46-1.36-.91-3.01-2.02z"/></g><path d="m362.1 8.8c1.1.8 2.1 1.6 3.1 2.4l-1 1.1c-1.3-1.1-2.3-2-3-2.5zm1.9 4.8c.5.2.9.4 1.4.5-.6 2.3-1.3 4.5-1.9 6.8l-1.5-.5c.8-2.1 1.4-4.3 2-6.8zm-1-9.4c1.3.9 2.4 1.8 3.4 2.5l-1 1.1c-1.4-1.2-2.4-2.1-3.2-2.6zm3.7 2.2v-1.4h10.3v1.2c-.5 3.6-1.8 6.8-4 9.4 1.5 1.6 3.4 2.8 5.7 3.8-.3.4-.7.8-1.1 1.4-2.3-1.1-4.1-2.5-5.6-4.1-1.6 1.6-3.6 3.1-5.9 4.3-.3-.5-.7-.9-1-1.3 2.4-1.1 4.4-2.5 6-4.1-1.9-2.5-3-5.6-3.3-9.3h-1.1zm8.8 0h-6.4c.3 3.3 1.3 6 3 8.2 2-2.3 3.1-5.1 3.4-8.2z" fill="#fcfbfa"/><path d="m385.3 3.8h1.3v2.2h2.8v-2.2h1.3v2.2h4.1v9.1h1.7v1.3h-16.9v-1.3h1.7v-9.1h4.1v-2.2zm.4 13.1.7 1.2c-1.8.9-3.8 1.9-6 2.9-.2-.4-.5-.8-.8-1.3 2.3-1 4.3-1.9 6.1-2.8zm-3.1-6.4h2.8v-3.2h-2.8zm0 4.6h2.8v-3.3h-2.8zm4-4.6h2.8v-3.2h-2.8zm0 4.6h2.8v-3.3h-2.8zm3.7 1.9c2.1.9 4.1 1.8 6.1 2.7l-.7 1.3c-2.2-1.1-4.2-2-6.1-2.9zm3.2-9.7h-2.8v3.2h2.8zm-2.8 7.8h2.8v-3.3h-2.8z" fill="#fcfbfa"/></svg>