<svg enable-background="new 0 0 400 400" viewBox="0 0 400 400" xmlns="http://www.w3.org/2000/svg"><g fill="#010105"><path d="m56.74 240.14c16.41-12.19 32.85-24.34 49.21-36.6 2.65-1.99 5.39-4.16 7.22-6.84 1.39-2.03 1.47-4.98 2.01-7.54.28-1.31-.19-3.15.54-3.89.66-.66 2.51-.14 4.59-.14.23-4.21.48-8.89.77-14.14-9.41 0-18.2 0-26.98 0-6 0-12.02-.34-17.99.11-4.64.34-9.21 1.66-14.98 2.77-1.91-1.6-5.08-4.26-9.19-7.71h68.81c0-6.2 0-11.79 0-18.09-6.46 0-12.9 0-19.33 0-4.17 0-8.33.07-12.5-.02-3.67-.08-6.67-.27-8.66 4.31-1.11 2.55-5.38 3.72-9.04 6.02.32-6.34.61-11.27.8-16.2.55-14.29 1.19-28.58 1.45-42.87.04-2.22-1.75-4.45-2.56-6.72-.38-1.08-.44-2.28-.65-3.42 1.12.22 2.77.05 3.28.73 4.61 6.14 10.97 6.37 17.83 6.13 9.63-.33 19.28-.08 29.27-.08 0-5.7 0-11.07 0-16.76-16.09 0-32.05 0-48 .01-.49 0-1 .1-1.47.26-2.81.91-6.09 3.22-8.29 2.45-3.54-1.24-6.36-4.52-10.37-7.63h68.3c.06-7.59 1.86-14.91-4.35-20.86-.7-.67-1.15-2.62-.71-3.22.55-.74 2.35-1.24 3.29-.92 7.98 2.74 15.88 5.7 24.99 9.02-6.01 4.05-14.4 5.68-10.03 15.71h10.38c7.67 0 15.35-.26 22.99.1 4.11.2 6.95-.89 9.17-4.36 1.41-2.21 3.35-4.09 5.41-6.55 6.35 4.66 12.56 9.22 18.77 13.77-.11.65-.22 1.29-.33 1.94-22.23.23-44.47 0-67.04.13v16.89c11.24 0 22.36.14 33.47-.16 1.47-.04 2.98-2.18 4.29-3.53 1.26-1.3 2.28-2.84 3.8-4.78 4.91 3.67 9.72 7.28 14.32 10.72-.32 1.08-.32 1.6-.51 1.67-6.83 2.76-7.27 8.26-6.8 14.59.73 9.78.92 19.6 1.39 29.4.4 8.26-2.35 11.19-11.01 11.24-.17-2.07-.33-4.17-.53-6.63-12.71 0-25.44 0-38.47 0v17.57h11.18c9.33 0 18.67-.18 28 .08 4.17.12 7.39-.56 9.57-4.53 1.08-1.98 2.92-3.54 4.63-5.52 6.67 4.4 13.1 8.64 19.53 12.87-.16.52-.33 1.03-.49 1.55-23.99 0-47.98 0-72.77 0 .34 8.01 2.36 16.18-7.29 19.79 4.66 3.38 8.74 6.34 12.81 9.3-.12.47-.25.93-.37 1.4-2.16.36-4.34 1.12-6.46.99-4.74-.28-8.42 1.28-12.21 4.22-17.93 13.92-37.33 25.48-58.14 34.61-1.46.64-3.32.38-4.99.54.15-.41.29-.79.44-1.18zm76.53-116.95v20.45h38.38c0-6.99 0-13.68 0-20.45-12.92 0-25.48 0-38.38 0zm-50.51 20.4h37.83c0-7.05 0-13.74 0-20.36-12.8 0-25.21 0-37.83 0zm50.38-24.85h38.51c0-6.29 0-12.31 0-18.3-13.03 0-25.7 0-38.51 0zm-50.43-.07h37.87c0-6.37 0-12.39 0-18.34-12.8 0-25.19 0-37.87 0z"/><path d="m242.88 136.19c0-10.16 0-19.31 0-28.92-8.66-.34-17.28-1.71-25.02 4.12-3.07-2.91-5.94-5.64-9.63-9.14h34.49c0-9.91 0-19.17 0-29.14-8.14.59-16.38-1.72-24.38 2.03-1.12.53-3.17.24-4.23-.49-2.44-1.66-4.53-3.82-7.83-6.72h6.24c25.99 0 51.98-.18 77.97.14 5.57.07 9.58-1.17 12.34-6.06.71-1.25 1.83-2.27 3.06-3.76 4.64 4.32 10.49 6.96 14.27 13.26-7.06.84-8.42 4.49-8.21 10.17.66 17.62.2 35.3 1.38 52.88.63 9.46 3.24 18.89 5.94 28.05 1.01 3.41 4.43 6.51 7.45 8.83 3.61 2.77 6.17 1.53 7.16-2.97 2.45-11.17 4.7-22.38 7.03-33.57.13-.63.33-1.24.6-2.22 1.54.46 2.9.86 3.87 1.15-1.15 13.46-2.46 26.48-3.27 39.53-.23 3.69.8 7.52 1.67 11.19 1.06 4.47.07 6.38-4.5 5.57-13.62-2.44-24.58-8.9-30.42-22.17-5.02-11.41-7.29-23.52-7.83-35.82-.78-17.62-.78-35.27-1.1-52.91-.03-1.81 0-3.62 0-5.79-14.92 0-29.5 0-44.51 0v27.96c8.71 2.82 14.88-.33 18.56-9.29 6.3 4.72 11.94 8.96 17.59 13.19-.07.41-.15.82-.22 1.24-11.93 0-23.86 0-36.07 0v29.09c9.27.57 19.31 3.46 23.67-9.51 6.43 4.81 12.09 9.04 17.76 13.28-.12.39-.24.78-.36 1.17-13.54 0-27.07 0-40.91 0 0 6.22-.48 11.85.1 17.36 1.4 13.36-.57 16.24-14.07 18.67.54-11.6 1.07-23.18 1.63-35.42-9.25 0-18.24-1.93-26.16 4.29-3.16-3.02-6.03-5.76-9.7-9.27z"/><path d="m157.55 349.74c14.13-7.51 26.25-15.03 33.47-27.79 3.43-6.07 5.27-13.04 8.35-20.95-5.27 0-8.84-.18-12.38.04-9.03.55-18.33-1.82-27.08 2.51-.82.4-2.64-.81-3.79-1.58-2.32-1.57-4.5-3.35-7.74-5.81h50.09c-.2-9.91 3.8-20.18-8.4-27.02 2.24-.72 3.79-1.82 4.82-1.46 8.42 2.96 16.73 6.2 25.22 9.4-3.66 2.31-8.18 3.62-9.61 6.47-1.59 3.18-.36 7.77-.36 12.09h69.33c2.01-9.65.51-17.94-10-23.96 2.62-.94 4.15-2.11 5.16-1.76 9.38 3.19 18.68 6.65 29.37 10.52-7.88 2.98-15.09 5.35-11.19 15.54 6.23 0 13.01.22 19.76-.16 1.59-.09 3.2-2.04 4.55-3.38 2-1.99 3.77-4.2 5.99-6.72 7.71 4.48 15.33 8.91 22.94 13.35-.11.5-.21 1.01-.32 1.51-17.76 0-35.52 0-53.37 0 0 12.5-.31 24.12.1 35.71.33 9.34-4.23 14.12-13.45 13.56 0-16.08 0-32.12 0-48.51-22.56 0-45.79 0-69.35 0-2.93 28.79-23.71 41.07-47.5 50.39-.78.33-2.21-.91-4.61-1.99z"/><path d="m225.98 179.14c8.07 2.24 16.15 4.49 24.22 6.73.16.77.33 1.54.49 2.32-9.54 1.44-14.54 8.03-19.62 15.81h5.63c21.82 0 43.64-.2 65.46.14 5.57.09 9.56-1.35 12.58-5.92.99-1.51 2.36-2.76 3.9-4.53 7.57 4.31 15.07 8.58 22.57 12.85-.16.78-.31 1.56-.47 2.33-21.75.32-43.52 0-66.39.19 10.33 11.22 22.43 17.63 35.73 21.22 12.98 3.51 26.38 5.47 40.34 8.25-1.66.56-2.98 1.34-4.34 1.42-5.8.35-10.39 3.02-14.62 6.76-1 .89-2.87 1.73-3.99 1.4-19.14-5.72-37.2-13.48-51.47-28.12-1.39-1.43-3.08-2.76-3.95-4.48-2.86-5.62-7.18-7.1-13.33-6.68-8.62.59-17.32.38-25.97.05-4.35-.17-7.37 1.26-10.42 4.29-18.48 18.32-50.76 36.44-75.92 42.87-.51-1.07-1.04-2.19-1.72-3.59 24.67-10.94 47.65-24.02 67.16-42.46-.07-.52-.14-1.04-.21-1.56-12.31.61-24.71.54-36.88 2.21-4.32.59-7.1.44-10.06-2.26-1.35-1.23-2.81-2.34-4.89-4.06 1.99-.15 3.34-.33 4.7-.33 15.82-.02 31.65-.11 47.47.06 3.65.04 6.4-.61 8.37-3.95 1.68-2.85 3.98-5.33 5.7-8.16 2.36-3.88 3.89-7.9-1.3-11.49.41-.42.82-.86 1.23-1.31z"/><path d="m103.96 352.63c0-28.41 0-56.49 0-83.97-15.62 8.45-32.03 17.34-48.44 26.22-.17-.31-.33-.61-.5-.92-.16-.03-.41-.02-.45-.1-.52-1.14-1.01-2.28-1.01-2.28 18.83-13.91 37.35-27.16 55.33-41.11 6.51-5.05 11.81-11.69 17.51-17.74 4.14-4.39 7.83-9.06 2.74-15.23 3.69-1.02 19.89 7.23 24.89 12.41-.94.41-1.79 1.15-2.56 1.07-6.17-.63-10.32 2.65-14.28 6.77-5.65 5.87-11.65 11.4-17.27 17.3-1.42 1.5-2.73 3.85-2.75 5.82-.19 21-.18 42-.07 63 .02 4.64.42 9.31 1 13.92 1.03 8.21-2.72 11.52-10.28 14.04-1.39.46-2.9.61-3.86.8z"/><path d="m261.91 227.44c-10.87 2.51-14.06 9.15-11.2 19.48 6.99 0 14.27.1 21.54-.1 1.21-.03 2.63-1.18 3.52-2.19 2.3-2.6 4.36-5.42 6.71-8.41 7.33 4.5 14.41 8.86 21.5 13.21-.16.43-.32.86-.48 1.29-17.54 0-35.09 0-53.32 0v22.2c0 8.19-4.47 12.74-12.74 13.05 0-11.41 0-22.81 0-35.02-12.61 1.35-25.82-2.82-38.35 3.79-2.93-2.25-5.9-4.53-10.06-7.73h48.83c-.22-10.52 3.82-21.69-10.38-27.43 2.03-1.38 3.31-2.9 4.06-2.68 9.91 2.96 19.75 6.17 29.61 9.32.25.42.5.82.76 1.22z"/></g><path d="m362.1 8.8c1.1.8 2.1 1.6 3.1 2.4l-1 1.1c-1.3-1.1-2.3-2-3-2.5zm1.9 4.8c.5.2.9.4 1.4.5-.6 2.3-1.3 4.5-1.9 6.8l-1.5-.5c.8-2.1 1.4-4.3 2-6.8zm-1-9.4c1.3.9 2.4 1.8 3.4 2.5l-1 1.1c-1.4-1.2-2.4-2.1-3.2-2.6zm3.7 2.2v-1.4h10.3v1.2c-.5 3.6-1.8 6.8-4 9.4 1.5 1.6 3.4 2.8 5.7 3.8-.3.4-.7.8-1.1 1.4-2.3-1.1-4.1-2.5-5.6-4.1-1.6 1.6-3.6 3.1-5.9 4.3-.3-.5-.7-.9-1-1.3 2.4-1.1 4.4-2.5 6-4.1-1.9-2.5-3-5.6-3.3-9.3h-1.1zm8.8 0h-6.4c.3 3.3 1.3 6 3 8.2 2-2.3 3.1-5.1 3.4-8.2z" fill="#fcfbfa"/><path d="m385.3 3.8h1.3v2.2h2.8v-2.2h1.3v2.2h4.1v9.1h1.7v1.3h-16.9v-1.3h1.7v-9.1h4.1v-2.2zm.4 13.1.7 1.2c-1.8.9-3.8 1.9-6 2.9-.2-.4-.5-.8-.8-1.3 2.3-1 4.3-1.9 6.1-2.8zm-3.1-6.4h2.8v-3.2h-2.8zm0 4.6h2.8v-3.3h-2.8zm4-4.6h2.8v-3.2h-2.8zm0 4.6h2.8v-3.3h-2.8zm3.7 1.9c2.1.9 4.1 1.8 6.1 2.7l-.7 1.3c-2.2-1.1-4.2-2-6.1-2.9zm3.2-9.7h-2.8v3.2h2.8zm-2.8 7.8h2.8v-3.3h-2.8z" fill="#fcfbfa"/></svg>