<?xml version="1.0" encoding="utf-8"?>
<svg version="1.1" id="漢_ZDIC_典" xmlns="http://www.w3.org/2000/svg" xmlns:xlink="http://www.w3.org/1999/xlink" x="0px" y="0px"
	 viewBox="0 0 400 400" style="enable-background:new 0 0 400 400;" xml:space="preserve">
<style type="text/css">
	.st1{fill:#010104;}
	.st0{fill:#fbfcfa;}
</style>
<g>
	<path class="st0" d="M361.2,9.6l0.8-1c0.9,0.7,1.9,1.4,2.9,2.3L364,12C363,11,362,10.2,361.2,9.6z M361.7,20.2
		c0.9-2.1,1.6-4.3,2.3-6.7c0.4,0.2,0.8,0.4,1.3,0.6c-0.7,2.1-1.5,4.3-2.2,6.6L361.7,20.2z M362.1,5l0.9-0.9c1,0.8,2,1.6,2.8,2.4
		l-1,1C363.9,6.6,363,5.8,362.1,5z M374.6,3.8h1.2v1.4h2.7v1.1h-2.7v2.7h-1.2V8.4h-1.8v1.3h4.9v3.8h-1.2v-0.5h-3.7
		c0,0.4-0.1,0.9-0.1,1.2h5.1v1h-5.2c0,0.5-0.1,0.9-0.3,1.2h6v1h-5.2c1.1,1.3,2.9,2,5.5,2.2c-0.4,0.4-0.7,0.8-0.9,1.3
		c-2.9-0.5-4.8-1.6-5.7-3.5H372c-0.8,1.7-2.7,2.9-5.9,3.6c-0.2-0.4-0.6-0.8-0.9-1.1c2.8-0.6,4.6-1.4,5.4-2.5h-4.8v-1h5.3
		c0.1-0.3,0.2-0.7,0.2-1.2h-4.9v-1h5c0-0.4,0-0.8,0.1-1.2H368v0.5h-1.2V9.7h4.9V8.4h-1.8v0.5h-1.2V6.2H366V5.2h2.6V3.8h1.2v1.4h4.7
		V3.8z M368,12.1h3.6c0-0.4,0-0.9,0-1.4H368V12.1z M369.9,7.5h4.7V6.2h-4.7V7.5z M376.5,10.7h-3.7c0,0.5,0,1,0,1.4h3.7V10.7z"/>
	<path class="st0" d="M385.3,3.8h1.3V6h2.8V3.8h1.3V6h4.1v9.1h1.7v1.3h-16.9v-1.3h1.7V6h4.1V3.8z M385.7,16.9l0.7,1.2
		c-1.8,0.9-3.8,1.9-6,2.9c-0.2-0.4-0.5-0.8-0.8-1.3C381.9,18.7,383.9,17.8,385.7,16.9z M382.6,10.5h2.8V7.3h-2.8V10.5z M382.6,15.1
		h2.8v-3.3h-2.8V15.1z M386.6,10.5h2.8V7.3h-2.8V10.5z M386.6,15.1h2.8v-3.3h-2.8V15.1z M390.3,17c2.1,0.9,4.1,1.8,6.1,2.7l-0.7,1.3
		c-2.2-1.1-4.2-2-6.1-2.9L390.3,17z M393.5,7.3h-2.8v3.2h2.8V7.3z M390.7,15.1h2.8v-3.3h-2.8V15.1z"/>
	
	<path class="st1" d="M91.26,158.97c-11.74,1.08-23.53-2.44-35.06,3.8c-2.63-3.14-5.37-6.42-8.23-9.84c1.2,0,2.92,0,4.63,0
		c33.66,0,67.32-0.12,100.98,0.13c5.08,0.04,8.45-1.28,10.86-5.71c1.25-2.3,3.08-4.29,4.82-6.65c6.93,5.54,13.58,10.85,20.22,16.16
		c-0.21,0.54-0.42,1.08-0.62,1.61c-11.31,0-22.61,0-34.79,0c0,2.52,0,4.26,0,6c0,47.66,0,95.31,0,142.97c0,0.17,0,0.33,0,0.5
		c0.09,16.24,4.78,22.16,20.91,22.81c28.09,1.14,56.22,1.62,84.33,1.72c19.62,0.07,39.26-0.62,58.86-1.65
		c11.97-0.63,17.84-7.37,18.75-19.26c1.08-14.06,2.26-28.11,3.4-42.27c2.79-1.07,3.84-0.21,3.89,2.8
		c0.17,10.15,0.71,20.29,0.76,30.43c0.04,8.71,1.53,16.59,9.74,21.52c-5.04,11.09-13.72,16.92-25.19,18.03
		c-10.25,0.99-20.59,1.18-30.9,1.27c-35.31,0.32-70.62,0.59-105.92,0.55c-8.79-0.01-17.61-0.95-26.35-2.04
		c-17.46-2.17-26.38-12.54-26.41-30.38c-0.06-36.99-0.02-73.98-0.02-110.98c0-12,0-24,0-35.99c0-1.62,0-3.25,0-5.15
		c-11.74,0-22.99,0-34.54,0c-0.13,0.78-0.36,1.55-0.37,2.33c-0.33,16.81-0.24,33.64-1.05,50.42c-1.34,28.03-2.35,56.19-10.99,83.22
		c-7.48,23.39-21.64,41.74-43.08,54.18c-2.09-3.05-2.18-3.15,0.23-5.41c19.67-18.46,31.13-41.28,35.32-67.7
		c2-12.62,3.63-25.37,4.2-38.12c1.11-24.76,1.35-49.56,1.92-74.34C91.61,162.46,91.4,161,91.26,158.97z"/>
	<path class="st1" d="M189.48,109.25c1.12,0,2.5-0.03,3.89,0.03c0.28,0.01,0.61,0.3,0.82,0.54c7.58,8.91,17.51,10.01,28.4,9.24
		c8.58-0.61,17.24-0.12,26.42-0.12c0-6.24-0.06-12.02,0.01-17.8c0.15-12.64,0.59-25.29,0.38-37.93c-0.06-3.38-2.02-6.72-3.34-10.79
		c0.22-0.1,1.55-1.26,2.3-0.96c7.33,2.92,14.56,6.08,22.36,10.02c-11.15,2.26-10.06,10.19-9.72,17.79c0.1,2.31,0.02,4.63,0.02,7.68
		c6.02,0,11.78,0,17.55,0c4.83,0,9.71-0.43,14.49,0.11c5.82,0.66,9.91-1.09,12.62-6.29c0.6-1.14,1.67-2.04,2.84-3.44
		c7.26,4.57,14.45,9.1,21.64,13.63c-0.15,0.51-0.29,1.02-0.44,1.53c-22.62,0-45.23,0-68.27,0c0,9.15,0,17.52,0,26.47
		c6.45,0,12.9,0,19.34,0c8.83,0,17.67-0.2,26.49,0.09c4.3,0.14,7.72-0.65,10.33-4.33c1.52-2.15,3.53-3.94,5.57-6.17
		c6.36,5.95,12.34,11.54,18.52,17.32c-1.05,0.79-1.43,1.32-1.78,1.3c-11.73-0.5-19.99,5.82-27.59,13.72
		c-1.86,1.93-3.69,5.26-7.74,2.51c3.59-5.8,7.2-11.63,11.16-18.02c-36.51,0-72.23,0-108.66,0c0,1.83,0,3.59,0,5.35
		c0,20.66,0.36,41.34-0.09,61.99c-0.6,27.74-4.19,55-16.14,80.5c-5.4,11.54-12.49,21.91-21.96,30.42c-3.27-1.19-3.55-2.8-1.79-5.36
		c15.1-21.93,21.33-46.89,24.92-72.79c4.76-34.33,2.45-68.84,2.69-103.27C194.73,118.29,191.63,114.37,189.48,109.25z"/>
	<path class="st1" d="M336.81,181.43c-4.86,9.51-11.79,15.95-23.22,16.03c-13.79,0.09-27.75,1.74-41.33,0.17c-15.23-1.76-17.56-4.98-20.27-21.71
		c-0.26-1.6-0.25-3.25-0.38-5.17c-9.43,0.44-18.57,0.55-26.12,7.46c-3.54-2.43-7.05-4.84-11.63-7.98
		c12.9-1.31,24.64-2.51,37.24-3.79c-1.62-11.05,3.75-22.87-6.28-34.21c2.98-0.07,5.21-0.72,6.95-0.06c6.36,2.4,12.57,5.2,18.82,7.91
		c1.43,0.62,2.78,1.43,3.92,2.03c-4.06,2.9-9.26,4.82-11.08,8.43c-1.86,3.71-0.41,9.09-0.41,14.52c5.47-0.5,10.66-0.97,15.86-1.46
		c0.49-0.05,0.97-0.27,1.47-0.29c8.79-0.43,17.58-0.84,18.89-13.21c7.56,4.22,14.13,7.9,20.71,11.57c-0.07,0.54-0.14,1.07-0.21,1.61
		c-18.76,1.98-37.52,3.95-56.19,5.92c-1.76,12.71,1.95,17.74,14.6,18.51c10.08,0.61,20.24,0.48,30.35,0.12
		c8.35-0.3,13.43-6.33,14.34-15.71c0.59-6.12,1.23-12.23,1.98-18.33c0.11-0.94,0.94-1.78,1.43-2.67c0.63,0.92,1.69,1.77,1.82,2.76
		c0.5,3.6,0.88,7.24,0.97,10.88C329.23,173.08,330.71,176.43,336.81,181.43z"/>
	<path class="st1" d="M274.72,212.19c8.46,0.63,15.05,6.49,23.34,9.71c-8.89,3.1-8.2,9.89-8.11,16.66c0.18,12.81,0.44,25.64-0.05,38.44
		c-0.57,14.65,7.96,15.76,17.65,15.34c10.58-0.46,14.12-5.14,15.28-17.62c0.38-4.13,0.58-8.29,1.23-12.37
		c0.21-1.36,1.55-2.55,2.38-3.81c0.4,0.24,0.81,0.48,1.21,0.72c0.47,6.43,0.8,12.88,1.51,19.28c0.25,2.24,1.15,4.54,2.27,6.51
		c3.02,5.29,2.65,9.7-2.99,12.46c-5.05,2.47-10.94,3.46-16.57,4.41c-3.88,0.66-7.97,0.17-11.96,0.14
		c-13.74-0.12-21.67-7.38-21.81-21.01c-0.19-18.95,0.44-37.91,0.27-56.86C278.33,220.51,276.2,216.85,274.72,212.19z"/>
	<path class="st1" d="M236.65,206.82c8.1,2.13,15.06,6.08,22.37,8.99c-0.23,0.82-0.25,1.34-0.42,1.4c-7.39,2.32-7.85,7.91-7.71,14.54
		c0.42,20.33-4.03,39.27-17.7,55.15c-7.83,9.09-17.35,15.98-28.19,21.01c-1.17,0.54-2.8,0.11-4.21,0.13
		c0.76-1.1,1.28-2.53,2.31-3.25c14.05-9.88,25.23-22.08,31.52-38.33c3.76-9.74,5.07-19.87,5.01-30.25c-0.04-5.99,0.44-12,0.07-17.96
		C239.47,214.9,237.99,211.67,236.65,206.82z"/>
	<path class="st1" d="M160.39,67.74c7.2,5.56,14.19,10.95,21.18,16.35c-0.18,0.51-0.37,1.03-0.55,1.54c-1.86,0.14-3.72,0.41-5.58,0.41
		c-30.32,0.03-60.63-0.09-90.95,0.11c-5.51,0.04-11.01,1.32-18.05,2.22c-1.72-1.64-4.76-4.54-8.86-8.45c3.12,0,4.86,0,6.6,0
		c26.98,0,53.97-0.14,80.95,0.13c4.73,0.05,7.84-1.11,10.13-5.2C156.63,72.44,158.52,70.3,160.39,67.74z"/>
</g>
</svg>
