<?xml version="1.0" encoding="utf-8"?>
<svg version="1.1" id="漢_ZDIC_典" xmlns="http://www.w3.org/2000/svg" xmlns:xlink="http://www.w3.org/1999/xlink" x="0px" y="0px"
	 viewBox="0 0 400 400" style="enable-background:new 0 0 400 400;" xml:space="preserve">
<style type="text/css">
	.st1{fill:#010104;}
	.st0{fill:#fbfcfa;}
</style>
<g>
	<path class="st0" d="M361.2,9.6l0.8-1c0.9,0.7,1.9,1.4,2.9,2.3L364,12C363,11,362,10.2,361.2,9.6z M361.7,20.2
		c0.9-2.1,1.6-4.3,2.3-6.7c0.4,0.2,0.8,0.4,1.3,0.6c-0.7,2.1-1.5,4.3-2.2,6.6L361.7,20.2z M362.1,5l0.9-0.9c1,0.8,2,1.6,2.8,2.4
		l-1,1C363.9,6.6,363,5.8,362.1,5z M374.6,3.8h1.2v1.4h2.7v1.1h-2.7v2.7h-1.2V8.4h-1.8v1.3h4.9v3.8h-1.2v-0.5h-3.7
		c0,0.4-0.1,0.9-0.1,1.2h5.1v1h-5.2c0,0.5-0.1,0.9-0.3,1.2h6v1h-5.2c1.1,1.3,2.9,2,5.5,2.2c-0.4,0.4-0.7,0.8-0.9,1.3
		c-2.9-0.5-4.8-1.6-5.7-3.5H372c-0.8,1.7-2.7,2.9-5.9,3.6c-0.2-0.4-0.6-0.8-0.9-1.1c2.8-0.6,4.6-1.4,5.4-2.5h-4.8v-1h5.3
		c0.1-0.3,0.2-0.7,0.2-1.2h-4.9v-1h5c0-0.4,0-0.8,0.1-1.2H368v0.5h-1.2V9.7h4.9V8.4h-1.8v0.5h-1.2V6.2H366V5.2h2.6V3.8h1.2v1.4h4.7
		V3.8z M368,12.1h3.6c0-0.4,0-0.9,0-1.4H368V12.1z M369.9,7.5h4.7V6.2h-4.7V7.5z M376.5,10.7h-3.7c0,0.5,0,1,0,1.4h3.7V10.7z"/>
	<path class="st0" d="M385.3,3.8h1.3V6h2.8V3.8h1.3V6h4.1v9.1h1.7v1.3h-16.9v-1.3h1.7V6h4.1V3.8z M385.7,16.9l0.7,1.2
		c-1.8,0.9-3.8,1.9-6,2.9c-0.2-0.4-0.5-0.8-0.8-1.3C381.9,18.7,383.9,17.8,385.7,16.9z M382.6,10.5h2.8V7.3h-2.8V10.5z M382.6,15.1
		h2.8v-3.3h-2.8V15.1z M386.6,10.5h2.8V7.3h-2.8V10.5z M386.6,15.1h2.8v-3.3h-2.8V15.1z M390.3,17c2.1,0.9,4.1,1.8,6.1,2.7l-0.7,1.3
		c-2.2-1.1-4.2-2-6.1-2.9L390.3,17z M393.5,7.3h-2.8v3.2h2.8V7.3z M390.7,15.1h2.8v-3.3h-2.8V15.1z"/>
	
	<path class="st1" d="M219.43,347.72c0-17.54-0.01-34.98,0-52.41c0.02-33.32,0.13-66.64-0.04-99.96c-0.01-3.01-1.27-6.29-2.82-8.94
		c-1.73-2.94-1.04-4.46,1.88-6.02c0.87,1.04,2.04,2.01,2.66,3.25c4.67,9.28,11.97,12.68,22.46,9.56c0-31.15,0-62.84,0-95.1
		c-7.86,0.32-15.78-1.27-23.46,2.18c-1.23,0.55-3.46,0.12-4.63-0.71c-2.56-1.81-4.72-4.17-8.21-7.36c13.05,0,24.54,0,36.57,0
		c0-10.37,0.4-20.15-0.24-29.87c-0.19-2.89-3.37-5.54-5-8.4c-0.63-1.11-0.74-2.51-1.09-3.77c1.27-0.13,2.75-0.75,3.77-0.3
		c7.69,3.36,15.29,6.92,22.85,10.4c-0.33,0.92-0.37,1.43-0.55,1.49c-7.07,2.32-9.7,7-8.72,14.45c0.65,4.9,0.12,9.96,0.12,15.34
		c15.6,0,30.98,0,46.91,0c0-9.75,0.67-19.59-0.32-29.25c-0.41-3.95-4.4-7.53-7.21-11.98c0.64-0.39,2.16-1.97,2.89-1.66
		c8.36,3.5,16.61,7.28,24.85,10.97c-0.37,0.94-0.41,1.43-0.6,1.49c-7.5,2.35-9.46,7.62-8.62,14.99c0.57,5.06,0.11,10.23,0.11,15.21
		c9.08,2.24,15.98,0.7,18.91-9.5c6.92,5.4,13.06,10.19,19.2,14.98c-0.19,0.37-0.38,0.74-0.56,1.11c-12.24,0-24.48,0-37.13,0
		c0,32.08,0,63.77,0,95.46c8.98,2.66,15.08-0.17,17.41-10.42c6.47,4.77,12.08,8.9,17.47,12.88c-0.6,1.39-0.65,1.87-0.87,1.97
		c-7.58,3.41-7.13,9.99-7.1,16.79c0.15,35.99,0.07,71.98,0.07,107.97c0,18.98-2.13,21.72-20.88,26.48c-0.41-0.93-1.01-1.87-1.26-2.9
		c-1.3-5.34-4.72-8.73-9.75-10.48c-4.06-1.41-8.23-2.53-12.37-3.69c-3.26-0.92-3.28-0.86-2.66-5.14c6.64,1.18,13.27,2.36,19.91,3.54
		c0.33,0.06,0.64,0.23,0.96,0.26c12.65,1.25,14.84,0.63,14.78-11.49c-0.17-38.8,0.24-77.61,0.41-116.41c0-0.64-0.18-1.29-0.33-2.27
		c-32.8,0-65.49,0-98.81,0c0,1.91,0,3.7,0,5.49c0,32.82-0.06,65.65,0.04,98.47c0.03,9.31,0.45,18.62,0.8,27.93
		C231.62,341.99,228.51,345.89,219.43,347.72z M255.1,159.68c15.82,0,31.19,0,46.54,0c0-9.7,0-19.07,0-28.28
		c-15.74,0-31.11,0-46.54,0C255.1,140.95,255.1,150.09,255.1,159.68z M255.24,193.58c15.77,0,31.11,0,46.35,0
		c0-9.72,0-19.08,0-28.33c-15.65,0-30.88,0-46.35,0C255.24,174.73,255.24,183.97,255.24,193.58z M255.41,98.26
		c0,9.54,0,18.56,0,27.5c15.64,0,30.87,0,46.27,0c0-9.27,0-18.29,0-27.5C286.13,98.26,270.9,98.26,255.41,98.26z"/>
	<path class="st1" d="M126,123.44c2.46,9.96,9.87,10.23,17.93,9.55c3.78-0.32,7.61-0.05,12.07-0.05c0-2.12,0-3.88,0-5.65
		c0-16.67-0.2-33.34,0.11-50c0.11-5.58-1.43-10.03-5.09-14.07c-0.9-1-1.04-2.68-1.53-4.05c1.59-0.07,3.41-0.69,4.73-0.13
		c7.64,3.21,15.16,6.69,22.85,10.14c-0.38,0.74-0.51,1.45-0.8,1.52c-8.55,2.14-9.77,8.05-9.43,15.91
		c0.59,13.64,0.16,27.33,0.16,40.99c0,1.62,0,3.23,0,4.43c11.91,3.78,20.05-0.99,26.11-10.84c5.16,6,9.68,11.26,14.29,16.62
		c-0.64,0.83-0.96,1.7-1.42,1.78c-7.26,1.39-8.2,6.12-8.06,12.7c0.5,22.65,0.36,45.32,0.49,67.98c0.05,8.21-1.26,9.82-10.23,11.64
		c0-3.1,0-6.12,0-9.5c-7.16,0-13.75,0-20.77,0c0,23.4,0,46.95,0,71.12c8.8-2.74,17.55-5.48,27.6-8.61
		c-4.38-8.25-8.5-15.93-12.51-23.68c-0.74-1.44-1-3.13-0.66-5.04c10.24,9.04,18.49,19.31,23.06,32.03c1.65,4.6,2.54,9.56,3.1,14.43
		c0.26,2.29-0.58,5.09-1.87,7.04c-1.06,1.61-3.54,3.18-5.34,3.13c-1.36-0.04-3.33-2.49-3.81-4.2c-0.83-2.99-0.72-6.24-1-9.38
		c-0.28-3.08-0.57-6.16-0.9-9.83c-12.6,5.57-24.43,10.8-36.27,16.02c-5.01,2.21-10.03,4.41-15.07,6.56
		c-8.24,3.52-15.65,8.14-21.54,16.25c-4.19-5.75-8.13-11.15-12.31-16.88c14.42-4.5,28.45-8.95,42.53-13.2
		c2.37-0.72,3.65-1.4,3.64-4.24c-0.12-23.17-0.07-46.33-0.09-69.5c0-0.63-0.18-1.26-0.3-2.11c-7.28,0-14.38,0-22.01,0
		c-0.4,8.42,1.25,18.4-10.71,19.58c0-11.26-0.07-22.36,0.01-33.46c0.17-22.81,0.46-45.63,0.57-68.44c0.02-3.46-0.2-7.08-1.2-10.35
		C121.35,126.45,122.35,124.99,126,123.44z M155.61,215.8c0-25.79,0-51.14,0-76.44c-7.48,0-14.56,0-21.76,0c0,25.63,0,50.97,0,76.44
		C141.26,215.8,148.23,215.8,155.61,215.8z M167.39,139.21c0,25.82,0,51.15,0,76.4c6.97,0,13.55,0,20.13,0c0-25.65,0-50.97,0-76.4
		C180.65,139.21,174.2,139.21,167.39,139.21z"/>
	<path class="st1" d="M242.65,255.9c-2.72-2.74-5.11-5.15-7.84-7.9c3.84,0,7.59,0,11.33,0c11.83,0,23.66,0.11,35.48-0.13
		c1.63-0.03,4.03-1.48,4.69-2.91c3.57-7.67,7.18-15.39,9.8-23.42c1.56-4.77,1.33-10.12,1.98-15.97c5.86,2.91,12.06,5.99,18.26,9.06
		c0,0.5,0,1,0,1.5c-9.45,0.87-12.18,8.52-16.05,14.98c-3.2,5.36-6.26,10.8-9.68,16.71c7.87,0.15,15.76,2.61,18.81-8.29
		c5.46,4.43,10.18,8.26,14.9,12.1c-0.18,0.39-0.35,0.77-0.53,1.16c-13.54,0-27.09,0-41.01,0c0,9.87,0,19.26,0,29.2
		c7.07,0,14.02,0.17,20.94-0.15c1.33-0.06,2.76-1.92,3.8-3.23c1.32-1.67,2.28-3.62,3.71-5.95c4.97,4.47,9.65,8.67,14.33,12.87
		c-0.2,0.44-0.4,0.88-0.59,1.31c-14.01,0-28.01,0-42.13,0c0,7.75-0.48,14.9,0.11,21.96c0.93,10.96-1.84,15.99-11.16,17.39
		c0.6-12.95,1.19-25.81,1.81-39.38c-9.82,1.16-19.41-2.25-27.88,3.03c-2.54-2.66-4.9-5.12-7.41-7.74c11.47,0,23.04,0,34.94,0
		c0-9.82,0-19.22,0-29.24C262.77,254.1,252.15,250.42,242.65,255.9z"/>
	<path class="st1" d="M112.17,135.25c1.93,0.85,3.29,1.44,4.99,2.19c-5.27,18.23-10.4,36.39-15.76,54.47c-5.62,18.93-11.22,37.88-17.29,56.67
		c-3.13,9.69-2.37,19.3-1.45,29.07c1.22,12.9,2.48,25.79,3.41,38.71c0.19,2.7-0.34,5.87-1.7,8.13c-1.17,1.95-3.98,3.98-6.07,3.99
		c-1.76,0.01-4.84-2.66-5.08-4.45c-0.87-6.54-1.17-13.21-0.98-19.81c0.23-8.13,1.54-16.23,1.69-24.35
		c0.28-15.08-3.77-19.74-18.64-22.62c-0.98-0.19-2.23,0.1-2.92-0.42c-0.98-0.75-2.24-2.11-2.13-3.06c0.12-1.01,1.63-1.95,2.69-2.7
		c0.45-0.31,1.31-0.15,1.96-0.04c12.57,2.04,19.8-3.98,23.67-15.41c8.4-24.82,16.95-49.58,25.35-74.4
		C106.76,152.73,109.34,144.15,112.17,135.25z"/>
	<path class="st1" d="M60.58,80.86c1.45-0.54,3.21-1.89,4.31-1.48C75.4,83.24,85.44,88,93.46,96.15c6.51,6.62,9.76,14.57,9.54,23.83
		c-0.05,2.27-0.38,4.87-1.57,6.67c-1.11,1.68-3.5,3.37-5.37,3.41c-1.46,0.04-3.65-2.16-4.33-3.85c-1.22-3.02-1.57-6.39-2.25-9.62
		c-2.54-12.02-9.4-21.09-19.23-28.1c-2.96-2.11-6.07-4.01-9.11-6C60.95,81.95,60.76,81.4,60.58,80.86z"/>
	<path class="st1" d="M245.61,206.95c9.82,5.1,19.28,10.65,22.61,22.28c0.84,2.93,0.93,6.18,0.81,9.26c-0.14,3.66-3.02,5.24-6.16,5.25
		c-3.39,0-4.07-2.8-4.05-5.7c0.08-10.57-4.98-18.63-12.36-25.62C244.98,211.02,242.07,209.52,245.61,206.95z"/>
	
	
	
	
	
</g>
</svg>
