<?xml version="1.0" encoding="utf-8"?>
<svg version="1.1" id="漢_ZDIC_典" xmlns="http://www.w3.org/2000/svg" xmlns:xlink="http://www.w3.org/1999/xlink" x="0px" y="0px"
	 viewBox="0 0 400 400" style="enable-background:new 0 0 400 400;" xml:space="preserve">
<style type="text/css">
	.st1{fill:#010104;}
	.st0{fill:#fbfcfa;}
</style>
<g>
	<path class="st0" d="M361.2,9.6l0.8-1c0.9,0.7,1.9,1.4,2.9,2.3L364,12C363,11,362,10.2,361.2,9.6z M361.7,20.2
		c0.9-2.1,1.6-4.3,2.3-6.7c0.4,0.2,0.8,0.4,1.3,0.6c-0.7,2.1-1.5,4.3-2.2,6.6L361.7,20.2z M362.1,5l0.9-0.9c1,0.8,2,1.6,2.8,2.4
		l-1,1C363.9,6.6,363,5.8,362.1,5z M374.6,3.8h1.2v1.4h2.7v1.1h-2.7v2.7h-1.2V8.4h-1.8v1.3h4.9v3.8h-1.2v-0.5h-3.7
		c0,0.4-0.1,0.9-0.1,1.2h5.1v1h-5.2c0,0.5-0.1,0.9-0.3,1.2h6v1h-5.2c1.1,1.3,2.9,2,5.5,2.2c-0.4,0.4-0.7,0.8-0.9,1.3
		c-2.9-0.5-4.8-1.6-5.7-3.5H372c-0.8,1.7-2.7,2.9-5.9,3.6c-0.2-0.4-0.6-0.8-0.9-1.1c2.8-0.6,4.6-1.4,5.4-2.5h-4.8v-1h5.3
		c0.1-0.3,0.2-0.7,0.2-1.2h-4.9v-1h5c0-0.4,0-0.8,0.1-1.2H368v0.5h-1.2V9.7h4.9V8.4h-1.8v0.5h-1.2V6.2H366V5.2h2.6V3.8h1.2v1.4h4.7
		V3.8z M368,12.1h3.6c0-0.4,0-0.9,0-1.4H368V12.1z M369.9,7.5h4.7V6.2h-4.7V7.5z M376.5,10.7h-3.7c0,0.5,0,1,0,1.4h3.7V10.7z"/>
	<path class="st0" d="M385.3,3.8h1.3V6h2.8V3.8h1.3V6h4.1v9.1h1.7v1.3h-16.9v-1.3h1.7V6h4.1V3.8z M385.7,16.9l0.7,1.2
		c-1.8,0.9-3.8,1.9-6,2.9c-0.2-0.4-0.5-0.8-0.8-1.3C381.9,18.7,383.9,17.8,385.7,16.9z M382.6,10.5h2.8V7.3h-2.8V10.5z M382.6,15.1
		h2.8v-3.3h-2.8V15.1z M386.6,10.5h2.8V7.3h-2.8V10.5z M386.6,15.1h2.8v-3.3h-2.8V15.1z M390.3,17c2.1,0.9,4.1,1.8,6.1,2.7l-0.7,1.3
		c-2.2-1.1-4.2-2-6.1-2.9L390.3,17z M393.5,7.3h-2.8v3.2h2.8V7.3z M390.7,15.1h2.8v-3.3h-2.8V15.1z"/>
	
	<path class="st1" d="M259.93,79.18c-20.27,0-39.89,0-59.33,0c-4.01,20.92-8,41.67-12.04,62.74c10.62,0,21.44,0.13,32.25-0.15
		c1.54-0.04,3.21-1.94,4.5-3.28c1.71-1.78,3.11-3.85,4.97-6.21c5.97,5.07,11.73,9.96,17.35,14.74c-0.19,0.74-0.2,1.27-0.36,1.32
		c-11.69,3.7-9.73,14.33-11.02,22.8c-4.9,32.24-10.41,64.26-23.96,94.29c-16.7,37.01-43.92,64.18-78.56,84.48
		c-0.41,0.24-0.92,0.3-1.47,0.47c-2.83-2.5-1.32-3.96,0.96-5.78c15.11-12.1,29.44-25.05,41.57-40.21
		c11.38-14.22,20.32-29.9,26.88-47.03c-7.36-0.43-8.06-1.13-10.13-7.96c-5.25-17.28-14.79-31.85-28.52-44.48
		c-2.07,3.64-3.86,7.13-5.98,10.41c-5.16,7.95-10.4,15.86-15.84,23.62c-0.85,1.21-2.92,1.56-4.42,2.3c0.15-1.57-0.15-3.39,0.53-4.69
		c16.33-31.34,30.68-63.49,38.05-98.24c3.78-17.84,6.36-35.95,9.41-53.95c0.27-1.58,0.04-3.25,0.04-5.52
		c-11.3,1.18-22.78-2.54-33.85,4.06c-2.69-3.21-5.44-6.51-8.3-9.93c1.02,0,2.71,0,4.41,0c50.5,0,100.99-0.08,151.48,0.13
		c5.21,0.02,8.87-1.05,11.5-5.69c1.36-2.41,3.44-4.41,5.35-6.79c7.72,5.7,15.16,11.19,22.6,16.69c-0.09,0.4-0.18,0.79-0.26,1.19
		c-20.99,0-41.98,0-63.31,0c0,37.03,0,73.27,0,110.26c2.82-1.89,5.52-3.4,7.87-5.32c10.68-8.73,21.24-17.61,31.89-26.38
		c3.93-3.24,5.6-7.24,4.82-12.33c-0.17-1.14,0.32-2.38,0.71-4.97c8.5,7.85,18.13,12.46,23.98,21.89
		c-11.89-0.84-19.85,6.37-28.7,11.89c-12.13,7.57-24.61,14.58-37.05,21.63c-2.77,1.57-3.97,3.17-3.96,6.53
		c0.12,35,0.02,69.99,0.04,104.99c0.01,11.86,5.69,17.44,17.55,17.2c8.31-0.17,16.62-0.6,24.93-0.95
		c7.52-0.31,11.48-3.63,12.32-11.04c0.95-8.42,1.57-16.88,2.09-25.34c0.58-9.44,0.89-18.89,1.32-28.34
		c0.49-0.23,0.98-0.46,1.47-0.69c0.77,1.4,2.15,2.77,2.21,4.2c0.56,13.13,0.96,26.27,1.24,39.42c0.14,6.33,0.93,12.11,8.09,14.18
		c-1.1,11-7.06,17.67-18.12,18.61c-12.24,1.04-24.58,1-36.88,1.38c-1.83,0.06-3.66-0.16-5.49-0.21
		c-14.76-0.41-22.19-7.19-23.85-22.06c-0.57-5.11-0.92-10.28-0.92-15.42c-0.06-70.83-0.04-141.65-0.04-212.48
		C259.93,83.35,259.93,81.53,259.93,79.18z M224.12,148.07c-12.38,0-24.01-0.1-35.63,0.15c-1.17,0.02-2.82,1.89-3.34,3.25
		c-2.24,5.9-3.86,12.05-6.24,17.88c-4.26,10.42-8.91,20.68-13.48,31.18c17.3,11.12,33.14,23.47,40.23,44.46
		C215.81,213.28,220.98,181.26,224.12,148.07z"/>
	<path class="st1" d="M55.73,91.2c1.32-1.41,2.44-2.61,4.07-4.34c3.3,3.96,6.59,7.62,9.55,11.54c1.98,2.62,4.19,3.7,7.56,3.62
		c10.16-0.23,20.33-0.26,30.49,0.01c3.85,0.1,6.6-0.91,8.87-4.05c2.03-2.82,4.49-5.33,7.17-8.44c6.1,5.82,12.01,11.46,18.06,17.23
		c-0.73,0.95-1.05,1.81-1.51,1.9c-7.25,1.42-8.11,6.18-8.06,12.74c0.32,40.99,0.17,81.98,0.29,122.97
		c0.03,8.31,0.6,16.62,0.89,24.94c0.36,10.59-3.56,14.53-15,14.64c0-8.38,0-16.78,0-25.52c-14.44,0-28.35,0-43.03,0
		c0,5.85-0.33,11.79,0.07,17.69c0.79,11.57-3.22,16.63-16.01,18.66c0.49-8.64,1.34-17.21,1.4-25.79c0.26-38.65,0.3-77.31,0.4-115.97
		c0.04-14.16-0.16-28.33,0.08-42.49C61.12,103.52,60.33,96.94,55.73,91.2z M117.6,251.73c0-48.13,0-95.69,0-143.36
		c-14.24,0-28.15,0-42.11,0c0,47.98,0,95.66,0,143.36C89.7,251.73,103.49,251.73,117.6,251.73z"/>
	
	
</g>
</svg>
