<?xml version="1.0" encoding="utf-8"?>
<svg version="1.1" id="漢_ZDIC_典" xmlns="http://www.w3.org/2000/svg" xmlns:xlink="http://www.w3.org/1999/xlink" x="0px" y="0px"
	 viewBox="0 0 400 400" style="enable-background:new 0 0 400 400;" xml:space="preserve">
<style type="text/css">
	.st1{fill:#010104;}
	.st0{fill:#fbfcfa;}
</style>
<g>
	<path class="st0" d="M361.2,9.6l0.8-1c0.9,0.7,1.9,1.4,2.9,2.3L364,12C363,11,362,10.2,361.2,9.6z M361.7,20.2
		c0.9-2.1,1.6-4.3,2.3-6.7c0.4,0.2,0.8,0.4,1.3,0.6c-0.7,2.1-1.5,4.3-2.2,6.6L361.7,20.2z M362.1,5l0.9-0.9c1,0.8,2,1.6,2.8,2.4
		l-1,1C363.9,6.6,363,5.8,362.1,5z M374.6,3.8h1.2v1.4h2.7v1.1h-2.7v2.7h-1.2V8.4h-1.8v1.3h4.9v3.8h-1.2v-0.5h-3.7
		c0,0.4-0.1,0.9-0.1,1.2h5.1v1h-5.2c0,0.5-0.1,0.9-0.3,1.2h6v1h-5.2c1.1,1.3,2.9,2,5.5,2.2c-0.4,0.4-0.7,0.8-0.9,1.3
		c-2.9-0.5-4.8-1.6-5.7-3.5H372c-0.8,1.7-2.7,2.9-5.9,3.6c-0.2-0.4-0.6-0.8-0.9-1.1c2.8-0.6,4.6-1.4,5.4-2.5h-4.8v-1h5.3
		c0.1-0.3,0.2-0.7,0.2-1.2h-4.9v-1h5c0-0.4,0-0.8,0.1-1.2H368v0.5h-1.2V9.7h4.9V8.4h-1.8v0.5h-1.2V6.2H366V5.2h2.6V3.8h1.2v1.4h4.7
		V3.8z M368,12.1h3.6c0-0.4,0-0.9,0-1.4H368V12.1z M369.9,7.5h4.7V6.2h-4.7V7.5z M376.5,10.7h-3.7c0,0.5,0,1,0,1.4h3.7V10.7z"/>
	<path class="st0" d="M385.3,3.8h1.3V6h2.8V3.8h1.3V6h4.1v9.1h1.7v1.3h-16.9v-1.3h1.7V6h4.1V3.8z M385.7,16.9l0.7,1.2
		c-1.8,0.9-3.8,1.9-6,2.9c-0.2-0.4-0.5-0.8-0.8-1.3C381.9,18.7,383.9,17.8,385.7,16.9z M382.6,10.5h2.8V7.3h-2.8V10.5z M382.6,15.1
		h2.8v-3.3h-2.8V15.1z M386.6,10.5h2.8V7.3h-2.8V10.5z M386.6,15.1h2.8v-3.3h-2.8V15.1z M390.3,17c2.1,0.9,4.1,1.8,6.1,2.7l-0.7,1.3
		c-2.2-1.1-4.2-2-6.1-2.9L390.3,17z M393.5,7.3h-2.8v3.2h2.8V7.3z M390.7,15.1h2.8v-3.3h-2.8V15.1z"/>
	
	<path class="st1" d="M109.41,325.85c0,4.1,0.01,7.75,0,11.39c-0.03,8.36-1.22,10-9.18,12.51c-1.71,0.54-3.47,0.91-5.53,1.44
		c0.51-14.31,1.02-28.23,1.49-42.15c0.18-5.15,0.38-10.3,0.39-15.46c0.04-22.33-0.06-44.66,0.07-66.99
		c0.04-6.85-0.73-13.28-6.09-18.54c1.2-1.29,2.17-2.33,3.32-3.56c0.99,0.66,1.95,1.06,2.57,1.75c6.35,7.15,14.24,8.6,23.63,8.53
		c53.65-0.42,107.31-0.26,160.97-0.11c5.18,0.01,9.36-0.64,12.21-5.5c1.32-2.25,3.41-4.06,5.27-6.21
		c5.61,5.35,11.12,10.6,17.41,16.61c-2.79,1.35-4.84,2.58-7.04,3.34c-2.59,0.89-3.54,2.33-3.53,5.14
		c0.11,23.16-0.12,46.33,0.14,69.49c0.14,12.63,1.15,25.25,1.54,37.88c0.3,9.56-3.98,13.17-14.34,12.1c0-7.04,0-14.14,0-21.68
		C231.52,325.85,170.83,325.85,109.41,325.85z M109.59,320.14c61.24,0,121.93,0,182.64,0c0-33.7,0-66.94,0-100.28
		c-61.06,0-121.76,0-182.64,0C109.59,253.44,109.59,286.56,109.59,320.14z"/>
	<path class="st1" d="M58.96,207.99c24.36-9.32,48.06-19.04,61.24-44.99c-6.16,0-11.39,0-16.61,0c-7.5,0-15-0.05-22.5,0.03
		c-2.14,0.02-4.72-0.25-6.34,0.79c-7.54,4.85-11.25-0.88-16.45-5.58c2.39-0.11,3.96-0.23,5.52-0.24c17.83-0.01,35.67-0.14,53.5,0.1
		c3.73,0.05,5.15-1.39,5.47-4.62c0.58-5.91,1.05-11.84,1.63-18.47c-12.08,0-23.34-0.09-34.6,0.13c-1.24,0.02-2.63,1.7-3.64,2.88
		c-4,4.65-7.88,9.4-11.98,14.34c-1.67-1.12-2.86-1.91-3.81-2.54c4.74-8.79,9.7-17.25,13.85-26.1c1.29-2.75,0.38-6.53,0.45-9.84
		c0.02-0.9-0.42-2.08,0-2.61c0.41-0.52,1.85-0.77,2.52-0.45c5.77,2.77,11.47,5.69,18.69,9.32c-6.36,2.16-11.91,3.15-13.42,9.63
		c1.65,0.07,3.23,0.2,4.81,0.21c18.33,0.01,36.67-0.18,55,0.13c5.12,0.09,9.05-0.77,11.54-5.54c0.44-0.83,1.31-1.44,2.31-2.51
		c5.38,3.95,10.65,7.82,15.92,11.68c-0.11,0.35-0.22,0.7-0.33,1.05c-15.01,0-30.02,0-45.22,0c-0.49,7.95-0.95,15.33-1.43,23.18
		c11.93,0,23.9,0.08,35.85-0.11c1.32-0.02,2.88-1.33,3.86-2.46c2.06-2.37,3.81-5.01,6.04-8.01c6.57,4.65,12.98,9.19,19.39,13.73
		c-0.1,0.46-0.2,0.93-0.31,1.39c-1.65,0.15-3.31,0.43-4.96,0.43c-17.83,0.03-35.67,0.02-53.5,0.02c-8.9,0-8.9,0-12.19,9.14
		c8.74,1.59,17.6,2.64,26.13,4.95c6.15,1.66,12.11,4.55,17.67,7.72c4.6,2.63,7.89,7.04,7.15,12.78c-0.29,2.26-2,5.42-3.83,6.09
		c-1.78,0.65-5.63-0.64-6.69-2.29c-9.56-14.9-24.7-20.02-40.61-23.85c-1.41-0.34-3.81,0.27-4.66,1.32
		c-10.6,13.01-24.9,20.32-40.12,26.09c-6.65,2.52-13.68,4.02-20.44,6.28C60.78,212.25,59.55,211.22,58.96,207.99z"/>
	<path class="st1" d="M273.81,111.15c11.51,4.99,23.65,8.28,36.19,9.64c10.55,1.14,21.2,1.45,31.82,1.83c3.28,0.12,3.6,1.38,2.81,4.01
		c-3.63,0.5-7.31,0.65-10.76,1.59c-2.63,0.71-6.07,1.8-7.23,3.82c-2.41,4.18-5.69,3.45-8.95,2.87
		c-18.54-3.29-36.64-8.04-53.53-16.73c-1.46-0.75-3.96-0.68-5.46,0.06c-20.85,10.14-43.18,15.01-65.83,18.75
		c-4.63,0.76-4.8,0.54-6.24-3.63c22.25-5.34,44.32-11.19,65.42-22.19c-2.94-2.27-5.52-4.22-8.05-6.22
		c-10.16-8.01-18.73-17.45-25.68-28.37c-3.64-5.73-5.21-6.2-11.64-3.62c-1.07,0.43-2.08,1.01-3.52,1.72
		c-2.07-2.28-4.24-4.66-7.35-8.08c2.99,0,4.72,0,6.45,0c28.65,0,57.31-0.13,85.96,0.11c5.47,0.05,9.71-0.87,12.43-5.98
		c0.75-1.41,2.13-2.49,3.54-4.08c6.17,4.87,12.2,9.62,18.23,14.37c0.02,0.44,0.05,0.88,0.07,1.33
		c-12.64,0.4-16.59,11.65-24.28,18.24C290.27,97.39,282.22,104.07,273.81,111.15z M223.05,71.72
		c10.74,13.99,22.78,24.73,37.16,32.74c1.22,0.68,3.81,0.03,5.18-0.88c11.68-7.83,21.77-17.4,30.45-28.45
		c0.73-0.93,1.18-2.09,1.92-3.41C272.83,71.72,248.49,71.72,223.05,71.72z"/>
	<path class="st1" d="M189.34,96.43c-3.65,9.42-10.87,12.77-19.4,13.59c-8.6,0.83-17.26,1.23-25.9,1.33c-12.33,0.14-24.66-0.04-36.99-0.3
		c-14.78-0.31-22.99-8.79-23.12-23.61c-0.06-6.5-0.29-13.01,0.07-19.49c0.32-5.69-0.47-10.62-6.58-14.17
		c1.56-1.07,2.83-2.61,3.61-2.39c8.71,2.39,17.34,5.06,26.62,7.84c-4.37,3.01-9.41,4.74-11.11,8.14c-1.8,3.58-0.4,8.76-0.4,13.95
		c3.36-0.87,6.4-1.44,9.3-2.45c15.19-5.29,30.41-10.55,45.46-16.22c2.13-0.8,3.29-3.94,5.17-5.71c0.88-0.83,3.15-1.7,3.5-1.34
		c4.74,5.03,9.26,10.27,13.85,15.49c-0.9,0.7-1.23,1.1-1.38,1.04c-7.91-3.01-15.24,0.09-22.74,1.96
		c-17.53,4.36-35.1,8.53-52.77,12.8c-1.41,8.43,0.84,12.66,9.41,13.03c17.11,0.73,34.27,0.43,51.4,0.33
		c3.78-0.02,7.65-0.6,11.31-1.55c4.98-1.29,7.77-4.73,8.22-10.05c0.51-5.96,1.21-11.9,2-17.83c0.14-1.02,1.14-1.92,1.74-2.88
		c0.51,1.05,1.35,2.06,1.47,3.15c0.45,4.13,0.67,8.28,0.99,12.43C183.49,88.61,184.64,93.37,189.34,96.43z"/>
	<path class="st1" d="M249.33,131.23c3.34-2.55,19.18,0.57,26.01,4.42c-8.21,5.6-8.21,5.6-6.85,16.34c7.7,0,15.48,0.12,23.25-0.12
		c1.32-0.04,2.88-1.38,3.84-2.52c2.01-2.4,3.69-5.07,5.73-7.95c6.86,4.71,13.37,9.17,19.87,13.64c-0.1,0.46-0.21,0.91-0.31,1.37
		c-17.39,0-34.77,0-52.51,0c0,10.57,0,20.28,0,30.59c8.96,0,17.89,0,26.83,0c0.5,0,1-0.02,1.5,0c9.72,0.51,19.82,1.88,23.11-11.31
		c7.44,5.25,14.01,9.88,20.58,14.51c-0.15,0.47-0.3,0.94-0.46,1.41c-1.88,0.13-3.76,0.36-5.64,0.36
		c-39.81,0.02-79.62,0.01-119.43,0.04c-2.49,0-5.52-0.59-7.37,0.58c-7.48,4.74-11.78-0.03-16.96-5.33c22.05,0,43.48,0,65.19,0
		c0-10.24,0-19.84,0-30.26c-3.91,0-8-0.21-12.06,0.04c-9.34,0.59-19.02-2.08-27.98,2.87c-0.72,0.4-2.49-0.44-3.41-1.16
		c-2.35-1.84-4.5-3.93-7.46-6.59c17.4,0,34.06,0,50.9,0C256.43,144,257.15,136.53,249.33,131.23z"/>
	
	
	<path class="st1" d="M249.53,236.53c5.32,5.42,10.39,10.6,15.49,15.81c-0.49,0.6-0.75,1.26-1.1,1.31c-7.51,1.06-8.64,5.79-8,12.41
		c0.8,8.26,0.69,16.61,1.08,24.92c0.32,6.95-3.95,10.6-14,11.59c0-2.18,0-4.34,0-6.49c0-2.14,0-4.29,0-6.75
		c-28.04,0-55.76,0-83.47,0c-1.89,12.11-3.81,14.36-14.53,16.62c0-3.13-0.06-6.17,0.01-9.2c0.31-14.47,0.95-28.95,0.78-43.42
		c-0.04-3.81-2.55-7.59-4.36-12.55c0.77-1.8,2.69-2.59,5.28,0.02c6.64,6.71,14.77,7.55,23.76,7.35c20.82-0.46,41.66-0.31,62.48-0.02
		c4.65,0.06,7.9-1.14,10.56-4.86C245.16,240.99,247.25,239.06,249.53,236.53z M159.22,283.64c28.13,0,55.83,0,83.37,0
		c0-10.41,0-20.46,0-30.37c-27.99,0-55.57,0-83.37,0C159.22,263.46,159.22,273.39,159.22,283.64z"/>
	
</g>
</svg>
