<?xml version="1.0" encoding="utf-8"?>
<svg version="1.1" id="漢_ZDIC_典" xmlns="http://www.w3.org/2000/svg" xmlns:xlink="http://www.w3.org/1999/xlink" x="0px" y="0px"
	 viewBox="0 0 400 400" style="enable-background:new 0 0 400 400;" xml:space="preserve">
<style type="text/css">
	.st1{fill:#010104;}
	.st0{fill:#fbfcfa;}
</style>
<g>
	<path class="st0" d="M361.2,9.6l0.8-1c0.9,0.7,1.9,1.4,2.9,2.3L364,12C363,11,362,10.2,361.2,9.6z M361.7,20.2
		c0.9-2.1,1.6-4.3,2.3-6.7c0.4,0.2,0.8,0.4,1.3,0.6c-0.7,2.1-1.5,4.3-2.2,6.6L361.7,20.2z M362.1,5l0.9-0.9c1,0.8,2,1.6,2.8,2.4
		l-1,1C363.9,6.6,363,5.8,362.1,5z M374.6,3.8h1.2v1.4h2.7v1.1h-2.7v2.7h-1.2V8.4h-1.8v1.3h4.9v3.8h-1.2v-0.5h-3.7
		c0,0.4-0.1,0.9-0.1,1.2h5.1v1h-5.2c0,0.5-0.1,0.9-0.3,1.2h6v1h-5.2c1.1,1.3,2.9,2,5.5,2.2c-0.4,0.4-0.7,0.8-0.9,1.3
		c-2.9-0.5-4.8-1.6-5.7-3.5H372c-0.8,1.7-2.7,2.9-5.9,3.6c-0.2-0.4-0.6-0.8-0.9-1.1c2.8-0.6,4.6-1.4,5.4-2.5h-4.8v-1h5.3
		c0.1-0.3,0.2-0.7,0.2-1.2h-4.9v-1h5c0-0.4,0-0.8,0.1-1.2H368v0.5h-1.2V9.7h4.9V8.4h-1.8v0.5h-1.2V6.2H366V5.2h2.6V3.8h1.2v1.4h4.7
		V3.8z M368,12.1h3.6c0-0.4,0-0.9,0-1.4H368V12.1z M369.9,7.5h4.7V6.2h-4.7V7.5z M376.5,10.7h-3.7c0,0.5,0,1,0,1.4h3.7V10.7z"/>
	<path class="st0" d="M385.3,3.8h1.3V6h2.8V3.8h1.3V6h4.1v9.1h1.7v1.3h-16.9v-1.3h1.7V6h4.1V3.8z M385.7,16.9l0.7,1.2
		c-1.8,0.9-3.8,1.9-6,2.9c-0.2-0.4-0.5-0.8-0.8-1.3C381.9,18.7,383.9,17.8,385.7,16.9z M382.6,10.5h2.8V7.3h-2.8V10.5z M382.6,15.1
		h2.8v-3.3h-2.8V15.1z M386.6,10.5h2.8V7.3h-2.8V10.5z M386.6,15.1h2.8v-3.3h-2.8V15.1z M390.3,17c2.1,0.9,4.1,1.8,6.1,2.7l-0.7,1.3
		c-2.2-1.1-4.2-2-6.1-2.9L390.3,17z M393.5,7.3h-2.8v3.2h2.8V7.3z M390.7,15.1h2.8v-3.3h-2.8V15.1z"/>
	
	<path class="st1" d="M256.44,193.49c-2.79-13.81-15.32-13.24-24.52-18.21c0.12-1.08,0.28-2.46,0.45-3.92c0.88,0,1.35-0.05,1.81,0.01
		c9.47,1.27,18.9,3.07,28.41,3.67c6.62,0.41,11.02-4.08,12.32-10.34c2.66-12.8,4.74-25.73,6.98-38.62c0.36-2.08,0.28-4.25,0.44-7.01
		c-1.82,0-3.42,0-5.03,0c-36.16,0-72.32,0-108.48,0.01c-2.41,0-4.6-0.48-5.86,2.94c-14.34,38.91-43.67,61.15-82.1,72.98
		c-7.76,2.39-15.74,4.07-23.7,5.74c-1.46,0.31-3.27-1-4.91-1.56c1.22-1.14,2.24-2.86,3.68-3.34c18.44-6.18,36.89-12.39,53.38-23.03
		c23.77-15.33,37.25-37.91,44.5-64.63c2.25-8.28,3.89-16.73,6.02-25.99c-2.74,0-4.49,0-6.25,0c-21.16,0-42.33-0.17-63.49,0.12
		c-5.51,0.08-11,1.59-17.86,2.66c-1.46-1.7-4.04-4.7-7.2-8.36c2.14,0,4.15,0,6.15,0c78.16,0,156.31-0.07,234.46,0.14
		c5.79,0.02,9.87-1.29,12.82-6.27c1.26-2.12,3.07-3.92,5.01-6.35c7.59,5.6,15.08,11.13,22.57,16.66c-0.14,0.41-0.27,0.82-0.41,1.23
		c-56.99,0-113.99,0-170.97,0c-2.78,10.54-5.39,20.46-8.17,31c1.99,0,3.75,0,5.5,0c33.16,0,66.32-0.12,99.48,0.12
		c5.04,0.04,8.5-1.19,11.01-5.57c1.3-2.26,3.21-4.16,4.91-6.3c5.27,4,10.28,7.86,15.35,11.63c2.83,2.1,3.72,4.17-0.27,5.65
		c-6.89,2.55-6.54,8.55-7.47,14.22c-1.92,11.78-3.86,23.57-6.4,35.22c-2.5,11.49-9.67,19.04-21.2,22.19
		C263.93,191.12,260.48,192.26,256.44,193.49z"/>
	<path class="st1" d="M62.16,242.88c-2.08-2.2-4.92-5.19-8.34-8.79c67.53,0,134.53,0,201.4,0c2.93-15.54,1.16-24.02-7.51-34.61
		c1.64-0.63,3.3-1.93,4.26-1.53c9.21,3.81,18.3,7.9,27.41,11.95c0.57,0.25,0.98,0.83,1.31,1.11c-3.61,2.91-8.53,5.07-10.21,8.72
		c-1.76,3.81-0.39,9.06-0.39,14.19c11.81,0,23.16-0.71,34.37,0.21c9.65,0.79,16.76-1.58,21.34-10.32c0.37-0.7,1.1-1.21,1.87-2.04
		c7.61,5.64,15.13,11.22,22.66,16.8c-0.15,0.4-0.3,0.81-0.45,1.21c-26.35,0-52.71,0-79.8,0c0,2.35,0,4.11,0,5.87
		c0,23.67,0.04,47.33-0.04,71c-0.01,3.3-0.37,6.65-1,9.89c-1.22,6.19-4.27,11.2-10.46,13.6c-6.31,2.45-12.69,4.75-20.02,7.48
		c-0.58-12.86-10.33-15.13-19.34-18.17c-5.02-1.69-10.12-3.12-15.39-4.73c0.18-1.42,0.33-2.66,0.52-4.17
		c1.58,0.16,2.87,0.23,4.14,0.43c10.64,1.63,21.22,3.92,31.92,4.75c9.6,0.74,15.3-4.81,15.41-14.34
		c0.28-23.49,0.09-46.99,0.09-71.33c-1.91,0-3.65,0-5.4,0c-57.83,0-115.67-0.06-173.5,0.11C72.36,240.2,67.72,241.83,62.16,242.88z"
		/>
	<path class="st1" d="M123.96,260.19c18.18,7.35,34.85,16.6,43.84,35.55c0.49,1.04,0.84,2.18,1.1,3.31c1.33,5.81-0.54,10.31-5.05,11.39
		c-5.61,1.34-7.29-3.17-8.48-6.95c-5.24-16.62-15.91-28.9-29.86-38.75c-1.14-0.81-1.95-2.08-2.92-3.14
		C123.04,261.14,123.5,260.67,123.96,260.19z"/>
</g>
</svg>
