<?xml version="1.0" encoding="utf-8"?>
<svg version="1.1" id="漢_ZDIC_典" xmlns="http://www.w3.org/2000/svg" xmlns:xlink="http://www.w3.org/1999/xlink" x="0px" y="0px"
	 viewBox="0 0 400 400" style="enable-background:new 0 0 400 400;" xml:space="preserve">
<style type="text/css">
	.st1{fill:#010104;}
	.st0{fill:#fbfcfa;}
</style>
<g>
	<path class="st0" d="M361.2,9.6l0.8-1c0.9,0.7,1.9,1.4,2.9,2.3L364,12C363,11,362,10.2,361.2,9.6z M361.7,20.2
		c0.9-2.1,1.6-4.3,2.3-6.7c0.4,0.2,0.8,0.4,1.3,0.6c-0.7,2.1-1.5,4.3-2.2,6.6L361.7,20.2z M362.1,5l0.9-0.9c1,0.8,2,1.6,2.8,2.4
		l-1,1C363.9,6.6,363,5.8,362.1,5z M374.6,3.8h1.2v1.4h2.7v1.1h-2.7v2.7h-1.2V8.4h-1.8v1.3h4.9v3.8h-1.2v-0.5h-3.7
		c0,0.4-0.1,0.9-0.1,1.2h5.1v1h-5.2c0,0.5-0.1,0.9-0.3,1.2h6v1h-5.2c1.1,1.3,2.9,2,5.5,2.2c-0.4,0.4-0.7,0.8-0.9,1.3
		c-2.9-0.5-4.8-1.6-5.7-3.5H372c-0.8,1.7-2.7,2.9-5.9,3.6c-0.2-0.4-0.6-0.8-0.9-1.1c2.8-0.6,4.6-1.4,5.4-2.5h-4.8v-1h5.3
		c0.1-0.3,0.2-0.7,0.2-1.2h-4.9v-1h5c0-0.4,0-0.8,0.1-1.2H368v0.5h-1.2V9.7h4.9V8.4h-1.8v0.5h-1.2V6.2H366V5.2h2.6V3.8h1.2v1.4h4.7
		V3.8z M368,12.1h3.6c0-0.4,0-0.9,0-1.4H368V12.1z M369.9,7.5h4.7V6.2h-4.7V7.5z M376.5,10.7h-3.7c0,0.5,0,1,0,1.4h3.7V10.7z"/>
	<path class="st0" d="M385.3,3.8h1.3V6h2.8V3.8h1.3V6h4.1v9.1h1.7v1.3h-16.9v-1.3h1.7V6h4.1V3.8z M385.7,16.9l0.7,1.2
		c-1.8,0.9-3.8,1.9-6,2.9c-0.2-0.4-0.5-0.8-0.8-1.3C381.9,18.7,383.9,17.8,385.7,16.9z M382.6,10.5h2.8V7.3h-2.8V10.5z M382.6,15.1
		h2.8v-3.3h-2.8V15.1z M386.6,10.5h2.8V7.3h-2.8V10.5z M386.6,15.1h2.8v-3.3h-2.8V15.1z M390.3,17c2.1,0.9,4.1,1.8,6.1,2.7l-0.7,1.3
		c-2.2-1.1-4.2-2-6.1-2.9L390.3,17z M393.5,7.3h-2.8v3.2h2.8V7.3z M390.7,15.1h2.8v-3.3h-2.8V15.1z"/>
	
	<path class="st1" d="M129.33,350.8c0-33.24,0-66.47,0-100.39c-1.26,0-2.87,0-4.49,0c-17.33,0-34.66-0.07-51.99,0.06
		c-2.94,0.02-6.35,0.11-8.7,1.54c-4.71,2.86-7.53,1.13-10.27-2.54c-0.98-1.32-2.12-2.52-3.96-4.67c11.09,0,21.39,0,32.08,0
		c0-7.62,0-14.42,0-21.23c0-14.33-0.13-28.66,0.06-42.99c0.08-6.07-0.92-11.58-5.58-16.31c1.11-1.34,2.11-2.53,3.02-3.63
		c0.67,0.21,1.1,0.21,1.28,0.42c6.3,7.57,14.58,8.61,23.79,7.98c8.25-0.57,16.57-0.12,25.14-0.12c0-21.22,0-41.98,0-63.52
		c-7.24,0-14.6,0.75-21.74-0.18c-10.55-1.38-15.51,2.58-20.52,12.24c-8.52,16.43-19.95,31.34-30.19,46.87
		c-0.43,0.65-1.16,1.1-1.76,1.65c-0.49-0.16-0.97-0.33-1.46-0.49c0.42-1.7,0.46-3.63,1.32-5.08c14.08-24,26.34-48.84,34.75-75.44
		c2-6.32,3.8-12.71,5.53-19.12c1.39-5.11,2.11-10.22-2.73-14.24c3.87-1.98,22.91,6.41,27.27,11.8c-1.77,0.23-3.32,0.07-4.48,0.67
		c-2.55,1.32-6.17,2.47-7.12,4.67c-4.28,9.84-7.77,20.02-11.74,30.59c2.05,0.09,3.81,0.24,5.57,0.25
		c17.83,0.02,35.67-0.26,53.49,0.17c5.79,0.14,9.93-1.19,12.78-6.25c0.64-1.14,1.61-2.11,2.77-3.59c6.5,4.67,12.97,9.31,19.44,13.96
		c-0.13,0.45-0.27,0.9-0.4,1.35c-15.69,0-31.37,0-47.28,0c0,21.52,0,42.28,0,63.69c5.69,0,11.32,0.31,16.88-0.19
		c1.65-0.15,3.2-2.46,4.59-3.97c1.44-1.57,2.62-3.36,4.26-5.5c6.62,4.74,12.98,9.3,19.34,13.85c-0.18,0.51-0.36,1.03-0.54,1.54
		c-14.68,0-29.37,0-44.4,0c0,23.62,0,46.5,0,69.93c9.22,0,18.36,0.19,27.47-0.18c1.63-0.07,3.3-2.32,4.71-3.8
		c1.48-1.55,2.67-3.37,4.38-5.59c6.71,4.73,13.29,9.38,19.87,14.02c-0.04,0.33-0.08,0.67-0.13,1c-18.63,0-37.26,0-56.25,0
		c-0.18,2.14-0.4,3.56-0.39,4.97c0.11,27.32,0.23,54.65,0.38,81.97C143.45,345.34,138.58,350.16,129.33,350.8z M129.61,244.34
		c0-23.32,0-46.17,0-69.01c-11.63,0-22.87,0-34.32,0c0,23.09,0,45.93,0,69.01C106.83,244.34,118.07,244.34,129.61,244.34z"/>
	<path class="st1" d="M216.8,350.21c0.54-14.58,1.1-28.68,1.57-42.78c0.18-5.32,0.2-10.64,0.21-15.97c0.03-16.48-0.04-32.97,0.03-49.45
		c0.03-6.5-1.17-12.54-5.64-17.55c1.68-3.76,3.84-3.96,6.22-0.89c6.07,7.83,14.01,9.65,23.66,9.21c15.95-0.72,31.96-0.32,47.94-0.11
		c4.28,0.05,7.66-0.6,10.35-4.32c2.1-2.91,4.91-5.29,7.64-8.15c6.25,5.82,12.19,11.34,18.9,17.59c-2.84,1.32-5.03,2.48-7.33,3.37
		c-2.76,1.07-4.1,2.59-4.02,5.88c0.67,26.26,1.13,52.53,1.66,78.8c0.01,0.67,0.02,1.33,0.03,2c0.25,11.02-2.33,13.9-14.35,15.18
		c0-6.57,0-13.09,0-19.75c-24.39,0-47.98,0-72.27,0c0,4.13,0,8.08,0,12.03C231.4,346.06,228.28,349.35,216.8,350.21z M231.87,238.6
		c0,26.39,0,52.23,0,78.03c24.04,0,47.61,0,71.26,0c0-26.17,0-52.02,0-78.03C279.21,238.6,255.75,238.6,231.87,238.6z"/>
	<path class="st1" d="M327.21,134.05c-2.89,0.96-5.87,1.3-8,2.83c-2.74,1.97-5.38,4.55-7.05,7.45c-8.74,15.28-17.17,30.73-25.69,46.14
		c-0.22,0.4-0.28,0.9-0.63,2.12c7.39,0,14.54-0.61,21.54,0.16c8.36,0.91,14.48-1.48,18.65-8.82c0.64-1.13,1.68-2.03,2.9-3.48
		c7.47,5.5,14.86,10.94,22.26,16.38c-0.1,0.41-0.19,0.83-0.29,1.24c-2.03,0.11-4.06,0.32-6.08,0.32
		c-43.81,0.02-87.62-0.08-131.43,0.13c-5.98,0.03-11.95,1.58-19.41,2.64c-1.53-1.73-4.24-4.8-7.36-8.33
		c1.82-0.08,3.53-0.23,5.24-0.23c27.32-0.01,54.64-0.09,81.96,0.09c3.74,0.02,5.66-1.08,7.04-4.54
		c6.35-15.87,12.87-31.67,19.44-47.45c2.24-5.38,2.6-10.56-0.46-15.73c-1.65-2.78-0.31-4.9,2.33-3.83
		c8.13,3.29,15.97,7.29,23.9,11.08C326.52,132.44,326.71,133.23,327.21,134.05z"/>
	<path class="st1" d="M209.44,115.62c-2.25-2.38-5.17-5.45-8.24-8.69c1.58,0,3.34,0,5.1,0c31.33,0,62.66-0.1,93.99,0.1
		c4.74,0.03,8.3-0.81,10.83-5.11c1.41-2.41,3.48-4.43,5.68-7.15c7.75,5.65,15.37,11.19,22.99,16.74c-0.18,0.52-0.37,1.03-0.55,1.55
		c-2.42,0-4.83,0-7.25,0c-35.66,0-71.33-0.09-106.99,0.11C220.02,113.2,215.05,114.7,209.44,115.62z"/>
	<path class="st1" d="M217.4,121.65c13.34,13.7,26.63,27.52,29.99,47.47c0.6,3.58-0.77,7.81-2.26,11.3c-0.72,1.68-4.1,3.51-5.8,3.14
		c-1.77-0.39-3.79-3.17-4.27-5.24c-1.26-5.46-1.41-11.18-2.62-16.66c-2.81-12.68-9.12-23.81-16.32-34.44
		C214.56,124.91,213.88,123.16,217.4,121.65z"/>
	<path class="st1" d="M229.31,54.24c1.7-0.88,3.38-2.44,4.2-2.07C247.5,58.34,261.75,64.2,271,77.41c3,4.28,4.53,9.23,2.96,14.16
		c-0.81,2.54-3.55,5.62-5.92,6.14c-1.91,0.42-6.3-2.32-6.66-4.21c-3.34-17.79-16.61-27.33-29.72-37.1
		C231.13,56.01,230.68,55.51,229.31,54.24z"/>
	
	
</g>
</svg>
