<?xml version="1.0" encoding="utf-8"?>
<svg version="1.1" id="漢_ZDIC_典" xmlns="http://www.w3.org/2000/svg" xmlns:xlink="http://www.w3.org/1999/xlink" x="0px" y="0px"
	 viewBox="0 0 400 400" style="enable-background:new 0 0 400 400;" xml:space="preserve">
<style type="text/css">
	.st1{fill:#010104;}
	.st0{fill:#fbfcfa;}
</style>
<g>
	<path class="st0" d="M361.2,9.6l0.8-1c0.9,0.7,1.9,1.4,2.9,2.3L364,12C363,11,362,10.2,361.2,9.6z M361.7,20.2
		c0.9-2.1,1.6-4.3,2.3-6.7c0.4,0.2,0.8,0.4,1.3,0.6c-0.7,2.1-1.5,4.3-2.2,6.6L361.7,20.2z M362.1,5l0.9-0.9c1,0.8,2,1.6,2.8,2.4
		l-1,1C363.9,6.6,363,5.8,362.1,5z M374.6,3.8h1.2v1.4h2.7v1.1h-2.7v2.7h-1.2V8.4h-1.8v1.3h4.9v3.8h-1.2v-0.5h-3.7
		c0,0.4-0.1,0.9-0.1,1.2h5.1v1h-5.2c0,0.5-0.1,0.9-0.3,1.2h6v1h-5.2c1.1,1.3,2.9,2,5.5,2.2c-0.4,0.4-0.7,0.8-0.9,1.3
		c-2.9-0.5-4.8-1.6-5.7-3.5H372c-0.8,1.7-2.7,2.9-5.9,3.6c-0.2-0.4-0.6-0.8-0.9-1.1c2.8-0.6,4.6-1.4,5.4-2.5h-4.8v-1h5.3
		c0.1-0.3,0.2-0.7,0.2-1.2h-4.9v-1h5c0-0.4,0-0.8,0.1-1.2H368v0.5h-1.2V9.7h4.9V8.4h-1.8v0.5h-1.2V6.2H366V5.2h2.6V3.8h1.2v1.4h4.7
		V3.8z M368,12.1h3.6c0-0.4,0-0.9,0-1.4H368V12.1z M369.9,7.5h4.7V6.2h-4.7V7.5z M376.5,10.7h-3.7c0,0.5,0,1,0,1.4h3.7V10.7z"/>
	<path class="st0" d="M385.3,3.8h1.3V6h2.8V3.8h1.3V6h4.1v9.1h1.7v1.3h-16.9v-1.3h1.7V6h4.1V3.8z M385.7,16.9l0.7,1.2
		c-1.8,0.9-3.8,1.9-6,2.9c-0.2-0.4-0.5-0.8-0.8-1.3C381.9,18.7,383.9,17.8,385.7,16.9z M382.6,10.5h2.8V7.3h-2.8V10.5z M382.6,15.1
		h2.8v-3.3h-2.8V15.1z M386.6,10.5h2.8V7.3h-2.8V10.5z M386.6,15.1h2.8v-3.3h-2.8V15.1z M390.3,17c2.1,0.9,4.1,1.8,6.1,2.7l-0.7,1.3
		c-2.2-1.1-4.2-2-6.1-2.9L390.3,17z M393.5,7.3h-2.8v3.2h2.8V7.3z M390.7,15.1h2.8v-3.3h-2.8V15.1z"/>
	
	<path class="st1" d="M184,316.82c0,6.57,0.02,12.72,0,18.88c-0.03,9.52-4.59,14.24-14.59,15.08c0.49-14.08,1.36-28.16,1.41-42.25
		c0.2-56.33,0.24-112.66-0.03-168.98c-0.02-3.83-3.04-7.65-4.99-12.21c0.32-0.34,1.52-1.66,2.83-3.08c0.81,0.59,1.64,0.94,2.11,1.57
		c6.11,8.13,14.26,10.1,24.08,9.26c8.93-0.76,17.99-0.04,26.98-0.28c1.54-0.04,3.9-1.28,4.42-2.56
		c6.67-16.65,13.08-33.4,19.53-50.14c0.16-0.43,0.02-0.97,0.02-1.79c-1.26-0.09-2.52-0.25-3.78-0.25c-21-0.02-42-0.05-63,0.04
		c-2.62,0.01-5.74-0.04-7.75,1.28c-4.78,3.15-7.52,0.8-10.44-2.53c-1.2-1.37-2.72-2.44-3.77-4.94c1.68,0,3.37,0,5.05,0
		c50.16,0,100.33-0.07,150.49,0.11c4.98,0.02,8.55-1.07,11.16-5.44c1.43-2.39,3.51-4.38,5.53-6.84
		c7.65,5.67,15.12,11.19,22.58,16.72c-0.19,0.53-0.39,1.05-0.58,1.58c-2.08,0-4.16,0-6.24,0c-26.16,0-52.33,0-78.49,0
		c-2.31,0-4.26-0.16-5.72,2.63c-8.69,16.65-17.66,33.15-26.52,49.72c-0.3,0.56-0.4,1.22-0.82,2.52c2.12,0,3.86,0,5.59,0
		c22.17,0,44.33-0.15,66.49,0.12c4.64,0.06,7.9-1.06,10.51-4.88c1.77-2.59,4.07-4.81,5.76-6.78c5.93,5.45,11.74,10.78,18.84,17.31
		c-1.49,0.55-2.28,0.98-3.11,1.13c-6.91,1.19-7.73,5.64-7.69,11.89c0.31,51.99,0.23,103.99,0.35,155.98
		c0.02,6.31,0.7,12.62,0.82,18.94c0.24,12.11-1.07,13.62-13.77,16.26c0-9.29,0-18.49,0-28.09
		C272.69,316.82,228.65,316.82,184,316.82z M316.6,311.35c0-57,0-113.52,0-170.02c-44.3,0-88.2,0-132.3,0c0,56.76,0,113.27,0,170.02
		C228.5,311.35,272.41,311.35,316.6,311.35z"/>
	<path class="st1" d="M111.43,196.29c6.94,2.24,13.15,4.24,19.46,6.28c-0.5,0.98-0.55,1.23-0.66,1.27c-9.77,3.49-10.2,11.12-9.99,20.02
		c0.51,21.98-0.02,43.98,0.24,65.97c0.17,14.62,0.92,29.24,1.54,43.85c0.28,6.57-1.37,9.52-7.56,11.85
		c-2.77,1.04-5.69,1.72-8.52,2.55c0-48.17,0-96.13,0-145.44c-16.44,18.62-33.68,34.83-53.46,48.1c-3.11-2.69-3.05-2.64-0.07-5.82
		c14.79-15.79,29.83-31.36,44.25-47.49c15.3-17.12,26.44-37.08,36.83-57.39c1.62-3.16,1.2-7.63,0.88-11.43
		c-0.2-2.38,0.1-4.22,2.29-3.06c8.09,4.31,15.9,9.16,24.03,13.94c-1.09,1.21-1.28,1.63-1.5,1.63c-8.74,0.32-13.57,5.3-18.06,12.56
		c-8.29,13.41-17.91,25.99-26.98,38.91C113.4,193.66,112.61,194.68,111.43,196.29z"/>
	<path class="st1" d="M60.45,151.21c-3.43-3.4-0.43-4.82,1.16-6.41c13.01-13.08,26.72-25.54,38.89-39.35c9.61-10.9,17.4-23.42,25.89-35.3
		c2.87-4.02,3.43-8.62,2.03-13.32c-0.65-2.18-0.28-4.44,2.02-3.24c8.14,4.24,15.95,9.13,24.15,13.93c-1.16,1.23-1.36,1.62-1.57,1.63
		c-8.61,0.6-14.11,5.11-19.12,12.22C114.16,109.44,88.75,131.74,60.45,151.21z"/>
	
	<path class="st1" d="M277.09,171.71c4.27,3.36,8.23,6.39,12.08,9.54c2.26,1.85,3.72,3.7-0.37,5.35c-4.16,1.68-5.59,4.74-5.51,9.43
		c0.29,18.32-0.01,36.65,0.19,54.97c0.07,6.79,0.62,13.61,1.44,20.36c1.39,11.5-0.54,14.48-12.68,17.56c0-8.47,0-16.84,0-25.56
		c-16.54,0-32.59,0-49.23,0c0,4.11,0.01,8.22,0,12.32c-0.03,8.96-3.34,12.74-12.98,14.36c0-3.95-0.06-7.83,0.01-11.7
		c0.51-30.45,1.22-60.89,1.34-91.34c0.02-4.27-2.86-8.55-4.7-13.7c-0.06,0.07,0.77-0.92,1.68-2.01c0.71,0.37,1.45,0.53,1.82,0.98
		c6.33,7.91,14.64,9.64,24.36,8.87c8.77-0.69,17.66-0.47,26.47-0.02c5.32,0.27,9.34-1.06,12.38-5.45
		C274.29,174.33,275.61,173.26,277.09,171.71z M271.72,257.76c0-23.94,0-47.64,0-71.43c-16.32,0-32.36,0-48.35,0
		c0,24.03,0,47.73,0,71.43C239.66,257.76,255.58,257.76,271.72,257.76z"/>
	
</g>
</svg>
