<?xml version="1.0" encoding="utf-8"?>
<svg version="1.1" id="漢_ZDIC_典" xmlns="http://www.w3.org/2000/svg" xmlns:xlink="http://www.w3.org/1999/xlink" x="0px" y="0px"
	 viewBox="0 0 400 400" style="enable-background:new 0 0 400 400;" xml:space="preserve">
<style type="text/css">
	.st1{fill:#010104;}
	.st0{fill:#fbfcfa;}
</style>
<g>
	<path class="st0" d="M361.2,9.6l0.8-1c0.9,0.7,1.9,1.4,2.9,2.3L364,12C363,11,362,10.2,361.2,9.6z M361.7,20.2
		c0.9-2.1,1.6-4.3,2.3-6.7c0.4,0.2,0.8,0.4,1.3,0.6c-0.7,2.1-1.5,4.3-2.2,6.6L361.7,20.2z M362.1,5l0.9-0.9c1,0.8,2,1.6,2.8,2.4
		l-1,1C363.9,6.6,363,5.8,362.1,5z M374.6,3.8h1.2v1.4h2.7v1.1h-2.7v2.7h-1.2V8.4h-1.8v1.3h4.9v3.8h-1.2v-0.5h-3.7
		c0,0.4-0.1,0.9-0.1,1.2h5.1v1h-5.2c0,0.5-0.1,0.9-0.3,1.2h6v1h-5.2c1.1,1.3,2.9,2,5.5,2.2c-0.4,0.4-0.7,0.8-0.9,1.3
		c-2.9-0.5-4.8-1.6-5.7-3.5H372c-0.8,1.7-2.7,2.9-5.9,3.6c-0.2-0.4-0.6-0.8-0.9-1.1c2.8-0.6,4.6-1.4,5.4-2.5h-4.8v-1h5.3
		c0.1-0.3,0.2-0.7,0.2-1.2h-4.9v-1h5c0-0.4,0-0.8,0.1-1.2H368v0.5h-1.2V9.7h4.9V8.4h-1.8v0.5h-1.2V6.2H366V5.2h2.6V3.8h1.2v1.4h4.7
		V3.8z M368,12.1h3.6c0-0.4,0-0.9,0-1.4H368V12.1z M369.9,7.5h4.7V6.2h-4.7V7.5z M376.5,10.7h-3.7c0,0.5,0,1,0,1.4h3.7V10.7z"/>
	<path class="st0" d="M385.3,3.8h1.3V6h2.8V3.8h1.3V6h4.1v9.1h1.7v1.3h-16.9v-1.3h1.7V6h4.1V3.8z M385.7,16.9l0.7,1.2
		c-1.8,0.9-3.8,1.9-6,2.9c-0.2-0.4-0.5-0.8-0.8-1.3C381.9,18.7,383.9,17.8,385.7,16.9z M382.6,10.5h2.8V7.3h-2.8V10.5z M382.6,15.1
		h2.8v-3.3h-2.8V15.1z M386.6,10.5h2.8V7.3h-2.8V10.5z M386.6,15.1h2.8v-3.3h-2.8V15.1z M390.3,17c2.1,0.9,4.1,1.8,6.1,2.7l-0.7,1.3
		c-2.2-1.1-4.2-2-6.1-2.9L390.3,17z M393.5,7.3h-2.8v3.2h2.8V7.3z M390.7,15.1h2.8v-3.3h-2.8V15.1z"/>
	
	<path class="st1" d="M96.11,351.64c0-60.65,0-121.09,0-180.38c-7.96,39.39-21.25,78.09-43.89,113.09c-0.59-0.12-1.17-0.25-1.76-0.37
		c0.29-1.54,0.35-3.17,0.91-4.6c6.5-16.71,13.69-33.18,19.5-50.12c9.61-28.05,14.94-57.13,18.87-86.47c0.26-1.97,0.2-3.99,0.32-6.64
		c-10.62,0.61-21.33-2.36-31.87,3.66c-2.64-3.12-5.4-6.38-8.2-9.67c15.08,0,30.75,0,47,0c0-2.39,0-4.16,0-5.94
		c0-16.5-0.31-33.01,0.12-49.5c0.23-8.92-0.92-16.91-9.04-23.52c1.95-0.63,3.24-1.55,4.03-1.22c9,3.73,17.93,7.65,26.81,11.5
		c-0.28,0.94-0.3,1.43-0.46,1.48c-8.36,2.85-9.99,8.9-9.64,17.14c0.64,14.81,0.18,29.66,0.18,44.49c0,1.62,0,3.24,0,4.78
		c9.7,1.48,9.7,1.48,18.87-8.9c4.94,3.82,9.93,7.65,14.88,11.53c1.15,0.9,2.18,1.95,4.16,3.73c-13.08,0-25.09,0-37.9,0
		c0,5.3,0,10.05,0,14.8c0,6.67-0.22,13.35,0.14,19.99c0.1,1.9,1.45,4.32,2.99,5.46c4.81,3.55,10.17,6.34,14.97,9.91
		c8.38,6.23,14.62,14.23,16.36,24.74c0.55,3.31-0.55,7.26-2.03,10.38c-0.78,1.64-4.09,3.05-6.08,2.85
		c-1.63-0.16-3.72-2.63-4.33-4.49c-1.18-3.58-1.21-7.51-2.16-11.19c-2.96-11.55-10.32-20.08-19.86-28.45c0,2.78,0,4.54,0,6.3
		c0.06,49.5,0.02,99,0.26,148.49C109.31,343.71,108.75,348.6,96.11,351.64z"/>
	<path class="st1" d="M323.15,122.95c-0.96-7.03,3.82-12.27,5.01-19.03c-25.91,0-51.73,0-78.16,0c0,3.39-0.01,6.83,0,10.27
		c0.05,14.49,0.07,28.99,0.18,43.48c0.08,11.09-2.45,14.07-13.12,15.79c0-23.1,0-46.29,0-69.78c-23.48,0-47.39,0-71.18,0
		c-1.25,4.76-1.65,9.64-3.79,13.58c-2.43,4.48-6.08,8.48-9.85,12c-2.31,2.16-5.72,1.73-7.95-1.11c-2.36-3-1.88-5.94,0.94-8.38
		c8.98-7.79,13.9-17.61,15.13-29.41c0.13-1.28,1.54-2.44,2.35-3.65c0.77,1.29,2,2.51,2.21,3.88c0.36,2.4,0.1,4.9,0.1,7.66
		c24.58,0,48.49,0,72.69,0c0-8.77,0-17.37,0-26.01c-0.2-0.17-0.44-0.56-0.68-0.56c-17.47,0.11-34.93,0.24-52.4,0.38
		c-0.5,0-1.1-0.03-1.47,0.22c-7.33,5.09-11.59,0.23-16.53-5.71c2.55,0,4.42,0,6.29,0c37.49,0,74.98-0.12,112.47,0.14
		c5.34,0.04,8.78-1.51,11.41-5.97c1.5-2.54,3.57-4.73,5.58-7.32c7.81,5.79,15.3,11.34,22.79,16.9c-0.17,0.37-0.34,0.73-0.51,1.1
		c-24.67,0-49.33,0-74.33,0c0,9.14,0,17.85,0,27.16c1.9,0,3.69,0,5.48,0c20.99,0,41.99-0.17,62.98,0.12
		c5.18,0.07,8.98-0.98,11.61-5.64c0.95-1.68,2.56-2.98,4.13-4.76c6.38,5.72,12.5,11.19,18.61,16.66c-0.05,0.41-0.1,0.83-0.15,1.24
		C339.13,104.9,331.16,113.54,323.15,122.95z"/>
	<path class="st1" d="M320.08,272.19c-1.53-0.08-2.49-0.18-3.45-0.18c-7.98-0.01-15.95-0.01-24.29-0.01c-1.07,8.2-0.82,17.39-13.38,16.99
		c1.07-6.68,2.23-13.29,3.18-19.92c1.93-13.48,3.91-26.96,5.5-40.48c0.33-2.79-1.05-5.77-1.45-8.68c-0.17-1.26,0.12-2.58,0.23-4.33
		c1.3,0.66,1.72,0.73,1.85,0.96c5.31,9.77,14.42,8.9,23.42,8.47c2.49-0.12,4.99-0.02,7.9-0.02c0-13.53,0-26.91,0-41.06
		c-11.02,1.35-22.63-3.06-33.39,3.94c-3.05-2.63-6.15-5.3-10.3-8.88c11.39,0,21.47-0.31,31.52,0.1c7.31,0.3,13.95-0.15,17.91-7.59
		c4.25,4.16,8.06,7.89,11.8,11.55c-0.16,0.4-0.2,0.65-0.29,0.68c-7.36,1.98-7.22,7.64-6.86,13.59c0.51,8.29,0.65,16.61,1.22,24.89
		c0.69,10.04-0.79,12.07-10.88,13.52c-0.18-1.74-0.36-3.48-0.56-5.48c-7.3,0-14.59,0-22.63,0c-1.44,11.94-2.89,24.01-4.43,36.73
		c7.74,0,14.87,0.24,21.96-0.18c1.68-0.1,3.34-2.3,4.82-3.73c1.42-1.38,2.59-3.01,4.07-4.77c5.57,4.64,10.97,9.14,16.15,13.46
		c-0.61,1.28-0.7,1.79-0.89,1.83c-7.95,1.71-9,6.99-8.86,14.28c0.18,9.25-0.69,18.63-2.21,27.77
		c-2.78,16.78-12.72,27.76-29.41,32.67c-3.29-10.74-14.16-10.8-22.21-15.08c-1.39-0.74-2.43-2.13-3.63-3.22
		c0.34-0.43,0.67-0.86,1.01-1.3c7.98,1.27,15.97,2.44,23.93,3.82c8.51,1.48,13.79-1.36,16.77-9.49
		C320.17,306.77,319.7,289.76,320.08,272.19z"/>
	<path class="st1" d="M155.19,187.88c-3.04-2.63-6.14-5.3-10.3-8.88c11.39,0,21.47-0.3,31.52,0.1c7.31,0.3,13.95-0.14,17.91-7.59
		c4.24,4.16,8.05,7.89,11.79,11.56c-0.15,0.38-0.19,0.64-0.28,0.66c-7.34,1.98-7.23,7.63-6.86,13.58c0.52,8.29,0.66,16.6,1.22,24.89
		c0.69,10.04-0.79,12.08-10.88,13.54c-0.18-1.74-0.36-3.48-0.56-5.48c-7.28,0-14.56,0-22.38,0c-1.52,12.05-3.04,24.11-4.63,36.72
		c7.35,0,13.99,0.25,20.59-0.18c1.68-0.11,3.31-2.3,4.8-3.71c1.43-1.35,2.66-2.93,4.25-4.72c5.61,4.67,11.05,9.2,16.5,13.74
		c0.08,0.55,0.16,1.09,0.24,1.64c-11.27,0.74-10.05,8.14-10.2,15.41c-0.19,8.61-0.85,17.3-2.28,25.79
		c-2.85,16.87-12.31,28.43-29.54,33.23c-3.29-10.38-13.84-10.65-21.83-14.78c-1.45-0.75-2.62-2.05-3.92-3.1
		c0.31-0.51,0.62-1.02,0.93-1.53c7.8,1.19,15.62,2.25,23.38,3.61c9.39,1.64,14.48-1.13,17.68-10.26
		c5.62-16.01,4.89-32.73,5.76-49.73c-9.06,0-17.77,0-26.88,0c-0.74,8.26-0.95,17.26-13.33,17.05c1.48-9.01,3.13-18.1,4.45-27.24
		c1.63-11.34,3.14-22.7,4.36-34.09c0.27-2.5-1-5.13-1.39-7.73c-0.2-1.37-0.04-2.79-0.04-4.91c1.44,0.85,1.83,0.95,1.97,1.19
		c4.33,7.31,10.78,9.48,18.95,8.4c3.93-0.52,7.98-0.09,12.39-0.09c0-13.53,0-26.91,0-40.33
		C178.92,182.42,162.23,183.96,155.19,187.88z"/>
	<path class="st1" d="M207.6,328.81c7.69,1.19,15.4,2.25,23.05,3.6c9.49,1.67,14.2-0.94,17.56-10.28c5.81-16.1,5.06-32.9,5.83-49.87
		c-9.18,0-17.75,0-26.79,0c-0.02,8.81-1.69,16.43-13.06,16.28c1.71-10.39,3.58-20.93,5.14-31.52c1.37-9.37,2.61-18.76,3.44-28.19
		c0.28-3.16-0.94-6.44-1.37-9.68c-0.13-0.98,0.14-2.01,0.22-3.01c0.98,0.22,2.52,0.13,2.86,0.72c7.39,12.82,19.6,6.68,30.24,8.38
		c0-13.91,0-27.18,0-41.27c-11.06,1.21-22.63-2.89-33.59,3.84c-2.9-2.49-6.03-5.18-10.26-8.81c7.5,0,13.7,0,19.91,0
		c3.83,0,7.68-0.21,11.49,0.05c7.23,0.48,14.05,0.22,18.17-7.95c3.86,3.62,7.25,6.71,10.53,9.91c1.81,1.76,1.48,3.42-1.02,3.98
		c-4.61,1.05-5.24,4.1-5,8.19c0.58,9.95,0.75,19.93,1.32,29.88c0.53,9.37-1.33,11.64-11.09,12.51c-0.1-1.65-0.21-3.3-0.33-5.26
		c-7.42,0-14.81,0-22.46,0c-1.45,12.16-2.88,24.12-4.37,36.66c7.21,0,14.01,0.23,20.78-0.17c1.51-0.09,2.97-2.3,4.32-3.66
		c1.4-1.4,2.65-2.94,4.25-4.75c5.6,4.64,11.06,9.16,16.51,13.69c0.09,0.55,0.19,1.09,0.28,1.64c-11.61,0.86-10.05,8.57-10.22,15.92
		c-0.2,8.45-0.86,16.97-2.27,25.29c-2.87,16.87-12.28,28.48-29.54,33.23c-3.33-10.27-13.81-10.64-21.83-14.74
		c-1.46-0.75-2.63-2.05-3.94-3.1C206.76,329.83,207.18,329.32,207.6,328.81z"/>
	<path class="st1" d="M318.89,150.28c0,1.61,0,2.89,0,4.45c-16.53,0-32.9,0-49.66,0c-0.08-1.39-0.17-2.77-0.27-4.45
		C285.65,150.28,302.01,150.28,318.89,150.28z"/>
	<path class="st1" d="M220.96,151.31c0,1.49,0,2.78,0,4.37c-16.42,0-32.8,0-49.6,0c-0.13-1.26-0.27-2.64-0.44-4.37
		C187.6,151.31,203.97,151.31,220.96,151.31z"/>
	<path class="st1" d="M220.15,125.34c0,1.58,0,2.86,0,4.4c-15.74,0-31.26,0-46.99,0c0-1.51,0-2.79,0-4.4
		C188.65,125.34,204.16,125.34,220.15,125.34z"/>
	<path class="st1" d="M269.11,129.63c0-1.51,0-2.8,0-4.35c15.69,0,31.21,0,46.99,0c0.08,1.44,0.15,2.7,0.24,4.35
		C300.62,129.63,285.12,129.63,269.11,129.63z"/>
</g>
</svg>
