<?xml version="1.0" encoding="utf-8"?>
<svg version="1.1" id="漢_ZDIC_典" xmlns="http://www.w3.org/2000/svg" xmlns:xlink="http://www.w3.org/1999/xlink" x="0px" y="0px"
	 viewBox="0 0 400 400" style="enable-background:new 0 0 400 400;" xml:space="preserve">
<style type="text/css">
	.st1{fill:#010104;}
	.st0{fill:#fbfcfa;}
</style>
<g>
	<path class="st0" d="M361.2,9.6l0.8-1c0.9,0.7,1.9,1.4,2.9,2.3L364,12C363,11,362,10.2,361.2,9.6z M361.7,20.2
		c0.9-2.1,1.6-4.3,2.3-6.7c0.4,0.2,0.8,0.4,1.3,0.6c-0.7,2.1-1.5,4.3-2.2,6.6L361.7,20.2z M362.1,5l0.9-0.9c1,0.8,2,1.6,2.8,2.4
		l-1,1C363.9,6.6,363,5.8,362.1,5z M374.6,3.8h1.2v1.4h2.7v1.1h-2.7v2.7h-1.2V8.4h-1.8v1.3h4.9v3.8h-1.2v-0.5h-3.7
		c0,0.4-0.1,0.9-0.1,1.2h5.1v1h-5.2c0,0.5-0.1,0.9-0.3,1.2h6v1h-5.2c1.1,1.3,2.9,2,5.5,2.2c-0.4,0.4-0.7,0.8-0.9,1.3
		c-2.9-0.5-4.8-1.6-5.7-3.5H372c-0.8,1.7-2.7,2.9-5.9,3.6c-0.2-0.4-0.6-0.8-0.9-1.1c2.8-0.6,4.6-1.4,5.4-2.5h-4.8v-1h5.3
		c0.1-0.3,0.2-0.7,0.2-1.2h-4.9v-1h5c0-0.4,0-0.8,0.1-1.2H368v0.5h-1.2V9.7h4.9V8.4h-1.8v0.5h-1.2V6.2H366V5.2h2.6V3.8h1.2v1.4h4.7
		V3.8z M368,12.1h3.6c0-0.4,0-0.9,0-1.4H368V12.1z M369.9,7.5h4.7V6.2h-4.7V7.5z M376.5,10.7h-3.7c0,0.5,0,1,0,1.4h3.7V10.7z"/>
	<path class="st0" d="M385.3,3.8h1.3V6h2.8V3.8h1.3V6h4.1v9.1h1.7v1.3h-16.9v-1.3h1.7V6h4.1V3.8z M385.7,16.9l0.7,1.2
		c-1.8,0.9-3.8,1.9-6,2.9c-0.2-0.4-0.5-0.8-0.8-1.3C381.9,18.7,383.9,17.8,385.7,16.9z M382.6,10.5h2.8V7.3h-2.8V10.5z M382.6,15.1
		h2.8v-3.3h-2.8V15.1z M386.6,10.5h2.8V7.3h-2.8V10.5z M386.6,15.1h2.8v-3.3h-2.8V15.1z M390.3,17c2.1,0.9,4.1,1.8,6.1,2.7l-0.7,1.3
		c-2.2-1.1-4.2-2-6.1-2.9L390.3,17z M393.5,7.3h-2.8v3.2h2.8V7.3z M390.7,15.1h2.8v-3.3h-2.8V15.1z"/>
	
	<path class="st1" d="M167.35,351.79c3.78-64.58,1.61-128.78,1.44-193.1c-6.05,9.78-11.67,19.86-18.27,29.26c-6.57,9.35-14.12,18.02-21.25,26.99
		c-0.75-0.26-1.49-0.52-2.24-0.78c0.22-1.57-0.02-3.43,0.74-4.67c4.09-6.65,8.45-13.15,12.68-19.72c0.6-0.93,1-1.98,1.71-3.42
		c-12.39,0-24.25,0-36.44,0c0,30.09,0,59.99,0,90.66c16.76-6.99,33.07-13.79,49.66-20.71c0.68,1.53,1.25,2.81,2,4.51
		c-23.87,12.77-47.46,25.41-71.07,38c-8.84,4.71-17.89,9.14-21.84,20.09c-6.08-5.79-11.68-11.13-17.89-17.05
		c6.42-2.78,12.26-5.37,18.14-7.85c8.11-3.42,16.31-6.62,24.33-10.25c1.53-0.69,3.37-2.92,3.38-4.44
		c0.19-30.16,0.14-60.32,0.11-90.48c0-0.8-0.29-1.59-0.53-2.88c-9.58,1.07-19.34-2.09-28.53,2.73c-0.73,0.38-2.23,0.04-2.98-0.5
		c-2.79-2.04-5.41-4.31-8.09-6.49c0.37-0.52,0.73-1.04,1.1-1.56c12.72,0,25.44,0,38.62,0c0-27.14,0-53.82,0-81.15
		c-12.03,1.16-24.28-2.58-36.08,3.65c-2.73-2.88-5.53-5.84-9.19-9.7c2.84,0,4.58,0,6.31,0c22.33,0,44.66-0.11,66.99,0.1
		c4.39,0.04,7.6-0.82,9.91-4.79c1.49-2.55,3.63-4.71,5.81-7.47c7.42,5.74,14.64,11.33,21.86,16.92c-0.19,0.43-0.38,0.86-0.57,1.29
		c-17.04,0-34.08,0-51.44,0c0,27.13,0,53.72,0,80.86c5.44,0,11.35,1.49,15.77-0.43c4.21-1.83,6.86-7.23,10.48-11.4
		c4.58,4.02,9.06,7.94,13.96,12.23c0.91-1.41,1.75-2.54,2.41-3.77c17.81-33.49,29.99-69.12,40.19-105.52
		c1.75-6.25,0.58-11.74-2.75-17.09c-0.65-1.04-0.46-2.61-0.66-3.93c1.21,0.19,2.55,0.09,3.59,0.6c7.76,3.81,15.5,7.67,23.16,11.67
		c1.64,0.86,2.97,2.33,5.23,4.16c-2.33,0.5-3.53,0.74-4.73,1.02c-5.98,1.41-9.75,4.3-11.98,10.84
		c-7.87,23.07-16.68,45.82-25.37,69.35c5.68,2.73,12.41,5.97,19.14,9.21c0.24,0.44,0.49,0.88,0.73,1.32
		c-13.59,1.38-12.71,10.46-12.64,19.88c0.29,34.83,0.04,69.65,0.14,104.48c0.05,16.65-0.04,33.31,0.79,49.93
		C183.79,343.49,180.68,349,167.35,351.79z"/>
	<path class="st1" d="M231.52,213.51c-11.69,20.38-24.75,39.74-41.48,56.62c-3.59-1.62-3.52-3.56-1.46-6.49c14.39-20.45,27.09-41.9,37.64-64.59
		c4.91-10.55,9.88-21.1,14.18-31.91c4.42-11.09,8.08-22.48,12.03-33.76c0.65-1.85,1.09-3.78,1.88-6.55
		c-13.03,1.42-25.78-2.49-38.56,3.86c-2.51-2.88-5.31-6.08-8.36-9.58c16.05,0,32.09,0,48.61,0c3.02-12.25,6.06-24.11,8.82-36.03
		c1.23-5.32,1.94-10.77,2.8-16.18c0.95-6.04-0.13-11.61-4.77-16.7c1.34-0.8,2.61-2.15,3.34-1.9c9.67,3.29,19.26,6.81,30.24,10.76
		c-2.45,1.32-3.46,2.22-4.59,2.41c-5.96,1.01-8.12,4.79-9.44,10.43c-3.36,14.36-7.45,28.55-11.24,42.81
		c-0.33,1.26-0.58,2.54-0.95,4.2c15.45,0,30.59,0.06,45.74-0.11c1.32-0.02,2.88-1.4,3.89-2.55c3.17-3.62,6.12-7.43,9.39-11.44
		c8.26,6.2,16.3,12.25,24.35,18.29c-0.26,0.56-0.52,1.11-0.79,1.67c-1.91,0.1-3.81,0.27-5.72,0.28
		c-24.83,0.02-49.66,0.08-74.49-0.06c-3.36-0.02-4.67,0.95-5.94,4.22c-8.34,21.51-17.01,42.89-25.7,64.27
		c-1.75,4.29,0.78,9.37,5.44,9.39c20.33,0.13,40.66,0.09,60.99-0.04c1.22-0.01,2.71-1.06,3.61-2.04c2.68-2.94,5.12-6.09,8.12-9.72
		c5.68,5.11,11.26,9.98,16.64,15.07c1.95,1.84,0.76,3.42-1.43,3.96c-6.27,1.54-7.08,5.74-7.01,11.55c0.31,26.16,0,52.33,0.2,78.49
		c0.07,9.46,0.77,18.93,1.52,28.37c0.78,9.9-2.83,14.09-14.36,15.31c0-9.62,0-19.19,0-29.08c-23.21,0-45.79,0-69.22,0
		c0,5.47,0,10.89,0,16.32c0,12.9-1.95,15.22-13.92,17.5c0.5-45.47,1.01-91.13,1.52-136.79C232.51,213.69,232.02,213.6,231.52,213.51
		z M245.75,311.15c23.08,0,45.77,0,68.5,0c0-33.52,0-66.61,0-99.88c-22.94,0-45.55,0-68.5,0
		C245.75,244.54,245.75,277.62,245.75,311.15z"/>
	
</g>
</svg>
