<?xml version="1.0" encoding="utf-8"?>
<!-- Generator: Adobe Illustrator 22.0.0, SVG Export Plug-In . SVG Version: 6.00 Build 0)  -->
<svg version="1.1" id="漢-ZDIC-典" xmlns="http://www.w3.org/2000/svg" xmlns:xlink="http://www.w3.org/1999/xlink" x="0px" y="0px"
	 viewBox="0 0 400 400" style="enable-background:new 0 0 400 400;" xml:space="preserve">
<style type="text/css">
	.st1{fill:#010100;}
	.st2{fill:#fafafb;}
</style>
<g>
	
	<path class="st1" d="M200.93,237c-1.8-1.91-4.36-4.64-7.8-8.3c14.57,0,27.94,0,41.58,0c0-30.7,0-60.79,0-91.54
		c-8.85,0.71-18.12-2.77-26.26,3.89c-2.91-3.17-5.67-6.18-9.19-10.02c12.45,0,23.81,0,35.74,0c0-4.14,0-7.75,0-11.37
		c0-16.83-0.14-33.66,0.09-50.49c0.07-4.83-1.33-8.72-4.27-12.37c-0.83-1.03-0.91-2.66-1.33-4.02c1.49,0.07,3.15-0.27,4.43,0.28
		c7.44,3.21,14.79,6.63,22.16,9.97c-0.35,0.81-0.42,1.3-0.62,1.37c-6.15,2.07-7.81,6.26-7.61,12.66
		c0.49,15.98,0.16,31.99,0.16,47.99c0,1.79,0,3.58,0,5.62c12.42,0,24.34,0,37,0c0-1.79,0-3.54,0-5.3c0-18.5-0.15-37,0.1-55.49
		c0.07-5.17-1.26-9.41-4.51-13.3c-0.79-0.95-0.92-2.45-1.36-3.69c1.31-0.04,2.81-0.52,3.91-0.05c7.62,3.25,15.16,6.7,22.63,10.05
		c-0.12,0.74-0.09,1.25-0.22,1.3c-6.8,2.49-7.85,7.6-7.69,14.24c0.42,17.29,0.14,34.59,0.14,51.8c11.24,2.52,20.45,1.05,25.18-11.61
		c7.55,6.07,14.32,11.53,21.1,16.98c-0.07,0.35-0.15,0.7-0.22,1.05c-15.12,0-30.23,0-45.7,0c0,30.94,0,61.15,0,91.92
		c6.87,0,13.67,0.14,20.46-0.12c1.31-0.05,2.84-1.48,3.79-2.65c2.4-2.96,4.54-6.13,7.13-9.71c7.14,5.7,14.05,11.22,20.96,16.73
		c-0.13,0.41-0.26,0.82-0.4,1.24c-2.06,0.12-4.11,0.34-6.17,0.34c-42.16,0.02-84.32-0.07-126.48,0.12
		C212.5,234.54,207.35,236.01,200.93,237z M284.79,137.44c-12.46,0-24.49,0-36.58,0c0,30.43,0,60.49,0,90.85
		c12.26,0,24.32,0,36.58,0C284.79,197.92,284.79,167.86,284.79,137.44z"/>
	<path class="st1" d="M72.93,348.56c0-15.39-0.01-30.51,0-45.63c0.02-34.32,0.18-68.63-0.08-102.95c-0.04-5.36-1.95-10.7-2.99-16.06
		c-0.61-0.05-1.22-0.11-1.83-0.16c1.23-1.26,2.45-2.53,3.93-4.06c3.48,4.07,6.29,7.77,9.57,11.01c1.46,1.44,3.84,2.74,5.82,2.75
		c21.99,0.19,43.98,0.2,65.97-0.01c2.07-0.02,4.53-1.54,6.09-3.09c2.54-2.54,4.48-5.68,6.75-8.67c5.65,5.35,10.93,10.34,16.07,15.21
		c-0.21,0.69-0.22,1.2-0.41,1.29c-7.06,3.05-7.98,8.62-7.91,15.73c0.36,34.15,0.2,68.3,0.11,102.45c-0.01,4.13-0.5,8.3-1.18,12.38
		c-1.88,11.34-10.22,15.53-20.9,17.97c-0.75-12.15-10.53-13.84-19.44-16.59c-4.28-1.32-8.61-2.48-12.8-4.04
		c-1.29-0.48-2.18-2.05-3.26-3.12c0.34-0.48,0.69-0.95,1.03-1.43c8.76,1.59,17.51,3.19,26.28,4.75c1.96,0.35,3.95,0.53,5.92,0.8
		c8.38,1.16,11.67-0.92,11.99-9.48c0.52-13.61,0.14-27.25,0.14-41.22c-25.16,0-50.07,0-75.79,0c0,1.62-0.01,3.36,0,5.11
		c0.13,16.82,0.26,33.64,0.41,50.46C86.51,342.93,83.34,346.73,72.93,348.56z M161.77,199.8c-25.44,0-50.47,0-75.49,0
		c0,11.15,0,21.91,0,32.76c25.3,0,50.31,0,75.49,0C161.77,221.56,161.77,210.94,161.77,199.8z M161.57,270.69
		c0-11.17,0-21.73,0-32.21c-25.37,0-50.37,0-75.22,0c0,10.98,0,21.55,0,32.21C111.58,270.69,136.46,270.69,161.57,270.69z"/>
	<path class="st1" d="M184.08,119.62c1.46,1.98,2.97,3.11,3.14,4.41c0.79,5.92,1.61,11.88,1.62,17.84c0.02,5.91,2.31,10.2,7.13,13.35
		c-3.56,9.74-10.1,15.34-20.41,15.58c-7.46,0.17-14.93-0.17-22.39-0.49c-6.76-0.29-10.81-4.38-12.24-10.57
		c-1.44-6.26-2.71-12.72-2.8-19.11c-0.33-22.48-0.23-44.96-0.06-67.44c0.05-5.92-0.84-11.21-5.17-15.59c-0.61-0.62-1-2.25-0.62-2.86
		c0.39-0.63,2.06-1.06,2.83-0.75c7.97,3.23,15.88,6.62,23.75,9.94c-0.18,0.71-0.19,1.22-0.34,1.27c-8.04,2.58-10.45,7.96-9.71,16.27
		c0.82,9.18,0.19,18.49,0.19,29.47c9.14-7.57,17.28-14.04,25.06-20.9c3.03-2.68,3.79-6.43,2.07-10.53
		c-0.51-1.22,0.12-2.92,0.31-5.52c8.13,7.53,15.12,14.01,23.25,21.54c-2.83,0.21-4.12,0.66-5.17,0.33
		c-5.8-1.83-10.71,0.1-15.57,3.07c-8.78,5.35-17.61,10.62-26.56,15.68c-2.48,1.4-3.58,2.85-3.45,5.76
		c0.49,10.62,0.7,21.26,1.13,31.88c0.16,4,2.39,6.6,6.38,7.09c4.92,0.6,9.9,1.22,14.83,1.08c4.94-0.15,8.44-2.7,9.04-8.16
		C181.45,142.04,182.67,131.85,184.08,119.62z"/>
	<path class="st1" d="M97.24,174.67c0-12.39,0-24.78,0-38.14c-12.29,8.29-27.63,11.94-33.42,28.37c-4.44-5.15-8.33-9.66-12.81-14.86
		c6.21-2.82,11.97-5.5,17.78-8.08c8.66-3.84,17.37-7.53,25.99-11.46c1.29-0.59,3.03-2.07,3.07-3.18c0.26-8.11,0.14-16.24,0.14-25.05
		c-12.03,1.3-23.98-2.61-35.59,3.86c-2.41-2.67-5.02-5.56-8.51-9.41c15.31,0,29.48,0,44.06,0c0-10.14,0.46-19.63-0.25-29.03
		c-0.24-3.24-3.55-6.18-5.15-9.41c-0.73-1.48-0.73-3.33-1.31-6.34c10.1,4.58,18.52,8.4,26.85,12.17c-0.14,0.77-0.12,1.32-0.27,1.37
		c-7.57,2.56-9.12,7.99-8.97,15.53c0.54,26.98,0.44,53.97,0.56,80.95C109.44,170.19,105.17,174.58,97.24,174.67z"/>
	<path class="st1" d="M236.58,250.25c7.07,5.14,13.29,9.57,19.39,14.16c0.94,0.71,1.37,2.12,2.03,3.2c-1.07,0.6-2.08,1.59-3.21,1.74
		c-4.04,0.51-6.34,2.83-8.38,6.23c-16.31,27.09-34.81,52.39-60.1,72.01c-1.3,1.01-2.61,1.99-3.86,2.94
		c-4.08-1.88-2.25-3.65-0.38-5.67c19.05-20.66,35.18-43.39,48.36-68.21c3.69-6.94,7.29-13.92,4.72-22.27
		C234.87,253.47,235.89,252.15,236.58,250.25z"/>
	<path class="st1" d="M286.61,257c20.76,18.34,41.03,37.21,52.18,63.37c2.5,5.87,2.59,12.86,3.2,19.39c0.19,2.01-1.14,4.57-2.54,6.24
		c-2.9,3.48-7.21,2.74-9.28-1.39c-0.89-1.76-1.59-3.7-1.93-5.64c-3.87-21.9-14.71-40.44-27.86-57.84
		c-4.71-6.24-9.63-12.33-14.72-18.27C283.49,260.32,283.4,258.68,286.61,257z"/>
	
	
	
	<path class="st2" d="M378.6,9.2l0.8-1c0.9,0.7,1.9,1.4,2.9,2.3l-0.9,1.1C380.3,10.7,379.4,9.9,378.6,9.2z M379.1,19.9
		c0.9-2.1,1.6-4.3,2.3-6.7c0.4,0.2,0.8,0.4,2.3,0.6c-0.7,2.1-1.5,4.3-2.2,6.6L379.1,19.9z M379.5,4.7l0.9-0.9c1,0.8,2,1.6,2.8,2.4
		l-1,1C381.2,6.3,380.3,5.4,379.5,4.7z M392,3.4h1.2v1.4h2.7v1.1h-2.7v2.7H392V8.1h-1.8v1.3h4.9v3.8h-1.2v-0.5h-3.7
		c0,0.4-0.1,0.9-0.1,1.2h5.1v1H390c0,0.5-0.1,0.9-0.2,1.2h6v1h-5.2c1.1,1.3,2.9,2,5.5,2.2c-0.4,0.4-0.7,0.8-0.9,1.3
		c-2.9-0.5-4.8-1.6-5.7-3.5h-0.1c-0.8,1.7-2.7,2.9-5.9,3.6c-0.2-0.4-0.6-0.8-0.9-1.1c2.8-0.6,4.6-1.4,5.4-2.5h-4.8v-1h5.3
		c0.1-0.3,0.2-0.7,0.2-1.2h-4.9v-1h5c0-0.4,0-0.8,0.1-1.2h-3.6v0.5h-1.2V9.4h4.9V8.1h-1.8v0.5H386V5.9h-2.6V4.8h2.6V3.4h1.2v1.4h4.7
		V3.4z M385.3,11.8h3.6c0-0.4,0-0.9,0-1.4h-3.6V11.8z M387.2,7.1h4.7V5.9h-4.7V7.1z M393.9,10.4h-3.7c0,0.5,0,1,0,1.4h3.7V10.4z"/>
	<path class="st2" d="M384.7,21.4h1.3v2.2h2.8v-2.2h1.3v2.2h4.1v9.1h1.7V34h-16.9v-1.3h1.7v-9.1h4.1V21.4z M385,34.6l0.7,1.2
		c-1.8,0.9-3.8,1.9-6,2.9c-0.2-0.4-0.5-0.8-0.8-1.3C381.3,36.4,383.3,35.4,385,34.6z M381.9,28.1h2.8v-3.2h-2.8V28.1z M381.9,32.7
		h2.8v-3.3h-2.8V32.7z M386,28.1h2.8v-3.2H386V28.1z M386,32.7h2.8v-3.3H386V32.7z M389.6,34.6c2.1,0.9,4.1,1.8,6.1,2.7l-0.7,1.3
		c-2.2-1.1-4.2-2-6.1-2.9L389.6,34.6z M392.9,24.9h-2.8v3.2h2.8V24.9z M390.1,32.7h2.8v-3.3h-2.8V32.7z"/>
</g>
</svg>
