<?xml version="1.0" encoding="utf-8"?>
<!-- Generator: Adobe Illustrator 22.0.0, SVG Export Plug-In . SVG Version: 6.00 Build 0)  -->
<svg version="1.1" id="漢-ZDIC-典" xmlns="http://www.w3.org/2000/svg" xmlns:xlink="http://www.w3.org/1999/xlink" x="0px" y="0px"
	 viewBox="0 0 400 400" style="enable-background:new 0 0 400 400;" xml:space="preserve">
<style type="text/css">
	.st1{fill:#010100;}
	.st2{fill:#fafafb;}
</style>
<g>
	
	<path class="st1" d="M233.33,328.12c8.19,1.76,16.27,3.52,24.35,5.22c1.46,0.31,2.95,0.5,4.44,0.58c8.99,0.47,12.5-2.22,12.65-11.14
		c0.32-17.81,0.09-35.63,0.09-53.91c-48.71,0-97.21,0-146.05,0c-0.14,1.3-0.42,2.57-0.39,3.84c0.5,21.62,0.96,43.24,1.61,64.86
		c0.17,5.62-1.85,9.8-6.82,12.21c-3.18,1.54-6.66,2.43-10.45,3.77c0.57-16.35,1.1-31.77,1.64-47.19c0.05-1.33,0.17-2.66,0.17-3.98
		c0.01-47.15,0.1-94.3-0.13-141.44c-0.02-4.89-1.95-9.77-3.56-14.56c1.33-2.91,3.74-3.15,5.75,0.04c5.48,8.68,13.42,9.83,23.05,9.72
		c41.31-0.49,82.63-0.31,123.95-0.08c4.94,0.03,8.12-1.23,10.44-5.56c1.3-2.44,3.34-4.48,5.28-6.99c6.49,5.4,12.7,10.56,18.76,15.61
		c-0.37,0.9-0.42,1.4-0.63,1.48c-8.34,3.28-8.64,9.9-8.59,17.7c0.32,47.15,0.19,94.3,0.11,141.44c-0.01,4.47-0.37,8.99-1.08,13.4
		c-1.86,11.66-10.36,18.47-23.55,18.96c-1.6-8.96-8.99-12.02-16.24-15.02c-4.12-1.7-8.49-2.88-12.83-3.98
		C231.98,332.27,231.11,330.93,233.33,328.12z M128.74,211.14c48.94,0,97.43,0,145.86,0c0-16.53,0-32.6,0-48.86
		c-48.73,0-97.13,0-145.86,0C128.74,178.58,128.74,194.66,128.74,211.14z M274.79,216.84c-48.94,0-97.46,0-146.04,0
		c0,15.68,0,30.92,0,46.33c48.86,0,97.38,0,146.04,0C274.79,247.62,274.79,232.48,274.79,216.84z"/>
	<path class="st1" d="M242.93,89.51c0-8.57,0.47-16.76-0.23-24.86c-0.28-3.29-2.98-6.43-4.81-9.49c-0.91-1.53-2.36-2.74-4.41-5.04
		c2.09-0.79,3.98-2.26,5.15-1.81c9.31,3.51,18.48,7.39,27.68,11.18c0.25,0.1,0.37,0.52,0.75,1.08c-0.46,0.49-0.87,1.33-1.48,1.53
		c-6.95,2.24-9.52,6.87-8.6,14.09c0.54,4.25,0.1,8.63,0.1,13.74c2.01,0,3.76,0,5.51,0c15.99,0,31.99-0.12,47.98,0.09
		c3.71,0.05,6.22-0.84,8.25-4.1c2-3.21,4.65-6.01,7.34-9.39c7.98,5.9,15.75,11.63,23.51,17.37c-0.15,0.65-0.29,1.3-0.44,1.96
		c-15.09,0.45-30.2,0.14-45.31,0.2c-15.32,0.06-30.64,0.01-47.02,0.01c0.33,7.1,0.36,14,1.04,20.84
		c1.08,10.9-5.26,17.89-16.56,17.74c0.56-12.56,1.13-25.12,1.72-38.14c-28.74,0-56.95,0-85.77,0c0,6.34-0.5,12.96,0.12,19.48
		c0.92,9.77-1.92,14.53-11.45,17.06c-1.43,0.38-2.89,0.64-4.87,1.07c0.72-12.6,1.43-24.92,2.18-38.05c-2.39,0-4.14,0-5.89,0
		c-20.82-0.02-41.65-0.14-62.47,0.04c-3.54,0.03-7.05,1.52-10.62,2.06c-1.5,0.23-3.5,0.27-4.6-0.53c-2.67-1.94-4.94-4.43-8.2-7.46
		c30.87,0,60.83,0,91.34,0c0-9.25,0.9-17.98-0.36-26.4c-0.69-4.63-5-8.73-8.2-13.92c1.04-0.42,2.9-1.92,4.04-1.5
		c9.19,3.39,18.25,7.13,27.34,10.82c0.53,0.21,0.87,0.88,1.35,1.4c-10.72,3.93-10.84,12.48-9.98,21.54c0.22,2.3,0.03,4.65,0.03,7.4
		C185.64,89.51,213.99,89.51,242.93,89.51z"/>
	
	
	<path class="st2" d="M378.6,9.2l0.8-1c0.9,0.7,1.9,1.4,2.9,2.3l-0.9,1.1C380.3,10.7,379.4,9.9,378.6,9.2z M379.1,19.9
		c0.9-2.1,1.6-4.3,2.3-6.7c0.4,0.2,0.8,0.4,2.3,0.6c-0.7,2.1-1.5,4.3-2.2,6.6L379.1,19.9z M379.5,4.7l0.9-0.9c1,0.8,2,1.6,2.8,2.4
		l-1,1C381.2,6.3,380.3,5.4,379.5,4.7z M392,3.4h1.2v1.4h2.7v1.1h-2.7v2.7H392V8.1h-1.8v1.3h4.9v3.8h-1.2v-0.5h-3.7
		c0,0.4-0.1,0.9-0.1,1.2h5.1v1H390c0,0.5-0.1,0.9-0.2,1.2h6v1h-5.2c1.1,1.3,2.9,2,5.5,2.2c-0.4,0.4-0.7,0.8-0.9,1.3
		c-2.9-0.5-4.8-1.6-5.7-3.5h-0.1c-0.8,1.7-2.7,2.9-5.9,3.6c-0.2-0.4-0.6-0.8-0.9-1.1c2.8-0.6,4.6-1.4,5.4-2.5h-4.8v-1h5.3
		c0.1-0.3,0.2-0.7,0.2-1.2h-4.9v-1h5c0-0.4,0-0.8,0.1-1.2h-3.6v0.5h-1.2V9.4h4.9V8.1h-1.8v0.5H386V5.9h-2.6V4.8h2.6V3.4h1.2v1.4h4.7
		V3.4z M385.3,11.8h3.6c0-0.4,0-0.9,0-1.4h-3.6V11.8z M387.2,7.1h4.7V5.9h-4.7V7.1z M393.9,10.4h-3.7c0,0.5,0,1,0,1.4h3.7V10.4z"/>
	<path class="st2" d="M384.7,21.4h1.3v2.2h2.8v-2.2h1.3v2.2h4.1v9.1h1.7V34h-16.9v-1.3h1.7v-9.1h4.1V21.4z M385,34.6l0.7,1.2
		c-1.8,0.9-3.8,1.9-6,2.9c-0.2-0.4-0.5-0.8-0.8-1.3C381.3,36.4,383.3,35.4,385,34.6z M381.9,28.1h2.8v-3.2h-2.8V28.1z M381.9,32.7
		h2.8v-3.3h-2.8V32.7z M386,28.1h2.8v-3.2H386V28.1z M386,32.7h2.8v-3.3H386V32.7z M389.6,34.6c2.1,0.9,4.1,1.8,6.1,2.7l-0.7,1.3
		c-2.2-1.1-4.2-2-6.1-2.9L389.6,34.6z M392.9,24.9h-2.8v3.2h2.8V24.9z M390.1,32.7h2.8v-3.3h-2.8V32.7z"/>
</g>
</svg>
