<?xml version="1.0" encoding="utf-8"?>
<!-- Generator: Adobe Illustrator 22.0.0, SVG Export Plug-In . SVG Version: 6.00 Build 0)  -->
<svg version="1.1" id="漢-ZDIC-典" xmlns="http://www.w3.org/2000/svg" xmlns:xlink="http://www.w3.org/1999/xlink" x="0px" y="0px"
	 viewBox="0 0 400 400" style="enable-background:new 0 0 400 400;" xml:space="preserve">
<style type="text/css">
	.st1{fill:#010100;}
	.st2{fill:#fafafb;}
</style>
<g>
	
	<path class="st1" d="M231.69,270.21c-18.51,0-36.78,0-54.16,0c-1.82,4.57-2.64,9.43-5.39,12.64c-2.26,2.63-6.82,3.28-9.93,4.63
		c0.27-28.18,0.64-55.6,0.65-83.01c0-3.23-1.21-7-3.14-9.54c-2.41-3.17-1.65-4.92,1.23-7.39c3.58,3.29,7.07,6.81,10.91,9.89
		c1.64,1.32,4,2.46,6.04,2.47c37.32,0.15,74.64,0.15,111.97,0c2.02-0.01,4.42-1.16,5.97-2.53c3.1-2.73,5.74-5.98,9-9.47
		c5.78,5.38,11.06,10.3,16.85,15.69c-1.43,1.08-2.29,2.19-3.37,2.46c-5.58,1.4-6.65,4.97-6.44,10.34
		c0.66,16.79,0.75,33.61,1.1,50.42c0.15,6.97-4.8,10.97-13.8,10.86c-0.1-2.29-0.2-4.59-0.32-7.28c-17.74,0-35.46,0-53.52,0
		c0,9.96,0,20,0,30.55c10.28,0,20.4,0,30.52,0c0.83,0,1.67,0,2.5,0c10.27-0.05,21.83,2.95,25.37-12.16
		c8.93,5.22,16.72,9.78,24.52,14.34c-0.1,0.47-0.2,0.94-0.3,1.41c-27.4,0-54.8,0-82.57,0c0,9.39,0,17.93,0,26.74
		c1.35,0.11,2.65,0.31,3.95,0.32c20.66,0.02,41.32,0.1,61.98-0.12c2.07-0.02,4.57-1.5,6.09-3.06c2.65-2.71,4.68-6.01,7.17-9.33
		c8.03,5.36,15.86,10.59,23.68,15.81c-0.07,0.39-0.14,0.78-0.21,1.17c-2.03,0.12-4.05,0.35-6.08,0.35
		c-59.98,0.02-119.96-0.04-179.95,0.12c-4.98,0.01-9.95,1.54-16.26,2.59c-1.29-1.51-3.68-4.31-6.33-7.41c30.62,0,61.31,0,92.29,0
		c0-9.02,0-17.45,0-26.63c-1.54,0-3.13,0-4.71,0c-16.66-0.01-33.33-0.2-49.98,0.08c-4.16,0.07-8.3,1.63-13.6,2.75
		c-1.78-1.43-4.66-3.75-8.59-6.92c26.44,0,51.5,0,76.87,0C231.69,290.62,231.69,280.7,231.69,270.21z M231.6,233.73
		c0-9.84,0-19.2,0-28.32c-18.75,0-37.1,0-55.29,0c0,9.65,0,18.89,0,28.32C194.85,233.73,213.07,233.73,231.6,233.73z M245.35,205.23
		c0,9.67,0,19.02,0,28.33c18.03,0,35.71,0,53.39,0c0-9.62,0-18.86,0-28.33C280.92,205.23,263.36,205.23,245.35,205.23z
		 M231.77,238.43c-18.79,0-37.13,0-55.52,0c0,8.94,0,17.51,0,26.32c18.59,0,36.94,0,55.52,0
		C231.77,255.92,231.77,247.34,231.77,238.43z M245.24,264.66c18.11,0,35.8,0,53.33,0c0-9.04,0-17.73,0-26.32
		c-17.99,0-35.54,0-53.33,0C245.24,247.19,245.24,255.76,245.24,264.66z"/>
	<path class="st1" d="M253.66,109.18c-14.75,1.37-28.64-2.49-42.07,3.72c-2.27-2.35-4.74-4.92-8-8.3c3.48,0,6.2,0,8.92,0
		c12.33,0,24.66,0.07,36.98-0.1c1.43-0.02,4.07-1.32,4.09-2.08c0.27-10.58,0.18-21.18,0.18-32.41c-9.38,1.15-19.7-2.61-28.3,3
		c-2.82-2.55-5.48-4.96-8.64-7.82c2.2-0.1,3.93-0.24,5.67-0.24c20.16-0.02,40.32-0.2,60.47,0.12c5.44,0.08,9.67-1.03,12.89-5.51
		c1.25-1.74,2.76-3.28,3.82-4.53c5.09,5.2,9.69,9.89,14.74,15.04c-9.69,0.81-7.27,8.03-7.33,13.99c-0.07,6.63-0.02,13.25-0.02,20.16
		c8.78,1.54,8.65-7.85,14.26-10.4c5.99,4.67,12.24,9.55,19.66,15.32c-11.9,0-22.54,0-33.8,0c0,5.62-0.22,10.55,0.06,15.45
		c0.35,6.3,1.06,12.58,1.7,18.86c0.5,4.9-1.63,8.32-6.8,10.27c-2.15,0.81-4.42,1.28-6.94,1.99c-0.18-2.97-0.34-5.56-0.52-8.62
		c-13.04,0-25.83-0.05-38.61,0.09c-0.99,0.01-2.39,1.11-2.87,2.07c-8.59,17.08-23.13,27.57-39.6,35.88
		c-5.26,2.65-10.71,4.9-16.08,7.34c-0.37-0.51-0.74-1.02-1.11-1.53c1.03-1.01,1.91-2.27,3.11-3c12.72-7.72,24.84-16.19,34.41-27.76
		c3.12-3.76,5.72-7.95,9.44-13.2c-10.07,0.67-18.75-1.83-26.71,3.2c-2.56-2.47-5.03-4.86-8.53-8.24c6.63,0,12.01,0,17.39,0
		c4,0,8,0,11.99,0c8.18,0,8.44,0.07,10.63-8.12C250.22,126.03,251.69,118.09,253.66,109.18z M264.74,109.68
		c-2.46,10.8-4.88,21.38-7.27,31.87c12.38,0,24.77,0,37.17,0c0-10.79,0-21.2,0-31.87C284.4,109.68,274.48,109.68,264.74,109.68z
		 M294.61,104.33c0-11.66,0-22.75,0-33.86c-9.36,0-18.39,0-27.47,0c-0.73,11.46-1.43,22.52-2.16,33.86
		C275.08,104.33,284.68,104.33,294.61,104.33z"/>
	<path class="st1" d="M117.57,312.8c0-5.3,0-10.24,0-15.48c-16.82,0-33.19,0-49.76,0c-1.86,8.85,4,21.61-10.81,23.63
		c0-10.68-0.08-21.11,0.02-31.54c0.09-9.64,0.46-19.28,0.54-28.92c0.1-11.49-0.11-22.98,0.07-34.46c0.12-7.73,0.02-15.32-5.27-21.99
		c1.45-1.12,2.57-1.98,3.93-3.03c1.74,1.9,3.44,3.49,4.81,5.33c2.06,2.78,4.57,3.74,8.08,3.68c11.98-0.22,23.98-0.33,35.96,0.03
		c4.94,0.15,8.62-1.14,11.62-5.03c1.69-2.19,3.78-4.08,5.95-6.37c4.46,4.96,8.78,9.56,12.76,14.43c0.52,0.63-0.42,3.72-1.08,3.86
		c-6.8,1.5-7.29,6.08-7.09,11.94c0.83,24.42,1.3,48.86,1.87,73.29C129.39,310.73,126.97,313.07,117.57,312.8z M67.75,290.62
		c16.7,0,33.08,0,49.5,0c0-24.97,0-49.56,0-74.35c-16.61,0-32.89,0-49.5,0C67.75,241.05,67.75,265.64,67.75,290.62z"/>
	<path class="st1" d="M114.59,65.54c4.53,5.03,8.61,9.61,12.76,14.14c1.89,2.06,1.64,3.73-1.03,4.41c-6.24,1.58-7.25,5.68-7.02,11.53
		c0.88,22.76,1.32,45.54,1.87,68.31c0.24,9.89-1.12,11.42-11.6,12.82c0-4.81,0-9.55,0-14.48c-13.25,0-25.85,0-38.95,0
		c-0.09,8.54,0.57,17.74-10.61,18.53c0-10.86-0.08-21.62,0.02-32.39c0.1-11.3,0.42-22.6,0.55-33.91c0.09-7.33-0.13-14.66,0.06-21.98
		c0.19-7.58-0.09-14.97-5.29-21.48c1.45-1.11,2.57-1.98,4.26-3.28c0.8,1.09,1.52,2,2.15,2.96c3.3,5.07,7.81,6.8,13.91,6.33
		c7.28-0.56,14.65-0.36,21.97-0.04c4.17,0.18,7.33-0.81,9.95-4.16C109.52,70.39,111.93,68.28,114.59,65.54z M109.15,155.8
		c0-24.45,0-48.46,0-72.44c-13.02,0-25.6,0-38.3,0c0,24.3,0,48.3,0,72.44C83.75,155.8,96.22,155.8,109.15,155.8z"/>
	<path class="st1" d="M164.55,113.32c-11.6,13.38-23.55,23.74-36.83,32.5c-0.41-0.34-0.82-0.68-1.24-1.02c0.84-1.28,1.51-2.72,2.56-3.8
		c17.44-18.04,33.01-37.43,44.05-60.16c1.74-3.58,3.44-7.19,5.03-10.85c3.84-8.84,3.81-8.85,0.22-17.17
		c3.18-1.37,20.01,6.64,25.56,12.18c-0.15,0.27-0.34,0.77-0.47,0.76c-7.45-0.87-10.73,3.63-13.93,9.53
		c-6.16,11.36-13.15,22.28-19.97,33.68c6.91,2.92,14.2,6.01,22.71,9.61c-3.13,1.62-5.23,2.71-7.33,3.8
		c-3.32,1.71-5.16,3.88-5.02,8.17c0.45,14.65,0.29,29.32,0.55,43.97c0.19,10.26-3.15,14.11-12.86,15.19
		c0-22.29,0.09-44.68-0.12-67.08C167.43,119.93,165.82,117.23,164.55,113.32z"/>
	
	
	
	
	
	
	
	
	<path class="st2" d="M378.6,9.2l0.8-1c0.9,0.7,1.9,1.4,2.9,2.3l-0.9,1.1C380.3,10.7,379.4,9.9,378.6,9.2z M379.1,19.9
		c0.9-2.1,1.6-4.3,2.3-6.7c0.4,0.2,0.8,0.4,2.3,0.6c-0.7,2.1-1.5,4.3-2.2,6.6L379.1,19.9z M379.5,4.7l0.9-0.9c1,0.8,2,1.6,2.8,2.4
		l-1,1C381.2,6.3,380.3,5.4,379.5,4.7z M392,3.4h1.2v1.4h2.7v1.1h-2.7v2.7H392V8.1h-1.8v1.3h4.9v3.8h-1.2v-0.5h-3.7
		c0,0.4-0.1,0.9-0.1,1.2h5.1v1H390c0,0.5-0.1,0.9-0.2,1.2h6v1h-5.2c1.1,1.3,2.9,2,5.5,2.2c-0.4,0.4-0.7,0.8-0.9,1.3
		c-2.9-0.5-4.8-1.6-5.7-3.5h-0.1c-0.8,1.7-2.7,2.9-5.9,3.6c-0.2-0.4-0.6-0.8-0.9-1.1c2.8-0.6,4.6-1.4,5.4-2.5h-4.8v-1h5.3
		c0.1-0.3,0.2-0.7,0.2-1.2h-4.9v-1h5c0-0.4,0-0.8,0.1-1.2h-3.6v0.5h-1.2V9.4h4.9V8.1h-1.8v0.5H386V5.9h-2.6V4.8h2.6V3.4h1.2v1.4h4.7
		V3.4z M385.3,11.8h3.6c0-0.4,0-0.9,0-1.4h-3.6V11.8z M387.2,7.1h4.7V5.9h-4.7V7.1z M393.9,10.4h-3.7c0,0.5,0,1,0,1.4h3.7V10.4z"/>
	<path class="st2" d="M384.7,21.4h1.3v2.2h2.8v-2.2h1.3v2.2h4.1v9.1h1.7V34h-16.9v-1.3h1.7v-9.1h4.1V21.4z M385,34.6l0.7,1.2
		c-1.8,0.9-3.8,1.9-6,2.9c-0.2-0.4-0.5-0.8-0.8-1.3C381.3,36.4,383.3,35.4,385,34.6z M381.9,28.1h2.8v-3.2h-2.8V28.1z M381.9,32.7
		h2.8v-3.3h-2.8V32.7z M386,28.1h2.8v-3.2H386V28.1z M386,32.7h2.8v-3.3H386V32.7z M389.6,34.6c2.1,0.9,4.1,1.8,6.1,2.7l-0.7,1.3
		c-2.2-1.1-4.2-2-6.1-2.9L389.6,34.6z M392.9,24.9h-2.8v3.2h2.8V24.9z M390.1,32.7h2.8v-3.3h-2.8V32.7z"/>
</g>
</svg>
