<?xml version="1.0" encoding="utf-8"?>
<!-- Generator: Adobe Illustrator 22.0.0, SVG Export Plug-In . SVG Version: 6.00 Build 0)  -->
<svg version="1.1" id="漢-ZDIC-典" xmlns="http://www.w3.org/2000/svg" xmlns:xlink="http://www.w3.org/1999/xlink" x="0px" y="0px"
	 viewBox="0 0 400 400" style="enable-background:new 0 0 400 400;" xml:space="preserve">
<style type="text/css">
	.st1{fill:#010100;}
	.st2{fill:#fafafb;}
</style>
<g>
	
	<path class="st1" d="M273.77,233.87c8.09,25.34,15.29,49.99,31.84,70.27c11.88,14.56,26.2,25.97,44.85,30.98c2.53,0.68,6.01,1.16,3.99,5.78
		c-8.91-0.59-18.24-2.25-25.76,5.19c-39.15-26.97-53.22-67.47-60.88-111.64c-2.65,0-4.88,0-8.05,0
		c-5.92,63.89-43.46,100.72-103.23,118.43c-0.64-1.53-1.13-2.72-1.86-4.46c51.72-20.95,86.75-55.47,92.38-114.34
		c-6.32,0-12.6,0-18.87,0c-7.83,0-15.67-0.11-23.5,0.06c-2.61,0.05-5.65,0.09-7.73,1.38c-4.31,2.66-6.87,0.98-9.58-2.23
		c-1.27-1.5-3.06-2.57-4.61-3.84c0.19-0.5,0.37-1,0.56-1.5c3.51,0,7.01,0,10.52,0c3.47,0,6.94,0,11.1,0c0-2.14,0-3.91,0-5.67
		c0.01-28.5,0.21-57-0.17-85.49c-0.06-4.44-2.77-8.84-4.25-13.25c-0.44,0.05-0.89,0.1-1.33,0.15c0.88-1.12,1.77-2.25,2.57-3.27
		c0.63,0.14,1.06,0.1,1.22,0.29c6.59,7.68,15.09,9.09,24.69,8.37c7.91-0.6,15.89-0.12,24.35-0.12c0-5.45,0-10.41,0-15.36
		c0-14.16,0-28.33,0-42.49c0-9.03,0-9.03-6.39-16.16c1.64-0.57,3.18-1.71,4.26-1.37c7.92,2.46,15.76,5.21,23.6,7.92
		c0.35,0.12,0.51,0.76,1,1.53c-1.35,0.73-2.86,1.13-3.75,2.1c-1.93,2.11-5.02,4.48-5.07,6.79c-0.41,18.79-0.23,37.58-0.23,57.02
		c10.14,0,20.25,0.1,30.34-0.12c1.29-0.03,2.73-1.57,3.78-2.71c2.35-2.56,4.5-5.31,6.87-8.15c6.13,5.29,12.12,10.44,18.24,15.72
		c-0.88,1.1-1.21,1.95-1.68,2.03c-7.63,1.37-8.23,6.47-8.13,13.11c0.36,24.32,0.14,48.66,0.14,72.99c0,1.81,0,3.63,0,5.44
		c9.9,3.86,11.68-5.81,17.22-9.98c6.08,5.13,12.15,10.26,18.22,15.39c-0.21,0.41-0.42,0.83-0.63,1.24
		C324.75,233.87,299.68,233.87,273.77,233.87z M262.1,227.66c12.92,0,26.17,0,39.51,0c0-30.96,0-61.65,0-92.26
		c-12.31,0-24.22,0-35.71,0C264.63,166.26,263.37,196.78,262.1,227.66z M248.31,227.68c4.04-30.72,4.05-61.51,4.28-92.28
		c-11.95,0-23.03,0-34.25,0c0,30.89,0,61.46,0,92.28C228.38,227.68,238.14,227.68,248.31,227.68z"/>
	<path class="st1" d="M152.59,274.22c-19,0-37.77,0-56.89,0c-0.1,1.58-0.31,3.04-0.27,4.5c0.45,18.13,1.02,36.25,1.37,54.38
		c0.09,4.49-1.24,8.63-5.8,10.71c-2.97,1.36-6.07,2.46-10.19,4.11c0.47-5.37,0.85-9.72,1.24-14.06c0.26-2.97,0.75-5.94,0.75-8.91
		c0.07-43.33,0.14-86.66-0.03-130c-0.01-3.62-1.83-7.23-3.07-11.83c0.33-0.34,1.35-1.38,2.18-2.22c0.95,0.36,1.38,0.39,1.53,0.6
		c4.7,6.81,11.31,7.87,19.12,7.57c13.98-0.54,28-0.43,41.99-0.01c5.28,0.16,8.96-1.03,11.19-5.92c0.4-0.88,1.16-1.58,2.16-2.9
		c4.79,3.65,9.47,7.21,15.03,11.45c-9.49,4.17-7.45,11.86-7.46,18.81c-0.03,31.5,0,63-0.03,94.5c0,5.79,0.02,11.59-0.27,17.37
		c-0.7,13.72-5.65,19.39-19.72,22.66c-0.46-1.3-1.05-2.61-1.4-3.99c-0.99-3.89-3.24-6.31-7.24-7.36
		c-7.21-1.88-14.36-4.02-21.56-6.05c-0.53-3.01,0.15-4.39,3.61-3.89c8.53,1.24,17.12,2.16,25.67,3.24c4.49,0.57,7.05-1.34,7.48-5.84
		c0.4-4.29,0.88-8.59,0.93-12.89c0.12-10.83,0.02-21.67,0-32.5C152.89,275.45,152.77,275.13,152.59,274.22z M152.57,268.79
		c0-11.79,0-23.15,0-34.57c-19.1,0-37.83,0-56.86,0c0,11.6,0,22.98,0,34.57C114.74,268.79,133.47,268.79,152.57,268.79z
		 M95.69,195.22c0,11.46,0,22.38,0,33.45c19.14,0,38.01,0,56.81,0c0-11.36,0-22.38,0-33.45
		C133.43,195.22,114.81,195.22,95.69,195.22z"/>
	<path class="st1" d="M165.41,151.19c9.8,3.3,12.98-5.25,19.07-8.39c4.93,4.44,9.83,8.85,15.71,14.15c-15.31-0.11-17.52,13.61-25.56,20.71
		c-1.28,1.13-2.93,1.85-4.4,2.77c-0.06-1.73-0.61-3.62-0.1-5.16c1.87-5.61,4.09-11.11,6.33-17.03c-35.92,0-71.06,0-106.45,0
		c-0.65,5.29-1.02,10.56-2.01,15.71c-1.12,5.88-4.48,10.34-10.18,12.65c-3.44,1.4-6.19-0.39-7.4-3.22c-0.77-1.8-0.56-5.41,0.69-6.47
		c10.35-8.8,12.2-20.93,13.79-33.24c0.37-2.84,0.28-5.95,4.82-4.62c0,4.19,0,8.28,0,12.62c3.85,0,7.45,0,11.86,0
		c0-1.94,0-3.86,0-5.79c0-23,0.14-46-0.11-68.99c-0.05-4.71-1.68-9.4-2.33-14.13c-0.22-1.62,0.31-3.34,0.54-5.3
		c1.58,0.52,2.04,0.53,2.17,0.74c5.16,8.29,12.87,9.39,21.9,8.91c12.3-0.65,24.66-0.16,36.99-0.16c10.93,0,10.93,0,18.78-7.71
		c4.68,3.59,9.41,7.23,13.98,10.74c-0.6,1.22-0.69,1.71-0.9,1.77c-5.92,1.63-7.48,5.39-7.36,11.47c0.42,20.82,0.16,41.66,0.16,62.49
		C165.41,147.65,165.41,149.61,165.41,151.19z M93.74,151.59c8.15,0,15.9,0,24.08,0c0-11.47,0.26-22.6-0.11-33.72
		c-0.19-5.56-1.64-11.06-2.3-16.62c-0.17-1.4,0.52-2.9,1.02-5.35c2.46,2.71,3.78,4.45,5.38,5.86c1.78,1.57,3.76,3.94,5.75,4.04
		c8.45,0.45,16.93,0.19,25.66,0.19c0-11.11,0-21.84,0-32.72c-19.96,0-39.56,0-59.49,0C93.74,99.39,93.74,125.3,93.74,151.59z
		 M128.47,111.15c0,13.77,0,27.02,0,40.52c8.37,0,16.44,0,24.74,0c0-13.63,0-27.01,0-40.52
		C144.86,111.15,136.88,111.15,128.47,111.15z"/>
	
	
	
	
	
	
	<path class="st2" d="M378.6,9.2l0.8-1c0.9,0.7,1.9,1.4,2.9,2.3l-0.9,1.1C380.3,10.7,379.4,9.9,378.6,9.2z M379.1,19.9
		c0.9-2.1,1.6-4.3,2.3-6.7c0.4,0.2,0.8,0.4,2.3,0.6c-0.7,2.1-1.5,4.3-2.2,6.6L379.1,19.9z M379.5,4.7l0.9-0.9c1,0.8,2,1.6,2.8,2.4
		l-1,1C381.2,6.3,380.3,5.4,379.5,4.7z M392,3.4h1.2v1.4h2.7v1.1h-2.7v2.7H392V8.1h-1.8v1.3h4.9v3.8h-1.2v-0.5h-3.7
		c0,0.4-0.1,0.9-0.1,1.2h5.1v1H390c0,0.5-0.1,0.9-0.2,1.2h6v1h-5.2c1.1,1.3,2.9,2,5.5,2.2c-0.4,0.4-0.7,0.8-0.9,1.3
		c-2.9-0.5-4.8-1.6-5.7-3.5h-0.1c-0.8,1.7-2.7,2.9-5.9,3.6c-0.2-0.4-0.6-0.8-0.9-1.1c2.8-0.6,4.6-1.4,5.4-2.5h-4.8v-1h5.3
		c0.1-0.3,0.2-0.7,0.2-1.2h-4.9v-1h5c0-0.4,0-0.8,0.1-1.2h-3.6v0.5h-1.2V9.4h4.9V8.1h-1.8v0.5H386V5.9h-2.6V4.8h2.6V3.4h1.2v1.4h4.7
		V3.4z M385.3,11.8h3.6c0-0.4,0-0.9,0-1.4h-3.6V11.8z M387.2,7.1h4.7V5.9h-4.7V7.1z M393.9,10.4h-3.7c0,0.5,0,1,0,1.4h3.7V10.4z"/>
	<path class="st2" d="M384.7,21.4h1.3v2.2h2.8v-2.2h1.3v2.2h4.1v9.1h1.7V34h-16.9v-1.3h1.7v-9.1h4.1V21.4z M385,34.6l0.7,1.2
		c-1.8,0.9-3.8,1.9-6,2.9c-0.2-0.4-0.5-0.8-0.8-1.3C381.3,36.4,383.3,35.4,385,34.6z M381.9,28.1h2.8v-3.2h-2.8V28.1z M381.9,32.7
		h2.8v-3.3h-2.8V32.7z M386,28.1h2.8v-3.2H386V28.1z M386,32.7h2.8v-3.3H386V32.7z M389.6,34.6c2.1,0.9,4.1,1.8,6.1,2.7l-0.7,1.3
		c-2.2-1.1-4.2-2-6.1-2.9L389.6,34.6z M392.9,24.9h-2.8v3.2h2.8V24.9z M390.1,32.7h2.8v-3.3h-2.8V32.7z"/>
</g>
</svg>
