<svg enable-background="new 0 0 400 400" viewBox="0 0 400 400" xmlns="http://www.w3.org/2000/svg"><g fill="#010102"><path d="m279.47 193.92c6.03 2.97 11.92 5.88 17.81 8.79.16-.18.33-.36.49-.53-4.86-6.34-10.16-12.4-14.49-19.08-7.95-12.28-15.45-24.85-22.83-37.48-1.56-2.67-3-3.81-6.1-3.69-5.99.25-12-.08-17.99.18-1.46.06-3.45 1.13-4.21 2.34-10.08 16.22-19.99 32.54-29.93 48.84-.24.4-.34.88-.61 1.6 8.73 3.72 17.42 7.42 26.91 11.46-3.52 2.49-6.39 4.86-9.58 6.69-3.72 2.14-5.07 4.87-4.9 9.27.38 10.15.18 20.33.11 30.49-.28 41-16.98 73.81-50.37 97.4-11.73 8.29-25.14 14.19-37.8 21.15-.84.46-1.83.63-2.88.97-.5-.68-.94-1.15-1.24-1.71-.53-1-.97-2.05-1.29-2.75 9.33-6.56 18.78-12.51 27.45-19.45 25.56-20.46 41.71-46.7 46.56-79.35.97-6.55 1.1-13.26 1.18-19.9.17-14.81.05-29.62.05-46.1-20.32 21.71-43.3 37.69-68.5 51.09-.92-1.81-1.74-3.4-2.75-5.39 38.99-27.58 69.83-61.79 89.06-107.7-19.35.97-37.58 1.77-55.78 2.89-3.24.2-5.76.08-7.87-2.65-2.11-2.74-4.5-5.27-7.53-8.76-4.35 12.18-8.17 22.76-11.91 33.38-10.08 28.66-19.7 57.49-30.31 85.95-9.6 25.77-12.26 52.28-11.12 79.44.27 6.48.74 12.95 1.03 19.42.27 5.92-1.24 7.74-7.18 7.29-4.57-.35-9.19-1.35-13.56-2.76-7.08-2.28-10.35-7.75-8.92-15.06 2-10.24 4.67-20.35 6.7-30.58.99-5.02 1.53-10.19 1.67-15.31.21-7.51-3.23-13.36-10.13-16.38-6.82-2.99-13.88-5.54-21.02-7.65-3.73-1.1-4.39-2.79-3.6-5.31 5.97 0 11.57-.19 17.16.04 16.5.65 27.98-6.28 34.64-21.62 8.73-20.12 18.1-39.97 26.8-60.11 11.73-27.15 23.12-54.45 34.58-81.72 1.39-3.31 2.98-5.11 6.98-2.32-3.77 10.66-7.54 21.36-11.54 32.66h17.03c17.17 0 34.33-.15 51.49.11 3.93.06 5.67-1.19 6.48-4.85 3.63-16.52 7.39-33 11.05-49.51.24-1.09.03-2.29.03-3.9-23.45 2.83-46.78 5.64-70.5 8.5 0-1.98 0-3.53 0-5.41 52.07-9.49 104.34-18.32 152.63-42.83 7.15 7.54 14.64 15.45 21.78 22.99-10.04 1.27-21.09 2.31-31.99 4.14-15.85 2.67-31.62 5.88-47.39 9.01-1.14.23-2.69 1.58-2.92 2.65-4.33 19.56-8.49 39.16-12.73 58.93.6.03 2.04.17 3.48.17 26.16.01 52.33.09 78.49-.12 2.51-.02 5.44-1.26 7.41-2.88 5.26-4.32 10.1-9.16 15.63-14.28 7.49 8.89 14.89 17.66 23.04 27.33-32.98 0-64.81 0-97.42 0 6.79 12.32 14.67 22.74 23.87 32.15 19.62 20.06 43.52 32.4 70.67 38.86 1.62.38 3.7 2.04 4.13 3.53.87 2.98-1.9 3.05-4 3.66-7.2 2.07-12.75 6.53-16.51 12.89-1.98 3.34-3.7 3.25-6.73 1.52-13.53-7.72-25.79-17.07-37.03-27.83-.93-.89-1.91-1.73-3.44-3.11-.12 2.22-.28 3.79-.28 5.36.12 40.33.22 80.65.43 120.98.05 9.65.37 19.3.76 28.94.11 2.72-.59 4.18-3.3 5.13-5.91 2.09-11.69 4.57-17.43 6.85.03-59.06.03-117.76.03-176.96z"/><path d="m34.28 133.32c.94-1.25 1.72-2.29 2.41-3.21.57 0 .95-.12 1.2.02 14.75 7.71 29.17 15.86 41.47 27.35 9.86 9.2 9.57 18.79 6.11 31.2-1.97 7.07-9.64 8-14.21 2.28-1.24-1.55-2.41-3.24-3.19-5.05-8.12-18.81-20.22-35.03-32.82-50.94-.3-.4-.51-.86-.97-1.65z"/><path d="m67.8 48.91c.86-1.31 1.67-2.53 3.11-4.71 12.22 7.49 24.45 14.73 36.41 22.41 10.55 6.78 15.35 25.91 4.59 37.87-4.47 4.97-7.27 4.96-10.39-1.11-3.64-7.06-6.74-14.41-10.63-21.33-3.24-5.77-7.17-11.17-10.97-16.61-3.81-5.43-7.84-10.71-12.12-16.52z"/></g><path d="m6.4 11.7c-2-.8-1.9-1.6-2.9-2.3l.6-.7c.9.7 1.9 1.4 2.9 2.2zm-2.1 8.3c.7-2.1 1.4-4.2 2-6.4.2.1.6.3 1 .4-.7 2.3-1.3 4.4-1.9 6.4zm3-12.8c-1.1-.9-2.1-1.7-2.9-2.4l.6-.7c1 .8 2 1.5 3 2.4zm1.4-1.3v-.9h10.2v.9c-.9 4.2-2.3 7.3-4.1 9.4 1.3 1.4 3.2 2.7 5.7 4-.2.2-.4.5-.7.9-2.5-1.4-4.4-2.7-5.7-4.2-1.4 1.5-3.5 3-6.1 4.4 0 0 0 0-.1-.1-.3-.4-.5-.7-.7-.8 2.7-1.3 4.7-2.8 6.2-4.2-1.8-2.2-3-5.3-3.7-9.4zm9.2 0h-7.1c.6 3.8 1.7 6.7 3.4 8.7 1.7-2 2.9-4.8 3.7-8.7z" fill="#fbfcfa"/><path d="m31.6 3.6h.9v2.3h4.1v9.1h1.7v.9h-16.6v-.9h1.7v-9.1h4.1v-2.3h.9v2.3h3.1v-2.3zm-4 13.3.6.8c-1.9.9-3.8 1.9-5.8 2.8-.2-.3-.3-.6-.5-.9 2-.9 3.9-1.8 5.7-2.7zm-3.2-10.1v3.7h3.1v-3.7zm0 4.5v3.7h3.1v-3.7zm4.1-4.5v3.7h3.1v-3.7zm0 4.5v3.7h3.1v-3.7zm9.1 9.1c-2.1-1.1-4.1-2-5.8-2.7l.5-.8c2.2.9 4.1 1.8 5.8 2.6l-.4.9zm-1.9-13.6h-3.1v3.7h3.1zm-3.2 4.5v3.7h3.1v-3.7z" fill="#fbfcfa"/></svg>