<svg enable-background="new 0 0 400 400" viewBox="0 0 400 400" xmlns="http://www.w3.org/2000/svg"><g fill="#010102"><path d="m229.62 233.04c-23.73 1-46.47 2.04-69.21 2.81-2.31.08-5.05-.88-6.92-2.26-3.29-2.43-6.07-5.57-8.57-9.52h86.15c2.02-20.49 3.98-40.43 6-60.95 10.28 4.19 20.19 8.24 30.37 12.39-10.57 14.37-12.14 31.18-15.25 48.42h5.09c21.33 0 42.66.1 63.99-.14 2.44-.03 5.37-1.42 7.2-3.12 5.23-4.85 10.02-10.18 15.46-15.81 8.31 9.75 16.13 18.92 24.63 28.89-33.82 0-66.8 0-101.43 0 3.95 8.62 6.81 16.43 10.9 23.51 14.18 24.53 30.18 47.78 55.05 62.75 10.88 6.55 22.97 11.12 34.62 16.33 4.18 1.87 4.33 1.52 3.93 6.59-12.04 2.88-24.27 5.81-32.1 17.67-40.02-34.14-67.89-75.46-80.98-126.15-7.57-1.03-7.53-1.02-9.43 6.69-7.97 32.31-22.03 61.26-46.85 84.16-19.85 18.32-43.14 30.99-68.13 40.76-3.56 1.39-7.16 2.66-10.75 3.95-.46.17-.98.17-1.88.31-.81-1.44-1.67-2.98-2.61-4.65 9.03-5.18 18.16-9.88 26.72-15.46 21.56-14.05 42.25-29.2 57.03-50.85 13.42-19.6 21.13-41.58 26.97-66.32z"/><path d="m86.39 182.37c-10.01.75-19.65 1.15-29.19 2.35-4.04.51-6.91.16-9.66-3.02-2.36-2.73-5.35-4.93-8.06-7.36.21-.41.42-.82.62-1.23h46.36c0-31.16 0-61.74 0-92.72-9.02 0-18.17-.75-27.15.17-14.78 1.51-14.74 1.97-24.55-8.81-.3-.33-.47-.78-1.07-1.82h5.72c26.66 0 53.33-.07 79.99.08 3.64.02 6.28-.89 8.67-3.64 3.24-3.74 6.84-7.17 10.54-10.99 7.73 8.2 15 15.91 23.05 24.45-19.36 0-37.7 0-56.32 0v92.19c13.78 5.49 19.25-6.32 27.6-13.42 7.42 7.85 14.79 15.64 22.91 24.23-17.4 0-33.76 0-50.46 0v100.84c16.72-4.27 33.34-8.52 50.47-12.89.55 2.17 1.06 4.19 1.66 6.59-38.13 14.35-76.8 26.49-113.68 44.57-4.33-6.49-8.83-13.22-13.56-20.31 10.6-1.95 20.8-3.67 30.93-5.75 7.31-1.5 14.51-3.51 21.77-5.27 2.44-.59 3.93-1.47 3.91-4.62-.14-33.49-.1-66.99-.11-100.49.02-.63-.14-1.27-.39-3.13z"/><path d="m178.26 63.35c.47 6.32.94 12.72 1.42 19.3h74.45c-3.85-19.81-15.08-34.73-28.72-48.01 1.9-4.24 4.7-4.5 8.2-2.61 10.37 5.57 20.99 10.7 31.08 16.73 12.91 7.71 12.4 18.85 5.31 29.87-.78 1.2-1.57 2.4-2.81 4.31h12.07c17.66 0 35.32-.12 52.97.1 3.72.04 6.24-.99 8.46-3.92 2.3-3.04 5.05-5.75 7.98-9.03 7.36 7.79 14.61 15.47 22.48 23.8-9.75 2.44-17.62 7.15-24.14 13.83-6.5 6.66-12.62 13.68-19.36 21.02-1.25-.62-2.94-1.46-4.87-2.42 5.29-11.09 10.4-21.83 15.73-33.02-52.61 0-104.64 0-157.38 0 0 5.65.37 11.43-.08 17.14-.96 12.09-11.11 20.1-23.15 18.7-8.32-.97-10.41-4.56-7-12.09.55-1.2 1.14-2.44 1.97-3.44 11.25-13.53 15.53-29.93 18.77-46.63.87-4.41 2.69-4.63 6.62-3.63z"/><path d="m271.79 121.93c1.01-1.92 1.83-3.48 2.81-5.35 20.93 7.1 41.77 13.69 61.23 23.94 6.55 3.45 10.74 8.43 11.25 15.79.45 6.55.82 13.23-.03 19.69-.8 6.08-4.33 6.81-9 2.66-.86-.77-1.71-1.61-2.36-2.56-13.13-19.26-31.64-32.5-50.55-45.3-4.25-2.87-8.55-5.69-13.35-8.87z"/><path d="m156.95 178.4c26.64-18.05 48.24-40.95 64.52-68.18 7.98 7.99 15.68 15.69 23.54 23.56-.96.14-2.17.4-3.4.49-8.11.6-14.47 4.53-20.69 9.59-17.46 14.19-36.41 26.21-56.26 36.79-4.12 2.2-4.14 2.15-7.71-2.25z"/><path d="m277.67 174.36c.83-1.7 1.61-3.31 2.59-5.32 14.39 4.16 28.83 8 41.42 16.4 11.16 7.44 12.45 20.72 3.41 30.65-2.17 2.39-4.11 1.89-5.79-.19-3.03-3.74-5.39-8.11-8.81-11.42-9.9-9.58-20.19-18.75-30.34-28.08-.71-.65-1.5-1.24-2.48-2.04z"/></g><path d="m6.4 11.7c-2-.8-1.9-1.6-2.9-2.3l.6-.7c.9.7 1.9 1.4 2.9 2.2zm-2.1 8.3c.7-2.1 1.4-4.2 2-6.4.2.1.6.3 1 .4-.7 2.3-1.3 4.4-1.9 6.4zm3-12.8c-1.1-.9-2.1-1.7-2.9-2.4l.6-.7c1 .8 2 1.5 3 2.4zm1.4-1.3v-.9h10.2v.9c-.9 4.2-2.3 7.3-4.1 9.4 1.3 1.4 3.2 2.7 5.7 4-.2.2-.4.5-.7.9-2.5-1.4-4.4-2.7-5.7-4.2-1.4 1.5-3.5 3-6.1 4.4 0 0 0 0-.1-.1-.3-.4-.5-.7-.7-.8 2.7-1.3 4.7-2.8 6.2-4.2-1.8-2.2-3-5.3-3.7-9.4zm9.2 0h-7.1c.6 3.8 1.7 6.7 3.4 8.7 1.7-2 2.9-4.8 3.7-8.7z" fill="#fbfcfa"/><path d="m31.6 3.6h.9v2.3h4.1v9.1h1.7v.9h-16.6v-.9h1.7v-9.1h4.1v-2.3h.9v2.3h3.1v-2.3zm-4 13.3.6.8c-1.9.9-3.8 1.9-5.8 2.8-.2-.3-.3-.6-.5-.9 2-.9 3.9-1.8 5.7-2.7zm-3.2-10.1v3.7h3.1v-3.7zm0 4.5v3.7h3.1v-3.7zm4.1-4.5v3.7h3.1v-3.7zm0 4.5v3.7h3.1v-3.7zm9.1 9.1c-2.1-1.1-4.1-2-5.8-2.7l.5-.8c2.2.9 4.1 1.8 5.8 2.6l-.4.9zm-1.9-13.6h-3.1v3.7h3.1zm-3.2 4.5v3.7h3.1v-3.7z" fill="#fbfcfa"/></svg>