<svg enable-background="new 0 0 400 400" viewBox="0 0 400 400" xmlns="http://www.w3.org/2000/svg"><g fill="#010102"><path d="m189.25 355.98c0-20.37 0-40.29 0-60.6-20.2 0-40.36 0-61.77 0 6.73 2.98 12.42 5.5 18.69 8.27-4.59 3.82-8.88 7.38-13.87 11.53 3.8 1.37 6.99 2.38 10.08 3.66 6.44 2.67 13.12 4.94 19.16 8.35 9.09 5.15 10.64 13.85 4.77 21.26-2.6 3.28-5.16 3.37-7.87.54-1.71-1.78-2.99-3.97-4.62-5.83-7.1-8.07-14.26-16.1-21.19-23.89-9.45 6.54-17.46 12.77-26.13 17.9-8.83 5.24-18.34 9.33-27.47 14.09-3.23 1.69-4.56.42-5.44-2.81 21.66-12.56 40.11-28.28 49.67-52.91-10.81 0-21.16-.1-31.51.06-2.96.05-5.93.71-8.85 1.33-3.05.65-5.34.03-7.51-2.42-2.64-2.98-5.75-5.54-8.34-9.6h5.49c72.33 0 144.65-.04 216.98.1 4.56.01 7.94-1.05 10.81-4.58 2.83-3.47 6.03-6.63 9.46-10.36 7.94 8.44 15.25 16.21 23.27 24.73-22.33 0-43.57 0-64.8 0-.11.33-.23.66-.34 1 5.91 3.04 11.81 6.09 17.77 9.16-4.63 4.29-8.97 8.3-13.93 12.9 6.04 2.21 11.31 3.67 16.13 6.03 6.36 3.11 12.79 6.38 18.39 10.63 5.29 4.01 3.63 14.45-2.44 17.15-1.43.64-4.66-1.05-6.13-2.57-3.93-4.05-7.27-8.65-11-12.9-2.41-2.75-5.04-5.32-7.67-7.87-2.5-2.43-5.13-4.72-8.07-7.42-13.34 13.59-28.86 23.86-46.49 31.53-.95-1.37-1.77-2.54-2.69-3.86 19.6-13.35 34.12-30.27 41.81-53.31-18.81 0-36.86 0-55.22 0v60.64h5.23c33.16 0 66.33-.05 99.49.08 3.49.01 5.95-1 8.23-3.55 4.2-4.7 8.63-9.19 12.69-13.47 9.26 9.31 17.91 18.01 26.86 27-1.63 0-3.5 0-5.38 0-91.82 0-183.65-.04-275.47.09-7.27.01-14.52 1.47-21.8 1.75-2.49.09-5.43-.83-7.49-2.26-3.59-2.5-6.66-5.75-10.96-9.6 50.67.03 99.9.03 149.47.03z"/><path d="m289.2 97.04c8.06 8.08 15.79 15.82 23.8 23.85-34.77 0-69.6 0-104.68 0v15.05h5.94c33.83 0 67.66-.16 101.49.15 5.7.05 9.89-1.32 13.31-5.74 1.61-2.08 3.57-3.88 5.05-5.45 7.33 7.36 14.22 14.27 20.23 20.29-6.14 4.22-13.52 8.4-19.8 13.85-6.24 5.41-11.38 12.09-17.06 18.27-3.73-.91-3.95-2.92-2.54-6.23 3.45-8.07 6.55-16.28 9.95-24.83-39.11 0-77.67 0-116.21 0 0 11.27-.51 22.39.15 33.44.58 9.63 1.17 9.61-7.67 13.45-3.48 1.51-6.98 2.96-10.77 4.56 0-17.3 0-34.14 0-51.34-37.02 0-74.25 0-111.5 0-1.3 5.04-2.19 10.29-4.02 15.19-3.88 10.42-11.92 15.48-22.89 14.48-2.36-.21-5.76-1.66-6.51-3.44-.87-2.09.09-5.45 1.25-7.76 1.14-2.27 3.28-4.28 5.42-5.77 10.74-7.46 16.13-18.34 19.54-30.41.99-3.51 2.45-4.85 6.44-3.44v10.41h112.49c0-4.74 0-9.32 0-14.61-1.78 0-3.54 0-5.3 0-18.33 0-36.67-.19-54.99.09-7.95.12-15.89 1.1-23.81 1.92-3.15.33-5.7.17-7.98-2.53-2.56-3.03-5.65-5.62-9.69-9.54h7.04c57.83 0 115.66-.04 173.49.09 4.33.01 7.55-1.01 10.38-4.34 3.02-3.53 6.47-6.64 9.45-9.66z"/><path d="m215.69 70.3c-19.48-.1-38.97-.21-58.45-.29-8.4-.04-16.8-.01-24.37-.01 5.62 3.04 12.19 5.62 17.58 9.75 7.82 5.98 6.89 17.5-1.08 23.06-4.39 3.06-7.2 2.27-9.13-2.77-2.26-5.89-4.23-11.88-6.55-17.74-4.45-11.23-12.98-15.47-24.47-12.12-1.67.49-3.06 1.93-4.56 2.95-19.42 13.13-38.83 26.26-58.43 39.52-1.67-2.03-2.57-3.12-3.66-4.46 27.05-23.51 53.85-46.96 71.22-79.64 8.09 3.91 16.23 7.83 24.83 11.99-7.89 6.27-15.42 12.26-22.96 18.24.15.39.31.77.46 1.16h6.25c17.66 0 35.33-.16 52.99.11 4.83.07 8.64-.98 11.95-4.53 2.25-2.41 4.91-4.44 8.17-7.33 6.77 7.48 13.43 14.85 20.09 22.22z"/><path d="m215.56 70.4c6.47-8.37 13.17-16.58 19.31-25.19 3.35-4.69 5.76-10.05 8.69-15.28 8.25 4.08 16.43 8.13 24.55 12.14-7.69 5.58-15.17 11.01-23.83 17.29 2.58.3 3.73.55 4.88.55 23.15.02 46.3.08 69.45-.09 2.06-.01 4.44-1.07 6.11-2.36 3.92-3.05 7.5-6.54 11.72-10.29 7.85 7.32 15.64 14.58 24.32 22.68-28.14 0-55.02 0-83.15 0 8.53 2.23 15.9 3.77 22.99 6.16 3.65 1.23 7.23 3.48 10.1 6.08 6.37 5.78 3.67 16.53-4.56 19.36-4.34 1.49-6.12-1.71-8.42-4.41-6.23-7.3-12.39-14.69-19.12-21.51-4.18-4.23-9.73-6.14-15.98-5.6-3.8.33-7.71.48-11.48-.02-9.56-1.26-17.43 1.97-24.82 7.75-7.59 5.94-15.67 11.26-23.31 17.14-3.01 2.32-5.45 2.7-8.53-.32 4.78-5.1 9.69-10.15 14.38-15.4 2.47-2.76 4.57-5.86 6.82-8.8.01.02-.12.12-.12.12z"/><path d="m231.64 265.99c-5.94 1.27-12.09 2.58-18.52 3.96-.17-2.19-.33-4.15-.52-6.53-9.52 0-19.08 0-28.64 0 .2.3.41.6.61.9-1.98 1.4-3.77 3.3-5.97 4.1-4.65 1.68-9.51 2.79-14.32 4.14 0-22.91 0-45.45 0-68.6 4.16 1.72 8.26 3.76 12.57 5.11 4.19 1.32 8.56 2.4 12.91 2.75 5.79.46 11.67-.17 17.48.21 4.14.27 6.94-.93 9.03-4.52 1.4-2.41 3.32-4.51 5.18-6.97 6.65 4.73 13 9.25 20.79 14.79-1.63.93-2.9 1.66-4.18 2.39-7.11 4.01-8.9 10.14-8.11 17.98 1 9.88 1.14 19.84 1.69 30.29zm-19.23-13.19c0-10.51 0-20.54 0-30.52-9.86 0-19.29 0-28.81 0v30.52z"/><path d="m305.76 263.19c-10.71 0-20.99 0-31.28 0 .22.4.43.8.65 1.2-2.6 1.58-5.05 3.52-7.83 4.66-3.82 1.56-7.88 2.51-11.49 3.62 0-22.33 0-44.67 0-67.45 2.88 1.09 6.07 2.65 9.45 3.48 5.39 1.33 10.9 2.2 16.37 3.2.97.18 1.99.03 2.99.03 5.66 0 11.32.18 16.97-.05 6.86-.28 7.03-8.18 12.12-11 5.8 4.46 11.69 9 17.49 13.47-.16.62-.14 1.08-.34 1.23-7.29 5.02-8.62 12.1-7.8 20.4.81 8.25.67 16.59 1.13 24.89.14 2.56-.42 3.88-3.16 4.57-4.95 1.23-9.78 2.95-14.89 4.54-.12-2.35-.24-4.32-.38-6.79zm-32.01-10.66h31.87c0-10.32 0-20.23 0-30.33-10.73 0-21.16 0-31.87 0z"/><path d="m132.52 200.52c5.75 4.78 11.11 9.23 16.52 13.73-.21.58-.23 1.21-.54 1.42-7.07 4.81-8.05 11.68-7.56 19.61.56 9.09.13 18.23.13 27.93-4.86 1.51-10.53 3.28-16.6 5.17-.33-1.87-.6-3.38-.95-5.38-8.8 0-17.78-1.1-26.34.32-8.01 1.33-15.58 5.32-23.37 8.15 0-22.35 0-44.17 0-66.08.6.15 1.8.21 2.72.74 14.32 8.29 30.06 5.4 45.37 5.68 1.3.02 2.92-1.31 3.9-2.45 2.26-2.63 4.23-5.52 6.72-8.84zm-8.73 21.86c-10.96 0-21.48 0-32.05 0v30.17h32.05c0-10.18 0-19.97 0-30.17z"/><path d="m229.02 195.61c0-3.21 0-6.04 0-9.27h73.62v9.27c-24.49 0-49.01 0-73.62 0z"/><path d="m92.13 196.71c0-3.3 0-6.24 0-9.48h71.68v9.48c-23.76 0-47.48 0-71.68 0z"/><path d="m299.77 161.28v9.46c-23.49 0-46.76 0-70.44 0 0-3 0-6.05 0-9.46z"/><path d="m95.02 170.69c0-3.25 0-6.19 0-9.44h68.78v9.44c-22.74 0-45.48 0-68.78 0z"/></g><path d="m6.4 11.7c-2-.8-1.9-1.6-2.9-2.3l.6-.7c.9.7 1.9 1.4 2.9 2.2zm-2.1 8.3c.7-2.1 1.4-4.2 2-6.4.2.1.6.3 1 .4-.7 2.3-1.3 4.4-1.9 6.4zm3-12.8c-1.1-.9-2.1-1.7-2.9-2.4l.6-.7c1 .8 2 1.5 3 2.4zm1.4-1.3v-.9h10.2v.9c-.9 4.2-2.3 7.3-4.1 9.4 1.3 1.4 3.2 2.7 5.7 4-.2.2-.4.5-.7.9-2.5-1.4-4.4-2.7-5.7-4.2-1.4 1.5-3.5 3-6.1 4.4 0 0 0 0-.1-.1-.3-.4-.5-.7-.7-.8 2.7-1.3 4.7-2.8 6.2-4.2-1.8-2.2-3-5.3-3.7-9.4zm9.2 0h-7.1c.6 3.8 1.7 6.7 3.4 8.7 1.7-2 2.9-4.8 3.7-8.7z" fill="#fbfcfa"/><path d="m31.6 3.6h.9v2.3h4.1v9.1h1.7v.9h-16.6v-.9h1.7v-9.1h4.1v-2.3h.9v2.3h3.1v-2.3zm-4 13.3.6.8c-1.9.9-3.8 1.9-5.8 2.8-.2-.3-.3-.6-.5-.9 2-.9 3.9-1.8 5.7-2.7zm-3.2-10.1v3.7h3.1v-3.7zm0 4.5v3.7h3.1v-3.7zm4.1-4.5v3.7h3.1v-3.7zm0 4.5v3.7h3.1v-3.7zm9.1 9.1c-2.1-1.1-4.1-2-5.8-2.7l.5-.8c2.2.9 4.1 1.8 5.8 2.6l-.4.9zm-1.9-13.6h-3.1v3.7h3.1zm-3.2 4.5v3.7h3.1v-3.7z" fill="#fbfcfa"/></svg>