<svg enable-background="new 0 0 400 400" viewBox="0 0 400 400" xmlns="http://www.w3.org/2000/svg"><path d="m5.17 384 .56-.58c.85.61 1.65 1.24 2.4 1.87l-.59.64c-.84-.73-1.63-1.38-2.37-1.93m1.22 9.53-.82-.34c.71-1.76 1.37-3.64 1.98-5.63.24.13.5.25.76.36-.6 1.67-1.24 3.54-1.92 5.61m-.5-13.5.57-.54c.56.44 1.31 1.06 2.26 1.87l-.64.64c-.68-.66-1.41-1.32-2.19-1.97m3.25.46h2.24v-1.36h.77v1.36h4.57v-1.36h.76v1.36h2.28v.69h-2.28v1.84h-2.64v1.26h4.18v2.64h-4.21c0 .45-.02.86-.05 1.21h4.32v.69h-4.38c-.04.34-.1.75-.19 1.22h5.15v.69h-4.82c.87 1.19 2.51 1.92 4.93 2.19-.17.31-.3.57-.37.76-2.77-.49-4.52-1.41-5.26-2.76-.56 1.26-2.3 2.23-5.24 2.9-.12-.24-.26-.48-.43-.72 2.73-.55 4.38-1.34 4.96-2.38h-4.38v-.69h4.65c.1-.38.17-.79.21-1.22h-4.32v-.69h4.4c.03-.34.05-.75.05-1.21h-4.2v-2.64h4.23v-1.26h-2.69v-1.84h-2.24zm1.46 4.46v1.29h3.45c.01-.4.02-.57.01-.53v-.32-.45h-3.46zm1.55-2.59h4.57v-1.19h-4.57zm6.11 2.59h-3.42v.77c-.01.19-.01.37-.02.53h3.44z" fill="#fafbfc"/><path d="m32.63 379.16h.82v1.98h3.54v7.89h1.46v.78h-14.37v-.78h1.46v-7.89h3.54v-1.98h.82v1.98h2.73zm-3.49 11.48.5.73c-1.61.82-3.28 1.63-5 2.41-.13-.27-.28-.55-.44-.82 1.75-.72 3.4-1.49 4.94-2.32m-2.78-5.55h2.73v-3.18h-2.73zm0 3.95h2.73v-3.2h-2.73zm3.54-3.95h2.73v-3.18h-2.73zm0 3.95h2.73v-3.2h-2.73zm7.89 4.68c-1.84-.92-3.51-1.7-5.02-2.32l.45-.73c1.89.8 3.57 1.55 5.04 2.23zm-1.62-11.81h-2.73v3.18h2.73zm-2.73 7.13h2.73v-3.2h-2.73v3.19z" fill="#fafbfc"/><g fill="#000001"><path d="m42.69 370.55c-.97-1.92-1.77-3.49-1.96-3.88 15.33-13.03 30.92-25.03 45.05-38.56 25.28-24.2 39.57-54.42 44.06-89.03 1.85-14.3 2.71-28.79 3.04-43.22.5-21.65.13-43.32.13-64.98 0-1.79 0-3.58 0-5.89-3.55 0-6.67 0-9.79 0-14.33 0-28.68-.41-42.99.14-10.58.41-21.11 2.15-31.68 3.1-1.67.15-3.85-.29-5.09-1.31-3.39-2.8-6.41-6.06-9.58-9.14.18-.39.36-.79.53-1.18h6.23c88.98 0 177.96-.03 266.94.09 4.37.01 7.48-1.2 10.43-4.39 5.98-6.45 12.31-12.56 18.17-18.48 10.58 10.58 20.76 20.76 30.96 30.97-31.45 0-63.32 0-95.97 0v5.74c0 58.82-.07 117.64.05 176.46.03 12.47.52 24.96 1.22 37.41.26 4.56-1.01 7.34-5.08 9.53-5.67 3.05-11.01 6.71-16.9 10.37 0-79.87 0-159.19 0-238.9-32.02 0-64.38 0-97.29 0v5.47c-.04 24.49.23 48.99-.19 73.48-.42 24.37-4.14 48.26-12.14 71.41-9.99 28.9-29.52 50.26-53.94 67.45-12.62 8.89-26.07 16.6-39.17 24.8-1.52.94-3.2 1.62-5.04 2.54z"/><path d="m162.73 32.48c18.13 9.96 36.41 19.67 52.21 33.45 8.74 7.63 10.75 16.66 7.99 27.38-1.56 6.06-5.73 10.12-10.83 13.06-1.37.79-4.64-.02-5.98-1.25-2.12-1.95-3.92-4.67-4.87-7.4-7.06-20.46-20.5-36.64-34.69-52.34-1.34-1.48-2.72-2.92-4.03-4.42-3.28-3.75-3.27-3.75.2-8.48z"/></g></svg>