<svg enable-background="new 0 0 400 400" viewBox="0 0 400 400" xmlns="http://www.w3.org/2000/svg"><path d="m5.17 384 .56-.58c.85.61 1.65 1.24 2.4 1.87l-.59.64c-.84-.73-1.63-1.38-2.37-1.93m1.22 9.53-.82-.34c.71-1.76 1.37-3.64 1.98-5.63.24.13.5.25.76.36-.6 1.67-1.24 3.54-1.92 5.61m-.5-13.5.57-.54c.56.44 1.31 1.06 2.26 1.87l-.64.64c-.68-.66-1.41-1.32-2.19-1.97m3.25.46h2.24v-1.36h.77v1.36h4.57v-1.36h.76v1.36h2.28v.69h-2.28v1.84h-2.64v1.26h4.18v2.64h-4.21c0 .45-.02.86-.05 1.21h4.32v.69h-4.38c-.04.34-.1.75-.19 1.22h5.15v.69h-4.82c.87 1.19 2.51 1.92 4.93 2.19-.17.31-.3.57-.37.76-2.77-.49-4.52-1.41-5.26-2.76-.56 1.26-2.3 2.23-5.24 2.9-.12-.24-.26-.48-.43-.72 2.73-.55 4.38-1.34 4.96-2.38h-4.38v-.69h4.65c.1-.38.17-.79.21-1.22h-4.32v-.69h4.4c.03-.34.05-.75.05-1.21h-4.2v-2.64h4.23v-1.26h-2.69v-1.84h-2.24zm1.46 4.46v1.29h3.45c.01-.4.02-.57.01-.53v-.32-.45h-3.46zm1.55-2.59h4.57v-1.19h-4.57zm6.11 2.59h-3.42v.77c-.01.19-.01.37-.02.53h3.44z" fill="#fafbfc"/><path d="m32.63 379.16h.82v1.98h3.54v7.89h1.46v.78h-14.37v-.78h1.46v-7.89h3.54v-1.98h.82v1.98h2.73zm-3.49 11.48.5.73c-1.61.82-3.28 1.63-5 2.41-.13-.27-.28-.55-.44-.82 1.75-.72 3.4-1.49 4.94-2.32m-2.78-5.55h2.73v-3.18h-2.73zm0 3.95h2.73v-3.2h-2.73zm3.54-3.95h2.73v-3.18h-2.73zm0 3.95h2.73v-3.2h-2.73zm7.89 4.68c-1.84-.92-3.51-1.7-5.02-2.32l.45-.73c1.89.8 3.57 1.55 5.04 2.23zm-1.62-11.81h-2.73v3.18h2.73zm-2.73 7.13h2.73v-3.2h-2.73v3.19z" fill="#fafbfc"/><g fill="#000001"><path d="m190.9 142.13c10.8 4.91 20.74 9.43 30.7 13.97-.35.63-.43 1.03-.68 1.2-8.33 5.6-9.26 13.63-9.05 22.99.57 24.3.19 48.62.19 74.01 41.37-21.63 79.69-46.02 111.14-81.29 6.42 8.69 12.87 17.4 19.58 26.48-31.72 8.44-57.26 28.45-86 41.98-13.38 6.3-26.68 12.78-40.2 18.78-3.7 1.64-4.67 3.63-4.61 7.45.21 14.66.15 29.32.04 43.98-.12 14.74 6.42 21.94 21.25 22.18 18.49.3 36.99.12 55.48.13 10.5.01 20.99 0 31.49 0 9.5 0 15.73-3.69 18.43-12.78 2.25-7.56 3.32-15.55 4.17-23.43 1.18-11.04 1.67-22.16 2.47-33.51h4.49c.16.33.49.74.53 1.17 1.19 12.9 2.38 25.8 3.51 38.71 1.03 11.77 5.29 21.58 16.83 27.07-6.53 11.52-16.71 16.36-28.75 17.8-6.42.77-12.94.92-19.41.94-31.16.09-62.31.09-93.47-.01-4.3-.01-8.68-.35-12.89-1.19-16.23-3.23-24.16-13.1-24.18-29.84-.04-29.49.12-58.98-.05-88.47-.16-27.97-.65-55.94-.99-83.91-.03-1.15-.02-2.29-.02-4.41z"/><path d="m103.79 126.73c6.27 4.22 11.64 7.83 17.58 11.82-2.44 2.21-4.51 4.53-6.99 6.24-3.38 2.32-4.4 5.19-4.39 9.24.12 66.65.04 133.3.18 199.95.01 4.22-.88 6.59-5.1 8.11-5.26 1.89-10.22 4.64-15.69 7.2 0-73.4 0-146.22 0-220.01-17.47 21.41-34.82 42.29-55.75 59.82-4.08-2.39-2.52-4.59-.38-7.19 39.36-47.58 68.17-101.43 93.22-157.49 2.23-4.99 3.89-10.23 5.88-15.55.81.5 1.55.87 2.19 1.37 8.12 6.35 16.22 12.73 23.31 18.3-5.4 5.6-11.78 10.47-15.92 16.81-13.08 20.04-25.32 40.61-38.14 61.38z"/><path d="m172.74 108.3c-.56 9.5-.22 18.52-1.86 27.17-1.55 8.19-6.69 14.8-15.81 15.84-3.9.44-8.24-.46-11.99-1.82-3.93-1.43-4.17-4.79-1.57-9.2 4.06-6.86 9.02-13.37 11.94-20.69 4.77-11.93 8.2-24.39 12.2-36.62-.45-.25-.9-.5-1.35-.74h5.4c.56 5.64 1.11 11.2 1.69 17.1 1.87.09 3.49.24 5.12.24 50.13.01 100.27-.03 150.4.09 3.58.01 5.85-1.05 7.77-4.03 2.6-4.04 5.62-7.8 8.71-12.03 8.44 7.96 16.64 15.69 25.32 23.88-11.59 2.37-19.51 9.64-26.78 17.52-7.2 7.81-13.78 16.18-20.69 24.38-3.09-.76-3.94-2.28-2.48-5.68 4.94-11.57 9.55-23.28 14.47-35.4-54.23-.01-107.9-.01-160.49-.01z"/><path d="m217.39 38.48c1.9-4 4.38-4.5 7.94-2.13 11.44 7.62 23.5 14.43 34.37 22.79 12.65 9.72 9.69 24.2-4.5 32.98-1.37.84-4.49.08-6.07-1-1.6-1.1-2.72-3.4-3.29-5.39-5.04-17.73-15.64-32.08-27.44-45.74-.41-.48-.71-1.05-1.01-1.51z"/></g></svg>