<svg enable-background="new 0 0 400 400" viewBox="0 0 400 400" xmlns="http://www.w3.org/2000/svg"><path d="m5.17 384 .56-.58c.85.61 1.65 1.24 2.4 1.87l-.59.64c-.84-.73-1.63-1.38-2.37-1.93m1.22 9.53-.82-.34c.71-1.76 1.37-3.64 1.98-5.63.24.13.5.25.76.36-.6 1.67-1.24 3.54-1.92 5.61m-.5-13.5.57-.54c.56.44 1.31 1.06 2.26 1.87l-.64.64c-.68-.66-1.41-1.32-2.19-1.97m3.25.46h2.24v-1.36h.77v1.36h4.57v-1.36h.76v1.36h2.28v.69h-2.28v1.84h-2.64v1.26h4.18v2.64h-4.21c0 .45-.02.86-.05 1.21h4.32v.69h-4.38c-.04.34-.1.75-.19 1.22h5.15v.69h-4.82c.87 1.19 2.51 1.92 4.93 2.19-.17.31-.3.57-.37.76-2.77-.49-4.52-1.41-5.26-2.76-.56 1.26-2.3 2.23-5.24 2.9-.12-.24-.26-.48-.43-.72 2.73-.55 4.38-1.34 4.96-2.38h-4.38v-.69h4.65c.1-.38.17-.79.21-1.22h-4.32v-.69h4.4c.03-.34.05-.75.05-1.21h-4.2v-2.64h4.23v-1.26h-2.69v-1.84h-2.24zm1.46 4.46v1.29h3.45c.01-.4.02-.57.01-.53v-.32-.45h-3.46zm1.55-2.59h4.57v-1.19h-4.57zm6.11 2.59h-3.42v.77c-.01.19-.01.37-.02.53h3.44z" fill="#fafbfc"/><path d="m32.63 379.16h.82v1.98h3.54v7.89h1.46v.78h-14.37v-.78h1.46v-7.89h3.54v-1.98h.82v1.98h2.73zm-3.49 11.48.5.73c-1.61.82-3.28 1.63-5 2.41-.13-.27-.28-.55-.44-.82 1.75-.72 3.4-1.49 4.94-2.32m-2.78-5.55h2.73v-3.18h-2.73zm0 3.95h2.73v-3.2h-2.73zm3.54-3.95h2.73v-3.18h-2.73zm0 3.95h2.73v-3.2h-2.73zm7.89 4.68c-1.84-.92-3.51-1.7-5.02-2.32l.45-.73c1.89.8 3.57 1.55 5.04 2.23zm-1.62-11.81h-2.73v3.18h2.73zm-2.73 7.13h2.73v-3.2h-2.73v3.19z" fill="#fafbfc"/><g fill="#000001"><path d="m126.48 343.56h107.01c0-23.93 0-47.34 0-70.78-.21-.17-.46-.55-.7-.55-19.09.03-38.3-1.88-57.13 2.89-3.48.88-5.84.27-8.2-2.49-2.36-2.75-5.33-4.97-8.03-7.43.18-.47.36-.93.54-1.4h73.57c0-19.92 0-38.99 0-58.41-1.16-.13-2.26-.37-3.36-.37-15-.02-30-.37-44.98.15-8.58.3-17.11 2.14-25.69 3-1.79.18-4.1-.4-5.49-1.5-3.33-2.62-6.26-5.76-9.35-8.7.2-.46.41-.92.61-1.38h5.72c50.48 0 100.97-.04 151.45.08 3.8.01 6.57-.98 9.14-3.81 4.69-5.18 9.7-10.07 14.22-14.7 9.11 9.1 17.88 17.86 26.77 26.74-32.51 0-65.23 0-98.26 0v58.7c10.05 0 20.05-.59 29.95.18 8.58.66 15.1-1.57 20.28-8.49 2.47-3.31 5.67-6.08 8.19-8.73 8.64 8.63 16.94 16.93 25.35 25.34-27.6 0-55.6 0-83.85 0v71.46c1.57.08 3.16.24 4.74.24 20.16.02 40.32.12 60.48-.13 2.47-.03 5.43-1.36 7.28-3.05 5.4-4.93 10.36-10.35 15.11-15.18 9.03 9.05 17.8 17.83 26.73 26.78-1.2 0-2.91 0-4.62 0-64.15 0-128.29-.14-192.44.14-10.23.05-20.48 1.77-30.65 3.19-2.65.37-4.23.11-6.04-1.75-2.89-2.96-6.07-5.63-9.13-8.42.27-.55.53-1.09.78-1.62z"/><path d="m88.8 370.24c0-71.48 0-142.33 0-214.01-15.23 24.37-32.35 46.4-54.47 64.2-3.6-2.55-2.28-4.67-.41-7.21 29.7-40.46 52.7-84.55 70.21-131.5 5.56-14.9 9.88-30.26 14.78-45.41.35-1.08.79-2.14 1.4-3.76 9.4 6.1 18.51 12.02 27.92 18.13-.79.85-1.12 1.47-1.64 1.75-7.85 4.19-11.22 11.51-14.65 19.27-8.71 19.74-18.11 39.18-27.23 58.75-.27.59-.46 1.22-.81 2.17 4.5 3.66 8.99 7.3 13.52 10.99-.2.57-.21 1.22-.52 1.43-7.04 4.81-7.69 11.68-7.64 19.6.31 47.81.03 95.63.23 143.44.07 15.79 1.03 31.57 1.42 47.35.04 1.55-.62 3.97-1.73 4.57-6.66 3.62-13.54 6.85-20.38 10.24z"/><path d="m297.89 172.95c0-7.12 0-13.23 0-19.64-35.13 0-69.89 0-105.48 0 0 2.02-.3 4.15.06 6.17.93 5.22-1.43 7.91-6.1 9.72-4.29 1.66-8.32 4.01-12.98 6.3 0-41.82 0-83.11 0-125.12 6.13 3.05 12.08 6.23 18.23 8.95 2.79 1.23 5.99 2.16 9 2.17 29.66.16 59.33.04 88.99.17 3.6.02 6.34-.73 8.74-3.56 3.22-3.8 6.81-7.29 10.65-11.36 7.34 6.83 14.21 13.22 21.64 20.14-4.02 2.07-7.78 3.71-11.18 5.91-1.49.97-3.17 3.11-3.15 4.7.34 27.13.96 54.25 1.4 81.38.02 1.23-.66 3.04-1.6 3.61-5.64 3.45-11.46 6.62-18.22 10.46zm-105.03-102.81v74.1h104.68c0-24.91 0-49.46 0-74.1-35.03 0-69.67 0-104.68 0z"/></g></svg>