<svg enable-background="new 0 0 400 400" viewBox="0 0 400 400" xmlns="http://www.w3.org/2000/svg"><g fill="#fcfbfa"><path d="m37.59 393.81c-.92.31-1.52.05-2-.78-.7-1.2-1.52-2.34-2.47-3.78v4.59c-.55.03-.95.05-1.41.07-.03-.37-.06-.64-.06-.91 0-1.91 0-3.81 0-5.7 1.13-.41 1.77-.03 2.29.91.62 1.11 1.38 2.14 2.31 3.19v-4.2h1.35v6.61z"/><path d="m12.94 393.88v-6.75c1.9.19 3.93-.54 5.37 1.29.8 1.01.78 2.88.03 3.97-1.37 1.97-3.4 1.51-6.4 1.49m2.45-1.22c2.04.12 2.92-.58 2.89-2.21-.03-1.51-.98-2.19-2.89-2z"/><path d="m11.81 393.87h-5.49c.68-2.18 2.47-3.48 3.51-5.45h-3.08v-1.21h5.29c-.71 2.13-2.44 3.48-3.47 5.51.86 0 1.63.04 2.39-.01.79-.05 1.14.21.85 1.16"/><path d="m39.33 393.86v-6.61h3.7v1.07h-2.22v1.52c.68.04 1.34.09 2.07.13v1.07c-.72.05-1.38.09-2.1.14v1.48h2.4v1.19h-3.85z"/><path d="m27.71 388.56c-1.15-.3-2.46-.61-3.1.64-.37.73-.41 1.93-.06 2.67.63 1.35 1.99.93 3.17.68.35.94-.01 1.32-.93 1.46-1.62.25-3.05-.27-3.76-1.48-.73-1.24-.6-3.03.31-4.17.88-1.11 2.71-1.7 4-1.16.32.13.44.74.65 1.12-.1.08-.19.16-.28.24"/><path d="m49.15 387.24v1.07c-.59.02-1.17.05-1.87.08v5.44h-1.48v-5.44h-1.85c-.05-.4-.08-.73-.13-1.15z"/><path d="m20.06 387.21h1.33v6.62h-1.33z"/><path d="m30.68 393.25c-.39.38-.8.79-1.05.76-.32-.05-.6-.45-.9-.7.26-.24.51-.64.8-.67.29-.04.62.3 1.15.61"/></g><path d="m210.21 268.84v70.47c1.86.1 3.62.27 5.38.27 30.66.02 61.32.09 91.97-.13 2.61-.02 5.77-1.43 7.71-3.23 6.83-6.33 13.25-13.11 19.48-19.37 10.42 10.4 20.63 20.6 31.2 31.15-1.68 0-3.54 0-5.41 0-92.98 0-185.95-.11-278.93.15-10.56.03-21.1 2.13-31.67 3.15-1.43.14-3.36.02-4.33-.82-3.48-3.03-6.65-6.42-11.02-10.74h155.07c0-23.83 0-46.92 0-70.73-1.8 0-3.56 0-5.31 0-23.49 0-46.99-.33-70.48.15-10.23.21-20.43 2.14-30.65 3.2-1.31.13-3.09.15-3.95-.59-3.62-3.11-6.97-6.53-10.42-9.84.17-.4.34-.79.5-1.19h120.02c0-21.56 0-42.44 0-63.83 10.5 5 20.93 9.98 32.02 15.27-3.28 2.94-6.27 5.42-9 8.15-1.07 1.06-2.22 2.67-2.24 4.05-.18 11.82-.1 23.64-.1 35.97 2.05.09 3.82.24 5.6.24 20.99.02 41.99.13 62.98-.14 2.61-.03 5.72-1.49 7.69-3.29 5.77-5.27 11.07-11.05 16.13-16.2 9.49 9.48 18.71 18.7 27.89 27.88-39.42 0-79.57 0-120.13 0z" fill="#010104"/><path d="m221.83 32.84c10.67 4.42 21.5 8.92 33 13.69-3.67 2.92-7.08 5.45-10.26 8.25-1.12.98-2.38 2.59-2.39 3.92-.15 20.95-.1 41.91-.1 63.75 31.28-13.53 61.84-26.81 87.69-49.38 7.48 8.42 14.85 16.7 22.72 25.54-36.45 4.98-69.61 18.77-103.65 29.54-5.16 1.63-7.18 3.86-6.94 9.66.57 13.97-.08 27.99.33 41.97.15 5.03 1.37 10.2 3.08 14.95 1.77 4.92 6.04 7.3 11.43 7.3 20.99-.01 41.98-.1 62.97.08 4.1.03 5.93-2.5 7.87-5.16 5.19-7.13 6.68-15.46 7.33-23.97.96-12.41 1.73-24.84 2.6-37.61h6.27c.77 9.35 1.39 18.76 2.36 28.13.54 5.27 1.41 10.53 2.58 15.7 1.91 8.45 7.7 13.73 15.53 17.22-6.01 11.99-15.61 18.63-28.4 20.63-4.74.74-9.6.92-14.4.94-23.32.09-46.64.09-69.96-.01-3.8-.02-7.68-.36-11.38-1.2-11.81-2.67-18.12-10.93-18.14-23.43-.06-44.64-.08-89.29-.12-133.93-.03-8.66-.02-17.29-.02-26.58z" fill="#010104"/><path d="m190.52 166.69c2.41 3.54 1.84 5.2-1.85 7.11-24.93 12.89-49.85 25.8-74.44 39.32-7.48 4.11-13.89 10.16-21.2 15.63-4.42-6.81-9.31-14.23-14.01-21.76-.5-.8-.04-2.32.2-3.46 1.5-7.26 4.34-14.49 4.41-21.76.37-39.15.05-78.3-.02-117.45-.02-10.43 0-20.85 0-31.4 10.17 4.22 21.27 8.83 34.09 14.16-4.18 3.63-7.77 6.55-11.1 9.76-1.2 1.16-2.45 2.99-2.47 4.53-.19 16.81-.13 33.63-.13 51.22h6.54c11.5 0 23 .16 34.49-.13 2.35-.06 5.15-1.26 6.88-2.86 4.99-4.6 9.53-9.68 13.77-14.08 8.77 8.77 17.05 17.05 25.38 25.38-28.59 0-57.49 0-86.72 0v75.9c28.68-10.02 57.22-19.99 86.18-30.11z" fill="#010104"/></svg>