<svg enable-background="new 0 0 400 400" viewBox="0 0 400 400" xmlns="http://www.w3.org/2000/svg"><g fill="#010100"><path d="m146.37 181.27c-.13 1.95-.23 3.43-.36 5.3-2.73.76-5.54 1.61-8.39 2.33-2.69.68-5.42 1.23-7.64 1.72 0-31.56 0-63.07 0-94.5 6.22 2.12 12.48 5.42 19.04 6.21 9 1.09 18.24.27 27.67.27 0-8.56 0-16.66 0-25.08-9.23 0-18.63-.07-28.03.05-2.47.03-5.17.08-7.37 1.03-10.93 4.75-17.67-.58-23.58-9.84h58.76c0-12.28 0-23.85 0-36.12 9.03 3.57 17.99 7.12 28.69 11.36-12.95 4.55-13.48 13.74-11.49 24.57 7.44 0 15.22.11 22.98-.11 1.23-.03 2.58-1.37 3.58-2.39 3.4-3.42 6.67-6.97 9.57-10.04 7.26 7.29 14.1 14.17 20.7 20.8-18.27 0-37.49 0-57.08 0v25.74c8.66 0 17.29.17 25.9-.16 1.57-.06 3.2-2.05 4.54-3.41 1.97-1.99 3.71-4.21 5.76-6.58 6.6 5.2 12.95 10.2 20.48 16.13-1.29.47-1.95.66-2.57.94-7.32 3.25-8.73 9.01-8.29 16.57 1 17.26 1.23 34.57 1.64 51.86.03 1.2-.73 3.09-1.65 3.53-4.77 2.26-9.71 4.16-14.98 6.34-.21-2.45-.37-4.36-.56-6.53-10.02 0-19.96 0-30.27 0v26.67c12.12 2.37 23 1.43 29.15-10.62 6.86 6.84 13.18 13.14 19.58 19.53-15.86 0-32.19 0-49.42 0 .46 8.56.75 16.48 1.37 24.37.28 3.53-.5 5.47-4.35 6.26-4.48.91-8.81 2.59-13.27 3.97 0-11.63 0-22.71 0-34.32-14.73-.13-29.75-1.36-44.34 2.4-5.99 1.54-9.59.25-13.2-4.14-1.63-1.98-4.09-3.28-6.18-4.89.34-.56.69-1.12 1.03-1.69h62.86c0-9.52 0-18.39 0-27.54-10.01.01-19.92.01-30.28.01zm.2-70.12v26.12h30.09c0-8.88 0-17.43 0-26.12-10.12 0-19.89 0-30.09 0zm30.07 61.08c0-8.9 0-17.45 0-25.9-10.26 0-20.15 0-30.24 0v25.9zm46.97-34.95c0-8.85 0-17.38 0-26.03-10.23 0-20.13 0-30.21 0v26.03zm-30.17 8.86v26.11h30.13c0-8.89 0-17.43 0-26.11-10.15 0-19.93 0-30.13 0z"/><path d="m232.54 261.76c-1.36-.79-2.48-1.45-4.01-2.34 2.73-4.78 5.39-9.32 7.94-13.91 12.87-23.2 19.68-48.2 21.42-74.54 1.25-18.91 2.36-37.85 2.53-56.79.17-18.95-.91-37.91-1.42-56.86-.04-1.62-.01-3.24-.01-5.74 4.83 3.26 9.24 5.86 13.19 9.04 3.56 2.86 6.95 3.85 11.43 2.37 14.48-4.77 29.16-8.96 43.54-14 5.55-1.95 10.51-5.57 16.32-8.75 4.28 6.83 8.71 13.9 13.61 21.71-6.75.39-12.66.51-18.52 1.11-19.5 1.98-38.98 4.08-58.45 6.31-.99.11-2.57 1.78-2.57 2.73-.16 17.61-.11 35.23-.11 53.5h6.41c15.33 0 30.67.15 45.99-.15 2.63-.05 5.69-1.48 7.73-3.23 3.88-3.33 7.17-7.35 11.15-11.54 6.92 7.9 13.3 15.18 20.35 23.22-13.52 0-25.93 0-38.61 0-.17 1.44-.42 2.54-.42 3.64.04 31.16.06 62.32.19 93.49.02 4.98.68 9.95.79 14.93.03 1.3-.49 3.32-1.41 3.81-5.62 3.05-11.42 5.75-17.37 8.68 0-41.73 0-82.78 0-124.14-11.27 0-22.68 0-34.58 0 2.48 48.44-12.44 90.83-45.11 127.45z"/><path d="m35.21 345.47h152.06c0-15.58 0-30.67 0-46.23-1.82-.08-3.57-.23-5.33-.23-20.66-.02-41.33-.36-61.98.13-10.91.26-21.77 2.1-32.67 2.97-1.95.15-4.4-.48-5.93-1.65-3.27-2.48-6.09-5.56-9.1-8.39.18-.4.35-.8.53-1.21h114.03c0-12.87 0-25.06 0-37.81 9.79 3.99 19.9 8.1 31.59 12.86-12.75 4.57-14.2 13.51-11.66 24.48 1.36.06 2.99.19 4.61.19 21.66.01 43.33.11 64.99-.13 2.47-.03 5.43-1.38 7.28-3.09 5.38-4.95 10.31-10.4 15.16-15.39 9.12 9.06 17.84 17.72 26.93 26.75-39.73 0-79.36 0-119.32 0v46.62c1.79.09 3.41.23 5.04.23 31.16.01 62.32-.04 93.48.08 3.49.01 5.93-1.07 8.25-3.57 5.31-5.7 10.85-11.18 15.95-16.4 9.7 9.67 18.87 18.81 28.39 28.31-1.7 0-3.58 0-5.45 0-89.48 0-178.97-.11-268.45.14-11.39.03-22.77 2.1-34.18 2.96-1.94.15-4.39-.54-5.91-1.74-3.21-2.54-5.96-5.66-8.9-8.55.21-.43.4-.88.59-1.33z"/><path d="m41.81 202.19c.08-1.45.16-2.91.27-5.03 7.79 0 15.38.26 22.94-.09 4.97-.23 8.64-3.14 10.96-7.6 9.91-19 19.85-37.99 29.72-57.01 2.51-4.83 4.77-9.79 7.22-14.86 3.57.98 4.14 2.55 2.96 5.79-7.89 21.66-15.21 43.53-23.42 65.07-7.11 18.65-6.39 37.7-4.81 56.95.3 3.64.6 7.32.32 10.94-.39 5.06-3.62 6.96-8.35 5.1-6.46-2.53-13.96-4.44-14.38-13.14-.21-4.36 1.28-8.8 2-13.2.59-3.58 1.23-7.16 1.74-10.75 1.14-8.02-2.71-13.07-9.85-15.89-5.52-2.18-11.16-4.06-17.32-6.28z"/><path d="m36.44 99.13c1.49-.16 3.29-.94 4.41-.38 10.38 5.21 21.05 9.99 30.82 16.18 13.04 8.25 13.8 24.43 2.34 35-.77.71-2.79.43-4.07.06-.76-.22-1.41-1.41-1.79-2.3-7.63-17.62-19.2-32.57-31.71-48.56z"/><path d="m67.58 44.12c3-.13 5.51-1.05 6.84-.17 9.42 6.16 19.06 12.12 27.73 19.24 9.67 7.94 9.82 19.55 1.62 29.03-4.93 5.69-7.72 5.05-11.05-1.95-5.02-10.6-10.22-21.12-15.68-31.5-2.44-4.64-5.69-8.87-9.46-14.65z"/></g><path d="m6.45 374.46.42-.45c.65.47 1.27.95 1.85 1.44l-.45.49c-.66-.56-1.26-1.06-1.83-1.48m.93 7.33-.63-.26c.55-1.36 1.05-2.8 1.52-4.33.19.1.38.19.59.27-.46 1.29-.95 2.73-1.48 4.32m-.38-10.38.44-.42c.43.34 1.01.82 1.74 1.44l-.49.49c-.53-.51-1.09-1.01-1.69-1.51m2.5.35h1.72v-1.04h.59v1.04h3.52v-1.04h.59v1.04h1.75v.53h-1.75v1.42h-2.03v.97h3.22v2.03h-3.24c0 .35-.01.66-.03.93h3.32v.53h-3.37c-.03.27-.08.58-.15.94h3.96v.53h-3.71c.67.92 1.93 1.48 3.79 1.68-.13.24-.23.44-.29.59-2.13-.38-3.48-1.08-4.04-2.12-.43.97-1.77 1.72-4.03 2.23-.09-.19-.2-.37-.33-.55 2.1-.42 3.37-1.03 3.81-1.83h-3.36v-.53h3.58c.08-.29.13-.61.16-.94h-3.33v-.53h3.39c.02-.27.04-.58.04-.93h-3.23v-2.03h3.25v-.97h-2.07v-1.42h-1.73zm1.12 3.44v1h2.65c.01-.3.02-.44.01-.4v-.25-.35zm1.19-2h3.52v-.91h-3.52zm4.71 2h-2.63v.59c0 .15-.01.28-.01.4h2.64z" fill="#fafafc"/><path d="m13.55 383.74h.63v1.52h2.72v6.07h1.13v.6h-11.05v-.6h1.13v-6.07h2.73v-1.52h.63v1.52h2.1v-1.52zm-2.68 8.83.38.56c-1.24.63-2.53 1.25-3.85 1.85-.1-.21-.21-.42-.34-.63 1.36-.55 2.63-1.15 3.81-1.78m-2.13-4.27h2.1v-2.45h-2.1zm0 3.04h2.1v-2.46h-2.1zm2.72-3.04h2.1v-2.45h-2.1zm0 3.04h2.1v-2.46h-2.1zm6.07 3.6c-1.41-.71-2.7-1.3-3.86-1.78l.35-.56c1.45.62 2.75 1.19 3.88 1.72zm-1.25-9.09h-2.1v2.45h2.1zm-2.09 5.49h2.1v-2.46h-2.1z" fill="#fafafc"/></svg>