<svg enable-background="new 0 0 400 400" viewBox="0 0 400 400" xmlns="http://www.w3.org/2000/svg"><path d="m5.17 384 .56-.58c.85.61 1.65 1.24 2.4 1.87l-.59.64c-.84-.73-1.63-1.38-2.37-1.93m1.22 9.53-.82-.34c.71-1.76 1.37-3.64 1.98-5.63.24.13.5.25.76.36-.6 1.67-1.24 3.54-1.92 5.61m-.5-13.5.57-.54c.56.44 1.31 1.06 2.26 1.87l-.64.64c-.68-.66-1.41-1.32-2.19-1.97m3.25.46h2.24v-1.36h.77v1.36h4.57v-1.36h.76v1.36h2.28v.69h-2.28v1.84h-2.64v1.26h4.18v2.64h-4.21c0 .45-.02.86-.05 1.21h4.32v.69h-4.38c-.04.34-.1.75-.19 1.22h5.15v.69h-4.82c.87 1.19 2.51 1.92 4.93 2.19-.17.31-.3.57-.37.76-2.77-.49-4.52-1.41-5.26-2.76-.56 1.26-2.3 2.23-5.24 2.9-.12-.24-.26-.48-.43-.72 2.73-.55 4.38-1.34 4.96-2.38h-4.38v-.69h4.65c.1-.38.17-.79.21-1.22h-4.32v-.69h4.4c.03-.34.05-.75.05-1.21h-4.2v-2.64h4.23v-1.26h-2.69v-1.84h-2.24zm1.46 4.46v1.29h3.45c.01-.4.02-.57.01-.53v-.32-.45h-3.46zm1.55-2.59h4.57v-1.19h-4.57zm6.11 2.59h-3.42v.77c-.01.19-.01.37-.02.53h3.44z" fill="#fafbfc"/><path d="m32.63 379.16h.82v1.98h3.54v7.89h1.46v.78h-14.37v-.78h1.46v-7.89h3.54v-1.98h.82v1.98h2.73zm-3.49 11.48.5.73c-1.61.82-3.28 1.63-5 2.41-.13-.27-.28-.55-.44-.82 1.75-.72 3.4-1.49 4.94-2.32m-2.78-5.55h2.73v-3.18h-2.73zm0 3.95h2.73v-3.2h-2.73zm3.54-3.95h2.73v-3.18h-2.73zm0 3.95h2.73v-3.2h-2.73zm7.89 4.68c-1.84-.92-3.51-1.7-5.02-2.32l.45-.73c1.89.8 3.57 1.55 5.04 2.23zm-1.62-11.81h-2.73v3.18h2.73zm-2.73 7.13h2.73v-3.2h-2.73v3.19z" fill="#fafbfc"/><g fill="#000001"><path d="m39.96 371.6c-.64-1.6-.89-2.03-.98-2.5-.23-1.13-.39-2.28-.41-2.39 26.72-4.67 53.46-8.59 79.86-14.18 26.46-5.61 51.87-14.75 75.81-27.5-.01-.51-.02-1.02-.03-1.53-28.81-4.22-57.62-8.44-87.07-12.76 11.86-14.78 23.47-29.25 35.53-44.28-1.5-.21-2.37-.44-3.25-.44-18.33-.02-36.67-.33-54.99.14-8.58.22-17.12 2.13-25.7 2.95-1.93.18-4.38-.47-5.9-1.64-3.26-2.51-6.06-5.6-9.05-8.45.14-.47.28-.95.42-1.42h5.58c30.83 0 61.66-.06 92.5.08 3.57.02 5.69-1.07 7.7-4.08 8.6-12.85 17.31-25.6 22.21-40.99 9.34 6.09 18.3 11.92 27.93 18.19-13.34 5.76-22.37 15.39-31.74 26.8h5.77c42.83 0 85.66-.04 128.49.07 3.46.01 5.93-.99 8.28-3.5 5.8-6.19 11.85-12.16 17.37-17.79 10.03 10.03 19.75 19.74 29.64 29.63-1.04 0-2.69 0-4.35 0-20.5 0-41-.06-61.5.09-2.09.02-4.63.81-6.17 2.15-18.73 16.24-37.32 32.66-55.94 49.04-.21.19-.25.57-.53 1.28 11.04 1.46 22.06 2.39 32.86 4.47 14.62 2.82 29.28 5.83 43.5 10.15 6.35 1.93 12.19 6.66 17.3 11.21 5.58 4.96 6.12 12.4 5.69 19.47-.3 4.86-2.82 6.34-7.55 4.91-3-.9-6.01-2.11-8.66-3.75-23.6-14.65-50.03-21.96-76.2-30.18-12.53-3.94-22.91-3.4-35.13 2.69-30.98 15.45-64.57 23.21-98.83 27.55-20.73 2.63-41.57 4.37-62.46 6.51zm220.42-105.6c-31.73 0-62.53-.04-93.33.11-1.67.01-3.77 1.17-4.93 2.46-8.24 9.15-16.32 18.43-24.36 27.75-2.77 3.2-5.29 6.62-8.19 10.26 25.75 2.49 50.69 4.97 75.64 7.2 2.02.18 4.62-.78 6.21-2.1 9.09-7.53 18.19-15.09 26.83-23.12 7.49-6.96 14.36-14.58 22.13-22.56z"/><path d="m56.65 172.52c-.93-1.67-1.56-2.79-1.83-3.27 10.65-8.16 21.31-15.85 31.43-24.18 20.41-16.8 30.39-39.13 32.61-65.05 1.39-16.22 2-32.5 3-49.32 9.77 3.98 19.84 8.07 29.87 12.16-.13.64-.09 1.08-.26 1.19-11.34 7.26-10.33 19.51-12.3 30.51-.93 5.21-1.55 10.47-2.48 16.9 20.02-12.36 38.2-25.17 52.67-43.45 5.63 7.95 11.04 15.59 16.78 23.7-23.87 3.88-44.71 14.35-65.48 25.1-3.6 1.87-6.2 4-7.41 8.01-.99 3.29-2.66 6.37-3.88 9.22 13.08 6.09 26.1 11.92 38.91 18.17 16.99 8.29 18.01 22.95 10.03 37.79-2.32 4.31-4.17 1.66-5.79-.58-5.33-7.41-9.91-15.48-16.01-22.19-9.14-10.06-19.32-19.17-29.6-29.22-16.66 27.62-41.88 42.69-70.26 54.51z"/><path d="m76.36 202.32c-.44 8.1-.53 15.89-1.39 23.59-.69 6.24-3.89 10.75-10.79 11.87-5.69.93-11.25 3.1-17.02.21-2.94-1.47-4.06-3.29-2.27-6.31 1.02-1.71 1.75-3.7 3.1-5.09 12.08-12.4 16.36-28.28 19.63-44.49.8-3.98 2.11-5.24 6.25-4.05.53 4.74 1.08 9.65 1.7 15.19 1.8.11 3.71.32 5.62.32 79.96.02 159.93-.01 239.89.08 3.62 0 6.23-.75 8.55-3.76 2.91-3.78 6.43-7.09 9.84-10.77 7.95 8.89 15.68 17.55 23.91 26.75-22.08 3.52-35.12 18.47-47.34 34.92-1.7-.79-3.3-1.53-5.42-2.52 5.72-12 11.32-23.76 17.14-35.96-84.37.02-168.17.02-251.4.02z"/><path d="m254.99 30.33c10.3 4.4 19.87 8.5 29.87 12.78-11.21 15.8-9.71 34.22-12.84 51.88 9.5-2.47 27.7-15.19 54.5-37.86 5.41 8.12 10.79 16.18 16.51 24.76-24.06 3.2-46.24 10.62-68.36 18.18-1.74.6-4.05 2.18-4.43 3.71-7.49 30.3-25.86 51.91-52.75 66.86-7.25 4.03-14.5 8.06-21.95 12.21-1.09-1.51-1.93-2.67-2.55-3.53 10.95-9.64 21.85-18.87 32.33-28.54 16.95-15.64 25.36-35.65 27.48-58.18 1.62-17.19 1.96-34.5 2.73-51.76.16-3.23-.31-6.49-.54-10.51z"/><path d="m263.97 124.65c.93-1.42 1.65-2.51 2.35-3.58.66 0 1.21-.15 1.62.02 13.63 5.62 27.42 10.93 40.8 17.1 5.62 2.59 10.78 6.58 15.45 10.72 5.97 5.28 7.47 12.35 5.2 20.03-1.22 4.11-2.5 8.24-4.21 12.17-1.54 3.54-4.1 4.19-6.96 1.11-1.02-1.09-2.26-2.1-2.93-3.38-11.42-21.87-30.63-36.43-48.74-52.02-.74-.65-1.51-1.27-2.58-2.17z"/><path d="m93 57.11c.09 13.98 1.34 28.1-2.23 41.92-3.43 13.27-13.39 19.46-25.07 16.18-7.66-2.15-8.76-5.31-3.89-11.76 4.89-6.46 10.79-12.32 14.68-19.32 3.81-6.84 5.87-14.71 8.27-22.27 1.78-5.6 1.47-5.7 8.24-4.75z"/><path d="m227.5 87.53c-.81 5.03-1.56 13.16-3.51 20.99-2.56 10.24-16.4 14.88-25.05 8.73-1.16-.82-2.05-3.18-1.78-4.58.46-2.35 1.59-4.78 3.06-6.69 9.4-12.24 14.73-26.28 18.73-40.97.6-2.21.82-4.56 4.25-4.24 3.44.32 2.74 2.7 2.88 4.73.42 6.31.81 12.61 1.42 22.03z"/></g></svg>