<svg enable-background="new 0 0 400 400" viewBox="0 0 400 400" xmlns="http://www.w3.org/2000/svg"><path d="m5.17 384 .56-.58c.85.61 1.65 1.24 2.4 1.87l-.59.64c-.84-.73-1.63-1.38-2.37-1.93m1.22 9.53-.82-.34c.71-1.76 1.37-3.64 1.98-5.63.24.13.5.25.76.36-.6 1.67-1.24 3.54-1.92 5.61m-.5-13.5.57-.54c.56.44 1.31 1.06 2.26 1.87l-.64.64c-.68-.66-1.41-1.32-2.19-1.97m3.25.46h2.24v-1.36h.77v1.36h4.57v-1.36h.76v1.36h2.28v.69h-2.28v1.84h-2.64v1.26h4.18v2.64h-4.21c0 .45-.02.86-.05 1.21h4.32v.69h-4.38c-.04.34-.1.75-.19 1.22h5.15v.69h-4.82c.87 1.19 2.51 1.92 4.93 2.19-.17.31-.3.57-.37.76-2.77-.49-4.52-1.41-5.26-2.76-.56 1.26-2.3 2.23-5.24 2.9-.12-.24-.26-.48-.43-.72 2.73-.55 4.38-1.34 4.96-2.38h-4.38v-.69h4.65c.1-.38.17-.79.21-1.22h-4.32v-.69h4.4c.03-.34.05-.75.05-1.21h-4.2v-2.64h4.23v-1.26h-2.69v-1.84h-2.24zm1.46 4.46v1.29h3.45c.01-.4.02-.57.01-.53v-.32-.45h-3.46zm1.55-2.59h4.57v-1.19h-4.57zm6.11 2.59h-3.42v.77c-.01.19-.01.37-.02.53h3.44z" fill="#fafbfc"/><path d="m32.63 379.16h.82v1.98h3.54v7.89h1.46v.78h-14.37v-.78h1.46v-7.89h3.54v-1.98h.82v1.98h2.73zm-3.49 11.48.5.73c-1.61.82-3.28 1.63-5 2.41-.13-.27-.28-.55-.44-.82 1.75-.72 3.4-1.49 4.94-2.32m-2.78-5.55h2.73v-3.18h-2.73zm0 3.95h2.73v-3.2h-2.73zm3.54-3.95h2.73v-3.18h-2.73zm0 3.95h2.73v-3.2h-2.73zm7.89 4.68c-1.84-.92-3.51-1.7-5.02-2.32l.45-.73c1.89.8 3.57 1.55 5.04 2.23zm-1.62-11.81h-2.73v3.18h2.73zm-2.73 7.13h2.73v-3.2h-2.73v3.19z" fill="#fafbfc"/><g fill="#000001"><path d="m188.21 72.67c-26.58 14.3-45.71 31.84-61.49 56.41 4.86 4.07 9.79 8.2 15.45 12.94-3.65 1.67-6.79 2.92-9.72 4.56-1.24.69-2.86 2.19-2.88 3.35-.23 10.27-.13 20.55-.13 32.54 19.78-10.63 38.41-20.64 57.28-30.78 1.07 1.41 2.26 2.98 3.74 4.94-10.02 6.39-19.81 12.59-29.56 18.87-9.23 5.95-18.33 12.11-27.66 17.9-2.94 1.82-3.9 3.87-3.89 7.26.11 40.66-.2 81.33.19 121.99.19 20.21-13.04 34.56-31.2 40.44-.75-9.49-7.65-14.38-14.73-18.75-5.78-3.57-12-6.45-18.2-9.26-3.1-1.4-4.61-3.05-3.25-7.05 5.33.34 10.89.63 16.44 1.06 6.63.51 13.24 1.23 19.87 1.67 5.99.4 8.63-1.51 10.12-7.31.61-2.39.98-4.92.98-7.38.06-35.16.04-70.33.03-105.49 0-1.12-.15-2.25-.31-4.51-20.13 12.67-40.36 23.71-57.21 40.37-6.27-7.65-12.63-15.41-19.3-23.56 26.04-7.22 49.24-19.11 72.71-30.39 3.17-1.52 4.31-3.36 4.2-6.86-.66-21.79-1.13-43.58-1.64-65.37-.02-.98.09-1.96.17-3.7 4.4 2.83 8.38 5.39 12.81 8.25 10.61-17.39 21.14-34.64 32.02-52.45-1.93-.14-3.32-.33-4.71-.33-23.16-.02-46.33-.1-69.49.06-4.78.03-9.64.62-14.32 1.63-5.2 1.12-9.3.41-12.73-3.98-1.37-1.76-3.62-2.83-5.48-4.22.31-.63.62-1.27.93-1.9h5.61c30.83 0 61.66-.08 92.49.09 4.39.02 7.58-.86 10.04-4.74 2.12-3.34 4.92-6.24 7.84-9.87 8.4 7.93 16.64 15.7 24.98 23.57z"/><path d="m258.23 36.41c11.61 5.34 22.56 10.38 33.93 15.61-1.55 1.34-2.42 2.46-3.56 3.02-8.38 4.15-9.4 11.1-9.37 19.75.31 80.81.18 161.63.18 242.44 0 4.63.36 9.29-.08 13.87-1.77 18.59-14.2 28.26-29.91 35.53-1.09-8.99-6.87-14.14-13.71-17.75-8.03-4.24-16.5-7.79-25.04-10.89-4.14-1.5-5.75-3.33-4.38-8.16 2.17.14 4.56.27 6.96.44 10.43.76 20.85 1.92 31.29 2.19 9.05.24 13.24-3.96 14.42-13.06.36-2.79.61-5.62.61-8.44.03-81.31.07-162.63-.03-243.94-.02-9.92-.83-19.85-1.31-30.61z"/><path d="m300.24 136.57c2.67.78 4.78.72 5.44 1.68 24.57 35.22 48.98 70.6 60.15 112.88 1.81 6.85 1.56 14.46 1.1 21.64-.58 8.98-6.11 15.6-12.88 21.1-3.38 2.74-6.3 1.32-7.52-2.15-1.52-4.33-2.29-8.96-3.08-13.52-8.2-47.17-21.65-92.75-41.32-136.45-.47-1.06-.8-2.18-1.89-5.18z"/><path d="m208.25 132.6c10.39 4.79 21.2 9.77 32.7 15.07-1.56 1.26-2.52 2.4-3.75 2.96-6.94 3.12-9.87 8.88-12.12 15.86-10.21 31.62-21.52 62.88-37.03 92.33-7.57 14.37-16.76 27.9-25.41 41.69-.76 1.21-2.93 1.54-4.45 2.27-.08-1.71-.81-3.73-.15-5.08 15.86-32.86 28.58-66.9 37.31-102.29 5.06-20.58 8.58-41.54 12.9-62.81z"/></g></svg>