<svg enable-background="new 0 0 400 400" viewBox="0 0 400 400" xmlns="http://www.w3.org/2000/svg"><path d="m5.17 384 .56-.58c.85.61 1.65 1.24 2.4 1.87l-.59.64c-.84-.73-1.63-1.38-2.37-1.93m1.22 9.53-.82-.34c.71-1.76 1.37-3.64 1.98-5.63.24.13.5.25.76.36-.6 1.67-1.24 3.54-1.92 5.61m-.5-13.5.57-.54c.56.44 1.31 1.06 2.26 1.87l-.64.64c-.68-.66-1.41-1.32-2.19-1.97m3.25.46h2.24v-1.36h.77v1.36h4.57v-1.36h.76v1.36h2.28v.69h-2.28v1.84h-2.64v1.26h4.18v2.64h-4.21c0 .45-.02.86-.05 1.21h4.32v.69h-4.38c-.04.34-.1.75-.19 1.22h5.15v.69h-4.82c.87 1.19 2.51 1.92 4.93 2.19-.17.31-.3.57-.37.76-2.77-.49-4.52-1.41-5.26-2.76-.56 1.26-2.3 2.23-5.24 2.9-.12-.24-.26-.48-.43-.72 2.73-.55 4.38-1.34 4.96-2.38h-4.38v-.69h4.65c.1-.38.17-.79.21-1.22h-4.32v-.69h4.4c.03-.34.05-.75.05-1.21h-4.2v-2.64h4.23v-1.26h-2.69v-1.84h-2.24zm1.46 4.46v1.29h3.45c.01-.4.02-.57.01-.53v-.32-.45h-3.46zm1.55-2.59h4.57v-1.19h-4.57zm6.11 2.59h-3.42v.77c-.01.19-.01.37-.02.53h3.44z" fill="#fafbfc"/><path d="m32.63 379.16h.82v1.98h3.54v7.89h1.46v.78h-14.37v-.78h1.46v-7.89h3.54v-1.98h.82v1.98h2.73zm-3.49 11.48.5.73c-1.61.82-3.28 1.63-5 2.41-.13-.27-.28-.55-.44-.82 1.75-.72 3.4-1.49 4.94-2.32m-2.78-5.55h2.73v-3.18h-2.73zm0 3.95h2.73v-3.2h-2.73zm3.54-3.95h2.73v-3.18h-2.73zm0 3.95h2.73v-3.2h-2.73zm7.89 4.68c-1.84-.92-3.51-1.7-5.02-2.32l.45-.73c1.89.8 3.57 1.55 5.04 2.23zm-1.62-11.81h-2.73v3.18h2.73zm-2.73 7.13h2.73v-3.2h-2.73v3.19z" fill="#fafbfc"/><g fill="#000001"><path d="m322.87 279.21c-19.82 0-38.94 0-58.39 0-.11 1.63-.3 3.08-.28 4.53.33 21.81.73 43.62.94 65.43.02 1.63-.83 4.14-2.04 4.78-5.84 3.08-11.95 5.67-17.89 8.39 0-27.72 0-55.12 0-82.93-18.88 0-38.11 0-58.13 0v5.05c0 23.5-.12 47 .11 70.5.04 4.03-1.18 5.98-4.89 7.28-4.97 1.73-9.75 4.02-14.77 6.14 1.7-79.03 1.56-157.55.19-236.58 2.76 1.33 5.82 2.46 8.51 4.18 7.45 4.73 15.44 6.07 24.2 5.74 13.15-.49 26.33-.13 39.49-.13h5.64c0-12.38 0-24.13 0-35.83-.36-.24-.63-.58-.89-.57-24.27.42-48.7-2.46-72.75 2.12-7.48 1.42-12.6.56-16.92-5.58-1.02-1.45-2.77-2.39-4.18-3.56.15-.43.31-.85.46-1.28h93.94c0-21.68 0-42.56 0-64.12 9.34 4 18.8 8.06 28.25 12.11-.25.68-.27 1.11-.47 1.22-8.15 4.68-9.61 11.9-8.98 20.69.7 9.61.16 19.3.16 29.47 1.87.12 3.47.32 5.08.32 15.5.02 31 .14 46.5-.12 2.33-.04 5.1-1.3 6.86-2.89 5.04-4.57 9.67-9.59 14.3-14.27 8.57 8.57 16.8 16.8 25.56 25.56-32.84 0-65.31 0-98.03 0v36.47c1.9.09 3.68.25 5.46.25 14.83.02 29.67-.1 44.5.09 3.85.05 6.59-.78 8.72-4.23 1.9-3.07 4.48-5.72 7.05-8.91 7.54 5.2 14.86 10.25 22.14 15.27-.29.66-.34 1.09-.54 1.19-9.2 4.45-10.66 11.91-10.58 21.6.48 54.16-.06 108.33.39 162.49.15 18.78-13.26 31.5-28.53 35.97-3.99-16.12-17.34-21.17-31.05-25.44-3.81-1.19-4.91-2.69-3.64-6.61 6.42.45 12.83.98 19.25 1.33 5.48.3 10.98.65 16.46.52 5.04-.12 8.67-3.26 8.73-7.86.18-15.79.06-31.59.06-47.78zm-77.3-65.8c-19.6 0-38.95 0-58.19 0v56.81h58.19c0-19.13 0-37.89 0-56.81zm18.84-.2v56.93h58.23c0-19.21 0-37.97 0-56.93-19.43 0-38.55 0-58.23 0zm-77.08-8.95h58.13c0-18.21 0-36.08 0-53.9-19.61 0-38.84 0-58.13 0zm77.09-.14h58.2c0-18.23 0-35.98 0-53.8-19.55 0-38.78 0-58.2 0z"/><path d="m60.17 278.85c7.62-1.86 14.55-3.44 21.39-5.33 1-.28 1.85-1.92 2.29-3.11.38-1.03.09-2.3.09-3.47-.04-66.15-.03-132.31-.15-198.46-.02-9.64-.62-19.28-.92-28.93-.07-2.1-.01-4.21-.01-7.07 10.11 4.33 19.5 8.36 28.84 12.36-.09.62-.03 1.07-.19 1.16-8 4.65-9.36 11.62-9.31 20.53.4 65.48.21 130.97.21 196.46v7.04c8.15-1.87 15.74-3.4 23.16-5.52 1.15-.33 2.15-3.36 2.16-5.15.12-35.99.09-71.99.09-107.98 0-12.62 0-25.24 0-38.02 8.7 4.15 18.16 8.66 27.92 13.31-.71.98-.97 1.65-1.46 1.98-7.53 5.07-8.4 12.31-8.29 20.81.43 33.32.07 66.65.22 99.98.06 13.81.78 27.62.89 41.43.01 1.84-1.32 4.41-2.83 5.41-4.94 3.28-10.25 5.99-16.21 9.37 0-11.78 0-22.81 0-34.89-27.15 9.11-54.38 15.57-76.68 34.48-4.33-7.33-8.8-14.67-12.95-22.17-.61-1.1.22-3.06.53-4.59.91-4.51 2.71-9.01 2.72-13.51.14-38.82.03-77.64-.15-116.47-.04-10.14-.55-20.28-.84-30.43-.04-1.59-.01-3.19-.01-5.32 9.56 4.32 18.57 8.38 27.52 12.42-.14.53-.13.77-.24.84-7.96 5.42-8 13.38-7.94 21.96.28 41.49.13 82.98.13 124.47.02 1.98.02 3.92.02 6.41z"/><path d="m286.7 42.17c.86-1.35 1.65-2.57 2.95-4.62 10.85 5.27 21.69 10.53 32.5 15.82 1.04.51 1.97 1.25 2.89 1.96 11.1 8.59 11.42 22.71.61 32.09-.78.68-3.05.8-3.73.19-1.67-1.52-3.24-3.44-4.11-5.52-6.36-15.3-17.04-27.24-29.14-38.12-.6-.53-1.18-1.08-1.97-1.8z"/></g></svg>