<svg enable-background="new 0 0 400 400" viewBox="0 0 400 400" xmlns="http://www.w3.org/2000/svg"><path d="m5.17 384 .56-.58c.85.61 1.65 1.24 2.4 1.87l-.59.64c-.84-.73-1.63-1.38-2.37-1.93m1.22 9.53-.82-.34c.71-1.76 1.37-3.64 1.98-5.63.24.13.5.25.76.36-.6 1.67-1.24 3.54-1.92 5.61m-.5-13.5.57-.54c.56.44 1.31 1.06 2.26 1.87l-.64.64c-.68-.66-1.41-1.32-2.19-1.97m3.25.46h2.24v-1.36h.77v1.36h4.57v-1.36h.76v1.36h2.28v.69h-2.28v1.84h-2.64v1.26h4.18v2.64h-4.21c0 .45-.02.86-.05 1.21h4.32v.69h-4.38c-.04.34-.1.75-.19 1.22h5.15v.69h-4.82c.87 1.19 2.51 1.92 4.93 2.19-.17.31-.3.57-.37.76-2.77-.49-4.52-1.41-5.26-2.76-.56 1.26-2.3 2.23-5.24 2.9-.12-.24-.26-.48-.43-.72 2.73-.55 4.38-1.34 4.96-2.38h-4.38v-.69h4.65c.1-.38.17-.79.21-1.22h-4.32v-.69h4.4c.03-.34.05-.75.05-1.21h-4.2v-2.64h4.23v-1.26h-2.69v-1.84h-2.24zm1.46 4.46v1.29h3.45c.01-.4.02-.57.01-.53v-.32-.45h-3.46zm1.55-2.59h4.57v-1.19h-4.57zm6.11 2.59h-3.42v.77c-.01.19-.01.37-.02.53h3.44z" fill="#fafbfc"/><path d="m32.63 379.16h.82v1.98h3.54v7.89h1.46v.78h-14.37v-.78h1.46v-7.89h3.54v-1.98h.82v1.98h2.73zm-3.49 11.48.5.73c-1.61.82-3.28 1.63-5 2.41-.13-.27-.28-.55-.44-.82 1.75-.72 3.4-1.49 4.94-2.32m-2.78-5.55h2.73v-3.18h-2.73zm0 3.95h2.73v-3.2h-2.73zm3.54-3.95h2.73v-3.18h-2.73zm0 3.95h2.73v-3.2h-2.73zm7.89 4.68c-1.84-.92-3.51-1.7-5.02-2.32l.45-.73c1.89.8 3.57 1.55 5.04 2.23zm-1.62-11.81h-2.73v3.18h2.73zm-2.73 7.13h2.73v-3.2h-2.73v3.19z" fill="#fafbfc"/><g fill="#000001"><path d="m238.96 220.93c-39.24 25.06-81.54 42.05-124.89 56.61-.6-.76-.96-1.1-1.18-1.52-.61-1.15-1.16-2.34-1.86-3.77 41.5-15.21 80.35-35.16 116.51-61.27-14.77-15.15-25.6-32.41-35.06-51.08-7.11 8.33-13.53 16.84-20.96 24.36-11.69 11.81-24 23.01-36.17 34.33-2.63 2.44-2.87 2.18-6.39-.71 14.89-15.32 27.64-32.32 38.61-50.58 10.94-18.23 22.04-36.42 28.18-57.78 10.1 5.49 20.21 10.99 30.78 16.73-10.92 4.87-18.57 12.46-25.83 22.36h6.27c21.99 0 43.99-.13 65.98.1 4.84.05 8.67-1 11.96-4.6 2.24-2.44 4.91-4.49 7.88-7.15 7.56 8.5 15 16.86 21.54 24.2-7.7 5.36-15.48 10.06-22.43 15.76-13.38 10.96-26.3 22.49-39.88 34.19 34.51 25.36 73.32 34.55 115.73 32.28.11.69.34 1.62.4 2.57.05.81-.08 1.63-.15 2.7-12.39 2.72-22.74 8.38-28.8 20.27-37.6-7.34-71.25-22.44-100.24-48zm43.84-62.23c-.34-.48-.68-.97-1.02-1.45-27.65 0-55.3 0-83.74 0 11.38 17.22 23.92 32.37 41.79 44.25 14.36-14.3 28.67-28.55 42.97-42.8z"/><path d="m36.26 370.85c-1.61-1.59-2.77-2.73-3.43-3.37 7.63-14.09 15.31-27.31 22.08-40.97 14.36-28.99 22.89-59.85 26.89-91.85 1.93-15.47 2.76-31.14 3.08-46.74.62-29.97.56-59.95.67-89.92.02-4.8-.53-9.59-.88-15.49 4.72 2.15 8.78 3.76 12.61 5.81 6 3.21 12.19 4.43 19.08 4.4 62.33-.21 124.66-.15 187-.05 3.77.01 6.56-.89 9.17-3.73 5.73-6.23 11.8-12.14 17.38-17.81 10.12 10.14 19.84 19.87 29.74 29.78-84.23 0-168.6 0-253.28 0-.08 1.92-.2 3.36-.2 4.8-.07 23.66.2 47.32-.25 70.97-.89 47.17-8.39 92.9-30.65 135.28-10.86 20.69-23.94 39.89-39.01 58.89z"/><path d="m167.75 314.08c.6-2.02 1.02-3.41 1.57-5.25 8.59 1.06 17.18 1.8 25.65 3.22 20.44 3.44 40.96 6.59 61.17 11.12 9.37 2.1 18.66 6.22 26.88 11.22 5.15 3.13 8.54 9.42 12.14 14.69 1.34 1.96 1.69 5.13 1.36 7.61-1.37 10.46-8.38 12.41-17.99 5.6-7.58-5.37-15.3-10.62-23.31-15.32-22.11-12.98-46.47-20.4-70.78-27.87-5.37-1.65-10.77-3.24-16.69-5.02z"/><path d="m204.65 257.57c.08-.36.37-1.78.87-4.12 6.21 1.17 12.4 1.95 18.39 3.53 11.5 3.04 23.02 6.14 34.26 9.99 5.06 1.74 9.59 5.19 14.17 8.16 9.45 6.14 9.6 18.2 5.82 26.3-2.9 6.22-5.94 6.41-10.98 1.76-7.8-7.2-15.33-14.86-23.92-21-12.1-8.63-25.06-16.06-38.61-24.62z"/><path d="m238.9 69.28c-1.14 7.94-4.86 14.14-10.66 18.91-1.16.95-4.25.71-5.73-.18-1.65-.99-3.03-3.19-3.6-5.14-5.03-17.07-14.92-31.38-25.4-45.36-1.34-1.79-3.14-3.67-.7-5.39 1.11-.79 3.7-.58 5.02.19 10.15 5.97 20.41 11.79 30.09 18.46 6.31 4.37 9.74 11.18 10.98 18.51z"/></g></svg>