<svg enable-background="new 0 0 400 400" viewBox="0 0 400 400" xmlns="http://www.w3.org/2000/svg"><path d="m5.17 384 .56-.58c.85.61 1.65 1.24 2.4 1.87l-.59.64c-.84-.73-1.63-1.38-2.37-1.93m1.22 9.53-.82-.34c.71-1.76 1.37-3.64 1.98-5.63.24.13.5.25.76.36-.6 1.67-1.24 3.54-1.92 5.61m-.5-13.5.57-.54c.56.44 1.31 1.06 2.26 1.87l-.64.64c-.68-.66-1.41-1.32-2.19-1.97m3.25.46h2.24v-1.36h.77v1.36h4.57v-1.36h.76v1.36h2.28v.69h-2.28v1.84h-2.64v1.26h4.18v2.64h-4.21c0 .45-.02.86-.05 1.21h4.32v.69h-4.38c-.04.34-.1.75-.19 1.22h5.15v.69h-4.82c.87 1.19 2.51 1.92 4.93 2.19-.17.31-.3.57-.37.76-2.77-.49-4.52-1.41-5.26-2.76-.56 1.26-2.3 2.23-5.24 2.9-.12-.24-.26-.48-.43-.72 2.73-.55 4.38-1.34 4.96-2.38h-4.38v-.69h4.65c.1-.38.17-.79.21-1.22h-4.32v-.69h4.4c.03-.34.05-.75.05-1.21h-4.2v-2.64h4.23v-1.26h-2.69v-1.84h-2.24zm1.46 4.46v1.29h3.45c.01-.4.02-.57.01-.53v-.32-.45h-3.46zm1.55-2.59h4.57v-1.19h-4.57zm6.11 2.59h-3.42v.77c-.01.19-.01.37-.02.53h3.44z" fill="#fafbfc"/><path d="m32.63 379.16h.82v1.98h3.54v7.89h1.46v.78h-14.37v-.78h1.46v-7.89h3.54v-1.98h.82v1.98h2.73zm-3.49 11.48.5.73c-1.61.82-3.28 1.63-5 2.41-.13-.27-.28-.55-.44-.82 1.75-.72 3.4-1.49 4.94-2.32m-2.78-5.55h2.73v-3.18h-2.73zm0 3.95h2.73v-3.2h-2.73zm3.54-3.95h2.73v-3.18h-2.73zm0 3.95h2.73v-3.2h-2.73zm7.89 4.68c-1.84-.92-3.51-1.7-5.02-2.32l.45-.73c1.89.8 3.57 1.55 5.04 2.23zm-1.62-11.81h-2.73v3.18h2.73zm-2.73 7.13h2.73v-3.2h-2.73v3.19z" fill="#fafbfc"/><g fill="#000001"><path d="m208.07 269.35v5.62c0 26.33-.11 52.67.12 79 .04 4.14-1.39 6.36-4.83 8.13-4.96 2.55-9.77 5.4-14.44 8.01 0-79.99 0-159.65 0-239.63 5.16 2.94 10.56 6.15 16.09 9.11 1.84.98 4 1.89 6.03 1.91 14.5.16 29 .09 43.5.07.97 0 1.93-.23 2.86-.34 0-36.13 0-72.03 0-108.54 9.99 4.07 19.9 8.11 30.52 12.44-2.37 2.2-4.04 4.31-6.19 5.61-4.61 2.79-5.47 6.7-5.42 11.79.24 24.16.11 48.33.11 72.5v6.57h9.37c11.83 0 23.67-.17 35.5.1 3.77.09 6.24-1.04 8.36-4.06 2.47-3.51 5.33-6.75 8.39-10.56 7.22 5.77 14.16 11.32 22.05 17.62-12.17 4.5-10.73 14.14-10.71 23.5.11 51.83.05 103.67.05 155.5 0 12.75-2.03 24.9-10.75 34.95-5.12 5.91-11.47 9.89-19.33 11.86-.76-7.62-5.39-12.59-11.44-15.57-8.3-4.08-17.07-7.27-25.79-10.42-5.32-1.92-5.45-1.57-4.72-7.93 8.63 1.29 17.23 2.78 25.89 3.79 5.57.65 11.23.8 16.85.77 4.98-.03 7.83-3.22 9.3-7.7.62-1.89 1.3-3.87 1.31-5.81.1-19.31.06-38.61.06-58.27-40.79-.02-81.37-.02-122.74-.02zm.13-9.2h122.45c0-17.53 0-34.62 0-51.76-40.97 0-81.65 0-122.45 0zm122.53-109.86c-41.09 0-81.65 0-122.28 0v48.96h122.28c0-16.42 0-32.51 0-48.96z"/><path d="m146.79 202.02c6.37 6.37 12.24 12.23 18.24 18.23.01-.05.03.41-.18.54-9.1 5.96-8.27 15.72-9.79 24.75-3.8 22.56-7.18 45.23-12.26 67.51-3.64 15.96-10.79 30.85-23.24 42.26-4.56 4.18-9.91 7.52-15.46 11.66-6.88-22.66-25.4-30.28-43.99-38.37.36-1.47.73-3 1.19-4.92 7.94 1.85 15.63 3.75 23.36 5.39 5.03 1.07 10.12 1.85 15.21 2.6 8.68 1.27 14.11-3.19 18.17-10.29 6.48-11.29 9.51-23.72 11.39-36.34 2.88-19.37 4.99-38.86 7.41-58.3.12-.98.02-1.99.02-3.75-1.79 0-3.55 0-5.3 0-18.49 0-36.99.19-55.48-.13-4.84-.08-8.26 1.14-10.87 5.15-1.05 1.62-2.53 2.97-4.09 4.77-6.26-5.27-12.2-10.28-18.33-15.45 13.1-14.31 14.54-32.52 16.95-50.22 2.1-15.45 3.2-31.05 4.81-47.32 5.59 3.55 11.1 7.1 16.66 10.56 1.39.86 2.93 2.08 4.41 2.09 16.47.15 32.93.09 49.8.09 0-22.92 0-45.44 0-68.3-1.69-.08-3.3-.23-4.92-.23-18.66-.02-37.32-.02-55.98 0-2.66 0-5.52-.45-7.96.33-8.4 2.69-13.52-1.39-18.17-8.46 2-.11 3.7-.27 5.4-.28 24.32-.02 48.65-.07 72.97.06 3.2.02 5.28-.88 7.04-3.53 2.74-4.13 5.78-8.05 9-12.49 6.76 5.78 13.17 11.26 19.5 16.67-.16.57-.15 1.04-.36 1.18-7.62 5.11-8.2 12.58-7.91 20.93.74 21.46.8 42.94 1.31 64.4.07 2.99-.74 4.49-3.54 5.55-5.24 1.98-10.34 4.34-16.03 6.77 0-4.91 0-9.19 0-13.8-17.76 0-35.16 0-53.02 0-3.83 24.03-7.66 48.07-11.6 72.82 1.92.16 3.63.41 5.34.42 18.33.03 36.66-.11 54.98.12 4.15.05 6.89-1.16 9.09-4.6 1.89-2.91 4.23-5.51 6.23-8.07z"/><path d="m187.53 59.42c14.4 8.89 28.92 17.6 43.12 26.79 3.22 2.09 5.71 5.6 7.96 8.85 5.22 7.56 1.78 21.45-6.33 25.9-1.12.61-3.46.45-4.37-.34-1.96-1.7-3.8-3.84-4.91-6.17-8.06-16.95-20.3-30.74-33.01-44.19-1.26-1.33-2.37-2.83-3.78-3.98-2.58-2.09-1.88-3.86 1.32-6.86z"/><path d="m296.38 124.76c13.76-24.58 28.38-48.56 37.51-76.16 7.93 6.48 15.53 12.69 23.5 19.2-17.09 8.83-26.33 24.95-38.32 38.34-5.55 6.19-11.02 12.46-16.38 18.82-2.14 2.56-3.95 2.56-6.31-.2z"/></g></svg>