<svg enable-background="new 0 0 400 400" viewBox="0 0 400 400" xmlns="http://www.w3.org/2000/svg"><path d="m6.4 11.7c-1-.8-1.9-1.6-2.9-2.3l.6-.7c.9.7 1.9 1.4 2.9 2.2zm-2.1 8.3c.7-2.1 1.4-4.2 2-6.4.2.1.6.3 1 .4-.7 2.3-1.3 4.4-1.9 6.4zm3-12.8c-1.1-.9-2.1-1.7-2.9-2.4l.6-.7c1 .8 2 1.5 3 2.4zm1.4-1.3v-.9h10.2v.9c-.9 4.2-2.3 7.3-4.1 9.4 1.3 1.4 3.2 2.7 5.7 4-.2.2-.4.5-.7.9-2.5-1.4-4.4-2.7-5.7-4.2-1.4 1.5-3.5 3-6.1 4.4 0 0 0 0-.1-.1-.3-.4-.5-.7-.7-.8 2.7-1.3 4.7-2.8 6.2-4.2-1.8-2.2-3-5.3-3.7-9.4zm9.2 0h-7.1c.6 3.8 1.7 6.7 3.4 8.7 1.7-2.1 2.9-4.8 3.7-8.7z" fill="#fcfbfa"/><path d="m31.6 3.6h.9v2.3h4.1v9.1h1.7v.9h-16.6v-.9h1.7v-9.1h4.1v-2.3h.9v2.3h3.1v-2.3zm-4 13.3.6.8c-1.9.9-3.8 1.9-5.8 2.8-.2-.3-.3-.6-.5-.9 2-.9 3.9-1.8 5.7-2.7zm-3.2-10.1v3.7h3.1v-3.7zm0 4.5v3.7h3.1v-3.7zm4.1-4.5v3.7h3.1v-3.7zm0 4.5v3.7h3.1v-3.7zm9.1 9.1c-2.1-1.1-4.1-2-5.8-2.7l.5-.8c2.2.9 4.1 1.8 5.8 2.6zm-1.9-13.6h-3.1v3.7h3.1zm-3.2 4.5v3.7h3.1v-3.7z" fill="#fcfbfa"/><g fill="#010105"><path d="m296.36 66.15c-19.16 0-37.8 0-56.81 0v123.1c6-.79 12.47-.14 17.26-2.68 4.98-2.64 8.33-8.35 12.12-12.42 8 8.03 15.24 15.3 22.62 22.7-17.05 0-34.4 0-52.38 0v5.87c0 42.33-.06 84.66.05 126.99.02 8.31.54 16.63 1.07 24.93.17 2.67-.37 4.26-2.96 5.45-6.28 2.88-12.41 6.08-18.89 9.28 0-57.61 0-114.63 0-172.82-11.76.5-23.86.43-35.8 1.78-5.3.6-9.22.73-12.53-3.83-1.24-1.71-3.18-2.91-4.8-4.35.13-.43.27-.85.4-1.28h53.04c0-41.28 0-81.71 0-122.21-11.38 0-22.93-1.13-34.12.36-8.7 1.16-15.55 1.05-20.66-6.77-.36-.55-.85-1.01-2.04-2.39 2.55-.12 4.38-.28 6.21-.28 40-.01 79.99-.1 119.99.11 4.78.02 8.27-1.18 11.25-4.82 2.42-2.95 5.21-5.59 8.15-8.69 7.9 6.9 15.37 13.43 23.04 20.13-.68.62-1.07 1.21-1.61 1.43-9.66 3.8-11.47 10.97-11.22 20.85.81 31.1.06 62.25.8 93.36.64 26.73 1.09 53.59 6.67 79.88 4.11 19.36 10.2 38.19 19.15 55.96.7 1.4 1.56 2.72 2.95 5.11 5.5-23.4 10.72-45.59 16.04-68.25 1.9.47 3.58.89 4.78 1.19-1.34 25.45-3.48 50.49-3.63 75.53-.08 12.6 3.47 25.22 5.35 37.83.25 1.69.28 3.41.41 5.11-1.82-.4-3.98-.31-5.41-1.28-15.64-10.55-29.22-23.02-37.82-40.28-11.43-22.95-18.21-47.34-23.09-72.35-5.02-25.72-6.08-51.79-6.35-77.91-.37-36.81-.68-73.61-1.02-110.42 0-1.13-.11-2.27-.21-3.92z"/><path d="m100.77 215.83c-18.5 9.76-37.61 17.56-52.66 32.58-5.77-8.83-11.58-17.72-17.84-27.31 4.42-.93 8.32-1.4 11.97-2.59 18.6-6.08 37.16-12.29 55.65-18.68 1.34-.46 2.96-2.67 2.98-4.07.18-22.99.13-45.98.13-69.45-1.58-.11-3-.29-4.42-.3-9.83-.03-19.67-.14-29.5.04-5.64.1-11.47-.08-16.84 1.3-6.75 1.73-11.56.27-15.47-5.25-.91-1.29-2.12-2.37-3.99-4.42h69.69c0-29.86 0-59.1 0-88.96 10.93 5.02 21.84 10.03 33.27 15.27-1.5 1.37-2.4 2.61-3.62 3.24-7.56 3.89-9.69 9.83-9.26 18.3.77 15.29.22 30.65.22 45.99v6.02c6.35 0 12.31.14 18.25-.11 1.24-.05 2.58-1.39 3.6-2.41 4.34-4.37 8.57-8.84 12.45-12.88 8.17 8.11 15.92 15.8 23.75 23.57-18.8 0-38.09 0-57.72 0v67.29c17.55-6.78 34.82-13.45 52.24-20.18.95 1.81 1.71 3.25 2.72 5.19-2.96 1.66-5.75 3.32-8.63 4.83-14.42 7.58-28.82 15.2-43.33 22.61-2.64 1.35-3.4 2.95-3.39 5.78.12 39 .05 78 .19 116.99.07 20.19-11.43 35.7-30.71 40.82-5.85-15.03-20.04-19.89-32.63-26.68-2.92-1.57-5.97-3.01-9.12-3.98-4.09-1.27-4.96-3.34-2.76-6.75 12.16 1.94 24.23 3.94 36.32 5.77 12.79 1.93 18.62-2.96 18.65-15.9.1-34.17.04-68.33.03-102.5 0-.81-.11-1.61-.22-3.17z"/></g></svg>