<svg enable-background="new 0 0 400 400" viewBox="0 0 400 400" xmlns="http://www.w3.org/2000/svg"><g fill="#010100"><path d="m334.4 118c-2.23 0-3.86 0-5.5 0-34.83 0-69.66.1-104.48-.13-4.48-.03-6.23 1.5-7.81 5.44-9.8 24.45-21.58 47.88-37.06 69.3-.77 1.07-1.6 2.11-2.32 3.06-.51.06-.9.24-1.12.11-1-.55-1.95-1.18-3.06-1.86 22.21-52.3 38.15-106.21 46.86-162.78 12.04 5.34 24.52 10.87 37.71 16.72-1.18.89-1.7 1.47-2.34 1.73-9.09 3.69-13.93 10.67-17.2 19.78-4.77 13.26-10.64 26.12-16.48 40.22h6.26c32.66 0 65.32-.06 97.98.08 3.85.02 6.59-.88 8.81-4.17 2.39-3.54 5.32-6.73 8.3-10.42 7.66 6.68 15 13.09 22.67 19.79-1.38 1.17-2.35 2.34-3.59 2.97-6.3 3.25-8 8.17-8.18 15.29-.89 34.59-1.89 69.2-4.07 103.72-1.59 25.17-4.45 50.3-7.88 75.29-3.84 27.91-18.47 48-45.95 57.39-1.09.37-2.24.58-3.67.95-.28-8.69-5.17-14.76-12.08-18.39-10.39-5.45-21.23-10.18-32.21-14.32-4.64-1.75-6.1-3.72-4.79-8.22 13.22 1.92 26.43 4.04 39.7 5.69 5.75.72 11.64.86 17.44.61 5.87-.25 9.48-4.47 12.44-9.02 6.03-9.26 8.84-19.77 9.98-30.52 2.44-22.96 4.59-45.96 6.13-69 1.78-26.71 2.78-53.47 4.1-80.2.48-9.46.92-18.93 1.41-29.11z"/><path d="m105.58 211.97c-18.74 9.24-37.43 17.09-53.18 31.04-5.71-8.31-11.49-16.73-17-24.75 15.52-4.82 30.96-9.47 46.3-14.44 7.1-2.3 14.05-5.08 20.96-7.92 1.32-.54 3.02-2.35 3.03-3.59.18-23.15.13-46.3.13-69.44-.61-.33-1.03-.75-1.44-.75-18.28-.01-36.63-1.36-54.65 3.23-1.17.3-2.96-.07-3.86-.83-3.53-2.99-6.81-6.26-10.19-9.42.19-.45.39-.89.58-1.34h69.76c-.52-28.29-1.03-55.82-1.56-84.23 11.18 5.55 22.18 11.02 33.92 16.86-3.62 2.47-6.97 4.43-9.89 6.89-1.43 1.21-2.92 3.35-2.94 5.09-.21 17.49-.12 34.99-.1 52.49 0 .64.19 1.29.4 2.65 6.92 0 13.85.12 20.77-.11 1.22-.04 2.56-1.42 3.57-2.45 3.83-3.92 7.55-7.96 10.9-11.52 7.88 7.84 15.2 15.12 22.56 22.45-18.93 0-38.18 0-57.83 0v67.28c15.97-6.26 31.64-12.4 47.73-18.7.95 1.59 1.85 3.08 3.09 5.17-4.84 2.66-9.41 5.2-14.01 7.7-10.81 5.88-21.58 11.85-32.5 17.53-3.52 1.83-4.85 3.99-4.83 8.08.18 38.99-.47 78 .35 116.97.39 18.52-8.12 30.14-23.18 38.56-2.89 1.61-5.92 2.97-9.26 4.63-.91-8.48-5.93-14-12.5-17.84-9.85-5.76-20.09-10.86-30.58-16.47 0-1.2 0-3.17 0-5.4 10.38 1.68 20.58 3.48 30.83 4.91 4.43.61 8.97.69 13.45.56 5.12-.15 8.61-3.46 10.09-9.48.79-3.2 1.26-6.57 1.27-9.86.09-33.49.05-66.99.04-100.48 0-.69-.1-1.35-.23-3.07z"/><path d="m198.44 316.44c-7.52-8.42-14.81-16.57-22.23-24.87 8.68-3.8 17.32-6.84 25.25-11.19 33.97-18.6 67.74-37.57 101.57-56.42 1.74-.97 3.62-1.8 5.13-3.07 3.2-2.69 5.59-2.1 7.85 1.86-8.24 6.12-16.51 12.42-24.94 18.49-23.22 16.71-46.62 33.15-69.71 50.04-9.12 6.68-17.47 14.37-22.92 25.16z"/><path d="m217.18 160.99c14.42 8.73 28.77 17.34 43.01 26.12 2.06 1.27 3.77 3.25 5.35 5.15 10.64 12.81 8.86 20.89-1.04 35.34-.54.78-3.58 1-4.28.3-1.96-1.94-3.78-4.31-4.8-6.85-6.29-15.54-16.84-28.13-27.72-40.49-3.73-4.24-7.71-8.26-11.54-12.4-2.45-2.63-2.43-2.65 1.02-7.17z"/></g><path d="m6.45 374.46.42-.45c.65.47 1.27.95 1.85 1.44l-.45.49c-.66-.56-1.26-1.06-1.83-1.48m.93 7.33-.63-.26c.55-1.36 1.05-2.8 1.52-4.33.19.1.38.19.59.27-.46 1.29-.95 2.73-1.48 4.32m-.38-10.38.44-.42c.43.34 1.01.82 1.74 1.44l-.49.49c-.53-.51-1.09-1.01-1.69-1.51m2.5.35h1.72v-1.04h.59v1.04h3.52v-1.04h.59v1.04h1.75v.53h-1.75v1.42h-2.03v.97h3.22v2.03h-3.24c0 .35-.01.66-.03.93h3.32v.53h-3.37c-.03.27-.08.58-.15.94h3.96v.53h-3.71c.67.92 1.93 1.48 3.79 1.68-.13.24-.23.44-.29.59-2.13-.38-3.48-1.08-4.04-2.12-.43.97-1.77 1.72-4.03 2.23-.09-.19-.2-.37-.33-.55 2.1-.42 3.37-1.03 3.81-1.83h-3.36v-.53h3.58c.08-.29.13-.61.16-.94h-3.33v-.53h3.39c.02-.27.04-.58.04-.93h-3.23v-2.03h3.25v-.97h-2.07v-1.42h-1.73zm1.12 3.44v1h2.65c.01-.3.02-.44.01-.4v-.25-.35zm1.19-2h3.52v-.91h-3.52zm4.71 2h-2.63v.59c0 .15-.01.28-.01.4h2.64z" fill="#fafafc"/><path d="m13.55 383.74h.63v1.52h2.72v6.07h1.13v.6h-11.05v-.6h1.13v-6.07h2.73v-1.52h.63v1.52h2.1v-1.52zm-2.68 8.83.38.56c-1.24.63-2.53 1.25-3.85 1.85-.1-.21-.21-.42-.34-.63 1.36-.55 2.63-1.15 3.81-1.78m-2.13-4.27h2.1v-2.45h-2.1zm0 3.04h2.1v-2.46h-2.1zm2.72-3.04h2.1v-2.45h-2.1zm0 3.04h2.1v-2.46h-2.1zm6.07 3.6c-1.41-.71-2.7-1.3-3.86-1.78l.35-.56c1.45.62 2.75 1.19 3.88 1.72zm-1.25-9.09h-2.1v2.45h2.1zm-2.09 5.49h2.1v-2.46h-2.1z" fill="#fafafc"/></svg>