<svg enable-background="new 0 0 400 400" viewBox="0 0 400 400" xmlns="http://www.w3.org/2000/svg"><g fill="#fcfbfa"><path d="m37.59 393.81c-.92.31-1.52.05-2-.78-.7-1.2-1.52-2.34-2.47-3.78v4.59c-.55.03-.95.05-1.41.07-.03-.37-.06-.64-.06-.91 0-1.91 0-3.81 0-5.7 1.13-.41 1.77-.03 2.29.91.62 1.11 1.38 2.14 2.31 3.19v-4.2h1.35v6.61z"/><path d="m12.94 393.88v-6.75c1.9.19 3.93-.54 5.37 1.29.8 1.01.78 2.88.03 3.97-1.37 1.97-3.4 1.51-6.4 1.49m2.45-1.22c2.04.12 2.92-.58 2.89-2.21-.03-1.51-.98-2.19-2.89-2z"/><path d="m11.81 393.87h-5.49c.68-2.18 2.47-3.48 3.51-5.45h-3.08v-1.21h5.29c-.71 2.13-2.44 3.48-3.47 5.51.86 0 1.63.04 2.39-.01.79-.05 1.14.21.85 1.16"/><path d="m39.33 393.86v-6.61h3.7v1.07h-2.22v1.52c.68.04 1.34.09 2.07.13v1.07c-.72.05-1.38.09-2.1.14v1.48h2.4v1.19h-3.85z"/><path d="m27.71 388.56c-1.15-.3-2.46-.61-3.1.64-.37.73-.41 1.93-.06 2.67.63 1.35 1.99.93 3.17.68.35.94-.01 1.32-.93 1.46-1.62.25-3.05-.27-3.76-1.48-.73-1.24-.6-3.03.31-4.17.88-1.11 2.71-1.7 4-1.16.32.13.44.74.65 1.12-.1.08-.19.16-.28.24"/><path d="m49.15 387.24v1.07c-.59.02-1.17.05-1.87.08v5.44h-1.48v-5.44h-1.85c-.05-.4-.08-.73-.13-1.15z"/><path d="m20.06 387.21h1.33v6.62h-1.33z"/><path d="m30.68 393.25c-.39.38-.8.79-1.05.76-.32-.05-.6-.45-.9-.7.26-.24.51-.64.8-.67.29-.04.62.3 1.15.61"/></g><path d="m34.35 245.58c17.81-9.11 35.02-18.04 52.37-26.71 3.9-1.95 5.41-4.21 5.35-8.77-.29-23.32-.13-46.65-.13-69.97 0-1.81 0-3.62 0-5.34-12.38 0-24.51-.79-36.46.33-6.13.58-10.86 1.05-14.71-4.42-.99-1.41-2.9-2.17-4.39-3.24.28-.58.57-1.15.85-1.73h54.17c0-30.95 0-61.04 0-91.89 10.02 5 20 9.99 30.48 15.22-1.08 1.22-1.75 2.34-2.73 3.02-7.61 5.31-9.37 12.53-8.94 21.57.73 15.29.2 30.65.2 45.97v4.72c14.9 6.28 21.1-5.52 28.85-12.6 7.47 7.51 14.71 14.79 21.93 22.05-16.26 0-33.23 0-50.49 0v73.32c14.81-9.34 29.03-18.32 43.56-27.49.98 1.78 1.82 3.32 2.87 5.25-8.65 6.8-17.25 13.57-25.87 20.33-5.37 4.21-10.62 8.59-16.21 12.5-3.5 2.45-4.8 5.16-4.77 9.5.2 34.15-.35 68.32.28 102.46.39 21.11-14.71 36.42-31.55 42.53-6.07-19.98-22.29-27.11-40.81-31.47 0-1.47 0-2.92 0-4.45.47-.18.93-.54 1.35-.5 10.26.86 20.54 1.56 30.77 2.71 15.77 1.77 21.45-2.99 21.56-19.02.13-18.49.03-36.99.03-55.48 0-9.97 0-19.94 0-30.94-16.14 10.91-29.57 23.6-42.4 37.43-5.21-8.6-10.23-16.8-15.16-24.89z" fill="#010104"/><path d="m323.98 368.2c.85-10.25-5.11-15.74-12.43-19.4-9-4.51-18.57-7.88-28.39-11.94 0-.58 0-2.02 0-3.93 1.19 0 2.3-.08 3.39.01 11.92 1.01 23.85 1.95 35.75 3.09 12.13 1.17 15.7-5.5 15.7-15.92.01-66.33.01-132.65.01-198.98 0-16.48 0-32.96 0-49.68-1.01-.17-1.78-.43-2.55-.42-19.42.33-38.98-1.61-58.12 3.55-.9.24-2.33-.12-3.03-.75-3.56-3.2-6.96-6.58-10.41-9.9.13-.45.27-.89.4-1.34h5.12c20.33 0 40.66-.11 60.99.09 4.36.04 7.63-.75 9.97-4.77 1.66-2.84 4.01-5.28 6.45-8.42 7.12 5.2 14.15 10.33 21.05 15.37-.14.56-.13.78-.22.83-9.71 5.63-10.97 14.24-10.9 24.82.44 76.82.31 153.65.12 230.47-.02 6.39-1.08 12.98-2.85 19.13-4.28 14.88-15.1 23.28-30.05 28.09z" fill="#010104"/><path d="m150.73 62.59h5.34c20.83 0 41.65-.14 62.48.11 4.31.05 7.24-1.08 9.56-4.66 1.87-2.89 4.18-5.51 6.52-8.55 7.18 5.73 14.05 11.22 21.23 16.95-1.43 1.22-2.49 2.57-3.88 3.24-6.6 3.22-7.75 8.47-7.73 15.45.25 79.97.17 159.94.15 239.92-.01 21.35-12.15 38.45-32.52 45.71-.88-11.56-8.52-18.08-17.85-22.82-7.94-4.04-16.32-7.21-24.85-10.92 0-.86 0-2.31 0-4.39 8.92.9 17.59 1.96 26.3 2.6 6.96.51 13.99.93 20.93.46 2.36-.16 5.51-2.72 6.55-4.98 1.75-3.8 2.9-8.25 2.91-12.43.16-81.3.12-162.61.12-243.91 0-.96-.1-1.92-.18-3.4-20.33.54-40.48-1.77-60.26 3.29-2.86.73-4.63.26-6.5-1.84-2.54-2.86-5.34-5.49-8.01-8.24-.17-.18-.12-.58-.31-1.59z" fill="#010104"/><path d="m217.21 207.9c2.89 2.17 1.91 4.12.12 6.64-14.12 19.95-28.19 39.94-42.03 60.08-3.07 4.46-5.17 9.59-7.92 14.81-7.52-6.12-14.83-12.06-21.79-17.72 23.96-21.34 47.64-42.44 71.62-63.81z" fill="#010104"/><path d="m272.03 116.31c1.8 0 4.08-.72 5.32.11 14.06 9.49 27.97 19.24 39.08 32.27 6.35 7.45 9.99 15.83 5.56 25.63-1.19 2.63-3.01 5.22-5.18 7.09-3.58 3.07-7.5 2.68-10.52-.96-2.19-2.64-4.26-5.65-5.38-8.84-6.82-19.42-15.7-37.68-29.32-53.41.14-.64.29-1.26.44-1.89z" fill="#010104"/><path d="m331.15 203.31c.88.84 2.06 1.97 2.57 2.46-16.88 24.35-33.58 48.42-50.5 72.83-6.43-5.58-13.26-11.51-19.22-16.69 22.5-19.64 44.73-39.03 67.15-58.6z" fill="#010104"/><path d="m170.46 117.62c10.44 8.16 21.67 15.99 31.66 25.17 4.47 4.11 7.4 10.61 9.33 16.58 2.18 6.73-.72 13.15-5.8 18.04-4.35 4.18-8.14 3.59-10.69-1.86-2.52-5.39-3.62-11.47-6.4-16.7-6.3-11.87-13.18-23.42-19.98-35.02-1.29-2.21-2.75-3.97 1.88-6.21z" fill="#010104"/></svg>