<svg enable-background="new 0 0 400 400" viewBox="0 0 400 400" xmlns="http://www.w3.org/2000/svg"><path d="m6.4 11.7c-1-.8-1.9-1.6-2.9-2.3l.6-.7c.9.7 1.9 1.4 2.9 2.2zm-2.1 8.3c.7-2.1 1.4-4.2 2-6.4.2.1.6.3 1 .4-.7 2.3-1.3 4.4-1.9 6.4zm3-12.8c-1.1-.9-2.1-1.7-2.9-2.4l.6-.7c1 .8 2 1.5 3 2.4zm1.4-1.3v-.9h10.2v.9c-.9 4.2-2.3 7.3-4.1 9.4 1.3 1.4 3.2 2.7 5.7 4-.2.2-.4.5-.7.9-2.5-1.4-4.4-2.7-5.7-4.2-1.4 1.5-3.5 3-6.1 4.4 0 0 0 0-.1-.1-.3-.4-.5-.7-.7-.8 2.7-1.3 4.7-2.8 6.2-4.2-1.8-2.2-3-5.3-3.7-9.4zm9.2 0h-7.1c.6 3.8 1.7 6.7 3.4 8.7 1.7-2.1 2.9-4.8 3.7-8.7z" fill="#fcfbfa"/><path d="m31.6 3.6h.9v2.3h4.1v9.1h1.7v.9h-16.6v-.9h1.7v-9.1h4.1v-2.3h.9v2.3h3.1v-2.3zm-4 13.3.6.8c-1.9.9-3.8 1.9-5.8 2.8-.2-.3-.3-.6-.5-.9 2-.9 3.9-1.8 5.7-2.7zm-3.2-10.1v3.7h3.1v-3.7zm0 4.5v3.7h3.1v-3.7zm4.1-4.5v3.7h3.1v-3.7zm0 4.5v3.7h3.1v-3.7zm9.1 9.1c-2.1-1.1-4.1-2-5.8-2.7l.5-.8c2.2.9 4.1 1.8 5.8 2.6zm-1.9-13.6h-3.1v3.7h3.1zm-3.2 4.5v3.7h3.1v-3.7z" fill="#fcfbfa"/><g fill="#010105"><path d="m143.17 371.03c-.66-2.36-1.05-3.77-1.56-5.61 39.31-8.32 75.89-22.09 107.04-47.78.01-.58.02-1.17.03-1.75-22.68-3.78-45.35-7.57-68.36-11.41 7.32-13.34 14.76-26.91 22.76-41.47-4.45 0-7.84.02-11.22 0-15.8-.1-31.62-.51-47.12 3.51-.92.24-2.38-.04-3.06-.67-3.51-3.24-6.85-6.66-9.92-11.25h5.16c21.16 0 42.33-.13 63.49.11 4.04.05 6.04-1.26 7.36-4.89 3.99-10.92 8.21-21.75 12.29-32.63.57-1.53.83-3.17 1.57-6.06-13.23.93-25.77 1.93-38.33 2.6-2.17.12-4.75-.65-6.56-1.87-2.81-1.89-5.12-4.52-7.64-6.84.25-.46.5-.92.75-1.38h61.83c0-12.08 0-23.51 0-35.27-1.33-.12-2.6-.34-3.87-.34-17.5-.02-34.99-.02-52.49 0-1.49 0-3.21-.28-4.45.33-9.56 4.65-15.07-.85-20.62-8.48h81.3c0-11.91 0-23.11 0-35.43-15.51.61-30.93.81-46.26 2.09-4.49.38-7.53.23-10.43-3.24-1.65-1.97-3.9-3.43-5.88-5.12.28-.5.57-1 .85-1.49h61.82c0-10.75 0-20.85 0-31.29-1.27-.13-2.54-.36-3.8-.36-13-.03-26.01-.41-38.99.12-8.92.36-17.77 2.15-26.68 2.97-1.93.18-4.39-.52-5.91-1.71-3.22-2.52-5.99-5.63-8.49-9.64h83.57c0-15.07 0-29.45 0-44.51 9.88 4.45 19.74 8.89 29.56 13.32-.23.77-.24 1.25-.42 1.32-14.12 5.92-10.05 18.11-10.16 29.4 1.76.11 3.37.28 4.98.29 17.5.02 35 .12 52.49-.12 2.32-.03 5.05-1.36 6.84-2.94 4.46-3.97 8.49-8.43 12.35-12.35 8 7.99 15.74 15.73 23.62 23.6-32.99 0-66.43 0-100.16 0v31.82h6.79c11.66 0 23.33-.12 34.99.07 3.44.06 6.05-.78 8.29-3.44 2.88-3.42 6.03-6.62 9.32-10.19 7.13 6.6 13.54 12.53 20.22 18.73-1.32.96-2.14 1.86-3.16 2.24-7.08 2.61-8.8 7.7-8.08 14.84.66 6.59.14 13.3.14 20.42 6.94.42 13.57 1.95 18.56-4.95 2.8-3.88 6.54-7.07 9.43-10.14 8.21 8.24 15.99 16.05 23.5 23.59-16.26 0-33.48 0-51.5 0 0 1.98-.04 3.56.01 5.14.34 12.14.6 24.29 1.13 36.42.14 3.16-.88 4.77-3.74 6.03-5.29 2.34-10.4 5.09-16.24 8 0-4 0-7.37 0-11.04-22.67 0-44.84 0-68.31 0 7.03 4.07 12.99 7.53 19.27 11.17-12.75 6.63-18.9 18.35-25.64 30.85 2.52.11 4.26.25 6 .25 29.99.01 59.99-.04 89.98.08 3.42.01 6-.8 8.32-3.39 4.32-4.82 8.91-9.4 13.02-13.69 8.74 8.71 16.96 16.91 25.5 25.43-1.18 0-2.68 0-4.18 0-18.16 0-36.33-.07-54.49.12-1.67.02-4.26 1.27-4.84 2.63-6.63 15.61-15.64 29.72-26.27 42.85-.52.64-.95 1.34-1.79 2.54 6.38 1.99 12.48 3.8 18.52 5.81 14.07 4.68 27.75 10.1 39.91 18.93 7.95 5.77 11.07 13.93 12.71 22.9 1.09 5.96-5.35 10.81-10.4 7.66-7.58-4.74-14.61-10.38-21.85-15.68-14.73-10.79-31.01-18.67-47.83-25.52-1.25-.51-3.43-.45-4.41.32-26.02 20.59-56.25 31.71-88.08 39.12-10.38 2.4-21 4.15-32.08 6.32zm143.7-108.03c-22.32 0-42.78-.06-63.23.12-1.37.01-3.2 1.5-4 2.8-3.14 5.08-5.98 10.36-8.88 15.59-3.27 5.89-6.48 11.82-9.78 17.84 14.48 1.87 28.28 3.75 42.12 5.4 5.65.67 12.27 2.83 16.79.72 4.67-2.18 7.77-8.43 10.75-13.38 5.53-9.15 10.47-18.67 16.23-29.09zm-36.47-94.86v35.1h49.24c0-11.89 0-23.44 0-35.1-16.48 0-32.59 0-49.24 0zm49.29-8.85c0-11.52 0-22.73 0-34.02-16.54 0-32.76 0-49.14 0v34.02z"/><path d="m89.7 130.08c-14.21.97-28.43 2-42.65 2.86-1.64.1-3.67-.26-4.95-1.18-3.06-2.22-5.79-4.91-8.65-7.41.27-.49.53-.99.8-1.48h55.56c0-31.01 0-61.34 0-92.06 9.96 5.46 20.07 10.99 30.53 16.72-1.87 1.78-3.21 3.61-5.01 4.67-5.39 3.21-6.57 7.76-6.41 13.81.42 16.82.15 33.66.15 50.49v4.98c14.61 5.96 20.9-5.6 28.62-12.85 7.5 7.48 14.75 14.72 22.26 22.21-16.68 0-33.5 0-50.59 0v73.04c16.56-7.76 32.75-15.34 49.25-23.07.87 1.24 1.69 2.41 2.56 3.66-.69.64-1.11 1.18-1.66 1.51-15.48 9.44-30.91 18.94-46.49 28.21-2.94 1.75-4.03 3.61-4.02 7.05.13 36.16-.37 72.33.26 108.48.34 19.55-12.49 33.15-28.27 38.8-1.23-9.52-7.99-14.73-15.56-18.8-7.59-4.08-15.53-7.55-23.53-10.76-3.54-1.42-4.63-3.16-3.61-6.62 10.55 1.68 21 3.31 31.44 5.02 16.03 2.62 20.85-1.35 20.87-17.43.03-28.66.01-57.32 0-85.98 0-1.61-.17-3.21-.3-5.57-16.14 9.44-30.66 19.77-43.74 33.02-5.68-8.02-11.2-15.8-16.69-23.55 14.46-5.81 28.6-11.42 42.69-17.18 5.08-2.07 10.09-4.33 14.97-6.83 1.33-.68 2.93-2.52 2.94-3.84.14-25.83.06-51.65 0-77.48 0-.3-.22-.61-.34-.91-.16-.52-.29-1.02-.43-1.53z"/></g></svg>