<svg enable-background="new 0 0 400 400" viewBox="0 0 400 400" xmlns="http://www.w3.org/2000/svg"><g fill="#010100"><path d="m334 148.16c-48.78 0-96.91 0-145.83 0v6.35c0 66-.04 132 .11 197.99.01 4.1-1.28 6.31-4.82 8.07-5.04 2.5-9.83 5.49-14.52 8.16 0-80.2 0-160.29 0-240.3 1.02.47 2.64.97 4 1.87 11.97 7.87 25.01 10.43 39.28 9.47 12.24-.83 24.59-.17 37.25-.17 0-14.58 0-28.65 0-43.17-1.09-.13-2.34-.4-3.59-.41-18.17-.02-36.34-.34-54.49.14-8.58.22-17.17 1.72-25.66 3.18-2.69.46-4.25.11-6.03-1.76-2.84-2.98-5.93-5.73-8.92-8.57.17-.42.33-.83.5-1.25h98.01c0-19.64 0-38.52 0-58.04 10.46 4.09 20.86 8.15 31.68 12.38-1.13.99-1.66 1.71-2.37 2.05-9.45 4.58-11.69 12.29-10.55 22.14.75 6.41.17 12.98.21 19.48 0 .32.15.65.36 1.52 1.44.09 3.04.29 4.64.29 18.33.02 36.67.13 55-.12 2.48-.03 5.44-1.34 7.31-3.02 4.44-3.99 8.36-8.55 12.28-12.66 8.23 8.26 15.97 16.02 23.94 24.02-34.24 0-68.58 0-103.25 0v43.47c1.79.1 3.7.3 5.61.31 17.17.02 34.33-.11 51.5.1 4.02.05 6.98-.99 9.55-4.07 2.65-3.17 5.67-6.05 8.32-8.84 6.87 6.98 13.26 13.47 19.81 20.12-.37.29-1.24 1.33-2.35 1.74-7.04 2.61-8.19 7.66-8.15 14.77.33 56.83.2 113.66.17 170.49-.01 18.61-11.63 32.8-29.75 36.2-1.94-9.84-9.26-14.97-17.54-18.89-7.62-3.61-15.52-6.62-23.59-10.02 0-1.08 0-2.54 0-4.63 8.31.86 16.48 1.71 24.67 2.54 5.28.53 10.57 1.13 15.87 1.48 6.82.46 10.54-2.34 11.17-9.09.52-5.58.18-11.25.18-16.88.01-53.33 0-106.66 0-159.99-.01-1.98-.01-3.96-.01-6.45z"/><path d="m108.07 121.4c14.68 5.76 22.44-4.04 30-12.73 7.6 7.62 14.82 14.86 22.04 22.1-16.78 0-34 0-51.63 0v73.07c16.44-8.19 32.67-16.28 49.1-24.47.98 1.38 1.81 2.55 2.83 3.98-16.03 10.64-31.73 21.22-47.62 31.49-3.47 2.24-4.85 4.53-4.82 8.75.19 34.66-.2 69.33.25 103.99.2 15.59-6.3 26.79-18.92 34.97-3.71 2.41-7.76 4.31-12.28 6.78-.47-12.69-8.24-18.87-17.88-23.3-4.97-2.29-10.11-4.47-15.41-5.67-5.12-1.16-5.95-3.65-4.83-7.54 12.66 1.08 25.02 2.37 37.4 3.09 7.2.42 9.94-1.89 11.72-8.87.89-3.51 1.49-7.2 1.51-10.81.12-28 .07-55.99.06-83.99 0-.96-.14-1.93-.29-4-15.44 10.4-30.62 19.75-42.58 34.17-6.03-8.77-11.9-17.31-17.64-25.67 13.3-5.39 26.38-10.59 39.38-16 6.14-2.55 12.18-5.36 18.11-8.34 1.32-.66 2.89-2.54 2.9-3.87.14-25.33.06-50.66 0-75.99 0-.3-.22-.61-.28-.76-11.8 0-23.66-1.03-35.22.35-8.01.96-14.23.81-18.94-6.28-.53-.8-1.26-1.46-2.62-2.99h56.4c0-30.87 0-61.06 0-91.61 9.77 5.32 19.86 10.82 30.24 16.49-.7.93-.97 1.61-1.46 1.89-8.58 4.94-10.15 12.44-9.73 21.85.74 16.77.21 33.6.21 49.92z"/><path d="m205.15 218.59h38.91c5.5 0 11-.18 16.49.07 2.83.13 4.22-.96 5.21-3.42 7.5-18.66 15.05-37.29 18.39-57.28.16-.95.64-1.86 1.1-3.17 9.15 5.05 18.08 9.99 27.19 15.02-19.05 11.91-28.72 30.78-41.3 48.14 6.01 1.03 10.8 1.56 14.64-3.42 2.93-3.8 6.46-7.14 9.42-10.36 7.93 7.91 15.19 15.15 22.61 22.55-16.52 0-33.34 0-50.48 0v40.84c7.72 0 15.35.13 22.96-.12 1.38-.04 2.93-1.39 4.03-2.5 3.85-3.9 7.55-7.96 11-11.64 7.83 7.82 15.08 15.06 22.5 22.46-19.89 0-40.05 0-60.82 0 0 2.35-.03 4.12 0 5.88.35 19.47.61 38.95 1.15 58.42.09 3.37-.9 5.08-3.96 6.4-5 2.16-9.79 4.8-14.97 7.4 0-26.13 0-51.64 0-78.34-13.01.53-26.27.49-39.37 1.89-5.25.56-8.8.21-12.11-3.88-1.38-1.71-3.66-2.71-5.53-4.04.4-.64.79-1.27 1.19-1.91h56.18c0-13.81 0-26.9 0-41.09-9.67.58-19.13.58-28.39 1.92-4.79.69-8.25.67-11.29-3.38-1.45-1.94-3.57-3.38-5.38-5.05.21-.46.42-.92.63-1.39z"/><path d="m206.56 159.96c2.35-2.7 4.25-2.87 6.75-.94 8.01 6.18 16.21 12.11 24.24 18.26 1.82 1.39 3.36 3.2 4.83 4.98 9.45 11.51 5.96 19.53-4.01 29.89-.69.72-3.36-.02-4.84-.67-.79-.35-1.29-1.94-1.46-3.04-2.67-16.86-12.47-30.11-21.97-43.51-1.13-1.61-2.28-3.21-3.54-4.97z"/></g><path d="m6.45 374.46.42-.45c.65.47 1.27.95 1.85 1.44l-.45.49c-.66-.56-1.26-1.06-1.83-1.48m.93 7.33-.63-.26c.55-1.36 1.05-2.8 1.52-4.33.19.1.38.19.59.27-.46 1.29-.95 2.73-1.48 4.32m-.38-10.38.44-.42c.43.34 1.01.82 1.74 1.44l-.49.49c-.53-.51-1.09-1.01-1.69-1.51m2.5.35h1.72v-1.04h.59v1.04h3.52v-1.04h.59v1.04h1.75v.53h-1.75v1.42h-2.03v.97h3.22v2.03h-3.24c0 .35-.01.66-.03.93h3.32v.53h-3.37c-.03.27-.08.58-.15.94h3.96v.53h-3.71c.67.92 1.93 1.48 3.79 1.68-.13.24-.23.44-.29.59-2.13-.38-3.48-1.08-4.04-2.12-.43.97-1.77 1.72-4.03 2.23-.09-.19-.2-.37-.33-.55 2.1-.42 3.37-1.03 3.81-1.83h-3.36v-.53h3.58c.08-.29.13-.61.16-.94h-3.33v-.53h3.39c.02-.27.04-.58.04-.93h-3.23v-2.03h3.25v-.97h-2.07v-1.42h-1.73zm1.12 3.44v1h2.65c.01-.3.02-.44.01-.4v-.25-.35zm1.19-2h3.52v-.91h-3.52zm4.71 2h-2.63v.59c0 .15-.01.28-.01.4h2.64z" fill="#fafafc"/><path d="m13.55 383.74h.63v1.52h2.72v6.07h1.13v.6h-11.05v-.6h1.13v-6.07h2.73v-1.52h.63v1.52h2.1v-1.52zm-2.68 8.83.38.56c-1.24.63-2.53 1.25-3.85 1.85-.1-.21-.21-.42-.34-.63 1.36-.55 2.63-1.15 3.81-1.78m-2.13-4.27h2.1v-2.45h-2.1zm0 3.04h2.1v-2.46h-2.1zm2.72-3.04h2.1v-2.45h-2.1zm0 3.04h2.1v-2.46h-2.1zm6.07 3.6c-1.41-.71-2.7-1.3-3.86-1.78l.35-.56c1.45.62 2.75 1.19 3.88 1.72zm-1.25-9.09h-2.1v2.45h2.1zm-2.09 5.49h2.1v-2.46h-2.1z" fill="#fafafc"/></svg>