<svg enable-background="new 0 0 400 400" viewBox="0 0 400 400" xmlns="http://www.w3.org/2000/svg"><g fill="#fcfbfa"><path d="m37.59 393.81c-.92.31-1.52.05-2-.78-.7-1.2-1.52-2.34-2.47-3.78v4.59c-.55.03-.95.05-1.41.07-.03-.37-.06-.64-.06-.91 0-1.91 0-3.81 0-5.7 1.13-.41 1.77-.03 2.29.91.62 1.11 1.38 2.14 2.31 3.19v-4.2h1.35v6.61z"/><path d="m12.94 393.88v-6.75c1.9.19 3.93-.54 5.37 1.29.8 1.01.78 2.88.03 3.97-1.37 1.97-3.4 1.51-6.4 1.49m2.45-1.22c2.04.12 2.92-.58 2.89-2.21-.03-1.51-.98-2.19-2.89-2z"/><path d="m11.81 393.87h-5.49c.68-2.18 2.47-3.48 3.51-5.45h-3.08v-1.21h5.29c-.71 2.13-2.44 3.48-3.47 5.51.86 0 1.63.04 2.39-.01.79-.05 1.14.21.85 1.16"/><path d="m39.33 393.86v-6.61h3.7v1.07h-2.22v1.52c.68.04 1.34.09 2.07.13v1.07c-.72.05-1.38.09-2.1.14v1.48h2.4v1.19h-3.85z"/><path d="m27.71 388.56c-1.15-.3-2.46-.61-3.1.64-.37.73-.41 1.93-.06 2.67.63 1.35 1.99.93 3.17.68.35.94-.01 1.32-.93 1.46-1.62.25-3.05-.27-3.76-1.48-.73-1.24-.6-3.03.31-4.17.88-1.11 2.71-1.7 4-1.16.32.13.44.74.65 1.12-.1.08-.19.16-.28.24"/><path d="m49.15 387.24v1.07c-.59.02-1.17.05-1.87.08v5.44h-1.48v-5.44h-1.85c-.05-.4-.08-.73-.13-1.15z"/><path d="m20.06 387.21h1.33v6.62h-1.33z"/><path d="m30.68 393.25c-.39.38-.8.79-1.05.76-.32-.05-.6-.45-.9-.7.26-.24.51-.64.8-.67.29-.04.62.3 1.15.61"/></g><path d="m36.15 337.7c12.6 1.44 24.76 3.07 36.97 4.14 5.99.52 9.25-2.29 10.69-8.18.7-2.88 1.11-5.9 1.12-8.87.09-27.82.07-55.64.07-83.47 0-.93-.1-1.86-.16-2.8-.43-.31-.85-.61-1.28-.92-12 11.47-24.01 22.95-36.15 34.54-5.26-7.26-11.18-15.44-16.6-22.93 15.45-8.86 30.52-17.91 46-26.2 6.63-3.55 8.55-7.91 8.39-15.29-.53-24.64-.2-49.29-.2-73.86-11.4 0-22.69-.79-33.79.32-5.97.59-10.57.93-14.25-4.34-1.09-1.57-2.61-2.84-4.74-5.12h52.23c0-29.84 0-59.06 0-88.97 10.53 5.05 21.05 10.08 31.99 15.33-1.23 1.03-1.88 1.81-2.71 2.23-8.56 4.3-10.44 11.23-9.95 20.45.81 14.95.22 29.98.22 44.97v5.39c12.74 3.15 15.38-9.7 23.01-13.32 7.27 7.24 14.53 14.47 22.16 22.06-14.96 0-29.8 0-44.9 0v75.69c13.48-9.09 26.61-17.94 40.14-27.06.98 1.32 1.9 2.56 2.87 3.86-13.38 11.57-26.4 22.97-39.61 34.14-2.67 2.26-3.75 4.52-3.74 8.01.12 34.32.14 68.64.01 102.96-.02 5.44-.23 11.07-1.61 16.28-3.65 13.74-14.54 20.33-26.74 25.7-6.42-16.46-21.22-21.96-35.34-28.19-3.35-1.48-5.53-2.86-4.1-6.55z" fill="#010104"/><path d="m123.67 231.45c55.13-34.52 91.35-83.03 110.18-145.45-15 0-29.31-.05-43.62.11-1.09.01-2.57 1.29-3.18 2.37-2.11 3.74-3.92 7.65-6.09 12.01 4.17 1.5 8.15 2.89 12.1 4.37 2.64.99 5.29 1.99 7.85 3.17 10.99 5.06 13.42 13.17 7.08 23.44-2.91 4.72-4.73 4.74-7.92.18-4.28-6.11-8.57-12.23-12.94-18.28-1.94-2.69-4.11-5.22-6.75-8.55-6.23 10.2-11.47 18.77-16.92 27.69 4.54 1.8 8.68 3.4 12.78 5.11 2.29.96 4.57 1.99 6.74 3.19 12.13 6.7 13.29 11.22 5.97 22.73-3.02 4.75-4.59 4.5-7.72-.13-5.1-7.55-10.65-14.79-16-22.17-1.18-1.62-2.3-3.28-3.58-5.12-7.98 10.18-15.02 19.16-22.24 28.37-1.75-1.08-2.97-1.82-3.28-2.02 10-20.31 20.61-40.04 29.52-60.5 8.94-20.53 16.02-41.84 18.85-64.93 8.91 4.43 17.85 8.88 25.99 12.93-6.19 8.82-12.25 17.47-18.31 26.12.41.5.81.99 1.22 1.49 8.76 0 17.57-.57 26.27.16 8.87.75 15.93-1.38 21.1-8.8 1.15-1.64 2.32-3.27 3.72-5.24 7.44 6.94 13.81 12.89 20.07 18.74-.38.8-.45 1.26-.67 1.35-8.16 3.42-11.65 10.12-14.52 18.15-20.61 57.84-60.47 98.86-113.34 128.3-2.32 1.29-4.71 2.49-6.96 3.9-2.94 1.85-4.59 1.06-5.4-2.69z" fill="#010104"/><path d="m366.69 250.97c-33.12 0-66.9 0-101.52 0v5.49c0 26.33-.36 52.66.14 78.98.29 15.14-6.59 25.27-19.15 32.35-3.3 1.86-6.86 3.25-10.6 4.98-2.38-8.81-8.41-14.02-15.58-17.79-7.03-3.69-14.4-6.8-21.77-9.77-3.06-1.23-4.39-2.65-2.96-6.51 7.35.88 14.86 1.84 22.38 2.66 5.45.59 10.92 1.19 16.39 1.41 6.6.26 10.55-3.11 11.88-9.64.36-1.78.87-3.59.88-5.39.06-25.31.04-50.63.04-76.74-1.85 0-3.6 0-5.34 0-17.16 0-34.34-.37-51.48.14-10.08.3-20.11 2.11-30.19 2.96-1.94.16-4.4-.43-5.92-1.6-3.27-2.51-6.07-5.62-9.06-8.48.12-.48.24-.95.36-1.43h5.54c55.99 0 111.97-.06 167.96.11 4.93.02 8.5-1.3 11.69-4.98 3.7-4.27 7.83-8.17 11.19-11.62 8.59 8.51 16.9 16.73 25.12 24.87z" fill="#010104"/><path d="m371.61 185.41c1.43 3.34-.78 4.14-3.22 4.53-10.08 1.6-18.75 5.51-24.34 14.96-11.07-5.87-19.87-14.14-28.08-23.07-22.28-24.25-35.87-53.24-45.97-84.18-5.65-17.31-7.82-35.18-9.88-53.21 3.61-1.14 5.3-.58 6.2 3.65 1.65 7.76 4.34 15.29 6.47 22.94.74 2.66 2.14 3.66 4.98 3.63 14.82-.13 29.64.03 44.46-.17 1.89-.03 4.12-1.14 5.57-2.45 3.06-2.76 5.71-5.97 8.23-8.67 7.82 7.86 15.06 15.14 22.4 22.53-15.15 3.2-22.01 16.87-31.09 27.98-6.1 7.46-11.8 15.26-17.36 23.14-1.03 1.46-1.41 4.62-.53 5.99 14.6 22.74 34.65 37.68 62.16 42.4zm-94.48-102.19c5.89 18.3 13.76 35.08 25.19 51.35 9.02-17.51 17.57-34.12 26.45-51.35-17.71 0-34.31 0-51.64 0z" fill="#010104"/><path d="m283.78 289.28c2.88-.96 4.93-2.44 6.13-1.93 21.25 9.02 42.73 17.71 61.74 31.12 11.96 8.43 15.37 18.52 11.49 30.68-3.04 9.54-8.97 11.03-15.46 3.37-5.9-6.96-10.27-15.38-16.78-21.62-14.02-13.44-28.99-25.9-43.58-38.75-.62-.56-1.29-1.05-3.54-2.87z" fill="#010104"/><path d="m190.15 276.37c8.13 7.64 15.72 14.77 24 22.54-18.33 2.03-28.31 16.37-41.85 24.89-15.3 9.63-30.21 19.89-45.31 29.83-1.64 1.08-3.49 1.82-5.47 2.84-.95-1.36-1.78-2.53-2.57-3.66 26.71-22.7 52.88-45.49 71.2-76.44z" fill="#010104"/><path d="m199.39 189.59h5.28c23.63 0 47.26.1 70.89-.14 2.61-.03 5.7-1.46 7.71-3.22 4.35-3.82 8.15-8.27 11.74-12.01 8.2 8.2 15.99 15.99 23.77 23.78-1.01 0-2.73 0-4.45 0-25.63 0-51.26-.26-76.88.15-8.21.13-16.39 2.07-24.6 3.01-1.39.16-3.24-.08-4.25-.91-3.46-2.83-6.64-6.01-9.93-9.05.24-.54.48-1.07.72-1.61z" fill="#010104"/></svg>