<svg enable-background="new 0 0 400 400" viewBox="0 0 400 400" xmlns="http://www.w3.org/2000/svg"><path d="m282.05 192.68c8.4 6.43 16.31 12.49 24.39 18.67-.98.93-1.58 1.85-2.42 2.26-8.86 4.29-10.42 11.44-10.24 20.77.68 34.14.46 68.3.65 102.45.03 5.81.3 11.63.68 17.43.19 2.88-.68 4.59-3.45 5.75-5.78 2.43-11.44 5.17-17.68 8.04 0-9.07 0-17.64 0-26.62-57.09 0-113.76 0-170.98 0 0 5.27-.12 10.56.05 15.83.09 2.66-.49 4.22-3.3 5.18-5.89 2.03-11.63 4.52-17.43 6.82 0-58.74 0-116.91 0-175.75 6 3.16 11.74 6.37 17.65 9.23 2.15 1.04 4.7 1.76 7.06 1.77 53.15.1 106.3.11 159.44-.05 2.33-.01 5.05-1.31 6.9-2.85 3.18-2.62 5.81-5.91 8.68-8.93zm-178.82 76.59h170.24c0-18.86 0-37.39 0-56.01-56.91 0-113.46 0-170.24 0zm170.21 62.96c0-18.23 0-36.11 0-53.93-56.95 0-113.5 0-170.07 0v53.93z" fill="#010100"/><path d="m263.78 43.12c7.54 8.84 15.28 17.92 23.04 27.03-.43.4-.67.8-.87.78-17.86-1.76-33.83 5.99-50.38 10.4-42.69 11.38-85.74 21-129.2 28.85-5.36.97-10.7 2.01-16.3 3.07 0 8.91-.35 17.57.12 26.19.35 6.41 5.04 10.08 10.71 11.84 4.54 1.42 9.4 2.53 14.13 2.55 53.33.19 106.66.17 160 .14 9.53-.01 16.25-5.13 18.6-13.86 2.96-10.98 4.58-22.37 6.2-33.66 1.1-7.67 1.21-15.48 1.78-23.4h8.45c0 6.15-.25 12.11.06 18.05.5 9.79 1.06 19.59 2.13 29.32 1.03 9.4 6.4 15.84 15.2 19.37 1.21.49 2.41 1.01 3.84 1.61-2.75 7.64-8.2 12.51-15.47 14.58-7.12 2.03-14.62 3.81-21.96 3.84-64.16.31-128.33.25-192.5.16-4.27-.01-8.64-.65-12.8-1.66-12.48-3.02-17.53-9.62-17.56-22.38-.07-31.33-.08-62.66-.22-94-.02-5.25-.6-10.51-.98-16.61 12.65 4.85 24.5 9.39 37.2 14.26-5.16 3.44-9.77 6.33-14.16 9.54-1.28.94-2.71 2.74-2.73 4.16-.19 14.17-.11 28.32-.11 43.58 60.19-15.84 119.82-31.43 173.78-63.75z" fill="#010100"/><g fill="#fafafc"><path d="m6.45 374.46.42-.45c.65.47 1.27.95 1.85 1.44l-.45.49c-.66-.56-1.26-1.06-1.83-1.48m.93 7.33-.63-.26c.55-1.36 1.05-2.8 1.52-4.33.19.1.38.19.59.27-.46 1.29-.95 2.73-1.48 4.32m-.38-10.38.44-.42c.43.34 1.01.82 1.74 1.44l-.49.49c-.53-.51-1.09-1.01-1.69-1.51m2.5.35h1.72v-1.04h.59v1.04h3.52v-1.04h.59v1.04h1.75v.53h-1.75v1.42h-2.03v.97h3.22v2.03h-3.24c0 .35-.01.66-.03.93h3.32v.53h-3.37c-.03.27-.08.58-.15.94h3.96v.53h-3.71c.67.92 1.93 1.48 3.79 1.68-.13.24-.23.44-.29.59-2.13-.38-3.48-1.08-4.04-2.12-.43.97-1.77 1.72-4.03 2.23-.09-.19-.2-.37-.33-.55 2.1-.42 3.37-1.03 3.81-1.83h-3.36v-.53h3.58c.08-.29.13-.61.16-.94h-3.33v-.53h3.39c.02-.27.04-.58.04-.93h-3.23v-2.03h3.25v-.97h-2.07v-1.42h-1.73zm1.12 3.44v1h2.65c.01-.3.02-.44.01-.4v-.25-.35zm1.19-2h3.52v-.91h-3.52zm4.71 2h-2.63v.59c0 .15-.01.28-.01.4h2.64z"/><path d="m13.55 383.74h.63v1.52h2.72v6.07h1.13v.6h-11.05v-.6h1.13v-6.07h2.73v-1.52h.63v1.52h2.1v-1.52zm-2.68 8.83.38.56c-1.24.63-2.53 1.25-3.85 1.85-.1-.21-.21-.42-.34-.63 1.36-.55 2.63-1.15 3.81-1.78m-2.13-4.27h2.1v-2.45h-2.1zm0 3.04h2.1v-2.46h-2.1zm2.72-3.04h2.1v-2.45h-2.1zm0 3.04h2.1v-2.46h-2.1zm6.07 3.6c-1.41-.71-2.7-1.3-3.86-1.78l.35-.56c1.45.62 2.75 1.19 3.88 1.72zm-1.25-9.09h-2.1v2.45h2.1zm-2.09 5.49h2.1v-2.46h-2.1z"/></g></svg>