<svg enable-background="new 0 0 400 400" viewBox="0 0 400 400" xmlns="http://www.w3.org/2000/svg"><path d="m6.4 11.7c-1-.8-1.9-1.6-2.9-2.3l.6-.7c.9.7 1.9 1.4 2.9 2.2zm-2.1 8.3c.7-2.1 1.4-4.2 2-6.4.2.1.6.3 1 .4-.7 2.3-1.3 4.4-1.9 6.4zm3-12.8c-1.1-.9-2.1-1.7-2.9-2.4l.6-.7c1 .8 2 1.5 3 2.4zm1.4-1.3v-.9h10.2v.9c-.9 4.2-2.3 7.3-4.1 9.4 1.3 1.4 3.2 2.7 5.7 4-.2.2-.4.5-.7.9-2.5-1.4-4.4-2.7-5.7-4.2-1.4 1.5-3.5 3-6.1 4.4 0 0 0 0-.1-.1-.3-.4-.5-.7-.7-.8 2.7-1.3 4.7-2.8 6.2-4.2-1.8-2.2-3-5.3-3.7-9.4zm9.2 0h-7.1c.6 3.8 1.7 6.7 3.4 8.7 1.7-2.1 2.9-4.8 3.7-8.7z" fill="#fcfbfa"/><path d="m31.6 3.6h.9v2.3h4.1v9.1h1.7v.9h-16.6v-.9h1.7v-9.1h4.1v-2.3h.9v2.3h3.1v-2.3zm-4 13.3.6.8c-1.9.9-3.8 1.9-5.8 2.8-.2-.3-.3-.6-.5-.9 2-.9 3.9-1.8 5.7-2.7zm-3.2-10.1v3.7h3.1v-3.7zm0 4.5v3.7h3.1v-3.7zm4.1-4.5v3.7h3.1v-3.7zm0 4.5v3.7h3.1v-3.7zm9.1 9.1c-2.1-1.1-4.1-2-5.8-2.7l.5-.8c2.2.9 4.1 1.8 5.8 2.6zm-1.9-13.6h-3.1v3.7h3.1zm-3.2 4.5v3.7h3.1v-3.7z" fill="#fcfbfa"/><g fill="#010105"><path d="m92.18 124.01c-16.01 1.03-31.05 2.09-46.09 2.88-2.03.11-4.43-.67-6.14-1.81-2.86-1.92-5.3-4.48-7.91-6.77.24-.48.48-.97.72-1.45h58.62c0-29.26 0-57.8 0-86.99 10.87 5.86 21.7 11.7 33.32 17.97-3.84 2.62-7.04 4.61-10.01 6.92-1.15.9-2.5 2.49-2.51 3.78-.16 19.13-.11 38.26-.11 58.01 6.68 0 12.98.16 19.25-.12 1.38-.06 2.88-1.5 4-2.63 4.3-4.38 8.46-8.89 12.46-13.13 8.36 8.39 16.08 16.14 24.06 24.14-19.69 0-39.38 0-59.77 0 0 8.41.88 16.46-.21 24.24-1.5 10.71 2.58 16.33 12.14 20.87 9.67 4.59 18.33 11.35 27.23 17.46 2.55 1.75 4.49 4.43 6.54 6.82 8.63 10.08 4.75 20.18-.36 30.04-1.36 2.62-3.93 4.6-5.95 6.88-2.21-2.32-5-4.32-6.53-7.03-6.94-12.26-13.27-24.87-20.37-37.04-3.06-5.25-7.44-9.73-11.93-15.48v191.37c-6.94 2.59-14.18 5.29-21.29 7.95 0-60.64 0-120.9 0-182.29-13.66 35.98-30.89 69.08-53.56 99.47-1.79-.89-3.38-1.68-5.38-2.67 28-50.38 46.79-103.92 59.78-161.39z"/><path d="m258.8 372.26c0-94.93 0-189.39 0-284.21 5.72 3.4 11.46 7 17.4 10.23 2.23 1.21 4.92 2.19 7.41 2.22 16.33.19 32.66.21 48.99-.03 2.11-.03 4.68-1.35 6.18-2.9 3.8-3.93 7.1-8.34 10.92-12.94 7.17 6.67 14.2 13.21 21.38 19.89-1.37.98-2.46 2.1-3.79 2.65-7.89 3.29-9.4 9.12-9.33 17.37.43 52.16.24 104.32.21 156.48-.01 18.21-10.11 31.06-28.24 35.81-1.44-9.01-7.87-14-15.35-17.61-8.5-4.11-17.34-7.52-26.59-11.47-.32-2.98-.45-5.14 4.82-4.26 11.62 1.94 23.35 3.33 35.09 4.33 7.13.61 9.69-1.97 11.13-9.22.42-2.11.77-4.27.77-6.41.04-52.99.03-105.99.03-158.98 0-1.15 0-2.29 0-3.82-20.55 0-40.78 0-61.76 0v5.14c.04 72.49.04 144.98.15 217.47.01 8.98.47 17.97 1.05 26.93.19 3.06-.86 4.42-3.54 5.55-5.77 2.43-11.38 5.2-16.93 7.78z"/><path d="m251.69 231.44c-21.99 20.89-45.14 39.8-62.64 64.9-4.86-6.64-9.73-13.14-14.38-19.79-.56-.81-.12-2.42.05-3.63 1.04-7.19 3.04-14.37 3.07-21.57.24-51.14.12-102.28-.01-153.43-.02-7.29-.7-14.58-1.14-23.11 5.96 3.77 11.2 6.78 16.06 10.3 2.89 2.09 5.09 1.98 8.09.29 17.25-9.74 34.69-19.17 48.97-33.25 2.47-2.43 4.57-5.23 6.91-7.94 7.19 7.65 14.46 15.38 22.13 23.55-8.11 2.21-15.67 3.93-23 6.35-18.74 6.19-37.4 12.63-56.01 19.22-1.48.52-3.25 2.94-3.26 4.49-.17 53.81-.14 107.62-.12 161.42 0 .78.22 1.55.45 3.08 17.52-12.14 34.54-23.92 51.99-36.01 1.04 1.85 1.88 3.38 2.84 5.13z"/></g></svg>