<svg enable-background="new 0 0 400 400" viewBox="0 0 400 400" xmlns="http://www.w3.org/2000/svg"><g fill="#fcfbfa"><path d="m37.59 393.81c-.92.31-1.52.05-2-.78-.7-1.2-1.52-2.34-2.47-3.78v4.59c-.55.03-.95.05-1.41.07-.03-.37-.06-.64-.06-.91 0-1.91 0-3.81 0-5.7 1.13-.41 1.77-.03 2.29.91.62 1.11 1.38 2.14 2.31 3.19v-4.2h1.35v6.61z"/><path d="m12.94 393.88v-6.75c1.9.19 3.93-.54 5.37 1.29.8 1.01.78 2.88.03 3.97-1.37 1.97-3.4 1.51-6.4 1.49m2.45-1.22c2.04.12 2.92-.58 2.89-2.21-.03-1.51-.98-2.19-2.89-2z"/><path d="m11.81 393.87h-5.49c.68-2.18 2.47-3.48 3.51-5.45h-3.08v-1.21h5.29c-.71 2.13-2.44 3.48-3.47 5.51.86 0 1.63.04 2.39-.01.79-.05 1.14.21.85 1.16"/><path d="m39.33 393.86v-6.61h3.7v1.07h-2.22v1.52c.68.04 1.34.09 2.07.13v1.07c-.72.05-1.38.09-2.1.14v1.48h2.4v1.19h-3.85z"/><path d="m27.71 388.56c-1.15-.3-2.46-.61-3.1.64-.37.73-.41 1.93-.06 2.67.63 1.35 1.99.93 3.17.68.35.94-.01 1.32-.93 1.46-1.62.25-3.05-.27-3.76-1.48-.73-1.24-.6-3.03.31-4.17.88-1.11 2.71-1.7 4-1.16.32.13.44.74.65 1.12-.1.08-.19.16-.28.24"/><path d="m49.15 387.24v1.07c-.59.02-1.17.05-1.87.08v5.44h-1.48v-5.44h-1.85c-.05-.4-.08-.73-.13-1.15z"/><path d="m20.06 387.21h1.33v6.62h-1.33z"/><path d="m30.68 393.25c-.39.38-.8.79-1.05.76-.32-.05-.6-.45-.9-.7.26-.24.51-.64.8-.67.29-.04.62.3 1.15.61"/></g><path d="m112.2 170.69v193.21c-6.7 2.5-14.22 5.31-22.04 8.23.52-57.92 1.03-115.28 1.55-173.54-8.86 16.56-16.58 32.61-25.8 47.75-9.31 15.29-20.11 29.68-30.58 44.95-2.77-2.01-4.45-3.24-6.37-4.63 32.53-48.1 50.31-101.85 62.31-157.83-13.39 0-26.49-.78-39.42.34-6.32.55-11.22.93-15.07-4.69-.99-1.45-2.4-2.6-4.44-4.76h58.43c0-30.18 0-59.7 0-89.54 10.8 4.91 21.93 9.97 33.37 15.17-2.06 1.71-3.66 3.52-5.65 4.6-5.79 3.14-7.43 7.67-7.25 14.24.49 18.14.17 36.29.17 55.28 6.35 0 12.43.14 18.49-.12 1.21-.05 2.46-1.55 3.49-2.59 4.23-4.25 8.38-8.57 12.1-12.4 8.08 8.08 15.87 15.87 23.47 23.47-18.36 0-37.57 0-57.55 0 0 8.86.45 17.32-.15 25.7-.43 6.07 1.55 9.06 7.17 11.56 7.7 3.42 15.05 7.84 21.99 12.63 4.14 2.86 7.49 7.03 10.7 11 4.42 5.46 5.25 11.84 2.51 18.29-1.93 4.55-4.32 8.94-6.94 13.14-1.83 2.93-4.56 2.79-6.44-.09-1.7-2.62-3.16-5.47-4.25-8.41-5.47-14.8-13.65-28-23.8-40.96z" fill="#010104"/><path d="m243.19 121.47c10.54 4.79 20.35 9.24 29.03 13.18-6.65 9.04-13.34 18.13-20.02 27.22.37.5.75 1 1.12 1.49 1.57.08 3.15.22 4.72.22 21.16.01 42.32.11 63.48-.13 2.47-.03 5.4-1.4 7.27-3.08 4.42-3.97 8.34-8.5 12.21-12.54 8.26 8.28 15.98 16.02 23.93 24-29.69 0-59.5 0-90.46 0 24.11 35.48 55.85 57.19 97.45 64.45.09.85.2 1.64.24 2.43.04.83.01 1.65.01 2.76-9.21 3.03-19.54 4.43-23.45 15.9-10.67-4.08-20.06-9.88-28.82-16.72-22.48-17.56-38.59-40.23-51.74-65.18-1.53-2.9-3.32-3.14-6.12-3.59-8.91-1.44-13.56 2.2-18.03 10.07-23.54 41.45-62.57 75.08-103.09 90.01-.78-1.07-1.6-2.21-2.68-3.69 39.54-23.09 69.1-55.09 90.61-97.22-18.66 1.01-35.97 2.05-53.3 2.79-2.31.1-5.01-.82-6.96-2.13-2.7-1.82-4.85-4.44-8.31-7.76 3.13-.16 4.83-.33 6.53-.33 20-.02 39.99-.1 59.98.07 3.4.03 4.98-1.08 6.23-4.17 4.87-12.06 9.16-24.24 10.17-38.05z" fill="#010104"/><path d="m186.95 131.61c-3.82-7.64-7.9-15.8-12.14-24.27 18.25-3.17 30.73-14.9 42.86-27.06 15.01-15.06 28.36-31.34 36.91-51.84 9.77 6.5 19.34 12.87 29.42 19.57-29.52 14.93-53.45 36.44-78.18 57.34 40.22-1.9 80.44-3.8 120.66-5.7.27-.41.55-.83.82-1.24-9.8-9.31-19.61-18.62-29.66-28.17 1.41-3.1 3.31-4.45 7.08-2.34 13.65 7.62 27.43 15 41.09 22.6 2.45 1.36 4.63 3.25 6.79 5.08 12.35 10.46 13.47 16.52 5.77 30.63-3.53 6.46-7.22 6.56-11.35.52-3.94-5.76-8.09-11.37-12.19-17.02-1.67-2.3-3.66-3.17-6.79-2.77-24.54 3.14-49.17 5.66-73.66 9.12-17.05 2.41-33.99 5.73-50.87 9.21-5.59 1.14-10.8 4.08-16.56 6.34z" fill="#010104"/><path d="m244.71 284.8c-25.25 1.25-49.81-2.3-73.97 3.64-1.06.26-2.66 0-3.47-.66-2.18-1.79-4.08-3.92-6.07-5.94-1.37-1.39-2.69-2.81-4.86-5.08h87.45c0-20.54 0-40.41 0-60.96 10.88 5.41 21.97 10.92 33.45 16.63-1.24.89-1.96 1.64-2.84 2.01-8.66 3.65-11.48 10.02-10.39 19.28.85 7.22.17 14.62.17 22.5 1.82.13 3.41.35 4.99.35 15.16.03 30.33.14 45.49-.12 2.33-.04 5.08-1.35 6.84-2.95 4.42-4.02 8.39-8.54 12.25-12.55 8.17 8.17 15.91 15.92 23.75 23.75-30.58 0-61.57 0-93.31 0 0 2.32-.04 4.08.01 5.83.57 23.61 1.16 47.23 1.65 70.84.02.92-.66 2.38-1.41 2.73-6.88 3.19-13.84 6.19-21.26 9.45.5-29.81 1.01-58.85 1.53-88.75z" fill="#010104"/></svg>