<svg enable-background="new 0 0 400 400" viewBox="0 0 400 400" xmlns="http://www.w3.org/2000/svg"><path d="m5.17 384 .56-.58c.85.61 1.65 1.24 2.4 1.87l-.59.64c-.84-.73-1.63-1.38-2.37-1.93m1.22 9.53-.82-.34c.71-1.76 1.37-3.64 1.98-5.63.24.13.5.25.76.36-.6 1.67-1.24 3.54-1.92 5.61m-.5-13.5.57-.54c.56.44 1.31 1.06 2.26 1.87l-.64.64c-.68-.66-1.41-1.32-2.19-1.97m3.25.46h2.24v-1.36h.77v1.36h4.57v-1.36h.76v1.36h2.28v.69h-2.28v1.84h-2.64v1.26h4.18v2.64h-4.21c0 .45-.02.86-.05 1.21h4.32v.69h-4.38c-.04.34-.1.75-.19 1.22h5.15v.69h-4.82c.87 1.19 2.51 1.92 4.93 2.19-.17.31-.3.57-.37.76-2.77-.49-4.52-1.41-5.26-2.76-.56 1.26-2.3 2.23-5.24 2.9-.12-.24-.26-.48-.43-.72 2.73-.55 4.38-1.34 4.96-2.38h-4.38v-.69h4.65c.1-.38.17-.79.21-1.22h-4.32v-.69h4.4c.03-.34.05-.75.05-1.21h-4.2v-2.64h4.23v-1.26h-2.69v-1.84h-2.24zm1.46 4.46v1.29h3.45c.01-.4.02-.57.01-.53v-.32-.45h-3.46zm1.55-2.59h4.57v-1.19h-4.57zm6.11 2.59h-3.42v.77c-.01.19-.01.37-.02.53h3.44z" fill="#fafbfc"/><path d="m32.63 379.16h.82v1.98h3.54v7.89h1.46v.78h-14.37v-.78h1.46v-7.89h3.54v-1.98h.82v1.98h2.73zm-3.49 11.48.5.73c-1.61.82-3.28 1.63-5 2.41-.13-.27-.28-.55-.44-.82 1.75-.72 3.4-1.49 4.94-2.32m-2.78-5.55h2.73v-3.18h-2.73zm0 3.95h2.73v-3.2h-2.73zm3.54-3.95h2.73v-3.18h-2.73zm0 3.95h2.73v-3.2h-2.73zm7.89 4.68c-1.84-.92-3.51-1.7-5.02-2.32l.45-.73c1.89.8 3.57 1.55 5.04 2.23zm-1.62-11.81h-2.73v3.18h2.73zm-2.73 7.13h2.73v-3.2h-2.73v3.19z" fill="#fafbfc"/><g fill="#000001"><path d="m314.53 367.66c0-8.07 0-15.17 0-22.45-44.49 0-88.44 0-133.13 0 0 4.17.13 8.28-.07 12.37-.06 1.27-.71 3.25-1.61 3.61-5.64 2.29-11.43 4.21-17.39 6.34 0-50.13 0-99.63 0-150 4.38 2.3 8.79 4.36 12.92 6.87 5.28 3.2 10.77 4.34 17 4.3 37.82-.23 75.64-.21 113.46 0 5.09.03 8.96-1.05 12.11-5.1 2.23-2.88 4.88-5.43 6.93-7.67 7.05 7.03 13.58 13.55 20.1 20.04-.29.17-1.2.94-2.25 1.29-8.2 2.71-9.98 8.25-9.78 16.67.71 30.47.44 60.97.6 91.45.02 3.15.12 6.35.7 9.43.95 5.01-1.35 7.12-5.87 8.28-4.29 1.11-8.45 2.79-13.72 4.57zm-.34-31.44c0-15.57 0-30.76 0-45.9-20.12 0-39.84 0-59.79 0v45.9zm.1-98.95c-20.12 0-39.85 0-59.76 0v43.99h59.76c0-14.73 0-29.13 0-43.99zm-132.55 52.92v46.07h54.92c0-15.55 0-30.76 0-46.07-18.44 0-36.53 0-54.92 0zm.12-52.99v44.1h54.86c0-14.82 0-29.36 0-44.1-18.38 0-36.46 0-54.86 0z"/><path d="m85.03 373.2c0-57.96 0-115.56 0-172.48-7.6 13.94-14.99 29.02-23.8 43.23-8.82 14.22-19.05 27.56-28.66 41.29-.84-.33-1.69-.67-2.53-1 .28-1.82.09-3.9.92-5.42 15.46-28.21 28.22-57.6 38.28-88.14 7.44-22.57 12.67-45.68 16.52-70.2-12.63.57-24.94.5-37.08 1.94-5.28.63-8.83.23-12.09-3.9-1.37-1.73-3.45-2.91-5.2-4.34.32-.54.64-1.08.96-1.63h52.87c0-27.6 0-54.48 0-82.15 10.01 5.42 19.72 10.68 30.26 16.38-3.21 2.5-6.13 4.52-8.72 6.9-1.19 1.1-2.46 2.89-2.48 4.38-.16 17.5-.08 35-.05 52.5 0 .46.25.92.27.99 14.9 4.98 24.97-2.06 32.53-13.08 7.55 7.56 14.54 14.56 21.81 21.83-17.93 0-35.96 0-54.35 0-.13 2.21-.3 3.81-.3 5.41-.02 14 .09 28-.09 42-.04 3.17 1.05 4.57 3.92 5.87 8.47 3.83 17.09 7.53 25.01 12.34 15.96 9.68 17.96 29.27 3.61 41.83-2.23-3.99-4.65-7.6-6.36-11.51-5.89-13.47-14.79-24.69-25.72-35.88-.18 2.39-.38 3.77-.38 5.15.06 41 .06 81.99.26 122.99.08 16.48.54 32.96 1 49.43.09 3.19-.64 5.12-3.79 6.56-5.7 2.61-11.15 5.8-16.62 8.71z"/><path d="m352.15 92.1c6.73 9.16 13.02 17.7 20.11 27.35-21.42.86-34.4 13.84-46.33 28.78-1.86-1.36-3.41-2.49-5.54-4.04 6.12-9.51 12.17-18.92 18.55-28.84-54.13 0-107.65 0-161.18 0-.87 5.65-1.64 11.34-2.63 17-1.22 6.98-5.54 11.98-10.97 16.08-5.13 3.87-11.64 3.51-16.56-.65-3.06-2.59-2.53-8.22 1.14-12.54 3.77-4.43 8.61-8.36 11.05-13.43 4.41-9.18 7.71-18.94 10.79-28.67 1.1-3.49 2.22-4.91 6.24-3.83v16.89h62.63c0-25.72 0-51.26 0-77.37 10.15 5.48 20.18 10.91 30.22 16.33-.15.41-.17.82-.36.93-9.21 5.3-11.23 13.35-10.52 23.49.84 12.08.2 24.26.2 36.98 6 0 11.63.14 17.25-.13 1.07-.05 2.42-1.54 3.04-2.69 10.32-19.35 20.18-38.91 26.49-61 8.33 5.96 16.35 11.7 24.59 17.59-18.94 10.85-29.64 28.84-42.79 45.86 2.38.18 3.8.38 5.23.38 14 .02 27.99.15 41.98-.12 2.31-.04 5.03-1.34 6.77-2.92 3.65-3.33 6.78-7.23 10.6-11.43z"/><path d="m209.06 204.34c-3.94 8.23-12.87 7.71-19.06 12.3 0-28.14 0-55.51 0-83.1 4.54 2.79 9.35 6 14.41 8.72 2.37 1.27 5.24 2.21 7.9 2.23 23.66.17 47.33.03 71 .17 3.45.02 6.04-.84 8.28-3.48 2.89-3.41 6.05-6.59 9.22-10.01 7.04 6.54 13.37 12.41 20.22 18.77-3.28 2.24-6.13 4.43-9.21 6.22-2.76 1.6-3.86 3.57-3.72 6.85.51 12.3.58 24.63 1.13 36.93.14 3.18-.79 4.84-3.57 6.17-4.75 2.27-9.33 4.89-14.53 7.66 0-3.52 0-6.3 0-9.41-27.74-.02-55.15-.02-82.07-.02zm-.68-51.13v42.11h82.35c0-14.14 0-28.02 0-42.11-27.52 0-54.77 0-82.35 0z"/><path d="m183.96 42.54c9.7 7.12 19.84 13.79 29.08 21.54 12 10.05 12.09 24.71 1.06 35.11-3.45 3.26-5.54 2.98-7.28-1.55-1.77-4.62-2.79-9.51-4.38-14.2-4.22-12.42-11.15-23.3-19.36-33.43-2.65-3.28-2.62-3.31.88-7.47z"/></g></svg>