<svg enable-background="new 0 0 400 400" viewBox="0 0 400 400" xmlns="http://www.w3.org/2000/svg"><path d="m5.17 384 .56-.58c.85.61 1.65 1.24 2.4 1.87l-.59.64c-.84-.73-1.63-1.38-2.37-1.93m1.22 9.53-.82-.34c.71-1.76 1.37-3.64 1.98-5.63.24.13.5.25.76.36-.6 1.67-1.24 3.54-1.92 5.61m-.5-13.5.57-.54c.56.44 1.31 1.06 2.26 1.87l-.64.64c-.68-.66-1.41-1.32-2.19-1.97m3.25.46h2.24v-1.36h.77v1.36h4.57v-1.36h.76v1.36h2.28v.69h-2.28v1.84h-2.64v1.26h4.18v2.64h-4.21c0 .45-.02.86-.05 1.21h4.32v.69h-4.38c-.04.34-.1.75-.19 1.22h5.15v.69h-4.82c.87 1.19 2.51 1.92 4.93 2.19-.17.31-.3.57-.37.76-2.77-.49-4.52-1.41-5.26-2.76-.56 1.26-2.3 2.23-5.24 2.9-.12-.24-.26-.48-.43-.72 2.73-.55 4.38-1.34 4.96-2.38h-4.38v-.69h4.65c.1-.38.17-.79.21-1.22h-4.32v-.69h4.4c.03-.34.05-.75.05-1.21h-4.2v-2.64h4.23v-1.26h-2.69v-1.84h-2.24zm1.46 4.46v1.29h3.45c.01-.4.02-.57.01-.53v-.32-.45h-3.46zm1.55-2.59h4.57v-1.19h-4.57zm6.11 2.59h-3.42v.77c-.01.19-.01.37-.02.53h3.44z" fill="#fafbfc"/><path d="m32.63 379.16h.82v1.98h3.54v7.89h1.46v.78h-14.37v-.78h1.46v-7.89h3.54v-1.98h.82v1.98h2.73zm-3.49 11.48.5.73c-1.61.82-3.28 1.63-5 2.41-.13-.27-.28-.55-.44-.82 1.75-.72 3.4-1.49 4.94-2.32m-2.78-5.55h2.73v-3.18h-2.73zm0 3.95h2.73v-3.2h-2.73zm3.54-3.95h2.73v-3.18h-2.73zm0 3.95h2.73v-3.2h-2.73zm7.89 4.68c-1.84-.92-3.51-1.7-5.02-2.32l.45-.73c1.89.8 3.57 1.55 5.04 2.23zm-1.62-11.81h-2.73v3.18h2.73zm-2.73 7.13h2.73v-3.2h-2.73v3.19z" fill="#fafbfc"/><g fill="#000001"><path d="m142.35 365.33c42.62-18.59 80.56-43.89 112.56-78.36-18.58-28.1-28.67-59.67-37.98-92.34-10.31 2.6-20.95 5.57-26.88-8.03h5.14c34.16 0 68.32-.1 102.47.11 4.93.03 8.61-1.19 11.68-5 2.29-2.84 4.92-5.41 7.01-7.68 7.34 7.35 14.23 14.25 21.21 21.23.01-.01-.67.78-1.52 1.04-8.92 2.71-12.97 9.06-15.96 17.73-9 26.08-21.94 50.21-38.97 72.03-.51.65-.92 1.37-1.74 2.61 24.15 26.46 51.72 47 88.35 52.48 1.14 3.75.37 5.41-3.84 6.11-5.16.87-10.47 2.33-15.03 4.79-3.66 1.98-6.3 5.85-10.01 9.49-13.34-6.12-26.88-14.54-38.67-25.32-11.76-10.76-22.65-22.48-34.33-34.19-5.33 4.13-11.3 8.78-17.3 13.39-30.25 23.2-64.29 39.28-99.63 52.86-1.82.7-4.37-.48-6.57-.79 0-.72.01-1.44.01-2.16zm81.77-170.1c9.93 28.55 23.46 54.77 42.41 78.9 18.09-24.02 29.23-50.62 38.01-78.9-27.11 0-53.53 0-80.42 0z"/><path d="m38.2 39.76c5.82 3.73 10.98 7.32 16.43 10.42 2.32 1.32 5.22 2.29 7.87 2.31 28.66.16 57.33.18 85.99-.03 2.46-.02 5.34-1.42 7.28-3.07 4.55-3.86 8.65-8.26 12.56-12.08 7.87 7.69 15.75 15.4 24.06 23.52-45.3 0-90.19 0-135.54 0v258.47c1.59.1 3.19.28 4.8.28 29.33.02 58.66.1 87.99-.13 2.6-.02 5.68-1.52 7.69-3.29 4.35-3.84 8.14-8.3 11.78-12.12 8.23 8.29 16.01 16.12 23.8 23.96-1.07 0-2.8 0-4.53 0-40.83 0-81.66.08-122.49-.11-4.79-.02-8.22.95-10.69 5.24-1.48 2.56-3.65 4.72-5.91 7.56-6.62-6.12-13.13-12.13-19.62-18.14.38-.78.48-1.38.83-1.62 8.13-5.63 9.34-13.48 9.29-22.91-.38-62.66-.08-125.32-.26-187.99-.07-23.12-.85-46.24-1.33-70.27z"/><path d="m112.32 194.45c-11.04.61-21.28.3-31.16 2.04-6.76 1.19-11.15-.25-15.04-5.31-.98-1.28-2.19-2.38-4.08-4.41h51.75c1.06-19.42 2.08-38.24 3.14-57.75-7.03 0-13.3-.19-19.54.17-1.22.07-2.54 2.16-3.43 3.56-8.68 13.57-17.2 27.24-25.94 40.77-2.04 3.16-2.33 2.97-6.37 1.81 17.68-33.84 27.56-69.94 31.82-108.4 8.74 5.03 17.42 10.03 26.33 15.16-11.89 10.2-15.37 24.42-21.41 38.51h10.18c9.33 0 18.7-.5 27.99.16 7.5.53 13.2-1.51 17.63-7.53 1.47-2 3.29-3.75 4.46-5.07 7.26 7.27 14.11 14.13 20.71 20.73-14.37 0-29.88 0-45.43 0-.96 19.45-1.89 38.3-2.8 56.64 13.21 5.19 19.95-3.86 26.8-11.45 7.02 7.05 13.78 13.84 20.67 20.75-15.65 0-31.53 0-47.63 0-1.46 8.57-2.99 16.71-4.07 24.91-.15 1.13 1.7 2.87 3 3.8 10.29 7.33 21.07 14.03 30.94 21.89 14.14 11.27 14.07 31.27-.59 43.44-2.12-4.07-4.84-7.67-5.98-11.72-5.01-17.76-15.07-32.48-26.79-46.29-.43-.51-.9-.99-1.4-1.42-.22-.18-.58-.19 0-.02-6.12 11.58-11.45 23.42-18.34 34.28-10.81 17.03-25.48 30.68-41.53 42.78-1.27.96-3.63.47-5.76-.16 31.56-30.63 46.95-68.08 51.87-111.87z"/><path d="m218.91 42.84c2.19 1.27 3.73 1.92 5 2.93 10.7 8.54 22.83 11.19 36.34 9.95 8.1-.74 16.32-.29 24.48-.06 3.44.1 5.97-.78 8.3-3.38 2.98-3.34 6.39-6.31 10.08-9.89 6.8 5.92 13.75 11.96 21.01 18.28-1.54 1.19-2.57 2.39-3.87 2.92-7.96 3.29-9.66 9.19-9.27 17.44.73 15.29.13 30.65.24 45.98.07 9.67 3.81 15.19 11.09 15.79 9.31.77 18.6.52 27.54-2.95 7.61-2.96 14.92 1.55 16.26 9.76.57 3.48-.69 6.06-4.02 7.02-3.32.96-6.8 1.88-10.22 1.89-14.62.06-29.28.42-43.84-.58-10.2-.7-15.07-7.41-15.08-17.65-.02-25.15-.01-50.3-.01-75.87-18.07 0-35.95 0-54.53 0 0 6.15.61 12.45-.12 18.6-1.64 13.8-3.2 27.68-6.13 41.24-5.2 24.01-21.71 39.78-41.16 52.98-3.7 2.51-7.57 4.76-11.63 7.3-1.04-1.43-1.86-2.57-2.69-3.71.51.34 1.03.68 1.54 1.01 6.46-7.15 13.06-14.19 19.34-21.49 11.03-12.81 15.26-28.48 18.37-44.6 4.29-22.27 2.87-44.78 2.99-67.22 0-1.65-.01-3.3-.01-5.69z"/></g></svg>