<svg enable-background="new 0 0 400 400" viewBox="0 0 400 400" xmlns="http://www.w3.org/2000/svg"><path d="m5.17 384 .56-.58c.85.61 1.65 1.24 2.4 1.87l-.59.64c-.84-.73-1.63-1.38-2.37-1.93m1.22 9.53-.82-.34c.71-1.76 1.37-3.64 1.98-5.63.24.13.5.25.76.36-.6 1.67-1.24 3.54-1.92 5.61m-.5-13.5.57-.54c.56.44 1.31 1.06 2.26 1.87l-.64.64c-.68-.66-1.41-1.32-2.19-1.97m3.25.46h2.24v-1.36h.77v1.36h4.57v-1.36h.76v1.36h2.28v.69h-2.28v1.84h-2.64v1.26h4.18v2.64h-4.21c0 .45-.02.86-.05 1.21h4.32v.69h-4.38c-.04.34-.1.75-.19 1.22h5.15v.69h-4.82c.87 1.19 2.51 1.92 4.93 2.19-.17.31-.3.57-.37.76-2.77-.49-4.52-1.41-5.26-2.76-.56 1.26-2.3 2.23-5.24 2.9-.12-.24-.26-.48-.43-.72 2.73-.55 4.38-1.34 4.96-2.38h-4.38v-.69h4.65c.1-.38.17-.79.21-1.22h-4.32v-.69h4.4c.03-.34.05-.75.05-1.21h-4.2v-2.64h4.23v-1.26h-2.69v-1.84h-2.24zm1.46 4.46v1.29h3.45c.01-.4.02-.57.01-.53v-.32-.45h-3.46zm1.55-2.59h4.57v-1.19h-4.57zm6.11 2.59h-3.42v.77c-.01.19-.01.37-.02.53h3.44z" fill="#fafbfc"/><path d="m32.63 379.16h.82v1.98h3.54v7.89h1.46v.78h-14.37v-.78h1.46v-7.89h3.54v-1.98h.82v1.98h2.73zm-3.49 11.48.5.73c-1.61.82-3.28 1.63-5 2.41-.13-.27-.28-.55-.44-.82 1.75-.72 3.4-1.49 4.94-2.32m-2.78-5.55h2.73v-3.18h-2.73zm0 3.95h2.73v-3.2h-2.73zm3.54-3.95h2.73v-3.18h-2.73zm0 3.95h2.73v-3.2h-2.73zm7.89 4.68c-1.84-.92-3.51-1.7-5.02-2.32l.45-.73c1.89.8 3.57 1.55 5.04 2.23zm-1.62-11.81h-2.73v3.18h2.73zm-2.73 7.13h2.73v-3.2h-2.73v3.19z" fill="#fafbfc"/><g fill="#000001"><path d="m319.87 263.58c-34.92 2.95-68.48 5.79-102.45 8.67v22.17c12.08-.96 24.11-1.87 36.14-2.88 13.74-1.16 27.47-2.41 41.21-3.6 7.95-.69 15.92-1.22 23.84-2.13 1.56-.18 3.21-1.54 4.39-2.77 4.02-4.16 7.84-8.51 12.04-13.11 7.88 6.94 15.42 13.58 24.18 21.3-48.3 3.96-95.15 7.8-142.15 11.66 0 9.54-.29 18.36.08 27.16.34 8.03 6.27 12.59 16.13 12.73 11.83.17 23.66.04 35.49.04 18.16 0 36.33-.15 54.49.07 8.25.1 14.22-3.38 16.45-11 2.49-8.52 3.88-17.41 5.14-26.23.56-3.95 1.34-6.06 5.68-4.65 2.22 14.56-2.3 31.65 15.7 40.44-3.8 7.82-10.15 12.39-18.37 14.38-3.36.82-6.92 1.1-10.39 1.11-35.66.08-71.32.17-106.98-.08-5.88-.04-11.95-1.07-17.57-2.82-8.97-2.79-13.02-9.07-13.08-18.42-.07-10.28-.02-20.57-.02-31.25-8.68.71-16.76 1.32-24.83 2.05-16.71 1.51-33.44 2.92-50.12 4.72-4.69.51-9.38 1.88-13.83 3.51-2.61.95-4.27.76-6.16-1.1-2.81-2.76-5.78-5.36-9.55-8.82 35.36-2.98 69.7-5.87 104.23-8.78 0-7.46 0-14.39 0-22.07-8.12.5-16.02.91-23.91 1.49-11.1.81-22.2 1.75-33.29 2.65-1.31.11-2.87-.02-3.88.63-8.05 5.17-14.55 2.32-20.6-3.63-1.17-1.15-2.63-2-5.04-3.79 29.59-2 58.07-3.92 86.74-5.85 0-7.91 0-15.34 0-23.38-26.55 1.43-52.85 2.86-79.26 4.28-1.51-4.06-.56-5.89 3.5-6.33 41.27-4.46 82.54-9.11 123.12-18.13 14.53-3.23 28.74-7.86 43.07-11.97 2.13-.61 4.08-1.87 5.88-3.57-65.02 0-130.04 0-195.85 0 0 4.49.14 8.94-.02 13.37-.84 23.59-1.39 47.26-7.05 70.32-8.33 33.97-28.48 60.2-55.04 82.65-1.07-1.59-1.87-2.76-2.71-4.01 11.98-14.03 21.93-29.08 28.78-46.07 8.25-20.47 13.78-41.63 14.86-63.68 1.06-21.76 1.19-43.56 1.69-65.34.04-1.78-.26-3.58-.46-6.12 6.16 2.86 11.75 5.68 17.52 8.04 2.84 1.16 6.02 2.05 9.05 2.06 70.49.11 140.98.06 211.46.17 3.84.01 6.63-1.03 9.12-3.89 3.71-4.26 7.69-8.28 11.15-11.97 8.38 8.36 16.12 16.08 24.04 23.98-20.79 0-41.67 0-63.79 0 6.29 8.32 11.93 15.77 17.21 22.75-32.68 3.63-65.53 7.27-98.58 10.94v24.31c4.22-.32 8.43-.59 12.63-.98 14.56-1.35 29.13-2.56 43.65-4.26 2.8-.33 5.81-2.16 7.95-4.13 3.9-3.58 7.23-7.79 11.21-12.2 8.85 6.95 17.54 13.79 27.16 21.36z"/><path d="m48.8 117.49h78.97c0-10.91 0-21.35 0-32.49-3.45 0-6.88-.12-10.31.02-13.09.53-26.31-1.56-39.27 1.99-1.19.33-3.07-.16-4.02-.97-2.99-2.57-5.69-5.47-9.57-9.3h62.89c0-14.91 0-29.11 0-43.7 9.96 4.54 19.89 9.06 30.69 13.98-3.8 2.99-7.19 5.28-10.07 8.09-1.46 1.42-2.64 3.74-2.81 5.74-.4 4.95-.13 9.96-.13 15.68 7.75 0 15.2.17 22.62-.15 1.47-.06 3.02-1.87 4.26-3.14 3.13-3.2 6.11-6.55 8.78-9.45 7.44 7.42 14.3 14.25 21.26 21.19-18.59 0-37.47 0-56.64 0v32.49c9.45 0 18.89.09 28.32-.12 1.2-.03 2.52-1.49 3.52-2.54 3.79-3.96 7.48-8.02 10.93-11.74 7.97 7.95 15.23 15.19 22.75 22.69-21.72 0-43.56 0-65.4 0-.24.58-.48 1.16-.72 1.73 1.33.81 2.57 1.91 4.01 2.39 8.95 3.03 17.96 5.88 26.92 8.9 2.19.74 4.35 1.71 6.36 2.86 14.65 8.31 12.95 15.03 5.7 28.95-.34.66-3.18.94-3.91.31-2.11-1.82-3.87-4.1-5.51-6.38-8.6-11.95-19.77-20.86-32.38-28.2v50.9c-5.47 1.98-11.94 4.33-18.56 6.73 0-18.53 0-36.71 0-55.76-4.75 4.86-9.04 9.59-13.68 13.94-21.57 20.29-47.2 34.44-73.25 47.9-2.71 1.4-2.79 1.24-5.05-2.86 29.97-19.34 58.28-40.64 78.91-70.33-14.93 0-29.73-.9-44.34.37-7.68.66-13.55.55-18.03-6.15-.61-.88-1.48-1.63-3.24-3.57z"/><path d="m266.75 138.91c-12.41-15.79-20.6-33.1-26.21-52.22-9.25 10.29-18.17 20.21-27.27 30.34-1.91-1.81-3.09-2.92-4.4-4.17 17.88-25.93 33.52-52.78 40.62-84.32 8.21 5.04 16.23 9.95 23.44 14.37-8.65 10.77-17.2 21.41-25.75 32.06.32.54.65 1.08.97 1.61h4.72c18.49 0 36.99-.08 55.48.07 3.46.03 6-.9 8.27-3.5 3.38-3.85 7.05-7.46 10.34-10.91 7.75 7.76 15.01 15.05 22.69 22.74-6.7 0-13.41-.13-20.11.1-1.48.05-3.78 1.01-4.24 2.15-7.71 19.12-19.17 35.67-34.15 50.28 20.11 15.76 42.47 24.84 67.62 26.47 1.81 4.42-.49 5.59-3.96 6-9.69 1.15-17.51 5.1-21.5 15.11-20.64-8.62-38.54-21.01-54.81-35.89-7.98 4.99-15.72 10.1-23.71 14.78-21.22 12.41-44.02 21.01-67.6 27.7-2.95.84-4.86.45-5.65-3.31 30.67-12.04 59.4-27.64 85.21-49.46zm9.92-9.88c12.06-13.03 21.62-27.09 27.65-43.62-19.71 0-38.72 0-58.28 0 8.5 16.12 16.75 31.61 30.63 43.62z"/></g></svg>