<svg enable-background="new 0 0 400 400" viewBox="0 0 400 400" xmlns="http://www.w3.org/2000/svg"><path d="m5.17 384 .56-.58c.85.61 1.65 1.24 2.4 1.87l-.59.64c-.84-.73-1.63-1.38-2.37-1.93m1.22 9.53-.82-.34c.71-1.76 1.37-3.64 1.98-5.63.24.13.5.25.76.36-.6 1.67-1.24 3.54-1.92 5.61m-.5-13.5.57-.54c.56.44 1.31 1.06 2.26 1.87l-.64.64c-.68-.66-1.41-1.32-2.19-1.97m3.25.46h2.24v-1.36h.77v1.36h4.57v-1.36h.76v1.36h2.28v.69h-2.28v1.84h-2.64v1.26h4.18v2.64h-4.21c0 .45-.02.86-.05 1.21h4.32v.69h-4.38c-.04.34-.1.75-.19 1.22h5.15v.69h-4.82c.87 1.19 2.51 1.92 4.93 2.19-.17.31-.3.57-.37.76-2.77-.49-4.52-1.41-5.26-2.76-.56 1.26-2.3 2.23-5.24 2.9-.12-.24-.26-.48-.43-.72 2.73-.55 4.38-1.34 4.96-2.38h-4.38v-.69h4.65c.1-.38.17-.79.21-1.22h-4.32v-.69h4.4c.03-.34.05-.75.05-1.21h-4.2v-2.64h4.23v-1.26h-2.69v-1.84h-2.24zm1.46 4.46v1.29h3.45c.01-.4.02-.57.01-.53v-.32-.45h-3.46zm1.55-2.59h4.57v-1.19h-4.57zm6.11 2.59h-3.42v.77c-.01.19-.01.37-.02.53h3.44z" fill="#fafbfc"/><path d="m32.63 379.16h.82v1.98h3.54v7.89h1.46v.78h-14.37v-.78h1.46v-7.89h3.54v-1.98h.82v1.98h2.73zm-3.49 11.48.5.73c-1.61.82-3.28 1.63-5 2.41-.13-.27-.28-.55-.44-.82 1.75-.72 3.4-1.49 4.94-2.32m-2.78-5.55h2.73v-3.18h-2.73zm0 3.95h2.73v-3.2h-2.73zm3.54-3.95h2.73v-3.18h-2.73zm0 3.95h2.73v-3.2h-2.73zm7.89 4.68c-1.84-.92-3.51-1.7-5.02-2.32l.45-.73c1.89.8 3.57 1.55 5.04 2.23zm-1.62-11.81h-2.73v3.18h2.73zm-2.73 7.13h2.73v-3.2h-2.73v3.19z" fill="#fafbfc"/><g fill="#000001"><path d="m298.56 29.93c9.58 5.66 19.39 11.46 28.69 16.96-6.55 4.69-13.83 8.72-19.62 14.31-11.35 10.94-21.86 22.75-33.51 35.03 2.38.16 3.88.35 5.38.35 14.83.02 29.66.15 44.48-.12 2.51-.05 5.38-1.4 7.39-3.02 4.88-3.94 9.35-8.4 14.22-12.85 7.53 8 14.81 15.74 22.99 24.42-2.7 0-4.4 0-6.09 0-33.16 0-66.32.11-99.47-.12-4.71-.03-7.39 1.13-9.72 5.43-8.23 15.18-16.96 30.1-25.91 45.84 2 .19 3.37.42 4.74.42 23.83.02 47.65.1 71.48-.11 2.32-.02 5.1-1.33 6.85-2.93 3.91-3.56 7.31-7.69 11.3-12 7.15 8.12 13.6 15.44 20.31 23.07-1.01.7-1.8 1.6-2.77 1.86-7.18 1.9-8.55 6.54-8.48 13.61.42 45.82.3 91.64.36 137.46.01 12.62 0 25.24 0 38.35-5.75 1.63-12.21 3.46-19.23 5.44 0-9.34 0-18.1 0-27.09-44.34 0-88.25 0-132.58 0v21.29c-6.63 2.36-12.96 4.61-19.18 6.83 0-72.87 0-145.38 0-218.3 5.98 3.36 11.93 6.96 18.13 10.06 2.71 1.35 5.9 2.26 8.91 2.36 8.82.31 17.66.23 26.49-.01 1.52-.04 3.96-1.29 4.36-2.51 5.15-15.77 10-31.64 14.91-47.49.09-.29-.06-.65-.14-1.47-2.23 0-4.51 0-6.79 0-14.5 0-29.01-.41-43.48.13-11.08.41-22.11 2.12-33.18 2.98-1.93.15-4.36-.6-5.89-1.79-3.22-2.52-5.99-5.6-10.08-9.54h71.02c-5.22-10.91-9.43-21.65-15.29-31.39-5.88-9.76-13.41-18.53-20.29-27.82 1.75-3.6 4.19-3.95 7.81-1.78 8.83 5.31 18.23 9.75 26.69 15.58 9.51 6.55 16.94 15.34 14.6 27.92-1.12 6-4.96 11.49-7.6 17.3h4.68c15 0 29.99-.14 44.99.09 3.99.06 6.26-1.09 8.2-4.7 10.78-20.04 22.38-39.67 29.44-61.49.02-.12.25-.17.88-.56zm13.08 184.29c0-16.52 0-32.74 0-48.92-44.24 0-88.12 0-132.24 0v48.92zm-132.19 110.98h132.15c0-15.95 0-31.5 0-46.84-44.29 0-88.17 0-132.15 0zm.13-102.07v46.09h132.07c0-15.52 0-30.74 0-46.09-44.13 0-87.9 0-132.07 0z"/><path d="m36.28 255.69c6.76.53 13.47.48 19.94 1.69 11.26 2.11 19.95-1.17 25.19-11.27 6.81-13.11 13.37-26.39 19.28-39.93 12.03-27.54 23.55-55.31 35.28-82.98.45-1.06.9-2.12 1.44-3.38 1.73.5 3.28.95 5.26 1.53-4.49 12.77-8.97 25.22-13.26 37.74-11.6 33.93-23.33 67.81-34.58 101.86-5.16 15.62-5.99 31.89-4.89 48.27.78 11.6 1.41 23.21 1.96 34.83.17 3.61-3.25 6.06-7.85 5.67-2.8-.24-5.57-.83-8.33-1.4-13.53-2.83-15.48-8.44-13.32-21.33 1.61-9.61 4.84-18.93 6.84-28.48.9-4.29.86-8.86.7-13.28-.27-7.56-4.47-12.9-11.09-15.92-6.32-2.88-12.96-5.09-19.55-7.29-3.05-1.03-4.63-2.36-3.02-6.33z"/><path d="m34.68 126.06c.41-.61 1.21-1.81 2.19-3.26 15.54 8.35 31.06 16.36 43.51 28.96 8.4 8.5 9.43 22.65 2.59 32.46-4.68 6.71-9.43 6.56-13.01-.75-3.8-7.74-6.3-16.23-10.88-23.44-7.4-11.6-16.02-22.42-24.4-33.97z"/><path d="m71.53 37.4c12.28 7.94 25.47 15.42 37.45 24.5 12.26 9.29 11.97 28.11.63 37.57-4.36 3.63-6.3 3.48-8.81-1.66-2.69-5.5-4.01-11.75-7.17-16.92-7.36-12.04-15.27-23.75-23.38-35.29-2.16-3.07-2.81-5 1.28-8.2z"/></g></svg>