<svg enable-background="new 0 0 400 400" viewBox="0 0 400 400" xmlns="http://www.w3.org/2000/svg"><path d="m5.17 384 .56-.58c.85.61 1.65 1.24 2.4 1.87l-.59.64c-.84-.73-1.63-1.38-2.37-1.93m1.22 9.53-.82-.34c.71-1.76 1.37-3.64 1.98-5.63.24.13.5.25.76.36-.6 1.67-1.24 3.54-1.92 5.61m-.5-13.5.57-.54c.56.44 1.31 1.06 2.26 1.87l-.64.64c-.68-.66-1.41-1.32-2.19-1.97m3.25.46h2.24v-1.36h.77v1.36h4.57v-1.36h.76v1.36h2.28v.69h-2.28v1.84h-2.64v1.26h4.18v2.64h-4.21c0 .45-.02.86-.05 1.21h4.32v.69h-4.38c-.04.34-.1.75-.19 1.22h5.15v.69h-4.82c.87 1.19 2.51 1.92 4.93 2.19-.17.31-.3.57-.37.76-2.77-.49-4.52-1.41-5.26-2.76-.56 1.26-2.3 2.23-5.24 2.9-.12-.24-.26-.48-.43-.72 2.73-.55 4.38-1.34 4.96-2.38h-4.38v-.69h4.65c.1-.38.17-.79.21-1.22h-4.32v-.69h4.4c.03-.34.05-.75.05-1.21h-4.2v-2.64h4.23v-1.26h-2.69v-1.84h-2.24zm1.46 4.46v1.29h3.45c.01-.4.02-.57.01-.53v-.32-.45h-3.46zm1.55-2.59h4.57v-1.19h-4.57zm6.11 2.59h-3.42v.77c-.01.19-.01.37-.02.53h3.44z" fill="#fafbfc"/><path d="m32.63 379.16h.82v1.98h3.54v7.89h1.46v.78h-14.37v-.78h1.46v-7.89h3.54v-1.98h.82v1.98h2.73zm-3.49 11.48.5.73c-1.61.82-3.28 1.63-5 2.41-.13-.27-.28-.55-.44-.82 1.75-.72 3.4-1.49 4.94-2.32m-2.78-5.55h2.73v-3.18h-2.73zm0 3.95h2.73v-3.2h-2.73zm3.54-3.95h2.73v-3.18h-2.73zm0 3.95h2.73v-3.2h-2.73zm7.89 4.68c-1.84-.92-3.51-1.7-5.02-2.32l.45-.73c1.89.8 3.57 1.55 5.04 2.23zm-1.62-11.81h-2.73v3.18h2.73zm-2.73 7.13h2.73v-3.2h-2.73v3.19z" fill="#fafbfc"/><g fill="#000001"><path d="m154.93 237.07c-9.07 1.45-17.27 2.55-25.36 4.17-2.78.56-4.58.31-6.53-1.79-2.78-3-5.91-5.65-8.9-8.46.23-.47.47-.93.7-1.4h67.74c0-44.81 0-88.9 0-134.5-10.85 1.22-21.4 1.96-31.75 3.78-4.66.82-7.74.37-10.73-3.32-1.95-2.41-4.69-4.17-7.07-6.22.24-.5.48-1.01.72-1.51h48.47c0-18.65 0-36.52 0-55.07 9.98 4.05 19.88 8.07 30.2 12.26-1.05 1.14-1.57 2.06-2.36 2.5-8.11 4.47-9.85 11.51-9.01 20.15.6 6.26.12 12.64.12 19.44h77.21c0-17.54 0-34.93 0-52.89 10.03 4.55 19.91 9.04 29.87 13.56-.5.79-.61 1.19-.85 1.3-9.31 4.28-11.2 11.87-10.11 21.27.63 5.4.11 10.94.11 17.18 6.32 0 12.25.14 18.17-.11 1.23-.05 2.56-1.41 3.58-2.43 5.3-5.29 10.52-10.67 16.22-16.48 8.59 9.04 16.9 17.79 25.85 27.2-21.51 0-42.32 0-63.47 0v133.82c8.57 0 16.85.12 25.13-.12 1.4-.04 2.88-1.5 4.12-2.56 6.19-5.27 12.31-10.63 18.75-16.21 8.48 8.96 16.77 17.73 25.72 27.19-66.36 0-131.76 0-197.6 0v101.47c1.59.1 3.19.28 4.79.28 43.5.02 86.99.06 130.49-.11 2.5-.01 5.47-1.23 7.42-2.85 5.97-4.97 11.55-10.4 17.55-15.89 8.09 9.03 15.85 17.68 24.45 27.28-2.64 0-4.34 0-6.03 0-56.66 0-113.32.07-169.98-.12-5.43-.02-9.67 1.03-12.94 5.48-1.57 2.14-3.46 4.04-5.49 6.38-6.55-6.01-12.51-11.47-18.68-17.13.72-.77 1.15-1.57 1.8-1.87 6.93-3.14 7.98-8.62 7.87-15.74-.42-26.99-.17-53.99-.17-80.99-.02-1.81-.02-3.61-.02-6.94zm46.48-49.86v41.93h77.22c0-14.21 0-27.97 0-41.93-25.76 0-51.21 0-77.22 0zm.01-47.01v37.93h77.2c0-12.89 0-25.31 0-37.93-25.77 0-51.22 0-77.2 0zm-.08-8.98h77.35c0-11.81 0-23.25 0-34.79-25.92 0-51.6 0-77.35 0z"/><path d="m125.99 96.58c2.04.67 3.53 1.16 5.18 1.7-7.58 30.11-15.23 59.82-22.5 89.63-6.52 26.74-13.17 53.47-18.67 80.43-2.6 12.77-3.14 26.05-3.69 39.13-.62 14.81-.15 29.66-.29 44.49-.02 2.27-.4 4.7-1.3 6.76-1.39 3.15-4.09 5.27-7.62 3.82-5.48-2.25-11.09-4.52-16.01-7.76-6.95-4.57-7.63-11.92-5.68-19.23 2.87-10.72 6.65-21.2 9.55-31.92 2.99-11.07.27-17.52-9.86-22.7-6.77-3.46-14.03-5.97-21.17-8.66-4.03-1.53-4.12-1.31-3.8-5.35 7.14 0 14.23-.27 21.3.07 9 .43 15.4-3.01 20.54-10.51 7.77-11.34 11.85-24.17 15.9-36.97 12.22-38.61 24.03-77.34 35.99-116.03.64-2.04 1.27-4.1 2.13-6.9z"/><path d="m271.53 255c.71-1.55.86-2 1.12-2.4.54-.83 1.13-1.62 2.48-3.52 14.57 8.54 29.66 16.31 43.56 25.81 16.83 11.5 14.4 26.52 5.71 41.58-1.69 2.92-4.11 2.16-5.82.39-2.04-2.11-3.98-4.58-5.13-7.26-8.48-19.79-22.32-35.65-37.04-50.86-1.49-1.52-3.42-2.63-4.88-3.74z"/><path d="m222 245.64c8.26 6.76 15.95 13.05 24.01 19.64-19.86 11.84-32.55 30.69-49.04 45.49-4.69 4.21-9.7 8.09-14.78 11.83-1.07.79-3.08.29-5.96.46 18.87-24.9 36.09-48.52 45.77-77.42z"/><path d="m29.04 134.23c2.61-.18 4.48-.92 5.52-.29 12.6 7.66 25.33 15.16 37.52 23.44 13.55 9.21 7.4 28.03-1.49 35.45-.95.8-3.65.76-4.66-.03-1.88-1.47-3.7-3.56-4.52-5.77-7.08-19.13-19.09-35.23-32.37-52.8z"/><path d="m59.97 45.62c2.41-.29 4.3-1.15 5.44-.55 11.47 5.96 22.9 12.02 34.19 18.32 12.95 7.22 12.75 27.17 1.2 38.49-2.72 2.66-5.51 1.58-7.63-2.84-2.66-5.52-4.76-11.34-7.76-16.66-3.57-6.34-7.7-12.39-11.85-18.38-4.06-5.86-8.46-11.47-13.59-18.38z"/></g></svg>