<svg enable-background="new 0 0 400 400" viewBox="0 0 400 400" xmlns="http://www.w3.org/2000/svg"><path d="m6.4 11.7c-1-.8-1.9-1.6-2.9-2.3l.6-.7c.9.7 1.9 1.4 2.9 2.2zm-2.1 8.3c.7-2.1 1.4-4.2 2-6.4.2.1.6.3 1 .4-.7 2.3-1.3 4.4-1.9 6.4zm3-12.8c-1.1-.9-2.1-1.7-2.9-2.4l.6-.7c1 .8 2 1.5 3 2.4zm1.4-1.3v-.9h10.2v.9c-.9 4.2-2.3 7.3-4.1 9.4 1.3 1.4 3.2 2.7 5.7 4-.2.2-.4.5-.7.9-2.5-1.4-4.4-2.7-5.7-4.2-1.4 1.5-3.5 3-6.1 4.4 0 0 0 0-.1-.1-.3-.4-.5-.7-.7-.8 2.7-1.3 4.7-2.8 6.2-4.2-1.8-2.2-3-5.3-3.7-9.4zm9.2 0h-7.1c.6 3.8 1.7 6.7 3.4 8.7 1.7-2.1 2.9-4.8 3.7-8.7z" fill="#fcfbfa"/><path d="m31.6 3.6h.9v2.3h4.1v9.1h1.7v.9h-16.6v-.9h1.7v-9.1h4.1v-2.3h.9v2.3h3.1v-2.3zm-4 13.3.6.8c-1.9.9-3.8 1.9-5.8 2.8-.2-.3-.3-.6-.5-.9 2-.9 3.9-1.8 5.7-2.7zm-3.2-10.1v3.7h3.1v-3.7zm0 4.5v3.7h3.1v-3.7zm4.1-4.5v3.7h3.1v-3.7zm0 4.5v3.7h3.1v-3.7zm9.1 9.1c-2.1-1.1-4.1-2-5.8-2.7l.5-.8c2.2.9 4.1 1.8 5.8 2.6zm-1.9-13.6h-3.1v3.7h3.1zm-3.2 4.5v3.7h3.1v-3.7z" fill="#fcfbfa"/><g fill="#010105"><path d="m180.3 47.8c5.74 3.81 11.11 7.69 16.79 11.01 2.57 1.5 5.79 2.65 8.72 2.67 37.48.18 74.96.07 112.44.19 3.61.01 6.33-.8 8.75-3.58 3.27-3.76 6.9-7.19 9.99-10.36 7.29 7.33 14.26 14.35 21.24 21.36-2.77 1.41-6.22 3.36-9.84 4.92-2.48 1.07-3.4 2.47-3.38 5.26.21 37.81.3 75.62.41 113.43.03 10.47 0 20.93 0 32.25-5.41 1.93-11.72 4.18-18.78 6.71 0-5.57 0-10.33 0-15.36-42.62 0-84.68 0-126.72 0-.22.31-.6.61-.56.83 1.61 7.8-2.73 11.39-9.32 13.73-3.23 1.14-6.22 2.96-9.74 4.67 0-62.69 0-124.8 0-187.73zm145.9 159.56c0-46.04 0-91.56 0-137.05-42.45 0-84.51 0-126.63 0v137.05z"/><path d="m29.51 371.22c.9-1.93 1.44-4.17 2.77-5.73 13.07-15.39 24.96-31.57 34.71-49.31 11.65-21.2 16.97-44.12 20-67.9 5.89-46.13 3.74-92.42 3.56-138.68-.07-18.64-.59-37.28-.98-55.92-.12-5.76-.49-11.52-.79-18.41 11.42 6.43 21.91 12.33 33.07 18.61-3.17 2.84-6.1 5.19-8.67 7.89-1.26 1.32-2.64 3.26-2.65 4.92-.15 28.83-.1 57.66-.07 86.48 0 .46.23.92.66 2.52 12.95-16.7 25.15-32.83 32.03-53 7.03 6.08 13.73 11.87 20.86 18.04-17.72 6.72-27.04 22.44-40 33.95-3.36 2.98-6.35 6.4-9.82 9.23-2.84 2.32-3.96 4.97-4.05 8.58-.62 23.79-1.31 47.57-2.18 71.35-.11 3.13.89 4.56 3.56 6.08 11.98 6.81 24.03 13.55 35.51 21.15 4.24 2.81 7.46 7.59 10.29 12.01 4.69 7.33 1.9 20.78-5.13 25.72-1.15.81-4.39.38-5.39-.68-1.98-2.1-3.34-4.92-4.49-7.64-7.73-18.27-21.62-31.61-35.98-45.94-9.3 49.92-30.19 91.46-74.75 117.65-.7-.33-1.39-.65-2.07-.97z"/><path d="m340.59 336.25c-4.54 10.44-12.21 16.25-22.14 18.71-6.87 1.7-14.06 2.79-21.13 2.91-22.64.36-45.29.18-67.94.08-3.46-.02-7.01-.4-10.36-1.23-9.96-2.47-16.01-10.54-16.11-21.88-.18-21.81.03-43.63-.14-65.44-.07-8.92-.74-17.84-1.17-27.48 11.05 4.32 21.44 8.39 33.41 13.07-4.37 3.91-8.12 6.94-11.42 10.4-1.32 1.38-2.3 3.69-2.32 5.59-.17 17.98-.2 35.97-.06 53.95.09 11.07 5.38 15.97 16.4 15.94 18.82-.06 37.63 0 56.45-.02 11.47-.01 17.82-5.51 18.83-16.81 1.1-12.21 1.8-24.45 2.69-36.93h4.35c1.02 8.34 2.24 16.51 2.99 24.72 1.05 11.49 5.4 20.51 17.67 24.42z"/><path d="m185.19 262.24c-1.17 19.54-.05 39.19-5.23 58.32-2.31 8.54-7.29 14.68-16.42 15.91-3.33.45-7.35-.04-10.27-1.58-5.14-2.71-5.77-6.2-2.59-11.21 3.47-5.45 8.42-10.14 10.97-15.94 5.99-13.6 11.09-27.59 16.18-41.56 1.29-3.54 2.5-5.62 7.36-3.94z"/><path d="m61.45 131.75h5.08c0 14.15.21 28.17-.08 42.18-.16 7.83-2.7 15.26-8.18 20.91-3.68 3.8-8.18 7.39-13.01 9.38-7.99 3.29-14.78-3.09-12.78-11.6.76-3.25 2.27-6.94 4.65-9.08 11.85-10.68 16.52-24.96 20.84-39.5 1.17-3.96 2.25-7.94 3.48-12.29z"/><path d="m326.13 239.28c11.46 8.3 23.01 16.4 34.23 24.92 6.15 4.67 9.34 11.61 11.64 18.81 2.4 7.51-2.41 18.09-9.85 21.35-1.36.59-4.12-.3-5.29-1.46-1.42-1.41-2.25-3.76-2.61-5.83-3.44-19.54-14.57-34.69-27.61-48.75-2.22-2.39-3.81-4.69-.51-9.04z"/><path d="m250.13 221.7c10.54 8.08 21.95 15.23 31.33 24.44 10.32 10.13 11.74 24.11 1.08 33.97-5.2 4.81-7.95 4.22-10.51-2.41-4.05-10.49-7.64-21.19-12.3-31.4-2.51-5.5-6.72-10.25-10.38-15.19-2.98-4.02-3.11-3.92.78-9.41z"/><path d="m266.37 149.04c-12.6 25.29-33.91 40.67-59.2 51.95-.93-1.76-1.76-3.34-2.82-5.33 23.46-17.71 43-38.17 49.49-69.2-9.07.61-17.58.61-25.87 1.96-4.63.76-7.88.55-10.88-3.19-1.6-2-3.87-3.46-5.84-5.16.27-.47.55-.94.82-1.42h41.14c0-14.81 0-29 0-43.47 10.3 3.59 20.75 7.23 31.22 10.88-.23.52-.25.76-.37.81-13.72 6.59-13.25 18.5-11.28 31.17 4.37 1.08 8.56 1.13 12.33-2.91 3.6-3.86 7.78-7.16 12.1-11.07 7.05 7.51 13.82 14.73 21.3 22.69-16.25 0-31.6 0-47.08 0-1.11 5.13-2.35 9.76-2.96 14.46-.13 1.03 1.72 2.79 3.04 3.46 10.07 5.1 20.45 9.6 30.31 15.07 14.16 7.86 15.29 17.82 9.29 32.68-1.33 3.3-3.39 3.56-5.52.93-1.55-1.91-2.81-4.12-3.85-6.36-5.78-12.53-22.9-31.04-35.37-37.95z"/></g></svg>