<svg enable-background="new 0 0 400 400" viewBox="0 0 400 400" xmlns="http://www.w3.org/2000/svg"><path d="m6.4 11.7c-1-.8-1.9-1.6-2.9-2.3l.6-.7c.9.7 1.9 1.4 2.9 2.2zm-2.1 8.3c.7-2.1 1.4-4.2 2-6.4.2.1.6.3 1 .4-.7 2.3-1.3 4.4-1.9 6.4zm3-12.8c-1.1-.9-2.1-1.7-2.9-2.4l.6-.7c1 .8 2 1.5 3 2.4zm1.4-1.3v-.9h10.2v.9c-.9 4.2-2.3 7.3-4.1 9.4 1.3 1.4 3.2 2.7 5.7 4-.2.2-.4.5-.7.9-2.5-1.4-4.4-2.7-5.7-4.2-1.4 1.5-3.5 3-6.1 4.4 0 0 0 0-.1-.1-.3-.4-.5-.7-.7-.8 2.7-1.3 4.7-2.8 6.2-4.2-1.8-2.2-3-5.3-3.7-9.4zm9.2 0h-7.1c.6 3.8 1.7 6.7 3.4 8.7 1.7-2.1 2.9-4.8 3.7-8.7z" fill="#fcfbfa"/><path d="m31.6 3.6h.9v2.3h4.1v9.1h1.7v.9h-16.6v-.9h1.7v-9.1h4.1v-2.3h.9v2.3h3.1v-2.3zm-4 13.3.6.8c-1.9.9-3.8 1.9-5.8 2.8-.2-.3-.3-.6-.5-.9 2-.9 3.9-1.8 5.7-2.7zm-3.2-10.1v3.7h3.1v-3.7zm0 4.5v3.7h3.1v-3.7zm4.1-4.5v3.7h3.1v-3.7zm0 4.5v3.7h3.1v-3.7zm9.1 9.1c-2.1-1.1-4.1-2-5.8-2.7l.5-.8c2.2.9 4.1 1.8 5.8 2.6zm-1.9-13.6h-3.1v3.7h3.1zm-3.2 4.5v3.7h3.1v-3.7z" fill="#fcfbfa"/><g fill="#010105"><path d="m63.17 255.33c6.87 1.59 12.27.79 16.43-4.85 2.36-3.19 5.36-5.91 7.7-8.44 7.61 7.6 14.73 14.7 22.05 22.02-15 0-30.32 0-45.9 0v63.03h96.23c0-20.54 0-40.97 0-62.72-8.04 1.03-16.03 1.28-23.56 3.26-5.54 1.46-8.99.44-12.36-3.74-1.75-2.17-4.16-3.82-6.27-5.7.15-.43.3-.86.45-1.3h41.66c0-19.88 0-38.96 0-59.38-7.1.77-14.45.75-21.32 2.53-7.76 2.02-13.69 1.15-18.29-5.72-.9-1.34-2.23-2.4-4-4.26 2.07-.21 3.42-.46 4.77-.46 10.5-.03 21 .2 31.49-.17 2.63-.09 5.63-1.52 7.7-3.24 3.42-2.85 6.21-6.44 8.86-9.29 6.94 6.92 13.37 13.33 20.12 20.06.47-.14.01.02-.46.14-8.81 2.26-10.6 8.04-10.29 16.67.72 19.64.1 39.32.26 58.98.18 21.14.08 42.31 1.28 63.41.4 7.11-1.7 10.16-7.67 12.37-3.98 1.47-7.68 3.68-12.07 5.83 0-6.38 0-12 0-17.99-32.22 0-64.12 0-96.81 0 0 4.77-.18 9.71.07 14.63.15 2.95-.94 4.47-3.55 5.7-6.12 2.9-12.1 6.11-17.51 8.88 0-61.87 0-123.74 0-186.36 6.04 3.18 11.72 5.86 17.06 9.1 3.12 1.89 5.71 1.78 8.76.21 12.17-6.28 24.09-12.85 32.22-25.22 5.55 6.46 10.81 12.57 15.54 18.07-15.5 4.21-31.01 8.6-46.63 12.57-4.69 1.19-6.18 3.27-6.09 8.16.34 17.67.13 35.32.13 53.22z"/><path d="m279.28 270.48c-1.74 6.46-2.92 11.62-4.5 16.64-12.29 38.96-38.38 65.33-75.02 82.03-2.57 1.17-5.22 2.18-7.77 3.39-3.2 1.52-4.58.16-4.89-1.6 12.79-11.02 25.65-20.86 37.03-32.19 19.57-19.48 30.45-43.61 34.73-70.86 3.41-21.71 6.46-43.42 5.71-65.48-.15-4.45-.57-8.9-.94-14.43 10.16 4.33 19.51 8.32 28.81 12.28-.1.63-.03 1.13-.21 1.25-11.5 7.45-9.35 19.44-9.99 30.41-.38 6.65-.08 13.33-.25 19.99-.29 11.35 5.65 20.48 10.06 30.77 17.78-15.66 34.04-31.53 45.54-52.45 6.62 7.09 12.99 13.92 19.77 21.18-24.97 6.52-42.99 23.41-64.21 36.45 21.77 27.24 42.61 54.27 77.69 64.89v4.71c-5.28.57-10.71.47-15.71 1.9-4.9 1.39-9.37 4.33-15.25 7.19-31.66-22.84-48.33-57.25-60.6-96.07z"/><path d="m266.82 33.54c11.37 4.26 22.18 8.32 34.85 13.07-2.78 2.16-4.71 3.62-6.6 5.14-4.01 3.23-6.31 7.07-6.62 12.57-.87 15.55-2.32 31.07-3.64 47.85 21-14.27 40.84-28.03 55.82-47.9 6.45 6.93 12.78 13.73 19.1 20.51-10.27 4.36-20.42 8.25-30.18 12.93-13.94 6.69-27.6 13.96-41.38 20.99-4.17 2.13-8.19 13.58-5.88 17.53.72 1.23 2.63 1.83 4.08 2.55 15.42 7.76 31.09 15.05 46.16 23.44 6.23 3.47 11.74 8.75 16.55 14.13 7.81 8.75 6.84 22.01-1.53 30.16-.79.77-3.37.96-4.13.29-2.33-2.05-4.86-4.34-6.12-7.08-8.82-19.17-24.4-32.15-40.41-44.74-5.59-4.39-11.49-8.39-17.7-12.89-16.27 40.15-45.82 64.47-86.6 75.82-2.84-3.56-1.73-5.53 1.98-7.72 20.52-12.08 39.65-25.92 52.77-46.34 13.33-20.74 20.48-43.57 20.5-68.3.02-18.97-.67-37.94-1.04-56.9-.01-1.45.02-2.91.02-5.11z"/><path d="m89.33 84.59h33.64c8.83 0 17.67.23 26.49-.15 2.47-.1 5.33-1.45 7.19-3.13 3.56-3.21 6.54-7.06 10.3-11.25 7.52 7.97 14.84 15.73 22.14 23.47-.54.61-.76 1.07-.97 1.06-12.09-.31-17.69 8.66-24.16 16.6-13.35 16.39-26.87 32.65-40.34 48.95-1.05 1.27-2.21 2.44-3.48 3.83-1.68-.86-3.26-1.66-4.67-2.38 13.59-22.58 27.01-44.88 41.04-68.19-2.9-.22-4.12-.39-5.35-.39-20.16-.01-40.33.06-60.49-.09-3.08-.02-4.72 1.03-6.28 3.59-14.18 23.24-30.87 44.56-49.84 64.51-.8-.68-1.55-1.25-2.21-1.9-.58-.57-1.06-1.23-1.76-2.05 24.71-38.38 48.87-76.97 56.77-123.53 10.39 5.69 20.41 11.18 31.06 17.01-15.55 6.29-21.07 20.38-29.08 34.04z"/><path d="m228.42 227.93c.73-.11 1.37-.29 2.01-.29.99 0 1.98.11 3.54.22.43 20.65-.49 40.88-12.09 58.95-6.46 10.06-13.99 9.36-23.43 1.57-1.44-1.19-1.44-5.24-.75-7.56.7-2.36 2.78-4.59 4.78-6.22 13.56-11.04 20.42-25.9 24.6-42.35.38-1.43.88-2.82 1.34-4.32z"/><path d="m236.48 73.18c-1.65 16.19-3.18 32.09-8.85 47.11-5.13 13.6-14.97 17.84-27.7 12.76-5.73-2.29-6.4-3.92-2.55-8.62 3.14-3.84 7.03-7.05 10.39-10.71 9.71-10.57 15.78-23.31 21.34-36.34 2.07-4.87 2.05-4.88 7.37-4.2z"/></g></svg>