<svg enable-background="new 0 0 400 400" viewBox="0 0 400 400" xmlns="http://www.w3.org/2000/svg"><g fill="#fcfbfa"><path d="m37.59 393.81c-.92.31-1.52.05-2-.78-.7-1.2-1.52-2.34-2.47-3.78v4.59c-.55.03-.95.05-1.41.07-.03-.37-.06-.64-.06-.91 0-1.91 0-3.81 0-5.7 1.13-.41 1.77-.03 2.29.91.62 1.11 1.38 2.14 2.31 3.19v-4.2h1.35v6.61z"/><path d="m12.94 393.88v-6.75c1.9.19 3.93-.54 5.37 1.29.8 1.01.78 2.88.03 3.97-1.37 1.97-3.4 1.51-6.4 1.49m2.45-1.22c2.04.12 2.92-.58 2.89-2.21-.03-1.51-.98-2.19-2.89-2z"/><path d="m11.81 393.87h-5.49c.68-2.18 2.47-3.48 3.51-5.45h-3.08v-1.21h5.29c-.71 2.13-2.44 3.48-3.47 5.51.86 0 1.63.04 2.39-.01.79-.05 1.14.21.85 1.16"/><path d="m39.33 393.86v-6.61h3.7v1.07h-2.22v1.52c.68.04 1.34.09 2.07.13v1.07c-.72.05-1.38.09-2.1.14v1.48h2.4v1.19h-3.85z"/><path d="m27.71 388.56c-1.15-.3-2.46-.61-3.1.64-.37.73-.41 1.93-.06 2.67.63 1.35 1.99.93 3.17.68.35.94-.01 1.32-.93 1.46-1.62.25-3.05-.27-3.76-1.48-.73-1.24-.6-3.03.31-4.17.88-1.11 2.71-1.7 4-1.16.32.13.44.74.65 1.12-.1.08-.19.16-.28.24"/><path d="m49.15 387.24v1.07c-.59.02-1.17.05-1.87.08v5.44h-1.48v-5.44h-1.85c-.05-.4-.08-.73-.13-1.15z"/><path d="m20.06 387.21h1.33v6.62h-1.33z"/><path d="m30.68 393.25c-.39.38-.8.79-1.05.76-.32-.05-.6-.45-.9-.7.26-.24.51-.64.8-.67.29-.04.62.3 1.15.61"/></g><path d="m41.49 165.66c-.96-1.56-1.64-2.66-2.48-4.04 24.41-18.1 46.85-38.08 66.72-61.15-15.27-21.12-34.61-37.86-55.13-53.96.88-1.32 1.65-2.49 2.6-3.92 23.92 11.84 45.56 26.46 65.33 44.91 14.4-16.34 25.51-34.42 33.8-55 7.96 6.54 15.6 12.81 23.44 19.26-20.18 11.6-30.66 31.8-45.33 48.05-.9 1-1.09 3.53-.51 4.85 10.68 24.19 17.18 49.57 20.79 75.64 1.94 13.97 3.19 28.12 3.52 42.21.49 20.95.5 41.94-.42 62.87-.75 16.89-2.52 33.87-9.36 49.67-7.85 18.15-21.69 29.38-41.12 34.47-2.99-17.92-16.81-23.81-31.25-28.85-3.34-1.17-5.35-2.45-3.77-6.39 9.68.98 19.39 1.8 29.05 2.97 15.82 1.92 23.56-2.64 27.24-18.41 2.93-12.56 5.24-25.46 5.98-38.31 1.15-19.92.84-39.93.93-59.91.03-6.57-.63-13.15-1.47-20.01-23.43 38.59-54.95 68.89-92.55 93.01-3.94-2.72-2.24-4.71.08-6.87 25.62-23.85 47.82-50.56 66.07-80.41 7.36-12.05 13.46-24.86 20.46-37.14 2.81-4.92 1.47-9.7.78-14.55-1.91-13.48-4.87-26.7-10.6-39.8-22.24 20.03-45.54 37.83-72.8 50.81z" fill="#010104"/><path d="m141.04 365.74c87.26-26.67 148.52-82.4 186.07-165.53-1.94-.09-3.23-.21-4.52-.21-27.32-.01-54.65.05-81.97-.09-3.23-.02-5.13 1.04-6.97 3.58-5.07 7-10.42 13.79-16.05 21.18 5.63 3.08 11.32 5.7 16.46 9.14 7.69 5.15 15.42 10.4 22.34 16.5 6.98 6.16 7.46 14.56 4.52 23.02-1.41 4.05-3.31 7.97-5.4 11.73-1.44 2.59-3.75 2.87-5.45.09-1.99-3.24-3.94-6.55-5.46-10.02-7.38-16.85-18.54-31.02-31.2-44.77-14.45 16.92-30.57 31.41-49.12 43.31-2.47-1.96-3.34-3.4-.7-6.01 34.18-33.79 59.09-73.38 74.13-119.11.15-.47.36-.92.75-1.92 9.2 5.5 18.26 10.92 27.73 16.58-11.94 6.3-18.55 16.78-25.66 28.38h6.37c24.82 0 49.65-.1 74.47.1 4.06.03 6.92-1.1 9.41-4.23 2.77-3.48 5.92-6.67 9.29-10.41 7.21 7.67 14.12 15.01 21.69 23.06-.78.37-1.38.69-2 .94-8.36 3.34-12.08 10.65-16.11 18.02-21.7 39.71-49 74.83-85.32 102.4-30.29 22.99-64.19 37.97-101.38 45.63-4.06.84-8.15 1.64-12.27 2.01-1.26.11-2.66-1.27-4-1.96.13-.47.24-.94.35-1.41z" fill="#010104"/><path d="m347.44 44.47c6.78 5.34 13.25 10.45 20.49 16.15-10.04 4.78-9.11 13.26-8.98 21.66.3 18.82.28 37.64.49 56.46.04 3.96.48 7.92.73 11.74-7.1 3.18-13.86 6.21-21.1 9.46 0-5.68 0-10.92 0-16.55-45.92 0-91.45 0-137.03 0-.13.23-.42.51-.44.8-.92 10.59-.92 10.59-11.06 13.93-3.28 1.08-6.56 2.15-9.73 3.19 0-37.93 0-75.55 0-113.49 5.42 2.5 10.88 5.26 16.54 7.53 2.99 1.2 6.34 2.14 9.52 2.15 41.31.14 82.62 0 123.93.22 4.95.03 8.14-1.43 10.67-5.48 1.66-2.65 3.81-4.99 5.97-7.77zm-145.75 89.78h33.57c0-22.87 0-45.39 0-67.88-11.38 0-22.41 0-33.57 0zm136.93.03c0-22.84 0-45.37 0-67.85-11.35 0-22.37 0-33.23 0v67.85zm-84.35-68.15v68.08h31.89c0-22.9 0-45.43 0-68.08-10.72 0-21.03 0-31.89 0z" fill="#010104"/></svg>