<svg enable-background="new 0 0 400 400" viewBox="0 0 400 400" xmlns="http://www.w3.org/2000/svg"><path d="m6.4 11.7c-1-.8-1.9-1.6-2.9-2.3l.6-.7c.9.7 1.9 1.4 2.9 2.2zm-2.1 8.3c.7-2.1 1.4-4.2 2-6.4.2.1.6.3 1 .4-.7 2.3-1.3 4.4-1.9 6.4zm3-12.8c-1.1-.9-2.1-1.7-2.9-2.4l.6-.7c1 .8 2 1.5 3 2.4zm1.4-1.3v-.9h10.2v.9c-.9 4.2-2.3 7.3-4.1 9.4 1.3 1.4 3.2 2.7 5.7 4-.2.2-.4.5-.7.9-2.5-1.4-4.4-2.7-5.7-4.2-1.4 1.5-3.5 3-6.1 4.4 0 0 0 0-.1-.1-.3-.4-.5-.7-.7-.8 2.7-1.3 4.7-2.8 6.2-4.2-1.8-2.2-3-5.3-3.7-9.4zm9.2 0h-7.1c.6 3.8 1.7 6.7 3.4 8.7 1.7-2.1 2.9-4.8 3.7-8.7z" fill="#fcfbfa"/><path d="m31.6 3.6h.9v2.3h4.1v9.1h1.7v.9h-16.6v-.9h1.7v-9.1h4.1v-2.3h.9v2.3h3.1v-2.3zm-4 13.3.6.8c-1.9.9-3.8 1.9-5.8 2.8-.2-.3-.3-.6-.5-.9 2-.9 3.9-1.8 5.7-2.7zm-3.2-10.1v3.7h3.1v-3.7zm0 4.5v3.7h3.1v-3.7zm4.1-4.5v3.7h3.1v-3.7zm0 4.5v3.7h3.1v-3.7zm9.1 9.1c-2.1-1.1-4.1-2-5.8-2.7l.5-.8c2.2.9 4.1 1.8 5.8 2.6zm-1.9-13.6h-3.1v3.7h3.1zm-3.2 4.5v3.7h3.1v-3.7z" fill="#fcfbfa"/><g fill="#010105"><path d="m371.32 348.12c-59.1 0-116.71 0-174.91 0 0 4.12-.21 7.92.07 11.7.23 3.1-1.11 4.41-3.86 5.27-5.04 1.56-9.99 3.41-15.22 5.22 0-41.83 0-83.19 0-124.98-9.83 10.26-19.6 20.46-29.4 30.68-2.95-2.12-3.68-3.65-1.6-6.44 21.79-29.24 39.83-60.51 51.29-95.32.19-.58.48-1.12.87-2.03 7.48 5.14 14.73 10.12 22.09 15.18-12.75 6.61-17.02 19.85-25.99 30.84 2.62.16 4.14.34 5.67.34 36.66.02 73.32.07 109.98-.12 2.49-.01 5.4-1.33 7.38-2.95 5.4-4.42 10.41-9.31 15.94-14.36 7.44 8.35 14.81 16.62 22.92 25.72-29.56 0-58.21 0-87.1 0v32.71c7.91 0 15.75-.65 23.44.16 9.66 1.02 17.06-1.93 23.14-9.33 2.06-2.51 4.86-4.42 7.49-6.76 7.05 7.97 13.85 15.67 21.36 24.17-25.67 0-50.35 0-75.35 0v30.45c1.99.1 4.07.27 6.16.29 6.5.04 13.06-.53 19.48.15 8.05.85 14.08-1.77 19.23-7.78 2.57-3 5.85-5.4 9.08-8.32 7.05 7.98 13.91 15.75 21.42 24.27-25.69 0-50.29 0-75.29 0v32.43c1.61.09 3.22.25 4.84.25 16.33.02 32.66.15 48.99-.13 2.69-.05 5.75-1.38 7.93-3.05 5.66-4.34 10.92-9.2 16.81-14.25 7.49 8.45 14.83 16.67 23.14 25.99zm-174.48-120.98v32.08h53.59c0-10.91 0-21.44 0-32.08-18 0-35.61 0-53.59 0zm-.12 80.11v31.91h53.82c0-10.84 0-21.26 0-31.91-18.01 0-35.74 0-53.82 0zm53.83-38.88c-18.1 0-35.92 0-53.66 0v29.82h53.66c0-10.17 0-19.92 0-29.82z"/><path d="m89.23 94.6c-10.96-17.45-26.85-29.41-42.18-42.22.84-1.21 1.66-2.4 2.68-3.88 18.35 9.96 35.77 20.83 50.84 36.14 13.93-14.6 27.17-29.35 36.65-47.62 6.57 6.11 12.85 11.94 19.44 18.07-18.47 11.56-32.18 27.74-46.87 41.71 6.16 15.47 12.71 30.18 17.91 45.36 8.27 24.14 12.43 49.15 13.63 74.67 1.54 32.99.66 65.84-5.29 98.39-2.54 13.88-6.97 27.03-17.34 37.42-8.89 8.92-19.77 13.75-32.07 16.56-3.62-19.75-20.41-24.06-35.49-30.68-.04-.72-.13-1.54-.12-2.36 0-.64.12-1.28.24-2.43 6.51 1.24 12.75 2.75 19.08 3.54 7.07.89 14.22 1.6 21.32 1.55 9.56-.07 16.87-5.2 19-14.58 3.08-13.54 5.9-27.3 6.94-41.11 1.53-20.54 1.57-41.21 1.91-61.83.14-8.47-.56-16.95-.92-25.43-.06-1.39-.37-2.77-.73-5.27-23.02 35.15-50.03 64.81-85.16 86.58-3.4-2.04-3.22-3.71-.44-6.4 22.98-22.14 43.95-46.02 60.41-73.47 6.74-11.24 12.57-23.07 17.97-35.02 1.59-3.51 1.16-8.57.14-12.52-3.54-13.61-7.75-27.04-12.04-41.7-21.29 17.65-42.85 31.72-66.3 42.84-.48-.42-.94-.68-1.2-1.08-.53-.8-.96-1.68-1.58-2.79 21.27-15.76 42.19-31.64 59.57-52.44z"/><path d="m279.88 107.31c0-9.44 0-18.06 0-26.99-14.59 0-28.84 0-43.6 0v21.2c-6.52 2.48-12.64 4.81-19.24 7.32 0-9.84 0-18.97 0-28.32-10.68 0-21.1-.34-31.48.13-5.75.26-11.42 1.97-17.16 2.85-1.13.17-2.73-.03-3.5-.73-3.54-3.2-6.86-6.64-11.35-11.08h62.94c0-12.26 0-23.84 0-36.08 8.52 3.1 17 6.18 25.88 9.41-2.32 4.07-7.46 6-6.52 11.74.74 4.53.15 9.29.15 14.38h43.39c0-11.66 0-23.21 0-35.38 8.5 3.55 16.98 7.08 26.72 11.14-9.45 6.31-8.08 15.16-7.37 24.58 8.55 0 16.98.1 25.4-.11 1.23-.03 2.52-1.47 3.62-2.45 4.82-4.32 9.58-8.71 14.64-13.33 7.49 7.94 14.75 15.64 22.73 24.1-22.56 0-44.22 0-66.71 0 0 6.3-.22 12.06.08 17.8.17 3.29-1.03 4.78-4.09 5.56-4.64 1.18-9.2 2.68-14.53 4.26z"/><path d="m224.52 178.3c0-4.2 0-7.47 0-11.02-12.85 0-25.25 0-38.2 0v11.21c-6.19 2.36-11.88 4.54-17.85 6.82 0-25.24 0-50.04 0-75.52 5.3 2.65 10.49 5.45 15.87 7.82 2.5 1.1 5.35 1.81 8.07 1.89 8.31.24 16.65-.13 24.95.18 4.12.16 6.93-.94 8.99-4.61 1.37-2.43 3.38-4.49 5.36-7.05 6.02 4.59 11.9 9.09 17.7 13.52-.27.72-.31 1.19-.51 1.27-7.98 3.22-7.96 9.37-7.17 16.73 1.07 9.88.89 19.9 1.1 29.86.02.86-.91 2.2-1.72 2.53-5.17 2.14-10.45 4.05-16.59 6.37zm-38.09-50.13v30h37.71c0-10.26 0-20.1 0-30-12.72 0-24.99 0-37.71 0z"/><path d="m330.79 107.94c6.35 4.9 12.21 9.43 19.03 14.7-10.34 3.49-8.9 11.4-8.85 18.83.07 10.28.02 20.56.02 31.53-4.82 1.49-10.6 3.28-17.02 5.27 0-3.83 0-7.22 0-10.92-12.1 0-23.65 0-35.89 0 2.26 7.1-2.88 7.91-7.61 9.18-3.34.9-6.64 1.95-10.01 2.95 0-23.23 0-46.11 0-69.55 4.9 2.61 9.78 5.28 14.74 7.81 1.59.81 3.37 1.74 5.08 1.77 9.82.17 19.64.2 29.46-.04 1.48-.04 3.22-1.46 4.31-2.7 2.31-2.61 4.26-5.52 6.74-8.83zm-42.22 20.3v29.91h34.96c0-10.19 0-19.93 0-29.91-11.7 0-23.12 0-34.96 0z"/><path d="m279.53 198c-1.55 7.42-6.52 12.79-11.94 17.71-.43.39-3.96-1.31-4.55-2.68-1.41-3.31-1.44-7.22-2.91-10.5-3.93-8.75-8.37-17.27-12.47-25.95-.72-1.53-.79-3.38-1.16-5.08 1.65.17 3.59-.16 4.91.59 6.22 3.51 12.43 7.08 18.33 11.09 5.1 3.46 8.43 8.41 9.79 14.82z"/></g></svg>