<svg enable-background="new 0 0 400 400" viewBox="0 0 400 400" xmlns="http://www.w3.org/2000/svg"><path d="m6.4 11.7c-1-.8-1.9-1.6-2.9-2.3l.6-.7c.9.7 1.9 1.4 2.9 2.2zm-2.1 8.3c.7-2.1 1.4-4.2 2-6.4.2.1.6.3 1 .4-.7 2.3-1.3 4.4-1.9 6.4zm3-12.8c-1.1-.9-2.1-1.7-2.9-2.4l.6-.7c1 .8 2 1.5 3 2.4zm1.4-1.3v-.9h10.2v.9c-.9 4.2-2.3 7.3-4.1 9.4 1.3 1.4 3.2 2.7 5.7 4-.2.2-.4.5-.7.9-2.5-1.4-4.4-2.7-5.7-4.2-1.4 1.5-3.5 3-6.1 4.4 0 0 0 0-.1-.1-.3-.4-.5-.7-.7-.8 2.7-1.3 4.7-2.8 6.2-4.2-1.8-2.2-3-5.3-3.7-9.4zm9.2 0h-7.1c.6 3.8 1.7 6.7 3.4 8.7 1.7-2.1 2.9-4.8 3.7-8.7z" fill="#fcfbfa"/><path d="m31.6 3.6h.9v2.3h4.1v9.1h1.7v.9h-16.6v-.9h1.7v-9.1h4.1v-2.3h.9v2.3h3.1v-2.3zm-4 13.3.6.8c-1.9.9-3.8 1.9-5.8 2.8-.2-.3-.3-.6-.5-.9 2-.9 3.9-1.8 5.7-2.7zm-3.2-10.1v3.7h3.1v-3.7zm0 4.5v3.7h3.1v-3.7zm4.1-4.5v3.7h3.1v-3.7zm0 4.5v3.7h3.1v-3.7zm9.1 9.1c-2.1-1.1-4.1-2-5.8-2.7l.5-.8c2.2.9 4.1 1.8 5.8 2.6zm-1.9-13.6h-3.1v3.7h3.1zm-3.2 4.5v3.7h3.1v-3.7z" fill="#fcfbfa"/><g fill="#010105"><path d="m34.49 345.52h52.46c-.52-38.91-1.03-77.28-1.55-116.33 5.54 3.16 10.74 6.38 16.19 9.1 2.56 1.28 5.61 2.2 8.44 2.21 59.33.12 118.66.05 178 .19 3.98.01 6.52-1.1 8.52-4.5 2.02-3.42 4.51-6.56 7-10.11 7.06 5.63 13.93 11.11 21.43 17.09-3.08 2.7-6.07 4.99-8.63 7.68-1.35 1.42-2.79 3.54-2.8 5.35-.16 29-.1 58-.08 87 0 .49.16.98.35 2.08 5.73.24 11.32 1.73 16.21-3.86 4.58-5.23 10.15-9.59 15.7-14.72 7.92 8.82 15.76 17.55 24.52 27.31-3 0-4.87 0-6.75 0-94.5 0-189-.1-283.49.14-10.39.03-20.77 2.11-31.18 3.01-1.82.16-4.12-.32-5.52-1.39-3.41-2.59-6.42-5.71-9.6-8.61.26-.55.52-1.1.78-1.64zm190.06-.27c0-32.23 0-64.11 0-95.96-17.14 0-33.89 0-50.71 0v95.96zm19.3-96.11v96.1h50.69c0-32.24 0-64.12 0-96.1-17.03 0-33.67 0-50.69 0zm-89.28 96.1c0-32.22 0-64.09 0-95.94-16.61 0-32.85 0-49.12 0v95.94z"/><path d="m34.13 244.04c-.8-1.01-1.6-2.01-2.6-3.26 1.07-1.02 1.96-1.94 2.92-2.77 11.44-9.9 23.46-19.2 34.23-29.78 25.14-24.71 39.73-55.46 48.04-89.28 4.38-17.83 7.6-35.95 11.37-54.07-1.67-.51-2.25-.84-2.83-.84-17.61.07-35.3-1.15-52.63 3.42-1.06.28-2.71.02-3.49-.66-3.6-3.13-6.98-6.5-10.44-9.79.19-.48.38-.95.57-1.43h6.17c66.81 0 133.62-.06 200.43.12 5.19.01 8.84-1.11 11.61-5.66 1.79-2.95 4.42-5.39 7.14-8.61 7 6.45 13.88 12.79 21.41 19.74-4.16 2.09-7.87 3.73-11.33 5.79-1.54.92-3.19 2.46-3.76 4.08-5.04 14.39-9.86 28.87-14.72 43.32-.15.43-.02.96-.02 2.21h15.78c1.17 0 2.34-.08 3.5.01 12.46.99 24.61 1.27 30.59-13.77 7.32 6.76 13.75 12.71 20.09 18.57-.15.59-.16 1.11-.33 1.18-9.78 3.57-11.95 11.82-13.81 20.9-3.27 15.9-7.06 31.72-11.24 47.41-5.42 20.36-18.25 31.94-39.96 36.84-.83-13-9.91-19.16-20.36-24.05-2.85-1.34-5.98-2.11-8.74-3.59-1.21-.65-1.82-2.43-2.7-3.69 1.35-.66 2.81-2.05 4.04-1.87 9.52 1.4 18.99 3.15 28.49 4.71 11.66 1.92 17.9-1.29 21.26-12.75 3.96-13.5 6.86-27.32 10.03-41.05 1.52-6.6 2.59-13.3 3.95-20.43-13.46 0-26.6-.15-39.73.16-1.93.05-3.92 2.13-5.7 3.5-2.36 1.82-4.53 3.88-6.34 5.44-5.23-5.19-10.27-10.19-15.47-15.36-.28.49-.18.04.04-.04 7.77-2.7 10.53-8.92 12.59-16.3 3.25-11.66 7.36-23.07 11.08-34.6.35-1.08.54-2.21.86-3.56-42.36 0-84.42 0-125.77 0-3.91 18.89-7.18 37.52-11.67 55.85-13.05 53.17-45.22 91.69-92.29 118.5-2.89 1.64-5.8 3.25-8.71 4.85-.4.26-.88.37-1.55.61z"/><path d="m155.78 141.06c.76-3.28 2.34-4.02 5.56-1.96 10.9 6.98 21.92 13.76 33.24 20.83 9.17-12.37 14.93-26.57 20.05-41.38-12.75 0-25.14-.04-37.52.04-2.15.01-4.51-.01-6.4.83-10.9 4.81-18.17.18-24.06-9.52 1.69-.1 3.36-.28 5.04-.28 18.33-.02 36.65-.17 54.98.1 4.57.07 7.94-.92 10.65-4.7 2.02-2.82 4.6-5.24 7.48-8.46 6.54 6.02 13.02 11.98 19.32 17.78-.22.71-.23.98-.32 1.01-8.63 3.1-11.03 10.99-14.6 18.26-6.13 12.51-12.91 24.7-19.61 37.39 4.9 4.09 10.67 8.55 16.02 13.46 11.73 10.77 10.69 18.11 6.03 31.43-.59 1.68-2.37 2.93-3.97 4.83-10.05-13.83-19.68-27.06-29.75-40.91-21.9 19.92-46.61 32.75-72.96 42.57-3.27-3.71-.12-4.77 2.03-6.03 19.46-11.38 37.69-24.41 53.71-40.36 2.11-2.1 4.05-4.37 6.8-7.34-10.66-9.29-21.14-18.4-31.72-27.59z"/></g></svg>