<svg enable-background="new 0 0 400 400" viewBox="0 0 400 400" xmlns="http://www.w3.org/2000/svg"><path d="m5.17 384 .56-.58c.85.61 1.65 1.24 2.4 1.87l-.59.64c-.84-.73-1.63-1.38-2.37-1.93m1.22 9.53-.82-.34c.71-1.76 1.37-3.64 1.98-5.63.24.13.5.25.76.36-.6 1.67-1.24 3.54-1.92 5.61m-.5-13.5.57-.54c.56.44 1.31 1.06 2.26 1.87l-.64.64c-.68-.66-1.41-1.32-2.19-1.97m3.25.46h2.24v-1.36h.77v1.36h4.57v-1.36h.76v1.36h2.28v.69h-2.28v1.84h-2.64v1.26h4.18v2.64h-4.21c0 .45-.02.86-.05 1.21h4.32v.69h-4.38c-.04.34-.1.75-.19 1.22h5.15v.69h-4.82c.87 1.19 2.51 1.92 4.93 2.19-.17.31-.3.57-.37.76-2.77-.49-4.52-1.41-5.26-2.76-.56 1.26-2.3 2.23-5.24 2.9-.12-.24-.26-.48-.43-.72 2.73-.55 4.38-1.34 4.96-2.38h-4.38v-.69h4.65c.1-.38.17-.79.21-1.22h-4.32v-.69h4.4c.03-.34.05-.75.05-1.21h-4.2v-2.64h4.23v-1.26h-2.69v-1.84h-2.24zm1.46 4.46v1.29h3.45c.01-.4.02-.57.01-.53v-.32-.45h-3.46zm1.55-2.59h4.57v-1.19h-4.57zm6.11 2.59h-3.42v.77c-.01.19-.01.37-.02.53h3.44z" fill="#fafbfc"/><path d="m32.63 379.16h.82v1.98h3.54v7.89h1.46v.78h-14.37v-.78h1.46v-7.89h3.54v-1.98h.82v1.98h2.73zm-3.49 11.48.5.73c-1.61.82-3.28 1.63-5 2.41-.13-.27-.28-.55-.44-.82 1.75-.72 3.4-1.49 4.94-2.32m-2.78-5.55h2.73v-3.18h-2.73zm0 3.95h2.73v-3.2h-2.73zm3.54-3.95h2.73v-3.18h-2.73zm0 3.95h2.73v-3.2h-2.73zm7.89 4.68c-1.84-.92-3.51-1.7-5.02-2.32l.45-.73c1.89.8 3.57 1.55 5.04 2.23zm-1.62-11.81h-2.73v3.18h2.73zm-2.73 7.13h2.73v-3.2h-2.73v3.19z" fill="#fafbfc"/><g fill="#000001"><path d="m248.47 372.27c0-45.32 0-89.99 0-135.68-22.67 40.07-50.84 74.39-88.17 100.5-8.69 6.08-17.97 11.3-27.28 17.1-1.24-1.89-2.01-3.07-2.81-4.29 41.26-31.5 73.21-70.26 97.57-116.35-11.86 0-22.72-.04-33.58.03-2.15.01-4.51-.02-6.4.81-10.87 4.79-18.21.26-24.16-9.5h85.11c0-15.61 0-30.37 0-45.52-15.32 0-30.68 0-46.33 0-.08.94-.35 1.77-.19 2.52 1.47 7.02-1.76 10.58-8.33 12.33-3.62.96-7 2.82-10.67 4.36 0-52.56 0-104.58 0-157.43 4.85 3.12 9.32 6.46 14.22 8.99 3.38 1.74 7.34 3.27 11.05 3.3 33.16.25 66.32.08 99.48.24 3.92.02 6.56-1.08 8.8-4.24 2.39-3.37 5.19-6.44 8.17-10.08 7.6 6.16 15.01 12.17 22.86 18.53-4.26 3.02-8.15 5.52-11.69 8.43-1.32 1.09-2.59 3.17-2.57 4.79.3 37.96.8 75.91 1.15 113.87.01 1.13-.87 2.88-1.81 3.32-5.69 2.67-11.51 5.04-17.79 7.73 0-5.76 0-11 0-16.64-15.74 0-31.11 0-46.78 0v45.19h16.59c11.16 0 22.33.12 33.49-.11 2.07-.04 4.52-1.03 6.09-2.4 6.49-5.68 12.71-11.67 19.35-17.85 8.03 9.44 15.84 18.61 24.33 28.58-28.03 0-55.07 0-83.39 0 2.96 6.75 5.11 12.84 8.18 18.42 16.15 29.39 36.66 54.69 67.38 70.12 2.81 1.41 5.69 2.81 8.69 3.7 3.59 1.07 4.9 2.95 3.91 5.71-5.64 1.88-11.17 2.88-15.77 5.51-4.49 2.56-8.04 6.79-12.2 10.46-22.68-11.15-56.17-67.78-66.52-113.41-3.18 0-6.44 0-10.41 0 0 1.49-.01 3.09 0 4.68.14 35.15.25 70.31.44 105.46.03 4.98.5 9.96.58 14.95.02 1.17-.39 2.97-1.2 3.43-6.34 3.59-12.79 6.92-19.39 10.44zm19.9-310.14v51.13h46.18c0-17.23 0-34.11 0-51.13-15.51 0-30.66 0-46.18 0zm-19.6.24c-15.81 0-31.03 0-46.33 0v49.81h46.33c0-16.82 0-33.24 0-49.81zm-46.36 107.89h46.25c0-16.54 0-32.75 0-48.96-15.56 0-30.79 0-46.25 0zm65.8 0h46.36c0-16.21 0-32.1 0-47.99-15.63 0-30.89 0-46.36 0z"/><path d="m116.98 358.74c-6.18 3.27-12.88 6.81-19.77 10.46 0-55.78 0-110.99 0-165.36-9.22 14.93-18.09 31.18-28.78 46.12-10.69 14.95-23.2 28.61-34.78 42.68-4.73-2.79-3.79-4.83-1.82-7.58 28.49-39.69 48.7-83.33 61.91-130.3.4-1.42.61-2.89 1.24-5.9-15.46 1.3-30.35 2.18-45.13 4.03-4.64.58-7.74.35-10.72-3.34-1.95-2.41-4.68-4.18-7.06-6.24.23-.5.46-.99.7-1.49h64.73c0-23.47 0-46.16 0-68.95-18.72 1.93-37.18 3.83-56.21 5.79-.14-2.24-.23-3.77-.33-5.53 36.24-6.98 72.78-11.97 104.96-32.13 6.84 7.32 13.71 14.68 21.09 22.59-17.25 1.97-33.67 3.84-50.43 5.75v72.2c5.38 0 10.83.18 16.25-.12 1.39-.08 2.88-1.49 4.01-2.6 4.83-4.8 9.55-9.71 14.54-14.83 8.17 8.63 15.93 16.83 24.39 25.78-20.2 0-39.54 0-59.54 0 0 9.15-.14 17.75.17 26.34.04 1.17 2.19 2.57 3.64 3.35 9.65 5.19 19.7 9.72 29.01 15.45 16.79 10.33 17.7 28.11 2.42 41.03-5.03-2.18-6.24-7.29-8.64-11.52-5.64-9.92-11.2-19.9-17.21-29.6-2.19-3.54-5.53-6.35-8.61-9.79-.03 58.13-.03 115.49-.03 173.71z"/></g></svg>