<svg enable-background="new 0 0 400 400" viewBox="0 0 400 400" xmlns="http://www.w3.org/2000/svg"><path d="m5.17 384 .56-.58c.85.61 1.65 1.24 2.4 1.87l-.59.64c-.84-.73-1.63-1.38-2.37-1.93m1.22 9.53-.82-.34c.71-1.76 1.37-3.64 1.98-5.63.24.13.5.25.76.36-.6 1.67-1.24 3.54-1.92 5.61m-.5-13.5.57-.54c.56.44 1.31 1.06 2.26 1.87l-.64.64c-.68-.66-1.41-1.32-2.19-1.97m3.25.46h2.24v-1.36h.77v1.36h4.57v-1.36h.76v1.36h2.28v.69h-2.28v1.84h-2.64v1.26h4.18v2.64h-4.21c0 .45-.02.86-.05 1.21h4.32v.69h-4.38c-.04.34-.1.75-.19 1.22h5.15v.69h-4.82c.87 1.19 2.51 1.92 4.93 2.19-.17.31-.3.57-.37.76-2.77-.49-4.52-1.41-5.26-2.76-.56 1.26-2.3 2.23-5.24 2.9-.12-.24-.26-.48-.43-.72 2.73-.55 4.38-1.34 4.96-2.38h-4.38v-.69h4.65c.1-.38.17-.79.21-1.22h-4.32v-.69h4.4c.03-.34.05-.75.05-1.21h-4.2v-2.64h4.23v-1.26h-2.69v-1.84h-2.24zm1.46 4.46v1.29h3.45c.01-.4.02-.57.01-.53v-.32-.45h-3.46zm1.55-2.59h4.57v-1.19h-4.57zm6.11 2.59h-3.42v.77c-.01.19-.01.37-.02.53h3.44z" fill="#fafbfc"/><path d="m32.63 379.16h.82v1.98h3.54v7.89h1.46v.78h-14.37v-.78h1.46v-7.89h3.54v-1.98h.82v1.98h2.73zm-3.49 11.48.5.73c-1.61.82-3.28 1.63-5 2.41-.13-.27-.28-.55-.44-.82 1.75-.72 3.4-1.49 4.94-2.32m-2.78-5.55h2.73v-3.18h-2.73zm0 3.95h2.73v-3.2h-2.73zm3.54-3.95h2.73v-3.18h-2.73zm0 3.95h2.73v-3.2h-2.73zm7.89 4.68c-1.84-.92-3.51-1.7-5.02-2.32l.45-.73c1.89.8 3.57 1.55 5.04 2.23zm-1.62-11.81h-2.73v3.18h2.73zm-2.73 7.13h2.73v-3.2h-2.73v3.19z" fill="#fafbfc"/><g fill="#000001"><path d="m291.7 118.32c7.47 7 13.87 13 21.25 19.92-12.07.18-12.43 7.26-12.11 15.87.56 15.14.16 30.31.16 45.47v5.04c13.08 3.99 22.32-.57 28.68-12.54 7.05 6.51 13.45 12.42 20.09 18.55-.77.67-1.16 1.29-1.69 1.43-7.87 2.14-9.56 7.22-9.31 15.11.66 20.97.29 41.97.17 62.96-.03 4.29-.35 8.68-1.28 12.86-3.05 13.68-12.35 20.57-26.01 22.87-3.88-15.19-16.16-19.88-29.48-23.26 0-1.78 0-3.4 0-5.24 10.07.49 19.96 1.08 29.86 1.42 7.23.25 9.4-1.94 9.78-9.23.05-1 .01-2 .01-3 0-22.16 0-44.31 0-66.47 0-1.81 0-3.61 0-5.75-53.12 0-105.85 0-159.42 0v5.63c0 27.32-.09 54.64.09 81.96.03 3.94-1.07 6.09-4.81 7.45-4.46 1.63-8.7 3.85-12.93 5.76 0-39.88 0-79.36 0-119.06 10.19 3.96 19.52 12.68 32.03 8.86 0-27.87 0-55.74 0-84.05 5.22 2.38 10.62 5.13 16.25 7.3 3.31 1.27 6.97 2.25 10.48 2.28 23.32.2 46.65-.04 69.97.22 5.08.06 9.05-.93 12.13-5.09 1.78-2.37 3.83-4.57 6.09-7.27zm-8.02 20.91c-29.88 0-59.29 0-88.88 0v22.36c9.34 0 18.34-.49 27.26.14 8.86.62 16.47-.42 21.13-9.05.2-.37.81-.51 1.47-.9 5.93 5.5 11.87 11.01 18.05 16.75-2.54 1.49-4.8 2.59-6.78 4.06-1.19.88-2.76 2.32-2.79 3.53-.23 9.62-.13 19.25-.13 29.03h30.67c0-22.07 0-43.7 0-65.92zm-46.94 31.08c-14.14 0-28 0-41.9 0v35.01h41.9c0-11.69 0-23.11 0-35.01z"/><path d="m64.81 360.63c-6.81-4.41-13.04-8.46-20.17-13.08 15.67-13.79 30.68-27.16 45.92-40.25 2.76-2.37 4.16-4.48 4.13-8.27-.18-28.49-.1-56.98-.1-85.47 0-1.64 0-3.27 0-5.2-10.57-.99-20.64-.51-30.42 2.29-4.75 1.36-8.04.74-11.16-3.17-1.91-2.39-4.73-4.06-7.15-6.06.29-.5.58-1 .88-1.5 1.55-.11 3.1-.31 4.64-.31 11.33-.03 22.66-.18 33.99.07 3.98.09 6.99-.71 9.45-4.05 2.25-3.07 5.02-5.75 7.23-8.22 6.57 6.64 13.07 13.2 19.58 19.77.52-.54.42-.34.28-.31-9.83 2.54-10.96 9.36-10.72 18.43.64 24.48.16 48.98.32 73.47.01 2.01.86 4.9 2.33 5.89 19.48 13.19 39.72 24.96 62.85 30.62 17.2 4.2 34.74 5.83 52.41 5.68 21.64-.18 43.31-.13 64.91-1.29 23.04-1.23 45.96-4.05 68.24-10.6.76-.22 1.57-.26 2.63-.43.07 1.71.14 3.17.18 4.1-5.89 3.44-11.7 6.31-16.91 10.02-5.5 3.91-8.18 9.58-6.71 17.31-5.37 0-10.31 0-15.25 0-27.32-.02-54.65.27-81.97-.16-25.63-.4-51.02-3.12-75.57-11.19-19.44-6.4-36.06-17.67-51.8-30.33-8.66-6.97-15.21-7.49-22.54.9-7.4 8.47-13.63 17.99-20.21 27.16-3.18 4.42-6 9.12-9.29 14.18z"/><path d="m196.78 119.37c17.72-27.19 30.63-56.56 38.76-89.02 9.47 4.22 18.57 8.27 28.42 12.65-8.6 7.54-15.09 15.88-19.76 26.31 2.18.11 3.79.26 5.4.26 19.49.02 38.98.13 58.47-.14 2.62-.04 5.74-1.46 7.71-3.25 5.39-4.9 10.29-10.35 14.83-15.02 9.22 9.23 17.98 17.99 26.73 26.76-25.97 0-52.34 0-78.71 0-.03.21-.06.42-.09.63 7.38 2.74 14.97 5.03 22.08 8.34 6.57 3.05 13.2 6.5 18.81 11 8.86 7.1 7.02 24.12-2.76 30.09-.97.59-3.41.17-4.24-.68-2.51-2.6-4.94-5.43-6.71-8.55-8.85-15.63-20.2-28.9-35.72-38.22-2.28-1.37-5.14-2.26-7.78-2.41-6.14-.35-12.33.1-18.48-.2-3.26-.16-5.04 1.2-7.02 3.54-10.65 12.56-21.53 24.92-32.27 37.4-2.27 2.65-4.59 2.95-7.67.51z"/><path d="m101.57 31.82c8.99 4.71 17.63 9.23 26.35 13.8-7.5 7.67-14.81 15.14-23.04 23.56 3.05.21 4.48.4 5.92.4 18.82.02 37.65.11 56.47-.11 2.34-.03 5.15-1.24 6.9-2.84 4.91-4.47 9.39-9.43 14.5-14.67 8.12 8.57 15.92 16.81 24.52 25.89-26.67 0-52.18 0-77.68 0-.05.28-.11.56-.16.85 7.68 3.33 15.38 6.63 23.04 10.01 2.42 1.07 4.7 2.45 7.11 3.53 14.09 6.32 11.51 24.3 3.5 32.12-.9.88-3.62 1.11-4.62.4-1.96-1.38-3.63-3.45-4.84-5.56-9.12-15.88-22.42-27.95-35.95-39.82-.99-.87-2.67-1.27-4.05-1.34-17.96-.87-17.62-.45-31.33 11.23-14.54 12.39-29.77 23.97-44.81 35.76-1.5 1.17-3.78 1.35-6.23 1.17 28.21-26.93 50.12-57.79 64.4-94.38z"/><path d="m194.32 224.58c1.61.58 3.16.83 4.35 1.61 9.38 6.11 19.73 6.95 30.57 6.5 10.97-.46 21.98-.38 32.95.02 5.02.18 8.61-1.23 11.37-5.32 1.1-1.63 2.53-3.05 4.15-4.96 5.67 5.19 11.12 10.2 16.47 15.1-.28.7-.34 1.18-.53 1.24-7.88 2.5-9.59 8.07-8.78 15.74.9 8.57.76 17.25 1.21 25.88.13 2.48-.48 3.94-3.02 4.85-4.64 1.66-9.15 3.71-13.92 5.68-.11-2.42-.2-4.4-.3-6.64-19.2 0-38.3 0-57.44 0-2.91 8.13-11.32 5.93-17.1 9.55.02-23.37.02-46.02.02-69.25zm74.48 16.79c-19.63 0-38.81 0-57.91 0v33.91h57.91c0-11.4 0-22.5 0-33.91z"/><path d="m83.16 121.63c2.12-4.2 4.8-3.96 8.24-1.39 8.77 6.56 18.11 12.44 26.34 19.61 3.9 3.4 6.49 8.84 8.41 13.84 3.61 9.38-.93 17.96-10.26 21.65-3.68 1.45-5.77.28-6.95-3.14-.54-1.55-1.04-3.23-1.02-4.84.12-11.98-4.97-21.89-12.2-30.91-4.06-5.05-8.37-9.89-12.56-14.82z"/></g></svg>