<svg enable-background="new 0 0 400 400" viewBox="0 0 400 400" xmlns="http://www.w3.org/2000/svg"><path d="m5.17 384 .56-.58c.85.61 1.65 1.24 2.4 1.87l-.59.64c-.84-.73-1.63-1.38-2.37-1.93m1.22 9.53-.82-.34c.71-1.76 1.37-3.64 1.98-5.63.24.13.5.25.76.36-.6 1.67-1.24 3.54-1.92 5.61m-.5-13.5.57-.54c.56.44 1.31 1.06 2.26 1.87l-.64.64c-.68-.66-1.41-1.32-2.19-1.97m3.25.46h2.24v-1.36h.77v1.36h4.57v-1.36h.76v1.36h2.28v.69h-2.28v1.84h-2.64v1.26h4.18v2.64h-4.21c0 .45-.02.86-.05 1.21h4.32v.69h-4.38c-.04.34-.1.75-.19 1.22h5.15v.69h-4.82c.87 1.19 2.51 1.92 4.93 2.19-.17.31-.3.57-.37.76-2.77-.49-4.52-1.41-5.26-2.76-.56 1.26-2.3 2.23-5.24 2.9-.12-.24-.26-.48-.43-.72 2.73-.55 4.38-1.34 4.96-2.38h-4.38v-.69h4.65c.1-.38.17-.79.21-1.22h-4.32v-.69h4.4c.03-.34.05-.75.05-1.21h-4.2v-2.64h4.23v-1.26h-2.69v-1.84h-2.24zm1.46 4.46v1.29h3.45c.01-.4.02-.57.01-.53v-.32-.45h-3.46zm1.55-2.59h4.57v-1.19h-4.57zm6.11 2.59h-3.42v.77c-.01.19-.01.37-.02.53h3.44z" fill="#fafbfc"/><path d="m32.63 379.16h.82v1.98h3.54v7.89h1.46v.78h-14.37v-.78h1.46v-7.89h3.54v-1.98h.82v1.98h2.73zm-3.49 11.48.5.73c-1.61.82-3.28 1.63-5 2.41-.13-.27-.28-.55-.44-.82 1.75-.72 3.4-1.49 4.94-2.32m-2.78-5.55h2.73v-3.18h-2.73zm0 3.95h2.73v-3.2h-2.73zm3.54-3.95h2.73v-3.18h-2.73zm0 3.95h2.73v-3.2h-2.73zm7.89 4.68c-1.84-.92-3.51-1.7-5.02-2.32l.45-.73c1.89.8 3.57 1.55 5.04 2.23zm-1.62-11.81h-2.73v3.18h2.73zm-2.73 7.13h2.73v-3.2h-2.73v3.19z" fill="#fafbfc"/><g fill="#000001"><path d="m249.47 243.59c-28.02 46.93-64.66 84.07-111.57 111.3-1.17-1.05-2.36-2.13-3.95-3.56 44.54-32.33 77.08-73.99 100.11-124.24-16.73.04-33.01-1.37-48.94 2.63-4.81 1.21-8.08.58-11.15-3.31-1.9-2.41-4.53-4.24-6.84-6.33.23-.43.45-.87.68-1.3h81.86c0-15.85 0-31.06 0-46.52-15.75 0-31.34 0-46.95 0-.2.24-.61.53-.57.73 1.12 6.26-2.08 9.2-7.71 10.88-4.09 1.22-7.94 3.25-11.98 4.96 0-48.94 0-97.61 0-146.82 6.3 3.51 12.54 7.18 18.98 10.48 2.26 1.16 4.98 2.01 7.5 2.02 33.66.13 67.32.16 100.98-.06 2.36-.02 5.21-1.68 6.96-3.44 3.23-3.26 5.82-7.15 8.97-11.15 7.65 6.68 14.99 13.09 22.78 19.89-3.62 2.05-6.94 3.61-9.85 5.73-1.33.97-2.65 3.03-2.66 4.6-.09 31.16-.82 62.36.55 93.46.46 10.47-2 16.04-11.17 19.57-2.71 1.04-5.17 2.71-8.4 4.43 0-5.45 0-10.19 0-15.22-16.17 0-31.89 0-47.85 0v46.06c1.6.08 3.19.21 4.79.22 15.83.02 31.66.15 47.49-.13 2.45-.04 5.39-1.44 7.19-3.17 5.02-4.82 9.56-10.15 14.59-15.62 8.49 8.97 16.76 17.7 25.73 27.18-30.45 0-59.84 0-90.44 0 4.05 9.35 7.43 18.1 11.54 26.48 12.71 25.9 29.1 49 53.48 65.23 7.1 4.73 15.31 7.93 23.31 11.08 3.31 1.3 4.79 2.41 3.71 6.27-10.98.83-21.78 2.64-27.49 14.58-13.97-11.28-25.2-24.29-34.77-38.78-16.49-24.95-26.5-52.72-35.31-81.01-.46-1.48-1.56-2.76-2.77-4.83-.91 1.66-1.2 1.93-1.2 2.21.07 38.49-.48 77 .69 115.45.32 10.38-1.56 16.53-11.13 20.24-3.17 1.23-5.97 3.44-9.19 5.35 0-41.86 0-83.2 0-125.54zm.31-180.25c-16.08 0-31.78 0-47.58 0v47.94h47.58c0-16.03 0-31.79 0-47.94zm19.64-.24v48.11h47.2c0-16.26 0-32.14 0-48.11-15.85 0-31.32 0-47.2 0zm-19.77 100.22c0-14.61 0-28.83 0-42.93-16.06 0-31.76 0-47.39 0v42.93zm67.06-.05c0-14.46 0-28.66 0-42.94-15.99 0-31.69 0-47.53 0v42.94z"/><path d="m60.9 227.37c26.22-3.44 51.36-6.75 77.37-10.17-1.42-5.59-2.44-10.91-4.15-16.01-2.32-6.92-5.26-13.63-7.69-20.52-.54-1.53-.08-3.42.66-5.26 12.73 12.43 25.11 24.53 33.18 40.17 3.92 7.6 3.64 15.45 1.52 23.31-1.55 5.76-6.5 8.37-11.66 9.92-3.37 1.01-4.43-2.03-5.04-4.79-1.31-5.96-2.63-11.91-4.11-18.63-30.8 7.02-62.05 10.56-89.2 28.84-5.12-9.77-10.16-19.41-14.96-28.58 30.28-19 51.09-45.94 70.21-74.8-10.01-1.16-40.69 1.55-59.56 15.98-4.19-8.34-8.34-16.6-12.49-24.87 16.9-9.57 26.46-25.53 36.51-40.88 12.63-19.28 21.87-40.3 30-62.63 7.04 6.51 13.79 12.76 20.82 19.27-10.09 6.33-16.07 15.94-22.61 25.14-13.11 18.44-26.47 36.7-39.72 55.04-.65.9-1.21 1.87-2.13 3.32 1.95.14 3.38.33 4.82.34 15.33.02 30.66-.07 46 .08 3.19.03 5.24-.69 6.72-3.74 5.57-11.49 11.36-22.87 17.31-34.79 6.06 6.44 12.33 13.08 18.65 19.8-12.08 8.52-19.66 20.59-28.71 31.35-19.93 23.68-40.03 47.21-60.06 70.8-.29.37-.55.78-1.68 2.31z"/><path d="m59.45 268.04h4.96c0 6.16.11 12.22-.02 18.29-.32 14.78-.72 29.56-5.38 43.8-2.45 7.46-6.29 13.18-14.99 14.77-9.35 1.71-14.61-5.62-13.16-14.08.58-3.39 2.55-7.05 4.98-9.51 10.94-11.1 15.76-25.16 20-39.55 1.29-4.43 2.35-8.94 3.61-13.72z"/><path d="m119.43 312.64c-.38 8.54-1.94 15.02-8.84 18.76-6.89 3.74-11.66 1.35-12.69-6.49-1.08-8.23-1.68-16.53-2.94-24.73-1.59-10.33-3.7-20.58-5.41-30.9-.25-1.5.5-3.16.79-4.74 1.54.76 3.64 1.11 4.54 2.34 8.68 11.78 17.41 23.57 22.45 37.52 1.11 3.08 1.63 6.38 2.1 8.24z"/><path d="m126.84 255.26c1.92-.09 4.61-1.04 5.63-.13 9.91 8.81 19.86 17.62 29.12 27.09 5.55 5.68 7.05 13.35 6.49 21.32-.44 6.19-6.15 12.47-12.22 12.21-2.07-.09-5.03-2.32-5.86-4.29-2.56-6.08-3.88-12.68-6.43-18.76-5.14-12.21-10.78-24.21-16.73-37.44z"/></g></svg>