<svg enable-background="new 0 0 400 400" viewBox="0 0 400 400" xmlns="http://www.w3.org/2000/svg"><path d="m5.17 384 .56-.58c.85.61 1.65 1.24 2.4 1.87l-.59.64c-.84-.73-1.63-1.38-2.37-1.93m1.22 9.53-.82-.34c.71-1.76 1.37-3.64 1.98-5.63.24.13.5.25.76.36-.6 1.67-1.24 3.54-1.92 5.61m-.5-13.5.57-.54c.56.44 1.31 1.06 2.26 1.87l-.64.64c-.68-.66-1.41-1.32-2.19-1.97m3.25.46h2.24v-1.36h.77v1.36h4.57v-1.36h.76v1.36h2.28v.69h-2.28v1.84h-2.64v1.26h4.18v2.64h-4.21c0 .45-.02.86-.05 1.21h4.32v.69h-4.38c-.04.34-.1.75-.19 1.22h5.15v.69h-4.82c.87 1.19 2.51 1.92 4.93 2.19-.17.31-.3.57-.37.76-2.77-.49-4.52-1.41-5.26-2.76-.56 1.26-2.3 2.23-5.24 2.9-.12-.24-.26-.48-.43-.72 2.73-.55 4.38-1.34 4.96-2.38h-4.38v-.69h4.65c.1-.38.17-.79.21-1.22h-4.32v-.69h4.4c.03-.34.05-.75.05-1.21h-4.2v-2.64h4.23v-1.26h-2.69v-1.84h-2.24zm1.46 4.46v1.29h3.45c.01-.4.02-.57.01-.53v-.32-.45h-3.46zm1.55-2.59h4.57v-1.19h-4.57zm6.11 2.59h-3.42v.77c-.01.19-.01.37-.02.53h3.44z" fill="#fafbfc"/><path d="m32.63 379.16h.82v1.98h3.54v7.89h1.46v.78h-14.37v-.78h1.46v-7.89h3.54v-1.98h.82v1.98h2.73zm-3.49 11.48.5.73c-1.61.82-3.28 1.63-5 2.41-.13-.27-.28-.55-.44-.82 1.75-.72 3.4-1.49 4.94-2.32m-2.78-5.55h2.73v-3.18h-2.73zm0 3.95h2.73v-3.2h-2.73zm3.54-3.95h2.73v-3.18h-2.73zm0 3.95h2.73v-3.2h-2.73zm7.89 4.68c-1.84-.92-3.51-1.7-5.02-2.32l.45-.73c1.89.8 3.57 1.55 5.04 2.23zm-1.62-11.81h-2.73v3.18h2.73zm-2.73 7.13h2.73v-3.2h-2.73v3.19z" fill="#fafbfc"/><g fill="#000001"><path d="m55.76 44.6c5.83 3.89 11.48 7.92 17.41 11.48 2.28 1.37 5.18 2.4 7.81 2.4 75.65.13 151.31.08 226.97.17 3.35 0 5.57-.76 7.22-3.88 2.17-4.09 4.85-7.92 7.67-12.42 8.12 5.72 16.09 11.32 24.11 16.97-.38.54-.57 1.09-.95 1.3-9.52 5.26-10.24 13.69-10.2 23.61.36 79.49-.03 158.98.36 238.46.09 19.21-10.85 32.33-30.16 39.35-5.86-20.48-24.29-23.13-40.98-28.62 0-1.57 0-3.18 0-4.43 12.7 0 25.28.04 37.85-.01 9.06-.04 12.26-2.97 12.92-12.05.28-3.81.03-7.66.03-11.49 0-77.32 0-154.64 0-231.96 0-1.97 0-3.93 0-6.18-80.02 0-159.57 0-239.65 0v6.58c0 90.49-.03 180.97.1 271.46.01 4.42-1.06 6.98-5.25 8.79-5.28 2.28-10.23 5.31-15.27 7.99.01-105.93.01-211.4.01-317.52z"/><path d="m192.38 119.77c.41-.44.68-.85 1.06-1.13.66-.49 1.39-.9 2.96-1.89 16.35 18.21 32.75 36.47 49.41 55.02 9.49-24.14 16.04-48.92 20.41-75.17 9.07 6.2 17.75 12.13 26.44 18.07-15.56 20.59-22.85 44.79-32.82 67.68-.67 1.53.26 4.39 1.38 5.98 9.29 13.18 19.27 25.9 28.09 39.39 6.64 10.16 9.52 21.75 5.55 33.82-1.35 4.1-4.25 7.77-6.83 11.36-2.65 3.69-5.75 2.61-7.46-.76-2.61-5.14-4.98-10.5-6.66-16-5.57-18.23-13.49-35.33-23.89-52.35-17.59 31.73-37.27 61.14-63.71 85.6-3.54-2.39-2.44-4.48-.45-7.03 21.55-27.59 38.49-57.8 51.22-90.41 1.19-3.05.91-5.2-.85-7.77-13.9-20.32-27.71-40.71-41.54-61.07-.77-1.12-1.53-2.2-2.31-3.34z"/><path d="m159.18 97.14c8.27 5.66 17 11.63 25.6 17.51-.11.64-.05 1.09-.22 1.21-6.85 4.63-10.9 11.21-14.19 18.69-5.69 12.92-12.13 25.5-17.93 38.37-.81 1.8-.54 4.9.52 6.6 6.94 11.14 14.31 22.02 21.38 33.07 7.1 11.09 9.02 23.22 5.48 35.82-1.09 3.86-4.07 7.39-6.8 10.54-2.89 3.35-5.9 1.8-7.35-1.63-1.66-3.94-2.84-8.13-3.76-12.32-3.7-16.81-9.89-32.63-18.32-48.61-14.45 30.55-31.42 58.58-52.33 84.47-.9-.44-1.65-.73-2.31-1.15-.55-.35-1.01-.84-1.14-.95 7.91-15.8 16.22-31.16 23.38-47.05 7.15-15.88 13.26-32.24 19.47-48.53.83-2.18.43-5.69-.82-7.68-11.8-18.69-23.92-37.19-35.95-55.74-.63-.96-1.31-1.89-2.12-3.07 1.3-.97 2.45-1.82 4.15-3.09 14.49 15.93 28.89 31.76 44.42 48.84 6.41-22.21 12.57-43.59 18.84-65.3z"/></g></svg>