<svg enable-background="new 0 0 400 400" viewBox="0 0 400 400" xmlns="http://www.w3.org/2000/svg"><g fill="#010100"><path d="m331.94 204.02c8.11 6.7 15.87 13.11 23.56 19.46-.44.75-.56 1.23-.77 1.27-9.88 2.02-12.08 7.99-11.84 17.79.76 30.97.28 61.98.28 92.97 0 19.61-3.14 24.3-21.42 31.91-1.68.7-3.38 1.32-5.22 2.04-4.46-14-16.55-17.96-28.36-22.12-4.51-1.59-9.23-2.54-14.1-3.84 0-1.54 0-3.15 0-5.09 7.91.56 15.77 1.16 23.64 1.66 5.64.36 11.29.74 16.94.81 6.11.08 9.82-3.14 10.05-9.31.34-9.29.09-18.6.09-28.24-36.59 0-72.81 0-109.72 0v5.28c0 15.16-.08 30.33.07 45.49.03 3.1-.94 4.8-3.75 6.15-5.66 2.72-11.12 5.83-17.63 9.3 2.62-54.63 4.26-108.37 1.49-162.41 5.15 2.67 10.31 4.98 15.1 7.92 4.29 2.64 8.65 3.63 13.67 3.6 29.82-.17 59.65-.15 89.48.01 3.86.02 6.58-1.03 8.97-4.04 2.86-3.59 6.12-6.89 9.47-10.61zm-116.73 52.23h109.23c0-9.89 0-19.44 0-28.88-36.62 0-72.86 0-109.23 0zm109.36 9.16c-36.6 0-72.94 0-109.19 0v28.81h109.19c0-9.8 0-19.22 0-28.81z"/><path d="m100.21 112.4c-.09 1.82-.17 3.31-.27 5.27-6.35 2.73-12.84 5.52-19.14 8.22 0-30.07 0-59.9 0-90.25 5.57 3.71 11.14 7.74 17.03 11.2 2.56 1.51 5.8 2.63 8.73 2.64 67.15.15 134.31.08 201.46.2 3.77.01 6.2-1.23 8.42-4.07 3.47-4.44 7.22-8.65 11.11-13.27 9.02 7.59 17.75 14.93 27.15 22.83-5.21 2.19-9.71 3.79-13.89 5.99-1.52.8-3.26 3.03-3.24 4.59.21 14.46.81 28.91 1.17 43.37.03 1.23-.58 3.06-1.5 3.62-5.76 3.54-11.7 6.79-18.14 10.46 0-3.92 0-7.16 0-10.81-73.07.01-145.77.01-218.89.01zm76.03-9.19h63.37c0-15.26 0-30.14 0-44.96-21.31 0-42.22 0-63.37 0zm142.3.04c0-15.24 0-30.13 0-44.95-19.98 0-39.58 0-59.36 0v44.95zm-161.77-44.96c-19.14 0-37.7 0-56.35 0v44.87h56.35c0-15.17 0-29.91 0-44.87z"/><path d="m159.18 158.02c6.55 5.24 13.41 10.73 20.63 16.49-24.04 11.55-41.26 31.18-60.97 47.64-12.52 10.45-24.91 21.05-37.36 31.59-1.24 1.05-2.46 2.13-4.91 4.25 28.15-2.01 54.83-3.92 82.52-5.9-3.59-9.79-7.02-18.86-10.16-28.03-.55-1.61.14-3.65.26-5.49 1.72.72 4.03.96 5.07 2.24 8.07 9.94 16.2 19.85 23.67 30.23 4.81 6.69 6.91 14.3 3.21 22.59-1.75 3.94-4.36 6.52-8.45 7.85-4.94 1.61-7.23.55-8.47-4.48-1.23-4.99-2.07-10.08-3.49-15-.33-1.16-2.48-2.77-3.52-2.6-21.12 3.48-42.25 6.92-63.26 10.99-9.5 1.84-18.17 6.19-25.83 13.13-5.66-8.46-11.09-16.57-16.56-24.75 30.85-12.69 51.48-37.54 74.09-60.28-19.13 1.64-38.6.86-56.05 12.12-4.66-7.44-9.2-14.68-13.93-22.21 12.63-2.72 20.42-11.5 28.03-20.29 12.16-14.04 21.54-29.93 29.71-47 7.91 4.65 15.57 9.17 24.02 14.14-20.3 9.24-30.91 27.98-46.41 41.38-5.01 4.33-9.84 8.88-15.32 13.85 1.9.19 3.12.43 4.34.43 16.66.02 33.32.12 49.98-.11 2.11-.03 4.9-1.27 6.19-2.9 7.79-9.7 15.21-19.69 22.97-29.88z"/><path d="m223.36 191.38c-2.93 2.49-4.58 4.53-6.72 5.59-4.87 2.42-9.97 4.36-14.85 6.44 0-25.68 0-51 0-76.94 5.21 2.77 10.52 5.93 16.12 8.44 3.21 1.44 6.88 2.55 10.36 2.57 26.64.21 53.29.03 79.93.2 4.31.03 7.69-.81 10.46-4.28 2.49-3.11 5.38-5.89 8.49-9.25 7.47 6.98 14.43 13.49 21.58 20.16-11.36 4.81-11.54 4.82-11.27 16.72.2 9.12.99 18.23 1.36 27.35.04 1.07-.62 2.74-1.45 3.19-5.83 3.11-11.79 5.97-18.28 9.19 0-3.48 0-6.24 0-9.39-32.72.01-65.1.01-95.73.01zm95.44-44.99c-32.78 0-65.13 0-97.45 0v35.77h97.45c0-12.08 0-23.71 0-35.77z"/><path d="m84.07 292.18c-.8 10.79-1.42 21.52-2.45 32.21-.51 5.26-1.34 10.57-2.8 15.63-2.81 9.71-10.26 14.3-19.7 16.02-3.49.64-7.08.42-9.37-3.02-2.48-3.72-3.12-7.82-1.02-11.81 1.28-2.44 3-4.98 5.18-6.58 7.97-5.85 12.65-13.95 16.44-22.73 2.3-5.33 4.68-10.65 6.52-16.14 1.15-3.51 2.79-5.06 7.2-3.58z"/><path d="m101.7 289.01c2.5.51 4.82.28 5.67 1.28 7.9 9.41 15.99 18.71 23.02 28.75 2.63 3.76 3.22 9.32 3.62 14.16.51 6.16-4.36 11.96-10.3 13.74-4.13 1.24-6.52-.54-7.87-5.86-3.35-13.16-6.65-26.33-10.09-39.46-1-3.81-2.4-7.51-4.05-12.61z"/><path d="m178.06 319.98c.05 9.97-2.72 14.4-9.05 17-3.83 1.57-6.66.62-7.97-3.18-1.39-4.04-1.75-8.46-3.36-12.4-4.63-11.33-9.73-22.47-14.47-33.76-.64-1.53-.24-3.49-.32-5.26 1.56.55 3.46.71 4.63 1.71 7.82 6.68 15.68 13.33 23.11 20.43 4.81 4.6 7.21 10.65 7.43 15.46z"/></g><path d="m6.45 374.46.42-.45c.65.47 1.27.95 1.85 1.44l-.45.49c-.66-.56-1.26-1.06-1.83-1.48m.93 7.33-.63-.26c.55-1.36 1.05-2.8 1.52-4.33.19.1.38.19.59.27-.46 1.29-.95 2.73-1.48 4.32m-.38-10.38.44-.42c.43.34 1.01.82 1.74 1.44l-.49.49c-.53-.51-1.09-1.01-1.69-1.51m2.5.35h1.72v-1.04h.59v1.04h3.52v-1.04h.59v1.04h1.75v.53h-1.75v1.42h-2.03v.97h3.22v2.03h-3.24c0 .35-.01.66-.03.93h3.32v.53h-3.37c-.03.27-.08.58-.15.94h3.96v.53h-3.71c.67.92 1.93 1.48 3.79 1.68-.13.24-.23.44-.29.59-2.13-.38-3.48-1.08-4.04-2.12-.43.97-1.77 1.72-4.03 2.23-.09-.19-.2-.37-.33-.55 2.1-.42 3.37-1.03 3.81-1.83h-3.36v-.53h3.58c.08-.29.13-.61.16-.94h-3.33v-.53h3.39c.02-.27.04-.58.04-.93h-3.23v-2.03h3.25v-.97h-2.07v-1.42h-1.73zm1.12 3.44v1h2.65c.01-.3.02-.44.01-.4v-.25-.35zm1.19-2h3.52v-.91h-3.52zm4.71 2h-2.63v.59c0 .15-.01.28-.01.4h2.64z" fill="#fafafc"/><path d="m13.55 383.74h.63v1.52h2.72v6.07h1.13v.6h-11.05v-.6h1.13v-6.07h2.73v-1.52h.63v1.52h2.1v-1.52zm-2.68 8.83.38.56c-1.24.63-2.53 1.25-3.85 1.85-.1-.21-.21-.42-.34-.63 1.36-.55 2.63-1.15 3.81-1.78m-2.13-4.27h2.1v-2.45h-2.1zm0 3.04h2.1v-2.46h-2.1zm2.72-3.04h2.1v-2.45h-2.1zm0 3.04h2.1v-2.46h-2.1zm6.07 3.6c-1.41-.71-2.7-1.3-3.86-1.78l.35-.56c1.45.62 2.75 1.19 3.88 1.72zm-1.25-9.09h-2.1v2.45h2.1zm-2.09 5.49h2.1v-2.46h-2.1z" fill="#fafafc"/></svg>