<svg enable-background="new 0 0 400 400" viewBox="0 0 400 400" xmlns="http://www.w3.org/2000/svg"><g fill="#fcfbfa"><path d="m37.59 393.81c-.92.31-1.52.05-2-.78-.7-1.2-1.52-2.34-2.47-3.78v4.59c-.55.03-.95.05-1.41.07-.03-.37-.06-.64-.06-.91 0-1.91 0-3.81 0-5.7 1.13-.41 1.77-.03 2.29.91.62 1.11 1.38 2.14 2.31 3.19v-4.2h1.35v6.61z"/><path d="m12.94 393.88v-6.75c1.9.19 3.93-.54 5.37 1.29.8 1.01.78 2.88.03 3.97-1.37 1.97-3.4 1.51-6.4 1.49m2.45-1.22c2.04.12 2.92-.58 2.89-2.21-.03-1.51-.98-2.19-2.89-2z"/><path d="m11.81 393.87h-5.49c.68-2.18 2.47-3.48 3.51-5.45h-3.08v-1.21h5.29c-.71 2.13-2.44 3.48-3.47 5.51.86 0 1.63.04 2.39-.01.79-.05 1.14.21.85 1.16"/><path d="m39.33 393.86v-6.61h3.7v1.07h-2.22v1.52c.68.04 1.34.09 2.07.13v1.07c-.72.05-1.38.09-2.1.14v1.48h2.4v1.19h-3.85z"/><path d="m27.71 388.56c-1.15-.3-2.46-.61-3.1.64-.37.73-.41 1.93-.06 2.67.63 1.35 1.99.93 3.17.68.35.94-.01 1.32-.93 1.46-1.62.25-3.05-.27-3.76-1.48-.73-1.24-.6-3.03.31-4.17.88-1.11 2.71-1.7 4-1.16.32.13.44.74.65 1.12-.1.08-.19.16-.28.24"/><path d="m49.15 387.24v1.07c-.59.02-1.17.05-1.87.08v5.44h-1.48v-5.44h-1.85c-.05-.4-.08-.73-.13-1.15z"/><path d="m20.06 387.21h1.33v6.62h-1.33z"/><path d="m30.68 393.25c-.39.38-.8.79-1.05.76-.32-.05-.6-.45-.9-.7.26-.24.51-.64.8-.67.29-.04.62.3 1.15.61"/></g><path d="m75.07 285.43c0 6.66.21 12.98-.14 19.28-.09 1.66-1.55 3.93-3.02 4.71-5.67 3.02-11.6 5.55-17.53 8.31 0-54.46 0-108.33 0-162.66 6.4 3.56 12.67 7.2 19.11 10.53 2.12 1.09 4.66 1.88 7.02 1.91 13.83.18 27.66.22 41.48-.05 2.29-.05 4.98-1.4 6.72-2.99 3.66-3.35 6.81-7.25 10.61-11.4 7 6.5 13.87 12.88 21.41 19.88-3.81 2.31-7.19 4.54-10.75 6.44-2.78 1.48-3.96 3.28-3.91 6.64.26 19.65.08 39.32.38 58.97.27 17.29 1.01 34.57 1.42 51.86.03 1.08-.67 2.74-1.53 3.2-5.82 3.13-11.78 6.01-18.25 9.24 0-8.27 0-15.86 0-23.87-17.69 0-35.05 0-53.02 0zm.32-109.17v100.02h52.22c0-33.51 0-66.71 0-100.02-17.56 0-34.8 0-52.22 0z" fill="#010104"/><path d="m35.09 80.67h105.29c0-16.11 0-31.65 0-47.81 10.5 5.48 20.98 10.95 31.7 16.55-11.19 4.42-12.33 13.15-11.06 23.09.31 2.43.05 4.94.05 7.75h78.33c0-14.77 0-29.41 0-44.65 11.08 4.62 21.91 9.13 32.8 13.67-.32.44-.47.88-.72.95-11.06 3.12-12.78 11.21-11.46 21.1.37 2.77.06 5.64.06 8.63 1.18.24 2.12.6 3.06.6 15.5.04 30.99.1 46.49-.06 1.78-.02 3.88-.93 5.27-2.1 7.5-6.32 14.83-12.86 22.83-19.87 4.9 5.03 9.7 10.03 14.59 14.94 4.82 4.84 9.72 9.59 15.5 15.27-36.47 0-71.78 0-107.55 0v27.68c-6.79 2.42-13.25 4.71-20.38 7.25 0-11.95 0-23.05 0-34.4-26.36 0-52.27 0-78.63 0v31.51c-6.71 2.88-13.07 5.62-20.1 8.63 0-13.61 0-26.65 0-40.4-2.27 0-4.03 0-5.79 0-18.5 0-37-.37-55.48.15-10.25.29-20.44 2.13-30.68 3.06-1.68.15-3.84-.27-5.1-1.27-3.37-2.69-6.37-5.85-9.52-8.82.16-.49.33-.97.5-1.45z" fill="#010104"/><path d="m155.4 254.53c-.89-1.39-1.58-2.47-2.35-3.67 45.41-30.57 70.73-74.37 84.33-126.4 10.38 5.66 20.41 11.13 31 16.9-4.38 2.54-8.3 4.81-12.64 7.33 12.1 20.48 27.85 37.38 45.98 52.22 18.38 15.04 38.83 25.47 63.77 29.32-1.14 1.06-2.1 2.59-3.44 3.08-3.41 1.25-7.08 1.81-10.49 3.05-6.61 2.4-12.37 5.91-14.49 13.97-39.87-22.26-67.66-54.23-84.12-98.06-20.46 46.49-53.7 79.15-97.55 102.26z" fill="#010104"/><path d="m234.65 365.56c22.19-29.73 39.01-61.73 56.29-94.2-1.89-.14-3.28-.34-4.66-.34-19.66-.02-39.33-.36-58.98.14-9.41.24-18.78 2.08-28.18 3.11-1.31.14-3.11.26-3.95-.46-3.62-3.1-6.97-6.53-10.42-9.83.16-.46.33-.92.49-1.38h5.66c31.83 0 63.65-.08 95.48.1 4.37.02 7.59-1.09 10.42-4.41 3-3.51 6.42-6.65 9.99-10.31 6.79 8.25 13.17 16 19.81 24.07-1.21.55-1.76.98-2.34 1.03-9.73.93-14.47 7.42-18.9 15.35-14.69 26.26-30.01 52.18-44.93 78.32-1.35 2.36-2.69 2.86-5.09 2.42-6.51-1.22-13.05-2.3-20.69-3.61z" fill="#010104"/><path d="m232.01 205.16c2.73 0 4.62-.57 5.85.09 9.48 5.11 18.85 10.43 28.21 15.78 1.57.9 2.99 2.12 4.3 3.38 6.76 6.54 7.27 11 1.93 18.76-1.97 2.86-4.35 5.44-6.58 8.11-2.38 2.87-4.56 2.11-6.45-.54-.76-1.07-1.46-2.27-1.81-3.52-4.22-14.92-13.19-27.01-22.91-38.67-.53-.62-.99-1.3-2.54-3.39z" fill="#010104"/></svg>