<svg enable-background="new 0 0 400 400" viewBox="0 0 400 400" xmlns="http://www.w3.org/2000/svg"><g fill="#fcfbfa"><path d="m37.59 393.81c-.92.31-1.52.05-2-.78-.7-1.2-1.52-2.34-2.47-3.78v4.59c-.55.03-.95.05-1.41.07-.03-.37-.06-.64-.06-.91 0-1.91 0-3.81 0-5.7 1.13-.41 1.77-.03 2.29.91.62 1.11 1.38 2.14 2.31 3.19v-4.2h1.35v6.61z"/><path d="m12.94 393.88v-6.75c1.9.19 3.93-.54 5.37 1.29.8 1.01.78 2.88.03 3.97-1.37 1.97-3.4 1.51-6.4 1.49m2.45-1.22c2.04.12 2.92-.58 2.89-2.21-.03-1.51-.98-2.19-2.89-2z"/><path d="m11.81 393.87h-5.49c.68-2.18 2.47-3.48 3.51-5.45h-3.08v-1.21h5.29c-.71 2.13-2.44 3.48-3.47 5.51.86 0 1.63.04 2.39-.01.79-.05 1.14.21.85 1.16"/><path d="m39.33 393.86v-6.61h3.7v1.07h-2.22v1.52c.68.04 1.34.09 2.07.13v1.07c-.72.05-1.38.09-2.1.14v1.48h2.4v1.19h-3.85z"/><path d="m27.71 388.56c-1.15-.3-2.46-.61-3.1.64-.37.73-.41 1.93-.06 2.67.63 1.35 1.99.93 3.17.68.35.94-.01 1.32-.93 1.46-1.62.25-3.05-.27-3.76-1.48-.73-1.24-.6-3.03.31-4.17.88-1.11 2.71-1.7 4-1.16.32.13.44.74.65 1.12-.1.08-.19.16-.28.24"/><path d="m49.15 387.24v1.07c-.59.02-1.17.05-1.87.08v5.44h-1.48v-5.44h-1.85c-.05-.4-.08-.73-.13-1.15z"/><path d="m20.06 387.21h1.33v6.62h-1.33z"/><path d="m30.68 393.25c-.39.38-.8.79-1.05.76-.32-.05-.6-.45-.9-.7.26-.24.51-.64.8-.67.29-.04.62.3 1.15.61"/></g><path d="m136.79 127.78c0-14.39 0-27.81 0-41.78-2.26 0-4.04 0-5.82 0-16.99 0-34-.36-50.98.14-9.73.29-19.45 1.75-29.1 3.21-2.69.41-4.23.06-6.03-1.76-2.9-2.95-6.07-5.64-9.13-8.44.19-.45.38-.9.57-1.35h99.64c0-15.45 0-30.12 0-45.18 10.61 3.98 21.54 8.09 33.01 12.39-1.07.96-1.56 1.66-2.22 1.94-9 3.69-11.97 10.4-10.41 19.76.54 3.23.09 6.62.09 10.41h85.97c0-14.26 0-28.46 0-43.01 11.26 4.52 22.55 9.05 34.68 13.92-3.83 2.4-6.6 4.6-9.73 5.97-3.72 1.63-4.55 4.14-4.33 7.87.29 4.97.07 9.97.07 15.47 2.06.09 3.83.24 5.61.24 14.5.02 28.99-.12 43.49.1 3.69.06 6.24-1.11 8.68-3.73 5.68-6.08 11.6-11.93 17.88-18.35 9.6 10.06 18.85 19.75 28.91 30.29-35.38 0-69.71 0-104.57 0 0 8.38-.12 16.16.06 23.94.06 2.74-.81 4.18-3.32 5.31-5.42 2.45-10.69 5.25-16.72 8.25 0-12.7 0-24.72 0-37.06-28.95 0-57.36 0-86.68 0v11.09c0 4.83-.4 9.71.1 14.48.59 5.6-1.07 8.91-6.76 10.48-4.09 1.14-7.92 3.25-12.96 5.4z" fill="#010104"/><path d="m338.47 247.89c-42.61 0-84.16 0-126.4 0v5.69c0 26.49-.62 52.99.22 79.45.55 17.41-6.47 28.97-21.85 36.12-2.24 1.04-4.42 2.2-6.87 3.43-2.52-7.11-7.68-11.44-13.76-14.26-10.06-4.67-20.3-9.1-30.77-12.72-4.71-1.63-6.16-3.59-4.73-8.43 7.58.95 15.24 1.92 22.89 2.87 7.08.88 14.16 1.83 21.25 2.57 8.65.9 12.86-2.63 13.38-11.3.26-4.32.1-8.66.1-12.99.01-23.15 0-46.3 0-70.32-1.9 0-3.63 0-5.37 0-25.82 0-51.64-.28-77.46.14-9.56.16-19.13 1.72-28.61 3.13-2.82.42-4.57.15-6.5-1.89-2.74-2.9-5.81-5.48-8.74-8.19.13-.45.26-.9.39-1.35 1.83-.09 3.65-.25 5.48-.25 68.46-.01 136.93-.04 205.39.06 3.94.01 6.91-1.02 9.8-3.72 6.56-6.14 13.41-11.95 20.52-18.23 10.32 9.85 20.59 19.65 31.64 30.19z" fill="#010104"/><path d="m311.31 151.2c-74.56 0-148.5 0-222.48 0-.95 6.52-1.28 13.19-3.07 19.44-1.22 4.25-3.71 8.77-6.97 11.68-10.81 9.66-14.48 7.27-25.9-.03-1.15-.73-1.54-4.16-.9-5.8.78-1.99 2.82-3.69 4.68-5.02 15.01-10.73 22.84-25.59 25.2-43.57.49-3.72 1.99-5.07 6.02-3.83v18.08h115.35c-1.08-18.28-11.81-31.63-22.64-44.94.11-.53.22-1.06.32-1.59 1.58 0 3.42-.53 4.71.09 9.27 4.47 18.75 8.64 27.55 13.93 12.72 7.65 13.53 18.85 2.88 29.11-.95.91-1.8 1.92-3.22 3.45 1.79.16 3.14.37 4.48.37 29 .02 57.99.09 86.99-.13 2.23-.02 4.94-1.54 6.56-3.21 3.7-3.79 6.86-8.11 10.6-12.66 8.89 8.44 17.59 16.69 26.8 25.43-21.29 5.61-32.96 21.58-44.63 37.4-2.37 3.22-4.36 4.02-7.92 1.81 5.13-13.16 10.29-26.4 15.59-40.01z" fill="#010104"/><path d="m246.51 274.16c.76-2.64 1.67-4.39 4.87-2.76 24.09 12.29 48.22 24.48 72.32 36.76 1.61.82 3.05 2.01 4.52 3.09 14.56 10.7 14.99 22.86 5.54 38.27-2.08 3.39-4.65 3.56-7.3.79-2.06-2.15-4.19-4.37-5.69-6.91-10.89-18.43-26.83-32.02-43.16-45.2-10.19-8.21-20.7-16.02-31.1-24.04z" fill="#010104"/><path d="m265.81 177.94c9.04 9.01 17.76 17.69 27.16 27.06-2.07 0-3.73 0-5.39 0-46.12 0-92.23-.17-138.35.14-9.38.06-18.78 1.7-28.09 3.16-2.86.45-4.55.11-6.46-1.89-2.82-2.96-5.94-5.64-8.94-8.43.2-.46.4-.93.6-1.39h5.7c42.79 0 85.57-.03 128.36.06 3.55.01 6.24-.78 8.85-3.4 5.38-5.39 11.16-10.36 16.56-15.31z" fill="#010104"/><path d="m135.64 263.57c7.68 7.2 15.4 14.43 24.11 22.6-15.07-.55-21.86 10.93-31.04 18.27-22.8 18.2-47.51 32.93-74.63 43.64-1.07.42-2.18.72-3.47 1.14-.88-1.25-1.71-2.43-2.53-3.6 35.36-20.59 65.45-46.46 87.56-82.05z" fill="#010104"/></svg>