<svg enable-background="new 0 0 400 400" viewBox="0 0 400 400" xmlns="http://www.w3.org/2000/svg"><g fill="#fcfbfa"><path d="m37.59 393.81c-.92.31-1.52.05-2-.78-.7-1.2-1.52-2.34-2.47-3.78v4.59c-.55.03-.95.05-1.41.07-.03-.37-.06-.64-.06-.91 0-1.91 0-3.81 0-5.7 1.13-.41 1.77-.03 2.29.91.62 1.11 1.38 2.14 2.31 3.19v-4.2h1.35v6.61z"/><path d="m12.94 393.88v-6.75c1.9.19 3.93-.54 5.37 1.29.8 1.01.78 2.88.03 3.97-1.37 1.97-3.4 1.51-6.4 1.49m2.45-1.22c2.04.12 2.92-.58 2.89-2.21-.03-1.51-.98-2.19-2.89-2z"/><path d="m11.81 393.87h-5.49c.68-2.18 2.47-3.48 3.51-5.45h-3.08v-1.21h5.29c-.71 2.13-2.44 3.48-3.47 5.51.86 0 1.63.04 2.39-.01.79-.05 1.14.21.85 1.16"/><path d="m39.33 393.86v-6.61h3.7v1.07h-2.22v1.52c.68.04 1.34.09 2.07.13v1.07c-.72.05-1.38.09-2.1.14v1.48h2.4v1.19h-3.85z"/><path d="m27.71 388.56c-1.15-.3-2.46-.61-3.1.64-.37.73-.41 1.93-.06 2.67.63 1.35 1.99.93 3.17.68.35.94-.01 1.32-.93 1.46-1.62.25-3.05-.27-3.76-1.48-.73-1.24-.6-3.03.31-4.17.88-1.11 2.71-1.7 4-1.16.32.13.44.74.65 1.12-.1.08-.19.16-.28.24"/><path d="m49.15 387.24v1.07c-.59.02-1.17.05-1.87.08v5.44h-1.48v-5.44h-1.85c-.05-.4-.08-.73-.13-1.15z"/><path d="m20.06 387.21h1.33v6.62h-1.33z"/><path d="m30.68 393.25c-.39.38-.8.79-1.05.76-.32-.05-.6-.45-.9-.7.26-.24.51-.64.8-.67.29-.04.62.3 1.15.61"/></g><path d="m309.34 248.04c-3.82 2.32-6.93 4.53-10.32 6.19-3.12 1.53-4.08 3.58-4.03 7.03.49 30.29.7 60.59 1.26 90.89.08 4.2-.89 6.69-4.87 8.46-5.41 2.4-10.54 5.44-16.34 8.49 0-5.85 0-11.1 0-16.71-49.73 0-99.08 0-148.39 0-.19.36-.51.67-.46.91 1.13 5.99-1.87 8.88-7.24 10.74-4.63 1.6-8.97 4.05-13.57 6.18 0-46.93 0-93.29 0-140.11 6.19 3.41 12.3 7 18.63 10.15 2.56 1.27 5.59 2.24 8.41 2.25 44.31.14 88.62.06 132.93.17 3.6.01 6.3-.87 8.85-3.46 3.85-3.9 8.1-7.41 12.3-11.2 7.43 6.5 14.8 12.96 22.84 20.02zm-34.76 95.23c0-14.2 0-28.08 0-42-49.58 0-98.81 0-148.16 0v42zm-148.38-51.11h148.45c0-13.86 0-27.28 0-40.77-49.63 0-98.97 0-148.45 0z" fill="#010104"/><path d="m253.11 149.2c-1.47-.1-2.3-.2-3.12-.19-47.15.01-94.31-.1-141.46.2-7.56.05-15.09 2.13-22.67 2.91-1.91.2-4.34-.52-5.89-1.67-3.3-2.46-6.19-5.49-9.25-8.28.2-.42.39-.83.59-1.25h130.49c-1.99-20.6-13.23-35.2-28.12-49.48 2.65-.46 4.53-1.43 5.49-.86 11.39 6.83 22.65 13.87 33.9 20.92 1.1.69 1.93 1.83 2.85 2.79 8.48 8.91 8.17 14.17-1.28 22.43-1.09.95-2.1 1.98-3.72 3.52 2.19.16 3.62.34 5.05.35 21.66.02 43.32.11 64.98-.13 2.46-.03 5.39-1.44 7.26-3.14 5.27-4.83 10.1-10.14 15.59-15.76 8.58 9.04 16.85 17.75 25.84 27.23-23.22 0-45.43 0-67.63 0-.16.39-.31.78-.47 1.16 6.32 3.88 12.65 7.77 18.94 11.63-.38.69-.49 1.16-.68 1.19-8.34 1.48-13.88 6.7-19.19 12.99-8.68 10.28-18.14 19.89-28.02 30.6 2.34.11 3.87.23 5.39.23 22.49.01 44.99.1 67.48-.13 2.47-.03 5.45-1.34 7.29-3.04 6.34-5.88 12.28-12.2 18.78-18.76 9.52 9.98 18.84 19.75 28.95 30.35-2.98 0-4.9 0-6.82 0-85.81 0-171.62-.12-257.43.14-11.72.04-23.42 2.1-35.16 2.96-1.93.14-4.34-.61-5.88-1.79-3.24-2.48-6.05-5.51-9.03-8.32.22-.47.45-.94.67-1.41h5.69c55.82 0 111.63-.05 167.45.1 4.08.01 6.27-1.22 8.01-4.88 7.72-16.18 15.71-32.23 23.57-48.34.59-1.17.91-2.46 1.56-4.27z" fill="#010104"/><path d="m138.81 75.68c0-15.44 0-29.86 0-44.96 10.26 4.44 20.74 8.98 31.62 13.69-.94.89-1.42 1.68-2.12 1.95-9.5 3.68-11.74 10.93-10.31 20.24.42 2.73.06 5.58.06 8.68h82.74c0-14.35 0-28.54 0-43.14 10.2 4.44 20.72 9.02 31.16 13.56-.18.69-.19.93-.27.96-13.76 5.3-12.51 16.69-11.2 28.62 1.37.1 2.95.3 4.53.31 15 .02 29.99.15 44.99-.12 2.53-.05 5.47-1.31 7.45-2.94 7.18-5.93 14.03-12.27 21.39-18.79 9.33 9.78 18.62 19.51 28.63 30-36.16 0-71.45 0-107.16 0v24.73c-6.14 2.82-12.07 5.55-18.8 8.65 0-11.51 0-22.11 0-32.89-27.98 0-55.41 0-83.46 0 0 7.12.18 14.06-.13 20.99-.08 1.74-1.32 4-2.74 5-4.7 3.3-9.72 6.13-15.54 9.7 0-12.53 0-23.92 0-35.55-1.66-.14-2.77-.32-3.89-.32-19.49-.02-39-.34-58.48.14-8.91.22-17.76 2.16-26.67 3.04-1.78.18-4.08-.45-5.47-1.56-3.33-2.64-6.25-5.79-9.34-8.73.19-.41.39-.82.58-1.22 34.18-.04 68.35-.04 102.43-.04z" fill="#010104"/><path d="m128.9 152.54c2.17-.3 4.04-1.18 4.88-.59 10.97 7.71 22.26 15.07 32.5 23.68 6.58 5.54 6.36 10.44 1.79 17.74-2.02 3.22-4.47 6.21-7.03 9.04-2.75 3.05-5.22 2.56-6.72-1.37-1.18-3.07-1.18-6.68-2.71-9.52-6.21-11.51-12.8-22.81-19.29-34.17-.74-1.29-1.72-2.44-3.42-4.81z" fill="#010104"/></svg>