<svg enable-background="new 0 0 400 400" viewBox="0 0 400 400" xmlns="http://www.w3.org/2000/svg"><g fill="#fcfbfa"><path d="m37.59 393.81c-.92.31-1.52.05-2-.78-.7-1.2-1.52-2.34-2.47-3.78v4.59c-.55.03-.95.05-1.41.07-.03-.37-.06-.64-.06-.91 0-1.91 0-3.81 0-5.7 1.13-.41 1.77-.03 2.29.91.62 1.11 1.38 2.14 2.31 3.19v-4.2h1.35v6.61z"/><path d="m12.94 393.88v-6.75c1.9.19 3.93-.54 5.37 1.29.8 1.01.78 2.88.03 3.97-1.37 1.97-3.4 1.51-6.4 1.49m2.45-1.22c2.04.12 2.92-.58 2.89-2.21-.03-1.51-.98-2.19-2.89-2z"/><path d="m11.81 393.87h-5.49c.68-2.18 2.47-3.48 3.51-5.45h-3.08v-1.21h5.29c-.71 2.13-2.44 3.48-3.47 5.51.86 0 1.63.04 2.39-.01.79-.05 1.14.21.85 1.16"/><path d="m39.33 393.86v-6.61h3.7v1.07h-2.22v1.52c.68.04 1.34.09 2.07.13v1.07c-.72.05-1.38.09-2.1.14v1.48h2.4v1.19h-3.85z"/><path d="m27.71 388.56c-1.15-.3-2.46-.61-3.1.64-.37.73-.41 1.93-.06 2.67.63 1.35 1.99.93 3.17.68.35.94-.01 1.32-.93 1.46-1.62.25-3.05-.27-3.76-1.48-.73-1.24-.6-3.03.31-4.17.88-1.11 2.71-1.7 4-1.16.32.13.44.74.65 1.12-.1.08-.19.16-.28.24"/><path d="m49.15 387.24v1.07c-.59.02-1.17.05-1.87.08v5.44h-1.48v-5.44h-1.85c-.05-.4-.08-.73-.13-1.15z"/><path d="m20.06 387.21h1.33v6.62h-1.33z"/><path d="m30.68 393.25c-.39.38-.8.79-1.05.76-.32-.05-.6-.45-.9-.7.26-.24.51-.64.8-.67.29-.04.62.3 1.15.61"/></g><path d="m71.63 114.61c5.91 3.77 10.75 7.25 15.96 10.04 2.91 1.56 6.42 2.79 9.67 2.81 31.66.21 63.32.03 94.97.23 4.29.03 7.22-1.04 9.53-4.67 1.86-2.91 4.25-5.48 6.64-8.49 6.63 5.18 13.01 10.16 19.44 15.19-.44.77-.56 1.34-.91 1.55-7.66 4.44-9.71 11.04-8.93 19.65.78 8.59.33 17.32.02 25.97-.06 1.59-1.65 3.82-3.12 4.52-4.61 2.2-9.5 3.82-14.79 5.86-.19-2.9-.35-5.29-.53-7.96-35.94 0-71.69 0-107.23 0-1.71 22.77-3.43 45.54-5.17 68.69h3.92c36.32 0 72.65.06 108.97-.13 2.45-.01 5.36-1.37 7.24-3.04 4.84-4.3 9.22-9.13 14.04-13.99 7.8 8.24 15.4 16.28 23.92 25.28-23.59 0-46.05 0-68.94 0-.11 2.49-.26 4.25-.26 6.01-.02 25.16.04 50.32-.03 75.48-.04 15.61-9.97 27.49-25.48 30.7-4.48-18.33-20.29-21.4-35.29-26 0-1.53 0-3.13 0-5.2 8.76.74 17.46 1.47 26.15 2.23 1.49.13 2.96.46 4.45.56 8.27.53 11.52-1.95 11.6-10.33.22-23.82.03-47.65-.02-71.47 0-.3-.23-.6-.56-1.41-9.04 0-18.32-.49-27.53.14-9.57.65-19.05 2.46-28.6 3.56-1.17.13-2.77-.67-3.67-1.56-3.31-3.25-6.4-6.72-10.59-11.2-7.43 44.04-22.69 83.08-51.39 116.47-1.35-.73-2.59-1.39-3.95-2.12.17-.61.19-1.09.41-1.46 16.89-28.06 28.49-58.18 33.79-90.46 3.01-18.32 5.41-36.87 6.21-55.4 1.2-27.76.8-55.59.95-83.39.05-5.15-.52-10.29-.89-16.66zm127.92 21.75c-36.09 0-71.91 0-107.66 0v33.83h107.66c0-11.5 0-22.59 0-33.83z" fill="#010104"/><path d="m349.64 159.14c7.17 8.6 13.96 16.74 21.48 25.76-16.46 0-31.96 0-47.95 0v6.52 140.94c0 18.52-9.67 30.37-28.23 34.37-3.23-18.39-18.22-22.93-33-27.45-3.51-1.07-4.77-2.43-3.49-6.48 7.41.45 14.99.83 22.55 1.41 4.47.35 8.9 1.09 13.36 1.55 5.96.61 9.16-1.79 10.22-7.63.21-1.14.22-2.32.22-3.48.01-45.31.01-90.63 0-135.94 0-.98-.1-1.96-.14-2.81-.43-.33-.69-.69-.94-.69-20.26-.01-40.61-1.74-60.64 3.09-1.21.29-3.05.13-3.91-.61-3.59-3.11-6.92-6.53-10.34-9.83.18-.42.37-.84.55-1.26h75.68c-.52-24.61-1.02-48.49-1.52-72.67 10.75 5.13 21.38 10.21 32.57 15.56-3.67 2.44-7.13 4.56-10.34 6.99-1.16.88-2.47 2.52-2.49 3.82-.17 15.15-.11 30.3-.11 45.65 5.79 1.24 10.76 1.5 14.8-3.89 3.39-4.52 7.56-8.43 11.67-12.92z" fill="#010104"/><path d="m260.41 82.81c0 5.49.29 10.47-.15 15.38-.17 1.89-1.54 4.33-3.12 5.33-4.56 2.91-9.51 5.21-15.02 8.13 0-9.83 0-18.88 0-28.29-26.41 0-52.33 0-79.06 0 0 5.73-.11 11.65.05 17.57.07 2.6-.49 4.22-3.1 5.43-4.93 2.3-9.64 5.08-15.26 8.11 0-10.79 0-20.82 0-31.11-1.71-.16-2.81-.34-3.92-.35-20.17-.01-40.34-.32-60.49.14-8.74.2-17.44 2.12-26.18 2.97-1.79.17-4.06-.5-5.48-1.6-3.28-2.52-6.17-5.55-9.21-8.37.17-.43.34-.86.51-1.29h103.82c0-14.44 0-28.11 0-42.18 9.95 4.06 20.04 8.18 31.83 12.99-15.06 5.56-13.1 17.01-12.27 28.47h78.04c0-13.74 0-27.31 0-41.46 9.98 4.07 19.88 8.11 31.41 12.81-13.92 6.26-13.7 17.06-11.76 29.09h15.32c10.33 0 20.67.18 31-.13 2.55-.08 5.52-1.18 7.49-2.8 7.32-6.02 14.31-12.45 21.68-18.95 9.4 9.86 18.64 19.57 28.67 30.09-35.43.02-69.79.02-104.8.02z" fill="#010104"/><path d="m115.19 274.65c8.08 6.19 15.71 12.04 23.43 17.96-17.71 9.51-25.88 27.84-39.8 40.59-11.02 10.09-21.49 20.78-32.63 31.62-1.42-1.95-2.25-3.08-3.29-4.5 22.39-25.34 39.63-53.93 52.29-85.67z" fill="#010104"/><path d="m191.64 280.22c1.42.09 3.27-.37 4.2.35 12.18 9.51 24.26 19.16 36.29 28.87 1.52 1.23 2.65 2.98 3.84 4.58 9.78 13.12 8.93 26.35-2.28 38.33-2.04 2.18-3.75 2.1-5.18-.22-1.47-2.39-2.95-4.91-3.7-7.58-6.15-21.98-18.2-40.84-31.05-59.3-.76-1.09-1.49-2.2-2.24-3.29.04-.59.08-1.16.12-1.74z" fill="#010104"/><path d="m199.43 192.84c7.3 7.8 13.99 14.95 21.68 23.16-2.76 0-4.43 0-6.1 0-21.65 0-43.31-.36-64.95.15-10.73.25-21.43 2.13-32.15 3.18-1.32.13-3.13.21-3.96-.53-3.57-3.17-6.86-6.65-11.45-11.2h6.62c23.65 0 47.3-.08 70.95.08 3.65.02 6.31-.92 8.71-3.66 3.28-3.77 6.87-7.25 10.65-11.18z" fill="#010104"/><path d="m285.24 256.06c-.11 9.64-3.65 16.23-9.32 21.77-3.18 3.11-5.28 2.55-6.96-1.69-.66-1.68-1.02-3.51-1.28-5.3-2.78-19.37-12.18-36.01-21.64-52.62-.41-.72-1.15-1.38-1.24-2.13-.13-1.12-.13-2.49.43-3.35.27-.42 2.27-.36 2.91.17 9.95 8.26 20.2 16.23 29.54 25.14 5.2 4.96 7.39 12.08 7.56 18.01z" fill="#010104"/></svg>