<svg enable-background="new 0 0 400 400" viewBox="0 0 400 400" xmlns="http://www.w3.org/2000/svg"><g fill="#fcfbfa"><path d="m37.59 393.81c-.92.31-1.52.05-2-.78-.7-1.2-1.52-2.34-2.47-3.78v4.59c-.55.03-.95.05-1.41.07-.03-.37-.06-.64-.06-.91 0-1.91 0-3.81 0-5.7 1.13-.41 1.77-.03 2.29.91.62 1.11 1.38 2.14 2.31 3.19v-4.2h1.35v6.61z"/><path d="m12.94 393.88v-6.75c1.9.19 3.93-.54 5.37 1.29.8 1.01.78 2.88.03 3.97-1.37 1.97-3.4 1.51-6.4 1.49m2.45-1.22c2.04.12 2.92-.58 2.89-2.21-.03-1.51-.98-2.19-2.89-2z"/><path d="m11.81 393.87h-5.49c.68-2.18 2.47-3.48 3.51-5.45h-3.08v-1.21h5.29c-.71 2.13-2.44 3.48-3.47 5.51.86 0 1.63.04 2.39-.01.79-.05 1.14.21.85 1.16"/><path d="m39.33 393.86v-6.61h3.7v1.07h-2.22v1.52c.68.04 1.34.09 2.07.13v1.07c-.72.05-1.38.09-2.1.14v1.48h2.4v1.19h-3.85z"/><path d="m27.71 388.56c-1.15-.3-2.46-.61-3.1.64-.37.73-.41 1.93-.06 2.67.63 1.35 1.99.93 3.17.68.35.94-.01 1.32-.93 1.46-1.62.25-3.05-.27-3.76-1.48-.73-1.24-.6-3.03.31-4.17.88-1.11 2.71-1.7 4-1.16.32.13.44.74.65 1.12-.1.08-.19.16-.28.24"/><path d="m49.15 387.24v1.07c-.59.02-1.17.05-1.87.08v5.44h-1.48v-5.44h-1.85c-.05-.4-.08-.73-.13-1.15z"/><path d="m20.06 387.21h1.33v6.62h-1.33z"/><path d="m30.68 393.25c-.39.38-.8.79-1.05.76-.32-.05-.6-.45-.9-.7.26-.24.51-.64.8-.67.29-.04.62.3 1.15.61"/></g><path d="m173.02 208.29c25.06-28.23 40.16-61.06 48.14-98.21 9.11 4.99 18.03 9.87 27.54 15.08-9.38 4.86-13.89 12.93-18.42 22.43h6.08c19.16 0 38.33-.09 57.49.08 3.78.03 6.66-.93 9.31-3.63 3.13-3.2 6.63-6.05 10.49-9.51 6.58 7.49 13.06 14.87 19.41 22.1-.37.66-.44.9-.53.92-10.92 1.33-16.78 8.81-22.76 17.15-10.08 14.05-21.23 27.32-32.31 41.39 25.79 21.53 55.18 35.65 90.99 39.36-1.95 2.07-2.9 3.86-4.33 4.43-3.05 1.22-6.43 1.61-9.55 2.7-7.94 2.79-10.1 4.95-14.26 13.66-27.97-11.58-52.65-28.18-74.69-49.08-18.61 14.94-38.54 27.22-59.83 37.25-9.31 4.39-18.91 8.17-28.3 12.41-2.91 1.31-4.72 1.06-5.7-2.85 30.19-15.61 58.78-33.88 82.38-59.59-13.89-15.8-22.44-34.49-30.59-53.63-6.76 8.46-12.86 16.98-19.89 24.65-7.51 8.21-15.91 15.61-23.89 23.39-2.3 2.26-4.46 2.36-6.78-.5zm126.67-50.75c-.43-.4-.87-.8-1.3-1.19-23.36 0-46.72 0-70.72 0 10.42 17.75 21.44 34.19 37.29 48.61 11.83-16.17 23.28-31.79 34.73-47.42z" fill="#010104"/><path d="m75.61 269.17h67.87c-1.42-3.36-2.25-5.76-3.41-7.99-3.13-6.05-6.53-11.97-9.53-18.09-.65-1.33-.1-3.26-.1-4.91.56-.15 1.13-.3 1.69-.46 8.01 7.5 16.1 14.91 23.98 22.54 1.99 1.93 3.53 4.42 4.95 6.84 6.25 10.65 4.43 19.57-5.36 27.04-3.91 2.98-5.77 2.21-6.73-2.58-.97-4.88-1.95-9.77-3.36-14.52-.35-1.18-2.59-2.82-3.65-2.61-22.32 4.22-44.63 8.52-66.85 13.22-4.76 1.01-9.18 3.62-14.02 5.59-4.22-7.61-8.64-15.58-13.28-23.96 1.67-.48 3.04-.78 4.34-1.27 6.3-2.41 12.94-4.23 18.8-7.45 14.64-8.05 42.37-42.17 51.63-56.83-21.01 4.99-41.88 7.98-61.35 18.08-4.38-7.47-8.93-15.21-13.71-23.35 15.35-1.61 24.39-11.5 32.21-22.66 12.47-17.8 22.17-37.05 28.83-57.79.4-1.24.86-2.46 1.49-4.25 8.51 5.69 16.69 11.16 25.11 16.79-12.33 3.25-16.93 13.9-23.87 22.39-11.88 14.53-24.54 28.43-36.88 42.59-1.03 1.18-2.16 2.27-3.08 3.24 11.3 0 22.36.08 33.42-.03 5.98-.06 11.99-.17 17.92-.84 2.05-.23 4.69-1.78 5.69-3.52 5.89-10.17 11.38-20.58 17.35-31.55 7.15 6.29 14.9 13.12 22.6 19.9-.28.59-.37 1.05-.54 1.08-8.29 1.52-13.82 6.45-18.94 13.07-20.57 26.59-44.33 50.07-71.15 70.4-.66.48-1.22 1.1-2.07 1.89z" fill="#010104"/><path d="m243.38 34.21c10.99 5 21.68 9.85 33.29 15.13-4.15 2.12-7.47 4.06-10.99 5.53-2.59 1.08-3.4 2.65-3.32 5.34.17 5.81.05 11.64.05 17.96 1.69.16 3.11.42 4.53.42 13.83.03 27.66.13 41.49-.09 2.25-.04 4.86-1.05 6.66-2.44 7.34-5.68 14.42-11.68 21.21-17.25 9.52 9.49 18.7 18.64 28.01 27.91-33.49 0-67.31 0-101.9 0 0 5.49-.17 10.43.06 15.35.14 2.94-.97 4.55-3.55 5.8-4.75 2.29-9.37 4.88-14.69 7.68 0-9.65 0-18.68 0-28.12-29.06 0-57.61 0-86.82 0 0 6.36.23 12.82-.14 19.26-.11 1.89-1.45 4.3-3 5.4-4.58 3.26-9.54 5.98-15.06 9.35 0-11.67 0-22.67 0-34.14-2.13-.11-3.72-.26-5.31-.27-20.16-.02-40.33-.31-60.48.14-7.73.17-15.42 2.06-23.13 3.09-1.35.18-3.24.5-4.04-.2-3.69-3.25-7.09-6.85-11.72-11.44h103.88c0-15.49 0-30.26 0-45.83 10.82 4.89 21.58 9.75 33.27 15.04-3.09 1.97-5.35 3.94-7.99 4.97-5.39 2.11-6.91 5.81-6.36 11.29.46 4.58.09 9.23.09 14.18h85.97c-.01-14.51-.01-28.88-.01-44.06z" fill="#010104"/><path d="m220.84 317.87c1-1.53 1.72-2.62 2.58-3.92 1.16.29 2.27.53 3.35.85 20.52 5.98 41.04 11.95 61.53 17.99 2.21.65 4.33 1.68 6.4 2.71 13.48 6.72 16.34 14.58 10.4 28.47-2.26 5.28-4.78 6.26-9.57 2.9-3.5-2.46-6.45-5.7-9.68-8.54-16.63-14.62-36.07-24.84-55.36-35.29-3.06-1.65-6.12-3.28-9.65-5.17z" fill="#010104"/><path d="m242.67 262.35c1.73-.62 3.76-2.16 5.15-1.71 13.09 4.26 26.3 8.29 39 13.52 13.45 5.54 16.52 14.3 11.28 27.87-2.4 6.21-5.65 7.13-10.29 2.45-3.14-3.17-5.32-7.34-8.62-10.3-10.11-9.08-20.52-17.82-30.87-26.62-1.62-1.38-3.53-2.41-5.3-3.61-.11-.53-.23-1.06-.35-1.6z" fill="#010104"/><path d="m138.28 298.68c9.85 8.39 20.4 16.27 29.61 25.5 10.07 10.09 9.45 17.56-.19 28.09-.34.37-.64.79-1.04 1.07-2.34 1.63-4.71 3.23-7.07 4.84-1.42-2.67-3.64-5.19-4.14-8.02-2.88-16.53-10.83-30.87-18.8-45.24-1.74-3.14-1.72-3.15 1.63-6.24z" fill="#010104"/><path d="m73.06 309.55c-.01 13.98.32 28.14-4.08 41.76-3.83 11.87-17.18 16.68-27.39 10.36-5.7-3.53-6.16-7.52-.67-11.14 13.64-9.01 21.73-21.72 25.59-37.29.92-3.76 2.46-5.12 6.55-3.69z" fill="#010104"/><path d="m111.37 366.13c-.93-3.37-1.74-6.78-2.82-10.11-4.77-14.79-9.56-29.57-14.47-44.31-1.26-3.77-1.46-3.7 2.23-7.22 8.94 9.75 18.6 18.92 26.57 29.39 6.79 8.92 5.34 15.66-2.04 24.28-2.47 2.89-4.83 5.87-7.25 8.81-.74-.29-1.48-.56-2.22-.84z" fill="#010104"/></svg>