<svg enable-background="new 0 0 400 400" viewBox="0 0 400 400" xmlns="http://www.w3.org/2000/svg"><path d="m6.4 11.7c-1-.8-1.9-1.6-2.9-2.3l.6-.7c.9.7 1.9 1.4 2.9 2.2zm-2.1 8.3c.7-2.1 1.4-4.2 2-6.4.2.1.6.3 1 .4-.7 2.3-1.3 4.4-1.9 6.4zm3-12.8c-1.1-.9-2.1-1.7-2.9-2.4l.6-.7c1 .8 2 1.5 3 2.4zm1.4-1.3v-.9h10.2v.9c-.9 4.2-2.3 7.3-4.1 9.4 1.3 1.4 3.2 2.7 5.7 4-.2.2-.4.5-.7.9-2.5-1.4-4.4-2.7-5.7-4.2-1.4 1.5-3.5 3-6.1 4.4 0 0 0 0-.1-.1-.3-.4-.5-.7-.7-.8 2.7-1.3 4.7-2.8 6.2-4.2-1.8-2.2-3-5.3-3.7-9.4zm9.2 0h-7.1c.6 3.8 1.7 6.7 3.4 8.7 1.7-2.1 2.9-4.8 3.7-8.7z" fill="#fcfbfa"/><path d="m31.6 3.6h.9v2.3h4.1v9.1h1.7v.9h-16.6v-.9h1.7v-9.1h4.1v-2.3h.9v2.3h3.1v-2.3zm-4 13.3.6.8c-1.9.9-3.8 1.9-5.8 2.8-.2-.3-.3-.6-.5-.9 2-.9 3.9-1.8 5.7-2.7zm-3.2-10.1v3.7h3.1v-3.7zm0 4.5v3.7h3.1v-3.7zm4.1-4.5v3.7h3.1v-3.7zm0 4.5v3.7h3.1v-3.7zm9.1 9.1c-2.1-1.1-4.1-2-5.8-2.7l.5-.8c2.2.9 4.1 1.8 5.8 2.6zm-1.9-13.6h-3.1v3.7h3.1zm-3.2 4.5v3.7h3.1v-3.7z" fill="#fcfbfa"/><g fill="#010105"><path d="m298.15 368.28c0-5.29 0-9.88 0-14.88-41.36 0-82.41 0-124.14 0 2.32 6.91-3.28 8.09-7.58 10.25-3.83 1.92-7.73 3.72-11.64 5.59 0-40.93 0-81.54 0-121.65-17.74 7.8-35.75 15.71-53.42 23.48-3.16-3.13-2.38-4.51.38-5.89 24.38-12.16 47.02-27.01 67.55-44.92 10.22-8.91 19.9-18.44 29.83-27.69-.28-.52-.55-1.04-.83-1.56-3.58 0-7.16-.04-10.73.01-17.93.23-35.99-1.35-53.61 3.67-.88.25-2.34-.21-3.05-.86-3.5-3.25-6.84-6.68-11.3-11.1h66.58c-4.72-16.54-14.6-28.65-26-39.77.45-.84.7-1.44 1.06-1.96.46-.67 1-1.29 2-2.54 9.76 4.46 19.4 9.3 29.37 13.31 10.16 4.09 11.37 19.1 5.58 25.95-1.07 1.26-1.97 2.66-3.3 4.49h33.19c0-17.77 0-35.63 0-53.93-5.64.33-11.22.71-16.81.97-22.1 1.01-44.19 2-66.29 2.96-4.27.19-4.27.11-4.95-4.82 57.73-6.97 116.13-10.55 171.57-33 2.39 3.36 5.18 7.24 7.93 11.15 2.75 3.9 5.47 7.83 8.45 12.1-7.55.48-14.64.63-21.65 1.43-19.3 2.21-38.57 4.64-57.82 7.21-1.16.15-2.96 2.19-2.97 3.37-.19 17.32-.13 34.64-.13 52.79 5.33 0 10.45.37 15.45-.23 1.5-.18 3.04-2.87 3.95-4.71 7.57-15.32 15-30.71 22.78-46.69 7.94 5 16.69 10.51 26.09 16.44-17.95 7.91-30.77 21.09-44.75 34.8 2.38.25 3.7.51 5.03.51 15.5.03 31 .14 46.5-.12 2.33-.04 5.08-1.36 6.85-2.96 4.43-4 8.42-8.5 12.88-13.11 7.69 8.15 14.96 15.85 22.95 24.31-36.38 0-71.86 0-107.35 0 15.48 15.02 32.98 26.43 52.14 35.29 19.2 8.89 39.43 13.79 61.62 16.01-1.07 1.19-1.91 3-3.23 3.46-8.54 2.96-15.49 7.62-19.09 17.11-10.05-4.03-19.81-7.95-30.35-12.17 4.06 3.74 7.54 6.94 11.15 10.27-.74.5-1.24 1.03-1.84 1.2-7.81 2.17-9.71 7.13-9.41 15.12.81 21.14.47 42.31.67 63.48.05 4.98.54 9.97.57 14.95.01 1.24-.69 3.11-1.64 3.63-5.83 3.17-11.8 6.03-18.24 9.25zm-52.06-177.37c-.34 1.28-.65 1.89-.64 2.49.34 13.47.75 26.93 1.02 40.4.03 1.41-.28 3.57-1.21 4.14-5.74 3.56-11.71 6.77-17.48 10.03 0-19.11 0-37.87 0-55.61-21.6 16.86-43.67 34.08-65.91 51.44 1.42 1.13 3.53 2.46 5.21 4.21 4.64 4.79 10.19 5.76 16.69 5.71 34.97-.27 69.94-.42 104.91.09 8.13.12 12.26-3.93 16.7-9.59-22.9-14.29-42.42-31.92-59.29-53.31zm-71.8 153.32h53.9c0-12.9 0-25.43 0-37.94-18.16 0-35.92 0-53.9 0zm71.4-.03h51.92c0-12.94 0-25.48 0-37.96-17.48 0-34.56 0-51.92 0zm-71.48-47.05h54.08c0-11.88 0-23.31 0-34.77-18.19 0-36.07 0-54.08 0zm71.5.14h51.98c0-11.85 0-23.4 0-34.93-17.5 0-34.68 0-51.98 0z"/><path d="m236.47 30.14c9.93 4.52 19.82 9.03 31.29 14.25-11.56 4.32-16.56 11.2-12.71 22.91.96.07 2.55.27 4.14.28 19.32.02 38.65.13 57.97-.12 2.47-.03 5.39-1.42 7.28-3.1 4.94-4.39 9.42-9.3 14.39-14.31 8.11 8.57 15.85 16.74 24.38 25.76-36.81 0-72.61 0-109.03 0 0 6.41-.13 12.19.06 17.96.09 2.8-.64 4.63-3.24 5.98-4.41 2.29-8.65 4.9-13.72 7.8 0-10.69 0-20.84 0-31.25-27.59 0-54.51 0-82.21 0 0 5.67-.48 11.47.13 17.16.62 5.77-1.49 8.87-6.78 10.71-3.39 1.18-6.52 3.1-10.29 4.94 0-11.11 0-21.68 0-32.64-1.58-.18-2.83-.44-4.08-.44-18.82-.03-37.65-.33-56.47.14-8.41.21-16.76 2.13-25.18 2.92-1.92.18-4.38-.56-5.89-1.75-3.21-2.53-5.97-5.64-8.47-9.67h99.36c0-13.26 0-25.8 0-38.94 9.93 4.96 19.67 9.83 30.02 15.01-1.55 1.1-2.46 2.13-3.59 2.48-7.63 2.37-10.13 7.56-8.82 15.14.31 1.77.05 3.63.05 5.83h81.4c.01-12.26.01-24.34.01-37.05z"/><path d="m33.84 271.66c-.62-3.99 1.23-5.01 5.16-4.61 7.09.73 14.22 1.23 21.35 1.37 4.75.09 8.33-2.9 10.36-6.83 5.65-10.88 11.83-21.63 16.07-33.07 11.53-31.12 22.17-62.57 33.17-93.89.65-1.85 1.35-3.68 2.16-5.87 1.81.54 3.32.99 5.21 1.55-4.58 15.53-9.11 30.75-13.57 45.99-8.67 29.6-17.49 59.16-25.89 88.84-5.05 17.86-4.61 36.16-2.96 54.46.85 9.43 1.87 18.86 2.16 28.31.27 8.79-3.81 11.43-12.43 9.49-12.89-2.9-14.95-8.74-13.3-23.83 1.33-12.2 3.05-24.35 4.61-36.52 1.05-8.2-3.22-13.5-10.02-16.69-7.01-3.28-14.41-5.72-22.08-8.7z"/><path d="m32.58 158.9c2.2.32 4.83-.02 6.53 1.08 8.63 5.57 17.24 11.24 25.45 17.41 11.57 8.7 11.47 25.96-.03 34.83-.92.71-3.24-.15-4.81-.62-.56-.17-.94-1.33-1.18-2.1-5.63-17.96-15.65-33.55-26.53-48.68.19-.65.38-1.28.57-1.92z"/><path d="m57.15 98c2.2.13 4.82-.47 6.55.51 9.79 5.56 19.79 10.9 28.9 17.46 10.59 7.63 11.1 12.45 4.09 23.47-2.12 3.34-5.45 5.91-8.22 8.83-1.93-3.27-3.76-6.6-5.8-9.8-7.12-11.16-14.28-22.29-21.49-33.39-1.25-1.93-2.82-3.66-4.24-5.48.06-.53.14-1.07.21-1.6z"/></g></svg>