<svg enable-background="new 0 0 400 400" viewBox="0 0 400 400" xmlns="http://www.w3.org/2000/svg"><g fill="#fcfbfa"><path d="m37.59 393.81c-.92.31-1.52.05-2-.78-.7-1.2-1.52-2.34-2.47-3.78v4.59c-.55.03-.95.05-1.41.07-.03-.37-.06-.64-.06-.91 0-1.91 0-3.81 0-5.7 1.13-.41 1.77-.03 2.29.91.62 1.11 1.38 2.14 2.31 3.19v-4.2h1.35v6.61z"/><path d="m12.94 393.88v-6.75c1.9.19 3.93-.54 5.37 1.29.8 1.01.78 2.88.03 3.97-1.37 1.97-3.4 1.51-6.4 1.49m2.45-1.22c2.04.12 2.92-.58 2.89-2.21-.03-1.51-.98-2.19-2.89-2z"/><path d="m11.81 393.87h-5.49c.68-2.18 2.47-3.48 3.51-5.45h-3.08v-1.21h5.29c-.71 2.13-2.44 3.48-3.47 5.51.86 0 1.63.04 2.39-.01.79-.05 1.14.21.85 1.16"/><path d="m39.33 393.86v-6.61h3.7v1.07h-2.22v1.52c.68.04 1.34.09 2.07.13v1.07c-.72.05-1.38.09-2.1.14v1.48h2.4v1.19h-3.85z"/><path d="m27.71 388.56c-1.15-.3-2.46-.61-3.1.64-.37.73-.41 1.93-.06 2.67.63 1.35 1.99.93 3.17.68.35.94-.01 1.32-.93 1.46-1.62.25-3.05-.27-3.76-1.48-.73-1.24-.6-3.03.31-4.17.88-1.11 2.71-1.7 4-1.16.32.13.44.74.65 1.12-.1.08-.19.16-.28.24"/><path d="m49.15 387.24v1.07c-.59.02-1.17.05-1.87.08v5.44h-1.48v-5.44h-1.85c-.05-.4-.08-.73-.13-1.15z"/><path d="m20.06 387.21h1.33v6.62h-1.33z"/><path d="m30.68 393.25c-.39.38-.8.79-1.05.76-.32-.05-.6-.45-.9-.7.26-.24.51-.64.8-.67.29-.04.62.3 1.15.61"/></g><path d="m60.41 243.23c0 5.23.28 10.06-.14 14.83-.17 1.95-1.4 4.41-2.95 5.51-4.68 3.32-9.74 6.08-15.14 9.34.48-27.72 1.29-54.63 1.31-81.53.02-26.76-.74-53.53-1.19-81.88 13.55 11.99 28.99 14.16 45.5 11.42 0-27.97 0-56.17 0-84.99 9.96 6.33 20.07 12.76 30.49 19.38-1.22.93-2 1.83-2.99 2.24-8.36 3.49-10.72 9.56-10.12 18.52.87 13.1.23 26.31.23 39.47v6.01c8.67 0 16.78.12 24.88-.12 1.33-.04 2.86-1.48 3.87-2.65 3.14-3.66 6.08-7.49 9.27-11.48 6.29 6.78 12.46 13.43 18.9 20.36-1.4.92-3.68 2.79-6.27 4.02-3.22 1.53-3.97 3.79-3.94 7.16.21 23.49.14 46.98.34 70.47.09 10.81.47 21.63.92 32.43.12 2.79-.41 4.68-3 6.15-4.91 2.77-9.65 5.85-15.12 9.2 0-4.81 0-9.15 0-13.79-10.14 0-19.69 0-29.44 0v62.75c12.83-2.99 25.17-5.86 38.24-8.91-6.45-9.99-12.53-19.42-18.66-28.91 2-2.5 3.75-3.24 6.31-.96 9.93 8.86 20.02 17.55 29.93 26.44 2.08 1.87 3.75 4.24 5.4 6.53 8.06 11.21 6.14 24.53-4.72 33.22-2.91 2.33-4.65 1.59-6.34-2.89-2.74-7.3-5.4-14.63-8.11-21.95-.28-.77-.68-1.49-1.27-2.76-2.34.73-4.67 1.37-6.94 2.17-24.73 8.73-49.51 17.3-74.13 26.34-8.27 3.04-16.22 7.11-21.11 15.9-5.17-9.4-10.16-18.49-15.29-27.83 14.49-2.87 28.72-5.68 42.94-8.51.97-.19 1.93-.45 2.9-.68 4.34-1.03 10.62-.72 12.51-3.45 2.3-3.34 1.08-9.22 1.1-14.01.08-15.66.03-31.32.03-46.99 0-1.79 0-3.58 0-5.6-9.55.03-18.5.03-28.2.03zm45.44-113.02v104.09h28.87c0-34.82 0-69.35 0-104.09-9.71 0-19.15 0-28.87 0zm-45.02 0v104.06h27.45c0-34.83 0-69.34 0-104.06-9.24 0-18.18 0-27.45 0z" fill="#010104"/><path d="m311.2 148.62c7.23 6.03 15.27 12.73 23.71 19.77-21.12 5.22-37.48 18.91-55.91 28.65-21.58 11.41-43.63 21.95-64.1 32.18h105.76c.3-.48.61-.97.91-1.45-7.49-9.82-14.99-19.63-23.24-30.44 2.42-.29 4.81-1.37 5.97-.6 11.32 7.56 22.45 15.41 33.58 23.25 1.2.84 2.06 2.17 3.1 3.25 11.66 12.21 5.16 22.77-3.44 31.1-2.69 2.61-5.1 1.67-6.61-2.35-1.63-4.34-3.02-8.78-4.42-13.21-1.09-3.46-2.63-4.6-6.83-4.08-17.98 2.18-36.08 3.31-54.06 5.48-21.74 2.62-43.42 5.76-65.08 9.02-4.5.68-8.77 2.87-13.46 4.47-3.44-7.78-7.03-15.92-10.91-24.69 18.66 1.02 33.45-7.58 48.25-15.79 15.41-8.55 30.51-17.66 45.73-26.54 1.22-.71 2.36-1.58 3.38-2.77-28.42 3.44-57.07 5.13-85.03 14.54-3.88-7.31-7.96-14.99-11.85-22.32 30.8-5.41 50.71-24.47 66.79-49.77 7.35 6.46 14.89 13.08 23.13 20.31-24.71 3.85-41.98 21.11-63.12 31.19 9.19 0 18.39.12 27.58-.03 14.14-.22 28.28-.72 42.42-.9 4.65-.06 8.82-.69 12.35-4.11 8.21-7.96 16.55-15.76 25.4-24.16z" fill="#010104"/><path d="m139.29 372.6c-.97-2.08-1.66-3.57-2.38-5.12 32.54-11.79 62.07-27.88 84.47-54.84 7.02-8.44 12.58-17.8 17.21-28.89-22.35 1.48-44.04-2.45-65.3 3.32-3.69 1-6.1.29-8.58-2.55-2.37-2.71-5.37-4.88-8.09-7.29.21-.46.42-.93.63-1.39 1.7-.08 3.41-.23 5.11-.23 24.16-.02 48.32-.11 72.47.08 4.24.03 5.9-1.19 6.2-5.47.56-8.1 1.63-16.16 2.55-24.86 9.29 4.4 18.63 8.83 28.7 13.61-6.66 3.91-11.47 8.37-12.08 16.35 1.82.1 3.42.27 5.02.27 17.66.02 35.32.15 52.98-.13 2.83-.05 6.06-1.46 8.37-3.21 5.69-4.31 10.95-9.19 16.72-14.13 8.88 8.4 17.63 16.68 27.22 25.76-32.82 0-64.62 0-97.46 0 23.88 36.47 55.06 59.39 98.53 63.1 1.24 3.67.72 5.65-3.5 6.36-3.53.6-6.95 2.14-10.3 3.55-5.45 2.29-8.93 6.22-9.07 12.74-14.9-5.54-27.69-13.77-39.07-24.21-17.29-15.84-30.31-34.86-40.46-55.83-2.43-5.03-5.24-6.73-10.7-5.1-5.26 15.37-13 29.78-25.42 40.75-8.4 7.42-17.6 14.52-27.6 19.39-19.96 9.71-40.7 17.81-61.14 26.53-1.48.63-3.12.9-5.03 1.44z" fill="#010104"/><path d="m333.25 35.46c7.96 8.94 15.55 17.46 23.12 25.96-61.17 4.72-121.87 9.4-182.98 14.11-.61-2.12-1.13-3.96-1.88-6.55 5.44-.7 10.45-1.42 15.48-1.98 36.77-4.12 73.43-8.97 109.55-17.13 12.78-2.89 25.4-6.48 36.71-14.41z" fill="#010104"/><path d="m291.89 143.97c7.17-11.23 14.81-21.79 20.94-33.16 6.03-11.19 10.52-23.2 15.81-35.14 7.6 5.56 16.22 11.87 25.53 18.67-9.81 2.38-15.72 8.64-21.8 15.11-11.27 11.99-23.22 23.35-34.82 35.04-2.3 2.32-3.97 1.64-5.66-.52z" fill="#010104"/><path d="m179.16 90.62c2.44-3.03 4.82-2.77 7.77-.74 7.94 5.45 16.58 10 23.99 16.07 14.92 12.22 14.71 17.77.9 32.96-2.31 2.54-4.3 2.07-6.13-.36-.89-1.18-1.77-2.5-2.16-3.89-4.68-16.64-14.2-30.59-24.37-44.04z" fill="#010104"/><path d="m239.58 82.12c3.26 0 5.82-.8 7.31.13 9.56 5.96 19.14 11.96 28.24 18.58 11.74 8.55 9.68 24.52-3.78 30.52-1.1.49-4.54-1.23-4.85-2.44-4.51-17.53-15.58-31.26-26.92-46.79z" fill="#010104"/></svg>