<svg enable-background="new 0 0 400 400" viewBox="0 0 400 400" xmlns="http://www.w3.org/2000/svg"><path d="m6.4 11.7c-1-.8-1.9-1.6-2.9-2.3l.6-.7c.9.7 1.9 1.4 2.9 2.2zm-2.1 8.3c.7-2.1 1.4-4.2 2-6.4.2.1.6.3 1 .4-.7 2.3-1.3 4.4-1.9 6.4zm3-12.8c-1.1-.9-2.1-1.7-2.9-2.4l.6-.7c1 .8 2 1.5 3 2.4zm1.4-1.3v-.9h10.2v.9c-.9 4.2-2.3 7.3-4.1 9.4 1.3 1.4 3.2 2.7 5.7 4-.2.2-.4.5-.7.9-2.5-1.4-4.4-2.7-5.7-4.2-1.4 1.5-3.5 3-6.1 4.4 0 0 0 0-.1-.1-.3-.4-.5-.7-.7-.8 2.7-1.3 4.7-2.8 6.2-4.2-1.8-2.2-3-5.3-3.7-9.4zm9.2 0h-7.1c.6 3.8 1.7 6.7 3.4 8.7 1.7-2.1 2.9-4.8 3.7-8.7z" fill="#fcfbfa"/><path d="m31.6 3.6h.9v2.3h4.1v9.1h1.7v.9h-16.6v-.9h1.7v-9.1h4.1v-2.3h.9v2.3h3.1v-2.3zm-4 13.3.6.8c-1.9.9-3.8 1.9-5.8 2.8-.2-.3-.3-.6-.5-.9 2-.9 3.9-1.8 5.7-2.7zm-3.2-10.1v3.7h3.1v-3.7zm0 4.5v3.7h3.1v-3.7zm4.1-4.5v3.7h3.1v-3.7zm0 4.5v3.7h3.1v-3.7zm9.1 9.1c-2.1-1.1-4.1-2-5.8-2.7l.5-.8c2.2.9 4.1 1.8 5.8 2.6zm-1.9-13.6h-3.1v3.7h3.1zm-3.2 4.5v3.7h3.1v-3.7z" fill="#fcfbfa"/><g fill="#010105"><path d="m80.79 118.73c0-16.97 0-34.08 0-51.5-11.33-.65-22.43-.63-33.21 2.54-4.44 1.31-7.43.5-10.27-3.05-2.02-2.53-4.66-4.57-7.03-6.83.18-.43.36-.87.55-1.3h5.18c34.66 0 69.31-.05 103.97.07 3.61.01 6.33-.79 8.75-3.58 3.26-3.77 6.89-7.23 10.77-11.24 7.15 7.62 14.01 14.91 21.55 22.95-17.79 0-34.52 0-51.65 0v52.77c5.65 0 11.43.17 17.18-.13 1.3-.07 2.73-1.64 3.73-2.83 2.22-2.64 4.2-5.48 6.56-8.6 6.26 4.8 12.15 9.33 17.95 13.77-.15.61-.13 1.05-.31 1.15-8.04 4.55-9.67 11.44-9.54 20.39.56 39.31.26 78.63.48 117.95.15 26.97.16 53.95 1.27 80.89.3 7.43-1.94 10.77-8.23 12.96-2.77.96-5.33 2.51-8.54 4.05 0-9.52 0-18.43 0-27.75-30.29 0-60.18 0-90.88 0 0 7.02-.21 14.28.09 21.52.16 3.82-.75 6.14-4.58 7.56-4.11 1.53-7.94 3.81-11.81 5.71 0-85.95 0-171.44 0-258.03 10.61 10.26 23.17 14.1 38.02 10.56zm14.59 9.5c.81 41.58-3.09 81.34-32.26 114.14-.72-1.75-1.19-3.63-.63-5.12 1.97-5.28 4.5-10.35 6.45-15.64 7.64-20.77 10.66-42.45 11.82-64.4.51-9.58.08-19.2.08-28.82-7.46 0-14.5 0-21.52 0v131.7h90.15c0-12.25 0-24 0-36.09-4.66 0-8.97.11-13.27-.02-14.26-.44-20.93-7.04-21.58-21.25-.07-1.5-.03-3-.03-4.5.08-21.82.16-43.63.22-65.45 0-1.45-.17-2.9-.28-4.55-6.4 0-12.49 0-19.15 0zm-36.16 193.97h90.34c0-17.82 0-35.25 0-52.77-30.29 0-60.3 0-90.34 0zm90.24-111.49c0-27.73 0-55.07 0-82.41-6.94 0-13.52 0-20.21 0-.1.92-.22 1.56-.22 2.2-.01 22.62-.07 45.23.03 67.85.03 8.29 4.16 13 11.2 13.05 2.94.03 5.91-.43 9.2-.69zm-35.02-91.42c0-17.65 0-34.83 0-51.87-6.6 0-12.81 0-18.96 0v51.87z"/><path d="m327.46 36.25c6.36 6.38 12.8 12.84 19.06 19.13-23.02 1.62-46.42 3.26-70.11 4.92v34.29h6.77c12.83 0 25.66.14 38.49-.13 2.34-.05 5.11-1.27 6.87-2.85 4.45-3.99 8.45-8.5 13.04-13.23 7.23 8.15 14.14 15.94 21.73 24.5-29.47 0-58.12 0-87.01 0v26.7h13.4c9.33 0 18.67-.14 27.99.07 3.65.08 6.29-.65 8.32-4.02 1.87-3.1 4.48-5.75 7.17-9.1 6.59 5.19 13.01 10.24 19.7 15.51-1.12.99-1.74 1.84-2.58 2.24-7.8 3.77-9.6 9.98-9.08 18.3.94 15.1.74 30.27 1.2 45.41.34 11.45.47 11.45-10.39 15.92-1.8.74-3.63 1.43-5.86 2.31-.17-2.85-.32-5.26-.48-7.94-16.43 0-32.68 0-49.29 0v26.23c9.9 0 19.69.13 29.47-.13 1.55-.04 3.15-1.68 4.55-2.81 4.63-3.77 9.17-7.64 13.89-11.59 7.08 7.57 13.86 14.81 21.46 22.93-23.83 0-46.51 0-69.45 0v31.1c.93.18 1.88.53 2.82.54 16.5.04 32.99.11 49.49-.07 1.93-.02 4.16-1.09 5.73-2.33 5.35-4.23 10.46-8.75 16.16-13.58 7 7.9 13.88 15.66 21.64 24.42-2.76 0-4.47 0-6.18 0-51.49.02-102.98-.11-154.47.21-8.9.05-17.77 2.12-26.69 2.93-1.92.18-4.32-.56-5.88-1.72-3.31-2.45-6.2-5.46-9.27-8.23.22-.45.43-.9.65-1.34h89.85c0-10.89 0-21.1 0-31.84-16.18.37-32.33-1.55-48.11 3.12-3.05.9-5.2.54-7.37-2-2.55-2.97-5.62-5.48-8.47-8.19.2-.42.41-.83.61-1.25h63.4c0-9.2 0-17.75 0-26.47-16.06 0-31.83 0-48.32 0 2.31 7.11-2.76 8.09-7.45 9.47-3.01.88-5.98 1.87-8.99 2.82 0-33.59 0-66.83 0-100.64 4.43 2.56 8.71 5.31 13.26 7.54 2.43 1.19 5.29 2.05 7.97 2.09 14.32.2 28.64.09 43.42.09 0-8.85 0-17.39 0-26.34-1.56-.08-3.16-.24-4.76-.24-11.33-.02-22.68-.43-33.99.11-9.73.46-19.4 2.14-29.13 2.98-1.94.17-4.4-.49-5.92-1.68-3.23-2.53-5.99-5.65-10.04-9.6h83.89c0-11.2 0-21.72 0-32.54-22.15 1.4-43.99 2.78-66.18 4.18-.16-1.96-.27-3.37-.39-4.95 45.19-6.23 90.97-7.9 133.86-25.25zm-51.18 101.91v61.06h49.25c0-20.59 0-40.8 0-61.06-16.52 0-32.65 0-49.25 0zm-63.98.09v60.93h48.02c0-20.5 0-40.59 0-60.93-16.04 0-31.79 0-48.02 0z"/><path d="m321.7 300.21c2.99.52 5.55.21 6.97 1.34 7.94 6.3 15.99 12.55 23.28 19.56 11.56 11.11 11.27 26.71-.02 37.97-4.58 4.56-7.14 3.94-8.81-2.31-2.01-7.52-3.14-15.36-5.95-22.55-4.28-10.93-9.67-21.42-15.47-34.01z"/><path d="m208.9 304.49c1.26 14.4 2 28.77-.66 43.16-2.09 11.28-14.69 17.27-26.16 12.48-1.51-.63-3.04-3.64-2.85-5.35.28-2.46 1.66-5.18 3.38-7.02 10.78-11.47 16.85-25.34 21.39-40.11.51-1.66 2.19-2.96 3.33-4.43.53.42 1.05.85 1.57 1.27z"/><path d="m277.6 302.36c3.01.68 5.2.51 6.33 1.53 8.03 7.19 16.46 14.08 23.56 22.13 9.1 10.32 7.79 21.1-2.51 30.16-1.61 1.42-4.39 3.17-5.84 2.63-1.54-.57-2.41-3.59-3.11-5.7-4.22-12.71-8.2-25.49-12.52-38.17-1.31-3.85-3.46-7.43-5.91-12.58z"/><path d="m232.46 304.03c1.68.51 3.81.5 4.77 1.55 6.92 7.58 14 15.08 20.17 23.25 2.64 3.49 4.03 8.43 4.57 12.89 1.05 8.68-4.15 15.96-12.4 18.83-3.67 1.28-4.97-1.54-5.49-4.04-.89-4.35-.66-8.94-1.68-13.24-2.99-12.68-6.37-25.26-9.94-39.24z"/><path d="m282.19 193.67c6.26-16.31 12.34-32.18 18.65-48.63 5.73 4.09 11.97 8.54 18.68 13.32-15.04 6.97-20.21 22.53-31.13 32.73-1.96 1.82-3.35 4.35-6.2 2.58z"/><path d="m223.45 146.92c7.3 5.61 15.54 11.05 22.7 17.65 10.71 9.87 6.48 19.98-3.36 27.64-2.94 2.29-4.73-.04-5.61-2.51-1.38-3.89-1.88-8.14-3.55-11.88-3.78-8.47-7.94-16.78-12.16-25.05-1.24-2.4-2.06-4.23 1.98-5.85z"/></g></svg>