<svg enable-background="new 0 0 400 400" viewBox="0 0 400 400" xmlns="http://www.w3.org/2000/svg"><g fill="#fcfbfa"><path d="m37.59 393.81c-.92.31-1.52.05-2-.78-.7-1.2-1.52-2.34-2.47-3.78v4.59c-.55.03-.95.05-1.41.07-.03-.37-.06-.64-.06-.91 0-1.91 0-3.81 0-5.7 1.13-.41 1.77-.03 2.29.91.62 1.11 1.38 2.14 2.31 3.19v-4.2h1.35v6.61z"/><path d="m12.94 393.88v-6.75c1.9.19 3.93-.54 5.37 1.29.8 1.01.78 2.88.03 3.97-1.37 1.97-3.4 1.51-6.4 1.49m2.45-1.22c2.04.12 2.92-.58 2.89-2.21-.03-1.51-.98-2.19-2.89-2z"/><path d="m11.81 393.87h-5.49c.68-2.18 2.47-3.48 3.51-5.45h-3.08v-1.21h5.29c-.71 2.13-2.44 3.48-3.47 5.51.86 0 1.63.04 2.39-.01.79-.05 1.14.21.85 1.16"/><path d="m39.33 393.86v-6.61h3.7v1.07h-2.22v1.52c.68.04 1.34.09 2.07.13v1.07c-.72.05-1.38.09-2.1.14v1.48h2.4v1.19h-3.85z"/><path d="m27.71 388.56c-1.15-.3-2.46-.61-3.1.64-.37.73-.41 1.93-.06 2.67.63 1.35 1.99.93 3.17.68.35.94-.01 1.32-.93 1.46-1.62.25-3.05-.27-3.76-1.48-.73-1.24-.6-3.03.31-4.17.88-1.11 2.71-1.7 4-1.16.32.13.44.74.65 1.12-.1.08-.19.16-.28.24"/><path d="m49.15 387.24v1.07c-.59.02-1.17.05-1.87.08v5.44h-1.48v-5.44h-1.85c-.05-.4-.08-.73-.13-1.15z"/><path d="m20.06 387.21h1.33v6.62h-1.33z"/><path d="m30.68 393.25c-.39.38-.8.79-1.05.76-.32-.05-.6-.45-.9-.7.26-.24.51-.64.8-.67.29-.04.62.3 1.15.61"/></g><path d="m213.79 63.88c6.75 3.6 12.5 6.86 18.43 9.73 2.3 1.11 5.02 1.89 7.56 1.9 27.32.13 54.65.15 81.97-.05 2.31-.02 5.11-1.32 6.81-2.93 4.56-4.34 8.65-9.18 13.43-14.38 8.14 8.59 16.06 16.95 24.21 25.54-1.72.83-3.02 1.55-4.38 2.12-9.75 4.01-9.75 4-9.75 14.67 0 73.64-.39 147.28.28 220.91.17 18.47-7.61 31-21.68 41.06-2.3 1.64-4.69 3.15-7.07 4.67-.53.34-1.2.47-2.53.96-10.27-22.38-31.19-28.19-53.03-32.96.49-1.98.87-3.5 1.33-5.37 7.93.81 15.66 1.68 23.4 2.35 8.11.71 16.22 1.52 24.35 1.75 10.48.3 16.04-4.15 16.25-14.54.48-24.31.12-48.64.08-72.96 0-.3-.26-.59-.51-1.12-33.3 0-66.7 0-100.4 0-8.28 50.13-32.96 90.74-71 124.29-1.41-1.34-2.66-2.53-3.74-3.55 6.76-9.31 13.63-18.09 19.75-27.36 19.35-29.32 31.31-61.49 35.36-96.39 1.55-13.34 2.3-26.82 2.58-40.25.42-20.32.24-40.65.07-60.97-.17-21.14-.61-42.28-.99-63.41-.09-4.24-.48-8.47-.78-13.71zm119.51 100.52c-33.27 0-66.13 0-98.93 0-.53 24.11-1.04 47.82-1.57 71.85h100.5c0-24.07 0-47.8 0-71.85zm-98.99-9.22h99.01c0-23.83 0-47.26 0-70.84-33.15 0-66.03 0-99.01 0z" fill="#010104"/><path d="m109.92 220.11c-14.27-.16-28.45-1.06-42.24 3.06-2.97.89-4.89.29-6.91-1.99-2.6-2.95-5.62-5.53-7.96-9.42h57.39c0-18.88 0-37.09 0-56.55-7.33 1.23-14.38 2-21.2 3.71-3.81.96-6.19.43-8.44-2.65-1.94-2.66-4.25-5.06-7.08-8.37 2.41-.13 4.09-.3 5.78-.3 18.33-.02 36.66-.12 54.99.08 3.89.04 6.55-1.1 8.97-4.09 3.23-3.99 6.88-7.63 10.8-11.93 6.61 7.98 13 15.7 19.98 24.12-15.32 0-29.72 0-44.52 0v55.77c6.17 0 12.46.16 18.73-.12 1.39-.06 2.92-1.44 4.03-2.56 4.78-4.84 9.44-9.81 14.53-15.15 8.41 8.9 16.21 17.15 24.69 26.12-21.21 0-41.43 0-62.02 0v93.52c20.59-4.27 41.1-8.52 62.12-12.88.56 2.22 1.05 4.2 1.68 6.69-9.01 2.69-17.71 5.27-26.4 7.9-24.29 7.36-48.58 14.74-72.86 22.13-12.22 3.72-23.84 8.52-33.04 19.39-3.92-10.24-7.53-19.71-11.1-29.05 14.96-2.6 29.49-5.08 44-7.67 4.57-.82 9.14-1.75 13.6-3.05 1.27-.37 3.02-2.17 3.02-3.33.13-30.66.06-61.32.01-91.98-.01-.3-.24-.6-.55-1.4z" fill="#010104"/><path d="m112 33.34c11.06 4.32 21.51 8.4 31.94 12.48-6.21 6.76-12.17 13.25-18.51 20.16 12.87 5.26 24.69 9.67 36.11 14.92 6.85 3.15 13.79 6.81 19.46 11.67 7.77 6.67 8.31 24.8 2.17 32.87-2.05 2.69-4.39 2.4-6.35.33-3.19-3.36-6.43-6.79-8.97-10.64-11.66-17.63-27.33-31.18-44.33-44.48-22.91 39.67-48.53 76.85-84.39 106.19-1.43-1.31-2.61-2.4-4.26-3.91 35.98-40.78 61.93-87 77.13-139.59z" fill="#010104"/><path d="m144.35 303.08c-2.18-1.59-3.23-2.36-3.62-2.65 7.74-22.84 15.34-45.24 23.02-67.9 7.9 4.81 15.97 9.72 23.27 14.17-14.14 18.69-28.26 37.34-42.67 56.38z" fill="#010104"/><path d="m95.6 282.86c-.87 12.21-6.68 18.22-13.61 23.4-2.6 1.95-4.56.34-5.34-2.18-1.12-3.62-2.3-7.35-2.55-11.09-1.06-16.23-5.84-31.51-11.21-46.69-.58-1.64-.76-4.41.18-5.42 2.52-2.69 4.1.41 5.45 1.94 6.69 7.59 13.86 14.87 19.58 23.14 3.92 5.66 5.75 12.78 7.5 16.9z" fill="#010104"/></svg>