<svg enable-background="new 0 0 400 400" viewBox="0 0 400 400" xmlns="http://www.w3.org/2000/svg"><g fill="#fcfbfa"><path d="m37.59 393.81c-.92.31-1.52.05-2-.78-.7-1.2-1.52-2.34-2.47-3.78v4.59c-.55.03-.95.05-1.41.07-.03-.37-.06-.64-.06-.91 0-1.91 0-3.81 0-5.7 1.13-.41 1.77-.03 2.29.91.62 1.11 1.38 2.14 2.31 3.19v-4.2h1.35v6.61z"/><path d="m12.94 393.88v-6.75c1.9.19 3.93-.54 5.37 1.29.8 1.01.78 2.88.03 3.97-1.37 1.97-3.4 1.51-6.4 1.49m2.45-1.22c2.04.12 2.92-.58 2.89-2.21-.03-1.51-.98-2.19-2.89-2z"/><path d="m11.81 393.87h-5.49c.68-2.18 2.47-3.48 3.51-5.45h-3.08v-1.21h5.29c-.71 2.13-2.44 3.48-3.47 5.51.86 0 1.63.04 2.39-.01.79-.05 1.14.21.85 1.16"/><path d="m39.33 393.86v-6.61h3.7v1.07h-2.22v1.52c.68.04 1.34.09 2.07.13v1.07c-.72.05-1.38.09-2.1.14v1.48h2.4v1.19h-3.85z"/><path d="m27.71 388.56c-1.15-.3-2.46-.61-3.1.64-.37.73-.41 1.93-.06 2.67.63 1.35 1.99.93 3.17.68.35.94-.01 1.32-.93 1.46-1.62.25-3.05-.27-3.76-1.48-.73-1.24-.6-3.03.31-4.17.88-1.11 2.71-1.7 4-1.16.32.13.44.74.65 1.12-.1.08-.19.16-.28.24"/><path d="m49.15 387.24v1.07c-.59.02-1.17.05-1.87.08v5.44h-1.48v-5.44h-1.85c-.05-.4-.08-.73-.13-1.15z"/><path d="m20.06 387.21h1.33v6.62h-1.33z"/><path d="m30.68 393.25c-.39.38-.8.79-1.05.76-.32-.05-.6-.45-.9-.7.26-.24.51-.64.8-.67.29-.04.62.3 1.15.61"/></g><path d="m370.06 344c-1.61 0-3.41 0-5.22 0-62.83 0-125.66-.14-188.49.14-9.9.04-19.83 1.74-29.66 3.21-2.7.4-4.24.03-6.02-1.79-2.87-2.95-5.99-5.66-9-8.47.2-.42.41-.85.61-1.27h106.9c0-28.21 0-55.75 0-83.82-11.91 0-23.71-.42-35.47.13-10.42.49-20.78 2.15-31.19 3.04-1.8.16-4.1-.41-5.49-1.51-3.33-2.63-6.26-5.76-9.35-8.7.22-.43.44-.85.66-1.28h80.46c0-70.19 0-139.74 0-210.02 10.83 4.04 21.9 8.17 34.45 12.85-4.13 3.71-7.78 6.58-10.88 9.96-1.51 1.64-2.82 4.22-2.83 6.38-.15 58.83-.12 117.66-.11 176.49 0 1.14.16 2.29.28 3.87 1.53.13 2.96.36 4.39.37 13.67.03 27.33.15 41-.11 2.37-.04 5.16-1.18 6.98-2.73 5.96-5.05 11.57-10.52 17.58-16.08 8.43 8.91 16.74 17.68 25.69 27.13-32.27 0-63.65 0-95.48 0v83.5c1.6.1 3.2.28 4.8.28 17.33.02 34.67.13 51.99-.12 2.51-.04 5.46-1.33 7.4-3 6.3-5.41 12.23-11.26 17.93-16.6 9.45 9.48 18.69 18.75 28.07 28.15z" fill="#010104"/><path d="m158.4 284.56c-21.76 19.6-44.41 38.04-60.74 63.12-6.1-6.56-11.96-12.86-18.18-19.54 7.38-8.52 7.17-18.87 7.13-29.22-.07-20.33-.02-40.66-.02-60.99 0-1.8 0-3.59 0-5.65-13.34-.87-26.06-.23-38.52 2.97-3.11.8-4.87.18-6.92-1.98-2.73-2.87-5.84-5.39-8.78-8.07.2-.46.41-.93.61-1.39h53.24c0-20.3 0-39.85 0-59.81-8.87 0-17.51-.14-26.14.15-1.35.04-2.93 1.83-3.89 3.18-7.35 10.26-14.58 20.61-22.04 31.22-1.65-.98-2.85-1.69-4.31-2.56 24.87-49.94 40.64-102.83 55.25-156.77 9.92 5.16 19.43 10.11 29.41 15.3-18.44 8.86-20.86 27.5-28.88 44.07 6.45 0 11.96-.66 17.26.13 13.46 2 23.91-2.25 31.75-13.32 1.43-2.03 3.24-3.79 5.25-6.1 4.23 5.02 7.93 9.41 11.63 13.79 3.63 4.3 7.26 8.6 11.74 13.91-2.75 0-4.46 0-6.17 0-22.66 0-45.33.07-67.99-.08-3.26-.02-4.91.83-6.35 3.94-6.3 13.57-12.98 26.96-19.5 40.43-.55 1.13-.92 2.35-1.55 4 2.09.12 3.7.28 5.3.28 16.66.02 33.33.14 49.99-.12 2.49-.04 5.44-1.32 7.33-2.99 4.48-3.94 8.47-8.45 12.92-13 7.61 8.09 14.87 15.79 22.91 24.33-18.41 0-35.75 0-53.41 0v59.68c6.58 0 13.16.14 19.73-.12 1.2-.05 2.45-1.59 3.48-2.63 4.78-4.84 9.49-9.75 14.44-14.86 7.29 8.74 14.16 16.98 21.75 26.08-20.44 0-39.81 0-59.45 0v76.86c1.26-.56 2.27-.89 3.17-1.43 13.68-8.23 27.42-16.36 40.96-24.82 3.48-2.16 5.64-2.18 7.59 2.01z" fill="#010104"/><path d="m334.78 82.51c-12.52 16.92-17.1 36.35-22.14 55.63-.73 2.79.24 3.76 2.25 5.13 10.84 7.41 21.97 14.48 32.26 22.59 12.47 9.84 10.57 32.77-3.82 41.7-1.8-3.71-4.1-7.16-5.22-10.97-5.27-17.77-15.33-32.73-26.76-46.94-.52-.65-.89-1.41-1.6-2.55-5.43 12.58-9.98 24.5-15.63 35.87-5.59 11.23-12.28 21.91-18.7 33.19-2.46-1.61-3.65-2.38-5.07-3.31 21.86-45.57 30.88-94.16 36.21-144.42 9.72 4.85 18.73 9.35 28.22 14.08z" fill="#010104"/><path d="m159.15 208.37c-1.63-1.12-2.83-1.95-4.03-2.77 20.18-43.44 29.36-89.54 34.93-137.21 9.21 4.38 17.85 8.49 26.8 12.75-13.51 14.42-14.95 33.32-20.61 50.49-.41 1.25.88 3.6 2.06 4.76 8.18 8.06 17 15.51 24.63 24.04 3.93 4.4 6.65 10.39 8.33 16.12.97 3.31-.6 7.83-2.17 11.28-1.83 4.02-4.85 7.52-7.48 11.14-2.36 3.24-4.6 2.4-5.8-.86-1.54-4.18-2.8-8.5-3.76-12.85-3.21-14.46-9.02-27.75-17.45-39.91-.45-.65-1.08-1.17-2.01-2.16-8.82 23.06-17.55 45.65-33.44 65.18z" fill="#010104"/></svg>