<svg enable-background="new 0 0 400 400" viewBox="0 0 400 400" xmlns="http://www.w3.org/2000/svg"><g fill="#fcfbfa"><path d="m37.59 393.81c-.92.31-1.52.05-2-.78-.7-1.2-1.52-2.34-2.47-3.78v4.59c-.55.03-.95.05-1.41.07-.03-.37-.06-.64-.06-.91 0-1.91 0-3.81 0-5.7 1.13-.41 1.77-.03 2.29.91.62 1.11 1.38 2.14 2.31 3.19v-4.2h1.35v6.61z"/><path d="m12.94 393.88v-6.75c1.9.19 3.93-.54 5.37 1.29.8 1.01.78 2.88.03 3.97-1.37 1.97-3.4 1.51-6.4 1.49m2.45-1.22c2.04.12 2.92-.58 2.89-2.21-.03-1.51-.98-2.19-2.89-2z"/><path d="m11.81 393.87h-5.49c.68-2.18 2.47-3.48 3.51-5.45h-3.08v-1.21h5.29c-.71 2.13-2.44 3.48-3.47 5.51.86 0 1.63.04 2.39-.01.79-.05 1.14.21.85 1.16"/><path d="m39.33 393.86v-6.61h3.7v1.07h-2.22v1.52c.68.04 1.34.09 2.07.13v1.07c-.72.05-1.38.09-2.1.14v1.48h2.4v1.19h-3.85z"/><path d="m27.71 388.56c-1.15-.3-2.46-.61-3.1.64-.37.73-.41 1.93-.06 2.67.63 1.35 1.99.93 3.17.68.35.94-.01 1.32-.93 1.46-1.62.25-3.05-.27-3.76-1.48-.73-1.24-.6-3.03.31-4.17.88-1.11 2.71-1.7 4-1.16.32.13.44.74.65 1.12-.1.08-.19.16-.28.24"/><path d="m49.15 387.24v1.07c-.59.02-1.17.05-1.87.08v5.44h-1.48v-5.44h-1.85c-.05-.4-.08-.73-.13-1.15z"/><path d="m20.06 387.21h1.33v6.62h-1.33z"/><path d="m30.68 393.25c-.39.38-.8.79-1.05.76-.32-.05-.6-.45-.9-.7.26-.24.51-.64.8-.67.29-.04.62.3 1.15.61"/></g><path d="m45.77 46.1c5.8 3.45 11.54 7.07 17.49 10.29 2.22 1.2 4.93 2.07 7.43 2.11 13.16.2 26.33.28 39.48-.06 2.58-.07 5.56-1.65 7.56-3.43 3.56-3.17 6.51-7.03 9.45-10.3 6.65 6.66 13.08 13.08 19.69 19.7.11-.28.08.19-.13.29-9.52 4.41-14.14 12.46-17.92 21.89-9.14 22.82-19.02 45.34-28.78 67.91-1.4 3.23-.73 5.25 1.3 7.96 9.94 13.31 20.85 26.13 29.03 40.47 11.65 20.4 12.14 42.41 1.27 63.51-3.27 6.36-9.33 11.65-15.04 16.28-5.48 4.44-12.17 7.37-18.95 11.33-6.18-15.16-17.28-24.09-32.65-29.34v5.82c0 29.66-.05 59.31.07 88.97.01 3.05-.72 4.78-3.65 6.05-5.28 2.3-10.36 5.06-15.66 7.7.01-109.14.01-217.89.01-327.15zm19.37 21.16c-.06 1.37-.13 2.2-.13 3.03-.01 61.66-.01 123.31-.01 184.97 0 .67-.21 1.44.06 1.98.52 1.03 1.13 2.5 2.01 2.77 10.8 3.25 21.66 6.41 33.17 4.86 11.54-1.56 18.4-8.03 19.59-18.61 1.25-11.16.51-22.2-2.5-33.05-5.42-19.57-14.81-37.34-24.94-54.76-1.62-2.79-2.02-5.23-1.04-8.38 4.56-14.57 8.88-29.22 13.26-43.84 3.85-12.86 7.65-25.73 11.58-38.95-17.21-.02-33.94-.02-51.05-.02z" fill="#010104"/><path d="m287.47 36.56c9.67 4.14 19.18 8.22 28.73 12.31-.41.81-.49 1.21-.72 1.37-8.03 5.39-8.85 13.17-8.65 22.14.52 23.14.17 46.29.17 69.13 14.37 5.86 20.8-5.47 29.14-13.45 7.07 7.54 13.85 14.77 21.32 22.73-17.18 0-33.52 0-50.46 0v6.38 173.43c0 1.66-.02 3.33-.08 4.99-.38 11.35-6.06 18.98-16.32 23.5-4.07 1.79-8.03 3.84-12.41 5.94-7.26-15.2-20.06-22.64-35.16-26.83-3.94-1.09-3.19-3.39-2.66-5.91 11.57 1.44 22.91 2.89 34.27 4.25 10.12 1.21 13.36-1.72 13.36-11.95 0-55.98 0-111.96 0-167.94 0-1.65 0-3.3 0-5.12-.81-.21-1.41-.51-2.02-.5-15.97.32-31.93.55-47.89 1.11-4.1.14-8.26 1.02-12.22 2.16-2.69.77-4.24.09-6.04-1.74-2.9-2.95-6.08-5.62-9.14-8.41.2-.43.41-.86.61-1.29h76.15c.02-35.65.02-70.64.02-106.3z" fill="#010104"/><path d="m201.06 33.57c9.01 5.68 17.55 11.07 26.47 16.69-.55.62-.84 1.18-1.31 1.43-8.05 4.39-12 11.81-15.62 19.83-8.88 19.67-18.22 39.13-27.62 59.19 5.49 3.26 10.99 6.52 16.74 9.93-.7.82-1.01 1.51-1.53 1.75-8.63 3.93-9.46 10.93-9.39 19.58.44 52.8.26 105.6.4 158.4.03 10.31.46 20.61.91 30.91.12 2.75-.78 4.2-3.27 5.33-5.44 2.48-10.73 5.27-15.89 7.84 0-71.34 0-142.55 0-213.68-12.02 14.93-24.16 30-36.24 45.01-4.67-2.74-2.99-5.05-1.22-7.72 30.27-45.57 50.15-95.78 65.82-147.86.64-2.02 1.09-4.08 1.75-6.63z" fill="#010104"/><path d="m219.55 184.32c11.75 7.25 24.16 14.53 36.11 22.52 3.56 2.38 6.26 6.44 8.58 10.22 5.4 8.78 2.46 22.64-5.93 28.63-1.1.78-4.07.58-4.96-.34-1.9-1.97-3.48-4.54-4.34-7.15-5.87-17.67-16.88-31.9-29.52-45.1-2.13-2.24-5.76-4.5.06-8.78z" fill="#010104"/></svg>