<svg enable-background="new 0 0 400 400" viewBox="0 0 400 400" xmlns="http://www.w3.org/2000/svg"><path d="m6.4 11.7c-1-.8-1.9-1.6-2.9-2.3l.6-.7c.9.7 1.9 1.4 2.9 2.2zm-2.1 8.3c.7-2.1 1.4-4.2 2-6.4.2.1.6.3 1 .4-.7 2.3-1.3 4.4-1.9 6.4zm3-12.8c-1.1-.9-2.1-1.7-2.9-2.4l.6-.7c1 .8 2 1.5 3 2.4zm1.4-1.3v-.9h10.2v.9c-.9 4.2-2.3 7.3-4.1 9.4 1.3 1.4 3.2 2.7 5.7 4-.2.2-.4.5-.7.9-2.5-1.4-4.4-2.7-5.7-4.2-1.4 1.5-3.5 3-6.1 4.4 0 0 0 0-.1-.1-.3-.4-.5-.7-.7-.8 2.7-1.3 4.7-2.8 6.2-4.2-1.8-2.2-3-5.3-3.7-9.4zm9.2 0h-7.1c.6 3.8 1.7 6.7 3.4 8.7 1.7-2.1 2.9-4.8 3.7-8.7z" fill="#fcfbfa"/><path d="m31.6 3.6h.9v2.3h4.1v9.1h1.7v.9h-16.6v-.9h1.7v-9.1h4.1v-2.3h.9v2.3h3.1v-2.3zm-4 13.3.6.8c-1.9.9-3.8 1.9-5.8 2.8-.2-.3-.3-.6-.5-.9 2-.9 3.9-1.8 5.7-2.7zm-3.2-10.1v3.7h3.1v-3.7zm0 4.5v3.7h3.1v-3.7zm4.1-4.5v3.7h3.1v-3.7zm0 4.5v3.7h3.1v-3.7zm9.1 9.1c-2.1-1.1-4.1-2-5.8-2.7l.5-.8c2.2.9 4.1 1.8 5.8 2.6zm-1.9-13.6h-3.1v3.7h3.1zm-3.2 4.5v3.7h3.1v-3.7z" fill="#fcfbfa"/><g fill="#010105"><path d="m116.22 66.17c-18.11 0-35.73 0-54.05 0v5.46c0 82.98-.04 165.95.05 248.93.01 11.47.65 22.94 1.18 34.41.12 2.67-.41 4.2-3.08 5.32-5.92 2.48-11.68 5.36-17.86 8.24 0-108.15 0-215.64 0-323.74 5.68 3.6 11.12 7.27 16.79 10.52 2.18 1.25 4.9 2.15 7.38 2.18 14.66.2 29.33.22 43.98-.03 2.34-.04 5.09-1.26 6.89-2.81 4.15-3.57 7.84-7.67 11.62-11.47 6.65 6.57 13.21 13.05 19.96 19.72-.68.6-1.2 1.31-1.9 1.64-9.04 4.34-13.89 12.29-18.7 20.6-11.5 19.86-23.46 39.45-35.22 59.16-.59.99-1.04 2.05-1.84 3.64 6.82 6.72 14.21 13.04 20.43 20.35 7.83 9.2 15.75 18.61 21.73 29.03 7.26 12.65 8.12 26.75 3.63 40.97-2.84 9-8.4 15.84-16.09 20.92-6.51 4.29-13.34 8.09-20.44 12.36-5.79-14.41-16.88-21.97-30.51-26.52.34-1.61.58-2.89.89-4.15.07-.28.35-.51.38-.55 8.3 1.21 16.44 3.08 24.64 3.44 15.02.66 21.95-6.27 22.78-21.36.77-14.11-3.19-27.08-10.33-38.96-6.58-10.96-13.83-21.54-21.2-32-2.13-3.02-2.38-5.32-1.08-8.56 9.6-24.06 19.07-48.18 28.57-72.29.52-1.35.87-2.77 1.4-4.45z"/><path d="m162.45 242.5h150.36c0-11.98 0-23.42 0-35.26-1.73-.08-3.34-.23-4.94-.23-30.49-.01-60.98-.26-91.46.14-9.4.12-18.76 2.13-28.17 2.96-1.94.17-4.4-.5-5.92-1.68-3.23-2.53-5.99-5.64-10.03-9.58h140.32c0-10.51 0-20.38 0-30.85-1.75 0-3.52 0-5.29 0-32.49 0-64.98-.26-97.46.15-10.23.13-20.44 2.12-30.67 3.05-1.68.15-3.86-.25-5.1-1.27-3.41-2.8-6.43-6.05-9.61-9.13.2-.41.4-.81.6-1.22h5.75c44.48 0 88.96-.09 133.44.12 5.26.02 9.29-1.09 12.56-5.28 2.14-2.74 4.73-5.14 6.64-7.19 6.28 6.29 12.22 12.23 18.53 18.54-1.42 1.14-3.6 3.41-6.22 4.89-3.27 1.84-3.93 4.32-3.86 7.79.47 22.97.64 45.94 1.24 68.9.1 4.03-1.19 5.97-4.69 7.48-5 2.15-9.81 4.77-15.35 7.51 0-4.01 0-7.39 0-11.1-2.08-.1-3.69-.23-5.31-.23-34.32-.01-68.64-.23-102.95.14-9.4.1-18.82 1.75-28.16 3.2-2.68.42-4.24.09-6.03-1.77-2.86-2.96-6-5.66-9.01-8.47.27-.54.53-1.08.79-1.61z"/><path d="m316.91 336.67c-5.48 12.41-14.17 19.33-27.49 19.5-25.45.32-50.91.73-76.36.71-6.45 0-13.72-.83-17.12-7.22-2.45-4.6-3.62-10.33-3.77-15.61-.56-18.63-.4-37.28-.6-55.93-.04-3.91-.47-7.81-.77-12.59 9.82 4.91 18.81 9.4 27.75 13.87-.24.73-.25 1.21-.46 1.32-7.35 3.99-7.48 10.67-7.17 17.88.38 8.97.07 17.98.1 26.97.04 9.47 4.58 14.96 14.04 15.19 17.97.43 35.96.27 53.94.11 5.62-.05 9.88-3.72 10.86-10.54 1.86-12.95 2.81-26.03 4.1-39.06.16-1.61.02-3.26.02-5.16h6.86c.42 7.11.7 14.05 1.29 20.96.43 4.94.91 9.94 2.03 14.75 1.59 6.87 6.21 11.59 12.75 14.85z"/><path d="m162.01 67.94c0-1.81 0-3.1 0-4.65 54.45-5.47 109.49-6.73 161.49-27.49 5.38 8.07 10.8 16.2 16.61 24.91-59.67-.12-118.43 8.89-178.1 7.23z"/><path d="m321.98 79.52c9.09 6.7 17.72 13.06 27 19.91-24.45 11.21-39.4 33.06-59.46 49.09-.66-.4-1.37-.79-2.02-1.26-.52-.37-.95-.85-1.57-1.41 14.11-20.85 27.11-42.15 36.05-66.33z"/><path d="m160.4 276.1h5.38c-.79 20.67-1.38 41.1-18.07 56.52-3.93 3.63-8.12 6.19-13.75 5.86-5.91-.34-11.17-3.89-12.56-9.5-.39-1.59.37-4.09 1.52-5.29 2.14-2.22 4.8-4.07 7.51-5.59 12.52-7.05 21.6-16.96 26.26-30.69 1.26-3.74 2.46-7.5 3.71-11.31z"/><path d="m222.77 84.1c2.6-.3 4.82-1.3 5.95-.58 11.6 7.42 23.66 14.35 31.25 26.51 5.85 9.38 1.5 23.33-8.7 27.79-2.93 1.28-4.99.22-5.85-2.63-.96-3.16-1.45-6.46-2.19-9.69-3.01-13.17-9.42-24.75-16.85-35.85-1.01-1.47-1.95-2.98-3.61-5.55z"/><path d="m164.25 86.21c2.01.33 4.44.04 5.94 1.09 6.92 4.85 14.06 9.58 20.18 15.34 4.33 4.08 7.79 9.43 10.51 14.79 3.47 6.83-2.52 20.6-9.73 23.24-1.36.5-4.29-.7-5.14-2.01-1.57-2.42-2.48-5.41-3.07-8.29-2.97-14.53-8.88-27.71-17.57-39.69-.57-.79-1.08-1.62-1.61-2.44.17-.67.33-1.35.49-2.03z"/><path d="m318.2 275.83c1.59 0 3.52-.59 4.73.09 8.65 4.89 17.3 9.8 25.61 15.23 2.93 1.91 5.32 5.04 7.23 8.07 5.62 8.97 3.79 18.37-4.44 25.24-2.77 2.31-5.11 2.15-7-.98-.85-1.41-1.72-2.91-2.13-4.49-4.17-16-12.94-29.31-24.03-41.29.01-.62.02-1.24.03-1.87z"/><path d="m229.2 257.35c12.57 6.07 25.81 11.12 33.81 23.89 4.97 7.94 2.41 20.04-5.56 25.02-.86.54-3.1.23-3.74-.51-1.47-1.71-2.83-3.8-3.4-5.96-3.65-13.85-11.44-25.26-20.46-36.04-1.18-1.41-1.59-3.45-2.36-5.21.56-.39 1.14-.79 1.71-1.19z"/></g></svg>