<svg enable-background="new 0 0 400 400" viewBox="0 0 400 400" xmlns="http://www.w3.org/2000/svg"><g fill="#fcfbfa"><path d="m37.59 393.81c-.92.31-1.52.05-2-.78-.7-1.2-1.52-2.34-2.47-3.78v4.59c-.55.03-.95.05-1.41.07-.03-.37-.06-.64-.06-.91 0-1.91 0-3.81 0-5.7 1.13-.41 1.77-.03 2.29.91.62 1.11 1.38 2.14 2.31 3.19v-4.2h1.35v6.61z"/><path d="m12.94 393.88v-6.75c1.9.19 3.93-.54 5.37 1.29.8 1.01.78 2.88.03 3.97-1.37 1.97-3.4 1.51-6.4 1.49m2.45-1.22c2.04.12 2.92-.58 2.89-2.21-.03-1.51-.98-2.19-2.89-2z"/><path d="m11.81 393.87h-5.49c.68-2.18 2.47-3.48 3.51-5.45h-3.08v-1.21h5.29c-.71 2.13-2.44 3.48-3.47 5.51.86 0 1.63.04 2.39-.01.79-.05 1.14.21.85 1.16"/><path d="m39.33 393.86v-6.61h3.7v1.07h-2.22v1.52c.68.04 1.34.09 2.07.13v1.07c-.72.05-1.38.09-2.1.14v1.48h2.4v1.19h-3.85z"/><path d="m27.71 388.56c-1.15-.3-2.46-.61-3.1.64-.37.73-.41 1.93-.06 2.67.63 1.35 1.99.93 3.17.68.35.94-.01 1.32-.93 1.46-1.62.25-3.05-.27-3.76-1.48-.73-1.24-.6-3.03.31-4.17.88-1.11 2.71-1.7 4-1.16.32.13.44.74.65 1.12-.1.08-.19.16-.28.24"/><path d="m49.15 387.24v1.07c-.59.02-1.17.05-1.87.08v5.44h-1.48v-5.44h-1.85c-.05-.4-.08-.73-.13-1.15z"/><path d="m20.06 387.21h1.33v6.62h-1.33z"/><path d="m30.68 393.25c-.39.38-.8.79-1.05.76-.32-.05-.6-.45-.9-.7.26-.24.51-.64.8-.67.29-.04.62.3 1.15.61"/></g><path d="m214.76 285.71c0-60.25 0-119.97 0-179.7 6.9 3.38 13.92 8.41 21.67 10.18 7.9 1.8 16.54.4 25.61.4 2.49-19.12 4.94-37.97 7.34-56.47-.9-.62-1.17-.98-1.43-.97-17.93.63-35.96.41-53.75 2.36-7.4.81-12.22-.03-16.48-5.71-1.15-1.54-2.62-2.83-4.87-5.21h6.91c41.32 0 82.65-.05 123.97.08 3.63.01 6.3-1.03 8.85-3.49 4.79-4.61 9.8-8.99 15.12-13.83 7.46 8.3 14.77 16.44 23.05 25.65-2.75 0-4.41 0-6.08 0-21.66 0-43.32.1-64.98-.09-3.67-.03-5.9 1.03-7.41 4.31-7.98 17.31-16.05 34.59-24.6 53.01 3.27.18 4.99.35 6.7.35 17.66.02 35.33-.16 52.98.13 4.43.07 7.15-1.2 9.17-5.04 1.45-2.75 3.45-5.22 5.45-8.18 7.67 5.27 15 10.31 22.29 15.31-.28.67-.32 1.1-.53 1.21-8.33 4.59-9.05 11.97-8.93 20.64.53 37.31.41 74.64.6 111.96.02 4.48.67 8.97.51 13.44-.06 1.61-1.25 3.77-2.59 4.62-5.3 3.37-10.87 6.33-17.11 9.88 0-52.1 0-103.56 0-155.29-34.26 0-67.86 0-102.23 0v5.65c0 45.65-.07 91.31.11 136.96.02 4.23-1.22 6.68-4.83 8.7-5.02 2.82-9.76 6.12-14.51 9.14z" fill="#010104"/><path d="m130.46 141.96c0 10.42-.19 19.52.05 28.62.27 10.3.97 20.58 1.35 30.88.03.91-.74 2.29-1.54 2.73-6.2 3.45-12.5 6.72-18.95 10.14 0-26.79 0-52.97 0-79.99-1.17 1.74-2.09 2.98-2.88 4.3-18.6 30.98-41.34 58.36-69.99 80.61-3.94 3.06-3.92 3.09-7.77.16 26.58-28.94 48.54-60.96 65.66-98.59-16.01 1.33-30.72 2.13-45.29 4.01-4.83.62-8.07.36-11.13-3.46-1.92-2.39-4.53-4.23-6.84-6.31.24-.46.48-.92.72-1.37h77.82c0-14.09 0-27.5 0-41.26-20.79 1.92-41.38 3.81-62.03 5.72-1.54-4.26-.28-5.67 3.97-6.34 32.17-5.08 64.26-10.63 94.64-23.03 5.96-2.43 11.54-5.83 17.03-8.64 6.56 6.61 13.4 13.51 20.03 20.19-17.63 2.94-35.99 6.01-54.6 9.11v44.11c10.35 0 20.46.1 30.56-.12 1.37-.03 2.9-1.47 4.01-2.59 4.32-4.37 8.51-8.87 13.06-13.66 7.84 8.32 15.14 16.06 23.11 24.52-23.97 0-47.13 0-71.01 0 0 4.18-.36 7.83.18 11.35.22 1.42 2.2 3 3.75 3.71 13.28 6.12 26.82 11.7 39.9 18.2 5.69 2.83 11.21 6.76 15.58 11.35 9.41 9.88 6.78 21.73 2.06 32.09-.36.78-3.17 1.25-4.27.7-1.51-.75-2.75-2.44-3.62-4-9.35-16.88-23.96-28.8-38.35-40.93-4.64-3.91-9.46-7.61-15.21-12.21z" fill="#010104"/><path d="m152.57 211.5c7.8 5.85 15.11 11.33 22.47 16.85-.4.54-.6 1.12-.98 1.29-9.5 4.17-10.53 11.87-10.18 21.21.65 17.46.19 34.96.19 53.83 14.45-12.42 28.09-24.13 42.1-36.16 1.33 1.19 2.61 2.35 4.12 3.71-18.58 21.75-38.69 41.99-52.04 67.09-5.82-5.94-11.6-11.84-17.91-18.29 7.38-9.68 5.07-22.1 5.2-34.09.18-16 .05-32 .04-47.99 0-1.8 0-3.6 0-5.67-14.93 0-29.34 0-44.42 0 0 6.18.12 12.29-.02 18.39-.54 22.97-3.83 45.43-13.94 66.33-11.11 22.98-29.86 38.69-50.9 52.51-1.01-1.28-1.8-2.28-2.77-3.51 1.09-1.2 1.98-2.35 3.04-3.34 10.38-9.72 19.83-20.22 27.09-32.53 8.31-14.11 12.23-29.74 15.23-45.61 4.24-22.42 2.98-45.1 2.9-67.72-.01-1.62 0-3.24 0-5.82 5.54 3.5 10.23 6.88 15.31 9.53 3.08 1.61 6.72 2.82 10.15 2.94 10.32.38 20.67-.09 30.99.24 4.22.13 6.87-1.15 8.82-4.82 1.46-2.76 3.43-5.26 5.51-8.37z" fill="#010104"/><path d="m273.68 154.52c11.19 4.85 21.61 9.36 33.5 14.5-2.13 1.5-3.4 2.56-4.81 3.37-6.61 3.81-7.48 9.63-7.49 16.82-.05 26.75-1.04 53.48-6.68 79.79-6.87 32.02-24.63 56.28-52.65 72.97-20.82 12.4-43.58 20.19-66.81 27.29-.94-1.33-1.77-2.52-2.28-3.24 15.19-7.94 30.58-15.43 45.41-23.89 18.69-10.67 35.24-23.84 45.72-43.38 7.71-14.39 12.25-29.76 14.22-45.84 3.36-27.46 3.69-55.06 2.78-82.69-.18-4.94-.57-9.88-.91-15.7z" fill="#010104"/><path d="m285.53 286.86c.97-1.46 1.77-2.65 3.15-4.73 22.37 12.41 44.65 24.54 66.67 37.13 8.03 4.59 15.06 11.49 14.9 21.08-.13 7.75-3.75 15.47-6.09 23.12-.16.53-2.96.94-3.95.38-1.5-.85-2.73-2.45-3.65-3.99-15.51-26.05-37.31-46.17-60.84-64.67-3.37-2.65-6.65-5.43-10.19-8.32z" fill="#010104"/></svg>