<svg enable-background="new 0 0 400 400" viewBox="0 0 400 400" xmlns="http://www.w3.org/2000/svg"><g fill="#010100"><path d="m221.74 199.72v28.61c1.89.09 3.8.25 5.72.25 33.5.02 67-.06 100.5.1 4.32.02 7.7-.84 10.45-4.3 2.48-3.11 5.3-5.95 7.65-8.56 7.17 7.2 13.68 13.74 20.21 20.3.18-.17-.13.29-.56.48-9.9 4.4-10.64 13.07-11.82 22.47-3.42 27.15-6.98 54.34-12.12 81.21-3.27 17.08-15.37 27.36-32.49 31.9-7.23-16.05-20.81-24.96-36.46-31.25-3.76-1.51-4.76-3.13-2.37-6.77 10.94 2.38 22.06 4.83 33.2 7.2 13.43 2.86 19.42-.41 22.15-14.12 3.04-15.28 4.99-30.79 6.99-46.26 1.62-12.52 2.62-25.11 3.87-37.68.18-1.82.22-3.65.35-5.89-38.42 0-76.63 0-114.06 0-4.71 7.6-13.2 6.15-19.13 9.41 0-60.02 0-119.86 0-180.31 4.37 2.67 9.15 5.13 13.41 8.3 5.6 4.16 11.8 2.56 17.81 2.51.99-.01 2.42-2.44 2.87-3.98 3.91-13.36 7.65-26.78 11.43-40.18.27-.95.52-1.9.95-3.51 8.67 4.1 17.12 8.1 25.58 12.1-5.79 5.63-11.63 10.72-16.74 16.46-5.06 5.68-9.38 12.02-14.77 19.05 2.84.15 4.41.31 5.97.31 17.17.02 34.33.15 51.5-.13 2.63-.04 5.68-1.48 7.74-3.22 3.91-3.29 7.24-7.27 10.59-10.72 5.91 5.93 11.38 11.42 16.99 17.04.05-.12.01.34-.2.45-8.3 4.58-9.38 11.88-9 20.62.85 19.95.78 39.94 1.27 59.91.08 3.11-.6 4.8-3.71 5.91-5.12 1.82-10.05 4.19-15.83 6.66 0-5.06 0-9.31 0-13.82-29.5 0-58.43 0-87.8 0v31.03c1.67.1 3.27.28 4.88.28 33.33.02 66.67.08 100-.12 2.48-.01 5.45-1.32 7.32-3 4.45-3.97 8.37-8.53 12.81-13.16 7.78 8.24 15.04 15.93 23.05 24.41-49.93.01-98.91.01-148.2.01zm-.07-84.6h87.6c0-9.9 0-19.32 0-28.81-29.34 0-58.36 0-87.6 0zm.03 36.06h87.62c0-9.16 0-17.91 0-26.92-29.29 0-58.31 0-87.62 0z"/><path d="m149 188.44c-30.65.58-60.58 1.13-90.52 1.73-1.14.02-2.38.2-3.41.68-10.99 5.15-16.38-2.45-22.94-10.26h6.18c38.15 0 76.3-.04 114.45.07 3.44.01 6-.85 8.29-3.45 3.85-4.35 7.96-8.47 12.28-13.02 7.83 8.3 15.12 16.04 23.18 24.59-10.5 0-20.13 0-30.34 0v6.51c0 44.81.05 89.63-.06 134.44-.01 5.12-.47 10.32-1.48 15.33-2.88 14.21-14.37 19.32-26.54 24.49-3.06-14.75-14.64-20.32-26.26-26.04-1.74-.86-2.65-3.42-3.94-5.2.42-.44.84-.88 1.25-1.32 5.69.74 11.38 1.52 17.09 2.21 4.28.52 8.57 1.08 12.88 1.33 6.44.38 9.57-2.56 9.84-9.06.14-3.33.06-6.66.06-9.99 0-41.98 0-83.96 0-125.95-.01-1.96-.01-3.93-.01-7.09z"/><path d="m49.97 175.85c-.94-1.59-1.59-2.69-2.46-4.15 28.21-17.46 46.22-41.63 50.77-76.57-12.92 1.07-25.38 1.3-37.52 3.42-6.25 1.1-10.3.49-14.06-4.41-1.47-1.92-3.78-3.19-5.71-4.76.25-.48.5-.95.75-1.43h56.31c0-18.77 0-36.9 0-55.74 9.73 3.4 18.9 6.6 28.07 9.8-.2.62-.2 1.03-.39 1.18-7.82 6.13-8.4 14.85-8.5 23.72-.08 6.65-.01 13.3-.01 20.58 10.33 0 20.62.34 30.86-.25 2.44-.14 4.76-3.33 7.04-5.21 2.17-1.79 4.24-3.72 5.92-5.2 6.45 6.51 12.72 12.84 18.8 18.98-20.25 0-41.55 0-62.88 0-1.55 6.69-2.96 12.78-4.41 19.02 8.92 4.36 17.97 8.17 26.39 13.07 7.11 4.14 14.17 8.83 20.02 14.54 8.45 8.23 6.94 20.46-2.54 27.67-.92.7-3.79.41-4.5-.45-2.17-2.66-4.1-5.66-5.46-8.82-7.36-17.12-20.01-29.5-35.35-40.33-12.52 27.15-34.11 43.86-61.14 55.34z"/><path d="m103.78 317.22c0-6.17 0-11.45 0-16.97-8.92 0-17.49 0-26.61 0 0 4.68.27 9.16-.13 13.57-.16 1.72-1.43 4.02-2.88 4.82-4.61 2.55-9.55 4.52-14.69 6.87 0-38.03 0-75.6 0-113.6 2.89 1.48 5.97 2.51 8.39 4.39 10.65 8.23 22.99 4.56 34.69 5.12 1.28.06 2.82-1.54 3.96-2.65 2.97-2.9 5.79-5.95 8.69-8.98 5.37 5.42 10.4 10.49 15.47 15.61-.08.17-.13.58-.33.67-8.21 3.81-9.92 10.26-9.49 18.93.99 19.92.78 39.9 1.4 59.85.13 4.29-1.14 6.25-5.18 7.38-4.25 1.19-8.33 3.1-13.29 4.99zm-26.36-26.06h26.23c0-20.52 0-40.62 0-60.87-8.85 0-17.42 0-26.23 0z"/><path d="m325.1 290.21c-.03 6.22-2.14 11.46-6.47 15.79-3.39 3.39-5.4 3.28-7.52-1.13-1.92-4.01-3.48-8.26-4.66-12.55-3.61-13.12-9.45-25.09-17.57-35.99-.9-1.2-.92-3.06-1.34-4.61 1.56.34 3.46.23 4.64 1.09 8.27 6.11 16.4 12.41 24.56 18.67 6.2 4.75 8.16 11.41 8.36 18.73z"/><path d="m205.78 280.44c-.9 8.89-1.51 17.82-2.81 26.65-1.16 7.92-5.48 14.15-12.26 18.53-4.97 3.22-9.2 2-14.78-3.7-4.08-4.16-1.03-7.46 1.25-10.46 2.38-3.14 5.76-5.5 8.36-8.5 8.41-9.67 12.11-21.52 15.16-33.64.2-.8.06-1.81.5-2.41.59-.8 1.6-1.3 2.43-1.93.58.81 1.63 1.6 1.67 2.44.17 4.31.08 8.63.08 12.95.14.03.27.05.4.07z"/><path d="m256.26 257.4c8.49 7.91 17.5 15.33 25.32 23.85 9.43 10.27 8.78 21.22-.45 29.9-5.31 4.99-8.33 3.99-10.19-3.21-2.1-8.16-3.98-16.4-6.68-24.36-2.28-6.73-5.65-13.08-8.4-19.65-.73-1.73-.94-3.68-1.39-5.53.6-.34 1.2-.67 1.79-1z"/><path d="m225.34 262.7c8.63 11.42 18.74 22.02 22.01 36.61 1.74 7.78-.58 14.77-6.91 20-4.29 3.55-7.54 2.57-8.46-2.87-1.02-6.02-.93-12.24-2.06-18.23-1.89-10.04-4.43-19.96-6.55-29.95-.37-1.74-.05-3.63-.05-5.45.68-.04 1.35-.08 2.02-.11z"/></g><path d="m6.45 374.46.42-.45c.65.47 1.27.95 1.85 1.44l-.45.49c-.66-.56-1.26-1.06-1.83-1.48m.93 7.33-.63-.26c.55-1.36 1.05-2.8 1.52-4.33.19.1.38.19.59.27-.46 1.29-.95 2.73-1.48 4.32m-.38-10.38.44-.42c.43.34 1.01.82 1.74 1.44l-.49.49c-.53-.51-1.09-1.01-1.69-1.51m2.5.35h1.72v-1.04h.59v1.04h3.52v-1.04h.59v1.04h1.75v.53h-1.75v1.42h-2.03v.97h3.22v2.03h-3.24c0 .35-.01.66-.03.93h3.32v.53h-3.37c-.03.27-.08.58-.15.94h3.96v.53h-3.71c.67.92 1.93 1.48 3.79 1.68-.13.24-.23.44-.29.59-2.13-.38-3.48-1.08-4.04-2.12-.43.97-1.77 1.72-4.03 2.23-.09-.19-.2-.37-.33-.55 2.1-.42 3.37-1.03 3.81-1.83h-3.36v-.53h3.58c.08-.29.13-.61.16-.94h-3.33v-.53h3.39c.02-.27.04-.58.04-.93h-3.23v-2.03h3.25v-.97h-2.07v-1.42h-1.73zm1.12 3.44v1h2.65c.01-.3.02-.44.01-.4v-.25-.35zm1.19-2h3.52v-.91h-3.52zm4.71 2h-2.63v.59c0 .15-.01.28-.01.4h2.64z" fill="#fafafc"/><path d="m13.55 383.74h.63v1.52h2.72v6.07h1.13v.6h-11.05v-.6h1.13v-6.07h2.73v-1.52h.63v1.52h2.1v-1.52zm-2.68 8.83.38.56c-1.24.63-2.53 1.25-3.85 1.85-.1-.21-.21-.42-.34-.63 1.36-.55 2.63-1.15 3.81-1.78m-2.13-4.27h2.1v-2.45h-2.1zm0 3.04h2.1v-2.46h-2.1zm2.72-3.04h2.1v-2.45h-2.1zm0 3.04h2.1v-2.46h-2.1zm6.07 3.6c-1.41-.71-2.7-1.3-3.86-1.78l.35-.56c1.45.62 2.75 1.19 3.88 1.72zm-1.25-9.09h-2.1v2.45h2.1zm-2.09 5.49h2.1v-2.46h-2.1z" fill="#fafafc"/></svg>