<svg enable-background="new 0 0 400 400" viewBox="0 0 400 400" xmlns="http://www.w3.org/2000/svg"><g fill="#010100"><path d="m229.21 197.77v29.53c1.7.1 3.3.28 4.9.28 33.83.02 67.67.08 101.5-.12 2.45-.01 5.29-1.51 7.25-3.15 3.03-2.52 5.45-5.76 8.14-8.7 6.57 6.61 12.55 12.64 18.81 18.95-.88.7-1.73 1.72-2.82 2.17-6.59 2.73-7.21 8.42-7.99 14.5-3.48 27.18-6.91 54.37-11.06 81.45-2.97 19.38-15.62 30.9-33.98 37.57-7.63-16.98-22.64-25.57-39.29-32.79.48-1.79.94-3.48 1.33-4.95 12.62 2.68 24.9 5.39 37.22 7.88 6.7 1.35 11.51-.42 13.82-6.79 3.02-8.34 5.42-17.09 6.6-25.86 3.14-23.54 5.49-47.18 8.21-71.28-37.71 0-74.9 0-112.76 0 2.21 7.49-3.71 7.83-8.51 9.26-3 .89-6 1.76-9.22 2.7 0-60.97 0-121.48 0-182.65 4.21 2.51 8.73 4.59 12.51 7.6 5.65 4.51 12.01 3.08 18.2 3.02.96-.01 2.42-2.05 2.77-3.39 3.52-13.47 6.85-26.98 10.24-40.48.28-1.11.59-2.21 1.05-3.91 8.77 4.17 17.24 8.2 26.33 12.53-13.06 9.22-21.99 21.21-30.09 35.01 1.92.18 3.28.42 4.64.43 16.67.03 33.33.12 50-.11 2.18-.03 4.79-1.24 6.42-2.74 4.01-3.72 7.56-7.93 11.05-11.69 6.68 6.68 12.66 12.67 18.7 18.71-.31.27-.74.9-1.32 1.1-8.44 3.01-10.06 9.13-9.64 17.54 1.02 20.44 1.14 40.92 1.52 61.39.02 1.06-.69 2.74-1.52 3.12-5.71 2.61-11.54 4.95-17.97 7.65 0-4.27 0-7.98 0-12.12-28.53 0-56.57 0-84.9 0v29.9c1.85.08 3.77.25 5.69.25 32.33.02 64.66-.05 97 .09 3.64.02 6.32-.89 8.72-3.65 3.27-3.77 6.88-7.24 10.62-11.14 7.14 7.58 13.94 14.81 21.55 22.89-48.4 0-95.85 0-143.72 0zm-.01-84.62h84.45c0-9.53 0-18.62 0-27.76-28.3 0-56.31 0-84.45 0zm84.38 37.11c0-9.55 0-18.76 0-27.98-28.25 0-56.15 0-84.14 0v27.98z"/><path d="m32.66 347.38c-3.75-.96-4.14-2.68-3.15-5.73 7.9-24.35 14.33-49.09 17.72-74.49 2-14.97 3.92-30.03 4.42-45.09 1.19-35.59 1.85-71.21 2.04-106.82.11-20.44-1.13-40.9-1.75-61.34-.05-1.79-.01-3.59-.01-6.12 6.7 3.71 12.8 7.31 19.13 10.48 2.55 1.28 5.59 2.22 8.41 2.23 27.16.16 54.32.02 81.48.18 3.98.02 7.02-.84 9.59-3.96 2.64-3.21 5.63-6.12 8.11-8.79 6.4 6.43 12.34 12.4 18.44 18.53.24-.32.03.29-.35.42-8.83 3.15-10.48 9.6-9.93 18.33.98 15.43.69 30.94 1.29 46.41.15 3.99-.85 6.02-4.76 7.13-4.39 1.25-8.6 3.14-13.3 4.91-.16-3.47-.28-6.24-.42-9.33-32.62 0-65.03 0-98.46 0 0 7.7.04 15.46-.01 23.22-.22 33.13-2.52 66.14-7.25 98.91-4.62 32.15-15.18 62.45-31.24 90.92zm79.79-222.16c0-18.9 0-37.42 0-55.91-13.77 0-27.17 0-40.62 0v55.91zm17.74.01h39.26c0-18.89 0-37.42 0-55.93-13.28 0-26.18 0-39.26 0z"/><path d="m85.91 161.47c3.96 2.06 8.46 3.92 12.43 6.57 5.84 3.89 12.07 4.83 18.91 4.64 11.65-.32 23.32-.26 34.98 0 4.01.09 7-.93 9.55-4.03 2.63-3.2 5.6-6.13 8.01-8.74 6.11 6.11 11.71 11.71 17.6 17.61-10.47 3.73-9.5 13.17-9.41 22.68.33 33.98.27 67.96.46 101.94.05 9.31.36 18.63.8 27.93.15 3.17-.98 4.85-3.85 6-4.59 1.85-9.05 4-14.2 6.31 0-6.21 0-11.92 0-18-19.22 0-37.92 0-57.19 0 0 5.29-.19 10.58.07 15.84.15 3.04-.93 4.48-3.75 5.41-5 1.66-9.88 3.66-14.41 5.37 0-63.25 0-126.27 0-189.53zm18.22 153.66h56.49c0-13.89 0-27.31 0-40.74-19.02 0-37.73 0-56.49 0zm56.66-88.77c-19.13 0-37.84 0-56.54 0v38.81h56.54c0-13.05 0-25.7 0-38.81zm-.21-9.08c0-12.2 0-24.08 0-36.02-18.94 0-37.54 0-56.24 0v36.02z"/><path d="m213.92 264.72c-1.27 13.56-2.27 27.11-3.92 40.58-.79 6.44-4.38 11.78-9.6 15.81-3.03 2.34-6.2 3.38-10.19 2.07-9.84-3.21-11.69-9-3.84-15.62 12.41-10.47 18.06-24.28 21.6-39.41.57-2.43.84-5.23 5.95-3.43z"/><path d="m263.21 255.96c11.15 8.92 21.18 16.59 28.29 27.21 6.69 9.99 5.12 20.6-3.78 27.92-4.57 3.76-7.28 3.06-8.93-2.76-2.79-9.85-5.04-19.86-8-29.65-1.72-5.68-4.45-11.04-6.58-16.6-.55-1.46-.53-3.13-1-6.12z"/><path d="m298.28 249.84c13.47 9.94 28.06 18.84 32.26 37.07 1.46 6.34-2.78 17.11-8.43 19.95-.9.45-3.24-.36-3.88-1.3-1.27-1.85-2.15-4.13-2.63-6.35-3.42-15.68-9.81-30.17-17.36-44.22-.73-1.35-.85-3.03-1.25-4.56.42-.19.86-.39 1.29-.59z"/><path d="m232.97 260.58c9.34 10.95 18.07 20.7 21.54 33.45 2.45 8.98-.81 17.06-7.9 23.25-3.85 3.36-6.85 2.32-7.59-2.79-.91-6.23-1.12-12.55-1.94-18.8-1.23-9.36-2.77-18.67-4.07-28.02-.26-1.86-.04-3.77-.04-7.09z"/></g><path d="m6.45 374.46.42-.45c.65.47 1.27.95 1.85 1.44l-.45.49c-.66-.56-1.26-1.06-1.83-1.48m.93 7.33-.63-.26c.55-1.36 1.05-2.8 1.52-4.33.19.1.38.19.59.27-.46 1.29-.95 2.73-1.48 4.32m-.38-10.38.44-.42c.43.34 1.01.82 1.74 1.44l-.49.49c-.53-.51-1.09-1.01-1.69-1.51m2.5.35h1.72v-1.04h.59v1.04h3.52v-1.04h.59v1.04h1.75v.53h-1.75v1.42h-2.03v.97h3.22v2.03h-3.24c0 .35-.01.66-.03.93h3.32v.53h-3.37c-.03.27-.08.58-.15.94h3.96v.53h-3.71c.67.92 1.93 1.48 3.79 1.68-.13.24-.23.44-.29.59-2.13-.38-3.48-1.08-4.04-2.12-.43.97-1.77 1.72-4.03 2.23-.09-.19-.2-.37-.33-.55 2.1-.42 3.37-1.03 3.81-1.83h-3.36v-.53h3.58c.08-.29.13-.61.16-.94h-3.33v-.53h3.39c.02-.27.04-.58.04-.93h-3.23v-2.03h3.25v-.97h-2.07v-1.42h-1.73zm1.12 3.44v1h2.65c.01-.3.02-.44.01-.4v-.25-.35zm1.19-2h3.52v-.91h-3.52zm4.71 2h-2.63v.59c0 .15-.01.28-.01.4h2.64z" fill="#fafafc"/><path d="m13.55 383.74h.63v1.52h2.72v6.07h1.13v.6h-11.05v-.6h1.13v-6.07h2.73v-1.52h.63v1.52h2.1v-1.52zm-2.68 8.83.38.56c-1.24.63-2.53 1.25-3.85 1.85-.1-.21-.21-.42-.34-.63 1.36-.55 2.63-1.15 3.81-1.78m-2.13-4.27h2.1v-2.45h-2.1zm0 3.04h2.1v-2.46h-2.1zm2.72-3.04h2.1v-2.45h-2.1zm0 3.04h2.1v-2.46h-2.1zm6.07 3.6c-1.41-.71-2.7-1.3-3.86-1.78l.35-.56c1.45.62 2.75 1.19 3.88 1.72zm-1.25-9.09h-2.1v2.45h2.1zm-2.09 5.49h2.1v-2.46h-2.1z" fill="#fafafc"/></svg>