<svg enable-background="new 0 0 400 400" viewBox="0 0 400 400" xmlns="http://www.w3.org/2000/svg"><g fill="#010100"><path d="m193.38 181.62c0-14.04 0-27.46 0-41.62-3.15 0-6.57 0-10 0-8.5 0-17 .11-25.49-.06-2.71-.06-4.09.75-5.26 3.29-9.07 19.64-25.14 31.82-44.16 40.68-1.17.54-2.92-.18-2.64.26 4.42-5.42 8.52-11.15 13.31-16.21 12.96-13.68 18.96-30.18 20.8-48.56 2.71-27.24 1.45-54.49.08-81.73-.05-.99-.01-1.99-.01-3.8 8.99 3.26 17.57 6.36 27.59 9.99-10.45 5.96-10.12 14.86-8.7 24.43h34.48c0-11.73 0-23.28 0-35.56 8.43 3.07 16.88 6.15 25.32 9.23-.16.58-.14 1.02-.32 1.12-6.86 3.66-8.25 9.58-7.38 16.76.66 5.44.58 10.96 1.13 16.42.29 2.9-.85 4.13-3.44 5.01-4.69 1.58-9.27 3.49-14.58 5.52 0-3.43 0-6.29 0-9.45-11.98 0-23.42 0-35.28 0v19.92h164.28c0-6.47 0-13.01 0-20.22-6.56 0-13.15 0-19.74 0-3.33 0-6.67.12-10-.02-8.56-.36-17.26-1.26-22.06 8.74-6.59-4.56-12.55-8.68-19.58-13.53 10.22-2.41 9.62-9.48 9.12-16.66-.51-7.43-.72-14.88-1.09-23.07 8.95 2.78 17.25 5.36 27.04 8.41-13.55 6.59-7.25 17.74-8.97 27.42h45.03c0-11.88 0-23.56 0-35.68 8.88 3.1 18 6.29 27.43 9.59-.67.91-.95 1.59-1.46 1.92-7.93 5.26-8.78 12.9-8.59 21.7.71 32.96.79 65.93 1.18 98.9.06 5.14.53 10.27.83 15.82-6.69 1.93-13.14 3.78-19.43 5.59 0-15.28 0-30.33 0-45.76-14.5 0-29.36 0-44.78 0 0 10.53-.17 20.98.09 31.41.09 3.52-1.04 5.05-4.4 5.83-4.49 1.05-8.87 2.61-13.73 4.09 0-19.57 0-38.63 0-58.2 10.38 2.49 19.39 9.22 30.78 8.27 10.57-.88 21.27-.19 32.35-.19 0-8.58 0-16.79 0-25.3-54.65 0-109.23 0-164.43 0-.96 8.15-1.94 16.43-2.99 25.27 12.06 0 23.54.18 34.99-.18 1.87-.06 3.87-2.32 5.43-3.93 1.95-2.02 3.51-4.43 5.38-6.85 6.19 5.61 11.24 10.19 16.28 14.75-.14.36-.17.78-.38.92-5.72 3.92-7.08 9.43-6.43 16.03.63 6.45.57 12.96 1.07 19.42.26 3.28-.27 5.18-4.07 5.88-4.94.88-9.75 2.61-14.6 3.99z"/><path d="m320.48 252.38c7.2 5.77 13.93 11.17 20.64 16.55-.19.5-.23.93-.4.99-12.59 4.28-20.28 14.66-29.3 23.42-9.89 9.6-19.96 19.01-30.35 28.89 26.66 18.61 56.67 26.3 88.52 29.08 1 2.66.24 4.03-2.73 4.84-8.34 2.27-15.83 5.91-21.01 13.38-.63.9-3.55.9-5.1.38-24.46-8.18-47.24-19.68-67.78-35.35-2.71-2.07-4.47-2.19-7.35-.44-25.73 15.6-53.14 27.26-82.38 34.54-5.42 1.35-5.42 1.36-7.54-3.03 29.14-11.59 56.67-26.13 81.69-44.62-7.25-9.31-14.65-18.24-21.36-27.66-4.32-6.07-7.54-12.92-11.47-19.28-.77-1.25-3.14-2.97-3.79-2.62-9.5 5.11-12.21-2.96-17.57-8.82h57.47c0-10.42 0-20.18 0-30.01-11.68 0-23.27-.3-34.84.13-5.58.21-11.1 1.86-16.68 2.7-1.14.17-2.74.04-3.53-.65-3.59-3.14-6.96-6.53-10.4-9.83.19-.42.38-.84.58-1.26h64.56c0-12.89 0-25.09 0-37.66 9.34 3.57 18.71 7.15 28.09 10.74.29.34.59.68.88 1.01-15.29 3.97-10.95 15.36-11.06 25.78h12.64c11.17 0 22.34.2 33.49-.14 2.65-.08 5.7-1.42 7.76-3.14 3.94-3.29 7.3-7.28 11.35-11.45 7.12 7.56 13.98 14.85 21.57 22.91-29.48 0-57.86 0-86.65 0v30.76c9.73 0 19.53.31 29.28-.23 2.33-.13 4.56-3.03 6.75-4.77 1.98-1.52 3.8-3.22 6.02-5.14zm-52.48 59.69c14.35-12.71 27.56-25.59 39.17-40.71-25.97 0-51.13 0-76.95 0 11.04 15.48 23.01 29.13 37.78 40.71z"/><path d="m103.78 217.72c-.49-10.63-.94-20.37-1.41-30.65 9.64 3.22 19.19 6.42 29.89 10-8.17 4.96-15.13 9.59-10.81 20.53h14.17c6.66 0 13.86 1.56 19.84-.47 5.66-1.93 10.04-7.63 15.45-12.04 6.07 6.5 12.44 13.32 19.46 20.83-23.72 0-46.46 0-69.57 0v18.66c10.32 0 20.43.1 30.53-.12 1.37-.03 2.9-1.42 4.03-2.52 3.44-3.33 6.72-6.82 10.43-10.62 6.29 7.23 12.16 13.97 18.89 21.69-2.71 0-4.41 0-6.1 0-27.65 0-55.31-.31-82.96.15-11.89.2-23.76 2.09-35.65 2.99-1.81.14-4.07-.48-5.49-1.57-3.28-2.52-6.17-5.55-9.22-8.37.16-.46.33-.93.49-1.39h57.56c0-6.62 0-12.37 0-18.31-12.02 0-23.93-.09-35.83.06-2.96.04-6.12.34-8.81 1.45-10.84 4.5-16.1-2.72-22.37-10.3z"/><path d="m155.19 255.83c6.93 5.88 12.72 10.79 18.32 15.55-.18.68-.18.96-.26.98-9.33 3.17-9.99 10.31-8.91 18.61.79 6.07.85 12.24 1.26 18.78-5.22 1.33-10.64 2.71-16.43 4.18-.21-2.26-.41-4.32-.63-6.65-26.23 0-52.32 0-78.67 0-.27 1.72-.53 3.48-.84 5.48-5.79 1.34-11.58 2.69-17.6 4.09 0-18.65 0-37.13 0-55.88 1.15.28 2.26.46 3.31.83 11.42 4.13 23.18 5.21 35.29 4.88 15.98-.43 31.98-.32 47.96.01 5.43.11 9.73-1 12.96-5.45 1.26-1.72 2.65-3.39 4.24-5.41zm-6.67 42.46c0-8.01 0-15.43 0-23.07-26.36 0-52.42 0-78.78 0v23.07z"/><path d="m43.29 372.02c-3.46-6.08-6.96-12.22-10.78-18.93 11-.75 21.22-1.4 31.42-2.16 16.89-1.26 33.76-2.7 50.66-3.79 3.06-.2 4.31-1.58 5.5-3.99 4.84-9.82 9.82-19.57 14.75-29.34.66-1.3 1.37-2.58 2.33-4.39 6.96 4.63 13.63 9.07 19.46 12.95-10.96 7.67-21.74 15.23-32.52 22.78.25.55.5 1.09.75 1.64 6.41-.79 12.82-1.57 19.23-2.37 14.81-1.86 29.62-3.78 44.44-5.52 1.51-.18 3.13.68 4.64 2.09-49.87 10.53-100.26 17.2-149.88 31.03z"/><path d="m38.17 137.81c.41-1.59.8-3.13 1.2-4.69 6.5 1.4 12.85 2.56 19.08 4.16 8.17 2.1 14.73-.26 20.1-6.49 11.62-13.49 23.22-26.99 34.81-40.5 4.33-5.04 8.6-10.14 13.25-15.63 1.77 1.3 3.44 2.53 5.5 4.04-8.03 10.69-15.9 21.17-23.77 31.65-8.59 11.43-17.37 22.72-25.63 34.39-2.08 2.94-3.31 7.03-3.47 10.65-.31 7.28.56 14.6.59 21.91.01 3.09-.45 6.33-1.45 9.25-1.21 3.52-3.97 5.22-7.91 4.01-1.26-.39-2.57-.62-3.83-1.02-7.77-2.46-9.5-6.01-7.14-13.96 1.75-5.87 3.6-11.74 4.79-17.73 1.37-6.88-.42-10.35-6.9-13.14-6.05-2.63-12.44-4.51-19.22-6.9z"/><path d="m103.88 76.11c-2.02-2.64-4.11-4.45-5.05-6.73-5.61-13.68-15.17-24.06-26.89-32.79.91-3.51 2.55-4.62 6.06-2.92 7.02 3.39 14.24 6.35 21.25 9.75 2.65 1.29 5.42 2.89 7.34 5.06 8.15 9.18 8.96 15.05 1.82 22.01-1.42 1.36-2.5 3.06-4.53 5.62z"/><path d="m42.89 67.33c11.56 4.17 24.31 6.27 33.06 16.47 5.44 6.35 3.93 15.18-3.25 19.51-.84.51-2.68.38-3.43-.23-1.37-1.11-2.53-2.67-3.33-4.27-5.14-10.37-12.97-18.36-22.06-25.24-2.19-1.66-3.74-3.3-.99-6.24z"/><path d="m85.55 349.39c-1.56-2.92-2.93-4.52-3.29-6.32-1.91-9.55-7.69-16.35-14.99-22.24-1.05-.85-1.43-2.51-2.12-3.8 1.34-.03 2.87-.5 3.98-.01 7.5 3.33 15.33 6.19 22.22 10.53 5.98 3.77 5.95 7.26 1.82 13.01-2 2.77-4.46 5.2-7.62 8.83z"/></g><path d="m6.45 374.46.42-.45c.65.47 1.27.95 1.85 1.44l-.45.49c-.66-.56-1.26-1.06-1.83-1.48m.93 7.33-.63-.26c.55-1.36 1.05-2.8 1.52-4.33.19.1.38.19.59.27-.46 1.29-.95 2.73-1.48 4.32m-.38-10.38.44-.42c.43.34 1.01.82 1.74 1.44l-.49.49c-.53-.51-1.09-1.01-1.69-1.51m2.5.35h1.72v-1.04h.59v1.04h3.52v-1.04h.59v1.04h1.75v.53h-1.75v1.42h-2.03v.97h3.22v2.03h-3.24c0 .35-.01.66-.03.93h3.32v.53h-3.37c-.03.27-.08.58-.15.94h3.96v.53h-3.71c.67.92 1.93 1.48 3.79 1.68-.13.24-.23.44-.29.59-2.13-.38-3.48-1.08-4.04-2.12-.43.97-1.77 1.72-4.03 2.23-.09-.19-.2-.37-.33-.55 2.1-.42 3.37-1.03 3.81-1.83h-3.36v-.53h3.58c.08-.29.13-.61.16-.94h-3.33v-.53h3.39c.02-.27.04-.58.04-.93h-3.23v-2.03h3.25v-.97h-2.07v-1.42h-1.73zm1.12 3.44v1h2.65c.01-.3.02-.44.01-.4v-.25-.35zm1.19-2h3.52v-.91h-3.52zm4.71 2h-2.63v.59c0 .15-.01.28-.01.4h2.64z" fill="#fafafc"/><path d="m13.55 383.74h.63v1.52h2.72v6.07h1.13v.6h-11.05v-.6h1.13v-6.07h2.73v-1.52h.63v1.52h2.1v-1.52zm-2.68 8.83.38.56c-1.24.63-2.53 1.25-3.85 1.85-.1-.21-.21-.42-.34-.63 1.36-.55 2.63-1.15 3.81-1.78m-2.13-4.27h2.1v-2.45h-2.1zm0 3.04h2.1v-2.46h-2.1zm2.72-3.04h2.1v-2.45h-2.1zm0 3.04h2.1v-2.46h-2.1zm6.07 3.6c-1.41-.71-2.7-1.3-3.86-1.78l.35-.56c1.45.62 2.75 1.19 3.88 1.72zm-1.25-9.09h-2.1v2.45h2.1zm-2.09 5.49h2.1v-2.46h-2.1z" fill="#fafafc"/></svg>