<svg enable-background="new 0 0 400 400" viewBox="0 0 400 400" xmlns="http://www.w3.org/2000/svg"><g fill="#fafbfc"><path d="m346.9 398 5.4-7.3h-5.2v-.6h5.9v.6l-5.4 7.2h5.5l-.1.6h-6.2v-.5z"/><path d="m354.7 390.1h2.8c2.3 0 3.9 1.6 3.9 4.1s-1.6 4.3-3.9 4.3h-2.8zm.6 7.8h2c2.2 0 3.3-1.6 3.3-3.6 0-1.8-1-3.6-3.3-3.6h-2z"/><path d="m363.9 390.1v8.4h-.6v-8.4z"/><path d="m372.5 396.3c-.4 1.3-1.4 2.3-3.2 2.3-2.4 0-3.7-1.9-3.7-4.3 0-2.3 1.2-4.3 3.7-4.3 1.8 0 2.9 1 3.2 2.4h-.6c-.4-1.1-1.1-1.8-2.5-1.8-2.1 0-3 1.9-3 3.7s.9 3.7 3 3.7c1.4 0 2.1-.7 2.5-1.7z"/><path d="m373.8 398.5v-1.5h.6v1.5z"/><path d="m376.2 398.5v-8.4h1c1.3 2 4.4 6.7 4.9 7.6-.1-1.2-.1-2.4-.1-3.8v-3.8h.7v8.4h-.9c-1.2-1.9-4.4-6.8-5-7.7.1 1.1 0 2.3 0 3.9v3.9h-.6z"/><path d="m390 394.4h-4.3v3.5h4.7l-.1.6h-5.2v-8.4h5.1v.6h-4.5v3.1h4.3z"/><path d="m394.2 390.7h-2.8v-.6h6.3v.6h-2.8v7.8h-.7z"/></g><path d="m43.93 152.19c-.04 5.55 3.97 7.83 7.69 10.53 1.66 1.2 3.16 3.11 3.9 5.03 5.1 13.12 9.8 26.4 15.04 39.47 2.01 5.03 2.3 10.07 2.05 15.24-.22 4.65.75 8.89 2.6 13.2 3.68 8.55 6.87 17.31 10.26 25.99 3.19 8.17 7.67 15.56 13.48 22.14.42.48.8 1.02 1.31 1.38 12.53 8.85 24.1 19.11 38.02 25.94 7.72 3.78 15.67 5.89 24.26 4.28 1.38-.26 2.92-1.24 3.81-2.35 3.47-4.37 3.94-9.41 2.82-14.76-5.23-24.99-5.71-50.2-4.04-75.6 1.06-16.06 1.16-32.19 1.55-48.3.03-1.26-.77-2.83-1.68-3.79-4.65-4.92-10.16-8.76-16.52-11.03-9.66-3.43-17.29-9.48-24.17-16.87-8.38-9-17.25-17.55-25.45-26.71-2.48-2.77-4-6.76-4.96-10.45-3.05-11.75-4.21-23.6.86-35.2.63-1.45 1.49-2.8 2.33-4.14.5-.79 1.17-1.46 1.97-2.44 1.51 1.41 2.91 2.68 4.27 3.99 11.82 11.41 23.46 23.02 35.52 34.18 6.37 5.9 13.52 10.91 22.51 12.93 4.51-8.6 6.77-17.75 7.89-27.28.59-5.04.93-10.2 2.35-15.02 2.62-8.9 8.91-14.92 17.06-19.21 5.83 4.61 7.82 11.12 8.5 17.93.69 6.94.33 13.98.84 20.94.35 4.82 1.1 9.67 2.25 14.36.57 2.35 2.15 4.62 3.77 6.5 3.67 4.27 5.75 4.22 9.63.34 4.2-4.2 8.22-8.6 12.64-12.55 6.12-5.47 10.91-11.7 13.59-19.55.4-1.17 2.15-1.89 3.28-2.81.08-.06.21-.05.3-.1 7.12-3.45 13.13-2.2 17.85 4.27.95 1.31 1.75 2.76 2.39 4.25.49 1.12.62 2.4.97 3.82 1.13-.73 2-1.3 2.88-1.87 2.75 1.08 4.14 3.24 4.85 5.91.27 1.02.53 2.08.54 3.12.04 3.79 1.39 8.54-.38 11.16-2.65 3.92-7.42 6.48-11.52 9.29-.77.53-2.58-.45-4.08-.78.05-.04-.24.07-.25.21-.61 5.33-4.33 6.83-8.94 7.53-9.59 1.44-17.37 7.02-25.6 11.52-4.35 2.38-9.67 4.09-12.59 7.69-2.84 3.51-3.19 9.04-4.59 13.7-1.43 4.76-2.67 9.59-4.27 14.3-.94 2.76-.87 5.25-.03 8.02.47 1.53.48 3.73-.29 5.04-7.24 12.33-8.33 25.91-8.95 39.76-.71 15.99-1.97 31.95-3.16 47.91-.7 9.39-2.29 18.74-2.44 28.13-.18 11.53.29 11.54 11.7 11.54 6.68 0 13.37-.16 20.04.07 3.32.12 5.99-.55 8.08-3.21.57-.72 1.41-1.23 2.23-1.92 4.22 3.48 8.95 3.62 13.9 2.54 1.24-.27 2.52-.66 3.76-.58 6.39.42 9.92-3.2 13.37-8.07 11.83-16.68 24.41-32.85 36-49.7 4.99-7.25 8.41-15.6 12.26-23.59 5.38-11.15 10.5-22.43 15.74-33.65.45-.96.83-2 1.5-2.79 5.78-6.89 8.67-15.19 11.61-23.48 2.45-6.92 4.75-8.38 12.17-8.81 4.88-.28 8.65.81 10.45 5.91.8 2.28 2.1 4.39 3.06 6.62 2.85 6.65 3.42 13.64.15 20.04-7.02 13.72-14.66 27.12-22.01 40.57-5.08-2.26-6.18-1.99-9.36 1.74-.34.4-.72.8-.97 1.25-9.42 16.64-22.84 30.23-34.37 45.27-1.03 1.35-2.21 2.59-3.18 3.97-4.2 5.99-9.48 10.73-15.92 14.26-2 1.1-3.78 2.71-5.44 4.32-4.42 4.27-9.04 8.4-13 13.08-6.65 7.86-15.16 12.63-24.48 16.45-29.77 12.24-60.53 18.43-92.79 15.17-7.35-.74-14.63-2.32-21.92-3.61-1.21-.21-2.4-.82-3.5-1.41-13.97-7.56-27.93-15.14-41.88-22.74-1.01-.55-2.19-1.1-2.8-1.99-8.71-12.78-17.55-25.48-25.84-38.52-2.22-3.5-3.72-8.07-3.81-12.19-.22-9.23-1.89-18.17-4.45-26.87-4.55-15.45-4.69-31.07-3.55-46.89.62-8.56.72-17.16 1.23-25.73.1-1.68.72-3.5 1.62-4.93 2.4-3.84 5.08-7.5 7.65-11.23.28-.02.55-.05.83-.08z" fill="#010104"/></svg>