<svg enable-background="new 0 0 400 400" viewBox="0 0 400 400" xmlns="http://www.w3.org/2000/svg"><g fill="#fafbfc"><path d="m346.9 398 5.4-7.3h-5.2v-.6h5.9v.6l-5.4 7.2h5.5l-.1.6h-6.2v-.5z"/><path d="m354.7 390.1h2.8c2.3 0 3.9 1.6 3.9 4.1s-1.6 4.3-3.9 4.3h-2.8zm.6 7.8h2c2.2 0 3.3-1.6 3.3-3.6 0-1.8-1-3.6-3.3-3.6h-2z"/><path d="m363.9 390.1v8.4h-.6v-8.4z"/><path d="m372.5 396.3c-.4 1.3-1.4 2.3-3.2 2.3-2.4 0-3.7-1.9-3.7-4.3 0-2.3 1.2-4.3 3.7-4.3 1.8 0 2.9 1 3.2 2.4h-.6c-.4-1.1-1.1-1.8-2.5-1.8-2.1 0-3 1.9-3 3.7s.9 3.7 3 3.7c1.4 0 2.1-.7 2.5-1.7z"/><path d="m373.8 398.5v-1.5h.6v1.5z"/><path d="m376.2 398.5v-8.4h1c1.3 2 4.4 6.7 4.9 7.6-.1-1.2-.1-2.4-.1-3.8v-3.8h.7v8.4h-.9c-1.2-1.9-4.4-6.8-5-7.7.1 1.1 0 2.3 0 3.9v3.9h-.6z"/><path d="m390 394.4h-4.3v3.5h4.7l-.1.6h-5.2v-8.4h5.1v.6h-4.5v3.1h4.3z"/><path d="m394.2 390.7h-2.8v-.6h6.3v.6h-2.8v7.8h-.7z"/></g><path d="m188.34 153.62c-.16-5.61-1.31-9.93-5.75-13.45-6.8-5.4-14.13-9.66-22.02-13.15-8.32-3.68-16.65-7.28-23.96-12.95-2.07-1.6-5.34-1.84-8.12-2.3-4.59-.75-8.89-2.02-12.2-5.46-3.44-3.58-7.99-4-12.48-4.68-7.94-1.2-11.13-4.53-11.33-12.71-.09-3.55.8-7.12 1.22-10.69.27-2.31 1.76-2.91 3.84-3.36 9.45-2.04 18.58-.15 27.59 2.29 20.55 5.57 39.19 15.28 56.96 26.81.53.35 1.05.72 1.6 1.03 12.13 6.78 21.8 15.84 27.9 28.63 1.89 3.97 3.79 7.58 3.7 12.16-.09 4.97.59 9.94.76 14.92.07 2.08.93 2.81 2.9 3.33 30.31 7.96 60.67 15.77 90.87 24.13 15.39 4.26 29.74 11.22 42.77 20.51 6.86 4.88 11.08 11.67 10.73 20.52-.04.96-.93 2.29-1.79 2.75-2.13 1.14-4.43 2.04-6.75 2.72-2.79.82-5.13-.06-7.66-1.73-5.27-3.47-10.58-7.39-16.47-9.32-23.22-7.6-46.62-14.69-70.07-21.59-14.3-4.21-28.76-7.9-43.25-11.43-4.34-1.06-9-.99-13.52-1.12-2.7-.08-4.86 1.2-6.72 3.44-5.06 6.11-10.24 12.08-17.2 16.32-1.84 1.12-3.02 4.07-3.57 6.4-1.63 6.91-5.85 10.14-13.6 10.12-11.98-.04-23.84 2.15-35.74 2.69-14.35.65-28.79-.59-43.18-1.19-7.73-.32-15.49-.63-23.14-1.67-7.31-1-14.55-2.74-21.7-4.61-1.64-.43-3.01-2.56-4.13-4.17-4.07-5.79-3.68-13.71.94-18.83.67-.74 2.15-1.27 3.15-1.13 7.33 1.09 14.66 2.27 21.94 3.67 2.08.4 4 1.63 6.78 2.82 4.06-2.73 9.52-1.4 14.85-.34 13.48 2.7 27.16 3.16 40.81 3.3 8 .08 15.61-2.27 22.35-7.11 4.45-3.2 9.56-5.51 13.92-8.82 2.65-2 4.44-5.14 6.61-7.77-2.85-1.61-5.54-3.87-8.61-4.66-3.93-1.02-8.19-.71-12.27-1.25-13.11-1.74-26.23-3.46-39.31-5.47-13.29-2.04-26.61-4.04-39.78-6.76-10.45-2.15-20.69-5.32-31.01-8.12-2.11-.57-2.96-4.69-1.39-6.69 2.23-2.83 4.5-5.64 6.99-8.24.85-.89 2.34-1.34 3.62-1.64 19.44-4.52 38.71-2.76 57.95 1.48 18.1 3.99 36.19 8.05 54.38 11.57 5.75 1.11 11.81.64 17.73.78 4.52.1 9.07.02 13.86.02z" fill="#010104"/><path d="m126.18 328.92c-6.74-.85-13.36-1.58-19.94-2.61-1.31-.21-2.86-1.31-3.58-2.46-8.31-13.2-11.3-27.51-8.24-42.89 1.79-9.03 3.85-18 5.92-26.97.31-1.34 1.15-2.74 2.13-3.73 4.48-4.47 8.6-9.43 14.81-11.75 1.84-.69 3.35-.49 5.34.16 2.85.93 6.55 1.56 9.18.52 14.62-5.75 30.12-5.35 45.3-7.16 9.99-1.19 20.01-2.15 30.04-2.92 13.43-1.04 26.69.27 39.56 4.25 10.45 3.23 15.48 11.48 18.53 21.37 1.03 3.34.25 6.36-.34 9.61-1.23 6.72-4.27 12.1-9.26 16.82-5.69 5.38-10.75 11.42-16.18 17.07-1.05 1.09-2.49 1.89-3.89 2.52-5.09 2.3-10.57 3.92-15.29 6.81-11.18 6.85-23.23 9.91-36.18 10.44-3.37.14-6.98 1.03-9.96 2.58-5.83 3.04-12.14 3.63-18.38 4.56-9.82 1.48-19.72 2.54-29.57 3.78zm27.05-30.16c20.64-1.59 43.01-6.28 64.5-15.01 11.98-4.87 16.49-14.75 18.04-26.56.55-4.23-1.24-6.87-5.27-8.37-2.75-1.02-5.68-1.61-8.57-2.17-7.77-1.49-15.4.08-23.03 1.25-21.76 3.32-43.53 6.66-65.27 10.12-6.07.97-6.97 2.52-6.05 8.76.17 1.15.28 2.34.68 3.42 2.68 7.2.14 12.76-5.26 17.55-.89.79-2.14 2.39-1.86 3.08.77 1.9 1.15 4.15 3.89 4.93 8.44 2.44 17.04 3.21 28.2 3zm-4.92-57.31c-.94-1.1-1.62-1.88-2.26-2.63-4.99 2.16-5.11 2.38-3.15 5.79 1.67-.98 3.35-1.96 5.41-3.16zm-36.67 74.15c-.32-.02-.65-.04-.97-.05v5.46c.32-.01.65-.01.97-.02 0-1.8 0-3.59 0-5.39z" fill="#010104"/></svg>