<svg enable-background="new 0 0 400 400" viewBox="0 0 400 400" xmlns="http://www.w3.org/2000/svg"><g fill="#fafbfc"><path d="m346.9 398 5.4-7.3h-5.2v-.6h5.9v.6l-5.4 7.2h5.5l-.1.6h-6.2v-.5z"/><path d="m354.7 390.1h2.8c2.3 0 3.9 1.6 3.9 4.1s-1.6 4.3-3.9 4.3h-2.8zm.6 7.8h2c2.2 0 3.3-1.6 3.3-3.6 0-1.8-1-3.6-3.3-3.6h-2z"/><path d="m363.9 390.1v8.4h-.6v-8.4z"/><path d="m372.5 396.3c-.4 1.3-1.4 2.3-3.2 2.3-2.4 0-3.7-1.9-3.7-4.3 0-2.3 1.2-4.3 3.7-4.3 1.8 0 2.9 1 3.2 2.4h-.6c-.4-1.1-1.1-1.8-2.5-1.8-2.1 0-3 1.9-3 3.7s.9 3.7 3 3.7c1.4 0 2.1-.7 2.5-1.7z"/><path d="m373.8 398.5v-1.5h.6v1.5z"/><path d="m376.2 398.5v-8.4h1c1.3 2 4.4 6.7 4.9 7.6-.1-1.2-.1-2.4-.1-3.8v-3.8h.7v8.4h-.9c-1.2-1.9-4.4-6.8-5-7.7.1 1.1 0 2.3 0 3.9v3.9h-.6z"/><path d="m390 394.4h-4.3v3.5h4.7l-.1.6h-5.2v-8.4h5.1v.6h-4.5v3.1h4.3z"/><path d="m394.2 390.7h-2.8v-.6h6.3v.6h-2.8v7.8h-.7z"/></g><path d="m200.66 209.01c-1.21-2.51-2.15-4.48-3.27-6.81 4.86-1.48 5.73-4.82 4.21-8.86-2.8-.94-5.44-1.82-8.6-2.87 4.86-4.39 9.74-7.62 15.26-9.36 8.56-2.69 17.38-4.56 25.99-7.11 6.69-1.98 13.33-4.19 19.81-6.77 7.26-2.9 10.67-10.04 8.83-17.64-.25-1.04-1.18-2.26-2.12-2.72-10.66-5.2-21.37-10.28-32.1-15.33-.9-.43-2.05-.68-3.02-.55-6.51.88-13 1.84-19.48 2.93-.96.16-2.05.93-2.64 1.74-3.4 4.64-8.09 6.09-13.43 6.04-2.49-8.8 2.28-14.94 7.51-20.45 3.75-3.95 8.72-6.71 12.84-10.34 4.11-3.61 7.81-7.68 11.77-11.47.7-.67 2-1.52 2.7-1.29 14.06 4.64 28.1 9.32 42.06 14.22 4.75 1.67 8.34 4.81 10.03 9.87.53 1.6 1.89 2.93 3.07 4.69-.15.35-.47 1.1-.89 2.08 1.23.34 2.3.85 3.4.91 2.96.16 4.82 1.68 6.22 4.18 2.9 5.17 6.22 10.12 8.8 15.43 2.43 4.99 1.79 10.18-1.41 14.75-2.89 4.11-4.7 8.42-4.71 13.54-.01 5.29-2.07 7.54-7.35 8.61-11 2.22-21.98 4.63-33.05 6.46-2.93.48-6.21-.67-9.24-1.41-3.27-.8-6.42-2.3-10.17-.26 1.45 1.63 2.81 3.18 4.2 4.7 4.01 4.38 8.1 8.69 11.99 13.17 1.06 1.22 1.51 2.95 2.25 4.45-.29.19-.57.38-.86.57 2.91 1.93 5.89 3.74 8.7 5.8 4.34 3.19 8.7 6.4 12.77 9.91 2.19 1.89 4.44 2.9 7.25 3.37 2.3.38 4.52 1.46 6.69 2.42 3.85 1.71 7.5 3.96 11.46 5.28 22.06 7.32 42 18.48 60.36 32.62 4.06 3.13 6.25 7.16 6.26 12.23 0 1.29-.62 2.87-1.5 3.82-9.62 10.4-21.54 15.41-35.74 14.88-.11 0-.21-.01-.32 0-24.99 1.96-43.33-11.34-60.25-27.02-10.39-9.63-20.01-20.15-29.39-30.79-4.21-4.78-7.12-10.75-10.34-16.34-1.56-2.71-3.25-4.07-6.61-4.24-7.71-.41-11.94-6.62-10.01-14.05.5-1.94 1.37-3.78 1.91-5.71.72-2.58-.13-3.43-2.77-3.59-4.13-.26-5.55 2.67-7.07 6.31zm74.94-62.85c-4.75 4.15-4.42 6.18 1.16 8.43.68.27 1.27.8 1.96 1.01.62.19 1.54.38 1.94.07.43-.33.64-1.3.52-1.91-.64-3.32-1.84-6.3-5.58-7.6z" fill="#010104"/><path d="m180.4 137.46c1.97 2.83 3.83 5.49 5.94 8.51-2.69.93-5.15 1.76-7.59 2.63-2.1.74-4.24 1.37-6.26 2.28-5.09 2.32-6.3 4.41-4.44 9.65 2.06 5.8 1.93 11.01-1.71 16.11-1.15 1.62-1.7 3.66-2.78 5.34-.59.92-1.79 1.43-2.61 2.23-.68.66-1.3 1.41-1.78 2.22-1.07 1.78-1.72 3.94-3.12 5.38-5.61 5.74-11.89 10.51-19.98 12.33-2.42.54-4.6.9-5.91-1.78-3.94.61-5.85 3.71-7.72 6.35-2.67 3.77-5.76 4.8-9.97 3.35-2.71-.94-4.9-.32-7.27 1.53-1.37 1.07-3.87.96-5.86.92-2.89-.06-5.88-1.28-8.16 1.71-.32.42-1.38.42-2.09.39-5.08-.19-10.16-.45-15.24-.65-3.51-.14-6.93-.43-10.02-2.46-.87-.57-2.22-.54-3.35-.55-7.74-.04-15.48-.08-23.22.02-1.78.02-2.65-.54-3.27-2.19-1.67-4.44-1.49-8.88-.68-13.44 2.59-14.47 9.62-26.43 19.97-36.72 10.45-10.39 20.76-20.92 30.83-31.68 3.95-4.23 7.29-9.09 10.48-13.95 1.82-2.79 3.72-3.31 6.49-2.05 6.63 3.04 13.41 5.78 19.83 9.22 7.74 4.15 15.38 8.57 22.65 13.48 4.04 2.73 7.12 6.82 10.88 10.02 1.35 1.15 3.5 2.22 5.12 2.02 2.75-.35 5.52-1.46 8.02-2.75 4.27-2.26 8.38-4.88 12.82-7.47zm-71.88 53.37c8.4-6.05 16.81-12.1 25.19-18.18.49-.35.91-.93 1.13-1.49 1.43-3.63 3.11-7.21 4.1-10.96 1.84-6.92.18-11.01-5.71-15.05-2.09-1.43-4.3-2.75-6.62-3.75-6.31-2.71-12.68-5.27-19.08-7.75-.82-.32-2.26-.12-2.91.43-3.44 2.9-6.74 5.97-10.06 9.01-2.31 2.11-4.35 4.6-6.93 6.29-2.62 1.72-5.19 3.08-5.73 6.59-.16 1.01-1.21 1.94-2 2.77-6.28 6.61-12.81 12.99-18.75 19.88-1.69 1.96-2.46 5.44-2.23 8.1.24 2.82 3.19 4 6.05 4.13 8.34.36 16.69.8 25.04.88 2.1.02 4.18-1.37 6.32-1.81 4.06-.83 8.28-3.31 12.19.91z" fill="#010104"/></svg>