<svg enable-background="new 0 0 400 400" viewBox="0 0 400 400" xmlns="http://www.w3.org/2000/svg"><g fill="#fafbfc"><path d="m346.9 398 5.4-7.3h-5.2v-.6h5.9v.6l-5.4 7.2h5.5l-.1.6h-6.2v-.5z"/><path d="m354.7 390.1h2.8c2.3 0 3.9 1.6 3.9 4.1s-1.6 4.3-3.9 4.3h-2.8zm.6 7.8h2c2.2 0 3.3-1.6 3.3-3.6 0-1.8-1-3.6-3.3-3.6h-2z"/><path d="m363.9 390.1v8.4h-.6v-8.4z"/><path d="m372.5 396.3c-.4 1.3-1.4 2.3-3.2 2.3-2.4 0-3.7-1.9-3.7-4.3 0-2.3 1.2-4.3 3.7-4.3 1.8 0 2.9 1 3.2 2.4h-.6c-.4-1.1-1.1-1.8-2.5-1.8-2.1 0-3 1.9-3 3.7s.9 3.7 3 3.7c1.4 0 2.1-.7 2.5-1.7z"/><path d="m373.8 398.5v-1.5h.6v1.5z"/><path d="m376.2 398.5v-8.4h1c1.3 2 4.4 6.7 4.9 7.6-.1-1.2-.1-2.4-.1-3.8v-3.8h.7v8.4h-.9c-1.2-1.9-4.4-6.8-5-7.7.1 1.1 0 2.3 0 3.9v3.9h-.6z"/><path d="m390 394.4h-4.3v3.5h4.7l-.1.6h-5.2v-8.4h5.1v.6h-4.5v3.1h4.3z"/><path d="m394.2 390.7h-2.8v-.6h6.3v.6h-2.8v7.8h-.7z"/></g><path d="m360.76 157.04c-4.12-2.58-8.25-5.15-12.63-7.89-.72.97-1.44 1.94-2.03 2.75 3.87 3.22 7.77 6 11.12 9.33 8.32 8.26 8.25 21.47.13 30.03-1.75 1.85-3.37 3.84-5.25 5.54-6.03 5.44-10.36 11.91-12.84 19.67-.38 1.19-1.69 2.38-2.87 2.98-3.68 1.87-7.43 3.64-11.28 5.1-11.3 4.28-20.95 11.49-31.34 17.38-22.95 13.01-47.77 20.54-73.6 24.99-6.33 1.09-12.09 3.04-17.83 6.07-4.62 2.43-10.4 2.57-15.5 4.22-10.71 3.46-21.38 1.45-32.09.34-6.85-.71-13.69-1.94-20.55-2.03-5.45-.07-10.91 1.22-16.36 1.95-3.57.48-7.14.99-10.68 1.62-2.47.44-4.61.1-6.98-.95-6.61-2.91-13.67-2.55-20.66-1.88-10.8 1.02-21.58 1.81-32.15-1.54-5.69-1.81-10.56-5.1-14.02-9.91-1.22-1.7-1.92-4.97-1.12-6.73 3.79-8.33 6.02-16.84 6.3-26.03.25-8.26 3.45-15.82 6.84-23.3 6.46-14.27 12.87-28.57 18.75-43.08 2.68-6.6 7.4-11.51 11.39-17.07 1.99-2.77 4.51-4.46 7.66-5.79 15.57-6.58 31.96-9.66 48.58-11.94 18.15-2.49 36.27-5.3 54.4-7.95 1.35-.2 2.75-.37 4.11-.28 12.69.86 25.37 1.77 38.05 2.71 1.04.08 2.27.14 3.04.72 3.75 2.8 7.79 2.85 12.01 1.58 6.65-2.01 13.26-.36 19.86.26 16.03 1.52 32.05 3.24 48.07 4.91 5.88.62 11.07 2.68 15 7.36 1.15 1.37 2.52 2.58 3.93 3.69 4.07 3.18 4.12 3.18 8.53.42 2.36-1.48 4.49-1.48 7.15-.36 6.31 2.64 11.72 6.22 15.3 12.21-.15.28-.29.59-.44.9zm-206.13 6.6c-2.07-.83-3.84-1.84-5.75-2.25-11.07-2.38-22.17-4.65-33.28-6.83-1.12-.22-2.53.18-3.6.71-5.69 2.83-11.28 5.85-16.97 8.68-1.8.9-2.18 1.77-1.83 3.91 2.04 12.14 7.38 23.99 3.53 36.69-.09.29-.09.64-.04.95.71 4.74-1.2 8.67-4.46 11.71-2.71 2.53-2.97 5.2-2.43 8.5.31 1.9 1.09 2.81 2.96 2.89 5.92.27 11.86 1.05 17.74.72 8.95-.5 15.2-4.71 18.61-13.72 3.05-8.06 6.94-16.01 11.77-23.13 6-8.82 9.63-18.53 13.75-28.83zm93.94 65.71v.1c2.65 0 5.31.11 7.95-.02 7.56-.37 14.34-2.65 19.55-8.48 4.67-5.21 9.18-10.58 14.04-15.6 6.25-6.45 12.3-13.27 19.4-18.66 4.16-3.15 5.98-5.83 5.54-10.89-.46-5.28-.94-6.54-6-8.24-1.59-.54-3.26-.95-4.93-1.15-6.72-.83-13.46-1.58-20.19-2.28-.77-.08-1.67.16-2.37.53-8.14 4.26-14.72 10.18-19.7 17.98-5.86 9.18-12.11 18.12-18 27.28-2.5 3.89-4.66 8.03-6.69 12.2-.58 1.2-.38 2.91-.17 4.33.28 1.95 1.26 3.17 3.64 2.96 2.62-.24 5.29-.06 7.93-.06zm-63.3 4.37c7.51-.08 13.46-2.88 18.13-8.63 1.32-1.63 2.7-3.37 4.42-4.49 3.91-2.55 4.99-6.3 4.52-10.44-.54-4.74 1.23-8.44 3.93-12 1.14-1.51 2.41-2.98 3.24-4.66 2.57-5.22 5.07-10.47 7.35-15.82 1.32-3.09 2.45-6.32 3.1-9.61.48-2.43.44-5.39-2.64-6.4-3.51-1.16-7.14-1.95-10.75-2.76-.71-.16-1.67.18-2.34.57-7.98 4.65-14.66 10.74-19.95 18.32-6.6 9.45-12.7 19.29-19.86 28.29-4.47 5.63-6.39 12.03-8.74 18.43-.31.85-.19 1.89-.17 2.83.04 1.91.8 3.1 2.92 3.43 5.63.9 11.23 1.95 16.84 2.94zm25.41-102.54c-.47.19-.93.39-1.4.58.67 2.73.91 5.67 2.15 8.11 1.15 2.27 3.29 4.07 5.15 5.93.54.53 1.67.84 2.43.71 3.53-.61 4.38-4.43 1.34-7.38-2.98-2.89-6.42-5.31-9.67-7.95zm45.58 9.28c1.33 2.43 3.86 2.65 7.55.78-3.49-4.17-3.49-4.17-7.55-.78z" fill="#010104"/></svg>