<svg enable-background="new 0 0 400 400" viewBox="0 0 400 400" xmlns="http://www.w3.org/2000/svg"><g fill="#fafbfc"><path d="m346.9 398 5.4-7.3h-5.2v-.6h5.9v.6l-5.4 7.2h5.5l-.1.6h-6.2v-.5z"/><path d="m354.7 390.1h2.8c2.3 0 3.9 1.6 3.9 4.1s-1.6 4.3-3.9 4.3h-2.8zm.6 7.8h2c2.2 0 3.3-1.6 3.3-3.6 0-1.8-1-3.6-3.3-3.6h-2z"/><path d="m363.9 390.1v8.4h-.6v-8.4z"/><path d="m372.5 396.3c-.4 1.3-1.4 2.3-3.2 2.3-2.4 0-3.7-1.9-3.7-4.3 0-2.3 1.2-4.3 3.7-4.3 1.8 0 2.9 1 3.2 2.4h-.6c-.4-1.1-1.1-1.8-2.5-1.8-2.1 0-3 1.9-3 3.7s.9 3.7 3 3.7c1.4 0 2.1-.7 2.5-1.7z"/><path d="m373.8 398.5v-1.5h.6v1.5z"/><path d="m376.2 398.5v-8.4h1c1.3 2 4.4 6.7 4.9 7.6-.1-1.2-.1-2.4-.1-3.8v-3.8h.7v8.4h-.9c-1.2-1.9-4.4-6.8-5-7.7.1 1.1 0 2.3 0 3.9v3.9h-.6z"/><path d="m390 394.4h-4.3v3.5h4.7l-.1.6h-5.2v-8.4h5.1v.6h-4.5v3.1h4.3z"/><path d="m394.2 390.7h-2.8v-.6h6.3v.6h-2.8v7.8h-.7z"/></g><path d="m115.21 366.74c-4.11-7.72-3.8-14.53-1.44-21.39 5.38-15.61 11.19-31.08 16.15-46.82 6.21-19.73 11.03-39.82 12.44-60.56.29-4.23.26-8.48.55-12.71.1-1.4.78-2.76 1.14-4.16.17-.66.3-1.36.25-2.02-.2-2.57-.62-5.13-.69-7.71-.13-4.55-.76-9.23.07-13.62 1.79-9.42 4.38-18.7 6.66-28.1 3.96.67 6.13 2.67 7.97 5.22 5.56 7.7 10.84 10.28 19.69 7.19 13.26-4.62 26.44-3.65 39.87-1.95 4.53.57 9.38 1.78 13.6-1.12 2.49-1.7 4.81-3.76 6.82-6.01 3.92-4.37 8.83-4.11 11.89.9 1.66 2.71 3.31 5.42 4.96 8.14.11.18.14.4.27.76-1.89 1.55-1.69 2.95.35 4.46 2.75 2.02 3.47 5.09 3.06 8.24-.8 6.06.34 11.69 2.48 17.38 2.94 7.8 3 16.12 1.82 24.21-3 20.61-3.29 41.4-4.76 62.11-.77 10.9-1.79 21.79-6.93 31.75-.91 1.77-2.04 3.45-3.18 5.09-1.66 2.38-4.22 2.03-6.35 1.32-1.06-.36-2.06-2.2-2.31-3.51-2.81-14.78-5.74-29.57-4.21-44.77.43-4.21.73-8.44.96-12.67.08-1.46-.1-2.98-.4-4.42-.8-3.82-2.12-4.82-5.92-4.23-8.07 1.27-16.16 1.25-24.33 1.4-15.08.27-30.31-.18-45.14 3.8-2.08.56-3.49 1.41-4.05 3.41-1.24 4.47-2.28 9-3.6 13.45-1.74 5.86-3.37 11.77-5.59 17.46-2.3 5.91-5.2 11.59-7.94 17.32-1.57 3.28-3.05 6.52-2.52 10.3.07.5.01 1.1-.2 1.56-3.9 8.33-7 17.15-13.33 24.07-2.14 2.39-5.16 4.02-8.11 6.23zm44.65-108.72c3.23-.21 6.07-.29 8.89-.59 8.92-.93 17.99-.37 26.73-3.11 2.05-.64 4.38-.7 6.55-.55 4.85.33 9.73 1.6 14.52 1.28 5.7-.38 11.35-1.9 16.95-3.25 1.07-.26 2.41-1.95 2.54-3.1.62-5.79.91-11.61 1.24-17.43.04-.76-.11-2.04-.56-2.24-2.5-1.15-4.71-2.89-7.99-1.65-7.86 2.96-16.08 4.53-24.51 4.7-10.37.2-20.75.21-31.12.51-2.47.07-5 .76-7.35 1.58-.94.33-1.93 1.69-2.14 2.73-1.34 6.86-2.47 13.75-3.75 21.12zm1.76-43.58c5.63 4.45 7.87 5.56 14.24 2.87 4.02-1.7 8.45-2.77 12.79-3.32 9.86-1.23 19.79-2.02 29.69-2.86 2.94-.25 5.95.22 8.86-.18 4.19-.56 5.46-3.09 4.05-7.1-1.08-3.06-3.57-4.46-6.48-4.97-4.58-.8-9.23-1.26-13.83-1.95-3.45-.52-6.89-1.76-10.3-1.64-7.6.26-15.2.99-22.76 1.88-3.63.43-7.4 1.18-10.65 2.72-2.05.97-3.51 3.55-4.72 5.69-.44.77.6 2.41 1.04 3.63.79 2.22.38 3.97-1.93 5.23zm-34.31 137.72c-.15-.31-.3-.62-.45-.93-3.75.98-7.5 1.95-12.1 3.15 1.4 2.21 2.05 4.42 3.45 5.09 1.15.55 3.6-.25 4.71-1.28 1.79-1.66 2.96-3.99 4.39-6.03z" fill="#010104"/><path d="m195.34 138.46c10.91 3.27 21.04 3.14 30.95 1.53 14.07-2.29 28.07-1.71 42.12-.83 3.13.19 6.28 1.01 9.31 1.91 4.47 1.33 6.55 5.16 5.48 9.7-.19.79-.91 1.64-1.62 2.08-5.79 3.62-12.01 5.28-18.97 5.17-6.63-.11-13.28 1.09-19.93 1.39-10.47.48-20.95.49-31.41 1.06-8.43.46-16.93.92-25.23 2.36-5.64.98-11.07.83-16.67.67-7.28-.2-14.58.39-21.86.78-6.76.36-13.54 1.21-20.15-1.02-4.02-1.36-4.22-3.53-3.8-7.54.64-6.08 5.01-7.31 9.3-8.73 8.94-2.97 18.13-3.69 27.58-3.29 5.59.24 11.26-1.32 17.3-2.13-.44-5.16-.76-9.99-1.34-14.79-.1-.82-1.16-1.68-1.99-2.22-6.15-4.01-12.89-3.14-19.7-2.46-9.57.97-19.18 1.56-29.32 2.36 0-4.4-.09-8.06.08-11.71.03-.72.96-1.54 1.66-2.07 5.29-4 11.47-5.37 17.91-5.58 7.62-.25 15.26-.21 22.88-.34 1.9-.03 3.95.17 5.65-.48 1.32-.5 2.67-2 3.15-3.36.64-1.79-.21-3.39-2.26-4.26-11-4.68-21.9-9.58-32.95-14.12-4.8-1.97-6.78-5.54-7.12-10.27-.25-3.48-.19-7-.05-10.49.16-3.84 5.44-6.84 8.85-5.16 9.77 4.84 19.54 9.69 29.31 14.53.94.46 1.89.9 3.08 1.47 1.63-3.98 2.73-7.96 1.09-11.82-2.87-6.77-.62-12.37 3.21-17.77 1.47-2.07 3.29-3.9 4.68-6.02 1.56-2.37 3.31-2.38 5.61-1.25 5.14 2.53 7.46 6.95 7.68 12.29.3 7.3-.09 14.62.06 21.92.09 4.18.66 8.35 1.06 13.11 6.89-6.04 13-11.74 19.49-16.99 7.33-5.93 14.86-11.64 22.6-17.01 1.81-1.26 4.82-1.02 7.28-1.07 6.87-.13 10.57 3.79 10.12 10.74-.14 2.19-.59 4.45-1.41 6.47-.44 1.09-1.9 1.84-3.01 2.58-1.02.68-2.24 1.07-3.29 1.72-3.38 2.11-6.56 4.6-10.11 6.36-6.16 3.05-12.59 5.56-18.82 8.47-6.55 3.06-13.2 5.74-20.39 6.84-1.72.26-2.37.99-2.23 2.7.12 1.47.02 2.97.02 4.45 0 5.03.01 4.95 5.17 5.72 9.78 1.45 19.44.03 29.15-.87 3.22-.3 6.6-.21 9.75.45 5.43 1.14 8.54 7.42 6.47 12.49-.28.7-1.3 1.3-2.1 1.55-5.24 1.69-10.51 2.76-16.13 3-7.89.35-15.73 1.87-23.6 2.81-1.32.16-2.86.27-4.01-.24-2.5-1.11-3.9-.21-4.63 2.04-1.38 4.3-2.59 8.63-3.95 13.17z" fill="#010104"/></svg>