<svg enable-background="new 0 0 400 400" viewBox="0 0 400 400" xmlns="http://www.w3.org/2000/svg"><g fill="#fafbfc"><path d="m346.9 398 5.4-7.3h-5.2v-.6h5.9v.6l-5.4 7.2h5.5l-.1.6h-6.2v-.5z"/><path d="m354.7 390.1h2.8c2.3 0 3.9 1.6 3.9 4.1s-1.6 4.3-3.9 4.3h-2.8zm.6 7.8h2c2.2 0 3.3-1.6 3.3-3.6 0-1.8-1-3.6-3.3-3.6h-2z"/><path d="m363.9 390.1v8.4h-.6v-8.4z"/><path d="m372.5 396.3c-.4 1.3-1.4 2.3-3.2 2.3-2.4 0-3.7-1.9-3.7-4.3 0-2.3 1.2-4.3 3.7-4.3 1.8 0 2.9 1 3.2 2.4h-.6c-.4-1.1-1.1-1.8-2.5-1.8-2.1 0-3 1.9-3 3.7s.9 3.7 3 3.7c1.4 0 2.1-.7 2.5-1.7z"/><path d="m373.8 398.5v-1.5h.6v1.5z"/><path d="m376.2 398.5v-8.4h1c1.3 2 4.4 6.7 4.9 7.6-.1-1.2-.1-2.4-.1-3.8v-3.8h.7v8.4h-.9c-1.2-1.9-4.4-6.8-5-7.7.1 1.1 0 2.3 0 3.9v3.9h-.6z"/><path d="m390 394.4h-4.3v3.5h4.7l-.1.6h-5.2v-8.4h5.1v.6h-4.5v3.1h4.3z"/><path d="m394.2 390.7h-2.8v-.6h6.3v.6h-2.8v7.8h-.7z"/></g><path d="m61 295.88c-1.38-1.16-2.58-2.16-4.04-3.39-1.3 3.88-1.49 7.62-.14 11.2 2.04 5.4 1.14 10.25-2.25 14.65-2.64 3.43-5.42 6.77-8.47 9.83-1.39 1.39-3.56 2-6.15 3.38-.71-3.73-1.95-6.74-1.71-9.63.81-10 1.82-20.01 3.47-29.9.45-2.67 3.32-5.01 5.28-7.33 1.03-1.22 1.15-2.04.48-3.56-2.68-6.13-1.35-12.49-.77-18.81 1.02-10.96 4.22-21.4 7.68-31.73 3.13-9.33 4.82-18.83 5.34-28.6.52-9.63 1.85-19.09 4.09-28.55 1.37-5.81.33-12.23.15-18.36-.21-7.22.65-14.18 4.24-20.58.55-.97 1.3-2.02 2.23-2.55 9.3-5.28 18.66-10.45 27.99-15.67 6.38-3.56 13.55-2.87 20.41-3.94 6.69-1.05 13.03.96 19.53 1.52 11.92 1.02 23.68.12 35.37-2.47 3.99-.89 8.16-1.59 12.21-1.44 4.34.16 6.79-1.91 7.91-5.41 1.68-5.21 2.86-10.6 3.98-15.96.52-2.46.43-5.06.57-7.59.16-2.76-.71-4.07-3.95-4.02-12.51.21-25.04-.27-37.54.17-15.9.56-31.49-1.77-47.13-3.91-4.35-.59-8.52-1.66-12.84 1.13-3.1 2-10.43-.77-13.44-4.37-3.51-4.19-5.6-9.02-5.18-14.59.08-1.04 1.05-2.47 1.98-2.9 6.95-3.19 14.31-2.55 21.56-1.6 28.19 3.7 56.44 6.37 84.93 5.59 3.16-.09 6.4.46 9.47-.06 2.35-.4 4.57-1.9 6.71-3.15 1.25-.74 2.14-2.05 3.32-2.94 5.36-4.06 6.72-3.54 12.67-.74 11.33 5.35 11.35 15.2 10.52 25.12-1 11.86-3.96 23.39-8.81 34.32-1 2.25-2.73 4.22-4.28 6.18-2.89 3.65-6.28 6.96-8.74 10.86-2.45 3.88-5.51 5.67-9.94 5.48-1.38-.06-2.75-.16-4.13-.21-4.33-.15-7.13-1.68-8.02-6.53-.81-4.41-3.56-5.59-8.25-5.21-1.19.1-2.69-.56-3.63-1.36-1.35-1.14-2.31-2.73-3.62-4.35-2.58 3.43-3.68 7.27-4.03 11.42-.47 5.62-2.07 7.35-7.25 7.9-.52-1.61-.72-2.88 1.39-3.73.69-.28 1.28-1.93 1.15-2.84-.13-.92-1.11-2.31-1.89-2.43-2.15-.34-4.4-.25-6.58-.07-1.46.12-2.87 1.01-4.31 1.03-5.17.05-7.79 2.4-7.13 7.98-3.13 0-5.84.05-8.54-.01-6.23-.15-12.47-.73-18.68-.43-5.36.26-9.67 3.49-13.71 6.84-.47.39-.83.97-1.08 1.54-6.36 14.33-11.54 28.87-10.54 45 .51 8.24.19 16.54.03 24.81-.05 2.57.95 3.64 3.28 3.33 2.48-.34 5.28-.43 7.3-1.68 9.5-5.89 20.01-7.74 30.86-8.67 9.39-.81 18.76-1.86 28.15-2.64 1.35-.11 3.04.31 4.11 1.1 2.13 1.57 4.28 2.12 6.82 1.62 4.71-.92 9.47-.96 14.11-3.07 3.52-1.6 8.17-1.83 11.51 1.64 2.98 3.09 5.98 3.77 9.55 1.01 1.07-.83 2.42-1.29 3.67-1.87 2.9-1.34 5.63-1.25 7.66 1.49 1.89 2.56 4.4 3.47 7.44 3.44 4.66-.04 9.31-.06 13.97-.06 5.01 0 6.5 2.12 4.91 6.88-2.34 6.99-6.54 9.87-15.53 9.21-5.19-.38-10.37-1.86-15.38-3.42-4.86-1.51-9.5-3.58-14.8-2.66-4.43.77-7.9 3.05-10.46 6.6-.76 1.06-.93 2.74-.91 4.14.12 13.04.87 26.1.35 39.11-.36 8.93-2.26 17.82-3.81 26.67-.69 3.93-1.01 7.74.03 11.59.76 2.83.09 5.24-1.24 7.84-1.19 2.33-1.53 5.12-2.11 7.74-.49 2.25-.61 4.59-1.2 6.81-1.4 5.31-2.97 10.58-4.47 15.86-.17.61-.29 1.24-.49 1.84-3.26 10.03-8.34 11.84-17.13 6-.98-.65-1.75-1.78-2.31-2.84-3.33-6.36-4.13-12.77-2.78-20.11 4.52-24.48 8.19-49.11 12.39-73.65 1.21-7.09 3.27-14.03 4.6-21.1.84-4.49 1.07-9.11-3.48-12.77-1.93 4.05-5.43 4.07-9.17 4.26-13.96.7-27.89 1.98-41.85 2.46-5.84.2-11.73-1.04-17.6-1.64-.31-.03-.62-.15-.93-.2-6.71-1.17-8.68.07-10.71 6.7-1.89 6.17-3.59 12.4-5.72 18.49-5 14.29-10.21 28.51-15.34 42.75-.28.86-.71 1.69-1.18 2.77z" fill="#010104"/><path d="m188.28 353.87c6.36-8.56 14.46-8.23 22.87-6.39 3.72.81 7.36 2 11.08 2.81 10.31 2.24 20.03-.64 29.5-4.09 25.39-9.24 45.78-25.06 60.49-47.8 8.22-12.71 12.37-26.86 13.11-41.97.05-1.03-.85-2.88-1.57-3.02-1.5-.3-3.6-.27-4.72.59-10.59 8.16-23.17 11.6-35.57 15.59-8.64 2.78-16.99.49-25.41-.68-1.12-.16-2.62-2.26-2.79-3.61-.39-3.12-.74-6.54.22-9.41.55-1.64 3.74-3.49 5.63-3.37 4.64.29 8.52-.84 12.16-3.49 4.44-3.24 9.48-5.13 14.81-6.25 4.57-.96 8.41-3.1 12.03-6.04 6.55-5.34 13.34-10.4 20.19-15.7.21.5.34.73.42.98.47 1.57.55 4.18 1.46 4.51 2.39.86 5.05.38 6.76-2.04 3.26-4.62 4.11-9.95 2.94-15.2-1.68-7.51-4.02-14.89-6.39-22.22-1.15-3.57-4.11-4-6.76-1.32-9.33 9.44-19.71 17.36-32.12 22.37-14.24 5.75-27.83 3.02-41.1-3.3-1.93-.92-1.61-3.35.51-5.06 7.4-5.97 15.72-10.37 24.36-14.2 9.87-4.38 19.77-8.69 29.61-13.14 2.3-1.04 4.46-2.43 6.56-3.85 4.76-3.22 5.13-8.66.9-12.68-4.31-4.09-8.43-8.41-13.07-12.08-2.46-1.95-5.75-3.06-8.84-3.96-5.17-1.51-10.51-2.45-15.73-3.84-1.89-.5-3.96-1.25-5.35-2.52-6.12-5.6-9.27-12.78-9.99-20.97-.08-.95 1-2.61 1.9-2.93 5.79-2.07 11.14-1.58 16.46 2.17 5.06 3.56 10.62 6.53 16.24 9.17 10.34 4.86 20.88 9.29 31.34 13.89.57.25 1.16.48 1.79.75 2.57-2.14 3.39-4.94 2.98-8-1.26-9.44-2.54-18.88-4.06-28.28-1.47-9.09-3.27-18.13-4.83-27.21-.38-2.18-1.17-3.85-3-5.28-5.18-4.05-10.1-8.42-15.28-12.47-2.38-1.86-3.96-3.99-4.48-6.96-.2-1.14-.58-2.25-.9-3.38-1.26-4.45.92-7.16 5.67-7.36 2.4-.1 4.77-.8 7.18-.93 1.03-.06 2.49.34 3.08 1.07 3.18 3.96 6.14 8.09 9.18 12.16.11-.3.22-.61.33-.91 1.97.38 3.98.64 5.92 1.17 7.32 2 11.9 7.12 15.61 13.46 5.8 9.92 11.47 19.94 13.11 31.45.66 4.67-.52 9.63-1.08 14.43-.23 1.96-.5 3.62 1.02 5.29.62.68.58 2.19.44 3.27-1.03 7.99-2.1 15.97-3.32 23.93-.23 1.47-1.13 2.89-1.93 4.19-1.38 2.25-3.07 4.31-4.39 6.6-1.6 2.78-1.76 5.76-.92 8.91.82 3.06 1.51 6.18 1.86 9.32.47 4.23 1.16 8.13 3.92 11.74 1.76 2.31 2.47 5.58 3.11 8.53 1.98 9.09 3.86 18.21 5.5 27.38 2.72 15.19.17 30.01-3.97 44.58-2.13 7.52-4.95 14.86-7.87 22.12-.93 2.32-3.29 4.03-4.84 6.13-1.29 1.75-2.67 3.54-3.48 5.53-1.84 4.5-3.68 9.05-4.94 13.74-2.45 9.06-8.01 15.8-15.17 21.36-8.63 6.69-16.77 13.89-24.79 21.32-7.39 6.86-17.03 10.2-26.99 11.9-14.7 2.51-29.53 2.6-44.37 1.7-6.13-.37-12.27-.66-18.39-1.19-1.3-.11-2.72-.88-3.73-1.76-3.54-3.04-6.88-6.26-10.11-9.25z" fill="#010104"/><path d="m125.36 245.28c10.4 4.21 16.29 14.63 14.17 24.54-.09.41-.01.94-.24 1.23-4.47 5.76-3.89 12.78-4.9 19.4-1.55 10.09-6.03 18.87-12.28 26.8-3.17 4.03-7.46 5.43-12.43 4.73-.88-.12-1.92-.82-2.41-1.57-2.09-3.18-4.21-6.38-5.88-9.79-.72-1.46-.85-3.56-.43-5.15 2.65-9.89 5.51-19.72 8.36-29.55.62-2.13 1.48-4.19 2.18-6.29.9-2.71 1.53-5.54 5.42-5.48.67.01 1.63-1.48 2.02-2.44 2.18-5.37 4.24-10.8 6.42-16.43z" fill="#010104"/><path d="m217.2 174.97c-1.63 1.81-3.35 2.47-5.44.67-.37-.32-1.71-.13-2.13.3-5.98 6.06-13.28 6.04-21.01 5.05-5.86-.75-11.81-.75-17.71-1.28-1.25-.11-2.77-.8-3.57-1.73-3.15-3.69-5.57-3.96-9.1-.74-2.95 2.7-6.71 3.63-10.35 2.97-9.56-1.74-19.07-3.83-28.5-6.2-1.59-.4-2.66-2.86-4.41-4.86 2.33-.73 3.88-1.31 5.47-1.69 9.96-2.39 19.91-4.84 29.91-7.02 3-.65 6.16-1.1 9 1.33 1.06.91 2.97 1 4.52 1.12 4.12.32 7.98-.49 11.61-2.69 1.19-.72 2.96-.9 4.39-.74 3.25.36 6.46 1.11 9.7 1.65 1.04.17 2.33.61 3.11.19 4.45-2.42 7.86.25 11.47 2.05 1.57.79 3.08 2.06 4.88.35.25-.24 1.06-.19 1.41.03 3.32 2.12 7.02 1.91 10.72 2.09 1.32.06 3.4 1.01 3.73 2.01.77 2.32 1.39 5.18.63 7.31-.36 1.02-3.98 1-6.15 1.17-.64.08-1.37-.8-2.18-1.34z" fill="#010104"/><path d="m215.64 247.58c8.64 3.93 13.38 10.42 15.37 19.05 2.49 10.82 2.21 21.42-2.86 31.59-.5 1-1.08 2.32-.82 3.28 1.3 4.95-1.34 9.08-2.61 13.47-.7 2.43-4.03 3.43-7.27 3.04-11.05-1.33-12.18-10.46-10.81-19.45.71-4.66 2.58-9.15 3.97-13.7 3.29-10.75 3.24-21.94 4.5-32.96.15-1.34.33-2.66.53-4.32z" fill="#010104"/></svg>