<svg enable-background="new 0 0 400 400" viewBox="0 0 400 400" xmlns="http://www.w3.org/2000/svg"><g fill="#fafbfc"><path d="m346.9 398 5.4-7.3h-5.2v-.6h5.9v.6l-5.4 7.2h5.5l-.1.6h-6.2v-.5z"/><path d="m354.7 390.1h2.8c2.3 0 3.9 1.6 3.9 4.1s-1.6 4.3-3.9 4.3h-2.8zm.6 7.8h2c2.2 0 3.3-1.6 3.3-3.6 0-1.8-1-3.6-3.3-3.6h-2z"/><path d="m363.9 390.1v8.4h-.6v-8.4z"/><path d="m372.5 396.3c-.4 1.3-1.4 2.3-3.2 2.3-2.4 0-3.7-1.9-3.7-4.3 0-2.3 1.2-4.3 3.7-4.3 1.8 0 2.9 1 3.2 2.4h-.6c-.4-1.1-1.1-1.8-2.5-1.8-2.1 0-3 1.9-3 3.7s.9 3.7 3 3.7c1.4 0 2.1-.7 2.5-1.7z"/><path d="m373.8 398.5v-1.5h.6v1.5z"/><path d="m376.2 398.5v-8.4h1c1.3 2 4.4 6.7 4.9 7.6-.1-1.2-.1-2.4-.1-3.8v-3.8h.7v8.4h-.9c-1.2-1.9-4.4-6.8-5-7.7.1 1.1 0 2.3 0 3.9v3.9h-.6z"/><path d="m390 394.4h-4.3v3.5h4.7l-.1.6h-5.2v-8.4h5.1v.6h-4.5v3.1h4.3z"/><path d="m394.2 390.7h-2.8v-.6h6.3v.6h-2.8v7.8h-.7z"/></g><path d="m163.63 359.08c-3.79 1.9-7.61 3.98-11.58 5.71-1.51.66-3.46.95-5.06.63-4.77-.94-9.41-2.62-14.21-3.37-12.4-1.95-20.91-9.64-28.52-18.72-8.58-10.26-12.68-22.69-16.18-35.25-2.82-10.08-5.11-20.33-6.92-30.64-.78-4.48.17-9.27.47-13.91.29-4.55.78-9.08 1.14-13.63.25-3.06.76-5.86 2.63-8.6 3.66-5.37 3.47-11.88 4.21-18.06.76-6.34 2.04-12.44 4.74-18.34 7.37-16.08 14.76-32.17 21.5-48.52 5.27-12.8 13-23.77 22.48-33.6 6.76-7.02 13.7-13.92 20.98-20.4 15.82-14.09 29.9-29.71 42.86-46.43 5.13-6.62 10.51-13.05 15.92-19.44.79-.93 2.49-1.74 3.65-1.59 3.44.43 6.94 1.02 10.2 2.17 5.64 1.98 6.95 5.51 5.48 11.29-1.37 5.39-2.19 10.93-3.22 16.41-.1.51.01 1.06.03 1.59.17 4.01 1.27 7.19 5.48 9.04 7.58 3.34 13.66 8.75 19.06 15 2.77 3.2 5.71 6.3 8.83 9.15 7.62 6.97 13.31 15.26 17.87 24.47 9.16 18.51 18.45 36.95 24.74 56.71 1.09 3.42 1.93 6.93 2.7 10.45 1.26 5.79 1.31 11.39-1.29 17.05-2.94 6.41-4.94 13.14-9.11 19.1-5.4 7.72-6.17 17.16-7.95 26.22-1.46 7.44-3.97 14.67-6.1 21.97-.28.98-.99 1.86-1.61 2.7-2.41 3.22-4.78 6.5-7.34 9.6-4.86 5.86-9.51 11.76-8.21 19.92-.73.31-1.04.58-1.29.53-5.15-1.07-7.93 1.48-9.8 5.98-3.54 8.52-9.84 14.34-17.75 19.08-16.72 10.01-32.97 20.82-51.17 28.12-2.06.83-4.25 1.36-6.26 2.3-5.82 2.72-11.48 2.24-16.94-.79-1.57-.86-2.77-2.39-4.46-3.9zm87.01-174.97c-1.14-8.19-2.17-16.58-3.5-24.93-3.44-21.63-13.03-40.79-24.16-59.29-1.1-1.83-2.92-3.33-4.64-4.68-1.98-1.56-4.03-1.56-6.4-.11-9.9 6.08-18.01 14-25.14 23.09-8.75 11.17-17.69 22.19-26.54 33.29-.52.65-1.05 1.35-1.33 2.12-3.05 8.46-6.15 16.9-9.01 25.43-1.6 4.79-1.87 9.73-.51 14.71.56 2.07 1.57 3.1 3.74 3.63 13.96 3.4 28.15 4.8 42.48 5.25 13.71.44 27.54-1.1 41.04 3.03 2.68.82 6.04-.19 8.99-.81.99-.21 2.22-1.75 2.41-2.84 1.01-5.8 1.71-11.68 2.57-17.89zm-109.63 50.84c-2.5 8.62-3.09 16.98-2.05 25.48 1.19 9.65 5.79 18.05 9.61 26.76 6.22 14.16 11.98 28.48 13.27 44.16.5 6.07 1.52 12.1 2.36 18.61 1-.87 1.64-1.38 2.23-1.94 22.61-21.9 45.07-43.94 67.9-65.61 6.14-5.83 8.7-13.09 11.06-20.64.6-1.91.35-4.25-.08-6.27-.8-3.79-2.28-4.8-6.17-4.93-19.26-.64-38.52-1.75-57.78-1.74-10.97.01-20.84-2.07-29.92-8.24-3.19-2.17-6.8-3.71-10.43-5.64z" fill="#010104"/></svg>