<svg enable-background="new 0 0 400 400" viewBox="0 0 400 400" xmlns="http://www.w3.org/2000/svg"><g fill="#fafbfc"><path d="m346.9 398 5.4-7.3h-5.2v-.6h5.9v.6l-5.4 7.2h5.5l-.1.6h-6.2v-.5z"/><path d="m354.7 390.1h2.8c2.3 0 3.9 1.6 3.9 4.1s-1.6 4.3-3.9 4.3h-2.8zm.6 7.8h2c2.2 0 3.3-1.6 3.3-3.6 0-1.8-1-3.6-3.3-3.6h-2z"/><path d="m363.9 390.1v8.4h-.6v-8.4z"/><path d="m372.5 396.3c-.4 1.3-1.4 2.3-3.2 2.3-2.4 0-3.7-1.9-3.7-4.3 0-2.3 1.2-4.3 3.7-4.3 1.8 0 2.9 1 3.2 2.4h-.6c-.4-1.1-1.1-1.8-2.5-1.8-2.1 0-3 1.9-3 3.7s.9 3.7 3 3.7c1.4 0 2.1-.7 2.5-1.7z"/><path d="m373.8 398.5v-1.5h.6v1.5z"/><path d="m376.2 398.5v-8.4h1c1.3 2 4.4 6.7 4.9 7.6-.1-1.2-.1-2.4-.1-3.8v-3.8h.7v8.4h-.9c-1.2-1.9-4.4-6.8-5-7.7.1 1.1 0 2.3 0 3.9v3.9h-.6z"/><path d="m390 394.4h-4.3v3.5h4.7l-.1.6h-5.2v-8.4h5.1v.6h-4.5v3.1h4.3z"/><path d="m394.2 390.7h-2.8v-.6h6.3v.6h-2.8v7.8h-.7z"/></g><path d="m285.87 325.36c4.89-.19 8.76 4.3 13.02 7.45 1.29.95 2.69 2.19 4.16 3.19 1.34.91 2.47 2.14 3.94 3.45-1.61 1.14-2.77 1.97-3.93 2.79.03.24.06.48.08.72h3.95c-.89 1.03-1.81 1.73-2.24 2.66-1.45 3.16 1.32 4.15 3.16 5.31 3.22 2.03 3.84 3.43 3.29 7.13-.31 2.04-.1 4.21.21 6.28.29 1.97-.51 2.58-2.23 2.4-.94-.1-1.96-.22-2.77-.65-2.84-1.5-5.61-2.74-9.05-2.51-1.4.09-3.42-1.14-4.26-2.38-1.47-2.17-3.57-.86-5.1-1.62-2.06-1.02-4.07-2.44-5.64-4.11-1.61-1.72-3.03-3.82-3.83-6.02-.52-1.44.22-3.34.45-5.53-3.1-1.72-4.22 2.24-6.38 3.88-2.64-2.67-4.23-7.15-10.23-5.4-.56-1.28-1.27-3.07-2.11-4.78-.95-1.92-1.99-1.53-2.95-.78-2.38-.06-4.86-.57-7.12-.08-4.88 1.06-9.98 1.87-13.23 6.58-.48.69-2.8.22-4.26.08-.85-.08-1.67-.55-2.86-.97 2.22 4.05 1.44 5.59-2.58 6.04-1.45.16-3.15.04-2.22 2.67-.21.17-.43.34-.64.51-1.81-.88-4.46-1.3-5.25-2.74-1.8-3.26 2.45-3.02 3.56-4.75-1.94-3.25-1.55-4.31 2.06-5.53.3-.1.71-.14.88-.35 2.5-3.19 5.05-6.35 7.41-9.64.79-1.1-.12-3.47 2.48-3.17 0-.92.34-2.47-.03-2.67-6.69-3.57-13.44-7.03-20.24-10.39-1.75-.86-3.39-.53-4.7 1.25-2.47 3.36-5.6 5.7-9.61 5.16-.64 1.58-1.11 2.75-1.58 3.92-.08-.05-.16-.1-.24-.14-.13.85-.01 1.85-.43 2.51-1.12 1.78-2.59 3.35-3.68 5.14-1.42 2.32-2.98 4.23-5.7 5.2-1.25.44-2.22 1.78-3.2 2.81-1.5 1.57-5.55 2.09-6.56.31-.76-1.34-.39-3.5-.04-5.19.13-.63 1.59-1.18 2.54-1.4 1.84-.45 3.75-.64 5.62-.95.04-.01.07-.14.29-.63-1.95 0-3.71 0-6.27 0 7.58-4.26 9.23-11.51 11.61-18.27 2.12-1.84 4.24-3.69 6.46-5.62.3.65.72 1.53 1.1 2.35 2.08-1.91 4.52-3.5 5.99-5.73.84-1.28.11-3.59.07-6.27 1.45-1.03 3.7-2.98 6.25-4.37 2.76-1.5 2.48-4.29 3.08-7.32 2.95 3.01 3.72 1.71 4.65-.9 1.13-3.15 3.13-5.97 4.45-9.07.94-2.2-.84-6.82-2.99-8.56-.37.63-.73 1.24-1.08 1.85-.36.63-.71 1.27-1.52 2.72-1.71-2.84-3.17-5.16-4.51-7.56-.26-.47-.34-1.45-.04-1.78 2.88-3.2 1.22-5.96-.85-8.95.79-.28 1.53-.54 2.23-.78.01-1.7-1.76-3.35.09-5.25.7-.72.56-2.22.96-3.3.65-1.77 1.1-3.74 2.21-5.18 2.91-3.78 2.24-6.28-1.88-8.58-2.98-1.66-6.01-3.9-5.51-8.1.31-2.59-1.22-4.09-2.77-5.72-2.42-2.53-2.36-3.6.23-6.07-4.1-4.85-1.96-10.45-1.82-15.87.05-1.98.09-4.03-.33-5.94-.42-1.93-.59-3.41 1.31-4.68.49-.33.52-1.64.43-2.47-.36-3.13-.85-6.25-1.18-8.54 1.4-1.33 2.56-1.94 2.81-2.81.24-.86-.43-1.99-.71-3-.43-.19-.86-.38-1.29-.57 1.51-1.33 2.92-2.8 4.55-3.95 1.5-1.05 2.13-4.09.87-5.51-3.18-3.58-3.12-3.71.61-6.7.71-.57.96-1.72 1.29-2.7 1.25-4.57 3.99-8.12 6.76-11.36 1.49 1.13 2.97 2.25 4.9 3.71 1.6-4.27 2.98-7.97 4.36-11.66-3.34-1.82-5.65-.94-7.21 2.03-.33-.16-.61-.22-.62-.32-.62-5.74-2.3-10.96-5.65-15.86-2.01-2.93-3.9-6.61-2.11-10.04-1.22-1.91-2.41-3.48-3.27-5.21-1.52-3.06-2.75-3.48-5.67-1.86-1.14.64-2.51.89-4.14 1.44.22-1.19.35-1.87.53-2.83-6.33 1.46-12.37 2.86-18.96 4.38.97 1.05 1.41 1.53 2.02 2.2-1.5.73-2.88 1.4-4.08 1.99-.6-1.65-1.16-3.19-1.96-5.4-2.4 6.47-3.42 12.19-2.59 18.18.16 1.14.46 2.65-.09 3.43-3.3 4.61-1.2 9.67-1.57 14.51-.07.99-.92 1.92-1.34 2.74.76 3.41 1.52 6.86 2.33 10.5-.75.37-1.69.57-2.15 1.15-.36.45-.42 1.72-.08 2.04 2.22 2.03 2.23 2.81-.29 4.23-.99.56-2.01 1.05-3.02 1.56-3.46-4.35-5.18-9.23-5.51-14.47-.19-2.93.58-5.93.89-8.9.05-.5.14-1.11-.08-1.52-2.07-3.92-1.13-7.85-.32-11.87.38-1.9.07-3.93.07-6.33.86.23 1.73.46 2.73.73.65-1.78 1.41-3.88 2.18-5.99-2.07-.93-2.64-3.06-1.54-5.32.56-1.15 1.02-2.45 1.1-3.71.15-2.37.73-3.99 3.47-4.44 1.58-.26 3.04-1.33 4.52-2.09 4.89-2.52 9.81-4.77 15.59-3.09 1.5-3.65 2.84-3.82 7.63-.71 2.07-1.56 4.16-3.18 6.3-4.72.58-.42 1.32-.6 1.97-.92 1.07-.54 2.8-.9 3.05-1.7.42-1.39-.09-3.06-.2-4.49 1.13-5.55 2.27-11.12 3.51-17.15-2.37-1.78-4.76-4.27-8.75-3.93-1.23.11-2.56-.88-3.85-1.38v2.26c-8.98.3-17.61 4.62-27.01 1.71.13-.79.23-1.43.4-2.45-1.29.18-2.39.34-2.61.37-1.36-1.67-2.73-2.83-3.38-4.3-.45-1.02-.32-3.24.3-3.58 1.66-.94 3.73-1.15 5.64-1.67 1.29-.35 2.59-.71 3.85-1.17.12-.05-.05-.89-.13-2.02 1.04.17 2.43.51 3.84.59 1.1.06 2.22-.15 3.32-.35 1.81-.33 3.63-.65 5.4-1.16 1.05-.3 1.99-.99 2.99-1.46.91-.43 1.81-.97 2.78-1.15 5.28-1 10.57-1.9 16.1-2.88.08.3.29 1.15.58 2.29 3.15-.1 6.55 2.43 10.09-.61-.25 1.44-.92 2.82-.55 3.79.42 1.09 1.79 1.81 2.57 2.53 5.46-2.96 6.94-12.01 15.76-8.71 1.31-1.71 2.87-1.42 4.92-.3 1.36.75 3.5 1.07 4.9.55 6.53-2.44 13.24-1.11 19.86-1.21 1.46-.02 2.95 1.48 4.32 1.58 2.01-.18 4.21-.97 5.97-.39 2.02.66 3.64 2.54 5.32 3.8 3.77-1.34 7.13-1.45 10.21 1.55 1.33 1.29 3.09 2.25 4.8 3.03 4.61 2.09 5.34 3.32 4.56 8.96-2.21-.48-4.74 1.95-6.77-1.09-.19-.29-1.55.17-2.35.32-1.49.29-3.23 1.25-4.43.79-3.74-1.45-7.29-.63-10.92.07-1.04.2-2.08.43-3.12.58-5.53.8-5.42.81-6.42 6.37-.7 3.91-1.76 7.76-2.8 12.24 2.52 1.81 5.68 4.08 8.95 6.42-.44.48-.82.9-1.39 1.51 1.27.45 2.39 1.1 3.57 1.2.77.07 2.04-.45 2.33-1.06 1.41-3.02 1.49-3.1 3.77-.69 5.49-2.53 13.64-.22 15.76 4.57.85-.34 1.71-.69 2.57-1.03-.07.31-.14.62-.21.92 1.6.47 3.26.79 4.78 1.44 1.79.76 3.53 1.71 5.16 2.77 1.62 1.05 3.09 2.35 4.63 3.54-.13.12-.6.52-1.07.92 4.16 3.69 4 5.61-.78 7.64.91.78 1.76 1.51 2.45 2.1-.64 1.76-1.23 3.37-1.86 5.11-.94-.46-1.89-.93-2.85-1.4-.16.17-.32.34-.48.5.43.58.81 1.22 1.3 1.74 1.44 1.5 2.73 2.89 1.53 5.29-.33.66.57 1.92.99 3.19-.63.58-1.54 1.42-2.61 2.4.78.57 1.4 1.03 2.06 1.52-2 2.82-3.74 5.61-5.85 8.09-.72.84-2.35.9-3.57 1.32-.28-.34-.56-.68-.84-1.02-.58 1.48-1.17 2.96-1.75 4.44.26.14.51.28.77.43-1.49.74-2.98 1.49-5.26 2.63.41-1.34.42-2.45.89-2.7 3.51-1.85 3.79-3.76 1.1-5.92 1.77-3.59 3.5-7.11 5.31-10.79.05.02.71.21 1.87.56-.52-1.84-.92-3.29-1.18-4.22 1.46-.81 2.93-1.63 4.48-2.5-1.79-1.67-2.97-2.77-4.41-4.11 7.02-2.44 7.02-2.44 4.92-6.27-1.01.44-2.03.9-3.27 1.44-.31-.93-.59-1.79-.87-2.64.97-.37 1.79-.67 2.61-.98-.06-.26-.12-.52-.18-.79-.99.05-1.98.1-2.97.15-.13-.15-.37-.28-.39-.43-.48-5.45-.5-5.38-6.04-6.88-1.99-.54-3.87-1.48-6.13-2.38-3.63 3.15-4.93-1.43-7.22-3.12-2.97 3.27-8.1 3.79-11.91 1.65-3.08 1.79-5.86 3.4-8.65 5.02 1.56 2.6-2.53 2.09-2.46 4.04 1.75 2.33 1.23 3.46-3.67 7.8 4.59 5.97 4.96 7.01 1.89 10.63-2.51 2.97-3.56 7.86-8.41 7.49-.09 1.47-.46 2.82-.19 4.02.35 1.52.88 3.25 1.93 4.31 2.57 2.61 5.43 4.95 8.27 7.27.77.63 1.89.81 2.1.9 2.53 1.45 4.39 2.55 6.27 3.59 2.86 1.58 3.2 4.48 3.99 7.22.47 1.61 1.46 3.07 2.16 4.62.68 1.51 1.39 3.02 1.91 4.59.73 2.21 1.31 4.47 1.91 6.72.19.7.46 1.51.28 2.14-.6 2.01-1.39 3.97-2.21 6.21 1.34.3 2.3.52 3.88.88-1.13 3.36-2.24 6.59-3.3 9.82-.3.9-.65 1.85-.64 2.77.06 4.59-1.22 8-6.77 7.87 1.66 3.35-.76 5.36-1.82 7.76-1.12 2.55-2.57 5.11-2.89 7.79-.21 1.81 1.07 3.94 2.09 5.7 1.89 3.29 4.33 6.28 6.07 9.63 1.82 3.51 1.99 7.26.12 11.01-.46.92-.08 2.26-.08 3.41 0 .89.33 1.93-.03 2.64-1.27 2.55-2.13 5.41-5.22 6.66-.99.4-1.66 1.58-2.48 2.39-2.06 2.04-4.12 4.07-6.43 5.91.03 1.49 1.07 3.63-1.85 3.41-.98-1.69-1.89-3.28-3.24-5.61-1.41 3.68-2.35 6.21 1.01 7.5-2.47 2.48-4.83 4.86-7.61 7.66 3.46 1.98 6 3.43 8.54 4.89 3.2 1.84 6.73 3.34 7.71 7.48.02.1.05.24.13.29 6.21 3.48 1.11 7.06.16 10.66-.36 1.36-.54 2.99-.14 4.29 1.13 3.77-1.03 7.17-.94 10.59.07 2.77 2.29 5.78 4.23 8.13 2.01 2.51 4.88 4.34 8.11 7.05zm-59.41-111.47c1.08-.34 2.13-1.02 3.11-.93 4.09.38 8.15 1.08 12.24 1.49 1.95.19 3.94.04 5.9-.11.3-.02.54-.89.94-1.61-1.99-.1-3.63-.18-5.27-.25 0-.3-.01-.61-.01-.91 2.99-.24 6.07-1.01 8.92-.5 1.36.25 2.29 2.93 3.5 4.63 1.87-1.47 3.91-3.07 5.99-4.69-1.09-1.35-1.94-2.41-2.6-3.21 2.5-1.89 4.91-3.72 7.33-5.55.02.07.04.14.05.22 1.56-.9 3.11-1.8 5.37-3.11-2.49-.64-3.9-1-5.61-1.44.98-1.98 2.28-3.68 2.63-5.57.31-1.69.02-3.87-.88-5.28-.59-.92-2.91-1.46-4.15-1.11-4.54 1.27-8.74 1.35-12.62-2.19-1.39 2.95-3.49 3.18-5.9 2.27-2.76-1.04-5.34-.63-7.97.57-.86.4-2.04.09-3.06.17-1.1.09-2.19.26-3.29.39-1.93-.5-4.32-1.52-5.94-.81-1.3.57-1.84 3.21-2.38 5.03-.58 1.95-.77 4.02-1.14 6.11-.97-.47-1.52-.73-1.84-.88-.64 2.01-1.2 3.78-1.83 5.76 1.4 3.05 2.97 6.5 4.28 9.34 1.63.84 2.91 1.49 4.23 2.17zm24.17 7.86c-2.37-1.29-2.81.07-3.55 1.52-2.8 5.44-5.74 10.81-8.69 16.16-1.76 3.19-4.31 5.59-8.06 5.96-3.87.38-4 3.96-4.18 5.99-.19 2.04 1.64 4.71 4.82 4.97 1.44.12 2.84.71 4.31 1.1.11 1.79.2 3.44.3 4.98h4.15c-.92-1.12-1.6-1.96-2.49-3.04 3.05-.22 6.22-1.3 7.89 1.52 1.65 2.77 3.54 1.65 5.55 1.33.08-.01.08-.55.15-1.11-.53.17-.86.3-1.2.38-.45.11-.91.19-1.4.29-.18-2.72.19-3.19 2.44-4.22 3.14-1.43 6.17-3.12 9.36-4.41 1.36-.55 3.02-.35 5.17-.54.56-1.04 2.7-3.37 2.2-4.42-1.72-3.58.94-3.86 2.81-4.94.16-.09.26-.31.43-.51-.39-.42-.78-.84-1.18-1.27 3.95-2.5 6.22-6.53 4.4-7.85-.56.4-1.15.82-2.16 1.55-.97-2.03-1.84-3.9-2.74-5.75-.73-1.5-.44-4.7-3.68-2.25-.21.16-1.05-.44-1.56-.75-1.53-.93-2.99-2-4.59-2.8-.62-.31-1.88-.36-2.24.03-2.27 2.47-4.75 1.35-7.52.88.48-1.1.85-1.91 1.26-2.8zm-28.36-63.64c.93 2.56 1.69 4.65 2.46 6.73 1.63 4.39 2.44 4.94 7.17 4.91 2.52-.02 5.05-.14 7.57-.06 2.24.07 4.46.44 6.7.53 1.47.06 2.95-.25 4.43-.24 6.78.07 13.55.09 20.32.36 2.37.1 3.33-.75 3.95-2.93.43-1.49 1.59-2.77 2.14-3.68 1.95 1.05 3.16 1.71 4.38 2.36.2-.27.4-.55.61-.82-1.32-2.81-2.65-5.62-3.97-8.42-.24.04-.49.07-.73.11-.27 1.43-.54 2.86-.95 5.09-5.14-4.47-9.88-8.58-14.36-12.48-1.43.55-2.69 1.5-3.89 1.43-3.57-.2-7.57.08-10.57-1.45-3.68-1.89-7.07-2.37-10.84-1.57-1.35.29-2.62 1-3.92 1.53-1.57.64-3.14 1.29-5.51 2.27-.71 1.82-.08 5.89-4.99 6.33zm37.87-43.47c-2.41-4.45 3.47-6.15 2.75-10.42-.57-3.4 1.82-7.31 3.19-12.01-3.98 2.64-4.98.85-6.5-1.65-.84-1.39-3.67-1.93-5.68-2.16-1.57-.18-3.27.7-4.91 1.12-7.01 1.79-14.03 3.59-21.16 5.41 2.48 3.68 2.64 5.92.76 7.85-2.86 2.94-2.86 3.13.04 5.77-2.09 3.46-1.75 6.68 1.06 10.05 2.78 3.33 5.23 3.87 9.44 2.31.71-.26 1.8-.05 2.51.33 1.17.62 2.18 1.56 3.35 2.44 4.04-4.95 8.94-8.05 15.15-9.04zm-36.86-52.92c.23.24.46.48.69.72-1.81 1.21-3.63 2.42-5.44 3.64 1.64.25 2.94-.23 4.28-.4 1.29-.17 3.41-.48 3.76.1.74 1.25.56 3.03.82 5.03 2.82 2.33 6.12 5.06 8.81 7.28 5.5-.32 10.72-.62 16.41-.95 1.3.97 3.17 2.36 5.04 3.75.26-.2.51-.39.77-.59-2.12-1.58-2.55-3.14-.96-5.3 3.29-4.47 2.64-12.54-.97-16.79-.64-.76-.8-1.92-1.1-2.68-1.87-.55-3.85-1.13-6.13-1.8-1.02 0-2.42-.03-3.82.01-2.72.07-5.81 1.03-8.06.05-3-1.31-5.04-.43-7.25.95-1.97 1.22-3.87 2.6-5.59 4.14-.71.62-.86 1.87-1.26 2.84zm35.47 226.06c.03-.32.07-.63.1-.95-3.39-.71-6.76-1.79-10.19-2-2.65-.17-5.01-.06-6-3.16-1.28.6-2.35 1.05-3.36 1.6-3.76 2.04-7.5 4.12-11.25 6.18 2.22 1.7 2.64 4.21 1.82 7.32-.76 2.88.1 3.39 3.03 3.48 2.23.06 4.54.52 6.62 1.31 2.95 1.13 5.68 2.82 8.58 4.09 1.21.53 2.62.65 3.94.9 1.41.26 2.83.43 4.69.71 5.6-3.51 4.85-10.59 7.25-16.07 1.46.53 2.75 1.01 4.04 1.48.19-.36.39-.72.58-1.08-.99-.79-1.88-1.78-2.98-2.33-1.93-.97-3.99-1.69-6.24-2.61.05-.1-.29.52-.63 1.13zm-53.5-238.23c7.78 1.92 10.71.89 9.71-2.82-3.25.94-6.48 1.88-9.71 2.82zm65.81 35.65c-4.5.47-4.53.5-7.82-3.09-.8-.88-1.31-2.02-1.96-3.04-.46.38-.92.76-1.38 1.13 1.09 2.28 2.18 4.56 3.37 7.04 2.61-.58 5.49-.28 7.79-2.04zm-41.68 226.57c1.81-.16 4.1-.01 4.65-2.92.38-1.99-.64-3.1-2.09-3.95-.94 2.51-1.7 4.53-2.56 6.87zm88.02-192.35c-.4 1.09-.6 1.92-1 2.62-.45.79-1.17 1.43-1.6 2.23-.24.45-.37 1.28-.12 1.6.26.33 1.09.43 1.59.31 2.75-.72 3.42-3.83 1.13-6.76zm-29.07 216.37c-.25.14-.5.27-.75.41 0 1.14-.08 2.28.02 3.41.09.98.09 2.46.66 2.77.74.41 2-.1 3.65-.28-1.42-2.49-2.5-4.4-3.58-6.31zm6.38-3.72c-.46-.05-.92-.09-1.37-.14-.63 1.37-1.25 2.74-2.2 4.79 1.5-.13 3.1-.03 3.18-.32.35-1.39.3-2.88.39-4.33zm-125.23-203.35c2.89-2.89 3.99 1.43 6.22 1.25.07-.84.13-1.6.19-2.3-2.33-1.31-4.49-2.11-6.41 1.05zm63.61 105.76c1.41.22 2.27.36 3.13.49-.69-1.12-1.38-2.23-2.31-3.73-1.49 1.7-2.56 2.92-3.62 4.13.18.17.35.34.53.52.87-.54 1.73-1.08 2.27-1.41zm-33.59-186.64c-3.53-.93-4.92.49-4.4 3.67 1.59-1.33 3-2.5 4.4-3.67zm66.08 291.26c.2.2.41.39.61.59 1.27-1.59 2.54-3.18 3.99-4.99-1.13-.49-1.86-.8-2.49-1.07-.74 1.93-1.43 3.7-2.11 5.47zm54.8-239.72c.53-1.03 1.01-1.97 1.81-3.55-1.84 0-3.17 0-5 0 1.41 1.57 2.28 2.54 3.19 3.55zm-96.41 8.98c-.17-.37-.33-.73-.5-1.1-1.2.63-2.54 1.09-3.53 1.97-.39.35.02 1.59.1 3.13 1.74-1.78 2.84-2.89 3.93-4zm65.77 249.93c.18-.39.35-.77.53-1.16-1.8-.8-3.61-1.59-5.41-2.39 1.41 1.64 2.03 4.69 4.88 3.55z" fill="#010104"/><path d="m137.15 301.11c-3.53.82-6.99 1.42-10.44-.6-.69-.4-2.14.5-3.6.89 2.23 1.76 3.82 3.02 5.75 4.56.38-.58.95-1.46 1.6-2.46.93.85 1.53 1.4 1.81 1.65-1.03 2.04-1.95 3.88-2.88 5.72.17.07.34.14.5.22-1.06 1.23-2.28 2.35-3.16 3.7-2.41 3.71-4.45 7.63-8.43 10.15-1.1.7-1.37 2.88-1.81 4.44-1.24 4.35-2.56 5.34-6.89 4.68-.25 1.09-.5 2.2-.78 3.3-.15.61-.28 1.69-.55 1.73-5.37.79-6.42 6.98-10.96 8.74-3.35-3.56-2.57-7.91 3.39-18.71.53.23 1.07.47 1.8.79.48-2.43.14-5.23 3.7-5.39.49-.02 1-1.5 1.35-2.36 1.72-4.22 3.45-8.35 7.23-11.35.95-.76.93-2.75 1.43-4.46 3.88-1.75 3.9-2.44 3.01-7.74-.33-1.95.89-4.25 1.7-6.27.43-1.06 2.44-1.54 1.02-3.21.93-.23 2.15-.93 2.75-.58 1.51.89 2.75 2.25 4.29 3.59 1-1.19 1.86-2.21 3.16-3.75-1.64-.48-2.86-.84-4.18-1.23.36-.58.98-1.58 1.78-2.87-1.55.47-2.83.86-4.11 1.25-1.24-3.99-.77-10.86.56-12.63-.34-1.57-.54-2.81-.88-4.01-.37-1.28-.67-2.65-1.37-3.74-3.38-5.24-7.12-10.25-8.61-16.5-.55-2.32-4.93-3.57-7.45-2.08-2.78 1.65-5.15 4.04-8.02 5.46-2.14 1.06-4.6 2.92-7.49.52.3 2.95-1.4 3.27-3.47 3.63-3.83.68-7.6 1.71-11.57 2.63-.81-2.62-2.82-2.44-4.99-1.31-.6-1.3-1.12-2.43-1.99-4.31.85-5 7.09-4.55 10.65-7.58-.79-1.09-1.53-2.1-2.5-3.44 1.52-1.12 3.03-2.2 4.5-3.32 2.77-2.13 5.25-4.87 8.33-6.3 5.07-2.35 6.9-8.4 12.34-10.11.34-.11.68-.54.83-.9 3.12-7.87 10.79-11.02 16.78-16.52 1.05 1.95 1.97 3.66 3.13 5.84 1.35-2.54 2.54-4.78 3.81-7.16-.86-.69-1.63-1.31-2.01-1.62 2.87-2.06 5.78-4.12 8.66-6.22 2.19-1.6 4.29-3.38 6.77-.33.36.44 1.41.3 2.16.44.32 3.17-1.03 4.78-4.45 4.07 1.05 4.21-1.26 6.86-3 9.7-1.91 3.13-4.11 6.13-5.61 9.44-2.75 6.08.89 13.17 6.36 15.66 1.15.52 2.25 1.19 3.3 1.9 2.44 1.68 3.62 3.87 3.36 7.02-.19 2.34.37 4.75.64 7.12.07.62.49 1.24.44 1.84-.28 4.08-.64 8.15-.97 12.18 3.69 1.53 4.01 4.12 2.69 6.63-2.39 4.54-3.3 9.26-3.4 14.32-.02 1.01-1.75 1.99-2.97 3.26.06.08.53.65 1.1 1.36-.55.33-1.07.64-1.7 1.02 2.18 2.55.25 3.97-1.46 5.63-.81.79-1.12 2.07-1.66 3.13.23.3.46.57.68.85zm-21.84-84.15c-1.35-.66-2.52-1.23-3.39-1.66-1.87 2.65-3.52 4.98-4.99 7.07h7.53c-.77-1.09-1.29-1.81-1.82-2.55.85-.91 1.57-1.68 2.67-2.86zm22.9-21.83c-1.04 4.48-4.15 6.08-9 6.41 3.76 1.84 6.08 1.03 8.18-1.15 1.19-1.23 2.46-2.37 3.84-3.69-1.14-.59-1.88-.97-3.02-1.57zm-44.86 55.24c.52.23 1.05.45 1.57.68 1.05-1.82 2.21-3.59 3.03-5.52.16-.37-1.06-1.32-2.06-2.5-1.01 2.94-1.78 5.14-2.54 7.34zm39.84 21.66c1.91-2.37 3.49-4.33 5.07-6.28-5.41 1.25-5.41 1.25-5.07 6.28zm11.59 1.23c-.25-.36-.5-.71-.75-1.07-1.25.68-2.56 1.29-3.73 2.09-.36.25-.64 1.23-.44 1.52.27.39 1.29.76 1.55.56 1.21-.93 2.27-2.05 3.37-3.1zm-34.05 57.04c-4.3-3.57-4.85-3.39-6.23 1.93 1.26-3.34 3.76-2.47 6.23-1.93zm28.96-73.02c.31.18.62.35.93.53.62-.88 1.76-1.78 1.72-2.63-.04-.84-1.27-1.62-1.97-2.43-.23.17-.46.34-.68.51zm-21.87 66.11c-2.85-1.14-4.12 1.17-6.2 1.95.79.87 1.37 1.51 1.74 1.92 1.42-1.24 2.65-2.31 4.46-3.87z" fill="#010104"/><path d="m131.72 134.05c2.87 4.65 2.37 5.64-.91 9.8-4.01 5.08-8.28 10.18-8.82 17.17-.17 2.19-1.9 2.99-4.03 3.31-3.16.48-4.12 2.05-3.06 4.54-.81.46-1.62.92-2.24 1.28-.86-1.86-1.68-3.61-2.75-5.92-1.79 2.06-3 3.46-4.3 4.96 1.16.82 2.1 1.48 3.9 2.75-4.44 3.03-8.51 5.81-12.55 8.56-.08-.05.42.29 1.14.8-3.3 2.03-5.69 5.29-10.19 4.31-1.75-.38-3.01.67-1.91 2.98-3.53.59-6.99 1.17-10.44 1.74-.15-.43-.31-.86-.46-1.29 1.92-.85 3.85-1.7 5.95-2.63-.81-.97-1.7-2.04-2.76-3.3 1.14-.79 2.06-1.42 2.98-2.06-2.86-3.73-.57-7.17 4.96-8.38 1.12 1 1.94 2.31 2.76 2.32 1.33.01 2.66-.85 4.65-1.58-2.45-1.02-4.02-1.68-5.59-2.33.1-.34.19-.68.29-1.02.76-.19 1.53-.38 2.51-.62-.42-2.85.97-3.87 3.77-4.72 2.46-.75 4.43-3.13 6.43-4.64 1 1.08 1.95 2.11 2.9 3.13.32-.12.63-.24.95-.35 0-2.05.1-4.1-.03-6.14-.11-1.71.35-2.87 2.11-3.33 2.37-.62 3.72-2.13 4.22-4.57.39-1.88 1.01-3.71 3.58-1.91.31.22 1.23-.42 2.87-1.05-6.43-2.14-5.62-7.57-7.64-11.45 2.65-1.09 3.05-2.69 1.32-5.49-.89-1.44-2.03-2.72-2.96-4.13-.45-.68-1.08-1.57-.95-2.24.96-4.84-3.43-6.93-5.2-10.35-.16-.32-1.09-.24-1.89-.38.14-2.96.28-6 .44-9.4 3.21 1.55 5.47.86 6.86-2.67-1.67-.56-3.3-1.1-4.96-1.66 4.87-5.04 9.47-6.7 14.96-.84 1.78 1.9 3.36 4.57 6.85 3.21.44-.17 1.6.65 1.96 1.27 2.79 4.85 5.93 9.58 8.01 14.73 1.4 3.46 1.48 7.53 1.71 11.36.17 2.98.04 6.23-4.44 6.23zm-22-24.55c.94 3.72 3.82 4.09 6.22 4.66 4.99 1.18 5.54-4.35 8.9-5.84-1.35-1.91-2.41-1.9-4.16-.91-1.9 1.07-4.19 1.56-6.36 2.04-1.3.29-2.71.05-4.6.05zm-15.25 69.63c-1.29-3.16-3.19-3.89-6.07-2.39-.77.4-1.96-.02-3.41-.09.09 1.19.18 2.52.28 3.85.31.25.63.49.94.74 2.01-4.71 5.63-.77 8.26-2.11z" fill="#010104"/></svg>