<svg enable-background="new 0 0 400 400" viewBox="0 0 400 400" xmlns="http://www.w3.org/2000/svg"><g fill="#fafbfc"><path d="m346.9 398 5.4-7.3h-5.2v-.6h5.9v.6l-5.4 7.2h5.5l-.1.6h-6.2v-.5z"/><path d="m354.7 390.1h2.8c2.3 0 3.9 1.6 3.9 4.1s-1.6 4.3-3.9 4.3h-2.8zm.6 7.8h2c2.2 0 3.3-1.6 3.3-3.6 0-1.8-1-3.6-3.3-3.6h-2z"/><path d="m363.9 390.1v8.4h-.6v-8.4z"/><path d="m372.5 396.3c-.4 1.3-1.4 2.3-3.2 2.3-2.4 0-3.7-1.9-3.7-4.3 0-2.3 1.2-4.3 3.7-4.3 1.8 0 2.9 1 3.2 2.4h-.6c-.4-1.1-1.1-1.8-2.5-1.8-2.1 0-3 1.9-3 3.7s.9 3.7 3 3.7c1.4 0 2.1-.7 2.5-1.7z"/><path d="m373.8 398.5v-1.5h.6v1.5z"/><path d="m376.2 398.5v-8.4h1c1.3 2 4.4 6.7 4.9 7.6-.1-1.2-.1-2.4-.1-3.8v-3.8h.7v8.4h-.9c-1.2-1.9-4.4-6.8-5-7.7.1 1.1 0 2.3 0 3.9v3.9h-.6z"/><path d="m390 394.4h-4.3v3.5h4.7l-.1.6h-5.2v-8.4h5.1v.6h-4.5v3.1h4.3z"/><path d="m394.2 390.7h-2.8v-.6h6.3v.6h-2.8v7.8h-.7z"/></g><path d="m151.81 263.58c-1.56.65-2.72 1.13-4.14 1.73 1.21.79 2.24 1.43 3.24 2.12 2.97 2.04 4.24 4.74 3.82 8.45-.46 4.09-.34 8.24-.76 12.33-.14 1.37-1.19 2.65-1.95 4.24 5.22 4.42 10.57 9.56 16.58 13.77 2.92 2.04 7.04 2.44 10.66 3.37 1.72.45 2.55-.43 2.86-2.35 1.83-11.18 3.93-22.32 5.69-33.52.51-3.22 1.51-5.32 5.07-5.44.7-.02 1.39-.39 2.52-.73-5.68-4.97-5.19-10.98-3.56-17.13 1.32-5 3.45-9.85 4.17-14.92 1.14-8.03 1.47-16.18 1.95-24.29.04-.74-1.2-2.1-2.02-2.25-3.09-.58-6.26-.74-9.39-1.13-4.49-.56-8.96-1.25-13.45-1.75-2.69-.3-5.44-.68-8.12-.46-6.86.56-13.68 1.87-20.55 2.09-9.4.3-18.83-.02-28.23-.31-2-.06-3.17.31-3.99 2.12-3.84 8.47-7.78 16.91-11.6 25.39-1.35 2.99-2.47 6.08-3.67 9.13-2.21 5.63-6.25 10.17-9.18 15.25-6.78 11.73-16.82 19.15-28.26 25.17-8.2 4.31-17.08 6.76-26.2 8.25-1.61-1.77-1.21-3.17.08-4.82 10.97-14.02 21.73-28.21 32.84-42.12 8.38-10.5 13.38-22.31 16.63-35.29 2.77-11.06 2.37-22.28 3.65-33.4.99-8.55 2.15-17 5.59-25.01 2-4.68 4.74-8.7 9.69-10.28 8.14-2.6 16.29-5.48 24.66-6.97 18.35-3.26 36.84-5.75 55.29-8.45 2.45-.36 4.01-1.47 5.26-3.5 4.5-7.33 5.51-15.51 5.75-23.82.23-8.08.6-16.12 3.25-23.83.99-2.89 2.48-5.6 3.64-8.43 1.05-2.56 2.73-2.78 5.05-1.79 6.15 2.63 10.11 7.57 13.67 12.9 3.3 4.94 4.53 10.09 3.29 16.23-1.53 7.58-3.57 14.74-8.11 21.1-1.65 2.31-2.92 4.88-4.5 7.55 5 3.01 10.25 4.73 15.76 4.79 12.07.13 24.15-.25 36.22-.3 15.46-.07 30.95-1.37 46.35 1.05 3.75.59 7.46 1.56 11.13 2.56 7.24 1.99 14.46 4.03 21.63 6.25 2.15.67 4.59 1.56 6.03 3.14 4.97 5.47 9.72 11.16 14.24 17.02 2.29 2.96 3.18 6.56 2.99 10.47-.35 7.09-.44 14.2-.58 21.3-.11 5.29-.07 5.29-3.84 8.5 3.08 3.39 2.74 7.34.9 10.96-3.2 6.29-6.72 12.44-10.4 18.47-2.37 3.88-5.32 7.4-7.88 11.17-1.05 1.55-1.92 3.28-2.57 5.04-.92 2.5-1.48 5.12-4.83 5.52-.5.06-1.31.99-1.27 1.46.43 5.66-3.29 9.69-6.69 12.79-7 6.38-12.08 14.13-17.8 21.46-4.48 5.74-8.2 8.37-13.68 9.87-2.7-2.44-1.84-4.89-.77-8.03 6.79-19.99 16.16-38.89 24.09-58.39 2.97-7.3 4.65-15.12 6.97-22.88-5.95 0-11.39-.16-16.82.03-20.22.7-40.45 1.5-60.67 2.29-7.73.3-15.45.84-23.18.92-3.41.03-4.63 1.89-4.82 4.58-.18 2.49.54 5.03.55 7.55.03 7.18-.05 14.36-.2 21.54-.08 4.01-.39 8.02-.62 12.4 4.69-.07 9.1.89 13.33-1.9 6.5-4.3 14.25-6.68 19.52-12.85 1.24-1.45 2.77-2.73 3.7-4.35 1.89-3.29 4.8-4.41 8.26-4.31 3.35.1 6.68.55 9.6.82 2.05 4.91.54 8.07-2.69 11.42-6.51 6.73-13.45 12.5-21.66 17.3-12.03 7.03-23.49 15.16-34.56 23.65-7.69 5.89-12.61 14.15-14.73 23.9-.77 3.54 1.96 5.32 3.28 7.75.29.53 2.89.13 4.27-.31 2.67-.84 5.22-2.85 7.86-2.91 12.64-.3 24.19-4.98 36.13-8.18 8.15-2.18 16.45-3.83 24.73-5.51 2.12-.43 4.39-.06 7.72-.06-1.46 4.26-2.64 7.77-3.87 11.25-1.79 5.04-5.56 7.12-10.63 8.57-9.33 2.67-18.53 5.96-27.51 9.65-7.52 3.08-15 5.23-23.21 5.58-8.1.35-16.14 2.05-24.23 2.82-3.75.36-7.61.2-11.34-.3-1.76-.24-3.32-1.85-4.99-2.81-1.26-.73-2.48-1.79-3.84-2.07-3.46-.7-6.8-3.11-10.54-.99-.3.17-.84.01-1.24-.11-6.58-1.97-13.74-2.92-19.58-6.22-7.46-4.21-14.37-9.74-17.66-18.45-4.2-11.1-5.69-22.34-2.47-33.91.55-1.96 1.73-3.8 2.87-5.54 2.15-3.28 4.59-6.36 6.68-9.67 1.72-2.72 4.06-4.16 7.14-3.76 3.51.45 7.59.02 9.22 4.59.72 2.04 1.89 3.96 2.98 6.18zm143.75-121.25c-2.2 5.03-2.2 5.03-7.9 4.38-.84-.1-1.67-.31-2.52-.36-5.67-.32-11.37-1.08-17.01-.8-6.96.34-13.89 2.37-20.8 2.22-21.18-.47-42.32-1.75-63.52-.37-19.66 1.28-39.36 1.79-59.03 2.96-3.91.23-7.79 1.79-11.57 3.08-.86.29-1.72 1.96-1.77 3.04-.3 6.23-.58 12.48-.42 18.71.1 4.08.86 8.15 1.52 12.2.48 2.93 2.09 4.24 5.34 3.52 2.35-.52 4.85-.35 7.29-.46 26.88-1.18 53.76-2.51 80.65-3.46 16.95-.6 33.92-.37 50.86-1.02 16.58-.64 33.02-.76 49.2 3.74 6.13 1.7 12.33 1.4 18.46-.76 3.07-1.08 4.42-2.46 3.06-5.71-.35-.84-.41-1.9-.28-2.82.87-6.16 1.71-12.33 2.77-18.46.96-5.53.45-10.76-2.47-15.63-.47-.79-1.19-2.04-1.81-2.04-5.34-.07-10.68.03-16.02.21-2.24.08-4.55.98-6.69.62-2.52-.44-4.89-1.82-7.34-2.79zm-22.68 60.89c-1.48-3.83-6.16-5.34-12.39-3.83.2 1.07.04 2.46.66 3.2 2 2.37 9.07 2.62 11.73.63zm-183.47 16.92c-3.14 1.83-4.17 4.11-2.26 7.29 4.8-2.26 5.56-4.64 2.26-7.29z" fill="#010104"/></svg>