<?xml version="1.0" encoding="utf-8"?>
<!-- Generator: Adobe Illustrator 22.0.0, SVG Export Plug-In . SVG Version: 6.00 Build 0)  -->
<svg version="1.1" id="图层_1" xmlns="http://www.w3.org/2000/svg" xmlns:xlink="http://www.w3.org/1999/xlink" x="0px" y="0px"
	 viewBox="0 0 400 400" style="enable-background:new 0 0 400 400;" xml:space="preserve">
<style type="text/css">
	.st0{fill:#FFFFFF;}
</style>
<g>
	
	<path d="M180.2,369.8c-3.1,0-6.2,0-9.7,0c-1.2-4-2.5-7.9-3.4-11.9c-0.4-2.1,0.1-4.5,0.2-6.7c0-0.3,0.4-0.7,0.3-0.9
		c-3.3-7.8,3-13.8,3.6-20.8c0.3-3.4-0.9-6.9-0.9-10.4c-0.1-5,0.2-10,0.4-15c0.1-3.5-1.5-4.7-4.7-3.5c-5,1.8-9.7,3.6-12.7,8.8
		c-1.9,3.3-5.8,5.4-8.5,8.3c-5.1,5.6-9.9,11.5-15,17.2c-8.8,9.8-14.4,22.4-25.8,30c-3.5,2.3-6.9,3.5-10.5,0.6
		c-3.9-3.1-5.6-8.4-3.1-12.4c3.8-6,8.2-11.6,12.7-17.1c6-7.3,12.2-14.5,18.6-21.4c9.9-10.6,22.3-17.7,35-24.3
		c3.2-1.7,7-2.2,10.4-3.4c2.8-1,3.8-3.5,1.5-5.4c-3.3-2.7-7-5.8-10.9-6.4c-10.5-1.5-19.4-5.4-26.6-13.1c-6.8-7.4-9-16.4-9.1-26.1
		c0-3.3,2.6-4.8,5.1-3.3c3.4,2.1,7.4,4.7,8.8,8.1c5.4,12.4,14.6,19.4,27.5,22.2c4.8,1.1,7.4-0.8,7.3-5.7c-0.1-5.7-0.3-11.3-0.6-17
		c-0.5-8.8,1.7-17.1,5-25.1c0.4-1,2.7-2.4,3.2-2.1c1.5,1,3.8,2.9,3.5,4c-1,5.1,2,8.3,4.2,12.2c3.2,5.8,3,12.4,0.7,18.4
		c-2.1,5.7,1.4,10.3,1.6,15.5c0,0.5,2.3,1.6,3.2,1.3c7.7-2.4,15.7-4.1,21-11.3c3.2-4.3,3.4-5.6-1.4-8.5c-8.8-5.2-15.6-12.3-20.7-21
		c-2.3-3.9-3-7.5-0.5-11.7c3-5,5.3-10.5,8.2-15.6c2.4-4.2,2.2-7.8-0.9-11.4c-2.4-2.8-5-5.5-6.6-8.7c-3.8-7.2-6-14.6-4-23.3
		c1.9-8.5,2.4-17.3,2.8-26c0.2-4.2-5-6.4-9.6-5c-2.6,0.8-5.4,1.2-8.2,1.5c-3.4,0.3-7.7,5.4-8.3,10.5c-1.2,10.5-1.9,21-3.3,31.5
		c-1,6.9-2.9,13.7-9.4,17.8c-0.6,0.4-1.1,0.8-1.6,1.3c-7.6,6.7-7.8,12-0.7,19.6c2.2,2.3,4.3,4.6,6.4,7c4,4.5,2.5,9.3,0.3,13.9
		c-2.2,4.4-9.5,4-12.4-1c-2.7-4.5-4.8-9.5-7.2-14.2c-0.7-1.3-1.5-2.6-2.3-3.8c-6.7-10.6-14.6-7.2-22.2,1.3
		c-2.6,2.9-5.3,6.7-5.6,10.3c-0.4,4.1,1.6,8.6,2.9,12.8c1,3.3,2.9,6.4,3.6,9.7c0.4,1.9-0.3,5.2-1.6,6c-1.7,1.1-5.3,1.4-6.8,0.3
		c-3.4-2.5-6-6-8.9-9.2c-1-1.1-1.3-2.9-2.4-3.7c-8.5-6.3-5.3-15.5-4.6-23.2c0.3-4.1,5-9.1,9.1-11.3c10.8-5.8,22.4-10.3,33.5-15.5
		c3.1-1.5,7.9-2.2,6.3-7.8c-0.2-0.6,1.1-2.2,1.5-2.2c6.9,1,5.4-5.7,8.6-8.1c-0.7-0.8-1-1.2-1.2-1.2c-6.8,0.9-13.6,1.9-20.4,2.9
		c-11,1.6-22,2.5-31.9-4.2c-3.4-2.4-7.1-4.8-6.2-10.1c0.5-2.8,0.3-5.7,0-8.5c-0.6-5.4,2.2-9.3,6-12.2c14.3-11.3,30.1-18.3,48.9-17.6
		c8.7,0.3,17.5-0.6,26.2-1.3c1.2-0.1,3-1.3,3.3-2.3c1.3-4.2,2.7-8.5,3-12.8c0.4-7.6,5-15.9,17.8-18.4c6.8-1.3,13.6-3.3,20-5.7
		c2.7-1,4.9-3.9,6.8-6.3c0.6-0.7,0-2.9-0.8-4c-0.7-0.9-2.2-1.6-3.4-1.7c-8.9-0.7-17.8-1.5-26.7-1.7c-2.7,0-6,1.3-7.9,3.2
		c-5.1,5.2-9.1,11.4-14.4,16.4c-4.1,4-9.4,6.8-14.2,10c-2.9,1.9-5.7,4.1-8.8,5.5c-4.6,2.2-9.3,4.2-14.2,5.7
		c-6.8,2.1-13.6,4.2-20.6,5.3c-4.7,0.7-9.1-1.7-12-5.9c-2.2-3.2-1.9-6,1.8-7.9c5.1-2.7,10.5-3.9,16.4-4.7c7.7-1,15.6-3.7,22.4-7.4
		c7.7-4.1,14.4-10,21.3-15.4c0.8-0.6,0.7-3.9-0.2-4.7c-6.3-5.8-12.8-11.4-19.3-16.9c-3.9-3.3-4.8-6.1-3.1-13.4
		c3.5,0,7.4-0.8,10.7,0.2c3,0.9,5.2,4,8.1,5.6c5.3,3,10.7,6.3,16.4,8c4.5,1.3,9.7,0.3,14.6,0.2c5.5-0.1,11-0.8,16.5-0.5
		c4.4,0.3,8.7,1.8,13.1,2.5c4.1,0.7,8.2,1.4,12.3,1.6c4.6,0.2,8.9,3.2,10.8,7.4c3.8,8.6,1.1,16.5-2.9,23.8c-1.5,2.6-5.4,4.2-8.5,5.5
		c-3,1.3-6.4,2.2-9.6,2.2c-11.1,0.2-17.8,8.1-25.3,14.4c-1.3,1.1-1.3,5.6-0.1,7.1c1.8,2.3,5,4.2,7.9,4.9c3.5,0.8,7.3-0.1,10.9-0.2
		c9.3-0.2,18.5-0.7,27.8-0.6c8.1,0.1,12.9,6,16.7,12c4.6,7.2,5.1,15.6,4.3,24c-0.1,1.4-0.7,3-1.5,4.1c-7.5,9.8-21.4,14.3-33.2,11.2
		c-2.4-0.6-4.9-1.6-7.3-1.5c-2.1,0-5,0.6-6.2,2.1c-2.1,2.5-2.5,5.7,0.2,8.6c4.6,5,8.1,10.4,11.3,16.6c2.6,5.1,9.4,8.6,15,11.5
		c6,3.1,13,4.3,18.9,7.4c2.5,1.3,4.5,5.4,4.7,8.4c0.3,3.7-2,7.2-6.4,7.6c-2.6,0.3-5.7,0.5-7.8-0.5c-6.5-3.2-12.5-7.3-19-10.7
		c-5-2.6-10.2-4.8-15.5-6.4c-1-0.3-3.9,3-4.4,5c-0.6,2.4-0.5,5.8,0.9,7.6c3.5,4.4,8,8,11.9,12.1c2.8,3,5.3,6.2,8.4,9.9
		c1.8-1.1,3.9-2.8,6.3-3.7c1.8-0.7,5-1.3,5.7-0.4c1.2,1.4,1.7,4.4,1,6.2c-5.8,16.8-17.1,27.5-34.6,31.7c-3.5,0.8-7,2-10.3,3.6
		c-1.5,0.8-3,2.8-3.3,4.5c-0.2,1.3,1.3,3.5,2.7,4.2c4.2,2.3,8.6,4.4,13.1,6.1c9.5,3.6,17.3,9.2,24.2,16.8
		c10,10.9,17.8,22.9,22.6,36.9c2.5,7.4-1.2,12.9-5.5,18.1c-0.7,0.8-3.6,1-4.3,0.2c-3.9-3.8-8.1-7-9.1-13.6
		c-0.9-6.1-3.7-12.8-7.7-17.3c-6.3-7-12.1-14.5-18.7-21.2c-5.5-5.5-12.5-9.7-19.3-13.8c-2.9-1.8-4.5,1.1-4.4,4
		c0.3,13.8,0.3,27.6,1.1,41.3c0.4,6.7-1.4,12.4-4.6,18C182.7,365.1,181.5,367.4,180.2,369.8z M149,134c0.1-8.8-0.4-9.7-9.3-8.6
		c-6.1,0.8-12,3.1-18,4.7c-7.8,2.1-11,9.3-15.8,14.4c-2.8,3-0.1,6.9,4.6,7.3c4.9,0.5,9.9,1.1,14.9,1.1c6.1,0,11.9,3.6,18.3,0.5
		c3-1.5,5.3-2.5,5.3-6.1C149,142.9,149,138.4,149,134z M220.8,123.5c-13.3,0.2-13.4,0.2-16.9,12.2c-0.7,2.5-1,5.4-0.4,7.8
		c0.5,1.9,2.8,4.5,4.4,4.6c9.8,0.7,19.6,0.7,28.8-3.5c1.7-0.8,3.4-2.9,3.9-4.8c1.9-7.3-1.1-12.7-8.5-14.9
		C228.5,123.9,224.6,124,220.8,123.5z"/>
	<path d="M314.7,78.9c0,4.8,0,8.2,0,11.8c-6.2,2.1-10.8-1.6-15.2-4.7c-0.9-0.6,0-4.6,1-6.5c0.4-0.7,4.1-0.9,5-0.1
		C308.4,82.2,310.9,82.5,314.7,78.9z"/>
	<path d="M309.2,74.2c-2.9,1.1-4.3,2.1-5.6,1.9c-1-0.1-1.8-1.7-2.7-2.6c1.2-0.6,2.3-1.8,3.5-1.8C305.5,71.7,306.6,72.8,309.2,74.2z"
		/>
	
	
</g>
</svg>
