<?xml version="1.0" encoding="utf-8"?>
<!-- Generator: Adobe Illustrator 22.0.0, SVG Export Plug-In . SVG Version: 6.00 Build 0)  -->
<svg version="1.1" id="图层_1" xmlns="http://www.w3.org/2000/svg" xmlns:xlink="http://www.w3.org/1999/xlink" x="0px" y="0px"
	 viewBox="0 0 400 400" style="enable-background:new 0 0 400 400;" xml:space="preserve">
<style type="text/css">
	.st0{fill:#FFFFFF;}
</style>
<g>
	
	<path d="M323.9,187.5c0,2.1,0,4.2,0,6.3c-5.8,3.8-12.1,2.1-18.1,2c-3.3,0-6.5-0.5-9.8-0.8c-0.7-0.1-1.4-0.1-2,0.1
		c-3.9,1.8-5.7,4.6-5.5,9.1c0.3,6.2-4.2,13.8,6.7,16c7,1.4,13.7,3,20.9,3c6,0,8.4,4.9,7.6,13.1c-7.3,0.6-14.5,1.6-21.9-1.1
		c-4.3-1.5-9.1-1.7-13.7-1.9c-0.9,0-3,3.2-2.6,4.1c3,6.6-0.5,13.1-0.2,19.6c0.3,5.5,1,6.7,6.4,7.3c2.4,0.2,4.7,1.3,7.1,1.8
		c1.7,0.4,3.4,0.4,5.2,0.6c5.7,0.6,11.5,0.7,17,2.1c4.5,1.2,4.7,6.3,0.8,8.8c-7.8,4.9-16,6.5-25.2,3.8c-11.9-3.5-24.1-6.1-36.7-5
		c-2.9,0.2-6.1-0.5-8.8,0.3c-6.5,1.9-7.7,6.3-3.7,11.6c2.3,3,3.8,5.8,2.3,10c-1,2.8-0.2,6.3-0.1,9.4c0.1,4.7,0.5,9.5,0.5,14.2
		c0,5-3.7,6.7-7.5,8.2c-3.6,1.4-5.5-0.9-8.1-3.1c-5-4.6-5.5-9.9-5.4-16.2c0.1-6-1.5-12.1-2.3-18.1c-0.8-5.6-1.6-11.2-2.3-16.8
		c-2.9-20.7-4.2-41.5-3.4-62.4c0.3-7.5,2-15,3-22.5c0.8-5.8,1-11.8,2.3-17.5c0.7-3.4,2.3-6.9,4.5-9.6c4.8-5.9,10.3-11.2,15.3-16.9
		c2.7-3.1,2-4.9-1.9-5.8c-3.5-0.8-7-1.8-10.6-2.4c-6.1-1-8.3-5.3-9.6-10.9c-2.9,2-5.5,4.1-8.3,5.8c-4.9,2.7-11.3,1.1-13.6-3.2
		c-2.4-4.4-0.1-10.1,4.6-13.3c11.7-7.9,23.6-15.6,34.7-24.3c9.3-7.3,11.9-17.8,10.8-29.5c-0.4-3.9,0.2-7.9,1-11.8
		c0.8-3.6,5.3-5,7.9-2c3.8,4.4,7.7,9.5,9.2,14.9c2.2,7.8,5.4,13.9,11.4,19.6c4.6,4.3,9.7,6.4,14.9,9.1c7.8,4,13,11.5,10.3,17.8
		c-2.3,5.3-7,9.7-11,14.1c-2.1,2.2-5.4,3.2-7.6,5.4c-2.1,2.1-1.7,4.1,1.8,4.8c8.3,1.7,16.6,3.3,24.7,5.5c3.3,0.9,6.5,3.2,9,5.6
		c0.8,0.8,0.2,4.6-1,5.8c-7.1,6.8-15.8,4.4-23.5,2.3c-12.1-3.3-12-4-11.8,8.3c0,1.3,0.2,2.7,0,4c-1.6,14.2,3.2,16.2,19.2,15.5
		C312.8,182,318.4,184.1,323.9,187.5z M258,260.4c0,0.2,0.1,0.3,0.1,0.5c1,0,2-0.1,3,0c4.2,0.5,7-0.4,7.4-5.4
		c0.4-4.4,1.9-8.6,2.7-13c0.9-5.2-2-9.7-6.9-10.6c-4.4-0.7-8.8-1.1-13.2-1.4c-3.9-0.2-9.5-1.7-11.3,0.2c-2.2,2.3-1.3,7.6-1.5,11.6
		c-0.2,4.4-0.3,8.7,0,13.1c0.5,6,3.4,7.8,9,6.7C250.8,261.4,254.4,261,258,260.4z M270.1,95.7c-2.4,0.6-3.4,0.7-4.3,1.1
		c-11.5,5.1-20.8,13.3-30.3,21.3c-0.8,0.7-0.6,4.4,0.2,4.8c3.1,1.7,6.6,3.4,10.1,3.7c5.2,0.5,10.4-0.2,15.7-0.5
		c1.4-0.1,3.2-0.3,4.2-1.1c4.3-3.8,8.6-7.8,12.5-12c2.3-2.5,4.2-6,1.6-9C276.8,100.6,272.9,98.1,270.1,95.7z M237,209.4
		c0.8,5.1,3.3,7.5,7.4,7.4c6-0.2,12-0.1,18,0.3c5.3,0.3,7.3-1,7.7-6.2c0.4-4.6,0.8-9.2,1.2-13.8c0.2-3.1-0.7-5.1-4.3-5.4
		c-5.6-0.5-11.1-1.5-16.7-1.9c-1.7-0.1-4.3,0.8-4.9,2C242.3,197.5,239.7,203.5,237,209.4z M258.8,178.2c9.6,0,12.6-1.9,13-9
		c0.3-5.7,0.4-11.5,0.3-17.2c-0.1-4-2.5-5.3-6-3.4c-6.8,3.7-12.3,8.8-15.9,15.7C243.6,176.9,244.3,178.2,258.8,178.2z M285.4,189.1
		c-2.7-1.6-4.4-2.9-6.2-3.5c-0.5-0.2-2.5,2.5-2.3,2.7c1.2,1.4,2.6,2.9,4.3,3.7C281.7,192.2,283.2,190.6,285.4,189.1z"/>
	<path d="M140.4,366c-0.3-3.2-0.8-5.9-0.8-8.5c0.1-9.7,0.5-19.3,0.4-29c0-3.3-0.7-6.6-1.8-9.7c-1.8-5-4.6-5.7-9.1-3
		c-1,0.6-2.3,1.5-3.1,1.3c-9.2-2.4-16.8,3.2-25.2,4.6c-3.8,0.6-13.5-3.3-15.2-6.7c-2.3-4.6,0.1-8.9,5.1-9.3c1.3-0.1,2.7,0.1,4,0
		c10.7-0.5,21.6-0.1,32.1-1.7c9.2-1.4,18.4-4.6,19.2-16.6c0.1-1.3,1.2-2.6,2.1-4.6c-9.8-0.3-19-0.6-28.1-0.6c-1.5,0-3.1,1.2-4.6,1.8
		c-0.9,0.4-2.1,1.6-2.6,1.3c-7.5-3.8-15.4,3.1-23.1-1.1c-4.7-2.5-6.7-6.7-3.2-10.6c2.1-2.4,5.6-4.3,8.8-4.7
		c4.5-0.6,9.3,0.6,13.9,0.4c7.8-0.4,15.6-1.1,23.4-2c2.9-0.3,4.6-2.6,3.3-5.5c-3.8-8.2-7.6-16.4-12.2-24.1c-2.3-3.8-5.7-0.5-8,1.4
		c-5.7,4.9-11.2,10.2-16.9,15.1c-3.3,2.8-16.6,1.1-19.1-2.6c-0.8-1.1-0.2-4.5,0.9-5.3c7.1-4.8,14.4-9.6,22-13.6
		c7.4-3.9,6-3.8,7.2-11.5c1.3-7.8-1.9-9.6-7.6-12.5c-2.9-1.5-4.4-6.3-5.9-9.8c-1.4-3.3-2.4-6.8-3-10.3c-0.7-4.2-1.9-8.9-0.7-12.8
		c2.3-7.6,2.8-16.6,12.6-19.8c2.8-0.9,5.2-3.6,7.4-5.8c4.8-4.6,10.5-6.4,17.1-5.6c0.8,0.1,1.7,0.3,2.5,0.1
		c8.9-2.3,17.8-0.4,26.6,0.2c10.1,0.7,20.2,3.2,30.2,5.3c2,0.4,3.8,2.6,5.5,4.1c1.7,1.5,3.1,3.4,5,4.7c5.1,3.6,4.9,9.2,5.6,14.3
		c0.7,5.2,1.3,10.8,0.5,15.9c-1.5,8.9-5.3,17.1-12.8,22.7c-1.3,1-3.5,0.7-5.3,0.9c-4.1,0.5-5.2,2.7-4.7,6.8
		c0.8,6.8,5.8,10,10.5,13.6c3.8,2.9,7.6,5.8,11.1,9c2.4,2.2,4.1,5,1.6,8.4c-2.6,3.6-6.4,4.7-10.1,3c-3.5-1.6-6.4-4.6-9.8-6.5
		c-3.4-1.9-7-3.8-10.7-4.7c-1.3-0.3-4.2,2.1-4.9,3.9c-2.4,5.5-4,11.2-6,16.8c-1.5,4.2-0.6,5.6,3.8,5.5c7.2-0.1,14.5-0.2,21.7-0.3
		c3.5,0,7,1.4,7,4.8c0,2.2-2.9,5.5-5.2,6.2c-5,1.6-10.3,2.2-15.6,2.5c-5,0.3-10-0.3-15-0.4c-5.3-0.1-6.1,0.7-5.4,6
		c0.2,1.3,0,2.7,0.2,4c1.7,11.9,4.9,13.2,15.6,10.4c7.8-2,15.7-3.1,23.5-0.1c1.6,0.6,3.8,2.4,3.9,3.7c0.1,2-1.1,4.4-2.5,5.9
		c-1.2,1.4-3.4,2.4-5.2,2.6c-7.2,0.6-14.5,0.8-21.7,1.2c-2.1,0.1-4.3,0.3-6.3,0.8c-3.9,1.1-5.9,3.9-4.8,8c2.9,10.5,0.8,21,0.3,31.6
		c-0.1,1.2-0.2,2.3-0.5,3.4c-1.3,4.4-3.2,7.9-8.9,6.9C146.5,365.6,143.8,366,140.4,366z M184.7,176c-0.5-11.4-10.2-18.9-22.1-19
		c-10.7-0.1-21.5,0.9-32.1,2c-10.7,1.2-16.3,8.7-21.2,17.6c-2.1,3.9,1.2,5.4,0.7,8.1c-0.9,5,2.6,7.8,6,10.1c8,5.3,17.6,5.4,26.7,6
		c6.3,0.4,12.8-1.9,19.1-1.5c8.9,0.6,16.3-1.9,22.8-7.8c4-3.5,4.5-8.6,1.3-12.4c-3,1.9-6,5.3-9,5.4c-17.5,0.6-34.9,0.4-52.4,0.4
		c-1,0-2.2,0.2-2.9-0.3c-1.4-0.9-3.5-2.1-3.6-3.4c-0.2-1.9,0.6-5.1,1.8-5.6c3.4-1.4,7.2-1.7,10.9-2.2c1.7-0.2,3.6,0.4,5.3,0.3
		c8.1-0.3,16.2-1.1,24.2-0.8C168.3,173.3,176.3,174.9,184.7,176z M178.7,214.1c0-0.4-0.1-0.8-0.1-1.3c-5.6,0-11.2,0-16.8,0
		c-5.8,0-11.6,0.1-17.5,0.1c-2.8,0-5.7-0.3-8.5,0.1c-4.7,0.6-8.4,5.3-6.7,8.7c2.3,4.5,5.1,8.8,7.8,13c2.7,4.2,5.5,8.2,8.4,12.2
		c0.7,0.9,1.9,2.1,2.9,2.1c5.9-0.2,11.5-7.1,11-13c-0.8-8.4,5.1-17.3,13.1-19.8C174.5,215.6,176.6,214.8,178.7,214.1z"/>
	<path d="M165.6,132c-6.1,0-12.2-0.1-18.4,0.1c-1.9,0-3.9,1.1-5.8,1.1c-8.7-0.1-18,1.2-25.7-3.4c-8.3-5-10.5-16.8-6.4-25.9
		c1.3-2.9,2.6-5.8,4.4-8.4c1-1.5,2.8-3.1,4.5-3.4c7.7-1.1,15.4-1.7,23.1-2.4c1.3-0.1,2.8,0.2,3.9-0.3c9.2-4.3,18.2-1.2,26.9,1
		c11.4,3,16.3,9.4,16.1,22.9c-0.1,4.7-0.7,9-5.3,11.6c-0.3,0.2-0.5,0.5-0.7,0.7C175.3,132.2,175.3,132.2,165.6,132z M145.6,102.3
		c0,0,0,0.1,0,0.1c-4.7,0-9.3-0.2-14,0.1c-4.3,0.2-8.4,6.2-7.6,10.7c0.7,4.5,4.3,6.4,9.5,5.3c1.8-0.4,3.6-0.1,5.5-0.2
		c7.9-0.5,15.9-0.8,23.8-1.5c5.7-0.5,8.2-4.9,4.8-9.4c-1.9-2.5-5.8-4.2-9-4.9C154.4,101.6,150,102.3,145.6,102.3z"/>
	<path d="M78.7,80.2c8-3.5,15.1-6.9,22.3-9.6c7-2.7,14.3-4.9,21.5-7.2c6.9-2.2,8-3,6.9-9.4c-1.1-6.2-4.2-12.9,0-20
		c2.9,0,6.6-1,9.3,0.3c2.7,1.2,5,4.3,6.6,7.1c3,5.5,5.2,11.3,8,16.9c0.7,1.3,2.3,2.7,3.7,2.9c5,0.9,10.1,1.3,15.2,1.8
		c6.1,0.6,12.2,1,18.2,1.9c1.8,0.3,3.9,1.6,5,3.1c1.2,1.7,2.3,4.3,1.8,6.1c-0.4,1.3-3.3,2.7-5.1,2.7c-9.1,0-18.1-0.5-27.2-0.7
		c-6.7-0.2-13.3-0.3-20-0.2c-2.6,0-5.2,0.9-7.8,1.3c-1.4,0.2-2.9,0.3-4.4,0.4c-5.2,0.3-11.5-1.2-15.3,1.2
		c-6.1,3.7-13.1,5.5-18.9,9.3c-6.7,4.3-12.8,2.6-18.4-1.3C78.8,85.7,79.1,82.2,78.7,80.2z"/>
	
	
	
	
	
	
	
	
</g>
</svg>
