<?xml version="1.0" encoding="utf-8"?>
<!-- Generator: Adobe Illustrator 22.0.0, SVG Export Plug-In . SVG Version: 6.00 Build 0)  -->
<svg version="1.1" id="图层_1" xmlns="http://www.w3.org/2000/svg" xmlns:xlink="http://www.w3.org/1999/xlink" x="0px" y="0px"
	 viewBox="0 0 400 400" style="enable-background:new 0 0 400 400;" xml:space="preserve">
<style type="text/css">
	.st0{fill:#FFFFFF;}
</style>
<g>
	
	<path d="M80.2,145.2c0-3.1,0-6.3,0-10.3c3.8,0.3,7.4,0.8,10.9,0.9c8.5,0.3,17,0.4,25.5,0.6c19.8,0.4,39.5,0.8,59.3,1.4
		c9.3,0.3,20.4,10.1,21.9,19.1c1.6,9.7-7.5,21.1-18.1,21.9c-7.7,0.5-15.5,0-23.2,0c-1.2,0-2.3,0.1-3.5,0.2c-7.2,1-14.6,1.3-21.5,3.2
		c-6.6,1.8-13.2,0.5-19.6,1.7c-3.2,0.6-6.5,4.2-8.5,7.3c-1.7,2.5,0.5,4.8,3.6,5c3,0.2,6-0.1,9,0c11.3,0.4,22.5,1.2,33.8,1.3
		c4.7,0,9.6-0.9,14.2-2c6-1.4,9.1-0.3,12,4.9c3.3,5.9,3.9,6,9.2,2.1c3.5-2.5,7.1-4.8,10.9-6.8c1.4-0.8,3.5-0.5,5.2-0.5
		c1,0,1.9,0.6,2.8,0.9c11.3,3.2,12.2,2.2,11.1-9.6c-0.5-4.9,0.6-9.9,0.6-14.8c-0.1-5.8-1-11.6-0.9-17.3c0.1-6.3,1-12.6,1.5-19
		c0.1-0.8,0.3-1.7,0.1-2.5c-4.4-15.6,4.8-24.9,15.7-33.3c3.1-2.4,6.8-4,10.3-5.9c4.6-2.5,5-6.5,0.6-9.2c-3.8-2.3-7.9-4.2-12.1-6
		c-1.4-0.6-3.4-0.6-4.9-0.2c-5.9,1.6-11.7,3.4-17.4,5.4c-3.9,1.3-8.2-0.8-10.3-5.5c-1.7-3.8-0.3-6.6,4-8.6
		c11.5-5.6,21.7-13.2,31.6-21c5.7-4.4,10.7-9.7,15.5-15.1c5.6-6.2,10.8-6.3,15.6,1.1c4,6.2,10.1,8.9,16.3,11.5
		c6.3,2.7,13.1,4.6,19.4,7.3c2.8,1.2,5.3,3.3,7.8,5.2c7.2,5.5,4,15.3-0.5,20.2c-2.4,2.6-5.1,4.8-7.3,7.5c-3.8,4.5-2.6,7.7,3.1,9.3
		c6,1.7,11.9,3.5,17,5c2.7,7.1-1.7,9.7-5.3,12.2c-3.8,2.7-7.2,0.2-10.4-2.2c-5.4-4.1-10.5-8.4-17.3-10.6c-3.4-1.1-5.6-0.6-6.2,2.4
		c-0.8,4.6-1,9.5-0.7,14.2c0.1,1.1,2.8,2.7,4.5,3c7,1,14.2,1.4,21.1,2.6c2.4,0.4,5.8,2.3,6.3,4.1c0.5,1.9-1.4,5.7-3.2,6.7
		c-2.6,1.4-6.3,1.5-9.4,1.4c-4.6-0.2-9.2-1.2-13.8-1.8c-3.9-0.5-6.1,1.5-6.7,5.1c-0.6,3.7,1.3,6.4,4.8,7c7.8,1.4,15.6,2.4,23.5,3.2
		c3.4,0.3,6.7,0.6,7,4.7c0.4,4-2.6,6-6,6.9c-7.6,2.1-15.2,2.3-22.8-0.3c-4.9-1.7-8.3,0.2-9.2,4.7c-1.3,6.5,0.9,10.7,6.1,11.4
		c9.8,1.4,19.6,2.5,29.4,4.1c9.3,1.5,9.3,1.8,8.7,11.3c-9.5,6.8-19.5,3.1-29.3,1.1c-5-1-9.6-3.4-14.6-4.4c-3.5-0.7-7.3,0.4-10.9,0
		c-3.1-0.3-6.1-1.7-9.2-2.1c-3.1-0.5-6.4-0.3-9.5-0.5c-1.3-0.1-2.6,0-3.8-0.3c-5.3-1.5-10.4,1.9-10.3,7.2c0.1,4.5-0.4,8-5.3,10.1
		c-3.2,1.3-2.8,4.9,0.4,6.5c1.8,0.9,3.7,1.6,5.7,1.9c7.8,1.2,13.4,6.2,19.6,10.4c5.1,3.4,10.4,6.2,15.4,10
		c9.1,6.8,19.8,11.4,29.9,16.6c7.2,3.7,14.6,7,22,10.6c0,3.1,0,6.4,0,9.8c-2,1-4.1,2.1-6.1,3.1c-4.5,2.4-8.3,2.3-12.9-0.9
		c-6.5-4.6-14.1-7.9-20.8-12.2c-4.6-3-8.3-7.1-12.8-10.3c-4.9-3.5-10.2-6.5-15.3-9.6c-6.9,10.4-7.8,10-19.6,8.7
		c-8.5-1-17.2,0.1-25.8,1.2c-1.6,0.2-3.1,4.7-3.6,7.4c-0.2,1.5,1.5,4.1,3,4.9c1.9,1,4.5,1,6.8,1c10.7,0.2,21.8-1,32.1,1.1
		c5.3,1.1,9.5,8,14.2,12.4c0.6,0.5,0.8,1.4,1.1,2.2c2,4.9,6.5,9.1,3.8,15.3c-4,9-7.2,18.7-16.8,23.1c-5.6,2.6-12,3.5-18.2,4.5
		c-5.4,0.8-8.5,3.3-9.1,8.7c-0.3,2.8-1.3,5.6-1.2,8.3c0.1,2.4,0.4,5.6,2,7.1c3.2,3,7.3,5.1,11,7.6c2.7,1.8,5.5,3.7,8.2,5.5
		c3.7,2.5,4.1,6.2,1.6,9c-3.2,3.6-7.4,6.4-11.5,9c-0.9,0.6-4.1-1.1-5.2-2.5c-5.3-6.8-10.1-14-15.2-20.9c-2.9-4-6-4.6-10.3-2.1
		c-2.2,1.3-4.3,2.5-6.3,3.9c-6.3,4.5-7.6,9.4-4.3,16.5c0.9,2,2,3.8,3,5.7c1.6,3.2-0.8,7.7-4.3,7.8c-2.3,0.1-4.6,0-6,0
		c-2.4-2.6-4.2-4.7-6.2-6.6c-3.5-3.2-7-6.3-6-11.8c0.2-0.9-0.3-2-0.8-2.8c-2.4-3.3-1.3-6,0.9-9c1.6-2.1,2.5-4.8,3.2-7.4
		c0.7-2.7,1.6-4.5,4.7-3.1c2.9,1.3,4.7,0.1,6.9-2.1c3.9-4,8.6-7.2,12.8-10.9c1.5-1.3,3.2-2.6,4.1-4.2c1.8-3.6-0.4-5.9-4.3-5.8
		c-12.9,0.3-25.8,0.5-38.7,0.4c-2.2,0-4.6-1.7-6.7-3.1c-13.1-8.6-13.3-31.7-5.1-41.7c5-6.2,12.3-8.2,19.6-10.1
		c5.3-1.4,10.7-2.1,16-3.5c4.9-1.3,8.3-10.9,4.6-14.3c-1.7-1.6-5.7-1.9-8.2-1.3c-6.2,1.5-12,1.9-18.1-0.2c-1.7-0.6-4.6,0.6-6.2,1.8
		c-6.2,4.7-12.3,9.7-18.1,14.9c-6.1,5.5-11.9,11.5-17.9,17.2c-2.6,2.5-5.3,4.6-9.3,3c-1.1-0.4-3.1-0.3-3.7,0.4
		c-3.9,4.4-6.5,1.3-8.9-1.5c-2.2-2.6-1.1-7.2,2.2-9.7c3.6-2.7,7.4-5,10.9-7.7c5.8-4.5,11.3-9.2,17.1-13.7c4.3-3.3,8.9-6.2,13.2-9.5
		c2.9-2.2,5.7-4.5,8.4-6.9c6.6-5.8,13.3-11.6,19.8-17.5c1.4-1.3,2.2-3.3,2.6-5.2c0.1-0.7-1.7-2.6-2.6-2.5
		c-10.9,0.6-21.8,1.4-32.6,2.2c-4.3,0.3-8.5,1-12.8,1.3c-1.8,0.1-3.6-0.4-5.4-0.5c-3.3-0.1-6.7-0.8-9.8-0.1
		c-8.5,2-16.6-0.7-21.2-8.1c-0.7-1.2-1-2.8-1-4.3c-0.1-4.8-0.1-9.7,0-14.5c0.1-6.5,4.1-11.2,10.5-11.8c7.1-0.7,14.2-1,21.3-1.1
		c9.4,0,17.1-9.4,14.2-18.4c-0.4-1.4-3.1-2.8-4.9-2.9c-6.3-0.2-12.7-0.1-19,0.4C98.8,151.7,89.3,149.9,80.2,145.2z M180.1,306.9
		C180.1,306.9,180.1,306.8,180.1,306.9c3.5-0.1,7,0.2,10.5-0.1c10.9-0.8,21.7-1.4,32.5-2.7c4.1-0.5,8.2-2,11.9-3.7
		c6-2.8,5.9-9.1,7.6-14.5c2.2-7.1-2.8-14.6-10.1-14.7c-7.8,0-15.6-0.3-23.4,0c-5.7,0.2-11.5,0.7-17.1,1.8c-6.3,1.2-12.4,3.6-18.6,5
		c-6.2,1.4-10.4,5.4-14.3,9.7c-1.3,1.4-1.8,4.5-1.4,6.5c1.3,6.5,9.3,12.5,16,12.6C175.7,306.9,177.9,306.9,180.1,306.9z
		 M209.8,209.2c-9.2,1.1-14.3,3.5-20.8,9.7c-3.5,3.2-7.6,5.7-11.4,8.6c-1.2,0.9-2.2,2.2-3.3,3.2c1.1,1.1,2.2,3.1,3.4,3.2
		c6.4,0.4,12.8,0.8,19.1,0.4c7.9-0.5,15.7-1.9,23.5-2.7c4.8-0.5,9.6-0.4,14.3-1.1c1.5-0.2,3.4-1.6,4.1-3c0.4-0.8-1.1-3.1-2.3-3.9
		c-5.4-3.5-10.9-6.9-16.5-10.1C216.7,211.8,213.2,210.6,209.8,209.2z M261.1,55.3c-1,0.4-2.2,0.5-3.2,1.2c-5.1,3.4-10.2,6.9-15,10.7
		c-0.8,0.7-0.7,4.5-0.1,4.7c6.2,2.6,12.5,4.8,19,6.8c1.1,0.3,2.7-1.7,4.3-2.1c5.5-1.5,11-3.6,16.6-3.9c3.4-0.2,4.1-1,4.2-3.6
		c0.1-3.4-1.4-5.6-4.8-6.7c-4.7-1.5-9.4-3.4-14.1-5C265.7,56.5,263.5,55.9,261.1,55.3z M157.8,168.3c4-1.1,9.7-2.3,15.1-4.2
		c3.7-1.3,6-7.5,4.5-10.4c-2.2-4.2-7.3-6.1-11.9-5c-2.9,0.7-6.1,1-9.1,0.9c-3.6-0.2-5.8,0.8-6.5,4.5c-0.3,1.5-0.7,2.9-1.1,4.3
		C147.1,164.2,150.1,168.2,157.8,168.3z M250.5,142.7c3.1-0.7,6-0.6,7.7-2c1.9-1.6,3.5-4.6,3.4-7c0-1.7-2.9-4.3-4.8-4.7
		c-6.1-1.2-12.4-1.8-18.6-2.1c-4.9-0.3-7.6,2.5-7.9,7c-0.2,3.7,2.7,7.4,6.8,7.9C241.8,142.4,246.4,142.5,250.5,142.7z M240,153.6
		c-0.2-0.4-0.5-0.8-0.7-1.2c-2.4,1.5-5.8,2.5-7,4.7c-2,3.7,0.1,8.5,4.8,9.9c6.1,1.8,12.7,3,18.9,2.5c2.3-0.2,4.8-5.6,6-9.1
		c0.4-1.1-3.1-4.7-5.3-5.2C251.3,154.1,245.6,154.1,240,153.6z M262.3,110.3c0.2-5.2-2.4-9.1-6.3-9.3c-2.8-0.2-8,5.8-8.3,9.5
		c-0.3,3.3,2.5,5.8,6.6,5.9C258,116.5,262.2,113.4,262.3,110.3z"/>
	<path d="M154.1,125.7c-7.1,0.5-14.2,1.2-21.2,1.3c-6.8,0-13.8,0.2-20.2-1.4c-6-1.5-8.2-7.7-9.9-13.3c-0.1-0.5-0.3-1.1-0.1-1.5
		c3.4-8.4-1.3-15.1-4.1-22.4c-2.9-7.7-3.2-16-0.7-23.7c1.5-4.7,4-9,3-14.2c-0.8-4.4-1.9-8.7-2.6-13c-0.6-3.7-1.4-7.5-1.1-11.2
		c0.1-1.6,2.6-3.9,4.4-4.3c1.5-0.3,4.1,1.3,5.1,2.7c3.6,5.5,7.1,11.2,9.9,17.1c1.7,3.6,2.9,8,2.6,11.9c-0.5,6.9-2.8,13.6-3.3,20.5
		c-0.4,5.3,0.6,10.8,1.5,16.1c0.1,0.6,3.7,1.2,5.6,0.9c5-0.8,9.9-1.9,14.7-3.2c1-0.3,2.5-1.6,2.5-2.3c-0.3-3.9-0.5-8-1.6-11.8
		c-1.8-6.5-3.6-12.4-3-19.7c0.6-7.4-2.7-15.2-4.3-22.8c-0.2-1-1-1.9-0.9-2.8c0.2-2.2,0.8-4.4,1.3-6.7c1.9,0.8,4.6,1.1,5.7,2.6
		c4.9,6.4,9.4,13.1,13.8,19.9c0.8,1.3,0.5,3.4,0.6,5.2c0.1,3.9-0.2,7.8,0.3,11.5c0.6,3.9,2.8,7.6,2.9,11.4c0.1,2.8-2.1,5.6-3.3,8.4
		c-0.7,1.6-1.4,3.1-2.1,4.7c1.6,0.6,3.3,1.9,4.8,1.6c11.4-2,20.2,2.8,27.4,10.8c2.7,3,4.4,6.9,5.8,10.7c0.5,1.5-0.8,4.3-2.1,5.6
		c-8.4,7.6-18,12.2-29.7,11.4c-0.5,0-1,0-1.5,0C154.1,125.8,154.1,125.7,154.1,125.7z M153.2,112.1c0.2,0.6,0.3,1.1,0.5,1.7
		c2.9-0.7,6-0.8,8.5-2.2c1.6-0.9,3.2-3.8,2.9-5.5c-0.2-1.4-3.1-2.9-5-3.3c-2.5-0.6-5.6,0.4-7.9-0.5c-8.5-3.4-16.7,0.3-25,0.9
		c-2.4,0.2-5,2.6-6.9,4.5c-1,1-1.3,3.4-0.9,4.9c0.2,0.8,2.7,1.4,4.1,1.3c4-0.2,7.9-0.9,11.3,2.3c0.9,0.8,3.2,0.6,4.6,0.2
		C144,115.1,148.6,113.5,153.2,112.1z"/>
	<path d="M167.5,18.4c4.5-0.7,7.6-1,10.3,3.1c4.8,7.2,10.2,13.4,6.9,23.6c-1.3,3.9,2.3,9.4,3.8,14.1c1.2,3.5,2.4,6.9,4.2,10.1
		c1.8,3.4,0.7,5.7-1.7,7.9c-1.8,1.7-3.6,3.5-5.4,5.1c-3,2.8-6.2,2.2-8-1.7c-1.4-3.2-2.2-6.6-3.5-9.8c-1.3-3.2-2.9-6.2-4.6-9.2
		c-3.5-6.1-1.5-12.6-1.6-19c-0.1-6-0.3-12.1-0.4-18.1C167.4,22.5,167.5,20.4,167.5,18.4z"/>
	<path d="M189.5,18.3c6.6,0,12.3,0,18,0c0.7,3.7-1.7,4.8-4.3,4.5C198.8,22.3,193.1,24.9,189.5,18.3z"/>
	<path d="M261,382.8c-1.6,0.1-3.2,0.2-6.4,0.3c1.2-2,2-4.3,2.7-4.2c1.6,0.1,3.1,1.3,4.6,2C261.6,381.5,261.3,382.2,261,382.8z"/>
	
	
	
	
	
	
	
	
	<path d="M182.7,285.5c7.5-1.3,14.9-2.7,22.4-3.9c2.3-0.4,5.2-1.2,6.8-0.1c4.9,3.4,9.4,1.5,14.1,0.2c4.6-1.3,11,2.5,12.1,6.9
		c0.7,2.6-3.4,6.5-6.7,6.5c-15.1,0.3-30.2,0.5-45.3,0.9c-1.4,0-2.9,0.5-4.3,1.1c-5.1,1.9-10.9,0.7-13.8-3.7
		c-1.1-1.7-1.4-4.5-0.8-6.4c0.4-1.2,3.1-2.1,4.8-2.3c3.5-0.3,7-0.1,10.5-0.1C182.6,284.9,182.6,285.2,182.7,285.5z"/>
</g>
</svg>
