<?xml version="1.0" encoding="utf-8"?>
<!-- Generator: Adobe Illustrator 22.0.0, SVG Export Plug-In . SVG Version: 6.00 Build 0)  -->
<svg version="1.1" id="图层_1" xmlns="http://www.w3.org/2000/svg" xmlns:xlink="http://www.w3.org/1999/xlink" x="0px" y="0px"
	 viewBox="0 0 400 400" style="enable-background:new 0 0 400 400;" xml:space="preserve">
<style type="text/css">
	.st0{fill:#FFFFFF;}
</style>
<g>
	
	<path d="M181.7,46.3c6.8-1.9,9.2,4.3,13.3,7.1c1.8,1.3,3,3.5,4.5,5.2c2.5,2.7,3.6,5.3,1.5,8.9c-1.9,3.4-0.6,5.2,3.5,5.3
		c13.7,0.4,27.5,0.5,41.2,1.3c4.8,0.3,10.3,1.1,14.2,3.6c7.1,4.4,13.2,10.3,19.7,15.6c1.9,1.6,4,3.1,5.6,5c1.4,1.7,2.5,3.8,3.4,5.9
		c1.1,2.5,1.2,5.8,2.9,7.6c6,6.2,4.7,14.3,5.8,21.6c1.2,8.1,0.8,16.4,1.3,24.7c0.2,3.1,0.9,6.2,1.4,9.4c0.4,2.9,1.5,6.1,0.9,8.8
		c-1.9,7.8,0,15,1.8,22.3c0.3,1.3,0.1,2.6,0.1,4c0,10.8-0.8,21.6,0,32.3c1,12.8,3.5,25.5,5.4,38.2c1.4,9.3,2.9,18.6,4.4,27.9
		c0.1,0.5-0.2,1.3,0,1.4c7.3,4.4,1.8,14.4,8.4,19.5c1.7,1.3,0.5,6,0.9,9.1c0.9,6.7-0.7,12.5-5.5,17.4c-1,1-1.1,2.7-1.8,4
		c-0.6,1.1-1.7,1.9-3.2,2.7c-0.3-5.5-3.4-8.1-7.4-10.3c-4.2-2.3-6.4-5.8-6-11.1c0.3-3.5-0.6-7.3-1.4-10.8c-1.3-6.1-3.4-12-4.5-18.1
		c-1.2-6.3-1.5-12.8-2.4-19.2c-0.2-1.7-0.4-3.6-1.2-5c-2.8-5.1-4.2-9.8-3.2-16.2c1.2-7.6-0.4-15.8-0.8-23.7
		c-0.1-2.3-0.6-4.6-0.6-6.9c-0.4-12.5-0.3-25-1.2-37.4c-0.4-5.3-1.4-10.3-0.6-15.8c0.8-6-1.4-12.3-2.1-18.5
		c-0.3-2.1-0.8-4.4-0.3-6.4c1.8-8,0.4-15.5-2.2-23c-0.8-2.3-0.1-5.1-0.8-7.4c-1.8-5.6-3.3-11.5-6.3-16.5c-2.5-4-6.7-7.2-10.6-10.1
		c-3.3-2.4-7.2-4.2-11-5.7c-3-1.2-6.3-1.8-9.6-2.2c-7-0.8-14.1-1.4-21.2-1.8c-3.2-0.1-6.4,0.7-9.7,0.9c-8.6,0.7-16.7-3.3-25.5-1.6
		c-13.6,2.7-27.9,3-41.1,6.7c-8.6,2.4-17.2,7.6-20.8,17.5c-2.2,5.9-5.5,11.4-7.8,17.2c-1.4,3.5-2,7.3-2.4,11.1
		c-0.9,7.5-1.6,15.1-2.1,22.7c-0.3,5.4,0,10.9-0.3,16.3c-0.2,4.1-0.9,8.2-1.2,12.3c-0.1,1.4,0.1,2.9,0.4,4.4
		c0.3,1.6,1.4,3.4,1.1,4.8c-2.1,8.6,0.1,16.9,1.2,25.4c0.3,2-0.9,4.2-1,6.4c-0.6,10.9-1,21.8-1.7,32.8c-0.2,3.9-1.1,7.9-1.5,11.8
		c-0.8,8.2-1.7,16.5-2.2,24.8c-0.1,1.7,1.3,4.2,2.7,5.1c3.6,2.3,3.2,4.6,1,7.4c-2.6,3.3-6.2,6.1-6.1,11c0,0.8-0.5,1.8-0.3,2.4
		c4.5,10.8-5.2,14.7-10.3,20.3c-3.1,3.4-10.2-0.7-10.4-5.4c-0.1-3.7,0-7.3,0-11c0-0.8-0.1-2.1,0.3-2.4c5.5-3.2,3.3-8.5,3.4-13
		c0.2-9.1-0.1-18.3-0.2-27.4c0-0.8-0.1-1.8,0.3-2.5c3.6-6.3,2.6-13.2,3.1-19.9c0.5-7.3,2.4-14.7,1.5-21.7c-1.3-9.7,0-18.8,1.6-28.3
		c1.2-6.8-1-14.1-1-21.1c0-10.5,0.7-21.1,1-31.6c0.2-5.5,2-10.6,0.9-16.5c-1.2-6.5,0.6-13.7,2-20.5c3-14.3,12.4-24.7,21.5-35.6
		c6.9-8.2,15.6-11.1,25-14.2c6.3-2.1,12-4.9,19.2-2.7c3.8,1.2,8.7,0,12.7-1.3c2.4-0.8,5-3.7,5.6-6.1c0.9-3.6-0.6-7.7,0.1-11.4
		C177.8,52.9,180,49.8,181.7,46.3z"/>
	<path d="M230.1,355.3c-2.7-5.4-5.7-9.8-7.3-14.8c-1.8-5.6-2.3-11.6-3.6-17.4c-1.6-7.5-2.7-15.2-9.2-20.8
		c-5.6-4.8-7.4-11.4-8.5-18.5c-0.8-5.3-3-10.5-4.4-15.7c-4.3-15.5-8.6-31-12.7-46.6c-1.6-6.2-3.4-7-8.3-2.6
		c-8.5,7.6-16.7,15.7-25.7,22.7c-4.5,3.5-10.4,5.8-16.1,7.3c-4.6,1.2-6.6-3.7-8.7-7c-1.8-2.9-2.6-6.1,0.4-8.6
		c5.5-4.4,11.1-8.7,17-12.6c7-4.6,14.5-8.4,21.4-13.2c5-3.4,9.3-7.9,14-11.8c1.6-1.3,3.6-2.4,5.5-3.3c10.7-4.7,21.4-9.3,32.1-14
		c1.2-0.5,3-1.3,3.1-2.1c0.7-4.9,1-9.8,1.3-14.7c0.1-0.9-0.9-2.1-0.6-2.8c2.2-6.2-2.5-10.1-4.9-14.7c-1.8-3.4-5.2-4.4-8-1.8
		c-5.9,5.6-14.2,7-20.1,13.1c-4.7,4.9-11.8,7.3-17.8,11.1c-2.8,1.7-5.2,3.9-7.8,5.9c-1.2,0.9-2.2,2-3.5,2.7c-4,2.2-8.3,4.1-12.2,6.6
		c-4.4,2.9-8.5,6.3-12.8,9.3c-4.2,3-9.6,2.9-12.9-0.1c-3.3-3-4.5-9-1.1-12.8c4.2-4.8,9.2-9.2,14.7-12.4c9.8-5.7,20.9-9.4,30.2-15.7
		c6.6-4.4,15.8-5.8,19.2-14.6c0.3-0.9,2.2-1.2,3.4-1.7c2.6-1,5.4-1.8,8-2.8c3.8-1.5,4.6-3.6,3.1-7.8c-1.7-4.9-2.6-10.3-2.6-15.5
		c0-5.7,4.2-7.1,9-4.2c7.7,4.7,13.6,10.8,18,18.7c2,3.6,6.7,5.7,8.8,9.2c4.1,7.1,7.2,14.7,10.7,22.2c0.7,1.5,1.1,3.2,2,4.5
		c9,13.3-2.8,27.9-14.4,31.6c-9.7,3.1-19.1,7.4-26.3,15c-0.7,0.8-1,2.5-0.7,3.6c2.2,9.1,4.8,18.1,7,27.2c1.6,6.4,2.7,12.9,4.2,19.3
		c0.7,3,1.7,5.9,2.7,8.8c1.8,5.2,3.8,10.3,5.6,15.4c1.5,4.3,2.6,8.8,4.4,13c3.9,9.1,8.1,18.1,12.3,27.2c1.6,3.6,3.2,7.3,5,10.8
		c4.6,8.9,4.1,16.9-3.2,23.7C237.8,355.7,233.2,354.9,230.1,355.3z"/>
</g>
</svg>
