<?xml version="1.0" encoding="utf-8"?>
<!-- Generator: Adobe Illustrator 22.0.0, SVG Export Plug-In . SVG Version: 6.00 Build 0)  -->
<svg version="1.1" id="图层_1" xmlns="http://www.w3.org/2000/svg" xmlns:xlink="http://www.w3.org/1999/xlink" x="0px" y="0px"
	 viewBox="0 0 400 400" style="enable-background:new 0 0 400 400;" xml:space="preserve">
<style type="text/css">
	.st0{fill:#FFFFFF;}
</style>
<g>
	
	<path d="M269,352.1c-3.9-9.9-7.9-19-11-28.4c-2.2-6.5-3.4-13.4-4.7-20.2c-2.3-11.8-5.2-23.6-6.4-35.5c-0.9-8.9-3.3-17-6.1-25.4
		c-2.8-8.4-4.5-17.3-6.3-26c-1.1-5.2-4.4-6.8-9.2-7.5c-7.9-1-15.8-2.8-23.7-3.6c-5.8-0.6-11.6,0.1-17.4-0.2c-4.9-0.2-9.8-1-14.7-1.6
		c-1.1-0.1-2.2-0.5-3.3-0.6c-3.1-0.5-6.2-0.7-9.3-1.4c-3.2-0.7-6.2-2-9.3-2.9c-4.1-1.3-6.9-7-6-13.5c0.6-4.6,0.4-8.5-2.1-13.1
		c-1.7-3.1,0.5-8.9,2.2-13.1c1.6-3.9,4.6-7.3,7.2-10.7c5.9-7.7,15-8.4,23.5-10c7.3-1.4,14.7-2.2,22-3c3.2-0.4,6.5,0.1,9.7-0.3
		c2.8-0.3,5.8-0.7,8.1-2.1c5.2-3.2,10.1-5.2,16.6-3.5c3.8,1,9.6-5.8,10.4-11.2c1.6-9.6,3.5-18.9,2.4-29c-0.7-6.2-1.4-11.8-4.3-17.1
		c-3.4-6.2-13.4-9.2-20.5-8.1c-6.6,1-13.4,0.2-20.1,0c-2.1,0-4.3-0.9-6.4-0.7c-11.6,0.7-23.3-1.8-34.7,1.8c-1.4,0.4-3.2-0.8-4.8-0.8
		c-4.9,0.2-9.8,0.2-14.6,1c-5.4,0.8-10.6,2.7-15.9,3.6c-4.4,0.7-8,3.8-9.3,8.5c-0.9,3.5-2.7,6.7-3.6,10.2c-1.2,4.3-2.7,8.6-2.9,13
		c-0.6,11.6-1.6,23.3,3.1,34.5c1.3,3.1,2.1,6.7,2,10.1c-0.3,7.7-1.3,15.5-1.9,23.2c-0.1,1.1-0.1,2.4,0.3,3.4
		c1.5,4.1,4.2,8.1,4.5,12.2c0.6,7.3-0.2,14.6-0.5,21.9c0,1.1-0.6,2.3-0.6,3.4c-0.5,8.1-1,16.2-1.5,24.3c-0.1,0.8,0.1,1.8-0.3,2.5
		c-3.7,7.2-1.6,14.8-2.1,22.3c-0.6,10-0.4,20.1-4.6,29.6c-1.5,3.5-1.2,7.8-2.2,11.6c-1.7,6.5-3.8,13-5.7,19.4
		c-0.2,0.8-1,1.4-1.2,2.2c-1.1,4.8-2,9.8-3.3,14.6c-0.6,2-1.9,5.1-3.1,5.3c-2.3,0.3-5.6-0.6-7.1-2.2c-2.4-2.7-4.5-5.9-4.1-10.2
		c0.6-6-1.3-12.5,0.6-17.9c3.7-10.5,1.3-22,6.9-32.2c2.7-4.8,3.1-11,3.9-16.7c1.2-8.6,2-17.4,2.8-26.1c1-10.4,0.8-20.9,2.9-31.1
		c2.1-10.5-1.5-19.7-3.1-29.4c-1.1-6.8-1.1-13.7-1.6-20.5c-0.4-6-0.6-12-1-17.9c-0.5-6.8-1.1-13.5-1.7-20.3c0-0.2-0.1-0.3-0.1-0.5
		c-2.1-8-2.1-8,0.7-15.3c0.6-1.5,0.9-3.2,1.1-4.8c0.7-6.6,1.2-13.2,1.9-19.7c0.1-1.3,0.6-2.7,1.4-3.7c9-10.5,17.7-21.6,33.9-19.6
		c1.7,0.2,3.9,0,5.3-0.8c7.5-4.1,15.7-3.8,23.8-3.9c17.8,0,35.6,0.2,53.5,0.3c3.6,0,7.1,0.7,11-0.1c9.5-1.9,17.3,4.1,25.4,7.6
		c10.4,4.4,14.9,12.9,15.8,24c0.3,3.3,3.1,6.4,3.3,9.6c0.2,4.5-1.1,9.1-1.7,13.7c-0.5,3.7-0.7,7.6-1.8,11.2
		c-1.9,6.1-3.3,12.8-6.9,17.8c-4,5.5-10.2,9.4-15.6,13.8c-1.2,1-3,1.6-4.6,1.9c-9.8,1.9-19.6,4-29.6,5.2c-9.3,1.1-18.8,1.4-28.2,1.6
		c-10.9,0.2-18.6,10.9-14.9,21.1c0.8,2.2,1.2,4.8,2.6,6.4c1.6,1.7,4.1,3.4,6.4,3.6c11.8,1.3,23.6,2.8,35.5,3
		c5.6,0.1,11.1,3.6,17,0.5c1.6-0.9,4.8,0.8,7.1,1.6c10.9,4.1,22.6,7.4,25.7,20.9c1.1,4.8,0.9,9.9,1.7,14.8
		c1.1,7.3,2.5,14.6,3.8,21.9c0.2,1,0.2,2.1,0.8,2.9c6.1,8.3,5.8,18.4,8.2,27.8c2.1,8.2,4.2,16.4,6.4,24.6
		c3.1,11.6,6.3,23.2,9.4,34.9c0.3,1.2,0.3,2.9-0.4,3.8c-2.3,3.2-4.6,6.6-7.7,9C274.3,352.7,271.2,351.9,269,352.1z"/>
	<path d="M151.6,92.8c8.3,0,16.6,0.3,24.9-0.1c10.8-0.5,21.5-1.8,32.2-2.3c3.1-0.1,8.1,0.5,9.1,2.4c1.4,2.6,0.6,7-0.6,10.2
		c-1.4,3.9-5,4.2-9.1,4.2c-8.9,0-17.7,1.2-26.6,1.8c-11.3,0.7-22.6,1.6-33.9,2c-4.7,0.2-9.6-0.2-14.2-1.2c-2.2-0.5-4.8-3-5.7-5.2
		c-1.2-3.2,0.3-6.4,3.9-7.5c6.5-2.2,13.1-4,19.6-6C151.4,91.6,151.5,92.2,151.6,92.8z"/>
</g>
</svg>
