<?xml version="1.0" encoding="utf-8"?>
<!-- Generator: Adobe Illustrator 22.0.0, SVG Export Plug-In . SVG Version: 6.00 Build 0)  -->
<svg version="1.1" id="图层_1" xmlns="http://www.w3.org/2000/svg" xmlns:xlink="http://www.w3.org/1999/xlink" x="0px" y="0px"
	 viewBox="0 0 400 400" style="enable-background:new 0 0 400 400;" xml:space="preserve">
<style type="text/css">
	.st0{fill:#FFFFFF;}
</style>
<g>
	
	<path d="M186.4,29.9c7.4,13,4.2,18.9-10.5,20.2c-4.4,0.4-9,0.5-13.3,1.6c-9.7,2.7-19.3,5.8-28.8,9c-1.5,0.5-3.5,2.7-3.5,4
		c0,1.5,1.9,3.3,3.4,4.4c4.7,3.4,10.1,3.1,15.7,3.3c9,0.4,18.2,1.7,26.9,4.3c7.5,2.2,11.4,12.9,8.9,20.6c-0.9,2.9-2.8,5.4-3.6,8.3
		c-0.5,1.7-0.3,4.2,0.7,5.4c5.4,6.5,9.4,14.2,17.2,18.4c6.7,3.6,7.1,14.4,3.8,22.4c-3.3,8.2-8.8,15.4-13.3,23.1
		c-0.9,1.6-2,3.2-2.3,4.9c-0.5,3,0.6,5.4,4.2,5.3c8.1-0.3,16.2-1.1,24.4-1.2c5.8-0.1,11.6,0.9,17.4,0.6c7.5-0.3,15-1.5,22.6-2
		c3.5-0.2,7,0.6,10.5,0.4c12.2-0.6,24.4-1.7,36.6-2.2c10.8-0.4,10.8-0.2,21,4.7c-0.5,3.1,0.2,7.7-1.8,9.4c-3.8,3.5-8,7.2-14.4,6.8
		c-9.8-0.7-19.6-0.4-29.5-0.6c-5.9-0.1-11.8-0.3-17.6-0.3c-5.3,0-6.3,2-4.4,6.9c1.1,2.7,1.7,5.7,2,8.6c0.9,10,1.6,20,3.2,30
		c2,11.7,1.7,23.9-8.2,33.3c-6.1,5.7-11.7,11.9-17.5,17.9c-0.3,0.4-0.9,0.7-1,1.1c-1.3,6-3.2,12-3.6,18.2c-0.3,4.3,1.6,8.7,2.3,13.1
		c1.3,8,6.1,13.2,13.5,15.7c4.5,1.5,7,4,7.7,8.7c0.2,1.6,0.8,3.2,1.4,4.8c1.1,3.4,0.3,5.2-2.7,7.8c-5.1,4.4-10.5,2.5-15.8,2.9
		c-0.8,0.1-1.8,0-2.4-0.5c-6.9-6.4-14.4-12.3-20.5-19.4c-3.2-3.8-4.5-9.4-6-14.5c-4.7-15.7,0.2-30.1,6.2-44.4c0.4-1,1.4-1.8,2.2-2.7
		c9.9-9.6,17.2-21.1,22.4-33.7c1.4-3.4,0.8-7.8,0.7-11.7c-0.1-5.6-0.3-11.2-1-16.8c-0.8-6.2-1.9-12.4-3.7-18.4
		c-0.6-2.1-3.5-4.6-5.5-4.8c-4.5-0.5-9.2,0.4-13.8,0.5c-4.2,0.1-8.4,0.2-12.5-0.3c-3.8-0.4-7.4-1.5-11.2-2.1c-1-0.1-2.6,0.5-3,1.2
		c-2.1,4.1-5.7,3.1-9.2,3c-13.4,0-26.8-0.5-39.9,2.6c-0.8,0.2-2,1-2.1,1.7c-0.1,0.7,0.6,2,1.3,2.3c4.7,2.3,7.6,5.8,9.9,10.6
		c2.3,4.7,7.5,4.2,12.1,3.3c4.2-0.9,8.6-1.4,12.4-3.3c2.7-1.3,4.6-4.5,6.8-6.8c2.4-2.5,2.5-6.7,7.1-7.6c6.4-1.3,11.5,1.4,13.5,7.7
		c3.1,9.6,0.2,19.1-0.2,28.7c-0.1,3.7-1.7,7.4-2.6,11c-0.1,0.3-0.2,0.7-0.1,1c3.8,9.2-1.1,17.3-3.2,25.8c-1.2,4.9-4.9,6.8-9.6,7.1
		c-10.1,0.7-20.1,2.1-30.2,1.9c-4.2-0.1-9-2.5-12.4-5.4c-6.4-5.4-13.2-10.9-14.9-20c-0.3-1.6-0.6-3.3-0.8-4.9
		c-1-9.3-2.8-18.7-2.7-28c0-5.5,2.9-10.9,4.8-16.3c0.6-1.6,2.5-2.6,3.6-4.1c0.7-1,0.9-2.3,1.3-3.4c-1.2-0.3-2.4-0.9-3.6-0.8
		c-10.3,1.3-20.7,2.5-31,4.1c-6,0.9-11.5-0.4-16-3.9c-2.6-2-4.8-6.1-4.9-9.3c0-2.1,3.9-5.5,6.5-6.2c6.8-1.6,13.9-2.2,20.9-2.6
		c6.3-0.4,12.6,0.2,18.9-0.1c4.4-0.2,8.7-1.6,13.2-2.1c7.9-0.9,15.9-1.1,23.8-2.2c5.5-0.8,4.8-1.8,4.1-7.1
		c-0.6-4.7,1.1-9.9,3.1-14.4c1.4-3.3,5-5.7,7.4-8.7c5.4-6.6,7.3-16.4-2.5-22.2c-3.1-1.8-4.5-1.2-6.1,2c-3,6.1-6.5,12-10.1,17.8
		c-3,4.8-6,9.8-9.9,13.9c-2.5,2.7-6.6,4-10.2,5.5c-3.2,1.3-6.9,1.3-10,2.8c-4.4,2.2-7.4,0.5-10-2.7c-2.3-2.9-1.8-9.1,0.9-11.6
		c3.3-3,6.8-5.8,10.2-8.6c0.5-0.4,1.3-0.8,1.4-1.4c2.7-9.8,11.5-14,18.4-20c1.2-1,2.7-3.5,2.2-4.4c-0.8-1.7-2.9-3.6-4.6-3.8
		c-9.6-1.2-18.7,0.5-25.6,7.9c-5.3,5.7-9.7,12.2-14.8,18.1c-3.5,4.1-6.7,8.9-12.8,9.7c-1.3,0.2-2.7,0.6-3.9,0.4
		c-5.2-0.6-11.9-9.2-10.9-14.3c0.3-1.5,2-2.7,3-4c3.9-5.1,7.9-10.2,11.6-15.5c1-1.4,1.5-3.5,1.4-5.3c-0.1-3.4,1.2-4.6,4.5-5.1
		c3.4-0.6,7.5-1.5,9.9-3.8c7.8-7.7,17.6-7.9,27.3-8.3c6.3-0.2,12.6,1.2,18.9,1.2c2.3,0,6.1-1.3,6.5-2.9c0.7-2.4,0-6.9-1.6-7.9
		c-7.8-4.6-15.8-9.1-25.6-6c-1.6,0.5-3.8-0.1-5.5-0.7c-3.7-1.3-7.3-3.2-11-4.4c-5.3-1.7-11.9-9.6-11.8-15.1
		c0.2-10.9,4.8-19.2,14.7-24.1c0.4-0.2,1-0.4,1.3-0.7c4.5-6.9,11.5-5,18-5.5c9-0.7,18.9-0.3,26.7-4
		C174.1,29.6,180.2,31.1,186.4,29.9z M149,250.7c0,1.3-0.1,2.7,0,4c0.3,6,6.6,13.6,11.6,14.1c9.1,0.9,16.2-3.6,19.3-12.3
		c0.7-2,1.4-4.1,2-6.2c1.5-5.3-1.1-9.2-6.6-9.5c-5.1-0.2-10.3-0.3-15.4,0.1C150.7,241.7,149,243.4,149,250.7z"/>
	<path d="M222.8,101.4c0-9.1,0.2-18.3-0.1-27.4c-0.2-5.3-1.4-10.5-1.6-15.8c-0.1-4.2,1.6-8.5,6.1-9.2c2.8-0.5,7.5,0.6,8.7,2.6
		c2.7,4.3,3.8,9.6,5.2,14.6c0.5,1.8-0.3,4.1,0.3,5.9c0.5,1.5,2.3,3.7,3.4,3.6c10.8-0.7,21.6-1.3,32.3-2.9c6.5-1,7.7-4,6.5-10.4
		c-0.5-2.4-1.1-4.9-1.1-7.4c0-5.7,4.2-8.5,9.3-6.3c9.6,4.1,11.4,6.4,11.5,16.2c0.1,7,2,14,2.8,21.1c0.6,4.9,1.1,9.9,0.9,14.9
		c-0.3,7.9-0.5,16-2.1,23.7c-1.7,8.4-1.3,18.4-10.8,23.1c-2.6,1.3-5.6,1.6-8.5,2.4c-2,0.5-4,1.1-6,1.7c-1.2,0.4-2.4,1.1-3.7,1.1
		c-9.6,0-19.2-0.2-28.8-0.4c-1,0-2.1,0.2-2.9-0.2c-8.8-4.9-16.6-10.9-18.7-21.3c-2-9.7-3-19.7-4.4-29.5
		C221.7,101.4,222.3,101.4,222.8,101.4z M243.4,108.1c-0.4,0.1-0.7,0.1-1.1,0.2c1.2,5.5,2.1,11,3.7,16.4c1.8,6.1,6.4,8.5,12.7,7.3
		c5-0.9,10.1-2,15.1-2.9c4.7-0.8,8-3.5,9.3-7.9c1.8-6.1,3.6-12.4,4.4-18.7c0.3-2.8-1.2-7.9-3-8.4c-6.8-2.1-14.1-3.3-21.2-3.8
		c-5.1-0.3-10.4,1-15.6,1.6c-4.8,0.6-6.6,3.4-5.6,7.9C242.8,102.6,243,105.4,243.4,108.1z"/>
	<path d="M312.3,241.6c-0.9-1.8-2.7-3.7-2.4-5.2c0.3-1.4,2.7-2.4,4.3-3.6c1.3,1.6,3.3,3.1,3.5,4.8c0.2,1.2-2.1,2.8-3.3,4.2
		C313.6,241.7,312.9,241.7,312.3,241.6z"/>
	
	
</g>
</svg>
