<?xml version="1.0" encoding="utf-8"?>
<!-- Generator: Adobe Illustrator 22.0.0, SVG Export Plug-In . SVG Version: 6.00 Build 0)  -->
<svg version="1.1" id="图层_1" xmlns="http://www.w3.org/2000/svg" xmlns:xlink="http://www.w3.org/1999/xlink" x="0px" y="0px"
	 viewBox="0 0 400 400" style="enable-background:new 0 0 400 400;" xml:space="preserve">
<style type="text/css">
	.st0{fill:#FFFFFF;}
</style>
<g>
	
	<path d="M324.3,239.2c-1.1,8-2,14.4-2.7,20.8c-0.6,4.8-0.9,9.5-1.4,14.3c-1.1,9.6-2,19.2-3.4,28.7c-0.4,2.5-2.2,4.7-3.5,7
		c-0.5,0.9-1.5,1.5-1.8,2.4c-2.5,8.3-8.9,11-16.7,11.6c-1.7,0.1-3.5,0-5.2,0.1c-1.4,0.1-3.1,0-4.2,0.7c-3.9,2.4-7.3,5.8-11.4,7.6
		c-3.2,1.3-7.3,0.8-11,0.9c-2.5,0.1-5.1,0-7.7,0c-1.3,0-2.7,0.5-3.9,0.1c-7.8-2.1-15.7-4.3-23.5-6.6c-1.1-0.3-2.6-0.9-2.9-1.7
		c-2.3-7.4-9.3-12.3-9.8-20.9c-0.4-7-3.4-13.7-4.7-20.7c-1.1-5.5-1.6-11.2-1.8-16.8c-0.4-11.2-0.5-22.3-0.3-33.5
		c0-2.5,1.1-6.5,2.8-7.1c2.4-1,6.3-0.4,8.6,1.1c4.5,3,9.8,6,7.6,13.4c-1,3.4,3.2,6.9,9.3,6.8c5.3,0,10.7,3.4,16.3-0.7
		c2.2-1.6,6.3-0.6,9.6-0.7c6.2-0.2,12.6,0.5,18.6-0.6c5.8-1,11.3,0.2,17,0.5c4.9,0.3,8.4-6.5,6.9-12.5c-1.4-5.7,1-9.5,7.6-11.6
		c4-1.3,7.7,1.3,9.3,6.8C323,232.6,323.8,236.6,324.3,239.2z M232.8,296.9c-0.9,7.9,1.2,10.7,8.1,13.4c2,0.7,3.7,2.1,5.5,3.2
		c4.3,2.6,8.7,3.7,14,2.9c8.1-1.2,15.1-8.4,24.1-4.6c0.2,0.1,0.7,0,0.9-0.2c3.8-3.4,8.3-6.2,11.1-10.3c2.9-4.1,4.3-9.3,5.9-14.2
		c0.9-2.9,1.4-6.2,1.3-9.3c-0.4-10.3-3.8-15.4-11.9-15.7c-11.1-0.5-22.2-0.2-33.2,0.7c-7.4,0.6-14.7,3.3-22.3,1
		c-2.1-0.6-4.7-0.4-6.9,0.2c-1.5,0.4-3.7,2.3-3.6,3.3c0.5,5.2,1.4,10.4,2.6,15.5C229.7,287.6,231.4,292.2,232.8,296.9z"/>
	<path d="M128.1,350.5c-11.3,2.4-13.7-2.4-13.2-11.6c0.7-14.7,2.3-29.4,3.2-44.1c0.2-2.4-1.3-4.8-1.2-7.2c0.3-7.6,1.3-15.1,1.4-22.7
		c0-10.3-0.9-20.5-1-30.8c0-4.4,0.2-9,1.6-13c1.8-5.1,2.3-9.9,1-15.1c-0.6-2.4-0.7-4.9-0.9-7.4c-0.4-4.4-2.5-5.4-6.8-4.7
		c-3.9,0.7-8,0.2-12,0.2c-1.3,0-2.7-0.5-3.9-0.3c-5.5,1-11.1,1.9-16.5,3.3c-7.9,2-14.5-1-20.2-5.8c-1.6-1.3-0.6-5.6-0.9-9.4
		c11.3-0.3,22-0.9,32.7-0.9c6.5,0,13,0.8,19.5,1.2c6.1,0.4,7.7-1.7,8.1-7.8c0.5-9.9,1.9-19.7,2.5-29.5c0.2-4.5-0.9-9.2-0.9-13.7
		c0-2.7,0.7-5.7,1.9-8.1c2.7-5.6,8.9-7.1,13.9-3.5c1.1,0.8,2.1,2.6,2.1,4c-0.4,11.2-1,22.3-1.6,33.5c-0.2,3.9-0.7,7.8-0.5,11.7
		c0.1,2.7,0.5,5.7,1.7,8c0.7,1.4,3.3,2.6,5,2.6c12.3,0,24.6-0.5,36.9-0.6c3.1,0,6.3,0.7,9.2,1.7c4.6,1.6,5.6,6.3,1.5,8.7
		c-4.1,2.4-9.1,3.4-13.8,4.5c-2.8,0.7-6-0.1-8.7,0.7c-5.5,1.7-10.5,1.4-16.1,0.1c-4.6-1.1-9.8-0.3-14.6,0.4c-1,0.1-2.3,4-1.9,5.7
		c1.9,7.7-0.5,15-1,22.5c-0.2,2.2,0,4.5,0,6.7c0,1.9,0.1,3.8,0,5.6c-0.1,1-0.8,2-0.6,2.8c3.1,10.4,1.8,21.1,1.5,31.6
		c-0.4,16-1.9,31.9-3.4,47.9C131.2,328.8,129.5,339.6,128.1,350.5z"/>
	<path d="M210.8,81.8c3.2,1.2,5.7,2,8.1,2.9c0.8,0.3,1.5,1.2,2.2,1.1c5.4-0.8,7.4,3.1,10,6.7c5.7,8,13.3,13.7,22.2,17.7
		c1.5,0.7,2.8,1.8,4.2,2.8c8.2,5.7,8.4,5.7,15.9-1.2c5.5-5.1,10.8-10.4,16.3-15.4c5.5-5,11.2-9.9,16.8-14.8c2.6-2.3,5.4-3.2,8.5-0.6
		c3.7,3.2,5.1,8,2.7,11c-6.5,7.9-12.4,16.3-21,22.3c-5.7,4-10.7,9.1-15.8,13.9c-2.7,2.5-2.2,7.6,1.5,9.4c10.6,5.1,16.8,14.6,24.1,23
		c2.6,3,6.8,4.7,10,7.2c3.3,2.5,6.7,5.2,5.6,10.3c-1,4.8-4.5,7.3-8.6,8.9c-4,1.6-12-2.9-14.5-7.4c-1.5-2.7-3.4-5.3-5.5-7.6
		c-7.3-7.6-14.8-15.1-22.4-22.5c-1.6-1.6-3.5-3.2-5.6-4.1c-1-0.4-3.2,0.2-4,1.2c-6.3,7.1-12.1,14.7-18.8,21.4
		c-7.1,7.1-15,13.4-22.6,19.9c-3.7,3.2-7.3,2.3-10.9-0.4c-2.7-2.1-3.4-4.6-1.9-7.5c1.2-2.3,2.6-4.7,4.5-6.6
		c11-11.5,22.2-22.8,33.4-34.2c3.7-3.8,3.5-5.1-0.1-9.1c-4.2-4.6-8.1-9.6-12.2-14.4c-0.5-0.6-1-1.3-1.7-1.9
		c-6.1-5-12.3-10-18.4-15.1c-2-1.7-4.3-3.3-5.8-5.5c-1.6-2.2-3.8-5.5-3.1-7.4C204.5,84,208.3,83.2,210.8,81.8z"/>
	<path d="M136.2,49.4c4.3,7.1,3.7,13.9,1.6,20.6c-3,9.3,0.2,17.9,9.4,23.3c5.3,3.1,10.7,5.8,16,8.8c6.8,3.8,13.7,7.4,20,11.8
		c2.6,1.8,5.6,6.1,5.2,8.6c-0.8,4.5-3.6,9.3-9,10.3c-2.2,0.4-5.1-1.1-7.1-2.6c-9.6-7.4-18.8-15.2-28.4-22.6c-3-2.3-6.2-4.6-9.7-5.8
		c-2.1-0.8-5.4-0.4-7.2,0.9c-3,2.1-5.1,5.7-8,8c-5.5,4.5-11.3,8.7-17,12.9c-3.2,2.4-6.4,4.6-9.6,6.9c-4.1,3-8.1,6.3-12.5,8.9
		c-4.2,2.5-9.8,0.9-11.9-2.7c-1.9-3.1-0.1-6.7,4.2-10c7.8-6,15.6-12.1,23.2-18.4c6-4.9,11.9-10,17.6-15.4c8.4-7.9,9.7-18.1,9.2-29.2
		c-0.2-4.1,1.6-9,4.1-12.2C128.2,49.6,133,50.1,136.2,49.4z"/>
	<path d="M207.7,210.1c-1.4-0.1-4.2-0.3-7-0.7c-5.1-0.8-7.3-3.7-6.6-9c0.7-5.8,1.1-6.3,7.1-6.3c7,0,13.9-0.5,20.9-0.4
		c3.7,0.1,7.4,1.2,11.1,1.5c2.9,0.2,6,0,8.8-0.5c8.7-1.7,17.5-2.7,26.4-1.5c0.7,0.1,1.4,0.2,2,0c11.5-2.9,22.9-0.8,34.4,0.3
		c8.1,0.8,16.4-1.8,24.6-1.8c4.2,0,8.9,1.7,12.3,4.1c1.6,1.1,1.6,6,0.8,8.7c-0.6,1.8-4,3.4-6.2,3.6c-8.7,0.9-17.5,1.2-26.2,1.5
		c-9.2,0.3-18.3,0.6-27.6-1.9c-6.9-1.9-14.9,0.2-22.4,0.4c-7.7,0.1-15.3-0.1-23,0.1c-6.7,0.2-13.4,1-20.1,1.5
		C214.5,209.7,211.9,209.8,207.7,210.1z"/>
	<path d="M323.8,74.4c-6.5,0-12.9,0-19.4,0c-1.1,0-2.6,0-3.4-0.6c-4.6-3.6-9.8-2.2-14.8-2c-11.3,0.6-22.6,1.3-33.9,1.8
		c-14.3,0.6-28.6,0.9-42.9,1.3c-4.4,0.1-8.8,0.3-13.1-0.1c-1.8-0.2-3.9-1.3-5.3-2.5c-2.8-2.3-7-4.1-5.6-9c0.9-3.4,7.4-7.7,11.2-7.1
		c8.2,1.2,16.3,2.6,24.3,4.3c2.5,0.5,5,1.9,7.2,3.4c8.8,6.1,16.8,3.2,24.3-2.3c4-3,8.1-3.9,12.9-3.9c11.4-0.1,22.7-1.1,34.1-1.1
		c10.2,0,20.5,0.6,30.8,1.1c6.6,0.3,11.2,9.9,7.3,15.1c-1,1.3-3.3,2.1-5.1,2.4c-2.8,0.4-5.6,0.1-8.5,0.1
		C323.8,75,323.8,74.7,323.8,74.4z"/>
	
</g>
</svg>
