<?xml version="1.0" encoding="utf-8"?>
<!-- Generator: Adobe Illustrator 22.0.0, SVG Export Plug-In . SVG Version: 6.00 Build 0)  -->
<svg version="1.1" id="图层_1" xmlns="http://www.w3.org/2000/svg" xmlns:xlink="http://www.w3.org/1999/xlink" x="0px" y="0px"
	 viewBox="0 0 400 400" style="enable-background:new 0 0 400 400;" xml:space="preserve">
<style type="text/css">
	.st0{fill:#FFFFFF;}
</style>
<g>
	
	<path d="M331.2,221.6c1.9,6.5-3.1,9.9-6.3,14c-0.8,1-2.6,1.6-3.9,1.7c-3.4,0.1-10.9-6.6-11.6-9.9c-4.6-19.9-8.8-40-14.1-59.8
		c-2-7.7-6.2-15-9.8-22.2c-2.2-4.3-12.1-8.2-16.6-6.9c-1.6,0.5-3.8,2.6-4,4.2c-0.4,5.2-0.8,10.7,0.2,15.8c1.5,7.8,3.8,15.2,3.2,23.5
		c-0.4,5.1,1.7,10.3,2.6,15.5c0.4,2.6,0.6,5.2,0.8,7.9c0.6,6.6,0.7,13.2,1.8,19.6c1.8,10.4,3.7,20.6,2.4,31.5
		c-0.9,7.5,0.8,15.4,1.5,23.1c0.1,1.5,1.1,3,0.9,4.3c-2.1,11.5,0.6,22.8,1.7,34.1c0.2,2.3,0.2,4.6,0.2,7c0.1,3.5,0.3,7.1,0,10.6
		c-0.2,2-0.8,4.3-1.9,5.9c-2.4,3.4-5.2,6.4-7.9,9.5c-3.5,4-13.3,0.5-15.3-5.4c-0.4-1.1-0.6-2.3-0.6-3.4c-0.4-8.4-0.6-16.8-1.1-25.2
		c-0.3-5.3-0.1-10.6-0.1-16c0-9-1.9-18-3-26.9c-0.1-1.2-0.2-2.3-0.3-3.5c-0.8-7.2-1.6-14.4-2.3-21.7c-0.2-2.2,0-4.5,0-6.7
		c0.1-3.2,0.4-6.3,0.2-9.5c-0.4-8.2-0.9-16.5-1.6-24.7c-0.5-5.9-1.3-11.8-1.9-17.7c-0.1-0.8-0.4-1.7-0.2-2.5
		c3.4-14.6-2-28.5-3.2-42.8c0-0.5-0.2-1-0.2-1.5c-0.5-9.1-0.9-18.2-1.6-27.3c-0.5-7.1-1.6-14.1-2-21.2c-0.4-6.6-0.2-13.3-0.3-19.9
		c-0.1-4-0.1-8-0.3-12c-0.2-6.6,2.4-11.3,6.9-12.5c3.2-0.9,10,2.8,12.2,7.1c1.6,3.2,3.1,6.8,3.3,10.4c0.9,11.4,1.1,22.8,1.7,34.1
		c0.2,4.3,0.4,8.7,1.5,12.8c0.5,1.7,3,3.5,5,4.1c7.7,2.1,15.5,3.5,23.2,5.6c2.6,0.7,5,2.5,7.2,4.2c2.1,1.6,3.7,3.9,5.7,5.5
		c7.1,5.8,8.7,14,10.4,22.3c0.5,2.4,0.9,5.1,2.3,7c5.3,7.2,3.7,16.1,6.5,23.7c3.1,8.6,1.3,18.6,7.7,26.4
		C331.8,215.5,331,218.9,331.2,221.6z"/>
	<path d="M167.1,79.4c-1.6,5.8,1.6,10.5,6.2,15.9c8.4,10,15.7,21,22.7,32.1c4.6,7.4,4.1,15.1-0.3,23.2c-2.4,4.3-5.3,7.3-8.9,10.3
		c-2.2,1.8-3.5,4.6-5.2,6.9c-0.7,0.9-1.1,2.1-1.9,2.9c-9.3,9.1-16.5,19.9-22.7,31.1c-4.1,7.4-5.2,16.3-7.7,24.6
		c-0.7,2.4-1.7,4.7-2.3,7.1c-0.7,2.8-1.1,5.7-1.8,8.5c-1.1,4.8-2.9,9.5-3.4,14.4c-1.2,9.5-1.5,19.1-2.6,28.6
		c-1.2,10.1-6.2,18.1-15.2,23.1c-5.8,3.2-12.5-0.7-12.3-7.3c0.2-5.9,0.8-12.1,2.7-17.6c2.7-7.8,3.1-15.5,3.1-23.5
		c0-3.2,1.5-6.3,2-9.5c1.3-8.3,5-16.1,6.4-24.1c1.8-10.3,6.2-19.1,10.9-27.9c2.4-4.5,3-8-0.4-12.2c-2.4-3-3.4-7.2-5.5-10.5
		c-4.2-6.6-8.1-13.1-9.9-20.9c-0.7-3-4-5.6-6.7-7.8c-0.8-0.7-3.9,0.1-4.9,1.2c-6,6.1-9.9,13.5-13,21.5c-2.2,5.7-5.4,11-8.6,16.2
		c-2.9,4.7-7.7,2.9-11.8,2.4c-4.3-0.5-3.7-3.9-4.1-7.1c-1-8.1,2.3-15.2,4.2-22.7c0.5-2,2.1-3.7,3.5-5.4c8-10,16-20,24-30
		c1.2-1.6,2.5-3.1,3.9-4.6c8.2-8.7,16.4-17.4,24.6-26c0.3-0.4,0.6-0.9,1.1-1c12.5-4,9.9-15,10.9-24.1c0.2-1.7-0.5-3.6-1.3-5.2
		c-2.3-4.7-1-9.5,2-12.5c1.6-1.6,6.9-0.7,9.9,0.5c2.3,0.9,3.5,4.3,5.2,6.5C167.3,65.8,167.4,66,167.1,79.4z M172.6,133
		c1.9-8.4-3-14.3-9.9-19.3c-5.5-4.1-11.5-4.3-16.9-0.2c-2.1,1.6-4.3,3.1-6.6,4.4c-6.9,4.2-10,13-6.6,18.9c5.2,9,10.3,18.1,15.8,27
		c0.9,1.4,3.1,2.6,4.8,2.9c1,0.1,2.5-1.7,3.4-2.9c2-2.6,3.4-5.8,5.8-8C168.8,149.7,173.7,143.2,172.6,133z"/>
	
</g>
</svg>
