<?xml version="1.0" encoding="utf-8"?>
<!-- Generator: Adobe Illustrator 22.0.0, SVG Export Plug-In . SVG Version: 6.00 Build 0)  -->
<svg version="1.1" id="图层_1" xmlns="http://www.w3.org/2000/svg" xmlns:xlink="http://www.w3.org/1999/xlink" x="0px" y="0px"
	 viewBox="0 0 400 400" style="enable-background:new 0 0 400 400;" xml:space="preserve">
<style type="text/css">
	.st0{fill:#FFFFFF;}
</style>
<g>
	
	<path d="M116.9,362.9c-3.3,0-6.3,0-9.9,0c-4.6-8.5-4-17.5-1.6-26.6c0.1-0.5,0.5-1,0.4-1.4c-1.9-11.3,1.9-22.7-1.2-34
		c-0.2-0.8-0.2-1.7-0.1-2.5c0.8-5,2.1-10,2.4-15c0.7-10.6,0.8-21.2,1.5-31.8c0.5-7.4,1.6-14.8,2.4-22.1c0.2-1.6-0.3-3.3-0.2-4.8
		c0.4-4.7,1.3-9.3,1.6-14c0.2-3.3-0.4-6.7-0.4-10.1c0-4.9,0.1-9.7,0.1-14.6c0-2.9,0.2-5.8,0.2-8.7c0-6.5,0-13,0-19.5
		c0-4.6-0.6-9.3,0-13.8c1.5-9.9-0.7-19.5-1.6-29.2c0-0.3-0.3-0.7-0.1-1c3.5-6.4-0.3-12.6-0.4-18.9c0-13.7,4.6-25.9,13.4-36
		c3.3-3.8,9.3-5.2,14.1-7.7c8.2-4.4,17-6,26.4-5.9c5.4,0.1,10.8-2.3,16.1-1.9c8,0.6,15.3-4.5,23.4-1.9c1.6,0.5,4.4-0.4,5.5-1.6
		c2.9-3.4,6.5-2.7,10-2.7c3.8-0.1,7.8,0.5,11.5-0.4c7.3-1.7,10.5,2.9,13.2,8c0.8,1.6-0.1,5.5-1.5,6.4c-3.1,2-6.8,3.4-10.5,3.9
		c-12.3,1.5-24.7,2.3-37,3.7c-4.4,0.5-8.6,2.5-12.9,3.3c-7,1.3-14.2,1.6-21.1,3.2c-6.6,1.5-13.1,3.7-19.4,6.4
		c-7.1,3-11.5,8.8-13,16.4c-0.9,4.4,3.3,9.2,8.5,8.9c6.6-0.3,13.1-1.6,19.7-2.3c2.4-0.2,4.8,0,7.2,0c1.1,0,2.3,0.1,3.4,0
		c8.5-1.1,17-2.6,25.5-3.2c15.5-1,31.1-1.2,46.7-2c3.4-0.2,7-1.2,10-2.6c7.5-3.5,16.7,1.3,21.5,7.5c2.5,3.3-1.6,9.7-6.3,10.1
		c-6.5,0.5-9,3.4-9.3,10.1c-0.2,5.6,0,11.5-1.8,16.6c-1.1,3.2-5.6,5.4-8.8,7.8c-0.9,0.7-2.4,0.4-3.3,1.1c-7.3,6-16.2,4.5-24.6,6.1
		c-2.9,0.5-5.7,2.3-8.3,4c-0.5,0.3-0.2,3.1,0.6,4c4.5,5.3,8.8,10.4,9.5,18.1c0.6,6.8,11.7,10.7,17.3,7c3-2.1,6.3-3.8,9.3-5.8
		c4.3-3,7.7-6.9,6.3-12.5c-1.8-7.2,0.7-12.7,6-17.2c0.9-0.8,2.4-1.4,3.5-1.3c5.6,0.6,10.7,8.8,9.6,14.3c-0.4,2.3-0.2,4.9,0.4,7.2
		c1.6,5.5,3.6,10.9,5.5,16.2c1.1,2.9,2.2,6,3.9,8.5c5.3,7.7,11.1,14.9,18.3,21.2c1.6,1.4,0.3,6.2,0.3,9.4c0,0.1-0.3,0.1-0.4,0.2
		c-13,12.4-18.7,11.1-27.8-6.7c-3.8-7.4-7.6-14.8-11.3-22.2c-1.8-3.7-4-4.2-7.6-2.2c-4.6,2.6-9.4,5-14.2,7.2c-2.3,1-5,1.5-7.6,1.9
		c-5.3,0.7-6.8,4.4-6.1,9.4c0.9,7.2,3,12.3,10.8,13.5c5.7,8.4,15.7,10.7,23.2,16.5c4,3.1,7.2,7.3,10.5,11.1c0.6,0.7,0.8,2.2,0.6,3.3
		c-1.3,9.2-4.6,17.4-12.2,23.2c-9.3,6.9-14.8,16.9-21.4,25.9c-1.3,1.7-1.6,5-0.9,7.1c3.5,11.7,7.4,23.3,16.5,32.2
		c6.8,6.6,7.2,14.5,0.7,21.5c-2,2.1-6.2,2.1-9.9,3.2c-6.8-15.4-12.8-30.1-19.9-44.3c-4.8-9.6-5.4-19-2.5-28.9
		c1.1-3.6,3.4-7.1,5.7-10.2c5.1-6.7,10.6-13.1,15.9-19.7c2-2.5,1.9-5-0.5-7.6c-3.5-3.6-6.5-7.6-10-11.1c-2.9-2.8-5.6-2.8-9.7-0.4
		c-8,4.8-13.3,11.3-16.3,20c-0.2,0.6-0.6,1.3-1.1,1.7c-9.6,8.6-10.5,21.5-15.4,32.4c-3,6.6-3.3,14.4-5,21.6
		c-0.5,2.2-1.6,4.3-2.2,6.6c-2.3,8.1-4.4,16.2-6.8,24.3c-1.8,6-9.5,11.1-13.9,9.4c-6.3-2.4-9.5-10.2-6.9-16.9
		c0.4-0.9,0.8-1.9,0.8-2.9c-0.5-8.5,3.4-15.7,6.3-23.2c2.5-6.4,3.9-13.3,6.1-19.8c3.4-10,4.9-20.9,13.9-28.2
		c1.5-1.2,1.9-3.6,2.8-5.5c0.6-1.3,1-2.7,1.7-3.9c1.1-1.8,3-3.4,3.6-5.3c2.6-8.4,9.1-13.7,15-19.5c1.4-1.4,3.6-2.8,3.8-4.4
		c0.7-4.3,0.7-8.8,0.6-13.2c0-0.5-2.9-1.8-3.8-1.4c-5.7,3.1-11.4,6.1-16.6,9.9c-7.5,5.4-14.6,11.5-21.9,17.1
		c-4.1,3.2-8.2,6.7-12.8,9.1c-5.5,2.9-9.9,1.3-12.5-3.1c-3.8-6.5-3.4-11,2.1-14.9c9.9-7.1,19.5-14.6,30.7-20
		c8.1-3.9,15.3-9.9,22.4-15.6c7-5.7,5.4-14.1,4.6-21.7c-0.6-6.1-2.1-12-2.8-18.1c-0.3-2.8-1.2-4.6-4.2-4.2
		c-5.9,0.8-11.7,1.7-17.5,2.6c-5.2,0.8-10.4,1.8-15.7,2.3c-8.4,0.8-16.8,1.2-25.2,1.6c-3.8,0.2-5,2-5,5.8c0,7.9-0.6,15.7-0.9,23.6
		c0,0.5-0.4,1.1-0.2,1.5c5.1,10.4-2,20.5-0.5,30.8c0.7,4.9,1.2,9.8,1.7,14.7c0.1,1.4-0.2,2.9-0.2,4.4c0,3,0,6,0.1,9
		c0,1.5,0.3,2.9,0.2,4.4c-0.6,10.9-1.3,21.8-1.9,32.6c-0.5,10.2-1.5,20.5-1.3,30.7c0.2,13.5-3.7,26.1-7.2,38.9
		C119,357.7,117.8,360.3,116.9,362.9z M141.5,116.7c0-0.2,0-0.3,0-0.5c-2.2,0-4.4-0.3-6.5,0.1c-1.3,0.2-3.4,1.1-3.6,2.1
		c-1.3,6.3-3.2,12.7,0.3,18.9c1.8,3.2,4.4,4.9,8.3,2.6c1.8-1,4-1.7,6.1-2c7.5-0.9,15.1-1.4,22.6-2.3c13.1-1.6,26.2-3.2,39.2-5
		c5.2-0.7,10.9-1,15.3-3.4c5.3-3,9.7-7.8,14.1-12.3c3-3.1,2.2-6-2-6.9c-4.4-0.9-9.2-0.6-13.7-0.1c-7.2,0.8-14.3,2.4-21.5,3.2
		c-9.8,1-19.7,1.4-29.6,2.1c-0.7,0-1.3,0.2-2,0.3C159.5,114.5,150.5,115.6,141.5,116.7z"/>
	<path d="M201.1,346.3c0.5,1.8,1.6,3.7,1.1,4.2c-2.5,3-5.2,5.9-8.4,8.1c-1.1,0.8-3.7-0.6-5.6-1c0.6-1.9,0.7-4.5,2-5.5
		C193.2,349.9,196.8,348.5,201.1,346.3z"/>
	<path d="M152.3,190.2c1.6,2.5,2.9,3.9,3.4,5.6c0.1,0.5-2.5,2.5-2.8,2.3c-1.4-0.9-2.8-2.3-3.5-3.8
		C149.1,193.7,150.7,192.3,152.3,190.2z"/>
	
</g>
</svg>
