<?xml version="1.0" encoding="utf-8"?>
<!-- Generator: Adobe Illustrator 22.0.0, SVG Export Plug-In . SVG Version: 6.00 Build 0)  -->
<svg version="1.1" id="图层_1" xmlns="http://www.w3.org/2000/svg" xmlns:xlink="http://www.w3.org/1999/xlink" x="0px" y="0px"
	 viewBox="0 0 400 400" style="enable-background:new 0 0 400 400;" xml:space="preserve">
<style type="text/css">
	.st0{fill:#FFFFFF;}
</style>
<g>
	
	<path d="M253,174.8c-1.2,1.5-2,3.6-3.6,4.5c-5.7,3.4-11.4,6.7-17.4,9.5c-1.7,0.8-4.9,0.1-6.2-1.2c-1.1-1-1.1-4.5-0.2-5.9
		c2.5-4,5.6-7.6,8.8-11.1c2.9-3.2,6.1-5.9,9.2-8.9c5.6-5.4,12.7-7.2,20.1-9c7.4-1.8,14.4-4.9,21.7-7.1c5.5-1.7,11.2-2.6,16.7-4.3
		c2.2-0.7,4.8-2.2,5.9-4.2c2.3-4,4.1-8.4,5.2-12.9c0.6-2.5,0.2-5.8-1.1-7.9c-0.7-1-4.6-0.8-6.7,0c-9.2,3.4-18.8,4.9-28.5,5.8
		c-4.7,0.5-9.6,2.1-13.9,4.3c-10.1,5.2-19.9,11-29.8,16.7c-6.4,3.7-8.6,3.3-13.3-2.1c-2.8-3.2-2.6-6.5,0.6-8.6
		c9.2-6.1,16.7-14.5,27.5-18.6c9.2-3.5,18.4-6.1,28.1-7.6c5.9-0.9,11.7-2.2,17.5-3.5c3.6-0.8,9.8-8.7,8.9-12.2
		c-0.5-2.2-2.9-4.8-4.9-5.4c-3.2-0.9-7.7-1.5-10.2,0.1c-5.9,3.7-12.1,0.3-17.8,2.2c-1.9,0.6-3.9,1.3-5.9,1.5
		c-6.5,0.8-11.6,4.4-17.1,7.6c-6.5,3.8-13.6,6.5-20.7,9c-1.8,0.7-5.1-0.7-6.8-2.2c-2.8-2.4-3.4-6.5-0.7-9c6-5.4,11.9-11.6,19.1-14.8
		c9.7-4.4,20.5-6.5,30.9-9.2c7.5-1.9,15.2-3,22.8-4.3c1.4-0.3,3,0.2,4.4-0.2c1.8-0.4,4.5-0.9,5.1-2.1c2.2-4.7,3.9-9.7,5.2-14.7
		c1-3.6,1-7.5,1.4-11.2c9.6-3.3,22.3,9.1,19,19.6c-2.1,6.8-3.4,13.9-9.6,18.7c-2.4,1.9-1.6,4,0.4,5.9c5.9,5.5,7.2,12.3,3.7,19.7
		c-0.6,1.4-1.9,2.8-1.8,4.1c0.2,1.8,1.3,3.5,2.1,5.1c0.3,0.5,1.1,0.6,1.7,0.9c5.8,2.9,9.4,6.9,8.2,14.1c-0.6,3.2-0.1,6.7-0.3,10
		c-0.5,7.8-5.5,14.7-12,17c-4.5,1.6-9.2,2.7-13.7,4.2c-1.1,0.4-2.6,1.4-2.8,2.4c-1.8,8.6-3.6,16.4-0.6,26.1
		c3.1,9.9,9.5,14.7,15.9,21c7.7,7.4,11.7,17.5,8.1,27.7c-1.9,5.3-8.5,9.5-13.8,12.9c-3.9,2.5-9,3.3-13.7,4.5
		c-7,1.8-8.5,5.5-8.2,12.4c0.4,10.9,8.9,15,15.1,21.5c7,7.3,16.9,12.2,19.5,23.1c0.7,2.9,1.4,5.8,1.4,8.7c0,5.7,0.1,11.3,4.2,15.9
		c0.5,0.6,0.5,1.9,0.5,2.8c0.1,4-0.5,8.2,0.4,12c1.6,6.8-3.3,10.3-6.5,14.4c-2.8,3.5-10.9-0.1-11.6-5.4c-1.4-10.6-2-21.4-3.5-31.9
		c-0.8-5.1-3-9.9-4.7-14.8c-2.1-6.2-6.8-10-12.3-12.9c-6.2-3.3-9.9-9.2-12.6-14.9c-3-6.4-8.8-12-8-20c1.3-12.6,3.4-19.7,17.2-22.4
		c4.7-0.9,9-4.1,13.6-6c4.1-1.7,4-5.4,3.3-8.4c-0.8-3.1-2.8-6-4.8-8.7c-1.6-2.1-4.3-3.3-5.7-5.5c-3.3-5.2-6.2-10.5-8.9-16
		c-1-2.1-2-5.2-1.2-7.1c2.4-5.9,0.7-11.4,0-17.1c-0.5-3.8-4.1-7.5-7.6-7c-3.9,0.5-5.5,3-5.6,6.9c-0.1,5.6-0.3,11.3-1.2,16.8
		c-0.9,5.3-2.7,10.4-4.4,15.5c-1.8,5.6-4.5,10.5-9.1,14.5c-1.7,1.5-2.3,4.3-3.5,6.5c-1.1,2.1-2.4,4.1-3.6,6.1
		c-0.5,0.8-1.4,1.5-1.6,2.4c-2.7,10.7-5.8,21.3-5.8,32.7c0,4.4,1,8.3,1.2,12.4c0.5,8.2-0.6,16.5-1,24.8c-0.1,2.3-0.1,4.5-0.1,6.8
		c0,0.8,0.4,1.7,0.4,2.5c-0.5,6-1.1,12-1.7,18c-0.6,5.5-3.9,9.1-8.5,11.6c-4.3,2.4-8.5,0.4-8.4-4.5c0.2-14,0.9-27.9,1.3-41.9
		c0.2-10.1-0.1-20.3,0.3-30.4c0.6-15.3,1.2-30.7,10.9-43.9c4.2-5.8,7.4-12.5,10.8-18.9c1.2-2.3,1.8-5,2.4-7.5
		c1.4-6.3,2.5-12.5,3.8-18.8C253.9,175.4,253.4,175.1,253,174.8z"/>
	<path d="M155.3,218.6c-0.4,7.8,0.7,16.2-4,22.7c-4.3,6-10.5,10.7-15.9,16c-1.3,1.2-3.3,2-4.1,3.5c-1.5,2.8-3.6,6.2-3,8.9
		c0.8,3.9,5.3,2.7,8.4,3.4c3.8,0.8,7.6,2.4,11,4.4c6,3.7,11.8,5.9,19.2,5.2c3.9-0.4,8.3,2.6,12.2,4.7c4.9,2.7,10,5.5,14,9.3
		c2.5,2.4,3.7,6.6,4.7,10.1c2.3,7.9,3.6,16.2,6.1,24c2.2,6.7,4.1,13.3,2.8,20.4c-1.1,6-3.3,8.2-8.9,7.7c-4.8-0.4-6.4-3.3-7.1-9
		c-1.7-13.2-5.1-26-11.3-37.9c-2.5-4.8-7.2-7.7-11.9-8.2c-10.8-1.2-19.9-7.3-30.2-9.4c-9.5-2-17.6-6.6-24.4-12.5
		c-4.5-3.9-7.2-10.6-9.3-16.6c-1.8-5.1-3.4-10.7-1-16.5c0.9-2.1-1.2-5.1-1.1-7.7c0.4-9,1.3-17.9,1.6-26.9c0.1-3.7-1-7.5-1.6-11.2
		c-0.1-0.4-0.6-1-1-1.1c-4.9-0.7-10.1-2.6-14.8-1.7c-6.9,1.2-14.5-3.7-13.8-10.6c0.1-1.2,1-2.7,2-3.3c4.6-3,8.6-5.9,15.3-4
		c5.1,1.4,11.2-1.5,17-1.7c7.9-0.4,15.9-0.2,23.8-0.2c3.1,0,6.2,0,9.3-0.1c0.7,0,1.3-0.4,1.9-0.4c13.5-0.8,27.1-1.6,40.6-2.2
		c1.6-0.1,3.2,0.8,4.9,0.8c3.4,0.1,6.7,0,10.1-0.3c3.3-0.3,6.7-1.5,9.7-0.9c2,0.4,4.6,2.9,5.1,5c0.5,1.7-1.1,5-2.8,6.1
		c-2.2,1.5-5.4,1.6-8.2,2.1c-4.2,0.8-8.5,1.1-12.6,2.2c-0.9,0.2-1.9,3-1.6,4.4c1.5,7.6,2.9,15.4,5.4,22.7c2.3,6.5,6,12.5,9.1,18.7
		c2.7,5.3,5.8,10.4,8.1,15.9c0.7,1.7,0.3,5.2-1,6.2c-1.7,1.5-4.8,2-7.2,1.9c-3.8-0.3-6.5-2.6-8.5-6.1c-4.7-8.2-10.5-15.8-14.3-24.3
		c-2.7-6-2.9-13.1-4.1-19.7c-0.7-3.9-0.8-7.9-1.5-11.8c-0.6-3.3-1.8-6.6-6.1-6.8c-3.3-0.2-6.7-0.2-7.6,3.9
		C157.6,204.6,156.5,211.6,155.3,218.6z M116.6,229.3c0.4,0.1,0.8,0.1,1.1,0.2c0,6-0.2,12,0.1,18c0.1,1.6,1.6,3.7,3,4.5
		c0.8,0.4,3-1.2,4.2-2.3c1.5-1.3,2.8-2.9,3.9-4.5c4.4-7,9.9-13.6,12.5-21.2c2.6-7.6,2.2-16.3,2.8-24.5c0.3-3.7-2.1-5.4-5.6-5.5
		c-4.3-0.1-8.7-0.4-13,0.2c-1.7,0.2-4.2,2.3-4.5,3.9C119.4,208.4,118.1,218.9,116.6,229.3z"/>
	<path d="M177,156.8c-1.7,0.1-3.9-0.4-4.9,0.5c-5.5,5-12.4,3.3-18.7,4.5c-2.4,0.5-5.1-0.4-7.7-0.6c-1.6-0.2-3.6-1.1-4.8-0.4
		c-4.6,2.6-8.4,0.1-11.4-2.3c-5.4-4.3-11.8-7.7-12.5-16.2c-0.4-4.9-2.9-9.7-4.9-14.4c-3.9-9.1-3-18.3-1.7-27.7
		c0.2-1.4-0.4-2.9-0.6-4.4c-1-6.7-3.4-13.6-2.8-20.2c0.7-6.9,3.7-13.7,6.6-20.2c1.6-3.7,6-3.8,8.7-0.6c2.4,2.9,4.5,6.3,5.7,9.8
		c2.2,6.3,6.1,9.6,12.9,9.4c10.2-0.4,20.5-1.2,30.7-1.8c1.2-0.1,2.3,0,3.5,0.1c6.5,0.2,7.5-0.9,7.7-7.3c0.1-4.6,0.2-9.5,4.8-12.4
		c1.5-0.9,3.4-1.7,5-1.6c4,0.2,12.1,10,12.3,14.2c0.1,2.9,0.7,5.9,1,8.8c0.1,1,0.5,2.1,0.2,2.9c-3.4,11.1-2.2,22.2-0.6,33.4
		c0.7,5.1-0.4,10.5-0.7,15.8c-0.1,2.1-0.8,4.6,0,6.4c2,4.5,0.3,7.8-2.5,10.8C195.5,150.6,188.1,157.2,177,156.8z M167.4,108.1
		c0.2-0.5,0.4-1,0.5-1.4c1.9,1.2,4.7,1.9,5.6,3.6c2.3,4.1-2.9,10.4-7.7,10.5c-6.6,0.2-13.2,0.6-19.6,1.9c-3.7,0.8-6.8,1.7-10.4-0.4
		c-3.2-1.8-6-0.1-6.6,3.4c-1,6.4,8.9,17.4,15.4,17.1c4.4-0.2,9-0.8,13.2,0.1c5.2,1.2,9.7,0,14.5-1.5c6.6-2.1,11.1-7.5,11.6-13.1
		c0.8-8.1,5.5-15.8,2.8-24.3c-1.1-3.6-1.5-7.4-1.9-11.1c-0.4-3.5-2-4.9-5.6-4.7c-6.5,0.3-13,0.7-19.5,0.4
		c-6.6-0.3-13.1-1.7-19.6-1.7c-4.2,0-8.4,1.3-12.5,2.3c-0.7,0.2-1.6,1.4-1.7,2.2c-0.5,3.6-1.2,7.2-1.1,10.8c0.2,5.3,4,8,9.3,7.7
		C145.2,109.1,156.3,108.6,167.4,108.1z"/>
	
	
</g>
</svg>
