<?xml version="1.0" encoding="utf-8"?>
<!-- Generator: Adobe Illustrator 22.0.0, SVG Export Plug-In . SVG Version: 6.00 Build 0)  -->
<svg version="1.1" id="图层_1" xmlns="http://www.w3.org/2000/svg" xmlns:xlink="http://www.w3.org/1999/xlink" x="0px" y="0px"
	 viewBox="0 0 400 400" style="enable-background:new 0 0 400 400;" xml:space="preserve">
<style type="text/css">
	.st0{fill:#FFFFFF;}
</style>
<g>
	
	<path d="M184.8,377.2c-3-3.8-2.2-6.5-0.3-10.4c4.9-10.3,13.3-15.3,23.4-19.2c6.6-2.5,12.5-6.8,18.9-9.6c3.6-1.6,7.8-1.8,11.6-3
		c5.6-1.8,11.5-3.1,16.6-5.9c14.5-7.9,22.4-21.2,28-36.1c1.2-3.1,0.6-6.8,1.1-10.1c1.2-7.8,3.3-15.6,3.9-23.4
		c0.7-10.9-3.9-20.3-10.3-28.9c-4.9-6.6-12.8-6.9-19.6-9.6c-3.9-1.6-7.8-3.3-11.5-5.3c-9.3-5.1-18.7-9.6-29.4-10.8
		c-3.7-0.4-7.3-2.6-10.9-2.5c-5,0.1-10.2,0.8-14.8,2.5c-10.1,3.6-20.4,7.1-29.7,12.2c-8.6,4.7-16.4,11.2-23.7,17.7
		c-3.4,3-5.4,7.9-7.2,12.3c-2.6,6.4-4.7,13-6.6,19.7c-1.9,6.5-3.2,13.2-4.9,19.7c-1,3.8-2,7.6-3.5,11.2c-3.2,7.6-6.6,8.9-14.9,6
		c0-5.7-0.1-11.5,0.1-17.4c0-1.1,1-2.2,1.6-3.3c0.6-1.1,1.8-2.4,1.7-3.4c-0.9-6.3,2.9-11,5-16.4c2-5.1,2.9-10.5,4.2-15.8
		c2.2-9.1,9-15.3,13.6-23c7-11.7,18.6-17.4,29.9-23.6c3.8-2.1,7.5-4.3,11.3-6.3c5.3-2.7,11-4.7,15.9-8c3.2-2.2,5.7-5.9,7.7-9.3
		c0.7-1.2-0.3-5-1.5-5.6c-4.3-1.9-8.9-3.8-13.6-4.2c-6.1-0.6-12.3,0.2-18.5,0.5c-5.2,0.2-8.6-1.8-12.4-5.8
		c-6.1-6.5-9.2-14-10.4-22.4c-1.3-8.8-1.2-17.1,2.5-26c3-7.2,6.7-12.3,13-15.9c2.6-1.4,5.6-2.3,8.5-2.8c2-0.3,4.3,0.8,6.4,0.6
		c9-0.8,18-1.9,27.1-2.8c1.5-0.2,3,0.1,4.4,0c2.5-0.3,4.9-0.8,7.3-1.3c1.1-0.2,2.2-1.2,3.2-1.2c9,0.1,17.9-2,27,1.7
		c7.8,3.2,16.6,4.6,25,6.1c8.9,1.6,12.9,4.5,14.6,13.3c1.2,6.3,2,12.8,2,19.2c0,11.8-3.7,21.9-14.9,27.8c-4.9,2.6-9.7,5.4-14.5,8
		c-1.1,0.6-2.5,1-3.8,1.1c-9.4,0.5-18.8,1.2-28.2,1.3c-4.4,0-6.6,1-6.4,5.8c0.1,2.9-1.8,6.5-0.6,8.6c1.8,3.2,5.2,6.1,8.5,7.7
		c5.8,2.7,12.1,4.3,18.3,6.3c1.7,0.5,3.6,0.4,5.4,1c2.7,0.8,5.4,1.9,8.1,3c4.9,1.9,10.2,3.2,14.5,6.1c9.7,6.4,22,9.2,29.2,19.2
		c2.5,3.6,3.5,8.2,5.6,12.2c6.2,12,2.8,24.7,2.9,37.1c0,3.4-2.4,6.8-3.2,10.4c-1.3,6.4-1.4,13.2-3.4,19.4c-1.6,4.9-6.1,8.9-7.6,13.8
		c-3,10-10.9,16-17.9,22c-5.1,4.3-11.1,9.2-19.6,7.9c-3.4-0.5-7.3,2.1-11,3.4c-6.6,2.3-13.1,4.6-19.7,6.8c-4,1.3-8.1,2.4-12.1,3.8
		c-1.2,0.4-2.4,1.2-3.4,2c-4.4,3.7-8.5,7.6-13,11.1C188.6,377.3,186.5,377,184.8,377.2z M231.5,103.7c-8,0.4-9.4,2.2-7.4,10
		c1.1,4.1,1.8,8.4,2.8,12.5c1.5,5.9,2.9,11.9,5,17.7c2.2,6.2,7.8,9.3,12.2,7.3c10.8-4.8,17.7-15.2,14.3-28.7c-0.8-3-1-6.5-2.7-8.9
		c-2.7-3.8-4.3-9.3-10.1-9.8C241,103.4,236.3,103.7,231.5,103.7z M167.5,102.9c-5.1,5-9.3,9.5-13.9,13.6c-3.1,2.8-4.9,5.8-4.3,10
		c0.5,3.8,0.8,7.6,1.7,11.3c0.5,2.3,1.6,4.5,2.7,6.6c0.7,1.5,2,2.7,2.6,4.2c2.1,5.3,6.1,8.3,11.8,8.2c2.8,0,5.6-1,8.4-1.2
		c4.7-0.5,5.3-3.5,4.3-7.1c-1.8-6.9-3.3-14-6.2-20.4c-2.6-5.6-2.9-11.1-2.7-16.9C172,107,170.4,104,167.5,102.9z M210.1,122.9
		c2.3-8.7-4.1-12.7-7.5-17.9c-0.5-0.8-2-1-3.1-1.1c-8.2-0.8-12,2.9-11.6,11.1c0.1,1.8,0.3,3.7,0.9,5.4c3.2,8.4,4.3,17.5,8.6,25.7
		c2.2,4.1,3.5,8.2,8.1,9.5c2.3,0.7,4.9,0.2,7.3,0.5c6.1,0.8,8.8-2.2,6.7-8.1c-2.1-5.9-4.7-11.6-7-17.5
		C211.4,127.7,210.7,124.9,210.1,122.9z"/>
	<path d="M221.5,236.2c-0.2,1.8-0.2,3.7-0.6,5.5c-1,5.2,0.7,7.9,5.9,8.4c6.7,0.7,11,4.8,15,9.6c4.9,5.9,1.8,12.4,0.1,17.8
		c-1.4,4.6-6.3,8.2-9.7,12.1c-1.6,1.9-3.7,3.4-5.2,5.3c-4.9,6-11.9,8.8-18.5,12.3c-4.3,2.2-8.1,5.7-11.4,9.3
		c-5.5,5.7-10.8,11.7-15.4,18.1c-2.8,4-3.9,9.1-6.2,13.5c-3.3,6.3-6.7,12.5-10.7,18.3c-1.2,1.7-4.9,1.7-7.4,2.5
		c-0.7-2.7-2.3-5.4-2-8c0.7-6,1.7-12.2,3.8-17.9c2.2-5.8,5.7-11.1,9-16.4c2-3.2,4.8-6,7.3-8.9c2.6-3,2-5.2-1.8-6.2
		c-4.4-1.3-9.4-1.4-13.2-3.6c-5.1-2.9-9.6-7.1-13.9-11.2c-2.8-2.7-2.8-14-0.1-17.6c3.3-4.3,6.7-8.6,10.8-12.1
		c6.2-5.1,12.8-9.8,19.7-14.1c5.7-3.6,11.8-6.7,18-9.3c3.3-1.4,5.4-3.4,4.8-6.6c-0.3-1.8-3.1-3.1-4.7-4.6c-5-4.9-10.8-0.8-16.1-1.4
		c-1.8-0.2-3.7,0.2-5.5,0.1c-3.1-0.3-5.6-1.5-5.6-5.1c-0.1-3.6,2.1-6,5.4-5.9c9.5,0.1,19.1,0.7,28.6,1c1.4,0,3,0.1,4.2-0.5
		c5.9-2.9,7.9-2.5,11.2,3.3c2.1,3.7,3.5,7.9,5.3,11.8C222.3,235.8,221.9,236,221.5,236.2z M187.8,304.3c4.2-2,8.3-3.8,12.1-6.1
		c0.9-0.5,1.1-3.9,0.2-5c-5.2-6.4-10.8-12.5-16.2-18.8c-3.3-3.8-6.9-4.3-10.9-1.5c-3.8,2.6-7.5,5.4-11.2,8.2
		c-4.3,3.3-4.4,6.3,0.2,9.3c5.1,3.3,10.6,6.2,15.9,9.1C180.8,301.1,183.9,302.4,187.8,304.3z M225.9,266.2c-3.1-3.1-5.5-6.1-8.6-8.4
		c-5.8-4.5-17.2-2.2-20.8,4.1c-0.5,0.9,0,2.4,0.3,3.6c1.7,8.1,8.1,13.1,13,19.1c2.7,3.4,6.2,2.5,7.9-0.4
		C220.8,278.7,222.9,272.8,225.9,266.2z"/>
	<path d="M143.5,23c4.2,0,8.7-0.8,12.7,0.3c2.8,0.8,5.1,4,7.3,6.5c5.9,6.7,11.4,13.6,17.3,20.3c1.6,1.8,4.2,2.6,6.1,4.3
		c2.3,2,4.1,4.6,6.2,6.7c2.1,2.1,4.3,4.2,6.9,5.5c0.6,0.3,3.1-2.7,4.4-4.4c3.9-4.9,7.6-9.9,11.5-14.8c5.7-7.3,11.5-14.5,17.2-21.8
		c3.1-3.9,7.4-3.6,9.7,0.9c1.6,3.1,3.1,6.6,3.5,10c0.4,4.2-1.8,7.5-5.6,9.9c-3.7,2.3-7.7,4.9-6.2,10.2c0.7,2.7,6.9,2.7,12,0.9
		c1.7-0.6,3.9-0.1,5.8,0.1c1.6,0.1,3.2,0.7,4.8,0.7c9.2,0,18.4-0.6,27.5,0c4.7,0.3,9.4,2.4,14,4.1c1.1,0.4,2,2.3,2.2,3.6
		c0.3,2.6,0.1,5.3,0.1,9.2c-4.2,0.5-8.4,1.3-12.5,1.5c-6,0.2-12-0.3-18-0.1c-6.6,0.2-12.9,0-18.6-4c-1.5-1-3.8-1.2-5.8-1.2
		c-6-0.3-12-0.5-18-0.3c-2.6,0.1-5.5,0.6-7.5,2.1c-5.3,3.9-10.4,8-14.9,12.7c-2.9,3-5.3,3.3-8,0.6c-2.9-2.9-5.2-6.5-8.3-9.2
		c-6.2-5.4-12.6-10.6-19.2-15.4c-4-2.9-8.6-1.6-12,1.5c-10.6,9.5-24.2,15.2-33.8,26.1c-3.6,4.1-11.7,3.2-14.4-0.6
		c-3-4.3-1.5-10,3.7-13.1c6-3.6,12.8-5.8,17.9-11.3c4.1-4.5,9.3-8,13.8-12.1c5.1-4.7,5.1-10.8,0.1-15.7
		C140.1,30.9,140,30.6,143.5,23z"/>
	
	
	
	
	
</g>
</svg>
