<?xml version="1.0" encoding="utf-8"?>
<!-- Generator: Adobe Illustrator 22.0.0, SVG Export Plug-In . SVG Version: 6.00 Build 0)  -->
<svg version="1.1" id="图层_1" xmlns="http://www.w3.org/2000/svg" xmlns:xlink="http://www.w3.org/1999/xlink" x="0px" y="0px"
	 viewBox="0 0 400 400" style="enable-background:new 0 0 400 400;" xml:space="preserve">
<style type="text/css">
	.st0{fill:#FFFFFF;}
</style>
<g>
	
	<path d="M93.2,64.5c-0.6-9,1.1-11.7,7.4-11.6c3.3,0.1,6.6,0.3,9.9,0.1c3.9-0.3,7.7-1,11.6-1.4c0.8-0.1,1.7,0.7,2.6,0.8
		c2.8,0.2,6.4,1.5,8.1,0.2c4.6-3.4,9.5-2.4,14.3-2.3c6.5,0.1,13-1.1,19.4,2.6c2.3,1.3,6.6-0.3,9.8-1.4c2.5-0.9,4.1-1.9,6.6,0.4
		c3.2,2.9,9.4,2.3,13.2,0.3c2.4-1.3,5.9-2.5,8.1-1.7c5.7,2.2,11,1,16.6,0.3c4.5-0.6,8.6-0.8,13.2,1.6c4.9,2.6,11,2.3,16.3-0.8
		c1.1-0.6,2.7-1.7,3.5-1.4c7.9,3.8,15.6-1.5,23.4-0.3c3.3,0.5,10.2,6,10.9,9.6c0.8,3.7-2.5,6.6-7,9.4c-7.9,4.9-15.4-0.2-23,0.1
		c-2.2,0.1-4.5-0.1-6.7-0.2c-7.1-0.1-14.2-0.2-21.2-0.4c-6.5-0.2-13-1.1-19.4-0.6c-5.6,0.5-7.7,5.9-7.2,12.8
		c0.3,4.5-0.1,9.2-1.3,13.5c-1.9,7-1,10.5,5.7,13.7c9,4.3,18.2,7.6,28.3,9c6.9,0.9,13.5,4.4,19.9,7.4c8.2,3.9,16.3,8.3,24.1,12.9
		c6.8,4.1,11.2,10.2,12.7,18.2c1.4,7.5,2.7,15,8.3,20.9c1.1,1.2,2.3,3.4,2,4.8c-1.9,8.2,2.6,15.6,2.5,23.5c0,3.1,0.2,6.3,0.4,9.4
		c0.1,1.8-0.2,3.9,0.5,5.4c4.7,9.3,3,19.3,3.6,28.6c-3.3,2.4-6.4,4.3-9.2,6.6c-3.1,2.6-6.2,1.8-9.3,0.4c-2.8-1.3-3.7-3.3-3.9-6.7
		c-0.5-12.5-1.4-25-2.6-37.5c-0.5-5.2-1.6-10.5-3.3-15.4c-2.8-7.9-2.1-17.1-8.4-23.7c-0.3-0.3-0.3-1-0.3-1.4
		c2.1-16.6-9.5-25.3-20.5-29c-7.1-2.4-13.9-5.5-21-7.8c-7.1-2.3-14.4-3.9-21.5-6.2c-3.7-1.2-7.3-3-10.5-5.1
		c-2.6-1.7-4.4-1.6-7.2-0.2c-6.8,3.2-14,5.8-21,8.6c-0.9,0.3-2.1,0.4-2.9,0.1c-7.7-3.1-14.4,1.7-21.6,2.8c-0.4,0.1-0.9,0.5-1.2,0.8
		c-9,10.9-20.4,20.1-22.2,35.7c-0.7,5.8-2.9,11.4-4.5,17.1c-0.3,1.1-0.7,2.2-0.7,3.4c-0.4,17.8-0.8,35.6-1.1,53.4
		c-0.1,3.4-5.5,12-8.5,13.2c-3.7,1.6-9.2-1.1-9.9-5.1c-0.7-3.4-0.9-6.8-1.3-10.2c-0.1-1-0.3-2.2,0.1-3c3.6-6.1,2.6-12.1,1-18.6
		c-0.7-2.6,1.1-5.7,1.5-8.6c1.1-7,3.4-14.2,2.8-21.1c-0.9-10,2.4-19,3.4-28.5c1.4-13.5,10.4-22.9,17.4-33.4
		c5.1-7.7,14.2-8.2,21.9-10.6c9.6-3,20-3.6,29.2-7.4c3.9-1.6,6.8-8.4,8.1-13.4c1.7-7,1.5-14.5,2.1-21.7c0.3-4.1-1.6-6.2-5.8-6.5
		c-10.4-0.7-20.7-1.7-31.1-2.2c-4.4-0.2-10.5-0.9-13,1.5c-4.7,4.6-7.1,3-11-0.1c-1.2-1-4.1-0.7-5.8,0
		C109.1,72.1,100.9,70.1,93.2,64.5z"/>
	<path d="M173.8,211.5c0,10.8,0.3,21.6-0.1,32.4c-0.2,5.8-2.4,11.6-2.5,17.4c-0.1,8.1,1.2,16.2,1.3,24.3c0.1,4.7-1.2,9.4-1.4,14.2
		c-0.6,12.1-1.2,24.2-1.4,36.3c-0.1,5.8-2.6,10.2-6.2,14.1c-3.1,3.3-15.7,0.3-17.3-4c-0.4-1.2-0.5-2.7-0.2-3.9
		c1.7-6.2,3.9-12.2,5.2-18.5c1.4-7.1,2.7-14.3,2.9-21.5c0.4-14-0.3-28,0.2-42c0.3-8.5,2.1-17,3.2-25.5c0.2-1.5,0.4-3,0.3-4.4
		c-0.6-10.3-1.3-20.5-1.9-30.8c-0.2-4.1-0.6-8.2,0-12.2c0.8-5.3,1.9-10.6,4-15.5c2.4-5.7,8.3-7.3,13.8-8.7c4.8-1.2,9.7-2.2,14.6-3.3
		c0.8-0.2,1.6-0.5,2.4-0.5c11.2,0.7,22.4,1,33.6,2.2c11.3,1.3,19.1,13.5,18,24.7c-0.6,6.2,1.1,12.7,1.8,19c0.3,2.6,0.7,5.3,0.9,7.9
		c0.8,8.4,1.7,16.8,2.1,25.2c0.2,3.9-0.9,7.8-1.4,11.7c-0.2,1.4-0.6,2.9-0.5,4.3c0.5,4.6,1.5,9.1,1.7,13.6
		c0.6,14.9,0.9,29.8,4.8,44.3c1.3,5,1.6,10.4,2.4,15.5c0.7,4.6-4.5,13.4-9.1,15c-5.2,1.8-11.6-0.6-14.1-5.6
		c-0.8-1.6-1.1-3.5-1.2-5.2c-0.4-17.2,0.3-34.6-1.6-51.6c-0.9-7.7-1.3-15.4-1.5-23.1c-0.1-2.9,0.9-5.8,1.4-8.7
		c0.1-0.8,0.5-1.7,0.3-2.4c-2.2-5.3-2.7-10.6-0.2-15.9c0.2-0.4,0-1-0.3-1.4c-4.8-8.3-2.9-17-1.8-25.7c0-0.3,0.2-0.7,0.1-1
		c-2.8-7.9-5.3-16-8.5-23.8c-1.1-2.8-4-3.2-7.3-2.5c-5.6,1.1-11.4,1.5-17.1,2.1c-4.4,0.5-8.9,0.8-13.3,1.7
		c-4.2,0.9-7.1,5.4-7.2,10.2c0,7.2,0,14.3,0,21.5C173.1,211.5,173.4,211.5,173.8,211.5z"/>
</g>
</svg>
