<?xml version="1.0" encoding="utf-8"?>
<!-- Generator: Adobe Illustrator 22.0.0, SVG Export Plug-In . SVG Version: 6.00 Build 0)  -->
<svg version="1.1" id="图层_1" xmlns="http://www.w3.org/2000/svg" xmlns:xlink="http://www.w3.org/1999/xlink" x="0px" y="0px"
	 viewBox="0 0 400 400" style="enable-background:new 0 0 400 400;" xml:space="preserve">
<style type="text/css">
	.st0{fill:#FFFFFF;}
</style>
<g>
	
	<path d="M238.1,261.8c2.5-0.2,5-0.5,7.5-0.5c5.1,0,8.7,3.3,8.9,8.2c0.3,5-3.8,7.5-8.6,6.5c-6.4-1.3-13.1-2.3-19.6-2.1
		c-5.5,0.2-4.8,5.4-4.8,9.3c-0.1,4.2,1.8,6.8,6.1,6.8c4.2,0,8.3-0.4,12.5-0.7c6.7-0.5,11.6,2.4,11.5,6.7c-0.1,4.5-5.5,8.2-11.4,8
		c-4.3-0.2-8.7-0.3-12.9,0.1c-1.4,0.1-3.3,2-3.7,3.4c-0.6,2.2,0,4.6,0.1,6.9c0.2,2.8,1.5,3.7,4.6,3.7c10.6-0.1,21.2,0.2,31.7,0.6
		c4,0.2,7.2,4.7,6.8,8.5c-0.4,3.7-4.7,7.3-8.7,6.7c-9.3-1.5-18.5-3.2-27.8-4.9c-1-0.2-2-0.5-2.9-0.6c-9.5-0.1-18.9,0-28.4-0.1
		c-4.7-0.1-9.3-0.8-13.9-0.7c-2.1,0-4.8,0.9-5.9,2.4c-0.8,1.1-0.1,4.3,1,5.7c2.7,3.5,2.5,6.7,0.4,10.2c-1.3,2.1-2.6,4.3-3.9,6.4
		c-2.1,3.5-5.4,3.3-8.8,2.9c-3.4-0.4-4.1-2.8-4.4-5.7c-0.9-7.5-1.2-15.1-2.8-22.5c-1.2-5.3-2.3-10-0.6-15.5c0.9-2.9-0.4-6.8-1.5-10
		c-3.3-9.6-0.9-18.9,0.5-28.5c2.1-14.8,12-23.4,23-31.4c2.7-1.9,5.4-3.9,7.8-6.2c3.3-3.1,2.8-5.8-1.3-7.6c-3-1.4-6.2-2.4-9-4.2
		c-6.7-4.2-12-1.1-17.3,2.7c-7.9,5.6-14.6,5.3-22-1c-3.3-2.8-3.1-6.4,0.7-8.5c10.4-5.8,20.9-11.3,31.4-17.1c1.3-0.7,2.3-1.8,3.5-2.8
		c4.2-3.8,8.5-7.5,12.5-11.4c1.5-1.5,2.5-3.4,3.6-5.3c1-1.7,1.5-3.7,2.6-5.4c3.1-4.8,7-5.1,11-1.3c4.6,4.4,7.2,9.3,5.6,16.1
		c-0.4,1.6,1.3,4.7,2.8,5.6c7.3,4.1,14.3,8.7,23.4,8.7c3.7,0,8.9,2.5,10.8,5.6c2.4,4-0.6,8.3-4.4,11.6c-1.9,1.7-4.4,5.8-3.8,6.7
		c2.1,2.8,5.3,5.5,8.6,6.7c4.4,1.7,6.9,4.3,8.1,8.6c1,3.5,0,6.2-2.8,8.3c-2.7,2.1-5,1.5-7.7-0.3c-3.6-2.4-7.5-4.3-11.3-6.4
		c-0.4-0.2-0.9-0.7-1.3-0.6c-1.7,0.4-4,0.4-4.8,1.4c-2.6,3.8-7.2,7.3-5,12.8c0.7,1.7,3.4,3,5.4,3.5c2.9,0.6,6,0.1,9,0.1
		C238.1,262,238.1,261.9,238.1,261.8z M188.3,290.1C188.3,290.1,188.3,290.1,188.3,290.1c1.8,0.1,3.7,0.1,5.5,0.1c2,0,4,0.1,6,0.2
		c4.4,0.1,6.6-2.9,7.2-6.3c0.5-2.7,0.1-7.1-1.7-8.4c-2.6-1.9-6.7-1.9-10.2-2.3c-2.9-0.3-5.9-0.2-8.8-0.1c-3.2,0.1-6.5,0-9.4,1
		c-3.5,1.2-5.1,7.8-3.8,12.4c1.1,3.9,4.3,3.5,7.3,3.5C182.9,290,185.6,290.1,188.3,290.1z M211.1,223.2c2.4-1.5,5-2.9,7.4-4.5
		c1.4-0.9,3.7-2.6,3.5-3.2c-0.6-1.8-2-3.9-3.6-4.8c-5.6-3.2-11.5-5.8-17.2-8.8c-3.8-2-6.5-0.1-8.7,2.5c-2.5,2.9-5.9,5.8-4,10.4
		c0.5,1.1,1.5,2.5,2.6,2.8C197.5,219.6,204.1,221.3,211.1,223.2z M190.2,316.7c7.1,0.8,12.4-1.4,15.3-8.1c0.7-1.5,1.2-3.6,0.6-5
		c-0.4-1-2.6-1.9-4-1.9c-7.8-0.1-15.6,0.1-23.4,0.1c-3.8,0-5.3,2.2-5.7,5.6c-0.4,3.5,0.9,6.1,4.2,6.9
		C181.4,315.4,185.8,315.9,190.2,316.7z M195,260.3c0,0.1,0,0.2,0,0.2c2.5,0,5.1,0.5,7.4-0.1c2.1-0.6,5.2-2.2,5.5-3.8
		c0.8-5,0.9-10.2,0.5-15.3c-0.2-2.8-3.3-3.9-5.4-2.1c-6.2,5.2-12.2,10.8-18,16.4c-2.5,2.4-1.3,4.3,1.9,4.6
		C189.7,260.5,192.4,260.3,195,260.3z"/>
	<path d="M121.7,212.3c-1.3,12.8-3.1,25.6-3.7,38.4c-0.5,12.8,0.4,25.6,0.4,38.4c0,3.8-0.4,7.6-1.3,11.3c-2.1,8.2-1.6,16.2,0,24.5
		c1.4,7.2,0.9,14.9-3,21.6c-2.1,3.6-5.2,5.1-9.3,3.7c-4.1-1.4-6.8-3.4-6.6-8.5c0.2-7.1-1-14.2-1-21.2c0-5.2,0.8-10.5,1.5-15.7
		c0.8-6,2.5-12,2.9-18.1c1-14,3.9-27.9,1.8-42.1c-0.9-6.3,0.2-12.8,0.3-19.3c0-1.4-0.3-2.9-0.6-4.3c-0.3-1.5-1.1-3-0.8-4.3
		c2.5-10.8-1.1-21.6,0.2-32.5c1.2-10.6,3.1-21.3,3.2-31.9c0.1-7.1,2.2-13.3,4-19.8c2.4-8.7,9.4-12.9,17.2-16
		c2.1-0.8,4.1-2.3,6.2-2.9c6-1.5,12.2-2.5,18.2-3.9c8.3-1.9,16.1-4.6,21-12.3c3-4.6,5.9-5.5,10.5-2.9c4,2.3,7,9.9,5.4,15.1
		c-1.4,4.7-5.1,6.7-9.8,7.3c-13.5,1.7-26.2,6-38.1,12.3c-3.8,2-7.2,4.6-10.6,7.2c-1.1,0.9-2,3-1.7,4.2c0.3,1.1,2.4,2.3,3.7,2.3
		c10.1,0.2,20.2-0.4,30-3.4c4.2-1.3,8.8-1.7,13.2-1.9c5.7-0.3,9.8,4.6,10.6,10.5c0.9,7.4,0.9,14.6-0.5,22
		c-1.1,5.5-6.7,11.2-13.3,12.7c-4.8,1.1-9.4,3.2-14.3,4.1c-7.4,1.3-14.7,4.4-22.4,0.2c-6.1-3.3-12.1,0-13.5,6.7
		c-0.6,3.1-0.9,6.2-1.1,9.3c-0.2,3,0,6,0,9C121.1,212.3,121.4,212.3,121.7,212.3z M164.5,162.2c0-8-3-10.5-10.2-8.9
		c-8.5,1.8-17.1,3.3-25.6,4.9c-4.2,0.7-7,5.6-6.8,11.3c0.2,5.1,3.4,5.4,7.2,5.1c8.2-0.7,16.4-1.6,24.6-1.9
		C162.3,172.3,164.5,170.5,164.5,162.2z"/>
	<path d="M294.9,335.5c-0.3-4.8,1.7-10.1-3-14c-0.5-0.4-0.5-1.5-0.6-2.4c-0.6-13.3-1-26.5-1.7-39.8c-0.2-3.4-1.1-6.8-1.5-10.2
		c-0.3-2.3-0.8-4.7-0.3-6.9c1.7-7.3,0.7-14.4,0.2-21.7c-0.8-12.4,0-25,0.5-37.5c0.3-5.9-1.2-8.5-7.3-9.2c-7.2-0.8-14.5-1-21.7-1.6
		c-7.6-0.6-15.3-1.3-22.9-2.2c-4.7-0.6-11.2-10.2-11.6-16.9c-0.6-10.6,3.7-19.4,10-27.5c2.5-3.1,5.7-4.4,9.7-2.3
		c1.5,0.8,3.7,1.1,5.3,0.7c8.3-2.1,16.4-1.9,24.5,0.4c2.3,0.7,5,0.5,7.4,0.3c4.4-0.4,5.6-3.3,2.9-6.9c-5.2-6.8-12.7-8.4-20.7-9.1
		c-8.5-0.8-17.1-1.4-25.5-3c-5.1-1-12.5-12.8-12.5-18c0-5.2,3.5-7.1,8.6-4.5c4.4,2.3,8.7,4.9,12.9,7.6c7.2,4.5,15.4,4.8,23.4,5.6
		c6.2,0.7,12.7,0.2,18.6,1.9c8.7,2.5,14.3,8.4,15,18.2c0.4,6.2,2.6,12.4,2.8,18.6c0.1,6.2-1.5,12.4-2.1,18.6c-0.2,2.2,0,4.5,0.1,6.7
		c0.1,1.8,0.6,3.6,0.6,5.4c0.1,7.2,0.5,14.3,0.1,21.5c-0.5,10.7-1.9,21.4-2.4,32.1c-0.3,7.4,0.4,14.9,0.6,22.4c0,0.3,0.1,0.7,0.1,1
		c0.6,14,1.1,28.1,1.8,42.1c0.3,5.1,0.5,10.3,1.6,15.3c1.1,4.9,3.8,9.4,4.7,14.3c1.2,7.1,1.8,14.4,1.8,21.6c0,2-2.8,5-4.9,5.6
		c-2.2,0.7-4.7,0.4-7.6-2C294.3,352.7,295.9,343.9,294.9,335.5z M290.2,166.4c0.1-5.8-7.2-11-13.1-9.3c-2.8,0.8-6.1,1.8-8.7,1.2
		c-5.1-1.3-9.9-1.5-15.1-0.3c-5.1,1.2-11.1,6-11.3,11.7c-0.2,5.1,4.5,7,8.3,8.9c1.8,0.9,4.2,0.6,6.4,0.7c7.9,0.6,15.8,1.2,23.7,1.9
		c3.7,0.3,6.4-1.2,7.5-4.4C289,173.5,289.4,170,290.2,166.4z"/>
	<path d="M139.3,39.2c4.7-0.5,9-0.8,12.8,4c3.3,4.1,5.7,7.7,5.1,13.3c-0.2,2.2,1.2,5.4,3,6.6c1.3,0.9,4.6-0.2,6.6-1.2
		c5.7-3,9.3-7.8,11.7-13.7c1.7-4,8.7-7,12.7-5.6c3.3,1.2,4.8,4,3.6,7.2c-2.7,7.1-5.6,14.1-9,20.9c-1.1,2.1-3.5,4.1-5.7,5.1
		c-6.3,2.7-12.9,4.7-19.3,7.3c-1.5,0.6-3.1,2.2-3.7,3.7c-0.6,1.6-0.2,3.6-0.1,5.4c0.1,7.6-2.2,10.9-9.5,13.2
		c-5,1.6-10.9-2.5-11.3-8.2c-0.2-2.6,0-5.3,0.1-8c0.1-6.3-4-11.5-10.1-10.9c-12.1,1.1-17.6-6-22.3-15.3c-2.2-4.3-3.4-8.3,0.7-11.6
		c1.4-1.2,4.7-1.4,6.4-0.6c2.7,1.3,5.3,3.6,7.1,6.1c3.5,4.8,8.1,5.9,13.5,5.6c5-0.2,7.9-3.2,6.1-7.7
		C135.6,49.3,136.1,44.5,139.3,39.2z"/>
	<path d="M256.7,57.1c0-0.7-0.2-2.4-0.3-4c-0.4-6,1.6-9.1,6.4-10.1c3.7-0.7,8.5,2.3,9.7,7c1.1,4.1,1.6,8.5,1.6,12.7
		c0.1,3.4,0.4,6.3,3.8,7.9c3.5,1.6,5.6-0.6,7.7-2.9c4.6-5.2,10-9.6,11.7-17c0.5-2,4-4.7,6.1-4.6c2.3,0.1,5.1,2.6,6.5,4.8
		c1.4,2,1.3,5,1.8,7.6c0.2,0.8-0.2,1.7,0.1,2.5c0.7,2.1,3,5.2,2.3,6c-6,7.2-8.6,18.3-20.6,18.9c-3,0.1-5.9,0.8-8.9,0.9
		c-5.2,0.2-6.7,1.7-6.7,7c0,6.2-5.8,12.4-11.8,12.5c-4.8,0.1-7.1-2-7.5-6.8c-1.1-13.1-1.1-13.1-14.9-14.3
		c-8.1-0.7-17.2-8.7-19.2-16.6c-0.6-2.5-1.4-5.2-2.6-7.5c-1.9-3.6-1.8-6.7,1.6-9.2c3.6-2.6,7.3-1.7,10,1.1c3.3,3.4,6.1,7.4,8.7,11.4
		c2.3,3.6,4.2,7.1,9.3,7c3.9-0.1,6-1.5,5.5-5.7C256.9,63.1,256.9,60.6,256.7,57.1z"/>
	
	
	
	
	
	
</g>
</svg>
