<?xml version="1.0" encoding="utf-8"?>
<!-- Generator: Adobe Illustrator 22.0.0, SVG Export Plug-In . SVG Version: 6.00 Build 0)  -->
<svg version="1.1" id="图层_1" xmlns="http://www.w3.org/2000/svg" xmlns:xlink="http://www.w3.org/1999/xlink" x="0px" y="0px"
	 viewBox="0 0 400 400" style="enable-background:new 0 0 400 400;" xml:space="preserve">
<style type="text/css">
	.st0{fill:#FFFFFF;}
</style>
<g>
	
	<path d="M247.9,369.9c-5.3-6.1-4.7-12.9-5.7-19.6c-1.5-10.6-5-20.9-8.1-31.2c-1.8-5.9-10.9-11.1-17.2-10.9
		c-1.8,0.1-3.8-0.6-5.4-0.1c-2.3,0.9-5.2,2.1-6.2,4c-0.6,1.2,1.3,4.5,2.9,5.9c6.2,5.2,12.7,9.9,19,15c5,4,5.1,11.9,0.5,16.4
		c-3.2,3.1-6.1,1.1-8.3-1.1c-7-7-13.9-14.2-20.6-21.4c-3.9-4.3-7.8-4.3-11,0.4c-0.6,0.8-1.2,1.6-1.8,2.4c-4.9,8.2-4.1,10.3,4.3,15.3
		c4.9,3,9.5,6.7,13.9,10.4c3.8,3.2,2.9,8.8-1.4,11.3c-1.1,0.7-2,1.8-3.1,2.2c-1.3,0.4-3.2,0.8-4.2,0.2c-6-4.1-11.8-8.4-17.5-12.8
		c-1.5-1.1-2.5-2.8-3.6-4.4c-1.3-1.7-2.1-3.8-3.6-5.3c-7.2-7.5-5.1-21,3.6-26.4c3.6-2.2,6.4-5.7,9.5-8.6c2.7-2.6,1.9-4.1-1.3-6
		c-6.4-3.7-12.8-7.7-18.6-12.3c-2.1-1.6-2.7-5.3-3.7-8.1c-0.5-1.5,0-3.6-0.8-4.9c-3.8-6.4-1.3-12.5,0.3-18.7
		c0.3-1.1,0.8-2.3,0.7-3.4c-1.4-11.6,2.5-22.3,5-33.3c1.7-7.8,3.1-16.2,2-24.1c-0.8-5.7-2.2-11.8-4.4-17.4c-1.3-3.3-0.9-8.8,1.7-9.9
		c4-1.7,6.6,0.5,8.7,3.7c1.9,2.7,3.9,5.4,5.6,8.2c1.1,2,2.2,4.1,2.6,6.3c1,5,1.4,10.1,2.3,15c0.6,3.3,2.7,4.5,6.2,4
		c4.8-0.7,9.7-1.1,14.5-1.4c3.8-0.2,7.7-0.6,11.5,0c2.2,0.3,5.8,2.2,5.9,3.7c0.2,2.1-1.6,5.3-3.5,6.6c-8.4,5.7-18,3.8-27.1,2.6
		c-4.2-0.5-7.1,0-9.7,3.1c-0.8,0.9-1.8,2.6-1.4,3.3c0.6,1.1,2.2,2.3,3.4,2.2c12.6-0.4,25.2-0.9,37.8-1.7c7-0.5,10.8-6.1,14.9-10.9
		c0.8-0.9,0.4-4.1-0.7-5.3c-4-4.6-8.3-9.1-12.8-13.2c-5.1-4.7-10.6-9-15.8-13.7c-1.3-1.1-2.3-3.1-2.5-4.7c-0.4-4.6-3.2-5-6.9-5.2
		c-5.2-0.4-10.9-0.4-15.5-2.5c-3.3-1.5-6.1-5.8-7.3-9.4c-1.7-5-1.7-10.6-2.5-16c-0.3-1.9-0.8-3.9-0.9-5.8c-0.2-3.3-0.7-6.7,0-9.8
		c0.6-2.2,3.3-5.5,4.7-5.3c2.7,0.3,5.3,2.6,7.8,4.3c1.5,1,2.6,2.5,3.9,3.7c1.4-1.6,3.2-3,4.2-4.9c1-1.8,1.5-4.1,1.9-6.2
		c1.1-5.5-1.9-8-7.3-7.5c-6.8,0.7-13.6,1.1-20.4,0.6c-2.1-0.1-5.2-3-5.8-5.1c-0.4-1.6,1.9-5.3,3.8-6c3.6-1.4,7.3-3.2,11.9-1.4
		c3.7,1.4,8.3,1.2,12.3,0.5c2.2-0.4,5.3-3.3,5.4-5.2c0.1-2.3-2-6.1-4.1-7c-7.3-3.1-10.5-8.3-11-15.7c-0.3-4.1-5.6-8.3-11.3-8.3
		c-4.4,0-8.2-0.4-8.7-5.7c-0.2-2.8,5.3-6.1,10-5.7c5,0.4,9.9,2,14.9,2c7.4-0.1,14.8-1.2,22.2-1.8c7.6-0.7,15.1-1.4,22.7-1.9
		c1.9-0.1,4.3,0.1,5.7,1.1c1.6,1.2,3.7,3.6,3.4,5.1c-0.4,1.9-2.6,4.2-4.5,4.8c-6.7,2-7.8,3-7.7,10.2c0.1,7.1-1.6,13-8.7,16.5
		c-3.5,1.7-6.4,4.8-9.5,7.3c0.2,0.7,0.4,1.3,0.6,2c4.4,0.4,8.8,1,13.2,1.2c3.3,0.1,6.7-1,9.9-0.5c2.4,0.4,4.5,2.7,6.8,4.1
		c-1.3,2-2.2,4.7-4,5.7c-2.9,1.5-6.5,2-9.8,2.7c-1.4,0.3-3-0.1-4.5-0.2c-11.3-1-10.9,2.9-10.3,12.2c0.3,3.9,4,5,6.9,2.4
		c1.6-1.4,2.6-3.5,4.2-4.9c2-1.9,5-5.2,6.5-4.7c2.9,1,5.1,4.1,7.4,6.6c0.7,0.7,0.8,2.2,0.7,3.4c-0.9,9.9-1.6,19.8-3,29.6
		c-0.4,2.4-3.1,4.5-5,6.6c-1,1-2.7,1.3-3.8,2.4c-2.4,2.3-5.4,4.6-6.5,7.5c-0.9,2.5,6.3,8.8,9.7,9.7c2.2,0.6,4.3,1.5,6.3,2.5
		c4.9,2.7,6.8,2,10.3-2.5c3.4-4.4,7.3-8.4,11.2-12.3c4.9-4.9,10-9.6,15-14.4c2.4-2.3,2-4.5-0.4-6.3c-1.2-0.9-2.8-1.9-4-1.8
		c-7.5,0.9-10.1-4.2-12.6-9.7c-1.2-2.7-3.3-5.1-4-7.9c-2-8.1,2.6-17.6,10.1-21.4c4.2-2.1,8.3-4.2,9.9-9.1c1.9-5.7-0.7-9.9-6.5-10.4
		c-5.7-0.5-12.2-6.8-13.9-12.5c-4.1-13.4,2.1-23.2,11.5-30.9c6.7-5.5,7.9-13.4,12.2-20c2.6,0,5.2,0,8.2,0
		c1.7,8.6,8.7,12.3,15.1,16.7c4.3,3,8.5,6.4,12.3,10.1c6.2,6.1,6.8,12.8,1.8,20c-2.2,3.2-4.7,6.3-7.4,9.1c-3.3,3.4-7.3,4.3-12.2,4.1
		c-7.8-0.3-10.7,3.4-9.6,10.8c0.6,4.2,4.4,6.6,8.9,5.8c7.1-1.3,18.1,6,19.9,13c1.1,4.3,3.8,7.8,2.1,13c-1.9,5.6-11.3,15.6-17.3,17.1
		c-2,0.5-4.4,2.8-4.8,4.7c-0.4,1.8,0.9,5,2.5,6.1c5.1,3.6,11.1,5.9,16,9.8c5.4,4.3,10.9,9.2,14.3,15c2.1,3.7,0.4,9.7,0.4,14.7
		c-7.8,4.3-9.7-0.5-15.8-8.5c-3.7-5-7.9-9.6-12.1-14.2c-0.8-0.9-3-1.5-4.1-1c-0.9,0.4-1.5,2.5-1.4,3.8c0.3,3.6,1.1,7.2,1.6,10.8
		c0.2,1.8,0.7,3.7,0.3,5.4c-1,3.7-2.3,7.3-3.8,10.8c-1.2,2.6-2.7,6.5-6.3,4.9c-2.6-1.2-5.2-4.4-5.8-7.2c-0.9-3.9,0.1-8.3,0.2-12.4
		c0.1-1.5,0.6-3.3,0-4.4c-1.2-2.4-2.6-5.1-4.8-6.4c-1-0.6-4.2,1.1-5.7,2.5c-3.3,3-6.3,6.3-9.1,9.7c-3.2,3.8-4.2,7.5-2.2,12.8
		c2.2,5.8,3.1,12.3-1.6,18c-0.7,0.9-1.2,2-1.8,3c-6.7,12.4-12.6,14.8-26.5,13.6c-7.4-0.7-15.1,1.3-22.6,1.7
		c-5.3,0.3-10.5,0.4-15.8,0.2c-3-0.1-6-0.6-6.3,3.5c-0.3,3.8,2.5,4.1,5.4,4.1c10-0.1,20-0.5,30-0.3c9.1,0.1,18.2,0.8,27.3,1.2
		c7.9,0.4,14.3,4.3,20,9.2c4.2,3.6,8,7.6,11.9,11.5c3.2,3.2,3.2,6.4-0.2,9.6c-3,2.8-5.1,0.7-7.6-1.4c-9-7.3-17.5-15.4-29.5-17.7
		c-1-0.2-2.1-1-2.8-0.7c-8.9,4.1-17.1-1.3-25.6-1.6c-5.3-0.2-10.6,0.8-15.8,1.1c-2.7,0.2-5.3,0-8-0.1c-3.6-0.1-6.9,0.2-7.2,4.8
		c-0.3,3.9,2.9,6.8,7.5,6.8c5.5,0,11-0.1,16.5-0.2c7.7-0.1,15.6-1.3,22.9,0.1c9.3,1.9,19.4-1.1,28,4.6c2.8,1.9,5.6,4.2,7.6,6.9
		c6.2,8,12.1,16.2,18,24.5c3.5,4.9,6.9,9.9,6.7,16.3c-0.1,3.1-0.5,6.4-3.9,6.5c-2.5,0.1-6-1.3-7.6-3.2c-2.8-3.5-4.6-7.9-6.8-12
		c-1.1-2.1-1.8-4.4-3.3-6.2c-5.6-6.8-10.9-13.8-17.2-19.8c-2.8-2.7-7.8-3.9-11.9-4.2c-13.9-1-27.9-1.5-41.8-1.9
		c-2.6-0.1-7.7,1.5-7.6,2.1c0.3,4.6,4.6,1.9,7.1,3.1c3.3,1.6,7.5,1.6,10.6,3.5c5.2,3.1,10.5,2.4,16,2.5c8.7,0.1,17.3,0.8,24.4,6.7
		c1.5,1.3,2.7,3.1,3.8,4.8c1,1.7,1.5,3.7,2.6,5.4c8,12.5,9.5,27.1,12.9,41.1c0.8,3.5-0.3,7.6-1.3,11.2
		C257,371.6,251.8,369.9,247.9,369.9z M258,74.2c1.8,1.7,3.4,4.6,5.4,4.8c8.1,0.8,16.3,1.1,24.2-2c4.4-1.7,8.1-7,7.5-10.7
		c-2.2-13.2-14.3-18.6-25-10.9C264.1,59.7,261.1,66.3,258,74.2z M274,139.7c5.7-1.7,13.9,0.7,17.6-7.6c1-2.4,2.3-5.9,1.2-7.6
		c-1.4-2.2-4.8-4-7.5-4.4c-3.3-0.5-6.8,1-10.3,1.2c-7.1,0.4-12.8,7.8-10.8,14.6c0.4,1.4,2.3,2.7,3.8,3.3
		C269.6,139.9,271.4,139.5,274,139.7z M207.4,145.7c0-0.1-0.1-0.3-0.1-0.4c-2.9,0.6-5.8,1.2-8.7,1.6c-2.9,0.5-6,0.4-8.7,1.3
		c-1.4,0.5-3,2.7-3.1,4.3c-0.7,6.3,4.4,12.2,10.7,11.2c5.9-0.9,11.8-3.1,17-6c2.3-1.3,2.9-5.9,4.2-9c-2.5-1-4.9-2-7.4-2.8
		C210.1,145.6,208.7,145.8,207.4,145.7z M213.4,76.2c-0.1-6.1-2.6-7.8-6.6-7.1c-3.5,0.7-7.1,0.6-10.7,1c-1.3,0.1-3.4,0.3-3.8,1.1
		c-0.6,1-0.3,3.1,0.5,4.1c1.7,2.2,3.7,4.5,6.1,5.7c2.2,1.2,5.4,2.1,7.5,1.4C209.8,81.1,213.3,78.9,213.4,76.2z"/>
	<path d="M78.8,201.7c3.2-7.6,6.2-15.2,9.7-22.6c1.8-3.8,4.4-7.3,7.1-10.6c2.2-2.8,5-5.2,7.7-7.6c8.4-7.7,5.7-12.8-0.9-20.9
		c-3.2-4-7-7.5-10.1-11.6c-3-4-0.3-15,3.8-17.7c4.1-2.8,8.1-5.7,12.1-8.7c4.2-3.2,4.1-4.6-0.3-7.5c-4.2-2.9-9.1-5.2-12.4-8.9
		c-3.3-3.6-6.1-8.4-7.2-13.1c-1.8-8.1,2.6-14.5,9.3-18.4c7.7-4.5,12.6-11.3,17.6-18.2c2.8-3.9,8.4-3.9,10.8,0.4
		c4.4,7.8,10.5,13.5,18.4,17.5c1.5,0.8,2.8,2.5,3.5,4.1c6.5,15.5,5.6,31.4-15.2,35.8c-1.9,0.4-4.4,2.3-4.8,4
		c-0.4,1.6,1.1,4.3,2.6,5.6c1.9,1.7,4.5,3.1,7,3.5c4.7,0.7,7.1,3.4,9.4,7.2c1.7,2.8,4.6,5,7.4,6.8c2.3,1.5,3.5,2.4,1.4,4.8
		c-0.7,0.8-1.2,2-1.4,3.1c-1.2,8.3-6.3,12.5-14.1,14.4c-4,1-7.9,2.6-11.5,4.6c-3.1,1.7-3.5,4,0.2,6.3c6.8,4.2,13.7,8.3,19.8,13.3
		c5.9,4.9,9.4,11.6,10.2,19.5c0.1,1.4,0.5,3.1,1.4,4.2c2.9,3.5,2.6,7.2,0.8,10.7c-1,1.9-3.3,4.2-5.2,4.4c-2,0.2-4.9-1.3-6.1-3
		c-4.6-6.4-8.6-13.2-13.1-19.7c-1-1.5-3.3-2.1-5-3.1c-0.9,1.7-2.6,3.4-2.6,5.2c-0.4,8.6-0.7,17.3-0.5,26c0.1,3.9-1,6.1-5,6.5
		c-4,0.3-7.5-0.5-8.5-5c-0.4-1.7,0-3.6-0.1-5.4c-0.2-8.7-0.3-17.4-0.9-26c-0.1-1.4-1.7-3.3-3-3.9c-0.8-0.4-2.8,1.2-3.8,2.2
		c-6.8,7.3-10.5,16.2-12.6,25.9c-0.8,3.6-1.6,7.5-6.1,7.9c-3.7,0.3-8.5-5.2-8.5-9.2c0-0.7,0-1.3,0-2C79.6,202,79.2,201.9,78.8,201.7
		z M116,83.8c0.1-0.3,0.2-0.6,0.2-1c4.8-0.5,9.6-0.8,14.3-1.7c3.2-0.6,5.6-2.3,6-6.3c0.3-3.9,0.3-7.1-3.6-9.4
		c-2.5-1.5-4.3-4-6.8-5.5c-2.5-1.5-5.8-4-8-3.3c-7.9,2.4-11,9.9-14.4,16.5c-0.7,1.4,0.9,5.1,2.5,6.3C109,81.5,112.6,82.4,116,83.8z
		 M130.5,129.2c4.1,0,7-2.5,5.8-6.6c-1-3.4-8.4-8.1-11.9-7.6c-3.1,0.4-6.5,0.1-9.2,1.4c-2.7,1.2-4.7,3.9-7,6c2,1.7,3.7,4.4,6,5
		C118.9,128.5,124,128.5,130.5,129.2z"/>
	<path d="M213.8,43.8c-4.8,0.9-9.6,2.2-14.5,2.7c-7.2,0.8-14.6,2-21.7,1.3c-3.6-0.4-6.9-4.7-10-7.5c-0.6-0.5-0.1-3.3,0.7-3.8
		c1.5-1,4.1-2.2,5.3-1.5c4,2.2,7.5,1.3,11.5,0.3c3-0.8,6.6-1.1,9.3-0.1c5.9,2.2,9.6-0.9,14-3.7c2-1.2,5.3-0.6,7.9-0.4
		c1.7,0.1,3.4,1.3,5.1,1.3c4.3-0.2,8,2,8.3,5.4c0.3,3-3.4,6.7-7.2,6.9c-2.8,0.2-5.7,0-8.5,0C214,44.5,213.9,44.1,213.8,43.8z"/>
	
	
	
	
	
	
</g>
</svg>
