<svg enable-background="new 0 0 400 400" viewBox="0 0 400 400" xmlns="http://www.w3.org/2000/svg"><g fill="#fcfbfa"><path d="m12.4 4.8-6.1 9h6v1.2h-8v-.5l6.1-8.9h-5.7v-1.2h7.6v.4z"/><path d="m14 15v-10.6h3c1.6 0 2.9.5 4 1.4s1.6 2.2 1.6 3.8-.5 3-1.6 3.9-2.4 1.5-4 1.5zm1.4-9.4v8.2h1.6c1.3 0 2.4-.4 3.1-1.1s1.1-1.8 1.1-3.1-.4-2.3-1.2-3-1.8-1-3.1-1z"/><path d="m26.1 4.4v10.6h-1.4v-10.6z"/><path d="m36.1 14.6c-.8.4-1.8.6-2.9.6-1.5 0-2.7-.5-3.6-1.4s-1.4-2.2-1.4-3.8c0-1.7.5-3.1 1.5-4.1s2.3-1.6 3.9-1.6c1 0 1.8.1 2.5.4v1.4c-.8-.4-1.6-.6-2.5-.6-1.2 0-2.1.4-2.9 1.2s-1.1 1.8-1.1 3.2c0 1.3.3 2.3 1 3s1.6 1.1 2.7 1.1c1 0 2-.2 2.7-.7v1.3z"/><path d="m37.6 14.3c0-.2.1-.5.3-.6s.4-.3.6-.3c.3 0 .5.1.6.3s.3.4.3.6-.1.4-.3.6-.4.3-.6.3c-.3 0-.5-.1-.6-.3s-.3-.4-.3-.6z"/><path d="m50.2 15h-1.6l-5.3-8.2c-.2-.2-.3-.5-.4-.7 0 .2.1.7.1 1.5v7.4h-1.4v-10.6h1.7l5.2 8.1c.2.4.4.6.4.7 0-.3-.1-.8-.1-1.5v-7.3h1.4z"/><path d="m58.6 15h-5.7v-10.6h5.5v1.2h-4.1v3.4h3.8v1.2h-3.8v3.6h4.3z"/><path d="m67.1 5.6h-3.1v9.4h-1.4v-9.4h-3v-1.2h7.5z"/></g><path d="m150.25 164.1c4.71.09 7.94 2.22 9.93 6.11 1.5 2.95 3.63 5.04 6.41 6.79 1.91 1.2 3.77 2.86 4.96 4.75 2.94 4.64 5.69 9.42 8.12 14.34 2.38 4.82 2.11 9.72-.23 14.69-2.54 5.4-5.11 10.69-9.47 14.91-.66.64-1.16 1.52-1.55 2.37-1.9 4.15-1.44 5.03 2.07 7.83 2.32 1.85 4.16 4.33 6.2 6.53 1.55 1.67 2.89 3.63 4.69 4.97 4.59 3.4 9.43 6.47 14.08 9.81.91.65 1.84 1.85 1.98 2.9.29 2.34 1.35 3.46 3.62 3.98 2.26.52 4.37 1.63 6.63 2.16 5.11 1.19 9.48 3.63 12.99 7.45 2.26 2.46 5.01 3.26 8.19 3.44 1.28.07 2.94.37 3.73 1.21 4.14 4.4 9.54 5.53 15.12 6.44 1.52.25 3.14.76 4.39 1.61 7.55 5.13 15.66 7.22 24.71 5.23 1.64-.36 3.38-.28 5.05-.56 2.77-.45 4.76.77 6.92 2.37 2.3 1.71 4.96 3.23 7.7 3.98 6.32 1.74 12.84 2.77 19.18 4.44 5.35 1.41 10.59 1.42 16.01.52 2-.33 4.44.08 6.29.97 6.47 3.14 12.72 6.74 19.16 9.98 5.05 2.54 6.61 6.84 6.66 12.03.02 2.28-.83 4.04-3.08 5.06-1.44.65-2.84 1.48-4.07 2.46-4.83 3.87-9.95 4.79-16.17 3.54-3.81-.77-8.08.94-12.17 1.35-4.71.48-9.51 1.43-14.15.97-7.77-.77-15.08.69-22.57 2.27-7 1.48-14.27 3.13-21.29 2.7-7.64-.47-15.5-2.43-21.14-8.71-4.25-4.73-9.06-8.57-15.54-9.73-2.81-.5-4.78-2.05-5.94-4.66-.97-2.19-2.6-3.5-5.02-3.84-9.42-1.36-16.69-5.96-22.69-13.49-5.04-6.33-10.71-12.16-17.46-17.02-2.75-1.98-5.4-5.35-7.36-8.24-2.37-3.51-5.02-5.49-8.67-6.49-5.02-1.37-8.6-4.85-12.52-7.87-3.1-2.38-11.97-2.85-15-.46-1.58 1.25-2.34 3.49-3.73 5.06-.9 1.01-2.22 1.68-3.43 2.35-1.69.93-3.72 1.42-5.16 2.63-4.29 3.62-8.27 7.61-12.55 11.25-2.36 2.01-3.74 4.37-4.73 7.28-.61 1.82-1.99 3.77-3.58 4.8-7.21 4.65-11.99 11.64-17.55 17.83-5.3 5.89-10.94 11.05-17.98 14.83-2.64 1.42-4.83 4.12-6.57 6.68-3.97 5.83-9.01 9.91-15.88 11.77-2.23.6-4.29 1.83-6.51 2.5-1.56.47-3.77 1.25-4.8.57-2.35-1.57-4.65-4.05-3.87-7.13.82-3.27 2.03-6.81 4.15-9.32 4.93-5.81 10.64-10.94 15.77-16.59 2.74-3.02 4.81-6.65 7.45-9.77 1.51-1.78 3.43-3.35 5.43-4.56 1.84-1.11 3.23-2.28 3.6-4.46 1.15-6.68 4.82-11.46 10.7-14.79 2.47-1.4 4.51-3.55 6.96-5.01 4.96-2.95 8.38-6.87 9.46-12.72.22-1.18 1.45-2.22 2.34-3.21 2.51-2.81 5.39-5.35 7.59-8.39 6.31-8.74 11.27-18.48 19.64-25.66.6-.52 1.02-1.7.93-2.51-.3-2.57.81-3.96 2.93-5.3 7.08-4.46 13.12-19.13 10.91-27.24-.53-1.93-3-3.58-4.93-4.82-3.96-2.55-4.83-5.84-1.77-9.63 3.86-4.78 7.85-9.48 12.03-13.97.95-.99 2.94-1.06 4.45-1.56z" fill="#010102"/><path d="m281.82 188.09c-6.88 0-13.77.21-20.64-.08-3.94-.16-7.85-1.18-11.78-1.72-1.98-.27-3.99-.54-5.97-.45-5.93.28-10.68-1.5-14.17-6.65-4.74-7.02-9.79-13.84-14.74-20.71-.6-.83-1.31-1.91-2.18-2.17-3.65-1.09-5.2-3.95-6.81-6.99-.6-1.14-1.96-2.26-3.19-2.59-2.29-.63-3.17-1.95-3-4.1.24-3.09-1.05-5.45-3.02-7.7-2.16-2.47-3.91-5.3-6.14-7.7-7.81-8.39-13.1-18.09-15.7-29.24-.53-2.25-1.8-3.62-3.75-4.75-2.64-1.53-5.65-2.92-7.52-5.18-3.74-4.53-8.32-6.79-13.97-7.79-4.36-.78-8.69-1.98-12.86-3.47-6.46-2.31-9.39-12.37-4.73-17.36 2.23-2.38 5.93-3.64 9.19-4.75 5.5-1.87 11.17-3.23 16.78-4.74.88-.24 1.88-.2 2.8-.09 7.36.88 14.72 1.76 22.06 2.78.98.14 2.43.84 2.7 1.61 3.5 10.13 10.49 18.09 16.49 26.63 2.35 3.34 3.25 6.54 2.33 10.31-.66 2.68.13 4.54 2.1 6.42 3.69 3.5 7.22 7.18 10.62 10.95 3.87 4.29 8.17 7.93 13.39 10.5 1.26.62 2.46 1.7 3.28 2.85 4.11 5.77 9.52 9.81 15.88 12.81 4.3 2.03 8.42 4.43 12.59 6.74 1.48.82 3.13 1.6 4.2 2.83 3.12 3.57 6.32 6.66 11.61 6.15.65-.06 1.5 1.05 2.12 1.73 2.62 2.92 5.28 5.8 7.75 8.85 1.63 2.01 3.41 3.44 6.11 3.22 3.09-.25 5.09 1.62 7.15 3.48 1.44 1.29 2.72 2.32 5.17 2.19 1.82-.09 4.63 1.78 5.47 3.52 1.51 3.13 2.32 6.78 2.61 10.27.27 3.34-3.43 6.39-6.81 6.27-8.47-.3-16.93-.67-25.39-1.01-.04-.28-.04-.57-.03-.87z" fill="#010102"/><path d="m110.35 109.56c-.76-3.61-1.38-6.4-1.94-9.2-.61-3.07-1-6.24 1.3-8.75 1.13-1.23 2.84-2.05 4.44-2.67 1.45-.56 3.18-.38 4.66-.9 6.36-2.25 10.86.92 14.78 5.19 3.08 3.35 5.81 7.02 8.53 10.67.68.92 1.12 2.32 1.04 3.46-.37 5 .46 9.68 3.13 13.96.94 1.51.83 2.72-.58 3.86-.65.53-1.33 1.13-1.74 1.84-5.84 10.11-15.81 14.98-25.51 20.2-2.24 1.2-4.43 2.48-6.67 3.68-4.29 2.29-8.3 4.8-11.74 8.43-5.12 5.4-12.1 8.03-18.82 10.92-.54.23-1.47.17-1.96-.15-4.76-3.17-5.47-9.13-1.66-13.41 3.45-3.88 7.04-7.65 10.28-11.7 1.58-1.98 2.49-4.49 3.77-6.72.51-.88 1.08-1.79 1.83-2.45 1.58-1.41 3.2-2.81 4.97-3.96 3.79-2.45 5.93-5.35 5.55-10.34-.17-2.17 2.27-4.54 3.52-6.82 1.03-1.85 2.04-3.72 2.82-5.14z" fill="#010102"/></svg>