<svg enable-background="new 0 0 400 400" viewBox="0 0 400 400" xmlns="http://www.w3.org/2000/svg"><g fill="#fcfbfa"><path d="m12.4 4.8-6.1 9h6v1.2h-8v-.5l6.1-8.9h-5.7v-1.2h7.6v.4z"/><path d="m14 15v-10.6h3c1.6 0 2.9.5 4 1.4s1.6 2.2 1.6 3.8-.5 3-1.6 3.9-2.4 1.5-4 1.5zm1.4-9.4v8.2h1.6c1.3 0 2.4-.4 3.1-1.1s1.1-1.8 1.1-3.1-.4-2.3-1.2-3-1.8-1-3.1-1z"/><path d="m26.1 4.4v10.6h-1.4v-10.6z"/><path d="m36.1 14.6c-.8.4-1.8.6-2.9.6-1.5 0-2.7-.5-3.6-1.4s-1.4-2.2-1.4-3.8c0-1.7.5-3.1 1.5-4.1s2.3-1.6 3.9-1.6c1 0 1.8.1 2.5.4v1.4c-.8-.4-1.6-.6-2.5-.6-1.2 0-2.1.4-2.9 1.2s-1.1 1.8-1.1 3.2c0 1.3.3 2.3 1 3s1.6 1.1 2.7 1.1c1 0 2-.2 2.7-.7v1.3z"/><path d="m37.6 14.3c0-.2.1-.5.3-.6s.4-.3.6-.3c.3 0 .5.1.6.3s.3.4.3.6-.1.4-.3.6-.4.3-.6.3c-.3 0-.5-.1-.6-.3s-.3-.4-.3-.6z"/><path d="m50.2 15h-1.6l-5.3-8.2c-.2-.2-.3-.5-.4-.7 0 .2.1.7.1 1.5v7.4h-1.4v-10.6h1.7l5.2 8.1c.2.4.4.6.4.7 0-.3-.1-.8-.1-1.5v-7.3h1.4z"/><path d="m58.6 15h-5.7v-10.6h5.5v1.2h-4.1v3.4h3.8v1.2h-3.8v3.6h4.3z"/><path d="m67.1 5.6h-3.1v9.4h-1.4v-9.4h-3v-1.2h7.5z"/></g><path d="m77.3 260.06c-3.65-3.03-4.21-6.74-4.1-10.84.65-23.1 1.3-46.2 1.7-69.3.07-4.34.49-8.18 5.23-11.45-5.57-.38-5.17-3.5-5.12-6.66.12-7.74-.08-15.49.1-23.22.06-2.56.88-5.11 1.35-7.67.11-.61.52-1.33.32-1.8-2.73-6.65-.77-13.36-.49-20.08.19-4.61-.4-9.24-.44-13.87-.03-3.97.28-7.94.36-11.91.06-2.92-.05-5.84-.03-8.76.02-2.8.05-5.6.21-8.4.19-3.47.66-6.92.76-10.39.11-3.71.29-7.47-.2-11.12-.52-3.83 1.48-5.3 4.45-6.49 5.34-2.13 10.86-1.16 16.34-1.17 12.17-.02 24.36-.74 36.49-.13 7.14.36 14.05-.35 21.06-.98 4.36-.39 8.78-.49 13.16-.35 4.37.14 8.72.76 13.09 1.13.83.07 1.96.31 2.48-.11 3.35-2.73 6.91-1.37 10.25-.44 8.01 2.23 16.03.23 24.04.44 15.1.4 30.21.9 45.31 1.34 7.31.21 14.61.48 21.92.58 9.54.12 19.09.27 28.63.03 3.36-.08 4.55 1.56 5.18 4.22.31 1.33.41 2.73.41 4.1-.04 16.43-.06 32.87-.24 49.3-.03 2.4-.84 4.79-1.44 8.02 3.18 3.37 2.53 8.32 1.67 13.31-.16.94-.36 1.89-.35 2.83.17 16.22.39 32.44.55 48.65.04 3.91-.22 7.83-.18 11.74.06 6.78.44 13.56.34 20.33-.18 12.17-.73 24.34-.91 36.51-.07 4.4.52 8.81.69 13.22.14 3.57.47 7.2.05 10.72-.71 6.01-.9 11.93-.54 18.01.61 10.35-.05 20.77.27 31.14.23 7.28.99 14.56 1.91 21.79 1.25 9.88-.32 19.45-2.79 28.91-.33 1.25-1.94 2.78-3.2 3.05-4.41.93-8.9 1.73-13.39 1.92-7.17.3-14.35.01-21.53.08-11.32.11-22.66 1.05-33.85-1.84-2.08-.54-4.43.05-6.65-.05-1.95-.08-3.89-.38-6.18-.62.86-2.2 1.5-3.85 2.04-5.24.43-.2.55-.31.62-.28 5.61 2.44 8.03-1.81 10.5-5.34.55-.79-.05-3.31-.94-4.04-8-6.58-16.2-12.92-24.29-19.39-2.35-1.88-4.86-3.69-6.76-5.98-6.13-7.41-10.97-15.9-18.49-22.16-.6-.5-.91-1.37-1.25-2.12-1.49-3.34-3-6.67-4.38-10.06-.97-2.39-1.75-4.87-2.6-7.3-.35-.99-.6-2.02-1.03-2.96-4.87-10.54-8.31-21.51-10.24-32.96-.46-2.7.09-4.42 2.55-6.04 6.36-4.2 12.55-8.69 18.68-13.23 1.64-1.21 2.86-3.01 4.19-4.6.54-.64.78-1.52 1.29-2.18 6.59-8.54 8.55-18.29 8.2-28.88-.23-7.07.62-7.43 6.96-4.37 2.07 1 4.04 2.27 5.85 3.67 2.93 2.27 5.69 4.77 8.54 7.14 12.22 10.13 12.23 10.13 17.93 24.84.53 1.37.98 2.81 1.23 4.26.8 4.61.63 5.19-3.58 7.06-2.46 1.09-3.08 2.7-2.6 5.03.74 3.63 1.11 7.43 2.47 10.81 1.72 4.25 5.75 6.16 10.09 6.58 3.66.35 7.41-.03 11.11-.25 2.45-.15 4.1-3.81 2.46-5.6-2.69-2.96-2.25-6.09-1.27-9.51.81-2.82 1.34-5.73 1.8-8.64.42-2.61-.88-4.49-3.11-5.74-1.66-.93-3.39-1.75-5.04-2.69-3.04-1.73-4.75-4.25-6.22-7.59-3.74-8.56-7.64-17.22-16.63-21.97-1.37-.72-2.16-2.51-3.27-3.77-.6-.68-1.19-1.46-1.95-1.87-7.63-4.14-15.24-8.35-23-12.23-2.38-1.19-5.21-1.59-7.89-2.04-1.94-.33-3.38.78-3.48 2.79-.12 2.48-.39 5.13.29 7.45 1.86 6.28 2.11 12.6.68 18.85-.75 3.29-2.21 6.79-4.38 9.32-4.88 5.7-10.39 10.87-15.67 16.22-.59.59-1.32 1.09-2.06 1.47-4.32 2.24-6.32 1.18-7.14-3.49-1.22-6.97-2.77-13.89-3.82-20.89-.47-3.11-.17-6.35-.03-9.52.23-5.49-1.11-10.49-4.28-14.99-1.65-2.34-8.05-3.26-10.38-1.66-4.95 3.4-10.01 6.66-14.95 10.07-2.15 1.49-4.42 2.97-6.12 4.91-3.86 4.36-7.68 8.82-10.97 13.6-2.23 3.24-3.53 7.11-5.25 10.7-1.27 2.66-2.31 5.47-3.88 7.95-2.01 3.18-3.05 6.43-2.57 10.19.18 1.36-.11 2.78.13 4.12.25 1.4.87 2.74 1.32 4.11.96-1.13 2.27-2.11 2.83-3.41 3.38-7.86 6.5-15.83 9.93-23.68.91-2.07 2.45-3.92 3.92-5.68 4.84-5.76 9.85-11.37 14.67-17.14 4.03-4.82 8.85-8.39 14.99-10.51 2.4 6.98 2.39 14.03 2.34 21.12-.02 2.71.44 5.44.77 8.14.63 5.12 1.64 10.21 1.88 15.35.19 3.96.75 7.55 2.36 11.29 1.32 3.06 1 6.82 1.39 10.28 1.29 11.65 4.58 22.63 9.45 33.36 6.32 13.92 14.18 26.87 22.65 39.5 2.99 4.46 6.14 8.67 11.4 11.12 2.27 1.06 3.32 4.5 5.24 6.56 3.52 3.78 3.81 7.81 2.03 12.48-.99 2.59-2.08 5.55 1.52 8.4-4.27 0-7.72-.02-11.16 0-37.11.21-74.22.42-111.32.64-5.94.04-11.87.07-17.8.25-1.92.06-2.73-.68-3.46-2.4-2.56-6.07-3.91-12.07-.63-18.35.46-.89.39-2.3.06-3.31-2.13-6.58-2.27-13.31-1.74-20.11.84-10.82.5-21.6-1.03-32.35-.2-1.43-.12-2.95.1-4.38.66-4.37 1.75-8.61.78-13.18-.69-3.16-.26-6.55 2.73-9.27zm30.02-117.51c1.2-1.52 1.99-2.79 3.03-3.8 2.49-2.42 5.16-4.67 7.64-7.1 1.43-1.41 2.68-3.01 3.93-4.59.95-1.19 1.61-2.63 2.69-3.66 1.8-1.72 4.08-2.98 5.68-4.84 1.69-1.97 3.51-3.23 6.05-3.61 15.49-2.34 28.05-10.79 40.67-19.28 2.76-1.86 6.45-2.29 9.64-3.55 3.78-1.5 7-.49 10 1.86 3.54 2.77 7.37 3.75 11.86 2.69 1.6-.38 3.6.08 5.19.71 5.98 2.39 11.72 5.54 18.54 4.56.66-.09 1.58.47 2.14.98 3.65 3.33 7.32 6.65 10.82 10.14 4.09 4.08 9.1 5.25 14.66 5.86 4.09.45 8.23 1.83 11.96 3.61 3.58 1.71 4.18 5.9 1.99 9.29-.79 1.23-1.83 2.33-2.9 3.35-1.47 1.4-.79 2.65.42 3.39 2.67 1.61 9.25-.17 10.83-2.98 1.42-2.53 3.34-4.21 5.98-5.39 3.37-1.5 5.61-8.2 4.04-11.53-.83-1.76-2.01-2.94-4.21-2.58-1.56.26-3.16.42-4.74.49-7.69.3-14.31-1.83-19.03-8.37-.53-.74-1.57-1.31-2.48-1.55-3.07-.79-6.92-.48-9.13-2.27-4.67-3.78-9.73-3.46-14.99-3.53-1.48-.02-3.25-.4-4.36-1.28-3.71-2.9-7.88-4.33-12.45-5.13-6.94-1.21-13.62-3.31-19.37-7.53-4.44-3.26-7.61-7.1-6.35-13.41.5-2.51-.46-5.46-1.26-8.06-1.66-5.38-5.02-7.37-11.17-6.91-.25 1.68-.74 3.44-.72 5.19.08 6 .37 11.99.52 17.99.02.58-.2 1.25-.52 1.73-2.39 3.52-4.26 7.28-9.49 7.92-2.93.36-5.6 2.8-8.39 4.3-2.33 1.26-4.56 3.31-7 3.6-4.7.56-7.46 3.12-9.71 6.8-1.58 2.59-3.78 4.26-6.9 4.49-10.47.75-18.06 6.46-24.48 14.2-.74.9-1.67 1.67-2.29 2.64-1.9 2.96-4.51 5.07-7.77 6.22-3.01 1.06-2.96 2.86-1.57 5.09.72 1.13 1.64 2.12 3 3.85zm151.5-.24c-.05-.09-.33-1.25-1.04-1.63-.53-.29-1.74.24-2.41.74-2.81 2.07-5.54 4.25-8.28 6.42-3.96 3.15-4.24 6.36-1.08 10.44.87 1.12 1.67 2.44 2.01 3.79.98 3.95-1.53 5.94-4.56 7.72-3.13 1.83-4.25 5.66-2.79 8.95.36.81 1.1 1.97 1.76 2.04 4.75.52 9.57.95 13.69-2.28 3.23-2.54 4.72-2.5 7.34.46 2.46 2.79 5.82 2.99 8.52.23 1.91-1.96 3.42-4.3 5.21-6.38.95-1.1 1.99-2.19 3.19-2.98 5.18-3.39 5.37-5.71.57-9.64-.9-.73-1.96-1.26-2.88-1.97-3.23-2.54-6.54-5-9.6-7.74-1.85-1.65-3.48-3.18-6.2-3.32-2.11-.12-3.83-1.25-3.45-4.85zm-89.66-12.5c-.7-2.48-2.17-2.6-4.21-2.04-6.42 1.76-11.6 5.49-16.42 9.89-5.41 4.94-5.1 14.63.14 19.76 5.99 5.87 13.61 7.8 21.18 7.81 11.06.02 22.13-1.53 33.17-2.71 2.75-.3 5.38-1.77 8.06-2.71-.09-.29-.17-.58-.26-.87-4.41.28-8.81.59-13.22.84-2.71.15-5.42.17-8.13.29-2.18.09-4.39.09-6.55.38-9.8 1.3-18.86 1.19-25.42-8.28-2.25-3.25-2.96-6-1.41-9.22 1.11-2.32 2.72-4.54 4.57-6.33 2.57-2.49 5.59-4.51 8.5-6.81zm38.07-9.63c4.48 3.87 9.65 4.35 14.83 4.94 3.8.43 8.2.87 10.04 4.42 1.67 3.22 2.13 7.29 2.27 11.02.19 5.15-2.78 8.92-6.83 11.91-.71.52-1 1.61-1.48 2.44.95.23 2.07.91 2.81.62 2.1-.85 4.32-1.78 5.99-3.25 2.12-1.87 3.69-4.36 5.61-6.47 4.09-4.49 4.58-10.11 4.89-15.71.16-2.95-1.51-4.59-4.63-4.93-2.16-.24-4.33-.85-6.35-1.68-3.62-1.48-7-3.65-10.71-4.79-5.43-1.68-11.08-2.93-16.44 1.48zm4.48-64.46c.23.3.46.59.69.89.93-.52 2.22-.81 2.73-1.6 1.86-2.84 4.66-3.77 7.71-4.41 1.44-.3 3-.5 4.23-1.22.92-.54 1.76-1.77 1.94-2.81.12-.7-.87-2.19-1.54-2.31-1.75-.3-3.81-.55-5.37.09-5.23 2.15-7.11 7.41-10.39 11.37zm-35.22 70.39c.25.35.51.69.76 1.04 6.44-.33 12.66-1.78 18.62-4.28.72-.3 1.03-1.57 1.54-2.4-.99-.29-2.02-.92-2.96-.8-3.12.39-6.23.97-9.3 1.63-1.94.41-3.95.85-5.69 1.74-1.19.61-1.99 2.02-2.97 3.07z" fill="#010102"/></svg>