<svg enable-background="new 0 0 400 400" viewBox="0 0 400 400" xmlns="http://www.w3.org/2000/svg"><g fill="#fcfbfa"><path d="m12.4 4.8-6.1 9h6v1.2h-8v-.5l6.1-8.9h-5.7v-1.2h7.6v.4z"/><path d="m14 15v-10.6h3c1.6 0 2.9.5 4 1.4s1.6 2.2 1.6 3.8-.5 3-1.6 3.9-2.4 1.5-4 1.5zm1.4-9.4v8.2h1.6c1.3 0 2.4-.4 3.1-1.1s1.1-1.8 1.1-3.1-.4-2.3-1.2-3-1.8-1-3.1-1z"/><path d="m26.1 4.4v10.6h-1.4v-10.6z"/><path d="m36.1 14.6c-.8.4-1.8.6-2.9.6-1.5 0-2.7-.5-3.6-1.4s-1.4-2.2-1.4-3.8c0-1.7.5-3.1 1.5-4.1s2.3-1.6 3.9-1.6c1 0 1.8.1 2.5.4v1.4c-.8-.4-1.6-.6-2.5-.6-1.2 0-2.1.4-2.9 1.2s-1.1 1.8-1.1 3.2c0 1.3.3 2.3 1 3s1.6 1.1 2.7 1.1c1 0 2-.2 2.7-.7v1.3z"/><path d="m37.6 14.3c0-.2.1-.5.3-.6s.4-.3.6-.3c.3 0 .5.1.6.3s.3.4.3.6-.1.4-.3.6-.4.3-.6.3c-.3 0-.5-.1-.6-.3s-.3-.4-.3-.6z"/><path d="m50.2 15h-1.6l-5.3-8.2c-.2-.2-.3-.5-.4-.7 0 .2.1.7.1 1.5v7.4h-1.4v-10.6h1.7l5.2 8.1c.2.4.4.6.4.7 0-.3-.1-.8-.1-1.5v-7.3h1.4z"/><path d="m58.6 15h-5.7v-10.6h5.5v1.2h-4.1v3.4h3.8v1.2h-3.8v3.6h4.3z"/><path d="m67.1 5.6h-3.1v9.4h-1.4v-9.4h-3v-1.2h7.5z"/></g><path d="m157.2 347.37c-2.56-3.02-2.32-5.95-1.74-8.93.59-3.01 1.16-6.02 1.85-9.01.17-.72.62-1.66 1.21-1.95 2.62-1.32 3.69-3.63 3.69-6.24 0-4.64-.34-9.29-.69-13.92-.08-1.1-.6-2.28-1.23-3.22-6.11-9.2-8.13-19.66-9.41-30.34-.16-1.36-.39-2.89.06-4.11 3.22-8.68 1.05-17.66 1.69-26.47.3-4.2 1.07-8.38 1.09-12.58.01-1.75-1.36-3.51-2.14-5.25-1.59-3.52-4.2-4.28-7.93-3.55-5.4 1.06-10.89 1.85-16.37 2.18-3.06.19-6.35-.32-9.25-1.33-2.71-.95-2.59-2.53-.71-4.71 5.45-6.31 5.88-13.53 3.61-21.18-.27-.9-.63-1.78-.97-2.71 2.28-2.76 8.3-.98 7.99-6.7-.15-2.72-.54-5.29-3.25-6.75-3.42 2.08-4.43 1.61-5.84-2.17-1.17-3.14-1.35-5.82-.03-9.23 2.63-6.82 1.81-14-.49-20.86-1.17-3.5-4.66-4.45-7.7-4.67-5.46-.4-11.05-.59-16.44.16-7.03.99-13.89-.12-20.82-.39-3.23-.12-5.49-1.93-6.58-6.1 7.27-.23 14.21-.79 21.14-.59 7.08.21 13.94-.21 20.59-2.84 1.75-.69 3.65-1.03 5.5-1.42 3.34-.7 4.75-2.29 4.77-5.66.03-7-.08-14 .06-21 .05-2.23-.85-3.22-2.81-3.89-5.6-1.93-11.03-.87-16.57.4-3.43.79-7.05 1.17-10.56 1.03-2.75-.11-4.63-2.21-5.83-5.15 7.73-3.8 15.3-7.52 22.88-11.23.27-.13.64-.22.93-.17 5.83 1.01 10.48-2.04 15.13-4.66 4.01-2.26 8.22-3.14 12.69-3.45 4.86-.33 9.77-1.45 14.55-1.05 4.53.38 9 2.09 13.36 3.6 2.67.93 5.1 2.55 7.59 3.94 1.92 1.07 3.28 2.69 2.32 4.93-.88 2.04-2.76 2.95-5.01 2.26-3.09-.95-5.92-.21-8.97.55-6.67 1.65-13.47 2.75-20.23 4-5.9 1.09-8.46 3.61-7.8 9.49.64 5.64 2.32 11.16 3.67 16.7.16.68.97 1.53 1.64 1.7 3.52.92 7.11 2.37 10.64 2.29 6.43-.15 12.85-1.21 19.26-1.96 5.08-.59 6.79 1.56 4.77 6.29-.3.7-1.29 1.29-2.08 1.55-3.93 1.27-7.85 2.62-11.87 3.52-2.09.46-4.43.36-6.55-.04-4.76-.92-7.98.25-9.98 4.7-2 4.46-3.23 9.17-2.8 14.18.21 2.45 1.14 3.91 3.83 4.05 9.81.5 17.55 6.18 25.27 11.13 5.79 3.72 6.87 10.81 6.45 17.46-.45 7.18-1.56 14.32-2.42 21.47-.49 4.1-1.36 8.18-1.51 12.29-.19 5.32-2.01 10.09-3.73 15-4.61 13.19-6.16 26.55-1.24 40.1.75 2.07 1.29 4.31 1.38 6.49.12 2.86 1.12 4.43 4.52 4.21 1.97-5.32 5.37-10.34 5.25-16.74-.11-5.66.48-11.12 2.58-16.73 1.77-4.73 2.7-10.45.8-15.85-.21-.6-.05-1.51.28-2.08 1.73-2.96.89-6.07 1.04-9.2.23-4.78 1.74-9.49 2.6-14.24.3-1.64.84-3.58.27-4.97-1.91-4.64-2.97-9.14-1.05-14.07.31-.79-.46-2.42-1.22-3.13-1.7-1.6-2.38-3.09-1.78-5.55 1.67-6.84 2.03-13.79 1.07-20.82-.21-1.52.68-3.16.95-4.77.42-2.46 1.25-4.99.98-7.39-.53-4.83-.17-9.21 2.86-13.26 2.09-2.79 3.99-5.78 5.55-8.89 1.65-3.3 4.21-5.1 7.57-6.2 1.8-.59 3.55-1.39 5.27-2.2 5.06-2.37 6.76-6.93 7.79-11.96.51-2.5 2.03-5.05-.82-7.15-.23-.17-.5-.62-.42-.81 1.57-3.82-.95-6.9-1.82-10.27-.15-.6-.36-1.48-.06-1.86 3.32-4.23.92-8.51.26-12.79-.16-1-.4-2.31.08-3.03 2.08-3.1 1.08-6.23.73-9.49-.78-7.26-1.23-14.55-1.81-21.84-.02-.21-.04-.44.03-.63.71-2.13 1.43-4.26 2.15-6.39 2.27.99 5.13 1.44 6.66 3.11 2.05 2.24 3.51 5.28 4.44 8.23 2.68 8.46 3.24 17.16 2.78 26.06-.2 3.95 1.36 8.05 2.48 11.98.7 2.45 2.59 3.25 5.28 2.62 4.93-1.15 9.78-2.14 14.51-4.28 8.57-3.88 17.82-2.94 26.93-2.22.84.07 1.68.26 2.52.37 4.82.65 4.82.65 6.72 5.48-5.43 3.65-11.53 4.9-17.98 5.29-6.96.42-13.89 1.18-20.84 1.75-.7.06-1.55.08-2.1-.26-4.89-3.04-9.5-.56-14.01.91-1.25.41-2.41 2.5-2.76 4.01-.73 3.16-1.26 6.46-1.21 9.68.09 4.9 2.14 7.01 7.08 6.75 7.04-.38 14.02-1.79 21.06-2.05 3.05-.11 6.68.79 9.16 2.52 5.28 3.67 10.98 7.45 14.66 12.53 4.26 5.88 8.39 12.37 8.22 20.48-.27 12.51-.08 25.03-.06 37.54 0 1.15-.1 2.44.35 3.44 3.27 7.17 3.55 14.5 1.65 22.05-1.54 6.11.67 11.97 1.52 17.88 1.07 7.44 2.43 14.79 1.7 22.4-.27 2.85.35 5.94 1.21 8.72 2.86 9.18 5.68 18.4 9.21 27.33 1.69 4.27 4.6 8.04 4.43 12.96-.02.59.24 1.3.59 1.78 6.53 8.83 8.86 19.39 12.19 29.54.23.69.44 1.43.86 2 6.14 8.17 8.55 17.92 11.55 27.4.45 1.44.22 3.09.32 4.73-3.67.79-6.41.55-8.53-2.72-1.81-2.8-4.65-4.97-4.74-8.74-.01-.6-.61-1.44-1.17-1.75-4.59-2.52-6.35-7.19-8.93-11.28-1.39-2.2-3-4.36-4.88-6.14-6.21-5.91-9.21-13.58-12.23-21.29-2.12-5.41-4.53-10.7-6.66-16.11-.5-1.27-.39-2.78-.55-4.18-.12-1.12-.19-2.24-.36-3.35-.06-.4-.3-.79-.5-1.16-4.39-8.48-7.36-17.3-6.78-27.04.08-1.35.11-2.99-.55-4.05-3.33-5.34-2.57-11.21-2.6-17-.03-4.17-.84-5.39-4.85-6.72-13.72-4.55-22.32-14.9-29.55-26.57-1.63-2.64-1.86-6.21-2.42-9.41-.17-.99.46-2.93 1.1-3.11 1.66-.48 3.56-1.21 5.13.89 3.55 4.76 7.34 9.33 11.03 13.98.53.66.94 1.48 1.59 1.98 3.94 3.01 8.5 5.04 12.07 8.72 1.65 1.7 4.33.4 4.59-2.28.34-3.54.19-7.14.01-10.7-.11-2.21-.96-4.41-.91-6.6.09-4-2.32-6.33-5.55-6.59-8.84-.72-14.9-6.14-21.07-11.44-2.46-2.11-4.68-2.06-7.2-.52-.36.22-.74.42-1.06.69-3.94 3.36-7.98 3.85-12.32.66-3.75-2.75-7.9-1.77-11.94-.88-3.72.82-7.41 1.78-11.05 2.89-.93.28-2.13 1.28-2.31 2.14-.83 4.01-1.57 8.06-1.9 12.13-.33 4.1.16 8.28-.28 12.36-.32 2.96-2.23 5.79-2.32 8.71-.29 9.3.02 18.61-.07 27.92-.03 3.35.09 6.91-.96 10.01-3.96 11.78-4.52 23.87-4.25 36.1.02.85.31 1.87-.05 2.52-3.65 6.65-2.55 14.21-4.15 21.24-1.34 5.89-5.49 9.93-9.33 14.16-3.27 3.61-6.57 7.2-9.99 10.67-1.14 1.3-2.76 2.13-4.34 3.25zm41.42-195.37c.77-3.36 3.75-3.65 6.08-4.56 3.27-1.28 6.24-3.47 10.2-2.76 7.99 1.44 15.91 1.31 23.86-.91 2.77-.77 6.04-.11 9 .37 1.06.17 2.83 2.28 2.65 2.59-.78 1.4-2 3.27-3.34 3.52-5.61 1.04-11.3 1.65-16.98 2.25-5.46.57-11.09.46-15.77 3.96-.94.7-1.9 1.79-2.2 2.88-2.14 7.8 2.79 15.54 10.7 17.1 2.75.54 4.68-.11 5.79-2.96 1.18-3.01 2.71-5.89 4.29-9.26 2.47 1.32 4.89 2.09 6.64 3.63 5 4.4 9.96 8.9 14.5 13.76 3.42 3.66 9.31 1.8 10.48-1.93 1.44-4.59 2.62-9.55 2.44-14.29-.42-10.9-3.91-21.15-8.57-31-1.5-3.17-3.82-4.01-6.95-3.23-1.42.35-2.81.9-4.13 1.54-2.39 1.16-3.35.57-3.71-2.01-.17-1.22-.87-3.22-1.6-3.36-6.09-1.11-12.24-2.52-18.38-2.52-4.64 0-9.23 2.33-13.93 2.91-7.19.88-12.72 4.14-16.77 10-.96 1.4-2.1 3.14-2.05 4.68.14 4.08.51 8.23 1.5 12.17 1.41 5.58 2.63 11.04 1.9 16.9-.22 1.78 1.19 3.77 1.86 5.66 1.86-.72 3.99-1.09 5.48-2.27 1.14-.9 1.76-2.77 2.08-4.31.54-2.69.46-5.5 1-8.19.88-4.38.43-7.9-4.56-9.36-.55-.16-1.01-.66-1.51-1zm-65.47 59.93c4.62 0 7.99.06 11.35-.04.76-.02 1.62-.47 2.23-.97 2.46-2.01 4.85-4.1 7.24-6.19 2.9-2.54 3.53-9.03 1.56-12.32-2.53-4.24-5.33-8.46-6.91-13.07-1.26-3.68-3.13-6.34-6.16-8.45-2.17-1.51-4.47-.92-5.55 1.51-.34.77-.65 1.6-.72 2.42-1.02 12.1-1.99 24.2-3.04 37.11z" fill="#010102"/><path d="m222.48 322.33c-.94-3.93-1.9-7.85-2.83-11.79-1.54-6.58-3.03-13.17-4.61-19.73-.34-1.4-.62-3.1-1.56-4.01-2.6-2.51-2.71-5.36-3.03-8.76-.44-4.58-2.12-9.23-4.15-13.42-2.15-4.44-5.36-8.37-8.06-12.54-4.99-7.69-4.49-9.76 4.25-11.89 7.43-1.81 14.76-4.24 22.64-4.24 4.78 0 9.54-1.66 14.35-2.19 4.92-.54 9.75.19 14.04 2.91 4.14 2.62 5.36 5.55 4.15 10.29-.49 1.92-1.2 3.93-2.36 5.5-5.12 6.98-6.91 15.27-7.32 23.36-.56 11.01-3.56 21.57-4.35 32.5-.36 4.9-1.99 9.74-3.31 14.53-.72 2.62-1.64 5.3-3.07 7.58-2.68 4.27-4.87 8.67-5.6 13.69-.27 1.87-1.35 2.76-3 2.39-.96-.22-2.21-1.18-2.47-2.07-2.16-7.15-5.39-14.1-4.55-21.88.27-.08.56-.15.84-.23zm11.89-79.17c-3.62.64-8.77 1.31-13.79 2.51-6.52 1.55-8.78 5.71-7.12 12.26.23.92.55 1.83.94 2.69 3.97 8.87 7.94 17.73 12.01 26.56.41.88 1.61 2.18 2.19 2.06 1.42-.29 2.92-1.07 3.94-2.09.71-.71.7-2.16.97-3.29.77-3.27 1.3-6.62 2.33-9.81 1.91-5.93 4.24-11.71 3.74-18.16-.14-1.82.41-3.81 1.05-5.57 1.7-4.69.16-7.14-6.26-7.16z" fill="#010102"/><path d="m68.03 345.12c.9-2.11 1.27-3.87 2.27-5.15 6.1-7.84 11.28-16.39 18.54-23.34 1.56-1.5 1.71-4.44 2.59-6.69 1.4-3.62 2.87-7.22 4.31-10.83.43-1.08 1.16-2.17 1.17-3.25.05-5.63 3.47-9.82 5.81-14.51.75-1.51 1.21-3.37 1.15-5.04-.22-5.89-.31-11.77-3.61-17.16-1.15-1.87-.85-4.75-.84-7.17.05-9.33-1.91-18.25-4.76-27.07-.65-2.01-.35-4.31-.57-6.46-.23-2.25-.51-4.5-.84-6.75-.33-2.26-.95-4.5-1.07-6.77-.29-5.26-.07-10.57-.62-15.8-.46-4.34.94-7.96 3.83-10.62s6.46-4.69 9.99-6.49c2.99-1.53 5.25.24 4.55 3.49-.66 3.07-1.52 6.28-3.14 8.91-2.32 3.75-3.58 7.61-3.77 11.94-.06 1.37-.35 2.73-.43 4.11-.42 6.85-.06 13.42 4.92 18.99 1.52 1.7 2.47 4.18 2.95 6.45.67 3.19 1.66 6.08 3.84 8.52 3.2 3.58 4.9 7.86 5.74 12.53.71 3.95 2.9 7.82.61 11.95-.21.38-.06 1.04.09 1.53 2.1 6.99.73 13.55-2.45 19.88-.14.28-.42.57-.42.85.28 10.06-7.79 17.48-8.65 27.19-.08.86-.73 1.77-1.35 2.45-7.9 8.57-15.74 17.19-23.8 25.61-4.13 4.28-8.99 7.61-16.04 8.7z" fill="#010102"/><path d="m196.74 224.43c9.08-8.71 12.45-20.21 16.02-31.59 4.82 1.61 7.2 4.98 7 10.07-.22 5.72-1.71 11.07-5.31 15.65-.5.64-1.11 1.39-1.82 1.63-4.96 1.73-9.97 3.33-14.96 4.98-.32-.24-.63-.49-.93-.74z" fill="#010102"/></svg>