<svg enable-background="new 0 0 400 400" viewBox="0 0 400 400" xmlns="http://www.w3.org/2000/svg"><g fill="#fcfbfa"><path d="m12.4 4.8-6.1 9h6v1.2h-8v-.5l6.1-8.9h-5.7v-1.2h7.6v.4z"/><path d="m14 15v-10.6h3c1.6 0 2.9.5 4 1.4s1.6 2.2 1.6 3.8-.5 3-1.6 3.9-2.4 1.5-4 1.5zm1.4-9.4v8.2h1.6c1.3 0 2.4-.4 3.1-1.1s1.1-1.8 1.1-3.1-.4-2.3-1.2-3-1.8-1-3.1-1z"/><path d="m26.1 4.4v10.6h-1.4v-10.6z"/><path d="m36.1 14.6c-.8.4-1.8.6-2.9.6-1.5 0-2.7-.5-3.6-1.4s-1.4-2.2-1.4-3.8c0-1.7.5-3.1 1.5-4.1s2.3-1.6 3.9-1.6c1 0 1.8.1 2.5.4v1.4c-.8-.4-1.6-.6-2.5-.6-1.2 0-2.1.4-2.9 1.2s-1.1 1.8-1.1 3.2c0 1.3.3 2.3 1 3s1.6 1.1 2.7 1.1c1 0 2-.2 2.7-.7v1.3z"/><path d="m37.6 14.3c0-.2.1-.5.3-.6s.4-.3.6-.3c.3 0 .5.1.6.3s.3.4.3.6-.1.4-.3.6-.4.3-.6.3c-.3 0-.5-.1-.6-.3s-.3-.4-.3-.6z"/><path d="m50.2 15h-1.6l-5.3-8.2c-.2-.2-.3-.5-.4-.7 0 .2.1.7.1 1.5v7.4h-1.4v-10.6h1.7l5.2 8.1c.2.4.4.6.4.7 0-.3-.1-.8-.1-1.5v-7.3h1.4z"/><path d="m58.6 15h-5.7v-10.6h5.5v1.2h-4.1v3.4h3.8v1.2h-3.8v3.6h4.3z"/><path d="m67.1 5.6h-3.1v9.4h-1.4v-9.4h-3v-1.2h7.5z"/></g><path d="m324.85 364.39c.9-5.46-5.45-8.47-4.18-14.07.16-.71-.22-1.71.15-2.18 2.72-3.48.4-6.48-.58-9.72-.99-3.29-1.59-6.72-2.14-10.12-1.21-7.39-2.7-14.76-3.31-22.2-.94-11.5-1.25-23.05-1.77-34.59-.05-1.02.41-2.05.51-3.08.18-1.82.44-3.66.35-5.48-.3-6.33-.92-12.65-1.07-18.98-.27-11.55-.2-23.11-.43-34.66-.23-11.3-5.11-20.84-11.9-29.5-1.24-1.58-3.23-2.79-5.12-3.6-3.13-1.35-5.27-.38-7.16 2.49-5.37 8.17-8.68 17.15-10.7 26.66-.15.72-.17 1.55-.53 2.15-5.15 8.58-4.51 19.04-9.07 27.84-.93 1.8-.97 4.09-1.3 6.17-.43 2.71-.3 5.69-3.18 6.27 0 4.15.28 7.87-.05 11.53-1.3 14.45-3 28.86-4.1 43.32-.38 5.01.61 10.12.81 15.19.08 1.94-.39 3.9-.48 5.85-.09 1.86-.38 3.82.08 5.57.83 3.18.95 6.05-1.7 8.72 3.12 2.56 2.96 5.66 1.83 9.02-.88 2.62-.69 5.03.17 7.9 1.05 3.51.25 7.56-.36 11.44-2.69-2.87-3.49-6.3-3.77-9.8-.55-6.86-.87-13.74-1.3-20.61-.05-.74.01-1.58-.31-2.19-3.3-6.1-2.39-12.81-2.72-19.3-.57-11.22-.85-22.46-1.08-33.69-.05-2.28.4-4.65 1.01-6.87 2.13-7.63 2.66-15.37 2.6-23.26-.03-4.04.97-8.11 1.75-12.12 1.33-6.84 2.37-13.78 4.41-20.41 2.86-9.29 6.45-18.36 9.93-27.44.53-1.37 2.15-2.32 3.16-3.35-2.69-.93-2.74-1.4-.74-3.99 4.23-5.5 7.16-11.48 6.28-18.74-.33-2.72-1.64-4.55-3.92-6.13-9.94-6.86-18.95-14.71-24.88-25.47-7.03-12.75-8.37-26.67-8.28-41.78 1.4.8 2.67 1.09 3.02 1.82 1.03 2.18 4.35 3.72 2.21 6.96-.18.27.28.97.45 1.47 3.21 9.64 6.4 19.29 9.63 28.92.3.88.71 1.81 1.31 2.5 4.55 5.16 9.08 10.35 13.79 15.36 1.41 1.5 3.23 2.8 5.11 3.63 4.43 1.94 6.91 1 8.99-3.34 4.42-9.27 6.82-18.96 7.24-29.35.69-17.38-3.33-33.42-11.41-48.69-3.66-6.91-6.73-14.13-10.11-21.29 5.66.74 12.27 7.54 11.64 10.79 1.64 1.53 3.18 2.52 4.11 3.92 6.24 9.29 12.7 18.48 16.29 29.25.46 1.38.88 2.84.92 4.28.26 8.58.46 17.17.55 25.75.01 1.23-.69 2.47-1.17 4.03 1.86 1.59.94 3.87.2 6.25-.31.99-.03 2.17-.03 3.26 0 1.66.52 3.58-.13 4.94-1.84 3.84-4.16 7.44-6.52 11.52-.16.94-.67 2.58-.61 4.19.05 1.11.66 2.41 1.43 3.25 4.66 5.07 9.4 10.08 14.19 15.03 6.59 6.8 9.42 15.55 10.71 24.36 1.32 8.96.54 18.23.62 27.36.06 6.36.08 12.73-.03 19.09-.04 2.05-.56 4.09-.75 5.44.3 2.35.71 4.11.7 5.87-.02 4-.25 8-.39 11.99-.05 1.37.25 2.87-.22 4.07-1.71 4.36-1.46 8.66-.16 13.02.12.41.43.93.29 1.21-2.12 4.16-.53 8.22-.13 12.45.74 7.87.47 15.83.66 23.75.07 2.74.25 5.47.38 8.21.47 9.82.95 19.63 1.41 29.45.04.77 0 1.54 0 2.31-.35.05-.73.11-1.1.18z" fill="#010102"/><path d="m191.56 281.04c-.7 1.16-1.4 2.32-2.3 3.83-5.35-2-11.06-3.48-16.08-6.21-4.27-2.32-6.58-6.93-7.46-11.77-1.97-10.91.27-21.51 3.07-31.98.8-2.99 2.24-5.82 3.52-8.67.46-1.02 1.28-1.87 1.96-2.79 2.74-3.75 5.83-7.3 8.15-11.29 2.67-4.6 2.01-9.27-1.14-13.69-10.22-14.34-11.73-30-6.78-46.57.18-.61.47-1.18.68-1.78 2.07-5.79 4.82-10.99 8.94-15.81 6.69-7.83 11.45-17 14.31-27.02.2-.7.39-1.48.82-2.04 3.85-4.96 4.87-10.95 6.12-16.84.26-1.22-.35-2.6-.36-3.91-.03-3.23-.52-6.59.2-9.65 2.78-11.86-.24-22.39-6.71-32.22-1.56-2.36-1.95-4.58-.14-7.98 1.73 2.55 3.16 4.65 4.81 7.08.3-1.15.54-2.06.9-3.39 5.91 6.05 9.6 12.88 11.7 20.67 2.73 10.11 2.21 20.37 1.61 30.64-.28 4.73-.72 9.23-3.08 13.69-2.02 3.82-2.53 8.47-3.43 12.81-.2.94.53 2.37 1.27 3.15 1 1.04 2.34 1.94 3.7 2.4 4.38 1.49 6.9 4.53 8.4 8.78.77 2.18 2.29 4.12 2.93 6.32.91 3.09 2.39 6.06 2.99 9.13.63 3.22.14 6.77-.38 10.09-1.37 8.68-2.91 17.34-4.67 25.95-.42 2.07-1.76 4.06-3.06 5.81-1.67 2.24-1.97 4.16-.89 6.92 3.62 9.26 6.9 18.65 10.15 28.05.47 1.37.03 3.04.09 4.56.05 1.31.2 2.62.35 3.92.27 2.46.7 4.91.81 7.38.07 1.57-.52 3.16-.47 4.73.36 10.25-6.63 17.52-10.61 25.97-1.43 3.03-4.2 5.49-6.61 7.96-.76.78-2.36.7-3.54 1.13-2.84 1.02-5.74 1.22-8.6 3.01-2.85 1.78-7.41 2.19-11.17-.37zm31.99-45.81c-.29-.06-.58-.12-.87-.18.27-10.6-1.99-20.83-4.76-30.95-1.27-4.64-5.24-5.67-9.32-3.24-8.98 5.35-15.9 12.42-19.95 22.15-.76 1.82-1.71 3.38-4.19 3.06-.42-.06-1.3.97-1.46 1.62-1.85 7.49-4.14 14.93-5.21 22.54-1.04 7.37-.88 14.94 6.32 20 .69.48 1.31 1.1 1.83 1.76 2.4 3.04 5.19 3.76 9.26 3.53 12.63-.73 19.55-8.33 24.63-18.65.25-.5.16-1.18.19-1.78.06-1.4-.11-2.83.16-4.19 1.05-5.24 2.24-10.45 3.37-15.67zm-43.61-66.05c1.22 2.02 2.57 3.59 3.19 5.4 2.93 8.48 5.66 17.03 8.5 25.69 6.56-1.54 11.36-4.83 14.46-10.68 2.47-4.66 5.36-9.1 8.01-13.67.57-.99 1.03-2.08 1.31-3.19 3.7-14.7 3.77-29.32-.85-43.88-.99-3.12-2.9-4.73-5.95-5.43-2.98-.69-5.16.84-6.49 2.98-4.96 7.96-10.93 15.35-13.8 24.54-2.06 6.64-4.09 13.38-8.38 18.24z" fill="#010102"/><path d="m79.78 109.47c2.02 9.57 1.93 18.97.2 28.5-.67 3.72-.31 7.81.46 11.55.77 3.72 3.73 5.59 6.47 4.37 7.08-3.14 14.53-2.31 21.87-2.68 6.35-.31 12.7-.51 19.06-.5 2.15 0 3.29-.87 4.28-2.53 3.79-6.35 3.97-13.19 3.19-20.3-.65-5.96-.82-11.98-1.07-17.98-.05-1.22.37-2.52.81-3.69.55-1.47.95-2.64-.54-3.95-.48-.42-.26-2.18.23-2.95.3-.47 2.13-.64 2.57-.21 1.3 1.27 2.8 2.75 3.23 4.41.96 3.67 1.53 7.48 1.82 11.26.12 1.54-.89 3.16-1.44 4.93 2.79 2.84 3.51 6.55 3.65 10.6.63 18.11 1.36 36.22 2.13 54.33.4 9.35-3.34 17.29-8.4 24.71-.86 1.26-3.01 2.19-4.62 2.27-3.99.21-7.48 1.28-10.41 4-1.95 1.81-4.22 2.56-6.89 2.65-3.59.12-7.42 1.53-10.71.68-6.02-1.55-12.85-.75-17.81-6-4-4.22-8.61-7.85-12.87-11.83-.68-.63-1.48-1.8-1.33-2.55 1.28-6.62-.62-12.87-2.42-18.99-1.33-4.53-1.35-8.94-1.12-13.48.05-.95.41-2.16-.02-2.81-2.56-3.81-1.06-7.78-.76-11.71.63-8.13.92-16.3 1.98-24.37.64-4.88 2.48-9.59 3.75-14.39.64-2.31 1.95-3.65 4.71-3.34zm33.26 44.68c-.83 1.19-1.47 3.09-2.37 3.22-4.77.69-9.7 1.68-14.39 1.08-2.87-.37-5.22-.47-7.75.7-1.44.66-3.07.97-4.39 1.8-.92.57-1.89 1.64-2.14 2.66-2.2 9.12-.03 17.8 2.76 26.46 2.27 7.03 6.59 11.52 13.91 13.2 2.86.66 5.55 2.05 8.3 3.13 6.83 2.67 12.51.33 16.54-5.8 5.5-8.35 7.14-18.01 10.14-27.22.78-2.4 1.23-4.93 1.54-7.44.9-7.33-2.89-10.77-10.14-9.35-.83.16-1.69.22-2.5.44-3.8.98-7.12.4-9.51-2.88z" fill="#010102"/></svg>