<svg enable-background="new 0 0 400 400" viewBox="0 0 400 400" xmlns="http://www.w3.org/2000/svg"><g fill="#fcfbfa"><path d="m12.4 4.8-6.1 9h6v1.2h-8v-.5l6.1-8.9h-5.7v-1.2h7.6v.4z"/><path d="m14 15v-10.6h3c1.6 0 2.9.5 4 1.4s1.6 2.2 1.6 3.8-.5 3-1.6 3.9-2.4 1.5-4 1.5zm1.4-9.4v8.2h1.6c1.3 0 2.4-.4 3.1-1.1s1.1-1.8 1.1-3.1-.4-2.3-1.2-3-1.8-1-3.1-1z"/><path d="m26.1 4.4v10.6h-1.4v-10.6z"/><path d="m36.1 14.6c-.8.4-1.8.6-2.9.6-1.5 0-2.7-.5-3.6-1.4s-1.4-2.2-1.4-3.8c0-1.7.5-3.1 1.5-4.1s2.3-1.6 3.9-1.6c1 0 1.8.1 2.5.4v1.4c-.8-.4-1.6-.6-2.5-.6-1.2 0-2.1.4-2.9 1.2s-1.1 1.8-1.1 3.2c0 1.3.3 2.3 1 3s1.6 1.1 2.7 1.1c1 0 2-.2 2.7-.7v1.3z"/><path d="m37.6 14.3c0-.2.1-.5.3-.6s.4-.3.6-.3c.3 0 .5.1.6.3s.3.4.3.6-.1.4-.3.6-.4.3-.6.3c-.3 0-.5-.1-.6-.3s-.3-.4-.3-.6z"/><path d="m50.2 15h-1.6l-5.3-8.2c-.2-.2-.3-.5-.4-.7 0 .2.1.7.1 1.5v7.4h-1.4v-10.6h1.7l5.2 8.1c.2.4.4.6.4.7 0-.3-.1-.8-.1-1.5v-7.3h1.4z"/><path d="m58.6 15h-5.7v-10.6h5.5v1.2h-4.1v3.4h3.8v1.2h-3.8v3.6h4.3z"/><path d="m67.1 5.6h-3.1v9.4h-1.4v-9.4h-3v-1.2h7.5z"/></g><path d="m224.37 131.66c4.28 5.09 7.88 9.46 11.58 13.73 1.45 1.67 3 3.33 4.79 4.59 5.15 3.63 7.65 3.35 12-1.07 4.53-4.6 8.99-9.27 13.51-13.88.57-.59 1.31-1.02 2.72-2.09-.37 2.32-.27 4.08-.95 5.45-1.78 3.6-3.88 7.03-5.88 10.51-1.9 3.3-3.81 6.59-5.77 9.86-3.4 5.66-2.83 11.3.07 16.89.5.97 1.43 1.8 2.31 2.5 10.62 8.34 15.1 19.99 18.04 32.84-3.34.02-5.77-.5-7.95-3.22-6.55-8.19-13.47-16.08-20.29-24.06-.95-1.11-2.13-2.01-3.44-3.23-8.43 8.09-16.74 16.06-25.05 24.03-.24-.12-.48-.23-.73-.35 2.06-4.69 1.69-9.98 5.61-14.34 3.9-4.33 7.19-9.41 9.86-14.61 2.45-4.79 1.12-9.56-1.75-14.35-3.78-6.31-6.71-13.16-9.7-19.91-2.8-6.33-7.08-10.95-13.77-13.67-5.14 6.17-8.05 12.91-6.31 21.25.84 4.01 1.52 8.16 1.41 12.22-.07 2.5-1.79 4.95-2.69 7.45-.26.73-.46 1.63-.29 2.36 2.49 10.82 2.76 21.81 2.73 32.85-.01 2.49.65 5.05 1.39 7.46 1.64 5.34 5.97 7.07 11.47 4.43.56 6.18 6.3 7.51 9.95 10.91 10.55 9.84 20.41 20.21 22.37 35.45.21 1.61-.67 3.35-1.11 5.33 2.57 1.71 4.35 3.99 3.45 8.57-.66 3.36.85 7.23 1.78 10.77.58 2.22 1.96 4.19.88 6.66-.25.56-.07 1.56.3 2.11 2.01 2.99.99 5.89.44 9.07-.78 4.55-.5 9.26-.89 13.89-.28 3.36-.74 6.73-1.49 10.01-.28 1.24-1.61 2.24-2.46 3.36-.45-.13-.9-.26-1.35-.38-2.02-12.94-3.91-25.9-6.11-38.8-1.89-11.05-3.63-22.16-6.44-32.98-1.33-5.15-4.78-9.83-7.67-14.47-2.4-3.85-5.41-7.32-8.13-10.98-2.59-3.49-6.35-6.98-10.21-5.73-3.74 1.21-4.23 6.29-4.49 10.46-.19 3.1-.99 6.17-1.46 9.26-.1.68-.13 1.5.14 2.1 1.91 4.21 1.87 8.61 1.53 13.08-.18 2.43.03 4.89-.18 7.31-.47 5.49.3 10.7 2.45 15.81.83 1.97 1.13 4.35 1.02 6.51-.57 11-1.36 21.98-2.07 32.97-.03.42-.25.99-.05 1.24 3.04 3.99.74 8.15.5 12.25-.46 7.94-.81 15.88-1.25 23.82-.06 1.14-.44 2.27-.66 3.4-.46.1-.93.2-1.39.29-1.62-3.55-3.72-6.97-4.75-10.68-2.19-7.88-3.03-15.83-1.78-24.16.7-4.71-1.07-9.8-1.73-14.72-.11-.84-.41-1.68-.37-2.51 1.07-23.19-4.55-46.15-2.47-69.39.24-2.68-.26-5.53-.95-8.16-.48-1.86-1.66-3.65-2.88-5.19-1.71-2.15-3.27-2.11-5.73-.15-9.08 7.25-12.06 17.91-16.43 27.82-.98 2.22-1.8 4.53-2.55 6.85-.95 2.97-1.64 5.79-1.1 9.19.51 3.23-.7 6.87-1.7 10.17-.97 3.22-2.7 6.21-3.95 9.35-.73 1.83-.68 4.01-1.04 5.7-.61 2.87-3.71 5.2-5.76 7.76-1.22-1.52-3.43-3-3.49-4.57-.65-16.65-.93-33.3 6.65-48.88 1.71-3.51 3.15-7.23 4.06-11.01 1.47-6.12 5.56-9.78 10.62-12.72 3.38-1.97 7.02-3.54 10.26-5.71 2.95-1.98 5.86-4.25 8.15-6.94 1.5-1.77 2.54-4.49 2.61-6.82.42-13.77.38-27.55.74-41.32.13-5.06 1.26-10.09 1.33-15.14.08-5.98-.23-12.01-.89-17.96-.55-4.98-4.08-8.03-8.74-8.92-4.61-.87-9.41-.72-14.11-1.12-1.93-.16-3.84-.54-5.75-.88-.4-.07-.75-.39-1.12-.58-13.75-7-11.78-4.87-17.3-20-.8-2.19-1.36-4.47-2.27-6.61-4.39-10.31-6.55-21.03-5.16-32.18.4-3.24 1.91-6.69 3.88-9.34 8.39-11.28 20.54-15.75 33.89-17.89 3.96-.63 7.97-1.39 11.74-2.71 5.68-1.99 11.38-2.56 17.15-1.1 9.52 2.42 19.12 4.68 28.42 7.81 14.34 4.81 20.68 16.08 22.36 30.37 1.4 11.9-.39 23.46-4.78 34.58-.49 1.23-1.64 2.53-2.82 3.08-3.27 1.54-5.9 3.59-7.58 6.85-2.31 4.47-7.29 5.62-10.82 8.57-1.78 1.45-3.21 3.31-4.16 4.33zm-3.11-51.08c4.87.23 9.73.48 14.6.67 3.94.15 5.65-1.41 5.87-5.35.41-7.61-1.93-14.2-7.53-19.48-6.46-6.1-14.25-9.38-22.94-10.71-5.8-.89-8.59 1.53-8.92 7.5-.21 3.7-.96 7.39-.88 11.08.09 4.49.66 8.99 1.37 13.42.14.86 1.83 2 2.89 2.09 5.17.43 10.36.55 15.54.78zm-18.16 26.91c-.28 4.77.34 9.34 3.54 13.15 1.92 2.28 5.03 2.8 7.63 1.49 2.15-1.07 4.53-1.68 6.66-2.79 3.24-1.69 6.57-3.34 9.44-5.56 2.48-1.92 4.19-4.79 6.54-6.9 4.47-4.01 5.27-9.45 6.29-14.85.43-2.28-.61-3.93-2.73-4.29-2.77-.47-5.63-.59-8.44-.53-4.21.09-8.51 1.16-12.6.57-6.72-.97-11.73 1.73-16.45 5.76-.61.52-1.05 1.65-.99 2.46.27 3.84.72 7.66 1.11 11.49zm-32.92-26.19c4.24-.64 9.89-1.36 15.47-2.43 1.18-.23 2.93-1.64 3.04-2.65.7-6.74 1.4-13.51 1.34-20.27-.06-5.76-6.27-10.48-11.87-9.03-8.77 2.27-17.22 5.43-22.99 13.13-3.36 4.48-5.18 9.38-4.52 15.09.32 2.78 1.53 4.48 4.45 4.74 4.52.4 9.05.85 15.08 1.42zm-4.61 9.81c-.05-.3-.09-.6-.14-.89-2.7.34-5.42.57-8.1 1.06-2.79.51-4 2.33-3.98 5.21.04 4.65 1.86 8.44 5.25 11.48 3.87 3.46 7.86 6.79 11.76 10.22 3.67 3.22 8.17 3.88 12.75 3.93 3 .04 5.26-1.4 5.67-4.79.43-3.57 1.34-7.14 1.34-10.7 0-4.29-.55-8.61-1.26-12.84-.23-1.35-1.59-3.38-2.69-3.56-3.7-.6-7.53-.77-11.29-.6-3.12.13-6.21.96-9.31 1.48z" fill="#010102"/><path d="m175.58 195.62c-7.44.78-12.56-2.91-16.87-8.18-1.27-1.55-2.18-3.39-3.43-4.96-3.21-4.04-8.2-3.99-11.46-.04-5.25 6.37-10.36 12.87-15.88 19-2.18 2.43-5.29 4.03-7.97 6-.43-.19-.86-.37-1.3-.56.18-2.14-.19-4.54.65-6.39 3.21-7 6.73-13.87 10.31-20.7 3.07-5.86 5.33-11.81 3.4-18.52-.45-1.57-1.3-3.08-2.18-4.47-3.78-5.99-7.69-11.9-11.45-17.9-.7-1.11-.99-2.48-1.54-3.94 2.88-.38 5.04-.4 7.3 1.57 4.67 4.06 9.7 7.72 14.65 11.45 3.22 2.43 8.63 1.26 11.28-1.72 3.36-3.77 7.09-7.24 10.82-10.66.8-.73 2.89-1.36 3.34-.93 1.33 1.26 2.93 3.07 2.94 4.67.01 1.77-1.61 3.55-2.54 5.31-.24.45-.82.88-.8 1.3.16 4.21-2.72 6.43-4.75 7.97-.56 2.71-.67 4.62-1.34 6.31-2.23 5.56-1.96 7.12 2.19 11.51 6.2 6.57 12.24 13.26 14.4 22.43.08.42.13.83.23 1.45z" fill="#010102"/></svg>