<svg enable-background="new 0 0 400 400" viewBox="0 0 400 400" xmlns="http://www.w3.org/2000/svg"><g fill="#fcfbfa"><path d="m12.4 4.8-6.1 9h6v1.2h-8v-.5l6.1-8.9h-5.7v-1.2h7.6v.4z"/><path d="m14 15v-10.6h3c1.6 0 2.9.5 4 1.4s1.6 2.2 1.6 3.8-.5 3-1.6 3.9-2.4 1.5-4 1.5zm1.4-9.4v8.2h1.6c1.3 0 2.4-.4 3.1-1.1s1.1-1.8 1.1-3.1-.4-2.3-1.2-3-1.8-1-3.1-1z"/><path d="m26.1 4.4v10.6h-1.4v-10.6z"/><path d="m36.1 14.6c-.8.4-1.8.6-2.9.6-1.5 0-2.7-.5-3.6-1.4s-1.4-2.2-1.4-3.8c0-1.7.5-3.1 1.5-4.1s2.3-1.6 3.9-1.6c1 0 1.8.1 2.5.4v1.4c-.8-.4-1.6-.6-2.5-.6-1.2 0-2.1.4-2.9 1.2s-1.1 1.8-1.1 3.2c0 1.3.3 2.3 1 3s1.6 1.1 2.7 1.1c1 0 2-.2 2.7-.7v1.3z"/><path d="m37.6 14.3c0-.2.1-.5.3-.6s.4-.3.6-.3c.3 0 .5.1.6.3s.3.4.3.6-.1.4-.3.6-.4.3-.6.3c-.3 0-.5-.1-.6-.3s-.3-.4-.3-.6z"/><path d="m50.2 15h-1.6l-5.3-8.2c-.2-.2-.3-.5-.4-.7 0 .2.1.7.1 1.5v7.4h-1.4v-10.6h1.7l5.2 8.1c.2.4.4.6.4.7 0-.3-.1-.8-.1-1.5v-7.3h1.4z"/><path d="m58.6 15h-5.7v-10.6h5.5v1.2h-4.1v3.4h3.8v1.2h-3.8v3.6h4.3z"/><path d="m67.1 5.6h-3.1v9.4h-1.4v-9.4h-3v-1.2h7.5z"/></g><path d="m170.57 213.16c2.37 11.1 5.66 21.6.29 32.3-.24.47-.54.94-.64 1.45-1.22 6.32-2.35 12.65-3.63 18.95-.3 1.48-.76 3.11-1.67 4.26-3.48 4.41-7.02 8.78-10.81 12.93-6.56 7.17-14.85 8.48-24.08 6.97-9.81-1.6-16.7-6.69-22.06-15.08-3.4-5.33-6.38-10.49-7.91-16.69-2.01-8.16-3.69-16.2-2.99-24.73.53-6.51.11-13.09.11-19.53 5.32-.89 5.69-.96 6.6 3.35.96 4.51 1.06 9.2 1.63 13.8.58 4.68 1.02 9.39 2.01 13.98.57 2.64 2.69 3.96 5.68 4.09 4.76.21 9.49.99 14.25 1.22 1.17.05 3.1-.85 3.46-1.79.99-2.59 2.33-5.65 1.78-8.13-2.76-12.38-2.17-24.87-2.1-37.36.01-2.22-.67-3.36-2.74-3.79-2.69-.56-5.37-1.14-8.07-1.67-3.55-.7-6.24-2.27-8.46-5.45-5.01-7.18-9.59-14.47-11.58-23.13-1.25-5.44-1.48-10.88-.4-16.36 2.38-1.28 3.65-.49 5.23 1.55 5.14 6.64 5.41 14.8 7.41 22.39 2.36 8.95 5.64 11.99 14.77 12.92 2.41.25 3.96-.58 4.02-2.8.11-4.4-.25-8.81-.37-13.22-.04-1.55 0-3.1.05-4.64.26-7.9.81-15.81.69-23.71-.06-3.72-1.88-7.19-5.13-9.47-7.97-5.6-11.3-13.7-13.38-22.89-1.89-8.36-2.7-16.69-2.44-25.2.12-3.93-.91-5.11-4.81-5.43-2.09-.17-4.22.16-6.34.2-1.26.02-2.68.25-3.76-.23-1.13-.51-2.15-1.63-2.75-2.74-.17-.31 1.15-1.88 2.05-2.23 3.26-1.3 5.45-3.25 4.97-7.31.27-.09.55-.17.82-.26.99.86 2.23 1.56 2.9 2.63 1.13 1.81 2.42 2.51 4.62 2.57 7.49.23 14.98 1.11 22.46 1.06 7.08-.04 14.16-.91 21.23-1.48 4.84-.39 10.43 2.51 12.09 6.41-.24.18-.47.49-.75.54-5.05.94-6 4.17-5.8 8.87.28 6.66.39 13.44-.59 20-1.13 7.49-3.36 14.87-9.33 20.33-1.49 1.36-3.05 2.64-4.48 4.06-2.89 2.88-4.42 6.12-4.16 10.49.77 12.8 1.14 25.63 1.67 38.45.16 4.05 1.49 6.02 4.68 6.93 2.68.76 7.87-.91 8.95-3.47 1.67-3.95 3.41-8.05 3.96-12.24.95-7.23.99-14.59 1.44-21.89.08-1.26.04-2.65.56-3.74.48-1.01 1.51-2 2.53-2.41.49-.19 1.85.84 2.24 1.61 1.15 2.23 2.46 4.53 2.92 6.95 1.73 9.08 1.13 18.23-3.22 26.34-3.8 7.08-8.45 13.96-17.49 15.78-3.72.75-5.28 3.9-5.39 9.07-.23 11.44-.43 22.88-.65 34.32-.02.95-.04 1.91-.07 2.86-.18 5.78-.01 6.36 5.7 7.11 4.57.6 9.26.41 13.89.28.83-.02 2.14-1.34 2.36-2.26 2.35-10.09 5.23-20.16 3.1-30.69-.78-3.68 2.08-3.66 4.93-5zm-51.48-116.21h.58c0 2.75-.4 5.57.08 8.23 1.06 5.89 2.08 11.87 4.03 17.49 2 5.75 11.89 8.25 17.03 4.81 1-.67 1.94-1.71 2.43-2.8 4.15-9.27 6.7-18.98 6.36-29.17-.11-3.36-1.54-6.71-2.6-9.99-.27-.84-1.33-1.76-2.21-2.01-7.63-2.14-15.22-1.82-22.71.75-2.23.77-3.37 2.12-3.06 4.76.31 2.62.07 5.29.07 7.93zm-5.73 162.55c.12 8.2 6.33 16.27 14.16 18.91 6.5 2.19 13.16 3.55 19.74.34 6.61-3.23 8.89-9.99 12-15.87 1.61-3.03-1.9-6.33-5.44-5.61-8.43 1.7-16.85 2.54-25.5 1.7-4.86-.47-9.84.31-14.96.53z" fill="#010102"/><path d="m293.71 180.64c-3.86-5.26-4.93-11.13-5.94-16.95-.76-4.37-.86-8.86-1.61-13.23-.36-2.07-1.05-4.56-2.49-5.86-3.63-3.28-8.36-1.97-9.37 2.77-1.46 6.87-2.16 13.92-3.02 20.91-.34 2.79.85 6.13-4.01 7.42-.55-4.3-1.2-8.4-1.56-12.52-.46-5.27-.52-10.58-1.11-15.84-.22-1.98-.95-4.34-2.3-5.67-8.23-8.14-10.13-18.5-10.89-29.33-.25-3.59-.48-7.19-.62-10.79-.39-9.5 2.91-18.45 4.17-27.71.33-2.46 1.84-3.61 4.32-4.31 3.22-.91 6.35-2.35 9.32-3.92 3.92-2.07 3.96-5.87 3.79-9.7-.15-3.47-1.66-5.87-5.08-6.69-3.89-.93-7.81-1.76-11.76-2.38-3.47-.55-6.89-.99-10.26-4.71 5.26-.82 9.71-1.72 14.2-2.18 5.79-.6 11.7-1.63 17.4-1.04 5.99.62 11.82 2.91 17.7 4.55.98.27 1.85.97 2.77 1.47-.27.44-.53.87-.8 1.31-3.19.42-6.38.87-9.58 1.25-4.06.48-5.81 1.67-6.4 5.74-.6 4.17-.59 8.44-.62 12.66 0 .77.95 1.8 1.73 2.29 3.04 1.92 6.12 3.82 9.31 5.46 6.59 3.39 9.46 9.24 10.49 16.07.9 5.96 1.2 12.01 1.76 18.03.02.21.14.51.05.62-4.12 4.99-.44 10.73-1.57 15.98-.5 2.33-1.19 4.77-2.45 6.75-3.11 4.92-4.88 10.25-4.61 15.94.38 8.22 1.35 16.41 2.22 24.6.39 3.47-.04 6.5-3.18 9.01zm-12.87-43.35c5.46.07 8.36-2.02 10.03-7.23.65-2.01 1.02-4.16 1.99-6 2.2-4.12-1.25-7.71-5.23-7.85-2.53-.09-5.07-.17-7.61-.12-4.83.1-9.47-1.72-14.55-.06-5.85 1.92-7.11 4.43-3.93 9.81 4.18 7.05 10.73 11.23 19.3 11.45zm-4.44-44.69c.01-.17.03-.33.04-.5 2.75 0 5.51.18 8.23-.04 5.59-.45 6.86-2.1 5.62-7.6-.44-1.97-1.36-4.25-2.82-5.47-2.7-2.25-5.85-4.04-9.02-5.61-3.44-1.71-6.85-1.65-9.81 1.44-1.07 1.12-2.57 1.84-3.87 2.75-3.73 2.6-5.08 6-3.64 10.33.41 1.23 1.87 2.7 3.08 2.96 4 .86 8.11 1.2 12.19 1.74zm16.78 19.18c.22-1.46.3-1.97.37-2.48 1.27-9.78-.98-12.38-10.73-11.48-5.46.5-10.8.63-15.99-1.18-2.89-1.01-5.48-.05-6.72 1.98-1.3 2.14-1.61 5.13-1.53 7.72.02.77 2.81 1.99 4.37 2.07 6.24.3 12.09 4.41 18.6 1.94.17-.07.42.04.63.07 3.56.43 7.13.88 11 1.36z" fill="#010102"/><path d="m170.91 43.56c5.82-1.22 11.17-3.12 17.09-1.57 3.87 1.01 8.19.19 12.31.36 4.63.19 9.26.64 13.89.82 2.93.11 5.87-.14 8.8-.07 2.16.05 4.44-.02 6.41.69.87.31 1.11 2.39 1.63 3.67-.96.39-1.9 1.03-2.88 1.13-3.26.32-6.56.3-9.81.69-3.44.42-6.24 2.42-6.97 5.7-.92 4.17-.98 8.54-1.2 12.84-.04.71.86 1.73 1.59 2.18 2.42 1.5 4.81 3.22 7.47 4.11 8.28 2.77 12.37 8.71 12.96 17 .49 6.94.19 13.94.26 20.92.04 3.46.25 6.93.13 10.38-.08 2.23-.26 4.59-1.04 6.65-2.34 6.13-5.96 11.29-11.59 15.05-1.31.88-2.26 3.54-2.05 5.21.52 4.14 1.5 8.28 2.84 12.24 1.78 5.27 2.67 10.39.14 16.34-.79-1.34-1.32-2.28-1.88-3.2-4.81-7.86-7.75-16.4-9.4-25.43-.27-1.47-.43-3.17-2.58-2.8-2.23.38-5.17-1.46-6.37 2.28-1.55 4.83-3.23 9.64-5.22 14.31-1.06 2.5-2.86 4.67-4.33 7-.4-.15-.8-.31-1.2-.46 0-2.58-.11-5.16.03-7.74.25-4.55.54-9.1 1.01-13.63.42-4.09-.37-7.9-2.74-11.15-6.7-9.18-9.01-19.37-7.84-30.56.33-3.15.25-6.37.01-9.53-.45-5.96.71-11.53 3.13-16.96 1.92-4.31 4.46-7.62 9.72-7.64 1.36-.01 2.75-.23 4.09-.52 3.46-.76 5.35-3.49 4.86-7-.19-1.36-.74-2.68-.83-4.04-.57-9.2-5.7-9.7-12.29-11.48-4.67-1.26-9.46-2.09-14.13-3.36-1.46-.42-2.69-1.61-4.02-2.43zm39.58 94.56c7.77.05 14.94-6.15 14.62-15.73-.11-3.24-2.9-5.81-5.32-5.51-5.83.73-11.69 1.27-17.52 1.96-2.93.34-5.86.76-8.76 1.29-2.01.37-2.8 1.58-2.04 3.65 2.83 7.77 8.52 14.32 19.02 14.34zm-5.12-25.86v.64c3.91 0 7.82-.02 11.74 0 5.54.04 9.81-6.68 7.36-11.73-.3-.61-1.26-.97-1.99-1.29-5.39-2.32-10.88-3.5-16.79-1.92-1.65.44-3.6-.36-5.36-.14-2.89.36-5.89.7-8.57 1.75-3.85 1.52-4.64 9.3-1.42 12.01.56.47 1.53.63 2.32.64 4.24.07 8.48.04 12.71.04zm1.17-19.05c2.51-.12 6.21-.21 9.9-.51 4.84-.39 5.18-.81 5.56-5.76.35-4.56-1.18-8.14-4.57-8.8-8.64-1.66-17.66-4.44-24.94 3.42-1.59 1.72-2.75 4.15-3.31 6.45-.55 2.27.63 3.96 3.49 4.08 4.22.19 8.44.67 13.87 1.12z" fill="#010102"/><path d="m248.4 178.68c15.85 3.49 30.92 8.21 42.01 20.8 5.56 6.32 10.05 13.41 9.91 22.12-.16 9.15-3.23 17.58-8.68 25.02-1.97 2.69-3.12 5.47-2.29 8.87 1.72 7.08 3.55 14.14 5.03 21.28.81 3.91 1.48 7.96 1.34 11.92-.31 9.1 1.1 17.91 2.92 26.76 1.17 5.69 1.6 11.52 2.36 17.29.1.73-.05 1.56.23 2.2 1.77 4.07 1.14 7.68-1.51 11.23-.66.88-.63 2.68-.25 3.83 1.05 3.21 2.5 6.29 3.71 9.45 1.22 3.21.52 4.73-2.98 6.39-2.1-5.18-4.34-10.25-3.54-16.06.09-.62.11-1.48.51-1.8 2.98-2.35 1.48-4.81-.05-6.88-3.98-5.38-4.67-11.64-5.68-17.94-1.06-6.66-2.71-13.22-4.12-19.83-.28-1.34-.95-2.7-.83-3.99.52-5.36-1.51-10.11-2.87-15.11-1.54-5.67-2.27-11.6-2.9-17.46-1.12-10.4-.98-13.65-13.77-13.29-9.98.28-19.37-7.7-21.36-17.57 1.66.85 2.98 1.28 4 2.1 5.05 4.1 10.25 7.93 16.78 9.31 4.21.89 7.05-1.73 6.13-5.99-.49-2.29-1.73-4.55-3.1-6.5-6.41-9.1-12.98-18.08-19.48-27.11-.59-.82-1.11-1.68-1.67-2.52.19-.26.38-.53.56-.79 1.76.93 3.68 1.66 5.26 2.84 2.79 2.09 5.23 4.68 8.08 6.68 7.25 5.09 13.23 11.21 17.19 19.22.51 1.03 1.25 1.97 2 2.86 3.06 3.67 6.29 3.27 8.15-1.05 1.98-4.61 2.14-9.37 1.48-14.33-1.05-7.78-3.68-14.75-9.21-20.46-.73-.75-1.59-1.4-2.46-1.97-6.21-4.06-12.38-8.18-18.69-12.07-2.21-1.37-4.73-2.3-7.21-3.16-2.28-.77-4.29-1.6-5-4.29z" fill="#010102"/><path d="m235.34 209.06c-1.56 1.9-2.75 3.49-4.1 4.95-1.29 1.39-2.92 2.49-4.11 3.96-6.69 8.25-11.18 17.64-14.29 27.76-.8 2.61.03 4 2.52 4.1 3.12.13 6.28.06 9.37-.35 2.38-.32 4.64-1.54 7.02-1.9 1.62-.24 3.35.3 5.04 1.02-9.55 2.92-18.27 8.18-28.42 8.54-2.07.07-3.44.71-3.89 2.82-.04.2-.13.41-.23.59-6.62 11.81-7.65 24.93-8.88 37.99-.1 1.05-.19 2.11-.35 3.16-.8 5.04-.41 9.95.28 15.05.83 6.18.09 12.6-.21 18.9-.19 3.97-.7 7.94-1.28 11.87-.3 2.03-1.05 4-1.6 6-.48-.06-.97-.11-1.45-.17-.74-4.63-1.91-9.23-2.14-13.88-.82-16.72-1.97-33.46-1.71-50.18.15-9.64 2.61-19.28 4.37-28.85.85-4.64.48-8.75-1.23-13.22-1.46-3.81-1.73-8.21-1.89-12.37-.23-6-.49-12.12.41-18.01.91-5.95 3.71-11.27 8.54-15.51 7.83-6.87 15.66-13.65 25.33-17.84 1.31-.57 2.86-1.02 4.23-.88 1.3.13 3.46 1 3.55 1.76.2 1.59-.18 3.86-1.25 4.89-3.7 3.57-7.58 6.83-13.06 7.91-2.99.59-6.02 2.56-8.33 4.67-3.09 2.83-5.49 6.42-8.21 9.66-5.26 6.26-6.18 13.55-4.59 21.21.29 1.41 2.09 3.08 3.53 3.5 1.28.38 3.44-.36 4.48-1.37 3.56-3.47 6.71-7.35 10.16-10.94 4.62-4.8 9.2-9.65 14.13-14.11 3-2.69 3.32-2.37 8.26-.73z" fill="#010102"/><path d="m125.5 45.75c-5.15-.84-9.72-1.49-14.23-2.41-.82-.17-2.09-1.61-1.96-2.18.22-.96 1.27-1.98 2.23-2.45.98-.48 2.32-.6 3.41-.39 2.98.57 5.53-.34 8.23-1.45 2.27-.93 4.83-1.38 7.29-1.54 3.47-.23 6.99-.15 10.46.1 2.06.15 4.22.6 6.07 1.47 1.01.47 1.77 2.06 2.01 3.27.09.47-1.49 1.69-2.44 1.87-7.13 1.35-14.29 2.54-21.07 3.71z" fill="#010102"/><path d="m274.37 285.47c5.7 4.44 7.14 10.44 8.49 17.44-1.38-.37-2.62-.31-3.16-.9-4.12-4.55-6.71-9.68-5.33-16.54z" fill="#010102"/></svg>