<svg enable-background="new 0 0 400 400" viewBox="0 0 400 400" xmlns="http://www.w3.org/2000/svg"><g fill="#010102"><path d="m137.68 82.62c-.28 1.03-.66 2.02-.81 3.04-1.22 7.88-4.31 14.83-9.08 21.32-2.17 2.96-2.78 7.23-3.54 11.02-.99 4.99-3.11 9.25-5.86 13.51-1.9 2.95-2.44 6.86-3.21 10.43-.48 2.25-1.31 3.49-3.69 3.93-3.1.57-6.14 1.54-9.16 2.32-1.46-3.21-.33-7.17 2.96-8.96 3.03-1.65 4.56-4.03 5.73-7.14.86-2.29 2.81-4.16 3.8-6.42.86-1.95 1.33-4.17 1.48-6.31.19-2.73.79-5.02 2.7-7.18 2.97-3.37 2.83-4.91.3-8.73-1.78-2.69-.57-6.5 2.48-7.78 3.99-1.67 4.9-6.38 1.83-9.5-2.81-2.85-1.83-6.9 1.79-8.34 1.28-.51 2.86-1.8 3.14-3 .48-2.09.08-4.16-2.09-5.84-5.68-4.4-11.52-8.74-16.43-13.93-2.89-3.06-4.22-7.64-5.99-11.66-.35-.81.19-2.6.91-3.11.61-.43 2.33.03 3.1.66 6.42 5.2 12.91 10.36 19.05 15.88 7.26 6.52 16.3 9.78 24.74 14.09 5.53 2.83 8.94 7.68 13.19 11.73.61.58.78 1.72.99 2.63 1.14 4.95 2.06 9.96 3.4 14.86.9 3.3.82 6.37-.27 9.57-1.95 5.69-3.85 11.41-5.56 17.18-.81 2.74-1.08 5.41 1.44 7.9 1.25 1.23 2.05 3.72 1.82 5.48-.97 7.65.47 14.98 2.02 22.35.29 1.38-.09 2.91-.12 3.49.46 3.5 1.01 6.24 1.12 8.99.1 2.42-.19 4.87-.55 7.27-.13.83-.83 1.89-1.55 2.22-.56.25-2.01-.27-2.28-.83-2.04-4.13-4.37-8.22-5.66-12.6-1.9-6.47-3.04-13.17-4.43-19.78-.16-.75-.19-1.88.24-2.34 1.88-1.98 1.48-4.23 1.26-6.57-.45-4.75-1.88-9.77-.84-14.19 1.13-4.83-.55-9.48 1.31-14.58 2.02-5.51.43-12.36.28-18.62-.02-.71-.98-1.35-1.29-2.11-.46-1.13-1.1-2.37-1.02-3.52.35-5.18.44-5.2-4.88-5.81-3.79-.44-7.58-.8-11.38-1.18-.4-.03-.82.1-1.39.16z"/><path d="m101.46 308.16c2.85-2.39 2.88-4.96 1.26-8.1-1.02-1.97-1.27-4.57-1.14-6.84.12-2.27 1.2-4.48 1.74-6.74.21-.88.47-2.03.1-2.74-1.71-3.28-.33-5.99.99-8.97 2.64-5.94 5.91-11.2 12.08-14.05.56-.26 1.32-.63 1.49-1.13 1.44-4.22 5.39-4.64 8.76-5.94 1.18-.46 2.4-.83 3.6-1.26 6.08-2.19 6.92-3.56 6.17-9.81-.29-2.42-.65-4.85-.66-7.28-.02-6.82-3.77-11.12-9.27-14.38-5.74-3.4-11.44-6.87-17.17-10.28-4.03-2.4-6.7-5.4-5.78-10.59.23-1.28-.61-2.76-1.03-4.13-.15-.49-.63-.91-.71-1.4-.84-5.3-1.81-10.58-2.33-15.91-.15-1.59 1.02-3.3 1.68-5.25 4.58 2.75 6.18 6.55 7.41 10.49 1.42 4.54 2.66 9.15 3.84 13.76 1.64 6.4 6.16 9.9 11.98 12.08 2.87 1.08 5.79 2.03 8.71 2.96 5.22 1.66 8.29 5.67 11.07 9.99 1.31 2.04 2.36 4.27 3.83 6.2 7.26 9.53 3.84 22.38-1.53 29.32-2.46 3.18-6.11 4.9-10.3 4.88-5.1-.02-9.41 1.11-12.58 5.77-2.28 3.35-5.62 5.97-8.23 9.13-.6.72-.18 2.34-.11 3.54.07 1.13.53 2.28.42 3.38-1.12 11.18-1.74 22.32-.88 33.6.44 5.73-.39 11.91-5.72 16.1-1.87 1.47-5.36 1.96-7.25.21-1.79-1.66-1.85-3.7-.5-5.98 2.83-4.75 2.79-14.67.06-20.63z"/><path d="m209.41 118.99c-1.25.8-1.97 1.25-2.57 1.64.16.4.17.52.23.55 5.56 2.78 2.28 10.07 6.81 13.46.62.46.65 1.96.65 2.98.01 7.61-.01 15.23-.1 22.84-.16 13.53 9 23.58 22.48 25.96 4.22.75 8.22 3.74 11.92 6.27 6.22 4.26 12.38 8.89 15.06 16.32 1.42 3.92 2.14 8.17 2.58 12.34.41 3.88.47 7.9-.08 11.75-1.08 7.41 1.47 14.04 2.98 21.06 1.9 8.87 9.16 14.59 11.48 22.97.22.79 1.55 1.31 2.4 1.89 5.42 3.71 9.17 8.7 11.36 14.86.23.65.2 1.4.33 2.46-4.56-1.21-8.5-2.32-12.12-5.42-10.28-8.8-17.67-19.61-23.87-31.43-1.5-2.86-2.37-5.61-.83-8.7.33-.65.35-1.45.66-2.12 2.35-5.05 2.05-9.92-.69-14.77-.7-1.23-1-2.81-1.05-4.24-.07-1.98.09-3.76-2.41-4.49-.5-.15-.92-1.58-.88-2.39.62-10.55-5.59-17.82-11.92-25.02-.41-.47-1.3-.75-1.96-.75-3.92.02-7.04-1.73-10.08-3.99-4.24-3.14-8.58-6.06-13.76-7.73-2.18-.7-4.44-2.89-5.5-4.99-2.79-5.53-4.95-11.38-7.31-17.13-.22-.55-.31-1.37-.06-1.85 2-3.78.75-7.4-.31-11.08-.24-.84-.38-1.97 0-2.67 1.52-2.82 1.1-5.47-.15-8.21-.96-2.11-1.99-4.24-2.54-6.48-.28-1.15-.01-3.05.77-3.73 3.24-2.8 3.02-5.63.9-8.88-.88-1.35-1.09-2.82.69-3.78 1.47-.8 2.87-1.29 4.18.42.58.73 1.52 1.18 2.71 2.08z"/><path d="m263.78 365.9c-12.03.35-17.1-7.67-21.24-16.56-3.21-6.89-6.1-13.95-8.84-21.04-.93-2.41-1.36-5.14-1.39-7.74-.07-4.96-.45-9.74-4.01-14.06.91-.56 1.64-1 1.67-1.02-1.44-4.28-2.69-8.04-3.96-11.79-1.9-5.59-3.44-11.37-5.97-16.67-.8-1.67-4.19-2.66-6.51-2.92-3.86-.44-7.81.01-11.73-.03-4-.04-7.01-1.54-9.65-4.93-2.94-3.77-6.83-6.82-10.47-10.01-3.66-3.21-4.5-7.26-4.45-11.86.02-1.75-.53-3.77-1.5-5.2-2.43-3.61-2.56-6.67-1.21-11.12 1.5-4.96.32-10.77.07-16.2-.06-1.38-1.05-2.72-1.95-4.93 2.32-.53 4.57-1.74 6.41-1.3 3.18.77 4.21 3.46 4.41 6.86.2 3.5 1.54 6.92 2.17 10.41.81 4.45 1.22 8.97 2.15 13.39.82 3.91 1.88 7.81 3.24 11.57 1.87 5.19 5.72 8.72 10.93 10.34 7.77 2.4 14.52 6.28 20.11 12.21.93.99 2.07 1.9 3.29 2.47 7.26 3.41 10.87 9.87 13.76 16.75.91 2.16.5 4.88.62 7.34.12 2.5.07 5.01.24 7.5.11 1.57.66 3.12.75 4.69.45 8.38 3.66 15.71 7.86 22.87 4.75 8.11 8.94 16.56 13.24 24.93.93 1.86 1.3 3.99 1.96 6.05z"/><path d="m277.72 189.06c-1.19-2.22-3.12-4.34-3.44-6.68-1.53-11.14-6.32-21.26-9.34-31.92-1.16-4.11-1.56-8.48-1.85-12.77-.37-5.39-.14-10.81-.43-16.21-.08-1.54-.77-3.25-1.69-4.5-2.06-2.81-4.54-5.32-6.68-8.09-2.31-3-4.76-5.64-8.87-5.91-.58-.04-1.52-.31-1.65-.7-1.5-4.24-5.74-4.2-8.9-5.82-.19-.1-.39-.17-.6-.22-7.78-1.91-13.62-6.28-17.58-13.33-.67-1.2-2.55-2.04-4.02-2.38-1.87-.42-2.55-1.1-2.73-3.07-.78-8.44-1.79-16.86-2.69-25.28-.09-.81-.32-2.02.11-2.41 2.58-2.39 2.53-5.45 2.52-8.54 0-.21.01-.43.08-.63.8-2.21 1.04-5.05 4.08-5.29 2.61-.21 3.19 2.05 4.47 5.55 2.26 6.18.91 12.3 1.17 18.44.09 1.97 1.3 3.98 2.29 5.81 1.62 3 1.98 5.98.63 9.13-1.14 2.66-.19 4.79 1.77 6.53 4.2 3.73 8.22 7.76 12.84 10.89 2.29 1.55 5.79 2.07 8.66 1.85 5.34-.4 9.45 1.01 12.87 5.17 6.26 7.61 10.45 16.02 11.99 25.86.68 4.33 2.67 8.44 3.79 12.73.79 3.02 1.14 6.16 1.68 9.24.04.21.02.43 0 .63-1.08 10.92 1.51 21.43 3.4 32.04.55 3.05-.08 6.31-.17 9.48-.58.14-1.15.27-1.71.4z"/></g><path d="m2.6 9.9.8-1c.9.7 1.9 1.4 2.9 2.3l-.9 1.1c-1.1-1-2-1.8-2.8-2.4zm.5 10.6c.9-2.1 1.6-4.3 2.3-6.7.4.2.8.4 1.3.6-.7 2.1-1.5 4.3-2.2 6.6zm.3-15.2.9-.9c1 .8 2 1.6 2.8 2.4l-1 1c-.9-.9-1.8-1.7-2.7-2.5zm12.6-1.2h1.2v1.4h2.7v1.1h-2.7v2.7h-1.2v-.6h-1.8v1.3h4.9v3.8h-1.2v-.5h-3.7c0 .4-.1.9-.1 1.2h5.1v1h-5.2c0 .5-.1.9-.2 1.2h6v1h-5.2c1.1 1.3 2.9 2 5.5 2.2-.4.4-.7.8-.9 1.3-2.9-.5-4.8-1.6-5.7-3.5h-.1c-.8 1.7-2.7 2.9-5.9 3.6-.2-.4-.6-.8-.9-1.1 2.8-.6 4.6-1.4 5.4-2.5h-4.8v-1h5.3c.1-.3.2-.7.2-1.2h-4.9v-1h5c0-.4 0-.8.1-1.2h-3.6v.5h-1.2v-3.8h4.9v-1.3h-1.8v.5h-1.2v-2.7h-2.7v-1h2.7v-1.4h1.2v1.4h4.8zm-6.7 8.3h3.6c0-.4 0-.9 0-1.4h-3.6zm1.9-4.6h4.8v-1.3h-4.7v1.3zm6.7 3.2h-3.7v1.4h3.7z" fill="#fcfbfa"/><path d="m8.7 22.1h1.3v2.2h2.8v-2.2h1.3v2.2h4.1v9.1h1.7v1.3h-17v-1.3h1.7v-9.1h4.1zm.3 13.1.7 1.2c-1.8.9-3.8 1.9-6 2.9-.2-.4-.5-.8-.8-1.3 2.3-1 4.4-1.9 6.1-2.8zm-3.1-6.4h2.8v-3.2h-2.8zm0 4.6h2.8v-3.3h-2.8zm4.1-4.6h2.8v-3.2h-2.8zm0 4.6h2.8v-3.3h-2.8zm3.6 1.9c2.1.9 4.1 1.8 6.1 2.7l-.7 1.4c-2.2-1.1-4.2-2-6.1-2.9zm3.2-9.7h-2.8v3.2h2.8zm-2.7 7.8h2.8v-3.3h-2.8z" fill="#fcfbfa"/></svg>