<svg enable-background="new 0 0 400 400" viewBox="0 0 400 400" xmlns="http://www.w3.org/2000/svg"><g fill="#010102"><path d="m100.59 175.69c4.55-.31 7.6-2.48 10.4-5.66 1.54-1.75 4.39-2.44 6.76-3.34 2.3-.88 2.85-2.3 2.07-4.48-.98-2.72-2.22-4.87-5.25-6.24-5.07-2.3-9.19-5.92-11.57-11.29-.58-1.31-2.43-2.03-3.62-3.11-.75-.68-1.97-1.57-1.92-2.29.46-7.27 1.1-14.52 1.8-21.77.08-.84.55-2.03 1.2-2.36 3.36-1.67 4.75-4.68 5.91-7.93.5-1.39 1.09-2.76 1.64-4.13 1.57-3.92 3.98-5.15 8.02-3.85 2.43.78 4.56 1.04 6.04-1.56-4.32-4.33-3.56-9.1 1.82-12.06 3.24-1.78 7.62-2.9 9.31-5.66 1.62-2.63.42-7 .46-10.6 0-.21-.03-.43 0-.64.8-5.46-.46-9.97-5.66-12.8-.62-.33-1.25-.95-1.51-1.59-2.1-5.18-6.44-7.82-11.11-10.24-3.56-1.84-5.85-4.71-6.01-9.46 13.24 5.04 25.88 10.11 33.26 22.89.51.89 1.04 1.92 1.1 2.91.35 6.67.65 13.34.78 20.01.02 1.09-.65 2.39-1.39 3.26-1.36 1.61-3.14 2.87-4.49 4.49-.69.83-.87 2.11-1.2 3.21-.48 1.58-.73 3.26-1.37 4.77-1.87 4.4-.89 7.4 2.97 10.3 4.64 3.49 9.44 6.91 13.48 11.03 5.02 5.13 6.83 11.53 4.62 18.73-.93 3.03-1.69 6.13-2.4 9.22-1.02 4.41-3.64 7.41-7.51 9.68-2.69 1.57-5.43 3.35-7.49 5.62-2.34 2.58-4.84 4.52-8.03 5.91-5.15 2.24-5.62 6.87-1.22 10.23 5.9 4.5 11.76 9.05 17.73 13.46 2.15 1.59 3.43 3.82 2.41 6.01-3.18 6.82-2.95 14.08-3.11 21.21-.16 6.94-3.67 12.47-6.62 18.14-4.16 7.97-9.05 15.57-13.84 23.19-2.52 4-4.25 8.2-5.35 12.79-.93 3.89-2.41 7.65-3.54 11.5-.34 1.18-.58 2.51-.4 3.7 1.03 6.92-.16 13.66-1 20.51-.62 5.04-.07 10.3.55 15.39 1.35 11.04 3.25 22.01 4.55 33.06.3 2.56-.49 5.47-1.53 7.91-1.29 3.02-4.46 2.87-6.05.01-.83-1.48-1.45-3.09-2.4-4.48-2.2-3.25-2.99-6.61-1.88-10.5.36-1.26.25-3.26-.53-4.11-2.12-2.3-2.05-4.79-2.03-7.61.02-3.2-.42-6.5-1.27-9.58-.7-2.51-1.01-4.75-.53-7.38.37-2.02-.68-4.25-.83-6.41-.13-1.9-.46-4.11.3-5.7 2.74-5.74 2.54-11.97 3.58-17.99.21-1.2.88-2.31 1.22-3.49.54-1.91 1.31-3.83 1.38-5.77.11-3.17-.39-6.35-.37-9.52.01-1.26.37-2.88 1.19-3.71 2.59-2.61 3.26-5.83 3.71-9.22.15-1.15.06-3.06.65-3.32 4.84-2.12 4.06-7.6 6.8-10.99 2.33-2.88 4.03-6.37 5.46-9.81.4-.97-.77-3.48-1.84-4-3.39-1.65-6.97-3.19-10.65-3.88-12.48-2.35-16.24-10.4-18.13-19.76-.56-2.78-.8-5.71-.59-8.53.16-2.08 1.05-4.21 2.03-6.1 2.6-5.05 2.79-10.26 1.04-16.22zm46.41-41.29c-.02-11.17-7.03-21.82-17.4-26.11-2.8-1.16-5.84-2.37-8.55.38-2.73 2.76-7.21 3.61-8.01 8.61-.37 2.31-3.03 4.22-4.5 6.42-.53.79-.77 1.84-.89 2.81-.23 1.82-.01 3.73-.47 5.47-.54 2.02-.47 3.49 1.09 5.12 4.1 4.28 8.1 8.66 11.92 13.19 1.83 2.17 4.04 3.39 6.61 2.81 2.67-.6 5.23-1.89 7.7-3.15 1.57-.8 2.74-2.41 4.33-3.12 4.99-2.24 8.18-6.88 8.17-12.43zm-10.97 66.54c.27-.07.55-.14.82-.21.36-9.21.13-9.64-7.8-14.31-.18-.11-.36-.23-.56-.31-2.11-.88-3.25-2.41-3.83-4.67-.24-.96-1.42-2.07-2.4-2.39-5.42-1.77-13.05 3.79-13.37 9.53-.28 4.96-.12 10.03-1.12 14.85-1.06 5.1-.59 8.44 3.6 11.53 3.32 2.45 6.69 4.85 10.16 7.07 5.48 3.52 8.8 2.98 13-1.86 1.39-1.6 2.8-3.19 4.01-4.93.44-.63.57-1.72.39-2.5-.88-3.95-1.92-7.87-2.9-11.8z"/><path d="m278.26 59.79c.71 2.12 1.15 3.96 1.92 5.65.95 2.07 2.4 3.93 3.2 6.05.75 2.02 1.57 4.34 1.25 6.36-.94 5.93-1.73 12.06-3.95 17.56-1.45 3.59-5.43 6.1-8.01 9.31-4.14 5.13-10.46 5.06-15.94 6.96-.91.32-2.22-.48-3.34-.8-3.51-.99-5.52-.43-6.39 3.08-1.28 5.18-1.81 10.56-2.43 15.88-.08.68 1.14 2.03 1.95 2.2 7.65 1.61 15.23 3.84 23.19 3.25.83-.06 1.71 0 2.52.19 2.57.62 3.78 2.7 3.61 4.95-.09 1.13-1.91 2.81-3.17 3.03-3.4.61-6.92.55-10.39.79-5.68.4-11.37.71-17.04 1.28-2.79.28-3.72 2.08-2.81 4.69.28.8.47 1.69.97 2.34 2.53 3.32 3.37 6.59.42 10.2-.38.46.18 2.1.75 2.85 1.76 2.32 2.79 4.28 1.15 7.43-.9 1.73-.5 4.94.57 6.73 2.76 4.61 2.7 9.11.93 13.83-.8 2.13-.49 3.54 1.99 3.8 2.14.22 2.59 1.46 2.88 3.41.99 6.69 2.27 13.33 3.34 20.01.17 1.06.08 2.29-.28 3.29-1.27 3.5-1.49 6.48.56 10.16 1.96 3.51 2.4 7.99 3.03 12.11.62 4.06.45 8.24 1.03 12.32.3 2.13 1.15 4.33 2.28 6.17 2.23 3.61 4.28 6.98 4.33 11.62.03 2.63 2.3 5.34 3.88 7.81 2.45 3.83 4.32 7.71 3.63 12.45-.13.86.06 2.12.62 2.66 4.33 4.19 5.61 9.89 7.52 15.22 1.75 4.88 4.11 9.24 7.82 12.87.65.64 1.55 1.57 1.5 2.3-.39 5.79 3.05 10.24 5.1 15.15 1.52 3.66 2.17 7.33.77 11.1-.42 1.14-1.42 2.06-2.48 3.54-3.68-5.71-8.57-9.77-9.56-16.24-.13-.85-.62-1.99-1.29-2.37-3.42-1.95-5.22-5.1-6.93-8.43-1.11-2.16-2.39-4.29-3.91-6.17-3.78-4.68-6.09-9.79-5.81-15.95.05-1.03-.67-2.18-1.25-3.14-1.91-3.17-4.18-6.15-5.78-9.46-.81-1.68-.37-3.93-.68-5.89-.15-.98-.55-2.01-1.13-2.8-1.91-2.57-2.49-5.35-2.61-8.57-.09-2.5-1.24-5.08-2.39-7.39-2.53-5.09-4.86-10.09-3.58-16.07.23-1.06-.64-2.67-1.48-3.59-2.86-3.13-3.55-6.65-3.2-10.79.73-8.67 1.05-17.37-1.41-25.87-.42-1.46-1.09-2.98-2.04-4.15-2.19-2.66-2.29-4.67-.75-7.65.59-1.14.61-3.29-.1-4.27-2.61-3.59-2.69-7.24-1.78-11.39.52-2.36-.05-4.97-.18-7.46-.04-.73-.39-1.47-.36-2.19.4-8.39-2.96-16.75 0-25.2.65-1.85.34-4.23-.12-6.23-.67-2.95-2.45-4.32-5.93-4.3-7.39.06-14.79-.63-22.19-.89-2.52-.09-5.05.08-7.57.28-2.37.19-4.76 1.12-6.74-1.25-.45-.54-1.76-.47-2.68-.49-3.82-.08-7.65.15-11.44-.19-2.29-.21-4.49-1.27-6.73-1.95.05-.4.1-.8.16-1.2 4.85-.55 9.69-1.16 14.55-1.64 4.85-.49 9.71-1.15 14.56-1.19 3.73-.03 7.46.83 11.2 1.19 1.05.1 2.19.04 3.2-.24 2.62-.73 5.18-1.65 7.78-2.44.7-.21 1.47-.19 2.2-.32 7.35-1.3 9.52-4.09 8.96-11.52-.37-4.88-1.17-9.56-3.53-14.03-1.44-2.73-1.67-6.08-2.52-9.13-.84-3-1.88-5.55-5.61-6.46-2.03-.49-3.54-2.88-5.43-4.2-1.43-.99-3.09-1.64-4.86-1.9-2.74-3.27-5.44-6.58-8.27-9.77-.57-.65-1.59-.98-2.46-1.28-9.31-3.2-18.65-6.31-27.94-9.56-2.74-.96-5.8-1.9-5.16-6.24 5.8 1.36 11.42 2.71 17.06 3.97 1.32.3 2.76.6 4.06.4 6.56-1.01 12.03 1.21 16.91 5.37 2.04 1.73 4.02 3.51 7.05 2.37.51-.19 1.58-.07 1.76.26 2.11 3.9 6.1 3.43 9.5 3.94 2.36.36 3.26 1.26 3.58 3.51.46 3.29 1.44 6.35 4.67 8.17 5.78 3.25 5.81 8.59 4.81 14.14-.82 4.6-.31 5.16 4.47 4.48 4.28-.61 8.09-1.98 11.31-5.14 3.7-3.63 7.93-6.73 11.63-10.36 1.88-1.85 3.29-4.26 4.57-6.6 2.6-4.79 2.75-9.87 1.33-15.09-1.04-3.73.55-6.52 3.6-9.23z"/><path d="m165.1 235.06c3.67-.34 7.37-.48 10.99-1.08 2.35-.39 4.75-1.14 6.83-2.27 3.21-1.75 4.93-4.62 4.33-8.45-.53-3.38-.29-6.29 3.42-7.9.57-.25 1.02-1.78.84-2.56-1.26-5.37-2.23-10.63-1.34-16.29.75-4.78-2.63-8.1-8.86-9.82-2.23-.61-4.66-.53-6.87-1.17s-4.27-1.8-6.23-3.23c7.88-1.41 15.4-4.35 23.42-1.44 5.49 1.99 10.49-1.14 15.63-2.58 1.41-.39 3.06-.58 4.45-.23 3.38.85 6.71 1.97 9.97 3.21.96.37 2.25 1.47 2.3 2.29.09 1.67-.54 3.28-2.83 3.46-6.73.5-13.45 1.34-20.18 1.58-2.45.09-3.89.7-4.42 2.96-.87 3.7-1.99 7.4-2.28 11.15-.52 6.65-.43 13.34-.73 20.01-.09 1.95.57 2.86 2.47 3.31 2.57.61 5.03 1.81 7.61 2.19 2.63.38 5.55.68 8-.08 3.71-1.14 6.86-.81 9.91 1.34 1.99 1.4 4.1 2.71 5.73 4.46.84.9 1.01 2.7.92 4.05-.03.43-1.86.93-2.91 1.06-3.26.4-6.53.65-9.81.94-.73.06-1.66.34-2.18.01-4.56-2.88-9.11-1.16-13.74-.28-11.04 2.09-21.95.33-32.8-1.64-.83-.15-1.49-1.27-2.23-1.94.2-.34.4-.7.59-1.06z"/></g><path d="m2.6 9.9.8-1c.9.7 1.9 1.4 2.9 2.3l-.9 1.1c-1.1-1-2-1.8-2.8-2.4zm.5 10.6c.9-2.1 1.6-4.3 2.3-6.7.4.2.8.4 1.3.6-.7 2.1-1.5 4.3-2.2 6.6zm.3-15.2.9-.9c1 .8 2 1.6 2.8 2.4l-1 1c-.9-.9-1.8-1.7-2.7-2.5zm12.6-1.2h1.2v1.4h2.7v1.1h-2.7v2.7h-1.2v-.6h-1.8v1.3h4.9v3.8h-1.2v-.5h-3.7c0 .4-.1.9-.1 1.2h5.1v1h-5.2c0 .5-.1.9-.2 1.2h6v1h-5.2c1.1 1.3 2.9 2 5.5 2.2-.4.4-.7.8-.9 1.3-2.9-.5-4.8-1.6-5.7-3.5h-.1c-.8 1.7-2.7 2.9-5.9 3.6-.2-.4-.6-.8-.9-1.1 2.8-.6 4.6-1.4 5.4-2.5h-4.8v-1h5.3c.1-.3.2-.7.2-1.2h-4.9v-1h5c0-.4 0-.8.1-1.2h-3.6v.5h-1.2v-3.8h4.9v-1.3h-1.8v.5h-1.2v-2.7h-2.7v-1h2.7v-1.4h1.2v1.4h4.8zm-6.7 8.3h3.6c0-.4 0-.9 0-1.4h-3.6zm1.9-4.6h4.8v-1.3h-4.7v1.3zm6.7 3.2h-3.7v1.4h3.7z" fill="#fcfbfa"/><path d="m8.7 22.1h1.3v2.2h2.8v-2.2h1.3v2.2h4.1v9.1h1.7v1.3h-17v-1.3h1.7v-9.1h4.1zm.3 13.1.7 1.2c-1.8.9-3.8 1.9-6 2.9-.2-.4-.5-.8-.8-1.3 2.3-1 4.4-1.9 6.1-2.8zm-3.1-6.4h2.8v-3.2h-2.8zm0 4.6h2.8v-3.3h-2.8zm4.1-4.6h2.8v-3.2h-2.8zm0 4.6h2.8v-3.3h-2.8zm3.6 1.9c2.1.9 4.1 1.8 6.1 2.7l-.7 1.4c-2.2-1.1-4.2-2-6.1-2.9zm3.2-9.7h-2.8v3.2h2.8zm-2.7 7.8h2.8v-3.3h-2.8z" fill="#fcfbfa"/></svg>