<svg enable-background="new 0 0 400 400" viewBox="0 0 400 400" xmlns="http://www.w3.org/2000/svg"><g fill="#010102"><path d="m277.57 155.02c3.28 1.11 6.56 2.22 9.96 3.38 0 4.17-.13 8.2.07 12.21.07 1.34.86 2.7 1.5 3.96 1.1 2.16 2.35 4.25 3.65 6.58-5.92 1.27-6.33 1.11-9.09-2.96-1.24-1.83-2.51-3.65-4.5-5.46 0 1.16-.08 2.33.02 3.48.18 2.32-.31 4.28-1.95 6.11-.65.73-.69 2.53-.26 3.51.37.82 1.89 1.7 2.79 1.6 2.01-.23 4.08-.8 5.89-1.7 2.9-1.44 5.11-1.28 7.2 1.09.9 1.01 1.77 2.05 3.2 3.72-2.98 0-5.25.01-7.51 0-2.42-.02-4.13.68-4.23 3.53-.08 2.14-1.68 2.79-3.5 2.9-2.72.17-4.26 1.54-5.33 4.07-1.85 4.38-4.1 8.6-6.1 12.92-1.23 2.65-3.18 3.98-6.08 3.34-2.01-.44-3.2.08-3.96 2.03-.22.56-1.23 1.2-1.84 1.17-2.72-.14-4.47 1.53-5.06 3.61-1.96 7-7.56 9.4-13.66 11.5-1.75-1.81-1.22-3.72-.14-5.72 3.12-5.76 6.07-11.61 9.37-17.26 1.07-1.83 2.81-3.45 4.58-4.67 7.36-5.05 11.6-12.49 15.77-20 3.29-5.9 2.81-12.22 1.88-18.59-.69-4.78-1.84-9.59 1.13-14.15.47-.72.27-2.1-.04-3.04-.98-3.01-.59-5.82.76-8.58 1.48-3.04 2.67-6.29 4.55-9.07 2.62-3.88 3.63-7.92 3.31-12.53-.11-1.55.28-3.6 1.27-4.66 4.23-4.61 4.83-10.1 4.69-15.93-.22-8.87-1.18-17.79 1.71-26.5.24-.71-.76-1.94-1.36-2.81-1.94-2.84-4.35-5.43-5.84-8.48-1.35-2.77.74-5.13 3.83-4.49 3.49.73 6.92 1.89 10.27 3.15 1.6.6 2.61.49 3.98-.57 1.68-1.3 3.74-2.12 5.78-3.22.94 2.74 1.3 4.54-.66 6.57-1.81 1.87-1.84 4.44.15 6.61 2.33 2.54 3.17 4.97.47 8.05-1.1 1.26-.95 3.58-1.49 5.37-.24.8-.73 2.07-1.21 2.12-.79.08-1.67-.64-2.49-1.06-1.58-.8-3.42-2.54-4.66-2.19-1.38.39-2.79 2.58-3.1 4.2-.27 1.41.58 3.46 1.61 4.62 1.81 2.02 4.14 3.58 6.43 5.48-.64 1.33-1.11 2.63-1.84 3.75-1.29 1.96-1.37 3.82-.39 5.95.43.93.72 2.6.21 3.19-2.84 3.28-2.31 6.21.74 9.16-7.07 3.86-11.01 9.86-13.12 17.08-.46 1.58.04 3.6.55 5.27 1.26 4.08 1.17 5.98-2.68 7.77-2.01.94-3.81 2.3-5.71 3.47.19.37.33.75.48 1.12z"/><path d="m91.24 142.13c-.64-8.25-1.32-16.37-1.84-24.5-.05-.82.69-1.9 1.38-2.53 3.54-3.24 3.83-4.49 2.25-8.87-1.95-5.4-2.06-10.59-.27-16.35 3.31-10.62 8.94-19.05 18.08-25.46 3.98-2.79 7.53-6.14 12.32-7.56.5-.15 1.16-.32 1.4-.7 2.62-4.16 7.25-4.85 11.28-6.53 4.35-1.82 4.64-2.39 4.76-7.02.06-2.43.84-4.83 1.36-7.59 1.37.48 2.05.65 2.69.94 9.13 4.21 18.27 8.39 27.35 12.71 1.2.57 2.36 1.75 2.98 2.94 2.03 3.94 3.79 8.01 5.65 12.01-3.36 3.23-6.63 6.38-10.01 9.62-2.57-2.83-2.97-6.71-3.94-10.47-.62-2.43-1.9-4.87-3.48-6.82-1.53-1.9-3.66-2.91-6.32-.92-1.19.89-3.22.87-4.87.87-1.67 0-3.42-.26-5-.78-4.23-1.41-7.25-.31-9.46 3.63-.57 1.01-2.09 2.11-3.16 2.1-3.61-.02-5.6 1.79-6.85 4.89-.27.68-.73 1.28-1.11 1.93-4.2-3.69-7.35-2.98-9.69 2.39-1.54 3.53-3.8 5.69-7.75 6.13-.84.09-1.9 1.14-2.27 2-.79 1.83-1.18 3.83-1.74 5.77-.99 3.43-2.22 6.54-4.59 9.52-2.14 2.71-2.55 6.81-3.55 10.36-.14.49.62 1.67 1.18 1.84 1.46.45 3.04.65 4.58.7 3.3.09 4.66 2.14 3.19 5.04-.95 1.89-1.91 3.78-2.85 5.67-.09.19-.13.4-.27.86 3.4 2.19 6.84 4.46 10.35 6.61.63.39 1.61.41 2.39.31 2.52-.32 5.01-.94 7.53-1.11 1.37-.09 3.31.07 4.03.92.69.82.15 2.69.15 4.93 1.43.71 3.53 1.76 5.63 2.8.31-.19.62-.38.93-.58-.33-.8-.44-2.05-1.02-2.32-2.53-1.19-2.53-3.08-1.87-5.56 1.31-.11 2.66-.36 4-.3 7.92.34 14.99-3.42 22.58-4.67 1.8-.3 2.86.01 4.13 1.33 1.34 1.39 3.36 2.11 4.75 3.47 1.29 1.26 2.14 2.96 3.19 4.47-.27.44-.55.87-.82 1.31-2.88-.61-5.82-1.04-8.63-1.88-2.98-.89-5.87-1.43-8.38.79-.73.64-1.27 2.2-1.02 3.09.53 1.88.14 2.78-1.74 3.21-7.66 1.73-15.35 1.43-23.06.49-.21-.03-.54-.03-.6-.15-1.97-4.01-4.7-2.48-7.75-1.42-2.17.76-3.05-1.27-3.44-3.18-.7-3.4-2.7-4.08-5.41-1.9-.55.44-1.28.92-1.93.93-5.25.13-7.2 3.84-8.66 7.98-1.1 3.21-3.18 4.78-6.76 4.61z"/><path d="m113.29 234c-4.27 7.11-3.61 9.54 3.89 13.15-2.4 1.37-4.69 2.4-6.65 3.88-1.52 1.15-3.1 2.65-3.8 4.35-1.29 3.11-.54 4.4 2.73 5.26 2.37.62 3.41 1.95 3.95 4.25.91 3.9 2.13 7.73 3.29 11.85-1.18.34-2.14.68-3.12.9-4.19.94-5.2 2.04-5.59 6.37-.12 1.37-.14 2.76-.09 4.13.19 4.86.19 4.96 4.89 5.94 3.41.71 5.46 2.85 6.45 5.91.91 2.8 1.61 5.76 1.77 8.68.07 1.37-1.35 2.83-2.28 4.61 3.77.57 6.47 2.79 8.34 6.35 1.76 3.36 4.02 6.46 6.35 10.14-1.74.83-3.22 1.78-4.85 2.28-3.34 1.02-4.48 3.98-2.5 6.97.7 1.06 1.54 2.05 2.02 3.21 1.75 4.2.38 6.86-3.9 7.84-1.14.26-2.26.65-3.41.75-3.36.29-5.57 1.41-4.84 5.42.12.67-.57 1.88-1.21 2.24-4.68 2.61-9.45 5.07-14.86 7.12 1.62-3.84 3.03-7.8 4.94-11.5 1.75-3.37 4.17-6.39 6.06-9.7 1.47-2.57 2.57-5.34 4.04-8.44-.54 0-.24-.05.03.01 1.26.25 2.51.53 3.76.8.08-1.42.51-2.94.15-4.24-.48-1.73-1.73-3.23-2.37-4.94-.61-1.6-1.09-3.31-1.19-5-.09-1.43.54-2.9.69-4.36.27-2.7-.33-5.01-3.05-6.38-6.52-3.27-10.15-8.47-10.8-15.83-.21-2.4-1.29-4.71-1.6-7.11-.41-3.2-.47-6.44-.64-9.67-.22-4.07-.49-8.15-.59-12.23-.06-2.27-.07-4.59.32-6.8 1.04-5.82 2.31-11.59 3.53-17.38.19-.91.53-1.82.95-2.65 1.59-3.11 3.4-6.12 4.84-9.3 1.64-3.6 4.12-5.98 7.59-8.03 2.62-1.55 4.26-4.78 6.38-7.32 5.13 1.91 5.03 8.85-.62 18.87 4.75 3.07 9.89 3.9 15.41 3.01 8.46-1.35 16.92-2.72 25.41-3.9 2.42-.34 5.59-1 6.48 2.12.23.8-2.77 2.91-4.58 3.84-5.62 2.89-11.41 3.03-17.06-.01-1.45-.78-2.42-.73-3.6.46-1.93 1.94-4.03 3.72-5.58 5.14-3.16-1.52-5.89-2.98-8.74-4.14-3.64-1.48-5.63 1.05-7.62 3.98-2.18-4.6-2.4-10.42-9.12-10.9z"/><path d="m176.94 125.08c2.51-1.35 4.91-2.63 7.3-3.92 3.29-1.77 4.33-4.09 4.16-7.74-.21-4.41.01-8.83-.08-13.24-.02-1.01-.5-2-.99-3.79-2.46 5.29-4.41 9.59-6.47 13.84-.23.47-.99.69-2.31 1.55-.21-2.88-.49-5.18-.52-7.49-.04-2.75.32-5.51.16-8.25-.19-3.15-1.32-3.46-4.37-3.31-6.37.32-11.29 3.73-16.4 6.86-.84.52-2.31 1.3-2.76.97-3.16-2.35-6.26-.64-9.42-.3-1.52.16-3.33-.01-4.64-.72-5.04-2.75-10.08-3.44-15.55-1.35-6.77 2.6-11.4.87-15.55-5.79 2.84-.32 5.49-.66 8.16-.9 8.86-.81 17.7-2.01 26.58-2.23 5.87-.15 11.82.85 17.63 1.88 3.88.69 6.53.08 8.11-3.72.44-1.06 1.44-1.88 1.87-2.94 2.66-6.61 8.08-8.81 14.6-9.67 2.18-.29 2.66.71 3.4 2.27.84 1.75.36 2.79-1.16 3.66-.28.16-.55.32-.83.46-4.6 2.26-4.71 3.26-.51 6.97.94-.63 1.94-1.3 3.31-2.22 1.35 6.71 2.69 13.08 3.86 19.48.2 1.07-.23 2.31-.57 3.41-1.95 6.2-2.11 12.48-.86 18.81.4 2.03-.22 3.74-2.1 3.83-1.26.06-3.21-1.16-3.76-2.32-.97-2.03-2.05-2.69-4.17-2.31-2.12.36-4.39.83-6.12-1.78z"/><path d="m155.98 159.53c2.11 4.06 4.95 5.66 9.13 3.33 1.17 3 2.19 5.64 3.57 9.19-3.02.45-5.82 1.48-8.41 1.1-4.77-.69-8.76.48-12.76 3.34.96 1.05 2.16 1.9 2.69 3.05 1.02 2.21 1.75 4.58 2.42 6.93.14.49-.49 1.21-.77 1.82-.62-.42-1.44-.71-1.83-1.29-2.83-4.2-5.5-8.52-8.39-12.68-1.14-1.63-2.65-3.02-4.12-4.39-1.96-1.82-4.07-2.7-6.92-1.61-1.27.49-3.16.13-4.5-.45-2.99-1.3-5.23-.92-7.18 1.8-.78 1.09-1.93 1.98-3.08 2.71-2.62 1.66-5 1.29-6.91-1.1-4.42-5.54-8.87-11.07-13.07-16.77-1.44-1.96-2.19-4.44-3.25-6.68.2-.21.4-.42.6-.63 5.52 1.64 11.1 3.08 16.49 5.07 1.08.4 1.78 2.88 1.9 4.46.11 1.34-1.06 2.74-1.29 4.17-.13.82.35 2.45.77 2.52.94.17 2.11-.23 2.99-.74.54-.31.72-1.25 1.07-1.9 1.49-2.78 3.58-3.94 6.81-2.96 7.38 2.25 14.84 4.21 22.17 6.59 2.69.87 4.78.93 6.89-1.11 1.36-1.3 3.01-2.3 4.98-3.77z"/><path d="m143.16 202.2c1.81 0 3.48.52 4.34-.1 2.75-1.99 5.67-1.95 8.45-.9 4.22 1.59 8.3 3.59 12.37 5.55 4.15 2 8.22 4.15 12.33 6.24.19-.23.38-.45.57-.68.14 1.02.41 2.04.4 3.05-.06 3.54 1.71 6.31 3.24 9.36 2.06 4.09 3.1 8.68 4.77 13.61-2.48.27-4.43.67-6.35.59-.67-.03-1.67-1.17-1.85-1.96-.65-2.79-2-4.36-5.05-4.67-1.19-.12-2.6-1.3-3.32-2.39-2.27-3.43-4.26-7.04-6.47-10.78 1.07-.92 2.08-1.78 3.09-2.65.02-.31.04-.62.07-.92-2.37-.28-4.73-.72-7.1-.8-7.71-.27-14.27-2.81-18.92-9.24-3.82-5.29-5.45-11.21-4.37-17.66.22-1.34 1.5-3.25 2.58-3.46 1.02-.2 2.9 1.23 3.53 2.41 1.62 3.03 2.44 6.27.34 9.61-1 1.56-1.58 3.4-2.65 5.79z"/><path d="m190.14 275.69c-.57-.93-.64-1.17-.79-1.28-5.2-3.55-6.73-8.48-6.13-14.61.33-3.37-.44-6.83-.57-10.25-.03-.9.46-1.82.75-2.88 1.11 0 2.15-.07 3.18.01 5.42.45 6.78 1.89 5.2 7-1.9 6.12.54 11.7 1.2 17.51.19 1.68.44 3.36.64 5.04.37 3.11.11 5.18-3.74 6.61-6.14 2.28-9.21 7.86-10.79 14.05-.22.87.63 2.33 1.4 3.1 3.33 3.32 3.11 5.62-.94 7.86-1.1.61-2.22 1.2-3.41 1.84-1.37-1.26-2.67-2.47-4.13-3.82-1.01 1.08-2.01 2.03-2.86 3.11-1.22 1.56-2.56 2.12-4.65 1.81-1.54-.23-3.37.23-4.84.9-3.26 1.49-6.3 3.49-9.58 4.92-3.25 1.42-6.69 2.41-10.57 3.77-.3-3.13-.69-5.51-.68-7.9 0-.75.92-1.99 1.64-2.17 2.82-.74 5.73-1.61 8.6-1.6 4.76.02 9.22-.4 13.39-3.01 3.49-2.19 7.29-3.89 10.78-6.09 1.11-.7 2.24-2.29 2.32-3.54.38-5.84 2.99-10.13 7.67-13.58 2.63-1.96 4.72-4.62 6.91-6.8z"/><path d="m294.19 266.55c1.58 2.68 2.96 5.04 4.16 7.08-3.36 4.38-6.95 8.3-9.62 12.77-1.94 3.25-2.6 7.24-4.03 10.83-.36.9-1.4 1.57-2.23 2.22-2.19 1.71-4.53 3.26-6.64 5.06-2.56 2.18-4.72 4.89-7.46 6.78-4.67 3.23-8.87 6.74-11.9 11.66-2.04 3.31-4.68 4.2-7.85 2.93-.83-.33-1.94-2.06-1.7-2.64.78-1.88 1.75-4.03 3.31-5.19 11.59-8.59 20.76-19.35 28.41-31.41 4.5-7.09 9.19-13.93 15.55-20.09z"/><path d="m303.27 245.94c-1.88-9.06-1.17-16.8 2.83-24.46-.98-.29-2.02-.75-3.11-.9-6.66-.97-7.5-2.67-3.77-8.44-1.89-1.26-3.86-2.46-5.68-3.84-1.15-.87-2.41-1.87-3.01-3.11-.91-1.85-.96-3.8 1.96-4.03.1-.01.2-.07.3-.09 6.81-1.69 6.81-1.69 7.7-9.02.95 1.25 1.72 2.01 2.18 2.93.66 1.31 1.32 2.7 1.57 4.13 1.16 6.56 3.91 12.15 9.07 16.53.76.64 1.09 2.28.97 3.38-.55 5.04-1.32 10.06-2.05 15.09-.1.72-.21 1.58-.64 2.1-2.52 3.06-5.16 6.05-8.32 9.73z"/><path d="m165.86 352.52c3.17-2.22 6.18-4.32 9.17-6.41-2.07-5-5.61-6.24-9.94-4.42-5.55-7.83-1.41-13.2 4.71-18.77 2.06 3.05 4.65 5.9 6.11 9.25 4.34 9.91 5.55 20.52 6.21 31.46-1.92.45-3.61.97-5.35 1.2-.68.09-1.72-.28-2.13-.8-2.95-3.73-5.78-7.55-8.78-11.51z"/><path d="m109.24 176.84c.46 1.55 1.42 3.14 1.28 4.64-.42 4.65-.37 9.51-4.89 12.79-1.23.89-1.63 3.01-2.27 4.62-.42 1.06-.32 2.39-.91 3.31-4.6 7.2-11.59 10.48-19.75 11.72-.55.08-1.18-.29-1.79-.46-.3-3.16.57-5.49 2.94-7.66 7.8-7.14 15.78-14.16 21.31-23.39 1.08-1.81 2.12-3.64 3.18-5.46.31-.04.6-.07.9-.11z"/><path d="m198.33 193.65c-.34.07-.55.1-.75.15-4.54 1.16-8.22.2-11.5-3.48-2.06-2.3-5.07-3.77-7.69-5.56-4.79-3.29-7.15-8.76-5.73-14.36.27-1.07 1.94-2.41 3.04-2.49 1.6-.11 4.29.35 4.76 1.37 3.62 7.85 10.9 12.27 16.56 18.16 1.87 1.95 2.74 3.63 1.31 6.21z"/><path d="m267.5 41.03c3.77-4.01 7.59-5.29 12.51-1.92 2.66 1.82 6 2.61 8.96 4.02 4.41 2.1 6.04 5.9 6.36 10.78-2.6 0-4.98 0-7.36 0-.08-.21-.24-.41-.22-.59.77-5.91.08-6.53-5.84-5.24-8.11 1.78-9.12 1.29-14.41-7.05z"/><path d="m141.35 266.2c8.5-2.77 16.71-4.28 25.02-1.07 2.04.79 3.7 2.55 6.09 4.26-3.64 1.21-6.29 3.42-9.09-.16-.64-.81-2.59-1.06-3.82-.87-3.63.57-7.33.58-10.09 4.11-2.58 3.31-5.4 2.37-6.7-1.64-.44-1.39-.85-2.79-1.41-4.63z"/><path d="m181.44 150.27c-4.72 2.27-8.56.2-12.58-1.72 1.48-4.13 2.91-8.14 4.46-12.47 6.26 3.46 5.87 9.41 8.12 14.19z"/><path d="m295.41 263.7c1.16-3.89-.35-8.12 3.99-10.59 2.67-1.52 5.21-1.25 6.41 1.66 1.01 2.44 1.31 5.18 2.01 8.17-4.42.27-8.15.5-12.41.76z"/><path d="m160.88 152.28c1.14 1.06 2.27 2.12 3.41 3.18-1.08.96-2.15 1.92-3.68 3.28-.28-2.55-.46-4.27-.65-6 .3-.15.61-.3.92-.46z"/><path d="m153.68 322.47c-1.82.38-3.63.76-6.63 1.39.89-1.64 1.34-3.24 1.83-3.25 1.63-.03 3.28.51 4.92.84-.04.34-.08.68-.12 1.02z"/></g><path d="m2.6 9.9.8-1c.9.7 1.9 1.4 2.9 2.3l-.9 1.1c-1.1-1-2-1.8-2.8-2.4zm.5 10.6c.9-2.1 1.6-4.3 2.3-6.7.4.2.8.4 1.3.6-.7 2.1-1.5 4.3-2.2 6.6zm.3-15.2.9-.9c1 .8 2 1.6 2.8 2.4l-1 1c-.9-.9-1.8-1.7-2.7-2.5zm12.6-1.2h1.2v1.4h2.7v1.1h-2.7v2.7h-1.2v-.6h-1.8v1.3h4.9v3.8h-1.2v-.5h-3.7c0 .4-.1.9-.1 1.2h5.1v1h-5.2c0 .5-.1.9-.2 1.2h6v1h-5.2c1.1 1.3 2.9 2 5.5 2.2-.4.4-.7.8-.9 1.3-2.9-.5-4.8-1.6-5.7-3.5h-.1c-.8 1.7-2.7 2.9-5.9 3.6-.2-.4-.6-.8-.9-1.1 2.8-.6 4.6-1.4 5.4-2.5h-4.8v-1h5.3c.1-.3.2-.7.2-1.2h-4.9v-1h5c0-.4 0-.8.1-1.2h-3.6v.5h-1.2v-3.8h4.9v-1.3h-1.8v.5h-1.2v-2.7h-2.7v-1h2.7v-1.4h1.2v1.4h4.8zm-6.7 8.3h3.6c0-.4 0-.9 0-1.4h-3.6zm1.9-4.6h4.8v-1.3h-4.7v1.3zm6.7 3.2h-3.7v1.4h3.7z" fill="#fcfbfa"/><path d="m8.7 22.1h1.3v2.2h2.8v-2.2h1.3v2.2h4.1v9.1h1.7v1.3h-17v-1.3h1.7v-9.1h4.1zm.3 13.1.7 1.2c-1.8.9-3.8 1.9-6 2.9-.2-.4-.5-.8-.8-1.3 2.3-1 4.4-1.9 6.1-2.8zm-3.1-6.4h2.8v-3.2h-2.8zm0 4.6h2.8v-3.3h-2.8zm4.1-4.6h2.8v-3.2h-2.8zm0 4.6h2.8v-3.3h-2.8zm3.6 1.9c2.1.9 4.1 1.8 6.1 2.7l-.7 1.4c-2.2-1.1-4.2-2-6.1-2.9zm3.2-9.7h-2.8v3.2h2.8zm-2.7 7.8h2.8v-3.3h-2.8z" fill="#fcfbfa"/></svg>