<svg enable-background="new 0 0 400 400" viewBox="0 0 400 400" xmlns="http://www.w3.org/2000/svg"><path d="m61.63 347.28c-3.34-4.07-3-6.39.87-9.12 20.96-14.77 39.7-31.8 53.94-53.36 1.98-3 3.73-6.16 5.49-9.3 1.79-3.19 1.99-6.54.07-9.69-2.85-4.67-5.66-9.42-8.99-13.75-5.22-6.79-5.84-14.43-4.69-22.36 1.31-9.01 3.04-17.96 4.72-26.91.3-1.6 1.05-3.21 1.95-4.59 3.18-4.89 6.43-9.72 9.82-14.47.79-1.11 2.17-1.83 3.35-2.61.87-.57 2.03-.77 2.79-1.43 8.05-6.98 17.62-7.63 27.57-6.75 5.48.48 10.96 1.01 16.44 1.45 4.62.36 9.08 1.19 12.57 4.54 1.25 1.2 2.54 2.6 3.19 4.16 4.09 9.83 8.01 19.73 12.08 29.85 3.79-1.04 8.26-1.79 11.74-5.17 2.81-2.73 5.87-5.2 8.85-7.75 5.54-4.74 5.5-10.87 4.17-17.23-.17-.81-1.31-1.61-2.18-2.04-8.25-4.06-17.22-5.03-26.2-5.81-1.35-.12-2.79.8-4.56 1.36-1.43-5.89-3.08-11.68-4.17-17.56-.55-2.97-2.1-4.52-4.72-4.6-3.53-.11-7.15.05-10.61.74-2.75.55-5.38 1.92-7.95 3.16-8.89 4.31-18.47 4.24-27.99 4.43-2.49.05-4.34.8-6.28 2.34-4.07 3.23-7.52 6.72-8.74 12.03-.2.87-1.69 1.93-2.67 2.04-5.42.59-9.94 2.92-14.46 5.9-7.52 4.97-15.54 9.26-24.65 10.51-3.93.54-8 0-12-.03-2.32-.02-3.43-1.29-3.8-3.95 3.32-1.83 6.65-4.12 10.31-5.62 12.99-5.37 23.19-14.7 33.82-23.41 3.55-2.91 5.32-6.48 3.21-11.18-.86-1.92-1.17-4.08-1.94-6.04-1.64-4.16-1.88-8.28-.94-12.71.45-2.12-.23-4.61-.86-6.81-1.29-4.51-2.89-8.92-4.35-13.38-.1-.29-.23-.66-.13-.91 2.28-6.08-.78-11.88-.87-17.83-.06-4.41-.3-8.89 3.52-12.2.39-.33.69-.83.89-1.31 3.3-8.23 9.7-13.09 17.81-15.69 2.91-.94 4.47-2.81 5.71-5.07 2.1-3.81 5.17-5.76 9.4-6.59 8.19-1.61 16.25-3.91 24.47-5.3 7.44-1.25 14.77.32 21.88 2.7.77.26 1.53.73 2.13 1.28 4.53 4.16 9.35 8.06 13.45 12.61 5.14 5.7 7.6 12.92 9.31 20.29 2.42 10.38 3.66 20.89 2.22 31.54-.26 1.9-1.23 3.71-1.86 5.57-.54 1.59-1.4 3.16-1.52 4.79-.39 5.15-3.33 9.06-5.94 13.17-2.1 3.31-1.08 9.35 2.27 11.42 4.13 2.56 7.02 5.79 8.48 10.54 2.19 7.15 13.18 9.36 19.82 5.17.53-.33.94-1.15 1.05-1.8.59-3.23 1.07-6.48 1.57-9.73.06-.41.2-.97 0-1.23-3.68-4.84-1.53-9.9-.76-14.97.48-3.19 1.71-4.3 5.1-4.21 3.57.1 6.69.52 8.87 3.67 2.29-3.2 1.57-8.16-1.39-11.22-1.7-1.75-3.34-3.6-5.27-5.07-5.72-4.36-8.04-10.48-9.19-17.21-.55-3.23-.74-6.53-1.25-9.77-1.77-11.14 4.58-18.38 12.14-24.88 2.28-1.96 4.57-3.52 5.31-6.7.25-1.06 1.52-2.16 2.6-2.71 4.96-2.55 10.02-4.9 15.05-7.33.57-.27 1.19-.9 1.68-.8 4.05.77 5.49-2.4 7.45-4.78.34-.41.6-1.09 1.01-1.19 5.99-1.51 9.64-7.53 16.35-7.98 4.37-.29 8.64-2.01 12.98-2.98 4.13-.92 6.79 1.29 6.05 5.13-.2 1.02-1.16 2.32-2.09 2.69-11.9 4.78-21.27 12.96-30.12 21.91-3.27 3.31-6.81 6.35-10.11 9.63-.99.98-1.87 2.27-2.3 3.58-1.19 3.61-2.09 7.33-3.18 10.98-.45 1.51-.96 3.05-1.7 4.43-2.97 5.55-1.82 9.9 3.25 13.83 7.59 5.89 15.62 10.81 25.03 13.28 10.95 2.87 17.33 10.9 22.27 20.38 1.56 2.99 2.74 6.19 4.09 9.29.29.68.33 1.58.82 2.05 6.08 5.88 4.55 13.94 6.18 21.09.86 3.77 1.34 7.85 3.18 11.14 5.1 9.13 5.58 19.03 5.64 28.97.03 5.02-1.08 10.08-1.91 15.07-.27 1.59-1.44 3.01-1.97 4.59-.67 1.97-1.01 4.05-1.68 6.01-.82 2.43-1.3 5.27-2.91 7.06-1.78 1.99-2.98 3.87-2.68 6.39.73 6.22-1.59 10.85-6.9 14.03-4.29 2.57-5.74 6.84-6.82 11.32-.49 2.04-1.35 3.47-3.76 3.5-2.76.03-4.39 1.55-5.2 4.19-1.1 3.61-3.57 6.08-6.81 7.98-2.64 1.55-5.01 3.57-7.65 5.14-9.77 5.79-17.65 13.82-25.85 21.49-3.46 3.23-7.37 5.81-12.42 5.5-.97-.06-2.66-.75-2.7-1.26-.09-1.12.3-2.87 1.12-3.39 15.84-10.04 26.1-25.55 38.59-38.88 7.11-7.58 11.62-15.98 13.85-26.13 1.29-5.89 4.53-11.33 6.79-17.02.94-2.36 1.82-4.78 2.3-7.25.26-1.33-.39-2.83-.61-4.25-.14-.88-.44-1.8-.33-2.65.48-3.84 1.19-7.66 1.6-11.5.23-2.1-.03-4.24.05-6.36.2-5.12.4-10.22-2.98-13.64.66-2.65 1.24-4.59 1.61-6.58.58-3.17-1.39-4.06-4.04-4.26-5.32-.4-6.46.45-7.44 5.51-.52 2.7-.97 5.43-1.69 8.08-1.82 6.75-2.27 13.54-1 20.42.5 2.71.08 5.02-2.18 6.81-.25.19-.41.49-.65.7-5.36 4.76-8.61 10.48-8.75 17.89-.03 1.56-1.18 3.35-2.3 4.6-3.18 3.55-6.76 6.75-9.91 10.32-3.3 3.73-7.08 6.56-11.76 8.33-1.3.49-2.54 1.89-3.19 3.18-1.51 2.97-3.6 5.17-6.61 6.56-12.62 5.84-25.98 7.95-39.68 8.37-.24-.36-.48-.72-.71-1.08.97-.95 1.79-2.18 2.94-2.8 1.94-1.05 4.05-1.87 6.17-2.51 8.72-2.61 16.01-7.28 22.34-13.87 2.11-2.19 5.82-2.78 8.66-4.34 1.69-.93 3.44-2.08 4.59-3.57 4.01-5.2 7.87-10.53 11.58-15.95.94-1.37 1.61-3.28 1.52-4.9-.15-2.76.75-4.42 3.27-5.36 1.96-.73 2.63-1.95 2.04-4.16-.81-3.06-1.11-6.26-1.8-9.36-.82-3.7-.04-6.87 2.44-9.75 1.78-2.08 3.34-4.36 5.24-6.88-1.71-.76-3.09-1.37-3.86-1.71-2.5 2.36-4.63 4.44-6.85 6.42-1.92 1.72-3.1 6.78-1.62 9.46 1.29 2.34.66 3.69-1.04 5.4-4.55 4.6-9.04 9.27-13.29 14.14-3.41 3.9-7.08 7.2-12.22 8.62-1 .27-2.17 1.18-2.58 2.09-1.8 4.02-5.08 6.01-9 7.39-2.09.74-4.03 1.92-6.15 2.56-1.22.36-2.65-.1-3.97.02-1.62.16-3.24.46-4.81.86-2.69.68-5.34 1.48-8.43 2.35-.12-3.71.23-6.05 3.22-7.59 3.29-1.69 6.31-3.88 9.48-5.82.89-.54 1.86-1.28 2.82-1.34 4.66-.3 7.62-3.12 10.42-6.42 1.92-2.26 4.24-4.18 6.09-6.49 1.82-2.27 3.78-4.65 4.76-7.32 1.64-4.5 4.16-8.02 8.27-10.38 2.26-1.3 3.28-3.13 3.06-5.74-.27-3.17.87-5.73 3.34-7.81 1.61-1.36 2.93-3.06 4.45-4.54 3.31-3.22 4.73-7.18 4.82-12.05-1.75-.48-3.54-.96-5.19-1.41-.36.25-.63.33-.68.49-1.52 4.81-5.06 7.33-9.71 8.52-6.3 1.62-10.29 5.77-13.24 11.35-3.55 6.69-8.59 11.92-15.35 15.63-5.56 3.06-10.83 6.65-16.14 10.16-1.14.75-2.2 2-2.71 3.25-2.82 6.85-5.73 13.69-8.04 20.72-.98 3-.73 6.46-.77 9.71-.09 7.8-.01 7.88-7.57 9.68-2.63.63-4.14 2.11-4.59 4.6-.18 1 .1 2.21.54 3.16.66 1.43 1.9 2.61 2.43 4.07 4.35 11.95 13.76 19.91 22.8 27.85 5.9 5.18 10.45 11.35 15.71 16.98 1.49 1.6 3.12 3.26 5.02 4.24 3.83 1.97 6.71 4.66 8.46 8.61 2.69 6.05 8.1 9.68 12.69 14.03 3.74 3.55 6.68 7.38 6.01 13.17-4.88 1.08-9.35.41-13.62-2.26-6.45-4.04-12.81-8.26-19.53-11.8-7.94-4.19-14.77-9.41-19.89-16.87-2.97-4.33-5.76-8.98-11.52-10.31-.71-.16-1.32-1.01-1.86-1.64-1.45-1.69-2.96-3.35-4.22-5.18-3.34-4.86-7.65-8.38-13.32-10.2-3.96-1.27-5.29-4.25-5.08-8.16.05-.95 0-1.92.14-2.86.49-3.26-.51-5.42-3.89-6.5-.89-.29-1.79-1.94-1.9-3.04-.36-3.58-.02-7.24-.55-10.79-1.36-9.24 2.74-15.79 10.01-20.59 4.66-3.08 6.76-7 6.47-12.48-.16-2.9-4.31-6.67-6.89-5.5-10.1 4.61-20.75 3.37-31.29 3.48-3.18.04-4.56 1.12-4.28 4.3.32 3.56 1 7.2 4.44 9.37 1.78 1.12 3.57 2.29 5.49 3.15 3.56 1.61 6.09 6.62 4.78 10.25-.32.88-1.29 1.66-2.14 2.19-4.36 2.71-6.96 6.71-9.6 11.05-6.52 10.76-13.1 21.58-22.89 29.9-2.34 1.99-4.62 4.08-6.71 6.33-4.49 4.84-9.83 8.1-16.04 10.4-2.63.97-4.5 3.88-6.83 5.79-1.66 1.36-3.33 3.06-5.29 3.63-6.56 1.99-12.64 4.75-17.93 9.54zm133.38-120.82c-1.05-1.39-1.58-2.7-2.14-2.72-4.73-.13-6.83-3.96-9.54-6.74-4.34-4.45-9.33-6.78-15.58-6.33-3.35.24-6.89-.24-10.01.7-4.19 1.26-8.07 3.27-12.45.88-.41-.22-1.08-.15-1.56-.01-4.71 1.45-9.42 2.89-14.08 4.47-.65.22-1.42 1.08-1.52 1.74-1 6.62 3.66 11.57 10.28 11.02 1.16-.1 2.31-.27 3.46-.46 4.13-.69 8.24-1.58 12.4-2.03 2.97-.32 6-.08 9.01-.04.6.01 1.19.26 1.79.4 1.38.32 2.76.93 4.12.89 4.55-.14 9.08-.49 13.62-.81 3.77-.26 7.54-.59 12.2-.96zm-27.9-79.07c5.83-.26 11.31-1.23 16.57-3.91 2.34-1.19 5.24-1.71 7.89-1.73 3.27-.03 3.68-1.61 3.39-4.17-.51-4.45-3.58-7.24-6.43-10.24-1.47-1.55-2.79-1.74-4.72-.89-3.37 1.49-6.77 3.39-10.33 3.87-7.57 1.03-15.26 1.12-22.87 1.92-1.82.19-4.23 1.2-5.05 2.6-.67 1.15.27 3.65 1.14 5.19 1.76 3.1 4.24 5.37 8.2 5.68 4.08.32 8.14 1.1 12.21 1.68zm-1.47-59.79c4.3-.26 8.21-.35 12.08-.79 1.33-.15 3.11-.82 3.74-1.83 3.82-6.08 1.01-12.39-5.98-14.01-6.55-1.52-13.08-3.16-19.65-4.61-.8-.17-1.96.37-2.67.94-3.32 2.63-6.37 5.62-9.84 8.01-2.57 1.78-1.9 3.68-1.59 6.05.33 2.54 1.95 3.15 3.85 3.43 6.79 1.02 13.6 1.92 20.06 2.81zm-33.41 22.72c1.19 2.46 2.59 5.05 3.72 7.75.71 1.7 1.7 1.98 3.42 1.85 5.26-.42 10.54-.84 15.81-.82 6.01.03 11.42-1.29 16.51-4.61 2.73-1.78 5.94-2.96 9.08-3.95 2.96-.93 4.12.3 4.42 3.41.17 1.81.77 3.58 1.18 5.36.41-.02.81-.05 1.22-.07.38-2.78.97-5.55 1.06-8.34.09-2.7-1.38-4.04-4.29-4.39-3.96-.48-7.83-1.57-11.75-2.37-1.01-.21-2.06-.44-3.08-.39-6.02.32-12.04.72-18.06 1.08-6.74.41-13.61.26-19.24 5.49zm30.08 89.16c.04.3.07.61.11.91 3.46-.81 6.94-1.6 10.39-2.45 2.06-.51 2.26-1.91 1.68-3.68-.97-2.98-3.29-4.32-6.09-4.97-9.32-2.15-18.6-2.7-27.87.41-2.28.76-2.87 2.31-2.39 4.09.5 1.86.8 4.32 3.58 4.49 6.86.42 13.72.8 20.59 1.2zm105.35-56.31c2.07 6.38 3.68 11.51 5.44 16.58.23.67 1.22 1.47 1.92 1.54 3.98.37 7.77-.21 11.13-2.69 2.03-1.5 2.65-3.34 1.7-5.53-2.02-4.69-5.64-8.19-10.23-9.89-2.72-1.01-6.18-.08-9.96-.01zm-16.05 27.06c3.28-.98 6.4-1.92 9.46-2.83-.45-4.12-2.82-6.46-6.51-6.56-.6-.02-1.63.34-1.76.74-.88 2.82-2.5 5.59-1.19 8.65zm-122.92-41.93c2.28-.13 4.18.07 4-2.76-.23-3.65-1.72-5.07-5.82-4.97.6 2.56 1.19 5.07 1.82 7.73z" fill="#010102"/><g fill="#fcfbfa"><path d="m2.6 9.9.8-1c.9.7 1.9 1.4 2.9 2.3l-.9 1.1c-1.1-1-2-1.8-2.8-2.4zm.5 10.6c.9-2.1 1.6-4.3 2.3-6.7.4.2.8.4 1.3.6-.7 2.1-1.5 4.3-2.2 6.6zm.3-15.2.9-.9c1 .8 2 1.6 2.8 2.4l-1 1c-.9-.9-1.8-1.7-2.7-2.5zm12.6-1.2h1.2v1.4h2.7v1.1h-2.7v2.7h-1.2v-.6h-1.8v1.3h4.9v3.8h-1.2v-.5h-3.7c0 .4-.1.9-.1 1.2h5.1v1h-5.2c0 .5-.1.9-.2 1.2h6v1h-5.2c1.1 1.3 2.9 2 5.5 2.2-.4.4-.7.8-.9 1.3-2.9-.5-4.8-1.6-5.7-3.5h-.1c-.8 1.7-2.7 2.9-5.9 3.6-.2-.4-.6-.8-.9-1.1 2.8-.6 4.6-1.4 5.4-2.5h-4.8v-1h5.3c.1-.3.2-.7.2-1.2h-4.9v-1h5c0-.4 0-.8.1-1.2h-3.6v.5h-1.2v-3.8h4.9v-1.3h-1.8v.5h-1.2v-2.7h-2.7v-1h2.7v-1.4h1.2v1.4h4.8zm-6.7 8.3h3.6c0-.4 0-.9 0-1.4h-3.6zm1.9-4.6h4.8v-1.3h-4.7v1.3zm6.7 3.2h-3.7v1.4h3.7z"/><path d="m8.7 22.1h1.3v2.2h2.8v-2.2h1.3v2.2h4.1v9.1h1.7v1.3h-17v-1.3h1.7v-9.1h4.1zm.3 13.1.7 1.2c-1.8.9-3.8 1.9-6 2.9-.2-.4-.5-.8-.8-1.3 2.3-1 4.4-1.9 6.1-2.8zm-3.1-6.4h2.8v-3.2h-2.8zm0 4.6h2.8v-3.3h-2.8zm4.1-4.6h2.8v-3.2h-2.8zm0 4.6h2.8v-3.3h-2.8zm3.6 1.9c2.1.9 4.1 1.8 6.1 2.7l-.7 1.4c-2.2-1.1-4.2-2-6.1-2.9zm3.2-9.7h-2.8v3.2h2.8zm-2.7 7.8h2.8v-3.3h-2.8z"/></g></svg>