<svg enable-background="new 0 0 400 400" viewBox="0 0 400 400" xmlns="http://www.w3.org/2000/svg"><g fill="#010102"><path d="m152.88 129.64c3 7.03 5.56 14.29 9.11 21.03 3.59 6.81 3.35 13.62 2.02 20.7-.72 3.85-1.77 7.66-2.2 11.54-.35 3.08-.41 6.32.16 9.34.81 4.29.76 8.22-.92 12.37-2.81 6.96-5.19 14.11-7.61 21.22-.59 1.75-1.45 2.51-3.29 2.69-5.8.58-11.6 1.16-17.36 2.07-2.42.38-5.09 1.08-6.99 2.51-8.11 6.05-16.98 8.38-27.05 7.36-5.55-.56-11.2-.1-17.06-.1-.43-2.78-1.11-5.36-1.16-7.94-.07-3.85-2.41-5.02-5.58-5.57-4.19-.73-4.47-1.27-2.31-5.01.73-1.26 1.67-2.47 2.74-3.46 4.05-3.74 8.07-7.53 12.34-11.01 2.3-1.88 3.43-4.1 3.18-6.85-.56-6.32-1.37-12.61-2.07-18.91-.11-.95-.28-1.89-.28-2.84-.02-5.93 5.4-9.17 10.64-6.33.58.31 1.03 1.05 1.32 1.68 2.22 4.92 4.71 9.75 6.46 14.84 1 2.92.79 6.25 1.12 9.4.41 3.79.9 7.58 1.2 11.38.34 4.34 2.75 6.94 6.59 8.51 8.44 3.45 16.82 2.43 25.1-.5.94-.33 1.85-1.82 2.08-2.92 1.72-8.16 3.79-16.31 4.75-24.57 1.36-11.78 2.35-23.71-.25-35.46-1.02-4.6-3.13-8.97-4.87-13.39-.58-1.47-.57-2.48.7-3.58 2.39-2.08 4.64-4.31 7.42-6.91-6.72-2.74-12.75-5.21-18.79-7.66-5.17-2.09-5.07-1.98-9.21 1.91-7.42 6.97-14.79 13.99-22.53 20.59-3.58 3.05-7.89 5.28-12.03 7.59-1.56.87-3.58.93-5.35 1.36-.37-.78-.59-1.15-.72-1.54-1.64-5.28-1.61-5.25 2.62-8.77 5.98-4.98 10.19-11.31 13.6-18.2 5.36-10.82 11.89-20.74 21.05-28.81 1.21-1.07 1.79-3.16 2.09-4.88.35-2.06.22-4.24.05-6.35-.27-3.39.42-6.5 2.09-9.44 3.25-5.74 3.17-11.91 2.58-18.23-.5-5.34-.84-10.72-.79-16.08.02-2.33 1.21-4.65 1.97-7.33 1.17.46 2.07.67 2.84 1.12 9.92 5.83 18.28 13.37 24.67 22.99.98 1.48 1.71 3.17 2.3 4.86 1.63 4.6 1.56 5.18-2.55 7.74-2.21 1.38-2.54 3.25-2.58 5.38-.06 3.24-.96 5.93-3.74 7.95-1.12.81-1.99 2.21-2.55 3.52-2.06 4.87-3.8 9.88-5.94 14.72-.97 2.18-.33 3.22 1.47 4.35 4.7 2.94 9.96 4.7 15.17 3.15 15.1-4.48 30.86-4.01 46.09-6.91 17.17-3.26 34.35-2.95 51.6-3.13 3.43-.04 6.91-.7 10.27-1.48 4.01-.93 8.07-1.96 11.85-3.56 5.96-2.52 11.56-2.31 17.25.65 2.24 1.16 4.69 2 7.12 2.69 3.27.93 5.52 2.63 6.64 6.03.35 1.07 2.01 2.13 3.23 2.39 2.58.54 3.9 1.93 4.88 4.3 2.42 5.87 5.2 11.59 7.61 17.46.5 1.23.14 2.9-.06 4.33-.38 2.68-1.48 5.36-1.32 7.99.57 9.51-1.34 12.99-9.8 17.13-2.59 1.27-4.94 3.02-7.75 4.76 2.67 2.11 4.74 3.71 6.78 5.36 1.44 1.17 2.24 2.25 1.62 4.54-.64 2.34.09 5.04-.01 7.57-.05 1.37-.26 2.94-.97 4.05-2.93 4.54-6.2 8.86-9.1 13.42-1.15 1.8-2.11 3.93-2.42 6.02-1.23 8.17-2.35 16.37-3.11 24.59-.31 3.33.43 6.74.6 10.13.04.87-.01 2.32-.49 2.56-2.78 1.36-2.79 4.04-3.4 6.44-1.82 7.2-3.27 14.39-3.06 21.93.07 2.45-1.6 5.2-3.1 7.39-2.7 3.95-3.75 7.83-1.96 12.47.4 1.04-.2 2.95-1 3.87-1.79 2.04-2.69 4.13-2.47 6.88.36 4.46.13 8.86-2.08 12.96-.69 1.28-1.16 2.79-1.27 4.24-.55 7.25-4.34 12.53-9.68 17.09-1.12.95-1.58 3-1.8 4.61-.25 1.86-.2 3.89.28 5.69 1.3 4.84-.7 8.01-4.44 10.79-4.99 3.71-9.55 8.04-15.73 10.39-.41-.96-.79-1.68-1.02-2.44-1.68-5.46-3.67-10.86-4.91-16.43-1.65-7.4-5.2-13.52-10.51-18.81-3.41-3.39-5.43-7.51-5.65-12.63 5.3-2.55 10.82-2.7 16.41-1.78 5.06.83 10.04 1.51 14.97-.73 3.55-1.62 6.48-3.56 6.43-8.06-.02-1.35.6-2.7.67-4.07.31-5.98 2.85-10.87 6.72-15.35 1.17-1.36 1.73-3.67 1.72-5.54-.03-5.2 1.33-9.81 4.68-13.77 1.45-1.71 1.75-3.49.89-5.56-2.23-5.42-2.27-10.8.11-16.25 1.01-2.31 1.26-4.94 2.21-7.29 2.89-7.17 3.26-14.54 2.43-22.13-.2-1.81.58-3.84 1.31-5.6.72-1.74 1.81-3.38 2.98-4.87 1.94-2.47 2.55-4.9.98-7.85-.47-.88-.1-2.21-.09-3.33 0-.2.1-.41.19-.6 4.73-9.94 5.43-20.28 2.82-30.87-.73-2.96-.44-5.71 1.08-8.25 2.93-4.9 3.17-9.91.98-15.09-1.36-3.22-.42-5.91 1.54-8.54 2.98-3.99 2.34-6.43-2.39-8.17-12.18-4.47-24.77-6.4-37.74-5.67-.63.04-1.38-.01-1.87.3-4.38 2.87-9.29 3.06-14.28 2.99-.62-.01-1.31.13-1.85.43-7.39 4.14-15.33 3.19-23.28 2.83-2.73-.12-5.78.37-8.24 1.53-8.58 4.02-17.37 5.56-26.81 4.22-3.03-.43-6.45-.18-9.32.82-3.91 1.36-7.49 1.86-11.3.12-1.05-.48-2.21-.71-3.32-1.05-.31.21-.65.41-.99.62z"/><path d="m136.38 266.35c6.55-1.71 12.97-3.39 19.4-5.05 8.61-2.22 17.19-4.53 25.84-6.6 8.79-2.11 16.3 1.12 22.79 6.64 4.07 3.46 3.71 8.46-.16 12.04-5.51 5.09-8.85 11.16-9.46 18.78-.79 9.8-7.4 15.61-15.06 20.33-1.4.86-4.12.68-5.72-.09-7.57-3.62-15.24-2.52-22.98-1.17-.73.13-1.47.24-2.21.29-6.71.47-12.49 2.83-17.16 7.86-3.79 4.08-8.55 4.24-13.48 2.52-.86-.3-1.7-1.27-2.1-2.14-1.86-4.03-3.83-8.03-5.26-12.22-4.31-12.71-8.39-25.5-12.55-38.25-.36-1.09-.7-2.19-1.26-3.93 6.52 1.02 12.54 1.93 18.54 2.97.68.12 1.2 1.07 1.82 1.61 5.98 5.24 6.34 12.56 7.31 19.66.04.31.06.63.1.95.94 7.26 3.19 9.66 10.66 10.09 13.11.75 25.66-2.31 37.95-6.46 3.14-1.06 4.39-4.12 5.03-7.25 1.23-6.03-.51-9.61-5.89-12.25-10.04-4.92-10.05-4.92-20.86-1.86-1.43.4-2.84.84-4.27 1.24-7.46 2.1-9.95.47-11.02-7.71z"/><path d="m225.28 191.73c0 1.27.27 2.62-.07 3.79-.46 1.58-1.06 3.36-2.18 4.47-2.66 2.6-5.26 4.94-3.8 9.26.36 1.08-.02 2.56-.44 3.72-3.96 11.1-11.27 18.95-22.42 23.14-1.67.63-2.44.16-3.4-1.1-3.36-4.38-4.7-8.61-2.28-14.31 3.58-8.45 6.17-17.33 8.9-26.11.62-1.99.26-4.36.01-6.52-.54-4.52-1.41-9-1.89-13.52-.09-.88.71-2.34 1.5-2.74 6.44-3.23 6.46-3.17 11.99 1.36 3.85 3.16 7.53 6.55 11.61 9.39 2.7 1.88 3.4 4.01 2.83 6.96-.14.72-.13 1.48-.19 2.21-.06 0-.11 0-.17 0z"/></g><path d="m2.6 9.9.8-1c.9.7 1.9 1.4 2.9 2.3l-.9 1.1c-1.1-1-2-1.8-2.8-2.4zm.5 10.6c.9-2.1 1.6-4.3 2.3-6.7.4.2.8.4 1.3.6-.7 2.1-1.5 4.3-2.2 6.6zm.3-15.2.9-.9c1 .8 2 1.6 2.8 2.4l-1 1c-.9-.9-1.8-1.7-2.7-2.5zm12.6-1.2h1.2v1.4h2.7v1.1h-2.7v2.7h-1.2v-.6h-1.8v1.3h4.9v3.8h-1.2v-.5h-3.7c0 .4-.1.9-.1 1.2h5.1v1h-5.2c0 .5-.1.9-.2 1.2h6v1h-5.2c1.1 1.3 2.9 2 5.5 2.2-.4.4-.7.8-.9 1.3-2.9-.5-4.8-1.6-5.7-3.5h-.1c-.8 1.7-2.7 2.9-5.9 3.6-.2-.4-.6-.8-.9-1.1 2.8-.6 4.6-1.4 5.4-2.5h-4.8v-1h5.3c.1-.3.2-.7.2-1.2h-4.9v-1h5c0-.4 0-.8.1-1.2h-3.6v.5h-1.2v-3.8h4.9v-1.3h-1.8v.5h-1.2v-2.7h-2.7v-1h2.7v-1.4h1.2v1.4h4.8zm-6.7 8.3h3.6c0-.4 0-.9 0-1.4h-3.6zm1.9-4.6h4.8v-1.3h-4.7v1.3zm6.7 3.2h-3.7v1.4h3.7z" fill="#fcfbfa"/><path d="m8.7 22.1h1.3v2.2h2.8v-2.2h1.3v2.2h4.1v9.1h1.7v1.3h-17v-1.3h1.7v-9.1h4.1zm.3 13.1.7 1.2c-1.8.9-3.8 1.9-6 2.9-.2-.4-.5-.8-.8-1.3 2.3-1 4.4-1.9 6.1-2.8zm-3.1-6.4h2.8v-3.2h-2.8zm0 4.6h2.8v-3.3h-2.8zm4.1-4.6h2.8v-3.2h-2.8zm0 4.6h2.8v-3.3h-2.8zm3.6 1.9c2.1.9 4.1 1.8 6.1 2.7l-.7 1.4c-2.2-1.1-4.2-2-6.1-2.9zm3.2-9.7h-2.8v3.2h2.8zm-2.7 7.8h2.8v-3.3h-2.8z" fill="#fcfbfa"/></svg>