<svg enable-background="new 0 0 400 400" viewBox="0 0 400 400" xmlns="http://www.w3.org/2000/svg"><path d="m184.96 177.71c-2.56.9-4.46 1.56-6.37 2.23.06.35.11.7.17 1.05 1.52.7 3.04 1.41 4.57 2.09 3.55 1.58 3.92 2.64 2.11 6.1-.33.64-.66 1.27-1.29 2.48 1.83.26 3.59 1.1 4.76.58 6.36-2.81 13.13-1.96 19.72-2.55 18.88-1.7 37.77-3.33 56.67-4.92 2.72-.23 5.54-.32 7.62 2.33-4.79 3.4-10.16 4.87-15.79 5.35-6.75.58-13.54.72-20.29 1.36-1.85.17-3.79 1.17-5.34 2.29-2.08 1.5-3.99 2.18-6.38.93-3.25-1.7-6.5-1.66-9.59.4-6.64 4.44-13.7 1.89-20.64 1.33-1.58-.13-3.23-.14-4.72-.61-3.67-1.17-5.3.85-5.75 3.86-.65 4.37-.83 8.81-1.14 13.23-.04.56.35 1.16.6 1.71 1.05 2.35 2.41 4.61 3.13 7.05 1.13 3.86 2.18 4.96 6.13 4.81 8.22-.3 16.4-.33 24.36-3.37 4.62-1.76 9.85-2 14.82-2.75 2.39-.36 3.83 2.14 2.69 4.6-1.28 2.79-2.67 5.53-4.09 8.25-1.48 2.82-2.77 5.59-2.61 8.99.07 1.5-1.1 3.12-1.86 4.6-2.16 4.26-4.35 8.44-3.85 13.52.09.95-1.16 2.37-2.16 3.03-1.95 1.3-2.9 2.6-1.63 4.91 1.51 2.76 1.12 5.03-1.65 6.97-.76.54-1.28 2.52-.9 3.4 1.48 3.44.71 5.89-2.06 8.31-1.03.9-1.9 3.13-1.52 4.33 2.22 6.91.04 12.56-4.28 17.81-.73.89-1.26 1.96-1.57 2.46 1.58 2.82 3.29 5.26 4.14 7.97.15.49-3.21 2.09-5.15 3.3-.94-1.77-1.71-3.21-2.59-4.86-1.92 1.8-3.85 3.31-5.39 5.16-.7.83-1.24 2.89-.78 3.37 1.02 1.07 2.51 2.44 4.37.86 1.12-.95 2.41-1.68 3.62-2.49 3.22 4.04 3.16 5.12-.06 8.65-.67.73-1.35 1.84-1.31 2.75.05 1.05.88 2.07 1.37 3.1.91-.53 2.11-.86 2.66-1.65.96-1.37 1.32-3.15 2.3-4.5.58-.8 1.86-1.08 2.82-1.6.33.83.8 1.63.95 2.49 1.71 9.39-1.54 18.23-3.24 27.22-.21 1.11-1.89 2.78-2.82 2.73-1.38-.07-3.51-1.16-3.9-2.3-2.18-6.38-4.06-12.86-5.78-19.38-1.16-4.4-2.51-8.89-2.61-13.37-.09-3.9-1.8-7-3.2-10.45 3.87-2.49 8.48-4.05 8.63-9.89-.83-.37-1.95-.87-3.22-1.43-.41.53-.7 1.13-1.17 1.45-1.13.76-2.56 2.15-3.49 1.9-1.32-.37-2.92-1.81-3.28-3.1-.82-2.99-1.71-5.47-4.95-6.76-.83-.33-1.4-2.39-1.37-3.64.08-2.67-.29-4.68-3.19-5.72-.9-.32-1.91-1.77-1.98-2.77-.43-6.32-3.26-11.28-7.98-15.33-2.72-2.33-4.45-5.08-3.61-8.9.47-2.12.33-4.34-2.03-5.02-1.39-.4-3.11.33-5.23.64-.9-1.73-2.05-4.33-3.54-6.73-2.66-4.3-5.38-8.59-8.36-12.67-1.92-2.62-3.41-5.2-2.33-8.45.26-.78 1.48-1.69 2.31-1.75 7.02-.53 14.05-.84 21.07-1.33.99-.07 2.05-.56 2.9-1.12 3.97-2.63 6.9-11.65 5.63-16.27-.52-1.89-.46-3.97-.48-5.96-.06-5.64-1.81-7.17-7.27-6.39-1.29.18-2.88.22-3.94-.37-3.53-1.96-7.04-1.8-10.71-.7-4.67 1.39-9.2 1.35-13.91-.42-2.05-.77-4.78-.19-7.08.3-3.08.65-5.9.28-8.98-.21-5.29-.84-10.75-.56-16.13-.83-2-.1-4.12-.07-5.95-.74-1.51-.55-2.67-2.06-3.99-3.14.2-.33.39-.65.59-.98 4.3 0 8.6.16 12.89-.03 18.4-.79 36.81-1.52 55.19-2.63 7.13-.43 8.63-3.22 6.64-10.08-.2-.7-.3-1.48-.23-2.2.37-3.56-.73-6.57-2.85-9.45-.82-1.12-1.14-2.93-1.01-4.36.6-6.4-1.27-10.42-7.02-13.25-3.96-1.95-7.22-4.22-8.39-8.83-.24-.96-1.83-1.87-2.98-2.23-1.77-.55-2.78-1.32-3.44-3.19-.64-1.79-1.79-3.74-3.29-4.83-5.08-3.7-5.65-8.77-4.58-14.19.86-4.34 2.34-8.57 3.76-12.78.32-.94 1.44-1.75 2.38-2.32 4.5-2.79 9.25-5.2 13.55-8.26 4.99-3.57 10.86-4.57 16.38-6.63 2.01-.75 3.75-2.22 5.68-3.23 4.84-2.53 9.59-5.34 14.63-7.39 5.88-2.4 9.32-6.73 11.68-12.27 1.77-4.16 1.54-8.18-.47-12.26-.75-1.52-.74-3.4-1.15-5.11-.62-2.6-.97-5.34-2.06-7.73-.77-1.68-1.28-2.87.3-4.1 1.52-1.19 2.95-2.92 5.09-.67 1.07 1.13 2.48 2.02 3.88 2.74 6.44 3.31 10.98 7.87 11.13 15.65.02 1.01.51 2.07.98 3 1.22 2.39.79 4.58-.81 6.51-3.25 3.93-5.28 8.94-10.5 11.18-1.19.51-1.92 2.73-2.31 4.3-1 4-3.66 5.69-7.47 6.11-.63.07-1.26.17-1.89.28-4.03.76-8.87 7.9-7.35 11.64.72 1.76 2.99 3.69 4.85 4.05 6.8 1.33 11.02 5.96 15.31 10.67.43.47.85 1.04 1.39 1.29 5.02 2.28 8.44 6.2 11.33 10.75.53.83 1.85 1.29 2.9 1.64 2.8.96 5.69 1.67 8.48 2.66 4.51 1.6 7.03 4.83 7.66 9.62.51 3.87.76 3.97 4.33 2.84.5-.16.99-.39 1.51-.48 5.87-1.02 20.03 6.28 23.2 12.53-2.91 0-5.44.15-7.94-.03-3.85-.28-7.69-.79-11.54-1.2-7.32-.77-14.29-2.77-20.83-6.15-.8-.41-1.55-1.22-1.95-2.03-2.27-4.59-6.22-6.89-10.78-8.73-2.12-.86-4.02-2.6-5.63-4.31-2.25-2.38-4.29-4.99-6.14-7.7-2.67-3.89-5.95-6.73-10.59-8.05-1.03-.29-1.82-1.72-2.54-2.75-.59-.84-.78-1.96-1.38-2.79-3.12-4.28-6.28-8.54-9.52-12.73-.67-.87-1.7-1.83-2.69-2.01-5.75-1.02-11.33-.56-16.5 2.53-2.63 1.57-5.29 3.08-7.97 4.56-2.31 1.27-4.7 2.41-7.01 3.7-2.62 1.46-3.58 3.43-3.37 6.73.2 3.12-1.05 6.39-1.95 9.51-.51 1.75-.41 3.03.99 4.22.55.47 1.14 1.07 1.36 1.74 1.97 5.9 7.1 8.26 11.94 11.09 1.79 1.05 3.41 2.78 4.5 4.57 3 4.93 5.06 10.47 10.6 13.52 1.14.63 1.68 2.87 1.95 4.47 1 5.64 1.31 11.42 5.44 16.05zm-20.05 70c-.25.15-.51.3-.76.46 3.23 3.92 6.4 7.89 9.71 11.74 5.28 6.12 10.09 12.42 12.52 20.38.83 2.73 3.16 5.14 5.2 7.31 2.37 2.51 5.25 4.44 6.45 8.03.34 1.01 2.69 1.68 4.18 1.81.72.06 2.19-1.42 2.29-2.32.67-6.06 1.04-12.1 2.72-18.07.68-2.43 1.23-4.69 2.56-6.88 1.72-2.84 3.08-5.91 4.47-8.93.77-1.69 1-3.68 1.98-5.22 2.77-4.36 3.05-13.99.13-18.1-3.71-5.23-9.3-5.68-15.03-5.59-3.14.05-6.27.19-9.41.25-1.67.04-3.37-.19-5.01.06-2.57.38-5.03.86-5.79-1.49-3.31 1.53-6.51 2.9-9.6 4.47-2.05 1.04-4.14 2.14-5.84 3.64-.79.69-.88 2.38-.96 3.64-.13 1.59.1 3.21.19 4.81z" fill="#010102"/><path d="m294.84 181.21c-4.84 2.14-9.59 4.57-15.27 4.38-.3-3.18.87-4.51 4-4.62 3.71-.13 7.41-.73 11.12-1.13.05.47.1.92.15 1.37z" fill="#010102"/><g fill="#fcfbfa"><path d="m2.6 9.9.8-1c.9.7 1.9 1.4 2.9 2.3l-.9 1.1c-1.1-1-2-1.8-2.8-2.4zm.5 10.6c.9-2.1 1.6-4.3 2.3-6.7.4.2.8.4 1.3.6-.7 2.1-1.5 4.3-2.2 6.6zm.3-15.2.9-.9c1 .8 2 1.6 2.8 2.4l-1 1c-.9-.9-1.8-1.7-2.7-2.5zm12.6-1.2h1.2v1.4h2.7v1.1h-2.7v2.7h-1.2v-.6h-1.8v1.3h4.9v3.8h-1.2v-.5h-3.7c0 .4-.1.9-.1 1.2h5.1v1h-5.2c0 .5-.1.9-.2 1.2h6v1h-5.2c1.1 1.3 2.9 2 5.5 2.2-.4.4-.7.8-.9 1.3-2.9-.5-4.8-1.6-5.7-3.5h-.1c-.8 1.7-2.7 2.9-5.9 3.6-.2-.4-.6-.8-.9-1.1 2.8-.6 4.6-1.4 5.4-2.5h-4.8v-1h5.3c.1-.3.2-.7.2-1.2h-4.9v-1h5c0-.4 0-.8.1-1.2h-3.6v.5h-1.2v-3.8h4.9v-1.3h-1.8v.5h-1.2v-2.7h-2.7v-1h2.7v-1.4h1.2v1.4h4.8zm-6.7 8.3h3.6c0-.4 0-.9 0-1.4h-3.6zm1.9-4.6h4.8v-1.3h-4.7v1.3zm6.7 3.2h-3.7v1.4h3.7z"/><path d="m8.7 22.1h1.3v2.2h2.8v-2.2h1.3v2.2h4.1v9.1h1.7v1.3h-17v-1.3h1.7v-9.1h4.1zm.3 13.1.7 1.2c-1.8.9-3.8 1.9-6 2.9-.2-.4-.5-.8-.8-1.3 2.3-1 4.4-1.9 6.1-2.8zm-3.1-6.4h2.8v-3.2h-2.8zm0 4.6h2.8v-3.3h-2.8zm4.1-4.6h2.8v-3.2h-2.8zm0 4.6h2.8v-3.3h-2.8zm3.6 1.9c2.1.9 4.1 1.8 6.1 2.7l-.7 1.4c-2.2-1.1-4.2-2-6.1-2.9zm3.2-9.7h-2.8v3.2h2.8zm-2.7 7.8h2.8v-3.3h-2.8z"/></g></svg>