<svg enable-background="new 0 0 400 400" viewBox="0 0 400 400" xmlns="http://www.w3.org/2000/svg"><path d="m248.66 253.48c-2.44-1.36-5.09-2.44-7.29-4.12-9.19-6.99-16.9-15.17-19.49-26.93-.47-2.12-.69-4.52-.17-6.59 1.75-7.08 3.6-14.15 8.57-19.91 2.49-2.88 4.63-6.06 6.93-9.11 2.6-3.44 2.18-5.9-1.44-8.32-5.99-4-11.79-8.33-18.02-11.93-9.73-5.61-15.17-14.36-18.49-24.52-5.21-15.96-5.23-32.09 0-48.11.48-1.46 1.39-2.83 2.33-4.06 2.26-2.94 4.75-5.7 7-8.65 3.45-4.53 8.1-7.41 13.17-9.69.83-.37 1.84-.4 2.77-.43 2.01-.06 4.05.18 6.04-.05 14.35-1.7 25.99 5.11 37.04 12.59 7.23 4.9 10.41 13.19 12.87 21.41.87 2.91 1.04 6.02 1.49 9.05.72 4.91 1.43 9.82 2.08 14.73.15 1.12.24 2.31.05 3.41-1.31 7.51-2.94 14.96-4.01 22.5-1.09 7.66-5.76 12.47-11.81 16.4-3.37 2.19-6.96 4.09-10.17 6.49-1.79 1.34-3.47 3.23-4.35 5.24-1.07 2.46-.91 5.06 1.88 6.95 8.35 5.64 13 13.64 14.17 23.58 2.16 18.29-2.51 35.53-8.54 52.49-1.98 5.58-4.06 11.2-6.84 16.4-2.64 4.93-1.65 10.39-3.38 15.33-1.4 4-1.62 7.95-1.22 12.16 1.18 12.45 2.27 24.92 2.93 37.4.28 5.22-.6 10.5-1.46 15.92-1.24-5.49-2.96-10.92-3.63-16.48-1.38-11.56-1.63-23.28-3.39-34.77-2.37-15.42 3.12-29.23 7.39-43.35 1.74-5.77 3.62-11.53 5.94-17.09 4.46-10.7 4.49-22.03 3.85-33.09-.46-7.85-3.82-15.53-5.98-23.26-.2-.73-.97-1.37-1.61-1.9-4.72-3.86-12.37-2.8-15.76 2.23-3.26 4.83-5.29 10.2-5.66 15.99-.67 10.45-.49 20.84 5.84 29.93 1.43 2.05 3.26 3.85 5.04 5.64 1.93 1.93 4.02 3.71 6.04 5.55-.26.34-.48.66-.71.97zm8-142.24c0 .44-.01.89-.01 1.33-.73.3-1.45.83-2.19.86-7.35.3-14.33 3.12-22.06 1.6-7.83-1.54-16.02-1.22-24.06-1.7-3.19-.19-4.95 1.74-4.77 5.04.27 4.97.52 9.94.7 14.91.12 3.2 2.17 5.86 5.37 6.5 1.55.31 3.16.51 4.74.45 10.57-.41 21.14-.94 31.71-1.35 5.22-.2 10.4.04 15.89 3.17-3.04.92-5.23 2.03-7.47 2.18-9.49.64-19 1.01-28.51 1.43-4 .18-8 .11-11.99.39-2.58.18-3.2 1.86-2.61 4.28 1.82 7.42 5.67 12.72 13.09 15.88 11.93 5.09 23.59 5.75 35.16-.26 4.8-2.49 9.54-5.32 11.54-11.13 4.82-13.96 5.8-28.13 3.08-42.6-3.73-19.86-14.11-30.66-33.19-34.49-10.19-2.05-19.1 0-26.1 8.21-1.72 2.01-3.44 4.09-5.47 5.76-4.67 3.82-4.52 9.1-4.41 14.23.03 1.42 2.16 4.11 2.95 3.98 7.28-1.22 14.21 3.24 21.88.24 5.04-1.97 11.31-1.11 17.02-.95 3.24.09 6.47 1.32 9.71 2.04z" fill="#010102"/><path d="m140.83 182.75c-9.86 9.64-19.52 19.08-29.17 28.53-.37-.26-.74-.53-1.11-.79.4-1.06.62-2.24 1.22-3.17 2.68-4.17 5.44-8.29 8.23-12.39 5.36-7.86 10.7-15.73 16.17-23.51 1.72-2.44 2.05-5.15.04-7.49-7.17-8.35-14.38-16.66-21.64-24.93-1.9-2.16-2.67-4.13-2.15-7.05 2.83.81 4.67 2.65 6.08 5.09 4.16 7.22 10.27 12.28 17.7 15.86.67.32 1.37.58 2.07.8.6.19 1.22.3 1.95.47 2.25-3.57 3.09-7.45 2.8-11.55-.68-9.61-1.47-19.2-2.25-28.8-1.42-17.37-.71-34.72.19-52.09.45-8.76.08-17.57.08-26.8 3.46 1.62 4.47 4.37 5.35 7.14 2.63 8.27 1.8 16.79 1.73 25.25-.05 5.62-.49 11.24-.33 16.84.2 7.07.89 14.12 1.27 21.19.43 7.82.67 15.66 1.15 23.47.21 3.37.62 6.76 1.34 10.05.27 1.24 1.67 2.23 2.56 3.34.9-.79 2.03-1.43 2.67-2.39 2.04-3.09 3.74-6.41 5.86-9.44 1.66-2.37 3.75-4.45 5.65-6.66.43.11.86.22 1.3.32.22 2.06 1.13 4.35.52 6.12-1.15 3.3-2.74 6.65-4.92 9.35-6.41 7.94-10.83 16.63-11.79 26.89-.26 2.74.57 5.09 2.46 7.26 5.52 6.3 10.82 12.79 16.31 19.1 1.06 1.22 2.7 1.92 3.96 2.99 2.86 2.44 5.77 4.84 8.4 7.51.76.77.66 2.4.95 3.63-.38.29-.76.57-1.15.86-2.99-2.51-6-4.99-8.94-7.55-1.49-1.29-2.69-2.98-4.32-4.01-4.13-2.59-8.34-4.95-11.3-9.07-.92-1.27-2.89-1.79-5.09-3.06-.53 3.3-1.27 5.76-1.26 8.22.05 12.4.29 24.8.48 37.19.26 17.06.55 34.12.82 51.18.01.85.06 1.7-.06 2.54-.73 5.32-1.49 10.64-2.26 15.96-.06.39-.23.76-.45 1.45-3.11-6.71-3.15-13.66-3.58-20.45-1.42-22.31-2.63-44.64-3.68-66.98-.24-5.05.43-10.15.84-15.22.44-5.62.27-11.02-4.7-15.2z" fill="#010102"/><g fill="#fcfbfa"><path d="m2.6 9.9.8-1c.9.7 1.9 1.4 2.9 2.3l-.9 1.1c-1.1-1-2-1.8-2.8-2.4zm.5 10.6c.9-2.1 1.6-4.3 2.3-6.7.4.2.8.4 1.3.6-.7 2.1-1.5 4.3-2.2 6.6zm.3-15.2.9-.9c1 .8 2 1.6 2.8 2.4l-1 1c-.9-.9-1.8-1.7-2.7-2.5zm12.6-1.2h1.2v1.4h2.7v1.1h-2.7v2.7h-1.2v-.6h-1.8v1.3h4.9v3.8h-1.2v-.5h-3.7c0 .4-.1.9-.1 1.2h5.1v1h-5.2c0 .5-.1.9-.2 1.2h6v1h-5.2c1.1 1.3 2.9 2 5.5 2.2-.4.4-.7.8-.9 1.3-2.9-.5-4.8-1.6-5.7-3.5h-.1c-.8 1.7-2.7 2.9-5.9 3.6-.2-.4-.6-.8-.9-1.1 2.8-.6 4.6-1.4 5.4-2.5h-4.8v-1h5.3c.1-.3.2-.7.2-1.2h-4.9v-1h5c0-.4 0-.8.1-1.2h-3.6v.5h-1.2v-3.8h4.9v-1.3h-1.8v.5h-1.2v-2.7h-2.7v-1h2.7v-1.4h1.2v1.4h4.8zm-6.7 8.3h3.6c0-.4 0-.9 0-1.4h-3.6zm1.9-4.6h4.8v-1.3h-4.7v1.3zm6.7 3.2h-3.7v1.4h3.7z"/><path d="m8.7 22.1h1.3v2.2h2.8v-2.2h1.3v2.2h4.1v9.1h1.7v1.3h-17v-1.3h1.7v-9.1h4.1zm.3 13.1.7 1.2c-1.8.9-3.8 1.9-6 2.9-.2-.4-.5-.8-.8-1.3 2.3-1 4.4-1.9 6.1-2.8zm-3.1-6.4h2.8v-3.2h-2.8zm0 4.6h2.8v-3.3h-2.8zm4.1-4.6h2.8v-3.2h-2.8zm0 4.6h2.8v-3.3h-2.8zm3.6 1.9c2.1.9 4.1 1.8 6.1 2.7l-.7 1.4c-2.2-1.1-4.2-2-6.1-2.9zm3.2-9.7h-2.8v3.2h2.8zm-2.7 7.8h2.8v-3.3h-2.8z"/></g></svg>