<svg enable-background="new 0 0 400 400" viewBox="0 0 400 400" xmlns="http://www.w3.org/2000/svg"><g fill="#010102"><path d="m236.99 39.1c4.56 1.02 9.13 2.04 13.69 3.07.72.16 1.42.47 2.15.56 8.96 1.12 15.99 5.76 21.92 12.22 3.91 4.27 6.24 9.6 6.33 15.23.09 5.84-1.04 11.73-1.97 17.54-.28 1.76-1.7 3.33-2.58 5-1.83 3.45-3.81 6.83-5.42 10.38-1.17 2.57-.74 5.01.51 7.82 2.03 4.59 3.12 9.61 4.43 14.5 1.08 4.07 1.39 8.41 2.96 12.26 2.61 6.42 2.09 13.14 2.79 19.73 1.2 11.26 2.81 22.36 5.32 33.48 2.46 10.92 2.11 22.48 2.97 33.76.07.94-.36 2.09.05 2.79 4.2 7.12 3.47 15.41 5.65 22.96 1.9 6.59 3.79 13.11 4.31 19.96.07.93-.56 1.9-.86 2.86-.39-.08-.77-.15-1.16-.23-.29-1.32-.69-2.62-.85-3.96-.45-3.77-2.5-6.85-3.92-10.23-3.04-7.25-5.18-14.89-7.55-22.41-.28-.88.41-2.03.46-3.07.04-.98 0-2.03-.3-2.95-1.01-3.07-2.83-6.03-3.12-9.14-2.01-21.65-5.21-43.12-9.02-64.51-.35-1.98-.57-4.01-.56-6.01.08-11.2-4-21.37-7.93-31.53-2.67-6.91-5.1-8.65-12.17-6.59-7.29 2.13-13.97 1.25-20.73-1.12-6.6-2.31-13.03-4.97-17.97-10.3-3.26-3.52-8.15-3.51-12.28-.9-5.35 3.38-10.95 6.36-16.45 9.49-7.44 4.24-15.34 5.28-23.77 3.88-4.79-.8-9.36.2-12.69 4.19-.91 1.09-1.72 2.45-2.04 3.81-2.85 12.38-6.53 24.68-8.05 37.23-1.44 11.89-4.91 23.12-7.72 34.59-.4 1.63-.5 3.36-.55 5.05-.23 9.18-5.04 16.95-7.71 25.38-4.72 14.89-15.79 25.61-24.65 37.77-.69.95-1.83 1.57-2.76 2.34-.35-.15-.69-.3-1.04-.45.33-1.48.17-3.42 1.06-4.36 14.47-15.26 21.33-34.12 25.74-54.12 1.69-7.65 3.02-15.38 4.51-23.07.02-.1 0-.22.04-.31 4.48-10.73 2.83-22.51 5.68-33.52.05-.2-.01-.48.1-.62 4.01-5.15 2.49-11.8 4.77-17.48 2.26-5.64 3.72-11.6 5.53-17.42.12-.4.44-.88.33-1.19-1.72-4.64-3.5-9.26-5.27-13.88-12.11-9.53-9.6-21.62-5.84-33.85 2.72-8.85 9.48-14.9 15.4-21.5 6.02-1.3 9.54-8.35 17.44-7.02-1.18 1.23-1.98 2.3-3 3.08-8.62 6.59-16.29 14.04-19.95 24.56-2.68 7.71-4.83 15.65-3.11 23.95 1.2 5.77 3.39 10.97 10.31 12.73 2.28-4.01 4.71-8.32 7.19-12.59.52-.9 1.1-1.84 1.86-2.51 3.95-3.47 8.05-6.78 11.96-10.3 4.01-3.62 7.82-7.47 11.79-11.14 5.95-5.52 12.89-9.19 21.84-10.79-2.33 2.36-3.91 4.79-6.15 6.08-11.33 6.52-20.36 15.51-28.23 25.73-3.68 4.78-7.28 9.72-10.1 15.03-4.21 7.93-4.13 8.63 5.24 10.51 3.33.67 7.22-.13 10.56-1.19 7.76-2.48 15.37-5.43 22.96-8.4 2.33-.91 4.42-2.46 6.56-3.8 2.43-1.51 4.75-2.46 7 .29.32.39.84.67 1.33.84 9.15 3.28 18.24 6.71 27.48 9.71 4.43 1.44 9.03.72 13.41-.95 3.67-1.39 4.76-3.43 3.28-7.01-1.06-2.57-2.23-5.21-3.9-7.4-9.66-12.66-20.15-24.6-32.36-34.91-.41-.34-.91-.56-2.1-1.29 5.09.37 11.79 3.25 14.49 5.87 6.78 6.56 13.7 13 20.26 19.77 3 3.09 5.31 6.85 7.9 10.34 2.18 2.94 6.39 2.83 8.43-.28 5.51-8.38 5.97-17.46 3.48-26.86-1.48-5.57-4.95-9.6-9.99-12.46-3.28-1.86-6.15-4.44-9.48-6.2-2.47-1.3-5.35-1.82-8.07-2.62-2.8-.82-5.63-1.55-8.45-2.32.13-.53.24-1.06.35-1.58z"/><path d="m206.45 365.49c-1.54-7.96-3.19-15.9-4.55-23.89-.44-2.58-.32-5.3-.13-7.94.38-5.22-.64-10.02-3.23-14.6-.77-1.37-.76-3.23-.95-4.88-1.55-13.34 2.03-26.12 4.75-38.91.7-3.28 3.86-6.07 6.01-8.99 5.41-7.35 13.57-13.16 13.12-23.77-.12-2.74-.8-5.06-2.82-7.13-3.69-3.79-7.01-7.93-12.21-9.9-.95-.36-1.75-1.51-2.27-2.48-1.56-2.88-2.88-5.9-4.43-8.79-2.76-5.16-5.58-6.92-11.39-5.86-11.54 2.12-22.23-1.35-33.03-4.31-.85-.23-1.63-.74-3.35-1.55 1.96-.47 3-.91 4.05-.95 10.26-.39 20.52-.74 30.79-1.04 1.89-.06 3.8.15 5.7.21 3.36.11 4.5-1.46 3.99-4.74-.48-3.1-1.13-6.35-.64-9.37.78-4.88-1.95-5.62-5.46-6.19-.92-.15-1.9 0-2.85.07-5.85.43-11.51.11-16.63-4.93 2.53-.62 4.8-1.53 7.13-1.69 7.26-.5 14.48-.69 21.76-1.77 6.92-1.02 14.25.54 21.37 1.26 3.22.32 6.4 1.25 9.55 2.08 1.29.34 2.45 1.16 4.43 2.14-5.06 2.67-9.53 2.77-14.04 2.61-3.07-.11-6.14-.47-9.21-.39-8.68.22-11.63 4.38-9.26 12.79 2.23 7.93 4.1 8.88 12.39 9.06 9.3.21 18.58 1.25 27.87 1.9 2.96.21 5.95.1 8.87.51 1.68.24 3.25 1.21 4.87 1.86-.05.55-.11 1.11-.16 1.66-4.6.73-9.18 1.93-13.8 2.09-9.62.33-19.25.07-28.88.15-2.26.02-5.06-1.13-6.31 2.08-.83 2.13.72 6.93 2.9 8.58 3.97 3 7.95 6 12.04 8.84 10.9 7.57 11.79 18.51 3.17 28.74-6.39 7.57-12.08 15.8-17.44 24.15-4.01 6.26-4.66 13.62-5.14 21.04-.47 7.17.43 13.97 1.66 20.98 1.16 6.61.61 13.51.96 20.27.09 1.85.59 3.7 1.1 5.49 1.45 5.11 2.54 10.19.71 15.37-.33.03-.67.09-1.01.14z"/><path d="m211.63 153.48c-.55-2.8-.1-4.87 2.61-6.68 2.96-1.97 5.74-4.43 8-7.17 1.41-1.71 2.12-4.29 2.41-6.58.43-3.34.01-6.78.32-10.14.17-1.8 1.11-3.53 1.86-5.76 3.42 2.93 4.7 6.29 5.25 9.99.22 1.46.18 2.96.33 4.44.61 6.11 2.4 11.31 9.2 13.27 3.63 1.04 6.41 3.29 8.38 6.78 1.01 1.8 3.16 3.03 4.94 4.31 1.84 1.31 3.02 2.79 2.78 4.94-7.33-4.37-14.76-8.44-21.79-13.11-4.87-3.24-12.56-.92-16.69 2.61-2.14 1.84-4.1 4.14-7.6 3.1z"/><path d="m175.83 118.19c.96 1.21 2.17 2.3 2.81 3.66.56 1.19.8 2.72.65 4.04-.89 7.93 3.56 13.17 8.92 17.88 4.77 4.19 9.77 8.12 14.58 12.28.64.56.72 1.77 1.06 2.67-1.21-.06-2.96.37-3.55-.27-5.28-5.69-11.86-9.51-18.47-13.32-2.06-1.18-3.99-1.23-6.32-.68-4.66 1.11-8.64 3-11.88 6.68-1.54 1.74-3.83 2.82-5.78 4.21-.29-.23-.58-.47-.88-.7.78-1.48 1.27-3.25 2.4-4.38 8.76-8.82 15.15-18.77 15.68-31.71.25-.11.52-.23.78-.36z"/></g><path d="m2.6 9.9.8-1c.9.7 1.9 1.4 2.9 2.3l-.9 1.1c-1.1-1-2-1.8-2.8-2.4zm.5 10.6c.9-2.1 1.6-4.3 2.3-6.7.4.2.8.4 1.3.6-.7 2.1-1.5 4.3-2.2 6.6zm.3-15.2.9-.9c1 .8 2 1.6 2.8 2.4l-1 1c-.9-.9-1.8-1.7-2.7-2.5zm12.6-1.2h1.2v1.4h2.7v1.1h-2.7v2.7h-1.2v-.6h-1.8v1.3h4.9v3.8h-1.2v-.5h-3.7c0 .4-.1.9-.1 1.2h5.1v1h-5.2c0 .5-.1.9-.2 1.2h6v1h-5.2c1.1 1.3 2.9 2 5.5 2.2-.4.4-.7.8-.9 1.3-2.9-.5-4.8-1.6-5.7-3.5h-.1c-.8 1.7-2.7 2.9-5.9 3.6-.2-.4-.6-.8-.9-1.1 2.8-.6 4.6-1.4 5.4-2.5h-4.8v-1h5.3c.1-.3.2-.7.2-1.2h-4.9v-1h5c0-.4 0-.8.1-1.2h-3.6v.5h-1.2v-3.8h4.9v-1.3h-1.8v.5h-1.2v-2.7h-2.7v-1h2.7v-1.4h1.2v1.4h4.8zm-6.7 8.3h3.6c0-.4 0-.9 0-1.4h-3.6zm1.9-4.6h4.8v-1.3h-4.7v1.3zm6.7 3.2h-3.7v1.4h3.7z" fill="#fcfbfa"/><path d="m8.7 22.1h1.3v2.2h2.8v-2.2h1.3v2.2h4.1v9.1h1.7v1.3h-17v-1.3h1.7v-9.1h4.1zm.3 13.1.7 1.2c-1.8.9-3.8 1.9-6 2.9-.2-.4-.5-.8-.8-1.3 2.3-1 4.4-1.9 6.1-2.8zm-3.1-6.4h2.8v-3.2h-2.8zm0 4.6h2.8v-3.3h-2.8zm4.1-4.6h2.8v-3.2h-2.8zm0 4.6h2.8v-3.3h-2.8zm3.6 1.9c2.1.9 4.1 1.8 6.1 2.7l-.7 1.4c-2.2-1.1-4.2-2-6.1-2.9zm3.2-9.7h-2.8v3.2h2.8zm-2.7 7.8h2.8v-3.3h-2.8z" fill="#fcfbfa"/></svg>