<svg enable-background="new 0 0 400 400" viewBox="0 0 400 400" xmlns="http://www.w3.org/2000/svg"><path d="m275.44 366.06c-.8-.72-1.9-1.3-2.36-2.2-7.82-15.12-13.83-30.88-16.63-47.76-.74-4.49-1.44-9.03-2.73-13.38-2.98-10.1-2.59-20.29-1.5-30.55.2-1.9.07-3.86.5-5.69.48-2.05 1.41-3.99 2.17-5.97.49-1.27 1.18-2.48 1.55-3.78 1.35-4.76 2.69-9.53 3.85-14.35.41-1.68.37-3.49.39-5.25.01-.83-.38-1.65-.5-2.48-.91-6.04-2.74-11.54-7.19-16.14-2.37-2.45-3.89-5.78-5.53-8.85-2.23-4.16-3.3-8.59-3.21-13.42.16-7.84-.25-15.69-.13-23.53.05-2.94-1.14-4.81-3.34-6.35-.35-.24-.69-.5-1.04-.73-5.35-3.53-5.42-3.61-10.22.69-.86.77-1.36 2.48-1.24 3.68.6 6.06 2.61 12.12-.19 18.13-.98 2.1-1.86 4.27-3.12 6.19-2.9 4.43-6.15 8.64-8.98 13.12-2.75 4.36-5.78 8.27-7.07 13.83-1.83 7.91-1.13 15.05 1.23 22.38.81 2.51 1.78 5 2.95 7.36 7.02 14.13 7.05 28.51 1.86 43.18-.83 2.35-.96 4.93-1.49 7.39-.22 1.01-.65 1.98-.94 2.98-.64 2.19-1.23 4.39-1.88 6.58-.38 1.28-.57 2.72-1.31 3.76-5.52 7.77-11.11 15.49-16.79 23.15-2.38 3.21-4.86 6.45-9.75 7.8 1.5-3.71 1.64-7.34 4.72-9.81 1.12-.9 2.3-2.15 2.7-3.47 2.71-8.87 8.92-16.3 10.06-25.89.64-5.38 3.27-10.5 4.25-15.87 2.04-11.26 2.09-22.56-.84-33.74-.21-.81-.3-1.8-.82-2.35-4.87-5.18-5.26-11.84-6.21-18.32-.4-2.72-.83-5.46-.99-8.2-.1-1.75-.01-3.6.48-5.26.95-3.24 2.36-6.35 3.36-9.58 2.41-7.82 8.23-13.17 13.36-19.07 3.73-4.3 5.39-9.38 4.96-15.17-.14-1.95.19-4 .64-5.92 1.62-6.83-1.56-11.58-8.56-12.7-1.01-.16-1.97-.71-2.92-1.17-4.29-2.08-8.42-4.56-12.87-6.19-7.2-2.64-10.71-8.18-12.81-15.61 1.18.46 2.54.69 3.52 1.42 6.53 4.85 13.63 8.52 21.52 10.61 1.3.34 2.66.43 4.42.7-.28-3.98.94-7.52-2.01-11.02-2.58-3.06-4.08-7.04-6.02-10.64-2.29-4.25-1.69-8.83-1.55-13.39.16-5 2.13-8.78 5.6-12.54 5.47-5.94 11.63-10.06 19.29-12.63 6.67-2.24 13.14-4.18 20.34-3.9 7.51.3 17.59-7.28 20.26-14.29 2.23-5.83 4.47-11.66 5.96-17.36-.52-1.75-1.02-3.52-1.58-5.26-.43-1.34-.87-2.68-1.44-3.96-.51-1.15-1.25-2.2-1.81-3.33-1.15-2.33-.83-4.05 2-4.77.81-.21 1.64-.54 2.32-1.02 3.87-2.77 6.72.18 9.76 1.77.42.22.74 1.33.58 1.87-1.49 4.97-.44 9.9.21 14.8.7 5.34-.33 10.26-2.39 15.17-2.21 5.26-4.48 10.55-5.93 16.03-.76 2.86-.63 6.55.55 9.22 3.1 7.03 6.98 13.73 10.59 20.53 2.57 4.84 5.24 9.64 7.83 14.47.28.52.28 1.18.48 2.08-3.28-.62-5.78-1.57-7.82-4.33-3.26-4.42-6.8-8.74-10.8-12.48-4.43-4.16-7.15-9.1-9.04-14.69-1.36-3.99-3.48-7.27-7.98-8.22-.51-.11-1.04-.32-1.54-.28-9.4.83-16.4 9.89-14.31 19.22 1.64 7.32 4.19 14.43 6.1 21.7.49 1.87.1 3.98.11 5.98-1.63-1.15-3.29-2.26-4.87-3.46-.58-.44-.91-1.17-1.45-1.68-7.47-7.03-11.58-15.63-12.62-25.85-.35-3.49-5.77-5.54-8.73-3.64-.53.34-1.11.78-1.69.83-4.92.46-6.87 3.7-6.83 8.03.07 7.08.61 14.15 1 21.22.03.49.41.96.63 1.44 1.6 3.52 3.6 6.91 4.7 10.58 1.32 4.36 3.22 6.93 8.2 7.78 7.36 1.26 14.52 3.67 21.77 5.56 2.55.66 5.09 1.59 7.68 1.76 8.93.57 15.95 5.94 23.77 9.25 1.07.45 1.77 1.78 2.64 2.7 4.59 4.82 9 9.83 13.81 14.42 5.35 5.11 8.23 11.82 9.12 18.49.75 5.66 3.22 11.05 2.73 16.9-.38 4.55-.5 9.12-.73 13.68-.43.04-.86.08-1.3.12-.51-1.73-.98-3.48-1.54-5.2-3.39-10.35-6.16-20.97-10.45-30.93-2.44-5.66-7.08-10.5-11.24-15.27-6.63-7.59-15.68-11.52-24.9-14.93-1.63-.6-4.9-.78-5.23-.09-1.11 2.26-2.96 4.58-1.51 7.68.74 1.58.17 3.73.39 5.6.31 2.67.43 5.44 1.29 7.94 1.21 3.49 2.99 6.72 2.77 10.63-.07 1.17.92 2.5 1.65 3.61 3.77 5.72 8.88 10.55 11.15 17.26 2.16 6.37 3.85 12.81 3.03 19.6-.26 2.16-1.07 4.26-1.67 6.38-.26.91-.81 1.76-.94 2.68-.7 4.86-2.64 8.99-5.23 13.28-2.23 3.69-2.62 9.01-2.43 13.55.63 15.11.85 30.31 5.36 45 .88 2.87.94 6.1.85 9.14-.23 7.67 2.99 14.45 5.2 21.48 1.1 3.5 2.56 6.89 3.86 10.34-.42.41-.88.8-1.33 1.19z" fill="#010102"/><path d="m197.45 55.13c-.97 1.22-1.87 2.5-2.92 3.65-8.7 9.45-17.4 18.92-22.84 30.75-1.42 3.09-2.02 6.55-3.04 9.82-.28.9-.69 1.76-1.08 2.62-4.66 10.36-4.63 20.67.33 30.93.27.56.79 1.3.62 1.72-2.32 5.68 1.01 10.82 1.96 16 1.55 8.48 2.54 16.69 2.21 25.41-.23 5.96.32 12.1-1.32 17.79-3.36 11.61-4.96 23.78-10.61 34.73-1.1 2.14-1.11 4.84-1.62 7.29-.56 2.68-1.15 5.35-1.66 8.04-.91 4.87-2.29 9.73-2.52 14.63-.29 6.05.38 12.15-4.24 16.76.23.57.25.87.39.94 5.07 2.83 6.85 6.81 5.64 12.7-.57 2.79 1.05 5.95 1.04 8.95-.01 6.43.09 12.93-.8 19.27-1.45 10.26-3.57 20.44-5.59 30.61-.95 4.78-2.26 9.53-6.06 13.01-.81.74-1.84 1.23-2.76 1.83-.3-.16-.6-.33-.9-.49.69-2.43 1.42-4.84 2.06-7.28.59-2.23 1.43-4.47 1.58-6.74.69-10.57 1.8-21.18 1.54-31.74-.23-9.71 1.42-19.68-2.32-29.17-.54-1.38-.2-3.1-.28-4.66-.32-5.89-.43-11.8-1.06-17.66-.48-4.47-1.93-5.7-7.9-5.48-2.31.08-4.69 1.02-6.9.66-5.41-.89-10.76-2.18-16.06-3.56-2.08-.54-3.56-.32-5.14 1.17-4.9 4.61-10.88 8.11-14.1 14.45-.54 1.07-2.79 1.28-4.25 1.89-.15-1.33-.82-2.89-.36-3.96 2.18-5.02 3.89-10.52 7.2-14.73 8.51-10.83 8.8-22.89 7.28-35.61-.84-7-2.68-13.46-7.33-18.92-.59-.7-1.02-1.54-2.01-3.06 2.35.53 3.99.7 5.47 1.28 7.29 2.8 13.37 7.12 15.58 15.01 1.79 6.4 5.92 8.34 12.01 7.91 7.07-.49 14.15-.79 21.23-1.15 1.75-.09 2.5-.96 2.94-2.67 2.43-9.43 5.06-18.81 7.47-28.25.49-1.91.37-3.98.55-5.98.47-5.47 1.01-10.93 1.39-16.4.09-1.25-.39-2.54-.58-3.82-.29-1.96-.51-3.93-.85-5.88-.5-2.87-.58-5.96-1.81-8.49-.72-1.48-3.28-2.78-5.09-2.89-7.36-.45-14.76-.33-22.13-.58-4.13-.14-8.24-.77-12.36-.85-1.19-.02-2.9.76-3.52 1.72-3.21 5.03-7.5 8.82-12.35 12.19-3.34 2.33-6.37 5.11-10.16 7.24.36-.72.67-1.48 1.1-2.16 1.56-2.48 3.32-4.85 4.69-7.43 1.48-2.79 2.94-5.67 3.83-8.69 1.92-6.52 3.98-13.06 5.01-19.75.84-5.5.47-11.22.28-16.83-.21-6.13-2.22-11.55-7.62-15.17-2.83-1.89-5.62-3.8-6.29-8.47 3.41.77 6.55 1.13 9.4 2.23 3.04 1.18 5.84 2.99 8.65 4.67 1.03.62 2 1.56 2.65 2.58 2.05 3.21 4.06 6.46 5.86 9.83 1.72 3.22 4.41 4.44 7.67 3.54 5.58-1.54 11.06-1.23 16.68-.44 5.32.75 9.33-2.07 11.25-7.5.6-1.69 1.17-3.42 1.55-5.17 1.83-8.34 5.53-15.72 11.15-22.13 1.11-1.27 2.19-2.59 3.47-3.68 4.67-4 9.36-7.98 14.17-11.81 1.34-1.07 3.12-1.6 4.7-2.37 1.68-.82 3.35-1.64 5.04-2.41.71-.33 1.47-.54 2.21-.8.2.34.39.67.58 1.01zm-75.59 197.68c.03.21.06.42.09.64 5.51-.95 11.05-1.75 16.5-2.95 1.43-.32 3.35-1.66 3.73-2.93 1.11-3.7 1.84-7.58 2.18-11.43.23-2.59-1.07-4.66-4.12-5.07-6.92-.94-13.84-1.93-20.74-3.02-2.06-.32-2.77.62-3.38 2.34-1.58 4.49-3.32 8.93-4.99 13.39-1.93 5.15.19 8.57 5.64 9.01 1.69.13 3.4.02 5.09.02zm29.69-115.34c1.68-4.33 2.02-9.65.9-14.99-.68-3.24-4.57-6.11-6.75-4.87-5.81 3.3-11.73 2.34-17.6.96-3.55-.84-6.08-.05-8.43 2.51-1.42 1.54-1.85 12.09-.38 13.56.15.15.34.27.53.34 2.49.84 4.95 2.29 7.47 2.39 7.91.3 15.83.1 24.26.1z" fill="#010102"/><g fill="#fcfbfa"><path d="m2.6 9.9.8-1c.9.7 1.9 1.4 2.9 2.3l-.9 1.1c-1.1-1-2-1.8-2.8-2.4zm.5 10.6c.9-2.1 1.6-4.3 2.3-6.7.4.2.8.4 1.3.6-.7 2.1-1.5 4.3-2.2 6.6zm.3-15.2.9-.9c1 .8 2 1.6 2.8 2.4l-1 1c-.9-.9-1.8-1.7-2.7-2.5zm12.6-1.2h1.2v1.4h2.7v1.1h-2.7v2.7h-1.2v-.6h-1.8v1.3h4.9v3.8h-1.2v-.5h-3.7c0 .4-.1.9-.1 1.2h5.1v1h-5.2c0 .5-.1.9-.2 1.2h6v1h-5.2c1.1 1.3 2.9 2 5.5 2.2-.4.4-.7.8-.9 1.3-2.9-.5-4.8-1.6-5.7-3.5h-.1c-.8 1.7-2.7 2.9-5.9 3.6-.2-.4-.6-.8-.9-1.1 2.8-.6 4.6-1.4 5.4-2.5h-4.8v-1h5.3c.1-.3.2-.7.2-1.2h-4.9v-1h5c0-.4 0-.8.1-1.2h-3.6v.5h-1.2v-3.8h4.9v-1.3h-1.8v.5h-1.2v-2.7h-2.7v-1h2.7v-1.4h1.2v1.4h4.8zm-6.7 8.3h3.6c0-.4 0-.9 0-1.4h-3.6zm1.9-4.6h4.8v-1.3h-4.7v1.3zm6.7 3.2h-3.7v1.4h3.7z"/><path d="m8.7 22.1h1.3v2.2h2.8v-2.2h1.3v2.2h4.1v9.1h1.7v1.3h-17v-1.3h1.7v-9.1h4.1zm.3 13.1.7 1.2c-1.8.9-3.8 1.9-6 2.9-.2-.4-.5-.8-.8-1.3 2.3-1 4.4-1.9 6.1-2.8zm-3.1-6.4h2.8v-3.2h-2.8zm0 4.6h2.8v-3.3h-2.8zm4.1-4.6h2.8v-3.2h-2.8zm0 4.6h2.8v-3.3h-2.8zm3.6 1.9c2.1.9 4.1 1.8 6.1 2.7l-.7 1.4c-2.2-1.1-4.2-2-6.1-2.9zm3.2-9.7h-2.8v3.2h2.8zm-2.7 7.8h2.8v-3.3h-2.8z"/></g></svg>