<svg enable-background="new 0 0 400 400" viewBox="0 0 400 400" xmlns="http://www.w3.org/2000/svg"><g fill="#010102"><path d="m158.15 163.97c4.34-1.14 6.2 2.13 8.2 4.89 1.82 2.52 3.26 5.19 1.57 8.53-.67 1.33-.81 2.98-.98 4.51-.26 2.37-.35 4.77-.53 7.42-.11-.12.01.14.16.16 6.06.93 9.11 4.86 10.89 10.39.58 1.81 2.31 3.21 3.19 4.96 1.37 2.72 1.03 6.12 3.3 8.54.15.16-.27.94-.53 1.37-1.81 2.94-1.21 4.38 2.22 4.85 1.22.17 2.5-.14 3.76-.22 1.5-.09 3.01-.16 4.98-.26-3.22 3.11-6.15 5.51-8.5 8.39-.96 1.18-.63 3.4-.95 5.14-.38 2.1.71 5.63-2.7 5.38-2.82-.21-1.34-3.47-1.54-5.35-.29-2.77-.07-5.31-1.74-8.07-1.8-2.98.16-6.37 1.79-8.5-1.27-3.27-2.64-6.1-3.47-9.07-2.68-9.7-8.63-13.86-18.58-12.59-2.37.3-4.84.72-5.63 3.62-.02.08-.13.19-.21.21-5.35 1.43-6.89 6.87-10.57 10.06-2.09 1.81-5.3 3.89-3.73 6.57 1.39 2.38 4.72 4.24 7.55 5.01 3.16.85 6.72.19 10.21.19.48 1.65.88 3.04 1.33 4.6 1.42-.33 2.73-.62 4.23-.97 2.28 5.19 4.52 10.3 7.18 16.35-1.62-.26-2.96-.08-3.58-.65-2.62-2.44-5.23-4.94-7.47-7.72-3.59-4.46-7.19-8.54-13.52-8.98-1.75-.12-3.41-1.57-5.12-2.38-5.8-2.75-10.44-.51-11.38 5.87-.73 4.91-.87 9.91-1.25 14.88-.19 2.46 1.41 3.8 3.41 4.29 2.65.65 5.42.78 8.14 1.17 2.08.29 4.24.39 6.2 1.04.98.33 1.99 1.6 2.31 2.65.67 2.19.88 4.51 1.31 6.92-2.33-1.45-4.93-3.12-7.59-4.7-1.72-1.02-3.43-2.17-5.29-2.8-4.99-1.69-7.27-.72-9.74 3.77-.96 1.75-1.9 3.52-2.93 5.44 1.02.62 1.87 1.15 2.94 1.81-1.65 3.77-.55 7.23.94 10.72 1.4 3.27 2.53 6.66 3.85 10.17-1.19.48-2.15.86-3.27 1.32-1.9-3.3-3.77-6.49-5.57-9.71-.34-.62-.52-1.37-.6-2.08-.47-3.9-.85-7.8-1.37-11.69-.1-.78-.5-1.66-1.04-2.22-2.08-2.17-2.38-4.34-.41-6.72.26-.31.42-.75.5-1.16 1.16-5.4 2.3-10.8 3.42-16.21.15-.72-.1-1.83.31-2.15 4.07-3.11 3.29-7.98 4.46-12.1.99-3.51 2.1-6.4 6.63-6.17 2.05.1 3-1.53 3.35-3.57.19-1.13.74-2.38 1.51-3.21 2.86-3.07 5.83-6.03 8.85-8.94 1.64-1.58 3.29-3.31 5.26-4.37 3.74-2.02 5.64-4.61 7.02-8.95 1.63-5.12 1.3-9.7.38-14.55-.29-1.75-1.01-3.4-1.56-5.13z"/><path d="m222.25 258.52c-5.23-3.52-10.36-2.97-15.75-2.57-4.88.36-9.88-1.28-14.81-1.2-4.68.07-9.35 1.19-14.01 1.93-.54.09-1.28.64-1.43 1.14-1.77 5.61-7.41 8.23-10.07 13.09-4.07 7.44-7.75 15.03-8.48 23.72-.13 1.51-1.63 2.86-2.18 4.39-.49 1.37-1.28 3.62-.67 4.23 2.21 2.25 1.15 3.92-.34 5.74 2.81 4.65 1.79 9.07-.33 13.61 3.78 5.18 4.65 11.49 5.5 17.78.08.6-.61 1.31-.94 1.97-.53-.37-1.37-.62-1.54-1.11-2.3-6.78-5.44-13.45-6.53-20.44-1.9-12.17-.29-24.47 3.2-36.17 2.51-8.42 7.26-16.17 13.17-22.79 2.26-2.53 4.62-4.68 5.89-7.95 1.24-3.2 4.69-2 6.74-1.86 5.67.4 10.66-.68 15.25-3.97.51-.37 1.53-.54 2.06-.29 6.19 3 12.17.9 18.2-.59 5.39-1.33 4.96-1.31 5.15-6.78.1-2.92-.61-5.99 1.2-9.09 1.28-2.19.57-5.54.75-8.37 5.18.55 7.85 4.89 5.84 9.44-.39.87-.8 1.73-1.2 2.6-2.41 5.28-1.01 8.11 4.14 10.51 4.37 2.03 8.58 1.64 12.99.85 3.43-.62 6.89-1.37 10.28.23 3.55 1.68 6.95.3 10.49-.2 3.35-.47 6.86-.1 10.26.24 1.15.11 2.19 1.26 3.28 1.94-.06.46-.13.91-.19 1.37-4.63.55-9.29 1.68-13.9 1.53-8.3-.26-16.47-.29-24.57 1.92-3.07.84-6.23.7-8.68-2.2-1.67-1.98-4.42-1.3-5.57 1.07-1.01 2.06-2.07 4.06-3.2 6.28z"/><path d="m241.69 124.87c.03.61.1.83.04 1.02-2.41 7.08-2.4 7.07 3.52 11.27.56.4 1.32 1.03 1.36 1.59.24 4.4 3.93 5.33 7.09 7.43.57-1.72 1.05-3.16 1.53-4.6.34-.02.67-.04 1.01-.07.22 2.65.8 5.34.56 7.95-.32 3.57-1.54 7.11 1.67 10.04.22.2.47.57.44.82-.43 2.88-.81 5.77-1.4 8.63-.4 1.95-1.24 3.82-1.65 5.77-1.55 7.25-6.54 12.35-13.17 13.29-.83-3-.27-5.57 2.15-7.7 2.2-1.93 4.43-3.86 6.42-5.99 1.03-1.11 1.57-2.69 2.35-4.04 2.98-5.17 1.87-9.62-2.32-13.59-.82-.78-1.41-1.8-1.8-2.31-3.47 2.26-6.69 4.61-10.16 6.52-1.94 1.07-3.56.42-3.33-1.38 2.88-2.36 5.51-3.97 7.43-6.2 3.3-3.84 3.2-6.85-.05-10.65-2.17-2.53-4.62-4.84-7.13-7.05-1.17-1.04-2.48-.75-3.42.78-.83 1.35-1.74 2.71-2.87 3.79-1.13 1.07-2.64 1.71-3.89 2.67-1.46 1.13-2.82 2.41-4.86 3.47.5-1.68.69-3.54 1.56-5 3.93-6.58 3.43-15.55-1.35-21.75-3.72-4.82-6.46-10.04-5.24-16.39.26-1.35 1.26-2.84 2.36-3.68 3.34-2.54 4.23-3.96 4.36-8.4-1.63-1.06-3.21-2.1-5.08-3.32 1.3-1.17 2-1.97 2.86-2.54 2.05-1.35 2.09-3.51 2.88-5.55 1.98-5.15 4.71-10.04 7.48-14.84.86-1.49 4.28-.27 4.38 1.56.14 2.53 1.15 5.39-1.42 6.96.94 4.34-.59 7.81-2.41 11.21-1.96 3.65-4.37 7.12-5.86 10.96-1.52 3.91-2.3 8.14-3.09 12.3-.22 1.18.26 2.98 1.09 3.8 2.63 2.56 5.59 4.8 8.8 7.48-.63.97-1.45 2.24-2.62 4.05 4.05.57 7.96 1.13 11.78 1.69z"/><path d="m263.4 335.16c-3.36 0-6.53.92-8.32-.25-1.87-1.22-2.41-4.47-3.87-7.55-1.39 3.48-4.82 5.23-3.5 9.38.36 1.14-1.09 2.85-1.81 4.53 1.67 1.11 3.4 2.27 5.19 3.47 1.37-1.28 2.66-2.48 4.44-4.14.91 7.11.91 13.83 9.04 17.15-.94 2.03-1.8 4.73-3.36 6.94-1.08 1.53-3.12 2.14-5.02.55-1.95-1.63-4.39-2.89-5.8-4.89-1.12-1.58-1.23-4.02-1.27-6.09-.01-.5 2.05-.98 3.09-1.59.85-.5 1.59-1.18 2.56-1.91-.88-.55-1.37-.99-1.95-1.19-6.9-2.45-11.37-7.4-14.35-13.89-.26-.57-.93-1.13-.89-1.65.3-3.67-2.34-5.83-3.92-8.64-2.4-4.26-3.87-9.05-5.67-13.64-.8-2.04-1.16-4.3-2.2-6.19-4.66-8.44-6.7-17.44-6.17-27.03.04-.78.59-1.83 1.23-2.21 2.51-1.52 5.16-2.82 7.8-4.22.96 3.18.96 3.18-4.42 10.84 1.63 1.48 3.57 2.85 4.96 4.65 1.1 1.42 2.24 3.41 2.12 5.05-.28 3.79-1.02 7.61-2.14 11.25-1.33 4.3-.62 6.66 3.52 8.18 1.87.69 3.94.88 5.8 1.6 1.73.67 3.45 1.57 4.88 2.73.54.44.72 2.29.27 2.84-1.94 2.33-.81 4.57 0 6.71.22.58 1.83 1.07 2.65.9 1.84-.39 3.59-1.21 5.36-1.88.98-.37 1.91-1.02 2.92-1.19 2.84-.47 5.39-.43 6.2 3.32.52 2.58 1.62 5.07 2.63 8.06z"/><path d="m149.63 42.06c-.84 5.04-1.55 10.11-2.59 15.11-.28 1.33-1.41 2.59-2.4 3.65-1.69 1.81-3.08 3.56-1.3 6.08-3.01 2.27-7.58 3.14-7.04 7.87.19 1.64 1.97 3.1 3.2 4.91 1.49-1.78 2.54-3.04 3.59-4.29.26.13.52.26.78.4-.6 1.49-1.21 2.98-1.96 4.85.82.51 2.07 1.21 3.22 2.04.73.53 1.71 1.18 1.89 1.93.49 2.1 2.69 3.19 3.24 4.58 2.89 7.38 10.6 11.27 13.04 18.84 2.28 7.08 2.08 14.09-.2 21.11-.33 1-.59 2.04-.78 3.08-.41 2.25-1.41 3.75-3.77 4.58-1.95.69-3.5 2.49-5.45 3.16-3.63 1.26-7.41 2.05-11.45 3.12-.45-2.08-.73-3.37-1.04-4.79.69-.32 1.23-.61 1.8-.83 5.56-2.13 9.97-5.34 11.18-11.65.12-.61.37-1.29.79-1.71 5.33-5.34 2.97-11.57 2.02-17.61-.12-.73-1.05-1.57-1.8-1.9-2.03-.88-4.27-1.3-6.23-2.3-2.44-1.25-4.69-2.89-7.51-4.68 1.93-1.44 3.07-2.29 4.11-3.07-1.6-1.54-3.14-3.03-4.68-4.51.14-.22.28-.43.43-.65-.71.05-1.43.11-2.14.14-2.21.08-3.48-.86-3.19-3.21.32-2.5-.65-4.39-2.12-6.36-.96-1.28-1.44-3.17-1.48-4.81-.07-2.52.4-5.06.67-7.59.07-.62.13-1.62.48-1.76 3.46-1.42 3.02-4.78 3.9-7.48.23-.7.27-1.76.75-2.03 5.72-3.27 7.18-9.77 11.09-14.39.3.05.63.11.95.17z"/><path d="m217.33 216.98c-2.34 1.6-3.98 3.6-5.84 3.82-4.29.51-8.9 2.61-12.66-.91 7.03-1.93 14.28-3.93 22.11-6.08.51-1.97 1.22-4.7 1.96-7.54 4.9.4 9.07 1.42 11.46 6.43 1.59 3.34 3.52 3.59 7.18 2.49 2.22-.67 4.5-1.26 6.8-1.49 1.03-.1 2.39.49 3.18 1.23 1.44 1.34 2.79 1.59 4.19.32 2.28-2.06 4.52-2.95 7.3-.85.66.5 1.81.36 2.85.53.58 1.89.17 2.98-2.01 3.25-7.43.91-14.77 2.74-22.39 1.38-1.52-.27-3.51.91-4.99 1.88-1.88 1.24-3.25 2.2-4.91-.35-.51-.78-2.31-1.38-3.25-1.11-3.98 1.14-7.28.41-10.12-2.6-.33-.35-.95-.43-.86-.4z"/><path d="m125.41 196.98c-.9-.45-2.38-.71-2.61-1.39-2.46-7.15-5.81-14.05-5.09-22.03.7-7.75 3.46-14.52 8.33-20.48.68-.83 1.78-1.49 2.82-1.8 3-.87 5.56-2.12 7.66-4.68.74-.9 3.23-.83 4.72-.44.58.15.92 2.41.8 3.66-.07.68-1.28 1.3-2.05 1.86-2.25 1.63-4.77 2.98-6.73 4.9-2.09 2.05-3.69 4.63-5.46 7-3.13 4.19-4.92 8.72-4.48 14.14.21 2.54-.89 5.17-.89 7.75 0 2.32.51 4.69 1.18 6.92.4 1.34 1.52 2.47 2.32 3.69-.18.31-.35.61-.52.9z"/><path d="m229.25 60.15c-.39-.93-.8-1.67-1.01-2.47-1.85-6.8-5.08-12.7-10.88-16.97-2.04-1.5-1.56-3.4-.84-5.46 7.76 5.26 12.85 12.69 17.71 20.25 1.04 1.61.66 3.78-2.13 4.08-.83.09-1.65.32-2.85.57z"/><path d="m214.72 185.53c-2.51 1.96-3.99 2.34-6.09.47-2.4-2.14-5.48-3.51-8.08-5.46-1.72-1.29-3.13-3-4.68-4.53.34-.42.69-.85 1.03-1.27 5.84 3.54 11.66 7.06 17.82 10.79z"/><path d="m226.94 196.67c-1.23.95-3.11 2.42-4.97 3.87-3.61-3.35-4.14-7.78-1.36-9.86 1.72-1.28 3.34-.62 4.01 1.38.48 1.42 1.34 2.7 2.32 4.61z"/><path d="m204.1 157.65c4.08-2.54 7.39-4.6 11.22-6.98.43 1.05 1.35 2.18 1.17 3.1-.49 2.55-6.2 5.68-9.97 5.55-.79-.03-1.56-1.04-2.42-1.67z"/><path d="m219.1 271.64c-2.33-3.52-1.84-5.36.83-6.26.68-.23 1.69.5 2.55.79-1.03 1.67-2.06 3.33-3.38 5.47z"/><path d="m185.85 248.26c-2.06.47-3.34.76-5.57 1.28.52-2.06.75-3.48 1.29-4.77.16-.38 1.63-.7 1.8-.49.88 1.11 1.53 2.39 2.48 3.98z"/><path d="m226.54 171.26c-1.58.3-3.17.59-4.75.89-.18-.27-.36-.54-.54-.81 1.07-.88 2.03-2.03 3.26-2.5.55-.21 1.62.94 2.46 1.47-.15.31-.29.63-.43.95z"/></g><path d="m2.6 9.9.8-1c.9.7 1.9 1.4 2.9 2.3l-.9 1.1c-1.1-1-2-1.8-2.8-2.4zm.5 10.6c.9-2.1 1.6-4.3 2.3-6.7.4.2.8.4 1.3.6-.7 2.1-1.5 4.3-2.2 6.6zm.3-15.2.9-.9c1 .8 2 1.6 2.8 2.4l-1 1c-.9-.9-1.8-1.7-2.7-2.5zm12.6-1.2h1.2v1.4h2.7v1.1h-2.7v2.7h-1.2v-.6h-1.8v1.3h4.9v3.8h-1.2v-.5h-3.7c0 .4-.1.9-.1 1.2h5.1v1h-5.2c0 .5-.1.9-.2 1.2h6v1h-5.2c1.1 1.3 2.9 2 5.5 2.2-.4.4-.7.8-.9 1.3-2.9-.5-4.8-1.6-5.7-3.5h-.1c-.8 1.7-2.7 2.9-5.9 3.6-.2-.4-.6-.8-.9-1.1 2.8-.6 4.6-1.4 5.4-2.5h-4.8v-1h5.3c.1-.3.2-.7.2-1.2h-4.9v-1h5c0-.4 0-.8.1-1.2h-3.6v.5h-1.2v-3.8h4.9v-1.3h-1.8v.5h-1.2v-2.7h-2.7v-1h2.7v-1.4h1.2v1.4h4.8zm-6.7 8.3h3.6c0-.4 0-.9 0-1.4h-3.6zm1.9-4.6h4.8v-1.3h-4.7v1.3zm6.7 3.2h-3.7v1.4h3.7z" fill="#fcfbfa"/><path d="m8.7 22.1h1.3v2.2h2.8v-2.2h1.3v2.2h4.1v9.1h1.7v1.3h-17v-1.3h1.7v-9.1h4.1zm.3 13.1.7 1.2c-1.8.9-3.8 1.9-6 2.9-.2-.4-.5-.8-.8-1.3 2.3-1 4.4-1.9 6.1-2.8zm-3.1-6.4h2.8v-3.2h-2.8zm0 4.6h2.8v-3.3h-2.8zm4.1-4.6h2.8v-3.2h-2.8zm0 4.6h2.8v-3.3h-2.8zm3.6 1.9c2.1.9 4.1 1.8 6.1 2.7l-.7 1.4c-2.2-1.1-4.2-2-6.1-2.9zm3.2-9.7h-2.8v3.2h2.8zm-2.7 7.8h2.8v-3.3h-2.8z" fill="#fcfbfa"/></svg>