<svg enable-background="new 0 0 400 400" viewBox="0 0 400 400" xmlns="http://www.w3.org/2000/svg"><path d="m139.47 353.65c-.49-2.44-1.45-4.69-1.28-6.85.47-6.11 1.51-12.18 2.11-18.28.23-2.37-.15-4.79-.21-7.19-.07-2.61-.49-5.28-.09-7.82 1.36-8.7.38-17.33-.27-26-.17-2.28-.43-4.83.35-6.86 2.85-7.38 1.14-15.14 2.38-22.64 1.28-7.73 2.05-15.55 2.82-23.36.27-2.68-.14-5.43-.22-8.14-.03-1.14-.18-2.31.03-3.4.61-3.22 1.02-6.55 2.17-9.59 1.92-5.1.44-9.78-.97-14.54-.75-2.53-2.98-2.74-4.92-2.43-8.87 1.42-17.27-.1-25.5-3.37-1.95-.78-4.29-.79-6.04-1.84-1.63-.98-3.09-2.7-3.87-4.43-.28-.63 1.46-2.41 2.53-3.37 3.66-3.26 8.3-2.56 12.69-3.02 3.45-.36 6.85-1.19 10.3-1.61 2.67-.32 5.43-.7 8.06-.37 4.99.64 9.68-2.17 10.56-7.19.52-3 .6-6.12.52-9.18-.08-3.15-5.59-7.67-8.68-7.84-3.66-.19-7.29-.79-10.94-1.21-4.08-.47-8.19-.74-12.22-1.49-2.72-.5-5.51-1.32-7.92-2.64-2.59-1.41-2.51-4.42.05-5.84 2.75-1.53 5.67-3.13 8.7-3.67 7.91-1.39 15.89-2.45 23.88-3.19 5.66-.53 7.07-1.74 7.53-7.45.33-4.08 1.08-8.12 1.75-12.16.75-4.53.57-8.77-2.35-12.69-2.01-2.71-3.49-5.81-5.33-8.65-3.6-5.56-7.82-6.39-12.9-2.37-2.54 2.02-4.72 4.49-7.12 6.7-3.58 3.29-7.07 6.7-10.86 9.74-4.03 3.24-8.28 6.24-12.6 9.09-1.53 1.01-3.55 1.28-5.94 2.09.82-5.29 1.45-9.3 5.12-12.7 8.8-8.16 14.9-18.35 20.51-28.89 2.7-5.08 6.7-9.49 7.45-15.51.04-.29.29-.56.49-.81 5.48-6.72 7.84-14.83 10.26-22.92.61-2.02 1.34-3.72 3.92-3.88 2.5-.16 3.85.8 4.79 3.12 2.55 6.25 5.66 12.31 7.85 18.68 1.16 3.37 1.75 6.7 4.11 9.7 1.64 2.08 2.15 5.25 2.6 8.02.42 2.6 2.02 3.18 4.08 3.65 2.13.48 3.15-.46 4.17-2.31 2.55-4.6 5.45-9.01 8.14-13.54.63-1.06 1.13-2.27 1.39-3.48 1.17-5.49 2.24-11 3.33-16.51.78-3.95 3.85-6.36 7.77-5.69 1.12.19 2.5 1.18 3.02 2.18 6.22 11.91 12.17 23.97 18.46 35.85 6.12 11.56 6.97 23.69 4.07 36.1-.58 2.46-3.44 4.72-5.77 6.32-1.72 1.19-4.06.22-5.08-1.87-3.59-7.35-9.13-13.74-10.27-22.32-.61-4.56-2.79-5.05-7.22-3.96-5.44 1.34-8.29 5.61-11.78 9.2-.57.58-.73 1.73-.77 2.62-.29 7.2-.56 14.41-.74 21.62-.22 8.83 3.75 11.75 11.52 11.99 4.44.13 8.88.38 13.32.57.63.03 1.5.27 1.86-.05 3.53-3.14 8.26-5.77 10.15-9.74 3.27-6.86 7.01-13.3 11.67-19.19 3.59-4.55 4.13-10.11 6.08-15.21.78-2.04 2.03-3.91 2.81-5.95 1.03-2.69 2.6-5.51 2.53-8.23-.12-4.05.51-7.75 2.03-11.41 1.92-4.63 3.46-9.35 3.01-14.47-.02-.21-.05-.46.04-.63 1.77-3.36 2.04-7.4 5.19-10.19 1.44-1.28 2.04-3.51 3.18-5.59.22.12 1.28.32 1.5.87 1.36 3.29 4.49 5.13 6.36 7.81 4.91 7.01 9.4 14.38 13.45 21.92 2.21 4.11 3.08 8.92 4.75 13.34.71 1.88 1.54 3.97 2.96 5.25 2.44 2.22 4.08 4.64 5.09 7.79 3.03 9.5 7.66 18.23 13.37 26.4.84 1.2 1.57 2.57 1.9 3.97.23 1.02.09 2.68-.57 3.22-1.14.93-2.96 1.92-4.23 1.64-4.43-.98-8.78-2.4-13.09-3.85-1.09-.37-2.02-1.39-2.87-2.27-3.74-3.87-7.2-8.05-11.22-11.61-2.69-2.38-4.86-4.82-6.22-8.17-2.11-5.18-9.19-5.77-12.53-1.23-2.72 3.7-5.36 7.17-9.63 9.73-3.46 2.07-7.73 4.62-8.82 9.53-.21.94-1.13 1.76-1.81 2.56-2.39 2.81-4.83 5.6-7.68 8.89 2.17.86 3.97 2.16 5.78 2.17 4.84.03 9.98.43 14.46-1 6.98-2.23 13.93-2.36 21.02-2.23.85.02 1.69.09 2.54.11 7.88.24 13.21 4.05 15.99 11.44.3.79.46 1.7.95 2.35 5.66 7.49 4.69 16.68 6.53 25.15.68 3.15.6 6.14-.46 9.31-.85 2.53-.69 5.42-.86 8.16-.22 3.48-.18 6.99-.5 10.46-.34 3.68-1.73 6.92-4.58 9.49-2.68 2.42-4.4 5.37-4.4 9.17 0 .85-.45 1.87-1.02 2.53-1.3 1.53-2.78 2.89-4.2 4.31-2.57 2.54-4.4 5.24-3.77 9.23.7 4.39 1.22 8.85 1.26 13.29.07 7.07.55 14.31-.75 21.17-1.46 7.72-.25 15.19-.11 22.75.1 5.51 1.36 11.1.69 16.49-.61 4.98.78 9.08 2.41 13.4.25.67.52 1.53.3 2.14-2.5 6.94-.09 13.6 1.06 20.33.89 5.22 1.94 10.41 2.86 15.63 1.03 5.86-.99 8.45-7.26 9.06-.34-.87-.74-1.81-1.07-2.78-5.65-16.3-11.71-32.48-16.77-48.96-2.37-7.72-3.15-15.98-4.06-24.07-.74-6.59-.61-13.28-.84-19.92-.04-1.16.38-2.45.01-3.48-2.78-7.78 1.57-15.68-.54-23.51-.52-1.92.26-4.2.47-6.31.43-4.48-1.48-6.9-5.87-7.31-7.7-.71-15.5-.87-23.09-2.2-6.6-1.15-13.04-3.4-19.4-5.61-1.35-.47-2.47-2.7-2.95-4.34-.55-1.92.41-3.23 2.8-3.55 5.32-.72 10.57-1.19 16.01-1.06 5.94.14 11.92-1.44 17.88-2.28 1.26-.18 2.52-.33 3.77-.59 5.48-1.16 7.28-3.39 7.28-8.95 0-3.82.14-7.64-.09-11.45-.07-1.09-.95-2.46-1.87-3.12-4.08-2.93-8.8-3.95-13.76-4.09-1.8-.05-3.6-.16-5.39-.36-5.4-.61-7.31-3.97-4.97-8.93.37-.79 1.45-1.53 2.34-1.76 9.32-2.42 18.66-4.78 28.03-7.01.91-.22 2.12.43 3.09.89 2.95 1.38 5.77 3.08 8.8 4.21 1.91.71 3.46-.03 3.48-2.63.01-2.21.54-4.42.61-6.64.07-2.23.74-5.19-.39-6.55-2.6-3.11-5.27-6.6-10.23-6.65-12.5-.11-25.02-1.01-37.48-.48-4.79.2-9.68 2.99-14.12 5.36-5 2.68-10.05 3.6-15.59 3.1-5.61-.5-8.31 1.51-9.36 7.08-.53 2.78-.59 5.68-.62 8.53-.02 2.12 5.01 6.13 7.54 6.2 2.12.05 4.24.09 6.36 0 4.7-.2 9.21.15 13.61 2.25 2.11 1.01 4.73 1 7.14 1.35 2.89.43 3.31 2.01 2.53 4.55-1.31 4.24-3.91 7.03-8.35 7.68-4.92.72-9.87 1.18-14.8 1.81-1.13.15-2.23.57-3.36.79-2.22.43-4.45 1.11-6.68 1.15-3.37.05-7.3 2.99-7.18 6.33.37 10.55-.67 20.95-2.56 31.3-.06.31-.12.65-.07.95 1.28 6.58.84 13.09.05 19.74-.5 4.23-.69 8.32-2.71 12.2-.66 1.26-.44 2.98-.6 4.49-.25 2.38-.46 4.77-.73 7.15-.39 3.43-1.24 6.87-1.14 10.29.24 8.09-2.23 15.53-5.3 22.7-3.95 9.21-6.94 18.6-8.72 28.45-1.02 5.94-4.3 10.48-9.28 13.83z" fill="#010102"/><g fill="#fcfbfa"><path d="m2.6 9.9.8-1c.9.7 1.9 1.4 2.9 2.3l-.9 1.1c-1.1-1-2-1.8-2.8-2.4zm.5 10.6c.9-2.1 1.6-4.3 2.3-6.7.4.2.8.4 1.3.6-.7 2.1-1.5 4.3-2.2 6.6zm.3-15.2.9-.9c1 .8 2 1.6 2.8 2.4l-1 1c-.9-.9-1.8-1.7-2.7-2.5zm12.6-1.2h1.2v1.4h2.7v1.1h-2.7v2.7h-1.2v-.6h-1.8v1.3h4.9v3.8h-1.2v-.5h-3.7c0 .4-.1.9-.1 1.2h5.1v1h-5.2c0 .5-.1.9-.2 1.2h6v1h-5.2c1.1 1.3 2.9 2 5.5 2.2-.4.4-.7.8-.9 1.3-2.9-.5-4.8-1.6-5.7-3.5h-.1c-.8 1.7-2.7 2.9-5.9 3.6-.2-.4-.6-.8-.9-1.1 2.8-.6 4.6-1.4 5.4-2.5h-4.8v-1h5.3c.1-.3.2-.7.2-1.2h-4.9v-1h5c0-.4 0-.8.1-1.2h-3.6v.5h-1.2v-3.8h4.9v-1.3h-1.8v.5h-1.2v-2.7h-2.7v-1h2.7v-1.4h1.2v1.4h4.8zm-6.7 8.3h3.6c0-.4 0-.9 0-1.4h-3.6zm1.9-4.6h4.8v-1.3h-4.7v1.3zm6.7 3.2h-3.7v1.4h3.7z"/><path d="m8.7 22.1h1.3v2.2h2.8v-2.2h1.3v2.2h4.1v9.1h1.7v1.3h-17v-1.3h1.7v-9.1h4.1zm.3 13.1.7 1.2c-1.8.9-3.8 1.9-6 2.9-.2-.4-.5-.8-.8-1.3 2.3-1 4.4-1.9 6.1-2.8zm-3.1-6.4h2.8v-3.2h-2.8zm0 4.6h2.8v-3.3h-2.8zm4.1-4.6h2.8v-3.2h-2.8zm0 4.6h2.8v-3.3h-2.8zm3.6 1.9c2.1.9 4.1 1.8 6.1 2.7l-.7 1.4c-2.2-1.1-4.2-2-6.1-2.9zm3.2-9.7h-2.8v3.2h2.8zm-2.7 7.8h2.8v-3.3h-2.8z"/></g></svg>