<svg enable-background="new 0 0 400 400" viewBox="0 0 400 400" xmlns="http://www.w3.org/2000/svg"><g fill="#010102"><path d="m157.51 276.24c2.17 1.45 4.49 2.73 6.48 4.4 2.58 2.18 4.91 4.67 7.33 7.05 6.47 6.37 14.25 6.16 22.28 4.31.71-.16 1.71-1.46 1.65-2.16-.57-7.26-1.15-14.53-2.21-21.72-.18-1.21-2.59-2.75-4.15-2.98-4.79-.72-9.68-.78-14.52-1.3-4-.43-7.96-1.21-11.95-1.71-1.55-.19-3.16.09-4.72-.06-1.43-.13-3.79-.18-4.08-.91-.78-2-1.72-5.15-.74-6.41 3.43-4.42 3.54-9.61 4.88-14.57 1.31-4.84 3.91-9.32 5.27-14.15 2.4-8.53 8.83-13.08 15.83-17.15 7.78-4.53 15.69-8.82 23.48-13.34 1.6-.93 2.94-2.33 4.3-3.63 2.81-2.67 5.37-5.63 8.36-8.07 7.89-6.45 12.62-20.27 9.69-29.91-1.21-3.98-3.07-7.76-4.56-11.65-.43-1.13-.62-2.35-.99-3.79 7.44 1.52 12.45 4.48 14.84 12.17 4.65 14.92.63 27.45-8.44 39.15-1.49 1.92-3.11 3.77-4.42 5.81-2.48 3.87-1.87 9.76 1.55 12.82 6.15 5.5 12.48 10.8 18.78 16.13 3.69 3.12 7.58 6.06 9.35 11.11-4.51-.43-8.57-1.01-12.12-3.81-5.76-4.55-11.97-8.57-17.55-13.33-3.01-2.56-5.14-6.17-7.65-9.31-2.81-3.52-4.39-3.89-8.49-1.94-2.21 1.05-3.26 4.28-2.79 7.33.62 4.06 1.43 8.18 1.25 12.24-.18 4.04 1.61 7.5 2.06 11.24.65 5.34.54 10.79.4 16.19-.07 2.68 1.08 3.67 3.41 3.87 1.36.12 2.74.15 4.11.08 3.78-.18 7.31-.46 11.01 1.67 2.52 1.45 6.15 1.17 9.3 1.29 2.27.08 3.62.82 4.17 3.33-3.43 2.54-7.43 2.38-11.39 1.96-3.04-.32-6.04-1.07-9.07-1.6-.94-.16-1.89-.29-2.84-.32-7.75-.27-9.56 1.47-9.71 9.25-.09 4.77-.13 9.54-.35 14.3-.09 2.03.73 3.07 2.51 3.85 4.84 2.11 11.61.96 15.37-2.73 3.1-3.04 6.1-6.22 9.39-9.04 2.27-1.94 4.96-3.38 7.47-5.04.36.3.72.61 1.08.91-3.22 5.49-5.74 11.59-9.82 16.35-6.61 7.73-11.18 16.27-14.47 25.78-1.51 4.35-3.88 8.45-6.18 12.48-3.45 6.05-6.2 12.19-6.13 19.39.03 3.13-.56 6.38-1.51 9.37-.75 2.36-2.49 4.41-3.79 6.59-.43-.07-.86-.14-1.29-.2-1.66-4.73-3.41-9.42-4.96-14.18-2.63-8.03-3.7-17.01-8.04-23.95-5.96-9.52-9.57-20.45-17.25-28.94-1.48-1.63-2.02-4.1-3.02-6.18-1.14-2.37-2.3-4.72-3.48-7.07-1.36-2.71-2.75-5.4-4.12-8.1.42-.39.81-.78 1.2-1.17zm18.91-19.47c.01.14.02.28.03.42 4.73-.36 9.47-.6 14.18-1.13 2.59-.29 3.98-1.82 4.05-4.72.1-4.55.6-9.08.91-13.62.48-7.21-.44-14.49 2.12-21.59 1.11-3.07-2.31-5.63-5.47-4.48-2.07.75-4.16 1.66-5.98 2.88-5.71 3.83-11.78 7.54-15.1 13.74-3.13 5.84-5.48 12.14-7.77 18.38-.78 2.14-.52 4.73-.42 7.1.07 1.63 1.1 2.48 2.99 2.49 3.49.01 6.97.33 10.46.53zm20.59 77.86c4.02-1.04 4.73-4.43 5.91-7.39 2-4.99 3.75-10.09 5.91-15.01 2.95-6.7 1.45-9.67-5.92-10.77-2.4-.36-4.85-.43-7.27-.65-1.89-.17-3.88-.07-5.65-.63-4.14-1.32-7.24.81-10.79 2.48 6.01 10.79 11.87 21.3 17.81 31.97z"/><path d="m95.51 283.27c2.72-3.87 5.1-7.26 7.49-10.64 1.5-2.13 3.3-4.1 4.47-6.4 3.12-6.13 6.03-12.36 8.88-18.62 1.05-2.3 1.77-4.76 2.52-7.18 1.63-5.23 3.46-10.43 4.67-15.76 1.17-5.12 1.64-10.4 2.46-15.6.33-2.05.79-4.09 1.19-6.13.41-2.05 1.3-4.13 1.15-6.13-.64-8.23 2.04-15.9 3.48-23.79 1.39-7.59 2.31-15.27 3.7-22.86 3.08-16.79 22.39-31.95 35.4-32.22 4.31-.09 8.71-.69 12.88-1.77 6.21-1.6 6.96-3.32 6.77-8.75-.26-7.37.5-14.78.67-22.17.19-8.37-.02-16.76.4-25.12.32-6.42 1.21-12.82 2.13-19.19.3-2.1 1.48-4.07 2.29-6.18 3.61 2.38 5.37 7.97 4.01 11.68-.16.43-.08 1.01.06 1.47 2.29 7.4 2.09 14.99 2.15 22.64.11 12.9.58 25.81 1.38 38.69.43 6.97 4.63 9.51 11.72 8.84 3.39-.32 7.14-.36 10.25.78 6.22 2.28 12.29 5.12 18.08 8.34 7.93 4.42 11.8 12.27 15.11 20.25 5.57 13.4 8.75 27.29 9.29 41.93.25 6.87 2.8 13.63 4.04 20.49 1.47 8.11 2.61 16.28 4 24.41.82 4.8 1.46 9.68 2.83 14.33 2.44 8.26 5.32 16.38 8.12 24.53 1.61 4.7 3.37 9.34 5.15 13.98 1.67 4.33 3.56 8.57 5.16 12.93.76 2.08 1.07 4.32 1.64 6.73-3.15.12-4.25-1.14-5.18-3.19-5.83-12.93-12.45-25.54-17.5-38.76-4.16-10.9-6.86-22.4-9.6-33.78-3.82-15.85-7.08-31.83-10.56-47.76-.25-1.12-.66-2.41-.35-3.42 1.24-4.06-.07-7.69-1.37-11.41-2.34-6.7-4.63-13.41-6.83-20.15-3.46-10.59-10.97-17.16-21.38-19.82-11.04-2.82-22.27-5.23-33.87-4.39-3.05.22-6.15.09-9.2-.11-10.07-.66-16.73 6.23-24.35 10.96-.82.51-1.26 1.67-1.81 2.57-1.45 2.34-2.75 4.78-4.31 7.05-5.43 7.86-9.58 16.17-9.9 25.98-.04 1.24-.69 2.46-.82 3.71-.32 3.09-.46 6.2-.73 9.29-.51 5.68-1.06 11.36-1.59 17.04-.97 10.39-5.87 19.61-8.85 29.4-1.82 5.97-3.9 11.87-6.18 17.68-1.17 2.99-3.12 5.66-4.59 8.55-.7 1.38-1.42 2.87-1.57 4.37-.28 2.9-1.49 5.17-3.39 7.31-3.51 3.97-6.76 8.17-10.31 12.1-3.3 3.68-5.08 4.31-9.3 3.27z"/><path d="m156.53 151.41c2.56-.17 5.27-.96 7.65-.4 7.62 1.81 15.14.56 22.69-.05 2.95-.24 5.89-.77 8.85-.86 3.16-.1 5.98-.76 8.55-2.75.77-.6 2.46-.6 3.4-.17.53.24.82 2.14.45 2.94-.88 1.93-2.14 3.7-3.38 5.44-5.53 7.71-13.47 13.52-17.73 22.18-1.28 2.6-1.66 5.64-2.43 8.48-.39 1.42-.38 3.11-1.18 4.23-.83 1.15-2.35 2.22-3.71 2.44-.84.14-2.26-1.18-2.88-2.18-2.35-3.77-4.64-7.59-6.62-11.56-1.28-2.57-1.79-5.53-3-8.14-1.23-2.65-2.84-5.14-4.4-7.63-2.26-3.62-4.62-7.18-6.94-10.77.23-.4.45-.8.68-1.2zm14.75 11.41c1.48 2.53 3.03 4.84 4.21 7.31 1.26 2.63 3.28 2.68 4.74.97 2.01-2.34 3.39-5.25 4.86-8 .22-.41-.36-1.63-.89-1.98-3.98-2.64-9.18-1.96-12.92 1.7z"/><path d="m264.45 109.54c-7.64 2.04-12.64-1.47-17.72-4.73-.18-.11-.31-.3-.49-.4-9.14-4.86-12.22-14.06-16.21-22.61-.29-.62-.26-1.43-.22-2.14.16-2.3.65-4.61.54-6.9-.19-4.05.71-7.62 2.83-11.15 1.54-2.57 2.23-5.5 5.25-7.12 2.97-1.59 5.29-.77 5.33 2.64.06 4.97-.22 9.95-.36 14.92-.12 4.55-.14 9.1-.4 13.64-.39 6.87 3.47 11.02 8.83 14.25 2.81 1.69 5.79 3.12 8.46 4.99 1.53 1.08 2.59 2.82 4.16 4.61z"/><path d="m149.12 57.38c5.77.15 8.65 3.88 11.23 8.03 1.06 1.7 1.95 3.55 3.2 5.1 3.96 4.9 4.52 10.4 2.84 16.18-1.62 5.58-3.58 11.06-5.4 16.57-.13.4-.22.93-.51 1.14-6.41 4.57-12.23 10.3-20.81 10.6-.31.01-.61-.09-1.74-.26.7-1.37 1.02-2.78 1.9-3.57 2.04-1.83 4.25-3.53 6.58-4.97 5.66-3.49 8.05-8.98 8.73-15.1.57-5.1.31-10.34.04-15.49-.2-3.73-1.49-7.15-4.14-10.06-1.99-2.19-3.67-4.76-1.92-8.17z"/></g><path d="m2.6 9.9.8-1c.9.7 1.9 1.4 2.9 2.3l-.9 1.1c-1.1-1-2-1.8-2.8-2.4zm.5 10.6c.9-2.1 1.6-4.3 2.3-6.7.4.2.8.4 1.3.6-.7 2.1-1.5 4.3-2.2 6.6zm.3-15.2.9-.9c1 .8 2 1.6 2.8 2.4l-1 1c-.9-.9-1.8-1.7-2.7-2.5zm12.6-1.2h1.2v1.4h2.7v1.1h-2.7v2.7h-1.2v-.6h-1.8v1.3h4.9v3.8h-1.2v-.5h-3.7c0 .4-.1.9-.1 1.2h5.1v1h-5.2c0 .5-.1.9-.2 1.2h6v1h-5.2c1.1 1.3 2.9 2 5.5 2.2-.4.4-.7.8-.9 1.3-2.9-.5-4.8-1.6-5.7-3.5h-.1c-.8 1.7-2.7 2.9-5.9 3.6-.2-.4-.6-.8-.9-1.1 2.8-.6 4.6-1.4 5.4-2.5h-4.8v-1h5.3c.1-.3.2-.7.2-1.2h-4.9v-1h5c0-.4 0-.8.1-1.2h-3.6v.5h-1.2v-3.8h4.9v-1.3h-1.8v.5h-1.2v-2.7h-2.7v-1h2.7v-1.4h1.2v1.4h4.8zm-6.7 8.3h3.6c0-.4 0-.9 0-1.4h-3.6zm1.9-4.6h4.8v-1.3h-4.7v1.3zm6.7 3.2h-3.7v1.4h3.7z" fill="#fcfbfa"/><path d="m8.7 22.1h1.3v2.2h2.8v-2.2h1.3v2.2h4.1v9.1h1.7v1.3h-17v-1.3h1.7v-9.1h4.1zm.3 13.1.7 1.2c-1.8.9-3.8 1.9-6 2.9-.2-.4-.5-.8-.8-1.3 2.3-1 4.4-1.9 6.1-2.8zm-3.1-6.4h2.8v-3.2h-2.8zm0 4.6h2.8v-3.3h-2.8zm4.1-4.6h2.8v-3.2h-2.8zm0 4.6h2.8v-3.3h-2.8zm3.6 1.9c2.1.9 4.1 1.8 6.1 2.7l-.7 1.4c-2.2-1.1-4.2-2-6.1-2.9zm3.2-9.7h-2.8v3.2h2.8zm-2.7 7.8h2.8v-3.3h-2.8z" fill="#fcfbfa"/></svg>