<svg enable-background="new 0 0 400 400" viewBox="0 0 400 400" xmlns="http://www.w3.org/2000/svg"><g fill="#010102"><path d="m89.03 90.22c1.4-.35 2.42-.6 3.52-.87 1.7 2.95 1.22 5.7.2 8.62-.6 1.71-.91 3.68-.73 5.47 1.11 10.96 2.43 21.9 3.6 32.86.1.96-.3 2-.59 2.97-1.08 3.6-2.37 7.15-3.27 10.79-.53 2.14-.27 4.46-.73 6.62-.69 3.25-1.33 6.26 1.17 9.22.84 1 .79 3.05.61 4.55-.88 7.41 2.41 12.83 9.72 14.68 7.71 1.95 15.22 1.34 22.52-2.34 11.21-5.65 20.07-14.48 30.17-21.62 4.98-3.52 8.76-7.79 11.33-13.33 2.05-4.41 4.67-8.35 8.52-11.65 6.97-5.98 10.25-14.24 11.66-23.07.66-4.11 2.49-7.23 4.88-10.4 1.02-1.35 1.16-3.36 1.7-5.08.32-1.04.32-2.43 1.01-3.06 2.18-2.01 2.34-4.27 1.52-6.86-2.23-7.03-1.45-14.28-1.54-21.46-.01-.52.02-1.11.25-1.55 2.99-5.82 1.68-11.74.49-17.67-.82-4.06-.32-7.96 1.52-11.63 4.37.47 6.27 2.34 6.53 6.42.12 1.9.3 3.86-.04 5.71-.95 5.18.4 9.84 2.82 14.3 1.94 3.58 2.7 7.25 1.58 11.27-1.43 5.14-.49 10.13.47 15.3.72 3.88.47 8.35-.75 12.1-2.6 7.97-.75 13.95 5.22 19.72 6.46 6.24 12.05 13.37 18.19 19.95 2 2.15 4.33 4.25 6.92 5.54 7.19 3.58 11.54 10.64 18.25 14.57 7.08 4.15 14.49 7.87 22.1 10.96 6.39 2.59 13.34 1.94 20.09.8.72-.12 1.65-.97 1.9-1.69 2.8-7.99 5.97-15.9 7.98-24.1.96-3.91-.19-8.4-.74-12.58-.33-2.54-.33-4.84 1.27-6.92 4.86-6.31 5.27-13.37 3.59-20.8-.19-.82-.21-1.68-.32-2.52-.7-5.29 1.32-7.84 7.6-8.61.43 4.7 1.31 9.4 1.15 14.07-.18 5.27-1.5 10.48-1.93 15.76-.37 4.51-1.02 9.26-.06 13.58 2.37 10.76.86 21.31-.55 31.89-.67 5-.9 9.8 1.23 14.58 1.91 4.29 1.34 8.7-.31 12.99-.91 2.37-1.89 4.72-2.76 7.1-.94 2.55-.93 4.93.19 7.63.75 1.81.23 4.32-.22 6.41-.79 3.69-.86 7.22.07 10.94.61 2.46.68 5.3.1 7.76-1.07 4.58-.96 8.94.37 13.41 1.25 4.21.08 7.79-2.9 11.07-1.04 1.14-1.69 3.31-1.43 4.82.57 3.35 1.28 6.64 3.37 9.71 1.33 1.95 1.05 5.16 1.01 7.8-.03 1.49-.87 3.06-1.64 4.43-2.17 3.89-3.13 7.86-2.52 12.41.3 2.27-.75 4.76-1.35 7.1-.97 3.78-2.02 7.54-3.16 11.27-.24.8-1.03 1.43-1.56 2.14-1.54 2.04-3.74 3.86-4.48 6.16-1.38 4.3-2.95 8.34-5.91 11.8-1.02 1.19-1.83 2.61-2.5 4.03-3.57 7.6-9.22 13.14-16.65 16.85-1.62.81-3.64 1.04-5.49 1.16-14.59.93-29.27 1.05-43.75 2.83-18.37 2.26-36.6.85-54.9.07-5.15-.22-10.15-.25-15.35 1.17-3.78 1.03-8.34-.33-12.47-1.08-17.5-3.16-33.15-10.47-47.02-21.58-.94-.75-1.67-1.9-2.2-3-2.39-4.96-4.81-9.91-6.95-14.98-1.76-4.17-4-7.87-7.4-10.92-.82-.74-1.33-2.36-1.23-3.51.46-5.49 1.21-10.95 1.79-16.43.1-.92-.07-1.88-.19-2.81-.82-6.29-2.03-12.56-2.4-18.87-.32-5.42-.99-10.62-2.56-15.87-.87-2.91.35-6.43.62-9.68.09-1.05.58-2.34.15-3.1-3.2-5.69-.98-11.35-.21-17.04.15-1.08.32-2.57-.26-3.26-1.78-2.13-1.39-4.07-.07-6.06 4.54-6.82 3.31-14.41 2.89-21.86-.16-2.92.05-5.45 1.98-8 2.54-3.36 2.7-7.53 2.02-11.6-.57-3.44-1.18-6.91-2.15-10.25-1.17-4.01-1.32-7.83.41-11.7 3.8-8.55 3.12-17.65 2.84-26.61-.19-6.19.66-11.92 3.62-17.42 2.29-4.26 2.9-8.66.67-13.4-.82-1.71-.14-4.11-.14-6.52zm164.39 261.81c.2.3.39.6.59.91 4.72-1.77 9.46-3.47 14.14-5.35 2.54-1.02 5.62-1.74 7.31-3.63 5.91-6.58 11.95-13.13 13.73-22.43.8-4.18 2.18-8.65 4.62-12.03 4.91-6.81 6.25-14.16 5.94-22.21-.16-4.11-.41-8.32.2-12.35.91-5.95 2.41-11.82 3.93-17.66 1.12-4.29 1.82-8.43-.45-12.56-.34-.61-.43-1.42-.44-2.15-.03-9.95-.08-19.91 0-29.86.03-3.28.87-6.6.52-9.82-.65-6.11-2.95-11.24-9.35-13.83-15.5-6.27-30.81-13.01-46.35-19.17-6.35-2.51-11.9-5.72-16.28-11.03-1.43-1.74-3.72-2.75-5.53-4.2-1.3-1.04-2.61-2.14-3.64-3.44-3.1-3.9-5.73-8.22-9.14-11.79-5.59-5.85-12.6-7.38-19.37-1.38-2.68 2.38-4.86 5.3-7.35 7.89-1.37 1.42-2.75 3.02-4.44 3.93-5.79 3.11-10.56 7.25-14.76 12.3-7.94 9.57-17.56 17.17-28.67 22.78-8.41 4.25-17.09 7.99-25.29 12.6-5.67 3.18-10.74 7.43-16.04 11.25-.48.35-.84.96-1.08 1.52-4.01 9.07-6.94 18.3-6.58 28.47.41 11.86.31 23.75.18 35.62-.05 4.84.45 9.46 2.27 13.97.53 1.32.78 2.89.67 4.31-.63 8.08 1.73 15.32 6.81 21.39 2.78 3.32 4 6.71 4.25 10.86.08 1.44.99 3.26 2.12 4.13 8.72 6.73 17.59 13.29 26.43 19.86.83.61 1.78 1.23 2.76 1.43 11.4 2.31 22.68 4.84 34.52 4.6 16.84-.34 33.69.36 50.54.55 1.98.02 4.02-.25 5.95-.72 7.05-1.72 14.03-3.73 21.1-5.33 2.23-.5 4.66-.08 7.24-.08-.55 1.31-.8 1.98-1.06 2.65z"/><path d="m127.16 228.11c7.62-.82 15.35-2.02 23.12-2.38 8.99-.42 17.91-.7 26.81-2.46 5.72-1.13 11.76-.69 18-.96-.32 1.03-.48 1.57-.75 2.42.85.07 1.89.49 2.36.15 5.43-3.96 11.31-3.22 17.3-1.95 2.59.55 5.2.97 7.83 1.31 1.12.14 2.47.27 3.4-.21 5.42-2.8 11.04-2.07 16.76-1.46 9.05.96 18.12 1.71 27.19 2.42 3.51.28 5.05 2.56 6.94 6.24-7.54.98-14.49 2.45-21.48 2.68-13.95.47-27.94-.04-41.89.44-13.8.47-27.57 1.84-41.38 2.49-12.69.6-25.39.9-38.01-1.38-3.77-.7-6.43-1.93-6.2-7.35z"/><path d="m258.72 290.81c-4.83 4.7-10.62 5.72-16.64 5.93-27.42.94-54.84 2.13-82.27 2.53-8.48.12-17.01-1.79-25.45-3.19-1.85-.31-3.4-2.42-5.09-3.7l.36-.9c5.68-.94 11.35-1.89 17.03-2.83 11.08-1.83 22.1-4.11 33.24-5.32 6.76-.73 13.71.02 20.56.41 15.55.89 31.08 1.98 46.62 2.95 4.21.26 8.16 1.12 11.64 4.12z"/></g><path d="m2.6 9.9.8-1c.9.7 1.9 1.4 2.9 2.3l-.9 1.1c-1.1-1-2-1.8-2.8-2.4zm.5 10.6c.9-2.1 1.6-4.3 2.3-6.7.4.2.8.4 1.3.6-.7 2.1-1.5 4.3-2.2 6.6zm.3-15.2.9-.9c1 .8 2 1.6 2.8 2.4l-1 1c-.9-.9-1.8-1.7-2.7-2.5zm12.6-1.2h1.2v1.4h2.7v1.1h-2.7v2.7h-1.2v-.6h-1.8v1.3h4.9v3.8h-1.2v-.5h-3.7c0 .4-.1.9-.1 1.2h5.1v1h-5.2c0 .5-.1.9-.2 1.2h6v1h-5.2c1.1 1.3 2.9 2 5.5 2.2-.4.4-.7.8-.9 1.3-2.9-.5-4.8-1.6-5.7-3.5h-.1c-.8 1.7-2.7 2.9-5.9 3.6-.2-.4-.6-.8-.9-1.1 2.8-.6 4.6-1.4 5.4-2.5h-4.8v-1h5.3c.1-.3.2-.7.2-1.2h-4.9v-1h5c0-.4 0-.8.1-1.2h-3.6v.5h-1.2v-3.8h4.9v-1.3h-1.8v.5h-1.2v-2.7h-2.7v-1h2.7v-1.4h1.2v1.4h4.8zm-6.7 8.3h3.6c0-.4 0-.9 0-1.4h-3.6zm1.9-4.6h4.8v-1.3h-4.7v1.3zm6.7 3.2h-3.7v1.4h3.7z" fill="#fcfbfa"/><path d="m8.7 22.1h1.3v2.2h2.8v-2.2h1.3v2.2h4.1v9.1h1.7v1.3h-17v-1.3h1.7v-9.1h4.1zm.3 13.1.7 1.2c-1.8.9-3.8 1.9-6 2.9-.2-.4-.5-.8-.8-1.3 2.3-1 4.4-1.9 6.1-2.8zm-3.1-6.4h2.8v-3.2h-2.8zm0 4.6h2.8v-3.3h-2.8zm4.1-4.6h2.8v-3.2h-2.8zm0 4.6h2.8v-3.3h-2.8zm3.6 1.9c2.1.9 4.1 1.8 6.1 2.7l-.7 1.4c-2.2-1.1-4.2-2-6.1-2.9zm3.2-9.7h-2.8v3.2h2.8zm-2.7 7.8h2.8v-3.3h-2.8z" fill="#fcfbfa"/></svg>