<svg enable-background="new 0 0 400 400" viewBox="0 0 400 400" xmlns="http://www.w3.org/2000/svg"><g fill="#010102"><path d="m216.54 162.04c-1.34-8.11-3.6-16.03-1.55-24.28.39-1.59.1-3.38-.06-5.07-.61-6.21-1.32-12.39-.06-18.64.41-2.03.26-4.25.01-6.34-.64-5.55-3.05-7.96-8.62-7.31-5.84.68-11.57 2.38-17.35 3.61-10.12 2.16-16.08 8.66-18.96 18.29-3.02 10.09-5.17 20.3-4.58 30.95.38 6.92 1.99 8.9 9.44 9.82 12.33 1.54 23.37 6.49 34.22 12.07 4.04 2.08 7.35 5.25 9.02 9.53 4.28 11.04 8.4 22.14 12.29 33.32.58 1.66-.21 3.94-.77 5.82-1.24 4.21-.9 8.28-.04 12.53.63 3.11.31 6.42.42 9.64.05 1.55-.33 3.33.3 4.6 1.52 3.08 1.84 6.12 1.47 9.49-1.28 11.57-.01 23.05 1.26 34.55.57 5.14.51 10.37.41 15.55-.1 5.66.22 11.2 2.05 16.6 3.27 9.65 3.45 19.78 4.46 29.78.26 2.53.51 5.06.63 7.6.03.61-.48 1.25-.75 1.88-.63-.39-1.61-.63-1.84-1.19-2.59-6.23-5.68-12.35-7.44-18.82-3.78-13.88-6.86-27.94-10.2-41.94-.24-1.02-.43-2.1-.35-3.14 1.38-17.97-.78-35.75-2.59-53.56-.54-5.28-1.82-10.71.18-16.04.23-.6.09-1.55-.24-2.12-2.32-3.96-2.08-8.28-2.2-12.63-.32-11.55-3.9-22.05-11.07-31.17-3.46-4.4-7.86-7.67-13.28-9.44-2.51-.82-5.06-1.59-7.48-2.65-4.66-2.04-9.47-2.91-14.54-2.48-.84.07-1.82.27-2.52-.06-7.33-3.42-14.57-.43-21.82.28-4.07.4-8.05 1.03-11.73 3.39-2.1 1.35-4.97 1.8-7.56 2.07-8.01.83-13.56 5.34-15.62 13.15-1.91 7.27-4.06 14.49-5.53 21.86-.75 3.75-.11 7.76-.3 11.65-.09 1.85-.63 3.67-.99 5.5-.27 1.43-.83 2.86-.81 4.29.12 12.4.44 24.81.45 37.21.01 3.76-.35 7.61-1.21 11.27-3.24 13.8-6.46 27.62-10.25 41.27-2.63 9.48-6.98 18.22-14.9 24.63-2.13 1.72-4.42 3.24-6.88 5.03-1.31-3.13-1.92-5.43.24-8.55 6.07-8.75 10.12-18.55 13.15-28.76.15-.5.18-1.04.23-1.57 2.09-19.46 4.53-38.9 6-58.41.38-5.05 1.15-9.95 1.73-14.92.68-5.87.43-11.85.53-17.79.26-14.58 4.03-28.31 10.67-41.16 4.41-8.53 11.64-13.6 21.51-14.18 8.95-.53 17.65-2 25.79-6.03 4.3-2.13 6.35-4.98 5.4-9.66-2.17-10.73.18-21.16 2.06-31.51 1.39-7.66 4.69-14.96 12.01-18.99 3.13-1.72 6.96-2.22 10.5-3.13 5.6-1.43 11.2-2.91 16.88-4.02 2.74-.54 5.64-.48 8.44-.34 5.17.26 6.51-1.08 7.74-6.07 1.5-6.08.8-11.7-1.94-17.17-.68-1.35-1.65-2.61-2.69-3.72-.86-.91-2.09-1.46-3.02-2.32-4.04-3.76-8.81-5.59-14.29-6.02-2.27-.18-4.53-1.01-6.7-1.79-2.85-1.02-5.44-2.53-8.77-1.16-1.3.53-3.34-.24-4.86-.86-6.39-2.57-12.85-2.12-19.36-.74-6.32 1.34-12.62 2.75-18.95 4.03-2.86.58-4.75 2.31-6.73 4.35-6.37 6.56-7.46 14.95-8.75 23.34-1.15 7.43-2.65 14.81-3.61 22.27-.52 4.07-.17 8.25-.29 12.37s-1.59 7.39-6.36 9.1c-.61-4.33-1.5-8.44-1.71-12.59-.83-16.45-.32-32.84 2.88-49.08.51-2.58 1.49-4.61 3.46-6.51 2.65-2.55 4.83-5.6 7.06-8.56 4.2-5.59 9.19-9.31 16.66-9.48 9.3-.21 18.64-2.07 27.86-1.52 15.87.95 31.56 4.04 46.67 9.06 8.96 2.98 14.66 10.03 17.25 19.05 2.38 8.29 3.41 16.81 1.42 25.44-.23 1-.16 2.11-.07 3.15 1.81 20.72-.77 41.03-5.68 61.12-.81 3.45-.91 3.42-4.88 2.98z"/><path d="m291.57 34.73c2.12 1.56 4.48 2.89 6.32 4.73 6.84 6.87 10.28 15.4 11.65 24.88 1.76 12.21 3.77 24.64-.36 36.53-4.63 13.31-5.45 26.86-5.75 40.67-.12 5.78-1.51 11.53-2.07 17.31-.21 2.12.04 4.39.57 6.46 1.34 5.2 2.94 10.34 4.49 15.48.36 1.2.78 2.42 1.41 3.49 2.35 4.02 4.72 8.05 7.23 11.97 11.88 18.58 14.52 38.83 10.48 60.11-2.19 11.52-3.64 23.35-8.69 34.07-7.11 15.09-14.23 30.3-26.46 42.15-3.21 3.1-7.25 5.38-11.04 7.82-.93.6-2.38.37-3.6.53-.09-.28-.19-.57-.28-.85.39-.57.7-1.21 1.17-1.7 10.12-10.3 16.98-22.64 22.53-35.83 2.17-5.16 4.36-10.34 6.89-15.34 2.42-4.79 3.84-9.74 4.71-15.03 1.03-6.24 3.14-12.29 4.21-18.52 2.43-14.05-.08-27.61-4.86-40.85-.86-2.39-2.08-4.66-2.79-7.09-1.17-4.03-4.19-5.51-8.07-6.46-1.03 1.54-2.07 3.12-3.14 4.68-8.26 12.04-16.37 24.17-24.86 36.05-3.31 4.63-7.34 8.78-11.28 12.93-1.55 1.64-3.66 2.79-5.64 3.96-.68.4-2.21.52-2.52.12-.56-.71-.82-2-.61-2.9.48-2.04 1.1-4.12 2.07-5.98 4.2-8.07 8.53-16.02 14.29-23.21 8.35-10.43 13.86-22.5 18.15-35.1.77-2.25 1.05-4.77 1.06-7.17.1-12.83.13-25.66.02-38.49-.07-7.71.85-15.26 3.58-22.46 4.02-10.64 5.75-21.64 6.15-32.95.21-5.93.55-11.87 1.23-17.76.58-5.02-.69-9.61-2.02-14.31-1.67-5.9-3.07-11.88-4.53-17.84-.27-1.1-.27-2.26-.4-3.39.23-.22.5-.46.76-.71z"/><path d="m186.69 207.22c2.85 2.49 3.24 5.38 2.77 8.79-.61 4.36-.78 8.78-1.08 13.19-.55 8.24-1.08 16.47-1.54 24.72-.06 1.11-.1 2.57.52 3.3 1.98 2.34 1.72 4.7 1.08 7.42-2.06 8.76-3.92 17.56-5.87 26.35-.16.72-.2 1.62-.65 2.11-6.69 7.31-12.76 15.34-24.27 15.5-6.35.09-12.22-.78-17.53-4.18-1.79-1.14-3.29-2.96-4.49-4.75-6.57-9.83-8.16-21-8.16-32.48 0-10.91.28-21.83.42-32.74.01-.95.27-2.07-.13-2.83-3-5.65-1.67-11.84-2.25-17.77-.11-1.15.99-2.41 1.53-3.63.49.01.98.01 1.46.02 2.15 3.71 4.41 7.36 6.42 11.15 1.98 3.73 3.43 7.76 5.65 11.33 1.11 1.78 3.23 3.58 5.21 4.05 8.49 2.03 17.05 1.29 25.51-.51.98-.21 2.13-1.19 2.55-2.11 1.59-3.43 3.24-6.9 4.24-10.52 1.71-6.05 4.2-11.53 8.61-16.41zm-44.78 59.93c-.23 0-.46 0-.69 0 0 4.97-.14 9.95.04 14.91.21 5.75 3.07 10.66 7.33 13.9 2.21 1.68 6.39 1.18 9.65 1 6.01-.33 9.62-4.6 12.47-9.21 3.64-5.89 3.87-12.63 3.61-19.38-.06-1.67-.36-3.67.4-4.96 3.41-5.79.78-10.41-2.59-14.81-.89-1.16-2.71-1.99-4.21-2.21-3.55-.52-7.19-.39-10.75-.89-4.96-.69-9.5-.1-13.14 3.59-.97.99-1.96 2.46-2.02 3.76-.25 4.76-.1 9.53-.1 14.3z"/></g><path d="m2.6 9.9.8-1c.9.7 1.9 1.4 2.9 2.3l-.9 1.1c-1.1-1-2-1.8-2.8-2.4zm.5 10.6c.9-2.1 1.6-4.3 2.3-6.7.4.2.8.4 1.3.6-.7 2.1-1.5 4.3-2.2 6.6zm.3-15.2.9-.9c1 .8 2 1.6 2.8 2.4l-1 1c-.9-.9-1.8-1.7-2.7-2.5zm12.6-1.2h1.2v1.4h2.7v1.1h-2.7v2.7h-1.2v-.6h-1.8v1.3h4.9v3.8h-1.2v-.5h-3.7c0 .4-.1.9-.1 1.2h5.1v1h-5.2c0 .5-.1.9-.2 1.2h6v1h-5.2c1.1 1.3 2.9 2 5.5 2.2-.4.4-.7.8-.9 1.3-2.9-.5-4.8-1.6-5.7-3.5h-.1c-.8 1.7-2.7 2.9-5.9 3.6-.2-.4-.6-.8-.9-1.1 2.8-.6 4.6-1.4 5.4-2.5h-4.8v-1h5.3c.1-.3.2-.7.2-1.2h-4.9v-1h5c0-.4 0-.8.1-1.2h-3.6v.5h-1.2v-3.8h4.9v-1.3h-1.8v.5h-1.2v-2.7h-2.7v-1h2.7v-1.4h1.2v1.4h4.8zm-6.7 8.3h3.6c0-.4 0-.9 0-1.4h-3.6zm1.9-4.6h4.8v-1.3h-4.7v1.3zm6.7 3.2h-3.7v1.4h3.7z" fill="#fcfbfa"/><path d="m8.7 22.1h1.3v2.2h2.8v-2.2h1.3v2.2h4.1v9.1h1.7v1.3h-17v-1.3h1.7v-9.1h4.1zm.3 13.1.7 1.2c-1.8.9-3.8 1.9-6 2.9-.2-.4-.5-.8-.8-1.3 2.3-1 4.4-1.9 6.1-2.8zm-3.1-6.4h2.8v-3.2h-2.8zm0 4.6h2.8v-3.3h-2.8zm4.1-4.6h2.8v-3.2h-2.8zm0 4.6h2.8v-3.3h-2.8zm3.6 1.9c2.1.9 4.1 1.8 6.1 2.7l-.7 1.4c-2.2-1.1-4.2-2-6.1-2.9zm3.2-9.7h-2.8v3.2h2.8zm-2.7 7.8h2.8v-3.3h-2.8z" fill="#fcfbfa"/></svg>