<svg enable-background="new 0 0 400 400" viewBox="0 0 400 400" xmlns="http://www.w3.org/2000/svg"><g fill="#010102"><path d="m318.11 308.83c.58-2.14 1.16-4.29 1.76-6.49-.05-.05-.18-.26-.34-.29-5.28-1.21-6.58-.22-6.43 5.3.06 1.97.8 3.92 1.16 5.89.31 1.72.57 3.48-1.83 3.96-2.66.54-3.02 2.34-2.35 4.52.91 2.97.22 5.28-2.15 7.33-1.26 1.1-1.94 3.48-3.23 3.78-1.4.33-3.17-1.39-4.86-1.66-2.23-.36-4.6-.48-6.82-.14-3.23.49-6.36 1.58-9.57 2.21-1.02.2-2.95.01-3.11-.46-.38-1.15-.14-2.6.16-3.86.24-.98.96-1.85 1.42-2.69-.13-.34-.18-.55-.29-.72-2.8-4.48-6.36-5.5-11.38-3.37-3.96 1.68-8.32 2.42-12.5 3.58-.61.17-1.25.54-1.83.46-5.77-.8-10.28 1.19-14.74 4.97-1.9 1.61-5.91.53-8.85 1.17-2.02.44-4.17 1.4-5.7 2.76-1.78 1.59-1.93 3.87-.36 6.04.99 1.37 1.85 2.85 2.63 4.34 2.45 4.7 6.06 5.69 11.02 3.4 2.05-.95 4.46-1.11 6.71-1.63.15.37.3.74.45 1.12-.92.76-1.83 1.56-2.78 2.28-2.61 1.99-5.04 3.97-6.6 7.11-.69 1.4-3.19 2.07-4.99 2.74-2.76 1.02-3.21 2.07-1.22 4.76-6.15 1.54-12.05 3.45-14.93-5.09-.58 1.81-1.17 3.62-1.82 5.63-4.92-.93-11.09 2.43-13.65-6.11-.96 2.72-1.09 4.89-2.22 5.8-1.18.94-3.34.67-5.07.93-.16-.26-.33-.52-.49-.78.67-.75 1.51-1.41 1.99-2.27.75-1.37 1.82-2.95 1.66-4.3-.1-.8-2.28-1.41-3.59-1.97-.55-.24-1.25-.11-1.89-.16-4.89-.38-6.29 1.25-5.21 6.11.34 1.56.3 2.72-1.84 2.69-4.34-.08-8.68-.02-12.88-.02-1.83-5.49-8.09-8.52-12.92-6.35-.96.43-1.53 1.91-2.1 3-1.51 2.89-4.29 3.38-7.03 1.78-2.27-1.32-4.91-2.17-7.48-2.78-2.44-.58-5.06-.92-7.54-.72-2.16.18-4.24 1.28-5.88 1.82-1.99-1.84-4.04-3.81-6.18-5.67-2.52-2.2-2.83-4.91-2.54-8.06.28-3.18-.07-6.41-.01-9.61.02-1.07.45-2.14.89-4.04-2.36 0-4.77.05-7.17-.02-1.17-.04-2.32-.3-3.48-.46.3-1.4.2-3.1.99-4.14 2.61-3.47 2.39-4.85-1.73-6.13-2.33-.73-4.59-2.66-7.29-.65-.27.2-1.88-.78-2.32-1.53-1.17-2-3.18-2.37-4.59-1.49-.96.6-1.39 2.89-1.22 4.32.49 4.22 3.01 6.63 7.27 7.6 3.73.86 3.93 1.68 2.43 5.14-.13.29-.36.6-.33.88.36 4.57-1.75 5.85-6.19 5.72-2.82-.09-3.51 2.95-2.93 5.34 1.19 4.86 2.76 9.63 4.2 14.49-8.31 0-17.23 0-26.42 0-.02-2.1-1.37-4.43 1.42-6.01 2.02-1.15 3.99-2.39 6.47-3.88-1.16-.79-1.99-1.56-2.96-1.97-3.15-1.35-3.78-3.63-2.76-6.66.71-2.11.41-3.93-1.73-5.45-.9 1.21-1.75 2.35-3.04 4.1-.54-3.41-1.42-6.27-1.26-9.07.08-1.43 1.94-2.83 3.15-4.1 2.75-2.86 3.2-7.27-.01-9.58-5.74-4.12-2.92-9.48-2.9-14.46 0-.49.89-1.01 1.41-1.46.95-.81 2.32-1.39 2.81-2.4.64-1.31.59-2.95.83-4.45-1.3.05-2.59.07-3.88.17-.51.04-1 .26-1.51.4 0-4.14 0-8.15 0-12.88 1.97 1.11 3.76 2.29 5.68 3.15 2.32 1.04 4.72 2.19 7.18 2.48.9.11 2.85-2.04 2.94-3.25.1-1.42-.94-3.65-2.14-4.29-1.96-1.04-4.44-1.24-6.74-1.53-6.25-.78-8.96-3.92-7.31-9.92 1.43-5.22 1.77-10.76 4.9-15.57 2.45-3.75 1.27-6.17-3.9-10.62 1.54-1.42 3.51-2.83.19-4.59-.79-.42-.98-1.96-1.58-3.28 3.06-.85 4.37-2.71 4.68-5.67.1-1 1.66-2.26 2.8-2.66 2.17-.76 4.54-.99 7.25-1.52 0-3.74.09-7.52-.08-11.29-.03-.67-1.12-1.32-1.78-1.92-1.98-1.81-3.93-3.66-6.02-5.33-.89-.71-2.12-1.41-3.19-1.41-2.34.01-3.45-1.18-3.5-3.2-.13-5.5-.05-11.02 3.95-15.49 2.21-2.47 1.31-4.94-.58-6.79-3.1-3.03-3.97-6.42-2.74-10.41 1.17-3.8 2.68-7.51 3.69-11.34.4-1.5.09-3.31-.31-4.88-1.2-4.83-.6-5.32 4.24-5.77 2.23-.21 4.31-2.1 6.89-3.45 3.69 3.14 8.02 6.56 11.97 10.36 1.07 1.03.99 3.24 1.5 5.15 1.99.71 3.98.84 6.07-1.05 1.33-1.21 3.31-1.83 5.1-2.37 4.11-1.23 7.66-3.09 9.5-7.25 1.79-4.06 5.11-6.58 8.66-8.99 1.02-.69 1.76-2.47 1.8-3.78.07-2.32.9-3.33 3.18-3.3 2.54.04 5.09.01 7.64.01 7.3-.01 13.46-7.6 11.84-14.74-.51-2.26-1.23-4.51-2.17-6.63-.39-.89-1.49-1.79-2.44-2.05-2.78-.76-4.97-2.03-6.53-4.6-.69-1.14-2.22-1.77-3.21-2.52 2.91-1.51 5.86-3.15 8.9-4.6 6.68-3.18 13.79-4.45 21.12-5.27 5.73-.64 11.31-2.59 17.01-3.7 2.57-.5 5.26-.48 7.89-.47.82 0 1.82.54 2.43 1.14 2.59 2.55 5.65 3.66 9.24 3.35 1.48-.13 2.95-.29 4.42-.5 4.49-.64 8.81-1.33 13.33.81 4.16 1.96 9.16-2.82 8.28-7.51-.12-.64-.89-1.49-1.51-1.64-4.84-1.17-9.69-2.31-14.58-3.19-1.45-.26-3.06.33-4.94.57.48-3.95.84-7.61 1.42-11.23.15-.95.87-1.87 1.49-2.68 2.06-2.65 1.63-4.81-1.39-6.4-2.42-1.27-4.87-2.48-8.2-4.17-.51 3.32-1.55 6.2-1.26 8.95.63 6.07-1.6 11.2-4.08 16.38-.96 2.01-2.44 2.01-3.86.83-2.38-1.98-4.52-1.33-7.05-.22-2.03.89-4.41.98-6.65 1.39-.4.07-.88-.13-1.22.02-7.96 3.4-16.25 2.42-24.55 2.07-3.75-.16-7.58.54-11.29 1.28-1.02.2-1.79 1.92-2.58 3.01-1.5 2.09-2.45 4.51-5.58 5.16-1.28.26-2.33 2.3-3.23 3.69-2.26 3.5-4.71 3.89-7.67 1.06-1.99-1.91-3.96-3.83-5.95-5.74-2.57-2.46-4.76-2.63-7.88-.72-.71.44-1.52.94-2.31.98-2.96.13-4.65 1.73-6.29 4.09-.8 1.16-3.03 1.73-4.65 1.83-2.9.18-4.13 1.2-3.99 4.24.14 2.96-.26 5.81-2.46 8.28-1.39 1.56-1.06 3.33 1.33 4.16 6.26 2.18 12.68 3.39 19.33 3.12.32-.01.71.1.94-.04 5.34-3.3 8.33.49 11.63 3.7 2.36 2.29 2.23 4.33.69 5.8-9.91-.67-19.12-1.34-28.34-1.9-4.74-.29-9.5-.44-14.25-.56-2.98-.08-5.98.15-8.95-.09-.75-.06-1.82-1.29-2.03-2.15-.64-2.67-1.06-5.41-1.31-8.15-.12-1.27.46-2.6.49-3.91.07-3.04-.12-6.09 0-9.13.31-7.58.95-15.15 1.04-22.74.05-3.87-.81-7.74-1.2-11.62-.12-1.13-.54-2.64-.01-3.36 2.29-3.07 2.14-6.21.81-9.23 4.09-.81 7.93-1.56 12.11-2.38 0 4.3 1.49 7.12 5.08 9.05 3.28 1.76 6.68 2 9.27 0 1.57-1.22 1.67-4.41 2.3-6.75.58-2.15 1-4.34 1.57-6.87-.8-.18-2.26-.52-4.37-1-.73 3.16-1.31 6.23-2.2 9.2-.28.92-1.27 1.97-2.17 2.26-.79.26-2.55-.25-2.73-.8-.52-1.53-.74-3.31-.53-4.92.4-3.05 1.18-6.06 1.88-9.45-5.32.39-4.39-4.09-6.47-6.31-.77.15-1.68.33-2.58.52-5.97 1.3-5.9 1.29-5.22 7.29.09.75-1.18 2.39-1.37 2.32-1.52-.53-3.81-1.09-4.16-2.19-.52-1.61.32-3.69.67-5.55.25-1.35.77-2.65.94-4 .17-1.34.04-2.72.04-4.59h15.17c.05.53-.19 1.76.31 2.28 1.23 1.28 2.67 2.58 4.29 3.18.75.28 2.4-.77 3.12-1.64 2.95-3.6 6.22-4.56 10.9-3.03.7.23 1.59-.15 2.4-.21 4.42-.33 8.84-.84 13.26-.89 1.83-.02 3.68.95 6.24 1.68 1.91-.51 4.71-1.25 8.27-2.19-.48 3.69-.86 6.65-1.3 9.99.61.54 1.63 1.44 2.97 2.64-2.5 1.61-4.83 3.11-7.29 4.69 1.78 2.37 3.3 4.54 4.98 6.57 1.97 2.38 6.67 2.39 7.94-.32 1.67-3.59 2.59-7.54 3.65-11.39.12-.44-.82-1.36-1.45-1.79-2.34-1.6-4.76-3.09-7.7-4.98 2.97-1.6 5.38-3.03 7.91-4.22 1.63-.77 2.81-.18 3.22 1.75.31 1.44.98 2.82 1.23 4.27.49 2.89 1.95 4.84 5.39 5.78 1.77-3.85 6.89-6.47 4.07-12.82 9.48.85 18.65-.32 28.85 1.6 6.43-2.4 14.29-1.36 22.17-.42 1.32.16 2.84.1 4.03-.42 3.7-1.63 7.72.04 8.94 3.74.44 1.34 1.28 2.87 2.4 3.57 1.19.73 3.08 1.04 4.37.62.89-.29 1.67-2.07 1.83-3.27.71-5.16 2.44-6.24 7-3.59 2.84 1.65 5.36 1.98 8.31.49 5-2.51 10.22-3.81 15.93-2.63 1.86.38 2.95.77 3.58 2.77 1.43 4.52 2.16 4.75 6.66 4.37 2.16-.18 3.18-1.24 3.8-3.16.43-1.34 1.16-2.58 2.13-4.68 1.19 1.53 1.81 2.53 2.63 3.33 2.39 2.34 4.87 2.12 6.44-.68 1.06-1.9 2.05-3.1 4.64-2.74 2.55.36 3.85 1.76 4.52 3.82.51 1.56.6 3.33.54 5-.08 2.34 1.19 3.31 3.1 2.81 2.49-.66 4.9-1.77 7.21-2.96 1.08-.55 1.93-1.66 2.72-2.65 3.95-5.01 9.52-4.89 15.06-4.81.54.01 1.38.36 1.55.77.66 1.55.95 3.26 1.65 4.79.97 2.13-.73 2.99-1.67 4.31-1.03 1.45-1.44 2.84.13 4.51.82.87.84 2.63.93 4.01.17 2.78.26 5.57.14 8.35-.06 1.38-.24 3.17-1.1 4.02-1.47 1.44-2.87.21-3.9-1.17-2.03-2.72-4.7-3.87-8.05-3.07-.66.16-1.47.49-1.82 1-1.29 1.88.58 7.65 2.72 8.66 3.69 1.75 7.39 3.5 11.68 5.52-3.68 1.54-6.74 2.82-10.57 4.43 3.29 3.07 6.23 5.82 9.17 8.57.42-.07.84-.13 1.27-.2-.87 1.09-1.72 2.2-2.63 3.26-.26.31-.68.52-1.07.67-5.61 2.11-7.98 6.45-8.27 13.01 2.08.07 4.3.39 6.47.17 4.2-.43 5.06.25 5.18 4.35.14 4.76.43 9.52.69 14.28.29 5.44-.58 10.49-4.44 14.72-.97 1.06-1.73 2.43-2.23 3.78-.97 2.62-.83 4.6 2.45 5.94 4.4 1.8 5.02 6.04 4.66 10.2-.37 4.32-1.37 8.59-1.73 12.91-.16 1.88.12 4.11 1.04 5.68 1.17 2 .93 3.27-.57 4.77-1.21-.74-2.38-1.45-3.87-2.36-.84 1.6-1.65 3.11-2.49 4.7.6.34.94.67 1.33.73 5.59.88 6.8 4.42 6.14 9.47-.37 2.8-.07 5.69-.07 8.74-1.52-.15-2.75-.26-4.25-.41-.81 1.97-1.64 3.99-2.47 6.01 2.61 2.78 4.71.02 6.94-.45 0 6.98.02 13.81-.01 20.65-.02 4.65.57 9.52-4.56 12.37 1.09 1.54 1.93 2.72 2.82 3.98-1.63 1.18-3.25 2.18-4.66 3.42-2.8 2.47-2.52 5.5.91 6.87 3.99 1.59 5.57 3.97 5.21 8.35-.39 4.74.1 9.54-.04 14.3-.04 1.31-.82 2.68-1.54 3.86-1.36 2.24-3.22 4.21-4.32 6.55-1.19 2.53-1.29 5.01 1.2 7.43 3.6 3.49 2.31 7-3.38 10.36-.31-.15-.62-.27-.94-.39zm-83.51-145.81c-.45-2.1-.25-4.35-1.28-5.42-2.66-2.76-3.05-5.97-2.95-9.38.22-7.76-4.22-13.75-8.21-19.54-1.99-2.88-5.33-4.84-6.26-8.71-.19-.8-1.68-1.57-2.69-1.77-.53-.1-1.69.96-1.9 1.68-.69 2.39-1.76 4.98-1.4 7.3.52 3.37 1.93 6.66 3.35 9.81 1.97 4.36 4.1 8.59 3.83 13.59-.11 2.07-.82 2.84-2.94 2.38-3.72-.8-7.47-1.57-11.24-2.11-2.02-.29-2.89-1.11-3.13-3.16-.27-2.29-.73-4.63-1.55-6.77-2.38-6.23-5.11-12.32-7.44-18.57-1.1-2.95-3.36-4.31-5.85-3.56-2.91.88-5.48 2.95-8.12 4.63-.29.19-.23 1.21-.08 1.78 1.17 4.27 2.15 8.62 3.67 12.77 2.17 5.92 4.61 11.75 7.23 17.49 1.78 3.9 1.44 6.93-2.07 9.61-1.95 1.49-2.46 3.62-1.41 5.97 1.38 3.1.8 4.74-1.83 6.72-1.15.86-2.46 2.29-2.59 3.57-.38 3.83-1.11 7.71.78 11.52 1.48 2.98 1.09 5.95-1.86 8.31-1.07-.8-1.98-1.8-3.11-2.21-1.17-.43-2.69-.68-3.77-.27-.7.26-1.28 1.88-1.23 2.85.1 1.86.43 3.81 1.15 5.52 1.36 3.2 1.14 4.21-2.05 5.76-.84.41-1.69.79-2.85 1.34.63 1.14 1.01 2.26 1.75 3.05 2.77 2.97 3.41 10.34.88 13.69-.89 1.17-2.31 1.94-3.49 2.9-.78-1.17-1.75-2.25-2.29-3.52-1.1-2.59-2.7-3.29-5.31-2.29-1.87.71-3.82 1.29-5.79 1.62-2.05.34-3.27-.61-3.71-2.83-.68-3.46.77-5.87 3.15-8.13 4.77-4.54 5.04-5.62 2.22-11.71-1.14-2.45-2.84-4.71-4.6-6.79-4.15-4.87-4.21-4.76 1.52-7.87.72-.39 1.62-1.67 1.45-2.25-.27-.93-1.27-1.77-2.15-2.34-.53-.34-1.45-.12-2.19-.11-2.73.04-4.31-.98-4.63-3.98-.18-1.68-.73-4.1-1.91-4.76-3.86-2.16-3.69-5.14-3.21-8.79.25-1.86-.8-3.86-1.12-5.83-.13-.82-.22-2.11.24-2.48 2.31-1.83 4.8-3.42 7.23-5.09 1.28.87 4.45 3.51 3.28 6.82-2.33 6.6 4.52 10.05 4.43 15.67 0 .26.62.52.92.81 2.34 2.26 4.8 4.4 6.96 6.81 2.96 3.3 7.63 4.34 11.92 2.18-1.7-3.05-3.46-6.05-5.07-9.14-1.56-2.99-1.38-5.72.19-8.99 1.22-2.55.74-6 .63-9.04-.03-.79-1.56-2.24-2.23-2.15-1.19.17-2.56 1.06-3.27 2.06-.79 1.11-.93 2.68-1.35 4.04-.29.1-.58.19-.88.29-.77-2.02-1.44-4.09-2.35-6.04-1.25-2.68-.82-5.02.78-7.42 2.99-4.5 5.62-9.25 8.8-13.6 2.12-2.9 2.68-5.98 1.48-8.95-1.32-3.27-3.53-6.2-5.5-9.18-.35-.52-1.46-.8-2.19-.75-3.39.24-5.09 2.32-4.84 5.72.73 9.77-.28 11.31-9.57 15.06-1.08.44-2.72 1.4-2.76 2.19-.19 3.65-2.62 4.37-5.43 5.01-1.96.45-3.98.9-5.75 1.78-4.75 2.37-9.04 5.27-11.05 10.61-1.17 3.13-1.95 6.98-4.24 8.99-4.85 4.26-6.61 9.04-5.76 15.19.23 1.67.31 3.43.01 5.07-.52 2.85-1.39 5.63-2.31 9.25-1.91-2.35-3.33-3.79-4.37-5.46-1.46-2.34-3.54-1.8-5.31-1.1-.92.36-1.52 1.91-1.96 3.04-.37.96-.37 2.08-.44 3.13-.27 4.32 1.17 5.58 5.42 4.67.91-.2 2.07-.44 2.59-1.08 3.19-3.91 7.4-2.29 12.3-2.68-6.41 6.51-9.76 14.67-18.41 17.63-2.71.93-2.75 2.84-.47 4.64 1.48 1.16 2.96 2.31 4.5 3.39 1.41.99 2.82 2.05 4.38 2.76 1.41.64 3.01.86 4.76 1.33-.44 1.16-.86 2.1-1.15 3.09-.7 2.4.71 6.45 2.25 6.37 3.15-.18 6.29-.56 9.49-.87.51-3.29-1.5-4.9-3.35-6.63-3.62-3.35-4.52-9.34-1.98-12.89 2.8 1.74 2.8 1.75 3.77 6.44.94 4.55 3.34 6.13 7.73 4.67 1.34-.45 3.19-1.7 3.35-2.79.2-1.36-.88-3.13-1.85-4.36-.87-1.1-2.35-1.73-3.64-2.62.94-1.02 1.77-1.92 2.07-2.25-1.67-5.32-4.11-10.02-4.37-14.84-.22-3.94-.52-7.58-1.25-11.49-.89-4.78 1.62-10.18 2.65-15.33 4.31 1.12 5.77 2.44 5.23 6.28-1.62 11.34 3.07 19.96 11 27.31 1.39 1.29 1.58 2.5 1.11 4.18-1.38 4.88-2.94 9.72-2.27 14.96.11.85-.96 2.22-1.85 2.77-2.72 1.68-5.62 3.08-8.45 4.59-.01.4-.02.79-.03 1.19 3.21 1.16 6.35 2.94 9.65 3.34 5.51.68 8.83-3.73 12.22-6.71 3.86 2.71 7.47 5.25 11.67 8.2-.92 5.35.46 12.32-4.63 17.8-.54.58-.65 1.76-.6 2.64.13 2.22.45 4.43.74 6.63.68 5.23.68 5.22-4.54 5.76-.18.02-.34.21-.55.35v6.7c1.37-.42 2.45-.79 3.56-1.08 2.03-.54 4.27-1.83 6.06-1.37 3.96 1.02 7.15.44 10.24-2.12.85-.7 2.14-.87 3.23-1.26 2.47-.88 4.95-1.75 7.4-2.61-1.18-5.29-1.28-5.36-6.38-4.93-3 .25-5.23-1.02-5.47-3.04-.32-2.64-.83-5.26-1.05-7.91-.12-1.41-.24-3.14.43-4.25 3.5-5.8 1.62-13.32 6.11-18.76.23-.28.2-.82.2-1.24.02-3.88 1.34-7.17 4.2-9.89 1.37-1.3 2.54-2.85 3.64-4.41.57-.8 1.12-1.88 1.08-2.8-.33-6.96 2.82-12.93 5.17-19.14.82-2.16 2.33-2.56 3.95-1.41 2.79 1.98 5.35 4.29 8.22 6.63-3.35 3.52-4.05 7.2-4.02 11.28.05 6.49.98 7.48 7.4 6.47 2.16-.34 4.02-.93 4.73-3.49 1.86-6.72 2.67-7.15 9.26-5.22 2.43.71 4.75 1.77 7.14 2.64.79.29 1.69.82 2.41.66 5.37-1.22 10.29 1.01 15.26 2.18 3.7.87 7.09 3.04 10.63 4.6 1.23.54 2.47 1.29 3.76 1.4 2.3.19 4.39-2.44 4.09-5.09-.24-2.2-1.89-2.68-3.89-2.87-2.91-.27-5.79-.88-8.69-1.3-1.34-.19-2.84-.73-4-.32-2.26.79-3.6-.07-4.93-1.63-.75-.88-1.72-1.58-2.5-2.45-5.41-6.12-11.41-11.26-19.85-12.68-2.64-.44-2.04-2.02-1.11-3.76 1.01-1.89 2.09-3.82 2.62-5.87.85-3.27 1.4-6.64 1.81-10 .24-1.92 1.23-2.9 2.86-2.45 2.98.82 6.1 1.65 8.68 3.25 4.54 2.82 13.47 2.25 16.89-1.6 1.74-1.96 1.21-3.97-1.3-4.48-2.06-.42-3.25-1.46-4.11-3.43-.48-1.1-1.87-2.19-3.06-2.52-3.72-.97-7.48-1.62-11.17-2.4zm-41.65 163.5c2.96 6.44 2.96 6.44 9.43 4.15.4-.14.86-.52 1.17-.42 1.36.45 2.68 1.04 4.01 1.58-.76 1.35-1.21 3.34-2.35 3.89-1.46.7-3.49.32-5.26.27-3.33-.09-6.65-.28-10.07-.43 1.11 8.42 6.29 12.03 13.44 10.05 1.2-.33 2.56-.05 3.85-.05.15.24.29.48.44.71-3.4 3.2-5.31 6.83-4.04 12.05 3.19-2.28 6.12-2.8 9.56-1.61 1.77.61 4.1.06 6.03-.48.78-.22 1.7-1.83 1.66-2.77-.12-3.17-.62-6.32-1.02-9.47-.24-1.88-.07-4.06-.98-5.56-1.97-3.25-4.36-6.05-5.79-9.83-1.29-3.42-.77-5.71.56-8.52.73-1.55 1.78-3.44 1.46-4.9-.76-3.43-1.86-6.93-3.63-9.93-1.09-1.84-1.83-3.1-.75-5.03.34-.62.45-1.36.7-2.13-2.09-1.42-4.07-2.77-6.36-4.33 2.78-3.24 5.45-6.22 7.95-9.34.7-.87.9-2.13 1.34-3.21-1.15-.3-2.29-.71-3.47-.88-1.69-.25-3.41-.32-5.12-.47-.01-.39-.02-.79-.04-1.18 1.4-.69 2.8-1.37 4.19-2.07 1.66-.83 3.69-1.3 3.49-3.86-.21-2.62-1.48-4.22-3.98-5.15-2.42-.89-4.7-2.15-7.21-3.32 2.17-4.05 4.86-7.4 5.75-11.17.94-3.97 2.58-5.99 6.36-7.27 2.73-.92 2.74-4.45.9-6.24-2.03.48-4.45 1.76-5.27 1.08-1.25-1.03-1.4-3.4-1.97-5.21-.12-.39-.03-.84-.06-1.27-.19-2.78-.13-5.67-4.14-5.85-.68-.03-1.4-.9-1.95-1.52-3.33-3.7-4.9-3.65-8.23.46 1.38 1.24 2.77 2.49 4.26 3.84-1.55 1.48-2.98 2.84-4.52 4.3 2.49 3.19 3.58 6.4 1.27 10.01-.3.47-.17 1.23-.17 1.86.02 5.75 1.93 11.22 1.48 17.23-.3 4.02-1.08 6.66-3.76 9.05.82 1.58 2.01 3.06 2.37 4.73 1.05 4.86 1.3 9.94 2.76 14.65 1.49 4.82-1.33 9.63.7 14.28.15.35-.44.97-.45 1.47-.05 1.49.12 3 0 4.48-.09 1.19-.47 2.36-.71 3.53-1.05-.65-2.4-1.08-3.09-2.01-.98-1.31-1.47-2.97-2.22-4.6-1.04.48-1.81.82-2.55 1.19-2.99 1.47-3.47 3.03-1.14 5.46 1.31 1.36 3.29 2.24 5.12 2.88 2.46.87 5.06 1.3 7.61 1.92.1.38.2.77.3 1.15-2.63 1.3-5.25 2.55-7.86 3.81zm42.47-224.76c.29-.05.58-.09.87-.14.5 1.7 1.36 3.39 1.42 5.11.08 2.07-.46 4.18-.83 6.26-.65 3.64-1.61 7.24-2.02 10.91-.41 3.69 1.9 5.52 5.44 4.66 1.54-.38 3.07-.83 4.54-1.4 6.72-2.62 9.26-8.09 7.11-14.99-.25-.82-.31-2.15.16-2.61s1.77-.32 2.61-.1c5.57 1.5 8.02 5.68 8.65 10.97.85 7.04 1.42 14.12 1.97 21.19.29 3.76 2.49 5.43 6.17 4.33 2.87-.86 4.7-2.67 5.28-5.72.33-1.75.96-3.45 1.44-5.18 1.22-4.35 2.52-8.68 3.57-13.07.24-1-.19-2.29-.63-3.3-7.02-16.19-19.8-25.72-36.15-31.03-.96-.31-2.07-.46-3.07-.33-9.12 1.16-9.12 1.18-12.12 9.96-.17.5-.56 1.04-.47 1.49.15.78.46 1.62.94 2.24 1.07 1.38 2.3 2.64 3.47 3.96.36-.71 1-1.96 1.65-3.21zm18.04 161.92c-.68 6.1-.68 6.09 4.44 6.65.62.07 1.27.21 1.84.47 1.96.88 2.15 2.58.46 3.91-.58.45-1.46.65-1.83 1.21-.54.81-.75 1.85-1.1 2.79.92.31 2.02 1.11 2.71.85 2.76-1.05 4.95.03 7.17 1.37 2.63 1.59 5.38 3.01 7.86 4.79 2.9 2.09 5.39.18 7.64-.89.83-.4.7-3.36.53-5.1-.13-1.29-1.06-2.5-1.58-3.76-.67-1.64-1.41-3.27-1.87-4.97-.66-2.44-.14-5.46-3.61-6.35-.39-.1-.46-1.14-.84-1.62-.49-.62-1.05-1.41-1.73-1.61-4.15-1.18-8.34-2.21-12.6-3.31-1.81 2.94-3.26 6.15-7.49 5.57zm-19.65 9.53c2.64-.66 5.79-.51 6.83-1.92 1.84-2.51 2.39-5.95 3.66-9.51h9.6c-.57-1.78-.99-3.19-1.46-4.56-1.14-3.28-2.35-4.06-5.29-2.34-3.12 1.82-4.2.41-5.47-2.1-1-2-1.86-4.67-4.73-4.53-4.79.23-7.68-2.28-9.79-6.11-1.45-2.64-3.22-3.01-4.99-1.45.22 3.5.79 6.59.52 9.6-.34 3.75.75 6.56 3.12 9.46 3.15 3.84 7.41 7.12 8 13.46zm-131.51-226.78c.5 1.34 1.09 2.6 1.43 3.92.82 3.22 2.24 5.41 6.14 4.77.81-.13 2.39.65 2.55 1.28.24.94-.16 2.41-.84 3.14-.96 1.04-2.38 1.67-3.67 2.36-2.49 1.34-5.02 2.59-7.53 3.88-.09.39-.17.77-.26 1.16 1.25.76 2.46 2.07 3.75 2.16 3.03.21 6.12-.02 9.16-.35 3.72-.41 6.77-1.83 7.31-6.17.07-.58.51-1.2.94-1.63 3.62-3.59 3.1-8.31 3.3-12.73.06-1.25-1.21-3.49-2.19-3.68-2.37-.47-5.25-.69-7.33.26-2.77 1.27-4.48 1.7-6.36-1.15-1.23-1.86-2.88-2.26-5.03-.5-1.38 1.14-3.56 1.47-5.44 1.8-2.29.41-4.65.43-7.12.64 2.12 6.42 5.79 6.51 11.19.84zm78.94 242.69c-1.25 1.9-1.9 3.52-3.08 4.51-1.05.88-2.69 1.05-4.07 1.53.4-2.7 1.87-4.56 1.81-6.37-.15-4.87 2.14-7.27 6.93-7.75-.82-2.62-2.15-2.03-3.56-1.44-3.77 1.56-7.27 3.83-11.71 3.43-4.43-.4-6.98 2.64-6.72 7.11.12 2.03-.31 4.08-.57 7.03 4.7 6.81 5.1 6.85 11.46.32 4.79 1.68 9.77 3.13 9.98 9.63.02.52 1.04 1.4 1.62 1.42.83.03 2.31-.42 2.43-.92.91-3.91 4.25-4.38 7.21-5.3 1.81-.56 2.75-1.3 2.09-3.37-.61-1.92-1.12-3.63-3.74-3.37-6.83.68-6.83.64-10.08-6.46zm71.23-107.24c3.05 4.23 7.36 5.43 12.28 5.02 3.9-.32 7.36.43 10.95 2.28 2.8 1.44 6.28 3.38 9.76.48.71-.59 2.57-.71 3.31-.19 3.24 2.24 6.02 0 9.91-.45-1.18-1.81-1.77-3.45-2.94-4.37-3.35-2.63-6.92-4.96-10.65-7.57.02-.02-.45.23-.85.56-4.85 3.99-10.03 4.47-15.61 1.64-1.22-.62-2.55-1.03-3.86-1.43-6.67-2-7.88-1.59-12.3 4.03zm-151.6 6.2c.09-.19.18-.37.27-.56.42 0 .85.04 1.27-.01 3.67-.45 4.52-2.19 2.8-5.35-1.23-2.25-2.22-4.36-5.4-4.53-1.3-.07-2.65-1.62-3.75-2.73-1.48-1.49-2.66-3.29-4.12-4.81-2.61-2.71-4.5-2.58-7.87-1.11-4.76 2.07-6.86 5.08-5.3 10.25.21.69-.19 1.7.18 2.17 1.56 1.98 3.03 4.21 5.06 5.57 1.84 1.24 4.14.93 6.04-.97 1.86-1.85 4.08-1.69 6.3-.3 1.44.92 3.01 1.6 4.52 2.38zm-10.72 93.25c-3.63 2.29-2.32 5.13-2.02 7.66.49 4.17 1.33 8.32 1.62 12.5.14 2 .7 3.17 2.57 3.74 2.7.83 4.44 2.7 5.68 5.18.55 1.11 1.39 2.09 2.07 3.09 6.37-3.16 7.22-5.09 4.48-9.75 3.43-4.97 3.03-8.1-1.31-12.4-1.12-1.11-1.77-2.7-2.88-4.45-3.93-.01-10.01 3.24-10.21-5.57zm47.09 75.68c1.84-.87 3.65-1.72 5.44-2.58 3.03-1.46 4.6-7.03 2.43-9.59-.75-.88-2.44-1.15-3.76-1.32-.99-.12-2.05.37-3.82.75.77-1.57 1.46-2.37 1.51-3.2.09-1.31.23-3.11-.51-3.85-.84-.85-3.09-1.48-3.92-.94-3.26 2.12-6.65 4.35-9.08 7.29-1.39 1.68-1.06 4.8-1.45 7.27-.5 3.19.5 5.08 4.13 5.04 1.06-.01 2.12.78 2.81 1.06 1.46-.8 2.81-1.53 4.08-2.23.89.94 1.45 1.55 2.14 2.3zm43.04-45.13c-3.56 1.54-7.22 2.76-10.29.02-3.08-2.75-5.8-2.68-8.9-.45-.42.3-.92.55-1.42.7-3.63 1.03-4.75 3.04-3.99 6.97.57 2.92 1.45 4.14 4.36 3.9 2.4-.2 3.4 1.12 3.59 3.41.2 2.39.58 4.77.98 7.99 1.46-1.08 2.95-1.62 3.37-2.61.63-1.47.63-3.26.69-4.92.09-2.95.03-5.91.03-8.86 2.08 1.53 3.19 4.14 4.96 4.69 1.97.62 4.71-.23 6.78-1.18 1.88-.85 1.65-6.01-.16-9.66zm54.27-248.45c.06-.21.13-.42.19-.63 1.04-.17 2.09-.29 3.11-.53 2.5-.58 4.35-3.39 3.97-5.94-.32-2.18-2.38-2.97-5.51-2.89-2.88.07-5.78-.5-8.67-.83-1.35-.15-2.68-.44-4.02-.57-3-.29-6.08-.17-8.97-.87-2.42-.59-3.45-.09-4.16 2.2-.72 2.33-.32 4.21 2.06 4.82 7.31 1.87 14.66 3.51 22 5.24zm3.54 264.28c.52.22 1.04.43 1.56.65 2.79-2.64 5.61-5.25 8.37-7.92 1.83-1.77 1.81-4.05.41-5.77-1.48-1.82-3.44-3.57-5.56-4.48-3.64-1.57-8.61 2.2-7.96 6.05.67 3.89 2.09 7.65 3.18 11.47zm-122.75-252.61c-.53.73-1.18 1.45-1.63 2.28-.99 1.83-2.27 1.68-3.99 1.03-2.39-.9-4.91-1.49-8.32-2.49-1.19-1.86-1.81-2.05-7.89-3.11-1.89-.33-2.48.45-2.87 1.94-.56 2.09.55 3.18 2.32 3.86 2.26.86 4.78 1.33 6.73 2.65 2.44 1.64 4.6 2.16 7.3.9.78-.37 2.18-.35 2.85.12 3.64 2.59 5.84 2.74 9.57.27 2.47-1.63 2.43-3.49-.1-5.05-1.25-.76-2.49-1.5-3.97-2.4zm9.47 210.05c-2.93 3.94 2.45 4.65 3.64 6.02 0 3.16-.92 6.28.18 7.36 2.94 2.89 6.74 4.9 10.2 7.27-.19-4.07-6.23-7.43-.18-10.45-.27-2.13-.49-3.74-.67-5.35-.34-3.22-2.04-5.27-4.07-5.13-2.68.17-5.37.17-9.1.28zm-22.57-51.22c-2.23-.71-5.12-1.69-8.04-2.52-2.71-.77-3.99.2-3.25 2.99.86 3.24 2.47 6.28 3.85 9.65-.31.33-1.02 1.08-1.79 1.89.74 1.38 1.43 2.66 2.22 4.13 3.59-1.46 6.98-2.83 9.78-3.97-.91-4.01-1.75-7.7-2.77-12.17zm83.28 113.67c1.7-4.73 1.56-8.79-.47-12.36-1.14-2-3.32-3.79-5.45-4.75-3-1.35-6.28 1.14-6.81 4.4-.83 5.11 3.83 7.25 5.99 10.64.93 1.46 4.27 1.38 6.74 2.07zm87.25-101.74c.72-1.56 1.73-2.77 1.71-3.95-.04-1.98-1.05-4.26 1.3-5.33 2.43-1.1 2.57 1.84 3.88 2.74 1.17.81 3.32 1.77 4.1 1.25 1.46-.98 2.68-2.86 3.1-4.59.21-.86-1.36-2.59-2.51-3.25-2.16-1.25-4.66-1.9-6.93-2.99-2.44-1.18-6.28-.07-7.52 2.36-2.45 4.78-1.71 9.29 2.87 13.76zm-125.43 86.4c-.48.64-.82 1.16-1.21 1.62-2.28 2.68-1.63 4.76 1.84 5.47 1.08.22 2.33.13 3.39-.19 3.36-1.01 3.63-2.37 1.05-4.71-1.56-1.41-3.25-2.6-2.37-5.27 2.03-6.11-.49-7.5-5.63-10.04-2.52-1.24-3.54.09-3.9 2.3-.15.9.24 1.88.2 2.81-.07 1.43-.3 2.85-.51 4.73 1.83.84 4.39 2.02 7.14 3.28zm129.28-37.76c.55 6.46 5.46 8.22 10.29 9.87 1.26.43 2.97.16 4.27-.32 2.07-.77 3.46-5.33 2.26-6.65-5.67-6.24-8.75-6.85-16.35-3.21-.19.09-.35.23-.47.31zm-200.13 32.75c.12 3.56 1.5 6.22 3.73 8.51 2.88 2.96 7.27 3.21 9.58.61 2.09-2.36 1.04-6.58-2.25-9-1.36-1-2.78-1.94-4.06-3.04-1.5-1.29-3.15-2.69-4.95-1.19-1.08.9-1.39 2.71-2.05 4.11zm169.23-29.12c1.58 1.59 2.78 3.16 4.33 4.23 1.14.79 2.62.5 2.61-1.4-.01-3.98 2.06-6.37 5.5-8.06 1.98-.97 1.93-3.42-.2-3.91-4.76-1.09-6.68-4.78-9.08-8.24-.43-.62-1.7-1.08-2.49-.96-1.79.26-3.52.93-5.28 1.43-.03.43-.07.87-.1 1.3 1.26.3 2.52.6 3.79.9.69.16 1.52.13 2.06.51 4.51 3.2 4.89 8.56.95 12.45-.45.43-.96.8-2.09 1.75zm-55.06-256.63c-1.61.23-3.37.54-5.13.73-2.28.25-2.1 1.72-1.57 3.22 1.08 3.04 6.96 7.12 10.16 7.17 3.24.05 5.4-1.71 5.7-4.64.36-3.54-.63-4.9-4.3-5.68-1.53-.33-3.1-.52-4.86-.8zm-22.6 13.24c.14 3.19.11 5.53.39 7.83.22 1.81.31 4.08 2.94 4.12 2.69.04 4.27-1.63 4.93-4.1.38-1.42.43-2.93.69-4.38.41-2.34 3.03-4.85.45-6.99-2.94-2.43-5.26.56-7.63 1.85-.88.48-1.5 1.41-1.77 1.67zm-17.97 224.77c-1.79-4.28-10.17-7.79-14.6-6.28-.7.24-1.56.36-2.02.84-.5.52-.95 1.48-.81 2.11.11.49 1.28 1.2 1.77 1.07 2.86-.78 3.9.57 4.6 3.12.98 3.55 3.87 4.52 6.96 2.47 1.49-.97 2.78-2.24 4.1-3.33zm17.45 75.65c-.85-2.34-2.03-3.76-4.92-3.17-3.1.63-4.65-1.83-6.36-3.84-1.64-1.94-5.23-2.48-6.33-1.03-2.03 2.68-.37 7.04 2.95 7.79 2.67.6 5.35 1.17 7.96 1.96 2.62.77 4.76.25 6.7-1.71zm-80.53-142.72c4.69-.33 8.07-2.92 7.04-4.76-1.28-2.28-.46-3.93.22-5.92.39-1.15.62-2.64.21-3.7-.51-1.3-1.7-3.15-2.72-3.24-1.37-.11-3.19.94-4.2 2.06-.62.68-.21 2.42-.05 3.66.2 1.51.96 3.01.86 4.47-.15 2.34-.81 4.63-1.36 7.43zm196.48-9.72c.27-.51.53-1.03.8-1.54-1.35-1.37-2.46-3.42-4.09-4.01-6.67-2.39-12.3.14-17.45 4.56.54 1.2 1.04 2.33 1.59 3.55 2.4-1.14 4.53-2.36 6.82-3.15 1.42-.49 3.07-.51 4.6-.4 2.58.19 5.15.65 7.73.99zm-210.47-32.4c5.71.19 9.4-2.49 12.48-6.1.55-.64.28-3.07-.27-3.35-1.93-.95-4.12-1.63-6.25-1.72-.65-.03-1.42 2.14-2.1 3.33-.93 1.6-1.86 3.2-2.71 4.84-.43.83-.68 1.75-1.15 3zm233.38 38.92c2.31-1.13 3.91-1.91 5.51-2.69 1.3-.64 2.79-1.04 2.26-3.14s-1.8-3.92-3.79-3.47c-2.61.58-4.99 2.19-7.48 3.36 1.16 1.95 2.32 3.92 3.5 5.94zm-129.71-92.28c1.53-.65 3.86-.94 4.19-1.91.81-2.42 1.08-5.18.8-7.72-.11-.96-2.25-1.94-3.64-2.38-.46-.15-1.69 1.22-2.14 2.11-1.63 3.2-1.83 6.43.79 9.9zm121.84 64.87c.89-.25 1.52-.24 1.86-.55 2.55-2.29 5.12-4.57 7.49-7.04.41-.43.08-2.43-.15-2.48-1.79-.35-3.93-1.04-5.38-.37-1.73.8-4.41 1.47-4.21 4.43.13 1.89.24 3.77.39 6.01zm-213.3 170.17c-2 3.62-1.44 6.43.68 9.06.94 1.17 5.77 1.35 6.39-.13.54-1.31.32-3.74-.59-4.68-1.69-1.76-4.12-2.78-6.48-4.25zm113.4-242.72c1.77-.23 3.29-.51 4.82-.62 2.81-.19 3.63-1.29 2.87-4.05-.65-2.39-3.53-4.48-5.98-4.23-.5.05-1.19.46-1.4.89-1.27 2.65-2.75 5.35-.31 8.01zm81.99-48.25c3.28 5.11 8.05 3.51 12.44 3.19.76-.06 2.14-1.23 2.05-1.57-.29-1.08-1.07-2.82-1.78-2.88-4.22-.36-8.62-1.75-12.71 1.26zm-162.17 181.71c1.1 1.69-.09 4.79 3.43 5.06 2.78.21 5.41-.2 6.77-2.94.37-.75.03-2.39-.6-2.99-2.56-2.45-5.39-2.14-9.6.87zm172.71-26.75c1.83-.55 2.93-.83 4-1.21 3.03-1.08 4.42-4.52 2.5-7-.9-1.16-2.74-2.02-4.22-2.15-.81-.07-2.43 1.6-2.55 2.61-.28 2.41.12 4.89.27 7.75zm-202.39 10.87c4.7-1.64 5.02-7.31.67-11.93-3.64 1.59-3.92 6.69-.67 11.93zm31.92 40.64c2.97-1.92 3.23-3.51.81-5.74-1.23-1.13-2.77-1.92-4.16-2.88-1.54-1.07-3.07-.55-3.77.76-.38.71.19 2.48.91 3.15 1.84 1.71 4.01 3.08 6.21 4.71zm6.89 43.28c0-1.04 0-1.36 0-1.68.01-2.38-.99-4.1-3.52-3.79-2.32.29-3.85 1.59-2.86 4.39.35.98.17 2.15.57 3.1.35.84 1.15 2.08 1.78 2.1 1.09.03 2.56-.45 3.22-1.25.71-.86.68-2.34.81-2.87zm11.18-43.25c3.18-.08 5.6-1.9 5.39-4.07-.28-2.87-2.97-3.39-4.74-3.08-1.56.28-3.61 2.2-3.95 3.73s.89 3.78 3.3 3.42zm20.45-26.82c-3.28 1.15-6.01 2.12-8.74 3.08-.14.34-.27.69-.41 1.03 1.19.85 2.35 2.36 3.56 2.39 2.16.06 4.47-.51 6.42-1.44.41-.19-.48-3.1-.83-5.06zm-13.94-170.23c.52-.41.88-.64 1.16-.93 1.17-1.21 2.37-2.41 3.47-3.69 1.47-1.72.56-4.01-1.71-4.42-3.01-.55-5.31 1.87-4.47 4.79.4 1.39.99 2.72 1.55 4.25zm159.6 181.08c2.38 1.44 3.56 2.6 4.91 2.85 1.48.27 3.11-.3 4.68-.5-.26-1.6.01-3.83-.93-4.61-1-.83-3.21-.57-4.76-.21-1.26.28-2.32 1.42-3.9 2.47zm-155.04 17.74c4.19.42 6.08-1.06 5.7-4.95-.09-.92-1.81-2.27-2.89-2.38-2.91-.27-3.59 1.7-2.81 7.33zm101.64-22.92c-.53-2.92-2.13-3.61-4.1-3.73-2.56-.16-2.58 1.95-2.56 3.52.03 2.11.42 4.92 3.08 4.59 1.35-.16 2.4-2.84 3.58-4.38zm21.09 4.39c.07-2.33-1.75-5.11-3.31-4.61-1.27.41-3.17 1.86-3.13 2.77.1 2.01.4 4.6 3.54 4.71 2.08.09 2.83-1.01 2.9-2.87zm7.1-27.99c.88 2.03 1.32 4.01 2.5 5.31.44.48 3.6-.35 3.83-1.1.57-1.9.19-4.08.19-6.62-2.54.94-4.11 1.52-6.52 2.41zm27.53-166.94c-.47-1.8-.91-3.5-1.36-5.21-2.12.76-4.25 1.52-6.15 2.2.98 5.2 3.84 4.24 7.51 3.01zm-.83 183.06c-.46.36-1.88.9-2.16 1.79-.7 2.24 1.43 2.16 2.71 2.38 1.63.28 3.32.23 4.98.17.13 0 .48-1.69.27-1.82-1.52-.92-3.16-1.63-4.76-2.4-.09-.04-.21-.03-1.04-.12zm8.58 43.06c1.69 2.68 4.66 3.71 6.56 2.06.57-.49.72-2.51.24-2.99-2.4-2.37-2.92-2.91-6.8.93zm-213.22-15.39c.33-.25.66-.5.98-.75-.78-1.42-1.45-3.93-2.37-4.02-1.84-.19-3.81.95-5.79 1.55 1.67 4.72 4.74 2.96 7.18 3.22zm4.35-13.11c.5 1.43.83 2.39 1.2 3.44 6.89-3.7 7.6-5.96 2.83-9.05.21 2.88-.3 5.27-4.03 5.61zm201.69 10.56c.85 2.31 1.35 3.65 2.13 5.76 1.56-1.1 3.18-1.71 3.85-2.88.45-.78-.26-3.28-.77-3.37-1.49-.29-3.15.23-5.21.49zm-41.81 40.77c-.34.38-.69.76-1.03 1.14 1.25 1.94 2.51 3.87 4.36 6.74 1.22-2.25 1.95-3.59 2.68-4.93-2.01-.98-4.01-1.96-6.01-2.95zm-38.12 9.91c-1.96-1.68-3.13-2.81-4.48-3.66-.14-.09-1.89 1.48-1.94 2.34-.11 1.76.71 3.42 2.91 3.19.9-.1 1.73-.89 3.51-1.87zm-35.92 40.48c1.57-1.67 3.25-2.68 3.21-3.63-.03-.97-1.65-2.42-2.76-2.61-.74-.13-2.33 1.44-2.56 2.47-.19.83 1.06 2 2.11 3.77zm-31.93-48.2c-1.79-1.54-2.78-2.39-3.77-3.24-.74 1.09-1.87 2.1-2.08 3.28-.13.71 1.29 2.44 1.83 2.37 1.13-.16 2.14-1.2 4.02-2.41zm23.72-61.16c-1.51 2.03-2.12 4.14-.12 6.15.24.24 2.15-.5 2.54-1.21 1.3-2.31.45-3.86-2.42-4.94zm-99.28 61.16c-.11 2.39-1.9 4.46.69 5.73.8.39 3.03-.3 3.3-1.01 1.24-3.12-1.66-3.36-3.99-4.72zm141.38-14.03c1.32-1.86 4.94-.57 4.44-4.03-.07-.5-2.42-1.23-3.41-.91-2.05.65-3 2.22-1.03 4.94zm91.66-251.84c-1.09.88-2.06 1.66-3.35 2.7 1.04 1.3 1.93 2.42 2.98 3.72 1.88-2.34 3.56-4.14.37-6.42zm-40.87 184.35c.25-.3.51-.6.76-.9-.64-1.24-1.19-2.55-2-3.67-.14-.2-1.72.15-1.94.59-.5 1.01-.56 2.23-.8 3.36 1.33.21 2.65.41 3.98.62zm10.07-59.03c-1.59-3.33-4.07-2.18-6.42-2.47.22 1.41.41 2.56.63 3.94 2.06-.52 3.73-.95 5.79-1.47zm-160.12-94.75c.82 2.2 1.47 3.93 2.11 5.65.8-1.01 2.08-1.92 2.3-3.05.47-2.34-1.32-2.64-4.41-2.6zm52.92 190.33c1.36-1.08 4.29-.26 3.57-3.31-.14-.6-1.91-1.38-2.64-1.16-2.09.64-2.69 2.14-.93 4.47zm-105.53 13.09c-.37.08-.73.16-1.1.24.32 1.85.64 3.69 1.09 6.31 2.91-3.83 2.8-4.75.01-6.55zm172.05-128.32c-2.09-1.42-3.46-2.35-4.82-3.29-.21.2-.43.4-.64.59.29 1.64.57 3.28.91 5.21 1.41-.78 2.47-1.36 4.55-2.51zm40.37-63.34c1.48 2.98 2.7 4.12 4.52 2.68.48-.38.18-1.76.23-2.68-1.38 0-2.77 0-4.75 0zm-185.85 86.12c-.67 2.87-.31 4.4 1.79 4.31.81-.04 1.57-1.32 2.35-2.03-1.29-.71-2.58-1.42-4.14-2.28zm147.95-116.85c-1.02 1.5-1.82 3.08.22 4.26.52.3 2.31-.36 2.5-.92.72-2.14-.65-3.05-2.72-3.34zm30.06 9.18c.24-.3.48-.61.71-.91-1.07-1.02-2.14-2.03-3.21-3.05-.28.18-.57.36-.85.54-.06 1.16-.12 2.32-.19 3.66 1.46-.09 2.5-.16 3.54-.24zm-122.44-1.72v4.86c1.4-.47 2.55-.86 3.69-1.25.11-.3.22-.6.33-.91-1.18-.79-2.37-1.58-4.02-2.7zm5.43 143.87c-1.01-1.24-1.69-2.07-2.38-2.91-.31.12-.62.24-.93.35-.34 1.4-.69 2.81-1.03 4.21.3.15.61.3.91.45 1.01-.62 2.02-1.24 3.43-2.1zm-.59-156.49c.03.41.05.83.08 1.24 1.69-.29 3.38-.57 5.46-.93-2.3-2.94-3.93-1.78-5.54-.31zm-39.94 279.64c-.07.39-.15.78-.22 1.16 1.33.53 2.66 1.05 3.98 1.58.15-.3.3-.6.45-.9-.67-1.13-1.34-2.27-2.11-3.57-.83.69-1.47 1.21-2.1 1.73zm105.55-103.87c-.47.31-.95.61-1.42.92.58.91 1.07 1.91 1.83 2.65.14.14 1.32-.79 2.02-1.22-.81-.79-1.62-1.57-2.43-2.35zm72.9 10.41c-.38.07-.75.15-1.13.22.13 1.41.26 2.81.45 4.97 1.57-1.35 2.27-1.95 3.05-2.62-.97-1.05-1.67-1.81-2.37-2.57zm-123.37-188.52c.35.02.7.05 1.04.07.24-1.35.49-2.7.73-4.05-.28-.1-.56-.2-.84-.3-.79.57-1.59 1.15-2.48 1.79.6.96 1.07 1.73 1.55 2.49z"/><path d="m113.33 358.75c-8.49 1.09-11.32-.55-12.62-6.64 1.49-.6 3.15-.98 4.44-1.88 1.26-.87 2.14-2.27 3.93-4.26 1.58 4.74 2.86 8.59 4.25 12.78z"/><path d="m258.7 331.81c4.39.75 8.61 1.46 13.25 2.25-2.46 1.78-4.43 3.44-6.63 4.71-1.6.92-3.25.69-4.11-1.39-.84-2.01-1.79-3.97-2.51-5.57z"/><path d="m326.28 324.27c-2.61.34-5.07.66-7.51.98-.55-2.38 1.35-4.38 4.47-4.73 2.34-.26 3.2 1.06 3.04 3.75z"/><path d="m287.24 362.54c-2.29-.53-5.25 1.8-5.87-2.28 4.23-2.14 4.6-2.02 5.87 2.28z"/><path d="m206.66 185.59c-1.98-4.2-3.47-7.23-4.82-10.31-.31-.71-.42-1.71-.17-2.42 1.58-4.55.94-8.88-.88-13.2-.32-.77.1-1.85.17-2.79.78.48 1.89.78 2.29 1.48 2.03 3.61 5.13 5.53 9.1 6.19 2.73.45 3.16 1.96 2.32 4.35-1.32 3.77-2.31 7.66-3.85 11.33-.75 1.78-2.42 3.18-4.16 5.37z"/></g><path d="m2.6 9.9.8-1c.9.7 1.9 1.4 2.9 2.3l-.9 1.1c-1.1-1-2-1.8-2.8-2.4zm.5 10.6c.9-2.1 1.6-4.3 2.3-6.7.4.2.8.4 1.3.6-.7 2.1-1.5 4.3-2.2 6.6zm.3-15.2.9-.9c1 .8 2 1.6 2.8 2.4l-1 1c-.9-.9-1.8-1.7-2.7-2.5zm12.6-1.2h1.2v1.4h2.7v1.1h-2.7v2.7h-1.2v-.6h-1.8v1.3h4.9v3.8h-1.2v-.5h-3.7c0 .4-.1.9-.1 1.2h5.1v1h-5.2c0 .5-.1.9-.2 1.2h6v1h-5.2c1.1 1.3 2.9 2 5.5 2.2-.4.4-.7.8-.9 1.3-2.9-.5-4.8-1.6-5.7-3.5h-.1c-.8 1.7-2.7 2.9-5.9 3.6-.2-.4-.6-.8-.9-1.1 2.8-.6 4.6-1.4 5.4-2.5h-4.8v-1h5.3c.1-.3.2-.7.2-1.2h-4.9v-1h5c0-.4 0-.8.1-1.2h-3.6v.5h-1.2v-3.8h4.9v-1.3h-1.8v.5h-1.2v-2.7h-2.7v-1h2.7v-1.4h1.2v1.4h4.8zm-6.7 8.3h3.6c0-.4 0-.9 0-1.4h-3.6zm1.9-4.6h4.8v-1.3h-4.7v1.3zm6.7 3.2h-3.7v1.4h3.7z" fill="#fcfbfa"/><path d="m8.7 22.1h1.3v2.2h2.8v-2.2h1.3v2.2h4.1v9.1h1.7v1.3h-17v-1.3h1.7v-9.1h4.1zm.3 13.1.7 1.2c-1.8.9-3.8 1.9-6 2.9-.2-.4-.5-.8-.8-1.3 2.3-1 4.4-1.9 6.1-2.8zm-3.1-6.4h2.8v-3.2h-2.8zm0 4.6h2.8v-3.3h-2.8zm4.1-4.6h2.8v-3.2h-2.8zm0 4.6h2.8v-3.3h-2.8zm3.6 1.9c2.1.9 4.1 1.8 6.1 2.7l-.7 1.4c-2.2-1.1-4.2-2-6.1-2.9zm3.2-9.7h-2.8v3.2h2.8zm-2.7 7.8h2.8v-3.3h-2.8z" fill="#fcfbfa"/></svg>