<svg enable-background="new 0 0 400 400" viewBox="0 0 400 400" xmlns="http://www.w3.org/2000/svg"><path d="m6.8 9.5c.6.3 1.3.7 2.1 1.1-.4.4-.7.8-.9 1.2-.7-.4-1.3-.8-1.8-1.1s-1.1-.6-1.6-.8c.2-.4.5-.8.7-1.2.4.2.8.5 1.5.8zm.9 6.9c-.3.6-.5 1.1-.7 1.7s-.4 1.1-.6 1.7c-.6-.4-1.1-.7-1.6-1 .7-1 1.2-1.8 1.5-2.4.3-.5.6-1.1.8-1.7.3-.6.5-1.2.8-1.8.3.3.8.6 1.3.8-.7 1.3-1.2 2.2-1.5 2.7zm.1-11c.4.3 1 .7 1.7 1.1-.5.2-.8.6-1.1 1.1-.5-.6-1-1-1.4-1.2s-.9-.6-1.5-.8c.2-.4.5-.7.9-1.1.5.3.9.6 1.4.9zm10.5 13.1c1 .4 2 .6 3.1.7-.4.4-.7.8-.8 1.3-.9-.2-1.9-.6-3-.9-1-.4-2-.9-2.8-1.6-.5.4-1.1.9-1.9 1.3s-1.9.9-3.3 1.2c-.1-.3-.5-.8-1.1-1.3 1 0 2.1-.3 3.2-.8 1.2-.5 1.9-1 2.3-1.7h-3.2c-.4 0-1 0-2 .1v-1.2c1 0 1.7.1 2 .1h3.3v-1h-2.3c-.2 0-.9 0-2 .1v-1.2c1.2 0 1.9.1 2 .1h2.3v-.8h-4.1c0-.7.1-1.2.1-1.6 0-.5 0-1.1-.1-1.8h4.1v-.7h-2.5c0-.6.1-1.1.1-1.6v-.6h-.5c-.4 0-1 0-1.8.1v-1.3c1.2 0 1.9.1 2.1.1h.2c0-.3 0-.8-.1-1.4h1.4c0 .6-.1 1-.1 1.4h3.4c0-.4 0-.8-.1-1.3h1.5c0 .4-.1.9-.1 1.3.7 0 1.5 0 2.5-.1v1.2c-1 0-1.8-.1-2.5-.1v.6c0 .3 0 .8.1 1.5h-2.5v.8h4.1c0 .7-.1 1.3-.1 1.8s0 1 .1 1.5h-4.1v.8h1.4c.8 0 1.8 0 2.9-.1v1.2c-1 0-1.9-.1-2.8-.1h-1.5v1h3.2c.3 0 1 0 2.1-.1v1.2c-1.1 0-1.8-.1-2.1-.1h-3.4l-.1.1c1.4 1 2.4 1.5 3.4 1.9zm-4.1-6.7v-1.3h-2.7v1.3zm2.2-4.1v-1.1h-3.4v1.1zm1.9 4.1v-1.3h-2.8v1.3z" fill="#fafafb"/><path d="m37 6.7v2.3 5.4c1 0 1.8 0 2.2-.1v1.3c-.6 0-1.5-.1-2.5-.1h-11.9c-.7 0-1.3 0-1.8.1v-1.3c.5 0 1.1.1 2 .1v-5.2c0-1 0-1.8-.1-2.5h3.7c0-1.3 0-2.1-.1-2.5h1.5c0 .4-.1 1.3-.1 2.5h2.2c0-1.2 0-2.1-.1-2.6h1.5c0 .4-.1 1.3-.1 2.6zm-12.3 13.7c-.3-.4-.7-.8-1.1-1.1 1.1-.4 2.1-.9 2.9-1.3.8-.5 1.5-1 2.1-1.6.4.4.9.8 1.3 1.1-2.5 1.4-4.2 2.4-5.2 2.9zm3.9-10.1v-2.4h-2.2v2.4zm0 4.1v-2.9h-2.2v2.9zm3.5-4.1v-2.4h-2.2v2.4zm0 4.1v-2.9h-2.2v2.9zm.4 2.9 1-1.1c.6.3 1.4.7 2.5 1.3s2 1.1 2.7 1.5c-.4.4-.8.8-1.1 1.3-.8-.8-2.5-1.7-5.1-3zm3.1-7v-2.4h-2.1v2.4zm0 4.1v-2.9h-2.1v2.9z" fill="#fafafb"/><g fill="#000001"><path d="m205.26 366.37c-8.06 1.24-18.73-1.18-29.17-3.65-7.07-1.67-13.93-5.08-20.27-8.78-8.51-4.96-16.35-10.97-21.57-19.76-5.24-8.83-7.82-18.53-9.37-28.48-1.25-8.04-1.68-16.2-2.38-24.32-.09-1.09-.03-2.55.6-3.3 4.94-5.9 6.28-13.3 8.83-20.21.77-2.08 2.08-4.15 3.66-5.7 4-3.93 8.19-7.7 12.53-11.26 1.73-1.42 3.97-2.57 6.15-3.03 10.76-2.3 21.51-4.87 32.4-6.24 5.29-.67 10.88 1.16 16.34 1.72 11.35 1.15 22.26 3.96 32.79 8.31 1.43.59 2.69 1.6 4.07 2.34 2.36 1.28 4.75 2.51 7.14 3.73.65.33 1.55.33 2.01.8 10.04 10.3 20.61 20.26 24.93 34.65 2.93 9.75 1.62 19.52-.28 29.26-1.72 8.83-2.77 18.05-8.42 25.38-5.61 7.29-11.26 14.8-20.64 18.03-5.69 1.96-11.43 4.05-16.69 6.92-6.35 3.47-13.07 2.97-22.66 3.59zm-32.85-85.79c-.01-.19 0-.72-.06-1.24-.82-6.83-1.6-13.66-2.52-20.47-.3-2.18-.72-4.43-1.59-6.44-2.01-4.67-7.1-5.86-11.17-2.92-5.36 3.87-8.55 9.11-10.79 15.29-1.44 3.99-3.85 7.69-6.26 11.23-1.03 1.51-1.35 2.43-.72 4.17.61 1.72 1.04 3.9.52 5.56-1.97 6.35-.93 12.52.2 18.81 1.69 9.42 4.23 18.36 11.16 25.46 2.7 2.77 5.61 3.07 8.31.17 1.4-1.5 2.33-3.5 3.22-5.39 1.92-4.11 3.68-8.3 5.47-12.47.33-.77.67-1.57.77-2.39 1.17-9.67 2.29-19.35 3.46-29.37zm56.84-.17c.65 7.94 1.01 14.61 1.78 21.23 1.45 12.45 3.84 24.7 9.1 36.2 1.88 4.11 2.87 4.46 7 2.48 1.03-.49 2.12-1.14 2.8-2.01 5.2-6.66 10.62-13.22 11.06-22.29.14-2.85.73-5.67.96-8.51 1.54-18.88-5.29-34.41-19.04-47.11-1.07-.99-2.39-1.76-3.71-2.4-4.24-2.03-6.7-.94-7.5 3.79-1.11 6.57-1.76 13.2-2.45 18.62zm-26.92 74.53c8.4.25 16.51-.38 23.88-5.05 2.12-1.34 3.06-2.95 2.18-5.25-2.29-6-4.65-11.98-7.13-17.91-.98-2.34-2.9-3.12-5.55-3.28-11.27-.66-22.68.21-33.75-2.96-1.13-.32-2.88.02-3.8.74-2.56 1.99-5.02 4.17-7.17 6.59-2.17 2.44-3.86 5.29-5.87 7.88-2.29 2.95-2.31 6.69.81 8.6 5.61 3.44 10.79 7.89 17.79 8.55 6.21.59 12.41 1.39 18.61 2.09zm-.24-42.05c2.77-.34 7.17-.71 11.5-1.51 1.19-.22 2.95-1.61 3.08-2.64.95-7.73 1.12-15.48-2.93-22.53-.79-1.36-2.53-2.83-4-3.03-4.6-.62-9.27-.79-13.92-.87-5.1-.09-8.15 2.43-9.43 7.45-.79 3.07-1.8 6.14-2.12 9.26-.31 3.1-.1 6.31.37 9.4.16 1.03 1.75 2.4 2.86 2.61 4.25.78 8.58 1.14 14.59 1.86zm-3.29-40.17c2 0 3.17.07 4.33-.01 7.73-.54 11.61-3.67 13.74-11.06.65-2.24 1.13-4.54 1.97-6.7 1.22-3.12-.02-5.13-2.64-6.54-1.38-.75-2.87-1.54-4.39-1.75-7.54-1.02-15.09-2.03-22.67-2.68-3.61-.31-7.53 3.68-7.02 7.25.58 4.13 1.71 8.24 3.08 12.19 2.33 6.73 6.76 10.65 13.6 9.3z"/><path d="m319.45 144.17c-2.98 2.58-5.06 1.42-6.97-.34-2.89-2.65-5.85-5.25-8.51-8.12-3.54-3.83-7.65-6.58-12.64-8.09-1.16-.35-2.37-1.04-3.19-1.92-8.69-9.43-19.23-16.3-30.75-21.61-13.83-6.38-28.11-11.82-41.69-18.69-9.19-4.65-17.97-4.74-27.61-2.61-7.5 1.66-13.96 4.3-19.86 9.51-5.33 4.71-11.73 8.35-18.03 11.78-21.82 11.88-42.29 25.81-62.31 40.45-2.22 1.62-4.49 3.21-6.87 4.56-1.38.78-3.05 1.07-4.61 1.58-1.42-3.9-.9-6.37 2.22-8.92 12.96-10.61 25.63-21.55 38.42-32.37.64-.55 1.25-1.25 2.01-1.53 10.9-3.94 18.36-12.71 27.32-19.35 6.3-4.67 12.87-8.89 20.65-10.81 1.58-.39 3.13-1.26 4.46-2.23 3.93-2.87 7.74-5.93 11.62-8.88 5-3.81 7.79-8.89 8.38-15.08.59-6.06 2.47-11.51 6.51-16.27 4.78 2.51 7.34 6.41 8.3 11.45 1.06 5.58 1.12 11.41 4.39 16.43 1.78 2.73 3.76 5.04 7.07 5.97 6.91 1.95 12.79 5.77 18.73 9.76 7.18 4.83 14.99 8.71 22.51 13.01 12.63 7.21 24.81 15.01 35 25.59 1.57 1.63 3.99 2.45 6.02 3.65.09.05.22.03.3.08 8.63 5.82 16.13 12.57 19.13 23z"/><path d="m87.15 254.07c-1.26-2.89-.61-4.96 1.78-7.22 12.69-12.03 27.49-21.22 41.51-31.47 1.88-1.37 3.84-2.69 5.5-4.31 9.78-9.59 22.29-14.9 33.82-21.76 2.26-1.34 4.47-2.86 6.4-4.62 3.39-3.1 7.02-5.57 11.38-7.27 4.97-1.94 6.44-6.74 7.16-11.54.39-2.59.01-5.28.01-7.93 0-4.3 1.57-7.91 5.17-10.34.77-.52 2.47-.53 3.24-.02 4.97 3.27 5.68 8.54 6.27 13.9.45 4.19 1.02 8.41 2.02 12.49.39 1.61 1.81 3.37 3.26 4.25 15.47 9.41 31.15 18.48 46.52 28.03 8.89 5.52 17.34 11.77 26.01 17.67 2.97 2.02 6.04 3.91 8.96 6.01 2.3 1.65 4.5 3.47 6.65 5.32 2.57 2.2 5.02 4.53 7.56 6.77.87.77 2.16 1.24 2.7 2.17 1.22 2.09 2.09 4.38 3.1 6.59-2.03.63-4.05 1.74-6.1 1.81-5.87.22-7.27-.62-9.07-6.08-2.5-7.59-8.7-11.57-15.02-14.72-15.91-7.94-30.62-17.64-45-27.97-1-.72-2.21-1.36-3.41-1.57-8.63-1.51-16.76-4.48-24.43-8.61-9.05-4.86-18.01-4.66-27.09-.21-1.9.93-3.88 1.69-5.85 2.47-2.1.83-3.99 1.71-4.74 4.21-.28.93-1.52 1.71-2.5 2.27-7.71 4.41-15.54 8.61-23.17 13.15-16.37 9.76-32.69 19.61-48.9 29.63-2.81 1.74-5.14 4.37-7.37 6.88-1.77 1.97-3.56 2.89-6.37 2.02zm62.88-41.97c2.26-2.57 4.46-5.07 7.06-8.03-1.45.07-3.32-.4-4.09.32-2.02 1.88-5.59 3.43-2.97 7.71z"/><path d="m199.1 89.85c1.41 3.14 3.04 5.89 3.92 8.87 1.9 6.4 3.55 12.91 2.47 19.68-.44 2.73.64 4.17 2.93 5.54 14.89 8.92 29.6 18.14 44.54 26.96 11.26 6.65 22.23 13.57 31.1 23.41 2.17 2.4 5.04 4.18 7.63 6.19 2.41 1.87 3.48 4.18 2.6 7.59-5.85-2.13-12.04-2.88-17.12-7.02-5.66-4.61-11.85-8.58-17.55-13.15-7.84-6.29-16.48-10.88-25.76-14.73-6.16-2.56-11.67-6.74-17.27-10.51-2.8-1.89-5.57-2.98-8.96-3.4-4.57-.58-9.01-2.12-13.55-3.01-1.53-.3-3.31-.24-4.8.21-5.62 1.72-10.55 4.74-15.25 8.27-7.19 5.42-14.7 10.41-21.87 15.87-7.97 6.06-16.53 10.9-25.69 14.99-5.72 2.56-10.68 6.81-16.03 10.24-2.84 1.82-5.76 3.49-8.69 5.25-2.24-5.22-2.01-5.9 2.05-8.88 14.59-10.74 29.03-21.7 43.81-32.18 5.13-3.64 11.1-6.1 16.65-9.18 1.06-.59 2.41-1.34 2.81-2.35 2.1-5.37 6.85-7.88 11.18-10.84 1.66-1.13 3.42-2.17 5.26-2.95 7.34-3.09 8.56-9.3 8.43-16.21-.04-2.33-.4-4.65-.42-6.98-.05-5.13 2.26-8.89 7.58-11.68z"/></g></svg>