<svg enable-background="new 0 0 400 400" viewBox="0 0 400 400" xmlns="http://www.w3.org/2000/svg"><path d="m6.8 9.5c.6.3 1.3.7 2.1 1.1-.4.4-.7.8-.9 1.2-.7-.4-1.3-.8-1.8-1.1s-1.1-.6-1.6-.8c.2-.4.5-.8.7-1.2.4.2.8.5 1.5.8zm.9 6.9c-.3.6-.5 1.1-.7 1.7s-.4 1.1-.6 1.7c-.6-.4-1.1-.7-1.6-1 .7-1 1.2-1.8 1.5-2.4.3-.5.6-1.1.8-1.7.3-.6.5-1.2.8-1.8.3.3.8.6 1.3.8-.7 1.3-1.2 2.2-1.5 2.7zm.1-11c.4.3 1 .7 1.7 1.1-.5.2-.8.6-1.1 1.1-.5-.6-1-1-1.4-1.2s-.9-.6-1.5-.8c.2-.4.5-.7.9-1.1.5.3.9.6 1.4.9zm10.5 13.1c1 .4 2 .6 3.1.7-.4.4-.7.8-.8 1.3-.9-.2-1.9-.6-3-.9-1-.4-2-.9-2.8-1.6-.5.4-1.1.9-1.9 1.3s-1.9.9-3.3 1.2c-.1-.3-.5-.8-1.1-1.3 1 0 2.1-.3 3.2-.8 1.2-.5 1.9-1 2.3-1.7h-3.2c-.4 0-1 0-2 .1v-1.2c1 0 1.7.1 2 .1h3.3v-1h-2.3c-.2 0-.9 0-2 .1v-1.2c1.2 0 1.9.1 2 .1h2.3v-.8h-4.1c0-.7.1-1.2.1-1.6 0-.5 0-1.1-.1-1.8h4.1v-.7h-2.5c0-.6.1-1.1.1-1.6v-.6h-.5c-.4 0-1 0-1.8.1v-1.3c1.2 0 1.9.1 2.1.1h.2c0-.3 0-.8-.1-1.4h1.4c0 .6-.1 1-.1 1.4h3.4c0-.4 0-.8-.1-1.3h1.5c0 .4-.1.9-.1 1.3.7 0 1.5 0 2.5-.1v1.2c-1 0-1.8-.1-2.5-.1v.6c0 .3 0 .8.1 1.5h-2.5v.8h4.1c0 .7-.1 1.3-.1 1.8s0 1 .1 1.5h-4.1v.8h1.4c.8 0 1.8 0 2.9-.1v1.2c-1 0-1.9-.1-2.8-.1h-1.5v1h3.2c.3 0 1 0 2.1-.1v1.2c-1.1 0-1.8-.1-2.1-.1h-3.4l-.1.1c1.4 1 2.4 1.5 3.4 1.9zm-4.1-6.7v-1.3h-2.7v1.3zm2.2-4.1v-1.1h-3.4v1.1zm1.9 4.1v-1.3h-2.8v1.3z" fill="#fafafb"/><path d="m37 6.7v2.3 5.4c1 0 1.8 0 2.2-.1v1.3c-.6 0-1.5-.1-2.5-.1h-11.9c-.7 0-1.3 0-1.8.1v-1.3c.5 0 1.1.1 2 .1v-5.2c0-1 0-1.8-.1-2.5h3.7c0-1.3 0-2.1-.1-2.5h1.5c0 .4-.1 1.3-.1 2.5h2.2c0-1.2 0-2.1-.1-2.6h1.5c0 .4-.1 1.3-.1 2.6zm-12.3 13.7c-.3-.4-.7-.8-1.1-1.1 1.1-.4 2.1-.9 2.9-1.3.8-.5 1.5-1 2.1-1.6.4.4.9.8 1.3 1.1-2.5 1.4-4.2 2.4-5.2 2.9zm3.9-10.1v-2.4h-2.2v2.4zm0 4.1v-2.9h-2.2v2.9zm3.5-4.1v-2.4h-2.2v2.4zm0 4.1v-2.9h-2.2v2.9zm.4 2.9 1-1.1c.6.3 1.4.7 2.5 1.3s2 1.1 2.7 1.5c-.4.4-.8.8-1.1 1.3-.8-.8-2.5-1.7-5.1-3zm3.1-7v-2.4h-2.1v2.4zm0 4.1v-2.9h-2.1v2.9z" fill="#fafafb"/><g fill="#000001"><path d="m163.95 270.96c-.65 3.7-.92 7.52-2.01 11.08-2.76 8.99-4.52 18.07-4.24 27.5.03.84.09 1.79-.23 2.52-2.31 5.23-.69 10.07 1.21 14.96 1.99 5.13 3.58 10.42 5.77 15.46.95 2.19 2.56 4.59 4.55 5.74 10.31 5.97 21.4 9.18 32.57 3.21 5.32-2.85 9.48-7.95 13.92-12.29.84-.82.57-2.83.75-4.29 1-8.09 2.32-16.16 2.84-24.28.26-4.07-.75-8.28-1.53-12.36-.99-5.17-2.46-10.25-3.44-15.42-.24-1.24.61-2.69.96-4.04.39-.01.79-.02 1.18-.03 1.83 3.52 3.65 7.04 5.48 10.56 1.03 1.97 1.91 4.04 3.13 5.89 4.13 6.27 5.66 13.12 5.1 20.54-.12 1.57.1 3.18.26 4.75.57 5.4 1.74 6.62 6.97 5.05 6.14-1.84 12.47-3.88 17.86-7.21 5.77-3.57 11.37-8.09 15.54-13.39 4.39-5.57 4.88-13 4.11-20.12-.39-3.57-1.15-7.11-1.95-10.61-2.99-13.09-12.53-20.97-22.89-27.96-2.58-1.74-6.28-1.73-9.34-2.86-3.48-1.29-6.82-2.95-10.08-4.85 3.36-2.38 6.6-2 9.9-1.01 4.75 1.42 9.53 2.78 14.28 4.22.79.24 1.53.72 2.23 1.18 1.86 1.22 3.55 2.78 5.54 3.71 9.08 4.21 13.97 12.67 19.96 19.89 2.05 2.48 2.72 6.44 3.16 9.84.67 5.12.83 10.34.77 15.52-.13 10.84-6.53 18.19-14.31 24.69-8.65 7.22-18.45 12.36-29.03 16.05-1.54.54-3.58.43-5.14-.09-4.27-1.42-5.33-1.17-8.02 2.47-1.59 2.15-3.43 4.11-5.22 6.23-.68 1.91-1.33 4.14-2.25 6.25-5.62 12.82-17.41 20.27-31.3 18.78-9.58-1.03-18.13-5.16-25.99-10.99-8.91-6.62-13-16.2-17.28-25.73-1.52-3.38-3.37-5-7.26-5.72-6.91-1.28-14.3-2.51-20.25-5.92-9.78-5.6-17.93-13.49-21.66-24.79-3.37-10.19-2.29-20.05 2.2-29.64.39-.84 1.11-1.55 1.73-2.27 5.33-6.19 10.65-12.38 16.02-18.53.82-.94 1.82-1.78 2.87-2.45 7.78-4.95 15.62-9.79 23.37-14.78 2.12-1.37 4.29-1.58 5.57.43 1.29 2.04-.29 3.7-2.17 4.87-10.69 6.64-20.1 14.77-28.78 23.88-10.5 11.02-13.07 23.73-9.56 38.19 1.02 4.19 2.89 7.64 6.1 10.45 3.43 2.99 6.7 6.19 10.24 9.05 4.84 3.91 10.39 5.32 16.36 3.16 1.54-.56 3.07-2.13 3.83-3.63.82-1.61.9-3.68 1-5.56.69-13.17 7.78-23.68 14.21-34.47.29-.49.87-.82 1.31-1.22.33.13.7.26 1.08.39z"/><path d="m102.36 193.77c1.27-1.65 2.02-3.01 3.11-3.98 13.64-12.11 27.32-24.16 40.99-36.23.71-.63 1.62-1.2 2-2.01 2.23-4.74 6.43-7.5 10.3-10.6 8.86-7.08 17.66-14.25 26.61-21.21 3.62-2.81 5.88-6.27 6.93-10.66.76-3.18 1.72-6.3 2.61-9.5 3.22.29 4.88 2.26 6.06 4.73.45.94.78 2 .89 3.04 1.04 10.41 7.25 17.72 14.9 23.86 7.09 5.69 14.28 11.48 22.16 15.91 5.35 3.01 10.1 6.28 14.14 10.78.81.9 2.05 1.52 3.2 2 6.06 2.52 11.26 6.32 15.93 10.84 6.13 5.93 12.83 11.04 20.42 14.99 2.61 1.36 5.14 3.04 7.35 4.98 1.64 1.44 2.7 3.53 4.44 5.91-5.76 1.4-9.29-1.14-12.84-3.51-4.37-2.91-8.43-6.43-13.11-8.69-8.08-3.9-15.83-8.08-21.96-14.8-.91-.99-2.06-1.89-3.27-2.47-5.39-2.6-10.42-5.6-13.87-10.73-.61-.91-1.77-1.48-2.73-2.11-7.63-4.97-15.34-9.83-22.88-14.93-2.78-1.88-5.37-4.14-7.69-6.57-3.32-3.46-7.59-4.76-11.85-4.17-2.85.39-5.44 2.94-8.07 4.65-1.8 1.17-3.28 3.1-5.21 3.72-3.16 1.02-4.02 3.04-4.01 5.93 0 .85.11 1.71-.03 2.54-.14.85-.52 1.66-.8 2.49-.75-.41-1.49-.87-2.27-1.22-.65-.3-1.51-.86-2.02-.65-2.72 1.1-5.72 1.95-7.97 3.72-14.6 11.44-29.06 23.07-43.5 34.72-2.8 2.26-5.26 4.92-7.9 7.37-2.62 2.45-5.65 3.08-10.06 1.86z"/><path d="m144.35 129.32c-4.24-5.32-3.66-10.1-3.44-14.87.24-5.36.5-10.74.34-16.1-.1-3.32-2.05-5.51-5.51-6.46-16.74-4.57-27.92-16.62-38.63-29.19-2.08-2.44-3.46-5.48-5.16-8.24.18-.27.35-.55.53-.82 1.66.34 3.7.19 4.91 1.12 4.08 3.15 8.3 6.3 11.68 10.14 6.65 7.57 14.86 12.47 24.16 15.78 3.66 1.3 5.02.49 6.02-3.27.45-1.69.33-3.55.38-5.33.1-3.05.25-6.11.14-9.16-.05-1.32-1.04-2.64-.98-3.94.31-7.2.77-14.4 1.3-21.58.06-.85.88-1.65 1.47-2.67 5.4 2.48 8.36 6.63 8.6 12.35.26 6.24-.16 12.5-.02 18.75.06 2.58.43 5.29 1.36 7.67 1.15 2.94 4.6 3.59 7.15 1.65 4.05-3.08 8.04-6.24 11.97-9.47.76-.62 1.39-1.64 1.64-2.58.68-2.57 2.13-4.05 5.17-4.18-.57 3.41-.73 6.63-3.72 9.23-7.19 6.27-14.16 12.8-21.07 19.38-1.06 1.01-1.85 2.81-1.89 4.28-.17 5.29.59 10.67-.05 15.88-.74 6.04-2.51 11.97-4.02 17.9-.3 1.26-1.41 2.31-2.33 3.73z"/><path d="m282.52 60.54c1.95 3.97 1.34 7.47-1.85 10.66-4.04 4.05-8.17 8.04-12.51 11.75-1.78 1.52-4.15 2.56-6.42 3.27-5.14 1.62-7.18 3.78-7.52 9.25-.44 6.98-.63 13.98-1.1 20.96-.15 2.18-.63 4.4-1.39 6.44-.29.78-1.75 1.34-2.76 1.51-.37.06-1.3-1.24-1.42-2.01-1.13-6.86-2.6-13.71-3.05-20.62-.52-8.09-3.38-14.07-11.35-16.88-10.54-3.71-18.44-11.02-25.78-19.04-1.5-1.64-2.46-3.77-3.67-5.67.28-.31.56-.62.85-.93 3.27 1.97 6.67 3.75 9.76 5.95 4.14 2.95 7.94 6.36 12.06 9.32 3.3 2.37 7.01 3.88 11.25 3.7 1.94-.08 3.35-.64 3.61-2.69.63-4.9 1.46-9.81 1.68-14.74.23-5.11 1.49-9.78 4.18-14.32 4.71 1.67 6.33 5.45 6.7 9.8.27 3.14-.2 6.34-.19 9.51 0 2.52-.02 5.08.4 7.55s2.11 4.12 4.69 4.57c2.35.41 3.99-.33 5.7-2.3 3.58-4.15 7.53-8.02 11.63-11.67 1.71-1.51 4.19-2.21 6.5-3.37z"/><path d="m228.62 200.28c-5.68 2.82-10.26 5.56-15.17 7.42-7.14 2.7-11.28 8.14-14.17 14.6-2.59 5.77-4.42 11.88-6.56 17.85-.21.58-.41 1.28-.27 1.84 1.6 6.22-.18 12.12-1.37 18.13-.65 3.27-.35 6.72-.71 10.06-.19 1.7-.9 3.34-1.37 5.01-.47-.04-.94-.08-1.4-.11-.77-3.65-1.77-7.27-2.28-10.95-1.66-12.12-2.02-24.26-.4-36.43.23-1.75.06-3.61-.21-5.37-.63-4.15.16-7.98 2.13-11.62.34-.63.7-1.37 1.26-1.75 10.79-7.46 22.14-13.02 35.86-10.08 1.29.26 2.55.75 4.66 1.4z"/><path d="m227.07 169.32c-2.21.71-4.49 1.5-6.8 2.16-.55.16-1.45.16-1.79-.18-2.33-2.34-5.07-1.5-7.77-1.2-4.62.51-9.25 1.1-13.89 1.37-2.39.14-4.99.15-7.18-.65-4.19-1.53-8.25-1.39-12.42-.41-4.39 1.04-8.36-.49-12.25-2.15-.84-.36-1.31-1.59-2.6-3.26 4.98-.36 8.94-.69 12.91-.92 5.35-.31 10.72-.85 16.07-.76 10.54.19 21.07.68 31.59 1.22 2.53.14 4.4 1.5 4.13 4.78z"/></g></svg>