<svg enable-background="new 0 0 400 400" viewBox="0 0 400 400" xmlns="http://www.w3.org/2000/svg"><path d="m6.8 9.5c.6.3 1.3.7 2.1 1.1-.4.4-.7.8-.9 1.2-.7-.4-1.3-.8-1.8-1.1s-1.1-.6-1.6-.8c.2-.4.5-.8.7-1.2.4.2.8.5 1.5.8zm.9 6.9c-.3.6-.5 1.1-.7 1.7s-.4 1.1-.6 1.7c-.6-.4-1.1-.7-1.6-1 .7-1 1.2-1.8 1.5-2.4.3-.5.6-1.1.8-1.7.3-.6.5-1.2.8-1.8.3.3.8.6 1.3.8-.7 1.3-1.2 2.2-1.5 2.7zm.1-11c.4.3 1 .7 1.7 1.1-.5.2-.8.6-1.1 1.1-.5-.6-1-1-1.4-1.2s-.9-.6-1.5-.8c.2-.4.5-.7.9-1.1.5.3.9.6 1.4.9zm10.5 13.1c1 .4 2 .6 3.1.7-.4.4-.7.8-.8 1.3-.9-.2-1.9-.6-3-.9-1-.4-2-.9-2.8-1.6-.5.4-1.1.9-1.9 1.3s-1.9.9-3.3 1.2c-.1-.3-.5-.8-1.1-1.3 1 0 2.1-.3 3.2-.8 1.2-.5 1.9-1 2.3-1.7h-3.2c-.4 0-1 0-2 .1v-1.2c1 0 1.7.1 2 .1h3.3v-1h-2.3c-.2 0-.9 0-2 .1v-1.2c1.2 0 1.9.1 2 .1h2.3v-.8h-4.1c0-.7.1-1.2.1-1.6 0-.5 0-1.1-.1-1.8h4.1v-.7h-2.5c0-.6.1-1.1.1-1.6v-.6h-.5c-.4 0-1 0-1.8.1v-1.3c1.2 0 1.9.1 2.1.1h.2c0-.3 0-.8-.1-1.4h1.4c0 .6-.1 1-.1 1.4h3.4c0-.4 0-.8-.1-1.3h1.5c0 .4-.1.9-.1 1.3.7 0 1.5 0 2.5-.1v1.2c-1 0-1.8-.1-2.5-.1v.6c0 .3 0 .8.1 1.5h-2.5v.8h4.1c0 .7-.1 1.3-.1 1.8s0 1 .1 1.5h-4.1v.8h1.4c.8 0 1.8 0 2.9-.1v1.2c-1 0-1.9-.1-2.8-.1h-1.5v1h3.2c.3 0 1 0 2.1-.1v1.2c-1.1 0-1.8-.1-2.1-.1h-3.4l-.1.1c1.4 1 2.4 1.5 3.4 1.9zm-4.1-6.7v-1.3h-2.7v1.3zm2.2-4.1v-1.1h-3.4v1.1zm1.9 4.1v-1.3h-2.8v1.3z" fill="#fafafb"/><path d="m37 6.7v2.3 5.4c1 0 1.8 0 2.2-.1v1.3c-.6 0-1.5-.1-2.5-.1h-11.9c-.7 0-1.3 0-1.8.1v-1.3c.5 0 1.1.1 2 .1v-5.2c0-1 0-1.8-.1-2.5h3.7c0-1.3 0-2.1-.1-2.5h1.5c0 .4-.1 1.3-.1 2.5h2.2c0-1.2 0-2.1-.1-2.6h1.5c0 .4-.1 1.3-.1 2.6zm-12.3 13.7c-.3-.4-.7-.8-1.1-1.1 1.1-.4 2.1-.9 2.9-1.3.8-.5 1.5-1 2.1-1.6.4.4.9.8 1.3 1.1-2.5 1.4-4.2 2.4-5.2 2.9zm3.9-10.1v-2.4h-2.2v2.4zm0 4.1v-2.9h-2.2v2.9zm3.5-4.1v-2.4h-2.2v2.4zm0 4.1v-2.9h-2.2v2.9zm.4 2.9 1-1.1c.6.3 1.4.7 2.5 1.3s2 1.1 2.7 1.5c-.4.4-.8.8-1.1 1.3-.8-.8-2.5-1.7-5.1-3zm3.1-7v-2.4h-2.1v2.4zm0 4.1v-2.9h-2.1v2.9z" fill="#fafafb"/><g fill="#000001"><path d="m274.69 165.5c-3.33 4.99-3.28 12.77.14 17.11 1.24 1.57 1.07 2.87-.54 4.04-3.94 2.85-7.83 5.78-11.84 8.53-1.73 1.19-3.68 2.72-5.6 2.84-4.38.26-6.96 2.88-9.23 5.93-1.78 2.38-3.87 3.13-6.58 2.4-2.29-.61-3.97.15-5.76 1.62-1.17.96-3 1.59-4.53 1.58-9.52-.08-16.6 4.18-22.35 11.5-2.44 3.11-5.41 5.89-8.51 8.36-1.42 1.13-3.74 1.1-5.61 1.72-2.16.72-4.45 1.29-6.38 2.44-5.19 3.09-10.25 6.39-15.26 9.76-1.02.68-1.9 1.94-2.29 3.12-.96 2.91-1.44 5.98-2.42 8.88-1.11 3.27-2.31 6.56-3.95 9.58-1.17 2.14-2.07 3.86-.46 5.33-2.54 5.54-5.05 10.73-7.32 16.02-2.06 4.8-5.41 8.31-9.92 10.75-2.34 1.27-3.34 2.85-2.69 5.61.78 3.31-.34 6.08-2.64 8.71-4.41 5.03-8.63 10.15-14.75 13.3-1.15.59-2.25 2.07-2.57 3.33-1.2 4.87-4.26 8.22-8.27 10.83-3.9 2.54-7.84 5.03-11.89 7.32-1.77 1-3.85 1.43-5.89 2.15-1.23-3.7-.86-6.05 1.84-8.85 8.74-9.07 16.97-18.63 25.35-28.03.6-.68.92-1.65 1.24-2.53.82-2.29 1.21-4.82 2.43-6.87 2.61-4.38 5.32-8.78 8.59-12.67 1.93-2.3 3.94-4.2 4.4-7.37.41-2.82 1.27-5.57 2.02-8.33.24-.88.55-2.07 1.21-2.46 2.99-1.74 3.47-4.82 4.66-7.62 1.56-3.67 3.59-7.13 5.42-10.69 5.09-9.94 12.52-17.7 21.81-23.83 1.89-1.24 3.59-3.04 4.82-4.94 2.67-4.13 6.21-6.9 10.56-9.2 3.95-2.08 7.3-5.3 10.97-7.94 1.17-.84 2.46-1.83 3.8-2.04 18.43-2.86 34.4-12.23 51.27-19.24.64-.27 1.38-.74 1.68-1.31 3.32-6.37 6.74-12.7 9.72-19.23 1.01-2.21.99-4.94 1.19-7.45.24-2.86-.64-5.34-2.81-7.44-3.86-3.73-5.08-8.04-2.83-13.26 1.39-3.21.8-4.68-2.6-5.22-5.19-.83-10.57-1.55-15.75-1.05-7.81.76-14.2-.37-18.1-7.95-.38-.74-1.03-1.34-1.57-1.99-.13-.16-.34-.25-.56-.41-1.09 1.44-1.92 3.36-3.36 4.17-1.36.76-3.37.34-4.7.41-1.33-1.89-2.23-3.95-3.78-5.22-2.76-2.26-6.7-.67-7.83 2.8-.8 2.46-1.14 5.45-5.19 3.69-.64-.28-2.46.98-3.04 1.94-1.52 2.52-3.2 4.38-6.44 4.12-3.95-.31-3.55 2.82-4.22 5.27-.74 2.73.77 3.78 2.82 4.79 2.33 1.14 5.63 1.19 5.98 5.32-4.3 1.38-8.64 2.92-13.06 4.15-2.44.68-4.01 1.66-3.65 4.47.07.51-.21 1.07-.14 1.58.46 3.56-1.24 5.42-4.59 6.23-3.05.74-5.18 2.46-6.07 5.73-.22.8-1.99 1.61-3.08 1.66-5.63.23-6.44.71-8.24 6.19-.59 1.8-.97 3.68-1.41 5.53-.63 2.59-1.63 4.86-4.53 5.57-2.77.67-5.26.36-7.1-2.13-.3-.41-.77-.7-1.15-1.04-.25.15-.54.23-.59.37-1.66 5.62-6.05 7.66-11.18 9.41-5.76 1.96-11.16 4.99-16.88 7.1-1.45.53-4.17-.13-5.16-1.25-1.05-1.18-1.81-3.68.72-5.16 8.13-4.75 16.24-9.53 24.3-14.39 1.88-1.13 3.72-2.44 5.29-3.96 6.38-6.19 12.43-12.62 20.15-17.39 3.52-2.17 5.75-6.41 8.66-9.63.89-.98 2-2.23 3.16-2.42 3.21-.51 4.36-2.42 4.78-5.32.6-4.14 2.13-7.81 4.77-11.2 3.14-4.04 4.49-8.8 3.8-14.05-.21-1.63-.8-2.46-2.4-2.73-13.07-2.17-18.65-12.43-24.25-22.61-.96-1.74-.74-3.49.58-5.28 2.51-3.39 4.73-7 7.68-11.43-2.88-.57-5.12-1.13-7.39-1.38-.51-.06-1.5.87-1.63 1.47-.29 1.41-.41 2.94-.18 4.35.63 3.91.44 4.27-3.86 4.78-4.93-13.63-8.61-27.48-4.28-42.02.8-2.68 3.48-4.9 5.59-7.04 1.37-1.38 3.14-1.11 4.93-.01 3.1 1.9 5.15 4.56 5.72 8.03 1.22 7.45 3.84 14.25 8.23 20.41.57.8.83 2.31.47 3.17-1.23 3-.63 5.7.37 8.6 1.45 4.22 3.82 8.39 1.78 13.14-.19.45.05 1.29.37 1.74 4.79 6.83 10.21 12.4 19.34 13.44 4.82.55 9.39 3.09 14.13 4.56 1.98.62 4.1.81 6.15 1.17.61.11 1.38-.08 1.83.23 4.29 3.03 9.22 2.71 14.08 2.84 1.68.04 3.35.52 5.03.64 1.18.08 2.37-.14 3.56-.17 1.11-.03 2.23-.07 3.31.08.59.08 1.11.76 1.7.82 5.7.56 10.85 2.2 14.67 6.84.37.45 1.43.64 2.07.51 6.42-1.3 9.9 3.94 14.56 6.52.54.3.77 1.23 1.03 1.91.81 2.07 1.44 4.22 2.38 6.23 5 10.58 6.88 21.67 5.94 33.33-.17 2.1-.45 3.23-2.78 3.63-2.46.42-3.59-.53-4.13-2.67-.74-2.79-1.78-5.26-5.29-5.28zm1.99-10.71c.33.15.67.3 1 .45.59-1.03 1.56-2.04 1.62-3.1.03-.63-1.38-1.33-2.62-2.43z"/><path d="m263.51 317.03c-.42-2.6-.51-4.75-1.19-6.71-.4-1.15-1.76-2.8-2.63-2.77-1.52.06-4.19 1.13-4.27 1.98-.27 2.79-.4 6.14.93 8.39 1.64 2.79 4.66 4.84 7.32 6.92 1.89 1.48 4.02 2.45 5.64-.77.55-1.09 2.02-1.73 3.4-2.84.81 2.27 1.55 4.1 2.12 5.99.86 2.85 1.97 5.27 4.45 7.37 1.58 1.34 1.64 4.4 2.59 6.59.69 1.59 1.48 3.26 2.65 4.48 3.29 3.45 7 6.5 10.13 10.09 1.58 1.82 2.66 4.34 3.23 6.71.7 2.92-1.73 5-4.56 4.08-2.22-.72-4.23-2.1-6.39-3.05-1.91-.83-3.86-1.78-5.88-2.13-3.67-.62-6.41-2.24-8.64-5.28-5.01-6.84-10.12-13.61-15.45-20.2-2.69-3.31-4.12-6.95-4.14-11.05-.02-6.31-1.44-12.26-4.57-17.64-3.07-5.26-2.32-11.07-3.21-16.64-1.08-6.74-2.58-13.37-6.58-19.04-3.33-4.72-8.26-7.11-13.8-8.32-.5-.11-1.2-.24-1.56.01-3.56 2.45-6.76.43-9.82-.97-3.39-1.55-6.58-2-10.02-.38-1.14.54-2.42.76-3.62 1.17-1.72.58-3.59.98-4.12-1.3-.47-2.01-1.35-4.37 1.44-5.81 5.55-2.87 11.44-4.26 17.63-4.87 5.36-.53 10.66-1.59 16.01-2.24 1.81-.22 3.7.02 5.54.2.93.09 1.81.64 2.74.78 10.9 1.6 19.03 7.53 25.14 16.38 1.05 1.52 1.05 3.8 1.39 5.76.16.89-.46 2.18-.02 2.72 3.36 4.12 2.29 8.67 1.14 13-1.34 5.02-.04 9.29 2.28 13.6 1.63 3.04 3.11 6.06 2.48 9.9-.41 2.44-.95 3.88-3.45 4.38-1.32.27-2.57.88-4.33 1.51zm-16.4-54.54c-1.48 2.38-3.38 4.58-1.28 6.73.85.87 3.34.14 5.92.14-1.92-2.85-3.14-4.65-4.64-6.87z"/></g></svg>