<svg enable-background="new 0 0 400 400" viewBox="0 0 400 400" xmlns="http://www.w3.org/2000/svg"><path d="m6.8 9.5c.6.3 1.3.7 2.1 1.1-.4.4-.7.8-.9 1.2-.7-.4-1.3-.8-1.8-1.1s-1.1-.6-1.6-.8c.2-.4.5-.8.7-1.2.4.2.8.5 1.5.8zm.9 6.9c-.3.6-.5 1.1-.7 1.7s-.4 1.1-.6 1.7c-.6-.4-1.1-.7-1.6-1 .7-1 1.2-1.8 1.5-2.4.3-.5.6-1.1.8-1.7.3-.6.5-1.2.8-1.8.3.3.8.6 1.3.8-.7 1.3-1.2 2.2-1.5 2.7zm.1-11c.4.3 1 .7 1.7 1.1-.5.2-.8.6-1.1 1.1-.5-.6-1-1-1.4-1.2s-.9-.6-1.5-.8c.2-.4.5-.7.9-1.1.5.3.9.6 1.4.9zm10.5 13.1c1 .4 2 .6 3.1.7-.4.4-.7.8-.8 1.3-.9-.2-1.9-.6-3-.9-1-.4-2-.9-2.8-1.6-.5.4-1.1.9-1.9 1.3s-1.9.9-3.3 1.2c-.1-.3-.5-.8-1.1-1.3 1 0 2.1-.3 3.2-.8 1.2-.5 1.9-1 2.3-1.7h-3.2c-.4 0-1 0-2 .1v-1.2c1 0 1.7.1 2 .1h3.3v-1h-2.3c-.2 0-.9 0-2 .1v-1.2c1.2 0 1.9.1 2 .1h2.3v-.8h-4.1c0-.7.1-1.2.1-1.6 0-.5 0-1.1-.1-1.8h4.1v-.7h-2.5c0-.6.1-1.1.1-1.6v-.6h-.5c-.4 0-1 0-1.8.1v-1.3c1.2 0 1.9.1 2.1.1h.2c0-.3 0-.8-.1-1.4h1.4c0 .6-.1 1-.1 1.4h3.4c0-.4 0-.8-.1-1.3h1.5c0 .4-.1.9-.1 1.3.7 0 1.5 0 2.5-.1v1.2c-1 0-1.8-.1-2.5-.1v.6c0 .3 0 .8.1 1.5h-2.5v.8h4.1c0 .7-.1 1.3-.1 1.8s0 1 .1 1.5h-4.1v.8h1.4c.8 0 1.8 0 2.9-.1v1.2c-1 0-1.9-.1-2.8-.1h-1.5v1h3.2c.3 0 1 0 2.1-.1v1.2c-1.1 0-1.8-.1-2.1-.1h-3.4l-.1.1c1.4 1 2.4 1.5 3.4 1.9zm-4.1-6.7v-1.3h-2.7v1.3zm2.2-4.1v-1.1h-3.4v1.1zm1.9 4.1v-1.3h-2.8v1.3z" fill="#fafafb"/><path d="m37 6.7v2.3 5.4c1 0 1.8 0 2.2-.1v1.3c-.6 0-1.5-.1-2.5-.1h-11.9c-.7 0-1.3 0-1.8.1v-1.3c.5 0 1.1.1 2 .1v-5.2c0-1 0-1.8-.1-2.5h3.7c0-1.3 0-2.1-.1-2.5h1.5c0 .4-.1 1.3-.1 2.5h2.2c0-1.2 0-2.1-.1-2.6h1.5c0 .4-.1 1.3-.1 2.6zm-12.3 13.7c-.3-.4-.7-.8-1.1-1.1 1.1-.4 2.1-.9 2.9-1.3.8-.5 1.5-1 2.1-1.6.4.4.9.8 1.3 1.1-2.5 1.4-4.2 2.4-5.2 2.9zm3.9-10.1v-2.4h-2.2v2.4zm0 4.1v-2.9h-2.2v2.9zm3.5-4.1v-2.4h-2.2v2.4zm0 4.1v-2.9h-2.2v2.9zm.4 2.9 1-1.1c.6.3 1.4.7 2.5 1.3s2 1.1 2.7 1.5c-.4.4-.8.8-1.1 1.3-.8-.8-2.5-1.7-5.1-3zm3.1-7v-2.4h-2.1v2.4zm0 4.1v-2.9h-2.1v2.9z" fill="#fafafb"/><g fill="#000001"><path d="m324.12 343.51c-2.87.94-3.78-.18-4.46-2.22-1.52-4.58-2.42-9.5-6.48-12.83-.43-.35-.64-1.09-.75-1.69-1.54-8.95-3.26-17.88-4.48-26.88-.75-5.55-3.06-8.1-8.68-7.64-3.04.25-6.09.87-9.02 1.7-6.12 1.73-12.27 2.45-18.53 1.16-7.37-1.51-14.53-.34-21.67 1.43-5.39 1.34-10.88.9-16.32 1.23-9.29.57-17.56-3.27-26.42-4.13-4.4-.43-7.01 1.87-7.53 6.44-.78 6.82-1.6 13.63-2.59 20.42-.16 1.1-1.26 2.06-2.04 3.25 3.17 4.83-.19 9.73-.69 14.7-.07.69-2.21 1.18-4 2.06 0-4.25-.37-7.92.1-11.48.56-4.27.07-8.27-.51-12.5-.71-5.21-.19-10.72.62-15.98 1.26-8.25 3.37-16.37 4.77-24.6.52-3.06-.02-6.3.11-9.45.05-1.35.34-2.8.93-4 1.61-3.28 3.62-6.37 5.15-9.69 1.81-3.92 2.93-8.19 4.97-11.97 3.61-6.67 8.76-12.2 14.07-17.57 2.8-2.83 6.08-4.5 9.99-5.08 1.67-.25 3.33-.64 4.96-1.09 5.56-1.53 7.18-3.64 7.45-9.37.14-3.07.26-6.15.61-9.2.22-1.95-.44-2.95-2.28-3.43-5.42-1.43-10.82-2.94-16.24-4.38-4.45-1.18-8.21-3.36-10.18-6.36-2.37-.69-4.28-.67-5.23-1.62-12.4-12.45-19.01-27.59-19.91-45.07-.31-6.06.92-11.99 4.5-17.23 1.85-2.71 3.52-5.56 4.97-8.5 5.56-11.27 15.21-17.18 26.88-19.88 7.8-1.81 15.84-3.14 23.82-3.48 5.7-.25 11.49 1.5 17.24 2.36 1.26.19 2.5.54 3.76.6 12.45.61 21.03 8.57 30.09 15.68 3.31 2.6 4.98 5.85 6.16 9.92 4.06 14.01 5.13 28.16 2.59 42.45-1.35 7.58-3.35 15.1-8.04 21.52-3.58 4.9-9.14 6.18-14.52 7.72-.43.12-1.06-.45-1.8-.79-1.87 3.2-4.11 5.31-8.4 4.29-1.62-.39-3.67 1.47-5.62 1.85-3.26.63-6.6 1.32-9.88 1.21-4.55-.15-6.52 1.61-5.73 6.12.16.94.56 1.87.54 2.8-.15 6.79 4.18 9.8 9.85 11.37 6.31 1.74 11.46 5.1 16.18 9.59 3.15 3 5.6 6.24 7.31 10.2.55 1.29 1.5 2.71 2.67 3.37 6.42 3.61 10.08 9.42 12.38 15.99 3.52 10.08 6.37 20.39 9.73 30.53.69 2.08-.85 3.65.12 6.06 3.13 7.8 5.41 15.97 7.65 24.1.73 2.64.33 5.58.44 8.39.02.41-.14.9.03 1.22 3.26 5.99.14 12.27 1.36 18.38zm-98.2-53.71c0-.35 0-.71 0-1.06 2.54 0 5.07.03 7.61-.01 2.65-.04 5.3-.12 7.94-.21 7.22-.23 8.52-1.66 8.11-9.08-.08-1.37-.35-2.73-.53-4.09-.54-4.14-2.07-8.25 0-12.43.32-.65.06-1.65-.06-2.46-1.42-9.84-3.37-19.63-2.77-29.67.08-1.33-.24-2.77-.7-4.03-1.14-3.12-4.04-4.12-7.17-2.95-6.08 2.27-10.87 6.04-15.31 10.82-5.01 5.41-8.02 11.88-11.76 17.99-3.27 5.35-5.25 10.93-5.55 17.29-.18 3.85-1.52 7.65-2.25 11.48-.27 1.44-.57 2.96-.38 4.38.35 2.61 1.43 4.29 4.74 4.11 6-.3 12.05-.08 18.08-.08zm31.08-9.39c1.38 1.49 2.66 2.99 4.08 4.36.8.77 1.78 1.79 2.74 1.87 5.99.47 11.99.86 17.99.95 2.38.03 4.41.05 5.05 1.66 2.56-.09 4.65-.3 6.73-.19 2.09.11 4.15.69 6.24.78.8.03 2.3-.64 2.35-1.12.25-2.27.48-4.67.02-6.87-.69-3.26-1.94-6.39-3.01-9.56-.29-.87-.79-1.67-1.22-2.48-.93-1.74-2.17-3.37-2.79-5.21-4.04-11.93-9.9-22.66-19.68-30.93-.72-.61-1.44-1.33-1.83-2.16-1.38-2.92-3.78-4.38-6.75-5.23-1.52-.44-2.97-1.1-4.46-1.66-3.03-1.14-5-.25-5.94 2.89-.32 1.07-.29 2.3-.19 3.44 1.27 14.02 2.59 28.04 3.9 42.05.29 3.15-.34 5.91-3.23 7.41zm-4.91-160.67c-.38.04-.75.07-1.13.11.82 5.22 1.54 10.45 2.5 15.64.46 2.5 2.1 4.12 4.85 4.1 5.8-.04 11.61-.36 17.39-.13 6.17.24 12.32 1.07 18.48 1.45 1.63.1 3.6-.07 4.85-.94.85-.58 1.05-2.61.95-3.96-.18-2.52-.85-5-1.19-7.52-1.1-8.04-4.64-14.88-11.95-18.46-9.28-4.54-19.05-8.1-28.66-11.95-2.18-.87-6.78 1.74-6.73 3.53.18 6.06.42 12.09.64 18.13zm26.06 27.32c-.01-.1-.01-.2-.02-.31-4.54 0-9.14-.43-13.6.15-3.24.42-6.74 1.62-9.27 3.57-1.42 1.09-1.14 4.42-1.59 6.75-.14.73-.24 1.47-.29 2.2-.19 2.52-1.2 5.39-.35 7.5 1.68 4.18 1.54 8.19 1.1 12.43-.37 3.55 1.32 5.59 4.9 5.96 3.14.32 6.35.38 9.5.19 16.74-.97 29.69-12.52 32.16-29.95.88-6.18-3.19-10.12-9.26-9.34-4.39.57-8.85.59-13.28.85zm-65.93-5.37c1.7-.15 5.1-.25 8.44-.76 6.16-.95 12.3-2.01 18.39-3.33 1.21-.26 2.94-1.79 3.07-2.89 1.16-9.98 2.02-20 2.94-30 .29-3.16-2.38-7.02-6.49-6.33-4.06.68-8.23 1.23-12.31 1.05-6.24-.29-9.74 2.76-12.46 7.92-1.03 1.96-3.13 3.71-5.16 4.66-1.62.76-2.19 1.47-2.42 3.08-.3 2.17-.75 4.33-1.39 6.42-.97 3.18-2.54 6.21-3.18 9.44-1.66 8.36.64 10.99 10.57 10.74zm27.57 5.83c-3.75.23-7.09.72-10.4.59-6.98-.27-13.95-.89-20.92-1.3-2.6-.16-5.91 1.92-6.41 4.14-.79 3.53-2.76 7.36 1.95 9.92.74.4 1.16 1.49 1.61 2.33 3.47 6.51 8.35 11.62 14.79 15.24 1.1.62 2.22 1.31 3.13 2.17 4.51 4.33 10.32 3.96 15.84 4.19 3.78.16 5.33-2.02 5.19-5.86-.24-6.67-.69-13.34-.6-20.01.06-4.61-1.08-8.5-4.18-11.41z"/><path d="m84.77 116.39c3.49-1.56 5.42-.9 7.32 1.2 6.91 7.6 13.73 15.32 21.09 22.48 3.64 3.54 8.15 6.37 12.67 8.76 3.71 1.95 4.95 1.02 6.18-3.01 2.45-7.98 1.72-16.15 1.41-24.3-.17-4.32-.06-8.65-.22-12.98-.1-2.57-.5-5.12-.77-7.69-.05-.52-.3-1.11-.13-1.54 2.37-5.96 1.06-12.16 1.16-18.26.12-6.95 1.15-13.73 2.73-20.47.09-.37-.06-.82-.17-1.21-2.31-8.45.42-16.4 1.89-24.58 3.34.72 5.15 1.87 3.13 5.21 4.05 2.72 3.64 7.1 4.02 11.06.34 3.5.08 7.05.04 10.58-.08 6.96-.21 13.92-.26 20.87-.04 5.5.07 11.01-.02 16.51-.07 4.54-.32 9.07-.52 13.61-.18 4.1-.61 8.21-.54 12.3.1 5.3.54 10.59.92 15.87.27 3.75 4.43 5.97 7.69 3.94 3.22-2 6.26-4.32 9.27-6.64 5.45-4.19 10.79-8.52 16.25-12.69 1.14-.87 2.6-1.31 4.18-2.07.7 3 .47 5.17-1.89 7.25-6.28 5.53-12.34 11.33-18.49 17.01-.62.57-1.25 1.38-1.99 1.52-5.52 1.08-8.74 5.42-12.56 8.82-3.29 2.92-3.12 7.23-3.32 11.23-.18 3.69.16 7.47-2.76 10.75 3.3 3.62 3.22 8.14 3.63 12.71.35 3.9 1.69 7.8 3.12 11.49 1.14 2.93 3.28 5.45 4.62 8.32 2.83 6.05 6.66 10.94 13.22 13.22.77.27 1.55.82 2.05 1.45 5.29 6.73 10.55 13.48 15.75 20.27 1 1.3 1.73 2.83-.83 3.75.05.3.09.61.14.91 1.41.26 2.82.53 4.23.79.15-.25.31-.51.46-.76.7 1.81 1.39 3.62 2.4 6.24-1.53-.49-2.54-.56-3.22-1.07-4.49-3.37-8.99-6.74-13.3-10.35-.95-.8-1.13-2.52-1.84-4.23-6.93-1.19-11.13-6.87-15.37-12.52-1.45-1.94-2.79-4.1-4.67-5.54-1.52-1.17-3.76-1.41-6.08-2.19-1.48 8.55-2.83 16.35-4.17 24.15-.07.41-.18.99.02 1.24 3.94 4.8 1.71 10.04 1.36 15.24-.32 4.71.2 9.48.23 14.23.03 4.84.43 9.76-.3 14.5-.76 4.96.57 9.38 1.57 14.01.4 1.84-.05 3.87-.12 5.82-.09 2.4-.5 4.84-.24 7.2 1.33 12-.21 23.8-2.11 35.6-.61 3.76-1.1 7.53-2.43 11.74-.66-.88-1.8-1.71-1.9-2.66-.46-4.3-.73-8.63-.9-12.95-.28-7.08-.44-14.17-.65-21.26-.07-2.22-.41-4.48-.14-6.67.44-3.59-.46-6.74-1.6-10.12-1-2.98-.56-6.46-.69-9.73-.07-1.69-.16-3.41.05-5.08.12-.94 1.02-1.75 1.24-2.7s.41-2.24-.04-2.97c-2.25-3.65-1.71-7.47-1.28-11.41.29-2.69-.07-5.44-.16-8.17-.16-4.9-.34-9.8-.48-14.7-.12-4.23-.27-8.46-.28-12.68-.01-1.42.36-2.84.5-3.9 0-1.65.01-2.92 0-4.18-.03-1.93.05-3.87-.15-5.78-.19-1.86-.46-3.76-1.06-5.52-.53-1.55-1.2-3.49-2.43-4.25-1.96-1.2-2.97.77-4.15 2.22-6.94 8.55-13.93 17.07-21.11 25.43-1.55 1.8-3.91 2.9-6.01 4.41.12.1.7.56 1.26 1.02-3.92 7.58-22.83 28.36-28.75 30.95 1.11-2.5 1.58-4.52 2.74-6 4.55-5.85 9.79-11.23 13.87-17.37 3.95-5.94 9.09-11.28 10.48-18.82.39-2.11 2.63-4.01 4.32-5.72 4.8-4.86 9.22-9.93 11.26-16.65.21-.68.66-1.31 1.12-1.88 5.08-6.33 10.38-12.5 15.16-19.05 1.44-1.98 2.02-5.01 2.01-7.55-.04-7.48-.49-14.97-1-22.44-.08-1.15-1.12-2.52-2.11-3.26-14.54-10.86-26.62-23.89-35.78-39.61-1.1-1.89-2.83-3.39-4.14-5.17-1.26-1.7-2.34-3.53-3.63-5.53zm57.26 210.56c-1.86 1.97-3.27 3.46-4.83 5.1 3.04.68 4.87-1.17 4.83-5.1z"/></g></svg>