<svg enable-background="new 0 0 400 400" viewBox="0 0 400 400" xmlns="http://www.w3.org/2000/svg"><path d="m6.8 9.5c.6.3 1.3.7 2.1 1.1-.4.4-.7.8-.9 1.2-.7-.4-1.3-.8-1.8-1.1s-1.1-.6-1.6-.8c.2-.4.5-.8.7-1.2.4.2.8.5 1.5.8zm.9 6.9c-.3.6-.5 1.1-.7 1.7s-.4 1.1-.6 1.7c-.6-.4-1.1-.7-1.6-1 .7-1 1.2-1.8 1.5-2.4.3-.5.6-1.1.8-1.7.3-.6.5-1.2.8-1.8.3.3.8.6 1.3.8-.7 1.3-1.2 2.2-1.5 2.7zm.1-11c.4.3 1 .7 1.7 1.1-.5.2-.8.6-1.1 1.1-.5-.6-1-1-1.4-1.2s-.9-.6-1.5-.8c.2-.4.5-.7.9-1.1.5.3.9.6 1.4.9zm10.5 13.1c1 .4 2 .6 3.1.7-.4.4-.7.8-.8 1.3-.9-.2-1.9-.6-3-.9-1-.4-2-.9-2.8-1.6-.5.4-1.1.9-1.9 1.3s-1.9.9-3.3 1.2c-.1-.3-.5-.8-1.1-1.3 1 0 2.1-.3 3.2-.8 1.2-.5 1.9-1 2.3-1.7h-3.2c-.4 0-1 0-2 .1v-1.2c1 0 1.7.1 2 .1h3.3v-1h-2.3c-.2 0-.9 0-2 .1v-1.2c1.2 0 1.9.1 2 .1h2.3v-.8h-4.1c0-.7.1-1.2.1-1.6 0-.5 0-1.1-.1-1.8h4.1v-.7h-2.5c0-.6.1-1.1.1-1.6v-.6h-.5c-.4 0-1 0-1.8.1v-1.3c1.2 0 1.9.1 2.1.1h.2c0-.3 0-.8-.1-1.4h1.4c0 .6-.1 1-.1 1.4h3.4c0-.4 0-.8-.1-1.3h1.5c0 .4-.1.9-.1 1.3.7 0 1.5 0 2.5-.1v1.2c-1 0-1.8-.1-2.5-.1v.6c0 .3 0 .8.1 1.5h-2.5v.8h4.1c0 .7-.1 1.3-.1 1.8s0 1 .1 1.5h-4.1v.8h1.4c.8 0 1.8 0 2.9-.1v1.2c-1 0-1.9-.1-2.8-.1h-1.5v1h3.2c.3 0 1 0 2.1-.1v1.2c-1.1 0-1.8-.1-2.1-.1h-3.4l-.1.1c1.4 1 2.4 1.5 3.4 1.9zm-4.1-6.7v-1.3h-2.7v1.3zm2.2-4.1v-1.1h-3.4v1.1zm1.9 4.1v-1.3h-2.8v1.3z" fill="#fafafb"/><path d="m37 6.7v2.3 5.4c1 0 1.8 0 2.2-.1v1.3c-.6 0-1.5-.1-2.5-.1h-11.9c-.7 0-1.3 0-1.8.1v-1.3c.5 0 1.1.1 2 .1v-5.2c0-1 0-1.8-.1-2.5h3.7c0-1.3 0-2.1-.1-2.5h1.5c0 .4-.1 1.3-.1 2.5h2.2c0-1.2 0-2.1-.1-2.6h1.5c0 .4-.1 1.3-.1 2.6zm-12.3 13.7c-.3-.4-.7-.8-1.1-1.1 1.1-.4 2.1-.9 2.9-1.3.8-.5 1.5-1 2.1-1.6.4.4.9.8 1.3 1.1-2.5 1.4-4.2 2.4-5.2 2.9zm3.9-10.1v-2.4h-2.2v2.4zm0 4.1v-2.9h-2.2v2.9zm3.5-4.1v-2.4h-2.2v2.4zm0 4.1v-2.9h-2.2v2.9zm.4 2.9 1-1.1c.6.3 1.4.7 2.5 1.3s2 1.1 2.7 1.5c-.4.4-.8.8-1.1 1.3-.8-.8-2.5-1.7-5.1-3zm3.1-7v-2.4h-2.1v2.4zm0 4.1v-2.9h-2.1v2.9z" fill="#fafafb"/><g fill="#000001"><path d="m111.95 42.61c5.89-2.5 11.7-4.97 17.77-7.55.68.74 1.71 1.66 2.52 2.75 2.56 3.46 5.79 5.72 10.14 6.38.93.14 2.06.77 2.57 1.53 4.12 6.15 8.12 12.38 12.18 18.64-1.16 1.27-2.21 2.43-3.45 3.79 4.38 3.86 5.92 8.8 5.24 14.33-.63 5.12.18 10.49-1.61 14.5.33 4.9 1.01 9.07.82 13.21-.51 11.54-1.48 23.07-2.03 34.61-.13 2.63-.71 4.4-3.29 5.36-1.04.38-1.93 1.2-3.13 1.98 2.78 2.23 5.28 4.36 7.9 6.32 3.49 2.6 7.74 2.62 11.18-.07 3.67-2.88 7.21-5.92 10.7-9.02.66-.59 1.3-1.92 1.08-2.65-1.41-4.7.8-8.49 2.89-12.27 1.58-2.86 2.77-5.68 1.85-9.02-.58-2.13.39-3.47 2.18-4.71.87-.6 1.64-2.27 1.47-3.29-.81-4.97-1.98-9.89-2.95-14.84-.28-1.44-.38-2.93-.46-4.41-.12-2.53-.3-5.07-.17-7.59.05-1.05.57-2.36 1.34-3.04 2.01-1.79 2.13-3.29.86-5.77-1.45-2.81-2.25-6.06-2.76-9.22-.36-2.24.2-4.64.42-6.96.65-6.96 6.57-11.13 13.18-9.12.99.3 2.03 1.41 2.46 2.39.89 2.02 1.22 4.29 2.06 6.33 1.26 3.03 1.35 5.83-.51 8.68-.42.64-.28 1.75-.18 2.62.29 2.34 1.28 4.75.93 6.97-.77 4.93 1.48 9.1 2.48 13.59.33 1.46-.17 3.14-.43 4.69-.1.59-.82 1.11-.83 1.67-.18 9.39-5.36 17.28-7.67 26.02-.93 3.52-1.47 7.2-1.71 10.84-.14 2.2-.49 3.82-2.53 4.96-2.94 1.63-5.3 3.8-5.97 7.34-.09.49-.41 1.26-.74 1.32-4.26.85-4.17 4.56-4.88 7.58-.52 2.24-1.51 3.72-3.49 4.92-4.53 2.74-8.9 5.75-13.36 8.6-3.2 2.04-4.28 5.02-5.05 8.68-1.02 4.86 1.65 7 4.49 10.17 6.44 7.21 14.93 6.51 23.06 7.57 2.94.38 5.91.56 8.85.92 4.02.49 7.35 3.28 6.84 7.21-1.21 9.37 3.07 17.07 6.39 25.14.35.84.9 2.18.54 2.64-2.32 2.93-1.07 5.34.58 7.95.57.91.74 2.26.65 3.37-.26 3.16.16 5.81 3.25 7.61.76.44 1.08 1.98 1.23 3.06.98 7.14 1.98 14.28 2.72 21.45.37 3.59 1.68 6.28 5.06 7.78 3.61 1.61 5.52 4.41 5.93 8.34.31 2.95.76 5.88 1.24 8.81.22 1.34.46 2.74 1.05 3.94 1.93 4-1.28 12.71-5.41 14.4-2.95 1.2-6.61.61-8.66-1.9-2.26-2.77-4.65-5.63-6.06-8.85-3.3-7.52-7.25-14.59-12.22-21.11-.54-.71-1.21-1.79-1.03-2.51 1.28-5.13-.9-9.84-1.65-14.7-.39-2.51-.95-5-1.66-7.44-.35-1.19-1.28-2.19-1.84-3.33-.35-.71-.67-1.51-.69-2.27-.08-2.86.06-5.73-.06-8.59-.13-2.9-.04-5.36 2.81-7.41 1.34-.96 1.43-3.64 2.23-5.96-2.89-.14-4.99-.17-7.07-.37-2.14-.21-3.49-1.05-3.17-3.69.45-3.68-.21-6.95-3.22-9.79-1.64-1.54-2.14-4.28-3.17-6.48-4.04-8.61-10.83-13.64-20.12-15.28-.96-.17-2.07.44-3.41.77 3.16 4.34 3.06 4.55.04 8-.93 1.06-1.83 2.59-1.84 3.91-.03 5.22-.16 10.45 3.77 14.88 1.02 1.16 1.08 4.18.31 5.73-2.73 5.56-1.72 10.63.56 15.98.88 2.05.87 4.65.65 6.94-.2 2.05-1.41 3.98-1.87 6.03-.6 2.71-.45 5.21 2.42 6.91.77.46 1.03 1.97 1.29 3.05.29 1.2.14 2.52.51 3.68.96 3.02 1.88 6.09 3.23 8.95 1.65 3.49 3.46 6.97 5.7 10.09 1.71 2.39 2.81 4.8 2.46 7.61-.83 6.87 1.37 12.62 4.89 18.52 4.42 7.4 7.96 15.4 11.18 23.42 1.41 3.49 1.18 7.67 1.56 11.55.32 3.36-2.26 4.86-4.74 5.49-2.01.51-4.99.43-6.44-.74-3.14-2.53-5.41-5.81-7-9.89-2.31-5.92-5.96-11.33-9.14-16.9-.72-1.26-1.88-2.28-2.82-3.38 2.54-4.62 2.24-7.87-1.51-11.62-2.94-2.94-5.37-6-4.86-10.44.35-3.02-1.11-5.03-3.43-6.58-1.81-1.22-2.34-2.84-2.7-5-.44-2.61-1.99-5.02-2.91-7.57-.6-1.64-.95-3.38-1.4-5.08-.62-2.33-1.36-4.64-1.77-7.01-.15-.85.59-1.83.82-2.78.18-.74.35-1.52.29-2.27-.28-3.53-.57-7.07-1.02-10.59-.17-1.34-.85-2.6-1.15-3.93-.41-1.81-.96-3.64-.98-5.47-.14-13.55-.09-27.11-.26-40.67-.1-7.65-3.34-12.2-9.54-14.15-1.92-.6-3.39-.39-5.21.93-2.77 2.02-6 3.53-9.2 4.83-2.78 1.13-3.69 2.85-3.93 5.77-.19 2.35-1.24 4.79-2.46 6.86-1.86 3.18-5.19 5.35-5.13 9.83.02 1.78-2.33 3.63-3.67 5.39-6.17 8.07-8.92 17.32-9.59 27.33-.09 1.33-.46 2.68-.93 3.93-.67 1.78-1.33 3.63-2.4 5.18-4.45 6.43-3.6 13.71-3.58 20.87 0 .32-.07.71.08.94 4.14 6.08-.16 11.24-2.3 16.32-.73 1.73-4.37 2.55-6.83 3.03-.73.14-2.59-2.18-2.84-3.56-.8-4.45-.98-9.01-1.63-13.49-.37-2.53-1.19-5-1.83-7.5-.1-.4-.5-.77-.48-1.15.27-6.42.37-12.86.97-19.25.34-3.65 2.31-7.26 2.14-10.83-.33-7.16 4.25-13.11 4.16-20.19-.02-1.69 2.58-3.4 3.97-5.12.72-.89 2.1-1.91 1.98-2.69-.52-3.49 1.89-4.85 4.09-6.45 2.49-1.8 3.95-4.12 3.5-7.32-.42-3.04.87-5.22 2.7-7.67 5.45-7.3 12.64-12.21 20.77-15.69 3.15-1.35 7.01-1.2 10.57-1.36 2.45-.11 4.59-.48 6.25-2.42 1.9-2.22 4.38-2.68 7.17-2.52 4.28.24 5.88-1.62 5.69-5.93-.14-3.27-.2-6.5-3.92-7.83-.97-.35-2.39-.47-3.21 0-2.95 1.69-5.82 1.64-8.81.29-1.69-.76-3.16-1.02-4.94.34-2.2 1.68-7.2-.19-10.12-3.26-1.23-1.3-2.43-2.77-3.95-3.63-5.41-3.07-9.19-7.76-13.04-12.42-1.31-1.58-1.77-3.71-4.19-4.59-.93-.34-1.07-2.98-1.47-4.6-.67-2.75-1.3-5.51-1.85-8.29-.14-.73-.18-1.7.18-2.29 4.96-8.04 7.45-17 10.15-25.94 1.45-4.8 3.42-9.62 6.12-13.81 1.76-2.73 5.2-4.42 8.01-6.39.57-.4 1.95-.33 2.52.1 2.09 1.58 2.52 7.33 1.28 9.73-5.37 10.32-10.65 20.7-15.86 31.11-.3.6.12 1.67.42 2.44.95 2.41 2.49 4.69 2.9 7.17.64 3.91 1.83 7.06 5.67 8.81 1.43.65 2.64 1.77 4.02 2.56 2.54 1.45 4.08 3.53 4.77 6.4.7 2.89 2.5 3.38 5.21 2.36 1.88-.71 4.05-.84 6.1-.9 2.41-.07 4.86.56 7.23.3 4.46-.48 6.67-3.37 6.49-7.85-.02-.53-.04-1.07-.17-1.58-1.14-4.3-.33-8.14 2.67-11.48 1.45-1.61 1.73-3.26.22-5.05-2-2.38-1.27-5.18-1.19-7.91.04-1.28-.08-2.79-.72-3.83-1.97-3.18-2.21-6.49-1.75-10.09.5-3.98.64-8 1.02-11.99.1-.98.39-2.02.88-2.86 1.81-3.09 2.54-6.11.87-9.61-.94-1.96-1.15-4.27-1.67-6.42-.27-1.13-.28-2.37-.78-3.38-2.06-4.13-3.89-5.21-7.98-3.16-4.01 2.01-4.5 1.68-4.99-2.81 4.72-1.88 4.95-2.79 2.5-7.45-1.85-3.53-3.98-6.19-8.09-7.76-7.32-2.81-10.54-6.86-11.36-11.69z"/><path d="m296.35 236.51c-2.01 1.01-4.05 1.98-6.04 3.05-10.73 5.78-22.16 6.87-33.89 4.57-2.92-.57-5.51-2.88-8.22-4.43-.63-.36-1.07-1.05-1.71-1.37-7.28-3.65-14.6-7.23-21.86-10.93-.93-.47-1.81-1.45-2.24-2.4-2.27-5.01-4.72-9.98-6.43-15.19-1.1-3.34-1.16-7.06-1.45-10.63-.41-5.07-.6-10.11-3.39-14.68-1.4-2.29-1.25-4.74.44-7.14 2.56-3.64 5.04-7.36 7.18-11.25 1.44-2.61 2.39-5.53 3.28-8.4 1.16-3.72 3.61-6.16 7-7.72 2.25-1.04 4.53-1.82 4.67-4.93.02-.53 1.29-1.3 2.08-1.45 9.12-1.73 17.67-5.04 26.05-8.93 1.54-.71 3.51-.85 5.24-.71 5.68.47 10.74-1.01 15.13-4.55 2.1-1.7 4.29-1.69 6.81-1.65 6.51.12 11.92 2.65 17.38 5.98 2.83 1.72 6.81 1.8 10.31 2.07 2.43.19 4.26.84 4.92 3.12 1.52 5.27 2.87 10.59 4.09 15.94.19.83-.54 1.96-1.06 2.83-2.44 4.1-3.12 8.41-.95 12.73 3.57 7.08 3.58 13.97-.21 20.96-.55 1.02-.17 2.52-.32 3.79-.53 4.34-.49 8.87-1.81 12.96-2.04 6.32-5.03 12.34-7.62 18.48-1.02 2.42-2.66 4.03-5.39 4.34-3.31.38-5.97 1.81-8.01 4.55-.73.98-2.16 1.45-3.26 2.15-.24-.39-.48-.77-.72-1.16zm-67.2-31.95c.34 1.22.52 3.22 1.41 4.83 2.75 4.98 5.75 9.82 8.69 14.7.25.42.72.81 1.18 1 4.61 1.89 8.39 6.57 14.27 4.31.35-.13.9-.06 1.24.13 3.13 1.72 4.97-.44 5.55-2.68 1.36-5.22 2.63-10.6 2.82-15.96.15-4.23-1.09-8.58-2.19-12.75-1.87-7.13-10.31-10.79-16.98-7.6-3.53 1.68-6.93 3.73-10.61 4.98-4.28 1.45-4.97 4.67-5.38 9.04zm46.31-17.61c-1.33 4.91.82 8.8 2.35 12.83.39 1.04 1 2.42.63 3.26-2.28 5.21-.29 10.2.51 15.24.28 1.77 1.38 2.73 3.41 3.15 7.73 1.56 12.25-.51 16.49-7.94.93-1.64 1.67-3.62 3.07-4.71 2.69-2.08 4.14-4.34 3.66-7.83-.12-.88.73-1.89 1.1-2.86.49-1.26 1.2-2.5 1.36-3.81.5-4.09-8.3-11.66-12.37-10.75-.31.07-.62.17-.89.33-5.51 3.3-11.42 4.15-17.69 3.01-.51-.09-1.05.05-1.63.08zm28.81-12.8c.21-.34.41-.68.62-1.02-1.89-2.37-4.12-4.56-5.57-7.18-1.02-1.84-1.75-4.43-1.31-6.39 1.33-5.96.32-9.11-4.66-12.76-6.49-4.75-13.39-5.84-20.82-2.69-1.39.59-3.4 1.51-3.69 2.64-1.99 7.64-2.64 15.35 2.33 22.23.86 1.19 2.88 1.99 4.45 2.14 6.29.6 12.61.9 18.93 1.26 1.47.09 2.96.01 4.43.01 0-.22.01-.44.01-.66 1.75.83 3.52 1.62 5.28 2.42zm-68.16 7.71c.09.29.18.58.26.86 5.52-1.6 11.22-2.77 16.52-4.92 4.37-1.77 4.95-4.59 3.51-9.11-.43-1.35-.95-3.18-.39-4.24 2.34-4.45.11-8.31-1.45-12.04-1.75-4.19-6.08-5.04-9.78-2.54-2.89 1.96-5.67 4.1-8.69 5.83-3.59 2.06-6.08 4.48-5.14 9.04.12.57-.17 1.23-.34 1.83-.91 3.28-1.9 6.53-2.73 9.83-.16.63.2 1.44.45 2.11 1.43 3.82 4.83 3.09 7.78 3.35z"/></g></svg>