<svg enable-background="new 0 0 400 400" viewBox="0 0 400 400" xmlns="http://www.w3.org/2000/svg"><path d="m6.8 9.5c.6.3 1.3.7 2.1 1.1-.4.4-.7.8-.9 1.2-.7-.4-1.3-.8-1.8-1.1s-1.1-.6-1.6-.8c.2-.4.5-.8.7-1.2.4.2.8.5 1.5.8zm.9 6.9c-.3.6-.5 1.1-.7 1.7s-.4 1.1-.6 1.7c-.6-.4-1.1-.7-1.6-1 .7-1 1.2-1.8 1.5-2.4.3-.5.6-1.1.8-1.7.3-.6.5-1.2.8-1.8.3.3.8.6 1.3.8-.7 1.3-1.2 2.2-1.5 2.7zm.1-11c.4.3 1 .7 1.7 1.1-.5.2-.8.6-1.1 1.1-.5-.6-1-1-1.4-1.2s-.9-.6-1.5-.8c.2-.4.5-.7.9-1.1.5.3.9.6 1.4.9zm10.5 13.1c1 .4 2 .6 3.1.7-.4.4-.7.8-.8 1.3-.9-.2-1.9-.6-3-.9-1-.4-2-.9-2.8-1.6-.5.4-1.1.9-1.9 1.3s-1.9.9-3.3 1.2c-.1-.3-.5-.8-1.1-1.3 1 0 2.1-.3 3.2-.8 1.2-.5 1.9-1 2.3-1.7h-3.2c-.4 0-1 0-2 .1v-1.2c1 0 1.7.1 2 .1h3.3v-1h-2.3c-.2 0-.9 0-2 .1v-1.2c1.2 0 1.9.1 2 .1h2.3v-.8h-4.1c0-.7.1-1.2.1-1.6 0-.5 0-1.1-.1-1.8h4.1v-.7h-2.5c0-.6.1-1.1.1-1.6v-.6h-.5c-.4 0-1 0-1.8.1v-1.3c1.2 0 1.9.1 2.1.1h.2c0-.3 0-.8-.1-1.4h1.4c0 .6-.1 1-.1 1.4h3.4c0-.4 0-.8-.1-1.3h1.5c0 .4-.1.9-.1 1.3.7 0 1.5 0 2.5-.1v1.2c-1 0-1.8-.1-2.5-.1v.6c0 .3 0 .8.1 1.5h-2.5v.8h4.1c0 .7-.1 1.3-.1 1.8s0 1 .1 1.5h-4.1v.8h1.4c.8 0 1.8 0 2.9-.1v1.2c-1 0-1.9-.1-2.8-.1h-1.5v1h3.2c.3 0 1 0 2.1-.1v1.2c-1.1 0-1.8-.1-2.1-.1h-3.4l-.1.1c1.4 1 2.4 1.5 3.4 1.9zm-4.1-6.7v-1.3h-2.7v1.3zm2.2-4.1v-1.1h-3.4v1.1zm1.9 4.1v-1.3h-2.8v1.3z" fill="#fafafb"/><path d="m37 6.7v2.3 5.4c1 0 1.8 0 2.2-.1v1.3c-.6 0-1.5-.1-2.5-.1h-11.9c-.7 0-1.3 0-1.8.1v-1.3c.5 0 1.1.1 2 .1v-5.2c0-1 0-1.8-.1-2.5h3.7c0-1.3 0-2.1-.1-2.5h1.5c0 .4-.1 1.3-.1 2.5h2.2c0-1.2 0-2.1-.1-2.6h1.5c0 .4-.1 1.3-.1 2.6zm-12.3 13.7c-.3-.4-.7-.8-1.1-1.1 1.1-.4 2.1-.9 2.9-1.3.8-.5 1.5-1 2.1-1.6.4.4.9.8 1.3 1.1-2.5 1.4-4.2 2.4-5.2 2.9zm3.9-10.1v-2.4h-2.2v2.4zm0 4.1v-2.9h-2.2v2.9zm3.5-4.1v-2.4h-2.2v2.4zm0 4.1v-2.9h-2.2v2.9zm.4 2.9 1-1.1c.6.3 1.4.7 2.5 1.3s2 1.1 2.7 1.5c-.4.4-.8.8-1.1 1.3-.8-.8-2.5-1.7-5.1-3zm3.1-7v-2.4h-2.1v2.4zm0 4.1v-2.9h-2.1v2.9z" fill="#fafafb"/><g fill="#000001"><path d="m121.98 365.51c1.32-1.39 1.98-2.22 2.78-2.9 4.55-3.93 4.62-13.03.06-17-1.36-1.18-2.85-2.21-4.3-3.27-2.61-1.91-3.69-5.03-2.79-8.12.47-1.62 2.31-2.15 3.24-.76 2.24 3.34 4.93 3.35 8.28 1.86 3.91-1.74 7.74-2.6 11.39 1.11 2.11 2.15 4.42 1.48 5.84-1.3 1.45-2.83 3.32-5 6.31-6.34 3.01-1.35 3.53-7.27 1.03-9.63-3.18-3-13.12-4.86-16.23-1.96-4.24 3.96-9.95 3-14.45 5.8-2.61 1.62-5.18.4-7.56-1.99-3.05-3.05-3.54-5.71-1.26-9.35.61-.98.29-3-.31-4.19-1.52-3.02-3.4-5.86-5.21-8.72-2.29-3.62-7.37-3.78-9.82-.24-1.69 2.43-3.69 4.85-4.57 7.59-.75 2.34-.35 5.16.01 7.71.36 2.61-.44 4.84-.9 7.3-.9 4.79-.8 9.84-.58 14.76.09 1.99 3.17 2.3 6.04 1.19 1.67-.65 3.52-.85 5.63-.77-3.06 6.08-1.81 12.05-1.21 17.87.24 2.31 1.86 4.5 2.94 6.7.68 1.38 1.55 2.66 2.46 4.21-6.47 2.32-12.27 1.47-18.06 1.14-7.29-.42-14.58-.69-21.87-1.11-1.25-.07-2.48-.59-3.72-.91.63-1.6.8-3.94 1.97-4.64 2.85-1.71 3.14-3.53 2.31-6.52-1.64-5.94-1.46-5.99 3.68-9.63 2.71-1.92 3.03-5.25.54-6.78-1.15-.7-2.53-1.15-3.87-1.38-2.64-.45-4.01-2.1-4.01-4.54.01-5.68.3-11.35.49-17.47 4.84.23 8.95.51 13.06.59 2.94.06 6.01.35 8.8-.36 4.46-1.13 5.13-4.74 1.79-7.74-1.34-1.2-2.93-2.21-4.02-3.6-3.5-4.47-7.97-4.93-13.06-3.71-1.71.41-3.53.4-5.96.65 0-3.93.01-7.5 0-11.06-.02-4.24.03-8.49-.13-12.72-.06-1.72.45-2.73 2.02-3.47 3.45-1.62 7-3.12 10.15-5.21 1.85-1.23 3.61-3.29 4.34-5.35.98-2.78.06-5.47-3.33-6.43-2.33-.65-4.66-1.36-7.02-1.9-4.72-1.09-5.84-2.64-5.82-7.4.2-42.2.3-84.4.56-126.6.05-8.36.96-16.72.84-25.07-.08-6-1.65-11.98-1.77-17.98-.14-6.97.53-13.96 1-20.92.04-.64 1.11-1.4 1.87-1.77 2.66-1.29 5.41-2.41 8.11-3.65 2.39-1.1 3.35-2.99 3.27-5.63s-2.22-2.79-3.86-3.5c-3.01-1.29-6.07-2.45-9.11-3.67.11-.42.21-.84.32-1.26 2.56-.14 5.12-.41 7.68-.38 4.66.05 9.32.19 13.97.46 4.48.26 5.49 1.94 5.07 6.42-.23 2.36.48 4.81.75 7.05-2.19-.27-5.11-.86-8.03-.88-1.2-.01-3.09.93-3.44 1.89-.38 1.03.34 2.88 1.18 3.85 1.07 1.22 2.64 2.16 4.17 2.78 5.14 2.08 8.64-.1 9.3-6.12 2.23 3.43 5.12 3.93 8.66 3.27 1.57-.29 3.76.25 5.02 1.23 2.37 1.86 4.84 2.74 7.78 3.03 1.6.16 3.21.91 4.67 1.67 1.97 1.02 3.74 2.41 5.71 3.44 3.37 1.76 5.59 1.3 8.15-1.46 1.01-1.09 2.17-2.07 3-3.28 2.96-4.28 7.1-4.42 11.6-3.58 1.55.29 3.14.8 4.67.69 3.27-.23 5.58-2.79 5.82-6.02.21-2.79-1.98-5.55-5.19-6.55-4.44-1.38-4.44-1.38-4.44-5.6 12.86 0 25.74-.01 38.61.05.26 0 .52.8 1.32 2.14-4.7.75-8.9 1.44-13.11 2.07-3.22.49-6.56.55-9.66 1.45-2.82.82-4.43 2.88-3.81 6.34.61 3.42.79 6.95.86 10.44.04 2.13.95 3.21 2.85 3.48 1.86.26 3.79.54 5.64.33 8.36-.92 15.98-4 22.98-8.58 4.99-3.27 10.17-5.23 16.36-4.66 3.7.34 6.55-2.08 7.56-5.64 1.12-3.94 3.3-4.73 7.26-5.04 8.16-.65 16.24-1.12 24.36.07.68.1 1.35.23 2.2.38-1.94 1.94-2.31 2.01-4.72 1.04-6.16-2.48-10.04-.36-11.29 6.15-1.28 6.68-1.37 6.99 4.99 8.85 5.08 1.48 8.4 5.11 12.3 8.14 1.93 1.5 4.27 2.93 6.61 3.36 4.55.84 7.47-2.85 6.13-7.29-.39-1.29-1.44-2.41-1.71-3.71-.41-2.01-.69-4.13-.52-6.16.2-2.36.7-4.77 1.57-6.96.42-1.05 2.48-2.55 2.98-2.29 4.31 2.27 8.57.16 12.83.25 2.3.05 4.63.14 6.89.54 2.18.39 4.24.81 3.44 4.25-.63 2.73 2.32 5.8 5.69 6.16 5.23.55 10.56 1.09 14.75-3.47.99-1.08 2.68-1.75 4.17-2.11 3.59-.88 6.06.44 6.29 4.06.4 6.51.11 13.07.11 19.39-1.71.83-3.25 1.33-4.5 2.24-3.63 2.64-3.76 6.29.04 8.58 4 2.41 5.29 5.4 5.18 10.08-.17 6.94.89 13.91 1.04 20.87.09 4.11-.8 8.23-.85 12.35-.13 10.81.02 21.63-.08 32.45-.04 4.12.11 8.39-.88 12.32-1.2 4.74 1.15 8.89 1.03 13.34-.32 12.7-.79 25.4-1.03 38.11-.29 15.48-.41 30.96-.61 46.43-.01.94-.12 1.89-.19 3.09-2.79.33-5.51.8-8.23.92-2.11.1-3.56-3.49-3.5-6.57.05-2.74-.07-5.78-1.22-8.16-1.86-3.87-6.07-4.62-9.94-5.45-2.98-.64-5.54-.73-7.96 2.05-1.61 1.84-4.35 2.96-6.8 3.75-4.41 1.43-7.15 4.86-6.81 9.4.04.48.18 1.24.49 1.37 4.73 2.06 8.69 6.37 14.6 5.02 1.86-.42 3.75-1.15 5.59-1.06 1.45.07 3.16.87 4.2 1.91 1.36 1.36.21 2.77-.74 4.17-1.7 2.52-3.18 5.19-4.59 7.89-.8 1.53-.28 2.81 1.34 3.66 2.44 1.26 4.85 2.6 7.24 3.96 3.82 2.17 4.79 6.41 2.34 10-.6.87-1.22 1.74-1.67 2.69-3.62 7.63-1.26 10.74 6.3 14.12 1.93.86 3.51.28 4.55-1.59 1.07-1.92 2.12-3.86 3.99-5.92.31 2.14.88 4.29.89 6.43.04 7.62-.02 15.25-.21 22.87-.12 5.07-.3 10.17-.86 15.21-.55 4.94-2.57 6.83-7.54 7.3-2.47.23-5.01-.36-7.52-.39-4.54-.06-9.09-.04-13.64.05-3.18.07-6.35.49-9.52.41-1.66-.04-3.28-1.03-4.97-1.23-3.11-.35-6.28-.84-9.36-.54-7.1.7-14.13 2.41-21.22 2.69-17.99.69-36.01 1.08-54.01 1.11-24.59.04-49.19-.36-73.78-.58-.64-.03-1.26-.12-2.95-.25zm141.14-236.93c.99-.45 1.92-.86 2.85-1.29 4.4-2.05 7.9-.74 9.78 3.66 3.09 7.24 4.35 14.41-.66 21.41-.73 1.02-1.34 2.2-1.72 3.39-.46 1.46-1.15 3.14-.84 4.51 2.6 11.31-5.5 18.24-10.74 26.25-1.01 1.55-3.64 2.03-5.49 3.05-.92.51-2.16.9-2.62 1.71-2.05 3.65-5.73 3.88-9.14 4.92-1.94.59-3.61 2.04-5.52 2.79-2.17.85-4.86 2.44-6.65 1.8-4.87-1.72-8.72-.93-12.69 2.09-2.61 1.99-4.8 1.34-6.86-1.27-1.57-2-3.13-4.01-4.62-6.07-2.81-3.86-3.83-8.07-2.88-12.87.57-2.85 1.44-6.15.54-8.67-2.22-6.26-.96-11.64 2.33-16.9 2.71-4.33 2.31-5.75-.51-9.88-1.02-1.5-.26-4.34.08-6.51.04-.27 2.84-.67 3.85-.1 4.02 2.27 8.11 2.61 12.58 1.9 3.69-.58 5.4 1.08 5.17 4.8-.33 5.32.54 10.27 3.08 14.99.72 1.34.92 3.02 1.07 4.57.34 3.53 2.26 5.83 5.81 5.87 2.71.03 5.5-.36 8.14-1.02 8.72-2.18 9.39-4.55 3.29-11.02-2.13-2.25-2.87-4.59-1.94-7.75.97-3.29 1.96-6.85 1.68-10.18-.6-7.16-1.81-14.3-3.17-21.36-.93-4.81-5.38-7.04-8.65-10.07-.29-.27-1.03-.12-1.55-.06-3.69.39-7.39.64-11.05 1.24-7.84 1.28-11.42 5.07-12.58 12.95-.12.84-.22 1.68-.31 2.52-.33 3.02-3.05 4.38-5.28 2.32-4.57-4.22-8.95-8.66-13.26-13.15-1.97-2.06-3.51-4.51-5.38-6.68-2.9-3.36-7.08-4.06-10.82-1.69-2.04 1.3-3.93 2.89-5.72 4.53-3.92 3.62-3.96 5.47.63 8.26 3.63 2.2 5.35 5.2 6.16 9.08.54 2.59 1.32 5.15 1.67 7.76.86 6.34-.03 11.93-4.06 17.6-3.36 4.72-7.14 10.36-4.84 17.15.1.29.14.66.04.94-2.22 6.43-2.5 13.53-9.28 18.01-6.42 4.24-6.7 10.3-2 16.24.53.67.99 1.39 1.59 1.98 2.4 2.39 7.99 2.77 9 .35 1.11-2.65 3.01-3.18 5.26-3.09 3.89.15 7.79.52 11.65.99.89.11 2.36 1.01 2.37 1.57.03 1-.66 2.21-1.41 2.98-1.08 1.12-2.82 1.69-3.69 2.92-2.93 4.15-7.13 4.97-11.73 5.05-1.48.03-2.97.08-4.45.1-3.83.05-7.25 1.06-10.1 3.83-1.03 1.01-2.36 1.81-3.69 2.39-3.49 1.53-6.7 3.05-9.09 6.45-1.43 2.02-4.64 2.75-6.97 4.19-1.41.87-2.96 1.76-3.95 3.03-2.48 3.2-4.73 6.49-9.28 6.95-.82.08-1.5 1.14-2.34 1.55-1.66.81-3.31 1.78-5.08 2.16-7.97 1.71-14.22 6.57-10.31 16.02 1.17 2.82 2.52 5.59 4 8.26 3.44 6.19 8.24 5.1 12.31 1.25 4.76-4.52 8.98-9.86 12.38-15.48 2.4-3.96 5.26-6.69 9.39-7.89 7.16-2.08 12.92-6.11 17.91-11.47.65-.7 1.48-1.24 2.07-1.98 2.04-2.55 4.61-3.28 7.83-3.11 4.11.21 8.7 1.02 12.27-.43 5.19-2.12 10.21-3.69 15.77-4.74 4.91-.93 9.6-1.77 14.57-1.45 1.54.1 3.11-.53 4.68-.64 2.28-.15 4.58-.15 6.87-.18.84-.01 1.81.38 2.5.07 4.53-2.02 8.45.06 12.46 1.64 1.77.7 3.5 1.57 5.34 2 6.36 1.48 9.65-1.96 8.03-8.23-.21-.82-.48-1.63-.64-2.46-.76-4.21-.26-7.94 3.43-10.84 2.58-2.02 4.83-4.46 7.34-6.57.91-.77 2.15-1.55 3.27-1.59 4.12-.17 7.22-2.06 9.79-5.08 2.05-2.4 4.32-4.66 6.12-7.24 4.55-6.51 9.35-12.91 13.21-19.83 5.07-9.09 6.52-19.25 5.85-29.55-.34-5.18-1.72-10.3-2.68-15.43-.32-1.72-1.26-3.44-1.16-5.11.31-4.82-.66-9.19-3.24-13.29-1.18-1.87-1.82-4.09-3.06-5.91-2.67-3.91-5.27-8.12-10.55-8.83-4.82-.65-7.71-3.3-9.46-7.71-2.32-5.83-6.8-8.41-13.04-7.92-1.58.12-3.17.17-4.74.4-4.12.61-7.98.23-11.56-2.22-.97-.67-2.4-1.04-3.58-.96-5.74.39-11.08-1.28-16.55-2.56-2.07-.49-4.74-.16-6.68.76-6.64 3.18-11.71 2.93-16.92-2-2.23-2.11-4.91-2.24-6.62-.89-5.08 4-11.22 5.21-16.96 7.51-4.28 1.72-5.79 1.37-8.5-2.28-2.93-3.95-6.9-6.38-12.15-7.51-.54 1.89-1.15 3.56-1.47 5.28-.57 3.06-1.87 3.91-4.85 2.87-1.8-.63-3.63-1.21-5.33-2.07-2.66-1.34-4.67-.51-6.45 1.52-.77.88-1.5 1.79-2.22 2.7-2.06 2.64-2.28 6.53-.53 9.53 1.68 2.87 4.17 3.3 7.35 3.01 4.92-.44 10.18-1.4 14.75-.15 6.21 1.7 12.14 4.88 17.76 8.15 5.45 3.17 11.08 3.53 16.31.18 2.35-1.5 5.02-2.62 7.69-3.48 6.81-2.2 13.61-.6 20.45.24 5.24.64 10.18 2.43 15.62 2.65 5.02.2 10.04 2.81 14.85 4.88 1.95.84 3.09 3.08 2.05 5.61-.67 1.63-1.49 3.25-1.81 4.95-.67 3.51.61 4.49 4.18 4.16 3.04-.28 6.12-.06 9.48-.06-3.69 5.77-3.69 5.77-2.83 10.33zm-145.58-25.13c-3.44-1.72-4.8-4.41-2.47-6.3 3.97-3.23 4.7-7.63 5.59-12.02.34-1.65.28-4.41-.69-5.08-1.7-1.17-4.69-2.11-6.34-1.36-4.62 2.09-9.28 1.55-14 1.71-3.12.1-6.34.5-9.29 1.45-3.71 1.19-4 2.78-2.14 6.29 1.49 2.81 4.18 3.29 6.89 3.88 6.52 1.42 7.97 3.82 7.77 10.22-.09 2.75.88 5.89 2.35 8.24 2.61 4.19 4.91 8.43 5.69 13.3.53 3.36 2.85 3.83 5.47 3.86 3.02.03 3.61-2.17 3.63-4.56.03-3.07 1.28-5.22 4.13-6.48 1.15-.51 2.18-1.3 3.25-1.99 5.1-3.33 6.28-10.32 2.74-15.34-1.21-1.71-2.55-2.22-4.26-1.18-2.79 1.69-5.48 3.52-8.32 5.36zm113.31 144.62c-.18.65-.33 1.15-.45 1.66-1.12 4.4-2.13 8.82-3.44 13.16-.26.87-1.66 1.39-2.53 2.07-.52-1.15-1.34-2.27-1.48-3.47-.17-1.43.57-3 .28-4.38-.29-1.41-1.35-2.65-2.07-3.97-1.31.77-2.89 1.3-3.87 2.37-1.34 1.46-2.17 3.37-3.31 5.03-3.9 5.66-2.13 7.59 3.71 9.47.69.22 1.47.15 2.2.28 3.54.6 7.08 1.15 10.6 1.86 2.56.52 5.1 1.18 7.61 1.91 1.02.3 2.16.72 2.88 1.45 2.27 2.31 4.24 4.92 6.57 7.16 2.56 2.46 5.26 1.53 6.24-1.99.82-2.96 1.71-5.92 2.2-8.94.22-1.39.07-3.43-.8-4.31-3.48-3.51-7.31-6.68-11-9.99-1.32-1.19-3.15-2.21-3.78-3.71-1.77-4.27-5.15-5.41-9.56-5.66zm88.31-31.67c-4.34 1.64-5.33 4.15-5.4 7.24-.07 3.1-.68 6.01-2.91 8.34-4.91-2.03-6.73-6.14-7.87-10.68-1.05-4.18-3.25-7.5-6.75-10.05-1.88-1.37-3.25-1.18-5.33-.06-4.57 2.45-4.55 6.52-4.39 10.64.04.95 1.35 1.91 2.17 2.77 2.1 2.19 4.54 4.12 6.31 6.54 2.25 3.06 3.84 6.6 5.99 9.73.79 1.14 2.34 2.29 3.65 2.42 2.81.27 5.76.28 8.51-.3 9.26-1.96 10.38-4.16 7.91-13.24-.7-2.57-.58-5.35-.93-8.02-.21-1.69-.59-3.34-.96-5.33zm-232.23-62.38c7.12 1.96 9.65.53 11.65-6.28.53-1.82 1.08-3.67 1.92-5.35 3.06-6.11 2.04-7.54-4.09-6.69-1.49.2-3.92-.41-4.58-1.48-1.82-2.93-1.31-7.25.56-8.84 2.91-2.47 3.91-5.69 3.86-9.31-.05-4.36-2.51-7.25-6.64-8.62-4.11-1.37-5.42 2.04-6.68 4.27-1.51 2.68-3.14 6.38-2.41 8.99 1.15 4.12 1.19 7.85.07 11.72-.63 2.19-.34 3.92 1.2 5.52 3.41 3.56 4.59 7.94 4.76 12.72.02 1.14.25 2.28.38 3.35zm122.82 141.78c.61 1.86.7 4.76 1.93 5.37 3.81 1.89 7.97 3.45 12.15 4.02 1.97.27 4.31-2 6.44-3.2 1.28-.72 2.63-1.44 3.67-2.45 1.93-1.86 4.47-3.67 5.25-6 .76-2.27.37-5.62-.86-7.69-1.38-2.33-4.32-3.87-7.47-2.68-5.9 2.24-11.76 4.59-17.6 6.98-2.41.98-3.73 2.73-3.51 5.65zm92.36-91.83c-.37.07-.75.13-1.12.2.97 3 1.86 6.04 2.97 8.99.22.6 1.23 1.2 1.94 1.28 4.39.48 9.48-2.86 10.98-7.09 2.22-6.24 4.45-12.47 6.6-18.73.33-.97.49-2.08.42-3.1-.21-3.02-3.86-5.82-6.5-4.89-4.28 1.52-8.06 3.64-9.44 8.55-.47 1.68-1.38 3.41-2.55 4.68-2.68 2.9-4.18 6.04-3.3 10.11zm-9.71 117.72c-.91-2.32-1.8-4.15-2.33-6.07-1.03-3.73-3.4-5.81-7.04-7.01-4.32-1.43-5.88-4.42-5.2-8.9.19-1.25.74-2.5.68-3.73-.05-1.02-.59-2.77-1.19-2.89-2.46-.51-5.1-1-7.53-.6-4.01.66-3.46 4.41-4.07 7.31-1.24 5.89-.12 10.59 5.72 13.64 3.37 1.76 6.21 4.25 7.53 8.19.81 2.4 5.15 4 7.6 3.03 1.93-.78 3.73-1.89 5.83-2.97zm-6.62-241.53c.02.29.01 1.35.18 2.39.83 5.25 1.93 6.33 7.12 7.17 7.07 1.15 12.83-1.47 17.83-6.2 2.87-2.71 1.86-7.2-1.83-8.62-4.52-1.74-9.02-3.54-13.54-5.26-.74-.28-1.68-.58-2.36-.37-4.78 1.52-7.26 5.01-7.4 10.89zm-62.78 266.3c-.42.12-.84.23-1.26.35.55 1.76.58 4.27 1.77 5.11 2.17 1.52 4.48.26 6.57-1.41 3.93-3.13 6.28-7.16 7.2-11.94.37-1.91.47-4.54-.56-5.91-2.16-2.89-4.97-5.39-7.87-7.57-.97-.72-3.3-.48-4.55.19-4.5 2.4-5.58 6.24-3.94 11.22 1.09 3.25 1.78 6.63 2.64 9.96zm-90.48-171.65c4.21-.26 7.68-3.91 11.71-6.53 2.32-1.51 1.33-3.75 1.67-5.71.09-.52.27-1.02.43-1.52.57-1.81 1.51-3.71-.76-5.03-2.41-1.41-4.74-3.37-7.81-1.4-3.37 2.17-6.79 4.27-10.18 6.41-3.3 2.08-4.57 5.47-3.45 9.2.94 3.14 3.29 4.6 8.39 4.58zm-34.8.61c-2.03 2.47-4.11 4.99-6.18 7.52-2.84 3.47-2.89 6.78 0 10.39 1.12 1.4 2.43 2.65 3.76 3.86 3.11 2.83 6.34 2.03 7.53-1.99.84-2.83 1.36-5.76 1.87-8.67 1.02-5.78-1.09-9.14-6.98-11.11zm59.41 177.97c0-4.72-2.93-8.03-7.34-8.31-4.65-.3-7.7 2.15-7.73 6.42-.03 4.08 1.49 7.75 4.29 10.58.96.97 3.78 1.46 4.81.77 3.23-2.19 6.05-5.01 5.97-9.46zm-26.92-210.89c.52-.29 1.9-.7 2.73-1.62 1.48-1.63 2.68-3.54 3.92-5.38 1.73-2.59 1.21-5.02-.7-7.27-2.39-2.8-5.08-3.32-8.04-1.15-2.23 1.64-5.08 3.35-5.98 5.67-1.87 4.85 2.01 9.53 8.07 9.75zm-36.03 131.47c-.29.11-.58.22-.87.32.9 2.34 1.18 5.4 2.85 6.85 2.78 2.42 6.65 2.52 10.21 1.23.76-.27 1.58-1.45 1.69-2.3.75-5.84-4.33-11.67-10.22-11.87-2.4-.08-3.84.9-3.67 3.54.05.74.01 1.49.01 2.23zm24.45-56.49c3.85 0 5.54-3.1 6.91-5.74.7-1.35-.19-4.16-1.28-5.63-1.3-1.74-3.44-3.14-5.5-3.97-3.73-1.5-4.16-1.1-5.09 2.72-.4 1.64-.78 3.29-1.17 4.93-1.02 4.4 1.65 7.75 6.13 7.69zm-42.31 139.11c-.2 2.22 1.08 3.48 3.34 4.02 2.75.66 8.86-2.47 9.17-5.3.23-2.1-.49-4.6-1.59-6.43-.65-1.08-3.02-1.86-4.4-1.61-3.56.63-6.5 5.14-6.52 9.32zm96.31-93.95c5.15 0 5.98-1.23 4.97-5.14-.95-3.65-3.66-5.62-6.93-5.33-2.25.2-4.58 2.19-6.33 3.93-.57.56.13 3.74 1.02 4.2 2.58 1.3 5.56 1.84 7.27 2.34zm16.21 65.06c.02 3.05 1.73 5.49 3.84 5.49 3.46 0 8.92-4.51 8.85-7.31-.05-1.98-4.2-4.24-7.44-4.06-1.94.11-5.27 3.83-5.25 5.88zm104.64-30.96c.66-.17 1.74-.29 2.68-.71 2.59-1.15 4.96-5.53 3.6-6.83-1.31-1.26-3.38-2.92-4.77-2.64-2.56.51-4.88 2.26-7.25 3.61-.25.14-.14 1-.11 1.52.18 2.8 2.68 5.11 5.85 5.05zm-174.24 2.96c1.32-.46 3.3-.77 4.76-1.8 1.09-.77 2.18-2.58 2.02-3.77-.15-1.16-1.7-2.44-2.94-3.09-1.81-.94-9.13 1.65-9.44 3.48-.24 1.37.74 3.21 1.7 4.41.54.67 2.17.47 3.9.77zm165.42 39.54c6.04.87 9.26.49 11.27-1.77.9-1.01 1.51-2.86 1.27-4.13-.23-1.2-2.2-3.22-2.66-3.03-2.99 1.21-5.93 2.7-8.54 4.59-.93.67-.88 2.71-1.34 4.34zm-126.63-177.36c1.18-.73 3.2-1.28 3.92-2.56 1.31-2.33.18-4.58-1.62-6.53-1.74-1.9-3.04-.05-4.5.31-.91.22-1.91.52-2.58 1.12-.89.81-2.14 1.97-2.08 2.91.08 1.21 1.05 2.71 2.08 3.43 1.13.78 2.78.81 4.78 1.32zm112.26 106.86c-.04-2.15-2.41-4.57-4.54-3.68-2.47 1.03-5.06 3.03-6.33 5.31-1.07 1.93 2.15 4.92 4.51 4.83 3.02-.13 6.41-3.57 6.36-6.46zm-195.71-39.32c2.58-1.13 5.17-1.85 7.25-3.3 2.58-1.79 1.89-5.21-.91-6.66-2.61-1.35-4.96-.73-6.27 1.52-1.17 2.02-1.48 4.57-1.96 6.93-.06.32 1.07.88 1.89 1.51zm19.41-159c-.46-.94-.74-2.35-1.29-2.46-2.77-.58-5.71-1.45-8.38-.99-2.6.45-2.92 4.23-.92 6.11 2.29 2.15 7.05 2.1 9.23-.2.6-.62.88-1.55 1.36-2.46zm67.78 109.16c-.08-3.46-3.32-6.99-6.35-6.6-2.32.3-2.54 2.25-2.57 4.1-.04 2.15 3.47 6.41 5.21 5.99 1.64-.39 4.02-.61 3.71-3.49zm1.33 161.11c3.7.07 6.54-1.82 6.62-3.69.1-2.3-2.54-5.55-4.45-5.48-1.64.06-4.19 3.76-3.87 6.23.16 1.21 1.31 2.29 1.7 2.94zm-43.4-105.73c1.07 1.11 2.03 3.02 3.23 3.18 3.22.44 3.03-2.94 4.02-4.78.44-.82-.38-2.38-.76-3.56-.07-.22-.75-.35-1.15-.35-1.92-.03-4.84 3.05-5.34 5.51zm173.04 77.42c1.44-.9 2.6-1.6 3.73-2.35 2.23-1.49 2.24-2.91.05-4.5-2.77-2.01-4.23-1.63-7.8 2.16 1.26 1.48 2.55 2.97 4.02 4.69zm-94.86-51.46c1.72 3.35 3.82 4.26 6.29 2.84 1.59-.91 2.39-2.16 1.3-3.91-1.25-2-3.89-1.64-7.59 1.07zm-31.01 44.14c2.34-.97 6.18.51 5.88-3.64-.1-1.32-2.18-3.06-3.71-3.58-1.7-.58-2.78 2.69-2.17 7.22zm6.83-16.45c1.41-1.06 2.56-1.92 3.71-2.77-.85-.98-1.53-2.37-2.6-2.82-.96-.4-2.35.23-3.87.46 1.06 1.97 1.7 3.16 2.76 5.13zm-76.92-62.69c1.14 3.02 3.12 3.3 5.1 1.96.54-.36.47-2.85-.18-3.51-2.36-2.36-3.23.78-4.92 1.55zm201.1 119.51c-.4.21-.79.42-1.19.63.14 1.11-.07 2.91.49 3.19.95.47 2.37-.01 3.6-.09.11-.38.23-.76.34-1.13-1.08-.87-2.16-1.74-3.24-2.6z"/><path d="m105.12 37.59c2.78-2.68 6-2.24 9.15-2.1 4.01.18 8.03.28 12.02.64 2.6.23 5.15.93 7.74 1.3 1.65.23 3.34.43 4.99.31 5.25-.39 5.65-.13 6.79 6.5-2.17-.99-4.09-1.41-5.37-2.54-4.02-3.55-11.2-3.38-14.71.61-3.66 4.16-12.49 4.23-16.22.12-1.42-1.57-2.84-3.13-4.39-4.84z"/><path d="m320.98 289.15c1.63-1.97 3.15-3.8 4.68-5.64 2.17 1.97 2.85 7.24 1.05 8.92-.55.51-2.23.44-2.96-.04-1.08-.71-1.77-2.01-2.77-3.24z"/></g></svg>