<svg enable-background="new 0 0 400 400" viewBox="0 0 400 400" xmlns="http://www.w3.org/2000/svg"><g fill="#010103"><path d="m268.19 169.05c-4.38-1.95-5.09-5.36-4.88-9.35.24-4.47-.72-8.7-2.09-13.04-1.28-4.04-1.01-8.57-1.38-12.89-.16-1.9-.08-3.83-.37-5.71-.84-5.47-2.54-10.45-7.54-13.71-1.94-1.26-3.56-3-5.31-4.54-5.17-4.54-9.8-4.01-15.1.26-5.81 4.68-12.31 8.53-18.54 12.69-3.68 2.45-7.5 4.69-11.11 7.23-2.47 1.74-3.6 2.19-7.18 1.29 1.11-1.8 1.84-3.64 3.13-4.91 2.56-2.52 5.36-4.83 8.2-7.04 3.66-2.83 6.41-6.23 8.66-10.33 1.46-2.66 4.13-4.79 6.6-6.73 5.67-4.46 9.58-10.06 12.22-16.72 1.71-4.33 3.8-8.5 5.7-12.75 1.51-3.37-.68-8.98-4.22-10.1-2.27-.72-4.77-1.17-7.14-1.07-5.98.25-11.56-.6-16.8-4.8 5.13-.82 9.98-1.22 14.64-2.41 7.29-1.87 14.54 0 21.8-.3 2.96-.13 6.49 2.89 8.89 2.04 3.27-1.16 6.17-.75 9.26-.71 2.97.04 5.95.39 8.89.14 9.52-.81 18.42 2 27.61 4.28v5.56c-5.86-.71-11.85.82-17.62-1.88-1.75-.82-3.9-1.04-5.87-1.06-4.66-.03-9.43-.32-13.94.57-2.63.52-5.61 2.62-7.1 4.89-3.12 4.72-5.4 10-7.91 15.11-.33.67.1 1.68.01 2.52-.1.97-.32 1.94-.6 2.87-1.04 3.4-2.31 6.74-3.16 10.19-1.11 4.49 1.09 6.9 5.14 9.42.98.61 2.04 1.2 3.14 1.52 7.49 2.19 11.58 7.51 14.36 14.52 3.84 9.7 6.57 19.45 4.66 30.02-.28 1.55.36 3.27.6 4.91.2 1.34.61 2.68.62 4.02.05 10.07.11 20.15-.02 30.22-.04 2.72-.8 5.43-1.11 8.15-.37 3.24-.79 6.5-.84 9.76-.07 4.06.95 8.08-1.28 12.08-.98 1.75-.49 4.36-.58 6.58-.18 4.34-.55 8.7-.35 13.03.11 2.31.81 4.86 2.04 6.78 1.87 2.91 5.49 2.88 7.86.31 8.91-9.66 17.8-19.36 26.67-29.06 1.87-2.05 2.01-6.43.6-8.84-2.29-3.92-4.18-8.09-6.69-11.85-2.91-4.36-6.25-8.46-9.53-12.56-1.65-2.06-3.89-3.76-2.32-7.62 2.55 1.62 5.14 2.93 7.32 4.74 3.83 3.17 6.98 7.36 11.17 9.86 10.06 6.03 12.08 5.3 17.07-3.33 6.01-10.4 5.84-21.51 2.25-32.58-.93-2.86-3.32-4.99-6.62-6.34-10.16-4.16-20.44-6.73-31.36-4.42-1.16-5.18-1.07-5.41 3.5-5.82 11-.99 21.82.32 32.4 3.21 8.41 2.3 15.28 11.49 15.54 21.15.31 11.7-1.72 22.89-8.73 32.85-5.25 7.47-9.84 15.39-9.69 24.29 1.34 2.98 2.46 5.46 3.62 8.03-.47.39-1.13.94-1.99 1.65.87.65 1.5 1.13 2.17 1.64-1.15.58-2.31 1.17-4.12 2.08 1.63.96 2.62 2.05 3.51 1.97 2.89-.26 3.15 1.39 3.53 3.6 1.21 6.98 2.76 13.91 3.95 20.89.55 3.22 1.13 6.6.73 9.78-1.75 13.65.71 27.04 1.82 40.53.23 2.74-.54 5.56-.82 8.34-.24 2.35-.85 4.75-.57 7.04.74 5.94-.19 11.44-3.05 16.69-.85 1.57-1.2 3.41-1.87 5.38 2.7 3.71 2.54 10.37-.97 14.38-.38-2.1-.74-3.87-1.01-5.65-.48-3.14-1.05-6.28-1.31-9.44-.11-1.34.35-2.78.78-4.1.83-2.59.53-4.95-.55-7.76.14-.72.63-2.1.65-3.48.09-5.73.1-11.45 0-17.18-.03-1.55-.29-3.19-.86-4.62-.85-2.14-1.32-4.02.65-5.09-1.29-2.64-2.63-4.99-3.62-7.48-2.42-6.13-5.26-7.71-11.59-5.84-4.1 1.22-8.14 2.18-12.46 1.28-3.22-.67-6.21 0-9.48.77-3.83.9-8.63.24-12.3-1.36-5.5-2.4-11.02-1.23-16.49-1.93-6-.77-11.93-1.43-17.96.02-1.31.31-3.09-.43-4.39-1.16-2.89-1.63-5.74-2.26-9.08-1.62-9.24 1.76-18.35-.25-27.48-1.3-6.18-.71-12.33-2.15-18.58-.44-.85.23-2.21.24-2.72-.27-.89-.89-1.64-2.22-1.78-3.44-.06-.55 1.42-1.77 2.29-1.86 3.45-.34 6.94-.4 10.41-.49 4.52-.12 9.14.35 13.56-.36 10.31-1.67 20.51.31 30.75.28 4.88-.02 9.75.17 14.63.05 1.12-.03 2.44-.72 3.27-1.52 3.98-3.82 4.93-8.71 4.53-14-.26-3.38-.52-6.76-.71-10.15-.3-5.34.07-10.52 2.56-15.46.85-1.68 1.16-3.91.94-5.8-.89-7.64.83-14.97 2.14-22.36.18-1.03.6-2.24.26-3.12-2.64-6.94 0-13.6.93-20.34.48-3.5 1.35-6.73-.17-10.45-1-2.44-.17-5.83.47-8.65.18-.92 2.4-1.36 4.21-2.27zm51.22 81.95c-.88-3.64-1.9-8.26-3.11-12.83-1.34-5.11-6.64-6.98-10.73-3.85-1.51 1.16-3.1 2.29-4.35 3.7-6.41 7.27-14.37 12.45-22.72 17.13-1.66.93-3.33 1.88-4.88 2.98-3.39 2.39-5.9 5.22-5.7 9.86.1 2.26-.37 4.68-1.18 6.8-2.27 5.92.9 11.26 7.13 11.6 13.7.75 27.58-.21 40.86 4.59 2.94 1.06 5.46-.62 6.47-3.62.53-1.58 1.01-3.35.85-4.97-.85-8.41-1.95-16.8-2.85-25.21-.2-1.76.1-3.56.21-6.18z"/><path d="m239.81 158.32c2.8 6.65 6.46 13.02 4.73 20.85-.67 3.04-.54 6.36-.23 9.5.66 6.67-.72 12.88-2.5 19.29-2.57 9.26-6.88 16.76-14.46 22.99-8.78 7.21-18.56 8.38-27.76 1.63-1.36-1-2.7-2.02-4.2-3.14.53-.6.97-1.1 1.44-1.63-1.41-.86-2.83-1.6-4.1-2.52-5.08-3.7-7.1-9.21-8.02-15.02-.83-5.29-.83-10.71-1.26-16.07-.08-1.01-.35-2.06-.76-2.99-3.94-8.88-7.97-17.72-11.87-26.62-1.26-2.88-3.64-4.96-6.31-4.25-2.37.64-4.75 2.98-6.09 5.2-1.42 2.35-1.68 5.42-2.32 8.2-1.13 4.97-2.29 9.86-5.75 13.91-.98 1.14-1.28 2.87-1.81 4.37-1.94 5.49-4.03 10.93-5.71 16.5-1.5 4.96-4.51 8.99-6.98 13.39-3.43 6.11-6.94 12.71-7.95 19.47-.81 5.42 2 11.4 3.32 17.11.64 2.76 1.62 5.43 2.34 8.17 1.22 4.68 2.14 9.45 3.59 14.06 1.14 3.62 2.74 7.12 4.41 10.54 2.4 4.93 3.75 10.08 4.3 15.51.16 1.64.81 3.26 1.45 4.81 2.11 5.17 4.53 10.22 6.43 15.46 3.1 8.55 5.96 17.18 8.75 25.84 1.11 3.47 1.28 7.07-1.65 11.78-.67-1.29-1.34-2.59-2.02-3.88-1.82-3.47-3.94-6.81-5.4-10.42-4.29-10.59-8.31-21.28-12.44-31.93-.3-.79-.47-1.66-.92-2.35-10.02-15.24-14.22-32.69-19.18-49.88-4.8-16.64-9.17-33.38-12.38-50.39-.88-4.65-1.32-9.49-1.11-14.2.36-8.07-.64-15.89-3.11-23.49-.55-1.69-2.5-3.25-4.19-4.09-.72-.36-2.74 1-3.65 2.03-11.12 12.66-22.1 25.46-33.24 38.1-1.83 2.07-4.28 3.59-6.73 5.6-.67-1.48-1.06-2.31-1.51-3.3.98-.29 1.76-.51 2.69-.78-.81-2.27-.18-3.51 1.98-4.78 2.06-1.21 3.61-3.45 5.07-5.47 3.08-4.27 5.97-8.67 8.88-13.05.63-.94 1.33-2 1.47-3.07.51-3.95 2.47-7 4.97-10.03 7.07-8.56 14.94-16.54 20.12-26.55.47-.9 1.26-1.78 2.12-2.31 4.3-2.64 7.1-2.96 8.84 1.83 1.31 3.6 1.84 7.53 2.31 11.36.45 3.67-.56 7.8.78 11 1.69 4.03 1.54 8.02 2.02 12.06.21 1.78.27 3.6.23 5.4-.09 3.9.86 7.34 2.77 10.86 1.49 2.75 1.84 6.26 2.11 9.48.3 3.62 2 5.85 5.36 7.36 4.43-6.67 7.8-13.78 10.21-21.38 3.39-10.68 6.82-21.35 10.22-32.04.22-.69.52-1.46.43-2.14-.6-4.27 1.26-7.6 3.87-10.7.46-.55 1.04-1.29 1-1.91-.38-6.9 2.47-12.89 5.21-18.91.4-.87 1.25-1.53 1.89-2.28.29.22.57.44.86.66-.43.82-.86 1.63-1.61 3.07 1.73-.82 2.82-1.34 3.92-1.86 3.82 2.07 6.46 4.97 7.48 9.33 1.44 6.18 2.91 12.37 4.75 18.44.9 2.97 2.4 5.86 4.11 8.46 1.77 2.69 4.52 2.66 6.69.22 1.25-1.41 1.97-3.35 3.35-4.58 1.19-1.06 2.94-1.68 4.53-1.94.36-.06 1.44 2.16 1.59 3.4.4 3.36.74 6.77.61 10.15-.12 3.14 1.45 5.01 4.02 5.62 4.8 1.14 9.69 2 14.59 2.5 3.88.4 7.84-.02 11.76.12 2.48.09 4.18-.98 4.91-3.15 1.59-4.68 2.88-9.46 4.38-14.17.93-2.92 2.02-5.78 3.04-8.67.45.09.89.2 1.32.31zm-48.55 46.95c.67.4 1.09.67 1.54.9 3.03 1.57 5.28 3.19 4.87 7.48-.2 2.1 1.87 4.78 3.56 6.6 1.83 1.97 4.56 3.08 6.62 4.88 2.68 2.35 5.56 2.41 8.53 1.16 2.02-.85 4.01-1.94 5.72-3.3 6.93-5.46 10.62-12.51 11.03-21.51.36-7.87-2.63-11.29-10.47-10.61-6.91.61-13.6.53-20.09-2.68-4.59-2.27-9.65 1.7-9.05 6.84.43 3.7.39 7.14-2.26 10.24z"/><path d="m93.17 97.69c-.74-3.07.02-5.16 2.17-7.28 7.1-6.98 13.92-14.23 20.91-21.32.91-.93 2.17-1.51 2.78-1.92 1.38-2.14 2.16-4.31 3.69-5.57 4.1-3.34 5.71-8.03 7.63-12.59.26-.62.05-1.57-.24-2.25-1.07-2.58.46-8.5 2.47-10.49 1.8-1.78 3.54-1.54 5.41-.48 2.68 1.52 4.02 3.97 4.51 6.93.66 3.97 1.31 7.93 1.92 11.9.34 2.21 1.38 3.76 3.34 5.03 10.94 7.14 21.27 15.04 29.97 24.88 1.66 1.88 3.16 3.9 4.94 6.1-2.62 1.16-4.5 1.05-6.46-.58-2.93-2.43-6.04-4.65-9.1-6.93-2.5-1.86-4.72-3.89-8.32-4.03-1.99-.08-3.99-2.17-5.83-3.56-2.86-2.16-5.55-4.55-8.39-6.74-1.84-1.41-3.94-1.96-6.22-.97-.29.12-.61.18-.93.22-4.63.58-8.05 2.45-10.33 6.99-2.53 5.05-6.78 8.32-12.97 8.13-.83-.03-1.84.87-2.51 1.58-2.91 3.08-5.65 6.32-8.59 9.36-2.63 2.71-5.8 4.23-9.85 3.59z"/></g><path d="m6.4 11.7c-1-.8-1.9-1.6-2.9-2.3l.6-.7c.9.7 1.9 1.4 2.9 2.2zm-2.1 8.3c.7-2.1 1.4-4.2 2-6.4.2.1.6.3 1 .4-.7 2.3-1.3 4.4-1.9 6.4zm3-12.8c-1.1-.9-2.1-1.7-2.9-2.4l.6-.7c1 .8 2 1.5 3 2.4zm1.4-1.3v-.9h10.2v.9c-.9 4.2-2.3 7.3-4.1 9.4 1.3 1.4 3.2 2.7 5.7 4-.2.2-.4.5-.7.9-2.5-1.4-4.4-2.7-5.7-4.2-1.4 1.5-3.5 3-6.1 4.4 0 0 0 0-.1-.1-.3-.4-.5-.7-.7-.8 2.7-1.3 4.7-2.8 6.2-4.2-1.8-2.2-3-5.3-3.7-9.4zm9.2 0h-7.1c.6 3.8 1.7 6.7 3.4 8.7 1.7-2 2.9-4.8 3.7-8.7z" fill="#fcfbfa"/><path d="m31.6 3.6h.9v2.3h4.1v9.1h1.7v.9h-16.6v-.9h1.7v-9.1h4.1v-2.3h.9v2.3h3.1v-2.3zm-4 13.3.6.8c-1.9.9-3.8 1.9-5.8 2.8-.2-.3-.3-.6-.5-.9 2-.9 3.9-1.8 5.7-2.7zm-3.2-10.1v3.7h3.1v-3.7zm0 4.5v3.7h3.1v-3.7zm4.1-4.5v3.7h3.1v-3.7zm0 4.5v3.7h3.1v-3.7zm9.1 9.1c-2.1-1.1-4.1-2-5.8-2.7l.5-.8c2.2.9 4.1 1.8 5.8 2.6zm-1.9-13.6h-3.1v3.7h3.1zm-3.2 4.5v3.7h3.1v-3.7z" fill="#fcfbfa"/></svg>