<svg enable-background="new 0 0 400 400" viewBox="0 0 400 400" xmlns="http://www.w3.org/2000/svg"><path d="m6.8 9.5c.6.3 1.3.7 2.1 1.1-.4.4-.7.8-.9 1.2-.7-.4-1.3-.8-1.8-1.1s-1.1-.6-1.6-.8c.2-.4.5-.8.7-1.2.4.2.8.5 1.5.8zm.9 6.9c-.3.6-.5 1.1-.7 1.7s-.4 1.1-.6 1.7c-.6-.4-1.1-.7-1.6-1 .7-1 1.2-1.8 1.5-2.4.3-.5.6-1.1.8-1.7.3-.6.5-1.2.8-1.8.3.3.8.6 1.3.8-.7 1.3-1.2 2.2-1.5 2.7zm.1-11c.4.3 1 .7 1.7 1.1-.5.2-.8.6-1.1 1.1-.5-.6-1-1-1.4-1.2s-.9-.6-1.5-.8c.2-.4.5-.7.9-1.1.5.3.9.6 1.4.9zm10.5 13.1c1 .4 2 .6 3.1.7-.4.4-.7.8-.8 1.3-.9-.2-1.9-.6-3-.9-1-.4-2-.9-2.8-1.6-.5.4-1.1.9-1.9 1.3s-1.9.9-3.3 1.2c-.1-.3-.5-.8-1.1-1.3 1 0 2.1-.3 3.2-.8 1.2-.5 1.9-1 2.3-1.7h-3.2c-.4 0-1 0-2 .1v-1.2c1 0 1.7.1 2 .1h3.3v-1h-2.3c-.2 0-.9 0-2 .1v-1.2c1.2 0 1.9.1 2 .1h2.3v-.8h-4.1c0-.7.1-1.2.1-1.6 0-.5 0-1.1-.1-1.8h4.1v-.7h-2.5c0-.6.1-1.1.1-1.6v-.6h-.5c-.4 0-1 0-1.8.1v-1.3c1.2 0 1.9.1 2.1.1h.2c0-.3 0-.8-.1-1.4h1.4c0 .6-.1 1-.1 1.4h3.4c0-.4 0-.8-.1-1.3h1.5c0 .4-.1.9-.1 1.3.7 0 1.5 0 2.5-.1v1.2c-1 0-1.8-.1-2.5-.1v.6c0 .3 0 .8.1 1.5h-2.5v.8h4.1c0 .7-.1 1.3-.1 1.8s0 1 .1 1.5h-4.1v.8h1.4c.8 0 1.8 0 2.9-.1v1.2c-1 0-1.9-.1-2.8-.1h-1.5v1h3.2c.3 0 1 0 2.1-.1v1.2c-1.1 0-1.8-.1-2.1-.1h-3.4l-.1.1c1.4 1 2.4 1.5 3.4 1.9zm-4.1-6.7v-1.3h-2.7v1.3zm2.2-4.1v-1.1h-3.4v1.1zm1.9 4.1v-1.3h-2.8v1.3z" fill="#fafafb"/><path d="m37 6.7v2.3 5.4c1 0 1.8 0 2.2-.1v1.3c-.6 0-1.5-.1-2.5-.1h-11.9c-.7 0-1.3 0-1.8.1v-1.3c.5 0 1.1.1 2 .1v-5.2c0-1 0-1.8-.1-2.5h3.7c0-1.3 0-2.1-.1-2.5h1.5c0 .4-.1 1.3-.1 2.5h2.2c0-1.2 0-2.1-.1-2.6h1.5c0 .4-.1 1.3-.1 2.6zm-12.3 13.7c-.3-.4-.7-.8-1.1-1.1 1.1-.4 2.1-.9 2.9-1.3.8-.5 1.5-1 2.1-1.6.4.4.9.8 1.3 1.1-2.5 1.4-4.2 2.4-5.2 2.9zm3.9-10.1v-2.4h-2.2v2.4zm0 4.1v-2.9h-2.2v2.9zm3.5-4.1v-2.4h-2.2v2.4zm0 4.1v-2.9h-2.2v2.9zm.4 2.9 1-1.1c.6.3 1.4.7 2.5 1.3s2 1.1 2.7 1.5c-.4.4-.8.8-1.1 1.3-.8-.8-2.5-1.7-5.1-3zm3.1-7v-2.4h-2.1v2.4zm0 4.1v-2.9h-2.1v2.9z" fill="#fafafb"/><g fill="#000001"><path d="m254.12 194.94c-2.86-2.3-6.34-5.17-7.92-9.92-.51-1.54-2.79-3.27-4.46-3.5-3.79-.52-7.78-1.95-11.47 1-1.42 1.13-3.4 1.01-4.83-.71-.74-.89-1.72-1.59-2.45-2.49-3.47-4.31-7.68-6.84-13.43-7.24-4.6-.32-6.35-2.78-6.62-7.21-.06-.93-.25-1.91-.65-2.74-2.67-5.5-5.35-11.01-8.17-16.44-1.67-3.21-.94-5.36 2.52-5.89 4.73-.73 7.3-4.14 9.45-7.74 3.2-5.36 5.78-11.09 8.98-16.44 1.16-1.94 3.32-3.31 5.1-4.86.54-.47 1.63-.53 1.88-1.06.59-1.27.84-2.7 1.22-4.07-1.13.12-2.26.21-3.38.38-.39.06-.75.32-1.43.63-.12-1.05-.12-1.96-.34-2.8-.75-2.79-1.7-5.54-2.34-8.36-.79-3.48-1.94-7.02-1.85-10.51.15-5.89 1.16-11.75 1.81-17.69 3.48-.24 5.35 1.32 6.53 3.71 1.96 3.99 3.83 8.02 5.58 12.11 2 4.69.43 9.4-.23 14.09-.13.94-.64 2.11-.27 2.78 2.02 3.64.49 7.26-.15 10.75-.27 1.48-2.04 3.21-3.54 3.83-3.23 1.32-4.61 3.53-5.49 6.75-.75 2.73-2.43 5.21-3.7 7.81-.81 1.65-2.09 3.25-2.31 4.98-.3 2.43-1.21 4.18-3.16 5.53-2.41 1.67-3.94 3.64-4.42 6.86-.42 2.78-2.37 5.34-3.75 8.22 1.89.93 3.68 1.78 5.44 2.7.83.43 1.99.81 2.33 1.53 2 4.22 6.14 5.17 9.84 6.93s7.19 3.94 10.89 5.7c1.27.6 3.12.09 4.28.79 7.2 4.34 15.2 5.24 23.31 6.42 7.15 1.04 14.23 1.9 21.46 1.74 4-.09 9.15 4.42 10.41 8.21.91 2.74 2.47 5.26 3.72 7.88 1.3 2.71 2.62 5.42 3.87 8.15.35.76.34 1.68.72 2.41 1.01 1.98 2.15 3.89 3.18 5.85.18.34.1.83.1 1.25.01 4.33 0 8.65 0 13.15-1.7.1-3.14.19-5.16.31 0 2.88.23 5.74-.09 8.52-.17 1.47-1.01 3.13-2.07 4.18-5.34 5.29-11.41 9.36-19.03 10.71-1.09.19-2.16.89-3.09 1.55-2.84 2.02-5.64 3.46-9.41 2.43-1.31-.36-3.81.45-4.49 1.53-4.67 7.39-12.52 9.38-19.88 12.1-2.91 1.08-4.37 2.58-4.23 5.66.13 2.63-.87 4.73-3.12 6.19-2.12 1.36-2.8 3.42-3.33 5.81-.39 1.76-1.51 3.7-2.91 4.83-2.78 2.25-5.98 3.98-8.99 5.96-.41.27-.67.77-1.17 1.38 2.42 1.02 4.73 2.83 6.84 2.61 1.81-.19 3.38-2.69 5.71-4.73-.76 3.33-1.31 6.04-2.02 8.7-.55 2.04-1.58 3.98-1.95 6.04-.93 5.25-4 7.55-9.2 7.34-.42-.02-.99-.06-1.24.17-1.12 1.1-2.15 2.29-3.21 3.44.86.75 1.6 1.77 2.59 2.2 5.38 2.32 7.39 8.53 3.57 12.53-1.25 1.31-3.82 1.36-6.27 2.15-.74 1.94 1.43 1.99 2.87 2.58 3.49 1.42 3.74 2.8.93 5.32 1.65 3.25-7.14 17.66-11.94 19.17.36-4.36 2.22-9.12-3.56-11.8 3.11-2.55 2.5-5.29 1.6-8.22-1.15-3.77-2.27-7.64 1.17-10.99.32-.31.4-.95.43-1.45.23-2.89.45-5.78.59-8.68.08-1.75-.05-3.52.04-5.27.05-1 .15-2.08.55-2.97 3.21-7.15 6.37-14.31 7.82-22.09.2-1.1.9-2.12 1.46-3.13 2.76-5.04 4.85-10.65 8.5-14.93 3.79-4.43 7.67-8.67 10.57-13.77.56-.99 1.84-1.69 2.93-2.26 8.07-4.22 16.29-8.16 24.23-12.62 5.31-2.98 10.86-4.47 16.82-5.13 1.98-.22 4.02-1.14 5.76-2.19 2.62-1.59 4.92-3.69 7.5-5.35 3.57-2.3 5.17-5.59 4.99-9.67-.13-2.94-.7-5.86-1.1-8.79-.13-.94-.68-1.96-.45-2.78 1.48-5.25-.95-9.08-4.11-12.87-2.71-3.25-4.88-6.94-7.64-10.14-2.84-3.29-6.36-4.81-10.74-2.54-1.77.92-3.85 1.23-5.64 2.12-2.54 1.25-4.92 2.77-7.69 4.37z"/><path d="m106.93 159.87c.27-.96.46-1.57.61-2.18 1.25-4.85 1.19-4.86-3.78-5.69-3.14-.52-6.02-1.62-6.97-5.12-.97-3.61.75-9.05 3.35-10.82.31-.21.8-.16.58-.12 2.07 3.36 3.71 6.65 5.98 9.43 1.11 1.36 3.41 1.73 5.1 2.66 1.1.61 2.09 1.43 3.47 2.4.56 0 1.81-.33 2.76.05 6.98 2.81 13.55.71 20.08-1.58 4.69-1.64 9.32-3.48 13.93-5.34 1.03-.42 2.13-1.1 2.76-1.98 2.71-3.76 5.54-7.48 7.77-11.52 2.2-3.98 2.85-8.39.85-12.8-1.04-2.29-.63-4.15 1.04-6.08 2.12-2.45 1.36-4.3-1.86-4.59-2.97-.26-4.85-2.01-7.08-3.68-7.26-5.45-14.78-10.82-23.97-12.24-3.68-.57-7.69.78-11.51 1.46-.74.13-1.46 1.13-1.94 1.88-1.65 2.59-3.3 5.19-4.76 7.89-2.5 4.63-5.35 8.79-10.38 11.14-2.59 1.21-3.98 3.47-2.87 6.56.07.2.21.43.16.61-1.08 4.21-2.02 8.46-3.41 12.57-.32.95-2.19 1.37-3.87 2.33-.63-7.46-3.3-14.34 1.06-21.05 1.02-1.58 1.69-3.42 2.3-5.22 1.7-4.95 4.57-8.81 8.94-11.88 2.08-1.46 3.57-4.2 4.57-6.67 1.68-4.16 4.84-5.21 8.76-5.28 1.69-.03 3.39.1 5.08.06 1.79-.04 3.82.31 5.34-.4 8.04-3.74 16.09-.72 23.04 1.82 6.34 2.32 13.04 6.69 16.01 14.06 1.27 3.14 2.75 6.19 3.89 9.37 2.16 6.01 1.41 11.88-1.38 17.53-1.16 2.36-2.4 4.68-3.57 6.95 1.03 1.25 2.25 2.24 2.81 3.52 1.35 3.08-1.78 7.62-5.47 7.42-4.62-.25-8.08 2.11-11.75 4.12-.85.47-1.6 1.41-2.03 2.31-1 2.09-2.32 3.22-4.81 3.43-1.09.1-2.27 1.64-2.98 2.79-.84 1.36-1.61 2.1-3.27 1.57-.9-.29-1.89-.27-2.82-.47-6.14-1.34-12.13-2.05-18.24.72-3.48 1.62-7.51 1.99-11.52.06z"/><path d="m257.91 150.32c-1.85 1.75-3.61 3.42-5.56 5.28-1.65-2.11-3.23-4.06-4.7-6.08-.39-.54-.7-1.36-.61-2 1.14-7.89 1.54-15.69.06-23.68-.7-3.77.42-8 1.27-11.91 1.29-5.97.8-11.53-1.05-17.4-1.03-3.25-.44-7.42.6-10.81 1.58-5.16 2.15-10.09 1.7-15.52-.6-7.12-.04-14.34.09-21.52.04-2.33.38-4.65.42-6.97.05-2.6 1.72-3.99 3.82-4.33 2.41-.39 2.99 1.55 3.31 3.66.56 3.66 1.51 7.25 2.09 10.91.22 1.38-.19 2.85-.19 4.28 0 1.23-.14 2.6.33 3.68 1.48 3.44.88 6.67-1.46 9.18-3.4 3.64-2.42 7.48-1.06 11.25.62 1.71.82 2.8.12 4.56-.64 1.62-.58 3.91.05 5.56 1.31 3.42.92 5.49-2.39 6.96-1.9.85-2.65 2.01-1.86 3.96.74 1.84 1.4 3.74 2.38 5.45 2.37 4.1 3.36 8.5 1.18 12.72-2.07 3.99-1.17 7.44.69 10.8 2.24 4.05 1.88 8.19.15 11.91-1.71 3.64-1 6.61.62 10.06z"/><path d="m287.32 128.51c1.42-.82 2.84-1.53 4.13-2.42 2.86-1.96 2.56-4.56.06-6.93-2.46-2.34-4.38-5.28-6.39-8.05-.41-.57-.57-1.77-.24-2.35 1.74-3.14.29-5.82-.68-8.75-.61-1.83-.62-4.06-.22-5.97 1.17-5.56 2.59-11.07 4.1-16.54.39-1.43 1.29-2.83 2.28-3.95 2.02-2.3 4.14-4.54 6.45-6.54 2.41-2.08 5.45-1.27 6.57 1.72.53 1.42.76 3.17.48 4.65-.93 4.88-2.1 9.72-3.29 14.55-.24.98-1.17 1.8-1.4 2.78-.49 2.05-1.1 4.19-.98 6.25.19 3.49-1.09 7.07 1.23 10.55.73 1.1-.72 3.79-1.4 5.67-.88 2.43-.58 4.55.34 6.99 2.85 7.58 4.61 15.41 3.77 23.6-.09.9-.71 1.89-1.39 2.53-.31.29-1.81.02-1.96-.35-.74-1.73-1.68-3.59-1.65-5.38.05-3.4-.74-5.56-3.79-6.3-3.2-.8-4.72-2.95-6.02-5.76z"/><path d="m192.01 176.05c2.11-1.26 3.95-2.51 5.93-3.45.64-.31 1.83-.05 2.49.37 4.64 2.95 6.02 8.26 3.53 13.1-1.75 3.4-1.21 5.65 1.87 7.9.6.44 1.16.93 1.78 1.34 3.06 2.02 4.54 4.38 2.8 8.22-1.57 3.47-1.19 6.89 1.4 10.05.72.88.48 2.6.58 3.94.14 1.86 0 3.75.3 5.58 1.87 11.33 1.86 11.29-4.86 20.37-4.01 5.42-9.86 7.43-16.04 8.8-.75.17-1.72-.63-2.59-.97.47-.83.73-1.93 1.43-2.45 7.36-5.46 11.79-12.27 11.05-21.88-.24-3.18-.84-6.61 1.62-9.42.17-.19.13-.61.11-.91-.59-6.13-.47-12.44-1.98-18.34-1.52-5.95-4.64-11.5-7.09-17.21-.66-1.56-1.42-3.08-2.33-5.04z"/><path d="m246.55 240.26c-.14-4.92-.33-9.84-.37-14.77-.01-.56.66-1.25 1.18-1.68 2.86-2.38 3.01-5.05.39-7.67-.82-.82-1.65-1.66-2.35-2.58-1.89-2.5-2.61-5-.1-7.66 1.22-1.3 2.02-2.99 3.23-4.31.51-.55 1.73-.97 2.37-.74.82.3 1.8 1.24 1.95 2.05.68 3.61 1.51 7.27 1.52 10.91.03 7.6-.11 15.24-.92 22.79-.18 1.63-3.51 2.92-5.38 4.36-.51-.23-1.02-.47-1.52-.7z"/><path d="m137.66 122.29c.32 2.66-1.15 4.36-3.33 4.74-2.37.42-4.9-.05-7.35-.13.1-1.56-.31-3.42.4-4.61 1.22-2.04 3.13-3.67 4.79-5.44 1.74-1.86 3.29-1.73 4.3.58.65 1.5.8 3.23 1.19 4.86z"/></g></svg>