<svg enable-background="new 0 0 400 400" viewBox="0 0 400 400" xmlns="http://www.w3.org/2000/svg"><path d="m6.8 9.5c.6.3 1.3.7 2.1 1.1-.4.4-.7.8-.9 1.2-.7-.4-1.3-.8-1.8-1.1s-1.1-.6-1.6-.8c.2-.4.5-.8.7-1.2.4.2.8.5 1.5.8zm.9 6.9c-.3.6-.5 1.1-.7 1.7s-.4 1.1-.6 1.7c-.6-.4-1.1-.7-1.6-1 .7-1 1.2-1.8 1.5-2.4.3-.5.6-1.1.8-1.7.3-.6.5-1.2.8-1.8.3.3.8.6 1.3.8-.7 1.3-1.2 2.2-1.5 2.7zm.1-11c.4.3 1 .7 1.7 1.1-.5.2-.8.6-1.1 1.1-.5-.6-1-1-1.4-1.2s-.9-.6-1.5-.8c.2-.4.5-.7.9-1.1.5.3.9.6 1.4.9zm10.5 13.1c1 .4 2 .6 3.1.7-.4.4-.7.8-.8 1.3-.9-.2-1.9-.6-3-.9-1-.4-2-.9-2.8-1.6-.5.4-1.1.9-1.9 1.3s-1.9.9-3.3 1.2c-.1-.3-.5-.8-1.1-1.3 1 0 2.1-.3 3.2-.8 1.2-.5 1.9-1 2.3-1.7h-3.2c-.4 0-1 0-2 .1v-1.2c1 0 1.7.1 2 .1h3.3v-1h-2.3c-.2 0-.9 0-2 .1v-1.2c1.2 0 1.9.1 2 .1h2.3v-.8h-4.1c0-.7.1-1.2.1-1.6 0-.5 0-1.1-.1-1.8h4.1v-.7h-2.5c0-.6.1-1.1.1-1.6v-.6h-.5c-.4 0-1 0-1.8.1v-1.3c1.2 0 1.9.1 2.1.1h.2c0-.3 0-.8-.1-1.4h1.4c0 .6-.1 1-.1 1.4h3.4c0-.4 0-.8-.1-1.3h1.5c0 .4-.1.9-.1 1.3.7 0 1.5 0 2.5-.1v1.2c-1 0-1.8-.1-2.5-.1v.6c0 .3 0 .8.1 1.5h-2.5v.8h4.1c0 .7-.1 1.3-.1 1.8s0 1 .1 1.5h-4.1v.8h1.4c.8 0 1.8 0 2.9-.1v1.2c-1 0-1.9-.1-2.8-.1h-1.5v1h3.2c.3 0 1 0 2.1-.1v1.2c-1.1 0-1.8-.1-2.1-.1h-3.4l-.1.1c1.4 1 2.4 1.5 3.4 1.9zm-4.1-6.7v-1.3h-2.7v1.3zm2.2-4.1v-1.1h-3.4v1.1zm1.9 4.1v-1.3h-2.8v1.3z" fill="#fafafb"/><path d="m37 6.7v2.3 5.4c1 0 1.8 0 2.2-.1v1.3c-.6 0-1.5-.1-2.5-.1h-11.9c-.7 0-1.3 0-1.8.1v-1.3c.5 0 1.1.1 2 .1v-5.2c0-1 0-1.8-.1-2.5h3.7c0-1.3 0-2.1-.1-2.5h1.5c0 .4-.1 1.3-.1 2.5h2.2c0-1.2 0-2.1-.1-2.6h1.5c0 .4-.1 1.3-.1 2.6zm-12.3 13.7c-.3-.4-.7-.8-1.1-1.1 1.1-.4 2.1-.9 2.9-1.3.8-.5 1.5-1 2.1-1.6.4.4.9.8 1.3 1.1-2.5 1.4-4.2 2.4-5.2 2.9zm3.9-10.1v-2.4h-2.2v2.4zm0 4.1v-2.9h-2.2v2.9zm3.5-4.1v-2.4h-2.2v2.4zm0 4.1v-2.9h-2.2v2.9zm.4 2.9 1-1.1c.6.3 1.4.7 2.5 1.3s2 1.1 2.7 1.5c-.4.4-.8.8-1.1 1.3-.8-.8-2.5-1.7-5.1-3zm3.1-7v-2.4h-2.1v2.4zm0 4.1v-2.9h-2.1v2.9z" fill="#fafafb"/><g fill="#000001"><path d="m301.04 73.49c-9.15.77-17.74 1.6-26.35 2.14-2.04.13-4.15-.7-6.21-1.16-4.15-.92-5.09-.43-6.97 3.32-7.44 14.86-14.74 29.8-22.52 44.48-2.23 4.21-3.03 7.87-.93 12.13.6 1.22.91 2.58 1.41 4.05 3.63 0 7.24.11 10.83-.08.92-.05 2.23-.85 2.63-1.66 5.09-10.35 12.6-19.03 19.46-28.14 1.11-1.47 3.16-2.23 5.11-3.54 1.85 5.77-.28 9.56-3.03 13.19-4.9 6.46-8.84 13.44-11.42 21.14-.37 1.1-.55 2.26-.83 3.39-.93 3.74-.24 6.7 3.27 9.02 1.65 1.09 2.86 3.06 3.86 4.85 6.93 12.41 8.21 25.99 7.35 39.77-.34 5.35-2.03 10.54-6.64 14.57-7.39 6.46-13.44 14.46-22.33 19.2-.62.33-1.47 1.41-1.32 1.82 1.23 3.4 1.25 7.25 4.49 9.89 4.93 4.01 9.66 8.29 14.3 12.63 2.05 1.92 3.68 4.29 5.57 6.4.59.66 1.36 1.53 2.11 1.61 3.06.31 5.02 2.15 6.65 4.42 4.9 6.77 9.65 13.66 14.6 20.4 2.62 3.57 5.68 6.83 8.27 10.42 1.69 2.35 2.99 5.01 4.24 7.64.28.6-.37 1.64-.6 2.48-.79-.28-1.83-.33-2.34-.88-10.68-11.62-21.29-23.31-31.92-34.97-9.21-10.1-18.39-20.24-27.69-30.26-1.67-1.8-3.88-3.1-5.83-4.63-.38.1-.77.21-1.15.31-.54 2.93-1.42 5.84-1.56 8.79-.48 9.72-.54 19.46-1.09 29.17-.37 6.57-.47 7.23 5.93 8.87 3.7.95 7.73.92 11.61.85 5.5-.11 10.47.69 14.36 5.34-3.07 2.37-6.43 2.37-9.8 2.12-5.28-.4-10.54-.93-15.82-1.38-3.24-.28-5.4 1.36-6.23 4.29-.97 3.44-1.66 6.99-2.1 10.54-.55 4.41-.82 8.87-.97 13.31-.03.95.79 2.56 1.54 2.79 2.59.77 5.38 1.64 8.01 1.44 7.17-.55 14.11.03 21.05 1.99 3.11.88 6.49.82 9.75 1.15 6.53.66 13.07 1.18 19.57 2.03 1.3.17 2.45 1.56 3.67 2.39-.91.98-1.67 2.55-2.77 2.83-2.5.66-5.19 1.07-7.76.91-9.19-.58-18.36-1.51-27.55-2.17-2.09-.15-4.25.09-6.33.43-7.13 1.16-14.12.28-21.14-1.01-9.38-1.72-18.97-1.32-28.39-2.73-3.45-.51-6.96-.71-10.44-1.05-.95-.09-2-.47-2.83-.2-6.6 2.09-12.72-1.56-19.18-1.52-4.35.02-5.51-1.44-5.84-5.53 8.31 0 16.57-.09 24.81.02 9.09.12 18.19.42 27.28.63 1.38.03 2.76.06 4.13-.04 5.26-.38 6.33-2.03 5.72-7.22-.68-5.87-.98-11.78-1.29-17.69-.19-3.65-1.75-5.52-5.39-5.58-5.4-.09-10.8.15-16.19-.09-2.72-.12-5.48-.75-8.06-1.62-1.16-.39-1.93-1.93-2.88-2.95.86-.76 1.6-1.89 2.6-2.23 6.79-2.26 13.77-2.15 20.73-1.05 6.66 1.05 8.86-.82 9.28-7.55.46-7.6 1.55-15.17 2.01-22.78.26-4.3-.11-8.65-.41-12.97-.06-.82-.96-2.03-1.71-2.24-.64-.18-1.85.62-2.4 1.31-9.08 11.46-18.04 23.02-27.17 34.45-3.22 4.04-6.41 8.26-10.35 11.51-3.04 2.51-7.16 3.77-10.92 5.3-.84.34-2.15-.47-3.24-.75.33-1.14.35-2.54 1.04-3.39 3.88-4.77 8.6-8.99 11.74-14.19 3.92-6.49 10.57-10.51 14.09-17.38 1.69-3.3 5.62-5.59 8.83-7.93 3.39-2.48 6.61-5 8.19-9.03 1.49-3.81.84-5.78-2.42-8.13-2.15-1.55-4.22-3.23-6.46-4.63-12.61-7.83-18.34-20.1-21.73-33.8-3.14-12.72-.48-24.68 5.84-35.8 2.48-4.36 5.93-8.12 11.06-10.03 4.23-1.58 4.76-5.71 1.97-9.27-2.14-2.73-4.15-5.66-5.64-8.78-3.15-6.59-5.96-13.34-8.82-20.06-.61-1.44-1.06-3.03-1.11-4.57-.03-.9.75-2.52 1.36-2.62 1.13-.18 2.93.13 3.52.92 5.74 7.75 11.33 15.61 16.83 23.53 1.31 1.89 2.13 4.13 3.13 6.23.5 1.05.67 2.35 1.39 3.19 1.81 2.1 3.63 4.34 5.9 5.83 1.18.77 7.84-4.9 8.56-6.77 1.88-4.91 1.4-9.83-.22-14.64-5.32-15.8-13.72-30.02-22.97-43.74-1.1-1.63-4.22-2.63-6.41-2.64-6.63-.04-13.06-.9-19.48-2.48-2.38-.58-5.04-.04-7.58 0-1.98.03-3.34-.61-3.22-2.9.11-2.08.91-2.99 3.29-3.13 5.67-.32 11.31-1.16 16.97-1.71 1.34-.13 2.72-.09 4.05.08 6.91.92 13.77 2.36 20.7 2.8 19.64 1.23 39.3 1.97 58.95 3.1 4.92.28 9.78 1.37 14.69 1.96 1.56.19 3.25.27 4.74-.13 4.4-1.13 7.44.99 10.91 4.05zm-109.85 96.86c-.24.05-.49.1-.73.14.63 2.88 1.22 5.77 1.89 8.64.43 1.82 1.47 2.98 3.53 2.9 3.52-.13 7.22-.97 10.52-.17 4.75 1.14 9.22.1 13.81-.06 2.02-.07 3.01-.87 3.68-2.68 3.98-10.78 2.94-21.9 2.02-32.95-.27-3.27-3.5-4.91-6.43-3.52-11.51 5.47-22.58 11.47-26.32 25.14-.25.97-1.29 1.72-1.97 2.56zm18.72 17.44c0-.03 0-.07 0-.1-3.17-.15-6.34-.4-9.51-.45-5.95-.09-8.47 2.72-7.5 8.52 1.1 6.64 4.35 12.34 8.44 17.54 5.08 6.46 11.9 9.48 20.08 9.72 2.02.06 3.08-.72 3.23-2.53.56-6.72 1.26-13.45 1.35-20.18.04-3.07-1.14-6.18-1.92-9.23-.5-1.96-1.95-2.83-4.01-2.87-3.4-.05-6.78-.26-10.16-.42zm28.83 37.69c7.35-1.44 13.84-3.71 17.36-10.95 1.05-2.17 2.47-4.25 4.08-6.04 3.44-3.79 4.77-8.22 5.41-13.2.39-3-.66-4.76-2.9-5.99-1.63-.9-3.52-1.45-5.37-1.8-3.95-.74-7.94-1.28-11.92-1.84-5.45-.77-9.5 2.92-9.54 8.34-.03 5.06-.38 10.12-.58 15.19-.21 5.68.69 11.11 3.46 16.29zm.73-80.1c-2.47 9.15-3.27 18.34-2.13 27.69.68 5.62 1.13 6.06 6.43 7.18 5.07 1.06 10.1 2.44 15.22 3.06 5.64.67 8-1.95 6.39-7.29-1.73-5.72-2.4-11.73-5.73-17.08-4.48-7.21-11.88-9.8-18.65-13.54-.24-.14-.62-.02-1.53-.02zm-23.08-70.35c-.17.44-.34.89-.51 1.33 2.26 4.02 4.64 7.98 6.75 12.08 3.14 6.1 5.98 12.37 9.18 18.44 1.63 3.09 4.97 3.05 6.6.01 1.34-2.5 2.32-5.2 3.42-7.83 2.48-5.93 5.09-11.81 7.29-17.84.48-1.31-.08-4.21-.94-4.58-3.58-1.55-7.63-3.73-11.17-3.23-5.17.72-10.19 1.14-15.37.72-1.71-.13-3.5.58-5.25.9z"/><path d="m177.38 202.11c-5.5-.62-9.68-1.62-12.61-6.12-4.09-6.27-8.73-12.2-13.27-18.16-.92-1.2-2.45-1.94-3.94-3.06-3.29 6.46-4.25 12.74-4.31 19.1-.21 19.82-.18 39.64-.26 59.45-.03 8.49-.36 16.94-3.23 25.06-.14.4-.39.85-.31 1.22 1.93 8.74-1.74 17.16-1.38 25.87.35 8.31-.02 16.56-2.32 24.83-1.69 6.09-1.11 12.83-1.44 19.29-.29 5.62-1.17 11.09-3.44 16.26-.32.05-.63.1-.95.14-.37-1.84-.99-3.66-1.07-5.51-.14-3.16.06-6.33.09-9.5.05-5.82.08-11.64.13-17.45.05-5.39.05-10.78.17-16.17.4-17.68.9-35.37 1.24-53.05.07-3.37-.28-6.77-.66-10.13-1.19-10.73 1.2-21.28 1.51-31.93.05-1.8.29-3.59.33-5.39.28-12.82.52-25.64.78-38.46.01-.72 0-1.45 0-2.11-5.29-1.79-6.18-1.67-9.16 2.55-5.79 8.2-12.52 15.38-20.68 21.32-2.46 1.79-3.99 4.85-6 7.29-1.89 2.3-3.86 4.51-7.15 4.69-1.12-2.87-1.78-5.46 1.56-7.41.97-.57 1.32-2.12 2.09-3.13 1.77-2.31 3.61-4.55 5.43-6.81.2-.24.56-.36.72-.62 4.79-7.93 13.2-12.55 18.35-20.24 2.09-3.12 5.63-5.32 8.66-7.76 3.63-2.93 5.41-6.55 5.53-11.25.18-7.2.65-14.4.98-21.6.05-1.16 0-2.33-.03-3.49-.11-4.64-1.35-7.98-6.65-9.55-5.63-1.67-10.1-5.62-13.65-10.47-5.26-7.17-10.75-14.18-15.91-21.42-2.68-3.77-2.8-6.29-1.3-11.45 2.25 1.6 4.7 2.68 6.18 4.53 5.49 6.86 10.58 14.05 15.99 20.98 3.48 4.45 7.69 8.11 13.13 10.33 4.39-6.71 4.78-13.85 4.16-21.28-.64-7.68-.89-15.4-1.52-23.08-.25-3.04-1.03-6.04-1.65-9.05-.09-.44-.55-.93-.96-1.15-3.63-1.96-7.2-4.05-10.96-5.7-1.58-.69-3.58-.43-5.39-.58-.52-.04-1.12.17-1.56-.02-4.87-2.02-9.85-1.62-14.96-1.26-3.02.21-6.48-.3-7.95-4.17 2.73-2.13 5.68-3.63 9.24-3.37 7.6.56 15.22.94 22.77 1.92 6.5.85 12.14 3.96 16.15 9.25 1.65 2.18 2.43 5.01 3.59 7.56 3.9 8.57 3.27 17.74 3.52 26.79.01.42-.02.89.14 1.26 2.43 5.55 2.44 11.19 1.04 17.02-.26 1.09.83 3.49 1.66 3.68 2.22.52 4.82.68 6.94 0 1.99-.64 3.62-2.49 5.33-3.91 6.28-5.21 12.52-10.46 18.79-15.67.46-.38 1.03-.63 1.54-.93.21.19.43.37.64.56-.73.96-1.25 2.35-2.22 2.8-3.63 1.71-6.06 4.4-7.84 7.92-2.4 4.75-5.89 8.67-10.66 11.03-10.92 5.41-15.26 14.31-14.72 26.11.1 2.11-.05 4.25-.34 6.35-1.17 8.48 1.77 16.07 4.98 23.6.28.65.84 1.22 1.39 1.69 10.47 8.82 16.92 20.81 25.7 31.96z"/><path d="m268.75 45.27c-8.94 3.11-17.55 4.04-26.55 1.96-5.1-1.18-10.44-1.84-15.52.65-.53.26-1.25.29-1.85.22-5.96-.77-11.9-1.6-17.86-2.39-3.44-.46-6.88-1.11-10.34-1.28-5.23-.24-5.24-.09-7.51-5.82 5.73-1.15 11.32-3.18 16.94-3.24 18.6-.21 36.87 3.31 55.22 5.84 2.8.38 5.66.87 7.47 4.06z"/><path d="m162.67 293.57c3.85 2.56 3.94 3.51.97 6.24-2.86 2.63-5.74 5.25-8.61 7.87-.32-.22-.64-.45-.96-.67 2.82-4.42 5.65-8.83 8.6-13.44z"/></g></svg>