<svg enable-background="new 0 0 400 400" viewBox="0 0 400 400" xmlns="http://www.w3.org/2000/svg"><path d="m6.8 9.5c.6.3 1.3.7 2.1 1.1-.4.4-.7.8-.9 1.2-.7-.4-1.3-.8-1.8-1.1s-1.1-.6-1.6-.8c.2-.4.5-.8.7-1.2.4.2.8.5 1.5.8zm.9 6.9c-.3.6-.5 1.1-.7 1.7s-.4 1.1-.6 1.7c-.6-.4-1.1-.7-1.6-1 .7-1 1.2-1.8 1.5-2.4.3-.5.6-1.1.8-1.7.3-.6.5-1.2.8-1.8.3.3.8.6 1.3.8-.7 1.3-1.2 2.2-1.5 2.7zm.1-11c.4.3 1 .7 1.7 1.1-.5.2-.8.6-1.1 1.1-.5-.6-1-1-1.4-1.2s-.9-.6-1.5-.8c.2-.4.5-.7.9-1.1.5.3.9.6 1.4.9zm10.5 13.1c1 .4 2 .6 3.1.7-.4.4-.7.8-.8 1.3-.9-.2-1.9-.6-3-.9-1-.4-2-.9-2.8-1.6-.5.4-1.1.9-1.9 1.3s-1.9.9-3.3 1.2c-.1-.3-.5-.8-1.1-1.3 1 0 2.1-.3 3.2-.8 1.2-.5 1.9-1 2.3-1.7h-3.2c-.4 0-1 0-2 .1v-1.2c1 0 1.7.1 2 .1h3.3v-1h-2.3c-.2 0-.9 0-2 .1v-1.2c1.2 0 1.9.1 2 .1h2.3v-.8h-4.1c0-.7.1-1.2.1-1.6 0-.5 0-1.1-.1-1.8h4.1v-.7h-2.5c0-.6.1-1.1.1-1.6v-.6h-.5c-.4 0-1 0-1.8.1v-1.3c1.2 0 1.9.1 2.1.1h.2c0-.3 0-.8-.1-1.4h1.4c0 .6-.1 1-.1 1.4h3.4c0-.4 0-.8-.1-1.3h1.5c0 .4-.1.9-.1 1.3.7 0 1.5 0 2.5-.1v1.2c-1 0-1.8-.1-2.5-.1v.6c0 .3 0 .8.1 1.5h-2.5v.8h4.1c0 .7-.1 1.3-.1 1.8s0 1 .1 1.5h-4.1v.8h1.4c.8 0 1.8 0 2.9-.1v1.2c-1 0-1.9-.1-2.8-.1h-1.5v1h3.2c.3 0 1 0 2.1-.1v1.2c-1.1 0-1.8-.1-2.1-.1h-3.4l-.1.1c1.4 1 2.4 1.5 3.4 1.9zm-4.1-6.7v-1.3h-2.7v1.3zm2.2-4.1v-1.1h-3.4v1.1zm1.9 4.1v-1.3h-2.8v1.3z" fill="#fafafb"/><path d="m37 6.7v2.3 5.4c1 0 1.8 0 2.2-.1v1.3c-.6 0-1.5-.1-2.5-.1h-11.9c-.7 0-1.3 0-1.8.1v-1.3c.5 0 1.1.1 2 .1v-5.2c0-1 0-1.8-.1-2.5h3.7c0-1.3 0-2.1-.1-2.5h1.5c0 .4-.1 1.3-.1 2.5h2.2c0-1.2 0-2.1-.1-2.6h1.5c0 .4-.1 1.3-.1 2.6zm-12.3 13.7c-.3-.4-.7-.8-1.1-1.1 1.1-.4 2.1-.9 2.9-1.3.8-.5 1.5-1 2.1-1.6.4.4.9.8 1.3 1.1-2.5 1.4-4.2 2.4-5.2 2.9zm3.9-10.1v-2.4h-2.2v2.4zm0 4.1v-2.9h-2.2v2.9zm3.5-4.1v-2.4h-2.2v2.4zm0 4.1v-2.9h-2.2v2.9zm.4 2.9 1-1.1c.6.3 1.4.7 2.5 1.3s2 1.1 2.7 1.5c-.4.4-.8.8-1.1 1.3-.8-.8-2.5-1.7-5.1-3zm3.1-7v-2.4h-2.1v2.4zm0 4.1v-2.9h-2.1v2.9z" fill="#fafafb"/><g fill="#000001"><path d="m171.11 329.38c-2.8-.62-4.79-1.9-4.6-5.06.02-.36-.28-.83-.57-1.11-5-5.1-5.38-11.43-4.82-18 .2-2.35-.33-4.32-2.05-6.05-.55-.56-1.03-1.77-.8-2.43 1.84-5.26 3.6-10.57 5.88-15.65 2.25-5.03 6.68-8.08 11.25-10.88 1.51-.93 3.1-1.95 4.21-3.29 3.31-3.97 2.91-6.84-1.07-9.98-.42-.33-.81-.69-1.26-.96-4.49-2.69-7.18-5.98-5.73-11.82.55-2.23-.87-4.92-1.25-7.42-.61-4.08-1.3-8.17-1.55-12.28-.08-1.43.7-3.29 1.71-4.34 4.42-4.57 9.31-8.7 13.57-13.41 5.73-6.31 11.09-12.97 16.51-19.56 1.47-1.78.96-6.14-.97-7.45-3.22-2.19-6.66-4.04-9.96-6.01 4.76-4.05 19.34-6.91 23.53-4.17 4.32-5.69 10.35-6.22 16.94-4.99 2.69.5 4.36-1.05 5.38-3.47 2-4.76 1.53-6.74-2.09-10.59-3.56-3.78-6.92-7.75-10.4-11.6-3.84-4.25-8.6-6.51-14.37-6.09-.98.07-2.51 1-2.74 1.83-2.42 8.59-8.41 14.44-14.72 20.2-2.6 2.37-4.45 5.56-6.78 8.25-.81.93-1.96 1.85-3.11 2.15-2.74.73-5.58 1.09-8.77 1.67.21-2.48.25-4.69.65-6.83.12-.67 1.11-1.43 1.86-1.69 3.44-1.19 6-3.35 7.02-6.82 1.57-5.35 4.91-9.32 9.26-12.47 4.31-3.13 6.21-7.37 7.29-12.43.75-3.54 2.3-6.96 3.85-10.27 3.16-6.73 4.99-13.73 4.54-21.17-.4-6.69-.52-6.69 4.72-11.77-.64-.87-1.29-1.78-1.96-2.67-1.41-1.9-1.58-3.77-1.08-6.21.59-2.88-.01-6-.02-9.02-.01-1.17-.22-2.63.36-3.46 1.31-1.85 1.09-3.46.72-5.57-.55-3.14-.46-6.45-.2-9.65.32-3.89 1.1-7.74 1.78-12.24 6.02 4.93 11.91 9.29 15.16 16.02.88 1.82.67 4.33.46 6.47-.38 3.79-1.14 7.54-1.75 11.3-.07.42-.36.93-.21 1.23 2.13 4.23-1.21 6.73-2.69 10.04-1.84 4.14-3.01 8.89-3.13 13.42-.19 7.38-.69 14.53-3.87 21.33-.4.86-.03 2.51.59 3.34 3.69 4.92 7.55 9.71 11.37 14.53.46.58.96 1.15 1.55 1.57 7.64 5.49 15.31 10.94 22.94 16.44 5.08 3.66 10.6 4.89 16.49 2.62 2.07-.79 3.72-2.63 5.59-3.96 6.63-4.7 9.97-11.32 12.16-19.01 1.18-4.14 3.69-8.06 6.26-11.59 2.52-3.45 3.59-6.98 3.75-11.14.09-2.22.72-4.63 1.83-6.54 4.91-8.47 9.07-17.17 11.09-26.86 1.05-5.05 4.27-7.64 7.59-7.12 2.63.4 4.47 3.73 4.27 8.61-.07 1.74-.81 3.65-1.78 5.13-1.68 2.56-3.68 4.93-5.73 7.22-2.14 2.39-3.46 4.95-3.44 8.25.01 1-.65 2.32-1.43 2.97-2.28 1.89-3.26 4.3-3.76 7.09-1.93 10.74-6.54 20.55-10.94 30.39-1.87 4.18-2.63 8.44-2.81 12.91-.1 2.54-.14 5.09-.4 7.62-.43 4.29-3.16 6.17-7.47 5.46-3.85-.63-7.71-1.19-11.58-1.67-2.03-.25-3.73.38-4.83 2.29-3.58 6.22-8.88 7.65-15.72 6.34-2.68-.52-5.9.26-8.53 1.32-3.72 1.5-7.26 2.74-11.33 1.82-.89-.2-2.39 0-2.87.6-2.9 3.63-7.24 4.6-11.09 6.51-1.32.66-2.25 2.17-3.27 3.37-.67.78-.98 2.01-1.77 2.52-7.89 5.01-12.54 12.61-17.09 20.46-2.13 3.66-5.44 6.63-8.2 9.94-.79.94-1.7 1.87-2.18 2.96-1.68 3.84-2.95 7.88-4.86 11.6-1.59 3.09-2.12 6.07-.53 9.08 3.55 6.73 7.3 13.35 11 19.99.24.43.67.91 1.12 1.06 4.73 1.54 9.46 3.09 14.25 4.42.71.2 1.95-.57 2.59-1.24 4.33-4.51 8.46-9.22 14.68-11.29.54-.18 1.31-.74 1.35-1.18.38-4.85 4.48-6.99 7.35-9.91 2.64-2.69 4.98-5.1 3.24-9.28-.4-.96-.23-2.41.2-3.42 1.26-2.98.45-5.14-1.48-7.68-3.49-4.59-5.15-10.1-6.44-15.58 3.18-2.33 5.85-2.51 8.44.55 1.14 1.35 2.75 2.31 4.2 3.39 4.78 3.55 7.88 7.94 7.34 14.24-.08.94-.11 1.95.14 2.85.9 3.2-.55 5.09-3.1 6.8-1.18.79-2.16 2.32-2.58 3.71-2.09 6.89-3.86 13.87-5.96 20.75-1.11 3.64.48 6.53 1.84 9.61.81 1.84 1.79 3.79 1.85 5.72.1 2.83.84 5.02 2.84 7.1 1.2 1.25 2.04 3.15 2.36 4.89 1.1 6.02 1.44 12.17 4.89 17.6.68 1.07.47 3.17-.08 4.49-1.84 4.44-.21 7.91 2.32 11.45 1.64 2.29 2.99 4.83 4.14 7.4.88 1.97-.06 3.34-2.17 4.09-4.76 1.68-8.95-.07-13.11-1.99-1.15-.53-2.2-1.26-3.24-1.87.03-5.91 1.94-10.55 8.18-12.41-1.23-1.92-2.62-3.3-3.04-4.93-.67-2.55-1.38-5.41-.85-7.88 1.26-5.82.98-10.83-3.87-15.02-1.35-1.16-2.54-2.99-2.91-4.71-1.41-6.45-6.04-9.69-11.47-12.2-5.37-2.49-11.16-3.04-16.8-1.74-8.95 2.07-17.78 4.68-26.59 7.29-1.2.36-2.37 1.89-2.94 3.15-2.31 5.09-4.4 10.27-6.52 15.44-.42 1.03-1.06 2.28-.82 3.23.75 2.96 1.19 5.77-.66 8.48-.16.23-.24.66-.14.91 2.8 7.01 3.92 14.58 11.32 19.43 9.62 6.3 19.47 6.95 30.09 4.57 1.96-.44 3.94-.82 5.92-1.16 5.11-.9 10.46 3.38 10.43 8.5 0 .75-1.03 1.71-1.81 2.2-8.41 5.33-17.64 7.13-27.4 5.73-6.38-.92-12.7-2.28-18.99-3.71-4.28-1.02-7.95-7.13-7.11-11.94z"/><path d="m57.36 345.2c3.28-6.79 6.66-12.21 11.88-16.25 5.34-4.14 11.4-7.54 16.02-12.34 5.99-6.24 13.13-11.78 16.12-20.51.39-1.15 1.58-2.22 2.67-2.9 3.55-2.22 5.69-5.22 5.05-9.48-.94-6.15 1.06-10.86 6.06-14.49 4.24-3.08 6.11-7.45 7.28-12.52.76-3.26 2.69-6.48 4.8-9.15 4.7-5.94 6.94-12.51 6.23-19.97-.37-3.94 1.1-6.42 4.64-7.88 2.64-1.09 3.66-2.92 2.5-5.7-1.97-4.73-.63-9.09 1.51-13.35.83-1.67.4-3.13.05-4.94-.89-4.62-1.23-9.42-1.13-14.13.19-8.77.83-17.4-2.42-25.99-1.66-4.41-1.25-9.6-1.75-14.45-.19-1.79-.47-3.6-.41-5.38.12-3.73-.74-6.82-4.28-8.78-.64-.35-1.04-1.54-1.13-2.38-.27-2.42-.38-4.86-.46-7.3-.09-2.84.25-5.69-3.17-7.24-.72-.33-.93-2.41-.89-3.68.06-1.94-.37-3.26-2.42-3.79-2.85-.73-4.22-2.61-4.76-5.54-1.15-6.32-3.77-12.06-7.37-17.41-2.54-3.79-2.39-6.13-.03-10.58 6.15 2.04 11.21 5.67 15.45 10.55.63.72 1.06 1.67 1.81 2.21 5.71 4.11 8.58 10.23 11.61 16.23.54 1.08.72 2.34 1.13 3.5.4 1.13.9 2.23 1.33 3.35.6 1.56 1.82 3.2 1.66 4.69-.58 5.53 1.25 10.55 3.34 15.32 4.14 9.46 4.42 19.56 5.52 29.49.43 3.81-1.19 7.85-1.83 11.79-.2 1.23-.66 2.62-.3 3.71 3.19 9.51 2.09 19.54 3.65 29.23.87 5.37-.6 9.93-2.64 14.87-2.31 5.59-3.02 11.85-4.36 17.84-1.13 5.06-2.11 10.16-3.27 15.21-.22.94-.79 2.28-1.51 2.52-2.85.96-3.68 3.28-4.46 5.72-2.91 9.04-6.92 17.49-13.1 24.82-.86 1.02-1.46 2.35-1.86 3.64-3.14 10.2-9.18 18.83-15.18 27.39-2.24 3.19-5.96 5.34-8.96 8.01-1.17 1.05-2.61 2.03-3.28 3.37-4.12 8.19-12.41 11.92-18.75 17.71-.83.76-2.38.71-3.59 1.07-3.62 1.1-7.21 2.33-10.87 3.28-1.73.42-3.57.36-6.13.61z"/><path d="m337.67 366.17c-6.45.13-12.08.21-17.19-2.93-6.23-3.82-12.38-7.76-18.66-11.49-1.86-1.11-2.91-2.38-2.68-4.54.67-6.21-3.96-9.99-6.68-14.64-.15-.25-.49-.57-.72-.56-4.39.22-4.27-3.08-4.28-5.84-.02-7.05-3.43-12.46-7.93-17.4-1.57-1.72-2.23-3.44-1.05-5.68 1.11-2.11.82-4.12-.29-6.3-2.53-4.99-4.77-10.13-7.22-15.42 2.83-1.07 2.73-2.53 1.2-4.83-1.1-1.65-1.54-3.87-1.83-5.9-.3-2.08-.24-4.25-.04-6.35 1.15-11.72-1.91-23.12-2.52-34.71-.08-1.49.63-3.01.77-4.53.15-1.73.54-3.64 0-5.19-1.57-4.48-1.76-8.81-.2-13.33 1.53-4.44 2.2-9.04 4.59-13.36 1.22-2.2-.66-6.46-1.83-9.53-.98-2.57-1.87-4.61.52-6.84 3.57-3.33 6.59-4.28 9.49-2.69 2.55 1.4 2.84 3.2 1.44 5.74-.6 1.09-.61 2.64-.51 3.96.19 2.55.97 5.09.91 7.62-.11 4.96-.5 9.92-1.01 14.85-.78 7.47-1.37 14.99-2.78 22.34-1.4 7.32-.97 14.34.41 21.58 1.87 9.74 2.8 19.65 4.69 29.38.64 3.28 2.93 6.25 4.51 9.35.76 1.5 1.6 2.96 2.48 4.6-.81.44-1.51.83-2.3 1.26 2.01 3.94 3.98 7.8 5.97 11.65.24.46.54 1.03.96 1.22 4.03 1.86 5.42 5.78 7.23 9.31 5.65 11.05 12 21.66 19.81 31.35.72.89 1.46 2.03 2.43 2.4 6.99 2.69 8.13 9.76 12.31 15.45z"/><path d="m171.95 110.83c-2.61-2.88-3.03-5.52-1.66-8.79 1.29-3.07 2.09-6.38 2.81-9.65.86-3.87 1.13-7.73 4.06-11.03 2.52-2.83 1.94-6.72 1.43-10.36-.72-5.22-1.24-10.46-1.9-15.69-.1-.78-.33-1.72-.84-2.23-3.32-3.3-4.04-7.39-3.39-11.72.2-1.32 1.23-2.95 2.36-3.56.85-.46 2.53.31 3.7.86.68.32 1.12 1.22 1.56 1.93 3.75 6.1 7.53 12.19 11.17 18.36.68 1.16 1.11 2.71 1.02 4.04-.29 4-.86 7.99-1.4 11.97-.12.91-.63 1.76-.85 2.66-.47 1.87-.94 3.75-1.3 5.65-.39 2.05-.05 4.51-1.08 6.13-4.23 6.67-8.83 13.1-13.36 19.57-.5.72-1.42 1.15-2.33 1.86z"/><path d="m253.92 49.45c-1.07 4.43-2.23 9.15-3.33 13.9-.2.88-.52 2.18-.09 2.68 3.24 3.7 2.42 8.26 2.51 12.46.08 3.85 1.45 6.83 3.46 9.91 1.19 1.83 1.87 4.19 2.12 6.39.37 3.27-2.1 5.07-5.18 3.95-2.18-.79-4.27-1.87-6.3-3-.61-.34-1.24-1.32-1.23-1.99.08-7.64-3.41-14.26-5.62-21.29-2.01-6.41-2.75-13.21-4.02-19.85-.12-.6-.25-1.55.07-1.83 2.76-2.43 5.39-5.15 8.54-6.96 2.67-1.56 9.09 2.59 9.07 5.63z"/></g></svg>