<svg enable-background="new 0 0 400 400" viewBox="0 0 400 400" xmlns="http://www.w3.org/2000/svg"><path d="m6.8 9.5c.6.3 1.3.7 2.1 1.1-.4.4-.7.8-.9 1.2-.7-.4-1.3-.8-1.8-1.1s-1.1-.6-1.6-.8c.2-.4.5-.8.7-1.2.4.2.8.5 1.5.8zm.9 6.9c-.3.6-.5 1.1-.7 1.7s-.4 1.1-.6 1.7c-.6-.4-1.1-.7-1.6-1 .7-1 1.2-1.8 1.5-2.4.3-.5.6-1.1.8-1.7.3-.6.5-1.2.8-1.8.3.3.8.6 1.3.8-.7 1.3-1.2 2.2-1.5 2.7zm.1-11c.4.3 1 .7 1.7 1.1-.5.2-.8.6-1.1 1.1-.5-.6-1-1-1.4-1.2s-.9-.6-1.5-.8c.2-.4.5-.7.9-1.1.5.3.9.6 1.4.9zm10.5 13.1c1 .4 2 .6 3.1.7-.4.4-.7.8-.8 1.3-.9-.2-1.9-.6-3-.9-1-.4-2-.9-2.8-1.6-.5.4-1.1.9-1.9 1.3s-1.9.9-3.3 1.2c-.1-.3-.5-.8-1.1-1.3 1 0 2.1-.3 3.2-.8 1.2-.5 1.9-1 2.3-1.7h-3.2c-.4 0-1 0-2 .1v-1.2c1 0 1.7.1 2 .1h3.3v-1h-2.3c-.2 0-.9 0-2 .1v-1.2c1.2 0 1.9.1 2 .1h2.3v-.8h-4.1c0-.7.1-1.2.1-1.6 0-.5 0-1.1-.1-1.8h4.1v-.7h-2.5c0-.6.1-1.1.1-1.6v-.6h-.5c-.4 0-1 0-1.8.1v-1.3c1.2 0 1.9.1 2.1.1h.2c0-.3 0-.8-.1-1.4h1.4c0 .6-.1 1-.1 1.4h3.4c0-.4 0-.8-.1-1.3h1.5c0 .4-.1.9-.1 1.3.7 0 1.5 0 2.5-.1v1.2c-1 0-1.8-.1-2.5-.1v.6c0 .3 0 .8.1 1.5h-2.5v.8h4.1c0 .7-.1 1.3-.1 1.8s0 1 .1 1.5h-4.1v.8h1.4c.8 0 1.8 0 2.9-.1v1.2c-1 0-1.9-.1-2.8-.1h-1.5v1h3.2c.3 0 1 0 2.1-.1v1.2c-1.1 0-1.8-.1-2.1-.1h-3.4l-.1.1c1.4 1 2.4 1.5 3.4 1.9zm-4.1-6.7v-1.3h-2.7v1.3zm2.2-4.1v-1.1h-3.4v1.1zm1.9 4.1v-1.3h-2.8v1.3z" fill="#fafafb"/><path d="m37 6.7v2.3 5.4c1 0 1.8 0 2.2-.1v1.3c-.6 0-1.5-.1-2.5-.1h-11.9c-.7 0-1.3 0-1.8.1v-1.3c.5 0 1.1.1 2 .1v-5.2c0-1 0-1.8-.1-2.5h3.7c0-1.3 0-2.1-.1-2.5h1.5c0 .4-.1 1.3-.1 2.5h2.2c0-1.2 0-2.1-.1-2.6h1.5c0 .4-.1 1.3-.1 2.6zm-12.3 13.7c-.3-.4-.7-.8-1.1-1.1 1.1-.4 2.1-.9 2.9-1.3.8-.5 1.5-1 2.1-1.6.4.4.9.8 1.3 1.1-2.5 1.4-4.2 2.4-5.2 2.9zm3.9-10.1v-2.4h-2.2v2.4zm0 4.1v-2.9h-2.2v2.9zm3.5-4.1v-2.4h-2.2v2.4zm0 4.1v-2.9h-2.2v2.9zm.4 2.9 1-1.1c.6.3 1.4.7 2.5 1.3s2 1.1 2.7 1.5c-.4.4-.8.8-1.1 1.3-.8-.8-2.5-1.7-5.1-3zm3.1-7v-2.4h-2.1v2.4zm0 4.1v-2.9h-2.1v2.9z" fill="#fafafb"/><g fill="#000001"><path d="m300.74 158.96c-6.19-4.67-5.74-10.44-3.05-16.61.46-1.06.64-2.24.99-3.35 1.58-5.01 1.62-9.68-2.28-13.88-5.44-5.85-6.65-13.55-8.7-20.85-1.14-4.08-2.13-8.2-3.38-12.24-.29-.95-1.27-2.29-2.05-2.38-4.83-.53-7.67-3.75-10.29-7.25-1.42-1.9-3.07-2.61-5.43-2.42-8.34.66-16.37-.63-24.33-3.36-3.37-1.15-7.31-.68-10.99-.83-2.65-.11-5.32-.2-7.95.03-2.76.24-4.59-.54-5.87-3.13-.46-.94-1.86-1.87-2.93-2-6.08-.74-9.96-4.9-13.89-8.86-.92-.93-1.43-2.9-1.21-4.24 1-6.16 2.17-12.31 3.66-18.38.35-1.42 2.02-2.74 3.41-3.56.52-.3 2.17.77 2.95 1.56 4.33 4.4 6.72 9.9 8.9 15.59 1.3 3.41 3.18 6.64 5.19 9.7.54.82 2.68 1.29 3.77.94 11.48-3.67 22.89-3.34 34.33.08 1.22.36 2.41.87 3.65 1.07 4.46.74 7.53 2.91 9.56 7.19.98 2.07 3.42 3.72 5.56 4.9 4.74 2.59 9.28 5.15 10.75 10.94.18.69 1.28 1.32 2.09 1.64 1.57.62 3.25.96 4.86 1.48 4.49 1.45 7.23 4.15 7.97 9.17.56 3.77 2.32 7.36 3.41 11.07.73 2.47 1.63 5 1.74 7.53.26 5.82.15 11.66.05 17.49-.05 2.63-.57 5.26-.63 7.89-.09 3.66.08 7.32.05 10.98-.02 2.17.24 4.5-.47 6.45-1.01 2.78-1.05 5.03 1 7.25 1.93 2.09 2.78 4.26.75 6.96-.64.85-.53 2.43-.44 3.65.36 4.97.89 9.9-1.85 14.53-.55.93-.35 2.48-.11 3.66.9 4.35 1.7 8.76 3.04 12.98 1.63 5.15 1.43 10.03-.09 15.18-.77 2.59-.51 5.57-.29 8.35.22 2.84.79 5.68 1.52 8.43 2.24 8.48 1.77 16.84.26 25.43-.89 5.07-.13 10.5.33 15.73.71 8.02 1.96 15.99 2.66 24.01.57 6.48 3.75 11.62 8.48 15.44 6.03 4.88 7.59 10.88 6.76 18.07-.21 1.82-.6 3.9-2.63 3.59-1.65-.25-3.65-1.62-4.48-3.07-1.11-1.94-1.45-4.42-1.76-6.71-.57-4.18-2.34-7.65-5.49-10.4-3.34-2.92-4.98-6.65-5.88-10.93-1.11-5.28-2.39-10.55-3.99-15.69-1.08-3.47-2.92-6.7-4.27-10.1-.67-1.69-1.42-3.53-1.36-5.28.15-4.44.86-8.86 1.07-13.3.05-1.12-.66-2.73-1.54-3.34-1.87-1.3-2.3-2.7-1.83-4.82.48-2.16.4-4.45.9-6.61.84-3.59-.26-6.76-1.99-9.67-3.28-5.52-3.86-11.22-2.03-17.3.94-3.14.72-6.23-.71-9.24-2.17-4.55-2.21-9.11-1.2-14.14.97-4.89.33-10.09.59-15.14.09-1.69.46-3.52 1.25-4.99 1.53-2.84 2.77-5.97 1.38-8.8-2.94-5.98-1.46-11.04 2.51-16.09z"/><path d="m100.27 269.78c-1.77 1.36-3.54 2.71-5.25 4.03 4.25 5.19 3.92 11.08-.57 15.49-5.86 5.76-9.52 12.9-13.04 20.16-2.78 5.73-7.17 9.64-13.41 11.28-.99.26-2.04.32-2.95.45-1.84-3.24-1.47-5.87.49-8.74 4.47-6.56 8.56-13.37 12.97-19.97 3.26-4.88 5.11-10.3 5.85-15.97 1.14-8.64 4.12-16.64 7.71-24.42 2.91-6.32 3.99-12.83 4.04-19.69.04-5.72.39-11.44.7-17.16.07-1.23.28-2.6.89-3.64 2.96-5.12 3.68-10.73 4.09-16.47.29-4.01.88-8.01 1.07-12.03.08-1.69-.52-3.41-.86-5.11-.31-1.54-.99-3.07-1-4.61-.06-6.76-.04-13.53.15-20.29.08-2.73.24-5.59 1.09-8.14 1.63-4.91 1.43-9.75.76-14.73-.94-6.93 2.08-13.28 3.2-19.9.12-.71.99-1.33 1.59-1.91 2.06-1.98 4.07-4.04 6.27-5.86 4.62-3.83 8.57-8.01 10.16-14.11 1.01-3.86 3.95-6.52 7.39-8.37 1.38-.74 3.14-1 4.74-1.08 2.1-.1 4.21.21 6.01.32 4.31-7.39 10.57-11.19 18.66-11.89 4.85-.42 9.82.08 14.58-.73 4.28-.72 8.44-2.44 12.49-4.13 2.49-1.04 5.31-.22 6.07 2.46 1.82 6.39 3.53 7.84 10.46 8.52 2.88.28 4.73 1.58 5.36 4.5.36 1.66-.21 2.8-1.86 3-1.54.2-3.28.45-4.66-.05-4.25-1.54-9.02-2.35-10.9-7.62-.5-1.4-2.57-2.24-3.98-3.39-1.57 2.17-2.73 4.05-4.16 5.7-2.18 2.53-4.99 3.18-8.05 1.84-3.41-1.49-6.24-2.09-9.13 1.45-1.32 1.63-4.21 2.4-6.5 2.73-6 .86-11.38 2.57-16.01 6.85-4.42 4.09-9.49 7.47-14.1 11.37-1.26 1.06-2.34 2.74-2.76 4.33-2.21 8.5-4.34 17.03-6.14 25.63-.68 3.25-.61 6.71-.44 10.05.11 2.14-.06 3.77-2.15 4.68-3.76 1.64-4.73 4.38-4.12 8.38 1.7 11.24-2.29 21.76-4.63 32.47-.78 3.58-.87 6.97-.36 10.63.82 5.93.91 11.97 1.19 17.97.05 1-.41 2.07-.79 3.04-.93 2.36-1.91 4.71-2.94 7.03-3.62 8.15-5.95 16.51-4.55 25.56.81 5.19-.13 10.02-2.94 14.57-.82 1.32-.64 3.25-.93 4.9.39.23.79.43 1.2.62z"/><path d="m200.88 340.96c-1.08-.1-1.32-.07-1.5-.15-7.16-3.11-6.58-1.34-5.3-8.87 1.07-6.26 2.44-12.47 3.78-18.68.21-.95.86-1.91 1.55-2.64 4.73-4.97 6.29-10.66 4.11-17.26-1-3.01-1.89-6.07-3.13-8.99-.6-1.41-1.88-2.53-3.29-4.33-1.48 2.83-2.57 4.93-3.85 7.37-4.51-6.62-8.91-12.92-13.11-19.36-.75-1.15-.7-2.83-.94-4.28-.53-3.21-2.69-4.56-5.84-3.91-4.37.9-7.95 2.85-11.17 6.08-6.65 6.69-13.81 12.87-20.46 19.55-2.62 2.63-5.27 3.61-9.19 2.72 1.23-4.01 1.34-8.07 5.5-11.02 13.17-9.33 23.39-21.7 34.1-33.62 9.84-10.94 20.54-21.1 30.86-31.61 1.19-1.21 2.47-2.36 3.49-3.7 2-2.65 4.44-4.06 7.87-3.74 1.09.1 2.3-.36 3.37-.77 4.04-1.56 6.48-.62 8.33 3.38.44.95.69 2 1.01 3.01 1.01 3.15 2.67 5.63 5.99 6.9 3.06 1.17 5.88 2.94 8.94 4.1 3.98 1.5 7.05 4.09 8.92 7.73 2.83 5.52 5.65 11.12 7.59 16.98 1.67 5.04.22 9.87-3.35 14.19-7.51 9.08-14.99 18.11-24.71 25.02-1.74 1.24-2.83 3.62-3.8 5.68-1.24 2.63-3.07 3.49-5.84 3.22-4.57-.44-6.47.7-7.25 5.06-1.74 9.76-5.83 18.48-10.84 26.91-.79 1.34-.49 3.32-.69 5.01-.38 3.28-.75 6.56-1.15 10.02zm41.21-90.87c-1.29-10.79-5.16-20.09-14.07-26.03-11.24-7.48-10.94-7.97-21.22-.13-2.28 1.74-5.52 2.19-8.29 3.32-1.09.44-2.49.84-3.06 1.71-3.72 5.64-7.21 11.43-10.85 17.13-1.07 1.68-.86 2.89.38 4.46 6.9 8.73 13.67 17.56 20.49 26.36 4.83 6.23 5.67 6.44 13.1 3.27.39-.17.8-.3 1.17-.5 9.08-4.97 17.63-10.39 19.38-21.89.15-1 .91-1.9 1.28-2.88.6-1.59 1.12-3.21 1.69-4.82z"/><path d="m182.35 133.65c4.91 3.32 9.78 6.7 14.73 9.94 4.05 2.65 5.73 6.43 5.54 11.09-.17 4.11-.83 8-2.71 11.91-1.41 2.92-1.03 6.75-1.22 10.18-.11 1.99.37 4.01.34 6.02-.04 3.25-2.43 5.46-5.39 4.45-4.56-1.55-7.67-.23-10.38 3.45-.96 1.31-2.52 2.21-3.89 3.18-10.46 7.38-20.96 14.71-31.42 22.09-3.16 2.23-5.8 5.32-10.18 5.36-2.27.02-2.99-.65-3.17-3.05-.3-4.06 1.08-6.85 4.08-9.59 4.42-4.04 8.67-8.04 14.78-9.37.89-.19 1.67-1.14 2.4-1.83 1.86-1.77 3.46-3.9 5.55-5.35 3.83-2.65 8.1-4.66 11.87-7.37 4.82-3.46 10.09-5.29 15.92-5.5 2.45-.09 3.33-1.37 4.28-3.39 2.92-6.22 3.42-11.52-2.69-16.57-2.95-2.44-4.56-6.55-6.59-10.02-3.42-5.86-9.58-8.8-16.15-7.34-1.02.23-2.04 1.05-2.78 1.85-2.75 2.94-5.38 6-8.08 8.99-3.12 3.47-6.96 5.72-11.84 6.95-.25-3.44-.63-6.56-.61-9.68.01-.93 1.01-1.97 1.75-2.77 8-8.69 17.51-15.23 28.35-19.92 1.53-.66 3.14-1.99 3.89-3.44 2.75-5.31 6.9-8.89 12.17-11.54 3.97-1.99 7.76-4.36 11.51-6.74 1.63-1.04 2.86-.86 3.68.67 1.61 3.01 3.01 6.14 4.53 9.3-21.97 7.36-26.86 10.53-28.27 18.04z"/><path d="m214.21 94.18c5.76.57 9.03 3.22 10.06 8.57 1.13 5.9 4.04 10.24 10.26 12.02 13.88 3.96 20.62 15.45 27.47 26.68 2.32 3.8.55 7.58-1.33 11.04-.95 1.75-2.59 3.12-3.54 4.88-4.22 7.84-10.19 12.45-19.59 11.53-1.32-.13-2.89.57-4.09 1.31-3.33 2.06-6.7 4.12-9.72 6.59-2.88 2.36-5.83 2.75-9.18 1.68-1.31-.42-2.62-.84-3.89-1.36-3.94-1.61-5.01-3.87-3.39-7.8.34-.83 1.66-1.41 2.64-1.79 6.41-2.48 13.05-4.44 19.2-7.44 3.86-1.89 7.35-4.93 10.35-8.08 6.01-6.32 4.31-13.88 2.3-21.24-.2-.74-1.26-1.34-2.04-1.81-5.62-3.39-11.43-6.49-16.84-10.19-2.99-2.05-5.48-4.93-7.9-7.7-1.91-2.19-2.78-4.78-1.97-7.93.72-2.83.8-5.83 1.2-8.96z"/><path d="m202.6 350.48c.34-.42.6-.64.72-.92 2.5-5.88 7.28-6.32 12.65-5.26 11.09 2.2 22.17 4.48 33.27 6.63 5.18 1.01 8.1 3.66 7.2 10.13-3.83.24-8.02.92-12.15.66-5.95-.36-11.77-.74-17.59 1.15-1.15.37-2.9-.98-4.33-1.63-1.25-.57-2.75-2.07-3.61-1.75-2.06.77-4.41 1.86-4.27 4.84.02.51-.14 1.02-.24 1.62-6.4-.31-12.68-.62-19.52-.95 0-3.08-.33-6.05.09-8.9.44-3.01-.73-4.63-3.25-5.72-.58-.25-1.16-.51-1.76-.73-4.61-1.75-4.79-1.83-6.82 2.6-1.27 2.76-3.17 4.31-5.9 3.28-4.24-1.61-7.11.44-10.07 2.76-.74.59-1.43 1.24-2.33 2.02 4.33 4.84 10.5 3.95 16.65 5.61-7.94 1.95-15 1.63-21.51-1.7-4.96-2.53-10.14-3.37-15.44-4.39-3.83-.74-7.47-2.46-11.09-4.21 5.13-4.07 10.97-5.06 16.79-5.76 6.09-.73 12.24-1.26 18.36-1.37 3.62-.06 7.25.95 10.9 1.27 1.17.1 2.64-.1 3.55-.76 2.46-1.78 4.58-5.26 7.05-5.47 2.51-.21 5.28 2.67 7.94 4.2 1.47.86 2.93 1.71 4.71 2.75z"/></g></svg>