<svg enable-background="new 0 0 400 400" viewBox="0 0 400 400" xmlns="http://www.w3.org/2000/svg"><path d="m6.8 9.5c.6.3 1.3.7 2.1 1.1-.4.4-.7.8-.9 1.2-.7-.4-1.3-.8-1.8-1.1s-1.1-.6-1.6-.8c.2-.4.5-.8.7-1.2.4.2.8.5 1.5.8zm.9 6.9c-.3.6-.5 1.1-.7 1.7s-.4 1.1-.6 1.7c-.6-.4-1.1-.7-1.6-1 .7-1 1.2-1.8 1.5-2.4.3-.5.6-1.1.8-1.7.3-.6.5-1.2.8-1.8.3.3.8.6 1.3.8-.7 1.3-1.2 2.2-1.5 2.7zm.1-11c.4.3 1 .7 1.7 1.1-.5.2-.8.6-1.1 1.1-.5-.6-1-1-1.4-1.2s-.9-.6-1.5-.8c.2-.4.5-.7.9-1.1.5.3.9.6 1.4.9zm10.5 13.1c1 .4 2 .6 3.1.7-.4.4-.7.8-.8 1.3-.9-.2-1.9-.6-3-.9-1-.4-2-.9-2.8-1.6-.5.4-1.1.9-1.9 1.3s-1.9.9-3.3 1.2c-.1-.3-.5-.8-1.1-1.3 1 0 2.1-.3 3.2-.8 1.2-.5 1.9-1 2.3-1.7h-3.2c-.4 0-1 0-2 .1v-1.2c1 0 1.7.1 2 .1h3.3v-1h-2.3c-.2 0-.9 0-2 .1v-1.2c1.2 0 1.9.1 2 .1h2.3v-.8h-4.1c0-.7.1-1.2.1-1.6 0-.5 0-1.1-.1-1.8h4.1v-.7h-2.5c0-.6.1-1.1.1-1.6v-.6h-.5c-.4 0-1 0-1.8.1v-1.3c1.2 0 1.9.1 2.1.1h.2c0-.3 0-.8-.1-1.4h1.4c0 .6-.1 1-.1 1.4h3.4c0-.4 0-.8-.1-1.3h1.5c0 .4-.1.9-.1 1.3.7 0 1.5 0 2.5-.1v1.2c-1 0-1.8-.1-2.5-.1v.6c0 .3 0 .8.1 1.5h-2.5v.8h4.1c0 .7-.1 1.3-.1 1.8s0 1 .1 1.5h-4.1v.8h1.4c.8 0 1.8 0 2.9-.1v1.2c-1 0-1.9-.1-2.8-.1h-1.5v1h3.2c.3 0 1 0 2.1-.1v1.2c-1.1 0-1.8-.1-2.1-.1h-3.4l-.1.1c1.4 1 2.4 1.5 3.4 1.9zm-4.1-6.7v-1.3h-2.7v1.3zm2.2-4.1v-1.1h-3.4v1.1zm1.9 4.1v-1.3h-2.8v1.3z" fill="#fafafb"/><path d="m37 6.7v2.3 5.4c1 0 1.8 0 2.2-.1v1.3c-.6 0-1.5-.1-2.5-.1h-11.9c-.7 0-1.3 0-1.8.1v-1.3c.5 0 1.1.1 2 .1v-5.2c0-1 0-1.8-.1-2.5h3.7c0-1.3 0-2.1-.1-2.5h1.5c0 .4-.1 1.3-.1 2.5h2.2c0-1.2 0-2.1-.1-2.6h1.5c0 .4-.1 1.3-.1 2.6zm-12.3 13.7c-.3-.4-.7-.8-1.1-1.1 1.1-.4 2.1-.9 2.9-1.3.8-.5 1.5-1 2.1-1.6.4.4.9.8 1.3 1.1-2.5 1.4-4.2 2.4-5.2 2.9zm3.9-10.1v-2.4h-2.2v2.4zm0 4.1v-2.9h-2.2v2.9zm3.5-4.1v-2.4h-2.2v2.4zm0 4.1v-2.9h-2.2v2.9zm.4 2.9 1-1.1c.6.3 1.4.7 2.5 1.3s2 1.1 2.7 1.5c-.4.4-.8.8-1.1 1.3-.8-.8-2.5-1.7-5.1-3zm3.1-7v-2.4h-2.1v2.4zm0 4.1v-2.9h-2.1v2.9z" fill="#fafafb"/><g fill="#000001"><path d="m123.1 234.29c-1.14-5.33-2.27-10.65-3.44-15.97-.43-1.96-.76-3.98-1.53-5.81-1.83-4.35-4.28-7.91-9.85-7.99-2.92-.04-5.85-.93-8.71-1.68-.99-.26-2.16-1.06-2.62-1.94-2.14-4.08-2.07-4.12-7.14-3.8.34 5.69-.44 11.05-8.09 13.22 2.45 3.2 4.34 5.68 6.26 8.18-2.25 2.34-7.89-.85-8.55 5.45 1.89.82 3.98 2.08 6.24 2.64 5.33 1.31 6.47.26 6.22-5.33.45-.12.93-.32 1.42-.36.51-.04 1.04.07 1.83.13-.03 3.42 2.11 5.02 5.03 5.61-.45 3.86-.86 7.48-1.34 11.59-.57 0-2.17.43-2.55-.08-1.5-1.97-3.35-1.65-5.38-1.71-1.26-.04-2.86-.81-3.66-1.78-1.75-2.12-3.73-2.76-6.41-2.62-1.76.09-3.56-.65-5.63-1.08-.01.02-.21.63-.12.35-.57-2.22-1.33-5.18-2.1-8.14-.44.06-.87.11-1.31.17-.22 4.03-.44 8.07-.67 12.1-.11 0-.21 0-.32 0 0-5.21-.04-10.42.06-15.62.01-.57.81-1.39 1.42-1.62 1.05-.4 2.24-.42 3.4-.6.13.49.27.97.42 1.51.15-.16.31-.26.33-.39 1.44-9.21 2.93-18.41 4.24-27.64.19-1.35.18-2.67.5-4.06.3-1.28-.65-2.86-1.12-4.54 2.34-.51 2.48-2.93 2.76-5.29.15-1.26.16-2.6.62-3.75 1.82-4.53-.61-8.54-1.35-12.77-.79-4.53-.72-4.54 4.07-6.47-.5 3.7-.98 7.21-1.52 11.23 4.08 0 7.97.11 11.83-.13.53-.03 1.47-1.95 1.32-2.83-.69-3.92-3.56-6.11-6.95-7.66-1.24-.57-2.61-.86-4.31-1.4.29-2.33.54-4.82.91-7.28.71-4.78 1.72-9.54 2.17-14.35.34-3.6.61-6.81 5.26-7.1-1.23 0-2.47 0-4.1 0 .58-4.1 1.14-8.03 1.72-12.11 1.46.17 2.8.32 4.15.48.07-.29.15-.58.22-.87-1.2-.42-2.4-.85-3.98-1.4.72-5.25 1.46-10.6 2.27-16.5-3.07 1.75-4 5.91-8.34 4.98 2.87-2.19 5.49-4.16 8.06-6.19.35-.28.65-.79.72-1.24.9-5.63 1.75-11.28 2.68-17.37-2.05.27-3.76.5-5.9.79.23-2.87.45-5.66.67-8.49 2.09.49 3.99.93 6.08 1.42 1.74-11.26 3.41-22.12 5.03-32.57 4.45.25 8.73.26 12.92.83 2.25.31 4.37 1.58 6.62 2.96-7.83.35-6.36 6.56-8 11.77 1.61-.55 2.86-.65 3.65-1.3 4.36-3.62 9.37-6.65 11.45-12.43.24-.67 1.58-1.36 2.4-1.34 5.72.16 11.44.41 17.14.85 1.21.09 2.53.89 3.48 1.72 2.65 2.35 5.66 3.35 9.09 2.76 1.02-.18 2.2-.86 2.81-1.68 2.31-3.1 5.16-3.53 8.26-1.15 1.16.89 2.57 1.45 3.8 2.25 1.16.75 2.23 1.63 3.62 2.65-2.22.88-3.83 1.51-6.13 2.42 4.49 3.54 8.31 5.95 13.4 4.37 2.73-.85 3.62-4.5 1.53-6.48-2.27-2.15-4.65-4.18-6.95-6.24 10.34 0 20.47-.05 30.6.09.74.01 1.45 1.38 2.19 2.11.75.74 1.5 2.05 2.28 2.07 1.02.03 2.38-.71 3.05-1.55 2.61-3.3 3.29-3.42 6.11-.45 2.49 2.63 9.13 2.58 12.07.3 1.03-.79 2.92-.83 4.35-.65 1.53.19 2.97 1.47 4.46 1.5 1.85.03 4.05-.27 5.5-1.28 2.03-1.41 3.9-2.17 6.38-1.99 4.22.3 8.49.61 12.7.35 3.25-.2 4.37 1.14 4.54 4.01.05.83.2 1.65.33 2.73-1.89.25-3.63.48-5.6.75.06-2.92-.73-4.8-3.99-4.96-2.06-.1-3.18.18-3.57 2.38-.44 2.51-2.13 3.52-4.64 3.14-4.28-.64-5.06-.02-5.38 4.26-.05.62-.01 1.24-.01 2.2 6.58.82 13.08.92 19.16-1.32 4.71-1.73 8.96-4.69 13.4-7.14 3.89-2.15 7.63-4.6 11.63-6.5 5.33-2.53 10.23-2.13 15.36.74-2.29 6.16 1.12 10.94 4.15 15.78 1.06 1.7 2.37 3.26 3.59 4.86 1.64 2.16 3.81 4.14 1.16 7.12-.36.41.27 2.24.94 2.93 2.56 2.65 3.13 5.62 2.83 9.25-.41 5.05-.1 10.15-.1 14.97-1.61.48-2.43.72-3.25.97.27.73.34 1.64.84 2.15 2.39 2.47 3.14 5.39 2.99 8.73-.2 4.27.66 8.79-3.63 11.83-.92.65-1.55 1.72-2.61 2.94 4.39 4.17 3 8.9 1.36 13.79-.49 1.47-.2 3.32.09 4.93.57 3.22 1.39 6.4 2.17 9.85-1.25.7-2.5 1.41-4.04 2.28 2.34 2.36 3 5.03 2.09 8.13-.19.64.27 1.7.77 2.29 1.89 2.23 1.68 4.76 1.7 7.46.04 4.27.7 8.53 1.14 13.16.23-.24.09.04-.06.04-4.32.21-7.07 2.02-7.49 6.71-.08.94-1.25 1.78-1.48 2.08-3.28-2.84-6.37-5.51-9.46-8.18-.33.2-.65.4-.98.61-.21 3.53-.5 7.07-.56 10.6-.01.68.84 1.85 1.44 1.96 1.93.36 3.94.39 5.92.42 3.33.06 6.65.02 9.98.27-5.14 1.47-7.1 4.73-5.49 9.78.3.94 1.42 1.75 2.34 2.32 6.6 4.12 6.87 6.91.78 11.95 1.23 1.38 2.46 2.76 3.86 4.34-3.23.68-6.04 1.52-6.83 5.15 2.18.85 4.05 3.45 6.87.44v5.27c-2.72 0-5.85.74-8.36-.18-3.34-1.23-5.74-.44-8.23 1.37-1.68 1.22-3.27 2.57-5.13 4.04 3.76 1.99 6.77 1.88 9.92-1.17 0 3.19.79 6.7-.31 9.44-.61 1.52-4.4 1.76-6.76 2.58.01-.71-.27-1.63.08-2.07.6-.78 1.58-1.26 2.79-2.15-1.62-.22-2.81-.17-3.81-.58-.88-.36-1.54-1.25-2.34-1.85-1.04-.77-2.05-1.72-3.23-2.07-.46-.13-1.55 1.06-1.99 1.85-1.13 2.03-2.06 4.17-3.05 6.28-.13.27-.13.61-.22 1.12 4.27 2.01 8.56 4.03 13.75 6.48-2.97.51-4.8 1.39-7.15-.07-1.48-.92-3.63-.81-5.5-1.06-1.76-.23-3.53-.32-5.57-.5 3.17-3.3 4.22-10.48 2.01-14.17-.41-.69-2.45-1.1-3.28-.69-1.88.91-3.47 2.4-5.43 3.85-4.57-4.92-2.93-10.34-1.79-15.67 2.17-.85 3.42-.24 4.16 1.74.48 1.28 1.17 2.49 1.79 3.72 2.28 4.52 8.63 4.75 11.9.17-1.98-1-3.92-1.98-5.94-3 2.77-2.44 8.21-.9 8.78-6.61-6.73-.63-14.46 2.01-19.23-5.65-2.81 2.31-5.46 4.12-7.57 6.41-.75.81-.62 2.96-.17 4.24.84 2.38.16 3.61-1.86 4.93-1.08.71-1.8 2.35-2.15 3.71-.47 1.81-.43 3.75-.54 4.87-2 .32-4.65.15-4.95.91-.81 2.04-.61 4.48-.82 6.76 1.46.04 2.93.08 4.39.12.07-.44.13-.89.2-1.33 3.41 4.3 8.19 3.5 12.98 3.74.24 3.66.32 7.23.77 10.76.18 1.41.84 3.05 1.84 4.01 1.69 1.62 3.03 3.23 2.96 5.65-.13 4.35 3.64 6.45 5.85 10.05-3.3.62-6.34 1.58-9.39 1.62-1.68.02-3.66-1.21-4.96-2.45-.59-.56-.15-2.6.29-3.79 1.35-3.64.69-7.03-.67-10.47-1.23-3.12-2.58-6.28-.4-9.64-8.84-.56-11.53.85-14.18 7.42h6.01c.82 6.85 1.62 13.53 2.42 20.23 3.1.24 5.94.45 8.78.68 3.23.26 5.23 2.38 6.05 5.43.64 2.37 1.97 4.54 2.99 6.81.36-.07.71-.14 1.07-.21-1.02 1.15-2.03 2.3-3.03 3.43 2.91 3.39 7.09 2.88 9.26-.68.74-1.21 2.45-2.01 3.89-2.48.33-.11 1.5 1.81 2.02 2.93.71 1.52.93 3.31 1.81 4.71 1.38 2.2 3.45 3.38 6.17 2.5 2.71 3.7 3.2 10.38 10.75 6.78.09 5.78.52 10.99-.83 16.15-.91-3.51-.47-7.35-4.25-9.44-4.59 4.15-5.09 5.77-2.47 10.4-2.03 0-3.64-.12-5.23.04-1.16.12-2.27.62-3.41.95.4 1.14.56 2.45 1.26 3.36.67.87 2.06 1.15 2.84 1.96.71.74 1.04 1.85 1.54 2.8-1.02.42-2.03.88-3.07 1.24-.25.09-.69-.04-.9-.23-4.28-4.02-7.2-.95-10.03 1.99-3.49 3.63-7.3 6.26-12.7 5.62-4.83-.57-8.8 1.31-12.32 4.55-1.86 1.71-4.04 3.07-5.56 4.21-2.54-.77-4.58-1.39-7.04-2.14-.41-2.01-.18-4.02 2.11-5.84 3.96-3.13 6.97-15 5.01-19.55-.45-1.05-2.05-2.27-3.09-2.24-1.61.05-3.48.78-4.7 1.84-1.1.96-1.54 2.73-2.13 4.2-1.11 2.77-6.54 5.71-9.25 4.84-.49-.16-.8-.87-1.43-1.59 5.03-2.96 2.85-7.22 2.19-11.17-.1-.61-1.01-1.44-1.62-1.52-.78-.09-1.93.25-2.41.83-2.09 2.53-4.32 5.03-5.86 7.89-1.09 2.01-1.28 4.56-1.62 6.91-.18 1.22.37 2.53.29 3.78-.19 3.17.05 5.73 3.38 7.68 1.44.84 1.57 3.91 2.45 6.41-1.98 0-2.98 0-4.2 0-.1-.67 0-1.51-.35-2.05-.79-1.22-1.71-3.1-2.76-3.23-1.46-.17-3.6.58-4.53 1.7-2.1 2.54-3.54 5.7-8 4.84 0-1.91 0-3.88 0-6.49-5.92.81-10.03-2.66-14.71-5.77-.38 2.21-.68 3.93-1 5.82 2.87 1.21 5.57 2.36 8.36 3.54-4.9 3.54-7.89 3.88-11.53 1.38 2.92-5.19 2.14-6.64-4.78-8.3-.38 1.83-.57 3.73-1.21 5.46-.43 1.17-1.48 2.1-2.26 3.14-.85-.69-1.78-1.3-2.52-2.1-.78-.84-1.38-1.86-2.17-2.94.72-.79 1.45-1.52 2.1-2.31 2.09-2.5 2.29-5.23.47-7.89-1.1-1.6-2.44-2.42-4.05-.5-.07.08-.13.17-.22.23-6.32 4.1-4.85 9.97-3.38 15.73-5.6 1.47-9.44.75-10.07-2.03 3.09-.41 6.47-.64 6.65-5.3-3.97-.32-7.94-.69-11.93-.91-.53-.03-1.16.65-1.63 1.12-1.04 1.05-1.91 2.27-3.01 3.24-3.32 2.93-6.94 4.89-11.76 2.44.14.35-.02.15 0-.03.52-5.06-.39-6.25-5.6-6.74-2.08-.2-4.19-.03-6.44-.03-.1 2.63-1.9 5.31 2.22 7.36-2.96 0-5.02 0-7.75 0 .95-2.9 1.37-5.92 2.86-8.27 1.73-2.74 1.17-4.71-.53-6.87-.97-1.23-1.99-2.41-3.01-3.65 2.48-1.29 2.48-1.29 5.23 1.79 1.41 1.58 2.81 3.17 4.34 4.89 3.17-2.35 3.44-7.48 8.44-8.49.19 5.5-.94 11.87 7.44 12.78.37-2.02.73-4.08 1.12-6.12.57-2.95 2.01-4 4.94-3.13 1.78.53 3.43 1.6 5.05 2.58 3.23 1.94 5.51 1.32 6.66-2.15.23-.68-.24-2.22-.76-2.42-5.51-2.17-9.61-5.61-10.82-11.92-.4-.03-.79-.05-1.19-.08-1.25 2.27-2.51 4.53-4.08 7.37-4.23.85-4.66.55-8.05-6.54 1.4-.47 2.77-.93 4.38-1.47-.37-.9-.71-1.71-1.06-2.56 3.25-.55 5.88.15 7.4 3.36 1.83-1.12 3.4-2.08 5.12-3.13 1.34 2.01 2.49 3.73 3.9 5.83.93-2.01 1.72-3.58 2.38-5.2 2.01-4.93 3.45-5.52 8.87-3.13-.89 1.96-1.45 4.2-2.76 5.83-1.54 1.89-.86 3.62.44 4.31 1.61.86 3.89 2.41 5.71.17 1.59-1.97 2.92-4.15 4.47-6.4-1.22-1.27-2.37-2.48-3.92-4.11h19.52c-.14 6.49 2.24 13.11-1.51 19.2 4.8 2.87 9.32 5.56 14.05 8.39.29-.78.72-1.51.82-2.27.23-1.8 1.27-2.16 2.89-2.09 7.08.3 7.14.19 5.93-6.95-3.64-2.49-4.7 1.9-7.1 2.77-1.53-6.8-2.95-6.91-8.86-4.23-1.6-3.69-.67-6.64 2.53-9.02 1.87-1.39 3.62-2.93 5.88-4.77-5.15-3.57-8.68-6.99-6.44-13.04 1.16-.09 2.4-.19 4.47-.34-1.83-1.21-3.12-2.11-4.46-2.95-3.3-2.08-3.45-2.6-1.62-6.01.24-.45.47-.91.89-1.73-1.31-.62-2.46-1.16-3.76-1.77-1.5 2.89-2.85 5.5-4.33 8.36 4.9 3.07 3.99 7.68 3.59 12.38-1.26 0-2.28 0-3.36 0-.28-.99-.46-1.93-.8-2.8-1.14-2.92-4.08-3.61-6.25-1.42-1.26 1.27-2.32 2.75-3.47 4.13-.35-.15-.71-.31-1.06-.46 0-1.71.19-3.46-.07-5.13-.16-.99-1.03-1.86-1.59-2.78-1.39.86-2.92 1.56-4.11 2.63-.71.64-.88 1.88-1.29 2.85-1.08-.46-2.31-.72-3.21-1.41-1.7-1.32-3.26-1.99-5.53-1.24-2.9.95-4.85-.24-4.7-3.22.41-8.1-3.31-12.44-11.11-13.96-1.21-.24-2.47-1.89-3.06-3.19-.96-2.09-1.11-4.57-2.15-6.61-.79-1.56-2.22-3.12-3.76-3.87-1.13-.55-2.9.23-4.38.42.42 1.19.73 2.44 1.3 3.55s1.4 2.08 2.34 3.44c-2.21.87-4.14 1.64-6.28 2.48.04-.11-.08.08-.1.29-.62 5.5-.63 5.56 4.85 6.58 2.72.5 5.66.54 4.01 4.76-.07.18 1.99 1.77 2.91 1.64 2.16-.31 4.31-1.08 6.31-1.99 2.28-1.04 3.5-.31 3.91 1.91.36 1.95.43 3.95.66 6.28-3.61.09-6.54.76-10.07-.55-3.77-1.4-8.34-1.15-12.51-.85-3.01.22-5.62 5.64-4.61 8.7 1.3 3.96 1.89 7.82-.58 11.61 2.21 1.61 5.99-.11 6.93 3.98-2.34.38-4.58.87-6.85 1.02-.66.04-1.56-.76-2.05-1.41-.69-.91-.91-2.22-1.67-3.03-1.09-1.16-3-2.41-3.78-.16-2.17 6.35-6.37 12.05-6.16 19.21.05 1.85 0 3.17 2.17 3.81 3.05.9 1.44 3.44 1.7 4.8-7.54 0-14.91.04-22.28-.09-.52-.01-1.37-1.27-1.45-2.02-.38-3.59-2.5-5.43-6.05-6.29-1.58 2.52-3.23 5.16-5.39 8.61-2.03-4.8-4.58-3.43-7.23-2.33-1.85.77-3.86 1.18-5.8 1.76-.33-2.19-.66-4.38-.99-6.57.31-.11.61-.23.92-.34.87.79 1.74 1.58 2.9 2.63 1.26-2.05 2.48-4.04 3.84-6.27-3.89-1.97-7.52-3.81-11.71-5.93-.58 3.12-1.02 5.57-1.5 8.02-1.26 6.35-2.96 7.62-9.75 7.15-.05-2.14-1.31-4.48 1.68-5.97.4-.2.42-2.27-.08-2.97-1.75-2.39-1.56-4.5-.13-6.95 1.32-2.26 2.25-4.74 3.46-7.35-.78-.06-1.27-.15-1.76-.14-3.79.05-4.28-.85-3.29-4.57.72-2.69 1.26-5.56 1.13-8.31-.38-8.15-1.16-16.28-1.69-24.43-.07-1.05.05-2.55.71-3.13 2.06-1.82 2.19-3.94 1.12-6.03-2.6-5.08-1.86-9.19 2.87-12.53.83-.59 1.41-1.54 2.16-2.39-2.63-2.11-6.74-2.6-6.79-7.17 4.69-.17 9.19.18 12.86 4.21 3.14-3.01 6.46-5.57 8.98-8.77 2.47-3.15 3.23-5.74-1.28-7.9-.94-.45-1.78-1.13-2.8-1.79-2.16 2.7-3.65 5.42-2.72 9.05.17.64-.8 2.08-1.53 2.34-1.33.47-2.88.34-5.13.52.76-2.18 1.33-3.82 2.05-5.87-.54-1.61-1.36-4.02-2.22-6.57 1.4-.48 2.17-.79 2.96-1.01 2.12-.6 3.53-1.52 3.29-4.18-.12-1.32.75-2.73 1.47-5.07 1.13 4.83 3.66 4.96 7.18 4.54 2.6-.31 5.4 1.08 8.5 1.8.62-2.89.78-6.41 2.19-9.34 1.41-2.95 4.06-5.31 6.08-7.83 3.98 4.34 7.93 8.26 11.34 12.61.97 1.24.74 3.76.43 5.59-1.16 6.87-.14 8.87 6.52 10.98 2.86.9 4.66 2.51 6.36 5.12 3.75 5.75 9.7 8.95 15.97 11.44.55.22 1.47-.07 2.06-.4 3.85-2.21 7.81-4.29 11.44-6.83 2.72-1.9 4.99-4.44 7.9-7.08 2.13.2 4.52 4.24 7.7 1.04.32.24.61.36.61.48.09 4.56 2.68 7.13 6.58 9.08 3.86 1.93 7.44 4.4 11.46 6.83.9-1.91 1.84-3.55 2.42-5.31.23-.69-.09-1.84-.59-2.44-1.42-1.71-3.02-3.27-4.61-4.83-1.33-1.3-2.44-2.57-1.75-4.67.68-2.04-.92-2.54-2.35-2.97-4.64-1.41-8.44-3.8-10.27-8.74.55-.65 1.22-1.45 1.9-2.26-3.85-2.45-5.29-2.2-8.2 1.36-7.85-4.8-8.44-5.52-8.7-10.58 1.84-.99 3.36-1.24 4.63 1.09 1.97 3.61 5.45 4.27 9.22 4.48 3.3.18 6.58.75 10.15 1.18-2.34 4.43-2.12 5.61 1.09 8.54 1.86 1.7 3.72 3.38 5.75 5.23.82-1.2 1.46-2.13 1.75-2.57-1.34-3.35-2.56-6.24-3.64-9.18-.68-1.86-1.21-3.54.48-5.55.72-.85-.53-3.36-.97-5.55 1.75-.64 3.78-1.38 6.1-2.22.29 1.88.57 3.53.81 5.18.14.94-.06 2.09.41 2.79.88 1.32 2.05 2.51 3.33 3.42.22.15 1.69-1.38 2.49-2.22.42-.44.64-1.08 1.03-1.79-3.6-2.22-3.27-5.58-2.77-9.02 4.9.17 5.95 1.19 5.96 5.73 0 2.02-.14 4.04.03 6.04.22 2.6-.58 4.61-2.29 6.62-.9 1.07-1.35 3.05-1.11 4.46 1.02 5.84 2.33 11.63 3.65 17.41.21.9.82 2.18 1.54 2.42 3.55 1.19 3.55 3.7 2.93 6.87-3.01-.16-5.94 1.05-8.75-1.31-1.65-1.38-4.21.06-4.65 2.25-.63 3.11-1.21 6.24-1.79 9.36-.04.19.07.41.26 1.44 3.1.47 6.54 1.67 9.84 1.34 7.51-.73 11.86 3.25 14.89 9.11 2.54 4.91 5.68 9.73 4.93 15.79-.25 2.05 1.54 2.51 2.67 1.27 3.56-3.91 7.23-3.66 11.52-1.34.99.53 2.95-.17 4.2-.82 1.64-.87 3.01-2.25 4.7-3.57.35 1.43.63 2.56.97 3.92 3.39-5.22 2.99-8.36-1.5-12.64-1.61 1.05-3.27 2.12-5.45 3.55-1.57-6.39-6.58-8.65-12.35-10.03.45-1.24.75-2.09 1.22-3.41-1.67-.34-3.3-1.02-4.87-.92-2.85.17-4.25-1.24-4.59-3.71-.37-2.61-.32-5.27-.45-7.91-.15-3.24-.88-6.18-3.19-8.71-2.97-3.26-2.26-6.94 1.5-9.27 2.1-1.3 2.13-4.23-.23-5.35-2.08-.99-2.17-2.45-1.79-4.16.43-1.91-.09-4.37 2.84-5 1.85-.4 3.61-1.2 5.42-1.8.28-.09.61-.01 1.76-.01-.94 3.8-1.8 7.33-2.71 10.86-.68 2.65-1.19 5.22 1.72 6.96 5.15-4.32 5.64-5.96 4.39-15.2 2.51-.48 5.05-1.03 7.61-1.43 5.68-.9 7.15-2.51 6.85-8.21-.13-2.51-.72-4.99-1.12-7.6-5.85-.46-11.42-.9-17.03-1.35.68 6.05.96 6.31 6.6 6.45.53.01 1.09-.1 1.59.03 1.33.35 2.63.8 3.94 1.21-1.22 1.72-2.19 3.77-3.79 5.02-.69.54-2.94-.24-4.03-1.04-2.43-1.8-4.57-3.98-6.98-6.14-2.47 3.03-4.66 4.94-8.52 3.87 3.98-5.65 3.68-12.22 4.63-18.52.39-2.6 1.15-5.17 1.96-7.68 1.05-3.25 3.66-5.11 7.03-4.66 2.91.39 4.18-.92 4.74-3.39.35-1.55.57-3.14.66-4.72.03-.58-.37-1.56-.79-1.7-.65-.21-1.68-.09-2.2.33-1.21.99-2.21 2.23-3.3 3.37-.33-.15-.66-.3-.99-.46 1.27-2.91 2.48-5.85 3.82-8.73 1.32-2.84 3.53-5.5 4.01-8.45 1.01-6.19 3-11.82 6.26-17.16 1.31-2.14 2.19-4.83 2.35-7.33.28-4.26 1.76-8 3.52-11.74 2.11-4.49 1.6-8.55-1.85-12.3-.8-.87-1.22-2.5-1.1-3.71.3-2.97-.49-5.32-2.52-7.52-3.28-3.57-6.74-7.08-7.51-12.24-.09-.63-.68-1.35-1.23-1.71-2.92-1.91-5.71-4.58-8.94-5.36-3.93-.95-6.55-2.08-7.52-6.36-.24-1.04-2.7-1.87-4.28-2.28-5.95-1.52-11.97-2.76-17.93-4.23-2.67-.66-5.42-1.27-7.85-2.48-4.21-2.09-8.55-2.49-13.15-2.81-3.41-.24-6.67-2.39-10.06-3.49-1.27-.41-2.73-.19-4.06-.43-1.05-.19-2.42-.36-2.98-1.07-1.23-1.53-2.32-3.31-2.98-5.16-1.75-4.91-5.32-7.1-10.43-7.7-.89 3.03-1.79 5.95-2.59 8.89-.15.55-.16 1.3.11 1.78 1.99 3.59 3.95 7.21 6.16 10.68 1.17 1.84 2.8 3.4 4.28 5.16-.72.86-1.45 1.73-2.37 2.83 1.31.66 2.35 1.43 3.51 1.71 3.6.89 4.35 3.08 3.95 6.56-.73 6.31-.83 12.7-1.57 19.01-.3 2.53-1.66 4.93-2.48 7.42-.98 2.97-2.4 5.91-2.73 8.97-1.35 12.43-2.36 24.9-3.49 37.35-.2 2.19-.05 4.48-2.65 5.64-.63.28-1.21 1.3-1.32 2.05-.55 3.89-3.03 5.88-6.5 6.96-1.92.6-2.92 1.69-3.03 3.84-.4 7.64-3.52 14.21-7.94 20.36-1.56 2.18-2.23 4.97-3.55 7.35-.69 1.24-1.91 2.18-2.89 3.25-.58-.21-1.15-.35-1.72-.49zm-1.72 98.47c1.03 2.35 2.21 2.96 4.34 1.7.97-.58 2.43-.25 3.62-.56 1.06-.28 2.65-.61 2.96-1.35 1.7-4.13 4.77-5.9 9.04-6.09.79-.03 1.57-.4 2.51-.65-.95-3.74-2.42-6.89-5.55-9.12-2.84-2.02-5.59-4.17-8.38-6.26 3.92-.87 7.39-1.27 10.85-1.25 2.2.02 2.78-.94 3.3-2.84 1.5-5.48.96-10.63-1.48-15.74-1.08-2.26-1.93-4.7-2.38-7.15-.35-1.92-1.18-2.58-2.97-2.98-3.67-.83-7.26-1.98-10.9-2.96-1.22-.33-2.55-.97-3.69-.75-5.06.99-10.06 2.25-15.44 3.49 1.1 3.33.55 6.89 4.96 8.25 1.58.49 3.54 2.99 3.57 4.61.13 5.49 2.47 9.11 7.29 11.42 1.04.5 1.86 1.44 2.89 1.95 1.75.87 1.96 2.33 1.16 3.68-1.55 2.66-3.41 5.15-5.31 7.97 2.21 2.58 4.81 5.62 7.57 8.85-2.75 1.99-5.29 3.83-7.96 5.78zm3.56-173.34c.46.39.87.69 1.24 1.04 2.58 2.38 7.38 3.82 9.29 2.49 3.09-2.14 1.39-5.15 1.07-7.87-.04-.31-.17-.61-.23-.92-.92-4.59-1.74-9.17.9-13.8-4.58-2.41-9.01-4.73-13.82-7.25-.54 5.68-2.18 10.24-7.45 11.66 1.6 2.3 3.73 4.36 4.55 6.84.87 2.63 1.24 5.87-1.87 7.82-3.71-1.42-2.31-4.35-2.1-7.04-1.51-.23-2.82-.42-3.55-.53-1.23 5.49-2.15 10.76-3.67 15.86-.84 2.81-1.68 5.31-.55 8.25.82 2.14-.84 4.55-2.69 4.27-2.86-.44-6.3.06-7.16-4.46-2.84 3.15-5.29 5.86-7.79 8.63 1.84 2.58 3.6 5.06 5.11 7.17 2.55-.7 4.8-1.99 6.85-1.72 2.65.36 4.54.38 5.54-2.56 1.34.63 2.43 1.37 3.62 1.63 1.27.27 2.64.11 3.97.07 1.34-.04 3.04-.69 3.94-.1.95.62 1.35 2.36 1.6 3.68.26 1.4.06 2.89.06 4.69 1.78-.18 3.29-.33 5.23-.53-1.46-5.32-2.82-10.28-4.23-15.42-2.15 1.19-4.04 2.23-6.05 3.34-1.27-2.29-2.38-4.29-3.78-6.82 5.74-.88 8.83-4.84 12.26-8.46 1.53-1.62 1.58-2.85.58-4.72-.84-1.51-2.66-3.07-.87-5.24zm146.93 143.78c-2.16-1.48-4.1-2.13-4.84-3.46-1.45-2.61-3.42-3.07-6.02-2.85-4.21.36-8.47.42-12.37 2.21v.96c3.43.6 6.85 1.21 10.76 1.9.63 1.86 1.47 4.34 2.36 6.95.95-.59 1.72-1.17 2.57-1.57.81-.38 1.72-.57 2.58-.84.27.87.97 1.89.73 2.57-.94 2.64-2.19 5.17-3.65 8.48 1.51 3.6 3.27 4.52 8.31 4.42 2.14-.04 4.65.18 6.39 1.26 4.9 3.05 9.34 2.12 13.53-.93 2.98-2.17 5.59-4.86 8.32-7.36 3.63-3.33 3.61-3.35.88-7.85-5.11 1.59-8.4 5.55-11.72 9.33-2.25 2.57-4.94 3.11-8.21 3.34 1.41-2.52 6.04-3.02 4.21-6.76-1.17-2.38-3.4-4.24-5.16-6.34-.14.34-.28.68-.41 1.03-1.87.55-3.75 1.09-5.62 1.64-.15-.28-.3-.55-.45-.83 1.24-1.39 2.65-2.67 3.69-4.2 1.68-2.48 3.31-5.04 4.54-7.75.42-.92-.06-3.09-.79-3.49-1.24-.68-3.21-.95-4.52-.46-4.16 1.59-5.14 5.29-5.11 10.6zm-171.89-3.03c.88-3.38 4.91-5.06 3.72-8.97-.96-3.16-2.02-6.22-5.32-7.65-3.66 2.82-3.7 9.25-10.23 8.92.71 1.25 1.19 2.11 1.79 3.17.82-.91 1.44-1.59 2.33-2.57 1.55 4.46 3.11 8.59 4.38 12.82.59 1.96 1.63 2.98 3.54 3.52 1.97.55 3.85 1.38 5.78 2.09.01.39.02.77.03 1.16-1.04.28-2.32 1.09-3.07.75-5.35-2.47-8.54.77-11.82 4.09 1.27 3.61 4.22 4.24 7.47 4.94 3.85.82 7.52 2.51 11.36 3.42 2.12.5 4.5.49 6.6.01.52-.12 1.01-3.15.51-4.46-.97-2.58-2.46-5.03-4.1-7.26-1.02-1.38-2.71-2.27-4.12-3.38 3.62-3.65 3.84-4.96 1.63-9.74-1.09 1.82-2.13 3.56-3.46 5.76-1.35-3.76-2.74-6.91-7.02-6.62zm65.89-227.54c1.69 5.76 4.32 7.07 9.77 5.73 2.47-.6 5.39-1.07 7.68-.31 6.07 2.01 11.44 1.26 14.85-3.94 2.34-3.58 5.39-5.17 9.19-5.8 1.64-.27 3.41.24 5.12.39.08.47.17.94.25 1.41-5.21 3.13-10.42 6.25-15.76 9.46.59 5.66.89 6.04 4.8 5.56-.34-3.56 2.12-4.17 4.91-4.66 2.99-.53 5.93-1.35 9.2-2.11-.24-4.44-.47-8.71-.72-13.18-9.08-.57-17.8-1.11-26.79-1.67.06 1.27.1 2.23.16 3.43 1.35-.64 2.37-1.12 3.36-1.59 2.72 4.01 2.84 4.86.86 7.73-2.01-2.92-4.8-4.42-8.12-3.02-2.91 1.23-5.57 3.05-8.49 4.7-3.11-2.8-3.47-2.88-10.27-2.13zm122.68 73.07v8.86c1.82-.74 3.33-1.46 4.91-1.95.9-.28 1.92-.2 2.89-.29-.31.89-.7 1.77-.92 2.68-.36 1.52-1.24 3.36-.71 4.51.55 1.19 2.44 2.15 3.89 2.45 2.55.53 5.22.48 7.53.65 1.56 4.61-3.36 2.04-4.11 4.14 3.75 3.74 14.93 3.29 18.76-.28-.79-3.11-1.4-5.92-2.26-8.65-.21-.67-1.17-1.37-1.92-1.57-3.06-.82-6.16-1.53-9.27-2.12-2.27-.43-3.2-1.71-3.28-3.93-.06-1.68-.2-3.37-.49-5.02-.33-1.87-1.35-2.6-3.41-2.06-3.76.99-7.61 1.71-11.61 2.58zm-.59 204.34c.36.24.72.48 1.08.72 2.48-1.03 5.64-1.43 7.32-3.22 4.91-5.24 5.55-11.64 2.79-18.21-.81-1.93-2.38-3.55-3.34-4.94-2.49 1.56-4.34 2.96-6.39 3.93-2.15 1.02-4.51 1.62-6.77 2.4-.09.3-.19.61-.28.91 1.35.77 2.63 1.81 4.08 2.26 1.66.51 3.47.5 5.37.74-.22.75-.37 1.36-.59 1.94-.21.55-.51 1.06-.79 1.63-3.7-2.79-4.48-3.43-7.73-1.6-3.98 2.24-7.46 5.41-10.95 8.42-.33.29.51 3.01 1.31 3.33 2.49 1 5.23 1.39 8.32 2.13-.82-2.17-1.7-3.86-2.04-5.66-.19-.98.49-3.03.87-3.06 3.11-.21 6.49-1.44 8.3.45-.23 3.27-.4 5.55-.56 7.83zm-188.21-11.27c1.89-2.27 4.89-3.71 8.62-3.8 2.22-.05 4.45-.18 6.63-.56 2.42-.42 3.11-2.04 1.37-3.71-1.15-1.1-3.14-1.92-4.72-1.87-4.71.15-9.03-.76-13.06-3.19-.97-.59-2.08-.96-3.52-1.6-.29 1.16-.99 2.71-.69 2.94 2.19 1.65.65 3.2.09 4.75-.76 2.09-1.64 4.13-2.39 6.22-.94 2.59-.76 4.94 1.39 6.99 1.15 1.09 1.91 2.61 3.14 3.56.84.65 2.24 1 3.27.82.67-.12 1.65-1.51 1.57-2.23-.29-2.52-.98-5-1.7-8.32zm-20.1-35.74c-2.31 2.24-4.52 4.38-7.33 7.09 1.88 1.52 3.96 3.21 6.71 5.43-.55.85-1.13 2.9-2.4 3.5-3.77 1.77-3.43 4.28-2.39 7.48.76 2.33 1.01 4.72 4.16 5.12.52.07 1.18 1.34 1.27 2.12.34 3.01.48 6.05.7 9.09 5.08-.77 5.89-2.25 3.81-6.46-.46-.94-.89-1.95-1.03-2.97-.34-2.52.15-4.58 3.17-5.23.8-.17 1.43-1.12 2.13-1.71-.89-.67-1.83-1.95-2.67-1.89-3.18.21-4.39-1.45-4.2-4.15.22-3.14.8-6.27 1.43-9.36.85-4.11.02-6.11-3.36-8.06zm182.09-94.58c.48.47.95.93 1.43 1.4 4.99-2.98 9.97-5.96 15.14-9.04h5.24c-.74-2.47-4.35-4.12-.91-6.07 2.1.7 3.99 1.33 6.11 2.03-.21-5.81-8.49-11.26-13.13-9.08-5.09 2.39-9.21 5.66-8.58 12.27.27 2.77-.45 5.18-3.6 6.23-.74.24-1.14 1.48-1.7 2.26zm-16.94 50.32c-1.12 2.89-2.08 5.48 1.7 7.54-3.1.8-5.68 1.46-8.26 2.13.6 1.9 1.1 3.47 1.65 5.18-2.9.49-5.48.92-8.42 1.42.29 1.86.56 3.54.82 5.19 3.34-.18 6.21-.23 9.03-.57.82-.1 2.07-.93 2.22-1.62.6-2.73 2.42-3.67 4.86-4.2 1.75-.38 3.43-1.05 5.13-1.65 4.41-1.54 5.28-4.69 2.18-8.32-2.77-3.23-6.45-4.67-10.91-5.1zm33.73-156.6c-3.03-1.48-5.43-3.39-8.03-3.71-2.54-.31-5.27 1.02-8.03 1.66 2.95 6.32 9.63 5.33 13.34 9.12 3.05-1.92 6.01-3.6 8.75-5.57 2.46-1.77 4.96-2.55 7.99-2.11.95.14 2.58-.47 2.96-1.22.53-1.04.68-2.94.05-3.69-.57-.68-2.4-.44-3.66-.38-.7.03-1.37.53-2.07.76-3.95 1.33-4.46.88-3.98-3.22.08-.7-.22-1.97-.6-2.08-.87-.25-2.43-.31-2.78.19-1.14 1.67-2 3.58-2.72 5.49-.61 1.58-.86 3.3-1.22 4.76zm1 23.88c5.7-4.72 5.68-9.62.13-12.69-2.15-1.19-3.9-1.42-5.67 1-2.92 3.97-6.23 7.64-9.34 11.38-4.3-2.48-4.71-2.39-8.81 1.72.73 1.33 1.47 2.68 2.16 3.94 3.85-.71 7.37-1.47 10.92-1.99 3.99-.59 6.43-2.9 7.87-6.5.28-.69.62-1.35 1.11-2.42.62 2.13 1.11 3.8 1.63 5.56zm17.19 81.41c-.75 1.09-1.45 1.91-1.91 2.84-1.03 2.06-.41 3.74 1.67 4.6 2.1.86 4.57 2.88 6.33-.26 1.49-2.65 2.62-5.54 3.64-8.41 1.2-3.38.06-5.02-3.28-6.21-6.79-2.41-12.31-.08-17.51 4.33 2.46 5.08 7.31 1.53 11.06 3.11zm-26.91 25.49c-2.26-3.33-3.34-3.75-6.76-3.35-1.87.22-3.79.29-5.66.1-2.29-.22-4.31-.76-4.24-3.96.04-1.89-3.78-3.9-5.66-3.39-3.11.85-3.75 2.16-2.68 5.35 1.04 3.09 3.28 4.58 6.3 5.66 3.11 1.12 6.09 2.78 8.87 4.6 2.48 1.62 5.17 1.6 6.91-.75 1-1.34 1.91-2.77 2.92-4.26zm39.93-144.52c2.22-.95 4.13-2.51 5.79-2.28 1.88.26 3.49 2.21 5.31 3.25 1.47.84 4.25-.79 4.41-2.64.21-2.42.34-4.88.13-7.28-.4-4.57-4.85-6.77-8.81-4.5-1.74 1-3.52 1.97-5.17 3.1-.7.48-1.54 1.33-1.59 2.06-.19 2.62-.07 5.25-.07 8.29zm-203.39 154.7c-.61 4.85-1.06 8.39-1.45 11.55-2.28-.8-4.55-1.59-7.28-2.54v6.38c3.03 1.11 5.89 1.9 8.15-1.2 3.3 3.52 6.58 3.06 8.6-.96.47-.94.97-1.94 1.71-2.65 1.81-1.73 1.28-3.4-.31-4.56-2.76-2.03-5.75-3.72-9.42-6.02zm52.96 39.59c7.59 3.53 13.35 8.43 16.5 15.94 2.34-1.37 5.39-9 4.99-12.07-.33-2.5-1.6-3.68-4.2-3.71-1.77-.02-3.75-.1-5.26-.87-4.1-2.09-7.9-1.45-12.03.71zm103.11.51c-.19-.25-.38-.49-.57-.74.66-1.27 1.69-2.5 1.85-3.83.14-1.19-.4-2.71-1.16-3.69-.61-.79-2.07-1.47-3.02-1.33-1.62.25-3.2 1.08-4.68 1.87-.63.34-1.4 1.29-1.32 1.84.12.76.85 1.63 1.56 2.05 1.01.6 2.23.83 3.36 1.21 0 .3 0 .6-.01.89-2.22.37-4.45.66-6.65 1.13-2.14.46-4.23 1.1-6.35 1.66.03.4.07.8.1 1.19 3.65 2.03 7.77 2.78 11.86 2.91 1.37.04 2.81-1.88 4.37-3.03 2.41 2.73 4.74.25 7.37-.96-.58-1.22-1.07-2.25-1.56-3.26-1.81.75-3.48 1.42-5.15 2.09zm26.95-156.51c2.2-1.51 3.72-2.46 5.12-3.57.78-.61 1.87-1.44 1.93-2.24.21-3.04.33-6.14-.06-9.14-.37-2.93-4.56-5.05-7.76-4.35-3.17.69-4.19 2.28-3.22 6.2 1.04 4.27 2.54 8.42 3.99 13.1zm-53.86-25.52c3.42 2.08 5.34 4.13 3.21 7.68-.49.82-.07 2.17-.07 3.19 3.18.63 5.35.24 6.42-2.68.81-2.23 1.76-4.4 2.7-6.75 1.57.88 2.8 1.57 4.32 2.42-2.5 2.13-2.62 4.08-.42 6.22 2.44-1.83 4.78-3.6 6.58-4.95-3.1-2.24-6.11-4.46-9.18-6.6-.85-.6-1.85-1-2.81-1.43-4.05-1.78-6.66 1.62-10.75 2.9zm31.66 84.53c.33.25.66.49.99.74 1.61-1.72 3.79-3.18 4.71-5.21 2-4.4 5.52-6.01 9.81-6.27 4.51-.27 7.62-2.66 10.52-5.66-2.27-3.03-4.85-4.42-8.45-2.39-1.94 1.1-4.64 1.53-5.83 3.13-1.48 1.99-2.93 3.36-5.27 4.09-1.21.38-2.81 1.07-3.24 2.06-1.34 3.06-2.2 6.33-3.24 9.51zm46.81-84.66c-.49.7-1.76 1.67-1.85 2.76-.65 7.4.39 8.65 7.68 10.04.41.08.96.39 1.22.23 1.64-1.05 4.18-1.93 4.61-3.39.74-2.51.43-5.46 0-8.14-.22-1.36-1.64-2.52-2.55-3.81-2.44 2.07-.98 6.22-4.49 6.09-1.4-.07-2.72-2.16-4.62-3.78zm-10.24 11.16c1.48-1.21 2.73-2.17 3.89-3.22 1.66-1.49 1.31-2.98-.81-3.7-3.03-1.02-6.44 1.28-6.76 4.67-.22 2.42-.29 4.87-.32 7.31-.06 4.96 1.88 7.12 6.81 7.7 4.07.48 4.65-.21 3.61-4.26-.21-.81-.35-1.63-.54-2.57-4.5.44-3.13-4.39-5.88-5.93zm-213.74 172.99c.67-.85 1.83-2.23 2.88-3.69 1.39-1.94.95-5.53-.85-6.89-2.14-1.62-3.72-.66-5.54.9-1.89 1.61-4.11 3.05-6.43 3.89-4.79 1.74-5.94 4.59-2.84 10.07 1.32-2.41 2.42-4.42 3.86-7.06 2.56.8 5.46 1.7 8.92 2.78zm64.41-145.58c-2.83-2.13-5.33-4.01-7.83-5.89-4.49-3.37-4.49-3.37-9.07.33 2.08 3.95 4.17 7.92 6.65 12.64 1.54-5.51 6.66-4.68 10.25-7.08zm144.17-85.61c-1.29-1.64-2.2-3.44-2.7-3.33-2.86.63-6.46.92-8.23 2.8-3.17 3.36-6.4 7.47-3.31 12.87 4.17.88 5.73.18 6.28-3.59.63-4.42 1.93-8.05 7.96-8.75zm13.66 271.21c-.84-.28-1.88-.78-2.98-.96-2.13-.35-3.5-1.15-3.51-3.63 0-.95-.74-1.9-1.14-2.85-1.51.7-3.14 1.22-4.47 2.16-.76.54-1.69 2.09-1.42 2.64 1.77 3.65 3.85 7.15 6.13 11.24 2.57-2.99 4.76-5.54 7.39-8.6zm-61.56-268.4c.16-3.06.42-6 .44-8.93.02-2.06-.47-4.8-2.78-4.54-1.88.21-4.54 2.19-5.05 3.91-.98 3.34-.68 7.05-.92 10.88 2.96-.46 5.52-.87 8.31-1.32zm-28.78 34.11c4.6-1.66 8.96-3.16 13.25-4.85.64-.25 1.25-1.41 1.26-2.17.01-.8-.58-2.22-1.11-2.32-2.32-.45-4.93-1.19-7.04-.55-2.9.88-5.44 2.91-8.14 4.45.67 2.07 1.18 3.63 1.78 5.44zm-112.79 254.88c2.79 2.98 4.97 5.94 7.8 8.03 1.19.88 3.77.11 5.62-.31.36-.08.76-2.25.36-3.07-2.31-4.68-6.11-7.57-11.37-8.86-1 1.74-1.92 3.35-2.41 4.21zm144.11-275.09c-4.27-4.65-15.45-5.17-20.89-.85 6.84 3.99 13.62 4.71 20.89.85zm-64.5-16.07c1.27 2.23 2.01 5.24 3.35 5.55 2.82.64 6.01.08 8.96-.47 1.01-.19 2.64-2.05 2.45-2.74-.39-1.44-1.59-2.89-2.85-3.81-.89-.65-2.47-.72-3.65-.52-2.58.43-5.12 1.2-8.26 1.99zm103.38 39.13c6.59-.58 8.03-2.33 7.77-8.95-.16-4.29-1.99-6.06-6.42-6.05-.44 4.88-.88 9.79-1.35 15zm-159.05 14.84c.69 2.72 1.23 5.19 2.01 7.57.15.44 1.3.55 1.99.81.58-3.89 3.59-2.54 5.91-2.78 2.27-.24 4.29-1.11 4.11-3.79-.19-2.73-2.34-3.27-4.6-3.05-3.03.29-6.04.79-9.42 1.24zm-27.23-34.69c2.92 2.41 5.94 1.48 8.51 2.24 4.53 1.36 7.45-.38 9.44-4.55-1.59-.94-1.7-4.36-4.77-3.19-4.22 1.62-8.35 3.47-13.18 5.5zm153.57 141.29c5.62 5.87 5.61 5.78 11.36 5.3 2.09-.17 2.47-1.11 2.18-2.85-.42-2.48-4.93-6.69-7.33-6.72-.47-.01-1.03.24-1.42.53-1.58 1.17-3.1 2.41-4.79 3.74zm-104.97-88.79c-2.36-4.89-5.77-7.57-11.25-8.13-.4 2.12-1.06 4.26-1.12 6.41-.05 1.79.6 3.81 3.06 3.48 3-.4 5.96-1.11 9.31-1.76zm115.55-54.38c3.62 1.07 6.02-1.29 6.88-3.45 1.24-3.09 2.49-6.84-.5-10.65-2.01 1.74-4.78 3.05-5.62 5.14-1.08 2.66-.58 5.96-.76 8.96zm-126.16-23.82c-.19.43-.38.85-.58 1.28.99.99 1.99 2.83 2.98 2.83 5.11-.02 10.23-.51 15.35-.84.44-3.5-1.51-4.75-4.05-4.64-4.58.21-9.14.89-13.7 1.37zm156.8 7.83c1.41.75 2.53 1.44 3.72 1.97 1.32.58 3.25.62 3.96 1.59 2.55 3.51 5.13 1.76 7.84.72-.65-6.07-1.62-7.31-6.67-8.44-.51 6.07-5.78 2.08-8.85 4.16zm-160.13 19.61c-1.71-3.33-7.38-6.44-9.72-5.22-2.53 1.32-2.93 7.42-1.14 10.38 3.6-1.71 7.11-3.38 10.86-5.16zm49.34 215.21c2.39.53 4.43.99 6.46 1.44.08-.32.16-.63.24-.95-.45-.22-.9-.48-1.37-.66-2.14-.83-4.63-1.29-3.72-4.7.1-.39-1.87-1.99-2.4-1.78-1.85.71-4.08 1.59-5.07 3.11-1.42 2.2-1.18 5.05.95 6.98.87.79 2.48.94 3.76.95.31 0 .72-1.66.94-2.59.2-.77.19-1.61.21-1.8zm-.67 17.85c4.31 1.52 5.52.83 6.94-2.87.68-1.79 1.96-3.41 3.21-4.91 1.51-1.82.82-2.94-.97-3.58-3.21-1.16-5.38-.04-6.44 3.12-.9 2.69-1.79 5.38-2.74 8.24zm64.08-242.98c4.17-1.28 8.38-2.45 12.47-3.93.81-.29 1.87-2 1.64-2.58-.38-.95-1.64-1.8-2.7-2.13-.88-.28-2.06.12-3.02.46-2.09.75-4.06 1.86-6.18 2.44-2.84.77-3.35 2.41-2.21 5.74zm-113.05 96.21c.9 1.22 1.3 2.31 2.03 2.65 2.17 1 4.42 1.96 6.74 2.4 1.08.2 3.17-.56 3.44-1.35.6-1.79.67-3.93.29-5.79-.13-.64-2.39-1.45-3.41-1.19-2.93.75-5.72 2.02-9.09 3.28zm137.32-84.81c1.58-1.02 2.97-1.78 4.2-2.74 1.46-1.14 2.85-1.31 4.27-.1 2.61 2.24 4.89 1.39 7.3-.81-2.71-3.92-6.82-3.79-10.78-3.88-3.89-.1-6.24 3.21-4.99 7.53zm4.01 1.25c-2.35 1.76-4.4 3.23-6.39 4.78-1.93 1.51-1.74 2.76.51 3.95 3.22 1.69 7.13 1.03 10.22-1.83-1.37-2.19-2.76-4.4-4.34-6.9zm-24.48 109.37c-.78 2.35-.97 4.54-2.1 6-1.76 2.29-.49 3.2 1.19 4.07 3.13 1.62 5.9-.48 7.07-5.17.52-2.11-.21-3.56-2.2-4.21-1.26-.41-2.63-.47-3.96-.69zm-34.27-136.34c1.25 1.52 2.17 3.72 3.47 3.98 2.89.58 5.97.18 9.09.18-2.83-8.17-5.01-8.96-12.56-4.16zm74.5 130.29c.39.22.78.44 1.17.67 4.94-1.13 9.87-2.25 15.66-3.57-2.12-.92-3.55-1.33-4.74-2.1-4.15-2.7-7.64-1.74-10.62 1.82-.73.86-1 2.11-1.47 3.18zm-48.44 3.66c3.27-.41 6.68-.83 10.88-1.36-1.02-.87-1.53-1.65-1.94-1.6-3.66.44-4.49-1.3-3.91-4.54.12-.66-.57-1.95-1.14-2.13-.78-.25-2.14-.02-2.68.55-2.37 2.5-3.95 5.31-1.21 9.08zm4.03 71.46c1.35 2.38 8.51 5.67 10.73 4.84.82-.31 1.74-1.28 1.92-2.11s-.23-2.17-.87-2.72c-2.7-2.34-8.51-2.31-11.78-.01zm25.94-38.85c1.94 0 2.88.05 3.81-.01 2.75-.19 5.5-.34 8.23-.7.64-.08 1.63-.88 1.66-1.4.07-1.05-.13-2.83-.72-3.07-1.64-.65-3.68-1.23-5.28-.79-2.07.56-3.92 2.05-5.76 3.29-.64.45-.99 1.34-1.94 2.68zm17.97-144.42c1.47.34 2.54.83 3.57.77 1.57-.09 3.28-.25 4.62-.96 1.2-.64 2.46-1.96 2.78-3.21.2-.75-1.16-2.51-2.14-2.82-1.37-.44-3.51-.53-4.48.27-1.65 1.33-2.64 3.49-4.35 5.95zm-118.6 202.64c-2.2-5.87-7.57-6.74-13.76-2.24.85 2.03 7.74 3.15 13.76 2.24zm22.42-9.33c.56.55 1.58 2.41 2.95 2.73 2.43.57 4.37-2.38 4.37-6 0-2.18-1.46-2.96-3.32-3.05-2.37-.13-3.86 1.85-4 6.32zm60.04-186.48c.26-.35.52-.69.78-1.04-1.17-1.09-2.16-2.64-3.55-3.17-2.44-.94-5.43-1.7-7.42.54-.84.95-.14 3.25-.14 5.33 3.92-.63 7.12-1.15 10.33-1.66zm-20.24 1.77c-1.61 3.29-.96 6.38 1.47 7.68 1.99 1.06 4.99.22 8.01.22-1.96-4.75-5.82-6.02-9.48-7.9zm34.32 249.56c2.56.82 3.2-.62 3.25-2.61.06-2.51-1.35-4.52-3.69-4.11-2.06.37-5.35 2.13-5.48 3.51-.39 4.41 3.86 2.31 5.92 3.21zm.23-118.18c2.34-.91 4.28-1.65 6.21-2.43 2.4-.97 1.85-2.96 1-4.41-.76-1.3-1.57-3.02-4.15-1.85-4.14 1.89-3.04 5.13-3.06 8.69zm-169.36-125.61c3.04-2.6 5.67-4.85 8.86-7.58-4.04-.71-7.26-1.27-10.88-1.91.71 3.35 1.31 6.17 2.02 9.49zm123.82 248.28c2.62-.49 3.59-2.44 3.36-4.8-.11-1.13-1.03-2.68-2.01-3.13-2.57-1.18-5.08-.74-6.88 1.48 1.82 2.13 3.58 4.17 5.53 6.45zm-113.92-64.73c.62-5.97-.3-8.1-3.89-10.23-2.13 2.57-3.07 5.48-.97 8.29.84 1.11 2.98 1.24 4.86 1.94zm188.98-76.37c.17-.34.33-.68.5-1.02-1.74-1.45-3.33-3.23-5.3-4.21-.89-.44-2.66.55-3.82 1.24-.28.17.17 1.81.51 2.68.45 1.15 1.12 2.21 1.81 3.52 2.22-.78 4.26-1.49 6.3-2.21zm-73.76 31.7c.05 2.59 1.18 3.26 3.3 2.89 1.55-.27 3.17-.38 4.74-.28 2.47.16 2.91-1.28 2.69-3.18-.25-2.1-1.7-2.55-3.48-1.98-2.39.75-4.75 1.66-7.25 2.55zm-99.51-105.71c.09-2.74-.89-4.94-3.2-5.8-1.05-.39-3.23.4-3.91 1.35-.89 1.23-.79 3.17-1.2 5.2 3.29-.3 5.58-.5 8.31-.75zm187.8 19.3c-2.61-1.27-4.73-2.49-6.99-3.29-.7-.25-2.49.54-2.57 1.05-.19 1.24-.12 3 .63 3.82 1.73 1.88 6.15 1.28 8.93-1.58zm-4.78 82.13c-.86-6.04-1.69-7.01-5.88-6.91-.5 2.36-1 4.78-1.58 7.56 2.62-.23 4.89-.43 7.46-.65zm-1.46-90.18c2.54-.46 4.84-.76 7.08-1.34.71-.18 1.73-1.1 1.72-1.66-.02-1.02-.54-2.75-1.14-2.88-1.36-.3-3.29-.3-4.27.48-1.55 1.23-4.77 1.72-3.39 5.4zm-86.61-69.49c-2.65 1.57-4.86 2.87-7.05 4.16 1.94 3.49 2.58 3.63 8.63 2.08-.48-1.88-.96-3.77-1.58-6.24zm-101.44 144.13c-.74-2.08-.87-4.06-1.93-5.05-1.52-1.43-3.51-.85-5.05.66-.45.44-1.04.73-1.45 1.2-.37.43-.93 1.2-.79 1.46.3.53 1 1.07 1.59 1.15 2.18.26 4.38.35 7.63.58zm176.16-110.4c5.58-1.49 7.29-3.13 6.34-6.49-.31-1.09-2.36-1.68-3.98-2.74-.92 3.61-1.59 6.21-2.36 9.23zm-208.61 215.41c-.45-3.28-.86-6.29-1.38-10.08-1.61 2.74-3.1 4.62-3.78 6.75-.34 1.06.52 2.88 1.4 3.81.45.47 2.16-.24 3.76-.48zm153.55-100.19c-.23 6.72-.86 7.26 7.32 5.95-1.21-3.93-3.48-5.78-7.32-5.95zm-145.65-60.8c1.62.19 2.71.6 3.64.36 1.52-.4 3.06-1.03 4.33-1.93.96-.68 1.95-1.87 2.11-2.96.11-.78-1.13-1.75-1.54-2.32-2.83 2.27-5.17 4.14-8.54 6.85zm17.95-16.07c-.98-.8-2.37-2.47-2.88-2.23-2.07.94-3.87 2.47-5.77 3.78.58.6 1.1 1.65 1.74 1.72 3.67.4 6.39-.83 6.91-3.27zm-6.88 65.27c2.08-.19 3.49-.13 4.78-.52.67-.2 1.55-1.19 1.53-1.81-.01-.56-1.12-1.59-1.71-1.56-2.29.1-4.58.48-6.85.92-.35.07-.83 1-.73 1.42.13.58.66 1.31 1.18 1.49.76.25 1.67.06 1.8.06zm205.24-135.78c-3.45 2.08-4.69 4.62-3.51 8.43 1.92-1.18 3.68-2.25 5.59-3.43-.72-1.73-1.35-3.25-2.08-5zm-82.06 218.8c-1.05 2.36-3.38 4.54-.8 6.18 1.4.89 4.02-.13 6.1-.29.01-.31.01-.62.02-.92-1.68-1.58-3.36-3.14-5.32-4.97zm-36.14 61.52c-.27 2.55.68 4.43 3.16 4.66 1.35.13 2.8-.84 4.28-1.34-1.88-4.04-4.7-3.5-7.44-3.32zm21.85-294.55c-1.07-2.18-1.92-3.91-2.76-5.64-4.16 1.85-4.21 1.97-2.76 6.19 1.65-.17 3.37-.34 5.52-.55zm-18.22 276.16v7.06c.89-.09 1.52-.13 2.13-.23.7-.11 1.39-.27 2.02-.4.54-4.75.29-5.13-4.15-6.43zm78.55-178.65c1.94-1.72 3.72-3.3 5.63-4.99-.56-1.03-1.04-1.92-1.5-2.77-5.38 1.81-5.38 1.81-4.13 7.76zm-3.05 7.71v5.72c2.9-1.51 5.37-2.8 7.84-4.09-.09-.22-.18-.44-.28-.66-2.45-.31-4.91-.63-7.56-.97zm-23.95 137.42c-2.43-.75-4.69-1.45-7.93-2.44.69 2.16.73 4.24 1.63 4.71 2.25 1.19 4.47.38 6.3-2.27zm-114.24-101.8c-2.14-1.53-3.69-2.64-6.22-4.46-.22 2.55-1.15 5.01-.36 5.87 2.34 2.53 3.76-1.2 6.58-1.41zm-61.14 99.84c.82 2 1.24 3.03 1.72 4.2 1.76-.34 3.35-.65 5.7-1.1-1-1.5-1.49-3.12-2.4-3.41-1.33-.41-2.96.13-5.02.31zm182.5-200c1.63-.81 2.97-1.48 3.98-1.99-.88-2.23-1.6-4.07-2.41-6.15-1.79 2.52-3.36 4.81-1.57 8.14zm-125.27 113.6c-2.13-1.28-2.44-4.97-5.5-3.22-.89.51-.66 2.98-1.05 5.11 1.93-.49 2.85-.69 3.74-.95.79-.23 1.56-.52 2.81-.94zm2.84-52.07c1.44 3.57 2.37 3.9 6.08 2.48.54-.21 1.32-1.07 1.22-1.38-.21-.66-.93-1.61-1.45-1.62-1.88-.02-3.77.31-5.85.52zm32.6-97.62c.26.15.51.31.77.46 1.09-1.57 2.18-3.14 3.27-4.7-1.45-.75-2.89-1.49-5.04-2.6.44 3 .72 4.92 1 6.84zm23.5 35.01c.08-2.97-1.98-3.65-3.92-3.71-.65-.02-2.18 2.32-1.89 2.94 1.29 2.8 3.56 1.55 5.81.77zm56.56 33.31c2.8-1.68 4.68-2.82 7.04-4.23-2.9-.79-5.28-2.26-7.14.33-.5.68.01 2.09.1 3.9zm-113.74-80.8c.23.61.46 1.22.7 1.83 2.06-.61 4.14-1.15 6.15-1.89.3-.11.24-1.17.35-1.78-1.62.13-3.26.14-4.84.46-.84.17-1.57.9-2.36 1.38zm172.97 9.5c.79-1.16 1.62-2.11 2.08-3.22.16-.37-.69-1.66-.95-1.62-1.6.22-3.16.7-5.47 1.28 1.82 1.48 2.85 2.33 4.34 3.56zm-181.2 212.61c-.3.31-.6.61-.9.92.49 1.89.99 3.77 1.48 5.65 2.67-.19 3.15-2.13 2.66-3.63-.4-1.2-2.11-1.97-3.24-2.94zm50.04-203.63c1.19-1.51 2.28-2.9 3.37-4.29-1.01-.22-2.34-.95-2.97-.56-1.37.84-3.45 1.97-.4 4.85zm85.36 53.07c-.79-3.2-2.92-3.2-4.86-2.69-.63.16-.87 1.82-1.5 3.31 2.6-.26 4.33-.43 6.36-.62zm-10.54 90.79c-2.02-1.6-3.43-2.73-5.11-4.06v5.59c1.7-.52 3.06-.92 5.11-1.53zm12.8-131.92c-.61-3.31-2.83-3.35-5.22-3.14-.38 3.14-.08 3.32 5.22 3.14zm-134.68 55.79c.11-.42.22-.85.33-1.27-1.47-.46-2.92-1.16-4.41-1.22-.4-.02-.89 1.88-1.56 3.41 2.43-.4 4.04-.66 5.64-.92zm13.63 56.7c.06-3.21-1.82-3.4-4.23-3.29v3.29zm-1.4 98.69c1.48.13 2.83.25 4.18.37.16-.37.33-.74.49-1.12-1.43-1.01-2.85-2.03-4.67-3.32zm112.03-193.34c.16-.33.32-.66.48-.99-.49-1.32-.97-2.64-1.46-3.96-.3-.06-.59-.11-.89-.17-.49 1.42-.97 2.84-1.46 4.26 1.12.3 2.23.58 3.33.86zm-61.78 250.26c2.01-.36 4.02-.73 6.03-1.09-.05-.26-.1-.52-.16-.78-2 .69-4.8-2.81-5.87 1.87zm-20.61-276.02c-.08-.26-.17-.51-.25-.77-4.49.63-8.99 1.26-13.48 1.89.03.24.07.48.1.72 4.54-.62 9.08-1.23 13.63-1.84zm90.16 105.05c-1.66-.94-2.87-1.62-4.44-2.51v4.04c1.47-.5 2.69-.92 4.44-1.53zm-156.09-105.11c.07.27.14.54.21.81 2.78-.45 5.56-.9 8.33-1.34-.08-.41-.15-.82-.23-1.23-2.77.59-5.54 1.17-8.31 1.76z"/><path d="m180.24 227.02c-.51.16-.94.24-1.3.43-3.12 1.62-5.13 1.37-7.75-1.83-3.94-4.82-10.26-4.88-16.12-5.17-3.41 3.83-7.57 2.58-11.99 1.12.96-.48 1.88-1.29 2.88-1.4 5.02-.53 7.54-3.32 8.44-8.18.49-2.63 1.68-5.13 2.63-7.94 4.01 6.13 4.33 6.32 8.22 4.98.42-4.36-3.67-6.12-5.49-9.43 2.47-1.41 4.93-2.82 7.8-4.46-3.27-3.19-2.67-7.06-2.19-10.94.3-2.45.66-4.69 3.26-6.01 1.02-.51 1.63-1.88 2.33-2.93.34-.51.5-1.17.65-1.79.85-3.49.83-7.59 2.76-10.32 1.77-2.5 5.63-3.53 8.88-5.38-4.54-7.16-3.61-15.45-3.85-23.55-.16-5.53-1.34-10.63-4.81-15.15-2.26-2.94-2.39-4.72-1.65-8.63.9.25 1.8.44 2.65.75 11.64 4.22 23.3 8.41 34.9 12.75 1.49.56 2.92 1.67 3.99 2.88 2.81 3.17 5.4 6.54 8.09 9.82 1.93 2.35 4.29 4.49 3.56 8.05-.09.44.15 1.1.47 1.46 4.89 5.69 2.75 11.99 1.43 18.1-1.36 6.29-3.17 12.48-4.71 18.74-.65 2.64-5.76 6.05-9.83 6.2-.33-.99-.69-2.06-1.04-3.14s-.69-2.17-.49-3.9c1.18.65 2.36 1.29 4.22 2.31 2.59-1.11 1.7-4.61 3.31-7.23-2.76-.11-4.76-.19-6.71 1.81-1.35 1.39-3.66 2.02-5.65 2.57-2.38.66-3.74 1.93-3.78 4.4-.03 2.43-.22 4.95 3.04 5.78 2.97.75 6 1.47 8.77 2.71 1.68.75 3.18 2.28 4.31 3.79.96 1.3.81 2.82-.72 4.17-3.58 3.18-4.53 7.25-3.35 11.87.21.81.3 1.67.33 2.51.27 6.2-.86 7.26-6.88 6.61-2.42-.26-4.92-.13-7.27-.7-3.27-.79-4.7 1-5.92 3.43-1.36 2.72-2.7 5.45-4.09 8.27-1.72-.8-3.03-1.41-4.26-1.99-2.75 2.5-3.07 5.1.05 8.49-2.18-.21-3.34-.32-4.63-.44-.57-4.56.88-9.35-2.49-13.49zm11.06-55.45c-2.74 3.12-5.29 6.02-7.83 8.91.75.93 1.21 1.5 1.68 2.07.34.41.65.85 1.05 1.19 1.41 1.21 2.05 3.14.68 4.06-1.12.76-3.9.72-4.8-.15-3.03-2.95-5.42-1.17-9 .67 2.21 2.07 4.06 3.81 6.17 5.79-.13.61-.37 1.73-.61 2.88-6.88-2.99-6.88-2.99-8.56-2 4.29 4.09 6.39 9.16 6.81 14.99.08 1.15.41 2.29.72 3.41.66 2.44 2.8 3.17 4.79 1.56.86-.69 1.47-1.67 2.19-2.52-.81-.97-1.41-1.7-2.1-2.52 1.71-2.73 3.38-5.42 5.04-8.07-2.21-4.39-1.34-7.39 2.6-8.69 1.28-.42 2.71-.38 4.07-.61 2.02-.35 4.03-.75 6.12-1.14-.3-2.01-.52-3.47-.8-5.34-1.02 1.37-1.7 2.27-2.36 3.15-4.99-2.82-4.99-3.77-.15-9.83-1.84-2.52-3.71-5.07-5.71-7.81zm-2.74-27.65c-1.16 2.82-2.32 5.52-3.36 8.28-.19.5.05 1.23.26 1.79.44 1.18 1.2 2.28 1.47 3.49.98 4.48-.08 5.93-3.9 5.99-1.78.03-3.55.83-5.33 1.28-.06.4-.13.8-.19 1.2 4.1 1.62 8.19 3.24 12.5 4.95 2.35-5.56 4.62-10.89 6.86-16.23.16-.37.28-.82.23-1.2-.43-3.13-5.97-8.95-8.54-9.55zm5.22-9.97c.89 2.57 1.57 5 2.6 7.27.52 1.15 1.95 2.93 2.54 2.78 1.29-.34 2.69-1.52 3.34-2.73 1.48-2.76 2.54-5.75 3.78-8.63 1.22-2.82.57-4.75-1.96-5.74-3.06 4.95-3.06 4.95-10.3 7.05zm6.6 28.54c5.19.28 3.24-4 4.45-6.35 1.62.88 2.92 1.91 4.39 2.29 1.21.31 2.8.16 3.86-.43.5-.28.38-2.12.15-3.16-.53-2.36-5.36-5.1-7.93-4.66-3.72.64-5.64 2.92-5.43 6.56.1 1.88.32 3.75.51 5.75zm-.46 37.37c-3.61-4.2-3.9-4.25-8.87-1.6.81 1.18 1.62 2.34 2.7 3.91-1.66 1.31-3.25 2.55-4.59 3.61.83 3.82 3.4 5.08 6.21 5.85 2.77.76 5.09-1.37 4.17-4.07-.6-1.77-2.3-3.17-3.55-4.8 1.08-.81 2.5-1.85 3.93-2.9zm-2.99 17c-5.73-1.75-10.2-.86-12.01 2.07-1.12 1.81.28 7.96 2.42 10.08 1.42-.85 2.89-1.73 4.59-2.74-1.33-1.17-2.27-2-3.45-3.05 2.76-2.09 5.43-4.09 8.45-6.36zm7.27-4.63c2.31-.45 4.45-.65 6.42-1.34.98-.34 2.37-1.65 2.3-2.4-.13-1.4-.88-3.16-1.96-3.92-1.06-.74-3.12-.97-4.28-.43-3.61 1.66-3.77 2.62-2.48 8.09zm-2.43-32.63c4.73-2.02 5.1-2.64 4.98-7.79-.05-2.3-1.12-3.72-3.44-4.25-3.24 3.66-3.15 7.63-1.54 12.04zm-5.78-53.81c-1.71-3.42-2.96-3.82-7.4-2.56.46 1.46.92 2.91 1.44 4.55 2.12-.71 3.9-1.3 5.96-1.99zm25.77 36.68c-3.97-3.3-5.01-3.32-10.01-.3 1.48 2.36 3.01 2.42 10.01.3zm-63.48 50.09c-.18.32-.37.65-.55.97 1.53 5.19 1.91 5.39 7.67 2.95-2.77-1.53-4.95-2.73-7.12-3.92zm56.17-43c-.43-.12-.85-.24-1.28-.36-.44 1.15-.88 2.29-1.32 3.44 1.57.24 3.14.49 4.7.73.07-.31.14-.62.22-.93-.77-.97-1.54-1.92-2.32-2.88z"/><path d="m299.67 284.64c.6-2.2.69-4.72 1.46-4.95 1.99-.6 4.33-.45 6.45-.11 2.37.37 4.65 1.28 6.94 1.95v3.28c4.42.64 6.39-.66 8.87-5.76-5.75-4.36-6.29-4.43-10.7-1.67-2.75-1.22-5.4-2.01-7.57-3.49-1.25-.85-1.98-2.75-2.46-4.33-.15-.51 1.12-1.78 1.99-2.21 3.49-1.73 7.08-3.26 10.84-4.96-1.67-1.55-3.12-2.89-4.73-4.39 1.41-1.71 2.56-3.37 4-4.71.57-.53 1.88-.68 2.7-.45 3.78 1.03 6.3-1 5.64-5.03-.47-2.86-1.5-5.63-2.35-8.72 3 .47 4.51 2.08 4.57 4.85.05 2-.3 4.01-.39 6.01-.22 4.79-.39 9.57-.59 14.74-2.69.64-7.11-.54-8.52 4.59 2.4 1.62 4.93 3.27 7.39 5.02 3.54 2.52 3.88 7.62.43 10.28-2.04 1.58-4.53 2.68-6.97 3.62-1.72.66-3.51.82-5.04-1.18-.7-.91-2.65-.94-4.07-1.19-2.45-.47-4.94-.76-7.89-1.19z"/><path d="m305.23 360.74c-1.75-.38-3.35-.74-4.92-1.08-2.51 7.37-2.51 7.37-8.73 5.59-.55-6.5 2.08-11.06 8.58-13.57.25 1.77.48 3.48.83 5.93 3.66-.52 7.2-1.02 10.43-1.48 1.73.54 3.42 1.56 5.06 1.49 4.07-.18 5.34.51 6.04 4.49.2 1.13.19 2.29.3 3.72-2-.14-3.69.41-4.66-2.14-.9-2.37-6.16-2.54-7.47-.51-.92 1.43-1.31 3.41-3.93 2.64-2.98-.89-1.51-2.95-1.53-5.08z"/><path d="m94.31 54.25c-7.21-3.91-9.51-10.07-9.53-17.59.28-.13.66-.34 1.06-.46.29-.09.61-.06.69.34 2.37 2.92 4.96 5.45 9.88 5.72 1.73 3.6-.37 7.47-2.1 11.99z"/><path d="m70.48 168.24c0-7.02 0-13.84 0-20.66.36-.08.72-.16 1.08-.24.78 2.41 1.91 4.77 2.25 7.23.48 3.42.6 6.94.42 10.4-.14 3.07-.43 3.07-3.75 3.27z"/><path d="m319.57 290.78c5.8 1.57 7.8 7.37 4.43 12.47-5.4-2.81-6.43-5.59-4.43-12.47z"/><path d="m296.41 260.36c1.3 2.87 2.37 5.22 3.61 7.93-2.93.71-5.54 1.43-8.19 1.94-.62.12-1.7-.31-1.97-.81-.28-.52-.1-1.65.32-2.15 1.88-2.25 3.91-4.38 6.23-6.91z"/><path d="m251.24 365.01c-.77-2.05-1.43-4.01-2.25-5.9-.84-1.94.09-3.39 1.71-3.55 1.17-.12 3.13.88 3.63 1.91 1.48 3.07.36 5.65-3.09 7.54z"/><path d="m284.66 360.1c.15 4.34-3.81 6.73-8 5.77-.05-.87-.14-1.8-.15-2.73 0-.8.1-1.61.17-2.76 1.98.91 3.66 1.68 5.02 2.3 1.08-.94 2.02-1.76 2.96-2.58z"/><path d="m69.72 200.63c0-8.32 0-16.64 0-24.97.4-.16.81-.31 1.21-.47.65 1.08 1.3 2.16 1.95 3.23-.25.16-.51.32-.76.48-.34-.49-.68-.97-1.64-2.35v23.98c-.26.04-.51.07-.76.1z"/><path d="m73.12 241.04c.26-1.89.54-3.86.77-5.52 2.65 1.04 5.35 2.11 8.05 3.17.03.32.05.63.08.95-2.89.46-5.79.91-8.9 1.4z"/><path d="m72.11 247.26c2.39 11.3 2.29 12.06-1.97 13.47.63-4.32 1.23-8.43 1.97-13.47z"/><path d="m102.97 219.92c3 1.89 5.47 3.58 4.27 7.35-3.4.05-3.72-.47-4.27-7.35z"/><path d="m88.55 78.78c5.67-.62 6.53-.37 7.86 2.12-3.33 1.82-5.11 1.39-7.86-2.12z"/><path d="m70.94 137.7c6.89-1.44 8.08-.99 11.07 4.4-.94-.86-1.61-1.81-2.52-2.21-1.18-.51-2.55-.65-3.86-.8-1.6-.18-3.21-.2-4.82-.29.04-.36.09-.73.13-1.1z"/><path d="m83.52 146.79c-1.88 2.47-3.94 5.17-5.51 7.24.01-5.45 1.52-7.41 5.51-7.24z"/><path d="m77.34 50.92c.63-2.45 1.06-4.13 1.67-6.51 1.13 1.6 1.92 2.71 2.91 4.1-1.4.73-2.64 1.38-4.58 2.41z"/><path d="m76.73 180.59c.6-3.09 1.19-6.18 1.79-9.26.38.07.76.15 1.14.22-.67 3.04-1.34 6.08-2.01 9.12-.31-.02-.62-.05-.92-.08z"/><path d="m85.26 90.61c2.54 2.94 2.55 4.13 0 6.08 0-2.01 0-3.79 0-6.08z"/><path d="m80.71 39.27c-2.41-1.07-4.21-1.87-6.21-2.75 3.47-1.84 4.06-1.61 6.21 2.75z"/><path d="m242.78 348.14c.97-.38 1.94-.76 3.06-1.2.57.85 1.08 1.61 1.55 2.32-1.13 1.73-3.42 1.15-4.61-1.12z"/><path d="m160.83 319.32c1.45 1.51 2.66 2.77 3.91 4.07-3.18.87-3.28.78-3.91-4.07z"/></g></svg>