<svg enable-background="new 0 0 400 400" viewBox="0 0 400 400" xmlns="http://www.w3.org/2000/svg"><g fill="#010103"><path d="m306.02 247.9c-2.39-1.18-4.47-2.05-6.4-3.18-4.1-2.41-8.05-5.1-12.2-7.41-4.16-2.31-8.62-2.9-13.48-2.52-5.32.41-10.78.11-16.09-.58-6.05-.78-11.83-.2-17.54 1.66-2.6.84-3 3.16-2.96 5.4.17 11.44.43 22.87.71 34.3.06 2.49 1.73 3.74 4.01 2.79 1.81-.76 3.67-1.78 5.05-3.15 7.29-7.22 14.4-14.62 21.66-21.88 1.23-1.23 2.85-2.05 4.3-3.06.31.22.61.45.92.67-1.83 3.2-3.2 6.81-5.58 9.52-7.97 9.08-16.32 17.83-24.5 26.73-3.85 4.19-3.92 7.86.76 10.75 8.79 5.42 14.88 13.43 21.6 20.89.63.7 1.25 1.48 2.03 1.99 14.35 9.49 26.41 21.37 36.65 35.13 1.35 1.82 2.22 3.99 3.41 6.16-3.39 1.22-4.18-.46-4.31-2.31-1.32-.8-2.44-1.2-3.18-1.97-3.67-3.82-6.95-8.07-10.92-11.54-5.81-5.08-12.08-9.62-18.17-14.38-.83-.65-1.97-1.06-2.55-1.87-5.38-7.5-14.44-10.92-20.02-18.28-2.78-3.66-6.77-6-11.73-6.51-2.5 5.34-3.24 10.95-3.34 16.7-.19 10.49-.31 20.97-.65 31.45-.09 2.73-.58 5.52-1.42 8.11-.58 1.78-2.1 3.25-3.19 4.86-.43-.15-.85-.3-1.28-.45-.51-3.53-1.36-7.05-1.48-10.59-.41-11.32-.71-22.65-.74-33.97-.02-5.71-1.52-9.02-5.65-10.6-2.02-.77-3.42-.38-5.14 1.02-8.2 6.7-16.26 13.63-24.94 19.66-8.29 5.76-17.27 10.53-26.73 16.2.76-1.6 1-2.95 1.8-3.67 14.96-13.18 29.95-26.31 45.03-39.35 1.73-1.49 3.89-2.56 5.99-3.54 6.62-3.09 8.66-8.96 5.5-15.64-2.48-5.25-5.76-9.83-10.09-13.69-7.7-6.86-13.65-15.05-18.01-24.37-.88-1.87-1.24-3.98-1.84-5.98.39-.2.77-.41 1.16-.61 2.85 2.91 5.77 5.75 8.52 8.74 5.37 5.84 10.69 11.73 15.96 17.66 3.01 3.39 4.13 4.14 8.57 4.75.54-3.03 1.34-6.07 1.59-9.16.56-6.84.94-13.7 1.21-20.56.09-2.37.06-4.91-.67-7.12-1.55-4.7-3.53-9.26-5.44-13.84-2-4.79-3.4-9.4-.89-14.62 3.09-6.42 14.67-12.85 21.49-11.38.31.07.66.11.91.28 7.83 5.43 15.36 1.38 22.74-1.04 3.65-1.2 5.01-4.99 5.4-8.73.36-3.38-.43-5.94-3.42-8.49-4.85-4.13-10.14-2.76-15.38-2.82-4.23-.05-8.48.06-12.71.31-4.55.26-9.09 1.07-13.63 1.04-2.69-.02-5.37-1.18-8.06-1.83.02-.39.04-.77.06-1.16 10.93-2.06 21.86-4.12 32.8-6.14.47-.09 1.07.1 1.52.32 5.52 2.71 11.33 2.14 17.15 1.59 4.05-.39 7.52.91 10.38 3.76 3.41 3.39 3.07 7.78 2.77 11.97-.77 10.74-7.87 16.89-16.65 21.32-2.08 1.05-5.15.08-7.76.11-4.61.05-9.26-.14-13.83.34-4.06.42-7.09 2.73-8.18 6.94-1.15 4.4.03 7.7 3.93 10.46 7.22 5.09 15.21 7.21 24.03 5.94 4.9-.7 9.82-1.9 14.6.56.18.09.42.12.62.1 9.65-1.2 15.89 6.07 23.56 9.68 2.49 1.17 3.41 4.15 2.36 8.13z"/><path d="m96.53 175.06c6.76-.1 13.13-3.28 20.23-1.49 2.74.69 6.02-.4 8.95-1.11.88-.21 1.68-1.81 2.03-2.93 1.5-4.71.31-9.23-1.46-13.61-2.61-6.45-5.27-12.81-9.08-18.76-3.84-5.99-5.19-12.87-4.13-20.13.75-5.16 3.84-8.77 7.22-12.32 1.35-1.42 3.01-2.8 3.72-4.53 1.28-3.11 3.16-5.4 6.16-6.85 4.22-2.05 7.21-5.3 9.68-9.29 1.99-3.22 4.64-6.04 6.94-9.08 4.09-5.43 5.99-11.25 3.87-18.12-1.28-4.12-1.94-8.44-2.9-12.79 7.98 3.86 12.32 10.89 11.7 19.39-.31 4.32-1.06 8.62-1.8 12.89-.76 4.36-2.75 8.01-5.95 11.27-4.25 4.33-8.5 8.49-13.93 11.4-1.83.98-3.53 2.85-4.47 4.73-2.31 4.62-4.31 9.41-6.13 14.26-2.58 6.91-.49 9.58 6.72 8.38 2.82-.47 5.5-1.89 8.16-3.07 4.51-2.01 8.95-4.17 13.59-6.35 1.08 2.65.46 4.04-1.69 5.23-5.38 2.96-10.71 6.03-15.95 9.23-5.94 3.62-7.95 8.65-6.34 15.15.08.31.03.71.21.92 4.33 5.14 4.67 11.64 6.24 17.75 1.51 5.86 5.41 8.48 13.44 8.73 5.91.19 11.84-.37 17.76-.69 3.19-.17 5.6-1.58 7.8-4.12 6.76-7.81 15.73-12.35 25.17-16.12 12.15-4.85 24.96-7.35 37.45-10.95 9.48-2.73 18.61-7.05 27.43-11.59 6.45-3.33 10.07-9.26 9.47-17.05-.17-2.14-.17-4.3 2.47-5.34 2.94 3.06 3.55 6.42 3.04 10.73-1.28 10.83-7.86 17.22-16.85 21.77-13.23 6.69-27.13 10.94-41.95 12.88-5.87.77-11.38 4.72-16.89 7.53-1.68.85-.76 6.24 1.51 8.2 1.87 1.62 4.2 2.72 6.53 4.17-4.12.85-4.72 4.23-5.46 7.84-.73 3.58-2.2 7.02-3.31 10.52-.35 1.09-.72 2.2-.87 3.33-.99 7.57-3.32 14.7-7.5 21.06-1.6 2.43-4.12 4.25-6.63 6.05-1-4.65.5-8.47 2.3-12.28.74-1.57 1.25-3.28 1.6-4.98.34-1.63-.15-3.58.57-4.97 2.79-5.42 2.92-11.14 2.78-17.01-.15-6.33-.03-12.68-.03-19.11-3.73-.5-6.75-.22-9.92 1.76-5.15 3.21-9.3 7.14-12.58 12.25-3.16 4.92-6.59 5.08-11.08 1.31-.91-.76-2.46-1.21-3.65-1.11-4.85.39-9.67 1.22-14.53 1.56-2.75.19-3.9 1.76-4.74 3.93-2.04 5.26-1.48 10.65-.59 16 1.26 7.66 2.03 8.48 9.92 8.91 5.91.32 11.86-.02 17.79.03 3.34.03 6.55.65 9.03 3.19.33.34.49.85 1.05 1.88-6.8 0-13.1 0-19.41 0-4.03 0-8.07-.13-12.09.09-1.08.06-2.44.96-3.09 1.88-1.99 2.85-2.54 6.08-2.53 9.61.04 18.98-.11 37.96-.26 56.94-.01 1.67-.27 3.4-.75 5.01-.59 1.97-1.9 3.24-4.88 2.72-.42-6.81-.94-13.64-1.21-20.48-.14-3.59.17-7.2.25-10.81.02-.73.17-1.7-.21-2.16-2.59-3.15-1.74-6.86-1.76-10.38-.03-7.1.25-14.21.15-21.31-.11-7.84-2.67-11.02-9.84-11.22-6.23-.17-12.48.41-18.7.25-4.19-.11-8.39-.75-12.52-1.5-1.65-.3-3.14-1.53-5.23-2.62 5.44-2.76 10.58-2.33 15.72-2.27 8.25.1 16.51.08 24.76-.12 1.04-.03 2.6-1.23 2.97-2.24.75-2.03 1.21-4.3 1.16-6.46-.1-4.76-.65-9.52-.9-14.28-.1-1.84-.79-2.82-2.66-3.32-6.28-1.68-12.53-3.01-19.12-1.92-2.67.44-5.51.38-8.19-.01-1.5-.22-2.84-1.58-4.25-2.43.14-.47.3-.96.47-1.45z"/><path d="m171.42 226.75c3.52 3.24 5.68 6.87 6.66 11.17.19.82-.06 2.05-.6 2.65-1.8 2.02-2.05 4.35-1.8 6.82 1.29 12.68-2.1 24.73-6.18 36.35-2.23 6.35-6.64 12.35-14.1 14.54-2.64.77-5.23 1.72-7.85 2.56-2.47.79-4.88 2.24-7.6.81-.23-.12-.63-.02-.91.07-7.51 2.57-13.67-1.46-20.05-4.2-1.54-.66-2.8-1.93-4.32-2.67-4.51-2.2-6.58-6.23-9.26-10.24-3.94-5.91-4.99-12.68-7.76-18.88-.53-1.2-.6-2.64-.7-3.99-.22-3.15-.36-6.3-.47-9.46-.03-.92 0-1.9.27-2.77 1.34-4.35 2.5-8.79 4.26-12.96 1-2.36 3.04-4.27 4.97-6.87 2.1 4.44 2.3 8.24 1.28 11.74-1.81 6.15-.8 12.15-.09 18.23.12 1.05.43 2.14.26 3.15-1.9 11.63 3.96 19.68 12.64 25.87 9.3 6.62 19.88 7.03 30.69 4.28.87-.22 1.87-.7 2.41-1.38 8.78-10.92 15.08-22.77 15.57-37.29.3-9.04 1.72-18.04 2.68-27.53z"/><path d="m277.41 84.56c3.36 2.95 4.14 5.22 2.15 9.46-2.99 6.38-6.14 12.59-13.69 15.28-6.76 2.4-12.92 7.02-19.8 8.4-7.28 1.45-13.94 5.73-21.84 4.71-2.6-.33-5.58.93-8.16 2-6.93 2.86-13.89 5.73-20.55 9.15-3.78 1.94-7.08 4.86-10.46 7.51-3.18 2.5-6.19 5.23-9.53 8.08-1.56-3.06-1.16-4.84.79-6.38 8.21-6.5 16.34-13.12 24.65-19.49 1.96-1.5 4.46-2.45 6.86-3.22 15.72-5 31.2-10.77 47.55-13.72 3-.54 5.88-3.33 8.19-5.69 3.85-3.92 7.18-8.35 10.74-12.55 1.01-1.21 2.07-2.37 3.1-3.54z"/><path d="m177.26 117.4c.62-.78 1.19-1.61 1.88-2.34 6.98-7.4 13.95-14.81 21.01-22.14 1.06-1.1 2.48-1.95 3.87-2.63 14.99-7.27 30.73-12.62 46.56-17.64 5.34-1.7 8.93-5.14 11.49-9.83 3.63-6.66 5.34-13.77 4.64-21.41-.21-2.25-.62-4.68 1.79-6.48 2.72 2.48 3.6 5.78 3.81 9.11.28 4.53.14 9.1-.03 13.64-.12 3.02-1.47 5.47-3.46 7.92-8.55 10.49-19.43 16.96-32.34 20.73-9.83 2.87-19.43 6.55-29.06 10.06-2.12.77-4.14 2.13-5.87 3.61-5.71 4.89-11.16 10.08-16.93 14.9-1.85 1.55-4.35 2.33-6.56 3.46-.27-.33-.53-.65-.8-.96z"/></g><path d="m6.4 11.7c-1-.8-1.9-1.6-2.9-2.3l.6-.7c.9.7 1.9 1.4 2.9 2.2zm-2.1 8.3c.7-2.1 1.4-4.2 2-6.4.2.1.6.3 1 .4-.7 2.3-1.3 4.4-1.9 6.4zm3-12.8c-1.1-.9-2.1-1.7-2.9-2.4l.6-.7c1 .8 2 1.5 3 2.4zm1.4-1.3v-.9h10.2v.9c-.9 4.2-2.3 7.3-4.1 9.4 1.3 1.4 3.2 2.7 5.7 4-.2.2-.4.5-.7.9-2.5-1.4-4.4-2.7-5.7-4.2-1.4 1.5-3.5 3-6.1 4.4 0 0 0 0-.1-.1-.3-.4-.5-.7-.7-.8 2.7-1.3 4.7-2.8 6.2-4.2-1.8-2.2-3-5.3-3.7-9.4zm9.2 0h-7.1c.6 3.8 1.7 6.7 3.4 8.7 1.7-2 2.9-4.8 3.7-8.7z" fill="#fcfbfa"/><path d="m31.6 3.6h.9v2.3h4.1v9.1h1.7v.9h-16.6v-.9h1.7v-9.1h4.1v-2.3h.9v2.3h3.1v-2.3zm-4 13.3.6.8c-1.9.9-3.8 1.9-5.8 2.8-.2-.3-.3-.6-.5-.9 2-.9 3.9-1.8 5.7-2.7zm-3.2-10.1v3.7h3.1v-3.7zm0 4.5v3.7h3.1v-3.7zm4.1-4.5v3.7h3.1v-3.7zm0 4.5v3.7h3.1v-3.7zm9.1 9.1c-2.1-1.1-4.1-2-5.8-2.7l.5-.8c2.2.9 4.1 1.8 5.8 2.6zm-1.9-13.6h-3.1v3.7h3.1zm-3.2 4.5v3.7h3.1v-3.7z" fill="#fcfbfa"/></svg>