<svg enable-background="new 0 0 400 400" viewBox="0 0 400 400" xmlns="http://www.w3.org/2000/svg"><g fill="#010103"><path d="m135.49 170.44c9.32-5.99 15.52-14.18 19.29-24.36.72-1.94 2.16-3.63 3.37-5.37 2.74-3.96.23-7.53-3.15-9.37-3.39-1.85-6.95-3.42-10.31-5.33-2.57-1.46-4.87-3.41-7.45-4.86-5.49-3.09-9.79-7.22-12.79-12.82-.91-1.69-2.98-2.72-4.08-4.34-1.03-1.54-2.49-3.89-1.97-5.13.92-2.16 3.51-1.99 5.56-.89 1.64.88 3.29 1.84 4.69 3.05 6.28 5.37 12.29 11.07 18.75 16.2 4.91 3.91 10.67 6.36 17.15 4.62 1.92-.52 4.09-1.99 5.11-3.65 2.83-4.64 3.55-9.95 3.03-15.32-.12-1.21-1.18-2.66-2.23-3.39-3.39-2.36-6.89-4.59-10.5-6.57-3.82-2.09-6.91-4.68-8.7-8.81-.57-1.32-2.18-2.19-3.34-3.24-3.96-3.58-7.52-7.41-8.12-14.16 2.36.86 4.5 1.15 5.96 2.29 2.48 1.93 4.92 4.15 6.68 6.72 4.78 6.96 12.16 9.04 19.5 11.62 3.69-7.06 2.83-14.03 1.76-21.12-.86-5.73-1.13-11.56-1.73-17.33-.09-.88-.38-1.84-.87-2.56-2.34-3.43-2.66-7.2-2.24-12.29 1.9 1.87 3.37 2.98 4.41 4.41 1.62 2.19 2.79 4.71 4.43 6.88 4.12 5.44 5.06 11.82 5.45 18.3.38 6.33.47 12.68.45 19.02-.02 5.15.74 5.76 5.75 7.07 6.21 1.62 11.55.82 16.56-3.27 2.11-1.72 4.58-3.09 7.05-4.29 3.14-1.52 6.43-2.74 9.69-3.99.45-.17 1.54.12 1.6.37.17.73.29 1.93-.13 2.27-8.3 6.85-15.34 15.96-27.68 15.77-1.36-.02-2.75.23-4.1.51-4.39.9-7.79 2.67-8.81 7.75-1.08 5.38-2.87 10.62-4.33 15.93-.95 3.46.85 6.03 4.42 6.3.53.04 1.08.11 1.59 0 8.98-1.93 18.1-3.39 26.84-6.08 3.28-1.01 6.54-2.44 9.95-3.37 1.32-.36 2.32-1.76 3.57-2.51 1.52-.91 3.15-1.64 5.26-2.72.07 3.62-.68 5.65-3.16 7.2-4.58 2.87-8.92 6.11-13.47 9.02-1.37.88-3.07 1.34-4.68 1.77-8.53 2.26-17.2 3.53-26.04 3.65-7.05.1-12.19 3.39-14.73 10.05-2.27 5.98-6.96 10.02-10.91 14.69-2.47 2.92-4.51 6.21-6.44 8.9 8.48 3.17 16.27 6.03 24.01 9.04 1.31.51 2.52 1.52 3.5 2.56 2.32 2.47 4.26 5.33 6.73 7.62 5.99 5.54 8.7 12.47 9.91 20.36 1.77 11.52 2.64 22.96-.81 34.31-3 9.84-8.26 18.16-16.28 24.79-2.67 2.21-4.47 5.45-7.02 7.83-4.55 4.24-7.68 9.45-11.24 14.44-3.4 4.77-2.29 10.82-5.82 15.27-.36.46-.09 1.44-.07 2.17.1 4.03.59 8.09.25 12.08-.99 11.51 3.62 20.47 11.75 28.15 3.39 3.2 6.9 5.8 11.59 6.75 1.75.35 3.31 1.64 4.95 2.51.63.34 1.23.93 1.89 1 5.88.69 11.83 2.11 17.64 1.71 8.39-.58 16.7-2.46 25.02-3.91 2.28-.4 4.47-1.31 6.75-1.78.66-.14 1.46.4 2.19.63-.37.67-.57 1.61-1.14 1.97-14.69 9.35-30.36 13.84-47.77 9.39-3.08-.79-6.13-1.69-9.23-2.34-7.92-1.65-14.16-6.38-20.44-11.02-.67-.49-1.46-1.14-1.68-1.87-2.55-8.41-10.38-14.09-11.59-23.28-1.22-9.29-.76-18.4 1.31-27.46 1.05-4.59 2.47-8.72 6.09-12.45 3.56-3.66 5.52-8.94 7.9-13.64 1.04-2.06 2.19-3.53 4.54-3.91 3.33-.53 5.76-2.32 7.68-5.11 2.04-2.97 4.18-5.91 6.64-8.52 4.89-5.2 7.62-11.35 8.88-18.25.24-1.34.28-2.72.34-4.09.15-3.17.34-6.33.35-9.5 0-2.3-.05-4.63-.47-6.88-.57-3.12-1.8-6.13-2.22-9.26-1.58-11.8-10.14-18.87-17.82-26.47-1.65-1.63-4.14-2.49-6.36-3.45-4.17-1.8-8.51-3.23-12.62-5.15-2.82-1.31-5.42-1.52-8.21-.2-1.81.9-3.63 1.41-5.03-1.26z"/><path d="m226.78 231.02c3.71 3.03 4.3 5.39 3.87 8.25-1.62 10.67.97 13.17 11.59 11.64 1.91-.28 3.94.09 5.9.29 3.55.35 7.08.83 10.62 1.21 2.18.23 3.47-1.08 3.95-2.93.76-2.94 1.32-5.96 1.75-8.97.65-4.6 1.69-5.87 6.59-7.18 2.24 5.44 2.56 11.17 2.77 16.98.4 10.81-4.1 20.15-9.59 28.78-3.69 5.81-10.55 7.4-17.27 6.63-12.62-1.44-20.03-9.31-24.2-20.79-3.54-9.74-2.52-19.39.76-28.91.64-1.83 2.16-3.34 3.26-5zm3.7 32.89c.53 1.46.72 3.21 1.67 4.32 3.03 3.57 5.81 7.7 11.49 7.24 1.45-.12 3.02.09 4.39.56 4.29 1.5 7.35-.43 10.17-3.28.74-.75 1.45-1.56 2.28-2.21 2.59-2 2.82-4.54 1.78-7.38-1.03-2.81-3.38-3.6-6.04-3.81-3.27-.25-6.6-.12-9.8-.73-4.52-.86-8.7-.54-12.99 1.19-2.13.87-2.77 1.97-2.95 4.1z"/><path d="m124.77 256.49c2.77-.74 5.51-1.85 8.33-2.14 6.42-.67 11.38-7.23 9-13.25-3.04-7.68-3.81-15.58-4.05-23.65-.01-.42-.01-.86-.1-1.27-2.49-11.44-2.01-10.75-12.76-10.43-3.35.1-6.58.03-8.9-3.27 2.01-1.99 3.79-4.12 6.92-1.94.23.16.76.02 1.11-.11 6.22-2.3 12.54-2.46 18.94-.88 5.04 1.24 10.11 2.38 15.07 3.86 1.67.5 3.28 1.71 4.52 2.98 2.07 2.1 3.82 4.5 5.69 6.8.32.39.7.85.76 1.32 1.02 8.26 1.8 16.56-2.68 24.15-1.3 2.2-3.05 4.38-5.1 5.86-6.66 4.83-12.81 10.71-21.12 12.62-4.38 1.01-8.97 1.14-13.48 1.53-.69.06-1.44-.61-2.16-.94.01-.41.01-.83.01-1.24zm24.28-48.98c-3.14.88-4.13 2.6-3.36 5.36.28 1.01.37 2.09.42 3.14.33 7.42 3.41 14.73.99 22.25-.87 2.7.49 4.42 2.5 5.46 2.03 1.05 3.89.02 5.24-1.75.96-1.26 1.9-2.54 2.82-3.83 5.76-8.08 5.42-18.12-1.25-25.31-2.1-2.26-5.08-3.7-7.36-5.32z"/><path d="m228.95 329.09c-1.51 1.16-2.86 2.81-4.57 3.39-9.23 3.15-18.58 5.85-28.48 5.79-8.67-.05-16.06-3.06-21.17-10.17-1.91-2.66-3.02-6.07-3.81-9.3-2.03-8.4-2.15-16.64 4.13-23.63 1-1.12 2.29-2.39 3.65-2.7 9.48-2.16 18.33-6.07 27.42-9.34.68-.24 1.62.24 2.5.4-2.43 2.56-4.68 4.78-6.73 7.19-.72.85-1.49 2.28-1.28 3.23 2.43 10.97 1.71 22.15 2.29 33.23.18 3.49 3.15 5.85 6.56 4.95 4.81-1.27 9.57-2.71 14.38-3.95 1.38-.36 2.88-.29 4.32-.42.28.43.53.88.79 1.33zm-53-16.47c1.04 2.52 2.8 5.93 3.86 9.56 1.72 5.87 6.68 7.75 11.47 8.94 7.59 1.88 8.74.25 7.51-7.49-1.25-7.89-5.07-15.23-4.33-23.59.3-3.36-4.65-5.39-7.79-3.71-3.21 1.71-5.42 4.17-6.62 7.73-.91 2.7-2.46 5.19-4.1 8.56z"/><path d="m263.34 208.66c-4.37-1.77-6.68-.54-7.98 3.26-.3.89-1.23 1.57-1.87 2.35-.85-.76-2.1-1.35-2.49-2.29-1.7-4.1-2.98-8.39-4.74-12.46-3.11-7.17-6.48-14.22-9.72-21.33-.83-1.82-1.63-3.67-2.36-5.54-2.63-6.73-6.93-11.78-13.87-14.4-7.02-2.66-13.89-5.81-21.63-5.76-.61 0-1.47-.08-1.79-.48-.83-1-1.91-2.16-2-3.32-.14-1.68 1.37-1.84 2.89-2.02 15.47-1.82 27.67 5.08 39.02 14.39 8.68 7.12 15.22 15.59 17.35 26.92.77 4.1 1.32 8.09 3.14 12.1 1.29 2.84 1.82 4.94 5.11 5.49.39.08.53 1.68.94 3.09z"/><path d="m229.12 195.53c6.45.29 9.57 3.59 8.63 7.91-.18.81-1.05 1.78-1.83 2.09-3.3 1.34-6.66 2.55-10.07 3.59-.8.24-2.37-.08-2.72-.67-1.83-3.05-1.14-6.43.62-8.98 1.4-2.02 4.16-3.1 5.37-3.94z"/><path d="m267.41 215.25c.08-.82.43-2.21.31-3.55-.32-3.62 2.75-5.06 4.84-5.1 2.13-.04 4.92 1.82 6.29 3.68 1.39 1.89.95 4.7-1.37 6.47-1.34 1.02-2.61 2.22-4.1 2.97-3.15 1.58-6.2-.48-5.97-4.47z"/><path d="m232.99 209.86c2 1.37 3.49 2.45 1.45 4.77-.42.48.12 1.74.05 2.62-.07.98-.33 1.94-.51 2.9-.33-.07-.66-.14-.99-.21 0-3.25 0-6.52 0-10.08z"/></g><path d="m6.4 11.7c-1-.8-1.9-1.6-2.9-2.3l.6-.7c.9.7 1.9 1.4 2.9 2.2zm-2.1 8.3c.7-2.1 1.4-4.2 2-6.4.2.1.6.3 1 .4-.7 2.3-1.3 4.4-1.9 6.4zm3-12.8c-1.1-.9-2.1-1.7-2.9-2.4l.6-.7c1 .8 2 1.5 3 2.4zm1.4-1.3v-.9h10.2v.9c-.9 4.2-2.3 7.3-4.1 9.4 1.3 1.4 3.2 2.7 5.7 4-.2.2-.4.5-.7.9-2.5-1.4-4.4-2.7-5.7-4.2-1.4 1.5-3.5 3-6.1 4.4 0 0 0 0-.1-.1-.3-.4-.5-.7-.7-.8 2.7-1.3 4.7-2.8 6.2-4.2-1.8-2.2-3-5.3-3.7-9.4zm9.2 0h-7.1c.6 3.8 1.7 6.7 3.4 8.7 1.7-2 2.9-4.8 3.7-8.7z" fill="#fcfbfa"/><path d="m31.6 3.6h.9v2.3h4.1v9.1h1.7v.9h-16.6v-.9h1.7v-9.1h4.1v-2.3h.9v2.3h3.1v-2.3zm-4 13.3.6.8c-1.9.9-3.8 1.9-5.8 2.8-.2-.3-.3-.6-.5-.9 2-.9 3.9-1.8 5.7-2.7zm-3.2-10.1v3.7h3.1v-3.7zm0 4.5v3.7h3.1v-3.7zm4.1-4.5v3.7h3.1v-3.7zm0 4.5v3.7h3.1v-3.7zm9.1 9.1c-2.1-1.1-4.1-2-5.8-2.7l.5-.8c2.2.9 4.1 1.8 5.8 2.6zm-1.9-13.6h-3.1v3.7h3.1zm-3.2 4.5v3.7h3.1v-3.7z" fill="#fcfbfa"/></svg>