<svg enable-background="new 0 0 400 400" viewBox="0 0 400 400" xmlns="http://www.w3.org/2000/svg"><path d="m212.25 346.29c.16-.9.3-1.8.49-2.7.38-1.75 1.27-3.55 1.08-5.23-.53-4.74-.47-5.54 3.82-7.39 3.3-1.42 5.52-3.59 7.12-6.77 2.74-5.46 6.49-10.37 7.94-16.53.5-2.13 2.59-3.91 6.22-3.36.13-3.04.23-6.1.4-9.15.03-.59.27-1.2.52-1.75.25-.58 1.04-1.39.89-1.61-2.11-2.96.76-5.5.55-8.22-.08-1.08-.73-2.58-1.59-3.07-3.84-2.22-7.86-4.14-11.79-6.21-.44-.23-.87-.67-1.07-1.12-1.53-3.48-4.53-4.84-7.95-5.52-2.85-.56-4.7-2.27-5.98-4.74-2.25-4.32-4.96-8.47-6.59-13.01-2.76-7.71-2.31-15.69-.57-23.65 2.11-9.64 7.31-17.61 13.85-24.62 3.5-3.76 8.61-4.77 13.85-5.28 4.53-.44 8.97-2 13.38-3.3.65-.19 1.27-1.72 1.29-2.65.1-5.7.21-11.42-.13-17.11-.08-1.31-1.69-3.26-2.98-3.64-3.37-1-6.64-2.04-10.53-.4-8.96 3.78-18.21 6.86-27.43 9.99-.94.32-2.42-.97-4.06-1.69-1.24.63-2.94 1.49-4.65 2.36-.18-.3-.37-.61-.55-.91 1.99-1.44 3.87-3.09 6-4.28 5.46-3.03 10.83-6.42 16.63-8.58 5.99-2.24 12.46-3.2 18.72-4.71 1.13-.27 2.51-.15 3.38-.77 2.16-1.56 5.43-3.2 5.78-5.24.51-2.96.68-6.76-2.53-9.3-2.65-2.1-4.88-4.74-7.54-6.83-5.48-4.28-9.57-9.56-12.08-16.01-.82-2.1-1.47-4.42-1.52-6.65-.18-8.08-3.85-12.68-12.25-14.6-.44 3.53-3.19 4.29-6.07 4.76-3.71.6-7.44 1.09-11.71 1.7.45-1.17.49-1.87.82-2.06 4.97-2.91 9.23-7.17 15.28-8.06 4.78-.7 8.7-5.23 9.06-9.95.38-5.03 1.06-10.03 1.64-15.04.43-3.68.7-7.4 1.4-11.03.69-3.61 1.59-7.22 2.84-10.67 1.5-4.14 3.46-8.12 5.26-12.15.28-.63.75-1.17 1.42-1.69.06 2.94 2.17 5.93.04 8.53.28.73.9 1.54.85 2.29-.27 3.7-.77 7.38-1.1 11.07-.2 2.26-1.17 3.03-3.89 2.34.47.87.73 1.99 1.44 2.57 2.39 1.96 2.74 4.24 1.23 6.75-2.83 4.72-1.59 9.81-.89 14.59.48 3.31 4.1 4.79 7.28 5.24 2.78.4 5.7.17 8.51-.19 6.83-.88 13.52-2.01 20.44.1 5.4 1.65 7.4-.1 8.82-5.58.37-1.43 1.56-2.65 2.08-3.49-.55-2.58-1.26-4.88-1.52-7.23-1.03-9.26-2.05-18.52-2.82-27.8-.33-3.96-.06-7.97-.06-12.26 3.24.47 4.94 2.18 5.73 4.72.63 2.01 1.17 4.12 1.25 6.21.15 3.79 1.03 7.29 2.97 10.55.26.44.41.99.45 1.5.74 10.72 1.83 21.43 2.04 32.16.15 7.57 3.16 12.74 9.62 16.31 1.47.81 2.59 2.27 3.87 3.44-.2.36-.4.71-.6 1.07-3.97-1.39-7.94-2.78-12.24-4.28-2.09 4.32-5.72 8.01-5.12 13.52.11 1-.63 2.14-1.13 3.14-1.27 2.52-3.08 4.87-3.86 7.53-1.16 3.91-3.33 6.78-6.65 8.91-2.67 1.72-5.42 3.32-8.09 5.03-3.7 2.38-5.22 6.81-3.58 10.84.35.85 1.3 1.64 2.16 2.06 9.41 4.59 19.17 8.54 28.19 13.8 7.9 4.61 14.97 10.63 22.37 16.08.64.47.99 1.32 1.48 2-.16.28-.32.55-.48.83-4.38-2.15-8.9-4.06-13.12-6.49-10.79-6.22-21.91-11.48-34.27-13.83-3.28-.62-4.77.29-5.6 3.54-1.46 5.7-1.19 11.31-.19 17.01.86 4.95 4.02 7.24 8.65 7.81 4.09.51 8.22.88 12.33 1.04 3.18.12 5.6 1.59 7.26 3.97 4.05 5.81 8.23 11.6 11.55 17.82 1.6 3 1.7 6.96 1.85 10.52.19 4.33-.18 8.69-.5 13.02-.24 3.22-.16 6.75-5.06 7.65 1.35.82 2.11 1.29 3.03 1.85-1.26 2.46-.5 5.97-4.31 6.76-.29.06-.48.63-.7.97-1.39 2.19-2.82 4.35-4.15 6.57-2.42 4.07-6.22 5.4-10.66 5.57-2.86.11-5.16 1.16-7.22 3.33-1.3 1.37-3.37 2.62-5.18 2.75-5.21.37-8.22 3.31-10.3 7.36 2.16 4.51 4.31 8.94 6.35 13.42.1.22-.77.88-1.23 1.38 7.86 7.11 13.93 15.61 18.88 24.92.84 1.59 1.11 3.49 1.74 5.55 2.27-.26 3.22 1.92 4.49 4.11 1.68 2.91 3.87 5.51 5.75 8.31 1.69 2.51 3.14 5.19 4.92 7.63 1.42 1.95 3.16 3.66 4.8 5.45 1.97 2.15 3.01 4.5 1.9 8.03-1.05-.93-1.82-1.53-2.5-2.23-1.99-2.05-3.72-4.42-5.94-6.17-10.49-8.27-17.61-19.42-25.82-29.66-2.37-8.81-11.36-12.75-15.12-20.62-1.42-2.97-6.34-2.55-8.48.77-4.19 6.47-8.09 13.14-11.98 19.8-.82 1.41-1.62 2.07-3.25 2.76-2.08.87-4.23 3.16-4.97 5.31-1.46 4.29-5.01 6.05-8.13 8.45-.83.64-1.73 1.2-2.6 1.8-.36-.04-.72-.09-1.07-.14zm37.51-249.26c-3.45 1.23-6.72.4-10.24 1.88-5.12 2.15-6.75 5.13-6.07 10.35 1.38 10.48 4.48 19.86 14.64 25.14.94.49 2.34.93 3.21.59 4.71-1.83 9.44-3.68 13.89-6.03 1.65-.87 3.27-2.98 3.66-4.8 1.45-6.74 2.52-13.57 3.37-20.42.13-1.01-1.51-3.04-2.61-3.27-6.56-1.35-13.22-2.33-19.85-3.44zm11.88 141.55c-5.63 5.17-7.2 11.42-6.29 18.58.21 1.63.41 3.56-.26 4.92-.84 1.71-.43 2.68.59 3.89 1.29 1.54 2.41 3.23 3.78 4.69.57.62 1.61 1.24 2.37 1.17 3.52-.32 7.18-.15 10.03-3.06 1.53-1.56 3.47-2.81 5.39-3.9 1.73-.98 3.7-1.54 6.03-2.47.8-.99 2.07-2.56 3.34-4.12-.45-.7-.47-1.47-.22-2.13 1.57-4.25 3.48-8.43 2.09-13.15-.58-1.96-1.45-2.56-3.87-2.41-7.62.45-15.44 2.08-22.98-2.01zm14.74-33.42c-.24-.1-.48-.21-.71-.31-1.21.08-2.46.39-3.61.19-2.28-.4-4.51-1.11-6.77-1.66-4.51-1.11-5.66-.48-7.09 4.01-.32.99-.24 2.1-.53 3.09-.7 2.37-1.51 4.7-2.41 7.45.06.05.79.61 1.51 1.17-.28.08-.57.15-.85.23.46 3.38.76 6.8 1.47 10.13.21 1.01 1.38 2.28 2.38 2.6 7.54 2.41 15.25 3.46 23.13 2 5.56-1.03 7.58-5 5.32-10.31-.33-.77-1.07-1.43-1.19-2.21-.2-1.29-.05-2.64-.05-3.63-4.23-3.51-8.59-7.12-13.84-11.47 1.47-.59 2.36-.93 3.24-1.28zm-27.72 3.26c-.88-1.08-1.79-3.33-3.25-3.76-2.79-.83-6.24-1.6-8.81-.68-10.51 3.73-18.38 10.26-20.28 22.13-.46 2.86 2.64 7.83 5.15 7.68 6.98-.44 13.95-1.02 20.93-1.39 1.8-.1 2.39-.92 3.13-2.42 3.28-6.61.78-13.9 3.13-21.56zm-1.59 49.48c0-2.89-.22-5.62.04-8.3.63-6.29-3.9-11.19-10.19-10.71-5 .38-9.9.35-14.71-1.51-2.66-1.03-7.02 2.64-6.44 5.11 2.88 12.24 9.71 20.83 22.08 24.68 6.92 2.15 6.91 2.33 7.15-4.94.07-2.04-.02-4.22 2.07-4.33z" fill="#010103"/><path d="m171.23 224.66c-.63 2.1-.89 4.41-1.94 6.28-6.39 11.37-9.59 23.95-13.71 36.16-2.4 7.11-5.42 13.69-10.06 19.61-3.6 4.58-6.76 9.49-10.22 14.18-.5.68-1.58.94-2.74 1.04-1.12 8.67-9.61 12.21-13.71 18.89-.15.25-.49.55-.75.56-4.27.18-4.69 3.88-6.28 6.62-1.03 1.77-2.29 3.56-3.86 4.84-4.73 3.89-9.66 7.54-14.5 11.29-.28-.16-.55-.32-.83-.47.55-1.11.8-2.61 1.69-3.28 6.52-4.88 11.3-11.17 14.98-18.3 3.57-6.93 7.96-13.23 12.79-19.36 3.49-4.44 5.74-9.83 8.75-14.67 2.96-4.74 6.24-9.26 9.27-13.95 2.42-3.74 4.43-7.64 4.16-12.34-.05-.82.53-1.72.95-2.52 2.09-4.02 4.17-8.05 6.35-12.02 1.76-3.2 3.67-6.31 5.7-9.78-1.87-3.45-.16-7.31 1.67-10.71 4.09-7.62 4.74-15.77 3.06-23.76-.78-3.69-4.51-7.05-8.89-8.24-9.37-2.54-18.79-4.93-28.15-7.51-3.42-.94-4.92-.42-6.13 2.78-1.42 3.76-4.13 7.66-3.79 11.26.34 3.61 3.56 7.06 5.86 10.33 1.46 2.08 3.56 3.71 5.39 5.52.22.22.77.32.78.49.19 5.22 5.78 5.13 8.09 8.26 2.51 3.41 5.12 6.76 7.68 10.14.19.25.54.54.52.78-.11 1.27-.31 2.52-.48 3.78-1.05-.22-2.42-.1-3.11-.72-3.54-3.15-6.56-7.02-10.43-9.64-5.47-3.69-9.64-8.71-14.65-12.79-4.06-3.3-9.38-1.61-11.84 2.89-1.42 2.6-3.06 5.09-4.75 7.52-3.55 5.08-3.76 5.12-9.67 3.67-1.17 2.51-.6 6.38-4.9 6.88-.49-2.41.12-4.13 2.02-5.82 5.51-4.87 8.11-11.49 10.4-18.57 1.16.62 2.22 1.19 3.5 1.87.91-2.08 1.04-3.66-1.92-4.13.65-1.3 1.05-2.4 1.7-3.33 7.67-10.94 8.83-23.58 9.64-36.33.09-1.36-.17-2.94.43-4.04 3.1-5.67 2.45-11.63 1.99-17.67-.23-2.99.23-6.04.34-8.41-.56-2.35-.97-4.2-1.45-6.03-1.09-4.16-2.17-8.32-3.35-12.45-.49-1.72-1.24-3.36-1.89-5.07 4.64-.36 8.97 3.75 9.06 8.18.02.94 1 1.85 1.6 2.88-.8-.19-1.65-.38-2.76-.64-.28 1.18-.57 2.36-.99 4.14 2.2-.84 3.89-1.48 5.56-2.12 2.42 3.87 2.62 11.28-.15 12.72 3.41 1.54 6.36 3.69 9.55 4.13 7.42 1.05 14.96 1.27 22.44 1.83.2.02.41-.09.62-.11 6.02-.46 7.08-1.61 6.33-7.83-.53-4.4-1.67-8.73-2.2-13.13-.23-1.9.41-3.91.61-5.87.07-.67.1-1.36 0-2.02-.55-3.94-2.15-8.08-1.41-11.76.6-3.01 3.16-5.35 1.03-8.95-.63-1.07.79-3.53 1.59-5.19.54-1.13 1.64-1.99 2.63-3.12-2.38-3.53-1.82-6.18 1.88-9.61 2.77-2.58 5.08-5.65 7.72-8.39 2.34-2.43 4.79-4.76 7.32-6.99.63-.56 1.73-.59 3.41-1.11-.8 1.99-1.21 3.16-1.72 4.28-3.26 7.12-6.63 14.2-9.76 21.37-.66 1.5-.46 3.36-.73 5.05-.31 1.94-.98 3.86-1.01 5.8-.12 8.06-.45 16.14.09 24.17.38 5.65 2.24 11.19 3.05 16.84.7 4.84.58 9.81 1.3 14.64 1.36 9.22 3.12 18.38 4.58 27.58.31 1.94.07 3.97.05 5.95-.01.63-.44 1.41-.2 1.87 2.46 4.68-.95 8.88-1.04 13.36-.09 4.65-.5 9.32-1.14 13.93-.2 1.43-1.6 2.7-2.56 4.21.22.03.71.08 1.54.18zm-6.6-45.33c-.9-.64-2.06-1.02-2.16-1.6-.65-3.75-1.92-7.67-1.36-11.28.76-4.93-1.61-8.55-3.4-12.43-1.74-3.79-3.54-4.16-7.33-2.71-1.77.68-3.6 1.24-5.44 1.71-2.81.71-5.41.46-6.94-1.79-1.26.52-2.22 1.15-3.24 1.28-1.64.2-3.38-.24-4.96.13-3.98.93-7.32 2.65-7.27 7.6.01 1.03-.51 2.05-.69 3.09-1.02 6.02-2.26 12.07 3.8 16.5.67.49.91 1.56.96 1.65 1.51.12 2.55-.01 3.41.32 4.23 1.61 8.45 3.28 12.61 5.07 2.71 1.16 5.71 2.11 7.86 3.98 3.57 3.11 7.59 2.29 11.69 2.88.87-5.15 1.69-9.93 2.46-14.4z" fill="#010103"/><g fill="#fcfbfa"><path d="m6.4 11.7c-1-.8-1.9-1.6-2.9-2.3l.6-.7c.9.7 1.9 1.4 2.9 2.2zm-2.1 8.3c.7-2.1 1.4-4.2 2-6.4.2.1.6.3 1 .4-.7 2.3-1.3 4.4-1.9 6.4zm3-12.8c-1.1-.9-2.1-1.7-2.9-2.4l.6-.7c1 .8 2 1.5 3 2.4zm1.4-1.3v-.9h10.2v.9c-.9 4.2-2.3 7.3-4.1 9.4 1.3 1.4 3.2 2.7 5.7 4-.2.2-.4.5-.7.9-2.5-1.4-4.4-2.7-5.7-4.2-1.4 1.5-3.5 3-6.1 4.4 0 0 0 0-.1-.1-.3-.4-.5-.7-.7-.8 2.7-1.3 4.7-2.8 6.2-4.2-1.8-2.2-3-5.3-3.7-9.4zm9.2 0h-7.1c.6 3.8 1.7 6.7 3.4 8.7 1.7-2 2.9-4.8 3.7-8.7z"/><path d="m31.6 3.6h.9v2.3h4.1v9.1h1.7v.9h-16.6v-.9h1.7v-9.1h4.1v-2.3h.9v2.3h3.1v-2.3zm-4 13.3.6.8c-1.9.9-3.8 1.9-5.8 2.8-.2-.3-.3-.6-.5-.9 2-.9 3.9-1.8 5.7-2.7zm-3.2-10.1v3.7h3.1v-3.7zm0 4.5v3.7h3.1v-3.7zm4.1-4.5v3.7h3.1v-3.7zm0 4.5v3.7h3.1v-3.7zm9.1 9.1c-2.1-1.1-4.1-2-5.8-2.7l.5-.8c2.2.9 4.1 1.8 5.8 2.6zm-1.9-13.6h-3.1v3.7h3.1zm-3.2 4.5v3.7h3.1v-3.7z"/></g></svg>