<svg enable-background="new 0 0 400 400" viewBox="0 0 400 400" xmlns="http://www.w3.org/2000/svg"><g fill="#010103"><path d="m123.81 353.95c0-3.31-.45-6.14.07-8.79 2.66-13.5 5.91-26.89 8.25-40.44 1.14-6.63.65-13.53 1.12-20.29.14-2.01 1.03-3.97 1.57-5.95.47-1.72 1.15-3.42 1.35-5.18.8-7.25 1.51-14.52 2.14-21.79.25-2.95.41-5.93.27-8.88-.43-9.1-1.06-18.18-1.56-27.27-.26-4.84-3.71-8.7-8.53-8.71-5.39-.02-10.78.59-16.18.67-3.97.06-7.96-.3-12.05-1.16 4.68-1.81 8.27-6.23 13.93-5.03.47.1 1.09.04 1.5-.19 6.33-3.54 13.36-3.03 20.16-3.12 5.02-.07 9.21-1.88 13.55-3.84 1.3-.59 2.96-.33 4.45-.54 2.38-.34 4.82-.53 7.12-1.16 4.05-1.12 7.85-1.19 12.05-.11 6.02 1.55 12.29 2.21 18.49 2.9 2.21.24 4.59-.35 6.79-.93 3.13-.82 8.72 2.3 10.12 6.04-2.55 2.14-5.59 2.79-8.82 2.47-5.37-.53-10.71-1.3-16.08-1.77-1.2-.1-2.78.26-3.66 1.02-5.15 4.38-7.36 10.17-7.6 16.83-.11 3.04-.47 6.09-.39 9.12.08 3.52.51 7.03.81 10.54.03.41.21.82.24 1.23.43 7.85.81 15.71 1.3 23.56.14 2.17 3.94 5.32 6.1 5.3 1.96-.02 5.05-4.35 5.41-7.18 1.23-9.56 2.56-19.1 3.92-29.18 1.72 0 4.13-.12 6.51.07.72.06 1.57.84 2 1.52.73 1.15 1.05 2.55 1.74 3.72 1.89 3.21 4.73 6.14 2.81 10.37 2.49 5.97-.82 11.12-2.46 16.46-.35 1.15-1.46 2.2-2.46 2.99-4.57 3.6-9.19 7.13-13.86 10.61-3.49 2.6-3.96 6.14-3.09 9.95 3.08 13.6 6.07 27.23 9.53 40.74 1.83 7.17 4.46 14.14 6.88 21.14 1.4 4.06-.54 7.45-1.97 10.91-.12.29-2.63.25-3.09-.35-3.54-4.62-7.57-9.09-9.96-14.3-1.46-3.17-2.96-5.67-5.5-7.94-1.28-1.14-2.14-3.21-2.37-4.97-.97-7.35-1.89-14.63-5.07-21.52-1.04-2.25-.78-5.19-.8-7.82-.08-11.44-3.2-22.39-5.23-33.52-.54-2.94-.75-6.13-.22-9.03.89-4.88 1.13-9.61-.06-14.43-2.5-10.11-1.34-20.22.16-30.31 1.19-8 1.19-8-6.15-11.49-1.51-.72-3.03-1.41-4.5-2.09-4.94 6.54-4.86 13.66-3.4 21.07.61 3.1 1.14 6.29 1.07 9.43-.16 6.83.76 13.41 2.39 20.07 1.1 4.53.54 9.46.72 14.21.27 7.12.15 14.16-3.13 20.79-.64 1.29-.5 3.12-.28 4.64.58 4.08.09 7.92-1.36 11.81-2.99 8.04-5.55 16.18-6.07 24.88-.23 3.75-2.16 6.88-5.03 9.61-1.61 1.53-2.35 4.12-3.14 6.35-1.65 4.63-5.24 6.59-10.45 8.26z"/><path d="m230.26 134.98c0-1.83-.07-3.41.02-4.99.15-2.69 1.05-4.56 4-5.69 5.55-2.13 9.94-6.01 13.38-10.87 2.85-4.02 4.1-8.32 3.48-13.45-.41-3.42-.4-7.74 1.33-10.42 6.92-10.67 6.7-22.48 6.73-34.32.02-6.13-.74-12.3 2.01-18.4 4.04 1.94 6.57 5.26 8.01 9.09 2.44 6.51 4.29 13.24 6.42 19.86.65 2.01 1.2 4.09 2.19 5.93 1.6 2.97 1.81 5.94 1.28 9.21-.86 5.33-1.5 10.7-2.07 16.07-.11 1.06.33 2.27.81 3.27 2.06 4.29 4.37 8.48 6.3 12.83.73 1.64 1.32 3.8.87 5.4-1.36 4.8-2.22 9.77-5.28 14.04-3.62 5.05-5.03 10.94-4.73 17.14.06 1.25.8 2.59 1.53 3.67 5.46 8.03 9.83 16.6 12.27 26 .67 2.59.24 5.59-.23 8.31-1.32 7.6-5.34 13.49-11.38 18.36-5.01 4.05-9.46 8.81-14.15 13.25-.54.51-1.03 1.14-1.66 1.47-6.15 3.16-12.26 6.43-18.53 9.33-5.94 2.74-12.03 5.13-18.13 7.51-1.46.57-3.19.46-4.79.67-.26-.37-.53-.73-.79-1.1 1.06-1.33 1.95-2.85 3.21-3.95 3.65-3.18 7.35-6.32 11.2-9.24 3.36-2.54 6.81-5.07 10.51-7.06 6.39-3.44 11.73-8.17 16.13-13.69 3.88-4.87 8.77-9.07 10.82-15.44 1.1-3.42 2.08-6.59 1.37-10.15-.54-2.7-1.22-5.39-1.51-8.11-.4-3.73-3-5.24-6.01-6.08-2.95-.82-5.54-.07-7.46 2.74-.98 1.43-2.59 2.47-4.02 3.54-5.25 3.9-10.54 7.76-15.83 11.6-3.17 2.31-6.44 4.42-10.93 4.22-.28-3.32.75-6.2 2.68-8.49 3.55-4.21 6.9-8.93 11.34-11.95 5.54-3.77 8.61-9.09 12.17-14.26.65-.94 1.52-1.81 2.47-2.45 5.83-3.93 8.7-9.74 10.1-16.32 1.3-6.07 3.28-12.12 1.93-18.47-.25-1.18-.96-3.2-1.52-3.23-2.09-.09-4.26.33-6.3.9-.76.21-1.3 1.34-1.86 2.11-2.82 3.82-5.91 7.05-11.1 7.6-2.42.26-3.75 2.1-4.49 4.69-.73 2.54-2.25 4.94-3.8 7.14-1.87 2.63-4.65 3.06-7.99 2.18z"/><path d="m98.89 164.7c-1.08-4.28.62-6.85 3.32-9.74 11.4-12.22 23.13-24.08 35.51-35.3.66-.6 1.26-1.56 1.36-2.42.5-4.14 3.23-5.88 6.84-6.9 2.67-.76 4.52-2.25 4.12-5.48-1.31.74-2.53 1.42-4.08 2.3-.51-3.08-.88-5.41 1.46-7.26.61-.48 1.09-1.4 1.22-2.18.64-3.99 2.33-7.19 6.03-9.17.55-.3.87-1.13 1.17-1.78 1.03-2.3 1.62-4.9 3.07-6.88 5-6.82 6.36-14.82 8.33-22.73 1.82-7.3 4.48-14.4 6.85-21.83 2.79.29 4.07 2.44 4.7 5.16 1.82 7.93 1.6 15.88 1.19 23.99-.43 8.62.66 17.32 1.12 25.99.03.5.25 1.08.56 1.46 4.91 5.98 5.09 13.46 6.78 20.52 1.37 5.7 3.72 11.17 5.63 16.74.44 1.29 1.1 2.55 1.27 3.87.29 2.35 1.29 4.07 3.15 5.59 1.13.92 2.1 2.44 2.41 3.86 1.18 5.27 2.96 10.11 6.96 13.99.94.91 1.22 2.49 2.01 4.2-3.78-.15-6.45-.51-8.47-3.58-4.72-7.19-10.26-13.57-17.68-18.38-5.65-3.66-9.39-9.05-9.74-16.3-.24-4.9-3.42-8.09-7.39-10.43-.75-.44-2.74-.19-3.13.41-9.02 13.93-21.81 24.2-33.87 35.18-3.4 3.1-6.46 6.43-11.26 7.88-3.2.96-5.88 3.69-8.77 5.65-3.22 2.16-6.64 3.67-10.67 3.57z"/><path d="m292.91 362.8c-1.47 1.05-3.09 2.2-4.67 3.32-.29-.08-.57-.08-.65-.2-3.56-5.88-8.6-10.33-13.61-14.93-5.69-5.21-8.52-12.28-10.15-19.76-.41-1.89.17-4.19-.68-5.77-2.69-5.01-2.82-9.87-1.01-15.18.82-2.4.83-5.18.7-7.77-.15-2.95.43-5.49 1.66-8.2 1.28-2.82 1.52-6.1 2.34-9.14 2.12-7.85 4.26-15.7 6.48-23.53 3.24-11.42 6.42-22.83 6.26-34.86-.01-.93.24-1.87.45-3.45 4.15 2.73 8.19 4.98 11.68 7.88 1.27 1.05 1.29 3.65 1.8 5.57.42 1.6.55 3.29 1.12 4.83 2.68 7.34 1.49 14.3-1.91 21.07-1.65 3.29-3.39 6.54-4.93 9.88-2.16 4.67-4.6 9.28-6.14 14.16-1.65 5.21-2.47 10.69-3.49 16.08-.51 2.7-.91 5.46-.93 8.2-.02 2.69.47 5.38.79 8.07.3 2.59.89 5.18.94 7.77.15 7.79 2.35 14.91 6.3 21.58 1.39 2.36 2.54 4.86 3.82 7.29 1.16 2.23 2.38 4.43 3.83 7.09z"/><path d="m235.75 244.27c3.58.11 4.91 1.87 5.5 5.12 1.81 10.01 2.98 20.15-.22 29.89-2.26 6.89-4.91 13.83-9.66 19.71-2.56 3.17-4.51 6.89-6.36 10.56-3.24 6.42-6.2 12.97-9.23 19.49-1.15 2.47-2.63 4.54-6.05 5.66-.59-3.23-1.61-6.2-1.57-9.16.08-5.71.46-11.45 1.32-17.09.52-3.35 2.91-6.44 3.22-9.77.64-6.8 2.95-12.94 5.67-19.06 1.1-2.48 1.64-5.21 2.49-7.82.29-.88.48-2 1.12-2.53 5.45-4.59 7.4-11.21 10.28-17.3 1.2-2.57 2.34-5.17 3.49-7.7z"/><path d="m129.47 279.78c-1.56.46-3.45 1.56-5.25 1.42-4.39-.33-8.84-.84-12.17-4.44-1.57-1.7-3.39-3.23-5.3-4.54-3.25-2.23-4.46-5.41-4.19-9.04.43-5.9.77-11.87 2.08-17.61.81-3.56 3.07-6.94 6.95-8.54 2.05-.85 3.95-2.21 6.06-2.71 1.55-.37 3.57-.11 4.94.66.66.37.69 2.68.32 3.9-.82 2.7-2.29 5.21-3.09 7.91-2.12 7.1-2.35 14.04 2.59 20.29.39.49.73 1.04 1.03 1.59 1.88 3.46 3.77 6.94 6.03 11.11z"/><path d="m157.65 173.59c-5.63-1.16-11.25-2.35-16.89-3.46-1.1-.22-2.41-.53-3.37-.15-3.6 1.41-6.85.14-10.13-.98-1.98-.68-2.17-2.33-.53-3.79 3.45-3.07 7.73-3.52 11.93-2.99 3.79.48 7.34.55 10.85-1 .48-.21 1.11-.59 1.49-.44 6.29 2.56 11.92-2.78 18.13-1.41 5.99 1.32 12.05 2.33 18.07 3.49 1.56.3 3.15.52 4.65 1 .86.27 1.59.98 2.37 1.5-.85.57-1.64 1.46-2.58 1.66-4.56.95-9.15 1.71-13.73 2.57-1.24.23-2.53.42-3.68.91-5.27 2.26-10.7 3.25-16.43 2.08-.04.34-.1.67-.15 1.01z"/></g><path d="m6.4 11.7c-1-.8-1.9-1.6-2.9-2.3l.6-.7c.9.7 1.9 1.4 2.9 2.2zm-2.1 8.3c.7-2.1 1.4-4.2 2-6.4.2.1.6.3 1 .4-.7 2.3-1.3 4.4-1.9 6.4zm3-12.8c-1.1-.9-2.1-1.7-2.9-2.4l.6-.7c1 .8 2 1.5 3 2.4zm1.4-1.3v-.9h10.2v.9c-.9 4.2-2.3 7.3-4.1 9.4 1.3 1.4 3.2 2.7 5.7 4-.2.2-.4.5-.7.9-2.5-1.4-4.4-2.7-5.7-4.2-1.4 1.5-3.5 3-6.1 4.4 0 0 0 0-.1-.1-.3-.4-.5-.7-.7-.8 2.7-1.3 4.7-2.8 6.2-4.2-1.8-2.2-3-5.3-3.7-9.4zm9.2 0h-7.1c.6 3.8 1.7 6.7 3.4 8.7 1.7-2 2.9-4.8 3.7-8.7z" fill="#fcfbfa"/><path d="m31.6 3.6h.9v2.3h4.1v9.1h1.7v.9h-16.6v-.9h1.7v-9.1h4.1v-2.3h.9v2.3h3.1v-2.3zm-4 13.3.6.8c-1.9.9-3.8 1.9-5.8 2.8-.2-.3-.3-.6-.5-.9 2-.9 3.9-1.8 5.7-2.7zm-3.2-10.1v3.7h3.1v-3.7zm0 4.5v3.7h3.1v-3.7zm4.1-4.5v3.7h3.1v-3.7zm0 4.5v3.7h3.1v-3.7zm9.1 9.1c-2.1-1.1-4.1-2-5.8-2.7l.5-.8c2.2.9 4.1 1.8 5.8 2.6zm-1.9-13.6h-3.1v3.7h3.1zm-3.2 4.5v3.7h3.1v-3.7z" fill="#fcfbfa"/></svg>