<svg enable-background="new 0 0 400 400" viewBox="0 0 400 400" xmlns="http://www.w3.org/2000/svg"><g fill="#010103"><path d="m54.41 37.91c6.53 0 12.45.15 18.35-.03 16.62-.51 33.24-1.21 49.87-1.7 2.02-.06 4.07.68 6.1 1.06.7.13 1.52.62 2.07.41 9.5-3.71 19.11-2.34 28.76-.88 1.46.22 3.02-.3 4.53-.37 1.54-.07 3.09-.03 4.63.01 2.02.06 4.18.68 6.01.14 3.4-1 6.63-1.42 10.18-.76 2.76.51 5.71.4 8.52.08 8.7-1 17.28-.39 25.95.68 7.54.93 15.2.94 22.8 1.34.85.05 1.94-.31 2.51.09 4.97 3.53 10 .32 14.99.35 3.95.02 7.9.42 11.85.66.52.03 1.04.15 1.56.17 12.15.32 24.31.62 36.46.97 5.07.15 10.14.36 15.21.65 2.31.13 4.61.73 6.92.75 1.91.01 4-.13 5.68-.91 2.18-1.01 3.97-.83 4.86 1.15 1.14 2.53 2.52 5.45 2.23 8.03-2.1 19.09-.9 38.27-1.95 57.39-.91 16.5-.31 33.07-.79 49.6-.77 26.81-1.88 53.6-2.83 80.4-.12 3.39-.12 6.78-.16 10.17-.28 23.43.05 46.88-1.06 70.27-.69 14.51-1.57 28.97-1.17 43.5.11 3.95-.59 4.87-4.56 5.14-3.68.25-7.45.35-11.09-.12-12.58-1.62-25.21-1.39-37.85-1.54-9.61-.12-19.22-1.03-28.83-1.15-12.51-.16-25.02.25-37.53.17-14.41-.09-28.82-.44-43.23-.73-1.14-.02-2.68-.03-3.34-.72-2.51-2.62-4.73-1.49-7.44-.35-2.26.95-4.95 1.35-7.43 1.28-13.87-.36-27.72-1.03-41.59-1.37-5.08-.12-10.17.5-15.25.54-2.49.02-4.99-.49-7.47-.83-1.56-.21-3.23-1.08-4.63-.73-8.91 2.23-17.94.74-26.9 1-5.03.15-7.36-2.52-8.35-8.39-.25-1.45-.32-2.96-.27-4.44.73-21.49 1.74-42.97 2.15-64.46.16-8.55-1.18-17.12-1.42-25.7-.19-6.52.42-13.05.41-19.58 0-5.71-.16-11.43-.61-17.12-.51-6.6-.99-13.11 1.93-19.35.28-.59.15-1.42.06-2.11-.4-2.91-1.08-5.8-1.24-8.72-.39-7.19-.57-14.4-.77-21.6-.04-1.47.01-2.98.3-4.41 2.41-12.23.3-24.53.64-36.79.23-8.36.87-16.71 1.15-25.07.23-6.88.18-13.77.29-20.65.26-14.91.52-29.82.79-45.42zm274.56 92.79c-1.35-1.47-2.03-2.65-3.04-3.24-4.94-2.86-10.68-4.16-15.89-2.8-4.53 1.18-8.43.71-12.67-.08-6.64-1.23-13.29-3.01-19.97-3.2-6.14-.17-11.74-.91-16.71-4.58-1.3-.96-2.23-2.38-3.45-3.47-1.24-1.11-2.48-2.52-3.97-2.96-1.74-.51-3.75-.19-5.64-.1-2.59.13-4.86-.17-5.84-3.1-.83-2.46-2.59-4-5.02-4.88-1.33-.48-2.56-1.21-3.91-1.87 1.62-2.07 4.87-1.95 4.61-5.17-.45-5.59-.9-11.18-1.12-16.78-.28-7.12-5.96-11.89-7.76-18.34-.08-.29-.71-.4-1.06-.63-2.7-1.82-5.33-3.76-8.13-5.43-1.46-.87-3.22-1.77-4.83-1.74-3.56.06-7.16 1.31-10.64.97-6.42-.61-12.38 1.02-18.44 2.47-.74.18-1.6-.05-2.38-.22-.94-.21-1.88-.91-2.75-.8-7.36.91-14.69 2.03-22.05 2.93-3.23.39-6.56.14-9.76.67-3.7.62-7.31 1.78-10.96 2.7-1.42.36-3.18.3-4.21 1.13-4.01 3.26-8.77 3.36-13.5 3.69-4.2.29-5.25 2.75-3.34 6.58 2.48 4.95 10.23 5.92 14.79 2.39 1.72.86 3.39 2.37 5.06 2.38 4.2.01 8.4-.59 12.59-1.07 2.82-.33 5.79-1.7 8.38-1.15 4.71 1 8.79-.03 12.92-1.83 4.36-1.91 8.61-4.16 13.11-5.66 2.9-.97 6.16-.96 9.27-1.19 2.3-.17 4.64.08 6.95-.05 3.83-.21 7.66-.81 11.48-.78 2.71.02 4.55 1.5 4.27 4.69-.1 1.09.25 2.21.36 3.08 2.11.15 3.81.28 5.19.38-.54 4.08-.69 7.68-1.58 11.09-.58 2.22-1.85 4.55-3.48 6.16-3.39 3.38-7.52 5.87-12.27 6.9-1.12.24-2.94-.09-3.61-.87-2.14-2.51-4.14-1.3-6.19-.21-.62.33-1.2.94-1.56 1.56-1.74 2.98-3.86 2.89-6.57 1.24-1.16-.71-2.83-1.12-4.15-.91-5.02.78-10.03 1.71-14.97 2.86-8.7 2.02-17.15 1.08-25.54-1.55-.56-.17-1.29-.33-1.77-.11-4.01 1.78-8.29 2.97-11.61 6.2-3.42 3.32-9.05 3.29-11.96 7.61-.69 1.02-1.77 1.85-2.82 2.55-2.66 1.79-3.82 4.24-4.2 7.39-.19 1.53-1.04 3.26-2.13 4.35-4.53 4.55-5.68 9.56-3.47 15.78 2.96 8.34 3.27 17.07 2.59 25.7-.28 3.52-.77 6.74.5 10.14.87 2.33 1.92 4.94 1.66 7.29-.62 5.55.99 10.53 3.45 15.11 2.75 5.11 4.53 10.53 3.69 15.98-.6 3.89 2.27 7.81-.52 11.48-.2.26.53 1.12.62 1.73.67 4.78 2.22 9.67 1.72 14.33-.8 7.5-1.77 14.88-.96 22.45.18 1.7-.42 3.84-1.42 5.24-2.42 3.39-4.1 6.98-4.11 11.11-.01 5.39-2.26 9.18-7.05 11.64-.9.46-2.14 1.73-2.03 2.44.34 2.2-1.15 2.92-2.34 4.1-1.79 1.77-3.52 3.62-5.04 5.62-2.17 2.87-4.01 5.99-6.21 8.84-2.11 2.74-4.25 5.67-8.5 4.87-.53-.1-1.23.27-1.73.6-3.01 1.98-6.01 3.98-8.95 6.06-2.13 1.5-3.89 7.94-2.6 10.17.52.89 1.89 1.75 2.91 1.81 4.35.24 7.96-1.51 11.25-5.06-.97-.59-1.77-1.09-2.58-1.59.02-.34.04-.67.07-1.01 1.47-.52 3.05-1.67 4.41-1.46 4.1.65 7.13-1.13 10.17-3.39 2.38-1.76 4.93-3.3 7.34-5.03.72-.51 1.78-1.4 1.72-2.01-.53-5 2.99-7.08 6.54-8.66 5.01-2.23 7.9-6 10.17-10.78 2.35-4.95 4.64-10.17 8.14-14.25 3.29-3.84 3.73-7.52 2.95-11.92-.59-3.34-1.25-6.7.3-9.96 2.77-5.82.23-12.11 1.66-18.05.15-.62-.15-1.63-.61-2.07-2.65-2.52-1.72-5.45-1.01-8.28.91-3.59 2.99-4.91 6.82-4.8 3.27.09 3.88 2.36 4.25 4.93.12.83.43 1.64.67 2.45.91 3.07 2.41 5.27 6.15 5.12 2.2-.09 4.43.61 6.64.56 2.32-.06 3.5.98 4.16 3 1.13 3.43 3.72 4.93 7.13 5.38 6.24.84 8.14 3.41 7.3 9.73-.19 1.46-.85 3.24-.28 4.36 1.99 3.86.97 7.71.33 11.48-1.04 6.12-.61 11.94 1.52 17.8.59 1.61.27 4.29-.76 5.61-2.85 3.66-2.28 7.36-.95 11.1 2.05 5.77 4.33 11.46 6.68 17.12.41.97 1.56 2.1 2.54 2.29 3.61.71 4.89-2.31 6.41-4.66 1.36-2.1.2-3.71-1.3-5.31-.65-.69-1.19-1.96-1.05-2.84.88-5.52 1.98-11 3.04-16.7-3.39-3.29-3.51-3.33-1.93-8.21 2.36-7.3 4.24-14.63 3.57-22.41-.08-.95.28-2.2.9-2.91 1.92-2.22 2.8-4.71 2.55-7.57-.58-6.59 2.01-11.6 7.38-15.33 6.53-4.55 9.31-11.29 10.77-18.77.47-2.39 1.16-4.78 1.27-7.19.2-4.53 1.36-9.65-.29-13.48-1.82-4.22-4.99-8-6.7-12.54-.91-2.43-2.65-4.58-4.22-6.71-1.72-2.35-1.38-4.54.07-6.76.63-.97 1.38-1.86 2.18-2.93-.78-.61-1.49-1.17-2.25-1.77 1.16-1.68 2.3-3.21 3.3-4.83 4.91-7.9 10.89-6.84 15.72-2.11 3.05 2.99 5.85 2.98 9.47 1.6 1.93-.73 4.44-1.16 6.31-.57 5.67 1.81 7.03 1.82 10.83-2.66 1.62-1.91 3.01-2.39 5.02-.92.53 6.99-1.11 9.7-7.31 12.32-2.05.86-4.1 1.75-6.01 2.87-1.01.6-2.05 1.6-2.45 2.65-2.07 5.43-5.42 10.01-8.9 14.58-1.25 1.65-1.66 3.92-2.53 5.88-.4.9-.8 1.95-1.52 2.54-3.94 3.25-3.97 3.21-1.9 8 1.24 2.87.34 4.69-2.66 5.42-1.3.32-2.61.63-4.73 1.14 1.01 2.23 1.36 4.65 2.74 5.67 2.3 1.69 3.2 3.52 2.87 6.17-.29 2.34.44 3.84 2.96 4.34 2.51.5 4.32.04 5.35-2.56.97-2.44 2.29-4.74 3.26-7.18.84-2.11 1.48-4.31 2.09-6.5.78-2.79 1.53-5.6 2.15-8.44.32-1.46.47-2.99.41-4.48-.07-1.59-.47-3.16-.73-4.74.44.21.88.42 1.32.62 1.47-.77 3.07-1.36 4.38-2.34 2.59-1.97 4.98-4.21 7.55-6.2.53-.41 1.51-.22 2.28-.3.07.7.22 1.4.21 2.09-.06 3.06.06 6.15-.32 9.17-.39 3.08-1.28 6.09-1.99 9.13-.14.6-.6 1.16-.63 1.76-.24 5.72.31 11.39-1.88 17.07-1.31 3.4-.83 7.54-.87 11.35-.02 2.57.84 5.18.64 7.72-.33 4.32-1.34 8.57 1.09 12.69.5.85.15 2.28.02 3.42-.32 2.63-.76 5.24-1.12 7.86-.61 4.46.03 5.32 3.75 7.65 1.28.8 2.43 2.7 2.57 4.2.17 1.89-.9 3.86-1.18 5.83-.43 3-.75 6.03-.88 9.05-.03.66.96 1.94 1.47 1.94 3.54 0 7.11-.01 10.6-.55 2.13-.33 2.89-2.03 2.15-4.37-1.02-3.22-1.76-6.54-2.53-9.84-.21-.88-.47-2.05-.07-2.71 1.77-2.96 1.11-5.8.23-8.82-.49-1.67-.38-3.52-.4-5.3-.02-1.37.77-3.2.14-4.04-2.18-2.93-.42-5.66-.16-8.47.12-1.33.37-2.64.56-3.9-1.43-.47-2.51-.83-4-1.32 3.5-2.49 6.21-5.2 6.13-9.43-.03-1.84-1.55-4.09-.9-5.42 1.81-3.67.75-7.42 1.31-11.06.66-4.26 1.89-8.46 3.19-12.58 1.37-4.33 3.11-8.54 4.73-12.79.93-2.45 1.93-4.87 2.89-7.3 8.45 3.41 10.79 6.79 10.47 14.8-.22 5.55 1.37 10.39 4.89 14.61 9.79-3.39 12.01-7.74 8.92-17.3-.29-.9-.62-1.81-1.04-2.66-1.45-2.9-1-5.66.15-8.57.6-1.53.95-3.47.57-5.02-1.72-6.94-6.83-11.36-12.4-15.13-2.98-2.02-3.82-4.83-3.17-7.59.37-1.57 2.99-2.78 4.81-3.77 1.25-.67 2.85-.74 4.31-.96 6.29-.94 12.58-1.8 18.87-2.76 2.6-.4 3.77-2.2 2.85-4.02-.76-1.5-1.4-3.07-2.33-5.12-7.4 1.35-14.59-.77-21.5-4.33-1.78-.92-3.64-1.76-5.55-2.35-4.02-1.25-5.94-4.6-7.1-7.99-1.77-5.2.34-7.12 5.07-6.21 2.53.49 5.56.82 7.8-.13 6.93-2.92 13.75-2.72 20.84-1 1.56.38 3.61.08 5.03-.67 2.56-1.34 4.85-2.9 7.99-2.11.8.25 1.89-.45 3.64-.93zm-57.84 192.94c-.89 2.01-2.04 3.68-2.3 5.48-.25 1.7 0 3.79.83 5.25 1 1.78 2.77 3.16 4.33 4.57 3.69 3.31 12.21 3.38 16 .07-4.19-7.46-9.43-13.61-18.86-15.37zm-15.85-7.62c2.6 3.79 4.31 6.67 6.41 9.23 1.77 2.16 3.67 1.9 4.95-.62 1.27-2.52 3.09-4.14 5.69-5.08 1.26-.46 2.42-1.21 3.78-1.9-2.69-3.94-6.82-5.28-10.8-5.29-3 0-6.01 2.1-10.03 3.66zm39.22-71.58c1.78-1.11 3.41-2.25 5.16-3.19 2.34-1.25 2.92-3.3 2.61-5.62-.34-2.51-2.56-3.37-4.49-3.11-2.94.4-5.79 1.5-8.61 2.52-.42.15-.59 1.46-.59 2.23.02 3.71 2.69 5.5 4.44 6.52.15 2.92.27 5.04.42 7.86 1.82-1.35 2.8-2.09 3.89-2.89-1-1.52-1.86-2.84-2.83-4.32zm-84.65 13.09c3.59-.38 6.52-2.02 9.14-4.5 1.97-1.86 2.47-4.29 1.54-6.36-.72-1.6-2.87-2.56-4.34-3.76-1.95 3.11-2.98 6.12-5.08 7.76-2.78 2.18-2.55 4.15-1.26 6.86zm112.17-96.84c-.41.35-2.13 1.12-2.37 2.21-.59 2.67 3.4 5.98 6.92 5.93 2.05-.03 3.76-.79 3.91-3.26.18-2.95-2.22-4.54-8.46-4.88zm-23.21 92.36c-1.7 1.84-1.39 3.84.33 5.18 1.02.8 2.82.6 4.28.86.44-4.47.17-4.77-4.61-6.04z"/><path d="m127.17 196.66c.87-.52 1.75-1.04 2.82-1.68-6.38-8.38-2.11-17.18-1.29-25.92.56-6.01 3.7-10.13 8.12-13.66.41-.32.82-.85 1.26-.89 3.74-.31 7.5-.44 11.24-.83 1.39-.14 2.84-.62 4.05-1.32 2.51-1.44 4.72-3.45 7.32-4.64 4.23-1.92 8.74-3.22 13-5.08 2.45-1.07 4.6-1.19 6.91.15 2.01 1.17 4.33 1.91 6.06 3.38 1.18 1 1.57 2.93 2.34 4.42 1.92 3.69.34 7.54.69 11.27.12 1.24 2.16 2.49 3.56 3.36.79.5 2.13.04 3.09.38.79.27 1.68.96 1.98 1.69.22.54-.23 1.64-.73 2.15-2.62 2.65-6.3 4.49-6.48 8.93-.01.29-.51.78-.82.81-4.24.45-8.5.73-12.73 1.29-2.76.37-5.98.39-8.1 1.87-3.35 2.33-6.81 2.72-10.52 2.63-1.93-.05-3.13.55-4.09 2.23-1.52 2.66-3.21 5.24-4.92 7.79s-4.13 3.53-7.14 2.77c-4-1-7.93-2.24-12.01-.04-.88.48-2.35-.11-3.54-.21-.01-.28-.04-.56-.07-.85zm50.36-37.23c0-1.8.1-3.61-.05-5.4-.06-.71-.51-1.67-1.09-1.99-4.95-2.82-9.62-.55-14.3 1.01-3.08 1.03-1.02 3.95-1.98 5.78-.1.18-.13.4-.18.61-1.53 6.46-.53 8.01 5.89 9.65 3.81.98 7.23.74 10.5-1.75 3.02-2.31 1.17-5.24 1.21-7.91z"/><path d="m143.34 141.07c-.15-1.39-.27-2.43-.44-4.06-2.04.4-3.95.77-5.85 1.13-1.87.36-3.72.83-5.6 1.02-2.64.27-3.64-1.27-3.5-3.71.23-3.86 3.04-7.51 6.85-7.56 5.49-.07 9.9-2.67 14.66-4.67 2.95-1.24 6.25-1.63 9.25-2.78 2.13-.81 4.15-2.07 5.99-3.43 2.51-1.86 5.04-2.61 8.24-2.3 9.44.93 18.8-.03 28.09-1.91 2.37-.48 4.85-.43 7.25-.82 2.74-.45 5.45-1.11 8.7-1.79 3.45 2.84 4.59 2.76 9.55-1.51 3.64 4.05 7.53 7.94 10.78 12.31.8 1.07-.23 3.76-.93 5.51-.16.41-2.52.34-3.63-.1-3.55-1.4-4.66-1.25-6.12 2.22-1.16 2.74-3.09 4.17-5.83 4.79-2.27.52-4.53 1.07-6.8 1.56-3.16.68-5.63.44-7.76-2.83-2.83-4.36-7.77-6-12.71-6.25-9.31-.47-18.64-.36-27.97-.46-.6-.01-1.24.22-1.81.46-3.65 1.56-7.18 3.52-10.96 4.63-3.04.89-4.42 2.37-4.69 5.44-.24 2.65-1.7 4.48-4.76 5.11z"/><path d="m142.74 207.29c1.59 0 3.18-.11 4.76.02 3.81.32 6.87-.9 9.05-4.1 3.82-5.63 10.33-5.07 15.83-6.79.47-.15 1.44.69 1.91 1.28 2.03 2.58 4.2 5.09 5.86 7.9 1.85 3.13 4.38 4.12 7.82 4.07 3.58-.05 5.45 1.68 5.04 5.25-.34 2.91-1.33 5.96-2.82 8.48-1.82 3.06-4.41 5.67-6.76 8.39-3.78 4.37-8.46 5.83-13.98 3.9-3.06-1.07-6.05-2.37-9.07-3.56-.49-.19-1.03-.56-1.49-.49-5.52.83-8.43-2.84-10.87-6.69-2.36-3.73-5.12-4.38-9.18-3.17-2.76.82-5.82.96-8.73.85-2.49-.1-4.02-1.63-3.5-4.52.3-1.66.61-3.39.46-5.05-.33-3.56 1.67-4.99 4.68-5.38 3.64-.47 7.32-.66 10.98-.97-.01.18 0 .38.01.58zm11.79 6.19c-.1.28-.2.55-.3.83.98 1.4 1.78 3.8 2.97 4.02 5.8 1.06 11.69 1.73 17.58 2.12 1.94.13 4.32-.49 4.84-3.19.59-3.06 1.33-6.26-1.84-8.37-2.72-1.81-5.55-3.53-8.52-4.87-4.41-1.99-5.64-1.41-7.92 2.91-.3.56-.63 1.15-.72 1.75-.45 3.44-1.98 5.59-6.09 4.8z"/><path d="m245.18 139.54c.07.91.44 2.69.29 4.43-.14 1.66-.74 3.3-1.25 4.91-2.68 8.58-7.09 11.59-16.2 10.8-5.93-.52-11.81-1.24-17.5 1.32-.42.19-1.16-.34-1.75-.54.28-.57.43-1.47.87-1.64 3.93-1.55 5.27-4.28 4.91-8.5-.23-2.66 1.48-4.67 4.26-5.62 4.15-1.41 8.22-3.09 12.38-4.46 1.24-.41 2.7-.16 4.06-.23 2.94-.13 5.86-.27 9.93-.47z"/></g><path d="m6.4 11.7c-1-.8-1.9-1.6-2.9-2.3l.6-.7c.9.7 1.9 1.4 2.9 2.2zm-2.1 8.3c.7-2.1 1.4-4.2 2-6.4.2.1.6.3 1 .4-.7 2.3-1.3 4.4-1.9 6.4zm3-12.8c-1.1-.9-2.1-1.7-2.9-2.4l.6-.7c1 .8 2 1.5 3 2.4zm1.4-1.3v-.9h10.2v.9c-.9 4.2-2.3 7.3-4.1 9.4 1.3 1.4 3.2 2.7 5.7 4-.2.2-.4.5-.7.9-2.5-1.4-4.4-2.7-5.7-4.2-1.4 1.5-3.5 3-6.1 4.4 0 0 0 0-.1-.1-.3-.4-.5-.7-.7-.8 2.7-1.3 4.7-2.8 6.2-4.2-1.8-2.2-3-5.3-3.7-9.4zm9.2 0h-7.1c.6 3.8 1.7 6.7 3.4 8.7 1.7-2 2.9-4.8 3.7-8.7z" fill="#fcfbfa"/><path d="m31.6 3.6h.9v2.3h4.1v9.1h1.7v.9h-16.6v-.9h1.7v-9.1h4.1v-2.3h.9v2.3h3.1v-2.3zm-4 13.3.6.8c-1.9.9-3.8 1.9-5.8 2.8-.2-.3-.3-.6-.5-.9 2-.9 3.9-1.8 5.7-2.7zm-3.2-10.1v3.7h3.1v-3.7zm0 4.5v3.7h3.1v-3.7zm4.1-4.5v3.7h3.1v-3.7zm0 4.5v3.7h3.1v-3.7zm9.1 9.1c-2.1-1.1-4.1-2-5.8-2.7l.5-.8c2.2.9 4.1 1.8 5.8 2.6zm-1.9-13.6h-3.1v3.7h3.1zm-3.2 4.5v3.7h3.1v-3.7z" fill="#fcfbfa"/></svg>