<svg enable-background="new 0 0 400 400" viewBox="0 0 400 400" xmlns="http://www.w3.org/2000/svg"><g fill="#fbfafc"><path d="m37.59 393.81c-.92.31-1.52.05-2-.78-.7-1.2-1.52-2.34-2.47-3.78v4.59c-.55.03-.95.05-1.41.07-.03-.37-.06-.64-.06-.91 0-1.91 0-3.81 0-5.7 1.13-.41 1.77-.03 2.29.91.62 1.11 1.38 2.14 2.31 3.19v-4.2h1.35v6.61z"/><path d="m12.94 393.88v-6.75c1.9.19 3.93-.54 5.37 1.29.8 1.01.78 2.88.03 3.97-1.37 1.97-3.4 1.51-5.4 1.49m1.45-1.22c2.04.12 2.92-.58 2.89-2.21-.03-1.51-.98-2.19-2.89-2z"/><path d="m11.81 393.87h-5.49c.68-2.18 2.47-3.48 3.51-5.45h-3.08v-1.21h5.29c-.71 2.13-2.44 3.48-3.47 5.51.86 0 1.63.04 2.39-.01.79-.05 1.14.21.85 1.16"/><path d="m39.33 393.86v-6.61h3.7v1.07h-2.22v1.52c.68.04 1.34.09 2.07.13v1.07c-.72.05-1.38.09-2.1.14v1.48h2.4v1.19h-3.85z"/><path d="m27.71 388.56c-1.15-.3-2.46-.61-3.1.64-.37.73-.41 1.93-.06 2.67.63 1.35 1.99.93 3.17.68.35.94-.01 1.32-.93 1.46-1.62.25-3.05-.27-3.76-1.48-.73-1.24-.6-3.03.31-4.17.88-1.11 2.71-1.7 4-1.16.32.13.44.74.65 1.12-.1.08-.19.16-.28.24"/><path d="m49.15 387.24v1.07c-.59.02-1.17.05-1.87.08v5.44h-1.48v-5.44h-1.85c-.05-.4-.08-.73-.13-1.15z"/><path d="m20.06 387.21h1.33v6.62h-1.33z"/><path d="m30.68 393.25c-.49.38-.8.79-1.05.76-.32-.05-.6-.45-.9-.7.26-.24.51-.64.8-.67.29-.04.62.3 1.15.61"/></g><path d="m163.41 35.41c13.44 4.73 25.24 11.67 32.6 24.57.47.83.77 1.8 1.39 2.49 8.37 9.26 9.35 21.74 14.14 32.56.59 1.33.42 3.13.21 4.65-.71 5.25-1.56 10.48-2.46 15.7-.18 1.03-.8 1.99-.84 2.84 0 2.32.2 4.66-.04 6.95-.54 5.07-1.78 9.99-4.47 14.37-1.47 2.39-3.18 4.72-5.17 6.69-2.51 2.49-2.58 7.51.27 9.71 3.36 2.59 6.7 5.2 10.12 7.71 4.54 3.33 8.86 6.8 12.08 11.58 1.38 2.04 3.59 3.59 5.64 5.07 1.92 1.38 2.93 2.94 2.53 5.33-.44 2.66.35 4.77 2.83 6.12 2.34 1.27 3.09 3.24 2.58 5.83-.27 1.35-.39 2.74-.4 4.11-.02 2.55-.32 4.87-3.46 5.43 5.35 8.06 3.64 22.35-3.65 31.17-.55-.35-1.1-.71-1.74-1.12-.96 2.21-1.98 4.2-2.7 6.3-2.35 6.81-5.8 12.88-11.22 17.76-.83.75-1.38 1.86-1.89 2.89-1.22 2.47-2.11 5.12-3.53 7.46-5.25 8.64-5.98 18.81-9.66 27.97-.12.29-.19.62-.19.93.36 15.17-5.34 29.87-3.58 45.13.48 4.18 1.4 8.31 2.26 12.43.67 3.24.41 6.09-2.53 8.26-.79-.44-1.49-.94-2.27-1.24-3.05-1.15-4.48-3.18-3.9-6.53.16-.9.18-2.08-.26-2.79-2.57-4.1-1.8-8.53-1.73-12.96.08-4.97-.43-9.94-.31-14.9.05-1.96 1.23-3.86 1.69-5.84.3-1.28.3-2.65.29-3.97 0-.71-.59-1.48-.45-2.11 1.26-5.52 2.75-11 3.93-16.54.63-2.97 1.06-6.03 1.12-9.05.07-3.39.74-6.22 3.78-8.21.9-.59 1.96-1.72 2.02-2.65.22-3.42 2.09-5.57 4.59-7.56 1.01-.81 1.74-2.08 2.34-3.28.85-1.7.95-4.25 2.26-5.16 6.19-4.28 4.44-12.29 8.62-17.46.9-1.11 1.11-2.95 1.23-4.49.22-2.92 1.93-4.24 4.77-3.54.78.19 1.98.24 2.44-.21.53-.51.89-1.87.58-2.48-1.52-2.95-.08-5.36 1.18-7.78.98-1.88 2.31-3.58 3.21-5.48 1.45-3.08 2.04-6-.63-9.11-1.36-1.59-1.68-4.19-2.17-6.4-.89-4-1.47-8.06-2.34-12.06-.44-2.02-2.28-3.8-.36-6.1.32-.38-.66-2.39-1.51-3.08-2.64-2.19-4.28-4.79-5.16-8.14-.97-3.71-3.33-6.63-6.64-8.61-4.9-2.94-10.22-4.46-15.95-4.79-3.53-.2-6.05.89-7.07 4.37-1.98 6.79-3.87 13.61-5.72 20.43-.41 1.52-.33 3.18-.76 4.7-1.97 6.89.23 13.16 2.75 19.38.38.93 1.17 1.74 1.93 2.45 2.7 2.55 5.37 5.13 8.23 7.49 1.23 1.02 2.93 1.46 4.35 2.26 1.14.64 2.37 1.27 3.24 2.19 1.28 1.36 2.28 2.98 3.59 4.76-4.84-.29-9.61-.53-14.36-.91-.71-.06-1.63-.63-2-1.23-1.41-2.34-3.41-3.2-6.08-3.34-3.98-.2-6.99-2.28-7.98-6.16-1.33-5.25-2.99-10.55.34-15.91.72-1.16.21-3.78-.68-5.1-2.59-3.89-2.96-5.71-.06-9.39 1.55-1.96 1.66-3.56.52-5.68-1.45-2.68-.9-5.11 1.58-7.03.58-.45 1.08-1.01 1.62-1.53 3.41-3.27 6.1-6.75 2.84-11.96 3.56-.93 4.63-3.43 4.89-6.44.19-2.11 1.49-3.14 3.35-3.66 1.93-.54 2.88-1.68 3.13-3.78 1.19-9.85 6.21-18.38 9.65-27.46.58-1.54.97-2.67-.33-4.25-.95-1.15-1.18-3.12-1.22-4.74-.3-10.59-.22-21.2-.82-31.77-.17-2.97-1.86-6.05-3.46-8.71-4.55-7.55-9.8-14.51-16.78-20.17-2.28-1.85-3.47-5.23-4.76-8.09-1.37-3.06-3.06-5.38-6.56-6.18-1.21-.27-2.23-1.4-3.34-2.14.16-.26.32-.51.48-.77z" fill="#010000"/><path d="m124.28 241.97c.4.33.96.78 2.1 1.72-4.13 3.38-8.15 6.67-12.3 10.07-.5-1.07-.93-2.01-1.41-3.05 5.98-5.04 8.84-11.86 10.68-19.12 1.93-7.59 3.54-15.26 5.13-22.92.52-2.51 1.57-4.38 4.04-5.19 2.62-.85 2.89-2.74 1.91-4.79-3.36-7.04-1.8-14.6-2.41-21.92-.05-.63.84-1.77 1.49-1.95 3.31-.88 3.59-3.29 3.18-5.98-.24-1.55-.69-3.13-1.35-4.56-1.58-3.44-2.4-6.69.58-9.91.51-.55.22-1.95.13-2.94-.23-2.49-.48-4.98-.86-7.45-.49-3.22-.95-6.45-1.7-9.61-1.13-4.74-1.06-5.97 1.65-10.3-4.11-1.41-4.1-4.55-3.5-8.17.43-2.59.32-5.15-2.16-7.2-.99-.82-.97-2.87-1.39-4.36-.49-1.73.42-4.14-2.37-4.77-.19-.04-.29-.76-.34-1.17-1.21-9.36-5.32-17.29-11.99-23.85 1.66-2.48 3.67-2.72 5.57-.78 4.12 4.21 8.23 8.46 12 12.98 1.16 1.39 1.2 3.72 1.74 5.63.4 1.41.69 2.86 1.17 4.23 3.24 9.15 6.53 18.29 9.8 27.43.07.2.16.42.13.62-1.14 8.97 2.92 17.25 3.42 25.98.2 3.52-.04 7.29-1.12 10.61-1.43 4.38-1.74 8.64-1.28 13.11.6 5.72.91 11.27-2.51 16.58-1.26 1.95-.98 5.12-.83 7.7.24 4.02-.4 7.65-2.25 11.3-4.74 9.31-10.15 18.35-12.42 28.76-.24 1.08-1.47 1.95-2.53 3.27z" fill="#010000"/><path d="m292.66 69.44c-1.27 4.67-2.52 9.37-3.85 14.05-.22.79-.62 1.62-1.16 2.23-6.24 6.98-7.06 16.17-9.98 24.49-.13.38-.17.88-.04 1.25 1.68 4.71-.1 8.63-2.65 12.45-.55.83-1.12 2.03-.94 2.91 1.31 6.47-1.01 12.29-2.83 18.27-.97 3.19-1.59 6.6-1.7 9.93-.4 12.7-1.38 25.44 1.47 38.01.39 1.72 1.43 3.3 1.75 5.02.44 2.38.48 4.84.7 7.41-3.76 0-6.7 0-9.84 0-1.31-7.94-2.67-15.76-3.85-23.6-.21-1.41.38-2.93.46-4.4.3-5.81 1.01-11.64.71-17.42-.54-10.32 2.87-19.75 5.1-29.54 1.96-8.61 6.22-16.87 5.17-26.12-.1-.83.46-1.76.79-2.62 1.18-2.99 2.73-5.88 3.49-8.97.82-3.34 1.48-6.55 4.35-8.86 4.09-3.29 6.44-7.8 8.35-12.54.91-2.21 2.17-3.02 4.5-1.95z" fill="#010000"/><path d="m296.34 271.67c-4.49.84-7.46-.39-10.79-2.67-9.25-6.32-12.62-16.47-17.69-25.49-.96-1.71-.69-4.13-.92-6.23-.66-6.09-1.29-12.17-1.81-17.2 2.64-1.99 4.59-3.59 6.68-4.98.82-.54 2.04-.99 2.9-.79.64.15 1.49 1.51 1.41 2.23-.44 3.83 1.05 6.95 2.88 10.13.63 1.09.77 2.87.35 4.05-.79 2.24-.58 4.08.78 5.94.94 1.28 1.66 2.73 2.66 3.95 2.74 3.37 4 7.26 5.18 11.41 1.34 4.71 3.84 9.09 5.83 13.61.8 1.91 1.6 3.83 2.54 6.04z" fill="#010000"/><path d="m109.81 259.14c.83 2.78.14 4.71-2.2 6.35-2.82 1.98-5.37 4.33-8.23 6.68-.38-2.54-.14-4.27 2.2-5.29.85-.37 1.56-1.45 1.96-2.37 1.24-2.85 3.55-4.27 6.27-5.37z" fill="#010000"/><path d="m107.77 65.48c3.74.78 4.67 2.13 4.96 6.9-2.32.21-2.32.21-4.96-6.9z" fill="#010000"/></svg>