<svg enable-background="new 0 0 400 400" viewBox="0 0 400 400" xmlns="http://www.w3.org/2000/svg"><g fill="#fbfafc"><path d="m37.59 393.81c-.92.31-1.52.05-2-.78-.7-1.2-1.52-2.34-2.47-3.78v4.59c-.55.03-.95.05-1.41.07-.03-.37-.06-.64-.06-.91 0-1.91 0-3.81 0-5.7 1.13-.41 1.77-.03 2.29.91.62 1.11 1.38 2.14 2.31 3.19v-4.2h1.35v6.61z"/><path d="m12.94 393.88v-6.75c1.9.19 3.93-.54 5.37 1.29.8 1.01.78 2.88.03 3.97-1.37 1.97-3.4 1.51-5.4 1.49m1.45-1.22c2.04.12 2.92-.58 2.89-2.21-.03-1.51-.98-2.19-2.89-2z"/><path d="m11.81 393.87h-5.49c.68-2.18 2.47-3.48 3.51-5.45h-3.08v-1.21h5.29c-.71 2.13-2.44 3.48-3.47 5.51.86 0 1.63.04 2.39-.01.79-.05 1.14.21.85 1.16"/><path d="m39.33 393.86v-6.61h3.7v1.07h-2.22v1.52c.68.04 1.34.09 2.07.13v1.07c-.72.05-1.38.09-2.1.14v1.48h2.4v1.19h-3.85z"/><path d="m27.71 388.56c-1.15-.3-2.46-.61-3.1.64-.37.73-.41 1.93-.06 2.67.63 1.35 1.99.93 3.17.68.35.94-.01 1.32-.93 1.46-1.62.25-3.05-.27-3.76-1.48-.73-1.24-.6-3.03.31-4.17.88-1.11 2.71-1.7 4-1.16.32.13.44.74.65 1.12-.1.08-.19.16-.28.24"/><path d="m49.15 387.24v1.07c-.59.02-1.17.05-1.87.08v5.44h-1.48v-5.44h-1.85c-.05-.4-.08-.73-.13-1.15z"/><path d="m20.06 387.21h1.33v6.62h-1.33z"/><path d="m30.68 393.25c-.49.38-.8.79-1.05.76-.32-.05-.6-.45-.9-.7.26-.24.51-.64.8-.67.29-.04.62.3 1.15.61"/></g><path d="m181.6 88.94c5.34-.52 8.88.73 12.22 4.02 7.69 7.57 11.85 16.62 13.48 27.07.08.52.16 1.07.06 1.57-.75 3.67-1.36 7.39-2.38 10.99-2.75 9.7-9.15 16.34-18.17 20.43-9 4.09-18.24 4.29-27.5.74-6.85-2.63-13.65-5.33-17.78-11.99-.44-.71-1.21-1.3-1.44-2.06-1.6-5.31-4.83-9.6-8.28-13.78-.34-.41-.71-.84-.87-1.32-1.62-4.98-3.25-9.97-4.78-14.98-1.59-5.19-.55-10.35.7-15.38 1.51-6.08 3.32-12.1 5.4-18 .78-2.21 2.66-4.03 4.04-6.02 5.84-8.4 12.37-16.11 20.94-21.94 5.22-3.55 10.59-6.43 16.81-7.96 3.6-.88 6.88-3.06 10.34-4.58 1.11-.49 2.31-1.06 3.48-1.07 8.27-.09 16.54-.11 24.81.01 1.36.02 2.88.6 4.04 1.35 8.24 5.37 16.41 10.84 24.59 16.31.78.52 1.5 1.17 2.1 1.88 1.31 1.53 2.45 3.2 3.79 4.7 5.2 5.84 8.99 12.3 11.33 19.91 2.32 7.54 6.19 14.59 8.9 22.03 3.07 8.42 3.16 17.2 1.98 26.04-.52 3.88-.84 7.82-.82 11.73.02 4.15-1.44 7.64-3.76 10.89-4.56 6.38-9.11 12.77-13.77 19.08-.83 1.13-2.08 2.06-3.33 2.74-11.9 6.46-24.04 12.51-35.7 19.38-8.64 5.09-12.03 13.73-10.05 23.23.85 4.09 4.71 8.62 8.46 10.83 8.22 4.85 15.12 10.8 20.88 18.27 2.57 3.33 3.43 6.62 1.9 10.89-1.72 4.8-3.82 9.68-2.57 15.13.26 1.15-.8 2.57-1.15 3.89-.92 3.55-2 7.07-2.62 10.67-1.01 5.83-1.95 11.7-2.44 17.59-.26 3.06-.06 6.39.92 9.26 2.86 8.41 6.34 16.61 9.36 24.98 3.56 9.87 9.36 17.96 18.22 23.65 2.54 1.63 3.5 3.71 3.41 6.9-3.53-.49-6.95-.95-10.37-1.46-.5-.07-1.19-.19-1.44-.53-5.43-7.52-14.97-10.31-20.42-17.78-.06-.08-.14-.16-.22-.23-14.88-13.02-18.73-29.5-15.51-48.38 1.87-10.94 4.15-21.81 3.75-33.09-.33-9.25-4.72-16.27-10.25-22.96-.38-.46-.98-.86-1.55-1.04-3.26-1.01-5.22-3.24-6.77-6.21-.66-1.28-2.18-2.29-3.54-3-7.22-3.74-10.42-9.43-10.41-17.7.01-12.53 4.9-22.68 14.12-30.57 3.93-3.36 9.19-5.19 13.88-7.64 4.41-2.31 8.65-4.7 12.28-8.32 2.06-2.05 5.22-3.23 8.08-4.2 9.73-3.29 14.61-10.8 18.48-19.66 4.71-10.79 3.84-21.79 2.95-33.07-.88-11.23-5.45-21.26-8.59-31.76-.19-.64-.74-1.23-1.25-1.71-2.52-2.32-5.04-4.65-7.65-6.85-1.51-1.28-3.07-2.67-4.86-3.42-8.8-3.66-17.57-7.43-26.58-10.48-3.09-1.05-6.87-.34-10.29-.02-4.32.4-8.62 1.08-12.87 1.93-2.1.42-4.17 1.31-6.08 2.32-2.05 1.08-3.84 2.65-5.83 3.85-4.78 2.87-9.14 6.12-11.33 11.53-.19.48-.56.91-.93 1.28-10.18 9.94-10.34 22.07-7.66 34.83.24 1.14.93 2.29.81 3.37-.91 8.07 6.09 10.38 10.53 14.48.65.6 2.2.17 3.32.29 2.57.28 5.54-.09 7.64 1.07 5.14 2.84 9.53 1.25 14.05-1.08 3.4-1.75 6.3-3.88 6.43-8.2.01-.31.05-.67.22-.92 5.25-7.93.48-15.33-1.52-22.71-.94-3.23-3.55-6.03-5.37-9.04z" fill="#010000"/></svg>