<svg enable-background="new 0 0 400 400" viewBox="0 0 400 400" xmlns="http://www.w3.org/2000/svg"><path d="m102.5 146.26c-.91-2.62-.04-4.18 1.81-5.74 14.84-12.5 29.6-25.1 44.39-37.66.8-.68 1.63-1.57 2.58-1.79 5.56-1.32 9.9-4.74 14.19-8.16 3.13-2.5 6.65-3.56 10.46-4.12 1.47-.22 2.95-.41 4.38-.77 4.42-1.12 7.24-4.95 7.38-9.47.37-11.54.73-23.09 1.39-34.61.18-3.08 1.43-6.09 2.22-9.25 3.37 1.45 4.24 3.9 4.32 6.66.2 6.78.06 13.57.43 20.33.38 6.97 1.2 13.92 1.85 20.88.23 2.47 1.56 3.75 4.02 4.56 8.94 2.95 17.94 5.83 26.64 9.41 6.31 2.6 12.49 5.79 18.16 9.57 10.75 7.17 21.11 14.92 31.59 22.49 6.39 4.62 11.62 10.86 14.39 16.99-3.41.49-6.39-.45-8.95-2.34-5.1-3.77-10.19-7.59-15.01-11.7-10.25-8.72-21.75-15.47-33.57-21.69-7.49-3.94-15.14-7.6-22.88-11.03-2.93-1.3-6.27-1.82-9.49-2.21-.98-.12-2.63 1.17-3.14 2.21-.75 1.56-1.04 3.47-1.03 5.24.12 16.54.29 33.08.59 49.61.08 4.66.46 9.32 1.01 13.95.16 1.37 1.06 3.08 2.17 3.83 2.23 1.53 4.72 3.09 7.31 3.63 14.07 2.91 18.94 16.43 17.22 28.11-.97 6.56-3.54 11.99-9.56 15.62-4.04 2.43-7.41 5.8-12.45 6.66-1.64.28-3.88 2.79-4.12 4.52-.63 4.55-.55 9.24-.34 13.85.46 9.84 1.27 19.67 1.77 29.52.62 12.28 1.06 24.57 1.58 36.86.03.74.26 1.6-.03 2.2-3.25 6.93-.62 14.01-.4 20.98.24 7.7 1.92 15.37-.91 22.97-.55 1.48.15 3.38-.08 5.04-.21 1.54-.9 3.02-1.38 4.52-.57-.03-1.15-.06-1.72-.08-.85-4.36-2.08-8.69-2.5-13.1-2.51-26.05-5.14-52.1-7.08-78.19-1.08-14.57-.93-29.24-1.28-43.86-.14-6-2.83-9.59-8.68-10.72-3.93-.76-6.88-2.29-8.06-6.45-.51-1.81-1.48-3.52-2.43-5.16-2.49-4.26-3.04-8.7-1.75-13.46.55-2.03 1.08-4.15 1.1-6.23.07-4.81 2.62-8.13 6.02-11.01 3.46-2.93 8.34-5.1 10.16-8.81 1.77-3.6.28-8.73.53-13.16.58-10.26 1.3-20.52 2.04-30.77.57-7.86.58-15.68-1.23-23.4-1.17-4.96-7.2-7.91-11.62-5.23-13 7.87-26.79 14.53-37.38 26.05-4 4.35-9.64 7.15-14.31 10.93-3.51 2.85-6.81 6-9.94 9.27-2.89 3.02-6.17 4.28-10.38 3.71z" fill="#010103"/><g fill="#fcfbfa"><path d="m6.4 11.7c-1-.8-1.9-1.6-2.9-2.3l.6-.7c.9.7 1.9 1.4 2.9 2.2zm-2.1 8.3c.7-2.1 1.4-4.2 2-6.4.2.1.6.3 1 .4-.7 2.3-1.3 4.4-1.9 6.4zm3-12.8c-1.1-.9-2.1-1.7-2.9-2.4l.6-.7c1 .8 2 1.5 3 2.4zm1.4-1.3v-.9h10.2v.9c-.9 4.2-2.3 7.3-4.1 9.4 1.3 1.4 3.2 2.7 5.7 4-.2.2-.4.5-.7.9-2.5-1.4-4.4-2.7-5.7-4.2-1.4 1.5-3.5 3-6.1 4.4 0 0 0 0-.1-.1-.3-.4-.5-.7-.7-.8 2.7-1.3 4.7-2.8 6.2-4.2-1.8-2.2-3-5.3-3.7-9.4zm9.2 0h-7.1c.6 3.8 1.7 6.7 3.4 8.7 1.7-2 2.9-4.8 3.7-8.7z"/><path d="m31.6 3.6h.9v2.3h4.1v9.1h1.7v.9h-16.6v-.9h1.7v-9.1h4.1v-2.3h.9v2.3h3.1v-2.3zm-4 13.3.6.8c-1.9.9-3.8 1.9-5.8 2.8-.2-.3-.3-.6-.5-.9 2-.9 3.9-1.8 5.7-2.7zm-3.2-10.1v3.7h3.1v-3.7zm0 4.5v3.7h3.1v-3.7zm4.1-4.5v3.7h3.1v-3.7zm0 4.5v3.7h3.1v-3.7zm9.1 9.1c-2.1-1.1-4.1-2-5.8-2.7l.5-.8c2.2.9 4.1 1.8 5.8 2.6zm-1.9-13.6h-3.1v3.7h3.1zm-3.2 4.5v3.7h3.1v-3.7z"/></g></svg>