<svg enable-background="new 0 0 400 400" viewBox="0 0 400 400" xmlns="http://www.w3.org/2000/svg"><g fill="#010103"><path d="m251.66 196.09c-2.69.3-5.38.71-8.08.88-2.43.15-4.88-.04-7.31.05-3.45.13-4.89 2.06-4.26 5.5 1.05 5.67 4.18 8.33 11.18 9.17 3.86.46 7.58 1.04 10.34 4.13.32.36.62.75 1.35 1.65-5.64 0-10.67 0-15.71 0-4.04 0-5.64.98-6.24 5.08-.73 4.91-.41 9.98-1.33 14.84-1.13 5.99 2.52 9.34 6.45 11.84 6.01 3.82 8.46 9.44 9.49 15.78 1.51 9.29 2.37 18.69 3.55 28.04.94 7.42 1.9 14.84 2.94 22.25.25 1.77.71 3.54 1.33 5.21 3.27 8.82 6.63 17.61 9.74 26.55-4.67-4.39-8.11-9.68-11.13-15.26-6.39-11.84-8.98-24.87-11.39-37.87-1.48-7.98-1.8-16.16-2.82-24.24-.88-6.93-3.26-13.42-7.31-19.09-3.71-5.19-8.75-4.76-12.34.6-3.73 5.57-4.15 11.97-4.31 18.31-.31 11.91-1.2 23.7-4.99 35.1 1.11 6.3-3.41 11.34-3.89 17.41-.22 2.73-3.09 5.25-4.76 7.87-.43-.14-.86-.27-1.3-.41.35-3.14.55-6.31 1.1-9.42.77-4.37 1.73-8.71 2.75-13.03.21-.91 1.1-1.64 1.56-2.5.27-.49.62-1.39.41-1.62-2.82-3.09-1.84-6.87-1.7-10.33.33-8.03.78-16.07 1.79-24.03.53-4.18 2.33-8.2 3.57-12.29.25-.81.76-1.58.8-2.39.32-6.03 2.98-10.62 8.05-13.96 2.99-1.97 3.89-5.21 4.05-8.59.1-2-.06-4.03-.27-6.03-.69-6.5-3.18-8.6-9.89-8.45-1.27.03-2.54.2-3.81.23-3.33.07-5.91-1.24-7.7-4.34 4.17-2.79 8.69-3.19 13.4-2.95 5.79.29 7.55-1.58 7.43-7.4-.04-2.17-.66-3.76-2.96-4.13-3.12-.51-6.25-.9-9.38-1.32-3.97-.53-7.95-1.09-11.93-1.52-5.55-.61-11.1-1.19-16.66-1.57-.8-.05-2.25.98-2.42 1.73-.83 3.69-1.63 7.45-1.76 11.21-.03 1.01 2.24 2.34 3.68 3.08 1.96 1 4.14 1.58 6.22 2.33-.04.33-.08.66-.12.98-1.77.59-3.5 1.34-5.31 1.73-3.82.83-5.92 3.63-5.91 6.96.02 5.43 1.03 10.87 1.72 16.29.08.63.72 1.29 1.26 1.76 3.93 3.45 5.8 7.97 6.91 12.93.83 3.72 1.94 7.37 2.66 11.11.28 1.46-.16 3.05-.29 4.93.4 1.35 1.26 3.21 1.45 5.14.49 5.06 1.06 10.16.93 15.23-.22 8.54-.23 17.07.36 25.59.15 2.22.66 4.41.77 6.63.07 1.46-.32 2.94-.39 4.42-.03.67.23 1.35.33 2.03.38 2.67.74 5.35 1.11 8.02-.38.25-.76.5-1.15.75-.96-.77-2.51-1.38-2.77-2.33-1.05-3.95-1.86-7.99-2.48-12.03-1.08-7.12-2.38-14.25-2.8-21.42-.47-7.9.13-15.86-.1-23.78-.13-4.62-.5-9.33-1.6-13.79-1.36-5.52-3.5-10.87-5.48-16.23-2.01-5.44-8.5-6.29-12.93-2.53-6.44 5.46-9.29 12.96-12.73 20.16-.6 1.26-.74 2.9-.6 4.31 1.15 11.69-.86 23.02-3.99 34.19-.94 3.34-2.49 6.5-3.77 9.75-1 2.55-1.89 5.15-3.03 7.64-.92 2-2.15 3.86-3.24 5.78-.39-.16-.78-.32-1.17-.48.65-3.75 1.35-7.5 1.93-11.26 2.53-16.32 4.93-32.67 7.58-48.97 1.53-9.39 5.77-17.63 11.74-24.99 1.4-1.73 2.67-3.64 4.35-5.06 4.77-4.04 6.2-9.1 4.98-15.01-.24-1.14-1.09-2.73-2.01-3.03-2.98-.97-6.1-1.87-9.21-2-4.53-.19-9.09.36-13.63.48-2.66.07-4.39 1.34-5.42 3.66-.6 1.35-1.14 2.74-1.49 4.17-1.71 6.87-3.55 13.72-4.95 20.66-1 4.96-1.2 10.07-2.06 15.06-.61 3.53-1.79 6.96-2.59 10.46-.69 3.05-1.19 6.14-1.81 9.2-.21 1.03-.39 2.08-.78 3.04-1.29 3.19-2.52 6.42-4.07 9.48-.66 1.3-2.03 2.24-2.92 3.18 0 1.4.47 3-.08 4.11-3.47 7.05-7.06 14.05-10.86 20.93-1.2 2.18-3.37 3.81-4.73 5.93-.75 1.15-.87 2.78-1.05 4.22-.25 2.05-1.03 3.33-3.58 3.26 1.23-3.44 2.26-6.7 3.61-9.82.33-.76 1.7-1.07 1.9-1.18 1.93-4.88 3.64-9.22 5.38-13.56.19-.47.8-.91.76-1.32-.44-4.93 2.98-8.22 5.1-12.03 3.91-7.04 4.04-15.07 6.08-22.59 1.07-3.95.89-8.24 1.28-12.37.02-.21-.05-.49.06-.62 2.95-3.37 1.22-7.2 1.35-10.91.12-3.31 1.54-6.58 2.42-9.97 0-1.76-.11-3.83.03-5.89.12-1.68.86-3.36.76-5-.39-6.15.49-11.98 3.18-17.59.63-1.32.57-3.11.42-4.65-.63-6.8-.41-13.48 1.42-20.13.97-3.54 1.56-7.3-.62-10.78-.16-.25-.21-.62-.17-.92.94-8.41 1.74-16.83 2.9-25.21.69-4.99 1.91-9.91 2.94-14.86.21-1 .54-2.03 1.07-2.89 3.78-6.13 7.53-12.3 11.53-18.28 1.11-1.66 2.83-3.31 4.64-4.02 8.54-3.37 17.52-4.86 26.66-5.37 1.05-.06 2.16.81 2.55.97 3.99-1.01 7.56-2.14 11.23-2.78 5.7-.99 11.47-1.64 17.21-2.4.71-.09 1.45.02 2.18.08 6.42.57 12.84 1.69 19.24 1.6 10.92-.16 21.21 2.23 31.28 6.07 2.07.79 4.17 1.61 6.33 2.02 9.98 1.88 15.54 11.46 12.1 21.04-.11.3-.29.58-.36.88-1.48 5.91-4.97 9.45-11.31 9.86-1.22.08-2.66.46-3.54 1.23-3.85 3.33-8.35 3.5-13.11 3.42-9.75-.18-19.51-.07-29.27-.05-4.46.01-5.28 1.35-3.66 5.46 2.14 5.43 6.96 8.13 11.38 11.12 4.96 3.36 10.04 6.19 16.34 7.17 4.34.67 8.32 3.95 12.37 6.24 11.68 6.59 19.07 16.2 20.92 29.76.34 2.5 2 5.07 1.63 7.37-.56 3.4 1.41 5.18 2.83 7.51.5.82.56 2.01.53 3.03-.15 6.68.51 13.53-.82 19.98-1.68 8.19 1.22 15.64 1.74 23.44.06.84.54 1.78.3 2.5-2.52 7.52 1.18 14.32 2.31 21.42.63 3.95.93 7.95 1.49 11.91.71 5.1 1.59 10.19 2.26 15.3.23 1.73.04 3.51.04 6.1 2.92 3.19 3.25 4.77 1.73 6.9 1.06 4.24 2.38 7.68 2.71 11.22.53 5.81 2.11 11.15 4.6 16.39.88 1.85.6 4.28.69 6.45.02.48-.68 1.41-.99 1.39-.61-.05-1.4-.49-1.71-1.01-1.41-2.36-2.97-4.7-3.93-7.25-4.61-12.2-8.61-24.56-9.83-37.67-.22-2.37-1.34-4.64-1.86-7-.44-2-.64-4.05-.91-6.08-.11-.82.12-1.76-.21-2.46-2.85-6.1-3.15-12.63-3.68-19.2-.56-6.85-2.21-13.61-2.7-20.46-.79-10.98-.78-22.02-1.57-33-.68-9.44-1.4-18.94-3.21-28.2-1.58-8.05-6.24-14.8-13.06-19.7-1.5-1.08-3.44-1.52-5.16-2.29-3.06-1.38-6.09-2.8-9.14-4.2-2.87-1.31-5.71-2.73-8.64-3.88-1.89-.74-3.13.16-3.87 2.1-2.09 5.53 1.29 13.09 6.9 14.81 2.82.87 5.82 1.14 8.65 1.98 2.04.61 3.94 1.71 5.9 2.59 0 .24-.05.58-.11.92zm-79.27-48.62c3.61 2.46 4.61 5.77 4.56 9.31-.07 5.18-.05 10.45-.98 15.52-1.11 6.05 2.62 9.94 5.13 14.45.18.33.63.67.99.72 3.32.4 5.87 3.76 9.74 2.4 1.01-.35 2.42.6 3.67.75 2.07.25 4.19.6 6.25.43 5.17-.42 10.32-1.11 15.48-1.68 2.47-.27 4.76-3.01 3.83-5.24-2.02-4.81-1.35-9.78-1.62-14.72-.08-1.45-.61-3.11-1.49-4.23-4.11-5.22-8.94-9.83-11.66-16.15-.77-1.78-3.35-3.42-5.38-3.9-6.38-1.49-12.86-2.64-19.36-3.46-7.97-1.01-15.62-2.81-22.6-6.89-.8-.47-1.33-1.4-1.99-2.11.96-.41 1.94-1.2 2.87-1.15 2.41.14 4.85.43 7.17 1.07 4.57 1.26 8.98 3.26 13.92 2.38.59-.1 1.49-.04 1.83.32 1.91 2.11 4.17 1.27 6.42 1.03 1.35-.14 2.75.15 4.11.08 2.09-.11 4.31-.01 6.23-.69 1.15-.41 2.47-2.05 2.61-3.26.5-4.2.67-8.46.65-12.69-.01-2.29-.37-4.68-1.08-6.85-1.56-4.78-4.16-6.02-9.14-5.21-5.12.84-10.27 1.47-15.42 2.12-6.43.81-13.12 1.39-18.41 5.36-6.84 5.13-11.79 11.96-14.88 20.07-.67 1.75-2.06 3.21-3.13 4.81-.58.25-1.15.5-1.73.75.98.62 1.95 1.24 3.43 2.18-1.7 8.22-3.54 17.01-5.33 25.82-.2 1-.34 2.12-.12 3.1 2.66 11.88 1.57 23.41-2.8 35.14 1.46 2.22 3.18 4.84 4.94 7.51 4.19-4.35 11.33-5.38 14.66-2.69 2.79-1.03 5.28-2.1 7.87-2.87 5.77-1.71 7.52-3.9 7.67-10.01.08-3.37-1.08-4.72-4.41-4.84-2.43-.09-4.91-.25-7.31.08-5.15.71-9.79-.9-14.77-2.6 3.03-3.91 7.16-4.41 11.42-4.86 4.19-.44 8.34-1.19 12.5-1.88 2.06-.34 2.93-1.62 3.01-3.77.15-4.23.54-8.46.82-12.69.26-3.91 1.36-8.03.51-11.68-.82-3.55.77-5.96 1.32-9.28zm38.79-22.45c-.2.04-.39.08-.59.12 0 1.91-.08 3.82.02 5.72.15 2.98 2.83 5.53 5.8 5.83 8.7.88 17.58-1.03 26.16 1.71.19.06.42.05.63.01 2.8-.52 5.59-1.34 8.41-1.52 6.56-.43 11.61-3.67 16.08-8.09.6-.59 1.02-1.66 1.01-2.5-.05-4.2-1.4-7.91-4.75-10.65-5.04-4.13-10.98-5.7-17.35-6.16-5.37-.39-10.74-.87-16.09-1.46-6.27-.68-12.46-2.24-18.78.32-3.04 1.23-3.34 2.89-2.72 5.6.85 3.66 1.46 7.38 2.17 11.07z"/><path d="m200.65 34.67c3.64 1.1 5.43 2.87 5.94 5.73 1.1 6.11 2.76 12.21 2.99 18.36.33 8.63-.44 17.31-.72 25.96-.09 2.71-1.98 3.58-4.17 3.93-2.54.41-2.84-1.59-3.23-3.38-.95-4.38-2.5-8.45-1.85-13.3.86-6.52.14-13.23.27-19.86.12-5.7.49-11.41.77-17.44z"/><path d="m155.27 40.12c4.28 5.53 7.36 11.63 8.76 18.72 2.83 14.4-3.45 24.68-15.17 33.67.18-2.04.07-3.45.47-4.68 1.13-3.48 3.09-6.81 3.58-10.36.77-5.6.72-11.33.78-17.01.06-5.5-.22-11-.27-16.49-.01-1.12.35-2.25.54-3.38.44-.16.87-.31 1.31-.47z"/><path d="m256.43 45.36c2.43 1.41 2.75 3.45 2.45 5.62-1.91 13.7 1.75 26.57 5.65 39.43.34 1.11 0 2.42-.03 3.63-1.63-.3-3.86-.02-4.79-.99-6.66-6.95-10.9-15.03-10.04-25.03.36-4.21 1.13-8.38 1.45-12.59.32-4.08 2.5-7.04 5.31-10.07z"/><path d="m199.17 332.26c1.12.59 1.75.91 2.68 1.4-.88 1.31-1.68 2.51-2.48 3.71-.32-.11-.65-.21-.97-.32.23-1.44.46-2.87.77-4.79z"/></g><path d="m6.4 11.7c-1-.8-1.9-1.6-2.9-2.3l.6-.7c.9.7 1.9 1.4 2.9 2.2zm-2.1 8.3c.7-2.1 1.4-4.2 2-6.4.2.1.6.3 1 .4-.7 2.3-1.3 4.4-1.9 6.4zm3-12.8c-1.1-.9-2.1-1.7-2.9-2.4l.6-.7c1 .8 2 1.5 3 2.4zm1.4-1.3v-.9h10.2v.9c-.9 4.2-2.3 7.3-4.1 9.4 1.3 1.4 3.2 2.7 5.7 4-.2.2-.4.5-.7.9-2.5-1.4-4.4-2.7-5.7-4.2-1.4 1.5-3.5 3-6.1 4.4 0 0 0 0-.1-.1-.3-.4-.5-.7-.7-.8 2.7-1.3 4.7-2.8 6.2-4.2-1.8-2.2-3-5.3-3.7-9.4zm9.2 0h-7.1c.6 3.8 1.7 6.7 3.4 8.7 1.7-2 2.9-4.8 3.7-8.7z" fill="#fcfbfa"/><path d="m31.6 3.6h.9v2.3h4.1v9.1h1.7v.9h-16.6v-.9h1.7v-9.1h4.1v-2.3h.9v2.3h3.1v-2.3zm-4 13.3.6.8c-1.9.9-3.8 1.9-5.8 2.8-.2-.3-.3-.6-.5-.9 2-.9 3.9-1.8 5.7-2.7zm-3.2-10.1v3.7h3.1v-3.7zm0 4.5v3.7h3.1v-3.7zm4.1-4.5v3.7h3.1v-3.7zm0 4.5v3.7h3.1v-3.7zm9.1 9.1c-2.1-1.1-4.1-2-5.8-2.7l.5-.8c2.2.9 4.1 1.8 5.8 2.6zm-1.9-13.6h-3.1v3.7h3.1zm-3.2 4.5v3.7h3.1v-3.7z" fill="#fcfbfa"/></svg>