<svg enable-background="new 0 0 400 400" viewBox="0 0 400 400" xmlns="http://www.w3.org/2000/svg"><g fill="#010103"><path d="m30.91 336.72c1.95-1.04 3.03-1.95 4.24-2.2 7.86-1.58 15.73-3.22 23.65-4.42 6.38-.97 12.88-1.16 19.27-2.1 2.54-.37 4.96-1.73 7.36-2.8 8.11-3.61 15.98-7.84 25.03-8.87 1.06-.12 2.13-.87 3.02-1.55 1.51-1.16 3.06-2.35 4.28-3.79 8.12-9.65 18.57-15.51 30.45-19.23 1.51-.47 3.04-2.2 3.71-3.72 1.19-2.68 1.86-5.62 2.51-8.5 1.13-5.01 3.3-9.35 7.36-12.65.98-.8 1.77-1.87 2.8-2.58 4.23-2.9 5.97-6.74 5.31-11.9-.16-1.27.79-3 1.74-4.05 2.92-3.21 6.18-6.12 9.11-9.33.89-.97 1.48-2.51 1.6-3.84.25-2.63.1-5.3.07-7.95-.05-3.59-.37-7.03 3.11-9.75 1.09-.85.95-3.74.79-5.65-.29-3.32.56-5.58 3.78-7.11 2.64-1.25 3.45-3.77 3.1-6.72-.44-3.76-1.15-7.56 1.31-11.05.46-.66.4-1.89.2-2.77-2.07-9.46-.7-18.75 1.37-27.99.48-2.13.19-3.66-1.29-5.41-2.85-3.36-1.92-10.62 1.45-13.33.4-.32 1.23-.44 1.71-.26 6.07 2.43 12.26 4.64 18.12 7.52 4.73 2.32 7.31 6.63 6.76 12-.73 7.14-2.13 14.21-2.92 21.35-1.13 10.31-4.27 20.06-7.79 29.71-1.58 4.33-2.45 8.69-2.23 13.34.22 4.62-3.08 6.45-7.06 4.17-3-1.72-3.69-1.49-5.37 2 4.05 2.78 8.13 5.59 11.43 7.86 2.29-.44 3.85-.61 5.32-1.07 1.05-.33 2.31-.83 2.89-1.66 4.32-6.29 10.51-8.82 17.78-10.23 4.68-.9 9.11-3.24 13.52-5.24 1.1-.5 1.97-2.08 2.43-3.36 3.46-9.61 8.29-12.12 18.62-10.6 9.1 1.34 15.5 6.4 20.81 13.32 3.77 4.91 2.43 11.79-2.75 15.1-7.03 4.49-14.82 4.87-22.91 4.83-8.32-.04-16.66.88-24.97 1.6-3.57.31-7.12 1.08-10.64 1.8-5.61 1.14-7.73 6.3-4.58 10.97 3.44 5.1 6.83 10.22 10.35 15.26 2.2 3.15 4.31 6.21 4.2 10.36-.03.9 1.33 2.29 2.35 2.69 4.04 1.58 8.22 2.78 12.28 4.31 1.2.45 2.58 1.26 3.21 2.31 4.85 8.15 12.17 13.65 19.66 19.09 6.04 4.39 12.67 8.18 16.82 14.81.44.7 2.06 1.12 3.01.97 5.23-.84 10.03.17 14.67 2.61.93.49 2.39.8 3.28.42 5.44-2.26 10.32-.38 14.2 2.87 7.52 6.3 16.07 10.55 24.85 14.54 5.23 2.38 8.64 6.29 9.88 12.4-7.93 1.94-15.65 3.91-23.24-1-1.27-.82-2.89-1.29-4.41-1.52-9.21-1.36-18.44-2.6-27.67-3.89-1.89-.26-3.76-.67-5.66-.82-5.15-.39-10.1-.89-14.9-3.52-5.48-3-11.84-2.71-18.01-2.86-4.73-.12-9.48-.59-14.14-1.39-1.39-.24-2.74-1.97-3.65-3.33-.92-1.37-1.43-3.08-1.85-4.71-1.23-4.83-3.79-8.58-8.1-11.23-1.26-.77-2.21-2.25-2.97-3.59-2.36-4.14-4.62-8.34-6.8-12.57-1.29-2.5-2.81-4.56-5.55-5.78-1.03-.46-1.75-2.23-2.08-3.53-1.03-4.11-1.73-8.17-5.59-11.02-.91-.67-.41-3.62-.08-5.44.18-.99 1.38-1.79 2.29-2.88-10.82-4.82-22.05-8.61-29.32-19.08-3.9 5.29-3.93 10.62-3.55 16.18.25 3.65.38 7.49-.49 10.99-.73 2.93-2.54 5.87-4.62 8.12-6.97 7.55-14.26 14.83-21.49 22.14-1 1.01-2.28 2.06-3.6 2.4-6 1.56-11.1 4.67-15.73 8.63-7.27 6.21-15.85 8.5-25.19 8.66-2.97.05-5.96-.01-8.89.36-2.88.36-5.89.75-8.5 1.91-7.85 3.46-16.26 3.69-24.53 4.69-13.64 1.66-27.28 1.9-40.75-1.48-.74-.17-1.48-.44-3.19-.97zm220.35-26.82c-.69-4.57-1.22-8.85-2.05-13.07-.27-1.36-1.12-2.76-2.07-3.82-2.84-3.19-3.58-2.98-8.35-.19-3.13 1.83-2.14 4.18-1.36 6.54.35 1.05 1.18 1.99 1.95 2.83 2.69 2.91 5.46 5.75 8.47 8.9.82-.29 2.17-.76 3.41-1.19zm-64.66-62.88c-1.42 2.45-2.25 4.4.66 5.91 1.15-.68 2.31-1.36 3.68-2.17-1.48-1.27-2.81-2.42-4.34-3.74zm122.24 84.11c.09-.23.19-.46.28-.69-1.67-1.03-3.34-2.06-5.32-3.28v4.69c1.8-.25 3.42-.48 5.04-.72z"/><path d="m215.14 122.78c-5.72-4.32-11.37-8.42-16.82-12.76-5.08-4.04-10.1-4.36-15.2-.31-6.64 5.27-13.37 10.46-19.65 16.15-3.17 2.87-5.34 6.81-8.12 10.14-.96 1.15-2.28 2.35-3.66 2.73-6.75 1.87-12.65 5.22-18.21 9.4-1.45 1.09-3.63 1.66-5.48 1.68-2.67.03-4.77.89-7.05 2.2-13.51 7.73-28.02 12.09-43.67 12.16-.78 0-2.06-.78-2.24-1.43-.23-.85.08-2.3.71-2.88 7.03-6.42 14.69-11.47 24.79-11.32 1.28.02 2.92-.81 3.8-1.78 5.18-5.72 11.16-10.04 18.31-13.24 5.82-2.6 11.22-6.39 16.3-10.3 3.28-2.53 5.87-6.07 8.35-9.47 1.92-2.63 4.25-3.8 7.33-4.31 1.36-.22 3.01-1.08 3.76-2.18 2.33-3.39 5.12-6.15 8.69-8.19.79-.45 1.58-1.15 2-1.93 2.73-5.13 3.03-5.3 8.37-3.73 3.01.88 4.54-.02 4.67-3.07.04-.93-.61-2.28-1.37-2.79-5.45-3.68-9.8-8.14-12.81-14.15-1.88-3.75-5.41-6.35-10.02-6.22-5.91.17-11.81.58-17.72.91-.42.02-.83.18-1.25.24-10.65 1.64-11.72-3.83-9.59-11.95.21-.81 1.26-1.68 2.11-1.99 6.56-2.39 13.16-4.68 19.78-6.93 2.51-.85 4.56-.11 6.7 1.56 1.69 1.32 4.2 2.73 6.1 2.44 8.27-1.25 13.6 1.73 17.59 9.11 3.3 6.11 8.33 11.27 11.84 17.29 5.96 10.2 15.19 16.95 23.98 24.23 1.05.87 2.48 1.71 2.88 2.86 1.24 3.57 3.89 5.09 7.26 5.71 4.44.81 7.09 4.04 9.79 7.13 2.92 3.34 6.32 5.8 10.45 7.48 4.51 1.82 8.77 4.26 13.28 6.07 7.77 3.12 14.77 7.22 20.31 13.67 1 1.16 2.79 1.91 4.35 2.27 6.29 1.46 12.7 2.44 18.94 4.07 6.77 1.77 12.55 5.57 17.71 10.21 1.1.99 1.82 2.63 2.25 4.1 1.42 4.92-.24 7.42-5.22 7.96-8.13.87-16.01-.92-23.94-2.31-6.36-1.11-12.78-1.9-19.16-2.9-1.12-.17-2.3-.45-3.26-1.01-6.68-3.89-13.32-7.85-19.95-11.84-.7-.42-1.59-1.01-1.79-1.69-1.07-3.76-4.25-5-7.27-6.53-4.54-2.29-8.98-4.77-13.58-6.93-2.24-1.05-3.33-2.66-3.29-4.9.07-3.79.65-7.58.6-11.37-.02-1.8-.61-4.78-1.64-5.13-2.02-.67-4.63-.2-6.81.43-1.39.34-2.46 1.86-4.23 3.34z"/><path d="m164.68 196.71c.31 7.52-2.25 13.67-8.71 17.86-6.53 4.23-11.55 9.78-15.47 16.48-.87 1.49-2.57 2.85-4.2 3.49-4.81 1.88-9.04 4.54-12.89 7.94-1.17 1.03-2.56 1.96-4 2.49-5.55 2.05-11.42-2.63-10.59-8.42.11-.76.76-1.48 1.26-2.15 4.76-6.36 9.28-12.93 14.46-18.93 2.06-2.38 5.46-3.82 8.5-5.07 3.18-1.31 4.94-3.38 6.41-6.41 1.24-2.56 3.33-4.84 5.45-6.79 3.65-3.35 7.66-6.32 11.45-9.52 2.35-1.99 4.54-1.31 5.86.84 1.47 2.4 2.2 5.25 3.25 7.9-.25.1-.51.19-.78.29z"/></g><path d="m6.4 11.7c-1-.8-1.9-1.6-2.9-2.3l.6-.7c.9.7 1.9 1.4 2.9 2.2zm-2.1 8.3c.7-2.1 1.4-4.2 2-6.4.2.1.6.3 1 .4-.7 2.3-1.3 4.4-1.9 6.4zm3-12.8c-1.1-.9-2.1-1.7-2.9-2.4l.6-.7c1 .8 2 1.5 3 2.4zm1.4-1.3v-.9h10.2v.9c-.9 4.2-2.3 7.3-4.1 9.4 1.3 1.4 3.2 2.7 5.7 4-.2.2-.4.5-.7.9-2.5-1.4-4.4-2.7-5.7-4.2-1.4 1.5-3.5 3-6.1 4.4 0 0 0 0-.1-.1-.3-.4-.5-.7-.7-.8 2.7-1.3 4.7-2.8 6.2-4.2-1.8-2.2-3-5.3-3.7-9.4zm9.2 0h-7.1c.6 3.8 1.7 6.7 3.4 8.7 1.7-2 2.9-4.8 3.7-8.7z" fill="#fcfbfa"/><path d="m31.6 3.6h.9v2.3h4.1v9.1h1.7v.9h-16.6v-.9h1.7v-9.1h4.1v-2.3h.9v2.3h3.1v-2.3zm-4 13.3.6.8c-1.9.9-3.8 1.9-5.8 2.8-.2-.3-.3-.6-.5-.9 2-.9 3.9-1.8 5.7-2.7zm-3.2-10.1v3.7h3.1v-3.7zm0 4.5v3.7h3.1v-3.7zm4.1-4.5v3.7h3.1v-3.7zm0 4.5v3.7h3.1v-3.7zm9.1 9.1c-2.1-1.1-4.1-2-5.8-2.7l.5-.8c2.2.9 4.1 1.8 5.8 2.6zm-1.9-13.6h-3.1v3.7h3.1zm-3.2 4.5v3.7h3.1v-3.7z" fill="#fcfbfa"/></svg>