<svg enable-background="new 0 0 400 400" viewBox="0 0 400 400" xmlns="http://www.w3.org/2000/svg"><g fill="#010103"><path d="m110.52 354.54c-.38-2.44.67-3.4 2.73-3.5 5.69-.26 11.37-.63 17.06-.76 11.53-.25 23.06-.17 34.58-.59 7.61-.28 15.23-.89 22.78-1.88 8.02-1.05 12.59-6.66 12.23-14.77-.23-5.06-1.14-10.1-1.85-15.13-.11-.76-.59-1.61-1.15-2.13-1.78-1.66-3.63-3.25-5.55-4.75-3.33-2.6-6.78-3.23-11.2-2.44-5.2.92-10.7.35-16.05.18-4.02-.13-8.03-.59-12.03-1.05-5.22-.61-9.71-2.63-13.69-7.83 2.9-.9 5.25-2.38 7.44-2.19 9.33.82 18.34-1.21 27.43-2.53 4.18-.61 8.35-1.47 12.41-2.6 9.98-2.77 13.49-7.21 14.19-17.66.49-7.19.75-14.39 1.32-21.57.21-2.59 1.03-5.14 1.63-8.03 3.21 1.87 4.36 4.52 4.62 7.5.59 6.55 1.14 13.05 4.62 18.9.46.78.29 2.05.14 3.05-.98 6.6 4.38 13.41 11.08 14.01 1.27.11 2.54.45 3.79.39 6-.3 11.1 1.67 15.76 5.44 1.39 1.13 3.6 1.53 5.49 1.73 6.39.68 12.83.99 19.21 1.73 1.53.18 2.92 1.46 4.38 2.24-.09.38-.18.75-.28 1.13-3.65.94-7.34 1.78-10.95 2.85-9.62 2.84-19.32 4.51-29.44 3.58-2.93-.27-6.08.57-8.98 1.42-4.63 1.35-6.7 5.06-7.1 9.57-.65 7.39 2.1 14.16 4.47 20.95.21.6.96 1.08 1.55 1.47.79.52 1.73.83 2.51 1.37 5.88 4.08 12.08 5.83 18.98 2.71.19-.08.45-.16.62-.09 5.48 2.11 11.04-.19 16.6.35 6.5.63 13.1.39 19.66.37 7.63-.03 15.26-.35 22.89-.28 1.43.01 2.85 1.27 4.27 1.96-1.11 1.11-2.02 2.58-3.35 3.26-9.98 5.14-21.02 5.32-31.83 6.45-5.91.62-11.73 1.29-17.29 3.7-7.06 3.06-14.65 3.05-22.19 2.96-15.26-.18-30.52-.42-45.78-.56-1.1-.01-2.33.34-3.28.89-4.61 2.68-9.69 3.33-14.4 1.42-14.07-5.7-29.08-6.44-43.74-9.02-4.76-.85-9.57-1.5-14.31-2.22zm101.19-36.96c-1.02-3.71-1.84-7.35-3.07-10.86-.67-1.9-2.2-1.91-3.74-.55-2.45 2.16-1.26 4.95-1.09 7.37.4 5.77 1.59 6.36 7.9 4.04zm-2.74 28.58c.36.16.71.32 1.07.48.8-1.64 1.8-3.24 2.26-4.97.09-.35-1.84-1.24-3.33-2.19z"/><path d="m305.67 217.97c-9.1 3.86-17.36 2.73-25.66 1.19-7.33-1.36-13.44-4.74-18.53-10.23-4.18-4.51-8.55-8.85-13.06-13.03-2.31-2.15-3.38-4.6-4.11-7.59-.79-3.22-2.39-6.24-3.49-9.39-.85-2.42-2.02-4.9-2.12-7.39-.36-8.57-.26-17.15-.48-25.72-.03-1.02-.68-2.25-1.43-3-3.79-3.85-7.76-7.52-11.56-11.37-2.22-2.25-4.28-4.68-6.3-7.11-1.81-2.19-1.95-4.3.53-6.26 1.14-.9 2.02-2.14 3.03-3.22-.07-.32-.14-.65-.21-.97-1.17.19-2.5.07-3.47.61-3.49 1.93-9.37 1.73-12.66-.65-4.05-2.94-8.11-2.84-12.02.32-3.63 2.93-7.25 5.87-10.86 8.82-3.76 3.07-7.42 6.08-10.14 10.35-1.98 3.11-5.48 5.24-8.21 7.89-1.81 1.75-3.44 3.69-5.22 5.47-.63.63-1.45 1.43-2.22 1.47-5.82.31-10.32 3.58-14.9 6.58-3.69 2.41-7.52 4.03-11.99 4.57-3.37.41-6.61 1.93-9.91 2.93-7.06 2.13-14.09 4.44-21.23 6.26-2.56.65-5.42.1-8.34.1.27-.63.32-.93.42-.95 4.45-.73 7.73-3.51 11.22-6.07 9.18-6.72 19.62-10.22 30.84-11.74 1.77-.24 3.86-1.41 4.97-2.81 6.32-7.96 14.06-14.31 21.86-20.72 6.11-5.02 12.37-10.28 16.94-16.6 3.06-4.24 8.07-8.45 6.74-15.16-.38-1.94.35-4.22 1-6.21 5.17-15.78 6.47-31.9 4.62-48.34-.09-.84-.13-1.69-.16-2.54 0-.14.18-.29.45-.68 2.93 4.69 4.08 9.78 4.67 15.01.81 7.26 2.44 14.14 7.2 20.03 1.06 1.31 1.25 3.53 1.35 5.36.14 2.61.93 4.68 3.12 6.19 2.52 1.74 3.88 4.08 3.72 7.25-.04.79.23 1.73.66 2.4 3.96 6.24 7.19 13 13.11 17.82 1.8 1.47 3.44 3.16 5 4.89 3.03 3.37 6.59 5.83 10.82 7.52 2.42.96 4.79 2.34 6.77 4.02 6.71 5.69 14.31 9.71 22.42 13 11.55 4.7 22.27 11.27 34.39 14.75 3.16.91 5.82 3.55 9.08 5.63-3.49 2.7-6.73 2.42-9.75 1.78-4.71-1-9.28-2.62-13.96-3.73-3.69-.88-7.55-1.1-11.2-2.12-5.19-1.44-10.2-3.53-15.39-4.96-3.64-1-7.44-1.58-11.2-1.88-1.19-.1-3.05 1-3.66 2.08-2.76 4.91-2.15 10.22-1.15 15.5.06.3.19.67.42.84 4.85 3.82 6.87 9.56 10.04 14.53 1.22 1.91 2.97 3.61 4.79 5 9.02 6.88 18.05 13.75 27.26 20.36 3.15 2.26 6.88 3.7 10.29 5.62 2.14 1.19 4.18 2.6 6.86 4.3z"/><path d="m196.53 155.24c1.13 5.5 2.26 11 3.41 16.49.24 1.13.48 2.27.86 3.36 2.56 7.29 5.59 14.45 7.63 21.88 2.15 7.81 8.02 12.79 12.64 18.76.19.24.47.53.74.58 7.11 1.33 10.41 7.55 15.26 11.79 1.65 1.45 3.39 2.84 5.25 4 8.62 5.37 17.38 10.51 25.89 16.05 2.41 1.57 4.55 2.54 7.26 1.59 2.63-.92 4.95-.32 7.24 1.05 7.58 4.54 16.19 6.13 24.56 8.3 2.51.65 5.27.26 7.91.45 3.53.25 5.6 2.18 6.25 5.94-6.6 1.99-13.13 1.55-19.67.06-9.99-2.27-20.09-4.16-29.94-6.97-8.12-2.31-16.06-5.4-23.79-8.79-2.58-1.13-4.23-4.32-6.44-6.43-1.59-1.51-3.23-3.1-5.14-4.12-9.27-4.94-18.22-10.28-26.1-17.37-6.28-5.65-12.43-5.41-19.08-.06-7.54 6.06-14.64 12.54-20.58 20.23-1.68 2.18-3.56 4.21-5.42 6.24-4.14 4.51-8.81 8.2-14.84 9.95-10.19 2.95-19.35 7.9-27.69 14.45-4.7 3.69-10.05 5.18-16.06 4.7-1.55-.12-3.21.73-4.78 1.24-6.61 2.16-13.15 4.58-19.84 6.44-2.51.7-5.37.11-8.08.11-.13-.36-.27-.72-.4-1.07.97-.8 1.85-1.76 2.93-2.36 4.8-2.7 9.58-5.45 14.51-7.88 2.38-1.18 5.09-1.69 7.63-2.54.78-.26 1.59-.56 2.25-1.04 9.48-6.79 19.25-13.02 29.94-17.86 3.52-1.59 6.35-4.87 9.28-7.62 5.9-5.54 12.09-10.6 19.54-13.98.99-.45 2.11-1.27 2.54-2.21 1.83-4.02 5.05-6.55 8.86-8.24 9.42-4.18 13.19-13.37 18.88-20.86.4-.53.39-1.4.5-2.12 1.56-9.83 3.28-19.64 4.56-29.5.53-4.06.09-8.24.09-12.36.49-.08.96-.18 1.44-.28z"/><path d="m242.85 40.75c2.21 7.81 4.34 15.64 6.69 23.4.56 1.84 1.68 3.59 2.86 5.13 3.45 4.54 6.87 9.13 10.69 13.35 2.13 2.35 4.75 4.71 7.63 5.82 10.55 4.08 21.3 7.63 32.95 11.73-1.34 1.39-2.16 3.01-3.26 3.23-2.4.48-5.21.97-7.38.17-6.49-2.38-13.04-2.26-19.73-1.84-1.8.11-3.78-.36-5.46-1.06-8.79-3.7-16.22-9.59-23.55-15.49-1.9-1.53-2.66-4.61-3.63-7.1-.43-1.11-.3-2.55-.07-3.78 1.84-10.06.25-20.07-.3-30.1-.07-1.22.96-2.49 1.48-3.74.36.09.72.19 1.08.28z"/><path d="m92.61 231.87c-.87-2.37-.1-3.55 1.74-4.65 9.17-5.48 18.34-10.97 27.34-16.72 10.07-6.44 17.5-15.22 22.07-26.34-.63-7.27 7.31-9.68 8.55-15.88.35-.02.69-.04 1.04-.06.33 1 1.06 2.04.94 2.99-1.08 8.61-2.28 17.2-3.54 25.78-.16 1.1-.74 2.19-1.34 3.15-1.68 2.69-3.66 5.21-5.18 7.99-2.28 4.16-5.3 7.3-9.92 8.71-.59.18-1.34.46-1.63.93-2.95 4.81-8.26 5.55-12.85 7.49-2.82 1.19-5.84 1.99-8.54 3.39-5.89 3.06-12.25 2.76-18.68 3.22z"/><path d="m142.32 45.63c5.27 1.46 8.19 5.7 7.57 10.8-1.28 10.52-2.68 21.02-4.16 31.51-.13.91-1.04 2.13-1.88 2.45-2.77 1.08-4.51 2.91-6.27 5.37-7.31 10.23-17.33 15.87-30.36 16.5-.45-2.23-.88-4.35-1.34-6.62 11.24-4.46 18.44-13.28 25.23-22.38 3.42-4.58 6.08-9.74 8.94-14.72.54-.93.45-2.26.55-3.41.59-6.42 1.14-12.83 1.72-19.5z"/><path d="m94.46 118.66c-1.24-.69-2.23-1.24-3.22-1.78.8-.93 1.44-2.1 2.42-2.75 1.49-.98 3.16-1.86 4.87-2.25.99-.22 2.22.61 3.34.96-.41 1.09-.5 2.69-1.28 3.18-1.81 1.15-3.96 1.76-6.13 2.64z"/></g><path d="m6.4 11.7c-1-.8-1.9-1.6-2.9-2.3l.6-.7c.9.7 1.9 1.4 2.9 2.2zm-2.1 8.3c.7-2.1 1.4-4.2 2-6.4.2.1.6.3 1 .4-.7 2.3-1.3 4.4-1.9 6.4zm3-12.8c-1.1-.9-2.1-1.7-2.9-2.4l.6-.7c1 .8 2 1.5 3 2.4zm1.4-1.3v-.9h10.2v.9c-.9 4.2-2.3 7.3-4.1 9.4 1.3 1.4 3.2 2.7 5.7 4-.2.2-.4.5-.7.9-2.5-1.4-4.4-2.7-5.7-4.2-1.4 1.5-3.5 3-6.1 4.4 0 0 0 0-.1-.1-.3-.4-.5-.7-.7-.8 2.7-1.3 4.7-2.8 6.2-4.2-1.8-2.2-3-5.3-3.7-9.4zm9.2 0h-7.1c.6 3.8 1.7 6.7 3.4 8.7 1.7-2 2.9-4.8 3.7-8.7z" fill="#fcfbfa"/><path d="m31.6 3.6h.9v2.3h4.1v9.1h1.7v.9h-16.6v-.9h1.7v-9.1h4.1v-2.3h.9v2.3h3.1v-2.3zm-4 13.3.6.8c-1.9.9-3.8 1.9-5.8 2.8-.2-.3-.3-.6-.5-.9 2-.9 3.9-1.8 5.7-2.7zm-3.2-10.1v3.7h3.1v-3.7zm0 4.5v3.7h3.1v-3.7zm4.1-4.5v3.7h3.1v-3.7zm0 4.5v3.7h3.1v-3.7zm9.1 9.1c-2.1-1.1-4.1-2-5.8-2.7l.5-.8c2.2.9 4.1 1.8 5.8 2.6zm-1.9-13.6h-3.1v3.7h3.1zm-3.2 4.5v3.7h3.1v-3.7z" fill="#fcfbfa"/></svg>