<svg enable-background="new 0 0 400 400" viewBox="0 0 400 400" xmlns="http://www.w3.org/2000/svg"><g fill="#fbfafc"><path d="m37.59 393.81c-.92.31-1.52.05-2-.78-.7-1.2-1.52-2.34-2.47-3.78v4.59c-.55.03-.95.05-1.41.07-.03-.37-.06-.64-.06-.91 0-1.91 0-3.81 0-5.7 1.13-.41 1.77-.03 2.29.91.62 1.11 1.38 2.14 2.31 3.19v-4.2h1.35v6.61z"/><path d="m12.94 393.88v-6.75c1.9.19 3.93-.54 5.37 1.29.8 1.01.78 2.88.03 3.97-1.37 1.97-3.4 1.51-5.4 1.49m1.45-1.22c2.04.12 2.92-.58 2.89-2.21-.03-1.51-.98-2.19-2.89-2z"/><path d="m11.81 393.87h-5.49c.68-2.18 2.47-3.48 3.51-5.45h-3.08v-1.21h5.29c-.71 2.13-2.44 3.48-3.47 5.51.86 0 1.63.04 2.39-.01.79-.05 1.14.21.85 1.16"/><path d="m39.33 393.86v-6.61h3.7v1.07h-2.22v1.52c.68.04 1.34.09 2.07.13v1.07c-.72.05-1.38.09-2.1.14v1.48h2.4v1.19h-3.85z"/><path d="m27.71 388.56c-1.15-.3-2.46-.61-3.1.64-.37.73-.41 1.93-.06 2.67.63 1.35 1.99.93 3.17.68.35.94-.01 1.32-.93 1.46-1.62.25-3.05-.27-3.76-1.48-.73-1.24-.6-3.03.31-4.17.88-1.11 2.71-1.7 4-1.16.32.13.44.74.65 1.12-.1.08-.19.16-.28.24"/><path d="m49.15 387.24v1.07c-.59.02-1.17.05-1.87.08v5.44h-1.48v-5.44h-1.85c-.05-.4-.08-.73-.13-1.15z"/><path d="m20.06 387.21h1.33v6.62h-1.33z"/><path d="m30.68 393.25c-.49.38-.8.79-1.05.76-.32-.05-.6-.45-.9-.7.26-.24.51-.64.8-.67.29-.04.62.3 1.15.61"/></g><path d="m300.19 266.77c-1.21-1.43-3-2.68-3.54-4.33-2.34-7.11-4.33-14.34-6.42-21.54-1-3.45-2.04-6.89-2.85-10.39-1.51-6.58-4.33-12.89-3.96-19.87.09-1.64-.73-3.31-.91-5-1.01-9.4-2.09-18.79-2.86-28.2-.39-4.78-1.64-9.62.03-14.43.15-.45-.05-1.03-.14-1.54-1.01-6.24-1.95-12.5-3.08-18.73-.79-4.36-1.91-8.66-2.76-13.01-.63-3.22-2.08-6.53.55-9.6.2-.23.07-.82-.02-1.21-1.68-7.75-3.01-15.6-5.19-23.21-1.94-6.79-5.63-12.79-11.4-17.2-2.03-1.55-4.12-2.79-7-1.85-.92.3-2.49-.42-3.39-1.14-4.79-3.83-9.74-3.08-15.31-1.73-8.59 2.08-12.87 8.88-18.01 14.74-6 6.86-8.54 15.13-9.16 24.2-.33 4.83-1.15 9.71-2.43 14.38-2.76 10.1-1.96 20.4-2.45 30.63-.05 1.15 0 2.45-.52 3.4-2.15 3.89-2.39 8.06-2.12 12.32.36 5.57-.42 10.96-2.3 16.22-4.14 11.59-4.63 23.85-6.56 35.85-1.7 10.56-3.57 21.07-10.08 30.09-3.67 5.08-6.15 10.79-7.76 16.9-.87 3.3-3.35 4.99-7.28 5.29.95-4.63.52-9.15 3.83-13.15 6.13-7.41 8.95-16.5 11.54-25.58 2.51-8.78 4.16-17.68 4.26-26.9.07-6.06.36-12.38 2.09-18.11 3.28-10.86 4.11-21.8 3.82-32.98-.03-1.22.74-2.46 1.14-3.69.51-1.58 1.36-3.13 1.49-4.74.4-5.17.31-10.39.85-15.55.34-3.3 1.5-6.52 2.17-9.8.31-1.5.37-3.05.45-4.59.18-3.55-.17-7.2.54-10.64 1.2-5.76 2.53-11.51 5.99-16.6 1.4-2.06 1.43-5.04 2.19-7.57 1.41-4.68 3.6-8.71 8.21-11.17 2.84-1.51 5.61-3.19 7-6.59.48-1.17 2.7-2 4.25-2.3 10.31-1.95 11.84-5.21 12.47-15.23.19-2.95.79-5.88 1.27-8.8.15-.92.55-1.8.84-2.71 2.4-.12 2.99 1.24 3.49 3.23 1.51 5.93 3.22 11.81 5.01 17.66.92 3.01 3.04 4.98 6.08 6.01 3.41 1.16 6.73 2.55 10.16 3.64 3.95 1.26 6.25 3.94 7.94 7.64 1.73 3.8 4.31 7.22 5.92 11.06 1.23 2.93 1.52 6.25 2.24 9.4.47 2.05.79 4.16 1.47 6.14 4.12 11.95 5.67 24.25 5.59 36.86-.03 5.31-1.28 10.84 1.65 15.88.1.17.19.45.13.61-2.66 6.93 1.47 13.4 1.4 20.2-.07 6.76 1.48 13.59 1.02 20.29-.51 7.49 1.51 14.34 2.83 21.46 1.8 9.67 2.84 19.48 4.51 29.19.75 4.36 2.23 8.6 3.37 12.89.25.95.44 1.92.66 2.89-.29.21-.62.41-.95.61z" fill="#010000"/><path d="m93.22 153.67c5.33-1.07 10.41-1.88 15.39-3.13 6.26-1.58 12.38-.54 18.56.31 1.67.23 3.46-.28 5.19-.52 1.98-.28 3.98-1.04 5.92-.88 12.66 1.06 25.3 2.25 37.94 3.57 1.37.14 2.62 1.42 4.32 2.4-8.42 5.16-30.34 6.3-33.9 2.56-1.99.77-3.76 1.62-5.62 2.15-4.13 1.17-4.64 2.14-3.76 6.39.31 1.5-.19 3.18-.71 4.75 3.49 6.17 4.18 13.03 3.76 20.13-.16 2.75-.38 5.52-.17 8.25.52 6.59 5.36 8.94 11.33 6.08 6.3-3.01 10.89-7.26 13.42-13.96 1.95-5.16 3.73-6.21 8.09-6.18-1.16 3.35-2.1 6.52-3.34 9.55-2.84 6.9-8.42 11.83-13.07 17.38-1.27 1.52-3.82 2.19-5.92 2.76-12.84 3.5-12.04 4.99-11.94 15.6.03 3.34-.72 6.72-1.36 10.04-1.63 8.5-3.35 16.98-5.14 25.44-.59 2.79-1.51 5.5-2.23 8.26-1.77 6.84-3.51 13.69-5.26 20.53-.1.41-.11.85-.24 1.25-3.99 12.07-9.63 23.4-15.56 34.59-.52.98-1.76 1.58-2.66 2.35-.33-.19-.67-.38-1-.56.72-2.07 1.23-4.24 2.21-6.18 3.47-6.88 5.67-14.07 6.41-21.76.2-2.12.97-4.21 1.65-6.26.86-2.59 1.76-5.18 2.88-7.67 2.91-6.47 1.67-13.64 3.74-20.37 2.03-6.6 2.16-13.77 3.24-20.67 1.31-8.37 2.64-16.74 4.18-25.06.62-3.34-.11-5.9-2.46-8.36-2.59-2.72-5.12-5.3-9-6.08-.87-.18-1.77-.76-2.42-1.4-6.69-6.5-12.18-13.83-15.2-22.77-1.38-4.09-1.14-4.38 3.32-5.37 3.74 5.94 9.24 10.71 11.25 17.85.52 1.84 3.02 3.12 4.63 4.64 1.38 1.31 2.82 2.56 4.16 3.9.98.98 3.89.9 4.39-.33 1.19-2.91 2.51-5.82 3.19-8.86.36-1.63-.58-3.53-.77-5.32-.25-2.39-.62-4.81-.4-7.18.3-3.36 1.22-6.66 1.65-10.02 1.82-14-4.01-17.35-16.46-16.44-4.52.33-9.05 1.02-13.57.94-3.82-.05-6.79-2.11-8.66-6.34z" fill="#010000"/><path d="m230.21 99.6c.9 2.94 2.47 5.86 2.56 8.83.18 5.57-.57 11.17-.77 16.76-.11 3.15-.14 6.35.27 9.46.53 4.01 2.77 7.03 6.86 9 2.96-2.81 6.16-5.56 8.99-8.66.95-1.04 1.32-2.94 1.31-4.45-.01-5.08-.37-10.15-.43-15.23-.01-1.08.64-2.16.99-3.24 1.3.59 3.18.82 3.81 1.83 5.12 8.11 3.56 20.87-3.28 27.58-2.7 2.64-5.57 5.12-8.51 7.5-1.05.85-2.7.05-3.68 2.14-2.18 4.61-5.23 8.86-3.41 14.32.55 1.66 1.38 3.28 2.37 4.72 7.75 11.29 13.52 23.44 13.46 37.36-.03 7.32-1.52 14.57-3.95 21.71-3.17 9.29-6.5 18.89-7.18 28.54-.69 9.72-.36 19.88 2.97 29.51.71 2.06.26 4.5.45 6.75.1 1.13.26 2.31.68 3.35 3.01 7.44 6.1 14.84 9.15 22.27.36.88.69 1.79.86 2.71 1.7 9.25 3.59 18.48 4.93 27.78.63 4.35.23 8.85.21 13.29 0 .74-.48 1.49-.88 2.63-3.03-3.51-3.76-7.32-3.89-11.21-.22-6.51-.77-12.91-3.93-18.79-.24-.45-.48-1.08-.36-1.52 1.26-4.28-.84-7.9-2.35-11.57-3.74-9.08-6.13-18.75-11.84-26.97-.35-.5-.52-1.17-.61-1.78-1.38-9.51-2.61-19.04-4.14-28.52-1.15-7.13.36-13.93 2-20.73 1.53-6.38 2.45-13.12 5.25-18.93 3.83-7.95 4.22-16.11 4.15-24.45-.08-8.64-2.97-16.35-9.08-22.71-5.15-5.37-7.66-11.63-7.41-19.27.2-6.32-.77-12.67-.97-19.02-.12-3.83.28-7.68.42-11.52.08-1.98.34-3.99.12-5.95-.87-8.15.61-15.86 4.86-23.52z" fill="#010000"/><path d="m93.55 118.58c7.48-4.43 15.31-2.7 23.05-2.24 3.27.2 6.57.23 9.85.1 4.43-.18 6.81-2.1 7.21-6.46.31-3.42-.13-6.93-.54-10.37-.11-.94-1.14-1.96-2.01-2.6-3.58-2.64-7.09-5.44-10.94-7.64-5.73-3.27-8.5-8.38-9.94-14.43-1.85-7.77-1.5-15.54.34-23.3.52-2.17 1.44-2.24 2.3-1.81.67 2.19 1.3 3.66 1.54 5.18.75 4.81.97 9.74 2.11 14.45.98 4.03 2.8 7.88 4.56 11.66.57 1.23 2 2.18 3.23 2.95 5.62 3.53 8.95 2.47 9.78-4.01 1.18-9.21 1.45-18.55 1.99-27.84.21-3.59-.21-7.24.18-10.8.25-2.32 1.45-4.54 2.32-7.07 3.16 1.74 4.12 3.86 3.94 6.27-.94 12.27 2.25 24.52.17 36.79-.14.8.08 1.69.22 2.51.52 2.95.07 7.62 3.36 7.78 3.57.18 7.95-1.17 10.27-5.1.59-1 1.21-2.01 1.97-2.89 4.32-5.03 6.84-10.51 5.17-17.38-.27-1.12.64-2.52 1.02-3.79.52-1.75 1.06-3.5 1.59-5.24 5.15.58 4.76.65 5.67 5.83 1.72 9.84-1.55 18.58-5.3 27.25-1.41 3.26-4.01 4.46-7.7 5.06-4.14.67-8.27 2.61-11.89 4.83-1.72 1.06-2.68 3.96-3.21 6.21-.62 2.64-.49 5.47-.54 8.23-.05 3.07 2.19 4.83 5.21 4.84 4.22.02 8.43.37 12.64.69 3.58.27 7.16 1.08 10.71.91 2.42-.12 2.23 1.16 2.89 3.32-3.7.89-7.19 2.15-10.77 2.5-6.21.6-12.48.93-18.72.8-3.59-.08-7.15-1.29-10.72-1.99-.35-.07-.89-.3-1.03-.15-2.73 2.77-6.03 1.14-9.08 1.17-8.59.08-17.18-.05-25.76.06-3.38.09-4.61-1.74-5.14-4.28z" fill="#010000"/></svg>