<svg enable-background="new 0 0 400 400" viewBox="0 0 400 400" xmlns="http://www.w3.org/2000/svg"><g fill="#fbfafc"><path d="m37.59 393.81c-.92.31-1.52.05-2-.78-.7-1.2-1.52-2.34-2.47-3.78v4.59c-.55.03-.95.05-1.41.07-.03-.37-.06-.64-.06-.91 0-1.91 0-3.81 0-5.7 1.13-.41 1.77-.03 2.29.91.62 1.11 1.38 2.14 2.31 3.19v-4.2h1.35v6.61z"/><path d="m12.94 393.88v-6.75c1.9.19 3.93-.54 5.37 1.29.8 1.01.78 2.88.03 3.97-1.37 1.97-3.4 1.51-5.4 1.49m1.45-1.22c2.04.12 2.92-.58 2.89-2.21-.03-1.51-.98-2.19-2.89-2z"/><path d="m11.81 393.87h-5.49c.68-2.18 2.47-3.48 3.51-5.45h-3.08v-1.21h5.29c-.71 2.13-2.44 3.48-3.47 5.51.86 0 1.63.04 2.39-.01.79-.05 1.14.21.85 1.16"/><path d="m39.33 393.86v-6.61h3.7v1.07h-2.22v1.52c.68.04 1.34.09 2.07.13v1.07c-.72.05-1.38.09-2.1.14v1.48h2.4v1.19h-3.85z"/><path d="m27.71 388.56c-1.15-.3-2.46-.61-3.1.64-.37.73-.41 1.93-.06 2.67.63 1.35 1.99.93 3.17.68.35.94-.01 1.32-.93 1.46-1.62.25-3.05-.27-3.76-1.48-.73-1.24-.6-3.03.31-4.17.88-1.11 2.71-1.7 4-1.16.32.13.44.74.65 1.12-.1.08-.19.16-.28.24"/><path d="m49.15 387.24v1.07c-.59.02-1.17.05-1.87.08v5.44h-1.48v-5.44h-1.85c-.05-.4-.08-.73-.13-1.15z"/><path d="m20.06 387.21h1.33v6.62h-1.33z"/><path d="m30.68 393.25c-.49.38-.8.79-1.05.76-.32-.05-.6-.45-.9-.7.26-.24.51-.64.8-.67.29-.04.62.3 1.15.61"/></g><path d="m284.1 277.12c3.09-1.42 6.02-2.63 8.82-4.1 6.9-3.61 13.74-7.34 20.61-11.03 1.38 1.79 2.32 3.01 3.28 4.26 4.21-4.52 5.85-4.89 9.59-2.13 1.3-.73 2.67-1.5 4.29-2.41 3.85 4.32 10.38 6.33 11.31 13.74-1.12-.59-1.79-.95-2.45-1.3-.31.19-.62.38-.94.56.78 1.88 1.25 4 2.41 5.61 2.85 3.94 4.91 7.71 2.78 12.87-1.18 2.86-1.69 6.27 1.87 8.52-.37.56-.64 1.01-.96 1.42-2.19 2.84-3.55 5.92-3.06 9.63 1.26 9.68.61 10.99-8.15 16.91 2.03 3.97-.22 8.91-5.4 11.76-1.3.71-2.62 1.4-3.98 1.98-2.27.97-4.17 1.94-3.1 5.09.23.69-.75 2.31-1.56 2.74-4.1 2.12-8.16 4.67-12.56 5.79-8.5 2.17-17.21 3.51-25.85 5.12-1.4.26-2.94.42-4.29.08-1.42-.36-2.68-1.36-4.29-2.23-4.74 5.29-10.19 2.99-15.91 1-3.75-1.31-7.84-1.69-11.81-2.31-4.35-.68-8.02-2.22-10.65-6.06-3.57-5.2-7.99-9.35-13.99-12.01-2.01-.89-3.56-4.19-4.16-6.66-2.44-10.07-1.7-20.19.47-30.24.04-.21.05-.46.18-.6 2.72-3 1.92-5.96.34-9.24-.59-1.22-.18-3.35.51-4.68 2.34-4.51 5.07-8.81 7.51-13.27 1.03-1.89 3.06-3.54 1.6-6.3-.34-.64.78-2.39 1.61-3.25 3.16-3.26 6.28-6.62 9.8-9.48 5.82-4.73 11.29-9.6 14.03-16.88.44-1.18 1.65-2.07 2.83-3.48-3.52-4.49-2.66-10.08-2.91-15.54-.11-2.48-1.07-4.91-1.64-7.37 3.21-1.73 3.23-2.75.1-4.86-3.08-2.07-6.16-4.14-9.27-6.16-1.98-1.28-4.04-2.4-3.87-5.29.03-.44-.61-1.21-1.07-1.34-7.82-2.15-12.12-8.13-15.64-14.71-6.35-11.91-6.42-24.62-3.81-37.47.55-2.7 1.83-5.39 3.32-7.74 5-7.87 10.28-15.56 15.35-23.39.81-1.25 1.05-2.88 1.56-4.33-.25-.25-.51-.51-.76-.76 6.65-3.22 13.32-6.42 19.95-9.68 3.69-1.81 7.3-3.81 11.01-5.56 1.04-.49 2.35-.43 3.14-.56 2.87-.67 5.29-1.58 7.75-1.74 6.93-.47 13.77-1.85 20.84-.68 8.42 1.4 16.52 3.06 22.09 10.31.63.81.97 1.85 1.52 2.93 3.46-.27 4.66.71 5.72 4.52 1.24 4.46 2.74 8.85 3.99 13.31.39 1.38.5 2.9.41 4.33-.22 3.49-.77 6.96-.93 10.45-.4 8.33-5.57 13.24-12.12 17.16-1.54.92-3.29 1.47-4.86 2.34-.72.4-1.22 1.19-2.24 2.22-5.2-2.88-9.85.44-14.82 2.76-2.01.94-4.48.98-6.77 1.18-5.23.47-10.48.78-15.72 1.16-.09-.4-.18-.79-.26-1.19 3.88-1 7.76-1.99 11.63-3.01.88-.23 1.99-.35 2.55-.95 3.37-3.6 7.75-4.55 12.34-5.09 6.85-.8 12.86-3.37 17.68-8.44 5.95-6.25 5.49-13.78 4.56-21.52-.84-6.93-3.88-11.42-11.06-13.45-6.17-1.74-11.95-4.86-17.97-7.18-1.35-.52-3.09-.63-4.51-.3-8.97 2.11-18 4.04-26.78 6.77-4.23 1.31-7.97 4.22-11.9 6.45-.39.22-.8.83-.79 1.25.09 3.38-2.33 4.74-4.81 5.98-3.23 1.62-5.61 4-7.34 7.19-1.31 2.42-2.8 4.77-4.46 6.95-2.89 3.78-3.72 7.99-3.13 12.58.5 3.94-.48 7.36-2.82 9.39.26 3.28.46 5.87.68 8.73 1.03-.43 1.82-.75 2.98-1.23.3 3.76.65 7.22.82 10.7.1 1.87.68 3.01 2.74 3.02 3 .01 4.61 1.65 5.06 4.52.36 2.28 1.66 3.5 3.94 3.85 2.46.37 3.83 2.12 5.49 3.84 2.53 2.61 5.57 4.91 8.76 6.67 5.63 3.09 8.46 7.85 9.43 13.88.76 4.68 2.96 8.31 6.93 10.84 1.89 1.21 2.02 2.79 1.79 4.88-1.1 9.97-7.3 17.69-11.42 26.32-.34.71-1.42 1.18-2.25 1.54-2.96 1.28-5.99 2.39-8.91 3.73-.77.36-1.33 1.29-1.85 2.05-2.72 4.04-5.39 8.1-8.17 12.29-1.35-.6-2.58-1.14-4.31-1.9-.58 4.1-1.28 7.99-1.64 11.9-.2 2.16-.71 3.58-3.09 4.01-.64.12-1.31 1.11-1.61 1.84-.86 2.09-1.38 4.32-2.31 6.37-2.39 5.27-5.08 10.4-7.32 15.73-.99 2.36-.25 4.65 1.94 6.5 3.1 2.63 3.94 6.47 4.45 10.27.75 5.53 2.85 9.77 8.1 12.7 3.97 2.21 7.25 5.69 10.72 8.75 1.89 1.67 3.31 1.69 4.42-.71 1.02-2.22 2.18-2.74 4.65-2.25 6.44 1.27 12.94 2.2 19.45 3.1 5.04.69 9.82-.21 14.5-2.4 3.91-1.83 8.16-2.9 12.18-4.5 11.96-4.76 20.26-13.59 26.5-24.51 2.19-3.83 4.17-7.9 3.97-12.56-.01-.31-.03-.81.14-.91 3.95-2.48 1.66-6.22 1.93-9.43.06-.73-.19-1.51-.05-2.22 1.01-5.25-2.26-7.93-5.88-10.83-7.14-5.72-14.92-6.58-23.35-4.04-.97.29-1.73 1.32-2.84 2.21-2.28-1.34-4.43-.37-6.55 1.37-5.33 4.38-10.44 8.95-14.07 14.33 1.47 2.41 2.8 4.38 3.86 6.48.38.76.49 2.24.02 2.73-2.83 2.98-.16 5.05 1.01 7.59-.39.17-1.06.67-1.28.52-3.14-2.13-7.26-3.12-8.47-7.49-.62-2.24-1.58-4.38-2.29-6.6-.81-2.52-2.32-4.91.13-7.62.82-.91.35-3.04.38-4.62.05-2.87.85-4.94 3.93-6.13 1.39-.51 2.11-2.69 2.78-3.65z" fill="#010000"/><path d="m64.99 167.38c-.42-.88-.91-1.92-1.49-3.14 2.03-1.43 3.99-2.82 6.15-4.35-2.4-2.59-4.78-4.87-6.78-7.43-.93-1.19-1.64-2.96-1.57-4.43.21-4.43.24-8.6-1.3-13.03-1.34-3.84-1.16-8.39-.87-12.58.78-11.09 2.05-22.15 2.97-33.24.17-2.08 1.07-3.38 2.76-4.19 3.36-1.61 5.09-4.33 5.5-7.89.34-2.9 1.94-4.83 4.3-6.26 2.26-1.36 3.2-3.29 3.53-5.94.21-1.65 1.25-3.58 2.53-4.64 7.77-6.43 16.91-9.2 26.88-10.18 13.9-1.38 27.76-3.25 41.63-4.95 2.86-.35 5.64-.75 8.23 1.13.51.37 1.61.25 2.29-.01 7.45-2.85 15.28-1.94 22.96-2.13 1.52-.04 3.09 1.89 4.88 3.06 1.62-1.07 3.46-2.46 5.47-3.55 3.25-1.77 6.63-2.11 9.94-.08 2.48 1.53 5.01 1.47 7.59.37 4.87-2.09 9.75-2.38 15.12-1.82 4.79.5 9.81-1.06 14.71-1.82 5.51-.85 10.88-2.51 16.64-1.07 1.55.39 3.8-1 5.39-2.07 3.01-2.01 6.02-2.44 9.56-1.75 3.83.75 7.82.62 11.67 1.3 2.92.52 5.71 1.72 9.4 2.89-5.04 3.8-9.4 6.87-14.54 6.91-10.04.08-19.39 2.81-28.8 5.76-7.96 2.49-16.16 3.57-24.48 2.14-2.89-.5-5.72-1.48-8.49-2.47-1.63-.58-2.82-.51-3.83.95-2.42 3.47-5.73 4.51-9.89 4.08-3.36-.35-6.78-.09-10.17-.07-5.34.03-10.8.71-15.19-3.66-.76 1.05-1.19 1.61-1.58 2.2-2.07 3.17-4.95 4.5-8.71 3.82-2.19-.4-4.41-.67-6.55-1.23-3.58-.95-6.93-1.42-10.09 1.34-1.55 1.35-3.45 1.19-5.26-.14-1.78-1.31-3.75-2.37-5.89-3.69-2.31 3.49-5.53 3.62-9.27 2.98-2.51-.43-5.2.13-7.81.25-.73.03-1.62.38-2.17.09-6.65-3.59-12.83-.2-18.96 1.5-5.95 1.64-10.88 5.11-14 10.74-.95 1.71-1.99 2.69-4.56 2.26-1.33-.23-4.06 2.15-4.61 3.85-2.06 6.4-4.19 12.95-1.11 19.74.35.77.16 2.16-.33 2.89-4.23 6.17-4.08 12.53-1.22 19.14 1.92 4.45 1.56 9.15 1.07 13.78-1.13 10.7 1.14 21.16 4.57 30.88 3.07 8.7 5.51 17.26 6.34 26.35.42 4.58.26 9.08-1.89 13.34-.53 1.05-.54 2.46-.49 3.69.19 5.3.38 10.6.77 15.88.36 4.91.22 9.69-1.64 14.36-.39.98.15 2.37.4 3.55.45 2.11 1.42 4.2 1.43 6.3.03 8.27-.07 16.54-.47 24.8-.15 2.98-.97 6.04-2.05 8.84-1.68 4.37-2.32 9.19-5.54 12.98-.64.75-.27 2.65.09 3.89.81 2.78.71 5.21-.7 7.9-3.13 6-5.89 12.19-8.9 18.51 3.31 1.88 3 4.52 1.84 7.63-2.25 6.05-4.62 12.11-6.16 18.35-1.66 6.75-6.33 11.03-10.79 15.66-2.77-2.95-4.63-12.12-2.76-15.21 1-1.64 2.81-2.85 4.43-4.02 2.17-1.58 3.5-3.48 3.84-6.22.52-4.11 2.2-7.73 4.18-11.45 5.12-9.59 7.95-19.95 5.71-30.92-1.38-6.79-.45-13.28 1.17-19.76.71-2.84-.35-6.43 3.07-8.37.31-.18.17-1.19.21-1.82.42-6.3 1.22-12.62 1.11-18.91-.08-4.93-1.17-9.87-2.02-14.77-2.86-16.5-5.61-33-5.33-49.85.03-1.61-1.18-3.22-1.71-4.86-.98-2.98-2.07-5.95-2.69-9.01-.17-.73 1.32-1.81 2.33-3.1z" fill="#010000"/><path d="m151.79 280.53c.72 1.69 1.16 2.75 1.61 3.8.42.96.85 1.91 1.23 2.78-.15.34-.19.63-.33.69-8.3 3.6-13.25 11-19.42 17.02-2.04 1.99-4.15 3.94-6.33 5.77-.86.72-2.01 1.43-3.08 1.5-1.09.08-2.23-.63-3.35-1 .48-.95.77-2.09 1.48-2.81 4.82-4.88 9.93-9.51 14.55-14.57 2.76-3.02 4.95-6.61 7.11-10.12.94-1.53 1.07-3.53 1.7-5.27.45-1.23.83-2.71 1.74-3.49 4.14-3.52 6.37-7.85 7.32-13.22.45-2.56 2.28-4.95 3.78-7.22 3.5-5.32 6.72-10.64 8.05-17.1.59-2.88 3.39-5.27 5.02-7.98 1.24-2.06 2.33-4.23 3.32-6.43 5.51-12.17 5.97-25.2 6.33-38.23.18-6.57.48-13.13.5-19.7.01-3.48-.52-7.01 4.77-7.65-3.88-.59-4.52-3.04-4.89-5.99-.57-4.51-1.58-8.97-2.2-13.48-.21-1.51.2-3.11.32-4.6-1.4-4.17-3.1-8.37-4.2-12.72-1.15-4.55-3.44-8.12-7.06-10.56.76-1.46 1.77-2.7 1.96-4.05.11-.78-1.14-1.74-2.15-3.14-.71 1.91-1.17 3.15-1.87 5.03-1.17-3.51-2.17-6.47-3.16-9.44.17-.13.34-.27.51-.4 3.12 2.26 6.24 4.51 9.53 6.9-.41.45-.76.84-1.34 1.46 2.89 2.19 4.44 4.92 4.55 8.79.05 1.9 1.74 4.1 3.26 5.57 10.78 10.49 14.09 23.15 12.88 37.92-.8 9.78-1.35 19.66 1.95 29.53 2.29 6.85-.54 14-3.96 20.33-1.33 2.46-2.36 4.54-1.19 7.4.5 1.22.21 2.98-.24 4.31-.85 2.49-1.76 5.07-3.21 7.23-5.29 7.84-7.9 16.54-9.12 25.79-.15 1.11-.8 2.71-1.65 3.08-2.8 1.2-4.08 3.52-5.39 5.96-1.96 3.64-4.06 7.19-6.02 10.82-1.66 3.08-3.99 5.06-7.57 5.62-1.84.3-3.57 1.15-5.74 1.87zm12.65-18.95c.91 3.99 2.84 1.98 4.67 1.27-.25-1.15-.47-2.15-.73-3.35-1.34.71-2.53 1.33-3.94 2.08z" fill="#010000"/><path d="m138.11 144.81c3.44 2.62 5.75 9.83 4.39 13.55-.24.65-.84 1.2-1.33 1.73-1.01 1.08-2.16 2.05-3.1 3.19-2.78 3.35-2.35 5.97 1 8.75 1.89 1.57 3.44 3.54 5.37 5.56-3.39 2.93-3.91 6.05-2.65 9.57.2.57.24 1.34.02 1.88-2.28 5.62-2.76 11.95-6.71 16.9-3.17 3.98-6.2 8.07-9.47 11.97-1.86 2.22-3.14 4.47-2.62 7.45.33 1.9-.47 2.88-2.38 3.33-2.57.6-5.2 1.21-7.59 2.27-3.39 1.51-5.85.83-7.77-2.36.01-.08.05-.27.06-.46.3-4.9 3.12-8.03 6.62-11.29 2.71-2.52 3.95-6.64 5.76-10.1 1.84-3.52 3.57-7.09 5.78-11.5.48 1.85.68 2.66.93 3.62 5.14-7.02 7.69-14.36 5.92-22.97-1.12-5.44-.92-10.96.79-16.35.18-.56.36-1.51.09-1.75-2.78-2.38-1.47-5.3-1.08-8.02.44-3.12.57-6.13-1.29-8.86-2.75-4.02-2.14-8.72-2.78-13.17-.2-1.39-.59-2.96-1.43-4.02-2.75-3.48-5.08-6.99-4.68-11.75.11-1.26-.57-2.59-1.07-4.66 5.18 4.54 9.82 8.54 14.35 12.66.6.55.84 1.67.95 2.56.34 2.63.28 5.33.88 7.89.42 1.81 1.28 3.85 2.6 5.06 4.24 3.84 4.47 5.16.44 9.32z" fill="#010000"/></svg>