<svg enable-background="new 0 0 400 400" viewBox="0 0 400 400" xmlns="http://www.w3.org/2000/svg"><g fill="#fbfafc"><path d="m37.59 393.81c-.92.31-1.52.05-2-.78-.7-1.2-1.52-2.34-2.47-3.78v4.59c-.55.03-.95.05-1.41.07-.03-.37-.06-.64-.06-.91 0-1.91 0-3.81 0-5.7 1.13-.41 1.77-.03 2.29.91.62 1.11 1.38 2.14 2.31 3.19v-4.2h1.35v6.61z"/><path d="m12.94 393.88v-6.75c1.9.19 3.93-.54 5.37 1.29.8 1.01.78 2.88.03 3.97-1.37 1.97-3.4 1.51-5.4 1.49m1.45-1.22c2.04.12 2.92-.58 2.89-2.21-.03-1.51-.98-2.19-2.89-2z"/><path d="m11.81 393.87h-5.49c.68-2.18 2.47-3.48 3.51-5.45h-3.08v-1.21h5.29c-.71 2.13-2.44 3.48-3.47 5.51.86 0 1.63.04 2.39-.01.79-.05 1.14.21.85 1.16"/><path d="m39.33 393.86v-6.61h3.7v1.07h-2.22v1.52c.68.04 1.34.09 2.07.13v1.07c-.72.05-1.38.09-2.1.14v1.48h2.4v1.19h-3.85z"/><path d="m27.71 388.56c-1.15-.3-2.46-.61-3.1.64-.37.73-.41 1.93-.06 2.67.63 1.35 1.99.93 3.17.68.35.94-.01 1.32-.93 1.46-1.62.25-3.05-.27-3.76-1.48-.73-1.24-.6-3.03.31-4.17.88-1.11 2.71-1.7 4-1.16.32.13.44.74.65 1.12-.1.08-.19.16-.28.24"/><path d="m49.15 387.24v1.07c-.59.02-1.17.05-1.87.08v5.44h-1.48v-5.44h-1.85c-.05-.4-.08-.73-.13-1.15z"/><path d="m20.06 387.21h1.33v6.62h-1.33z"/><path d="m30.68 393.25c-.49.38-.8.79-1.05.76-.32-.05-.6-.45-.9-.7.26-.24.51-.64.8-.67.29-.04.62.3 1.15.61"/></g><path d="m247.86 164.79c2.05 2.15 3.7 3.46.99 5.53 4.96 2.47 6.08 6.62 6.49 11.44.85 9.75-.72 19.06-3.55 28.38-2.28 7.5-5.79 14.18-10.24 20.52-1.62 2.31-2.9 4.94-3.91 7.59-1.23 3.22-1.22 6.22.85 9.57 2.25 3.62 4.81 7.45 3.7 12.45-.33 1.48 1.44 3.41 2.18 5.16 1.05 2.48 2.03 4.99 3.08 7.47.48 1.14 1.02 2.25 1.58 3.36 1.43 2.81 3.01 5.55 4.25 8.45.45 1.04.07 2.44.07 4.34 6.67 4.62 7.5 13.29 10.15 20.78.87 2.45 1.94 4.62 3.18 6.79 4.74 8.28 9.16 16.7 11.62 26.01.37 1.42.75 2.98 1.62 4.09 2 2.58 2.1 4.57-1.57 6.34-2.43-4.78-5.1-9.56-7.32-14.55-2.18-4.91-3.89-10.02-5.83-15.04-.71-1.84-1.34-3.47-2.88-5.12-2.12-2.27-2.66-5.96-4.1-8.94-.67-1.38-2.15-2.38-2.77-3.77-1.7-3.86-3.15-7.84-4.69-11.78.55-.64 1.07-1.24 1.59-1.84-.68-.16-1.39-.22-2.01-.5-.5-.23-1.02-.64-1.3-1.11-4.31-7.2-8.45-14.47-9.18-23.1-.07-.81-.48-1.61-.77-2.39-1.77-4.84-3.41-9.73-5.4-14.47-.61-1.45-2.13-3.41-3.38-3.52-3.67-.32-7.4-.54-10.9 1.84-1.74 1.18-4.47.9-6.88 1.3 0-.06 0 .54 0 1.59-1.21-.58-2.23-1.07-3.07-1.47 4.04-2.19 8.09-3.9 11.6-6.39 5.66-4.01 6.62-7.65 4.73-14.32-.12-.41-.44-.86-.35-1.21 1.56-5.88-3.28-10.29-3.57-15.88-.29-5.55-1.91-11.04-2.92-16.55-.78-4.26-1.3-8.59-2.35-12.78-.94-3.77-2.53-7.37-3.67-11.1-.4-1.32-.31-2.79-.4-4.2-.04-.62.1-1.26.01-1.87-.48-3.19-.77-6.42-1.57-9.53-1.31-5.08-2.84-10.12-4.53-15.09-.7-2.06-2.51-3.02-4.83-2.82-4.96.43-9.92.8-14.88 1.2-3.65.3-6.71-.66-8.88-4.47-.42 1.5-.73 2.62-.91 3.23-2.51.32-4.79.77-7.08.86-2.44.1-5.06-.71-7.31-.08-3.91 1.09-7.42-2.1-11.54-.13-3.88 1.85-8.3 1.13-12.21-1.09-1.09-.62-2.14-1.33-3.14-1.95-.89.76-1.65 1.41-2.73 2.34-.68-2.57.11-3.63 2.03-3.87 3.15-.38 6.3-.82 9.46-1 5.5-.31 11.01-.56 16.51-.6 2.02-.01 4.03.7 6.06 1.02 1.77.28 3.56.67 5.34.68 8.8.04 17.6-.03 26.4-.07 3.37-.02 5.89-3.15 5.51-6.49-.93-8.3-1.7-16.62-2.64-24.92-.27-2.39-.92-4.73-1.4-7.09-.3-1.45-.88-2.9-.87-4.35.04-5.63 1.38-11.52.13-16.81-1.31-5.53-2.2-10.95-2.21-16.55 0-1.23 1.12-2.42 1.39-3.69.32-1.51.94-3.54.26-4.57-3.14-4.79-1.97-9.75-1.43-14.81 3.2 1.14 4.84 11.62 2.48 14.98.67.79 1.34 1.59 2.18 2.57-.4.85-.82 1.76-1.25 2.67.26-.02.53-.04.79-.06.27 1.85.55 3.7.79 5.55.07.52-.21 1.15 0 1.57 2.89 5.69 1.87 12.04 3.02 18.02 1.23 6.37 2.32 8.21 8.73 9.04 6.47.84 13.05.72 19.59 1.04 1.19.06 2.38.24 3.53.76-1.46 2.1-2.89 2.82-4.16.39-3.67 1.64-7.04 3.86-10.88 1.09-3.15 2.3-6.26-1.02-9.55.01-3.87 1.21-6.45 4.86-5.65 8.85.81 4.08 2.8 8.2.34 11.27 1.01 3.99 2.18 7.16 2.56 10.43 1.07 9.05 3.32 11.59 12.24 12.84.62.09 1.41.29 1.85.01 4.94-3.12 9.9-.58 14.83-.09.59.06 1.09 1 1.64 1.53-.57.51-1.1 1.37-1.73 1.46-1.86.26-3.82.54-5.63.23-3.79-.66-7.32-.51-10.67 1.6-1.15.73-2.51 1.66-3.75 1.62-3.91-.11-3.9 2.42-3.72 5.03.11 1.56.75 3.08.94 4.64.52 4.29.74 8.63 1.44 12.88.6 3.62 1.74 7.15 2.58 10.73.28 1.2.41 2.44.66 3.95.53.94 1.58 2.2 1.98 3.64.84 3.06 1.76 6.19 1.86 9.32.12 3.64.73 6.91 2.94 9.82.24.31.36.81.33 1.21-.36 6.33 3.43 11.58 4.56 17.53.02.1.05.2.09.31.83 2.54 2.32 5.38 4.94 5.01 1.79-.26 3.2-3.15 4.77-4.88.13-.15.14-.4.23-.59 4.53-9.71 6.01-19.89 5.36-30.58-.44-7.29-.09-14.63-.08-21.94.01-1.03.11-2.04.21-3.91z" fill="#010000"/><path d="m142.13 171.15c4.79 1.77 6.06 4.63 5.95 8.36-.16 5.46-.04 10.85 3.57 14.88 3.2 0 6.08.21 8.92-.05 3.47-.32 6.91-1.01 10.35-1.57 3.12-.51 6.07-.47 8.22 1.91-3.47 6.49-9.5 6.77-15.57 6.86-3.39.05-6.79.08-10.17-.14-2.43-.16-3.96.88-4.55 3-.65 2.31-1.12 4.72-1.24 7.11-.19 3.7.11 7.41-.03 11.11-.08 2.32-.92 4.36-4.59 4.99-.07-2.7-.15-5.27-.19-7.84-.02-1.57.28-3.19.02-4.71-.6-3.62-1.42-7.2-2.21-10.78-.42-1.89-5-4.62-7.12-3.47-2.52 1.37-4.77.06-7.13.53-5.09 1-10.25 1.44-15.06-2.28.27-.83.6-1.84.97-2.96 3.95 2.9 3.95 2.9 4.68.09 4.5-.32 8.74-.75 12.98-.84 1.39-.03 3.01.57 4.16 1.39 2.13 1.51 4.51 1.01 5.16-1.57 1.13-4.52 2.11-9.07 3.08-13.63.15-.68-.17-1.45-.18-2.18-.03-2.52-.02-5.05-.02-8.21z" fill="#010000"/><path d="m181.66 260.32c1.23 5.22-1.09 5.98-4.75 6.36-10.97 1.13-19.59 7.4-28.2 13.61-.76.55-1.86.62-2.39.78-4.48 4.47-8.86 8.86-13.27 13.23-2.2 2.18-3.71 4.4-4.17 7.82-.39 2.91-2.92 5.5-4.34 8.32-.63 1.25-.6 2.84-1.28 4.04-1.24 2.17-2.95 4.06-4.13 6.25-.67 1.23-1.41 3.53-.84 4.13 2.94 3.08 1.83 6.13.34 9.09-1.35 2.69-1.95 5.28-1.1 8.23.7 2.43-.58 3.56-2.97 3.27.6 3.5 1.14 6.56 1.62 9.63.06.38-.11.83-.25 1.22-.7 2.05-1.42 4.09-2.38 6.85-.5-2.05-1.16-3.84-1.34-5.68-.2-2.07-.05-4.18.09-6.26.34-5.26.7-10.51 1.18-15.76.25-2.74.54-5.5 1.18-8.16.67-2.79 1.76-5.48 2.7-8.2 1.41-4.08 2.69-8.21 4.33-12.19 1.05-2.56 1.9-5.58 5.64-6.03-.11-.81-.31-1.63-.33-2.45-.06-2.62-.04-5.12 2.21-7.18 3.36-3.07 6.55-6.33 9.67-9.65 1.65-1.75 3.32-2.36 5.69-1-.08-4.49 3.16-6.47 6.06-8.48 3.31-2.3 6.37-5.4 10.97-4.96.29.03.68-.07.89-.26 7.45-6.74 17.34-7.27 26.23-10.32.69-.24 1.47-.5 2.16-.41.88.12 1.7.6 2.55.92.19.39.38.78.57 1.17.48-1.15.91-2.34 1.48-3.45.28-.55.73-1.17 1.26-1.41 2.9-1.29 5.83-2.51 8.79-3.65.56-.22 1.66-.19 1.88.14.34.52.37 1.48.13 2.11-1.81 4.76-2.62 5.2-8.65 5.35-.54.01-1.03.73-1.61.91-1.59.51-2.11 3.44-4.87 1.76-.77-.47-3.04 1.35-4.51 2.29-2.22 1.45-3.75 1.24-6.24-1.98z" fill="#010000"/><path d="m252.41 136.99c-1.72 2.81-6.52 3.72-8.74 1.95-.25-.2-.4-.68-.39-1.02.01-.21.37-.57.61-.61 3.09-.47 6.18-1.25 9.27-1.23 3.35.01 6.74.57 10.03 1.27 2.84.61 5.6 1.71 6.81 4.35-4.27 0-8.51.03-12.76-.01-1.66-.02-3.49.15-3.08-2.59.08-.54-.99-1.24-1.75-2.11z" fill="#010000"/><path d="m143.2 228.65c3.52 1.1 4.61 2.55 4.4 5.06-.23 2.66-.3 5.34-.47 8.01-.13 1.99-.31 3.97-.85 5.94-2.06-3.36-4.13-6.6-2.26-10.65.28-.61.3-1.43.21-2.12-.24-1.84-.6-3.67-1.03-6.24z" fill="#010000"/><path d="m148.51 169.36c-2.49 0-3.92 0-5.78 0 .6-2.57 1.16-4.96 1.72-7.36.32-.09.65-.18.97-.27.96 2.38 1.92 4.75 3.09 7.63z" fill="#010000"/><path d="m250.07 94.67c-3.81-.85-7.04-1.57-11.07-2.48 3.05-1.86 9.8-.34 11.07 2.48z" fill="#010000"/><path d="m122.63 136.64c3.07-2.47 5.31-1.41 7.15 1.39-2.31-.06-4.94 1.57-7.15-1.39z" fill="#010000"/></svg>