<svg enable-background="new 0 0 400 400" viewBox="0 0 400 400" xmlns="http://www.w3.org/2000/svg"><g fill="#fbfafc"><path d="m37.59 393.81c-.92.31-1.52.05-2-.78-.7-1.2-1.52-2.34-2.47-3.78v4.59c-.55.03-.95.05-1.41.07-.03-.37-.06-.64-.06-.91 0-1.91 0-3.81 0-5.7 1.13-.41 1.77-.03 2.29.91.62 1.11 1.38 2.14 2.31 3.19v-4.2h1.35v6.61z"/><path d="m12.94 393.88v-6.75c1.9.19 3.93-.54 5.37 1.29.8 1.01.78 2.88.03 3.97-1.37 1.97-3.4 1.51-5.4 1.49m1.45-1.22c2.04.12 2.92-.58 2.89-2.21-.03-1.51-.98-2.19-2.89-2z"/><path d="m11.81 393.87h-5.49c.68-2.18 2.47-3.48 3.51-5.45h-3.08v-1.21h5.29c-.71 2.13-2.44 3.48-3.47 5.51.86 0 1.63.04 2.39-.01.79-.05 1.14.21.85 1.16"/><path d="m39.33 393.86v-6.61h3.7v1.07h-2.22v1.52c.68.04 1.34.09 2.07.13v1.07c-.72.05-1.38.09-2.1.14v1.48h2.4v1.19h-3.85z"/><path d="m27.71 388.56c-1.15-.3-2.46-.61-3.1.64-.37.73-.41 1.93-.06 2.67.63 1.35 1.99.93 3.17.68.35.94-.01 1.32-.93 1.46-1.62.25-3.05-.27-3.76-1.48-.73-1.24-.6-3.03.31-4.17.88-1.11 2.71-1.7 4-1.16.32.13.44.74.65 1.12-.1.08-.19.16-.28.24"/><path d="m49.15 387.24v1.07c-.59.02-1.17.05-1.87.08v5.44h-1.48v-5.44h-1.85c-.05-.4-.08-.73-.13-1.15z"/><path d="m20.06 387.21h1.33v6.62h-1.33z"/><path d="m30.68 393.25c-.49.38-.8.79-1.05.76-.32-.05-.6-.45-.9-.7.26-.24.51-.64.8-.67.29-.04.62.3 1.15.61"/></g><path d="m101.89 283.05c.3-4.35.6-8.77.91-13.18.01-.21.06-.43.15-.61 2.68-5.47 5.32-10.96 8.09-16.37.38-.74 1.43-1.14 2.65-2.07.15-1.05.58-2.72.61-4.39.18-8.39 3.92-15.61 6.87-23.22 4.11-10.61 7.3-21.63 6.15-33.33-.39-3.97-3.23-6.43-7.19-6.14-4.95.37-9.91.68-14.85 1.1-1.14.1-2.29.41-3.37.81-5.76 2.12-11.51 4.27-17.25 6.45-3.52 1.34-6.9 1.01-10.07-.89-3.11-1.86-3.23-4.51-.49-6.79.08-.07.17-.13.25-.2 5.24-5.57 11.86-7.6 19.27-9.1 8.95-1.81 17.59-5.29 26.26-8.34 3.9-1.37 6.59-4.59 7.61-8.48 1.23-4.66 1.65-9.54 2.4-14.32.05-.31.07-.71-.09-.94-3.48-4.87-2.39-10.29-2.06-15.67.26-4.29-.63-8.37-2.77-12.22-4.06-7.31-8.05-14.66-11.87-22.1-1.33-2.59-2.06-5.5-3.16-8.53 3.13-.74 5.58-.96 7.89 1.32 2.93 2.91 6.09 5.6 9.23 8.29 1.1.94 2.35 1.94 3.7 2.33 3.8 1.12 5.71 3.85 6.82 7.32 1.32 4.13 2.35 8.36 3.79 12.45 1.76 4.98 2.73 5.39 8 4.57 3.24-.51 6.52-.83 9.74-1.49 2.03-.42 3.99-1.24 5.95-1.97 5.03-1.88 9.93-4.22 15.08-5.61 6.46-1.74 8.47-4.19 7.3-10.89-.83-4.75-2.37-9.02-5.98-12.64-4.62-4.65-8.32-10.25-13.11-14.68-3.72-3.45-8.34-6.08-12.88-8.48-4.38-2.32-9.13-3.94-13.76-5.76-3.48-1.37-6.82-2.79-8.89-6.22-.45-.75-1.7-1.33-2.63-1.41-4.3-.34-8.01-2.02-11.08-4.92-2.76-2.6-5.9-2.82-9.4-2.42-3.08.35-4.24-.84-4.32-3.9-.09-3.49.47-4.1 3.87-4.1 7.64-.01 15.27-.07 22.91.06 1.37.02 2.74.74 4.07 1.25 1.08.41 2.1 1.44 3.13 1.42 4.29-.09 7.61 2.26 11.25 3.93 2.16 1 4.67 1.21 6.97 1.95 1.12.36 2.6.86 3.08 1.75 1.43 2.61 3.69 3.65 6.34 4.29 1.34.32 2.67.66 4 1.01 5.5 1.43 9.86 4.26 12.21 9.69 2.48 5.73 4.97 11.45 7.61 17.11 1.33 2.86 2.75 5.74 4.59 8.28 2.05 2.82 5.04 4.13 8.67 3.41 2.19-.43 3.74-1.35 4.7-3.65 2.06-4.94 4-9.95 8.83-13.24 1.29-.87 1.57-3.57 1.85-5.49.49-3.32 1.78-5.9 4.64-7.87 6.71-4.62 13.19-9.57 19.99-14.04 1.5-.98 3.94-.47 5.92-.8 1.13-.19 2.44-.43 3.26-1.12 6.49-5.51 13.71-7.84 22.38-7.21 6.14.45 12.42-.7 18.61-1.4 3.53-.4 6.67-.04 10.14 1.17 3.99 1.38 8.51 1.27 12.8 1.71 4.46.45 6.05 2.02 6.45 6.8-2.43 1.1-4.9 2.28-7.44 3.31-.54.22-1.49.11-1.95-.24-3.54-2.74-7.07-2.73-10.78-.34-.59.38-1.72.45-2.33.14-2.67-1.34-4.88-.57-7.05 1.08-2.59 1.98-5.51 2.84-8.8 3.1-2.57.2-5.18.96-7.61 1.91-9.86 3.85-19.71 7.74-29.44 11.91-2.64 1.13-5.05 3.09-7.16 5.09-3.78 3.56-8.77 6.01-10.59 11.49-.4 1.21-2.12 1.99-3.26 2.94-.65.54-1.66.9-1.95 1.58-.81 1.89-1.72 3.9-1.74 5.87 0 .61 2.78 1.8 4.24 1.73 3.12-.14 6.32-.58 9.3-1.49 13.48-4.13 26.36-3.71 38.41 4.4.35.24.7.49 1.08.67 7.11 3.4 11.84 8.69 14.4 16.3 3.29 9.75 7.14 19.24 5.7 29.92-.63 4.7-.06 9.57-.62 14.29-.55 4.55 1.61 7.36 5.04 9.38 2.43 1.43 5.28 2.11 7.89 3.24 3.56 1.54 7.07 3.2 11.15 5.06-3.02 3.15-6 4.4-9.49 4.44-4.98.06-9.97.15-14.95-.04-2.37-.09-4.17.66-5.54 2.4-1.51 1.9-2.87 3.92-4.19 5.95-.63.97-1.02 2.09-1.48 3.16-2.51 5.86-5.99 9.93-13.32 8.93-5.32-.73-10.45.84-15.52 2.54-8.13 2.71-16.33 5.25-24.54 7.7-2.12.63-3.26 1.7-3.53 3.84-1.27 10.48-.53 11.63 9.14 12.59 5.13.51 10.4.42 15.54-.08 7.59-.75 14.13-4.03 19.41-9.67 3.34-3.56 6.73-7.11 11.66-8.49 2.91-.82 3.83-.22 4.17 2.82.12 1.04.25 2.23-.12 3.15-2.46 6.03-4.71 12.04-9.74 16.79-7.72 7.3-16.45 12.46-26.65 15.27-1.83.5-3.58 1.28-5.35 1.92-2.11-3.29-4.31-3.69-6.02-1.02.68.57 1.38 1.15 2.3 1.92-2.08 1.04-3.95 1.91-5.77 2.9-3.61 1.95-5.18 4.63-4.52 8.61 2.03 12.44 4.22 24.86 6.35 37.28.04.21.08.43.18.61 3.91 6.31 2.99 13.21 2.52 20.07-.29 4.23-.51 8.47-.58 12.71-.02 1.32.54 2.64.81 3.97 1.36 6.83 2.78 13.65 4.01 20.5.25 1.41.22 3.13-.39 4.36-.83 1.67-2.44 4.29-3.53 4.21-1.87-.15-4.6-1.69-5.23-3.32-3.81-9.79-9.05-19.15-8.79-30.24.08-3.21-1.69-6.49-2.74-9.69-4.08-12.47-9.2-24.76-10-37.98-.55-9.19-4.44-17.12-7.39-25.45-1.04-2.94-7.71-4.05-9.56-1.56-2.78 3.74-5.22 7.73-8.03 11.43-.85 1.12-2.46 1.69-3.74 2.46-1.05.63-2.23 1.1-3.21 1.83-.84.62-1.58 1.44-2.19 2.29-2.52 3.58-6.15 5.78-7.03 11.24-1.2 7.4-4.5 14.73-9.6 20.83-2.03 2.43-3.79 5.11-5.48 7.8-5.86 9.3-13.12 17.26-21.29 24.66-6.71 6.08-12.36 13.38-18.18 20.39-2.3 2.77-4.41 3.56-8.21 1.17.85-3.12 1.44-6.73 2.81-10.03 2.61-6.3 6.8-11.6 11.26-16.76 4.77-5.52 7.92-12.06 9.19-19.29.8-4.58 4.23-7.21 6.91-10.4 1.63-1.94 2.54-3.87 2.8-6.47.24-2.37 1.15-4.97 2.56-6.88 2.51-3.4 3.88-7.04 5.09-11.06 1.97-6.53 4.89-12.78 7.61-19.06.64-1.49 1.96-2.74 3.15-3.92 2.71-2.68 5.69-5.12 8.29-7.9 7.92-8.47 16.93-15.32 27.95-19.24 2.15-.77 2.84-2.15 3.02-4.26.32-3.8.78-7.59 1.31-11.37.26-1.88-.13-3.3-1.79-4.33-3.15-1.94-6.2-4.07-9.43-5.85-2.93-1.61-5.78-1.41-9.29-.71-5.34 1.06-11.1.15-16.67-.18-4.19-.25-8.34-1.09-12.53-1.28-1.21-.06-2.99.88-3.64 1.92-1.85 2.91-3.58 5.99-4.74 9.22-1.9 5.33-2.65 10.98-6.59 15.61-1.76 2.07-1.77 5.57-2.78 8.35-.74 2.06-1.61 4.13-2.76 6-5.39 8.74-10.87 17.42-16.37 26.1-.48.77-1.16 1.6-1.95 1.95-2.99 1.35-4.06 3.81-4.43 6.81-.5 4.44-2.56 5.68-7.43 4.22zm102.67-162.7c-8.16-1.23-16.04-.71-23.86 1.77-5.34 1.69-10.79 3.18-16.3 4.11-5.26.88-8.72 3.73-12.29 7.47-3.98 4.16-4.17 8.15-2.79 13.23.95 3.53 2.65 5.34 6.18 5.36 1.19.01 2.54-.2 3.55-.76 3.97-2.22 7.82-4.67 11.77-6.91 1.05-.6 2.36-.73 3.51-1.18 1.39-.54 3.03-.88 4.04-1.85 3.43-3.31 6.54-6.94 9.95-10.27.87-.85 2.37-1.06 3.58-1.56.48 1.19 1.37 2.39 1.37 3.58 0 5.81-1.35 11.36-4.23 16.42-2.23 3.91-5.17 7.17-9.42 9.11-2.86 1.31-5.71 2.71-8.33 4.45-5.03 3.34-9.69 7.25-14.86 10.33-4.63 2.75-5.37 6.73-4.99 11.34.36 4.41 1.49 5.44 5.94 5.75 2.1.14 4.26.33 6.33.02 10.99-1.63 21.96-3.37 32.93-5.15 2.92-.47 6.45-5.33 6.46-8.31.02-4.31-.48-8.78.43-12.92 3.19-14.6 3.35-29.18 1.03-44.03zm30.62 4.86c-.58-2.25-1.39-5.9-2.53-9.45-.28-.87-1.55-1.77-2.53-2-2.25-.54-4.6-.75-6.92-.96-3.17-.28-7.76 4.03-7.5 7.2.41 5.16.73 10.37 1.67 15.45 1.22 6.52 1.42 12.79.19 19.44-1.68 9.1-.22 18.13 4.34 26.45 1.32 2.4 3.06 3.45 5.95 3.84 4.33.58 8.15-.72 12.14-1.65 1.19-.28 2.7-.66 3.66-.19 3.55 1.76 6.65.96 9.86-.83 2.12-1.18 4.43-2.02 6.65-3.01 4.11-1.83 5.34-4.97 3.11-8.96-.94-1.69-2.45-3.2-4.02-4.37-2.71-2.02-5.7-3.65-8.51-5.55-.82-.56-1.82-1.33-2.06-2.2-2.15-7.6-6.88-13.81-10.95-20.34-2.21-3.57-3.71-7.07-2.55-12.87zm45.35 15.62c.02-16.95-11.44-28.42-27.19-28.17-3.3.05-6.64 3.35-6.38 6.57.63 7.87 3.27 15.08 8.04 21.35 1.8 2.37 4.08 4.64 6.64 6.07 2.69 1.51 5.99 1.89 8.98 2.89 5.23 1.75 9.06-.51 9.71-5.87.14-1.25.18-2.52.2-2.84z" fill="#010000"/></svg>