<svg enable-background="new 0 0 400 400" viewBox="0 0 400 400" xmlns="http://www.w3.org/2000/svg"><g fill="#fbfafc"><path d="m37.59 393.81c-.92.31-1.52.05-2-.78-.7-1.2-1.52-2.34-2.47-3.78v4.59c-.55.03-.95.05-1.41.07-.03-.37-.06-.64-.06-.91 0-1.91 0-3.81 0-5.7 1.13-.41 1.77-.03 2.29.91.62 1.11 1.38 2.14 2.31 3.19v-4.2h1.35v6.61z"/><path d="m12.94 393.88v-6.75c1.9.19 3.93-.54 5.37 1.29.8 1.01.78 2.88.03 3.97-1.37 1.97-3.4 1.51-5.4 1.49m1.45-1.22c2.04.12 2.92-.58 2.89-2.21-.03-1.51-.98-2.19-2.89-2z"/><path d="m11.81 393.87h-5.49c.68-2.18 2.47-3.48 3.51-5.45h-3.08v-1.21h5.29c-.71 2.13-2.44 3.48-3.47 5.51.86 0 1.63.04 2.39-.01.79-.05 1.14.21.85 1.16"/><path d="m39.33 393.86v-6.61h3.7v1.07h-2.22v1.52c.68.04 1.34.09 2.07.13v1.07c-.72.05-1.38.09-2.1.14v1.48h2.4v1.19h-3.85z"/><path d="m27.71 388.56c-1.15-.3-2.46-.61-3.1.64-.37.73-.41 1.93-.06 2.67.63 1.35 1.99.93 3.17.68.35.94-.01 1.32-.93 1.46-1.62.25-3.05-.27-3.76-1.48-.73-1.24-.6-3.03.31-4.17.88-1.11 2.71-1.7 4-1.16.32.13.44.74.65 1.12-.1.08-.19.16-.28.24"/><path d="m49.15 387.24v1.07c-.59.02-1.17.05-1.87.08v5.44h-1.48v-5.44h-1.85c-.05-.4-.08-.73-.13-1.15z"/><path d="m20.06 387.21h1.33v6.62h-1.33z"/><path d="m30.68 393.25c-.49.38-.8.79-1.05.76-.32-.05-.6-.45-.9-.7.26-.24.51-.64.8-.67.29-.04.62.3 1.15.61"/></g><path d="m270.95 59.66c0 2.32.59 4.83-.11 6.92-2 5.96-2.19 12.04-2.19 18.19 0 6.45 1 13.25-2.83 18.88-4.13 6.05-8.43 12.15-15.62 15.29-4.06 1.77-7.72 4.58-11.89 5.95-4.56 1.5-9.5 1.83-14.26 2.75-4.87.94-9.74 1.91-14.59 2.99-3.22.72-4.11 3.14-3.71 6.07.74 5.53 2.5 10.56 7.85 13.39 5.32 2.82 10.68 5.58 16.03 8.34 2.9 1.5 5.85 2.9 8.75 4.41 6.37 3.32 12.74 6.66 19.09 10.01 1.87.99 3.92 1.81 5.5 3.15 7.33 6.21 16.67 8.47 24.84 12.97 6.58 3.63 12.97 7.62 19.42 11.48.88.53 1.65 1.24 2.81 2.11-.9.06-1.36.22-1.72.1-4.05-1.44-8.2-2.68-12.11-4.45-9.3-4.2-19.21-7.19-27.33-13.78-1.81-1.47-3.73-3.24-6.56-2.16-.48.18-1.32-.49-1.96-.82-3.66-1.87-7.3-3.77-10.98-5.62-4.15-2.09-8.4-4-12.49-6.21-8.27-4.46-16.42-9.16-24.72-13.57-4.14-2.2-8.53-2.18-12.22.92-3.94 3.32-7.46 7.12-11.23 10.64-2.83 2.64-5.77 5.16-8.69 7.71-2.37 2.06-4.97 3.88-7.13 6.14-7.67 8-16.53 14.08-26.84 18.28-3.93 1.6-7.29 4.61-10.9 7-1.19.79-2.32 1.67-3.7 2.67 5.52-5.72 10.23-11.89 16.16-16.5 16.89-13.13 31.44-29.06 49.33-40.94 4.21-2.8 5.73-6.58 5.28-11.41-.11-1.16-.25-2.32-.36-3.48-.44-4.92-.52-5.5-5.52-5.54-8.86-.06-17.73.58-26.6.85-1.64.05-3.28-.29-4.92-.46-1.03-.11-2.07-.4-3.09-.35-7.09.32-14.17.78-21.26 1.01-1.83.06-3.7-.51-5.53-.9-1.13-.24-2.19-.89-3.32-1.03-4.83-.62-6.26.21-7.64 4.96-.76 2.61-1.32 5.39-1.35 8.1-.1 6.75.3 13.5.21 20.25-.05 3.34-.4 6.76-1.21 10-2.72 10.91-1.51 21.91-1.01 32.88.13 2.78.76 5.53 1.26 8.96-3.65 3.33-2.15 8.98-3.44 13.87-.21.81-.06 1.73-.34 2.51-4.35 12.18-3.72 25.08-5.47 37.63-.07.52.02 1.09-.14 1.58-5.12 15.75-7.81 32.3-16.11 47.01-2.51 4.45-3.52 9.73-5.52 14.51-1.47 3.52-3.41 6.83-5.15 10.24-.44-.17-.87-.34-1.31-.52.45-2.1.83-4.21 1.36-6.28 2.35-9.11 4.72-18.21 7.12-27.31.54-2.04 1.03-4.12 1.84-6.05 6.27-14.93 8.25-30.79 10.27-46.65.31-2.41.74-4.81 1.21-7.19.77-3.89 2-7.55 1.22-11.8-.58-3.15 1.03-6.64 1.3-10 .94-11.6 1.34-23.26 2.67-34.82.98-8.48.58-16.87.64-25.33.08-9.51 1.43-19 2.1-28.5.26-3.69.36-7.41.21-11.1-.79-19.1 1.28-37.77 7.75-55.87 1.51-4.22 3.71-7.63 7.54-10.2 2.75-1.86 5.41-4.22 7.27-6.94 3.6-5.22 8.39-8.28 14.4-9.65 10.64-2.42 21.27-4.93 32.31-4.59.64.02 1.28.06 1.91-.03 11.49-1.57 22.99-3.15 34.48-4.76 2.74-.38 5.53-1.01 7.3 2.64-1.93.71-3.82 1.81-5.8 2.06-9.65 1.22-19.35 2.04-29 3.32-14.43 1.91-28.59 5.15-41.91 11.12-9.22 4.13-14.95 11.57-17.23 21.53-.59 2.58-1.3 5.13-1.97 7.69-.76 2.9.55 4.76 3.33 4.81 3.86.07 7.75-.28 11.59-.8 3.03-.41 5.95-1.57 8.98-1.99 2.78-.38 5.64-.2 8.46-.31 6.74-.26 13.51-.24 20.21-.91 7.37-.74 14.65-2.33 22.01-3.16 3.35-.38 6.81.33 10.21.23 3.28-.1 6.53-.74 9.81-.92 10.93-.61 21.87-1.09 32.81-1.73.96-.06 2.37-.74 2.72-1.52 1.27-2.75 2.42-5.61 3.14-8.55.9-3.71 2.04-7.11 6.28-9.42zm-144.34 70.27c3.94-.56 7.93-.96 11.86-1.71 16-3.05 32.41-.87 48.47-4.08 7.27-1.45 14.98-1.17 22.47-.96 7.9.22 15.33-1.02 22.56-4.15 3.57-1.55 7.36-2.59 11.01-3.98 2.22-.84 4.5-1.67 6.48-2.93 1.94-1.24 3.47-3.1 5.3-4.53 5.72-4.49 7.49-10.84 8.25-17.59.55-4.91-2.6-7.33-7.48-6.48-4.44.77-8.96 1.08-13.45 1.59-2.09.23-4.19.41-6.27.66-5.03.61-10.04 1.43-15.09 1.85-8.63.71-17.29 1.13-25.94 1.73-9.9.69-19.73 2.76-29.75 1.44-1.2-.16-2.48.39-3.73.51-5.44.53-10.88 1.06-16.33 1.5-3.36.27-6.81-.06-10.08.59-6.06 1.2-7.92 3.81-8.28 9.94-.33 5.71-.25 11.53-1.41 17.08-.74 3.61-.58 6.48 1.41 9.52z" fill="#010000"/><path d="m188.69 183.47c0 2.71-.01 5.42 0 8.13.02 5.04 1.03 5.91 5.99 5.67 7.09-.34 14.19-.6 21.28-.77 1.88-.04 3.04-.49 3.18-2.55.26-3.89.51-7.79.92-11.67.4-3.81.98-7.6 1.88-11.36 2.82 2.95 3.13 6.4 3.17 9.92.04 4.23-.26 8.49.22 12.66.21 1.85 1.53 4.23 3.07 5.14 5.36 3.16 11.04 5.75 16.57 8.62 1.56.81 3.09 1.74 4.5 2.79 1.36 1.01 2.41 2.44 3.82 3.34 8.28 5.28 9.89 13.34 9.91 22.35.03 12.01-6.43 20.71-14 28.96-.28.31-.6.67-.98.79-7.1 2.43-14.07 5.45-21.36 7-4.66.99-7.52 3.03-9.23 7.05-2.28 5.35-4.38 10.78-6.5 16.2-1.02 2.61-.81 5 .76 7.53 8.14 13.1 18.54 24.4 29.99 34.4 9.43 8.24 18.22 17.51 29.46 23.58 2.03 1.1 3.86 2.57 5.49 4.52-2.73-1.09-5.6-1.91-8.15-3.31-13.96-7.69-26.81-17.07-39.43-26.73-3.38-2.59-5.97-6.22-8.91-9.38-.71-.77-1.28-1.78-2.15-2.27-5.7-3.21-8.6-8.59-11.28-14.18-.78-1.62-1.35-3.45-2.5-4.76-7.96-9.15-11.92-20.14-14.74-31.64-.58-2.38-1.64-3.56-4.13-3.88-3.77-.5-7.47-1.69-11.25-1.98-6.32-.5-11.27-3.99-14.93-8.25-7.52-8.75-12.48-18.58-9.68-31.04 1.61-7.14 3.58-13.89 9.35-18.5 3.64-2.91 8.14-4.82 12.38-6.93 2.93-1.45 6.01-2.66 9.14-3.63 3.12-.97 4.34-3.12 4.68-6.06.22-1.89.15-3.84.55-5.69.33-1.53 1.16-2.96 1.77-4.43.38.11.76.24 1.14.36zm30.89 48.16c.32-5.72.73-11.43.94-17.15.1-2.73.29-5.62-.49-8.16-.51-1.66-2.48-3.55-4.17-4.03-3.84-1.11-7.91-1.91-11.88-1.9-3.7.01-7.45 1.05-11.09 2-2.11.55-2.86 2.28-2.87 4.66-.1 16.45.48 32.8 4.08 48.97 2.17 9.72 3.83 19.53 8.01 28.67.98 2.14 2.11 3.89 4.88 3.59 2.73-.3 4.12-2.02 4.77-4.44 1.37-5.1 2.49-10.28 3.98-15.34 3.56-12.06 3.23-24.51 3.84-36.87zm3.8 29.76c.28 6.77.89 7.9 7.59 7.19 2.29-.24 4.86-1.33 6.58-2.84 7.92-6.97 16.59-13.66 18.12-25.08.61-4.57.72-9.64-.62-13.96-3.38-10.91-10.31-18.78-21.99-21.62-3.13-.76-5.07.31-5.33 3.58-.42 5.28-.88 10.55-1.28 15.83-.2 2.6-.41 5.21-.45 7.81-.08 4.86.32 9.75-.13 14.56-.49 5.13-1.72 10.2-2.49 14.53zm-40.27-35.08c.2-.05.41-.09.61-.14 0-4.97.05-9.95-.01-14.92-.07-5.29-2.58-6.96-7.23-4.92-.87.38-1.83.67-2.56 1.24-3.1 2.45-7.27 4.41-8.94 7.64-2.91 5.64-4.75 11.96-6.19 18.2-2.68 11.58 5.49 27.7 17.99 30.47 3.36.74 6.54 1.35 9.28-1.14 2.66-2.41 1.85-5.63 1.39-8.64-1.42-9.26-2.89-18.52-4.34-27.79z" fill="#010000"/></svg>