<svg enable-background="new 0 0 400 400" viewBox="0 0 400 400" xmlns="http://www.w3.org/2000/svg"><path d="m171.88 83.21c-.78-.13-1.62-.43-2.43-.39-5.11.29-7.85-2.74-10.08-6.79-3.4-6.18-5.79-12.75-5.89-17.4 4.84.56 9.62 1.1 14.4 1.68 2.31.28 4.63.57 6.92.97 1.83.33 4.27.26 5.29 1.4 2.28 2.55 3.96 5.68 5.63 8.72.63 1.14.56 2.67.79 4.03.88 5.16.7 5.48-4.16 7.37-3.43 1.33-4.54 6.62-1.83 9.17 4.55 4.29 9.14 8.55 13.85 12.66.9.78 2.48 1.24 3.69 1.14 5.52-.48 10.92-.97 16.09 1.95 1.19.67 3.55.45 4.76-.32 4.99-3.19 10.49-4.43 16.21-5.11.42-.05.85-.04 1.26-.13 9.43-2.09 11.2-4.51 9.25-13.21-.34-1.54-.64-3.14-.61-4.7.04-2.14 1.2-3.49 3.72-3.76 0 2.45-.12 4.75.03 7.03.16 2.47 1.67 3.74 4.1 3.15 2.27-.55 3.28-2.41 2.74-4.62-.58-2.34-1.36-4.71-2.54-6.8-.55-.97-2.17-1.48-3.4-1.91-5.05-1.76-6-3-5.35-8.4.7-5.83-.46-11.32-2.15-16.86-1.18-3.9-1.82-8.01-2.22-12.08-.33-3.32 2.97-5.68 6.23-4.58 3.46 1.17 6.93 2.3 8.04 6.71.5 1.98 2.23 3.78 3.72 5.36 3.49 3.71 7.27 7.14 10.7 10.89 1.01 1.1 1.98 3.03 1.73 4.35-1.08 5.89-2.55 11.71-4 17.53-.63 2.55-1.79 4.99-2.27 7.57-.59 3.18.82 5.96 3.87 6.83 3.35.95 7.02 1.59 10.44 1.25 3.99-.4 8.34-.73 11.4-4.5 2.78 2.95 5.53 2.25 8.53.4 2.88-1.78 6.1-1.68 9.18-.37 2.04.87 4 1.95 5.94 3.03 4.8 2.67 9.76 4.67 15.4 3.75 3.11-.51 4.98.76 6.18 3.55.58 1.35 1.49 2.55 2.24 3.8-4.11 5.98-9.9 7.41-16.6 5.05-4-1.41-8.39-2.06-12.65-2.36-9.92-.68-19.89-1.57-29.75.78-8.36 2-16.91 11.77-17.2 20.35-.21 6.05.35 8.37 6.24 10.1 1.11.33 2.17.84 3.25 1.28 3.65 1.52 6.6 2.55 10.85-.28 6.32-4.21 14.06-3.35 20.79-.32 5.38 2.42 10.57 2.61 16.09 1.87 1.36-.18 2.73-.33 4.1-.41 2.24-.13 4.42.21 5.3 2.58.94 2.52.62 4.93-1.37 7.04-3.45 3.64-7.77 4.49-12.5 4.13-.61-.05-1.34-.18-1.79-.54-6.67-5.37-14.15-5.19-21.96-3.48-2.66.59-5.44.91-8.16.93-13.36.09-26.73-.01-40.09.1-1.69.01-3.41.76-5.04 1.37-3.85 1.43-7.57 3.32-11.51 4.4-7.29 2-9.61 4.91-10.14 12.5-.34 4.86 1.48 7.99 5.56 10.37 3 1.75 6.02 2.07 9.14.93 5.45-1.98 10.82-3.91 15.82 1.01 1.49-1.78 2.58-3.2 3.8-4.5 3.84-4.08 6.71-4.14 10.82-.35.93.86 1.91 1.69 2.97 2.38 1.66 1.07 3.29 1.16 4.93-.26 7.33-6.36 15.55-3.31 21.99.77 1.93 1.22 1.87 8.43.12 10.19-3.21 3.24-6.47 6.43-9.62 9.72-1.61 1.68-3.1 3.49-4.51 5.34-2.94 3.86-4.21 7.97-1.96 12.73 1.12 2.37 1.83 4.95 3.03 8.27-5.05 0-9.72.06-14.39-.01-5.81-.09-11.64-.66-17.42-.32-5.77.34-7.12 2.07-7.23 7.8-.12 6.46.07 12.93.05 19.39-.01 1.99.86 2.95 2.69 3.69 8.19 3.28 16.63 2.21 25.1 2.02 7.59-.17 15.19.53 22.79.76 2.25.07 4.5-.2 6.9-.83 2.91 2.59 6.15 5.46 6.68 10.45-6.81-1.12-12.19.86-16.2 6.19-3.9 5.19-3.52 10.72 1.02 15.37.52.53 1.05 1.06 1.48 1.66 2.58 3.56 1.84 5.63-2.39 6.69-6.54 1.64-13.06.87-19.55-.33-6.71-1.23-13.42-1.86-20.18-.35-7.16 1.6-9.7 4.56-10.41 11.96-.25 2.62-.51 5.31-1.32 7.79-.47 1.43-1.99 2.56-3.14 3.72-.76.78-2.54 1.63-2.42 2.01.46 1.49 1.19 3.64 2.35 4.04 3.75 1.3 7.69 2.39 11.63 2.73 6.85.6 13.76.58 20.64.84 1.14.04 2.28.19 3.83.33-.52 1-.86 1.66-1.21 2.32.13.21.26.42.39.64.93-.38 1.86-.79 2.81-1.13 3.22-1.16 6.38-2.86 9.71-3.31 5.01-.68 10.28-1.28 15.18-.43 4.13.71 7.96 3.42 11.8 5.48 1.24.67 1.93 2.3 3.13 3.11.98.66 2.33.81 3.54 1.06 1.65.34 3.6.09 4.93.91 3.77 2.31 6.69 5.56 8.11 9.87 1.34 4.06.49 5.8-3.66 6.75-4.97 1.14-9.74.69-14.37-1.97-2.28-1.3-5.34-2.56-7.72-2.12-10.26 1.92-19.58-.58-28.49-5.18-5.13-2.65-10.01-3.05-15.37-.8-6.93 2.91-14.14 3.24-21.53 1.78-2.34-.46-4.85-.24-7.26-.07-3.09.22-5.33 1.36-6.72 4.67-2.66 6.36-5.91 8.01-12.72 7.5-8.31-.61-16.43.49-24.61 1.96-10.08 1.82-20.22 3.92-30.6 2.36-7.84-1.18-15.24-3.4-21.82-8.09-2.74-1.96-5.85-3.41-8.83-5.02-4.63-2.5-6.69-6.5-7.17-12.11 3.64-.34 7.21-1.14 10.7-.9 12.47.83 24.92 2.06 37.39 3 2.38.18 4.81-.25 7.21-.46 4.73-.43 9.45-.93 14.18-1.32.67-.06 1.57.15 2.04.58 3.22 2.98 6.86 2.54 10.75 1.83 2.96-.54 6.05-.33 9.07-.61.94-.09 2.03-.46 2.71-1.08 2.42-2.22 4.82-4.49 6.94-7 .78-.92 1.34-2.77.95-3.8-1.41-3.78-.3-7.04 1.31-10.34 2.06-4.22.75-8.47-3.46-10.33-6.78-2.99-13.69-2.01-20.51-.05-.72.21-1.29 1.3-1.73 2.09-3.34 6.14-11.15 10.32-18.08 9.67-2.16-.2-3.66-1.04-4.62-3.15-2.24-4.92-5.44-9.77-4.6-15.29.66-4.35-.55-7.47-2.93-10.71-.65-.88-.87-2.41-.67-3.54.57-3.24-.25-6.02-2.06-8.66-.42-.62-.58-1.51-.62-2.29-.03-.6.31-1.22.48-1.83 1.98-6.96 2.03-6.65 9.03-7.81 4.75-.79 9.29-2.8 14.02-3.85 2.23-.49 4.68.15 7.01 0 2.47-.16 4.91-.65 8.39-1.13 1.94 2.89 6.3 3.39 10.61 3.8 1.09.1 2.82-.45 3.34-1.28 4.77-7.59 6.48-16.02 6.05-24.89-.05-.98-.93-2.15-1.76-2.82-4.06-3.29-8.74-3.52-13.54-2.2-.89.24-1.64 1.26-2.29 2.05-4.19 5.15-12.69 6.81-18.42 3.46-.64-.37-1.08-1.23-1.42-1.95-1.67-3.61-4.3-6.31-7.83-8.04-4.29-2.11-8.14-2.68-12.51.87-8.97 7.27-18.42 13.95-27.8 20.7-2.44 1.76-5.27 3.04-8.02 4.3-10.9 4.99-22.48 6.03-34.33 6.41-6.14.19-12.2 2.44-18.35 3.34-4.67.68-9.43.71-14.29 1.04-.54-4.94-.45-8.97 4.22-11.04 6.07-2.7 12.11-5.5 18.34-7.77 1.75-.64 4.13.66 6.21.63 2.22-.03 4.7-.04 6.58-1.01 2.82-1.45 5.4-1.84 8.46-1.13 4.58 1.07 6.63-.46 7.57-5.13.17-.83.36-1.66.52-2.49.56-2.96 1.9-4.66 5.35-4.27 2.93.33 5.96-.19 8.89.13 4.28.46 6.87-1.71 8.68-5.08 1.25-2.32 2.36-4.77 3.05-7.3.62-2.27 1.93-3.47 3.82-4.68 3.08-1.97 6.04-4.19 8.8-6.6 3.39-2.95 7.19-3.95 11.5-3.2 2.08.36 4.11 1.05 6.18 1.47 5.03 1.02 8.41-.85 10.14-5.99-2.7-.52-5.31-1.1-7.96-1.52-4.7-.73-6.02-1.88-6.85-6.62 3.94 0 7.83-.3 11.66.08 4.74.46 7.25-2.1 9.27-5.73.1-.18.24-.37.27-.57 1.62-8.83 6.47-15.45 14.64-20.09-3.79-2.71-6.71-4.96-11.21-4.65-9.61.66-19.27.66-28.9 1.14-2.13.11-4.57.56-6.26 1.73-6.26 4.34-13.55 5.09-20.62 6.84-6.96 1.71-13.12-.25-18.81-3.51-2.56-1.47-4.01-4.9-6.06-7.58 6.46-4.52 13.07-6.86 20.39-6.4 8.28.51 16.09-1.15 24.01-3.32 4.98-1.36 10.44-1 15.68-1.4 1.69-.13 3.41-.05 5.07-.31 5.22-.84 5.94-1.79 5.58-6.93-.04-.63 0-1.28-.12-1.9-.56-2.92-.26-6.61-1.94-8.59-3.65-4.3-8.54-7.68-14.6-7.21-8.11.64-16.2 1.75-24.25 2.94-5.63.83-9.3-.64-12.09-5.76-2.05-3.75-4.68-6.8-8.79-8.32-2.54-.94-2.72-3.23-2.51-5.27.09-.88 1.61-1.95 2.69-2.35 7.5-2.73 15.26-1.75 22.97-1.44 4.97.2 9.96.52 14.92.31 5.74-.25 10.48-2.19 12.22-8.6.52-1.9 1.95-3.9 3.53-5.11 4.99-3.81 5.71-5.44 4.04-12.04zm75.16 138.46c1.13-1.38 1.98-2.15 2.48-3.1 1.59-3.04 2.94-6.22 4.61-9.22 1.02-1.84 2.51-3.41 3.69-5.17.43-.64.89-1.52.8-2.23-1.01-7.93-8.92-13.46-16.74-11.73-3.51.78-6.95 1.89-10.49 2.54-4.89.89-9.83 1.49-14.76 2.19-6.92.99-12.12-2.78-17.5-6.19-.93-.59-2.9-.85-3.54-.29-.98.84-1.79 2.59-1.68 3.87.62 6.96 3.25 13.3 6.47 19.45 1.26 2.41 3.04 3.38 5.73 3.72 6.69.86 13.62.8 19.78 4.05 2.62 1.38 4.28.97 6.17-1.35 3.08-3.76 6.58-3.52 9.97-.04 1.22 1.27 2.9 2.06 5.01 3.5zm.06 73.2c6.7-.14 12.31-3.4 18.33-5.29 7.12-2.23 7.84-8.21 8.84-13.92.6-3.38-2.4-5.47-5.91-4.9-1.21.2-2.67.5-3.67.02-4.5-2.13-9.12-1.86-13.61-.61-3.04.85-6.1 2.29-8.61 4.18-2.57 1.94-4.5 4.74-6.66 7.21-.38.43-.9 1.29-.73 1.56 2.18 3.47 4.22 7.08 6.85 10.18.97 1.16 3.4 1.08 5.17 1.57zm-74.44-13c-.42 5.09.96 6.62 5.59 6 3.61-.48 6.32 0 7.6 4.02.66 2.07 2.01 3.96 3.24 5.79.52.78 1.54 1.69 2.37 1.73 6.02.27 11.9.18 17.71-2.33 5.05-2.17 6.57-5.75 6.6-10.64.03-4.94-1.84-7.51-6.64-8.63-5.04-1.17-10.23-1.82-15.18-3.27-3.83-1.12-6.26-.3-7.84 3.27-1.34 3.04-3.77 3.91-6.91 3.76-2.18-.1-4.39.19-6.54.3zm44.45-155.55c-.25.13-.49.26-.74.4 1.3 2.43 2.34 5.05 3.98 7.23 1.57 2.08 3.91 3.57 5.64 5.56 1.86 2.13 4.01 2.51 6.54 1.87 8.61-2.18 9.72-5.48 9.54-14.17-.06-2.82-1.72-4.67-4.57-5.36-3.7-.9-7.5-1.54-11.04-2.86-5.23-1.97-9.95 1.95-9.35 7.33zm-5.04 6.87c-1.08-2.13-1.67-4.85-3.35-6.33-5.12-4.5-15.03-1.95-17.57 4.4-1.84 4.6-.98 9.05 2.46 12.65 3.05 3.18 7.16 3.48 11.15 2.6 1.51-.33 3.27-1.84 3.94-3.27 1.41-3 2.17-6.31 3.37-10.05zm10.55 113.25c1.5 3.38 3.02 6.81 4.5 10.14 3.21-.55 6.1-.75 6.44-4.66.26-3.07-.51-5.48-3.35-6.87-2.6-1.28-5.23-1.92-7.59 1.39zm-14.85-70.18c.31.2.61.4.92.6 1.02-1.2 2.77-2.33 2.9-3.61.24-2.49-2.34-4.26-5.83-4.53.68 2.56 1.35 5.05 2.01 7.54zm15.43 109c.72-1.68 1.75-3.1 1.81-4.57.05-1.08-1.16-2.22-2.07-3.78-1.95 3.11-3.62 5.39.26 8.35zm33.48-174.63c-.42 1.76-.76 3.15-1.23 5.11 1.95-1.09 3.36-1.88 5.11-2.86-1.45-.84-2.42-1.4-3.88-2.25z" fill="#010000"/><g fill="#fbfafc"><path d="m6.44 374.46.42-.45c.65.47 1.27.95 1.85 1.44l-.45.49c-.65-.56-1.25-1.06-1.82-1.48m.93 7.33-.63-.26c.55-1.36 1.05-2.8 1.52-4.33.19.1.38.19.59.27-.46 1.29-.95 2.73-1.48 4.32m-.38-10.38.44-.42c.43.34 1.01.82 1.74 1.44l-.49.49c-.53-.51-1.09-1.01-1.69-1.51m2.5.35h1.72v-1.04h.59v1.04h3.52v-1.04h.59v1.04h1.75v.53h-1.75v1.42h-2.03v.97h3.22v2.03h-3.24c0 .35-.01.66-.03.93h3.32v.53h-3.37c-.03.27-.08.58-.15.94h3.96v.53h-3.71c.67.92 1.93 1.48 3.79 1.68-.13.24-.23.44-.29.59-2.13-.38-3.48-1.08-4.04-2.12-.43.97-1.77 1.72-4.03 2.23-.09-.19-.2-.37-.33-.55 2.1-.42 3.37-1.03 3.81-1.83h-3.36v-.53h3.58c.08-.29.13-.61.16-.94h-3.33v-.53h3.39c.02-.27.04-.58.04-.93h-3.23v-2.03h3.25v-.97h-2.07v-1.42h-1.73zm1.12 3.44v1h2.65c.01-.3.02-.44.01-.4v-.25-.35zm1.19-2h3.52v-.91h-3.52zm4.71 2h-2.63v.59c0 .15-.01.28-.01.4h2.64z"/><path d="m13.56 383.74h.63v1.52h2.72v6.07h1.13v.6h-11.06v-.6h1.13v-6.07h2.73v-1.52h.63v1.52h2.1v-1.52zm-2.69 8.83.38.56c-1.24.63-2.53 1.25-3.85 1.85-.1-.21-.21-.42-.34-.63 1.36-.55 2.63-1.15 3.81-1.78m-2.13-4.27h2.1v-2.45h-2.1zm0 3.04h2.1v-2.46h-2.1zm2.72-3.04h2.1v-2.45h-2.1zm0 3.04h2.1v-2.46h-2.1zm6.07 3.6c-1.41-.71-2.7-1.3-3.86-1.78l.35-.56c1.45.62 2.75 1.19 3.88 1.72zm-1.25-9.09h-2.1v2.45h2.1zm-2.09 5.49h2.1v-2.46h-2.1z"/></g></svg>