<svg enable-background="new 0 0 400 400" viewBox="0 0 400 400" xmlns="http://www.w3.org/2000/svg"><g fill="#010000"><path d="m199.33 357.47c-3.23-.23-6.19-.34-9.1-.73-.75-.1-1.75-.98-1.99-1.72-.93-2.88-2.04-5.8-2.28-8.77-.52-6.51-.71-13.07-.74-19.61-.04-10.68.32-21.37.19-32.05-.08-6.33-.42-12.7-1.31-18.96-.95-6.68-7.5-9.05-12.38-4.51-3.12 2.9-5.49 6.62-8.2 9.97-.79.98-1.41 2.4-2.44 2.82-6.35 2.65-10.28 8.05-14.84 12.71-4.15 4.25-9.02 6.44-15.38 6.32 1.25-4.47.98-9.02 5.66-11.91 4.76-2.94 9.01-6.69 13.49-10.07 3.53-2.66 6.85-5.69 11.67-5.88.93-.04 1.88-.91 2.73-1.51 4.77-3.34 9.47-6.8 14.3-10.04 1.43-.96 3.26-1.93 4.88-1.9 3.62.08 5.88-1.83 8.11-4.17 3-3.15 8.41-2.04 10.04 2.03.63 1.57 1.18 3.17 1.68 4.79 1.19 3.83 4.05 5.23 7.74 5.34 2.11.07 4.31-.47 6.33-.05 2.59.54 5.17 1.53 7.51 2.77 1.76.93 2.33 2.65 1.74 4.91-.93 3.63.17 4.84 3.97 4.88 1.9.02 3.8-.33 5.7-.37 3.59-.08 5.15 1.89 5.2 6.39.04 3.68-1.18 5.1-4.93 4.88-4.8-.28-9.02-2.24-12.2-5.91-5.74-6.6-11.92-12.67-19.82-16.63-4.11-2.06-5.39-1.77-6.8 2.62-.95 2.97-.76 6.35-.8 9.55-.06 5.35.12 10.7.2 16.05.04 2.82-.37 5.75.24 8.44 1.29 5.65.64 11.09-.47 16.64-.87 4.34-1.42 8.77-1.66 13.19-.1 1.85.96 3.78 1.52 5.66.12.39.64.86.53 1.1-2.08 4.75 1.32 8.75 1.91 13.73z"/><path d="m72.11 187.14c3.36 2.15 4.58 5.2 4.73 8.71.09 2.21-.21 4.43-.28 6.65-.06 1.65-.33 2.81-2.29 3.54-2.8 1.04-3.75 4.61-1.97 7.6 5.75 9.68 6.58 20.1 5.57 31.01-.4 4.28-.14 8.7.5 12.95.37 2.48 1.76 5 3.28 7.08 2.66 3.65 4.43 3.47 8.52 1.7 5.63-2.45 9.02-6.26 9.62-12.42.59-6.17 5.7-9.41 8.92-13.88.98-1.36 1.89-3.14 1.92-4.75.05-3.03 1.2-4.47 4.19-4.58.84-.03 1.67-.23 2.78-.39.66 11.17.68 22.17-6.68 31.46-3.13 3.96-8.05 5.28-12.8 6.47-2.67.67-5.4 1.07-8.04 1.82-5.23 1.49-9.16 4.81-11.94 9.4-.72 1.18-.85 2.78-1.05 4.21-1.39 10.05-2.55 20.14-4.2 30.15-.43 2.58-2.13 5.05-3.61 7.34-2.05 3.19-3.36 6.54-3.68 10.31-.45 5.34-3.11 9.34-7.67 12.4-2.31-2.42-2.72-5.34-1.35-8.11 3.31-6.7 3.58-13.87 3.66-21.05.03-2.79.72-4.65 3.43-5.57.58-.2 1.07-.65 1.62-.99-.13-.24-.18-.46-.31-.55-5.49-3.7-5.43-3.67-2.06-9.32 4.37-7.33 5.54-15.53 5.76-23.83.16-5.9-.19-11.84-.76-17.72-.36-3.7-2.19-7.32-2.22-10.98-.04-5.37.43-10.62-.55-16.07-.69-3.84.94-8.11 1.61-12.18 1.55-9.29 3.14-18.58 4.72-27.87.16-.77.39-1.55.63-2.54zm-4.92 45.69c1.71 2.79 3.35.9 5.37.44-1.02-1.14-1.75-1.96-2.61-2.92-1.04.94-1.88 1.69-2.76 2.48z"/><path d="m327.38 174.56c-.23.92-.35 1.88-.7 2.74-1.97 4.89-2.75 9.44 2.71 12.85.62.39.81 2.11.59 3.08-1.56 6.92-3.22 13.81-5.01 20.67-.32 1.23-1.23 2.45-2.18 3.36-7.03 6.76-14.09 13.48-21.23 20.12-1.52 1.42-2.1 2.83-2.06 4.94.09 5.48-.47 10.97-.21 16.44.17 3.52 1.12 7.05 2.09 10.47 1.03 3.65 2.81 7.11 3.68 10.79.69 2.91.79 6.05.6 9.05-.22 3.43.6 6.16 2.44 9.17 2.44 3.98 4.06 8.56 5.49 13.05 1.54 4.83 2.58 9.83 3.62 14.8.58 2.78 1.72 4.92 4.44 6.05 1.99.82 2.5 2.28 2.02 4.35-.33 1.43-.11 3-.5 4.41-1.97 7.05 2.46 10.54 7.48 13.71 1.61 1.01 3.42 1.69 5.02 2.72 3.35 2.14 4.13 4.29 3.26 8.5-5.63-1.52-10.63-3.21-13.98-9.04-8.18-14.25-16.85-28.2-20.97-44.32-.88-3.46-1.24-7.06-1.87-10.59-1.09-6.01-1.75-12.16-3.45-18-1.74-6-2.29-11.97-2.34-18.15-.03-3.39-1.08-6.78-1.8-10.15-.91-4.2-2.2-8.33-2.9-12.56-.67-4.09-3.79-6.87-7.91-6.25-3.13.48-6.26 1.05-9.35 1.74-3.93.88-7.49-.25-10.49-2.47-4.21-3.11-8.06-6.71-12.67-10.62 4.04-1.14 6.67-1.49 9.53.7 4.56 3.49 10.04 4.31 15.68 3.95 6.13-.4 12.28-.72 18.37-1.44 2.22-.26 4.3-1.63 6.49-2.38 7.51-2.56 12.59-7.74 17.36-14 4.11-5.39 5.61-10.28 3.74-16.75-.67-2.31-.01-5.31.84-7.7 1.28-3.6.61-6.93-.5-10.22-.3-.9-1.81-1.75-2.9-1.96-4.45-.87-7.27-3.37-8.87-7.58-1.69-4.46-4.89-7.4-9.26-9.48-1.95-.93-3.21-3.29-4.5-5.31 5.08-.31 9.37.07 11.46 5.66 1.25 3.37 4.42 5.4 8.01 6.18 2.62.56 4.09 1.92 5.24 4.38.96 2.04 2.93 3.61 4.46 5.38.35-.09.69-.19 1.03-.29z"/><path d="m93.87 70.94c4.37 2.66 4.68 5.48 1.33 8.76-2.73 2.67-5.44 5.35-8 8.18-2.55 2.82-4.15 6.2-2.37 9.89 1.63 3.39 4.93 4.95 8.63 4.99 4.05.05 7.36 1.69 10.49 3.98 15.79 11.51 13.57 9.94 12.87 27.79-.2 4.98-2 8.66-5.53 11.86-1.17 1.06-2.2 2.32-3.06 3.63-2.59 3.91-2.32 4.82.5 8.56 2.53 3.35 5.32 6.8 4.16 11.49-.25.99-1.07 2.45-1.8 2.56-.97.15-2.39-.55-3.14-1.34-5.59-5.9-11.95-8.96-20.23-6.3-1.18.38-2.7.07-3.97-.25-2.13-.54-4.19-1.34-6.06-1.97-3.29 4.36.5 11-5.44 14.22-1.73-1.39-2.48-2.96-1.66-5.21 2.69-7.31.12-14.46-1.02-21.58-1.06-6.61-1.46-13 1.25-19.31 1.56-3.64 1.55-7.2-1.01-10.46-1.35-1.71-1.21-3.31-.29-5.25 1.76-3.72 3.73-7.47 4.71-11.43 3.21-12.92 11.92-22.43 19.64-32.81zm.67 36.64c-4.41 2.39-7.72 4.56-11.31 6.05-4.14 1.72-5.73 5.14-6.84 8.9-.65 2.19-.9 4.61-.8 6.91.38 8.97.91 17.93 1.57 26.88.08 1.09 1.17 2.84 2.05 3.01 7.07 1.42 13.72.73 19.01-4.93 2.68-2.86 5.43-5.65 8.05-8.56 5.92-6.58 6.99-16.14 1.76-23.29-3.97-5.4-8.98-10.03-13.49-14.97z"/><path d="m189.74 119.83c-.22-4.16-.38-8.16-.65-12.16-.17-2.52-.23-5.1-.81-7.53-1.06-4.43-3.12-6.16-7.66-6.33-9.53-.35-15.02-6.93-20.74-13.17-1.27-1.39-2.25-3.05-3.35-4.56 3.51-3.62 9.29-3.48 13.27.38 3.58 3.48 7.43 5.87 12.75 4.8 5.69-1.14 9.86-7.87 7.93-13.26-1.25-3.47-2.3-6.84.29-10.46 3.22 2.64 4.73 6.07 5.3 10.06.4 2.81.51 5.77 1.52 8.37 1.41 3.64 4.08 5.83 8.49 5.83 4.47 0 8.12-.77 11.84-3.78 5.71-4.62 12.19-8.29 18.49-12.45 2.59 7.59.58 14.98-5.44 18.67-4.27 2.62-9.11 4.34-13.73 6.37-1.34.59-2.8 1-4.24 1.29-9.21 1.83-15.11 7.59-18.42 16.04-.72 1.83-.29 4.32.2 6.36 1.12 4.66.48 5.63-5.04 5.53z"/><path d="m306.88 97.54c-3.08 1.09-5.99 1.94-9.13-1.28-2.82-2.89-9.73-1.33-12.1 2.13-4.48 6.53-10.45 11.22-18.21 14.33.39-1.03.63-2.16 1.22-3.06.57-.86 1.45-1.56 2.31-2.16 3.58-2.53 5.48-5.92 6.03-10.3.2-1.58 1.09-3.2 2.03-4.55 4.67-6.69 9.46-13.3 14.39-20.19-5.21-5.23-4.08-11.69-3.55-18.16.36-4.41.07-8.87.07-13.6 3.97 1.1 6.15 3.66 6.47 7.36.4 4.57 2.06 8.57 4.14 12.53.56 1.07.62 2.41.9 3.63.02.1 0 .21 0 .32 0 5.73-.7 11.57.2 17.15.88 5.41 3.41 10.55 5.23 15.85z"/><path d="m238.07 128.15c3.26 2.82 4.2 5 2.23 8.18-6.32 10.21-4.69 20.89-2.5 31.68.74 3.63 1.54 7.25 2.36 10.87.89 3.92 2.92 5.27 6.88 4.49 1.96-.39 3.76-.7 5.19 1.81-2.05 1-3.99 1.95-5.93 2.91-1.7.85-3.49 1.58-5.07 2.61-3.37 2.2-3.53 3.38-1.92 6.98 2.93 6.56.22 12.35-2.54 18.18-4.81-3.16-5.91-6.78-4.21-12.02 1.37-4.23.93-8.42-1.68-12.13-.66-.94-1.91-1.85-3.01-2.03-3.15-.52-3.05-1.84-1.52-4.05 1.39-2 2.56-4.14 3.86-6.21 2.23-3.54 2.83-7.28 1.33-11.23-1.05-2.75-2.35-5.41-3.35-8.17-.3-.83-.28-2.12.18-2.82 1.53-2.36 1.71-4.75.66-7.25-2.4-5.73.07-11.18 1.72-16.31.75-2.4 4.81-3.73 7.32-5.49z"/><path d="m191.61 149.93c3.42 6.14 3.64 12.08 2.22 18.25-.92 4.02-1.55 8.1-2.48 12.11-.6 2.59-.53 4.89.87 7.3.52.9.22 2.72-.36 3.75-2.21 3.95-2.65 7.85-.86 12.07 3.98 9.35 2.16 19.19 2.3 28.86.04 3.17-.18 6.35-.29 9.52-.09 2.83-.09 2.83-3.49 4.19-.43-2.33-.79-4.57-1.27-6.78-.96-4.4-2.03-8.77-2.96-13.17-.18-.87-.24-2.04.2-2.71 1.65-2.52 1.49-5.07.1-7.43-1.58-2.68-1.85-5.32-.92-8.2.43-1.31.84-2.62 1.24-3.93 1.08-3.52 1.45-6.94-.5-10.39-.58-1.02-.8-2.85-.27-3.79 3.08-5.38 2.93-10.9 1.03-16.49-2.03-5.99-1.56-11.5 2.14-16.76 1.27-1.77 2.04-3.9 3.3-6.4z"/><path d="m155.14 188.75c-3.67-.47-6.98-.9-10.45-1.35.18-3.63.33-7 .52-10.36.03-.51.11-1.15.42-1.49 3.04-3.31 3.55-7.42 3.48-11.59-.08-4.49 1.59-8.24 4.24-11.64 2.34-3 3.09-6.28 2.94-10.06-.25-6-.07-12.01-.07-18.02 3.2-.05 4.62 1.09 4.64 4.08.01 3.07.72 6.14.6 9.19-.24 5.66 2.62 9.43 6.92 12.39 2.98 2.05 4.61 4.62 4.02 8.31-.38 2.37-1.67 3.32-4.03 2.46-.69-.25-1.36-.58-2.04-.87-5.36-2.29-5.2-2.15-9.09 2.03-6.56 7.04-7.86 14.7-3.55 23.33.51 1.03.86 2.14 1.45 3.59z"/><path d="m119.55 34.92c4.28.86 5.77 3.25 6.66 6.25 4.63 15.61-5.75 29.41-22.95 29.51.47-1.16.61-2.25 1.22-2.88 1.32-1.36 2.81-2.59 4.36-3.69 1.63-1.16 2.46-2.44 1.93-4.53-.19-.74-.13-1.95.34-2.38 3.34-3.06 3.16-7.32 3.76-11.19.44-2.83 1.95-3.59 4.28-4.19 1.68-.43 3.24-1.34 5.36-2.25-1.9-1.79-3.11-2.92-4.96-4.65z"/><path d="m260.32 185.97c3.67.85 7.35 1.68 11.01 2.57.48.12 1.25.44 1.28.75.61 4.8 5.11 6.38 8.05 9.63-3.94.91-7.5 2.7-10.57-1.68-1.32-1.88-3.97-2.78-5.71-4.43-1.83-1.74-3.31-3.86-4.94-5.81.29-.35.59-.69.88-1.03z"/><path d="m148.99 233.47c-6.35-5.09-10.19-11.11-8.52-19.5 6.25 1.75 10.64 11.78 8.52 19.5z"/><path d="m311.07 109.07c3.03 1.97 6.06 3.34 8.27 5.54 2.58 2.57 1.43 5.99-1.7 6.54-.31.05-.64.15-.93.09-3.85-.71-7.32-7.09-5.64-12.17z"/><path d="m114.41 221.09c-4.24-.66-8.46-1.44-12.53 1.14-.71.45-2.61-.98-3.96-1.55-.01-.3-.02-.6-.03-.9 3.83-1.85 7.55-4.03 11.53-5.45 3.06-1.09 5.81 2.82 4.99 6.76z"/><path d="m116.81 183.31c1.13.6 4.36-1.22 4.74 2.4.22 2.1-3.28 5.72-5.14 5.68-2.01-.05-5.19-2.89-4.88-4.68.41-2.37 1.65-4.13 5.28-3.4z"/><path d="m283.71 201.45c1.25 1 3.4 1.88 3.57 3.04.3 2.13-.56 4.43-.94 6.66-.85-.16-2.35-.15-2.46-.52-.76-2.69-1.24-5.47-1.8-8.22.54-.32 1.09-.64 1.63-.96z"/><path d="m205.91 168.6c4.98-2.61 9.52-4.99 14.19-7.44-.97 4.38-9.94 9.32-14.19 7.44z"/><path d="m287.42 218.46c2.77.37 5.19.54 7.52 1.08.79.18 1.35 1.32 2.02 2.02-.8.47-1.58 1.31-2.41 1.37-5.61.39-5.62.34-7.13-4.47z"/><path d="m167.2 203.81c-2.86-2.2-5.42-4.17-7.98-6.15.01-.3.03-.61.04-.91 1.46-.16 3.26-.93 4.3-.35 2.51 1.41 4.32 3.63 3.64 7.41z"/><path d="m110.19 197.59c.97 5.74.97 5.74-3.75 7.42-2.05-3.44-1.4-4.72 3.75-7.42z"/><path d="m190.56 143.64c-.63-2.16-1.19-4.06-1.76-6.01 1.86-1.39 3.54-2.07 5.05.03 1.43 1.99.5 3.72-3.29 5.98z"/><path d="m227.78 220.75c.98 1.27 1.66 2.15 2.62 3.4-1.58.43-2.87.78-4.88 1.32.9-1.87 1.49-3.1 2.26-4.72z"/></g><path d="m6.44 374.46.42-.45c.65.47 1.27.95 1.85 1.44l-.45.49c-.65-.56-1.25-1.06-1.82-1.48m.93 7.33-.63-.26c.55-1.36 1.05-2.8 1.52-4.33.19.1.38.19.59.27-.46 1.29-.95 2.73-1.48 4.32m-.38-10.38.44-.42c.43.34 1.01.82 1.74 1.44l-.49.49c-.53-.51-1.09-1.01-1.69-1.51m2.5.35h1.72v-1.04h.59v1.04h3.52v-1.04h.59v1.04h1.75v.53h-1.75v1.42h-2.03v.97h3.22v2.03h-3.24c0 .35-.01.66-.03.93h3.32v.53h-3.37c-.03.27-.08.58-.15.94h3.96v.53h-3.71c.67.92 1.93 1.48 3.79 1.68-.13.24-.23.44-.29.59-2.13-.38-3.48-1.08-4.04-2.12-.43.97-1.77 1.72-4.03 2.23-.09-.19-.2-.37-.33-.55 2.1-.42 3.37-1.03 3.81-1.83h-3.36v-.53h3.58c.08-.29.13-.61.16-.94h-3.33v-.53h3.39c.02-.27.04-.58.04-.93h-3.23v-2.03h3.25v-.97h-2.07v-1.42h-1.73zm1.12 3.44v1h2.65c.01-.3.02-.44.01-.4v-.25-.35zm1.19-2h3.52v-.91h-3.52zm4.71 2h-2.63v.59c0 .15-.01.28-.01.4h2.64z" fill="#fbfafc"/><path d="m13.56 383.74h.63v1.52h2.72v6.07h1.13v.6h-11.06v-.6h1.13v-6.07h2.73v-1.52h.63v1.52h2.1v-1.52zm-2.69 8.83.38.56c-1.24.63-2.53 1.25-3.85 1.85-.1-.21-.21-.42-.34-.63 1.36-.55 2.63-1.15 3.81-1.78m-2.13-4.27h2.1v-2.45h-2.1zm0 3.04h2.1v-2.46h-2.1zm2.72-3.04h2.1v-2.45h-2.1zm0 3.04h2.1v-2.46h-2.1zm6.07 3.6c-1.41-.71-2.7-1.3-3.86-1.78l.35-.56c1.45.62 2.75 1.19 3.88 1.72zm-1.25-9.09h-2.1v2.45h2.1zm-2.09 5.49h2.1v-2.46h-2.1z" fill="#fbfafc"/></svg>