<svg enable-background="new 0 0 400 400" viewBox="0 0 400 400" xmlns="http://www.w3.org/2000/svg"><g fill="#010000"><path d="m67.28 290.19c.58 2.03 1.36 4.02 1.7 6.09.49 3 2.06 4.43 6.05 4.23 1.04-5.21 2.13-10.68 3.38-16.96-4.44.95-8.31-2.82-11.66 2.6-.56-11-1.08-21.27-1.64-32.37 1.88 1.7 3.23 3.07 4.75 4.23 1.12.86 2.38 1.62 3.7 2.11 1.62.6 2.33-.14 2.78-1.91 1.07-4.23-.99-7.05-4.13-9-1.15-.72-3.32.18-5.47.38-.18-.59-.47-1.5-.77-2.49 2.3-.34 4.29-.52 6.23-.94 2.26-.48 3.46-2 3.41-4.33-.05-2.25-.68-4.27-3.21-4.83-1.53-.34-3.13-.47-4.7-.52-1.78-.06-2.72-.53-2.54-2.62.56-6.65.85-13.33 1.46-19.98.18-1.99 1.05-3.91 1.77-6.48-4.01-4.82-4.09-11.42-3.97-18.02.1-5.3.31-10.6.59-15.89.06-1.23.4-2.51.93-3.62.94-1.99 1.67-3.69-.12-5.77-.53-.61.11-2.56.65-3.68.71-1.46.65-2.39-.55-3.58-3.56-3.55-3.95-7.84-2.22-12.35 2.01-5.22 3.53-10.44 1.83-16.08-.15-.5.22-1.5.67-1.79 2.01-1.31 2.19-3.21 2.05-5.31-.28-4.28-.51-8.56-5.32-10.92 3.33-3.69 3.03-7.4 1.4-11.44-1.36-3.36-.75-4.03 2.96-4.21 1.26-.06 2.53.11 3.8.21 3.14.26 3.82-.36 3.42-3.54-.54-4.36-1.62-8.36-6.98-9.11-1.95-.27-2.65-1.57-2.89-3.51-.52-4.2-2.09-8.44-1.75-12.54.34-4.23 1.53-8.38 1.65-12.76.06-2.15 3.32-2.61 5.64-1.89 16.23 5.05 32.51 3.02 48.74.21 3.4-.59 6.57-2.51 9.76-4.3-3.58-2.94-7.67-3.45-11.67-3.77-14.41-1.15-28.78-.93-43.04 1.92-2.01.4-4.2.2-6.28-.03-2.82-.3-4.64-1.91-5.18-5.08 3.51-2.23 7.51-3.15 11.62-3.22 5.93-.1 11.86.39 17.59-1.85.86-.34 2.38.51 3.38 1.16 1.71 1.11 3.21 1.03 5.26.77 6.06-.75 12.2-.87 18.31-1.06 4.75-.15 9.5-.03 14.66-.03-.28 3.8-.35 7.06-.82 10.26-.38 2.57.36 4.05 2.89 4.69 8 2.03 16.09 2.39 24.28 1.62 3.78-.36 3.95-3.12 4.59-5.75-6.26-4.62-15.57-2.67-20.97-10.5 4.35 0 8.08-.1 11.82.03 3.89.13 8.04-1.07 11.43 2.2.48.47 2.21.3 2.9-.2 3.18-2.33 6.53-1.77 10.01-1.16 6.47 1.12 12.96 2.14 19.45 3.13.88.13 2 .15 2.7-.28 5.54-3.4 11.66-3.61 17.84-3.35 6.24.27 12.48.7 18.71 1.24 1.58.14 3.09.97 5.37 1.73 4.25-3.58 10.29-2.55 16.14-2.51 2.54.02 5.07.47 7.61.47 2.82 0 4.38 1.09 4.39 3.95-3.94-.49-7.86-1.2-11.81-1.42-5.32-.3-7.76 2.15-8.31 8.1 7.68.33 15.34.66 23.16 1 .43-1.73.81-3.24 1.31-5.24 6.6 3.61 13.12 5.38 18.78-1.7-1.4-1.05-2.72-2.04-4.57-3.42 9.23-1.38 17.79-2.62 26.27.27v.82c-6.7 0-13.4 0-20.34 0-.36 1.94-.68 3.65-1.14 6.07 4.07.57 7.88 1.36 11.72 1.57 4.86.27 9.76-.14 14.62.14 2.79.16 5.7.72 8.26 1.81 2.88 1.22 3.16 3.56 1.37 6.18-2.52 3.68-2.13 8.09-.13 12.08 1.51 3.01 2.45 6.58 2.59 9.94.28 6.55-.09 13.13-.42 19.69-.04.85-1.29 1.93-2.23 2.38-2.06.99-4.49 1.39-4.97 4.63h6.81v29.9c-1.96 0-3.43-.2-4.81.07-.98.19-2.24.8-2.63 1.58-.37.76-.07 2.57.49 2.87.95.51 2.4.42 3.54.14.93-.23 1.7-1.1 2.96-1.99 0 3.82.14 7.17-.11 10.5-.05.72-1.4 1.59-2.32 1.94-1.8.68-3.66.95-4.01 3.42-.37 2.58 1.78 2.91 3.16 3.76 2.17 1.35 3.6 2.97 3.3 5.64-.07.63-.35 1.47-.82 1.79-4.35 2.94-4.42 4-.35 7.23.33.26.63.57 1.28 1.17-3.16 2.01-6.18 3.92-9.66 6.14 2.89 1.7 5.15 3.02 7.64 4.49-2.07 1.15-3.97 2.21-5.81 3.23 1.81 2.44 3.58 4.64 5.1 7 .51.78.85 2.22.47 2.95-3.37 6.41-4.12 13.01-1.85 20.24-2.28-.35-4.41-.68-6.72-1.03v5.29c1.22-.83 2.27-1.54 3.52-2.4.76 4.63-2.77 7.37-4.29 10.82 5.97 3.63 6.56-2.38 9.19-4.97v23.88c-.65.45-.81.66-.97.66-4.75-.11-4.75-.11-4.2 4.7.63 5.54-1.21 7.04-6.55 5.34-.1-.03-.19-.09-.29-.13-7.03-2.41-8.92-1.02-8.96 6.95 4.45.37 8.95.74 13.46 1.11-.76 2.12-2.63 2.73-16.87 5.56 1.4-.95 2.35-1.58 3.41-2.3-3.09-3.16-6.09-6.23-9.23-9.44 3.31-2.02 6.55-4 9.79-5.97 4.45-2.71 4.81-8.33.49-11.51-1.98-1.46-4.44-2.26-6.69-3.36-2.13 4.72-1.55 6.78 2.34 9.44-.06.19-.06.45-.19.57-1.12.99-2.26 1.96-3.4 2.94-.96-1.54-2.08-3.01-2.84-4.65-.8-1.73-1.26-3.62-1.86-5.43-.39.05-.77.1-1.16.15-.13 1.51-.44 3.03-.36 4.53.2 4.04-.44 4.99-4.41 5.89-2.15.49-4.3.97-6.83 1.54 3.52 2.46 8.21 2.81 9.49 7.82-2.73 1.6-5.6 3.29-8.87 5.21 2.21 3.64 4.37 7.2 6.72 11.05 3.22-1.5 6.26-2.91 9.9-4.6-.46 2.02-.95 3.66-1.15 5.33-.11.9.03 2.46.53 2.68 1.23.54 3.26 1.16 4.02.56 3.65-2.91 7.67-3.22 12.02-2.72 4.83.55 7.87-2.33 10.7-6.59 2.79 11-.51 21.02-.61 31.48-3.03-1.71-5.46-3.94-8.16-4.36-2.89-.45-6.63-.02-8.94 1.57-2.21 1.52-3.05 5.01-4.5 7.63.24.36.47.72.7 1.08 4-.49 8.01-.98 12.09-1.48.29 4.31.59 8.84.91 13.7-2.41.99-5.07 1.39-7.59-1.49-1.19-1.36-3.06-2.59-4.79-2.89-1.88-.32-4.53-.13-5.8 1-1.91 1.71-.65 5.83 1.11 7.79 1.88 2.08 3.27 4.59 4.51 7.16-5.8-2.22-10.16-.38-12.16 5.23-.18.5-.37.99-.55 1.49-1.51 4.3-1.51 4.3 3.06 7.03 1.86-5.7 5.72-5.5 10.22-3.29.61.3 1.46.15 2.2.17 5.1.13 5.19.27 5.33 5.25.02.74.68 1.62 1.3 2.13.87.72 1.98 1.16 3.12 1.79-.42.84-.77 1.56-1.23 2.49 3.26 2.6 6.56 5.22 10.66 8.49-3.66.22-6.5.42-9.34.53-.33.01-.74-.33-1.01-.61-3.19-3.35-4.36-3.42-7.72-.49-.31.27-.65.51-1.23.94-.32-3.29-2.06-3.4-4.37-2.23-3.58 1.82-6.5-.77-9.71-1.42-1.17-.24-2.45.05-4.32.13-4.2-5.68-7.02-6.56-9.7-2.3-1.35-3.02-4.04-3.41-6.85-3.68-4.25-.42-3 3.93-4.84 5.33-.65-1.23-1.07-3-2.18-3.83-1.25-.94-3.11-1.37-4.73-1.42-3.76-.11-2.97 3.37-4.08 5.86-.17-.7-.23-1.1-.36-1.49-.54-1.63-1.1-4.66-1.64-4.65-2.52.01-5.3.38-7.49 1.55-1.82.97-2.95 2.31-5.2.86-.66-.43-2.88.25-3.33 1.03-3.15 5.43-8.19 5.18-13.31 4.79-.75-.06-1.68-.47-2.16-1.04-3.53-4.11-8.35-3.76-12.96-3.61-1.29.04-2.53 1.67-3.94 2.68-1.1-2.11-2.55-3.33-5.42-2.35-1.16.4-2.96-.74-4.36-1.42-2.12-1.04-3.89-1.91-6.5-.62-1.77.87-4.32.17-6.65.17-.22.39-.5.83-.72 1.29-3.25 6.65-4.7 7.45-11.27 4.27-2.22-1.07-3.52-4.03-5.46-6.4.96-.24 1.43-.42 1.92-.47 2.96-.31 6.28-.24 7.33-3.81 1.31-4.48 1.7-9.01-1.68-12.94-1.49-1.73-4.29-1.54-4.83.58-1.44 5.62-5.59 8.51-10.22 10.96-2.25 1.19-3.23 2.73-2.96 5.3.22 2.06.04 4.17.04 6.82-1.88-.98-3.24-1.69-4.75-2.48.13-.69.22-1.28.35-1.87.74-3.43.01-4.23-3.48-3.81-6.37.77-6.36.77-7.66 7.1-.12.6-.27 1.2-.4 1.77-5.36-.17-5.36-.17-8.34-4.13-7.73 4.54-16.36 2.22-24.56 3.52-.09-.25-.18-.5-.27-.75 2.22-1.46 4.45-2.92 6.9-4.53-3.55-2.75-7.43-2.25-11.15-2.03-.78.05-1.72 1.51-2.08 2.51-.18.51.75 1.43 1.21 2.15.38.59.83 1.14 1.39 1.91-.84.25-1.2.49-1.41.39-8.53-3.97-17.32-1.08-26-1.02-1.06.01-2.11.18-3.17.23-2.42.11-2.42.09-3.25-2.27 3.58 0 7.28.15 10.94-.11.9-.07 2.11-1.34 2.49-2.33 2.01-5.27-2.12-11.25-7.88-11.64-5.78-.39-6.02-.49-8.77-3.67.71-.45 1.38-.9 2.07-1.32.63-.38 1.28-.71 2.35-1.31-1.68-.69-2.99-1.22-4.61-1.88 1.97-9.94-1.03-19.69-1.38-29.58-.06-1.58 1.5-3.23 2.41-5.05-3.11-3.99-2.18-8.84-1.25-13.67zm238.2 64.64c-1.71.74-3.43 1.48-5.74 2.48.89 1.25 1.44 2.9 2.31 3.09 2.55.54 5.28.66 6.68-1.68-1.17-1.39-2.23-2.66-3.3-3.92.96-.79 1.92-1.57 3.23-2.65-2.08-.87-3.51-1.47-4.94-2.07-.14.21-.28.42-.42.64.74 1.37 1.46 2.74 2.18 4.11zm.38-150.07c-2.96 2.08-3.15 4.33-1.03 7.32 1.28 1.8 1.76 4.18 2.66 6.44 2.58-.07 2.11-2.39 2.23-3.92.29-3.81 1.24-7.99-3.48-10.13.04-.62-.16-1.57.17-1.82 1.83-1.37 3.73-2.69 5.73-3.78 1.75-.95 3.78-1.39 5.49-2.39 3.91-2.28 4.77-6.43 1.42-9.5-1.71-1.57-4.73-1.91-7.24-2.28-.8-.12-1.76 1.63-2.82 2.18-1.38.7-2.9 1.32-4.42 1.49-2.61.31-5.27.25-7.9.34-.12.42-.25.84-.37 1.26 1.07.67 2.13 1.34 3.16 1.98-.69 1.19-1.22 1.88-1.52 2.65-1.49 3.77-3.95 5.7-8.24 4.91-.92-.17-2.34.37-2.97 1.08-1.53 1.71-2.73 3.71-4.17 5.76 1.84 1.34 3.54 2.58 5.24 3.81 4.19 3.02 7.99 2.2 10.73-2.33 2.6-4.31 2.6-4.31 7.33-3.07zm-120.65-79.32c-.3.59-.47.78-.47.96-.03 12.09-.06 24.18-.05 36.26 0 .83.38 1.65.48 2.49.85 7.13 2.53 14.28 2.32 21.38-.37 12.44.24 24.77 1.28 37.14.14 1.7-.44 3.84-1.47 5.19-2.54 3.33-3.83 6.77-3.86 11.05-.03 4.29-.64 8.68-1.69 12.85-1.05 4.19-3.49 7.42-8.59 7.4-1.71-.01-3.41.64-5.03.96.67 4.63 3.99 5.03 7.8 5.08-2.36 3.17-4.36 5.9-6.41 8.58-2.51 3.28-5.24 6.43-5.49 10.85-.22 3.85-2.38 5.85-5.98 7.06-3.87 1.3-4.05 3.37-.84 6.05-3.49 6.39-6.95 12.81-10.52 19.18-.47.85-1.37 1.8-2.24 2.02-5.11 1.25-7.69 4.76-9.05 9.51-.67 2.35-2.03 3.74-4.69 3.89-.99.06-2.13.91-2.86 1.7-2.86 3.13-5.63 6.34-8.34 9.6-.55.66-1.21 1.8-.99 2.43 1.24 3.6 2.65 7.15 4.24 10.61.26.57 1.77.93 2.6.78 1.13-.19 2.23-.86 3.15-1.57.17-.13-.69-1.41-.85-2.21-.21-1.06-.64-2.82-.19-3.13 1.12-.76 3.49-1.62 3.94-1.13 2.49 2.69 4.25.9 6.41-.42-1.88-2.95-1.21-5.71.72-8.03 2.49-3 5-6.12 8.05-8.48 5.89-4.56 10.03-10.02 12.24-17.23 2.11-6.84 6.59-11.43 14.34-11.71.9-.03 1.8-.36 2.11-.42.55-2.57.35-5.16 1.54-6.6 4.63-5.61 7.85-11.75 8.94-18.95.28-1.82 1.13-2.59 2.97-2.4.63.07 1.3-.2 1.95-.31-.31-.12-.63-.25-.94-.37.21-1.87.08-3.86.71-5.58 1.22-3.37 2.72-6.67 4.37-9.86 2.1-4.05 2.91-8.32 3.16-12.82.33-5.92 1.75-11.55 3.48-17.29 3.68-12.24 6.2-24.83 9.16-37.28.68-2.86 1.24-5.75 1.89-8.79 4.41 3.92 10.83 3.13 14.29-1.4.52-.68 1.41-1.58 2.09-1.54 6.48.35 11.86-2.6 17.33-5.43 3-1.55 6.11-2.91 9.19-4.29 1.62-.73 2.77-.29 3.52 1.46 1.09 2.52 1.58 4.43.58 7.65-1.1 3.54-2.62 5.56-5.31 7.46-.38.27-.28 2.19.21 2.57 2.57 2.01 6.37 1.21 8.29-1.64 2.06-3.06 4-6.19 6.07-9.41.62.55 1.13.83 1.38 1.26 1.44 2.46 3.3 1.77 5.46 1.08 2.35-.76 1.81-2.44 1.9-4.05.28-5.07.38-10.16 1-15.18.34-2.79-.41-4.5-2.82-5.67-.74-.36-1.44-.79-2.36-1.29 5.17-8.72 10.26-17.26 15.29-25.83.68-1.16 1.37-2.44 1.55-3.74.95-6.93 1.96-13.86 2.48-20.83.31-4.1 1.37-7.09 5.72-8.12.73-.17 1.34-.8 2.31-1.4-3.73-1.69-7.08-3.2-9.06-4.1-2.98 2.39-5.24 4.48-7.78 6.16-3.5 2.31-6.63 4.66-5.75 9.54.07.39-.06.86-.21 1.24-3.9 9.76-8.33 19.2-16.76 26.55-.45-2.01-1.69-4.22-1.05-5.33 1.65-2.85-.3-4.03-1.67-5.62-1.32-1.53-2.74-2.96-4-4.53-1.95-2.43-4.63-2.85-7.17-1.92-2.32.85-5.17 1.88-4.96 5.31.24 3.91 1.35 4.74 5.75 5.54 2.15.39 4.18 1.48 7.09 2.55-2.99 1.39-5.04 2.25-7 3.28-3.37 1.78-4.04 3.67-2.79 7.23.86 2.46 1.69 4.93 2.42 7.07-3.58 1.72-7.16 2.77-9.9 4.9-7.27 5.66-14.28 11.67-21.17 17.81-2.2 1.97-4.02 2.78-6.72.9.51-5.96 1.03-12.03 1.57-18.36 1.19.5 2.05.86 2.92 1.22-.14-1.41-.53-2.8-1.36-3.15-5.22-2.19-6.18-6.69-6.99-11.54-.26-1.55-1.27-3.56-2.54-4.24-3.8-2.04-6.66-4.72-8.48-8.63-.38-.82-1.42-1.79-2.23-1.87-2.59-.26-5.22-.11-7.63-.11zm27.52 86.85c-.23 6.45 4.71 7.07 8.31 8.24-.54 2.86-.85 5.35-1.51 7.74-.39 1.42-1.06 2.98-2.09 3.97-2.58 2.47-5.44 4.64-8.12 6.88 2.4 4.85 2.98 5.22 7.26 3.33 2.36-1.04 4.45-2.71 6.87-4.23.65 5.05 1.31 10.17 2.01 15.63-1.63.23-3.66.53-5.68.82-1.17-7.69-8.69-10.85-17.7-7.52 3.49 8.08 13.15 8.75 17.55 15.14 1.28-1.31 2.33-3.33 3.46-3.38 3.24-.15 6.5.54 9.76.84 1.61.15 3.23.17 4.84.25.8-.23 1.4.5 2.04 1.19.71.78 1.34 1.73 2.22 2.25.91.54 2.16 1.11 3.09.9 3.54-.77 4.36-.17 5.09 3.35.3 1.43 1.27 3.27 2.47 3.86 3.79 1.88 4.29 4.89 3.8 8.5-.17 1.26-.5 2.5-.58 3.76-.19 2.75 1.23 4.14 3.93 4.27.85.04 1.7 0 2.54.04.26.01.51.19.9.35-.64.85-1.18 1.57-1.71 2.28 1.36 2.25 2.65 4.37 4.13 6.81-4.65.63-7.03 3.03-7.7 7.24-.17 1.09-.88 2.18-1.59 3.07-1.15 1.44-1.89 2.67-.39 4.4 1.53 1.77 2.98 1.52 4.76.5 2.39-1.38 4.32-.72 5.49 1.75 1.45 3.06 2.8 6.16 4.17 9.26 1.11 2.5 1.47 4.9-1.33 6.59 1.48 2.33 2.77 4.35 4.18 6.56-2.07 1.14-3.88 2.14-5.91 3.26-1.49-3.15-2.87-6.07-4.35-9.22-1.74.94-3.19 1.72-4.51 2.44-.03 2.65 3.58 4.53 1.04 7.38-2.71-1.36-4.3-5.51-8.41-2.69 3.2 1.64 6.34 3.25 9.56 4.9-.89 2.18-1.64 4.01-2.5 6.14-.71-1.27-1.26-2.26-1.94-3.47-1.57 1.06-3.01 2.04-4.45 3.01 0 .33-.01.65-.01.98 2.07.44 4.13 1.11 6.23 1.28 4.42.37 7.07-2.53 8.86-5.55 1.72 1.44 3.11 3.53 4.51 3.54 1.88.02 3.89-1.4 5.61-2.55.98-.65 1.64-1.93 2.2-3.05 1.26-2.54 2.36-5.15 3.51-7.7 3.02.42 9.46-2.39 9.09-4.04-.73 0-1.48 0-2.57 0 .8-3.13 1.42-6.02 2.33-8.82.23-.72 1.34-1.16 2.06-1.71 2.89-2.21 7.36-3.87 8.38-6.74 2.49-7.02 3.61-14.6 2.41-22.21-.12-.79-.44-1.72-.98-2.26-3.2-3.13-10.24-3.09-13.6-.02 5.04 4.71 5.04 4.71 4.12 7.1-2.8-.88-6.03-1.24-8.36-2.87-1.32-.92-1.33-3.91-1.66-6.02-.82-5.27-3.38-7-8.36-5.49-4.29 1.3-8.6 2.57-13.19 3.94-.01-3.16.5-5.4 2.58-7.37 1.05-1 1.88-2.82 1.86-4.26-.07-5.58-2.7-10.11-6.35-13.45 4.76-3.95 9.46-7.86 14.12-11.73.61 2.29 1.34 5.01 2.12 7.93 2.53-.47 4.79-.48 4.93-3.89.04-1.03 1.59-2.2 2.7-2.94 2.04-1.36 4.29-2.4 6.4-3.66 2.44-1.45 2.4-3.51 1.19-5.72-1.25-2.27-3.16-2.03-5.25-1.34-2.82.93-5.16.22-7.05-2.16-3.37-4.23-8.56-4.49-12.29-.65-1.79 1.84-3.5 3.77-5.89 6.35-.29-4.61-.52-8.12-.77-12.06-4.46 2.13-8.39 4-12.45 5.93 3.23 5.1 8.27 5.35 13.69 6.27-.62 1.71-.74 3.95-1.78 4.53-3.43 1.92-4.11 4.84-4.17 8.28-.02.87-.22 1.74-.38 2.96-3.17-1.73-3.07-4.63-3.42-7.08-.39-2.76-1.83-3.73-4.35-3.93-2.64-.21-4.23.98-5.05 3.38-.3.87-.49 1.77-.91 3.32-1.49-3.11-2.7-5.62-3.99-8.31-2.27.83-4.32 1.58-6.39 2.34-1.31-3.79-2.57-7.42-3.92-11.32 1.49-.8 3.6-1.93 5.62-3.01-.39-4.14-3.75-4.62-5.94-5.52.72-2.54 2.02-4.89 1.88-7.15-.22-3.56-4.42-1.62-6.38-3.58 4.28-1.91 8.41-3.75 12.48-5.57-1.13-4.63-3.72-6.82-7.3-5.79-5.12 1.46-10.08 3.31-15.12 5zm-126.58-97.83c.11.1.54.39.87.78.62.72 1.32 1.43 1.74 2.26 3.51 7.03 6.08 14.27 3.85 22.27-.63 2.25-.29 3.93 1.26 5.78 5.85 6.99 11.44 14.2 17.32 21.17 1.27 1.51 3.17 2.75 5.03 3.43 4.8 1.76 4.97 1.62 4.4 6.65-.33 2.97 1.22 3.8 3.66 3.87 1.05.03 2.15-.09 3.15-.4 4.57-1.44 8.92-.66 13.32.85 4.2 1.44 8.49 2.6 13.24 4.03-1.83 1.08-3.09 1.81-4.37 2.57 1.76 1.93 23.21.43 31.07-2.21-1.52-2.46-2.44-5.57-4.52-6.99-5.58-3.82-11.61-6.99-17.56-10.24-1.52-.83-3.42-1.38-5.13-1.36-4.53.04-7.78-1.88-10.66-5.26-1.93-2.26-4.27-4.7-6.93-5.69-3.7-1.36-6.51-3.18-8.42-6.59-.98-1.75-2.31-3.3-3.4-4.99-3.08-4.78-6.72-9.32-9.03-14.46-3.13-6.98-6.56-13.56-12.59-18.39-3.53-2.82-4.8-6.42-5.23-10.73-.41-4.08-1.03-8.21-2.23-12.1-.46-1.51-2.77-2.45-4.24-3.66-1.21 1.86-2.46 3.69-3.59 5.6-.22.37-.02 1.06.15 1.55 1.6 4.64.28 8.49-3.24 11.91-5.21-2.1-10.02-7.04-16.43-2.76-.79 5.37.31 7.3 5.13 10.08 2.45 1.41 4.5 3.51 6.92 4.98 1.07.65 2.69.87 3.92.62.87-.18 1.51-1.48 2.54-2.57zm101.01 8.71c4.52 0 8.37.34 12.14-.08 5.93-.66 10.96-3.03 13.62-8.96 1.95-4.34 3.66-8.91 6.32-12.79 5.52-8.06 4.34-15.89.39-23.93-.37-.76-.73-1.53-1.02-2.32-2.71-7.41-7.24-12.77-15.48-14.21-2.56-.45-5.02-1.28-4.8-4.75.02-.38-.45-.92-.83-1.18-3.06-2.07-9.3-1.32-11.3 1.77-2.23 3.45-5.05 3.92-8.73 3.3-1.58-.26-3.36.43-5.01.85-2.28.58-4.48 1.71-6.77 1.88-4.22.31-4.51.6-5.33 4.82-.49 2.49-1.78 4.84-2.86 7.19-1.04 2.26-2.47 4.36-3.38 6.67-1.01 2.55-1.45 5.32-2.44 7.88-1.28 3.33-1.24 6.57-.35 9.95 1.33 5.08 3.64 9.97 2.96 15.48-.07.61 1.06 1.76 1.84 2.01 10.35 3.32 20.39 8.14 31.03 6.42zm-63.08-29.97c3.1 3.28 6.35 3.9 9.81.71 1.83 2.9 3.77 5.09 7.42 2.85-2.03-2.79-1.33-4.97 1.27-7.04.78-.62 1.33-2.53.96-3.42-1.05-2.55-.31-4.04 1.78-5.52.92-.65 2.07-2.31 1.81-3.07-1.94-5.66-4.17-11.23-6.4-16.79-.23-.57-.96-1.16-1.57-1.34-6.22-1.83-11.39-.19-15.35 4.73-.16.2-.51.25-.76.37-1.02-2.47-.53-5.74-4.21-6.49-2.68-.55-4.74.04-6.44 2.51 2.96 2.68 5.9 5.34 9.14 8.27-1.7 1.6-3.08 3.06-4.64 4.32-1.42 1.15-1.17 2.23-.37 3.56 1.97 3.28 5.01 4.38 8.62 4.33 3.85-.06 7.24 1.17 10.24 3.52-2.07 4.01-9.51 4.96-13.61 1.94-.9-.67-2.33-1.55-3.13-1.26-5.76 2.03-11.42 4.34-17.86 6.85 1.18.86 2.02 1.84 3.07 2.16 2.52.79 5.16 1.17 7.7 1.89 4.67 1.32 9.05 1.62 12.52-3.08zm-23.5 167.54c.04-.38.08-.77.11-1.15 3.52-.25 7.04-.6 10.57-.74 4.7-.19 8.3-3.35 7.58-7.26-.3-1.64-1.78-3.06-2.76-4.64 4.7-5.4 4.7-5.4 1.74-10.92-3.85-.72-3.77 2.35-4.37 4.89-1.31-.24-2.62-.14-3.54-.7-4.04-2.44-7.96-5.07-12.03-7.69-3.83 2.61-7.6 5.32-11.52 7.81-1.71 1.09-2.19 2.36-1.77 4.22.44 2.01.85 3.95 3.3 4.51 3.22.74 5.67 1.92 6.48 5.85.61 2.96 2.99 5.51 4.11 8.42.57 1.48.08 3.35.11 5.05.02.77.14 1.55.26 2.72 2.37-1.5 4.38-2.77 6.55-4.14-1.74-2.26-3.28-4.24-4.82-6.23zm101.69 25.82c3.01 2 5.82 3.87 8.63 5.73 4.57 3.03 10.52 1.9 13.61-2.65 1.39-2.05 2.62-4.19 3.76-6.03 1.72 1.16 3.22 2.06 4.59 3.13 1.32 1.03 2.5 2.24 4 3.6 4.35-1.38 10.23-.19 13.29-6.01-2.92-3.89-5.84-7.92-8.93-11.8-.64-.8-1.88-1.31-2.93-1.55-1.95-.46-3.97-.86-5.96-.84-1.25.02-2.86.52-3.66 1.4-3.5 3.82-6.8 7.84-10.11 11.84-1.53 1.84-3.49 2.82-5.58 1.71-3.59-1.9-6.76-2.06-9.65 1.44-1.58-3.06-2.94-5.67-4.42-8.53-4.22 2-8.29 3.93-12.52 5.93.59 2.07 1.12 3.96 1.67 5.89 5.2.25 10.24 1.03 14.21-3.26zm3.06 38.97c.25 2.83 1.81 3.2 4.2 2.61 2.97-.74 6-1.58 9.03-1.69 4.39-.16 6.72-2.12 7.47-6.36.68-3.84 2.72-6.14 6.97-6.16 2.53-.01 3.47-1.8 3.86-4.18.24-1.45 1.19-2.79 1.79-4.19.28-.65.65-1.3.71-1.98.56-6.5-2.61-8.97-9.37-7.36 0 .1-.04.22.01.3.94 1.65 1.92 3.29 2.84 4.95 1.79 3.23 1.43 4.24-1.85 5.62-1.01.43-1.96.99-3.12 1.57-.38-2.98-.72-5.69-1.12-8.78-4.01.33-7.83.64-12.61 1.03 1.08 2.41 1.92 4.2 2.68 6.02.3.73.78 1.7.54 2.3-1.33 3.26-2.4 6.77-4.44 9.55-1.96 2.64-4.98 4.49-7.59 6.75zm-.64 21.89c1.88 2.94 3.25 5.19 4.73 7.37.63.92 1.41 2.25 2.28 2.39 4.27.66 8.59 1.24 12.9 1.34 2.71.06 5.33-1.73 5.51-4.39.28-4.25 2.81-5.65 6.12-6.89.99-.37 2.31-1.44 2.42-2.32.38-3.13.5-6.33.36-9.49-.15-3.35-6.14-7.98-9.41-7.47-.57.09-1.12.56-1.58.97-2.88 2.48-3.34 4.66-1.86 8.47 1.73 4.46 1.14 5.47-3.5 5.97-1.18.13-2.35.38-3.78.62 2.02 2.16 2.02 2.16 5.72.77 2.84-1.07 3.82-.4 3.85 2.68.01.62-.08 1.23-.15 2.13-6.78.36-13.51 1.82-19.71-2.42-.74-.52-2.26.12-3.9.27zm58.42-151.54c.63.35 1.86 1.03 3.37 1.87-2.32 1.89-4.15 3.7-6.27 5.05-2.46 1.56-2.4 3.5-1.4 5.7.52 1.14 1.41 2.11 1.97 3.24.92 1.84 2.05 2.23 4.07 1.48 3.76-1.4 7.66-2.43 11.49-3.64 3.34-1.06 3.52-1.57 1.64-5.15-4.5 1.65-6.54-1.36-8.7-5.03 2.74-.18 5.16-.52 7.56-.44 2.67.09 3.46-1.67 3.38-3.56-.07-1.54-.79-3.76-1.94-4.41-5.23-2.94-11.46-1.81-15.69 2.49-1.64 1.66-3.17 2.94-5.82 2.06-.85-.28-2.39.61-3.19 1.4-.45.44-.4 2.19.07 2.58.76.63 2.33 1.18 3.05.81 2.11-1.14 3.99-2.73 6.41-4.45zm35.86-83.77c2.33 2.41 4.5 4.67 6.46 6.7 1.44-.62 3.29-2.18 4.35-1.75 5.59 2.25 8.59-1.63 12.95-4.96-4.56-2.59-8.68-4.92-12.9-7.31.67-.8 1.31-1.57 1.91-2.29-1.53-2.58-4.11-3.25-6.09-2.15-1.55.86-3.23 3.6-2.93 5.15.41 2.19-.56 3.1-1.58 4.32-.81.96-1.73 1.82-2.17 2.29zm-86.27 157.32c2.27 4.87 4.96 4.18 7.8 1.78-3.74-7.15-4.72-8-10.4-8.89 0-.38-.11-.82.02-1.18.5-1.45.72-2.63-1.32-3.09-2.12-.48-2.45.64-2.74 2.34-.78 4.54-2.35 8.61-7.78 9.84 2.02 2.42 3.87 4.34 5.36 6.51 1.45 2.12 3.15 2.41 5.44 1.78 2.21-.61 2.52-2.29 2.79-4.12.19-1.33.44-2.66.83-4.97zm-23.88 47.9c.08.63-.07 1.48.28 1.84 2.24 2.33 4.33 4.99 7.02 6.63 1.31.8 3.93-.1 5.74-.79.66-.25.66-2.13 1.08-3.22.29-.76.67-1.55 1.19-2.16 2.37-2.78 2.5-7.06.22-9.81-2.3-2.77-4.97-2.69-7.17.12-1.06 1.35-1.71 2.78-4.25 2.67-1.89-.08-4.37 1.69-4.11 4.72zm-21.37-271.88c1.12 1.88 1.71 4.33 3.02 4.8 3.63 1.3 7.53 2.13 11.37 2.45 1.98.17 5.34-.63 5.85-1.89.82-2.01.27-4.97-.61-7.16-1.24-3.08-4.86-4.66-7.11-3.71-3.97 1.67-7.89 3.46-12.52 5.51zm-60.2 231.77c4.87-1.53 9.29-2.91 13.72-4.31 3.33-1.05 4.88-3.3 4.69-6.75-.18-3.25-2.59-4.06-5.12-4.73-2.2-.58-3.73-.23-4.63 2.29-.42 1.16-1.96 2.49-3.17 2.7-4.24.73-5.91 2.95-5.3 7.15.14 1.02-.1 2.08-.19 3.65zm-33.04 50.29c-1.86.48-3.35.86-5.07 1.31.55 1.75 1.01 3.24 1.49 4.72 1.15 3.6 3.09 4.98 6.48 3.43 2.88-1.32 5.24-3.78 7.77-5.82.26-.21.19-.98.1-1.46-.9-4.75-7.96-10.07-13.02-9.74.72 2.41 1.43 4.81 2.25 7.56zm232.9-260.54c2.37.26 4.73.17 6.83.85 2.49.81 4.54.17 6.01-2.12 1.2-1.88 2.93-3.42 4.4-5.13.63-.73 1.67-1.5 1.7-2.28.07-2.06-.32-4.13-.62-7.1-2.07 1.14-4.71 1.75-4.94 2.86-.81 3.88-2.62 3.89-5.62 2.64-.9-.37-2.24-.02-3.22.39-.26.11-.12 1.7.15 2.5.93 2.78-.48 3.68-2.91 3.89-2.63.22-3.75 1.63-3.31 4.24.17 1.02.41 2.03.78 3.83.31-1.9.49-2.99.75-4.57zm-58.28 162.67c1.48-.82 2.51-1.24 3.35-1.9 1.53-1.22 2.94-2.59 4.41-3.88.46-.41 1.12-.68 1.42-1.17 1.22-2 .75-7.14-.71-8.81-1.69-1.92-7.08-3.43-9.1-2.04-1.78 1.23-3.02.7-4.54-.05-.68-.34-1.45-.51-2.57-.88.38 1.91.67 3.39 1.01 5.13 1.46-.96 2.66-1.75 4.23-2.79.81 5.4 1.59 10.46 2.5 16.39zm14.5-160.08c2.65 2.75 4.98 5.41 7.59 7.75.87.78 2.48.74 3.76 1.08.23-1.2 1.04-2.71.59-3.54-2.03-3.78-4.42-7.38-6.69-11.06-1.87.89-3.26 1.54-4.68 2.22-1.18-1.7-2.2-3.16-3.32-4.76-1.87.82-3.77 1.35-5.26 2.43-.9.65-1.93 2.47-1.61 3.22 1.58 3.74 6.83 4.87 9.62 2.66zm51.33 89.57c1.78 2.98 3.34 5.59 4.85 8.1 2.84-.31 3.77-1.88 3.69-4.35-.06-2.12.15-4.25-.04-6.35-.12-1.3-.76-2.56-1.33-4.34-2.6 4.44-2.75 4.42-6.96 2.97-1.88-.65-3.89-1.15-5.86-1.26-1.86-.1-4.01.72-3.57 2.97.46 2.34 1.64 4.65 2.96 6.67 1.34 2.03 3.9 1.47 4.88-.84.44-1.01.81-2.08 1.38-3.57zm-192.92 63.66c-1.72 4.4-1.62 4.69 2.15 6.56-.82.64-1.6 1.25-2.38 1.85 1.96 5.71 3.86 11.24 5.76 16.76 4.93-2.91 7-6.57 4.83-11.95-.62-1.54-.63-3.31-1.08-4.93-.2-.73-.81-1.95-1.22-1.94-4.19.04-5.76-3.32-8.06-6.35zm100.77-68.87c4.08-1.47 7.74-2.77 11.38-4.12 2.67-.98 3.66-4.03 2.34-7.03-1.01-2.3-4.55-3.83-6.63-2.59-3.23 1.93-6.3 4.13-9.43 6.21.82 2.6 1.53 4.9 2.34 7.53zm24.66 147.92c-1.35-.88-2.62-1.7-3.89-2.53-.44.84-.43.97-.36 1.02 4.24 3.47 6.66 7.38 3.89 13.06-.42.86.48 2.66 1.25 3.66.32.42 1.9-.14 3.15-.29-.94-2-1.63-3.49-2.31-4.93 4.48-2.7 5.73-5.5 4.6-10.44-.68-2.98-.33-5.71 1.55-8.1 1.39-1.77.85-3.05-.95-3.69-1.18-.42-2.82-.64-3.86-.13-1.66.82-2.58 2.38-1.42 4.44 1.78 3.17 1.39 5.94-1.65 7.93zm-108.91-113.31c4.03 1.22 2.07 5.14 3.71 7.18 4.32-1.21 5.48-4.33 3.63-9.22-1.82-.29-3.62-.41-5.34-.89-3.22-.9-6.18-1.48-7.61 2.67-.14.39-.81.6-1.24.9 0-.29 0-.57-.01-.86-2.15-.13-4.3-.27-6.85-.43.55 2.6.9 4.21 1.21 5.7 5.39.71 10.46 1.37 12.5-5.05zm82.21 142.34c-2.14 1.85-3.86 1.66-5.74.32-.47-.34-1.35-.72-1.72-.51-2.37 1.37-4.9 2.64-6.83 4.52-.75.73-.15 2.93-.01 4.45.31 3.34 1.21 4.18 4.42 3.35 1.71-.44 3.5-1.5 4.7-2.79 1.85-1.99 3.32-4.37 4.77-6.69.45-.7.3-1.76.41-2.65zm82.06-95.91c1.37 1.11 2.52 2.49 3.99 3.12 3.46 1.48 4.22-2.77 7.46-3.82.86 3.08 1.69 6.06 2.64 9.47 1.16-.82 2.74-1.39 2.79-2.06.23-3.34.46-6.77-.1-10.04-.53-3.05-2.58-3.56-5.4-2.15-3.48 1.74-7 3.38-11.38 5.48zm-218.53 40.84c-3.85 6.14-4.68 16.88-2.11 21.62 1.38-.33 2.81-.65 4.23-1.01 2.67-.67 4.12-3.47 2.28-5.34-3.28-3.33-3.2-7.01-2.69-11.12.14-1.13-.94-2.4-1.71-4.15zm63.51-116.33c2.48-2.19 4.24-3.73 6.32-5.56 2.06 6.35 6.9 5.6 11.89 5.62-.93-3-4.66-5.55-.62-8.63-2.56-1.2-4.58-2.57-7.01-.02-.9.95-2.88.98-4.41 1.21-1.23.18-2.52.06-3.78.01-2.11-.09-3.2 1.21-3.4 2.99-.14 1.19.53 2.48 1.01 4.38zm62.29-111.02c-.57-2.7-1.49-5.26-4.47-5.51-4.71-.4-9.82-2.22-13.76 2.32 3.01 4.65 13.16 6.47 18.23 3.19zm76.13 131.68c3.41 4.07 15.25 4.41 18.01.74.69-.92.81-2.67.48-3.83-.22-.76-1.64-1.47-2.64-1.68-6.05-1.34-10.56 2.49-15.85 4.77zm-83.78 168.7c-1.32-2.49-2.28-5.01-3.85-7.06-1.34-1.74-3.33-3.03-5.17-4.31-.5-.35-1.84-.29-2.24.12-2.08 2.13-3.97 4.44-6.2 7 4.23 1.58 7.8 4.09 11.63.22.72 1.99 1.35 3.73 2.05 5.67 1.39-.61 2.52-1.09 3.78-1.64zm-93.87-47.6c.63 1.14.98 2.78 1.95 3.33 2.85 1.61 6.04 2.02 9.06.39 1.15-.62 2.79-1.91 2.75-2.83-.07-1.45-1.04-3.27-2.21-4.17-2.18-1.67-4.73-2.31-7.69-1.48-2.52.72-4.07 1.6-3.86 4.76zm203.05-167.23c2.17-1.63 3.32-4.33 2.07-6.51-1.52-2.65-3.85-3.28-6.78-2.43-2.83.82-5.74 1.37-8.74 2.07.8 2.65 1.54 4.88 4.85 5.13 2.61.2 5.18 1.03 8.6 1.74zm-61.2 195.92c.38.08.76.16 1.14.24.84-2.51 1.85-4.99 2.43-7.56.16-.71-.74-1.93-1.48-2.5-1.26-.99-8.93.53-9.88 1.81-.23.31-.31.78-.31 1.17-.03 2.6-.01 5.2-.01 8.63 2.02-2.22 3.47-3.81 5.03-5.52 1.11 1.34 2.1 2.53 3.08 3.73zm-88.51 7.77c-3.95 2.96-5.91-.13-8.02-2.61-2.48 5.43-1.74 10.11 1.95 13.42 7.99-3.82 8.53-4.73 6.07-10.81zm66.7-292.99c.82 1.84 1.42 5.09 2.51 5.27 3.17.51 6.56-.04 9.8-.59.71-.12 1.6-2 1.53-3.01s-1.07-2.56-1.95-2.8c-3.88-1.08-7.86-1.66-11.89 1.13zm-92.55 253.02c.93 2.62 1.81 5.1 2.68 7.59.9 2.55 3.2 1.82 4.88 1.73 1.06-.06 3.01-1.61 2.9-2.16-.55-2.7-1.02-5.87-2.73-7.78-1.92-2.13-5.04-1.63-7.73.62zm112.63-103.91c-.49-5.33-1.79-6.44-7.35-5.74-3.02.38-6.03.91-10.02 1.53 1.32 1.74 2.18 3.96 3.21 4.04 4.7.39 9.45.17 14.16.17zm-75.73 121.09c2.97-.68 5.91-1.34 8.85-2.02 2.17-.5 4.19-3.52 3.37-5.41-1.06-2.44-3.04-2.57-5.26-1.53-.76.36-1.57.61-2.36.89-5.27 1.91-5.27 1.91-4.6 8.07zm-59.95 14c-1.2 1.99-2.7 3.52-3 5.24-.36 2.11.18 4.41.57 6.58.16.88.84 2.18 1.51 2.33 1.35.31 4.03.21 4.1-.15.64-3.07 1.28-6.29.95-9.37-.16-1.49-2.38-2.77-4.13-4.63zm2.52-5.13c-3.37-2.7-6.09-5.5-9.36-7.3-3.01-1.66-3.54 2.09-4.86 3.64-.38.45.43 2.82 1.23 3.22 3.82 1.88 7.84 2.98 12.99.44zm71.11-114.16c-1.54-2.14-2.83-3.92-4.28-5.92-3.64 1.66-7.14 3.26-10.89 4.98 1.45 1.56 2.58 2.98 3.93 4.12.58.49 1.78.78 2.46.53 2.85-1.06 5.62-2.35 8.78-3.71zm119.32-71.43c-2.35-2.96-5.39-3.74-8.6-3.34-5.01.62-6.49 4.49-3.55 8.85 3.98-1.81 7.98-3.62 12.15-5.51zm-162.17 2.46c-1.24 7.06-.97 7.64 3.74 8.35 2.23.33 5.9-1.99 6.15-3.89.32-2.53-1.52-4.01-5.01-4.11-1.56-.05-3.12-.22-4.88-.35zm-60.99 39.55c-1.38-.36-2.72-.72-4.35-1.15-.52 4.62-3.58 5.64-7.44 5.4.4 2.12.7 3.74 1.06 5.64 3.15-.57 6.09-1.1 8.66-1.56.71-2.89 1.31-5.31 2.07-8.33zm59.35 173.52c2.86-.49 5.8-.99 9.02-1.54-1.73-3.21-3.27-6.06-4.8-8.9-6.45 3.11-6.64 3.58-4.22 10.44zm-49.94-42.78c1.11 1.32 2.18 2.6 3.4 4.04.81-.58 1.52-1.09 2.78-2-1.18-.9-2-1.57-2.87-2.19-1.54-1.1-1.67-2.41-1.03-4.14 1.39-3.76.95-4.4-3.48-5.47-1.35 3.8-4.5 7.23-2.15 12.01 1.19-.79 2.22-1.49 3.35-2.25zm197.84-163.82c3.17 2.81 5.03 7.76 10.43 5.04 1.46-.74 2.96-.89 2.65-3.12-.31-2.19-1.52-3.32-3.56-3.16-3.19.24-6.35.81-9.52 1.24zm-55.22 52.24c.55 1.46 1.02 2.71 1.52 4.05 1.21-.78 2.06-1.33 2.92-1.88.01.31.01.63.02.94 2.16.29 4.33.79 6.49.77.89-.01 2.56-1.25 2.49-1.74-.19-1.37-.77-3.21-1.81-3.81-1.17-.68-3.05-.47-4.55-.22-2.17.37-4.26 1.12-7.08 1.89zm-1.44-96.27c1.6 1.11 2.5 2.27 3.33 2.22 2.1-.13 4.81-.17 6.09-1.44 1.42-1.41-.66-4.34-3.23-5.11-2.95-.89-7.79 1.47-8.77 4.43-.21.62.28 1.47.45 2.21.27.13.55.26.82.39.42-.88.85-1.75 1.31-2.7zm41.08 157.88c.61 5.3 1.16 10.13 1.75 15.31 1.95-.71 3.37-1.23 5.17-1.88-2.84-4.31 1.08-11.19-6.92-13.43zm-123.47-10.82c-1.65-4.01-6.21-5.64-9.69-3.8-2.92 1.55-3.05 2.78-.59 6.88 3.32-.99 6.71-2 10.28-3.08zm74.48-57.03c-2.18 2.82-4.04 5.23-6.02 7.8 1.6 3.1 2.92 3.44 8.41 1.81.92-6.81.86-9.75-2.39-9.61zm-54.05-39.19c1.14 1.78 2.21 3.23 3.04 4.8.79 1.49 1.78 1.91 3.31 1.25 1.49-.64 3.21-.73 3.3-3.13.13-3.27-2.08-4.28-4.37-5.45-2.83-1.43-3.52 1.26-5.28 2.53zm32.9 142.12c1.24 3.37 2.37 6.46 3.52 9.57 5.26-2.35 5.82-3.2 4.76-6.86-.75-2.6-2.79-3.33-8.28-2.71zm-113.76-90.63c.58 2.02 1.08 3.8 1.67 5.85 2.25-.49 4.48-.56 6.23-1.52 1.07-.59 2.08-2.67 1.86-3.84-.19-1.01-2.21-2.39-3.35-2.34-2.12.11-4.18 1.15-6.41 1.85zm74.2 7.76c-1.7 1.18-3.7 1.87-2.51 4.86 1.91 4.8 1.93 5.03 7.3 4.76 1.05-4.51-1.08-7.43-4.79-9.62zm.82 28.31c5.64-1.91 7.58-3.95 6.99-7.04-.41-2.13-2.84-3.04-6.99-2.51zm-83.9-40.93c1.03 2.44 3.33 3.76 5.5 2.86 2.22-.92 3.87-3.22 6.33-5.42-5.15-.77-9.2-1.87-11.83 2.56zm152.99 124.98c1.72-.63 4.6 1.3 4.81-2.35.13-2.22-2.11-4.13-5.22-3.51-1.62.32-3.96 2.36-4.07 3.77-.26 3.34 2.89 1.42 4.48 2.09zm-70.28-184.84c-2.69 1.41-3.35 3.52-2 6.51 1.86-1.07 3.7-2.14 5.64-3.26-1.75-3.31-3.31-6.28-4.89-9.24-.24-.45-.56-.87-.87-1.34-2.47 3.61-2.39 3.88 2.12 7.33zm-59.31 146.69c-2.2 3.95-.52 6.58 2.62 8.92 1.78-1.52 3.58-3.05 5.62-4.79-3.07-1.53-5.69-2.85-8.24-4.13zm207.52-189.79c5.21 2.21 6.21 2.1 8.9-1.03-.86-1.53-1.76-3.12-2.7-4.81-2.81 1.4-6.58 1.26-6.2 5.84zm-65.86-31.58c1.41-1.13 2.96-1.98 3.93-3.27.7-.94.84-2.46.79-3.7-.02-.39-1.41-.8-2.22-1.08-2.16-.73-3.24.54-4.18 2.24-1.28 2.32-.35 3.99 1.68 5.81zm-155.19 269.15c2.12-1.34 3.93-2.37 5.6-3.6.73-.53 1.73-1.56 1.62-2.19-.19-1.06-.96-2.36-1.87-2.86-.99-.55-2.43-.33-3.6-.43-.64 3.34-1.23 6.39-1.75 9.08zm142.21-260.14c1.31-1.38 1.98-2.09 2.66-2.8-.32-.05-.64-.1-.96-.14-.14-1.34-.87-3.12-.27-3.9.8-1.06 2.62-1.35 4.94-2.4-1.59-1.21-2.59-2.25-3.81-2.78-.77-.33-1.96-.1-2.79.27-.57.25-1.23 1.21-1.17 1.79.3 3.02.82 6.02 1.4 9.96zm-109.47 236.69c-1.07 2.15-2.07 3.66-2.56 5.32-.47 1.6-.53 3.67 1.91 3.64 1.77-.02 3.53-.84 5.6-1.38-1.72-2.62-3.14-4.8-4.95-7.58zm164.74-140.93c1.69-.2 3.29-.25 4.82-.61.87-.21 2.28-.87 2.31-1.4.07-1.24-.17-2.89-.98-3.68-.66-.65-2.66-.82-3.44-.29-1.85 1.26-3.93 2.76-2.71 5.98zm-108.32 169.51c2.03-.63 3.84-1.2 5.75-1.79-2.15-3.5-6.47-5.57-10.1-4.91 1.42 2.17 2.77 4.27 4.35 6.7zm144.3-41.98c-.55-3.12-.22-5.51-3.02-5.8-1.1-.11-3.05.15-3.25.72-.49 1.41-.63 4.29-.14 4.46 1.81.66 3.93.46 6.41.62zm-150.4 31.11c3.28-1.81 6.15-3.39 9.33-5.15-1.41-1.06-2.39-1.79-3.38-2.53-2.75 1.8-5.33 3.48-7.86 5.14.74.98 1.24 1.65 1.91 2.54zm-22.32-98.41c.02-2.45-.74-4.58-3.25-4.09-1.02.2-2.07 2.63-2.2 4.12-.08.88 1.51 2.58 2.52 2.74 1.7.26 3.41-.54 2.93-2.77zm-9.24 62.46c2.26-1.76 6.43-.36 5.87-4.46-.43-3.12-3.52-2.04-5.87-2.31zm-16.89-3.07c1.84-.42 3.52-.62 5.03-1.23.78-.32 1.76-1.41 1.72-2.09-.05-.73-1.1-1.79-1.89-1.98-1.55-.38-3.22-.25-4.86-.34zm-32.08-66.48c-.23.29-.45.58-.68.87 1.53 2.48 3.06 4.95 4.75 7.69 1.42-.95 2.61-1.74 4.5-3-3.15-2.05-5.86-3.8-8.57-5.56zm159.62-146.81c-.03.35-.06.7-.1 1.06.97.13 1.97.49 2.89.32 1.32-.23 2.57-.88 3.86-1.29 1.43-.44 2.87-1.22 1.77-2.75-.54-.75-2.59-1.12-3.55-.72-1.78.76-3.26 2.22-4.87 3.38zm-167.28-13.44h7.32c-.97-1.78-1.74-3.21-2.62-4.83-2.14 1.22-5.88.36-4.7 4.83zm-9.02 249.81c2.3 3.73 4.52 3.37 6.88 2.3.51-2.3-.09-4.3-2.35-4.46-1.41-.1-2.93 1.34-4.53 2.16zm45.04-20.56c.37-3.26-.54-5.46-4.11-6.1-.52 2.09-1 4.05-1.51 6.1zm-38.2-163.62c-3.92-.47-7.84-.94-12.15-1.45.23 1.48.41 2.62.54 3.48 2-.44 4.4-1.64 5.08-1.01 2.63 2.48 4.47.88 6.53-1.02zm-13.24-68.75c-1.42 2.58-4.61 4.2-1.48 7.46 1.56-.59 3.15-1.19 5.06-1.91-1.25-1.95-2.26-3.51-3.58-5.55zm172.96 281.92c.36.15.72.3 1.08.46.96-1.37 2.75-2.79 2.69-4.11-.12-2.63-2.48-3.41-5.29-3.76.57 2.73 1.05 5.07 1.52 7.41zm-173.35-148.63c-.82 2.4-.19 3.86 2.12 4.46 2.68.7 4.31-.45 5.42-2.99-2.67-.51-5.1-.99-7.54-1.47zm230.13 27.87c-3.76 1.29-6.77 2.32-10.1 3.47.84 1.03 1.6 1.95 2 2.44 3.28-1.69 6.21-3.2 9.2-4.74-.31-.32-1-1.06-1.1-1.17zm-201.37-153.77c2.06-.58 4.12-1.17 6.16-1.75.02-3.21-2.08-3.41-4.09-3.31-3.16.16-1.47 3.07-2.07 5.06zm198.21-12.83c.17-.26.33-.53.5-.79-2.08-1.66-4.16-3.32-6.78-5.41-.31 2.54-.49 3.95-.69 5.54 2.43.23 4.7.44 6.97.66zm-205.29 211.26v6.95c2.22-.59 3.69-1.36 3.4-3.84-.22-1.88-.83-3.24-3.4-3.11zm166.71 54.29c-.77 2.58-4.4 3.41-2.24 5.75.86.93 3.58.15 6.1.15-1.48-2.28-2.44-3.74-3.86-5.9zm-154.08 10.4c-.4-.02-.79-.04-1.19-.05-.94 1.37-1.89 2.74-2.83 4.11.79.54 1.64 1.58 2.35 1.5.99-.12 2.57-.98 2.67-1.7.17-1.22-.62-2.57-1-3.86zm3.34-245.12c.28.26.55.52.83.79 1.21-.9 3.18-1.62 3.46-2.75.53-2.13-.86-3.66-3.46-3.99-.29 2.08-.56 4.01-.83 5.95zm98.18 41.49c-.38.18-.77.35-1.15.53.65 1.54.9 3.61 2.06 4.49 1.75 1.33 3.33.13 4.21-2.08-1.7-.97-3.41-1.95-5.12-2.94zm38.23-48.86c.28.16.57.33.85.49 1.16-1.39 2.32-2.79 3.48-4.18-1.46-.76-2.91-1.51-5.1-2.64.35 2.9.56 4.61.77 6.33zm58.43 93.5c2.68.97 4 .01 4.55-2.18.58-2.34-.93-3.15-3-3.73-.51 1.95-1.01 3.84-1.55 5.91zm-150.76 42.85c.3.25.61.5.91.75 1.22-1.4 2.43-2.79 3.65-4.19-1.34-.75-2.68-1.49-4.56-2.54zm166.54-41.34c-.66-1.8.34-4.49-2.5-4.12-3.2.41-1.38 3.48-2.66 5.71 2-.62 3.35-1.04 5.16-1.59zm-142.87 22.34c1.43-.47 2.88-.95 4.64-1.53-.94-1.49-1.69-2.7-2.44-3.9-3.72 1.99-3.72 1.99-2.2 5.43zm-11.31 125.72c-1.27 1.65-4.48 2.08-2.14 5.28 1.64-.31 3.32-.62 5.45-1.02-1.26-1.62-2.2-2.83-3.31-4.26zm-32.78-20.15c-.18-3.24-1.32-4.82-4.35-4.62-.51 1.28-.96 2.41-1.53 3.85 2.1.27 3.83.5 5.88.77zm194.4-153.5c.52-2.53-.35-3.54-2.6-3.85-2.53-.34-2.71 1.17-2.83 3.16 1.82.24 3.55.46 5.43.69zm-179.29-28.15c.82 2.04 1.33 3.64 2.13 5.07.27.48 1.33.79 1.97.71.37-.05.9-1.05.88-1.6-.13-2.71-2.03-3.62-4.98-4.18zm115.45-18.14c3 2.34 5.03.33 7.65-.16-1.11-1.31-1.9-2.24-2.7-3.18-1.65 1.11-3.04 2.04-4.95 3.34zm-66.77 204.03c-1.47-1.17-2.33-2.27-3.43-2.6-.88-.27-2.12.23-3.05.69-.33.16-.5 1.58-.25 1.78.63.49 1.55.83 2.35.82 1.24-.02 2.47-.37 4.38-.69zm-113.81-166.09c-.44-1.51-.8-2.74-.91-3.08-2.33.72-4.21 1.3-6.8 2.1 2.55 2.75 5.12.88 7.71.98zm13.57 48.77c-1.61-2.97-3.76-2.19-6-1.97.06 1.25.11 2.32.17 3.63 2.04-.59 3.72-1.06 5.83-1.66zm234.36-93.44c-1.1-2.2-2-4-3.3-6.58-.65 2.75-1.08 4.57-1.55 6.58zm-23.56 130.6c-1.75 1.3-3.24 2.41-4.97 3.7 2.96 2.64 4.36-.43 6.54-1-.55-.95-.96-1.65-1.57-2.7zm-87.5-102.69c-1.46 1.12-2.75 2.11-4.15 3.18 2.32 2.98 4.18.38 6.46.07-.84-1.19-1.5-2.11-2.31-3.25zm-140.22 33.82c-1.66 2.08-2.73 3.42-4.07 5.1 1.11.75 2.07 1.4 3.02 2.04.35-1.09.81-2.16 1.02-3.28.17-.9.03-1.86.03-3.86zm18.44 8.47c1.55 5.01 1.81 5.18 5 3.58.1-3.37-2.68-2.84-5-3.58zm167.07-79.15c-.43 1.54-.82 2.95-1.29 4.64 1.67-.29 2.79-.49 4-.7.3-1.99.84-3.97-2.71-3.94zm56.25 51.96c1.28-1.46 2.82-2.48 2.69-3.22-.45-2.63-2.64-1.81-4.66-1.82.56 1.44 1.01 2.6 1.97 5.04zm-160.92 84.14c-.95-1.69-1.84-3.28-3.19-5.68-.28 3.01-.47 5.03-.68 7.3.94-.31 1.54-.46 2.1-.7s1.09-.56 1.77-.92zm158.49 25.13c1.59 6.13 1.64 6.18 5.05 4.91-1.85-1.8-3.45-3.35-5.05-4.91zm-222.7 31.92c-1.01 1.6-1.76 2.81-2.52 4.01 1.77.26 3.54.52 6.19.9-1.49-2-2.28-3.06-3.67-4.91zm136.24-196.79c-.33 1.38-.58 2.45-.93 3.94 2.28-.55 4.09-.99 6.68-1.62-2.31-.93-3.84-1.55-5.75-2.32zm-156.01 43.03c.36.22.72.43 1.08.65.62-1.14 1.47-2.23 1.71-3.45.07-.38-1.53-1.08-2.8-1.92.01 2.21.01 3.47.01 4.72zm210.65 65.44c-.19.11-.37.22-.56.32.22 1.52.45 3.04.7 4.78 1.32-.17 2.44-.32 4.15-.54-1.78-1.89-3.04-3.23-4.29-4.56zm-99.21 164.4c.28.14.55.27.83.41.59-.95 1.67-1.92 1.63-2.84-.04-1.09-1.04-2.15-1.63-3.23-.28.14-.55.28-.83.42zm25.09-213.96c1.45-.58 2.56-1.03 4.17-1.68-1.72-1.21-2.83-1.99-4.17-2.93zm-127.4 197.34c-.56 1.59-.95 2.72-1.48 4.23 1.97-.35 3.54-.63 5.77-1.03-1.68-1.26-2.82-2.1-4.29-3.2zm151.99-108.31c.34.25.68.49 1.03.74.76-.97 1.89-1.86 2.14-2.95.16-.71-.96-1.71-1.5-2.58-.29.12-.58.23-.87.35-.27 1.48-.54 2.96-.8 4.44zm57.39 92.04c-.23.26-.47.52-.7.78v3.55c.24.15.49.31.73.46.73-.86 1.91-1.66 2.04-2.6.09-.62-1.33-1.46-2.07-2.19zm-177.47-107.07c-2.48-.8-4.17-1.35-6-1.95.32 3.2.66 3.33 6 1.95zm195.69-70.66c-2.01-1.03-3.26-1.67-4.95-2.54.09 1.44.14 2.37.21 3.57 1.61-.35 2.8-.61 4.74-1.03zm-13.33 68.44c-.27 1.46-.49 2.62-.78 4.19 1.77-.61 3.03-1.04 4.85-1.67-1.68-1.04-2.72-1.68-4.07-2.52z"/><path d="m319.76 336.23c0-1.87 0-3.5 0-5.69 2.07 1.52 3.9 2.88 6.42 4.73-2.61.39-4.4.65-6.42.96z"/><path d="m328.3 38.56c-2.65 2.85-5.04 2.18-8.01 0z"/><path d="m326.52 308.13c2.44 2.64 2.82 4.76 0 7.19 0-2.43 0-4.53 0-7.19z"/><path d="m283.69 315.25c1.99 1.54 3.6 2.79 5.31 4.12-.65.54-1.04.88-1.46 1.2-2.51 1.92-5.03 3.84-6.99 5.33-1.8-1.12-3.31-1.96-4.7-2.96-.74-.53-1.28-1.33-1.91-2.01.23-.27.46-.54.7-.81 1.75.59 3.58 1.02 5.24 1.81 2.16 1.03 2.93.02 3.24-1.86.25-1.43.35-2.89.57-4.82z"/><path d="m292.36 307.31c.89 2.35 1.68 4.45 2.49 6.61-3.32.59-3.97-1.23-2.49-6.61z"/><path d="m279.35 295.85c1.45.66 2.56 1.16 4.04 1.83-1.06.62-1.82 1.07-2.74 1.6.25.91.51 1.85.77 2.8-.32.07-.65.14-.97.21-.36-2.05-.7-4.1-1.1-6.44z"/><path d="m193.88 113.63c-4.77-.71-11.16-1.64-17.54-2.63-.48-.07-1.07-.39-1.32-.78-2.69-4.28-5.62-8.45-7.87-12.95-1.3-2.59-1.4-5.6.6-8.42.97-1.37 1.12-3.38 1.46-5.14.7-3.6 2.77-5.75 6.29-6.79 4.16-1.22 8.1-1.47 12.29.31 4.66 1.98 9.57 3.39 14.44 4.85 2.03.61 3.31 1.63 3.96 3.63.39 1.2.99 2.34 1.57 3.47 1.35 2.66 2.53 5 .02 8.01-1.31 1.57-1.26 4.4-1.51 6.69-.77 7.05-3.72 9.79-12.39 9.75z"/><path d="m130.21 74.24c-1.98-2.2-3.63-4.05-5.51-6.14 2.79 0 5.73-.21 8.61.13.83.1 1.72 1.7 2.07 2.78.13.4-1.08 1.47-1.87 1.9-1.25.68-2.67 1.09-3.3 1.33z"/></g><path d="m6.44 374.46.42-.45c.65.47 1.27.95 1.85 1.44l-.45.49c-.65-.56-1.25-1.06-1.82-1.48m.93 7.33-.63-.26c.55-1.36 1.05-2.8 1.52-4.33.19.1.38.19.59.27-.46 1.29-.95 2.73-1.48 4.32m-.38-10.38.44-.42c.43.34 1.01.82 1.74 1.44l-.49.49c-.53-.51-1.09-1.01-1.69-1.51m2.5.35h1.72v-1.04h.59v1.04h3.52v-1.04h.59v1.04h1.75v.53h-1.75v1.42h-2.03v.97h3.22v2.03h-3.24c0 .35-.01.66-.03.93h3.32v.53h-3.37c-.03.27-.08.58-.15.94h3.96v.53h-3.71c.67.92 1.93 1.48 3.79 1.68-.13.24-.23.44-.29.59-2.13-.38-3.48-1.08-4.04-2.12-.43.97-1.77 1.72-4.03 2.23-.09-.19-.2-.37-.33-.55 2.1-.42 3.37-1.03 3.81-1.83h-3.36v-.53h3.58c.08-.29.13-.61.16-.94h-3.33v-.53h3.39c.02-.27.04-.58.04-.93h-3.23v-2.03h3.25v-.97h-2.07v-1.42h-1.73zm1.12 3.44v1h2.65c.01-.3.02-.44.01-.4v-.25-.35zm1.19-2h3.52v-.91h-3.52zm4.71 2h-2.63v.59c0 .15-.01.28-.01.4h2.64z" fill="#fbfafc"/><path d="m13.56 383.74h.63v1.52h2.72v6.07h1.13v.6h-11.06v-.6h1.13v-6.07h2.73v-1.52h.63v1.52h2.1v-1.52zm-2.69 8.83.38.56c-1.24.63-2.53 1.25-3.85 1.85-.1-.21-.21-.42-.34-.63 1.36-.55 2.63-1.15 3.81-1.78m-2.13-4.27h2.1v-2.45h-2.1zm0 3.04h2.1v-2.46h-2.1zm2.72-3.04h2.1v-2.45h-2.1zm0 3.04h2.1v-2.46h-2.1zm6.07 3.6c-1.41-.71-2.7-1.3-3.86-1.78l.35-.56c1.45.62 2.75 1.19 3.88 1.72zm-1.25-9.09h-2.1v2.45h2.1zm-2.09 5.49h2.1v-2.46h-2.1z" fill="#fbfafc"/></svg>