<svg enable-background="new 0 0 400 400" viewBox="0 0 400 400" xmlns="http://www.w3.org/2000/svg"><g fill="#010000"><path d="m269.18 140.57c-.72 4.41-1.15 8.09-1.93 11.71-2.97 13.85-.59 27.64.32 41.45.67 10.22 2.78 20.72 1.25 30.63-2.26 14.68-8.4 28.1-23.72 34.42-1.72.71-3.62 1.23-5.48 1.37-8.88.67-17.14 3.62-25.43 6.56-1.96.69-4.11 1.22-6.17 1.19-8.85-.12-16.99 2.08-25.18 5.49-10.06 4.19-17.85 10.5-25.02 18.65-5.88 6.69-8.62 14.65-12.74 22.05-1.91 3.43-4.3 6.59-6.13 10.06-.74 1.4-.38 3.34-.81 4.96-.75 2.81-1.43 5.69-2.67 8.29-1.43 3-3.13 5.8-1.95 9.29.07.2.1.43.06.63-1.22 5.53-2.46 11.05-4.31 16.47 0-3.99.58-8.09-.15-11.94-.91-4.8.67-8.91 1.98-13.2 2.92-9.51 5.29-19.24 8.95-28.46 6.06-15.27 16.49-27.26 30.3-36.19 1.56-1.01 3.55-1.35 5.25-2.18 1.28-.63 2.4-1.58 3.63-2.34.76-.46 1.54-.97 2.38-1.2 2.63-.71 5.29-1.32 7.96-1.92 6.59-1.49 13.18-2.97 19.78-4.42.82-.18 1.78.03 2.51-.31 6.74-3.11 13.77-4.73 21.21-4.56.66.02 1.38-.45 1.99-.82 4.15-2.51 8.19-5.19 12.43-7.54 4.67-2.6 7.82-6.11 9.41-11.37 3.01-9.99 5.59-20.05 5.11-30.56-.34-7.4-1.36-14.77-1.94-22.16-.95-12.05.5-23.91 3.37-35.6.79-3.19 2.2-6.1 5.74-8.45z"/><path d="m274 58.38c2.06.4 2.04 1.3 1.23 3.12-1.84 4.15-3.88 8.33-2.06 13.17.35.92-.41 2.26-.49 2.61.41 3.09 1.07 5.5.98 7.9-.24 6.66-.63 13.32-1.26 19.95-.69 7.26-4.19 13.68-8.04 19.49-3.07 4.64-8.37 7.4-14.03 9.09-2.95.88-5.52 2.95-8.36 4.27-1.41.65-3.04.83-4.58 1.2-.4.1-.91 0-1.21.22-6.52 4.57-14.35 3.89-21.63 5.44-.51.11-1.08.15-1.52.4-5.39 3.11-11.46 2.58-17.31 3.31-3.64.45-7.25 1.81-10.85 1.75-5.23-.09-8.44 3.83-12.79 5.28-4.28 1.43-8.81 2.06-13.17 3.27-1.51.42-2.88 1.47-4.23 2.35-.78.51-1.28 1.55-2.09 1.87-5.99 2.39-10.04 7.17-13.72 11.99-5.1 6.68-9.32 14.01-14.17 20.89-1.39 1.96-2.06 3.79-2.1 6.13-.01.81-1.14 1.6-2.09 2.19-.52-5.84 1.32-11.04 4.29-15.56 5.46-8.31 11.21-16.47 17.35-24.28 5.14-6.54 12.14-10.79 20.12-13.28 4.94-1.54 9.84-2.86 15.16-3.06 3.88-.15 7.67-2.23 11.55-3.25 1.65-.43 3.44-.37 5.17-.51.3-.02.78.2.89.07 2.54-2.85 6.41-1.08 9.35-2.76 3.19-1.83 6.73-2.2 10.45-1.51 1.18.22 2.57-.79 3.89-1.18 2.79-.83 5.57-1.68 8.39-2.41 4.35-1.13 8.98-1.57 13.03-3.36 7.71-3.41 14.4-8.53 19.83-15.06 4.34-5.22 6.47-11.37 6.67-18.15.21-7.1.79-14.22.4-21.28-.43-7.86 2.95-14.09 6.95-20.31z"/><path d="m174.09 84.33c3.94 2.43 7.87 4.87 12.14 7.51-1.54.97-2.28 1.44-3.39 2.14.94.55 1.52.97 2.16 1.24 3.64 1.55 5.07 3.39 4.86 7.26-.37 6.94-2.5 12.98-8.75 17.05-8.71 5.66-17.83 7.73-27.69 3.56-2.77-1.17-6.33-1.08-7.89-4.62-2.45-5.56-5.04-11.04-3.26-17.36 2.04-7.26 5-13.88 11.8-18.11 7.41-4.6 7.41-13.06 10.02-20.12.35-.94-.39-2.25-.51-3.4-.32-3.1-.15-6.33-.98-9.28-1.06-3.78-2.9-7.35-4.46-10.99-.24-.56-.78-.99-1.22-1.53 9.89 4.44 16.2 17.15 13.62 27.35-.49 1.95-1.18 3.88-1.43 5.86-.41 3.35-.53 6.74-.81 10.56.57-.09.21.05-.14.01-5.06-.58-9.01 1.38-11.57 5.64-2.33 3.9-4.3 8.01-6.31 12.09-2.46 5.01-.86 9.93 1.61 14.14 4.14 7.05 8.8 8.57 16.92 6.76 1.96-.44 3.89-1.16 5.87-1.36 5.99-.6 8.15-4.78 9.06-9.82 1.27-7.01-.84-13.16-5.61-18.43-1.62-1.79-3.11-3.71-4.65-5.57.22-.18.42-.38.61-.58z"/><path d="m223.16 38.55c4.9 2.91 8.72 6.36 7.82 12.6-.15 1.01.38 2.1.33 3.14-.14 2.8-.25 5.63-.7 8.39-.56 3.41-1.38 6.78-2.26 10.12-.21.79-1 1.8-1.72 2.01-4.28 1.22-7.16 3.97-9.09 7.84-1.89 3.78-3.93 7.51-5.54 11.41-.63 1.53-.56 3.5-.32 5.2.49 3.44 1.23 6.84 2.06 10.21.17.68 1.12 1.52 1.84 1.66 3.31.66 6.66 1.17 10.01 1.61 7.43.96 13.31-1.92 17.57-7.84 3.17-4.41 2.67-14.48-1.01-19.04-1.95-2.41-4.8-4.08-7.24-6.09.06-.3.13-.61.19-.91 2.05.51 4.1 1 6.13 1.55.38.1.69.48 1.05.71 7.96 5.06 8.69 6.8 6.78 16.2-.06.31-.18.62-.18.94.14 10.06-7.67 13.51-14.76 17.26-2.91 1.54-6.64 1.25-9.94 1.71-3.85.54-8.09-.25-11.88-1.4-1.79-.54-3.65-3.06-4.22-5.04-2.4-8.33-2.08-16.74.8-24.96.38-1.1 1.38-2.1 2.33-2.85 7.5-5.97 12.58-13.62 14.21-22.99.82-4.74-.07-9.83-.5-14.73-.21-2.29-1.15-4.49-1.76-6.71z"/><path d="m227.97 156.1c1.65 2.17 3.9 4.28 1.02 6.96 2.85 1.44 2.95 3.69 2.38 6.28-2.25 10.28-2.27 10.35 6.88 15.55 5.82 3.3 11.03 7.09 13.53 13.66 1.82 4.77 2.08 9.42-.3 14.1-1.19 2.35-2.34 4.76-3.16 7.26-1.82 5.56-6.07 7.93-11.35 8.81-3.01.5-6.13.73-9.16.56-2.82-.16-5.79-.56-8.35-1.64-7.5-3.16-8.34-10.28-8.63-17.01-.42-9.68 1.31-18.99 8.06-26.64.63-.71 1.05-1.6 1.64-2.34 4.94-6.19 7.37-13.23 7.24-21.16-.04-1.47.12-2.93.2-4.39zm13.83 68.82c.63-1.43.85-2.75 1.62-3.53 4.19-4.24 4.79-9.39 4.39-14.98-.69-9.63-6.27-16.17-13.5-21.63-3.23-2.44-7.58-1.89-10.23 1.28-4.21 5.03-8.24 10.21-8.76 17.19-.09 1.27-.84 2.5-1.04 3.07.78 2.85 1.65 5.21 2.05 7.64 1.08 6.57 4.77 10.23 11.21 11.17 1.42.21 2.72 1.28 4.27 2.06 7.11-2.82 7.11-2.82 9.99-2.27z"/><path d="m167.99 166.68c1.89 2.89 4.42 5.39 4.05 9.44-.3 3.26-.24 6.56-.23 9.84.01 2.19.99 3.75 3.13 4.67 2.13.92 4.12 2.17 6.2 3.21 4.4 2.18 7.91 5.04 8.38 10.39.03.35.41.77.74.99 4.93 3.37 4.37 8.79 4.43 13.55.07 5.02-2.43 9.84-6.65 12.4-6.04 3.67-12.3 7.58-19.83 7.44-1.61-.03-3.27-.98-4.79-1.72-3.33-1.63-6.96-2.93-9.77-5.22-4.04-3.28-3.79-8.3-3.36-12.99.67-7.2 2.67-13.85 7.9-19.29 2.32-2.42 4.25-5.27 6.02-8.14 3.14-5.08 3.69-10.67 2.89-16.54-.35-2.59-.06-5.28-.06-7.92.32-.02.64-.07.95-.11zm24.53 49.21c-.53-1.56-.94-3.32-1.7-4.91-1.23-2.58-3.31-4.9-3.93-7.58-1.31-5.66-5.58-7.88-10.08-10.11-5.28-2.62-7.72-1.95-10.91 3.13-.73 1.15-1.13 2.51-1.78 3.72-.94 1.77-1.69 3.75-3.02 5.18-3.81 4.08-4.44 9.23-5.14 14.31-.65 4.72 3.35 7.26 5.5 10.67 1.32 2.08 3.16 2.59 5.46 3.13 5.05 1.18 9.34 0 13.49-2.74 1.49-.99 3.14-1.76 4.75-2.57 4.94-2.5 6.13-7.17 7.36-12.23z"/></g><path d="m6.44 374.46.42-.45c.65.47 1.27.95 1.85 1.44l-.45.49c-.65-.56-1.25-1.06-1.82-1.48m.93 7.33-.63-.26c.55-1.36 1.05-2.8 1.52-4.33.19.1.38.19.59.27-.46 1.29-.95 2.73-1.48 4.32m-.38-10.38.44-.42c.43.34 1.01.82 1.74 1.44l-.49.49c-.53-.51-1.09-1.01-1.69-1.51m2.5.35h1.72v-1.04h.59v1.04h3.52v-1.04h.59v1.04h1.75v.53h-1.75v1.42h-2.03v.97h3.22v2.03h-3.24c0 .35-.01.66-.03.93h3.32v.53h-3.37c-.03.27-.08.58-.15.94h3.96v.53h-3.71c.67.92 1.93 1.48 3.79 1.68-.13.24-.23.44-.29.59-2.13-.38-3.48-1.08-4.04-2.12-.43.97-1.77 1.72-4.03 2.23-.09-.19-.2-.37-.33-.55 2.1-.42 3.37-1.03 3.81-1.83h-3.36v-.53h3.58c.08-.29.13-.61.16-.94h-3.33v-.53h3.39c.02-.27.04-.58.04-.93h-3.23v-2.03h3.25v-.97h-2.07v-1.42h-1.73zm1.12 3.44v1h2.65c.01-.3.02-.44.01-.4v-.25-.35zm1.19-2h3.52v-.91h-3.52zm4.71 2h-2.63v.59c0 .15-.01.28-.01.4h2.64z" fill="#fbfafc"/><path d="m13.56 383.74h.63v1.52h2.72v6.07h1.13v.6h-11.06v-.6h1.13v-6.07h2.73v-1.52h.63v1.52h2.1v-1.52zm-2.69 8.83.38.56c-1.24.63-2.53 1.25-3.85 1.85-.1-.21-.21-.42-.34-.63 1.36-.55 2.63-1.15 3.81-1.78m-2.13-4.27h2.1v-2.45h-2.1zm0 3.04h2.1v-2.46h-2.1zm2.72-3.04h2.1v-2.45h-2.1zm0 3.04h2.1v-2.46h-2.1zm6.07 3.6c-1.41-.71-2.7-1.3-3.86-1.78l.35-.56c1.45.62 2.75 1.19 3.88 1.72zm-1.25-9.09h-2.1v2.45h2.1zm-2.09 5.49h2.1v-2.46h-2.1z" fill="#fbfafc"/></svg>