<svg enable-background="new 0 0 400 400" viewBox="0 0 400 400" xmlns="http://www.w3.org/2000/svg"><path d="m140.91 360.68c-2.16 2.37-5.2 2.27-8.51 2.11-14.49-.71-28.99-1.24-43.49-1.68-4.59-.14-6.26-1.48-6.17-6 .47-25.02.99-50.04 1.41-75.05.09-5.51-.38-11.03-.21-16.54.55-18.06 1.28-36.12 1.92-54.19.05-1.48.14-2.99-.09-4.45-.79-5.02-.25-9.91 1.03-14.78.21-.79.51-1.88.16-2.45-2.7-4.35-1.43-9.08-1.45-13.66-.02-4.77.22-9.54.42-14.31.05-1.14.23-2.32.6-3.4.94-2.78 2.22-5.35-.45-8.12-.82-.85-.67-3.08-.31-4.51 1.28-5.02 1.95-9.96 0-14.97-.26-.68-.04-1.59.08-2.37.42-2.77 1.75-5.72 1.19-8.25-2.84-12.76-1.04-25.57-.88-38.35.15-11.55.68-23.1.98-34.65.18-7.1.15-7.24 7.16-7.23 8.45.01 16.92.55 25.36.31 13.3-.37 26.58-1.23 39.87-1.78 5.25-.22 10.52-.17 15.78-.22.95-.01 1.91.19 2.85.15 28.51-1.31 56.96.6 85.43 1.58 5.81.2 11.61 1.04 17.42 1.1 5.7.06 11.41-.58 17.12-.72 3.26-.08 6.54.1 9.79.42 2.36.23 3.53 1.49 3.53 4.22-.01 9.54.28 19.08.45 28.62.01.42.2 1.01 0 1.25-3.03 3.57-.19 7.49-.68 11.22-.51 3.87-.58 7.83-.59 11.74-.04 30.54-.11 61.09.03 91.63.04 8.36.89 16.71 1.07 25.07.23 10.69.19 21.39.2 32.09.01 26.29-.01 52.58-.02 78.87 0 .21.09.46.01.63-3.29 6.63.51 13.24.1 19.89-.24 3.81.04 7.62-1.92 11.12-.32.57-.55 1.66-.24 2.04 1.1 1.37 1.94 2.82.53 4.21-1.66 1.63-3.48 3.34-5.57 4.22-1.74.74-3.96.4-5.97.43-5.82.08-11.64.25-17.45.13-5.59-.11-11.17-.63-16.77-.8-7.71-.24-15.44-.49-23.15-.43-12.08.09-24.21 1.23-36.22.4-7.78-.54-15.51-1.52-23.37-1.49-11.53.05-23.06-.39-34.59-.85-1.99-.07-3.91-1.31-6.39-2.2zm45.72-200.69c-4.19 3.06-7.91 5.8-11.65 8.51-.91.66-1.88 1.61-2.88 1.69-3.37.29-6.83.68-10.14.21-2.57-.37-5.25-1.57-7.36-3.11-3.02-2.2-5.89-1.94-8.08 1.22-.61.88-2.02 1.63-3.09 1.67-1.75.07-3.53-.44-5.28-.79-3.23-.65-5.65.83-6.33 4.05-.3 1.45-.54 2.93-.59 4.4-.14 4.62 1.72 6.48 6.3 6.11 5.61-.45 10.97.16 16.07 2.72 1.01.51 2.23.74 3.37.82 7.83.58 15.64 1.1 23.1-2.34 1.48-.68 3.32-.73 5-.8 3.36-.15 5.51 1.82 4.79 5.02-.52 2.27-1.92 4.7-3.65 6.26-2.63 2.38-5.83 4.19-8.91 6.03-2.01 1.2-4.16 2.36-6.4 2.94-2.43.63-4.35 1.37-5.94 3.58-1.32 1.83-3.5 3.11-5.46 4.4-3.68 2.42-7.47 4.67-11.15 6.96 2.09 4.23 5.5 5.87 9.52 5.18 3.64-.62 7.31-1.46 10.96-1.41 2.17.03 3.54-.41 4.92-1.92 4.97-5.39 10.14-10.52 17.37-12.96 1.43-.48 2.83-1.61 3.78-2.81 2.09-2.64 4.77-1.66 6.91-.88.77.28.91 3.41.62 5.13-.28 1.69-1.16 3.49-2.3 4.79-3.57 4.04-7.41 7.84-11.09 11.78-2.36 2.53-4.97 4.52-8.43 5.35-1.05.25-2.15 1-2.86 1.84-2.88 3.38-6.88 4.2-10.85 5.43-3.25 1-6.37 2.71-9.22 4.6-2.15 1.42-1.51 4.72.92 5.23 3.96.84 7.92 2.17 12.09.3 2.27-1.02 4.97-2.04 7.31-1.76 7.95.97 12.92-5.69 19.83-7.2.3-.07.54-.58.75-.93 2.23-3.71 4.44-7.43 6.7-11.12.55-.89 1.11-1.92 1.94-2.46 3.13-2.06 9.6-.99 11.42 1.75 2.18 3.28.95 8.83-2.54 11.29-1.3.91-2.67 1.73-4 2.59-4.76 3.07-9.28 6.34-11.21 12.07-.22.66-1.06 1.46-1.73 1.58-5.11.93-8.86 4.36-13.14 6.84-2.14 1.24-4.61 1.89-6.94 2.8-1.81.71-4.02 1-5.36 2.23-2.36 2.16-5.02 2.95-8 3.38-2.92.43-5.85.92-8.68 1.71-.92.26-2.2 1.61-2.14 2.38.06.83 1.41 2.12 2.33 2.25 7.53 1.07 15.07 2.11 22.64 2.73 3.84.31 7.19-1.3 9.66-4.57.73-.97 2.11-1.56 3.29-2.07 1.96-.85 4.2-1.2 5.99-2.29 3.52-2.15 6.75-4.78 10.23-7 5.14-3.27 10.1-6.61 11.46-13.15.02-.08.16-.13.92-.74.74 1.02 2.13 2.06 2.07 3-.17 2.65-.77 5.32-1.51 7.88-1.1 3.82-2.71 7.49-3.65 11.34-.88 3.64-2.02 6.84-5.51 8.82-1.53.87-3.51 1.97-4.02 3.42-1.67 4.79-5.33 6.84-9.7 8.15-1.99.6-2.76 1.9-3.17 3.85-.38 1.81-.77 4.09-2.01 5.15-4.03 3.44-8.47 6.42-12.92 9.71-3.19-2.54-11.13-1.48-10.59 4.27.54 5.76-2.72 7.79-6.85 9.75-1.24.59-2.52 1.21-3.56 2.08-.81.68-1.89 1.87-1.76 2.66.54 3.4.32 6.45-2.24 9.03-.24.24-.14.82-.18 1.24-.44 4.25 1.66 7.92 5.01 8.77 7.02 1.76 11.4.33 13.41-4.35 1.84-4.27 3.69-8.53 5.61-12.76 1.47-3.25 3.8-5.46 7.5-6.06 3.24-.52 5.49-2.39 6.78-5.46 2.06-4.9 5.84-7.95 10.44-10.55 3.59-2.03 6.65-5.09 9.69-7.97 2.45-2.32 4.52-5.06 6.78-7.59.56-.62 1.16-1.26 1.86-1.7 3.27-2.06 6.7-3.9 9.86-6.12 4.69-3.3 4.84-4.5 3.48-10.23-.6-2.51-1.41-5.6-.5-7.73 3.86-9 2.17-18.52 3.38-27.74 1.12-8.5-4.04-15.67-5.12-23.71-.07-.54-.75-.99-1.13-1.5-3.51-4.76-7.27-9.37-10.44-14.35-1.96-3.08-4-5.16-7.83-5.32-4.69-.2-8.36-2.4-11.65-7.13 3.71-1 6.93-2.11 10.24-2.7 4.78-.85 9.85-.66 14.39-2.13 4.79-1.55 9.52-2.67 14.51-2.92 3.6-.18 7.19-.63 10.79-.62 6.2.01 12.55-.88 18.35 2.34 3.27-2.19 6.53-4.37 9.79-6.57.03-.02-.05-.2-.06-.3-.12-2.77-1.16-5.08-4-5.8-3.25-.82-6.6-1.69-9.92-1.75-6.14-.11-12.28.3-18.42.6-3.22.16-5.88-.76-8.44-2.81-5.82-4.66-12.18-5.27-18.83-1.69-.44.24-1.02.53-1.46.44-4.26-.86-8.51-1.79-13.55-2.87 3.19-2.14 5.49-4.12 8.13-5.35 3.38-1.57 7.02-3.48 10.61-.07.41.39 1.41.28 2.12.22 4.1-.33 7.21-2.21 9.18-5.89 2.29-4.29 4.28-8.78 7-12.78 2.41-3.54 4.02-7.13 4.07-11.39.04-3.97.44-8.01-.15-11.9-.35-2.34-.71-4.23.95-6.07 1.69-1.87 1.61-4.05.26-5.85-1.76-2.34-1.44-4.4.25-6.31 2.57-2.89 2.23-6.02.45-8.8-2.43-3.78-5.42-7.2-8.17-10.78-3.13 2.7-5 2.52-7.12-.44-.86-1.2-1.65-2.47-2.31-3.8-2.28-4.57-7.91-7.27-13.33-5.58-6.3 1.97-12.75 4.32-19.58 2.74-2.9-.67-5.18 0-7.16 2.08-1.65 1.74-3.68 2.45-6.03 2.05-3.19-.53-4.97.66-6.16 3.78-2.21 5.82-4.6 11.6-11.21 14.17-1.08.42-2 2.57-2.07 3.97-.26 4.86-.08 9.73-3.62 13.72-.35.39-.21 1.23-.28 1.86-.77 7.12 1.45 13.57 4.29 19.93 1.36 3.04 1.58 7.22 3.82 9.07 2.41 1.99 6.55 2.03 9.99 2.58 2.14.35 3.34 1.35 4.32 3.19 3.19 6.02 5.85 12.55 13.19 14.92.07.02.09.17.22.43-1.42 1.6-2.83 3.32-4.39 4.89-1.82 1.83-3.9 1.17-4.72-1.27-.52-1.45-1.29-2.8-2.26-4.9z" fill="#010000"/><path d="m233.16 105.16c.15 2.33.12 4.99.51 7.58.98 6.4.3 12.68-1.17 18.91-.2.85-1.06 2.21-1.62 2.21-4.47.01-7.31 3-10.55 5.32-.72.52-1.85.7-2.78.65-2.39-.14-4.76-.53-7.14-.77-4.38-.42-8.8-.59-13.12-1.32-1.43-.24-3.02-1.6-3.88-2.89-2.37-3.54-4.48-7.16-8.96-8.52-.65-.2-1.19-1.56-1.33-2.46-.34-2.07.18-4.49-.7-6.24-3.76-7.52-.71-14.42 1.48-21.4.33-1.06 1.6-1.85 2.46-2.73 6.24-6.32 13.66-9.74 22.69-9.23.42.02.89.02 1.26-.15 6.59-3.2 10.74.5 14.59 5.12 1.84 2.2 3.56 4.52 5.62 6.49 2.72 2.58 3.86 5.46 2.64 9.43zm-23.65-4.83c-5.04 1.51-10.3 2.99-15.47 4.74-.71.24-1.38 1.79-1.39 2.74-.05 3.35 2.42 5.18 7.1 6.44 4.87 1.31 9.59 3.14 14.41 4.64 1.79.56 3.68 1.14 5.52 1.13 3.76-.01 7.63-3.56 8.25-7.15.72-4.13-.79-7.07-5.14-8.66-4.15-1.52-8.49-2.5-13.28-3.88z" fill="#010000"/><g fill="#fbfafc"><path d="m6.44 374.46.42-.45c.65.47 1.27.95 1.85 1.44l-.45.49c-.65-.56-1.25-1.06-1.82-1.48m.93 7.33-.63-.26c.55-1.36 1.05-2.8 1.52-4.33.19.1.38.19.59.27-.46 1.29-.95 2.73-1.48 4.32m-.38-10.38.44-.42c.43.34 1.01.82 1.74 1.44l-.49.49c-.53-.51-1.09-1.01-1.69-1.51m2.5.35h1.72v-1.04h.59v1.04h3.52v-1.04h.59v1.04h1.75v.53h-1.75v1.42h-2.03v.97h3.22v2.03h-3.24c0 .35-.01.66-.03.93h3.32v.53h-3.37c-.03.27-.08.58-.15.94h3.96v.53h-3.71c.67.92 1.93 1.48 3.79 1.68-.13.24-.23.44-.29.59-2.13-.38-3.48-1.08-4.04-2.12-.43.97-1.77 1.72-4.03 2.23-.09-.19-.2-.37-.33-.55 2.1-.42 3.37-1.03 3.81-1.83h-3.36v-.53h3.58c.08-.29.13-.61.16-.94h-3.33v-.53h3.39c.02-.27.04-.58.04-.93h-3.23v-2.03h3.25v-.97h-2.07v-1.42h-1.73zm1.12 3.44v1h2.65c.01-.3.02-.44.01-.4v-.25-.35zm1.19-2h3.52v-.91h-3.52zm4.71 2h-2.63v.59c0 .15-.01.28-.01.4h2.64z"/><path d="m13.56 383.74h.63v1.52h2.72v6.07h1.13v.6h-11.06v-.6h1.13v-6.07h2.73v-1.52h.63v1.52h2.1v-1.52zm-2.69 8.83.38.56c-1.24.63-2.53 1.25-3.85 1.85-.1-.21-.21-.42-.34-.63 1.36-.55 2.63-1.15 3.81-1.78m-2.13-4.27h2.1v-2.45h-2.1zm0 3.04h2.1v-2.46h-2.1zm2.72-3.04h2.1v-2.45h-2.1zm0 3.04h2.1v-2.46h-2.1zm6.07 3.6c-1.41-.71-2.7-1.3-3.86-1.78l.35-.56c1.45.62 2.75 1.19 3.88 1.72zm-1.25-9.09h-2.1v2.45h2.1zm-2.09 5.49h2.1v-2.46h-2.1z"/></g></svg>