<svg enable-background="new 0 0 400 400" viewBox="0 0 400 400" xmlns="http://www.w3.org/2000/svg"><path d="m141.41 86.26c.89 2.08 2.17 3.99 2.51 6.06 1.55 9.62 3.55 19.25 3.98 28.94.28 6.37 2.65 11.88 4.22 17.71 1.96 7.26 6.18 13.21 12.16 17.8 11.64 8.92 24.82 14.5 39.12 17.37 5.17 1.04 6.65.4 8.19-4.55 2.27-7.33 4.43-14.9 4.97-22.48.31-4.35-2.63-8.95-4.22-13.4-.42-1.17-1.65-2.14-1.82-3.3-.84-5.86-4.84-9.25-9.37-12.11-10-6.33-16.57-15.28-20.5-26.28-.73-2.04-.92-4.29-1.21-6.47-.17-1.25.36-2.71-.1-3.79-3.19-7.46 1.32-13.41 3.63-19.82 1.89-5.25 5.11-9.03 10.5-10.98 2.57-.93 5.19-2.13 7.3-3.82 9.92-7.94 22.03-9.57 33.86-11.37 6.01-.91 12.39.5 18.59.96.85.06 1.65.67 3.17 1.34-7.05 2.48-13.37 4.76-19.73 6.94-3.84 1.31-7.71 2.1-11.82 2.67-13.12 1.83-23.52 8.77-30.32 20.31-1.29 2.19-.6 5.45-1.36 8.06-2.76 9.44-.34 17.97 4.21 26.17.65 1.18 1.59 2.23 2.55 3.19 6.97 6.98 13.97 13.91 20.97 20.86 8.3 8.24 10.09 18.61 9.22 29.62-.39 4.92-1.7 9.8-2.91 14.62-.52 2.06-1.63 4.07-2.85 5.84-2.59 3.77-2.38 9.12.75 12.56 4.13 4.56 8.39 9.01 12.33 13.72 4.64 5.56 7.19 12.28 8.79 19.18 2.46 10.61 3.82 21.5 6.54 32.03 3.56 13.79 5.46 27.75 7.36 41.83 1.55 11.46 2.6 22.91 3.33 34.41.59 9.28.86 18.58 1.09 27.88.06 2.57-.57 5.17-.88 7.75-.43.1-.86.2-1.3.3-.69-1.81-2.06-3.66-1.96-5.43.55-9.65-2.72-18.54-4.75-27.72-1.22-5.5-.99-11.33-1.34-17.02-.87-14.09-5.54-27.35-8.84-40.91-.15-.62-.59-1.3-.44-1.83 1.79-6.29-1.91-11.7-2.77-17.56-1.35-9.15-3.38-18.03-8.35-26.12-1.61-2.63-1.43-6.33-2.27-9.48-.7-2.6-1.62-5.16-2.61-7.67-.96-2.42-2.61-4.66-3.12-7.15-1.12-5.49-4.23-9.77-8.92-11.91-4.91-2.24-9.73.65-13.25 4.01-6.68 6.35-12.84 13.24-19.17 19.95-.63.67-.94 1.63-1.37 2.48-2.5 4.89-5.01 9.78-7.48 14.68-.38.75-.65 1.55-.91 2.35-1.93 5.92-3.85 11.85-5.75 17.78-.22.7-.53 1.45-.46 2.14 1.15 10.98-2.71 21.1-5.35 31.42-.37 1.43-1.07 2.93-.91 4.32.72 6.2-1.76 11.58-3.79 17.14-2.75 7.54-5.19 15.19-7.8 22.79-.34.99-.89 1.92-1.41 2.84-4.57 8.12-9.16 16.23-13.75 24.34-.31.55-.56 1.31-1.04 1.56-1.06.54-2.25.81-3.38 1.19.23-1.06.34-2.18.73-3.18.68-1.75 1.86-3.37 2.26-5.17.84-3.81 2.3-7.11 5-10.06 4.92-5.38 6.28-12.38 7.7-19.23 2.15-10.37 4.14-20.77 6.2-31.15.1-.52.42-1.09.3-1.54-1.34-5.23.6-10.15 1.45-15.16.52-3.06 1.44-6.05 2.17-9.07.12-.51.26-1.02.27-1.54.22-6.15-.48-12.5.87-18.38 1.32-5.73 4.62-11.03 7.26-16.41 2.61-5.3 5.48-10.47 8.26-15.68.55-1.03 1.37-1.93 1.76-3.01 1.63-4.51 4.12-8.29 8.34-10.79.44-.26.93-.65 1.13-1.09 2.11-4.69 5.66-8.07 9.69-11.11 1.58-1.19.39-6.62-1.68-7.74-6.06-3.27-12.14-6.49-18.31-9.55-1.25-.62-2.91-.76-4.35-.64-3.42.3-6.17-.98-8.69-3.08-10.38-8.64-18.09-19.12-21.06-32.44-1.33-5.96-1.51-12.18-2.13-18.29-.75-7.45-1.78-14.9-1.97-22.37-.16-5.36 1.21-7.07 5.04-9.26z" fill="#010000"/><g fill="#fbfafc"><path d="m6.44 374.46.42-.45c.65.47 1.27.95 1.85 1.44l-.45.49c-.65-.56-1.25-1.06-1.82-1.48m.93 7.33-.63-.26c.55-1.36 1.05-2.8 1.52-4.33.19.1.38.19.59.27-.46 1.29-.95 2.73-1.48 4.32m-.38-10.38.44-.42c.43.34 1.01.82 1.74 1.44l-.49.49c-.53-.51-1.09-1.01-1.69-1.51m2.5.35h1.72v-1.04h.59v1.04h3.52v-1.04h.59v1.04h1.75v.53h-1.75v1.42h-2.03v.97h3.22v2.03h-3.24c0 .35-.01.66-.03.93h3.32v.53h-3.37c-.03.27-.08.58-.15.94h3.96v.53h-3.71c.67.92 1.93 1.48 3.79 1.68-.13.24-.23.44-.29.59-2.13-.38-3.48-1.08-4.04-2.12-.43.97-1.77 1.72-4.03 2.23-.09-.19-.2-.37-.33-.55 2.1-.42 3.37-1.03 3.81-1.83h-3.36v-.53h3.58c.08-.29.13-.61.16-.94h-3.33v-.53h3.39c.02-.27.04-.58.04-.93h-3.23v-2.03h3.25v-.97h-2.07v-1.42h-1.73zm1.12 3.44v1h2.65c.01-.3.02-.44.01-.4v-.25-.35zm1.19-2h3.52v-.91h-3.52zm4.71 2h-2.63v.59c0 .15-.01.28-.01.4h2.64z"/><path d="m13.56 383.74h.63v1.52h2.72v6.07h1.13v.6h-11.06v-.6h1.13v-6.07h2.73v-1.52h.63v1.52h2.1v-1.52zm-2.69 8.83.38.56c-1.24.63-2.53 1.25-3.85 1.85-.1-.21-.21-.42-.34-.63 1.36-.55 2.63-1.15 3.81-1.78m-2.13-4.27h2.1v-2.45h-2.1zm0 3.04h2.1v-2.46h-2.1zm2.72-3.04h2.1v-2.45h-2.1zm0 3.04h2.1v-2.46h-2.1zm6.07 3.6c-1.41-.71-2.7-1.3-3.86-1.78l.35-.56c1.45.62 2.75 1.19 3.88 1.72zm-1.25-9.09h-2.1v2.45h2.1zm-2.09 5.49h2.1v-2.46h-2.1z"/></g></svg>