<svg enable-background="new 0 0 400 400" viewBox="0 0 400 400" xmlns="http://www.w3.org/2000/svg"><g fill="#010000"><path d="m208.96 364.62c-4.14-7.56-5.71-15.65-5.95-23.96-.36-12.29.02-24.61-.7-36.88-.86-14.7-2.74-29.34-3.81-44.03-1.07-14.59-1.89-29.2-2.42-43.82-.38-10.37-.04-20.76-.14-31.14-.04-3.91-.2-7.84-.67-11.71-.49-4-2.07-5.16-6.15-5.31-.53-.02-1.06-.01-1.59.04-5.17.47-10.12 1.95-15.59.12-3.8-1.27-8.4.07-12.6-.3-4.7-.41-9.35-1.42-14.02-2.16 0-.4.01-.8.01-1.2 2.44-.35 4.87-.82 7.32-1.01 6.12-.49 12.25-1.02 18.38-1.23 4.51-.15 9.06-.06 13.56.35 5.15.46 8.12-1.89 8.12-7.01.05-33.09.12-66.17.12-99.26 0-3.49-.5-6.98-.6-10.47-.11-3.81.94-7.29 3.41-10.4 3.18 2.16 3.87 5.38 4.15 8.66.33 3.9.11 7.86.54 11.75 1.29 11.89 2.94 23.74 4.11 35.64.42 4.26.46 8.73-.37 12.89-1.63 8.08-.66 15.94.22 23.96.72 6.57.3 13.27.35 19.91.01 1.48-.28 2.98-.12 4.43.79 7.26 3.28 9.2 10.58 9.03 8.58-.2 17.14.1 25.54 2.29 2.51.65 5.21.6 7.82.85 2.37.22 4.74.41 7.12.61.06.43.11.86.17 1.29-2.4.6-4.93 2.03-7.16 1.64-8.8-1.52-17.54-.22-26.3-.1-2.54.03-5.08.03-7.61-.13-4.85-.31-6.67.96-7.99 5.69-1.86 6.62-.75 13.27-.33 19.92.42 6.61 2.22 13.19.02 19.85-.46 1.4.17 3.14.23 4.73.91 22.7 2.34 45.39 2.55 68.1.17 18.64-1.32 37.29-1.67 55.94-.13 6.96.89 13.94 1.38 20.92.03.5.06 1.01.09 1.51z"/><path d="m153.22 133.25c-2.35-1.41-4.95-2.54-7.01-4.3-3.38-2.88-6.51-6.07-9.57-9.3-1.69-1.78-3.88-3.18-5.78-1.98-1.55.98-2.48 3.49-2.93 5.5-.49 2.22-.13 4.64-.12 6.97.04 8.16 0 16.32.2 24.48.08 3.15.77 6.28 1.06 9.43.21 2.28.24 4.59.32 6.88.01.41-.22.86-.14 1.24 2.66 11.56 2.54 23.37 3.1 35.11.29 6.18 2.99 8.7 8.93 6.95 3.07-.91 5.9-2.74 8.7-4.4 3.64-2.16 7.13-4.58 10.69-6.87.17-.11.39-.14.73-.25 1.54 2.82.02 5.21-1.84 6.65-6.02 4.66-12.28 9.03-18.6 13.27-1.69 1.13-3.9 1.62-5.95 2.04-2.65.54-5.81-1.37-6.88-3.86-1.17-2.72-2.14-5.54-3.47-8.18-2.15-4.26-2.83-8.58-2.6-13.41.19-3.89-1.4-7.85-2.02-11.81-.49-3.11-.89-6.26-.99-9.4-.28-9.51-.45-19.03-.53-28.55-.03-4 .15-8.02.46-12.02.55-7.17 1.25-14.33 1.93-21.49.81-8.62 2.03-9.36 9.58-5.5 8.08 4.14 15.58 9.07 20.75 16.81 1.05 1.57 1.83 3.31 2.74 4.98-.26.34-.51.68-.76 1.01z"/><path d="m266.93 118.08c-4.85-2.15-8.06-1.12-11.43 2.34-4.4 4.53-9.6 8.3-14.52 12.31-1.08.88-2.46 1.4-3.75 2.11 7.79-11.44 19.05-18.93 28.97-27.83 1.5-1.35 2.88-1.22 3.65.26 1.48 2.86 3.41 5.86 3.65 8.92 1 12.77 1.63 25.57 2.04 38.37.5 15.46 1.08 30.94.75 46.4-.14 6.42-2.62 12.77-3.87 19.19-.47 2.44-1.68 4.05-3.94 4.83-1.03.36-2.24.63-3.29.45-8.75-1.49-17.48-3.09-26.21-4.66-.82-.15-1.64-.32-2.45-.53-.14-.04-.21-.33-.36-.58 6.26-.73 12.5-1.36 18.7-2.21 7.84-1.07 11.52-5.29 11.62-13.24.03-2.11-.16-4.25-.52-6.33-1.71-9.96-.14-19.84.37-29.77.34-6.65.03-13.34.12-20.01.09-7.19.32-14.37.46-21.55.06-2.94.01-5.87.01-8.47z"/></g><path d="m6.44 374.46.42-.45c.65.47 1.27.95 1.85 1.44l-.45.49c-.65-.56-1.25-1.06-1.82-1.48m.93 7.33-.63-.26c.55-1.36 1.05-2.8 1.52-4.33.19.1.38.19.59.27-.46 1.29-.95 2.73-1.48 4.32m-.38-10.38.44-.42c.43.34 1.01.82 1.74 1.44l-.49.49c-.53-.51-1.09-1.01-1.69-1.51m2.5.35h1.72v-1.04h.59v1.04h3.52v-1.04h.59v1.04h1.75v.53h-1.75v1.42h-2.03v.97h3.22v2.03h-3.24c0 .35-.01.66-.03.93h3.32v.53h-3.37c-.03.27-.08.58-.15.94h3.96v.53h-3.71c.67.92 1.93 1.48 3.79 1.68-.13.24-.23.44-.29.59-2.13-.38-3.48-1.08-4.04-2.12-.43.97-1.77 1.72-4.03 2.23-.09-.19-.2-.37-.33-.55 2.1-.42 3.37-1.03 3.81-1.83h-3.36v-.53h3.58c.08-.29.13-.61.16-.94h-3.33v-.53h3.39c.02-.27.04-.58.04-.93h-3.23v-2.03h3.25v-.97h-2.07v-1.42h-1.73zm1.12 3.44v1h2.65c.01-.3.02-.44.01-.4v-.25-.35zm1.19-2h3.52v-.91h-3.52zm4.71 2h-2.63v.59c0 .15-.01.28-.01.4h2.64z" fill="#fbfafc"/><path d="m13.56 383.74h.63v1.52h2.72v6.07h1.13v.6h-11.06v-.6h1.13v-6.07h2.73v-1.52h.63v1.52h2.1v-1.52zm-2.69 8.83.38.56c-1.24.63-2.53 1.25-3.85 1.85-.1-.21-.21-.42-.34-.63 1.36-.55 2.63-1.15 3.81-1.78m-2.13-4.27h2.1v-2.45h-2.1zm0 3.04h2.1v-2.46h-2.1zm2.72-3.04h2.1v-2.45h-2.1zm0 3.04h2.1v-2.46h-2.1zm6.07 3.6c-1.41-.71-2.7-1.3-3.86-1.78l.35-.56c1.45.62 2.75 1.19 3.88 1.72zm-1.25-9.09h-2.1v2.45h2.1zm-2.09 5.49h2.1v-2.46h-2.1z" fill="#fbfafc"/></svg>