<svg enable-background="new 0 0 400 400" viewBox="0 0 400 400" xmlns="http://www.w3.org/2000/svg"><g fill="#010000"><path d="m112.71 107.86c-2.37 1.06-5.35 2.19-8.14 3.66-5.25 2.77-6.51 7.84-3.83 12.98.79 1.51 1.05 3.75.59 5.38-1.73 6.11-.63 9.61 5.56 14.07 6.49 4.68 13.76 5.7 21.48 3.71 4.2-1.08 8.4-2.2 12.63-3.17 5.34-1.22 8.88.24 10.51 4.05.8 1.87.63 2.99-1.41 4-8.32 4.12-17.14 5.23-26.27 4.73-2.54-.14-5.08-.36-7.62-.35-8.46.05-12.85 4.9-11.67 13.23.72 5.02 1.97 9.96 3.08 14.92.17.74.74 1.57 1.37 2.01 5.72 3.97 6.25 10.86 9.21 16.37.27.49-.61 1.83-1.23 2.54-3.28 3.73-6.72 7.33-9.98 11.09-2.79 3.22-3.21 7.03-2.25 11.07.1.41.16.83.26 1.24 2.45 10.7 6.22 12.42 18.07 11.85 4.5-.22 8.9-1.94 13.41-2.47 5.13-.61 10.32-.83 15.48-.87 3.03-.02 5.91.9 7.07 4.55-5.53 4.65-12.05 6.83-19.15 7.31-6.01.41-12.12.01-18.06.84-4.41.61-8.69 2.45-12.87 4.12-1.15.46-2.23 2.18-2.55 3.51-4.55 19.25-8.87 38.56-13.46 57.8-2.68 11.22-8.24 21.02-15.74 29.78-1.29 1.51-2.17 3.61-2.63 5.58-2.02 8.67-10.8 14.77-20.27 13.59.36-.69.51-1.49.99-1.83 3.06-2.2 3.99-5.5 5.2-8.83 1.34-3.73 3.33-7.24 5.14-10.79 2.21-4.31 5.04-8.38 6.69-12.88 2.67-7.32 4.44-14.96 6.95-22.34.79-2.3 2.53-4.42 4.23-6.24 3.66-3.92 5.21-8.5 5.66-13.74.19-2.21 1.02-4.6 2.25-6.43 2.03-3.03 3.03-6.1 2.97-9.76-.08-4.76.21-9.54.47-14.3.05-.94.39-2.21 1.06-2.71 2.96-2.22 5.96-4.46 9.22-6.2 1.5-.8 3.62-.46 5.72-.66.23-.94.5-2.05.93-3.82-3.08 0-5.88-.04-8.67.01-2 .04-4.2.75-5.94.13-1.62-.58-3.01-2.35-4.05-3.91-1.09-1.64.22-2.77 1.47-3.96 4.28-4.08 6.01-9.09 4.99-15-1.08-6.26-2.42-12.5-3-18.81-.32-3.55.1-7.41 1.19-10.8 1.58-4.92 2.85-9.51-.14-14.3-.42-.67-.42-1.99-.03-2.71 1.33-2.46.68-4.69-.26-7.01-1.79-4.41-3.29-8.96-5.36-13.24-2.03-4.21-2.48-8.37-1.57-12.89.33-1.65-.05-3.52-.39-5.23-.83-4.25-1.84-8.47-2.73-12.71-.62-2.96.08-5.39 2.19-7.8 2.28-2.59 3.85-5.81 5.81-8.69 1.6-2.36 3.2-4.75 5.02-6.94 2.61-3.14 4.08-2.92 6.62.42 1.84 2.38 3.88 4.6 5.78 6.85z"/><path d="m225.29 223.15c1.59.18 2.84.37 4.1.45 4.25.26 7.89-.9 10.77-4.27 4.48-5.24 9.18-10.29 13.61-15.57 1.33-1.59 2.63-1.81 3.97-.68 2.08 1.76 4.54 3.47 5.75 5.78 5.53 10.52 13.8 18.04 24.14 23.56 1.77.95 3.33 2.28 5.09 3.24 3.73 2.03 6.54 4.85 8.69 8.54.71 1.21 2.45 2.13 3.9 2.54 2.74.76 5.62 1.03 8.43 1.55 9.02 1.66 17.06 13.97 14.91 23.29-5.18-.71-10.47-1.1-15.56-2.32-1.83-.44-3.36-2.76-4.71-4.46-4.08-5.13-7.57-10.81-12.1-15.5-7.47-7.73-16.49-13.54-25.55-18.5-7.39 3.65-9.41 9.94-9.88 17.18-.22 3.48-.56 6.99-1.33 10.37-.49 2.14-1.88 4.07-2.87 6.1-.45-.12-.89-.24-1.34-.37.14-1.77-.07-3.66.49-5.29 1.1-3.24 1.28-6.22-1.04-8.95-3.12-3.68-3.27-8.1-3.3-12.57-.04-5.66-3.47-8.42-9.07-7.05-3.28.8-6.5 1.92-9.71 3-.74.25-1.56.77-1.98 1.4-7.79 11.72-19.36 18.73-31.25 25.41-5.34 3-10.28 6.68-15.61 9.7-2.78 1.57-5.95 2.6-9.06 3.43-2.05.55-3.69-1.43-2.72-3.22 1.3-2.41 2.31-5.07 5.38-6.3 7.27-2.9 14.42-6.12 21.57-9.32 1.16-.52 2.69-1.44 2.99-2.48 2.5-8.77 9.79-10.88 17.27-12.83.82-.21 1.66-.36 2.49-.51 6.08-1.09 7.42-3.25 5.64-9.29-.55-1.93-1.3-3.79-2.11-6.06z"/><path d="m211.04 60.98c1.72.13 3.27-.14 4.42.42 3 1.46 5.73 3.49 8.74 4.94 8.91 4.29 12.87 12.79 17.83 20.47 2.59 4 6.37 6.05 10.93 6.93 2.45.47 4.35.19 5.12-2.65.35-1.3 1.1-2.49 1.72-3.85-.95-.65-1.79-1.23-2.71-1.87 3.75-2.98 9.53-4.57 8.88-10.6-.51-4.71-2.29-9.28-3.66-14.51-.29.55-.24.27-.08.19 5.56-3.01 7.2-7.49 5.88-13.65-.79-3.68-.56-7.58-.85-12.33 1.82 1.47 3.4 2.3 4.34 3.6 2.95 4.07 3.64 8.73 1.45 13.22-2.03 4.17-2.73 8.31-1.27 12.57 2.77 8.1 2.32 16.02-.53 23.95-.32.89-.48 1.84-.69 2.77-.04.2.03.42.07.82 2.79.39 5.48.79 8.09-1.13 1.22-.89 2.89-1.37 4.42-1.57 6.02-.79 10.69-3.7 14.41-8.42 2.49-3.15 5.8-3.52 9.21-1.15-.25.31-.43.75-.74.9-5.1 2.35-7.94 6.18-8.99 11.82-.66 3.57-3.19 6.06-7.17 6.75-3.12.54-6.14 1.76-9.26 2.17-6.6.86-9.62 5.47-10.61 11.04-1.3 7.32-3.11 14.22-7.63 20.26-.52.69-.38 1.97-.33 2.97.45 8.78.95 17.56 1.41 26.34.05.95-.14 1.9-.17 2.85-.08 3.41-1.44 5.47-5.57 4.91 0-.99 0-2.12 0-3.25 0-11.87-.23-23.76.13-35.62.13-4.22.92-8.78 2.75-12.52 4.59-9.38-.65-16.1-9.61-18.11-2.99-.67-6.03-1.12-9-1.88-6.17-1.57-10.19-6.25-14.6-10.35-.34-.32-.65-.99-.55-1.41.86-3.79-1.87-5.07-4.46-6.2-4.22-1.85-6.54-4.84-7.49-9.42-.65-3.01-2.34-5.82-3.83-9.4z"/><path d="m314.78 219.08c1.75-5.61 2.1-11.3 7.42-14.57 2.21-1.36 2.73-3.38 2.75-5.94.03-3.36.64-6.72 1.09-10.07.87-6.45.38-12.75-2.68-18.56-.83-1.58-2.6-3.24-4.26-3.68-3.55-.94-7.24-1.11-10.81.7-4.43 2.24-9.01 4.16-13.52 6.22-.26-.24-.52-.47-.77-.71.85-.96 1.67-1.95 2.57-2.86.73-.73 2.12-1.25 2.28-2.05 1.13-5.39 5.48-7.8 9.47-10.48 1.89-1.27 2.54-2.51 1.69-4.68-1.12-2.88-.93-5.74.38-8.61 3.68-8.08 2.77-16.79 3.33-25.3.1-1.56.01-3.13.01-4.68 4.01.01 6.71 1.91 7.53 5.44.57 2.45 1.09 5.07.84 7.53-.64 6.25 1.14 11.87 3.46 17.49.83 2.01 1.72 4.31 1.52 6.37-.54 5.53 1 10.2 4.55 14.31 1.65 1.91 1.94 3.69.55 5.95-.65 1.06-.78 2.62-.71 3.93.34 6.98.94 13.96 1.17 20.94.05 1.58-.75 3.33-1.58 4.77-2.27 3.92-4.85 7.66-7.14 11.57-2.02 3.44-4.78 5.74-9.14 6.97z"/><path d="m302.63 366.11c-9.77-.82-18.97-1.3-28.07-2.51-3.55-.47-6.86-2.67-10.33-3.94-1.24-.45-2.65-.76-3.96-.68-12.05.71-24.09 1.93-36.15 2.19-13.84.3-27.72.12-41.34-3.17-3.44-.83-2.45-3.7-3.56-5.75 1.86-1.17 3.2-.97 4.85.39 5.02 4.1 10.62 3.91 14.83-.87 2.83-3.22 5.59-4.33 9.51-2.41 6.81 3.32 13.83 1.74 20.87.92 2.75-.32 5.79-.35 8.35.52 3.46 1.16 6.46.55 9.47-.79 4.01-1.79 7.1-1.96 10.85 1.56 6.59 6.17 15.22 6.58 23.89 6.36 4.27-.11 8.64.47 12.84 1.33 3.41.67 5.97 2.99 7.95 6.85z"/><path d="m194.51 189.63c-.4-2.52-1.1-4.56-.94-6.52.3-3.7.3-7.39 2.72-10.81 1.21-1.71 1.04-4.93.48-7.22-1.09-4.46-1.46-8.57.53-12.95 3.01-6.64 4.26-13.69 3.94-21.04-.23-5.36-.05-10.74.6-16.4 3.2 4.22 6.4 8.44 9.4 12.41-1.07 2.34-2.29 4.27-2.84 6.37-.84 3.21-.24 6.3 1.96 8.96 2.77 3.34 5.53 6.69 8.39 10.16-.83 1.18-1.59 2.27-2.39 3.41 4.45 3.71 9.16 7.08 11.1 13.89-1.62-.6-2.82-.77-3.65-1.4-5.45-4.16-11.74-2.79-17.8-2.78-.64 0-1.57 1.1-1.86 1.88-1.13 3.06-2.3 6.14-3 9.31-1.02 4.57-2.26 8.97-6.64 12.73z"/><path d="m201.72 307.74c4.91-3.06 9.2-1.65 13.25.01 2.14.88 3.8 1.16 5.89.07 2.71-1.42 5.6-2.51 8.39-3.77 2.99-1.35 5.71-1.87 9.3-1.22 3.09.56 7.35-1.2 10.01-3.29 5.74-4.52 6.75-11.44 7.14-18.35.08-1.37.14-2.74.8-4.21.59 3.83 1.21 7.66 1.76 11.49 1.83 12.8 2.4 13.66 16.04 16.16 3.1.57 6.33.37 9.49.64 4.39.37 8.14 1.93 11.06 6.66-6.53.43-12.63 1.81-18.43 1.01-11.6-1.6-19.1 2.62-23.85 13.36-.71-3.82-1.42-7.64-2.11-11.37 3.04-1.1 5.8-2.09 8.55-3.09-.09-.3-.17-.6-.26-.9 1.23.22 2.45.43 3.68.65.11-.23.22-.45.33-.68-2.22-1.23-4.34-2.74-6.69-3.63-2.95-1.12-6.07-1.82-9.17-2.52-3.06-.69-5.63-.43-8.2 2.22-3.64 3.75-8.8 4.83-13.92 5.46-6.61.81-13.12.53-19.34-2.04-1.24-.53-2.25-1.59-3.72-2.66z"/><path d="m125.05 97.79c0-3.95-.07-7.54.05-11.13.03-.84.75-1.66 1.12-2.5.5-1.15 1.39-2.31 1.39-3.46-.03-7.68 6.35-12.06 13.43-12.31 1.79-.06 3.67-.07 5.34-.61 1.39-.45 2.85-1.42 3.71-2.58 1.4-1.87 1.64-3.87-1.19-5-1.99-.8-3.14-2.37-2.58-4.51.42-1.6 1.38-3.06 2.11-4.58.43.01.85.03 1.28.04 3.12 3.82 6.34 7.57 9.31 11.51 1.56 2.07 1.52 4.28.17 6.8-1.14 2.13-1.6 4.78-1.76 7.23-.11 1.73-.29 2.8-2.13 3.16-7.47 1.48-13.28 5.52-18.19 11.28-2.96 3.48-6.7 6.11-12.06 6.66z"/><path d="m139.25 202.39c-1.24-3.4-2.49-6.81-3.74-10.22 6.23-2.16 10.18-1.59 11.15 1.51 1.39 4.43.1 5.99-7.41 8.71z"/><path d="m309.29 67.27c.18-5.21 1.23-7.34 3.54-6.84 1.75.38 3.57 1.13 3.22 3.56-.42 2.93-2.67 4-6.76 3.28z"/><path d="m252.23 330.77c4.02 4.2 3.97 8.31 0 9.39 0-3.01 0-5.97 0-9.39z"/><path d="m196.6 204.31c.49-2.01.89-3.61 1.46-5.94 1.17 2.78 2.05 4.87 3.2 7.6-1.82-.65-3.11-1.11-4.66-1.66z"/><path d="m340.09 278.88c-2.21.27-3.61.45-5.42.67.18-1.29.32-2.33.53-3.86 1.65 1.07 2.9 1.88 4.89 3.19z"/></g><path d="m6.44 374.46.42-.45c.65.47 1.27.95 1.85 1.44l-.45.49c-.65-.56-1.25-1.06-1.82-1.48m.93 7.33-.63-.26c.55-1.36 1.05-2.8 1.52-4.33.19.1.38.19.59.27-.46 1.29-.95 2.73-1.48 4.32m-.38-10.38.44-.42c.43.34 1.01.82 1.74 1.44l-.49.49c-.53-.51-1.09-1.01-1.69-1.51m2.5.35h1.72v-1.04h.59v1.04h3.52v-1.04h.59v1.04h1.75v.53h-1.75v1.42h-2.03v.97h3.22v2.03h-3.24c0 .35-.01.66-.03.93h3.32v.53h-3.37c-.03.27-.08.58-.15.94h3.96v.53h-3.71c.67.92 1.93 1.48 3.79 1.68-.13.24-.23.44-.29.59-2.13-.38-3.48-1.08-4.04-2.12-.43.97-1.77 1.72-4.03 2.23-.09-.19-.2-.37-.33-.55 2.1-.42 3.37-1.03 3.81-1.83h-3.36v-.53h3.58c.08-.29.13-.61.16-.94h-3.33v-.53h3.39c.02-.27.04-.58.04-.93h-3.23v-2.03h3.25v-.97h-2.07v-1.42h-1.73zm1.12 3.44v1h2.65c.01-.3.02-.44.01-.4v-.25-.35zm1.19-2h3.52v-.91h-3.52zm4.71 2h-2.63v.59c0 .15-.01.28-.01.4h2.64z" fill="#fbfafc"/><path d="m13.56 383.74h.63v1.52h2.72v6.07h1.13v.6h-11.06v-.6h1.13v-6.07h2.73v-1.52h.63v1.52h2.1v-1.52zm-2.69 8.83.38.56c-1.24.63-2.53 1.25-3.85 1.85-.1-.21-.21-.42-.34-.63 1.36-.55 2.63-1.15 3.81-1.78m-2.13-4.27h2.1v-2.45h-2.1zm0 3.04h2.1v-2.46h-2.1zm2.72-3.04h2.1v-2.45h-2.1zm0 3.04h2.1v-2.46h-2.1zm6.07 3.6c-1.41-.71-2.7-1.3-3.86-1.78l.35-.56c1.45.62 2.75 1.19 3.88 1.72zm-1.25-9.09h-2.1v2.45h2.1zm-2.09 5.49h2.1v-2.46h-2.1z" fill="#fbfafc"/></svg>