<svg enable-background="new 0 0 400 400" viewBox="0 0 400 400" xmlns="http://www.w3.org/2000/svg"><g fill="#010104"><path d="m212.9 116.84c-2.21-7.46-4.16-14.31-6.3-21.11-1.07-3.4.38-4.23 3.4-4.01 8.4.63 18.79 10.75 19.68 20.18 11.03-2.31 21.98-4.54 32.87-6.98.84-.19 2.05-1.93 1.92-2.77-1.29-8.47-2.71-16.92-4.35-25.32-.49-2.51-2.01-3.58-5.13-2.96-11.06 2.19-22.22 3.9-33.33 5.85-8.18 1.43-16.39-1.73-20.66-8.3.99-.5 1.91-1.2 2.93-1.45 19.96-4.86 39.92-9.7 59.9-14.48 7.74-1.85 15.5-3.69 23.3-5.28 8.37-1.7 15.54 1.46 21.43 6.96 1.75 1.63 2.62 5.75 1.85 8.03-.62 1.82-4.26 3.31-6.74 3.65-7.88 1.07-15.84 1.48-23.76 2.25-1.55.15-3.05.81-5.43 1.47 9 8.37 8 18.6 6.93 29.65 7.97-.53 15.52-1.06 23.07-1.53 6.63-.41 13.28-.64 19.9-1.15 14.16-1.1 22.42 7.57 29.41 17.95 3.03 4.51 1.39 6.28-2.44 10.43-7.28 7.88-13.73 16.54-20.52 24.88-3.43 4.21-6.47 8.85-10.46 12.42-2.01 1.8-6.3 3.05-8.63 2.15-14.23-5.51-28.86-4.14-43.36-3.05-20.73 1.56-41.22 5.01-60.96 11.83-4.93 1.7-9.63 4.34-14.05 7.16-3.84 2.45-6.82 2.41-9.44-1.26-2.2-3.09-4.31-6.27-6.19-9.56-6.52-11.39-12.93-22.85-19.39-34.28-.33-.58-.77-1.09-1.11-1.66-1.96-3.23-5.43-7.03-2.36-10.24 1.92-2.02 6.79-2.36 10.03-1.77 8.7 1.61 17.04 1.48 25.49-1.36 7.2-2.42 14.63-4.15 22.5-6.34zm68.74-2.62c-2.74 12.8-5.31 24.83-7.65 35.74 10.37 1.14 20.26 1.96 30.05 3.48 2.95.46 4.39-.2 5.62-2.44 3.52-6.4 7.09-12.77 10.51-19.22 5.69-10.75.49-19.68-11.68-19.46-8.93.17-17.84 1.23-26.85 1.9zm-50.47 43.61c9.35.42 18.62-1.91 27.7-5.1 1.25-.44 2.65-2.38 2.8-3.76 1.18-10.62 2.06-21.26 3.12-32.79-11.42 2.19-21.53 4.06-31.58 6.15-.84.17-1.94 1.82-1.95 2.8-.14 10.62-.09 21.24-.09 32.7zm-48.31-21.08c4.04 9.22 8.05 18.45 12.13 27.64 1.44 3.23 4.13 4.41 7.39 3.34 4.56-1.5 9.08-3.19 13.46-5.14 1.29-.57 3.04-2.4 2.93-3.48-1.07-10.03-2.43-20.04-3.96-30.01-.13-.86-2.19-2.22-3.09-2.05-9.68 1.9-19.59 3.28-28.86 9.7z"/><path d="m226.24 289.71c-3.39.7-6.76 1.48-10.16 2.09-10.94 1.97-17.18-2.95-17.17-14.11.01-13.64.67-27.28.76-40.92.06-9.64-.02-19.31-.77-28.91-.26-3.39-2.67-6.62-4.1-9.92-1.88-4.33-.81-6.25 3.65-5.9 24.88 1.99 48.82-3.79 72.87-8.68 5.36-1.09 10.6-2.78 15.98-3.76 2.15-.39 4.78-.18 6.72.74 4.47 2.12 8.93 4.47 12.88 7.42 6.82 5.11 9.58 11.39 6.81 20.45-2.14 6.99-2.39 14.7-2.61 22.11-.59 19.8-.63 39.61-1.12 59.41-.09 3.59-.88 7.29-2.07 10.69-1.72 4.94-5.51 6.11-9.93 3.27-5.87-3.78-8.02-9.83-7.93-16.33.15-10.13 1.5-20.24 1.56-30.36.1-17.46-.12-34.94-.76-52.4-.29-7.89-2.36-9.89-10.3-9.27-15.87 1.23-31.67 3.3-47.48 5.21-4.6.56-9.17 1.57-13.65 2.77-1.31.35-3.18 2.07-3.21 3.19-.09 4.93.4 9.87.73 15.76 12.9-2.75 24.97-5.54 37.13-7.8 4.46-.83 9.23-.99 13.69-.32 2.17.32 5.41 3.18 5.5 5.03.1 1.98-2.56 5.37-4.64 5.96-5.52 1.58-11.35 2.23-17.1 2.79-9.93.97-19.88 1.72-29.84 2.28-3.38.19-4.73 1.26-4.58 4.75.23 5.47.06 10.95.06 17.57 6.75-1.88 12.59-3.47 18.4-5.15 7.97-2.29 15.85-4.93 23.91-6.84 3.07-.73 6.58-.17 9.79.37 3.37.57 5.78 2.65 5.75 6.43-.03 4.02-2.87 5.41-6.24 5.78-7.1.76-14.26 1.04-21.33 2.01-9.82 1.34-19.59 3.13-29.46 4.74 0 6.54.13 12.33-.05 18.11-.11 3.45 1.69 4.24 4.34 3.3 4.66-1.65 9.4-3.3 13.72-5.65 8.75-4.75 11.07-4.67 18.46 2.13 10.63 9.77 10.59 9.82-.36 18.93-25.08 20.88-52.3 38.34-82.21 51.48-3.16 1.39-6.54 2.53-9.93 3.04-1.88.28-3.99-.99-6-1.57 1.3-1.29 2.38-3.03 3.94-3.8 22.31-11.09 41.57-26.3 58.99-43.9 3.2-3.23 5.52-7.33 8.25-11.03-.27-.4-.58-.79-.89-1.19z"/><path d="m111.07 153.52c-13.44 20.13-30.23 37.16-48.61 52.68-3.78 3.19-8.05 5.83-12.27 8.42-1.55.95-3.64 1.04-5.48 1.52-.32-.36-.65-.72-.97-1.08 1.27-1.93 2.31-4.08 3.86-5.74 27.09-29.1 47.79-62.65 66.64-97.32 6.68-12.29 11.18-25.86 15.73-39.17 1.36-3.99-.59-9.06-.74-13.64-.06-1.8.24-4.87 1.13-5.17 1.85-.63 4.88-.6 6.21.56 4.5 3.91 8.84 8.13 12.57 12.78 7.09 8.82 7.15 16.12.95 25.6-10.1 15.46-20.22 30.91-30.32 46.38-.54.83-1.03 1.69-1.72 2.83 2.72 2.41 5.53 4.68 8.1 7.2 6.56 6.45 9.99 14.09 10.09 23.56.42 39.29 1.38 78.57 1.66 117.86.1 13.61-1.17 27.24-1.88 40.86-.07 1.31-.19 2.84-.89 3.85-1.6 2.33-3.38 5.94-5.44 6.2-2.73.34-6.71-1.24-8.55-3.37-4.95-5.76-8.38-12.8-8.1-20.48.49-13.26 2.08-26.47 2.95-39.71 1.45-22.06 3.24-44.11 3.83-66.2.37-13.91-.78-27.91-2.07-41.79-.54-5.74-3.24-11.28-4.96-16.91-.59.07-1.15.18-1.72.28z"/><path d="m267.08 301.98c1.35.11 2.75-.13 3.84.35 18.73 8.34 37.28 17.12 51.53 32.39 3.52 3.78 6.21 9.04 7.44 14.07 1.37 5.59-2.22 10.69-6.46 12.16-4.32 1.5-10.7-.42-13.82-4.69-2.74-3.75-5.55-7.63-7.28-11.88-6.16-15.05-18.08-24.78-30.44-34.22-2.51-1.92-5.8-3.55-4.81-8.18z"/></g><path d="m5.17 384 .55-.58c.85.61 1.65 1.24 2.4 1.87l-.59.64c-.83-.73-1.62-1.38-2.36-1.93m1.22 9.53-.82-.34c.71-1.76 1.37-3.64 1.98-5.63.24.13.5.25.76.36-.6 1.67-1.24 3.54-1.92 5.61m-.5-13.5.57-.54c.56.44 1.31 1.06 2.26 1.87l-.64.64c-.68-.66-1.41-1.32-2.19-1.97m3.25.46h2.24v-1.36h.77v1.36h4.57v-1.36h.76v1.36h2.28v.69h-2.28v1.84h-2.64v1.26h4.18v2.64h-4.21c0 .45-.02.86-.05 1.21h4.32v.69h-4.38c-.04.34-.1.75-.19 1.22h5.15v.69h-4.82c.87 1.19 2.51 1.92 4.93 2.19-.17.31-.3.57-.37.76-2.77-.49-4.52-1.41-5.26-2.76-.56 1.26-2.3 2.23-5.24 2.9-.12-.25-.26-.48-.43-.72 2.73-.55 4.38-1.34 4.96-2.38h-4.38v-.69h4.65c.1-.38.17-.79.21-1.22h-4.32v-.69h4.4c.03-.34.05-.75.05-1.21h-4.2v-2.64h4.23v-1.26h-2.69v-1.84h-2.24zm1.46 4.46v1.29h3.45c.01-.4.02-.57.01-.53v-.32-.45h-3.46zm1.55-2.59h4.57v-1.19h-4.57zm6.11 2.59h-3.42v.77c-.01.19-.01.37-.02.53h3.44z" fill="#fcfbfa"/><path d="m32.63 379.16h.82v1.98h3.54v7.89h1.46v.78h-14.37v-.78h1.46v-7.89h3.54v-1.98h.82v1.98h2.73zm-3.49 11.48.5.73c-1.61.82-3.28 1.63-5 2.41-.13-.27-.28-.55-.44-.82 1.75-.72 3.4-1.49 4.94-2.32m-2.78-5.55h2.73v-3.18h-2.73zm0 3.95h2.73v-3.2h-2.73zm3.54-3.95h2.73v-3.18h-2.73zm0 3.95h2.73v-3.2h-2.73zm7.89 4.68c-1.84-.92-3.51-1.7-5.02-2.32l.45-.73c1.89.8 3.57 1.55 5.04 2.23zm-1.62-11.81h-2.73v3.18h2.73zm-2.73 7.13h2.73v-3.2h-2.73z" fill="#fcfbfa"/></svg>