<svg enable-background="new 0 0 400 400" viewBox="0 0 400 400" xmlns="http://www.w3.org/2000/svg"><path d="m364.24 321.55c-3.24.83-6.45 2.26-9.72 2.4-18.95.87-37.91 1.39-56.86 2.13-5.99.23-11.2-1.43-15.35-5.79-17.45-18.33-35.14-36.43-52.17-55.14-16.69-18.34-32.68-37.32-48.99-56-.62-.71-1.36-1.3-1.78-1.7-5.48 12.09-10.04 24.46-16.41 35.81-25.43 45.35-62.01 78.48-110.32 98.3-4.39 1.8-8.81 2.44-14.56.21 63.97-36.36 108.51-86.41 122.87-161.3-14.73 3.95-27.96 7.36-41.1 11.09-9.1 2.58-18.1 5.56-27.12 8.44-9.2 2.93-16.95-.61-24.38-5.41-.8-.51-1.67-2.51-1.46-2.72 1.12-1.06 2.47-2.15 3.93-2.54 14.25-3.85 28.54-7.56 42.82-11.32 15.08-3.96 30.11-8.09 45.26-11.77 3.57-.87 4.6-2.75 4.84-5.79 1.07-13.58 2.37-27.16 3.07-40.76.52-9.94.28-19.92.31-29.89.03-10.01-4.8-18.16-10.18-26.07-1.21-1.79-2.62-3.46-3.7-5.32-1.5-2.6-1.1-4.38 2.35-4.79 9.25-1.11 34.42 11.13 37.44 19.87 1.98 5.73 1.18 12.66.62 18.96-1.59 18.04-3.69 36.03-5.59 54.04-.41 3.93-.84 7.86-1.34 12.55 9.15-1.89 17.67-3.61 26.18-5.41 18.03-3.79 36.01-7.79 54.09-11.3 3.95-.77 8.42-.56 12.32.46 11.55 3.04 21.98 8.62 30.86 16.61 2.16 1.95 4.3 5.72 3.93 8.28-.64 4.4-5.48 5.3-9.18 5.17-7.11-.25-14.24-1.06-21.26-2.24-17.35-2.91-34.75-3.53-52.21-1.67-14.03 1.5-28 3.54-42.03 5.01-3.7.39-4.75 2.31-5.22 5.35-.28 1.8-.44 3.65-1.02 5.36-2.75 8.07-.2 13.73 5.82 19.95 34.14 35.28 71.72 66.05 114.61 90.11 15.71 8.81 32.27 15.67 49.78 20.19 3.82.98 7.39 2.93 11.07 4.44-.07.75-.14 1.48-.22 2.2z" fill="#010104"/><g fill="#fcfbfa"><path d="m5.17 384 .55-.58c.85.61 1.65 1.24 2.4 1.87l-.59.64c-.83-.73-1.62-1.38-2.36-1.93m1.22 9.53-.82-.34c.71-1.76 1.37-3.64 1.98-5.63.24.13.5.25.76.36-.6 1.67-1.24 3.54-1.92 5.61m-.5-13.5.57-.54c.56.44 1.31 1.06 2.26 1.87l-.64.64c-.68-.66-1.41-1.32-2.19-1.97m3.25.46h2.24v-1.36h.77v1.36h4.57v-1.36h.76v1.36h2.28v.69h-2.28v1.84h-2.64v1.26h4.18v2.64h-4.21c0 .45-.02.86-.05 1.21h4.32v.69h-4.38c-.04.34-.1.75-.19 1.22h5.15v.69h-4.82c.87 1.19 2.51 1.92 4.93 2.19-.17.31-.3.57-.37.76-2.77-.49-4.52-1.41-5.26-2.76-.56 1.26-2.3 2.23-5.24 2.9-.12-.25-.26-.48-.43-.72 2.73-.55 4.38-1.34 4.96-2.38h-4.38v-.69h4.65c.1-.38.17-.79.21-1.22h-4.32v-.69h4.4c.03-.34.05-.75.05-1.21h-4.2v-2.64h4.23v-1.26h-2.69v-1.84h-2.24zm1.46 4.46v1.29h3.45c.01-.4.02-.57.01-.53v-.32-.45h-3.46zm1.55-2.59h4.57v-1.19h-4.57zm6.11 2.59h-3.42v.77c-.01.19-.01.37-.02.53h3.44z"/><path d="m32.63 379.16h.82v1.98h3.54v7.89h1.46v.78h-14.37v-.78h1.46v-7.89h3.54v-1.98h.82v1.98h2.73zm-3.49 11.48.5.73c-1.61.82-3.28 1.63-5 2.41-.13-.27-.28-.55-.44-.82 1.75-.72 3.4-1.49 4.94-2.32m-2.78-5.55h2.73v-3.18h-2.73zm0 3.95h2.73v-3.2h-2.73zm3.54-3.95h2.73v-3.18h-2.73zm0 3.95h2.73v-3.2h-2.73zm7.89 4.68c-1.84-.92-3.51-1.7-5.02-2.32l.45-.73c1.89.8 3.57 1.55 5.04 2.23zm-1.62-11.81h-2.73v3.18h2.73zm-2.73 7.13h2.73v-3.2h-2.73z"/></g></svg>