<svg enable-background="new 0 0 400 400" viewBox="0 0 400 400" xmlns="http://www.w3.org/2000/svg"><g fill="#010104"><path d="m54.47 328.27c29.9-15.58 53.45-37.61 69.83-67.34-9.28-7.49-19.08-13.04-31.03-13.75-8.82-.53-14.05-9.74-9.93-17.71.91-1.75 2.38-3.21 3.41-4.91 3.86-6.32 7.65-12.69 11.46-19.04-.46-.57-.93-1.13-1.39-1.7-6.66 2.57-13.28 5.21-19.99 7.64-1.66.6-3.87 1.16-5.33.54-8.21-3.46-15.61-8.23-21.35-15.19-1.17-1.41-1.83-3.24-3.27-5.88 8.8 0 16.43.5 23.96-.12 9.72-.81 19.4-2.31 29.01-4 1.88-.33 4.39-2.64 4.88-4.49 6.57-24.84 12.86-49.75 19.15-74.67.69-2.73.9-5.57 1.42-8.35 1.48-8.01.54-15.46-4.25-22.38-1.27-1.83-1.27-4.53-1.86-6.83 2.49-.26 5.47-1.52 7.39-.59 6.67 3.23 13.11 7 19.37 11 3.23 2.06 3.84 5.35 2.67 9.26-8.45 28.29-16.73 56.63-25.07 84.95-.42 1.42-.87 2.84-1.66 5.39 11.08-3.24 21.41-6.27 32.21-9.43-2.15-4.76-3.95-8.76-5.76-12.76.35-.42.7-.84 1.05-1.26 3.37 1.7 7.07 2.97 10.05 5.2 4.8 3.6 9.37 4.56 15.17 2.3 4.29-1.67 9.15-1.9 13.75-2.78.28.62.56 1.24.84 1.87-4.15 3.08-8.29 6.16-12.73 9.45 4.05 3.37 2.7 7.51 1.33 11.7-8.36 25.5-19.14 49.88-33.86 72.89 7.5 6.41 14.75 12.98 22.42 19.04 7.25 5.73 10.97 12.76 10.82 22.57.85-1.38 1.77-2.72 2.54-4.14 11.2-20.88 17.36-43.46 21.81-66.51 6.28-32.53 9.18-65.48 10.23-98.57.38-12.02-.68-23.93-6.65-34.87-.79-1.44-.53-3.46-.76-5.2 1.9-.22 3.8-.45 5.7-.64.31-.03.7.05.96.22 8.91 5.8 17.85 2.45 26.76.05 20.83-5.62 41.6-11.45 62.49-16.84 11.96-3.09 24.03-4.01 35.34 2.61 2.55 1.49 4.99 3.36 7.02 5.5 2.81 2.94 1.91 5.6-2.14 6.4-2.87.56-5.9.72-8.83.55-17.79-.99-35.46-.26-52.97 3.1-.44.54-.88 1.09-1.33 1.63 2.91 2.37 5.86 4.68 8.7 7.13 3.27 2.82 3.84 6.18 2.45 10.34-3.04 9.08-5.73 18.28-8.76 28.06 11.64-1.64 22.21-4.72 31.74-10.57 3.99-2.45 7.56-2.62 11.11-.2 6.7 4.56 13.18 9.46 19.73 14.2-8.53 20.81-11.27 42.06-15.43 62.98-.99 4.97-2.91 9.87-5.12 14.46-2 4.15-5.52 5.55-10.45 4.14-7.86-2.25-15.93-3.79-24.22-5.71 0 1.75-.14 2.21.02 2.36 5.84 5.81 6.66 12.52 6.26 20.76-1.17 24.43-1.35 48.94-1.16 73.41.08 11.01-4.55 19.93-9.73 28.82-1.01 1.73-3.65 3.02-5.73 3.37-.87.15-2.76-2.53-3.3-4.2-3.94-12.25-12.82-19.91-23.46-26.1-2.65-1.54-5.02-3.54-7.52-5.33.19-.54.38-1.08.57-1.62 4.08.61 8.14 1.4 12.23 1.79 4.3.4 8.63.54 12.95.57 3.26.02 5.28-1.7 5.68-5.07.33-2.8.96-5.6.97-8.4.08-20.16.22-40.33-.08-60.48-.08-5.64-1.56-11.27-2.39-16.9-.56-.14-1.13-.28-1.69-.42-3.68 3.01-7.42 5.94-11.01 9.06-4.4 3.83-7.02 3.6-8.48-2.1-2.3-8.95-3.86-18.12-5.27-27.26-2.22-14.42-3.93-28.91-6.13-43.34-.46-3.05-2.1-5.93-3.17-8.89-1.55-4.28-.73-5.28 3.81-5.34 7.46-.11 14.93-.31 22.37-.79 1.16-.07 2.99-1.66 3.19-2.78 2.53-14.2 5.92-28.39 2.72-42.96-.14-.64-.43-1.24-.68-1.96-12.29 3.14-24.51 6.26-37.49 9.58-.37 6.5-.56 14.46-1.33 22.37-2.6 26.61-4.44 53.34-8.4 79.76-4.82 32.15-13.34 63.44-30.48 91.6-4.13 6.78-9.25 12.99-14.34 19.11-1.84 2.21-4.92 3.39-7.43 5.04-.4-.38-.8-.75-1.2-1.13 1.45-3.59 2.9-7.17 4.41-10.89-16.35-7.99-22.38-25.82-36.17-36.81-2.62 3.56-5.18 7.16-7.86 10.66-16.69 21.82-37.85 37.74-63.47 47.59-2.73 1.05-6.09.47-9.16.64-.22-.84-.45-1.65-.68-2.46zm205.26-150.73c6.49-1.75 12.72-3.33 18.9-5.11 6.67-1.92 13.29-4.41 20.34-2.4 1.54.44 3.87 2.12 3.82 3.14-.07 1.58-1.55 3.6-3 4.5-2.04 1.27-4.56 1.96-6.97 2.41-10.6 1.99-21.24 3.81-32.96 5.88 1.04 8.52 2.22 18.16 3.49 28.54 14.68-5.52 29.17-9.29 44.17-4.92.5-.66.83-.9.88-1.18 3.04-19.32 6.49-38.58 8.87-57.98 1.13-9.18-2.07-11.26-11.2-9.63-4.89.88-9.72 2.05-14.6 2.95-9.91 1.82-19.82 3.67-29.77 5.22-2.32.36-4.82-.4-6.82-.6 1.59 9.57 3.12 18.79 4.85 29.18zm-104.3 5.26c-2 .19-3.03.08-3.9.41-7.6 2.85-15.04 6.25-22.8 8.56-10.71 3.18-17.16 9.72-20.49 20.4-2.18 7-5.98 13.49-9.14 20.38 10.76 5.33 21.23 10.51 32 15.84 10.71-20.75 18.74-42.22 24.33-65.59z"/><path d="m305.2 241.93c1.78.79 3.75 1.31 5.31 2.41 11.52 8.15 23.01 16.36 34.41 24.68 10.07 7.35 10.39 28.3 4.89 36.84-3.69 5.73-7.78 5.87-11.32-.13-2-3.39-2.9-7.43-4.88-10.84-9.15-15.77-18.51-31.41-27.75-47.12-.89-1.51-1.45-3.22-2.16-4.83.5-.34 1-.67 1.5-1.01z"/><path d="m241.8 240.16c.49 6.36 1.21 12.71 1.43 19.08.51 14.7-.61 29.28-6.33 42.98-1.84 4.42-5.19 8.39-8.53 11.94-2.76 2.93-6.77 2.2-8.31-1.3-1.84-4.19-3.56-9.18-2.99-13.51.73-5.55 3.06-11.24 6-16.09 6.44-10.65 10.69-22.05 13.88-33.96.84-3.13 2.05-6.17 3.09-9.25.59.03 1.18.07 1.76.11z"/></g><path d="m5.17 384 .55-.58c.85.61 1.65 1.24 2.4 1.87l-.59.64c-.83-.73-1.62-1.38-2.36-1.93m1.22 9.53-.82-.34c.71-1.76 1.37-3.64 1.98-5.63.24.13.5.25.76.36-.6 1.67-1.24 3.54-1.92 5.61m-.5-13.5.57-.54c.56.44 1.31 1.06 2.26 1.87l-.64.64c-.68-.66-1.41-1.32-2.19-1.97m3.25.46h2.24v-1.36h.77v1.36h4.57v-1.36h.76v1.36h2.28v.69h-2.28v1.84h-2.64v1.26h4.18v2.64h-4.21c0 .45-.02.86-.05 1.21h4.32v.69h-4.38c-.04.34-.1.75-.19 1.22h5.15v.69h-4.82c.87 1.19 2.51 1.92 4.93 2.19-.17.31-.3.57-.37.76-2.77-.49-4.52-1.41-5.26-2.76-.56 1.26-2.3 2.23-5.24 2.9-.12-.25-.26-.48-.43-.72 2.73-.55 4.38-1.34 4.96-2.38h-4.38v-.69h4.65c.1-.38.17-.79.21-1.22h-4.32v-.69h4.4c.03-.34.05-.75.05-1.21h-4.2v-2.64h4.23v-1.26h-2.69v-1.84h-2.24zm1.46 4.46v1.29h3.45c.01-.4.02-.57.01-.53v-.32-.45h-3.46zm1.55-2.59h4.57v-1.19h-4.57zm6.11 2.59h-3.42v.77c-.01.19-.01.37-.02.53h3.44z" fill="#fcfbfa"/><path d="m32.63 379.16h.82v1.98h3.54v7.89h1.46v.78h-14.37v-.78h1.46v-7.89h3.54v-1.98h.82v1.98h2.73zm-3.49 11.48.5.73c-1.61.82-3.28 1.63-5 2.41-.13-.27-.28-.55-.44-.82 1.75-.72 3.4-1.49 4.94-2.32m-2.78-5.55h2.73v-3.18h-2.73zm0 3.95h2.73v-3.2h-2.73zm3.54-3.95h2.73v-3.18h-2.73zm0 3.95h2.73v-3.2h-2.73zm7.89 4.68c-1.84-.92-3.51-1.7-5.02-2.32l.45-.73c1.89.8 3.57 1.55 5.04 2.23zm-1.62-11.81h-2.73v3.18h2.73zm-2.73 7.13h2.73v-3.2h-2.73z" fill="#fcfbfa"/></svg>