<svg enable-background="new 0 0 400 400" viewBox="0 0 400 400" xmlns="http://www.w3.org/2000/svg"><g fill="#010104"><path d="m262.11 162.63c10.74 8.65 19.38 16.93 19 31.12 7.7-.76 14.91-1.34 22.09-2.22 11.37-1.4 22.72-3.02 34.08-4.48 1.47-.19 3.1-.32 4.47.1 11.49 3.52 21.32 9.95 29.87 18.19 1.56 1.5 2.38 5.85 1.34 7.46-1.4 2.17-5.09 4.36-7.53 4.1-7.71-.82-15.25-3.43-22.96-4.16-19-1.79-38.06-2.94-57.11-4.26-1.24-.09-2.53.5-3.99.81.67 11.65 1.44 23.06 1.95 34.47.72 16.12 1.32 32.24 1.81 48.37.26 8.32-.13 16.67.34 24.98.72 12.82-2.15 24.74-7.89 36.08-2.48 4.89-4.73 9.95-7.76 14.47-3.45 5.14-7.79 5.21-10.43-.25-8.73-18.03-24.66-28.88-39.37-41.04-3.08-2.55-5.76-5.58-8.62-8.39.32-.58.64-1.16.96-1.73 1.74.29 3.52.43 5.21.9 11.01 3.04 21.96 6.31 33.01 9.16 5.72 1.47 8.72-.06 10.17-5.82 1.6-6.39 2.67-13.05 2.94-19.63.63-15.13.96-30.28.8-45.42-.14-13.63-1.11-27.25-1.68-40.87-.12-2.8-.52-4.67-4.29-4.26-28.93 3.16-57.55 7.88-85.61 15.72-2.87.8-5.77 1.57-8.55 2.6-9.13 3.4-17.38.85-24-8.5 40.08-10.48 80.6-15.99 121.01-23.43-.55-11.49-1.48-22.59-10.97-30.48-1.72-1.43-4.83-2.49-6.88-1.99-14.83 3.55-29.6 7.39-44.3 11.46-8.66 2.39-16.74 1.71-24.4-2.98-1.35-.83-2.46-2.04-4.82-4.04 6.28-1.75 11.36-3.38 16.53-4.57 25.88-5.96 51.84-11.55 77.65-17.78 12.87-3.11 25.26-3.84 37.23 2.71 2.58 1.41 5.1 3.21 7.12 5.33 3.19 3.37 2.33 6.8-2.17 7.77-3.8.82-7.86.47-11.81.49-10.28.05-20.54.01-32.44.01z"/><path d="m181.05 54.88c16.93 5.48 33.57 2.33 50.13-1.41 19.38-4.38 38.69-9.07 58.05-13.52 1.31-.3 3.2-.24 4.16.5 8 6.15 15.98 12.35 23.68 18.87 3.09 2.62 3.46 6.04.86 9.73-9.5 13.5-13.9 29.29-19.77 44.42-1.66 4.29-4.11 8.33-6.61 12.22-2.72 4.23-6.73 6.3-11.95 5.47-4.59-.72-9.17-1.54-13.78-2.02-17.18-1.8-33.62 2.45-50.04 6.47-11.19 2.74-14.91.8-17.27-10.43-2.56-12.15-4.26-24.51-7.33-36.53-2.11-8.29-5.95-16.13-8.91-24.21-1.03-2.81-1.75-5.74-2.61-8.61.47-.32.93-.64 1.39-.95zm36.21 70c1.11 0 1.76.07 2.4-.01 16.76-2.23 33.49-4.86 50.31-6.51 5.34-.52 8.19-2.37 9.93-7.03 5.88-15.76 7.94-32.16 7.94-48.85 0-5.3-3.36-8.43-8.62-8.29-5.28.14-10.63.63-15.8 1.69-17.36 3.58-34.64 7.54-51.99 11.21-3.4.72-4.97 2.22-4.33 5.78 1.09 6.04 2.12 12.08 3.11 18.14.41 2.51 1.74 3.48 4.17 2.72 6.01-1.88 12.08-3.59 17.98-5.77 7.57-2.79 15.18-4.64 23.29-3.11 3.68.7 8.18 1.51 8.07 5.86-.1 4.29-4.52 5.1-8.3 5.45-.17.02-.34 0-.5.02-12.6 1.99-25.2 4-37.81 5.97-3.13.49-4.7 1.69-3.74 5.3 1.49 5.59 2.55 11.31 3.89 17.43z"/><path d="m99.15 190.91c-20.08 14.75-38.76 28.63-57.65 42.2-3.42 2.46-7.69 3.78-11.68 5.35-.96.38-2.34-.34-3.53-.55.37-1.18.5-2.52 1.16-3.5.82-1.22 1.96-2.3 3.16-3.17 23.11-16.8 41.84-38.08 60.07-59.72 9.08-10.78 17.16-22.46 25.01-34.18 4.72-7.05 7.76-15.06 7.36-23.97-.06-1.42 1.12-2.9 1.73-4.35 1.46.62 3.26.88 4.33 1.91 7.88 7.58 12.71 17.03 15.62 27.41.55 1.95-.67 4.89-1.95 6.78-9.08 13.44-21.77 23.27-34.07 33.47-1.52 1.26-3.03 2.54-4.47 3.76.14.41.15.64.26.71 16.75 10.81 16.12 27.37 15.17 44.37-.98 17.61-1.2 35.26-1.65 52.9-.38 14.8-.6 29.61-.89 44.42-.01.67.15 1.42-.1 1.98-1.11 2.44-1.96 6.45-3.62 6.84-2.28.53-5.88-1.01-7.74-2.84-9.6-9.47-10.95-21.33-9.53-34.15 2.22-19.97 4.11-39.99 5.74-60.02.81-9.94 1.23-19.96.87-29.91-.19-5.4-2.38-10.7-3.6-15.74z"/><path d="m59.51 120.4c1.66-1.62 3.16-3.44 5-4.81 19.51-14.48 38.85-29.17 55.86-46.65 3.13-3.21 6.14-6.57 8.93-10.08 4.74-5.95 8.3-12.35 7.53-20.46-.18-1.88 1.17-3.91 1.82-5.87 1.92.71 4.21.97 5.7 2.2 4.72 3.9 9.55 7.79 13.59 12.36 6.62 7.49 6.16 11.96-.99 18.73-16.95 16.01-36.65 28.15-56.89 39.33-10.71 5.91-22.19 10.44-33.38 15.47-1.86.83-4.02 1-6.04 1.47-.37-.57-.75-1.13-1.13-1.69z"/><path d="m193.5 234.69c3.33 1.74 6.73 3.38 9.99 5.25 6.06 3.46 11.8 7.56 18.1 10.47 9.02 4.17 13.02 17.43 10.54 25.61-1.11 3.66-3.65 5.05-6.82 3.75-3.28-1.35-6.98-3.09-9.02-5.78-7.91-10.45-15.31-21.29-22.7-32.12-1.14-1.68-1.26-4.05-1.86-6.1.59-.37 1.18-.72 1.77-1.08z"/></g><path d="m5.17 384 .55-.58c.85.61 1.65 1.24 2.4 1.87l-.59.64c-.83-.73-1.62-1.38-2.36-1.93m1.22 9.53-.82-.34c.71-1.76 1.37-3.64 1.98-5.63.24.13.5.25.76.36-.6 1.67-1.24 3.54-1.92 5.61m-.5-13.5.57-.54c.56.44 1.31 1.06 2.26 1.87l-.64.64c-.68-.66-1.41-1.32-2.19-1.97m3.25.46h2.24v-1.36h.77v1.36h4.57v-1.36h.76v1.36h2.28v.69h-2.28v1.84h-2.64v1.26h4.18v2.64h-4.21c0 .45-.02.86-.05 1.21h4.32v.69h-4.38c-.04.34-.1.75-.19 1.22h5.15v.69h-4.82c.87 1.19 2.51 1.92 4.93 2.19-.17.31-.3.57-.37.76-2.77-.49-4.52-1.41-5.26-2.76-.56 1.26-2.3 2.23-5.24 2.9-.12-.25-.26-.48-.43-.72 2.73-.55 4.38-1.34 4.96-2.38h-4.38v-.69h4.65c.1-.38.17-.79.21-1.22h-4.32v-.69h4.4c.03-.34.05-.75.05-1.21h-4.2v-2.64h4.23v-1.26h-2.69v-1.84h-2.24zm1.46 4.46v1.29h3.45c.01-.4.02-.57.01-.53v-.32-.45h-3.46zm1.55-2.59h4.57v-1.19h-4.57zm6.11 2.59h-3.42v.77c-.01.19-.01.37-.02.53h3.44z" fill="#fcfbfa"/><path d="m32.63 379.16h.82v1.98h3.54v7.89h1.46v.78h-14.37v-.78h1.46v-7.89h3.54v-1.98h.82v1.98h2.73zm-3.49 11.48.5.73c-1.61.82-3.28 1.63-5 2.41-.13-.27-.28-.55-.44-.82 1.75-.72 3.4-1.49 4.94-2.32m-2.78-5.55h2.73v-3.18h-2.73zm0 3.95h2.73v-3.2h-2.73zm3.54-3.95h2.73v-3.18h-2.73zm0 3.95h2.73v-3.2h-2.73zm7.89 4.68c-1.84-.92-3.51-1.7-5.02-2.32l.45-.73c1.89.8 3.57 1.55 5.04 2.23zm-1.62-11.81h-2.73v3.18h2.73zm-2.73 7.13h2.73v-3.2h-2.73z" fill="#fcfbfa"/></svg>