<svg enable-background="new 0 0 400 400" viewBox="0 0 400 400" xmlns="http://www.w3.org/2000/svg"><g fill="#010104"><path d="m338.94 254.77c.71 1.87 1.7 3.69 2.09 5.63 2.07 10.25 4.14 20.5 5.92 30.79 1.35 7.77 5.03 13.96 11.21 18.78 5.98 4.67 6.04 10.06-1.05 13-8.78 3.64-18.2 6.89-27.57 7.73-22.31 2-44.73.65-65.99-6.88-23.06-8.16-28.55-19.54-28.48-39.88.08-23.62 1.17-47.24 1.79-70.85 1.04-39.42 2.16-78.85 2.99-118.28.18-8.79-.67-17.54-4.95-25.69-1.07-2.04-.87-5.88.43-7.65.96-1.3 5.29-1.6 7.04-.56 7.22 4.31 14.08 9.23 20.93 14.13.99.71 1.78 2.61 1.65 3.85-2.08 20.14-4.45 40.25-6.49 60.4-1.18 11.7-1.9 23.46-2.89 35.95 9.97-5.35 17.28-12.49 23.76-20.49 3.66-4.51 7.02-9.29 10.18-14.16 3.17-4.91 4.42-10.24 2.84-16.19-.46-1.73.21-4.47 1.43-5.69.76-.76 3.93-.13 5.29.87 6.82 5.05 11.84 11.61 14.95 19.54 1.34 3.41.4 6.01-2.2 8.88-10.38 11.44-23.54 18.95-36.55 26.69-5.57 3.31-11.54 5.93-17.17 9.14-1.43.82-2.98 2.61-3.2 4.14-.78 5.41-1.23 10.9-1.27 16.37-.01 1.13 2.07 2.79 3.51 3.34 13.35 5.08 26.71 10.12 40.18 14.86 15.41 5.42 19.65 20.23 15.57 31.61-1.12 3.13-4.25 6.56-7.28 7.75-4.16 1.64-7.35-1.86-9.79-5.25-9.95-13.82-20.88-26.78-33.86-37.89-2.59-2.22-5.32-4.27-8.64-6.91-.37 7.79-.78 14.53-1 21.28-.47 14.31-1.06 28.61-1.21 42.92-.22 20.91 6.51 29.47 27.09 32.47 10.9 1.59 22.14 1.63 33.19 1.23 11.45-.42 16.2-4.65 18.67-15.66 2.39-10.67 3.9-21.53 5.84-32.3.42-2.34 1.02-4.64 1.53-6.96.5-.01 1.01-.04 1.51-.06z"/><path d="m34.47 238.13c3.92-1.33 6.5-3.01 9.03-2.94 17.93.51 33.02-7.58 48.57-14.87 6.73-3.16 8.98-6.9 8.71-14.24-.61-16.27-.19-32.59-.19-49.78-7.49 2.64-14.56 5.5-21.85 7.57-4.7 1.34-9.75 2.13-14.61 1.99-2.99-.08-5.91-2.38-8.86-3.69.14-.54.29-1.08.43-1.61.96-.52 1.86-1.2 2.88-1.54 13.21-4.37 26.46-8.62 39.62-13.15 1.22-.42 2.61-2.55 2.62-3.9.17-19.28.28-38.57.02-57.85-.09-6.37-1.86-12.5-6.58-17.32-.57-.58-1.11-1.32-1.34-2.09-.58-1.93-1.95-4.57-1.19-5.71.9-1.35 3.8-2.17 5.67-1.94 10.66 1.3 19.34 6.59 26.62 14.28.74.79.97 2.41.86 3.6-1.84 20.15-3.77 40.29-5.69 60.5 1.12.22 1.69.53 2 .37 10.31-5.46 20.35-2.42 30.38.9 3.57 1.18 7.48 2.81 7.01 7.19-.5 4.67-4.36 6.1-8.82 6.35-8.45.46-16.89 1.18-25.33 1.85-1.64.13-3.25.58-5.63 1.03v51c11.86-9.59 23.51-19.42 33.44-31.98-4.46-4.69-8.76-9.21-13.6-14.3 2.26-.33 4.08-1.11 5.66-.75 8.4 1.89 17.01 3.34 25.03 6.32 10.27 3.81 13.75 20.41 6.82 28.97-2.04 2.52-3.83 1.9-5.83-.02-4.68-4.49-9.42-8.91-14.3-13.51-9.41 15.51-22.44 28.5-36.01 41.05-1.21 1.12-1.78 3.53-1.75 5.32.39 24.79 1.23 49.58 1.35 74.38.07 15.35-4.42 29.53-14.71 41.28-1.82 2.07-5.8 4.24-7.87 3.56-2.24-.73-4.29-4.55-4.89-7.34-1.72-8.11-5.68-13.56-13.52-17.07-6.76-3.02-12.75-7.76-19.06-11.77-1.8-1.14-3.52-2.4-5.28-3.61.39-.61.78-1.21 1.17-1.82 1.86.13 3.75.07 5.57.41 8.31 1.56 16.58 3.36 24.91 4.82 6.08 1.06 9.7-.87 11.38-6.82 1.43-5.06 2.28-10.43 2.43-15.68.38-12.82.17-25.66.28-38.49.03-3.57.34-7.14.6-12.21-7.26 6.45-13.73 11.59-19.47 17.46-5.48 5.61-11.61 6.41-18.22 3.67-7.04-2.91-13.88-6.38-20.51-10.13-2.71-1.54-4.64-4.44-7.95-7.74z"/><path d="m126.63 328.21c33.3-28.87 55.24-63.73 60.12-109.18-4.8 3.8-8.97 6.98-12.99 10.34-5.62 4.7-11.32 9.33-16.6 14.39-3.37 3.23-6.96 4.75-11.26 3.28-6.25-2.14-12.45-4.51-18.44-7.29-1.58-.73-2.31-3.32-3.43-5.05 1.61-.99 3.16-2.73 4.84-2.86 20.63-1.59 37.73-12.04 55.23-21.58 3.18-1.73 4.88-3.51 5.06-7.51.92-20.23 2.64-40.43 3.27-60.66.33-10.44-.99-20.83-7.81-29.77-1.64-2.15-2.76-6.56-1.64-8.52 2.02-3.56 6.4-1.65 8.89 0 7.41 4.88 14.42 10.39 21.49 15.78.8.61 1.61 2.23 1.35 3.03-5.43 16.52-2.58 33.62-3.73 50.42-1.7 24.88-4.9 49.5-12.21 73.49-9.79 32.13-30.96 55.74-56.32 76.31-4.39 3.56-8.77 7.15-15.82 5.38z"/></g><path d="m5.17 384 .55-.58c.85.61 1.65 1.24 2.4 1.87l-.59.64c-.83-.73-1.62-1.38-2.36-1.93m1.22 9.53-.82-.34c.71-1.76 1.37-3.64 1.98-5.63.24.13.5.25.76.36-.6 1.67-1.24 3.54-1.92 5.61m-.5-13.5.57-.54c.56.44 1.31 1.06 2.26 1.87l-.64.64c-.68-.66-1.41-1.32-2.19-1.97m3.25.46h2.24v-1.36h.77v1.36h4.57v-1.36h.76v1.36h2.28v.69h-2.28v1.84h-2.64v1.26h4.18v2.64h-4.21c0 .45-.02.86-.05 1.21h4.32v.69h-4.38c-.04.34-.1.75-.19 1.22h5.15v.69h-4.82c.87 1.19 2.51 1.92 4.93 2.19-.17.31-.3.57-.37.76-2.77-.49-4.52-1.41-5.26-2.76-.56 1.26-2.3 2.23-5.24 2.9-.12-.25-.26-.48-.43-.72 2.73-.55 4.38-1.34 4.96-2.38h-4.38v-.69h4.65c.1-.38.17-.79.21-1.22h-4.32v-.69h4.4c.03-.34.05-.75.05-1.21h-4.2v-2.64h4.23v-1.26h-2.69v-1.84h-2.24zm1.46 4.46v1.29h3.45c.01-.4.02-.57.01-.53v-.32-.45h-3.46zm1.55-2.59h4.57v-1.19h-4.57zm6.11 2.59h-3.42v.77c-.01.19-.01.37-.02.53h3.44z" fill="#fcfbfa"/><path d="m32.63 379.16h.82v1.98h3.54v7.89h1.46v.78h-14.37v-.78h1.46v-7.89h3.54v-1.98h.82v1.98h2.73zm-3.49 11.48.5.73c-1.61.82-3.28 1.63-5 2.41-.13-.27-.28-.55-.44-.82 1.75-.72 3.4-1.49 4.94-2.32m-2.78-5.55h2.73v-3.18h-2.73zm0 3.95h2.73v-3.2h-2.73zm3.54-3.95h2.73v-3.18h-2.73zm0 3.95h2.73v-3.2h-2.73zm7.89 4.68c-1.84-.92-3.51-1.7-5.02-2.32l.45-.73c1.89.8 3.57 1.55 5.04 2.23zm-1.62-11.81h-2.73v3.18h2.73zm-2.73 7.13h2.73v-3.2h-2.73z" fill="#fcfbfa"/></svg>