<svg enable-background="new 0 0 400 400" viewBox="0 0 400 400" xmlns="http://www.w3.org/2000/svg"><path d="m144.8 342.55c33.72-5.22 63.26-18.86 88.65-42.87-9.69-3.31-18.61-7.19-28.56-6.47-1.95.14-3.84 1.71-5.69 2.74-4.17 2.31-6.62 1.13-7.26-3.62-.92-6.84.78-12.54 5.87-17.68 4.47-4.51 7.89-10.05 11.77-15.14-.34-.46-.68-.92-1.01-1.37-2.48.48-5.02.75-7.44 1.47-13.04 3.89-25.99 8.06-39.07 11.78-7.94 2.26-23.47-2.91-27.72-9.51 5.48-1.01 10.57-1.78 15.58-2.91 20.72-4.67 41.42-9.43 62.11-14.22 1.06-.24 2.26-.85 2.92-1.67 5.49-6.82 6.59-21.04 2.07-28.87-14.19 3.47-28.67 9.44-43.18-.94 17.46-3.78 34.93-7.56 52.76-11.43 0-7.99 0-16.2 0-25.28-9.09 1.96-17.82 3.81-26.53 5.74-8.13 1.81-15.06-1.1-21.91-5.49 15.52-6.25 32.11-7.34 48.14-11.38 0-7.35 0-14.57 0-22.55-12.31 2.5-24.51 4.23-36.23 7.59-8.32 2.39-15.23.84-22.5-2.67-2.48-1.2-5.59-1.83-8.33-1.63-9.91.74-19.79 1.95-30.24 3.03v50.92c4.94-3.51 9.66-6.69 14.17-10.12 5.16-3.93 10.04-8.24 15.28-12.07 1.54-1.12 3.87-1.16 5.83-1.69-.15 2.02.43 4.57-.58 5.95-4.11 5.6-8.3 11.27-13.25 16.11-5.81 5.69-12.57 10.39-18.61 15.86-1.7 1.54-3.29 4.27-3.28 6.45.1 25.14.15 50.3 1.02 75.42.41 12.09.11 23.92-3.62 35.43-1.15 3.55-3.28 6.89-5.43 9.99-2.5 3.61-5.77 3.48-8.96.66-.86-.76-1.74-1.62-2.3-2.61-6.98-12.32-17.93-20.32-29.66-27.51-3.4-2.08-6.66-4.42-9.84-6.83-1.62-1.23-2.91-2.87-4.36-4.33.22-.46.43-.92.65-1.38 6.26.97 12.52 2.04 18.8 2.89 4.94.66 9.9 1.32 14.87 1.5 7.76.28 9.53-1.32 9.82-9.01.56-14.97.91-29.95 1.25-44.92.13-5.65.02-11.31.02-18.15-2.27 1.8-3.85 3.05-5.42 4.31-9.34 7.51-18.83 14.85-27.95 22.63-3.12 2.66-6.11 3.02-9.63 1.99-8.95-2.59-15.94-8.18-22.03-14.93-3.15-3.49-2.16-6.6 1.76-5.94 18.49 3.11 31.53-8.18 45.7-16.53 5.3-3.12 10.47-6.48 15.56-9.94 1.2-.81 2.62-2.43 2.63-3.7.17-18.98.12-37.96.12-57.48-17.89 4.77-35.03 15.43-54.75 5.96 2.32-.94 4.61-1.98 6.97-2.81 15.34-5.39 30.72-10.67 46-16.2 1.23-.44 2.69-2.5 2.67-3.79-.36-17.96-.8-35.92-1.62-53.86-.16-3.49-2.01-6.91-3.13-10.35-.79-2.43-1.64-4.84-2.78-8.16 2.83 0 4.81-.53 6.3.09 9.08 3.77 16.95 9.34 22.04 17.87 1.44 2.4 1.31 6.06 1.1 9.08-.98 13.72-2.24 27.43-3.44 41.64 4.97-.28 9.03-.69 13.09-.7 8.06-.03 15.28 2.38 21.81 7.3 1.9 1.43 4.92 2.47 7.2 2.14 17.55-2.49 35.05-5.37 52.68-8.14 0-9.46 0-18.19 0-27.41-11.69 2.66-22.91 5.79-34.33 7.61-6.85 1.1-13.98-.04-20.39-3.17-.05-.53-.1-1.07-.15-1.6 18.09-5.14 36.18-10.28 54.87-15.59.2-9.49 1.59-19.43-4-28.57-1.56-2.55-3.09-5.15-4.24-7.9-.72-1.7-.7-3.7-1.02-5.57 2.18-.11 4.77-1.03 6.47-.18 5.61 2.81 10.9 6.26 16.31 9.48.42.25.73.69 1.13.98 6.9 4.83 9.8 11.03 6.84 19.39-.6 1.69-.66 3.58-1.07 5.93 1.38 0 2.64.22 3.8-.03 8.9-1.95 17.7-4.62 26.7-5.86 12.06-1.66 23.38 1.74 33.67 8.01 3.8 2.32 3.3 5.82-1.06 7.3-3.68 1.25-7.82 1.9-11.69 1.71-15.82-.8-31.54-.5-47.2 2.24-4.54.79-6.45 2.6-6.06 7.54.52 6.6.13 13.26.13 20.7 4.13-.81 8.03-1.27 11.74-2.36 9.36-2.76 18.79-5.42 27.9-8.87 5.42-2.06 10.32-2.59 15.13.65 5.36 3.6 10.65 7.35 15.63 11.45 1.19.98 2.03 4.34 1.3 5.41-9.89 14.42-11.88 31.57-17 47.63-2.31 7.24-4.5 14.59-7.68 21.45-2.58 5.56-4.77 5.4-10.46 2.99-1.96-.83-4.76.23-7.16.52-13.86 1.63-27.71 3.28-41.56 4.96-1.39.17-2.74.63-4.99 1.16 8.41 8.04 16.01 15.78 4.97 27.4.57.16 1.14.31 1.71.47 8.56-1.26 17.11-2.51 25.99-3.82 0-2.68-.22-4.85.05-6.96.49-3.94 2.9-5.06 6.28-2.99 1.4.86 3.05 1.84 3.75 3.2 2.66 5.15 6.98 4.6 11.56 4.02 10.21-1.29 20.42-2.84 30.68-3.49 10.05-.64 19.3 3.02 28.1 7.51 4.43 2.26 8.67 4.97 12.72 7.86 1.41 1.01 3.13 3.59 2.71 4.71-.61 1.65-2.95 3.59-4.67 3.71-5.04.35-10.26.48-15.2-.43-17.86-3.27-35.74-5.82-54.49-5.31.84 19.55-12.99 31.89-22.91 46.57 13.78 4.46 27.34 8.8 40.87 13.24 4.73 1.55 9.74 2.71 14.01 5.12 10.91 6.17 16.29 16.29 17.85 28.42.67 5.21-2.04 7.05-7.06 5.21-2.46-.91-5-2.1-6.97-3.79-16.9-14.55-37.01-23.37-56.9-32.73-6.58-3.1-10.87-3.1-16.75 2.14-19.33 17.24-41.79 28.91-67.6 33.1-7.83 1.27-15.88 1.38-23.84 1.56-2.37.05-4.77-1.47-7.15-2.27-.07-.68-.12-1.41-.17-2.14zm99.44-181.72c3.34-.52 6.44-1.5 9.5-1.37 5.36.22 10.89.42 15.97 1.93 3.84 1.14 3.6 4.6-.13 6.44-2.2 1.08-4.67 1.78-7.1 2.22-5.06.91-10.2 1.35-15.23 2.37-1.41.29-3.6 1.86-3.64 2.92-.32 7.45-.17 14.91-.17 22.37 12.03-1.89 24.04-3.77 37.52-5.89 2.15-16.91 4.63-35.12 6.66-53.37.49-4.41-2.7-6.78-7.1-6.21-12.12 1.57-24.21 3.38-36.27 5.09-.01 8.31-.01 15.75-.01 23.5zm17.17 87.12c-7.8 1.11-15.1 2.3-22.44 3.16-7.52.89-12.8 3.63-15.39 11.73-2.17 6.81-6.49 12.93-9.85 19.33 8.35 2.43 16.23 4.89 24.23 6.9 1.58.4 4.33-.37 5.28-1.58 4.29-5.48 8.43-11.14 12.05-17.08 4-6.55 5.98-13.86 6.12-22.46z" fill="#010104"/><g fill="#fcfbfa"><path d="m5.17 384 .55-.58c.85.61 1.65 1.24 2.4 1.87l-.59.64c-.83-.73-1.62-1.38-2.36-1.93m1.22 9.53-.82-.34c.71-1.76 1.37-3.64 1.98-5.63.24.13.5.25.76.36-.6 1.67-1.24 3.54-1.92 5.61m-.5-13.5.57-.54c.56.44 1.31 1.06 2.26 1.87l-.64.64c-.68-.66-1.41-1.32-2.19-1.97m3.25.46h2.24v-1.36h.77v1.36h4.57v-1.36h.76v1.36h2.28v.69h-2.28v1.84h-2.64v1.26h4.18v2.64h-4.21c0 .45-.02.86-.05 1.21h4.32v.69h-4.38c-.04.34-.1.75-.19 1.22h5.15v.69h-4.82c.87 1.19 2.51 1.92 4.93 2.19-.17.31-.3.57-.37.76-2.77-.49-4.52-1.41-5.26-2.76-.56 1.26-2.3 2.23-5.24 2.9-.12-.25-.26-.48-.43-.72 2.73-.55 4.38-1.34 4.96-2.38h-4.38v-.69h4.65c.1-.38.17-.79.21-1.22h-4.32v-.69h4.4c.03-.34.05-.75.05-1.21h-4.2v-2.64h4.23v-1.26h-2.69v-1.84h-2.24zm1.46 4.46v1.29h3.45c.01-.4.02-.57.01-.53v-.32-.45h-3.46zm1.55-2.59h4.57v-1.19h-4.57zm6.11 2.59h-3.42v.77c-.01.19-.01.37-.02.53h3.44z"/><path d="m32.63 379.16h.82v1.98h3.54v7.89h1.46v.78h-14.37v-.78h1.46v-7.89h3.54v-1.98h.82v1.98h2.73zm-3.49 11.48.5.73c-1.61.82-3.28 1.63-5 2.41-.13-.27-.28-.55-.44-.82 1.75-.72 3.4-1.49 4.94-2.32m-2.78-5.55h2.73v-3.18h-2.73zm0 3.95h2.73v-3.2h-2.73zm3.54-3.95h2.73v-3.18h-2.73zm0 3.95h2.73v-3.2h-2.73zm7.89 4.68c-1.84-.92-3.51-1.7-5.02-2.32l.45-.73c1.89.8 3.57 1.55 5.04 2.23zm-1.62-11.81h-2.73v3.18h2.73zm-2.73 7.13h2.73v-3.2h-2.73z"/></g></svg>