<svg enable-background="new 0 0 400 400" viewBox="0 0 400 400" xmlns="http://www.w3.org/2000/svg"><g fill="#010104"><path d="m132.89 301.59c3.3-.56 6.59-1.19 9.91-1.65 8.2-1.13 16.44-2.01 24.59-3.44 1.39-.25 3.41-2.73 3.42-4.2.19-19.95.24-39.91-.09-59.86-.07-4.56-1.91-9.07-2.51-13.66-.28-2.14.47-4.4.75-6.61 2.18.4 4.8.17 6.45 1.33 3.92 2.75 7.54 5.98 10.99 9.33 4.01 3.89 2.69 8.96 2.34 13.71-1.3 17.88-2.64 35.76-4.06 54.91 7.94-3 14.88-5.56 21.73-8.32.74-.3 1.35-1.82 1.4-2.81 1.66-31.78 1.97-63.52-4.04-94.96-.89-4.66-2.85-9.12-4.46-14.13-2.32.56-4.12.74-5.72 1.41-9.37 3.91-17.44.32-25.21-4.41-1.49-.91-2.29-2.94-3.41-4.46 1.64-.95 3.18-2.43 4.94-2.77 11.21-2.17 22.56-3.71 33.7-6.18 17.14-3.81 34.14-8.2 51.79-12.49-.85-8.64-1.62-17.33-2.57-26.01-1.57-14.19-3-28.41-4.98-42.54-1.3-9.25-3.99-18.11-10.06-25.68-1.41-1.75-1.34-4.69-1.95-7.08 2.52-.23 5.29-1.26 7.53-.57 9.91 3.09 17.79 9.61 25.11 16.65 1.65 1.59 2.34 4.78 2.43 7.28.56 15.3.61 30.62 1.24 45.91.37 8.77 1.53 17.5 2.39 26.93 6.83-1.66 13.21-3.3 19.63-4.75 12.4-2.8 24.41-8.36 37.53-6.44 6.66.97 13.38 2.4 19.67 4.7 2.73 1 4.44 4.74 6.62 7.24-2.86 1.98-5.5 5.06-8.63 5.71-5.8 1.19-11.9.85-17.86 1.33-17.05 1.35-34.1 2.78-51.15 4.23-1.13.1-2.23.62-4.07 1.15 1.69 10.43 3.13 20.89 5.12 31.24 7.79 40.6 21.42 79.12 41.8 115.16 1.04 1.85 2.28 3.74 3.88 5.09 5.46 4.6 9.5 3.98 12.82-2.34 5.17-9.86 9.88-19.96 14.9-29.9 1.06-2.1 2.65-3.93 3.99-5.89.62.15 1.24.29 1.86.44 0 2.56.32 5.17-.05 7.68-2.39 16.07-5.58 32.05-7.12 48.2-.67 7.03 1.83 14.38 3.07 21.56 1 5.79-1.67 8.43-7.16 6.35-11.09-4.19-19.25-12.33-26.8-21.05-15.69-18.09-26.01-39.29-34.75-61.33-13.7-34.53-22.41-70.43-29.02-106.89-.32-1.78-.84-3.52-1.48-6.15-16.35 4.85-32.47 9.62-49.41 14.64 3.97 3.17 7.11 5.83 10.41 8.29 7.11 5.29 8.73 12.28 7.5 20.74-1.03 7.04-1.08 14.21-1.63 22.34 4.61-2.34 8.68-4.3 12.65-6.44 5.43-2.92 10.86-2.7 16.28-.19 4.05 1.87 4.6 5.17.88 7.6-3.12 2.04-6.84 3.25-10.41 4.49-5.64 1.96-13.26 2.04-16.51 5.9-3.05 3.63-1.8 11.11-1.95 16.91-.24 9.12-.06 18.25-.06 28.15 7.03-2.83 14.33-5.75 21.61-8.72 5.37-2.19 10.65-4.64 16.12-6.55 1.75-.61 3.98.16 5.99.31-.97 1.93-1.43 4.58-2.99 5.65-7.8 5.37-15.58 10.89-23.93 15.31-22.76 12.03-45.81 23.5-68.72 35.24-6.72 3.45-13.17 3.07-19.97-.12-7.36-3.45-14.8-6.58-20.42-12.62.01-.63.06-1.27.11-1.9z"/><path d="m80.68 181.12c7.11-1.08 12.55 3.07 18.06 6.52 5.46 3.42 10.55 7.44 16.08 11.39 8.6-15.54 13.99-30.94 5.73-48.07-1.3-2.7-2.29-4.28-5.91-3.19-14.9 4.49-29.93 8.55-44.88 12.91-8.33 2.43-16.12 1.26-23.68-2.15-.15-.62-.29-1.24-.44-1.86 2.85-1.28 5.6-2.93 8.57-3.78 23.77-6.76 47.59-13.38 71.39-20.02 7.98-2.23 15.92-4.67 23.98-6.55 7.86-1.84 14.83.78 20.75 5.94 4.08 3.55 3.16 7.26-2.1 8.72-2.84.79-5.89.92-8.86 1.08-9.26.5-18.53.87-27.8 1.3-.11.48-.22.95-.33 1.43 3.45 2.74 6.95 5.4 10.33 8.23 8.71 7.28 9.92 9.92 5.78 20.58-4.62 11.88-10.17 23.41-15.76 34.88-1.52 3.12-1.7 4.91.97 7.2 3.53 3.03 6.65 6.55 10.12 9.65 9.08 8.1 12.32 17.96 8.42 29.54-1 2.98-3.64 7.14-5.98 7.46-2.36.33-6.18-2.89-7.79-5.52-5.11-8.34-9.46-17.16-14.19-25.74-.93-1.68-2.25-3.15-3.45-4.79-21.69 29.03-44.53 56.22-76.68 73.45-.66-.6-1.33-1.2-1.99-1.8 2.85-3.34 5.46-6.93 8.6-9.98 22.09-21.43 41.62-44.86 56.71-71.83 1.7-3.03 1.53-4.98-.86-7.3-7.15-6.94-14.22-13.97-21.27-21.02-1.65-1.65-3.12-3.48-4.67-5.22.4-.5.77-.98 1.15-1.46z"/><path d="m133.05 102.42c-.48 1.99-.73 6.03-2.46 9.28-1.4 2.62-4.42 5.59-7.06 5.95-2.11.28-5.57-2.63-6.96-4.98-6.2-10.57-13.43-20.23-22.61-28.37-2.23-1.98-4.91-3.49-6.92-5.64-1.2-1.29-1.49-3.42-2.19-5.17 1.63-.55 3.27-1.59 4.88-1.54 2.61.07 5.26.64 7.79 1.38 6.84 2 13.64 4.15 20.43 6.33 9.45 3.02 15.21 11.07 15.1 22.76z"/><path d="m175.68 120.61c2.06-1.02 3.29-1.8 4.63-2.26 12.67-4.37 25.37-8.68 38.05-13.03 7.81-2.68 15.72-4.88 23.57-.68 2.2 1.18 3.61 3.83 5.39 5.81-2.12 1.85-3.98 4.8-6.4 5.37-9.98 2.35-20.16 3.83-30.21 5.94-5.18 1.09-10.32 2.57-15.32 4.33-7.69 2.74-13.29-.86-19.71-5.48z"/><path d="m286.73 79.56c3.02-.79 4.81-1.69 6.57-1.65 11.3.27 22 3.03 31.55 9.14 7.52 4.8 10.17 12.28 7.78 19.72-2.24 6.96-7.92 8.73-13.39 3.98-1.98-1.71-3.63-3.87-5.15-6.02-5.83-8.22-12.5-15.46-21.65-20.13-1.79-.91-3.12-2.7-5.71-5.04z"/></g><path d="m5.17 384 .55-.58c.85.61 1.65 1.24 2.4 1.87l-.59.64c-.83-.73-1.62-1.38-2.36-1.93m1.22 9.53-.82-.34c.71-1.76 1.37-3.64 1.98-5.63.24.13.5.25.76.36-.6 1.67-1.24 3.54-1.92 5.61m-.5-13.5.57-.54c.56.44 1.31 1.06 2.26 1.87l-.64.64c-.68-.66-1.41-1.32-2.19-1.97m3.25.46h2.24v-1.36h.77v1.36h4.57v-1.36h.76v1.36h2.28v.69h-2.28v1.84h-2.64v1.26h4.18v2.64h-4.21c0 .45-.02.86-.05 1.21h4.32v.69h-4.38c-.04.34-.1.75-.19 1.22h5.15v.69h-4.82c.87 1.19 2.51 1.92 4.93 2.19-.17.31-.3.57-.37.76-2.77-.49-4.52-1.41-5.26-2.76-.56 1.26-2.3 2.23-5.24 2.9-.12-.25-.26-.48-.43-.72 2.73-.55 4.38-1.34 4.96-2.38h-4.38v-.69h4.65c.1-.38.17-.79.21-1.22h-4.32v-.69h4.4c.03-.34.05-.75.05-1.21h-4.2v-2.64h4.23v-1.26h-2.69v-1.84h-2.24zm1.46 4.46v1.29h3.45c.01-.4.02-.57.01-.53v-.32-.45h-3.46zm1.55-2.59h4.57v-1.19h-4.57zm6.11 2.59h-3.42v.77c-.01.19-.01.37-.02.53h3.44z" fill="#fcfbfa"/><path d="m32.63 379.16h.82v1.98h3.54v7.89h1.46v.78h-14.37v-.78h1.46v-7.89h3.54v-1.98h.82v1.98h2.73zm-3.49 11.48.5.73c-1.61.82-3.28 1.63-5 2.41-.13-.27-.28-.55-.44-.82 1.75-.72 3.4-1.49 4.94-2.32m-2.78-5.55h2.73v-3.18h-2.73zm0 3.95h2.73v-3.2h-2.73zm3.54-3.95h2.73v-3.18h-2.73zm0 3.95h2.73v-3.2h-2.73zm7.89 4.68c-1.84-.92-3.51-1.7-5.02-2.32l.45-.73c1.89.8 3.57 1.55 5.04 2.23zm-1.62-11.81h-2.73v3.18h2.73zm-2.73 7.13h2.73v-3.2h-2.73z" fill="#fcfbfa"/></svg>