<svg enable-background="new 0 0 400 400" viewBox="0 0 400 400" xmlns="http://www.w3.org/2000/svg"><g fill="#010104"><path d="m110.3 221.07c6.48-3.11 11.84-5.62 17.14-8.24 6.24-3.09 12.74-4.05 19.29-1.61 2.16.81 3.73 3.21 5.58 4.88-1.64 1.68-2.99 4.26-4.97 4.89-6.45 2.07-13.12 3.43-19.71 5.06-.32.08-.68.03-.99.12-5.09 1.51-11.72 1.61-14.8 4.97-2.69 2.92-1.43 9.52-1.82 14.49-.68 8.78-1.27 17.56-1.96 26.34-.09 1.14-.26 2.41-.83 3.34-1.17 1.9-2.49 4.9-4.02 5.07-1.96.22-4.66-1.44-6.22-3.08-4.65-4.87-7.21-10.97-6.97-17.67.36-10.45 1.41-20.87 2.09-31.3 1-15.42 2.07-30.84 2.84-46.28.34-6.77-.05-13.58.02-20.37.05-5.27 1.69-7.51 6.82-6.96 21.55 2.3 40.99-5.05 60.2-12.98 7.28-3.01 12.57-.46 17.87 3.44 5.15 3.79 8.17 8 6.52 15.59-4.74 21.85-1.6 44.12-2.02 66.21-.29 15.09 1.44 30.33-3.25 45.07-1.15 3.61-2.6 7.21-4.5 10.46-2.46 4.2-4.78 4.42-8.56 1.51-1.05-.81-2.16-1.65-2.94-2.69-8.46-11.25-19.58-19.34-31.26-26.84-2.25-1.45-4.14-3.45-6.2-5.2.22-.55.44-1.1.65-1.65 4.62.5 9.24 1 13.85 1.52.49.06.96.27 1.45.36 15.85 2.82 21.1-1.55 21.35-17.71.32-20.47.67-40.94 1-61.41.03-1.83.07-3.67-.03-5.5-.43-7.78-3.7-10.84-11.25-9.36-13.33 2.6-26.59 5.64-39.8 8.81-1.48.36-3.41 2.74-3.5 4.29-.39 6.63-.17 13.29-.17 21.28 5.36-2.79 10.3-4.97 14.84-7.8 7.31-4.55 14.59-4.01 21.82-.41 4.48 2.23 4.56 5.65-.04 7.48-6.27 2.49-12.94 3.98-19.45 5.87-.95.28-1.97.34-2.91.64-4.71 1.48-9.4 3.01-14.1 4.53-.34 6.53-.67 13.07-1.06 20.84z"/><path d="m317.96 205.94c.97 3.68 1.86 7.39 2.94 11.05 2.74 9.34 5.24 18.78 8.46 27.96 2.32 6.62 1.56 10.09-5.08 12.54-4.47 1.65-9.25 3.03-13.97 3.33-23.75 1.53-47.51 2.42-71.02-2.66-15.84-3.42-24.83-14.57-25.32-30.69-.44-14.45-.99-28.92-2.15-43.32-.36-4.44-2.73-8.78-4.51-13.03-1.81-4.31-.61-6.72 3.97-7.1 6.98-.58 20.56 6.62 22.59 13.31 1.3 4.3.07 9.4-.15 14.13-.13 2.95-.49 5.88-.83 9.88 8.86-3.88 16.97-7.23 24.9-10.96 7.35-3.45 14.72-5.15 22.62-2.17.62.23 1.38.33 1.83.76 2.31 2.18 4.54 4.45 6.79 6.69-2.47 1.98-4.67 5.06-7.46 5.73-10.94 2.64-22.06 4.51-33.12 6.68-2.92.57-5.85 1.14-8.75 1.79-7.97 1.8-8.02 1.81-8.46 9.77-.19 3.49-.16 6.99-.14 10.49.04 7.58 3.7 12.8 11.02 14.63 18.25 4.57 36.57 3.92 54.77-.31 9.16-2.13 13.92-8.4 15.01-17.64.6-5.11 1.27-10.21 2.08-15.29.3-1.86 1.08-3.63 1.64-5.45.77-.02 1.55-.07 2.34-.12z"/><path d="m104.82 119.85c23.41-6.42 46.82-12.84 70.94-19.45-2.53-4.7-4.85-8.48-6.62-12.5-.79-1.79-.51-4.06-.71-6.11 1.88.03 4.02-.51 5.59.2 7.1 3.22 14.35 6.28 20.95 10.38 9.47 5.89 10.62 15.48 8.91 25.14-1.03 5.84-6.35 7.77-10.96 4-3.27-2.68-5.85-6.28-8.4-9.73-2.21-2.98-4.09-4.16-8.12-2.57-25.47 10.07-51.06 19.84-76.65 29.6-15.26 5.82-27.08 2.73-37.84-9.82-1.05-1.23-1.92-3.34-1.61-4.77.21-.95 2.59-1.86 4.1-2.04 7.08-.87 14.23-1.26 21.29-2.3 2.31-.34 5.33-1.56 6.47-3.36 10.63-16.85 21.24-33.73 31.07-51.05 2.52-4.45 2.7-10.46 3.1-15.82.36-4.85 1.87-6.48 6.32-4.73 1.22.48 2.6.99 3.44 1.91 4.64 5.16 9.42 10.23 13.57 15.77 2.56 3.42 2.09 6.84-1.97 9.78-15.62 11.33-29.05 24.87-39.93 40.87-1.19 1.75-2.4 3.5-3.6 5.24.2.44.43.9.66 1.36z"/><path d="m239.72 112.35c0 8.03-.38 15.51.11 22.93.44 6.58 3.23 8.86 9.86 9.58 11.87 1.28 23.51-.12 34.9-3.51 8.46-2.51 21.09 2.45 25.53 10.14 1.55 2.69.84 4.66-1.85 5.52-3.13 1-6.44 2-9.66 1.98-17.97-.13-35.95-.27-53.9-1.01-13.44-.56-21.54-10.33-21.69-26.05-.13-13.46.47-26.94.93-40.4.52-14.97-2.7-29.01-9.76-42.23-2.21-4.14-1.45-5.6 2.38-5.65 9.42-.12 28.03 14.87 28.9 24.14.45 4.79-1.15 9.77-1.81 14.67-.85 6.37-1.68 12.74-2.7 20.46 8.5-3.4 15.99-6.37 23.47-9.39 3.69-1.49 7.22-3.7 11.04-4.44 8.64-1.66 16.39 1.41 23.47 6.16 1.17.79 2.55 3.09 2.17 3.97-.67 1.56-2.46 3.31-4.07 3.68-7.28 1.65-14.65 2.9-22 4.19-5.72 1.01-11.46 1.94-17.21 2.8-5.73.85-11.48 1.56-18.11 2.46z"/><path d="m281.66 290.75c2.64.28 5.55-.06 7.88.95 12.01 5.21 24.32 9.96 35.66 16.39 14.64 8.3 20.47 24.77 15.99 40.47-2.16 7.57-8.13 9.69-13.89 4.35-3.46-3.2-6.28-7.29-8.67-11.4-9.06-15.61-18.89-30.56-32.75-42.46-2.05-1.76-3.44-4.28-5.14-6.45.3-.62.61-1.23.92-1.85z"/><path d="m86.44 317.91c-1.26 7.97-2.75 18.43-4.66 28.81-.49 2.67-2.1 5.21-3.55 7.6-3.19 5.25-8.44 7.81-12.83 6.53-4.49-1.3-9.08-6.86-8.25-12.37 1.35-8.94 3.23-17.96 6.31-26.42 3.73-10.25 8.88-20 13.61-29.87.79-1.64 2.53-2.83 3.83-4.22 1.05 1.54 2.82 2.98 3.04 4.63.99 7.54 1.54 15.13 2.5 25.31z"/><path d="m241.8 338.21c-6.14.05-11.01-2.65-14.34-7.6-2.86-4.24-4.97-8.99-7.58-13.41-4.72-7.99-9.64-15.87-14.32-23.88-.91-1.56-1.13-3.53-1.67-5.31 1.82.07 3.99-.49 5.42.3 11.63 6.4 23.39 12.63 34.57 19.77 6.7 4.28 11.74 10.55 10.5 19.47-1.03 7.43-5.05 10.63-12.58 10.66z"/><path d="m179.35 324.43c-.02 8.09-3.26 13.31-7.82 14.54-5.75 1.54-11.04-.57-14.05-6.69-5.05-10.26-9.66-20.73-14.22-31.22-1.55-3.58.24-5.4 4.11-4.31 2.33.65 4.63 1.75 6.65 3.1 6.35 4.23 12.73 8.44 18.75 13.1 4.21 3.25 6.64 7.82 6.58 11.48z"/></g><path d="m5.17 384 .55-.58c.85.61 1.65 1.24 2.4 1.87l-.59.64c-.83-.73-1.62-1.38-2.36-1.93m1.22 9.53-.82-.34c.71-1.76 1.37-3.64 1.98-5.63.24.13.5.25.76.36-.6 1.67-1.24 3.54-1.92 5.61m-.5-13.5.57-.54c.56.44 1.31 1.06 2.26 1.87l-.64.64c-.68-.66-1.41-1.32-2.19-1.97m3.25.46h2.24v-1.36h.77v1.36h4.57v-1.36h.76v1.36h2.28v.69h-2.28v1.84h-2.64v1.26h4.18v2.64h-4.21c0 .45-.02.86-.05 1.21h4.32v.69h-4.38c-.04.34-.1.75-.19 1.22h5.15v.69h-4.82c.87 1.19 2.51 1.92 4.93 2.19-.17.31-.3.57-.37.76-2.77-.49-4.52-1.41-5.26-2.76-.56 1.26-2.3 2.23-5.24 2.9-.12-.25-.26-.48-.43-.72 2.73-.55 4.38-1.34 4.96-2.38h-4.38v-.69h4.65c.1-.38.17-.79.21-1.22h-4.32v-.69h4.4c.03-.34.05-.75.05-1.21h-4.2v-2.64h4.23v-1.26h-2.69v-1.84h-2.24zm1.46 4.46v1.29h3.45c.01-.4.02-.57.01-.53v-.32-.45h-3.46zm1.55-2.59h4.57v-1.19h-4.57zm6.11 2.59h-3.42v.77c-.01.19-.01.37-.02.53h3.44z" fill="#fcfbfa"/><path d="m32.63 379.16h.82v1.98h3.54v7.89h1.46v.78h-14.37v-.78h1.46v-7.89h3.54v-1.98h.82v1.98h2.73zm-3.49 11.48.5.73c-1.61.82-3.28 1.63-5 2.41-.13-.27-.28-.55-.44-.82 1.75-.72 3.4-1.49 4.94-2.32m-2.78-5.55h2.73v-3.18h-2.73zm0 3.95h2.73v-3.2h-2.73zm3.54-3.95h2.73v-3.18h-2.73zm0 3.95h2.73v-3.2h-2.73zm7.89 4.68c-1.84-.92-3.51-1.7-5.02-2.32l.45-.73c1.89.8 3.57 1.55 5.04 2.23zm-1.62-11.81h-2.73v3.18h2.73zm-2.73 7.13h2.73v-3.2h-2.73z" fill="#fcfbfa"/></svg>