<svg enable-background="new 0 0 400 400" viewBox="0 0 400 400" xmlns="http://www.w3.org/2000/svg"><path d="m151.59 310.81c6.17 1.82 12.31 3.77 18.52 5.41 6.09 1.6 12.23 3.05 18.41 4.25 6.33 1.23 10.57-.58 12.91-6.61 2.43-6.28 4.63-12.94 5.23-19.59 2.71-30.09 1.97-60.12-3.76-89.89-.34-1.79-.8-3.57-1.29-5.32-.17-.61-.61-1.14-1.06-1.96-7.75 9.35-15.15 18.72-23.02 27.69-28.43 32.37-60.39 60.56-98.21 81.61-7.18 3.99-14.17 8.9-22.93 9.07-.92.02-1.84-.16-4.41-.4 3.61-3.03 6.05-5.37 8.77-7.31 44.3-31.58 83.02-68.76 113.54-114.02 5.69-8.45 10.19-17.7 15.24-26.58-.38-.39-.77-.78-1.15-1.17-10.57 3.2-21.23 6.16-31.7 9.66-20.46 6.84-40.89 13.76-61.18 21.08-12.69 4.58-24.69 4.36-36.3-2.78-1.51-.93-2.88-2.1-5.6-4.11 25.49-6.69 49.75-12.81 73.87-19.48 24.29-6.72 48.42-13.99 72.01-20.84-6.12-7.55-11.83-15.93-18.9-22.96-6.9-6.86-15.18-12.33-22.86-18.4.19-.61.37-1.21.56-1.82 7.15.61 14.33 1.02 21.44 1.92 3.92.49 7.98 1.27 11.53 2.88 4.3 1.96 6.82.95 9.42-2.66 8.05-11.21 16.44-22.17 24.43-33.42 2.26-3.18 5.01-7.79 1.77-10.82-2.04-1.91-7.21-1.6-10.59-.75-29.97 7.55-58.26 19.36-85.16 34.54-.98.56-2.15 1.24-3.19 1.17-10-.68-18.23-5.03-25.22-11.8-.03-.63-.06-1.26-.08-1.9 4.47-1.28 8.88-2.78 13.41-3.81 29.53-6.74 57.97-16.76 86.06-27.92 7.25-2.88 14.55-5.67 21.99-8 2.46-.77 5.95-.94 8.05.25 9.67 5.47 19.36 11.03 28.37 17.5 6.9 4.95 6.39 8.45-1.04 12.42-13.97 7.45-27.91 14.87-39.68 25.68-5.26 4.83-10.52 9.67-16.13 14.83 7.03 7.82 13.59 15.63 10.25 27.9 16.23-4.07 31.61-7.88 46.98-11.78 13.35-3.39 26.64-7.01 40.05-10.18 2.85-.67 6.73-.87 9.01.54 11.69 7.23 23.32 14.65 34.35 22.84 6.33 4.7 5.18 8.35-2.44 10.25-18.58 4.62-35.06 13.14-49.7 25.47-3.24 2.73-7.32 4.45-11.01 6.63-.46-.59-.93-1.19-1.39-1.78 4.85-5.78 9.9-11.41 14.5-17.38 3.94-5.12 7.79-10.4 10.9-16.04 4.15-7.53 1.4-12.1-7.31-11.56-9.91.62-19.88 1.86-29.6 3.88-19.97 4.14-39.79 8.97-59.67 13.56-1.73.4-3.38 1.12-4.05 1.35 4.79 10.33 11.06 20.1 13.85 30.77 4.21 16.12 6.97 32.79 8.54 49.4 1.55 16.52 1.55 33.26.97 49.87-.59 17.06-2.1 34.16-8.53 50.34-2.35 5.91-5.97 10.67-11.23 14.27-2.82 1.93-5.23 1.83-7.41-.88-.73-.91-1.66-1.7-2.22-2.7-8.35-15.04-22.46-23.21-36.84-31.14-3.91-2.16-7.48-4.94-11.21-7.43.37-.63.75-1.24 1.14-1.84z" fill="#010104"/><g fill="#fcfbfa"><path d="m5.17 384 .55-.58c.85.61 1.65 1.24 2.4 1.87l-.59.64c-.83-.73-1.62-1.38-2.36-1.93m1.22 9.53-.82-.34c.71-1.76 1.37-3.64 1.98-5.63.24.13.5.25.76.36-.6 1.67-1.24 3.54-1.92 5.61m-.5-13.5.57-.54c.56.44 1.31 1.06 2.26 1.87l-.64.64c-.68-.66-1.41-1.32-2.19-1.97m3.25.46h2.24v-1.36h.77v1.36h4.57v-1.36h.76v1.36h2.28v.69h-2.28v1.84h-2.64v1.26h4.18v2.64h-4.21c0 .45-.02.86-.05 1.21h4.32v.69h-4.38c-.04.34-.1.75-.19 1.22h5.15v.69h-4.82c.87 1.19 2.51 1.92 4.93 2.19-.17.31-.3.57-.37.76-2.77-.49-4.52-1.41-5.26-2.76-.56 1.26-2.3 2.23-5.24 2.9-.12-.25-.26-.48-.43-.72 2.73-.55 4.38-1.34 4.96-2.38h-4.38v-.69h4.65c.1-.38.17-.79.21-1.22h-4.32v-.69h4.4c.03-.34.05-.75.05-1.21h-4.2v-2.64h4.23v-1.26h-2.69v-1.84h-2.24zm1.46 4.46v1.29h3.45c.01-.4.02-.57.01-.53v-.32-.45h-3.46zm1.55-2.59h4.57v-1.19h-4.57zm6.11 2.59h-3.42v.77c-.01.19-.01.37-.02.53h3.44z"/><path d="m32.63 379.16h.82v1.98h3.54v7.89h1.46v.78h-14.37v-.78h1.46v-7.89h3.54v-1.98h.82v1.98h2.73zm-3.49 11.48.5.73c-1.61.82-3.28 1.63-5 2.41-.13-.27-.28-.55-.44-.82 1.75-.72 3.4-1.49 4.94-2.32m-2.78-5.55h2.73v-3.18h-2.73zm0 3.95h2.73v-3.2h-2.73zm3.54-3.95h2.73v-3.18h-2.73zm0 3.95h2.73v-3.2h-2.73zm7.89 4.68c-1.84-.92-3.51-1.7-5.02-2.32l.45-.73c1.89.8 3.57 1.55 5.04 2.23zm-1.62-11.81h-2.73v3.18h2.73zm-2.73 7.13h2.73v-3.2h-2.73z"/></g></svg>