<svg enable-background="new 0 0 400 400" viewBox="0 0 400 400" xmlns="http://www.w3.org/2000/svg"><g fill="#010104"><path d="m194.41 255.24c3.88-11.72 7.81-23.15 11.41-34.69 1.43-4.57 2.51-9.32 3.04-14.07.71-6.45-.21-7.17-6.65-7.44-5.44-.23-10.9-.24-16.3-.81-7.23-.76-8.69-3.85-5.43-10.52 8.03-16.43 16.08-32.84 24.06-49.29.94-1.93 1.81-4 2.14-6.1.34-2.16 0-4.44-.05-6.66-2.23.21-4.69-.14-6.63.72-6.53 2.88-12.92 6.08-19.26 9.36-5.85 3.02-16.3 1.47-21.52-4.26 2.69-1.27 4.95-2.98 7.43-3.41 14.58-2.53 27.75-7.79 38.62-18.18 5.67-5.43 8.68-5.34 16.62.48 4 2.93 7.76 6.25 11.36 9.68 4.52 4.32 4.53 6.2.45 11.01-13.24 15.62-26.55 31.18-39.78 46.81-1.71 2.02-3.38 4.18-4.54 6.54-1.46 2.98-.54 5.75 3.14 5.42 7.87-.69 15.69-2.04 23.54-3 2.03-.25 4.64-.91 6.06.02 4.68 3.07 9.06 6.66 13.27 10.35.87.76 1.17 3.12.69 4.31-7.13 17.33-14.41 34.59-21.72 51.84-1.61 3.79-3.48 7.46-5.54 11.83 12.44 7.94 24.63 15.99 37.08 23.62 23.85 14.62 49.13 25.89 76.94 30.41 10.78 1.75 21.76 2.29 32.65 3.38 1.32.13 2.92-.18 3.91.46 1.52.98 3.34 2.44 3.69 4 .28 1.25-1.11 3.83-2.34 4.28-4.93 1.84-10 3.5-15.16 4.47-13.7 2.59-27.43 4.99-41.22 7.05-7.52 1.13-13.38-3.04-18.89-7.51-16.14-13.11-32.05-26.52-48.47-39.28-10.37-8.05-21.48-15.15-32.76-23.03-1.87 2.52-3.67 4.8-5.32 7.19-17.58 25.59-39.25 46.94-65.72 63.27-3.41 2.11-6.78 4.88-12.38 3.05 1.48-1.69 2.37-3.14 3.63-4.1 26.5-20.07 48.32-44.18 63.88-73.72.61-1.16 1.09-2.4 1.98-4.4-8.83-4.75-17.56-9.41-26.24-14.17-2.01-1.1-4.17-2.29-5.6-3.98-.95-1.13-1.47-3.6-.86-4.8.63-1.24 2.9-2.37 4.37-2.28 2.21.14 4.48 1.14 6.51 2.2 8.37 4.41 16.65 8.95 25.91 13.95z"/><path d="m105.32 69.55c9.02 7.38 16.16 14.09 19.66 23.52.79 2.13-.74 5.84-2.31 8.02-8.66 12.01-17.64 23.8-26.55 35.63-8.51 11.3-17.07 22.55-25.6 33.84-.87 1.15-1.6 2.39-2.92 4.39 7.85 0 14.92-.01 21.99 0 2.83 0 5.84-.57 8.46.18 6.65 1.93 9.4-1.79 12.16-6.8 3.84-6.98 8.33-13.6 12.39-20.48 3.52-5.98 5.82-12.28 4.22-19.43-.32-1.43-.34-3.03-.05-4.46.71-3.47 3.01-5.14 6.12-3.09 7.91 5.22 12.99 12.85 15.76 21.71.64 2.03-1.38 5.42-3.02 7.54-9.84 12.78-19.96 25.35-29.92 38.05-10.68 13.61-21.29 27.28-31.91 40.95-.79 1.02-1.38 2.2-2.89 4.66 16.44-4.22 31.61-8.11 46.75-12 1.42-10.57-7.22-16.7-10.99-26.32 3.19.69 5.16.58 6.4 1.47 6.32 4.57 12.99 8.83 18.51 14.25 9.03 8.86 9.65 20.04 5.8 31.47-.75 2.22-3.66 5.03-5.71 5.14-2.37.13-5.98-1.84-7.11-3.94-2.45-4.59-3.67-9.84-5.68-15.64-5.64 2.1-11.66 4.17-17.55 6.58-15.11 6.19-29.99 12.83-42.35 23.89-2.65 2.37-4.85 1.45-5.93-1.25-2.26-5.68-4.32-11.48-5.8-17.4-.34-1.35 1.62-3.88 3.16-5.01 16.77-12.37 27.41-29.69 38.27-46.85.26-.4.32-.93.64-1.94-11.55-1.81-22.35.6-32.95 4.37-3.44 1.22-6.71 2.92-10.13 4.19-3.37 1.25-6.16.55-6.43-3.55-.35-5.26-.59-10.57-.17-15.8.15-1.86 2.18-3.74 3.68-5.3 3.67-3.81 8.18-6.98 11.19-11.23 14.73-20.85 26.37-43.47 36.38-66.9 1.63-3.81 1.27-8.45 2.03-12.67.5-2.83 1.34-5.58 2.4-9.79z"/><path d="m291.53 174.46c-.97 21.82-1.85 41.89-2.8 63.23 7.96-2.07 15.22-3.47 22.14-5.86 9.85-3.4 18.96-2.19 27.77 2.84 1.84 1.05 3.62 2.43 5 4.02 2.58 2.97 1.86 6.09-1.7 7.08-3.9 1.09-8.19 1.38-12.25 1.13-21.29-1.31-42.09 1.26-62.62 6.86-7.19 1.96-14.5 3.65-21.85 4.85-2.92.48-6.2-.37-9.13-1.24-1.44-.43-2.46-2.28-3.68-3.49 1.46-.95 2.8-2.35 4.39-2.75 6.26-1.59 12.62-2.79 18.91-4.28 5.33-1.27 10.66-2.58 15.87-4.24 1.31-.42 3.08-2.29 3.07-3.49-.15-19.14-.54-38.29-.91-57.43-.01-.44-.35-.88-.83-2-9.21 2.58-18.45 5.11-27.65 7.77-5.18 1.5-10.32 2.96-15.4-.19-1.35-.83-2.53-1.93-4.79-3.68 3.05-1.19 5.04-2.2 7.15-2.75 12.68-3.33 25.36-6.65 38.1-9.73 2.61-.63 3.57-1.6 3.53-4.29-.2-11.49-.19-22.99-.31-34.49-.01-1.32-.32-2.64-.55-3.94-1.18-6.58-2.11-6.96-7.96-4.29-5.12 2.34-10.33 4.52-15.64 6.36-2.51.87-5.35.77-8.04 1.11-.17-.46-.35-.93-.52-1.39 2.06-1.48 4.07-3.04 6.19-4.42 13.91-9.02 26.62-19.45 37.38-32.1 4.21-4.95 7.99-10.11 6.66-17.47-.71-3.93 2.13-5.77 5.66-3.66 7.54 4.5 13.43 10.76 17.57 18.61 1.63 3.09-.61 4.23-2.54 5.47-9.09 5.85-18.22 11.63-27.34 17.45-.81.51-1.59 1.07-2.35 1.58.22.51.28.98.47 1.05 8.9 2.93 10.86 9.36 9.93 17.98-.92 8.59-.91 17.27-1.26 25.92-.06 1.44.13 2.89.26 5.31 6.67-2.19 12.98-3.69 18.82-6.29 13.7-6.1 25.24-.2 36.7 6.04 1.46.79 2.92 3.97 2.43 5.33-.62 1.71-3.17 3.61-5.04 3.79-3.57.34-7.24-.79-10.87-.78-13.88.01-27.76.28-41.97.47z"/><path d="m73.36 319.27c-.36 2.44-.46 4.96-1.13 7.32-1.71 6.04-6.36 7.68-11.43 3.91-2.36-1.76-4.71-3.89-6.24-6.36-7.51-12.17-14.41-24.67-16.91-39-.3-1.73.05-4.06 1.07-5.34.53-.66 3.44-.05 4.85.74 9.84 5.5 20.4 10.41 25.3 21.52 2.36 5.35 3.57 11.21 5.3 16.84-.27.12-.54.24-.81.37z"/><path d="m151.02 281.9c0 1.55.3 3.28-.06 4.86-.89 3.88-2.71 7.23-6.91 8.38-4.31 1.18-7.14-1.33-9.07-4.57-6.19-10.41-12.16-20.96-18.13-31.5-.5-.88-.81-2.45-.36-3.13.4-.6 2.14-.83 3.03-.5 9.2 3.33 18.53 6.41 25.99 13.23 3.92 3.56 6.47 7.58 5.51 13.23z"/><path d="m111.21 295.81c-.06 1.33-.01 2.67-.21 3.98-1.26 8.13-7.9 10.87-13.9 5.29-8.2-7.62-11.86-17.79-14.17-28.48-.07-.32-.11-.66-.09-.99.13-2.8.29-5.6.43-8.39 2.64 1.1 5.65 1.71 7.85 3.38 5.52 4.2 11.12 8.46 15.8 13.51 2.69 2.9 3.65 7.4 5.39 11.18-.37.16-.74.34-1.1.52z"/></g><path d="m5.17 384 .55-.58c.85.61 1.65 1.24 2.4 1.87l-.59.64c-.83-.73-1.62-1.38-2.36-1.93m1.22 9.53-.82-.34c.71-1.76 1.37-3.64 1.98-5.63.24.13.5.25.76.36-.6 1.67-1.24 3.54-1.92 5.61m-.5-13.5.57-.54c.56.44 1.31 1.06 2.26 1.87l-.64.64c-.68-.66-1.41-1.32-2.19-1.97m3.25.46h2.24v-1.36h.77v1.36h4.57v-1.36h.76v1.36h2.28v.69h-2.28v1.84h-2.64v1.26h4.18v2.64h-4.21c0 .45-.02.86-.05 1.21h4.32v.69h-4.38c-.04.34-.1.75-.19 1.22h5.15v.69h-4.82c.87 1.19 2.51 1.92 4.93 2.19-.17.31-.3.57-.37.76-2.77-.49-4.52-1.41-5.26-2.76-.56 1.26-2.3 2.23-5.24 2.9-.12-.25-.26-.48-.43-.72 2.73-.55 4.38-1.34 4.96-2.38h-4.38v-.69h4.65c.1-.38.17-.79.21-1.22h-4.32v-.69h4.4c.03-.34.05-.75.05-1.21h-4.2v-2.64h4.23v-1.26h-2.69v-1.84h-2.24zm1.46 4.46v1.29h3.45c.01-.4.02-.57.01-.53v-.32-.45h-3.46zm1.55-2.59h4.57v-1.19h-4.57zm6.11 2.59h-3.42v.77c-.01.19-.01.37-.02.53h3.44z" fill="#fcfbfa"/><path d="m32.63 379.16h.82v1.98h3.54v7.89h1.46v.78h-14.37v-.78h1.46v-7.89h3.54v-1.98h.82v1.98h2.73zm-3.49 11.48.5.73c-1.61.82-3.28 1.63-5 2.41-.13-.27-.28-.55-.44-.82 1.75-.72 3.4-1.49 4.94-2.32m-2.78-5.55h2.73v-3.18h-2.73zm0 3.95h2.73v-3.2h-2.73zm3.54-3.95h2.73v-3.18h-2.73zm0 3.95h2.73v-3.2h-2.73zm7.89 4.68c-1.84-.92-3.51-1.7-5.02-2.32l.45-.73c1.89.8 3.57 1.55 5.04 2.23zm-1.62-11.81h-2.73v3.18h2.73zm-2.73 7.13h2.73v-3.2h-2.73z" fill="#fcfbfa"/></svg>