<svg enable-background="new 0 0 400 400" viewBox="0 0 400 400" xmlns="http://www.w3.org/2000/svg"><g fill="#010104"><path d="m125.45 250.48c-8.64 5.39-15.97 9.87-23.21 14.49-9.81 6.26-19.32 13.06-29.46 18.73-3.74 2.09-8.92 2.34-13.4 2.18-8.39-.29-16.5-2.23-22.82-8.38-1.2-1.17-1.82-2.93-2.7-4.41 1.57-.73 3.1-1.97 4.71-2.09 10.67-.78 20.47-3.91 29.54-9.63 2.22-1.4 2.83-2.46 2.28-5.09-3.71-17.77-2.25-35.74-2.03-53.7.31-24.96.15-49.94-.43-74.9-.17-7.17-2.11-14.39-3.92-21.4-1.21-4.69-3.98-7.28-9.97-5.62-7.83 2.16-12.96-.23-15.92-5.78.96-.56 1.86-1.42 2.9-1.66 31.44-7.35 62.85-14.85 94.37-21.85 13-2.88 24.62 1.75 35.11 9.21 1.71 1.22 3.69 4.58 3.12 5.89-.88 2-3.77 4.15-5.97 4.35-5.42.5-10.93-.12-16.41-.21-3.92-.07-7.85-.01-12.08-.01.23.75.27 1.45.62 1.91 6.64 8.83 5.72 19.05 5.57 29.19-.51 34.13-.9 68.26-1.33 102.39-.01.48.12.96.23 1.8 4.27-2.37 8.27-4.95 12.58-6.79 1.71-.73 4.13.2 6.22.37-.9 1.96-1.35 4.39-2.79 5.78-3.95 3.8-8.6 6.88-12.4 10.8-1.88 1.93-3.43 5.04-3.54 7.68-1.16 27.24-1.99 54.5-2.92 81.75-.08 2.33.01 4.71-.47 6.97-.8 3.7-2.38 7.06-6.75 7.66-4.43.6-6.84-2.19-8.36-5.74-4.61-10.77-5.93-21.91-4.62-33.65 1.8-16.16 2.78-32.42 4.25-50.24zm.85-114.45c0-11.77.15-22.53-.11-33.28-.06-2.71-1.25-5.47-2.25-8.08-1.02-2.68-2.83-4.14-6.14-3.76-8.57.97-17.24 1.22-25.76 2.46-6.65.97-13.14 2.99-21.09 4.87 7.52 4.5 13 8.6 14.02 16.1.62 4.59.87 9.25 1.07 13.88.17 4.07.04 8.14.04 13.58 13.46-6.62 26.18-10.49 40.22-5.77zm-42.2 117.91c9.6-4.03 18.83-7.31 27.53-11.66 15.85-7.93 13.72-3.71 14.41-20.92.03-.66.31-1.31.31-1.96.02-7.71.01-15.42.01-24.48-12.85 3.08-24.22 5.92-35.65 8.49-4.04.91-5.14 3.43-5.29 7.05-.4 9.62-.94 19.24-1.28 28.86-.18 4.6-.04 9.2-.04 14.62zm42.41-108.63c-11.07 2.14-21.4 4.33-31.82 6.07-5.48.92-8.31 3.06-8.1 9.17.38 10.84.11 21.69.11 33.36 5.8-2.4 11.48-4.29 16.71-7.02 6.09-3.19 12.33-3.45 18.84-2.65 1.26.16 2.52.37 4.26.63 0-13.18 0-25.9 0-39.56z"/><path d="m248.17 213.22c-4.17 13.4-7.66 26.91-12.54 39.88-13.04 34.61-37.8 58.56-70.4 74.9-5.28 2.65-10.98 4.51-16.56 6.52-1.34.48-2.99.07-4.5.07-.17-.48-.34-.95-.51-1.43 2.04-1.5 3.96-3.22 6.14-4.48 21.32-12.28 40.06-27.44 53.73-48.21 12.54-19.06 19.99-40.25 23.14-62.58 3.41-24.14 5.26-48.53 7.2-72.85 1.01-12.75 1.37-25.62.87-38.4-.43-11.06-1.91-22.17-4.07-33.03-1.13-5.67-4.87-10.78-7.15-16.27-.75-1.81-.62-3.99-.89-6 2.07.05 4.49-.58 6.17.26 10.2 5.08 19.56 11.54 26.18 20.91 1.77 2.51 1.08 7 .95 10.56-.47 12.95-1.12 25.9-1.82 38.85-.96 17.76-2.04 35.52-3.06 53.28-.06.99-.01 1.99-.01 4.24 26.37-19.33 52.42-37.55 51.86-75.7 2.5 2.06 3.98 2.76 4.68 3.92 5.78 9.66 11.7 19.25 16.96 29.19 2.25 4.25-.66 8.25-3.81 11.02-3.97 3.49-8.35 6.6-12.86 9.37-18.43 11.29-36.99 22.38-55.49 33.56-3.06 1.85-3.3 7.54-.39 11.98 9.48 14.47 18.84 29.03 28.59 43.32 12.75 18.7 25.88 37.16 42.03 53.18 10.92 10.83 22.84 20.29 36.89 26.94 3.71 1.76 6.78 4.89 10.14 7.39-.15.58-.29 1.16-.44 1.74-2.46.57-4.91 1.59-7.38 1.63-12.15.2-24.31.15-36.46.16-8.04.01-13.96-3.41-17.6-10.73-6.87-13.84-13.58-27.77-20.82-41.41-12.75-24.05-25.85-47.92-38.77-71.78z"/><path d="m170.33 138.73c2.81 1.77 4.57 2.45 5.74 3.68 8.78 9.29 17.76 18.41 26.03 28.14 5.08 5.98 7.32 13.33 5.43 21.43-1.23 5.27-4.47 8.4-9.67 9.55-4.65 1.02-8.59-1.07-10.78-4.57-3.58-5.7-6.85-11.8-8.96-18.17-3.18-9.58-5.42-19.49-7.68-29.34-.69-2.99-.11-6.28-.11-10.72z"/></g><path d="m5.17 384 .55-.58c.85.61 1.65 1.24 2.4 1.87l-.59.64c-.83-.73-1.62-1.38-2.36-1.93m1.22 9.53-.82-.34c.71-1.76 1.37-3.64 1.98-5.63.24.13.5.25.76.36-.6 1.67-1.24 3.54-1.92 5.61m-.5-13.5.57-.54c.56.44 1.31 1.06 2.26 1.87l-.64.64c-.68-.66-1.41-1.32-2.19-1.97m3.25.46h2.24v-1.36h.77v1.36h4.57v-1.36h.76v1.36h2.28v.69h-2.28v1.84h-2.64v1.26h4.18v2.64h-4.21c0 .45-.02.86-.05 1.21h4.32v.69h-4.38c-.04.34-.1.75-.19 1.22h5.15v.69h-4.82c.87 1.19 2.51 1.92 4.93 2.19-.17.31-.3.57-.37.76-2.77-.49-4.52-1.41-5.26-2.76-.56 1.26-2.3 2.23-5.24 2.9-.12-.25-.26-.48-.43-.72 2.73-.55 4.38-1.34 4.96-2.38h-4.38v-.69h4.65c.1-.38.17-.79.21-1.22h-4.32v-.69h4.4c.03-.34.05-.75.05-1.21h-4.2v-2.64h4.23v-1.26h-2.69v-1.84h-2.24zm1.46 4.46v1.29h3.45c.01-.4.02-.57.01-.53v-.32-.45h-3.46zm1.55-2.59h4.57v-1.19h-4.57zm6.11 2.59h-3.42v.77c-.01.19-.01.37-.02.53h3.44z" fill="#fcfbfa"/><path d="m32.63 379.16h.82v1.98h3.54v7.89h1.46v.78h-14.37v-.78h1.46v-7.89h3.54v-1.98h.82v1.98h2.73zm-3.49 11.48.5.73c-1.61.82-3.28 1.63-5 2.41-.13-.27-.28-.55-.44-.82 1.75-.72 3.4-1.49 4.94-2.32m-2.78-5.55h2.73v-3.18h-2.73zm0 3.95h2.73v-3.2h-2.73zm3.54-3.95h2.73v-3.18h-2.73zm0 3.95h2.73v-3.2h-2.73zm7.89 4.68c-1.84-.92-3.51-1.7-5.02-2.32l.45-.73c1.89.8 3.57 1.55 5.04 2.23zm-1.62-11.81h-2.73v3.18h2.73zm-2.73 7.13h2.73v-3.2h-2.73z" fill="#fcfbfa"/></svg>