<svg enable-background="new 0 0 400 400" viewBox="0 0 400 400" xmlns="http://www.w3.org/2000/svg"><g fill="#010104"><path d="m272.22 322c13.71 0 26.02.43 38.28-.15 8.33-.39 15.41 1.95 21.8 6.8 4.75 3.6 9.6 7.23 13.64 11.55 3.91 4.18 1.99 8.78-3.75 9.65-3.04.46-6.45.44-9.35-.45-22.3-6.88-45.24-8.73-68.39-9.36-36.02-.97-71.88 1.48-107.48 6.42-23.95 3.32-47.59 8.84-71.41 13.14-8.97 1.62-18.15 3.51-26.68-1.89-1.78-1.12-3.35-2.57-6.25-4.84 3.96-1.2 6.63-2.28 9.39-2.81 18.41-3.55 36.84-6.97 55.26-10.45 2.77-.52 4.36-1.1 4-5.07-1.46-15.86-7.55-30.17-13.62-44.55-1.3-3.07-2.2-6.3-3.64-10.49 21.95 8.04 42.57 3.12 62.82-.27 30.42-5.08 60.56-11.88 90.82-17.95 9.95-2 18.37 2.33 26.3 7.18 4.73 2.89 8.69 7.16 12.61 11.19 2.53 2.6 2.53 5.2-1 7.85-3.24 2.44-6.1 5.71-8.3 9.15-5.15 8.06-9.81 16.45-15.05 25.35zm-47.06 1.52c7.2 0 14.17.38 21.09-.09 9.88-.67 10.05-.89 12.33-10.84 2-8.72 3.9-17.5 5.11-26.35.99-7.28-2.41-10.12-9.49-9.31-4.45.51-8.93.75-13.38 1.25-4.03.45-8.04 1.07-12.4 1.67 4.85 15.48-2.34 29.33-3.26 43.67zm-45.87 5.7c9.26-.87 18.16-1.61 27.02-2.69 1.11-.14 2.67-2 2.88-3.25 1.98-11.84 2.84-23.67.05-35.58-.78-3.33-2.31-3.96-5.15-3.52-5.4.84-10.83 1.55-16.21 2.51-3.97.71-7.87 1.75-12.54 2.81 8.48 12.93 2.51 26.14 3.95 39.72zm-47.86-33.19c2.34 12.26 4.68 23.43 6.48 34.69.57 3.54 1.82 4.63 5.09 4 6.67-1.28 13.32-2.66 20.02-3.75 2.96-.48 4.11-2.13 3.72-4.75-1.17-8-1.81-16.17-4-23.9-3.12-11.02-3.64-10.91-14.82-9.14-5.66.89-11.3 1.95-16.49 2.85z"/><path d="m162.79 241.3c2.04-.8 3.67-1.46 5.33-2.07 10.55-3.89 20.65-2.69 29.87 3.53 2.24 1.51 3.26 4.85 4.83 7.35-2.65 1.02-5.29 2.93-7.94 2.92-19.19-.05-38.11 2.08-56.9 5.9-6.85 1.39-12.73 3.94-17.95 8.72-6.4 5.85-10.51 5.18-14.48-2.54-5.26-10.23-7.25-21.04-5.21-32.71 4.42-25.3 6.89-50.72 2.6-76.36-2.19-13.07-2.04-13.23 11.14-13.07 17.58.22 33.55-5.71 49.28-12.55 9.76-4.24 19.64-7.68 30.34-4.35 3.37 1.05 6.71 2.99 9.38 5.31 3.18 2.76 2.6 5.91-1.4 7.32s-8.37 2.02-12.63 2.41c-8.57.8-17.17 1.21-24.86 1.72.36 7.36.69 13.97 1.05 21.31 7.4-1.46 14.74 1.32 21.9 4.95 7.18 3.64 7.77 6.25 4.22 13.31-2.81 5.6-5.47 11.46-6.92 17.52-3.28 13.72-4.48 15.2-18.11 16.53-.65.06-1.3.21-.95.15-.87 8.26-1.7 16.14-2.59 24.7zm-41.85-27.45c11.88-2.76 23.3-5.56 34.8-8.04 10.01-2.16 10.06-1.99 11.37-12.45.27-2.14.52-4.31.44-6.45-.27-7.74-2.1-9.16-9.55-7.13-12.12 3.29-24.19 6.74-37.05 10.34-.01 7.18-.01 15.4-.01 23.73zm28.81 4.24c-10.07 2.17-18.45 3.92-26.79 5.87-1.02.24-2.51 1.57-2.54 2.43-.26 7.13-.36 14.27-.19 21.39.06 2.59 1.81 3.59 4.56 2.86 6.71-1.78 13.45-3.49 20.22-5.01 3.26-.73 4.78-2.43 4.75-5.76-.05-6.73-.01-13.48-.01-21.78zm-28.23-37.3c8.88-3.53 17.32-6.83 25.68-10.31.81-.33 1.67-1.8 1.62-2.69-.24-4.61-.55-9.23-1.26-13.78-.52-3.29-2.69-4.61-6.17-3.79-6.12 1.44-12.32 2.54-18.41 4.11-1.1.28-2.59 2.13-2.57 3.23.15 7.27.65 14.54 1.11 23.23z"/><path d="m200.43 221.18c.96-2.2 1.87-4.42 2.89-6.59 7.62-16.23 15.7-32.26 22.75-48.73 4.61-10.77 6.63-22.28 3.93-34.15-.39-1.71-.05-3.59-.05-6.02 1.68.43 3.01.51 4.05 1.09 3.63 2 7.4 3.86 10.68 6.35 12.24 9.31 12.38 10.65 5.11 23.77-4.33 7.82-8.43 15.76-13.47 25.22 5.73-1.13 10.23-1.63 14.48-2.93 12.35-3.79 24.5-8.28 36.93-11.77 11.66-3.27 22.46-.91 31.21 7.88 1.69 1.69 3.77 5.61 3.08 6.52-1.56 2.05-4.67 3.77-7.3 4-8.77.78-17.61.62-26.4 1.24-15.25 1.06-30.47 2.43-45.7 3.67-.83.07-1.74.45-2.46.21-6.3-2.1-9.13 1.72-12.17 6.32-5.49 8.32-11.07 16.7-19.78 22.19-2 1.26-4.24 2.12-6.38 3.17-.45-.47-.93-.96-1.4-1.44z"/><path d="m210.41 117.84c2.88-7.56 5.97-14.38 8.08-21.49 2.92-9.83 5.98-19.76 7.32-29.86.95-7.19-.93-14.73-1.34-22.13-.15-2.68.31-5.39.49-8.09 2.58.17 5.63-.48 7.64.68 6.13 3.55 11.98 7.63 17.69 11.85 2.26 1.67 2.47 4.11 1.19 7.11-2.6 6.05-4.51 12.4-7.22 20.1 6.17-1.02 11.27-1.68 16.28-2.72 8.42-1.76 16.73-4.15 25.21-5.57 8.08-1.35 15.04 2.2 20.77 7.52 1.7 1.57 2.66 5.36 2.03 7.58-.53 1.87-3.82 4.08-5.97 4.16-9.09.36-18.21.12-27.32-.16-10.96-.33-21.91-1.09-32.88-1.23-1.77-.02-4.11 1.78-5.26 3.4-5.68 7.98-10.92 16.28-16.6 24.26-2.08 2.89-4.81 5.5-10.11 4.59z"/><path d="m148.77 89.18c-1.15-10.89-5.74-18.84-10.86-26.71-1.7-2.61-1.77-6.27-2.59-9.44 3.02-.07 6.47-1.12 8.97-.01 6.16 2.73 12.33 5.86 17.64 9.94 5.62 4.31 5.14 11.68 5.89 17.97 1.23 10.22 1.65 20.54 2.32 30.82.24 3.64-.09 7.45-4.55 8.19-4.5.75-6.36-2.42-7.57-6.28-1.52-4.88-3.34-9.67-5.15-14.82-1.59.52-2.83.81-3.98 1.31-10.06 4.36-19.99 9.05-30.2 13.01-3.83 1.49-8.49 2.4-12.44 1.71-8.71-1.54-15.91-6.54-22.04-12.85-1.12-1.15-1.33-3.19-1.96-4.82 1.66-.53 3.31-1.52 4.97-1.52 9.26-.03 18.62 1.1 27.75.07 11.31-1.28 22.4-4.27 33.8-6.57z"/><path d="m278.24 240.53c.15 4.35-1.05 7.97-5.52 9.55s-9.28-.26-11.99-4.6c-1.67-2.67-2.84-5.65-4.57-8.27-5.57-8.4-11.33-16.68-16.94-25.06-.78-1.16-1.12-2.62-1.67-3.94 1.16-.42 2.31-1.19 3.47-1.21 14.49-.31 34.01 15.37 36.88 29.57.26 1.28.24 2.63.34 3.96z"/></g><path d="m5.17 384 .55-.58c.85.61 1.65 1.24 2.4 1.87l-.59.64c-.83-.73-1.62-1.38-2.36-1.93m1.22 9.53-.82-.34c.71-1.76 1.37-3.64 1.98-5.63.24.13.5.25.76.36-.6 1.67-1.24 3.54-1.92 5.61m-.5-13.5.57-.54c.56.44 1.31 1.06 2.26 1.87l-.64.64c-.68-.66-1.41-1.32-2.19-1.97m3.25.46h2.24v-1.36h.77v1.36h4.57v-1.36h.76v1.36h2.28v.69h-2.28v1.84h-2.64v1.26h4.18v2.64h-4.21c0 .45-.02.86-.05 1.21h4.32v.69h-4.38c-.04.34-.1.75-.19 1.22h5.15v.69h-4.82c.87 1.19 2.51 1.92 4.93 2.19-.17.31-.3.57-.37.76-2.77-.49-4.52-1.41-5.26-2.76-.56 1.26-2.3 2.23-5.24 2.9-.12-.25-.26-.48-.43-.72 2.73-.55 4.38-1.34 4.96-2.38h-4.38v-.69h4.65c.1-.38.17-.79.21-1.22h-4.32v-.69h4.4c.03-.34.05-.75.05-1.21h-4.2v-2.64h4.23v-1.26h-2.69v-1.84h-2.24zm1.46 4.46v1.29h3.45c.01-.4.02-.57.01-.53v-.32-.45h-3.46zm1.55-2.59h4.57v-1.19h-4.57zm6.11 2.59h-3.42v.77c-.01.19-.01.37-.02.53h3.44z" fill="#fcfbfa"/><path d="m32.63 379.16h.82v1.98h3.54v7.89h1.46v.78h-14.37v-.78h1.46v-7.89h3.54v-1.98h.82v1.98h2.73zm-3.49 11.48.5.73c-1.61.82-3.28 1.63-5 2.41-.13-.27-.28-.55-.44-.82 1.75-.72 3.4-1.49 4.94-2.32m-2.78-5.55h2.73v-3.18h-2.73zm0 3.95h2.73v-3.2h-2.73zm3.54-3.95h2.73v-3.18h-2.73zm0 3.95h2.73v-3.2h-2.73zm7.89 4.68c-1.84-.92-3.51-1.7-5.02-2.32l.45-.73c1.89.8 3.57 1.55 5.04 2.23zm-1.62-11.81h-2.73v3.18h2.73zm-2.73 7.13h2.73v-3.2h-2.73z" fill="#fcfbfa"/></svg>