<svg enable-background="new 0 0 400 400" viewBox="0 0 400 400" xmlns="http://www.w3.org/2000/svg"><g fill="#010104"><path d="m224.64 301.57c2.14.64 4.31 1.23 6.43 1.93 7.72 2.56 15.43 5.15 23.15 7.73 6.92 2.31 11.96.07 16.42-5.68 7.82-10.09 12.16-21.82 15.88-33.66 5.51-17.55 10.32-35.35 14.62-53.24 1.31-5.42.39-11.55-.41-17.22-.28-1.95-3.14-4.73-5.14-5.03-9.85-1.5-19.82-2.11-29.7-3.45-3.48-.47-4.89.83-6.48 3.58-13.86 24.05-27.35 48.34-42.03 71.88-11.68 18.75-26.3 35.24-44.98 47.55-3.84 2.53-8.49 3.82-12.76 5.68-.43-.58-.87-1.16-1.3-1.73 1.28-1.7 2.39-3.57 3.87-5.08 37.11-37.67 61.05-83.08 77.85-132.64 2.94-8.67 4.79-17.67 3.4-26.96-.27-1.78-.99-3.5-1.55-5.23-1.25-3.89-3.32-5.09-7.48-3.31-11.14 4.77-22.52 8.97-33.66 13.73-8.6 3.67-20.34 1.49-25.95-6.05 3.25-1.2 6.19-2.46 9.24-3.38 6.17-1.86 12.45-3.36 18.59-5.33 13.9-4.46 27.76-9.07 41.58-13.78 1.39-.48 3.46-2.13 3.42-3.17-.79-21.79-2.94-43.26-17.28-61.23-2.49-3.12-5.41-5.9-7.78-9.1-.96-1.3-1.79-3.74-1.2-4.88.6-1.14 3.09-1.86 4.69-1.76 3.45.21 7.13.44 10.22 1.78 9.59 4.16 18.95 8.86 28.41 13.31 3.34 1.57 4.63 4.33 4.23 7.74-1.34 11.37-2.83 22.72-4.3 34.08-.68 5.24-1.42 10.47-2.27 16.73 4.87-1.35 9.07-2.51 13.28-3.68 15.83-4.39 31.47-9.75 47.54-12.88 14.31-2.79 26.63 3.71 36.86 13.59 3.36 3.25 2.13 6.41-2.55 7.51-3.05.71-6.24 1.01-9.38 1.09-16.44.45-32.96-.06-49.3 1.37-15.82 1.39-31.46 4.74-48.28 7.4 3.1 4.44 5.5 7.9 7.91 11.36.67.96 1.23 2 1.99 2.87 6.96 8.05 10.22 16.66 2.81 27.75 10.1.42 18.81 1.23 27.5 1.02 9.79-.24 19.34-.25 27.75 5.72 2.16 1.53 4.43 2.99 6.33 4.81 5.19 5 4.59 5.68 2.2 12.44-3.53 9.98-5.97 20.34-8.88 30.54-8.48 29.71-16.54 59.57-30.97 87.15-4.62 8.84-9.22 17.83-17.98 23.54-1.8 1.17-3.85 2.88-5.71 2.78-2.21-.11-5.91-1.52-6.26-3-3.56-15.08-15.38-23.71-25.4-33.8-3.04-3.06-5.61-6.59-8.39-9.9.42-.51.81-1 1.2-1.49z"/><path d="m66.95 274.19c7 0 13.53.09 20.06-.05 2.25-.05 4.54-.42 6.71-1.02 19.38-5.34 37.06-14.63 54.74-23.84 3.13-1.63 5.5-1.64 8.17.43 4.06 3.16 8.49 5.92 12.21 9.42 4.65 4.38 4.48 7.45 1.79 13.31-4.69 10.22-9.08 20.58-13.29 31.01-.65 1.62-.19 4.14.64 5.81 1.89 3.84 1.29 6.82-2.79 7.84-5.59 1.4-11.44 1.7-17.06 2.99-8.87 2.04-17.67 4.38-26.4 6.92-1.47.43-2.49 2.5-3.63 3.87-1.7 2.03-3.08 5.46-5.04 5.82-2.41.44-5.73-1.13-7.83-2.85-1.9-1.56-2.81-4.42-3.94-6.81-7.36-15.61-14.66-31.23-21.95-46.87-.96-2.03-1.67-4.17-2.39-5.98zm76.41 12.76c-.47-4.09-.56-7.94-1.41-11.61-1.29-5.6-4.16-7.22-9.46-5.34-12.18 4.31-24.32 8.75-36.34 13.46-1.29.51-2.8 3.53-2.39 4.8 2.9 8.98 6.28 17.8 9.48 26.68.98 2.72 2.38 3.16 5.29 2.26 9.79-3.05 19.75-5.56 29.57-8.51 1.2-.36 2.63-2.01 2.83-3.25 1.02-6.2 1.67-12.46 2.43-18.49z"/><path d="m95.33 58.76c4.96.36 9.95.44 14.86 1.13 9.81 1.37 18.97 4.66 27.5 9.79 3.22 1.94 3.58 4.26 3.42 7.86-.45 10.22-.16 20.47-.16 31.28 3.63-1.09 7.52-1.64 10.76-3.4 3.8-2.06 7.47-2.81 11.4-1.45 7.18 2.48 14.35 5.05 21.32 8.05 1.61.7 3.62 3.65 3.26 4.96-.48 1.73-2.96 3.73-4.86 4.07-7.33 1.32-14.79 1.91-22.17 2.99-22.65 3.3-44.44 9.59-65.21 19.24-11.89 5.53-23.65 11.32-35.47 17.01-5.49 2.65-15.98.34-20.83-5.29 5.81-2.78 11.35-5.55 16.99-8.1 22.09-9.99 44.2-19.93 66.34-29.81 2.52-1.12 3.27-2.31 2.62-5.24-4.02-18.03-12.1-33.65-25.92-46.13-1.65-1.49-2.96-3.37-4.43-5.08.19-.62.38-1.25.58-1.88z"/><path d="m90.71 192.03c-.97-.04-1.74.14-2.28-.14-1.81-.92-3.54-2.01-5.3-3.03 1.37-1.3 2.53-3.01 4.14-3.84 16.81-8.63 33.67-17.17 50.57-25.62 7.31-3.65 22.59-.38 27.86 5.75 2.33 2.7 1.67 5.53-2.4 6.75-4.71 1.42-9.69 2.07-14.6 2.71-17.25 2.27-33.36 8.26-49.29 14.86-1.99.82-4 1.61-6.05 2.26-.91.31-1.96.24-2.65.3z"/><path d="m86.92 227.89c3.01-1.26 5.99-2.59 9.03-3.76 15.92-6.14 31.9-12.12 47.75-18.4 6.28-2.49 17.4-.96 22.49 3.71 2.89 2.65 2.94 6.02-.59 7.73-3.79 1.84-8.02 3.27-12.19 3.74-15.19 1.74-30.15 4.31-44.56 9.62-5.61 2.07-11.35 4.04-17.38 1.51-1.6-.67-3.05-1.72-4.56-2.59.01-.52.01-1.04.01-1.56z"/></g><path d="m5.17 384 .55-.58c.85.61 1.65 1.24 2.4 1.87l-.59.64c-.83-.73-1.62-1.38-2.36-1.93m1.22 9.53-.82-.34c.71-1.76 1.37-3.64 1.98-5.63.24.13.5.25.76.36-.6 1.67-1.24 3.54-1.92 5.61m-.5-13.5.57-.54c.56.44 1.31 1.06 2.26 1.87l-.64.64c-.68-.66-1.41-1.32-2.19-1.97m3.25.46h2.24v-1.36h.77v1.36h4.57v-1.36h.76v1.36h2.28v.69h-2.28v1.84h-2.64v1.26h4.18v2.64h-4.21c0 .45-.02.86-.05 1.21h4.32v.69h-4.38c-.04.34-.1.75-.19 1.22h5.15v.69h-4.82c.87 1.19 2.51 1.92 4.93 2.19-.17.31-.3.57-.37.76-2.77-.49-4.52-1.41-5.26-2.76-.56 1.26-2.3 2.23-5.24 2.9-.12-.25-.26-.48-.43-.72 2.73-.55 4.38-1.34 4.96-2.38h-4.38v-.69h4.65c.1-.38.17-.79.21-1.22h-4.32v-.69h4.4c.03-.34.05-.75.05-1.21h-4.2v-2.64h4.23v-1.26h-2.69v-1.84h-2.24zm1.46 4.46v1.29h3.45c.01-.4.02-.57.01-.53v-.32-.45h-3.46zm1.55-2.59h4.57v-1.19h-4.57zm6.11 2.59h-3.42v.77c-.01.19-.01.37-.02.53h3.44z" fill="#fcfbfa"/><path d="m32.63 379.16h.82v1.98h3.54v7.89h1.46v.78h-14.37v-.78h1.46v-7.89h3.54v-1.98h.82v1.98h2.73zm-3.49 11.48.5.73c-1.61.82-3.28 1.63-5 2.41-.13-.27-.28-.55-.44-.82 1.75-.72 3.4-1.49 4.94-2.32m-2.78-5.55h2.73v-3.18h-2.73zm0 3.95h2.73v-3.2h-2.73zm3.54-3.95h2.73v-3.18h-2.73zm0 3.95h2.73v-3.2h-2.73zm7.89 4.68c-1.84-.92-3.51-1.7-5.02-2.32l.45-.73c1.89.8 3.57 1.55 5.04 2.23zm-1.62-11.81h-2.73v3.18h2.73zm-2.73 7.13h2.73v-3.2h-2.73z" fill="#fcfbfa"/></svg>