<svg enable-background="new 0 0 400 400" viewBox="0 0 400 400" xmlns="http://www.w3.org/2000/svg"><g fill="#010104"><path d="m132.48 250.93c8.49-3.02 16.35-5.92 24.28-8.6 4.4-1.49 8.9-2.66 13.38-3.9 1.11-.31 2.29-.44 3.44-.48 5.5-.19 8.84 1.98 9.48 6.06.68 4.32-1.46 7.38-6.74 8.99-9.19 2.8-18.44 5.43-27.68 8.08-3.83 1.1-7.67 2.16-11.55 3.06-2.78.64-4.17 1.79-4.09 5.02.44 18.25.82 36.51.85 54.77.01 4.22-.6 8.85-2.45 12.52-1.29 2.57-4.94 4.64-7.94 5.51-3.87 1.12-6.93-1.65-7.93-5.24-1.58-5.71-3.35-11.63-3.35-17.46-.01-15.12.9-30.24 1.43-45.36.05-1.3.01-2.61.01-4.92-11.26 4.34-22.46 7.67-32.7 12.87-10.58 5.38-20.19 3.46-30.14-.49-1.54-.61-2.81-1.9-5.23-3.61 3.89-1.49 6.55-2.68 9.31-3.53 18.87-5.81 37.73-11.64 56.66-17.23 3.47-1.03 4.67-2.61 4.56-6.19-.24-8.6-.08-17.2-.08-26.68-6.38 2.98-12.95 5.65-19.11 9.06-4.85 2.68-6.01 2.96-9.04-1.81-5.35-8.42-10.5-16.97-15.7-25.48-1.91-3.12-3.7-6.32-5.56-9.47-3.24-5.49-2.09-7.83 4.29-8.44 4.3-.41 8.69-.28 12.92-1.05 11.03-2.01 21.99-4.39 32.99-6.63 0-8.22.07-15.53-.06-22.83-.03-1.43-.6-2.98-1.33-4.24-1.56-2.67-3.53-3.29-5.01.02-1.62 3.61-3.64 6.76-8.12 5.57-4.44-1.18-6.03-4.92-6.31-9.19-.56-8.42-1.01-16.85-1.55-25.94-5.43 1.33-10.37 2.52-15.31 3.74-5.81 1.44-11.25.79-16.02-3.06-1.24-1-2.17-2.38-3.95-4.38 2.84-1.21 4.92-2.48 7.18-2.99 8.08-1.84 16.2-3.58 24.36-5.03 2.92-.52 3.45-1.85 3.15-4.41-1.29-11.07-4.26-21.4-11.5-30.31-1.98-2.44-2.48-6.1-3.65-9.2 3.46-.1 7.05-.81 10.36-.17 8.49 1.65 14.87 6.96 20.68 13.09 3.66 3.86 2.29 8.39 2.09 12.77-.19 4.13-.6 8.24-.97 13.14 11.43-2.37 22.18-4.61 33-6.85 0-8.24.97-16.22-.33-23.81-.92-5.41-4.97-10.25-7.44-15.44-.93-1.96-1.35-4.17-2-6.26 2.31-.33 4.76-1.31 6.91-.87 9.51 1.93 17.07 7.07 22.71 15.01 2.15 3.02 2.84 5.95 1.62 9.76-1.84 5.77-2.88 11.79-4.6 19.16 5.64-1.61 10.23-2.71 14.67-4.23 4.92-1.69 11.28-.23 14.52 3.74 3.95 4.84 2.65 8.73-3.55 10.01-4.22.87-8.52 1.39-12.8 1.89s-8.58.78-13.57 1.21c-.96 8.54-1.92 17.06-2.89 25.57-.19 1.64-.3 3.3-.65 4.9-2.36 10.93-5 12.19-15.08 7.96-2.41-1.01-5.37-.73-8.48-1.09.24 4.99.42 9.29.66 13.59.24 4.28.55 8.56.85 13.1 9.3-.79 17.21-4.43 24.27-9.89 4.35-3.36 9.13-4.1 13.49-1.5 5.22 3.11 9.91 7.2 14.5 11.23 2.14 1.88 1.98 4.03-.03 6.9-3.87 5.52-6.79 11.72-9.93 17.72-2.85 5.43-5 11.28-8.31 16.39-4.45 6.87-8.56 7.49-15.67 3.62-3.48-1.89-14.96-1-17.76 1.49-.52.46-.85 1.38-.89 2.12-.55 9.3-1.03 18.55-1.57 28.62zm-20.76-110.9c9.54-.76 18.74-1.5 28.4-2.28 1.06-8.51 2.09-16.81 3.18-25.56-11.06 2.17-21.25 4.17-31.58 6.2zm21.18 69.78c5.96-1.1 11.14-2.15 16.35-2.99 3.15-.51 4.79-2.05 5.48-5.26 1.1-5.17 2.68-10.24 4.01-15.37 1.5-5.82.01-7.42-5.92-5.86-5.44 1.43-10.8 3.18-16.1 5.06-1.08.38-2.37 1.93-2.47 3.04-.62 6.92-.92 13.86-1.35 21.38zm-16.08-20.08c-8.02 2.26-15.43 4.53-22.94 6.37-3.86.95-4.58 2.85-2.97 6.08 2.21 4.45 4.37 8.96 6.9 13.22.88 1.47 3.48 3.59 4.17 3.23 4.87-2.53 11.67-1.16 14.83-7.12.07-.13.02-.33.02-.49-.01-6.8-.01-13.6-.01-21.29z"/><path d="m228.13 127.17c24.01-4.91 46.8-9.22 69.4-14.41 6.67-1.53 12.71-5.67 19.16-8.29 2.34-.95 5.46-2.04 7.53-1.25 8.15 3.12 16.16 6.69 23.94 10.64 3.54 1.79 4.14 4.6 2.43 9.14-2.53 6.7-3.81 14.12-4.25 21.31-1.16 18.75-.89 37.61-2.41 56.32-3.45 42.52-7.42 85.01-19.72 126.16-2.44 8.15-5.36 16.11-11.3 22.53-3.58 3.86-7.61 4.49-10.61.3-10.9-15.2-26.74-23.63-42.42-32.46-3.04-1.71-5.51-4.46-8.24-6.73.22-.59.43-1.19.65-1.78 5.74.8 11.49 1.58 17.23 2.41 8.05 1.17 16.07 2.53 24.13 3.52 8.6 1.06 12.13-1.53 14.35-9.9 6.68-25.27 10.81-51.01 12.87-77 2.27-28.66 3.46-57.4 5.11-86.11.05-.83.04-1.67.04-2.5-.03-14.24-5.65-19.2-19.74-16.24-19.95 4.19-39.7 9.3-59.67 13.36-6.32 1.28-13.14 1.06-19.6.37-3.45-.37-5.55.05-7.81 2.46-6.04 6.43-12.1 12.86-18.47 18.96-2.95 2.82-6.6 4.93-10.06 7.16-.75.48-2.53.48-3.03-.05-.58-.62-.67-2.24-.27-3.12.88-1.95 2.13-3.75 3.33-5.54 14.66-21.83 28.65-44.03 38.64-68.51 3.26-7.99 4.89-16.03 3.79-24.71-.29-2.27.75-5.98 2.37-6.87 1.64-.91 5.08.3 7.17 1.53 7.59 4.49 12.71 11.4 15.46 19.55.88 2.62-.75 6.77-2.45 9.45-5.69 8.98-11.92 17.62-17.95 26.39-3 4.33-5.96 8.63-9.6 13.91z"/><path d="m196.17 256.43c4.52.69 7.71.71 10.57 1.7 13.92 4.8 27.47 2.71 40.96-1.71 7.08-2.32 14.07-5.04 21.3-6.77 2.82-.67 6.84-.04 9.13 1.63 4.79 3.48 8.9 7.93 13.07 12.2 2.42 2.48 2.56 5.1-.44 7.67-7.48 6.41-12.14 14.84-16.44 23.51-2.42 4.87-5.07 6.28-9.8 3.75-9.45-5.06-19.26-4.45-28.93-2.12-4.7 1.14-9.31 4.03-13.13 7.15-5.67 4.63-9.5 4.51-12.39-2.13-1.56-3.57-1.96-7.63-3.08-11.41-2.67-9.01-5.42-17.99-8.2-26.97-.53-1.69-1.32-3.29-2.62-6.5zm63.68 27.65c1.34-3.31 3.4-8.01 5.09-12.83.6-1.73 1.1-4.67.22-5.46-1.26-1.13-3.92-1.29-5.85-1-9.02 1.36-17.99 3.04-26.99 4.55-3.28.55-6.57.96-10.12 1.48 1.14 6.54 2.14 12.29 2.96 17.03 11.7-1.28 22.47-2.45 34.69-3.77z"/><path d="m190.87 184.23c3.56-1.71 6.29-3.6 9.3-4.37 13.33-3.37 26.73-6.41 41.1-9.81-.41-4.68-.07-9.77-1.48-14.32-1.42-4.58-4.58-8.63-7.61-14.06 3.28.2 5.69.02 7.93.55 3.06.72 6.05 1.83 8.96 3.03 9.5 3.92 10.59 6.06 8.63 16-.38 1.91-.5 3.87-.87 6.94 8.54-2 16.36-3.79 24.16-5.65 11.29-2.7 20.57 1.42 28.67 8.77 1.37 1.24 2.26 4.57 1.55 6.07-.69 1.46-3.75 2.61-5.71 2.52-4.95-.22-9.88-1.94-14.77-1.77-15.04.52-30.16.88-45.07 2.77-12.42 1.57-24.59 5.16-36.85 7.94-6.36 1.45-12.72.2-17.94-4.61z"/><path d="m287.87 232.33c-7.75 1.55-14.62 3.27-21.6 4.26-14.3 2.03-28.62 3.99-42.99 5.28-4.05.36-8.32-1.68-12.49-2.63-.04-.8-.08-1.6-.12-2.4 3.19-1.46 6.25-3.48 9.6-4.28 14.19-3.38 28.42-6.65 42.74-9.43 8.75-1.71 19.63 2.35 24.86 9.2z"/><path d="m209.74 209.11c2-.95 3.92-2.21 6.02-2.8 13.54-3.83 27.12-7.54 40.69-11.26 7.46-2.04 14.85-1.49 21.95 1.31 2.08.82 3.67 2.89 5.49 4.39-1.86 1.45-3.53 3.73-5.61 4.2-7.57 1.7-15.31 2.68-22.94 4.16-7.95 1.54-15.93 3.06-23.75 5.14-7.95 2.11-14.94.52-21.62-3.46-.07-.57-.15-1.12-.23-1.68z"/></g><path d="m5.17 384 .55-.58c.85.61 1.65 1.24 2.4 1.87l-.59.64c-.83-.73-1.62-1.38-2.36-1.93m1.22 9.53-.82-.34c.71-1.76 1.37-3.64 1.98-5.63.24.13.5.25.76.36-.6 1.67-1.24 3.54-1.92 5.61m-.5-13.5.57-.54c.56.44 1.31 1.06 2.26 1.87l-.64.64c-.68-.66-1.41-1.32-2.19-1.97m3.25.46h2.24v-1.36h.77v1.36h4.57v-1.36h.76v1.36h2.28v.69h-2.28v1.84h-2.64v1.26h4.18v2.64h-4.21c0 .45-.02.86-.05 1.21h4.32v.69h-4.38c-.04.34-.1.75-.19 1.22h5.15v.69h-4.82c.87 1.19 2.51 1.92 4.93 2.19-.17.31-.3.57-.37.76-2.77-.49-4.52-1.41-5.26-2.76-.56 1.26-2.3 2.23-5.24 2.9-.12-.25-.26-.48-.43-.72 2.73-.55 4.38-1.34 4.96-2.38h-4.38v-.69h4.65c.1-.38.17-.79.21-1.22h-4.32v-.69h4.4c.03-.34.05-.75.05-1.21h-4.2v-2.64h4.23v-1.26h-2.69v-1.84h-2.24zm1.46 4.46v1.29h3.45c.01-.4.02-.57.01-.53v-.32-.45h-3.46zm1.55-2.59h4.57v-1.19h-4.57zm6.11 2.59h-3.42v.77c-.01.19-.01.37-.02.53h3.44z" fill="#fcfbfa"/><path d="m32.63 379.16h.82v1.98h3.54v7.89h1.46v.78h-14.37v-.78h1.46v-7.89h3.54v-1.98h.82v1.98h2.73zm-3.49 11.48.5.73c-1.61.82-3.28 1.63-5 2.41-.13-.27-.28-.55-.44-.82 1.75-.72 3.4-1.49 4.94-2.32m-2.78-5.55h2.73v-3.18h-2.73zm0 3.95h2.73v-3.2h-2.73zm3.54-3.95h2.73v-3.18h-2.73zm0 3.95h2.73v-3.2h-2.73zm7.89 4.68c-1.84-.92-3.51-1.7-5.02-2.32l.45-.73c1.89.8 3.57 1.55 5.04 2.23zm-1.62-11.81h-2.73v3.18h2.73zm-2.73 7.13h2.73v-3.2h-2.73z" fill="#fcfbfa"/></svg>