<svg enable-background="new 0 0 400 400" viewBox="0 0 400 400" xmlns="http://www.w3.org/2000/svg"><path d="m91.98 196.45c9.67 1.15 19.33 2.39 29.01 3.41 3.45.36 6.99.48 10.43.13 4.05-.4 5.01-2.36 3.57-6.09-2.43-6.32-4.77-12.69-7.42-18.92-.55-1.29-2.09-2.47-3.44-3.05-2.22-.95-4.63-1.57-7.02-1.97-4.79-.79-8.51-3.28-11.32-7.03-4.75-6.35-9.31-12.85-13.87-19.33-.77-1.09-1.14-2.45-1.7-3.69.2-.3.39-.61.59-.91 4.68 2.17 9.35 4.34 14.03 6.49 1.72.79 3.44 2.08 5.2 2.15 12.34.48 24.19 4.52 36.4 5.23 9.75.57 19.61-.76 29.42-1.34 3.59-.21 7.18-.6 10.76-1.02 1.04-.12 2.04-.62 3.96-1.24-3.96-2.47-7.37-3.66-10.93-3.05-5.48.94-10.49-.28-15.52-2.14-2.88-1.07-5.76-2.22-8.73-2.93-11.13-2.63-19.02-9.62-24.94-18.89-4.09-6.4-8.36-12.97-10.79-20.07-1.86-5.44-5.27-8.21-9.49-10.97-7-4.59-13.98-9.22-20.87-13.96-1.51-1.04-2.92-2.48-3.87-4.04-4.82-7.95-9.48-15.99-14.33-24.22 2.95-.77 4.95-.29 6.97 1.58 1.91 1.77 4.22 3.22 6.57 4.39 3.97 1.99 7.53 4.41 11.12 7.08 5.4 4.02 12.14 4.13 18.58 2.15 4.85-1.49 9.51-3.57 14.31-5.22 3.79-1.3 7.62-2.52 11.51-3.44 3.6-.85 6.99-1.59 10.05-4.14 2.13-1.78 5.34-2.33 8.14-3.21 5.43-1.71 11.11-2.78 16.31-4.98 9.75-4.13 19.75-7.4 30.28-7.88 13.62-.62 26.88 1.81 38.99 8.38 11.89 6.45 16.07 17.43 15.45 30.2-.63 12.89-4.4 25.16-11.77 35.8-3.87 5.59-9.25 10.18-14.15 15.01-4.59 4.53-9.45 8.78-13.87 13.53 5.11 2.2 9.46 1.2 13.64-.66 14.7-6.54 29.36-13.16 44.03-19.75 1.14-.51 2.29-1.02 3.39-1.51 3.61 5.17 3.19 9.06-1.28 13.05-3.95 3.52-7.94 7-12.17 10.73 5.53 4.79 9.9 10.47 16.61 13.77 5.55 2.73 10.47 6.7 15.81 9.89 2.03 1.21 4.38 2.03 6.69 2.55 1.81.41 2.35 1.14 2.55 2.9.63 5.54.72 5.54-4.48 7.8-11.36 4.94-22.54 10.35-34.13 14.67-10.39 3.87-21.23 6.55-31.87 9.74-6.77 2.02-13.55 4-21.18 6.25 3.98 2.43 7.21 4.79 10.76 6.49 16.51 7.9 33.1 15.64 49.69 23.38 8.54 3.98 17.15 7.8 25.7 11.77 2.9 1.34 5.72 2.89 6.85 6.22.71 2.09.43 3.51-2.01 4.4-4.02 1.48-7.86 1.41-11.7-.36-4.81-2.21-9.52-4.67-14.43-6.63-3.27-1.31-6.78-2.53-10.24-2.75-7.11-.45-13.03-4.22-19.6-6.08-2.38-.67-4.9-.81-7.35-1.25-.99-.18-2.22-.24-2.88-.85-3.87-3.59-8.58-5.17-13.57-6.47-2.58-.67-5.05-2.08-7.31-3.55-3.98-2.59-7.77-5.48-11.86-8.41-4.15 4.37-8.21 8.65-12.57 13.24 4.9 2.66 9.65 5.1 14.23 7.82 1.29.77 2.43 2.24 3.02 3.66 1.26 3.02 2.22 6.18 3.11 9.33.52 1.82 1.41 2.69 3.33 2.37 6.99-1.16 13.98-2.37 20.99-3.42 3.55-.53 7.14-1.03 10.71-1.06 3.67-.03 6.81 1.44 8.67 4.9.94 1.75.94 3.17-1.16 4.08-3.39 1.47-6.68 3.21-10.15 4.48-9.53 3.48-19.14 6.78-28.71 10.16-.58.21-1.12.53-1.59.75-.37 2.81.81 4.38 3.07 5.77 9.97 6.14 20.24 11.56 31.78 14.1 7.61 1.67 15.16 2.26 22.91.05 9.05-2.59 18.32-4.42 27.45-6.73 1.54-.39 3.1-1.28 4.31-2.34 4.21-3.68 10.52-6.55 14.79-6.46 3.47 7.78 2.12 13.64-4.38 18.76-9.94 7.82-21.38 12.03-33.82 13.41-16.32 1.81-32.46.77-47.8-5.54-8.4-3.45-16.43-7.81-25.2-12.04-4.07 5.32-8.29 10.86-12.52 16.38-4.96 6.46-9.21 13.66-15.03 19.22-11.58 11.04-25.29 19.16-40.09 25.32-2.52 1.05-5.28 1.52-7.91 2.33-3.52 1.08-6.99 2.37-10.55 3.31-2.56.67-5.23.92-7.85 1.36-.26-.47-.52-.94-.78-1.41 2.97-3.28 5.35-7.59 9.01-9.65 15.34-8.67 26.78-21.67 39.04-33.8 2.11-2.09 4.06-4.37 6.33-6.27 8.31-6.96 13.45-16.17 18.94-26.07-5.77.98-11.11-.15-15.43 4.9-4.56 5.33-7.1 5.3-13.48 2.32-4.49-2.09-8.67-4.29-11.57-8.86-3.17-5-6.77-5.13-11.59-1.6-1.54 1.13-3.01 2.36-4.4 3.65-5.06 4.7-10.93 8-17.51 9.98-6.38 1.92-12.81 3.72-19.25 5.44-.82.22-2.23-.01-2.66-.57-.46-.6-.41-2.03.01-2.76.76-1.34 1.8-2.62 3-3.58 3.96-3.19 7.93-6.39 12.1-9.31 9-6.31 16.48-14.11 23.83-22.25 6.56-7.27 14.72-13.08 21.99-19.73 6.96-6.36 13.88-12.78 20.4-19.58 2.14-2.23 3.21-5.64 4.3-8.68.9-2.53-.18-4.32-3.22-4.19-5.81.25-11.64.26-17.42.85-4.62.48-9.17 2.47-13.73 2.38-9.27-.18-18.52-1.24-27.77-2.13-1.11-.11-2.08-1.39-3.15-2.07-6.41-4.1-12.89-8.12-19.23-12.33-1.73-1.15-3.09-2.86-4.62-4.31.16-.22.35-.47.54-.72zm82.28-130.25c1.56.95 2.72 1.7 3.91 2.38 7.63 4.37 14.99 8.97 17.15 18.46.12.54 1.5 1.28 2.1 1.13 3.35-.81 6.92-1.35 9.9-2.94 5.65-3.03 11.49-5.24 17.73-6.7 4.08-.96 8.11-2.38 11.91-4.15 1.54-.72 2.93-2.74 3.46-4.45 1.48-4.85.01-8.16-4.18-11.28-3.65-2.72-7.15-5.64-10.89-8.22-1.31-.91-3.27-1.72-4.72-1.44-7.58 1.42-15.19 2.87-22.61 4.95-8.6 2.4-16.65 6.15-23.76 12.26zm21.55 128.16c.21.03.43.14.62.09 12.28-3.19 24.55-6.4 36.84-9.56 2.06-.53 1.72-2 1.29-3.24-2.62-7.56-6.69-14.17-13.4-18.77-1.27-.87-3.16-1.33-4.71-1.22-2.93.21-5.83.96-8.74 1.53-5.89 1.14-6.92 2.22-5.33 7.96 1.43 5.15.62 8.65-4.16 11.52-3.32 1.99-4.19 8.06-2.41 11.69zm-46.68-95.91c.03-.21.06-.41.09-.62.85 0 1.7.02 2.54 0 7.22-.23 14.35-.9 21.13-3.7 1.57-.65 2.45-1.46 2.09-3.29-1.18-6.02-3.27-11.62-7.79-15.98-2.69-2.6-5.74-3.76-9.48-1.87-2.44 1.24-5.06 2.15-7.61 3.17-7.38 2.94-13.31 7.69-17.88 14.17-1.97 2.79-1.39 5.19 1.94 5.87 4.94 1.03 9.97 1.53 14.97 2.25zm112.1 78.71c.1-.01.76.07 1.36-.1 4.96-1.41 9.92-2.84 14.86-4.35.45-.14.94-.84 1.02-1.35.31-2.07.01-3.76-2.11-5.08-6.94-4.31-13.13-9.37-18-16.19-1.49-2.09-5.82-3.28-8.64-2.98-3.38.36-6.58 2.68-9.77 4.33-2.45 1.27-3.23 7.54-1.04 8.51 6.59 2.89 11.05 8.02 14.85 13.8 1.74 2.66 4.05 3.46 7.47 3.41zm-26.7-87.03c-9.43 4.39-18.81 8.95-28.36 13.12-3.83 1.67-6.53 3.28-5.21 8.15.53 1.97-.07 4.22.14 6.32.18 1.87.69 3.71 1.19 5.53.57 2.07 1.74 2.74 4.03 2.11 4.77-1.32 8.54-3.95 11.81-7.58 4.59-5.09 9.28-10.1 14.05-15.02 3.19-3.3 4.41-8.76 2.35-12.63zm-86.49 82.26c2.36 4.19 4.6 8.07 6.74 12.01 1.42 2.61 1.6 5.21-.37 7.72-.34.43-.52 1.17-.43 1.71.78 4.61 3.28 6.57 7.91 5.84 2.57-.41 5.09-1.28 7.53-2.23.97-.38 2.15-1.4 2.38-2.34 1.49-6.15 3.06-12.32 3.97-18.57.6-4.08-2.46-7.42-6.33-7.06-7.21.67-14.36 1.92-21.4 2.92zm40.5 74.17c-10.92 8.86-21.62 17.68-32.5 26.28-2.65 2.09-2.38 3.74-.44 5.96 12.13-4 24.18-7.96 36.2-12 .76-.26 1.58-1.07 1.9-1.82 2.57-6.1.29-14.36-5.16-18.42zm-45.82-135.43c-.11 3.32 1.33 5.75 3.94 7.5 3.33 2.25 6.7 4.42 10.11 6.55.77.48 1.75.7 2.66.88 4.67.89 9.36 1.71 14.04 2.57 3.85.7 7.35-.33 10.62-2.23.57-.33 1-1.27 1.1-1.98.26-1.88.29-3.78.44-5.67.28-3.76-1.88-5.95-5.61-5.63-3.48.3-6.95.75-10.43.96-5.34.33-10.73 1.01-16.02.58-3.63-.31-7.12-2.26-10.85-3.53zm52.58 35.46c5.94 1.72 11.28.88 15.88-3.04.48-.4.65-1.16.97-1.75-.61-.22-1.34-.77-1.82-.61-5.04 1.74-10.03 3.58-15.03 5.4z" fill="#010103"/><g fill="#fcfbfa"><path d="m5.17 384 .55-.58c.85.61 1.65 1.24 2.4 1.87l-.59.64c-.83-.73-1.62-1.38-2.36-1.93m1.22 9.53-.82-.34c.71-1.76 1.37-3.64 1.98-5.63.24.13.5.25.76.36-.6 1.67-1.24 3.54-1.92 5.61m-.5-13.5.57-.54c.56.44 1.31 1.06 2.26 1.87l-.64.64c-.68-.66-1.41-1.32-2.19-1.97m3.25.46h2.24v-1.36h.77v1.36h4.57v-1.36h.76v1.36h2.28v.69h-2.28v1.84h-2.64v1.26h4.18v2.64h-4.21c0 .45-.02.86-.05 1.21h4.32v.69h-4.38c-.04.34-.1.75-.19 1.22h5.15v.69h-4.82c.87 1.19 2.51 1.92 4.93 2.19-.17.31-.3.57-.37.76-2.77-.49-4.52-1.41-5.26-2.76-.56 1.26-2.3 2.23-5.24 2.9-.12-.24-.26-.48-.43-.72 2.73-.55 4.38-1.34 4.96-2.38h-4.38v-.69h4.65c.1-.38.17-.79.21-1.22h-4.32v-.69h4.4c.03-.34.05-.75.05-1.21h-4.2v-2.64h4.23v-1.26h-2.69v-1.84h-2.24zm1.46 4.46v1.29h3.45c.01-.4.02-.57.01-.53v-.32-.45h-3.46zm1.55-2.59h4.57v-1.19h-4.57zm6.11 2.59h-3.42v.77c-.01.19-.01.37-.02.53h3.44z"/><path d="m32.63 379.16h.82v1.98h3.54v7.89h1.46v.78h-14.37v-.78h1.46v-7.89h3.54v-1.98h.82v1.98h2.73zm-3.49 11.48.5.73c-1.61.82-3.28 1.63-5 2.41-.13-.27-.28-.55-.44-.82 1.75-.72 3.4-1.49 4.94-2.32m-2.78-5.55h2.73v-3.18h-2.73zm0 3.95h2.73v-3.2h-2.73zm3.54-3.95h2.73v-3.18h-2.73zm0 3.95h2.73v-3.2h-2.73zm7.89 4.68c-1.84-.92-3.51-1.7-5.02-2.32l.45-.73c1.89.8 3.57 1.55 5.04 2.23zm-1.62-11.81h-2.73v3.18h2.73zm-2.73 7.13h2.73v-3.2h-2.73z"/></g></svg>