<svg enable-background="new 0 0 400 400" viewBox="0 0 400 400" xmlns="http://www.w3.org/2000/svg"><path d="m192.46 366.5c3.17-21.33 6.25-42.04 9.36-62.97-5.94-.99-11.38-1.77-16.75-2.86-2.21-.45-4.48-1.26-6.39-2.44-5.41-3.33-10.83-6.71-15.9-10.53-3.06-2.3-5.49-5.43-8.17-8.21-2.07-2.15-4.09-4.35-6.21-6.61-6.01 5.4-12.28 8.51-19.65 9.04-10.58.76-20.39-1.83-29.43-7.21-.94-.56-1.36-2.47-1.45-3.79-.04-.61 1.15-1.57 1.98-1.95 19.04-8.77 38.1-17.49 57.16-26.22 1.1-.51 2.18-1.06 3.86-1.88-15.71-5.59-32.16-8.94-39.03-27.37 1.73.16 3.42-.19 4.4.49 10.53 7.32 22.62 9.88 34.96 11.56 9.89 1.35 19.83 1.98 29.75.09 2.42-.46 5.9-.4 5.79-3.67-.1-2.97-1.5-6.04-2.95-8.72-.46-.85-2.97-.94-4.49-.81-6.01.52-11.99 1.29-17.99 1.91-7.74.8-14.33-1.53-19.91-7.27 5.31-3.92 11.12-5.72 17.17-6.9 6.95-1.36 13.28-3.69 16.88-10.63-3.25-3.2-6.91-4.73-11.49-3.22-9.02 2.97-18.31 5.31-25.64 11.99-3.23 2.95-7.26 3.43-11.35 2.29-4.07-1.13-8.38-2.02-11.98-4.08-4.21-2.42-8.19-5.59-11.44-9.18-2.73-3.02-1.74-4.7 2.24-6.03.3-.1.61-.21.92-.23 10.57-.49 19.62-5.7 29.14-9.42 9.06-3.54 18.03-7.3 26.94-11.66-4.07.45-8.15.8-12.2 1.36-19.34 2.71-36.22-2.45-50.58-15.71-.77-.71-1.37-1.61-2.01-2.45-.23-.3-.34-.7-.7-1.44 6.02.29 11.69.55 17.35.83 9.42.46 18.83.95 28.25 1.38.8.04 1.87-.01 2.39-.49 3.6-3.32 8.13-3.27 12.53-3.65 2.88-.25 4.58-1.78 4.9-4.5.13-1.11-.36-2.76-1.18-3.45-9.3-7.88-18.69-15.66-28.16-23.34-.83-.67-2.55-.86-3.62-.52-7.77 2.45-15.47 5.11-23.21 7.65-1.08.36-2.31.79-3.37.6-6.87-1.24-13.74-2.5-20.55-4.05-2.84-.65-5.25-2.3-5.84-6 6.13-1.86 12.26-3.75 18.4-5.57 27.81-8.24 55.55-16.69 83.46-24.59 17.17-4.86 34.85-7.42 52.67-7.95 5.99-.18 12.06 1.95 18.08 3.13 3.32.65 6.67 1.31 9.88 2.36 2.27.74 4.6 1.81 6.42 3.32 3.66 3.05 3.17 7.06-1.27 8.25-5.76 1.55-11.75 2.58-17.7 3.03-12.87.97-25.78 1.43-39.21 2.13 0 2.89.2 5.71-.06 8.5-.24 2.58-.61 5.25-1.53 7.64-2.65 6.9-5.61 13.68-8.69 21.08 5.15-.38 9.73.62 14.48-1.69 8.47-4.11 15.96-9.58 23.45-15.14 4.88-3.62 9.9-6.88 16.17-7.65 1.88-.23 3.06.33 3.19 2.04.18 2.26.37 4.69-.26 6.81-3.88 13.04-12.43 22.35-24.38 28.29-8.42 4.18-17.31 7.39-26 11.02-1.23.51-2.49.97-3.64 2.12 2.29.13 4.58.22 6.87.38 8.76.63 17.61.71 26.25 2.12 5.28.87 10.45 3.36 15.28 5.88 8.67 4.53 12.17 19.1 9.82 27.09-2.86 9.72-7.73 18.07-13.73 25.87-2.33 3.03-5.88 5.12-8.89 7.62-1.13.94-2.3 1.83-4.03 3.2 6.08.95 11.53 1.85 17 2.64 14.57 2.11 29.15 4.16 43.72 6.28 1.24.18 2.94.26 3.55 1.06 1.26 1.64 2.32 3.66 2.65 5.66.12.75-1.92 2.56-3.11 2.71-5.42.65-10.91 1.34-16.34 1.13-6.22-.24-12.43-2.21-18.59-1.98-8.63.33-17.2 2.09-25.82 3.08-3.25.38-6.54.35-9.81.47-1.69.06-3.41-.11-5.08.11-5.35.71-6.84 2.45-6.82 7.73.01 4.67.04 9.33.07 14 0 .2.14.39.33.9 5.33.58 10.58-.6 15.76-1.99 4.9-1.31 9.67-3.14 14.57-4.44 2.62-.69 5.4-.97 8.12-1.01 2.94-.04 4.64 1.86 5.22 4.65.83 3.98-.02 6.58-2.55 8.02-13.8 7.87-27.63 15.69-41.4 23.63-1.13.65-2.5 1.96-2.64 3.1-1.66 13.86-7.65 26.37-11.93 39.42-1.54 4.7-2.32 9.64-3.61 14.43-1.21 4.51-3.07 8.66-7.96 10.35-1.36.48-2.83.64-4.69 1.03zm6.73-190.35c.28.6.42.99.65 1.34.4.62.83 1.23 1.3 1.8 5.01 6.09 11.53 6.85 18.72 5.31 6.81-1.46 13.47-1.29 19.82 1.95 4.07 2.08 4.44 3.46 1.88 7.34-2.61 3.94-6.74 5.2-11.02 6.25-6.32 1.55-12.62 3.21-19.01 4.84.63 5.61 1.18 10.52 1.76 15.69 2.4-.38 4.5-.6 6.54-1.05 8.61-1.92 14.58-7.89 20.65-13.65 1.88-1.79 4.19-3.77 4.86-6.08 2.08-7.2 3.57-14.57 5.07-21.92.68-3.34-.74-6.1-3.72-7.76-4.86-2.72-10.36-4.15-15.62-2.94-10.71 2.46-21.18 5.84-31.88 8.88zm-40.61-71.9c1.74 2.37 2.93 5.11 5.01 6.61 5.71 4.12 11.6 8.07 17.79 11.41 4.78 2.57 8.13 1.01 10.68-3.87 2.25-4.3 4.41-8.65 6.5-13.03 2.74-5.72.96-8.85-5.34-9.49-1.35-.14-2.76-.09-4.1.11-3.87.56-7.73 1.17-11.57 1.87-6.42 1.17-12.79 2.54-18.97 6.39zm-3.71 167.43c2.2 3.31 5.17 4.97 8.92 5.67 7.5 1.39 14.96 1.15 22.43-.07 5.5-.9 10.72-2.5 15.19-5.96.76-.59 1.71-1.63 1.67-2.42-.14-2.93-.32-5.95-1.13-8.74-.91-3.1-3.75-4.57-6.32-3.93-14.12 3.52-27.53 8.96-40.76 15.45z" fill="#010103"/><path d="m115.57 54.45c2.96-1.44 5.25-3 8.4-1.91 8.6 2.98 17.01.65 25.19-1.7 14.32-4.12 28.43-8.98 42.72-13.2 12.6-3.72 25.3-3.26 37.93.23 6.44 1.78 10.79 5.63 12.36 12.29.14.62.24 1.25.29 1.88.03.4-.08.81-.21 1.89-3.69 0-7.37.04-11.04-.01-3.88-.05-7.46.66-10.81 2.87-1.48.97-3.57 1.65-5.3 1.5-16.27-1.38-31.66 3.36-47.26 6.63-8.9 1.86-17.78 3.88-26.67 5.79-.8.17-1.84.41-2.46.06-6.64-3.67-13.31-7.31-19.75-11.3-1.5-.94-2.2-3.19-3.39-5.02z" fill="#010103"/><g fill="#fcfbfa"><path d="m5.17 384 .55-.58c.85.61 1.65 1.24 2.4 1.87l-.59.64c-.83-.73-1.62-1.38-2.36-1.93m1.22 9.53-.82-.34c.71-1.76 1.37-3.64 1.98-5.63.24.13.5.25.76.36-.6 1.67-1.24 3.54-1.92 5.61m-.5-13.5.57-.54c.56.44 1.31 1.06 2.26 1.87l-.64.64c-.68-.66-1.41-1.32-2.19-1.97m3.25.46h2.24v-1.36h.77v1.36h4.57v-1.36h.76v1.36h2.28v.69h-2.28v1.84h-2.64v1.26h4.18v2.64h-4.21c0 .45-.02.86-.05 1.21h4.32v.69h-4.38c-.04.34-.1.75-.19 1.22h5.15v.69h-4.82c.87 1.19 2.51 1.92 4.93 2.19-.17.31-.3.57-.37.76-2.77-.49-4.52-1.41-5.26-2.76-.56 1.26-2.3 2.23-5.24 2.9-.12-.24-.26-.48-.43-.72 2.73-.55 4.38-1.34 4.96-2.38h-4.38v-.69h4.65c.1-.38.17-.79.21-1.22h-4.32v-.69h4.4c.03-.34.05-.75.05-1.21h-4.2v-2.64h4.23v-1.26h-2.69v-1.84h-2.24zm1.46 4.46v1.29h3.45c.01-.4.02-.57.01-.53v-.32-.45h-3.46zm1.55-2.59h4.57v-1.19h-4.57zm6.11 2.59h-3.42v.77c-.01.19-.01.37-.02.53h3.44z"/><path d="m32.63 379.16h.82v1.98h3.54v7.89h1.46v.78h-14.37v-.78h1.46v-7.89h3.54v-1.98h.82v1.98h2.73zm-3.49 11.48.5.73c-1.61.82-3.28 1.63-5 2.41-.13-.27-.28-.55-.44-.82 1.75-.72 3.4-1.49 4.94-2.32m-2.78-5.55h2.73v-3.18h-2.73zm0 3.95h2.73v-3.2h-2.73zm3.54-3.95h2.73v-3.18h-2.73zm0 3.95h2.73v-3.2h-2.73zm7.89 4.68c-1.84-.92-3.51-1.7-5.02-2.32l.45-.73c1.89.8 3.57 1.55 5.04 2.23zm-1.62-11.81h-2.73v3.18h2.73zm-2.73 7.13h2.73v-3.2h-2.73z"/></g></svg>