<svg enable-background="new 0 0 400 400" viewBox="0 0 400 400" xmlns="http://www.w3.org/2000/svg"><path d="m100.34 234.66c-7.55 20.16-18.35 37.94-31.51 54.3-5.91 7.34-12.97 13.4-22.08 16.6-.9.32-1.81.61-2.74.82-1.01.23-2.04.36-3.27.57-1.23-5.16-.24-10 2.2-14.2 12.75-21.98 20.23-46.08 28.66-69.81 6.09-17.17 8.35-34.82 5.38-52.88-.64-3.86-2.14-7.89-4.3-11.13-7.45-11.18-15.25-22.15-23.15-33.02-5.46-7.51-11.32-14.72-17.4-22.58 5.35-.62 9.95-1.18 14.55-1.69 4.74-.52 9.51-.84 14.22-1.55 2.67-.4 5.4-1.09 7.86-2.21 24.6-11.13 49.01-22.69 73.77-33.44 8.87-3.85 18.53-5.89 27.86-8.66 9.23-2.74 18.42-5.71 27.78-7.97 13.01-3.14 26.01-2.25 38.82 1.57.3.09.62.2.87.38 2.67 1.84 4.97 1.93 8.25.43 4.69-2.14 9.92-.39 14.45 1.48 7.62 3.15 14.97 6.97 22.37 10.64 1.12.56 2.13 1.69 2.78 2.79 1.39 2.37 2.65 4.84 3.72 7.37 1.57 3.7 3.74 6.89 7.22 8.98 2.81 1.68 3.7 4.25 3.67 7.24-.12 11.82-2.93 22.84-9.99 32.52-3.44 4.71-2.62 12.47 2 16.03 34.03 26.29 54.56 61.56 66.72 102.01 7.45 24.77 5.41 49.16-4.6 73.33-6.27 15.13-16.76 25.12-30.68 32.34-4.39 2.28-9.19 3.14-15.02 2.15 1.23-5.04 1.51-10.48 3.82-14.83 6.96-13.08 14.57-25.83 22.24-38.52 3.86-6.39 4.22-13.33 3.94-20.26-.82-20.14-6.96-39.1-13.63-57.9-.14-.39-.4-.75-.61-1.11-8.21-13.47-16.38-26.97-24.64-40.41-4.43-7.21-9.98-13.2-18.51-15.55-1.62-.45-3.32-.66-5-.84-3.64-.39-6.54.54-9.33 3.36-11.83 11.95-24.54 22.83-40.14 29.72-14.57 6.43-30.09 9.23-45.63 12.09-10.03 1.84-19.85.26-29.75-.43-13.83-.97-27.63-2.18-41.66-3.3-1.24 4.55-2.42 8.91-3.68 13.53 7.68 3.31 15.26 6.51 22.78 9.86 1.8.8 3.54 1.91 5.01 3.22 6.83 6.04 13.51 12.25 20.36 18.28 1.11.98 2.7 1.66 4.18 1.96 8.78 1.76 17.24-.62 25.8-2.03 9.66-1.6 18.42-5.21 26.73-10.33 7.21-4.44 14.59-8.66 22.16-12.44 5.48-2.74 7.03-7.21 7.33-12.62.08-1.46-.14-2.96-.36-4.42-.66-4.33.02-6.05 2.9-7.07 4.41-1.56 7.45-.63 9.35 2.87 3.93 7.26 7.89 14.52 11.77 21.81.52.97 1 2.2.88 3.24-1.51 13.69-3.12 27.38-4.74 41.06-.12 1.03-.46 2.06-.85 3.03-5.95 14.84-11.95 29.65-17.87 44.51-3.74 9.38-10.52 16.39-18.06 22.6-17.76 14.64-38.68 20.45-61.32 20.98-.9.02-2.01-.6-2.69-1.27-6.32-6.13-12.66-12.24-18.79-18.54-5.33-5.48-8.46-12.35-11.51-19.26-1.7-3.85-3.4-7.79-5.82-11.19-2.93-4.13-4.52-8.53-5.06-13.45-1.24-11.27-2.41-22.55-3.79-33.8-1.06-8.64-4.1-16.43-10.81-22.37-1.02-.91-2.17-1.66-3.41-2.59zm166.58-145.36c.09-10.73-3.63-15.94-10.1-18.83-4.39-1.96-9.25-2.93-13.94-4.16-1.69-.44-3.55-.68-5.27-.48-15.78 1.86-31.55 3.82-47.31 5.8-1.12.14-2.26.55-3.26 1.09-21.7 11.74-43.39 23.51-65.06 35.29-.82.44-2 .94-2.21 1.65-1.52 5.02-4.17 9.82-3.17 15.37.28 1.58.78 2.56 2.69 2.83 5.76.82 11.47 2.04 17.23 2.89 4.05.6 8.26 1.64 12.22 1.12 10.07-1.33 20.04-3.4 30.04-5.21 20.73-3.74 41.37-8.02 62.65-7.42 7.39.21 14.11-2.61 19.86-7.36.85-.7 1.79-1.71 1.99-2.71 1.49-7.66 2.83-15.38 3.64-19.87zm-56.08 222.59c.45-1.11.8-2.1 1.25-3.03 3.4-6.94 6.83-13.87 10.23-20.8 4.48-9.12 8.97-18.24 13.37-27.4.75-1.57 1.63-3.34-.15-4.95-1.71-1.54-3.45-2.27-5.71-.98-1.36.78-2.96 1.14-4.43 1.74-17.7 7.24-36.3 12.43-52.39 23.3-.88.6-2.61.71-3.58.27-3.43-1.57-6.91-3.18-9.99-5.32-5.87-4.07-12.23-2.42-14.43 4.31-5.87 17.91-3.11 34.47 8.24 49.54.88 1.17 1.86 2.69 3.1 3.08 8.73 2.71 17.36 5.04 26.47.59 10.08-4.92 19.34-10.89 27.63-18.62 1.2 1.29 2.36 2.54 3.84 4.13.2-2.12.34-3.64.49-5.3-1.44-.21-2.57-.37-3.94-.56zm-121.38-153.25c.1-.26.2-.53.3-.79 2.35.77 4.83 1.28 7.01 2.38 3.87 1.95 7.69 4.06 11.31 6.45 6.57 4.33 13.6 7.16 21.48 7.9 2.42.23 4.79.87 7.2 1.23 6.06.9 12.13 2.5 18.19 2.46 9.67-.07 19.08-2.43 28.19-5.77 15.1-5.54 28.85-13.7 42.48-22.06 4.65-2.85 9.12-5.98 13.92-9.14-6.54-4.45-15.2-2.25-20.62-8.42-4.94 6.26-11.78 9.26-19.31 10.68-6.12 1.16-12.35 1.79-18.55 2.52-10.48 1.22-20.81 3.18-30.03 8.55-8.49 4.95-16.86 4.65-24.97-.12-4.5-2.65-8.48-6.29-12.41-9.81-7.35-6.59-15.31-12.04-24.9-14.78-1.61-.46-3.46-1.23-4.92-.83-4.61 1.26-9.08 3-14.06 4.71 2.07 1.87 3.64 3.43 5.36 4.82 6.49 5.22 12.6 10.69 13.94 19.57.04.15.26.29.39.45z" fill="#010103"/><g fill="#fcfbfa"><path d="m5.17 384 .55-.58c.85.61 1.65 1.24 2.4 1.87l-.59.64c-.83-.73-1.62-1.38-2.36-1.93m1.22 9.53-.82-.34c.71-1.76 1.37-3.64 1.98-5.63.24.13.5.25.76.36-.6 1.67-1.24 3.54-1.92 5.61m-.5-13.5.57-.54c.56.44 1.31 1.06 2.26 1.87l-.64.64c-.68-.66-1.41-1.32-2.19-1.97m3.25.46h2.24v-1.36h.77v1.36h4.57v-1.36h.76v1.36h2.28v.69h-2.28v1.84h-2.64v1.26h4.18v2.64h-4.21c0 .45-.02.86-.05 1.21h4.32v.69h-4.38c-.04.34-.1.75-.19 1.22h5.15v.69h-4.82c.87 1.19 2.51 1.92 4.93 2.19-.17.31-.3.57-.37.76-2.77-.49-4.52-1.41-5.26-2.76-.56 1.26-2.3 2.23-5.24 2.9-.12-.24-.26-.48-.43-.72 2.73-.55 4.38-1.34 4.96-2.38h-4.38v-.69h4.65c.1-.38.17-.79.21-1.22h-4.32v-.69h4.4c.03-.34.05-.75.05-1.21h-4.2v-2.64h4.23v-1.26h-2.69v-1.84h-2.24zm1.46 4.46v1.29h3.45c.01-.4.02-.57.01-.53v-.32-.45h-3.46zm1.55-2.59h4.57v-1.19h-4.57zm6.11 2.59h-3.42v.77c-.01.19-.01.37-.02.53h3.44z"/><path d="m32.63 379.16h.82v1.98h3.54v7.89h1.46v.78h-14.37v-.78h1.46v-7.89h3.54v-1.98h.82v1.98h2.73zm-3.49 11.48.5.73c-1.61.82-3.28 1.63-5 2.41-.13-.27-.28-.55-.44-.82 1.75-.72 3.4-1.49 4.94-2.32m-2.78-5.55h2.73v-3.18h-2.73zm0 3.95h2.73v-3.2h-2.73zm3.54-3.95h2.73v-3.18h-2.73zm0 3.95h2.73v-3.2h-2.73zm7.89 4.68c-1.84-.92-3.51-1.7-5.02-2.32l.45-.73c1.89.8 3.57 1.55 5.04 2.23zm-1.62-11.81h-2.73v3.18h2.73zm-2.73 7.13h2.73v-3.2h-2.73z"/></g></svg>