<svg enable-background="new 0 0 400 400" viewBox="0 0 400 400" xmlns="http://www.w3.org/2000/svg"><path d="m286.5 365.61c-.14-.42-.28-.62-.26-.81 1.22-16.78-3.58-32.74-6.7-48.92-1.22-6.34-2.65-12.65-3.78-19.01-.3-1.68-.01-3.54.36-5.25.44-2.05 1.24-4.02 1.97-6.28-2.86-.46-3.1-2.47-3.32-4.82-.67-7.28-1.56-14.54-2.44-21.8-.12-1.01-.56-2.02-1.03-2.94-1.78-3.49-3.82-6.86-5.39-10.44-.79-1.8-.84-3.95-1.15-5.95-.34-2.12-.17-4.42-.96-6.35-2.91-7.16-6.4-14.08-9.16-21.29-4.72-12.33-8.96-24.84-13.61-37.19-1.29-3.43-2.96-6.86-5.13-9.78-3.86-5.21-8.89-5.51-14.43-2.27-5.09 2.98-10.41 5.77-15.93 7.79-10.33 3.77-20.86 7-31.36 10.28-2.39.75-4.98.99-7.5 1.12-4.33.21-8.36 1.06-11.96 3.67-.67.49-2.03.64-2.79.31-5.97-2.61-12.26-3.25-18.65-3.28-7.42-.03-14.85.26-22.06-2.04-5.42-1.73-10.24-4.42-14.46-8.76 4.66-3.24 9.75-3.79 14.95-3.61 9.73.34 19.47 1.39 29.17 1.11 16.2-.46 31.41-5.52 46.21-11.78 7.98-3.38 15.87-7 23.72-10.67 1.97-.92 3.97-2.16 5.41-3.75 2.55-2.81 3.69-6 1.45-9.82-1.92-3.28-3.49-6.78-4.95-10.29-2.07-4.97-4.98-9.26-9.06-12.81-2.55-2.22-4.89-4.7-7.22-7.18-11.5-12.25-23.71-23.64-39.16-32.02 4.27-3.36 8.31-4.85 13.09-3.9 15.4 3.04 30.29 7.82 44.97 13.29 1.15.43 2.37 1.49 2.93 2.58 2.64 5.18 5 10.51 7.57 15.73 1.4 2.84 2.66 5.87 4.66 8.24 1.69 1.99 4.23 3.42 6.64 4.58 2.26 1.08 4.32.39 6.13-1.74 13.21-15.51 21.47-33.04 21.25-53.72-.06-5.71-2.03-11.4-3.15-17.1-.24-1.22-.6-2.41-1.19-4.72 4 1.6 7.57 2.43 10.46 4.3 8.85 5.7 15.29 13.61 17.65 23.94.91 4-.3 8.55-.87 12.81-.8 5.98-1.84 11.94-2.93 17.87-.32 1.72-.92 3.49-1.83 4.96-3.94 6.41-8.16 12.64-12.04 19.09-4.56 7.58-9.71 14.62-16.31 20.59-1.04.94-1.75 2.95-1.58 4.35.42 3.53 1.01 7.14 2.26 10.45 5.01 13.27 10.55 26.35 15.4 39.67 3.4 9.34 6 18.96 8.96 28.46.28.91.34 2 .89 2.7 6.05 7.61 6.02 17.23 8.67 25.95 4.5 14.85 4.61 30.32 6.3 45.57 1.37 12.32 2.44 24.68 3.6 37.03.11 1.13.29 2.52-.22 3.39-4.43 7.46-4.11 15.87-5.05 24.03-.67 5.62-.82 5.82-7.04 6.43z" fill="#010103"/><path d="m202.2 178.36c8.01.53 15.25.42 22.28 1.59 11.1 1.85 17.64 9.59 18.02 21.37.22 6.82-.77 13.71-1.56 20.53-.99 8.63-2.3 17.22-3.54 25.81-.24 1.66-.6 3.34-1.18 4.9-4.03 10.81-8.11 21.6-12.23 32.37-.44 1.15-1.07 2.31-1.89 3.22-7.89 8.84-16.14 17.38-23.69 26.5-7.69 9.28-17.51 11.88-28.89 11.33-3.7-.18-6.02-1.92-8.6-4.38-5.15-4.91-7.57-10.71-9.09-17.57-1.77-8-5.08-15.66-7.46-23.54-1.08-3.59-1.99-7.35-2.2-11.07-.52-9.31-.59-18.64-.88-27.96-.03-.89-.12-2.32-.64-2.57-2.81-1.35-2.27-3.65-2.17-5.98.3-7.31.64-14.62.68-21.93.01-2.22-.55-4.59-1.43-6.64-1.85-4.26-4.08-8.35-6.25-12.68 3.13-2.6 6.44-2.38 9.85-1.16 8.96 3.21 16.82 7.88 23.49 14.99 3.88 4.13 6.79 7.87 5.65 13.68-.76 3.87 1.48 5.45 4.62 6.65 5.88 2.25 11.88 1.69 17.89.96 5.78-.7 11.56-1.49 17.31-2.4 1.12-.18 2.36-.86 3.14-1.69 4.39-4.65 4.92-10.26 3.99-16.31-1.33-8.76-5.05-16.28-11.08-22.73-1.27-1.38-2.34-2.97-4.14-5.29zm-34.93 66.08c-.03.11-.33.89-.54 1.69-3.31 12.36-2.7 24.98-2.33 37.57.03 1.05.7 2.21 1.37 3.1 3.41 4.59 6.83 9.18 10.47 13.58.73.89 2.54 1.53 3.68 1.33 5.12-.9 8.71-3.97 11.11-8.59 2.54-4.87 5.24-9.66 7.89-14.48 1.01-1.84 2.34-3.55 3.1-5.49 2.79-7.2 5.4-14.46 8.07-21.7 1.35-3.66.91-5.04-3.03-5.76-4.54-.84-9.22-1.11-13.85-1.21-8.45-.17-16.9-.04-25.94-.04z" fill="#010103"/><g fill="#fcfbfa"><path d="m5.17 384 .55-.58c.85.61 1.65 1.24 2.4 1.87l-.59.64c-.83-.73-1.62-1.38-2.36-1.93m1.22 9.53-.82-.34c.71-1.76 1.37-3.64 1.98-5.63.24.13.5.25.76.36-.6 1.67-1.24 3.54-1.92 5.61m-.5-13.5.57-.54c.56.44 1.31 1.06 2.26 1.87l-.64.64c-.68-.66-1.41-1.32-2.19-1.97m3.25.46h2.24v-1.36h.77v1.36h4.57v-1.36h.76v1.36h2.28v.69h-2.28v1.84h-2.64v1.26h4.18v2.64h-4.21c0 .45-.02.86-.05 1.21h4.32v.69h-4.38c-.04.34-.1.75-.19 1.22h5.15v.69h-4.82c.87 1.19 2.51 1.92 4.93 2.19-.17.31-.3.57-.37.76-2.77-.49-4.52-1.41-5.26-2.76-.56 1.26-2.3 2.23-5.24 2.9-.12-.24-.26-.48-.43-.72 2.73-.55 4.38-1.34 4.96-2.38h-4.38v-.69h4.65c.1-.38.17-.79.21-1.22h-4.32v-.69h4.4c.03-.34.05-.75.05-1.21h-4.2v-2.64h4.23v-1.26h-2.69v-1.84h-2.24zm1.46 4.46v1.29h3.45c.01-.4.02-.57.01-.53v-.32-.45h-3.46zm1.55-2.59h4.57v-1.19h-4.57zm6.11 2.59h-3.42v.77c-.01.19-.01.37-.02.53h3.44z"/><path d="m32.63 379.16h.82v1.98h3.54v7.89h1.46v.78h-14.37v-.78h1.46v-7.89h3.54v-1.98h.82v1.98h2.73zm-3.49 11.48.5.73c-1.61.82-3.28 1.63-5 2.41-.13-.27-.28-.55-.44-.82 1.75-.72 3.4-1.49 4.94-2.32m-2.78-5.55h2.73v-3.18h-2.73zm0 3.95h2.73v-3.2h-2.73zm3.54-3.95h2.73v-3.18h-2.73zm0 3.95h2.73v-3.2h-2.73zm7.89 4.68c-1.84-.92-3.51-1.7-5.02-2.32l.45-.73c1.89.8 3.57 1.55 5.04 2.23zm-1.62-11.81h-2.73v3.18h2.73zm-2.73 7.13h2.73v-3.2h-2.73z"/></g></svg>