<svg enable-background="new 0 0 400 400" viewBox="0 0 400 400" xmlns="http://www.w3.org/2000/svg"><path d="m32.49 212.27c5.69-4.3 12.2-6.08 18.93-6.94 7.77-.99 15.59-1.72 23.41-2.16 11.94-.66 23.5-3.33 34.93-6.45 10.95-2.99 22.05-3.99 33.29-4.15 16.32-.24 32.64-.43 48.97-.48 2.68-.01 4.64-.84 6.44-2.69 4.8-4.94 7.17-11.17 9.5-17.44 5.91-15.91 7.57-32.53 8.06-49.33.15-5.24-1.73-9.97-4.1-14.52-.32-.61-.93-1.15-1.54-1.52-6.27-3.83-12.93-5.5-20.35-4.2-5.94 1.04-11.98 1.47-17.93 2.41-1.74.27-3.71.98-4.95 2.16-7.87 7.41-16.73 13.34-26.44 17.99-8.29 3.97-17 5.05-25.99 2.7-1.4-.37-2.75-1.05-4.05-1.72-13.94-7.3-23.93-18.66-32.53-31.49-4.43-6.62-8.68-13.31-10.88-21.07-.34-1.19-.51-2.42-.8-3.88 2.49-.39 4.66-.85 6.85-1.03.83-.07 1.74.45 2.55.83.45.22.8.69 1.16 1.07 9.07 9.66 19.71 12.92 32.83 9.48 18.6-4.87 37.87-7.15 55.86-14.53 3-1.23 6.67-.87 10.04-1.11 6.97-.5 13.98-1.49 20.93-1.23 8.85.33 17.64 2.17 26.49 2.49 8.06.3 13.03 4.29 18.07 10.15 15.35 17.88 20.4 38.51 18.66 61.46-1.04 13.75-6.03 26.35-10.66 39.08-1.63 4.48-3.11 9.01-4.97 13.4-1.04 2.45-.38 4.02 1.81 4.8 4.67 1.66 9.34 3.46 14.17 4.48 17.91 3.8 35.96 6.93 53.79 11.05 13.44 3.11 26.47 7.69 37.39 16.7 1.31 1.08 2.6 2.18 3.86 3.31 8.25 7.45 9.33 10.07 8.33 20.99-.1 1.07-.97 2.33-1.85 3.01-5.7 4.39-12.26 5.68-18.93 3.27-30.18-10.89-61.71-16.52-92.77-23.98-4.99-1.2-10.48-.32-15.73-.35-1.27-.01-2.58.47-3.79.27-6.5-1.05-10.28 2.35-14.17 7.11-10.25 12.55-20.31 25.43-31.83 36.76-22.51 22.12-48.24 40.06-76.91 53.44-11.48 5.36-23.65 8.46-36.58 8.11-4.37-.12-4.24-3.21-5.37-5.65-1.15-2.47 1.32-2.78 2.52-3.58 23.55-15.77 46.48-32.4 66.72-52.31 12.53-12.32 24.18-25.56 36.07-38.52 3.85-4.2 6.19-9.3 7.14-15.01.39-2.32-.06-4.04-2.54-4.52-5.26-1.01-10.54-2.67-15.81-2.69-20.77-.09-41.55.77-62.32.44-12.11-.19-23.81 1.43-35.48 4.19-11.35 2.67-21.09-.18-29.5-8.6z" fill="#010103"/><g fill="#fcfbfa"><path d="m5.17 384 .55-.58c.85.61 1.65 1.24 2.4 1.87l-.59.64c-.83-.73-1.62-1.38-2.36-1.93m1.22 9.53-.82-.34c.71-1.76 1.37-3.64 1.98-5.63.24.13.5.25.76.36-.6 1.67-1.24 3.54-1.92 5.61m-.5-13.5.57-.54c.56.44 1.31 1.06 2.26 1.87l-.64.64c-.68-.66-1.41-1.32-2.19-1.97m3.25.46h2.24v-1.36h.77v1.36h4.57v-1.36h.76v1.36h2.28v.69h-2.28v1.84h-2.64v1.26h4.18v2.64h-4.21c0 .45-.02.86-.05 1.21h4.32v.69h-4.38c-.04.34-.1.75-.19 1.22h5.15v.69h-4.82c.87 1.19 2.51 1.92 4.93 2.19-.17.31-.3.57-.37.76-2.77-.49-4.52-1.41-5.26-2.76-.56 1.26-2.3 2.23-5.24 2.9-.12-.24-.26-.48-.43-.72 2.73-.55 4.38-1.34 4.96-2.38h-4.38v-.69h4.65c.1-.38.17-.79.21-1.22h-4.32v-.69h4.4c.03-.34.05-.75.05-1.21h-4.2v-2.64h4.23v-1.26h-2.69v-1.84h-2.24zm1.46 4.46v1.29h3.45c.01-.4.02-.57.01-.53v-.32-.45h-3.46zm1.55-2.59h4.57v-1.19h-4.57zm6.11 2.59h-3.42v.77c-.01.19-.01.37-.02.53h3.44z"/><path d="m32.63 379.16h.82v1.98h3.54v7.89h1.46v.78h-14.37v-.78h1.46v-7.89h3.54v-1.98h.82v1.98h2.73zm-3.49 11.48.5.73c-1.61.82-3.28 1.63-5 2.41-.13-.27-.28-.55-.44-.82 1.75-.72 3.4-1.49 4.94-2.32m-2.78-5.55h2.73v-3.18h-2.73zm0 3.95h2.73v-3.2h-2.73zm3.54-3.95h2.73v-3.18h-2.73zm0 3.95h2.73v-3.2h-2.73zm7.89 4.68c-1.84-.92-3.51-1.7-5.02-2.32l.45-.73c1.89.8 3.57 1.55 5.04 2.23zm-1.62-11.81h-2.73v3.18h2.73zm-2.73 7.13h2.73v-3.2h-2.73z"/></g></svg>