<svg enable-background="new 0 0 400 400" viewBox="0 0 400 400" xmlns="http://www.w3.org/2000/svg"><g fill="#010103"><path d="m92.12 312.58c1.46.41 2.47.65 3.43.98 8.21 2.82 16.41 5.67 24.61 8.49 4.49 1.54 8.87 3.09 12.79 6.07 6.13 4.66 13.63 4.97 20.95 5.03 17.28.14 34.56.26 51.83-.03 11.44-.19 22.42-3.05 32.9-7.67.85-.38 1.69-.93 2.35-1.59 6.49-6.54 12.98-13.08 19.4-19.69 8.07-8.3 9.13-18.23 6.58-28.96-.17-.72-.37-1.44-.56-2.15-2.55-9.36-2.96-9.53-12.58-11.1-13.57-2.22-26.71.23-39.45 4.26-9.62 3.05-19.08 7.09-27.97 11.88-12.76 6.87-24.85 14.97-37.39 22.25-5.93 3.44-12.14 6.47-18.41 9.26-14.41 6.42-28.5 4.78-42.19-2.41-3.28-1.72-6.47-3.61-9.65-5.52-.96-.57-1.72-1.46-2.87-2.46 4.46-3.24 9.21-4.85 14.06-6.17 3.06-.83 6.17-1.51 9.3-2.08 9.04-1.67 17.38-5.01 25.44-9.44 16.52-9.07 33.3-17.66 49.86-26.66 5.27-2.86 10.7-4.92 16.54-6.22 10.64-2.38 21.22-5.02 31.84-7.47 1.27-.29 2.94-.56 3.93.01 4.94 2.83 10.16 2.6 15.46 1.94 8.83-1.1 17.58-2.1 26.54-.41 17.95 3.38 30.49 15.1 33.01 32.71 1.54 10.77.15 21.29-6.32 30.67-6.07 8.81-11.8 17.85-17.82 26.7-1.01 1.48-2.54 2.87-4.15 3.65-12.39 5.98-24.65 12.3-37.35 17.55-18.57 7.67-38.24 9.97-58.21 9.72-20.4-.26-40.29-3.41-59.17-11.49-5.63-2.41-10.99-5.44-16.43-8.28-.88-.46-1.72-1.3-2.22-2.17-5.01-8.96-6.57-18.85-8.08-29.2z"/><path d="m237.58 38.26c8.75 3.75 15.34 9.26 20 16.59 4.06 6.39 7.47 13.26 10.42 20.23 1.33 3.13.74 7.04 1.23 10.57.22 1.59.83 3.16 1.47 4.64.41.95 1.15 1.78 1.84 2.58 6.98 7.97 11.61 17.07 13.3 27.59.16 1.02.57 2.05 1.06 2.97 10.27 19.11 23.48 35.72 41.3 48.4 9.43 6.71 18.85 13.5 25.45 23.24 3.14 4.62 5.63 9.68 8.48 14.5.99 1.67.47 2.62-1.04 3.6-4.38 2.86-9.07 3.77-13.92 1.81-19.61-7.95-39.35-15.62-58.67-24.22-13.45-5.98-24.63-15.7-35.72-25.24-6.09-5.24-11.67-11.08-17.34-16.79-6.91-6.96-10.41-15.48-9.95-25.26.66-13.96 1.71-27.89 2.62-41.84.09-1.37.37-2.73.5-4.1.62-6.17 2.04-11.72 6.88-16.41 5.37-5.21 4.51-12.17 3.01-18.88-.23-1.11-.5-2.22-.92-3.98z"/><path d="m90.94 112.63c18.36 9.11 37.13 18.41 55.86 27.76.98.49 1.9 1.36 2.52 2.28 5.9 8.6 7.71 18.01 5.04 28.13-2.63 9.97-6.41 19.49-11.51 28.47-.67 1.18-1.61 2.22-2.51 3.24-15.03 17.12-30.06 34.25-45.15 51.32-1.95 2.21-4.14 4.22-6.39 6.13-2.5 2.13-5.15 4.08-7.8 6.02-9.3 6.85-18.21 14.1-26.06 22.66-3.18 3.47-7.19 6.24-11.08 8.97-3.43 2.41-7.4 3.59-12.11 3.09.05-4.24-.77-8.28 1.94-12.38 13.82-20.94 27.75-41.84 40.89-63.21 6.91-11.23 12.74-23.2 18.23-35.2 8.51-18.6 9.3-38.08 4.28-57.78-1.74-6.82-4.22-13.44-6.15-19.5z"/></g><path d="m5.17 384 .55-.58c.85.61 1.65 1.24 2.4 1.87l-.59.64c-.83-.73-1.62-1.38-2.36-1.93m1.22 9.53-.82-.34c.71-1.76 1.37-3.64 1.98-5.63.24.13.5.25.76.36-.6 1.67-1.24 3.54-1.92 5.61m-.5-13.5.57-.54c.56.44 1.31 1.06 2.26 1.87l-.64.64c-.68-.66-1.41-1.32-2.19-1.97m3.25.46h2.24v-1.36h.77v1.36h4.57v-1.36h.76v1.36h2.28v.69h-2.28v1.84h-2.64v1.26h4.18v2.64h-4.21c0 .45-.02.86-.05 1.21h4.32v.69h-4.38c-.04.34-.1.75-.19 1.22h5.15v.69h-4.82c.87 1.19 2.51 1.92 4.93 2.19-.17.31-.3.57-.37.76-2.77-.49-4.52-1.41-5.26-2.76-.56 1.26-2.3 2.23-5.24 2.9-.12-.24-.26-.48-.43-.72 2.73-.55 4.38-1.34 4.96-2.38h-4.38v-.69h4.65c.1-.38.17-.79.21-1.22h-4.32v-.69h4.4c.03-.34.05-.75.05-1.21h-4.2v-2.64h4.23v-1.26h-2.69v-1.84h-2.24zm1.46 4.46v1.29h3.45c.01-.4.02-.57.01-.53v-.32-.45h-3.46zm1.55-2.59h4.57v-1.19h-4.57zm6.11 2.59h-3.42v.77c-.01.19-.01.37-.02.53h3.44z" fill="#fcfbfa"/><path d="m32.63 379.16h.82v1.98h3.54v7.89h1.46v.78h-14.37v-.78h1.46v-7.89h3.54v-1.98h.82v1.98h2.73zm-3.49 11.48.5.73c-1.61.82-3.28 1.63-5 2.41-.13-.27-.28-.55-.44-.82 1.75-.72 3.4-1.49 4.94-2.32m-2.78-5.55h2.73v-3.18h-2.73zm0 3.95h2.73v-3.2h-2.73zm3.54-3.95h2.73v-3.18h-2.73zm0 3.95h2.73v-3.2h-2.73zm7.89 4.68c-1.84-.92-3.51-1.7-5.02-2.32l.45-.73c1.89.8 3.57 1.55 5.04 2.23zm-1.62-11.81h-2.73v3.18h2.73zm-2.73 7.13h2.73v-3.2h-2.73z" fill="#fcfbfa"/></svg>