<svg enable-background="new 0 0 400 400" viewBox="0 0 400 400" xmlns="http://www.w3.org/2000/svg"><path d="m198.24 133.54c9.57 7.35 14.85 17.34 20.05 27.49 2.34 4.57 5.67 8.64 8.65 12.87 1.24 1.76 2.99 2.34 5.25 2.16 8.02-.66 16.06-1.32 24.1-1.61 17.63-.63 34.12 3.1 48.5 13.85 12.32 9.22 15.67 20.17 11.2 35.01-2.44 8.12-6.38 15.1-13.23 20.38-2.91 2.25-6.84 4.73-7.6 7.78-.75 3.01 1.88 6.89 3.09 10.36 1.18 3.4 2.72 6.7 3.57 10.18 1.77 7.26 6.56 12.96 9.65 19.53.72 1.53 2.35 2.64 3.6 3.99 11.37-10 20.11-22.62 34.1-29 2.97 3.56 3.26 6.72.76 10.87-6.62 10.97-12.67 22.28-18.96 33.45-.52.92-.97 1.93-1.67 2.69-5.39 5.84-10.76 11.7-16.28 17.41-5.81 6.01-13.45 9.15-20.83 12.58-29.53 13.7-60.56 21.67-93.09 23.36-28.08 1.46-54.99-3.72-80.78-15.04-9.68-4.25-19.66-7.84-29.58-11.54-3.06-1.14-5.65-2.65-7.8-5.15-8.24-9.6-16.28-19.37-20.19-31.66-1.35-4.24-1.53-8.86-2.27-13.47 5.05-.8 8.89-1.11 11.96 3.17 2.94 4.12 6.53 7.8 10 11.52 1.5 1.6 3.3 3 5.18 4.15 5.9 3.62 8.64 3.2 12.78-2.21 9.18-11.97 17.65-24.4 23.16-38.55 1.43-3.68 1.87-7.77 2.45-11.72.13-.87-.83-2.32-1.69-2.86-4.64-2.88-9.59-3.71-14.87-1.78-4.67 1.7-9.17 3.45-13.12 6.81-7.66 6.52-16.46 8.94-26.34 5.4-7.27-2.61-14.57-5.1-21.79-7.83-1.26-.48-2.18-1.88-3.9-3.45 3.72-1.24 6.46-2.26 9.26-3.06 21.83-6.24 41.46-17.57 62-26.79 9.75-4.38 19.53-8.68 29.29-13.06 2.21-.99 4.41-2.06 6.52-3.25 5.3-2.97 8.77-7.17 9.1-13.56.1-1.89.49-3.81 1.07-5.61.95-2.95.08-4.95-2.38-6.75-7.53-5.51-15.82-9.16-25.18-9.49-3.25-.11-6.63 1.05-9.8 2.09-5.53 1.81-8.68.82-12-3.84-3.38-4.73-7.2-9.13-10.47-13.93-2.01-2.96-3.33-6.38-4.96-9.6.28-.33.56-.67.84-1 1.78 0 3.98-.68 5.28.11 8.92 5.38 19.1 6.7 28.84 9.43 9.16 2.57 18.26 5.35 27.37 8.09.98.3 2.03.78 2.75 1.48 5 4.89 10.21 9.63 14.74 14.93 1.94 2.26 2.43 5.76 3.56 8.71.45 1.17.82 2.36 1.31 3.8 10.74-3.27 21.28-6.34 31.72-9.74 2.7-.88 3.26-3.86 2.32-6.16-1.53-3.75-3.23-7.66-5.79-10.71-4.82-5.76-10.65-10.68-15.44-16.46-5.8-7.02-13.54-9.95-21.91-11.71-3.89-.81-8.04-1.21-11.98-.84-7.29.68-12.49-2.23-16.55-7.91-5.6-7.85-7.86-16.98-10.27-26.34 3.08-.57 5.5-.31 8.18 1.4 12.51 7.97 26.16 13.37 40.55 16.91 2.56.63 4.59.15 6.41-2.08 14.53-17.85 24.08-37.56 23.3-61.22-.12-3.78-.84-7.15-4.03-9.86-1.55-1.32-2.51-3.63-3.12-5.68-1.11-3.68.78-5.89 4.68-5.51 2.61.25 5.24.87 7.72 1.74 8.05 2.81 15.07 7.32 20.57 13.88 4.08 4.87 5 10.41 2.29 16.32-.47 1.03-1.12 2.07-1.95 2.82-3.91 3.54-6.34 7.84-7.4 13.01-1.25 6.09-3.79 11.59-7.4 16.71-7.73 11-15.25 22.15-23.1 33.59zm85.34 107.84c3.4-2.08 7.39-3.16 8.66-7.53 1.89-6.48 4.36-12.83 5.71-19.42 1.8-8.82-4.45-17.61-13.19-19.59-5.68-1.29-11.37-2.53-17.07-3.7-2.99-.61-6.07-1.66-9.02-1.43-16.98 1.34-32.87 6.66-48.41 13.46-10.69 4.68-20.09 11.7-31.71 14.93-10.89 3.03-21.01 8.91-31.37 13.73-6.81 3.17-12.95 7.43-18.69 12.68 6.7 4.58 13.22 8.93 19.59 13.48 1.11.79 2.12 2.37 2.31 3.71 1.01 7.39-.61 14.31-4.37 20.73-4.39 7.48-11.22 12.65-17.51 18.3-6.3 5.65-12.77 11.1-19.92 17.3 2.53 1.85 4.54 3.85 6.95 4.96 6.06 2.78 12.33 5.08 18.45 7.73 1.82.79 2.76.49 3.91-1.1 5.29-7.3 10.65-14.54 16.1-21.71 6.69-8.8 12.84-17.85 16.62-28.39 4.57-12.75 5.19-24.83-4.34-35.83-.58-.67-.66-2.23-.3-3.09.24-.56 1.68-.65 2.61-.86.39-.09.84.06 1.26.13 9.25 1.58 15.53 7.81 21.82 13.99.44.44.56 1.34.6 2.04 1.12 16.5-2.67 31.97-10.12 46.59-6.43 12.62-15.71 23.08-25.67 32.98-.76.75-1.88 2.34-1.65 2.65.86 1.15 2.09 2.29 3.42 2.76 2.28.8 4.72 1.17 7.12 1.59 7.91 1.39 15.81 3.72 23.75 3.85 12.25.2 24.55-.82 36.78-1.89 11.89-1.04 23.54-3.58 33.78-10.1 7.94-5.06 7.03-3.13 5.89-12.95-1.49-12.81-7.15-24.08-14.16-34.69-8.05-12.2-17.8-22.29-32.47-26.59-3.32-.97-6.26-3.48-9.14-5.59-.77-.56-1.07-2.34-.87-3.43.15-.79 1.5-1.94 2.28-1.91 2.92.11 6.14-.06 8.67 1.12 9.58 4.48 19.02 9.27 28.34 14.28 9.86 5.31 16.19 13.81 20.16 24.1 2.97 7.7 5.69 15.5 8.54 23.25 1.15 3.14 2.36 6.25 3.67 9.72 7.5-4.89 14.64-9.54 21.7-14.13-7.42-23.94-22.08-47.22-40.68-63.06-11.28-9.61-23.27-18.41-35.02-27.47-1.9-1.46-2.38-2.7-.77-4.63 23.39 1.2 41.16 13.59 57.76 29.03z" fill="#010103"/><path d="m204.74 262.37c2.06-1.97 4.18-1.88 6.8-.62 6.17 2.97 12.05 6.22 15.88 12.18 2.38 3.7 3.36 7.75 2.65 12.11-2.14 13.06-6.17 25.66-12.86 36.95-4.13 6.97-10.53 12.76-18.06 16.53-2.09 1.04-4.86.72-7.32 1.03-.14-2.35-.88-4.86-.3-7.01 1.45-5.37 3.7-10.32 7.08-15.03 9.71-13.55 14.58-28.62 10.7-45.44-.87-3.71-3.01-7.13-4.57-10.7z" fill="#010103"/><g fill="#fcfbfa"><path d="m5.17 384 .55-.58c.85.61 1.65 1.24 2.4 1.87l-.59.64c-.83-.73-1.62-1.38-2.36-1.93m1.22 9.53-.82-.34c.71-1.76 1.37-3.64 1.98-5.63.24.13.5.25.76.36-.6 1.67-1.24 3.54-1.92 5.61m-.5-13.5.57-.54c.56.44 1.31 1.06 2.26 1.87l-.64.64c-.68-.66-1.41-1.32-2.19-1.97m3.25.46h2.24v-1.36h.77v1.36h4.57v-1.36h.76v1.36h2.28v.69h-2.28v1.84h-2.64v1.26h4.18v2.64h-4.21c0 .45-.02.86-.05 1.21h4.32v.69h-4.38c-.04.34-.1.75-.19 1.22h5.15v.69h-4.82c.87 1.19 2.51 1.92 4.93 2.19-.17.31-.3.57-.37.76-2.77-.49-4.52-1.41-5.26-2.76-.56 1.26-2.3 2.23-5.24 2.9-.12-.24-.26-.48-.43-.72 2.73-.55 4.38-1.34 4.96-2.38h-4.38v-.69h4.65c.1-.38.17-.79.21-1.22h-4.32v-.69h4.4c.03-.34.05-.75.05-1.21h-4.2v-2.64h4.23v-1.26h-2.69v-1.84h-2.24zm1.46 4.46v1.29h3.45c.01-.4.02-.57.01-.53v-.32-.45h-3.46zm1.55-2.59h4.57v-1.19h-4.57zm6.11 2.59h-3.42v.77c-.01.19-.01.37-.02.53h3.44z"/><path d="m32.63 379.16h.82v1.98h3.54v7.89h1.46v.78h-14.37v-.78h1.46v-7.89h3.54v-1.98h.82v1.98h2.73zm-3.49 11.48.5.73c-1.61.82-3.28 1.63-5 2.41-.13-.27-.28-.55-.44-.82 1.75-.72 3.4-1.49 4.94-2.32m-2.78-5.55h2.73v-3.18h-2.73zm0 3.95h2.73v-3.2h-2.73zm3.54-3.95h2.73v-3.18h-2.73zm0 3.95h2.73v-3.2h-2.73zm7.89 4.68c-1.84-.92-3.51-1.7-5.02-2.32l.45-.73c1.89.8 3.57 1.55 5.04 2.23zm-1.62-11.81h-2.73v3.18h2.73zm-2.73 7.13h2.73v-3.2h-2.73z"/></g></svg>