<svg enable-background="new 0 0 400 400" viewBox="0 0 400 400" xmlns="http://www.w3.org/2000/svg"><path d="m120.69 189.34c4.89.19 9.16.32 12.9 3.5 3.7 3.15 7.72 5.99 11.84 8.57 3.29 2.06 4.69 4.97 5.43 8.49.44 2.07.79 4.19 1.51 6.16 1.1 3 3.88 3.63 6.26 1.57 4.59-3.97 8.86-8.18 11.72-13.67 1.6-3.09 2.77-6.12 2.13-9.67-.2-1.12-.03-2.3-.03-3.63 6.41 1.08 10.9 5.48 17 9.13 0-7.38-.07-14.1.01-20.82.14-11.77.37-23.54.56-35.3.01-.53.1-1.08-.02-1.58-.51-2.09-9.83-7.97-12.02-7.59-13.87 2.43-27.77 4.76-41.6 7.41-3.1.59-5.45-.32-7.69-1.89-3.03-2.12-5.84-4.54-9.19-7.18-.63 1.89-1.7 3.63-1.7 5.36-.01 4.93-1.4 9.4-3.64 13.67-.92 1.76-.91 3.08.76 4.36 1.08.83 1.86 2.08 2.98 2.84.73.49 1.82.58 2.76.61 2.13.05 4.36-.46 6.39-.01 7.24 1.61 13.99.71 20.64-2.62 5.47-2.74 11.22-4.94 16.82-7.42 2.21-.98 3.43-.25 4.5 1.86 2.21 4.35 1.43 8.66.25 13-.17.62-.81 1.22-1.38 1.62-9.56 6.66-19.64 12.22-31.47 13.53-8.52.95-17.18.57-25.07-2.56-3.57-1.42-6.27-5.75-8.64-9.25-2.68-3.95-4-8.55-3.95-13.53.02-2.27-.94-4.53-1.36-6.82-1.44-7.72.12-15.18 2.08-22.59 1.87-7.06 3.79-14.11 5.69-21.17.19-.72.24-1.54.64-2.12 4.92-7.04 2.34-14.23.36-21.34-.34-1.21-1.51-2.24-2.43-3.22-2.74-2.89-5.19-5.89-5.26-11.11 4.47.53 8.92.57 13.1 1.65 7.78 2.01 15.45 4.49 23.08 7.03 3.62 1.21 4.95 4.8 5.33 8.01.5 4.18-.15 8.48-4.41 11.08-1.44.88-2.73 1.98-4.17 3.04 2.04 2.57 4.38 3.27 7.56 2.67 8.32-1.59 16.72-2.78 25.04-4.35 1.61-.3 3.42-1.24 4.47-2.46 8.17-9.52 11.09-21.23 13.53-33.13.77-3.77.52-7.35-1.35-10.79-.39-.72-.6-1.6-.68-2.42-.25-2.47.64-5.24-2.69-6.68-.64-.27-.37-2.64-.59-4.72 3.12 1.49 5.56 2.63 7.98 3.82 7.22 3.56 14.43 7.13 21.64 10.7 4.25 2.11 5.11 8.49 1.24 11.12-3.07 2.08-4.42 4.92-5.38 8.24-1.2 4.14-4.22 8.63-3.37 12.25.82 3.48 5.54 6.08 8.62 8.99 1.38 1.3 2.83 2.59 4.43 3.59 4.22 2.66 6.49 2.29 9.85-1.36 5.96-6.47 12-12.88 17.81-19.49 1.01-1.15 1.52-3.18 1.42-4.75-.22-3.47-1.01-6.91-1.51-10.37-.46-3.13.56-4.23 3.41-3.15 6.77 2.57 12.62 6.43 15.68 13.35 3.54 8.04 6.65 16.28 10.44 24.2 2.41 5.03 5.81 9.57 8.57 14.45.89 1.57 1.57 3.48 1.62 5.26.25 9.86.17 19.72.4 29.58.2 8.63-3.6 15.73-8.27 22.5-5.77 8.35-13.4 14.19-23.29 16.99-2.53.71-4.89 2-7.76 3.2.86.63 1.42 1.15 2.08 1.51 4.55 2.49 9.03 5.15 13.72 7.35 3.42 1.6 5.61 4.05 6.96 7.39 1.31 3.23 2.51 6.51 3.73 9.78 1.26 3.36 2.91 6.46 6.58 7.65.85.28 2.52-.03 2.93-.65 5.25-7.95 9.46-16.36 9.51-26.18.01-1.63-.96-3.26-1.51-4.88-.58-1.7-1.19-3.38-1.37-5.43 8.88 3.53 18.76 3.58 26.27 10.04 1.9 1.63 4.31 2.67 6.51 3.95 2.42 1.4 3.33 3.47 2.78 6.17-.73 3.61-2.01 6.83-5.41 8.92-9.05 5.56-16.43 12.85-22.8 21.36-3.66 4.9-8.27 9.08-12.28 13.74-.91 1.06-1.6 2.76-1.53 4.12.56 10.48 1.33 20.95 2.03 31.42.04.53.18 1.08.07 1.58-1.18 5.24-2.21 10.51-3.66 15.67-1.05 3.74-3.46 6.53-7.45 7.57-1.69.44-2.98.15-3.25-1.83-.89-6.37-2.08-12.73-2.52-19.14-.55-7.91-.43-15.87-.67-23.81-.04-1.25-.41-2.5-.7-3.74-1.98-8.28-3.11-9.23-11.48-9.87-2.85-.22-5.72-.36-8.55-.78-1.29-.19-2.62-.77-3.71-1.51-6.98-4.8-13.89-9.69-21.01-14.68-2.34 3.59-2.45 7.53-1.42 11.07 5.07 17.4 4.87 35.43 6.55 53.22.85 8.94 1.92 17.66 5.69 25.87 4.71 10.27 5.83 21.38 7.87 32.29.57 3.06 1.96 6 3.23 8.89.97 2.2 1.23 4.16-.92 5.62-1.81 1.23-5.35.1-6.69-1.87-6.24-9.16-10.3-19.2-12.03-30.14-.89-5.65-2.85-10.78-6.45-15.3-.89-1.11-1.5-2.58-1.85-3.98-3.12-12.64-6.52-25.23-9.08-37.99-1.85-9.22-2.58-18.67-3.73-28.02-.98-7.99-1.72-16.02-2.86-23.99-.25-1.73-1.42-4.18-2.78-4.7-2.2-.84-4.36.24-6.3 2.32-1.89 2.02-4.93 2.95-7.43 4.42-2.12 1.25-4.78 2.13-6.16 3.95-3.87 5.14-9.14 8.15-14.71 10.74-6.65 3.1-9.37 8.6-9.99 15.43-.78 8.55-.68 17.24-2.2 25.65-1.52 8.42-2.82 17.18-8.42 24.33-.81 1.04-1.17 2.44-1.66 3.7-1.62 4.13-2.99 8.39-4.87 12.4-2.13 4.55-5.42 6.12-10.22 5.33 1.34-10.15 2.65-20.32 4.02-30.48 1.55-11.45 3.49-22.85 4.6-34.34.6-6.28-.02-12.71-.4-19.05-.18-3.03-4.86-5.78-8.38-5.29-1.14.16-2.27.54-3.37.89-9.92 3.2-14.49 1.26-20.68-8.2-1.32-2.02-2.24-4.32-3.29-6.51-2.81-5.85-5.86-11.56-11.04-15.72-2.1-1.69-2.86-3.77-2.8-6.37.05-2.12-.13-4.24-.21-6.36-.11-3.04 1.25-4.07 4.08-2.71 2.15 1.03 4.19 2.42 6.05 3.94 6.56 5.34 12.83 11.07 19.6 16.12 5.3 3.96 11.77 5.21 18.31 5.45.98.04 2.59-1.05 2.92-1.97 2.13-5.85 2.21-11.5-2.04-16.72-2.81-3.41-4.98-7.28-5.74-12.28zm130.17 31.78c-2.53-8.66-6.46-16.22-11.67-23.11-5.79-7.66-13.72-11.2-23.35-11.8-2.76 9.13-4.98 18.09-2.05 27.48.97 3.11 2.6 5.65 5.86 6.47 6.11 1.54 12.23 3.19 18.44 4.12 4.4.67 8.77-.52 12.77-3.16zm-35.54-101.92c.12 1.49.24 3.61.45 5.71.97 9.54 3.19 10.81 11.34 5.4 5.96-3.96 11.23-8.95 16.98-13.26 6.24-4.67 8.27-11.5 10.01-18.51.61-2.46-.01-4.55-2.41-5.96-2.34-1.37-3.9-.2-5.58 1.26-7.62 6.64-15.87 12.29-25.33 16.02-5.88 2.33-5.86 2.38-5.46 9.34zm-.75 54.11c4.3-1.14 8.36-1.68 11.96-3.26 10.42-4.58 18.58-12.48 27.05-19.76 2.44-2.1 3.16-6.31 4.36-9.67.27-.75-.54-2.38-1.3-2.84-.65-.39-2.17.06-2.94.62-3.23 2.39-6.18 5.18-9.5 7.42-2.65 1.79-5.55 3.42-8.57 4.38-6.44 2.06-13.01 3.7-19.56 5.37-1.89.48-2.57 1.26-2.39 3.26.41 4.52.58 9.06.89 14.48zm-42.26-54.27c-1.23-2.83-2.28-4.9-3.04-7.07-.72-2.04-1.78-2.36-3.83-1.82-10.53 2.78-21.01 4.32-31.75.4-6.22-2.27-6.77-1.62-8.7 4.77-.12.4-.21.82-.26 1.24-.39 3.24.66 5.04 3.83 5.73 11.28 2.48 22.64 3.06 33.97.54 3.29-.72 6.37-2.43 9.78-3.79zm16.01-20.26c-5.29 9.37-5.04 14.53.85 20.61 4.94-3.8 4.55-15.55-.85-20.61z" fill="#010103"/><g fill="#fcfbfa"><path d="m5.17 384 .55-.58c.85.61 1.65 1.24 2.4 1.87l-.59.64c-.83-.73-1.62-1.38-2.36-1.93m1.22 9.53-.82-.34c.71-1.76 1.37-3.64 1.98-5.63.24.13.5.25.76.36-.6 1.67-1.24 3.54-1.92 5.61m-.5-13.5.57-.54c.56.44 1.31 1.06 2.26 1.87l-.64.64c-.68-.66-1.41-1.32-2.19-1.97m3.25.46h2.24v-1.36h.77v1.36h4.57v-1.36h.76v1.36h2.28v.69h-2.28v1.84h-2.64v1.26h4.18v2.64h-4.21c0 .45-.02.86-.05 1.21h4.32v.69h-4.38c-.04.34-.1.75-.19 1.22h5.15v.69h-4.82c.87 1.19 2.51 1.92 4.93 2.19-.17.31-.3.57-.37.76-2.77-.49-4.52-1.41-5.26-2.76-.56 1.26-2.3 2.23-5.24 2.9-.12-.24-.26-.48-.43-.72 2.73-.55 4.38-1.34 4.96-2.38h-4.38v-.69h4.65c.1-.38.17-.79.21-1.22h-4.32v-.69h4.4c.03-.34.05-.75.05-1.21h-4.2v-2.64h4.23v-1.26h-2.69v-1.84h-2.24zm1.46 4.46v1.29h3.45c.01-.4.02-.57.01-.53v-.32-.45h-3.46zm1.55-2.59h4.57v-1.19h-4.57zm6.11 2.59h-3.42v.77c-.01.19-.01.37-.02.53h3.44z"/><path d="m32.63 379.16h.82v1.98h3.54v7.89h1.46v.78h-14.37v-.78h1.46v-7.89h3.54v-1.98h.82v1.98h2.73zm-3.49 11.48.5.73c-1.61.82-3.28 1.63-5 2.41-.13-.27-.28-.55-.44-.82 1.75-.72 3.4-1.49 4.94-2.32m-2.78-5.55h2.73v-3.18h-2.73zm0 3.95h2.73v-3.2h-2.73zm3.54-3.95h2.73v-3.18h-2.73zm0 3.95h2.73v-3.2h-2.73zm7.89 4.68c-1.84-.92-3.51-1.7-5.02-2.32l.45-.73c1.89.8 3.57 1.55 5.04 2.23zm-1.62-11.81h-2.73v3.18h2.73zm-2.73 7.13h2.73v-3.2h-2.73z"/></g></svg>