<svg enable-background="new 0 0 400 400" viewBox="0 0 400 400" xmlns="http://www.w3.org/2000/svg"><g fill="#010103"><path d="m219.6 81.75c5.39.87 10.5 1.64 15.58 2.59.75.14 1.5 1.08 1.95 1.83 4.28 7.19 8.63 14.35 12.65 21.68 1.06 1.94 1.22 4.44 1.52 6.71.74 5.46 1.31 10.94 2 16.83 5.18 0 10.5.79 15.39-.33 2.45-.56 5.5-4.41 5.88-7.1 2.51-18.26 4.4-36.61 6.42-54.94.11-1-.19-2.1-.52-3.07-.87-2.61-2.24-5.11-2.73-7.78-1-5.43-4.66-8.29-9.12-10.58-4.19-2.15-8.29-4.39-9.97-9.24-.17-.48-.28-.97-.45-1.59 2.89-1.46 5.55-2.38 8.82-1.25 10.7 3.7 21.59 6.88 32.17 10.9 4.22 1.6 8.28 4.36 11.58 7.48 4.66 4.4 4.74 11.09.89 16.2-5.54 7.35-7.34 16.02-9.45 24.7-1.42 5.81-3.69 11.45-5.94 17.02-2.36 5.86-5.15 11.54-7.53 16.82 9.95 1.82 19.63 3.47 29.25 5.44 2.63.54 5.32 1.7 7.49 3.26 1.64 1.18 3.08 3.3 3.57 5.26 1.04 4.14-.76 6.03-4.93 6.04-2.97 0-5.95.16-8.91-.03-13.15-.82-25.91.74-38.4 5.18-4.32 1.54-9.13 1.7-13.72 2.5-1.33.23-2.66.49-4.01.74 1.18 6.82 2.6 13.12 6.09 19.08 3.5 5.97 5.63 12.74 8.35 19.17 2.34 5.52 5.49 10.23 11.4 12.56 2.52.99 4.04.57 5.32-1.95 4.66-9.15 5.55-18.76 4.13-28.77-.56-3.96-.81-7.97-1.3-13.05 3.62 1.6 6.61 2.73 9.41 4.2 9.88 5.19 16.08 13.62 19.97 23.8 2.56 6.7 3.12 13.5-.04 20.38-2.69 5.86-4.96 11.93-7.21 17.98-.5 1.34-.53 3.14-.07 4.5 1.78 5.28 5.72 8.52 10.79 10.49 1.78.69 3.61 1.22 5.4 1.87 6.26 2.28 8.81 7.11 7.37 13.57-.36 1.63-.98 2.61-2.67 2.35-4.35-.67-8.72-1.25-13-2.22-3.48-.79-6.79-2.49-10.29-3.03-4.03-.62-7.42.55-9.93 4.54-13.35 21.23-28.16 41.41-45.84 59.25-11.63 11.74-24 22.75-36.07 34.05-2.47 2.31-4.96 4.66-7.69 6.65-4.53 3.3-9.73 4.99-15.26 3.7-1.51-.35-2.67-2.81-3.64-4.51-.31-.55.25-2.01.85-2.61 24.04-24.21 43.37-52.09 62.47-80.15 5.36-7.88 10.96-15.61 16.24-23.54 3.99-6 5.97-12.64 4.82-19.92-.2-1.27-.68-2.84-1.6-3.6-9.47-7.85-16.48-17.74-22.49-28.22-7.1-12.38-13.36-25.26-19.86-37.98-1.11-2.16-2.1-2.91-4.78-2.48-17.72 2.84-34.22 9.48-50.94 15.55-4.54 1.65-7.83 3.75-9.7 8.45-1.8 4.51-4.95 5.86-9.54 4.29-5.87-2-11.08-1.33-16.7 1.25-10.58 4.84-21.52 8.89-32.21 13.5-4.65 2-9.04 4.61-13.58 6.85-5.9 2.91-10.99.88-15.98-2.55-3.45-2.37-6.99-4.79-10.82-6.37-5.45-2.24-10.6-4.64-15-10.17 4.47 0 8.14.04 11.81-.01 15.83-.2 30.72-4.08 45.07-10.72 6.4-2.96 13.2-5.26 20.03-7.06 8.08-2.12 10.02-7.19 10.39-13.96.05-.98-.69-2.17-1.37-3.01-3.55-4.36-7.28-8.57-10.77-12.97-1-1.26-1.74-2.92-2.03-4.49-2.32-12.56-9.96-21.01-20.75-26.97-2.95-1.63-6.24-2.62-9.34-3.98-4.65-2.05-6.21-4.27-6.79-9.68 7.21-1.55 14.32-1.15 21.05 1.86 8.79 3.93 17.4 8.29 26.09 12.45 2.75 1.32 8.82-.18 10.52-2.77 6-9.12 12.17-18.14 17.73-27.53 1.74-2.94 1.71-6.91 2.55-10.4 1.41-5.84 2.12-11.38-1.35-17.08-2.5-4.12.27-7.39 5.09-7.11 20.3 1.22 29.26 22.64 26.31 35.48-.3 1.29-.9 2.63-1.72 3.67-11.67 14.96-23.42 29.85-35.06 44.83-.69.89-1.01 2.5-.76 3.62.91 4.13 2.01 8.23 3.28 12.27.47 1.5 1.42 2.96 2.51 4.12 2.06 2.2 4.4 2.28 7.4 1.29 15.88-5.25 31.84-10.25 47.82-15.19 2.07-.64 3.2-1.74 3.98-3.61 2.94-7.03 3.08-14.42 1.53-21.57-2.21-10.21-5.35-20.22-8.1-30.31-.27-.99-.58-1.97-1-3.35z"/><path d="m72.32 321.08c4.56-.03 8.47-.5 12.4 1.86 4.97 2.98 10.57 1.13 15.88.42 3.3-.44 6.48-.84 9.62.72.79.4 1.88.47 2.78.33 19.26-2.87 38.65-5.1 57.38-10.78 9.52-2.89 18.01-7.43 25.73-13.97 9.6-8.13 17.85-17.06 23.76-28.23 7.59-14.32 6.95-29.09 3.46-44.25-.82-3.55-2.66-4.83-5.9-5.39-9.55-1.65-18.63.4-27.36 3.8-14.5 5.63-29.07 11.2-43.09 17.9-6.87 3.28-13.53 7.99-16.95 15.61-.69 1.54-1.69 2.94-2.38 4.49-2.77 6.24-5.83 6.65-11.82 5.74-6.14-.93-12.05-2.48-17.26-6.53-4.04-3.14-9.01-5.09-13.52-7.64-4.48-2.53-8.55-5.46-9.97-11.2 1.07 0 1.88-.04 2.7.01 15.98.94 30.68-3.48 44.79-10.52 14.87-7.42 29.58-15.21 44.72-22.02 12.92-5.81 26.76-8.91 41.01-8.91 5.65 0 11.44.93 16.91 2.38 15.89 4.22 24.48 15.04 26.74 31.15.34 2.41.64 4.84 1.18 7.21 1.17 5.09.45 9.82-1.02 14.87-3.5 12.07-9.21 22.71-16.72 32.81-7.57 10.19-15.46 19.88-25.56 27.62-1.16.89-2.42 1.73-3.76 2.27-6.27 2.56-12.56 5.09-18.9 7.46-5.68 2.13-10.87 5.05-16.08 8.14-3.68 2.18-8.29 3.09-12.61 3.85-9.8 1.72-19.65 3.18-29.52 4.36-3.16.38-6.52-.19-9.69-.83-3.93-.79-7.83-1.91-11.61-3.26-3.83-1.37-7.5-3.22-11.25-4.84-4.95-2.13-9.92-4.21-14.85-6.37-3.81-1.63-7.26-3.75-9.24-8.26z"/><path d="m77.96 291.5c4.08 0 7.98.15 11.85-.05 2.93-.15 5.89-.54 8.74-1.21 21.67-5.12 41.32-15.63 62.04-23.29 13.79-5.1 27.88-9.4 41.92-13.77 5.46-1.7 11.14 3.01 10.62 8.5-.13 1.39-1.02 3.15-2.12 3.92-6.33 4.42-12.74 8.74-19.29 12.82-14.76 9.2-31.36 13.59-47.9 18.2-11.72 3.26-23.28 7.12-34.96 10.52-1.64.48-3.79.32-5.38-.33-7.14-2.95-14.1-6.32-21.24-9.26-2.73-1.14-3.84-2.94-4.28-6.05z"/></g><path d="m5.17 384 .55-.58c.85.61 1.65 1.24 2.4 1.87l-.59.64c-.83-.73-1.62-1.38-2.36-1.93m1.22 9.53-.82-.34c.71-1.76 1.37-3.64 1.98-5.63.24.13.5.25.76.36-.6 1.67-1.24 3.54-1.92 5.61m-.5-13.5.57-.54c.56.44 1.31 1.06 2.26 1.87l-.64.64c-.68-.66-1.41-1.32-2.19-1.97m3.25.46h2.24v-1.36h.77v1.36h4.57v-1.36h.76v1.36h2.28v.69h-2.28v1.84h-2.64v1.26h4.18v2.64h-4.21c0 .45-.02.86-.05 1.21h4.32v.69h-4.38c-.04.34-.1.75-.19 1.22h5.15v.69h-4.82c.87 1.19 2.51 1.92 4.93 2.19-.17.31-.3.57-.37.76-2.77-.49-4.52-1.41-5.26-2.76-.56 1.26-2.3 2.23-5.24 2.9-.12-.24-.26-.48-.43-.72 2.73-.55 4.38-1.34 4.96-2.38h-4.38v-.69h4.65c.1-.38.17-.79.21-1.22h-4.32v-.69h4.4c.03-.34.05-.75.05-1.21h-4.2v-2.64h4.23v-1.26h-2.69v-1.84h-2.24zm1.46 4.46v1.29h3.45c.01-.4.02-.57.01-.53v-.32-.45h-3.46zm1.55-2.59h4.57v-1.19h-4.57zm6.11 2.59h-3.42v.77c-.01.19-.01.37-.02.53h3.44z" fill="#fcfbfa"/><path d="m32.63 379.16h.82v1.98h3.54v7.89h1.46v.78h-14.37v-.78h1.46v-7.89h3.54v-1.98h.82v1.98h2.73zm-3.49 11.48.5.73c-1.61.82-3.28 1.63-5 2.41-.13-.27-.28-.55-.44-.82 1.75-.72 3.4-1.49 4.94-2.32m-2.78-5.55h2.73v-3.18h-2.73zm0 3.95h2.73v-3.2h-2.73zm3.54-3.95h2.73v-3.18h-2.73zm0 3.95h2.73v-3.2h-2.73zm7.89 4.68c-1.84-.92-3.51-1.7-5.02-2.32l.45-.73c1.89.8 3.57 1.55 5.04 2.23zm-1.62-11.81h-2.73v3.18h2.73zm-2.73 7.13h2.73v-3.2h-2.73z" fill="#fcfbfa"/></svg>