<svg enable-background="new 0 0 400 400" viewBox="0 0 400 400" xmlns="http://www.w3.org/2000/svg"><path d="m166.2 212.42c.88-6.43-1.33-8.23-7.54-6.95-8.08 1.66-16.15 3.47-24.31 4.54-8.29 1.09-15.97-.85-22.65-7.35 13.98-3.53 27.56-6.95 41.83-10.55-1.83-1.96-3.38-3.61-4.92-5.26-7.08-7.57-12.89-15.93-16.76-25.64-2.77-6.96-2.1-14.17-2.45-21.33-.24-4.98-.54-9.99-.18-14.94.55-7.52-3.38-11.58-9.69-14.24-4.16-1.75-5.6-3.84-4.86-7.73.27-1.43 1.19-2.95 2.25-3.97 7.12-6.83 14.41-13.47 21.51-20.31 1.8-1.73 3.34-3.81 4.63-5.95 2.52-4.17 4.4-8.76 7.26-12.67s2.23-7.39.35-11.15c-2.45-4.93-2.69-8.4-.82-14.13 10.43 3.45 20.18 8.27 29.12 14.61 4.59 3.26 7.57 7.79 7.48 13.68-.13 8.69-1.3 10.72-10.19 12-7.42 1.07-12.98 3.99-18.37 8.7-9.02 7.88-18.39 15.36-27.61 23.02-.88.73-1.72 1.51-2.81 2.47 6.88 6.7 12.69 13.91 15.9 23.23 23.92-19.4 39.14-45.27 55.71-69.96 1.26 2.17 3.19 4.55 4.05 7.27.73 2.33.99 5.36.12 7.54-3.42 8.54-7.37 16.87-11.47 26.05 3.11 1.98 6.12 4.2 9.39 5.93 6.91 3.66 13.96 7.05 20.94 10.58 1.2.61 2.34 1.36 3.58 2.1 4.07-4.4 5.04-9.62 4.74-15.14-.24-4.54-.95-9.05-1.24-13.59-.13-1.99-1.03-3.01-2.75-3.77-2.2-.97-4.32-2.16-6.61-3.32 7.82-4.95 18.02-2.61 22.46 4.94 4.02 6.83 4.83 14.16 3.12 21.79-1.62 7.23-3.19 14.48-5.16 21.62-.91 3.29-2.52 6.44-4.17 9.45-3.02 5.5-6.02 10.94-6.69 17.35-.24 2.33.52 3.5 2.91 3.2 3.25-.41 6.63-.48 9.7-1.48 7.33-2.39 14.56-5.15 21.75-7.96 3.62-1.42 5.03-3.82 4.15-7.54-.89-3.74-2.47-7.31-3.87-11.33 4.43 1.27 9.73 1.42 13.11 4.05 5.78 4.5 9.97 10.77 9.08 18.9-.5 4.63-1.27 9.22-1.94 13.83-.39 2.72-1.15 5.44-1.15 8.17 0 4.84-3.31 7.81-5.65 11.39-5.47 8.36-13.32 13.3-22.87 15.37-3.83.83-7.96.54-11.94.41-2.63-.08-4.81-1.38-6.14-3.87-.54-1.02-1.29-1.96-2.09-2.79-5.74-5.96-8.08-13.2-8.56-21.31-.27-4.57-1.89-7.18-5.81-10.68-1.57 2.39-2.96 4.86-4.68 7.06-6.79 8.65-14.28 16.34-25.57 19.1-6.38 1.56-6.65 1.86-5.35 8.38 1.75 8.82 3.95 17.55 6.18 26.26.92 3.57 8.66 6.77 13.62 5.74.85-13.49 4.99-26.96.32-41.18 4.71 1.31 8.95 1.84 12.51 3.66 3.6 1.84 5.05 5.79 5.58 9.84.22 1.68.34 3.37.61 5.04.38 2.36 1.6 3.77 4.02 4.72 2.38.93 4.29 3.01 6.56 4.29 1.34.75 2.99 1.17 4.54 1.31 1.66.15 3.38-.34 5.06-.33 7.23.04 13.64-2.42 19.73-6.09 2.53-1.53 5.5-2.39 7.87-4.12 5.92-4.31 12.22-3.76 18.44-2.21.84 8.73 2.03 17.33 2.4 25.96.36 8.37-1.58 16.19-8.14 22.22-3.43 3.15-6.64 6.55-10.07 9.7-5 4.59-10.84 6.11-17.62 5.21-7.91-1.05-14.57-3.57-20.08-9.96-4.7-5.45-9.12-10.74-11.1-17.78-.54-1.91-1.45-3.72-2.19-5.58-.32-.03-.64-.06-.97-.09-.57 3.4-1.85 6.85-1.57 10.18.81 9.69 1.72 19.42 3.56 28.95 2.33 12.04 5.64 23.89 8.48 35.83.73 3.09 1.12 6.26 1.95 9.32 1.35 4.98 2.93 9.89 4.44 14.83 1.82 5.96 3.97 11.84 5.42 17.89 1.09 4.55-.63 7-4.7 8.12-2.37-4.89-4.75-9.83-7.15-14.76-.65-1.33-1.1-2.85-2.03-3.94-4.18-4.91-5.92-10.92-7.86-16.86-4.96-15.19-10.71-30.19-13.08-46.08-1.41-9.42-2.23-18.94-3.05-28.44-.29-3.36-1.22-5.68-4.53-7.11-3.19-1.38-5.99-3.65-9.18-5.04-6.23-2.71-10.26-7.48-13.88-13-2.5-3.82-5.78-7.13-9.05-11.07-.83 1.26-1.19 1.62-1.35 2.06-4.32 12.02-13.26 17.91-25.63 18.3-6.06.19-12.16-1.1-18.24-1.75-.41-.04-.9-.15-1.19-.41-6.6-5.88-14.71-10.16-19.32-18.16-.25-.44-.41-.93-.7-1.6 4.5.3 8.46.36 11.6 4.52 5.68 7.5 13.82 7.17 22.3 6.15 7.97-.96 13.61-5.52 18.99-10.6 1.82-1.71 2.59-4.54 3.93-7.04 2.02.4 4.04.82 6.3 1.28zm29.3-57.55c-.26-.81-.4-1.43-.66-1.98-.35-.76-.71-1.56-1.22-2.21-6.71-8.55-15.5-13.89-25.95-16.51-1.1-.28-2.69.32-3.72 1.01-4.99 3.38-9.69 7.22-14.84 10.31-3.9 2.34-4.62 5.27-3.48 9.6 16.52-.01 33.11 5.9 49.87-.22zm46.28 92.11c.34 8.54 2.85 14.03 9.31 15.24 4.58.86 8.46-.44 11.55-3.68 4.45-4.66 8.93-9.34 12.86-14.43 2.47-3.2 4.19-7.08 5.74-10.86.49-1.19-.49-3.16-1.24-4.54-.18-.32-2.25.1-3.27.57-10.91 5.09-21.8 10.23-32.64 15.47-1.15.56-1.93 1.85-2.31 2.23zm-66.35-118.68c5.07 2.02 10.45 4.12 15.79 6.3 4.77 1.96 10.07 3.25 14.1 6.23 4.15 3.07 7.86 2.68 12.41 1.66-.27-5.02-2.53-9.13-5.9-12.57-7.36-7.51-16.21-12.85-25.83-16.97-.66-.28-2.04-.16-2.39.3-3.3 4.31-8.06 7.77-8.18 15.05zm16.8 43.24c-.04-.39-.07-.77-.11-1.16-4.43-.27-8.88-.87-13.3-.75-9.98.27-20.03 2.02-29.7-2.06-.16-.07-.4.03-.6.05-.67 4.14-.38 4.8 2.45 7.54 5.74 5.56 13.27 6.58 20.57 8.03 2.08.41 4.55.3 6.51-.45 5.86-2.24 10.12-6.64 14.18-11.2zm45.16 12.4c.04-.5-.04-.28.01-.09.74 2.76 1.48 5.52 2.24 8.27 1.57 5.7 3.11 6.46 8.58 3.88 1.68-.79 3.23-2.03 4.57-3.34 2.04-1.99 3.72-4.36 5.78-6.33 3.13-2.99 3.19-6.84 3.73-10.43-8.26 2.67-16.33 5.28-24.91 8.04z" fill="#010103"/><path d="m111.27 261.66c6.98-.36 14.16-.66 21.32-1.15 2.07-.14 4.22-.57 6.12-1.37 11.41-4.82 22.79-9.71 34.11-14.75 2.94-1.31 5.63-.92 8.21.36 1 .5 2.13 2.07 2.09 3.11-.34 8.67-.72 17.35-1.53 25.99-.93 9.96-6.06 17.66-13.97 23.59-2.04 1.52-4.09 3.02-6.13 4.54-7.43 5.53-15.72 6.31-23.75 2.48-7.78-3.71-13.49-10.17-16.88-18.23-3.35-7.98-6.31-16.12-9.59-24.57zm17.17 13.98c2.06 6.51 3.68 12.64 7.89 17.68 1.34 1.6 2.69 2.72 4.84 1.98 3.86-1.33 8.03-2.17 11.49-4.21 8.37-4.96 12.63-13.16 15.7-22.05.59-1.72-1.38-3.37-3.52-3.12-4.13.48-7.99 1.6-11.69 3.7-3.06 1.74-6.44 3.22-9.86 3.99-4.72 1.06-9.61 1.35-14.85 2.03z" fill="#010103"/><g fill="#fcfbfa"><path d="m5.17 384 .55-.58c.85.61 1.65 1.24 2.4 1.87l-.59.64c-.83-.73-1.62-1.38-2.36-1.93m1.22 9.53-.82-.34c.71-1.76 1.37-3.64 1.98-5.63.24.13.5.25.76.36-.6 1.67-1.24 3.54-1.92 5.61m-.5-13.5.57-.54c.56.44 1.31 1.06 2.26 1.87l-.64.64c-.68-.66-1.41-1.32-2.19-1.97m3.25.46h2.24v-1.36h.77v1.36h4.57v-1.36h.76v1.36h2.28v.69h-2.28v1.84h-2.64v1.26h4.18v2.64h-4.21c0 .45-.02.86-.05 1.21h4.32v.69h-4.38c-.04.34-.1.75-.19 1.22h5.15v.69h-4.82c.87 1.19 2.51 1.92 4.93 2.19-.17.31-.3.57-.37.76-2.77-.49-4.52-1.41-5.26-2.76-.56 1.26-2.3 2.23-5.24 2.9-.12-.24-.26-.48-.43-.72 2.73-.55 4.38-1.34 4.96-2.38h-4.38v-.69h4.65c.1-.38.17-.79.21-1.22h-4.32v-.69h4.4c.03-.34.05-.75.05-1.21h-4.2v-2.64h4.23v-1.26h-2.69v-1.84h-2.24zm1.46 4.46v1.29h3.45c.01-.4.02-.57.01-.53v-.32-.45h-3.46zm1.55-2.59h4.57v-1.19h-4.57zm6.11 2.59h-3.42v.77c-.01.19-.01.37-.02.53h3.44z"/><path d="m32.63 379.16h.82v1.98h3.54v7.89h1.46v.78h-14.37v-.78h1.46v-7.89h3.54v-1.98h.82v1.98h2.73zm-3.49 11.48.5.73c-1.61.82-3.28 1.63-5 2.41-.13-.27-.28-.55-.44-.82 1.75-.72 3.4-1.49 4.94-2.32m-2.78-5.55h2.73v-3.18h-2.73zm0 3.95h2.73v-3.2h-2.73zm3.54-3.95h2.73v-3.18h-2.73zm0 3.95h2.73v-3.2h-2.73zm7.89 4.68c-1.84-.92-3.51-1.7-5.02-2.32l.45-.73c1.89.8 3.57 1.55 5.04 2.23zm-1.62-11.81h-2.73v3.18h2.73zm-2.73 7.13h2.73v-3.2h-2.73z"/></g></svg>