<svg enable-background="new 0 0 400 400" viewBox="0 0 400 400" xmlns="http://www.w3.org/2000/svg"><path d="m247.06 146.64c4.07-.68 7.73-1.23 11.36-1.94.98-.19 2.1-.65 2.75-1.36 10.7-11.72 17.3-25.26 17.96-41.33.1-2.42-.08-4.91-.6-7.26-.3-1.37-1.28-2.86-2.4-3.72-3.56-2.72-5.72-6.12-6.44-11.46 3.16.48 6.01.74 8.77 1.39 3.49.82 6.87 2.08 10.35 2.91 11.27 2.7 18.53 17.86 13.47 28.26-2.46 5.04-4.63 10.25-7.4 15.11-2.76 4.84-6.09 9.36-9.57 14.61 4.38.8 8.57 1.6 12.77 2.31 1.77.3 3.61.23 5.36.59 4.08.85 6.48 5.2 5 9.05-.3.77-1.21 1.39-1.98 1.86-5.63 3.45-11.9 4.77-18.36 5.65-12.17 1.65-24.31 3.49-36.45 5.32-3.55.54-5.9 4.1-5.96 8.27-.29 19.58 1.55 38.81 7.69 57.6 1.86 5.69 3.93 11.11 7.03 16.15.72 1.18 1.99 2.3 3.26 2.79 1.98.77 3.8.57 4.62-2.13 2.13-6.96 4.85-13.77 6.65-20.81 1.87-7.32-.86-14.45-2.06-21.63-.92-5.53-2.92-10.4-6.34-14.93-2.34-3.1-3.61-7-5.39-10.59 3.43-1.92 5.94-1.25 8.55-.06 15.81 7.26 21.83 20.97 24.28 36.93 1.49 9.7.07 19.2-2.77 28.54-1.85 6.07-3.12 12.33-5.16 18.34-1.51 4.45-.12 7.95 2.98 10.5 2.86 2.35 6.39 4.09 9.89 5.38 7.45 2.76 11.08 7.96 10.18 15.86-.1.91-1 2.31-1.75 2.47-3.15.7-6.45 1.64-9.59 1.33-6.32-.62-12.48-2.13-18.06-5.54-4.28-2.62-8.23-1.69-11.41 2.4-6.88 8.88-13.78 17.76-20.58 26.7-10.78 14.17-24.04 25.32-40.1 33.05-6.38 3.07-12.82 6-19.22 8.98-2.37-4.19-2.45-4.29 1.06-7 18.3-14.13 32.82-31.52 44.34-51.45 5.78-9.99 11.26-20.15 16.73-30.31.57-1.07.58-2.89.08-4.02-4.11-9.18-8.15-18.4-12.7-27.37-8.01-15.78-11.39-32.72-13.24-50.07-.73-6.85-1.26-13.72-1.71-20.6-.13-1.95-.9-2.85-2.69-2.48-1.94.4-3.79 1.18-5.69 1.77-2.71.84-5.38 2.18-8.14 2.39-9.16.71-17.88 2.99-26.6 5.81-14.68 4.76-29.56 8.92-44.32 13.45-2.06.63-4.08 1.71-5.85 2.95-5.72 4.01-11.91 5.12-18.72 3.88-6.56-1.19-13.16-2.2-19.76-3.12-2.47-.34-4.02-1.35-4.08-3.92-.05-2.56.38-4.55 3.7-5.17 7.17-1.36 14.31-3 21.35-4.93 5.14-1.41 10.11-3.47 14.73-5.1.21-1.06.35-1.33.27-1.46-2.89-4.81-.95-8.12 2.75-11.68 7.79-7.49 15.53-15.17 20.55-24.91 2.1-4.08 3.29-8.65 4.75-13.04.7-2.1-.14-3.72-1.88-5.23-11.07-9.6-23.52-16.51-37.82-20.01-2.42-.59-4.97-1.44-6.92-2.89-1.26-.93-2.03-3.17-2.05-4.84-.01-.8 2.17-2.28 3.42-2.35 8.22-.48 16.46-.59 24.69-.94 8.62-.36 16.19 2.28 23.01 7.48 2.16 1.65 4.63 2.9 6.9 4.29 9.8-8.43 11.96-22.53 6.61-42.14 6.48-3.19 15.66-2.06 20.92 2.57 9.3 8.17 9.74 9.95 5.34 21.66-3.61 9.61-7.28 19.2-10.73 28.88-.48 1.35-.34 3.36.35 4.61 5.75 10.49 11.75 20.86 17.54 31.33 1 1.8 2.08 2.34 4.02 1.98 3.44-.63 6.89-1.25 10.36-1.58 2.12-.2 3.35-1.15 3.86-3.06.69-2.54 1.73-5.12 1.76-7.69.18-19.4.29-38.8.13-58.2-.08-9.56-2.49-18.77-7.08-27.11-2.12-3.85-5.69-6.95-8.84-10.17-2.86-2.92-5.54-5.82-6.01-10.69 1.44-.14 2.99-.76 4.17-.34 10.19 3.63 19.57 8.61 26.88 16.87 6.89 7.78 10.29 17.17 11.04 27.22.66 8.81-.28 17.73-.31 26.6-.02 5.39.17 10.78.53 16.16.52 8.09 1.28 16.1 1.97 24.38zm-114.79 32.02c.12.3.24.61.36.91 8.49-2.18 17.01-4.24 25.46-6.56 8.2-2.25 16.07-5.32 23.09-10.28 1.7-1.2 2.27-2.33 1.61-4.47-2.18-7.11-6.67-12.36-12.82-16.91-11.34 13.8-23.44 26.65-37.7 37.31z" fill="#010103"/><path d="m135.39 357.7c.37-3.67.54-7.07 1.14-10.4.24-1.3 1.25-2.61 2.22-3.61 9.81-10.11 19.84-20.02 29.47-30.3 4.04-4.31 6.97-9.55 8.78-15.8-3.86-.24-7.53-.2-11.11-.73-11.81-1.74-23.64-3.47-35.38-5.66-6.13-1.14-11.33-4.6-16.05-8.66-3.14-2.7-6.3-5.35-9.4-8.09-2.81-2.48-4.48-5.55-4.64-10.36 3.42.62 6.89.48 9.59 1.86 17.77 9.1 37.33 9.78 56.46 12.44 5.23.73 10.55 1.08 15.83 1.16 6.8.11 13.51-7.82 12.47-14.54-.14-.91-1.24-2.14-2.13-2.37-4.36-1.14-8.76-2.26-13.21-2.89-5.54-.79-11.32-.42-16.67-1.81-4.57-1.18-8.9-3.8-12.92-6.42-4.69-3.05-8.84-6.92-13.43-10.14-1.39-.98-3.56-1.59-5.2-1.33-6.15 1.01-12.24 2.43-18.34 3.73-6.5 1.38-10.68-.49-12.57-5.54-.76-2.03-.69-3.25 1.8-3.96 4.58-1.29 9-3.17 13.61-4.37 12.89-3.36 24.18-10.06 35.54-16.63 9.06-5.24 18.46-9.49 28.96-10.8 1.54-.19 3.13-.07 4.69.03 3.17.22 6.35.9 9.49.73 12.69-.71 17.58 4.38 21.82 14.46 3.81 9.08 4.13 18.57 2.55 28.12-2.48 14.96-6.08 29.66-11.39 43.9-.47 1.27-1.12 2.53-1.93 3.61-7.11 9.51-14.03 19.17-21.52 28.37-4.38 5.38-9.55 10.17-14.65 14.91-6.75 6.28-13.75 12.3-20.71 18.35-3.74 3.28-7.93 4.79-13.17 2.74zm14.16-125.38c1.65 1 2.63 1.86 3.77 2.24 7.39 2.51 14.74 5.18 22.25 7.29 6.38 1.8 12.98 1.85 19.43.09 1.11-.3 2.42-1.63 2.74-2.74 1.33-4.58 1.02-9.21-.51-13.74-2.14-6.35-9.46-10.74-15.53-9.02-11.39 3.26-21.44 9.3-32.15 15.88z" fill="#010103"/><g fill="#fcfbfa"><path d="m5.17 384 .55-.58c.85.61 1.65 1.24 2.4 1.87l-.59.64c-.83-.73-1.62-1.38-2.36-1.93m1.22 9.53-.82-.34c.71-1.76 1.37-3.64 1.98-5.63.24.13.5.25.76.36-.6 1.67-1.24 3.54-1.92 5.61m-.5-13.5.57-.54c.56.44 1.31 1.06 2.26 1.87l-.64.64c-.68-.66-1.41-1.32-2.19-1.97m3.25.46h2.24v-1.36h.77v1.36h4.57v-1.36h.76v1.36h2.28v.69h-2.28v1.84h-2.64v1.26h4.18v2.64h-4.21c0 .45-.02.86-.05 1.21h4.32v.69h-4.38c-.04.34-.1.75-.19 1.22h5.15v.69h-4.82c.87 1.19 2.51 1.92 4.93 2.19-.17.31-.3.57-.37.76-2.77-.49-4.52-1.41-5.26-2.76-.56 1.26-2.3 2.23-5.24 2.9-.12-.24-.26-.48-.43-.72 2.73-.55 4.38-1.34 4.96-2.38h-4.38v-.69h4.65c.1-.38.17-.79.21-1.22h-4.32v-.69h4.4c.03-.34.05-.75.05-1.21h-4.2v-2.64h4.23v-1.26h-2.69v-1.84h-2.24zm1.46 4.46v1.29h3.45c.01-.4.02-.57.01-.53v-.32-.45h-3.46zm1.55-2.59h4.57v-1.19h-4.57zm6.11 2.59h-3.42v.77c-.01.19-.01.37-.02.53h3.44z"/><path d="m32.63 379.16h.82v1.98h3.54v7.89h1.46v.78h-14.37v-.78h1.46v-7.89h3.54v-1.98h.82v1.98h2.73zm-3.49 11.48.5.73c-1.61.82-3.28 1.63-5 2.41-.13-.27-.28-.55-.44-.82 1.75-.72 3.4-1.49 4.94-2.32m-2.78-5.55h2.73v-3.18h-2.73zm0 3.95h2.73v-3.2h-2.73zm3.54-3.95h2.73v-3.18h-2.73zm0 3.95h2.73v-3.2h-2.73zm7.89 4.68c-1.84-.92-3.51-1.7-5.02-2.32l.45-.73c1.89.8 3.57 1.55 5.04 2.23zm-1.62-11.81h-2.73v3.18h2.73zm-2.73 7.13h2.73v-3.2h-2.73z"/></g></svg>