<svg enable-background="new 0 0 400 400" viewBox="0 0 400 400" xmlns="http://www.w3.org/2000/svg"><path d="m172.11 323.86c1.26-2.86 2.12-5.5 3.49-7.85 8.43-14.42 12.88-29.86 12.19-46.65-.01-.21-.02-.42-.05-.63-.73-6.82-3.19-8.54-9.81-6.53-1.99.6-3.86 1.72-5.67 2.8-4.5 2.71-9.28 4.07-14.55 3.47-.42-.05-.86 0-1.27-.08-7.52-1.58-13.39.9-18.43 6.65-4.67 5.33-9.65 10.45-14.94 15.16-7.89 7.03-16.12 13.68-24.34 20.34-1.11.9-2.98 1.28-4.45 1.17-1.55-.11-3.99-.77-4.34-1.78-.7-2.01-.75-4.28 1.09-6.44 9.85-11.52 17.93-24.13 22.29-38.82 1.53-5.15.96-9.53-2.9-14.01-10.64-12.36-20.73-25.19-31.24-38.09 3.5-1.28 6.67-2.45 10.19-.95 3.8 1.61 7.66 3.07 11.46 4.68 5.19 2.19 10.31 2.02 15.39-.31 17.21-7.89 35.14-13.71 53.73-17.1 5.69-1.04 11.78.05 17.68.32 4.44.2 8.87.69 13.32.97 3.56.22 5.45-1.18 5.82-4.63.59-5.6-1.07-10.86-4.09-15.35-1.16-1.72-4.36-2.46-6.76-2.89-7.8-1.39-15.4.6-22.93 2.21-21.49 4.58-41.37 13.61-61.25 22.61-.29.13-.64.23-.83.45-4.96 5.55-10.43 3.84-15.9 1.06-4.48-2.28-9.53-3.8-12.19-8.66-.15-.27-.22-.57-.43-1.13 2.72-.3 5.32-.56 7.91-.89 8.69-1.14 16.45-4.91 23.86-9.2 10.16-5.88 21.08-9.85 31.96-13.98 6.76-2.56 7.98-6.49 3.64-12.33-4.51-6.07-4.5-6.03-11.77-3.7-4.94 1.58-9.99 2.83-14.86 4.59-4.25 1.53-8.58 3.14-12.38 5.5-4.11 2.56-7.66 2.19-11.11-.5-5.85-4.56-11.7-9.15-17.2-14.12-5.79-5.24-11.23-10.87-16.69-16.47-1.2-1.23-1.81-3.04-3.04-5.18 4.44.63 8.24.18 11.73 2.99 7.12 5.72 15.36 7.71 24.48 6.23 9.39-1.53 18.82-2.81 28.18-4.19 1.27-3.6 1.12-6.6-2.42-8.87-3.63-2.32-6.91-5.24-10.65-7.34-8.75-4.93-17.69-9.53-27.14-14.58 6.18-2 12.01-2.44 17.55-1.07 8.72 2.16 17.21 5.2 25.78 7.95.86.28 1.53 1.1 2.33 1.6 6.24 3.95 12.37 8.1 18.83 11.66 1.83 1.01 4.68.64 6.97.3 11.5-1.72 17.82-11.05 26.37-17.78-.77-.54-1.12-.91-1.54-1.07-13.75-5.49-27.34-11.18-42.52-12.16-7.71-.5-15.35-2.98-22.88-5.08-8.54-2.38-16.41-1.77-23.91 3.18-3.13 2.06-6.63 1.08-9.34-.72-8.65-5.72-17.05-11.81-26.08-18.13 5.33-1.4 10.09-2.63 14.85-3.9 1.12-.3 2.63-.36 3.24-1.12 3.36-4.2 8.17-3.23 12.54-3.89 2.07-.31 4.19-.6 6.17-1.28 12.62-4.29 25.02-9.39 37.85-12.91 26.45-7.25 51.84-2.88 76.21 8.93.73.35 1.43.95 1.9 1.6 8.32 11.49 12.32 24.34 9.83 38.34-1.22 6.85-4.52 13.38-7.27 19.89-1.63 3.87-4.01 7.41-6.4 11.72 3.35 0 6.38.72 8.88-.13 8.9-3.03 17.62-6.57 26.39-9.97 2.37-.92 4.66-2.01 6.99-3.04 4.62-2.03 6.02-4.79 4.43-9.63-2.15-6.53-4.55-12.98-6.87-19.46-2.89-8.07-5.71-16.17-8.8-24.17-.71-1.84-2.11-3.67-3.68-4.87-4.2-3.22-8.87-5.84-12.94-9.21-2.6-2.16-4.9-4.97-6.54-7.93-1.71-3.11 0-5.33 3.56-4.56 5.01 1.09 9.98 2.63 14.74 4.55 2.89 1.16 5.39 3.33 8.01 5.13 6.55 4.53 13.31 8.51 21.07 10.84 7.58 2.28 10.17 7.88 7.06 15.13-2.02 4.71-2.13 9.16-1.44 14.14.75 5.4.39 10.96.38 16.45 0 3.32 1.45 4.78 4.82 4.41.73-.08 1.5-.21 2.14-.54 10.06-5.13 21.08-5.29 31.93-5.91 5.88-.34 11.86-.09 17.7.66 4.76.62 8.61 3.37 10.85 8.46-5.34 1.61-10.58 3.09-15.75 4.79-4.08 1.34-8.1 2.15-12.45 1.46-1.75-.28-3.78.23-5.5.88-5.34 2.04-10.49 4.59-15.89 6.43-7.28 2.49-13.57 6.34-18.73 12.02-1.37 1.51-2.84 2.16-4.75 1.32-2.83-1.25-5.43-.46-8.26.33-6.8 1.88-12.65 5.35-17.85 9.96-2.48 2.2-5.05 2.51-7.88 1.38-4.22-1.68-8.39-3.48-12.52-5.34-2.31-1.04-4.59-2.19-6.77-3.5-5.41-3.26-10.13-1.94-14.39 2.08-2.31 2.18-4.42 4.56-6.58 6.89-4.34 4.67-9.59 6.2-15.67 4.95-.85-2.77.1-4.58 1.73-6.55 13.39-16.21 22.47-34.59 26.57-55.23 1.39-7 .75-14.13-1.66-21.03-1.58-4.52-4.72-7.24-9.12-8.5-6-1.72-12.03-4.18-18.13-4.48-6.18-.31-12.72.85-18.66 2.74-8.74 2.79-17.15 6.69-25.59 10.37-2.25.98-4.12 2.85-6.89 4.82 5.03.27 9.19.55 13.35.69 17.09.56 33.33 4.57 48.6 12.23 3.37 1.69 6.51 3.97 9.46 6.35 3.27 2.63 3.57 7.51.62 10.45-1.11 1.11-3.17 1.27-4.82 1.88-.04.16-.17.37-.13.56 2.01 10.72-4.46 17.69-11.07 24.42-3.78 3.85-8.2 7.06-12.13 10.76-.95.89-1.71 2.7-1.53 3.94.63 4.5 1.77 8.93 2.58 13.41.32 1.77 1.2 2.39 2.92 2.62 11.03 1.47 22.04 2.99 33.05 4.6 1.41.21 2.88.78 4.08 1.56 13.02 8.55 26.06 17.07 38.94 25.84 3.03 2.06 5.34 5.13 8.22 7.44 1.74 1.4 3.83 2.56 5.95 3.22 2.46.77 4.51-.1 6.27-2.38 4.1-5.27 8.35-10.44 12.89-15.33 3.23-3.48 5.15-7.38 6.01-11.96.27-1.43.81-2.8 1.3-4.41 3.84.52 7.5.95 11.14 1.55.85.14 1.77.69 2.37 1.32 4.27 4.42 8.51 8.88 12.67 13.4 3.39 3.68 5.14 8.06 4.46 13.09-.15 1.13-1.37 2.78-2.39 3.03-14.44 3.54-24.68 14.1-36.65 21.75-.57.36-.93 1.82-.69 2.56 1.54 4.84 3.27 9.62 4.94 14.42.1.3.16.63.33.89 7.78 12.3 11.7 26.34 17.59 39.49 3.71 8.29 4.29 17.22 3.09 26.2-.25 1.85-1 3.67-1.73 5.41-6.07 14.43-12.14 28.86-18.34 43.23-1.7 3.93-4.05 7.53-8.27 9.25-3.17 1.29-4.49.73-4.79-2.65-.23-2.64.23-5.49 1.04-8.04 5.13-16.21 7.5-32.83 7.26-49.78-.12-8.48-1.34-16.8-4.69-24.81-3.8-9.08-6.9-18.44-10.46-27.62-1.02-2.64-2.4-5.18-3.9-7.6-2.15-3.46-4.74-3.72-7.84-.9-2.04 1.85-3.92 3.88-5.87 5.83-8.17 8.17-16.34 16.36-24.54 24.5-.8.79-1.85 1.92-2.76 1.9-3.24-.08-4.02 1.99-4.73 4.46-3.81 13.11-10.48 24.74-18.8 35.44-4.45 5.73-10.22 9.17-17.8 8.67-.63-.04-1.27-.1-1.89-.22-.44-.09-.92-.3-2.51-.81zm53.54-130.48c-.81 4.07-1.36 7.64-2.25 11.11-3.47 13.52-6.4 27.25-14.38 39.12-.39.58-.55 1.39-.61 2.11-.63 7.47.99 14.47 4.29 21.38.48-.51.84-.76 1.03-1.11 7.36-13.62 17.34-25.36 27.37-36.96 4.61-5.33 4.34-10.1 1.54-15.59-1.01-1.97-2.11-3.93-3.43-5.71-3.89-5.26-7.86-10.46-13.56-14.35zm-115.79 32.26c2.58 4.07 4.86 7.7 10.18 7.07 1.02-.12 2.1.18 3.15.33 5.38.79 10.61.7 15.93-.98 7.25-2.29 14.68-4.03 22.05-5.9 1.38-.35 2.95-.46 4.34-.2 6.23 1.17 12.38 2.95 18.65 3.68 8.96 1.04 13.82-1.33 15.91-9.95.89-3.66-1.7-7.1-5.45-6.53-8.98 1.36-18 2.69-26.85 4.67-10.51 2.35-20.88 5.37-31.3 8.13-5.46 1.44-10.91 2.27-16.58 1.01-3.13-.7-6.4-.87-10.03-1.33zm28.19 19.82c.03.35.06.7.09 1.05.69.32 1.36.75 2.09.95 12.82 3.5 25.4 1.95 37.82-2.02.62-.2 1.29-1.28 1.35-1.99.27-3.42-2.78-5.61-7.49-5.03-7.46.92-14.93 1.9-22.31 3.31-3.95.75-7.71 2.46-11.55 3.73z" fill="#010103"/><g fill="#fcfbfa"><path d="m5.17 384 .55-.58c.85.61 1.65 1.24 2.4 1.87l-.59.64c-.83-.73-1.62-1.38-2.36-1.93m1.22 9.53-.82-.34c.71-1.76 1.37-3.64 1.98-5.63.24.13.5.25.76.36-.6 1.67-1.24 3.54-1.92 5.61m-.5-13.5.57-.54c.56.44 1.31 1.06 2.26 1.87l-.64.64c-.68-.66-1.41-1.32-2.19-1.97m3.25.46h2.24v-1.36h.77v1.36h4.57v-1.36h.76v1.36h2.28v.69h-2.28v1.84h-2.64v1.26h4.18v2.64h-4.21c0 .45-.02.86-.05 1.21h4.32v.69h-4.38c-.04.34-.1.75-.19 1.22h5.15v.69h-4.82c.87 1.19 2.51 1.92 4.93 2.19-.17.31-.3.57-.37.76-2.77-.49-4.52-1.41-5.26-2.76-.56 1.26-2.3 2.23-5.24 2.9-.12-.24-.26-.48-.43-.72 2.73-.55 4.38-1.34 4.96-2.38h-4.38v-.69h4.65c.1-.38.17-.79.21-1.22h-4.32v-.69h4.4c.03-.34.05-.75.05-1.21h-4.2v-2.64h4.23v-1.26h-2.69v-1.84h-2.24zm1.46 4.46v1.29h3.45c.01-.4.02-.57.01-.53v-.32-.45h-3.46zm1.55-2.59h4.57v-1.19h-4.57zm6.11 2.59h-3.42v.77c-.01.19-.01.37-.02.53h3.44z"/><path d="m32.63 379.16h.82v1.98h3.54v7.89h1.46v.78h-14.37v-.78h1.46v-7.89h3.54v-1.98h.82v1.98h2.73zm-3.49 11.48.5.73c-1.61.82-3.28 1.63-5 2.41-.13-.27-.28-.55-.44-.82 1.75-.72 3.4-1.49 4.94-2.32m-2.78-5.55h2.73v-3.18h-2.73zm0 3.95h2.73v-3.2h-2.73zm3.54-3.95h2.73v-3.18h-2.73zm0 3.95h2.73v-3.2h-2.73zm7.89 4.68c-1.84-.92-3.51-1.7-5.02-2.32l.45-.73c1.89.8 3.57 1.55 5.04 2.23zm-1.62-11.81h-2.73v3.18h2.73zm-2.73 7.13h2.73v-3.2h-2.73z"/></g></svg>