<svg enable-background="new 0 0 400 400" viewBox="0 0 400 400" xmlns="http://www.w3.org/2000/svg"><path d="m196.64 242.17c0 2.21-.23 4.46.04 6.64 1.65 13.26-.93 26.19-2.9 39.16-1.32 8.69-2.68 17.38-4.2 26.03-.51 2.9-1.47 5.75-2.47 8.53-.52 1.45-1.29 3.22-2.49 3.92-2.27 1.34-4.93 2.64-7.43 2.65-1 0-2.53-3.38-2.89-5.39-.62-3.51-.77-7.16-.67-10.74.71-24.56-.8-48.95-4.99-73.17-.4-2.29-1.17-4.53-1.46-6.83-1.18-9.57-8.45-14.14-15.67-19.17-2.37 4.49-4.99 8.84-7.04 13.44-5.94 13.28-15.37 23.73-26.04 33.29-5.48 4.91-11.03 9.88-18.29 11.69-4.73 1.18-9.78 1.09-14.69 1.43-1.54.11-2.81-.47-3.05-2.41-.25-2.06-1.56-3.77.57-6.02 9.55-10.07 19.01-20.25 28.1-30.74 6.07-7 10.8-14.93 12.7-24.24.72-3.52.66-6.76-1.32-10.06-2.83-4.71-5.1-9.76-7.75-14.58-1.06-1.93-2.42-3.7-3.75-5.45-4.19-5.49-6.48-11.84-8.52-18.34-1.23-3.93-2.48-7.89-4.22-11.61-1.09-2.33-2.92-4.41-4.77-6.25-2.24-2.23-4.8-2.89-8.07-1.32-4.18 2.01-8.41 3.59-11.94 6.92-4.62 4.35-10.51 4.61-16.46 3.32-2.62-.57-4.44-4.23-3.17-6.94 1.19-2.54 2.76-5.04 4.67-7.08 13.14-14.05 24.38-29.38 31.45-47.38 2.06-5.26 2.77-11.05 4.1-16.59.46-1.93-.09-3.22-2.11-3.89-1.29-.43-2.48-1.18-3.7-1.81-2.08-1.08-3.01-3.01-2.26-5.02.43-1.13 2.14-2.27 3.43-2.5 8.44-1.55 16.03 1.02 22.69 5.94 5.36 3.96 10.41 8.41 15.15 13.09 1.77 1.74 3.07 4.74 3.18 7.22.26 6.06-1.58 11.6-6.01 16.16-9.16 9.42-18.62 18.6-25.45 30-.48.81-1.01 1.6-1.7 2.7 4.47 2.97 8.82 5.93 13.27 8.73.66.42 1.81.19 2.71.08 21.33-2.75 41.61-9.71 62.12-15.72.61-.18 1.22-.39 1.84-.5 4.13-.77 7.14-2.71 9.38-6.59 2.81-4.87 6.62-5.6 11.7-3.23.63.29 1.18.86 1.61 1.42.51.66.75 1.55 1.29 2.18 5.78 6.78 4.43 14.05 1.56 21.44-.65 1.68-1.39 3.33-1.93 5.04-.9 2.87-.01 4.9 2.83 5.21 3.44.37 6.96.11 10.43-.08.6-.03 1.41-.93 1.67-1.61 4.04-10.47 8.02-20.96 11.99-31.45.06-.17-.05-.4-.13-.85-5.51-.46-11.08-1.4-16.63-1.27-6.76.16-11.95-2.81-17.08-6.52-8.56-6.21-15.75-13.82-22.6-21.81-7.31-8.52-14.76-16.93-22.44-25.72 2.87-1.01 5.19-1.81 8.35-.44 20.53 8.9 40.5 18.91 60 29.82 5.22 2.92 9.78 7.04 14.89 10.8 3.21-3.72 4.42-8.32 5.06-12.97 1.68-12.28 1.3-24.55-1.49-36.65-.5-2.19-1.63-4.35-2.92-6.21-3.38-4.85-7-9.53-10.17-14.92 3.57 1.43 7.24 2.65 10.68 4.34 9.43 4.63 18.72 9.53 25.7 17.75 6.76 7.96 9.22 16.97 6.74 27.22-2.13 8.85-4.28 17.7-6.28 26.58-1.37 6.09-1.26 6.13 4.63 7.8 18.34 5.19 36.72 10.22 54.98 15.66 5.02 1.49 9.71 4.14 14.52 6.34.85.39 1.58 1.08 2.27 1.72 4.9 4.57 3.88 9.65-2.3 11.83-4.57 1.61-9.12 1.17-13.35-.68-15.34-6.7-32.03-6.63-48.03-9.94-.51-.11-1.07-.15-1.58-.06-7.07 1.31-13.85.53-20.44-2.46-.9-.41-2.78.15-3.59.92-4.76 4.46-7.72 10.01-9.19 16.36-.54 2.34.2 3.93 2.47 5.14 6.83 3.62 13.58 7.38 20.28 11.23 7.19 4.14 14.31 8.45 18.24 16.23 1.38 2.73 2.33 5.67 3.56 8.48.76 1.73 1.5 3.54 2.61 5.05 2.95 4.03 5.14 4.09 8.43.53 6.26-6.78 12.47-13.6 18.83-20.29 1.77-1.87 2.83-3.72 2.83-6.38 0-3.37.46-6.74.76-10.51 1.17.41 2.12.7 3.05 1.07 6.58 2.66 13.15 5.32 19.71 8 3.88 1.58 6.1 6.5 4.69 10.51-1.8 5.11-4.19 9.6-8.63 13.28-10.94 9.06-21.41 18.69-32.07 28.08-3.08 2.71-4.39 6.28-3.16 10.01 4.89 14.81 4.39 30.34 6.55 45.5 3.17 22.26 2 44.66 2.18 67.02.03 3.38.01 6.77-.23 10.14-.17 2.33-1.14 4.36-3.8 4.85-2.59.48-4.57-.19-6.22-2.54-3.55-5.05-4.41-10.88-5.65-16.69-3.9-18.33-8.19-36.58-11.99-54.93-1.99-9.63-3.03-19.45-4.96-29.09-.81-4.06-2.62-7.97-4.34-11.79-1.09-2.43-3.15-3.16-6.04-2.46-10.08 2.46-20.26 4.52-30.34 6.95-7.08 1.71-13.29.23-19.27-3.8-5.66-3.81-11.65-7.14-17.49-10.68-.2.28-.44.61-.67.93zm-34.09-39.11c8.22 7.55 15.77 15.21 24.12 21.85 4.58 3.64 10.07 7.07 16.45 6.7 10.97-.63 22-1.15 32.85-2.78 7.22-1.09 14.19-3.96 21.23-6.17 2.24-.71 3.43-2.48 3.09-4.92-.55-3.96-.51-8.17-1.92-11.8-4.88-12.62-13.4-22.46-24.75-29.8-1.02-.66-2.34-1.03-3.56-1.21-5.24-.76-10.48-1.7-15.76-2-3.85-.22-5.85-1.84-7.09-5.36-1.8-5.1-4.22-6.45-10.36-6.2-5.4 18.49-20.72 29.17-34.3 41.69zm-37.51-39.18c2.54 6.81 4.84 13.16 7.33 19.43.28.7 1.59 1.32 2.48 1.4 6.35.59 12.55-.5 17.31-4.77 6.53-5.86 12.54-12.31 18.57-18.69 1.08-1.14 1.17-3.21 1.72-4.86-1.99-.48-3.98-1-5.98-1.39-.46-.09-1 .29-1.51.43-12.95 3.51-25.52 8.71-39.92 8.45z" fill="#010103"/><g fill="#fcfbfa"><path d="m5.17 384 .55-.58c.85.61 1.65 1.24 2.4 1.87l-.59.64c-.83-.73-1.62-1.38-2.36-1.93m1.22 9.53-.82-.34c.71-1.76 1.37-3.64 1.98-5.63.24.13.5.25.76.36-.6 1.67-1.24 3.54-1.92 5.61m-.5-13.5.57-.54c.56.44 1.31 1.06 2.26 1.87l-.64.64c-.68-.66-1.41-1.32-2.19-1.97m3.25.46h2.24v-1.36h.77v1.36h4.57v-1.36h.76v1.36h2.28v.69h-2.28v1.84h-2.64v1.26h4.18v2.64h-4.21c0 .45-.02.86-.05 1.21h4.32v.69h-4.38c-.04.34-.1.75-.19 1.22h5.15v.69h-4.82c.87 1.19 2.51 1.92 4.93 2.19-.17.31-.3.57-.37.76-2.77-.49-4.52-1.41-5.26-2.76-.56 1.26-2.3 2.23-5.24 2.9-.12-.24-.26-.48-.43-.72 2.73-.55 4.38-1.34 4.96-2.38h-4.38v-.69h4.65c.1-.38.17-.79.21-1.22h-4.32v-.69h4.4c.03-.34.05-.75.05-1.21h-4.2v-2.64h4.23v-1.26h-2.69v-1.84h-2.24zm1.46 4.46v1.29h3.45c.01-.4.02-.57.01-.53v-.32-.45h-3.46zm1.55-2.59h4.57v-1.19h-4.57zm6.11 2.59h-3.42v.77c-.01.19-.01.37-.02.53h3.44z"/><path d="m32.63 379.16h.82v1.98h3.54v7.89h1.46v.78h-14.37v-.78h1.46v-7.89h3.54v-1.98h.82v1.98h2.73zm-3.49 11.48.5.73c-1.61.82-3.28 1.63-5 2.41-.13-.27-.28-.55-.44-.82 1.75-.72 3.4-1.49 4.94-2.32m-2.78-5.55h2.73v-3.18h-2.73zm0 3.95h2.73v-3.2h-2.73zm3.54-3.95h2.73v-3.18h-2.73zm0 3.95h2.73v-3.2h-2.73zm7.89 4.68c-1.84-.92-3.51-1.7-5.02-2.32l.45-.73c1.89.8 3.57 1.55 5.04 2.23zm-1.62-11.81h-2.73v3.18h2.73zm-2.73 7.13h2.73v-3.2h-2.73z"/></g></svg>