<svg enable-background="new 0 0 400 400" viewBox="0 0 400 400" xmlns="http://www.w3.org/2000/svg"><path d="m6.44 374.46.42-.45c.65.47 1.27.95 1.85 1.44l-.45.49c-.65-.56-1.25-1.06-1.82-1.48m.93 7.33-.63-.26c.55-1.36 1.05-2.8 1.52-4.33.19.1.38.19.59.27-.46 1.29-.95 2.73-1.48 4.32m-.38-10.38.44-.42c.43.34 1.01.82 1.74 1.44l-.49.49c-.53-.51-1.09-1.01-1.69-1.51m2.5.35h1.72v-1.04h.59v1.04h3.52v-1.04h.59v1.04h1.75v.53h-1.75v1.42h-2.03v.97h3.22v2.03h-3.24c0 .35-.01.66-.03.93h3.32v.53h-3.37c-.03.27-.08.58-.15.94h3.96v.53h-3.71c.67.92 1.93 1.48 3.79 1.68-.13.24-.23.44-.29.59-2.13-.38-3.48-1.08-4.04-2.12-.43.97-1.77 1.72-4.03 2.23-.09-.19-.2-.37-.33-.55 2.1-.42 3.37-1.03 3.81-1.83h-3.36v-.53h3.58c.08-.29.13-.61.16-.94h-3.33v-.53h3.39c.02-.27.04-.58.04-.93h-3.23v-2.03h3.25v-.97h-2.07v-1.42h-1.73zm1.12 3.44v1h2.65c.01-.3.02-.44.01-.4v-.25-.35zm1.19-2h3.52v-.91h-3.52zm4.71 2h-2.63v.59c0 .15-.01.28-.01.4h2.64z" fill="#fbfcfa"/><path d="m13.56 383.74h.63v1.52h2.72v6.07h1.13v.6h-11.06v-.6h1.13v-6.07h2.73v-1.52h.63v1.52h2.1v-1.52zm-2.69 8.83.38.56c-1.24.63-2.53 1.25-3.85 1.85-.1-.21-.21-.42-.34-.63 1.36-.55 2.63-1.15 3.81-1.78m-2.13-4.27h2.1v-2.45h-2.1zm0 3.04h2.1v-2.46h-2.1zm2.72-3.04h2.1v-2.45h-2.1zm0 3.04h2.1v-2.46h-2.1zm6.07 3.6c-1.41-.71-2.7-1.3-3.86-1.78l.35-.56c1.45.62 2.75 1.19 3.88 1.72zm-1.25-9.09h-2.1v2.45h2.1zm-2.09 5.49h2.1v-2.46h-2.1z" fill="#fbfcfa"/><g fill="#010100"><path d="m181.58 162.44c6.37-2.25 11.44-.18 16.49 1.69 1.88.69 3.61 1.77 5.4 2.68 6.76 3.44 11.16 8.36 10.26 16.53-.27 2.43.87 3.38 3.1 4.2 5.15 1.89 10.29 3.9 15.16 6.4 12.06 6.18 24.23 12.22 35.89 19.11 23.57 13.94 37.4 34.91 41.8 61.83 1.82 11.15.03 22.19-4.2 32.73-3.74 9.3-6.38 19.29-14.23 26.26-4.81 4.27-9.74 8.67-15.32 11.74-12.88 7.1-26.17 13.45-39.32 20.04-.88.44-2.05.62-3.03.51-2.94-.35-5.91-.72-8.76-1.47-1.02-.27-2.06-1.53-2.48-2.59-.19-.48.9-1.94 1.71-2.3 8.02-3.58 16.11-7 24.16-10.51 6.62-2.88 11.71-7.5 15.5-13.86-.47-.39-.9-.82-1.4-1.14-9.61-6.01-19.2-12.07-28.89-17.94-1.16-.7-2.91-.41-4.39-.57-.1-.01-.2.07-.3.1-8.24 1.86-15.37 5.37-22.02 11-7.46 6.31-16.34 10.95-24.6 16.32-.95.62-1.88 1.27-3.29 2.22 6.82 1.82 13.28 1.88 19.55.81 13.56-2.31 27.02-5.22 40.54-7.78 2.12-.4 4.5-.75 6.5-.19 3.38.95 3.66 3.46.98 5.67-5.81 4.78-12.79 6.92-19.9 8.74-9.22 2.37-18.49 4.55-27.66 7.11-11.53 3.22-23.09 2.93-34.62.46-6.81-1.45-13.55-3.37-20.15-5.59-3.12-1.05-5.99-3.07-8.72-5.01-3.97-2.83-7.48-6.34-11.59-8.91-9.09-5.67-12.8-14.57-15.53-24.2-3.25-11.47-1.01-22.52 3-33.29 3.65-9.81 7.49-19.57 11.7-29.15 1.72-3.92 4.73-7.26 7.02-10.94 14.7-23.62 34.37-42.94 53.84-62.45 1.76-1.76 3.37-3.86 4.4-6.1 1.74-3.77 1.14-4.64-2.08-7.11-1.64-1.26-2.84-3.13-4.52-5.05zm-7.52 62.65c-8.86 5.52-15.8 12.88-21.48 21.67-4.24 6.56-9.23 12.64-13.73 19.04-2.48 3.52-4.97 7.09-6.88 10.92-1.87 3.76-3.31 7.82-4.39 11.89-1.24 4.67-2 9.48-2.73 14.27-.32 2.1.7 3.36 3.11 3.86 8.51 1.74 17.02 1.46 25.1-1.32 13.59-4.68 26.93-10.07 40.34-15.27.87-.34 1.73-1.5 2-2.45 2.33-8.23 3.28-16.65 2.4-25.15-.49-4.73-1.82-9.37-2.82-14.25-1.37 2.57-2.28 4.68-3.53 6.58-2.57 3.89-5.23 7.72-8 11.46-4.23 5.73-9.92 9.81-16.08 13.12-4.58 2.46-6.67.87-6.5-4.32.24-7.37 3.74-13.53 8.09-18.97 4.92-6.17 7.02-13.44 9.58-20.55 1.74-4.87.06-8.15-4.48-10.53zm115.81 51.26c.36-.08.72-.16 1.08-.24-.07-1.18.15-2.47-.25-3.53-3.84-10.31-7.49-20.7-11.85-30.79-1.71-3.96-4.62-7.68-7.76-10.69-5.79-5.54-12.74-8.5-20.89-5.45-6.33 2.37-12.57 5-18.75 7.74-1.41.62-2.85 1.99-3.48 3.38-1.49 3.27-3.53 5.38-7.28 5.56-.83.04-1.64.39-2.47.59-3.56.89-4.24 2.08-3.19 5.58.9 3.01 2.78 4.03 6.56 2.96 9.37-2.66 18.67-5.53 28.02-8.26 6.89-2.02 13.83-3.16 20.95-1.02 2.21.67 2.83 1.88 2.13 4.01-1.47 4.48-5.11 6.31-9.2 7.44-3.67 1.01-7.46 1.59-11.13 2.6-11.84 3.27-23.68 6.54-34.55 12.49-3.15 1.72-3.67 10.53-.66 12.55.84.57 2.21.75 3.24.57 2.49-.45 4.91-1.3 7.4-1.83 9.19-1.95 18.33-4.33 27.62-5.6 8.58-1.17 17.32-1.08 25.99-1.59 3.41-.2 6.24.9 8.47 3.53zm.07 2.31c-8.35 4.77-17.17 7.48-26.54 8.53-4.3.48-8.67 1-12.79 2.22-5.07 1.5-9.92 3.74-14.95 5.69 1.3 3.55 2.38 6.19 3.23 8.91.68 2.15 1.78 3.61 3.99 4.48 7.17 2.83 13.42 7.1 18.94 12.49 1.97 1.92 4.14 3.63 6.25 5.41 2.62 2.21 4.67 2.32 7.35.15 1.22-.98 2.17-2.3 3.21-3.49 7.27-8.31 10.38-18.56 13.19-28.88 1.41-5.21 1.15-10.46-1.88-15.51zm-164.98 36.6c-.24.37-.48.73-.72 1.1.69 4.76 2.84 8.78 6.52 11.9 3.55 3.01 7.41 5.68 10.81 8.84 3.22 2.98 6.72 4.97 11.1 5.44 1.47.16 2.94.44 4.35.86 1.85.56 3.09-.01 4.47-1.33 10.07-9.7 20.26-19.27 30.33-28.96 1.29-1.24 2.13-2.95 3.18-4.44-.16-.34-.32-.69-.48-1.03-1.22 0-2.58-.35-3.65.05-12.23 4.65-24.96 8.16-36.11 15.34-.35.22-.74.51-1.13.53-6.38.27-12.61.22-18.35-3.52-3.14-2.05-6.86-3.22-10.32-4.78zm111.68-103.92c-.83-1.16-1.02-1.54-1.31-1.81-8.63-7.94-19.1-12.74-29.7-17.32-.54-.23-1.65.2-2.16.68-7.75 7.37-15.43 14.8-23.14 22.2-1.8 1.73-1.03 2.85.9 3.39 2.33.64 4.73 1.2 7.13 1.43 9.92.95 19.64-.69 29.23-2.89 6.32-1.45 12.44-3.68 19.05-5.68z"/><path d="m70.53 204.36c-1.23-2.37-.36-3.66 1.65-5.02 17.24-11.59 34.32-23.42 51.63-34.89 6.34-4.2 13.15-7.71 19.83-11.38 6.47-3.57 12.29-7.8 16.37-14.29-6.38-3.84-13.21-5.61-20.17-7.12-5.48-1.19-10.93-2.52-16.35-3.93-1.73-.45-3.07-.41-4.13 1.17-.29.43-.76.75-1.09 1.15-7.5 9.12-16.68 16.14-26.87 22.02-2.78 1.6-4.75 4.54-7.42 6.38-2.14 1.48-5.7 3.74-7.01 2.96-2.47-1.48-1.4-5.08-.15-7.51 2.15-4.2 4.37-8.45 7.2-12.19 8.22-10.84 15.36-22.3 21.8-34.29 2.92-5.43 1.38-10.13-.32-15.12-.36-1.07-.88-2.08-1.45-3.38 4.13-.03 7.63.06 10.86 2.59 2.81 2.2 6.19 3.66 9.23 5.58 5.5 3.46 6.49 6.22 4.61 12.47-.91 3.04.05 4.98 3.05 5.84 13.95 3.98 27.84 8.19 41.91 11.67 2.96.73 7.12-.42 9.81-2.15 7.2-4.64 13.94-10.01 20.79-15.18 4.75-3.58 8.2-8.24 10.53-13.7.31-.72.41-1.64.28-2.41-1.12-6.83-5.04-11.82-10.8-15.29-1.57-.95-3.85-1.33-5.69-1.1-4.88.62-9.64 1.87-12.22 6.76-.62 1.17-1.22 2.45-1.39 3.73-1.07 8.3-1.87 16.64-3.1 24.91-.36 2.41-1.44 4.95-2.91 6.89-2.82 3.7-8.4 2.86-10.43-1.33-4.97-10.27-6.88-21.34-8.13-32.51-1-8.95-1.54-17.94-2.15-26.93-.32-4.7-1.75-8.85-4.83-12.48-2.86-3.37-5.51-6.92-8.04-10.74 3.95 0 7.78-.74 11.29 1.67 2.35 1.62 4.85 3.07 7.43 4.28 7.76 3.62 14.25 8.65 18.7 16.07 1.03 1.71 2.34 2.03 4.27 1.72 13.38-2.15 26.79-4.14 40.17-6.29 2.16-.35 4.28-1.17 6.33-1.99 2.85-1.15 5.51-2.49 8.77-1.09 1.04.45 2.66-.28 3.97-.66 15.83-4.63 32.04-5.86 48.43-5.31 1.05.04 2.42-.11 3.08.48 1.41 1.25 2.74 2.78 3.46 4.47.23.55-1.35 2.27-2.43 2.92-11.56 6.97-24.52 9.77-37.56 12.15-11.56 2.12-23.2 3.81-34.78 5.81-2.05.35-4.15 1.04-5.93 2.08-2.46 1.43-2.31 3.48.17 4.77 18.78 9.79 37.54 19.63 56.42 29.24 3.93 2 8.34 3.05 12.49 4.65 3.58 1.38 6.1 3.67 6.14 8.08-5.81 1.16-11.35-.02-16.72-1.45-11.76-3.14-23.44-6.57-35.1-10.06-2.06-.62-3.23-.3-4.68 1.2-6.1 6.33-12.42 12.46-18.49 18.83-1.91 2.01-3.29 4.54-4.93 6.86 4.09 3.8 8.71 4.45 13.34 5 24.22 2.9 48.13 7.35 71.69 13.74 5.71 1.55 11.62 2.31 17.41 3.59 2.97.66 5.59 1.96 6.34 5.58-4.39 2.69-9.2 3.68-14.06 3.05-12.7-1.66-25.36-3.68-38.03-5.61-24.09-3.67-48.17-7.38-72.26-11.01-1.05-.16-2.36.07-3.28.6-17.96 10.27-36.84 18.61-55.65 27.14-5.73 2.6-10.82 6.63-16.17 10.05-15.64 10-32.85 15.51-51.14 17.93-1.05.14-2.08.34-3.13.5-.08-.01-.19-.08-.46-.17z"/></g></svg>