<svg enable-background="new 0 0 400 400" viewBox="0 0 400 400" xmlns="http://www.w3.org/2000/svg"><path d="m6.44 374.46.42-.45c.65.47 1.27.95 1.85 1.44l-.45.49c-.65-.56-1.25-1.06-1.82-1.48m.93 7.33-.63-.26c.55-1.36 1.05-2.8 1.52-4.33.19.1.38.19.59.27-.46 1.29-.95 2.73-1.48 4.32m-.38-10.38.44-.42c.43.34 1.01.82 1.74 1.44l-.49.49c-.53-.51-1.09-1.01-1.69-1.51m2.5.35h1.72v-1.04h.59v1.04h3.52v-1.04h.59v1.04h1.75v.53h-1.75v1.42h-2.03v.97h3.22v2.03h-3.24c0 .35-.01.66-.03.93h3.32v.53h-3.37c-.03.27-.08.58-.15.94h3.96v.53h-3.71c.67.92 1.93 1.48 3.79 1.68-.13.24-.23.44-.29.59-2.13-.38-3.48-1.08-4.04-2.12-.43.97-1.77 1.72-4.03 2.23-.09-.19-.2-.37-.33-.55 2.1-.42 3.37-1.03 3.81-1.83h-3.36v-.53h3.58c.08-.29.13-.61.16-.94h-3.33v-.53h3.39c.02-.27.04-.58.04-.93h-3.23v-2.03h3.25v-.97h-2.07v-1.42h-1.73zm1.12 3.44v1h2.65c.01-.3.02-.44.01-.4v-.25-.35zm1.19-2h3.52v-.91h-3.52zm4.71 2h-2.63v.59c0 .15-.01.28-.01.4h2.64z" fill="#fbfcfa"/><path d="m13.56 383.74h.63v1.52h2.72v6.07h1.13v.6h-11.06v-.6h1.13v-6.07h2.73v-1.52h.63v1.52h2.1v-1.52zm-2.69 8.83.38.56c-1.24.63-2.53 1.25-3.85 1.85-.1-.21-.21-.42-.34-.63 1.36-.55 2.63-1.15 3.81-1.78m-2.13-4.27h2.1v-2.45h-2.1zm0 3.04h2.1v-2.46h-2.1zm2.72-3.04h2.1v-2.45h-2.1zm0 3.04h2.1v-2.46h-2.1zm6.07 3.6c-1.41-.71-2.7-1.3-3.86-1.78l.35-.56c1.45.62 2.75 1.19 3.88 1.72zm-1.25-9.09h-2.1v2.45h2.1zm-2.09 5.49h2.1v-2.46h-2.1z" fill="#fbfcfa"/><path d="m64.93 173.08c-6.31-4.2-12.06-7.94-17.72-11.81-5.7-3.9-10.78-8.49-14.99-14.05.25-.14.36-.25.43-.22 10.3 3.66 20.48 1.02 30.68-.55 3.66-.56 7.36-.96 10.99-1.7 3.82-.77 7.71-1.49 11.33-2.87 31.29-11.94 61.33-26.67 91.55-41.02 25.77-12.23 52.98-20.08 81.45-21.83 18.77-1.15 37.71-.52 56.23 4.05 16.26 4.02 27.86 13.67 35.41 28.5 6.49 12.74 11.7 25.86 12.65 40.31.41 6.3-.26 12.41-3.06 18.26-3.29 6.87-6.09 13.98-9.31 20.89-2.09 4.49-4.35 8.92-6.87 13.17-4.71 7.93-5.2 15.88-1.12 24.2 3.43 7 4.37 14.4 2.29 21.94-.58 2.09-2.03 4.09-3.52 5.73-3.76 4.14-7.96 7.88-11.64 12.1-5.76 6.6-12.16 12.32-19.54 17.09-6.58 4.25-13.03 8.77-19.1 13.72-12.81 10.43-27.52 16.43-43.5 19.82-21.84 4.63-43.85 7.46-66.22 6.74-5.02-.16-9.78-1.11-14.45-3.15-11.54-5.05-23.21-9.78-34.81-14.68-1.15-.48-2.38-1.03-3.25-1.88-12.54-12.25-24.29-25.14-33.46-40.22-6.36-10.45-9.88-22-13.07-33.63-4.78-17.41-10.95-34.26-19.3-50.27-1.77-3.35-2.81-6.21 1.92-8.64zm8.25 5.04c1.09 1.15 1.64 1.78 2.24 2.35 9.38 9.06 18.77 18.11 28.14 27.18 2.66 2.57 6.81 4.9 7.43 7.92.61 2.97-2.47 6.66-3.78 10.09-.42 1.09-.81 2.52-.45 3.53 3.22 9.13 7.03 18.09 13.33 25.49 8.03 9.43 16.67 18.33 25.11 27.41.83.89 2.02 1.52 3.15 2.05 23.87 11.26 49.02 14.74 75 11.21 31.55-4.28 59.91-16.24 84.56-36.69 6.65-5.52 12.35-11.5 14.73-20.11 1.31-4.76 1.89-9.41.05-14.46-7.29 4.69-14.29 9.25-21.34 13.72-4.56 2.89-9.09 5.85-13.81 8.45-5.15 2.82-10.33 1.84-15.75-.8 1.65-2.75 2.92-5.46 4.71-7.77 13.54-17.39 27.19-34.7 40.78-52.05.63-.8 1.47-1.73 1.51-2.63.17-3.67.07-7.35.07-11.29-1.46.46-2.57.77-3.65 1.16-24.03 8.55-48.08 17.07-72.09 25.67-12.84 4.6-25.51 9.72-38.47 13.94-8.98 2.93-17.41 6.51-24.74 12.55-1.09.9-2.52 1.58-3.9 1.88-8.57 1.9-17.19 1.21-24.77-2.89-12.55-6.78-24.57-14.55-36.86-21.82-2.39-1.41-3.19-3.16-2.15-5.89 5.96-1.26 11.97-2.5 17.96-3.8 12.73-2.75 25.66-4.8 38.12-8.46 23.05-6.77 45.8-14.53 68.7-21.82 9.78-3.12 19.41-7.11 29.43-8.91 11.29-2.03 22.93-2.16 34.44-2.86 8.28-.51 16.49-1.21 24.18-4.62.87-.39 2.03-1.48 2.03-2.26.08-9.68-.52-19.27-4.1-28.44-2.62-6.7-7.01-11.71-13.97-13.75-5.86-1.72-11.87-3.49-17.9-3.91-7.96-.55-16.38-1.26-23.94.68-26.24 6.74-52.21 14.51-78.22 22.1-3.66 1.07-7.36 2.81-10.4 5.09-9.38 7.04-19.36 12.87-30.29 17.14-15.66 6.12-30.23 14.28-44.01 23.87-9.17 6.4-18.95 11.21-31.08 11.75z" fill="#010100"/></svg>