<svg enable-background="new 0 0 400 400" viewBox="0 0 400 400" xmlns="http://www.w3.org/2000/svg"><path d="m6.44 374.46.42-.45c.65.47 1.27.95 1.85 1.44l-.45.49c-.65-.56-1.25-1.06-1.82-1.48m.93 7.33-.63-.26c.55-1.36 1.05-2.8 1.52-4.33.19.1.38.19.59.27-.46 1.29-.95 2.73-1.48 4.32m-.38-10.38.44-.42c.43.34 1.01.82 1.74 1.44l-.49.49c-.53-.51-1.09-1.01-1.69-1.51m2.5.35h1.72v-1.04h.59v1.04h3.52v-1.04h.59v1.04h1.75v.53h-1.75v1.42h-2.03v.97h3.22v2.03h-3.24c0 .35-.01.66-.03.93h3.32v.53h-3.37c-.03.27-.08.58-.15.94h3.96v.53h-3.71c.67.92 1.93 1.48 3.79 1.68-.13.24-.23.44-.29.59-2.13-.38-3.48-1.08-4.04-2.12-.43.97-1.77 1.72-4.03 2.23-.09-.19-.2-.37-.33-.55 2.1-.42 3.37-1.03 3.81-1.83h-3.36v-.53h3.58c.08-.29.13-.61.16-.94h-3.33v-.53h3.39c.02-.27.04-.58.04-.93h-3.23v-2.03h3.25v-.97h-2.07v-1.42h-1.73zm1.12 3.44v1h2.65c.01-.3.02-.44.01-.4v-.25-.35zm1.19-2h3.52v-.91h-3.52zm4.71 2h-2.63v.59c0 .15-.01.28-.01.4h2.64z" fill="#fbfcfa"/><path d="m13.56 383.74h.63v1.52h2.72v6.07h1.13v.6h-11.06v-.6h1.13v-6.07h2.73v-1.52h.63v1.52h2.1v-1.52zm-2.69 8.83.38.56c-1.24.63-2.53 1.25-3.85 1.85-.1-.21-.21-.42-.34-.63 1.36-.55 2.63-1.15 3.81-1.78m-2.13-4.27h2.1v-2.45h-2.1zm0 3.04h2.1v-2.46h-2.1zm2.72-3.04h2.1v-2.45h-2.1zm0 3.04h2.1v-2.46h-2.1zm6.07 3.6c-1.41-.71-2.7-1.3-3.86-1.78l.35-.56c1.45.62 2.75 1.19 3.88 1.72zm-1.25-9.09h-2.1v2.45h2.1zm-2.09 5.49h2.1v-2.46h-2.1z" fill="#fbfcfa"/><g fill="#010100"><path d="m216.28 303.07c-.05-2.63 1.29-3.85 3.57-4.64 21.59-7.46 42.05-17.39 61.87-28.65 10.5-5.97 18.67-14.56 25.69-24.28.23-.32.37-.72.8-1.57-4.03.76-7.62 1.4-11.19 2.17-.51.11-1.02.74-1.32 1.25-3.45 5.91-8.91 9.5-14.62 12.86-21.17 12.44-43.81 20.74-68.22 23.74-33.78 4.15-67.07 2.49-99.19-9.92-6.5-2.51-12.69-5.8-18.99-8.82-1.01-.48-1.92-1.33-2.66-2.2-6.64-7.85-13.41-15.59-19.78-23.65-8.63-10.91-17.45-21.61-28.18-30.57-3.34-2.79-5.69-6.27-6.74-10.53-.32-1.29-.39-2.64-.58-4.04 7.72-1.85 15.08-1.16 22.31.62 5.74 1.42 11.34 3.42 17.02 5.1 8.57 2.53 12.92 9.34 13.44 17.16.83 12.28 8.58 18.95 17.48 24.48 18.99 11.81 40.19 17.13 62.32 18.96 20.31 1.67 40.42.43 60.29-4.3 16.8-3.99 31.87-11.59 46.38-20.87 13.57-8.68 26.12-18.45 37.16-30.13 4.25-4.5 8.99-8.14 15.03-9.52 7.29-1.66 9.35-6.9 9.69-13.31.66-12.41-2.58-24.13-6.75-35.64-.34-.94-1.16-1.75-1.87-2.52-2.52-2.72-5.33-5.22-7.59-8.13-7.15-9.21-17.27-13.36-27.87-16.68-13.92-4.35-27.96-3.4-42.14-1.15-21.14 3.35-41.04 11.1-61.56 16.6-18.77 5.03-35.98 13.62-53.52 21.55-1.12.51-2.07 1.44-3.02 2.27-14.8 12.92-31.6 22.2-50.16 28.61-8.31 2.87-15.32.64-22.26-3.42-6.95-4.07-13.83-8.24-20.71-12.42-5.87-3.56-8.49-8.99-6.91-14.65.26-.93 1.48-2.2 2.32-2.26 16.89-1.05 32.88-5.92 48.74-11.35 17.97-6.15 35.39-13.42 51.78-23.19 4.88-2.91 10.84-4.11 16.42-5.72 24.23-7 48.71-12.93 73.74-16.4 18.3-2.54 36.38-.98 54.32 2.71 13.82 2.84 27.39 6.64 39.98 13.23 20.05 10.49 32.69 27.12 39.44 48.44 2.43 7.68 4.8 15.5 3.87 23.66-.47 4.12-1.6 8.4-3.47 12.08-7.25 14.25-14.84 28.32-22.44 42.39-8.14 15.06-19.64 27.32-32.73 38.13-10.99 9.07-22.83 16.9-36.22 22.06-17.41 6.68-35.07 7.44-52.97 2.46z"/><path d="m109.86 195.39c7.55-.76 14.79-1.49 22.03-2.21 13.07-1.3 26.14-2.58 39.2-3.9.71-.07 1.55-.23 2.06-.67 6.54-5.5 14.81-6.53 22.61-8.66 24.4-6.66 48.84-13.15 73.27-19.69 7.82-2.09 16.8 6.52 15.09 14.38-.9 4.16-2.75 7.6-6.04 10.47-14.59 12.7-30.7 22.51-49.75 26.92-1.43.33-2.96.67-4.39.52-6.66-.69-12.68 1.14-18.67 3.88-5.95 2.72-12.03 5.31-18.27 7.25-16.78 5.21-32.64 2.06-47.72-6.23-7.24-3.98-14.41-8.08-21.59-12.15-5.19-2.95-5.64-3.54-7.83-9.91z"/></g></svg>