<svg enable-background="new 0 0 400 400" viewBox="0 0 400 400" xmlns="http://www.w3.org/2000/svg"><path d="m6.44 374.46.42-.45c.65.47 1.27.95 1.85 1.44l-.45.49c-.65-.56-1.25-1.06-1.82-1.48m.93 7.33-.63-.26c.55-1.36 1.05-2.8 1.52-4.33.19.1.38.19.59.27-.46 1.29-.95 2.73-1.48 4.32m-.38-10.38.44-.42c.43.34 1.01.82 1.74 1.44l-.49.49c-.53-.51-1.09-1.01-1.69-1.51m2.5.35h1.72v-1.04h.59v1.04h3.52v-1.04h.59v1.04h1.75v.53h-1.75v1.42h-2.03v.97h3.22v2.03h-3.24c0 .35-.01.66-.03.93h3.32v.53h-3.37c-.03.27-.08.58-.15.94h3.96v.53h-3.71c.67.92 1.93 1.48 3.79 1.68-.13.24-.23.44-.29.59-2.13-.38-3.48-1.08-4.04-2.12-.43.97-1.77 1.72-4.03 2.23-.09-.19-.2-.37-.33-.55 2.1-.42 3.37-1.03 3.81-1.83h-3.36v-.53h3.58c.08-.29.13-.61.16-.94h-3.33v-.53h3.39c.02-.27.04-.58.04-.93h-3.23v-2.03h3.25v-.97h-2.07v-1.42h-1.73zm1.12 3.44v1h2.65c.01-.3.02-.44.01-.4v-.25-.35zm1.19-2h3.52v-.91h-3.52zm4.71 2h-2.63v.59c0 .15-.01.28-.01.4h2.64z" fill="#fbfcfa"/><path d="m13.56 383.74h.63v1.52h2.72v6.07h1.13v.6h-11.06v-.6h1.13v-6.07h2.73v-1.52h.63v1.52h2.1v-1.52zm-2.69 8.83.38.56c-1.24.63-2.53 1.25-3.85 1.85-.1-.21-.21-.42-.34-.63 1.36-.55 2.63-1.15 3.81-1.78m-2.13-4.27h2.1v-2.45h-2.1zm0 3.04h2.1v-2.46h-2.1zm2.72-3.04h2.1v-2.45h-2.1zm0 3.04h2.1v-2.46h-2.1zm6.07 3.6c-1.41-.71-2.7-1.3-3.86-1.78l.35-.56c1.45.62 2.75 1.19 3.88 1.72zm-1.25-9.09h-2.1v2.45h2.1zm-2.09 5.49h2.1v-2.46h-2.1z" fill="#fbfcfa"/><g fill="#010100"><path d="m169.25 298.28c2.63-6.52 5.2-12.86 7.75-19.21.27-.68.65-1.4.66-2.1.08-8.2 4.08-15.25 6.62-22.72 2.97-8.71 6.7-17.21 6.79-26.64.02-1.69.08-3.42-.25-5.06-.23-1.15-1.09-2.18-1.74-3.41-11.01 9.74-23.91 13.32-37.41 14.75-5.01.53-10.28-.81-15.34-1.76-3.01-.57-5.29-.16-6.69 2.53-2.59 4.95-5.04 9.97-7.43 15.02-1.8 3.81-3.1 7.9-5.2 11.53-2.26 3.9-5.81 6.31-10.86 6.41 0-1.78-.41-3.47.07-4.85 1.78-5.16 3.9-10.2 5.79-15.33.91-2.46 1.87-4.97 2.28-7.53 1.96-12.02 3.7-24.07 5.58-36.11 1.58-10.09.55-19.89-3.48-29.27-.8-1.86-2.5-3.5-4.14-4.79-2.45-1.92-5.68-2.94-6.81-7.37 2.82 0 5.41-.39 7.82.09 3.72.74 7.55 1.62 10.9 3.31 2.72 1.37 5 3.83 7.09 6.16 1.89 2.11 3.67 2.53 6.36 1.77 5.81-1.63 11.71-2.94 17.59-4.27 2.71-.61 5.92-1.53 5.73-4.45-.16-2.58-1.9-5.62-3.88-7.41-3.08-2.79-6.2-5.35-8.32-10.37 3.75.33 7 .03 9.82 1.01 4.68 1.62 9.11 3.97 13.55 6.21.84.43 1.35 1.7 1.81 2.68 1.77 3.79 3.59 7.58 5.14 11.46 1.72 4.3 3.62 8.61 4.61 13.11 1.45 6.62 5.67 11.45 9.82 17.63 1.16-6.08 2.33-11.27 3.11-16.53 1.4-9.43 2.44-18.91 3.87-28.33 1.83-12.15 9.75-20.09 19.27-26.73 4.17-2.9 8.67-5.31 12.92-8.11 4.31-2.84 6.32-6.94 6.22-12.16-.04-1.83-.76-3.03-2.46-3-2.7.04-5.51.07-8.07.83-15.5 4.59-30.18 11.07-43.95 19.57-5.95 3.67-12.56 4.83-19.27 3.25-4.44-1.05-8.76-3.07-11.44-8.34 2.22-.42 4.1-.72 5.95-1.13 3.16-.68 6.52-.93 9.41-2.23 11.1-4.98 22.05-10.31 33.51-15.73-4.93-2.78-9.52-5.3-14.04-7.94-5.21-3.04-10.37-6.16-15.52-9.31-3.38-2.06-4.64-1.88-7.52.57-12 10.22-24.74 19.36-39.99 24.12-3.86 1.21-8.12 1.29-12.22 1.5-1.2.06-3.05-.94-3.59-1.98-.93-1.79-.18-3.35 1.8-4.66 13.94-9.25 26.69-19.96 37.37-32.85 4-4.83 6.78-10.68 10.06-16.09.81-1.34.55-2.44-.34-3.96-.92-1.57-1.17-4.1-.55-5.78.38-1.03 2.92-1.56 4.55-1.76 4.01-.49 6.33 1.33 8.19 5.14 1.54 3.15 4.58 5.65 7.26 8.12 1.69 1.55 2.92 3.03 2.63 5.38-.74 5.97 2.05 10.17 5.89 14.57 7.2 8.26 15.97 14.53 24.47 21.17.82.64 2.64.61 3.74.21 9.04-3.3 18.31-3.24 27.61-1.84 2.88.43 5.8 1.41 8.41 2.72 3.83 1.93 6.05 7.28 4.81 11.86-1.23 4.57-3.01 9.01-4.77 13.42-.42 1.05-1.6 1.91-2.62 2.57-7.98 5.22-16.07 10.28-23.99 15.59-4.03 2.71-7.77 5.85-10.05 10.87 5.13 1.42 9.99 2.77 14.84 4.12 6.94 1.93 13.9 3.76 20.79 5.85 2 .6 3.08.14 4.25-1.44 3.31-4.46 5.04-9.51 5.92-14.91.75-4.6 1.39-9.22 2.26-13.8.41-2.19.01-3.84-1.67-5.36-1.48-1.34-2.71-2.95-4.06-4.44 2.04-2.49 4.57-2.6 7-1.49 2.38 1.08 4.59 2.6 6.75 4.09 2.62 1.8 4.92 4.14 7.7 5.61 5.37 2.83 5.91 7.39 4.26 12.16-2.55 7.37-5.77 14.51-8.8 21.71-.94 2.23-2.18 4.34-3.35 6.62 3.7 2.96 7.33 5.82 10.92 8.73 3.31 2.69 4.44 6.18 3.22 10.22-.25.83-1.65 1.82-2.56 1.87-3.09.14-5.76-.58-8.31-2.94-3.2-2.96-7.21-5.06-11.14-7.71-2.52 4.29-4.75 8.09-7.2 12.26 5.7 2.88 11.26 5.61 16.74 8.51 2.79 1.48 5.56 3.08 8.07 4.99 2.98 2.27 4.62 5.47 4.95 9.27.29 3.36-1.04 4.57-4.35 3.61-1.46-.43-2.88-1.29-4.09-2.24-7-5.52-14.7-9.5-23.38-11.74-4.07-1.05-6.84-.29-9.63 3.05-5.27 6.31-5.39 7.39 2.02 10.59 8.84 3.82 17.88 7.15 26.78 10.83 6.8 2.81 12.88 6.61 15.72 13.9.57 1.47.49 3.19.71 4.79-1.84.13-3.86.81-5.49.29-4.68-1.5-9.6-2.54-13.17-6.53-1.28-1.43-3.3-2.31-5.14-3.1-17.89-7.71-35.8-15.36-53.71-23.02-.38-.16-.79-.26-1.46-.48-.78 4.04-1.63 7.93-2.19 11.87-.12.84.62 2.12 1.36 2.7 5.11 3.95 11.24 5.21 17.42 6.36 2.07.39 4.1 1.02 6.12 1.66 6.79 2.17 10.53 6.99 12.19 13.79.72 2.96 1.65 5.95 3.05 8.64 1.84 3.55 3.82 3.58 6.32.59 1.5-1.79 2.85-3.73 4.51-5.35 2.45-2.38 3.12-4.92 2.19-8.28-.98-3.56.25-4.62 3.79-3.5 6.12 1.93 11.26 5.34 14.91 10.74 2.11 3.11 1.07 7.34-2.85 10.56-6.66 5.48-12.63 12.08-21.79 13.65 1.19 4.65 2.64 8.85 3.32 13.17 3.36 21.23 6.53 42.5 9.7 63.76.29 1.96.27 4.03.01 6-.31 2.35-2.19 3.55-4.33 3.33-1.07-.11-2.13-1.55-2.94-2.59-.55-.71-.83-1.75-.9-2.67-.8-10.7-5.77-20.08-9.49-29.83-5.13-13.45-10.54-26.8-15.73-40.23-.89-2.31-2.32-3.59-4.54-2.5-6.06 2.97-12.29.88-18.45 1.1-6.09.22-10.85-2.09-14.74-6.6-.48-.56-1.08-1.03-1.67-1.46-4.36-3.17-5.64-2.9-7.96 1.8-1.5 3.04-2.81 6.17-4.4 9.16-.93 1.76-2.07 3.48-3.41 4.95-3.1 3.41-4.61 3.59-9.78 1.29zm36.15-60.61c-3.45 8.07-6.73 15.61-9.88 23.21-.64 1.54-1.29 3.34-1.07 4.89.25 1.76 1.08 4.38 2.35 4.9 7.93 3.22 16.3 4.66 24.86 3.74 5.88-.63 6.73-1.96 5.01-7.62-3.22-10.58-9.31-19.38-17.58-26.67-.94-.83-2.1-1.41-3.69-2.45zm7.16-76.49c-.63 2.89-1.53 5.71-1.79 8.6-.38 4.07 2.97 9.95 6.07 11.17 5.1 2 10.16 4.17 15.39 5.79 8.14 2.52 10.83.14 13.77-7.67 1.83-4.84 1.27-6.06-3.66-8.01-9.01-3.57-18.26-6.51-27.43-9.68-.57-.21-1.23-.12-2.35-.2zm-28.12 50.37c-1.76-3.26-2.83-5.77-4.37-7.94-2.22-3.13-4.32-3.56-7.96-2.24-5.86 2.12-11.75 4.14-17.56 6.4-4.41 1.72-8.73 2.86-13.57 1.75-1.36-.31-4.12.72-4.49 1.75-1.01 2.82-1.31 5.97-1.45 9.01-.08 1.77.5 3.57 3.25 2.87 15.02-3.82 30.06-7.56 46.15-11.6zm27.32-25.03c-.64 6.43-1.36 12.28-1.72 18.15-.08 1.23.84 3.24 1.83 3.68 3.74 1.65 7.62 3.31 11.61 3.99 3.82.65 7.3-.77 8.97-4.92.71-1.76 1.56-3.51 2.65-5.06 1.21-1.72.79-2.94-.65-4.05-6.59-5.08-13.83-8.92-22.69-11.79zm-75.32 12.52c11.77-3.67 23.3-7.27 34.83-10.87-1.97-5.97-4.36-7.25-9.81-5.66-3.04.89-6.14 1.55-9.17 2.44-4.75 1.4-9.49 2.81-14.16 4.44-.98.34-2.23 1.6-2.29 2.51-.14 2.26.34 4.55.6 7.14z"/><path d="m212.34 93.4c-1.62-2.03-1.29-3.97-.18-5.96 1.56-2.76 3.35-5.42 4.59-8.32 5.38-12.61 8.88-25.58 6.95-39.5-.2-1.45-.27-2.92-.45-4.91 5.24 2.57 10.17 4.74 14.81 7.42 1.31.76 2.12 2.91 2.54 4.57 1.81 7.23 6.36 11.12 13.62 12.5 2.62.5 5.11 1.99 7.51 3.29 7.44 4.04 14.83 8.16 22.18 12.35 2.74 1.56 4.49 3.84 3.75 7.53-.77-.07-1.48-.05-2.14-.22-14.06-3.54-28.13-7.05-42.15-10.72-2.28-.6-4.35-1.98-6.79-3.13-6.52 9.49-11.36 21.19-24.24 25.1z"/></g></svg>