<svg enable-background="new 0 0 400 400" viewBox="0 0 400 400" xmlns="http://www.w3.org/2000/svg"><path d="m105.54 36.27c1.69-.22 3.67-1.13 5.02-.55 9.52 4.07 19.04 8.19 28.29 12.84 5.11 2.57 4.68 3.07 3.83 8.58-.65 4.18-2.54 7.35-5.34 10.46-12.8 14.18-23.29 29.87-30.53 47.67-2.02 4.98-4.95 9.58-7.27 14.44-1.49 3.13-2.69 6.41-3.93 9.66-.61 1.6-.02 2.69 1.55 3.61 6.35 3.73 13.2 5.66 20.5 6.17 1.85.13 3.08-.56 4.06-2.31 4.75-8.51 9.81-16.85 14.45-25.42 6.77-12.53 14.78-24.18 23.43-35.49 3.76-4.91 6.46-10.67 9.31-16.21 1.77-3.44 1.89-6.78-1.19-10.17-3.92-4.32-3.63-8.85-.09-13.62 1.35-1.82 7.86-1.88 9.91-.23 5.94 4.77 11.95 9.46 17.9 14.21 2.48 1.98 5.07 3.87 7.32 6.09 4.87 4.81 5.23 10.63 1.38 16.34-10.63 15.75-21.85 30.97-35.84 44.01-7.41 6.91-13.06 15.24-17.39 25.17 3.54.63 6.79 1.47 10.09 1.75 16.31 1.39 32.61.66 48.04-4.85 10.72-3.83 20.5-10.06 27.52-19.62 5.45-7.42 10.6-15.07 17.64-21.2 1.61-1.41 2.9-3.43 3.73-5.43 1.04-2.52 1.08-4.95-1.84-6.88-1.51-.99-2.19-3.24-3.48-5.29 6.82-1.68 12 .26 16.59 3.67 2.87 2.13 5.35 4.83 7.75 7.5 4.6 5.13 4.9 12.1.98 17.79-4.63 6.72-9.16 13.51-13.96 20.11-1.15 1.58-3 2.98-4.82 3.68-2.77 1.06-5.01 2.38-6.64 4.97-9.31 14.79-23.76 21.75-40.13 24.85-6.64 1.26-13.72.28-20.6.1-10.38-.27-20.76-.59-31.12-1.18-6.02-.34-12.01-1.21-18-1.96-1.72-.21-2.69.18-3.51 1.8-2.14 4.25-4.53 8.38-6.77 12.59-1.45 2.72-.31 6.37 2.43 7.85 6.24 3.37 12.87 4.31 19.71 2.59 14.63-3.67 29.56-5.45 44.46-7.51 6.58-.91 13.02-2.83 19.59-3.94 11.42-1.93 22.77-1.27 34.08 1.3 3.32.75 6.89.31 10.33.58 6.58.52 12.54 2.96 18.15 6.28 3.7 2.19 6.33 5.26 7.01 9.71.3 2-.14 3.11-2.42 3.5-7.13 1.23-14.09.11-21.16-.68-5.26-.59-10.72 0-16.02.63-9.27 1.1-18.49 2.28-27.85.83-3-.46-6.23-.54-8.63 2.05-1.29 1.39-2.01 2.56-.27 4.54 1.58 1.81 2.26 4.41 3.31 6.68 1.66 3.59 2.79 7.55 5.03 10.73 5.42 7.7 11.63 14.86 16.98 22.6 4.66 6.73 5.66 14.71 5.94 22.75.11 3.28.44 6.55.69 10.13 5.44.94 10.83 1.87 16.22 2.81 1.04.18 2.26.09 3.1.61 5.83 3.66 12.6 3.13 18.94 4.55 10.24 2.3 20.03 5.67 27.09 14.11 1.68 2 3.02 4.29 4.6 6.57-4.74 4.53-10.06 5.22-15.82 3.71-2.86-.75-5.66-1.76-8.44-2.81-13.31-5.01-27.3-5.72-41.26-6.43-19.09-.97-37.9 2.01-56.47 5.69-13.75 2.72-27.09 7.48-40.66 11.15-2.22.6-4.75.59-7.05.25-13.12-1.91-24.74-7.78-36.17-14.08-1.08-.6-2.21-1.13-3.66-1.86-1.84 7.74-3.62 15.12-5.35 22.5-2.45 10.41-5 20.8-7.21 31.25-.66 3.12-1.94 4.33-5.02 3.84-1.02-.16-2.09-.03-3.85-.03-.48-6.2-1.51-12.21-1.29-18.17.48-13.01 1.58-26 2.46-39 .91-13.54 1.89-27.07 2.76-40.61.99-15.31 4.32-30.18 8.48-44.87 5.57-19.66 11.28-39.27 17.06-58.86.66-2.23.52-3.38-1.69-4.47-4.46-2.2-8.81-4.64-13.13-7.11-12.45-7.09-14.43-13.52-10.44-27.62 1.52-5.38 3.91-10.76 4.1-16.2.28-7.84 3.73-14.18 7.05-20.73 3.73-7.36 7.99-14.48 11.42-21.98 1.95-4.26 2.97-9.01 3.95-13.63.77-3.63.03-7.09-2.98-9.84-1.86-1.7-3.39-3.76-5.07-5.66.08-.45.11-.9.13-1.35zm23.09 158.32c-.32-.03-.64-.06-.96-.09-1.41 3.51-3.03 6.94-4.18 10.53-2.6 8.14-4.94 16.36-7.44 24.53-1.33 4.33-3.41 8.54-4.03 12.97-2.33 16.56-4.22 33.19-6.25 49.8-.79 6.45-.64 6.68 5.9 7.8 10.28 1.75 20.47.56 30.63-1.08 7.75-1.25 15.37-2.98 22.34-6.85 2.04-1.13 2.87-2.66 3.32-4.95 1.32-6.73 2.75-13.46 4.61-20.05 3.88-13.73 8.09-27.37 12.11-41.06 1.41-4.82.66-9.37-2.08-13.69-5.1 1-10.1 1.82-15.02 2.99-2.85.68-5.76 1.58-8.31 2.99-2.55 1.4-5.09 1.99-7.57.84-3.02-1.4-6.14-3-8.52-5.24-5.93-5.61-11.53-11.57-14.55-19.44zm80.9 47.53c-8.27 13.09-16.02 25.34-23.73 37.61-.84 1.34-1.52 2.8-2.12 4.26-1.48 3.61.65 6.2 4.49 5.83 5.58-.54 11.2-.74 16.77-1.33 5.55-.59 11.14-1.13 16.56-2.38 4.75-1.09 5.42-2.26 4.96-6.96-1.07-11.12-4.43-21.55-10.67-30.88-1.45-2.19-3.8-3.79-6.26-6.15z" fill="#010103"/><g fill="#fcfbfa"><path d="m5.17 384 .55-.58c.85.61 1.65 1.24 2.4 1.87l-.59.64c-.83-.73-1.62-1.38-2.36-1.93m1.22 9.53-.82-.34c.71-1.76 1.37-3.64 1.98-5.63.24.13.5.25.76.36-.6 1.67-1.24 3.54-1.92 5.61m-.5-13.5.57-.54c.56.44 1.31 1.06 2.26 1.87l-.64.64c-.68-.66-1.41-1.32-2.19-1.97m3.25.46h2.24v-1.36h.77v1.36h4.57v-1.36h.76v1.36h2.28v.69h-2.28v1.84h-2.64v1.26h4.18v2.64h-4.21c0 .45-.02.86-.05 1.21h4.32v.69h-4.38c-.04.34-.1.75-.19 1.22h5.15v.69h-4.82c.87 1.19 2.51 1.92 4.93 2.19-.17.31-.3.57-.37.76-2.77-.49-4.52-1.41-5.26-2.76-.56 1.26-2.3 2.23-5.24 2.9-.12-.24-.26-.48-.43-.72 2.73-.55 4.38-1.34 4.96-2.38h-4.38v-.69h4.65c.1-.38.17-.79.21-1.22h-4.32v-.69h4.4c.03-.34.05-.75.05-1.21h-4.2v-2.64h4.23v-1.26h-2.69v-1.84h-2.24zm1.46 4.46v1.29h3.45c.01-.4.02-.57.01-.53v-.32-.45h-3.46zm1.55-2.59h4.57v-1.19h-4.57zm6.11 2.59h-3.42v.77c-.01.19-.01.37-.02.53h3.44z"/><path d="m32.63 379.16h.82v1.98h3.54v7.89h1.46v.78h-14.37v-.78h1.46v-7.89h3.54v-1.98h.82v1.98h2.73zm-3.49 11.48.5.73c-1.61.82-3.28 1.63-5 2.41-.13-.27-.28-.55-.44-.82 1.75-.72 3.4-1.49 4.94-2.32m-2.78-5.55h2.73v-3.18h-2.73zm0 3.95h2.73v-3.2h-2.73zm3.54-3.95h2.73v-3.18h-2.73zm0 3.95h2.73v-3.2h-2.73zm7.89 4.68c-1.84-.92-3.51-1.7-5.02-2.32l.45-.73c1.89.8 3.57 1.55 5.04 2.23zm-1.62-11.81h-2.73v3.18h2.73zm-2.73 7.13h2.73v-3.2h-2.73z"/></g></svg>