<svg enable-background="new 0 0 400 400" viewBox="0 0 400 400" xmlns="http://www.w3.org/2000/svg"><path d="m6.44 374.46.42-.45c.65.47 1.27.95 1.85 1.44l-.45.49c-.65-.56-1.25-1.06-1.82-1.48m.93 7.33-.63-.26c.55-1.36 1.05-2.8 1.52-4.33.19.1.38.19.59.27-.46 1.29-.95 2.73-1.48 4.32m-.38-10.38.44-.42c.43.34 1.01.82 1.74 1.44l-.49.49c-.53-.51-1.09-1.01-1.69-1.51m2.5.35h1.72v-1.04h.59v1.04h3.52v-1.04h.59v1.04h1.75v.53h-1.75v1.42h-2.03v.97h3.22v2.03h-3.24c0 .35-.01.66-.03.93h3.32v.53h-3.37c-.03.27-.08.58-.15.94h3.96v.53h-3.71c.67.92 1.93 1.48 3.79 1.68-.13.24-.23.44-.29.59-2.13-.38-3.48-1.08-4.04-2.12-.43.97-1.77 1.72-4.03 2.23-.09-.19-.2-.37-.33-.55 2.1-.42 3.37-1.03 3.81-1.83h-3.36v-.53h3.58c.08-.29.13-.61.16-.94h-3.33v-.53h3.39c.02-.27.04-.58.04-.93h-3.23v-2.03h3.25v-.97h-2.07v-1.42h-1.73zm1.12 3.44v1h2.65c.01-.3.02-.44.01-.4v-.25-.35zm1.19-2h3.52v-.91h-3.52zm4.71 2h-2.63v.59c0 .15-.01.28-.01.4h2.64z" fill="#fbfcfa"/><path d="m13.56 383.74h.63v1.52h2.72v6.07h1.13v.6h-11.06v-.6h1.13v-6.07h2.73v-1.52h.63v1.52h2.1v-1.52zm-2.69 8.83.38.56c-1.24.63-2.53 1.25-3.85 1.85-.1-.21-.21-.42-.34-.63 1.36-.55 2.63-1.15 3.81-1.78m-2.13-4.27h2.1v-2.45h-2.1zm0 3.04h2.1v-2.46h-2.1zm2.72-3.04h2.1v-2.45h-2.1zm0 3.04h2.1v-2.46h-2.1zm6.07 3.6c-1.41-.71-2.7-1.3-3.86-1.78l.35-.56c1.45.62 2.75 1.19 3.88 1.72zm-1.25-9.09h-2.1v2.45h2.1zm-2.09 5.49h2.1v-2.46h-2.1z" fill="#fbfcfa"/><g fill="#010100"><path d="m168.01 145.19c3.12.45 5.67.23 7.64 1.19 13.24 6.49 27.47 6.51 41.66 6.64 6.66.06 8.51-2.42 6.38-8.8-2.41-7.21-4.89-14.57-8.72-21.06-2.4-4.08-6.99-7.14-12.34-8.01-1.08-.18-2.72-1.22-2.87-2.07-.81-4.78-1.37-9.62-1.67-14.46-.06-.88 1.31-2.04 2.25-2.76 10.32-7.79 20.8-15.38 31.02-23.31 7.45-5.78 12.29-13.12 11.73-23.09-.14-2.56-.43-4.9-2.98-6.51-2.8-1.77-2.34-4.69-2.03-7.48 17.61 2.78 29.36 20.97 24.69 38.04-.16.6-.41 1.23-.79 1.7-6.7 8.32-12.76 17.2-21.74 23.46-2.82 1.97-5.13 4.72-7.53 7.24-1.64 1.71-1.8 3.72-1.35 6.16 2.25 12.12 5.61 23.89 10.42 35.25.44 1.05.85 2.12 1.5 3.74 8.73-2.39 17.26-4.82 25.83-7.06 8.69-2.27 17.42-4.41 26.16-6.5 2.15-.51 4.75-1.05 5.62 1.87.77 2.6.11 4.7-2.74 6.22-7.66 4.08-15.13 8.53-22.68 12.83-3.67 2.09-4.14 4.4-1.47 7.81 1.83 2.34 3.63 4.72 5.71 6.83 2.22 2.26 2.94 4.89 3.4 7.91.83 5.53 2.24 10.96 3.13 16.48.94 5.83 1.78 11.7 2.29 17.58 1.13 13.1 2.04 26.21 3 39.32.25 3.47-1.84 4.96-5.18 3.82-2.43-.83-4.33-2.21-5.03-4.83-1.06-3.99-2.12-7.98-3.17-11.97-.38-1.43-.65-2.89-1.09-4.31-2.65-8.55-6.31-9.77-14.11-5.36-3.99 2.25-8.45 3.66-12.66 5.52-1.82.8-3.8 1.49-5.28 2.73-1.75 1.46-2.04 3.29.2 5.01 12.87 9.87 25.64 19.88 38.58 29.66 3.36 2.54 7.27 4.34 10.88 6.56 3.45 2.11 6.58 4.54 7.74 8.87-5.29 1.92-10.14.92-14.93-1.06-14.46-5.96-27.68-14.24-40.94-22.37-3.15-1.93-5.49-5.26-8.01-8.11-1.28-1.45-2.41-1.8-4.04-.79-.62.39-1.4.53-2.01.93-5.51 3.56-6.29 5.58-2.08 9.69 4.19 4.09 5.29 9.42 4.71 15.24-.54 5.33-.88 10.69-.89 16.05-.01 3.29 2.02 5.78 5.41 6 6.09.41 12.21.45 18.31.48 4.53.02 9.07-.47 13.59-.26 3.46.16 6.42 1.92 8.91 4.78-3.87 3.43-8.41 5.19-13.2 5.99-10.02 1.68-20.09 3.09-30.17 4.42-2.67.35-4 1.37-4.73 4.03-2.18 7.96-4.62 15.85-7.02 23.75-2.11 6.93-7.38 11.53-12.49 16.1-1.25 1.12-3.77 1.3-5.65 1.14-2.5-.21-4.97-1.04-7.37-1.86-.97-.33-1.99-1.18-2.49-2.08-2.75-4.9-2.66-4.9 1.21-9.1 5.47-5.95 10.78-12.08 13.42-19.87 1.3-3.85 1.82-7.97 2.77-12.3-3.14-.69-5.67-1.43-8.25-1.78-8.77-1.19-16.66-4.85-24.3-8.96-4.66-2.5-8.86-3.11-13.65-.65-2.52 1.29-5.36 1.98-8.09 2.82-2.82.87-4.47-.48-3.77-3.35.37-1.52 1.39-3.09 2.54-4.18 10.82-10.17 22.04-19.93 32.51-30.43 8.42-8.45 15.97-17.76 24.47-27.33-6.93-1.78-12.79-3.35-18.71-4.71-.62-.14-1.96.77-2.23 1.47-7.09 19.09-21.4 32.87-34.87 47.23-1.3 1.39-3.64 1.96-5.62 2.49-.8.22-2.5-.46-2.74-1.11-.58-1.61-1.18-3.66-.65-5.13 1.28-3.52 3.21-6.79 4.86-10.18 3.88-7.98 7.54-16.07 11.66-23.93 6.16-11.75 12.34-23.52 14.36-36.8.88-5.82.6-11.81.87-17.73.32-6.82-.29-13.52-2.09-20.14-.98-3.6 1.06-5.61 4.43-4.1 8.94 4 17.48 8.66 21.64 18.34.77 1.79 1.7 2.55 3.82 2.23 3.98-.59 8-.98 12.02-1.14 2.74-.11 4.32-1.38 5.2-3.8 2.06-5.62.7-11.09-.89-16.49-.19-.63-1.88-1.09-2.9-1.16-8.56-.57-17.13-1.15-25.71-1.47-3.66-.14-7.06-.93-9.64-3.44-6.6-6.41-13.01-13.02-19.47-19.58-.44-.41-.63-1.04-1.51-2.65zm99.14 46.97c-.52-7.13-.47-13.91-1.65-20.47-1.34-7.5-6.24-9.25-13.64-7.15-6.05 1.72-8.78 4.77-7.99 11.03.51 4.04.58 8.15 1.31 12.15.22 1.17 1.94 2.8 3.13 2.94 5.96.7 11.96.99 18.84 1.5zm-52.4 84.7c-8.18 6.42-15.66 12.28-23.14 18.14-.33.26-.7.48-1 .78-1.47 1.46-.79 3.16.62 3.49 6.45 1.53 12.94 3.07 19.51 3.86 3.81.46 5.64-1.47 6.14-5.24.52-3.96.94-8.01.64-11.97-.23-2.91-1.7-5.71-2.77-9.06zm-11.43-49.27c5.44 0 10.41.26 15.34-.1 2.88-.21 5.81-1.09 8.49-2.22 3.96-1.67 5.54-8.52 2.84-11.92-.91-1.14-2.64-2.56-3.81-2.42-6.58.81-13.11 1.97-19.62 3.25-.91.18-2.11 1.55-2.25 2.51-.54 3.44-.67 6.93-.99 10.9zm40.58-12.54c.71 1.95 1.28 3.96 2.19 5.81.33.68 1.52 1.5 2.18 1.39 6.77-1.09 13.52-2.28 20.23-3.68.87-.18 2.26-1.97 2.06-2.5-1.3-3.49-2.88-6.89-4.62-10.19-.37-.7-1.85-1.33-2.69-1.2-4.48.71-8.97 1.47-13.36 2.6-4.36 1.14-5.52 3.03-5.99 7.77z"/><path d="m92.24 281.56c.74-1.13 1.3-2.42 2.24-3.35 5.1-5.09 10.21-10.19 15.48-15.1 10.61-9.89 16.9-22.7 23.94-35.01.48-.84.37-2.28.04-3.28-5.13-15.47-10.3-30.94-15.6-46.35-.41-1.2-1.68-2.45-2.87-2.98-3.86-1.73-7.9-3.04-11.79-4.68-4.19-1.76-6.72-4.95-7.6-9.8 2.41-.5 4.73-1.2 7.09-1.41 5.55-.48 10.34-2.84 15.08-5.5 4.52-2.54 9.15-4.89 13.69-7.41 3.84-2.13 7.79-3.2 12.16-1.99.7.19 1.48.21 2.21.17 12.62-.66 18.48 7.56 22.71 17.59 3.21 7.59 2.59 15.53 1.35 23.48-2.17 13.9-6.91 26.77-14.55 38.63-7 10.86-13.32 22.18-20.69 32.78-4.49 6.45-10.39 11.93-15.69 17.81-.55.61-1.28 1.26-2.04 1.44-8.09 2.01-16.2 3.94-24.31 5.89-.29-.31-.57-.62-.85-.93zm55.78-81.26c.73-.88 1.68-1.6 2.06-2.55 3.78-9.42 6.07-19.18 5.81-29.38-.15-6.03-3.02-10.72-8.22-13.84-.8-.48-2.25-.91-2.85-.52-5.38 3.49-10.64 7.17-15.36 10.4 6.27 12.12 12.32 23.81 18.56 35.89z"/><path d="m107.8 134.04c8.04-5.36 16.14-10.55 24-16.08 8.05-5.66 16.25-11.21 22.49-19.02 4.83-6.05 7.74-12.8 7.65-20.71-.04-3.04-1.72-3.71-4.09-3.16-1.82.43-3.52 1.4-5.22 2.23-8.84 4.31-17.64 8.71-26.52 12.95-3.9 1.87-8.01 1.9-12.07.42-5.91-2.16-12.37-3.21-16.9-8.21-.4-.44-.78-.88-1.47-1.64.91-.1 1.4-.24 1.88-.2 8.74.65 16.6-2.17 24.39-5.74 7.98-3.65 16.13-6.94 24.28-10.21 1.78-.71 3.86-.98 5.79-.93 4.34.1 8.66.58 13 .82 7.43.41 13.08 4.94 14.24 12.39 1.54 9.84.56 19.27-5.02 28.07-7.92 12.48-19.72 19.82-32.6 25.84-8.91 4.17-18.4 6.12-28.24 6.76-3.24.22-5-.54-5.59-3.58z"/></g></svg>