<svg enable-background="new 0 0 400 400" viewBox="0 0 400 400" xmlns="http://www.w3.org/2000/svg"><path d="m6.44 374.46.42-.45c.65.47 1.27.95 1.85 1.44l-.45.49c-.65-.56-1.25-1.06-1.82-1.48m.93 7.33-.63-.26c.55-1.36 1.05-2.8 1.52-4.33.19.1.38.19.59.27-.46 1.29-.95 2.73-1.48 4.32m-.38-10.38.44-.42c.43.34 1.01.82 1.74 1.44l-.49.49c-.53-.51-1.09-1.01-1.69-1.51m2.5.35h1.72v-1.04h.59v1.04h3.52v-1.04h.59v1.04h1.75v.53h-1.75v1.42h-2.03v.97h3.22v2.03h-3.24c0 .35-.01.66-.03.93h3.32v.53h-3.37c-.03.27-.08.58-.15.94h3.96v.53h-3.71c.67.92 1.93 1.48 3.79 1.68-.13.24-.23.44-.29.59-2.13-.38-3.48-1.08-4.04-2.12-.43.97-1.77 1.72-4.03 2.23-.09-.19-.2-.37-.33-.55 2.1-.42 3.37-1.03 3.81-1.83h-3.36v-.53h3.58c.08-.29.13-.61.16-.94h-3.33v-.53h3.39c.02-.27.04-.58.04-.93h-3.23v-2.03h3.25v-.97h-2.07v-1.42h-1.73zm1.12 3.44v1h2.65c.01-.3.02-.44.01-.4v-.25-.35zm1.19-2h3.52v-.91h-3.52zm4.71 2h-2.63v.59c0 .15-.01.28-.01.4h2.64z" fill="#fbfcfa"/><path d="m13.56 383.74h.63v1.52h2.72v6.07h1.13v.6h-11.06v-.6h1.13v-6.07h2.73v-1.52h.63v1.52h2.1v-1.52zm-2.69 8.83.38.56c-1.24.63-2.53 1.25-3.85 1.85-.1-.21-.21-.42-.34-.63 1.36-.55 2.63-1.15 3.81-1.78m-2.13-4.27h2.1v-2.45h-2.1zm0 3.04h2.1v-2.46h-2.1zm2.72-3.04h2.1v-2.45h-2.1zm0 3.04h2.1v-2.46h-2.1zm6.07 3.6c-1.41-.71-2.7-1.3-3.86-1.78l.35-.56c1.45.62 2.75 1.19 3.88 1.72zm-1.25-9.09h-2.1v2.45h2.1zm-2.09 5.49h2.1v-2.46h-2.1z" fill="#fbfcfa"/><g fill="#010100"><path d="m148.94 349.2c3.88 0 7.76-.11 11.63.02 26.73.87 52.33-5.39 77.88-12.12 4.35-1.15 7.08-3.27 8.45-7.78 1.8-5.93 4.34-11.64 6.65-17.69-6.51-1.35-12.56-.54-18.58.77-2.89.63-5.74 1.53-8.66 1.99-5.85.93-11.08-.73-16.27-4.53 1.28-.62 2.2-1.2 3.21-1.53 8.06-2.56 16.12-5.14 24.22-7.59 6.42-1.94 12.71-4.09 17.96-8.49 1.99-1.67 3.21-3.39 2.35-6.26-.79-2.62-1.21-5.39-1.47-8.12-.4-4.3-4.09-6.48-6.16-9.65-1.45-2.22-6.12-.6-6.97 2.05-2.2 6.89-4.72 13.64-9.35 19.33-1.09 1.34-2.52 2.67-4.08 3.33-7.4 3.11-13.72 7.74-20.14 12.5-4.54 3.37-10.25 5.51-15.76 7.12-9.13 2.66-18.47 4.67-27.82 6.46-3.18.61-6.67-.15-9.98-.57-2.51-.32-2.2-2.63-2.12-4.29.05-.97.86-2.35 1.71-2.77 11.31-5.52 22.61-11.1 34.08-16.27 10.55-4.75 19.52-11.42 26.88-20.31.65-.79 1.23-1.64 2.03-2.71-4.57-2.04-8.86-1.65-13.27-.74-5.24 1.08-10.51 2.32-15.83 2.68-7.91.53-16.08-7.95-16.93-15.07-.92-7.78-1.36-15.61-2-23.38 3.72-2.21 4.03-2.43 1.59-5.97-6.49-9.42-13.85-17.96-25.38-21.5-.39-.12-.82-.13-1.51-.24-.88 4.73-1.57 9.42-2.65 14.02-1.59 6.78-3.46 13.5-5.22 20.24-2.13 8.18-4.12 16.39-6.41 24.52-3.39 12.03-7.86 23.63-17.04 32.54-8.27 8.03-18.65 9.34-29.61 7.93-.3-.04-.73-.1-.87-.3-3.35-5.02-8.54-9.03-8.5-15.9.01-2.04.73-3.27 2.75-3.49 2.72-.3 5.48-.78 8.18-.62 5.1.3 8.99-1.61 12.28-5.38 10.85-12.45 16.71-27.37 21.32-42.9 3.03-10.18 5.01-20.55 5.2-32.02-6.11 3.69-12.92 4.54-17.56 10.26-6.57 8.1-15.78 12.7-25.28 16.51-6.33 2.54-12.85 4.61-19.32 6.9-1.18-3.83-.29-5.96 2.4-8 11.91-9.03 23.64-18.29 35.44-27.47.33-.26.77-.45 1-.78 3.93-5.5 8.51-10.34 13.62-14.82 2.84-2.49 2.04-5.37-.97-7.62-11.36-8.53-22.63-17.18-34.12-25.52-4.44-3.22-9.35-5.81-14.13-8.55-.79-.45-2.07-.51-2.97-.24-4.75 1.43-9.51 2.88-14.16 4.61-6.48 2.41-11.51 1.54-17.22-3.77 5.44-3.64 10.55-7.51 16.09-10.63 5.51-3.11 11.38-5.63 17.22-8.11 13.38-5.7 24.65-13.97 34.38-24.94 7.3-8.23 12.71-16.9 14.77-27.75 1.03-5.42 3.38-6.29 8.09-3.19 6.82 4.49 12.31 10.43 16.36 17.49 2.88 5.01 1.34 12.87-2.73 17.14-3.11 3.26-3.28 4.99-.42 8.51 4.24 5.24 5.92 11.37 6.72 17.88.7 5.7 2.35 11.1 5.42 16.41 3.73-6.91 7.37-13.49 10.78-20.17.53-1.04.14-2.65-.05-3.96-.63-4.38-1.88-8.8 1.52-13.06 5.93 1.96 11.94 3.88 17.88 5.99.79.28 1.39 1.51 1.77 2.43 2.31 5.54 1.52 11.23.63 16.91-.1.63-.28 1.24-.35 1.87-.82 7.51-.05 8.07 7.22 9.71 9.15 2.07 18.13.54 27.17-.27 7.81-.7 15.61-1.53 23.41-2.26 3.6-.33 5.92-3.25 4.9-6.74-.55-1.87-1.5-3.77-2.73-5.28-7.32-8.94-14.97-17.62-22.09-26.72-2.9-3.7-6.37-5.07-10.63-5.01-3.37.05-6.75.48-10.1.94-7.46 1.02-12.6-1.72-16.01-8.87 4.7-3.49 10.19-4.93 15.86-5.56 6.31-.7 12.69-1.48 19.01-1.24 11.47.44 22.16-3.12 33.08-5.5 19.03-4.14 37.99-8.59 57.05-12.61 6.3-1.33 12.79-1.73 19.21-2.5 1.03-.12 2.26-.21 3.13.23 1.27.65 2.91 1.59 3.29 2.76.58 1.79-.42 3.25-2.53 4.02-12.74 4.61-25.43 9.35-38.14 14.05-4.17 1.54-6.16 6.89-3.95 10.62 3.24 5.46 3.73 11.08 1.44 17.06-1.51 3.93-2.67 8-3.91 12.04-.89 2.89.52 4.08 3.29 4.31 6.33.54 12.11-1.51 17.92-3.55 3.18-1.12 6.38-2.39 9.67-2.99 4.69-.85 6.57 1.41 6.1 6.23-.38 3.97-2.29 6.89-5.74 8.5-5.43 2.55-10.95 4.99-16.6 6.99-5.77 2.04-11.75 3.5-18.35 5.42 6.14 2.91 11.69 5.44 17.15 8.16 6.38 3.18 12.37 6.95 17.06 12.49 4.45 5.25 5.75 11.07 4.01 17.78-2.66 10.25-7.07 19.7-12.45 28.75-.53.89-1.24 1.71-2 2.43-8.55 8.08-17.11 16.17-25.73 24.18-1.14 1.06-2.57 1.83-3.95 2.58-2.42 1.3-5.04 2.28-7.34 3.75-3.78 2.43-4.31 6.46-1.59 9.93 4.45 5.67 8.83 11.4 13.42 16.95.83 1 2.61 1.85 3.89 1.76 7.5-.54 14.97-1.54 22.47-2.04 4.08-.27 8.28-.29 12.28.41 3.89.68 6.3 4.52 4.7 7.91-1.08 2.29-4.08 4.54-6.6 5.1-6.05 1.36-12.31 1.92-18.51 2.42-5.96.48-11.21 2.19-15.18 6.85-.67.78-1.45 1.73-1.56 2.68-.67 5.66-1.17 11.34-1.74 17.2 6.84 1.3 13.39.86 19.78-.65 9.78-2.31 19.38-5.44 29.21-7.51 7.51-1.58 15.24-2.1 22.89-2.98 1.11-.13 2.31.25 3.44.51 9.51 2.19 11.01 6.96 7.62 15.8-.4 1.03-1.63 1.88-2.65 2.52-10.4 6.49-21.95 9.84-33.81 12.39-29.19 6.26-58.36 12.59-87.55 18.85-1.75.37-3.56.53-5.35.57-17.48.35-34.97.71-52.45.89-2.67.03-5.45-.54-8.01-1.36-4.22-1.36-8.52-2.76-12.4-4.87-3.96-2.16-7.45-5.19-11.14-7.83.18-.36.35-.7.52-1.04zm25.82-194.54c-8.01 8.34-15.87 16.5-23.68 24.7-.56.59-.9 1.43-1.21 2.21-2.06 5.24-.78 10.08 4.07 14.18 4.37 3.7 9.05 7.02 13.38 10.76 3.29 2.84 6.93 4.68 11.11 5.78 2.02.53 3.22.18 4.66-1.28 13.13-13.25 26.36-26.42 39.55-39.62.66-.66 1.27-1.36 2.1-2.26-.97-.27-1.63-.54-2.32-.63-7.36-.92-14.7-1.96-22.08-2.68-5.77-.57-11.21-1.64-16.01-5.25-2.95-2.21-6.28-3.9-9.57-5.91zm68.19 36.15c1.41.93 2.5 2.08 3.81 2.46 11.15 3.23 22.25 6.7 33.55 9.32 7.5 1.74 7.63 1.16 10.47-6.13 4.74-12.18 3.23-17.28-7.84-24.21-5.91-3.7-12.36-6.53-18.18-10.35-4.01-2.63-7.75-2.57-12-1.38-6.87 1.94-8.07 5.65-4.73 10.91 3.14 4.93 2.38 9.91-1.01 14.52-1.12 1.54-2.43 2.93-4.07 4.86zm31.08 31.22c-4.7-5.59-10.09-9.27-16.65-11-9.92-2.62-19.89-5.07-29.85-7.52-.85-.21-2.06-.24-2.71.21-6.6 4.53-13.12 9.19-20.16 14.16 2.07 1.28 3.18 2.05 4.37 2.68 6.2 3.28 12.93 4.57 19.84 5.08 9.33.7 18.59 1.67 26.85 6.66 4.4 2.66 9.22 1.85 12.44-2.24 2.02-2.56 3.87-5.28 5.87-8.03zm-28.19 23.93c-2.37-1.66-4.24-3.46-6.47-4.44-11.02-4.82-22.16-9.35-33.19-14.14-5.24-2.27-9.56-1.62-13.71 2.49-1.71 1.7-2.93 3.16-2.87 5.58.05 2.22-.19 4.46.07 6.65.15 1.28.68 2.96 1.63 3.61 3.99 2.74 7.93 5.89 12.39 7.56 15.07 5.66 28.78 1.76 42.15-7.31zm-128.03-120.12c-12.09 5.99-23.36 11.57-34.95 17.31 12.52 7.38 24.61 14.6 36.82 21.59 2.1 1.2 4.77 1.42 7.81 2.27-.38-11.87-.47-22.66-4.01-33.03-1.21-3.54-3.16-6.7-5.67-8.14zm149.07-29.43c-.43.07-1.17.16-1.89.29-9.66 1.8-19.33 3.56-28.96 5.49-1.18.24-2.53 1.17-3.17 2.18-1.06 1.67-.55 3.2 1.11 4.64 5.74 5 11.33 10.19 16.96 15.32 3.5 3.19 8.24 3.01 11.17-.87 4.53-5.99 8.67-12.24 10.59-19.69 1.15-4.45-.89-7.29-5.81-7.36z"/><path d="m187.45 49.47c5.23 0 10.09-.43 14.84.09 9.13 1.01 17.9-.83 26.74-2.44 19.16-3.5 38.3-7.1 57.5-10.3 3.96-.66 8.23.04 12.27.66 1.08.17 2.16 2.26 2.67 3.68.58 1.62-.4 2.66-2.17 3.15-17.23 4.71-33.25 12.39-49.35 19.92-3.26 1.52-7.45 1.01-11.18 1.6-4.78.75-9.57 1.46-14.28 2.55-5.17 1.19-9.75 1.25-14.31-2.35-7.27-5.76-14.98-10.96-22.73-16.56z"/></g></svg>