<svg enable-background="new 0 0 400 400" viewBox="0 0 400 400" xmlns="http://www.w3.org/2000/svg"><path d="m6.44 374.46.42-.45c.65.47 1.27.95 1.85 1.44l-.45.49c-.65-.56-1.25-1.06-1.82-1.48m.93 7.33-.63-.26c.55-1.36 1.05-2.8 1.52-4.33.19.1.38.19.59.27-.46 1.29-.95 2.73-1.48 4.32m-.38-10.38.44-.42c.43.34 1.01.82 1.74 1.44l-.49.49c-.53-.51-1.09-1.01-1.69-1.51m2.5.35h1.72v-1.04h.59v1.04h3.52v-1.04h.59v1.04h1.75v.53h-1.75v1.42h-2.03v.97h3.22v2.03h-3.24c0 .35-.01.66-.03.93h3.32v.53h-3.37c-.03.27-.08.58-.15.94h3.96v.53h-3.71c.67.92 1.93 1.48 3.79 1.68-.13.24-.23.44-.29.59-2.13-.38-3.48-1.08-4.04-2.12-.43.97-1.77 1.72-4.03 2.23-.09-.19-.2-.37-.33-.55 2.1-.42 3.37-1.03 3.81-1.83h-3.36v-.53h3.58c.08-.29.13-.61.16-.94h-3.33v-.53h3.39c.02-.27.04-.58.04-.93h-3.23v-2.03h3.25v-.97h-2.07v-1.42h-1.73zm1.12 3.44v1h2.65c.01-.3.02-.44.01-.4v-.25-.35zm1.19-2h3.52v-.91h-3.52zm4.71 2h-2.63v.59c0 .15-.01.28-.01.4h2.64z" fill="#fbfcfa"/><path d="m13.56 383.74h.63v1.52h2.72v6.07h1.13v.6h-11.06v-.6h1.13v-6.07h2.73v-1.52h.63v1.52h2.1v-1.52zm-2.69 8.83.38.56c-1.24.63-2.53 1.25-3.85 1.85-.1-.21-.21-.42-.34-.63 1.36-.55 2.63-1.15 3.81-1.78m-2.13-4.27h2.1v-2.45h-2.1zm0 3.04h2.1v-2.46h-2.1zm2.72-3.04h2.1v-2.45h-2.1zm0 3.04h2.1v-2.46h-2.1zm6.07 3.6c-1.41-.71-2.7-1.3-3.86-1.78l.35-.56c1.45.62 2.75 1.19 3.88 1.72zm-1.25-9.09h-2.1v2.45h2.1zm-2.09 5.49h2.1v-2.46h-2.1z" fill="#fbfcfa"/><g fill="#010100"><path d="m270.86 116.66c-.87 1.4-1.49 2.25-1.95 3.17-4.17 8.43-9.72 15.83-16.23 22.62-6.45 6.73-12.67 13.71-18.79 20.75-4.34 5-9.2 9.32-14.65 13.07-5.15 3.55-10.28 7.15-15.14 11.08-8.06 6.52-15.8 13.43-23.85 19.95-6.57 5.32-12.58 7.01-19.49 6.05-.78-2.41-.14-4.27 1.72-6.14 22.74-22.85 45.44-45.73 68.06-68.7 3.18-3.22 6.08-6.78 8.72-10.46 5.85-8.17 11.46-16.51 17.78-25.68-3.88 0-7.05-.5-10 .09-12.01 2.4-23.38 6.72-34.2 12.44-1.71.9-3.06 2.54-4.45 3.96-3.53 3.62-5.88 4.1-10.47 2-.67-.31-1.33-.69-2.04-.87-8.63-2.22-13.6-8.83-19.11-16.08 25.7-2.39 47.91-15.17 72.5-20.74-2.25-6.75-3.6-13.27-9.28-18.01-4.94-4.12-9.27-9.02-13.64-13.78-2.89-3.15-6.17-5.38-10.32-6.42-1.12-.28-2.23-.71-3.26-1.23-4.2-2.1-4.26-4.19-.69-6.92 2.59-1.98 4.97-2.22 7.89-1.01 11.05 4.57 22.12 9.08 33.24 13.48 3.34 1.32 5.43 3.6 6.44 6.91.96 3.13 1.8 6.3 2.6 9.48 1.69 6.68 5.63 10.31 12.41 9.64 8.71-.85 17.3-2.85 26-3.99 4.24-.55 8.6-.52 12.87-.25 1.59.1 3.34 1.38 4.58 2.58 4.08 3.93 3.69 6.72-1.09 9.56-7.48 4.44-15.92 5.54-24.29 6.83-.94.14-1.89.24-2.79.52-9.18 2.83-9.99 4.13-6.11 12.68 7.03 15.48 12.32 31.55 16.29 48.03 2.87 11.91 1.65 23.85-1.35 35.56-4.2 16.39-11.68 31.14-23.69 43.23-3.93 3.96-8.62 7.17-13.01 10.67-7.46 5.95-14.86 11.96-22.46 17.73-6.53 4.96-13.91 7.1-22.12 5.27-.9-.2-2.41-.91-2.4-1.37.01-1.21.36-2.78 1.18-3.54 1.93-1.79 4.17-3.26 6.37-4.73 9.56-6.4 17.79-14.23 25.87-22.41 9.57-9.7 16.81-20.74 23.77-32.33 7.48-12.44 10.14-26.17 13.31-39.81.8-3.43-1.09-7.64-2.25-11.33-2.74-8.79-5.68-17.52-8.77-26.19-.65-1.85-2.29-3.36-3.71-5.36z"/><path d="m115.9 365.97c.15-3.05-.15-5.82.51-8.33 1.58-6.03 3.34-12.05 5.54-17.87 3.77-9.97 4.03-20.53 5.73-30.84 3.23-19.6 2.79-39.27.85-58.95-1.07-10.82-4.23-21-10.92-29.72-1.38-1.8-4.23-2.42-6.28-3.78-1.77-1.18-3.53-2.49-4.94-4.06-.61-.68-.85-2.76-.38-3.14 1.03-.85 2.9-1.77 3.93-1.37 5.13 1.98 9.22.05 12.85-3.11 5.03-4.38 9.2-9.48 9.9-16.47.12-1.23-.63-2.95-1.57-3.83-5.94-5.6-11.99-11.08-18.12-16.47-1.01-.89-2.56-1.42-3.93-1.61-13.16-1.84-23.94-8.6-34.26-16.35-.47-.35-.75-.95-1.6-2.08 3.26-.57 6.05-1.66 8.72-1.44 12.47 1.06 23.87-2.76 35.09-7.31 9.81-3.98 19.46-8.6 30.09-9.76 7.4-.81 14.84.24 21.64 3.59 5 2.46 6.78 6.85 4.54 13.66-2.95 9.02-6.81 17.74-10.34 26.57-.63 1.57-1.62 2.98-2.29 4.53-2.85 6.63-6.96 12.13-12.72 16.67-2.87 2.26-4.36 6.19-6.87 9.02-1.81 2.05-4.05 3.97-6.49 5.15-4.18 2.03-5 5.43-1.44 8.43 5.08 4.27 8.2 9.63 9.23 16.18 2.54 16.14 5.03 32.32 2.61 48.69-1.73 11.73-3.97 23.38-5.92 35.08-1.01 6.06-1.99 12.13-2.78 18.22-.87 6.63-4.45 12-7.76 17.52-1.41 2.35-2.91 4.66-4.17 7.08-1.79 3.51-3.46 4.94-8.45 6.1zm37.48-214.28c.17-7.14-2.73-9.66-8.11-7.41-5.91 2.48-11.52 5.71-17.18 8.76-3.95 2.13-4.28 4.04-2.31 8.16 2.87 5.98 8.31 8.27 14.12 9.6 1.88.43 5.12-.46 6.2-1.9 4.03-5.38 6.21-11.7 7.28-17.21z"/><path d="m81.21 47.21c5.46.93 10.02-1.06 14.87-3.19 4-1.76 8.92-1.49 13.45-1.92 8.64-.83 17.3-2.2 25.93-2.1 11.26.13 22.38 2.3 32.84 6.64 13.27 5.5 18.77 16.32 14.77 30.04-2.39 8.19-5.23 16.55-9.62 23.77-5.68 9.34-13.79 16.89-25.31 18.7-8.66 1.35-17.45 1.93-26.19 2.72-.89.08-2.64-.78-2.64-1.21-.01-1.03.5-2.53 1.31-3.04 5.74-3.59 11.63-6.94 17.43-10.44 4.75-2.87 8.23-6.89 10.58-12.27-4.21-.96-8.01-.25-11.72 1.38-4.26 1.87-8.49 3.83-12.8 5.59-4.72 1.92-9.28 1.07-13.84-.95-6.34-2.82-10.58-7.93-15.58-13.52 3.17-.15 5.74-.09 8.25-.43 11.32-1.51 22.65-3.06 33.95-4.76 6.6-.99 13.15-2.28 19.72-3.44 4.84-.86 7.45-3.55 8.17-8.58.28-1.99.46-4.01.54-6.02.22-5.38-.97-7.3-6.27-8.33-3.48-.67-7.14-.42-10.72-.52-6.02-.17-12.05-.09-18.05-.5-4.62-.31-11.11 2.65-13.3 6.66-3.19 5.83-6.37 7.3-12.12 4.13-7.1-3.92-13.79-8.61-20.52-13.17-1.47-.99-2.35-2.85-3.5-4.31.11-.33.24-.63.37-.93z"/></g></svg>