<svg enable-background="new 0 0 400 400" viewBox="0 0 400 400" xmlns="http://www.w3.org/2000/svg"><path d="m118.56 275.66c2.25-.61 4.24-.78 5.87-1.64 8.85-4.72 18.72-5.87 28.23-8.26.41-.1.85-.11 1.25-.24 7.81-2.56 15.68-3.13 23.68-.89 1 .28 2.1.35 3.15.33 3.7-.08 4.34-.78 4.46-4.44.11-3.39.1-6.8.5-10.16.33-2.76-.88-3.86-3.3-3.62-5.57.56-11.26.81-16.64 2.18-7.05 1.79-13.67-.03-20.39-1.17-1.78-.3-3.46-1.92-4.9-3.25-2.17-2-4.08-4.28-6.12-6.45-2.03 1.5-3.73 3.12-5.74 4.11-1.29.64-3.04.37-4.58.5-.13-1.52-.68-3.15-.29-4.52.56-1.97 1.8-3.75 2.76-5.61.77-1.5 1.8-2.91 2.28-4.49 2.5-8.19 4.93-16.4 7.24-24.65 1.73-6.15 1.83-12.36-.34-18.45-.48-1.34-1.56-2.45-2.12-3.76-.43-.99-.48-2.14-.69-3.22.88-.17 1.83-.65 2.63-.47 9.14 2.06 16.32 6.72 20.39 15.51.48 1.05 1.32 2.23 2.31 2.69 4.01 1.87 8.15 3.49 12.57 5.34.57-1.11 1.07-2.11 1.59-3.1 2.93-5.63 6.06-11.17 8.74-16.92 4.46-9.58 8.66-19.28 12.88-28.96.54-1.23.71-2.67.8-4.02.28-4.58-.23-5.18-4.44-6.99-5.96-2.57-11.86-5.38-15.92-10.67-1.64-2.13-2.52-4.85-3.75-7.3.31-.23.61-.47.92-.7 1.79.81 3.82 1.32 5.34 2.49 7.63 5.88 16.57 7.73 25.79 8.83 2.19.26 3.9-.63 3.52-2.85-.91-5.37-2.18-10.69-3.51-15.98-.14-.54-1.58-.91-2.47-1.07-5.21-.96-10.48-1.59-15.63-2.8-4.3-1.01-8.45-2.65-12.67-4.03-2.4-.78-4.79-1.6-7.43-2.49-4.8 8.85-12.44 14.53-20.62 19.48-3.93 2.38-8.4 3.89-12.65 5.73-2.01.87-3.94.15-4.34-1.78-.29-1.4.41-3.65 1.48-4.59 9.67-8.46 16.73-18.78 22.26-30.25.5-1.04.83-2.17 1.21-3.27 1.01-2.92 1.7-5.81-1.4-7.93 2.99-3.6 4.82-3.71 8.43-1.45 3.85 2.41 7.88 4.54 11.93 6.6 3.28 1.67 5.82 3.81 6.4 7.67.44 2.9 2.13 4.12 5.06 4.54 4.04.58 8 1.72 12.93 2.84-.72-2.38-.92-4.16-1.75-5.58-3.25-5.58-6.59-11.12-10.16-16.51-.95-1.43-2.67-2.71-4.31-3.25-2.2-.72-3.56-2-3.02-4.01.22-.84 2.61-1.74 3.87-1.57 7.59 1.06 14.39 4.14 20.3 9.03.66.54.93 1.63 1.24 2.51 1.41 3.99 2.51 8.12 4.25 11.96 1.3 2.86 3.41 5.34 5.15 7.99l1.32-.42c.22-1.37.73-2.76.62-4.1-.66-7.56-1.42-15.11-2.24-22.65-.69-6.32-1.54-12.62-2.29-18.94-.92-7.85-3.91-11.34-11.62-13.51-4.01-1.13-5.71-2.32-7.56-5.34 1.87-1.87 3.94-2.97 6.75-2.42 5.38 1.05 10.91 1.54 16.14 3.08 5.66 1.66 9.25 5.72 10.18 11.83.44 2.92.97 5.86 1.78 8.7 1.16 4.1 2.64 5.19 6.9 5.01 6.03-.24 12.05-.97 18.08-1.01 4.19-.03 8.42.59 12.57 1.29 1.17.2 2.98 1.73 2.96 2.62-.04 1.37-1.11 3.5-2.24 3.91-3.62 1.3-7.44 2.24-11.25 2.8-7.02 1.02-14.09 1.71-21.15 2.44-1.6.16-2.4.53-2.6 2.35-.77 7.06-1.63 14.11-2.7 21.12-.33 2.14.51 3.11 2.23 3.38 4.17.66 8.35 1.37 12.56 1.58 6.02.31 12.07.03 18.09.37 1.87.1 3.94 1.03 5.45 2.19 2.51 1.94 2.09 3.73-.84 5.03-6.47 2.87-13.32 3.12-20.25 3.08-3.9-.03-7.82.19-11.7.57-1.63.16-3.3.84-4.76 1.64-4.18 2.29-6.69 5.44-6.25 10.72.73 8.81 1.42 9.84 10.48 9.82 6.45-.01 12.91-.52 19.36-.89 4.02-.23 8.03-.62 12.04-.97 2.17-.19 4.14.06 4.88 2.48.75 2.42-.05 4.21-2.27 5.63-4.6 2.96-9.68 4.12-15 4.69-9.66 1.03-19.25.78-28.78-1.19-1.01-.21-2.08-.17-3.45-.27-.61 3.31-1.32 6.49-1.68 9.71-.08.7.94 1.75 1.7 2.29 4.57 3.26 9.27 6.34 13.83 9.62 4.24 3.06 7.43 6.9 8.37 12.27 2.39 13.65 5.3 27.24 7.08 40.97 1.92 14.9 6.41 28.88 12.71 42.38 1.56 3.36 3.17 6.71 4.98 9.94 3.62 6.44 7.31 12.84 11.13 19.17 2.24 3.71 2.73 5.49 1.64 8.89-2.44.81-4.04.06-5.49-2.18-7.16-11.02-14.19-22.13-21.82-32.82-5.21-7.3-8.3-15.41-11.28-23.67-.36-.99-.55-2.22-1.25-2.88-3.32-3.11-2.73-7.17-3.35-11.11-1-6.32-2.95-12.49-4.42-18.75-.48-2.05-1.07-4.15-1.06-6.22.02-9.49-2.75-18.41-5.39-27.34-1.44-4.87-4.56-8.39-10.09-8.78-.8-.06-2.07.24-2.41.81-5.36 8.87-13.81 14.87-20.61 22.4-.63.7-1.41 1.38-1.76 2.21-1.36 3.28-3.82 5.44-6.66 7.42-4.1 2.86-3.91 4.73.09 7.63 9.47 6.88 17.41 15.03 19.8 27.01 2 10.05 2.8 20.13 2.08 30.51-.82 11.77-4.97 22.13-10.13 32.4-8.11 16.14-16.89 31.84-28.76 45.57-2.46 2.84-5.56 5.13-8.41 7.63-3.42 3-6.93 5.9-10.31 8.94-3.34 3-7.08 4.9-11.67 5.03-1.19-2.6-.54-4.42 1.34-6.31 13.6-13.56 25.1-28.68 33.64-45.96 4.12-8.33 8.41-16.59 12.34-25 1.19-2.54 1.62-5.48 2.09-8.28.59-3.55-.29-4.94-3.91-4.76-4.26.21-8.69.77-12.68 2.19-6.77 2.41-13.25 5.6-19.85 8.49-.56.25-1.17.54-1.58.98-3.26 3.55-6.43 4.52-10.37 2.05-4.37-2.74-8.39-6.08-12.36-9.4-1.4-1.15-2.13-3.04-3.19-4.64zm36.79-73.27c-1.99 3.81-3.83 7.48-5.8 11.08-2.94 5.35-5.87 10.7-9 15.94-1.72 2.89-.53 6.27 2.83 6.36 6.43.17 12.91.34 19.3-.23 5.65-.5 11.22-1.96 16.81-3.09 2.1-.43 3.58-1.63 2.65-4.02-1.01-2.6-1.95-5.34-3.52-7.6-5.79-8.35-13.33-14.6-23.27-18.44z" fill="#010103"/><path d="m119.92 174.37c-.46-3.55.64-5.69 3.6-7.57 8.15-5.17 14.37-12.47 20.38-19.9 2.73-3.38 5.46-6.75 8.29-10.04 2.86-3.32 2.92-4.5.88-8.53-.53-1.06-.56-2.98.07-3.84.58-.78 2.61-1.24 3.6-.85 5.2 2.06 10.51 4.02 15.32 6.82 6.31 3.68 6.55 11.2.93 15.96-1.52 1.29-3.35 2.2-5.02 3.31-1.93 1.28-4.19 2.29-5.69 3.96-3.85 4.27-8.52 7.09-13.65 9.54-6.76 3.23-13.31 6.94-19.87 10.58-2.91 1.6-5.72 1.95-8.84.56z" fill="#010103"/><g fill="#fcfbfa"><path d="m5.17 384 .55-.58c.85.61 1.65 1.24 2.4 1.87l-.59.64c-.83-.73-1.62-1.38-2.36-1.93m1.22 9.53-.82-.34c.71-1.76 1.37-3.64 1.98-5.63.24.13.5.25.76.36-.6 1.67-1.24 3.54-1.92 5.61m-.5-13.5.57-.54c.56.44 1.31 1.06 2.26 1.87l-.64.64c-.68-.66-1.41-1.32-2.19-1.97m3.25.46h2.24v-1.36h.77v1.36h4.57v-1.36h.76v1.36h2.28v.69h-2.28v1.84h-2.64v1.26h4.18v2.64h-4.21c0 .45-.02.86-.05 1.21h4.32v.69h-4.38c-.04.34-.1.75-.19 1.22h5.15v.69h-4.82c.87 1.19 2.51 1.92 4.93 2.19-.17.31-.3.57-.37.76-2.77-.49-4.52-1.41-5.26-2.76-.56 1.26-2.3 2.23-5.24 2.9-.12-.24-.26-.48-.43-.72 2.73-.55 4.38-1.34 4.96-2.38h-4.38v-.69h4.65c.1-.38.17-.79.21-1.22h-4.32v-.69h4.4c.03-.34.05-.75.05-1.21h-4.2v-2.64h4.23v-1.26h-2.69v-1.84h-2.24zm1.46 4.46v1.29h3.45c.01-.4.02-.57.01-.53v-.32-.45h-3.46zm1.55-2.59h4.57v-1.19h-4.57zm6.11 2.59h-3.42v.77c-.01.19-.01.37-.02.53h3.44z"/><path d="m32.63 379.16h.82v1.98h3.54v7.89h1.46v.78h-14.37v-.78h1.46v-7.89h3.54v-1.98h.82v1.98h2.73zm-3.49 11.48.5.73c-1.61.82-3.28 1.63-5 2.41-.13-.27-.28-.55-.44-.82 1.75-.72 3.4-1.49 4.94-2.32m-2.78-5.55h2.73v-3.18h-2.73zm0 3.95h2.73v-3.2h-2.73zm3.54-3.95h2.73v-3.18h-2.73zm0 3.95h2.73v-3.2h-2.73zm7.89 4.68c-1.84-.92-3.51-1.7-5.02-2.32l.45-.73c1.89.8 3.57 1.55 5.04 2.23zm-1.62-11.81h-2.73v3.18h2.73zm-2.73 7.13h2.73v-3.2h-2.73z"/></g></svg>