<svg enable-background="new 0 0 400 400" viewBox="0 0 400 400" xmlns="http://www.w3.org/2000/svg"><path d="m6.44 374.46.42-.45c.65.47 1.27.95 1.85 1.44l-.45.49c-.65-.56-1.25-1.06-1.82-1.48m.93 7.33-.63-.26c.55-1.36 1.05-2.8 1.52-4.33.19.1.38.19.59.27-.46 1.29-.95 2.73-1.48 4.32m-.38-10.38.44-.42c.43.34 1.01.82 1.74 1.44l-.49.49c-.53-.51-1.09-1.01-1.69-1.51m2.5.35h1.72v-1.04h.59v1.04h3.52v-1.04h.59v1.04h1.75v.53h-1.75v1.42h-2.03v.97h3.22v2.03h-3.24c0 .35-.01.66-.03.93h3.32v.53h-3.37c-.03.27-.08.58-.15.94h3.96v.53h-3.71c.67.92 1.93 1.48 3.79 1.68-.13.24-.23.44-.29.59-2.13-.38-3.48-1.08-4.04-2.12-.43.97-1.77 1.72-4.03 2.23-.09-.19-.2-.37-.33-.55 2.1-.42 3.37-1.03 3.81-1.83h-3.36v-.53h3.58c.08-.29.13-.61.16-.94h-3.33v-.53h3.39c.02-.27.04-.58.04-.93h-3.23v-2.03h3.25v-.97h-2.07v-1.42h-1.73zm1.12 3.44v1h2.65c.01-.3.02-.44.01-.4v-.25-.35zm1.19-2h3.52v-.91h-3.52zm4.71 2h-2.63v.59c0 .15-.01.28-.01.4h2.64z" fill="#fbfcfa"/><path d="m13.56 383.74h.63v1.52h2.72v6.07h1.13v.6h-11.06v-.6h1.13v-6.07h2.73v-1.52h.63v1.52h2.1v-1.52zm-2.69 8.83.38.56c-1.24.63-2.53 1.25-3.85 1.85-.1-.21-.21-.42-.34-.63 1.36-.55 2.63-1.15 3.81-1.78m-2.13-4.27h2.1v-2.45h-2.1zm0 3.04h2.1v-2.46h-2.1zm2.72-3.04h2.1v-2.45h-2.1zm0 3.04h2.1v-2.46h-2.1zm6.07 3.6c-1.41-.71-2.7-1.3-3.86-1.78l.35-.56c1.45.62 2.75 1.19 3.88 1.72zm-1.25-9.09h-2.1v2.45h2.1zm-2.09 5.49h2.1v-2.46h-2.1z" fill="#fbfcfa"/><path d="m156.75 283.5c-6.88-7.11-13.71-14.19-20.56-21.26-22.35-23.08-44.74-46.12-67.01-69.27-2.72-2.83-5.66-5.01-9.36-6.24-5.83-1.93-11.65-3.87-17.44-5.92-6.46-2.28-9.63-6.86-9.2-13.55.07-1.16 1.09-2.78 2.12-3.28 7.45-3.61 14.76-4.31 22.26.48 6.43 4.11 14.08 4.2 21.44 5.12 3.65.46 7.32 1.27 10.79 2.48 7.07 2.47 13.1 6.26 16.05 13.76 3.31 8.41 9 14.96 16.54 19.92.71.46 1.28 1.13 2 1.57 6.7 4.14 11.04 9.91 12.66 17.72.28 1.35 1.33 2.63 2.25 3.74 14.3 17.2 28.67 34.34 42.91 51.59 1.45 1.76 2.79 2.14 4.88 1.73 7.8-1.51 15.62-2.9 23.44-4.3 3.61-.65 5.13-2.54 4.41-6.16-.39-1.94-1.08-3.94-2.13-5.59-3.4-5.33-7.04-10.5-10.57-15.75-1.83-2.72-4.05-5.28-5.36-8.24-4.23-9.58-9.95-18.22-16.31-26.43-7.18-9.26-11.31-20.07-16.3-30.45-11.42-23.72-25.14-45.96-43.26-65.15-9.09-9.63-18.79-18.71-28.74-27.45-3.53-3.1-8.57-4.49-12.98-6.56-5.14-2.41-8.13-6.24-8.37-12.22 10.07-2.64 20.16-2.61 30.13.08 12.06 3.26 24.02 6.86 35.97 10.48 1.16.35 2.26 1.77 2.86 2.96 6.37 12.67 12.5 25.47 18.98 38.09 3.02 5.89 6.96 11.29 13.09 14.31 2.67 1.32 5.79 1.9 8.78 2.34 2.57.38 4.78-.62 6.76-2.66 11.75-12.12 23.13-24.54 32.36-38.75 3.65-5.62 6.43-11.67 7.6-18.37.29-1.63.28-2.75-1.33-3.71-3.44-2.04-3.47-5.56-3.52-8.99-.01-.44.32-1.02.67-1.3 5.03-4.03 14.06-3.35 18.79 1.44 1.26 1.28 2.45 2.65 3.56 4.06 3.31 4.18 7.33 6.79 12.93 6.78 1.58 0 3.43.95 4.71 2 4.66 3.84 9.14 7.9 13.68 11.89.15.13.24.34.5.72-1.65 4.08-3.03 8.45-5.15 12.43-1.91 3.56-5.33 5.88-9.4 6.42-6.14.81-11.01 3.57-15.52 7.76-7.53 6.99-15.29 13.77-23.35 20.15-3.83 3.03-8.53 5-12.91 7.33-4.47 2.38-9.27 4.21-13.46 6.99-6.26 4.16-6.9 7.82-3.74 14.67 4.65 10.09 9.03 20.31 13.92 30.28 7.92 16.17 12.75 33.34 17.59 50.58 1.8 6.41 5.48 12.32 8.54 18.33 1.17 2.3 3.38 3.24 6.13 3.15 12.18-.43 24.38-.42 36.53-1.16 12.68-.78 24.87 1.91 37.18 4.03 3.42.59 6.94 1.03 10.4.96 10.18-.23 20.05 1.59 29.82 4.09 9.84 2.52 10.6 9.06 9.84 16.2-.08.71-.69 1.6-1.31 1.96-4.71 2.78-9.57 4.77-15.33 3.98-10.58-1.45-10.59-1.31-26.33 4.33-1.67-2.03-3.69-3.98-5.09-6.3-2.57-4.26-6.57-5.54-11.05-6.43-11.53-2.28-23.04-1.33-34.48.36-10.6 1.56-21.12 2.39-31.9 1.89-6.92-.32-13.98 1.94-20.96 3.13-4.18.71-8.38 1.37-12.47 2.43-3 .78-5.8 2.29-8.77 3.23-3.09.98-6.4 2.68-9.4 2.31-14.93-1.85-28.61 2.95-42.66 6.58-17.25 4.47-33.38 11.56-49.28 19.27-6.12 2.96-12.32 3.78-18.48 1.76-11.44-3.76-22.71-8.08-33.89-12.58-1.49-.6-2.34-3.57-2.78-5.6-.15-.69 1.71-2.11 2.9-2.73 1.27-.67 2.89-1.28 4.24-1.08 8.22 1.22 15.71-1.78 23.33-3.82 18.31-4.88 36.52-10.15 54.87-14.84 6.73-1.72 13.78-2.23 20.68-3.31 5.11-.77 8.54-3.8 11.06-8.41z" fill="#010100"/></svg>