<svg enable-background="new 0 0 400 400" viewBox="0 0 400 400" xmlns="http://www.w3.org/2000/svg"><path d="m6.44 374.46.42-.45c.65.47 1.27.95 1.85 1.44l-.45.49c-.65-.56-1.25-1.06-1.82-1.48m.93 7.33-.63-.26c.55-1.36 1.05-2.8 1.52-4.33.19.1.38.19.59.27-.46 1.29-.95 2.73-1.48 4.32m-.38-10.38.44-.42c.43.34 1.01.82 1.74 1.44l-.49.49c-.53-.51-1.09-1.01-1.69-1.51m2.5.35h1.72v-1.04h.59v1.04h3.52v-1.04h.59v1.04h1.75v.53h-1.75v1.42h-2.03v.97h3.22v2.03h-3.24c0 .35-.01.66-.03.93h3.32v.53h-3.37c-.03.27-.08.58-.15.94h3.96v.53h-3.71c.67.92 1.93 1.48 3.79 1.68-.13.24-.23.44-.29.59-2.13-.38-3.48-1.08-4.04-2.12-.43.97-1.77 1.72-4.03 2.23-.09-.19-.2-.37-.33-.55 2.1-.42 3.37-1.03 3.81-1.83h-3.36v-.53h3.58c.08-.29.13-.61.16-.94h-3.33v-.53h3.39c.02-.27.04-.58.04-.93h-3.23v-2.03h3.25v-.97h-2.07v-1.42h-1.73zm1.12 3.44v1h2.65c.01-.3.02-.44.01-.4v-.25-.35zm1.19-2h3.52v-.91h-3.52zm4.71 2h-2.63v.59c0 .15-.01.28-.01.4h2.64z" fill="#fbfcfa"/><path d="m13.56 383.74h.63v1.52h2.72v6.07h1.13v.6h-11.06v-.6h1.13v-6.07h2.73v-1.52h.63v1.52h2.1v-1.52zm-2.69 8.83.38.56c-1.24.63-2.53 1.25-3.85 1.85-.1-.21-.21-.42-.34-.63 1.36-.55 2.63-1.15 3.81-1.78m-2.13-4.27h2.1v-2.45h-2.1zm0 3.04h2.1v-2.46h-2.1zm2.72-3.04h2.1v-2.45h-2.1zm0 3.04h2.1v-2.46h-2.1zm6.07 3.6c-1.41-.71-2.7-1.3-3.86-1.78l.35-.56c1.45.62 2.75 1.19 3.88 1.72zm-1.25-9.09h-2.1v2.45h2.1zm-2.09 5.49h2.1v-2.46h-2.1z" fill="#fbfcfa"/><path d="m108.1 155.08c-1.78-2.71-1.25-4.64.73-7.1 8.98-11.2 16.3-23.47 22.17-36.59.91-2.02 1.88-4.04 3.04-5.92 3.01-4.87 4.44-9.68-.57-14.82 4.61.1 8.26.31 11.7 3.15 3.98 3.28 8.65 5.7 12.94 8.61 1.1.75 2.3 1.76 2.79 2.92 1.32 3.14 3.69 4.55 6.78 5.56 7.51 2.46 14.94 5.21 23.2 8.12.17-2.9 1.1-5.63.34-7.75-4.42-12.32-3.16-25.38-5.4-37.95-1.39-7.8-3.24-15.54-5.38-23.16-.54-1.94-2.85-3.52-4.61-4.95-3.18-2.6-6.79-4.75-8.48-9.14 5.11-1.06 9.7-1.88 14.58 1.45 4 2.73 8.81 4.55 13.52 5.92 7.83 2.27 10.78 6.49 9.28 14.56-.48 2.59-1.03 5.22-1.02 7.84.01 3.45 1.57 4.75 4.99 4.47 14.4-1.17 28.79-1.68 43.1.73 7.4 1.24 14.7 3.1 22.04 4.7.61.13 1.36.28 1.75.69 1.11 1.18 2.07 2.51 3.09 3.78-1.26.81-2.44 1.8-3.8 2.36-1.03.42-2.28.37-3.44.41-11.31.41-22.63.69-33.94 1.21-6.01.28-12.04.74-18 1.58-2.98.42-5.89 1.68-8.7 2.87-3.63 1.54-6.06 3.71-6.21 8.42-.18 5.44-1.86 10.81-2.59 16.25-1.32 9.7-1.15 10.8 9.47 13.11 3.81.83 6.84-.1 9.21-3.71 3.25-4.95 7.43-9.3 10.54-14.33 2.35-3.8 3.68-8.24 5.41-12.42.32-.77.33-1.66.57-2.47 1.83-6.17 3.12-6.48 7.97-2.37 10.55 8.93 21.69 16.96 34.72 22.01 3.26 1.27 6.29 2.97 7.97 6.55-3.72 1.82-7.26 1.01-10.63-.08-6.34-2.04-12.62-4.31-18.84-6.69-2.03-.77-3.76-2.29-5.74-3.23-1.94-.92-3.26-.13-4.88 1.45-6.74 6.55-13.62 12.99-20.77 19.08-3.91 3.33-8.65 4.18-14.02 3.42-9.96-1.42-19.97-2.33-29.22-6.86-.2.23-.4.46-.6.69.61.94 1.06 2.05 1.86 2.79 5.13 4.76 10.28 9.49 15.56 14.09.79.69 2.39 1.11 3.37.82 16.91-4.97 34.05-4.95 51.35-2.89 6.06.72 10.28 3.62 12.66 9.18 1.23 2.86 1.04 5.66-1.15 7.99-2.83 3.01-5.7 6-8.78 8.75-3.64 3.25-8.09 4.41-13.07 4.13-.47-3.16-.37-5.78 1.7-8.64 2.4-3.31 3.72-7.39 5.51-11.14-.28-.36-.56-.72-.85-1.09-3.4 0-6.96-.65-10.17.13-6.98 1.69-13.82 3.99-20.62 6.33-1.16.4-2.22 2.08-2.65 3.39-2.06 6.26-3.06 6.87-9.08 4.46-2.15-.86-4.16-2.05-6.24-3.1-3.61 3.61-2.86 6.94 1.63 8.99 11.07 5.04 22.34 9.75 32.97 15.61 13.42 7.4 22.07 19.86 31.06 31.85 5.91 7.88 9.5 16.56 11.34 26.25 2.17 11.42 5.71 22.59 7.57 34.04 2.56 15.74 1.01 31.49-5 46.23-3.63 8.89-8.45 17.67-18.24 21.95-2.48 1.09-4.86 2.71-6.87 4.54-3.68 3.35-7.89 3.76-12.45 3.03-3.03-.49-6.06-1.03-9.06-1.65-1.84-.38-3.39-.15-4.37 1.57-3.51 6.15-8.82 8.03-15.76 8.04-5.72 0-11.44 1.73-17.17 2.56-14.19 2.07-27.88.31-40.04-7.44-4.95-3.16-8.83-8.17-12.76-12.71-10.37-12-14.36-26.36-15.02-41.93-.67-15.85 3.25-30.94 7.81-45.83 3.78-12.33 8.26-24.46 12.69-36.57 1.44-3.94 3.55-7.69 5.67-11.34 8.4-14.47 16.81-28.93 25.46-43.26 2.61-4.32 3.39-8.51 1.88-13.3-1.55-4.95-2.75-10.01-4.34-14.94-.8-2.47-2.21-4.73-3.19-7.14-.63-1.57-.97-3.25-1.38-4.66-5.02-2.73-10.25-5.6-15.51-8.41-5.22-2.79-8.36-2.07-12.07 2.32-2.04 2.41-4.2 4.85-6.71 6.73-8.27 6.19-15.94 12.94-22.32 21.13-2.6 3.38-5.8 6.19-10.28 6.77zm154.77 174.32c5.12-2.01 7.14-7.96 9.16-13.12 4.1-10.48 4.8-21.63 3.83-32.86-1.43-16.6-6.63-32.13-13.8-46.98-12.59-26.08-29.69-47.75-58.19-58.07-3.16-1.14-5.47-1.19-7.72.9-2.62 2.43-5.04 5.08-7.42 7.76-2.11 2.37-3.89 5.03-6.07 7.33-3.19 3.38-3.3 3.44-.38 7.18.59.75 1.23 1.46 1.87 2.16 3.29 3.56 6.98 4.61 11.99 3.61 7.43-1.48 15.05-2.05 22.62-2.72 5.27-.47 10.58-.57 15.87-.55 1.21 0 3.49 1.36 3.42 1.77-.26 1.52-1.26 2.94-2.08 4.34-.17.3-.73.41-1.13.54-8.23 2.7-16.49 5.33-24.7 8.12-5.05 1.72-10.01 3.68-15.22 5.61 2.4 4.9 5.64 8.15 10.08 8.61 6.03.61 12.2.3 18.27-.14 8.27-.6 16.16.03 23.59 4.58-3.15 4.18-7.42 5.94-11.96 7.17-6.43 1.74-12.91 3.32-19.34 5.07-.89.24-2.23.98-2.33 1.65-.73 4.97-1.2 9.99-1.84 15.86 8.22 0 15.72-.1 23.22.04 4 .08 8.03.32 11.96.98 2.98.5 3.39 2.44 1.3 4.7-.62.67-1.49 1.35-2.35 1.52-6.93 1.43-13.85 3.09-20.86 4-6.57.86-13.23.97-19.85 5.24 3.32 2.01 6.11 3.84 9.03 5.41 4.92 2.64 10.54 4.37 14.76 7.84 6.83 5.61 12.71 12.39 19.11 18.54 4.83 4.62 9.84 9.03 15.16 13.91zm-118.25-49.46c-1.39 9.24-3.11 17.86-3.84 26.58-.47 5.62-.2 11.51.98 17.01 1.9 8.88 6.23 16.65 14.09 21.9 3.75 2.5 7.31 6.16 11.44 7.01 8.54 1.77 17.38 2.44 26.12 2.72 5.31.17 10.72-1.11 15.7-4.51-12.32-10.67-24.17-21.56-39.11-28.23-2.9-1.3-5.96-2.4-7.55-5.43-.64-1.22-1.58-2.92-1.17-3.88.4-.91 2.33-1.29 3.66-1.64 2.81-.74 6.13-.6 8.43-2.07 6.68-4.29 9.92-11.67 14.56-17.79.57-.75.43-2.61-.13-3.47-.4-.61-2.12-.72-3.14-.51-4.66.97-9.26 2.29-13.94 3.14-1.72.31-3.83.14-5.39-.59-6.63-3.07-13.11-6.44-20.71-10.24zm47.04-47.76c-.71 1.23-1.32 2.19-1.85 3.19-4.35 8.23-8.74 16.45-12.99 24.73-1.06 2.06-2.75 3.08-4.56 2.19-1.07-.52-1.95-2.67-1.87-4.03.17-3.14 1.12-6.22 1.5-9.36 1.27-10.52 2.51-21.04 3.53-31.58.18-1.87-.73-3.85-1.14-5.77-.4-.06-.79-.13-1.19-.19-4.06 4.55-8.78 8.68-12.05 13.75-7.15 11.04-10.67 23.67-13.83 36.32-1.27 5.09-1.98 10.36-.47 15.54 10.18-1.07 20.22-1.85 30.16-3.28 5.82-.84 11.49-2.68 17.22-4.12 1.86-.47 2.68-1.62 2.61-3.69-.18-5.29.03-10.6-.23-15.89-.32-6.13-1.18-12.18-4.84-17.81zm45.59 115.82c6.4-.64 11.99-2.96 16.92-6.8 4.53-3.54 4.53-7.85.09-11.54-9.05-7.51-17.86-15.34-27.27-22.37-6.3-4.72-13.46-8.28-20.21-12.4-1.82-1.11-2.98-.7-4.13 1.07-4.91 7.51-10.83 14.08-18.33 19.12-.41.28-.71.73-1.51 1.58 1.82 1.09 3.3 2.27 4.98 2.91 2.45.93 5.04 1.5 7.58 2.18 4.39 1.17 8.74-1.67 9.87-6.07.76-2.94 1.93-5.78 3.08-8.6.26-.65 1.12-1.35 1.81-1.48 3.45-.68 10.89 3.41 12.92 7.52 1.78 3.6.48 7.16-2 9.99-2.64 3.02-5.54 5.84-8.58 8.45-1.79 1.53-2.4 3.17-1.14 4.91 2.14 2.96 4.52 5.77 7.03 8.43 3.76 3.98 7.27 4.04 11.53.49 3.97-3.31 5.82-2.76 7.36 2.61z" fill="#010100"/></svg>