<svg enable-background="new 0 0 400 400" viewBox="0 0 400 400" xmlns="http://www.w3.org/2000/svg"><path d="m6.44 374.46.42-.45c.65.47 1.27.95 1.85 1.44l-.45.49c-.65-.56-1.25-1.06-1.82-1.48m.93 7.33-.63-.26c.55-1.36 1.05-2.8 1.52-4.33.19.1.38.19.59.27-.46 1.29-.95 2.73-1.48 4.32m-.38-10.38.44-.42c.43.34 1.01.82 1.74 1.44l-.49.49c-.53-.51-1.09-1.01-1.69-1.51m2.5.35h1.72v-1.04h.59v1.04h3.52v-1.04h.59v1.04h1.75v.53h-1.75v1.42h-2.03v.97h3.22v2.03h-3.24c0 .35-.01.66-.03.93h3.32v.53h-3.37c-.03.27-.08.58-.15.94h3.96v.53h-3.71c.67.92 1.93 1.48 3.79 1.68-.13.24-.23.44-.29.59-2.13-.38-3.48-1.08-4.04-2.12-.43.97-1.77 1.72-4.03 2.23-.09-.19-.2-.37-.33-.55 2.1-.42 3.37-1.03 3.81-1.83h-3.36v-.53h3.58c.08-.29.13-.61.16-.94h-3.33v-.53h3.39c.02-.27.04-.58.04-.93h-3.23v-2.03h3.25v-.97h-2.07v-1.42h-1.73zm1.12 3.44v1h2.65c.01-.3.02-.44.01-.4v-.25-.35zm1.19-2h3.52v-.91h-3.52zm4.71 2h-2.63v.59c0 .15-.01.28-.01.4h2.64z" fill="#fbfcfa"/><path d="m13.56 383.74h.63v1.52h2.72v6.07h1.13v.6h-11.06v-.6h1.13v-6.07h2.73v-1.52h.63v1.52h2.1v-1.52zm-2.69 8.83.38.56c-1.24.63-2.53 1.25-3.85 1.85-.1-.21-.21-.42-.34-.63 1.36-.55 2.63-1.15 3.81-1.78m-2.13-4.27h2.1v-2.45h-2.1zm0 3.04h2.1v-2.46h-2.1zm2.72-3.04h2.1v-2.45h-2.1zm0 3.04h2.1v-2.46h-2.1zm6.07 3.6c-1.41-.71-2.7-1.3-3.86-1.78l.35-.56c1.45.62 2.75 1.19 3.88 1.72zm-1.25-9.09h-2.1v2.45h2.1zm-2.09 5.49h2.1v-2.46h-2.1z" fill="#fbfcfa"/><path d="m31.95 291.11c8.55-1.79 16.99-3.87 25.53-5.27 17.52-2.86 33.52-10.36 50.16-15.89 13.95-4.63 27.91-9.23 41.93-13.65 6.29-1.98 11.77-4.75 14.66-11.3-2.64-1.95-5.46-2-8.37-.97-2.99 1.05-5.96 2.19-8.92 3.32-.58.22-1.19.52-1.62.94-6.05 5.86-7.46 6.48-16.59 7.01-1.29-3.41-2.72-6.91-3.85-10.5-.21-.65.65-1.87 1.31-2.53 2.84-2.86 5.1-5.87 4.91-10.25-.1-2.18-.7-3.63-2.86-4.33-11.86-3.85-23.77-7.58-35.56-11.66-6.47-2.24-12.9-4.74-19.01-7.8-3.16-1.58-5.58-4.65-8.34-7.05.12-.38.25-.77.37-1.15 2.53-.38 5.05-.98 7.59-1.09 12.92-.57 25.5 2.08 38.16 4.06 10.2 1.6 20.13 4.12 29.47 8.58 3.49 1.67 6.79 1.49 10.03-.21 6.63-3.46 11.47-8.59 13.98-15.75.79-2.25.39-3.83-1.68-5.42-9.6-7.37-20.24-12.71-31.57-16.77-11.51-4.12-22.75-8.75-32.11-16.95-.72-.63-1.42-1.27-2.11-1.93-.37-.36-.7-.77-1.42-1.59 4.46-1.72 8.79-1.81 12.9-.73 7.26 1.9 14.25 4.89 21.56 6.48 15.94 3.45 30.88 9.6 45.75 15.97 4.9 2.1 8.24.29 11.02-2.5 13.08-13.14 21.96-28.94 28.91-45.95 3.23-7.91 5.73-15.91 4.64-24.68-.22-1.8.62-3.96 1.54-5.63 1.39-2.52 3.4-3.31 6.59-2.27 10.69 3.49 20.46 8.62 29.57 15.12 9.57 6.83 11.93 16.8 6.37 28.72-1.34 2.88-3.26 5.78-5.63 7.84-9.13 7.91-18.59 15.43-27.85 23.19-7.37 6.18-13.28 13.57-18.06 22.28 5.2 3.51 10.26 6.94 15.33 10.35 9.94 6.67 19.85 13.39 29.88 19.93 1.24.81 3.17 1.17 4.64.93 9.82-1.62 19.55-3.91 29.42-5.08 6.45-.76 13.09-.25 19.62.16 14.37.91 28.73 1.94 43.06 3.28 6.38.6 9.91 6.83 7.78 12.89-.29.83-1.37 1.5-2.23 1.99-7.28 4.06-15.26 5.43-23.43 6.27-25.6 2.62-51.19 5.37-76.79 8.1-6.21.66-12.5 1.02-18.61 2.26-5.87 1.19-11.49 3.61-17.34 5-5.58 1.33-9.25 4.36-11.67 9.57-2.06 4.44-7.24 5.7-11.23 2.88-5.88-4.17-12.16-4.53-18.78-2.65-2.95.84-5.94 1.7-8.7 3-15.01 7.05-30.93 11.53-46.75 16.16-15.32 4.49-29.72 11.1-44.22 17.53-2.2.98-4.09 2.69-6.29 3.66-5.99 2.63-12.04 1.84-17.97-.29-6.38-2.28-12.63-4.92-19.06-7.04-4.19-1.4-6.87-3.88-8.06-8.59zm147.48-71.83c3.66 5.01 7.03 9.75 10.56 14.37.7.92 1.88 1.72 3 2.06 12.35 3.8 22.69-.85 32.88-7.84-6.81-6.5-13.9-11.99-22.21-15.62-3.44-1.51-7.21-2.3-10.88-3.22-.84-.21-2.15.12-2.81.7-3.52 3.03-6.9 6.22-10.54 9.55z" fill="#010100"/></svg>