<svg enable-background="new 0 0 400 400" viewBox="0 0 400 400" xmlns="http://www.w3.org/2000/svg"><path d="m6.44 374.46.42-.45c.65.47 1.27.95 1.85 1.44l-.45.49c-.65-.56-1.25-1.06-1.82-1.48m.93 7.33-.63-.26c.55-1.36 1.05-2.8 1.52-4.33.19.1.38.19.59.27-.46 1.29-.95 2.73-1.48 4.32m-.38-10.38.44-.42c.43.34 1.01.82 1.74 1.44l-.49.49c-.53-.51-1.09-1.01-1.69-1.51m2.5.35h1.72v-1.04h.59v1.04h3.52v-1.04h.59v1.04h1.75v.53h-1.75v1.42h-2.03v.97h3.22v2.03h-3.24c0 .35-.01.66-.03.93h3.32v.53h-3.37c-.03.27-.08.58-.15.94h3.96v.53h-3.71c.67.92 1.93 1.48 3.79 1.68-.13.24-.23.44-.29.59-2.13-.38-3.48-1.08-4.04-2.12-.43.97-1.77 1.72-4.03 2.23-.09-.19-.2-.37-.33-.55 2.1-.42 3.37-1.03 3.81-1.83h-3.36v-.53h3.58c.08-.29.13-.61.16-.94h-3.33v-.53h3.39c.02-.27.04-.58.04-.93h-3.23v-2.03h3.25v-.97h-2.07v-1.42h-1.73zm1.12 3.44v1h2.65c.01-.3.02-.44.01-.4v-.25-.35zm1.19-2h3.52v-.91h-3.52zm4.71 2h-2.63v.59c0 .15-.01.28-.01.4h2.64z" fill="#fbfcfa"/><path d="m13.56 383.74h.63v1.52h2.72v6.07h1.13v.6h-11.06v-.6h1.13v-6.07h2.73v-1.52h.63v1.52h2.1v-1.52zm-2.69 8.83.38.56c-1.24.63-2.53 1.25-3.85 1.85-.1-.21-.21-.42-.34-.63 1.36-.55 2.63-1.15 3.81-1.78m-2.13-4.27h2.1v-2.45h-2.1zm0 3.04h2.1v-2.46h-2.1zm2.72-3.04h2.1v-2.45h-2.1zm0 3.04h2.1v-2.46h-2.1zm6.07 3.6c-1.41-.71-2.7-1.3-3.86-1.78l.35-.56c1.45.62 2.75 1.19 3.88 1.72zm-1.25-9.09h-2.1v2.45h2.1zm-2.09 5.49h2.1v-2.46h-2.1z" fill="#fbfcfa"/><g fill="#010100"><path d="m136.01 228.35c-6.06-1.19-11.51-2.25-16.97-3.33-6.77-1.34-12.87 1.84-19.3 2.79-1.56.23-3.73.42-4.74-.42-7.95-6.64-15.69-13.52-23.48-20.35-.38-.33-.58-.86-1.23-1.87 2.61-.43 4.85-1.2 7.05-1.09 10.36.52 20.73.98 31.04 2.03 9.48.96 18.88 2.59 28.31 4.02 4.86.74 6.11-.61 4.39-5.34-3.76-10.34-8.21-20.47-11.34-31-3.5-11.76-9.22-21.64-19.17-28.95-1.35-.99-2.46-2.31-3.78-3.58 2.06-2.57 4.1-3.67 7.62-2.73 6.95 1.84 14.09 2.94 21.13 4.46 5.32 1.15 10.37 2.98 14.63 6.56 3.62 3.05 4.6 6.81 2.34 11s-2.73 8.15-.78 12.66c2.38 5.52 4.14 11.32 6.34 16.92 1.54 3.91 3.62 4.2 6.52 1.08 5.63-6.06 11.57-11.87 16.72-18.32 3.53-4.42 6.88-9.41 4.66-15.88-.88-2.57.32-4.18 3.03-4.1 1.67.05 3.62.65 4.93 1.67 4.51 3.52 9.05 7.07 13.04 11.15 2.17 2.22 3.88 5.35 4.63 8.36.92 3.65-.35 6.81-3.7 9.64-7.43 6.28-14.24 13.29-21.39 19.92-3.81 3.53-7.79 6.87-11.68 10.32-.87.77-1.75 1.55-2.52 2.42-3.9 4.34-3.64 6.03.93 9.33 11.59 8.37 23.42 16.45 34.59 25.36 10.99 8.76 19.08 19.97 24.85 32.91 4.91 11.02 10.35 21.8 15.46 32.73.73 1.57 1.21 3.39 1.3 5.12.48 9.2.76 18.39 3.63 27.3 1.3 4.05 1.37 8.31.17 12.43-7.34 1.15-6.15 2.4-8.87-4.24-4.55-11.13-8.01-22.71-12.1-34.04-9.75-27-23.81-51.24-45.9-70.16-2.79-2.39-6.08-4.23-9.23-6.16-1.88-1.15-3.95-1.99-6.11-3.05-1.65 2.96-1.88 5.87-1.32 8.97 2.53 14.17 5.75 28.27 7.31 42.55 1.57 14.39 1.55 28.97 2.05 43.47.14 3.99-1.03 7.61-5.24 9.32-1.93.78-3.21.57-4.17-1.7-3.57-8.49-5.52-17.39-6.49-26.45-1.68-15.72-4.37-31.24-8.1-46.6-.97-3.99-1.2-8.16-1.66-12.26-.57-5-1.85-9.71-5.25-14.33-2.49 4.3-4.89 8.22-7.07 12.27-8.4 15.6-14.34 32.19-17.3 49.58-1.82 10.7-1.63 21.75-2.24 32.65-.38 6.8-.96 13.53-3.86 19.83-1.31 2.85-3.14 5.05-6.44 5.52-1.98.29-3.22-.11-3.04-2.63 1.74-24.19 1.24-48.54 5.67-72.53 2.78-15.08 7.4-29.53 13.81-43.45 2.8-6.16 5.25-12.48 8.32-19.78z"/><path d="m271.31 162.84c7.5-1.26 14.62-2.37 21.69-3.67 10.63-1.95 14.49 2.03 11.75 12.53-.49 1.88-1.77 3.82-3.23 5.13-3.22 2.9-6.84 5.36-10.18 8.13-1.71 1.41-3.31 3-4.72 4.7-2.36 2.85-3.14 5.76-1.34 9.56 10.55 22.28 17.37 45.88 23.99 69.54.61 2.19 1.84 4.21 2.78 6.32 3.87 8.67 7.88 17.29 11.51 26.07.71 1.71.64 4.4-.26 5.96-1.49 2.59-6.58 2-8.15-.73-5.76-10-11.76-19.89-17.05-30.13-9.08-17.59-17.76-35.39-26.43-53.19-1.69-3.47-2.83-7.29-3.7-11.07-.73-3.12-2.57-4.46-5.35-4.17-3.34.35-6.71 1.01-9.89 2.07-12.84 4.25-24.16.59-34.93-6.32-.71-.45-1.33-1.05-1.95-1.63-.45-.42-.84-.93-1.45-1.62 11.51-3.72 20.46-10.83 28.54-19.28 1.33-1.39 3.35-2.17 5.13-3.09 2.61-1.36 3.37-3.45 2.46-6.11-4.15-12.12-8.33-24.22-12.58-36.3-.26-.74-1.12-1.69-1.81-1.78-3.42-.47-6.7-.88-10.08 1.16-9.24 5.59-18.74 10.75-28.09 16.16-1.61.93-2.92 1.12-4.68.31-5.2-2.37-10.5-4.51-15.76-6.75-4.75-2.03-4.75-2.03-7.13-7.51 4.4-.8 8.75-1.39 12.99-2.41 3.77-.9 7.61-1.87 11.1-3.48 11.13-5.15 22.11-10.62 33.93-16.34-3.74-9.89-7.4-19.67-11.15-29.41-2.17-5.63-4.62-11.15-6.72-16.81-3-8.12-7.86-14.03-16.71-16.24-4.37-1.09-5.44-2.64-6.71-6.73 5.92-3.08 12.22-3.28 18.46-1.71 8.92 2.25 17.75 4.91 26.55 7.59 4.09 1.24 7.94 6.86 7.81 11.13-.12 4.02-.57 8.02-.84 12.04-.19 2.83.5 5.29 3.28 6.67 2.15 1.06 4.18 1.38 5.93-.85 4.64-5.9 9.63-11.54 13.9-17.69 3.28-4.72 4.26-10.3 3.24-16.12-.43-2.42-1.03-4.34-3.69-5.34-1.01-.38-1.49-2.17-2.58-3.9 4.51-.86 8.21-1.62 11.93-2.24.64-.11 1.46.23 2.05.6 5.2 3.27 10.37 6.58 15.55 9.89 2.29 1.46 3.27 3.57 2.87 6.23-1.15 7.78-2.59 15.38-8.45 21.4-4.65 4.78-8.65 10.21-13.39 14.9-3.02 2.99-6.71 5.39-10.37 7.62-3.19 1.95-6.4 3.68-8.51 8.09 2.88.17 5.48.94 7.72.37 14.66-3.77 28.62-.54 42.38 4.06 7.2 2.4 11.77 7.67 13.69 15.13.65 2.54.53 4.7-1.63 6.58-1.67 1.46-3.05 3.24-4.64 4.8-1.06 1.03-2.12 2.34-3.42 2.78-2.51.84-5.32 1.81-7.73 1.33-.9-.18-1.29-4.25-1.41-6.58-.11-1.97.7-3.97.75-5.96.14-5.46-2.19-8.35-7.62-9.11-8.46-1.18-16.65.72-24.81 2.6-.58.13-1.13.55-1.6.94-2.7 2.25-3.72 4.56-2.33 8.4 3.99 10.87 7.36 22.01 11.09 33.48z"/></g></svg>