<svg enable-background="new 0 0 400 400" viewBox="0 0 400 400" xmlns="http://www.w3.org/2000/svg"><path d="m6.44 374.46.42-.45c.65.47 1.27.95 1.85 1.44l-.45.49c-.65-.56-1.25-1.06-1.82-1.48m.93 7.33-.63-.26c.55-1.36 1.05-2.8 1.52-4.33.19.1.38.19.59.27-.46 1.29-.95 2.73-1.48 4.32m-.38-10.38.44-.42c.43.34 1.01.82 1.74 1.44l-.49.49c-.53-.51-1.09-1.01-1.69-1.51m2.5.35h1.72v-1.04h.59v1.04h3.52v-1.04h.59v1.04h1.75v.53h-1.75v1.42h-2.03v.97h3.22v2.03h-3.24c0 .35-.01.66-.03.93h3.32v.53h-3.37c-.03.27-.08.58-.15.94h3.96v.53h-3.71c.67.92 1.93 1.48 3.79 1.68-.13.24-.23.44-.29.59-2.13-.38-3.48-1.08-4.04-2.12-.43.97-1.77 1.72-4.03 2.23-.09-.19-.2-.37-.33-.55 2.1-.42 3.37-1.03 3.81-1.83h-3.36v-.53h3.58c.08-.29.13-.61.16-.94h-3.33v-.53h3.39c.02-.27.04-.58.04-.93h-3.23v-2.03h3.25v-.97h-2.07v-1.42h-1.73zm1.12 3.44v1h2.65c.01-.3.02-.44.01-.4v-.25-.35zm1.19-2h3.52v-.91h-3.52zm4.71 2h-2.63v.59c0 .15-.01.28-.01.4h2.64z" fill="#fbfcfa"/><path d="m13.56 383.74h.63v1.52h2.72v6.07h1.13v.6h-11.06v-.6h1.13v-6.07h2.73v-1.52h.63v1.52h2.1v-1.52zm-2.69 8.83.38.56c-1.24.63-2.53 1.25-3.85 1.85-.1-.21-.21-.42-.34-.63 1.36-.55 2.63-1.15 3.81-1.78m-2.13-4.27h2.1v-2.45h-2.1zm0 3.04h2.1v-2.46h-2.1zm2.72-3.04h2.1v-2.45h-2.1zm0 3.04h2.1v-2.46h-2.1zm6.07 3.6c-1.41-.71-2.7-1.3-3.86-1.78l.35-.56c1.45.62 2.75 1.19 3.88 1.72zm-1.25-9.09h-2.1v2.45h2.1zm-2.09 5.49h2.1v-2.46h-2.1z" fill="#fbfcfa"/><path d="m170.26 249.7c-6.34-2.46-12-4.51-17.54-6.83-15.81-6.61-31.59-13.28-47.34-20.05-6.32-2.71-12.49-5.76-18.75-8.61-5.68-2.59-9.69-6.63-11.43-12.66 3.1-3.07 6.36-3.9 10.7-3.05 12.88 2.53 25.87 4.5 38.8 6.76 1.75.31 3.51.82 5.14 1.53 18.23 8.02 36.3 16.34 53.31 26.79 2.51 1.54 5.29 2.68 8 3.86 5.41 2.36 10.9 3.23 16.64.92 2.64-1.07 5.48-1.61 8.19-2.53 2.4-.82 3.25-2.91 1.83-5.01-1.16-1.71-2.57-3.46-4.27-4.57-26.51-17.15-53.03-34.29-79.69-51.2-5.88-3.73-12.36-6.5-18.45-9.91-4.51-2.53-8.37-5.81-10.04-11.01-.19-.59-.25-1.22-.41-2.04 6.05-1.74 11.85-1.07 17.43 1.23 7.82 3.22 15.68 6.42 23.27 10.14 5.19 2.55 9.75 6.38 14.95 8.93 5 2.45 10.42 4.06 15.71 5.89 2.68.93 4.9.42 6.11-2.61 2.27-5.68 5.33-11.14 6.91-16.99 3.48-12.84 8.41-25.04 13.95-37.08 2.63-5.72 4.22-11.94 6.06-18 .32-1.05-.15-2.69-.83-3.64-2.46-3.43-5.18-6.69-7.87-10.11 7.32-.32 18.9 5.35 24.73 11.69 6.94 7.53 8.39 15.51 4.75 25.4-7.48 20.33-18.16 38.92-29.14 57.41-2.96 4.99-1.52 8.67 3.49 11.46 5.52 3.08 10.94 6.47 15.92 10.34 7.18 5.59 14.04 11.62 20.82 17.71 3.2 2.87 6.85 3.01 10.65 2.93 17.26-.33 34.51-.7 51.76-1.13 9.37-.23 18.57.7 27.73 2.87 6.99 1.66 14.15 2.72 21.28 3.65 8.97 1.16 12.14 6.43 10.32 16.48-6.06 0-12.29-.15-18.51.03-21.92.63-43.87.92-65.75 2.28-10.51.65-20.89 3.36-31.31 5.2-12.83 2.27-25.67 4.46-38.44 7.01-4.21.84-8.25 2.61-12.32 4.1-10.04 3.67-20.04 7.47-30.1 11.09-2.67.96-5.47 1.74-8.28 2.15-9.08 1.33-17.05 5.54-25.18 9.37-12.54 5.92-25.21 11.59-37.62 17.78-7.63 3.8-15.54 5.31-23.92 5.29-10.53-.02-20.92-.99-31.22-3.29-4.36-.97-6.64-3.54-7.94-7.89 5.62-.98 11.13-1.82 16.59-2.94 2.98-.61 5.97-1.4 8.78-2.56 36.8-15.14 73.57-30.37 110.35-45.57.48-.2.93-.43 2.18-1.01z" fill="#010100"/></svg>