<svg enable-background="new 0 0 400 400" viewBox="0 0 400 400" xmlns="http://www.w3.org/2000/svg"><path d="m6.44 374.46.42-.45c.65.47 1.27.95 1.85 1.44l-.45.49c-.65-.56-1.25-1.06-1.82-1.48m.93 7.33-.63-.26c.55-1.36 1.05-2.8 1.52-4.33.19.1.38.19.59.27-.46 1.29-.95 2.73-1.48 4.32m-.38-10.38.44-.42c.43.34 1.01.82 1.74 1.44l-.49.49c-.53-.51-1.09-1.01-1.69-1.51m2.5.35h1.72v-1.04h.59v1.04h3.52v-1.04h.59v1.04h1.75v.53h-1.75v1.42h-2.03v.97h3.22v2.03h-3.24c0 .35-.01.66-.03.93h3.32v.53h-3.37c-.03.27-.08.58-.15.94h3.96v.53h-3.71c.67.92 1.93 1.48 3.79 1.68-.13.24-.23.44-.29.59-2.13-.38-3.48-1.08-4.04-2.12-.43.97-1.77 1.72-4.03 2.23-.09-.19-.2-.37-.33-.55 2.1-.42 3.37-1.03 3.81-1.83h-3.36v-.53h3.58c.08-.29.13-.61.16-.94h-3.33v-.53h3.39c.02-.27.04-.58.04-.93h-3.23v-2.03h3.25v-.97h-2.07v-1.42h-1.73zm1.12 3.44v1h2.65c.01-.3.02-.44.01-.4v-.25-.35zm1.19-2h3.52v-.91h-3.52zm4.71 2h-2.63v.59c0 .15-.01.28-.01.4h2.64z" fill="#fbfcfa"/><path d="m13.56 383.74h.63v1.52h2.72v6.07h1.13v.6h-11.06v-.6h1.13v-6.07h2.73v-1.52h.63v1.52h2.1v-1.52zm-2.69 8.83.38.56c-1.24.63-2.53 1.25-3.85 1.85-.1-.21-.21-.42-.34-.63 1.36-.55 2.63-1.15 3.81-1.78m-2.13-4.27h2.1v-2.45h-2.1zm0 3.04h2.1v-2.46h-2.1zm2.72-3.04h2.1v-2.45h-2.1zm0 3.04h2.1v-2.46h-2.1zm6.07 3.6c-1.41-.71-2.7-1.3-3.86-1.78l.35-.56c1.45.62 2.75 1.19 3.88 1.72zm-1.25-9.09h-2.1v2.45h2.1zm-2.09 5.49h2.1v-2.46h-2.1z" fill="#fbfcfa"/><path d="m159.68 34.87c11.36 4.46 22.96 8.5 34.08 13.55 9.75 4.43 13.74 13.02 12.75 23.49-.72 7.56-2.32 15.04-3.63 22.54-.17.99-.91 1.88-1.39 2.82-6.19 12.16-12.37 24.33-18.59 36.47-1.29 2.51-.98 4 1.82 5.37 21.05 10.27 39.37 24.86 58.78 37.71 12.45 8.25 24.54 17.06 37.1 25.14 7.63 4.91 13.45 11.35 18.05 18.87 4.3 7.02 8.38 14.28 11.65 21.82 5.47 12.61 12.63 24.01 22.62 33.38 4.92 4.61 6.13 9.25 4.29 15.66-2.01 7-2.95 14.3-4.53 21.43-.25 1.13-1.18 2.72-2.12 3-18.36 5.43-34.47 15.63-51.32 24.2-8.86 4.5-17.86 7.8-27.62 9.84-11.27 2.35-22.36 5.68-33.34 9.2-14.67 4.7-29.77 6.41-45 7.51-19.84 1.44-39.6.8-59.25-2.51-1.24-.21-2.5-.49-3.67-.93-9.11-3.43-18.22-6.86-27.29-10.41-1.52-.6-2.97-1.58-4.21-2.66-9.94-8.71-14.65-19.97-15.9-32.91-.17-1.77-.23-3.81-1.14-5.21-4.97-7.73-4.05-16.24-3.57-24.66 1.72-30.57 13.43-58.07 25.83-85.49 11.29-24.96 27.58-46.87 41.09-70.44 13.03-22.74 25.35-46.08 30.93-72.1 1.71-7.83 2.35-15.89 3.58-24.68zm122.76 218.09c-1.33-14.76-7.78-26.35-18.73-35.31-11.97-9.8-25.98-16.28-39.7-23.14-7.46-3.73-15.02-7.65-22.99-9.91-10.5-2.98-20.89-6.14-31.02-10.17-4.78-1.9-9.62-3.67-14.46-5.51-6.66 9.54-13.28 18.74-19.6 28.14-10.15 15.08-22 29.08-29.36 45.96-1.9 4.36-3.9 8.73-6.36 12.78-3.98 6.57-1.61 13.52-2.42 20.47 10.17.76 19.76 1.56 29.36 2.15 3.01.18 6.19.33 9.06-.42 20.74-5.38 41.71-9.37 63.09-11.14 20.06-1.66 40.08-3.65 59.74-8.18 7.82-1.8 15.58-3.81 23.39-5.72zm-192.46 54.85c3.57 4.5 6.55 8.46 9.78 12.21 1.26 1.46 2.92 2.74 4.66 3.58 17.09 8.31 35.37 11.47 54.18 11.76 31.24.48 61.59-4.79 91.05-15.05 16.62-5.79 32.07-13.85 45.49-25.43 2.79-2.41 4.23-8.87 2.78-12.01-1.27-2.74-5.87-4.42-10.1-3.67-.42.07-.82.23-1.23.32-27.5 6.05-55.04 11.94-82.49 18.2-19.46 4.44-39.39 7.25-57.78 15.7-2.21 1.01-4.49 1.93-6.83 2.57-1.66.46-3.54.77-5.21.49-5.74-.96-11.43-2.22-17.14-3.35-8.78-1.74-17.58-3.45-27.16-5.32z" fill="#010100"/></svg>