<svg enable-background="new 0 0 400 400" viewBox="0 0 400 400" xmlns="http://www.w3.org/2000/svg"><path d="m6.44 374.46.42-.45c.65.47 1.27.95 1.85 1.44l-.45.49c-.65-.56-1.25-1.06-1.82-1.48m.93 7.33-.63-.26c.55-1.36 1.05-2.8 1.52-4.33.19.1.38.19.59.27-.46 1.29-.95 2.73-1.48 4.32m-.38-10.38.44-.42c.43.34 1.01.82 1.74 1.44l-.49.49c-.53-.51-1.09-1.01-1.69-1.51m2.5.35h1.72v-1.04h.59v1.04h3.52v-1.04h.59v1.04h1.75v.53h-1.75v1.42h-2.03v.97h3.22v2.03h-3.24c0 .35-.01.66-.03.93h3.32v.53h-3.37c-.03.27-.08.58-.15.94h3.96v.53h-3.71c.67.92 1.93 1.48 3.79 1.68-.13.24-.23.44-.29.59-2.13-.38-3.48-1.08-4.04-2.12-.43.97-1.77 1.72-4.03 2.23-.09-.19-.2-.37-.33-.55 2.1-.42 3.37-1.03 3.81-1.83h-3.36v-.53h3.58c.08-.29.13-.61.16-.94h-3.33v-.53h3.39c.02-.27.04-.58.04-.93h-3.23v-2.03h3.25v-.97h-2.07v-1.42h-1.73zm1.12 3.44v1h2.65c.01-.3.02-.44.01-.4v-.25-.35zm1.19-2h3.52v-.91h-3.52zm4.71 2h-2.63v.59c0 .15-.01.28-.01.4h2.64z" fill="#fbfcfa"/><path d="m13.56 383.74h.63v1.52h2.72v6.07h1.13v.6h-11.06v-.6h1.13v-6.07h2.73v-1.52h.63v1.52h2.1v-1.52zm-2.69 8.83.38.56c-1.24.63-2.53 1.25-3.85 1.85-.1-.21-.21-.42-.34-.63 1.36-.55 2.63-1.15 3.81-1.78m-2.13-4.27h2.1v-2.45h-2.1zm0 3.04h2.1v-2.46h-2.1zm2.72-3.04h2.1v-2.45h-2.1zm0 3.04h2.1v-2.46h-2.1zm6.07 3.6c-1.41-.71-2.7-1.3-3.86-1.78l.35-.56c1.45.62 2.75 1.19 3.88 1.72zm-1.25-9.09h-2.1v2.45h2.1zm-2.09 5.49h2.1v-2.46h-2.1z" fill="#fbfcfa"/><path d="m205.21 137.4c4.8 2.78 9.42 5.16 13.73 8.02 5.89 3.91 6.16 5.07 4.44 11.77-.26 1.02-.48 2.05-.8 3.42 10.06 3.07 20.04 6.11 30.44 9.28.98-2.31 2.01-4.47 2.83-6.71.8-2.18 1.09-4.6 2.14-6.63.83-1.61 2.26-3.58 3.8-4 2.5-.69 4.87.45 6.35 3.02 6.38 11.06 6.36 22.88 3.96 34.87-.85 4.22-2.3 8.38-4.01 12.33-1.38 3.19-1.75 6.29-1.13 9.57.96 5.11-.36 9-4.48 12.63-7.69 6.78-12.75 15.49-15.82 25.28-.3.97.08 2.52.73 3.36 5.55 7.2 6 15.63 1.02 23.29-.5.77-1.32 1.35-2.06 1.95-8.66 6.99-17.29 14.03-26.05 20.89-1.95 1.53-2.06 2.78-1.36 5.05 2.63 8.51 7.12 15.66 13.87 21.54 6.86 5.98 13.33 12.41 20.18 18.4 6.55 5.73 14.58 7.87 23.05 8.86 3.23.38 6.53.98 9.53 2.17 3.15 1.25 6.17 4.14 5.53 7.32-.35 1.73-4.61 3.2-7.33 3.77-2.69.56-5.7.14-8.47-.38-3.84-.71-7.6-1.87-11.38-2.91-4.38-1.21-8.64-2.53-12.19-5.74-2.07-1.87-4.74-3.26-7.38-4.27-9.34-3.58-16.25-10.14-22.57-17.56-9.82-11.53-16.52-24.8-21.89-38.83-1.29-3.36-2.48-6.79-4.16-9.96-4.58-8.65-6.22-17.85-6.17-27.53.01-2.91-.46-5.99-1.46-8.72-3.32-9.13-4.63-10.91-15.23-12.03-4.63-.49-9.29-.58-13.48-3.09-3.28-1.96-5.81-4.4-7.29-8.04-1.07-2.62-2.69-5.02-4.07-7.52-3.51-6.34-4.45-12.95-2.06-19.9 2.37-6.91 4.87-13.77 7.03-20.74.79-2.56 1.23-5.41 1.03-8.07-.42-5.39-4.59-7.24-8.7-3.78-6.49 5.46-13.94 8.32-22.22 7.89-6.26-.32-12.53-1.72-18.61-3.33-2.14-.56-3.74-3.16-6.05-5.25 7.38-3.25 13.9-6.19 20.47-9.02 13.22-5.69 26.48-11.28 39.69-16.98 3.87-1.67 7.17-4.06 8.77-8.64-8.32-2.6-14.45-8.28-20.3-14.24-1.95-1.99-3.7-4.39-4.84-6.91-3.42-7.55-7.22-14.79-12.78-21.07-3.06-3.46-4.89-7.63-5.27-12.57 5.07-2.15 9.75-.95 13.71 2.08 9.17 7.02 18.06 14.42 27.06 21.66.56.45 1.14.88 2.32 1.79 2.94-4.04 5.86-7.87 8.56-11.85 1.16-1.71.74-3.44-.56-5.23-4.55-6.26-8.87-12.68-13.35-18.98-2.59-3.63-4.92-7.29-6.17-11.7-.61-2.17-2.62-4.03-4.22-5.83-3.59-4.06-5.8-8.69-6.62-14.38 5.08 1.22 9.26 3.61 12.54 7.03 4.97 5.18 9.28 10.99 14.2 16.23 3.81 4.06 8.11 7.67 12.21 11.45.38.35.89.58 1.36.82 7.4 3.74 9.81 3.18 14.03-3.85 2.28-3.8 4.07-7.9 6.18-11.8.9-1.66 1.87-3.37 3.15-4.72 3.86-4.08 8.34-3.85 11.34.82 1.67 2.6 2.89 5.64 3.62 8.65.65 2.66-.3 5.17-1.96 7.69-3.23 4.91-6 10.15-8.59 15.43-1.32 2.7-.46 4.99 2.4 6.89 7.41 4.93 14.52 10.3 21.84 15.36 1.09.76 2.71 1.21 4.03 1.11 7.18-.53 14.35-1.28 21.53-1.95.52-.05 1.11-.2 1.56-.02 8.82 3.49 18.4 5.11 26.22 11.04 6.98 5.29 8.57 14.87 3.39 21.98-2.12 2.91-4.42 5.69-6.64 8.53-.13.17-.27.33-.41.48-2.73 3.02-8.7 4.9-10.86 3.41-1.6-1.11-1.98-6.93-.38-10.31 2-4.22 3.41-8.42 1.9-13.14-1.3-4.07-4.05-6.44-8.21-6.9-2.61-.29-5.29-.08-7.93.05-5.91.29-11.82.65-17.72 1.04-1.57.1-3.17.27-4.67.7-7.74 2.21-15.39 4.71-23.18 6.69-3.65.93-6.33 2.59-8.12 5.86-.71 1.3-1.7 2.44-2.54 3.61zm-40.68 17.91c3.03 3.13 5.97 6 8.69 9.07 1.06 1.2 2.01 2.76 2.36 4.3 2.08 9.14.34 17.68-5.78 24.71-3.85 4.43-6.09 9.22-7.17 14.79-.28 1.45-.73 2.87-1.12 4.3-1.81 6.78-1.93 6.95 3.9 10.66 1.93 1.23 4.58 1.43 6.94 1.86 4.65.86 5.73-.2 6.39-4.83.48-3.41 1.26-6.83 2.38-10.08 1.65-4.8 3.7-9.46 5.63-14.16 5.62-13.71 11.33-27.4 14-42.09.77-4.22 1.63-8.5-.11-13.21-3.25 0-6.99-1.07-9.61.19-8.94 4.34-17.48 9.48-26.5 14.49zm75.17 67.01c-.66-6.1-3.27-9.22-8.38-10.74-5.76-1.71-11.9-3.23-16.79-6.47-5.93-3.93-10.11-3.48-14.29 1.74-.75.94-1.79 2.17-1.69 3.17.19 2 .58 4.14 3.27 4.78 8.53 2.04 16.98 4.42 25.55 6.29 3.96.85 8.11.83 12.33 1.23zm8.6-26.75c-1.05-4.8-4.27-7.63-8.21-9.61-6.78-3.41-13.69-6.55-20.81-9.92-1.43 2.18-3 4.31-4.28 6.59-1.5 2.68-.51 5.75 2.29 6.87 6.28 2.51 12.59 4.97 18.99 7.18 3.9 1.35 7.91 1.37 12.02-1.11zm-68.67-84.28c4.12 2.86 5.83 8.01 11.03 8.64 6.94.84 13.42-.57 19.43-4.75-4.48-4.66-9.59-7.84-15.83-9.01-.91-.17-1.99-.27-2.81.06-3.82 1.53-7.56 3.22-11.82 5.06zm46.27 130.5c-7.33-5.62-13.33-13.23-23.86-14.78 1.78 5.58 3.4 10.68 5.02 15.77.19.6.29 1.27.62 1.78.32.49.84.95 1.37 1.18 4.93 2.16 12.54.43 16.85-3.95zm2.16 19.53c-3.98 1.06-7.97 2.05-11.89 3.22-1.5.45-3.02 1.13-4.24 2.08-.93.72-2.07 2.1-1.97 3.07.39 3.97 1.23 7.9 1.91 11.9 7.28-3.06 17.07-15.23 16.19-20.27z" fill="#010100"/></svg>