<svg enable-background="new 0 0 400 400" viewBox="0 0 400 400" xmlns="http://www.w3.org/2000/svg"><path d="m161.7 225.93c5.59-1.35 9.6.18 13.41 4.07 6.75 6.88 14.11 13.16 21.06 19.85 1.66 1.59 2.98 1.74 4.95.87 3-1.32 6.12-2.36 9.19-3.53 4.51-1.72 6.44-4.7 4.55-9.07-2.65-6.14-4.44-12.85-9.7-17.63-2.19-1.99-4.24-4.17-6.11-6.47-3.5-4.3-7.61-7.67-13.1-8.91-4.2-.95-5.37-3.83-5.58-7.77 11.95-3.28 23.88-6.57 35.81-9.84 3.47-.95 6.91-2.08 10.44-2.76 7.12-1.38 11.87-6.55 17.58-10.2-.04-.28-.07-.56-.11-.84-3.65-.3-7.3-.78-10.96-.85-7.09-.13-14.24.47-21.27-.19-6.26-.59-12.69-1.74-18.54-3.97-8.5-3.25-13.2-10.36-15.08-19.16-2.16-10.12-1.38-19.99 2.95-29.51 6.14-13.49 12.09-27.06 18.35-40.49 6.28-13.49 10.37-27.51 11.2-42.42.03-.51.15-1.01.31-2 9.4 3.72 17.49 8.59 21.48 18.16 2.06 4.94.55 9.82-1.67 14.42-2.02 4.18-4.14 8.31-6.48 12.99 4.15 1.74 8.01 3.79 12.11 5.01 9.63 2.86 19.32 5.55 29.09 7.86 6.36 1.5 7.92.75 10.84-5.08 1.75-3.49 2.38-7.53 3.49-11.33.47-1.63.47-4.3 1.42-4.67 1.59-.64 4.37-.54 5.58.5 6.63 5.64 13.2 11.47 14.55 20.85.36 2.48-.06 4.61-1.4 6.89-9.45 16.06-18.95 32.1-27.88 48.44-2.78 5.08-3.86 11.08-5.8 16.9 4.73 1.74 8.51 1.07 12.09-.66 6.92-3.36 13.96-6.03 21.81-6.19 7.76-.16 15.22.99 22.24 4.31 7.94 3.75 10.73 10.64 8.1 20.35-.62 2.3-2.01 4.68-3.7 6.37-10.24 10.3-20.61 20.48-31.08 30.55-2.89 2.78-6.25 5.06-9.42 7.53-5.11 3.98-5.84 6.73-3.22 12.55 4.34 9.66 8.57 19.36 13.07 28.95 6.07 12.95 9.56 26.47 9.37 40.82-.15 12.07-.23 24.15-.88 36.19-.4 7.54-4.79 11.55-11.92 11.64 0-4.61.07-9.22-.01-13.84-.29-17.08-1.39-34.1-4.5-50.93-.13-.72-.25-1.47-.51-2.15-4.5-11.75-8.98-23.51-13.56-35.23-.96-2.46-2.18-4.83-3.41-7.17-1.39-2.63-3.69-4.05-6.64-4.31-6.36-.55-15.19 4.55-17.34 10.61-.93 2.62-1.41 6.05-.53 8.57 9.15 26.05 11.91 53.46 17.41 80.28.66 3.19.86 6.53.85 9.8-.01 3.63-1.56 6.52-5.24 7.93-2.08.8-3.17.71-3.73-1.92-1.56-7.35-3.06-14.75-5.28-21.92-3.91-12.63-8.41-25.08-12.53-37.64-2.83-8.65-5.49-17.35-8.13-26.06-1.3-4.3-2.7-8.57-6.31-11.51-1.08-.88-2.83-1.45-4.23-1.37-6.45.36-12.88 1.11-19.33 1.47-2.07.12-3.04.93-3.64 2.74-1.94 5.9-1.41 11.72.62 17.45 2.6 7.33 4.83 14.77 4.27 22.62-.19 2.7-1.32 5.56-2.77 7.87-1.84 2.95-5.18 3.31-8.11 1.4-.75-.49-1.56-1.6-1.57-2.43-.37-26.17-11.11-49.35-20.92-72.79-1.94-4.63-3.97-9.27-6-14zm37.77-109.6c-2.82 1.91-4.17 4.35-4.88 7.74-.97 4.58-3.02 8.92-4.59 13.38-.55 1.56-1.5 3.15-1.5 4.72 0 4.6 5.43 11.65 9.91 12.88 13.37 3.69 26.9 4.16 40.59 1.96 7.32-1.18 11.61-5.28 13.62-12.29 1.92-6.66.03-9.25-6.87-9.6-7.92-.4-15.84-1-23.71-1.88-2.13-.24-4.41-1.42-6.11-2.8-5.6-4.54-10.96-9.36-16.46-14.11zm66.43-5.68c-2.16-.96-4.02-2.02-6.02-2.65-12.18-3.79-23.68-9.02-34.58-15.65-1.95-1.18-4.37-1.56-6.5-2.47-1.71-.73-2.75-.14-3.75 1.23-2.3 3.17-4.8 6.21-7 9.44-3.06 4.49-1.98 8.1 3.18 9.9 9.88 3.46 19.79 6.89 29.81 9.92 6.08 1.84 12.36 2.99 18.82 1.74 2.07-.4 3.41-1.16 3.83-3.48.46-2.59 1.38-5.1 2.21-7.98zm-5.6 75.13c.14 8.02 1.19 15.45 4.89 22.4 1.3 2.43 2.94 3.25 5.51 3.16 6.43-.23 11.21-3.59 15.23-8.15 5.39-6.12 10.7-12.32 15.74-18.73 1.98-2.52 3.36-5.6 4.54-8.61.4-1.03-.31-2.88-1.11-3.86-.57-.69-2.32-1.02-3.26-.7-13.8 4.72-27.56 9.58-41.54 14.49zm-43.76 19.59c6.39 8.76 12.54 17.23 18.76 25.65.51.69 1.46 1.36 2.29 1.47 5.1.64 9.16-1.82 13.16-4.53 3.15-2.13 3.2-5.26 3.09-8.47-.07-2.22-.22-4.45-.6-6.63-1.21-6.8-2.58-13.56-7.92-18.64-2.04-1.94-3.94-2.93-6.62-.91-1.84 1.39-4.05 2.27-6.1 3.38-5.29 2.85-10.57 5.71-16.06 8.68z" fill="#000001"/><path d="m63.53 285.97c-1.17-4.03.14-6.04 2.37-8.11 11.63-10.84 23.77-21.24 34.44-32.97 10.87-11.96 20.54-25.08 30.09-38.16 3.25-4.44 4.56-10.3 6.88-15.81 8.38.79 14.41 6.27 19.2 13.26 2.24 3.26 3.77 7.06 5.29 10.74.34.82-.39 2.85-1.16 3.21-3.51 1.65-7.14 3.11-10.84 4.23-3.07.93-5.92 2.11-7.21 5.14-.62 1.44-.79 3.53-.22 4.95 3.28 8.26 6.64 16.5 10.35 24.58 2.56 5.57 3.08 11.42 3.47 17.32 1.22 18.57 1.37 37.18-3.62 55.25-2.89 10.46-7.26 20.52-11.22 30.66-1.86 4.76-6.12 7.19-10.52 6.39-.89-.16-2.29-1.48-2.24-2.18.32-4.38.4-8.9 1.65-13.05 2.06-6.87 5.88-13.3 7.3-20.25 4.3-20.95 8.78-42 5.58-63.6-.99-6.67-2.77-13.24-4.47-19.79-.92-3.56-3.04-6.52-7.1-6.76-3.92-.23-7.12.96-9.78 4.5-12.02 15.98-26.43 29.23-45.19 36.96-4.11 1.69-8.65 2.35-13.05 3.49z" fill="#000001"/><path d="m73.11 228.5c-2.92-5.35-2.91-5.42 1.08-9.34 16.64-16.34 33.3-32.66 49.91-49.03 1.19-1.18 2.22-2.56 3.13-3.97 5.66-8.83 11.26-17.7 16.88-26.55.56-.88 1.17-1.73 1.75-2.57 15.99 8.89 21.57 12.83 24.09 22.95-3.9 2.11-7.89 4.23-11.85 6.43-1.09.61-2.33 1.23-3.05 2.18-10.27 13.59-23.83 23.48-37.63 32.95-12.12 8.32-24.68 16-37.13 23.83-2.2 1.38-4.8 2.1-7.18 3.12z" fill="#000001"/><path d="m129.72 74.89c12.07 1.65 25.38 13.75 27.73 24.77.75 3.5.52 6.43-3.09 8.35-1.76.94-3.2 2.45-4.9 3.52-17.76 11.1-31.56 26.47-45.44 41.78-4.91 5.42-9.9 10.76-15.01 15.99-4.12 4.21-7.3 5.02-13.23 3.76 1.35-5.23 2.12-10.28 6.36-14.63 18.02-18.5 32.43-39.65 43.64-62.89 1.91-3.95 1.92-8.82 2.76-13.28.44-2.39.77-4.78 1.18-7.37z" fill="#000001"/><g fill="#fafbfa"><path d="m37.59 393.81c-.92.31-1.52.05-2-.78-.7-1.2-1.52-2.34-2.47-3.78v4.59c-.55.03-.95.05-1.41.07-.03-.37-.06-.64-.06-.91 0-1.91 0-3.81 0-5.7 1.13-.41 1.77-.03 2.29.91.62 1.11 1.38 2.14 2.31 3.19v-4.2h1.35v6.61z"/><path d="m12.94 393.88v-6.75c1.9.19 3.93-.54 5.37 1.29.8 1.01.78 2.88.03 3.97-1.37 1.97-3.4 1.51-5.4 1.49m1.45-1.22c2.04.12 2.92-.58 2.89-2.21-.03-1.51-.98-2.19-2.89-2z"/><path d="m11.81 393.87h-5.49c.68-2.18 2.47-3.48 3.51-5.45h-3.08v-1.21h5.29c-.71 2.13-2.44 3.48-3.47 5.51.86 0 1.63.04 2.39-.01.79-.05 1.14.21.85 1.16"/><path d="m39.33 393.86v-6.61h3.7v1.07h-2.22v1.52c.68.04 1.34.09 2.07.13v1.07c-.72.05-1.38.09-2.1.14v1.48h2.4v1.19h-3.85z"/><path d="m27.71 388.56c-1.15-.3-2.46-.61-3.1.64-.37.73-.41 1.93-.06 2.67.63 1.35 1.99.93 3.17.68.35.94-.01 1.32-.93 1.46-1.62.25-3.05-.27-3.76-1.48-.73-1.24-.6-3.03.31-4.17.88-1.11 2.71-1.7 4-1.16.32.13.44.74.65 1.12-.1.08-.19.16-.28.24"/><path d="m49.15 387.24v1.07c-.59.02-1.17.05-1.87.08v5.44h-1.48v-5.44h-1.85c-.05-.4-.08-.73-.13-1.15z"/><path d="m20.06 387.21h1.33v6.62h-1.33z"/><path d="m30.68 393.25c-.49.38-.8.79-1.05.76-.32-.05-.6-.45-.9-.7.26-.24.51-.64.8-.67.29-.04.62.3 1.15.61"/></g></svg>