<svg enable-background="new 0 0 400 400" viewBox="0 0 400 400" xmlns="http://www.w3.org/2000/svg"><path d="m205.1 39.52c3.94-1.49 7.06-2.81 10.28-3.8 1.1-.34 2.52-.08 3.68.26 1.81.54 3.76 1.07 5.25 2.16 12.86 9.38 20.72 21.55 20.69 37.98 0 2.44-.86 4.38-2.93 5.97-6.9 5.29-13.88 10.5-20.4 16.23-4.08 3.58-7.91 7.69-10.93 12.18-3.17 4.73-2.32 6.53 1.36 10.87 10.29 12.12 20.97 23.96 30.48 36.67 7.14 9.54 12.84 20.19 18.95 30.48 6.16 10.37 13.86 19.57 22.12 28.2 4.16 4.35 9.68 7.48 14.85 10.74 4.89 3.08 9.18 6.46 11.01 12.19 1.08 3.38.19 6-3.14 6.58-2.62.46-6.03.36-8.14-.98-11.71-7.45-23.19-15.25-34.6-23.16-2.56-1.78-4.61-4.35-6.72-6.71-19.93-22.42-39.85-44.85-59.71-67.34-4.67-5.29-10.26-8.81-17.25-9.93-1.13-.18-2.72-.08-3.49.6-6.61 5.79-13.09 11.74-20.01 18.02 4.18 2.71 8.04 5.41 12.1 7.79 5.66 3.32 11.52 6.31 17.19 9.63 6.42 3.76 11.92 8.47 14.72 15.68.96 2.46 1.1 4.69-.19 7.23-3.85 7.54-7.56 15.16-10.98 22.91-.78 1.78-.79 4.44-.05 6.23 1.19 2.88 2.99 5.67 5.1 7.99 6.45 7.12 9.1 15.72 9.84 24.94.91 11.29 1.71 22.6 1.88 33.92.35 22.87 16.61 44.42 38.6 50.5 9.5 2.63 18.86 1.13 27.82-1.9 9.58-3.25 18.9-7.35 28.17-11.45 6.48-2.86 12.63-6.47 19.08-9.42 1.58-.72 4.32-.86 5.49.05 1.17.92 1.73 3.64 1.37 5.32-1.63 7.73-4.29 14.82-10.86 20.18-9.25 7.54-18.53 14.8-30.11 18.48-7.57 2.41-15.24 2.22-22.97 1.27-15.4-1.88-30.38-5.63-45.16-10.23-1.43-.45-2.86-1.38-3.93-2.44-15.48-15.41-24.08-34.45-28.18-55.54-2.18-11.2-3.05-22.65-4.7-33.96-.54-3.74-1.23-7.58-2.61-11.07-2.17-5.48-6.67-5.98-10.34-1.51-11.5 14.01-22.81 28.19-34.53 42.02-9 10.63-20.18 18.06-34.19 20.47-1.39.24-3.43.29-4.24-.52-1.56-1.54-.17-3.26.87-4.78 14.88-21.66 29.94-43.2 44.51-65.07 7.98-11.98 15.42-24.36 20.59-37.9 3.61-9.47 5.74-19.27 6.17-29.4.04-.93-.82-2.32-1.67-2.8-4.33-2.45-8.87-4.53-13.17-7.02-2.13-1.24-3.37-.87-5.19.66-20.55 17.28-38.04 37.45-55.2 57.95-1.91 2.28-3.77 4.61-5.89 6.67-1.57 1.53-3.35 3.09-5.34 3.86-2.02.78-5.72 1.55-6.38.64-1.36-1.86-2.13-5.14-1.44-7.3 1.56-4.89 3.48-9.92 6.42-14.08 17.04-24.17 34.28-48.19 51.76-72.04 3.85-5.26 8.98-9.58 13.43-14.41 1.57-1.7 3.14-3.5 4.24-5.5 3.19-5.81 2.02-9.5-3.68-12.64-18.28-10.06-36.53-20.17-54.84-30.17-4.36-2.38-8.91-4.43-13.39-6.59-3.5-1.68-5.53-4.47-6.45-8.18-.48-1.92-.03-3.09 1.93-3.95 6.1-2.67 12.49-3.03 18.67-1.25 11.07 3.19 21.94 7.03 32.9 10.62 1.81.59 3.58 1.32 5.4 1.87 8.29 2.48 16.38 4.99 23.03 11.24 4.17 3.92 9.61 6.59 15.65 7.18 4.4.43 8.29-.31 11.54-3.8 7-7.52 14.25-14.81 21.31-22.28 1.51-1.6 2.7-3.53 3.9-5.4 4.08-6.34 8.01-12.7.65-19.91z" fill="#000001"/><g fill="#fafbfa"><path d="m37.59 393.81c-.92.31-1.52.05-2-.78-.7-1.2-1.52-2.34-2.47-3.78v4.59c-.55.03-.95.05-1.41.07-.03-.37-.06-.64-.06-.91 0-1.91 0-3.81 0-5.7 1.13-.41 1.77-.03 2.29.91.62 1.11 1.38 2.14 2.31 3.19v-4.2h1.35v6.61z"/><path d="m12.94 393.88v-6.75c1.9.19 3.93-.54 5.37 1.29.8 1.01.78 2.88.03 3.97-1.37 1.97-3.4 1.51-5.4 1.49m1.45-1.22c2.04.12 2.92-.58 2.89-2.21-.03-1.51-.98-2.19-2.89-2z"/><path d="m11.81 393.87h-5.49c.68-2.18 2.47-3.48 3.51-5.45h-3.08v-1.21h5.29c-.71 2.13-2.44 3.48-3.47 5.51.86 0 1.63.04 2.39-.01.79-.05 1.14.21.85 1.16"/><path d="m39.33 393.86v-6.61h3.7v1.07h-2.22v1.52c.68.04 1.34.09 2.07.13v1.07c-.72.05-1.38.09-2.1.14v1.48h2.4v1.19h-3.85z"/><path d="m27.71 388.56c-1.15-.3-2.46-.61-3.1.64-.37.73-.41 1.93-.06 2.67.63 1.35 1.99.93 3.17.68.35.94-.01 1.32-.93 1.46-1.62.25-3.05-.27-3.76-1.48-.73-1.24-.6-3.03.31-4.17.88-1.11 2.71-1.7 4-1.16.32.13.44.74.65 1.12-.1.08-.19.16-.28.24"/><path d="m49.15 387.24v1.07c-.59.02-1.17.05-1.87.08v5.44h-1.48v-5.44h-1.85c-.05-.4-.08-.73-.13-1.15z"/><path d="m20.06 387.21h1.33v6.62h-1.33z"/><path d="m30.68 393.25c-.49.38-.8.79-1.05.76-.32-.05-.6-.45-.9-.7.26-.24.51-.64.8-.67.29-.04.62.3 1.15.61"/></g></svg>