<svg enable-background="new 0 0 400 400" viewBox="0 0 400 400" xmlns="http://www.w3.org/2000/svg"><path d="m6.44 374.46.42-.45c.65.47 1.27.95 1.85 1.44l-.45.49c-.65-.56-1.25-1.06-1.82-1.48m.93 7.33-.63-.26c.55-1.36 1.05-2.8 1.52-4.33.19.1.38.19.59.27-.46 1.29-.95 2.73-1.48 4.32m-.38-10.38.44-.42c.43.34 1.01.82 1.74 1.44l-.49.49c-.53-.51-1.09-1.01-1.69-1.51m2.5.35h1.72v-1.04h.59v1.04h3.52v-1.04h.59v1.04h1.75v.53h-1.75v1.42h-2.03v.97h3.22v2.03h-3.24c0 .35-.01.66-.03.93h3.32v.53h-3.37c-.03.27-.08.58-.15.94h3.96v.53h-3.71c.67.92 1.93 1.48 3.79 1.68-.13.24-.23.44-.29.59-2.13-.38-3.48-1.08-4.04-2.12-.43.97-1.77 1.72-4.03 2.23-.09-.19-.2-.37-.33-.55 2.1-.42 3.37-1.03 3.81-1.83h-3.36v-.53h3.58c.08-.29.13-.61.16-.94h-3.33v-.53h3.39c.02-.27.04-.58.04-.93h-3.23v-2.03h3.25v-.97h-2.07v-1.42h-1.73zm1.12 3.44v1h2.65c.01-.3.02-.44.01-.4v-.25-.35zm1.19-2h3.52v-.91h-3.52zm4.71 2h-2.63v.59c0 .15-.01.28-.01.4h2.64z" fill="#fbfcfa"/><path d="m13.56 383.74h.63v1.52h2.72v6.07h1.13v.6h-11.06v-.6h1.13v-6.07h2.73v-1.52h.63v1.52h2.1v-1.52zm-2.69 8.83.38.56c-1.24.63-2.53 1.25-3.85 1.85-.1-.21-.21-.42-.34-.63 1.36-.55 2.63-1.15 3.81-1.78m-2.13-4.27h2.1v-2.45h-2.1zm0 3.04h2.1v-2.46h-2.1zm2.72-3.04h2.1v-2.45h-2.1zm0 3.04h2.1v-2.46h-2.1zm6.07 3.6c-1.41-.71-2.7-1.3-3.86-1.78l.35-.56c1.45.62 2.75 1.19 3.88 1.72zm-1.25-9.09h-2.1v2.45h2.1zm-2.09 5.49h2.1v-2.46h-2.1z" fill="#fbfcfa"/><g fill="#010100"><path d="m322.52 223.44c.6-9.71 1.16-18.77 1.71-27.84.56-9.18 1.15-18.36 1.59-27.55.08-1.65-.36-3.37-.78-5-1.65-6.46-3.41-7.36-9.95-6.29-8.52 1.39-16.76 3.71-24.52 7.44-6.31 3.03-12.85 3.73-19.51 2.33-7.84-1.65-15.69-3.49-23.31-5.97-5.33-1.74-9.72-5.23-11.24-11.19-.16-.61-.26-1.24-.33-1.87-.04-.4.03-.82.06-1.5 26.45-4.4 52.85-8.78 79.61-13.23-.37-3.42-.62-6.67-1.12-9.88-.12-.79-.94-1.62-1.64-2.17-11.32-8.85-24.4-12.35-38.27-9.77-14 2.61-27.7 6.89-41.49 10.58-7.97 2.13-15.88 4.54-23.81 6.82-4.03 1.16-6.73 7-5 10.83 5.7 12.64 11.4 25.29 17.11 37.93.39.85.83 1.68 1.28 2.58 8.56-1.34 16.98-3.11 25.49-3.88 14.59-1.32 29.24-1.52 43.59 2.17 5.88 1.51 10.98 4.45 13.92 10.41-4.95 4.34-10.81 6.79-16.95 8.41-15.34 4.06-31.02 5.99-46.86 5.78-5.11-.07-10.19-1.78-15.28-2.73-1.23-.23-2.47-.44-4.04-.72-1.33 4.2-2.55 8.34-3.95 12.42-2.23 6.49-4.71 12.89-6.86 19.41-2.05 6.19-3.87 12.47-5.72 18.73-.55 1.86.17 3.06 2 4.02 5.81 3.05 11.48 6.39 17.29 9.44 1.18.62 2.83.9 4.14.66 22.83-4.07 45.65-8.25 68.47-12.37 6.98-1.26 13.96-2.64 20.99-3.51 3.4-.42 6.93.32 10.4.28 1.13-.01 2.78-.53 3.29-1.37 1.58-2.59 2.74-5.44 4.03-8.2.84-1.8 1.29-3.91 2.52-5.37 3.94-4.7 7.15-4.27 9.8 1.11 4.48 9.1 4.3 18.71 2.5 28.31-1.27 6.75-3.02 13.43-4.98 20.02-2.83 9.53-7.17 18.17-14.32 25.46-7.78 7.95-14.84 16.6-22.33 24.83-4.16 4.57-9.96 6.14-15.68 6.94-17.22 2.42-34.06.73-50.01-6.6-2.68-1.23-4.93-3.5-7.22-5.49-13.07-11.37-17.44-27.36-22.67-42.89-2.47-7.35-5-14.71-10.31-20.58-2.12-2.34-4.87-4.12-7.33-6.15-.25.22-.5.44-.74.66.45 5.99.51 12.05 1.43 17.97 3.22 20.69-4.16 38.55-14.54 55.57-5.21 8.55-11.79 16.07-19.65 22.35-13.34 10.68-28.51 12.96-44.99 10.02-8.32-1.48-14.86-4.69-19.46-12.32-4.24-7.05-9.82-13.29-14.63-20.01-1.25-1.74-2.19-3.87-2.7-5.95-2.45-10.19-4.66-20.44-7.08-30.64-.35-1.46-1.13-2.97-2.11-4.11-3.58-4.17-7.34-8.2-11.32-12.6 4.5-1.38 8.4-.45 12.23 1.06 1.57.62 3.08 1.43 4.55 2.27 4.56 2.61 9.28 3.12 14.38 1.75 18.87-5.05 38.24-7.34 57.5-10.28 13.74-2.1 26.29-7.35 36.98-16.44 1.12-.95 2-2.74 2.11-4.21.89-12.05 1.63-24.12 2.25-36.18.05-1.01-.81-2.54-1.7-3.05-4-2.34-8.3-1.85-12.65-1-15.17 2.99-30.29 6.3-45.56 8.61-6.03.91-12.42-.42-18.64-.82-4.86-.31-9.72-.88-14.58-1.01-1.3-.03-3.08.79-3.85 1.81-2.08 2.78-4.46 5.66-5.43 8.9-5.56 18.53-19.27 30.22-33.87 41.22-2.5 1.89-5.35 3.32-8.12 5.02-3.78-4.28-4-8.91-3.12-13.72.3-1.65.79-3.35 1.61-4.8 5.74-10.11 11.28-20.35 17.49-30.17 6.08-9.63 9.42-20.05 11.19-31.14.2-1.25.35-2.52.48-3.78.68-6.27.11-12.25-3.91-17.5-.95-1.23-1.56-2.72-1.95-3.41 3.02-2.49 6.38-4.32 8.38-7.12 3.02-4.24 2.71-9.58 1.94-14.49-1.53-9.72-3.45-19.38-5.44-29.02-.29-1.43-1.6-2.86-2.8-3.85-5.23-4.28-10.16-8.69-10.98-16.32 8.3-1.12 16.21-2.7 23.62 3.35 3.92 3.2 8.87 5.28 13.6 7.31 4.35 1.88 8.51 3.92 11.49 7.64 1 1.25 1.77 3.15 1.7 4.72-.48 11.12-1.21 22.23-1.84 33.35-.29 5.1 2.92 7.68 8.02 6.21 3.96-1.14 7.8-2.7 11.71-4 13.03-4.35 26.47-4.18 39.96-3.66 5.7.22 11.42.04 17.42.04-1.44-4.23-2.79-8.66-4.53-12.94-.37-.92-2.11-1.74-3.27-1.81-8.66-.53-17.34-.8-26.01-1.3-3.25-.19-6.62-.33-9.7-1.27-9.44-2.89-13.03-10.37-14.54-19.79 1.46-.14 2.77-.37 4.08-.39 20.2-.31 39.6-5.05 59.03-10.08 24.6-6.36 49.31-12.3 74.08-17.96 5.03-1.15 10.55-.45 15.83-.18 10.87.56 21.38 2.87 31.44 7.12 14.29 6.04 23.29 17.01 27.4 31.52 3.77 13.32 6.2 27.02 9.12 40.57.25 1.16-.04 2.53-.36 3.72-3.9 14.41-7.89 28.79-11.75 43.21-.53 1.97-1.42 3.06-3.42 3.55-3.01.77-5.91 1.76-10.09 3.01zm-57.13 91.95c9.66-.21 16.61-1.82 22.92-5.64 11.03-6.68 20.73-14.97 29.64-24.28 3.35-3.5 5.4-7.52 6.66-12.06 1.17-4.22-1.75-7.29-5.98-6.13-24.87 6.86-49.72 13.78-74.54 20.8-.82.23-1.86 1.66-1.84 2.51.08 3.05.21 6.19.98 9.12 1.49 5.66 4.27 10.97 9.88 13.18 4.51 1.79 9.65 2.01 12.28 2.5zm-161.75 4.65c-.64 6.72.36 12.94 5.26 18.01.76.79 1.81 1.64 2.83 1.78 5.86.83 11.73 1.84 17.62 2.04 6.21.21 11.67-1.87 16.17-6.68 4.77-5.09 9.98-9.81 15.31-14.32 3.76-3.17 6.64-6.72 8.22-11.36 1.22-3.6 2.86-7.09 3.74-10.77 1.27-5.28-1.83-7.99-6.95-6.48-17.56 5.17-35.12 10.32-52.67 15.5-2.92.86-6.92 1.05-8.4 3.05-1.6 2.17-.85 6.08-1.13 9.23zm-4.45-112.39c13.01-3.12 25.44-6.2 37.91-9.07 11.32-2.6 22.43-6.33 34.25-6.33 5.52 0 10.98-.38 16.16-2.68 5.17-2.3 6.21-5.24 2.78-9.88-1.18-1.6-3.07-3.11-4.94-3.7-3.39-1.05-7.08-2.18-10.51-1.87-14.53 1.32-29.05 2.92-43.51 4.89-9.27 1.27-18.18 4.1-26.11 9.32-1.4.92-3.07 2.32-3.41 3.77-1.13 4.93-1.72 9.97-2.62 15.55z"/><path d="m98.56 70.14c-1.17-3.78-.27-5.48 3.16-6.57 16.33-5.21 32.48-11.01 48.87-16.02 19.76-6.04 40.23-8.12 60.76-9.53 16.8-1.15 33.62-2.17 50.43-3.22 7.94-.5 15.6 1.17 23.15 3.34 1.6.46 3.11 1.34 4.54 2.22 2.46 1.52 3.56 3.62 3.1 6.69-1.03 6.86-.92 6.9-7.64 8.51-13.69 3.28-27.41 6.45-41.07 9.87-3.77.94-7.55 2.24-11.01 4-8.08 4.09-16.71 5.05-25.54 5.4-28.94 1.13-57.84.26-86.69-2.03-7.48-.6-14.89-1.78-22.06-2.66z"/></g></svg>