<svg enable-background="new 0 0 400 400" viewBox="0 0 400 400" xmlns="http://www.w3.org/2000/svg"><path d="m195.51 366.58c-1.37-4.27-.42-8.1 1.31-11.63 2.79-5.7 6.04-11.18 8.91-16.84 5.95-11.74 8.05-24.45 9.23-37.4 1.28-14.04.41-27.94-2.18-41.76-.11-.61-.28-1.21-.6-2.62-4.18.68-8.34 1.15-12.4 2.08-5.57 1.28-11.08 2.81-16.56 4.44-1.29.38-2.62 1.35-3.47 2.41-4.96 6.24-12.01 8.2-19.28 5.12-.66-.28-1.19-.88-1.83-1.22-3.04-1.62-5.96-3.66-9.19-4.71-6.4-2.08-9.62-4.4-10.9-8.44 7.9-2.04 15.89-3.87 23.73-6.22 4.02-1.2 7.83-3.21 11.64-5.04 11.06-5.3 22.08-10.7 33.5-16.24-1.46-5.59-2.98-11.5-4.53-17.39-1.32-5.02-3-9.97-3.92-15.06-.91-5.08-3.68-8.62-7.81-11.76-3.81 2.63-7.79 5.21-11.59 8.02-14.55 10.79-29 21.72-43.58 32.46-10.08 7.42-20.33 14.66-32.52 18.29-4.93 1.47-10.04 2.31-14.92 3.4-2.11-3.33-1.2-5.11 1.25-7.13 27.91-22.99 55.72-46.1 83.55-69.18.8-.66 1.55-1.38 2.6-2.32-6.25-3.25-12.11-6.67-18.27-9.41-6.59-2.93-11.98-7.07-15.86-13.11-1.41-2.2-3.19-2.65-5.63-2.37-3.89.45-7.45 1.13-10.91 3.49-7.38 5.04-15.85 5.62-24.45 4.01-9.84-1.85-19.35-4.73-27.69-10.54-1.06-.74-2.1-2.07-2.28-3.25-.09-.59 1.66-1.81 2.76-2.2 37.95-13.33 75.86-26.8 113.96-39.7 7.83-2.65 16.38-3.22 24.62-4.67 7.72-1.36 15.46-2.58 23.17-3.99.94-.17 2.41-1.06 2.49-1.75.72-6.11 4.21-11 6.75-16.32 1.2-2.51 2.19-5.36 2.31-8.09.29-6.42-3.2-10.15-9.49-9.03-17.97 3.2-36.53 3.89-53.4 12.05-8.38 4.06-16.64 8.5-25.32 11.8-10.06 3.82-20.37 7.27-30.85 9.62-10.23 2.29-20.71.99-30.73-2.22-2.4-.77-4.37-2.88-6.53-4.37.15-.35.31-.69.46-1.04 7.95-2.53 15.87-5.21 23.87-7.58 21.55-6.37 42.57-14.1 63.22-23 6.89-2.97 14.67-3.91 22.07-5.61 6.09-1.4 12.28-2.34 18.34-3.84 11.48-2.84 22.51-.62 33.45 2.62 3.13.93 6.22 2.16 9.12 3.65 10.46 5.37 11.82 14.76 10.09 24.36-.16.92-1.32 1.83-2.23 2.41-7.49 4.75-15.04 9.41-23.13 14.45 1.18.24 1.73.48 2.27.44 15.85-1.03 31.16 2.93 46.66 5.09 6.4.89 12.81 1.71 19.14 2.99 1.8.36 3.87 1.88 4.8 3.46 1.6 2.74.38 4.62-2.7 5.47-10.41 2.87-21.02 2-31.6 1.72-13.27-.34-26.49.09-39.64 2.12-7.51 1.16-9.32 5.46-4.57 11.48 4.43 5.61 3.07 11.69 2.2 17.93-.75 5.41-4.42 8.41-8.92 11.87 3.53 1.61 6.43 3.6 9.6 4.28 15.58 3.32 29.12 11.4 43.2 18.2 8.66 4.18 17.25 8.59 25.46 13.57 4.06 2.46 7.51 6.18 10.58 9.88 1.5 1.81 1.49 4.88 2.17 7.38-2.55.18-5.16.81-7.62.42-2.55-.4-5.15-1.46-7.37-2.81-20.64-12.49-43.49-19.11-66.43-25.68-7.68-2.2-15.03-1.52-22.59-.9-2.52.21-5.03.49-7.91.78 1.05 4.57 1.25 9.05 4.4 12.8 2.85 3.4 4.94 7.47 7.93 10.73 4.56 4.97 5.71 10.87 6.05 17.21.14 2.52.53 5.03.81 7.58 5.51.31 10.93.24 16.22 1.01 10.16 1.47 20.3 3.21 30.35 5.29 3.64.75 7.11 2.64 10.47 4.35 1.42.72 2.61 2.19 3.5 3.58 3.22 5 2.12 8.15-3.68 8.52-8.63.55-17.33.36-25.98.05-5.98-.21-11.86-.32-17.57 1.74-1.38.5-2.74 1.16-3.98 1.96-3.01 1.95-4.6 4.24-4.07 8.38 1.26 9.97 2.82 20.07 2.45 30.06-.84 22.68-6.79 44.15-19.4 63.3-5.79 8.82-14.03 14.88-24.58 18.12zm-43.23-229.85c1.93.85 3.15 1.57 4.46 1.93 6.93 1.87 13.84 3.86 20.85 5.39 5.53 1.21 11.17 2.08 16.8 2.58 3.98.35 7.46-.88 10.11-4.56 3.34-4.62 7.07-9.03 11.11-13.04 3.77-3.74 3.61-8.17 3.3-12.66-.24-3.5-2.01-4.27-5.42-3.12-8.81 2.97-17.61 5.99-26.48 8.79-11.71 3.69-23.23 7.8-34.73 14.69z" fill="#000001"/><g fill="#fafbfa"><path d="m37.59 393.81c-.92.31-1.52.05-2-.78-.7-1.2-1.52-2.34-2.47-3.78v4.59c-.55.03-.95.05-1.41.07-.03-.37-.06-.64-.06-.91 0-1.91 0-3.81 0-5.7 1.13-.41 1.77-.03 2.29.91.62 1.11 1.38 2.14 2.31 3.19v-4.2h1.35v6.61z"/><path d="m12.94 393.88v-6.75c1.9.19 3.93-.54 5.37 1.29.8 1.01.78 2.88.03 3.97-1.37 1.97-3.4 1.51-5.4 1.49m1.45-1.22c2.04.12 2.92-.58 2.89-2.21-.03-1.51-.98-2.19-2.89-2z"/><path d="m11.81 393.87h-5.49c.68-2.18 2.47-3.48 3.51-5.45h-3.08v-1.21h5.29c-.71 2.13-2.44 3.48-3.47 5.51.86 0 1.63.04 2.39-.01.79-.05 1.14.21.85 1.16"/><path d="m39.33 393.86v-6.61h3.7v1.07h-2.22v1.52c.68.04 1.34.09 2.07.13v1.07c-.72.05-1.38.09-2.1.14v1.48h2.4v1.19h-3.85z"/><path d="m27.71 388.56c-1.15-.3-2.46-.61-3.1.64-.37.73-.41 1.93-.06 2.67.63 1.35 1.99.93 3.17.68.35.94-.01 1.32-.93 1.46-1.62.25-3.05-.27-3.76-1.48-.73-1.24-.6-3.03.31-4.17.88-1.11 2.71-1.7 4-1.16.32.13.44.74.65 1.12-.1.08-.19.16-.28.24"/><path d="m49.15 387.24v1.07c-.59.02-1.17.05-1.87.08v5.44h-1.48v-5.44h-1.85c-.05-.4-.08-.73-.13-1.15z"/><path d="m20.06 387.21h1.33v6.62h-1.33z"/><path d="m30.68 393.25c-.49.38-.8.79-1.05.76-.32-.05-.6-.45-.9-.7.26-.24.51-.64.8-.67.29-.04.62.3 1.15.61"/></g></svg>