<svg enable-background="new 0 0 400 400" viewBox="0 0 400 400" xmlns="http://www.w3.org/2000/svg"><path d="m6.44 374.46.42-.45c.65.47 1.27.95 1.85 1.44l-.45.49c-.65-.56-1.25-1.06-1.82-1.48m.93 7.33-.63-.26c.55-1.36 1.05-2.8 1.52-4.33.19.1.38.19.59.27-.46 1.29-.95 2.73-1.48 4.32m-.38-10.38.44-.42c.43.34 1.01.82 1.74 1.44l-.49.49c-.53-.51-1.09-1.01-1.69-1.51m2.5.35h1.72v-1.04h.59v1.04h3.52v-1.04h.59v1.04h1.75v.53h-1.75v1.42h-2.03v.97h3.22v2.03h-3.24c0 .35-.01.66-.03.93h3.32v.53h-3.37c-.03.27-.08.58-.15.94h3.96v.53h-3.71c.67.92 1.93 1.48 3.79 1.68-.13.24-.23.44-.29.59-2.13-.38-3.48-1.08-4.04-2.12-.43.97-1.77 1.72-4.03 2.23-.09-.19-.2-.37-.33-.55 2.1-.42 3.37-1.03 3.81-1.83h-3.36v-.53h3.58c.08-.29.13-.61.16-.94h-3.33v-.53h3.39c.02-.27.04-.58.04-.93h-3.23v-2.03h3.25v-.97h-2.07v-1.42h-1.73zm1.12 3.44v1h2.65c.01-.3.02-.44.01-.4v-.25-.35zm1.19-2h3.52v-.91h-3.52zm4.71 2h-2.63v.59c0 .15-.01.28-.01.4h2.64z" fill="#fbfcfa"/><path d="m13.56 383.74h.63v1.52h2.72v6.07h1.13v.6h-11.06v-.6h1.13v-6.07h2.73v-1.52h.63v1.52h2.1v-1.52zm-2.69 8.83.38.56c-1.24.63-2.53 1.25-3.85 1.85-.1-.21-.21-.42-.34-.63 1.36-.55 2.63-1.15 3.81-1.78m-2.13-4.27h2.1v-2.45h-2.1zm0 3.04h2.1v-2.46h-2.1zm2.72-3.04h2.1v-2.45h-2.1zm0 3.04h2.1v-2.46h-2.1zm6.07 3.6c-1.41-.71-2.7-1.3-3.86-1.78l.35-.56c1.45.62 2.75 1.19 3.88 1.72zm-1.25-9.09h-2.1v2.45h2.1zm-2.09 5.49h2.1v-2.46h-2.1z" fill="#fbfcfa"/><path d="m60.06 263.6c4.67-.85 9.31-1.91 14-2.49 9.8-1.22 18.82-4.88 27.85-8.5 5.56-2.23 11.19-3.68 17.18-4.03 5.85-.34 8.22-3.11 8.22-8.9 0-2.23.15-4.47-.05-6.68-.15-1.77-.13-4.23-1.21-5.1-2.74-2.19-5.91-4.82-9.73-3.58-4.07 1.33-8.19 3.03-11.72 5.41-5.16 3.49-10.57 6.23-16.75 6.01-8-.29-15.97-1.44-23.95-2.23-2.88-.28-4.55-1.91-5.22-5.07 23-10.47 46.08-20.97 69.67-31.72-7.52-4.41-14.6-8.57-21.7-12.7-.41-.24-1.09-.42-1.48-.24-4.52 1.98-9.4 3.46-13.42 6.2-5.99 4.08-12.23 6.54-19.96 6.69 1.15-4.21 1.05-8.11 5.13-11.1 16.16-11.86 28.93-26.95 40.15-43.75-1.66-.58-3.02-1.19-4.44-1.54-8.62-2.08-16.26-6.02-22.58-12.26-2.9-2.87-6.07-3.67-9.78-2.37-1.17.41-2.35 1.17-3.18 2.08-3.03 3.38-5.6 7.23-8.95 10.21-2.08 1.85-5.22 2.57-7.98 3.55-2.29.82-3.66-.44-4.02-2.67-.22-1.34-.58-2.97-.04-4.07 2.33-4.81 4.2-10.13 7.61-14.09 14.17-16.49 27.02-33.83 35.36-54.01 2.9-7.01 4.88-14.67 2.36-22.57-.96-3.02.59-4.43 3.71-3.54 2.13.61 4.15 1.59 6.21 2.42 8.35 3.35 16.73 6.64 25.01 10.14 1.21.51 2.7 2.04 2.79 3.2.55 7.25 4.32 10.89 11.4 12.27 5.89 1.15 11.72 2.98 17.32 5.19 7.16 2.82 14.02 6.42 21.08 9.51 5.61 2.46 11.33 4.64 16.98 7 1.83.77 3.05.34 4.42-1.12 10.72-11.38 17.35-25 21.6-39.84.58-2.01-.48-4.48-.74-6.73-.17-1.5-.69-3.13-.3-4.49.64-2.27 2.13-3.45 4.83-2.26 4.16 1.83 8.54 3.16 12.66 5.07 7.91 3.67 10.19 11.61 5.78 19.3-.89 1.56-1.8 3.11-2.69 4.67-.04.07.01.2.05.68 7.02 1.77 14.16 3.58 21.3 5.36 7.09 1.77 14.26 3.24 21.26 5.32 7.49 2.22 13.5 7.12 18.91 12.5 17.31 17.2 20.34 37.74 13.51 60.42-2.04 6.77-5.2 12.85-10.13 18.09-4.86 5.17-9.23 10.8-13.9 16.15-1.09 1.25-2.46 2.33-3.89 3.18-14.01 8.36-28.06 16.66-42.09 24.98-.99.59-1.96 1.2-3.23 1.99 2.68 2.21 5.5 2.97 8.34 1.69 3.93-1.76 7.84-3.72 11.42-6.09 13.36-8.83 27.9-13.23 43.91-11.77 10.47.95 16.71 5.6 18.53 14.11 1.73 8.06.11 16.08-4.77 22.66-7.07 9.52-14.9 18.49-22.49 27.62-1.17 1.4-1.4 2.48-.57 4.18 2.61 5.32 4.96 10.77 7.51 16.12.72 1.51 1.72 2.89 2.68 4.27 5.74 8.26 11.66 16.4 17.19 24.8 1.86 2.82 2.77 6.27 4.41 10.1-6.56-.41-11.77-.15-16.43-5.05-11.38-11.99-23.47-23.31-35.2-34.97-1.24-1.23-2.22-1.49-3.85-.82-6.76 2.77-13.58 5.37-20.37 8.08-3.71 1.48-4.44 4.89-1.73 7.77 13.04 13.94 26.08 27.88 39.12 41.82.57.61 1.09 1.27 1.59 2.93-2.5.04-5.08.5-7.46 0-2.19-.46-4.25-1.83-6.23-3.02-9.47-5.67-17.78-12.88-26.45-19.66-14.84-11.61-30.39-22.32-45.74-33.27-15.06-10.74-28.92-22.89-42.5-35.39-.92-.85-1.35-2.22-2.18-3.63-3.57.98-7.55 1.72-11.22 3.24-1.7.71-3.4 2.73-4 4.52-1.29 3.84-2.88 8.01-2.56 11.89.95 11.56-1.34 22.5-4.35 33.49-3.4 12.46-6.5 25-9.53 37.55-1.44 5.96-2.17 12.1-3.65 18.05-1.41 5.69-4.98 9.7-11.09 11.49 1.11-32.9 6.71-65.46 3.55-98.49-.62 0-1.24-.13-1.79.02-7.67 2.03-15.51 3.6-22.95 6.28-13.77 4.97-26.25 1.57-38.43-4.78-2.28-1.19-4.16-3.15-6.23-4.75.1-.31.2-.62.3-.93zm130.76-140.07c2.81-6.51 5.59-12.99 8.51-19.76-6.13-2.93-11.78-6.57-17.97-8.42-18.24-5.47-36.69-10.22-55.05-15.31-1.84-.51-3.03-.27-4.38 1.23-9.43 10.48-19.03 20.8-28.42 31.32-1.48 1.66-2.18 4.02-3.6 6.73 9.36 2.09 17.67 4.15 26.06 5.73 3.9.73 7.99.77 11.98.62 1.57-.06 3.39-1.16 4.58-2.32 4.47-4.38 5.2-10.08 5.62-16.05.28-4.03 1.54-8.01 2.63-11.93.23-.82 1.61-1.77 2.54-1.87 3.15-.35 6.35-.63 9.5-.41 6.29.44 8.3 2.61 10.08 8.62 1.67 5.64 3.4 11.37 6.04 16.59 1.98 3.92 3.07 7.44 1.74 11.67-.5 1.58-.54 3.29-.81 5.06 1.35.5 2.51.98 3.7 1.37 13.04 4.3 24.43 11.06 33.13 21.95.49.61 1.55 1.02 2.37 1.07 3.26.19 5.94-.57 7.08-4.25.65-2.1 2.08-3.96 2.76-6.05.35-1.08.29-2.9-.39-3.61-8.13-8.45-16-17.27-27.7-21.98zm-16.82 120.51c8.58-7.94 14.91-17.25 18.75-28.25 1.68-4.79 3.66-9.48 5.44-14.23 2.48-6.63 3.9-13.44 2.94-20.55-.85-6.23-2.6-11.83-8.65-15.36-4.65-2.71-8.81-6.24-13.23-9.35-1.02-.72-2.15-1.47-3.34-1.74-10.2-2.37-20.42-4.65-30.65-6.89-.73-.16-1.85-.09-2.32.36-5.4 5.15-12.05 9-15.69 15.98-2.87 5.48-1.23 9.81 4.8 11.09 1.86.39 3.76.68 5.66.75 4.7.18 6.72-1.33 8.41-5.66 1.84-4.73 3.93-9.36 5.74-14.1 1-2.63 2.94-3.15 5.31-2.82 4.66.66 10.41 7.19 10.8 11.88.52 6.24-3.32 10.09-7.51 13.56-2.15 1.79-1.87 3.28-.6 5.1 2.4 3.44 6.12 4.19 9.93 4.93 5.49 1.06 11 2.15 16.37 3.66 4.1 1.15 4.69 2.9 1.59 5.87-3.14 3.01-6.85 5.85-10.83 7.46-9.99 4.04-20.28 7.35-30.44 10.96-.64.23-1.25.53-2.01.85 3.8 6.17 7.41 12.16 11.18 18.04.5.77 1.9 1.51 2.78 1.4 3.33-.43 6.72-.89 9.88-1.96 2.64-.89 4.14-.56 4.7 2.17.46 2.26.67 4.54.99 6.85zm93.35-157.59c8.06 1.13 14.26 4.68 19.1 11.05 3.78 4.98 4.89 12.92.91 17.9-1.99 2.49-1.95 4.5-1.04 7.13.97 2.79 1.89 5.64 2.43 8.54 1.4 7.48 4.63 14.01 9.72 19.61.83.92 2.2 2.32 2.98 2.12 2.07-.52 4.57-.65 5.26-3.7 1.17-5.16 2.5-10.3 4.2-15.3 2-5.88 2.3-11.61.9-17.71-3.5-15.23-10.88-27.26-26.66-31.83-13.43-3.89-27.35-4.38-41.28-3.78-.66.03-1.49.38-1.91.86-4.13 4.66-8.19 9.38-12.47 14.31 6.4 3.06 12.5 5.99 18.6 8.9 7 3.35 11.83 1.52 14.67-5.67 1.62-4.11 3.07-8.29 4.59-12.43zm25.78 77.43c-1.43-.65-1.98-1-2.58-1.15-6.26-1.55-10.18-5.49-12.71-11.38-.93-2.18-3.18-3.86-5.02-5.56-2.2-2.05-4.37-2.19-6.22.64-1.33 2.03-3 3.87-4.15 5.99-2.19 4.06-2.13 8.1.77 11.93.89 1.17 1.7 2.44 2.33 3.77 2.19 4.59.81 11.87-2.78 15.06-2.67 2.38-9.83 2.55-13.53-.08-3.09-2.2-5.72-5.03-8.76-7.31-1.78-1.33-3.87-2.61-6-3.05-4.28-.87-8.43.16-12.19 2.41-.64.38-1.41 1.13-1.48 1.78-.82 7.3-.17 14.39 3.66 20.87.37.63 1.54 1.33 2.16 1.19 6.6-1.5 13.62-2.18 19.63-4.99 10.32-4.83 20.21-10.68 29.88-16.75 5.93-3.73 11.09-8.67 16.99-13.37zm-43.42 119.83c3.42-1.45 6.71-2.24 9.27-4.06 4.12-2.93 7.69-6.62 11.62-9.82 2.56-2.08 2.43-4.43 1.24-7.03-3.85-8.41-10.43-13.72-19.11-16.42-1.24-.39-3.16.13-4.3.91-6.8 4.69-13.46 9.58-20.17 14.41-3.19 2.3-3.79 4.35-1.65 7.72 1.1 1.73 2.79 3.16 4.44 4.42 2.51 1.93 5.09 3.87 7.89 5.32 3.4 1.75 7.05 3 10.77 4.55zm-62.49-37.11c9.47 8.38 13.95 8.93 24.67 3.17 1.77-.95 3.52-1.97 5.14-3.15 6.68-4.85 13.39-9.67 19.88-14.77 1.26-.99 2.39-3.27 2.18-4.76-.34-2.48-1.32-5.22-2.91-7.11-3.91-4.64-9.16-7.4-15.07-8.87-2-.5-3.23-.11-4.15 2.06-3.94 9.32-9.58 17.32-17.96 23.34-4.17 2.98-7.84 6.68-11.78 10.09zm90.42-14.01c3.51 3.8 6.82 7.36 10.11 10.94 3.47 3.78 3.7 3.83 8.26 1.39.65-.35 1.32-.7 1.88-1.18 8.18-7.03 13.72-15.82 16.58-26.15.55-1.98-.73-4.55-1.48-6.74-.15-.43-1.92-.8-2.61-.48-12 5.57-22.94 12.72-32.74 22.22zm-73.07-113c8.35 3.91 16.22 7.72 24.2 11.28 4.23 1.89 8.04.66 11.34-2.46 1.22-1.16 2.56-2.2 3.95-3.39-5.61-10.84-14.54-16.22-25.48-18.85-.65-.16-1.72.23-2.2.73-3.8 3.97-7.49 8.02-11.81 12.69z" fill="#010100"/></svg>