<svg enable-background="new 0 0 400 400" viewBox="0 0 400 400" xmlns="http://www.w3.org/2000/svg"><path d="m97.73 344.11c6.53 0 12.37-.25 18.18.05 11 .56 21.43-2.6 31.93-4.85 17.04-3.66 34.1-6.42 51.59-6.17 5.29.08 10.11-1.85 14.47-4.96 3.03-2.17 4.9-5.12 4.35-8.63-.99-6.23-2.41-12.44-4.28-18.46-.42-1.36-3.43-2.73-5.22-2.71-4.28.05-8.64.54-12.8 1.57-11.33 2.79-22.58 5.77-34.41 5.27-6.29-.27-12.26-1.83-17.4-5.34-8.31-5.66-16.5-11.54-24.37-17.78-6.08-4.82-5.26-9.95 1.87-12.83 2.57-1.04 5.96-1.45 8.56-.7 3.98 1.15 7.94 3.09 11.3 5.52 7.41 5.36 19.41 6.38 28.39 1.29-6.91-5.34-13.01-11.5-20.31-15.42-19.4-10.4-39.32-19.84-59.04-29.65-.84-.42-1.72-.75-3.07-1.33-1.21 3.53-2.65 6.81-3.46 10.24-2.08 8.75-3.86 17.57-5.79 26.36-1.17 5.32-2.91 10.41-6.58 14.61-2.68 3.06-6 4.98-10.38 5.54-1.92-4.13-2.04-8.64-1.62-12.96 1.12-11.59 2.18-23.23 4.23-34.67 2.68-14.97 3.86-30.05 4.7-45.17.66-11.96 2.25-23.77 4.13-35.6 2.93-18.47 3.06-37.13 2.03-55.83-.46-8.41.41-16.89.62-25.34.19-7.49.33-14.98.45-22.47.02-1.14-.18-2.29-.27-3.38 4.9-1.91 4.82-1.6 7.99 2.05 9.2 10.61 14.79 22.85 16.78 36.65.8 5.56 3.78 9.09 8.46 11.39 9.39 4.63 18.91 8.98 28.29 13.63 6.69 3.32 12.55.84 17.24-3.31 12.4-10.94 24.43-22.31 36.33-33.8 11.24-10.85 17.38-24.61 21.25-39.51.21-.81.45-1.61.72-2.58 4.46.25 8.41 1.84 11.72 4.46 4.39 3.47 8.63 7.2 12.46 11.27 1.85 1.97 2.84 4.87 3.85 7.49 1.89 4.93 2.37 10.95 5.56 14.69 3.2 3.75 8.95 5.36 13.67 7.74 19.45 9.81 37.94 21.16 54.91 34.86 6.56 5.3 12.13 11.56 15.11 19.7.36.99.66 2.01.92 3.03.13.49.12 1.02.22 1.92-2.69.34-5.26.85-7.84.87-.87.01-1.91-1.11-2.61-1.93-7-8.25-22.21-17.78-33.15-20.54-1.84 4.02-3.99 8.02-5.52 12.25-2.19 6.03-6.25 10.43-11.01 14.44-4.19 3.54-8.69 6.81-10.77 12.27-1.82 4.76-1.84 5.2 1.84 8.77 18.55 18.04 37.09 36.08 55.67 54.09 5.21 5.05 8.15 10.97 7.73 18.62-3.07.68-6.13 1.45-9.23 1.97-.74.12-1.96-.34-2.38-.94-16.35-23.54-39.76-39.42-61.51-57.14-7.21-5.87-15.06-10.12-23.74-13.03-2.02-.68-3.11-1.77-2.92-3.84.5-5.66-2.23-9.66-6.44-12.95-.41-.32-.74-.76-1.13-1.12-9.07-8.24-16.78-17.56-23.35-27.93-4.38-6.91-7.99-7.57-15.56-4.16-4 1.8-7.65 3.92-9.83 8.08-.91 1.75-1.49 3.17-.6 4.99 2.28 4.65 4.49 9.34 6.83 13.96 2.48 4.88 1.27 6.95-4.26 6.67-4.54-.23-8.69-.97-12.46-4.42-6.91-6.33-15.15-7.47-23.98-3.98-3.63 1.43-7.34 2.68-11.09 3.74-1.35.38-2.99.23-4.38-.13-3.49-.89-4.74-4.28-2.86-7.34 2.71-4.42 5.43-8.82 8.2-13.33-5.9-4.91-12.11-8.7-20.44-8.54-.72 4.36-1.46 8.7-2.15 13.04-1.38 8.68-2.72 17.37-4.08 26.06-.22 1.39-.44 2.52 1.37 3.3 11.68 5 23.29 10.13 35.77 15.59 1.45-5.37 2.77-10.51 4.24-15.6.64-2.21 1.2-4.57 2.43-6.45 2.03-3.1 4.74-2.76 6.45.5 3.19 6.1 6.71 12.06 9.42 18.36 1.55 3.6 2.44 7.76 2.47 11.68.07 7.56 4.53 11.45 10.43 14.52 3.01 1.57 5.68 3.33 6.17 7.09.4 3.15-.31 3.58-3.39 4.26-5.79 1.28-10.53-.29-14.77-4.19-1.08-.99-2.41-1.7-3.9-2.74-4.13 4.35-6.67 9.53-8.79 14.92-.84 2.15-1.37 4.46-1.74 6.74-.74 4.53.03 8.22 4.42 11.11 7.51 4.95 14.65 10.49 21.87 15.88 5.44 4.07 8.04 9.38 6.61 16.3-.32 1.52-.39 3.09-.64 5.18 9.9-1.09 19.43-2.14 29.46-3.24-.82-4.45-1.57-8.67-2.39-12.88-2.23-11.43-4.24-22.92-6.87-34.26-.96-4.13-3.37-7.92-5.2-11.83-1.94-4.15-1.38-6.19 2.3-8.51 8.75 5.59 17.65 10.74 25.93 16.72 7.32 5.28 10.68 12.93 9.83 22.16-.38 4.11-.81 8.24-.88 12.36-.03 2.17.43 4.43 1.09 6.52 1.16 3.62 3.38 5.74 7.68 5.66 18.18-.3 35.54 3.71 52.12 10.99 10.18 4.47 14.48 12.84 12.59 23.72-.24 1.4-1.13 3.1-2.26 3.85-4.89 3.28-9.91 6.4-15.05 9.28-1.29.72-3.18 2.24-4.81.12-1.67-2.16-3.01-4.37-1.91-7.28.89-2.37 1.98-4.72 2.43-7.18 1.25-6.75-3.16-13.4-9.92-14.23-10-1.24-19.67 1.22-28.85 4.78-2.31.9-3.87 4.9-4.88 7.8-2.59 7.45-1.41 15.06-.06 22.92 1.23 0 2.38.06 3.51-.01 14.73-.96 29.14 1.35 43.54 4.04 9.26 1.73 18.68 2.78 27.82 4.99 7.02 1.7 13.78 4.59 20.53 7.28 2.81 1.12 4.71 3.51 5.4 6.67 1.1 5.05-.32 7.35-5.3 8.39-1.45.3-2.92.55-4.34.97-5.14 1.51-10.12 1.28-15.17-.62-10.04-3.79-20.43-4.96-31.17-4.55-11.54.44-23.13.45-34.67.01-13.9-.53-27.42 1.42-40.95 4.21-20.23 4.16-40.53 7.95-60.82 11.78-1.74.33-3.81.11-5.47-.51-11-4.12-21.87-8.6-32.93-12.56-4.19-1.56-6.33-4.61-9.01-8.39zm102.89-239.17c10.6 10.92 20.88 21.75 31.45 32.29 4.08 4.07 8.8 2.93 12.36-1.56 5.3-6.67 8.26-14.46 11.81-22.02 1.9-4.05 1.92-7.98-.04-11.58-1.77-3.26-4.09-6.61-7.01-8.79-6.09-4.55-12.75-8.33-19.14-12.48-1.39-.9-2.33-.77-3.54.38-4.47 4.23-9.04 8.34-13.58 12.49-4.04 3.71-8.09 7.41-12.31 11.27zm-102.86 73.07c-4.41 9.26-7.88 17.94-7.5 27.66.22 5.6 1.81 7.69 6.95 9.52 4.08 1.46 8.08 3.22 12.25 4.33 3.52.94 7.23 1.37 10.88 1.55 1.23.06 3.34-1.09 3.68-2.13 1.76-5.52 3.63-11.1 4.43-16.8 1.24-8.87-.55-12.08-8.75-15.81-7-3.17-14.38-5.49-21.94-8.32z" fill="#000001"/><g fill="#fafbfa"><path d="m37.59 393.81c-.92.31-1.52.05-2-.78-.7-1.2-1.52-2.34-2.47-3.78v4.59c-.55.03-.95.05-1.41.07-.03-.37-.06-.64-.06-.91 0-1.91 0-3.81 0-5.7 1.13-.41 1.77-.03 2.29.91.62 1.11 1.38 2.14 2.31 3.19v-4.2h1.35v6.61z"/><path d="m12.94 393.88v-6.75c1.9.19 3.93-.54 5.37 1.29.8 1.01.78 2.88.03 3.97-1.37 1.97-3.4 1.51-5.4 1.49m1.45-1.22c2.04.12 2.92-.58 2.89-2.21-.03-1.51-.98-2.19-2.89-2z"/><path d="m11.81 393.87h-5.49c.68-2.18 2.47-3.48 3.51-5.45h-3.08v-1.21h5.29c-.71 2.13-2.44 3.48-3.47 5.51.86 0 1.63.04 2.39-.01.79-.05 1.14.21.85 1.16"/><path d="m39.33 393.86v-6.61h3.7v1.07h-2.22v1.52c.68.04 1.34.09 2.07.13v1.07c-.72.05-1.38.09-2.1.14v1.48h2.4v1.19h-3.85z"/><path d="m27.71 388.56c-1.15-.3-2.46-.61-3.1.64-.37.73-.41 1.93-.06 2.67.63 1.35 1.99.93 3.17.68.35.94-.01 1.32-.93 1.46-1.62.25-3.05-.27-3.76-1.48-.73-1.24-.6-3.03.31-4.17.88-1.11 2.71-1.7 4-1.16.32.13.44.74.65 1.12-.1.08-.19.16-.28.24"/><path d="m49.15 387.24v1.07c-.59.02-1.17.05-1.87.08v5.44h-1.48v-5.44h-1.85c-.05-.4-.08-.73-.13-1.15z"/><path d="m20.06 387.21h1.33v6.62h-1.33z"/><path d="m30.68 393.25c-.49.38-.8.79-1.05.76-.32-.05-.6-.45-.9-.7.26-.24.51-.64.8-.67.29-.04.62.3 1.15.61"/></g></svg>