<svg enable-background="new 0 0 400 400" viewBox="0 0 400 400" xmlns="http://www.w3.org/2000/svg"><path d="m148.71 69.26c3.83.17 6.63 1.43 8.99 4.09 1.95 2.2 4.34 4.02 6.59 5.94 1.12.96 2.36 1.8 3.55 2.68 9.64 7.14 12.29 16.77 9.98 28.15-.34 1.66-.65 3.33-1.1 4.96-1.23 4.48-3.1 8.25-6.74 11.73-4.95 4.74-8.55 10.88-12.72 16.41.2.34.39.69.59 1.03 3.29.15 6.59.42 9.88.43 20.76.07 41.54-.23 62.29.25 11.92.28 23.96.95 35.69 2.97 14.38 2.48 24.97 11.48 33.15 23.35 5.09 7.4 8.36 15.48 8.49 24.54.04 3.23-.65 6.51-1.31 9.71-.59 2.85-2.13 5.08-4.63 6.91-5.79 4.25-11.33 8.84-17.14 13.42 8.57 5.08 17.65 7.28 27.02 8.73 13.54 2.09 27.12 3.19 40.84 2.91 7.91-.16 14.55 9.9 11.67 17.16-.32.81-1.15 1.49-1.87 2.06-7.03 5.54-15.36 6.96-23.94 7.05-9.18.1-18.48-1.25-27.54-.27-20.22 2.19-38.86-3.71-57.36-10.09-6.45-2.23-12.46-6.47-17.87-10.79-10.18-8.13-19.8-16.97-29.6-25.57-1.33-1.17-2.53-2.58-3.49-4.07-7.86-12.2-15.69-24.43-23.43-36.71-1.11-1.76-2.25-2.45-4.35-2.17-5.67.76-11.38 1.24-17.05 1.99-1.11.15-2.13 1.01-3.83 1.86 3.92 1.97 7.04 3.7 10.3 5.11 2.25.98 3.76 2.51 4.19 4.79 1.17 6.22 2.29 12.46 3.12 18.73.41 3.13 0 6.36.21 9.53.55 7.91-1.55 15.05-4.67 22.35-10.25 24.02-27.31 41.72-49.18 55.28-16.91 10.49-33.77 21.08-50.71 31.53-6.19 3.81-12.88 6.43-20.19 7.17-3.58.36-5.18-1.27-5.26-4.87-.07-2.95.91-5.09 3.03-7.22 10.1-10.14 19.97-20.51 30.05-30.67 1.75-1.76 4.01-3.14 6.25-4.25 5.43-2.69 9.85-6.46 13.54-11.24 1.41-1.82 3.18-3.41 4.98-4.86 14.44-11.66 26.36-25.49 35.27-41.76 7.69-14.07 8.02-28.7 2.12-43.53-1.12-2.82-6.4-4.18-8.75-2.31-6.06 4.82-12.14 9.6-18.11 14.53-1.52 1.26-2.75 2.92-3.96 4.51-8.37 10.94-16.66 21.95-25.1 32.85-1.86 2.4-3.96 4.78-6.41 6.51-8.42 5.92-15.45 13.15-21.58 21.36-3.66 4.9-8.54 7.74-14.64 8.64-2.25.33-3.26-.45-3.98-2.43-1.47-4.09-1.06-7.93 1.31-11.52 5.67-8.58 11.29-17.18 17.14-25.63 2.17-3.13 3.4-6.45 4.26-10.11.6-2.57 1.72-5.22 3.28-7.34 7.86-10.67 16.18-21 23.85-31.79 4.15-5.84 7.32-12.37 10.94-18.58 9.85-16.87 20.85-32.92 33.44-47.9 4.55-5.41 8.41-11.44 12.29-17.37 5.52-8.44 8.74-17.63 8.21-28.17zm131.3 155.95c-1.19-8.29.8-14.93 2.71-21.69 1.42-5.02 2.25-10.35 2.35-15.56.17-9.11-5.72-17.03-14.53-19.31-5.47-1.41-11.27-1.66-16.95-2.16-14.31-1.27-28.26 1.48-42.21 4.1-4.18.79-8.37 1.5-13.02 2.32 7.64 8.5 14.51 16.87 22.17 24.46 6.05 6 13.05 11.04 19.65 16.48.47.39 1.11.61 1.71.82 7.31 2.49 14.55 5.21 21.95 7.34 5.02 1.45 10.27 2.06 16.17 3.2z" fill="#000001"/><g fill="#fafbfa"><path d="m37.59 393.81c-.92.31-1.52.05-2-.78-.7-1.2-1.52-2.34-2.47-3.78v4.59c-.55.03-.95.05-1.41.07-.03-.37-.06-.64-.06-.91 0-1.91 0-3.81 0-5.7 1.13-.41 1.77-.03 2.29.91.62 1.11 1.38 2.14 2.31 3.19v-4.2h1.35v6.61z"/><path d="m12.94 393.88v-6.75c1.9.19 3.93-.54 5.37 1.29.8 1.01.78 2.88.03 3.97-1.37 1.97-3.4 1.51-5.4 1.49m1.45-1.22c2.04.12 2.92-.58 2.89-2.21-.03-1.51-.98-2.19-2.89-2z"/><path d="m11.81 393.87h-5.49c.68-2.18 2.47-3.48 3.51-5.45h-3.08v-1.21h5.29c-.71 2.13-2.44 3.48-3.47 5.51.86 0 1.63.04 2.39-.01.79-.05 1.14.21.85 1.16"/><path d="m39.33 393.86v-6.61h3.7v1.07h-2.22v1.52c.68.04 1.34.09 2.07.13v1.07c-.72.05-1.38.09-2.1.14v1.48h2.4v1.19h-3.85z"/><path d="m27.71 388.56c-1.15-.3-2.46-.61-3.1.64-.37.73-.41 1.93-.06 2.67.63 1.35 1.99.93 3.17.68.35.94-.01 1.32-.93 1.46-1.62.25-3.05-.27-3.76-1.48-.73-1.24-.6-3.03.31-4.17.88-1.11 2.71-1.7 4-1.16.32.13.44.74.65 1.12-.1.08-.19.16-.28.24"/><path d="m49.15 387.24v1.07c-.59.02-1.17.05-1.87.08v5.44h-1.48v-5.44h-1.85c-.05-.4-.08-.73-.13-1.15z"/><path d="m20.06 387.21h1.33v6.62h-1.33z"/><path d="m30.68 393.25c-.49.38-.8.79-1.05.76-.32-.05-.6-.45-.9-.7.26-.24.51-.64.8-.67.29-.04.62.3 1.15.61"/></g></svg>