<svg enable-background="new 0 0 400 400" viewBox="0 0 400 400" xmlns="http://www.w3.org/2000/svg"><path d="m100.26 108.99c2.93.58 5.95.88 8.77 1.8 4.12 1.33 8.1 3.09 12.12 4.71.67.27 1.39.6 1.86 1.11 6.09 6.53 12.04 13.22 15.24 21.71 1.29 3.41 1.8 7.14 2.4 10.76.4 2.39.26 4.87.5 7.29.41 4.11 1.79 5.58 5.77 6.35 13.04 2.53 26.15 1.61 39.28.94 6.41-.33 12.96-.59 19.28.32 8.34 1.2 11.04 7.63 7.09 15.14-.45.86-1.34 1.62-2.2 2.12-12.07 6.97-25.03 8.81-38.63 6.4-8.55-1.52-17.03-3.37-26.12-5.19-2.44 16.19-4.86 32.23-7.29 48.34 7.5 3.2 15.04 3.93 22.69 3.27 5.05-.43 10.08-1.27 15.06-2.23 15.11-2.94 20.79-1.13 31.03 10.36 4.69-6.17 9.35-12.29 14.01-18.41 8.09-10.63 16.15-21.28 24.3-31.86 1.16-1.51 1.36-2.74.79-4.58-2.46-7.88-6.02-15.03-11.83-21.08-3.29-3.43-5.94-7.46-9.03-11.09-2.12-2.5-4.35-4.94-6.79-7.12-4.63-4.14-5.49-4.13-10.77-1.13-3.96 2.25-7.89 4.57-11.92 6.67-1.94 1.01-4.79 2.35-5.91-.16-.96-2.16-1.21-6.05.1-7.58 7.57-8.85 15.64-17.28 23.64-25.75 10.92-11.55 22.24-22.74 32.8-34.61 7.01-7.88 12.05-17.21 14.43-27.63.71-3.12.36-6.5.3-9.76-.08-4.32-.36-8.64-.58-13.58 3.57.56 6.87.68 9.91 1.63 5.74 1.8 11.43 3.84 16.93 6.25 4.26 1.86 7.59 5.04 9.29 9.57 1.33 3.54 1.3 6.69-1.19 10.08-8.02 10.94-15.69 22.13-23.49 33.23-.6.85-1.15 1.73-1.63 2.45 7.03 4.91 13.94 9.62 20.73 14.51 7.13 5.14 11.55 12.01 12.5 20.88.14 1.31 0 2.75-.39 4.01-1.38 4.56-3.07 9.02-4.37 13.6-1.87 6.59-4.79 12.41-9.4 17.69-3.41 3.9-5.79 8.82-8.05 13.56-2.16 4.54-1.83 9.37-.34 14.25 3.33 10.93 7.03 21.82 9.31 32.98 2 9.81 2.82 19.95 3.18 29.98.55 15.66.95 31.39.14 47.03-.8 15.53-3.07 30.98-4.89 46.44-.33 2.78-1.27 5.6-2.5 8.12-2.18 4.5-5.36 5.89-10.81 5.17 0-.97-.09-1.99.01-3.01 1.79-18.15-.34-36.19-1.56-54.26-.54-8.03-.74-16.1-.96-24.15-.32-11.82-2.37-23.35-5.13-34.82-1.86-7.7-3.02-15.57-4.54-23.36-.95-4.86-2.85-7.46-7.63-10.12-.58.81-1.23 1.9-2.04 2.84-11.16 12.92-22.17 25.97-33.58 38.66-7.15 7.95-14.83 15.43-22.41 22.98-4.21 4.18-8.7 8.08-13.09 12.07-2.87 2.61-6.23 3.8-10.34 3.42-.29-5.07-.52-9.58 3.11-14.03 7.63-9.35 14.58-19.27 21.8-28.96.61-.82 1.16-1.69 1.89-2.77-2.77-.57-4.84-.41-6.99 1.38-4.61 3.85-10.07 5.97-16.13 5.68-11.65-.55-23.25-1.45-33.98-6.82-4.32-2.16-7.74-.82-9.93 3.53-4.82 9.59-6.61 20.07-8.73 30.43-2.79 13.62-6.08 27.07-12.13 39.68-1.09 2.28-2.46 4.45-3.95 6.5-3.62 4.99-11.61 5.32-15.83.7-.44-.48-.56-1.32-.66-2.02-.76-5.46-.3-10.26 2.49-15.64 3.97-7.67 6.51-16.34 8.24-24.87 3.29-16.21 7.49-32.13 12.29-47.94 5.88-19.39 6.67-39.41 6.5-59.5-.14-16.68-1.32-33.25-5.71-49.44-.42-1.56-1.28-3.13-2.3-4.39-4.8-5.91-9.72-11.72-14.6-17.56.21-.37.39-.77.57-1.17zm117.84 32.38c1.75 1.22 2.84 2.2 4.11 2.83 11.08 5.5 22.18 10.95 33.29 16.39 6.11 3 6.24 3.07 10.27-2.42 3.03-4.14 6.42-8.24 8.37-12.9 3.13-7.48 3.46-15.65 3.31-23.73-.16-8.94-4.93-14.49-13.73-15.88-1.12-.18-2.67.36-3.57 1.1-7.26 5.99-14.36 12.17-21.62 18.16-6.59 5.44-13.3 10.72-20.43 16.45z" fill="#000001"/><path d="m129.71 96.03c5.33-1.14 10.24-2.53 15.25-3.12 2.85-.34 5.84.69 8.78.98 13.05 1.29 26.12 2.48 39.16 3.85 2.49.26 5.01.92 7.34 1.85 8.09 3.2 10.78 12.69 5.64 19.77-.48.66-1.54 1.07-2.4 1.27-10.95 2.61-21.86 2.04-32.63-.94-12.12-3.35-24.17-6.97-36.29-10.34-1.91-.53-2.79-1.31-3.04-3.33-.4-3.25-1.15-6.44-1.81-9.99z" fill="#000001"/><g fill="#fafbfa"><path d="m37.59 393.81c-.92.31-1.52.05-2-.78-.7-1.2-1.52-2.34-2.47-3.78v4.59c-.55.03-.95.05-1.41.07-.03-.37-.06-.64-.06-.91 0-1.91 0-3.81 0-5.7 1.13-.41 1.77-.03 2.29.91.62 1.11 1.38 2.14 2.31 3.19v-4.2h1.35v6.61z"/><path d="m12.94 393.88v-6.75c1.9.19 3.93-.54 5.37 1.29.8 1.01.78 2.88.03 3.97-1.37 1.97-3.4 1.51-5.4 1.49m1.45-1.22c2.04.12 2.92-.58 2.89-2.21-.03-1.51-.98-2.19-2.89-2z"/><path d="m11.81 393.87h-5.49c.68-2.18 2.47-3.48 3.51-5.45h-3.08v-1.21h5.29c-.71 2.13-2.44 3.48-3.47 5.51.86 0 1.63.04 2.39-.01.79-.05 1.14.21.85 1.16"/><path d="m39.33 393.86v-6.61h3.7v1.07h-2.22v1.52c.68.04 1.34.09 2.07.13v1.07c-.72.05-1.38.09-2.1.14v1.48h2.4v1.19h-3.85z"/><path d="m27.71 388.56c-1.15-.3-2.46-.61-3.1.64-.37.73-.41 1.93-.06 2.67.63 1.35 1.99.93 3.17.68.35.94-.01 1.32-.93 1.46-1.62.25-3.05-.27-3.76-1.48-.73-1.24-.6-3.03.31-4.17.88-1.11 2.71-1.7 4-1.16.32.13.44.74.65 1.12-.1.08-.19.16-.28.24"/><path d="m49.15 387.24v1.07c-.59.02-1.17.05-1.87.08v5.44h-1.48v-5.44h-1.85c-.05-.4-.08-.73-.13-1.15z"/><path d="m20.06 387.21h1.33v6.62h-1.33z"/><path d="m30.68 393.25c-.49.38-.8.79-1.05.76-.32-.05-.6-.45-.9-.7.26-.24.51-.64.8-.67.29-.04.62.3 1.15.61"/></g></svg>