<svg enable-background="new 0 0 400 400" viewBox="0 0 400 400" xmlns="http://www.w3.org/2000/svg"><path d="m6.4 11.7c-1-.8-1.9-1.6-2.9-2.3l.6-.7c.9.7 1.9 1.4 2.9 2.2zm-2.1 8.3c.7-2.1 1.4-4.2 2-6.4.2.1.6.3 1 .4-.7 2.3-1.3 4.4-1.9 6.4zm3-12.8c-1.1-.9-2.1-1.7-2.9-2.4l.6-.7c1 .8 2 1.5 3 2.4zm1.4-1.3v-.9h10.2v.9c-.9 4.2-2.3 7.3-4.1 9.4 1.3 1.4 3.2 2.7 5.7 4-.2.2-.4.5-.7.9-2.5-1.4-4.4-2.7-5.7-4.2-1.4 1.5-3.5 3-6.1 4.4 0 0 0 0-.1-.1-.3-.4-.5-.7-.7-.8 2.7-1.3 4.7-2.8 6.2-4.2-1.8-2.2-3-5.3-3.7-9.4zm9.2 0h-7.1c.6 3.8 1.7 6.7 3.4 8.7 1.7-2 2.9-4.8 3.7-8.7z" fill="#fbfcfa"/><path d="m31.6 3.6h.9v2.3h4.1v9.1h1.7v.9h-16.6v-.9h1.7v-9.1h4.1v-2.3h.9v2.3h3.1v-2.3zm-4 13.3.6.8c-1.9.9-3.8 1.9-5.8 2.8-.2-.3-.3-.6-.5-.9 2-.9 3.9-1.8 5.7-2.7zm-3.2-10.1v3.7h3.1v-3.7zm0 4.5v3.7h3.1v-3.7zm4.1-4.5v3.7h3.1v-3.7zm0 4.5v3.7h3.1v-3.7zm9.1 9.1c-2.1-1.1-4.1-2-5.8-2.7l.5-.8c2.2.9 4.1 1.8 5.8 2.6zm-1.9-13.6h-3.1v3.7h3.1zm-3.2 4.5v3.7h3.1v-3.7z" fill="#fbfcfa"/><path d="m169.93 187.23c4.2.54 8.33.78 12.34 1.64 9.92 2.14 19.74 1.52 29.63-.17 1.87-.32 4.33.08 5.89 1.1 4.85 3.18 9.78 4.25 15.29 2.21 7.59-2.82 14.22.01 20.86 3.37 7.17 3.62 14.48 6.99 21.77 10.39 1 .47 2.4.95 3.31.62 3.41-1.26 5.58.27 7.67 2.65 1.47 1.66 3.3 3 4.78 4.66 3.98 4.49 8.6 7.68 14.78 8.34 1.07.12 2.7 1.29 2.91 2.24 1.62 7.12 5.8 12.59 10.72 17.65 12.11 12.47 18.95 28.21 26.75 43.33 2.84 5.49 4.3 11.51 3.45 17.84-.14 1.04-.4 2.06-.6 3.03-4.92.73-11.6-2.84-13.68-7.23-1.72-3.64-3.58-7.22-5.07-10.95-5.18-12.91-12.88-24.1-21.76-34.79-7.27-8.76-15.05-16.38-25.01-22.02-6.23-3.52-11.72-8.34-17.61-12.49-.98-.69-2.28-1.39-3.39-1.32-2.84.18-5.26-.59-7.28-2.46-3.47-3.21-7.84-3.67-12.14-3.78-12.06-.29-24.14-.32-36.2-.37-5.51-.02-11.02.06-16.52.33-1.43.07-3.08.7-4.16 1.63-3.53 3.03-7.11 5.25-12.1 5.54-2.73.16-5.72 2.12-7.9 4.05-8.4 7.44-16.25 15.51-24.82 22.73-7 5.89-15.24 9.93-24.13 12.4-5.61 1.56-10.09 4.53-13.53 9.36-4.11 5.78-8.8 11.16-12.89 16.95-3.38 4.79-7.5 8.45-12.63 11.27-2.07 1.14-3.96 3.16-5.17 5.22-5.65 9.58-11.04 19.3-16.49 28.99-.72 1.28-1.46 2.65-1.74 4.06-.62 3.24-2.45 3.8-5.26 2.82-1.24-5.9-.79-11.64.31-17.57 1.56-8.42 4.79-15.79 9.89-22.66 6.12-8.25 11.6-16.96 17.4-25.45.64-.94 1.37-2.15 2.32-2.49 4.09-1.45 6.36-4.73 8.72-8 1.3-1.81 2.79-3.48 4.01-5.34 2.95-4.51 7.06-7.64 11.3-10.89 6.09-4.68 11.4-10.36 17.08-15.59 6.69-6.16 13.46-12.24 20.09-18.46 4.83-4.54 10.52-7.19 17.06-7.35 6.06-.15 8.61-3.57 9.95-8.75.51-2 1.14-4.01 1.8-6.29z"/><path d="m180.22 240.29c7.89 8.13 10.8 7.97 20.62 2.19 7.48-4.4 15.74-4.9 23.84-.49 1.97 1.07 4.37 1.9 6.58 1.88 6.96-.03 14.04-1.16 19.82 4.52 3.14-4.19 5.91-7.9 8.66-11.57 8.87 2.42 13.56 10.31 12.56 20.2-1.35 13.28-6.79 24.58-15.93 34.14-1.15 1.2-3.03 1.92-4.7 2.34-4.69 1.17-8.38 3.66-11.64 7.2-1.22 1.32-3.33 2.08-5.17 2.5-4.89 1.12-10.15.77-14.41 4.21-.67.54-2.02.45-3.02.34-10.84-1.25-21.74-2.12-32.46-4.05-5.52-.99-10.71-3.85-15.98-6.03-.58-.24-.9-1.54-1-2.38-.43-3.6-1.16-6.96-3.53-9.97-2.69-3.42-2.49-8.73.6-11.99 2.58-2.72 2.34-5.17.74-8.01-.36-.64-.68-1.32-1.07-1.95-3.49-5.56-2.3-11.25 3.13-14.86 4.11-2.74 8.25-5.49 12.36-8.22zm49.4 33.91c.95 1.35 1.44 2.55 2.33 3.18.88.62 2.3 1.13 3.26.87 3.16-.83 6.24-1.99 9.31-3.11 1.72-.63 3.8-4.97 2.76-6.69-.62-1.03-2.64-1.4-4.1-1.72-2.62-.56-5.44-.45-7.9-1.37-2.96-1.11-5.7-4.34-8.41-4.2-2.83.14-5.66 3.02-8.24 5.01-2.92 2.26-6.01 3.75-9.7 4.2-2.59.32-5.12 1.07-8.29 1.77 1.55 2.2 2.57 4.21 4.09 5.71 6.36 6.31 6.4 6.13 15.28 5.18 3.93-.42 6.44-2.3 7.99-5.78.33-.73.76-1.43 1.62-3.05z"/><path d="m213.64 82.62c6.85 1.35 12.87 2.49 18.85 3.77.84.18 1.57 1.04 2.29 1.65 7.2 6.1 14.45 12.13 21.55 18.34 7.25 6.35 15.29 11.36 24.17 15.03 14.7 6.08 28.75 13.27 42.11 22.03 6.98 4.58 15.16 7.32 22.78 10.93 3.43 1.63 6.94 3.13 10.19 5.07 5.61 3.36 7.72 8.7 7.71 15.36-3.17.81-6.3 1.72-9.49 2.34-.71.14-1.76-.52-2.4-1.09-2.56-2.33-5.5-3.48-8.96-3.36-1.48.05-2.97.02-4.45-.01-6.27-.12-12.18-1.33-17.09-5.63-2.74-2.39-6.06-3.25-9.58-3.79-5.44-.82-10.83-1.99-16.28-2.73-3.49-.48-6.48-1.71-9.14-3.97-1.45-1.23-3.18-2.14-4.58-3.41-2.91-2.66-6.21-3.63-10.14-3.35-1.67.12-3.67-.39-5.06-1.3-5.17-3.39-10.65-4.26-16.61-2.95-4.27.93-8.19 1.03-11.65-2.66-1.05-1.12-3.79-.52-5.69-.99-1.85-.45-3.92-.87-5.37-1.99-4.6-3.57-9.03-7.37-13.34-11.3-1-.91-1.74-2.65-1.74-4.01-.02-9.96.06-19.92.38-29.87.11-3.83.94-7.66 1.54-12.11z"/><path d="m266.29 177.24c.09 4.79-.76 5.96-4.6 5.02-7.77-1.91-15.84-3.49-22.97-6.91-7.74-3.71-14.97-2.17-22.53-1.07-6.81.99-13.61 2.06-20.42 3.06-3.03.45-5.78 1.21-8.49 3-2.33 1.54-5.49 2.19-8.36 2.48-15.28 1.52-30.66 2.22-45.84 4.42-7.27 1.05-14.4 4.24-21.12 7.45-6.83 3.26-13.55 4.4-20.92 3.06-2.96-.53-5.11-1.71-6.42-4.43-.5-1.05-1.18-2.01-1.7-3.05-3.38-6.78-2.99-8.05 3.53-11.81 2.48-1.43 5.05-2.71 7.4-4.33 6.06-4.17 12.92-6.22 19.96-7.83.81-.18 1.69-.37 2.48-.23 12.98 2.34 25.87.93 38.48-1.98 9.11-2.11 17.84-5.88 26.78-8.77 1.5-.48 3.35-.7 4.82-.27 7.62 2.2 15.32 2.75 23.23 2.58 11.21-.24 22.44.1 33.66.26.86.01 2.04.32 2.53.92 4.47 5.46 10.7 8.57 16.35 12.45 2.37 1.65 4.2 3.6 4.15 5.98z"/><path d="m40.52 168.8c-2.63-.87-5.5-1.81-8.62-2.84 1.22-6.94 4.45-11.99 10.85-14.64 12.95-5.37 25.67-11.15 35.95-21.04 6.42-6.18 13.64-11.14 22.06-14.02 7.85-2.68 13.44-7.49 16.92-15.01 1.32-2.86 3.14-5.53 4.96-8.13 4.68-6.68 8.1-13.81 9.06-22.04.13-1.13 1.4-2.41 2.48-3.09 1.59-.99 3.58-1.34 5.23-2.25 2.69-1.48 5.06-1.69 7.47.59 2.41 2.29 3.83 4.88 2.95 8.21-2.3 8.67-3.63 17.66-8.27 25.57-.11.18-.19.38-.26.58-3.87 11.74-10.98 20.96-21.13 28.05-2.52 1.76-4.92 2.96-7.94 3.38-2 .28-4.24.89-5.78 2.12-10.54 8.42-22.25 14.49-34.93 19.07-7.24 2.61-14.01 6.49-21.09 9.55-1.54.67-3.62.68-5.29.29-1.86-.43-3.75-1.21-4.74.78-.58 1.15.02 2.88.12 4.87z"/></svg>