<svg enable-background="new 0 0 400 400" viewBox="0 0 400 400" xmlns="http://www.w3.org/2000/svg"><path d="m6.4 11.7c-1-.8-1.9-1.6-2.9-2.3l.6-.7c.9.7 1.9 1.4 2.9 2.2zm-2.1 8.3c.7-2.1 1.4-4.2 2-6.4.2.1.6.3 1 .4-.7 2.3-1.3 4.4-1.9 6.4zm3-12.8c-1.1-.9-2.1-1.7-2.9-2.4l.6-.7c1 .8 2 1.5 3 2.4zm1.4-1.3v-.9h10.2v.9c-.9 4.2-2.3 7.3-4.1 9.4 1.3 1.4 3.2 2.7 5.7 4-.2.2-.4.5-.7.9-2.5-1.4-4.4-2.7-5.7-4.2-1.4 1.5-3.5 3-6.1 4.4 0 0 0 0-.1-.1-.3-.4-.5-.7-.7-.8 2.7-1.3 4.7-2.8 6.2-4.2-1.8-2.2-3-5.3-3.7-9.4zm9.2 0h-7.1c.6 3.8 1.7 6.7 3.4 8.7 1.7-2 2.9-4.8 3.7-8.7z" fill="#fbfcfa"/><path d="m31.6 3.6h.9v2.3h4.1v9.1h1.7v.9h-16.6v-.9h1.7v-9.1h4.1v-2.3h.9v2.3h3.1v-2.3zm-4 13.3.6.8c-1.9.9-3.8 1.9-5.8 2.8-.2-.3-.3-.6-.5-.9 2-.9 3.9-1.8 5.7-2.7zm-3.2-10.1v3.7h3.1v-3.7zm0 4.5v3.7h3.1v-3.7zm4.1-4.5v3.7h3.1v-3.7zm0 4.5v3.7h3.1v-3.7zm9.1 9.1c-2.1-1.1-4.1-2-5.8-2.7l.5-.8c2.2.9 4.1 1.8 5.8 2.6zm-1.9-13.6h-3.1v3.7h3.1zm-3.2 4.5v3.7h3.1v-3.7z" fill="#fbfcfa"/><path d="m100.87 262.53c5.41-1.47 10.89-3.12 16.46-4.37 1.49-.33 3.33.32 4.86.92 2.58 1.02 4.99.98 7.71.43 9.54-1.92 19.24-3.14 28.71-5.38 5.45-1.29 10.55-4.05 15.71-6.6-4.85-3.98-10.16-4.06-15.63-3.18-2.71.44-5.39 1.3-8.11 1.47-4.85.32-8.8-1.87-12.19-5.5-1.37 3.29-3.88 3.42-6.87 3.18-14.77-1.18-29.55-2.17-44.33-3.25-.93-.07-2.24.06-2.72-.48-2.09-2.34-4.41-1.67-6.61-.64-4.62 2.17-9.12 1.32-13.89.4-6.96-1.35-13.02-3.52-17.19-9.85-2.36-3.58-5.94-6.33-8.55-9.77-5.33-7.05-6.44-15.37-5.97-23.87.38-6.97 1.34-13.91 2.23-20.83.15-1.12 1.42-2.06 2.01-3.16.66-1.25 1.63-2.6 1.61-3.89-.12-5.93 1.46-11.46 3.03-17.1.79-2.84-.06-6.23-.51-9.31-.31-2.13-.25-3.94 1.32-5.54 3.61-3.7 4.01-8.02 3.06-12.93-.41-2.15.55-4.56.92-7.07-2.37-.92-.36-3.77-1.53-5.91 2.9-.82 5.5-1.69 8.16-2.22.68-.13 1.97.62 2.3 1.29 5.34 11.06 10.57 22.17 15.82 33.27.18.38.6.89.48 1.14-1.9 3.9-2.3 9.06-6.47 11.16-4.78 2.4-6.5 6.15-6.14 10.76.51 6.52 1.73 12.99 2.81 19.45.56 3.32.76 6.41-1.08 9.5-.57.96-.37 2.66 0 3.86 2.82 9.28 2.84 9.47 12.49 9.98 8.88.46 17.79.44 26.69.55 3.07.04 5.66-.83 7.67-3.56 2.39-3.23 5.18-6.17 7.95-9.09 1.37-1.44 1.74-2.81.74-4.5-1.21-2.04-.33-3.61.7-5.51 1.21-2.22 2.24-4.82 2.38-7.31.49-8.41 1.66-16.86-.27-25.27-.21-.92.49-2.26 1.14-3.11 3.33-4.32 3.88-8.75 1.09-13.56-1-1.73-1.76-3.62-2.48-5.49-1.35-3.51-2.69-6.89-7.22-7.34-.79-.08-1.55-1.05-2.21-1.72-8.27-8.37-16.3-16.99-26.73-22.84-.91-.51-1.6-1.66-2.05-2.67-5.3-11.89-10.84-23.7-15.64-35.79-1.83-4.62-1.92-9.93-2.77-14.92-.25-1.45-.4-2.92-.62-4.6 4.43-1.49 8.41-2.95 13.44-1.59 14.92 4.01 30.28 5.15 45.69 4.8 24.15-.55 48.3-1.39 72.45-2.02 5.7-.15 11.41-.01 17.12.03.73.01 1.51.11 2.18.38 3.45 1.39 6.85 3.08 10.33-.03.44-.4 1.44-.28 2.17-.23 5.57.33 11.18.42 16.71 1.14 5.1.67 10.08 2.3 15.18 3.01 8.78 1.23 15.1 6.19 21.19 12.18 9.64 9.48 10.56 14.64 3.01 26-2.28 3.42-4.93 6.67-7.82 9.6-6.2 6.3-10.74 13.52-13.71 21.84-.65 1.83-2.23 3.52-3.77 4.82-7.99 6.79-16.23 13.28-24.13 20.16-10.77 9.37-15.34 21.79-16.74 35.63-.02.21-.01.43-.05.63-.97 4.48-.39 8.18 3.42 11.56 2.49 2.22 3.89 5.72 5.59 8.75 1.19 2.12 1.97 4.46 3.09 6.62 3.78 7.28 4.92 7.76 12.87 6.58 4.49-.67 9.03-1.02 13.54-1.56.82-.1 1.78-.17 2.38-.63 8.08-6.23 17.76-7.56 27.37-9.27 3.72-.66 7.4-1.86 10.89-3.31 1.96-.81 3.66-2.48 5.2-4.04 1.82-1.83 2.32-3.89.23-6.1-1.3-1.37-2.39-2.98-3.38-4.61-2.28-3.75-5.25-6.55-9.58-7.76-.88-.25-1.81-.76-2.43-1.41-8.81-9.28-15.14-19.82-16.82-32.78-.28-2.16.16-3.55 2.19-4.63 2.42-1.3 4.5-3.27 6.99-4.37 2.53-1.12 5.35-1.89 8.1-2.13 1.32-.12 3.23.98 4.1 2.12 6.89 9.01 13.58 18.17 20.36 27.26 4.69 6.29 4.72 6.27 12.8 9.08.83-1.2 1.6-2.58 2.62-3.74 1.44-1.64 1.4-2.89-.05-4.64-4.19-5.06-8.16-10.3-12.21-15.48-.58-.75-1.58-1.55-1.57-2.32.04-6.95-5.75-9.96-9.47-14.37-.07-.08-.14-.16-.23-.22-7.12-4.86-7.8-11.81-6.42-19.49.29-1.59.8-2.32 2.56-2.5 6.97-.71 6.53-.48 10.54 5.27 5.74 8.22 12.06 16.06 18.44 23.82 2.01 2.44 4.98 4.1 7.63 6.2 2.94-3.64 3.92-7.39 4.12-11.33.61-12.48-1.32-24.73-3.45-36.96-.49-2.81-1.24-5.69-1.06-8.48.14-2.13 1.13-4.52 2.49-6.18 2.39-2.91 3.21-2.66 6.14-.26 1.71 1.4 3.63 2.56 5.48 3.78 3.73 2.46 6.05 5.4 5.95 10.38-.06 3.19 1.13 6.66 2.62 9.56 3.25 6.3 4.85 12.73 4.26 19.83-.34 4.11.12 8.28-.11 12.4-.3 5.7.47 11.16 2.56 16.48.43 1.1.82 2.78.3 3.6-3.65 5.76-1.58 11.81-1.54 17.85.04 5.52-1.36 11.06-2.31 16.56-.13.74-1.28 1.35-2.01 1.94-5.03 4.07-10.35 7.82-15.06 12.23-8.51 7.95-19.12 11.97-29.43 16.6-1.06.48-2.6-.25-3.9-.16-1.54.11-3.12.32-4.58.8-2.16.72-4.17 1.94-6.36 2.55-17.12 4.77-34.29 9.38-51.4 14.18-4.6 1.29-8.55 3.66-10.47 8.49-.79 1.98-.34 3.09 1.54 4.03 5.73 2.88 11.85 4.01 18.15 3.94 11.44-.14 22.9-.25 34.32-.97 4.09-.26 8.09-2.17 12.09-3.45 1.82-.58 3.62-1.74 5.09.44 1.34 1.98.53 3.53-1.12 4.94-1.04.89-1.8 2.14-2.9 2.93-1.18.86-2.6 1.38-3.91 2.05-.19-.24-.37-.47-.56-.71-.36 1.51-.71 3.03-1.16 4.92-3.79-.03-6.85 1.69-9.11 4.88-.26.37-.91.57-1.41.64-5.57.71-11.14 1.42-16.72 2.03-.78.09-1.61-.41-2.43-.47-2.27-.17-4.54-.29-6.81-.35-2.98-.08-5.97-.09-8.95-.15-.51-.01-1.23-.32-1.48-.09-1.88 1.7-3.52 3.72-5.54 5.23-2.59 1.94-1.99 4.36-1.71 6.88.34 3.05.82 6.12.81 9.18-.01 2.95-.57 5.9-.96 9.43 4.02 2.46 6.45 7.17 8.63 12.03 1.38 3.08 3.45 5.4 6.13 7.47 2.81 2.17 5.41 4.74 7.62 7.53 4.86 6.15 9.65 12.39 13.99 18.91 2.18 3.28 3.38 7.22 4.9 10.91.6 1.46-.06 2.32-1.71 2.65-3.94.8-7.83 1.87-11.79 2.57-.9.16-2.57-.51-2.92-1.25-3.38-7.16-9.3-11.19-16.34-14.11-1.73-.72-3.29-2.25-4.48-3.76-2.81-3.59-5.71-7.18-7.9-11.14-4.67-8.44-12.63-12.81-20.71-17.81-2.62 3.6-5.29 7.11-7.79 10.74-6.34 9.21-14.32 16.76-23.57 22.92-7.99 5.33-16.52 5.88-25.43 2.08-2.76-1.18-2.57-3.45-2.68-5.49-.05-.98 1.06-2.42 2.04-2.99 11.97-6.94 20.87-16.82 27.87-28.61.88-1.48 2.1-3.19 3.57-3.78 2.95-1.19 3.82-3.01 3.79-6.03-.07-5.93.11-11.88.39-17.81.09-1.86-.62-2.59-2.22-3.2-6.12-2.36-12.41-2.09-18.47-.45-12.97 3.51-25.99 3.04-39.11 1.52-5.58-.65-11.18-1.34-16.78-1.44-5.26-.09-8.35-3-11.04-6.87-2.49-3.68-5.01-7.33-7.73-11.26zm48.85-110.82c-.72 5.69-1.23 11.07-2.13 16.38-1.01 5.93-2.23 11.83-3.71 17.65-.55 2.17-2.85 4.03-3.04 6.14-.6 6.71-.97 13.48-.67 20.2.21 4.79.95 4.9 5.8 4.06 1.15-.2 2.31-.36 3.43-.63 7.27-1.76 14.35-2.37 21.63.73 4.48 1.91 9.54-.37 11.56-4.21 2.1-4 3.47-8.33 2.21-12.85-1.39-4.98-1.08-9.73.53-14.56.45-1.34.72-3.05.29-4.32-1.52-4.51-.82-8.64.99-12.91 1.71-4.05.63-6.16-3.6-7.46-1.65-.51-3.51-.3-5.27-.44-3.3-.27-6.77-.02-9.86-.98-6.05-1.86-11.88-4.4-18.16-6.8zm-43.51-75.89c1.05 1.68 1.79 3.66 3.18 4.94 4.02 3.7 7.92 7.66 13.63 8.88 5.17 1.1 10.27 2.57 15.46 3.5 6.42 1.14 12.81 1.09 19.11-1.21 2.86-1.04 3.86-2.93 3.98-5.68.13-3.01.22-5.94-2.76-7.92-3.17-2.1-6.25-4.36-9.38-6.53-.24-.16-.57-.19-.9-.29-.28.35-.57.67-.8 1.02-.29.44-.53.9-.37.62-14.32-1.97-27.72-2.59-41.15 2.67zm144.76 6.58c-.78-2.27-1.74-4.21-2.09-6.25-.82-4.8-3.37-6.86-8.31-6.93-5.79-.09-11.6-1.45-17.34-1.14-5.33.29-10.72 1.61-15.82 3.28-5.48 1.79-10.66 4.5-15.95 6.84-2.25 1-2.03 2.6-.97 4.41 2.03 3.47 5.29 5.13 9.04 4.91 4.93-.29 9.88-1.04 14.73-2.04 9.13-1.89 18.18-3.29 27.13.72.52.23 1.31.26 1.81.03 2.56-1.18 5.08-2.49 7.77-3.83zm-46.7 26.86c.62 3.82 1.16 7.15 1.7 10.49.55 3.4 1.08 6.8 1.75 10.99 4.51-.87 9.18-.68 12.57-2.66 7.41-4.32 12.97-10.84 16.23-18.91 1.66-4.11-3.22-9.43-7.47-8.14-8.28 2.52-16.42 5.43-24.78 8.23zm-68.18 4.39c-.04.41-.09.82-.13 1.23 3.2 4.07 6.56 8.03 9.54 12.25 3.16 4.47 8.12 5.99 12.68 7.98 2.14.94 5.02.31 7.55.16.57-.03 1.43-.93 1.58-1.57.94-3.9 2.08-7.8 2.47-11.76.59-5.97-1.83-9.62-7.34-11.95-.93-.39-2.31-.42-3.22-.01-4.18 1.85-8.47 2.23-13.01 2.16-3.36-.05-6.74.97-10.12 1.51z"/></svg>