<svg enable-background="new 0 0 400 400" viewBox="0 0 400 400" xmlns="http://www.w3.org/2000/svg"><path d="m6.4 11.7c-1-.8-1.9-1.6-2.9-2.3l.6-.7c.9.7 1.9 1.4 2.9 2.2zm-2.1 8.3c.7-2.1 1.4-4.2 2-6.4.2.1.6.3 1 .4-.7 2.3-1.3 4.4-1.9 6.4zm3-12.8c-1.1-.9-2.1-1.7-2.9-2.4l.6-.7c1 .8 2 1.5 3 2.4zm1.4-1.3v-.9h10.2v.9c-.9 4.2-2.3 7.3-4.1 9.4 1.3 1.4 3.2 2.7 5.7 4-.2.2-.4.5-.7.9-2.5-1.4-4.4-2.7-5.7-4.2-1.4 1.5-3.5 3-6.1 4.4 0 0 0 0-.1-.1-.3-.4-.5-.7-.7-.8 2.7-1.3 4.7-2.8 6.2-4.2-1.8-2.2-3-5.3-3.7-9.4zm9.2 0h-7.1c.6 3.8 1.7 6.7 3.4 8.7 1.7-2 2.9-4.8 3.7-8.7z" fill="#fbfcfa"/><path d="m31.6 3.6h.9v2.3h4.1v9.1h1.7v.9h-16.6v-.9h1.7v-9.1h4.1v-2.3h.9v2.3h3.1v-2.3zm-4 13.3.6.8c-1.9.9-3.8 1.9-5.8 2.8-.2-.3-.3-.6-.5-.9 2-.9 3.9-1.8 5.7-2.7zm-3.2-10.1v3.7h3.1v-3.7zm0 4.5v3.7h3.1v-3.7zm4.1-4.5v3.7h3.1v-3.7zm0 4.5v3.7h3.1v-3.7zm9.1 9.1c-2.1-1.1-4.1-2-5.8-2.7l.5-.8c2.2.9 4.1 1.8 5.8 2.6zm-1.9-13.6h-3.1v3.7h3.1zm-3.2 4.5v3.7h3.1v-3.7z" fill="#fbfcfa"/><path d="m32.95 187.13c11.39-3.38 22.35-6.6 33.29-9.9 1.49-.45 2.98-1.12 4.27-2 7.92-5.39 16.15-9.88 25.57-12.41 9.66-2.59 18.46-7.42 26.6-13.26 6.03-4.32 12.42-7.61 19.95-8.22 7.32-.59 13.6-3.76 19.28-8.16 3.28-2.54 6.88-3.52 10.89-3.54.53 0 1.06-.11 1.59-.07 8.32.56 15.63-1.62 21.43-7.88 1.79-1.93 3.85-2.4 6.28-1.43 5.68 2.27 10.78 1.61 15.39-2.71 3.27-3.06 7.53-4.08 11.8-5.08 11.44-2.67 22.8-5.75 34.31-8.12 4.14-.85 8.6-.16 12.91-.13 1.06.01 2.12.15 3.16.31 4.26.68 7.81-.47 11.57-2.8 3.35-2.08 7.6-2.95 11.57-3.79 12.02-2.53 24.09-4.83 36.17-7.06 1.64-.3 3.54.05 5.17.57 3.73 1.19 7.36 2.66 11.03 4.05 4.74 1.79 5.96 4.04 5.32 9.02-.29 2.3-.29 4.66-.16 6.98.11 2-.59 2.81-2.53 3.6-13.15 5.41-26.84 7.51-40.97 7.3-7.42-.11-14.48 1.58-21.43 4.01-1.73.6-3.69.87-5.52.82-4.76-.13-9.55-.29-14.27-.85-7.97-.94-15.31 1.65-22.72 3.74-16.91 4.76-33.92 9.27-50.59 14.79-9.39 3.11-18.2 8-27.23 12.17-7.1 3.28-14.14 6.68-21.51 10.17 3 7.86 3.64 16.34 9.68 22.92 5.08 5.53 9.47 11.69 14.02 17.69.77 1.01 1.12 2.66 1 3.95-.3 3.37-.63 6.8-1.58 10.03-1.15 3.94.43 6.62 3.51 8.24 4.46 2.35 9.17 4.27 13.88 6.12 5.48 2.17 10.65 1.98 15.35-2.28 1.28-1.16 3.37-1.76 5.16-1.94 21.4-2.2 42.85-3.98 64.2-6.57 7.06-.86 13.87-3.72 20.79-5.7 3.97-1.13 7.9-2.4 11.88-3.49 4.79-1.31 9.3-2.83 13.41-6.02 6-4.66 13.39-4.35 20.48-3.41 4.36.58 8.6 2.09 12.87 3.28 3.89 1.09 2.43 4.73 3.07 7.25.21.84-1.15 2.51-2.2 3.18-4.7 3.03-9.62 4.96-15.54 4.31-4.99-.55-9.64 1.25-13.24 5-2.69 2.81-5.6 4.06-9.6 2.9-1.79-.51-3.99-.16-5.87.32-16.41 4.21-32.79 8.52-49.17 12.85-11.18 2.95-22.57 3.43-34.06 3.44-4.18 0-8.4.88-12.54 1.68-2.14.41-4.26 1.34-6.2 2.38-3.6 1.93-6.88 4.9-11.36 2-.59-.38-1.69-.18-2.49.01-4.52 1.07-9.03 2.22-13.61 3.36-.49 8.19-.55 16.27-1.53 24.24-2.67 21.55-5.65 43.08-12.77 63.73-2.12 6.15-5.35 11.78-10.37 16.14-1.34 1.16-2.88 2.09-4.38 3.17-4.13-4.6-5.37-9.74-3.85-15.28 2.04-7.41 3.47-14.96 7.29-21.89 1.77-3.21 2.32-7.61 2-11.36-.98-11.6-2.74-23.14-4.02-34.72-2.36-21.49-4.03-43.08-7.1-64.47-1.84-12.84-5.76-25.38-8.88-38.02-.22-.89-1.44-1.76-2.4-2.21-6.53-3.04-13.25-3.55-20.06-1.02-8.53 3.17-17.04 6.4-25.54 9.65-.87.33-1.67.88-2.42 1.44-14.35 10.91-30.56 14.97-48.38 13.31-3.26-.3-5.45-1.44-6.39-4.92-.81-3.08-2.31-6.04-3.66-9.41z"/><path d="m224.95 44.43c-.16 5.39-.54 6.15-5.87 7.64-10.69 2.98-21.5 5.55-32.14 8.71-2.97.88-5.64 3.04-8.19 4.96-1.79 1.34-3.35 2.56-5.67 1.54-.09-.04-.22-.01-.31-.04-8.98-3.03-16.97-.88-24.85 3.98-19.06 11.75-40.37 13.14-61.96 12.36-2.77-.1-5.6-2.12-8.14-3.69-1.45-.9 0-4.05 2.17-4.84 8.64-3.17 17.29-6.31 25.94-9.47 17.09-6.24 34.08-12.8 51.33-18.57 6.63-2.22 13.82-2.93 20.83-3.82 7.09-.9 13.62-3.03 19.49-7.05 1.64-1.12 3.06-1.09 4.97-.71 5.36 1.06 10.79 1.85 16.23 2.42 4.56.45 6.3 2.07 6.17 6.58z"/></svg>