<svg enable-background="new 0 0 400 400" viewBox="0 0 400 400" xmlns="http://www.w3.org/2000/svg"><path d="m6.4 11.7c-1-.8-1.9-1.6-2.9-2.3l.6-.7c.9.7 1.9 1.4 2.9 2.2zm-2.1 8.3c.7-2.1 1.4-4.2 2-6.4.2.1.6.3 1 .4-.7 2.3-1.3 4.4-1.9 6.4zm3-12.8c-1.1-.9-2.1-1.7-2.9-2.4l.6-.7c1 .8 2 1.5 3 2.4zm1.4-1.3v-.9h10.2v.9c-.9 4.2-2.3 7.3-4.1 9.4 1.3 1.4 3.2 2.7 5.7 4-.2.2-.4.5-.7.9-2.5-1.4-4.4-2.7-5.7-4.2-1.4 1.5-3.5 3-6.1 4.4 0 0 0 0-.1-.1-.3-.4-.5-.7-.7-.8 2.7-1.3 4.7-2.8 6.2-4.2-1.8-2.2-3-5.3-3.7-9.4zm9.2 0h-7.1c.6 3.8 1.7 6.7 3.4 8.7 1.7-2 2.9-4.8 3.7-8.7z" fill="#fbfcfa"/><path d="m31.6 3.6h.9v2.3h4.1v9.1h1.7v.9h-16.6v-.9h1.7v-9.1h4.1v-2.3h.9v2.3h3.1v-2.3zm-4 13.3.6.8c-1.9.9-3.8 1.9-5.8 2.8-.2-.3-.3-.6-.5-.9 2-.9 3.9-1.8 5.7-2.7zm-3.2-10.1v3.7h3.1v-3.7zm0 4.5v3.7h3.1v-3.7zm4.1-4.5v3.7h3.1v-3.7zm0 4.5v3.7h3.1v-3.7zm9.1 9.1c-2.1-1.1-4.1-2-5.8-2.7l.5-.8c2.2.9 4.1 1.8 5.8 2.6zm-1.9-13.6h-3.1v3.7h3.1zm-3.2 4.5v3.7h3.1v-3.7z" fill="#fbfcfa"/><path d="m99.7 34.65c4.66 4.17 5.75 9.23 6.53 14.39.47 3.14 1.06 6.33.98 9.48-.11 4.85 1.5 9.11 3.53 13.32.73 1.52 1.23 3.18 2.07 4.63 7.25 12.53 6.61 26.16 5.95 39.89-.8 16.91-6.39 32.5-12.13 48.14-2.09 5.72-3.19 11.82-4.47 17.81-.67 3.15.26 5.43 3.85 6.8 7.21 2.74 14.23 6.02 21.25 9.26 1.93.89 3.01.6 4.22-1.05 4.87-6.68 5.97-14.29 5.98-22.29 0-5.57.18-11.16.65-16.71.46-5.42 1.35-10.51-1.28-15.99-2.08-4.32-2.24-9.66-2.81-14.59-1.07-9.18-4.08-17.66-8.22-25.85-2.3-4.56-.63-7.21 4.41-7.92 5.3-.74 9.03.76 12.23 5.48 9.64 14.22 15.2 29.9 18.57 46.58 2.83 13.99 7.2 27.44 15.3 39.42.64.94 1.34 1.84 2.16 2.95 19.97-18.98 40.53-37.14 48.82-64.55 1.12-3.69 1.28-7.7 1.66-11.58.61-6.33.91-12.69 1.61-19.01.24-2.21-.36-3.46-2.08-4.76-14.01-10.65-27.92-21.43-41.95-32.04-2.08-1.57-3.24-3.15-2.84-5.78.14-.93.02-1.91.02-2.86 0-6.07 1.13-7.85 7.28-7.83 4.64.01 9.49 1.02 13.86 2.63 8.43 3.1 16.6 6.93 24.86 10.5.96.41 1.88.99 2.7 1.64 15.38 12.25 32.12 22.42 49.06 32.31 3.59 2.1 6.68 5.1 9.88 7.82 1.53 1.29 2.68 3.03 4.19 4.34 6.1 5.32 10.39 11.55 10.82 19.97.05 1.07.82 2.14 1.41 3.12.71 1.18 1.47 2.35 2.39 3.36 7.34 8.08 9.88 17.35 8.14 28.2-.93 5.81-.62 11.83-.71 17.76-.1 6.47-.35 12.96.05 19.4.61 9.76-2.92 17.98-7.45 26.37-6.61 12.23-17.33 20.39-26.84 29.82-8.18 8.11-17.57 14.13-28.09 18.76-3.82 1.68-7.16 4.74-10.23 7.68-2.04 1.95-2.34 4.74.48 6.84.25.19.45.45.65.7 5.33 6.92 4.18 11.36-4.02 13.89-3.68 1.14-7.72 1.89-11.53 1.68-13.12-.73-26 1.02-38.9 2.91-9.28 1.36-18.57 1.39-27.88.06-2.46-.35-5.05.25-7.58.32-12.29.34-24.57.75-36.86.9-2.65.03-3.68.85-4.26 3.34-1.79 7.66-2.98 5.41 3.65 9.62 5.78 3.68 11.92 6.92 18.21 9.63 2.83 1.22 6.42.82 9.67.88 19.28.38 38.57 1.02 57.84.82 7.31-.08 14.61-2.16 21.91-3.36 10.44-1.73 20.9-3.36 31.3-5.31 3.78-.71 7.65-1.74 11.06-3.46 16.17-8.14 32.2-16.56 48.29-24.89 3.56-1.84 6.21-1.15 8.55 2.21 3.99 5.73 3.15 18.11-2.04 22.74-4.24 3.78-8.72 7.61-13.73 10.14-6.1 3.08-10.96 7.49-16.13 11.67-2.16 1.74-4.68 3.31-7.29 4.2-19.83 6.77-39.71 13.39-59.61 19.93-2.47.81-5.18 1.26-7.77 1.24-19.27-.13-38.19 3.22-57.23 5.43-1.33.15-2.75.11-4.06-.16-12.13-2.53-24.25-5.09-36.35-7.75-1.27-.28-2.57-1.01-3.57-1.87-6.12-5.24-12.18-10.55-18.21-15.89-1.01-.9-1.88-2.02-2.58-3.17-6.98-11.5-14.1-22.93-20.76-34.62-1.94-3.4-2.75-7.51-3.76-11.37-3.9-14.92-3.93-30.21-4.21-45.47-.35-18.87-.62-37.74-.79-56.61-.02-2.48.28-5.13 1.17-7.42 5.02-12.97 6.38-26.72 9.01-40.22 2.39-12.25 5.09-24.45 8.15-36.55 3.43-13.54 4.2-27.39 5.91-41.16.96-7.71 3.14-15.29 4.99-22.87.48-1.98 1.8-3.75 2.95-6.02zm147.89 73.4c0 8.47.02 16.72-.02 24.97-.01 1.57-.12 3.18-.48 4.71-2.27 9.67-6.7 18.4-13.16 25.8-7.79 8.94-16.22 17.32-24.44 25.88-3.15 3.28-6.96 6.02-9.66 9.62-12.03 16.01-23.52 32.43-35.75 48.29-3.65 4.74-3.35 8.83-1.66 13.56 4.44.46 8.79.68 13.05 1.4 16.39 2.78 32.76 5.68 49.12 8.64 2 .36 3.13-.1 4.03-1.89 3.53-7.11 8.91-12.52 15.52-16.8 1.51-.98 2.86-2.19 4.31-3.26 11.61-8.56 23.21-17.12 31.85-28.94.68-.93 1.58-1.8 1.96-2.85 2.82-7.86 5.81-15.69 8.2-23.68 1.81-6.08 1.7-12.3-1.68-18.41-.87 1.06-1.56 1.84-2.19 2.66-5.4 7.08-10.78 14.18-16.18 21.25-2.77 3.62-5.04 7.87-8.48 10.67-9.05 7.33-18.31 14.48-28.05 20.84-10.89 7.12-22.38 13.33-33.66 19.84-1.71.99-3.65 1.81-5.58 2.15-5.24.93-7.19-1.45-5.37-6.3 3.1-8.27 9.43-13.69 16.52-18.34 7.09-4.64 14.39-8.96 21.48-13.59 12.86-8.41 23.17-19.16 30.39-32.87 4.18-7.94 6.71-16.28 7.17-25.13.52-10.15.46-20.32.61-30.49.01-.67-.21-1.55-.66-1.97-5.76-5.35-11.54-10.6-17.19-15.76zm-143.58 157.51c.02.32.04.63.06.95 4.35-1.21 8.88-1.98 13-3.7 11.4-4.78 18.74-12.63 18.74-25.91 0-6.11-2.28-10.52-7.84-12.9-5.82-2.49-11.81-4.57-17.67-6.99-3.46-1.43-6.4-1.27-9.2 1.48-1.49 1.47-3.3 2.68-5.13 3.72-2.31 1.33-2.99 3.18-3.05 5.74-.13 5.61-.4 11.22-.92 16.81-.62 6.68 1.25 12.51 5.08 17.89 1.72 2.39 3.46 4.4 6.93 2.91z"/></svg>