<svg enable-background="new 0 0 400 400" viewBox="0 0 400 400" xmlns="http://www.w3.org/2000/svg"><path d="m6.4 11.7c-1-.8-1.9-1.6-2.9-2.3l.6-.7c.9.7 1.9 1.4 2.9 2.2zm-2.1 8.3c.7-2.1 1.4-4.2 2-6.4.2.1.6.3 1 .4-.7 2.3-1.3 4.4-1.9 6.4zm3-12.8c-1.1-.9-2.1-1.7-2.9-2.4l.6-.7c1 .8 2 1.5 3 2.4zm1.4-1.3v-.9h10.2v.9c-.9 4.2-2.3 7.3-4.1 9.4 1.3 1.4 3.2 2.7 5.7 4-.2.2-.4.5-.7.9-2.5-1.4-4.4-2.7-5.7-4.2-1.4 1.5-3.5 3-6.1 4.4 0 0 0 0-.1-.1-.3-.4-.5-.7-.7-.8 2.7-1.3 4.7-2.8 6.2-4.2-1.8-2.2-3-5.3-3.7-9.4zm9.2 0h-7.1c.6 3.8 1.7 6.7 3.4 8.7 1.7-2 2.9-4.8 3.7-8.7z" fill="#fbfcfa"/><path d="m31.6 3.6h.9v2.3h4.1v9.1h1.7v.9h-16.6v-.9h1.7v-9.1h4.1v-2.3h.9v2.3h3.1v-2.3zm-4 13.3.6.8c-1.9.9-3.8 1.9-5.8 2.8-.2-.3-.3-.6-.5-.9 2-.9 3.9-1.8 5.7-2.7zm-3.2-10.1v3.7h3.1v-3.7zm0 4.5v3.7h3.1v-3.7zm4.1-4.5v3.7h3.1v-3.7zm0 4.5v3.7h3.1v-3.7zm9.1 9.1c-2.1-1.1-4.1-2-5.8-2.7l.5-.8c2.2.9 4.1 1.8 5.8 2.6zm-1.9-13.6h-3.1v3.7h3.1zm-3.2 4.5v3.7h3.1v-3.7z" fill="#fbfcfa"/><path d="m37.55 289.91c7.47-.86 14.7-1.71 21.94-2.53 4.53-.51 9.08-.87 13.58-1.52 1.84-.26 3.72-.88 5.38-1.72 30.1-15.32 60.16-30.75 90.3-46 2.64-1.33 5.85-1.52 8.79-2.27 2.43-.63 5-.99 7.23-2.04 13.22-6.22 26.48-12.38 39.49-19.02 7.45-3.8 15.25-5.69 23.43-6.27 7.17-.51 14.38-.6 21.57-.81 2.97-.09 5.94.05 8.91-.03 10.96-.29 15.67-5.89 14.68-16.77-.5-5.44-2.77-8.61-8.06-10.62-11.74-4.47-23.33-4.63-35.12-.64-13.17 4.45-26.65 5.74-40.45 4.13-1.27-.15-2.79.52-3.98 1.18-4.51 2.51-8.62 6.2-13.43 7.61-18.74 5.51-34.97 15.96-51.95 25-14.66 7.81-29.46 15.43-44.58 22.29-12.07 5.48-25.05 7.78-38.43 6.7-2.84-.23-5.67-.73-8.46-1.3-.81-.17-1.67-.86-2.19-1.56-4.52-6.02-8.97-12.09-13.95-18.84 1.94 0 3.33-.13 4.7.02 12 1.36 22.7-1.77 33.24-7.7 14.1-7.94 28.78-14.88 43.36-21.96 8.08-3.92 16.53-7.09 24.66-10.91 4.19-1.97 8.13-4.52 12.03-7.05 1.61-1.05 2.81-2.74 4.49-4.45-6.65-3.15-13.17-4.06-19.81-4.36-2.75-.12-5.51-.01-8.27-.02-10.04-.05-19.64-9.17-20.26-19.25-.24-3.97 1.95-7.47 5.96-9.33 7.74 7.29 17.04 11.95 27.32 14.7 7.17 1.92 14.42 2.45 21.66.44 1.09-.3 1.98-1.35 3.61-2.5-7.01-4.61-13.28-8.72-19.55-12.84-3.71-2.44-7.57-4.7-11.08-7.41-3.79-2.91-6.12-6.83-7.25-11.61-1.99-8.49 2.49-11.61 10.24-12.77 4.54-.68 8.34 1.87 11.94 4.41 1.72 1.22 3.41 2.56 5.3 3.47 9.14 4.44 17.05 10.61 24.82 17.05 1.87 1.55 4.28 2.78 6.63 3.37 12.74 3.19 25.54 6.09 38.3 9.2 2.06.5 3.58.28 5.08-1.31 4.14-4.38 8.56-8.51 12.56-13.03 1.84-2.08 2.94-4.8 4.54-7.51-3.9-.93-7.25-1.86-10.66-2.52-13.81-2.69-26.52-8.74-39.84-12.88-6.51-2.03-13.4-3.21-20.21-3.85-7.97-.74-13.22-5.03-17.6-11.07-2.79-3.84-5.14-8.03-9.64-10.34-3.15-1.61-5.8-1.67-9.16.01-15.36 7.68-29.36 17.36-43.21 27.33-8.14 5.87-17.08 7.07-26.59 4.49-1.16-.32-2.4-1.59-2.94-2.73-1.39-2.96-2.29-6.15-3.62-9.15-.87-1.94-.41-2.85 1.33-4.05 18.79-12.96 38.83-23.8 58.86-34.63 12-6.49 24-13.17 36.57-18.35 20.29-8.37 41.71-11 63.59-8.83 7.88.78 15.83 1.6 23.51 3.44 8.61 2.06 15.06 7.32 19.83 15.2 6.08 10.03 10.67 20.69 15.1 31.45.78 1.9.34 4.63-.3 6.74-2.38 7.9-5.21 15.66-7.59 23.55-1.67 5.55-3.26 11.18-4.21 16.88-.92 5.49.81 7.59 6.16 9.42 6.16 2.11 12.35.89 18.57.31 6.84-.64 13.77-1.69 20.56-1.17 8.75.67 15.71 5.42 20.31 13.04 1.11 1.84 1.95 4.16 1.97 6.27.1 9.31-.08 18.63-.32 27.94-.03 1.28-.81 2.59-1.42 3.79-7.44 14.43-13.89 29.25-18.21 44.94-.74 2.68-.4 5.01.94 7.57 2.87 5.51 6.49 10.22 10.96 14.61 10.05 9.87 20.25 19.71 27.53 31.96 4.97 8.37 7.52 17.43 6.59 27.33-1.36 14.46-2.51 28.94-3.84 43.4-.08.89-.74 2.12-1.45 2.42-.6.25-1.92-.39-2.51-1.02-6.91-7.38-12.9-15.25-16.69-24.89-3.76-9.57-9.21-18.36-16.03-26.18-8.39-9.62-15.76-19.9-20.97-31.66-2.63-5.93-8.13-7.72-14.09-8.17-1.11-.08-2.39.71-3.43 1.36-22.33 13.83-44.53 27.89-67 41.5-14.72 8.91-30.11 16.54-47.29 19.58-5.93 1.05-11.98 1.42-17.95 2.3-3.39.5-4.86-1.47-5.89-4.05-1.17-2.93.54-7.16 3.33-8.64 2.99-1.59 5.94-3.29 9.01-4.72 26.41-12.29 49.47-29.83 73.09-46.49 3.46-2.44 6.93-4.89 10.45-7.24 4.66-3.11 7.87-7.27 9.83-12.52.74-1.98.26-3.01-1.4-4.14-6.02-4.14-12.35-4.96-19.33-2.78-20.7 6.45-39.97 16.18-59.52 25.34-28.85 13.53-57.94 26.55-86.91 39.83-4.23 1.94-8.26 4.39-12.59 6.04-3.29 1.25-6.91 2.06-10.42 2.23-3.77.18-7.08-1.33-9.56-4.67-3.03-4.08-6.56-7.77-9.78-11.71-3.58-4.42-4.45-9.69-4.84-15.44zm136.43-222.29c-.1.46-.2.93-.29 1.39 1.77 1.09 3.41 2.61 5.33 3.22 23.89 7.59 47.84 15.02 71.74 22.58 6.02 1.91 14.49-1.27 12.16-10.71-1.62-6.57-4.51-12.97-7.7-18.98-3.23-6.1-9.05-8.71-15.98-9.43-8.3-.86-16.56-2.21-24.79-3.65-2.92-.51-5.53-.56-8.28.66-6.39 2.82-12.92 5.32-19.27 8.21-4.42 2.01-8.63 4.46-12.92 6.71z"/></svg>