<svg enable-background="new 0 0 400 400" viewBox="0 0 400 400" xmlns="http://www.w3.org/2000/svg"><path d="m6.4 11.7c-1-.8-1.9-1.6-2.9-2.3l.6-.7c.9.7 1.9 1.4 2.9 2.2zm-2.1 8.3c.7-2.1 1.4-4.2 2-6.4.2.1.6.3 1 .4-.7 2.3-1.3 4.4-1.9 6.4zm3-12.8c-1.1-.9-2.1-1.7-2.9-2.4l.6-.7c1 .8 2 1.5 3 2.4zm1.4-1.3v-.9h10.2v.9c-.9 4.2-2.3 7.3-4.1 9.4 1.3 1.4 3.2 2.7 5.7 4-.2.2-.4.5-.7.9-2.5-1.4-4.4-2.7-5.7-4.2-1.4 1.5-3.5 3-6.1 4.4 0 0 0 0-.1-.1-.3-.4-.5-.7-.7-.8 2.7-1.3 4.7-2.8 6.2-4.2-1.8-2.2-3-5.3-3.7-9.4zm9.2 0h-7.1c.6 3.8 1.7 6.7 3.4 8.7 1.7-2 2.9-4.8 3.7-8.7z" fill="#fbfcfa"/><path d="m31.6 3.6h.9v2.3h4.1v9.1h1.7v.9h-16.6v-.9h1.7v-9.1h4.1v-2.3h.9v2.3h3.1v-2.3zm-4 13.3.6.8c-1.9.9-3.8 1.9-5.8 2.8-.2-.3-.3-.6-.5-.9 2-.9 3.9-1.8 5.7-2.7zm-3.2-10.1v3.7h3.1v-3.7zm0 4.5v3.7h3.1v-3.7zm4.1-4.5v3.7h3.1v-3.7zm0 4.5v3.7h3.1v-3.7zm9.1 9.1c-2.1-1.1-4.1-2-5.8-2.7l.5-.8c2.2.9 4.1 1.8 5.8 2.6zm-1.9-13.6h-3.1v3.7h3.1zm-3.2 4.5v3.7h3.1v-3.7z" fill="#fbfcfa"/><path d="m106.53 35.05c5.33 1.72 10.26 3.26 15.15 4.93.68.23 1.32 1.05 1.66 1.75 5.64 11.85 11.24 23.72 16.8 35.6 1.07 2.3 1.85 4.73 2.88 7.05 4.44 10.02 1.89 19.36-2.7 28.52-.52 1.04-1.05 2.1-1.36 3.21-1.85 6.69.39 9.86 7.23 10.93 9.5 1.49 18.66-.51 27.58-3.1 8.81-2.56 17.73-4.16 26.79-5.03 8.95-.86 17.5-2.92 25.72-6.51 1.25-.55 2.59-1.08 3.92-1.19 16.04-1.33 32.08-2.85 48.14-3.75 7.69-.43 15.47.04 23.16.67 3.26.27 6.71 1.49 9.53 3.19 6.58 3.97 13.66 6.21 21.14 7.36 2.64.41 4.14 1.22 4.03 4.31-.11 2.94.15 5.98.79 8.85.66 2.95-.6 4.37-3.11 4.64-5.34.57-10.8 1.59-16.07 1.04-18.03-1.86-36 .06-53.99-.03-12.82-.07-25.29 1.98-37.72 4.71-1 .22-2.27.54-3.08.14-4.13-2.07-8.09-1.07-11.99.44-6.07 2.34-12.41.78-18.57 1.47-13.99 1.57-27.93 3.53-41.89 5.32-2.61.33-5.23.77-7.85.84-5.3.13-10.61-.03-15.91.07-2.91.05-6.65-.68-8.56.81-4.34 3.39-8.72 7.11-10.85 12.63-.81 2.09-.36 3.23 1.38 4.49 4.63 3.37 9.49 4.48 14.95 2.29 2.16-.87 4.42-1.46 6.58-2.34 5.19-2.12 10.6-2.36 16.13-2.71 5.85-.37 11.61-2.09 17.41-3.2 1.24-.24 2.51-.56 3.75-.53 16.03.42 31.99-.29 47.88-2.55 4.24-.6 8.57-.17 12.68-2.16 1.62-.78 3.95-.25 5.94-.07 7.37.68 14.71 1.79 22.08 2.14 17.19.83 34.27 2.56 50.87 7.19 13.03 3.63 21.72 12.36 25.87 25.27.75 2.32.98 5.22.31 7.51-2.32 7.94-1.97 15.8-1.08 23.9 1.92 17.27-1.41 33.97-6.6 50.37-.63 2.01-1.43 4.11-1.38 6.15.14 5.5-1.82 10.27-3.95 15.18-4.81 11.13-10.06 21.94-18.32 31-.43.47-.77 1.01-1.2 1.48-.11.13-.36.14-1.27.46.78-4.55.85-8.99 2.34-12.89 5.08-13.29 6.72-27.08 6.98-41.13.31-16.53.69-33.07.8-49.61.02-2.4-.92-5.04-2.12-7.17-6.59-11.65-16.05-20.41-27.93-26.53-.99-.51-2.22-.73-3.34-.76-3.6-.09-7.21-.11-10.81.02-1.02.04-2.71.5-2.88 1.09-.4 1.45-.53 3.3.05 4.63 1.32 2.98 3.27 5.68 4.72 8.61 1.52 3.09 2.29 6.09.27 9.61-.98 1.7-.9 4.84.02 6.67 4.44 8.91 4.49 18.33 4.45 27.92-.02 5.01 1.13 10.03 1.63 15.05.16 1.63.28 3.37-.11 4.93-1.77 6.98-3.7 13.91-5.66 20.84-.4 1.4-1.04 2.78-1.8 4.03-3.21 5.24-6.63 10.35-9.71 15.67-1.84 3.18-3.5 6.54-4.62 10.01-1.02 3.18-2.57 5.78-5.11 7.81-12.17 9.71-24.22 19.58-39.04 25.28-3.89 1.5-7.51 3.87-10.96 6.26-6.24 4.32-13.05 6.96-20.52 7.97-.91.12-2.11.26-2.76-.2-2.86-2.02-5.71-1.05-8.78-.74-3.04.31-6.21-.69-9.33-1.04-3.44-.38-6.9-.7-10.35-1.01-1.37-.12-2.79.07-4.11-.24-12.57-2.9-25.15-5.79-37.68-8.87-7.06-1.73-13.62-4.69-19.11-9.59-4.39-3.91-6.35-9.24-7.44-14.76-1.46-7.37-2.75-14.81-3.43-22.29-.31-3.46 1.03-7.06 1.51-10.61.15-1.09.31-2.48-.2-3.32-2.44-3.99-2.52-8.27-1.64-12.57.97-4.7.14-9.01-1.81-13.25-.57-1.25-1.1-2.54-1.42-3.87-.93-3.91-2.93-6.8-6.7-8.6-3.49-1.66-4.91-4.74-4.78-8.62.4-11.84-.92-23.87 2.56-35.39 2.2-7.28 2.25-14.58 2.3-21.99.01-1.85.37-3.81 1.04-5.54 5.01-12.93 9.66-26.04 15.4-38.64 4.06-8.91 9.52-17.21 14.63-25.62 3.46-5.7 7.51-11.04 11.06-16.69 7.29-11.63 10.99-23.93 6.84-37.74-1.21-4.03-1.63-8.31-2.44-12.46-.2-1.04-.19-2.36-.83-3.02-4.08-4.16-2.55-9.04-2.08-14.38zm-9.19 236.07c-.15.03-.31.05-.46.08.71 3.94 1.13 7.97 2.21 11.81 1.9 6.79 3.82 7.98 10.84 8.08 8.16.12 15.94-1.87 23.67-4.13 5.88-1.72 11.61-4.07 17.59-5.3 11.6-2.38 23.32-4.27 35.01-6.18 7.82-1.28 15.69-3.22 23.52-3.11 7.77.11 15.12-.49 22.34-3.23 1.87-.71 3.87-1.09 5.76-1.76 3.33-1.18 6.61-1.86 10.22-1.07 3.05.66 4.4-.66 4.74-3.89.49-4.74.72-9.52 1.42-14.22 1.02-6.78-.22-13.01-3.43-19-.82-1.53-1.62-1.87-3.23-1.4-6.2 1.79-12.42 3.52-18.65 5.16-5.51 1.45-11.03 3.78-16.59 3.9-7.25.16-13.97 1.36-20.59 4.14-6.14 2.58-12.52 4.59-18.66 7.17-5.63 2.37-11.45 3.6-17.47 4.32-10.07 1.22-20.28 1.91-29.7 6.24-4.65 2.14-9.41 3.02-14.52 2.04-1.95-.37-4.01-.32-6.01-.2-6.43.39-7.79 1.86-7.99 8.33-.04.74-.02 1.48-.02 2.22zm154.08-79.35c-1.94-3.36-8.92-6.14-13.76-4.74-10.5 3.04-21.25 3.6-32.09 3.55-2.72-.01-5.83-.41-8.08.73-6.28 3.18-12.76 4.77-19.74 5-5.46.18-10.97 1.55-16.34 1.06-13.58-1.24-26.84-.34-39.71 4.16-3.96 1.39-7.68 1.25-11.46.01-2.3-.75-4.51-1.81-6.74-2.77-4.64-1.99-10.9-.55-14.56 3.38-1.9 2.04-1.5 7.74 1.09 11.67 1.2 1.84 2.8 3.44 4.33 5.04 2.77 2.92 5.52 5.88 8.49 8.59 1.82 1.66 3.86 3.59 6.12 4.18 6.63 1.72 13.37 3.6 20.15 4.03 17.27 1.09 34.21-1.48 50.88-6.1 3.11-.86 5.41-2.47 7.68-4.66 1.8-1.73 4.18-3.4 6.56-3.9 18.43-3.87 35.2-12.03 52.08-19.88.87-.41 1.77-1.21 2.19-2.07 1.03-2.12 1.77-4.37 2.91-7.28zm-57.07 113.23c-1.68 2.47-3.36 3.12-5.88 2.02-1.13-.49-2.85-.02-4.17.42-4.57 1.54-8.77 4.06-13.95 3.62-15.36-1.3-29.96 3.43-44.78 6.21-5.85 1.1-8.27 6.33-5.67 11.21.54 1 1.69 1.75 2.69 2.42 1.57 1.05 3.2 2.05 4.91 2.85 1.74.82 3.55 1.66 5.42 1.99 5.15.91 10.55-.02 15.53 2.52 1.86.95 4.3 1.4 6.39 1.18 8.41-.85 16.85-1.74 25.17-3.2 12.62-2.22 25.13-5.03 36.54-11.25 1.81-.99 3.62-2.26 4.94-3.82 2.38-2.83 4.79-5.77 6.4-9.05 1.27-2.6 1.88-5.8 1.83-8.71-.07-3.42-4.38-6.68-7.38-5.86-7.8 2.13-16.1 2.97-22.81 8.17-1.85 1.42-3.53 1.96-5.18-.72zm-24.74-115.14c.4 1.42.67 2.4 1 3.57 2.06-.77 3.7-1.38 5.35-2-.05-.2-.11-.4-.16-.6-1.92-.29-3.82-.59-6.19-.97z"/></svg>