<svg enable-background="new 0 0 400 400" viewBox="0 0 400 400" xmlns="http://www.w3.org/2000/svg"><path d="m6.4 11.7c-1-.8-1.9-1.6-2.9-2.3l.6-.7c.9.7 1.9 1.4 2.9 2.2zm-2.1 8.3c.7-2.1 1.4-4.2 2-6.4.2.1.6.3 1 .4-.7 2.3-1.3 4.4-1.9 6.4zm3-12.8c-1.1-.9-2.1-1.7-2.9-2.4l.6-.7c1 .8 2 1.5 3 2.4zm1.4-1.3v-.9h10.2v.9c-.9 4.2-2.3 7.3-4.1 9.4 1.3 1.4 3.2 2.7 5.7 4-.2.2-.4.5-.7.9-2.5-1.4-4.4-2.7-5.7-4.2-1.4 1.5-3.5 3-6.1 4.4 0 0 0 0-.1-.1-.3-.4-.5-.7-.7-.8 2.7-1.3 4.7-2.8 6.2-4.2-1.8-2.2-3-5.3-3.7-9.4zm9.2 0h-7.1c.6 3.8 1.7 6.7 3.4 8.7 1.7-2 2.9-4.8 3.7-8.7z" fill="#fbfcfa"/><path d="m31.6 3.6h.9v2.3h4.1v9.1h1.7v.9h-16.6v-.9h1.7v-9.1h4.1v-2.3h.9v2.3h3.1v-2.3zm-4 13.3.6.8c-1.9.9-3.8 1.9-5.8 2.8-.2-.3-.3-.6-.5-.9 2-.9 3.9-1.8 5.7-2.7zm-3.2-10.1v3.7h3.1v-3.7zm0 4.5v3.7h3.1v-3.7zm4.1-4.5v3.7h3.1v-3.7zm0 4.5v3.7h3.1v-3.7zm9.1 9.1c-2.1-1.1-4.1-2-5.8-2.7l.5-.8c2.2.9 4.1 1.8 5.8 2.6zm-1.9-13.6h-3.1v3.7h3.1zm-3.2 4.5v3.7h3.1v-3.7z" fill="#fbfcfa"/><path d="m249.84 366.64c-2.77-6.49-3.58-12.36-.46-18.41 4.42-8.57 5.66-17.94 6.35-27.35.33-4.4.03-8.89-.45-13.29-.16-1.47-1.51-3.08-2.76-4.09-1.99-1.61-3.67-3.29-2.47-5.86 2.83-6.13 2.25-12.37 1.21-18.71-.58-3.55-1.16-7.11-1.56-10.69-.14-1.3-.16-2.89.46-3.94 1.39-2.35 1.5-4.54.26-6.88-2.24-4.26-1.92-8.71-1.32-13.29.92-7.04 1.63-14.11 2.29-21.18.43-4.61-1.39-6.3-5.87-5.47-3.06.56-5.46-.57-7.49-2.55-2.32-2.25-4.77-2.89-7.65-1.33-2.43 1.31-3.96.43-5.56-1.63-3.24-4.19-6.7-8.22-10.19-12.2-8.64-9.86-19.82-15.52-32.2-19.09-1.21-.35-2.52-.35-3.78-.51-1.23-.16-2.46-.32-3.84-.49 1.68-4.2 3.72-7.48 8.4-8.86 4.85-1.43 9.43-3.76 14.18-5.58 1.65-.63 2.33-1.41 1.95-3.27-1.62-7.87-1.72-15.56 4.47-23.12-2.2 0-3.27-.03-4.33.02-.28.02-.55.31-.8.49-4.37 3.15-8.6 6.98-14.28 2.54-1.51 2.52-2.65 4.67-4.03 6.65-2.25 3.23-5.22 3.53-8.38 1.08-1.79-1.39-3.42-.85-4.39.95-1.51 2.77-3.76 3.26-6.46 2.46-4.34-1.29-8.08-.53-11.45 2.58-1.7 1.57-3.78 2.74-5.55 4.25-1.71 1.46-3.44 2.38-5.72 1.5-.38-.15-1.08-.3-1.22-.13-2.2 2.78-4.95.55-7.36.95-5.45.91-9.23 4.63-12.08 9.08-.57.9.71 2.98 1.19 4.72-5.88 1.68-11.85 3.47-17.89 5.04-.9.23-2.29-.27-3.07-.91-6.7-5.48-14.35-6.87-22.7-5.65-2.09.31-4.21.7-6.3.67-6.87-.1-11.41-4.5-12.86-12.53-.3-1.65-1.62-3.67.82-5.1 2.51-1.46 4.25-4.21 8.07-2.32 5.71 2.82 7.31 2.29 11.56-2.42 1.71-1.9 3.55-3.25 6.15-3.39 4.08-.21 7.59-1.63 10.29-4.82 1.77-2.09 4.01-2.99 6.76-2.58 4.33.65 8.01-1.1 11.79-2.91 4.82-2.3 9.82-4.21 14.75-6.29.07.32.15.64.22.96.71.73 1.43 1.45 2.14 2.18.68-.73 1.63-1.34 1.99-2.2 1.74-4.22 5.5-5.47 9.36-6.21 9.36-1.78 18.78-3.21 28.15-4.94 10.1-1.87 20.17-3.9 30.25-5.89 4.53-.9 6.97-3.29 7.21-7.98.27-5.38-.38-10.8-.07-16.17.65-11.11 1.38-22.23 2.67-33.28.52-4.5 5.54-2.37 8.25-3.84 1.65-.9 2.49.19 3.04 1.65 4.24 11.4 8.53 22.78 12.74 34.19 2.38 6.46 5.37 12.47 11.3 16.48 6.08 4.1 8.61 3.82 10.44-3.15 3.26-12.41 10.91-22.67 15.48-34.38.42-1.07 1.83-2.05 2.99-2.47 2.89-1.03 4.55-2.86 5-5.88.35-2.38 1.65-3.97 3.97-4.85.71-.27 1.67-1.35 1.6-1.94-.49-3.82 1.73-6.51 3.81-9.11 3.07-3.83 6.5-7.39 10.41-11.79 1.74 3.65 3.34 6.15 4.18 8.89 4.71 15.4 6.29 31.12 4.01 47.11-.73 5.1-2.79 9.49-8.33 11.25-3.02.96-5.3 2.56-6 6.17-.27 1.36-2.49 2.32-3.79 3.51-1.5 1.37-2.97 2.78-4.45 4.17.21.3.43.59.64.89 4.62.23 9.25.37 13.87.74 1.38.11 3 .5 4.02 1.35 2.95 2.46 6.22 3.83 10.01 4.3 1.87.23 3.66 1.03 5.51 1.47 5.22 1.22 10.46 2.37 15.68 3.56 1.11.25 2.38.3 3.27.89 2.21 1.46 3.07 10.34 1.4 12.93-1.99 3.1-7.36 4.13-10.92 2.09-.64-.37-1.29-.74-1.89-1.17-2.27-1.62-4.37-2.78-7.41-1.2-1.59.83-3.92.4-5.9.29-5.26-.29-10.52-.68-15.78-1.11-.99-.08-2.21-.21-2.88-.81-5.08-4.54-11.24-6.03-17.71-5.68-8.35.46-16.65 1.57-24.98 2.39-3.69.36-7.4.59-11.07 1.13-1.07.16-2.71.97-2.9 1.77-1.17 4.9-2.06 9.87-2.88 14.84-.1.61.69 1.45 1.21 2.06 1.16 1.37 2.55 2.58 3.6 4.03 2.04 2.83 2.54 5.81 1.22 9.27-2.08 5.43-4.66 10.34-9.36 14.07-2.68 2.13-2.42 6.19.32 8.31 4.97 3.85 10.71 5.99 16.96 6.5 1.05.08 2.66-.78 3.24-1.69 2.46-3.93 1.16-15.25-2.17-18.42-.82-.78-2.61-.55-4.88-.94 0-5.42-.06-11.01.05-16.6.02-.95.59-1.99 1.16-2.81 1.73-2.47 3.14-4.9 2.72-8.18-.35-2.76 2.22-2.68 3.97-3.05 1.64-.35 3.61-1.3 4.38 1.42 1.03 3.6 3.35 6 6.85 7.4.9.36 2.09 1.2 2.26 2 1.48 7.05 6.71 11.67 10.91 16.89 2.26 2.81 3.65 5.57 3.13 9.19-.68 4.65.65 8.65 3.58 12.36 1.25 1.58 1.9 3.79 2.36 5.82.61 2.7 2.27 3.74 4.73 3.59 4.54-.29 9.1-.53 13.58-1.24 6.8-1.07 13.55-2.45 20.28-3.88 1.35-.29 2.58-1.3 3.77-2.12 3.03-2.07 6-4.21 9.51-6.69 1.19 6.08 2.25 11.32 3.2 16.59.1.56-.32 1.36-.73 1.85-1.12 1.37-2.41 2.6-3.55 3.96-1.33 1.57-5.02 1.84-7.32.37-1.5-.96-2.92-2.05-4.81-3.39-1.51 5.6-6.21 4.78-10.19 5.81-5.5 1.42-10.91 3.24-16.21 5.29-2.98 1.15-5.56 1.69-8.23-.45-.63-.51-1.51-.71-2.93-1.35-1.7 4.21-3.61 8.2-4.94 12.38-1.85 5.81-4.07 11.64-2.33 17.98.22.82-.23 1.85-.44 2.77-2.58 11.46-5.44 22.86-7.61 34.39-.63 3.35.89 7.07 1.1 10.64.16 2.66-.18 5.35-.33 8.02-.07 1.25-.53 2.56-.29 3.73.74 3.62.4 7.05-1.8 10-2.16 2.9-2.6 5.93-1.5 9.22 1.01 3.01.24 5.43-1.58 7.94-3.23 4.46-6.17 9.13-9.2 13.73-1.82 2.76-3.04 5.48-1.08 8.87.45.78-.42 2.77-1.23 3.73-1.03 1.21-2.63 1.99-4.51 3.34z"/><path d="m133.2 214.41c3.61.19 6.57.38 9.53.5 2.89.12 5.61.41 7.83 2.73.72.75 2.32 1.03 3.47.94 6.69-.54 12.94 1.01 19.23 3.17 10.5 3.61 21.16 6.76 31.71 10.21 1.67.54 3.33 1.41 4.69 2.51 2.87 2.31 2.78 4.68-.11 7.02-.45.37-1.35.41-1.99.3-6.05-1.07-12.08-2.19-18.12-3.34-.69-.13-1.67-.34-1.93-.83-1.68-3.14-4.45-3.04-7.42-2.92-1.77.07-3.58-.25-5.32-.64-5.85-1.31-11.67-1.62-17.65-.74-3.28.48-6.72-.05-10.07-.26-4.43-.27-8.86-1.01-13.27-.88-2.21.06-4.69 1.19-6.49 2.56-4.37 3.34-8.49 7.03-12.54 10.77-.8.74-1.27 2.35-1.15 3.48.28 2.73 1.08 5.39 1.52 8.11.55 3.44-1.83 5.56-5.18 4.58-2.33-.68-4.57-1.64-6.86-2.47-2.53-.91-4.85-.64-6.55 1.59-3.54 4.63-7.81 5.3-12.97 2.91-3.67-1.7-8.21-1.28-11.25-4.61-.28-.31-1.01-.37-1.5-.31-4.8.6-7.63-2.37-8.97-6.12-2-5.63-3.24-11.56-4.42-17.44-.2-.98 1.28-3.06 2.38-3.41 5.11-1.62 10.3-3.1 15.56-4.05 4.85-.88 9.27-2.41 13.71-4.59 4.06-1.99 8.79-2.64 13.24-3.8 3.79-.99 7.88-1.27 11.35-2.9 6.62-3.1 13.32-2.84 19.54-2.07z"/></svg>