<svg enable-background="new 0 0 400 400" viewBox="0 0 400 400" xmlns="http://www.w3.org/2000/svg"><path d="m6.4 11.7c-1-.8-1.9-1.6-2.9-2.3l.6-.7c.9.7 1.9 1.4 2.9 2.2zm-2.1 8.3c.7-2.1 1.4-4.2 2-6.4.2.1.6.3 1 .4-.7 2.3-1.3 4.4-1.9 6.4zm3-12.8c-1.1-.9-2.1-1.7-2.9-2.4l.6-.7c1 .8 2 1.5 3 2.4zm1.4-1.3v-.9h10.2v.9c-.9 4.2-2.3 7.3-4.1 9.4 1.3 1.4 3.2 2.7 5.7 4-.2.2-.4.5-.7.9-2.5-1.4-4.4-2.7-5.7-4.2-1.4 1.5-3.5 3-6.1 4.4 0 0 0 0-.1-.1-.3-.4-.5-.7-.7-.8 2.7-1.3 4.7-2.8 6.2-4.2-1.8-2.2-3-5.3-3.7-9.4zm9.2 0h-7.1c.6 3.8 1.7 6.7 3.4 8.7 1.7-2 2.9-4.8 3.7-8.7z" fill="#fbfcfa"/><path d="m31.6 3.6h.9v2.3h4.1v9.1h1.7v.9h-16.6v-.9h1.7v-9.1h4.1v-2.3h.9v2.3h3.1v-2.3zm-4 13.3.6.8c-1.9.9-3.8 1.9-5.8 2.8-.2-.3-.3-.6-.5-.9 2-.9 3.9-1.8 5.7-2.7zm-3.2-10.1v3.7h3.1v-3.7zm0 4.5v3.7h3.1v-3.7zm4.1-4.5v3.7h3.1v-3.7zm0 4.5v3.7h3.1v-3.7zm9.1 9.1c-2.1-1.1-4.1-2-5.8-2.7l.5-.8c2.2.9 4.1 1.8 5.8 2.6zm-1.9-13.6h-3.1v3.7h3.1zm-3.2 4.5v3.7h3.1v-3.7z" fill="#fbfcfa"/><path d="m279.49 367.07c-7.69-7.97-14.6-15.13-21.51-22.3-12.8-13.28-25.63-26.55-38.37-39.89-1.52-1.59-3.08-2.15-5.25-2.23-2.8-.1-5.68-.51-8.35-1.34-9.55-2.96-19.21-4.72-29.11-2.43-8.82 2.04-17.22.08-25.71-1.79-20.81-4.57-39.86-13.46-58.38-23.64-7.42-4.08-7.43-4.44-6.13-13.74.62-4.46.83-5.13 5.26-4.72 7.66.71 15.28 2.02 22.87 3.35 2.08.36 3.96 1.78 5.99 2.55 2.32.88 4.75 2.34 7.07 2.23 5.72-.28 10.92.84 15.73 3.83 3.36 2.09 6.81 1.83 10.62 1.59 5.84-.37 11.77.26 17.64.71 4.73.36 9.44 1.08 14.11 1.64 2.06-6.31 2.2-6.65-2.82-10.22-6.21-4.41-12.96-8.08-19.09-12.59-14.68-10.8-29.1-21.97-43.71-32.88-7.39-5.52-15.05-10.67-22.41-16.21-6.81-5.12-6.72-5.25-4.01-13.21.3-.89.65-1.77 1.07-2.92 3.42 1.41 6.72 2.75 10 4.12 21.96 9.22 43.92 18.44 65.87 27.69 1.45.61 2.86 1.4 4.12 2.33 12.41 9.25 24.87 18.44 37.12 27.9 3.49 2.7 6.55 6.04 9.45 9.39 4 4.63 10.64 5.22 14.69.56 2.29-2.63 4.96-4.93 7.27-7.55 4.32-4.89 4-11.66.13-16.9-6.85-9.23-16-15.6-25.44-21.73-4.44-2.88-8.95-5.71-13.12-8.97-6.67-5.21-14.17-7.68-22.39-9.6-16.78-3.92-33.27-9.07-49.88-13.75-14.46-4.07-28.92-8.18-43.79-12.39.27-4.71.47-9.66.93-14.59.06-.6 1.51-1.56 2.29-1.53 5.79.23 11.61.39 17.35 1.09 10.6 1.29 21.15 2.94 31.73 4.4.93.13 1.92.05 2.85-.1 2.89-.47 6.3-.36 7.46-3.77 1.18-3.48.51-6.84-1.99-9.75-4.69-5.47-9.5-10.87-13.91-16.56-3.48-4.49-6.36-9.43-9.64-14.08-2.23-3.16-4.46-6.37-7.09-9.19-5.91-6.35-12.15-12.39-18.09-18.71-2.69-2.86-3.66-6.38-3.62-10.46.08-8.37-.37-16.74-.6-25.12-.03-1.14 0-2.28 0-3.81 1.39 0 2.53-.03 3.66 0 23.27.71 46.35-2.11 69.5-3.66 14.06-.94 28.09-2.51 42.17-2.98 10.98-.37 21.64 2.42 31.98 6.1 13.36 4.76 26.53 10.13 40.1 14.19 14.09 4.21 18.89 17.8 18.91 28.18.02 8.08-2.4 15.75-5.89 22.9-1.76 3.61-5.04 6.49-7.67 9.68-6.8 8.27-13.47 16.65-22.59 22.62-.82.54-1.44 1.78-1.63 2.8-.39 2.07-.42 4.2-.64 6.72 18.97 5.21 34.07 15.77 45.03 31.92-.13.46-.25.92-.38 1.38-5.24.18-10.49.74-15.7.45-10.35-.57-20.77-.93-30.61-4.89-.91-.37-2.09-.29-3.1-.13-5.21.84-10.28.48-15.33-1.15-4.98-1.61-9.93-.44-14.59 1.3-1.49.55-2.83 2.73-3.32 4.42-.65 2.22-.12 4.32 2.33 5.92 13.3 8.71 26.38 17.74 39.7 26.41 5.63 3.67 7.73 8.82 6.65 14.94-1.05 5.89-3.1 11.62-4.95 17.34-.49 1.53-1.76 2.86-2.84 4.14-4.98 5.92-10.37 11.53-14.95 17.74-5.94 8.03-4.98 17.91 1.27 25.7 16.02 19.99 24.53 43.06 27.21 68.38.12 1.38-.85 2.81-1.53 4.87zm-40.05-225.29c-4.44-5.53-8.5-10.69-12.7-15.73-.65-.79-1.95-1.03-2.94-1.55-1.7-.88-3.79-1.4-5.03-2.72-13.17-13.94-26.3-27.92-39.22-42.1-3.58-3.94-7.68-6.63-12.73-7.83-3.27-.78-6.67-1.44-10-1.42-11.79.07-23.54-.1-34.96-3.38-3.74-1.07-6.81-.35-10.41 2.36 1.48 2.04 2.77 4.29 4.51 6.11 2.62 2.74 5.54 5.2 8.37 7.73 3.54 3.17 6.84 6.72 10.75 9.34 9.58 6.42 19.53 12.3 29.18 18.61 2.87 1.87 5.39 4.33 7.85 6.73 3.43 3.36 5.67 7.82 10.43 9.99 2.42 1.11 4.56 3.31 6.24 5.47 3.5 4.52 6.89 9.16 9.8 14.07 3.6 6.08 8.97 7.46 15.21 6.41 9.52-1.59 17.4-6.84 25.65-12.09zm14.37-10.71c2.75-1.9 5.52-3.19 7.45-5.27 3.44-3.71 6.16-8.08 9.56-11.83 5.37-5.92 7.56-13.14 9.01-20.66 2.75-14.31-3.14-23.21-17.39-26.25-14.85-3.17-29.89-4.56-45.1-4.53-5.79.01-10.99 1.13-16.02 3.97-2.11 1.19-2.34 2.56-2.36 4.58-.02 2.27 1.67 2.19 3 2.45 4.78.9 8.78 3.22 12.83 5.87 10.1 6.6 18.82 14.76 27.16 23.34 1.9 1.95 3.44 4.5 4.42 7.06 2.6 6.77 4.82 13.7 7.44 21.27z"/></svg>