<svg enable-background="new 0 0 400 400" viewBox="0 0 400 400" xmlns="http://www.w3.org/2000/svg"><path d="m6.4 11.7c-1-.8-1.9-1.6-2.9-2.3l.6-.7c.9.7 1.9 1.4 2.9 2.2zm-2.1 8.3c.7-2.1 1.4-4.2 2-6.4.2.1.6.3 1 .4-.7 2.3-1.3 4.4-1.9 6.4zm3-12.8c-1.1-.9-2.1-1.7-2.9-2.4l.6-.7c1 .8 2 1.5 3 2.4zm1.4-1.3v-.9h10.2v.9c-.9 4.2-2.3 7.3-4.1 9.4 1.3 1.4 3.2 2.7 5.7 4-.2.2-.4.5-.7.9-2.5-1.4-4.4-2.7-5.7-4.2-1.4 1.5-3.5 3-6.1 4.4 0 0 0 0-.1-.1-.3-.4-.5-.7-.7-.8 2.7-1.3 4.7-2.8 6.2-4.2-1.8-2.2-3-5.3-3.7-9.4zm9.2 0h-7.1c.6 3.8 1.7 6.7 3.4 8.7 1.7-2 2.9-4.8 3.7-8.7z" fill="#fbfcfa"/><path d="m31.6 3.6h.9v2.3h4.1v9.1h1.7v.9h-16.6v-.9h1.7v-9.1h4.1v-2.3h.9v2.3h3.1v-2.3zm-4 13.3.6.8c-1.9.9-3.8 1.9-5.8 2.8-.2-.3-.3-.6-.5-.9 2-.9 3.9-1.8 5.7-2.7zm-3.2-10.1v3.7h3.1v-3.7zm0 4.5v3.7h3.1v-3.7zm4.1-4.5v3.7h3.1v-3.7zm0 4.5v3.7h3.1v-3.7zm9.1 9.1c-2.1-1.1-4.1-2-5.8-2.7l.5-.8c2.2.9 4.1 1.8 5.8 2.6zm-1.9-13.6h-3.1v3.7h3.1zm-3.2 4.5v3.7h3.1v-3.7z" fill="#fbfcfa"/><path d="m166.95 86.48c1.58-.59 2.95-1.09 4.98-1.85-6.24-2.37-4.49-6.37-3.31-10.78 1.67-6.21 2.54-12.63 3.75-18.96.1-.52.05-1.08.21-1.57 1.82-5.6 3.84-11.17 1.16-17.22.3-.06.59-.13.89-.19 2.56 3.18 5.25 6.28 7.61 9.6.66.93.89 2.73.45 3.77-1.1 2.61-.96 4.95.48 7.26 1.66 2.66 1.89 5.31 1.23 8.46-.61 2.87-.26 6.01.04 8.99.81 8.14 4.21 15.13 9.43 21.42 1.24 1.49 1.09 4.06 1.89 6.01.52 1.25 1.62 2.27 2.72 3.75 1.32-1.66 2.15-2.71 3.08-3.88-1.88-2.02-3.65-3.92-5.8-6.24 3.2-.58 5.85-1.19 8.54-1.47.62-.06 1.42.92 2.02 1.54 1.74 1.8 3.15 4.04 5.18 5.38 2.15 1.42 4.49 1.2 5.29-2.06.25-1.01.74-1.97 1.27-3.33-3.21-.59-6.27-1.15-9.32-1.7-.05-.26-.1-.52-.15-.77 2.62-.88 5.19-2.27 7.88-2.54 12.49-1.26 24-5.98 35.78-9.73 4.09-1.3 7.9-3.13 12.53-1.32 1.74.68 4.36-.9 6.04-1.31-.11 1.19-.23 2.56-.35 3.93l1.02.21c1.16-.71 2.31-1.42 3.6-2.22-2.14-2.38-1.31-3.71 1.37-4.52 1.92-.58 3.77-1.39 5.69-1.98 3.03-.94 6.11-1.25 8.82.76 3.79 2.81 8.02 1.72 12.29 1.39.57 4.45-.53 7.77-4.62 10.02-.25-.43-.45-.83-.71-1.19-.24-.32-.55-.59-.77-.82-.35.02-.67-.04-.75.06-4.54 6-11.27 6.87-18.03 8-4.82.8-9.53 2.31-14.82 3.64-.14-.16-.91-1.01-1.99-2.21-3.48 5.6-8.92 5.62-14.57 5.63-4.07.01-7.87 1.2-10.72 4.61-2.52 3.01-6.37 2.47-9.74 2.91-6.19.8-12.43 1.19-18.61 1.98-1.72.22-3.49 1.03-4.94 2.01-1.24.84-2.06 2.3-3.65 4.18-3.91-.57-5.08 3.51-6.8 6.81-2.25 4.32-4.34 8.72-6.37 13.14-.65 1.42-1.08 3-1.32 4.55-1.13 7.36 1.05 10.53 8.29 11.89 4.99.94 10.04 1.62 15.05 2.44 7.41 1.21 14.55.08 21.51-2.53.49-.18 1.21-.32 1.39-.69 2.81-5.79 7.71-10.96 5.8-18.2-.38-1.42-1.31-2.78-2.26-3.96-2.17-2.71-4.62-5.2-6.68-7.98-.46-.62-.13-2.36.46-3.1.96-1.21 2.29-2.38 3.71-2.9 1.37-.5 3.26-.64 4.57-.09 4.83 2.04 9.57 3.96 15 2.85 6.4-1.31 12.35 1.11 18.4 2.45 12.41 2.74 24.78 5.63 37.12 8.66 1.88.46 3.63 1.86 5.17 3.15 1.36 1.14 2.18 2.91 3.51 4.09 2.81 2.48 2.59 5.54 2.15 9-4.19.59-8.36 1.29-12.56 1.69-.96.09-2.13-.69-3.02-1.32-1.98-1.39-3.84-2.94-6.1-4.69-1.82 4.25-5.14 4.05-8.83 3.69-5.31-.51-2.4-5.96-5.47-7.99-.83 1.46-2.02 2.89-2.48 4.54-.56 2-1.75 2.28-3.31 1.88-2.82-.72-5.58-1.67-8.4-2.42-.98-.26-2.05-.37-3.05-.28-2.43.24-4.84.63-7.9 1.06-1.25 3.57-4.75 5.72-9 6.94-.71.2-1.36.58-2.05.84-2.93 1.13-4.76 2.84-4.13 6.39.31 1.75-.04 3.6.09 5.4.06.89.53 1.75.97 3.08 1.07-1.19 1.69-1.87 2.55-2.83 3.8 3.49 7.97 3.42 12.69 1.9 2.12-.68 5.04-.03 7.23.88 4.09 1.7 8.04 3.83 11.84 6.13 7.18 4.37 14.8 7.18 24.3 7.34-.89 2.8-1.59 4.96-2.28 7.13-.66 2.09-1.56 4.15-1.9 6.29-.61 3.87-1.92 7.21-5.57 9.08-2.7 1.37-3.69 3.64-3.96 6.42-.22 2.32-.67 4.67-.49 6.97.31 4.04-1.49 6.78-4.46 9.18-1.97 1.59-3.78 3.43-5.42 5.36-.87 1.03-1.21 2.5-1.15 4.1-.14.16-.26.45-.41.45-5.3.24-8.8 3.13-11.83 7.28-4.52 6.19-11.15 9.24-18.36 11.2-2.55.69-5.09 1.47-7.59 2.31-.77.26-1.43.85-2.61 1.58-.37-.16-1.31-.64-2.29-1.01-2.4-.91-4.06-.43-4.79 2.33-.37 1.41-1.08 2.76-1.8 4.05-1.6 2.89-4.07 3.83-7.49 2.78-1.35 4.86-5.42 5.06-9.33 5.55-1.37.17-2.73.35-4.08.62-4.53.9-7 3.22-6.81 7.79.38 9.52 1.14 19.02 2.01 28.51.66 7.21 2.52 14.12 5.74 20.7.86 1.76.21 4.28.13 6.44-.01.29-.76.69-1.21.78-1.57.33-7.41-2.37-8.28-3.76-1.23-1.98-2.68-3.87-3.58-5.99-.69-1.61-1-3.54-.89-5.29.11-1.69.08-2.76-1.72-3.47-1.96-.77-3.79-1.88-5.67-2.85-.18-.09-.31-.28-.55-.5.69-.64 1.38-1.27 1.61-1.48-5.03-9.44-9.94-18.66-15.12-28.39-4.57 6.06-11.04 5.9-17.31 6.74-3.8.51-7.46 2.09-11.54 3.29-1.41-1.97-3.74-2.05-6.29-.78-2.96 1.48-4.79-.29-6.37-2.16-1.25 1.76-2.3 3.68-3.82 5.12-.4.38-2.22-.72-3.73-1.27 1.27-.73 2.2-1.26 3.86-2.2-3.8-.52-6.05-4.24-10.17-1.92 1.2 1.58 2.21 2.89 3.21 4.21-2.36 4.36-3.07 4.45-6.28.86-1.23-1.38-2.48-2.74-4.31-4.76-.18 3.11-.44 5.3-.4 7.48.04 2.38-.82 3.43-3.31 3.42-2.64-.01-5.28.5-7.92.52-1.93.02-2.55.83-2.72 2.63-.23 2.42-.73 4.82-1.11 7.22-.61 3.83-1.7 7.68.87 11.3.33.47.34 1.23.33 1.85-.06 10.96 6.66 17.08 15.75 20.86 4.92 2.04 10.38 3.01 15.7 3.73 2.4.33 4.57-.34 6.65 1.88 1.1 1.17 2.35-.24 2.64-2.15 1.32-8.65 5.87-15.06 13.82-18.91.66-.32 1.37-.56 2.08-.78.5-.15 1.02-.19 1.93-.35 0 4.37.1 8.57-.08 12.76-.04.83-1.03 1.73-1.77 2.39-2.51 2.26-4.31 4.79-4.89 8.28-1.27 7.58-5.71 12.32-13.35 13.89-4.56.94-9.12 1.94-13.69 2.8-.72.14-1.59-.17-2.31-.47-2.6-1.05-5.07-2.7-7.75-3.18-4.76-.85-8.32-3.37-11.72-6.5-1.27-1.17-3.08-1.76-5.35-3 1.32-4.81-2.28-7.31-6.8-9.68-2.31-1.21-4.41-3.51-2.25-6.84.35-.54-.18-1.79-.52-2.62-1.56-3.81-3.2-7.58-4.88-11.55 1.27-.55 2.37-1.02 3.47-1.5-4.77-.08-3.96-3.65-3.91-6.41.2-10.05.12-20.14 1.06-30.12.53-5.6 2.95-11.01 4.33-16.55.47-1.89.66-3.95.5-5.89-.69-8.59-1.08-17.14 1.36-26.02.65.81 1.17 1.36 1.58 1.98 1.99 2.96 3.92 3.6 6.89 1.56 2.41-1.67 4.74-3.66 6.56-5.94 6.12-7.62 13.52-13.57 21.85-18.65 14.48-8.83 28.83-17.87 44.93-23.55 5.81-2.05 10.93-5.07 15.48-9.13 1.26-1.12 2.46-2.36 3.44-3.73 3-4.21 1.82-7.4-3.35-7.23-7.3.24-12.72-3.12-18.27-6.96-1.49-1.03-3.65-1.21-5.54-1.54-1.23-.21-2.54-.03-3.81.1-3.99.4-7.36-.26-10.81-2.93-5.76-4.46-10.29-3.67-15.43 1.47-3.75 3.75-7.64 7.38-11.2 11.29-2.47 2.72-5.23 4.38-8.89 4.92-1.28.19-2.96 1.4-3.46 2.57-2.92 6.85-7.65 12.06-13.46 16.56-2.19 1.7-3.8 4.16-6.09 6.75-.65-5.27-1.28-10.13-1.83-14.99-.05-.44.22-1.06.55-1.38 3.56-3.42 7.16-6.79 10.76-10.18-1.23-1.33-1.09-2.7 1.06-3.66.67-.3 1.37-.61 2.09-.74 4.88-.92 8.19-2.96 6.97-8.8-.17-.8.62-1.98 1.26-2.73 6.01-7.05 9.83-15.01 10.32-24.39.04-.74.17-1.47.3-2.2.13-.72.31-1.44.48-2.26 4.38-.11 8.4-.57 12.82 1.45 12.76 5.82 26.33 9.43 40.25 11.2 6.77.86 5.75 1.06 6.97-5.36.49-2.58-.54-5.52-1.17-8.23-1.09-4.7-2.58-9.32-3.57-14.04-.52-2.46-.18-5.09-.48-7.61-.48-4.08-.29-8.05 1.37-11.83.95-2.19.78-3.91-1.09-5.61-1.72-1.54-3.1-3.46-4.8-5.42zm-15.84 140.64c-.32 4.09-2.53 6.04-5.42 5.9-1.69-.08-3.27-2.27-5.04-3.63 0-.01-.58.77-.39 1.12 1.26 2.27-.06 3.51-1.65 4.74-.92.71-1.7 1.63-2.66 2.25-1.91 1.23-2.43 2.69-1.23 4.71 1.04 1.74.71 3.28-.52 4.92-1.68 2.25-3.09 4.7-4.66 7.14 1.29.74 2.27 1.31 3.38 1.95-.59 1.8-1.06 3.53-1.73 5.16-.72 1.76-.64 3.03 1.04 4.32 2.4 1.85 3.38 4.53 3.4 7.55.01 1.21 0 2.43 0 3.62 10.28 1.45 19.19-.74 27.56-5.77 2.46-1.48 3.69-3.34 3.46-6.17-.55-6.64-1.05-13.28-1.71-19.9-.21-2.06-.24-4.64-1.45-6-3.65-4.05-7.84-7.62-12.38-11.91zm50.98 24.84c6.87-3.01 13.18-4.2 20.01-1.94-.66-.88-1.32-1.77-2.04-2.74 1.46-1.7 2.68-3.47 4.24-4.85 2.6-2.29 3.18-5.1 2.81-8.31-.73-6.38-2.34-12.49-6.13-17.78-2.04-2.85-4.43-5.44-8.25-5.88-8.06-.93-15.36 2.07-22.71 4.61-1.3.45-2.78 1.9-3.16 3.18-1.73 5.8-1.56 11.68 2.03 16.74 4.21 5.94 8.92 11.52 13.2 16.97zm-111.34 20.62c.68 2.18 1.49 3.59 1.49 5.01 0 5.13 3.42 7.97 7.2 11.86-.12-6.49 4.06-6.32 7.92-6.63.42-.03.85.03 1.27-.04 4.47-.72 8.96-1.35 13.38-2.28 1-.21 2.36-1.33 2.59-2.27 1.54-6.28 1.64-12.42-1.13-18.59-1.82-4.07-2.92-8.54-3.78-12.93-.54-2.72-1.64-3.67-4.2-3.24-1.04.18-2.16.23-3.08.67-5.14 2.43-9.64 1.82-13.36-2.84-3.92 5-4.87 11.91-11.84 14.67 2.19.73 3.75 1.24 5.61 1.86-1.74 2.66-3.34 5.11-4.95 7.57 4.91 2.87 5.4 4.66 2.88 7.18zm158.55-78.18c-.88 5.88-4.61 8.1-9.25 9.48-2.52.75-5.01 1.71-7.39 2.84-.72.34-1.52 1.59-1.45 2.34.62 6.09.86 12.31 2.33 18.21 2.9 11.63 7.17 13.73 17.34 7.33 7.41-4.66 13.53-11.36 20.41-17.31-7.77-3.75-8.15-12.04-12.66-17.79-2.29 2.53-4.66 4.77-8.01 1.53.7-1.24 1.42-2.51 2.26-4-1.09-.8-2.08-1.53-3.58-2.63zm10.55-4.33c.82-3.36-.58-5.33-3.11-6.1-2.89-.88-5.96-1.32-8.98-1.62-5.99-.61-11.76-1.57-16.06-6.39-.55-.62-1.73-1.48-2.12-1.28-.78.41-1.22 1.48-1.88 2.39-1.66-1.39-3.4-2.85-4.51-3.78-2.65 1.49-4.76 2.78-6.96 3.88-1.41.7-3.04.97-4.41 1.73-.61.34-1.33 1.57-1.14 2.09 1.39 3.94 2.84 7.89 4.66 11.65.45.92 2.34 1.6 3.58 1.61 8.13.08 15.9-1.57 23.27-5.16 1.39-.68 3.25-.67 4.86-.53 4.2.36 8.38.97 12.8 1.51zm-152.06 166.77c-1.32-2.59-2.39-5-3.73-7.24-1.11-1.86-1.69-3.45.94-4.89-1.35-.62-2.26-1.03-3.2-1.46-1.66 5.34.46 13.99 3.65 15.26.65-.47 1.32-.95 2.34-1.67zm164.48-127.91c-.51-.82-1.27-2.03-1.91-3.06-5.9 0-5.24 5.19-6.74 7.38 2.28-1.14 5.25-2.63 8.65-4.32zm-85.23-133.98c-1.41-1.26-2.73-2.45-4.26-3.81v12.02c1.69-3.24 2.93-5.65 4.26-8.21zm-93.78 92.44c6.09-2.36 6.25-2.92 3.17-7.31-1.1.9-2.21 1.81-3.42 2.8.94.84 1.51 1.35 1.9 1.7-.64 1.07-1.14 1.94-1.65 2.81zm135.85 57.91c.57 1.66 1.06 3.12 1.56 4.6 1.9-.32 3.27-.51 2.82-2.75-.45-2.26-1.66-2.69-4.38-1.85zm-35.54-131.45c.56-2.43-1.01-4.08-2.13-6.02-3.01 3.33.87 4.23 2.13 6.02zm-21.37 36.05c-.18.13-.35.26-.53.39.68 1.76 1.36 3.52 2.12 5.5 1.06-.91 1.81-1.57 2.73-2.36-1.66-1.37-2.99-2.45-4.32-3.53zm24.33 159.43c-.35-.09-.7-.19-1.04-.28-1.08 1.15-2.16 2.29-3.95 4.19 1.79.24 3.59.77 3.76.45.68-1.31.87-2.88 1.23-4.36zm-33.06-112.07c-.6 1.81-1.09 3.31-1.89 5.73 1.98-1.58 3.18-2.55 4.57-3.65-.94-.73-1.65-1.27-2.68-2.08zm64.3 43.82c1.49 1.98 3.58 1.51 5.99-1.57-1.88.49-3.76.98-5.99 1.57zm20.07-74.39c.04-.23.07-.47.11-.7-1.4-.61-2.81-1.22-4.63-2.01.08 1.34.13 2.2.2 3.24 1.65-.21 2.99-.37 4.32-.53zm67.67-27.34c-2.04-1.28-3.31-2.07-4.93-3.09v4.09c1.52-.3 2.79-.56 4.93-1z"/></svg>