<svg enable-background="new 0 0 400 400" viewBox="0 0 400 400" xmlns="http://www.w3.org/2000/svg"><path d="m6.4 11.7c-1-.8-1.9-1.6-2.9-2.3l.6-.7c.9.7 1.9 1.4 2.9 2.2zm-2.1 8.3c.7-2.1 1.4-4.2 2-6.4.2.1.6.3 1 .4-.7 2.3-1.3 4.4-1.9 6.4zm3-12.8c-1.1-.9-2.1-1.7-2.9-2.4l.6-.7c1 .8 2 1.5 3 2.4zm1.4-1.3v-.9h10.2v.9c-.9 4.2-2.3 7.3-4.1 9.4 1.3 1.4 3.2 2.7 5.7 4-.2.2-.4.5-.7.9-2.5-1.4-4.4-2.7-5.7-4.2-1.4 1.5-3.5 3-6.1 4.4 0 0 0 0-.1-.1-.3-.4-.5-.7-.7-.8 2.7-1.3 4.7-2.8 6.2-4.2-1.8-2.2-3-5.3-3.7-9.4zm9.2 0h-7.1c.6 3.8 1.7 6.7 3.4 8.7 1.7-2 2.9-4.8 3.7-8.7z" fill="#fbfcfa"/><path d="m31.6 3.6h.9v2.3h4.1v9.1h1.7v.9h-16.6v-.9h1.7v-9.1h4.1v-2.3h.9v2.3h3.1v-2.3zm-4 13.3.6.8c-1.9.9-3.8 1.9-5.8 2.8-.2-.3-.3-.6-.5-.9 2-.9 3.9-1.8 5.7-2.7zm-3.2-10.1v3.7h3.1v-3.7zm0 4.5v3.7h3.1v-3.7zm4.1-4.5v3.7h3.1v-3.7zm0 4.5v3.7h3.1v-3.7zm9.1 9.1c-2.1-1.1-4.1-2-5.8-2.7l.5-.8c2.2.9 4.1 1.8 5.8 2.6zm-1.9-13.6h-3.1v3.7h3.1zm-3.2 4.5v3.7h3.1v-3.7z" fill="#fbfcfa"/><path d="m301.11 158.03c8.01 8.87 14.27 18.6 18.49 29.63 6.35 16.64 8.17 33.89 7.14 51.53-.68 11.61-2.69 23.01-7.31 33.69-4.34 10.05-9.08 19.76-17.71 27.42-15.93 14.14-31.33 28.9-46.5 43.87-6.35 6.27-13.74 9.39-22.15 10.56-10.1 1.41-20.05 3.33-29.58 7.05-7.28 2.84-14.99 2.83-22.56 3.01-21.45.52-42.77-1.23-63.98-4.45-.72-.11-1.49-.3-2.11-.66-17.46-10.24-37.01-14.25-56.33-18.95-5.66-1.38-11.29-2.86-16.92-4.33-.79-.21-1.88-.43-2.22-1-3.25-5.53-7.24-10.86-5.78-17.93.6-2.89 4.48-4.91 6.7-2.96 8.11 7.12 18.34 8.12 28.14 10.7 9.79 2.58 19.43 5.93 28.87 9.61 6.33 2.47 12.58 3.57 19.19 2.4 5.73-1.01 10.93 1.04 16.11 2.7 5.72 1.83 11.19 2.47 17.01.43 2.41-.85 5.25-1.1 7.8-.79 11.76 1.42 23.18-.49 34.65-2.73 6.19-1.21 12.12-2.74 17.5-6.17 1.14-.73 2.79-.84 4.22-.87 3.17-.07 6.36.29 9.53.11 4.95-.28 9.38-1.81 13.32-5.17 15.32-13.08 30.83-25.93 46.19-38.97 1.34-1.14 2.31-2.92 2.98-4.6.98-2.44 1.7-5.03 2.23-7.61 1.19-5.81 3.65-10.97 7.06-15.8 1.01-1.43 1.54-3.48 1.57-5.26.33-17.61-1.59-34.88-7.76-51.53-4.54-12.26-11.24-23.2-19.52-33.26-3.16-3.84-6.01-7.95-9.12-11.84-1.26-1.57-1.46-2.99-.92-4.95 3.84-13.77 7.48-27.59 11.36-41.34.6-2.14 1.86-4.25 3.31-5.95 6.97-8.2 12.21-17.25 14.6-27.84 1.78-7.9.1-15.59-1.27-23.31-.88-4.96-.52-9.7 2.04-14.14.26-.46.62-1.33.8-1.3 2.83.54 5.67 1.08 8.42 1.93.66.2 1.37 1.53 1.37 2.35.08 18.24.08 36.48.01 54.72 0 1.04-.69 2.13-1.24 3.09-.84 1.46-2.03 2.75-2.73 4.26-2.47 5.37-1.64 8.11 3.33 11.17 13.57 8.37 28.44 13.45 43.72 17.65 4.8 1.32 9.6 3.5 13.7 6.31 8.47 5.8 7.72 15.84 4.68 23.21-.28.69-1.13 1.19-1.8 1.67-8.3 5.9-18.08 8.12-27.58 11.02-.66.2-1.94-.54-2.49-1.21-3.62-4.44-7.02-9.05-10.69-13.44-1.61-1.92-3.48-3.77-5.58-5.09-5.86-3.69-8.7-2.84-12.19 3.36z"/><path d="m219.43 173.77c5.91 5.92 11.55 11.82 17.52 17.36 1.59 1.47 4.26 1.71 6.35 2.7 2.26 1.08 4.59 2.15 6.57 3.65 4.9 3.71 9.38 8 14.45 11.44 6.73 4.57 8.57 11.32 9.19 18.61.59 6.85.59 13.76.83 20.64.12 3.57-4.19 6.63-7.47 5.26-1.16-.48-2.25-1.19-3.29-1.92-10.87-7.54-21.75-15.07-32.57-22.68-1.89-1.33-3.78-2.79-5.27-4.53-13.19-15.41-29.63-27.21-44.73-40.5-4.88-4.3-10.33-7.51-16.07-10.57-4.52-2.41-8.44-6.43-11.76-10.46-5.03-6.11-9.8-12.56-13.77-19.39-7.46-12.85-17.02-23.97-26.63-35.14-3.98-4.63-7.48-9.73-10.79-14.87-1.94-3.01-2.86-6.56-1.89-10.58 5.02.74 9.92 1.44 14.82 2.19.49.08 1.06.29 1.4.63 4.37 4.29 9.29 8.18 12.97 13 15.84 20.78 33.49 39.68 55.07 54.62 3.89 2.69 8.33 4.59 12.44 6.98 1.85 1.07 2.93.64 4.2-.99 6.56-8.45 10.45-18.12 13.03-28.36 4.27-16.96 6.68-34.13 4.23-51.61-.55-3.91-2.23-7.67-3.45-11.49-.41-1.29-.99-2.53-1.54-3.92 2.14-1.48 4.11-2.86 6.16-4.27 11.87 8.73 18.52 20.55 21.7 34.53 2.56 11.27 1.65 22.27-2.78 33-2.24 5.41-3.55 10.92-2.76 17 .31 2.35-1.54 5.17-2.88 7.5-4.28 7.42-8.78 14.71-13.28 22.17z"/><path d="m62.62 128.87c15.08.32 26.84 7.15 37.35 16.81 6.92 6.36 13.03 13.66 21.46 18.28 1.11.61 1.9 1.98 2.6 3.14 10.39 17.46 25.44 30.81 39.63 44.9 1.39 1.38 3.66 2.17 5.66 2.59 3.76.78 5.92 2.85 6.69 6.53.11.51.4.99.53 1.5 3.12 12.22 10.84 21.54 19.86 29.65 8.05 7.24 10.11 16.27 10.4 26.27.02.85-.38 1.89-.93 2.54-2.43 2.8-4.79 5.72-7.6 8.1-1.33 1.13-3.66 1.77-5.42 1.57-3.97-.44-7.2-2.31-9.81-5.7-3.15-4.1-6-8.09-6.52-13.44-.14-1.45-1.05-2.99-2.01-4.16-12.34-15.1-24.72-30.17-37.19-45.16-1.74-2.09-3.89-3.93-6.11-5.52-8.19-5.88-14.82-13.19-20.66-21.35-4.93-6.89-9.82-14.07-17.19-18.53-5.58-3.38-9.18-8.28-13.12-13.09-1.75-2.14-4.03-3.96-6.35-5.49-4.32-2.86-8.94-5.28-13.27-8.13-2.18-1.44-4.25-3.2-5.93-5.2-2.9-3.45-3.62-7.85-1.51-11.61 1.88-3.35 5.13-6.08 9.44-4.5z"/></svg>