<svg enable-background="new 0 0 400 400" viewBox="0 0 400 400" xmlns="http://www.w3.org/2000/svg"><path d="m6.4 11.7c-1-.8-1.9-1.6-2.9-2.3l.6-.7c.9.7 1.9 1.4 2.9 2.2zm-2.1 8.3c.7-2.1 1.4-4.2 2-6.4.2.1.6.3 1 .4-.7 2.3-1.3 4.4-1.9 6.4zm3-12.8c-1.1-.9-2.1-1.7-2.9-2.4l.6-.7c1 .8 2 1.5 3 2.4zm1.4-1.3v-.9h10.2v.9c-.9 4.2-2.3 7.3-4.1 9.4 1.3 1.4 3.2 2.7 5.7 4-.2.2-.4.5-.7.9-2.5-1.4-4.4-2.7-5.7-4.2-1.4 1.5-3.5 3-6.1 4.4 0 0 0 0-.1-.1-.3-.4-.5-.7-.7-.8 2.7-1.3 4.7-2.8 6.2-4.2-1.8-2.2-3-5.3-3.7-9.4zm9.2 0h-7.1c.6 3.8 1.7 6.7 3.4 8.7 1.7-2 2.9-4.8 3.7-8.7z" fill="#fbfcfa"/><path d="m31.6 3.6h.9v2.3h4.1v9.1h1.7v.9h-16.6v-.9h1.7v-9.1h4.1v-2.3h.9v2.3h3.1v-2.3zm-4 13.3.6.8c-1.9.9-3.8 1.9-5.8 2.8-.2-.3-.3-.6-.5-.9 2-.9 3.9-1.8 5.7-2.7zm-3.2-10.1v3.7h3.1v-3.7zm0 4.5v3.7h3.1v-3.7zm4.1-4.5v3.7h3.1v-3.7zm0 4.5v3.7h3.1v-3.7zm9.1 9.1c-2.1-1.1-4.1-2-5.8-2.7l.5-.8c2.2.9 4.1 1.8 5.8 2.6zm-1.9-13.6h-3.1v3.7h3.1zm-3.2 4.5v3.7h3.1v-3.7z" fill="#fbfcfa"/><path d="m96.89 129.64c11.24-5.59 22.78-6.7 34.48-7.1 9.72-.33 18.78-2.7 26.96-8.24 3.93-2.67 8.31-4.68 12.31-7.27 1.09-.71 2.1-2.36 2.21-3.65.47-5.91.65-11.85.82-17.79.03-1.09-.13-2.45-.76-3.24-5.81-7.35-7.43-16.17-9.44-24.99-1.91-8.38 1.67-15.03 5.55-22.3 8.24 3.15 16.23 6.54 19.93 15.59 5.28 12.9 9.28 26.11 10.28 40.13.16 2.21 1.22 4.47 2.28 6.48 1.44 2.72 3.74 3.91 7.08 3.63 6.12-.51 12.27-.65 18.41-.77 1.52-.03 3.13.4 4.56.98 7.36 2.96 14.55 6.42 22.61 7.17 2.53.23 5.06.47 7.59.67 4.71.37 8.77 2.24 12.33 5.3 1.69 1.45 3.46 2.8 5.18 4.21 6.6 5.4 6.52 5.37 3.57 13.44-.72 1.97-1.78 2.75-3.77 3.1-8.66 1.49-17.31 3.05-25.93 4.77-2.33.47-4.72 1.26-6.78 2.43-12.64 7.13-25.02 14.74-37.84 21.51-6.3 3.33-8.69 8.39-9.31 14.72-.44 4.51-.66 9.18.02 13.63 1.06 6.89-4.8 13.67-.05 20.47-.51 4.31-.89 8.65-1.6 12.93-.33 1.95.27 2.84 1.88 3.72 6.3 3.43 12.81 4.81 19.89 2.85 10.64-2.95 21.21-3.21 31.87.38 6.81 2.29 13.9 3.73 20.81 5.75 2.26.66 3.37.13 4.47-1.92 6.12-11.39 10.75-23.22 11.81-36.27.47-5.8 1.47-11.56 2.09-17.35.52-4.85 4.6-7.25 7.01-11.51 1.78 10.9 1.21 20.91-1.04 30.91-1.04 4.65-1.94 9.11-4.85 13.19-3.38 4.74-3.29 10.25-1.66 15.86 2.07 7.09 3.77 14.3 5.56 21.47.22.87.32 2.01-.05 2.77-5.92 12.18-4.45 25.21-4.63 38.07-.03 2.39-.32 4.96-1.26 7.1-.97 2.21-2.49 4.69-4.47 5.85-5.39 3.16-8.79 7.59-11.12 13.27-1.01 2.44-2.82 4.69-4.69 6.62-8.08 8.31-17.54 14.74-28.28 19.05-8.9 3.57-16.64 8.71-23.51 15.29-3.89 3.73-8.05 6.84-13.78 6.99-7.83.2-15.44-.69-22.6-4.11-.1-.05-.2-.09-.27-.16-8.68-8.42-20.47-11.68-30.24-18.28-4.27-2.88-8.53-5.93-12.19-9.51-2.65-2.59-4.7-6.01-6.33-9.4-4.26-8.87-8.17-17.91-12.14-26.92-.53-1.2-1.04-2.75-.72-3.92.95-3.53-.09-6.63-1.2-9.86-6.69-19.33-6.65-19.34-4.4-40.6.41-3.9.57-7.83 1-11.72.72-6.57-2.08-12.46-3.5-18.6-1.93-8.35-4.25-16.62-6.38-24.92-.2-.79-.32-1.6-.55-2.76 2.54.77 4.69 1.56 6.91 2.05 1.84.4 3.98 1.06 5.6.5 3.96-1.38 5.38.78 6.88 3.7 4.22 8.21 8.43 16.44 9.72 25.71.97 7 .64 13.68-3.23 20.2-2.4 4.06-3.35 9.09-4.38 13.81-1.24 5.68-1.81 11.5-2.78 17.25-.29 1.7.02 2.76 1.7 3.53 8.32 3.81 16.28 3.41 24.24-1.25 3.88-2.28 8.08-4.17 12.35-5.58 4.2-1.39 7.55-3.27 8.69-7.8 1.19-4.73 4.95-7.34 8.53-9.87 3.91-2.76 5.42-6.5 6.27-10.89 2.44-12.56 1.55-25.15.26-37.7-.82-8-2.19-15.94-3.6-23.86-.27-1.54-1.52-3.24-2.82-4.19-7.01-5.16-15.27-6.48-23.68-7.17-8.45-.69-16.96-.94-25.32-2.19-4.24-.63-8.78-2.26-12.2-4.78-9.77-7.18-15.17-17.69-20.36-28.61zm157.73 151.82c-2.34-1.55-4.31-3.41-6.65-4.3-9.8-3.76-19.8-1.02-26.54 6.99-1.02 1.22-1.98 2.49-2.93 3.76-2.8 3.77-6.37 6.28-10.89 7.82-8.71 2.96-17.52 5.82-24.65 12.09-.73.64-1.91.99-2.91 1.06-3.06.23-6.19.69-9.19.28-7.11-.98-14.15-2.44-21.23-3.64-3.66-.62-7.33-1.01-11.1 1.04 3.04 4.38 6.64 7.84 10.97 10.58 4.2 2.66 8.68 5 12.5 8.13 5.61 4.6 11.54 5.61 18.36 3.71 3.14-.87 6.44-1.47 9.69-1.57 9.5-.29 18.01-3.14 25.85-8.52 6.34-4.35 12.24-9.52 19.75-11.98.65-.21 1.29-.78 1.7-1.35 5.64-7.81 11.24-15.65 17.27-24.1z"/></svg>