<svg enable-background="new 0 0 400 400" viewBox="0 0 400 400" xmlns="http://www.w3.org/2000/svg"><path d="m6.4 11.7c-1-.8-1.9-1.6-2.9-2.3l.6-.7c.9.7 1.9 1.4 2.9 2.2zm-2.1 8.3c.7-2.1 1.4-4.2 2-6.4.2.1.6.3 1 .4-.7 2.3-1.3 4.4-1.9 6.4zm3-12.8c-1.1-.9-2.1-1.7-2.9-2.4l.6-.7c1 .8 2 1.5 3 2.4zm1.4-1.3v-.9h10.2v.9c-.9 4.2-2.3 7.3-4.1 9.4 1.3 1.4 3.2 2.7 5.7 4-.2.2-.4.5-.7.9-2.5-1.4-4.4-2.7-5.7-4.2-1.4 1.5-3.5 3-6.1 4.4 0 0 0 0-.1-.1-.3-.4-.5-.7-.7-.8 2.7-1.3 4.7-2.8 6.2-4.2-1.8-2.2-3-5.3-3.7-9.4zm9.2 0h-7.1c.6 3.8 1.7 6.7 3.4 8.7 1.7-2 2.9-4.8 3.7-8.7z" fill="#fbfcfa"/><path d="m31.6 3.6h.9v2.3h4.1v9.1h1.7v.9h-16.6v-.9h1.7v-9.1h4.1v-2.3h.9v2.3h3.1v-2.3zm-4 13.3.6.8c-1.9.9-3.8 1.9-5.8 2.8-.2-.3-.3-.6-.5-.9 2-.9 3.9-1.8 5.7-2.7zm-3.2-10.1v3.7h3.1v-3.7zm0 4.5v3.7h3.1v-3.7zm4.1-4.5v3.7h3.1v-3.7zm0 4.5v3.7h3.1v-3.7zm9.1 9.1c-2.1-1.1-4.1-2-5.8-2.7l.5-.8c2.2.9 4.1 1.8 5.8 2.6zm-1.9-13.6h-3.1v3.7h3.1zm-3.2 4.5v3.7h3.1v-3.7z" fill="#fbfcfa"/><path d="m268.06 342.71c.64 3.35 1.25 5.82 1.52 8.33.09.84-.45 2.04-1.1 2.62-4.28 3.81-8.62 7.54-13.05 11.17-.78.64-2.04.98-3.08.97-6.64-.02-12.14-2.22-16.62-7.54-6.47-7.68-13.67-14.75-20.19-22.41-3.54-4.16-6.31-8.96-9.37-13.52-.58-.86-.96-1.88-1.3-2.87-1.5-4.41-2.74-8.92-4.48-13.23-1.96-4.85-2.57-9.68-1.72-14.86.29-1.75-.36-3.75-.93-5.53-2.61-8.17-5.07-16.27-4.59-25.11.22-4.1-1.28-8.34-2.31-12.44-1.59-6.33-2.12-12.72-1.87-19.21.13-3.37.02-6.75.02-10.84-3.35.23-6.51.15-9.54.72-7.28 1.37-14.5 3.03-21.74 4.6-8.94 1.95-17.94 2.87-27.13 2.46-12.59-.56-25.21-.62-37.81-1.07-4.36-.16-8.77-.7-11.2-5.24-1.71-3.2-1.55-4.26 1.55-6.17 6.2-3.83 12.85-7.82 20.19-6.24 10.93 2.35 20.46-3.23 30.78-3.89.94-.06 2.31-1.64 2.56-2.72 1.22-5.24 2.58-10.52 3.04-15.85.69-8.02.65-16.09.99-24.14.07-1.71-.43-2.64-2.12-3.31-4.63-1.83-9.33-2.89-14.28-1.95-9.52 1.81-17.31-1.19-23.73-8.23-.5-.55-1.16-1.1-1.33-1.76-.69-2.69-2.09-5.67-1.43-8.05.34-1.24 4.48-2.16 6.81-1.99 10.47.77 20.06-2.76 29.76-5.63 5.17-1.53 7.61-7.85 5.58-12.84-1.32-3.22-8.27-4.41-11.95-2.11-.96.6-2.16 1.52-3.07 1.35-4.48-.84-6.98 1.88-9.79 4.59-6.37 6.15-14.24 8.97-22.96 9.48-2.9.17-3.96-1.15-3.17-3.93.83-2.88 1.73-5.55 5.4-6.68 4.1-1.26 7.9-3.55 11.73-5.57 1.47-.78 2.81-1.92 3.97-3.13 3.45-3.6 3.21-5.61-1-8.06-2.55-1.49-5.31-2.62-7.93-3.99-3.78-1.97-5.37-5.31-4.64-9.51.02-.1 0-.21.03-.32.48-1.97 10.26-6.76 11.82-5.5 4.56 3.7 9.83 3.33 15.12 3.26 4.33-.06 8.65-.01 13.66-.01 0-17.38 0-34.48 0-51.98 3.81 1.07 6.19 3.07 7.14 5.85 1.5 4.35 2.5 8.91 3.26 13.46.61 3.64.3 7.42.83 11.08.99 6.88 5.54 9.92 11.63 7.91 1.22-.4 2.35-1.34 3.3-2.26 6.25-6.02 12.4-12.14 18.68-18.14 1.04-.99 2.47-1.65 3.81-2.25 7.55-3.33 5.94-2.56 9.6 3.39-2.5 2.18-5.26 4.18-7.51 6.63-5.01 5.46-9.78 11.14-14.63 16.75-3.11 3.6-6.1 7.31-9.31 10.83-3.04 3.33-2.45 6.35 1.74 7.93.69.26 1.49.43 2.02.89 8.51 7.48 19.29 10.94 28.91 16.45 9.08 5.19 15.81 13.06 23.39 19.98-.2 3.33.61 7.2-.82 9.88-2.51 4.73-6.63 5.87-11.56 1.87-10.05-8.14-20.44-15.86-30.49-24-2.71-2.19-5.53-2.83-8.76-2.87-1.06-.01-2.15.09-3.17-.13-4.13-.88-6.38.98-7.36 5.22 4.88 2.58 9.91 5.25 14.94 7.89 6.93 3.64 8.59 7.37 6.52 14.77-1.22 4.34-4.8 6.86-10.09 7.03-3.5.11-7.01-.02-10.49.29-6.41.57-8.17 2.64-8.57 8.93-.71 11.21-1.43 22.43-2.44 33.62-.3 3.36.65 5.02 3.92 5.28 5.8.47 11.6 1.03 17.41 1.26 5.48.21 10.97.05 16.34.05.58-4.4-.95-6.1-4.7-7.55-4.71-1.81-9.42-4.56-13.05-8.02-4.85-4.63-3.79-7.33 2.4-9.6 3.01-1.11 5.77-.83 8.92-.09 4.35 1.03 8.97 1.07 13.48 1.27 17.25.74 34.52 1.2 51.77 2.15 5.24.29 10.39 2.06 15.63 2.67 2.82.32 6.04.28 8.58-.78 4.44-1.84 5-4.37 4.04-9.1-2.84-13.98-11.34-25.35-17.15-38.98-5.54 9.09-13.58 15.31-16.93 24.91-.3.86-1.64 1.63-2.64 1.9-1.18.33-2.52.08-3.8.08-4.59 0-4.81-.08-5.22-4.61-.5-5.38 1.12-10.26 4.14-14.68 4.72-6.91 9.45-13.81 14.31-20.89-7.63-5.75-17.52-8.24-23.35-16.67 4.47-3.2 9.05-4.29 14.08-3.13 1.54.36 3.02.98 4.51 1.52 3.48 1.26 6.84 1.66 9.71-1.35 3.14-3.3 4.11-7.94 2.23-11.72-.56-1.12-1.8-1.91-2.79-2.79-2.26-2-5.12-3.58-6.7-6.01-2.28-3.47-.64-5.8 3.52-5.96 5.31-.21 6-.45 6.86-5.7.81-4.98.87-10.1 1.19-15.16.24-3.87 1.62-6.95 5.48-8.63 3.55 4.06 5.13 8.79 5.11 14.03-.03 6.89-.3 13.78-.38 20.67-.05 4.25 1.63 7.87 5.47 9.71 7.13 3.43 12.03 9.17 17.08 14.91 2.76 3.14 5.94 6.04 9.35 8.46 3.24 2.3 4.31 1.72 6.46-1.75 2.09-3.35 2.8-7.06 1.45-10.67-2.41-6.4-5.07-12.72-8.06-18.87-2.23-4.59-2.57-9.14-1.2-13.86.3-1.02 1.58-2.28 2.58-2.45 1.18-.2 3.02.25 3.74 1.11 4.75 5.71 7.84 12.38 9.54 19.54 4.36 18.39 4.79 37.07 1.5 55.56-1.29 7.22-3.99 14.61-9.98 20.09-5.18 4.74-7.14 11.16-7.28 18.08-.02.92.64 2.43 1.34 2.69 5.42 1.98 9.87 4.97 11.92 10.61 2.26 6.21 1.07 12.4-.87 18.38-.92 2.83-2.84 5.34-4.33 7.99-.83 1.47-1.96 2.83-2.5 4.4-3.49 10.06-10.18 18.05-16.89 25.96-3.06 3.6-4.64 7.5-5.14 12.02-.23 2.11-.39 4.22-.53 6.34-.2 3.15 0 5.92 2.06 8.87 1.96 2.8 2.71 6.62 3.4 10.1 2.17 11.06 6.36 20.99 14.7 28.9 3.69 3.5 7.26 7.14 10.75 10.84 4.05 4.28 6.22 9.32 5.39 15.33-.12.88-.42 2.06-1.05 2.49-6.5 4.38-13.26 7.76-21.35 4.25-.67-.29-1.57-.52-1.9-1.06-3.48-5.64-7.73-11.01-10.1-17.1-4.52-11.62-8.18-23.59-11.7-35.56-1.17-3.96-.51-8.42-1.28-12.54-.91-4.85-2.33-9.61-3.79-14.33-.69-2.22-2.58-3.31-5-2.99-5.56.72-11.09 1.72-16.67 2.16-2.96.23-6.11-.07-8.93-.91-1.32-.39-2.38-2.54-2.93-4.11-.16-.46 1.7-2.19 2.83-2.45 3.64-.83 7.36-1.42 11.08-1.77 3.36-.31 6.77.01 10.13-.29 4.8-.43 8.49-3.04 11.55-6.63.76-.89 1.56-1.77 2.11-2.78 4.72-8.56 11.87-15.1 18.12-22.4 3.07-3.58 4.61-8.46 6.84-12.76.09-.17.11-.42.07-.62-.34-1.82-1.17-3.71-.91-5.44.27-1.78 1.6-3.4 2.6-5.34-4.91-2.2-9.99-2.72-14.97-2.28-12.62 1.13-25.19.67-37.77-.2-.84-.06-1.79-.29-2.51 0-7.64 3.08-15.42 1.43-23.2 1.01-3.22-.17-6.49.33-9.72.72-2.82.34-5.6.96-8.67 1.51 0 3.29-.03 6.76.01 10.22.03 2.65.31 5.3.22 7.95-.26 7.55 1.25 14.82 2.59 22.22 1.92 10.61 2.15 21.52 4.07 32.12 2.7 14.91 6.65 29.55 13.84 43.07 6.41 12.06 15.83 21.69 25.5 31.08 1.3 1.26 3.23 2 4.99 2.64 2.66.96 5.14.67 7.24-1.62 1.5-1.63 3.12-3.25 4.96-4.45 2.12-1.39 4.54-2.31 7.16-3.59zm-.11-241.75c-5.85 2.1-5.44 6.01-4.92 9.86 1.64 12.1 5.75 23.4 11.37 34.16 1.44 2.76 3.4 5.25 5.27 8.08 4.96-3.37 9.53-6.42 14.01-9.59.69-.49 1.13-1.51 1.43-2.37 3.01-8.62 1.15-16.28-5.52-22.28-7.07-6.36-14.66-12.14-21.64-17.86z"/></svg>