<svg enable-background="new 0 0 400 400" viewBox="0 0 400 400" xmlns="http://www.w3.org/2000/svg"><path d="m54.5 365.79c1.38-4.88 2.59-9.88 4.22-14.74 1.28-3.8 2.89-7.52 4.7-11.1 2.12-4.21 4.73-8.17 6.92-12.35 2.35-4.47 4.71-8.97 6.61-13.64 1.54-3.81 2.61-7.84 3.52-11.86.83-3.68 1.09-7.48 1.77-11.19.24-1.31 1.01-2.53 1.54-3.79l1.02.21c-.75-4.26-1.42-8.54-2.32-12.78-.19-.87-1.12-1.75-1.94-2.28-2.84-1.84-5.65-3.83-8.72-5.22-9.97-4.52-15.3-12.99-19.64-22.37-5.34-11.52-7.57-23.78-8.19-36.35-.81-16.29.06-32.42 5.54-48 .34-.98.69-2.11 1.4-2.79 6.93-6.61 10.73-14.95 12.96-24.01 2.44-9.89 7.43-18.57 11.79-27.62 6.06-12.56 11.18-25.58 16.53-38.47 3.98-9.58 7.69-19.27 11.53-28.91.43-1.07.91-2.11 1.45-3.35 4.71.84 7.12 4.05 8.83 7.92 4.24 9.65 6.58 19.77 5.64 30.29-.51 5.73-1.84 11.5-3.6 17-3.1 9.72-5.79 19.47-6.84 29.64-.22 2.16-1.39 4.21-1.66 6.37-.43 3.51-1.14 7.19-.57 10.6 1.39 8.23 3.38 16.33 7.93 23.61 1.82 2.91 2.68 6.42 4.03 9.63.98 2.33 1.78 4.79 3.13 6.9 2.37 3.7 4.32 3.97 8.52 2.75 7.48-2.16 13.9-5.85 19.51-11.31 4.85-4.73 10.31-8.83 15.29-13.43 2.45-2.27 4.57-4.95 6.6-7.62 10.6-14 18.35-29.43 22.23-46.6 1.05-4.66.69-9.63 1.21-14.43.2-1.83 1.07-3.58 1.63-5.37 2.31.74 5.27.85 6.79 2.38 2.22 2.24 4.44 3.77 7.47 4.31 5.33.95 9.02 3.99 10.02 9.32 1.34 7.16 2.15 14.42 3.17 21.63.13.94.2 1.9.29 2.85.72 7.34 4.71 12.04 11.37 15.1 8.51 3.9 17.42 6.23 26.65 6.68 15.65.77 31.35.77 47.01 1.41 6.97.28 13.94 1.13 20.86 2.08 3.2.44 6.03.12 8.89-1.25 2.19-1.04 4.52-1.81 6.79-2.69 3.21-1.25 6.29.35 6.75 3.8.24 1.83.19 3.92-.47 5.61-1.99 5.12-4.25 10.14-6.62 15.1-.44.93-1.8 1.84-2.85 2-9.1 1.43-18.23 2.71-27.36 3.96-.95.13-2.49.13-2.88-.42-2.12-3.01-4.33-1.1-5.49.33-1.99 2.47-4.32 2.57-7.02 2.56-14.21-.05-28.42.02-42.63-.08-1.45-.01-2.89-.91-4.36-1.27-1.6-.39-3.24-.61-4.84-.96-2.83-.61-5.97-.7-8.43-2.02-7.46-4-14.58-8.64-22-12.73-3.37-1.86-7.12-3.01-11.11-4.66-1.4 8.84-7.38 13.76-12.91 18.96-3.78 3.56-7.59 7.11-11.58 10.43-6.23 5.19-8.77 11.69-6.84 19.52 2.08 8.43 5.61 16.18 10.13 23.78 10.1 16.97 25.72 25.32 43.71 30.35 11.1 3.1 22.33 5.96 33.69 7.84 8.61 1.42 17.51 1.13 26.28 1.6 1.9.1 3.83-.02 5.71.26 3.58.52 6.36-1.02 9.48-2.53 3.21-1.55 7.09-1.73 10.71-2.37 2.81-.5 5.67-.78 8.5-1.17 7.11-.96 13.99 3.32 16.22 10 .74 2.21.59 3.61-1.99 4.63-5.61 2.21-11.14 4.65-16.56 7.3-4.01 1.97-8.12 2.6-12.54 2.71-18 .44-36 1.31-54 1.57-4.66.07-9.33-1.66-14.04-2.31-5.77-.81-11.56-1.51-17.36-1.97-3.42-.27-6.9.06-7.6-3.52-2.82 0-5.35.64-7.33-.13-3.9-1.52-7.68-3.53-11.18-5.83-12.56-8.26-20.32-21.17-30.51-31.73-6.82-7.07-8.08-16.33-11.46-24.77-.3-.75.19-1.82.33-2.73.36-2.42.29-2.31-2.32-3.99-.73-.47-1.06-1.8-1.26-2.8-.39-1.97-1.51-2.39-3.21-1.8-6.97 2.44-13.97 4.81-20.86 7.45-1.02.39-2.05 1.95-2.23 3.11-.95 6.15-2.08 12.33-2.31 18.54-.41 10.79.75 21.72-2.28 32.24-1.71 5.94-4.13 11.76-6.89 17.31-6.51 13.08-13.37 25.98-20.23 38.88-.7 1.32-2.31 2.19-3.57 3.18-1.68 1.33-3.68 2.34-5.1 3.89-4.81 5.23-7.42 11.75-10.41 18.07-.82 1.73-2.43 3.62-4.13 4.3-4.28 1.71-6.04 4.87-6.94 9.05-1.11 5.26-3.82 6.52-9.69 4.3zm46.63-161.69c-.85-6.82-1.17-13.75-2.67-20.42-2.38-10.51-8.99-17.29-19.89-19.29-.91-.17-2.12-.04-2.85.45-3.08 2.05-5.01 4.77-5.83 8.61-2.96 13.88-2.82 27.78-.76 41.72 1.3 8.78 3.82 17.15 9.19 24.41.6.81 1.38 1.66 2.27 2.04 5.89 2.55 14.19-1.22 16.13-7.32 3.1-9.79 3.83-19.92 4.41-30.2zm105.07-113.27c-2.07-3.06-4.47-2.87-6.7-1.2-.68.51-.51 2.14-.72 3.26.26.07.51.14.77.22.8-.95 1.6-1.89 2.43-2.87.93.77 1.79 1.48 2.73 2.25.57-.64 1.04-1.16 1.49-1.66zm5.96 184.42c.37.25.73.51 1.1.76 1.29-.83 2.57-1.66 3.86-2.5-.08-.35-.16-.71-.25-1.06-.95.11-2.08-.06-2.81.39-.82.5-1.28 1.58-1.9 2.41z" fill="#010103"/><path d="m337.02 207.81c-8.79 3.54-13.78 10.67-20.18 16.13-4.49 3.83-10.02 4.73-15.75 4.99-3.76.17-7.51.76-11.27 1.1-.66.06-1.62.03-1.97-.37-2.09-2.41-4.81-2.73-7.57-2.1-13.45 3.09-26.37.07-39.1-3.66-8.29-2.43-16.55-5.3-24.33-9.02-8.16-3.9-11.2-11.58-9.33-19.9.92-4.08 6.72-7.03 10.57-5.43 5.16 2.15 10.18 5.27 15.56 6.19 20.56 3.52 41.2 6.72 61.91 9.19 8.54 1.02 17.34-.1 26.02-.27 5.04-.09 9.95.4 15.44 3.15z" fill="#010103"/><g fill="#fcfbfa"><path d="m6.8 9.5c.6.3 1.3.7 2.1 1.1-.4.4-.7.8-.9 1.2-.7-.4-1.3-.8-1.8-1.1s-1.1-.6-1.6-.8c.2-.4.5-.8.7-1.2.4.2.8.5 1.5.8zm.9 6.9c-.3.6-.5 1.1-.7 1.7s-.4 1.1-.6 1.7c-.6-.4-1.1-.7-1.6-1 .7-1 1.2-1.8 1.5-2.4.3-.5.6-1.1.8-1.7.3-.6.5-1.2.8-1.8.3.3.8.6 1.3.8-.7 1.3-1.2 2.2-1.5 2.7zm.1-11c.4.3 1 .7 1.7 1.1-.5.2-.8.6-1.1 1.1-.5-.6-1-1-1.4-1.2s-.9-.6-1.5-.8c.2-.4.5-.7.9-1.1.5.3.9.6 1.4.9zm10.5 13.1c1 .4 2 .6 3.1.7-.4.4-.7.8-.8 1.3-.9-.2-1.9-.6-3-.9-1-.4-2-.9-2.8-1.6-.5.4-1.1.9-1.9 1.3s-1.9.9-3.3 1.2c-.1-.3-.5-.8-1.1-1.3 1 0 2.1-.3 3.2-.8 1.2-.5 1.9-1 2.3-1.7h-3.2c-.4 0-1 0-2 .1v-1.2c1 0 1.7.1 2 .1h3.3v-1h-2.3c-.2 0-.9 0-2 .1v-1.2c1.2 0 1.9.1 2 .1h2.3v-.8h-4.1c0-.7.1-1.2.1-1.6 0-.5 0-1.1-.1-1.8h4.1v-.7h-2.5c0-.6.1-1.1.1-1.6v-.6h-.5c-.4 0-1 0-1.8.1v-1.3c1.2 0 1.9.1 2.1.1h.2c0-.3 0-.8-.1-1.4h1.4c0 .6-.1 1-.1 1.4h3.4c0-.4 0-.8-.1-1.3h1.5c0 .4-.1.9-.1 1.3.7 0 1.5 0 2.5-.1v1.2c-1 0-1.8-.1-2.5-.1v.6c0 .3 0 .8.1 1.5h-2.5v.8h4.1c0 .7-.1 1.3-.1 1.8s0 1 .1 1.5h-4.1v.8h1.4c.8 0 1.8 0 2.9-.1v1.2c-1 0-1.9-.1-2.8-.1h-1.5v1h3.2c.3 0 1 0 2.1-.1v1.2c-1.1 0-1.8-.1-2.1-.1h-3.4l-.1.1c1.4 1 2.4 1.5 3.4 1.9zm-4.1-6.7v-1.3h-2.7v1.3zm2.2-4.1v-1.1h-3.4v1.1zm1.9 4.1v-1.3h-2.8v1.3z"/><path d="m37 6.7v2.3 5.4c1 0 1.8 0 2.2-.1v1.3c-.6 0-1.5-.1-2.5-.1h-11.9c-.7 0-1.3 0-1.8.1v-1.3c.5 0 1.1.1 2 .1v-5.2c0-1 0-1.8-.1-2.5h3.7c0-1.3 0-2.1-.1-2.5h1.5c0 .4-.1 1.3-.1 2.5h2.2c0-1.2 0-2.1-.1-2.6h1.5c0 .4-.1 1.3-.1 2.6zm-12.3 13.7c-.3-.4-.7-.8-1.1-1.1 1.1-.4 2.1-.9 2.9-1.3.8-.5 1.5-1 2.1-1.6.4.4.9.8 1.3 1.1-2.5 1.4-4.2 2.4-5.2 2.9zm3.9-10.1v-2.4h-2.2v2.4zm0 4.1v-2.9h-2.2v2.9zm3.5-4.1v-2.4h-2.2v2.4zm0 4.1v-2.9h-2.2v2.9zm.4 2.9 1-1.1c.6.3 1.4.7 2.5 1.3s2 1.1 2.7 1.5c-.4.4-.8.8-1.1 1.3-.8-.8-2.5-1.7-5.1-3zm3.1-7v-2.4h-2.1v2.4zm0 4.1v-2.9h-2.1v2.9z"/></g></svg>