<svg enable-background="new 0 0 400 400" viewBox="0 0 400 400" xmlns="http://www.w3.org/2000/svg"><path d="m295.28 171.9c-2.33 4.58-4.89 9.06-6.93 13.77-3.54 8.15-6.35 16.64-10.22 24.62-4.34 8.94-9.47 17.5-14.37 26.16-1.78 3.15-4.4 5.13-8.88 4.18 3.24-8.54 3.6-17.77 8.31-25.81 4.56-7.79 6.17-16.63 7.83-25.38 1.79-9.47 3.35-18.99 5.08-28.47.3-1.65.79-3.31 1.52-4.81 1.53-3.17 3.66-4.01 7.04-3.02 1.83.53 3.62 1.21 5.46 1.65 2.48.6 4.1-.35 3.78-3.04-.74-6.19-1.55-12.38-2.59-18.53-.65-3.85-1.94-7.6-2.67-11.44-1.24-6.52-4.12-12-8.6-16.97-4.88-5.42-9.02-11.5-13.56-17.24-5.08-6.43-11.66-10.72-19.47-13.11-2.62-.8-6.36 2.47-5.09 4.72 4.22 7.5 1.89 14.96.03 22.21-2.89 11.24-6.67 22.26-9.88 33.42-2.85 9.95-7.49 18.84-14.47 26.52-3.92 4.32-7.69 8.77-11.54 13.15-4.25 4.85-9.63 7.01-16.01 6.84-1.47-2.65-1.01-4.56 1.5-6.21 14.33-9.43 20.95-24.24 27.33-39.24 4.86-11.44 7.01-23.48 8.29-35.74.09-.83.25-1.71.6-2.46 2.69-5.86 1.27-10.98-1.67-16.54-3.64-6.89-9.31-11.72-14.5-17.1-1.4-1.45-3.12-2.66-4.25-4.28-2.38-3.41-5.73-3.54-9.3-3.25-2.1.17-5.68 3.73-5.12 5.54 2.79 8.94-.14 17.51-1.86 26-3.06 15.14-6.93 30.11-10.46 45.16-3.77 3.25-2.24 8.16-3.76 12.09-3.4 8.78-7.24 17.39-10.34 26.27-3.57 10.23-6.23 20.7-4.9 31.76.89 7.38 2.51 14.9 7.23 20.42 7.05 8.24 14.98 16.1 26.61 17.82 13.39 1.98 26.79 3.86 40.22 5.57 2.54.32 4.01 1.41 4.45 3.66.18.9-.44 2.67-1.12 2.92-8.64 3.21-17.43 5.55-26.41 1.28-4.43-2.11-8.7-4.32-13.88-3.05-.88.22-2.04-.42-2.99-.83-6.42-2.75-12.72-5.84-19.27-8.25-9.38-3.45-13.87-11.4-18.51-19.2-6.77-11.38-6.68-23.8-5.02-36.42.82-6.2 1.36-12.43 2.18-18.63.24-1.82-.41-2.52-2.06-2.78-6.59-1.04-13.16-2.22-19.76-3.13-5.08-.7-9.59-2.48-13.51-5.82-3.46-2.94-6.99-5.8-11.27-9.35-1.46 5.21-3.16 9.66-3.93 14.27-2.16 12.91-2.7 25.92-1.21 38.98.08.74.3 1.52.14 2.21-2.29 10.35 2.57 19.3 5.83 28.47.9 2.53 3.84 4.32 5.76 6.37 12.51-9.97 23.74-20.51 29.77-35.48 5.26 4.26 5.48 11.98.89 17.3-6.39 7.41-11.2 15.62-11.11 25.67.05 6.22 1.15 12.43 1.79 18.64.09.84.33 1.66.46 2.5 1.08 7.05 3.86 13 8.92 18.4 5.65 6.03 11.59 11.34 18.82 15.33 5.47 3.02 10.85 6.25 15.99 9.78 4.14 2.83 8.63 3.82 13.44 4.15 3.06.21 6.15.28 9.19.71 3.15.45 5.86 1.73 6.66 5.54-2.64 1.09-5.14 2.22-7.72 3.14-.82.29-1.93.27-2.75-.03-13.59-5-27.85-8.46-40.15-16.46-5.64-3.67-10.67-8.27-16.09-12.3-3.78-2.82-7.71-5.45-11.66-8.03-1.77-1.16-3.22-.42-4.1 1.4-.92 1.9-2.06 3.74-2.66 5.73-5.58 18.6-13.31 36.35-21.43 53.92-3.26 7.06-8 13.18-15.15 17.39 1.22-3.54 2.12-7.23 3.73-10.57 3.44-7.15 6.95-14.3 11.01-21.11 4.8-8.06 7.97-16.63 9.28-25.83 1.3-9.11 2.22-18.28 3.09-27.44.13-1.37-.54-3.17-1.46-4.24-5.69-6.69-9.53-14.34-11.11-22.9-.59-3.2.21-6.73.76-10.04.55-3.33.63-6.46-.95-9.55-4.94-9.65-5.21-20.01-5.21-30.59.01-36.8-.24-73.59-.67-110.39-.11-9.74-1.42-19.46-1.78-29.2-.19-5.21.47-10.46.74-15.69.27.02.55.03.82.05.09-.05.19-.15.28-.14 9.23 1.14 17.44-2.49 25.76-5.55 1.39-.51 2.86-.86 4.18-1.49 12.59-6.06 25.96-6.37 39.47-5.22 3.62.31 7.24 1.28 10.74 2.33 3.64 1.09 7.29 2.36 10.67 4.07 4.9 2.47 8.96 2.69 13.18-1.63 2.82-2.88 4.71-2.09 7.89.64 6.08 5.23 11.94 10.91 18.69 15.12 6.73 4.2 14.63 5.5 22.67 3.46 5.1-1.3 9.47-.03 13.66 3.12 6.09 4.58 12.48 8.76 18.62 13.27 1.74 1.27 3.43 2.87 4.56 4.68 9.55 15.3 14.14 32.28 16.68 49.94.99 6.92 2.35 13.8 2.93 20.74.4 4.82-.33 9.73-.42 14.6-.19 10.7-.36 21.41-.43 32.11-.09 12.3.1 24.61-.14 36.9-.48 24.35-6.93 47.11-17.66 68.96-5.61 11.43-12.03 21.8-22.12 29.76-7.41 5.85-16.31 10.31-25.95 12.38-1-2.2-.2-3.55 1.76-4.84 8.44-5.56 17.27-11.2 22.01-20.29 9.33-17.88 20.93-34.66 26.91-54.22 3.77-12.36 5.57-25.08 6.04-37.88.65-17.79.48-35.62.63-53.43.01-.94-.29-1.88-.44-2.82-.45-.13-.9-.21-1.34-.3zm-191.36-101.98c2.97 6.92 1.07 13.54.76 20.17-.26 5.46-.4 10.94-.23 16.41.16 4.94.77 9.87 1.25 14.8.32 3.24.67 6.49 1.22 9.69.35 2.03 1.62 2.81 3.9 2.62 7.7-.64 15.46-.72 23.13-1.56s14.93-.44 21.63 3.81c.61.38 1.38.56 2.1.69 3.34.64 6.64-.33 8.06-3.14 2.79-5.53 5.46-11.25 4.96-17.82-.23-2.96-1.64-4.67-4.46-4.73-3.04-.07-6.1.59-9.14.52-3.31-.08-7.05.21-9.82-1.2-4.16-2.12-7.61-5.61-11.41-8.45-3.53-2.64-7.05-5.33-10.74-7.75-1.9-1.25-4.15-1.97-7.07-3.3 1.82-1.32 3.05-2.62 4.55-3.2 2.95-1.14 6.07-1.82 9.09-2.8 8.24-2.65 16.53-4.92 25.18-2.18 4.32 1.36 8.51 3.13 12.77 4.67 1.88.68 3.75 1.44 5.69 1.87 1.96.43 3.29-.22 3.15-2.63-.22-3.81-.14-7.63-.51-11.42-.5-5.11-2.09-9.72-7.03-12.42-.9-.49-1.93-1.22-2.34-2.1-2.58-5.51-7.07-4.68-11.64-3.71-1.86.39-3.69 1.02-5.57 1.22-1.31.14-3.16.26-3.93-.48-2.58-2.46-4.97-1.16-7.49-.26-2.89 1.03-5.79 2.02-8.69 3.04-8.94 3.15-17.9 6.3-27.37 9.64z" fill="#010103"/><path d="m257.29 128.83c9.27.08 13.48 5.13 11.34 13.71-2.67 10.68-5.86 21.14-12.68 30.17-3.81 5.05-6.69 10.81-10.47 15.89-2.35 3.15-5.32 6.05-8.56 8.26-2.02 1.39-5.06 1.29-7.64 1.86-.19-.33-.38-.66-.56-.99.45-.99.77-2.06 1.38-2.94 6.71-9.76 13.44-19.5 20.22-29.21 4.28-6.13 5.7-13.1 6.12-20.37.3-5.46.56-10.93.85-16.38z" fill="#010103"/><g fill="#fcfbfa"><path d="m6.8 9.5c.6.3 1.3.7 2.1 1.1-.4.4-.7.8-.9 1.2-.7-.4-1.3-.8-1.8-1.1s-1.1-.6-1.6-.8c.2-.4.5-.8.7-1.2.4.2.8.5 1.5.8zm.9 6.9c-.3.6-.5 1.1-.7 1.7s-.4 1.1-.6 1.7c-.6-.4-1.1-.7-1.6-1 .7-1 1.2-1.8 1.5-2.4.3-.5.6-1.1.8-1.7.3-.6.5-1.2.8-1.8.3.3.8.6 1.3.8-.7 1.3-1.2 2.2-1.5 2.7zm.1-11c.4.3 1 .7 1.7 1.1-.5.2-.8.6-1.1 1.1-.5-.6-1-1-1.4-1.2s-.9-.6-1.5-.8c.2-.4.5-.7.9-1.1.5.3.9.6 1.4.9zm10.5 13.1c1 .4 2 .6 3.1.7-.4.4-.7.8-.8 1.3-.9-.2-1.9-.6-3-.9-1-.4-2-.9-2.8-1.6-.5.4-1.1.9-1.9 1.3s-1.9.9-3.3 1.2c-.1-.3-.5-.8-1.1-1.3 1 0 2.1-.3 3.2-.8 1.2-.5 1.9-1 2.3-1.7h-3.2c-.4 0-1 0-2 .1v-1.2c1 0 1.7.1 2 .1h3.3v-1h-2.3c-.2 0-.9 0-2 .1v-1.2c1.2 0 1.9.1 2 .1h2.3v-.8h-4.1c0-.7.1-1.2.1-1.6 0-.5 0-1.1-.1-1.8h4.1v-.7h-2.5c0-.6.1-1.1.1-1.6v-.6h-.5c-.4 0-1 0-1.8.1v-1.3c1.2 0 1.9.1 2.1.1h.2c0-.3 0-.8-.1-1.4h1.4c0 .6-.1 1-.1 1.4h3.4c0-.4 0-.8-.1-1.3h1.5c0 .4-.1.9-.1 1.3.7 0 1.5 0 2.5-.1v1.2c-1 0-1.8-.1-2.5-.1v.6c0 .3 0 .8.1 1.5h-2.5v.8h4.1c0 .7-.1 1.3-.1 1.8s0 1 .1 1.5h-4.1v.8h1.4c.8 0 1.8 0 2.9-.1v1.2c-1 0-1.9-.1-2.8-.1h-1.5v1h3.2c.3 0 1 0 2.1-.1v1.2c-1.1 0-1.8-.1-2.1-.1h-3.4l-.1.1c1.4 1 2.4 1.5 3.4 1.9zm-4.1-6.7v-1.3h-2.7v1.3zm2.2-4.1v-1.1h-3.4v1.1zm1.9 4.1v-1.3h-2.8v1.3z"/><path d="m37 6.7v2.3 5.4c1 0 1.8 0 2.2-.1v1.3c-.6 0-1.5-.1-2.5-.1h-11.9c-.7 0-1.3 0-1.8.1v-1.3c.5 0 1.1.1 2 .1v-5.2c0-1 0-1.8-.1-2.5h3.7c0-1.3 0-2.1-.1-2.5h1.5c0 .4-.1 1.3-.1 2.5h2.2c0-1.2 0-2.1-.1-2.6h1.5c0 .4-.1 1.3-.1 2.6zm-12.3 13.7c-.3-.4-.7-.8-1.1-1.1 1.1-.4 2.1-.9 2.9-1.3.8-.5 1.5-1 2.1-1.6.4.4.9.8 1.3 1.1-2.5 1.4-4.2 2.4-5.2 2.9zm3.9-10.1v-2.4h-2.2v2.4zm0 4.1v-2.9h-2.2v2.9zm3.5-4.1v-2.4h-2.2v2.4zm0 4.1v-2.9h-2.2v2.9zm.4 2.9 1-1.1c.6.3 1.4.7 2.5 1.3s2 1.1 2.7 1.5c-.4.4-.8.8-1.1 1.3-.8-.8-2.5-1.7-5.1-3zm3.1-7v-2.4h-2.1v2.4zm0 4.1v-2.9h-2.1v2.9z"/></g></svg>