<svg enable-background="new 0 0 400 400" viewBox="0 0 400 400" xmlns="http://www.w3.org/2000/svg"><path d="m89.56 366.72c3.74-9.57 5.54-19.3 12.12-27.59 21.93-27.66 43.26-55.8 64.72-83.82 4.77-6.22 6.41-13.79 7.79-21.28 2.99-16.24 2.86-32.7 2.85-49.13 0-.92-.6-2.01-1.24-2.74-2.72-3.11-5.45-6.24-8.44-9.08-.94-.89-2.8-1.5-4.06-1.27-7.19 1.31-14.32 2.93-21.47 4.39-1.44.29-2.93.52-4.4.52-27.79.03-55.57.02-83.36.02-.84 0-1.68-.08-2.9-.14-.34-6.26-.67-12.45-1.02-18.93 7.84-1.94 15.51-3.86 23.19-5.73 54.41-13.28 108.79-26.69 163.26-39.72 15.43-3.69 31.17-6.09 46.72-9.33 12.96-2.71 25.82-5.76 37.71-11.97 4.54-2.37 11.78 1.92 12.46 6.97.61 4.46-.35 8.66-2.26 12.64-.44.92-1.58 1.64-2.56 2.14-17.23 8.86-34.47 17.71-51.77 26.45-2.26 1.14-3.36 2.26-2.19 4.81.48 1.04.48 2.29.89 3.37 3.89 10 3.39 20.25 2.23 30.66-.44 4-.12 8.28.81 12.2 4.31 18.02 8.94 35.96 13.53 53.91.38 1.49 1.11 2.99 2.03 4.22 6.76 8.97 13.79 17.75 20.39 26.84 5.16 7.11 12.2 11.62 19.7 15.66 1.12.6 2.26 1.18 3.42 1.69 4.74 2.08 7.01 5.82 6.67 10.85-.26 3.84-1.14 7.64-1.8 11.8-4.01-1.2-7.34-2.18-10.66-3.19-4.56-1.39-9.06-3-13.67-4.15-6.47-1.62-12.3-4.35-17.58-8.44-3.6-2.79-7.31-5.48-11.22-7.79-9.14-5.4-14.29-13.82-18.65-23.08-7.07-15.02-10.01-31.19-13.68-47.17-2.01-8.77-4.42-17.49-5.74-26.37-1.03-6.95-1.11-14.13-.81-21.17.29-7-.46-13.47-4.4-19.43-1.41-2.14-3.14-3.16-5.55-2.65-6.31 1.33-12.62 2.65-18.86 4.24-4.61 1.17-9.09 2.87-13.69 4.09-2.21.59-3.36 1.74-4.04 3.87-1.59 4.96-1.73 9.8.7 14.51 3.85 7.46 4.74 15.32 4.7 23.68-.12 25.82-8.45 48.85-22.84 69.86-5.86 8.55-12.64 16.47-18.72 24.88-4.96 6.86-9.58 13.97-14.23 21.05-4.63 7.04-9.71 13.62-17 18.29-1.84-1.32-3.61-2.59-5.66-4.07-1.08 1.82-2.03 3.43-3.19 5.4 2.57.74 4.94 1.41 7.73 2.21-2.35 2.85-4.52 5.5-6.71 8.14-4.41 5.3-8.8 10.61-13.28 15.85-.69.81-1.78 1.72-2.74 1.79-7.59.5-15.19.83-23.23 1.24z" fill="#010103"/><path d="m176.11 93.79c-3.91.22-7.87.15-11.73.71-7.21 1.04-13.39-2.25-19.98-4.04-5.55-1.51-9.8-4.82-14.02-8.34-2.48-2.06-2.82-8.13-.68-10.79 1.86-2.31 3.75-4.62 5.81-6.74.8-.82 2.11-1.55 3.23-1.61 20.99-1.06 40.98-7.54 61.5-11.08 8.29-1.43 16.85-1.28 25.28-1.93 1.44-.11 2.94-.38 4.26-.94 9.73-4.17 19.41-8.44 29.11-12.66 4.48-1.95 10.49.36 12.59 4.82 2.78 5.9 1.42 13.57-3.2 18.23-21.2 21.39-47.11 32.16-76.94 33.9-5.06.3-10.16.04-15.24.04.01.14.01.28.01.43z" fill="#010103"/><g fill="#fcfbfa"><path d="m6.8 9.5c.6.3 1.3.7 2.1 1.1-.4.4-.7.8-.9 1.2-.7-.4-1.3-.8-1.8-1.1s-1.1-.6-1.6-.8c.2-.4.5-.8.7-1.2.4.2.8.5 1.5.8zm.9 6.9c-.3.6-.5 1.1-.7 1.7s-.4 1.1-.6 1.7c-.6-.4-1.1-.7-1.6-1 .7-1 1.2-1.8 1.5-2.4.3-.5.6-1.1.8-1.7.3-.6.5-1.2.8-1.8.3.3.8.6 1.3.8-.7 1.3-1.2 2.2-1.5 2.7zm.1-11c.4.3 1 .7 1.7 1.1-.5.2-.8.6-1.1 1.1-.5-.6-1-1-1.4-1.2s-.9-.6-1.5-.8c.2-.4.5-.7.9-1.1.5.3.9.6 1.4.9zm10.5 13.1c1 .4 2 .6 3.1.7-.4.4-.7.8-.8 1.3-.9-.2-1.9-.6-3-.9-1-.4-2-.9-2.8-1.6-.5.4-1.1.9-1.9 1.3s-1.9.9-3.3 1.2c-.1-.3-.5-.8-1.1-1.3 1 0 2.1-.3 3.2-.8 1.2-.5 1.9-1 2.3-1.7h-3.2c-.4 0-1 0-2 .1v-1.2c1 0 1.7.1 2 .1h3.3v-1h-2.3c-.2 0-.9 0-2 .1v-1.2c1.2 0 1.9.1 2 .1h2.3v-.8h-4.1c0-.7.1-1.2.1-1.6 0-.5 0-1.1-.1-1.8h4.1v-.7h-2.5c0-.6.1-1.1.1-1.6v-.6h-.5c-.4 0-1 0-1.8.1v-1.3c1.2 0 1.9.1 2.1.1h.2c0-.3 0-.8-.1-1.4h1.4c0 .6-.1 1-.1 1.4h3.4c0-.4 0-.8-.1-1.3h1.5c0 .4-.1.9-.1 1.3.7 0 1.5 0 2.5-.1v1.2c-1 0-1.8-.1-2.5-.1v.6c0 .3 0 .8.1 1.5h-2.5v.8h4.1c0 .7-.1 1.3-.1 1.8s0 1 .1 1.5h-4.1v.8h1.4c.8 0 1.8 0 2.9-.1v1.2c-1 0-1.9-.1-2.8-.1h-1.5v1h3.2c.3 0 1 0 2.1-.1v1.2c-1.1 0-1.8-.1-2.1-.1h-3.4l-.1.1c1.4 1 2.4 1.5 3.4 1.9zm-4.1-6.7v-1.3h-2.7v1.3zm2.2-4.1v-1.1h-3.4v1.1zm1.9 4.1v-1.3h-2.8v1.3z"/><path d="m37 6.7v2.3 5.4c1 0 1.8 0 2.2-.1v1.3c-.6 0-1.5-.1-2.5-.1h-11.9c-.7 0-1.3 0-1.8.1v-1.3c.5 0 1.1.1 2 .1v-5.2c0-1 0-1.8-.1-2.5h3.7c0-1.3 0-2.1-.1-2.5h1.5c0 .4-.1 1.3-.1 2.5h2.2c0-1.2 0-2.1-.1-2.6h1.5c0 .4-.1 1.3-.1 2.6zm-12.3 13.7c-.3-.4-.7-.8-1.1-1.1 1.1-.4 2.1-.9 2.9-1.3.8-.5 1.5-1 2.1-1.6.4.4.9.8 1.3 1.1-2.5 1.4-4.2 2.4-5.2 2.9zm3.9-10.1v-2.4h-2.2v2.4zm0 4.1v-2.9h-2.2v2.9zm3.5-4.1v-2.4h-2.2v2.4zm0 4.1v-2.9h-2.2v2.9zm.4 2.9 1-1.1c.6.3 1.4.7 2.5 1.3s2 1.1 2.7 1.5c-.4.4-.8.8-1.1 1.3-.8-.8-2.5-1.7-5.1-3zm3.1-7v-2.4h-2.1v2.4zm0 4.1v-2.9h-2.1v2.9z"/></g></svg>