<svg enable-background="new 0 0 400 400" viewBox="0 0 400 400" xmlns="http://www.w3.org/2000/svg"><path d="m159.06 147.28c-1.98 9.31-3.96 18.61-5.95 27.92-.09.41-.21.89-.48 1.16-7.41 7.25-13.35 16.41-24.81 18.28-10.18 1.67-20.28 1.64-30.27-.91-5.17-1.32-8.75-4.82-10.26-9.93-1.5-5.06-3.18-10.2-3.6-15.41-.79-9.69-.89-19.45-.9-29.18 0-2.5 1.18-5.09 2.19-7.48 3.81-9.06 10.39-15.83 17.38-22.66 11.82-11.55 26.68-17.85 40.61-25.77 2.75-1.56 6.6-1.13 9.92-1.76 10.25-1.93 19.44-6.44 28.26-11.82 1.49-.91 3.2-1.63 4.9-2 6.32-1.35 12.66-2.61 19.02-3.69 2.58-.44 4.43-1.64 5.24-4.01 1.12-3.29 2.06-6.66 2.83-10.05 1.26-5.56 3.24-10.73 7.38-15.17 7.74 5.81 12 13.6 12.98 23.03 1.07 10.22 1.63 20.5 2.39 30.75.71 9.51 4.7 17.52 11.28 24.24 4.3 4.39 8.73 8.69 13.38 12.7 8.39 7.23 7.22 19.05 4.57 26.16-.31.82-1.17 1.48-1.87 2.1-3.82 3.36-7.75 6.6-11.46 10.09-.91.86-1.63 2.5-1.57 3.74.46 9.74 1.12 19.48 1.75 29.21.16 2.46 3.9 6.06 6.96 6.52 2.98.44 5.82.33 8.21-2.17 2.48-2.6 5.29-4.87 8.14-7.46 5.42 4.24 11.15 3.88 17.11 1.43 1.08-.45 2.54-.36 3.74-.09 6.23 1.37 11.98 3.5 14.93 9.93 1.23 2.69 2.86 5.19 4.25 7.81 1.98 3.75 2.91 7.68 2.24 11.96-1.9 12.17-1.02 24.18 1.05 36.32 1.05 6.19-.03 12.82-.7 19.2-.67 6.45-1.51 12.8.2 19.23.42 1.59.11 3.6-.47 5.19-3.16 8.63-5.82 17.47-11.1 25.21-1.43 2.1-2.9 3.3-5.29 3.18-3.52-.16-5.94 1.4-8.04 4.12-1.61 2.08-3.62 3.87-5.54 5.69-5.15 4.86-11.04 7.8-18.38 6.75-2.31-.33-3.84.46-5.27 2.49-1.1 1.56-3.02 2.95-4.85 3.51-10.12 3.11-20.34 5.87-30.48 8.92-3.39 1.02-6.66 1.57-10.25 1.17-10-1.12-20.05-1.85-30.06-2.92-2.13-.23-4.18-1.22-6.94-2.06-1.96 2.54-5.06 1.43-8.45.39-16.02-4.89-30.96-12.07-45.07-21.01-8.7-5.51-15.65-12.94-22.23-20.76-1.18-1.4-2.9-2.33-4.36-3.5-2.6-2.09-5.77-3.78-7.67-6.39-3.41-4.68-6.07-9.91-9.03-14.91-2.1-3.54-4.02-7.19-6.31-10.61-2.74-4.1-1.6-12.81 2.38-15.63.63-.45 1.59-.52 2.42-.61 9.9-1.1 19.81-2.15 29.7-3.27 1.24-.14 2.47-.56 3.65-1 25.38-9.49 50.71-19.15 76.16-28.44 8.53-3.12 17.41-5.27 26.1-7.98 6.86-2.14 12.89-5.61 16.57-12.03 1.01-1.77 1.57-4.23 1.31-6.24-1.39-10.5-3.21-20.94-4.66-31.44-.31-2.27-1.41-3.11-3.24-4.06-3.45-1.79-6.62-2.41-10.49-.88-5.97 2.36-10.45-.8-10.73-7.32-.21-4.87.02-9.75.05-14.63 0-.85.29-1.91-.11-2.51-3.24-4.96.93-7.68 3.29-10.8 3.18-4.21 7.24-7.86 9.88-12.36 4.19-7.15 4.13-14.7-.51-21.89-.46-.71-.9-1.44-1.31-2.17-2.68-4.76-6.08-5.29-10.11-1.4-4.86 4.68-10.3 8.32-17.16 8.85-3.85.3-7.85.22-11.62-.51-6.33-1.23-12.52-3.15-18.79-4.69-1.18-.29-2.56-.5-3.68-.18-11.73 3.36-23.33 7.04-33.14 14.75-6.94 5.45-13.82 10.97-18.23 18.81-4.76 8.44-4.77 17.49-1.2 26.09 2.09 5.03 7.5 7.41 12.85 8.4 6.93 1.28 13.24-.13 18.31-5.51 3.63-3.86 7.14-7.89 11.15-11.33 3.39-2.91 7.41-5.09 11.15-7.59.22.26.49.58.76.89zm150.51 97.19c-.3-10.91-11.97-19.65-22.54-16.65-8.25 2.34-16.47 4.76-24.69 7.21-3.54 1.05-7.22 1.89-10.52 3.48-10.39 5.01-20.65 10.31-30.93 15.55-27.78 14.14-56.62 24.65-88.04 27.13-8.99.71-17.71 3.29-25.48 8.24-4.91 3.13-5.33 10.35-.84 14.02 1.47 1.21 3.19 2.14 4.56 3.44 1.63 1.55 3.33 3.17 4.43 5.09 1.89 3.28 3.14 3.78 6.91 3 1.9-.39 4.32-.27 5.95.62 1.93 1.06 3.38 1.07 5.29.34 33.13-12.63 66.27-25.23 99.45-37.75 3.35-1.26 6.2-2.93 8.71-5.52 1.2-1.24 3.15-1.96 4.9-2.43 3.87-1.04 7.93-1.44 11.71-2.71 7.93-2.65 15.78-5.54 23.55-8.64 4.5-1.79 8.8-2.48 13.55-1.03 3.7 1.13 11.43-2.41 12.29-5.36.77-2.61 1.18-5.34 1.74-8.03zm-98.49 98.99c19.9-.28 38.39-4.36 55.16-15.68 7.66-5.18 16.26-8.97 24.41-13.44 1.09-.59 2.27-1.24 3.03-2.17 3.73-4.61 7.39-9.28 10.96-14.01 2.64-3.5 1.06-7.85-3.15-8.84-2.37-.56-4.76-1.03-7.17-1.36-.85-.12-1.95.02-2.63.49-6.95 4.78-14.85 7.16-22.9 9.05-8.44 1.98-16.97 3.58-25.46 5.37-8.28 1.74-15.69 5.57-23.15 9.39-7.79 4-15.62 8.25-24.96 5.84-.48-.12-1.07 0-1.56.17-8.65 3.06-17.39 5.89-25.88 9.32-4.53 1.83-4.56 4.04-1.4 7.92 2.54 3.14 5.75 3.99 9.69 4.32 11.68.94 23.34 2.38 35.01 3.63z" fill="#010103"/><g fill="#fcfbfa"><path d="m6.8 9.5c.6.3 1.3.7 2.1 1.1-.4.4-.7.8-.9 1.2-.7-.4-1.3-.8-1.8-1.1s-1.1-.6-1.6-.8c.2-.4.5-.8.7-1.2.4.2.8.5 1.5.8zm.9 6.9c-.3.6-.5 1.1-.7 1.7s-.4 1.1-.6 1.7c-.6-.4-1.1-.7-1.6-1 .7-1 1.2-1.8 1.5-2.4.3-.5.6-1.1.8-1.7.3-.6.5-1.2.8-1.8.3.3.8.6 1.3.8-.7 1.3-1.2 2.2-1.5 2.7zm.1-11c.4.3 1 .7 1.7 1.1-.5.2-.8.6-1.1 1.1-.5-.6-1-1-1.4-1.2s-.9-.6-1.5-.8c.2-.4.5-.7.9-1.1.5.3.9.6 1.4.9zm10.5 13.1c1 .4 2 .6 3.1.7-.4.4-.7.8-.8 1.3-.9-.2-1.9-.6-3-.9-1-.4-2-.9-2.8-1.6-.5.4-1.1.9-1.9 1.3s-1.9.9-3.3 1.2c-.1-.3-.5-.8-1.1-1.3 1 0 2.1-.3 3.2-.8 1.2-.5 1.9-1 2.3-1.7h-3.2c-.4 0-1 0-2 .1v-1.2c1 0 1.7.1 2 .1h3.3v-1h-2.3c-.2 0-.9 0-2 .1v-1.2c1.2 0 1.9.1 2 .1h2.3v-.8h-4.1c0-.7.1-1.2.1-1.6 0-.5 0-1.1-.1-1.8h4.1v-.7h-2.5c0-.6.1-1.1.1-1.6v-.6h-.5c-.4 0-1 0-1.8.1v-1.3c1.2 0 1.9.1 2.1.1h.2c0-.3 0-.8-.1-1.4h1.4c0 .6-.1 1-.1 1.4h3.4c0-.4 0-.8-.1-1.3h1.5c0 .4-.1.9-.1 1.3.7 0 1.5 0 2.5-.1v1.2c-1 0-1.8-.1-2.5-.1v.6c0 .3 0 .8.1 1.5h-2.5v.8h4.1c0 .7-.1 1.3-.1 1.8s0 1 .1 1.5h-4.1v.8h1.4c.8 0 1.8 0 2.9-.1v1.2c-1 0-1.9-.1-2.8-.1h-1.5v1h3.2c.3 0 1 0 2.1-.1v1.2c-1.1 0-1.8-.1-2.1-.1h-3.4l-.1.1c1.4 1 2.4 1.5 3.4 1.9zm-4.1-6.7v-1.3h-2.7v1.3zm2.2-4.1v-1.1h-3.4v1.1zm1.9 4.1v-1.3h-2.8v1.3z"/><path d="m37 6.7v2.3 5.4c1 0 1.8 0 2.2-.1v1.3c-.6 0-1.5-.1-2.5-.1h-11.9c-.7 0-1.3 0-1.8.1v-1.3c.5 0 1.1.1 2 .1v-5.2c0-1 0-1.8-.1-2.5h3.7c0-1.3 0-2.1-.1-2.5h1.5c0 .4-.1 1.3-.1 2.5h2.2c0-1.2 0-2.1-.1-2.6h1.5c0 .4-.1 1.3-.1 2.6zm-12.3 13.7c-.3-.4-.7-.8-1.1-1.1 1.1-.4 2.1-.9 2.9-1.3.8-.5 1.5-1 2.1-1.6.4.4.9.8 1.3 1.1-2.5 1.4-4.2 2.4-5.2 2.9zm3.9-10.1v-2.4h-2.2v2.4zm0 4.1v-2.9h-2.2v2.9zm3.5-4.1v-2.4h-2.2v2.4zm0 4.1v-2.9h-2.2v2.9zm.4 2.9 1-1.1c.6.3 1.4.7 2.5 1.3s2 1.1 2.7 1.5c-.4.4-.8.8-1.1 1.3-.8-.8-2.5-1.7-5.1-3zm3.1-7v-2.4h-2.1v2.4zm0 4.1v-2.9h-2.1v2.9z"/></g></svg>