<svg enable-background="new 0 0 400 400" viewBox="0 0 400 400" xmlns="http://www.w3.org/2000/svg"><g fill="#010103"><path d="m146.96 364.87c.9-1.72 1.45-3.79 2.75-5.12 16.09-16.56 30.58-34.35 42.35-54.27 3.87-6.56 7.98-12.99 11.62-19.66 1.51-2.76 2.09-6.03 3.09-9.07-.29-.28-.58-.56-.87-.85-1.37.2-3.13-.08-4.03.67-4.76 3.98-10.27 3.39-15.77 3.04-13.6-.87-26.15-4.89-37.47-12.57-2.98-2.02-4.55-4.84-3.96-8.4.19-1.13 1.52-2.82 2.49-2.94 2.55-.3 5.38-.45 7.74.38 4.24 1.49 8.34 3.51 12.25 5.72 5.03 2.85 10.39 4.44 16.05 4.35 5.69-.09 11.4-.72 17.05-1.51 4.19-.58 5.51-2.85 4.91-7.15-1.02-7.41-7.84-13.04-16.76-13.38-8.58-.32-17.17-.25-25.75-.35-1.25-.01-2.51 0-4.14 0 0-2.81-.19-5.34.1-7.81.1-.84 1.28-1.99 2.18-2.24 4.67-1.3 9.37-3.04 14.14-3.34 8.96-.56 17.97-.3 26.96-.27 2.72.01 5.09 1.02 6.98 3.18 1.6 1.83 3.53 3.37 5.22 5.12 4.47 4.63 8.21 9.66 9.5 16.2.57 2.9 1.56 5.71 3.2 8.84 1-2.73 2.67-5.42 2.87-8.21.74-10.18 4.13-19.61 7.08-29.23 1.54-5 1.85-10.39 2.86-16.51-2.55.15-4.76-.15-6.68.48-3.09 1.01-6.04 2.52-8.96 4.01-6.18 3.15-12.57 4.69-19.6 3.94-8.32-.89-16.72-1.06-25.02-2.06-4.67-.56-9.19-2.27-13.82-3.28-3.07-.67-6.19-1.08-9.31-1.5-1.77-.24-2.58.73-3.06 2.45-1.37 4.89-3.2 9.66-4.39 14.59-3.97 16.41-13.66 30.19-20.45 45.3-4.52 10.05-12.2 17.1-19.74 24.45-.32-.05-.65-.09-.97-.14.28-2.79.1-5.74.94-8.36 1.93-6.04 4.5-11.87 6.53-17.87 5.48-16.13 10.84-32.31 16.14-48.5.5-1.54.26-3.33.27-5.01.04-4.44.1-8.88 0-13.31-.02-1.06-.41-2.27-1.03-3.13-2.49-3.43-4.99-6.87-7.74-10.09-6.48-7.58-7.24-16.18-3.98-25.05 5.09-13.85 12.58-26.33 23.03-36.94 2.14-2.17 4.04-4.62 5.75-7.14 3.79-5.62 7.49-11.31 11.03-17.09 9.81-16.03 16.23-33.44 20.81-51.59 1.71-6.8 3.61-13.5 9.02-18.89 6.18 5.5 8.58 12.48 8.77 20.37.18 7.21 2.37 13.64 6.43 19.61 2.42 3.55 5.52 5.38 9.67 5.76 6.12.56 12.23 1.18 18.35 1.68 8.75.72 16.41 3.85 23.86 8.63 11.36 7.29 18.49 17.5 23.33 29.66 3.87 9.71 3.68 19.87 1.47 29.75-2.26 10.08-5.66 19.9-8.74 29.78-.5 1.61-1.76 3.12-3 4.35-4.88 4.86-9.86 9.63-14.89 14.34-1.27 1.19-1.72 2.27-.84 3.82 4.61 8.21 3.03 16.61.46 24.89-4.61 14.86-9.48 29.64-14.17 44.47-2.79 8.83-8.11 16.01-14.46 22.51-3.33 3.41-6.73 6.78-10.28 9.96-3.11 2.78-5.96 5.67-7.57 9.61-.3.74-.95 1.4-1.57 1.95-18.7 16.31-37.42 32.59-56.14 48.88-.3.26-.65.47-.98.7-.35-.18-.73-.39-1.11-.61zm116.45-221.02c.08 0 .15-.01.23-.01-.32-4.23-.69-8.45-.97-12.68-.46-6.97-2.69-12.97-8.81-17.05-1.48-.99-2.81-2.29-3.96-3.67-4.05-4.85-9.52-6.86-15.47-7.96-1.56-.29-3.15-.43-4.71-.72-4.89-.9-9.79-2.71-14.64-2.55-7.58.26-15.18 1.5-22.64 2.98-6.64 1.32-11.94 4.87-15.45 11.12-2.57 4.58-5.82 8.85-9.18 12.91-9.72 11.78-19.67 23.36-29.43 35.1-.91 1.09-1.55 2.8-1.54 4.21.11 9.62 4.37 16.94 13 21.28 5.09 2.56 10.38 4.85 15.78 6.61 13.12 4.28 26.43 7.85 40.43 7.37 7.57-.26 14.59-1.9 20.54-7.15 5-4.41 10.28-8.54 15.68-12.46 6.17-4.48 11.06-10.02 15.68-16.04 3.72-4.85 5.16-10.09 5.44-15.9.1-1.78.02-3.59.02-5.39z"/><path d="m217.02 332.42c1.63-3.23 2.82-6.79 4.97-9.61 4.76-6.24 10.27-11.82 16.76-16.36 1.08-.76 1.91-1.96 2.65-3.1 4.72-7.29 9.15-14.78 14.13-21.88 6.8-9.71 11.68-20.24 15.68-31.37 2.27-6.31 5.93-12.12 9.06-18.1.75-1.43 1.53-3.16 3.83-2.43 2.32.73 4.75 1.68 4.83 4.38.09 2.89.02 6.07-1.07 8.67-8.18 19.52-16.38 39.07-28.09 56.83-1.95 2.95-4.84 5.3-7.41 7.81-6.9 6.74-13.77 13.5-20.84 20.05-2.14 1.98-4.76 3.56-7.41 4.81-1.88.89-4.16.9-6.27 1.31-.27-.35-.55-.68-.82-1.01z"/><path d="m173.31 302.58c.29.46.38.54.39.63 1.18 8.59 1.19 8.6-6.17 13.17-3.78 2.35-7.44 4.93-11.41 6.9-2.88 1.43-6.15 2.71-9.3 2.86-11.53.53-13.97-1.4-20.79-15.14-2.27-4.58-2.24-9.37.02-14.21 3.95-.07 7.4 1.37 10.13 3.9 5.92 5.47 12.47 6.88 20.24 4.86 5.52-1.44 11.25-2.01 16.89-2.97z"/><path d="m248.13 157.09c-19.02 6.28-36.58 2.9-53.31-6.68-5.28-6.65-13.55-11.21-14.51-20.88-.31-3.14 1.21-4.8 4.37-5.12 4.24-.43 7.68.71 10.98 3.52 10.32 8.77 21.72 15.8 34.64 20.14 4.21 1.41 8.49 2.59 12.68 4.04 2.44.86 4.63 2.17 5.15 4.98z"/><path d="m207 194.86c-.84-.11-1.72-.08-2.5-.36-13.56-4.82-26.65-10.43-36.47-21.62-2.23-2.54-4.92-4.66-7.32-7.05-1.11-1.11-2.38-2.27-2.93-3.67-.53-1.35-.89-3.72-.16-4.4 1.38-1.3 3.89-2.72 5.4-2.29 3.67 1.06 7.77 2.42 10.41 4.98 9.54 9.27 20.59 15.81 32.89 20.51 2.86 1.09 5.62 2.48 8.35 3.87 3.54 1.79 3.99 5.33.65 7.46-2.39 1.52-5.36 2.12-8.08 3.14-.07-.2-.16-.39-.24-.57z"/></g><path d="m6.8 9.5c.6.3 1.3.7 2.1 1.1-.4.4-.7.8-.9 1.2-.7-.4-1.3-.8-1.8-1.1s-1.1-.6-1.6-.8c.2-.4.5-.8.7-1.2.4.2.8.5 1.5.8zm.9 6.9c-.3.6-.5 1.1-.7 1.7s-.4 1.1-.6 1.7c-.6-.4-1.1-.7-1.6-1 .7-1 1.2-1.8 1.5-2.4.3-.5.6-1.1.8-1.7.3-.6.5-1.2.8-1.8.3.3.8.6 1.3.8-.7 1.3-1.2 2.2-1.5 2.7zm.1-11c.4.3 1 .7 1.7 1.1-.5.2-.8.6-1.1 1.1-.5-.6-1-1-1.4-1.2s-.9-.6-1.5-.8c.2-.4.5-.7.9-1.1.5.3.9.6 1.4.9zm10.5 13.1c1 .4 2 .6 3.1.7-.4.4-.7.8-.8 1.3-.9-.2-1.9-.6-3-.9-1-.4-2-.9-2.8-1.6-.5.4-1.1.9-1.9 1.3s-1.9.9-3.3 1.2c-.1-.3-.5-.8-1.1-1.3 1 0 2.1-.3 3.2-.8 1.2-.5 1.9-1 2.3-1.7h-3.2c-.4 0-1 0-2 .1v-1.2c1 0 1.7.1 2 .1h3.3v-1h-2.3c-.2 0-.9 0-2 .1v-1.2c1.2 0 1.9.1 2 .1h2.3v-.8h-4.1c0-.7.1-1.2.1-1.6 0-.5 0-1.1-.1-1.8h4.1v-.7h-2.5c0-.6.1-1.1.1-1.6v-.6h-.5c-.4 0-1 0-1.8.1v-1.3c1.2 0 1.9.1 2.1.1h.2c0-.3 0-.8-.1-1.4h1.4c0 .6-.1 1-.1 1.4h3.4c0-.4 0-.8-.1-1.3h1.5c0 .4-.1.9-.1 1.3.7 0 1.5 0 2.5-.1v1.2c-1 0-1.8-.1-2.5-.1v.6c0 .3 0 .8.1 1.5h-2.5v.8h4.1c0 .7-.1 1.3-.1 1.8s0 1 .1 1.5h-4.1v.8h1.4c.8 0 1.8 0 2.9-.1v1.2c-1 0-1.9-.1-2.8-.1h-1.5v1h3.2c.3 0 1 0 2.1-.1v1.2c-1.1 0-1.8-.1-2.1-.1h-3.4l-.1.1c1.4 1 2.4 1.5 3.4 1.9zm-4.1-6.7v-1.3h-2.7v1.3zm2.2-4.1v-1.1h-3.4v1.1zm1.9 4.1v-1.3h-2.8v1.3z" fill="#fcfbfa"/><path d="m37 6.7v2.3 5.4c1 0 1.8 0 2.2-.1v1.3c-.6 0-1.5-.1-2.5-.1h-11.9c-.7 0-1.3 0-1.8.1v-1.3c.5 0 1.1.1 2 .1v-5.2c0-1 0-1.8-.1-2.5h3.7c0-1.3 0-2.1-.1-2.5h1.5c0 .4-.1 1.3-.1 2.5h2.2c0-1.2 0-2.1-.1-2.6h1.5c0 .4-.1 1.3-.1 2.6zm-12.3 13.7c-.3-.4-.7-.8-1.1-1.1 1.1-.4 2.1-.9 2.9-1.3.8-.5 1.5-1 2.1-1.6.4.4.9.8 1.3 1.1-2.5 1.4-4.2 2.4-5.2 2.9zm3.9-10.1v-2.4h-2.2v2.4zm0 4.1v-2.9h-2.2v2.9zm3.5-4.1v-2.4h-2.2v2.4zm0 4.1v-2.9h-2.2v2.9zm.4 2.9 1-1.1c.6.3 1.4.7 2.5 1.3s2 1.1 2.7 1.5c-.4.4-.8.8-1.1 1.3-.8-.8-2.5-1.7-5.1-3zm3.1-7v-2.4h-2.1v2.4zm0 4.1v-2.9h-2.1v2.9z" fill="#fcfbfa"/></svg>