<svg enable-background="new 0 0 400 400" viewBox="0 0 400 400" xmlns="http://www.w3.org/2000/svg"><path d="m154.36 34.97c8.39 4.21 13 10.62 15.58 18.74 1.64 5.14 3.31 10.27 5.12 15.34 1.85 5.19 5.68 8.09 10.97 9.56 10.26 2.85 20.53 2.27 30.9.96 3.51-.44 7.1-.25 10.65-.29 4.21-.04 8.49.49 12.6-.14 6.38-.98 12.41-.02 18.5 1.52 4.52 1.14 9.05 2.25 13.61 3.18 9.42 1.92 15.95 8.43 22.91 14.26 1.94 1.62 3.61 3.59 5.28 5.5 4.34 4.95 7.12 10.41 7.84 17.26.94 8.91 3.4 17.65 4.58 26.55 1.23 9.22 1.94 18.52 2.48 27.81.82 14.07 1.37 28.15 1.86 42.23.15 4.33-.24 8.67-.39 13.01-.12 3.54-2.21 5.52-5.5 6.74-3.29-3.54-5.05-7.99-5.04-12.63.01-12.98-2.98-25.4-5.94-37.88-3.15-13.28-5.16-26.89-9.07-39.93-3.55-11.8-8.8-23.12-13.68-34.49-3.6-8.4-11.12-10.62-19.49-11.27-8.87-.69-17.71-2.02-26.59-2.35-5-.18-10.08.93-15.08 1.75-10.77 1.76-21.5 3.68-32.25 5.58-.91.16-1.94.38-2.63.92-9.12 7.24-19.81 10.03-31.08 11.81-23.29 3.67-38.1 17.73-42.27 41.18-2.91 16.38-6.53 32.69-6.6 49.4-.05 13.34.63 26.69 1.09 40.03.66 19.07 1.82 38.13 1.93 57.2.04 6.3-2.8 12.57-3.76 18.93-.99 6.55-1.31 13.21-1.89 19.82-.19 2.15 1.21 3.19 2.93 2.47 4.03-1.69 8.54-3.07 11.67-5.9 10.94-9.86 21.39-20.27 32.01-30.5.75-.73 1.41-1.58 1.99-2.46 11.79-17.99 23.69-35.91 35.23-54.07 2.13-3.36 3.27-7.57 3.98-11.55.86-4.79.13-9.44-4.38-12.71-1.87-1.35-3.2-3.42-5.01-4.87-8.23-6.59-8.63-15.28-6.48-24.5 1.1-4.72 3.09-9.23 4.32-13.94 1.87-7.17 2.22-14.25-.7-21.46-5.49-13.56-3.49-27.26.22-40.85.77-2.83 5.85-5.88 9.82-5.8 2.62.05 5.29.42 7.83 1.09 1.12.29 2.29 1.5 2.87 2.59 2.94 5.53 2.42 11.46 1.7 17.41-.79 6.52-1.42 13.06-2.16 19.58-.52 4.63.97 8.51 4.1 11.88 2.52 2.72 5.33 5.27 7.39 8.31 2.88 4.25 5.34 8.82 7.66 13.41.76 1.49.67 3.47.75 5.24.07 1.69-.29 3.39-.21 5.08.52 10.27-1.36 20-6.33 29.06-1.14 2.07-1.03 4.08-.41 6.37 3.14 11.67 6.39 23.26 12.07 34.04 3.63 6.88 8.38 12.81 14.56 17.42 6.71 5 13.6 9.77 20.67 14.25 2.78 1.76 6.18 2.63 9.39 3.58 1.2.35 2.79.06 4-.42 13.71-5.42 27.37-10.98 41.09-16.37 1.43-.56 3.24-.58 4.79-.32 1.14.19 3.04 1.27 3.02 1.89-.05 1.26-1.17 2.47-2.07 4.1 3.04 3.39.86 7.33-.66 11.24-.23.59-.95 1.13-1.57 1.41-10.51 4.78-20.88 9.9-31.59 14.15-13.22 5.25-26.43 4.55-39.45-1.56-16.86-7.91-28.99-20.52-37.91-36.59-1.46-2.64-3.21-5.26-5.36-7.34-1.89-1.83-3.93-1.59-5.51 1.24-2.47 4.43-5.64 8.48-8.13 12.9-7.48 13.29-19.21 22.76-29.53 33.51-15.66 16.31-34.82 27.56-54.67 37.77-2.55 1.31-5.63 1.79-8.53 2.18-2.78.38-4.79-2.73-3.26-5.06 1.99-3.02 1.74-5.92.74-9.09-4-12.69-6.02-25.98-4.52-38.93 1.74-14.96-1.48-29.13-3.66-43.4-3.45-22.58-3.75-45.15-3.42-67.84.2-13.78.26-27.57.49-41.35.02-1.49.74-2.97 1.09-4.46.38-1.63.99-3.28 1-4.92.03-5.78 1.38-11.04 4.94-15.74 1.91-2.52 3.47-5.33 5.01-8.11 1.58-2.85 3.38-5.22 6.65-6.4 1.21-.44 2.27-1.91 2.93-3.16 4.23-7.97 10.42-13.68 18.84-16.99 10.98-4.31 17.96-13.56 26.18-21.28.93-.87 1.71-1.92 2.72-2.68 7.3-5.53 7.71-13.04 6.35-21.2-.78-4.67-1.36-9.4-1.61-14.13-.11-1.99.88-4.04 1.49-6.52zm29.31 169.1c2.47-.04 4.97 1.52 5.83-1.68.16-.59-1.17-2.11-2.05-2.37-3.62-1.07-2.33 2.42-3.78 4.05z" fill="#010103"/><g fill="#fcfbfa"><path d="m6.8 9.5c.6.3 1.3.7 2.1 1.1-.4.4-.7.8-.9 1.2-.7-.4-1.3-.8-1.8-1.1s-1.1-.6-1.6-.8c.2-.4.5-.8.7-1.2.4.2.8.5 1.5.8zm.9 6.9c-.3.6-.5 1.1-.7 1.7s-.4 1.1-.6 1.7c-.6-.4-1.1-.7-1.6-1 .7-1 1.2-1.8 1.5-2.4.3-.5.6-1.1.8-1.7.3-.6.5-1.2.8-1.8.3.3.8.6 1.3.8-.7 1.3-1.2 2.2-1.5 2.7zm.1-11c.4.3 1 .7 1.7 1.1-.5.2-.8.6-1.1 1.1-.5-.6-1-1-1.4-1.2s-.9-.6-1.5-.8c.2-.4.5-.7.9-1.1.5.3.9.6 1.4.9zm10.5 13.1c1 .4 2 .6 3.1.7-.4.4-.7.8-.8 1.3-.9-.2-1.9-.6-3-.9-1-.4-2-.9-2.8-1.6-.5.4-1.1.9-1.9 1.3s-1.9.9-3.3 1.2c-.1-.3-.5-.8-1.1-1.3 1 0 2.1-.3 3.2-.8 1.2-.5 1.9-1 2.3-1.7h-3.2c-.4 0-1 0-2 .1v-1.2c1 0 1.7.1 2 .1h3.3v-1h-2.3c-.2 0-.9 0-2 .1v-1.2c1.2 0 1.9.1 2 .1h2.3v-.8h-4.1c0-.7.1-1.2.1-1.6 0-.5 0-1.1-.1-1.8h4.1v-.7h-2.5c0-.6.1-1.1.1-1.6v-.6h-.5c-.4 0-1 0-1.8.1v-1.3c1.2 0 1.9.1 2.1.1h.2c0-.3 0-.8-.1-1.4h1.4c0 .6-.1 1-.1 1.4h3.4c0-.4 0-.8-.1-1.3h1.5c0 .4-.1.9-.1 1.3.7 0 1.5 0 2.5-.1v1.2c-1 0-1.8-.1-2.5-.1v.6c0 .3 0 .8.1 1.5h-2.5v.8h4.1c0 .7-.1 1.3-.1 1.8s0 1 .1 1.5h-4.1v.8h1.4c.8 0 1.8 0 2.9-.1v1.2c-1 0-1.9-.1-2.8-.1h-1.5v1h3.2c.3 0 1 0 2.1-.1v1.2c-1.1 0-1.8-.1-2.1-.1h-3.4l-.1.1c1.4 1 2.4 1.5 3.4 1.9zm-4.1-6.7v-1.3h-2.7v1.3zm2.2-4.1v-1.1h-3.4v1.1zm1.9 4.1v-1.3h-2.8v1.3z"/><path d="m37 6.7v2.3 5.4c1 0 1.8 0 2.2-.1v1.3c-.6 0-1.5-.1-2.5-.1h-11.9c-.7 0-1.3 0-1.8.1v-1.3c.5 0 1.1.1 2 .1v-5.2c0-1 0-1.8-.1-2.5h3.7c0-1.3 0-2.1-.1-2.5h1.5c0 .4-.1 1.3-.1 2.5h2.2c0-1.2 0-2.1-.1-2.6h1.5c0 .4-.1 1.3-.1 2.6zm-12.3 13.7c-.3-.4-.7-.8-1.1-1.1 1.1-.4 2.1-.9 2.9-1.3.8-.5 1.5-1 2.1-1.6.4.4.9.8 1.3 1.1-2.5 1.4-4.2 2.4-5.2 2.9zm3.9-10.1v-2.4h-2.2v2.4zm0 4.1v-2.9h-2.2v2.9zm3.5-4.1v-2.4h-2.2v2.4zm0 4.1v-2.9h-2.2v2.9zm.4 2.9 1-1.1c.6.3 1.4.7 2.5 1.3s2 1.1 2.7 1.5c-.4.4-.8.8-1.1 1.3-.8-.8-2.5-1.7-5.1-3zm3.1-7v-2.4h-2.1v2.4zm0 4.1v-2.9h-2.1v2.9z"/></g></svg>