<svg enable-background="new 0 0 400 400" viewBox="0 0 400 400" xmlns="http://www.w3.org/2000/svg"><path d="m285.72 190.66c-8.17 0-15.41-.6-22.51.13-14.45 1.48-28.32-1.76-42.03-5.1-5.18-1.26-10.04-5.52-14.09-9.4-11.41-10.92-18.02-24.19-17.47-40.43.2-5.88 2.06-8.2 7.87-9.49 2.89-.64 5.74-1.46 8.66-1.93.91-.15 2.21.31 2.89.96 3.99 3.81 7.93 7.67 11.71 11.69 2.18 2.32 4.55 4.11 7.75 4.5 5.99.73 10.67 3.8 14.62 8.13 3.63 3.97 8.05 6.18 13.31 7.39 7.41 1.71 14.68 4.01 22.33 6.15.69-2.08 1.34-4.02 2.08-6.25-3-1.45-5.77-2.99-8.68-4.16-6.73-2.7-12.28-7.03-17.36-12.07-3.69-3.66-7.61-7.12-10.97-11.07-5.17-6.08-11.22-10.95-18.32-14.43-4.39-2.15-6.26-5.69-7.24-10.1-.6-2.68-1.26-5.36-1.99-8.01-.47-1.72-1.44-2.21-3.35-1.61-4.96 1.58-9.76 3.3-14.08 6.4-5.15 3.7-10.59 6.99-16.01 10.53.75 1.21 1.4 2.27 2.04 3.31-11.84 13.79-23.5 27.64-35.49 41.19-4.91 5.54-10.89 9.93-18.71 10.37-2.19.12-4.62-.47-6.64-1.38-5.26-2.38-9.48-6.07-13.42-10.38-3.51-3.83-8.25-6.52-12.2-9.99-1.55-1.36-3.42-3.47-3.43-5.26-.06-5.87.61-11.76 1.16-17.63.07-.77.93-1.7 1.67-2.13 5.84-3.37 11.43-7.52 17.69-9.75 13.02-4.63 24.99-10.72 35.61-19.67 16.67-14.06 35.23-25.32 54.22-35.95 6.25-3.5 12.13-7.76 17.78-12.18 7.09-5.54 14.58-8.59 23.79-7.44 9.26 1.16 18.61 1.71 26.92 6.58 1.26.74 2.55 1.59 3.49 2.68 2.62 3.01 5.43 5.54 9.53 6.4 1.07.22 2.07 1.37 2.84 2.31 8.85 10.78 15.02 23.07 19.59 36.13 9.15 26.19 14.59 53.11 14.42 80.94-.04 7.36-1.56 14.72-2.3 22.08-.32 3.22-.82 6.52-.47 9.7.34 3.11-.2 5.76-1.36 8.57-7.13 17.33-14.13 34.71-21.23 52.05-.54 1.32-1.5 2.51-2.4 3.65-4.65 5.89-9.48 11.64-13.96 17.64-3.22 4.32-5.83 9.11-9.02 13.46-4.92 6.71-10.69 12.39-18.24 16.41-11.78 6.27-23.28 13.06-34.78 19.84-5.25 3.09-10.59 5.78-16.59 6.94-9.57 1.85-17.55 7.2-26 11.54-1.79.92-4 1.69-5.94 1.55-11.64-.79-22.23 3.87-33.28 6.1-3 .61-5.94 1.46-8.96 2.22-.72-.92-1.37-1.74-2-2.54-10.95 6.15-23.01 6.37-34.9 6.94-5.78.28-11.62-.45-17.42-.83-.82-.05-1.59-.77-2.38-1.18.46-.88.73-1.94 1.41-2.6 1.81-1.78 3.75-3.43 5.72-5.05.61-.5 1.49-1.07 2.19-1.01 12.96 1.21 24.75-3.95 36.98-6.7 22.08-4.96 42.55-14.08 62.49-24.48 2.93-1.53 5.19-4.31 7.92-6.29 2.01-1.46 4.12-3.18 6.44-3.76 10.57-2.62 19.27-8.07 27.12-15.56 8.43-8.04 17.56-15.35 26.31-23.06 1.22-1.08 2.29-2.51 2.96-3.99 5.77-12.61 11.39-25.3 17.16-37.91 4.09-8.94 8.75-17.64 12.41-26.75 2.12-5.28 2.78-11.18 4.14-16.96zm-48.19-110.98c1.08.81 1.88 1.46 2.73 2.05 6.53 4.52 13.11 8.97 19.56 13.6 1.47 1.06 2.78 2.6 3.63 4.2 2.81 5.29 5.38 10.71 8.03 16.05 6.93-2.69 7.61-3.83 6.51-10.65-.15-.94-.32-1.91-.7-2.77-5.89-13.43-15.73-22.59-29.69-27.17-1.16-.38-2.83-.27-3.89.3-2.1 1.14-3.95 2.77-6.18 4.39z" fill="#010103"/><g fill="#fcfbfa"><path d="m6.8 9.5c.6.3 1.3.7 2.1 1.1-.4.4-.7.8-.9 1.2-.7-.4-1.3-.8-1.8-1.1s-1.1-.6-1.6-.8c.2-.4.5-.8.7-1.2.4.2.8.5 1.5.8zm.9 6.9c-.3.6-.5 1.1-.7 1.7s-.4 1.1-.6 1.7c-.6-.4-1.1-.7-1.6-1 .7-1 1.2-1.8 1.5-2.4.3-.5.6-1.1.8-1.7.3-.6.5-1.2.8-1.8.3.3.8.6 1.3.8-.7 1.3-1.2 2.2-1.5 2.7zm.1-11c.4.3 1 .7 1.7 1.1-.5.2-.8.6-1.1 1.1-.5-.6-1-1-1.4-1.2s-.9-.6-1.5-.8c.2-.4.5-.7.9-1.1.5.3.9.6 1.4.9zm10.5 13.1c1 .4 2 .6 3.1.7-.4.4-.7.8-.8 1.3-.9-.2-1.9-.6-3-.9-1-.4-2-.9-2.8-1.6-.5.4-1.1.9-1.9 1.3s-1.9.9-3.3 1.2c-.1-.3-.5-.8-1.1-1.3 1 0 2.1-.3 3.2-.8 1.2-.5 1.9-1 2.3-1.7h-3.2c-.4 0-1 0-2 .1v-1.2c1 0 1.7.1 2 .1h3.3v-1h-2.3c-.2 0-.9 0-2 .1v-1.2c1.2 0 1.9.1 2 .1h2.3v-.8h-4.1c0-.7.1-1.2.1-1.6 0-.5 0-1.1-.1-1.8h4.1v-.7h-2.5c0-.6.1-1.1.1-1.6v-.6h-.5c-.4 0-1 0-1.8.1v-1.3c1.2 0 1.9.1 2.1.1h.2c0-.3 0-.8-.1-1.4h1.4c0 .6-.1 1-.1 1.4h3.4c0-.4 0-.8-.1-1.3h1.5c0 .4-.1.9-.1 1.3.7 0 1.5 0 2.5-.1v1.2c-1 0-1.8-.1-2.5-.1v.6c0 .3 0 .8.1 1.5h-2.5v.8h4.1c0 .7-.1 1.3-.1 1.8s0 1 .1 1.5h-4.1v.8h1.4c.8 0 1.8 0 2.9-.1v1.2c-1 0-1.9-.1-2.8-.1h-1.5v1h3.2c.3 0 1 0 2.1-.1v1.2c-1.1 0-1.8-.1-2.1-.1h-3.4l-.1.1c1.4 1 2.4 1.5 3.4 1.9zm-4.1-6.7v-1.3h-2.7v1.3zm2.2-4.1v-1.1h-3.4v1.1zm1.9 4.1v-1.3h-2.8v1.3z"/><path d="m37 6.7v2.3 5.4c1 0 1.8 0 2.2-.1v1.3c-.6 0-1.5-.1-2.5-.1h-11.9c-.7 0-1.3 0-1.8.1v-1.3c.5 0 1.1.1 2 .1v-5.2c0-1 0-1.8-.1-2.5h3.7c0-1.3 0-2.1-.1-2.5h1.5c0 .4-.1 1.3-.1 2.5h2.2c0-1.2 0-2.1-.1-2.6h1.5c0 .4-.1 1.3-.1 2.6zm-12.3 13.7c-.3-.4-.7-.8-1.1-1.1 1.1-.4 2.1-.9 2.9-1.3.8-.5 1.5-1 2.1-1.6.4.4.9.8 1.3 1.1-2.5 1.4-4.2 2.4-5.2 2.9zm3.9-10.1v-2.4h-2.2v2.4zm0 4.1v-2.9h-2.2v2.9zm3.5-4.1v-2.4h-2.2v2.4zm0 4.1v-2.9h-2.2v2.9zm.4 2.9 1-1.1c.6.3 1.4.7 2.5 1.3s2 1.1 2.7 1.5c-.4.4-.8.8-1.1 1.3-.8-.8-2.5-1.7-5.1-3zm3.1-7v-2.4h-2.1v2.4zm0 4.1v-2.9h-2.1v2.9z"/></g></svg>