<svg enable-background="new 0 0 400 400" viewBox="0 0 400 400" xmlns="http://www.w3.org/2000/svg"><path d="m48.41 79.47c4.82 1.27 7.36 3.62 8.16 8.77 3.35 21.56 6.86 43.11 11.02 64.52 1.83 9.41 5.14 18.55 8.12 27.7 6.01 18.41 11.54 37.01 18.55 55.03 13.43 34.51 38.1 58.91 71.24 74.77 14.58 6.98 30.22 8.71 46.24 6.49.92-.13 1.84-.43 2.71-.79 11.42-4.76 22.86-9.48 34.23-14.38 2.57-1.11 5.09-2.57 7.23-4.36 4.39-3.66 8.48-7.69 12.76-11.49 6.71-5.96 8.61-13.82 9.09-22.31.12-2.18-1.41-2.03-2.73-2.15-7.9-.73-15.71.15-23.28 2.27-14.57 4.09-29.03 8.58-43.56 12.8-1.64.48-3.48.35-5.23.37-3.57.03-7.16-.31-10.69 0-6.36.55-11.34-2.93-12.24-9.28-.85-5.99.75-11.57 3.67-16.76.49-.87 1.76-1.45 2.78-1.86 37.87-15.34 75.74-30.68 113.67-45.9 2.33-.93 2.94-2.07 2.8-4.4-.5-8.68-.74-17.37-1.29-26.05-.07-1.15-1.12-2.75-2.16-3.26-8.49-4.18-17.25-5.15-26.02-.94-9.82 4.71-20.31 6.93-30.76 9.68-12.2 3.21-23.91 8.43-35.67 13.17-9.12 3.67-17.79 8.53-27.06 11.72-5.21 1.79-11.22 1.33-16.89 1.71-1.94.13-3.26-.87-3.91-2.94-1.11-3.53-2.51-6.97-3.9-10.74 1.21-.59 2.39-1.21 3.61-1.75 43.67-19.57 87.37-39.06 130.98-58.77 6.86-3.1 11.05-9.43 15.39-15.3 6.36-8.6 8.99-18.85 12.24-28.8 3.91-11.96 7.64-23.98 11.62-35.92 2.2-6.61 5.98-12.11 12.39-15.55 5.37 3.19 7.39 8.37 7 14.05-.51 7.47-1.61 14.95-3.18 22.28-3.83 17.89-5.01 36.08-6.88 54.21-.46 4.49-1.13 9.08-2.62 13.31-2.54 7.18-2.3 14.62-2.89 21.96-2.13 26.31-3.98 52.64-5.96 78.96-.09 1.25-.42 2.51-.79 3.71-1.58 5.16-3.44 10.25-4.8 15.47-3.03 11.68-7.59 22.74-14.18 32.78-4.87 7.42-10.7 14.21-16.15 21.24-5.92 7.62-11.57 15.48-17.92 22.72-9.94 11.34-22.2 19.71-36.32 24.97-28.47 10.62-56.12 7.1-82.63-6.48-8.72-4.46-16.54-10.69-24.7-16.21-.98-.67-1.63-1.91-2.28-2.98-15.17-25.12-30.57-50.11-45.35-75.46-7.85-13.46-13.28-28.12-18.22-42.9-10.03-29.99-15.27-60.76-15.27-92.4 0-13.68 0-27.36 0-41.04.03-1.12.03-2.25.03-3.49z" fill="#010103"/><g fill="#fcfbfa"><path d="m6.8 9.5c.6.3 1.3.7 2.1 1.1-.4.4-.7.8-.9 1.2-.7-.4-1.3-.8-1.8-1.1s-1.1-.6-1.6-.8c.2-.4.5-.8.7-1.2.4.2.8.5 1.5.8zm.9 6.9c-.3.6-.5 1.1-.7 1.7s-.4 1.1-.6 1.7c-.6-.4-1.1-.7-1.6-1 .7-1 1.2-1.8 1.5-2.4.3-.5.6-1.1.8-1.7.3-.6.5-1.2.8-1.8.3.3.8.6 1.3.8-.7 1.3-1.2 2.2-1.5 2.7zm.1-11c.4.3 1 .7 1.7 1.1-.5.2-.8.6-1.1 1.1-.5-.6-1-1-1.4-1.2s-.9-.6-1.5-.8c.2-.4.5-.7.9-1.1.5.3.9.6 1.4.9zm10.5 13.1c1 .4 2 .6 3.1.7-.4.4-.7.8-.8 1.3-.9-.2-1.9-.6-3-.9-1-.4-2-.9-2.8-1.6-.5.4-1.1.9-1.9 1.3s-1.9.9-3.3 1.2c-.1-.3-.5-.8-1.1-1.3 1 0 2.1-.3 3.2-.8 1.2-.5 1.9-1 2.3-1.7h-3.2c-.4 0-1 0-2 .1v-1.2c1 0 1.7.1 2 .1h3.3v-1h-2.3c-.2 0-.9 0-2 .1v-1.2c1.2 0 1.9.1 2 .1h2.3v-.8h-4.1c0-.7.1-1.2.1-1.6 0-.5 0-1.1-.1-1.8h4.1v-.7h-2.5c0-.6.1-1.1.1-1.6v-.6h-.5c-.4 0-1 0-1.8.1v-1.3c1.2 0 1.9.1 2.1.1h.2c0-.3 0-.8-.1-1.4h1.4c0 .6-.1 1-.1 1.4h3.4c0-.4 0-.8-.1-1.3h1.5c0 .4-.1.9-.1 1.3.7 0 1.5 0 2.5-.1v1.2c-1 0-1.8-.1-2.5-.1v.6c0 .3 0 .8.1 1.5h-2.5v.8h4.1c0 .7-.1 1.3-.1 1.8s0 1 .1 1.5h-4.1v.8h1.4c.8 0 1.8 0 2.9-.1v1.2c-1 0-1.9-.1-2.8-.1h-1.5v1h3.2c.3 0 1 0 2.1-.1v1.2c-1.1 0-1.8-.1-2.1-.1h-3.4l-.1.1c1.4 1 2.4 1.5 3.4 1.9zm-4.1-6.7v-1.3h-2.7v1.3zm2.2-4.1v-1.1h-3.4v1.1zm1.9 4.1v-1.3h-2.8v1.3z"/><path d="m37 6.7v2.3 5.4c1 0 1.8 0 2.2-.1v1.3c-.6 0-1.5-.1-2.5-.1h-11.9c-.7 0-1.3 0-1.8.1v-1.3c.5 0 1.1.1 2 .1v-5.2c0-1 0-1.8-.1-2.5h3.7c0-1.3 0-2.1-.1-2.5h1.5c0 .4-.1 1.3-.1 2.5h2.2c0-1.2 0-2.1-.1-2.6h1.5c0 .4-.1 1.3-.1 2.6zm-12.3 13.7c-.3-.4-.7-.8-1.1-1.1 1.1-.4 2.1-.9 2.9-1.3.8-.5 1.5-1 2.1-1.6.4.4.9.8 1.3 1.1-2.5 1.4-4.2 2.4-5.2 2.9zm3.9-10.1v-2.4h-2.2v2.4zm0 4.1v-2.9h-2.2v2.9zm3.5-4.1v-2.4h-2.2v2.4zm0 4.1v-2.9h-2.2v2.9zm.4 2.9 1-1.1c.6.3 1.4.7 2.5 1.3s2 1.1 2.7 1.5c-.4.4-.8.8-1.1 1.3-.8-.8-2.5-1.7-5.1-3zm3.1-7v-2.4h-2.1v2.4zm0 4.1v-2.9h-2.1v2.9z"/></g></svg>