<svg enable-background="new 0 0 400 400" viewBox="0 0 400 400" xmlns="http://www.w3.org/2000/svg"><path d="m336.43 117.11c-2.78-.4-5.25-.4-7.47-1.14-5.29-1.78-10.19-4.12-14.79-7.63-16.38-12.51-35.14-18.9-55.76-19.36-10.37-.23-10.41 0-13.17 9.85-4.04 14.37-7.99 28.76-12.09 43.12-.59 2.08-.2 3.17 1.64 4.37 10.38 6.78 20.66 13.71 30.98 20.59 3.07 2.05 5.9 1.43 7.9-1.82 5.51-8.93 10.97-17.89 16.47-26.82.55-.89 1.08-2.13 1.91-2.45 4.87-1.89 5.89-6.22 7.1-10.51.52-1.83 1.39-3.59 1.7-5.45.51-3.07 2.53-3.61 4.87-2.89 5.68 1.73 10.76 4.48 13.86 9.9 1.47 2.56.41 7.76-1.9 10.65-7.51 9.42-16.36 17.48-25.66 25.05-5.53 4.5-8.18 10.17-7.48 17.27.13 1.3.49 2.87 1.34 3.75 7.62 7.91 10.03 17.96 11.9 28.25.3 1.67.73 3.34.76 5.02.02 1.35-.19 2.86-.81 4.03-1.47 2.76-.76 4.36 2.4 4.65 3.17.29 6.37.32 9.49.86 3.6.63 7.28 1.31 10.66 2.64 11.69 4.59 23.26 9.47 35.31 14.41v9.26c-7.51-.79-14.93-1.1-22.16-2.44-9.43-1.74-18.54.12-27.79 1.05-14.34 1.45-28.7 2.61-42.68 6.4-1.82.49-3.78.61-5.68.61-9 .01-16.84 3.85-24.71 7.46-20.2 9.28-40.33 18.74-60.46 28.17-1.22.57-2.32 1.47-3.35 2.36-15.31 13.29-31.27 25.72-48.5 36.46-11.91 7.42-24.57 13.3-37.85 17.82-1.23.42-2.72.38-4.03.17-6.9-1.1-13.8-2.26-20.66-3.55-1.59-.3-3.2-1.01-4.58-1.88-2.86-1.81-5.66-3.75-8.32-5.84-1.47-1.15-2.92-2.54-3.88-4.12-2.26-3.71-1.31-5.89 2.9-6.32 4.58-.47 8.43-2.32 12.26-4.71 15.18-9.49 30.56-18.66 45.68-28.26 5.8-3.68 11.03-8.24 16.62-12.27 1.76-1.27 3.75-2.33 5.78-3.13 8.46-3.33 16.02-7.84 22.06-14.84 1.55-1.8 4.34-2.48 6.36-3.95.91-.66 1.9-1.98 1.91-3.01.13-11.56.04-23.12.13-34.68.02-1.83-.62-2.85-2.24-3.23-2.55-.61-5.2-1.72-7.69-1.46-7.66.78-14.86-.79-22.23-2.55-14.28-3.41-27.66-8.5-39.63-17.2-4.76-3.46-10.41-5.27-16.29-5.81-1.67-.15-3.76.45-5.12 1.44-4.69 3.41-9.15 7.14-13.8 10.84-1.86-2.46-2.31-4.76-.88-7.26 2.09-3.65 3.93-7.35 7.46-10.11 2.69-2.1 5.27-4.89 6.73-7.93 7.36-15.29 18.77-27.26 30.52-39.12 17.91-18.07 35.48-36.5 53.19-54.77.52-.53 1.09-1.04 1.47-1.66 6.02-9.61 12.19-19.13 17.93-28.9 2.06-3.5 2.97-7.67 4.58-11.46 1.15-2.71 2.58-5.31 3.92-7.94 1.1-2.16 2.8-2.24 4.39-.8 1.45 1.32 2.87 2.86 3.73 4.59 1.27 2.54 2.23 5.28 2.97 8.02 1.44 5.36 5.02 8.43 10.07 10.07 16.09 5.24 32.47 8.84 49.51 8.89 11.7.03 23.25 1.29 34.6 4.28 1.56.41 3.3.1 4.95.21 1.95.13 3.94.13 5.82.59 10.52 2.58 19.76 7.49 27.3 15.37.73.77 1.54 1.49 2.14 2.35 6 8.56 11.95 17.16 18.39 26.45zm-185.48 71.82c12.4-1.05 21.97-4.46 29.08-10.95.81-.74 1.66-1.75 1.87-2.77.85-4.15 1.52-8.33 2.08-12.53.11-.8-.39-2.16-1.02-2.5-13.77-7.43-27.61-14.74-41.42-22.11-1.81-.97-3.23-.65-4.96.37-14.84 8.83-27.91 19.91-40.63 31.49-2.77 2.53-3.07 5.63-3.65 8.78-.11.59.76 1.72 1.44 2.03 3.35 1.53 6.7 3.21 10.22 4.2 10.1 2.85 20.43.95 30.66 1.12 2.38.04 4.78.49 7.13.92 3.08.56 6.13 1.29 9.2 1.95zm52.79-107.5c-1.96.19-4.32-.26-5.82.67-9.25 5.75-18.98 11.01-27.23 17.99-9.28 7.85-8.98 16.36.54 23.49 4.16 3.11 8.27 6.31 12.66 9.07 2.62 1.65 5.64 2.89 8.65 3.62 4 .97 6.52-.61 8.03-4.54 3.34-8.69 6.87-17.33 9.67-26.2 1.47-4.66 2.1-9.75 2.13-14.66.03-6.83-2.25-8.81-8.63-9.44zm-12.94 163.29c8.81.31 16.18-2.95 23.19-7.38 11.08-7 17.79-18.05 25.54-28.05 1.52-1.96 1.69-6.25.62-8.61-1.31-2.89-4.92-1.87-7.75-1.08-8.97 2.5-17.87 5.38-26.97 7.27-7.11 1.48-11.92 4.95-16.05 10.9-4.07 5.87-6.49 12.12-7.61 18.91-.79 4.77.55 8.2 6.44 8.05.96-.03 1.91-.01 2.59-.01z" fill="#010103"/><path d="m165.98 366.16c-3.07-.14-6.14-.26-9.2-.43-2.44-.13-7.78-5.74-8.39-8.77-.6-2.95 1.23-6.3 4.27-8.09 15.49-9.08 32.57-14.13 49.52-19.49 5.65-1.79 11.26-3.73 16.93-5.45 3.59-1.09 6.95-2.44 9.63-5.23.74-.77 1.98-1.19 3.07-1.49 14.28-3.98 28.54-8 42.86-11.82 4.82-1.29 9.55-.24 13.69 2.44 5.02 3.24 5.32 12.6.76 16.5-5.42 4.64-11.62 7.93-18.53 9.41-24.65 5.28-47.52 15.25-69.99 26.24-6.17 3.02-12.77 2.65-19.2 3.72-1.73.29-3.62-.08-4.59 2.07-.2.44-1.48.52-2.26.54-2.86.06-5.72.02-8.58.02.01-.05.01-.11.01-.17z" fill="#010103"/><g fill="#fcfbfa"><path d="m6.8 9.5c.6.3 1.3.7 2.1 1.1-.4.4-.7.8-.9 1.2-.7-.4-1.3-.8-1.8-1.1s-1.1-.6-1.6-.8c.2-.4.5-.8.7-1.2.4.2.8.5 1.5.8zm.9 6.9c-.3.6-.5 1.1-.7 1.7s-.4 1.1-.6 1.7c-.6-.4-1.1-.7-1.6-1 .7-1 1.2-1.8 1.5-2.4.3-.5.6-1.1.8-1.7.3-.6.5-1.2.8-1.8.3.3.8.6 1.3.8-.7 1.3-1.2 2.2-1.5 2.7zm.1-11c.4.3 1 .7 1.7 1.1-.5.2-.8.6-1.1 1.1-.5-.6-1-1-1.4-1.2s-.9-.6-1.5-.8c.2-.4.5-.7.9-1.1.5.3.9.6 1.4.9zm10.5 13.1c1 .4 2 .6 3.1.7-.4.4-.7.8-.8 1.3-.9-.2-1.9-.6-3-.9-1-.4-2-.9-2.8-1.6-.5.4-1.1.9-1.9 1.3s-1.9.9-3.3 1.2c-.1-.3-.5-.8-1.1-1.3 1 0 2.1-.3 3.2-.8 1.2-.5 1.9-1 2.3-1.7h-3.2c-.4 0-1 0-2 .1v-1.2c1 0 1.7.1 2 .1h3.3v-1h-2.3c-.2 0-.9 0-2 .1v-1.2c1.2 0 1.9.1 2 .1h2.3v-.8h-4.1c0-.7.1-1.2.1-1.6 0-.5 0-1.1-.1-1.8h4.1v-.7h-2.5c0-.6.1-1.1.1-1.6v-.6h-.5c-.4 0-1 0-1.8.1v-1.3c1.2 0 1.9.1 2.1.1h.2c0-.3 0-.8-.1-1.4h1.4c0 .6-.1 1-.1 1.4h3.4c0-.4 0-.8-.1-1.3h1.5c0 .4-.1.9-.1 1.3.7 0 1.5 0 2.5-.1v1.2c-1 0-1.8-.1-2.5-.1v.6c0 .3 0 .8.1 1.5h-2.5v.8h4.1c0 .7-.1 1.3-.1 1.8s0 1 .1 1.5h-4.1v.8h1.4c.8 0 1.8 0 2.9-.1v1.2c-1 0-1.9-.1-2.8-.1h-1.5v1h3.2c.3 0 1 0 2.1-.1v1.2c-1.1 0-1.8-.1-2.1-.1h-3.4l-.1.1c1.4 1 2.4 1.5 3.4 1.9zm-4.1-6.7v-1.3h-2.7v1.3zm2.2-4.1v-1.1h-3.4v1.1zm1.9 4.1v-1.3h-2.8v1.3z"/><path d="m37 6.7v2.3 5.4c1 0 1.8 0 2.2-.1v1.3c-.6 0-1.5-.1-2.5-.1h-11.9c-.7 0-1.3 0-1.8.1v-1.3c.5 0 1.1.1 2 .1v-5.2c0-1 0-1.8-.1-2.5h3.7c0-1.3 0-2.1-.1-2.5h1.5c0 .4-.1 1.3-.1 2.5h2.2c0-1.2 0-2.1-.1-2.6h1.5c0 .4-.1 1.3-.1 2.6zm-12.3 13.7c-.3-.4-.7-.8-1.1-1.1 1.1-.4 2.1-.9 2.9-1.3.8-.5 1.5-1 2.1-1.6.4.4.9.8 1.3 1.1-2.5 1.4-4.2 2.4-5.2 2.9zm3.9-10.1v-2.4h-2.2v2.4zm0 4.1v-2.9h-2.2v2.9zm3.5-4.1v-2.4h-2.2v2.4zm0 4.1v-2.9h-2.2v2.9zm.4 2.9 1-1.1c.6.3 1.4.7 2.5 1.3s2 1.1 2.7 1.5c-.4.4-.8.8-1.1 1.3-.8-.8-2.5-1.7-5.1-3zm3.1-7v-2.4h-2.1v2.4zm0 4.1v-2.9h-2.1v2.9z"/></g></svg>