<svg enable-background="new 0 0 400 400" viewBox="0 0 400 400" xmlns="http://www.w3.org/2000/svg"><path d="m2.6 9.9.8-1c.9.7 1.9 1.4 2.9 2.3l-.9 1.1c-1.1-1-2-1.8-2.8-2.4zm.5 10.6c.9-2.1 1.6-4.3 2.3-6.7.4.2.8.4 1.3.6-.7 2.1-1.5 4.3-2.2 6.6zm.3-15.2.9-.9c1 .8 2 1.6 2.8 2.4l-1 1c-.9-.9-1.8-1.7-2.7-2.5zm12.6-1.2h1.2v1.4h2.7v1.1h-2.7v2.7h-1.2v-.6h-1.8v1.3h4.9v3.8h-1.2v-.5h-3.7c0 .4-.1.9-.1 1.2h5.1v1h-5.2c0 .5-.1.9-.2 1.2h6v1h-5.2c1.1 1.3 2.9 2 5.5 2.2-.4.4-.7.8-.9 1.3-2.9-.5-4.8-1.6-5.7-3.5h-.1c-.8 1.7-2.7 2.9-5.9 3.6-.2-.4-.6-.8-.9-1.1 2.8-.6 4.6-1.4 5.4-2.5h-4.8v-1h5.3c.1-.3.2-.7.2-1.2h-4.9v-1h5c0-.4 0-.8.1-1.2h-3.6v.5h-1.2v-3.8h4.9v-1.3h-1.8v.5h-1.2v-2.7h-2.7v-1h2.7v-1.4h1.2v1.4h4.8zm-6.7 8.3h3.6c0-.4 0-.9 0-1.4h-3.6zm1.9-4.6h4.8v-1.3h-4.7v1.3zm6.7 3.2h-3.7v1.4h3.7z" fill="#fcfafa"/><path d="m8.7 22.1h1.3v2.2h2.8v-2.2h1.3v2.2h4.1v9.1h1.7v1.3h-17v-1.3h1.7v-9.1h4.1zm.3 13.1.7 1.2c-1.8.9-3.8 1.9-6 2.9-.2-.4-.5-.8-.8-1.3 2.3-1 4.4-1.9 6.1-2.8zm-3.1-6.4h2.8v-3.2h-2.8zm0 4.6h2.8v-3.3h-2.8zm4.1-4.6h2.8v-3.2h-2.8zm0 4.6h2.8v-3.3h-2.8zm3.6 1.9c2.1.9 4.1 1.8 6.1 2.7l-.7 1.4c-2.2-1.1-4.2-2-6.1-2.9zm3.2-9.7h-2.8v3.2h2.8zm-2.7 7.8h2.8v-3.3h-2.8z" fill="#fcfafa"/><path d="m201.66 352.56c-4.1-3.07-3.88-7.32-.98-11.59 7.24-10.65 11.9-22.38 15.86-34.49.78-2.38.1-3.67-1.97-4.47-9.77-3.78-16.42-.41-18.68 10.99-1.25 6.3-.91 13.17-3.29 18.96-6.56 15.99-17.52 28.17-34.45 33.8-2.84.95-6.07 1.19-9.07 1.02-2.28-.13-4.74-1.05-6.68-2.31-4.7-3.07-8.92-6.9-13.73-9.75-5.93-3.52-6.79-8.66-6.12-14.69.15-1.37.35-2.75.32-4.12-.18-7.89-3.32-12.43-11.35-12.69-3.74-.12-7.52.84-11.27 1.36-.72.1-1.4.46-2.11.69-8.48 2.68-12.52-.35-11.81-9.23.22-2.78 1.12-5.72 2.53-8.09.73-1.22 3.23-1.59 5.01-1.92 1.18-.22 2.6.1 3.73.58 6.29 2.7 12.36 1.82 18.41-.81 4.83-2.1 9.79-3.95 14.53-6.22 1.13-.54 2.13-2.25 2.38-3.57.74-3.84.9-7.8 1.61-11.65.76-4.14 1.81-8.24 2.89-12.32 2.08-7.93-.29-15.53-1.34-23.27-.79-5.83-.88-11.76-1.16-17.65-.22-4.75.03-9.53-.43-14.25-.69-6.99 1.05-13.01 5.02-18.85 5.29-7.79 11.41-14.36 19.35-19.71 11.6-7.83 22.21-16.94 30.77-28.3 2.75-3.64 6.8-6.33 10.42-9.27 5.41-4.4 5.46-12.98-.03-17.28-1.34-1.04-2.84-1.94-3.97-3.18-3.6-3.97-7.79-4.61-12.87-3.33-5.12 1.29-10.42 1.9-15.66 2.68-2.01.3-3.28 1.19-4.59 2.8-1.31 1.6-3.32 3.04-5.3 3.58-3.92 1.09-6.38-.42-7.89-4.18-3.58-8.88-3.98-17.96-1.1-27.07.63-1.99 1.97-3.96 3.47-5.44 3.71-3.66 5.65-7.85 5.26-13.09-.22-2.96-.2-5.94-.51-8.89-.81-7.65 1.46-14.65 4.67-22.21 4.13.95 8.49 2 12.87 2.94 2.45.53 4.94 1.22 7.41 1.22 5.14.01 8.98 1.51 12.53 5.76 5.6 6.7 9.07 13.8 8.37 22.55-.66 8.35 2.9 14.84 8.58 20.34 5.62 5.45 11.5 10.64 17.35 15.84 2.13 1.9 3.89 2.19 6.19-.6 2.57-3.12 6.05-5.6 9.41-7.95 5.37-3.74 10.08-7.96 13.35-13.76 5.18-9.19 11.59-17.5 19.28-24.72 4.72-4.43 4.95-9.94 3.97-15.55-1.13-6.46 1.15-11.2 6.12-14.93.75-.56 2.22-.83 3.07-.5 5.72 2.25 10.09 5.61 12.06 12.04 1.32 4.33 4.31 8.15 6.41 12.26.67 1.32 1.3 2.89 1.24 4.32-.21 4.76-.65 9.52-1.23 14.25-.15 1.21-.88 2.63-1.8 3.43-15.78 13.69-31.52 27.43-47.54 40.83-4.51 3.78-9.88 6.55-14.88 9.74-4.5 2.87-6.76 6.96-6.51 12.26.05.96 1 2.37 1.87 2.71 7.48 2.95 14.93 6.11 22.63 8.34 3.48 1.01 7.57.4 11.31-.07 3.88-.49 7.01.13 9.52 3.3 2.26 2.86 5.43 4.35 8.89 5.13 2.1.47 3.18 1.65 3.94 3.61 1.73 4.43 3.81 8.74 5.51 13.18.47 1.23.39 2.83.11 4.17-1.86 9-6.7 15.72-15.21 19.62-1.12.51-2.06 1.47-2.99 2.33-7.08 6.52-13.94 13.29-21.26 19.54-6.11 5.22-11.61 10.86-15.8 17.7-.95 1.55-1.64 3.46-1.8 5.26-.84 9.29-1.46 18.6-2.18 27.9-.07.95-.09 1.94-.39 2.83-3.38 10.12-6.54 20.32-10.31 30.29-3.26 8.6-8.79 15.84-14.94 22.7-4.93 5.51-9.15 11.66-13.7 17.52-.36.52-.78.98-1.32 1.6zm4.55-121.6c.07-.29.13-.58.2-.87.64 0 1.27.03 1.91 0 6.16-.29 12.71-1.34 16.8-5.62 2.82-2.94 2.79-8.62 3.99-13.08.19-.71.31-1.48.24-2.21-.34-3.23-.61-6.48-1.22-9.67-.52-2.71-2.24-3.66-5.13-2.99-4.76 1.11-8.86 3.28-12.68 6.27-5.85 4.58-12.88 5.13-18.39 1.89-2.09-1.23-2.59-2.76-2.1-4.99 1.12-5.1 4.32-8.61 8.48-11.43 5.52-3.74 10.81-7.89 16.61-11.14 6.07-3.41 4.59-15.9-1.52-18.62-1.07-.48-2.95-.46-3.84.19-4.55 3.28-8.99 6.74-13.3 10.32-11.32 9.4-22.47 19.01-33.88 28.3-4.81 3.91-5.73 11.07-1.32 15.49 5.57 5.59 11.51 10.47 19.62 12.14 8.55 1.75 17.02 3.99 25.53 6.02zm-3.05 55.48c7.52.73 13.95-.77 17.22-8.54.2-.47.58-.9.94-1.27 4.15-4.27 6.55-9.34 6.6-15.3.02-2.19-.33-4.62-1.3-6.55-1.66-3.33-4.97-5.08-8.49-5.5-5.66-.66-11.4-.51-17.07-1.1-7.45-.78-14.94-1.57-22.27-3.05-5.91-1.19-11.26-.04-16.54 2.12-.95.39-1.83 2.22-1.86 3.41-.09 4.13.24 8.26.34 12.39.21 8.42 1.33 16.84-3.04 24.86-2.14 3.93 2.53 9.4 6.99 8.98 6.83-.65 12.29-7.59 11.3-14.41-.31-2.09-.46-4.27-1.18-6.23-1.75-4.82 2.25-7.31 4.02-10.7.14-.27.71-.37 1.11-.43 5.5-.78 10.92 3.16 12.32 8.61.7 2.74 1.87 5.37 2.96 8 1.49 3.51 3.59 6.1 7.95 4.71zm72.89-102.22c-.47-2.26-.62-4.66-1.49-6.75-1.49-3.58-3.54-4.06-6.85-2.19-2.28 1.28-4.25 2.73-7.21.71-2.76-1.88-7.54.36-8.41 3.61-1.31 4.89-2.62 9.82-3.33 14.82-.39 2.73.39 5.65.8 8.46.36 2.5 2.17 3.18 4.16 2.22 3.01-1.44 6.03-3.02 8.66-5.05 3.5-2.71 6.34-6.35 10.01-8.74 2.91-1.89 3.66-4.01 3.66-7.09zm-107.92 145.98c-.25-3.72-.16-6.41-.67-8.97-.89-4.43-6.03-6.57-9.9-4.33-3.02 1.75-6.09 3.43-8.97 5.38-.95.64-1.9 2.04-1.94 3.12-.2 5.28-.15 10.58-.03 15.86.02.84.71 2.27 1.31 2.4 2.61.59 5.84 1.89 7.87.91 4.17-2.01 8.09-4.94 11.33-8.25 1.38-1.39.82-4.71 1-6.12z" fill="#010100"/></svg>