<svg enable-background="new 0 0 400 400" viewBox="0 0 400 400" xmlns="http://www.w3.org/2000/svg"><path d="m241.71 58.64c-1.49 1.7-2.18 2.49-3.05 3.48-1.57-.78-3.19-1.53-4.75-2.38-3.35-1.83-4.36-4.31-3.31-7.97.35-1.22 1.18-2.54.95-3.64-.93-4.39 2.23-5.87 4.83-8.22 4.5-4.07 8.82-5.04 13.99-1.51 1.08.74 2.57.97 3.91 1.22 5.52 1.03 7.97 2.83 8.49 8.44.53 5.74-.09 11.58-.25 17.38-.02.95-.31 1.89-.32 2.84-.01 2.91-1.05 5.08-4 6.06-2.22.74-2.77 2.47-3.05 4.65-1.09 8.62-2.31 17.22-3.63 25.8-.21 1.36-.93 2.79-1.81 3.86-4.62 5.66-9.49 11.13-13.99 16.87-1.8 2.29-2.89 5.13-4.38 7.85 1.06.77 1.88 1.37 3.15 2.29-4.67-.14-6.02 3.16-7.96 6.13-2.04 3.12-4.6 5.97-7.27 8.59-5.43 5.34-11.43 10.14-16.56 15.74-5.2 5.68-10.82 10.35-18.36 12.33-2 .52-3.14 1.57-3.03 3.77.16 3.18-1.91 4.92-4.24 6.54-8.37 5.81-17.9 8.59-27.74 10.41-17.02 3.14-34.13 5.34-51.49 3.54-1.11-.11-2.84-.91-3.05-1.71-.44-1.71-.47-3.43 1.78-4.76 9.07-5.38 19.23-7.63 29.12-10.66 1.89-.58 3.8-1.38 5.42-2.48 9.82-6.67 19.68-13.2 31.05-17.09 5.4-1.85 10.03-4.87 12.7-10.32.65-1.34 2.13-2.32 3.34-3.33 8.06-6.72 16.23-13.32 24.18-20.16 2.69-2.31 5.14-5.03 7.19-7.93 4.33-6.14 8.76-12.06 14.25-17.35 5.27-5.07 9.95-10.97 13.82-17.18 2.53-4.05 3.54-9.21 4.51-14.02.81-4.01.69-8.23.77-12.36.03-1.27-.63-2.57-1.21-4.72z" fill="#010103"/><path d="m282.64 313.74c2.17 1.78 3.94 3.25 5.89 4.85-2.43 2.42-4.87 3.12-7.91 1-.93 2.57-2.37 4.71.82 6.68 2.09 1.28 2.31 3.47 1.26 5.63-.6 1.23-1.39 2.38-2.2 3.49-6.06 8.3-12.21 16.55-18.22 24.89-4.25 5.9-9.76 8.18-17 6.44-.64-3.54-.58-6.5 2.9-9.09 4.74-3.52 7.81-8.54 10.25-13.93 5.23-11.56 10.4-23.15 15.81-34.63 6.64-14.11 9.28-29.01 8.95-44.45-.47-22.35-3.55-44.34-10.19-65.74-.54-1.74-1.54-3.5-2.78-4.83-5.12-5.52-7.82-12.31-10.2-19.22-.9-2.61-2.16-4.48-4.87-5.25-2.18-.61-3.22-1.97-3.31-4.35-.19-5.03-4.15-6.49-8.03-7.7-3.64-1.14-4.35-1.77-3.79-5.54.4-2.71 1.13-5.37 1.72-8.05.32-.21.63-.42.95-.63.62.95 1.13 1.99 1.88 2.82 6.74 7.48 13.9 14.63 20.18 22.48 5.07 6.33 9.27 13.39 13.47 20.36 1.1 1.83.59 4.58 1.13 6.82.37 1.54.9 3.43 2.02 4.34 5.87 4.74 8.99 10.89 10.85 18.09 1.96 7.57 4.7 14.94 6.94 22.45.33 1.09-.27 2.45-.4 3.68-.16 1.5-.89 3.31-.32 4.47 2.73 5.51 2.59 11.21 1.9 17.06-.41 3.47-.68 6.97-.82 10.46-.15 3.55-.62 6.79-4.52 7.62 1.23 2.04 2.51 3.84 3.42 5.8.73 1.55.57 3.01-.7 4.63-1.08 1.38-1.52 3.52-1.63 5.36-.4 6.23-2.77 10.74-9.33 12.24-1.31.3-2.52 1.06-4.12 1.75z" fill="#010103"/><g fill="#fcfbfa"><path d="m6.8 9.5c.6.3 1.3.7 2.1 1.1-.4.4-.7.8-.9 1.2-.7-.4-1.3-.8-1.8-1.1s-1.1-.6-1.6-.8c.2-.4.5-.8.7-1.2.4.2.8.5 1.5.8zm.9 6.9c-.3.6-.5 1.1-.7 1.7s-.4 1.1-.6 1.7c-.6-.4-1.1-.7-1.6-1 .7-1 1.2-1.8 1.5-2.4.3-.5.6-1.1.8-1.7.3-.6.5-1.2.8-1.8.3.3.8.6 1.3.8-.7 1.3-1.2 2.2-1.5 2.7zm.1-11c.4.3 1 .7 1.7 1.1-.5.2-.8.6-1.1 1.1-.5-.6-1-1-1.4-1.2s-.9-.6-1.5-.8c.2-.4.5-.7.9-1.1.5.3.9.6 1.4.9zm10.5 13.1c1 .4 2 .6 3.1.7-.4.4-.7.8-.8 1.3-.9-.2-1.9-.6-3-.9-1-.4-2-.9-2.8-1.6-.5.4-1.1.9-1.9 1.3s-1.9.9-3.3 1.2c-.1-.3-.5-.8-1.1-1.3 1 0 2.1-.3 3.2-.8 1.2-.5 1.9-1 2.3-1.7h-3.2c-.4 0-1 0-2 .1v-1.2c1 0 1.7.1 2 .1h3.3v-1h-2.3c-.2 0-.9 0-2 .1v-1.2c1.2 0 1.9.1 2 .1h2.3v-.8h-4.1c0-.7.1-1.2.1-1.6 0-.5 0-1.1-.1-1.8h4.1v-.7h-2.5c0-.6.1-1.1.1-1.6v-.6h-.5c-.4 0-1 0-1.8.1v-1.3c1.2 0 1.9.1 2.1.1h.2c0-.3 0-.8-.1-1.4h1.4c0 .6-.1 1-.1 1.4h3.4c0-.4 0-.8-.1-1.3h1.5c0 .4-.1.9-.1 1.3.7 0 1.5 0 2.5-.1v1.2c-1 0-1.8-.1-2.5-.1v.6c0 .3 0 .8.1 1.5h-2.5v.8h4.1c0 .7-.1 1.3-.1 1.8s0 1 .1 1.5h-4.1v.8h1.4c.8 0 1.8 0 2.9-.1v1.2c-1 0-1.9-.1-2.8-.1h-1.5v1h3.2c.3 0 1 0 2.1-.1v1.2c-1.1 0-1.8-.1-2.1-.1h-3.4l-.1.1c1.4 1 2.4 1.5 3.4 1.9zm-4.1-6.7v-1.3h-2.7v1.3zm2.2-4.1v-1.1h-3.4v1.1zm1.9 4.1v-1.3h-2.8v1.3z"/><path d="m37 6.7v2.3 5.4c1 0 1.8 0 2.2-.1v1.3c-.6 0-1.5-.1-2.5-.1h-11.9c-.7 0-1.3 0-1.8.1v-1.3c.5 0 1.1.1 2 .1v-5.2c0-1 0-1.8-.1-2.5h3.7c0-1.3 0-2.1-.1-2.5h1.5c0 .4-.1 1.3-.1 2.5h2.2c0-1.2 0-2.1-.1-2.6h1.5c0 .4-.1 1.3-.1 2.6zm-12.3 13.7c-.3-.4-.7-.8-1.1-1.1 1.1-.4 2.1-.9 2.9-1.3.8-.5 1.5-1 2.1-1.6.4.4.9.8 1.3 1.1-2.5 1.4-4.2 2.4-5.2 2.9zm3.9-10.1v-2.4h-2.2v2.4zm0 4.1v-2.9h-2.2v2.9zm3.5-4.1v-2.4h-2.2v2.4zm0 4.1v-2.9h-2.2v2.9zm.4 2.9 1-1.1c.6.3 1.4.7 2.5 1.3s2 1.1 2.7 1.5c-.4.4-.8.8-1.1 1.3-.8-.8-2.5-1.7-5.1-3zm3.1-7v-2.4h-2.1v2.4zm0 4.1v-2.9h-2.1v2.9z"/></g></svg>