<svg enable-background="new 0 0 400 400" viewBox="0 0 400 400" xmlns="http://www.w3.org/2000/svg"><path d="m102.79 366.3c-.08-.5-.24-.84-.16-1.11 2.3-6.91-1.07-11-6.14-15.44-6.24-5.45-11.48-12.11-16.77-18.56-4.29-5.23-8.65-10.22-15.21-12.54-.99-.35-2.66-.06-3.49.59-4.02 3.18-7.38 2.21-8.57-2.76-1.59-6.64-.4-13.08 1.78-19.36 3.72-10.69 7.61-21.33 11.48-31.97.35-.96 1.02-1.85 1.71-2.63 5.71-6.48 6.88-13.6 3.19-21.48-1.25-2.68-2.43-5.4-3.8-8.48 4.3-.55 8.37-1.12 12.44-1.54.58-.06 1.35.5 1.85.97 9.31 8.67 18.73 17.23 27.84 26.1 8.41 8.19 14.51 17.8 17.18 29.49 1.57 6.85 3.51 9.19 7.55 11.28 1.08-2.1 2.36-4.14 3.23-6.34 3.56-9.02 6.43-18.16 5.15-28.11-.26-2.01-1.16-2.94-2.88-3.02-6.36-.31-9.81-4.03-11.71-9.66-2.01-5.96-6.13-9.73-11.76-12.46-2.9-1.41-5.71-3.8-7.56-6.45-7.11-10.14-14.21-20.32-20.57-30.93-9.23-15.39-10.55-31.97-5.15-49 3.07-9.68 6.94-19.11 9.73-28.86 1.97-6.88 2.91-14.07 3.97-21.18.4-2.73 1.41-4.08 4.08-4.72 5.92-1.41 12.45.66 15.76 5.71 3.52 5.37 8.68 6.5 14.42 5.97 2.1-.19 3.55-1.74 2.83-4.28-1.61-5.69-3.21-11.38-4.83-17.07-.2-.71-.3-1.66-.8-2.04-3.68-2.75-3.38-6.56-2.93-10.42.67-5.73-1.54-10.82-3.45-15.98-2.56-6.94-5.11-13.89-7.69-20.9 3.86-2.67 7.08-4.37 11.92-3.03 5.81 1.6 10.25 4.19 13.83 9.08 4.24 5.81 9.15 11.14 13.67 16.76.96 1.19 1.88 2.67 2.12 4.13 1.58 9.86 5.65 18.77 9.81 27.72 1.61 3.47 2.14 7.45 3.11 11.22.42 1.64.53 3.36 1.04 4.97 1.23 3.88 2.81 6.78 8.29 5.11 3.82-1.16 7.58-1.75 10.79-4.67 3.74-3.4 8.82-4.13 13.72-4.18 10.78-.12 20.9-3.01 30.92-6.58 1.32-.47 3.32-.23 4.56.47 2.91 1.64 5.72 2.21 8.74.66 5.3-2.71 10.92-3.82 16.86-3.81 13.99.04 28.01-.4 41.82 2.44 15.86 3.25 17.28 9.17 15.26 22.96-.15 1.02-1.78 2.21-2.97 2.64-7.41 2.66-15.01 2.03-22.63 1.05-8.2-1.05-16.39-2.19-24.61-2.93-2.64-.24-5.46.4-8.05 1.14-3.03.87-4.07 2.99-2.55 5.61 3.92 6.73 6.71 14.18 12.53 19.76 4.36 4.18 8.58 8.53 12.58 13.05 3.46 3.91 7.73 6.55 12.22 8.94 10.76 5.75 20.17 13.02 28.22 22.36 3.54 4.11 8.92 6.68 13.61 9.71 4.52 2.92 6.21 6.15 5.37 11.48-.09.6-.2 1.32-.58 1.74-1.74 1.96-8.05 3.11-10.58 2.03-11.76-5.08-23.44-10.35-35.31-15.16-10.46-4.23-19.41-10.91-28.29-17.49-4.3-3.19-7.18-8.55-10.07-13.31-3.68-6.06-7.44-11.84-14.09-15.03-3.44 3.7-3.02 8.71 1.05 12.56 10.38 9.84 14.48 21.47 10.72 35.67-1.11 4.21-1.44 8.77-1.29 13.14.13 3.82 1.57 4.59 5.41 4.32 10.15-.71 20.3-1.42 30.43-2.29 1.91-.16 3.26.16 4.37 1.71 2.67 3.73 6.4 5.81 10.55 7.72 10.76 4.95 20.72 11.22 27.84 21.03 3.83 5.28 5.57 11.33 5.92 17.96-5.58 2.22-10.87 4.3-16.97 1.39-8.14-3.88-17.13-3.43-25.85-4.22-6.54-.6-13.09-1.07-19.6-1.89-2.37-.29-4.6-1.65-6.97-2.05-1.9-.33-3.91.05-6.44.14 3.18 8.53 4.44 16.66 9.98 23.15 3.84 4.5 7.45 9.3 10.48 14.38 6.91 11.59 17.14 19.35 28.35 26.26 6.66 4.1 13.15 8.54 19.35 13.31 3.08 2.38 5.32 5.86 8.2 9.14-7.45 4.53-14.57 4.77-21.63 1.83-13.57-5.66-27.21-11.11-39.9-18.76-6.26-3.78-11.4-8.12-15.24-14.32-4.46-7.2-9.18-14.25-14.02-21.21-3.04-4.37-6.67-8.22-11.66-10.54-2.11-.98-3.43-.82-4.47 1.53-6.89 15.54-17.66 27.94-30.93 38.38-2.78 2.18-5.1 5.08-7.22 7.95-8.99 12.18-21.89 17.76-35.54 21.95-2.52-2.77-2.36-4.77-.11-7.38 10.43-12.14 20.68-24.45 30.86-36.81 1.63-1.98 3.03-4.4 3.7-6.85 1.86-6.74 5.66-12.26 10.04-17.47 3.82-4.56 6.84-9.43 6.92-15.64-.11-.17-.2-.44-.35-.49-12.61-3.98-25.04-8.6-38.33-10.07-2.22-.25-3.26.19-3.82 2.44-.89 3.59-2.23 7.07-3.17 10.65-2.19 8.35-5.68 16.07-10.04 23.55-2.24 3.84-3.01 8.52-4.48 12.81-.41 1.19-.73 2.48-1.44 3.48-10.31 14.64-20.61 29.3-31.11 43.81-1.82 2.52-4.32 4.65-6.83 6.53-2.53 1.93-5.62 2.24-8.74 1.54zm130.98-238.76c-.03-.18-.06-.36-.09-.54-9.06 1.6-18.22 2.81-27.17 4.9-9.04 2.11-17.88 5.06-26.8 7.69-2.56.75-3.37 2.42-3.42 5.2-.25 12.8 1.19 25.66-1.25 38.39-.51 2.63 1.27 3.87 3.54 4.37 5.58 1.23 10-.49 13.88-4.79 8.51-9.43 17.22-18.69 26.04-27.84 6.62-6.87 13.62-13.38 20.21-20.27 1.17-1.23 1.65-3.61 1.5-5.38-.06-.69-2.71-1.24-4.23-1.7-.68-.2-1.47-.03-2.21-.03zm-5.43 48.28c-8.76 6.56-16.57 12.56-24.55 18.33-2.7 1.95-4.73 4.11-5.38 7.44-.43 2.22-1.72 3.62-3.9 4.57-3.58 1.56-6.84 4.05-10.53 5.17-7.07 2.15-9.46 7.48-10.5 13.85-.32 1.97.2 4.14.64 6.15.37 1.67 1.63 2.03 3.42 1.89 3.02-.24 6.08-.01 9.13.03 2.09.03 4.51.76 6.2-.05 3.25-1.54 6.06-2.44 9.24-.07.53.4 1.66.15 2.47-.01 5.71-1.12 11.4-2.41 17.14-3.39 2.02-.34 3.02-1.29 3.4-3.11 1.76-8.49 3.91-16.93 5.1-25.5.89-6.34.71-12.86.61-19.29-.04-1.83-1.48-3.67-2.49-6.01zm-88.55 46.89c6.57-6.95 11.93-13.74 12.15-23.66.1-4.71-1.04-8.37-3.88-11.56-9.66-10.89-21.8-17.97-35.63-22.17-4.44-1.34-7.63.8-8.89 5.38-.62 2.24-1.03 4.56-1.86 6.72-.84 2.19-.35 3.66 1.22 5.34 9.33 9.98 18.54 20.07 27.8 30.12 2.99 3.24 6 6.49 9.09 9.83zm-56.42 77.47c.01 5.65 1.96 10.52 5.68 14.76 5.09 5.82 10 11.81 15.24 17.48 1.73 1.88 4.12 3.38 6.48 4.39s4.87-.06 5.92-2.37c2.87-6.29 3.94-13.21-1.66-19.18-5.83-6.23-10.3-13.4-12.46-21.83-.52-2.02-1.28-4.08-2.37-5.84-2.41-3.88-5.79-4.17-8.95-1.02-1.28 1.27-2.42 2.73-3.85 3.78-3.38 2.5-4 6.02-4.03 9.83zm67.95-137.13c.53-7.94.66-14.62-1.71-21-.62-1.68-2.22-3.92-3.68-4.2-8.66-1.61-17.44-2.43-26.14-.26-2.21.55-4.27 1.77-6.37 2.74-2.6 1.21-2.53 3.15-.62 4.66 2.61 2.07 5.47 3.92 8.43 5.46 4.03 2.09 8.21 3.92 12.41 5.66 5.58 2.33 11.26 4.44 17.68 6.94z" fill="#010103"/><g fill="#fcfbfa"><path d="m6.8 9.5c.6.3 1.3.7 2.1 1.1-.4.4-.7.8-.9 1.2-.7-.4-1.3-.8-1.8-1.1s-1.1-.6-1.6-.8c.2-.4.5-.8.7-1.2.4.2.8.5 1.5.8zm.9 6.9c-.3.6-.5 1.1-.7 1.7s-.4 1.1-.6 1.7c-.6-.4-1.1-.7-1.6-1 .7-1 1.2-1.8 1.5-2.4.3-.5.6-1.1.8-1.7.3-.6.5-1.2.8-1.8.3.3.8.6 1.3.8-.7 1.3-1.2 2.2-1.5 2.7zm.1-11c.4.3 1 .7 1.7 1.1-.5.2-.8.6-1.1 1.1-.5-.6-1-1-1.4-1.2s-.9-.6-1.5-.8c.2-.4.5-.7.9-1.1.5.3.9.6 1.4.9zm10.5 13.1c1 .4 2 .6 3.1.7-.4.4-.7.8-.8 1.3-.9-.2-1.9-.6-3-.9-1-.4-2-.9-2.8-1.6-.5.4-1.1.9-1.9 1.3s-1.9.9-3.3 1.2c-.1-.3-.5-.8-1.1-1.3 1 0 2.1-.3 3.2-.8 1.2-.5 1.9-1 2.3-1.7h-3.2c-.4 0-1 0-2 .1v-1.2c1 0 1.7.1 2 .1h3.3v-1h-2.3c-.2 0-.9 0-2 .1v-1.2c1.2 0 1.9.1 2 .1h2.3v-.8h-4.1c0-.7.1-1.2.1-1.6 0-.5 0-1.1-.1-1.8h4.1v-.7h-2.5c0-.6.1-1.1.1-1.6v-.6h-.5c-.4 0-1 0-1.8.1v-1.3c1.2 0 1.9.1 2.1.1h.2c0-.3 0-.8-.1-1.4h1.4c0 .6-.1 1-.1 1.4h3.4c0-.4 0-.8-.1-1.3h1.5c0 .4-.1.9-.1 1.3.7 0 1.5 0 2.5-.1v1.2c-1 0-1.8-.1-2.5-.1v.6c0 .3 0 .8.1 1.5h-2.5v.8h4.1c0 .7-.1 1.3-.1 1.8s0 1 .1 1.5h-4.1v.8h1.4c.8 0 1.8 0 2.9-.1v1.2c-1 0-1.9-.1-2.8-.1h-1.5v1h3.2c.3 0 1 0 2.1-.1v1.2c-1.1 0-1.8-.1-2.1-.1h-3.4l-.1.1c1.4 1 2.4 1.5 3.4 1.9zm-4.1-6.7v-1.3h-2.7v1.3zm2.2-4.1v-1.1h-3.4v1.1zm1.9 4.1v-1.3h-2.8v1.3z"/><path d="m37 6.7v2.3 5.4c1 0 1.8 0 2.2-.1v1.3c-.6 0-1.5-.1-2.5-.1h-11.9c-.7 0-1.3 0-1.8.1v-1.3c.5 0 1.1.1 2 .1v-5.2c0-1 0-1.8-.1-2.5h3.7c0-1.3 0-2.1-.1-2.5h1.5c0 .4-.1 1.3-.1 2.5h2.2c0-1.2 0-2.1-.1-2.6h1.5c0 .4-.1 1.3-.1 2.6zm-12.3 13.7c-.3-.4-.7-.8-1.1-1.1 1.1-.4 2.1-.9 2.9-1.3.8-.5 1.5-1 2.1-1.6.4.4.9.8 1.3 1.1-2.5 1.4-4.2 2.4-5.2 2.9zm3.9-10.1v-2.4h-2.2v2.4zm0 4.1v-2.9h-2.2v2.9zm3.5-4.1v-2.4h-2.2v2.4zm0 4.1v-2.9h-2.2v2.9zm.4 2.9 1-1.1c.6.3 1.4.7 2.5 1.3s2 1.1 2.7 1.5c-.4.4-.8.8-1.1 1.3-.8-.8-2.5-1.7-5.1-3zm3.1-7v-2.4h-2.1v2.4zm0 4.1v-2.9h-2.1v2.9z"/></g></svg>