<svg enable-background="new 0 0 400 400" viewBox="0 0 400 400" xmlns="http://www.w3.org/2000/svg"><path d="m2.6 9.9.8-1c.9.7 1.9 1.4 2.9 2.3l-.9 1.1c-1.1-1-2-1.8-2.8-2.4zm.5 10.6c.9-2.1 1.6-4.3 2.3-6.7.4.2.8.4 1.3.6-.7 2.1-1.5 4.3-2.2 6.6zm.3-15.2.9-.9c1 .8 2 1.6 2.8 2.4l-1 1c-.9-.9-1.8-1.7-2.7-2.5zm12.6-1.2h1.2v1.4h2.7v1.1h-2.7v2.7h-1.2v-.6h-1.8v1.3h4.9v3.8h-1.2v-.5h-3.7c0 .4-.1.9-.1 1.2h5.1v1h-5.2c0 .5-.1.9-.2 1.2h6v1h-5.2c1.1 1.3 2.9 2 5.5 2.2-.4.4-.7.8-.9 1.3-2.9-.5-4.8-1.6-5.7-3.5h-.1c-.8 1.7-2.7 2.9-5.9 3.6-.2-.4-.6-.8-.9-1.1 2.8-.6 4.6-1.4 5.4-2.5h-4.8v-1h5.3c.1-.3.2-.7.2-1.2h-4.9v-1h5c0-.4 0-.8.1-1.2h-3.6v.5h-1.2v-3.8h4.9v-1.3h-1.8v.5h-1.2v-2.7h-2.7v-1h2.7v-1.4h1.2v1.4h4.8zm-6.7 8.3h3.6c0-.4 0-.9 0-1.4h-3.6zm1.9-4.6h4.8v-1.3h-4.7v1.3zm6.7 3.2h-3.7v1.4h3.7z" fill="#fcfafa"/><path d="m8.7 22.1h1.3v2.2h2.8v-2.2h1.3v2.2h4.1v9.1h1.7v1.3h-17v-1.3h1.7v-9.1h4.1zm.3 13.1.7 1.2c-1.8.9-3.8 1.9-6 2.9-.2-.4-.5-.8-.8-1.3 2.3-1 4.4-1.9 6.1-2.8zm-3.1-6.4h2.8v-3.2h-2.8zm0 4.6h2.8v-3.3h-2.8zm4.1-4.6h2.8v-3.2h-2.8zm0 4.6h2.8v-3.3h-2.8zm3.6 1.9c2.1.9 4.1 1.8 6.1 2.7l-.7 1.4c-2.2-1.1-4.2-2-6.1-2.9zm3.2-9.7h-2.8v3.2h2.8zm-2.7 7.8h2.8v-3.3h-2.8z" fill="#fcfafa"/><path d="m174.63 291.97c-13.69 3.45-27.22 6.85-40.74 10.27-3.28.83-6.61 1.56-9.8 2.67-3.04 1.06-5.88 2.68-8.89 3.81-2.44.91-4.97 1.79-7.53 2.11-3.46.43-7 .12-10.47.49-2.06.23-3.45-.31-3.95-2.17-1.78-6.52-3.47-13.06-4.96-19.64-.15-.67 1.01-2.07 1.87-2.48 7.16-3.37 14.22-7.1 21.65-9.74 13.07-4.62 26.38-8.55 39.59-12.77.7-.22 1.6-.29 2.05-.77 4.82-5.13 11.24-4.79 17.43-5.1 5.22-.27 9.52-6.61 7.31-11.34-.42-.9-1.99-1.48-3.14-1.81-6.96-1.99-13.92-1.37-20.67.77-10.7 3.39-21.47 6.67-31.83 10.92-5.21 2.14-9.86 5.71-15.6 6.73-3.44.61-6.88 1.29-10.34 1.65-5.05.52-9.92-.04-14.24-3.11-1.29-.92-2.83-1.47-4.12-2.39-3.11-2.24-6.35-3.14-10.06-1.57-.64.27-1.43.16-2.39.24-.23-4.25-.54-8.36-.6-12.47-.01-.64.94-1.6 1.66-1.89 4.85-1.96 7.9-5.64 10.83-9.85 8.77-12.61 17.74-25.09 26.94-37.39 6.97-9.33 14.81-18.02 21.5-27.54 6.29-8.96 11.39-18.71 10.73-30.29-.1-1.79-.33-3.58-.62-5.36-.67-4.22-2.83-5.85-7.03-4.74-4.13 1.09-8.13 2.7-12.19 4.08-1.3.44-2.58 1.06-3.91 1.27-4.51.72-7.08 3.46-8.43 7.64-1.33 4.13-2.85 8.21-4.03 12.38-1.52 5.37-3.59 10.35-7.62 14.39-.92.92-1.46 2.32-1.93 3.58-2.59 6.94-4.98 13.96-7.71 20.85-1.24 3.13-2.94 6.1-4.67 8.99-1.26 2.11-3.41 3.73-5.83 2.82-1.46-.54-3.04-2.48-3.34-4.03-.62-3.25-1.18-6.85-.42-9.97 2.41-9.82 2.68-19.63 1.81-29.62-.23-2.64.3-5.54 1.22-8.05 1.88-5.2 1.72-10.32.77-15.62-1.49-8.36.42-16.45 2.53-24.46.21-.82 1.29-1.78 2.14-2 12.2-3.07 24.42-6.05 36.66-8.94.72-.17 1.66.63 2.79 1.11 2-3.03 5.79-3.57 9.4-4.72 13.9-4.44 27.72-9.14 41.59-13.68 4.16-1.36 6.72-3.72 6.05-8.47-.01-.1.03-.21.02-.32-.19-2.44.52-5.65-.77-7.14-2.58-3-6.6-3.88-10.71-3.73-5.57.2-11.16.43-16.73.24-1.43-.05-3.37-1.27-4.12-2.52-3.8-6.36-4.82-13.24-2.46-20.37.23-.7 1.54-1.36 2.43-1.49 7.43-1.04 14.86-2.28 22.33-2.81 6.65-.47 13.38.24 20.03-.17 11.09-.68 22.15-1.81 33.21-2.8 9.98-.89 19.93-.55 29.74 1.47 7.34 1.51 10.56 8.28 7.47 15.17-.29.65-1.39 1.38-2.09 1.34-5.28-.23-9.74 1.86-14.44 3.98-4.14 1.87-9.06 1.94-13.55 3.15-6.42 1.73-12.69 1.34-19.14.08-3.08-.6-6.47-.21-9.62.31-4.04.68-7.99 1.94-12.23 3.02.83 4.64 1.52 9.12 2.46 13.54.55 2.61 5.43 5.46 8.58 4.6 6.67-1.82 13.18-.8 19.83-.02 7.67.9 15.44.87 23.12 1.71 12.57 1.37 24.27 5.8 35.58 11.22 14 6.7 26.67 15.16 36.33 27.66 5.22 6.76 8.94 13.85 9.52 22.64.56 8.33 1.77 16.66 3.3 24.88.94 5.05 3.75 9.8 4.39 14.85 1.32 10.47 1.73 21.05 2.56 31.59.46 5.9 1.29 11.79 1.41 17.7.1 5.11-.58 10.24-.89 15.12-1.21.27-1.52.39-1.82.41-4.81.2-4.76.18-6-4.48-8.28-31.01-15.04-62.37-21.4-93.82-.28-1.37-1.01-2.79-1.91-3.87-5.24-6.26-10.68-12.36-15.88-18.65-1.85-2.24-3.95-3.48-6.77-4.19-1.98-.49-3.77-1.96-5.51-3.19-1.71-1.2-3.11-2.88-4.88-3.96-7.32-4.47-14.89-8.55-22.07-13.24-5.45-3.56-10.93-3.53-16.67-1.62-16.67 5.54-33.23 11.4-49.98 16.65-4.95 1.55-10.46 1.22-15.6 2.29-4.19.88-8.29 2.38-12.26 4.03-.98.41-1.74 2.49-1.76 3.81-.03 2.93.41 5.88.77 8.81.45 3.77 1 7.53 1.51 11.3.08.62-.05 1.41.28 1.84 3.53 4.55 5.66 10.16 10.91 13.41 6.4 3.96 12.56 8.28 18.84 12.43.68.45 1.43.81 2.35 1.31 3.03-12.47 6.2-24.66 8.82-36.97.59-2.77-.94-5.94-1.07-8.94-.06-1.43.49-3.35 1.49-4.25 1.33-1.19 3.13-2.77 5.31-.95 15.42 12.83 33.36 21.16 51.57 29.07 14.69 6.39 27.71 15.12 36.93 28.64 9.17 6.94 11.69 18.12 17.37 27.28.65 1.05 1.04 2.7.73 3.84-2.12 7.74-1.72 15.5-.52 23.29.09.61.09 1.23.11 1.56-7.28 0-14.46.03-21.63-.01-2.97-.02-5.98.11-8.89-.34-21.27-3.25-42.77-1.72-64.12-3.34-2.47-.19-3.63.34-3.85 3.06-.3 3.56-1.11 7.09-1.74 10.85 3.94 1.6 7.64 3.62 11.59 4.51 2.49.56 5.36-.61 8.07-.9 6.1-.65 12.2-1.29 18.32-1.78 1.2-.1 2.51.34 3.67.81 8.74 3.54 17.55 6.88 26.92 8.37 3.28.52 3.43 2.58 2.86 5.13-1.65 7.35-7.69 12.58-16.79 12.94-7.46.29-14.96-.8-22.45-1.25-5.92-.36-11.84-.66-17.76-1.03-2.63-.17-5.27-.33-7.88-.69-4.71-.66-7.56 1.61-7.72 6.34-.03.95.11 1.95-.11 2.86-1.21 5.08.1 8.74 5.36 10.62.76.27 1.41 1.72 1.56 2.7.74 4.79 1.19 9.63 1.93 14.43.69 4.5.59 8.86-1.31 13.08-3.56 7.9-7.15 15.8-10.65 23.73-1.15 2.61-2.1 5.31-3.1 7.98-1.56 4.21-4.83 5.95-9.05 6.28-.56.04-1.48-.1-1.66-.44-1.56-3.03-4.22-5.48-4-9.42.46-8.25 1.38-16.6.64-24.77-1.13-12.43-3.5-24.75-5.36-37.11-.08-.38-.28-.77-.76-2.14zm106.68-66.87c1.64-.26 2.81-.36 3.93-.64 4.12-1.03 5.1-2.31 3.49-6.23-1.07-2.61-2.82-5.38-5.05-7-20.24-14.69-40.65-29.15-61.03-43.64-.74-.53-1.72-1.17-2.52-1.08-7.81.86-14.96 2.75-18.66 10.9-1.92 4.23-3.98 8.56-6.86 12.13-3.1 3.84-3.68 7.78-2.55 12.1.66 2.53 1.57 5.75 3.47 7.07 7.13 4.97 14.94 9.09 23.57 10.57 12.42 2.13 24.96 3.55 37.47 5.06 2.27.27 4.66-.52 7-.8 2.33-.28 4.72-.96 6.99-.69 3.77.44 7.45 1.52 10.75 2.25zm-174.07 12.3c4.41-.65 9.71-1.09 14.84-2.27 12.1-2.78 24.09-5.18 33.76-14.57 9.35-9.09 9.39-19.45 3.9-29.27-3.28-5.87-10.66-7.83-16.42-4.43-4.72 2.78-9.53 5.69-13.54 9.37-9.9 9.1-19.43 18.61-28.94 28.13-1.9 1.9-3.22 4.47-4.44 6.92-1.44 2.88-.24 4.8 3 5.25 2.32.31 4.63.51 7.84.87z" fill="#010100"/></svg>