<svg enable-background="new 0 0 400 400" viewBox="0 0 400 400" xmlns="http://www.w3.org/2000/svg"><path d="m2.6 9.9.8-1c.9.7 1.9 1.4 2.9 2.3l-.9 1.1c-1.1-1-2-1.8-2.8-2.4zm.5 10.6c.9-2.1 1.6-4.3 2.3-6.7.4.2.8.4 1.3.6-.7 2.1-1.5 4.3-2.2 6.6zm.3-15.2.9-.9c1 .8 2 1.6 2.8 2.4l-1 1c-.9-.9-1.8-1.7-2.7-2.5zm12.6-1.2h1.2v1.4h2.7v1.1h-2.7v2.7h-1.2v-.6h-1.8v1.3h4.9v3.8h-1.2v-.5h-3.7c0 .4-.1.9-.1 1.2h5.1v1h-5.2c0 .5-.1.9-.2 1.2h6v1h-5.2c1.1 1.3 2.9 2 5.5 2.2-.4.4-.7.8-.9 1.3-2.9-.5-4.8-1.6-5.7-3.5h-.1c-.8 1.7-2.7 2.9-5.9 3.6-.2-.4-.6-.8-.9-1.1 2.8-.6 4.6-1.4 5.4-2.5h-4.8v-1h5.3c.1-.3.2-.7.2-1.2h-4.9v-1h5c0-.4 0-.8.1-1.2h-3.6v.5h-1.2v-3.8h4.9v-1.3h-1.8v.5h-1.2v-2.7h-2.7v-1h2.7v-1.4h1.2v1.4h4.8zm-6.7 8.3h3.6c0-.4 0-.9 0-1.4h-3.6zm1.9-4.6h4.8v-1.3h-4.7v1.3zm6.7 3.2h-3.7v1.4h3.7z" fill="#fcfafa"/><path d="m8.7 22.1h1.3v2.2h2.8v-2.2h1.3v2.2h4.1v9.1h1.7v1.3h-17v-1.3h1.7v-9.1h4.1zm.3 13.1.7 1.2c-1.8.9-3.8 1.9-6 2.9-.2-.4-.5-.8-.8-1.3 2.3-1 4.4-1.9 6.1-2.8zm-3.1-6.4h2.8v-3.2h-2.8zm0 4.6h2.8v-3.3h-2.8zm4.1-4.6h2.8v-3.2h-2.8zm0 4.6h2.8v-3.3h-2.8zm3.6 1.9c2.1.9 4.1 1.8 6.1 2.7l-.7 1.4c-2.2-1.1-4.2-2-6.1-2.9zm3.2-9.7h-2.8v3.2h2.8zm-2.7 7.8h2.8v-3.3h-2.8z" fill="#fcfafa"/><path d="m319.77 331.36c-14.16 5.05-27.72 6.67-41.54 4.06-10.08-1.9-20.04-4.41-30.03-6.78-1.59-.38-3.15-1.25-4.49-2.21-4.97-3.61-9.65-7.68-14.82-10.97-6.21-3.95-10.19-9.35-12.71-16.08-1.18-3.17-2.52-6.29-3.78-9.43-2.44-6.07-6.67-10.46-12.85-13.56-1.77 1.95-3.59 3.97-5.41 5.98-1.21 1.34-2.51 2.6-3.61 4.02-7.24 9.36-16.06 16.78-26.7 22.02-1.11.54-2.35 1.3-2.95 2.3-9.56 16-25.06 25.26-39.91 35.22-10.38 6.96-20.95 13.65-32.99 17.55-6.82 2.21-13.78 3.33-20.96 2.79-3.68-.28-7.79-4.96-7.03-8.3.21-.94 1.4-2.25 2.27-2.36 6.38-.77 11.46-3.9 16.33-7.88 12-9.8 23.21-20.42 34.12-31.41 3.09-3.11 7.49-4.89 10.68-7.93 5.49-5.24 11.11-10.54 15.59-16.61 10.7-14.5 20.98-29.3 32.86-42.89.87-1 1.5-2.3 1.95-3.56 2.27-6.27 4.38-12.59 6.67-18.86 2.12-5.81 5.83-10.5 10.81-14.2-2.93-2.48-3.58-8.82-1-11.84 2.92-3.42 3.76-6.86 1.95-11.1-2.41-5.64-1.66-11.33.18-17.01 1.04-3.2 1.69-6.52 2.57-10.01-3.86-1.46-7.5-2.84-11.46-4.34-.64.96-1.3 1.87-1.88 2.83-5.22 8.61-10.73 17.05-15.54 25.88-5.07 9.31-12.74 16.31-19.61 24.06-1.18 1.34-1.98 3.46-2.04 5.25-.08 2.69-.67 4.84-2.5 6.88-5.83 6.48-10.83 13.52-14.46 21.53-1.07 2.35-2.83 4.45-4.55 6.42-11.93 13.65-23.86 27.3-35.95 40.81-4.09 4.58-9.4 7.48-15.22 9.48-1.63.56-2.6.25-3.42-1.16-.37-.64-.78-1.28-1.29-1.81-2.61-2.71-3.75-5.23-.36-8.41 1.85-1.74 2.15-4.12.38-6.61-1.55-2.18-.31-5.12 2.52-8.09 9.14-9.6 18.46-19.03 27.24-28.95 13.21-14.94 26.18-30.18 35.16-48.15 4.57-9.14 7.76-18.95 11.6-28.45.78-1.93.22-3.04-1.69-3.97-7.93-3.86-16.08-3.44-24.18-1.1-6.9 1.99-13.57 4.78-20.46 6.84-9.2 2.76-18.51 3.55-27.78.1-.56-.21-1.09-.52-2.04-.98 4.08-4.05 8.25-7.68 11.8-11.84 7.53-8.81 17.46-13.61 28.04-17.27 9.32-3.22 18.66-6.31 27.08-11.6.44-.28.95-.61 1.44-.64 6.06-.34 10.56-4.06 15.38-7.07 7.82-4.89 15.65-9.74 23.39-14.75 1.33-.86 2.54-2.24 3.23-3.67 5.11-10.45 5.88-21.55 4.5-32.9-1.48-12.12-.3-23.69 6.78-34.1.41-.6.9-1.14 1.4-1.76 3.43 2.29 6.76 4.51 10.1 6.73 1.26-1.13 2.35-2.09 3.64-3.25 2.24 4.16 2.9 8.3 2.37 12.74-.39 3.25-.69 6.53-.7 9.8-.02 2.75.19 5.6 3.37 6.93.41.17.73.76.92 1.23 2.89 7.31 5.49 14.69 5.44 22.71-.03 5 .9 7.16 5.69 8.17 6.99 1.48 14.19 1.99 21.32 2.76.77.08 1.7-.74 2.46-1.28 4.89-3.49 10.22-4.75 16.23-3.92 7.1.98 14.06.31 21.02-1.79 14.13-4.25 28.53-6.32 43.28-3.6.83.15 1.66.33 2.49.51 7.72 1.71 9.16 2.93 8.94 10.91-.17 6.19-1.56 12.35-2.56 18.49-.15.91-1.02 1.85-1.79 2.5-4.68 3.94-9.94 5.94-16.17 4.6-4.34-.94-8.75-1.61-13.06-2.67-8.83-2.17-17.21.25-25.65 2.23-7.5 1.76-15.03 3.42-22.45 5.49-1.46.41-2.69 2.33-3.59 3.82-.94 1.56-.1 2.86 1.29 4.06 14.89 12.93 29.54 26.15 44.68 38.78 5.73 4.78 12.49 8.35 18.9 12.27 2.07 1.26 2.8 2.64 2.86 5.05.22 10.17.6 20.35 1.11 30.51.11 2.22-.6 3.46-2.41 4.62-6.48 4.15-13.27 4.62-20.37 2.05-.94-.34-1.89-.98-2.56-1.72-12.33-13.72-24.63-27.47-36.89-41.26-.88-.99-1.47-2.3-1.97-3.56-3.2-8.07-6.32-16.17-9.5-24.24-3.27-8.31-8.43-14.86-16.91-18.43-2.14-.9-3.4-.62-4.68 1.41-2.77 4.43-3.93 9.12-2.99 14.26 1.21 6.6.85 13.11-1.26 19.46-7.09 21.39-5.13 42.39 2.47 63.19.04.1.1.19.13.29 3.44 12.2 9.94 21.87 20.81 29.1 7.06 4.69 12.93 11.25 19.12 17.2 9.06 8.72 18.83 16.48 29.89 22.48 4.92 2.67 10.2 4.66 15.19 7.21 2.61 1.34 5.15 3 7.31 4.96 1.51 1.4 2.36 3.55 3.77 5.79z" fill="#010100"/></svg>