<svg enable-background="new 0 0 400 400" viewBox="0 0 400 400" xmlns="http://www.w3.org/2000/svg"><path d="m317.94 42.2c3.58 1 4.74 3.34 4.76 6.71.13 21.61.2 43.23.54 64.84.39 24.32 3.66 48.38 6.55 72.49 1.45 12.08 1.3 24.35 2.45 36.47.93 9.89 2.7 19.7 4.11 29.54 1.52 10.59 3.7 21.12 2.23 31.92-.87 6.39-2.56 12.08-7.61 16.88-10.29 9.79-19.89 20.29-30.02 30.26-3.6 3.55-7.9 6.39-11.9 9.53-.39.31-1.01.68-1.41.58-4.48-1.15-9.35-.59-13.06-4.68-9.78-10.78-19.65-21.48-26.15-34.65-9.94-20.14-14.12-41.42-11.25-63.84 3.17-24.68 9.75-48.53 17.55-72.1 4.02-12.16 7.15-24.64 11.66-36.61 3.48-9.26 7.78-18.37 12.92-26.81 12.18-20 25.08-39.56 37.69-59.29.22-.37.51-.68.94-1.24zm-59.7 181.35c-1.71 7.59-4.45 14.65-4.66 21.79-.34 11.58 2.4 22.91 9.84 32.21 6.4 8.01 13.58 15.39 20.47 23 .6.66 1.51 1.21 2.37 1.44 12.38 3.21 23.56 1.31 32.77-8.13 1.05-1.08 1.98-2.91 1.9-4.33-.36-6.55-.74-13.13-1.81-19.59-.84-5.07-2.62-9.99-4.12-14.93-.56-1.86-1.92-2.71-4.07-2.8-4.97-.21-9.94-.61-14.88-1.22-1.78-.22-3.7-.93-5.13-1.99-5.87-4.36-11.57-8.95-17.33-13.45-4.97-3.9-9.95-7.79-15.35-12zm54.8 3.67c-1.08-14.49-4.37-31.2-8.79-47.7-3.12-11.63-7.33-22.79-15.23-32.18-3.86-4.59-6.02-4.51-9.74.34-.64.84-1.09 1.82-1.71 2.67-1.67 2.3-3.39 4.56-5.08 6.84-.43.58-.95 1.15-1.21 1.81-2.86 7.27-5.78 14.53-8.49 21.86-2.26 6.13-3.66 12.38-1.54 18.92 2.73 8.44 7.98 14.73 15.54 19.38 6.58 4.05 12.8 8.67 19.29 12.86 2.63 1.7 5.44 3.3 8.38 4.31 6.6 2.24 8.93.36 8.58-9.11zm-18.68-106.32c-.28.14-.56.27-.84.41 1.58 3.24 2.91 6.65 4.83 9.68 1.47 2.31 4.41 2.22 6.14.05 3.43-4.3 4.35-9.42 3.35-14.64-.27-1.41-2.61-3.03-4.28-3.43-3.36-.8-9.12 4.48-9.2 7.93z" fill="#010104"/><path d="m148.65 62.77c5.29 2.92 7.99 7.96 9.11 14.04 1.46 7.91.25 15.69-1.85 23.26-3.12 11.2-6.31 22.41-10.25 33.33-1.6 4.43-5.11 8.23-8.01 12.11-11.82 15.79-23.74 31.49-35.6 47.24-.61.82-1.42 1.83-1.4 2.73.2 7.6.58 15.19.9 22.88 4.65-.06 8.47-.81 12.02-3.79 7.06-5.92 14.42-11.51 21.85-16.97 4.1-3.02 7.51-6.57 10.04-10.89 4.87-8.31 9.53-16.74 14.31-25.11 4.09-7.15 9.24-13.19 17.3-16.08 4.53-1.62 5.08-1.34 6.3 3.34 2.27 8.7.57 17.15-2.45 25.23-3.7 9.9-8.15 19.53-12.26 29.28-3.27 7.75-9.05 13.32-15.37 18.65-17.42 14.71-34.59 29.7-51.87 44.58-.4.35-.84.64-1.58 1.2 1.3.74 2.25 1.28 3.2 1.82 3.6 2.03 7.33 3.85 10.77 6.12 5.36 3.55 5.36 5.95.5 10.04-8.12 6.82-16.24 13.64-24.28 20.55-1.14.98-2.01 2.41-2.69 3.78-.93 1.89-1.65 3.9-2.3 5.91-2.8 8.67-7.5 16.26-12.78 23.62-5.27 7.37-11.3 14.35-14.3 23.29.24-1.42.43-2.86.72-4.27 1.25-6.12 2.49-12.25 3.82-18.35.29-1.31.67-2.77 1.48-3.76 4.83-5.89 6.72-12.75 6.49-20.14-.46-15.05-.81-30.12-1.98-45.12-.95-12.26.17-24.34 1-36.49 1.09-15.96 1.89-31.95 2.95-47.91 1.12-16.92 2.39-33.83 3.6-50.74.06-.85.33-1.71.22-2.53-.53-3.91 1.46-5.57 4.99-6.59 2.32-.67 3.67-.6 4.81 1.69 2.63 5.31 5.47 10.51 8.15 15.79 3.09 6.1 7.77 8.42 14.37 6.76 1.31-.33 2.65-1.26 3.58-2.28 10.55-11.65 18.02-25.15 22.77-40.03 4.87-15.18 9.12-30.58 13.72-46.19z" fill="#010104"/><path d="m124.99 293.02c-1.69-4.24-2.17-7.58 1.48-11.5 16.22-17.48 32.09-35.3 47.86-53.19 1.79-2.03 2.11-5.34 3.2-8.02.58-1.43 1.27-2.82 2.06-4.14 1.54-2.59 3.54-4.96 4.7-7.69 2.07-4.86 3.4-10.03 5.51-14.87 4.05-9.3 5.62-19.14 6-29.08.56-14.71.47-29.45.53-44.18.03-8.05.11-16.11-.41-24.13-.37-5.84-2.27-11.24-6.5-15.8-4.38-4.73-8.35-9.88-12.22-15.05-3.61-4.82-8.22-8.46-12.77-12.28-2.67-2.24-4.69-5.33-6.71-8.24-.48-.7-.17-2.52.45-3.29 1.81-2.26 3.76-5.75 6.01-6.04 4.62-.6 9.1 1.5 12.68 4.81 5.12 4.75 10.1 9.64 15.31 14.28 3.24 2.88 6.84 5.36 10.17 8.13 11.34 9.43 16.61 21.42 16.15 36.29-.46 14.5-.08 29.02-.23 43.53-.04 3.34-.38 6.77-1.22 9.99-4.95 19.05-10.07 38.05-15.18 57.06-.43 1.61-1.08 3.21-1.87 4.68-2.7 5.04-5.75 9.9-8.24 15.04-4.59 9.51-11.1 17.46-18.69 24.67-13.69 13-27.46 25.89-43.36 36.24-1.49.97-3.08 1.82-4.71 2.78z" fill="#010104"/><g fill="#fbfafa"><path d="m12.4 4.8-6.1 9h6v1.2h-8v-.5l6.1-8.9h-5.7v-1.2h7.6v.4z"/><path d="m14 15v-10.6h3c1.6 0 2.9.5 4 1.4s1.6 2.2 1.6 3.8-.5 3-1.6 3.9-2.4 1.5-4 1.5zm1.4-9.4v8.2h1.6c1.3 0 2.4-.4 3.1-1.1s1.1-1.8 1.1-3.1-.4-2.3-1.2-3-1.8-1-3.1-1z"/><path d="m26.1 4.4v10.6h-1.4v-10.6z"/><path d="m36.1 14.6c-.8.4-1.8.6-2.9.6-1.5 0-2.7-.5-3.6-1.4s-1.4-2.2-1.4-3.8c0-1.7.5-3.1 1.5-4.1s2.3-1.6 3.9-1.6c1 0 1.8.1 2.5.4v1.4c-.8-.4-1.6-.6-2.5-.6-1.2 0-2.1.4-2.9 1.2s-1.1 1.8-1.1 3.2c0 1.3.3 2.3 1 3s1.6 1.1 2.7 1.1c1 0 2-.2 2.7-.7v1.3z"/><path d="m37.6 14.3c0-.2.1-.5.3-.6s.4-.3.6-.3c.3 0 .5.1.6.3s.3.4.3.6-.1.4-.3.6-.4.3-.6.3c-.3 0-.5-.1-.6-.3s-.3-.4-.3-.6z"/><path d="m50.2 15h-1.6l-5.3-8.2c-.2-.2-.3-.5-.4-.7 0 .2.1.7.1 1.5v7.4h-1.4v-10.6h1.7l5.2 8.1c.2.4.4.6.4.7 0-.3-.1-.8-.1-1.5v-7.3h1.4z"/><path d="m58.6 15h-5.7v-10.6h5.5v1.2h-4.1v3.4h3.8v1.2h-3.8v3.6h4.3z"/><path d="m67.1 5.6h-3.1v9.4h-1.4v-9.4h-3v-1.2h7.5z"/></g></svg>