<svg enable-background="new 0 0 400 400" viewBox="0 0 400 400" xmlns="http://www.w3.org/2000/svg"><path d="m2.6 9.9.8-1c.9.7 1.9 1.4 2.9 2.3l-.9 1.1c-1.1-1-2-1.8-2.8-2.4zm.5 10.6c.9-2.1 1.6-4.3 2.3-6.7.4.2.8.4 1.3.6-.7 2.1-1.5 4.3-2.2 6.6zm.3-15.2.9-.9c1 .8 2 1.6 2.8 2.4l-1 1c-.9-.9-1.8-1.7-2.7-2.5zm12.6-1.2h1.2v1.4h2.7v1.1h-2.7v2.7h-1.2v-.6h-1.8v1.3h4.9v3.8h-1.2v-.5h-3.7c0 .4-.1.9-.1 1.2h5.1v1h-5.2c0 .5-.1.9-.2 1.2h6v1h-5.2c1.1 1.3 2.9 2 5.5 2.2-.4.4-.7.8-.9 1.3-2.9-.5-4.8-1.6-5.7-3.5h-.1c-.8 1.7-2.7 2.9-5.9 3.6-.2-.4-.6-.8-.9-1.1 2.8-.6 4.6-1.4 5.4-2.5h-4.8v-1h5.3c.1-.3.2-.7.2-1.2h-4.9v-1h5c0-.4 0-.8.1-1.2h-3.6v.5h-1.2v-3.8h4.9v-1.3h-1.8v.5h-1.2v-2.7h-2.7v-1h2.7v-1.4h1.2v1.4h4.8zm-6.7 8.3h3.6c0-.4 0-.9 0-1.4h-3.6zm1.9-4.6h4.8v-1.3h-4.7v1.3zm6.7 3.2h-3.7v1.4h3.7z" fill="#fcfafa"/><path d="m8.7 22.1h1.3v2.2h2.8v-2.2h1.3v2.2h4.1v9.1h1.7v1.3h-17v-1.3h1.7v-9.1h4.1zm.3 13.1.7 1.2c-1.8.9-3.8 1.9-6 2.9-.2-.4-.5-.8-.8-1.3 2.3-1 4.4-1.9 6.1-2.8zm-3.1-6.4h2.8v-3.2h-2.8zm0 4.6h2.8v-3.3h-2.8zm4.1-4.6h2.8v-3.2h-2.8zm0 4.6h2.8v-3.3h-2.8zm3.6 1.9c2.1.9 4.1 1.8 6.1 2.7l-.7 1.4c-2.2-1.1-4.2-2-6.1-2.9zm3.2-9.7h-2.8v3.2h2.8zm-2.7 7.8h2.8v-3.3h-2.8z" fill="#fcfafa"/><path d="m201.54 35.58c1.75 2.08 2.86 3.48 4.05 4.81 7.32 8.11 14.65 16.19 21.97 24.3.71.79 1.28 1.69 1.97 2.49 4.01 4.63 6.19 9.73 4.63 16.03-.33 1.33-.15 3.03.39 4.3 3.51 8.2 5.95 16.7 8.07 25.36 1.35 5.49 3.66 10.83 6.13 15.95 4.27 8.88 12.06 13.34 21.34 15.48.98.22 2.25-.25 3.23-.73 8.44-4.18 16.91-8.33 25.24-12.74 3.12-1.65 6.17-2.74 9.65-1.89 6.55 1.59 11.41-1.83 15.56-5.92 8.08-7.94 9.84-17.93 7.91-28.77-.11-.6-.3-1.29-.7-1.71-10.56-11.14-15.96-25.11-21.21-39.09-2.1-5.59-3.17-11.57-4.71-17.38 7.19-1.74 17.91 2.62 21.94 8.56 1.6 2.36 3.04 4.86 4.31 7.41 7.06 14.1 14.1 28.21 21.03 42.37 4.78 9.78 8.82 19.85 7.75 31.04-.5 5.24-1.51 10.47-2.71 15.6-.9 3.84-8.35 7.93-13.94 7.85-3.48-.05-7.09-.14-10.41-1.05-8.3-2.28-14.99.47-21.87 4.97-8.58 5.62-17.79 10.26-26.69 15.39-2.66 1.53-5.18 3.29-7.79 4.91-8.01 4.99-10.42 13.58-13.78 21.53-.33.79-.06 1.89.09 2.82 1.02 6.27 2.16 12.53 3.11 18.81.38 2.49.82 5.11.46 7.55-1.15 7.71.78 15.17 1.18 22.75.67 12.68.54 25.41.79 38.12.14 7.09.49 14.18.48 21.26 0 2.02-.67 4.17-1.53 6.02-3.12 6.68-8.19 11.79-13.88 16.33-4.72 3.77-9.48 7.5-14.17 11.3-7.35 5.94-13.56 12.81-16.98 21.79-1.45 3.81-4.33 5.7-8.07 5.48-7.58-.45-15.13-1.43-22.7-2.15-7.88-.76-14.9-3.59-21.24-8.36-3.21-2.41-6.68-4.5-10.18-6.48-3.71-2.1-6.43-4.59-7.83-8.95-.87-2.71-3.8-4.71-5.59-7.19-1.21-1.67-2.4-3.5-2.97-5.44-5.4-18.45-5.99-37.35-5.25-56.4.44-11.23.44-22.47.77-33.71.04-1.32.69-2.83 1.51-3.89 3.49-4.47 1.76-9.97-3.73-11.13-1.73-.37-3.63-.65-5.33-.33-7.59 1.42-15.14 1.42-22.77.27-11.94-1.79-23.96-3.04-35.83-5.19-9.52-1.72-17.86-6.52-25.58-12.26-1.01-.75-1.72-2.08-2.24-3.29-1.24-2.91-1.76-6.28-3.52-8.8-4.91-7.02-5.11-14.69-4.62-22.77.34-5.66-.16-11.38-.35-17.07-.03-.83-.3-1.68-.61-2.45-.9-2.23-.98-4.01 1.17-5.85 2.74-2.35 2.27-5.96 1.07-8.63-3.02-6.68-1.97-13.36-.74-19.98 1.95-10.51 4.35-20.94 6.71-31.37.25-1.08 1.44-2.04 2.38-2.85.61-.52 1.55-.64 2.34-.95 6.96-2.74 6.84-2.66 11.27 3.25 7.93 10.59 8.81 22.52 7.41 35.11-1.43 12.89-3.48 25.64-7.58 37.94-1.65 4.94-.32 8.89 2.09 12.86 4.57 7.53 11.78 11.38 19.88 13.82 13.36 4.02 26.74 5.08 40.35.84 8.48-2.64 17.2-4.54 25.74-6.99 1.8-.51 3.72-1.63 4.92-3.04 10.83-12.7 17.01-27.42 18.54-44.07.61-6.65 1.18-13.3 1.87-19.95.11-1.11.62-2.23 1.14-3.24 4.18-8.21 8.15-16.54 12.71-24.54 3.62-6.34 5.26-13 5.99-20.15.63-6.08 1.67-12.17 3.15-18.1.76-3.12 2.85-5.94 4.81-9.82zm42.44 199.53c-.84-4.19-2.29-11.53-3.79-18.85-.91-4.44-1.79-8.88-2.87-13.28-.54-2.21-1.36-4.39-2.35-6.44-.27-.56-1.9-1.06-2.49-.77-7.93 3.93-16.44 4.45-25.05 4.8-5.54.23-11.06.26-16.22 3.4-7.22 4.4-14.74 8.38-22.38 12-4.01 1.9-5.62 4.58-5.96 8.71-.73 8.76-1.71 17.49-2.43 26.25-.72 8.82-.32 17.68 5.16 24.99 5.82 7.77 12.51 14.89 18.85 22.28.4.46.96.91 1.53 1.09 7.84 2.4 15.76 4.43 24.04 2.87 10.79-2.04 18.41-9.11 25.69-16.63.41-.42.61-1.11.77-1.71 3.98-14.88 6.43-30 7.5-48.71zm-54.14-76.95c-.12.03-.24.05-.36.08.33 1.18.4 2.52 1.02 3.52 2.18 3.51 4.44 6.97 6.91 10.27.56.75 2.11 1.23 3.11 1.11 4.72-.58 9.41-1.44 14.12-2.14 7.37-1.1 13.88-7.44 15.01-14.79.48-3.14.89-6.29 1.15-9.46.56-6.64.47-13.48-3.44-19.01-3.36-4.75-4.57-9.18-2.73-14.64.3-.88-.27-2.49-.99-3.21-4.22-4.17-8.55-8.23-12.99-12.17-.68-.6-2.34-.82-3.16-.42-4.28 2.08-8.5 4.31-12.6 6.72-.95.56-1.9 1.98-1.97 3.06-1.1 17.03-2.07 34.05-3.08 51.08z" fill="#010100"/></svg>