<svg enable-background="new 0 0 400 400" viewBox="0 0 400 400" xmlns="http://www.w3.org/2000/svg"><path d="m172 355.48c1.76-1.09 3.32-1.6 4.21-2.67 4.82-5.82 11.52-7.91 18.4-9.89 11.7-3.37 23.28-7.15 35.01-10.39 4.82-1.33 8.42-3.96 11.15-7.85 8.06-11.46 13.23-24.09 14.77-38.09.56-5.07.2-5.46-4.47-7.67-6.13-2.9-12.29-5.72-18.35-8.76-2.24-1.13-4.25-1.4-6.63-.54-2.98 1.08-4.55-.06-5.02-3.21-.71-4.79.18-6.27 4.74-7.89 10.77-3.83 21.52-7.73 32.32-11.46 2.27-.78 3.54-2.12 4.07-4.35 2.22-9.33 1.42-18.75.7-28.15-.06-.73-1.26-1.91-1.99-1.96-2.16-.15-4.64-.45-6.48.41-4.77 2.24-9.25 5.09-13.86 7.67-4.51 2.52-8.99 5.08-13.56 7.48-2.99 1.57-6.3 2.58-9.12 4.38-4.55 2.91-7.58 6.77-8.76 12.53-4.86 23.74-15.98 44.75-29.56 64.53-3.19 4.65-8.51 5.76-13.76 6.22-5.17.46-10.37.42-15.55.72-1.92.11-2.27-.8-2.84-2.46-1.54-4.52-.83-7.9 3.6-10.27 1.38-.73 2.56-1.9 3.69-3.01 2.75-2.69 5.76-4.37 9.84-4.19 1.33.06 2.74-1.43 4.08-2.28.33-.21.46-.71.74-1.03 6.5-7.26 9.5-15.64 9.05-25.49-.16-3.37 1.15-6.87 2.1-10.22 2.1-7.4 2.71-14.7 1.77-22.51-1.3-10.79-.95-21.76-1.55-32.65-.27-4.95-1.24-9.87-1.7-14.82-.24-2.57-1.5-3.8-4.2-4.13-1.7 1.99-1.02 4.4-1.09 6.77-.07 2.31-.36 4.86-1.41 6.85-3.51 6.64-7.06 13.31-11.26 19.52-3.22 4.76-7.32 8.96-11.3 13.15-2.02 2.13-4.7 3.61-6.95 5.54-1.62 1.39-3.05 2.85-5.22.24-5.77 10.5-15.51 9.93-25.03 9.79-1.1-.02-2.18-1.12-3.81-2.01-2.77 1.53-4.87-.35-6.99-2.93-3.5-4.25-7.36-8.22-10.86-12.47-.87-1.06-1.39-2.79-1.33-4.18.15-3.1-.28-5.84-1.39-8.86-1.83-5-2.79-10.38-3.53-15.69-2.24-16.11 1.35-31.83 3.28-47.7 1.1-9.03 4.72-17.04 7.72-25.35.25-.7.48-1.4.75-2.09 3.84-10.06 3.12-19.25-4.97-27.18-2.49-2.44-4.68-5.2-6.93-7.88-3.29-3.91-4.96-8.42-4.21-13.53.18-1.19 1.3-2.81 2.36-3.2 2.74-.99 5.73-2.08 8.57-1.95 20.11.91 39.34-4.03 58.47-8.99 19-4.92 38.23-8.52 57.53-11.88 19.72-3.43 39.38-7.18 59.11-10.54 9.08-1.55 18.22-3.04 27.39-3.56 5.68-.32 11.46 1.22 17.33 1.95-1.35 3.27-2.01 6.53-3.85 8.86-1.81 2.29-4.83 3.63-7.42 5.45-.88-1-1.49-1.69-2.25-2.55-2.24 1.67-4.41 3.28-6.69 4.98-.96-1.14-1.76-2.08-2.79-3.3-2.45 5.66-7.33 7.32-12.47 9-12.56 4.12-24.9 8.91-37.5 12.87-10.28 3.24-20.8 5.74-31.24 8.43-5.83 1.5-11.74 2.67-17.58 4.15-1.7.43-3.48 1.13-4.85 2.19-3.06 2.39-2.85 4.48.02 6.99 8.29 7.24 13.36 16.54 13.74 27.36.27 7.63 3.43 12.98 8.79 18.53.61-4.53 1.27-8.62 1.69-12.74.68-6.75 1.01-13.53 1.81-20.27 1.22-10.18 6.65-14.41 16.88-13.51.83.07 1.67.16 2.63.25.82 4 2.17 7.67 6.39 9.14.76.26 2.28-.08 2.63-.65.36-.6-.03-1.95-.51-2.69-.56-.84-1.58-1.38-2.64-2.24 7.36-5.18 15.17-7.01 23.41-7.41 9.84-.49 19.7-.66 29.52-1.44 4.7-.38 9.34-1.76 13.95-2.89 3.47-.85 6.84-1.29 10.39.32-1.23 6.53-1.67 13.19-7.77 17.69-5.02 3.71-9.54 8.09-14.52 11.86-5.63 4.27-12.04 6.6-19.25 6.28-2.43-.1-4.81.06-6.41-2.49-.44-.69-2.13-.99-3.16-.86-6.42.86-10.53-2.43-14.3-7.07-1.61-1.98-4.19-3.32-6.57-4.44-.69-.32-2.72.86-3.28 1.84-2.43 4.3-2.08 8.92-1 13.59.96 4.12 1.81 8.27 2.52 12.44 1.35 7.9 10.01 16.33 18.18 17.39 6.64.86 13.01.2 19.14-2.97 9.57-4.96 19.32-9.59 28.51-14.12 1.28 1.35 2.51 2.29 3.28 3.53.9 1.44 1.93 3.12 1.95 4.71.05 4.34-.34 8.68-.71 13.01-.09 1.1-.65 2.22-1.21 3.2-1.78 3.13-3.77 6.15-5.48 9.31-1.6 2.96-3.59 5.39-6.52 7.16-1.07.65-1.88 1.96-2.46 3.15-4.05 8.31-5.81 17.25-6.63 26.35-.95 10.43-1.56 20.89-2.35 31.62 5.53 1.33 10.56 2.48 15.54 3.75 5.96 1.53 8.46 4.39 8.72 9.93-.55.11-1.15.39-1.71.31-6.39-.92-11.02 2.43-15.15 6.52-5.64 5.58-11.09 11.36-16.51 17.15-.69.74-.99 2.09-1.01 3.17-.19 8.24-2.47 15.8-6.53 22.97-3.91 6.91-7.54 14.01-8.46 22.1-.1.84-.21 1.68-.28 2.53-.04.52-.01 1.04-.01 1.76 6.03 1.7 11.95 1.48 17.94.23 7.35-1.53 14.7-3.15 22.13-4.17 3.93-.54 8.04-.01 12.04.33.86.07 2.19 1.29 2.31 2.12.69 4.5 1.16 9.04 1.47 13.58.07 1.07-.52 2.41-1.23 3.28-2.68 3.27-6.09 5.21-10.32 6.26-8.73 2.17-17.26 5.12-26.01 7.22-4.46 1.07-9.19 1.34-13.79 1.27-1.56-.02-3.25-2-4.61-3.36-3.8-3.8-3.74-3.85-1.43-8.58.23-.48.64-.94.67-1.43.08-1.3.01-2.61 0-3.92-1.74.38-4.45.23-5.02 1.26-1.38 2.48-2.32 5.49-2.43 8.33-.33 8.73-.19 9.25-8.88 8.63-17.71-1.26-34.4 3.84-51.39 7.22-1.01.2-2.27.56-3.06.15-2.61-1.36-4.98-2.19-7.63.01-.4.33-2.32-.39-2.81-1.12-1.99-2.94-3.75-6.15-5.64-9.33zm-24.1-178.08c-.78 1.44-1.19 2.96-2.17 3.86-6.73 6.14-14.74 7.84-23.59 6.54-3.13-.46-6.31-1-9.44-.88-4.4.17-5.56 1.8-5.34 6.15.06 1.16.03 2.33.14 3.49.66 6.88 1.36 13.77 6.21 19.26.89 1.01 2.29 1.88 3.6 2.18 9.25 2.08 16.85-.89 23-7.92 5.64-6.45 11.41-12.81 16.8-19.47 1.79-2.21 2.88-5.14 3.75-7.91.9-2.83-.11-3.8-3.03-3.03-3.75.99-7.05.75-9.83-2.21-.16-.19-.51-.22-.1-.06zm-15.43-9.14c13.16 1.67 24.36-2.8 34.3-11.07 3.98-3.31 5.66-11.66 3.43-16.3-.99-2.07-2.19-3.05-4.74-1.94-6.78 2.95-13.82 5.34-20.49 8.51-5.75 2.72-11.67 3.54-17.84 3.39-3.99-.1-7.45 1.14-10.59 3.54-3.67 2.8-3.8 7.27-.43 10.49 2.59 2.46 5.34 3.91 9.07 3.44 2.39-.31 4.86-.06 7.29-.06zm5.12-47.31c.02.33.05.66.07.99 7.01-.77 14.07-1.24 21.02-2.42 5.39-.92 6.44-3.6 4.13-8.76-.68-1.52-1.47-3.24-2.72-4.22-4.36-3.44-8.76-6.9-13.51-9.75-3.46-2.08-7.46-2.52-11.6-1.12-2.15.73-4.64.39-6.9.89-2.75.61-5.45 1.5-8.09 2.5-.67.25-1.53 1.49-1.41 2.09 1.14 5.77 2.42 11.51 3.78 17.23.49 2.06 2.13 2.63 4.13 2.6 3.7-.08 7.4-.03 11.1-.03zm71.58 22.38c-.4.11-.79.21-1.19.32.41 2.19.82 4.38 1.22 6.57.64 3.59 1.86 7.18 1.79 10.76-.14 7.72-1.03 15.42-1.46 23.13-.36 6.53.46 12.92 2.56 19.44 7.78-5.53 15.2-10.8 22.6-16.07 3.42-2.44 3.87-6.61.98-9.76-1-1.08-2.31-1.87-3.32-2.94-3.02-3.2-6.31-6.23-8.84-9.79-5.02-7.05-9.59-14.42-14.34-21.66z" fill="#010104"/><g fill="#fbfafa"><path d="m12.4 4.8-6.1 9h6v1.2h-8v-.5l6.1-8.9h-5.7v-1.2h7.6v.4z"/><path d="m14 15v-10.6h3c1.6 0 2.9.5 4 1.4s1.6 2.2 1.6 3.8-.5 3-1.6 3.9-2.4 1.5-4 1.5zm1.4-9.4v8.2h1.6c1.3 0 2.4-.4 3.1-1.1s1.1-1.8 1.1-3.1-.4-2.3-1.2-3-1.8-1-3.1-1z"/><path d="m26.1 4.4v10.6h-1.4v-10.6z"/><path d="m36.1 14.6c-.8.4-1.8.6-2.9.6-1.5 0-2.7-.5-3.6-1.4s-1.4-2.2-1.4-3.8c0-1.7.5-3.1 1.5-4.1s2.3-1.6 3.9-1.6c1 0 1.8.1 2.5.4v1.4c-.8-.4-1.6-.6-2.5-.6-1.2 0-2.1.4-2.9 1.2s-1.1 1.8-1.1 3.2c0 1.3.3 2.3 1 3s1.6 1.1 2.7 1.1c1 0 2-.2 2.7-.7v1.3z"/><path d="m37.6 14.3c0-.2.1-.5.3-.6s.4-.3.6-.3c.3 0 .5.1.6.3s.3.4.3.6-.1.4-.3.6-.4.3-.6.3c-.3 0-.5-.1-.6-.3s-.3-.4-.3-.6z"/><path d="m50.2 15h-1.6l-5.3-8.2c-.2-.2-.3-.5-.4-.7 0 .2.1.7.1 1.5v7.4h-1.4v-10.6h1.7l5.2 8.1c.2.4.4.6.4.7 0-.3-.1-.8-.1-1.5v-7.3h1.4z"/><path d="m58.6 15h-5.7v-10.6h5.5v1.2h-4.1v3.4h3.8v1.2h-3.8v3.6h4.3z"/><path d="m67.1 5.6h-3.1v9.4h-1.4v-9.4h-3v-1.2h7.5z"/></g></svg>