<svg enable-background="new 0 0 400 400" viewBox="0 0 400 400" xmlns="http://www.w3.org/2000/svg"><path d="m98.19 360.41c4.54-5.25 9.47-9.74 16.72-11.19 5.06-1.02 9.86-3.29 14.91-4.39 6.9-1.5 13.99-2.12 20.87-3.67 8.46-1.9 16.79-4.35 25.17-6.61 14.5-3.92 28.98-7.97 43.51-11.77 3.1-.81 5.54-2.36 6.2-5.24 1.3-5.63 2.03-11.4 2.83-17.13.1-.69-.65-1.96-1.3-2.22-3.48-1.37-6.99-3.23-10.61-3.55-5.27-.48-9.8-1.79-13.9-5.27-3.55-3.02-7.61-5.44-11.78-8.36.23-2.79 2.54-4.97 5.87-6.05 4.61-1.51 9.27-2.9 13.96-4.11 3.89-1.01 7.83-1.99 11.81-2.43 4.69-.52 9.46-.69 14.17-.53 2.43.08 3.69-.69 4.78-2.67 3.41-6.23 4.37-13.08 4.6-19.96.25-7.29-.08-14.61-.43-21.9-.19-3.88-1.21-4.27-4.52-2.42-3.79 2.12-7.62 4.18-11.32 6.45-2.43 1.49-4.88 2.51-7.76 2.06-1.87-.29-2.82.6-3.74 2.16-4.94 8.4-10.05 16.71-14.98 25.11-1.05 1.79-2.3 2.49-4.32 3.05-5.35 1.5-10.53 3.61-15.79 5.44-14.3 4.97-28.68 5.58-42.27-1.58-8.03-4.23-16.13-9-21.14-17.25-.52-.86-1.35-1.99-2.18-2.11-3.16-.49-4.55-2.72-5.95-5.15-5.43-9.46-11.47-18.63-16.14-28.44-2.45-5.16-3.03-11.4-3.57-17.23-.69-7.48-.56-15.04-.62-22.56-.01-1.37.78-2.74 1.21-4.17-.5-2.21-1.57-4.77-1.57-7.33-.02-19.19.17-38.38.31-57.58.01-1.91.1-3.81.16-5.72.11-3.7-1.28-4.77-4.88-3.98-2.93.64-5.9 1.11-9.49 1.77.26-4.42.47-7.96.7-11.51.02-.29.16-.67.38-.83 4.16-3.05 7.94-7.15 12.59-8.93 18.78-7.18 37.64-14.26 56.84-20.17 14.52-4.48 29.54-7.43 44.45-10.52 12.75-2.64 25.6-5.04 38.52-6.52 8.23-.94 16.7-.32 25.03.22 7.37.47 14.75 1.48 22.02 2.83 6.18 1.15 10.01 5.98 9.1 12.09-1.1 7.38-3.28 14.61-5.18 21.86-.16.62-1.78 1.21-2.73 1.22-8.16.1-16.33-.02-24.5.07-12.2.13-24.37.55-36.06 4.72-1.04.37-2.35.34-3.45.11-9.93-2.08-19.62-.03-29.26 1.88-4.81.95-9.46 2.74-14.61 4.28 3.56 4.61 6.43 8.68 9.66 12.45 3.36 3.92 7.33 6.18 12.86 3.91 4.38-1.79 8.98-3.07 13.54-4.4 1.48-.43 3.11-.46 4.67-.42 1.36.03 2.8.83 4.06.58 8.1-1.63 15.82 2.05 23.9 1.44 5.65-.43 11.41.54 17.12.84 2.67.14 5.58.37 6.97-2.56 1.65-3.47 1.26-7.12-.71-10.31-1.9-3.07-1.71-4.31 1.64-5.73 5.57-2.36 10.82-.45 16.06 1.23.69.22 1.22 1.12 1.69 1.8 1.45 2.09 2.66 4.37 4.28 6.31 2.13 2.55 2.76 5.03 1.07 8.05-.4.71-.61 2.2-.21 2.57 3.17 2.96 2.67 6.8 1.94 10.16-2.38 10.85-5.47 21.47-10.81 31.37-2.55 4.72-4.31 9.88-6.2 14.93-2.16 5.74-6 9.82-11.24 12.87-5.29 3.08-7.14 7.55-5.41 13.49 1.36 4.66 3.22 9.18 4.98 13.71.36.93 1.2 1.69 1.87 2.48 3.26 3.88 6.75 7.58 9.75 11.64 4.71 6.36 5.97 13.65 4.9 21.44-.42 3.03-.84 6.14 1.37 8.82.3.37.53 1.06.41 1.48-1.51 5.2-1.32 10.87-5.28 15.37-2.62 2.97-4.58 6.56-6.6 10.02-1.08 1.85-.45 3.49.87 5.43 3.18 4.69 6.09 9.63 8.5 14.75 1.49 3.17 1.02 6.57-2.03 9.21-1.91 1.66-3.74 3.53-5.14 5.62-2.04 3.04-4.9 3.81-8.18 3.83-3.71.03-7.48.36-11.11-.19-7.74-1.17-11.98 3.72-11.85 12.21h3.35 24.82c5.42 0 5.42 0 9.06 3.88 3.84-4.87 9.45-5.12 14.92-5.31 6.88-.24 13.77 0 20.65-.09 2.32-.03 3.88.72 4.56 2.98.88 2.93 2.03 5.82 2.5 8.82.77 4.95-.8 8.99-5.06 12.16-8.18 6.07-17.05 9.23-27.32 8.01-2.83-.34-5.73-.55-8.56-.37-2.09.14-4.13 1.03-6.2 1.57-1.28.33-2.69 1.1-3.85.83-8.03-1.86-15.46.06-22.86 2.96-1.63.64-3.66.28-5.5.38-2.58.14-5.21.02-7.73.48-3.53.65-7 1.68-10.47 2.64-2.67.74-5.23 1.44-7.96-.04-.85-.46-2.26-.14-3.34.11-4.85 1.11-9.77 2.04-14.49 3.56-7.02 2.26-14.07.98-21.13.92-.94-.01-2.13-.29-2.8.16-6.22 4.13-13.13 2.12-19.78 2.4-11.31.47-22.62 1.09-33.94 1.44-3.99.12-8.01-.29-12-.65-3.33-.32-5.91-1.76-6.87-5.51zm108.3-135.71c-1.88-3.59-4.59-5.19-8.08-5.51-4.45-.41-7.96-2.03-8.79-6.05-1.66-.12-2.9.11-3.85-.32-4.53-2.04-8.97-4.28-13.47-6.4-.71-.34-2.08-.79-2.22-.58-1.51 2.28-3.41.89-5.16.71-4.53-.46-9.06-.85-13.57-1.43-6.06-.78-12.22-1.26-18.12-2.74-3.07-.77-5.57-2.28-7.76 1.09-.73-.87-1.22-1.44-1.96-2.32-.57.75-.9 1.31-1.35 1.76-4.92 4.9-5.26 6.43-1.81 12.45 4.25 7.41 10.24 13.08 17.66 17.38 10.61 6.15 22.04 9.67 34.13 11.18 7.46.93 14.77.47 20.59-4.99 4.77-4.48 9.13-9.4 13.76-14.23zm-73.14-133.65c2.99 2.97 5.65 5.54 8.22 8.19.78.81 1.72 1.79 1.91 2.82 1.63 9.03 6.85 16.06 12.49 22.86 4.09 4.93 7.6 10.15 9.68 16.28.91 2.68 2.22 5.24 3.55 7.74s3.25 4.69 2.12 7.92c-.27.78.5 1.96.88 2.93 1.11 2.84 2.7 5.58 3.31 8.52 1.4 6.74 2.25 13.58 3.52 20.35.27 1.44 1.13 2.98 2.16 4.01 3.9 3.89 8.09 7.5 11.95 11.43 1.54 1.57 2.51 3.71 3.77 5.65.84 0 2.46-.43 3.68.09 2.89 1.21 5.73 2.67 8.35 4.39 6.2 4.07 8.95 2.47 10.63-2.55 1.07-3.2 2.43-5.94 5.75-7.48 1.08-.5 1.74-2.07 2.42-3.24.9-1.55 1.54-3.26 2.48-4.78 2.53-4.11 2.04-7.05-2.26-9.31-3.43-1.8-7.24-2.89-10.82-4.42-2.89-1.23-5.69-2.69-8.57-3.95-1.67-.73-3.41-1.7-5.16-1.77-3.54-.16-6.49-.99-9.09-3.63-3.11-3.17-6.74-5.83-9.95-8.91-1.64-1.57-3.16-3.42-4.22-5.41-3.64-6.82-7.09-13.74-10.54-20.66-6.39-12.86-13.92-25.23-16.64-39.65-.42-2.2-1.66-4.37-2.96-6.26-3.04-4.42-5.46-5.07-10.45-3.35-1.88.65-3.77 1.33-6.21 2.19zm20.58 94.08c-1-3.64-1.64-6.76-2.72-9.72-1.44-3.95-3.79-7.12-7.73-9.23-7.73-4.16-15.26-8.7-22.87-13.08-5.12-2.95-10.24-5.88-15.95-9.16-.11 2.47-.5 4.47-.24 6.39 1.36 9.84 2.94 19.65 4.33 29.49.39 2.75 1.91 3.91 4.47 4.47 10.63 2.31 21.39 2.88 32.21 2.33 2.71-.14 5.37-.92 8.5-1.49zm42.4-48.05c4.12 6.88 8.45 12.84 16.58 15.02 3.66.98 7.03 2.81 11.01 2.13 4.07-.7 8.21-1.03 12.23-1.91 4.72-1.03 9.71-1.67 13.28-5.48 2.9-3.09 5.56-6.41 8.48-9.47 1.52-1.59 1.45-3.16.15-4.45-1.14-1.13-2.72-2.34-4.22-2.51-12.07-1.34-24.16-3.04-36.26-.11-7.17 1.73-14.52 2.91-21.25 6.78zm-65.35-2.24c0-3.34.54-6.5-.1-9.41-2.4-11.04-5.15-22-7.87-32.97-.17-.69-1.13-1.51-1.86-1.68-6.06-1.37-12.11-2.58-18.25-.08-2.74 1.12-4.8 2.16-4.37 5.8.55 4.62.29 9.33.88 13.94.51 3.95 1.57 7.85 2.67 11.7.69 2.43 2.39 3.96 5 4.79 6.85 2.16 13.61 4.63 20.41 6.96 1.07.35 2.19.59 3.49.95zm110.13 43.25c-.03-2.46-.15-4.47-3.41-4.65-.14 1.63-.26 3.08-.4 4.65zm-102.74 60.75c-.37 1.1-.7 2.08-1.22 3.64 2.63-.83 4.59-1.44 6.54-2.06-.05-.19-.1-.38-.15-.56-1.52-.3-3.05-.6-5.17-1.02z" fill="#010104"/><g fill="#fbfafa"><path d="m12.4 4.8-6.1 9h6v1.2h-8v-.5l6.1-8.9h-5.7v-1.2h7.6v.4z"/><path d="m14 15v-10.6h3c1.6 0 2.9.5 4 1.4s1.6 2.2 1.6 3.8-.5 3-1.6 3.9-2.4 1.5-4 1.5zm1.4-9.4v8.2h1.6c1.3 0 2.4-.4 3.1-1.1s1.1-1.8 1.1-3.1-.4-2.3-1.2-3-1.8-1-3.1-1z"/><path d="m26.1 4.4v10.6h-1.4v-10.6z"/><path d="m36.1 14.6c-.8.4-1.8.6-2.9.6-1.5 0-2.7-.5-3.6-1.4s-1.4-2.2-1.4-3.8c0-1.7.5-3.1 1.5-4.1s2.3-1.6 3.9-1.6c1 0 1.8.1 2.5.4v1.4c-.8-.4-1.6-.6-2.5-.6-1.2 0-2.1.4-2.9 1.2s-1.1 1.8-1.1 3.2c0 1.3.3 2.3 1 3s1.6 1.1 2.7 1.1c1 0 2-.2 2.7-.7v1.3z"/><path d="m37.6 14.3c0-.2.1-.5.3-.6s.4-.3.6-.3c.3 0 .5.1.6.3s.3.4.3.6-.1.4-.3.6-.4.3-.6.3c-.3 0-.5-.1-.6-.3s-.3-.4-.3-.6z"/><path d="m50.2 15h-1.6l-5.3-8.2c-.2-.2-.3-.5-.4-.7 0 .2.1.7.1 1.5v7.4h-1.4v-10.6h1.7l5.2 8.1c.2.4.4.6.4.7 0-.3-.1-.8-.1-1.5v-7.3h1.4z"/><path d="m58.6 15h-5.7v-10.6h5.5v1.2h-4.1v3.4h3.8v1.2h-3.8v3.6h4.3z"/><path d="m67.1 5.6h-3.1v9.4h-1.4v-9.4h-3v-1.2h7.5z"/></g></svg>