<svg enable-background="new 0 0 400 400" viewBox="0 0 400 400" xmlns="http://www.w3.org/2000/svg"><path d="m2.6 9.9.8-1c.9.7 1.9 1.4 2.9 2.3l-.9 1.1c-1.1-1-2-1.8-2.8-2.4zm.5 10.6c.9-2.1 1.6-4.3 2.3-6.7.4.2.8.4 1.3.6-.7 2.1-1.5 4.3-2.2 6.6zm.3-15.2.9-.9c1 .8 2 1.6 2.8 2.4l-1 1c-.9-.9-1.8-1.7-2.7-2.5zm12.6-1.2h1.2v1.4h2.7v1.1h-2.7v2.7h-1.2v-.6h-1.8v1.3h4.9v3.8h-1.2v-.5h-3.7c0 .4-.1.9-.1 1.2h5.1v1h-5.2c0 .5-.1.9-.2 1.2h6v1h-5.2c1.1 1.3 2.9 2 5.5 2.2-.4.4-.7.8-.9 1.3-2.9-.5-4.8-1.6-5.7-3.5h-.1c-.8 1.7-2.7 2.9-5.9 3.6-.2-.4-.6-.8-.9-1.1 2.8-.6 4.6-1.4 5.4-2.5h-4.8v-1h5.3c.1-.3.2-.7.2-1.2h-4.9v-1h5c0-.4 0-.8.1-1.2h-3.6v.5h-1.2v-3.8h4.9v-1.3h-1.8v.5h-1.2v-2.7h-2.7v-1h2.7v-1.4h1.2v1.4h4.8zm-6.7 8.3h3.6c0-.4 0-.9 0-1.4h-3.6zm1.9-4.6h4.8v-1.3h-4.7v1.3zm6.7 3.2h-3.7v1.4h3.7z" fill="#fcfafa"/><path d="m8.7 22.1h1.3v2.2h2.8v-2.2h1.3v2.2h4.1v9.1h1.7v1.3h-17v-1.3h1.7v-9.1h4.1zm.3 13.1.7 1.2c-1.8.9-3.8 1.9-6 2.9-.2-.4-.5-.8-.8-1.3 2.3-1 4.4-1.9 6.1-2.8zm-3.1-6.4h2.8v-3.2h-2.8zm0 4.6h2.8v-3.3h-2.8zm4.1-4.6h2.8v-3.2h-2.8zm0 4.6h2.8v-3.3h-2.8zm3.6 1.9c2.1.9 4.1 1.8 6.1 2.7l-.7 1.4c-2.2-1.1-4.2-2-6.1-2.9zm3.2-9.7h-2.8v3.2h2.8zm-2.7 7.8h2.8v-3.3h-2.8z" fill="#fcfafa"/><g fill="#010100"><path d="m267.86 139.85c-3.96.24-6.79-1.58-7.96-4.76-.25-.67-.59-1.33-1.03-1.89-1.81-2.31-3.73-4.54-5.51-6.87-3.45-4.51-6.7-9.19-10.3-13.59-5.57-6.81-13.6-9.75-21.41-12.96-2.01-.83-6.17.89-7.13 2.85-1.34 2.73-.57 6.06 1.99 7.35 3.14 1.58 5.52 3.8 7.21 6.87 2.12 3.86 4.94 7.09 8.78 9.39.88.53 1.67 1.35 2.24 2.2 9.99 14.8 22.7 27.09 36.03 38.78 1.76 1.54 2.55 3.1 2.28 5.47-.44 3.86-.58 7.76-.92 12.71-3.33-1.92-6.45-3.09-8.78-5.16-7.6-6.77-14.86-13.91-22.35-20.8-2-1.84-4.39-3.26-6.55-4.93-.8-.62-1.87-1.31-2.1-2.16-.85-3.14-3.27-4.67-5.59-6.56-3.46-2.82-6.51-6.15-9.72-9.27-4.47-4.34-8.92-8.69-13.38-13.04-1.21-1.18-2.27-2.56-3.63-3.51-2.27-1.59-4.45-2.21-7.13-.06-3.22 2.58-6.93 4.51-11.41 3.99-.69-.08-1.75.37-2.17.92-1.89 2.53-4.5 2.94-7.35 2.84-.11 0-.21 0-.32 0-9.79-.44-12.3 1.51-13.96 13.18-.78 5.5-2.12 10.96-3.7 16.28-1.16 3.91-4.19 6.6-7.94 8.23-5.5 2.39-10.42 5.59-14.55 9.96-.65.69-1.4 1.53-2.24 1.72-2.39.55-5.77 1.92-7.04.88-1.64-1.35-1.75-4.7-2.19-7.25-.1-.57 1.05-1.46 1.75-2.06 4.67-4 9.25-8.12 14.09-11.9 6.8-5.32 7.22-13.4 5.38-21.81-.32-1.46-3.04-2.39-5.03-3.83-1.92 3.16-3.48 5.88-5.19 8.51-1.55 2.38-3.16 4.75-4.95 6.96-2.01 2.49-4.81 1.62-7.41 1.28-.33-.04-.7-.44-.89-.77-.2-.35-.21-.81-.32-1.22-1.28-4.54-1.52-8.21 3.23-11.71 5.64-4.16 9.53-10.19 11.25-17.26.68-2.8.9-5.47-.45-8.32-.86-1.81-.96-4.16-.85-6.23.46-8.96-3.82-15.44-10.36-20.9-2.91-2.43-3.62-5.7-2.97-12.04 2.51-1.37 3.88-1.05 5.7 1.74 2.96 4.56 6.98 8.44 10.59 12.58.83.96 2.37 1.69 2.58 2.74 1.13 5.53 6.29 7.78 9.24 11.81 1.61 2.2 3.53 2.73 5.95.83 3.89-3.06 8.14-5.58 11.09-9.85 1.07-1.55 3.73-2.31 5.81-2.79 2.17-.5 2.37-1.85 2.43-3.46.06-1.7.73-3.77-1.92-4.28-3.28-.64-5-2.86-6.69-5.64-5.04-8.31-10.37-16.46-15.77-24.55-1.33-1.99-3.23-3.64-5.05-5.23-3.59-3.13-3.79-4.29-.89-8.37 5.25 1.78 9.11 5.33 12.57 9.59 5.07 6.24 10.3 12.35 15.59 18.4.98 1.12 2.69 1.57 3.85 2.58 1.64 1.42 3.31 2.89 4.55 4.64 3.03 4.27 4.31 4.97 9.3 3.31 3.88-1.29 7.56-3.19 11.44-4.48 3.07-1.02 6.29-1.98 9.48-2.13 4.64-.22 9.32.2 13.96.61 1.17.1 2.71.94 3.29 1.91 1.4 2.33 2.62 4.85 3.4 7.45 1.46 4.88 3.83 9 8.4 11.46 10.5 5.64 17.93 14.7 25.96 23.09 7.88 8.21 8.3 18.02 5.69 28.53zm-102.08-31.64c.45 2.27.94 4.52 1.33 6.8.4 2.38 1.86 2.67 3.92 2.3 4.89-.88 8.72-3.63 12.3-6.81 3.34-2.96 3.31-5.89.04-9.01-2.9-2.77-6.14-3.24-9.8-1.41-1.23.61-2.4 1.38-3.69 1.81-3.09 1.05-4.44 3.03-4.1 6.32zm33.3-22.78c.33 1.79.02 4.38 3.1 4.62 2.75.22 7.44-3.71 7.58-6.15.16-2.62-2.03-3.92-6.71-4-2.45-.03-3.91 1.89-3.97 5.53z"/><path d="m185.97 136.01c6.31.05 8.95 2.04 9.87 7.52.82 4.84 3.81 7.8 7.84 10.14 9.3 5.41 19.7 7.58 29.94 10.12 4.49 1.12 7.34 3.31 8.6 7.73 1.65 5.79 3.6 11.51 4.93 17.37.4 1.75-.83 3.87-1.34 5.82-.05.19-.22.37-.36.52-3.29 3.52-4.77 9.14-10.89 9.39-.27.01-.54.31-.8.5-11.17 8.25-23.82 13.7-36.45 19.16-1.78.77-3.86 1.02-5.83 1.18-8.44.66-16.91 1.02-25.34 1.82-11.47 1.09-21.98-2.34-32.42-6.33-1.28-.49-2.51-1.16-3.81-1.57-2.64-.84-3.59-2.83-3.68-5.33-.22-6 2.16-11.26 5.62-15.82 4.15-5.48 8.66-10.77 13.59-15.55 3.76-3.65 8.61-6.15 12.61-9.59 4.47-3.85 8.48-8.23 12.78-12.28 1.11-1.04 2.48-2.22 3.89-2.47 6.75-1.2 7.9-7.68 11.53-11.81.19-.22.16-.94-.05-1.15-3.08-3.05-.61-6.11-.23-9.37zm7.73 26.93c-.36.32-.93.79-1.47 1.29-3.18 2.91-2.56 5.88 1.58 7.39.88.32 1.85.57 2.78.6 5.92.23 10.58 2.68 14.57 7.14 2.62 2.92 5.39 5.32 4.1 9.77-.27.92.22 2.08.4 3.12.74 4.15-.71 6.48-4.88 7.23-2.7.48-5.51.35-8.2.84-2.31.42-4.58 1.19-6.76 2.07-1.93.77-3.89 2.96-5.54 2.69-6.93-1.11-14.44.97-20.81-3.76-1.45-1.07-3.86-.87-5.84-1.2-2.4-.41-4.83-.68-6.39-2.95-1.9-2.77-4.3-2.32-6.59-.71-1.54 1.09-3.01 2.41-4.15 3.9-2.43 3.17-2.23 7.42.53 8.7 3.88 1.8 7.72 3.5 12.4 3.09 10.42-.93 20.88-2.18 31.38-.62 1.13.17 2.34.04 3.47-.17 14.21-2.64 26.41-9.36 37.51-18.39 2.01-1.63 2.46-3.53 2.13-5.9-.85-6-4.69-9.78-9.84-11.98-9.87-4.23-19.94-8-30.38-12.15zm8.18 27.53c.2-.47.4-.93.61-1.4-2.81-2.94-5.33-6.24-8.49-8.73-8.3-6.54-17.62-6.19-25.45.89-1.28 1.16-1.94 3.73-1.79 5.55.17 2.01 1.98 3.21 4.35 3.34 7.16.39 14.31 1.14 21.48 1.39 3.08.1 6.19-.67 9.29-1.04z"/><path d="m135.28 292.03c4.88 3.84 9.3 6.64 12.85 10.29 4.32 4.44 9.43 6.34 15.28 6.55 3.89.14 7.82-.21 11.7-.59.95-.09 2.05-1 2.66-1.84 2.3-3.17 4.37-6.51 6.65-9.7 1.99-2.78 3.68-5.34 2.63-9.24-.49-1.81 1.13-4.15 1.71-6.28 1.2-4.46 2.55-8.91 3.38-13.44.23-1.26-1.06-2.86-1.8-4.23-.34-.62-1.07-1.02-1.54-1.59-2.66-3.29-2.36-4.48 1.5-6.1 6.56-2.75 7.39-2.56 12.18 2.81.56.63 1.02 1.42 1.71 1.88 9.9 6.55 11.75 17.54 15.26 27.61.14.4.13.84.24 1.25 1.34 5.1 2.12 5.56 7.31 5.76 3.71.14 6.93-.96 10.35-2.25 5.6-2.1 11.54-3.29 17.28-5.02 1.6-.48 3.23-1.28 4.52-2.34 4.57-3.74 8.78-7.96 13.56-11.4 3.4-2.44 5.97-1 6.56 3.22.58 4.16.61 8.15-4.07 10.55-2.61 1.34-4.73 3.59-7.24 5.15-1.83 1.13-3.97 1.78-5.95 2.69-1.33.61-2.83 1.06-3.92 1.97-7.21 6.03-15.35 9.95-24.62 11.69-4.06.76-6.12 3.55-5.42 7.57.71 4.09 2.36 8 3.35 12.05.55 2.22 1.16 4.68.76 6.85-1.32 7.18-3.88 13.88-10 18.48-4.89 3.67-9.87 7.23-14.98 10.57-2.32 1.52-4.99 1.44-7.47-.21-.96-.64-2.04-1.29-3.15-1.48-9.66-1.65-13.8-10.02-19.39-16.36-1.88-2.13-1.67-6.21-2.14-9.44-.57-3.87-1.03-7.78-1.23-11.69-.17-3.38-2.16-4.34-4.99-4.44-1.15-.04-2.32.21-3.47.37-3.97.55-7.29-.42-10.55-3.04-3.77-3.03-8-5.56-12.29-7.81-4.09-2.16-6.2-5.26-6.54-9.75-.18-2.75-.4-5.46-.68-9.07zm71.53 59.59c2.15-.7 4.25-.85 5.63-1.93 3.65-2.85 7.19-5.91 10.35-9.29 1.21-1.3 1.51-3.65 1.71-5.58.1-.92-.83-2.62-1.58-2.8-.96-.24-2.66.35-3.27 1.16-1.99 2.62-3.54 1.3-4.69-.46-.81-1.24-1.06-2.92-1.29-4.45-.32-2.19-.09-4.49-.65-6.6-1.01-3.83-3.9-4.67-7.51-3.44-3.2 1.09-6.71 1.28-10.09 1.81-2.38.37-4.87.35-7.15 1.04-3.55 1.08-6.37 6.51-5.04 9.89 1.94 4.9 4.28 9.63 6.55 14.39.38.8 1.14 1.74 1.92 1.98 5.04 1.53 10.13 2.89 15.11 4.28zm-7.73-67.22c-3.86 6.44-5.4 11.33-4.93 16.22.11 1.16.48 2.8 1.29 3.28 2.48 1.47 5.22 1.44 7.87.09 2.45-1.25 4.04-2.93 3.58-5.97-.33-2.19-.37-4.42-.7-6.6-.66-4.31-2.41-6.02-7.11-7.02z"/><path d="m277.13 244.33c-4.99-1.95-10.56-2.16-15.05-5.94-3.98-3.35-9.08-4.4-14.18-5.04-.41-.05-1-.13-1.23.09-3.13 3.06-6.75.98-10.18 1.25-6.9.55-13.96 1.24-20.51 3.28-6.29 1.96-12.1 5.39-18.84 6.31-2.78.38-5.41 1.78-8.12 2.68-.99.33-2.06.9-3.03.77-4.17-.53-7.54 1.23-11.02 3.16-7.24 4.02-14.79 7.25-23.03 8.82-4.45.85-8.73 2.59-13.14 3.67-2.54.62-5.21.78-7.83 1.06-2.96.32-4.99-1.08-5.8-3.83-.9-3.05-2.39-6.14.5-9.17 1.86-1.95 3.95-2.85 6.52-3.43 3.78-.85 7.45-2.2 11.14-3.39 8.34-2.68 16.7-5.31 25-8.11 13.44-4.53 26.84-9.18 40.26-13.77.99-.34 2.06-.84 3.05-.76 7.81.63 15.03-2.14 22.47-3.65 1.84-.37 3.78-.57 5.64-.43 11.04.82 21.85 3.05 32.68 5.27 3.73.76 5.48 2.7 6.4 6 1.06 3.81.32 10.95-1.7 15.16z"/></g></svg>