<svg enable-background="new 0 0 400 400" viewBox="0 0 400 400" xmlns="http://www.w3.org/2000/svg"><path d="m2.6 9.9.8-1c.9.7 1.9 1.4 2.9 2.3l-.9 1.1c-1.1-1-2-1.8-2.8-2.4zm.5 10.6c.9-2.1 1.6-4.3 2.3-6.7.4.2.8.4 1.3.6-.7 2.1-1.5 4.3-2.2 6.6zm.3-15.2.9-.9c1 .8 2 1.6 2.8 2.4l-1 1c-.9-.9-1.8-1.7-2.7-2.5zm12.6-1.2h1.2v1.4h2.7v1.1h-2.7v2.7h-1.2v-.6h-1.8v1.3h4.9v3.8h-1.2v-.5h-3.7c0 .4-.1.9-.1 1.2h5.1v1h-5.2c0 .5-.1.9-.2 1.2h6v1h-5.2c1.1 1.3 2.9 2 5.5 2.2-.4.4-.7.8-.9 1.3-2.9-.5-4.8-1.6-5.7-3.5h-.1c-.8 1.7-2.7 2.9-5.9 3.6-.2-.4-.6-.8-.9-1.1 2.8-.6 4.6-1.4 5.4-2.5h-4.8v-1h5.3c.1-.3.2-.7.2-1.2h-4.9v-1h5c0-.4 0-.8.1-1.2h-3.6v.5h-1.2v-3.8h4.9v-1.3h-1.8v.5h-1.2v-2.7h-2.7v-1h2.7v-1.4h1.2v1.4h4.8zm-6.7 8.3h3.6c0-.4 0-.9 0-1.4h-3.6zm1.9-4.6h4.8v-1.3h-4.7v1.3zm6.7 3.2h-3.7v1.4h3.7z" fill="#fcfafa"/><path d="m8.7 22.1h1.3v2.2h2.8v-2.2h1.3v2.2h4.1v9.1h1.7v1.3h-17v-1.3h1.7v-9.1h4.1zm.3 13.1.7 1.2c-1.8.9-3.8 1.9-6 2.9-.2-.4-.5-.8-.8-1.3 2.3-1 4.4-1.9 6.1-2.8zm-3.1-6.4h2.8v-3.2h-2.8zm0 4.6h2.8v-3.3h-2.8zm4.1-4.6h2.8v-3.2h-2.8zm0 4.6h2.8v-3.3h-2.8zm3.6 1.9c2.1.9 4.1 1.8 6.1 2.7l-.7 1.4c-2.2-1.1-4.2-2-6.1-2.9zm3.2-9.7h-2.8v3.2h2.8zm-2.7 7.8h2.8v-3.3h-2.8z" fill="#fcfafa"/><g fill="#010100"><path d="m253.37 202.57c2.84 1.2 3.89 3.36 4.37 6.01.97 5.31 1.72 10.68 3.12 15.88 2.57 9.5.61 19 .24 28.46-.12 2.99-2.68 5.97-4.42 8.77-.99 1.59-2.65 2.74-3.86 4.21-7.25 8.86-15.76 15.86-26.92 19.38-8.86 2.8-12.3 9.29-11.34 18.38.23 2.21.21 4.45.18 6.67-.08 5.86-1.54 11.29-5.03 16.11-2.73 3.78-5.53 7.52-7.97 11.49-1.9 3.09-3.27 6.5-4.98 9.96 5.23 2.08 9.66 4.14 14.29 5.55 1.96.6 4.6.41 6.49-.42 8.51-3.7 17.07-7.38 25.22-11.8 7.27-3.93 14.16-8.51 22.38-10.3 1.2-.26 2.47-.21 4.79-.39-1.62 2.17-2.45 3.93-3.81 5.02-10.88 8.65-22.15 16.75-34.44 23.3-4.27 2.28-8.68 4.82-13.33 5.78-11.94 2.47-23.5 1.61-32.64-7.88-2.32-2.4-4.42-5.27-5.77-8.29-3.39-7.61-6.45-15.25-5.72-24.05.66-7.89.14-15.87.14-24.2-8.11-1.98-16.68-2.62-25.36-2.91-4.54-.15-9.14-1.33-13.52-2.69-3.47-1.07-5.08-3.84-6.06-7.7-2.55-10-.25-18.71 4.92-27.23 4.27-7.04 7.99-14.42 12.15-21.53.75-1.27 2.48-1.97 3.76-2.93.69 1.23 1.82 2.41 1.95 3.7.18 1.81.01 3.87-.7 5.52-1.54 3.57-3.36 7.04-5.37 10.38-3.67 6.1-4.92 12.6-3.5 19.53.56 2.74 2.19 4.55 5.43 4.8 7.68.58 15.35 1.41 23.02 2.18 2.08.21 3.56-.49 4.91-2.15 3.03-3.71 5.19-7.74 5.56-12.57 1.01-13.13 1.4-26.23-2.45-39.06-.77-2.56-.82-4.84 2.21-6.02 3.05-1.19 6.6-.23 8.12 2.23.22.36.4.76.67 1.08 7.34 8.77 7.43 20.15 11.01 30.28 1.82 5.16 3.54 10.43 6.05 15.26 2.55 4.89 7.12 5.33 10.98 1.43 7.21-7.29 15.23-14.07 21.09-22.35 7.18-10.16 11.47-21.93 10.3-34.92-.4-4.44.71-8.39 3.84-11.97zm-47.26 107.55c-.2-3.69-.28-7.39-.68-11.06-.14-1.23-.91-3.23-1.73-3.42-4.87-1.13-9.94-3.1-14.72-.07-2.12 1.35-4.89 3.26-5.37 5.37-3.01 13.3-1.3 26.05 5.93 37.84 1.89 3.08 3.99 3.26 5.82.07 5.12-8.94 10.94-17.69 10.75-28.73zm-11.55-40.15c-3.57 3.07-4.11 6.23-1.73 9.55 6.26-3.27 6.64-5.11 1.73-9.55z"/><path d="m144.34 151.22c.52-.88.84-1.99 1.58-2.59 5.95-4.79 9.05-11.23 11.35-18.34 2.47-7.63 5.64-15.04 8.15-22.66 1.1-3.35 1.46-6.97 1.89-10.5.26-2.16-.99-3.35-3.26-3.21-8.13.51-16.26 1.03-24.39 1.53-2.75.17-5.5.45-8.25.41-3.27-.05-4.93-1.64-5.29-4.76-.34-2.89.26-4.85 3.66-5.87 8.51-2.55 16.79-5.9 25.33-8.35 8.81-2.53 17.83-4.28 26.72-6.54 18.64-4.73 37.46-7.91 56.78-7.66 8.89.11 17.79-.34 26.69-.47 5.19-.07 7.07 3.29 4.72 8.12-1.81 3.71-4.26 5.87-8.76 6.52-13.52 1.93-26.95 4.43-40.4 6.79-4.7.83-6.32 2.1-6.5 6.75-.16 4 .58 8.16 1.64 12.06 1.1 4.06 3.06 7.88 4.62 11.82 1.97 4.99 8.77 9.22 14.01 8.52 1.06-.14 2.14-.83 3.02-1.52 2.32-1.81 5.18-2.05 7.02-.34 1.2 1.12 1.33 4.07 1 6.04-1 6.06-5.87 9.16-11 10.03-3.81.65-8.38-.94-12.11-2.62-7.21-3.25-11.21-9.7-14.47-16.66-2.55-5.42-3.17-11.1-3.31-16.99-.09-3.42-.88-6.88-1.78-10.21-.65-2.39-2.41-3.46-5.18-2.7-2.85.79-5.8 1.3-8.74 1.63-2.46.27-3.67 1.56-3.85 3.81-.18 2.3-.27 4.65-.02 6.93.52 4.93-.25 9.26-3.41 13.4-5.89 7.74-11.09 16.02-17.04 23.71-4.69 6.07-10.41 11.17-17.83 13.91-.59.22-1.19.38-1.79.56-.26-.19-.53-.37-.8-.55z"/><path d="m125.28 244.28c-.13-3.43-.91-6.48-.22-9.14 2.08-7.96 4.5-15.86 7.28-23.6 1.53-4.27 6.06-5.55 9.68-7.69 2.47-1.46 5.06-3.19 6.69-5.46 2.33-3.23 4.28-6.9 5.51-10.67.81-2.49.3-5.51-.03-8.24-.19-1.62-1.32-3.11-1.78-4.74-1.29-4.64-3.76-8.13-8.43-9.97-1.51-.59-2.74-1.91-4.39-3.11 4.14-3 7.63-4.34 11.54-4.41 2.01-.04 4.02.16 6.02.38 9.21 1.02 12.98 4.26 14.5 13.55.58 3.52.07 7.33-.53 10.91-.55 3.31-1.86 6.5-2.87 9.73-.74 2.36.51 3.14 2.42 2.56 6.68-2.02 13.32-4.18 19.91-6.49.88-.31 1.51-1.68 2-2.68 7.18-14.66 14.87-29.03 23.79-42.72.69-1.06 1.35-2.14 2-3.17 4.3.53 6.55 3.01 6.05 7.3-.79 6.82-1.58 13.6-6.56 19.16-2.34 2.61-3.72 6.11-5.37 9.29-.54 1.05-.55 2.37-.87 3.86 4.82 0 9.26.28 13.65-.07 6.12-.48 12.19-1.62 18.3-2.07 2.05-.15 4.44.5 6.24 1.54 2.99 1.73 3.11 4.54.83 7.23-.68.81-1.35 1.63-2.02 2.44.23.22.46.43.69.65.61-.42 1.23-.83 1.83-1.27.58-.42 1.13-.88 2.02-1.57-.24 1.87-.29 3.35-.67 4.74-.18.65-.96 1.57-1.52 1.61-9.47.58-17.48 5.41-26.07 8.62-6.9 2.58-14.34 3.66-21.37 5.92-11.58 3.72-22.98 7.99-34.54 11.79-8.04 2.64-16.13 5.21-24.35 7.18-5.71 1.37-9 4.69-11.02 9.83-1.41 3.66-3.41 6.83-8.34 8.78z"/><path d="m192.39 60.8c-3.96-1.06-8.02-1.85-11.86-3.24-5.35-1.92-9.24-10.44-7.44-15.9.26-.79 1.31-1.54 2.17-1.89 10.64-4.36 21.78-4.81 33.05-4.08 2.1.14 4.24.42 6.24 1.03 5.28 1.58 6.35 6.21 2.42 9.93-.69.66-1.49 1.23-2.06 1.98-4.72 6.26-11.97 8.39-18.66 11.4-1.08.49-2.47.31-3.71.43-.04.11-.09.22-.15.34z"/></g></svg>