<svg enable-background="new 0 0 400 400" viewBox="0 0 400 400" xmlns="http://www.w3.org/2000/svg"><path d="m2.6 9.9.8-1c.9.7 1.9 1.4 2.9 2.3l-.9 1.1c-1.1-1-2-1.8-2.8-2.4zm.5 10.6c.9-2.1 1.6-4.3 2.3-6.7.4.2.8.4 1.3.6-.7 2.1-1.5 4.3-2.2 6.6zm.3-15.2.9-.9c1 .8 2 1.6 2.8 2.4l-1 1c-.9-.9-1.8-1.7-2.7-2.5zm12.6-1.2h1.2v1.4h2.7v1.1h-2.7v2.7h-1.2v-.6h-1.8v1.3h4.9v3.8h-1.2v-.5h-3.7c0 .4-.1.9-.1 1.2h5.1v1h-5.2c0 .5-.1.9-.2 1.2h6v1h-5.2c1.1 1.3 2.9 2 5.5 2.2-.4.4-.7.8-.9 1.3-2.9-.5-4.8-1.6-5.7-3.5h-.1c-.8 1.7-2.7 2.9-5.9 3.6-.2-.4-.6-.8-.9-1.1 2.8-.6 4.6-1.4 5.4-2.5h-4.8v-1h5.3c.1-.3.2-.7.2-1.2h-4.9v-1h5c0-.4 0-.8.1-1.2h-3.6v.5h-1.2v-3.8h4.9v-1.3h-1.8v.5h-1.2v-2.7h-2.7v-1h2.7v-1.4h1.2v1.4h4.8zm-6.7 8.3h3.6c0-.4 0-.9 0-1.4h-3.6zm1.9-4.6h4.8v-1.3h-4.7v1.3zm6.7 3.2h-3.7v1.4h3.7z" fill="#fcfafa"/><path d="m8.7 22.1h1.3v2.2h2.8v-2.2h1.3v2.2h4.1v9.1h1.7v1.3h-17v-1.3h1.7v-9.1h4.1zm.3 13.1.7 1.2c-1.8.9-3.8 1.9-6 2.9-.2-.4-.5-.8-.8-1.3 2.3-1 4.4-1.9 6.1-2.8zm-3.1-6.4h2.8v-3.2h-2.8zm0 4.6h2.8v-3.3h-2.8zm4.1-4.6h2.8v-3.2h-2.8zm0 4.6h2.8v-3.3h-2.8zm3.6 1.9c2.1.9 4.1 1.8 6.1 2.7l-.7 1.4c-2.2-1.1-4.2-2-6.1-2.9zm3.2-9.7h-2.8v3.2h2.8zm-2.7 7.8h2.8v-3.3h-2.8z" fill="#fcfafa"/><path d="m242.06 365.41c.61-1.63 1.22-3.26 1.86-4.98-2.79-5.69.93-9.85 4.43-14.74-1.17-.29-2.08-.51-3.47-.85.34-8.17.66-17.13 1.15-26.08.05-.88 1.1-1.71 1.94-2.93-4.33-4.85-1.38-10.26-.11-15.61.61-2.6.33-4.84-.26-7.52-2.01-9.06-3.59-18.34.44-27.38.74-1.67 1.04-2.99-1.13-4.05-.45.61-.95 1.3-1.67 2.28-1.14-5.29-2.5-10.18-3.2-15.16-1.42-10.12-5.18-19.34-9.95-28.26-1.14-2.12-2.18-4.42-2.66-6.75-1.19-5.83-3.79-10.85-7.27-15.65-5.01-6.92-10.34-13.66-13.27-21.93-1.45-4.08-7.79-4.3-10.07-.56-5.48 8.94-10.88 17.93-16.2 26.97-.5.85-.2 2.16-.28 3.39-.93 1.41-2.89 3.07-3.08 4.92-.62 6.14-3.73 10.93-7.25 15.62-1.72 2.29-3.62 4.52-2.31 7.75.17.41-.03 1.07-.25 1.52-4.53 9.19-9.08 18.36-13.67 27.53-.27.53-.81.92-1.89 1.15.26-.94.23-2.18.84-2.76 3.36-3.22 3.98-7.4 4.26-11.65.41-6.05 1.85-11.68 5.59-16.59 6.95-9.13 9.52-20.23 13.61-30.63 4.19-10.64 8.04-21.4 12.16-32.06.79-2.05.83-3.63-.96-5.03-.16-.13-.33-.29-.42-.47-2.17-4.35-5.78-5.3-10.16-4.22-1.25.31-2.67.72-3.54 1.56-4.55 4.44-8.96 9.03-13.4 13.58-.44.45-.96.92-1.19 1.48-2.04 5.09-4.76 9.66-9.38 12.87-.4.28-.7.84-.82 1.33-1.29 5.18-5.09 8.37-8.99 11.52-1.48 1.2-2.86 2.53-4.34 3.74-4.21 3.43-7.68 7.37-10.64 12.03-3.04 4.77-7.16 8.9-11.11 13.03-1.46 1.52-3.67 2.63-5.73 3.15-1.51.38-4.5-.11-4.78-.92-.62-1.79-.75-4.74.34-5.98 5-5.71 10.48-10.99 15.78-16.43 4.42-4.54 9.19-8.79 13.13-13.72 5.75-7.19 10.77-14.97 16.35-22.3 1.93-2.54 4.7-4.44 6.89-6.82 1.18-1.29 2.56-2.89 2.75-4.47.27-2.24-.9-4.41-3.36-5.18-1.79-.56-3.67-1-5.54-1.14-6.42-.5-12.86-.9-19.29-1.24-1.65-.09-3.33.05-4.97.27-6.27.81-12.51 2.16-18.8 2.4-5.46.21-9.33-2.88-10.98-8.62 6.28-4.73 12.62-9.5 18.96-14.27 2.12-1.59 4.34-3.07 6.32-4.82 2.59-2.28 5.49-3.43 8.94-3.46.97-.01 2.11-.39 2.87-.99 4.57-3.61 9.1-7.28 13.56-11.04 8.91-7.53 8.91-9.4.05-17.74-1.35.6-2.76 1.23-4.62 2.07.02-6.1-4.77-6.51-8.78-7.83-1.71-.56-3.53-.82-5.17-1.53-2.67-1.15-3.62-3.51-3.14-7.37 3.55.22 7.12.59 10.69.65 8.54.13 16.58-1.87 23.94-6.26 4.89-2.92 7.21-7.53 7.15-13.04-.05-4.63-.78-9.26-1.41-13.86-.14-1.02-1.19-1.89-1.73-2.88-1.19-2.18-2.45-4.33-3.45-6.59-.95-2.15-.17-4.26 1.88-4.98 2.21-.78 5.4-1.74 7-.75 6.01 3.73 11.77 7.98 17.17 12.57 2.39 2.04 3.99 5.21 5.42 8.13 1.85 3.8 5.01 4.97 8.73 5.21 1.98.13 4.03-.12 5.98-.51 3.46-.69 6.63-.9 9.19 2.25.59.72 1.99.77 2.99 1.12 1.98 9.22 5.99 18.48 3.04 28.78 5.59.34 10.42.69 15.26.92 14.09.66 28.16 1.37 41.73 5.78 6.21 2.02 11.93 4.76 16.42 9.8 3.89 4.36 2.28 9.43 2.26 14.26 0 .91-2.08 1.81-3.5 2.95-2.91-4.64-5.74-8.96-8.36-13.41-1.12-1.9-2.31-2.97-4.67-3-2.19-.03-4.37-.92-6.57-1.01-4.4-.18-8.86-.46-13.22 0-10.37 1.1-19.06 6.58-27.96 11.41-1.26.69-2.42 1.76-3.32 2.89-2.09 2.62-1.72 4.37 1.05 6.19 3.9 2.56 7.7 5.27 11.7 7.66 5.37 3.2 9.84 7.35 13.67 12.21 6.87 8.74 13.91 17.37 20.34 26.43 2.64 3.71 4.3 8.27 5.63 12.67.81 2.7.15 5.84.15 8.8-1.38-1.12-2.51-1.85-3.38-2.83-.45-.52-.71-1.51-.57-2.19.51-2.56-.52-4.24-2.59-5.62-2.37-1.59-4.72-3.2-4.03-6.8.16-.84-.94-2.02-1.63-2.91-3.85-4.92-7.74-9.8-11.65-14.68-.46-.57-.98-1.14-1.58-1.52-8.03-5.14-15.98-10.41-24.15-15.31-6.57-3.94-13.94-5.54-21.54-5.91-1.1-.05-2.68.72-3.31 1.61-2.56 3.66-3.47 7.72-1.72 12.04 1.75 4.31 3.57 8.6 5.41 12.88.28.66.69 1.34 1.22 1.83 11.29 10.35 18.29 23.1 21.88 37.94.93 3.82 2.89 7.49 4.89 10.93 2.7 4.63 4.91 9.29 5.36 14.73.82 9.93 4.42 19.15 7.65 28.43 1.26 3.64 1.59 7.06.81 10.83-.43 2.05-.35 4.51.39 6.44 2.22 5.73 2.78 11.56 3 17.66.56 15.69-1.85 31.06-3.93 46.49-.03.21-.01.44-.09.63-2.45 6.26-4.8 12.56-7.42 18.75-.69 1.64-2.17 2.95-3.29 4.41-.37-.29-.71-.47-1.05-.65z" fill="#010100"/></svg>