<svg enable-background="new 0 0 400 400" viewBox="0 0 400 400" xmlns="http://www.w3.org/2000/svg"><path d="m2.6 9.9.8-1c.9.7 1.9 1.4 2.9 2.3l-.9 1.1c-1.1-1-2-1.8-2.8-2.4zm.5 10.6c.9-2.1 1.6-4.3 2.3-6.7.4.2.8.4 1.3.6-.7 2.1-1.5 4.3-2.2 6.6zm.3-15.2.9-.9c1 .8 2 1.6 2.8 2.4l-1 1c-.9-.9-1.8-1.7-2.7-2.5zm12.6-1.2h1.2v1.4h2.7v1.1h-2.7v2.7h-1.2v-.6h-1.8v1.3h4.9v3.8h-1.2v-.5h-3.7c0 .4-.1.9-.1 1.2h5.1v1h-5.2c0 .5-.1.9-.2 1.2h6v1h-5.2c1.1 1.3 2.9 2 5.5 2.2-.4.4-.7.8-.9 1.3-2.9-.5-4.8-1.6-5.7-3.5h-.1c-.8 1.7-2.7 2.9-5.9 3.6-.2-.4-.6-.8-.9-1.1 2.8-.6 4.6-1.4 5.4-2.5h-4.8v-1h5.3c.1-.3.2-.7.2-1.2h-4.9v-1h5c0-.4 0-.8.1-1.2h-3.6v.5h-1.2v-3.8h4.9v-1.3h-1.8v.5h-1.2v-2.7h-2.7v-1h2.7v-1.4h1.2v1.4h4.8zm-6.7 8.3h3.6c0-.4 0-.9 0-1.4h-3.6zm1.9-4.6h4.8v-1.3h-4.7v1.3zm6.7 3.2h-3.7v1.4h3.7z" fill="#fcfafa"/><path d="m8.7 22.1h1.3v2.2h2.8v-2.2h1.3v2.2h4.1v9.1h1.7v1.3h-17v-1.3h1.7v-9.1h4.1zm.3 13.1.7 1.2c-1.8.9-3.8 1.9-6 2.9-.2-.4-.5-.8-.8-1.3 2.3-1 4.4-1.9 6.1-2.8zm-3.1-6.4h2.8v-3.2h-2.8zm0 4.6h2.8v-3.3h-2.8zm4.1-4.6h2.8v-3.2h-2.8zm0 4.6h2.8v-3.3h-2.8zm3.6 1.9c2.1.9 4.1 1.8 6.1 2.7l-.7 1.4c-2.2-1.1-4.2-2-6.1-2.9zm3.2-9.7h-2.8v3.2h2.8zm-2.7 7.8h2.8v-3.3h-2.8z" fill="#fcfafa"/><path d="m131.9 161.51c-2.04-1.2-4.04-1.49-5.95 1.39-.97 1.46-2.88 2.53-4.58 3.22-9.21 3.72-18.37 7.61-27.78 10.75-6.57 2.19-13.5 3.31-20.28 4.83-2.25.51-3.84-.36-4.7-2.62-.97-2.58-2.43-5.32-.23-7.73 6.9-7.55 14.24-14.35 24.56-17.35 13.25-3.86 25.72-9.71 37.75-16.48 2.75-1.55 5.79-2.6 8.74-3.75 6.17-2.4 10.09-6.44 10.27-13.43.04-1.66.48-3.32.78-5.33-2.02.23-3.8.25-5.49.66-7.14 1.74-14.28 1.19-21.47.41-2.45-.27-5.04-.05-7.47.44-14.63 2.97-28.8 1.32-42.12-5.11-11.4-5.51-11.64-16.51-8.03-25.64 1.18-2.98 5.96-4.69 9.32-6.58 1.68-.94 3.85-1.29 5.82-1.38 10.49-.47 20.82-1.95 31.19-3.56 12.74-1.97 25.59-.45 38.36.85 5.06.52 10.11 1.14 15.16 1.71.63.07 1.32.31 1.89.14 7.61-2.34 15.37-.4 23.04-.85 4.6-.27 7.03-2.05 6.77-5.75-.11-1.54-1.07-3.51-2.29-4.36-1.83-1.28-4.19-2.29-6.4-2.48-15.2-1.25-30.42-2.27-45.64-3.32-4.86-.34-9.95.27-14.55-.99-5.97-1.64-11.88-.68-17.79-1.24-6.11-.58-12.29-.67-18.34-1.62-5.73-.9-11.4-2.39-16.93-4.14-1.5-.47-3.01-2.67-3.44-4.35-.55-2.15-1.13-4.67 1.61-6.5 3.45-2.3 6.92-3.75 11.18-3.88 4.29-.13 8.56-1.09 12.84-1.68 1.14-.16 2.29-.44 3.44-.42 15.26.18 30.52.43 45.79.59 8.25.09 16.52-.29 24.75.16 4.81.27 9.62 1.5 14.3 2.79 4.94 1.36 9.27 3.89 12.94 7.69 4.93 5.11 10.12 9.97 15.42 14.71 2.85 2.55 3.24 5.47 1.94 8.58-1.02 2.45-.34 4.06 1.37 5.61 4.2 3.83 8.6 6.27 14.81 6.58 22.32 1.11 44.61 3 66.91 4.6.84.06 1.69.13 2.54.11 12.33-.38 17.67 6.07 19.94 16.73.86 4.02 1.18 8.19 1.39 12.31.06 1.17-.79 2.81-1.75 3.54-3.48 2.67-7.71 3.49-11.78 2.35-17.66-4.97-35.89-4.49-53.91-5.67-7.55-.49-15.21.7-22.65-1.63-.51-.16-1.35.02-1.75.36-4.42 3.81-9.72 2.89-14.85 2.83-2.22-.03-4.45-.26-6.67-.19-4.61.14-7.66 2.52-9.52 7.05 4.36 1.96 8.56 3.92 12.82 5.74 16.47 7.04 32.59 14.69 47.63 24.57 6.86 4.5 14.97 7.15 21.68 11.83 19.8 13.83 34.71 31.69 41.58 55.3 3.04 10.46 5.57 21.08 7.91 31.73 1.44 6.57-.18 13.02-3.04 19.55-2.12-5.39-4.38-10.74-6.33-16.19-3.29-9.16-6.13-18.49-9.65-27.56-2.59-6.68-6.71-12.48-12.54-16.91-2.19-1.66-4.3-3.47-6.27-5.39-8.31-8.07-17.97-13.89-28.54-18.61-14.98-6.69-29.78-13.81-44.41-21.25-5.87-2.98-11.98-3.14-18.13-3.8-6.21-.67-12.47-1-18.68-1.65-2.04-.21-3.11.28-3.74 2.3-2.41 7.68-1.22 15.08 1.56 22.36.35.91 1.37 1.58 2.12 2.31 4.09 4 8.18 8 12.3 11.98 5.04 4.87 5.93 10.7 4.29 17.26-1.79 7.16-4.53 13.6-9.64 19.31-9.6 10.74-18.51 22.1-27.79 33.13-6.66 7.91-15.37 12.47-25.3 14.9-.38.09-.79.01-1.92.01 1.37-2.57 2.46-4.78 3.7-6.91 2.8-4.82 6.31-9.34 8.36-14.45 4-9.94 8-19.81 13.72-28.92.8-1.28 1.22-2.95 1.35-4.48.73-8.13 1.3-16.27 1.93-24.41.37-4.82-5.51-9.73-10.23-8.54-3.75.94-6.88 2.77-9.96 5.23-9.99 8.02-20.19 15.79-30.51 23.39-8.78 6.47-16.55 13.89-23.25 22.46-.75.97-1.27 2.19-1.64 3.37-1.07 3.43-1.54 7.14-3.12 10.3-2.05 4.09-1.83 7.88-1.08 12.21 1.75 10.21 5.44 19.78 8.77 29.47.27.78.64 1.62 1.21 2.19 11.3 11.3 23.34 21.73 38.32 27.82 5.5 2.24 11.76 2.52 17.49 4.27 9.28 2.83 18.67 4.46 28.37 4.91 5.15.24 10.33 1.13 15.36 2.3 7.28 1.69 14.41 1.51 21.74.27 5.59-.94 11.44-1.78 17.01-1.14 12.71 1.44 24.85-.8 37.1-3.54 9.9-2.21 19.98-3.6 29.99-5.31.8-.14 1.65-.02 3.12.74-1.24 1.33-2.26 3.05-3.77 3.93-7.77 4.53-15.51 9.15-23.55 13.15-7.84 3.9-16.41 5.97-25.15 6.09-6.81.09-13.14 1.67-19.57 3.45-2.88.8-5.98.96-9 1.12-6.74.35-13.54.07-20.22.86-12.82 1.52-25.24-.25-37.77-2.75-7.01-1.4-14.4-.86-21.47-2.03-8.32-1.38-16.49-3.63-24.7-5.6-.86-.21-1.61-.99-2.35-1.58-9.06-7.17-17.91-14.63-27.23-21.45-8.6-6.29-13.92-14.81-17.67-24.33-8.46-21.51-6.99-43.27.16-64.71 1.64-4.93 5.51-9.26 8.9-13.43 3.66-4.51 8.11-8.39 11.94-12.77 7.95-9.09 16.9-16.82 27.55-22.71 6.91-3.82 11.3-9.92 11.72-18.15.25-4.56.06-9.12.06-14.2zm163.5-65.03c-.18 3.29-.36 6.58-.53 9.88 1.67-3.21 2.42-6.47.53-9.88z" fill="#010100"/></svg>