<svg enable-background="new 0 0 400 400" viewBox="0 0 400 400" xmlns="http://www.w3.org/2000/svg"><path d="m55.82 237.12c0-4.33-.1-8.04.08-11.74.04-.81.89-2.02 1.64-2.27 2.17-.75 4.6-1.84 6.7-1.48 7.03 1.2 13.73-.24 20.39-1.9 16.03-3.99 32.42-4.89 48.78-6.33 7.42-.65 14.79-2.47 22.01-4.41 4.91-1.32 9.59-1.29 14.42-.34 10.96 2.16 18.84-4 19.18-15.24.12-4 .17-8.17-.77-12.01-2.32-9.41-1.76-18.97-2.15-28.46-.72-17.26-1.07-34.55-1.56-51.82-.12-4.13-3.27-7.52-7.39-7.87-5.03-.43-6.86.33-7.58 5.29-.73 5.04-.81 10.38.04 15.38.85 5.04 1.16 9.88-.13 14.74-1.92 7.22-.12 14.25.52 21.39.68 7.58.57 15.23.7 22.85.01.84-.56 1.79-1.1 2.52-4.2 5.75-9.57 9.55-16.96 9.82-21.25.77-41.99 5.43-62.99 8.1-7.8.99-15.86 0-23.8-.09-.95-.01-1.91-.07-2.86-.07-7.14-.02-11.33-5.03-10.14-12.17.14-.83.37-1.65.58-2.47 1.6-6.2 2.79-7.98 9.11-8.01 12.93-.06 24.61-5.02 36.7-8.32 11.95-3.26 23.71-7.2 35.71-10.25 5.46-1.39 8.54-4.62 10.02-9.46 3.12-10.22 2.77-20.46-.81-30.57-1.04-2.94-3.41-4.02-6.19-4.06-6.88-.1-13.78-.31-20.63.15-5.33.36-10.73 1.23-15.88 2.66-7.89 2.19-15.57 4.65-22.5 9.67-6.9 4.99-15.25 7.35-24.05 6.59-1.17-.1-2.86-1.11-3.26-2.11-3.52-8.87-2.69-17.63 1.34-26.14.37-.77 1.27-1.39 2.06-1.85 11.94-6.92 24.85-11.21 38.26-14.16.51-.11 1.14-.31 1.56-.12 6.41 2.92 12.58.07 18.63-1.18 8.58-1.76 16.91-4.66 25.42-6.77 3.78-.94 7.73-1.13 11.6-1.7 1.13-.17 2.55-.14 3.29-.81 5.1-4.65 11.6-5.35 17.9-6.54 30.18-5.66 60.38-11.27 90.57-16.86 1.2-.22 2.59-.33 3.71.05 3.95 1.34 7.58.83 11.3-.92 8.64-4.07 17.65-6.46 27.33-5.35 4.1.47 7.97-.43 11.7-2.15 2.4-1.11 5.03-1.76 7.33-3.03 4.65-2.56 8.97-2.39 13.74-.05 2.57 1.26 4.11 2.82 4.78 5.37 2.83 10.65 2.98 21.37.3 32.06-1.09 4.35-4.49 6.65-10.61 6.29-5.44-.32-11-1.13-16.2-2.74-10.97-3.4-21.65-2.91-32.49.36-3.28.99-6.84 1.25-10.29 1.38-5.61.22-11.24.06-16.86.06-6.46 0-11.05 3.18-13.64 9.27-2.54 5.97-1.67 12.09-.91 18.18.38 3.03 1.39 5.98 1.91 9 1.18 6.88 5.43 11.81 10.9 15.33 3.43 2.21 7.84 3.04 11.92 4.08 16.12 4.09 32.13 3.32 47.96-1.63 5.94-1.86 11.97-2.66 18.19-2.08 8.18.76 13.01 5.55 12.64 13.71-.19 4.11-1.62 8.2-2.85 12.18-.27.89-1.99 1.77-3.12 1.9-2.94.33-5.93.4-8.89.28-8.76-.38-16.48 3.38-24.51 5.93-1.3.41-2.74 1.14-3.96.9-6.58-1.29-12.5 1.32-18.62 2.77-1.32.31-2.71.59-4.04.52-7.83-.39-15.67-.73-23.47-1.45-2.44-.23-4.74-1.7-7.16-2.39-4.68-1.33-9.42-2.46-14.1-3.77-5.6-1.57-9.14-4.82-11.55-10.54-3.82-9.06-6.01-18.12-5.85-27.96.13-7.62-.63-15.25-.95-22.88-.16-3.73-1.71-6.75-4.56-9.08-3.33-2.72-6.81-2.01-8.9 1.68-2.2 3.9-3.56 7.92-2.09 12.45.29.89.35 1.88.37 2.83.1 4.81 1.26 9.13 3.84 13.38 1.52 2.5 2.03 6.18 1.66 9.16-1.57 12.5.43 24.71 2.02 37 .54 4.17.2 8.44.5 12.65.15 2.08.67 4.19 1.36 6.17 1.03 2.94 2.84 4.89 6.36 5.3 7.36.87 14.66 2.24 22 3.21 1.48.2 3.19-.18 4.58-.78 7.74-3.31 15.76-4.22 24.16-4.07 18.87.33 37.75-.02 56.62.2 4.03.05 8.1 1.15 12.04 2.21 2.66.72 4.06 2.79 3.7 5.85-.23 1.99-.28 4.06.01 6.03.46 3.16-.94 4.85-3.8 5.44-3.39.71-7.01 2.18-10.22 1.61-11.6-2.03-22.52.3-33.45 3.67-1.93.6-4.12.37-6.19.55-.7.06-1.91.01-2.01.31-.92 2.71-3.2 1.94-5.07 2.12-4.64.45-9.29.8-13.93 1.25-.93.09-1.97.25-2.71.74-6.27 4.25-12.18 1.48-17.95-1.04-2.98-1.3-5.77-1.96-8.86-.86-4.2 1.51-8.51 1.9-12.93 2.38-3.2.34-6.95 3.81-8.76 6.89-2.8 4.75-4.33 10.29-6.07 15.61-1.49 4.56-2.92 6.38-7.67 6.64-3.34.18-6.74-.39-10.06-.94-.78-.13-1.71-1.4-1.97-2.32-1-3.56-1.76-7.2-2.61-10.8-1.34-5.67-4.41-8.39-10.28-8.04-9.29.56-18.55 1.64-27.83 2.45-10.75.94-21.5 1.8-32.24 2.79-2.07.19-4.21.55-6.14 1.3-6.51 2.53-12.92 5.31-19.41 7.9-1 .4-2.33.73-3.27.41-9.78-3.3-19.47-6.64-30.34-6.51z" fill="#010104"/><path d="m116.43 272.69c-7.76-.69-15.5-.73-22.8 2.37-5.71 2.42-11.5 4.85-16.75 8.1-6.54 4.05-12.84 8.14-20.84 8.66-2.82.18-4.25-.58-5.08-3.26-2.6-8.46-2.21-17.19-2.43-25.86-.02-.62.47-1.44.98-1.85 3.54-2.86 6.99-5.87 10.78-8.37 3.82-2.52 8.06-3.03 12.37-.83 2.35 1.2 4.8 2.22 7.18 3.37 6.12 2.96 12.15 1.63 18.24-.22 6.67-2.02 13.33-4.14 20.13-5.6 3.47-.74 6.8-.87 9.93-3.16 3.51-2.57 7.84-1.91 11.98-1.07 5.29 1.07 10.62 1.93 15.9 3 .94.19 1.96.76 2.62 1.46 4.79 5.09 8.36 10.89 10.22 17.7 1.87 6.84 4.02 13.61 5.74 20.48.87 3.47 1.01 7.12 1.59 10.67.22 1.34.62 2.69 1.2 3.91 2.32 4.85 4.12 5.41 9.41 4.59 4.08-.64 7.15-2.33 9.25-5.8 3.56-5.87 7.46-11.58 10.53-17.7 4.03-8.05 8.58-15.59 15.44-21.54 1.19-1.03 2.45-2.03 3.8-2.83 4.55-2.71 9.25-5.18 13.71-8.03 5.51-3.51 11.36-5.84 17.78-7.24 4.13-.9 7.88-3.48 11.9-5.04 2.3-.89 4.78-1.5 7.24-1.76 2.83-.3 5.73-.25 8.58-.03 4.6.36 8.55-1.01 12.7-2.98 3.71-1.76 8.14-2.04 12.27-2.85 3.95-.77 7.92-1.46 11.9-2.04 1.44-.21 2.99-.23 4.4.07 5.07 1.09 10.08 2.48 15.16 3.52 2.59.53 4.08 1.98 4.32 4.39.49 4.94.72 9.91.97 14.86.03.51-.37 1.4-.77 1.53-3.76 1.27-7.5 2.88-11.39 3.45-3.39.49-6.96-.27-10.45-.44-3.57-.17-7.14-.63-10.35 1.79-.87.66-2.41.51-3.65.6-8.96.67-17.99.84-26.86 2.14-4.21.62-8.27 3.09-12.12 5.24-3.78 2.1-7.18 4.88-10.79 7.31-3.95 2.66-6.62 6.17-7.68 10.87-.42 1.87-.01 3.19 1.65 4.32 2.74 1.86 5.61 2.61 8.97 2.44 5.46-.27 10.33-2.11 15.41-3.98 5.68-2.09 11.97-2.48 17.94-3.82 6.06-1.36 12-3.31 18.1-4.4 7.53-1.35 15.19-1.95 22.6.84 1.16.43 2.47 1.37 3 2.43 5.4 10.75 3.6 21.14-2.02 31.2-.41.73-1.66 1.24-2.59 1.39-26.57 4.25-53.14 8.44-79.72 12.61-1.57.25-3.17.43-4.75.42-13.7-.09-25.82 6.21-38.65 9.59-10.88 2.87-21.72 5.71-33.03 6.11-.95.03-2.03.23-2.83-.12-4.72-2.07-9.1-.65-13.5 1.03-1.38.53-2.83.9-4.21 1.42-8.39 3.17-17 5.14-26.05 4.69-7.92-.4-15.16 2.56-22.63 4.44-5.31 1.33-10.77 2.06-16.13 3.26-4.09.92-8.14 2.07-12.17 3.25-5.77 1.68-11.5 3.5-17.26 5.21-.69.21-1.47.21-2.21.19-8.12-.23-8.3-.51-10.68-8.43-1.85-6.13-2.88-12.21-.26-18.31.53-1.23 1.62-2.58 2.8-3.1 16.47-7.35 33.44-13.36 51.01-17.36 6.77-1.54 13.87-1.6 20.83-2.27 1.14-.11 2.5-.24 3.45.24 6.23 3.11 10.7-.7 15.41-3.69 3.02-1.92 3.95-4.36 2.96-8-1.28-4.69-1.7-9.6-2.93-14.3-.67-2.54-1.87-5.14-3.51-7.17-2.71-3.36-5.8-6.46-9.06-9.3-1.27-1.11-3.37-1.56-5.15-1.75-3.63-.44-7.35-.47-11.05-.66zm110.02 57.92c-1.15-1.46-1.94-2.47-3.26-4.13-.24 2.29-.39 3.76-.6 5.76 1.44-.62 2.42-1.03 3.86-1.63z" fill="#010104"/><g fill="#fbfafa"><path d="m12.4 4.8-6.1 9h6v1.2h-8v-.5l6.1-8.9h-5.7v-1.2h7.6v.4z"/><path d="m14 15v-10.6h3c1.6 0 2.9.5 4 1.4s1.6 2.2 1.6 3.8-.5 3-1.6 3.9-2.4 1.5-4 1.5zm1.4-9.4v8.2h1.6c1.3 0 2.4-.4 3.1-1.1s1.1-1.8 1.1-3.1-.4-2.3-1.2-3-1.8-1-3.1-1z"/><path d="m26.1 4.4v10.6h-1.4v-10.6z"/><path d="m36.1 14.6c-.8.4-1.8.6-2.9.6-1.5 0-2.7-.5-3.6-1.4s-1.4-2.2-1.4-3.8c0-1.7.5-3.1 1.5-4.1s2.3-1.6 3.9-1.6c1 0 1.8.1 2.5.4v1.4c-.8-.4-1.6-.6-2.5-.6-1.2 0-2.1.4-2.9 1.2s-1.1 1.8-1.1 3.2c0 1.3.3 2.3 1 3s1.6 1.1 2.7 1.1c1 0 2-.2 2.7-.7v1.3z"/><path d="m37.6 14.3c0-.2.1-.5.3-.6s.4-.3.6-.3c.3 0 .5.1.6.3s.3.4.3.6-.1.4-.3.6-.4.3-.6.3c-.3 0-.5-.1-.6-.3s-.3-.4-.3-.6z"/><path d="m50.2 15h-1.6l-5.3-8.2c-.2-.2-.3-.5-.4-.7 0 .2.1.7.1 1.5v7.4h-1.4v-10.6h1.7l5.2 8.1c.2.4.4.6.4.7 0-.3-.1-.8-.1-1.5v-7.3h1.4z"/><path d="m58.6 15h-5.7v-10.6h5.5v1.2h-4.1v3.4h3.8v1.2h-3.8v3.6h4.3z"/><path d="m67.1 5.6h-3.1v9.4h-1.4v-9.4h-3v-1.2h7.5z"/></g></svg>