<svg enable-background="new 0 0 400 400" viewBox="0 0 400 400" xmlns="http://www.w3.org/2000/svg"><path d="m182.49 283.62c-4.83-3.25-9.58-4.46-15.11-2.05-5.27 2.3-10.89 3.36-16.74 3.01-1.45-.09-3.17.43-4.41 1.23-10.04 6.45-23.4 1.83-26.82-9.72-1.3-4.41-1.76-9.15-1.97-13.77-.47-10.56.74-20.96 4.42-30.95.56-1.51 1.65-2.91 2.76-4.13 3.7-4.07 7.78-7.83 11.23-12.1 3.75-4.65 4.6-10.2 2.8-15.92-1.49-4.74-2.98-9.52-5.06-14.02-4.64-10.02-2.91-19.02 3.12-27.85 5.07-7.43 11.81-13.04 18.98-18.14 6.67-4.74 12.14-10.47 16.68-17.22 1.02-1.52 2.5-2.94 4.09-3.84 11.72-6.59 22.43-14.41 31.5-24.43 3.71-4.1 8.51-6.17 14.14-6.21 1.84-.01 2.65.53 3.39 2.4 1.58 3.97.49 6.34-2.7 9.13-19.36 17.01-38.6 34.15-57.6 51.56-5.28 4.84-9.67 10.66-14.3 16.17-4.47 5.32-4.54 16.2 3.08 21.38 6.2 4.22 12.31 6.92 19.87 4.49 2.51-.81 5.11-1.51 7.71-1.82 8.49-1.01 14.03-6.44 19.83-12.03 11.27-10.86 16.52-24.33 18.79-39.37.36-2.38.79-4.9 1.88-6.99 3.15-6.06 9.93-7.52 15.59-3.61 5.13 3.54 10.51 4.28 16.21 1.52 5.53-2.67 11.07-5.33 16.54-8.1 1.19-.6 2.26-1.56 3.21-2.53 15.39-15.65 30.78-31.31 46.1-47.03 1.83-1.88 3.47-4 4.88-6.21 4.11-6.43 8.16-12.9 12.02-19.48 1.25-2.13 2.51-2.4 4.62-1.58 4.61 1.8 7.55 5 7.47 9.97-.06 3.97-.72 7.99-1.65 11.86-1.81 7.51-4.09 14.9-5.96 22.4-.34 1.35-.06 3.17.59 4.42 5.16 9.85 10.16 19.81 15.83 29.36s7.83 19.69 6.42 30.48c-1.28 9.75-3.3 19.39-5.03 29.08-.58 3.26-2.32 5.69-4.96 7.78-4.81 3.79-8.57 8.55-10.82 14.29-2.68 6.85-1.39 13.53 1.39 20.06 3.72 8.7 4.98 17.84 5.43 27.25.54 11.15-4.09 19.62-12.26 26.61-1.77 1.52-3.57 3.01-5.29 4.58-4.2 3.83-5.49 8.6-4.66 14.14.42 2.84 1.67 4.22 4.7 4.33 4.97.19 9.93.75 14.89 1.13 6.9.53 12.11 5.09 8.82 14.43-.4 1.13-1.73 2.27-2.89 2.72-6.38 2.5-12.7 5.36-19.31 7.01-8.82 2.2-17.83 3.94-26.86 4.88-7.75.81-15.7.76-23.47.1-10.73-.9-21.12.88-31.58 2.41-14.36 2.1-28.71 4.26-43.08 6.33-1.33.19-2.76.08-4.09-.17-8.91-1.63-17.17 1.77-25.61 3.44-18.49 3.65-36.85 7.99-55.37 11.46-6.28 1.18-12.88.67-19.34.82-10.28.25-20.56.44-30.84.54-1.04.01-2.28-.49-3.11-1.14-7.92-6.22-16.05-12.23-23.51-18.97-2.97-2.69-4.92-6.86-6.48-10.7-4.48-11.01-5.6-22.78-6.91-34.47-.26-2.32-.38-4.65-.6-6.97-1.02-10.72.13-21.01 4.83-30.94 3.16-6.68 5.31-13.83 7.98-20.74.61-1.57 1.39-3.09 2.27-4.53 11.16-18.26 22.4-36.48 33.47-54.8 1.36-2.26 2.87-3.45 5.45-3.4 1.05.02 2.11-.16 3.17-.23 4.69-.31 7.58 3.18 5.98 7.72-.96 2.73-2.76 5.16-4.1 7.76-2.5 4.86-5.7 9.53-7.28 14.68-5.58 18.21-12.96 35.6-21.93 52.35-5.43 10.15-8.23 20.83-6.49 32.44.44 2.94 1.44 5.25 3.69 7.39 19.66 18.73 43.03 24.07 68.83 17.89 13.22-3.17 25.9-8.62 38.82-13.04 10.18-3.49 10.17-3.49 14.57-13.35.12-.05.11-.16.15-.45zm94.67-5.52c7.25-1.68 13.46-4.44 18.59-9.25 5.18-4.85 9.83-10.35 15.39-14.69 4.94-3.85 7.63-8.43 8.73-14.36 1.14-6.12 1.41-12.23-.25-18.26-1.72-6.24-5.4-8.71-11.81-7.96-2.4.28-4.73 1.09-7.09 1.7-7.03 1.82-14.08 2.65-21.38 1.49-7.41-1.18-12.67-4.4-13.96-12.33-.08-.52-.32-1.01-.45-1.52-1.54-5.93-1.29-11.63 2.84-16.52 4.22-5.01 8.67-9.83 12.94-14.81 1.28-1.49 2.44-1.46 4.14-.71 6.71 2.99 11.05 8.37 14.88 14.33 2.21 3.45 5.56 4.69 9.21 2.84 2.17-1.1 4.32-2.81 5.69-4.79 2.87-4.18 5.56-8.55 7.69-13.14 4.45-9.57 9.07-19.13 12.51-29.08 2.9-8.39-.78-15.99-7.89-20.2-1.65-.98-2.94-1.14-4.6-.02-2.62 1.78-5.39 3.37-8.14 4.96-18.95 10.94-36.73 23.98-57.37 31.91-.96.37-1.83 1.69-2.21 2.76-2.76 7.89-5.29 15.86-8.13 23.72-.54 1.51-1.86 3.05-3.24 3.9-5.33 3.26-10.71 6.46-16.3 9.24-3.07 1.53-4.43 3.76-4.69 6.86-.21 2.52-.4 5.11-.1 7.61 1.05 8.88 8 13.43 16.64 11.07 2.96-.81 5.93-1.59 8.89-2.4 4.74-1.28 5.21-.98 7.73 3.18 3 4.96 3.25 10.46 3.35 15.96.18 9.97 3.73 18.34 11.09 25.09 3.84 3.53 6.79 7.57 7.3 13.42zm-38.14 31.14c.05.23.09.45.14.68 9.2-1.24 18.44-2.23 27.58-3.8 5.61-.96 5.4-3.86 3.14-8.4-.51-1.03-1.23-2.01-2.06-2.81-9.45-9.11-20.33-15.84-33.01-19.51-1.8-.52-3.14-.09-4.46 1.38-4.82 5.36-9.8 10.57-14.67 15.88-.69.76-1.41 1.66-1.68 2.61-1.58 5.6 3.08 12.51 8.85 13 5.38.47 10.78.66 16.17.97zm-71.44-41.1c.03-.28.06-.55.09-.83 1.8 0 3.6.07 5.39-.01 7.44-.33 14.74-1.19 21.6-4.51 3.19-1.55 4.49-3.85 4.58-7.23.09-3.59-1.09-6.45-4.25-8.3-5.09-2.99-10.63-4.1-16.48-3.65-4.75.36-9.55.48-14.23 1.28-5.58.96-11.08 2.48-16.57 3.9-.91.24-1.98 1.07-2.36 1.91-1.76 3.85-2.48 7.92-1.11 12.04.32.96 1.45 2.19 2.36 2.34 6.97 1.16 13.98 2.07 20.98 3.06zm-9.04-52.02c.91 2.9 1.54 5.46 2.56 7.86.32.75 1.7 1.47 2.6 1.47 5.07-.03 10.13-.28 15.2-.47 6.24-.24 11.72-2.28 16.18-6.7-2.03-6.76-7.4-7.96-13.26-8.2-8.32-.34-15.28 4.35-23.28 6.04z" fill="#010104"/><g fill="#fbfafa"><path d="m12.4 4.8-6.1 9h6v1.2h-8v-.5l6.1-8.9h-5.7v-1.2h7.6v.4z"/><path d="m14 15v-10.6h3c1.6 0 2.9.5 4 1.4s1.6 2.2 1.6 3.8-.5 3-1.6 3.9-2.4 1.5-4 1.5zm1.4-9.4v8.2h1.6c1.3 0 2.4-.4 3.1-1.1s1.1-1.8 1.1-3.1-.4-2.3-1.2-3-1.8-1-3.1-1z"/><path d="m26.1 4.4v10.6h-1.4v-10.6z"/><path d="m36.1 14.6c-.8.4-1.8.6-2.9.6-1.5 0-2.7-.5-3.6-1.4s-1.4-2.2-1.4-3.8c0-1.7.5-3.1 1.5-4.1s2.3-1.6 3.9-1.6c1 0 1.8.1 2.5.4v1.4c-.8-.4-1.6-.6-2.5-.6-1.2 0-2.1.4-2.9 1.2s-1.1 1.8-1.1 3.2c0 1.3.3 2.3 1 3s1.6 1.1 2.7 1.1c1 0 2-.2 2.7-.7v1.3z"/><path d="m37.6 14.3c0-.2.1-.5.3-.6s.4-.3.6-.3c.3 0 .5.1.6.3s.3.4.3.6-.1.4-.3.6-.4.3-.6.3c-.3 0-.5-.1-.6-.3s-.3-.4-.3-.6z"/><path d="m50.2 15h-1.6l-5.3-8.2c-.2-.2-.3-.5-.4-.7 0 .2.1.7.1 1.5v7.4h-1.4v-10.6h1.7l5.2 8.1c.2.4.4.6.4.7 0-.3-.1-.8-.1-1.5v-7.3h1.4z"/><path d="m58.6 15h-5.7v-10.6h5.5v1.2h-4.1v3.4h3.8v1.2h-3.8v3.6h4.3z"/><path d="m67.1 5.6h-3.1v9.4h-1.4v-9.4h-3v-1.2h7.5z"/></g></svg>