<svg enable-background="new 0 0 400 400" viewBox="0 0 400 400" xmlns="http://www.w3.org/2000/svg"><path d="m41.95 34.83c8.63.45 12.85 3.72 15.63 10.53 4.15 10.18 8.78 20.17 12.96 30.34 6.33 15.44 9.13 31.71 10.73 48.21 2.02 20.91 3.29 41.86 2.63 62.88-.3 9.64-.73 19.28-1.02 28.92-.06 1.89.41 3.8.39 5.7-.08 5.63 3.19 8.38 8.12 9.89 7.36 2.26 14.74 1.61 21.98-.23 23.88-6.07 48.33-8.72 72.58-12.65 11.01-1.78 21.71-5.53 32.48-8.62 19.73-5.66 39.43-11.46 59.11-17.33 2.69-.8 5.17-2.33 7.71-3.6 7.68-3.87 15.92-5.75 24.36-6.81 14.54-1.83 29.11-2.85 43.74-1.01 2.25.28 6.87 6.21 6.35 8.37-.2.84-1.12 1.49-1.66 2.26-9.51 13.36-23.56 19.58-38.5 24.25-9.18 2.87-18.5 5.27-27.76 7.9-.51.14-1 .33-1.48.55-.58.26-1.13.58-1.7.87-19.53 10.25-19.56 10.08-41.23 13.2-5.7.82-11.25 2.9-16.78 4.67-22.31 7.14-44.81 13.61-68 17.17-7.91 1.21-16.07.81-24.11 1.08-9.53.32-19.07.85-28.59.75-4.14-.05-8.33-1.21-12.39-2.28-10.27-2.71-16.5-.77-21.89 8.33-8.24 13.92-11.92 29.07-10.76 45.32.28 3.86 2.12 6.31 5.43 8.27 7.59 4.5 15.65 5.13 24.23 4.32 9.25-.88 18.57-1.01 27.86-1.53 1.11-.06 2.39-.22 3.28-.8 8.95-5.92 19.08-7.88 29.48-9 11.59-1.25 23.18-2.44 34.76-3.74 1.76-.2 3.57-.63 5.17-1.36 12.06-5.47 24.93-8.08 37.72-11.03 15.06-3.48 29.98-7.63 45.12-10.66 17.05-3.41 33.52-.87 48.98 7.38 7.23 3.86 7.75 13.88.84 18.18-9.78 6.09-20.72 9.06-31.83 11.41-31.28 6.64-62.69 12.74-93.85 19.9-17.51 4.02-34.59 9.92-51.97 14.55-6.7 1.79-13.68 2.67-20.58 3.51-11.67 1.41-23.36 2.87-35.09 3.54-11.9.68-23.79.06-34.49-6.32-1.16-.69-2.29-1.53-3.24-2.5-3.48-3.57-6.6-7.53-10.35-10.77-7.03-6.07-9.15-14.22-10.68-22.75-2.18-12.09.36-23.81 2.62-35.59 2.76-14.38 4.23-28.9 4.51-43.58.18-9.4 1.52-18.78 2.24-28.17.2-2.62.46-5.35-.02-7.9-1.78-9.53-1.03-18.95.42-28.42 1.98-13 3.55-26.01 3.06-39.24-.22-6.01.69-12.05.8-18.08.05-2.82-.39-5.69-.95-8.47-1.43-7.11-2.2-14.23-1.21-21.46 1.09-7.98-1.34-15.52-2.8-23.2-1.35-7.06-2.96-14.11-3.59-21.24-.42-4.53.75-9.19 1.23-13.91z" fill="#010104"/><path d="m155.48 135.1c-.1 20.36-3.96 37.56-12.27 53.69-.9 1.74-2.23 3.31-3.6 4.72-2.51 2.59-5.08 5.13-7.84 7.43-1.75 1.46-3.75 3.1-5.88 3.55-7.32 1.55-8.56.6-10.98-5.4-3.13-7.76-2.7-15.74-.71-23.45 2.2-8.48 2.28-16.91 1.97-25.5-.29-8.16-.58-16.33-.38-24.48.2-8.43-1.66-16.38-4.34-24.23-1.16-3.41-2.34-6.81-3.59-10.18-3.03-8.15-.97-15.63 2.99-22.83.32-.57 1.3-1.17 1.93-1.12 4.16.31 8.52.81 11.37 4.12 6.97 8.1 14.23 16.06 20.25 24.84 8.37 12.24 11.31 26.34 11.08 38.84z" fill="#010104"/><g fill="#fbfafa"><path d="m12.4 4.8-6.1 9h6v1.2h-8v-.5l6.1-8.9h-5.7v-1.2h7.6v.4z"/><path d="m14 15v-10.6h3c1.6 0 2.9.5 4 1.4s1.6 2.2 1.6 3.8-.5 3-1.6 3.9-2.4 1.5-4 1.5zm1.4-9.4v8.2h1.6c1.3 0 2.4-.4 3.1-1.1s1.1-1.8 1.1-3.1-.4-2.3-1.2-3-1.8-1-3.1-1z"/><path d="m26.1 4.4v10.6h-1.4v-10.6z"/><path d="m36.1 14.6c-.8.4-1.8.6-2.9.6-1.5 0-2.7-.5-3.6-1.4s-1.4-2.2-1.4-3.8c0-1.7.5-3.1 1.5-4.1s2.3-1.6 3.9-1.6c1 0 1.8.1 2.5.4v1.4c-.8-.4-1.6-.6-2.5-.6-1.2 0-2.1.4-2.9 1.2s-1.1 1.8-1.1 3.2c0 1.3.3 2.3 1 3s1.6 1.1 2.7 1.1c1 0 2-.2 2.7-.7v1.3z"/><path d="m37.6 14.3c0-.2.1-.5.3-.6s.4-.3.6-.3c.3 0 .5.1.6.3s.3.4.3.6-.1.4-.3.6-.4.3-.6.3c-.3 0-.5-.1-.6-.3s-.3-.4-.3-.6z"/><path d="m50.2 15h-1.6l-5.3-8.2c-.2-.2-.3-.5-.4-.7 0 .2.1.7.1 1.5v7.4h-1.4v-10.6h1.7l5.2 8.1c.2.4.4.6.4.7 0-.3-.1-.8-.1-1.5v-7.3h1.4z"/><path d="m58.6 15h-5.7v-10.6h5.5v1.2h-4.1v3.4h3.8v1.2h-3.8v3.6h4.3z"/><path d="m67.1 5.6h-3.1v9.4h-1.4v-9.4h-3v-1.2h7.5z"/></g></svg>