<svg enable-background="new 0 0 400 400" viewBox="0 0 400 400" xmlns="http://www.w3.org/2000/svg"><path d="m108.35 322.54c-.83-2.9-1.38-4.71-1.84-6.55-.11-.46-.13-1.23.15-1.46 4.68-3.89 4.8-9.67 6.32-14.89 1.97-6.78 4.12-13.51 6.12-20.28.5-1.7 1-3.47 1.09-5.22.46-9.11.97-18.22 1.08-27.33.04-3.65-.67-7.36-1.46-10.95-1.19-5.4-.79-9.07 5.26-11.5 2.15-.87 4.12-2.2 6.27-3.08 12.63-5.19 23.66-12.58 32.53-23.1.89-1.06 2.62-1.67 4.06-1.94 2.22-.42 4.04-1.04 5.81-2.71 1.11-1.05 3.48-1.03 5.28-1.02 2.17.01 3.96-.13 4.78-2.54.19-.55.69-1.18 1.2-1.39 5.21-2.14 9.95-5.06 16.07-5.28 6.55-.24 13.03-2.35 19.54-3.68 1.24-.25 2.48-.59 3.68-1 5.94-2.01 11.68-2.18 17.92-.37 4.16 1.21 9.01 0 13.54.01 3.67.01 7.39-.07 11.01.43 3.11.42 4.95 2.61 4.8 6.12 2.77-.44 4.27.5 5.2 2.83.42 1.04 1.68 1.82 2.69 2.52 4.53 3.15 8.03 6.69 7.34 12.96-.44 3.96-.08 8.01-.08 12.01-3.92 1.85-6.93 1.25-9.98-2.41-5.09-6.11-10.66-12.2-19-13.61-5.75-.97-11.49-.52-17.06 2.47-4.07 2.19-8.91 3.92-13.46 4.04-10.13.28-18.61 5.36-27.88 8.1-2.79 3.78-6.26 7.25-8.22 11.42-3.09 6.59-3.49 13.92-3.39 21.17.03 2.15 2.47 3.95 5.09 3.34 3.23-.75 6.02-.15 8.84 1.33.75.39 1.94.63 2.64.31 1.89-.86 3.41-.8 4.79.82.2.23.67.59.74.53 3.37-2.57 7.08.91 10.5-.62.67-.3 1.6-.94 2.01-.71 5.34 2.98 10.44-.96 15.81-.51 5.19.43 10.6-1.33 15.87-2.33 4.03-.77 8.57 2.14 9.48 6.16 1 4.42 2.5 8.75 3.23 13.21.91 5.61 1.42 11.3 1.79 16.98.42 6.54.53 13.11.71 19.66.03.99-.06 2.11-.51 2.95-3.58 6.7-7.85 13.09-10.8 20.05-6.24 14.76-17.82 24.18-30.76 32.35-4.08 2.58-8.71 3.85-13.77 2.3-.68-2.71-.03-4.69 2.72-5.84 9.97-4.14 17.06-11.13 22.01-20.8 4.33-8.45 10.25-16.12 14.19-24.71 4.74-10.35 6.51-21.53 3.44-32.88-.63-2.31-2.21-4.43-3.67-6.41-1.51-2.03-3.36-3.81-5.13-5.64-3.48-3.6-8.05-4.22-12.38-1.7-3.01 1.76-5.87 3.65-9.71 3.25-2.13-.23-3.46 4.14-1.81 6.24 2.88 3.65 4.12 7.84 4.61 12.32.32 2.94.3 5.7-1.39 8.52-2.2 3.65-2.97 8.32-5.61 11.51-15.23 18.35-31.12 36.15-50.63 50.15-5.53 3.97-11.84 6.84-17.79 10.22-.38-.36-.76-.71-1.15-1.07.6-1.23 1.01-2.6 1.83-3.65 8.1-10.38 18.49-18.31 28.66-26.48 1.2-.97 3.22-1.58 2.42-3.89-.06-.17.25-.56.48-.72 3.89-2.77 7.62-5.81 11.75-8.15 2.45-1.39 4.69-2.62 6.1-5.17 1.91-3.47 4.82-6.6 5.85-10.28 1.21-4.34 1.35-8.76 4.63-12.5 1.64-1.87.46-4.71-1.72-6.38-2.27-1.74-4.63-3.35-6.95-5.02-15.41 9.01-29.89 19.1-41.69 32.55-7.15 8.15-16.37 11.33-26.8 11.83-1.11.05-2.55-.44-3.33-1.2-2.52-2.42-4.8-5.08-7.36-7.86 1.79-2.5 3.67-5.54 7.79-5.89 1.04-.09 2.04-.67 3.08-.74 4.98-.36 8.37-2.75 10.44-7.36.49-1.09 2.11-2.06 3.37-2.32 2.64-.54 4.61-1.73 6.27-3.85 3.22-4.11 6.93-7.67 11.56-10.27 3.88-2.19 5.52-5.4 4.66-10.11-1.12-6.14-2.53-12.45-2.14-18.58.33-5.16 2.55-10.4 4.85-15.16 2.42-5.01 2.91-9.79 1.54-15.04-.47-1.82-1.44-2.66-3.08-2.38-2.77.48-5.95.58-8.15 2.04-5.08 3.38-10.6 5.16-16.42 6.48-13.3 3-16.02 6.5-15.63 20.17.11 3.92.35 7.85.91 11.72.58 4.05-.07 7.63-1.94 11.29-2.78 5.44-5.84 10.86-6.13 17.22-.01.21-.06.43-.16.61-3.35 6.47-6.45 13.09-10.18 19.33-1.56 2.59-4.45 4.37-7.24 7.01zm80.39-54.57c-2.44 1.39-4.47 2.55-6.7 3.82.69 1.12 1.44 2.33 2.35 3.8 2.17-1.72 4.12-3.25 6.22-4.92-.76-1.1-1.39-2.01-1.87-2.7z" fill="#010104"/><path d="m135.06 141.84c1.49 5.5 4.39 9.07 8.23 12.16 1.81 1.46 2.95 3.76 4.39 5.68-.24.28-.48.56-.72.84-2.69.24-5.38.57-8.07.67-.72.03-1.65-.43-2.18-.97-3.78-3.83-7.98-7.37-9.39-12.92-.15-.6-.51-1.15-.95-2.1-2.81 3.16-6.06 5.01-10.14 3.65-1.34-.45-3.3-1.58-3.41-2.57-.17-1.45.73-3.38 1.8-4.54 1.99-2.17 4.53-3.83 6.64-5.91 3.77-3.7 4.12-6.7 2.2-11.61-.66-1.69-.56-3.72-.53-5.59.01-.59.83-1.51 1.44-1.67.62-.16 1.51.32 2.13.75.49.34.79.99 1.09 1.54 2.97 5.5 7.84 6.68 13.51 5.86.76-.11 1.73-.78 2.08-1.46 1.07-2.06 1.96-4.22 2.77-6.41.25-.69.33-1.77-.04-2.32-2.9-4.36-2.84-9.19-2.52-14.11.21-3.17.57-6.36.4-9.52-.14-2.67.74-4.23 4.17-5.18 1.56 3.13 3.3 6.4 4.83 9.77.96 2.1 1.55 4.37 2.4 6.53.68 1.73 1.88 2.62 3.92 2.5.86-.05 2.03.57 2.6 1.27 1.68 2.06 3.24 1.38 4.38-.23 5.3-7.42 10.52-14.93 13.08-23.84.72-2.51.78-5.2 1.25-7.8.49-2.77 1.16-5.5 1.62-8.27.16-.98-.07-2.02-.16-3.03-.05-.47-.46-1.11-.27-1.35 2.57-3.5 1.05-7.4 1.12-11.13.07-3.5-.29-7-.12-10.49.09-1.79.92-3.55 1.5-5.64 4.29 2.01 6.17 5.03 6.75 8.49.84 4.98 1.12 10.08 1.39 15.14.19 3.49-.08 7-.07 10.49 0 1.03.26 2.06.45 3.08.35 1.92.73 3.84 1.06 5.56 2.27 1.35 4.82 2.93 7.44 4.39 1.17.65 2.44 1.24 3.74 1.49 3.64.7 7.33 1.13 10.97 1.81 2.42.45 4.3-.1 6.47-1.46 4.08-2.57 5.72-6 5.58-10.6-.02-.63-.04-1.37.27-1.87.78-1.27 1.55-3.14 2.68-3.44 1.29-.35 3.33.32 4.42 1.26 5.36 4.65 10.54 9.52 15.72 14.37 1.55 1.45 2.7 1.5 4.23-.09 2.35-2.43 4.93-4.64 6.67-6.25-.22-4.42-.4-8.09-.57-11.58 4.37-1.97 4.52-1.75 6.12 1.94 1.25 2.88 2.75 5.76 4.72 8.16 1.71 2.09 3.93 3.29 7.21 1.57 1.96-1.03 4.89-.19 7.73-.19.46 5.12.91 10.02 1.36 15.03-.64.17-1.03.38-1.41.36-9.36-.32-13.39 5.96-16.28 13.38-1.45 3.73-2.11 7.78-3.55 11.52-1.32 3.43-3.12 6.7-4.89 9.95-1.37 2.51-3.25 4.13-6.49 2.9-1-.38-2.28-.06-3.53-.06-1.4-1.8-.84-3.2.83-4.74 4.08-3.76 6.74-8.16 5.34-14.07-.11-.48-.11-1.23.18-1.52 3.51-3.6 1.16-6.67-.96-10.03-.92.83-1.7 1.89-2.74 2.36-1.25.56-2.83 1.11-4.07.81-4.5-1.07-9.36 1.56-9.8 6.15-1.02 10.66-6.87 19.41-11.3 28.92-.41-3.48-.86-6.96-1.18-10.45-.06-.66.22-1.49.62-2.02 2.31-2.99 2.32-6.23 1.32-9.66-.47-1.63-1.19-3.29-1.17-4.93.08-4.64-2.94-7.32-5.98-9.91-.86-.73-2.55-.97-3.73-.76-3.19.59-5.97-.06-8.84-1.48-5.4-2.67-10.94-5.06-16.82-7.75-1.75 4.02-7.76 5.95-5.19 11.84-8.6 5.99-12.81 15.59-20.19 23.1 3.91 2.17 7.52 3.75 10.62 6.02 2.09 1.52 4.11 3.76 5.03 6.12 1.4 3.62-1.84 6.83-5.65 5.76-3.59-1.01-7.2-2-9.92-5.15-3.38-3.91-8.4-4.65-13.23-5.45-.54-.09-1.18.29-1.75.52-3.58 1.45-7.2 2.84-10.73 4.42-2.77 1.23-5.39 2.7-7.93 3.99z" fill="#010104"/><path d="m190.63 104.76c10.32 5.54 16.37 13.3 18.61 23.83.42 1.99-.59 4.35-1.14 6.48-.43 1.65-.21 2.64 1.36 3.66 2.38 1.55 4.62 3.39 6.7 5.34 3.2 3 6.62 3.43 9.3 2.07 1.97.64 3.04 1.11 4.17 1.34 3.32.66 6.67 1.21 10 1.83 1.88.35 3.81 1.17 5.63.97 2.49-.26 4.92-1.21 7.34-2 4.29-1.39 8.53-1.46 13.07-1.14 4.37.31 8.87-1.39 13.34-2.06 2.19-.33 4.44-.34 6.66-.5.07 2.36.52 4.79.07 7.04-.3 1.49-1.63 3.32-2.98 3.96-5.73 2.71-11.6 5.16-17.53 7.42-1.77.67-3.91.37-5.88.55-.91.08-2.04-.04-2.66.45-2.99 2.34-5.97 3.04-9.86 2.08-5.51-1.36-11.23-1.88-16.86-2.7-6.7-.98-12.35-4.23-17.74-8.08-3.7-2.64-7.71-4.53-12.39-4.15-1.13.09-2.44.67-3.24 1.45-2.8 2.74-5.51 5.59-8.1 8.54-10.39 11.82-21.83 22.51-34.07 32.39-2.96 2.39-5.69 5.12-8.18 7.99-3.59 4.13-7.9 6.88-13.09 8.5-2.62.82-5.2 1.84-7.67 3.04-2.59 1.26-4.95 1.91-6.97-.76-2.85 2.62-5.26 2.15-6.11-.53 3.1-1.8 6.04-3.6 9.06-5.23 1.86-1 3.8-1.91 5.81-2.55 10.78-3.44 18.97-10.02 24.69-19.77.72-1.24 1.75-2.55 2.96-3.2 6.45-3.46 10.73-9.19 15.43-14.46 1.97-2.21 3.59-4.73 5.51-6.99 2.97-3.51 5.5-7.21 6.6-11.78.21-.85 1.14-2.13 1.8-2.17 4.02-.25 5.44-3.31 6.41-6.23 2.94-8.76 5.37-17.63 2-26.92-.81-2.2-1.22-4.5-2.05-7.71z" fill="#010104"/><g fill="#fbfafa"><path d="m12.4 4.8-6.1 9h6v1.2h-8v-.5l6.1-8.9h-5.7v-1.2h7.6v.4z"/><path d="m14 15v-10.6h3c1.6 0 2.9.5 4 1.4s1.6 2.2 1.6 3.8-.5 3-1.6 3.9-2.4 1.5-4 1.5zm1.4-9.4v8.2h1.6c1.3 0 2.4-.4 3.1-1.1s1.1-1.8 1.1-3.1-.4-2.3-1.2-3-1.8-1-3.1-1z"/><path d="m26.1 4.4v10.6h-1.4v-10.6z"/><path d="m36.1 14.6c-.8.4-1.8.6-2.9.6-1.5 0-2.7-.5-3.6-1.4s-1.4-2.2-1.4-3.8c0-1.7.5-3.1 1.5-4.1s2.3-1.6 3.9-1.6c1 0 1.8.1 2.5.4v1.4c-.8-.4-1.6-.6-2.5-.6-1.2 0-2.1.4-2.9 1.2s-1.1 1.8-1.1 3.2c0 1.3.3 2.3 1 3s1.6 1.1 2.7 1.1c1 0 2-.2 2.7-.7v1.3z"/><path d="m37.6 14.3c0-.2.1-.5.3-.6s.4-.3.6-.3c.3 0 .5.1.6.3s.3.4.3.6-.1.4-.3.6-.4.3-.6.3c-.3 0-.5-.1-.6-.3s-.3-.4-.3-.6z"/><path d="m50.2 15h-1.6l-5.3-8.2c-.2-.2-.3-.5-.4-.7 0 .2.1.7.1 1.5v7.4h-1.4v-10.6h1.7l5.2 8.1c.2.4.4.6.4.7 0-.3-.1-.8-.1-1.5v-7.3h1.4z"/><path d="m58.6 15h-5.7v-10.6h5.5v1.2h-4.1v3.4h3.8v1.2h-3.8v3.6h4.3z"/><path d="m67.1 5.6h-3.1v9.4h-1.4v-9.4h-3v-1.2h7.5z"/></g></svg>