<svg enable-background="new 0 0 400 400" viewBox="0 0 400 400" xmlns="http://www.w3.org/2000/svg"><path d="m111.33 35.4c3.43 3.42 7.68 6.12 9.72 9.99 4.91 9.33 9.33 19 12.93 28.9 5.16 14.21 9.49 28.72 14.04 43.14 4.11 13.02 8.12 26.07 11.97 39.17.71 2.43.73 5.18.5 7.73-.61 6.75-1.99 13.45-2.22 20.21-.47 13.9-5.52 26.69-8.94 39.87-3.51 13.52-6.91 27.12-11.37 40.34-4.08 12.11-4.67 24.81-7.81 37.04-1.61 6.26-.81 12.86 2.03 18.64 1.37 2.79 4.37 5.47 7.27 6.7 16.14 6.89 32.58 12.92 50.64 10.53 11.96-1.58 23.18-5.75 34.19-10.51 1.05-.45 1.95-1.27 2.87-1.98 6.06-4.65 11.89-9.62 18.2-13.88 7.52-5.08 12.96-11.8 17.32-19.54 6.52-11.55 11.11-23.61 9.03-37.24-.48-3.13-1.1-6.26-1.94-9.32-1.9-6.95-11.65-10.13-17.07-5.4-4.22 3.67-8.27 7.61-11.95 11.82-10.19 11.68-20.39 23.36-33.04 32.48-7.03 5.07-14.41 9.67-21.8 14.21-3.18 1.95-6.85 2.7-10.48 1.67-.62-3.19-1.42-6.16-1.74-9.19-.44-4.26 1.01-8.36 4.38-10.67 24.66-16.91 43.46-39.21 60.07-63.7 3.46-5.11 7.9-9.69 12.48-13.86 5.3-4.83 12.56-3.66 18.18.78 13.23 10.46 16.74 25.15 18.82 40.61.55 4.09.89 8.22 1.26 12.34.38 4.26.11 8.35-1.99 12.32-.93 1.76-.91 4.09-1.05 6.18-.43 6.24-.74 12.49-1.07 18.73-.44 8.16-4.55 14.98-8.8 21.41-4.48 6.78-10.19 12.73-15.37 19.05-.34.41-.6.92-1.02 1.21-7.38 5.11-14.45 10.78-22.25 15.15-13.63 7.66-28.21 13.24-43.79 15.44-6.35.9-12.89.96-19.32.71-8.67-.34-17.32-1.23-25.96-2.11-4.34-.44-8.41-1.65-11.77-4.9-1.77-1.71-4.19-2.89-6.51-3.85-4.64-1.93-7.96-5.11-10.28-9.48-2.23-4.21-4.84-8.27-6.61-12.66-1.31-3.26-1.7-6.94-2.23-10.47-1.54-10.27-2.98-20.55-4.36-30.84-.19-1.42-.07-2.97.28-4.36 1.49-6.07 3.27-12.06 4.65-18.15 1.28-5.66 2.29-11.39 3.23-17.12.78-4.76 1.55-9.36 3.44-14 2.57-6.29 3.53-13.26 5.01-19.97 2.31-10.43 4.98-20.81 6.58-31.35 2.04-13.5 1.04-27.1-1.15-40.54-3.27-20.06-6.4-40.16-10.32-60.1-1.93-9.82-5.77-19.25-8.25-28.99-1.89-7.41-1.05-14.9 1.37-22.19z" fill="#010104"/><g fill="#fbfafa"><path d="m12.4 4.8-6.1 9h6v1.2h-8v-.5l6.1-8.9h-5.7v-1.2h7.6v.4z"/><path d="m14 15v-10.6h3c1.6 0 2.9.5 4 1.4s1.6 2.2 1.6 3.8-.5 3-1.6 3.9-2.4 1.5-4 1.5zm1.4-9.4v8.2h1.6c1.3 0 2.4-.4 3.1-1.1s1.1-1.8 1.1-3.1-.4-2.3-1.2-3-1.8-1-3.1-1z"/><path d="m26.1 4.4v10.6h-1.4v-10.6z"/><path d="m36.1 14.6c-.8.4-1.8.6-2.9.6-1.5 0-2.7-.5-3.6-1.4s-1.4-2.2-1.4-3.8c0-1.7.5-3.1 1.5-4.1s2.3-1.6 3.9-1.6c1 0 1.8.1 2.5.4v1.4c-.8-.4-1.6-.6-2.5-.6-1.2 0-2.1.4-2.9 1.2s-1.1 1.8-1.1 3.2c0 1.3.3 2.3 1 3s1.6 1.1 2.7 1.1c1 0 2-.2 2.7-.7v1.3z"/><path d="m37.6 14.3c0-.2.1-.5.3-.6s.4-.3.6-.3c.3 0 .5.1.6.3s.3.4.3.6-.1.4-.3.6-.4.3-.6.3c-.3 0-.5-.1-.6-.3s-.3-.4-.3-.6z"/><path d="m50.2 15h-1.6l-5.3-8.2c-.2-.2-.3-.5-.4-.7 0 .2.1.7.1 1.5v7.4h-1.4v-10.6h1.7l5.2 8.1c.2.4.4.6.4.7 0-.3-.1-.8-.1-1.5v-7.3h1.4z"/><path d="m58.6 15h-5.7v-10.6h5.5v1.2h-4.1v3.4h3.8v1.2h-3.8v3.6h4.3z"/><path d="m67.1 5.6h-3.1v9.4h-1.4v-9.4h-3v-1.2h7.5z"/></g></svg>