<svg enable-background="new 0 0 400 400" viewBox="0 0 400 400" xmlns="http://www.w3.org/2000/svg"><path d="m278.34 282.78c-4.95-1.54-10.09-3.2-15.28-4.66-.73-.21-2.11.35-2.58.99-2.1 2.91-4 5.96-5.93 9-.56.89-.94 1.9-1.44 2.83-3.96 7.41-9.58 12.09-18.55 11.04-8.61-1-17.27-1.81-25.79-3.32-3.51-.62-6.66-3.05-10.12-4.26-3.74-1.31-7.6-2.53-11.5-3.1-3.95-.58-7.48-1.44-10.76-3.96-5.89-4.51-12.41-8.22-18.01-13.03-2.47-2.12-3.35-6.1-4.88-9.27-.1-.21.28-.78.56-1.03 5.22-4.58 9.75-10.57 17.07-11.59 4.48-.63 9.26.11 13.8.87 4.77.8 9.07.19 13.57-1.53 17.21-6.56 34.53-12.83 51.8-19.22 3.62-1.34 4.53-3.16 2.55-6.48-2.2-3.71-4.88-7.14-7.39-10.66-3.87-5.42-7.92-10.72-11.64-16.24-3.08-4.58-6.54-8.55-11.74-10.8-2.12-.92-3.56-.63-5.26 1.1-14.26 14.56-29.15 28.41-45.91 40.12-11.65 8.14-24.45 13.91-37.73 18.69-1.49.54-3.35.25-5.01.08-4.32-.45-8.61-1.23-12.94-1.52-1.63-.11-3.72.29-4.91 1.29-4.03 3.4-8.02 6.93-11.53 10.86-4.66 5.22-9.95 8.7-17.45 8.79 0-2.89-.12-5.64.07-8.36.07-.92.79-1.91 1.47-2.63 6.26-6.63 12.56-13.22 18.9-19.78.87-.9 1.93-1.66 2.99-2.34 4.63-2.99 9.19-6.1 13.96-8.84 13.39-7.72 25.48-17.08 36.54-27.86 5-4.87 10.74-8.97 15.72-13.85 5.67-5.55 10.1-11.97 11.13-20.21.22-1.75-.26-2.7-1.69-3.62-8.54-5.5-18.08-8.17-28.01-8.2-17.79-.06-35.59.69-53.38 1.23-1.04.03-2.21 1.02-3.05 1.83-5.94 5.75-11.63 11.77-17.75 17.31-5.25 4.76-11.65 6.76-18.82 5.92-1.86-.22-2.84-1-3.48-2.93-4.1-12.55-2.55-24.06 5.12-34.99 14.86-21.17 29.4-42.55 44.16-63.79 1.41-2.03 1.98-3.77.86-6.07-1.86-3.82-2.04-7.5-.59-11.81.96-2.86-.26-6.62-1.01-9.86-1.27-5.44.42-10.15 5.31-12.87.71-.39 2.06-.19 2.85.23 11.57 6.11 21.26 14.08 23.1 27.96 1.62 12.21 7.39 16.35 23.36 15.29 5.68-.38 11.26-2.53 16.92-2.68 7.66-.2 15.44.21 23.02 1.34 11.2 1.67 22.36 4.1 32.43 9.59 4.31 2.35 8.1 5.68 12.02 8.71 3.84 2.97 7.35 6.42 11.38 9.09 3.59 2.38 5.09 5.43 4.47 9.38-.5 3.2-1.31 6.46-2.65 9.39-5 10.98-10.34 21.81-15.36 32.78-.7 1.52-.63 3.6-.33 5.33.91 5.22 3.71 9.42 6.96 13.62 9.07 11.74 17.53 23.95 26.53 35.74 2.99 3.92 6.76 7.29 10.49 10.55 1.07.93 3.39 1.18 4.87.78 13.68-3.74 27.3-7.7 40.95-11.58.91-.26 1.85-.46 2.78-.63 4.5-.81 7.29.32 8.58 3.44 1.5 3.64-.07 7.73-3.45 10.18-9.44 6.83-19.01 13.51-28.07 20.81-7.6 6.12-12.89 14.03-14.23 24.03-.17 1.28.01 2.74.46 3.96 2.26 6.16 4.74 12.24 6.93 18.43.44 1.22.47 3.05-.14 4.11-4.12 7.18-4.75 14.74-4.28 22.91.89 15.45.99 30.95-2.11 46.26-.1.5-.22 1-.31 1.44-2.21.79-3.36.13-4.4-1.86-3.81-7.28-5.86-14.9-5.68-23.18.28-12.96-3.03-25.4-5.88-37.9-.9-3.92-2.03-7.81-2.62-11.78-.38-2.79-.04-5.67-.04-9.01zm-157.14-161.67c1.9 6.47 5.08 8.86 11.18 8.98 10.36.21 20.75.09 31.07.85 9.52.7 19.26 2.14 27.21 7.75 4.83 3.41 8.63 2.82 13.58 1.25 5.7-1.81 10.31-4.84 14.23-9.13.79-.87 1.43-2.13 1.58-3.28.6-4.62.77-9.31 1.5-13.9.5-3.12-.64-5.31-2.68-7.33-5.89-5.85-13.06-9.45-21.07-11.06-3.4-.68-7.36-.84-10.57.24-8.05 2.72-15.75 3.48-23.59-.44-.87-.43-2.78-.18-3.38.49-2.29 2.54-4.69 5.16-6.2 8.18-2.02 4.05-4.27 7.11-8.93 8.59-8.03 2.54-15.85 5.79-23.93 8.81zm68.61 80.18c2.24-1.22 3.7-2 5.46-2.95-1.27-1.19-2.14-2-3.3-3.08-.73 2.04-1.3 3.63-2.16 6.03z" fill="#010104"/><g fill="#fbfafa"><path d="m12.4 4.8-6.1 9h6v1.2h-8v-.5l6.1-8.9h-5.7v-1.2h7.6v.4z"/><path d="m14 15v-10.6h3c1.6 0 2.9.5 4 1.4s1.6 2.2 1.6 3.8-.5 3-1.6 3.9-2.4 1.5-4 1.5zm1.4-9.4v8.2h1.6c1.3 0 2.4-.4 3.1-1.1s1.1-1.8 1.1-3.1-.4-2.3-1.2-3-1.8-1-3.1-1z"/><path d="m26.1 4.4v10.6h-1.4v-10.6z"/><path d="m36.1 14.6c-.8.4-1.8.6-2.9.6-1.5 0-2.7-.5-3.6-1.4s-1.4-2.2-1.4-3.8c0-1.7.5-3.1 1.5-4.1s2.3-1.6 3.9-1.6c1 0 1.8.1 2.5.4v1.4c-.8-.4-1.6-.6-2.5-.6-1.2 0-2.1.4-2.9 1.2s-1.1 1.8-1.1 3.2c0 1.3.3 2.3 1 3s1.6 1.1 2.7 1.1c1 0 2-.2 2.7-.7v1.3z"/><path d="m37.6 14.3c0-.2.1-.5.3-.6s.4-.3.6-.3c.3 0 .5.1.6.3s.3.4.3.6-.1.4-.3.6-.4.3-.6.3c-.3 0-.5-.1-.6-.3s-.3-.4-.3-.6z"/><path d="m50.2 15h-1.6l-5.3-8.2c-.2-.2-.3-.5-.4-.7 0 .2.1.7.1 1.5v7.4h-1.4v-10.6h1.7l5.2 8.1c.2.4.4.6.4.7 0-.3-.1-.8-.1-1.5v-7.3h1.4z"/><path d="m58.6 15h-5.7v-10.6h5.5v1.2h-4.1v3.4h3.8v1.2h-3.8v3.6h4.3z"/><path d="m67.1 5.6h-3.1v9.4h-1.4v-9.4h-3v-1.2h7.5z"/></g></svg>