<svg enable-background="new 0 0 400 400" viewBox="0 0 400 400" xmlns="http://www.w3.org/2000/svg"><path d="m32.34 207.96c.22-3.16 1.26-5.25 3.99-6.58 7.21-3.53 13.42-8.44 18.91-14.27 12.5-13.29 26.6-24.59 42.62-33.33 9.34-5.09 16.23-12.83 23.48-20.22 11.21-11.43 22.6-22.7 33.47-34.44 5.88-6.35 10.95-13.47 16.2-20.38 4.4-5.78 9.15-11.08 15.41-14.96 2.81-1.74 5.19-1.56 7.43.51 2.24 2.08 1.4 4.71.66 7.15-.65 2.14-2.62 4.54-2.09 6.22 1.04 3.3 2.96 6.61 5.36 9.11 2.26 2.36 5.42 4.13 8.5 5.39 12.53 5.12 25.06 10.28 37.82 14.77 8.66 3.05 17.74 4.88 26.55 7.5 6.68 1.99 13.23 4.4 19.86 6.56 1.18.39 2.48.83 3.68.72 18.35-1.75 36.7-3.59 55.04-5.41.53-.05 1.22.06 1.55-.24 3.89-3.53 6.91-.84 10.1 1.26 2.96 1.95 3.16 4.86.43 7.13-3.77 3.15-8.06 4.14-12.95 4.28-4.14.12-8.62.6-12.28 2.34-7.61 3.61-15.49 5.67-23.77 6.45-11.11 1.05-22.21 1.38-33.23-.9-1.24-.26-2.49-.58-3.65-1.06-5.22-2.15-9.73.01-14.19 2.32-.61.32-.96 1.32-1.24 2.07-1.19 3.28-2.47 6.55-3.42 9.9-1.64 5.78-4.15 11.1-7.87 15.8-1.36 1.73-1.38 3.47-1.3 5.58.2 5.47 2.81 9.05 7.11 12.24 10.12 7.5 21.15 12.72 33.44 15.54 15.27 3.49 30.45 7.37 45.7 10.98 5.12 1.21 10.19 1.33 15.27-.84 1.33-.56 3.94.14 5.07 1.21 2.86 2.72 5.22 5.97 8.06 9.35-5.04 2.59-9.35 5.07-13.9 6.98-1.54.65-3.72-.06-5.58-.35-4.22-.67-8.35-1.14-12.18-3.78-2.13-1.47-5.81-1.75-8.49-1.18-8.85 1.88-17.52.59-26.24-.45-13.57-1.62-27.14-3.28-40.72-4.81-2.43-.28-4.28-1.12-6.12-2.81-4.51-4.14-9.28-7.99-13.98-11.91-5.86-4.9-11.36-9.99-11.79-18.38-.21-4.07.66-7.51 2.94-11.23 4.94-8.09 9.1-16.69 13.1-25.31 2.84-6.12 4.9-12.61 7.43-19.23-4.58-1.55-8.93-2.85-13.14-4.49-3.12-1.22-6.21-2.66-9.09-4.37-14.36-8.54-29.63-12.24-46.26-9.13-4.97.93-9.21 2.9-12.8 6.88-8.43 9.38-17.3 18.37-25.99 27.51-.72.76-1.41 1.56-2.6 2.88 6.41 1.84 12.46 3.46 18.43 5.3 8.58 2.65 17.1 5.46 25.65 8.19 1.31.42 2.6.95 3.95 1.16 8.04 1.24 13.44 6.14 16.04 13.35 5.08 14.1 8.16 28.54 2.24 43.31-.31.78-.49 1.74-1.06 2.27-7.77 7.37-14.11 16.12-24.15 21.22-10.83 5.5-20.89 12.51-31.37 18.73-6.94 4.12-13.73 8.39-19.55 14.07-3.46 3.37-7.73 2.97-11.98 2.25-.53-.09-1.13-.89-1.34-1.49-2.08-5.78-1.9-7.07 3.46-9.65 11.13-5.35 19.59-13.96 28.38-22.23 1.41-1.32 3.33-2.1 5.02-3.13 1.14-.7 2.55-1.19 3.38-2.17 7.38-8.66 15.21-16.71 24.83-23.06 2.62-1.73 3.84-5.86 5.2-9.09 1.13-2.7 1.3-5.79 2.28-8.57 1.8-5.12-.17-8.98-3.94-12.05-7.82-6.36-17.03-10.12-26.74-11.94-13.92-2.61-28.01-4.31-42.05-6.29-.94-.13-2.45.37-2.94 1.09-4.32 6.39-10.75 9.61-17.8 11.42-8.21 2.1-15.19 6.38-21.99 11.07s-13.49 9.55-20.14 14.47c-2.22 1.64-4.48 2.53-7.28 2.54-3.56.02-7.13.42-10.84.66z" fill="#010104"/><path d="m218.59 339.59c-8.64-2.42-18.68-2.02-27.84-6.97-7.13-3.85-12.71-8.43-16.99-15.36-4.7-7.62-10.42-14.63-15.8-21.83-1.13-1.51-2.56-2.92-4.13-3.94-5.27-3.42-6.22-8.54-5.9-14.18.19-3.38.85-6.74.94-10.12.07-2.77 1.63-4.26 3.88-3.85 3.96.72 8.15 1.58 11.58 3.54 3.57 2.05 6.7 2.97 10.75 2.01 2.91-.69 6.12-.83 9.1-.44 11.98 1.6 23.41.01 34.44-4.92 3.08-1.38 6.31-2.44 9.48-3.6 5.73-2.09 11.48-3.82 16.52-7.73 6.69-5.19 15.11-4.86 23.13-5.41 5.68 4.13 9.9-.03 14.36-2.59 5.41-3.11 13.82.22 15.83 6.26.6 1.8.55 3.26-1.04 4.52-.82.65-1.42 1.6-2.24 2.25-7.7 6.04-11.82 14.04-13.44 23.59-1.85 10.91-6.43 20.11-15.22 27.54-7.06 5.98-12.45 13.89-19.36 20.09-7.54 6.77-16.75 10.6-28.05 11.14zm-39.99-49.96c3.02 11.98 7.84 21.78 14.47 30.71.48.65 1.14 1.34 1.87 1.62 5.84 2.2 11.7 4.35 17.61 6.38 1.03.35 2.32.22 3.43-.01 12.31-2.5 22.9-8.58 32.84-15.95 1.08-.8 2.25-1.83 2.72-3.02 3.99-10.12 7.92-20.27 11.64-30.5.65-1.8.52-4.01.27-5.97-.48-3.69-2.97-5.09-6.54-4.05-1.83.53-3.66 1.21-5.53 1.39-9.27.89-17.95 3.73-26.34 7.65-2.39 1.12-4.96 1.89-7.3 3.11-8.29 4.3-17.14 5.62-26.37 5.89-4.18.12-8.32 1.74-12.77 2.75z" fill="#010104"/><g fill="#fbfafa"><path d="m12.4 4.8-6.1 9h6v1.2h-8v-.5l6.1-8.9h-5.7v-1.2h7.6v.4z"/><path d="m14 15v-10.6h3c1.6 0 2.9.5 4 1.4s1.6 2.2 1.6 3.8-.5 3-1.6 3.9-2.4 1.5-4 1.5zm1.4-9.4v8.2h1.6c1.3 0 2.4-.4 3.1-1.1s1.1-1.8 1.1-3.1-.4-2.3-1.2-3-1.8-1-3.1-1z"/><path d="m26.1 4.4v10.6h-1.4v-10.6z"/><path d="m36.1 14.6c-.8.4-1.8.6-2.9.6-1.5 0-2.7-.5-3.6-1.4s-1.4-2.2-1.4-3.8c0-1.7.5-3.1 1.5-4.1s2.3-1.6 3.9-1.6c1 0 1.8.1 2.5.4v1.4c-.8-.4-1.6-.6-2.5-.6-1.2 0-2.1.4-2.9 1.2s-1.1 1.8-1.1 3.2c0 1.3.3 2.3 1 3s1.6 1.1 2.7 1.1c1 0 2-.2 2.7-.7v1.3z"/><path d="m37.6 14.3c0-.2.1-.5.3-.6s.4-.3.6-.3c.3 0 .5.1.6.3s.3.4.3.6-.1.4-.3.6-.4.3-.6.3c-.3 0-.5-.1-.6-.3s-.3-.4-.3-.6z"/><path d="m50.2 15h-1.6l-5.3-8.2c-.2-.2-.3-.5-.4-.7 0 .2.1.7.1 1.5v7.4h-1.4v-10.6h1.7l5.2 8.1c.2.4.4.6.4.7 0-.3-.1-.8-.1-1.5v-7.3h1.4z"/><path d="m58.6 15h-5.7v-10.6h5.5v1.2h-4.1v3.4h3.8v1.2h-3.8v3.6h4.3z"/><path d="m67.1 5.6h-3.1v9.4h-1.4v-9.4h-3v-1.2h7.5z"/></g></svg>