<svg enable-background="new 0 0 400 400" viewBox="0 0 400 400" xmlns="http://www.w3.org/2000/svg"><path d="m225 204.17c-13.42 0-26.2 0-39.19 0 3.38 5.51-1.09 6.46-4.41 7.4-3.23.92-4.08 2.39-4.57 5.77-2.47 17.06-4.11 34.41-8.6 50.96-8.81 32.49-31.41 53.54-60.96 68.02-19.63 9.62-40.25 16.4-61.2 22.33-1.23.35-2.7-.17-4.05-.28 1.03-.99 1.88-2.44 3.11-2.89 22.27-8.03 43.85-17.38 63.65-30.6 27.66-18.46 43.28-44.59 48.93-76.8 2.23-12.71 2.66-25.73 3.84-38.62.15-1.61-.11-3.27-.2-5.18-17.37 0-34.47 0-51.84 0-2.14 5.57 2.6 13.38-4.71 17.5-3.63 2.04-7.64 3.41-12.17 5.38 0-59.27 0-117.11 0-175.93 10.43 4.22 21.06 5.11 30.75 12.75-5.51 2.05-9.77 3.64-14.16 5.28v128.47h187.6c0-48.83 0-97.71 0-147.69 9.11 3.14 17.41 5.9 25.61 8.92 1.14.42 2.33 1.98 2.54 3.18.12.7-1.62 1.77-2.59 2.6-.36.31-.91.38-1.38.58-8.01 3.34-8.03 3.34-8.01 11.97.08 44.49.17 88.98.25 133.48.01 5.11-9.91 11.4-14.7 9.15-.94-.44-1.57-2.37-1.64-3.65-.21-3.81-.08-7.65-.08-11.87-15.73 0-31.47 0-47.11 0 2.24 4.23 2.24 4.23-8.72 8.13v4.8 106.99c0 10.32 4.69 15.42 15.16 15.54 19.16.22 38.33.24 57.49-.02 8.98-.12 16.75-4.09 19.84-12.66 4.54-12.58 7.95-25.59 11.31-38.56 1.95-7.52 2.82-15.32 4.25-22.98.23-1.22.84-2.36 1.28-3.54.55.04 1.11.07 1.66.11 0 2.92.23 5.87-.04 8.77-1.5 16.37-2.97 32.75-4.77 49.09-.72 6.53 1.44 11.18 6.64 15.04 2.38 1.76 3.99 4.57 5.95 6.9-2.64 2.1-4.98 5.29-7.96 6.07-7.33 1.92-14.93 3.67-22.45 3.82-24.99.49-49.99.44-74.98.12-5.16-.07-10.64-1.42-15.36-3.54-10.26-4.6-14.03-13.5-14.03-24.36.03-38 .01-75.99.01-113.99.01-1.81.01-3.63.01-5.96z" fill="#010104"/><path d="m209.6 129.93c-13.2 11.59-25.67 23.37-39.04 34.03-14.89 11.88-31.91 20.39-49.39 27.91-2.83 1.22-4.35.82-5.06-2.3 32.92-16.01 59.25-39.93 82.59-69.08-10.79-6.91-20.97-13.75-31.45-20.07-11.1-6.7-22.48-12.94-33.78-19.3-2.15-1.21-3.82-2.27-.53-5.44 23.72 11.67 47.78 23.52 72.26 35.57 12.84-17.79 21.18-38.59 29.92-60.04 7.88 5.48 15.24 10.6 22.6 15.72-.16.79-.32 1.58-.48 2.38-2.87.59-5.81.99-8.6 1.84-1.65.5-3.72 1.35-4.5 2.68-8.83 15.03-17.44 30.18-26.27 45.55 6.4 5.26 14.21 10.96 21.15 17.57 8.18 7.78 15.93 16.07 23.2 24.71 3.09 3.67 4.99 8.62 6.38 13.3.64 2.15-.53 6.4-2.18 7.28-2.08 1.11-5.94.57-8.19-.73-2.58-1.48-4.42-4.43-6.25-6.97-11.56-16.02-25.07-30.19-40.13-42.92-.99-.85-2.1-1.58-2.25-1.69z" fill="#010104"/><g fill="#fbfcfa"><path d="m37.59 393.81c-.92.31-1.52.05-2-.78-.7-1.2-1.52-2.34-2.47-3.78v4.59c-.55.03-.95.05-1.41.07-.03-.37-.06-.64-.06-.91 0-1.91 0-3.81 0-5.7 1.13-.41 1.77-.03 2.29.91.62 1.11 1.38 2.14 2.31 3.19v-4.2h1.35v6.61z"/><path d="m12.94 393.88v-6.75c1.9.19 3.93-.54 5.37 1.29.8 1.01.78 2.88.03 3.97-1.37 1.97-3.4 1.51-5.4 1.49m1.45-1.22c2.04.12 2.92-.58 2.89-2.21-.03-1.51-.98-2.19-2.89-2z"/><path d="m11.81 393.87h-5.49c.68-2.18 2.47-3.48 3.51-5.45h-3.08v-1.21h5.29c-.71 2.13-2.44 3.48-3.47 5.51.86 0 1.63.04 2.39-.01.79-.05 1.14.21.85 1.16"/><path d="m39.33 393.86v-6.61h3.7v1.07h-2.22v1.52c.68.04 1.34.09 2.07.13v1.07c-.72.05-1.38.09-2.1.14v1.48h2.4v1.19h-3.85z"/><path d="m27.71 388.56c-1.15-.3-2.46-.61-3.1.64-.37.73-.41 1.93-.06 2.67.63 1.35 1.99.93 3.17.68.35.94-.01 1.32-.93 1.46-1.62.25-3.05-.27-3.76-1.48-.72-1.24-.6-3.03.31-4.17.88-1.11 2.71-1.7 4-1.16.32.13.44.74.65 1.12-.1.08-.19.16-.28.24"/><path d="m49.15 387.24v1.07c-.59.02-1.17.05-1.87.08v5.44h-1.48v-5.44h-1.85c-.05-.4-.08-.73-.13-1.15z"/><path d="m20.06 387.21h1.33v6.62h-1.33z"/><path d="m30.68 393.25c-.49.38-.8.79-1.05.76-.32-.05-.6-.45-.9-.7.26-.24.51-.64.8-.67.29-.04.62.3 1.15.61"/></g></svg>