<svg enable-background="new 0 0 400 400" viewBox="0 0 400 400" xmlns="http://www.w3.org/2000/svg"><path d="m6.44 374.46.42-.45c.65.47 1.27.95 1.85 1.44l-.45.49c-.65-.56-1.25-1.06-1.82-1.48m.93 7.33-.63-.26c.55-1.36 1.05-2.8 1.52-4.33.19.1.38.19.59.27-.46 1.29-.95 2.73-1.48 4.32m-.38-10.38.44-.42c.43.34 1.01.82 1.74 1.44l-.49.49c-.53-.51-1.09-1.01-1.69-1.51m2.5.35h1.72v-1.04h.59v1.04h3.52v-1.04h.59v1.04h1.75v.53h-1.75v1.42h-2.03v.97h3.22v2.03h-3.24c0 .35-.01.66-.03.93h3.32v.53h-3.37c-.03.27-.08.58-.15.94h3.96v.53h-3.71c.67.92 1.93 1.48 3.79 1.68-.13.24-.23.44-.29.59-2.13-.38-3.48-1.08-4.04-2.12-.43.97-1.77 1.72-4.03 2.23-.09-.19-.2-.37-.33-.55 2.1-.42 3.37-1.03 3.81-1.83h-3.36v-.53h3.58c.08-.29.13-.61.16-.94h-3.33v-.53h3.39c.02-.27.04-.58.04-.93h-3.23v-2.03h3.25v-.97h-2.07v-1.42h-1.73zm1.12 3.44v1h2.65c.01-.3.02-.44.02-.4v-.25-.35zm1.19-2h3.52v-.91h-3.52zm4.71 2h-2.63v.59c0 .15-.01.28-.01.4h2.64z" fill="#fafbfc"/><path d="m13.56 383.74h.63v1.52h2.72v6.07h1.13v.6h-11.06v-.6h1.13v-6.07h2.73v-1.52h.63v1.52h2.1v-1.52zm-2.69 8.83.38.56c-1.24.63-2.53 1.25-3.85 1.85-.1-.21-.21-.42-.34-.63 1.36-.55 2.63-1.15 3.81-1.78m-2.13-4.27h2.1v-2.45h-2.1zm0 3.04h2.1v-2.46h-2.1zm2.72-3.04h2.1v-2.45h-2.1zm0 3.04h2.1v-2.46h-2.1zm6.07 3.6c-1.41-.71-2.7-1.3-3.86-1.78l.35-.56c1.45.62 2.75 1.19 3.88 1.72zm-1.25-9.09h-2.1v2.45h2.1zm-2.09 5.49h2.1v-2.46h-2.1z" fill="#fafbfc"/><g fill="#010105"><path d="m240 164.36v5.31 160.46c0 8.48 1.46 10.53 10.04 10.51 24.47-.05 48.95-.39 73.41-1 8.26-.2 12.8-6.25 15.35-13.21 3.48-9.48 6.23-19.25 9.05-28.96 1.38-4.77 2.02-9.76 3.4-14.53.42-1.46 2.17-2.53 3.32-3.79.53.31 1.07.61 1.6.92-.44 6.91-.8 13.84-1.33 20.74-.83 10.77-1.7 21.54-2.73 32.3-.26 2.75.94 3.99 2.96 5.6 2.96 2.35 5.31 5.47 7.92 8.26-3.75 1.7-7.43 4.66-11.26 4.88-19.59 1.15-39.21 1.83-58.83 2.23-15.49.31-30.99.01-46.48-.14-3.47-.04-6.98-.39-10.4-1-6.64-1.18-11.01-5.63-12.01-12.27-.59-3.93-.96-7.94-.97-11.91-.08-57.65-.09-115.31-.11-172.96 0-1.96 0-3.91 0-6.72 4.1 2.29 7.4 4.52 10.99 6.03 3.25 1.37 6.81 2.71 10.26 2.75 19.33.26 38.66-.08 57.98.26 5.27.09 9.26-1.29 12.75-5.03 2.03-2.17 4.33-4.08 6.63-6.21 6.18 4.6 12.28 8.95 18.11 13.63 1.49 1.19 3.27 3.87 2.83 5.14-.52 1.5-3.2 2.5-5.14 3.17-1.82.63-3.88.54-6.34.82v5.6 73.98c0 14.89-6.55 23.73-20.82 27.71-4.29 1.2-8.73 1.84-13.7 2.86-2.5-13.52-13.21-16.65-23.85-19.85-5.06-1.52-10.15-2.96-17.01-4.96 2.42-1.41 3.9-3.03 5.21-2.9 12.23 1.23 24.43 2.76 36.63 4.2 1.16.14 2.31.3 3.47.38 10.43.67 14.53.8 14.24-13.04-.56-26.3-.16-52.62-.16-79.29-24.97.03-49.69.03-75.01.03z"/><path d="m131.89 268.96c-2.8-4.04-5.62-7.28-7.52-10.98-7.68-14.97-18.38-27.62-29.81-40.03-6.21 6.76-11.97 13.63-18.37 19.85-9.19 8.91-18.79 17.4-28.36 25.92-1.1.98-3.11.92-5.06.58 41.39-42.31 70.33-91.47 87.56-148.27 7.51 3.25 14.79 6.29 21.96 9.61 1.27.59 2.02 2.3 3 3.49-1.21.71-2.46 2.1-3.63 2.03-9.31-.54-12.15 5.66-14.55 12.97-1.8 5.49-4.43 10.7-6.67 16.04-.05.12.08.32.21.83 14.53 0 29.18.44 43.76-.3 3.76-.19 7.62-3.72 10.9-6.38s5.45-2.38 8.4.43c4.45 4.23 9.47 7.87 13.98 12.04 1.29 1.2 2.32 3.42 2.22 5.1-.06.9-2.88 2.46-4.29 2.29-8.99-1.05-10.32 5.24-12.51 11.66-17.77 51.98-48.27 95.28-90.36 130.38-22.8 19.01-46.65 34.3-63.31 41.78-.76-1.15-1.54-2.34-2.41-3.66 37.41-22.78 69.61-50.94 94.86-85.38zm49.29-101.96c-17.83 0-34.97-.03-52.11.08-1.06.01-2.54.86-3.1 1.76-9.38 15.05-18.65 30.18-28.14 45.61 2.33 1.55 5.21 3.46 8.08 5.38 14.43 9.64 29.61 18.59 33.56 38.38 18.88-28.49 32.4-58.43 41.71-91.21z"/><path d="m82.44 88.16c-2.2 9.62-3.47 19.12-6.64 27.94-3.4 9.45-8.37 18.36-13.16 27.24-1 1.86-4.41 3.76-6.3 3.42-2-.36-4.57-3.16-5.05-5.3-1.91-8.63-1.72-16.93 4.72-24.29 11.84-13.53 16.64-30.46 21.54-47.22.91-3.1 1.89-4.88 5.88-3.38-.34 4.45-.69 9.03-1.08 14.02h112.16c0-14.59 0-29.17 0-44.39 10.78 2.99 22.5 3.24 32.75 8.82.05.63.1 1.26.14 1.9-3.75 1.41-7.56 2.69-11.22 4.31-1.25.55-3.01 1.91-3.04 2.95-.24 8.78-.14 17.57-.14 26.84h5.83c33.16 0 66.33-.21 99.49.17 7.02.08 12.67-1.43 17.28-6.58 2.86-3.19 5.37-3.35 8.72-.37 5.46 4.86 11.58 8.98 16.93 13.95 3.83 3.56 2.6 7.76-2.29 7.5-12.15-.65-17.66 8.24-24.55 15.34-6.6 6.8-13.11 13.69-19.55 20.42-4.31-1-2.98-3.49-1.89-5.77 5.11-10.63 10.28-21.24 15.41-31.86.85-1.75 1.65-3.52 2.64-5.63-83.23-.03-165.85-.03-248.58-.03z"/></g></svg>