<svg enable-background="new 0 0 400 400" viewBox="0 0 400 400" xmlns="http://www.w3.org/2000/svg"><path d="m6.44 374.46.42-.45c.65.47 1.27.95 1.85 1.44l-.45.49c-.65-.56-1.25-1.06-1.82-1.48m.93 7.33-.63-.26c.55-1.36 1.05-2.8 1.52-4.33.19.1.38.19.59.27-.46 1.29-.95 2.73-1.48 4.32m-.38-10.38.44-.42c.43.34 1.01.82 1.74 1.44l-.49.49c-.53-.51-1.09-1.01-1.69-1.51m2.5.35h1.72v-1.04h.59v1.04h3.52v-1.04h.59v1.04h1.75v.53h-1.75v1.42h-2.03v.97h3.22v2.03h-3.24c0 .35-.01.66-.03.93h3.32v.53h-3.37c-.03.27-.08.58-.15.94h3.96v.53h-3.71c.67.92 1.93 1.48 3.79 1.68-.13.24-.23.44-.29.59-2.13-.38-3.48-1.08-4.04-2.12-.43.97-1.77 1.72-4.03 2.23-.09-.19-.2-.37-.33-.55 2.1-.42 3.37-1.03 3.81-1.83h-3.36v-.53h3.58c.08-.29.13-.61.16-.94h-3.33v-.53h3.39c.02-.27.04-.58.04-.93h-3.23v-2.03h3.25v-.97h-2.07v-1.42h-1.73zm1.12 3.44v1h2.65c.01-.3.02-.44.02-.4v-.25-.35zm1.19-2h3.52v-.91h-3.52zm4.71 2h-2.63v.59c0 .15-.01.28-.01.4h2.64z" fill="#fafbfc"/><path d="m13.56 383.74h.63v1.52h2.72v6.07h1.13v.6h-11.06v-.6h1.13v-6.07h2.73v-1.52h.63v1.52h2.1v-1.52zm-2.69 8.83.38.56c-1.24.63-2.53 1.25-3.85 1.85-.1-.21-.21-.42-.34-.63 1.36-.55 2.63-1.15 3.81-1.78m-2.13-4.27h2.1v-2.45h-2.1zm0 3.04h2.1v-2.46h-2.1zm2.72-3.04h2.1v-2.45h-2.1zm0 3.04h2.1v-2.46h-2.1zm6.07 3.6c-1.41-.71-2.7-1.3-3.86-1.78l.35-.56c1.45.62 2.75 1.19 3.88 1.72zm-1.25-9.09h-2.1v2.45h2.1zm-2.09 5.49h2.1v-2.46h-2.1z" fill="#fafbfc"/><g fill="#010105"><path d="m71.2 344.83h127.54c0-15.89 0-31.49 0-47.38-.69-.14-1.46-.42-2.23-.42-24.83.11-49.66.24-74.49.38-.67 0-1.34-.02-2 .04-7.52.65-7.52.65-9.18-6.97h87.86c0-14.79 0-29.73 0-44.98-.76-.14-1.68-.46-2.61-.47-35.64-.22-71.29-.34-106.93-.72-4.2-.04-4.69 1.7-5.17 5.19-5.34 39.28-15.07 77-40.3 108.91-1.54 1.95-4.03 3.14-6.08 4.68.8-2.29 1.27-4.76 2.46-6.83 12.03-20.89 18.56-43.65 22.72-67.16 4.09-23.12 6.31-46.45 6.17-69.95-.15-27.59-.44-55.17-.66-82.54-.3-.1.38-.02.89.33 9.81 6.76 20.78 7.25 32.3 7.2 71-.28 141.99-.19 212.99-.03 4.28.01 7.2-1.21 9.82-4.39 2.94-3.58 6.21-6.89 9.74-10.75 6.1 5.1 11.98 9.92 17.72 14.87 2.06 1.78 1.87 3.63-1 4.25-2.57.55-5.25.87-7.89.88-83.47.04-166.97.03-250.46.03-1.96 0-3.92 0-6.14 0v89.62h112.41c0-13.67 0-27.39 0-41.12-27.55 0-54.95 0-82.67 0-.7-2.08-1.48-4.4-2.37-7.03h84.9c0-12.81 0-25.99 0-39.94 10.27 3.44 21.21 4.35 30.72 9.83.14.62.28 1.24.42 1.86-4.02 1.84-8.04 3.69-12.43 5.7v23.08h11.31c11.83 0 23.67.14 35.5-.13 2.11-.05 4.65-1.36 6.17-2.9 4.06-4.12 7.66-8.69 11.7-13.36 6.45 5.27 12.8 10.33 18.96 15.61 1.11.95 2.38 3.4 1.92 4.14-.78 1.28-2.8 1.99-4.43 2.52-1.21.39-2.64.13-3.97.13-23.83 0-47.66 0-71.5 0-1.8 0-3.59 0-5.63 0v42h4.7c29.33 0 58.66-.05 88 .07 3.31.01 5.57-.89 7.6-3.53 3.34-4.34 7.04-8.4 10.93-12.98 6.3 5.17 12.56 10.07 18.51 15.3 2.6 2.28 2.14 4.93-1.32 6.09-2.15.72-4.55 1-6.84 1-35.82-.14-71.63-.35-107.44-.55-1.96-.01-3.91 0-6.31 0 2.52 4.9-.6 6.58-3.71 7.77-3.49 1.34-4.52 3.44-4.42 7.15.29 10.3.1 20.62.1 31.41 1.86.1 3.46.25 5.05.25 18.33.02 36.67-.07 55 .09 3.15.03 5.26-.91 7.24-3.27 3.84-4.57 7.94-8.93 12.09-13.56 6.14 5.31 12.15 10.33 17.89 15.62 1.16 1.07 2.17 3.47 1.74 4.75-.39 1.15-2.78 1.97-4.42 2.27-2.1.38-4.32.11-6.48.11-27.33 0-54.66 0-82 0-1.81 0-3.62 0-5.77 0v48h5c33.17 0 66.33-.04 99.49.07 3.26.01 5.59-.82 7.72-3.36 3.73-4.45 7.82-8.6 12.01-13.15 6.57 5.2 13.06 10.12 19.29 15.34 2.85 2.39 2.11 5.19-1.55 6.23-2.35.67-4.91.84-7.38.84-82.49.04-164.99.01-247.48.08-8.48.01-16.97.41-25.43 1.01-5.07.35-4.93-3.86-7.89-7.23z"/><path d="m101.4 106.28c-1.58 6.17 2.29 13.74-4.32 18.16-3.83 2.56-8.47 3.9-13.84 6.27 0-28.36 0-55 0-82.37 9.69 4.01 20.49 4.74 28.84 11.54-.03.53-.07 1.06-.1 1.59-3.56 1-7.12 1.99-10.78 3.01v36.21h89.66c0-21.24 0-42.31 0-64.23 10.27 3.68 20.88 4.69 29.61 10.67-.04.69-.08 1.39-.13 2.08-3.52.92-7.04 1.83-10.96 2.86v48.62h91.5c0-19.07 0-37.96 0-57.66 9.83 4.31 20.28 5.53 28.41 12.15.04.56.08 1.12.12 1.68-3.24 1.05-6.47 2.1-10.4 3.38v6.36c0 14.99.04 29.98-.02 44.98-.02 6.79-9.15 14.61-15.79 13.28-1.05-.21-2.29-2.53-2.38-3.95-.3-4.77-.11-9.57-.11-14.64-66.49.01-132.85.01-199.31.01z"/></g></svg>