<svg enable-background="new 0 0 400 400" viewBox="0 0 400 400" xmlns="http://www.w3.org/2000/svg"><path d="m6.44 374.46.42-.45c.65.47 1.27.95 1.85 1.44l-.45.49c-.65-.56-1.25-1.06-1.82-1.48m.93 7.33-.63-.26c.55-1.36 1.05-2.8 1.52-4.33.19.1.38.19.59.27-.46 1.29-.95 2.73-1.48 4.32m-.38-10.38.44-.42c.43.34 1.01.82 1.74 1.44l-.49.49c-.53-.51-1.09-1.01-1.69-1.51m2.5.35h1.72v-1.04h.59v1.04h3.52v-1.04h.59v1.04h1.75v.53h-1.75v1.42h-2.03v.97h3.22v2.03h-3.24c0 .35-.01.66-.03.93h3.32v.53h-3.37c-.03.27-.08.58-.15.94h3.96v.53h-3.71c.67.92 1.93 1.48 3.79 1.68-.13.24-.23.44-.29.59-2.13-.38-3.48-1.08-4.04-2.12-.43.97-1.77 1.72-4.03 2.23-.09-.19-.2-.37-.33-.55 2.1-.42 3.37-1.03 3.81-1.83h-3.36v-.53h3.58c.08-.29.13-.61.16-.94h-3.33v-.53h3.39c.02-.27.04-.58.04-.93h-3.23v-2.03h3.25v-.97h-2.07v-1.42h-1.73zm1.12 3.44v1h2.65c.01-.3.02-.44.02-.4v-.25-.35zm1.19-2h3.52v-.91h-3.52zm4.71 2h-2.63v.59c0 .15-.01.28-.01.4h2.64z" fill="#fafbfc"/><path d="m13.56 383.74h.63v1.52h2.72v6.07h1.13v.6h-11.06v-.6h1.13v-6.07h2.73v-1.52h.63v1.52h2.1v-1.52zm-2.69 8.83.38.56c-1.24.63-2.53 1.25-3.85 1.85-.1-.21-.21-.42-.34-.63 1.36-.55 2.63-1.15 3.81-1.78m-2.13-4.27h2.1v-2.45h-2.1zm0 3.04h2.1v-2.46h-2.1zm2.72-3.04h2.1v-2.45h-2.1zm0 3.04h2.1v-2.46h-2.1zm6.07 3.6c-1.41-.71-2.7-1.3-3.86-1.78l.35-.56c1.45.62 2.75 1.19 3.88 1.72zm-1.25-9.09h-2.1v2.45h2.1zm-2.09 5.49h2.1v-2.46h-2.1z" fill="#fafbfc"/><g fill="#010105"><path d="m232.87 254.37c-21.67-46.14-29.4-95.14-32.72-145.17-36.56 0-72.51 0-108.78 0-.13 1.44-.35 2.71-.36 3.98-.21 30.81-.17 61.63-.66 92.43-.89 56.13-15.11 108.03-49.8 153.22-.61.79-1.09 1.72-1.84 2.35-.62.52-1.53.68-2.32 1-.09-.97-.6-2.17-.21-2.89 2.6-4.83 5.57-9.46 8.08-14.33 14.7-28.48 23.37-58.83 27.68-90.49 4.08-29.94 4.49-60.06 3.54-90.18-.74-23.26-2.38-46.49-3.65-69.74-.1-1.76-.45-3.5-.81-6.15 6.1 4.55 11.47 8.71 17.02 12.61 1.52 1.07 3.58 1.9 5.4 1.91 34.66.11 69.33.08 103.99.07.64 0 1.29-.12 2-.19 0-21.86 0-43.58 0-66.03 9.85 2.66 20.13 3.7 29.35 10.1-3 1.08-6.13 1.9-8.96 3.33-1.63.83-3.94 2.61-3.96 4-.28 16.11-.18 32.22-.18 48.81h5.45c33.5 0 67-.05 100.49.08 3.54.01 5.83-1.05 7.97-3.84 3.54-4.6 7.53-8.86 11.77-13.77 8 6.17 15.92 12.11 23.63 18.32 2.17 1.75 1.31 3.7-1.31 4.28-2.41.54-4.92.88-7.39.89-44.66.05-89.33.04-133.99.04-1.95 0-3.9 0-5.78 0-3.53 28.24 11.44 101.69 27.23 133.37 26.76-30.43 46.15-65.01 62.76-101.83 9.04 5.05 19.33 7.31 27.92 16.27-4.4.68-7.35 1.29-10.33 1.57-2.78.26-4.81.88-6.29 3.78-17.55 34.49-39.23 66.08-66.52 93.66-.23.23-.34.56-1.23 2.1 7.34 9.91 14.65 20.59 22.8 30.58 12.48 15.3 26.65 28.86 44.09 38.58 2.32 1.29 4.8 2.32 7.11 3.63 4.01 2.28 7.42 1.11 9.37-2.51 3.12-5.82 6.5-11.76 8.12-18.07 4.28-16.71 7.66-33.65 11.42-50.49.35-1.56.84-3.09 1.27-4.63.59-.06 1.17-.11 1.76-.17.36 1.73 1.17 3.5 1.01 5.19-1.01 10.92-2.37 21.8-3.36 32.72-1.33 14.57-2.51 29.15-3.51 43.74-.13 1.91.91 4.08 1.91 5.86 2.18 3.91 5.03 7.48 6.97 11.5 2.7 5.6 1.12 8.04-5.15 7.18-5.5-.76-11.1-2.3-16.15-4.61-40.9-18.73-73.79-46.57-96.43-85.87-.56-.98-1.22-1.9-2.08-3.24-48.75 43.7-105.73 70.55-168.92 84.94-.72.16-1.61-.45-2.62-1.39 62.22-19.9 118.89-49 165.2-96.5z"/><path d="m251.16 42.45c1.39 0 2.98-.44 4.15.07 13.08 5.73 26.25 11.3 39.06 17.61 4.65 2.29 8.57 6.25 12.46 9.84 2.01 1.86 3.57 4.42 4.73 6.94 1.9 4.16.41 10.17-2.87 12.21-3.86 2.41-7.78 1.41-10.28-1.87-13.16-17.27-29.46-31.05-47.41-43.07.04-.58.1-1.15.16-1.73z"/></g></svg>