<svg enable-background="new 0 0 400 400" viewBox="0 0 400 400" xmlns="http://www.w3.org/2000/svg"><path d="m247 185.22c-10.1 0-19.52 0-29.43 0 .92 1.76 1.65 3.16 2.54 4.87-1.37.71-2.52 1.83-3.65 1.81-6.05-.11-5.99 3.92-6.46 8.32-4.21 38.98-13.98 76.09-37.48 108.41-16.15 22.21-36.82 39.19-60.99 52.59-.99-1.2-1.9-2.31-3.18-3.87 1.56-1.25 2.97-2.31 4.29-3.46 10.51-9.18 21.65-17.75 31.35-27.72 21.91-22.5 34.46-50.18 41.91-80.39 4.86-19.72 7.72-39.73 9.23-59.96-.69-.33-1.12-.73-1.54-.72-17.64.27-35.29.25-52.9 1.05-6.25.29-7.25-3.75-9.4-7.65h90.22c0-45.7 0-91.42 0-137.9 7.7 1.53 15.44 2.98 23.12 4.68 1.02.23 2.56 1.9 2.42 2.64-.21 1.15-1.58 2.86-2.59 2.96-6.66.64-6.59 4.9-6.57 10.11.18 37.33.1 74.65.1 111.98v5.43c4.38 1.74 6.49-.17 8.44-3.69 20.77-37.71 41.66-75.35 62.53-113.01.4-.72.87-1.4 1.58-2.53 8.03 5.06 17.19 8.16 23.99 14.92-.09.66-.19 1.33-.28 1.99-3.74.64-7.51 1.14-11.2 1.97-1.59.36-3.62.98-4.45 2.18-22.71 32.62-45.28 65.34-68.06 98.31.91.14 1.95.43 2.99.43 21.16.03 42.33.09 63.49-.09 2.01-.02 4.41-1.21 5.94-2.61 4.76-4.39 9.17-9.15 14.16-14.2 7.74 5.95 15.28 11.59 22.63 17.48 2.52 2.02 2.12 4.1-1.31 4.79-1.93.39-3.94.63-5.91.63-25.66.04-51.32.03-76.99.03-1.83 0-3.65 0-5.6 0 3.43 6.31 3.43 6.31-5.75 8.59-.05.6-.15 1.26-.15 1.91-.01 44.16-.03 88.32.01 132.48 0 6.04 1.93 8.73 8.43 8.69 18.57-.13 37.14-.95 55.71-1.55 6.1-.2 9.38-3.97 10.74-9.41 2.82-11.26 5.35-22.6 7.99-33.91.15-.65.02-1.46.37-1.94.76-1.04 1.75-1.91 2.64-2.85.78 1.2 2.31 2.45 2.23 3.6-.69 11.11-1.65 22.21-2.54 33.32-.12 1.49-.2 3-.44 4.47-.84 5.03 0 8.87 5.64 10.77 1.78.6 4.31 3.61 3.97 4.79-.54 1.88-3.02 4.13-5 4.49-6.83 1.25-13.78 2.17-20.72 2.47-14.46.62-28.95.92-43.43 1.02-7.81.05-15.64-.34-23.43-.99-14.2-1.19-19.17-6.94-19.18-21.9-.04-45.83-.01-91.65-.01-137.48-.02-1.98-.02-3.95-.02-6.35z" fill="#010104"/><path d="m111.57 70.07c5.55 4.13 11.1 7.87 16.14 12.2 2.04 1.75 3 4.78 4.45 7.23-2.28 1.1-4.52 2.33-6.87 3.26-1.17.46-2.55.37-4.28.59v6.03c0 63.32 0 126.65-.01 189.97 0 7.47-4.48 11.87-11.66 11.86-3.51-.01-5.36-1.48-5.41-4.98-.06-4.15-.01-8.31-.01-12.85-15.17 0-30.22 0-45.92 0 0 7.37.11 14.81-.03 22.24-.16 8.25-2.59 11.46-9.47 13.12-5.71 1.38-7.66-.16-7.66-6.1.05-72.32.15-144.64.11-216.97 0-8.41-.78-16.81-1.23-25.94 3.97 2.14 7.49 3.65 10.57 5.8 5.47 3.81 11.35 4.86 17.9 4.54 7.98-.38 16.01-.4 23.99.02 5.21.27 9.33-1.04 12.93-4.77 1.83-1.88 4.1-3.36 6.46-5.25zm-53.22 111.15v95.37h45.38c0-31.99 0-63.57 0-95.37-15.18 0-30.11 0-45.38 0zm45.29-6.44c0-29.78 0-59.15 0-88.37-15.4 0-30.45 0-45.38 0v88.37z" fill="#010104"/><path d="m140.81 73.21c1.35-1.03 2.37-1.81 3.68-2.82 17.58 18.16 36.19 35.15 48.85 57.21 4.55 7.93 8.46 16.26 7.71 25.78-.23 2.9-.96 5.97-2.31 8.51-.95 1.8-3.33 3.9-5.08 3.91-1.66.01-4.04-2.2-4.88-4-2.45-5.25-4.14-10.84-6.39-16.19-10.23-24.28-23.44-46.88-38.77-68.28-.87-1.21-1.68-2.46-2.81-4.12z" fill="#010104"/><g fill="#fbfcfa"><path d="m37.59 393.81c-.92.31-1.52.05-2-.78-.7-1.2-1.52-2.34-2.47-3.78v4.59c-.55.03-.95.05-1.41.07-.03-.37-.06-.64-.06-.91 0-1.91 0-3.81 0-5.7 1.13-.41 1.77-.03 2.29.91.62 1.11 1.38 2.14 2.31 3.19v-4.2h1.35v6.61z"/><path d="m12.94 393.88v-6.75c1.9.19 3.93-.54 5.37 1.29.8 1.01.78 2.88.03 3.97-1.37 1.97-3.4 1.51-5.4 1.49m1.45-1.22c2.04.12 2.92-.58 2.89-2.21-.03-1.51-.98-2.19-2.89-2z"/><path d="m11.81 393.87h-5.49c.68-2.18 2.47-3.48 3.51-5.45h-3.08v-1.21h5.29c-.71 2.13-2.44 3.48-3.47 5.51.86 0 1.63.04 2.39-.01.79-.05 1.14.21.85 1.16"/><path d="m39.33 393.86v-6.61h3.7v1.07h-2.22v1.52c.68.04 1.34.09 2.07.13v1.07c-.72.05-1.38.09-2.1.14v1.48h2.4v1.19h-3.85z"/><path d="m27.71 388.56c-1.15-.3-2.46-.61-3.1.64-.37.73-.41 1.93-.06 2.67.63 1.35 1.99.93 3.17.68.35.94-.01 1.32-.93 1.46-1.62.25-3.05-.27-3.76-1.48-.72-1.24-.6-3.03.31-4.17.88-1.11 2.71-1.7 4-1.16.32.13.44.74.65 1.12-.1.08-.19.16-.28.24"/><path d="m49.15 387.24v1.07c-.59.02-1.17.05-1.87.08v5.44h-1.48v-5.44h-1.85c-.05-.4-.08-.73-.13-1.15z"/><path d="m20.06 387.21h1.33v6.62h-1.33z"/><path d="m30.68 393.25c-.49.38-.8.79-1.05.76-.32-.05-.6-.45-.9-.7.26-.24.51-.64.8-.67.29-.04.62.3 1.15.61"/></g></svg>