<svg enable-background="new 0 0 400 400" viewBox="0 0 400 400" xmlns="http://www.w3.org/2000/svg"><path d="m6.44 374.46.42-.45c.65.47 1.27.95 1.85 1.44l-.45.49c-.65-.56-1.25-1.06-1.82-1.48m.93 7.33-.63-.26c.55-1.36 1.05-2.8 1.52-4.33.19.1.38.19.59.27-.46 1.29-.95 2.73-1.48 4.32m-.38-10.38.44-.42c.43.34 1.01.82 1.74 1.44l-.49.49c-.53-.51-1.09-1.01-1.69-1.51m2.5.35h1.72v-1.04h.59v1.04h3.52v-1.04h.59v1.04h1.75v.53h-1.75v1.42h-2.03v.97h3.22v2.03h-3.24c0 .35-.01.66-.03.93h3.32v.53h-3.37c-.03.27-.08.58-.15.94h3.96v.53h-3.71c.67.92 1.93 1.48 3.79 1.68-.13.24-.23.44-.29.59-2.13-.38-3.48-1.08-4.04-2.12-.43.97-1.77 1.72-4.03 2.23-.09-.19-.2-.37-.33-.55 2.1-.42 3.37-1.03 3.81-1.83h-3.36v-.53h3.58c.08-.29.13-.61.16-.94h-3.33v-.53h3.39c.02-.27.04-.58.04-.93h-3.23v-2.03h3.25v-.97h-2.07v-1.42h-1.73zm1.12 3.44v1h2.65c.01-.3.02-.44.02-.4v-.25-.35zm1.19-2h3.52v-.91h-3.52zm4.71 2h-2.63v.59c0 .15-.01.28-.01.4h2.64z" fill="#fafbfc"/><path d="m13.56 383.74h.63v1.52h2.72v6.07h1.13v.6h-11.06v-.6h1.13v-6.07h2.73v-1.52h.63v1.52h2.1v-1.52zm-2.69 8.83.38.56c-1.24.63-2.53 1.25-3.85 1.85-.1-.21-.21-.42-.34-.63 1.36-.55 2.63-1.15 3.81-1.78m-2.13-4.27h2.1v-2.45h-2.1zm0 3.04h2.1v-2.46h-2.1zm2.72-3.04h2.1v-2.45h-2.1zm0 3.04h2.1v-2.46h-2.1zm6.07 3.6c-1.41-.71-2.7-1.3-3.86-1.78l.35-.56c1.45.62 2.75 1.19 3.88 1.72zm-1.25-9.09h-2.1v2.45h2.1zm-2.09 5.49h2.1v-2.46h-2.1z" fill="#fafbfc"/><path d="m173.83 236.82c-43.45 2.99-86.38 5.95-129.62 8.93-.67-1.31-1.4-2.71-2.34-4.55 44.19-3.34 87.87-6.65 131.83-9.97 0-23.44 0-46.52 0-70.38-37.3 2.96-74.49 5.92-112.06 8.9-.79-1.65-1.62-3.38-2.67-5.56 38.54-2.67 76.6-5.31 114.78-7.96 0-21.94 0-43.37 0-65.29-39.89 4.98-79.47 10.3-119.38 11.27-.09-.81-.18-1.62-.26-2.43 4.49-.59 8.96-1.29 13.46-1.76 41.04-4.25 81.4-12.18 121.28-22.58 35.73-9.32 70.74-20.78 104.47-35.94 1.23-.55 3.18-1.11 4.08-.54 9.11 5.78 18.08 11.78 27.07 17.76.52.34.83.99 2.32 2.82-5.51.18-10.07 1.1-14.31.3-7.9-1.5-15.05.75-22.46 2.59-31.07 7.72-62.18 15.24-93.27 22.86-.78.19-1.51.61-2.56 1.04 3.21 1.8 6.15 3.45 9.09 5.09.02.48.04.96.06 1.45-2.98 1.06-6.08 1.88-8.89 3.28-1.42.7-3.28 2.44-3.3 3.72-.22 17.81-.15 35.63-.15 54.22 8.19-.5 16.08-.92 23.96-1.47 17.41-1.22 34.81-2.69 52.23-3.66 5.38-.3 9.41-1.78 12.75-6.21 3.48-4.62 7.73-8.67 12-13.35 9.66 6.23 19.68 11.68 28.78 18.49-.21.77-.42 1.54-.63 2.32-42.94 2.88-85.89 5.75-128.9 8.64v70.24c8.77-.51 17.34-.93 25.9-1.52 16.92-1.16 33.83-2.44 50.75-3.59 12.44-.85 24.91-1.4 37.33-2.5 2.47-.22 5.33-1.84 7.04-3.7 5.28-5.74 10.1-11.91 15.42-18.31 10.31 6.91 20.43 13.68 30.55 20.46-.02.6-.04 1.2-.07 1.79-3.69.77-7.35 1.97-11.08 2.24-33.16 2.44-66.34 4.76-99.51 7.04-16.59 1.14-33.19 2.12-49.78 3.22-2.3.15-4.58.52-7.32.84v5.25 84.5c0 7.7 1.61 9.76 9.04 11.19 2.76.53 5.6.96 8.41.93 33.14-.38 66.28-.92 99.42-1.28 9.81-.11 16.17-4.8 18.84-13.97 5.14-17.68 9.83-35.49 14.86-53.21.64-2.26 2.19-4.25 3.32-6.37.43 2.49 1.42 5.04 1.21 7.48-1.33 15.05-2.94 30.08-4.42 45.12-.46 4.63-.48 9.32-1.29 13.89-.46 2.61.33 3.45 2.46 4.48 2.98 1.44 5.87 3.18 8.49 5.2 4.02 3.1 3.62 6.66-1.32 7.94-7.03 1.82-14.31 3.56-21.5 3.67-42.14.65-84.28.89-126.43 1.06-4.42.02-8.98-.84-13.23-2.12-9.7-2.92-14.25-10.77-14.26-23.71-.03-28.17-.01-56.33-.02-84.5-.01-1.01-.09-1.99-.17-3.79z" fill="#010105"/></svg>