<svg enable-background="new 0 0 400 400" viewBox="0 0 400 400" xmlns="http://www.w3.org/2000/svg"><path d="m186.29 259.03c-10.51-17.75-21.27-34.21-30.26-51.59-8.9-17.2-16.01-35.33-24.11-53.52-8.47 6.22-17.11 13.22-22.78 23.25-.57 1.01-.91 2.16-1.57 3.11-1.74 2.49-3.59 4.91-5.39 7.35-1.93-2.71-3.98-5.35-5.74-8.16-.77-1.23-1.08-2.79-1.37-4.25-1.87-9.11-.48-11.07 8.14-14.71 14.48-6.11 26.64-15.53 37.22-27.12 1.55-1.69 5.82-3.64 6.25-3.16 2.31 2.59 4.32 5.74 5.33 9.04.43 1.39-1.41 4.29-2.99 5.32-3.43 2.25-7.35 3.74-11.02 5.52 5.64 21.86 32.38 75.41 56.23 99.54 28.68-38.82 49.08-81.55 64.19-127.75 10.32 6.4 22.36 9.65 30.84 18.73-.09.68-.19 1.35-.28 2.03-4.11.19-8.26.87-12.3.45-4.05-.43-5.76.97-7.26 4.6-14.33 34.52-31.62 67.42-54.17 97.37-3.79 5.03-7.78 9.91-11.84 15.06 43.08 45.27 98.02 61.85 158.11 66.38.04.65.08 1.31.12 1.96-1.54.55-3.04 1.33-4.63 1.62-12.61 2.34-24.32 6.12-30.81 18.98-48.91-18.12-93.87-42.04-129.98-80.84-43.01 45.41-95.64 73.61-155.54 89.34-1.77-3.23-.08-3.92 2.47-4.97 17.82-7.28 35.94-13.99 53.23-22.39 33.95-16.49 62.9-39.76 87.64-68.26.65-.75 1.25-1.55 1.86-2.35.39-.52.75-1.06.41-.58z" fill="#010104"/><path d="m39.92 171.11c45.41-27.8 78.68-65.99 99.01-115.74 9.6 5.98 19.57 10.31 27.68 17.42-.2.81-.4 1.62-.61 2.43-4.12.26-8.27.95-12.35.65-3.31-.24-4.94.79-6.63 3.53-20.83 33.92-47.98 61.54-82.44 81.72-6.58 3.85-13.4 7.32-20.18 10.82-1.1.57-2.58.38-3.88.55-.19-.45-.4-.91-.6-1.38z" fill="#010104"/><path d="m239.05 54.47c24.21 8.46 46.36 20.92 66.92 36.03 10.78 7.92 20.87 16.95 30.41 26.35 5.83 5.75 8.87 13.72 8.83 22.18-.01 2.42-1.36 5.82-3.21 6.94-1.48.9-5.01-.44-6.96-1.77-2.54-1.73-4.76-4.2-6.53-6.76-16.52-23.87-38-42.65-61.13-59.69-8.82-6.5-18.22-12.23-27.25-18.45-1.22-.84-1.87-2.52-2.79-3.82.57-.33 1.14-.67 1.71-1.01z" fill="#010104"/><g fill="#fbfcfa"><path d="m37.59 393.81c-.92.31-1.52.05-2-.78-.7-1.2-1.52-2.34-2.47-3.78v4.59c-.55.03-.95.05-1.41.07-.03-.37-.06-.64-.06-.91 0-1.91 0-3.81 0-5.7 1.13-.41 1.77-.03 2.29.91.62 1.11 1.38 2.14 2.31 3.19v-4.2h1.35v6.61z"/><path d="m12.94 393.88v-6.75c1.9.19 3.93-.54 5.37 1.29.8 1.01.78 2.88.03 3.97-1.37 1.97-3.4 1.51-5.4 1.49m1.45-1.22c2.04.12 2.92-.58 2.89-2.21-.03-1.51-.98-2.19-2.89-2z"/><path d="m11.81 393.87h-5.49c.68-2.18 2.47-3.48 3.51-5.45h-3.08v-1.21h5.29c-.71 2.13-2.44 3.48-3.47 5.51.86 0 1.63.04 2.39-.01.79-.05 1.14.21.85 1.16"/><path d="m39.33 393.86v-6.61h3.7v1.07h-2.22v1.52c.68.04 1.34.09 2.07.13v1.07c-.72.05-1.38.09-2.1.14v1.48h2.4v1.19h-3.85z"/><path d="m27.71 388.56c-1.15-.3-2.46-.61-3.1.64-.37.73-.41 1.93-.06 2.67.63 1.35 1.99.93 3.17.68.35.94-.01 1.32-.93 1.46-1.62.25-3.05-.27-3.76-1.48-.72-1.24-.6-3.03.31-4.17.88-1.11 2.71-1.7 4-1.16.32.13.44.74.65 1.12-.1.08-.19.16-.28.24"/><path d="m49.15 387.24v1.07c-.59.02-1.17.05-1.87.08v5.44h-1.48v-5.44h-1.85c-.05-.4-.08-.73-.13-1.15z"/><path d="m20.06 387.21h1.33v6.62h-1.33z"/><path d="m30.68 393.25c-.49.38-.8.79-1.05.76-.32-.05-.6-.45-.9-.7.26-.24.51-.64.8-.67.29-.04.62.3 1.15.61"/></g></svg>