<svg enable-background="new 0 0 400 400" viewBox="0 0 400 400" xmlns="http://www.w3.org/2000/svg"><path d="m281.68 268c-18.9 0-36.7.35-54.47-.15-8.35-.24-15.39 1.54-22.23 6.43-8.08 5.78-16.84 10.59-25.9 16.19 7.77 3.67 15.01 6.85 22.01 10.49 3.8 1.97 7.52 4.35 10.68 7.21 4.22 3.81 4.06 9.21.3 12.19-4.01 3.17-8.38 2.19-11.57-3.14-5.52-9.23-13.54-15.95-21.86-22.35-1.35-1.04-4.26-.86-6.14-.26-21.34 6.79-42.61 13.78-63.92 20.64-1.24.4-2.71.05-4.08.05-.03-.55-.06-1.1-.08-1.65 9.61-3.97 19.24-7.93 28.84-11.92 37.14-15.46 69.33-37.94 96.16-67.99 2.12-2.38 4.05-3.4 7.25-1.92 3.6 1.66 7.55 2.57 11.2 4.14 2.62 1.13 5.01 2.83 7.5 4.27-.07.58-.14 1.15-.22 1.73-3.92.68-7.85 1.28-11.75 2.07-1.52.31-3.28.7-4.38 1.68-5.94 5.32-11.71 10.84-18 16.72 1.41.23 2.41.54 3.4.54 17.66.03 35.33.15 52.99-.12 2.49-.04 5.08-1.81 7.38-3.2 2.11-1.27 3.88-3.11 6.38-5.17 7.3 5.37 14.67 10.8 22.04 16.22-.15.69-.31 1.38-.46 2.07-4.08.75-8.2 1.35-12.24 2.3-1.79.42-3.85 1.11-5.06 2.37-38.34 40.2-85.61 63.68-139.76 73.45-31.02 5.59-62.34 9.49-93.55 14-1.97.28-4.13-.74-6.19-1.16 1.99-.93 3.89-2.43 5.97-2.72 51.37-7.26 102.45-15.73 149.82-38.38 25.97-12.42 48.66-29.38 67.39-51.41.64-.75 1.22-1.53 2.55-3.22z" fill="#010104"/><path d="m267.92 72.54c-3.38 0-6.76-.09-10.13.04-1.72.07-3.9-.06-5.07.9-14.26 11.68-28.36 23.55-42.89 35.69 21.22 13.34 45 21.25 70.01 26.09 24.77 4.79 49.81 6.61 75.03 6.87.08.45.16.91.24 1.36-4.45 1.63-9.44 2.49-13.21 5.11-3.79 2.63-6.37 7-10.67 11.99-13-2.61-28.18-5.26-43.15-8.76-30.58-7.15-59.75-17.97-86.49-34.81-1.44-.91-4.46-.65-6.08.25-31.95 17.87-64.38 34.75-98.58 47.97-12.51 4.84-25.33 8.9-38.03 13.24-1.28.44-2.75.3-4.35-.42 46.63-19.85 91.4-42.68 132.9-71.77-14.67-12.88-28.97-25.45-43.1-37.86 2.81-5.14 4.91-2.4 6.85-.93 11.13 8.45 22.08 17.15 33.36 25.39 10.82 7.91 11.3 8.1 21.36-.34 12.22-10.26 23.91-21.17 35.62-32.02 2.47-2.29 4.26-2.93 7.28-1.17 4.74 2.76 9.8 4.96 14.63 7.58 1.79.97 3.31 2.43 4.96 3.67-.17.63-.33 1.28-.49 1.93z" fill="#010104"/><path d="m89.15 219.2c22.84-13.2 44.43-28.14 63.79-46.12 11.52-10.69 21.87-22.37 30.18-35.8.69-1.12 2.63-2.53 3.55-2.27 6.85 1.97 13.61 4.29 20.36 6.61.83.29 1.44 1.24 3.31 2.94-3.46.69-5.83 1.53-8.19 1.54-3.63.01-6.22 1.23-8.5 4.12-4.01 5.08-8.4 9.86-13.2 15.42 2.03.15 3.39.35 4.76.35 16.33.02 32.66.01 49 .01 11.15 0 11.15 0 20.65-8.16 7.5 4.46 15.15 9.01 22.81 13.57-.2.79-.4 1.59-.61 2.38-3.13.46-6.33.67-9.37 1.46-2.36.62-5.15 1.41-6.69 3.1-26.21 28.79-55.41 53.81-90.32 71.5-29.47 14.93-60.88 24.52-92.88 32.26-1.23.3-2.66-.2-4.13-1.3 67.7-20.06 127.19-52.29 171.49-109.39-1.51-.16-2.73-.39-3.94-.4-20.83-.02-41.66-.04-62.5.03-1.74.01-3.84.17-5.15 1.13-7.26 5.28-14.32 10.83-21.95 16.67 7.17 3.48 14.12 6.51 20.73 10.16 4.76 2.63 9.41 5.69 13.43 9.31 1.91 1.72 3.21 5.24 3.08 7.86-.31 5.86-6.49 8.02-11.03 4.22-1.13-.95-1.98-2.23-3.03-3.28-7.73-7.76-15.48-15.49-23.23-23.24-2.08-2.08-3.88-1.84-6.54-.38-16.46 9.03-33.06 17.79-49.69 26.49-1.67.88-3.89.72-5.85 1.05-.11-.62-.22-1.23-.34-1.84z" fill="#010104"/><path d="m130.53 44.56c8.15 4.25 17.01 6.28 23.69 12.31-.08.59-.16 1.18-.25 1.77-2.46.24-5.02 1.02-7.37.61-4.42-.77-7.44.92-10.67 3.69-25.44 21.76-53.22 39.9-83.75 53.73-1.48.67-3.14.95-5.19.6 30.94-20.78 59.06-44.56 83.54-72.71z" fill="#010104"/><path d="m332.35 90.76c.1 6.97-3.31 9.69-8.63 7.58-3.01-1.19-6.17-2.89-8.33-5.22-12.34-13.34-28.12-21.58-43.86-29.79-9.7-5.06-19.84-9.26-29.72-13.98-1.24-.59-2.12-1.95-3.16-2.95 1.41-.19 2.89-.76 4.21-.5 27.58 5.29 53.85 14.15 77.79 29.11 6.26 3.9 11 9.1 11.7 15.75z" fill="#010104"/><g fill="#fbfcfa"><path d="m37.59 393.81c-.92.31-1.52.05-2-.78-.7-1.2-1.52-2.34-2.47-3.78v4.59c-.55.03-.95.05-1.41.07-.03-.37-.06-.64-.06-.91 0-1.91 0-3.81 0-5.7 1.13-.41 1.77-.03 2.29.91.62 1.11 1.38 2.14 2.31 3.19v-4.2h1.35v6.61z"/><path d="m12.94 393.88v-6.75c1.9.19 3.93-.54 5.37 1.29.8 1.01.78 2.88.03 3.97-1.37 1.97-3.4 1.51-5.4 1.49m1.45-1.22c2.04.12 2.92-.58 2.89-2.21-.03-1.51-.98-2.19-2.89-2z"/><path d="m11.81 393.87h-5.49c.68-2.18 2.47-3.48 3.51-5.45h-3.08v-1.21h5.29c-.71 2.13-2.44 3.48-3.47 5.51.86 0 1.63.04 2.39-.01.79-.05 1.14.21.85 1.16"/><path d="m39.33 393.86v-6.61h3.7v1.07h-2.22v1.52c.68.04 1.34.09 2.07.13v1.07c-.72.05-1.38.09-2.1.14v1.48h2.4v1.19h-3.85z"/><path d="m27.71 388.56c-1.15-.3-2.46-.61-3.1.64-.37.73-.41 1.93-.06 2.67.63 1.35 1.99.93 3.17.68.35.94-.01 1.32-.93 1.46-1.62.25-3.05-.27-3.76-1.48-.72-1.24-.6-3.03.31-4.17.88-1.11 2.71-1.7 4-1.16.32.13.44.74.65 1.12-.1.08-.19.16-.28.24"/><path d="m49.15 387.24v1.07c-.59.02-1.17.05-1.87.08v5.44h-1.48v-5.44h-1.85c-.05-.4-.08-.73-.13-1.15z"/><path d="m20.06 387.21h1.33v6.62h-1.33z"/><path d="m30.68 393.25c-.49.38-.8.79-1.05.76-.32-.05-.6-.45-.9-.7.26-.24.51-.64.8-.67.29-.04.62.3 1.15.61"/></g></svg>