<svg enable-background="new 0 0 400 400" viewBox="0 0 400 400" xmlns="http://www.w3.org/2000/svg"><path d="m177.54 330.09c13.44 2.04 26.89 4.07 40.33 6.1 1.14.17 2.3.35 3.45.38 11.09.29 12.67-1.25 12.67-12.18 0-18.5 0-37 0-55.49 0-1.8 0-3.59 0-5.9-1.89 0-3.34-.01-4.78 0-22.83.09-45.66.07-68.49.36-5.75.07-4.74-4.94-7.53-7.86h80.49c0-15.22 0-30.61 0-45.79-30.87 0-61.59 0-92.12 0 .52 12.27 1.49 23.84 1.41 35.4-.21 27.49-6.95 53.29-21.66 76.71-9.28 14.78-21.47 26.17-38.54 31.5-1.56.49-3.17.84-5.22 1.38-3.34-12.04-12.58-17.95-22.98-22.65-5.3-2.39-10.61-4.78-15.88-7.25-1.09-.51-2.02-1.39-3.02-2.09.21-.49.43-.98.64-1.47 5.59 1.05 11.15 2.34 16.78 3.1 10.18 1.38 20.38 2.86 30.62 3.51 8.49.54 15.43-3.34 20.61-10.13 12.65-16.58 19.12-35.51 21.64-56.05 3.27-26.64.8-52.98-3.61-80.44-1.68 1.99-2.83 3.25-3.87 4.59-23 29.84-49.22 56.43-79.58 78.83-1.6 1.18-3.46 4.23-5.44 1.56 5.42-5.88 10.48-11.59 15.78-17.08 25.57-26.51 47.19-55.94 65.46-87.89 1.69-2.96 2.13-5.63.95-8.84-4.65-12.6-9.15-25.26-13.76-37.87-.55-1.51-1.44-2.89-2.23-4.45-9.12 7.8-17.66 15.76-26.89 22.83-10.55 8.08-21.72 15.36-32.6 23.02-2.35 1.65-4.2 2.02-5.19-1.45 8.41-6.76 17.19-13.12 25.13-20.39 11.04-10.1 21.42-20.92 32.17-31.35 2.21-2.14 2.05-3.9.59-6.45-10.85-18.93-24.82-35.37-40.23-50.68-1.33-1.32-2.31-2.98-2.82-4.99 20.88 13.51 37.23 31.41 52.31 52.87 11.07-17.91 21.61-34.96 32.55-52.66 6.34 3.36 13.55 7.06 20.61 11.04 1.21.68 1.77 2.52 2.63 3.82-1.48.5-3.22 1.77-4.39 1.36-8.18-2.85-11.44 2.56-15.61 7.98-8.93 11.6-18.62 22.61-27.8 34.02-1.06 1.32-1.9 4.13-1.22 5.35 10.88 19.61 18.31 40.49 23.54 62.22.19.8.58 1.55 1.11 2.94 25.93-30.91 41.55-66.01 47.7-105.86 4.62 1.73 9.27 2.81 13.2 5.11 5.56 3.25 11 1.87 16.46.81 30.76-5.94 60.64-14.67 88.91-28.46 1.18-.58 3.28-1.11 4.01-.51 7.04 5.74 13.89 11.72 20.79 17.63-.21.59-.43 1.18-.64 1.77-2.14 0-4.54.64-6.38-.11-9.08-3.66-17.64-.1-26.39 1.34-26.68 4.4-53.4 8.58-80.07 13.06-4.98.84-9.83 2.58-14.65 4.15-.81.26-1.4 1.74-1.75 2.77-11.72 35.09-31.92 64.84-57.23 91.46-1.5 1.58-2.24 4.75-1.96 7.01.83 6.73 2.16 13.43 3.73 20.03.37 1.55 2.48 3.84 3.8 3.85 30.12.22 60.25.17 90.65.17 0-15.8 0-31.4 0-47.79-1.64 0-3.39-.03-5.13 0-17.64.33-35.3.36-52.92 1.15-6.3.28-6.93-4.25-9.23-7.23h21.89c35.83.02 71.66.09 107.49-.04 2.39-.01 5.05-1.2 7.09-2.58 3.7-2.51 7.03-5.57 10.86-8.68 6.72 5.24 13.49 10.32 19.98 15.73 1.28 1.07 2.24 3.58 1.92 5.13-.23 1.12-2.73 2.12-4.38 2.52-2.87.7-5.86.88-9.04 1.32v40.2c5.21.86 10.08 1.35 14.24-3.52 2.98-3.49 6.66-8.47 10.31-8.72s7.7 4.47 11.47 7.16c3.16 2.26 6.16 4.73 9.23 7.11-.11.61-.22 1.23-.33 1.84-2.91.53-5.82 1.47-8.74 1.51-11.97.21-23.94.11-36.44.11v11.25c.02 16.5.06 33 .05 49.49 0 6.01-9.39 11.91-14.67 9.09-.92-.49-1.42-2.45-1.49-3.76-.19-3.8-.07-7.61-.07-11.74-17.86 0-35.58 0-53.83 0v5.45 56.49c0 17.5-6.25 26.41-22.72 32.12-3.91 1.35-7.98 2.27-11.96 3.42-2.68.78-4.2-.09-4.43-2.94-.73-9.36-6.8-13.93-14.93-16.66-6.13-2.06-12.29-4.02-18.32-6.33-1.42-.54-2.36-2.34-3.52-3.57.49-.4.96-.81 1.43-1.22zm128.1-74.31c0-15.78 0-31.15 0-46.38-18.06 0-35.77 0-53.38 0v46.38zm-.01-51.98c0-16.17 0-31.88 0-47.57-14.94 0-29.5 0-42.87 0-.72 1.77-.86 3.39-1.69 3.9-1.94 1.22-4.3 1.75-6.31 2.87-1.1.61-2.61 1.86-2.62 2.84-.18 12.59-.12 25.18-.12 37.96z" fill="#010104"/><path d="m291.18 86.19c1.33 0 2.9-.47 3.95.07 18.66 9.49 37.73 18.46 53.25 32.85 4.68 4.34 8.2 10.41 10.8 16.32 1.38 3.13.34 7.86-.88 11.44-1.41 4.13-5.6 4.53-8.87 1.54-1.1-1.01-2.29-2.06-2.98-3.34-12.65-23.7-32.48-40.52-53.57-56.15-.62-.46-1.24-.93-1.87-1.39.06-.44.12-.89.17-1.34z" fill="#010104"/><path d="m221.15 85.55c2.45 0 4.26-.56 4.94.08 10 9.45 20.12 18.8 29.55 28.79 2.61 2.77 3.63 7.47 4.3 11.47.45 2.68-.44 6-1.82 8.42-1.05 1.84-3.86 3.78-5.79 3.69-1.84-.09-4.47-2.41-5.18-4.34-6.26-16.77-14.61-32.38-26-48.11z" fill="#010104"/><g fill="#fbfcfa"><path d="m37.59 393.81c-.92.31-1.52.05-2-.78-.7-1.2-1.52-2.34-2.47-3.78v4.59c-.55.03-.95.05-1.41.07-.03-.37-.06-.64-.06-.91 0-1.91 0-3.81 0-5.7 1.13-.41 1.77-.03 2.29.91.62 1.11 1.38 2.14 2.31 3.19v-4.2h1.35v6.61z"/><path d="m12.94 393.88v-6.75c1.9.19 3.93-.54 5.37 1.29.8 1.01.78 2.88.03 3.97-1.37 1.97-3.4 1.51-5.4 1.49m1.45-1.22c2.04.12 2.92-.58 2.89-2.21-.03-1.51-.98-2.19-2.89-2z"/><path d="m11.81 393.87h-5.49c.68-2.18 2.47-3.48 3.51-5.45h-3.08v-1.21h5.29c-.71 2.13-2.44 3.48-3.47 5.51.86 0 1.63.04 2.39-.01.79-.05 1.14.21.85 1.16"/><path d="m39.33 393.86v-6.61h3.7v1.07h-2.22v1.52c.68.04 1.34.09 2.07.13v1.07c-.72.05-1.38.09-2.1.14v1.48h2.4v1.19h-3.85z"/><path d="m27.71 388.56c-1.15-.3-2.46-.61-3.1.64-.37.73-.41 1.93-.06 2.67.63 1.35 1.99.93 3.17.68.35.94-.01 1.32-.93 1.46-1.62.25-3.05-.27-3.76-1.48-.72-1.24-.6-3.03.31-4.17.88-1.11 2.71-1.7 4-1.16.32.13.44.74.65 1.12-.1.08-.19.16-.28.24"/><path d="m49.15 387.24v1.07c-.59.02-1.17.05-1.87.08v5.44h-1.48v-5.44h-1.85c-.05-.4-.08-.73-.13-1.15z"/><path d="m20.06 387.21h1.33v6.62h-1.33z"/><path d="m30.68 393.25c-.49.38-.8.79-1.05.76-.32-.05-.6-.45-.9-.7.26-.24.51-.64.8-.67.29-.04.62.3 1.15.61"/></g></svg>