<svg enable-background="new 0 0 400 400" viewBox="0 0 400 400" xmlns="http://www.w3.org/2000/svg"><path d="m6.44 374.46.42-.45c.65.47 1.27.95 1.85 1.44l-.45.49c-.65-.56-1.25-1.06-1.82-1.48m.93 7.33-.63-.26c.55-1.36 1.05-2.8 1.52-4.33.19.1.38.19.59.27-.46 1.29-.95 2.73-1.48 4.32m-.38-10.38.44-.42c.43.34 1.01.82 1.74 1.44l-.49.49c-.53-.51-1.09-1.01-1.69-1.51m2.5.35h1.72v-1.04h.59v1.04h3.52v-1.04h.59v1.04h1.75v.53h-1.75v1.42h-2.03v.97h3.22v2.03h-3.24c0 .35-.01.66-.03.93h3.32v.53h-3.37c-.03.27-.08.58-.15.94h3.96v.53h-3.71c.67.92 1.93 1.48 3.79 1.68-.13.24-.23.44-.29.59-2.13-.38-3.48-1.08-4.04-2.12-.43.97-1.77 1.72-4.03 2.23-.09-.19-.2-.37-.33-.55 2.1-.42 3.37-1.03 3.81-1.83h-3.36v-.53h3.58c.08-.29.13-.61.16-.94h-3.33v-.53h3.39c.02-.27.04-.58.04-.93h-3.23v-2.03h3.25v-.97h-2.07v-1.42h-1.73zm1.12 3.44v1h2.65c.01-.3.02-.44.02-.4v-.25-.35zm1.19-2h3.52v-.91h-3.52zm4.71 2h-2.63v.59c0 .15-.01.28-.01.4h2.64z" fill="#fafbfc"/><path d="m13.56 383.74h.63v1.52h2.72v6.07h1.13v.6h-11.06v-.6h1.13v-6.07h2.73v-1.52h.63v1.52h2.1v-1.52zm-2.69 8.83.38.56c-1.24.63-2.53 1.25-3.85 1.85-.1-.21-.21-.42-.34-.63 1.36-.55 2.63-1.15 3.81-1.78m-2.13-4.27h2.1v-2.45h-2.1zm0 3.04h2.1v-2.46h-2.1zm2.72-3.04h2.1v-2.45h-2.1zm0 3.04h2.1v-2.46h-2.1zm6.07 3.6c-1.41-.71-2.7-1.3-3.86-1.78l.35-.56c1.45.62 2.75 1.19 3.88 1.72zm-1.25-9.09h-2.1v2.45h2.1zm-2.09 5.49h2.1v-2.46h-2.1z" fill="#fafbfc"/><g fill="#010105"><path d="m106.24 267.52c20.12-6.63 39.79-13.11 59.79-19.7.73 1.34 1.4 2.58 2.24 4.12-1.14.69-2.03 1.38-3.03 1.82-25.06 11.14-50.12 22.26-75.19 33.36-11.09 4.92-22.15 9.92-33.34 14.61-2.78 1.16-3.43 2.63-3.68 5.46-.28 3.05-1.78 5.99-2.74 8.97-2.21-2.19-4.99-4.05-6.5-6.65-3.39-5.81-6.15-11.99-9.46-18.6 18.53-5.92 36.47-11.65 54.5-17.4 0-32.42 0-64.56 0-97.51-1.55 0-3.13-.03-4.7.01-12.81.32-25.63.6-38.43 1.03-2.72.09-4.46-.43-4.92-3.45-.27-1.77-1.05-3.45-1.57-5.08h49.42c0-29.07 0-58.46 0-88.44-7.68 0-15.45-.12-23.21.03-7.15.14-14.29.5-21.43.9-4.54.26-5.07-.19-7.63-8.26 6.61.37 13.04 1 19.47 1.04 26.16.17 52.33.22 78.49.11 2.06-.01 4.47-1.11 6.11-2.45 4.77-3.88 9.23-8.14 14.13-12.54 7.77 5.98 15.49 11.93 23.21 17.87-.23.65-.47 1.29-.7 1.94-3.35.43-6.69 1.2-10.04 1.23-17.85.13-35.68.06-54.05.06 1.18 1.63 2.13 2.93 3.69 5.07-3.67 1.32-6.82 2.45-10.39 3.74v80.17c7.64 0 15.14.47 22.52-.25 2.67-.26 5.22-3.21 7.57-5.23 9.77-8.38 9.75-8.44 19.82-.76 2.78 2.12 5.6 4.22 8.12 6.62 2.74 2.62 2.17 4.65-1.57 5.52-2.89.67-5.92 1.03-8.89 1.06-14.17.11-28.33.05-42.5.05-1.62 0-3.24 0-5.1 0-.01 30.6-.01 60.7-.01 91.53z"/><path d="m204.65 324.03c37.74-2.97 74.25-5.84 111.95-8.8-3.88-4.91-6.96-9.15-10.41-13.07-7.03-8-14.21-15.88-21.43-23.7-2.11-2.28-3.06-4.26.47-6.92 7.63 5.72 15.58 11.37 23.2 17.46 13.01 10.39 25.78 21.07 35.88 34.52 5.55 7.39 9.48 15.27 7.93 24.87-.31 1.94-.77 3.98-1.72 5.66-2.35 4.17-5.85 4.6-8.67.69-3.39-4.69-6.02-9.93-9.14-14.83-3.66-5.75-7.3-11.53-11.38-16.97-1.08-1.44-3.85-2.64-5.63-2.39-33.69 4.75-67.33 9.78-101 14.66-16.75 2.43-33.53 4.73-50.3 7.02-2.75.38-4.63 1.32-4.89 4.41-.11 1.3-.4 2.69-1.01 3.82-.74 1.34-1.91 2.45-2.9 3.65-1.15-1.06-2.81-1.89-3.38-3.2-3.2-7.41-6.14-14.94-9.44-23.11 8.31-.65 15.72-1.26 23.14-1.8 9.28-.68 18.57-1.16 27.82-2.1 1.98-.2 4.41-1.48 5.61-3.05 21.77-28.39 43.79-56.6 64.9-85.48 17.07-23.35 33.02-47.52 49.46-71.33.46-.67.97-1.31 1.65-2.21 7.27 4.91 14.48 9.62 21.48 14.62 1.22.88 1.55 3 2.3 4.55-1.54.72-3.06 1.47-4.63 2.13-.43.18-1.04.18-1.48.02-8.06-2.78-11.66 2.66-15.83 8-34.59 44.19-70.43 87.31-108.71 128.38-1 1.09-1.93 2.26-3.84 4.5z"/><path d="m281.37 124.88c-4.62.48-7.94.61-11.17 1.23-1.87.36-4.38 1.02-5.27 2.39-16.11 25.02-32.01 50.17-47.9 75.21 5.64 5.48 12.1 11.21 17.89 17.56 4.89 5.35 8.87 11.65 6.51 19.4-.92 3.03-3.55 5.55-5.4 8.3-2.44-2.01-5.67-3.54-7.2-6.09-8.08-13.51-17.21-26.18-28.87-36.81-8.11-7.4-16.59-14.4-24.9-21.59-.86-.74-1.7-1.51-2.55-2.28 1.24-3.67 3.34-3.84 6.15-2.07 8.72 5.5 17.45 10.97 26.18 16.46 1.53.96 3.06 1.92 5.84 3.67 14.33-29.59 28.49-58.83 42.98-88.73-1.9-.33-2.47-.52-3.05-.52-24.49.12-48.99.23-73.48.42-3.82.03-7.63.52-11.45.6-7.32.17-7.32.11-9.58-7.57h89.39c0-22.37 0-45.07 0-68.38 9.45 2.82 19.83 2.68 28.65 8.01.09.59.17 1.19.26 1.78-2.74 1.13-5.44 2.37-8.23 3.36-2 .71-3.3 1.37-3.27 4.03.15 16.99.08 33.97.08 51.42 1.6.11 3.02.29 4.45.3 17.33.02 34.66.12 51.99-.12 2.28-.03 4.99-1.4 6.7-3.01 4.59-4.32 8.75-9.11 13.4-14.05 8.27 5.64 16.5 11.18 24.63 16.88.94.66 2.08 2.54 1.77 3.16-.54 1.06-2.08 1.99-3.34 2.24-2.75.55-5.59.88-8.4.89-29.83.06-59.66.04-89.49.04-1.77 0-3.54 0-6.16 0 7.23 5.29 16.56 5.31 22.84 13.87z"/></g></svg>