<svg enable-background="new 0 0 400 400" viewBox="0 0 400 400" xmlns="http://www.w3.org/2000/svg"><path d="m34.36 228.51c18.02-10 35.42-19.76 52.95-29.29 2.71-1.48 3.74-3.01 3.7-6.11-.26-18.16-.13-36.32-.47-54.48-.33-17.62-.94-35.24-1.68-52.85-.27-6.44-1.25-12.85-1.99-20.05 5.5 3.69 10.38 7.09 15.41 10.25 1.6 1.01 3.62 1.92 5.45 1.93 33.16.11 66.31.08 99.98.08 0-13.69 0-27.23 0-41.58 10.3 2.87 19.91 5.54 29.52 8.22.13.74.27 1.48.4 2.23-4.07 1.98-8.13 3.97-12.42 6.06v24.86c1.64.08 3.09.22 4.54.22 29.33.01 58.66.07 87.99-.12 2.29-.01 4.94-1.35 6.78-2.86 4.63-3.79 8.89-8.03 13.81-12.56 7.92 5.96 17.97 10.65 25.77 18.4-.12.6-.25 1.21-.37 1.81-3.5.44-7 1.27-10.5 1.28-80.16.07-160.32.05-240.48.05-1.99 0-3.98 0-6.23 0-.19 1.07-.5 2-.5 2.93.11 25.16-.27 50.33.52 75.47 1.09 34.63-1.84 68.69-11.41 102.06-9.96 34.7-27.66 64.99-52.05 91.48-3.53-2.54-3.57-2.57-1.46-5.43 25.82-34.94 39.74-74.48 45.34-117.23 1.12-8.55 2-17.14 3.12-26.76-2.13 1.33-3.54 2.04-4.76 3-9.16 7.21-18.2 14.56-27.45 21.64-3.15 2.41-4.43 5.12-3.72 8.96.24 1.29.36 2.7.12 3.97-.25 1.34-.99 2.59-1.52 3.89-1.28-.64-2.91-.98-3.78-1.98-4.79-5.52-9.39-11.2-14.61-17.49z" fill="#010104"/><path d="m138.48 270.28c-1.49 3.86-1.95 8.5-4.51 10.71-2.78 2.4-7.51 2.55-11.96 3.85 4.06-24.9 7.92-48.62 11.78-72.31.68.08.89.04 1 .13 8.46 7.28 18.63 6.62 28.78 6.38 7.29-.17 14.59-.03 22.16-.03 0-13.34 0-26.27 0-39.71-16.62 0-33.36 0-50.35 0-.47-1.91-.83-3.4-1.3-5.29 13.74 0 27.07-.3 40.37.14 5.79.19 10.31-1.21 14.13-5.46 1.2-1.34 2.77-2.34 4.6-3.85 4.87 4.09 9.79 8.01 14.41 12.25 1.29 1.18 1.68 3.34 2.48 5.06-1.8.64-3.57 1.44-5.42 1.87-1.25.29-2.62.06-4.64.06 0 5.51-.11 10.79.02 16.06.22 8.81.71 17.61.81 26.41.02 1.54-.99 3.95-2.18 4.49-3.79 1.71-7.89 2.73-12.6 4.25 0-4.44 0-7.54 0-11.27-10.82 0-21.25 0-31.68 0-8.83 0-8.81 0-10.18 8.74-1.59 10.16-3.22 20.32-4.95 31.26h11.4c3.5 0 7-.02 10.5 0 10.23.08 20.99 1.95 27.83-9.46 6.2 5.07 11.77 9.48 17.13 14.13 1.1.95 2.14 3.06 1.81 4.24-.29 1.02-2.66 2.24-3.94 2.07-6.37-.81-7.61 2.86-9.12 8.07-4.49 15.44-9.26 30.84-14.9 45.89-5.87 15.64-16.06 27.8-32.11 34.09-.4-.4-.79-.61-.8-.84-.37-7.67-4.65-11.88-11.48-14.99-5.83-2.66-11.01-6.79-16.31-10.51-1.1-.77-1.49-2.55-2.67-4.73 9.29 3.52 16.94 6.63 24.75 9.26 2.9.97 6.18 1.09 9.29 1.09 7.04 0 11.79-4.03 13.88-10.26 4.49-13.34 8.61-26.82 12.31-40.41 1.86-6.82 2.44-13.99 3.66-21.37-14.61-.01-28.53-.01-42-.01z" fill="#010104"/><path d="m272.78 319.22c23.63 13.95 49.4 19 75.72 22.09.19.28.49.54.51.81.06 1.13.02 2.27.02 3.6-9.23 1.77-15.87 6.67-18.84 16.24-23.66-9.24-46.17-19.3-65.79-35.37-24.97 19.84-54.37 29.26-85.03 36.59-.53-1.41-.98-2.59-1.61-4.27 28.25-9.15 55.5-19.87 77.99-39.77-4.95-7.44-10.32-14.25-14.29-21.8-5.48-10.4-10.06-21.29-14.69-32.11-1.27-2.97-2.36-4.62-5.96-4.32-4.63.39-9.31.1-14.38.1-.23-1.48-.45-2.86-.73-4.63 1.57-.14 2.83-.36 4.1-.36 26.99-.02 53.98-.2 80.97.13 6.1.07 11.01-1.05 14.92-5.82 1.04-1.27 2.42-2.25 3.66-3.38 5.27 3.85 10.47 7.46 15.41 11.38 1.4 1.11 2.05 3.15 3.04 4.77-1.55.81-3.1 2.3-4.64 2.3-4.68 0-6.85 2.9-9.13 6.3-10.62 15.83-23.39 29.85-37.05 43.08-1.29 1.25-2.49 2.63-4.2 4.44zm-41.24-58.03c6.31 19.48 16.52 35.98 31.06 50.37 15.44-15.06 27.69-31.84 38.64-50.37-23.51 0-46.27 0-69.7 0z" fill="#010104"/><path d="m272 179.13c-10.53 0-20.34 0-30.69 0-1.06 6.73-1.91 13.57-3.25 20.31-4.34 21.78-16.54 38.07-35.44 50.07-1.16-1.29-2.23-2.48-3.75-4.16 26.79-20.15 28.56-49.15 27.89-78.66.7-.2.93-.34 1.01-.28 11.93 9.3 25.96 6.63 39.35 6.26 3.62-.1 7.13-4.2 11.15-6.77 5.27 3.87 11.12 7.91 16.65 12.35 2.98 2.39 2.33 4.32-1.52 5.48-2.33.71-4.76 1.1-7.38 1.69 0 12.65-.15 25.14.18 37.61.04 1.68 2.21 4.34 3.86 4.76 7.84 2 15.8 2.15 23.45-1.1 3.99-1.7 6.8-4.41 7.78-9.03 1.68-7.94 3.76-15.79 5.76-23.66.58-2.27.74-5.36 5.02-3.44-.49 10.11-.84 20.37-1.57 30.61-.19 2.67.13 4.23 2.62 5.63 2.95 1.67 5.53 4.01 8.27 6.06-.01.59-.01 1.18-.02 1.77-3.39 1.44-6.74 4-10.17 4.12-15.26.52-30.58.9-45.82.23-10.03-.44-13.24-4.86-13.33-14.98-.13-13-.05-26-.05-39 0-1.8 0-3.6 0-5.87z" fill="#010104"/><path d="m292.64 88.98c5.98 4.02 13.1 6.52 17.72 12.36-.19.55-.38 1.09-.57 1.64-2.05 0-4.31.55-6.12-.11-4.78-1.75-8.15.38-11.87 2.91-9.06 6.16-18.34 11.99-28.99 18.89 10.59 5.82 20.02 11.16 29.66 16.09 1.03.53 3.58-.96 4.89-2.11 11.36-10.02 22.59-20.18 34.42-30.79 6.03 3.92 12.29 7.98 18.55 12.05-.18.73-.36 1.45-.53 2.18-2.03.2-4.26 1.02-6.06.47-5.04-1.55-9.07-.34-13.39 2.5-9.72 6.38-19.76 12.27-29.85 19.73 9.43 2.7 18.76 5.87 28.32 7.98 10.35 2.29 20.93 3.5 31.38 5.38 2.08.38 4.01 1.65 5.9 3.21-9.06 3.93-19.47 4.99-22.8 16.85-47.25-16.44-87.57-41.71-115.43-84.27 3.52-1.74 3.47-1.7 5.95.99 8.08 8.77 16.19 17.51 24.59 26.59 11.86-11.3 22.94-21.83 34.23-32.54z" fill="#010104"/><path d="m118.3 178.88c-3.4-3.68-2.23-4.9.8-6.16 14.67-6.12 27.74-14.91 40.42-24.65-3.6-12-11.69-20.83-21.02-31.04 3.25 0 5.39-.63 6.87.1 10.17 4.99 19.63 10.84 24.25 23.64 8.95-11.41 17.91-22.81 27.78-35.39-24.01 0-46.32 0-68.87 0-.65-1.88-1.15-3.35-1.85-5.37h24.48c12.65 0 25.32-.28 37.96.13 5.83.19 10.72-1.01 15.05-4.88 1.34-1.2 3.01-2.01 5.07-3.35 5.76 5.04 11.53 10.09 17.3 15.14-.2.49-.39.97-.59 1.46-2.18.5-4.41 1.58-6.52 1.38-4.72-.46-7.55 1.89-10.54 5.06-18.08 19.13-36.42 38.05-60.27 50.19-9.88 5.01-20.19 9.17-30.32 13.74z" fill="#010104"/><path d="m41.32 112.1c12.04 7.71 23.48 16.17 31.52 28.32 4.6 6.96 6.48 14.68 2.65 22.6-1.17 2.41-3.91 5.46-6.07 5.58-1.91.1-4.63-3.13-5.91-5.48-1.87-3.45-2.87-7.39-4.07-11.18-3.96-12.48-10.4-23.57-18.41-33.86-1.07-1.37-1.23-3.45-1.82-5.21.72-.25 1.42-.51 2.11-.77z" fill="#010104"/><g fill="#fbfcfa"><path d="m37.59 393.81c-.92.31-1.52.05-2-.78-.7-1.2-1.52-2.34-2.47-3.78v4.59c-.55.03-.95.05-1.41.07-.03-.37-.06-.64-.06-.91 0-1.91 0-3.81 0-5.7 1.13-.41 1.77-.03 2.29.91.62 1.11 1.38 2.14 2.31 3.19v-4.2h1.35v6.61z"/><path d="m12.94 393.88v-6.75c1.9.19 3.93-.54 5.37 1.29.8 1.01.78 2.88.03 3.97-1.37 1.97-3.4 1.51-5.4 1.49m1.45-1.22c2.04.12 2.92-.58 2.89-2.21-.03-1.51-.98-2.19-2.89-2z"/><path d="m11.81 393.87h-5.49c.68-2.18 2.47-3.48 3.51-5.45h-3.08v-1.21h5.29c-.71 2.13-2.44 3.48-3.47 5.51.86 0 1.63.04 2.39-.01.79-.05 1.14.21.85 1.16"/><path d="m39.33 393.86v-6.61h3.7v1.07h-2.22v1.52c.68.04 1.34.09 2.07.13v1.07c-.72.05-1.38.09-2.1.14v1.48h2.4v1.19h-3.85z"/><path d="m27.71 388.56c-1.15-.3-2.46-.61-3.1.64-.37.73-.41 1.93-.06 2.67.63 1.35 1.99.93 3.17.68.35.94-.01 1.32-.93 1.46-1.62.25-3.05-.27-3.76-1.48-.72-1.24-.6-3.03.31-4.17.88-1.11 2.71-1.7 4-1.16.32.13.44.74.65 1.12-.1.08-.19.16-.28.24"/><path d="m49.15 387.24v1.07c-.59.02-1.17.05-1.87.08v5.44h-1.48v-5.44h-1.85c-.05-.4-.08-.73-.13-1.15z"/><path d="m20.06 387.21h1.33v6.62h-1.33z"/><path d="m30.68 393.25c-.49.38-.8.79-1.05.76-.32-.05-.6-.45-.9-.7.26-.24.51-.64.8-.67.29-.04.62.3 1.15.61"/></g></svg>