<svg enable-background="new 0 0 400 400" viewBox="0 0 400 400" xmlns="http://www.w3.org/2000/svg"><path d="m6.44 374.46.42-.45c.65.47 1.27.95 1.85 1.44l-.45.49c-.65-.56-1.25-1.06-1.82-1.48m.93 7.33-.63-.26c.55-1.36 1.05-2.8 1.52-4.33.19.1.38.19.59.27-.46 1.29-.95 2.73-1.48 4.32m-.38-10.38.44-.42c.43.34 1.01.82 1.74 1.44l-.49.49c-.53-.51-1.09-1.01-1.69-1.51m2.5.35h1.72v-1.04h.59v1.04h3.52v-1.04h.59v1.04h1.75v.53h-1.75v1.42h-2.03v.97h3.22v2.03h-3.24c0 .35-.01.66-.03.93h3.32v.53h-3.37c-.03.27-.08.58-.15.94h3.96v.53h-3.71c.67.92 1.93 1.48 3.79 1.68-.13.24-.23.44-.29.59-2.13-.38-3.48-1.08-4.04-2.12-.43.97-1.77 1.72-4.03 2.23-.09-.19-.2-.37-.33-.55 2.1-.42 3.37-1.03 3.81-1.83h-3.36v-.53h3.58c.08-.29.13-.61.16-.94h-3.33v-.53h3.39c.02-.27.04-.58.04-.93h-3.23v-2.03h3.25v-.97h-2.07v-1.42h-1.73zm1.12 3.44v1h2.65c.01-.3.02-.44.02-.4v-.25-.35zm1.19-2h3.52v-.91h-3.52zm4.71 2h-2.63v.59c0 .15-.01.28-.01.4h2.64z" fill="#fafbfc"/><path d="m13.56 383.74h.63v1.52h2.72v6.07h1.13v.6h-11.06v-.6h1.13v-6.07h2.73v-1.52h.63v1.52h2.1v-1.52zm-2.69 8.83.38.56c-1.24.63-2.53 1.25-3.85 1.85-.1-.21-.21-.42-.34-.63 1.36-.55 2.63-1.15 3.81-1.78m-2.13-4.27h2.1v-2.45h-2.1zm0 3.04h2.1v-2.46h-2.1zm2.72-3.04h2.1v-2.45h-2.1zm0 3.04h2.1v-2.46h-2.1zm6.07 3.6c-1.41-.71-2.7-1.3-3.86-1.78l.35-.56c1.45.62 2.75 1.19 3.88 1.72zm-1.25-9.09h-2.1v2.45h2.1zm-2.09 5.49h2.1v-2.46h-2.1z" fill="#fafbfc"/><path d="m307 343.23c-50.77 0-101.04 0-151.61 0-.13.77-.35 1.53-.37 2.3-.3 10.85-3.43 14.69-13.94 17.24-3.6.87-5.53-.17-5.25-4.13.39-5.3 1.11-10.6 1.12-15.9.09-51.16.09-102.32.01-153.48-.01-6.79-.59-13.58-.94-21.21 5.46 2.92 10.36 5.6 15.32 8.17 1.45.75 3.05 1.68 4.59 1.69 16.64.12 33.29.08 50.32.08 3.33-16.64 6.61-33.04 9.95-49.74-37.2 0-73.95 0-112.12 0 0 15.32.55 30.45-.1 45.52-2.23 51.82-10.25 102.42-33.88 149.41-8.69 17.28-19.01 33.55-31.15 48.63-.5-.09-.99-.18-1.49-.27.22-1.51-.03-3.34.73-4.48 12.04-18.12 21.17-37.63 28.09-58.22 7.74-23.06 12.62-46.74 15.73-70.84 5.56-43.07 5.34-86.33 4.51-129.6-.36-18.93-1.41-37.86-2.16-57.29 5.28 3.55 10.33 7.18 15.65 10.37 1.97 1.19 4.64 2.06 6.88 1.85 21.5-2 43.04-3.75 64.44-6.59 27.14-3.6 54.23-7.7 81.18-12.47 18.44-3.27 36.61-8.08 54.93-12.09 1.29-.28 3.16-.08 4.12.69 6.35 5.1 12.6 10.35 18.7 15.75.99.88 1.07 2.79 1.57 4.22-1.37.38-2.74.78-4.12 1.11-.3.07-.68-.02-.98-.15-12.45-5.47-24.73-1-37.07.56-18.62 2.35-37.22 4.9-55.9 6.72-23.65 2.3-47.35 4.18-71.06 5.8-13.77.94-27.61 1.01-41.41 1.53-5.27.2-10.54.55-16.04.85v53.37h112.97c3.15-18.05 6.35-36.37 9.64-55.22 8.81 2.49 16.86 4.76 26.47 7.47-2.79 2.25-4.06 3.91-5.7 4.46-4.47 1.5-5.65 4.92-6.56 9-2.55 11.31-5.35 22.56-8.19 34.37 1.91.11 3.47.27 5.04.27 27.83.02 55.66-.05 83.49.09 3.34.02 5.52-1.03 7.64-3.56 3.84-4.59 8.08-8.84 12.54-13.65 7.3 6.33 14.58 12.63 21.86 18.94-.14.62-.28 1.23-.43 1.85-3.13.45-6.25 1.27-9.38 1.28-38.66.09-77.32.06-115.99.06-1.82 0-3.64 0-5.88 0-3.33 16.6-6.61 33.01-10.02 50h5.84c22.5 0 45-.12 67.49.1 4.86.05 8.62-.79 11.43-5.11 1.51-2.31 3.86-4.07 6.1-6.35 6.22 5.35 12.58 10.24 18.23 15.84 4.98 4.94 4.18 6.67-2.59 8.16-1.27.28-2.56.47-4.26.77v5.93c0 44.16-.05 88.32.07 132.49.01 5.27 1.29 10.54 1.29 15.82 0 2.43-1.53 4.93-2.64 7.27-.37.77-1.54 1.35-2.46 1.61-4.21 1.17-8.46 2.2-12.7 3.28-.52-3.67-1.06-7.33-1.53-11.01-.13-.97-.02-1.98-.02-3.56zm-.36-6.45c0-16.11 0-31.82 0-47.39-50.73 0-101.09 0-151.37 0v47.39zm.13-151.43c-50.77 0-101.13 0-151.37 0v45.39h151.37c0-15.19 0-30.11 0-45.39zm.01 53c-50.78 0-101.14 0-151.37 0v43.38h151.37c0-14.52 0-28.78 0-43.38z" fill="#010105"/></svg>