<svg enable-background="new 0 0 400 400" viewBox="0 0 400 400" xmlns="http://www.w3.org/2000/svg"><path d="m6.44 374.46.42-.45c.65.47 1.27.95 1.85 1.44l-.45.49c-.65-.56-1.25-1.06-1.82-1.48m.93 7.33-.63-.26c.55-1.36 1.05-2.8 1.52-4.33.19.1.38.19.59.27-.46 1.29-.95 2.73-1.48 4.32m-.38-10.38.44-.42c.43.34 1.01.82 1.74 1.44l-.49.49c-.53-.51-1.09-1.01-1.69-1.51m2.5.35h1.72v-1.04h.59v1.04h3.52v-1.04h.59v1.04h1.75v.53h-1.75v1.42h-2.03v.97h3.22v2.03h-3.24c0 .35-.01.66-.03.93h3.32v.53h-3.37c-.03.27-.08.58-.15.94h3.96v.53h-3.71c.67.92 1.93 1.48 3.79 1.68-.13.24-.23.44-.29.59-2.13-.38-3.48-1.08-4.04-2.12-.43.97-1.77 1.72-4.03 2.23-.09-.19-.2-.37-.33-.55 2.1-.42 3.37-1.03 3.81-1.83h-3.36v-.53h3.58c.08-.29.13-.61.16-.94h-3.33v-.53h3.39c.02-.27.04-.58.04-.93h-3.23v-2.03h3.25v-.97h-2.07v-1.42h-1.73zm1.12 3.44v1h2.65c.01-.3.02-.44.02-.4v-.25-.35zm1.19-2h3.52v-.91h-3.52zm4.71 2h-2.63v.59c0 .15-.01.28-.01.4h2.64z" fill="#fafbfc"/><path d="m13.56 383.74h.63v1.52h2.72v6.07h1.13v.6h-11.06v-.6h1.13v-6.07h2.73v-1.52h.63v1.52h2.1v-1.52zm-2.69 8.83.38.56c-1.24.63-2.53 1.25-3.85 1.85-.1-.21-.21-.42-.34-.63 1.36-.55 2.63-1.15 3.81-1.78m-2.13-4.27h2.1v-2.45h-2.1zm0 3.04h2.1v-2.46h-2.1zm2.72-3.04h2.1v-2.45h-2.1zm0 3.04h2.1v-2.46h-2.1zm6.07 3.6c-1.41-.71-2.7-1.3-3.86-1.78l.35-.56c1.45.62 2.75 1.19 3.88 1.72zm-1.25-9.09h-2.1v2.45h2.1zm-2.09 5.49h2.1v-2.46h-2.1z" fill="#fafbfc"/><g fill="#010105"><path d="m108.93 342.03c0-9 0-17.74 0-26.75-16.6 0-32.87 0-49.82 0 0 6.62-.03 13.37.01 20.11.03 4.79-8.5 11.53-12.9 9.63-1.32-.57-2.07-3.79-2.08-5.8-.02-5.14.81-10.27.82-15.41.06-79.96.08-159.93-.03-239.89-.01-7.08-.96-14.16-1.49-21.44.95.47 1.97.74 2.7 1.35 7.89 6.66 17.09 7.85 27.03 7.27 8.8-.51 17.66-.37 26.48 0 4.73.2 8.38-.89 11.23-4.74 1.48-2 3.27-3.76 5.21-5.96 5.41 4.27 10.44 8.02 15.2 12.08 3.01 2.57 2.7 5.92-1 6.98-7.69 2.21-7.4 7.61-7.39 13.88.17 77.3.14 154.59.16 231.89 0 1.33 0 2.67.06 4 .35 8.49-4.47 13.09-14.19 12.8zm-49.57-110.81v76.38h49.37c0-25.66 0-50.91 0-76.38-16.52 0-32.78 0-49.37 0zm49.28-6.44c0-24.45 0-48.49 0-72.38-16.74 0-33.11 0-49.37 0v72.38zm-49.29-147.56v68.38h49.38c0-22.99 0-45.57 0-68.38-16.51 0-32.77 0-49.38 0z"/><path d="m133.34 333.87h96.38c0-16.54 0-32.81 0-49.38-25.27 0-50.63 0-76.45 0-.65-2.05-1.43-4.53-2.2-6.98h78.75c0-16.55 0-33.15 0-51.05 7.69 2.89 14.88 5.08 21.59 8.28 4.96 2.37 4.76 5.73-.36 7.44-4.68 1.56-5.24 4.32-5.13 8.49.25 8.94.08 17.9.08 27.33h33.34c5 0 10.04-.4 14.99.1 6.4.65 11.1-1.2 14.76-6.64 2.1-3.12 5.13-5.63 8.05-8.75 6.25 4.48 12.52 8.78 18.52 13.42 1.33 1.03 2.65 3.6 2.23 4.91-.42 1.32-2.91 2.22-4.66 2.81-1.36.45-2.97.14-4.47.14-27.32 0-54.64 0-82.36 0v50.78c1.46.07 3.06.21 4.66.21 22.83.01 45.65-.04 68.48.07 3.25.02 5.54-.65 7.52-3.52 3-4.34 6.6-8.27 10.12-12.59 6.05 4.81 11.89 9.2 17.38 13.99 1.57 1.37 2.14 3.89 3.17 5.88-2.13 1.05-4.19 2.29-6.41 3.08-1.18.42-2.64.09-3.97.09-67.81.02-135.63-.06-203.44.25-6.23.04-9.18-2-10.57-8.36z"/><path d="m158.77 90.11c5.37 5.38 5.28 12.54 6.66 19.56h64.48c0-24.86 0-49.61 0-75.23 7.52 3.08 14.45 5.73 21.18 8.83 1.68.77 2.68 3.01 3.99 4.57-1.46 1.22-2.76 3.16-4.41 3.53-4.17.94-4.79 3.31-4.74 7.12.2 16.96.09 33.93.09 51.5 3.94 0 7.63.43 11.13-.19 1.67-.29 3.38-2.31 4.43-3.96 11.55-18.28 22.98-36.63 34.45-54.97.43-.69.94-1.35 1.72-2.45 6.07 3.95 12.16 7.65 17.9 11.83 1.6 1.16 2.14 3.78 3.17 5.72-1.95.67-4.21 2.33-5.8 1.85-6.82-2.08-10.25 2.16-14.18 6.33-10.06 10.65-20.34 21.11-30.56 31.6-1.12 1.15-2.47 2.08-3.71 3.11.21.38.42.76.64 1.14h17.76c11.83 0 23.67.15 35.49-.13 2.32-.06 4.97-1.37 6.8-2.91 3.56-2.97 6.64-6.51 10.41-10.32 6.54 5.99 13.29 11.62 19.34 17.91 3.79 3.94 2.53 7.51-2.62 7.19-11.52-.71-18.65 6.13-26.15 12.93-4.44 4.02-9.05 7.87-13.8 11.52-1.19.92-3.21.77-4.84 1.11-.21-.51-.42-1.01-.63-1.52 5.82-9.97 11.64-19.95 17.77-30.45-53.67 0-106.68 0-158.68 0-2.7 11.77-4.78 23.35-8.18 34.53-1.68 5.52-5.47 10.54-8.98 15.3-1.28 1.74-4.97 3.36-6.7 2.72-2.14-.79-4.86-4.09-4.73-6.14.37-5.83.51-12.6 3.51-17.18 10.81-16.61 17.61-34.18 17.79-54.45z"/><path d="m170.58 147.06c4.51 2.45 9.03 5.21 13.82 7.38 2.91 1.32 6.22 2.43 9.36 2.45 29.49.18 58.98-.03 88.47.24 5.11.05 8.93-1.16 12.15-5.07 1.67-2.03 3.87-3.62 6.39-5.92 6.35 5.26 12.82 10.39 18.96 15.89 1.55 1.39 2.05 3.96 3.03 5.98-2.3 1.06-4.55 2.26-6.93 3.12-1.35.49-2.9.42-4.23.58 0 17.7-.28 35.14.15 52.56.16 6.55-.02 8.14-6.29 10.48-12.21 4.56-13.13 3.9-12.48-9.09.08-1.65.29-3.29.47-5.3-35.04 0-69.93 0-105.11 0 0 3.24-.47 6.58.12 9.73.77 4.16-.56 6.98-4.17 8.5-3.48 1.46-7.16 2.56-10.84 3.39-2.81.63-4.45-.93-4.42-3.89.31-30.12.63-60.25.96-90.37-.01-.1.17-.21.59-.66zm122.21 15.31c-35.15 0-69.85 0-104.55 0v51.35h104.55c0-17.2 0-34.13 0-51.35z"/><path d="m165.52 50.59c1.24.5 2.69.73 3.68 1.53 8.62 6.95 17.56 13.58 25.58 21.16 6.46 6.1 8.9 14.42 7.2 23.3-.5 2.61-2.38 5.78-4.56 6.93-1.2.63-4.91-1.94-6.45-3.88-2-2.51-3.33-5.73-4.32-8.84-4.31-13.61-10.79-25.96-20.43-36.58-.61-.67-1.01-1.54-1.52-2.32.28-.43.55-.86.82-1.3z"/></g></svg>