<svg enable-background="new 0 0 400 400" viewBox="0 0 400 400" xmlns="http://www.w3.org/2000/svg"><path d="m40.64 226.64c15.3-7.9 30.75-15.53 45.86-23.79 15.07-8.24 28.93-18.31 41.72-29.84-.35-.42-.55-.86-.74-.86-19.81.22-39.62.37-59.42.85-2.12.05-4.37 1.73-6.24 3.09-2.94 2.15-5.48 4.86-8.43 6.98-2.76 1.99-4.97 1.06-6.31-2.09-2.54-5.99-1.59-13.85 3.42-17.95 10.27-8.39 14.08-19.77 16.5-32.06.31-1.59 1.55-3.01 2.37-4.5.56.23 1.12.45 1.69.68v10.55h120.6c0-6.33 0-12.72 0-19.41-26.27 0-52.53 0-78.84 0-1.58 4.77-8.66 8.55-13.98 7.49-2.75-.55-3.09-2.24-3.07-4.72.11-14.3.05-28.6.05-42.97.05 0 .63-.12.94.11 9.04 6.98 19.29 8.29 30.47 7.97 21.29-.6 42.63-.17 64.37-.17 0-5.53 0-10.92 0-17-1.64 0-3.4 0-5.16 0-37 0-73.99-.05-110.99.05-6.48.02-13 .23-19.41 1.07-5.92.78-8.53-1.84-9.64-7.27h145.39c0-8.04 0-15.93 0-24.81 9.61 2.46 18.54 4.75 27.48 7.04.01.8.02 1.6.02 2.4-3.51 1.48-7.03 2.97-11.03 4.66v10.85h5.2c31.83 0 63.66-.12 95.49.13 4.79.04 8.15-1.43 11.35-4.64 3.15-3.15 6.44-7.97 10.06-8.35s7.77 3.74 11.6 6.04c4.78 2.87 9.48 5.88 14.22 8.83-.06.74-.12 1.48-.18 2.22-3.14.59-6.29 1.69-9.43 1.7-44 .11-87.99.08-131.99.08-1.98 0-3.95 0-6.24 0v17h12.97c17.33 0 34.67-.25 51.99.14 5.78.13 10.34-1.21 14.2-5.41 1.11-1.21 2.53-2.15 4.31-3.62 6.84 4.57 13.75 9.19 20.67 13.82-.14.61-.28 1.23-.42 1.84-3.55.83-7.09 1.67-10.86 2.55v21c0 5.41-9.74 11.32-14.17 8.27-1.54-1.06-1.87-3.87-2.96-6.34-24.64 0-49.93 0-75.63 0v19.76h5.15c33.83 0 67.66-.12 101.49.13 5.53.04 9.98-1.1 13.93-4.96 2.36-2.31 5.13-4.19 8.19-6.64 7.82 5.7 15.64 11.39 23.45 17.08-.17.68-.33 1.36-.5 2.04-2.23.51-4.5 1.57-6.69 1.43-7.82-.49-14.63 1.83-21.1 6.04-4.58 2.98-9.53 5.39-15.01 8.44 3.71 2.49 6.91 4.64 10.4 6.99-2.78 3.74-6.32 3.43-9.68 3.43-35.16.02-70.33.01-105.49.01-18.82 0-37.65 0-56.77 0 2.64 4.71-.32 6.07-3.76 6.1-11.09.07-18.85 6.46-27.79 14.16 3.49 1.11 6.08 2.63 8.66 2.64 48.16.14 96.32.13 144.49.01 2.11-.01 4.41-1.03 6.27-2.16 2.67-1.63 5.02-3.8 7.89-6.04 6.5 4.38 13 8.66 19.35 13.15 1.06.75 1.48 2.42 2.2 3.66-1.24.62-2.42 1.5-3.73 1.79-2.55.56-5.18.78-8.27 1.21 0 7.4.21 14.87-.13 22.3-.11 2.32-1.2 6.06-2.71 6.56-3.78 1.26-8.07 1.3-12.12 1.14-.62-.02-1.1-3.7-1.77-6.15-51.39 0-103.28 0-155.16 0-2.46 7.45-4.7 8.91-12.23 8.75-3.28-.07-4.28-1.25-4.2-4.52.25-10.49.2-20.99.24-31.49.01-1.27-.11-2.54-.19-4.33-23.55 11.52-46.67 22.86-71.71 29.1-.2-.41-.35-.83-.5-1.24zm27.15-59.64h5.74c67.97 0 135.95-.24 203.92.24 11.09.08 20.18-1.31 26.34-11.28.4-.65 1.19-1.07 1.88-1.68 2.75 1.77 5.37 3.46 8.34 5.37 4.48-5.37 8.88-10.64 13.74-16.47-86.01 0-171.08 0-256.43 0-1.16 7.86-2.32 15.65-3.53 23.82zm216.98 33.35c-52.11 0-103.8 0-155.36 0v24.39h155.36c0-8.19 0-16.12 0-24.39zm-172.55-87.7h79.37c0-7.41 0-14.46 0-21.38-26.66 0-52.9 0-79.37 0zm95.89.03h76.52c0-7.37 0-14.42 0-21.28-25.74 0-51.1 0-76.52 0z" fill="#010104"/><path d="m65 257.21c.46.22 1.44.48 2.17 1.07 7.74 6.18 16.61 7.43 26.23 6.84 8.28-.51 16.61-.11 25.26-.11 0-7.36 0-14.44 0-22.38 9.26 1.94 18.77 2.35 28.57 7.89-4.79 1.93-8.36 3.36-12.07 4.86v9.64c7.6 0 15.2-.27 22.78.08 7.01.32 13.49-.04 18.7-5.71.83-.9 3.74-.91 5.04-.18 4.2 2.35 8.22 5.07 12.03 8.02 1.52 1.17 2.28 3.32 3.39 5.02-1.81.96-3.57 2.04-5.45 2.84-.86.37-1.96.2-3.6.32 0 9.13-.04 18.24.01 27.34.04 7.05-5.42 12.27-12.42 11.01-1.42-.26-2.29-3.59-3.95-6.43-11.33 0-24.21 0-37.39 0v32.04c13.89-1.95 27.58-3.88 42.41-5.97-6.9-5.36-13.11-10.19-20.36-15.83 2.2-.47 3.79-1.37 4.78-.93 13.04 5.87 26.4 11.43 36.29 22.24 2.72 2.97 4.21 7.4 5.32 11.42 1.02 3.68-.79 7.47-4.61 8.16-1.77.32-4.14-2.65-6.21-4.17-.24-.17-.27-.61-.47-.87-3.41-4.5-6.22-9.73-10.42-13.31-4.91-4.18-10.65.09-15.83 1.09-32.07 6.2-64.05 12.86-96.09 19.21-3.4.67-5.2 1.99-5.68 5.52-.3 2.17-1.44 4.22-2.2 6.33-.63.15-1.26.29-1.89.44-3.71-6.64-7.42-13.28-11.72-20.98 24.16-3.43 47.43-6.73 71.05-10.09 0-11.29 0-22.68 0-34.35-12.79 0-25.52 0-38.22 0-1.07 9.1-2.32 10.73-8.9 11.8-5.33.87-6.69-.2-6.69-5.59 0-11.16.11-22.32.15-33.48.01-7.57-.01-15.13-.01-22.8zm53.8 13.17c-13.19 0-25.9 0-38.55 0v30.33h38.55c0-10.22 0-20.14 0-30.33zm53.9 30.53c0-10.46 0-20.5 0-30.56-13.01 0-25.71 0-38.3 0v30.56z" fill="#010104"/><path d="m328.37 255.93c6.29 4.64 12.53 9.24 18.77 13.84-.04.55-.08 1.09-.13 1.64-3.14.83-6.28 1.65-10.01 2.63 0 7.71-.02 15.83.01 23.95.03 8.02-2.47 10.7-10.67 11.31-.98.07-1.97.01-3.11.01-.48-1.51-.91-2.85-1.34-4.23-12.47 0-24.78 0-37.49 0v27.89c13.51-1.73 27.03-3.46 42.12-5.39-6.48-5.21-11.95-9.61-17.42-14.01.03-.42.05-.85.08-1.27 1.48 0 3.29-.56 4.4.09 10.63 6.11 21.4 12.04 31.58 18.84 5.24 3.51 9.79 8.69 6.99 16.02-.83 2.18-3.07 4.44-5.2 5.24-1.05.4-3.64-2.2-4.98-3.88-4.15-5.19-7.01-12.92-12.31-15.23-4.91-2.14-12.35 1.25-18.61 2.51-26.84 5.36-53.64 10.87-80.48 16.22-3.42.68-5.72 1.64-5.84 5.81-.05 1.79-1.93 3.52-2.98 5.28-1.48-1.41-3.42-2.57-4.37-4.28-2.72-4.9-5.04-10.03-7.9-15.85 19.66-2.47 38.82-4.88 58.23-7.31 0-10.14 0-20.08 0-30.4-12.31 0-24.71 0-37.13 0-1.05 4.91-6.61 9.05-11.79 8.55-3.48-.34-4.02-2.75-3.99-5.74.13-11.33.15-22.66.19-33.99.02-6.11 0-12.23 0-18.38-.03-.01.68.02 1.12.37 8.82 7.13 19.16 7.33 29.77 6.87 7.13-.31 14.29-.06 21.66-.06 0-9.01 0-17.73 0-26.83 9.13 3.05 18.35 6.14 27.58 9.22.01.68.01 1.36.02 2.04-3.59 1.28-7.18 2.56-10.92 3.89v11.67c11.33 0 22.49.54 33.54-.31 3.55-.26 6.82-4.2 10.61-6.73zm-98.02 12.29v31.38h37.38c0-10.65 0-20.91 0-31.38-12.51 0-24.76 0-37.38 0zm91.41.06c-12.61 0-24.98 0-37.44 0v31.35h37.44c0-10.62 0-20.88 0-31.35z" fill="#010104"/><g fill="#fbfcfa"><path d="m37.59 393.81c-.92.31-1.52.05-2-.78-.7-1.2-1.52-2.34-2.47-3.78v4.59c-.55.03-.95.05-1.41.07-.03-.37-.06-.64-.06-.91 0-1.91 0-3.81 0-5.7 1.13-.41 1.77-.03 2.29.91.62 1.11 1.38 2.14 2.31 3.19v-4.2h1.35v6.61z"/><path d="m12.94 393.88v-6.75c1.9.19 3.93-.54 5.37 1.29.8 1.01.78 2.88.03 3.97-1.37 1.97-3.4 1.51-5.4 1.49m1.45-1.22c2.04.12 2.92-.58 2.89-2.21-.03-1.51-.98-2.19-2.89-2z"/><path d="m11.81 393.87h-5.49c.68-2.18 2.47-3.48 3.51-5.45h-3.08v-1.21h5.29c-.71 2.13-2.44 3.48-3.47 5.51.86 0 1.63.04 2.39-.01.79-.05 1.14.21.85 1.16"/><path d="m39.33 393.86v-6.61h3.7v1.07h-2.22v1.52c.68.04 1.34.09 2.07.13v1.07c-.72.05-1.38.09-2.1.14v1.48h2.4v1.19h-3.85z"/><path d="m27.71 388.56c-1.15-.3-2.46-.61-3.1.64-.37.73-.41 1.93-.06 2.67.63 1.35 1.99.93 3.17.68.35.94-.01 1.32-.93 1.46-1.62.25-3.05-.27-3.76-1.48-.72-1.24-.6-3.03.31-4.17.88-1.11 2.71-1.7 4-1.16.32.13.44.74.65 1.12-.1.08-.19.16-.28.24"/><path d="m49.15 387.24v1.07c-.59.02-1.17.05-1.87.08v5.44h-1.48v-5.44h-1.85c-.05-.4-.08-.73-.13-1.15z"/><path d="m20.06 387.21h1.33v6.62h-1.33z"/><path d="m30.68 393.25c-.49.38-.8.79-1.05.76-.32-.05-.6-.45-.9-.7.26-.24.51-.64.8-.67.29-.04.62.3 1.15.61"/></g></svg>