<svg enable-background="new 0 0 400 400" viewBox="0 0 400 400" xmlns="http://www.w3.org/2000/svg"><path d="m6.44 374.46.42-.45c.65.47 1.27.95 1.85 1.44l-.45.49c-.65-.56-1.25-1.06-1.82-1.48m.93 7.33-.63-.26c.55-1.36 1.05-2.8 1.52-4.33.19.1.38.19.59.27-.46 1.29-.95 2.73-1.48 4.32m-.38-10.38.44-.42c.43.34 1.01.82 1.74 1.44l-.49.49c-.53-.51-1.09-1.01-1.69-1.51m2.5.35h1.72v-1.04h.59v1.04h3.52v-1.04h.59v1.04h1.75v.53h-1.75v1.42h-2.03v.97h3.22v2.03h-3.24c0 .35-.01.66-.03.93h3.32v.53h-3.37c-.03.27-.08.58-.15.94h3.96v.53h-3.71c.67.92 1.93 1.48 3.79 1.68-.13.24-.23.44-.29.59-2.13-.38-3.48-1.08-4.04-2.12-.43.97-1.77 1.72-4.03 2.23-.09-.19-.2-.37-.33-.55 2.1-.42 3.37-1.03 3.81-1.83h-3.36v-.53h3.58c.08-.29.13-.61.16-.94h-3.33v-.53h3.39c.02-.27.04-.58.04-.93h-3.23v-2.03h3.25v-.97h-2.07v-1.42h-1.73zm1.12 3.44v1h2.65c.01-.3.02-.44.02-.4v-.25-.35zm1.19-2h3.52v-.91h-3.52zm4.71 2h-2.63v.59c0 .15-.01.28-.01.4h2.64z" fill="#fafbfc"/><path d="m13.56 383.74h.63v1.52h2.72v6.07h1.13v.6h-11.06v-.6h1.13v-6.07h2.73v-1.52h.63v1.52h2.1v-1.52zm-2.69 8.83.38.56c-1.24.63-2.53 1.25-3.85 1.85-.1-.21-.21-.42-.34-.63 1.36-.55 2.63-1.15 3.81-1.78m-2.13-4.27h2.1v-2.45h-2.1zm0 3.04h2.1v-2.46h-2.1zm2.72-3.04h2.1v-2.45h-2.1zm0 3.04h2.1v-2.46h-2.1zm6.07 3.6c-1.41-.71-2.7-1.3-3.86-1.78l.35-.56c1.45.62 2.75 1.19 3.88 1.72zm-1.25-9.09h-2.1v2.45h2.1zm-2.09 5.49h2.1v-2.46h-2.1z" fill="#fafbfc"/><g fill="#010105"><path d="m122.58 209.83c-3.32 3.52-5.41 1.8-7.87-1.35-5.58-7.14-11.53-14-18.18-22-8.59 17.24-16.35 32.97-29.46 46.14h103.27c0-28.15 0-56.36 0-85.28 9.05 2.65 18.51 5.41 27.98 8.18.07.69.14 1.39.21 2.08-2.79 1.38-5.47 3.16-8.41 4.04-3.02.9-4.2 2.14-4.2 5.47.11 59.98.07 119.96.1 179.94 0 7.8-3.26 11.09-11.03 11.17-2.98.03-4.25-1.01-4.19-4.04.12-5.48.03-10.96.03-16.8-34.46 0-68.84 0-103.77 0 0 4.92.04 9.85-.01 14.79-.04 4.82-9.52 10.84-13.68 8.56-.86-.47-1.42-2.16-1.47-3.31-.14-3.49.09-6.99.09-10.49.01-60.48.05-120.96-.06-181.44-.01-6.4-.95-12.8-1.49-19.72 8.52 2.28 16.82 4.41 25.05 6.8 1.4.41 2.5 1.89 3.73 2.88-1.1 1.13-2.1 3.11-3.31 3.26-9.86 1.17-9.1 8.04-9 15.2.26 17.28.08 34.56.54 51.95 14.54-22.51 22.3-47.37 25.95-74.2 7.4 1.93 15.08 2.16 22.43 7.32-2.31 1.33-3.74 2.8-5.26 2.9-4.49.3-6.06 3.11-7.26 6.82-1.63 5.03-3.58 9.95-5.5 15.19 5.24 2.38 10.25 4.5 15.11 6.91 9.15 4.53 11.4 9.26 9.54 19.37 0-.04.12-.34.12-.34zm-24.38 69.13c1.99.79 3.6 1.24 5.01 2.03 5.34 2.99 11.06 5.56 15.75 9.38 2.61 2.13 4.23 6.3 4.8 9.79.33 2.05-2.29 4.57-3.58 6.88-1.79-1.49-4.08-2.65-5.27-4.52-4.87-7.65-11.38-13.59-18.29-19.49-.69 1.11-1.1 1.64-1.39 2.23-7.38 14.78-15.46 29.08-26.85 41.26-.89.96-.99 2.66-1.47 4.07h103.8c0-30.34 0-60.27 0-90.25-34.67 0-69.05 0-103.29 0v82.89c8.13-12.26 13.88-24.43 17.68-37.38 3.81-13 6.85-26.23 10.31-39.7 6.51 2.35 14.32 1.64 20.88 6.78-1.34 1.13-2.15 2.4-3.03 2.46-7.81.5-8.66 6.9-10.71 12.32-1.36 3.56-2.75 7.11-4.35 11.25z"/><path d="m292.07 194.95c-26.42 0-52.54-.23-78.65.18-6 .09-6.37-3.93-8.91-8.08 3.43.21 6.1.51 8.77.52 25.49.17 50.99.35 76.48.32 1.83 0 4.06-1.19 5.42-2.52 3.57-3.47 6.76-7.32 10.35-11.3 7.11 5.24 14.12 10.27 20.95 15.54 1.29.99 1.83 2.95 2.72 4.46-1.63.95-3.16 2.43-4.9 2.74-3.91.7-7.96.63-11.88 1.27-1.76.28-3.94 1.06-4.97 2.36-24.77 31.33-50.04 62.3-71.65 95.98-2.57 4.01-4.63 8.49-6.12 13.01-2.52 7.65-.06 13.1 7.61 15.24 7.61 2.13 15.59 3.7 23.46 4 16.47.61 32.99.44 49.48.19 15.84-.24 27.97-7.01 32.62-22.76 5.02-17 8.76-34.37 13.06-51.58.24-.96.42-1.92.59-2.71.32-.25.46-.45.57-.43 1.24.21 2.47.46 3.87.73-2.24 19.09-4.32 37.88-6.72 56.64-.72 5.57.48 9.82 5.44 12.74.86.5 1.63 1.15 2.43 1.74 5.89 4.42 5.66 10.07-1.26 12.81-5.59 2.21-11.82 3.71-17.81 3.86-26.47.69-52.96 1.32-79.42.85-11.66-.21-23.43-2.36-34.85-4.96-8.61-1.97-15.96-7.44-16.22-17.27-.15-5.7 1.29-12.15 4.08-17.09 6.84-12.14 14.38-23.98 22.54-35.28 16.57-22.93 33.75-45.42 50.67-68.1.78-1.05 1.53-2.12 2.25-3.1z"/><path d="m132.37 131c12.31 0 24.29.1 36.27-.12 1.69-.03 3.6-1.39 4.98-2.62 4.34-3.85 8.48-7.93 12.95-12.16 6.14 4.18 12.64 8.47 18.96 13.01 1.18.85 2.38 2.83 2.19 4.07-.15.97-2.37 1.94-3.82 2.3-1.9.48-3.95.49-5.93.5-48.33.08-96.65.13-144.98.2-2.5 0-5.16-.35-7.46.37-5.8 1.82-8.15-1.28-9.92-6.05h34.14c0-19.58 0-39.32 0-60.15 9.63 3.02 18.59 5.83 27.54 8.64.04.82.08 1.63.11 2.45-3.48 1.47-7.02 2.8-10.4 4.47-1.21.6-2.86 2.02-2.88 3.08-.19 13.8-.13 27.6-.13 41.69h31.42c0-29.59 0-58.98 0-89.43 10.04 3.02 19.98 6 29.93 8.99.04.9.08 1.79.12 2.69-4.25 1.64-8.5 3.27-13.19 5.08v30.89c9.22 0 18.48.09 27.73-.11 1.22-.03 2.5-1.49 3.59-2.47 3.58-3.23 7.09-6.55 10.89-10.09 6.16 4.54 12.33 8.97 18.36 13.58 2.13 1.63 2.03 3.54-.78 4.33-2.05.57-4.25.8-6.38.81-17.63.08-35.28.05-53.31.05z"/><path d="m194.56 188.02c29.94-41.65 48.88-87.73 60.65-137.97 8.76 4.09 17.1 7.98 25.44 11.88-.09.7-.18 1.4-.27 2.11-2.93 1.32-5.9 2.55-8.76 4-1.38.7-3.15 1.53-3.71 2.77-7.53 16.8-14.88 33.68-22.46 50.95 1.75.1 3.18.24 4.6.24 24 .01 47.99-.05 71.99.08 3.17.02 5.2-.77 6.91-3.57 2.84-4.66 6.13-9.05 9.34-13.71 6.86 5.57 13.5 10.86 19.98 16.33 1.12.95 2.46 2.93 2.14 3.95-.36 1.14-2.39 2.05-3.86 2.47-1.71.49-3.61.43-5.43.44-34.83.02-69.66.08-104.49-.08-3.67-.02-5.6 1.14-7.36 4.3-11 19.86-23.74 38.53-38.97 55.44-1.95 2.17-3.61 3.53-5.74.37z"/><path d="m122.58 209.83s-.13.3-.13.3c4.48-11.54 9.44-22.92 13.28-34.67 2.55-7.79 3.49-16.1 5.31-24.95 7.26 1.99 14.27 3.91 21.28 5.83.04.69.09 1.39.13 2.08-1.73.9-3.38 2.37-5.19 2.59-3.99.48-5.35 3.01-6.56 6.29-3.03 8.21-6.3 16.33-9.48 24.49 5.85 2.85 11.65 5.34 17.09 8.43 5.23 2.97 8.59 7.57 7.66 13.94-.29 2.02-2.17 3.81-3.32 5.7-1.76-1.23-4.2-2.06-5.17-3.74-4.57-7.95-10.82-14.2-18.03-19.56-4.64 7.12-8.89 14.22-13.75 20.87-2.92 3.99-6.71 7.37-10.27 10.86-.94.92-2.51 1.2-4.69 2.18 4.38-7.65 8.11-14.15 11.84-20.64z"/><path d="m141.61 286.6c-8.67 15.89-16.21 30.1-29.16 40.55 16.13-24.79 23.85-52.45 28.64-81.65 6.16 1.51 11.78 2.75 17.3 4.34 1.39.4 2.47 1.9 3.69 2.9-1.14 1.05-2.22 2.91-3.44 3.01-5.37.45-6.89 4.18-8.36 8.4-2.39 6.86-5.05 13.62-7.6 20.44 6.24 2.9 12.35 5.47 18.18 8.56 5.12 2.71 8.76 6.95 8.13 13.14-.24 2.32-2.22 4.46-3.4 6.68-1.81-1.39-3.9-2.53-5.37-4.21-6.03-6.97-11.87-14.11-18.61-22.16z"/></g></svg>