<svg enable-background="new 0 0 400 400" viewBox="0 0 400 400" xmlns="http://www.w3.org/2000/svg"><path d="m119.36 118.09c3.08 4.17 5.74 7.29 7.84 10.74 2 3.3 3.13 6.63 2.15 11.05-1.55 7.01-1.91 14.32-2.28 21.54-.85 16.69-1.39 33.39-2.06 50.09-.33 8.27-.73 16.53-.98 24.8-.39 12.76-1.23 25.55-.82 38.29.27 8.24 1.92 16.54 3.91 24.57 2.2 8.85 8.55 13.51 17.76 13.79 27.02.8 54.07 2.25 81.07 1.79 24.39-.42 48.72-2.84 72.71-8.3 11.05-2.51 21.62.35 29.29 9.97 4.5 5.65 1.92 12.95-5.54 14.5-4.95 1.03-10.01 1.71-15.05 2.02-9.42.56-18.86.75-28.29 1.07-20.36.68-40.73 1.32-61.09 2.02-7.94.27-15.9 1.28-23.79.86-17.92-.94-35.97-1.45-53.65-4.2-19.21-2.99-30.98-13.65-36.46-36.53-2.05-8.55-3.29-17.18-2.22-26.15.8-6.74.1-13.64.17-20.48.31-30.26.81-60.52.89-90.78.02-8.18-.92-16.41-2.05-24.54-.42-3.05-2.38-6.03-4.16-8.69-.64-.95-2.91-1.38-4.28-1.15-3.51.59-6.91 1.79-10.4 2.55-4.03.87-7.71.42-11.58-1.66-9.2-4.95-17.98-10.3-23.84-19.23-1.36-2.07-2.37-4.78-2.38-7.2-.01-2.02 1.16-4.86 2.74-5.83 1.41-.87 4.54-.34 6.13.73 10.46 7.02 21.94 10.21 34.4 9.2 8.47-.69 16.88-2.15 25.31-3.31 8.59-1.18 17.17-2.4 25.75-3.61 9.07-1.28 18.11-2.72 27.2-3.81 7.83-.94 15.72-1.39 23.57-2.21 11.91-1.24 23.79-2.64 35.7-3.89 4.59-.48 9.2-.67 13.79-1.11 17.17-1.62 34.36-3.05 51.48-5.02 10.53-1.21 20.96-3.35 31.46-4.88 2.05-.3 4.34-.05 6.34.54 6.7 2 13.45 3.94 19.92 6.56 3.23 1.31 6.65 3.49 8.58 6.26 1.76 2.53 2.8 6.74 1.95 9.54-.67 2.19-4.7 4.76-7.24 4.76-11.89-.02-23.77-.87-35.65-1.43-1.65-.08-3.3-.35-4.94-.26-4.27.24-8.53.78-12.8.92-12.76.42-25.54.46-38.29 1.1-14.65.73-29.31 1.58-43.9 3.02-20.06 1.98-40.07 4.45-60.08 6.91-11.84 1.44-23.61 3.28-36.29 5.08z" fill="#010103"/><g fill="#fcfafa"><path d="m37.59 393.81c-.92.31-1.52.05-2-.78-.7-1.2-1.52-2.34-2.47-3.78v4.59c-.55.03-.95.05-1.41.07-.03-.37-.06-.64-.06-.91 0-1.91 0-3.81 0-5.7 1.13-.41 1.77-.03 2.29.91.62 1.11 1.38 2.14 2.31 3.19v-4.2h1.35v6.61z"/><path d="m12.94 393.88v-6.75c1.9.19 3.93-.54 5.37 1.29.8 1.01.78 2.88.03 3.97-1.37 1.97-3.4 1.51-5.4 1.49m1.45-1.22c2.04.12 2.92-.58 2.89-2.21-.03-1.51-.98-2.19-2.89-2z"/><path d="m11.81 393.87h-5.49c.68-2.18 2.47-3.48 3.51-5.45h-3.08v-1.21h5.29c-.71 2.13-2.44 3.48-3.47 5.51.86 0 1.63.04 2.39-.01.79-.05 1.14.21.85 1.16"/><path d="m39.33 393.86v-6.61h3.7v1.07h-2.22v1.52c.68.04 1.34.09 2.07.13v1.07c-.72.05-1.38.09-2.1.14v1.48h2.4v1.19h-3.84z"/><path d="m27.71 388.56c-1.15-.3-2.46-.61-3.1.64-.37.73-.41 1.93-.06 2.67.63 1.35 1.99.93 3.17.68.35.94-.01 1.32-.93 1.46-1.62.25-3.05-.27-3.76-1.48-.73-1.24-.6-3.03.31-4.17.88-1.11 2.71-1.7 4-1.16.32.13.44.74.65 1.12-.1.08-.19.16-.28.24"/><path d="m49.15 387.24v1.07c-.59.02-1.17.05-1.87.08v5.44h-1.48v-5.44h-1.85c-.05-.4-.08-.73-.13-1.15z"/><path d="m20.06 387.21h1.33v6.62h-1.33z"/><path d="m30.68 393.25c-.49.38-.8.79-1.05.76-.32-.05-.6-.45-.9-.7.26-.24.51-.64.8-.67.29-.04.62.3 1.15.61"/></g></svg>