<svg enable-background="new 0 0 400 400" viewBox="0 0 400 400" xmlns="http://www.w3.org/2000/svg"><path d="m6.44 374.46.42-.45c.65.47 1.27.95 1.85 1.44l-.45.49c-.65-.56-1.25-1.06-1.82-1.48m.93 7.33-.63-.26c.55-1.36 1.05-2.8 1.52-4.33.19.1.38.19.59.27-.46 1.29-.95 2.73-1.48 4.32m-.38-10.38.44-.42c.43.34 1.01.82 1.74 1.44l-.49.49c-.53-.51-1.09-1.01-1.69-1.51m2.5.35h1.72v-1.04h.59v1.04h3.52v-1.04h.59v1.04h1.75v.53h-1.75v1.42h-2.03v.97h3.22v2.03h-3.24c0 .35-.01.66-.03.93h3.32v.53h-3.37c-.03.27-.08.58-.15.94h3.96v.53h-3.71c.67.92 1.93 1.48 3.79 1.68-.13.24-.23.44-.29.59-2.13-.38-3.48-1.08-4.04-2.12-.43.97-1.77 1.72-4.03 2.23-.09-.19-.2-.37-.33-.55 2.1-.42 3.37-1.03 3.81-1.83h-3.36v-.53h3.58c.08-.29.13-.61.16-.94h-3.33v-.53h3.39c.02-.27.04-.58.04-.93h-3.23v-2.03h3.25v-.97h-2.07v-1.42h-1.73zm1.12 3.44v1h2.65c.01-.3.02-.44.01-.4v-.25-.35zm1.19-2h3.52v-.91h-3.52zm4.71 3h-2.63v.59c0 .15-.01.28-.01.4h2.64v-1.99z" fill="#fbfcfa"/><path d="m13.56 383.74h.63v1.52h2.72v6.07h1.13v.6h-11.06v-.6h1.13v-6.07h2.73v-1.52h.63v1.52h2.1v-1.52zm-2.69 8.83.38.56c-1.24.63-2.53 1.25-3.85 1.85-.1-.21-.21-.42-.34-.63 1.36-.55 2.63-1.15 3.81-1.78m-2.13-4.27h2.1v-2.45h-2.1zm0 3.04h2.1v-2.46h-2.1zm2.72-3.04h2.1v-2.45h-2.1zm0 3.04h2.1v-2.46h-2.1zm6.07 3.6c-1.41-.71-2.7-1.3-3.86-1.78l.35-.56c1.45.62 2.75 1.19 3.88 1.72zm-1.25-9.09h-2.1v2.45h2.1zm-2.09 5.49h2.1v-2.46h-2.1z" fill="#fbfcfa"/><g fill="#010101"><path d="m120.99 248.27c-2.68-9.05-5.36-18.08-8.02-27.12-1.08-3.65-3.02-4.64-7.02-3.75-11.3 2.51-22.66 4.88-34.12 6.46-11.17 1.54-19.37-4.77-26.54-12.36-2.31-2.45-4.29-5.44-5.58-8.53-.75-1.79-.46-4.69.59-6.29.6-.91 3.8-.72 5.56-.16 4.49 1.42 8.74 3.59 13.25 4.95 4.01 1.21 8.27 2.56 12.35 2.36 10.14-.49 20.25-1.78 30.36-2.86 3.11-.33 4.05-1.62 3.42-5.27-1.14-6.59-5.5-10.94-8.91-16.07-1.85-2.78-4.46-7.09-3.49-9.27 1.59-3.58 6.5-2.42 9.61-1.02 6.17 2.79 12.36 5.84 17.83 9.77 2.76 1.99 4.48 5.94 5.78 9.35 3.27 8.55 6.05 10.06 15.19 8.5 7.9-1.35 15.93-1.95 23.89-2.98 6.96-.9 13.89-2.03 20.85-2.89 4.33-.54 6.05-3.55 5.9-7.11-.29-6.53-.78-13.16-2.3-19.48-.95-3.94-4.03-7.22-9.18-6.52-8.76 1.19-17.57 2.04-26.28 3.52-13.34 2.27-26.54 5.35-39.92 7.32-7.17 1.06-12.63-4.03-17.78-8.17-3.38-2.71-6.01-6.52-8.38-10.22-.89-1.39-.54-4.04.14-5.76.28-.71 2.99-.87 4.49-.62 8.65 1.44 16.66 6.06 25.85 4.97 9.94-1.18 19.92-2.01 29.85-3.24 8.92-1.1 17.8-2.56 26.71-3.78 12.32-1.69 24.64-3.4 36.98-4.91 9.61-1.18 19.29-1.83 28.87-3.17 11.47-1.61 22.85-3.89 34.31-5.52 9.32-1.32 18.3-.2 26.31 5.4 3.06 2.14 4.41 5.27 3.24 8.42-.85 2.28-3.24 4.9-5.47 5.56-5.23 1.55-10.78 2.02-14.78 2.68 4.3 3.03 10.52 6.04 14.81 10.79 5.46 6.03-1.49 12.33-1.83 19.72 4.04 0 8.15.4 12.14-.09 6.79-.83 13.52-2.23 20.27-3.38 11.03-1.87 20.75 1.9 29.59 7.8 2.89 1.93 4.75 5.82 2.54 10.06-1.81 3.48-4.58 4.72-8.31 4.63-16.1-.37-32.2-.77-48.3-.96-4.26-.05-8.53.53-12.78 1.03-1.01.12-2.43.85-2.8 1.68-4.23 9.43-8.29 18.93-12.53 28.73 9.54-.89 18.11-2.02 26.7-2.4 7.84-.35 14.7 2.96 20.38 8.11 1.51 1.37 1.89 4.58 1.87 6.94-.03 4.13-3.51 5.61-6.76 5.7-6.43.16-12.87-.67-19.31-.66-10.61.02-21.22.29-31.82.64-6.76.22-13.52.65-20.27 1.21-10.8.9-21.61 1.84-32.37 3.17-1.41.17-3.55 2.73-3.61 4.24-.33 9.63-.17 19.28-.17 29.38 4.83-.31 9.35-.48 13.84-.9 9.64-.9 19.3-1.71 28.89-2.96 19.98-2.6 40.17-2.78 60.14-6.33 8.44-1.5 18.14 2.76 24.69 9.8 1.85 1.99 2.87 6.6 1.84 8.94-1.11 2.53-5.05 5.33-7.78 5.36-9.19.09-18.4-1.02-27.6-1.62-2.16-.14-4.33-.09-6.5-.09-13.66-.01-27.35-.53-40.98.14-14.43.71-28.81 2.4-43.18 3.97-4.83.53-5.37 4.61-5.37 8.59-.01 14.16.16 28.33-.09 42.49-.08 4.69-.85 9.47-2.06 14.01-.58 2.17-2.6 4.93-4.56 5.53-3.37 1.03-6.88.41-9.51-3.1-4.26-5.7-5.49-12.27-5.67-18.93-.38-13.49-.28-26.99-.02-40.49.08-4.32-1.48-5.86-5.49-5.21-8.06 1.29-16.12 2.58-24.15 4-10.92 1.93-21.85 3.78-32.7 6.06-7.96 1.67-16 3.35-23.6 6.15-8.41 3.09-15.67 1.07-23-2.63-7.12-3.59-13.7-7.94-17.77-15.02-1.01-1.76-.63-4.32-.89-6.51 1.81-.04 3.71-.47 5.42-.07 8.93 2.11 17.71 5.15 27.1 3.99 8.61-1.06 17.2-2.26 25.8-3.39 9.25-1.21 18.51-2.39 27.76-3.6 12.49-1.64 24.95-3.5 37.46-4.83 4.91-.52 5.87-3.4 5.93-7.25.11-7.16-.12-14.33.1-21.49.11-3.65-1.45-4.83-4.77-4.42-8.61 1.07-17.32 1.67-25.81 3.35-17.88 3.55-35.61 7.82-53.48 11.41-2.6.52-5.84-.69-8.45-1.85-7.47-3.33-15.06-6.75-19.34-14.33-.94-1.66-.68-4-.97-6.02 1.76-.2 3.63-.89 5.26-.51 11.41 2.65 22.87 2.31 34.37.93.65-.08 1.34-.12 1.93-.38.77-.29 1.41-.81 2.21-1.32zm148.96-98.25c-19.53-.4-40.22 1.04-61.8 4.01 6.61 9.38 8.25 18.7 5.91 28.81-.86 3.72.75 5.54 4.88 5.21 14.61-1.13 29.28-1.68 43.84-3.24 10.09-1.08 12.59-4.36 12.04-14.71-.22-4.03-2.62-7.9-3.72-11.93-.66-2.4-.73-4.96-1.15-8.15zm-77.62 71.3c-.11-.01-.22-.02-.33-.04 0-2.16.03-4.32-.01-6.48-.09-5.9-1.02-7.04-6.98-6.75-9.19.46-18.39 1.01-27.52 2.07-7.08.82-14.04 2.55-21.08 3.73-3.08.52-3.62 2.38-3.03 4.91 1.81 7.74 4.08 15.4 5.39 23.22.63 3.75 2.32 4.34 5.28 3.99 9.25-1.09 18.5-2.17 27.74-3.41 4.98-.67 10.01-1.33 14.84-2.65 1.72-.47 3.81-2.68 4.17-4.43.96-4.61 1.08-9.42 1.53-14.16zm25.93 15.65c10.85-1.06 21.48-1.95 32.06-3.26 2.59-.32 6.39-1.39 7.27-3.24 3.85-8.05 6.9-16.49 10.07-24.86 1.16-3.07-.13-4.88-3.56-4.6-3.1.25-6.19.75-9.29.96-10.52.72-21.08 1.03-31.55 2.2-3.92.44-9.86-.76-10.22 6.23-.34 6.76-.77 13.52-1.01 20.28-.15 4.33 1.48 7.11 6.23 6.29z"/><path d="m85.67 65.92c9.57-5.37 27.69-1.75 32.57 7.39 2.05 3.84.87 9.78.16 14.62-1.06 7.21-3 14.28-4.79 22.45 24.87-2.73 49.03-5.38 72.39-7.94 0-13.62.07-26.19-.03-38.76-.05-5.82-4.15-9.36-7.83-13.17-1.32-1.36-2.99-4.68-2.64-4.99 2.11-1.84 4.96-4.56 7.18-4.25 9.39 1.32 18.32 4.47 26.11 10.11 3.92 2.84 3.5 7.09 2.91 11.31-.98 6.96-1.88 13.94-2.67 20.93-.56 4.88-.89 9.78-1.39 15.45 7.37-.38 14.07-.59 20.74-1.13 5.39-.43 10.72-1.54 16.11-1.87 13.69-.83 27.4-1.48 41.11-1.99 3.13-.12 4.35-.95 4.51-4.28.25-5.05 1.07-10.09 1.88-15.09.84-5.17-1.91-9.12-3.82-13.48-1-2.28-1.96-5.63-1-7.49 1.72-3.33 6-3.13 8.63-1.53 7.37 4.47 14.46 9.44 21.27 14.72 1.3 1.01 1.59 4.58 1 6.55-3.48 11.53-7.26 22.97-11.17 34.37-.94 2.73-2.52 5.32-4.17 7.72-3.53 5.14-10.94 4.71-13.71-.96-1.74-3.56-3.83-4.95-7.86-4.68-17.62 1.19-35.29 1.77-52.9 3.18-14.87 1.2-29.72 2.88-44.49 4.99-24.52 3.51-49.33 5.68-72.98 13.86-5.17 1.79-8.81-1.02-12.72-3.86-8.55-6.23-9.59-10.77-7.37-20.99 2.04-9.39 2.56-19.17 3.06-28.81.12-2.25-2.49-4.7-3.99-6.96-1.23-1.88-2.7-3.59-4.1-5.42z"/></g></svg>