<svg enable-background="new 0 0 400 400" viewBox="0 0 400 400" xmlns="http://www.w3.org/2000/svg"><path d="m6.44 374.46.42-.45c.65.47 1.27.95 1.85 1.44l-.45.49c-.65-.56-1.25-1.06-1.82-1.48m.93 7.33-.63-.26c.55-1.36 1.05-2.8 1.52-4.33.19.1.38.19.59.27-.46 1.29-.95 2.73-1.48 4.32m-.38-10.38.44-.42c.43.34 1.01.82 1.74 1.44l-.49.49c-.53-.51-1.09-1.01-1.69-1.51m2.5.35h1.72v-1.04h.59v1.04h3.52v-1.04h.59v1.04h1.75v.53h-1.75v1.42h-2.03v.97h3.22v2.03h-3.24c0 .35-.01.66-.03.93h3.32v.53h-3.37c-.03.27-.08.58-.15.94h3.96v.53h-3.71c.67.92 1.93 1.48 3.79 1.68-.13.24-.23.44-.29.59-2.13-.38-3.48-1.08-4.04-2.12-.43.97-1.77 1.72-4.03 2.23-.09-.19-.2-.37-.33-.55 2.1-.42 3.37-1.03 3.81-1.83h-3.36v-.53h3.58c.08-.29.13-.61.16-.94h-3.33v-.53h3.39c.02-.27.04-.58.04-.93h-3.23v-2.03h3.25v-.97h-2.07v-1.42h-1.73zm1.12 3.44v1h2.65c.01-.3.02-.44.01-.4v-.25-.35zm1.19-2h3.52v-.91h-3.52zm4.71 3h-2.63v.59c0 .15-.01.28-.01.4h2.64v-1.99z" fill="#fbfcfa"/><path d="m13.56 383.74h.63v1.52h2.72v6.07h1.13v.6h-11.06v-.6h1.13v-6.07h2.73v-1.52h.63v1.52h2.1v-1.52zm-2.69 8.83.38.56c-1.24.63-2.53 1.25-3.85 1.85-.1-.21-.21-.42-.34-.63 1.36-.55 2.63-1.15 3.81-1.78m-2.13-4.27h2.1v-2.45h-2.1zm0 3.04h2.1v-2.46h-2.1zm2.72-3.04h2.1v-2.45h-2.1zm0 3.04h2.1v-2.46h-2.1zm6.07 3.6c-1.41-.71-2.7-1.3-3.86-1.78l.35-.56c1.45.62 2.75 1.19 3.88 1.72zm-1.25-9.09h-2.1v2.45h2.1zm-2.09 5.49h2.1v-2.46h-2.1z" fill="#fbfcfa"/><g fill="#010101"><path d="m143.04 197.14c.48-2.7.21-5.87 1.56-8.02 9.74-15.45 20.27-30.43 29.6-46.11 5.65-9.49 9.87-19.88 14.26-30.07 5.22-12.1 10.09-24.37 14.77-36.69 1.48-3.9 2.07-8.18 2.72-12.35.82-5.23-.89-9.75-4.76-13.38 4.18-4.08 12.45-5.26 18.26-1.5 5.74 3.72 11.02 8.31 15.95 13.09 3.69 3.58 3.83 8.21.39 12.35-11.57 13.95-17.31 31.1-25.81 46.73-.51.95-.73 2.06-1.43 4.1 7.09-.52 13.46-.7 19.75-1.52 10.53-1.38 21.03-3.01 31.49-4.82 17.35-3 34.73-5.92 51.97-9.46 10.06-2.06 20.03-4.43 29.89-.32 3.52 1.47 7.61 4.21 9.05 7.43 2.87 6.42-2.03 11.86-9.65 12.41-17.07 1.23-34.16 2.43-51.2 4.07-8.91.86-17.74 2.6-27.4 4.07 1.17 1.51 1.81 2.6 2.69 3.42 5.94 5.52 7.82 12.12 5.66 19.95-.47 1.72-.7 3.54-.76 5.32-.12 3.33-.06 6.67-.03 10 .33 39.1.61 78.2 1.02 117.3.16 15.1 1.31 30.23.7 45.29-.32 7.94-3 15.92-5.44 23.61-1.98 6.24-10.01 8.51-14.67 1.07-8.3-13.27-21.89-19.73-34.73-27.14-3.11-1.8-6.46-3.22-9.45-5.19-1.41-.93-2.22-2.75-3.3-4.17 1.94-.56 4.02-1.88 5.8-1.56 6.72 1.19 13.3 3.16 20.03 4.32 4.04.7 8.28.76 12.37.41 1.58-.14 3.37-1.98 4.37-3.5.92-1.4 1.22-3.41 1.25-5.16.41-22.1 1-44.2.98-66.3-.03-27.77-.54-55.54-.96-83.3-.11-7.1-.51-14.21-1.01-21.3-.51-7.29-6.67-11.56-13.72-9.9-6.81 1.61-13.6 3.51-20.51 4.43-3.76.5-7.92-.21-11.59-1.36-3.21-1.01-5.07-.56-6.98 2.05-12.9 17.61-27.05 34.16-43.21 48.87-1.91 1.74-5.34 1.81-8.06 2.66z"/><path d="m142.89 196.99c.34.56.57 1.25 1.03 1.67 7.17 6.43 4.21 12.79 1.04 20.17-3.37 7.82-4.55 16.56-6.98 24.81-6.94 23.54-13.42 47.25-21.3 70.48-4.01 11.82-9.43 23.47-18.67 32.54-2.37 2.33-5.17 4.52-8.18 5.84-5.84 2.56-12.37-1.46-12.61-8.22-.15-4.5-2.74-6.7-5.48-8.82-6.58-5.09-13.52-9.69-20.19-14.67-1.15-.86-1.64-2.61-2.44-3.94 1.58-.49 3.2-1.5 4.73-1.38 8.83.7 17.62 1.84 26.45 2.46 5.15.36 10.64-3.74 12.58-8.57 3.59-8.9 7.87-17.59 10.7-26.73 5.25-16.92 10.02-34 14.26-51.2 1.71-6.93 1.51-14.34 2.17-21.53.39-4.22-1.46-6.14-5.78-5.92-13.84.69-27.11 4-39.91 9.06-6.19 2.45-12.03 5.8-17.96 8.88-3.45 1.79-6.34 1.55-8.64-1.73-2.05-2.93-4.02-5.92-5.98-8.92-2.51-3.84-2.03-7.5-.08-11.59 8.21-17.25 12.77-35.51 14.39-54.54.4-4.71-1.17-8.22-4.65-11.35-3.67-3.31-3.2-5.53 1.58-6.7 3.21-.79 7.53-1.74 9.94-.28 8.31 5.02 16.56 5.56 25.78 3.34 9.33-2.25 18.96-3.23 28.36-5.24 2.13-.45 5.04-2.56 5.54-4.44 3.14-11.95 5.65-24.06 8.47-36.1 1.09-4.63-1.75-5.68-5.13-5.26-6.63.82-13.25 1.93-19.77 3.39-9.99 2.24-19.89 4.88-29.83 7.35-6.1 1.51-10.79-1.52-14.37-5.63-3.35-3.86-6.14-8.44-8.13-13.15-1.06-2.51.1-5.96.3-9.75 2.05.91 2.69 1.08 3.19 1.43 10.54 7.5 22.31 5.73 33.85 4.07 13.07-1.88 26.19-3.88 38.99-7.03 8.46-2.08 13.74 2.31 19.46 6.47 2.66 1.93 4.96 4.47 7.07 7.03 2.54 3.08 3.59 5.97 1.58 10.54-5.23 11.89-9.47 24.23-13.83 36.49-.62 1.75-.38 4.48.61 6.02 5.57 8.65 3.73 13.23-6.64 14.59-14.3 1.88-28.64 3.4-42.96 5.09-2.93.35-5.84.9-8.77 1.13-6.86.52-7.69 6.07-9.23 10.95-3.88 12.24-7.65 24.51-11.71 37.54 9.59-1.67 18.66-3.06 27.65-4.85 10.05-2 19.94-5.08 30.06-6.19 3.76-.41 8.2 3.11 11.92 5.48 2.88 1.84 5.13 4.67 7.66 7.07.01-.01-.14-.16-.14-.16z"/><path d="m190.98 194.65c5.22-5.21 10.76-4.67 15.71-1.58 6.35 3.95 12.17 8.77 18.14 13.31 3.05 2.32 3.33 5.5 1.6 8.64-9.53 17.27-18.04 35.24-29.11 51.47-9.12 13.36-21.27 24.66-32.17 36.79-1.51 1.68-3.38 3.21-5.38 4.23-1.34.68-3.2.33-4.83.44-.03-1.75-.74-3.9.02-5.2 6.36-11 13.15-21.75 19.5-32.75 10.56-18.27 19.49-37.29 23.33-58.2 1.18-6.44-.96-12.68-6.81-17.15z"/><path d="m288.8 192.5c4.36-3.19 8.13-1.29 10.88.95 14.28 11.67 28.43 23.46 39.79 38.28 7.9 10.3 15.19 20.83 19.8 33.01 2.27 6 4.03 12.17 1.69 18.58-1.62 4.46-3.12 9.08-9.04 9.72-7.08.77-11.45-.87-14.08-6.74-3.59-8-6.77-16.2-9.76-24.45-7.53-20.74-18.41-39.58-31.77-57.05-1.49-1.94-3.02-3.87-4.29-5.95-1.19-1.93-2.07-4.05-3.22-6.35z"/></g></svg>