<svg enable-background="new 0 0 400 400" viewBox="0 0 400 400" xmlns="http://www.w3.org/2000/svg"><path d="m6.44 374.46.42-.45c.65.47 1.27.95 1.85 1.44l-.45.49c-.65-.56-1.25-1.06-1.82-1.48m.93 7.33-.63-.26c.55-1.36 1.05-2.8 1.52-4.33.19.1.38.19.59.27-.46 1.29-.95 2.73-1.48 4.32m-.38-10.38.44-.42c.43.34 1.01.82 1.74 1.44l-.49.49c-.53-.51-1.09-1.01-1.69-1.51m2.5.35h1.72v-1.04h.59v1.04h3.52v-1.04h.59v1.04h1.75v.53h-1.75v1.42h-2.03v.97h3.22v2.03h-3.24c0 .35-.01.66-.03.93h3.32v.53h-3.37c-.03.27-.08.58-.15.94h3.96v.53h-3.71c.67.92 1.93 1.48 3.79 1.68-.13.24-.23.44-.29.59-2.13-.38-3.48-1.08-4.04-2.12-.43.97-1.77 1.72-4.03 2.23-.09-.19-.2-.37-.33-.55 2.1-.42 3.37-1.03 3.81-1.83h-3.36v-.53h3.58c.08-.29.13-.61.16-.94h-3.33v-.53h3.39c.02-.27.04-.58.04-.93h-3.23v-2.03h3.25v-.97h-2.07v-1.42h-1.73zm1.12 3.44v1h2.65c.01-.3.02-.44.01-.4v-.25-.35zm1.19-2h3.52v-.91h-3.52zm4.71 3h-2.63v.59c0 .15-.01.28-.01.4h2.64v-1.99z" fill="#fbfcfa"/><path d="m13.56 383.74h.63v1.52h2.72v6.07h1.13v.6h-11.06v-.6h1.13v-6.07h2.73v-1.52h.63v1.52h2.1v-1.52zm-2.69 8.83.38.56c-1.24.63-2.53 1.25-3.85 1.85-.1-.21-.21-.42-.34-.63 1.36-.55 2.63-1.15 3.81-1.78m-2.13-4.27h2.1v-2.45h-2.1zm0 3.04h2.1v-2.46h-2.1zm2.72-3.04h2.1v-2.45h-2.1zm0 3.04h2.1v-2.46h-2.1zm6.07 3.6c-1.41-.71-2.7-1.3-3.86-1.78l.35-.56c1.45.62 2.75 1.19 3.88 1.72zm-1.25-9.09h-2.1v2.45h2.1zm-2.09 5.49h2.1v-2.46h-2.1z" fill="#fbfcfa"/><g fill="#010101"><path d="m254.67 129.44c2.23-.14 4.64-.31 7.06-.43 21.15-1.11 42.26-1.8 63.12-6.59 10.38-2.38 20.82 1.21 30.22 6.31 3.18 1.73 5.15 4.88 3.66 8.83-1.75 4.63-6.04 5.31-10.1 5.38-13.33.2-26.66.08-39.99.08-1.62 0-3.24 0-5.56 0 2.96 3.92 5.65 7.14 7.95 10.62 3.37 5.11 2.61 9.02-2.4 12.47-18.43 12.67-36.92 25.25-55.39 37.87-1.19.81-2.37 1.63-4.06 2.79 20.8-1.66 40.95-3.26 62.94-5.01-5.94-5.61-11.02-10.16-15.75-15.05-1.22-1.27-1.33-3.61-1.96-5.46 1.96-.18 4.31-1.14 5.83-.41 13.93 6.68 28.03 13.12 41.43 20.77 7.1 4.05 9.34 12.12 9.13 20.15-.06 2.3-1.98 5.65-3.96 6.59-4.27 2.03-8.89.75-12.31-2.47-3.46-3.26-6.71-6.88-9.37-10.81-1.82-2.69-3.86-3.37-6.64-3.01-13.31 1.74-26.6 3.53-40.83 5.43.4 5.38 1.18 10.92 1.15 16.45-.05 9.42-.29 18.87-1.19 28.24-.2 2.09-3.49 5.51-5.29 5.47-3.02-.07-7.16-1.63-8.74-3.98-3.64-5.4-5.04-11.45-4.01-18.55 1.23-8.45.29-17.21.29-25.92-8.35 1.41-16.32 2.75-24.56 4.14 2.72 3.2 5.42 6.05 7.73 9.19 2.3 3.13 2.13 6.06-1.86 7.86-10.82 4.88-21.58 9.93-32.52 14.54-5.83 2.46-11.89 4.59-18.04 6.01-3.29.76-7.01-.31-10.54-.55 2.21-2.1 4.21-4.49 6.66-6.26 9.65-6.96 19.57-13.56 29.09-20.71 2.21-1.66 3.21-4.94 4.19-8.18-9.66 3.93-17.33.91-24.1-4.91-3.74-3.22-8.48-6.4-6.85-12.07 8.62-.7 17.06-.94 25.36-2.17 8.48-1.25 15.85-5.42 23.81-11.61-7.36-5.41-14.08-10.52-21.01-15.33-2.52-1.75-5.63-2.64-8.32-4.18-4.84-2.76-5.1-7.35-.26-9.79 8.62-4.33 15.16-10.77 21.11-19.12-15.62.96-30.75 1.89-46.99 2.9 4.36 3.1 7.91 5.55 11.38 8.11 5.94 4.4 8.25 10.57-.89 14.85-12.11 5.68-24.26 11.3-36.54 16.61-3.04 1.31-6.64 1.32-9.95 1.93-2.07-4.17.9-5.72 2.77-7.46 6.41-5.95 13.09-11.61 19.45-17.62 3.85-3.64 8.26-7.27 6.18-13.72-.09-.28.55-.77.79-1.2.2-.36.33-.77.46-1.1-15.3 1.09-30.5 2.18-46.68 3.34 4.57 2.51 8.25 4.23 11.59 6.46 3.76 2.51 4.47 6.6 4.12 10.77-.7 8.48-1.61 16.94-2.56 26.67 6.64-1.41 12.75-2.7 18.87-4 5.72-1.21 11.48-3.51 17.14-3.29 5.41.2 10.93 2.57 15.97 4.92 1.95.91 3.82 4.45 3.64 6.62-.13 1.52-3.66 3.57-5.91 3.94-5.18.87-10.51.89-15.77 1.2-10.64.62-21.29 1.21-31.92 2.44 8.7 2.52 17.48 4.79 26.07 7.64 8.8 2.93 16.83 6.74 19.31 17.3.96 4.08-.35 6.34-2.89 8.57-2.69 2.37-5.94 3.17-9.08 1.1-5.86-3.86-11.39-8.22-17.31-11.96-5.46-3.45-11.26-6.36-18.07-10.15v15.39c0 7 .01 14 0 21-.01 7.13-2.36 11.34-6.46 11.68-5.74.47-11.99-4.51-12.41-10.95-.53-8.32-.13-16.71-.14-25.06 0-3.66 0-7.33 0-11.93-2.46 1.48-4.49 2.56-6.38 3.85-21.53 14.79-44.86 25.94-69.48 34.48-5.59 1.94-5.64 1.81-10.21-2.2 5.87-3.67 11.4-7.07 16.87-10.57 16.74-10.71 33.45-21.46 50.17-32.19-.24-.4-.47-.8-.71-1.21-6.94 1.34-14 2.21-20.78 4.11-13.52 3.8-24.51-5.13-30.81-14.29-.78-1.14-.74-3.37-.17-4.69.28-.64 2.83-.81 4.11-.42 12.26 3.73 24.57 5.2 37.42 3.22 8.92-1.38 18.06-1.35 27.07-2.28 1.39-.14 3.71-2.02 3.72-3.11.1-9.68 1.4-19.55-2.82-28.77-1.34-2.92-3.24-5.59-4.88-8.36-.81-1.37-1.64-2.72-2.74-4.55-13.91 1.43-28.6 2.95-41.96 4.33 8.3 3.32 17.88 7.03 27.36 10.99 7.64 3.19 10.95 14.27 9.17 21.13-1.36 5.25-7.55 7.93-11.21 4.56-12.05-11.1-23.83-22.49-36.48-34.49 2.54-1.27 4.67-2.34 5.71-2.86-5.26-4.73-11.25-10.04-17.15-15.45-3.21-2.94-3.93-6.34-.98-10.49 14.31 7.32 29.87 7.68 45.57 7.23 14.6-.42 29.21-.53 43.8-1.07 11.71-.43 23.41-1.29 35.11-1.95 11.87-.67 23.74-1.24 35.6-2.04 6.87-.46 13.73-1.13 20.55-2.06 1.73-.24 3.85-1.45 4.79-2.87 3.21-4.86 5.97-10.02 8.86-14.98-7.51 0-14.66-.25-21.79.08-6.05.28-12.06 1.38-18.11 1.84-14.63 1.1-29.31 1.61-43.88 3.2-8.85.96-17.52 3.57-26.31 5.25-1.79.34-4.44.57-5.51-.42-4.41-4.1-8.73-8.42-12.37-13.2-2.76-3.64-.44-7.8 2.88-9.05 16.03-6.06 22.11-20.62 29.95-33.73 3.76-6.28 7.16-12.71 5.98-20.43-.22-1.43-.72-2.83-1.24-4.18-1.48-3.89.99-7.41 4.97-6.24 8.86 2.6 17.18 6.35 22.49 14.57 1.61 2.49 2.03 4.97.12 7.57-3.37 4.6-6.67 9.26-10.27 14.28 1.21.15 2.42.49 3.59.4 11.64-.94 23.28-1.89 34.91-2.95 10.3-.94 20.66-1.55 30.86-3.16 8.32-1.32 16.52-3.63 24.61-6.04 3.51-1.05 6.66-1.36 9.05 1.28 4.81 5.32 9.46 10.83 13.69 16.62 2.13 2.92 1.18 6.11-1.65 8.7-12.81 11.75-22.44 25.96-30.38 40.99zm5.53-48.78c-3.11.67-4.61 1.19-6.14 1.31-17.72 1.38-35.46 2.65-53.18 4.08-5.05.41-10.05 1.61-15.11 1.82-8.01.34-16.04.1-24.05.22-1.4.02-3.38.11-4.08.99-3.7 4.64-7.08 9.54-10.86 14.74 8.2-.65 15.55-1.29 22.9-1.79 10.53-.72 21.06-1.43 31.59-1.99 14.19-.75 28.39-1.29 42.58-2.09 2.68-.15 6.52-.16 7.75-1.79 3.27-4.31 5.38-9.46 8.6-15.5zm-28.47 87.86c4.92 3.78 9.7 7.19 14.17 10.95 6.47 5.44 6.72 5.97 13.06.87 8.85-7.12 17.31-14.77 25.61-22.54 4.01-3.75 5.38-8.81 3.93-15.08-11.78.83-23.53 1.67-35.98 2.55 3.96 6.26.22 9.14-4.19 11.97-5.49 3.52-10.79 7.31-16.6 11.28z"/><path d="m147.04 303.64c-9.28 1.09-18.55 2.19-27.83 3.25-6.36.73-12.73 1.37-19.08 2.12-5.2.61-10.42 1.17-15.59 2.02-10.24 1.68-17.67-3.73-24.71-9.82-3.09-2.67-5.75-5.93-8.21-9.22-2.18-2.91-3.1-6.29-.9-10.23 1.28.37 2.48.75 3.7 1.06 9.27 2.4 18.43 6.01 27.85 6.86 11.31 1.02 22.84-.32 34.27-.64.67-.02 1.33-.01 2-.04 9.77-.33 19.53-.72 29.3-.96 2.49-.06 3.84-.52 4.27-3.47 1.38-9.39 2.52-18.57-3.84-26.89-2.44-3.19-.63-6.54 3.42-6.65 9.71-.27 17.04 5.43 23.91 10.99 1.96 1.59 1.11 7.11.92 10.8-.21 4.19-1.12 8.35-1.83 13.24 21.02-1.11 41.39-2.19 62.02-3.28 1.09-8.61-.82-16.21-5.69-23.23-1.03-1.48-1.91-4.4-1.16-5.46.94-1.34 3.92-2.41 5.5-1.92 6.16 1.92 12.39 4.01 18.07 7.02 4.23 2.24 6.28 6.51 5.66 11.78-.4 3.43-.08 6.94-.08 9.96 6.88 0 13.41.25 19.91-.08 5.39-.27 10.76-1.11 16.11-1.87 10.02-1.44 20.07-2.77 30.03-4.57 13.61-2.46 25.83.23 36.69 8.84 3.09 2.45 3.76 5.98 2.05 9.06-1 1.8-3.91 3.31-6.1 3.54-4.97.51-10.03.15-15.05.15-10 0-20-.13-29.99.03-12.94.2-25.87.54-38.8 1.02-5.41.2-10.8.93-16.84 1.48v5.12 59.49c0 1.33.45 3.04-.19 3.92-2.25 3.08-4.41 7.45-7.49 8.37-3.75 1.12-7.13-2.58-8.75-6.4-3.75-8.87-5.5-17.92-3.91-27.75 1.05-6.5.32-13.29.35-19.95.03-7.29.01-14.58.01-22.34-22.08 1.02-43.66 2.01-65.51 3.01-5.88 12.77-13.52 24.26-23.86 33.95-12.3 11.53-26.81 19.22-42.4 24.98-8.51 3.15-17.33 5.51-26.07 8-1.18.34-2.72-.6-4.09-.95.66-1.67.83-4.1 2.06-4.87 5.65-3.58 11.55-6.78 17.43-9.98 14.61-7.96 28.53-16.95 39.85-29.25 5.24-5.69 9.31-12.45 13.91-18.73-.47-.5-.89-1-1.32-1.51z"/><path d="m344.65 256.47c-1.09 1.64-2.47 5.35-5.13 7.32-3.95 2.92-8.16 1.03-11.4-2.22-2.44-2.44-4.26-5.55-6.89-7.72-10.1-8.35-20.41-16.44-30.66-24.62-.89-.71-2.1-1.13-2.73-2-.79-1.1-1.13-2.52-1.66-3.8 1.16-.47 2.35-1.41 3.47-1.34 3.75.24 7.76.1 11.15 1.43 11.33 4.45 22.53 9.26 33.58 14.37 5.97 2.76 10.39 10.68 10.27 18.58z"/></g></svg>