<svg enable-background="new 0 0 400 400" viewBox="0 0 400 400" xmlns="http://www.w3.org/2000/svg"><path d="m244.41 202c9.94-1.12 15.7 6.03 22.67 10.63 5.14 3.4 9.29 7.7 11.66 13.62 1.89 4.7 2.54 9.63.81 14.13-1.02 2.66-4.09 5.51-6.82 6.31-3.71 1.1-8.41 1.25-10.85-3.19-2.5-4.55-4.6-9.33-6.88-14-3.57-7.31-7.14-14.61-10.71-21.92-.53.06-1.07.12-1.6.18-3.7 27.3-7.41 54.61-11.21 82.63 13.4-3.72 25.62-7.08 37.82-10.5 4.07-1.14 8.04-2.66 12.16-3.53 1.94-.41 4.35-.18 6.13.65 3.31 1.54 3.3 4.86-.14 6.77-7.72 4.27-15.69 8.1-23.48 12.24-14.86 7.9-29.74 15.78-44.47 23.92-4.4 2.43-8.34 5.7-12.51 8.55-3.42 2.34-6.09 1.72-7.87-2.1-1.04-2.22-2.21-4.39-3.03-6.69-2.63-7.3-.81-13.49 5.14-18.39 7.77-6.41 10.13-15.34 11.8-24.65 2.42-13.48 4.99-26.94 7.35-40.43 2.31-13.18 4.54-26.38 6.62-39.6 2.06-13.08 4.27-26.15 5.75-39.29 1.51-13.4 2.61-26.88 3.03-40.35.12-3.89-2.5-7.97-4.33-11.74-.38-.78-3.11-1.22-4.27-.7-8.03 3.57-15.03 1.97-21.44-3.61-2.98-2.59-6.25-4.92-8.91-7.8-2.91-3.15-1.34-6.93 2.98-7.02 5.42-.12 10.86.74 16.3.74 4.93 0 9.91-.26 14.78-.99 11.95-1.77 23.9-3.6 35.75-5.92 18.54-3.62 36.97-7.76 55.49-11.47 9.52-1.91 19.08-3.49 28.4 1.33 4.3 2.22 6.13 5.88 5.27 10.07-.86 4.21-4.07 6.6-8.86 7.22-21.4 2.77-42.76 5.88-64.13 8.85-9.88 1.38-19.77 2.72-29.64 4.12-.59.08-1.12.57-2.25 1.18 7.03 6.83 9.53 15.14 7.98 24.35-1.37 8.18-3.54 16.22-5.32 24.33-.62 2.82-1.11 5.66-1.97 10.1 10.67-2.23 20.47-3.72 29.94-6.39 11.58-3.28 19.44-1.23 27.15 8.49 1.33 1.68 3.02 3.09 4.28 4.82 4.21 5.78 1.81 11.43.11 17.47-2.32 8.26-4.02 16.79-4.89 25.32-.81 7.92-.65 16.01-.08 23.97 1.52 21.21 3.09 42.43 9.74 62.87 4.91 15.07 13.59 27.52 25.7 38.23 4.53-12.84 8.98-25.45 13.44-38.05.27-.77.38-1.74.92-2.22 1.09-.98 2.52-2.43 3.63-2.28.96.13 2.31 2.17 2.36 3.41.24 6.49.45 13.01.04 19.49-.84 13.38 1.41 26.22 6.48 38.51 2.15 5.22 1.31 9.38-2.05 13.53-3.65 4.51-8.47 3.78-12.91 2.45-9.34-2.8-17.42-7.88-24.78-14.36-15.5-13.64-25.93-30.52-32.81-49.76-4.99-13.97-7.18-28.49-7.83-43.24-.76-17.36-1.58-34.72-1.94-52.1-.2-9.61.42-19.24.78-28.85.3-7.7-2.82-10.38-10.53-9.31-8.44 1.17-16.91 2.14-25.39 2.93-3.22.3-4.61 1.48-5.03 4.78-.93 7.26-2.28 14.49-3.53 22.26z" fill="#010103"/><path d="m131.96 125.89c.05-2.37-3.34-5.24-.07-6.89 2.11-1.07 5.26-.35 7.9-.03 4.04.49 8.03 1.37 12.05 2.02 3.19.52 4.55-.79 5.27-4.1 2.7-12.56 6.14-24.97 8.6-37.58 1.69-8.67 2.43-17.45-3.88-25.31-1.34-1.67-1.21-6.32.18-7.89 1.35-1.53 5.18-1.03 7.92-1.11 1.24-.04 2.56.51 3.74 1.04 7.93 3.56 16.21 6.87 19.27 16.08.73 2.21.64 5.21-.26 7.35-6.58 15.61-13.47 31.1-20.21 46.64-.49 1.14-.62 2.43-1.27 5.11 11.22-2.05 21.67-3.78 32.04-5.91 7.69-1.58 15.65 5.03 13.53 12.21-.74 2.53-3.93 4.88-6.56 6.15-2.51 1.22-5.74 1.14-8.68 1.3-8.26.44-16.53.65-24.79 1.09-1.56.08-3.08.75-5.51 1.38 7.31 8.51 5.85 18.29 5.73 27.78-.19 13.93-.63 27.86-.96 41.79-.04 1.61-.01 3.22-.01 5.12 10.2-2.02 19.78-3.86 29.34-5.83 4.28-.88 10.8 1.41 13.24 4.81 2.8 3.9 1.11 7.64-.71 11.08-2.73 5.14-8.3 4.09-12.76 4.69-9.11 1.23-18.32 1.69-27.8 2.49-.1 1.05-.29 2.16-.3 3.27-.35 38.58-.55 77.17-1.19 115.75-.07 4.43-1.57 9.55-4.16 13.06-4.54 6.15-10.3 5.34-13.55-1.7-2.42-5.23-3.81-11.03-5.04-16.7-2.14-9.83.41-19.49 1.85-29.16.12-.82.06-1.66.08-2.5.33-22.42.62-44.85 1.04-67.27.08-4.23.69-8.45 1.08-13.03-5.79 1.04-11.02 2.02-16.27 2.9-4.9.82-9.45-.05-13.06-3.65-4.03-4.02-8.56-7.8-11.55-12.53-2.74-4.35.32-7.7 5.56-6.86 3.37.54 6.79 1.11 10.01 2.17 8.23 2.72 16.44 2.43 25.8.41-4.06-24.61 1.5-49.75-4.79-75.06-10.03 3.57-14.42-2.8-18.57-9.6-.22-.36-.8-.51-1.21-.75-.35-.75-.71-1.49-1.07-2.23z" fill="#010103"/><path d="m131.96 125.89c.36.74.73 1.48 1.09 2.22-.01.17-.03.33-.02.5.29 10.85-2.69 10.2-11.3 11.29-4.57.58-9.27.1-13.96.1 1.46 3.65 3.54 6.98 4.04 10.52.69 4.93.31 10.02.16 15.03-.2 6.27-.58 12.54-.99 18.8-.13 2.07-.58 4.12-.97 6.72 9.8-3.74 19.14-7.31 28.48-10.88.46-.17.9-.55 1.35-.54 2.18.04 4.35.18 6.53.28-.85 1.91-1.16 4.53-2.62 5.62-10.09 7.48-20.31 14.81-30.75 21.8-2.84 1.9-3.9 3.7-4.07 7.06-1.46 29.24-5.95 57.75-18.78 84.57-9.93 20.75-23.33 38.71-40.07 54.28-1.35 1.26-3.94 1.2-5.95 1.75.04-1.86-.57-4.08.22-5.53 7.2-13.17 15.16-25.95 21.91-39.35 9.23-18.29 15.21-37.72 17.78-58.14 1.22-9.72 2.63-19.41 4.13-30.46-10.13 6.53-19.38 12.62-28.79 18.44-1.51.94-3.97 1.44-5.6.92-7.7-2.43-15.09-5.73-20.34-12.15-1.47-1.8-2.22-4.69-2.13-7.03.04-.99 3.05-2.53 4.8-2.68 10.68-.9 20.75-3.99 30.59-7.96 7.41-2.99 14.77-6.1 22.31-9.22 0-17.37.18-34.53-.09-51.67-.11-6.83-2.88-7.99-12.04-6.1-6.21 1.28-12.37 2.92-18.64 3.7-4.47.56-13.64-5.32-16.21-13.12-1.75-5.3.55-8.26 6.08-7.64.79.09 1.57.43 2.33.71 10.02 3.74 20.05.58 30.05-.13 1.27-.09 3.07-2.08 3.48-3.52 4.04-14.07 8.26-28.1 11.54-42.35 2.19-9.49 3.57-19.25-3.38-28.05-1.83-2.31-5.23-5.66-1.97-9.15 2.91-3.12 6.75-2.11 10.34-.75 8.37 3.16 16.7 6.21 22.61 13.64 2.73 3.43 2.37 6.68.99 10.06-6.04 14.77-12.25 29.48-18.39 44.22-1.61 3.86-3.18 7.74-5.14 12.53 11.26-4.06 21.66-5.41 31.39 1.66z" fill="#010103"/><g fill="#fcfafa"><path d="m37.59 393.81c-.92.31-1.52.05-2-.78-.7-1.2-1.52-2.34-2.47-3.78v4.59c-.55.03-.95.05-1.41.07-.03-.37-.06-.64-.06-.91 0-1.91 0-3.81 0-5.7 1.13-.41 1.77-.03 2.29.91.62 1.11 1.38 2.14 2.31 3.19v-4.2h1.35v6.61z"/><path d="m12.94 393.88v-6.75c1.9.19 3.93-.54 5.37 1.29.8 1.01.78 2.88.03 3.97-1.37 1.97-3.4 1.51-5.4 1.49m1.45-1.22c2.04.12 2.92-.58 2.89-2.21-.03-1.51-.98-2.19-2.89-2z"/><path d="m11.81 393.87h-5.49c.68-2.18 2.47-3.48 3.51-5.45h-3.08v-1.21h5.29c-.71 2.13-2.44 3.48-3.47 5.51.86 0 1.63.04 2.39-.01.79-.05 1.14.21.85 1.16"/><path d="m39.33 393.86v-6.61h3.7v1.07h-2.22v1.52c.68.04 1.34.09 2.07.13v1.07c-.72.05-1.38.09-2.1.14v1.48h2.4v1.19h-3.84z"/><path d="m27.71 388.56c-1.15-.3-2.46-.61-3.1.64-.37.73-.41 1.93-.06 2.67.63 1.35 1.99.93 3.17.68.35.94-.01 1.32-.93 1.46-1.62.25-3.05-.27-3.76-1.48-.73-1.24-.6-3.03.31-4.17.88-1.11 2.71-1.7 4-1.16.32.13.44.74.65 1.12-.1.08-.19.16-.28.24"/><path d="m49.15 387.24v1.07c-.59.02-1.17.05-1.87.08v5.44h-1.48v-5.44h-1.85c-.05-.4-.08-.73-.13-1.15z"/><path d="m20.06 387.21h1.33v6.62h-1.33z"/><path d="m30.68 393.25c-.49.38-.8.79-1.05.76-.32-.05-.6-.45-.9-.7.26-.24.51-.64.8-.67.29-.04.62.3 1.15.61"/></g></svg>