<svg enable-background="new 0 0 400 400" viewBox="0 0 400 400" xmlns="http://www.w3.org/2000/svg"><path d="m6.44 374.46.42-.45c.65.47 1.27.95 1.85 1.44l-.45.49c-.65-.56-1.25-1.06-1.82-1.48m.93 7.33-.63-.26c.55-1.36 1.05-2.8 1.52-4.33.19.1.38.19.59.27-.46 1.29-.95 2.73-1.48 4.32m-.38-10.38.44-.42c.43.34 1.01.82 1.74 1.44l-.49.49c-.53-.51-1.09-1.01-1.69-1.51m2.5.35h1.72v-1.04h.59v1.04h3.52v-1.04h.59v1.04h1.75v.53h-1.75v1.42h-2.03v.97h3.22v2.03h-3.24c0 .35-.01.66-.03.93h3.32v.53h-3.37c-.03.27-.08.58-.15.94h3.96v.53h-3.71c.67.92 1.93 1.48 3.79 1.68-.13.24-.23.44-.29.59-2.13-.38-3.48-1.08-4.04-2.12-.43.97-1.77 1.72-4.03 2.23-.09-.19-.2-.37-.33-.55 2.1-.42 3.37-1.03 3.81-1.83h-3.36v-.53h3.58c.08-.29.13-.61.16-.94h-3.33v-.53h3.39c.02-.27.04-.58.04-.93h-3.23v-2.03h3.25v-.97h-2.07v-1.42h-1.73zm1.12 3.44v1h2.65c.01-.3.02-.44.01-.4v-.25-.35zm1.19-2h3.52v-.91h-3.52zm4.71 3h-2.63v.59c0 .15-.01.28-.01.4h2.64v-1.99z" fill="#fbfcfa"/><path d="m13.56 383.74h.63v1.52h2.72v6.07h1.13v.6h-11.06v-.6h1.13v-6.07h2.73v-1.52h.63v1.52h2.1v-1.52zm-2.69 8.83.38.56c-1.24.63-2.53 1.25-3.85 1.85-.1-.21-.21-.42-.34-.63 1.36-.55 2.63-1.15 3.81-1.78m-2.13-4.27h2.1v-2.45h-2.1zm0 3.04h2.1v-2.46h-2.1zm2.72-3.04h2.1v-2.45h-2.1zm0 3.04h2.1v-2.46h-2.1zm6.07 3.6c-1.41-.71-2.7-1.3-3.86-1.78l.35-.56c1.45.62 2.75 1.19 3.88 1.72zm-1.25-9.09h-2.1v2.45h2.1zm-2.09 5.49h2.1v-2.46h-2.1z" fill="#fbfcfa"/><g fill="#010101"><path d="m108.62 177.19v159.79c5.49 0 10.43.23 15.33-.05 8.38-.48 16.73-1.49 25.11-1.88 11.42-.54 22.87-.62 34.29-1.08 13.71-.56 27.41-1.25 41.1-2 10.54-.57 21.11-.92 31.6-2.06 18.39-2 36.68-4.97 55.09-6.69 10.95-1.02 21.38 1.94 30.33 8.8 3.33 2.55 6.14 6.57 4.03 10.14-1.68 2.84-6.23 4.06-9.63 5.76-.93.47-2.3.08-3.46.08-21.5 0-42.99-.13-64.49.04-16.93.13-33.87.47-50.79 1.01-13.38.42-26.74 1.26-40.1 1.96-11.87.63-23.84.57-35.58 2.2-12.7 1.76-25.46 4.2-37.67 8.02-12.15 3.81-14.35-1.07-18.88-9.79-4.04-7.77-.95-14.67 1.17-21.9 1-3.4 1.83-7.01 1.84-10.52.13-39.49.45-78.99-.15-118.47-.18-11.65-2.95-23.29-4.88-34.88-.4-2.42-2.01-4.86-3.65-6.78-1.91-2.22-2.34-4.79-.72-6.5 1.51-1.59 4.65-3.08 6.54-2.58 7.5 1.98 14.74 4.9 22.17 7.15 2.77.84 5.8.79 8.72 1.11.65.07 1.33-.05 1.99-.07 12.1-.34 24.21-.5 36.3-1.04 19.47-.86 38.94-1.85 58.4-3.01 12.98-.78 26-1.44 38.89-3.09 14.87-1.91 29.58-5.08 44.42-7.25 9.64-1.41 19.31-1.64 27.82 4.61 3.2 2.35 5.76 5.44 4.82 9.29-1.1 4.5-5.19 6.8-9.59 7.4-7.15.98-14.36 1.64-21.56 2.03-10.09.55-20.2.72-30.3 1.06-20.2.67-40.4 1.24-60.6 2.04-11.21.45-22.41 1.23-33.6 1.97-14.14.94-28.28 1.92-42.4 3.02-7.01.55-14.01 1.38-21.91 2.16z"/><path d="m207.99 257.53c-11.28 1.18-22.21 2.27-33.12 3.5-5.52.62-10.99 1.86-16.52 2.16-3.73.2-8 .22-11.2-1.36-7.61-3.77-13.42-9.77-17.1-17.69 1.46-4.06 4.95-3.45 7.91-2.99 7.07 1.1 14.04 2.97 21.13 3.82 5.11.61 10.38.31 15.55-.02 10.86-.68 21.7-1.65 33.1-2.54.72-9.21.54-18.68-3.02-27.96-9.66.87-18.99 1.62-28.28 2.59-8.31.86-16.57 2.16-24.89 2.85-2.26.19-4.91-.65-6.92-1.81-8.1-4.66-15.88-9.8-21.67-19.66 3.62-.58 6.47-1.79 9.02-1.33 14.29 2.54 28.55 4.99 43.15 3.92 17.57-1.29 35.13-2.67 52.7-3.97 9.86-.73 19.79-.88 29.57-2.18 7.53-1 14.86-3.48 22.32-5.15 8.89-1.99 16.94.54 24.01 5.71 4.75 3.47 2.44 11.19-3.91 13.49-3.02 1.09-6.3 1.88-9.5 2.02-12.09.54-24.19.71-36.29 1.1-8.6.27-17.2.62-25.79 1.03-1.26.06-2.49.66-4.5 1.22 9.49 7.6 1.98 17.62 5.17 27.52 8.48-1.38 17.4-2.27 26.02-4.39 11.28-2.76 22.43-4.72 34.02-2.43 5.19 1.03 9.81 5.16 10.31 9.7.44 3.95-2.94 8.1-6.93 8.31-13.52.7-27.05 1.32-40.58 2.03-8.06.43-16.12.98-25.02 1.52.45 9.24.91 18.57 1.4 28.59 7.64-.4 15.05-.32 22.34-1.26 12.62-1.63 25.28-3.38 37.71-6.06 7.64-1.65 14.76-2.03 21.89 1.19 2.5 1.13 5.01 2.36 7.24 3.93 3.09 2.18 5.2 5.98 3.33 8.98-1.75 2.8-5.66 5.37-8.94 5.85-7.65 1.12-15.49.93-23.26 1.25-16.03.67-32.06 1.28-48.09 2.03-12.2.57-24.41 1.1-36.59 2.03-14.42 1.09-28.81 2.54-43.2 3.93-5.53.53-11.02 1.76-16.54 1.83-2.88.03-6.23-1.16-8.59-2.87-5.7-4.13-11.08-8.73-16.25-13.52-1.12-1.04-1.69-4.22-.93-5.34.92-1.35 3.85-2.57 5.34-2.1 15.77 5.04 31.99 4.23 48.12 3.92 10.71-.2 21.4-1.23 32.1-1.94 2.21-.15 4.24-.56 4.21-3.6-.07-8.65-.03-17.29-.03-25.85z"/><path d="m265 101.23c-8.69 0-18.6-.1-28.51.12-1.31.03-2.84 1.46-3.84 2.61-11.57 13.15-24.73 24.44-39.42 33.96-2.76 1.79-5.31 1.6-7.15-1.69 8.67-11.92 17.64-23.74 26.01-35.96 5.7-8.33 10.6-17.21 15.8-25.87 1.76-2.94 3.38-5.96 4.98-8.99 3.96-7.53 5.8-15.17 2.63-23.65-1.87-4.99 1.16-8.08 6.4-6.68 9.12 2.44 17.36 6.6 23.1 14.49 2.61 3.59 1.88 7.16-.63 10.61-5.19 7.12-10.33 14.28-15.45 21.46-.63.88-.97 1.96-1.87 3.85 15.24-.83 29.78-1.01 44.17-2.62 11.1-1.24 21.97-4.47 33.01-6.46 9.15-1.65 18.03.13 26.35 3.96 4.86 2.24 7.32 7.6 6.37 11.63-.87 3.7-5.96 6.91-11.31 6.99-5.66.08-11.33-.09-16.99.04-11.93.27-23.85.64-35.78 1.01-.76.02-1.5.42-2.16.62 1.5 3.12 3.36 5.91 4.18 8.97 1.14 4.26-1.67 7.25-4.72 9.67-10.64 8.43-21.25 16.92-32.16 25.01-3.21 2.38-7.09 4.93-12.25 1.87 2.75-4.21 5.57-8.45 8.33-12.74 4.23-6.57 8.47-13.15 12.63-19.78 2.32-3.74 3.51-7.55-1.72-12.43z"/><path d="m118.97 89.83c12.52-1.54 25.08-2.85 37.56-4.69 9.02-1.33 17.9-3.51 26.89-5.07 9.27-1.6 21.81 5.08 23.78 12.44.77 2.9.42 5.5-2.8 6.65-3.03 1.09-6.13 2.54-9.26 2.72-11.41.63-22.86.61-34.28 1.18-7.38.37-14.72 1.31-22.07 2.07-.51.05-.96.73-.87.66 4.97 5.51 10.17 10.64 14.58 16.37 2.96 3.84 3.99 8.96 1.46 13.36-1.7 2.97-4.63 6.14-7.7 7.18-4.11 1.39-8.81-.09-11.08-4.37-3.35-6.3-6.02-12.97-9.17-19.38-1.71-3.48-3.8-6.77-5.74-10.14-.16-.28-.43-.51-.68-.72-2.47-2.14-16.14-2.34-18.8-.39-9.85 7.26-19.34 15.14-29.76 21.47-6.93 4.22-15.2 6.27-22.93 9.12-.77.28-2.51-.42-2.89-1.15-.41-.8-.17-2.59.48-3.18 4.39-3.97 9.2-7.48 13.42-11.61 9.43-9.25 18.95-18.46 27.75-28.29 6.52-7.28 12.3-15.29 17.78-23.41 2.95-4.37 5.36-9.46 6.51-14.56.86-3.82-.83-8.16-1.12-12.29-.14-1.92-.25-4.31.74-5.69.76-1.06 3.48-1.56 4.96-1.11 11.3 3.46 19.42 11.03 23.87 21.68 2.18 5.22-2.7 9.45-6.04 13.17-4.94 5.5-10.27 10.65-15.43 15.95.26.68.55 1.36.84 2.03z"/></g></svg>