<svg enable-background="new 0 0 400 400" viewBox="0 0 400 400" xmlns="http://www.w3.org/2000/svg"><path d="m253.75 139.1c7.68-.79 14.37-1.32 21.02-2.2 8.75-1.16 17.45-2.61 26.18-3.89 11.64-1.7 23.46-2.64 34.89-5.26 8.81-2.02 13.55 3.01 19.27 7.51 7.99 6.27 7.37 13.75 5.2 22.58-2.09 8.52-2.76 17.48-3.22 26.29-.99 18.85-1.41 37.72-2.12 56.58-.25 6.77-.69 13.53-.97 20.3-.69 16.53-1.06 33.08-2.16 49.58-.41 6.09-1.83 12.35-4.13 17.98-1.37 3.35-4.96 7.15-8.26 8.01-4.54 1.18-7.19-3.44-8.22-7.44-.9-3.5-2.51-4.42-5.8-4.19-15.79 1.08-31.61 1.78-47.38 3.11-10.42.88-20.75 2.83-31.16 3.8-4.37.41-6.45 2.39-6.8 6.36-.43 4.81-2.46 8.35-7.5 8.62-4.72.25-8.1-2.45-9.56-6.98-.94-2.91-1.92-5.97-1.94-8.98-.15-24.99.03-49.98-.13-74.97-.1-15.26-.11-30.56-1.1-45.78-1.04-16.02-2.72-32.04-5.12-47.91-.8-5.3-4.79-10.09-7.1-15.22-.92-2.04-2.36-5.58-1.58-6.31 1.79-1.68 4.92-3.01 7.31-2.74 3.94.44 7.88 1.91 11.55 3.56 6.95 3.12 13.22 1.2 16.6-5.58 9.79-19.61 16.88-40.23 22.06-61.46 1.44-5.88 3.54-12.63-3.07-17.63-2.03-1.53-4.92-3.18-2.57-6.86 2.18-3.42 5.27-4.73 8.85-3.87 6.16 1.48 12.23 3.39 18.22 5.44 2.88.99 5.55 2.64 8.25 4.12 6.47 3.56 7.88 9.67 3.83 15.92-11.7 18.06-23.38 36.13-35.04 54.21-2.64 4.13-5.17 8.29-8.3 13.3zm75.91 165.31c.46-2.92 1.21-5.66 1.29-8.43.44-14.93.66-29.87 1.08-44.8.15-5.44.85-10.87.81-16.3-.01-1.3-1.92-3.6-3.1-3.7-4.8-.41-9.68-.48-14.48-.07-12.92 1.12-25.81 2.51-38.71 3.9-8.97.96-17.99 1.68-26.85 3.26-8.96 1.6-9.7 3.07-9.7 12.46 0 .5-.01 1 0 1.5.33 13.77.69 27.53.98 41.3.09 4.16-.13 8.34.07 12.5.13 2.67.76 5.31 1.09 7.48 29.6-3.07 58.45-6.07 87.52-9.1zm-90.66-145.25c0 3.14-.04 5.79.01 8.43.32 16.41.67 32.82.99 49.24.08 4.13 1.02 5.74 5.98 4.47 6.29-1.6 12.98-1.62 19.51-2.3 9.78-1.03 19.57-2 29.35-3.07 11.55-1.27 23.08-2.83 34.66-3.8 3.66-.31 4.45-1.96 4.51-4.92.34-17.91.6-35.82 1.06-53.73.09-3.58-1.31-4.79-4.7-4.5-12.44 1.07-24.91 1.89-37.34 3.15-10.24 1.04-20.44 2.54-30.65 3.88-7.74 1.01-15.45 2.08-23.38 3.15z" fill="#010103"/><path d="m209.45 172.47c-3.24 2.53-6.43 5.13-9.76 7.54-1.44 1.05-3.14 1.77-4.77 2.52-5.54 2.55-8.62 6.03-8.11 12.95.74 9.94.08 19.98.21 29.98.25 19.1.61 38.2.99 57.29.27 13.77 1.23 27.55.79 41.29-.29 9.24-2.02 18.52-3.97 27.59-1.7 7.91-12.32 10.42-18 4.65-8.86-9.01-17.34-18.43-28.21-25.18-2.08-1.29-4.21-2.53-6.15-4.01-.84-.64-1.25-1.85-2.57-3.91 8.9 1.03 16.48 1.93 24.06 2.79 10.68 1.22 14.01-1.76 14.03-12.59.02-18 .14-35.99-.03-53.99-.18-19.77-.6-39.53-1.02-59.29-.04-1.7-.77-3.39-1.26-5.43-13.8 4.86-27.12 9.57-40.45 14.25-4.91 1.72-9.85 3.38-14.78 5.06-7.85 2.69-10.08 5.89-10.51 13.63-.85 15.47-1.24 31.03-3.14 46.38-2.58 20.74-6.69 41.34-16.96 59.86-5.27 9.51-12.03 18.23-18.49 27.03-1.36 1.85-4.34 2.5-7.51 2.96 21.25-43.76 25.13-90.24 26.16-138.01-5.47 2.22-10.53 4.21-15.54 6.33-8.05 3.4-11.19 2.89-15.43-4.67-3.55-6.32-6.55-13.13-8.5-20.08-.73-2.61 2.18-6.24 3.43-9.41 2.67 1.29 6.01 1.98 7.84 4.03 2.27 2.55 4.18 4.3 7.78 4.03 3.81-.29 7.67-.25 11.49-.02 7.6.45 9.83-3.06 9.83-10.78 0-11.59-.29-23.2-.99-34.78-.61-10.15-1.44-20.35-3.2-30.34-.8-4.58-3.7-8.95-6.31-12.99-1.81-2.8-5.21-5.78-2.79-8.57 2.81-3.25 7.51-3.63 11.86-1.73 2.69 1.18 5.56 2.01 8.13 3.4 7.54 4.07 18.56.91 21.53-9.06 3.29-11.05 7.42-21.85 11.08-32.8 1.64-4.91 1.28-9.5-2.1-13.86-3.29-4.26-1.23-8.66 4.22-8.39 11.94.58 21.52 6.58 29.22 15.28 2.58 2.92 1.23 6.83-1.92 9.45-11.43 9.52-18.19 22.61-27.32 35.34 8.58-1.71 16.14-3.22 23.71-4.71 7.67-1.51 15.33-3.09 23.03-4.46 6.5-1.16 10.92 3.12 15.12 6.84 5.82 5.16 6.77 11.62 5.07 19.44-1.77 8.12-1.77 16.65-2.17 25.02-.32 6.65-.11 13.33-.05 19.99.05 5.69.94 6.21 6.46 4.96 4.97-1.12 10.03-1.88 15.05-2.8.3.66.61 1.32.92 1.98zm-109.45 27.35c5.89-1.61 9.96-2.67 14.01-3.83 16.25-4.66 32.51-9.29 48.7-14.12 1.32-.39 3.13-2.22 3.15-3.4.2-18.98.22-37.97-.02-56.95-.02-1.51-2.04-3.88-3.55-4.29-2.45-.66-5.31-.38-7.88.13-14.05 2.79-28.08 5.69-42.07 8.74-4.26.93-9.33 1.44-12.23 4.09-1.79 1.63-.18 6.98-.1 10.66.01.67 0 1.33 0 2-.01 18.55-.01 37.11-.01 56.97z" fill="#010103"/><path d="m120.66 213.13c6.25 2.05 11.35 3.6 16.35 5.4 5.94 2.15 8.75 6.09 8.12 12.84-.61 6.46-.13 13.03-.13 19.55 0 8.48.13 16.97-.04 25.45-.1 5.26-.19 10.6-1.15 15.75-.71 3.8-3.57 6.92-7.86 6.69-5.01-.26-7.49-4.14-8.84-8.44-.82-2.6-1-5.46-1.07-8.22-.41-17.07-.54-34.15-1.17-51.2-.14-3.79-1.95-7.5-2.91-11.27-.46-1.77-.72-3.59-1.3-6.55z" fill="#010103"/><path d="m112.45 134.07c15.27 1.4 26.05 8.46 33.85 19.95 3.2 4.71 5.28 10.46 2.56 16.17-1.26 2.65-3.71 5.41-6.31 6.58-3.54 1.59-5.75-1.96-7.42-4.46-6.79-10.17-13.38-20.46-19.87-30.83-1.27-2.04-1.76-4.57-2.81-7.41z" fill="#010103"/><g fill="#fcfafa"><path d="m37.59 393.81c-.92.31-1.52.05-2-.78-.7-1.2-1.52-2.34-2.47-3.78v4.59c-.55.03-.95.05-1.41.07-.03-.37-.06-.64-.06-.91 0-1.91 0-3.81 0-5.7 1.13-.41 1.77-.03 2.29.91.62 1.11 1.38 2.14 2.31 3.19v-4.2h1.35v6.61z"/><path d="m12.94 393.88v-6.75c1.9.19 3.93-.54 5.37 1.29.8 1.01.78 2.88.03 3.97-1.37 1.97-3.4 1.51-5.4 1.49m1.45-1.22c2.04.12 2.92-.58 2.89-2.21-.03-1.51-.98-2.19-2.89-2z"/><path d="m11.81 393.87h-5.49c.68-2.18 2.47-3.48 3.51-5.45h-3.08v-1.21h5.29c-.71 2.13-2.44 3.48-3.47 5.51.86 0 1.63.04 2.39-.01.79-.05 1.14.21.85 1.16"/><path d="m39.33 393.86v-6.61h3.7v1.07h-2.22v1.52c.68.04 1.34.09 2.07.13v1.07c-.72.05-1.38.09-2.1.14v1.48h2.4v1.19h-3.84z"/><path d="m27.71 388.56c-1.15-.3-2.46-.61-3.1.64-.37.73-.41 1.93-.06 2.67.63 1.35 1.99.93 3.17.68.35.94-.01 1.32-.93 1.46-1.62.25-3.05-.27-3.76-1.48-.73-1.24-.6-3.03.31-4.17.88-1.11 2.71-1.7 4-1.16.32.13.44.74.65 1.12-.1.08-.19.16-.28.24"/><path d="m49.15 387.24v1.07c-.59.02-1.17.05-1.87.08v5.44h-1.48v-5.44h-1.85c-.05-.4-.08-.73-.13-1.15z"/><path d="m20.06 387.21h1.33v6.62h-1.33z"/><path d="m30.68 393.25c-.49.38-.8.79-1.05.76-.32-.05-.6-.45-.9-.7.26-.24.51-.64.8-.67.29-.04.62.3 1.15.61"/></g></svg>