<svg enable-background="new 0 0 400 400" viewBox="0 0 400 400" xmlns="http://www.w3.org/2000/svg"><path d="m145.31 221.85c-7.47 5.45-15.22 3.68-19.18-2.89-4.67-7.77-5.64-16.21-7.12-24.67-2.55-14.58-3.14-29.64-9.14-43.4-2.23-5.11-6.19-9.49-9.58-14.04-3.45-4.63-2.99-5.7 2.42-7.95 5.21-2.16 9.78-.24 14.17 1.64 7.83 3.35 15.41 5.22 24.22 3.71 10.02-1.72 20.38-1.35 30.55-2.32 10.76-1.02 21.46-2.62 32.2-3.82 7.35-.83 14.75-1.24 22.09-2.14 17.54-2.15 35.19-3.81 52.54-7.01 9.77-1.8 16.45 1.79 22.75 7.86 3.8 3.66 7.31 7.65 10.7 11.7 4.25 5.08 4.64 7.81.14 12.78-5.65 6.24-7.55 13.91-9.95 21.45-2.85 8.98-4.87 18.28-8.39 26.98-2.01 4.97-5.94 9.34-9.64 13.41-2.81 3.09-9.2 2.87-11.6-.36-3.49-4.72-8.07-5.16-13.09-4.74-6.54.54-13.06 1.48-19.61 1.91-12.36.81-24.75 1.12-37.09 2.12-12.65 1.03-25.25 2.63-38.05 4 3.07 4.24 10.09 6.1 8.04 12.1-1.5 4.38-5.68 7.84-8.62 11.64 9.09-.79 18.64-1.61 28.19-2.45 5.08-.44 10.15-1 15.24-1.34 10.86-.73 21.74-1.26 32.6-2.05 17.24-1.25 34.49-2.41 51.69-4.1 6.61-.65 13.04-2.97 19.63-3.9 2.94-.42 7.04-.37 9 1.33 7.12 6.2 13.69 13.06 20.14 19.98 1.1 1.18 1.48 4.29.72 5.75-8.29 16.02-9.95 33.99-15.29 50.86-5.99 18.95-11.19 38.27-22.17 55.14-3.51 5.39-8.18 10.23-13.08 14.43-4.43 3.8-9.61 2.46-12.75-2.73-6.35-10.49-17.28-13.99-27.46-18.71-3.69-1.71-7.48-3.2-11.04-5.14-1.07-.58-1.51-2.33-2.24-3.55 1.41-.77 2.85-2.25 4.23-2.2 4.9.21 9.77 1.17 14.68 1.41 7.32.36 14.75 1.18 21.95.29 8.31-1.03 13.32-7.58 16.66-14.59 9.11-19.12 12.43-39.99 17.1-60.42 1.05-4.6 1.44-9.36 2.06-14.05.6-4.6-2.26-7.89-7.25-7.71-14.21.51-28.4 1.26-42.6 1.94-6.77.32-13.55.49-20.3 1.05-14.41 1.2-28.8 2.65-43.21 3.9-9.02.78-18.11 1.03-27.08 2.16-10.32 1.3-20.59 3.13-30.8 5.16-2.16.43-3.95 2.68-6.45 4.48 5.91 6.02 13.78 10.86 7.89 21.46 4.08-.52 7.01-.57 9.76-1.3 20.74-5.54 41.44-11.18 62.14-16.88 2.81-.77 5.55-1.88 8.21-3.1 5.35-2.46 5.62-3.48 2.6-8.33-.43-.7-.97-1.33-1.51-2.06 8.89-6.12 15.41-.43 21.95 4.38 2.58 1.9 5 4.22 6.91 6.79 4.03 5.39 3.02 10.35-3.33 12.73-9.1 3.4-18.44 6.51-27.94 8.43-17.58 3.56-35.34 6.29-53.06 9.12-8.73 1.39-17.54 2.25-26.32 3.34 2.01 15.34 10.9 19.69 24.79 20.45 18.11.99 36.31.41 54.47.13 5.02-.08 10.03-1.37 15.01-2.28 10.34-1.88 13.73-9.97 16.12-18.66 1.67-6.1 2.8-12.35 4.23-18.75 3.89-.58 5.58.83 5.88 4.68.46 5.88.84 11.82 2.14 17.54.8 3.53 2.68 7.17 5.04 9.94 8.65 10.15 2.1 19.4-9.55 22.42-7.7 1.99-15.83 2.89-23.8 3.09-18.15.44-36.32.31-54.48.08-14.11-.18-28.02-1.61-41.44-6.78-9.99-3.85-15.93-13.12-16.98-22.63-.9-8.12-1.89-16.24-3.05-24.33-.23-1.57-1.47-2.98-1.81-3.64-17.46 10.57-34.27 20.87-51.22 30.92-2.87 1.7-6.32 2.53-9.59 3.42-.95.26-2.94-.44-3.18-1.13-.38-1.12-.17-3.12.62-3.82 3.54-3.15 7.42-5.93 11.1-8.92 8.52-6.93 17.25-13.65 25.44-20.96 7-6.25 13.61-12.98 19.95-19.91 10.13-11.06 19.91-22.43 29.75-33.74 1.1-1.29 1.57-3.07 2.33-4.6zm-11.69-69.87c1.03 5.53 1.7 10.22 2.89 14.78.25.97 2.42 2.12 3.64 2.04 6.2-.39 12.38-1.18 18.57-1.79 7.52-.74 15.05-1.35 22.56-2.17 11.24-1.21 22.45-2.62 33.69-3.82 7.68-.82 15.39-1.31 23.07-2.13 11.4-1.21 22.79-2.52 34.17-3.92 13.26-1.62 11.58.42 11.85-12.29.08-3.58-1.57-4.79-4.68-4.66-7.1.28-14.21.44-21.28 1.1-12.08 1.11-24.11 2.62-36.18 3.86-7.68.79-15.39 1.32-23.07 2.12-11.73 1.23-23.45 2.63-35.18 3.88-9.75 1.04-19.51 1.96-30.05 3zm5.83 33.38c.9 4.7 2.23 8.97 2.39 13.28.15 4.2 2.22 4.73 5.42 4.32 10.23-1.29 20.43-2.88 30.69-3.9 15.55-1.55 31.12-2.8 46.7-4.04 13.96-1.11 27.95-1.81 41.88-3.19 3.28-.32 8.08.66 9.3-4.49 1.16-4.9 2.15-9.83 3.34-15.35-1.98 0-3.6-.11-5.21.02-11.97.96-23.95 1.82-35.89 3.01-15.01 1.5-29.99 3.37-44.99 4.94-17.48 1.84-34.96 3.53-53.63 5.4z" fill="#010103"/><path d="m142.13 85.72c-.73-10.74-1.03-21.16-9.79-29.05-1.59-1.44-3.37-5.51-2.94-5.87 2.33-1.98 5.94-5.02 7.98-4.33 7.28 2.44 14.51 5.63 20.92 9.82 2.65 1.73 3.85 6.58 4.54 10.24 1.02 5.47 1.01 11.14 1.49 17.37 4.91-.33 9.91-.55 14.89-1.04 8.81-.87 17.6-2.02 26.41-2.83 12.29-1.13 24.6-2.02 36.89-3.11 1.4-.12 3.71-.64 3.95-1.46 1.27-4.35 1.77-8.93 3-13.3 1.51-5.38-.52-8.77-5.02-11.49-1.16-.7-2.48-3.54-2.21-3.8 2.28-2.16 4.72-5.17 7.49-5.63 8.37-1.39 14.75 3.66 20.54 8.7 8.49 7.38 8.54 9.8 2.42 19.74-.92 1.49-1.88 2.96-2.76 4.33 5.45 0 10.61.23 15.74-.05 8.88-.49 17.85-.65 26.57-2.15 8.1-1.39 15.63-.7 23.11 2.21 1.97.77 3.87 1.72 5.79 2.6 4.68 2.16 6.67 5.95 5.75 10.86-.91 4.87-5.21 6.46-9.22 6.38-14.38-.29-28.73-1.28-43.11-1.76-7.99-.27-16.01-.31-23.99.04-4.2.18-6.93 2.93-8.62 6.97-2.38 5.69-4.94 11.36-8.1 16.63-1.16 1.93-4.43 3.95-6.46 3.7-3.38-.42-5.52-3.42-5.38-7.23.22-5.89.57-11.78.91-18.41-25.81 2.31-51.22 4.58-76.79 6.87-.75 6.66-1.02 12.57-2.26 18.26-.49 2.25-3.27 5.71-4.84 5.62-2.41-.13-5.61-2.35-6.83-4.58-2.69-4.92-4.35-10.41-6.73-16.44-7.56 1.22-16.01 2.44-24.41 3.98-8.48 1.56-16.84 4.29-25.37 4.82-4.06.25-8.78-2.84-12.48-5.43-6.06-4.25-11.49-9.36-13.73-16.88-1.47-4.94-.28-6.16 4.76-5.07 7.93 1.72 15.82 3.83 23.84 4.81 5.14.63 10.5-.39 15.75-.84 6.21-.54 12.41-1.24 18.6-1.92 3.09-.35 6.14-.81 9.7-1.28z" fill="#010103"/><g fill="#fcfafa"><path d="m37.59 393.81c-.92.31-1.52.05-2-.78-.7-1.2-1.52-2.34-2.47-3.78v4.59c-.55.03-.95.05-1.41.07-.03-.37-.06-.64-.06-.91 0-1.91 0-3.81 0-5.7 1.13-.41 1.77-.03 2.29.91.62 1.11 1.38 2.14 2.31 3.19v-4.2h1.35v6.61z"/><path d="m12.94 393.88v-6.75c1.9.19 3.93-.54 5.37 1.29.8 1.01.78 2.88.03 3.97-1.37 1.97-3.4 1.51-5.4 1.49m1.45-1.22c2.04.12 2.92-.58 2.89-2.21-.03-1.51-.98-2.19-2.89-2z"/><path d="m11.81 393.87h-5.49c.68-2.18 2.47-3.48 3.51-5.45h-3.08v-1.21h5.29c-.71 2.13-2.44 3.48-3.47 5.51.86 0 1.63.04 2.39-.01.79-.05 1.14.21.85 1.16"/><path d="m39.33 393.86v-6.61h3.7v1.07h-2.22v1.52c.68.04 1.34.09 2.07.13v1.07c-.72.05-1.38.09-2.1.14v1.48h2.4v1.19h-3.84z"/><path d="m27.71 388.56c-1.15-.3-2.46-.61-3.1.64-.37.73-.41 1.93-.06 2.67.63 1.35 1.99.93 3.17.68.35.94-.01 1.32-.93 1.46-1.62.25-3.05-.27-3.76-1.48-.73-1.24-.6-3.03.31-4.17.88-1.11 2.71-1.7 4-1.16.32.13.44.74.65 1.12-.1.08-.19.16-.28.24"/><path d="m49.15 387.24v1.07c-.59.02-1.17.05-1.87.08v5.44h-1.48v-5.44h-1.85c-.05-.4-.08-.73-.13-1.15z"/><path d="m20.06 387.21h1.33v6.62h-1.33z"/><path d="m30.68 393.25c-.49.38-.8.79-1.05.76-.32-.05-.6-.45-.9-.7.26-.24.51-.64.8-.67.29-.04.62.3 1.15.61"/></g></svg>