<svg enable-background="new 0 0 400 400" viewBox="0 0 400 400" xmlns="http://www.w3.org/2000/svg"><path d="m99.57 195.62c-14.79 8.26-28.4 16-42.15 23.48-6.82 3.71-10.16 2.45-13.61-4.69-2.41-4.99-4.62-10.07-6.83-15.16-2.27-5.24-.69-9.53 3.8-13.5 2.4 1.59 5.05 2.9 7.15 4.82 5.86 5.36 12.31 4.91 19.26 2.84 13.35-3.97 25.04-11.01 36.07-19.26 3.61-2.7 7.19-2.83 11.07-1.05 4.57 2.1 9.37 3.85 13.63 6.46 7.55 4.63 7.98 9.16 1.75 15.17-10.46 10.1-20.35 20.61-27.58 33.43-2.27 4.02-2.31 7.01 1.28 9.69 6.4 4.8 12.98 9.36 19.42 14.12 3.18 2.35 6.9 4.18 7.23 9.07.43 6.34-3.34 9.8-8.11 12.42-13.29 7.3-26.69 14.38-40.04 21.56-.54.29-.98.74-1.4 1.07 26.37 4.19 52.63 8.36 76.63 12.18-5.82-3.55-5.87-11.2-5.28-19.34.68-9.41.95-18.86 1.1-28.3.43-26.43 1.2-52.88.81-79.3-.18-12.12-.35-24.65-6.77-35.86-.97-1.69-1.11-4.86-.13-6.36.76-1.16 4.1-1.5 5.9-.93 5.41 1.71 11.54 2.92 15.7 6.36 7.29 6.04 15.28 4.36 23.16 4.29 6.38-.06 12.74-1.25 19.11-1.81 4.24-.37 8.5-.52 13.55-.82-.44-9.55-.86-18.57-1.3-28.08-5.19.33-10.06.51-14.89.97-9.14.88-18.28 1.88-27.4 2.93-4.55.52-9.06 1.34-13.6 1.88-7.61.9-13.56-3.35-19.46-7.01-3.22-2-5.78-5.24-8.2-8.26-.88-1.1-1.24-3.91-.51-4.69 1.12-1.19 3.44-1.9 5.17-1.76 9.47.76 18.95 2.88 28.37 2.59 15.93-.49 31.81-2.39 47.7-3.91 1.03-.1 2.74-2.09 2.7-3.15-.44-11.86 2.3-24.04-2.05-35.47-2.11-5.53-6.3-10.27-9.81-15.77 2.24-3.21 5.92-5.41 11.35-3.48 5.34 1.9 11.13 2.84 16.11 5.39 8.84 4.53 10.26 10.13 8.52 20.98-1.47 9.22-1.67 18.63-2.55 29.32 8.43-1.08 15.89-1.66 23.2-3.07 11.5-2.22 22.82-5.49 34.37-7.37 8.87-1.45 17.38 1.24 24.31 6.95 1.86 1.54 3.15 6.4 2.09 8.25-1.62 2.86-5.29 5.84-8.45 6.3-9.59 1.39-19.37 1.41-29.04 2.32-11.59 1.09-23.14 2.55-34.71 3.85-.5.06-1 .05-1.49.1-9.7.83-9.7.83-9.7 10.62v17.4c5.48-.45 10.56-.49 15.5-1.34 11.71-2.01 23.34-4.51 35.05-6.6 5.93-1.06 10.17 2.95 14.71 5.76 1.8 1.11 3.36 2.62 5.01 3.96 5.4 4.38 7.9 9.31 5.73 16.74-1.9 6.52-2.83 13.53-2.87 20.34-.26 39 .01 78-.24 116.99-.05 7.93-.88 16.04-5.85 22.88-2.8 3.85-6.54 5.49-11.38 5.34-4.27-.13-5.28-3.43-6.07-6.16-2.71-9.27-9.96-14.2-17.26-19.15-3.37-2.29-7.13-4.03-10.35-6.5-1.13-.87-1.18-3.14-1.72-4.78 1.4-.25 2.83-.82 4.2-.7 7.36.64 14.7 1.5 22.06 2.18 3.75.35 5.67-.97 5.58-5.3-.25-12.31-.09-24.63-.09-37.91-17.35.81-34.42 1.6-52 2.42v27.6c0 8.83.56 17.72-.24 26.48-.39 4.37-2.6 9.02-5.28 12.55-1.29 1.71-6.09 2.33-8.41 1.34-4.24-1.81-5.96-6.21-6.06-10.88-.37-17.77-.68-35.53-1.02-53.3-.02-.81-.09-1.62-.16-2.92-16.94.99-33.64 1.97-49.83 2.92 0 10.97.19 21.51-.09 32.04-.11 4.36-.8 8.81-1.96 13.03-1.92 7.01-3.41 8.1-10.48 9.6 25.28 6.44 50.07 13.24 75.1 18.97 14.61 3.34 29.56 5.42 44.46 7.26 11.11 1.37 22.38 1.53 33.59 2.11 14.03.73 28.08 1.19 42.1 2.16 2.82.19 5.52 2.11 8.77 3.44-11.4 9.05-24.5 10.06-36.77 13.31-11.32 3-22.76 5.62-34.22 8.06-8.61 1.83-16.92 1.4-25.58-1.71-23.89-8.57-48.04-16.45-72.23-24.16-22.47-7.16-45.01-14.17-67.73-20.47-17.85-4.95-36.27-6.97-54.8-5.44-7.55.63-14.94 3.15-22.39 4.83-9.61 2.17-16.14-3.47-14.68-13.31 1.3-8.76 3.33-11.83 13.85-14.04 7.47-1.57 14.64-5.6 21.32-9.58 7.54-4.5 14.65-9.85 21.41-15.47 5.15-4.28 4.86-6.53 1.32-12.15-3.04-4.83-5.71-9.9-8.73-14.74-4.93-7.9.44-14.41 2.97-21.12 2.8-7.43 6.47-14.53 10.31-22.99zm145.68-4.1c17.32-1.48 34.41-2.93 51.75-4.41 0-7.03.21-13.34-.05-19.62-.3-7.3-3.9-10.56-11.3-10.45-3.43.05-6.85.67-10.27.94-9.96.79-19.93 1.54-30.12 2.32-.01 10.42-.01 20.66-.01 31.22zm.05 15.61v29.05c17.7-1 35.06-1.98 52.31-2.95 0-10.27 0-19.66 0-29.66-17.67 1.2-34.91 2.37-52.31 3.56zm-21.64-14.2c0-10.27 0-19.99 0-29.98-16.71 1.2-33.06 2.37-49.25 3.53v29.07c16.59-.88 32.74-1.74 49.25-2.62zm-49.98 46.46c16.59-.64 33.32-1.28 49.97-1.92 0-10.48 0-19.88 0-29.42-16.66.99-32.96 1.95-49.97 2.96z" fill="#010103"/><path d="m58.99 71.7c14.71 3.45 29.58 6.34 44.06 10.57 8.67 2.54 16.14 7.87 20.35 16.58 2.45 5.07 2.23 10.96-.63 13.86-3.77 3.81-8.14 4.76-13.97 1.44-8.61-4.91-17.13-10.13-25.01-16.11-8.37-6.35-15.99-13.68-23.8-20.73-1.14-1.03-1.52-2.9-2.26-4.39.42-.39.84-.81 1.26-1.22z" fill="#010103"/><path d="m262.54 43.78c7.22 1.11 14.72 1.36 21.6 3.55 8.42 2.67 16.46 6.69 24.39 10.67 5.86 2.95 9.27 8.56 10.09 14.78.4 3.02-1.62 7.05-3.81 9.52-2.39 2.7-6.32 3-9.71.69-2.16-1.47-4.26-3.03-6.27-4.69-11-9.09-22-18.17-32.91-27.37-1.81-1.53-3.15-3.61-4.7-5.44.44-.57.88-1.14 1.32-1.71z" fill="#010103"/><g fill="#fcfafa"><path d="m37.59 393.81c-.92.31-1.52.05-2-.78-.7-1.2-1.52-2.34-2.47-3.78v4.59c-.55.03-.95.05-1.41.07-.03-.37-.06-.64-.06-.91 0-1.91 0-3.81 0-5.7 1.13-.41 1.77-.03 2.29.91.62 1.11 1.38 2.14 2.31 3.19v-4.2h1.35v6.61z"/><path d="m12.94 393.88v-6.75c1.9.19 3.93-.54 5.37 1.29.8 1.01.78 2.88.03 3.97-1.37 1.97-3.4 1.51-5.4 1.49m1.45-1.22c2.04.12 2.92-.58 2.89-2.21-.03-1.51-.98-2.19-2.89-2z"/><path d="m11.81 393.87h-5.49c.68-2.18 2.47-3.48 3.51-5.45h-3.08v-1.21h5.29c-.71 2.13-2.44 3.48-3.47 5.51.86 0 1.63.04 2.39-.01.79-.05 1.14.21.85 1.16"/><path d="m39.33 393.86v-6.61h3.7v1.07h-2.22v1.52c.68.04 1.34.09 2.07.13v1.07c-.72.05-1.38.09-2.1.14v1.48h2.4v1.19h-3.84z"/><path d="m27.71 388.56c-1.15-.3-2.46-.61-3.1.64-.37.73-.41 1.93-.06 2.67.63 1.35 1.99.93 3.17.68.35.94-.01 1.32-.93 1.46-1.62.25-3.05-.27-3.76-1.48-.73-1.24-.6-3.03.31-4.17.88-1.11 2.71-1.7 4-1.16.32.13.44.74.65 1.12-.1.08-.19.16-.28.24"/><path d="m49.15 387.24v1.07c-.59.02-1.17.05-1.87.08v5.44h-1.48v-5.44h-1.85c-.05-.4-.08-.73-.13-1.15z"/><path d="m20.06 387.21h1.33v6.62h-1.33z"/><path d="m30.68 393.25c-.49.38-.8.79-1.05.76-.32-.05-.6-.45-.9-.7.26-.24.51-.64.8-.67.29-.04.62.3 1.15.61"/></g></svg>