<svg enable-background="new 0 0 400 400" viewBox="0 0 400 400" xmlns="http://www.w3.org/2000/svg"><path d="m83 150.77c0-12.32.04-23.97-.05-35.63-.01-1.75-.54-3.54-1.06-5.24-.95-3.12-2.61-5.06-6.4-3.97-2.33.67-4.82 1.04-7.24 1.05-3.78.02-8.26.84-11.19-.85-7.05-4.06-14.06-8.82-16.56-17.35-.46-1.57.54-3.56.66-4.25 9.26 1.23 17.77 3.53 26.17 3.19 12.71-.51 25.49-2.17 38-4.59 15.14-2.93 30.03-7.16 45.03-10.84 6.14-1.51 17.19 2.94 20.47 8.26 3.25 5.28 1.25 10.26-4.98 11.38-10.43 1.88-20.93 3.38-31.4 5.07-2.2.36-4.38.88-6.95 1.4 5.63 3.84 7.09 8.41 5.82 15.28-1.64 8.86-1.19 18.12-1.72 28.91 5.06-2.61 9.23-4.38 12.99-6.79 4.52-2.89 8.65-3.12 12.91.19 4.45 3.46 9.1 6.7 13.3 10.44 2.66 2.37 2.26 5.54 1.54 9.09-1.88 9.26-4.06 18.68-4.15 28.05-.42 45.81-.11 91.62-.28 137.43-.03 6.97-.82 14.03-4.95 20.12-3.63 5.35-10.38 5.48-14.09.21-2.64-3.74-5.6-4.75-10.41-3.8-7.7 1.52-15.66 1.68-23.51 2.46-13.06 1.3-26.1 2.98-39.19 3.76-4.8.29-7.62 1.42-10.04 5.75-2.26 4.05-8.58 3.56-11.65-.57-3.83-5.15-6.09-10.79-5.18-17.57.8-6.04 1.05-12.18 1.08-18.28.11-26.15-.08-52.31.09-78.46.12-18.93.96-37.85.79-56.78-.07-7.22.08-14.87-4.12-21.42-1.1-1.71-2.86-2.98-4.15-4.59-.97-1.21-2.66-3.28-2.3-3.84 1.07-1.63 2.88-3.6 4.61-3.83 7.7-1.03 14.72 1.01 20.29 6.61 2.12 2.13 3.95 3.31 7.1 2.31 3.36-1.07 6.93-1.52 10.72-2.31zm32 11.96c-4.48.73-8.49 1.19-12.38 2.14-1.07.26-2.36 1.93-2.53 3.09-.89 6.15-1.31 12.38-2.15 18.54-2.48 18.16-9.11 35.01-20.61 48.95-7.01 8.5-8.82 16.88-8.52 27.05.13 4.56 2.57 5.58 5.74 6.38 1.72.43 3.69.32 5.46 0 16.02-2.91 32.03-5.9 48.04-8.91 7.29-1.37 14.57-2.82 21.74-4.22 0-8.15 0-15.77 0-22.81-6 0-11.88.6-17.57-.15-6.94-.92-12.73-4.39-15.08-11.58-1.05-3.21-1.99-6.62-2.03-9.96-.23-15.93-.11-31.88-.11-48.52zm-45.87 164.52c10.58-1.14 20.68-2.08 30.73-3.35 14.6-1.84 29.15-4.15 43.78-5.78 4.96-.55 6.46-2.7 6.41-7.27-.14-10.66-.04-21.33-.04-31.99 0-1.57 0-3.14 0-5.2-5.9 1.22-10.98 2.34-16.09 3.31-15.37 2.92-30.76 5.76-46.13 8.66-6.39 1.21-12.82 3.22-18.65-2.57-.01 14.93-.01 29.07-.01 44.19zm80.86-114.35c0-16.98.09-33.45-.07-49.92-.04-3.86-2.02-6.6-6.51-5.96-4.13.59-8.23 1.36-12.41 2.06 0 16.16-.1 31.64.05 47.12.06 6.17 1.99 7.91 8.08 7.74 3.54-.08 7.07-.66 10.86-1.04zm-49.01-65.84c3.68-.38 7.44-.57 11.12-1.25 1.09-.2 2.77-1.8 2.75-2.74-.15-12.57-.34-25.16-1.17-37.7-.11-1.58-3.92-4.05-6.08-4.11-4.01-.11-8.06 1.26-11.89 1.98 1.86 2.66 4.92 5.04 5.03 7.54.53 11.89.24 23.81.24 36.28zm-31.98 80.74c9.63-18.62 13.45-38.57 14.13-59.37-3.68.58-6.9 1.15-10.13 1.57-2.6.34-4.09 1.2-4.06 4.32.13 17.82.06 35.65.06 53.48z" fill="#010103"/><path d="m188.21 246.52c-.92-2.94 1.12-4.89 4.58-4.43 4.97.66 10.44.79 14.68 3.05 9.78 5.21 19.7 4.1 29.83 2.73 8.9-1.21 17.83-2.32 26.66-3.91 15.82-2.86 32.27-2.69 47.21-9.87 3.77-1.81 7.81-1.98 11.63-.02 7.06 3.64 14.31 6.92 19.43 13.52 2.2 2.83 2.41 5.33.83 8.11-6.32 11.08-8.56 23.07-9.19 35.7-.58 11.59-2.31 23.12-3.62 35.48 2.7-.33 5.57-.25 8.16-1.09 10.4-3.35 19.35 3.03 24.21 9.87 1.35 1.9 1.19 5.9.11 8.16-.82 1.7-4.19 3.01-6.46 3.06-12.99.28-25.98.01-38.97.17-15.09.19-30.21.26-45.27 1.07-16.75.9-33.5 2.19-50.17 4.05-10.17 1.14-20.19 3.64-30.27 5.59-5.29 1.02-9.16-1.86-12.79-4.85-5.65-4.65-11.45-9.42-9.44-18.66 9.07 5.56 18.84 5.76 29.71 2.95-.31-2.74-.92-6.04-1.02-9.35-.43-14.76-.54-29.52-1.1-44.27-.34-9.04-.73-18.14-2.24-27.03-.62-3.61-4.25-6.71-6.5-10.03zm123.06 83.22c.58-8.99 1.06-17.82 1.76-26.65.48-6.04 1.42-12.05 1.85-18.1.54-7.58 1.21-15.2.96-22.77-.18-5.51-2.16-7.47-7.7-7.19-4.43.23-8.87.56-13.28 1.1-3.12.38-6.19 1.2-10.3 2.02 1.99 1 2.99 1.48 3.98 2 6.55 3.44 6.83 4.34 5.58 11.97-.66 4.04-.75 8.18-1.12 12.27-.63 6.87-1.43 13.72-1.88 20.6-.56 8.52-.82 17.06-1.25 26.27 7.25-.52 13.78-.98 21.4-1.52zm-74.3 5.2c0-21.39.35-42.47-.22-63.52-.17-6.27-3.98-8.11-8.32-7.46-4.32.65-8.7.92-13.03 1.35.52 23.56 1.03 46.88 1.57 70.99 6.88-.47 13.2-.9 20-1.36zm10.19-72.48c7.9 1.91 9.76 6.24 8.84 12.47-.92 6.16-1.74 12.37-1.91 18.58-.3 11.32-.09 22.65-.09 33.98v6.76c6.73-.57 12.73-1.08 19.05-1.62 0-4.95-.14-9.6.03-14.23.58-16.36 1.56-32.72 1.8-49.08.11-7.43-3.95-10.29-11.18-9.29-4.97.68-9.92 1.45-16.54 2.43z" fill="#010103"/><path d="m226.97 121.72c-10.16 1.53-19.66 3.05-29.19 4.33-1.89.25-4.15.13-5.81-.69-7.19-3.58-12.9-8.99-16.84-15.94-1.25-2.2-1.01-5.25-1.57-8.68 6.21 1.62 11.42 3.8 16.75 4.19 10.7.79 21.47.6 32.22.78.29.01.62-.44.89-.41 12 1.62 14.07-7.36 16.67-15.68 2.33-7.44 5.06-14.82 6.62-22.42 1.57-7.67.07-15.09-5.86-20.96 2.68-4.98 7.27-3.84 10.62-2.83 7.91 2.39 14.81 6.85 20.47 13.03 2.73 2.98 2.81 6.1 1.08 9.74-5.18 10.89-10.13 21.88-15.73 34.02 6.3-1.04 11.66-1.64 16.88-2.85 15.85-3.66 31.56-7.93 47.48-11.2 9.02-1.85 17.3 1.6 24.21 7.42 2.74 2.31 3.47 6.01 2.05 9.78-1.6 4.27-5.38 5.24-9.05 5.53-8.41.66-16.89.4-25.28 1.2-13.04 1.25-26.03 3.01-39.02 4.67-7.45.95-14.88 2.08-22.29 3.31-1.03.17-2.22 1.16-2.77 2.1-5.81 9.98-11.5 20.03-17.23 30.06-.64 1.12-1.33 2.21-2.04 3.39 7.96 2.99 15.55.88 23-.7 12.72-2.7 25.34-5.9 38-8.89.48-.11 1.03-.1 1.43-.34 10.48-6.5 18.18-.83 26.17 5.44 6.65 5.22 7.08 10.68 4.45 18.37-3.3 9.65-5 19.86-7.09 29.89-.3 1.45.58 3.64 1.66 4.78 3.43 3.62 2.68 7.54 1.24 11.46-1.11 3.02-3.36 4.54-6.9 4.44-7.66-.22-15.36-.54-22.98.05-10.61.81-21.13 2.69-31.73 3.56-6.35.52-12.49.77-17.05 6.08-.39.46-1.64.07-2.4.33-3.93 1.31-6.69-.05-8.16-3.75-1.13-2.84-2.45-5.78-2.71-8.77-.93-10.84-1.11-21.76-2.25-32.57-.53-5.03-2.63-9.89-3.37-12.54-7.01 5.88-14.03 12.12-21.43 17.89-6.95 5.41-14.25 10.37-21.51 15.37-.94.65-2.57.31-3.87.42.35-1.44.27-3.21 1.1-4.27 5.78-7.35 11.89-14.44 17.62-21.81 13.25-17.11 24.04-35.72 33.52-56.33zm16.68 86.32c8.86-1.09 16.78-2.08 24.72-3.04 8.44-1.03 16.9-1.91 25.31-3.18 1.25-.19 3-2.05 3.2-3.35 1.55-9.99 2.94-20.02 4-30.07.3-2.85-.88-5.76-4.76-5.38-5.69.56-11.39 1.1-17.03 2.01-12 1.94-23.96 4.1-35.43 6.09-.01 12.49-.01 24.37-.01 36.92z" fill="#010103"/><g fill="#fcfafa"><path d="m37.59 393.81c-.92.31-1.52.05-2-.78-.7-1.2-1.52-2.34-2.47-3.78v4.59c-.55.03-.95.05-1.41.07-.03-.37-.06-.64-.06-.91 0-1.91 0-3.81 0-5.7 1.13-.41 1.77-.03 2.29.91.62 1.11 1.38 2.14 2.31 3.19v-4.2h1.35v6.61z"/><path d="m12.94 393.88v-6.75c1.9.19 3.93-.54 5.37 1.29.8 1.01.78 2.88.03 3.97-1.37 1.97-3.4 1.51-5.4 1.49m1.45-1.22c2.04.12 2.92-.58 2.89-2.21-.03-1.51-.98-2.19-2.89-2z"/><path d="m11.81 393.87h-5.49c.68-2.18 2.47-3.48 3.51-5.45h-3.08v-1.21h5.29c-.71 2.13-2.44 3.48-3.47 5.51.86 0 1.63.04 2.39-.01.79-.05 1.14.21.85 1.16"/><path d="m39.33 393.86v-6.61h3.7v1.07h-2.22v1.52c.68.04 1.34.09 2.07.13v1.07c-.72.05-1.38.09-2.1.14v1.48h2.4v1.19h-3.84z"/><path d="m27.71 388.56c-1.15-.3-2.46-.61-3.1.64-.37.73-.41 1.93-.06 2.67.63 1.35 1.99.93 3.17.68.35.94-.01 1.32-.93 1.46-1.62.25-3.05-.27-3.76-1.48-.73-1.24-.6-3.03.31-4.17.88-1.11 2.71-1.7 4-1.16.32.13.44.74.65 1.12-.1.08-.19.16-.28.24"/><path d="m49.15 387.24v1.07c-.59.02-1.17.05-1.87.08v5.44h-1.48v-5.44h-1.85c-.05-.4-.08-.73-.13-1.15z"/><path d="m20.06 387.21h1.33v6.62h-1.33z"/><path d="m30.68 393.25c-.49.38-.8.79-1.05.76-.32-.05-.6-.45-.9-.7.26-.24.51-.64.8-.67.29-.04.62.3 1.15.61"/></g></svg>