<svg enable-background="new 0 0 400 400" viewBox="0 0 400 400" xmlns="http://www.w3.org/2000/svg"><path d="m88.96 136.78c0-12.63.31-25.1-.14-37.53-.21-5.71-3.09-6.65-8.88-5.81-6.83.99-13.79 1.12-20.71 1.51-.9.05-1.99-.3-2.74-.82-7.43-5.11-12.49-11.96-14.67-20.76-.55-2.22.17-2.27 3.11-1.44 6.53 1.84 13.18 4.91 19.72 4.76 14.59-.33 29.15-2.21 43.7-3.68 11.41-1.16 22.82-2.42 34.16-4.11 5.44-.81 10.71-2.73 16.05-4.15 10.98-2.91 19.76 1.4 27.27 8.85 1.46 1.45 2.62 5.55 1.76 6.51-2 2.24-5.15 4.08-8.12 4.69-4.8.99-9.82 1.06-14.76 1.16-8.6.16-17.2.05-26.53.78 8.69 6.69 3.14 14.29 2.67 21.34-.47 7.03-1.4 14.02-2.3 22.62 4.6-2.1 8.13-3.65 11.62-5.31 3.47-1.65 7.05-2.84 10.5-.39 5.19 3.69 10.52 7.29 15.17 11.59 4.43 4.09 3.01 9.31 1.68 14.67-1.75 7.09-2.79 14.42-3.42 21.71-.55 6.28-.11 12.66-.11 18.99v85.74c5.56 1.29 12.13 3.41 18.86 4.21 6.09.72 12.37.2 18.54-.15 5.06-.29 10.08-1.25 15.14-1.71 8.99-.82 17.99-1.49 27.22-2.25 0-6.64 0-13.06 0-19.83-7.34 1.16-14.39 2.4-21.47 3.35-3.93.52-9 2.21-11.66.47-5.78-3.76-10.54-9.2-15.24-14.39-1.06-1.17-.16-4.13-.16-7.31 17.07 9.54 33.26 4.31 49.56 2.95 0-7.38 0-14.33 0-22.04-4.56.34-9.07.55-13.54 1.05-7.8.89-15.6 1.86-23.37 3.01-2.54.38-5.11 1.14-7.44 2.22-10.02 4.64-13.32-.37-14.26-8.67-1.31-11.63-1.31-23.4-2.23-35.08-.66-8.31-1.38-16.69-3.12-24.82-.98-4.56-4.1-8.67-6.44-13.36 3.12-5.28 8.32-3.26 12.67-1.69 11.22 4.06 22.37 3.74 33.88 1.55 7.71-1.46 15.65-1.67 23.78-2.46 0-6.01 0-11.94 0-18.91-16.82 3.02-33.54 6.15-50.33 8.87-2.46.4-6.06-.41-7.72-2.07-4.95-4.96-9.35-10.52-13.58-16.12-.82-1.09.05-3.45.15-5.23 1.4.16 3-.07 4.16.53 10.38 5.38 21.4 3.51 32.24 2.8 7.84-.52 15.64-1.74 23.46-2.61 3.75-.42 7.51-.76 12.61-1.27-1.23-6.3-2.14-12.49-3.74-18.5-.9-3.36-3.81-4.74-7.45-4.23-12.15 1.7-24.28 3.58-36.48 4.84-3.94.41-8.1-.72-12.08-1.54-1.11-.23-1.93-1.86-2.89-2.85 1.03-.84 1.94-2.09 3.12-2.45 14.3-4.41 28.78-8.25 42.91-13.12 13.83-4.77 27.43-10.26 40.87-16.05 4.14-1.79 7.51-5.4 5.43-11.22-1.09-3.04 1.82-4.84 5.45-3.16 3.37 1.57 6.86 3.33 9.55 5.82 4.21 3.89 8.34 8.1 11.49 12.86 3.08 4.64 1.38 8.27-4 9.79-12.52 3.54-25.13 6.75-37.7 10.1-1.41.38-2.81.79-4.26 1.19.06.27.07.68.18.71 7.52 2.02 9.89 7.08 9.01 14.47-.44 3.74-.08 7.58-.08 12.54 16.2-3.26 31.8-5.85 47.09-9.66 11.29-2.81 21.94-3.28 32.25 2.58 3.57 2.03 7.09 4.26 6.7 9.38-.33 4.39-2.82 6.51-6.84 6.73-4.82.27-9.68-.22-14.49.12-16.74 1.19-33.47 2.59-50.21 3.91-4.93.39-9.86.77-15.14 1.18v18.34c12.45-1.49 24.93-2.98 37.41-4.51 1.61-.2 3.17-.77 4.78-.98 3.59-.47 7.52-1.94 10.72-.99 8.18 2.44 15.06 7.49 20.24 14.31 1.15 1.52 1.29 5.11.29 6.75-9.42 15.33-10 33.19-14.78 49.83-1.03 3.59-2.01 7.2-3.03 10.79-1.82 6.36-7.66 8.54-13.05 5.51-5.21-2.93-9.94-4.16-16.08-3.47-8.97 1.01-18.13.26-27.51.26v23.48c7.74-1.36 15.25-2.54 22.69-4.03 7.7-1.54 15.17-3.32 22.36 2.13 3.25 2.46 6.15 4.9 5.21 9.02-1.01 4.41-5.39 4.84-9.05 5.32-3.11.4-6.33-.05-9.49.11-10.85.55-21.69 1.19-32.77 1.82v21.16c21.98-3.3 43.6-6.52 65.2-9.81 5.76-.88 20.59 6.08 23.2 11.04 3.19 6.07-1.01 11.67-9.05 11.73-13.55.11-27.11-.34-40.65.12-19.32.66-38.64 1.56-57.9 3.04-13.38 1.03-26.67 3.18-39.98 4.91-1.39.18-2.71.87-4.22 1.37 3.88 7.87 1.08 15.46.01 22.9-1.72 12-5.01 23.67-12.01 33.78-3.03 4.37-6.61 8.56-12.45 9.75-6.41 1.31-11.65-2.6-12.46-9.16-.97-7.88 3.24-13.47 7.81-18.93 8.93-10.67 18.64-20.79 23.91-34.03.42-1.04.86-2.07 1.67-4.02-15.8 5.38-23.64-4.79-32.08-15.2-.44 7.17-.6 13.98-1.34 20.72-.76 6.88-.39 14.04-4.69 20.22-4.57 6.57-7.26 7.6-12.84 2.23-7.22-6.96-15.49-3.26-23.31-3.46-4.85-.12-9.71 1.35-14.6 1.74-13.96 1.12-27.94 2.02-41.9 3.1-1.17.09-2.66.63-3.35 1.48-2.88 3.54-5.29 8.54-10.72 7.07-6.58-1.78-7.31-8.25-7.36-13.64-.14-14.8.51-29.6.82-44.4.06-2.67-.01-5.33.02-8 .33-29.93.03-59.89 1.29-89.79.55-13.12-.98-25.85-2.42-38.69-.31-2.75-2.24-5.3-3.26-8.01-.59-1.56-1.69-4.06-1.08-4.7 1.35-1.41 3.64-2.62 5.57-2.64 6.39-.09 11.37 3.7 16.21 7.22 3.9 2.83 7.65 4.02 12.34 2.32 1.72-.66 3.83-.35 6.25-.51zm18 13.58c-.66 5.24-1 10.48-2.03 15.57-1.76 8.76-3.32 17.63-6.09 26.09-4.78 14.57-13.09 27.07-24.62 37.35-1.1.98-2.08 2.71-2.12 4.13-.21 7.31-.1 14.62-.1 22.12 13.08-1.23 25.79-2.52 38.52-3.58 13.62-1.13 27.27-1.94 40.88-3.16 1.61-.14 4.34-1.97 4.39-3.1.37-8.76.2-17.55.2-26.77-6.13 0-11.77.23-17.37-.06-6.33-.32-12.59-2.27-14.65-8.73-1.94-6.11-2.59-12.8-2.77-19.26-.39-13.87-.12-27.75-.12-41.96-4.22.4-8.76.84-14.12 1.36zm47.03 114.43c-28.14 2.28-55.47 4.5-82.73 6.71v39.44c2.38 0 4.52.17 6.63-.03 13.07-1.25 26.12-2.71 39.2-3.87 9.68-.86 19.42-1.12 29.07-2.2 2.97-.33 7.69.07 7.77-4.95.19-11.46.06-22.92.06-35.1zm120.01-60.96c.34.03 1.31.21 2.27.16 10.86-.64 21.71-1.55 32.58-1.87 4.31-.13 5.73-1.86 6.21-5.78.69-5.66 1.9-11.25 2.71-16.9 1.04-7.27 2.12-14.55 2.76-21.87.41-4.76-1.83-6.76-7-6.53-11.87.53-23.72 1.28-35.58 1.98-2.62.16-4.09 1.26-4.01 4.34.2 7.49.06 14.99.06 22.48zm-59.98 6.08c13.9-1.14 27.36-2.25 40.58-3.34 0-17.38 0-34.4 0-51.3-5.57.61-10.76 1.17-15.95 1.74-6.19.68-12.41 1.13-18.55 2.12-8.74 1.41-8.69 1.57-8.12 10.46.12 1.82-.07 3.66.04 5.49.63 11.48 1.31 22.97 2 34.83zm-57.79-64.18c-6.57.34-12.33.64-18.29.94 0 8.41-.01 15.71 0 23.01.02 8.67-.13 17.35.26 26.01.07 1.51 2.26 3.85 3.82 4.19 4.39.94 8.96 1.04 14.2 1.53.01-18.96.01-36.99.01-55.68zm-33.23-13.75c0-12.54.07-24.36-.05-36.18-.03-2.81-.5-5.85-4.47-5.78-5.64.1-11.27.32-17.31.49 2.74 3.25 6.12 5.46 6.53 8.13.89 5.69.39 11.62.17 17.45-.22 5.88-.8 11.74-1.27 18.32 6.05-.89 11.02-1.63 16.4-2.43zm-49.45 82.29c12.39-18.63 14.41-39.56 14.48-61.39-5.27.93-9.66 1.71-14.48 2.56z" fill="#010103"/><path d="m358.71 342.2c-1.17 3.41-2.13 7.38-3.85 10.97-2.04 4.27-6.38 6.4-10.59 5.52-2.99-.63-6.43-3.51-7.84-6.31-2.45-4.86-3.72-10.37-5.07-15.71-3.42-13.57-11.12-24.89-18.58-36.37-.77-1.19-.87-2.82-1.28-4.25 1.47-.04 3.23-.64 4.35-.04 6.57 3.53 13.6 6.59 19.33 11.21 8.7 7.03 16.87 14.92 21.19 25.69 1.08 2.7 1.45 5.66 2.34 9.29z" fill="#010103"/><path d="m305.98 335.16c.02 8.64-3.38 14.23-9.86 16.26-5.05 1.58-9.65-1.13-11.13-6.33-2.57-9.04-4.89-18.18-8.07-27-1.85-5.12-5.29-9.64-7.77-14.56-.95-1.9-1.21-4.15-1.78-6.24 2.09-.09 4.58-.97 6.2-.15 13.85 7 26.05 15.8 31.57 31.26.27.76.74 1.49.8 2.27.13 1.49.04 2.99.04 4.49z" fill="#010103"/><path d="m227.53 298.19c10.52 5.46 16.38 13.26 21.8 21.54 4.4 6.72 7.56 13.79 6.65 22.06-.74 6.67-5.61 14.08-12.37 13.38-4.07-.42-6.56-2.07-7.51-5.62-1.34-5.01-2.14-10.16-3.08-15.27-1.86-10.07-3.69-20.14-5.44-30.23-.28-1.57-.05-3.23-.05-5.86z" fill="#010103"/><path d="m276.96 197.49c5.05-9.1 9.61-16.95 13.77-25.02 1.74-3.38 3.08-6.94.64-11.03-1.62-2.74 1.11-5.44 4.23-4.03 4.96 2.25 9.97 4.78 14.2 8.15 4.59 3.66 4.72 10.08.18 13.7-7.37 5.88-15.22 11.21-23.22 16.21-2.51 1.58-6.16 1.34-9.8 2.02z" fill="#010103"/><path d="m248.3 187.71c.15 4.85-2.27 7.96-6.36 9.78-3.82 1.7-6.88-.26-9.02-3.16-6.09-8.24-12.02-16.61-17.81-25.07-1.77-2.59.32-3.86 2.58-4.21 8.61-1.35 26.51 9.68 29.35 18.01.53 1.52.85 3.1 1.26 4.65z" fill="#010103"/><g fill="#fcfafa"><path d="m37.59 393.81c-.92.31-1.52.05-2-.78-.7-1.2-1.52-2.34-2.47-3.78v4.59c-.55.03-.95.05-1.41.07-.03-.37-.06-.64-.06-.91 0-1.91 0-3.81 0-5.7 1.13-.41 1.77-.03 2.29.91.62 1.11 1.38 2.14 2.31 3.19v-4.2h1.35v6.61z"/><path d="m12.94 393.88v-6.75c1.9.19 3.93-.54 5.37 1.29.8 1.01.78 2.88.03 3.97-1.37 1.97-3.4 1.51-5.4 1.49m1.45-1.22c2.04.12 2.92-.58 2.89-2.21-.03-1.51-.98-2.19-2.89-2z"/><path d="m11.81 393.87h-5.49c.68-2.18 2.47-3.48 3.51-5.45h-3.08v-1.21h5.29c-.71 2.13-2.44 3.48-3.47 5.51.86 0 1.63.04 2.39-.01.79-.05 1.14.21.85 1.16"/><path d="m39.33 393.86v-6.61h3.7v1.07h-2.22v1.52c.68.04 1.34.09 2.07.13v1.07c-.72.05-1.38.09-2.1.14v1.48h2.4v1.19h-3.84z"/><path d="m27.71 388.56c-1.15-.3-2.46-.61-3.1.64-.37.73-.41 1.93-.06 2.67.63 1.35 1.99.93 3.17.68.35.94-.01 1.32-.93 1.46-1.62.25-3.05-.27-3.76-1.48-.73-1.24-.6-3.03.31-4.17.88-1.11 2.71-1.7 4-1.16.32.13.44.74.65 1.12-.1.08-.19.16-.28.24"/><path d="m49.15 387.24v1.07c-.59.02-1.17.05-1.87.08v5.44h-1.48v-5.44h-1.85c-.05-.4-.08-.73-.13-1.15z"/><path d="m20.06 387.21h1.33v6.62h-1.33z"/><path d="m30.68 393.25c-.49.38-.8.79-1.05.76-.32-.05-.6-.45-.9-.7.26-.24.51-.64.8-.67.29-.04.62.3 1.15.61"/></g></svg>