<svg enable-background="new 0 0 400 400" viewBox="0 0 400 400" xmlns="http://www.w3.org/2000/svg"><path d="m6.44 374.46.42-.45c.65.47 1.27.95 1.85 1.44l-.45.49c-.65-.56-1.25-1.06-1.82-1.48m.93 7.33-.63-.26c.55-1.36 1.05-2.8 1.52-4.33.19.1.38.19.59.27-.46 1.29-.95 2.73-1.48 4.32m-.38-10.38.44-.42c.43.34 1.01.82 1.74 1.44l-.49.49c-.53-.51-1.09-1.01-1.69-1.51m2.5.35h1.72v-1.04h.59v1.04h3.52v-1.04h.59v1.04h1.75v.53h-1.75v1.42h-2.03v.97h3.22v2.03h-3.24c0 .35-.01.66-.03.93h3.32v.53h-3.37c-.03.27-.08.58-.15.94h3.96v.53h-3.71c.67.92 1.93 1.48 3.79 1.68-.13.24-.23.44-.29.59-2.13-.38-3.48-1.08-4.04-2.12-.43.97-1.77 1.72-4.03 2.23-.09-.19-.2-.37-.33-.55 2.1-.42 3.37-1.03 3.81-1.83h-3.36v-.53h3.58c.08-.29.13-.61.16-.94h-3.33v-.53h3.39c.02-.27.04-.58.04-.93h-3.23v-2.03h3.25v-.97h-2.07v-1.42h-1.73zm1.12 3.44v1h2.65c.01-.3.02-.44.01-.4v-.25-.35zm1.19-2h3.52v-.91h-3.52zm4.71 3h-2.63v.59c0 .15-.01.28-.01.4h2.64v-1.99z" fill="#fbfcfa"/><path d="m13.56 383.74h.63v1.52h2.72v6.07h1.13v.6h-11.06v-.6h1.13v-6.07h2.73v-1.52h.63v1.52h2.1v-1.52zm-2.69 8.83.38.56c-1.24.63-2.53 1.25-3.85 1.85-.1-.21-.21-.42-.34-.63 1.36-.55 2.63-1.15 3.81-1.78m-2.13-4.27h2.1v-2.45h-2.1zm0 3.04h2.1v-2.46h-2.1zm2.72-3.04h2.1v-2.45h-2.1zm0 3.04h2.1v-2.46h-2.1zm6.07 3.6c-1.41-.71-2.7-1.3-3.86-1.78l.35-.56c1.45.62 2.75 1.19 3.88 1.72zm-1.25-9.09h-2.1v2.45h2.1zm-2.09 5.49h2.1v-2.46h-2.1z" fill="#fbfcfa"/><g fill="#010101"><path d="m112.84 75.81c7.1-1.95 15.46-3.55 23.22-6.63 5.36-2.12 9.61-2.15 13.92 1.35 2.81 2.29 5.61 4.61 8.16 7.18 4.27 4.32 4.14 8.52-.57 12.16-19.25 14.87-32 35.26-46.29 55.04 1.9-.3 3.84-.45 5.7-.93 11.47-2.98 22.91-6.04 34.36-9.07.75-.2 1.64-.83 2.21-.62 8.61 3.24 16.33 7.9 20.96 16.11 1.09 1.94.52 5.29-.24 7.69-1 3.14-2.94 5.98-4.32 8.65 2.49.56 4.75.68 6.64 1.57 9.51 4.48 19.26 5.91 29.68 3.85 4.97-.98 10.18-1.13 15.27-1.05 3.21.05 4.6-1.44 5.35-3.98.87-2.96 1.09-6.16 2.25-8.99 1.86-4.51.88-8.55-1.74-12.06-2.41-3.23-2.22-5.84.6-8.99-11.28 2.86-22.05 5.74-32.93 8.19-2.02.45-5.38-.13-6.5-1.53-3.85-4.81-7.29-10.02-10.23-15.44-1.07-1.97-1.52-5.55 2.24-6.51 15.15-3.88 23.33-15.82 31.5-27.53 7.28-10.44 14.26-21.26 16.93-33.92.88-4.16-.09-8.95-1.15-13.22-1.05-4.23-.06-6.67 4.28-7.12 9.45-.97 24.23 7.82 27.03 16.98.82 2.68-.48 6.93-2.3 9.34-7.22 9.55-14.81 18.83-22.68 27.86-7.58 8.69-15.68 16.93-23.54 25.37.21.48.41.96.62 1.43 24.98-3.74 49.96-7.48 75.11-11.25-4.65-8.66-13.2-15.03-16.06-26.63 5 1.13 8.92 1.52 12.45 2.9 15.69 6.14 30.07 14.68 42 26.57 6.22 6.2 9.57 14.29 7.23 23.65-1.73 6.91-7.5 9.52-13.08 5.07-5.94-4.73-11.43-10.11-16.6-15.68-2.52-2.71-5.07-3.2-8.16-2.55-19.11 4.04-38.2 8.17-58.38 12.5 3.24 1 5.64 1.61 7.93 2.49 2.41.93 4.83 1.93 7.03 3.25 8.19 4.91 3.97 11.97 2.86 18.36-.46 2.67-1.71 5.2-2.8 8.39 5.1-.73 9.76-1.28 14.37-2.09 12.85-2.27 25.78-4.21 38.47-7.17 7.67-1.78 15.04-4.5 23.12-3.83 8.75.72 17.04 3.03 24.65 7.32 2.6 1.47 6.24 4.21 4.25 7.36-1.64 2.59-5.59 4.69-8.78 5.13-7.34 1.01-14.85.65-22.26 1.27-13.25 1.12-26.47 2.63-39.71 3.84-3.14.29-6.32.04-7.5-.57 5.81 7.01 11.31 14.3 17.53 20.93 4.83 5.14 10.63 9.34 15.87 14.11 17.43 15.9 36.96 28.58 58.22 38.74 2.45 1.17 4.36 3.47 6.52 5.25-.11.59-.22 1.19-.33 1.78-2.61.95-5.24 2.78-7.81 2.69-13.02-.43-26.15-.51-39-2.37-9.97-1.44-16.04-10.01-22.26-17.19-8.59-9.9-16.58-20.31-24.87-30.47-7.47-9.15-15.05-18.2-22.45-27.41-2.35-2.92-4.94-4.17-8.6-3.04-1.23.38-2.57.62-3.85.62-3.9 0-6.64 1.49-8.84 4.92-10.69 16.68-22.98 32.2-37.66 45.48-11.04 9.99-23.13 18.81-34.88 28-1.73 1.35-4.08 2.07-6.26 2.62-1.34.34-2.9-.21-4.37-.35.31-1.49.14-3.39 1.01-4.4 4.22-4.88 8.79-9.44 13.09-14.25 14.78-16.53 30.25-32.49 42.3-51.27 1.32-2.05 2.53-4.17 4.12-6.81-6.37 1.12-12.36 1.67-18.03 3.3-8.69 2.49-15.29-.7-21.44-6.25-2.37-2.14-4.9-4.1-8.17-6.82-2.9 17.82-5.46 34.36-8.33 50.85-1.25 7.19-2.77 14.38-4.82 21.39-2.3 7.87-8.74 9.68-13.52 3.41-6.13-8.04-14.26-6.33-21.76-5.43-12.27 1.48-24.38 4.34-36.55 6.67-3.69.7-7.08 1.62-9.33 5.34-2.01 3.33-5.21 5.96-9.55 4.54-4.16-1.37-6.04-4.96-6.34-9.09-.54-7.41-.58-14.86-1.09-22.27-1.24-18.07-2.12-36.18-4.21-54.16-.95-8.12-4.62-15.89-6.66-23.92-.52-2.04-.34-5.5.92-6.45 1.56-1.18 4.6-.66 6.97-.44 1.56.15 3.17.87 4.54 1.7 9.9 5.98 19.97 1.47 29.91.35 1.99-.22 4.15-2.65 5.47-4.59 10.78-15.76 21.42-31.61 32-47.5 1.89-2.83 3.27-6 5.26-9.72-6.85.94-12.94 1.79-19.03 2.62-2.27.31-4.56.89-6.82.85-8.64-.17-12.05 6.82-17 11.9-9.12 9.35-18.07 18.95-27.94 27.47-7.1 6.13-15.55 10.71-23.47 15.87-1.47.96-3.26 1.57-4.98 1.93-.86.18-2.22-.3-2.77-.97-.52-.63-.56-1.98-.28-2.85.33-1.04 1.09-2.01 1.87-2.82 7.78-8.17 15.88-16.06 23.35-24.51 11.07-12.51 21.65-25.46 28.86-40.7 1.18-2.49.91-5.76.9-8.67 0-1.37-1.04-2.71-1.45-4.11-1.62-5.52 2.95-11.36 8.09-9.31 6.82 2.72 13.22 6.83 19.16 11.21 2.16 1.59 2.47 5.69 4.19 10.09zm7.17 111.87c6.35-.59 12.27-.79 18.03-1.83 3.44-.62 8.47.22 8.91-5.52.43-5.59.84-11.18 1-16.78.17-5.86-3.05-8.52-8.75-7.5-5.29.95-10.59 1.84-15.82 3.08-1.27.3-3.2 1.8-3.23 2.8-.24 8.62-.14 17.25-.14 25.75zm-44.01 51.52c7.25-1.18 13.71-1.98 20.03-3.44 1.56-.36 3.7-2.78 3.77-4.34.37-8.38.18-16.79.18-24.74-5.72.47-10.9.97-16.09 1.29-7.29.45-10.18 2.52-9.84 7.7.49 7.65 1.25 15.28 1.95 23.53zm23.32-76.14c-8.64 1.8-16.14 3.2-23.51 5.07-1.21.31-2.68 2.73-2.68 4.17.02 6.26.37 12.53 1.03 18.75.11 1.08 2.38 2.87 3.49 2.75 6.31-.68 12.63-1.58 18.8-3 1.74-.4 4.31-2.82 4.3-4.3-.05-7.45-.83-14.9-1.43-23.44zm18.52 40.65v28.68c4.79-.53 8.67-1.15 12.57-1.34 8.01-.4 8.01-.31 9.67-8.07.07-.31.32-.59.38-.9 1.29-6.49 2.56-12.98 4.04-20.52-9.37.75-17.78 1.43-26.66 2.15z"/><path d="m162.56 371c-1 0-2.15.32-2.96-.07-1.29-.63-2.84-1.53-3.32-2.71-.29-.7 1-2.69 2.02-3.18 8.52-4.12 17.21-7.88 25.72-12.01 17.48-8.49 35.23-16.51 52.21-25.92 14.79-8.2 28.87-17.76 42.87-27.28 5.44-3.7 10.8-8.11 13.27-14.73.78-2.1 1.24-4.35 1.59-6.57.46-2.9.44-5.88 1.05-8.74 1.16-5.46 6.73-7.94 11.24-4.58 7.52 5.59 12.24 13.37 13.62 22.58 1.37 9.16-5.46 14.04-11.96 18.12-15.19 9.53-30.57 18.77-46.13 27.67-24.44 13.98-50.4 24.48-77.33 32.59-7.15 2.15-14.46 3.74-21.7 5.58-.07-.26-.13-.51-.19-.75z"/><path d="m185.54 312.21c4.88-3.08 9.87-5.99 14.61-9.27 18.11-12.53 36.24-25.02 54.11-37.88 4.45-3.21 8.41-7.42 11.67-11.85 1.73-2.36 1.3-6.23 2.18-9.33.67-2.36 1.28-5.22 2.95-6.69 1.97-1.73 4.71-2.85 7.75-.33 7.73 6.41 12.43 14.4 10.81 24.33-.59 3.58-4.8 7.42-8.32 9.54-20.39 12.26-40.86 24.45-61.76 35.8-8.78 4.77-18.42 8.42-28.83 8.41-1.58 0-3.17-.64-4.75-.99-.14-.57-.28-1.15-.42-1.74z"/><path d="m183.92 272.56c8.96-6.84 17.99-13.59 26.86-20.54 11.25-8.81 23.13-17.09 31.37-28.99 2.78-4.02 3.42-9.57 4.79-14.49 1.38-4.96 5.1-6.93 8.97-3.97 6.8 5.2 11.1 12.26 11.47 20.81.12 2.71-2.36 6.32-4.71 8.2-8.4 6.71-16.75 13.75-26.06 19-14.71 8.29-30.13 15.34-45.39 22.62-1.87.89-4.58.01-6.9-.05-.12-.87-.26-1.73-.4-2.59z"/><path d="m51.32 283.05c4.95-.26 6.43 2.95 7.63 6.23 4.76 12.98 4.61 26.25 1.59 39.51-1.4 6.13-3.26 12.23-5.62 18.05-2.5 6.15-7.03 8.89-11.54 8.13-4.03-.68-8.79-7.01-9.38-12.2-.75-6.54.94-12.12 4.34-17.93 6.43-10.98 12.16-22.46 11.74-35.84-.07-1.88.76-3.78 1.24-5.95z"/><path d="m77.86 276.17c2.5 2.56 5.47 4.82 7.42 7.74 8.29 12.4 15.5 25.31 15.72 40.85.09 6.04-2.11 11.42-6.32 15.4-1.72 1.63-5.64 2-8.21 1.41-4.2-.96-6.21-4.61-6.43-8.88-.2-3.82.27-7.69-.11-11.48-1.3-13.03-2.89-26.04-4.26-39.06-.18-1.69.26-3.45.41-5.18.6-.26 1.19-.53 1.78-.8z"/><path d="m110.7 272.16c4.78 4.8 10.26 9.11 14.17 14.54 4.71 6.55 9 13.72 11.8 21.25 2.91 7.82 2.86 16.21-3.98 22.85-4.98 4.83-10.87 3.36-12.43-3.39-1.39-6.03-1.84-12.27-3.26-18.29-2.41-10.27-5.3-20.43-7.84-30.67-.41-1.67-.06-3.53-.06-5.31.55-.34 1.08-.66 1.6-.98z"/><path d="m141.02 267.03c2.56 1.3 5.36 2.29 7.64 3.97 9.44 6.96 18.18 14.63 23.96 25.12 2.88 5.23 2.05 10.19-.67 15.13-2.01 3.66-5.76 4.9-9.14 4.45-2.36-.31-5.39-2.85-6.36-5.14-4.49-10.61-8.35-21.5-12.48-32.27-1.3-3.38-2.75-6.7-4.13-10.04.39-.41.78-.81 1.18-1.22z"/></g></svg>