<svg enable-background="new 0 0 400 400" viewBox="0 0 400 400" xmlns="http://www.w3.org/2000/svg"><g fill="#010105"><path d="m196.2 181.08c7.14-.49 13.75-.72 20.3-1.45 9.57-1.07 19.11-2.38 28.62-3.89 1.43-.23 3.66-2.07 3.71-3.23.31-8.79.17-17.6.17-26.21-14.19-1.79-28.72 3.11-42.06-4.55 13.48-5.34 27.86-5.45 41.81-9.07 1.09-9.96-1.72-19.2-6.12-28.04 8.38-3.33 20.37-.16 25.23 6.59.74 1.02.58 3.01.25 4.42-.94 4.01-2.19 7.94-3.71 13.28 7.26-1.72 13.51-3 19.63-4.71 8.06-2.25 16.06-4.26 24.37-1.33.78.27 1.74.32 2.31.82 2.48 2.18 4.85 4.49 7.26 6.75-2.9 1.21-5.7 2.83-8.71 3.54-10.01 2.34-20.08 4.42-30.16 6.47-4.53.92-9.12 1.55-13.87 2.35v29.47c7.77-1.3 15.34-2.6 22.92-3.84 13.57-2.22 27.11-4.8 40.75-6.45 7.98-.97 15.57 1.6 21.66 7.08 1.9 1.7 2.78 4.55 4.12 6.87-2.49 1.04-4.94 2.86-7.47 2.99-7.98.4-16-.08-23.98.22-30.29 1.14-60.16 5.64-89.86 11.46-6.83 1.34-13.79 2.47-20.72 2.63-5.3.12-10.64-1.44-16.05-2.26-1.19 6.05-2.21 12.89-4.01 19.53-.75 2.75-3.15 5.06-4.8 7.56-2.13-2.19-4.76-4.08-6.31-6.62-6.39-10.47-4.89-21.45-2.25-32.78 1.97-8.43 2.44-17.2 2.82-26.09-14.45 13.99-30.02 25.4-48.58 33.1-1.73-4.59 1.38-6.26 3.47-8.37 13.82-13.91 27.72-27.74 41.38-41.8 1.25-1.29 1.36-3.96 1.47-6.01.11-2.21-.41-4.45-.66-6.67h8.51c3.92-5.83 8.61-12.81 13.89-20.67-15.66 1.16-30.48 3.23-43.7-5.04-.06-.78-.11-1.56-.17-2.34 4.83-.93 9.62-2.1 14.49-2.75 11.34-1.53 22.73-2.75 34.07-4.27 1.2-.16 2.7-1.27 3.28-2.36 2.81-5.28 5.51-10.63 7.93-16.1 2.94-6.63 2.87-13.47 1.27-20.51-.57-2.53-.6-6.47.89-7.82 1.43-1.31 5.34-.71 7.82.09 7.79 2.51 13.36 8.04 17.46 14.89.72 1.2-.29 3.97-1.24 5.56-4.51 7.48-9.28 14.8-13.95 22.17.35.48.71.96 1.06 1.44 13.49-3.17 27.01-6.23 40.46-9.55 5.79-1.43 11.54-3.14 17.15-5.14 7.34-2.62 14.48-1.48 21.47.84 2.15.72 3.74 3.15 5.58 4.8-1.99 1.99-3.65 5.05-6.02 5.77-8.41 2.53-17.01 4.58-25.64 6.21-19.22 3.63-38.51 6.95-57.79 10.27-3.31.57-5.35 1.91-7.27 4.94-6.49 10.24-13.59 20.1-20.37 30.16-.96 1.42-1.99 3.17-2.01 4.78-.17 13.92-.1 27.87-.1 42.87z"/><path d="m252.2 250.6c7.2 2.76 14.49 5.45 21.7 8.33 9.84 3.93 19.38 8.19 22.58 19.84 1.73 6.3.11 11.99-5.43 15.05-1.43.79-4.19.65-5.57-.25-2.45-1.59-4.43-3.99-6.4-6.23-9.08-10.28-19.15-19.37-31.44-26.62-10.31 20.08-24.98 34.94-46.41 41.94-.54-.47-1.09-.94-1.63-1.42 2.18-2.89 4.01-6.17 6.61-8.62 13.99-13.18 24.05-28.77 29.78-47.12.47-1.51.85-3.06 1.45-5.24-17.03 2.01-33.29 3.93-50.44 5.96.58 11.41 1.52 22.49 1.62 33.58.14 16.6-.31 33.21-.57 49.81-.02 1.12-.38 2.37-.95 3.33-1.29 2.16-3.05 6.01-4.21 5.87-2.55-.31-5.45-2.19-7.15-4.29-7.25-8.9-8.18-18.82-5.48-30 5.57-23.06 4.59-45.79-6.46-67.4-1.41-2.75-2.81-5.5-4.21-8.26.26-.47.52-.94.78-1.42 3.92.76 8.11.86 11.7 2.39 11.46 4.9 22.91 4.86 34.95 2.36 10.84-2.25 21.98-3.07 34.15-4.67-.99-6.99-1.56-13.71-2.98-20.26-1.42-6.56.07-8.67 6.54-7.04 4.15 1.04 8.25 2.51 12.11 4.35 4.42 2.1 5.51 5.91 3.89 10.52-1.03 2.94-1.98 5.91-3.52 10.54 11.53-2.24 21.86-4.11 32.12-6.31 3.55-.76 7.14-1.92 10.36-3.58 13.11-6.74 33.71 1.35 40.84 9.37 2.53 2.85 3.11 5.39 1.7 8.98-4.29 10.93-6.22 22.3-6.2 34.08.04 19.52-2.46 38.79-7.01 57.74-2.75 11.43-8.15 21.1-19.8 25.9-2.92 1.2-5.03.89-6.67-2.05-6.2-11.11-15.02-19.85-25.09-27.44-1.18-.89-2.26-1.92-3.34-2.94-.19-.18-.12-.62-.35-2.2 2.45 0 4.74-.06 7.03.01 7.44.24 14.88.46 22.31.83 4.45.22 6.9-2.04 7.83-6.08 1.91-8.22 4.23-16.39 5.37-24.72 2.12-15.37 2.58-30.83-1.33-46.06-1.9-7.43-3.21-8.67-10.65-7.99-15.55 1.43-31.05 3.31-46.55 5.19-1.23.15-2.85 1.58-3.28 2.78-1.07 2.93-1.53 6.06-2.3 9.46z"/><path d="m111 135.99c1.97 2.33 4.09 4.68 6.02 7.17 4.17 5.38 6.71 10.82 5.26 18.32-1.49 7.75-1.07 15.89-1.19 23.87-.43 30.8-.26 61.62-1.28 92.4-.58 17.55-2.77 35.07-4.87 52.53-.48 3.99-3 8.15-5.64 11.35-3.61 4.36-8.47 3.21-10.74-1.95-5.41-12.3-6.3-24.54-2.29-37.78 3.19-10.54 4.66-21.79 5.43-32.83 1.36-19.4 1.68-38.88 2.27-58.34.46-15.3.83-30.61.86-45.91.01-5.19-1.13-10.37-1.75-15.56-.49-.09-.98-.18-1.46-.26-2.11 2.44-4.16 4.94-6.33 7.32-11.9 13.06-25.75 23.55-41.49 31.56-.3.15-.61.27-.91.4-2.87 1.2-6.07 3.38-8.44.05-.5-.7 2.21-4.27 4-5.91 26.62-24.38 49.93-51.41 65.11-84.46 6.07-13.21 10.32-27.28 14.84-41.14.91-2.78-.73-6.38-1.12-9.61-.3-2.45-1.54-5.68-.45-7.15 1.14-1.54 5.13-2.59 6.88-1.76 6.67 3.16 13.52 6.44 19.25 11 11.4 9.08 10.47 8.98 2.21 20.48-9.09 12.64-16.68 26.35-25.25 39.38-5.94 9-12.42 17.65-18.92 26.83z"/></g><path d="m6.8 9.5c.6.3 1.3.7 2.1 1.1-.4.4-.7.8-.9 1.2-.7-.4-1.3-.8-1.8-1.1s-1.1-.6-1.6-.8c.2-.4.5-.8.7-1.2.4.2.8.5 1.5.8zm.9 6.9c-.3.6-.5 1.1-.7 1.7s-.4 1.1-.6 1.7c-.6-.4-1.1-.7-1.6-1 .7-1 1.2-1.8 1.5-2.4.3-.5.6-1.1.8-1.7.3-.6.5-1.2.8-1.8.3.3.8.6 1.3.8-.7 1.3-1.2 2.2-1.5 2.7zm.1-11c.4.3 1 .7 1.7 1.1-.5.2-.8.6-1.1 1.1-.5-.6-1-1-1.4-1.2s-.9-.6-1.5-.8c.2-.4.5-.7.9-1.1.5.3.9.6 1.4.9zm10.5 13c1 .4 2 .6 3.1.7-.4.4-.7.8-.8 1.3-.9-.2-1.9-.6-3-.9-1-.4-2-.9-2.8-1.6-.5.4-1.1.9-1.9 1.3s-1.9.9-3.3 1.2c-.1-.3-.5-.8-1.1-1.3 1 0 2.1-.3 3.2-.8 1.2-.5 1.9-1 2.3-1.7h-3.2c-.4 0-1 0-2 .1v-1.2c1 0 1.7.1 2 .1h3.3v-1h-2.3c-.2 0-.9 0-2 .1v-1.2c1.2 0 1.9.1 2 .1h2.3v-.8h-4.1c0-.7.1-1.2.1-1.6 0-.5 0-1.1-.1-1.8h4.1v-.6h-2.5c0-.6.1-1.1.1-1.6v-.6h-.5c-.4 0-1 0-1.8.1v-1.3c1.2 0 1.9.1 2.1.1h.2c0-.3 0-.8-.1-1.4h1.4c0 .6-.1 1-.1 1.4h3.4c0-.4 0-.8-.1-1.3h1.5c0 .4-.1.9-.1 1.3.7 0 1.5 0 2.5-.1v1.2c-1 0-1.8-.1-2.5-.1v.6c0 .3 0 .8.1 1.5h-2.5v.8h4.1c0 .7-.1 1.3-.1 1.8s0 1 .1 1.5h-4.1v.8h1.4c.8 0 1.8 0 2.9-.1v1.2c-1 0-1.9-.1-2.8-.1h-1.5v1h3.2c.3 0 1 0 2.1-.1v1.2c-1.1 0-1.8-.1-2.1-.1h-3.4l-.1.1c1.4 1 2.4 1.5 3.4 1.9zm-4.1-6.6v-1.3h-2.7v1.3zm2.2-4.1v-1.1h-3.4v1.1zm1.9 4.1v-1.3h-2.8v1.3z" fill="#fbfafc"/><path d="m37 6.7v2.3 5.4c1 0 1.8 0 2.2-.1v1.3c-.6 0-1.5-.1-2.5-.1h-11.9c-.7 0-1.3 0-1.8.1v-1.3c.5 0 1.1.1 2 .1v-5.2c0-1 0-1.8-.1-2.5h3.7c0-1.3 0-2.1-.1-2.5h1.5c0 .4-.1 1.3-.1 2.5h2.2c0-1.2 0-2.1-.1-2.6h1.5c0 .4-.1 1.3-.1 2.6zm-12.3 13.7c-.3-.4-.7-.8-1.1-1.1 1.1-.4 2.1-.9 2.9-1.3.8-.5 1.5-1 2.1-1.6.4.4.9.8 1.3 1.1-2.5 1.4-4.2 2.4-5.2 2.9zm3.9-10.1v-2.4h-2.2v2.4zm0 4.1v-2.9h-2.2v2.9zm3.5-4.1v-2.4h-2.2v2.4zm0 4.1v-2.9h-2.2v2.9zm.4 2.9 1-1.1c.6.3 1.4.7 2.5 1.3s2 1.1 2.7 1.5c-.4.4-.8.8-1.1 1.3-.8-.8-2.5-1.7-5.1-3zm3.1-7v-2.4h-2.1v2.4zm0 4.1v-2.9h-2.1v2.9z" fill="#fbfafc"/></svg>