<svg enable-background="new 0 0 400 400" viewBox="0 0 400 400" xmlns="http://www.w3.org/2000/svg"><g fill="#010105"><path d="m133.96 329.29c2.7-1.74 5.3-3.67 8.13-5.19 34.97-18.77 60.05-46.28 74.2-83.53.29-.75.42-1.56.89-3.36-8.64 2.01-16.67 3.8-24.63 5.82-.97.25-1.78 1.62-2.42 2.63-.92 1.46-1.61 3.06-2.39 4.6-.54.09-1.09.18-1.63.27-1.41-2.99-3.33-5.85-4.13-9-3.18-12.36-5.94-24.82-8.98-37.21-2.96-12.08-7.67-23.33-15.7-33.03-1.13-1.36-1.99-3.1-2.45-4.81-.83-3.07.52-4.84 3.83-4.78 3 .06 6.14-.35 8.96.41 9.34 2.51 18.05-.54 26.9-2.47 1.35-.29 2.87-1.18 3.71-2.25 6.27-7.96 12.66-15.86 18.46-24.16 3.64-5.21 6.97-11.07-.2-16.51-.7-.53-.92-1.7-1.54-2.93-15.15 3.6-29.54 8.65-42.25 18-2.37 1.75-6.39 3.27-8.83 2.45-3.83-1.28-3.27-5.74-2.67-9.21.83-4.77 1.64-9.08 6.39-12.61 3.11-2.31 4.81-8.04 5.06-12.36.43-7.4-1-14.88-1.16-22.34-.05-2.47 1.4-4.97 2.16-7.46 2.19.82 4.77 1.15 6.52 2.53 9.32 7.33 10.38 17.06 7.57 27.81-.58 2.2-.79 4.5-1.26 7.27 14.7-2.52 29.01-4.97 43.48-7.45.06-.09.41-.35.41-.61-.2-17.78-.22-35.56-.82-53.33-.11-3.2-2.81-6.24-3.9-9.49-.78-2.33-1.83-5.37-.93-7.19.69-1.41 4.56-2.48 6.42-1.87 6.55 2.14 13.03 4.71 19.16 7.85 3.3 1.69 4.56 4.97 3.87 9.33-2.76 17.31-5.02 34.7-7.63 53.17 7.35-1.67 13.07-3.13 18.84-4.26 10.42-2.04 20.85-4.04 31.34-5.72 3.03-.49 4.07-1.77 4.7-4.58 1.58-6.99 1.8-13.7-1.27-20.45-1-2.21-.63-5.05-.89-7.6 2.72.05 5.71-.59 8.1.32 3.83 1.47 7.43 3.73 10.84 6.08 9.08 6.26 10.02 9.81 5.9 19.96-3.68 9.06-7.01 18.28-11.15 27.13-1.68 3.6-4.75 6.8-7.84 9.4-1.54 1.3-4.81 1.63-6.79.94-1.31-.46-2.46-3.56-2.35-5.41.3-5.25 1.29-10.47 2.13-16.58-25.72 4.94-51.62 9.92-77.13 14.82 8.48 3.67 17.01 6.86 25.05 11 5.44 2.8 5.07 4.96.05 8.48-10.07 7.05-20.09 14.18-30.09 21.32-1.31.94-2.43 2.15-3.34 4.2 7.97-1.65 16.02-2.96 23.89-5.01 17.65-4.59 35.2-9.54 52.8-14.32 1.09-.3 2.28-.58 3.38-.46 9.02.96 17.88 2.88 25.26 8.33 3.61 2.66 6.45 6.59 9.01 10.38 2.32 3.44 1.73 6.48-1.06 10.47-6.61 9.46-12.16 19.71-17.66 29.91-4.72 8.76-8.73 17.9-13.14 26.83-.8 1.62-1.75 3.34-3.07 4.51-3.13 2.78-6.4 7-9.87 7.26-2.38.18-5.19-5.3-8.65-9.19-11.61 2.4-24.75 5.04-37.84 7.96-1.34.3-3 2.09-3.35 3.48-11.93 46.95-43.98 74.86-87.17 92.15-3.19 1.28-6.86 1.34-10.3 1.97-.34-.73-.63-1.52-.93-2.31zm101.02-102.5c14.74-3.45 28.76-6.63 42.69-10.14 1.56-.39 3.22-2.41 3.89-4.05 6.01-14.74 9.54-30.23 9.73-46.03.14-11.71-1.72-13.43-12.72-12.36-9.38.91-18.68 2.85-27.97 4.58-6.05 1.12-12.01 2.69-18.75 4.22 3.9 2.65 6.97 4.6 9.89 6.77 3.49 2.6 5.26 5.71 3.42 10.34-1.12 2.82-1.31 6.01-2.06 9.76 5.67-2.18 10.63-3.93 15.46-5.99 3.96-1.68 7.52-1.17 10.68 1.49 1.54 1.29 3.91 3.47 3.6 4.65-.45 1.72-2.76 3.64-4.64 4.18-7.79 2.25-15.75 3.92-23.59 6.04-1.64.44-4.02 1.61-4.36 2.9-1.95 7.35-3.37 14.83-5.27 23.64zm-55.32-54.92c3.88 21.41 7.62 42.03 11.41 62.91 9.09-1.78 17.85-3.45 26.59-5.25 1.05-.22 2.64-.87 2.85-1.63 2.12-7.71 4.01-15.47 6.06-23.59-10.6.62-20.09 2.75-28.78-3.43 1.56-1.52 3.17-2.54 4.91-2.9 5.84-1.21 11.78-1.95 17.56-3.38 2.09-.52 5.16-2.19 5.49-3.81 1.79-8.73.73-17.37-2.48-26.09-14.77 2.43-29.24 4.81-43.61 7.17z"/><path d="m113.7 128.32c9.53 8.13 13.12 18.37 12.73 30.37-.89 27.78-1.67 55.56-2.43 83.34-.7 25.62-1.09 51.25-2.07 76.86-.28 7.22-1.49 14.56-3.45 21.52-2.07 7.33-7.72 8.27-11.69 1.72-3.61-5.95-6.04-12.9-7.69-19.71-2.86-11.79.25-23.51 2.83-34.93 6.39-28.24 8.16-56.81 8.15-85.65 0-16.62 1.4-33.23 1.72-49.85.1-4.94-1.3-9.91-2.96-15.04-20.17 32.01-45.82 57.83-76.32 78.84-.64-.43-1.28-.86-1.92-1.29 1.05-2.38 1.7-5.07 3.24-7.09 5.35-7.01 11.04-13.74 16.53-20.65 21.03-26.48 41.02-53.66 56.03-84.14 6.33-12.86 11.71-26.12 13.8-40.4.71-4.85.43-9.92.05-14.85-.35-4.45 1.43-6.88 5.6-5.3 10.63 4.02 19.58 10.53 25.96 20.13 1.45 2.18 1.26 4.16-.7 6.66-3.67 4.67-6.46 10.03-9.62 15.11-8.42 13.55-16.84 27.11-25.28 40.66-.77 1.23-1.64 2.41-2.51 3.69z"/><path d="m235.71 249.41c7.96-.2 19.78 7.68 20.42 14.26.47 4.88-1.45 9.99-2.28 15-1.16 7.03-2.59 14.02-3.34 21.09-.73 6.92 1.61 13.33 7.73 16.73 5.84 3.24 12.48 6.73 18.87 6.95 14.04.5 28.28-.05 42.21-1.91 19.42-2.59 29.62-15.6 33.47-34.11 1.15-5.51 1.91-11.11 3-16.63.34-1.7 1.17-3.31 1.99-5.57 5.5 3.75 5.22 9.26 6.11 14.01 2.14 11.38 3.73 22.87 5.76 34.27 1.01 5.65-.27 10-5.21 13.33-10.92 7.37-23.4 10.23-36.05 12.01-21.07 2.97-42.13 2.23-62.86-2.85-13.34-3.27-24.24-10.03-26.96-24.7-1.13-6.09-.36-12.55-.28-18.85.13-9.93.52-19.86.54-29.79 0-2.05-1.26-4.07-1.77-6.15-.53-2.29-.88-4.63-1.35-7.09z"/><path d="m280.78 282.43c12.28-3.29 24.55-6.57 36.72-9.83-.89-4.46-2.05-8.63-2.47-12.88-.37-3.77 1.6-4.92 4.86-3.4 10.57 4.93 17.02 16.36 15.15 27.74-.36 2.22-2.38 5.54-4.08 5.84-2.19.39-5.38-1.2-7.13-2.95-2.13-2.14-3.21-5.32-5.17-8.83-10.62 4.76-21.49 9.55-32.28 14.5-4.08 1.87-7.9 4.29-11.99 6.11-1.14.51-3.18.31-4.18-.43-4.72-3.46-5.42-13.4-.98-17.8 10.46-10.33 17.12-22.73 17.84-37.86.26-5.38 4.32-7.53 8.61-4.59 3.41 2.33 6.5 5.18 9.52 8.02 3 2.83 2.61 5.43-.37 8.48-8.57 8.76-16.82 17.83-25.2 26.77.38.38.77.74 1.15 1.11z"/></g><path d="m6.8 9.5c.6.3 1.3.7 2.1 1.1-.4.4-.7.8-.9 1.2-.7-.4-1.3-.8-1.8-1.1s-1.1-.6-1.6-.8c.2-.4.5-.8.7-1.2.4.2.8.5 1.5.8zm.9 6.9c-.3.6-.5 1.1-.7 1.7s-.4 1.1-.6 1.7c-.6-.4-1.1-.7-1.6-1 .7-1 1.2-1.8 1.5-2.4.3-.5.6-1.1.8-1.7.3-.6.5-1.2.8-1.8.3.3.8.6 1.3.8-.7 1.3-1.2 2.2-1.5 2.7zm.1-11c.4.3 1 .7 1.7 1.1-.5.2-.8.6-1.1 1.1-.5-.6-1-1-1.4-1.2s-.9-.6-1.5-.8c.2-.4.5-.7.9-1.1.5.3.9.6 1.4.9zm10.5 13c1 .4 2 .6 3.1.7-.4.4-.7.8-.8 1.3-.9-.2-1.9-.6-3-.9-1-.4-2-.9-2.8-1.6-.5.4-1.1.9-1.9 1.3s-1.9.9-3.3 1.2c-.1-.3-.5-.8-1.1-1.3 1 0 2.1-.3 3.2-.8 1.2-.5 1.9-1 2.3-1.7h-3.2c-.4 0-1 0-2 .1v-1.2c1 0 1.7.1 2 .1h3.3v-1h-2.3c-.2 0-.9 0-2 .1v-1.2c1.2 0 1.9.1 2 .1h2.3v-.8h-4.1c0-.7.1-1.2.1-1.6 0-.5 0-1.1-.1-1.8h4.1v-.6h-2.5c0-.6.1-1.1.1-1.6v-.6h-.5c-.4 0-1 0-1.8.1v-1.3c1.2 0 1.9.1 2.1.1h.2c0-.3 0-.8-.1-1.4h1.4c0 .6-.1 1-.1 1.4h3.4c0-.4 0-.8-.1-1.3h1.5c0 .4-.1.9-.1 1.3.7 0 1.5 0 2.5-.1v1.2c-1 0-1.8-.1-2.5-.1v.6c0 .3 0 .8.1 1.5h-2.5v.8h4.1c0 .7-.1 1.3-.1 1.8s0 1 .1 1.5h-4.1v.8h1.4c.8 0 1.8 0 2.9-.1v1.2c-1 0-1.9-.1-2.8-.1h-1.5v1h3.2c.3 0 1 0 2.1-.1v1.2c-1.1 0-1.8-.1-2.1-.1h-3.4l-.1.1c1.4 1 2.4 1.5 3.4 1.9zm-4.1-6.6v-1.3h-2.7v1.3zm2.2-4.1v-1.1h-3.4v1.1zm1.9 4.1v-1.3h-2.8v1.3z" fill="#fbfafc"/><path d="m37 6.7v2.3 5.4c1 0 1.8 0 2.2-.1v1.3c-.6 0-1.5-.1-2.5-.1h-11.9c-.7 0-1.3 0-1.8.1v-1.3c.5 0 1.1.1 2 .1v-5.2c0-1 0-1.8-.1-2.5h3.7c0-1.3 0-2.1-.1-2.5h1.5c0 .4-.1 1.3-.1 2.5h2.2c0-1.2 0-2.1-.1-2.6h1.5c0 .4-.1 1.3-.1 2.6zm-12.3 13.7c-.3-.4-.7-.8-1.1-1.1 1.1-.4 2.1-.9 2.9-1.3.8-.5 1.5-1 2.1-1.6.4.4.9.8 1.3 1.1-2.5 1.4-4.2 2.4-5.2 2.9zm3.9-10.1v-2.4h-2.2v2.4zm0 4.1v-2.9h-2.2v2.9zm3.5-4.1v-2.4h-2.2v2.4zm0 4.1v-2.9h-2.2v2.9zm.4 2.9 1-1.1c.6.3 1.4.7 2.5 1.3s2 1.1 2.7 1.5c-.4.4-.8.8-1.1 1.3-.8-.8-2.5-1.7-5.1-3zm3.1-7v-2.4h-2.1v2.4zm0 4.1v-2.9h-2.1v2.9z" fill="#fbfafc"/></svg>