<svg enable-background="new 0 0 400 400" viewBox="0 0 400 400" xmlns="http://www.w3.org/2000/svg"><g fill="#010105"><path d="m207.42 138.62c4.8-1.6 10.07-2.42 14.3-4.97 7.99-4.8 15.61-4.02 23.13.04 5.88 3.18 11.28 7.23 16.89 10.9-.26.4-.53.81-.79 1.21-.07.31-.04.81-.24.92-12.72 7.2-13.37 20.64-16.51 32.6-4.01 15.23-7.28 30.65-11.05 45.95-.7 2.86-1.97 5.67-3.46 8.21-2.81 4.8-5.87 5.03-10.22 1.77-1.63-1.22-4.13-2.12-6.1-1.9-12.86 1.4-25.7 3.03-38.5 4.91-1.69.25-3.24 2.13-4.63 3.5-1.74 1.72-3.24 3.69-4.85 5.56-2.08-1.91-5.28-3.47-6.04-5.81-2.03-6.28-3.09-12.88-4.41-19.38-3.69-18.04-6.99-36.17-11.14-54.11-1.46-6.33-4.93-12.19-7.85-19.13 2.11-.34 4.25-1.05 6.37-.98 16.76.59 33.06-2.46 49.32-5.9 1.19-.25 2.81-.68 3.32-1.55 8.01-13.54 15.88-27.17 24.07-41.27-11.54.4-22.75 3.39-33.32-3.13-13.13 15.7-27.11 30.41-43.55 42.51-.45-.34-.9-.67-1.36-1.01 1.16-1.98 2.12-4.12 3.53-5.9 13.72-17.42 26.63-35.36 35.06-56.07 1.93-4.75 3.35-9.72 4.82-14.65 1.28-4.29 2.3-8.55-.2-12.95-1.58-2.8-1.5-6.37 1.32-8.06 1.86-1.11 5.36-1.12 7.33-.1 5.55 2.87 10.9 6.25 15.91 9.99 3.42 2.55 3.18 5.69.58 9.51-6.77 9.95-12.94 20.32-20.02 31.6 12.55-.77 23.35-2.78 33.6-7.17 12.49-5.35 26.61.88 31.07 14.15-19.61 8.48-33.36 23.93-47.09 39.4.24.41.47.86.71 1.31zm13.46 84.84c.17-.52.65-1.58.84-2.7 2.39-13.74 4.96-27.45 7.02-41.24 1.45-9.67 2.25-19.44 3.23-29.18.45-4.47-1.91-6.66-6.24-6.29-6.59.57-13.19 1.27-19.7 2.38-1.18.2-2.79 2.61-2.83 4.04-.26 8.66-.15 17.32-.1 25.99.01 1.01.44 2.01.71 3.14 4.35-.99 8.18-2.3 12.1-2.64 4.13-.35 8.07 1.73 8.84 5.79.73 3.84-3.31 4.8-6.35 5.65-5.06 1.41-10.15 2.69-16.04 4.24v33.11c5.73-.7 11.89-1.47 18.52-2.29zm-31.21 3.64c0-10.81 0-21.86 0-32.89-6.7-.48-13.12 3.91-20.3-.17 1.44-1.72 2.27-3.54 3.68-4.26 4.25-2.19 8.77-3.87 13.08-5.96 1.45-.7 3.66-2.02 3.69-3.1.28-10.1.17-20.2.17-30.88-9.66 2.55-18.72 4.93-28.16 7.42 2.41 25.63 4.76 50.62 7.12 75.61 7.5-2.09 14-3.9 20.72-5.77z"/><path d="m282.95 363.32c-.69-2.22-1.81-4.41-2.01-6.68-1.23-13.9-2.95-27.8-3.22-41.73-.89-46.11-1.09-92.23-1.86-138.35-.32-19.2-3.16-38.02-10.69-55.95-1.29-3.07-.84-6.88-1.2-10.34 3.33.08 7.18-.91 9.89.43 10.67 5.27 20.82 2.66 30.84-1.19 7.74-2.97 15.12-6.87 22.76-10.14 1.64-.7 3.76-.98 5.5-.63 12.29 2.51 22.5 8.61 30.88 18 2.67 2.99 2.5 5.16-.47 7.38-9.33 6.98-12.6 16.94-13.14 27.9-.95 19.1-1.07 38.25-2.31 57.33-.89 13.73-2.59 27.45-4.76 41.04-1.43 8.99-7.47 15.54-15.1 20.13-6.73 4.04-10.91 1.92-12.44-5.83-1.65-8.34-4.67-15.92-10.75-22.08-.77-.78-1.24-1.87-2.77-4.25 5.19 1.06 9.03 1.93 12.91 2.62 9.42 1.67 10.28 1.52 11.82-8.06 2.11-13.09 4.38-26.32 4.59-39.52.34-21.6-.72-43.23-1.61-64.83-.33-8.01-3-9.67-11.03-8.28-6.69 1.16-13.33 2.64-20.01 3.88-2.93.54-3.82 2.01-3.84 5.05-.22 43.47-.31 86.95-1.03 130.41-.43 26.44-1.68 52.87-3.02 79.28-.33 6.55-2.39 13.03-3.83 19.51-.38 1.68-1.45 3.2-2.2 4.8-.64.03-1.27.07-1.9.1z"/><path d="m99.98 144.12c-17.72 23.6-33.1 48.62-62.16 58.92-.42-.32-.85-.64-1.27-.95 1.21-1.76 2.2-3.73 3.66-5.24 33.88-35 57.59-76.24 74.74-121.51.82-2.16 1.37-4.43 2.01-6.66 1.32-4.6 1.73-8.95-1.31-13.32-1.05-1.5-1.34-5.12-.34-6.08 1.35-1.31 4.79-2.03 6.43-1.2 6.75 3.41 13.56 6.95 19.55 11.49 5.01 3.79 5.04 7.22 1.84 12.73-12.59 21.64-25.28 43.22-38.23 65.32-.35-.38-.01.22.51.52 13.59 7.87 17.3 19.9 15.69 34.86-1.53 14.19-2.32 28.48-2.95 42.75-1.21 27.25-1.49 54.55-3.38 81.75-.85 12.3-4.56 24.41-7.15 36.56-.36 1.67-1.51 3.39-2.76 4.6-3.33 3.21-5.65 3.02-8-1.01-6.84-11.7-9.32-23.55-4-37.05 3.16-8 4.15-17.11 4.77-25.81 2.42-33.99 4.51-68 6.22-102.03.39-7.7-1.15-15.52-1.98-23.26-.18-1.68-1.13-3.27-1.89-5.38z"/><path d="m151.91 292.37c-1.31 6.29-2.26 12.69-4.04 18.85-1.69 5.85-7.27 9.09-11.72 7.63-4.77-1.56-8.08-8.04-6.58-13.53 2.79-10.22 5.86-20.36 8.65-30.57.6-2.21.33-4.65.84-6.9.37-1.63 1.38-3.12 2.1-4.67 1.3 1.02 3.15 1.78 3.81 3.12 4.01 8.14 6.27 16.76 6.94 26.07z"/><path d="m230.95 249.64c3.72-3.7 7.8-3.42 10.97-1.21 6.36 4.44 12.45 9.35 18.16 14.6 3.03 2.79 1.43 15.07-1.81 17.82-2.98 2.54-6.25 1.76-8.39-.91-4.66-5.8-9.12-11.81-13.15-18.06-2.41-3.71-3.85-8.06-5.78-12.24z"/><path d="m190.38 285.95c-.48 1.94-.73 3.95-1.47 5.76-2.67 6.58-9.35 7.79-12.32 1.53-3.7-7.79-5.45-16.52-7.82-24.91-.24-.85 1.12-3.06 1.72-3.06 2.2.02 5.2-.05 6.43 1.28 4.38 4.71 8.24 9.93 12.11 15.09.82 1.11.89 2.77 1.35 4.31z"/><path d="m222.05 279c-.05.27.03 1.77-.62 2.82-1.41 2.28-3.04 5.92-4.86 6.09-2.28.22-6.04-1.9-7.05-4.02-3.38-7.11-6.17-14.56-8.47-22.09-1.2-3.93 1.7-6.47 5.13-5.48 5.65 1.62 15.99 15.7 15.87 22.68z"/></g><path d="m6.8 9.5c.6.3 1.3.7 2.1 1.1-.4.4-.7.8-.9 1.2-.7-.4-1.3-.8-1.8-1.1s-1.1-.6-1.6-.8c.2-.4.5-.8.7-1.2.4.2.8.5 1.5.8zm.9 6.9c-.3.6-.5 1.1-.7 1.7s-.4 1.1-.6 1.7c-.6-.4-1.1-.7-1.6-1 .7-1 1.2-1.8 1.5-2.4.3-.5.6-1.1.8-1.7.3-.6.5-1.2.8-1.8.3.3.8.6 1.3.8-.7 1.3-1.2 2.2-1.5 2.7zm.1-11c.4.3 1 .7 1.7 1.1-.5.2-.8.6-1.1 1.1-.5-.6-1-1-1.4-1.2s-.9-.6-1.5-.8c.2-.4.5-.7.9-1.1.5.3.9.6 1.4.9zm10.5 13c1 .4 2 .6 3.1.7-.4.4-.7.8-.8 1.3-.9-.2-1.9-.6-3-.9-1-.4-2-.9-2.8-1.6-.5.4-1.1.9-1.9 1.3s-1.9.9-3.3 1.2c-.1-.3-.5-.8-1.1-1.3 1 0 2.1-.3 3.2-.8 1.2-.5 1.9-1 2.3-1.7h-3.2c-.4 0-1 0-2 .1v-1.2c1 0 1.7.1 2 .1h3.3v-1h-2.3c-.2 0-.9 0-2 .1v-1.2c1.2 0 1.9.1 2 .1h2.3v-.8h-4.1c0-.7.1-1.2.1-1.6 0-.5 0-1.1-.1-1.8h4.1v-.6h-2.5c0-.6.1-1.1.1-1.6v-.6h-.5c-.4 0-1 0-1.8.1v-1.3c1.2 0 1.9.1 2.1.1h.2c0-.3 0-.8-.1-1.4h1.4c0 .6-.1 1-.1 1.4h3.4c0-.4 0-.8-.1-1.3h1.5c0 .4-.1.9-.1 1.3.7 0 1.5 0 2.5-.1v1.2c-1 0-1.8-.1-2.5-.1v.6c0 .3 0 .8.1 1.5h-2.5v.8h4.1c0 .7-.1 1.3-.1 1.8s0 1 .1 1.5h-4.1v.8h1.4c.8 0 1.8 0 2.9-.1v1.2c-1 0-1.9-.1-2.8-.1h-1.5v1h3.2c.3 0 1 0 2.1-.1v1.2c-1.1 0-1.8-.1-2.1-.1h-3.4l-.1.1c1.4 1 2.4 1.5 3.4 1.9zm-4.1-6.6v-1.3h-2.7v1.3zm2.2-4.1v-1.1h-3.4v1.1zm1.9 4.1v-1.3h-2.8v1.3z" fill="#fbfafc"/><path d="m37 6.7v2.3 5.4c1 0 1.8 0 2.2-.1v1.3c-.6 0-1.5-.1-2.5-.1h-11.9c-.7 0-1.3 0-1.8.1v-1.3c.5 0 1.1.1 2 .1v-5.2c0-1 0-1.8-.1-2.5h3.7c0-1.3 0-2.1-.1-2.5h1.5c0 .4-.1 1.3-.1 2.5h2.2c0-1.2 0-2.1-.1-2.6h1.5c0 .4-.1 1.3-.1 2.6zm-12.3 13.7c-.3-.4-.7-.8-1.1-1.1 1.1-.4 2.1-.9 2.9-1.3.8-.5 1.5-1 2.1-1.6.4.4.9.8 1.3 1.1-2.5 1.4-4.2 2.4-5.2 2.9zm3.9-10.1v-2.4h-2.2v2.4zm0 4.1v-2.9h-2.2v2.9zm3.5-4.1v-2.4h-2.2v2.4zm0 4.1v-2.9h-2.2v2.9zm.4 2.9 1-1.1c.6.3 1.4.7 2.5 1.3s2 1.1 2.7 1.5c-.4.4-.8.8-1.1 1.3-.8-.8-2.5-1.7-5.1-3zm3.1-7v-2.4h-2.1v2.4zm0 4.1v-2.9h-2.1v2.9z" fill="#fbfafc"/></svg>