<svg enable-background="new 0 0 400 400" viewBox="0 0 400 400" xmlns="http://www.w3.org/2000/svg"><path d="m362.1 8.8c1.1.8 2.1 1.6 3.1 2.4l-1 1.1c-1.3-1.1-2.3-2-3-2.5zm1.9 4.8c.5.2.9.4 1.4.5-.6 2.3-1.3 4.5-1.9 6.8l-1.5-.5c.8-2.1 1.4-4.3 2-6.8zm-1-9.4c1.3.9 2.4 1.8 3.4 2.5l-1 1.1c-1.4-1.2-2.4-2.1-3.2-2.6zm3.7 2.2v-1.4h10.3v1.2c-.5 3.6-1.8 6.8-4 9.4 1.5 1.6 3.4 2.8 5.7 3.8-.3.4-.7.8-1.1 1.4-2.3-1.1-4.1-2.5-5.6-4.1-1.6 1.6-3.6 3.1-5.9 4.3-.3-.5-.7-.9-1-1.3 2.4-1.1 4.4-2.5 6-4.1-1.9-2.5-3-5.6-3.3-9.3h-1.1zm8.8 0h-6.4c.3 3.3 1.3 6 3 8.2 2-2.3 3.1-5.1 3.4-8.2z" fill="#fcfbfa"/><path d="m385.3 3.8h1.3v2.2h2.8v-2.2h1.3v2.2h4.1v9.1h1.7v1.3h-16.9v-1.3h1.7v-9.1h4.1v-2.2zm.4 13.1.7 1.2c-1.8.9-3.8 1.9-6 2.9-.2-.4-.5-.8-.8-1.3 2.3-1 4.3-1.9 6.1-2.8zm-3.1-6.4h2.8v-3.2h-2.8zm0 4.6h2.8v-3.3h-2.8zm4-4.6h2.8v-3.2h-2.8zm0 4.6h2.8v-3.3h-2.8zm3.7 1.9c2.1.9 4.1 1.8 6.1 2.7l-.7 1.3c-2.2-1.1-4.2-2-6.1-2.9zm3.2-9.7h-2.8v3.2h2.8zm-2.8 7.8h2.8v-3.3h-2.8z" fill="#fcfbfa"/><g fill="#010100"><path d="m231.15 292.15c-2.38-8.57-5.18-15.87-3.74-23.74 3.7-20.17 5.87-40.46 5.37-60.98-.09-3.75-.71-7.48-1.08-11.06-5.84 5.48-11.38 10.84-17.1 15.99-4.2 3.78-8.51 7.49-13.05 10.84-2.2 1.62-5.06 2.32-7.62 3.44-.55-.65-1.09-1.31-1.64-1.96 1.93-2.59 3.61-5.42 5.83-7.73 15.43-16.13 28.16-34.11 37.61-54.36.9-1.93 1.66-3.93 2.88-6.84-12.98 3.67-25.37 10.15-37.41.68-.11-.64-.22-1.27-.33-1.91 3.46-.83 6.89-1.79 10.38-2.47 9.13-1.76 18.34-3.15 27.38-5.25 2.3-.53 5.1-2.8 5.93-4.95 2.32-5.98 3.74-12.32 5.75-19.37-9.97 1.64-19.53 3.67-28.74-3.31 3.25-.83 5.85-1.51 8.47-2.14.97-.23 1.99-.22 2.96-.45 20.01-4.67 21.97-7.16 24.94-28.64 2.21-15.95 3.19-31.71-1.81-47.39-1.52-4.76.32-6.42 4.93-4.51 5.92 2.46 11.97 5.04 17.17 8.7 5.56 3.92 5.03 7.59 2.93 13.93-3.86 11.61-6.79 23.54-9.99 35.36-1.02 3.78-1.67 7.67-2.66 12.29 12.79-3.83 24.61-7.47 36.5-10.87 4.12-1.18 8.33-.99 11.77 2.13 3.26 2.96 2.9 5.45-1.07 7.2-2.11.93-4.37 1.55-6.58 2.24-13.63 4.27-27.24 8.61-40.93 12.69-2.9.86-4.46 2.14-5.22 5.15-1.48 5.9-3.4 11.69-5.43 18.53 13.85-3.79 27-7.61 40.28-10.94 9.92-2.49 19.93-5.07 30.05-6.16 4.23-.45 9.13 2.4 13.19 4.7 1.71.97 3.4 5.13 2.66 6.53-1 1.88-4.28 3.22-6.75 3.55-14.98 1.99-30 3.63-45.01 5.42-.63.08-1.22.52-2.34 1.02 1.63 1.86 3.05 3.61 4.61 5.24 19.82 20.66 41.77 38.13 69.8 46.46 2.85.85 6 1.11 8.54 2.5 1.69.93 2.93 3.26 3.54 5.22.17.54-2.58 2.75-4.13 2.93-9.23 1.06-18.53 1.56-27.76 2.61-10.97 1.25-18.15-4.14-24.4-12.37-12.39-16.3-25.18-32.29-37.73-48.46-1.8-2.32-3.53-3.57-6.72-2.77-3.36.84-6.89 1.08-10.36 1.35-7.15.57-12 3.43-14.82 10.7-2.98 7.68-7.51 14.77-12.16 23.63 8.55-1.49 16.15-2.35 23.49-4.25 4.89-1.26 9.57-3.71 14.03-6.17 3.38-1.86 6.35-2.71 9.67-.32 6.7 4.82 13.61 9.39 19.95 14.66 1.67 1.39 2.82 5.44 2.05 7.41-4.85 12.32-3.17 24.94-2.42 37.5.83 13.9 3.53 27.84-.6 41.62-1.37 4.58-3.4 9-5.47 13.33-.59 1.24-2.33 2.42-3.68 2.61-.79.11-2.21-1.64-2.76-2.82-6.14-13.29-6.06-13-20.17-10.47-9.3 1.67-18.76 2.65-28.19 3.28-3.9.26-6.46 1.03-8.08 4.75-.92 1.99-2.64 3.65-4.71 6.47zm56.34-25.39c.45-1.17.84-1.78.9-2.41 2.26-23.42 1.35-46.84-.91-70.17-.79-8.12-5.89-10.96-13.41-9.01-8.82 2.29-17.64 4.62-26.36 7.25-1.46.44-3.37 2.38-3.47 3.74-.4 5.44-.16 10.94-.16 17.21 8.04-2.28 15.48-4.42 22.94-6.51 7.22-2.03 9.84-1.12 14.93 5.52-12.47 6.4-25.33 9.09-39.14 6.52v24.13c1.06-.37 1.63-.63 2.23-.77 9.68-2.23 19.34-4.59 29.07-6.59 3.54-.73 6.94.58 7.86 4.44 1.01 4.27-2.65 5.03-5.65 6.13-11.29 4.17-22.86 5.21-34.9 2.99-.43 7.95-.86 15.64-1.31 24.01 10.17-2.24 19.72-4.17 29.17-6.49 6.04-1.49 11.96-2.96 18.21.01z"/><path d="m174.61 326.89c-6.98-11.07-13.81-21.9-20.64-32.72.45-.45.9-.89 1.35-1.34 2.03.46 4.09.8 6.07 1.41 2.53.78 4.97 1.89 7.5 2.67 6.6 2.04 7.67 1.35 7.91-5.45.42-11.81.96-23.62.99-35.42.11-44.82.06-89.64.04-134.46 0-11.99-.2-23.99-.07-35.98.05-4.15-1.83-4.95-5.28-4.13-5 1.19-9.94 2.82-15.01 3.53-5.75.8-7.1 4.2-7.07 9.19.03 5.33-.26 10.65-.29 15.98-.05 10.13-.01 20.26-.01 30.35 4.71-.97 9.99-2.13 15.29-3.12 1.94-.36 4.25-.99 5.88-.28 2.22.96 3.95 3.07 5.89 4.69-1.52 1.59-2.76 4.03-4.6 4.61-5.2 1.62-10.64 2.49-15.99 3.63-2.26.48-4.53.92-7.23 1.46-.97 15.39-1.94 30.74-2.93 46.56 5.63-1.34 10.69-2.9 15.87-3.63 2.98-.42 6.4-.06 9.13 1.1 1.67.71 2.84 3.51 3.29 5.58.14.62-2.77 2.43-4.49 2.85-8.2 2-16.47 3.7-24.58 5.48-1.89 12.12-3.23 24-5.66 35.65-5.75 27.65-16.12 53.1-37.38 72.84-2.14 1.99-4.93 3.28-7.41 4.9-.49-.44-.97-.89-1.46-1.33.68-1.68 1.01-3.64 2.09-5 16.29-20.49 23.8-44.64 29.08-69.69 5.54-26.23 8.31-52.8 9.11-79.59.49-16.29 1.42-32.58 1.43-48.87.01-12.32-2.03-24.44-6.57-36.07-1.02-2.63-.92-5.69-1.34-8.55 2.71.07 5.78-.67 8.09.34 14.72 6.46 27.18-.46 39.61-6.55 9.8-4.8 21.31-2.17 26.94 7.11 2.42 3.98-.79 6.72-2.66 9.34-4.03 5.63-5.99 11.87-6.35 18.6-.52 9.63-.86 19.28-.95 28.93-.41 44.96-.73 89.93-1.01 134.89-.07 10.66.46 21.33.12 31.98-.36 11.83-5.21 21.43-16.7 28.51z"/><path d="m76.16 156.75c-5.82 7.62-11.35 15.48-17.54 22.79-8.16 9.64-16.78 18.91-25.36 28.19-1.29 1.4-3.43 2.02-5.17 2.99-.54-.43-1.09-.86-1.63-1.29.96-2.17 1.55-4.62 2.94-6.47 14.97-19.84 27.85-40.93 38.02-63.61 9.05-20.19 16.59-40.91 19.94-62.91 1.16-7.64 1.04-15.16-2.43-22.45-.9-1.9-.45-4.76.26-6.88.18-.55 3.78-.43 5.6.09 10.51 3.01 18.41 9.57 24.81 18.3 1.8 2.46 1.52 4.27-.29 6.13-6.31 6.51-9.54 14.64-12.75 22.91-6.02 15.47-12.34 30.83-18.75 46.15-1.1 2.63-1.19 4.45.66 6.69 5.96 7.21 8.37 15.35 8.09 24.92-.64 22.14-.23 44.3-.63 66.45-.37 20.61-.95 41.23-2.05 61.82-.45 8.39-2.1 16.79-3.98 25.01-.7 3.06-3.64 5.61-5.56 8.39-2.32-2.21-5.19-4.06-6.85-6.69-6.42-10.16-7.35-21.27-3.84-32.58 5.26-16.97 7.45-34.4 8.22-52.02.91-20.77 1.6-41.55 1.81-62.34.08-7.82-1.48-15.65-2.29-23.47-.41-.05-.82-.08-1.23-.12z"/><path d="m271.79 294.66c16.77 2.15 31.51 7.71 42.02 21.16 4.68 5.99 7.88 12.69 7.35 20.63-.08 1.15-.1 2.35-.44 3.43-1.87 6.02-4.94 7.08-9.14 2.34-10.34-11.67-20.25-23.72-30.28-35.67-3.26-3.89-6.34-7.92-9.51-11.89z"/><path d="m185.92 338.63c3.16-1.99 6.44-3.83 9.47-6.01 10.22-7.33 20.76-14.31 30.33-22.42 3.87-3.28 6.1-8.91 8.09-13.86 1.49-3.71 4.1-4.4 6.55-3.14 4.98 2.55 9.62 5.82 14.14 9.15 2.39 1.76 1.93 4-.52 5.72-17.81 12.49-35.95 24.4-56.97 30.97-3.36 1.05-6.9 1.52-10.36 2.26-.25-.89-.49-1.78-.73-2.67z"/><path d="m328.33 67.16c-15.01 6.58-26.71 18.07-42.13 22.33-.35-.43-.7-.86-1.05-1.29 2.03-2.24 4.17-4.39 6.07-6.74 4.27-5.28 8.82-10.4 12.45-16.1 1.92-3.02 2.92-7.11 2.94-10.72.03-4.42 2.63-4.8 4.96-3.5 6.7 3.75 13.62 7.58 16.76 16.02z"/><path d="m219.03 69.79c7.31.43 14.38 1.34 19.93 5.67 5.87 4.59 4.3 11.74 3.88 18.17-.08 1.29-.64 2.57-1.1 3.82-1.45 3.93-3.85 4.56-6.5 1.39-3.3-3.94-6.55-8-9.26-12.35-2.61-4.2-4.55-8.82-6.66-13.31-.38-.8-.18-1.88-.29-3.39z"/></g></svg>