<svg enable-background="new 0 0 400 400" viewBox="0 0 400 400" xmlns="http://www.w3.org/2000/svg"><path d="m362.1 8.8c1.1.8 2.1 1.6 3.1 2.4l-1 1.1c-1.3-1.1-2.3-2-3-2.5zm1.9 4.8c.5.2.9.4 1.4.5-.6 2.3-1.3 4.5-1.9 6.8l-1.5-.5c.8-2.1 1.4-4.3 2-6.8zm-1-9.4c1.3.9 2.4 1.8 3.4 2.5l-1 1.1c-1.4-1.2-2.4-2.1-3.2-2.6zm3.7 2.2v-1.4h10.3v1.2c-.5 3.6-1.8 6.8-4 9.4 1.5 1.6 3.4 2.8 5.7 3.8-.3.4-.7.8-1.1 1.4-2.3-1.1-4.1-2.5-5.6-4.1-1.6 1.6-3.6 3.1-5.9 4.3-.3-.5-.7-.9-1-1.3 2.4-1.1 4.4-2.5 6-4.1-1.9-2.5-3-5.6-3.3-9.3h-1.1zm8.8 0h-6.4c.3 3.3 1.3 6 3 8.2 2-2.3 3.1-5.1 3.4-8.2z" fill="#fcfbfa"/><path d="m385.3 3.8h1.3v2.2h2.8v-2.2h1.3v2.2h4.1v9.1h1.7v1.3h-16.9v-1.3h1.7v-9.1h4.1v-2.2zm.4 13.1.7 1.2c-1.8.9-3.8 1.9-6 2.9-.2-.4-.5-.8-.8-1.3 2.3-1 4.3-1.9 6.1-2.8zm-3.1-6.4h2.8v-3.2h-2.8zm0 4.6h2.8v-3.3h-2.8zm4-4.6h2.8v-3.2h-2.8zm0 4.6h2.8v-3.3h-2.8zm3.7 1.9c2.1.9 4.1 1.8 6.1 2.7l-.7 1.3c-2.2-1.1-4.2-2-6.1-2.9zm3.2-9.7h-2.8v3.2h2.8zm-2.8 7.8h2.8v-3.3h-2.8z" fill="#fcfbfa"/><g fill="#010100"><path d="m194.21 238.69c-14.36 45.23-42.61 77.34-84.67 97.34-18.56 8.83-36.9 13.52-47.25 11.49 1.91-1.8 3.13-3.55 4.81-4.46 9.92-5.4 20.06-10.4 29.92-15.91 36.42-20.38 62.08-50.1 76.84-89.17.35-.93.72-1.86.97-2.82.13-.46.02-.99.02-2.11-8.7 1.54-17.34 2.86-25.88 4.61-24.39 4.98-48.7 10.39-73.16 15-4.95.93-10.65-.22-15.6-1.73-7.14-2.18-13.91-5.57-20.84-8.44.14-.82.28-1.63.42-2.45 46.55-7.14 93.09-14.27 140.34-21.52 1.41-15.25 2.83-30.54 4.34-46.87-9.22 1.35-17.52 2.47-25.79 3.81-6.06.98-12.04 2.57-18.12 3.33-9.07 1.14-17.5-1.15-25.13-6.16-1.03-.68-1.76-1.82-3.72-3.93 4.51-1.08 7.86-2.12 11.29-2.67 19.16-3.08 38.32-6.13 57.51-8.97 3.45-.51 4.43-2.12 4.42-5.26-.08-23.79.53-47.6-.35-71.35-.53-14.21-3.05-28.4-10.66-41.07-2.24-3.73-.72-6.51 3.55-6.28 11.95.63 23.31 3.61 33.06 10.9 3.88 2.91 5.17 6.91 3.31 11.9-5.13 13.74-5.69 28.29-6.51 42.67-.9 15.94-.92 31.94-1.32 47.91-.04 1.65-.01 3.29-.01 5.27 13.12-3.13 25.72-6.53 38.51-9.01 6.11-1.19 12.57-.79 18.86-.77 1.88.01 3.89.91 5.61 1.84 5.57 3.04 5.93 8.02.17 10.31-7 2.78-14.54 4.33-21.95 5.89-13.64 2.88-27.36 5.38-41.04 8.06-.96.19-1.88.57-2.97.92-1.22 15.42-2.43 30.76-3.68 46.66 12.38-1.75 24.95-3.54 37.53-5.3 27.78-3.88 55.52-8.02 83.35-11.49 13.85-1.73 25.78 3.59 35.95 12.89 1.45 1.32 2.67 3 3.62 4.72 2.57 4.65 1.22 8.26-3.99 8.54-8.91.47-17.87-.16-26.82-.21-19.31-.12-38.62-.52-57.91-.15-14.28.27-28.55 1.54-42.82 2.41-6.14.38-12.28.79-18.41 1.36-1.72.16-3.38.94-6.21 1.77 7.98 9.46 15.09 18.41 22.75 26.87 22.61 25.01 47.75 47.03 78.72 61.1 12.61 5.73 26.12 9.6 39.43 13.62 8.06 2.44 15.25 5.6 18.92 10.86-2.83.85-5.34 2.12-7.94 2.3-17.08 1.17-34.16 2.54-51.26 2.9-7.86.16-15.8-1.66-23.66-2.87-11.37-1.76-18.24-9.92-24.37-18.45-19.52-27.16-38.71-54.55-58.03-81.85-1.24-1.72-2.43-3.49-4.15-5.98z"/><path d="m224.28 121.8c1.22-1.54 2.33-3.18 3.67-4.61 9.9-10.51 20.32-20.58 29.58-31.62 4.45-5.3 7.27-12.21 9.81-18.79 1.79-4.66 4.28-5.75 8.62-4.82 10.72 2.32 19.49 7.99 28.34 16.49-23.89 19.74-50.46 33.51-77.97 45.67-.7-.76-1.37-1.54-2.05-2.32z"/><path d="m116.27 95.49c11.6 1.15 20.92 3.85 29.17 9.49 7.9 5.4 11.77 15.87 9.58 25.02-1.09 4.58-4.93 6.79-9.43 5.11-2.12-.79-4.28-1.95-5.91-3.5-8.91-8.45-17.77-16.95-26.36-25.72-1.9-1.94-2.64-5-3.92-7.55 2.74-1.13 5.47-2.27 6.87-2.85z"/></g></svg>