<svg enable-background="new 0 0 400 400" viewBox="0 0 400 400" xmlns="http://www.w3.org/2000/svg"><path d="m2.6 9.9.8-1c.9.7 1.9 1.4 2.9 2.3l-.9 1.1c-1.1-1-2-1.8-2.8-2.4zm.5 10.6c.9-2.1 1.6-4.3 2.3-6.7.4.2.8.4 1.3.6-.7 2.1-1.5 4.3-2.2 6.6zm.3-15.2.9-.9c1 .8 2 1.6 2.8 2.4l-1 1c-.9-.9-1.8-1.7-2.7-2.5zm12.6-1.2h1.2v1.4h2.7v1.1h-2.7v2.7h-1.2v-.6h-1.8v1.3h4.9v3.8h-1.2v-.5h-3.7c0 .4-.1.9-.1 1.2h5.1v1h-5.2c0 .5-.1.9-.2 1.2h6v1h-5.2c1.1 1.3 2.9 2 5.5 2.2-.4.4-.7.8-.9 1.3-2.9-.5-4.8-1.6-5.7-3.5h-.1c-.8 1.7-2.7 2.9-5.9 3.6-.2-.4-.6-.8-.9-1.1 2.8-.6 4.6-1.4 5.4-2.5h-4.8v-1h5.3c.1-.3.2-.7.2-1.2h-4.9v-1h5c0-.4 0-.8.1-1.2h-3.6v.5h-1.2v-3.8h4.9v-1.3h-1.8v.5h-1.2v-2.7h-2.7v-1h2.7v-1.4h1.2v1.4h4.8zm-6.7 8.3h3.6c0-.4 0-.9 0-1.4h-3.6zm1.9-4.6h4.8v-1.3h-4.7v1.3zm6.7 3.2h-3.7v1.4h3.7z" fill="#fbfcfa"/><path d="m8.7 22.1h1.3v2.2h2.8v-2.2h1.3v2.2h4.1v9.1h1.7v1.3h-17v-1.3h1.7v-9.1h4.1zm.3 13.1.7 1.2c-1.8.9-3.8 1.9-6 2.9-.2-.4-.5-.8-.8-1.3 2.3-1 4.4-1.9 6.1-2.8zm-3.1-6.4h2.8v-3.2h-2.8zm0 4.6h2.8v-3.3h-2.8zm4.1-4.6h2.8v-3.2h-2.8zm0 4.6h2.8v-3.3h-2.8zm3.6 1.9c2.1.9 4.1 1.8 6.1 2.7l-.7 1.4c-2.2-1.1-4.2-2-6.1-2.9zm3.2-9.7h-2.8v3.2h2.8zm-2.7 7.8h2.8v-3.3h-2.8z" fill="#fbfcfa"/><g fill="#010104"><path d="m215 274.68c-6.95-13.59-13.51-26.44-20.39-39.9-3.42.74-7.43 1.51-11.4 2.47-9.19 2.22-18.4 4.41-27.51 6.93-1.34.37-2.88 2.31-3.18 3.76-.76 3.69-.12 9.02-4.6 9.3-2.66.17-6.53-3.66-8.23-6.62-3.52-6.15-6.03-12.89-8.81-19.45-6.54-15.39-14.12-30.1-26.03-42.18-1.23-1.25-1.96-2.99-3-4.62 5.27-3.32 10.96-3.14 15.69-1.25 14.29 5.71 27.61.6 41.19-2.4 5.65-1.25 11.26-2.72 17.08-4.14-3.01-16.66-9.39-31.74-19.41-46.15 13.3-2.5 24.18-.08 34.21 6.13 1.21.75 1.99 3.87 1.49 5.4-3.37 10.31-1.63 20.72-1.53 32.05 14.93-3.26 29.29-6.39 43.64-9.56 1.78-.39 3.66-.7 5.25-1.51 13.66-7.01 25.36-1.24 36.79 5.67 3.24 1.96 6.09 4.6 9.01 7.06 3.54 2.98 3.15 6.06.31 9.45-11.21 13.37-22.24 26.89-33.51 40.21-1.99 2.35-4.65 4.32-7.34 5.85-6.3 3.59-8.75 2.36-10.53-5.34-7.04 1.4-14.11 2.8-21.8 4.32 5.97 11.96 11.66 23.36 17.72 35.51 15-12.17 31.02-22.71 34.37-43.5 11.96 1.85 22.8 10.57 24.92 19.41.85 3.53-.44 4.83-3.13 6.58-15.47 10.07-30.78 20.38-46.13 30.62-.38.25-.62.71-1.24 1.44 18.7 18.95 38.72 35.55 65.59 41.48 3.88.86 7.17.02 8.95-3.56 4.33-8.75 8.45-17.62 12.48-26.52 1.88-4.15 3.35-8.49 5.01-12.74.72.1 1.43.2 2.15.29 0 3.45.38 6.95-.06 10.34-2.14 16.39-.12 32.51 2.62 48.63.29 1.74.03 3.61-.2 5.39-.48 3.74-2.7 4.87-6.36 4.39-29.18-3.82-54.88-15.61-77.29-34.41-9.67-8.11-18.53-17.18-27.73-25.79-12.74 5.73-25.73 12.01-39.06 17.48-30.78 12.64-62.8 20.38-96 23.04-4.64.37-9.3.83-13.93.72-2.98-.07-5.94-1.11-8.81-2.16 52.75-9.08 103.11-24.25 148.74-52.12zm-22.42-92.48c5.04 12.52 9.7 24.31 14.67 35.97.41.97 3.08 1.66 4.51 1.41 7.64-1.35 15.23-2.95 22.79-4.71 1.58-.37 3.57-1.38 4.27-2.69 4.13-7.74 8.49-15.44 11.72-23.58 3.58-9.03.91-12.59-8.79-12.33-8.76.23-17.53 1.07-26.24 2.1-7.21.85-14.32 2.36-22.93 3.83zm-57.44 12.98c5.06 14.12 9.84 27.47 14.76 41.18 13.96-4 27.4-7.85 41.22-11.81-4.52-12.98-8.87-25.44-13.31-38.19-14.39 2.97-28.28 5.84-42.67 8.82z"/><path d="m228.93 94.75c1.63 1.11 3.39 2.07 4.87 3.36 3.97 3.44 3.46 7.05-1.61 8.25-12.09 2.86-24.23 5.6-36.48 7.66-17.82 2.99-35.73 5.45-53.64 7.84-2.88.38-4.32 1.46-5.7 3.79-3.52 5.96-7.82 6.2-11.31.34-3.05-5.11-5.22-10.74-7.93-16.06-5.26-10.35-10.68-20.62-15.87-31-1.06-2.12-2.55-5.15-1.77-6.74.74-1.49 4.21-2.19 6.5-2.22 4.46-.06 9 .21 13.38 1.02 11.17 2.07 21.83-1.06 32.46-3.22 20.28-4.11 40.42-8.96 60.56-13.75 3.29-.78 6.22-3.01 9.45-4.18 1.93-.7 4.38-1.39 6.18-.8 8.16 2.68 16.2 5.74 24.21 8.84 1.48.57 2.72 1.9 3.92 3.03 5.95 5.63 5.44 9.11-1.82 12.69-10.9 5.37-19.9 12.84-25.4 21.15zm-101.2-13.73c2.97 10.37 5.56 19.77 8.48 29.08.32 1.01 2.6 2.11 3.88 2 5.94-.51 11.88-1.18 17.74-2.26 15.48-2.84 30.92-5.87 46.35-8.97 1.86-.37 4.35-1.18 5.18-2.59 3.92-6.71 7.86-13.5 10.84-20.66 2.75-6.63.42-9.4-6.59-9.43-2.33-.01-4.69-.12-6.98.24-26.03 4.11-52.04 8.29-78.9 12.59z"/><path d="m232.11 124.42c18.93-1.35 26.08 8.35 29.32 19.61 1.52 5.27-1.19 8.33-6.08 6.13-12.51-5.62-24.77-11.84-37.01-18.05-1.49-.76-2.25-2.96-3.35-4.49 1.57-.69 3.09-1.77 4.73-2 4.11-.61 8.26-.83 12.39-1.2z"/></g></svg>