<svg enable-background="new 0 0 400 400" viewBox="0 0 400 400" xmlns="http://www.w3.org/2000/svg"><path d="m2.6 9.9.8-1c.9.7 1.9 1.4 2.9 2.3l-.9 1.1c-1.1-1-2-1.8-2.8-2.4zm.5 10.6c.9-2.1 1.6-4.3 2.3-6.7.4.2.8.4 1.3.6-.7 2.1-1.5 4.3-2.2 6.6zm.3-15.2.9-.9c1 .8 2 1.6 2.8 2.4l-1 1c-.9-.9-1.8-1.7-2.7-2.5zm12.6-1.2h1.2v1.4h2.7v1.1h-2.7v2.7h-1.2v-.6h-1.8v1.3h4.9v3.8h-1.2v-.5h-3.7c0 .4-.1.9-.1 1.2h5.1v1h-5.2c0 .5-.1.9-.2 1.2h6v1h-5.2c1.1 1.3 2.9 2 5.5 2.2-.4.4-.7.8-.9 1.3-2.9-.5-4.8-1.6-5.7-3.5h-.1c-.8 1.7-2.7 2.9-5.9 3.6-.2-.4-.6-.8-.9-1.1 2.8-.6 4.6-1.4 5.4-2.5h-4.8v-1h5.3c.1-.3.2-.7.2-1.2h-4.9v-1h5c0-.4 0-.8.1-1.2h-3.6v.5h-1.2v-3.8h4.9v-1.3h-1.8v.5h-1.2v-2.7h-2.7v-1h2.7v-1.4h1.2v1.4h4.8zm-6.7 8.3h3.6c0-.4 0-.9 0-1.4h-3.6zm1.9-4.6h4.8v-1.3h-4.7v1.3zm6.7 3.2h-3.7v1.4h3.7z" fill="#fbfcfa"/><path d="m8.7 22.1h1.3v2.2h2.8v-2.2h1.3v2.2h4.1v9.1h1.7v1.3h-17v-1.3h1.7v-9.1h4.1zm.3 13.1.7 1.2c-1.8.9-3.8 1.9-6 2.9-.2-.4-.5-.8-.8-1.3 2.3-1 4.4-1.9 6.1-2.8zm-3.1-6.4h2.8v-3.2h-2.8zm0 4.6h2.8v-3.3h-2.8zm4.1-4.6h2.8v-3.2h-2.8zm0 4.6h2.8v-3.3h-2.8zm3.6 1.9c2.1.9 4.1 1.8 6.1 2.7l-.7 1.4c-2.2-1.1-4.2-2-6.1-2.9zm3.2-9.7h-2.8v3.2h2.8zm-2.7 7.8h2.8v-3.3h-2.8z" fill="#fbfcfa"/><g fill="#010104"><path d="m143.33 228.45c3.94-5.13 9.1-4.87 13.66-5.4 44.05-5.12 87.83-11.78 131.28-20.74 12.78-2.64 25.86-4.34 38.88-5.14 9.7-.6 19.05 2.57 27.17 8.33 3.73 2.64 8.04 6.21 6.35 10.77-1.76 4.75-7.42 3.92-11.87 3.5-23.42-2.22-46.85-2.19-70.23.17-20.65 2.08-41.24 4.68-61.85 7.19-5.38.66-10.69 1.83-17.16 2.96 4.26 2.56 7.47 4.56 10.74 6.45 7 4.03 5.52 10.66 4.3 16.45-2.9 13.67-2.66 27.42-2.34 41.21.01.46.32.91.75 2.06 9.39-1.3 18.87-2.65 28.36-3.91 21.7-2.87 43.37-6.12 65.14-8.37 11.52-1.19 22.28 3.18 32.27 8.65 2.29 1.25 3.35 4.74 4.98 7.2-2.62 1.44-5.22 4.08-7.85 4.11-13.3.12-26.61-.57-39.92-.73-21.98-.25-44.01.42-65.31 6.16-11.08 2.99-21.52 8.47-32.1 13.16-6.58 2.92-7.81 2.84-11.71-3.19-5.29-8.18-4.18-17.98 2.7-24.75 8.31-8.18 9.38-18.66 7.85-29.22-1.4-9.64-4.42-19.03-6.63-28.56-.76-3.28-2.65-4.32-5.78-3.61-2.27.51-4.58.88-6.8 1.55-12.46 3.71-23.43-.4-34.88-6.3z"/><path d="m266.28 123.74c-16.62 1.95-32.59 3.82-49.18 5.77-.31 6.15-.55 12.23-.96 18.29-.23 3.31-.46 6.68-1.32 9.85-.38 1.38-2.2 2.98-3.61 3.27-1.02.21-3.27-1.35-3.58-2.5-1.81-6.69-3.25-13.48-4.71-20.26-.37-1.73-.36-3.54-.56-5.72-8.92 1.83-17.28 3.68-25.71 5.25-9.24 1.71-17.18-1.51-26.06-7.52 3.53-1.41 5.73-2.77 8.09-3.15 13.9-2.27 27.83-4.32 42.88-6.62-1.8-7.06-2.71-14.42-5.59-20.92-3.59-8.11-8.85-15.47-13.28-23.21-1.11-1.93-1.83-4.09-2.73-6.14 2.02-.81 3.98-1.95 6.08-2.37 10.42-2.07 19.19 1.49 25.82 9.3 2.19 2.58 2.93 6.97 3.07 10.58.4 9.94.14 19.91.14 30.56 7.55-.93 14.41-1.74 21.26-2.64 9.22-1.21 18.41-2.57 27.64-3.69 3.79-.46 6.08-1.51 6.64-6.04 2.16-17.33 4.35-34.6 1.48-52.06-.83-5.03 1.18-7.61 6.09-6.88 4.17.62 8.51 1.81 12.15 3.86 4.59 2.58 8.77 6.04 12.71 9.58 6.55 5.9 6.66 8.35 1.24 15.42-7.28 9.49-12.24 20.1-16.18 32.47 8.02-1.31 15.42-2.47 22.8-3.75 2.11-.37 4.22-.94 6.24-1.68 12.55-4.63 23.81-1.08 34.62 5.36 1.12.67 2.12 1.64 2.99 2.63 3.9 4.41 2.86 7.94-2.81 9.44-1.59.42-3.26.68-4.9.74-19.77.76-39.55 1.55-59.33 2.11-3.92.11-5.67 1.54-7.14 5.24-3.77 9.55-8.22 18.83-12.41 28.21-.27.61-.51 1.34-1 1.71-2.14 1.62-4.37 3.12-6.57 4.66-.32-2.6-1.3-5.32-.85-7.78 1.9-10.24 4.22-20.43 6.54-31.37z"/><path d="m66.41 245.55c-2.17-2.06-4.18-3.11-4.8-4.71-2.16-5.5-4.85-11.08-5.5-16.84-1.35-12.03-.84-24.29-2.35-36.29-1.74-13.77-4.21-27.53-7.63-40.97-1.53-6-6.28-11.14-9.29-16.82-.97-1.83-1.07-4.13-1.56-6.21 1.77-.33 3.63-1.16 5.3-.88 4.07.66 8.38 1.18 12 2.96 5.59 2.74 10.76 2.32 16.28.37 9.23-3.26 18.67-5.98 27.72-9.66 4.8-1.95 9.1-5.27 13.38-8.32 2.59-1.84 5.1-2.68 7.75-.92 8.81 5.84 17.51 11.85 26.26 17.78 3.75 2.54 3.51 5.69.56 8.3-12.51 11.08-17.23 26.06-21.55 41.37-.96 3.39-.4 5.45 2.28 7.68 3.18 2.64 6.16 5.64 8.71 8.89 4.37 5.56 2.99 8.31-3.95 9.78-18.17 3.85-36.27 8.04-54.46 11.75-3.9.8-4.56 2.54-4.58 6.04-.05 6.95-.42 13.91-1.09 20.82-.18 1.78-1.96 3.41-3.48 5.88zm-1.31-107.68c2 20.94 4.01 41.96 6.09 63.66 10.51-3.42 20.3-6.48 29.98-9.83 3.88-1.34 6.34-4.41 6.67-8.59 1.09-13.7 2.44-27.4 2.88-41.12.5-15.54-2.66-17.72-17.55-13.25-9.18 2.75-18.23 5.91-28.07 9.13z"/><path d="m265.98 188.93c.05 6.36-6.71 11.26-12.03 9.14-13.44-5.39-25.32-13.1-34.9-24.08-.96-1.1-2.06-3.24-1.6-4.11.58-1.09 2.84-2.13 4.13-1.88 11.49 2.23 23.19 3.94 34.26 7.53 5.43 1.75 8.96 7.67 10.14 13.4z"/></g></svg>