<svg enable-background="new 0 0 400 400" viewBox="0 0 400 400" xmlns="http://www.w3.org/2000/svg"><path d="m2.6 9.9.8-1c.9.7 1.9 1.4 2.9 2.3l-.9 1.1c-1.1-1-2-1.8-2.8-2.4zm.5 10.6c.9-2.1 1.6-4.3 2.3-6.7.4.2.8.4 1.3.6-.7 2.1-1.5 4.3-2.2 6.6zm.3-15.2.9-.9c1 .8 2 1.6 2.8 2.4l-1 1c-.9-.9-1.8-1.7-2.7-2.5zm12.6-1.2h1.2v1.4h2.7v1.1h-2.7v2.7h-1.2v-.6h-1.8v1.3h4.9v3.8h-1.2v-.5h-3.7c0 .4-.1.9-.1 1.2h5.1v1h-5.2c0 .5-.1.9-.2 1.2h6v1h-5.2c1.1 1.3 2.9 2 5.5 2.2-.4.4-.7.8-.9 1.3-2.9-.5-4.8-1.6-5.7-3.5h-.1c-.8 1.7-2.7 2.9-5.9 3.6-.2-.4-.6-.8-.9-1.1 2.8-.6 4.6-1.4 5.4-2.5h-4.8v-1h5.3c.1-.3.2-.7.2-1.2h-4.9v-1h5c0-.4 0-.8.1-1.2h-3.6v.5h-1.2v-3.8h4.9v-1.3h-1.8v.5h-1.2v-2.7h-2.7v-1h2.7v-1.4h1.2v1.4h4.8zm-6.7 8.3h3.6c0-.4 0-.9 0-1.4h-3.6zm1.9-4.6h4.8v-1.3h-4.7v1.3zm6.7 3.2h-3.7v1.4h3.7z" fill="#fbfcfa"/><path d="m8.7 22.1h1.3v2.2h2.8v-2.2h1.3v2.2h4.1v9.1h1.7v1.3h-17v-1.3h1.7v-9.1h4.1zm.3 13.1.7 1.2c-1.8.9-3.8 1.9-6 2.9-.2-.4-.5-.8-.8-1.3 2.3-1 4.4-1.9 6.1-2.8zm-3.1-6.4h2.8v-3.2h-2.8zm0 4.6h2.8v-3.3h-2.8zm4.1-4.6h2.8v-3.2h-2.8zm0 4.6h2.8v-3.3h-2.8zm3.6 1.9c2.1.9 4.1 1.8 6.1 2.7l-.7 1.4c-2.2-1.1-4.2-2-6.1-2.9zm3.2-9.7h-2.8v3.2h2.8zm-2.7 7.8h2.8v-3.3h-2.8z" fill="#fbfcfa"/><g fill="#010104"><path d="m28.4 263.5c1.92-1.24 3.73-2.7 5.76-3.7 35.46-17.29 68.63-38.02 97.73-64.88 15.97-14.74 30.07-31.11 42.12-49.21 1.64-2.46 2.65-5.33 3.94-8.02 1.29-2.67 3.27-3.68 6.11-2.51 1.99.82 4 1.63 5.93 2.59 8.13 4.04 9.42 7.2 6.04 16.16 13.2 7.98 26.34 16.4 39.92 24.06 33.33 18.8 68.43 33.11 106.21 40.24 7.33 1.38 14.74 2.37 22.11 3.58 1.47.24 3.17.27 4.29 1.07 1.44 1.02 3.36 2.74 3.32 4.11-.03 1.37-2.01 3.52-3.5 3.9-8.83 2.23-17.68 4.77-26.68 5.81-10.65 1.23-21.5 1.73-32.19 1.17-5.14-.27-10.71-2.82-15.06-5.82-32.68-22.6-65.1-45.56-97.59-68.43-2.15-1.51-4.21-3.16-6.33-4.76-7.37 7.94-14.35 15.72-21.62 23.23-32.52 33.57-70.34 59.26-114.04 76.1-5.73 2.21-11.51 4.35-17.38 6.15-2.65.82-5.58.74-8.38 1.07-.25-.64-.48-1.28-.71-1.91z"/><path d="m156.71 100.64c-.21 1.93.04 3.8-.67 5.16-1.2 2.27-2.59 5.17-4.66 6.08-3.12 1.38-6.64-.29-7.83-3.54-1.95-5.35-3.46-10.93-4.51-16.54-1.82-9.69-3.89-19.25-9.91-27.33-2.22-2.98-5.03-5.52-7.8-8.51 4.87-4.7 10.18-2.8 15.1-2.83 1.29-.01 2.88.21 3.81.97 7.18 5.84 15.3 4.02 23.18 2.74 14.87-2.42 29.69-5.13 44.48-7.99 3.02-.58 6.22-1.79 8.63-3.64 4.85-3.71 9.88-4.2 14.89-1.45 7.84 4.29 15.52 8.93 22.97 13.86 3.56 2.36 3.5 6.03.24 6.91-9.01 2.43-12.9 9.9-17.84 16.73.35.61.73 1.13.96 1.71 1.04 2.62 3.63 6.54 2.74 7.65-2.04 2.54-5.66 4.9-8.85 5.23-9.23.96-18.58.65-27.86 1.25-15.54 1-31.06 2.32-47.07 3.54zm-1.44-8.79c1.35 0 2.17.08 2.98-.01 16.33-1.74 32.66-3.49 48.99-5.27 6.87-.75 10.51-5.32 12.52-11.33.88-2.62.86-5.54 1.26-8.32.82-5.68-.73-7.78-6.37-7.59-5.79.2-11.61.64-17.34 1.49-8.67 1.29-17.24 3.22-25.9 4.52-5.84.87-11.77 1.12-18.35 1.71.75 8.51 1.46 16.38 2.21 24.8z"/><path d="m220.21 111.06c14.15 2.61 28.16.88 41.89-2.39 5.94-1.42 11.27-5.26 17.03-7.62 2.6-1.07 5.83-2.22 8.35-1.61 10.44 2.54 18.78 9.05 26.65 16 .94.83.77 4.09-.08 5.5-1.02 1.7-3.49 2.44-5.02 3.92-4.12 3.98-8.47 7.83-11.96 12.32-2.34 3.02-2.65 6.74-.09 10.63 2.81 4.28.97 7.22-4.81 7.96-10.04 1.29-20.13 2.23-30.2 3.29-6.42.68-12.86 1.14-19.23 2.15-1.35.21-2.41 2.37-3.57 3.66-1.63 1.81-3.33 5.2-4.82 5.1-2.18-.14-5.51-2.43-6.04-4.41-2.25-8.45-3.75-17.11-5.34-25.72-1.48-8-2.35-16.09-9.4-21.81-3.07-2.49-1.74-6.16 2.16-6.93 1.44-.28 2.98-.04 4.48-.04zm15.51 9.87c.91 9.54 1.91 20.02 2.94 30.74 10.63-1.43 21.26-2.79 31.87-4.32 3.5-.5 5.44-2.82 6.19-6.29 1.19-5.5 2.66-10.95 3.78-16.47 1.41-6.96-.28-8.99-7.43-8.24-12.43 1.32-24.83 3.03-37.35 4.58z"/><path d="m98.95 175.29c-1.07 3.3-1.58 6.13-2.86 8.56-1.81 3.45-4.6 3.64-6.35.17-3.28-6.49-6.62-13.1-8.61-20.04-3.35-11.67-6.04-23.45-13.27-33.58-2.16-3.02-.97-5.56 2.67-6.19 1.54-.27 3.26.21 4.86.53 19.21 3.91 37.38.39 55.15-7.19 3.28-1.4 7.86-2.18 10.99-1 7.19 2.73 14.13 6.41 20.64 10.54 4.91 3.11 4.43 6.57-.7 9.48-5.58 3.17-9.57 7.6-12.25 13.36-1.31 2.82-1.32 5.01 1.05 7.59 5.83 6.38 4.74 9.63-3.94 11.01-8.18 1.3-16.53 1.47-24.74 2.61-7.69 1.08-15.29 2.78-22.64 4.15zm-2.02-9.01c10.32-1.67 20.29-3.06 30.15-5.06 1.9-.39 4.15-2.86 4.82-4.85 1.88-5.63 3.22-11.46 4.38-17.29 1.14-5.74-1.01-8.48-6.82-7.98-12.74 1.1-25.43 2.72-38.37 4.15 1.98 10.49 3.83 20.36 5.84 31.03z"/><path d="m260.15 272.96c-8.48 6.91-16.5 13.59-24.67 20.08-37.32 29.64-79.5 49.05-125.92 59.39-3.02.67-6.33.09-9.5.09-.18-.6-.37-1.2-.55-1.8 3.25-1.6 6.43-3.36 9.76-4.78 17.97-7.67 36.4-14.41 53.88-23.05 26.2-12.95 48.63-31.24 67.93-53.19 3.19-3.63 5.29-8.35 7.31-12.84 2.1-4.68 2.77-5.24 7.2-2.41 6.83 4.36 10.7 11.12 14.56 18.51z"/><path d="m131.7 288.84c1.87-1.38 3.59-3.05 5.63-4.11 21.35-11.07 41.39-24.03 58.77-40.79 6.33-6.11 12.64-12.19 16.19-20.62 2.06-4.89 4.59-5.54 8.95-2.28 3.64 2.72 6.55 6.44 9.66 9.82 2.04 2.22 1.34 4.27-.93 5.88-19.08 13.5-37.74 27.66-57.44 40.18-9.63 6.12-21.15 9.31-31.94 13.49-2.38.92-5.33.4-8.01.54-.3-.71-.59-1.41-.88-2.11z"/><path d="m133.02 252.85c-1.53-.94-2.71-1.66-3.88-2.37.77-1.18 1.28-2.7 2.34-3.48 8.57-6.3 17.49-12.15 25.82-18.75 11.64-9.23 22.35-19.45 28.91-33.17 1.21-2.53 1.86-5.31 3.06-7.85 1.27-2.68 3.12-4.54 6.16-1.97 4.03 3.4 8.11 6.76 11.97 10.35 2.28 2.12 1.9 4.74-.5 6.41-19.56 13.67-34.82 33.02-56.94 43.3-5.55 2.58-11.18 4.98-16.94 7.53z"/></g></svg>