<svg enable-background="new 0 0 400 400" viewBox="0 0 400 400" xmlns="http://www.w3.org/2000/svg"><path d="m2.6 9.9.8-1c.9.7 1.9 1.4 2.9 2.3l-.9 1.1c-1.1-1-2-1.8-2.8-2.4zm.5 10.6c.9-2.1 1.6-4.3 2.3-6.7.4.2.8.4 1.3.6-.7 2.1-1.5 4.3-2.2 6.6zm.3-15.2.9-.9c1 .8 2 1.6 2.8 2.4l-1 1c-.9-.9-1.8-1.7-2.7-2.5zm12.6-1.2h1.2v1.4h2.7v1.1h-2.7v2.7h-1.2v-.6h-1.8v1.3h4.9v3.8h-1.2v-.5h-3.7c0 .4-.1.9-.1 1.2h5.1v1h-5.2c0 .5-.1.9-.2 1.2h6v1h-5.2c1.1 1.3 2.9 2 5.5 2.2-.4.4-.7.8-.9 1.3-2.9-.5-4.8-1.6-5.7-3.5h-.1c-.8 1.7-2.7 2.9-5.9 3.6-.2-.4-.6-.8-.9-1.1 2.8-.6 4.6-1.4 5.4-2.5h-4.8v-1h5.3c.1-.3.2-.7.2-1.2h-4.9v-1h5c0-.4 0-.8.1-1.2h-3.6v.5h-1.2v-3.8h4.9v-1.3h-1.8v.5h-1.2v-2.7h-2.7v-1h2.7v-1.4h1.2v1.4h4.8zm-6.7 8.3h3.6c0-.4 0-.9 0-1.4h-3.6zm1.9-4.6h4.8v-1.3h-4.7v1.3zm6.7 3.2h-3.7v1.4h3.7z" fill="#fbfcfa"/><path d="m8.7 22.1h1.3v2.2h2.8v-2.2h1.3v2.2h4.1v9.1h1.7v1.3h-17v-1.3h1.7v-9.1h4.1zm.3 13.1.7 1.2c-1.8.9-3.8 1.9-6 2.9-.2-.4-.5-.8-.8-1.3 2.3-1 4.4-1.9 6.1-2.8zm-3.1-6.4h2.8v-3.2h-2.8zm0 4.6h2.8v-3.3h-2.8zm4.1-4.6h2.8v-3.2h-2.8zm0 4.6h2.8v-3.3h-2.8zm3.6 1.9c2.1.9 4.1 1.8 6.1 2.7l-.7 1.4c-2.2-1.1-4.2-2-6.1-2.9zm3.2-9.7h-2.8v3.2h2.8zm-2.7 7.8h2.8v-3.3h-2.8z" fill="#fbfcfa"/><g fill="#010104"><path d="m218.93 186.43c11.62-4.63 21.67-.11 26.17 12.33-9.3 0-18.29 0-28.15 0-.98 18.75-1.91 36.54-2.86 54.59 5.26.55 10.01 1.01 14.74 1.56 5.56.64 9.79 3.61 11.95 8.59.87 2.01.43 5.3-.73 7.21-.79 1.3-4.03 2-5.89 1.61-6.6-1.41-13.08-3.4-19.44-5.13-3.22 16.44-6.08 32.97-9.78 49.3-2.36 10.41-7.59 19.56-16.49 26-5.33 3.86-9 2.88-12.15-2.91-4.99-9.19-9.97-18.38-14.73-27.69-.89-1.74-.75-4-1.08-6.02 2.03.05 4.15-.28 6.05.24 3.18.87 6.24 2.23 9.32 3.47 4.63 1.86 8.79.59 10.6-3.65 3.29-7.71 5.99-15.73 8.24-23.82 1.45-5.22 1.67-10.78 2.54-16.88-4.88.3-9.26.6-13.65.82-13.43.68-26.9.94-40.28 2.13-8.4.75-15.86 4.65-22.37 10.16-5.01 4.23-7.8 3.31-9.27-3.12-1.41-6.17-1.2-11.7 3.38-17.17 8.4-10.05 11.58-22.63 14.79-35.04 1.19-4.59 2.08-9.25 3.37-15.08-11.34 6.29-18.91.93-27.26-6.54 2.48-.69 3.91-1.34 5.36-1.44 7.14-.46 14.28-.9 21.43-1.09 3.3-.09 5.03-.79 5.37-4.67.96-11.24 3.08-22.41 3.45-33.65.19-5.89-1.98-11.97-3.76-17.75-.88-2.86-.36-4.31 2.18-4.79 3.24-.62 6.59-.92 9.9-.96 13.41-.18 26.45-2.31 39-7.1 1.7-.65 3.73-1.13 4.91-2.36 5.2-5.39 10.38-2.3 15.46-.18 6.39 2.67 12.51 6 14.62 13.26.65 2.22.23 4.98-.38 7.31-3.31 12.59-4.47 25.38-4.56 38.46zm-16.1 14.57c-3.36.41-6.12.73-8.88 1.1-14.63 1.96-29.27 3.9-43.88 5.98-1.18.17-2.9 1.21-3.19 2.19-4.33 14.72-8.46 29.51-12.7 44.46 21.72-.54 42.89-1.06 64.34-1.6 1.41-17.02 2.82-34.17 4.31-52.13zm-52.77-3.96c18.03-2.52 35.36-4.94 52.96-7.4.48-5.22 1.33-10 1.28-14.78-.1-8.94-.13-17.94-1.31-26.77-.89-6.67-3.65-7.98-10.27-6.69-11.06 2.16-22.1 4.49-33.1 6.95-1.01.23-2.28 1.81-2.46 2.93-2.42 14.89-4.66 29.82-7.1 45.76z"/><path d="m247.93 180.45c2.6 3.1 5.78 5.88 7.67 9.37 4.51 8.3 8.33 16.96 12.56 25.42 3.19 6.37 6.57 12.65 11.18 19.12 1.27-4.11 2.91-8.14 3.75-12.33 3.35-16.72 8.16-33.28 7.59-50.52-.21-6.33-2.16-12.59-3.17-18.91-.21-1.34-.28-3.55.43-3.99 1.2-.73 3.47-1.03 4.58-.35 4.93 3.04 9.73 6.33 14.32 9.86 2.48 1.91 4.76 4.26 6.53 6.83 1.08 1.57 2.06 4.61 1.27 5.83-5.56 8.66-4.6 18.94-7.52 28.2-5.02 15.95-9.98 31.92-15.45 47.72-1.14 3.29-.98 5.32.9 8.04 19.03 27.49 44.66 46.15 76.01 57.28 2.45.87 4.95 2.04 6.93 3.67 2.51 2.06 2.47 4.38-1.15 5.35-2.06.55-4.24.99-6.35.91-15.12-.54-30.24-.98-45.33-1.97-6.73-.44-12.45-2.83-16.4-9.46-8.39-14.07-17.62-27.64-26.73-41.77-13.65 21.37-33.36 34.14-58.46 39.33-.77-4.58 2.24-6.23 5.1-7.83 19.2-10.75 32.96-26.59 43.39-45.68 1.52-2.79 1.49-5.04.35-7.89-7.72-19.25-15.33-38.55-22.83-57.88-.88-2.27-.95-4.86-1.4-7.3.73-.36 1.48-.7 2.23-1.05z"/><path d="m59.06 208.14c-.71 6.83-.95 12.82-2.15 18.62-.43 2.05-3.23 3.6-4.94 5.37-1.46-1.79-3.83-3.39-4.23-5.39-1.6-8.11-2.74-16.32-3.79-24.53-2.58-20.06-4.68-40.21-10.98-59.56-1.27-3.91-3.17-7.65-5.08-11.31-2.32-4.46-1.26-6.9 3.78-6.61 5.09.29 10.11 1.72 15.2 2.33 3.36.4 7.03 1.06 10.13.14 8.25-2.42 16.61-4.94 24.27-8.74 5.94-2.95 11.29-2.98 17.2-1.23 8.52 2.53 15.07 7.5 19.51 15.36-9.03 14.14-14.5 29.78-19.3 45.71-.85 2.82-.44 4.58 1.85 6.45 2.68 2.19 5.21 4.65 7.4 7.32 2.44 2.96 1.6 5.17-2.3 5.97-13.15 2.68-26.3 5.34-39.43 8.09-2.58.55-5.08 1.43-7.14 2.01zm-.43-9.74c8.41-3.73 16.57-7.27 24.64-11.03.87-.41 1.63-2.06 1.65-3.16.37-15.6.78-31.2.78-46.8 0-5.56-2.43-7.4-7.72-5.71-7.39 2.36-14.58 5.42-21.67 8.59-1.14.51-1.98 3.19-1.85 4.78.72 8.94 1.95 17.83 2.68 26.77.69 8.57.98 17.18 1.49 26.56z"/><path d="m270.14 131.19c14.41-1.62 27.68-5.62 40.65-10.84 8.99-3.62 18.21-6.6 28.07-5.44 3.69.43 7.34 1.83 10.78 3.31 1.36.58 3.04 2.71 2.89 3.93-.2 1.65-1.71 3.82-3.22 4.49-3.45 1.53-7.21 2.48-10.92 3.3-19.59 4.37-39.18 8.78-58.85 12.78-3.76.76-7.97.2-11.8-.59-3.11-.64-4.6.21-6.55 2.51-6.23 7.35-12.75 14.46-19.38 21.45-1.53 1.62-3.97 2.38-5.99 3.54-.46-.41-.93-.82-1.39-1.23.86-1.97 1.43-4.13 2.62-5.88 20.37-29.93 33.04-63.19 42.29-97.9 1.94-7.29 1.44-14.36-3.23-20.88-1.11-1.55-1.37-4.64-.56-6.32.51-1.05 3.95-1.48 5.73-.97 10.23 2.91 18.44 9.17 25.23 17.08 1.32 1.54 1.23 5.56.19 7.65-5.6 11.28-11.76 22.28-17.61 33.43-6.25 11.91-12.38 23.88-18.95 36.58z"/><path d="m119.71 144.98c1.15-1.97 2.15-4.05 3.46-5.9 14.43-20.36 26.61-41.84 32.07-66.46 1.82-8.22 2.67-16.69 3.42-25.09.21-2.38-1.4-4.94-2.27-7.39-.54-1.52-2.17-3.83-1.73-4.3 1.35-1.44 3.78-3.34 5.22-2.95 6.01 1.61 11.88 3.83 17.66 6.18 1.91.78 4.47 2.37 4.84 4.01.58 2.59.16 5.79-.89 8.28-5.74 13.59-11.81 27.03-17.74 40.54-.09.22.13.57.36 1.48 6.12-2 12.25-3.91 18.31-6.01 10.98-3.81 21.88-7.87 32.9-11.55 6.07-2.03 12.22-1.56 17.82 1.7 5.96 3.47 6.14 7.76-.1 10.5-6.92 3.04-14.27 5.6-21.7 6.89-15.19 2.64-30.54 4.43-45.85 6.29-4.39.53-7.39 1.77-9.82 5.97-7.98 13.76-18.27 25.77-29.84 36.67-1.35 1.27-3.35 1.87-5.05 2.78-.36-.57-.71-1.11-1.07-1.64z"/><path d="m183.1 234.83c-.25 1.13-.16 3.06-1.05 4.29-1.76 2.44-4.06 4.5-6.13 6.71-1.77-1.78-4.27-3.26-5.18-5.41-2.58-6.09-4.78-12.38-6.52-18.76-.49-1.81.53-5.09 1.96-6.05 1.17-.79 4.58.24 5.96 1.55 5 4.75 10.49 9.39 10.96 17.67z"/><path d="m167.68 157.99c10.91-.84 21.59 9.98 19.59 20.15-.56 2.86-3.36 5.28-5.13 7.9-2.25-1.79-5.26-3.16-6.58-5.48-2.25-3.98-3.53-8.52-5.05-12.89-1.05-3.05-1.82-6.2-2.83-9.68z"/></g></svg>