<svg enable-background="new 0 0 400 400" viewBox="0 0 400 400" xmlns="http://www.w3.org/2000/svg"><path d="m362.1 8.8c1.1.8 2.1 1.6 3.1 2.4l-1 1.1c-1.3-1.1-2.3-2-3-2.5zm1.9 4.8c.5.2.9.4 1.4.5-.6 2.3-1.3 4.5-1.9 6.8l-1.5-.5c.8-2.1 1.4-4.3 2-6.8zm-1-9.4c1.3.9 2.4 1.8 3.4 2.5l-1 1.1c-1.4-1.2-2.4-2.1-3.2-2.6zm3.7 2.2v-1.4h10.3v1.2c-.5 3.6-1.8 6.8-4 9.4 1.5 1.6 3.4 2.8 5.7 3.8-.3.4-.7.8-1.1 1.4-2.3-1.1-4.1-2.5-5.6-4.1-1.6 1.6-3.6 3.1-5.9 4.3-.3-.5-.7-.9-1-1.3 2.4-1.1 4.4-2.5 6-4.1-1.9-2.5-3-5.6-3.3-9.3h-1.1zm8.8 0h-6.4c.3 3.3 1.3 6 3 8.2 2-2.3 3.1-5.1 3.4-8.2z" fill="#fcfbfa"/><path d="m385.3 3.8h1.3v2.2h2.8v-2.2h1.3v2.2h4.1v9.1h1.7v1.3h-16.9v-1.3h1.7v-9.1h4.1v-2.2zm.4 13.1.7 1.2c-1.8.9-3.8 1.9-6 2.9-.2-.4-.5-.8-.8-1.3 2.3-1 4.3-1.9 6.1-2.8zm-3.1-6.4h2.8v-3.2h-2.8zm0 4.6h2.8v-3.3h-2.8zm4-4.6h2.8v-3.2h-2.8zm0 4.6h2.8v-3.3h-2.8zm3.7 1.9c2.1.9 4.1 1.8 6.1 2.7l-.7 1.3c-2.2-1.1-4.2-2-6.1-2.9zm3.2-9.7h-2.8v3.2h2.8zm-2.8 7.8h2.8v-3.3h-2.8z" fill="#fcfbfa"/><g fill="#010100"><path d="m222.57 110.36c-9.79 1.44-18.79 2.69-27.76 4.12-8.92 1.42-17.59.27-26.02-2.57-1.9-.64-3.26-2.84-4.88-4.32 1.78-1.21 3.43-3.15 5.37-3.5 16-2.91 32.05-5.51 48.08-8.23 1.62-.28 3.22-.7 5.3-1.16-.84-18.55-.2-37.08-7.12-54.64-1.39-3.53-3.59-6.74-5.52-10.04-1.78-3.04-.54-4.75 2.44-5.48 1.91-.47 3.95-.8 5.89-.66 9.34.7 17.73 4.11 25.17 9.72 2.83 2.13 3.74 4.86 2.61 8.71-4.43 15.11-5.2 30.66-5.02 46.38 10.18-1.81 19.9-4.08 29.75-5.1 7.34-.75 14.86.05 22.28.36 1.39.06 2.86.89 4.1 1.67 4.34 2.73 4.5 5.73-.34 7.38-10.31 3.52-20.86 6.45-31.46 8.96-8.37 1.98-16.97 2.98-25.73 4.46v74.52c6.93-.85 13.63-1.55 20.29-2.52 23.48-3.42 46.94-7.02 70.43-10.37 9.04-1.29 17.51.82 25.27 5.6 4.29 2.64 7.26 6.17 7.93 11.43.43 3.4-.64 5.16-4.2 4.97-6.81-.35-13.62-.6-20.42-1.11-25.75-1.92-51.43-1.22-77.16.86-34.25 2.76-67.35 11.42-100.71 18.8-9.68 2.14-17.93-1.45-26.17-5.44-1-.48-2.14-3.1-1.84-3.42 1.16-1.22 2.79-2.47 4.4-2.71 8.04-1.21 16.18-1.77 24.18-3.19 19.42-3.46 38.78-7.23 58.14-11.03 1.04-.2 2.6-1.78 2.6-2.72.15-22.97.12-45.93.12-69.73z"/><path d="m288.59 358.44c-2.34-3.9-4.21-6.58-5.63-9.47-3.07-6.26-6.03-12.59-8.79-18.99-1.33-3.09-3.34-4.17-6.59-3.94-19.39 1.35-38.8 2.45-58.17 3.95-10.22.79-20.38 2.23-30.37 3.36 0 4.66.43 8.83-.16 12.86-.34 2.31-2.33 4.38-3.57 6.56-1.94-1.33-4.47-2.24-5.72-4.05-5.22-7.49-6.4-16.19-6.77-25.1-.88-21.25-1.43-42.58-7-63.25-2-7.44-5.36-14.61-8.8-21.55-3.36-6.78-2.23-9.67 5.41-9.77 6.58-.09 13.29 1.46 19.74.67 24.7-3.03 49.39-6.31 73.95-10.3 13.36-2.17 26.42-6.14 39.71-8.82 3.02-.61 6.66.26 9.64 1.41 8.13 3.14 16.15 6.62 24.03 10.37 2.11 1 3.69 3.3 5.27 5.21 2.96 3.57 3.75 6.66.58 11.34-6.37 9.4-8.03 20.67-9.17 31.75-1.39 13.53-1.42 27.23-3.28 40.68-1.7 12.34-5.51 24.36-12.81 34.74-3.01 4.24-7.12 7.7-11.5 12.34zm-4.26-32.64c1.71-4.58 3.61-8.28 4.48-12.21 5.24-23.73 5.81-47.82 4.88-71.98-.14-3.62-1.1-7.22-1.8-10.8-.78-3.99-3.09-5.99-7.38-5.66-10.61.82-21.28 1.05-31.83 2.31-21.92 2.63-43.78 5.74-65.66 8.72-5.67.77-11.31 1.8-16.52 2.64 2.76 29.04 5.46 57.43 8.19 86.18 2.24-.14 4.38-.19 6.5-.43 7.76-.87 15.51-1.78 23.26-2.71 16.98-2.04 33.94-4.26 50.95-6.02 3.36-.35 7.16.4 10.29 1.74 4.71 2 8.98 4.97 14.64 8.22z"/><path d="m72.63 209.49c-.49 6.35-.91 12.27-1.44 18.17-.1 1.12-.52 2.26-.99 3.3-2.29 4.97-6.34 5.6-8.77.76-2.56-5.09-4.41-10.77-5.4-16.39-4.05-23.05-7.6-46.18-15.19-68.43-1.23-3.6-2.84-7.08-4-10.71-1.43-4.5-.2-6.57 4.5-6.09 5.53.57 11.08 1.93 16.36 3.7 4.26 1.43 8.06 1.77 12.47.52 9.48-2.69 18.79-5.61 26.77-11.61 4.63-3.48 9.56-2.95 14.76-1.87 9.39 1.96 18.39 4.6 25.28 11.86 4.34 4.57 4.13 5.21-.18 9.61-10.05 10.26-15.45 23.06-19.11 36.68-.25.93.57 2.35 1.26 3.28 1.58 2.12 3.65 3.92 5.06 6.13 3.37 5.29 2.49 8.83-3.53 10.73-7.08 2.23-14.49 3.42-21.77 4.97-8.74 1.85-17.49 3.61-26.08 5.39zm-2.1-9.62c9.09-2.22 17.25-4.31 25.47-6.16 3.25-.73 4.61-2.44 4.86-5.73.38-4.96 1.41-9.87 1.71-14.84.51-8.28 1.18-16.61.8-24.87-.3-6.59-3.09-8.98-9.59-8.73-10.42.4-20.6 2.5-30.23 6.26 2.34 18.16 4.63 35.87 6.98 54.07z"/><path d="m280.39 144.79c-9.92 9-19.28 17.54-28.77 25.95-.53.47-2.1-.24-4.39-.58 2.03-3.23 3.63-5.77 5.23-8.31 6.44-10.23 13.29-20.24 19.16-30.79 3.44-6.19 5.22-13.19 4.32-20.63-.53-4.31 1.17-5.58 4.85-3.52 5.04 2.81 10.04 5.91 14.38 9.67 5.46 4.73 5.08 7.9-.3 12.67-3.6 3.2-7.22 6.39-11.23 9.94.94.68 1.53 1.36 2.28 1.6 4.41 1.41 8.82 2.87 13.3 4.02 8.07 2.08 10.3 8.24 10.68 15.42.1 1.83-1.11 4.97-2.36 5.34-1.97.58-5.14.06-6.65-1.29-7.29-6.49-14.19-13.42-20.5-19.49z"/><path d="m181.73 157.52c-7.22 6.04-14.13 12.05-21.3 17.71-2.69 2.12-5.92 3.66-9.11 5-1.21.5-2.97-.33-5.35-.68 7.17-8.34 13.67-15.44 19.61-22.98 3.47-4.41 6.82-9.22 8.79-14.4 1.68-4.4 1.78-9.58 1.68-14.4-.08-4.07.84-5.6 5.01-5.01.66.09 1.31.26 1.94.45 15.73 4.81 17.53 10.83 7.03 23.45-1.26 1.51-2.55 2.99-4.07 4.77 4.75 1.49 9.26 2.52 13.44 4.32 3.6 1.56 7.31 3.5 10.04 6.21 2.01 1.99 3.23 5.44 3.46 8.35.15 1.92-1.65 4.68-3.4 5.83-1.16.76-4.16-.11-5.64-1.19-6.17-4.53-12.07-9.42-18.07-14.17-1.39-1.13-2.8-2.25-4.06-3.26z"/><path d="m214.6 297.29c-2.08 3.31-3.77 5.99-5.45 8.66-1.72-2.81-3.98-5.43-5.04-8.47-1.52-4.35-2.16-9-3.19-13.52-1.87-8.2-4.77-15.89-10.75-22.11-1.01-1.05-1.68-2.45-2.41-3.75-1.51-2.68-.45-4.28 2.37-4.39 3.46-.14 7.03-.29 10.4.35 13.4 2.55 26.08-.12 38.49-4.84 13.39-5.09 24.92-1.67 33.28 9.87-3.78 5.61-7.53 11.06-11.14 16.6-.98 1.51-1.58 3.27-2.25 4.69.19.63.18 1.04.38 1.22 2.65 2.52 6.55 5.18 4.66 8.98-1.05 2.11-5.27 3.23-8.22 3.67-6.88 1.01-13.86 1.41-20.81 1.9s-13.92.79-20.32 1.14zm-5.51-34.81c1.57 10.31 2.86 18.75 4.27 27.98 6.46-.91 12.52-1.5 18.47-2.67 10.8-2.13 17.91-15.08 13.79-25.39-.76-1.9-3.87-4.27-5.67-4.1-10.28 1-20.49 2.7-30.86 4.18z"/></g></svg>