<svg enable-background="new 0 0 400 400" viewBox="0 0 400 400" xmlns="http://www.w3.org/2000/svg"><g fill="#010105"><path d="m92.35 329.37c-.85 3.03-1.35 6.03-2.52 8.75-2.23 5.17-6.09 5.58-9.42 1.08-4.62-6.26-6.39-13.7-6.32-21.15.11-12.43 1.13-24.86 2-37.27.73-10.27 2.19-20.5 2.65-30.78 1.28-28.42 2.26-56.85 3.24-85.28.71-20.44 1.2-40.9 1.86-61.34.42-12.92-.72-25.55-5.76-37.65-1.69-4.07-.34-5.91 4.29-5.82 4.47.09 9.16.01 13.33 1.33 7.01 2.22 13.83 1.17 20.71.39 28.39-3.2 56.77-6.43 85.13-9.83 17.48-2.09 34.92-4.47 52.36-6.79 2.61-.35 5.35-.73 7.72-1.79 11.4-5.08 22.75-3.35 34.08-.06 10.84 3.15 20.84 8 28.68 16.33 1.53 1.63 2.74 4.98 2.15 6.95-9.21 30.64-6.1 61.96-5.52 93.13.28 14.81.45 29.63 1.22 44.42 1.35 25.72 3.41 51.41 4.65 77.14 1.05 21.68-.17 43.26-6.82 64.13-1.27 3.98-3.83 7.66-6.31 11.11-1.85 2.58-4.37 2.31-5.87-.71-2.15-4.3-4.17-8.66-6.1-13.06-2.4-5.47-4.49-11.08-7.06-16.47-.62-1.31-2.61-2.84-3.95-2.81-19.13.4-38.25 1.09-57.37 1.61-9.66.26-19.32.21-28.98.5-31.76.95-63.52 1.97-95.28 3.01-5.46.17-10.92.59-16.79.93zm1.06-10.8c7.3 0 13.97.31 20.6-.05 26.06-1.41 52.12-2.93 78.17-4.62 19.4-1.26 38.78-2.89 58.18-4.26 15.8-1.12 31.71-4.68 47.47 2.53.46-1.74.96-2.96 1.08-4.22.82-8.43 1.82-16.85 2.28-25.3 1.01-18.93 2.67-37.89 2.37-56.82-.51-31.42-2.03-62.83-3.78-94.21-.89-15.9-2.62-31.8-5.03-47.54-2.75-17.93-13.93-26.47-31.98-25.88-5.32.17-10.63.49-15.94.88-19.07 1.41-38.16 2.6-57.18 4.42-19.34 1.85-38.63 4.3-57.93 6.61-10.33 1.24-20.63 2.73-31.08 4.13-2.42 81.82-4.82 163.1-7.23 244.33z"/><path d="m167.5 165.39c17.74-2.52 34.39-4.89 51.88-7.38-3.98-6.35-7.42-11.84-11.16-17.81 1.69-.26 2.38-.58 2.94-.42 10.99 3.07 21.49 7.12 29.53 15.69 4.92 5.24 4.91 11.85 4.11 18.32-.47 3.83-5.02 4.86-8.81 1.83-3.75-2.99-6.81-6.83-10.48-9.94-1.36-1.15-3.74-2.09-5.38-1.76-19.92 3.97-39.14 10.21-57.66 18.59-1.65.75-3.36 1.62-5.11 1.86-3.28.43-8.09 1.88-9.63.32-3.42-3.47-5.36-8.47-7.47-13.05-.29-.64 1.67-3.13 2.98-3.56 14.52-4.8 27.23-20.58 28.66-35.94.23-2.45.43-4.91.71-8.2-5.59.54-10.78 1.23-15.99 1.49-7.96.41-15.93.54-23.9.73-.98.02-2.14.01-2.92-.47-1.58-.97-2.97-2.27-4.43-3.44 1.5-1.11 2.86-2.88 4.52-3.23 10.38-2.16 20.88-3.79 31.25-5.98 20.78-4.38 41.4-9.57 62.29-13.28 9.47-1.68 19.42-.64 29.15-.77.78-.01 1.75.28 2.31.78 2.21 1.97 4.29 4.09 6.42 6.15-2.4 1.69-4.61 4.37-7.24 4.88-7.97 1.55-16.12 2.09-24.16 3.33-13.08 2.01-26.12 4.25-40.07 6.55 4.78 4.53 2.55 8.39-.04 12.11-6.37 9.14-12.82 18.22-19.2 27.35-.9 1.32-1.64 2.77-3.1 5.25z"/><path d="m216.5 194.38c9.56-1.43 16.08 2.03 21.15 8.3.92 1.14.52 3.99-.17 5.68-4.7 11.58-5.2 23.58-3.54 35.71.93 6.81 5.16 11.17 12.09 12.06 4.92.63 10.12 1.43 14.83.44 3.16-.66 6.94-3.79 8.23-6.77 2.45-5.69 3.45-12.04 4.81-18.17.9-4.07 1.35-8.24 5.16-12.92.77 5.92 1.09 10.43 2 14.82.94 4.53 2.09 9.07 3.76 13.37 5.8 14.88 2.22 22.84-13.59 25.47-9.49 1.58-19.58 1.51-29.14.22-12.47-1.68-19.79-12.06-20.07-25.96-.21-10.48.33-21-.23-31.45-.26-4.96-2.29-9.84-3.55-14.74-.49-1.86-1.06-3.68-1.74-6.06z"/><path d="m113.25 288.92c2.01-3.69 3.86-7.47 6.06-11.04 9.4-15.26 17.45-31.16 19.93-49.08 1.1-7.94.04-16.17.14-24.26.03-2.68-.31-6.72 1.15-7.69 1.96-1.3 5.57-.59 8.33-.04 2.21.44 4.29 1.79 6.28 2.98 6.63 3.96 7.6 7.01 5.26 14.41-4.51 14.2-7.11 29.03-14.57 42.23-6.09 10.78-12.74 21.12-22.42 29.06-2.5 2.05-5.69 3.25-8.56 4.84-.54-.46-1.07-.93-1.6-1.41z"/><path d="m189.8 274.55c-6.81-3.64-8.07-8.43-7.89-14.18.47-14.75.97-29.51.88-44.26-.03-4.85-1.93-9.67-2.78-14.55-.26-1.49-.31-3.39.43-4.53.43-.66 2.66-.45 3.98-.19 1.94.39 3.82 1.11 5.68 1.81 9.5 3.58 10.22 5.56 8.06 15.17-1.55 6.92-2.3 14.06-2.93 21.14-.93 10.42-1.26 20.89-2.25 31.3-.25 2.72-1.98 5.29-3.18 8.29z"/></g><path d="m6.8 9.5c.6.3 1.3.7 2.1 1.1-.4.4-.7.8-.9 1.2-.7-.4-1.3-.8-1.8-1.1s-1.1-.6-1.6-.8c.2-.4.5-.8.7-1.2.4.2.8.5 1.5.8zm.9 6.9c-.3.6-.5 1.1-.7 1.7s-.4 1.1-.6 1.7c-.6-.4-1.1-.7-1.6-1 .7-1 1.2-1.8 1.5-2.4.3-.5.6-1.1.8-1.7.3-.6.5-1.2.8-1.8.3.3.8.6 1.3.8-.7 1.3-1.2 2.2-1.5 2.7zm.1-11c.4.3 1 .7 1.7 1.1-.5.2-.8.6-1.1 1.1-.5-.6-1-1-1.4-1.2s-.9-.6-1.5-.8c.2-.4.5-.7.9-1.1.5.3.9.6 1.4.9zm10.5 13c1 .4 2 .6 3.1.7-.4.4-.7.8-.8 1.3-.9-.2-1.9-.6-3-.9-1-.4-2-.9-2.8-1.6-.5.4-1.1.9-1.9 1.3s-1.9.9-3.3 1.2c-.1-.3-.5-.8-1.1-1.3 1 0 2.1-.3 3.2-.8 1.2-.5 1.9-1 2.3-1.7h-3.2c-.4 0-1 0-2 .1v-1.2c1 0 1.7.1 2 .1h3.3v-1h-2.3c-.2 0-.9 0-2 .1v-1.2c1.2 0 1.9.1 2 .1h2.3v-.8h-4.1c0-.7.1-1.2.1-1.6 0-.5 0-1.1-.1-1.8h4.1v-.6h-2.5c0-.6.1-1.1.1-1.6v-.6h-.5c-.4 0-1 0-1.8.1v-1.3c1.2 0 1.9.1 2.1.1h.2c0-.3 0-.8-.1-1.4h1.4c0 .6-.1 1-.1 1.4h3.4c0-.4 0-.8-.1-1.3h1.5c0 .4-.1.9-.1 1.3.7 0 1.5 0 2.5-.1v1.2c-1 0-1.8-.1-2.5-.1v.6c0 .3 0 .8.1 1.5h-2.5v.8h4.1c0 .7-.1 1.3-.1 1.8s0 1 .1 1.5h-4.1v.8h1.4c.8 0 1.8 0 2.9-.1v1.2c-1 0-1.9-.1-2.8-.1h-1.5v1h3.2c.3 0 1 0 2.1-.1v1.2c-1.1 0-1.8-.1-2.1-.1h-3.4l-.1.1c1.4 1 2.4 1.5 3.4 1.9zm-4.1-6.6v-1.3h-2.7v1.3zm2.2-4.1v-1.1h-3.4v1.1zm1.9 4.1v-1.3h-2.8v1.3z" fill="#fbfafc"/><path d="m37 6.7v2.3 5.4c1 0 1.8 0 2.2-.1v1.3c-.6 0-1.5-.1-2.5-.1h-11.9c-.7 0-1.3 0-1.8.1v-1.3c.5 0 1.1.1 2 .1v-5.2c0-1 0-1.8-.1-2.5h3.7c0-1.3 0-2.1-.1-2.5h1.5c0 .4-.1 1.3-.1 2.5h2.2c0-1.2 0-2.1-.1-2.6h1.5c0 .4-.1 1.3-.1 2.6zm-12.3 13.7c-.3-.4-.7-.8-1.1-1.1 1.1-.4 2.1-.9 2.9-1.3.8-.5 1.5-1 2.1-1.6.4.4.9.8 1.3 1.1-2.5 1.4-4.2 2.4-5.2 2.9zm3.9-10.1v-2.4h-2.2v2.4zm0 4.1v-2.9h-2.2v2.9zm3.5-4.1v-2.4h-2.2v2.4zm0 4.1v-2.9h-2.2v2.9zm.4 2.9 1-1.1c.6.3 1.4.7 2.5 1.3s2 1.1 2.7 1.5c-.4.4-.8.8-1.1 1.3-.8-.8-2.5-1.7-5.1-3zm3.1-7v-2.4h-2.1v2.4zm0 4.1v-2.9h-2.1v2.9z" fill="#fbfafc"/></svg>