<svg enable-background="new 0 0 400 400" viewBox="0 0 400 400" xmlns="http://www.w3.org/2000/svg"><path d="m145.45 126.22c-11.38 1.94-21.26 3.64-31.16 5.3-8.99 1.51-18.05 4.33-26.98 4-7.05-.26-13.99-4.34-20.86-7.01-.93-.36-1.92-2.64-1.6-3.61.32-.98 2.18-1.94 3.45-2.06 7.94-.76 15.92-1.1 23.85-1.92 19.16-1.99 38.3-4.19 57.46-6.25 3.45-.37 4.86-2.04 5.64-5.54 2.81-12.66 5.46-25.3 4.49-39.01-9.01.64-17.86 1.61-26.72 1.79-8.73.18-17.53-.19-25.75-5.66 2.37-.72 4.7-1.6 7.1-2.13 26.05-5.77 52.15-11.33 78.15-17.29 10.33-2.37 20.32-7.01 30.72-8.03 9.49-.93 19.44 1.05 28.98 2.87 5.84 1.11 6.39 5.15 1.45 8.59-3.29 2.29-7.35 3.93-11.3 4.75-21.92 4.54-43.9 8.74-65.86 13.07-.42.08-.81.26-1.76.57 3.21 1.94 6.12 3.47 8.79 5.35 7.8 5.51 8.16 10.3 2.32 17.86-4.41 5.72-8.2 11.92-12.27 17.91.34.39.69.79 1.03 1.18 8.94-1.46 17.92-2.71 26.8-4.43 20.67-4.02 41.24-8.52 61.94-12.35 12.81-2.37 25.1.22 36.64 6.19 1.3.67 2.44 1.77 3.45 2.85 2.99 3.2 2.76 6.42-1.23 7.94-4.1 1.56-8.61 2.53-12.99 2.76-24.25 1.27-48.51 2.22-72.77 3.33-2.07.09-4.12.58-6.18.88-.11.42-.21.84-.32 1.27 17.39 6.94 34.66 14.21 52.21 20.73 29.81 11.07 60.54 18.67 92.14 22.56 3.62.45 7.32.46 10.89 1.15 1.47.28 3.85 1.93 3.78 2.79-.12 1.59-1.48 4.03-2.81 4.41-5.72 1.64-11.57 3.02-17.46 3.82-11.84 1.61-23.72 3.31-35.63 3.99-10.35.59-19.93-1.68-29.27-7.58-27.26-17.23-55.11-33.53-82.95-49.81-2.86-1.67-7.26-1.25-10.87-.95-5.44.45-10.8 2.12-16.23 2.38-4.3.21-6.37 2.25-8.53 5.54-18.2 27.74-43.58 46.72-73.69 59.84-18.19 7.93-37.1 13.46-56.58 17.09-1.56.29-3.22.04-4.84.04-.23-.71-.46-1.42-.69-2.13 2.53-1.43 4.92-3.28 7.62-4.24 20.11-7.1 39.59-15.53 57.8-26.74 17.85-10.99 33.95-24.02 46.87-40.69.97-1.27 1.83-2.63 3.73-5.37z" fill="#010106"/><path d="m227.93 230.38c0-8.24.02-16.04-.01-23.83-.04-10.29-1.68-10.98-11.92-9.45-6.51.97-13.42.08-20.04-.81-2.81-.38-5.33-2.89-7.99-4.43.03-.53.06-1.05.09-1.58 2.01-.77 3.96-1.75 6.03-2.26 20.76-5.17 41.48-10.51 62.35-15.21 4.63-1.04 9.8-.04 14.65.59 1.36.18 3.67 2.65 3.45 3.58-.55 2.37-1.76 5.61-3.63 6.46-6.59 3.01-13.51 5.36-20.44 7.55-4.02 1.27-8.29 1.76-12.71 2.65 14.42 9.02 10.53 8.2 7.97 21.78-.82 4.33-1.98 8.59-3.22 13.89 10.92-2.43 20.9-4.6 30.86-6.87 13.03-2.96 26.09-5.46 39.34-1.45 4.83 1.46 9.6 3.33 10.32 9.43.36 3.03-.47 5.43-3.91 5.75-4.95.45-9.91.81-14.88.97-20.75.69-41.5 1.29-62.25 1.93-.23.62-.46 1.24-.69 1.86 3.08 3.77 6.09 7.59 9.24 11.3 19.98 23.57 41.06 45.97 67.7 62.27 10.25 6.27 21.11 11.08 32.99 13.55 4.32.9 9.12 1.48 12.91 6.57-4.26.76-7.54 1.58-10.87 1.91-16.57 1.68-33.13 2.78-49.67-.43-5.76-1.12-10.73-3.27-14.09-8.41-15.21-23.23-30.48-46.42-45.7-69.64-1.72-2.63-3.25-5.37-5.38-8.9-1.61 5.01-2.9 9.3-4.36 13.54-11.25 32.76-31.82 57.3-63.66 71.77-3.16 1.44-6.67 2.1-10.01 3.13-.38-.58-.76-1.16-1.13-1.74 1.7-2.04 3.15-4.37 5.14-6.07 7.59-6.47 15.76-12.31 22.99-19.15 19.56-18.54 31.12-41.53 36.57-68.87-5.89 1.28-11.3 2.4-16.68 3.66-3.71.87-7.57 1.51-11.03 3.01-8.77 3.81-15.32-.93-22.02-5.2-.97-.62-2.2-2.52-1.91-3.06.59-1.09 2.08-2.15 3.33-2.33 9.68-1.43 19.4-2.59 29.1-3.95 7.21-1.01 14.4-2.18 23.17-3.51z" fill="#010106"/><path d="m106.76 263.74c-11.44 3.06-22.66 5.41-33.41 9.12-9.51 3.28-17.55.76-25.48-3.75-1.72-.98-2.65-3.35-3.94-5.08 1.93-1.04 3.76-2.69 5.8-3.04 18.14-3.14 36.31-6.12 54.49-8.98 3.51-.55 5.23-2.15 5.63-5.65 1.27-10.98 2.66-21.94 4.05-33.28-9.4 0-17.37.21-25.31-.09-3.94-.15-7.9-1.01-11.73-2-1.52-.39-2.73-2.02-4.08-3.09 1.37-1.26 2.56-3.28 4.14-3.64 4.34-1 8.89-1.03 13.26-1.93 17.05-3.49 34-7.46 51.11-10.6 5.55-1.02 11.5-.41 17.2.16 1.88.19 5.01 2.68 4.95 4.01-.09 1.95-2.14 4.77-4.03 5.5-8.3 3.24-16.84 5.88-25.31 8.68-1.55.51-3.17.8-4.99 1.25-1.04 12.17-2.06 24.2-3.12 36.59 7.09-1.94 13.54-4.3 20.2-5.3 4.39-.66 9.21.1 13.56 1.25 2.06.55 3.49 3.5 5.2 5.36-2.02 1.29-3.9 3.28-6.1 3.74-6.48 1.36-13.09 2.11-19.65 3.1-.16.02-.33.01-.5.02-13.83 1.38-13.8 1.4-16.91 14.94-.66 2.87-1.68 5.66-2.63 8.8 4.85 1.68 9.8 3.08 14.48 5.09 9.71 4.17 20.22 7.35 26.08 17.28 2.78 4.71 5.73 9.55 3.27 15.42-2.34 5.6-5.72 7.21-10.35 3.41-9.88-8.1-19.2-16.9-28.64-25.53-2.69-2.46-4.98-5.35-7.91-8.54-1.78 3.11-3.4 5.88-4.96 8.69-15.18 27.19-37.51 46.35-66.03 58.46-2.34.99-4.96 1.32-7.45 1.96-.4-.71-.8-1.42-1.2-2.14 2.45-2.17 4.65-4.74 7.39-6.45 30.48-18.94 51.61-45.14 62.32-79.54.25-.79.49-1.59.68-2.39.07-.31-.02-.65-.08-1.81z" fill="#010106"/><g fill="#fafbfa"><path d="m12.4 4.8-7.1 9h6v1.2h-8v-.5l6.1-8.9h-4.7v-1.2h7.6v.4z"/><path d="m14 14v-9.6h3c1.6 0 2.9.5 4 1.4s1.6 2.2 1.6 3.8-.5 3-1.6 3.9-2.4 1.5-4 1.5h-3zm1.4-8.4v8.2h1.6c1.3 0 2.4-.4 3.1-1.1s1.1-1.8 1.1-3.1-.4-2.3-1.2-3-1.8-1-3.1-1z"/><path d="m26.1 4.4v10.6h-1.4v-10.6z"/><path d="m36.1 14.6c-.8.4-1.8.6-2.9.6-1.5 0-2.7-.5-3.6-1.4s-1.4-2.2-1.4-3.8c0-1.7.5-3.1 1.5-4.1s2.3-1.6 3.9-1.6c1 0 1.8.1 2.5.4v1.4c-.8-.4-1.6-.6-2.5-.6-1.2 0-2.1.4-2.9 1.2s-1.1 1.8-1.1 3.2c0 1.3.3 2.3 1 3s1.6 1.1 2.7 1.1c1 0 2-.2 2.7-.7v1.3z"/><path d="m37.6 14.3c0-.2.1-.5.3-.6s.4-.3.6-.3c.3 0 .5.1.6.3s.3.4.3.6-.1.4-.3.6-.4.3-.6.3c-.3 0-.5-.1-.6-.3s-.3-.4-.3-.6z"/><path d="m50.2 15h-1.6l-5.3-8.2c-.2-.2-.3-.5-.4-.7 0 .2.1.7.1 1.5v7.4h-1.4v-10.6h1.7l5.2 8.1c.2.4.4.6.4.7 0-.3-.1-.8-.1-1.5v-7.3h1.4z"/><path d="m58.6 15h-5.7v-10.6h5.5v1.2h-4.1v3.4h3.8v1.2h-3.8v3.6h4.3z"/><path d="m67.1 5.6h-3.1v9.4h-1.4v-9.4h-3v-1.2h7.5z"/></g></svg>