<svg enable-background="new 0 0 400 400" viewBox="0 0 400 400" xmlns="http://www.w3.org/2000/svg"><path d="m362.1 8.8c1.1.8 2.1 1.6 3.1 2.4l-1 1.1c-1.3-1.1-2.3-2-3-2.5zm1.9 4.8c.5.2.9.4 1.4.5-.6 2.3-1.3 4.5-1.9 6.8l-1.5-.5c.8-2.1 1.4-4.3 2-6.8zm-1-9.4c1.3.9 2.4 1.8 3.4 2.5l-1 1.1c-1.4-1.2-2.4-2.1-3.2-2.6zm3.7 2.2v-1.4h10.3v1.2c-.5 3.6-1.8 6.8-4 9.4 1.5 1.6 3.4 2.8 5.7 3.8-.3.4-.7.8-1.1 1.4-2.3-1.1-4.1-2.5-5.6-4.1-1.6 1.6-3.6 3.1-5.9 4.3-.3-.5-.7-.9-1-1.3 2.4-1.1 4.4-2.5 6-4.1-1.9-2.5-3-5.6-3.3-9.3h-1.1zm8.8 0h-6.4c.3 3.3 1.3 6 3 8.2 2-2.3 3.1-5.1 3.4-8.2z" fill="#fcfbfa"/><path d="m385.3 3.8h1.3v2.2h2.8v-2.2h1.3v2.2h4.1v9.1h1.7v1.3h-16.9v-1.3h1.7v-9.1h4.1v-2.2zm.4 13.1.7 1.2c-1.8.9-3.8 1.9-6 2.9-.2-.4-.5-.8-.8-1.3 2.3-1 4.3-1.9 6.1-2.8zm-3.1-6.4h2.8v-3.2h-2.8zm0 4.6h2.8v-3.3h-2.8zm4-4.6h2.8v-3.2h-2.8zm0 4.6h2.8v-3.3h-2.8zm3.7 1.9c2.1.9 4.1 1.8 6.1 2.7l-.7 1.3c-2.2-1.1-4.2-2-6.1-2.9zm3.2-9.7h-2.8v3.2h2.8zm-2.8 7.8h2.8v-3.3h-2.8z" fill="#fcfbfa"/><g fill="#010100"><path d="m175.52 83.53c11.86-2.04 23.35-3.64 34.67-6.05 14.58-3.1 29.05-6.76 43.53-10.33 10.05-2.48 19.56-1.37 28.16 4.33 2.11 1.4 4.22 4.74 4.04 7.01-.14 1.77-3.6 4.22-5.95 4.74-11.64 2.59-23.38 4.79-35.13 6.82-10.27 1.78-20.61 3.15-31.6 4.81 1.51 1.86 2.72 3.52 4.09 5.04 26.4 29.27 55.67 54.95 91.34 72.53 20.56 10.13 42.09 17.16 65 19.58 1.31.14 2.8.2 3.85.86 1.08.67 1.72 2.03 2.55 3.08-.96.71-1.85 1.91-2.88 2.06-12.99 1.78-25.96 3.95-39.02 4.9-11.06.81-22.24.54-33.33-.02-3.84-.2-8.53-1.73-11.18-4.34-15.56-15.27-30.9-30.78-45.79-46.7-15.57-16.66-30.59-33.84-45.74-50.88-2.17-2.44-4.2-3.59-7.68-3.07-7.06 1.06-14.22 1.41-21.31 2.28-1.22.15-2.85 1.16-3.37 2.22-10.99 22.25-25.59 42.01-41.62 60.8-.2.23-.24.59-.93 2.39 12.06-.35 23.61.15 34.93-1.22 16.98-2.05 33.68-5.86 49.41-13.01 1.16-.53 2.65-.85 3.87-.63 12.38 2.27 24.36 5.6 33.85 14.55 5.21 4.91 5.09 5.96-.12 11.17-4.34 4.34-8.78 8.61-12.94 13.13-1.65 1.8-2.77 4.14-3.93 6.34-1.98 3.74-2.05 7.3.09 11.3 3.4 6.34 2.91 7.59-4.23 9.08-13.79 2.88-27.66 5.4-41.56 7.68-9 1.48-18.11 2.26-26.3 4.44-2.99 2.49-5.91 6.9-8.99 7.02-4.81.18-6.01-5.32-7.35-9.45-3.52-10.88-6.4-22.03-10.73-32.57-3.1-7.55-8.15-14.3-12.62-21.9-8.11 6.96-15.1 13.23-22.37 19.15-21.4 17.43-44.81 31.66-70.03 42.87-1.54.68-3.71-.07-5.59-.15.92-1.8 1.37-4.25 2.83-5.31 13.73-9.97 28.11-19.09 41.4-29.61 30.73-24.34 56.01-53.52 75.01-87.95.72-1.31 1.39-2.65 2.04-4 .13-.28.09-.64.21-1.66-5 .56-9.88.9-14.69 1.68-11.57 1.88-22.79 1-33.61-3.67-1.22-.52-2.59-.93-3.53-1.77-1.12-1-1.86-2.43-2.76-3.67 1.33-.83 2.59-2.24 4-2.4 7.26-.86 14.58-1.24 21.84-2.11 10.37-1.25 20.7-2.81 31.06-4.18 3.19-.42 4.86-2.05 5.57-5.26 3.08-13.73 6.69-27.36 9.39-41.16 1.49-7.62.33-15.15-4.31-21.97-1.27-1.87-1.87-5.56-.84-7.24.98-1.6 4.61-2.59 6.84-2.26 10.89 1.64 20.77 5.88 28.85 13.53 4.17 3.95 4.15 6.78 1.15 11.44-.98 1.52-1.87 3.16-2.47 4.86-4.95 13.92-9.81 27.85-15.07 42.85zm-19.22 133.67c16.41-3.75 32.02-7.3 47.61-10.94 1.01-.24 2.22-1.06 2.7-1.95 5.42-10.08 9.33-20.53 7.19-32.3-1.17-6.42-2.99-8.06-9.41-6.68-17.15 3.69-34.23 7.71-51.29 11.81-1.17.28-2.88 2.44-2.73 3.49 1.7 11.61 3.71 23.19 5.93 36.57z"/><path d="m210.03 256.63c3.97.34 7.95.96 11.91.93 4.6-.04 9.37-.01 13.75-1.19 6.7-1.82 13.65-3.76 19.57-7.23 14.07-8.25 27.94-5.56 41.64-.23 5.86 2.28 10.91 6.71 16.25 10.27 2.27 1.51 2.3 3.56.46 5.46-2.99 3.09-5.77 6.54-9.23 9.01-8.63 6.16-12.21 14.96-14.1 24.79-.18.94.52 2.17 1.09 3.1.77 1.27 1.9 2.31 2.72 3.56 3.89 5.93 2.26 9.79-4.73 10.83-7.87 1.17-15.8 1.96-23.66 3.16-10.33 1.57-20.64 3.26-30.9 5.24-1.5.29-2.62 2.44-3.95 3.69-1.86 1.74-3.69 4.72-5.63 4.8-1.89.08-5.05-2.47-5.66-4.48-2.02-6.62-3.21-13.49-4.6-20.29-1.79-8.76-2.87-17.72-5.39-26.26-1.6-5.43-5.34-10.21-7.91-15.38-1.2-2.41-1.9-5.06-2.83-7.61 2.4-.66 4.77-1.43 7.21-1.92 1.28-.26 2.66-.05 3.99-.05-.01-.07 0-.14 0-.2zm20.39 55.45c12.03-1.92 23.71-3.39 34.36-8.86 1.43-.73 2.65-2.44 3.32-3.98 4.75-10.86 6.3-22.29 5.56-34.05-.43-6.82-1.4-8.02-8.28-6.88-9.62 1.59-19.14 3.93-28.59 6.42-10.35 2.73-10.29 2.96-9.74 13.33.02.33 0 .67.03 1 1.09 10.86 2.2 21.71 3.34 33.02z"/><path d="m78.56 266.73c2.47.27 4.96.85 7.42.76 5.58-.2 11.37.11 16.68-1.3 10.88-2.89 21.37-7.28 32.28-10 4.52-1.13 9.79 0 14.59.84 7.39 1.29 14.69 3.19 20.37 8.61 4.24 4.05 4.26 5.57.6 9.92-7.35 8.75-11.06 19.22-13.89 30.04-.3 1.14.87 3 1.85 4.09 2.87 3.17 4.87 6.66 3.04 10.83-1.8 4.11-5.95 4.09-9.81 4.53-14.17 1.61-28.33 3.32-42.47 5.22-1.13.15-2.1 1.96-3.01 3.1-1.98 2.48-3.45 6.47-5.92 7.2-3.52 1.04-5.68-2.6-6.75-5.94-4.2-13.09-8.36-26.18-12.49-39.29-2.38-7.56-3.93-15.3-8.96-21.95-3.56-4.69-1.6-6.5 6.47-6.66zm17.72 12.91c2.49 13.95 4.9 27.41 7.37 41.25 10.33-2.38 20.15-4.61 29.94-6.94 1-.24 2.53-.95 2.68-1.68 2.27-11.32 5.01-22.6 6.19-34.04.63-6.07-2.91-8.23-9.34-8.21-12.91.04-24.45 5.32-36.84 9.62z"/></g></svg>