<svg enable-background="new 0 0 400 400" viewBox="0 0 400 400" xmlns="http://www.w3.org/2000/svg"><path d="m362.1 8.8c1.1.8 2.1 1.6 3.1 2.4l-1 1.1c-1.3-1.1-2.3-2-3-2.5zm1.9 4.8c.5.2.9.4 1.4.5-.6 2.3-1.3 4.5-1.9 6.8l-1.5-.5c.8-2.1 1.4-4.3 2-6.8zm-1-9.4c1.3.9 2.4 1.8 3.4 2.5l-1 1.1c-1.4-1.2-2.4-2.1-3.2-2.6zm3.7 2.2v-1.4h10.3v1.2c-.5 3.6-1.8 6.8-4 9.4 1.5 1.6 3.4 2.8 5.7 3.8-.3.4-.7.8-1.1 1.4-2.3-1.1-4.1-2.5-5.6-4.1-1.6 1.6-3.6 3.1-5.9 4.3-.3-.5-.7-.9-1-1.3 2.4-1.1 4.4-2.5 6-4.1-1.9-2.5-3-5.6-3.3-9.3h-1.1zm8.8 0h-6.4c.3 3.3 1.3 6 3 8.2 2-2.3 3.1-5.1 3.4-8.2z" fill="#fcfbfa"/><path d="m385.3 3.8h1.3v2.2h2.8v-2.2h1.3v2.2h4.1v9.1h1.7v1.3h-16.9v-1.3h1.7v-9.1h4.1v-2.2zm.4 13.1.7 1.2c-1.8.9-3.8 1.9-6 2.9-.2-.4-.5-.8-.8-1.3 2.3-1 4.3-1.9 6.1-2.8zm-3.1-6.4h2.8v-3.2h-2.8zm0 4.6h2.8v-3.3h-2.8zm4-4.6h2.8v-3.2h-2.8zm0 4.6h2.8v-3.3h-2.8zm3.7 1.9c2.1.9 4.1 1.8 6.1 2.7l-.7 1.3c-2.2-1.1-4.2-2-6.1-2.9zm3.2-9.7h-2.8v3.2h2.8zm-2.8 7.8h2.8v-3.3h-2.8z" fill="#fcfbfa"/><g fill="#010100"><path d="m171.47 72.27c19.65-3.12 37.78-6.23 55.99-8.8 13.45-1.9 26.97-3.72 40.51-4.29 5.42-.23 11.08 2.79 16.44 4.81 1.51.57 2.38 2.84 3.54 4.32-1.59 1.06-3.07 2.75-4.8 3.07-6.19 1.15-12.46 1.86-18.71 2.69-15.79 2.1-31.58 4.17-48.44 6.39 47.51 43.56 102.08 70.68 165.7 79.25-.02.66-.03 1.33-.05 1.99-4 .77-7.97 1.93-12.01 2.25-18.38 1.47-36.78 2.72-55.17 4.03-9.64.69-18.16-1.39-25.67-8.2-26.5-24.05-53.4-47.66-79.85-71.76-4.99-4.54-9.59-7.13-16.59-6.08-8.69 1.31-17.56 1.41-26.33 2.27-1.36.13-3.16 1.23-3.8 2.41-11.73 21.66-27.46 39.99-46.23 55.8-.46.39-.78.94-1.27 1.53 9.3 3.83 18.59 3.15 27.92 1.76 21.83-3.26 43.7-6.29 65.47-9.94 7.95-1.33 15.64-4.23 23.5-6.19 2.33-.58 5.13-1.13 7.25-.38 10.45 3.7 19.85 9.26 28.05 16.84 2.83 2.61 2.75 4.63-.11 6.84-7.99 6.16-11.35 14.93-13.77 24.25-3.96 15.27-9.67 29.7-20.12 41.85-4.17 4.85-4.95 4.82-9.28.32-1.11-1.15-3.06-2.23-4.55-2.14-20.06 1.27-40.1 2.64-60.14 4.23-7.05.56-14.04 1.77-21.87 2.79.14-.32-.1.44-.5 1.11-.94 1.59-1.96 3.13-2.94 4.69-1.59-1.72-4.09-3.21-4.61-5.21-3.95-15.24-7.61-30.55-11.14-45.9-2.32-10.06-5.33-19.79-10.85-28.57-10.97 6.55-21.3 13.59-32.38 19.13-16.32 8.16-33.16 15.29-49.83 22.74-1.38.62-3.17.33-4.76.46-.24-.59-.48-1.17-.73-1.76 1.84-1.35 3.54-2.96 5.53-4.03 31.86-17.1 61.43-37.41 86.69-63.43 10.15-10.46 19.26-21.92 28.48-33.61-18.18-1.61-36.78 3.86-54.66-7.43 2.67-.84 4.18-1.61 5.74-1.76 16.53-1.63 33.07-3.25 49.62-4.67 4.96-.43 8.33-2.32 9.69-7.34 2.46-9.07 5.3-18.04 7.46-27.18 1-4.26-.85-8.01-4.27-11.12-1.36-1.24-2.69-4.11-2.13-5.42.64-1.48 3.38-2.77 5.28-2.88 12.3-.7 22.48 4.82 31.99 11.81 2.98 2.19 3.13 5.29.04 7.51-5.63 4.05-8.01 9.84-10.16 16.09-1.6 4.66-4.25 8.93-7.17 14.86zm15.27 98.32c2.31-.45 4.36-.84 6.4-1.25 6.87-1.38 13.78-2.65 20.49.4 1.79.81 3.15 2.55 4.7 3.87-1.46 1.21-2.74 3.06-4.41 3.53-7.79 2.19-15.71 3.95-23.54 6.01-1.4.37-3.72 1.36-3.75 2.12-.28 7.74-.17 15.5-.17 23.24 13.23-.63 25.71-1.22 38.97-1.86 1.14-6.05 2.56-13.17 3.82-20.32 1.91-10.78 3.83-21.55 5.53-32.36 1.05-6.71-1.28-10.14-7.05-9.82-13.65.76-27.27 1.98-39.59 2.91-.47 8.1-.92 15.54-1.4 23.53zm-47.84 10.48c11.61-2.59 21.82-4.87 31.14-6.94 0-8.67 0-16.2 0-24.64-14.41 1.73-27.83 3.34-41.44 4.97 2.83 20.21 5.6 39.99 8.41 60.04 11.86-1.56 22.8-3.01 33.53-4.42 0-8.29 0-15.84 0-22.92-10.47-1.45-21.56 3.37-31.64-6.09z"/><path d="m279.8 359.85c-2.33-6.35-4.84-12.64-6.94-19.06-1.46-4.46-3.92-6.23-8.76-5.8-16.71 1.48-33.45 2.62-50.59 3.93-.69 2.42-1.1 4.67-2 6.7-.61 1.37-1.83 3.36-2.9 3.43-1.5.11-3.76-.89-4.54-2.14-1.25-2-1.94-4.55-2.18-6.93-1.75-17.52-3.2-35.07-5.02-52.59-1.03-9.89-2.15-19.8-4.06-29.54-.99-5.08-3.62-9.88-5.8-14.67-1.8-3.97-1.32-5.52 2.98-5.17 5.04.41 10 1.78 14.99 2.77 1.59.31 3.24 1.27 4.71 1.03 22.44-3.61 44.86-7.36 67.27-11.11 1.13-.19 2.37-.45 3.29-1.07 9.39-6.3 17.62-3.02 25.57 2.95 4.92 3.69 9.93 7.26 14.75 11.07 2.07 1.63 3.65 4.02.95 6.3-8.91 7.51-11.59 17.84-13.48 28.62-4.12 23.42-8.78 46.71-19.12 68.39-2.17 4.55-4.77 8.9-7.18 13.34-.64-.16-1.29-.31-1.94-.45zm-2.02-30.55c1.1-3.64 2.52-6.87 3.03-10.25 1.83-12.12 3.66-24.26 4.9-36.45 1.05-10.39 1.45-20.86 1.82-31.31.21-5.96-2.16-9.26-6.8-9.16-8.69.18-17.37.98-25.91 1.51 3.84 12.19.01 23.11-.64 33.19 5.88.72 11.42.99 16.74 2.24 1.96.46 3.38 3.21 5.04 4.92-1.58 1.35-2.95 3.38-4.77 3.94-5.62 1.72-11.41 2.89-17.65 4.39-.87 10.97-1.78 22.46-2.68 33.83 9.42.16 18.31-2.24 26.92 3.15zm-39.18-1.38c0-11.92 0-23.27 0-34.68-7.35-1.78-15.96.16-23.51-6.01 2.32-1.01 3.86-1.97 5.53-2.36 4.84-1.12 9.71-2.36 14.63-2.85 3.48-.35 4.54-1.59 4.38-4.94-.41-8.63-.51-17.28-.86-25.92-.07-1.68-.71-3.34-1.01-4.65-9.08 1.29-17.46 2.38-25.79 3.79-1.26.21-3.29 1.95-3.25 2.91.74 17.43 1.72 34.86 2.71 52.28.45 7.91 1.03 15.81 1.6 24.45 8.51-.67 16.41-1.29 25.57-2.02z"/><path d="m82.31 340.8c-.7 3.9-1 7.22-1.94 10.36-1.06 3.57-3.44 4.1-5.77 1.26-1.38-1.69-2.38-4.01-2.73-6.17-3.77-23.25-6.99-46.6-11.27-69.75-1.32-7.1-5.42-13.7-8.31-20.5-.69-1.61-1.66-3.11-2.78-5.16 6.28-2.27 11.57-.67 17.01.74 3.53.91 7.46 1.8 10.94 1.17 20.22-3.68 40.83-6.27 60.36-12.31 14.67-4.53 24.17 1.4 34.35 9.05 2.67 2 3.65 4.72.87 7.14-5.81 5.06-6.52 12.1-7.93 18.88-3.36 16.22-6.35 32.53-10.02 48.68-1.77 7.79-5.24 15.03-11.63 21.15-1.4-1.81-3.08-3.27-3.87-5.12-2.09-4.89-5.86-5.7-10.51-5.12-15.61 1.92-31.21 3.8-46.77 5.7zm-7.78-78.6c.93 11.99 1.74 23.07 2.65 34.15.91 11.09 1.83 22.17 3.02 33.23.11 1.06 2.24 2.82 3.28 2.72 6.71-.64 13.39-1.71 20.15-2.65 0-10.55 0-20.62 0-30.48-7.2-1.09-14.1-2.14-21-3.19 0-.65-.01-1.3-.01-1.95 6.06-2.01 12.16-3.93 18.15-6.11 1.24-.45 3-1.91 3-2.91 0-8.91-.33-17.82-.58-27.39-10.19 1.63-19.29 3.09-28.66 4.58zm64.54 63.54c.24-.65.67-1.39.79-2.19 1.57-9.82 3.62-19.6 4.51-29.48 1.06-11.75 1.18-23.58 1.57-35.38.1-2.89-.95-5.56-4.43-5.44-8.08.26-16.16.8-25.3 1.28 4.86 5.3 2.54 9.97 1.94 14.61-.64 4.89-.99 9.82-1.46 14.55 5.18-.25 9.73-1.13 14.03-.43 2.67.44 4.96 3.26 7.42 5.02-1.99 1.7-3.73 4.19-6.02 4.92-4.8 1.52-9.89 2.1-14.76 3.04v30.6c7.28-.38 14.19-.73 21.71-1.1z"/></g></svg>