<svg enable-background="new 0 0 400 400" viewBox="0 0 400 400" xmlns="http://www.w3.org/2000/svg"><path d="m211.93 295.88c10.35 4.12 20.21 8.04 30.06 11.97 14.14 5.64 27.98 11.91 38.11 23.8 3.71 4.35 6.66 9.47 9.26 14.59 1.73 3.42 2.45 8.32-1.3 10.42-2.55 1.42-7.36 1.08-10.06-.43-12.33-6.9-24.22-14.56-36.36-21.81-13.55-8.1-27.19-16.05-41.08-24.23-32.09 27.4-68.08 45.23-111.19 45.12-5.45-.01-10.89-1.36-16.45-3.2 40.98-10.22 79.83-24.26 113.3-51.89-17.63-8.36-34.8-16.51-52.38-24.85 2.8-6.19 5.49-12.15 8.61-19.06-11.69 2.17-22.53 4.17-33.36 6.2-14.68 2.75-29.26 6.31-44.06 8.04-12.61 1.48-23.82-3.45-32.89-12.53-1.03-1.03-1.35-2.77-2.52-5.31 3.33 0 5.59.1 7.83-.02 22.73-1.14 45.49-1.95 68.19-3.62 13.73-1.01 27.36-3.29 41.01-5.2 1.47-.21 3.42-1.46 4.01-2.75 5.14-11.27 8.78-22.92 8.33-35.57-.12-3.4-1.07-4.87-4.61-4.5-6.44.68-12.89 1.33-19.35 1.68-12.03.65-23.08-2.97-33.88-7.53-.01-.61-.02-1.22-.03-1.82 5.1-.8 10.19-1.79 15.32-2.38 26.23-2.99 52.53-5.46 78.7-8.92 20.54-2.71 40.91-6.78 61.41-9.86 6.74-1.01 13.73-.9 19.89 2.79 1.84 1.1 4.17 3.29 4.17 4.99 0 1.67-2.36 4.27-4.19 4.86-5.65 1.82-11.47 3.37-17.34 4.12-28.81 3.71-57.65 7.12-87.42 10.76 2.34 2.09 4.34 3.84 6.3 5.62 5.76 5.26 5.94 7.5 1.93 14.08-4.39 7.2-8.53 14.55-13.33 22.79 17.73-2.54 34.38-4.92 51.86-7.43-.69-4.76-1.28-9.14-1.96-13.51-.8-5.12.62-7.02 5.62-6.51 4.6.47 9.3.98 13.66 2.4 7.5 2.43 8.09 4.25 5.3 13.34 7.51-1.46 14.52-2.79 21.52-4.2 20.03-4.04 40.09-8.34 60.62-8.15 13.62.12 26.64 3.57 38 11.79 3.14 2.27 5.42 5.52 3.76 8.81-1.09 2.16-4.92 3.96-7.6 4.09-7.62.36-15.29-.44-22.93-.4-20.97.13-41.95.21-62.91.83-10.27.3-20.52 1.71-30.75 2.8-1.17.12-2.84 1.22-3.21 2.25-6.11 16.87-15.31 32.07-25.61 47.54zm-59.76-24.67c14.49 6.49 28.47 12.74 43.33 19.39 7.36-14.27 14.47-28.03 21.58-41.81-1.26-.61-1.41-.76-1.56-.75-17.14 1.7-34.28 3.38-51.41 5.22-1.04.11-2.25 1.31-2.86 2.32-3 4.95-5.83 10-9.08 15.63z" fill="#010106"/><path d="m102.14 139.83c-5.19 12.23-10.62 25.21-16.27 38.09-.87 1.97-2.97 5.02-4.17 4.87-2.02-.25-4.36-2.3-5.55-4.22-4.1-6.66-3.94-13.94-1.7-21.16 1.18-3.79 2.97-7.39 4.44-11.09 3.68-9.21 7.28-18.45 11.05-27.62.69-1.69 2.02-3.11 3.05-4.66 1.24 1.22 2.86 2.24 3.65 3.7 1.5 2.75 2.53 5.76 4.11 9.51 8.11-.78 16.69-1.31 25.18-2.49 19.72-2.75 39.39-5.94 59.11-8.66 3.4-.47 4-1.83 3.92-4.78-.17-6.3-.05-12.61-.05-19.57-15.57 3.64-30.68 5.06-45.67.04-2.76-.93-5.37-2.32-7.94-4.52 17.81-3.67 35.62-7.34 53.57-11.04-.27-14.31 2.06-28.32-5.14-41.13-1.7-3.03-4.11-5.66-5.79-8.69-.68-1.23-.92-3.45-.24-4.49.66-.99 2.98-1.76 4.19-1.38 9.65 2.99 19.34 5.94 28.75 9.59 5.68 2.2 5.8 4.05 3.01 9.5-5.26 10.25-6.54 21.41-7.85 33.8 4.64-1.14 8.51-2.23 12.44-3.03 9.71-2 19.38-4.31 29.19-5.55 3.64-.46 7.77 1.35 11.38 2.84 1.72.71 2.73 3.11 4.07 4.75-1.66 1.18-3.16 2.96-5 3.43-16.39 4.2-32.84 8.17-49.28 12.21-1.1.27-2.21.53-3.13.75-.75 7.7-1.47 15.11-2.28 23.4 4.4-.44 8.6-.73 12.76-1.31 20.36-2.82 40.9-4.71 60.62-11.04 2.84-.91 5.81-1.71 8.37-3.17 7.12-4.06 14.18-3.65 21.55-.8 12.64 4.88 23.33 12.67 33.2 21.72 3.98 3.65 3.03 8.84-2.24 9.9-18.58 3.74-35.01 12.28-51.09 21.79-1.13.67-2.64.69-3.98 1.01-.31-.36-.62-.72-.92-1.07 5.21-8.83 10.45-17.64 15.58-26.52.94-1.62 1.42-3.51 2.11-5.27-2.07-.79-4.18-2.34-6.2-2.24-10.12.5-20.26 1.04-30.31 2.29-21.25 2.63-42.5 5.38-63.65 8.7-21.31 3.34-42.46 7.78-63.78 11.04-10.9 1.63-22.03 1.75-33.07 2.57z" fill="#010106"/><path d="m120.43 157.2c3.09-.73 6.14-1.71 9.27-2.14 25.48-3.46 50.98-6.78 76.46-10.23 7.72-1.04 15.37-2.98 23.11-3.33 5.45-.25 11.21.8 16.41 2.53 4.52 1.51 4.57 5 .19 6.93-4.6 2.03-9.72 3.22-14.73 3.95-26.27 3.83-52.53 7.74-78.88 10.88-11.17 1.33-21.8-2.15-31.76-7.13-.02-.48-.05-.97-.07-1.46z" fill="#010106"/><g fill="#fafbfa"><path d="m12.4 4.8-7.1 9h6v1.2h-8v-.5l6.1-8.9h-4.7v-1.2h7.6v.4z"/><path d="m14 14v-9.6h3c1.6 0 2.9.5 4 1.4s1.6 2.2 1.6 3.8-.5 3-1.6 3.9-2.4 1.5-4 1.5h-3zm1.4-8.4v8.2h1.6c1.3 0 2.4-.4 3.1-1.1s1.1-1.8 1.1-3.1-.4-2.3-1.2-3-1.8-1-3.1-1z"/><path d="m26.1 4.4v10.6h-1.4v-10.6z"/><path d="m36.1 14.6c-.8.4-1.8.6-2.9.6-1.5 0-2.7-.5-3.6-1.4s-1.4-2.2-1.4-3.8c0-1.7.5-3.1 1.5-4.1s2.3-1.6 3.9-1.6c1 0 1.8.1 2.5.4v1.4c-.8-.4-1.6-.6-2.5-.6-1.2 0-2.1.4-2.9 1.2s-1.1 1.8-1.1 3.2c0 1.3.3 2.3 1 3s1.6 1.1 2.7 1.1c1 0 2-.2 2.7-.7v1.3z"/><path d="m37.6 14.3c0-.2.1-.5.3-.6s.4-.3.6-.3c.3 0 .5.1.6.3s.3.4.3.6-.1.4-.3.6-.4.3-.6.3c-.3 0-.5-.1-.6-.3s-.3-.4-.3-.6z"/><path d="m50.2 15h-1.6l-5.3-8.2c-.2-.2-.3-.5-.4-.7 0 .2.1.7.1 1.5v7.4h-1.4v-10.6h1.7l5.2 8.1c.2.4.4.6.4.7 0-.3-.1-.8-.1-1.5v-7.3h1.4z"/><path d="m58.6 15h-5.7v-10.6h5.5v1.2h-4.1v3.4h3.8v1.2h-3.8v3.6h4.3z"/><path d="m67.1 5.6h-3.1v9.4h-1.4v-9.4h-3v-1.2h7.5z"/></g></svg>