<svg enable-background="new 0 0 400 400" viewBox="0 0 400 400" xmlns="http://www.w3.org/2000/svg"><path d="m362.1 8.8c1.1.8 2.1 1.6 3.1 2.4l-1 1.1c-1.3-1.1-2.3-2-3-2.5zm1.9 4.8c.5.2.9.4 1.4.5-.6 2.3-1.3 4.5-1.9 6.8l-1.5-.5c.8-2.1 1.4-4.3 2-6.8zm-1-9.4c1.3.9 2.4 1.8 3.4 2.5l-1 1.1c-1.4-1.2-2.4-2.1-3.2-2.6zm3.7 2.2v-1.4h10.3v1.2c-.5 3.6-1.8 6.8-4 9.4 1.5 1.6 3.4 2.8 5.7 3.8-.3.4-.7.8-1.1 1.4-2.3-1.1-4.1-2.5-5.6-4.1-1.6 1.6-3.6 3.1-5.9 4.3-.3-.5-.7-.9-1-1.3 2.4-1.1 4.4-2.5 6-4.1-1.9-2.5-3-5.6-3.3-9.3h-1.1zm8.8 0h-6.4c.3 3.3 1.3 6 3 8.2 2-2.3 3.1-5.1 3.4-8.2z" fill="#fcfbfa"/><path d="m385.3 3.8h1.3v2.2h2.8v-2.2h1.3v2.2h4.1v9.1h1.7v1.3h-16.9v-1.3h1.7v-9.1h4.1v-2.2zm.4 13.1.7 1.2c-1.8.9-3.8 1.9-6 2.9-.2-.4-.5-.8-.8-1.3 2.3-1 4.3-1.9 6.1-2.8zm-3.1-6.4h2.8v-3.2h-2.8zm0 4.6h2.8v-3.3h-2.8zm4-4.6h2.8v-3.2h-2.8zm0 4.6h2.8v-3.3h-2.8zm3.7 1.9c2.1.9 4.1 1.8 6.1 2.7l-.7 1.3c-2.2-1.1-4.2-2-6.1-2.9zm3.2-9.7h-2.8v3.2h2.8zm-2.8 7.8h2.8v-3.3h-2.8z" fill="#fcfbfa"/><g fill="#010100"><path d="m46.54 324.52c2.96-3.34 4.96-6.11 7.46-8.33 18.65-16.59 34.93-35.15 47.7-56.68 1.1-1.85 2.09-3.76 3.51-6.33-5.39-3.95-10.72-7.86-16.05-11.77-16.99-12.48-14.02-8.52-10.73-26.54 2.02-11.07 4.15-22.12 6.41-34.15-3.01.79-5.19 1.22-7.28 1.94-11.93 4.11-23.88 8.15-35.73 12.49-5.71 2.09-10.38.98-14.55-3.16-2.01-1.99-4.32-3.79-5.89-6.08-.99-1.45-1.57-3.91-1.02-5.46.42-1.19 2.8-2.15 4.43-2.39 19.05-2.78 38.11-5.52 57.21-7.96 3.21-.41 4.32-1.86 4.64-4.54 1.45-12.21 3.06-24.4 4.19-36.63 1.17-12.57 2.36-25.17 2.59-37.78.22-11.87.93-24-5.34-35.04-.92-1.63-1.28-4.82-.32-5.93.97-1.12 4.26-1.34 5.9-.59 7.92 3.64 15.81 7.45 23.35 11.81 3.56 2.05 3.85 5.71 2.83 10.04-5.16 21.94-9.99 43.97-14.67 66.02-1.96 9.22-3.24 18.58-5 28.88 4.98-1.22 9.38-2.29 13.78-3.37 3.54-.87 7.05-2.15 10.64-2.51 5.01-.49 6.45-3.42 6.33-7.72-.14-4.97-1.02-9.99-.55-14.89.28-2.91 2.53-5.63 3.89-8.43 2.16 1.19 5.19 1.85 6.32 3.68 3.21 5.2 5.69 10.85 8.35 16.38.38.8.36 1.94.17 2.85-3.22 14.89-6.72 29.72-9.71 44.65-3.36 16.79-7.07 33.44-14.17 49.04 4.18 3.11 8.26 5.96 12.13 9.07 9.12 7.32 12.66 17.25 12.61 28.59-.02 5.31-2.59 6.65-6.93 3.64-3.11-2.16-5.85-4.89-8.56-7.56-5.42-5.32-10.71-10.77-15.2-15.31-11.99 13.68-22.99 27.22-35.08 39.7-8.87 9.15-18.75 17.57-31.95 20.33-.81.17-1.61.41-2.43.51-.48.07-.98-.12-3.28-.47zm81.63-155.56c-9.28 2.27-17.83 4.18-26.25 6.58-1.54.44-3.27 2.67-3.64 4.36-3.11 14.26-5.83 28.61-8.91 42.87-.61 2.81-.54 4.89 2.05 6.4 6.71 3.89 13.42 7.76 20.7 11.97 8.09-23.92 13.56-47.47 16.05-72.18z"/><path d="m238.47 81.71c-1.57-3.88-2.57-7.19-4.19-10.15-1.75-3.21-4.46-4.74-8.56-4.7-6.45.06-12.91-.74-19.34-1.38-1.62-.16-3.15-1.14-6.15-2.29 2.42-1.22 3.42-1.97 4.54-2.25 22.53-5.58 45.05-11.2 67.62-16.59 9.93-2.37 21.39-.04 26.97 5.38-17.47 7.62-35.94 10.28-54.74 14.15 3.51 1.36 6.37 2.47 8.5 3.29v13.09c7.55-1.37 14.49-2.72 21.46-3.89 15.05-2.51 30.12-4.93 45.18-7.36.64-.1 1.36-.09 1.98.07 10.78 2.88 21.6 5.87 30.54 12.89 3.93 3.08 6.98 7.3 11 11.61-17.67 3.09-33.92 5.93-50.99 8.92 1.2-1.95 2.14-3.73 3.31-5.34 1.87-2.54 4.19-4.78 5.79-7.47 3.25-5.46 1.42-8.71-4.9-8.45-10.29.43-20.59 1.04-30.84 2.02-11.05 1.06-22.05 2.63-33.65 4.04 0 10.63.41 21.1-.15 31.52-.34 6.38-1.99 12.72-3.46 18.98-.39 1.66-2.12 3.99-3.49 4.18-1.42.19-3.69-1.48-4.65-2.96-4.81-7.41-7.64-15.08-5.23-24.41 2.09-8.08 2.6-16.56 3.9-25.5-12.6 1.96-23.69 3.7-34.78 5.41-5.74.88-11.55 1.47-17.22 2.66-1.93.41-4.16 1.89-5.19 3.54-3.34 5.35-6.13 11.05-9.25 16.54-1.06 1.86-2.17 3.96-3.83 5.16-2.12 1.54-5.7 3.84-7.08 3.06-2.51-1.43-4.67-4.68-5.45-7.58-.64-2.39.34-5.68 1.61-8.02 2.92-5.4 6.52-10.43 9.72-15.69 1.98-3.25 3.68-6.67 5.61-9.94 2.73-4.63 5.14-4.63 7.86-.03.85 1.43 1.56 2.94 2.61 4.93 17.9-2.43 35.92-4.87 54.94-7.44z"/><path d="m172.51 169.06c24.64.32 48.23-2.37 71.88-7.07-3.94-5.55-7.55-10.62-11.02-15.5 4.01-5.11 9.47-3.89 16.47 1.04 4.71 3.32 5.42 6.15 2.82 13.25 10.93-1.85 21.29-3.46 31.59-5.4 5.53-1.04 10.94-2.67 16.42-3.96 7.62-1.79 14.95-.6 21.74 2.98 1.83.96 4.29 4.21 3.84 5.28-.93 2.19-3.43 4.64-5.7 5.14-4.65 1.04-9.56.97-14.38 1.17-12.43.5-24.87.88-37.83 1.33 2.47 2.73 4.89 4.85 6.6 7.44 1.94 2.93 1.73 5.15-1.91 7.69-4.95 3.46-8.64 8.68-13.28 12.67-6.8 5.84-8.18 13-7.98 21.65.28 11.91-.92 23.85-1.73 35.77-.13 1.91-1.55 3.73-2.66 6.25-4.86-4.6-5.15-9.84-5.35-14.81-.35-8.48.02-16.98-.14-25.47-.11-5.61-.6-11.21-.93-16.93.12-.11.44-.55.6-.5 6.4 2.08 9.16-1.89 11.31-6.81 2.65-6.04 5.94-11.91 7.72-18.2 1.9-6.67-.52-9.11-7.03-7.99-13.22 2.28-26.37 5-39.57 7.4-7.01 1.28-14.07 2.35-21.12 3.4-5.64.84-17.9-4.6-20.36-9.82z"/><path d="m382.27 246.46c-12.94 1.85-25.86 3.91-38.83 5.48-9.39 1.14-16.86-1.86-22.61-10.16-7.48-10.79-16.39-20.59-23.89-31.37-4.31-6.19-8.93-7.59-15.66-4.54-.47 8.63-.95 17.5-1.42 26.35 5.56-2.79 10.92-5.48 16.28-8.18.43.49.86.97 1.29 1.46-6.14 8.89-12.29 17.77-18.34 26.53-8.74-3.24-10.19-7.48-9.03-15.68 1.33-9.46 1.03-19.16 1.21-28.75.08-4.02-.43-8.05-.76-13.68 3.99 2.07 6.86 2.84 8.67 4.67 2.84 2.87 4.97 2.21 7.66.1 7.26-5.71 13.96-11.78 16.57-21.18.29-1.03 2.11-2.47 3.03-2.34 5.4.76 12.47 7.87 13.54 13.22-7.56 3.61-15.15 7.23-23.19 11.07 14.56 19.42 32.34 33.3 55.5 39.25 7.49 1.93 15.42 2.14 23.12 3.32 2.41.37 4.74 1.29 7.1 1.97-.09.82-.16 1.64-.24 2.46z"/><path d="m189.1 209.58c1.27 1.53 2.14 2.49 2.91 3.52 2.41 3.22 3.34 6.4 1.65 10.56-7.61 18.81-20.41 32.45-39.23 40.2-1.62.67-3.75.12-5.64.13 1.09-1.38 1.93-3.14 3.32-4.08 14.71-9.89 26.01-22.2 29.38-40.31.38-2.07.38-4.22.56-6.29-7.27-1.34-16.15 1.37-18.94-9.12 12.57-.59 24.5-2.21 35.73-7.28 3.07-1.38 6.99-4.34 9.22-3.42 5.68 2.33 10.72 6.31 15.77 9.97.99.71 1.52 3.13 1.16 4.45-2.76 10.04-5.57 20.07-8.81 29.95-2.05 6.24-4.6 12.4-10.23 16.83-3.42-5.67-6.63-10.97-9.87-16.33.02-.02.21-.4.42-.41 8.72-.54 9.18-.41 11.48-8.95 1.61-5.98 1.97-12.35 2.4-18.57.27-3.96-1.93-5.61-6.05-4.49-4.78 1.31-9.63 2.32-15.23 3.64z"/><path d="m301.51 365.3c-4.65-3.93-5.12-9.77-5.49-15.16-1.33-19.03-2.11-38.11-3.22-57.16-.42-7.28-.96-14.57-1.91-21.8-.4-3.02-2.22-5.83-2.97-8.85-.48-1.92-.97-5.29-.11-5.81 1.83-1.12 4.57-1.19 6.86-.95 1.66.17 3.17 1.6 4.79 2.37 8.17 3.91 9.3 6.15 7.98 15.15-.36 2.45-.31 4.97-.35 7.47-.35 22.94-.53 45.88-1.1 68.81-.13 5.32-1.55 10.61-2.37 15.92-.72 0-1.42 0-2.11.01z"/><path d="m163.55 344.56c1.43-1.59 2.55-3.07 3.9-4.31 10.36-9.52 19.72-19.78 24.8-33.22 4.64-12.27 4.36-24.26-2.27-35.84-1.66-2.89-.23-5.94 2.91-5.33 5.09.99 10.07 2.86 14.88 4.89 1.22.51 2.33 3.07 2.24 4.6-.84 13.56-1.38 27.15-8.5 39.46-8.17 14.13-20.39 23.35-34.85 30.06-.43.2-.97.25-1.46.26-.3.01-.6-.19-1.65-.57z"/><path d="m218.85 301.05c3.27-.67 6.53-1.42 9.81-2.01 12.24-2.21 24.48-4.4 36.73-6.54 3.26-.57 6.61-1.52 9.82-1.22 2.26.21 4.34 2.23 6.5 3.45-1.53 1.39-2.86 3.62-4.62 4.03-12.75 2.95-25.52 5.99-38.43 8-5.02.78-10.47-.87-15.68-1.74-1.54-.26-2.9-1.64-4.34-2.51.07-.49.14-.97.21-1.46z"/><path d="m233.47 281.46c-3.57-.73-7.46-1.41-11.28-2.39-.89-.23-2.28-1.67-2.13-2.19.3-1.07 1.35-2.53 2.31-2.73 14.25-2.93 28.52-5.75 42.83-8.38 2.02-.37 4.34.08 6.34.72 1.35.43 2.39 1.87 3.56 2.86-1.15 1.21-2.11 3.12-3.49 3.51-8.11 2.28-16.3 4.31-24.52 6.21-4.34 1-8.78 1.56-13.62 2.39z"/><path d="m271.07 93c7.19 1.38 14.37 2.77 21.56 4.16.15.03.29.15.42.25 2.94 2.2 6.82 4.55 4.85 8.66-1.63 3.39-5.91 3.94-9.23 2.31-5.58-2.74-10.9-6.04-16.16-9.38-1.18-.75-1.65-2.63-2.44-3.99.34-.67.67-1.34 1-2.01z"/><path d="m211.32 141.17c-6.63-2.49-12.88-4.61-18.88-7.27-1.36-.6-1.88-3.08-2.79-4.7 1.62-.74 3.39-2.32 4.83-2.06 6.32 1.13 12.67 2.44 18.75 4.46 1.99.66 3.21 3.66 4.78 5.58-2.1 1.26-4.2 2.51-6.69 3.99z"/><path d="m269.45 120.36c5.92-3.18 10.79-2.22 15.29-.25 3.74 1.64 7.29 3.98 10.4 6.63 1.28 1.09 1.61 3.83 1.49 5.76-.04.7-2.87 2.06-4.04 1.74-8.66-2.43-16.33-6.63-23.14-13.88z"/><path d="m190.38 109.33c8.3-6.86 22.01-4.03 26.33.89 1.27 1.45 1.59 3.73 2.34 5.63-1.97.41-4.06 1.46-5.87 1.11-5.18-1-10.3-2.42-15.35-3.98-2.39-.74-4.56-2.21-7.45-3.65z"/><path d="m218.86 179.25c8.17-1.29 18.63 7.09 18.1 14.33-.16 2.17-2.08 4.2-3.2 6.3-1.63-1.17-3.73-2.01-4.79-3.57-3.17-4.66-5.94-9.59-8.85-14.43-.4-.69-.69-1.46-1.26-2.63z"/></g></svg>