<svg enable-background="new 0 0 400 400" viewBox="0 0 400 400" xmlns="http://www.w3.org/2000/svg"><g fill="#010105"><path d="m242.8 202.09c-6.93-2.14-13.32-4.12-19.71-6.1.09-.44.18-.89.27-1.33 7.9-1.9 15.83-3.69 23.68-5.8 1.36-.37 3.35-2.03 3.38-3.14.27-9.3.15-18.6.15-28.67-2.78.58-5 1.53-7.15 1.39-4.16-.28-8.32-1.01-12.39-1.94-.87-.2-1.37-2.01-2.04-3.09 1.08-.53 2.1-1.33 3.24-1.53 2.44-.45 4.95-.52 7.41-.87 10.03-1.42 10.22-1.46 9.04-11.42-.81-6.88-1.41-13.91-6.98-19.26-1.12-1.07-.81-3.63-1.16-5.5 1.84-.13 3.87-.82 5.49-.29 4.71 1.53 9.32 3.41 13.86 5.42 3.62 1.6 5.04 4.49 4.32 8.55-.97 5.52-1.66 11.1-2.51 16.95 7.41-1.29 14.2-2.45 20.99-3.65 4.01-.71 6.54-2.49 6.23-7.24-.57-8.77-.37-17.61-1.26-26.35-.59-5.84-1.88-6.04-7.83-5.25-13.5 1.79-27 3.62-40.55 4.86-4.84.45-9.83-.73-15.14-1.21-.69 12.32-1.36 24.57-2.08 36.81-2.13 36.4-6.2 72.48-17.94 107.26-8.07 23.89-19.26 46-37.34 64.04-2.5 2.49-5.71 4.26-8.6 6.37-.46-.37-.92-.74-1.38-1.11.98-1.88 1.71-3.96 2.98-5.63 21.82-28.74 33.54-61.64 40.16-96.69 5.27-27.89 7.29-56.07 6.7-84.39-.21-9.89-2.15-19.78-3.77-29.6-.52-3.16-2.6-6.05-3.83-9.11-.39-.97-.87-2.62-.42-3.07.79-.79 2.43-1.48 3.42-1.2 5.54 1.6 11.57 2.58 16.32 5.56 5.2 3.26 10.28 3.85 15.61 2.64 22.96-5.19 45.9-10.49 68.73-16.2 12.85-3.21 25.2-8.59 38.89-7.51 6 .47 13.18 3.1 16.87 7.25-3.31 1.74-6.24 3.94-9.54 4.9-16.84 4.91-33.78 9.5-50.53 14.15 2.12 1.17 4.92 2.49 7.48 4.19 3.73 2.48 4.95 5.43 3.08 10.2-2.43 6.22-3.63 12.93-5.35 19.43.41.32.82.63 1.23.95 5.48-2.61 11.09-4.97 16.41-7.89 6-3.29 11.69-4.36 17.79-.28 5.77 3.86 11.88 7.21 17.57 11.17 2.49 1.73 3.64 4.66.82 7.26-11.66 10.72-18.36 24.69-25.45 38.43-3.6 6.99-5.15 6.95-10.58 1.05-1.16-1.25-4.12-1.67-6.01-1.29-16.26 3.27-32.47 6.8-48.69 10.28-2.42.52-4.81 1.24-8.1 2.1 4.72 5.46.92 8.78-2.2 12.99-5.19 7-9.44 14.7-14.08 22.11.38.47.76.93 1.14 1.4 5.64-.79 11.35-1.25 16.91-2.42 19.63-4.14 39.21-8.52 58.8-12.85 1.45-.32 2.93-.74 4.26-1.39 15-7.36 26.8.04 38.38 8.3 3.31 2.36 3.98 5.54 2.03 9.15-8.17 15.08-8.83 31.8-10.83 48.29-2.37 19.5-5.98 38.74-15.84 56.17-.73 1.3-1.56 2.56-2.49 3.73-7.92 10-14 9.61-20.2-1.39-5.71-10.12-12.86-18.94-22.78-25.37.16-.53.32-1.07.48-1.6 4.36.5 8.71 1.04 13.07 1.49 5.61.58 11.24 1.02 16.85 1.65 3.05.34 4.46-1.08 5.47-3.8 5.49-14.9 8.73-30.32 10.22-46.06.82-8.6 1.08-17.28 1.1-25.92.02-6.66-4.01-10.29-10.55-9.7-15.54 1.38-31.1 2.62-46.55 4.68-14.7 1.96-28.87 6.3-42.18 12.98-3.93 1.97-7.03.78-9.21-2.19-2.5-3.42-5.42-7.8-2.17-11.78 8.04-9.85 12.06-21.23 14.58-33.07zm52.41-24.43c8.93-.97 16.82-1.79 24.7-2.72.84-.1 2.07-.65 2.34-1.31 3.91-9.44 6.74-19.13 5.32-29.5-.37-2.69-1.72-4.45-5.22-3.39-5.7 1.72-11.58 2.81-17.29 4.48-1.22.36-2.67 1.87-2.98 3.11-2.4 9.59-4.55 19.25-6.87 29.33zm-7.41-28.97c-7.54 1.54-14.8 2.94-22.01 4.59-1.37.31-3.56 1.59-3.58 2.47-.26 9.69-.16 19.39-.16 29.61 7.65-1.95 14.53-3.65 21.36-5.53.85-.24 1.98-1.42 2.05-2.24.88-9.53 1.57-19.06 2.34-28.9z"/><path d="m134.71 156.13c8.38-1.35 15.84-2.97 23.38-3.67 9.74-.9 19.55-1.16 29.33-1.49 1.92-.07 3.99.51 5.79 1.28 1.56.67 2.82 2.03 4.21 3.09-1.48 1.15-2.81 2.97-4.46 3.33-5.01 1.1-10.14 1.69-15.24 2.37-15.31 2.04-30.64 3.99-45.94 6.12-1.21.17-2.77 1.23-3.3 2.3-5.16 10.37-10.13 20.83-15.33 31.63 5.4-1.18 11.32-2.13 17.04-3.8 11.3-3.31 22.51-6.92 33.69-10.6 5.38-1.77 17.39 4.21 18 9.69.21 1.89-1.3 4.71-2.92 5.93-12.18 9.21-24.59 18.13-36.47 26.81 2.24 6.76 4.15 12.53 6.04 18.23 8.3-3.45 16.63-7.15 25.17-10.32 2.24-.83 5.1.02 7.68.1-1.68 1.8-3.05 4.14-5.09 5.29-7.38 4.16-14.9 8.1-22.55 11.73-3.28 1.56-3.98 3.4-3.61 6.89 1.25 11.87 2.67 23.78 2.89 35.7.26 13.93-3.27 27.02-12.47 38.04-.21.26-.36.57-.59.8-9.29 9.35-8.37 7.42-15.09-.4-5.77-6.72-13.09-12.12-19.78-18.04-1.64-1.46-3.49-2.68-5.25-4.02.19-.55.39-1.1.58-1.65 2.78.4 5.59.67 8.34 1.23 2.92.59 5.74 1.87 8.67 2.14 11.76 1.1 17.37-2.74 20.49-14.17 3.31-12.12 1.93-24.3.17-37.56-10.33 6.33-19.92 12.21-29.51 18.1-3.54 2.17-7.27 4.1-10.55 6.62-6.36 4.89-12.02 2.91-17.63-1.18-.94-.68-2.12-1.29-2.65-2.24-1.72-3.11-3.2-6.35-4.77-9.54 2.78-1.25 5.46-3.13 8.37-3.64 17.83-3.14 34.52-9.59 51-16.81 3.47-1.52 4.79-2.97 3.73-6.99-1.7-6.43-4.08-12.25-9.16-16.79-.98-.88-1.31-2.48-1.93-3.76 1.4-.68 2.73-1.59 4.21-1.98 1.24-.33 2.82-.46 3.95.02 6.03 2.53 9.11-1.38 12.22-5.31 5.34-6.75 10.65-13.53 15.98-20.3-.27-.42-.53-.84-.8-1.26-5.8 1.39-11.71 2.42-17.37 4.25-8.84 2.85-17.48 6.29-26.24 9.37-2.01.71-4.28 1.64-6.25 1.33-5.22-.83-7.92 1.66-10.79 5.65-14.34 19.99-30.58 38.25-50.11 53.35-3.39 2.62-7.31 4.57-10.99 6.83-.53-.52-1.06-1.04-1.6-1.56 1.39-2.22 2.47-4.71 4.21-6.6 9.13-9.92 18.84-19.32 27.57-29.57 16.83-19.76 30.21-41.73 40.11-65.77.35-.86.59-1.77 1.1-3.33-11.61 2.96-22.63 5.78-33.65 8.57-2.41.61-4.84 1.16-7.27 1.69-7.99 1.74-16.86-2.49-21.71-11.13 2.81-.76 5.3-1.72 7.87-2.09 18.7-2.72 37.41-5.43 56.15-7.88 3.12-.41 3.89-2.05 4.18-4.47.98-8.21 1.87-16.43 2.82-24.89 6.32-.45 11.4 2.09 15.35 7.16 4.09 5.21 4.93 10.72.78 17.17z"/><path d="m139.41 86.09c11.5-14.34 16.71-27.58 17.66-44.41 8.12-1.19 19.89 7.5 20.83 15.6.14 1.24-.83 2.76-1.63 3.92-6.45 9.29-12.99 18.53-19.48 27.79-.93 1.33-1.77 2.73-2.77 4.27 10.92 6.74 22.99 12.04 26.5 25.79.72 2.81.1 5.96.1 8.95-.63.38-1.26.75-1.89 1.13-11.52-7.41-23.03-14.81-34.36-22.1-9.99 7.51-19.8 15.43-30.18 22.52-10.23 7-20.84 13.57-32.37 18.19-.45-.61-.89-1.22-1.34-1.83 1.81-1.97 3.44-4.15 5.45-5.89 13.86-11.95 27.82-23.78 41.7-35.71 1.63-1.4 2.95-3.14 5.21-5.58-14.59-9.33-28.87-18.47-43.15-27.6 17.92 1.02 33.63 8.27 49.72 14.96z"/><path d="m259.31 32.7c11.63 2.23 22.43 3.14 31.86 8.95 10.4 6.41 12.12 21.78 3.18 30.13-1.02.95-4.44.94-5.52-.02-12.15-10.75-21.8-23.46-29.52-39.06z"/><path d="m222.05 256.41c.99 3.73 2.42 7.4 2.89 11.19 1.19 9.65.35 19.18-3.01 28.39-2.07 5.68-6.68 9.66-10.53 9.03-3.66-.6-7.62-6.16-7.48-11.72.09-3.49.85-7.22 2.32-10.36 3.79-8.04 8.13-15.81 12.29-23.67.53-1 1.27-1.88 1.91-2.81.53-.01 1.07-.03 1.61-.05z"/><path d="m298.17 254.09c7.05-3.54 12.66-2.54 16.71 1.95 3.86 4.28 6.74 9.54 9.47 14.67.82 1.54.16 4.3-.62 6.16-2.46 5.85-6.76 6.45-10.31 1.24-5.27-7.73-10.06-15.78-15.25-24.02z"/><path d="m260.35 280.99c-.03 3.21-1.47 6.9-6.06 7.93s-7.25-2.12-8.62-5.85c-2.03-5.54-3.67-11.25-5.09-16.98-1.02-4.12 1.33-6.08 5.52-5.12 5.51 1.27 14.45 13.08 14.25 20.02z"/><path d="m291.02 276.87c-.23.67-.7 2.79-1.64 4.69-2.14 4.34-6.73 4.96-8.88.81-3.5-6.75-6.27-13.89-9.03-20.99-.29-.74 1.44-2.55 2.57-3.43.57-.44 1.96-.07 2.88.21 5.78 1.79 14.33 12.26 14.1 18.71z"/></g><path d="m6.8 9.5c.6.3 1.3.7 2.1 1.1-.4.4-.7.8-.9 1.2-.7-.4-1.3-.8-1.8-1.1s-1.1-.6-1.6-.8c.2-.4.5-.8.7-1.2.4.2.8.5 1.5.8zm.9 6.9c-.3.6-.5 1.1-.7 1.7s-.4 1.1-.6 1.7c-.6-.4-1.1-.7-1.6-1 .7-1 1.2-1.8 1.5-2.4.3-.5.6-1.1.8-1.7.3-.6.5-1.2.8-1.8.3.3.8.6 1.3.8-.7 1.3-1.2 2.2-1.5 2.7zm.1-11c.4.3 1 .7 1.7 1.1-.5.2-.8.6-1.1 1.1-.5-.6-1-1-1.4-1.2s-.9-.6-1.5-.8c.2-.4.5-.7.9-1.1.5.3.9.6 1.4.9zm10.5 13c1 .4 2 .6 3.1.7-.4.4-.7.8-.8 1.3-.9-.2-1.9-.6-3-.9-1-.4-2-.9-2.8-1.6-.5.4-1.1.9-1.9 1.3s-1.9.9-3.3 1.2c-.1-.3-.5-.8-1.1-1.3 1 0 2.1-.3 3.2-.8 1.2-.5 1.9-1 2.3-1.7h-3.2c-.4 0-1 0-2 .1v-1.2c1 0 1.7.1 2 .1h3.3v-1h-2.3c-.2 0-.9 0-2 .1v-1.2c1.2 0 1.9.1 2 .1h2.3v-.8h-4.1c0-.7.1-1.2.1-1.6 0-.5 0-1.1-.1-1.8h4.1v-.6h-2.5c0-.6.1-1.1.1-1.6v-.6h-.5c-.4 0-1 0-1.8.1v-1.3c1.2 0 1.9.1 2.1.1h.2c0-.3 0-.8-.1-1.4h1.4c0 .6-.1 1-.1 1.4h3.4c0-.4 0-.8-.1-1.3h1.5c0 .4-.1.9-.1 1.3.7 0 1.5 0 2.5-.1v1.2c-1 0-1.8-.1-2.5-.1v.6c0 .3 0 .8.1 1.5h-2.5v.8h4.1c0 .7-.1 1.3-.1 1.8s0 1 .1 1.5h-4.1v.8h1.4c.8 0 1.8 0 2.9-.1v1.2c-1 0-1.9-.1-2.8-.1h-1.5v1h3.2c.3 0 1 0 2.1-.1v1.2c-1.1 0-1.8-.1-2.1-.1h-3.4l-.1.1c1.4 1 2.4 1.5 3.4 1.9zm-4.1-6.6v-1.3h-2.7v1.3zm2.2-4.1v-1.1h-3.4v1.1zm1.9 4.1v-1.3h-2.8v1.3z" fill="#fbfafc"/><path d="m37 6.7v2.3 5.4c1 0 1.8 0 2.2-.1v1.3c-.6 0-1.5-.1-2.5-.1h-11.9c-.7 0-1.3 0-1.8.1v-1.3c.5 0 1.1.1 2 .1v-5.2c0-1 0-1.8-.1-2.5h3.7c0-1.3 0-2.1-.1-2.5h1.5c0 .4-.1 1.3-.1 2.5h2.2c0-1.2 0-2.1-.1-2.6h1.5c0 .4-.1 1.3-.1 2.6zm-12.3 13.7c-.3-.4-.7-.8-1.1-1.1 1.1-.4 2.1-.9 2.9-1.3.8-.5 1.5-1 2.1-1.6.4.4.9.8 1.3 1.1-2.5 1.4-4.2 2.4-5.2 2.9zm3.9-10.1v-2.4h-2.2v2.4zm0 4.1v-2.9h-2.2v2.9zm3.5-4.1v-2.4h-2.2v2.4zm0 4.1v-2.9h-2.2v2.9zm.4 2.9 1-1.1c.6.3 1.4.7 2.5 1.3s2 1.1 2.7 1.5c-.4.4-.8.8-1.1 1.3-.8-.8-2.5-1.7-5.1-3zm3.1-7v-2.4h-2.1v2.4zm0 4.1v-2.9h-2.1v2.9z" fill="#fbfafc"/></svg>