<svg enable-background="new 0 0 400 400" viewBox="0 0 400 400" xmlns="http://www.w3.org/2000/svg"><path d="m2.6 9.9.8-1c.9.7 1.9 1.4 2.9 2.3l-.9 1.1c-1.1-1-2-1.8-2.8-2.4zm.5 10.6c.9-2.1 1.6-4.3 2.3-6.7.4.2.8.4 1.3.6-.7 2.1-1.5 4.3-2.2 6.6zm.3-15.2.9-.9c1 .8 2 1.6 2.8 2.4l-1 1c-.9-.9-1.8-1.7-2.7-2.5zm12.6-1.2h1.2v1.4h2.7v1.1h-2.7v2.7h-1.2v-.6h-1.8v1.3h4.9v3.8h-1.2v-.5h-3.7c0 .4-.1.9-.1 1.2h5.1v1h-5.2c0 .5-.1.9-.2 1.2h6v1h-5.2c1.1 1.3 2.9 2 5.5 2.2-.4.4-.7.8-.9 1.3-2.9-.5-4.8-1.6-5.7-3.5h-.1c-.8 1.7-2.7 2.9-5.9 3.6-.2-.4-.6-.8-.9-1.1 2.8-.6 4.6-1.4 5.4-2.5h-4.8v-1h5.3c.1-.3.2-.7.2-1.2h-4.9v-1h5c0-.4 0-.8.1-1.2h-3.6v.5h-1.2v-3.8h4.9v-1.3h-1.8v.5h-1.2v-2.7h-2.7v-1h2.7v-1.4h1.2v1.4h4.8zm-6.7 8.3h3.6c0-.4 0-.9 0-1.4h-3.6zm1.9-4.6h4.8v-1.3h-4.7v1.3zm6.7 3.2h-3.7v1.4h3.7z" fill="#fbfcfa"/><path d="m8.7 22.1h1.3v2.2h2.8v-2.2h1.3v2.2h4.1v9.1h1.7v1.3h-17v-1.3h1.7v-9.1h4.1zm.3 13.1.7 1.2c-1.8.9-3.8 1.9-6 2.9-.2-.4-.5-.8-.8-1.3 2.3-1 4.4-1.9 6.1-2.8zm-3.1-6.4h2.8v-3.2h-2.8zm0 4.6h2.8v-3.3h-2.8zm4.1-4.6h2.8v-3.2h-2.8zm0 4.6h2.8v-3.3h-2.8zm3.6 1.9c2.1.9 4.1 1.8 6.1 2.7l-.7 1.4c-2.2-1.1-4.2-2-6.1-2.9zm3.2-9.7h-2.8v3.2h2.8zm-2.7 7.8h2.8v-3.3h-2.8z" fill="#fbfcfa"/><g fill="#010104"><path d="m149.1 226.91c.53-11.42 1.02-21.84 1.54-33-2.37.4-4.4.68-6.4 1.08-13.56 2.75-26.67 6.8-39.12 12.97-1.82.9-4.98.74-6.79-.27-6.38-3.54-8.41-11.5-4.94-17.85 7.11-13.02 6.48-26.43 2.27-40.07-.52-1.7-1.1-3.38-1.81-5.56 9.69-1.23 16.16 4.09 23.09 9.03-2.1 12.89-4.2 25.77-6.37 39.06 13.71-1.39 24.65-10.33 38.51-9.26.48-19.48.8-38.83-6.94-57.3-2.09-4.97-1.46-5.97 3.76-7.19 6.58-1.54 21.06 4.64 23.85 10.75.99 2.17.64 5.31.03 7.79-5.29 21.46-6.72 43.27-6.82 65.28-.19 43.3-.54 86.59-1.05 129.88-.07 6.27-.91 12.63-2.28 18.75-1.47 6.56-5.39 7.56-10.3 2.88-6.71-6.39-9-14.91-8.58-23.69.72-15.09 2.29-30.14 3.7-45.19 1.48-15.68 3.2-31.34 4.89-47.75-12.65 4.04-24.44 7.81-36.18 11.55.08.69-.01 1.14.16 1.27 6.94 5.26 8.26 10.76 4.61 19.54-10.24 24.62-23.44 46.65-45.87 62.04-4.52 3.1-9.21 6-14.08 8.48-1.54.78-3.91-.08-5.91-.19.8-1.66 1.19-3.81 2.47-4.91 23.17-19.89 38.23-44.49 43.8-74.67.47-2.57.76-5.17 1.29-8.87-10.09 4.36-19.37 8.24-28.54 12.39-6.76 3.06-21.35-1.84-24.62-8.54-1.42-2.91.81-5.52 5.48-6.32 4.08-.7 8.23-1.13 12.25-2.07 28.11-6.56 56.17-13.24 84.9-20.04z"/><path d="m266.89 310.45c6.47 4.67 13.62 5.63 20.69 6.14 14.27 1.01 28.22-1.26 41.66-5.98 2.6-.92 5.43-3.84 6.33-6.46 3.2-9.38 5.61-19.03 8.32-28.58.8-2.82 1.6-5.64 2.4-8.45.49-.13.98-.25 1.47-.38 1.04 2.04 2.38 3.98 3.06 6.13 3.61 11.39 7.12 22.82 10.52 34.27 2.26 7.61 1.15 10.03-5.84 13.6-20.02 10.21-41.54 12.27-63.54 11.56-14.81-.47-28.87-3.85-42.12-10.6-1.49-.76-3.78-.41-5.59-.03-16.05 3.38-32.08 6.88-48.12 10.32-.78.17-1.64.02-2.64-.65 8.11-2.92 16.35-5.53 24.29-8.85 7.92-3.3 15.54-7.31 23.34-11.03-4.83-15.04-3.03-29.33-2.41-43.56.76-17.62 1.52-35.23 2.19-52.85.1-2.64-.61-5.33-.4-7.95.17-2.04.61-4.82 1.98-5.81 1.51-1.09 5.25-1.53 6.24-.51 4.23 4.33 7.86 9.25 11.51 14.1.41.55-.43 2.08-.76 3.13-1.57 5.03-3.17 10.05-4.75 15.07.44.25.87.5 1.31.75 1.12-1.42 2.31-2.8 3.36-4.27 6.09-8.53 12.45-16.88 18.05-25.72 1.96-3.09 2.63-7.35 2.77-11.13.14-3.79 1-5.33 4.77-4.52 6.63 1.42 11.14 6.01 14.69 11.26.88 1.31-.4 5.45-1.97 6.84-13.56 12-27.43 23.67-41.19 35.45-.85.72-2.23 1.5-2.3 2.34-.8 8.69-1.38 17.4-2.1 27.18 1.97-1.56 3.2-2.31 4.15-3.33 7.63-8.14 15.6-16 22.6-24.65 3.05-3.77 4.57-9.04 5.84-13.88 1.15-4.36 2.45-5.98 6.61-3.93 3.17 1.56 6.08 4.06 8.43 6.73 2.26 2.57 3.64 5.9 5.98 9.86-16.83 11.12-33.35 22.18-50.06 32.94-2.41 1.55-3.54 2.81-3.53 5.71.03 9.96.9 14.56 5.02 21.46 8.52-7.03 17.11-13.76 25.29-20.97 8-7.06 15.32-14.76 19.87-24.73.57-1.26 3.81-2.52 5.12-2.01 7 2.74 11.68 8.16 14.49 15 1.46 3.55-.84 5.96-3.7 7.81-15.48 10.04-30.95 20.1-46.43 30.14-1.54.96-3.07 1.9-4.9 3.04z"/><path d="m234.62 175.79c14.66-4.97 28.13-9.62 41.65-14.09 10.21-3.38 20.27-7.73 31.4-6.71 2.93.27 5.93.96 8.65 2.08 3.73 1.53 4.22 4.92.99 7.42-2.15 1.67-4.9 2.81-7.55 3.55-20.61 5.72-41.28 11.26-61.91 16.93-4.14 1.14-8.24 2.46-12.22 4.06-1.15.46-2.3 2.07-2.59 3.35-4.06 17.95-7.3 36.11-12.07 53.85-6.72 24.95-15.79 49.11-30.67 70.55-3.76 5.42-8.45 10.3-13.3 14.8-2.71 2.51-6.63 3.72-10.55 4.84 25.81-44.94 40.85-93.07 49.66-143.61-11.93-.01-23.83 6.56-34.74-1.15-.08-.7-.16-1.4-.23-2.1 8.65-2.54 17.3-5.08 25.95-7.6.47-.14 1-.07 1.49-.15 9-1.33 9.78-1.89 10.26-11.08.61-11.75 1.51-23.56.78-35.25-.37-5.92-4.16-11.6-6.15-17.48-.8-2.38-.9-4.99-1.32-7.49 2.28-.14 4.88-1.07 6.79-.3 7.97 3.22 16.06 6.39 23.49 10.66 6.44 3.71 6.49 6.65 2.95 13.26-6.77 12.66-9 26.43-10.76 41.66z"/><path d="m283.88 108.85c3.35-4.63 6.25-8.4 8.9-12.35 2.3-3.43 4.75-6.86 6.34-10.62 1.97-4.68.81-6.23-4.2-5.81-12.08 1.01-24.16 2.2-36.2 3.61-20.12 2.36-40.2 5.01-60.31 7.42-19.45 2.32-38.92 4.55-58.39 6.69-8.26.91-16.54 1.7-24.83 2.18-3.04.18-4.55 1.24-6.09 3.87-5.68 9.72-11.48 19.41-17.83 28.7-2.35 3.43-6.21 5.93-9.65 8.49-3.27 2.43-6 1.2-6.49-2.66-.92-7.11-.77-14 3.45-20.55 8.61-13.37 16.7-27.08 25.57-41.58 2.23 3.11 5.2 6.69 7.5 10.66 1.65 2.85 3.13 3.69 6.6 3.22 45.55-6.23 91.18-11.94 136.7-18.41 14.9-2.12 29.55-6.02 44.3-9.21 5.89-1.27 11.52-1.22 16.76 2.13 6.28 4.02 12.62 7.96 18.78 12.16 1.87 1.28 3.42 3.19 4.76 5.06 5.85 8.14 4.54 11.96-5.11 13.5-15.31 2.45-30.37 5.6-44.31 12.74-1.01.52-2.2.73-3.33.98-.46.13-.97-.04-2.92-.22z"/><path d="m173.78 38.8c13.38-6.21 39.81-5.52 49.86 7.72 4.99 6.58 4.82 12.4-1.21 17.92-2.98 2.72-5.89 2.24-9.15 1.22-13.42-4.21-23.94-12.8-33.92-22.26-1.57-1.48-3.33-2.75-5.58-4.6z"/><path d="m289.65 119.27c3.4.69 7.49 1.34 11.47 2.37 7.99 2.07 12.05 7.84 13.78 15.49 1.73 7.68-3.02 12.41-10.68 10.7-11.27-2.52-20.97-8.29-30.04-15.13-2.46-1.86-4.13-4.77-6.16-7.2 3-1.51 5.87-3.52 9.05-4.42 3.79-1.06 7.85-1.18 12.58-1.81z"/></g></svg>