<svg enable-background="new 0 0 400 400" viewBox="0 0 400 400" xmlns="http://www.w3.org/2000/svg"><path d="m2.6 9.9.8-1c.9.7 1.9 1.4 2.9 2.3l-.9 1.1c-1.1-1-2-1.8-2.8-2.4zm.5 10.6c.9-2.1 1.6-4.3 2.3-6.7.4.2.8.4 1.3.6-.7 2.1-1.5 4.3-2.2 6.6zm.3-15.2.9-.9c1 .8 2 1.6 2.8 2.4l-1 1c-.9-.9-1.8-1.7-2.7-2.5zm12.6-1.2h1.2v1.4h2.7v1.1h-2.7v2.7h-1.2v-.6h-1.8v1.3h4.9v3.8h-1.2v-.5h-3.7c0 .4-.1.9-.1 1.2h5.1v1h-5.2c0 .5-.1.9-.2 1.2h6v1h-5.2c1.1 1.3 2.9 2 5.5 2.2-.4.4-.7.8-.9 1.3-2.9-.5-4.8-1.6-5.7-3.5h-.1c-.8 1.7-2.7 2.9-5.9 3.6-.2-.4-.6-.8-.9-1.1 2.8-.6 4.6-1.4 5.4-2.5h-4.8v-1h5.3c.1-.3.2-.7.2-1.2h-4.9v-1h5c0-.4 0-.8.1-1.2h-3.6v.5h-1.2v-3.8h4.9v-1.3h-1.8v.5h-1.2v-2.7h-2.7v-1h2.7v-1.4h1.2v1.4h4.8zm-6.7 8.3h3.6c0-.4 0-.9 0-1.4h-3.6zm1.9-4.6h4.8v-1.3h-4.7v1.3zm6.7 3.2h-3.7v1.4h3.7z" fill="#fbfcfa"/><path d="m8.7 22.1h1.3v2.2h2.8v-2.2h1.3v2.2h4.1v9.1h1.7v1.3h-17v-1.3h1.7v-9.1h4.1zm.3 13.1.7 1.2c-1.8.9-3.8 1.9-6 2.9-.2-.4-.5-.8-.8-1.3 2.3-1 4.4-1.9 6.1-2.8zm-3.1-6.4h2.8v-3.2h-2.8zm0 4.6h2.8v-3.3h-2.8zm4.1-4.6h2.8v-3.2h-2.8zm0 4.6h2.8v-3.3h-2.8zm3.6 1.9c2.1.9 4.1 1.8 6.1 2.7l-.7 1.4c-2.2-1.1-4.2-2-6.1-2.9zm3.2-9.7h-2.8v3.2h2.8zm-2.7 7.8h2.8v-3.3h-2.8z" fill="#fbfcfa"/><g fill="#010104"><path d="m68.75 346.05c.94-1.45 1.62-2.95 2.69-4.07 25.52-26.85 41.7-59.03 53.67-93.64 10.78-31.18 17.64-63.26 21.78-95.93 2.28-17.96 3.96-35.99 5.69-54.01.84-8.72.25-17.26-4.88-24.96-1.02-1.53-1.63-4.54-.8-5.77.91-1.35 3.89-2.27 5.64-1.89 4.96 1.09 10.7 1.77 14.4 4.76 5.32 4.3 10.62 4.04 16.24 3.06 29.59-5.15 59.23-10.12 88.66-16.07 7.39-1.5 14.2-6.2 21.04-9.86 3.01-1.61 5.66-3.75 9.18-2.07 9.28 4.42 18.59 8.78 27.68 13.56 2.05 1.08 3.28 3.73 5.53 6.42-13.17 4.14-18.85 14.06-24.13 24.23.19.5.28.82.43 1.1 1.55 2.93 3.11 5.86 4.67 8.79-2.86 1.21-5.61 3.1-8.58 3.53-23.66 3.45-47.37 6.5-71.03 9.92-15.78 2.28-31.46 5.2-47.26 7.33-5.81.78-11.81.13-18.36.13-.94 7.25-1.85 14.95-2.95 22.63-7.04 49.33-17.27 97.77-40.68 142.41-12.14 23.14-27.78 43.43-49.19 58.85-4.29 3.08-4.59 3.12-9.44 1.55zm103.78-232.73c.81.27 1.14.5 1.43.45 36.56-6.33 73.12-12.62 109.63-19.21 2.1-.38 4.62-2.94 5.44-5.07 2.02-5.23 3.36-10.75 4.61-16.24 1.14-5.01-2.25-8.62-7.28-7.92-9.69 1.36-19.4 2.64-29.02 4.41-20.38 3.75-40.67 7.96-61.06 11.65-7.25 1.32-14.68 1.7-21.9 2.5-.62 9.83-1.24 19.7-1.85 29.43z"/><path d="m312.27 308.78c-10.79 1.49-21.38 2.59-31.82 4.48-26.27 4.76-52.55 9.56-78.68 15.02-10.35 2.16-20.37 5.95-30.44 9.29-7.14 2.37-7.79 2.3-11.02-4.53-.35-.75-.62-1.54-.95-2.3-2.2-4.94-3-8.92 2.45-13.18 8.28-6.47 12.17-15.53 11.22-26.43-.43-4.95 1.71-6.15 6.36-4.18 8.47 3.59 10.88 8.82 7.74 17.55-1.34 3.71-3.23 7.22-5.28 11.72 7.52-.92 14.61-1.75 21.69-2.68 9.05-1.18 18.08-2.6 27.15-3.59 3.58-.39 5.12-1.42 5.26-5.42.54-15.28 1.53-30.54 2.39-46.72-5.42.85-10.6 1.44-15.69 2.52-13.69 2.89-27.16 6.5-39.44 13.49-3.23 1.84-5.32 1.24-7.49-1.79-4.71-6.57-4.84-9.15.06-15.93 6.23-8.61 5.86-18.36 4.8-28.21-.11-.98-.42-1.93-.53-2.91-.05-.46.13-.95.2-1.41 9.14-1.68 16.69 5.32 15.33 14.23-.85 5.53-1.85 11.03-2.9 17.27 14.85-2.31 30.09-4.68 45.93-7.14-.36-8.22-.39-16.16-1.16-24.04-.64-6.57-2.07-13.08-3.26-19.59-.54-2.94.27-4.87 3.47-4.29 4.37.79 8.91 1.49 12.93 3.25 7.24 3.17 8.23 6.4 6.92 14.35-1.45 8.82-2.36 17.72-3.62 27.43 5.63-.76 10.65-1.4 15.65-2.13 11.01-1.6 22.04-3.16 33.01-4.99 1.29-.22 3.01-1.83 3.36-3.11 2.34-8.53 3.87-17.14 2.22-26.08-1.1-5.95.9-7.89 6.63-6.72 7.81 1.6 14.39 5.25 18.15 12.63.68 1.34.69 3.49.11 4.91-4.17 10.25-8.48 20.45-12.93 30.59-1.58 3.61-3.32 7.26-5.64 10.4-1.18 1.6-4.12 3.29-5.71 2.86-1.93-.51-3.96-2.96-4.71-5.02-1.17-3.19-1.29-6.76-1.93-10.66-8.68 1.25-17.2 2.46-25.71 3.71-5.91.87-11.79 1.98-17.72 2.63-3.43.38-4.63 1.56-4.78 5.24-.61 14.28-1.69 28.55-2.57 42.82-.1 1.64-.01 3.29-.01 5.59 19.55-2.93 38.8-5.81 59-8.84-2.83-7.1-5.4-13.56-8.62-21.63 5.28.43 9.28.08 12.83 1.18 10.78 3.31 17.16 12.4 17.61 23.61.46 11.42 2.28 22.99-3.19 33.77-1.39 2.75-3.8 4.98-5.74 7.45-1.73-2.68-4.26-5.14-5.05-8.07-2.3-8.46-3.88-17.11-5.88-26.4z"/><path d="m308.95 115.02c5.68 1.4 11.86 4.09 16.58 9.36 2.57 2.87.99 5.19-1.58 7.06-4.91 3.56-10.03 6.87-14.76 10.66-5.96 4.78-11.78 9.77-17.36 14.99-4.35 4.08-3.66 5.67 2.07 7.64 6.87 2.37 14.04 4.32 20.32 7.81 4.09 2.27 7.32 6.63 10.04 10.66 2.28 3.37 1.85 7.44-1.65 10.34-3.52 2.91-6.11.19-8.78-1.73-9.31-6.7-18.56-13.47-27.96-20.03-7.69-5.37-8.23-6.68-3.71-14.87 3.85-6.98 8.37-13.61 11.9-20.73 2.52-5.1 4.11-10.7 5.72-16.19.96-3.27 3.31-5.07 9.17-4.97z"/><path d="m184.94 169.71c7.33 4.03 13.83 7.64 20.36 11.2 5.25 2.86 8.92 6.91 9.66 13.04.52 4.33.2 8.57-4.47 10.59-4.64 2.02-7.88-.47-10.74-3.94-5.9-7.18-11.87-14.31-17.9-21.39-1.61-1.89-3.6-3.44-5.27-5.28-2.7-2.99-2.7-5.61.74-8.39 5.16-4.16 10.25-8.49 14.9-13.2 4.86-4.92 8.39-10.7 8.42-18.06.02-3.38 2.2-4.8 5.39-4.1 7.41 1.64 12.08 6.77 15.21 13.22.46.94-1.69 3.91-3.28 4.95-9.84 6.45-19.87 12.62-29.82 18.9-.79.51-1.51 1.16-3.2 2.46z"/><path d="m273.26 130.65c-12.14 10.84-23.74 21.21-36.06 32.21 4.03 2.36 7.1 4.18 10.19 5.97 5.75 3.32 11.84 6.18 17.13 10.13 2.58 1.92 4.91 5.78 5.07 8.88.14 2.83-2.32 6.34-4.63 8.47-.92.85-5.15-.54-6.79-2.07-9.13-8.5-17.81-17.47-26.88-26.02-3.51-3.31-3.58-6.21-.85-9.88 3.76-5.06 7.71-10.06 10.82-15.51 2.5-4.38 4.31-9.28 5.66-14.16 1.61-5.81 4.14-7.66 10.08-5.93 5.82 1.68 11.95 2.82 16.26 7.91z"/></g></svg>