<svg enable-background="new 0 0 400 400" viewBox="0 0 400 400" xmlns="http://www.w3.org/2000/svg"><path d="m2.6 9.9.8-1c.9.7 1.9 1.4 2.9 2.3l-.9 1.1c-1.1-1-2-1.8-2.8-2.4zm.5 10.6c.9-2.1 1.6-4.3 2.3-6.7.4.2.8.4 1.3.6-.7 2.1-1.5 4.3-2.2 6.6zm.3-15.2.9-.9c1 .8 2 1.6 2.8 2.4l-1 1c-.9-.9-1.8-1.7-2.7-2.5zm12.6-1.2h1.2v1.4h2.7v1.1h-2.7v2.7h-1.2v-.6h-1.8v1.3h4.9v3.8h-1.2v-.5h-3.7c0 .4-.1.9-.1 1.2h5.1v1h-5.2c0 .5-.1.9-.2 1.2h6v1h-5.2c1.1 1.3 2.9 2 5.5 2.2-.4.4-.7.8-.9 1.3-2.9-.5-4.8-1.6-5.7-3.5h-.1c-.8 1.7-2.7 2.9-5.9 3.6-.2-.4-.6-.8-.9-1.1 2.8-.6 4.6-1.4 5.4-2.5h-4.8v-1h5.3c.1-.3.2-.7.2-1.2h-4.9v-1h5c0-.4 0-.8.1-1.2h-3.6v.5h-1.2v-3.8h4.9v-1.3h-1.8v.5h-1.2v-2.7h-2.7v-1h2.7v-1.4h1.2v1.4h4.8zm-6.7 8.3h3.6c0-.4 0-.9 0-1.4h-3.6zm1.9-4.6h4.8v-1.3h-4.7v1.3zm6.7 3.2h-3.7v1.4h3.7z" fill="#fbfcfa"/><path d="m8.7 22.1h1.3v2.2h2.8v-2.2h1.3v2.2h4.1v9.1h1.7v1.3h-17v-1.3h1.7v-9.1h4.1zm.3 13.1.7 1.2c-1.8.9-3.8 1.9-6 2.9-.2-.4-.5-.8-.8-1.3 2.3-1 4.4-1.9 6.1-2.8zm-3.1-6.4h2.8v-3.2h-2.8zm0 4.6h2.8v-3.3h-2.8zm4.1-4.6h2.8v-3.2h-2.8zm0 4.6h2.8v-3.3h-2.8zm3.6 1.9c2.1.9 4.1 1.8 6.1 2.7l-.7 1.4c-2.2-1.1-4.2-2-6.1-2.9zm3.2-9.7h-2.8v3.2h2.8zm-2.7 7.8h2.8v-3.3h-2.8z" fill="#fbfcfa"/><g fill="#010104"><path d="m221.24 249.38c1.03-13.99 2.01-27.3 3.06-41.51-6.92 1.62-12.71 2.81-18.38 4.45-1.28.37-1.9 2.61-3.18 3.46-2.36 1.58-5 3.78-7.5 3.75-1.59-.02-3.79-3.34-4.61-5.58-5.96-16.19-11.65-32.49-17.42-48.75-.28-.78-.66-1.52-.94-2.3-4.08-11.43-1.37-13 9.09-10.4 14.48 3.6 27.52.4 40.95-3.4 3.43-.97 4.71-2.61 4.61-6.32-.49-17.8-.43-35.62-1.08-53.41-.32-8.77-1.18-17.58-8.16-24.41-2.86-2.8-2.91-6.68-.8-10.18 2.1-3.48 5.89-3.89 8.86-2.52 8.26 3.79 16.33 8.03 24.2 12.59 3.01 1.75 4.81 4.74 3.4 8.96-6 17.92-5.58 36.62-6.34 55.17-.18 4.45-.41 8.91-.66 14.4 4.75-1.48 8.8-2.63 12.78-4.01 2.66-.93 5.3-2.01 7.79-3.31 16.82-8.76 32.14-3.53 47.12 4.93 1 .57 1.9 1.35 2.76 2.12 7.13 6.35 6.54 7.42-.63 13.3-7.12 5.84-13.11 13.06-19.57 19.69-1.82 1.87-1.55 3.52.06 5.64 5.73 7.51 4.63 10.53-4.68 12.21-14.2 2.56-28.47 4.76-42.71 7.13-2.12.35-4.22.84-6.73 1.35-.39 7.05-.46 14.17-1.26 21.2-1.07 9.38-2.55 18.73-4.19 28.03-.52 2.93.35 4.49 2.51 6.25 35.55 28.91 76 47.21 120.86 56.01 3.33.65 6.61 1.54 9.92 2.32.04.43.08.87.12 1.3-1.57.6-3.1 1.36-4.72 1.77-18.91 4.78-38.06 7.7-57.62 7.7-7.4 0-14.05-1.51-19.79-6.56-14.37-12.64-28.86-25.13-43.33-37.66-4.52-3.91-9.1-7.76-13.53-11.52-4.65 5.73-8.64 11.66-13.63 16.59-14.02 13.83-31.6 21.63-50.36 25.98-18.22 4.22-36.85 6.67-55.33 9.66-1.53.25-3.36-1.32-5.05-2.05 1.29-1.5 2.31-3.86 3.9-4.35 6.65-2.04 13.51-3.39 20.23-5.24 21.37-5.87 42.56-12.52 60.8-25.52 7.58-5.4 13.68-12.91 20.32-19.59 3.21-3.23 2.15-5.87-1.36-8.43-9.91-7.21-20.71-12.52-32.36-16.29-4.38-1.42-8.7-3.21-12.73-5.41-1.58-.86-3.49-3.65-3.12-4.94.51-1.77 2.98-4.04 4.75-4.16 4.49-.32 9.64-.8 13.49.99 12.34 5.75 24.2 12.5 36.25 18.86 1 .55 2 1.04 3.94 2.01zm23.75-57.7c7.31-2.52 14.77-5.03 22.17-7.71 1.31-.48 3.08-1.48 3.41-2.6 2.62-8.84 5.69-17.66 7.12-26.72 1.12-7.1-2.05-9.6-9.17-8.27-6.96 1.3-13.78 3.48-20.55 5.62-1.26.4-2.83 2.42-2.85 3.72-.22 11.6-.13 23.21-.13 35.96zm-19.99-34.65c-9.82 3.1-18.87 5.96-27.62 8.72 1.51 12.85 2.9 24.75 4.32 36.81 7-1.62 13.63-3 20.16-4.78 1.27-.35 2.99-2.25 3.01-3.46.21-12.1.13-24.22.13-37.29z"/><path d="m101.14 234.08c8.15-3.03 15.72-6.87 23.73-8.45 5.28-1.05 6.39-3.47 6.73-7.59.83-9.93 1.98-19.86 2.11-29.8.05-4.05-2.24-8.11-3.41-12.19-.48-1.66-.79-3.37-1.17-5.06 1.7-.22 3.72-1.15 5.06-.55 7.24 3.25 14.58 6.44 21.36 10.51 4.84 2.9 3.97 5.3 2 10.54-3.71 9.88-6.39 20.16-9.42 30.29-3.6 12.07-6.88 24.23-10.8 36.19-1.23 3.74-4.09 6.95-6.98 10.17-6.22-11.38-3.22-22.92-1.75-35.19-9.76 4.55-19.28 8.39-28.23 13.28-14.56 7.95-28.82 16.46-43.02 25.04-3.05 1.84-5.25 5.05-7.93 7.53-3.89 3.6-6.53 3.6-9.35-.7-2.99-4.56-5.76-9.38-7.73-14.43-.89-2.28-.52-6.06.87-8.03 5.7-8.04 6.65-17.28 7.51-26.5.78-8.27 1.27-16.63.87-24.91-.19-4-2.63-7.93-4.26-11.8-.56-1.32-2.23-2.27-2.54-3.59-.51-2.16-1.07-4.88-.17-6.59.6-1.14 4.05-1.79 5.67-1.18 6.64 2.5 13.28 5.17 19.47 8.6 3.36 1.87 4.76 5.57 3.85 9.97-3.01 14.59-5.76 29.24-8.58 43.87-.31 1.6-.48 3.23-.79 5.38 1.56-.18 2.84-.15 3.99-.5 8.11-2.45 16.15-5.1 24.3-7.4 3.29-.93 4.31-2.53 4.38-5.97.56-28.12 1.38-56.23 2.07-84.34.33-13.31.95-26.62.7-39.92-.17-9.05-.53-18.35-7.65-25.59-.99-1-1.24-3.59-.68-4.96.39-.94 2.88-1.67 4.27-1.45 10.49 1.65 20.4 5.09 28.26 12.42 1.78 1.66 2.25 5.86 1.75 8.61-1.83 10.1-4.83 20-6.42 30.12-1.87 11.95-3.04 24.04-3.97 36.11-1.59 20.71-2.77 41.46-4.1 62.19-.1 1.83 0 3.67 0 5.87z"/></g></svg>