<svg enable-background="new 0 0 400 400" viewBox="0 0 400 400" xmlns="http://www.w3.org/2000/svg"><g fill="#010106"><path d="m110 141.26c0 23.8.45 47.61-.11 71.4-.75 31.75-2.19 63.49-3.51 95.22-.48 11.44-1.4 22.87-2.35 34.28-.2 2.41-1.18 4.85-2.22 7.08-2.76 5.89-6.46 6.31-10.46 1.07-1.79-2.34-3.27-5.08-4.22-7.87-1.93-5.64-3.96-11.35-4.87-17.2-.59-3.76.5-7.86 1.23-11.73 2.03-10.73 5.38-21.33 6.2-32.14 2.31-30.49 4.12-61.03 5.2-91.59 1.19-33.93 1.53-67.89 1.82-101.84.06-6.71-1.54-13.49-2.82-20.15-.99-5.16-3.52-9.42-8.17-12.6-1.86-1.27-2.34-4.58-3.44-6.96 2.44-1.04 5.06-3.26 7.31-2.93 10.27 1.5 19.88 5.05 28.58 10.94 4.13 2.79 5.36 6.48 3.6 10.79-5.18 12.68-5.92 26.17-7.52 39.5-.85 7.08-1.06 14.23-1.76 21.33-.33 3.29 1.32 3.72 4.04 4.12 15.29 2.26 27.41 8.97 32.88 24.46.77 2.17 1.77 4.61 1.43 6.72-.39 2.36-1.8 5.94-3.46 6.38-2.41.64-6.2-.22-8.08-1.91-7.43-6.66-14.33-13.9-21.44-20.92-1.98-1.95-4-3.85-6-5.77-.65.12-1.25.22-1.86.32z"/><path d="m308.72 221.17c.48 9.31.75 17.78 1.38 26.22 1.29 17.4 2.34 34.83 4.33 52.15 1.58 13.75 1.06 27.1-5.63 39.3-3.59 6.55-8.46 12.72-13.89 17.86-4.74 4.48-8.31 3.05-11.62-2.55-7.26-12.27-17.11-22.01-29-29.78-1.7-1.11-3.16-2.6-4.73-3.91.13-.68.26-1.37.4-2.05 2.38 0 4.81-.31 7.14.06 6.54 1.05 13 2.62 19.56 3.54 8.97 1.27 14.89-3.71 15.33-12.6.38-7.64.74-15.28.87-22.92.32-18.81.51-37.62.75-56.44.02-1.79 0-3.59 0-7.03-11.02 2.53-21.2 4.51-31.16 7.27-6.15 1.7-17.95-.45-21.83-5.14-.54-.65-.49-1.78-.72-2.69 16.1-2.89 31.91-5.8 47.75-8.52 3.14-.54 4.91-1.62 4.3-5.07-1.44-8.15-2.66-16.35-4.42-24.42-.49-2.26-2.73-4.09-3.9-6.27-.78-1.45-1.96-3.76-1.38-4.6.94-1.37 3.67-3.01 4.78-2.53 8.78 3.8 17.43 7.94 25.89 12.4.85.45.96 4.24.09 5.68-3.81 6.35-4.39 13.1-3.63 20.98 8.52-1.87 16.81-3.8 25.15-5.49 9.63-1.95 18.86-1.19 27.17 4.71.81.58 1.84 1.06 2.32 1.86 1.15 1.93 2.04 4.02 3.03 6.04-2.17.92-4.31 2.55-6.52 2.64-15.3.61-30.61.9-45.92 1.29-1.65.05-3.28.01-5.89.01z"/><path d="m205.71 288.64c-3.62-5.43-6.96-10.42-10.3-15.42.41-.43.83-.87 1.24-1.3 12.3 3.06 25.26 4.84 33.2 16.86 3.06 4.63 3.11 9.73 1.03 14.8-2.72 6.64-7.51 7.34-12.05 1.77-3.34-4.09-6.55-8.27-10.05-12.7-14.52 9.16-29.17 17.39-40.65 29.95-1.86 2.04-3.21 4.61-4.5 7.1-2.78 5.38-10.72 6.22-13.23.76-2.36-5.13-3.27-11-4.3-16.64-.24-1.29 1.29-3.49 2.61-4.38 7.83-5.28 10.46-13.07 10.83-21.88.78-18.78 1.5-37.57 1.97-56.36.17-6.97-.11-13.99-.77-20.93-.63-6.58-2.8-12.69-8.7-16.79 2.28-3.21 4.95-4.41 8.68-2.97 4 1.54 8.05 3.01 12.16 4.24 1.48.44 3.26.38 4.8.05 8.75-1.87 17.52-3.69 26.17-5.97 3.07-.81 5.74-3.02 8.73-4.29 1.7-.72 4.16-1.72 5.42-1.03 6.69 3.65 13.14 7.76 19.61 11.81 3.02 1.88 3 4.5.47 6.55-5.34 4.33-5.57 10.53-7.07 16.48-3.27 12.97-7.09 25.8-10.85 38.64-.49 1.67-1.78 3.18-2.97 4.54-1.88 2.16-4.05 2.47-5.73-.2-2-3.15-4.87-3.73-8.22-3.32-9.84 1.21-19.69 2.43-29.57 3.65-.84 13.78-1.62 26.68-2.42 39.92 11.57-4.34 22.88-8.59 34.46-12.94zm-31.15-86.49v22.63c4.13-1.5 8.09-3.19 12.21-4.38 3.92-1.13 8.04-2.49 12-2.32 2.85.13 5.6 2.62 8.4 4.05-2.2 1.66-4.35 3.39-6.63 4.94-.79.54-1.87.75-2.84.88-7.85 1.07-15.7 2.08-23.93 3.15v24c5.21-1.34 9.95-2.82 14.79-3.72 5.17-.96 10.47-2.05 15.65-1.82 5.19.23 6.09.27 6.66-5.09 1.34-12.71 2.64-25.42 3.93-38.14.67-6.62-2.71-10.67-9.25-9.77-10.48 1.46-20.84 3.72-30.99 5.59z"/><path d="m160.17 125.53c25.46 2.7 50.3-2.32 75.24-5.54 16.59-2.14 33.04-5.31 49.54-8.15 3.25-.56 6.61-1.28 9.54-2.7 6.57-3.19 12.9-2.92 19.05.6 7.6 4.35 15.23 8.71 22.43 13.66 3.65 2.51 2.9 6.27-1.43 7.32-7.77 1.89-12.15 7.58-17.08 13.01-6.81 7.5-13.89 14.77-21.16 21.81-4.42 4.28-7.62 3.77-12.02-.58-.88-.87-2.47-1.62-3.64-1.5-30.37 3.15-60.73 6.42-91.09 9.71-1.05.11-2.34.46-3.03 1.17-3.98 4.04-7.72 3.3-10.16-2.28-2.86-6.53-5.08-13.4-8.5-19.62-4.03-7.33-8.91-14.23-13.73-21.09-1.6-2.27-1.54-3.66.78-4.68 1.61-.69 3.5-.77 5.26-1.14zm104.07.2c2.46 5.53 2.14 5.4-.1 11.14-2.55 6.5-4.46 13.26-6.37 19.07 9.2 0 17.44.22 25.66-.17 1.89-.09 4.47-1.86 5.39-3.57 3.82-7.12 7.28-14.44 10.52-21.84.89-2.04 1.6-5.66.56-6.69-1.68-1.66-5-2.66-7.44-2.36-9.34 1.12-18.62 2.86-28.22 4.42zm-50.51 37.41c-2.44-10.58-4.87-21.08-7.31-31.63-8.59.97-17.55 1.98-26.51 2.98 2.3 10.51 4.57 20.94 6.85 31.36 9.3-.93 18.3-1.84 26.97-2.71zm9.33-1.07c6.72-.96 12.6-1.74 18.44-2.69 1.02-.17 2.49-.87 2.79-1.68 3.67-9.89 7.66-19.79 4.04-31.09-10.21 1.04-20.17 2.06-30.8 3.14 5.21 10.23 7.9 20.45 5.53 32.32z"/><path d="m192.61 80.22c-.61-.41-1.61-1.08-2.61-1.75.95-.91 1.73-2.26 2.86-2.67 12.14-4.42 24.56-8.15 36.43-13.19 8.82-3.74 17.04-8.94 25.33-13.82 3.7-2.18 6.94-4.99 7.24-10.06.15-2.65 5.32-4.52 8.72-3.12 8.12 3.36 16.18 6.91 24.14 10.65 1.41.66 3.25 2.74 3.07 3.88-.24 1.54-1.98 3.52-3.52 4.08-31.23 11.31-62.81 21.37-96.05 24.98-1.65.19-3.27.59-5.61 1.02z"/><path d="m67.24 173.2c-1.02 16.19-5.45 30.75-14.89 43.65-1.32 1.81-4.21 4.25-5.59 3.83-2.29-.7-4.98-3.16-5.7-5.45-3.85-12.19-3.91-24.03 3.79-35.24 7.43-10.82 10.21-23.27 11.14-36.22.12-1.61 1.04-3.16 1.59-4.74 1.26 1.33 3.33 2.48 3.67 4.02 2.2 10.01 4.03 20.09 5.99 30.15z"/><path d="m264.39 107.22c.84-1.42 1.42-3.12 2.56-4.22 8.47-8.21 17.08-16.26 25.57-24.44 3.48-3.35 5.47-7.35 5.5-12.41.01-1.11 2.28-3.14 3.54-3.17 9.79-.22 17.36 4.89 24.24 11.12.69.62.45 3.81-.27 4.21-19.43 11.01-38.29 23.26-61.14 28.91z"/><path d="m164.41 86.8c7.06 1.34 14.34 2.02 21.14 4.18 8.19 2.6 13.14 11.68 11.36 19.89-.57 2.61-2.62 5.86-4.87 6.84-1.83.8-5.76-.6-7.35-2.32-6.74-7.3-13-15.05-19.32-22.73-.94-1.14-1.24-2.81-1.83-4.24.29-.53.58-1.08.87-1.62z"/><path d="m224.34 77.06c5.48 1.45 10.94 2.34 15.95 4.35 8.03 3.22 11.32 13.89 7.17 21.53-2 3.69-6.53 4.76-10.8 1.71-3.61-2.57-6.78-5.89-9.68-9.27-2.69-3.13-4.94-6.69-7.06-10.25-1.04-1.74-2.44-4.72-1.72-5.71 1.05-1.44 3.87-1.59 6.14-2.36z"/><path d="m240.74 246.36c10.85 2.02 20.62 4.2 27.77 12.19 2.87 3.21 3.23 18.08.21 20.94-1.36 1.29-6.27 1.42-7.16.24-7.11-9.35-13.67-19.12-20.28-28.84-.56-.82-.29-2.21-.54-4.53z"/></g><path d="m12.4 4.8-7.1 9h6v1.2h-8v-.5l6.1-8.9h-4.7v-1.2h7.6v.4z" fill="#fafbfa"/><path d="m14 14v-9.6h3c1.6 0 2.9.5 4 1.4s1.6 2.2 1.6 3.8-.5 3-1.6 3.9-2.4 1.5-4 1.5h-3zm1.4-8.4v8.2h1.6c1.3 0 2.4-.4 3.1-1.1s1.1-1.8 1.1-3.1-.4-2.3-1.2-3-1.8-1-3.1-1z" fill="#fafbfa"/><path d="m26.1 4.4v10.6h-1.4v-10.6z" fill="#fafbfa"/><path d="m36.1 14.6c-.8.4-1.8.6-2.9.6-1.5 0-2.7-.5-3.6-1.4s-1.4-2.2-1.4-3.8c0-1.7.5-3.1 1.5-4.1s2.3-1.6 3.9-1.6c1 0 1.8.1 2.5.4v1.4c-.8-.4-1.6-.6-2.5-.6-1.2 0-2.1.4-2.9 1.2s-1.1 1.8-1.1 3.2c0 1.3.3 2.3 1 3s1.6 1.1 2.7 1.1c1 0 2-.2 2.7-.7v1.3z" fill="#fafbfa"/><path d="m37.6 14.3c0-.2.1-.5.3-.6s.4-.3.6-.3c.3 0 .5.1.6.3s.3.4.3.6-.1.4-.3.6-.4.3-.6.3c-.3 0-.5-.1-.6-.3s-.3-.4-.3-.6z" fill="#fafbfa"/><path d="m50.2 15h-1.6l-5.3-8.2c-.2-.2-.3-.5-.4-.7 0 .2.1.7.1 1.5v7.4h-1.4v-10.6h1.7l5.2 8.1c.2.4.4.6.4.7 0-.3-.1-.8-.1-1.5v-7.3h1.4z" fill="#fafbfa"/><path d="m58.6 15h-5.7v-10.6h5.5v1.2h-4.1v3.4h3.8v1.2h-3.8v3.6h4.3z" fill="#fafbfa"/><path d="m67.1 5.6h-3.1v9.4h-1.4v-9.4h-3v-1.2h7.5z" fill="#fafbfa"/></svg>