<svg enable-background="new 0 0 400 400" viewBox="0 0 400 400" xmlns="http://www.w3.org/2000/svg"><path d="m286.31 320.01c9.63-1.19 18.63-2.24 27.6-3.44 13.2-1.77 24.92 2.02 35.62 9.46 1.18.82 2.4 2.88 2.16 4.07-.22 1.12-2.26 2.43-3.67 2.66-3.26.52-6.62.6-9.94.57-24.8-.26-49.6-1.24-74.38-.76-34.39.66-68.71 2.94-102.76 8.35-8.85 1.41-17.86 2.81-26.75 2.58-7.36-.19-13.6-4.77-18.64-10.25-.5-.55.27-3.32 1.17-3.86 1.59-.95 3.73-1.27 5.65-1.34 13.76-.47 27.52-.8 41.86-1.2-3.27-15.41-6-30.24-9.65-44.84-2.32-9.29-6.16-18.19-8.94-27.37-.85-2.81-.47-5.99-.65-9.01 2.86.12 6.33-.78 8.48.51 12.66 7.62 26.06 4.27 38.96 2.42 21.64-3.1 43.13-7.35 64.55-11.78 7.06-1.46 13.63-5.19 20.58-7.4 2.61-.83 5.96-1.18 8.45-.28 10.75 3.85 19.23 10.97 26.51 19.69 2.32 2.78.98 5.04-.37 7.25-11.22 18.29-18.13 38.37-24.56 58.65-.44 1.37-.69 2.82-1.28 5.32zm-45.8 2.23c10.2-.94 19.42-1.71 28.62-2.79.98-.12 2.23-1.95 2.54-3.19 3.42-13.64 7.14-27.24 9.79-41.04 1.47-7.65.85-15.64-3.03-22.84-.7-1.31-2.2-3.14-3.3-3.12-7.21.16-14.4.76-21.79 1.23 3.79 10.11 1.77 19.43-.88 28.77-3.97 14.01-7.81 28.05-11.95 42.98zm-31.42 1.58c6.58 0 12.54-.12 18.49.05 2.92.09 4.05-.88 4.4-3.86 1.41-12.01 3.58-23.94 4.5-35.98.76-9.99.16-20.08.16-30.78-11.42 1.62-21.46 3.04-31.99 4.54 6.16 21.88 6.87 43.47 4.44 66.03zm-33.4.91h25.92c-.96-3.69-2.39-7.15-2.68-10.71-1.19-14.53-2-29.1-3.01-43.65-.26-3.71-.75-7.41-1.13-11.17-8.71.52-16.6.99-24.84 1.49 1.93 21.59 3.82 42.69 5.74 64.04z" fill="#010100"/><path d="m101.54 151.29c-12.82 1.06-25.33 2.57-37.87 2.89-5.25.13-10.61-2.13-15.83-3.6-1.2-.34-3.02-2.11-2.86-2.87.28-1.33 1.67-3.06 2.94-3.42 7-2 14.09-3.72 21.18-5.39 10.65-2.52 21.32-4.93 31.33-7.24 0-11.4.23-22.48-.08-33.54-.21-7.45-.47-15.04-2.02-22.28-1.29-6.05-4.19-11.84-6.91-17.49-3.57-7.4-1.71-10.79 6.53-10.36 7.72.41 13.39 5.16 19.4 9.4 5.35 3.78 5.51 7.99 4.5 14.05-3.02 17.97-5.07 36.11-7.47 54.18-.1.76.11 1.55.21 2.81 4.69-1.61 8.94-3.44 13.38-4.47 3.68-.86 7.57-.9 11.37-1.08 4.05-.19 7.34 1.41 8.48 5.48 1.13 4.03-1.92 6.5-4.83 7.82-7.84 3.55-15.84 6.86-24.01 9.56-3.64 1.2-4.96 2.59-4.91 6.42.2 15.11.08 30.23.08 45.4 6.22-3.56 13.01-7.6 19.95-11.35 3.34-1.81 6.93-3.18 10.49-4.54.88-.33 2.07.15 3.11.26-.22 1.06-.09 2.47-.73 3.13-2.77 2.85-5.69 5.55-8.68 8.17-7.13 6.25-14.4 12.36-21.44 18.71-1.33 1.2-2.65 3.3-2.62 4.97.4 23.09 1.09 46.18 1.61 69.27.43 18.95-1.84 37.21-14.31 52.67-3.32 4.12-4.32 4.25-7.54.19-1.95-2.46-3.47-5.26-5.19-7.91-5.59-8.62-11.21-17.22-16.73-25.89-.81-1.27-1.14-2.85-1.7-4.28 1.55-.33 3.19-1.15 4.64-.9 5.06.86 10.17 1.74 15.06 3.27 4.84 1.51 6.36-.52 6.68-4.79.53-7.13 1.17-14.25 1.62-21.38 1.16-18.23 2.24-36.46 3.45-56.18-5.83 4.73-10.83 8.66-15.68 12.77-9.53 8.06-19.13 16.06-28.4 24.42-4.06 3.66-7.8 4.06-12.54 1.74-7.58-3.71-14.32-8.32-19.97-16.34 3.62-1.05 6.62-2.35 9.73-2.75 14.77-1.89 26.4-10.56 38.69-17.74 7.46-4.36 14.49-9.45 21.81-14.07 2.99-1.89 4.66-3.88 4.72-7.86.24-16.46.98-32.92 1.51-49.38-.02-.46-.28-.91-.15-.48z" fill="#010100"/><path d="m166.51 223.91c3.04-4.51 6.2-8.94 9.09-13.54 8.72-13.85 15.89-28.33 18.86-44.65.59-3.28-.33-4.37-3.17-5.33-3.92-1.32-7.87-2.77-11.41-4.84-1.81-1.06-2.74-3.62-4.06-5.5 2.09-1.37 4.09-3.78 6.27-3.96 18.14-1.47 35.74-5.28 52.91-11.23 3.61-1.25 7.3-2.35 10.74-3.99 7.62-3.63 14.84-2.1 21.24 2.23 7.92 5.35 15.23 11.6 23.11 17.71-1.96 3.02-2.9 5.26-4.5 6.8-6.36 6.08-8.22 14.1-10.63 22.11-3.58 11.91-7.79 23.64-12.13 35.29-1.37 3.66-3.71 7.1-6.19 10.18-3.85 4.8-7.6 4.26-10.46-1.08-.62-1.16-.92-2.51-1.56-3.66-3.37-6.03-6.77-12.05-10.23-18.04-1.2-2.07-2.58-4.03-3.88-6.05.28-.52.57-1.04.85-1.57 3.06.56 6.15.99 9.17 1.7 8.65 2.06 9.31 1.87 12.94-6.03 6.29-13.71 9.39-27.64 3.19-42.38-1.3-3.09-2.81-4.06-5.97-3.24-11.19 2.91-22.41 5.7-34.26 8.7 3.36 6.97.33 11.83-2.38 17.08-8.05 15.56-17.15 30.4-28.85 43.5-2.95 3.3-6.56 6.12-10.25 8.6-2.18 1.46-5.11 1.81-7.7 2.66-.24-.49-.49-.98-.74-1.47z" fill="#010100"/><path d="m375.23 155.43c-6.23 1.4-12.43 2.99-18.71 4.14-11.79 2.15-23.65 3.84-35.63 1.52-7.36-1.42-12.49-5.24-16.81-11.86-19.09-29.24-38.4-58.37-58.64-86.82-6.02-8.47-15.42-14.51-23.07-21.87-2.22-2.14-3.73-5.02-5.57-7.56 3.26-1.29 6.63-3.88 9.76-3.63 8.31.66 15.95 3.9 21.03 10.96 7.77 10.8 14.88 22.08 22.82 32.74 18.84 25.29 39.96 48.29 68.48 63.03 8.52 4.41 17.64 7.67 26.42 11.58 3.5 1.56 6.84 3.45 10.26 5.19-.11.87-.22 1.72-.34 2.58z" fill="#010100"/><path d="m135.09 162.52c3.42-4.17 6.81-8.38 10.27-12.52 10.68-12.75 21.34-25.53 32.12-38.2 7.56-8.89 8.36-19.22 6.9-30.11-.13-.98-.35-1.96-.41-2.95-.04-.65.14-1.31.21-1.92 11.05-3.3 27.63 4.84 31.38 15.66.57 1.66-.13 4.45-1.28 5.86-2.71 3.33-5.94 6.26-9.15 9.14-7.15 6.41-14.49 12.62-21.63 19.05-11.99 10.8-23.74 21.86-35.91 32.44-3.04 2.64-7.28 3.89-10.96 5.78-.53-.73-1.04-1.48-1.54-2.23z" fill="#010100"/><g fill="#fafafa"><path d="m12.4 4.8-6.1 9h6v1.2h-8v-.5l6.1-8.9h-5.7v-1.2h7.6v.4z"/><path d="m14 15v-10.6h3c1.6 0 2.9.5 4 1.4s1.6 2.2 1.6 3.8-.5 3-1.6 3.9-2.4 1.5-4 1.5zm1.4-9.4v8.2h1.6c1.3 0 2.4-.4 3.1-1.1s1.1-1.8 1.1-3.1-.4-2.3-1.2-3-1.8-1-3.1-1z"/><path d="m26.1 4.4v10.6h-1.4v-10.6z"/><path d="m36.1 14.6c-.8.4-1.8.6-2.9.6-1.5 0-2.7-.5-3.6-1.4s-1.4-2.2-1.4-3.8c0-1.7.5-3.1 1.5-4.1s2.3-1.6 3.9-1.6c1 0 1.8.1 2.5.4v1.4c-.8-.4-1.6-.6-2.5-.6-1.2 0-2.1.4-2.9 1.2s-1.1 1.8-1.1 3.2c0 1.3.3 2.3 1 3s1.6 1.1 2.7 1.1c1 0 2-.2 2.7-.7v1.3z"/><path d="m37.6 14.3c0-.2.1-.5.3-.6s.4-.3.6-.3c.3 0 .5.1.6.3s.3.4.3.6-.1.4-.3.6-.4.3-.6.3c-.3 0-.5-.1-.6-.3s-.3-.4-.3-.6z"/><path d="m50.2 15h-1.6l-5.3-8.2c-.2-.2-.3-.5-.4-.7 0 .2.1.7.1 1.5v7.4h-1.4v-10.6h1.7l5.2 8.1c.2.4.4.6.4.7 0-.3-.1-.8-.1-1.5v-7.3h1.4z"/><path d="m58.6 15h-5.7v-10.6h5.5v1.2h-4.1v3.4h3.8v1.2h-3.8v3.6h4.3z"/><path d="m67.1 5.6h-3.1v9.4h-1.4v-9.4h-3v-1.2h7.5z"/></g></svg>