<svg enable-background="new 0 0 400 400" viewBox="0 0 400 400" xmlns="http://www.w3.org/2000/svg"><path d="m264.68 277.52c6.81 8.26 15.88 14.66 25.56 20.24 22.37 12.88 46.78 20.4 71.5 27.13 1.52.41 2.81 1.66 4.2 2.51-1.39.59-2.73 1.54-4.17 1.71-11.86 1.4-23.72 2.69-35.6 3.94-4.79.51-9.69.4-14.38 1.38-8.22 1.72-15.08-.69-21.32-5.74-12-9.71-21.9-21.37-30.97-33.77-1.17-1.6-2.42-3.14-3.89-5.03-27.6 25-58.76 40.97-97.05 40.49-.25-4.41 2.22-5.08 5.19-5.65 31.12-6.02 57.07-21.07 78.19-44.69 2.95-3.29 3.61-5.62.62-9.2-11.73-14.02-23.18-28.28-34.94-42.27-2.31-2.75-5.64-4.64-8.39-7.04-1.3-1.13-2.36-2.53-3.62-3.91 9.26-5.29 22.27-1.68 27.74 6.44 9.09 13.49 18.7 26.63 29.01 41.22 2.46-5.61 4.41-9.54 5.93-13.62 5.89-15.81 8.86-32.29 10.56-49 .74-7.3-1.39-9.11-8.78-7.19-9.94 2.58-19.86 5.41-29.52 8.86-8.51 3.05-16.35 2.02-24.06-1.87-1.41-.71-2.22-2.6-3.31-3.95 1.42-.53 2.81-1.25 4.28-1.57 10.37-2.25 20.78-4.33 31.11-6.73 1.02-.24 2.32-2.25 2.32-3.45.07-31.66.36-63.33-.27-94.98-.23-11.4-2.12-22.93-10.56-32.03-.94-1.01-1.25-3.73-.55-4.82.74-1.16 3.23-2.15 4.62-1.81 9.55 2.33 18.85 5.33 26.57 11.9 3.51 2.99 4.08 6.47 3.26 10.76-2.39 12.52-4.59 25.07-6.81 37.62-.66 3.73-1.15 7.5-1.95 12.8 7.22-2.56 13.65-4.83 20.06-7.12 8.91-3.19 17.73-6.63 26.74-9.48 3.23-1.02 6.9-.85 10.36-.81 1.74.02 3.95.49 5.09 1.61 2.16 2.14 4.65 4.74 5.09 7.47.23 1.4-3.39 4.35-5.74 5.08-10.75 3.34-21.56 6.71-32.57 8.95-9.21 1.87-18.73 2.19-29.18 3.31v51.54c4.81-2.78 10.19-5.12 14.57-8.69 3.23-2.64 5.44-2.58 9.1-1.31 8.34 2.89 15.93 6.56 21.51 13.72 1.6 2.06 2.18 3.8.01 5.51-10.95 8.64-14.98 21.12-18.77 33.71-2.44 8.1-4.36 16.36-7.14 24.33-2.74 7.83-6.26 15.35-9.65 23.5z" fill="#010100"/><path d="m137.02 220.54c2.89 1.62 5.91 3.05 8.64 4.91 4.33 2.96 4.06 5.66.43 9.21-3.95 3.87-8 7.93-10.77 12.64-19.67 33.4-47.37 57.05-83.87 70.26-2.07.75-4.28 1.13-6.93.6 2.4-1.67 4.75-3.43 7.21-5.01 21.25-13.68 41.06-29.02 56.59-49.26 9.91-12.92 17.33-27.05 20.75-44.02-9.26 1.47-17.95 2.85-27.39 4.35 2.93 2.36 5.42 3.99 7.44 6.07 3.19 3.29 2.68 5.75-.8 8.65-2.66 2.22-5.14 4.73-7.4 7.36-13.04 15.19-27.54 28.49-46.37 36.26-1.91.79-3.94 1.29-5.91 1.92-.3-.42-.6-.83-.9-1.25 1.61-1.65 3.06-3.5 4.86-4.91 15.31-12.04 29.19-25.32 37.83-43.19 1.35-2.79 2.37-5.75 3.72-9.07-4.46 0-8.29-.21-12.07.11-1.44.12-3 1.19-4.13 2.23-4.9 4.51-9.48 9.39-14.56 13.68-3.07 2.59-6.85 4.35-10.32 6.48-.43-.43-.86-.86-1.29-1.29 1.66-2.45 3.27-4.93 4.98-7.34 6.62-9.35 13.89-18.33 19.7-28.16 3.63-6.14 5.31-13.49 7.39-20.44.88-2.92 2.17-3.82 4.92-3.25 7.72 1.59 11.77 7.17 14.47 13.86.39.96-1.39 3.32-2.7 4.34-4.8 3.72-9.83 7.15-14.77 10.68.24.53.48 1.06.72 1.59 8.45-1.65 17.02-2.89 25.34-5.05 14.6-3.78 29.09-7.98 43.53-12.33 4.28-1.29 7.88-1.2 11.88.9 8.97 4.73 17.12 10.26 22.76 19.82-12.88 6.91-11.09 20.35-13.86 31.78-4.34 17.93-8.32 36.01-16.86 52.51-3.31 6.39-8.04 12.11-12.56 17.79-1.67 2.1-4.4 3.57-6.93 4.72-9 4.1-11.16 2.75-16.13-5.69-4-6.77-9.39-12.72-14.18-19.02-.85-1.12-1.74-2.21-2.61-3.31.26-.47.52-.94.77-1.4 6.57 2.05 13.19 3.93 19.69 6.18 7.38 2.56 7.41 2.76 11.89-3.66 11.07-15.88 16.95-33.79 19.58-52.75 1.3-9.36 1.4-18.88 2.25-28.31.34-3.85-1.22-5.32-4.82-4.74-6.49 1.03-12.96 2.19-19.44 3.3.06.44.14.84.23 1.25z" fill="#010100"/><path d="m118.92 121.07c-13.5 3.87-27.04 7.58-40.46 11.71-3.25 1-6.16 3.22-9.09 5.09-2.7 1.72-5.24 3.08-7.95.15-3.26-3.51-4.14-8.48-1.96-11.21.73-.91 1.62-1.67 2.4-2.55 7.91-8.88 11.16-18.7 6.34-30.3-.85-2.04-.91-4.41-1.35-6.67 11.98-1.21 21.75 9.51 19.49 20.56-.75 3.69-1.05 7.46-1.66 11.97 12.39-2.07 23.91-3.99 35.68-5.95 1.67-23.97 1.06-47.36-6.95-70.78 9.91-.5 16.19 3.13 21.61 8.47 5.06 4.99 6.96 10.25 5.05 18.1-3.23 13.26-4.33 27.03-6.47 41.57 13.93-2.69 26.38-5.09 39.47-7.61.53-8.57 1.06-16.95 1.56-25.08 8.05-3.08 17.92 6.75 19.2 12.09.5 2.09-.82 4.79-1.78 7.02-3 6.96-6.23 13.83-9.36 20.74-.68 1.51-1.15 3.14-2.03 4.53-1.92 3.06-4.35 3.12-6.08-.04-1.49-2.73-2.4-5.78-3.77-9.21-10.29 1.94-20.64 4.25-31.11 5.73-5.3.75-7.15 2.98-7.37 8.12-.45 10.75-1.4 21.49-2.19 33.02 11.92-1.96 23.29-3.82 35.31-5.79-1.35-5.69-2.62-11.02-3.89-16.35.4-.39.8-.78 1.2-1.16 3 1.75 6.37 3.08 8.92 5.33 8.53 7.57 10.79 18.17 11.98 28.74.29 2.57-3.19 6.48-5.92 8.07-1.27.74-5.83-1.98-7.28-4.19-2.48-3.79-3.69-8.41-5.75-13.47-6.95 1.72-14.33 3.44-21.64 5.38-25.11 6.67-49.53 15.2-72.64 27.26-8.04 4.2-12.51 3.16-15.37-3.35-1.85-4.22-1.59-7.77 2.51-10.96 7.63-5.94 12.54-13.54 13.45-23.55.2-2.24 2.51-4.29 3.85-6.42 2.24 1.48 5.12 2.51 6.55 4.55 1.37 1.96 1.38 4.95 1.74 7.52.24 1.73.05 3.52.05 5.73 11.08-1.4 21.6-2.68 32.08-4.17.9-.13 2.21-1.64 2.28-2.6.98-12.74 1.77-25.49 2.62-38.24-.43-.61-.85-1.21-1.27-1.8z" fill="#010100"/><g fill="#fafafa"><path d="m12.4 4.8-6.1 9h6v1.2h-8v-.5l6.1-8.9h-5.7v-1.2h7.6v.4z"/><path d="m14 15v-10.6h3c1.6 0 2.9.5 4 1.4s1.6 2.2 1.6 3.8-.5 3-1.6 3.9-2.4 1.5-4 1.5zm1.4-9.4v8.2h1.6c1.3 0 2.4-.4 3.1-1.1s1.1-1.8 1.1-3.1-.4-2.3-1.2-3-1.8-1-3.1-1z"/><path d="m26.1 4.4v10.6h-1.4v-10.6z"/><path d="m36.1 14.6c-.8.4-1.8.6-2.9.6-1.5 0-2.7-.5-3.6-1.4s-1.4-2.2-1.4-3.8c0-1.7.5-3.1 1.5-4.1s2.3-1.6 3.9-1.6c1 0 1.8.1 2.5.4v1.4c-.8-.4-1.6-.6-2.5-.6-1.2 0-2.1.4-2.9 1.2s-1.1 1.8-1.1 3.2c0 1.3.3 2.3 1 3s1.6 1.1 2.7 1.1c1 0 2-.2 2.7-.7v1.3z"/><path d="m37.6 14.3c0-.2.1-.5.3-.6s.4-.3.6-.3c.3 0 .5.1.6.3s.3.4.3.6-.1.4-.3.6-.4.3-.6.3c-.3 0-.5-.1-.6-.3s-.3-.4-.3-.6z"/><path d="m50.2 15h-1.6l-5.3-8.2c-.2-.2-.3-.5-.4-.7 0 .2.1.7.1 1.5v7.4h-1.4v-10.6h1.7l5.2 8.1c.2.4.4.6.4.7 0-.3-.1-.8-.1-1.5v-7.3h1.4z"/><path d="m58.6 15h-5.7v-10.6h5.5v1.2h-4.1v3.4h3.8v1.2h-3.8v3.6h4.3z"/><path d="m67.1 5.6h-3.1v9.4h-1.4v-9.4h-3v-1.2h7.5z"/></g></svg>