<svg enable-background="new 0 0 400 400" viewBox="0 0 400 400" xmlns="http://www.w3.org/2000/svg"><g fill="#010103"><path d="m194.19 211.8c-15.49 11.56-30.45 23.53-46.22 34.32-33.79 23.13-70.53 40.65-108.87 54.84-3.6 1.33-8.86 3.74-10.67-.7-1.74-4.25 3.72-5.86 7.09-7.36 32.27-14.39 63.55-30.56 92.42-51.11 15.93-11.34 30.63-24.07 43.85-38.49 1.2-1.31 2.26-2.75 3.77-4.6-6.35-3.34-12.2-6.41-18.05-9.49.15-.43.3-.86.44-1.29 8.81-1.81 17.61-3.62 26.97-5.54-.52-5.32-.57-10.45-1.62-15.36-1.1-5.15-2.46-10.49-5.03-14.99-2.37-4.16-6.48-7.33-9.44-11.5 8.31-.63 16.15.21 22.73 5.13 1.55 1.16 1.89 4.54 2 6.94.39 8.85.46 17.72.66 27.2 2.86-.88 4.39-1.46 5.96-1.81 10.83-2.4 10.97-2.38 10.8-13.22-.22-13.97-.67-27.94-1.05-41.92-.01-.46-.25-.91-.46-1.64-12.79.21-25.67 3.92-38.3-.01-.04-.44-.08-.88-.12-1.32 25.54-6.98 51.09-13.97 76.9-21.02-3.96-17.13-7.73-32.78-15.85-46.89-2.11-3.67-5.46-6.62-8.06-10.04-1.02-1.33-2.14-3.1-2.04-4.58.06-.86 2.52-2.28 3.82-2.21 10.12.62 20.17 1.31 28.6 8.35 3.51 2.93 4.53 6.05 3.61 10.03-3.23 13.85 1.59 26.5 5.1 39.16 6.12-1.21 11.73-2.62 17.43-3.33 2.84-.35 5.92.29 8.72 1.09 1.29.37 2.91 2.15 3.01 3.39.09 1.17-1.37 3.18-2.58 3.62-5.73 2.08-11.62 3.76-17.45 5.56-1.84.57-3.69 1.09-6.98 2.07 5.16 12 9.51 23.6 15.04 34.62 7.16 14.28 17.08 26.56 30.15 36.04.94.68 1.88 1.39 2.9 1.94 7.03 3.83 9.53 3.17 12.22-4.33 2.51-7 4.24-14.28 6.3-21.44.37-1.27.32-2.86 1.1-3.78 1.14-1.34 2.84-2.21 4.3-3.27.63 1.5 1.84 3.03 1.79 4.51-.49 16.19.08 32.27 4.07 48.07.65 2.58 1.73 5.07 2.11 7.68.34 2.32.81 5.34-.33 6.91-.86 1.17-4.6 1.38-6.36.55-8.82-4.19-17.99-8.02-25.96-13.53-22.23-15.37-37.03-37.03-48.6-61.02-4.46-9.25-8.15-18.87-12.34-28.66-9.39 2.79-18.85 5.59-27.93 8.29v24.08c2.99-1.58 4.92-2.74 6.95-3.65 4.52-2.04 9-4.26 13.7-5.78 2-.65 4.69-.19 6.73.62 1.6.63 3.65 2.52 3.72 3.94s-1.81 3.83-3.3 4.27c-6.46 1.93-13.06 3.43-19.67 4.8-2.23.46-4.64.07-7.37.07v26.03c12.36-3.27 24.61-6.52 37.52-9.93-1.03 5.44-4.34 6.73-7.82 8.02-18.83 6.98-37.64 14.02-56.44 21.1-2.6.98-5.07 2.28-8.56 3.88 3.98 1.54 7.07 2.45 9.88 3.92 2.45 1.28 6.67 1.99 3.18 7.48 16.26 7.83 32.19 16.04 48.56 23.25 25.31 11.15 51.62 19.4 79.04 23.48 11.65 1.74 23.47 2.33 35.19 3.66 3.09.35 6.1 1.49 9.14 2.26 0 .63-.01 1.26-.01 1.89-1.86.71-3.67 1.76-5.6 2.08-18.33 3.01-36.6 6.62-55.04 8.52-9.42.97-18.84-1.24-27.64-6.54-19.52-11.73-39.69-22.38-59.44-33.73-11.14-6.37-21.93-13.27-32.27-19.58z"/><path d="m178.8 325.13c0-10.05 0-19.5 0-29.88-8.12 1.48-15.84 3.16-23.66 4.24-8.14 1.12-15.94-.53-23.38-3.67-.11-.7-.22-1.4-.34-2.1 3.05-.92 6.06-2.08 9.17-2.73 11.36-2.37 22.73-4.67 34.14-6.77 3.55-.65 4.63-2.34 4.3-5.77-.55-5.78-.74-11.6-1.19-17.39-.28-3.49-1.52-5.15-5.78-4.45-4.86.8-9.97.5-14.93.12-1.54-.12-2.94-2.03-4.41-3.13 1.31-.78 2.52-1.93 3.94-2.28 15.62-3.88 31.29-7.58 46.92-11.44 4.01-.99 7.86-2.7 11.9-3.46 2.3-.43 5.18-.25 7.17.82 2.14 1.15 3.54 3.68 5.26 5.6-1.74 1.33-3.3 3.27-5.26 3.89-8.37 2.66-16.86 4.93-25.3 7.34-1.08.31-2.16.6-3.88 1.07 6.95 7.92 2.14 16.34 1.55 24.18 11.91-2.62 23.31-5.6 34.89-7.46 4.46-.72 9.45.7 13.97 1.97 1.97.55 3.37 3.16 5.03 4.84-1.9 1.43-3.6 3.64-5.72 4.17-9.33 2.35-18.76 4.33-28.2 6.23-6.18 1.24-12.46 1.98-18.64 3.25-1.2.25-3 1.86-3.03 2.89-.24 8.78-.14 17.57-.14 27.11 8.34-.96 16.1-1.57 23.75-2.81 16.21-2.63 32.33-5.78 48.54-8.35 11.1-1.75 21.33 2.24 31.37 6.24 2.06.82 3.37 3.55 5.02 5.41-2.7 1.61-5.36 4.53-8.11 4.61-13.8.4-27.67-.69-41.43.14-26.69 1.62-53.43 3.36-79.95 6.6-22.69 2.77-45.12 7.73-67.67 11.67-8.66 1.51-16.92-.22-24.66-4.03-1.83-.9-2.78-3.61-4.13-5.49 1.9-.84 3.75-2.24 5.71-2.42 22.18-2.07 44.37-3.96 66.56-5.89 8.45-.73 16.89-1.44 25.34-2.19 1.64-.13 3.27-.41 5.28-.68z"/><path d="m47.62 124.12c18.3-3.54 35.59-6.5 52.7-10.3 17.16-3.81 34.14-8.39 51.17-12.74 6.23-1.59 12.09-1.5 18.48 3.14-2.36 1.58-4.08 3.36-6.17 4.04-9.58 3.1-19.26 5.89-29.02 8.83-.02-.21-.11.26.05.38 8.78 6.57 9.76 14.67 5.08 24.14-4.03 8.16-7.76 16.47-11.1 23.62 6.25 6.13 12.57 11.71 18.13 17.97 5.55 6.25 5.89 15.45 1.43 22.15-11.28-5.72-19.31-15.2-27.59-24.33-24.63 23.89-55.16 39.97-70.38 36.02 23.59-11.92 45.01-25.11 60.35-46.45-10.47-8.89-20.65-17.53-30.83-26.17.34-.65.67-1.3 1.01-1.94 2.36.58 4.9.78 7.04 1.82 9.85 4.75 19.59 9.73 29.78 14.83 5.18-12.7 8.13-25.43 7.76-39.77-3.94.92-7.4 1.65-10.82 2.55-12.32 3.24-24.96 5.59-36.05 12.45-.92.57-2.24.87-3.33.76-10.03-1-18.96-4.77-27.69-11z"/><path d="m102.49 57.33c3.2.18 6.56-.21 9.56.66 5.7 1.65 11.45 3.52 16.73 6.19 9.05 4.59 11.6 14.53 6.63 23.43-1.67 2.99-6.1 4.11-8.42 1.49-8.64-9.8-16.97-19.89-25.42-29.87.32-.63.62-1.27.92-1.9z"/><path d="m276.67 60.32c8.9 1.44 17.16 2.17 25.09 4.2 9.64 2.48 14.45 14.41 10.17 23.42-1.26 2.65-3.13 3.82-6.01 2.34-.88-.46-1.96-.72-2.63-1.39-8.47-8.42-16.9-16.88-25.3-25.38-.5-.52-.6-1.43-1.32-3.19z"/><path d="m234.14 82.2c-11.14 9.89-41.32 14.49-49.13 6.78 4.54-1.8 8.77-3.52 13.04-5.15 6.49-2.48 12.94-5.11 19.54-7.28 7.2-2.37 12.65-.4 16.55 5.65z"/></g><path d="m361.2 9.6.8-1c.9.7 1.9 1.4 2.9 2.3l-.9 1.1c-1-1-2-1.8-2.8-2.4zm.5 10.6c.9-2.1 1.6-4.3 2.3-6.7.4.2.8.4 1.3.6-.7 2.1-1.5 4.3-2.2 6.6zm.4-15.2.9-.9c1 .8 2 1.6 2.8 2.4l-1 1c-.9-.9-1.8-1.7-2.7-2.5zm12.5-1.2h1.2v1.4h2.7v1.1h-2.7v2.7h-1.2v-.6h-1.8v1.3h4.9v3.8h-1.2v-.5h-3.7c0 .4-.1.9-.1 1.2h5.1v1h-5.2c0 .5-.1.9-.2 1.2h6v1h-5.2c1.1 1.3 2.9 2 5.5 2.2-.4.4-.7.8-.9 1.3-2.9-.5-4.8-1.6-5.7-3.5h-.1c-.8 1.7-2.7 2.9-5.9 3.6-.2-.4-.6-.8-.9-1.1 2.8-.6 4.6-1.4 5.4-2.5h-4.8v-1h5.3c.1-.3.2-.7.2-1.2h-4.9v-1h5c0-.4 0-.8.1-1.2h-3.5v.5h-1.2v-3.8h4.9v-1.3h-1.8v.5h-1.2v-2.7h-2.7v-1h2.6v-1.4h1.2v1.4h4.7v-1.4zm-6.6 8.3h3.6c0-.4 0-.9 0-1.4h-3.6zm1.9-4.6h4.7v-1.3h-4.7zm6.6 3.2h-3.7v1.4h3.7z" fill="#fbfcfa"/><path d="m385.3 3.8h1.3v2.2h2.8v-2.2h1.3v2.2h4.1v9.1h1.7v1.3h-16.9v-1.3h1.7v-9.1h4.1v-2.2zm.4 13.1.7 1.2c-1.8.9-3.8 1.9-6 2.9-.2-.4-.5-.8-.8-1.3 2.3-1 4.3-1.9 6.1-2.8zm-3.1-6.4h2.8v-3.2h-2.8zm0 4.6h2.8v-3.3h-2.8zm4-4.6h2.8v-3.2h-2.8zm0 4.6h2.8v-3.3h-2.8zm3.7 1.9c2.1.9 4.1 1.8 6.1 2.7l-.7 1.3c-2.2-1.1-4.2-2-6.1-2.9zm3.2-9.7h-2.8v3.2h2.8zm-2.8 7.8h2.8v-3.3h-2.8z" fill="#fbfcfa"/></svg>