<svg enable-background="new 0 0 400 400" viewBox="0 0 400 400" xmlns="http://www.w3.org/2000/svg"><g fill="#010103"><path d="m187.91 93.65c8.57-1.45 16.73-2.8 24.87-4.21 36.49-6.3 72.62-14.18 108.11-24.81 10.07-3.01 19.74-1.12 29.42 1.37 2.74.71 6.9 1.94 5.55 5.62-1.09 2.94-4.26 6.62-7.06 7.17-19.36 3.83-38.87 6.94-58.33 10.27-2.28.39-4.57.78-7.47 1.28 2.56 2.83 4.86 5.36 7.14 7.9 2.67 2.97 3.02 6.1 2.09 10.12-2 8.64-3.24 17.46-4.79 26.21.54.37 1.08.73 1.62 1.1 4.99-1.87 10.31-3.15 14.89-5.74 9.57-5.42 18.91-4.46 28.01.26 7.02 3.64 13.58 8.19 20.26 12.46 3.34 2.14 3.64 5.28 2.2 8.74-9.77 23.4-9.86 48.02-8.94 72.7.95 25.25 2.67 50.48 3.37 75.74.35 12.59-2.85 24.79-9.01 35.88-2.31 4.17-6.02 7.56-10.09 12.52-2.5-5.27-4.55-8.68-5.77-12.36-3.23-9.77-6.29-19.6-9.02-29.51-.99-3.61-2.27-5.24-6.3-5-22.57 1.34-45.15 2.39-67.73 3.66-10.75.6-21.49 1.46-32.09 2.19-1.08 5.91-1.7 11.36-3.12 16.6-1.67 6.16-4.5 6.72-9.05 2.15-5.35-5.38-6.65-12.39-7.83-19.53-1.67-10.16 1.75-19.66 3-29.47 2.15-16.79 3.97-33.66 4.91-50.55.8-14.45.94-29.04-.1-43.47-.74-10.27-4.04-20.35-5.91-30.57-.24-1.33 1.14-4.2 1.95-4.27 3.53-.3 7.57-.81 10.62.56 9.96 4.49 19.44 1.65 29.02-.78 1.03-.26 2.46-1.84 2.46-2.82.07-13.36-1.07-26.55-6.34-39.06-1.23-2.92-3.05-4.01-6.45-4-8.78.02-17.6-.24-26.34-1.06-5.01-.51-6.28-2.24-7.75-7.29zm85.92 54.9c-8.23 1.85-16.03 3.47-23.72 5.47-1.14.3-2.42 2.37-2.58 3.74-.69 5.77-.62 11.64-1.49 17.37-2.31 15.3-7.66 29.25-19.47 39.94-1.78 1.61-4.07 2.67-6.12 3.98-.37-.33-.75-.67-1.12-1 9.89-19 15.82-38.93 15.56-60.87-6.75 1.36-12.89 2.81-19.1 3.77-2.91.45-3.37 1.84-3.41 4.34-.26 16.64-.61 33.27-.97 49.91-.3 13.97-.78 27.94-.95 41.92-.16 13.28-.04 26.57-.04 40.82 21.56-3.55 42.94-7.14 64.34-10.57 7.04-1.13 14.11-2.2 21.21-2.68 12.49-.85 22.55 4.28 31.06 14.9.35-3.29.78-5.35.77-7.41-.3-42.96-.55-85.91-1.12-128.86-.06-4.67-1.64-9.48-3.3-13.92-1.63-4.34-5.16-6.88-10.18-6.39-8.57.84-17.15 1.71-25.8 2.57-.3 2.5-.86 4.63-.76 6.73.41 8.93.55 17.92 1.71 26.76.75 5.7 3.57 6.49 8.94 5.13 3.8-.96 7.87-1.42 11.77-1.21 5.94.32 8.95 5.75 5.85 10.69-1.55 2.47-4.35 4.82-7.08 5.72-4.82 1.59-10 2.12-15.06 2.91-6.75 1.05-10.74-.91-13.94-6.8-3.92-7.21-4.87-15.12-4.98-23.15-.11-7.65-.02-15.3-.02-23.81zm-38.79-48.42c-.27.36-.54.73-.82 1.09 12.35 2.34 13.86 10.8 13.27 20.85-.43 7.24-.08 14.52-.08 22.55 8.88-2 16.97-3.68 24.94-5.79 1.09-.29 2.24-2.73 2.28-4.21.25-8.65.51-17.34.08-25.97-.23-4.66-1.82-9.25-2.85-14.16-12.9 1.98-24.86 3.81-36.82 5.64z"/><path d="m127.23 350c-6.31-5.65-7.21-12.34-7.2-18.88 0-25.47.47-50.94.68-76.4.1-11.46.02-22.93.02-35.84-17.97 5.56-35.36 10.9-52.71 16.35-3.16.99-6.19 2.4-9.24 3.7-7.4 3.14-18.35-.18-22.88-6.97-1.96-2.94-.3-5.21 4.3-6.1 11.73-2.27 23.51-4.31 35.14-7 14.05-3.26 27.95-7.19 41.96-10.61 2.75-.67 3.79-1.61 3.77-4.58-.24-38.14-.26-76.29-.54-114.43-.07-8.79-.05-17.74-1.69-26.3-1.1-5.7-5.11-10.84-7.77-16.25-.96-1.94-1.81-3.94-2.7-5.91 2.23-.91 4.61-2.86 6.66-2.56 10.93 1.61 21.51 4.38 29.9 12.31 4.08 3.86 3.69 6.22 1.63 11.39-2.54 6.39-4.5 13.25-5.21 20.06-1.33 12.88-1.82 25.86-2.24 38.82-.83 25.27-1.37 50.55-2.03 75.82-.03 1.32 0 2.64 0 4.9 6.86-2.13 13.29-3.97 19.62-6.11 11.19-3.79 22.27-.29 29.02 9.36 2.76 3.95 1.36 6.99-3.61 7.5-13.05 1.34-26.11 2.55-39.16 3.87-1.92.19-3.81.7-5.93 1.1 0 16.52.12 32.66-.03 48.8-.17 17.8-.23 35.62-1.05 53.4-.33 7.21-2.25 14.39-3.99 21.46-.77 3.01-2.91 5.7-4.72 9.1z"/><path d="m63.31 154.6c5.8 1.81 11.7 3.36 17.39 5.47 10.96 4.07 12.61 14.27 10.32 23.92-1.31 5.54-8.24 7.77-12.22 3.64-8.29-8.61-16.14-17.66-23.9-26.76-2.44-2.86-1.3-4.76 2.61-5.18 1.81-.19 3.66-.03 5.49-.03.1-.34.21-.7.31-1.06z"/><path d="m72.45 100.6c7.82 2.89 15.93 5.18 23.37 8.84 7.63 3.74 8.96 11.7 9 19.25.04 6.55-7.43 9.49-13.38 5.28-4.16-2.94-7.87-6.63-11.34-10.38-4.16-4.5-7.98-9.34-11.7-14.21-1.19-1.56-1.62-3.71-2.39-5.59 1.91-.77 3.81-1.53 5.72-2.3.23-.3.48-.59.72-.89z"/><path d="m224.18 247.57c1.86-1.22 3.56-2.93 5.6-3.57 16.14-5 32.26-10.16 48.6-14.41 4.67-1.22 10.24-.26 15.07.98 2.24.58 3.68 4.23 5.48 6.49-2.22 1.71-4.22 4.45-6.69 4.97-16.87 3.55-33.78 7.03-50.82 9.64-5.42.83-11.26-1.05-16.9-1.69-.11-.79-.22-1.6-.34-2.41z"/></g><path d="m361.2 9.6.8-1c.9.7 1.9 1.4 2.9 2.3l-.9 1.1c-1-1-2-1.8-2.8-2.4zm.5 10.6c.9-2.1 1.6-4.3 2.3-6.7.4.2.8.4 1.3.6-.7 2.1-1.5 4.3-2.2 6.6zm.4-15.2.9-.9c1 .8 2 1.6 2.8 2.4l-1 1c-.9-.9-1.8-1.7-2.7-2.5zm12.5-1.2h1.2v1.4h2.7v1.1h-2.7v2.7h-1.2v-.6h-1.8v1.3h4.9v3.8h-1.2v-.5h-3.7c0 .4-.1.9-.1 1.2h5.1v1h-5.2c0 .5-.1.9-.2 1.2h6v1h-5.2c1.1 1.3 2.9 2 5.5 2.2-.4.4-.7.8-.9 1.3-2.9-.5-4.8-1.6-5.7-3.5h-.1c-.8 1.7-2.7 2.9-5.9 3.6-.2-.4-.6-.8-.9-1.1 2.8-.6 4.6-1.4 5.4-2.5h-4.8v-1h5.3c.1-.3.2-.7.2-1.2h-4.9v-1h5c0-.4 0-.8.1-1.2h-3.5v.5h-1.2v-3.8h4.9v-1.3h-1.8v.5h-1.2v-2.7h-2.7v-1h2.6v-1.4h1.2v1.4h4.7v-1.4zm-6.6 8.3h3.6c0-.4 0-.9 0-1.4h-3.6zm1.9-4.6h4.7v-1.3h-4.7zm6.6 3.2h-3.7v1.4h3.7z" fill="#fbfcfa"/><path d="m385.3 3.8h1.3v2.2h2.8v-2.2h1.3v2.2h4.1v9.1h1.7v1.3h-16.9v-1.3h1.7v-9.1h4.1v-2.2zm.4 13.1.7 1.2c-1.8.9-3.8 1.9-6 2.9-.2-.4-.5-.8-.8-1.3 2.3-1 4.3-1.9 6.1-2.8zm-3.1-6.4h2.8v-3.2h-2.8zm0 4.6h2.8v-3.3h-2.8zm4-4.6h2.8v-3.2h-2.8zm0 4.6h2.8v-3.3h-2.8zm3.7 1.9c2.1.9 4.1 1.8 6.1 2.7l-.7 1.3c-2.2-1.1-4.2-2-6.1-2.9zm3.2-9.7h-2.8v3.2h2.8zm-2.8 7.8h2.8v-3.3h-2.8z" fill="#fbfcfa"/></svg>