<svg enable-background="new 0 0 400 400" viewBox="0 0 400 400" xmlns="http://www.w3.org/2000/svg"><path d="m116.03 297.21c-2.71-7.93-5.72-15.79-7.97-23.85-.85-3.02-1.74-4.29-4.84-3.98-8.91.91-17.85 1.59-26.73 2.72-1.28.16-2.84 2.13-3.33 3.58-1.33 3.92-1.82 8.14-3.32 11.97-1 2.56-3.14 4.67-5.2 7.59-5.62-6.38-7.32-12.96-8.81-19.79-1.91-8.78.5-17.04 1.83-25.55 1.88-11.96 3.36-24.06 3.91-36.15 1.08-23.77 1.57-47.56 1.92-71.35.11-7.45-.78-14.94-1.68-22.36-.35-2.87-1.86-5.63-3.07-8.34-.81-1.81-2.04-3.43-3.03-5.16-5.28-9.26-3.19-13.74 7.25-12.37 16.76 2.19 31.32-3.92 46.17-9.53 11.69-4.41 30.79 2.4 36.52 13.62.93 1.82.92 5.32-.24 6.83-7.14 9.26-8.37 20.22-9.11 31.13-1.16 17.09-1.84 34.22-2.22 51.35-.54 24.64-.25 49.3-1.1 73.93-.27 7.96-2.24 16.12-4.91 23.66-1.65 4.66-6.09 8.33-9.27 12.45-.94-.14-1.85-.27-2.77-.4zm-42.42-35.74c4.63-1.47 8.64-2.91 12.74-4.02 8.85-2.39 17.83-5.33 26.56 4.72 1.47-9.06 3.48-16.62 3.78-24.25 1.04-26.42 1.98-52.87 1.97-79.31-.01-17.08-1.79-34.16-2.7-51.24-.28-5.2-3.15-7.09-8.03-7.39-8.88-.56-17.05 2-25.23 4.92-2.62.94-3.55 2.2-3.58 5-.18 13.81-.66 27.61-.9 41.42-.14 8.26-.03 16.53-.03 25.66 3.11-1.49 5.61-2.68 8.09-3.88 5.5-2.66 11.28-3.46 16.8-.72 2.41 1.2 4.01 4.04 5.97 6.13-1.93 1.6-3.63 4.05-5.83 4.64-8.72 2.35-17.59 4.11-26.65 6.15-.97 23.28-1.95 47.28-2.96 72.17z" fill="#010106"/><path d="m263.12 308.81c1.61.22 3.25.33 4.83.69 8.08 1.79 16.16 3.63 24.23 5.48 6.17 1.41 9.87-.09 11.41-6.23 3.11-12.34 6.6-24.76 7.89-37.35 1.37-13.31.55-26.87.29-40.31-.06-3.01-1.42-6.14-2.75-8.94-1.7-3.57-4.74-5.49-8.91-5.11-20.67 1.84-41.37 3.44-62.01 5.59-13.69 1.42-27.33 3.47-40.95 5.53-8.82 1.34-17.55 3.22-27.05 4.99.34 4.57.84 10.1 1.13 15.65.77 14.61 1.52 29.22 2.14 43.84.39 9.13.62 18.27.73 27.41.03 2.63-.23 5.4-1.1 7.84-.69 1.95-2.43 4.81-3.85 4.89-1.96.12-4.79-1.49-5.95-3.23-5.67-8.49-6.81-18.04-6.29-28.13.63-12.39 1.31-24.9.3-37.22-.86-10.46-3.87-20.77-6.38-31.04-.8-3.28-2.93-6.29-4.68-9.29-2.44-4.2-1.37-6.67 3.49-6.08 4.85.59 9.52 2.58 14.3 3.83 2.19.57 4.55 1.44 6.68 1.13 25.14-3.62 50.27-7.38 75.38-11.21 13.6-2.08 27.23-4.03 40.72-6.71 4.87-.97 9.25-4.18 14.04-5.83 2.78-.96 6.49-2.09 8.8-1.02 10.23 4.72 20.15 10.11 30.06 15.5 2.12 1.15 4.19 2.99 5.39 5.04.88 1.5 1.12 5.01.23 5.67-10.33 7.5-11.16 18.78-12.12 29.86-1.55 17.86-2.18 35.81-4.13 53.62-2.16 19.76-13.57 33.5-30.89 42.47-1.28.66-5.05-.53-5.54-1.73-6.41-15.64-17.15-27.86-30.06-38.48.21-.4.42-.76.62-1.12z" fill="#010106"/><path d="m264.53 172.99c3.28 2.66 6.24 5.07 9.2 7.47-.2.55-.41 1.09-.61 1.64-20.81 6.01-42.34 8.44-63.91 11.68 0 1.9.38 3.67-.11 5.15-.51 1.55-1.65 3.63-2.92 3.98-1.14.3-3.56-1.1-4.14-2.35-2.57-5.57-5.03-11.24-6.9-17.07-3.89-12.1-8.17-23.89-17.45-33.17-.95-.95-.89-2.92-1.3-4.42 1.23-.06 2.49-.36 3.67-.15 5.36.92 10.67 2.58 16.05 2.82 4.55.2 9.21-.99 13.74-1.92 15.62-3.2 31.18-6.56 45.74-13.5 2.59-1.23 6.6-1.67 9.08-.55 7.22 3.27 14.35 7 20.85 11.52 6.43 4.48 5.58 6.26-1 10.55-6.03 3.93-11.39 8.92-16.87 13.65-1.42 1.23-2.18 3.23-3.12 4.67zm-56.78 13.29c12.91-3.53 25.2-6.9 37.49-10.24 3.12-.85 6.25-1.66 6.55-5.68.42-5.62.95-11.23 1.15-16.86.23-6.12-1.19-7.26-7.4-6.29-5.73.9-11.42 1.98-17.14 2.93-8.74 1.46-17.49 2.88-26.54 4.36 2.02 10.88 3.94 21.23 5.89 31.78z" fill="#010106"/><path d="m215.33 295.85c-.48 2.05-.8 4.22-1.54 6.22-.35.94-1.47 2.07-2.36 2.18-.79.1-2.26-.9-2.55-1.73-1.9-5.41-4.29-10.79-5.13-16.39-1.75-11.7-5.38-22.52-11.75-32.49-.97-1.52-1.15-3.54-1.7-5.32 1.68-.17 3.41-.69 5.02-.44 4.39.69 8.71 2.33 13.09 2.44 4.54.11 9.19-.8 13.65-1.84 10.96-2.55 22.22-4.27 31.88-10.75.98-.66 2.68-.91 3.8-.57 8.76 2.71 17.43 5.63 23.58 13.11 3.07 3.72 2.96 6.61-1.17 9.02-7.03 4.11-11.68 10.23-15.7 17.37 2.26 1.93 4.68 3.67 6.71 5.79 3.2 3.33 2.61 5.64-1.95 6.54-8.13 1.61-16.32 3.01-24.54 4.02-9.7 1.21-19.47 1.91-29.34 2.84zm-.91-6.93c9.16-2.06 17.5-3.92 25.83-5.82 7.62-1.73 11.02-5.68 11.56-13.35.11-1.49 0-3.01.26-4.46 2.44-13.52 1.16-14.86-12.13-12.11-9.32 1.92-18.61 4.04-28.23 6.14.93 10.15 1.8 19.63 2.71 29.6z" fill="#010106"/><path d="m163.22 114.77c6.87-.92 13.73-1.94 20.61-2.74 32.03-3.75 63.31-11.1 94.37-19.49 10.92-2.95 21.74-6.08 33.28-3.71 6.74 1.39 12.66 4.27 17.23 9.3 1.53 1.69 2.79 5.07 2.1 6.91s-3.88 3.67-6.11 3.86c-8.6.73-17.26.83-25.89 1.11-36.4 1.17-72.54 4.34-107.96 13.46-10.45 2.67-19.59-.63-27.63-8.7z" fill="#010106"/><path d="m214.17 43.97c4.55 0 9.19-.58 13.63.13 6.98 1.11 14.22 2.16 20.63 4.91 11.26 4.84 15.08 18.99 9.19 29.75-2.03 3.71-4.76 3.71-7.93 2.2-8.92-4.25-17.21-9.4-23.4-17.34-4.44-5.69-8.85-11.41-13.27-17.12.38-.84.77-1.69 1.15-2.53z" fill="#010106"/><g fill="#fafbfa"><path d="m12.4 4.8-7.1 9h6v1.2h-8v-.5l6.1-8.9h-4.7v-1.2h7.6v.4z"/><path d="m14 14v-9.6h3c1.6 0 2.9.5 4 1.4s1.6 2.2 1.6 3.8-.5 3-1.6 3.9-2.4 1.5-4 1.5h-3zm1.4-8.4v8.2h1.6c1.3 0 2.4-.4 3.1-1.1s1.1-1.8 1.1-3.1-.4-2.3-1.2-3-1.8-1-3.1-1z"/><path d="m26.1 4.4v10.6h-1.4v-10.6z"/><path d="m36.1 14.6c-.8.4-1.8.6-2.9.6-1.5 0-2.7-.5-3.6-1.4s-1.4-2.2-1.4-3.8c0-1.7.5-3.1 1.5-4.1s2.3-1.6 3.9-1.6c1 0 1.8.1 2.5.4v1.4c-.8-.4-1.6-.6-2.5-.6-1.2 0-2.1.4-2.9 1.2s-1.1 1.8-1.1 3.2c0 1.3.3 2.3 1 3s1.6 1.1 2.7 1.1c1 0 2-.2 2.7-.7v1.3z"/><path d="m37.6 14.3c0-.2.1-.5.3-.6s.4-.3.6-.3c.3 0 .5.1.6.3s.3.4.3.6-.1.4-.3.6-.4.3-.6.3c-.3 0-.5-.1-.6-.3s-.3-.4-.3-.6z"/><path d="m50.2 15h-1.6l-5.3-8.2c-.2-.2-.3-.5-.4-.7 0 .2.1.7.1 1.5v7.4h-1.4v-10.6h1.7l5.2 8.1c.2.4.4.6.4.7 0-.3-.1-.8-.1-1.5v-7.3h1.4z"/><path d="m58.6 15h-5.7v-10.6h5.5v1.2h-4.1v3.4h3.8v1.2h-3.8v3.6h4.3z"/><path d="m67.1 5.6h-3.1v9.4h-1.4v-9.4h-3v-1.2h7.5z"/></g></svg>