<svg enable-background="new 0 0 400 400" viewBox="0 0 400 400" xmlns="http://www.w3.org/2000/svg"><path d="m29.44 314.78c4.66-2.97 9.13-6.3 14.01-8.86 25-13.14 47.2-29.96 66.25-50.77 8.61-9.41 16.44-19.53 24.63-29.33-.28-.44-.55-.87-.83-1.31-7.47 1.63-14.98 3.11-22.41 4.91-7.73 1.87-15.39 4.03-23.06 6.11-5.54 1.5-17.37-4.29-19.31-9.51-1.49-4.02-.32-5.71 3.91-6.11 21.34-2.05 42.68-4.21 64.02-6.25 3.74-.36 6.61-1.67 8.28-5.24 3.36-7.19 6.87-14.32 10.21-21.53.59-1.27.62-2.79 1.23-5.72-11.91 3-22.75 5.79-33.62 8.45-3.74.92-7.7 4.88-11.34.3-3.85-4.84-9.33-8.82-6.29-16.91 2.27-6.02 1.15-12.54-3.52-17.77-.44-.5-.96-.97-1.24-1.55-1.09-2.29-2.1-4.61-3.15-6.92 2.68-.25 5.73-1.42 7.98-.56 4.97 1.92 9.52 4.91 14.29 7.36.74.38 1.93.6 2.61.27 10.89-5.22 21.89-10.26 32.49-16.03 2.73-1.49 4.78-5.11 6-8.21 1.14-2.87 2.99-3.5 4.88-2.47 5.05 2.74 10.27 5.5 14.55 9.25 4 3.5 2.5 6.67-2.64 8.08-15.52 4.25-30.92 8.9-46.49 12.95-11.42 2.97-11.51 2.66-11.48 14.44v5.87c10.11.76 19.47-1.13 27.88-5.29 9.96-4.92 18.11-1.45 26.1 3.56 6.69 4.2 7.01 9.35 2.31 15.7-4.14 5.58-7.98 11.39-11.95 17.1.19.48.39.96.58 1.45 19.82-2.78 39.63-5.55 60.98-8.54-11.99-11.31-20.12-24.64-35.74-29.65.26-.7.52-1.4.77-2.09 4.21 0 8.76-1.02 12.57.22 6.9 2.25 13.35.97 20-.22 6.69-1.2 13.36-2.59 20.1-3.47 12.11-1.59 15.13-11.59 18.78-20.55 2.05-5.03-.2-7.67-5.55-6.7-14.02 2.56-28.07 5.25-41.79 9.05-6.88 1.9-12.32.55-17.85-2.71-1.19-.7-1.75-2.46-2.59-3.73 1.24-.65 2.41-1.61 3.74-1.9 15.54-3.41 31.12-6.65 46.66-10.09 4.98-1.1 9.83-3.61 14.81-3.83 11.3-.5 20.93 4.31 29.54 11.41 3.01 2.48 2.86 4.47-.15 6.68-3.74 2.76-7.63 5.37-11.07 8.48-3.4 3.07-6.31 6.69-9.13 9.74 2.96 3.39 5.41 6.19 8.76 10.03-20.32 2.58-38.8 4.94-58.09 7.39 4.86 6 9.33 11.92 14.31 17.37 1.31 1.43 4.37 2.27 6.36 1.92 15.67-2.78 31.22-6.23 46.91-8.86 11.54-1.93 28.38 2.45 32.3 17.46-23.54.37-46.86.74-70.19 1.1-.19.64-.37 1.28-.56 1.92 7.3 6.13 14.43 12.48 21.94 18.34 27.41 21.38 57.23 38.02 91.31 46.35 3.62.88 6.9 3.12 10.34 4.73-.09.73-.19 1.46-.28 2.2-2.69.88-5.37 2.49-8.08 2.53-20.09.26-40.18.5-60.26-.03-3.31-.09-7.14-3.41-9.67-6.2-15.9-17.49-31.5-35.25-47.2-52.92-3.65-4.11-7.12-8.39-10.98-12.29-1.16-1.18-3.44-2.02-5.08-1.85-23.12 2.45-46.22 5.2-69.34 7.6-4.24.44-6.36 2.83-8.49 5.91-19.11 27.48-41.92 51.28-70.16 69.51-14.27 9.21-29.1 17.43-45.68 21.85-1.95.52-4.06.42-6.1.61-.35-.75-.69-1.49-1.03-2.23z" fill="#010106"/><path d="m147.56 124.71c-2.06 3.07-3.71 8.23-6.28 8.75-4.52.91-6.72-4.09-8.2-7.96-5.45-14.24-10.61-28.58-16.02-42.83-3.03-7.97-8.15-14.38-15.01-19.51-1.66-1.24-2.51-3.55-3.73-5.36 1.79-1.06 3.47-2.7 5.39-3.05 3.56-.64 7.4-1.28 10.86-.59 9.86 1.97 19.46.82 29.07-1.25 26.25-5.65 52.49-11.34 78.74-17.03 1.3-.28 2.61-.6 3.83-1.13 18.47-7.94 33.32 1.46 48.3 10.1 1.11.64 1.98 1.78 2.84 2.79 2.66 3.1 2.62 5.3-.7 8.62-5.32 5.32-10.1 11.39-14.1 17.77-7.58 12.11-14.39 24.7-21.67 37.01-1.15 1.95-2.88 3.69-4.67 5.12-6.78 5.39-10.06 4.8-15.07-2.15-.67-.93-2.41-1.78-3.49-1.61-23.6 3.66-47.19 7.47-70.77 11.26-.15.02-.28.18-.42.27.36.27.73.53 1.1.78zm77.55-19.99c6.34-12.74 13.14-25.15 15.74-39.23.64-3.5.73-7.29.11-10.77-.79-4.4-3.37-7.38-8.65-6.69-5.1.67-10.29.72-15.36 1.55-18.82 3.07-37.62 6.25-56.4 9.58-10.68 1.89-21.29 4.16-32.33 6.33 2.64 6.83 5.02 12.98 7.38 19.08.88-.06 1.39-.02 1.85-.14 18.12-4.71 36.16-9.79 54.41-13.94 5.91-1.34 12.43-.71 18.54.04 2.05.25 3.72 3.66 5.56 5.63-2.24 1.74-4.26 4.51-6.76 5.05-12.31 2.65-24.73 4.83-37.15 6.94-11.53 1.96-23.12 3.61-34.95 5.44 1.66 4.67 3.21 9.03 4.76 13.4 2.8 7.87 2.99 8.07 11.4 6.46 13.84-2.64 27.6-5.73 41.49-8.04 9.75-1.63 19.64-3.39 30.36-.69z" fill="#010106"/><path d="m177.64 274.11c11.62-.46 19.64 5.19 26.81 12.33.76.76.3 3.61-.51 4.91-2.38 3.79-5.23 7.27-7.87 10.89-1.14 1.56-2.21 3.16-3.74 5.34 13.09 3.24 25.44 6.25 37.76 9.36 9 2.27 18.04 4.44 26.94 7.06 7.81 2.3 14.7 6.23 18.82 13.73.79 1.44 1.56 2.96 1.97 4.54 1.78 6.72-1.72 10.66-8.24 8.24-11.17-4.15-22.07-9.09-32.91-14.05-15.55-7.11-30.95-14.54-46.41-21.84-2-.95-3.58-1.62-5.58.6-18.05 20.02-41.32 30.77-67.04 36.79-7.17 1.68-14.63 2.12-21.96 3.13-.3-.79-.59-1.57-.89-2.36 2.77-1.63 5.4-3.58 8.34-4.84 8.99-3.85 18.31-7 27.13-11.2 16.22-7.72 30.79-17.8 42.18-31.97 6.12-7.61 10.2-15.63 5.63-25.64-.57-1.25-.28-2.91-.43-5.02z" fill="#010106"/><path d="m186.9 250.53c11.61 2.22 22.35 4.17 33.05 6.37 5.19 1.07 10.33 2.44 15.39 3.98 10.52 3.21 17.12 10.48 20.41 20.79 1.81 5.65-.69 8.94-6.46 7.3-7.09-2.01-13.99-5.09-20.52-8.56-15.09-8.02-29.92-16.55-45.17-25.06-15.65 20.66-36.14 34.53-61.46 40.9-.39-.5-.78-1-1.16-1.5 3.99-3.34 7.87-6.81 11.97-10 12.23-9.52 24.23-19.3 33.61-31.78 6.45-8.58 12.14-17.53 9.85-29.25-.18-.94 3.2-3.8 3.89-3.49 5.55 2.52 11.18 5.11 16.12 8.62 4.3 3.05 3.9 6.1.35 10.06-3.27 3.67-6.37 7.49-9.87 11.62z" fill="#010106"/><g fill="#fafbfa"><path d="m12.4 4.8-7.1 9h6v1.2h-8v-.5l6.1-8.9h-4.7v-1.2h7.6v.4z"/><path d="m14 14v-9.6h3c1.6 0 2.9.5 4 1.4s1.6 2.2 1.6 3.8-.5 3-1.6 3.9-2.4 1.5-4 1.5h-3zm1.4-8.4v8.2h1.6c1.3 0 2.4-.4 3.1-1.1s1.1-1.8 1.1-3.1-.4-2.3-1.2-3-1.8-1-3.1-1z"/><path d="m26.1 4.4v10.6h-1.4v-10.6z"/><path d="m36.1 14.6c-.8.4-1.8.6-2.9.6-1.5 0-2.7-.5-3.6-1.4s-1.4-2.2-1.4-3.8c0-1.7.5-3.1 1.5-4.1s2.3-1.6 3.9-1.6c1 0 1.8.1 2.5.4v1.4c-.8-.4-1.6-.6-2.5-.6-1.2 0-2.1.4-2.9 1.2s-1.1 1.8-1.1 3.2c0 1.3.3 2.3 1 3s1.6 1.1 2.7 1.1c1 0 2-.2 2.7-.7v1.3z"/><path d="m37.6 14.3c0-.2.1-.5.3-.6s.4-.3.6-.3c.3 0 .5.1.6.3s.3.4.3.6-.1.4-.3.6-.4.3-.6.3c-.3 0-.5-.1-.6-.3s-.3-.4-.3-.6z"/><path d="m50.2 15h-1.6l-5.3-8.2c-.2-.2-.3-.5-.4-.7 0 .2.1.7.1 1.5v7.4h-1.4v-10.6h1.7l5.2 8.1c.2.4.4.6.4.7 0-.3-.1-.8-.1-1.5v-7.3h1.4z"/><path d="m58.6 15h-5.7v-10.6h5.5v1.2h-4.1v3.4h3.8v1.2h-3.8v3.6h4.3z"/><path d="m67.1 5.6h-3.1v9.4h-1.4v-9.4h-3v-1.2h7.5z"/></g></svg>