<svg enable-background="new 0 0 400 400" viewBox="0 0 400 400" xmlns="http://www.w3.org/2000/svg"><path d="m2.6 9.9.8-1c.9.7 1.9 1.4 2.9 2.3l-.9 1.1c-1.1-1-2-1.8-2.8-2.4zm.5 10.6c.9-2.1 1.6-4.3 2.3-6.7.4.2.8.4 1.3.6-.7 2.1-1.5 4.3-2.2 6.6zm.3-15.2.9-.9c1 .8 2 1.6 2.8 2.4l-1 1c-.9-.9-1.8-1.7-2.7-2.5zm12.6-1.2h1.2v1.4h2.7v1.1h-2.7v2.7h-1.2v-.6h-1.8v1.3h4.9v3.8h-1.2v-.5h-3.7c0 .4-.1.9-.1 1.2h5.1v1h-5.2c0 .5-.1.9-.2 1.2h6v1h-5.2c1.1 1.3 2.9 2 5.5 2.2-.4.4-.7.8-.9 1.3-2.9-.5-4.8-1.6-5.7-3.5h-.1c-.8 1.7-2.7 2.9-5.9 3.5-.2-.4-.6-.8-.9-1.1 2.8-.6 4.6-1.4 5.4-2.5h-4.8v-1h5.3c.1-.3.2-.7.2-1.2h-4.9v-1h5c0-.4 0-.8.1-1.2h-3.6v.5h-1.2v-3.7h4.9v-1.3h-1.8v.5h-1.2v-2.7h-2.7v-1h2.7v-1.4h1.2v1.4h4.8zm-6.7 8.3h3.6c0-.4 0-.9 0-1.4h-3.6zm1.9-4.6h4.8v-1.3h-4.7v1.3zm6.7 3.2h-3.7v1.4h3.7z" fill="#fbfafc"/><path d="m8.7 22.1h1.3v2.2h2.8v-2.2h1.3v2.2h4.1v9.1h1.7v1.3h-17v-1.3h1.7v-9.1h4.1zm.3 13.1.7 1.2c-1.8.9-3.8 1.9-6 2.9-.2-.4-.5-.8-.8-1.3 2.3-1 4.4-1.9 6.1-2.8zm-3.1-6.4h2.8v-3.2h-2.8zm0 4.6h2.8v-3.3h-2.8zm4.1-4.6h2.8v-3.2h-2.8zm0 4.6h2.8v-3.3h-2.8zm3.6 1.9c2.1.9 4.1 1.8 6.1 2.7l-.7 1.4c-2.2-1.1-4.2-2-6.1-2.9zm3.2-9.7h-2.8v3.2h2.8zm-2.7 7.8h2.8v-3.3h-2.8z" fill="#fbfafc"/><g fill="#010104"><path d="m212.72 170.06c-7.5 2.69-13.57 4.89-19.64 7.05-9.16 3.26-23.14-.86-28.82-9.22 3.12-.69 5.85-1.67 8.63-1.85 13.36-.87 26.25-3.8 38.8-8.38 2.61-.95 3.94-2.27 4.27-5.28 2.46-22.46 5.2-44.88 7.67-67.33.49-4.45.48-9 .21-13.48-.31-5.14-2.53-9.41-6.43-13.06-1.8-1.68-2.38-4.67-3.51-7.07 2.48-.95 4.94-2.58 7.45-2.65 2.68-.07 5.47 1.13 8.08 2.13 8.96 3.42 16.98 8.35 23.7 15.27 2.83 2.92 3.43 5.61 1.26 9.72-8.06 15.26-12.05 31.9-15.23 48.74-1.75 9.26-3.49 18.51-5.52 29.23 14.16-5.96 27.39-11.07 40.16-17.14 5.11-2.43 9.57-3.98 14.43-.76 6.49 4.29 12.85 8.8 19.09 13.45 2.8 2.09 3.09 5.26.02 7.08-16.39 9.76-20.02 26.49-23.96 43.07-1.44 6.07-2.59 12.2-4.09 19.33 7.69-2.58 14.77-4.78 21.72-7.33 8.5-3.12 17.12-6.51 26.13-3.49 4.66 1.56 9.03 4.73 12.78 8.02 2.87 2.52 1.67 4.4-2.23 5.07-18.97 3.23-37.93 6.51-56.86 9.91-1.31.23-3.31 1.48-3.46 2.49-1.92 12.62-4.08 25.25-5.08 37.96-.7 8.86 1.28 17.58 6.98 24.93 5.84 7.53 14.09 10.42 23.11 11.18 7.27.61 14.63 1.04 21.89.56 12.61-.83 21.39-8.17 25.21-19.67 3.52-10.59 4.83-21.92 7.16-32.91.42-1.99 1.05-3.93 1.58-5.9.63-.06 1.26-.12 1.89-.19.69 2.28 1.69 4.52 2.02 6.86 1.73 12.16 3.14 24.36 5.01 36.5.52 3.37 2.07 6.62 3.46 9.79 3.72 8.53 2.44 13.25-5.34 18.17-9.16 5.79-19.61 7.7-30.02 7.92-13.75.29-27.75.4-41.25-1.81-20.6-3.38-33.25-18.89-36.15-39.8-2.05-14.74-.13-29.15 1.79-43.65.3-2.27.45-4.56.71-7.29-7.32 2.02-14.42 3.5-21.17 5.96-10.8 3.94-20.53 2.46-29.66-4.54-4.19 9.02-7.97 17.85-12.32 26.38-8.75 17.17-19.03 33.39-34.72 45.09-6.7 4.99-14.59 8.43-22.1 12.27-1.83.93-4.27.67-6.86.33 46.21-39.87 64.17-94.06 79.21-151.66zm-2.2 64.92c16.29-3.77 31.37-7.52 46.59-10.63 4.23-.87 5.2-2.97 5.76-6.52 1.8-11.44 3.81-22.85 5.69-34.29 1.18-7.19 2.6-14.35 3.28-21.59.45-4.75-1.5-5.94-6.07-4.77-10.09 2.57-20.11 5.41-30.28 7.61-3.92.85-5.52 2.79-6.47 6.33-3.55 13.27-7.19 26.52-10.98 39.72-2.23 7.76-4.79 15.42-7.52 24.14z"/><path d="m128 146.59c4.8-1.95 9.55-3.75 14.18-5.79 7.29-3.22 14.84-4.24 22.27-1.33 2.65 1.03 5.57 3.95 6.33 6.59 1.11 3.83-2.79 5.11-5.85 6.02-11.76 3.46-23.55 6.82-35.32 10.23-1.09.32-2.16.71-3.55 1.18-.68 11.48-1.35 22.88-2.03 34.39 6.37.74 12.03.9 17.43 2.15 8.87 2.06 14.55 7.85 16.24 16.91.46 2.49.07 5.32-.63 7.8-1 3.58-3.74 5.48-7.26 3.5-4.58-2.59-8.99-5.58-13.11-8.85-4-3.17-7.55-6.92-12.3-11.33 0 3.09.01 5.01 0 6.93-.11 34.16.02 68.32-.52 102.47-.13 8.19-2.35 16.37-3.89 24.5-.42 2.21-1.64 4.37-2.87 6.32-3.02 4.76-6.89 5.27-10.52.91-5.29-6.35-6.66-14.27-7.78-22.22-1.35-9.6 3.18-18.21 4.32-27.36 2.42-19.61 4.79-39.22 6.71-58.88 1.1-11.24 1.3-22.57 1.84-33.86.13-2.79.02-5.6-.82-8.85-1.11 1.87-2.24 3.73-3.33 5.61-15.18 26.07-30.94 51.74-52.86 72.89-7.52 7.26-15.27 14.41-25.8 17.29-.44.12-.94.02-2.82.02 1.92-2.96 3.16-5.53 4.98-7.58 24.05-27.2 44.73-56.65 59.8-89.8 3.96-8.71 7.27-17.73 11.47-28.06-8.95 2.34-16.45 4.15-23.86 6.28-11.73 3.37-22.94 3.7-32.96-4.65-.69-.58-1.19-1.38-2.3-2.7 8.63-1.52 16.62-2.58 24.44-4.37 13.57-3.1 27.04-6.68 40.56-9.98 2.65-.65 3.71-1.89 3.7-4.8-.13-20.83.07-41.66-.16-62.48-.06-5.61-.94-11.27-1.98-16.8-1.12-5.96-3.11-11.6-9.27-14.53-1.14-.54-2.04-1.7-2.88-2.72-2.53-3.07-1.81-5.29 2.25-5.64 13.29-1.13 25.1 2.79 34.61 12.13 1.88 1.85 2.84 6.51 1.93 9.05-6.75 18.8-7.66 38.35-8.34 57.95-.25 7.03-.05 14.11-.05 21.46z"/></g></svg>