<svg enable-background="new 0 0 400 400" viewBox="0 0 400 400" xmlns="http://www.w3.org/2000/svg"><path d="m99.5 201.35c-13.92 3.49-26.83 6.49-39.59 10.01-8.45 2.33-15.41-.76-21.98-5.18-1.85-1.24-3.52-4.23-3.51-6.41.02-3.55 3.38-4.42 6.51-4.73 10.25-1.02 20.55-1.69 30.74-3.14 11.16-1.59 22.19-4.07 33.33-5.8 3.59-.56 3.55-2.26 3.43-5.12-.53-12.36-1.63-24.53-8.11-35.52-.55-.93-.51-2.21-.74-3.34-4.87.31-8.14 1.89-8.72 7.45-.28 2.7-2.26 5.22-3.48 7.82-.75.04-1.5.08-2.26.13-1.38-3.51-3.15-6.93-4.06-10.56-4.27-16.87-7.85-33.94-12.64-50.66-1.96-6.84-6.14-13.12-9.76-19.4-2.44-4.24-2.36-6.17 2.39-6.18 6.31-.01 12.61 1.64 18.93 2.5 2.21.3 4.71 1.12 6.63.43 16.53-5.95 32.94-12.25 49.45-18.26 2.01-.73 4.59-1.02 6.59-.43 5.87 1.74 11.79 3.58 17.26 6.24 3.47 1.68 6.6 4.55 9.14 7.52 4.11 4.81 3.41 6.52-.18 11.79-7.65 11.24-14.88 22.77-22.21 34.22-.87 1.37-1.31 3.01-1.94 4.48 3.73 2.08 7.32 3.82 10.59 6.04 1.29.87 2.8 3.07 2.5 4.19-.33 1.22-2.57 2.44-4.14 2.71-10.3 1.78-20.65 3.27-30.97 4.94-4.24.68-8.45 1.55-14.24 2.63 4.31 1.43 7.33 2.28 10.23 3.42 6.97 2.72 7.74 5.01 6.24 12.1-1.83 8.69-2.93 17.53-4.59 27.81 9.99-2.13 18.51-4.02 27.07-5.74 4.7-.94 9.43-1.81 14.2-2.29 3.27-.33 6.54.47 7.41 4.32 1.01 4.45-2.99 4.86-5.56 5.52-12.51 3.25-25.07 6.28-37.68 9.1-3.46.78-5.02 1.92-4.83 5.8.36 7.12.1 14.26.1 21.62 7.5.51 14.58.95 21.66 1.47 14 1.03 22.98 10.47 23.44 24.6.23 7.14-2.13 8.99-8.13 5.33-10.05-6.13-19.71-12.88-29.46-19.48-2.31-1.56-4.31-3.56-7.51-6.24v6.25c0 28 .26 56-.18 83.99-.11 7.18-2.1 14.41-3.9 21.44-.61 2.37-3 5.31-5.15 5.9-1.48.4-4.69-2.38-5.84-4.45-6.09-10.95-9.97-22.15-5.21-35.05 4.32-11.7 6.42-23.91 6.3-36.6-.14-13.95.94-27.91 1.47-41.86.07-1.72.01-3.45.01-5.7-7.78 12.43-14.69 24.36-22.48 35.69-14.43 20.97-32.72 38.06-54.38 51.45-3.08 1.9-6.63 3.03-10.7 3.63 32.6-32.2 60.47-67.35 78.51-110.4zm-9.03-70.23c7.48-1.47 14.63-2.75 21.72-4.31 6.79-1.5 13.55-3.22 20.26-5.05 1-.27 2.24-1.61 2.43-2.63 2.09-11.56 4.67-23.09 5.76-34.75 1.03-11.02-.89-11.38-11.77-9.83-8.17 1.17-16.21 3.22-24.33 4.82-6.44 1.27-12.9 2.43-19.86 3.74 1.94 16.16 3.84 31.9 5.79 48.01z" fill="#010106"/><path d="m242.27 176.75c-24.5 3.17-24.5 3.17-31.31-.81 2.62-1.18 4.5-2.32 6.55-2.88 7.02-1.94 14.09-3.74 21.17-5.44 2.87-.69 4.2-2.01 3.95-5.15-.72-9.28-.92-18.61-1.96-27.84-.5-4.45-2.42-8.75-3.66-12.98-11.22 1.47-22.84 2.99-34.36 4.49 5.39 17.72 1.95 36.21.53 54.65-1.68 21.9-5.33 43.49-11.12 64.68-7.57 27.73-18.56 53.82-38.86 74.85-5.95 6.17-13.2 11.11-20.03 16.39-1.48 1.14-3.71 1.32-5.59 1.95-.3-.45-.61-.9-.91-1.36.95-1.38 1.7-2.97 2.88-4.11 27.49-26.37 41.37-59.72 49.31-96.08 6.6-30.2 8.65-60.85 7.99-91.68-.2-9.41-.47-19.01-7.32-27.08 4.52-2.22 8.84-2.26 12.41-.25 5.15 2.9 10.23 1.24 15.06.48 10.8-1.71 21.46-4.3 32.12-6.78 1.33-.31 3.29-2.15 3.3-3.29.07-17.47-.02-34.95-.35-52.42-.11-5.94-3.18-10.66-7.44-14.77-1.36-1.31-1.78-3.59-2.63-5.43 1.91-.67 4.11-2.31 5.69-1.85 7.72 2.28 15.59 4.48 22.8 7.98 5.33 2.59 5.43 6.12 3.53 11.92-1.16 3.55-1.45 7.39-2.32 12.18 4.05-.55 7.36-.55 10.36-1.5 7.09-2.25 14.19-4.6 21.02-7.55 7.69-3.32 15.21-4.68 23.04-.92 1.11.53 2.87 1.75 2.75 2.36-.23 1.26-1.28 2.71-2.41 3.4-12.05 7.31-25.49 10.54-39.26 11.95-5.01.52-10.3-1.63-15.63-2.6-.91 11.54-1.87 23.81-2.92 37.19 10.91-2.97 21.75-5.66 32.41-8.95 3.88-1.19 7.47-3.57 10.93-5.8 3.3-2.13 6.26-2.32 9.79-.56 11.12 5.53 21.14 12.53 30 21.23 3.32 3.26 3.24 6.43-.91 6.75-16.72 1.28-30.84 9.81-46.03 15.36-.43.16-.92.15-2.55.39 1.27-1.92 2.04-3.18 2.91-4.37 3.33-4.56 7.11-8.86 9.88-13.74 1.37-2.42 1.91-6.29.91-8.72-.6-1.45-5.05-2.25-7.51-1.83-13.09 2.2-26.11 4.84-39.14 7.41-5.31 1.05-10.58 2.29-15.98 4.46 2.93.91 5.83 1.97 8.81 2.71 5.72 1.42 8.44 5.55 7.87 11.38-.84 8.51-1.31 17.05-2.04 26.85 3.46-2.08 6.15-3.34 8.41-5.13 7.14-5.64 14.89-6.16 22.98-2.84 1.9.78 3.27 2.85 4.88 4.32-1.56 1.51-2.85 3.78-4.71 4.42-8.61 2.96-17.31 5.71-26.11 8.03-4.35 1.15-6.02 3.19-5.51 7.62.61 5.27.46 10.65 1.3 15.87 1.19 7.37 4.05 9.68 11.46 9.58 6.8-.09 13.61-.5 20.39-1.06 7.25-.61 12.07-4.81 14.17-11.57 2.11-6.78 3.5-13.77 5.52-21.93.91 3.65 1.39 6.39 2.29 8.99 2.43 7.02 4.66 14.16 7.7 20.92 2.63 5.85 2.26 10.34-3.76 12.75-7.32 2.92-15.07 5.42-22.85 6.35-10.32 1.24-20.85 1.04-31.29 1.01-8.81-.03-14.65-5.32-16.76-13.25-2.15-8.08-2.52-16.64-3.64-24.99-.16-1.1-.14-2.23-.2-3.36z" fill="#010106"/><path d="m358.28 267.38c.67 1.7 1.54 3.35 1.97 5.11 2.33 9.49 4.23 19.1 6.95 28.48 1.27 4.37 3.79 8.47 6.24 12.39 3.64 5.8 3.22 12.89-2.78 16-6.66 3.44-14.01 6.04-21.35 7.55-16.3 3.35-32.67 2.69-49.02-.77-12.67-2.68-21.08-12.46-21.29-26.92-.26-17.99-.01-35.99-.12-53.99-.01-2.44-.15-5.29-1.4-7.18-1.12-1.7-3.96-3.43-5.85-3.24-7.56.76-15.04 2.25-22.19 3.42-1.1 27.2-9.37 51.84-29.38 71.72-9.03 8.97-19.98 14.88-31.92 18.95-1.49.51-3.56-.67-5.37-1.07.68-1.91.79-4.51 2.13-5.63 7.65-6.37 16.37-11.62 23.27-18.68 15.83-16.19 23.98-36.16 24.54-58.81.1-4.08-2.73-8.22-4.18-12.34-.57-1.61-1.97-4.12-1.42-4.69 1.32-1.36 3.55-1.89 5.47-2.57.5-.17 1.26.31 1.87.57 15.36 6.54 28.94.88 42.5-5.9 2.44-1.22 6.14-2.09 8.39-1.12 5.87 2.54 11.38 5.99 16.79 9.47 2.81 1.81 2.9 4.35.63 7.24-4.42 5.64-6.69 12.17-6.7 19.4-.03 13.5-.11 27-.05 40.5.06 11.72 3.95 15.98 15.58 15.61 9.91-.31 19.78-1.97 29.69-2.63 5.57-.37 8.13-3.92 9.31-8.33 1.87-7.02 3.23-14.21 4.22-21.4.81-5.91.75-11.94 1.15-17.91.06-.93.52-1.83.8-2.74.52-.18 1.02-.34 1.52-.49z" fill="#010106"/><g fill="#fafbfa"><path d="m12.4 4.8-7.1 9h6v1.2h-8v-.5l6.1-8.9h-4.7v-1.2h7.6v.4z"/><path d="m14 14v-9.6h3c1.6 0 2.9.5 4 1.4s1.6 2.2 1.6 3.8-.5 3-1.6 3.9-2.4 1.5-4 1.5h-3zm1.4-8.4v8.2h1.6c1.3 0 2.4-.4 3.1-1.1s1.1-1.8 1.1-3.1-.4-2.3-1.2-3-1.8-1-3.1-1z"/><path d="m26.1 4.4v10.6h-1.4v-10.6z"/><path d="m36.1 14.6c-.8.4-1.8.6-2.9.6-1.5 0-2.7-.5-3.6-1.4s-1.4-2.2-1.4-3.8c0-1.7.5-3.1 1.5-4.1s2.3-1.6 3.9-1.6c1 0 1.8.1 2.5.4v1.4c-.8-.4-1.6-.6-2.5-.6-1.2 0-2.1.4-2.9 1.2s-1.1 1.8-1.1 3.2c0 1.3.3 2.3 1 3s1.6 1.1 2.7 1.1c1 0 2-.2 2.7-.7v1.3z"/><path d="m37.6 14.3c0-.2.1-.5.3-.6s.4-.3.6-.3c.3 0 .5.1.6.3s.3.4.3.6-.1.4-.3.6-.4.3-.6.3c-.3 0-.5-.1-.6-.3s-.3-.4-.3-.6z"/><path d="m50.2 15h-1.6l-5.3-8.2c-.2-.2-.3-.5-.4-.7 0 .2.1.7.1 1.5v7.4h-1.4v-10.6h1.7l5.2 8.1c.2.4.4.6.4.7 0-.3-.1-.8-.1-1.5v-7.3h1.4z"/><path d="m58.6 15h-5.7v-10.6h5.5v1.2h-4.1v3.4h3.8v1.2h-3.8v3.6h4.3z"/><path d="m67.1 5.6h-3.1v9.4h-1.4v-9.4h-3v-1.2h7.5z"/></g></svg>