<svg enable-background="new 0 0 400 400" viewBox="0 0 400 400" xmlns="http://www.w3.org/2000/svg"><g fill="#010103"><path d="m106.03 340.94c-10.05-4.18-12.69-12.68-15.11-21.45-2.75-9.94 2.08-18.92 3.27-28.36 2.32-18.43 4.85-36.84 6.6-55.33.86-9.06.15-18.26.15-27.94-.88 1.4-1.8 2.76-2.61 4.18-14.26 24.74-31.33 47.16-54.23 64.58-6.73 5.12-14.1 9.39-21.3 13.86-1.14.71-2.92.39-4.4.54.41-1.51.36-3.47 1.31-4.47 3.56-3.73 7.46-7.12 11.2-10.68 29.26-27.88 51.25-60.6 65.46-98.48.22-.59.3-1.24.51-2.1-16.32 1.72-32.2 8.87-48.61 2.23-1.39-.56-2.42-2.01-4.84-4.1 5.5-1.37 9.67-2.44 13.85-3.45 13.52-3.27 27.05-6.52 40.58-9.77 2.21-.53 3.94-1.05 3.78-4.12-.69-12.95-1.12-25.91-1.66-38.87-.03-.64-.23-1.28-.45-2.46-13.21 2.95-26.25 6.02-39.36 8.7-6.29 1.29-12.73 2.46-19.11 2.52-6.21.06-11.26-3.38-16.18-9.75 6.03-1.22 11.03-2.42 16.09-3.21 19.5-3.07 39.02-6.01 59.18-9.1-.45-7.08-.57-13.7-1.35-20.23-1.4-11.69-3.05-23.36-4.92-34.98-.51-3.2-2.34-6.18-3.21-9.35-.48-1.77-.59-3.86-.06-5.55.17-.55 3.2-.84 4.48-.27 7.97 3.6 16.07 7.02 23.61 11.4 5.45 3.16 6.31 8.71 5.05 14.94-2.39 11.87-4.25 23.85-6.29 35.79-.16.93-.02 1.92-.02 4.13 6.66-2.71 13.04-4.57 18.69-7.74 12.02-6.74 23.75-4.33 35.46.16 1.89.72 4.2 3.61 4.09 5.36-.11 1.74-2.78 4.33-4.73 4.78-9.68 2.23-19.49 3.97-29.28 5.7-6.86 1.21-13.81 1.94-20.64 3.28-1.45.28-3.65 2.21-3.68 3.42-.28 12.78-.2 25.58-.19 38.37 0 .43.35.86.43 1.05 7.1-1.51 14.07-2.84 20.96-4.49 7.33-1.76 13.78-.23 20.13 4.96 5.06-6.43 10.15-12.7 15.02-19.14 17.68-23.38 31.28-49.02 42.01-76.22 3.07-7.77 5.24-15.64 2.3-24.22-1.69-4.93 1.82-8.44 6.41-6.64 7.24 2.83 14.42 6 21.19 9.8 5.61 3.14 5.64 5.86 1.56 10.83-1.69 2.06-3.44 4.06-5.13 6.12-.31.38-.48.87-1.08 1.98 5.97 5.69 11.98 11.61 18.19 17.31 27.08 24.83 56.8 45.61 91.64 58.15 8.4 3.02 17.21 4.9 25.83 7.31 1.43.4 3.06.5 4.22 1.29 1.23.83 2.01 2.33 2.99 3.53-1.33.79-2.58 2.04-4 2.28-9.97 1.68-19.94 3.39-29.97 4.61-8.78 1.07-16.49-.3-23.88-6.79-12.86-11.28-27.49-20.53-40.38-31.77-15.67-13.66-30.34-28.47-45.38-42.86-1.53-1.46-2.59-3.4-4.3-5.69-24.34 46.45-53.8 86.56-97.21 114.71.66-8.61 8.85-11.67 13.05-18.61-12.22 3.34-23.83 6.51-35.76 9.77 0 9.68-.11 19.16.15 28.63.03 1.19 1.83 2.84 3.18 3.39 9.99 4.08 20.19 7.68 30.1 11.94 7.39 3.18 10.63 10.12 8.21 17.72-.81 2.54-3.67 4.78-6.11 6.36-2.79 1.81-5.15.03-7.37-2.16-9.68-9.53-19.51-18.9-29.98-28.99v5.98c-.04 29.33.35 58.67-.33 87.98-.26 11.01-2.89 21.97-4.72 32.91-.39 2.3-1.98 4.4-3.1 6.79z"/><path d="m281.61 359.6c-2.28-4.33-4.36-7.45-5.64-10.87-2.21-5.9-4.32-11.89-5.71-18.02-.92-4.05-2.82-4.86-6.52-4.7-20.92.88-41.85 1.57-62.72 2.32-1.15 4.91-1.77 9.01-3.08 12.87-2.05 6.03-6.29 6.94-9.46 1.5-2.81-4.82-4.82-10.65-5.22-16.18-.65-8.91.51-17.93.57-26.91.12-15.47 0-30.94-5.29-45.8-1.44-4.05.51-5.69 4.22-5.81 1.96-.06 4.09.03 5.89.71 10.96 4.13 21.72.54 32.31-1.25 14.68-2.48 29.2-6.01 43.64-9.71 8.21-2.1 15.42-.38 22.59 3.18 1.63.81 3.19 1.8 4.73 2.78 11.07 7.07 11.21 7.16 5.73 18.73-3.7 7.82-2.34 16-2.39 24.08-.07 10.79 1.44 21.8-.2 32.32-1.92 12.31-6.46 24.21-9.99 36.26-.36 1.16-1.56 2.06-3.46 4.5zm-82.41-36.64c15.41-2.56 30.15-4.9 44.84-7.49 10.71-1.89 21.37-4.19 31.06 4.76.44-6.69 1.24-12.65 1.15-18.6-.21-14.43-.26-28.9-1.53-43.25-.67-7.57-4.09-9-11.56-7.91-8.54 1.24-17.1 2.3-25.62 3.66-12.75 2.04-25.46 4.29-38.17 6.45v25.08c13.06-2.67 25.73-5.32 38.43-7.82 4.71-.93 9.48-1.7 14.26-2.17 4.8-.47 7.9 2.35 9.68 6.45 1.33 3.06.71 5.55-3.3 6.08-11.84 1.59-23.67 3.32-35.52 4.85-7.87 1.02-15.77 1.79-23.72 2.69z"/><path d="m178.89 238.72c-1.66-8.58-3.31-17.16-4.97-25.73-2.81-14.48-5.5-28.98-8.54-43.41-.86-4.08.33-5.69 4.27-5.73.5 0 1.03-.07 1.49.07 15.31 4.73 29.9-.9 44.48-3.75 24.9-4.87 49.54-11.02 74.31-16.59 1.41-.32 3.08-.66 4.35-.21 11.22 3.96 21.81 8.99 30.11 17.94 2.46 2.65 2.9 4.49.07 7.38-9.43 9.64-15.5 21.47-21.52 33.4-3.64 7.2-8.1 14.11-12.99 20.53-3.79 4.97-7.04 4.32-10-1.72-1.8-3.66-4.04-4.01-7.5-3.55-17.27 2.33-34.58 4.34-51.84 6.77-10.02 1.41-19.99 3.28-29.92 5.29-1.71.35-3.22 2.3-4.55 3.76-1.79 1.96-3.33 4.16-4.97 6.26-.77-.23-1.52-.47-2.28-.71zm58.51-26.99c10.55-1.82 20.78-3.84 31.1-5.24 4.88-.66 9.93-.11 16.72-.11 2.57-8.93 5.94-19.63 8.6-30.5.99-4.05.6-8.53.34-12.78-.23-3.63-2.25-5.65-6.35-5.15-4.6.57-9.31.43-13.87 1.2-12.22 2.06-24.39 4.43-36.26 6.62 6.23 15.42-1.57 30.18-.28 45.96zm-11.4-43.18c-14.53 2.69-28.11 5.2-41.8 7.74 1.03 14.85 2.01 29.04 3 43.38.94.11 1.6.33 2.19.23 12.08-2.09 24.17-4.12 36.19-6.51 1.22-.24 2.84-2.63 2.86-4.04.07-7.46-.15-14.94-.6-22.39-.34-5.89-1.15-11.76-1.84-18.41z"/><path d="m204.16 131.7c1.68-1.12 2.63-2.12 3.79-2.47 13.3-4.04 26.55-8.32 40.01-11.74 4.28-1.09 9.21-.15 13.74.53 1.62.24 2.95 2.43 4.41 3.73-1.38 1.45-2.52 3.77-4.16 4.2-12.64 3.28-25.38 6.13-38.06 9.24-5.9 1.45-11.68 2.37-17.13-1.34-.66-.45-1.24-1.01-2.6-2.15z"/><path d="m248.83 195.8c5.05-8.71 9.97-17.2 15.35-26.47 5.19-.04 9.71 3.33 13.22 8.62 1.46 2.2 1.6 4.31-.71 5.53-9 4.76-17.77 10.15-27.86 12.32z"/><path d="m212.76 198.08c-1.38 2.27-2.36 5.11-4.36 6.51-.78.55-4.38-1.73-5.75-3.47-2.94-3.74-5.42-7.87-7.78-12.02-1.69-2.98-.28-5.06 3.07-5.16 4.55-.12 14.17 9.25 14.82 14.14z"/></g><path d="m361.2 9.6.8-1c.9.7 1.9 1.4 2.9 2.3l-.9 1.1c-1-1-2-1.8-2.8-2.4zm.5 10.6c.9-2.1 1.6-4.3 2.3-6.7.4.2.8.4 1.3.6-.7 2.1-1.5 4.3-2.2 6.6zm.4-15.2.9-.9c1 .8 2 1.6 2.8 2.4l-1 1c-.9-.9-1.8-1.7-2.7-2.5zm12.5-1.2h1.2v1.4h2.7v1.1h-2.7v2.7h-1.2v-.6h-1.8v1.3h4.9v3.8h-1.2v-.5h-3.7c0 .4-.1.9-.1 1.2h5.1v1h-5.2c0 .5-.1.9-.2 1.2h6v1h-5.2c1.1 1.3 2.9 2 5.5 2.2-.4.4-.7.8-.9 1.3-2.9-.5-4.8-1.6-5.7-3.5h-.1c-.8 1.7-2.7 2.9-5.9 3.6-.2-.4-.6-.8-.9-1.1 2.8-.6 4.6-1.4 5.4-2.5h-4.8v-1h5.3c.1-.3.2-.7.2-1.2h-4.9v-1h5c0-.4 0-.8.1-1.2h-3.5v.5h-1.2v-3.8h4.9v-1.3h-1.8v.5h-1.2v-2.7h-2.7v-1h2.6v-1.4h1.2v1.4h4.7v-1.4zm-6.6 8.3h3.6c0-.4 0-.9 0-1.4h-3.6zm1.9-4.6h4.7v-1.3h-4.7zm6.6 3.2h-3.7v1.4h3.7z" fill="#fbfcfa"/><path d="m385.3 3.8h1.3v2.2h2.8v-2.2h1.3v2.2h4.1v9.1h1.7v1.3h-16.9v-1.3h1.7v-9.1h4.1v-2.2zm.4 13.1.7 1.2c-1.8.9-3.8 1.9-6 2.9-.2-.4-.5-.8-.8-1.3 2.3-1 4.3-1.9 6.1-2.8zm-3.1-6.4h2.8v-3.2h-2.8zm0 4.6h2.8v-3.3h-2.8zm4-4.6h2.8v-3.2h-2.8zm0 4.6h2.8v-3.3h-2.8zm3.7 1.9c2.1.9 4.1 1.8 6.1 2.7l-.7 1.3c-2.2-1.1-4.2-2-6.1-2.9zm3.2-9.7h-2.8v3.2h2.8zm-2.8 7.8h2.8v-3.3h-2.8z" fill="#fbfcfa"/></svg>