<svg enable-background="new 0 0 400 400" viewBox="0 0 400 400" xmlns="http://www.w3.org/2000/svg"><g fill="#010103"><path d="m120.85 178.12c-1.03-28.03-1.83-55.12-3.12-82.2-.49-10.34-1.26-10.3-11.67-8.45-9.23 1.64-18.37 5.36-27.96 2.59-5.56-1.61-11-3.65-16.43-5.65-1.08-.4-1.91-1.5-4.01-3.24 6.09-.45 10.82-.44 15.42-1.19 20.94-3.43 41.88-6.88 62.74-10.72 14.01-2.58 27.81-6.38 41.87-8.52 5.02-.76 10.63 1.44 15.77 2.97 1.82.54 3.05 3.09 4.55 4.72-1.73 1.18-3.31 3.01-5.21 3.42-7.62 1.64-15.33 2.85-23.01 4.21-11.93 2.1-23.86 4.18-35.78 6.31-.6.11-1.15.54-1.77.85 1.51 1.53 2.94 2.9 4.28 4.36 3.01 3.27 3.97 7.1 3.37 11.51-1.37 10.16-3.1 20.32-3.72 30.54-.77 12.78-.56 25.61-.77 38.43-.03 1.64 0 3.28 0 5.54 9.29-1.79 18.01-3.45 26.74-5.14 8.63-1.68 17.23-3.51 25.89-5.03 7.37-1.29 14.4-.31 19.86 5.29 1.62 1.66 3.4 4.85 2.8 6.52-.64 1.79-3.92 3.54-6.17 3.7-9.78.71-19.64.45-29.41 1.26-12.24 1.02-24.43 2.72-36.63 4.18-.95.11-1.85.69-3.03 1.14-.82 35.56-1.63 71.12-2.46 107.32 1.95-.33 4.15-.56 6.28-1.09 21.24-5.31 42.47-10.71 63.73-15.94 1.47-.36 3.24.47 4.87.75-1.02 1.44-1.74 3.7-3.1 4.21-18.33 6.87-36.6 13.93-55.17 20.08-22.5 7.46-45.39 13.75-66.87 24.08-6.11 2.94-12.57 1.42-18.39-1.18-5.88-2.64-11.46-6.03-16.93-9.47-1.55-.98-2.24-3.31-3.33-5.02 1.75-1.06 3.41-2.85 5.27-3.08 12.85-1.59 25.78-2.61 38.62-4.3 10.62-1.39 21.16-3.45 31.28-5.13 0-36.86 0-72.57 0-108.86-6.82 1.47-13.72 3.01-20.66 4.45-12.5 2.59-24.95 5.58-37.55 7.54-10.84 1.69-20.55-1.86-30.4-10 3.57-.82 5.76-1.54 8-1.8 19.44-2.31 38.88-4.5 58.32-6.8 7.57-.94 15.11-2.01 23.89-3.16z"/><path d="m166.19 341.35c2.1-1.82 3.98-4.01 6.33-5.39 26.63-15.56 47.05-36.78 59.75-65.1 8.24-18.36 12.61-37.75 14.57-57.66.71-7.22.56-14.59 0-21.82-.27-3.44-2.52-6.7-3.69-10.1-.5-1.45-1.2-3.46-.59-4.49.65-1.1 2.86-2.06 4.19-1.84 9.88 1.59 18.67 5.74 26.19 12.35 2.45 2.15 2.43 5.26.63 7.7-6.5 8.83-7.23 19.38-9.65 29.52-1.09 4.56.13 7.74 2.3 11.33 14.32 23.78 30.22 46.28 51.69 64.31 13.81 11.6 29.15 20.24 46.7 24.86 2.01.53 3.57 2.8 5.34 4.27-2.13 1.36-4.25 3.86-6.41 3.9-11.81.21-23.64-.15-35.46-.41-2.65-.06-5.29-.63-7.94-.69-11.17-.24-19.32-5.13-24.36-15.21-11.53-23.05-23.13-46.05-34.71-69.08-.34-.68-.75-1.33-1.65-2.9-10.52 52.46-41.01 84.95-91.41 98.42-.6-.65-1.21-1.31-1.82-1.97z"/><path d="m246.73 143.82c17.92-5.67 34.96-11.03 51.96-16.48 1.72-.55 3.48-1.34 4.87-2.46 6.22-5 12.52-4.01 18.39.14 7.71 5.46 15.33 11.11 22.46 17.29 5.32 4.61 4.19 8.54-2.59 10.76-15.52 5.07-29.48 12.95-42.33 22.92-1.75 1.36-3.88 2.22-5.83 3.31-.38-.27-.75-.55-1.13-.82.65-1.9 1.11-3.9 2-5.69 3.32-6.71 6.85-13.31 10.13-20.04 1-2.06 1.88-4.35 2.07-6.6.47-5.65-2.58-7.92-8.04-6.21-12.65 3.95-25.21 8.21-37.95 11.84-5.19 1.48-10.74 1.93-16.16 2.29-2.89.19-4.38.93-5.51 3.71-5.73 14.19-13.78 26.93-24.88 37.57-1.67 1.6-4.14 2.37-6.24 3.52-.47-.46-.94-.93-1.4-1.39.64-1.91 1.04-3.95 1.96-5.71 17.84-34.31 28.66-71.02 37.05-108.55.83-3.7 1.17-7.58 1.21-11.38.06-5.59-1.16-10.72-5.41-15.04-1.48-1.51-1.28-4.67-1.84-7.08 2.27-.45 4.89-1.86 6.77-1.19 8.59 3.04 17.1 6.4 25.4 10.17 4.89 2.22 5.17 5.59 3.16 10.28-6 13.99-11.9 28.03-17.31 42.25-3.9 10.18-6.92 20.71-10.81 32.59z"/><path d="m164.95 255.54c0 2.54.38 5.24-.14 7.75-.32 1.51-1.88 3.55-3.2 3.83-1.15.24-3.65-1.41-4-2.66-1.82-6.48-3.62-13.04-4.52-19.69-1.37-10.13-2.81-20.1-9.13-28.61-1.83-2.46-1.26-4.05 1.88-4.35 1.82-.17 3.73-.43 5.47-.05 12.47 2.67 24.02.78 34.68-6.39 1.11-.75 3.02-1.4 4.09-.96 7.01 2.9 14.04 5.83 20.76 9.33 3.54 1.84 3.5 4.97 0 6.94-8.06 4.54-10.54 12.55-13.19 20.38-.41 1.22 1.6 3.34 2.62 4.95 1.09 1.73 2.34 3.37 3.53 5.05-1.86.79-3.67 2.11-5.57 2.27-10.91.87-21.83 1.47-33.28 2.21zm-3.84-34.79c1.3 8.87 2.63 17.95 3.96 27.02 5.48-.77 10.43-1.22 15.25-2.28 1.71-.38 4.2-2.08 4.42-3.48 1.29-8.23 2.01-16.54 3.01-25.68-9.74 1.61-18.1 3-26.64 4.42z"/><path d="m67.66 268.04c-.49 5.24-.95 10.03-1.48 15.71-6.79-3.09-7.49-8.37-8.21-13.24-1.03-6.88-1.18-13.88-2.09-20.78-.95-7.28-2.26-14.52-8.57-19.53-.7-.56-1.03-1.59-2.29-3.65 4.42 0 7.85-.09 11.27.02 12.9.41 24.68-2.45 34.76-11.06 1.34-1.15 4.28-1.84 5.76-1.16 5.06 2.32 9.96 5.1 14.61 8.18 3.63 2.41 3.14 5.01.37 8.65-4.36 5.71-7.73 12.2-11.23 18.53-1.73 3.13-1.66 6.2 2.07 8.39 1.07.63 1.5 2.34 2.22 3.55-1.29.58-2.52 1.5-3.87 1.7-11.13 1.64-22.27 3.15-33.32 4.69zm-.04-8.95c5.66-.76 11.39-1.45 17.07-2.37.86-.14 2.07-1.25 2.23-2.08 1.41-7.11 2.77-14.25 3.72-21.43.15-1.14-2.06-3.8-2.76-3.66-7.86 1.56-15.63 3.53-23.28 5.35 1.01 8.06 1.99 15.91 3.02 24.19z"/><path d="m163.31 154.54c-4.02-4.87-6.35-9.5-6.73-15.32-.79-12.01-2.82-23.75-9.81-34.07-.47-.69.63-3.56 1.48-3.81 1.78-.53 4.01-.4 5.83.18 12.57 4 23.69.94 34.15-6.38 1.31-.92 3.76-1.55 5.03-.94 6.84 3.27 13.46 6.98 21.08 11.02-2.81 2.59-5.28 3.99-6.45 6.11-3.28 5.91-6.14 12.06-8.83 18.26-.38.87 1.12 2.58 1.82 3.87.98 1.79 2.03 3.55 3.04 5.32-1.8.99-3.5 2.51-5.42 2.89-8.44 1.7-16.95 3.09-25.44 4.57-3.31.58-6.37 1.3-7.2 5.36-.19.95-1.43 1.7-2.55 2.94zm.26-44.18c1.11 9.42 2.11 17.88 3.19 26.98 5.22-.88 10.42-1.64 15.56-2.73.98-.21 2.16-1.64 2.41-2.7 1.42-6.09 2.83-12.21 3.73-18.39.48-3.3-.91-5.97-5.05-5.5-6.55.73-13.08 1.53-19.84 2.34z"/><path d="m113.68 119.96c-1.19 1.56-2.52 3.01-3.51 4.66-3.33 5.5-6.8 10.95-9.69 16.68-1.56 3.09-2.22 6.69 2.4 8.57.92.37 1.46 1.7 2.97 3.57-3.3.99-5.93 2.08-8.67 2.53-7.35 1.22-14.79 1.97-22.1 3.36-1.69.32-3.09 2.39-4.53 3.74-1.35 1.27-2.59 2.66-3.88 3.99-1.12-1.5-2.9-2.87-3.25-4.53-1.69-8.09-2.55-16.38-4.61-24.36-1.32-5.13-4.26-9.85-6.36-14.79-.45-1.05-.94-3.03-.53-3.32 1.15-.81 2.92-1.58 4.17-1.26 8.58 2.13 16.87.49 24.96-2.02 3.17-.98 5.87-3.46 8.79-5.23.94-.57 2.07-1.68 2.86-1.49 7.48 1.82 15.41 2.83 20.98 9.9zm-42.13 31.41c4.6-.87 8.75-1.92 12.97-2.36 3.07-.32 4.53-1.75 4.83-4.57.67-6.23 1.34-12.47 1.71-18.72.05-.82-1.79-2.59-2.54-2.48-6.95 1-13.85 2.32-20.84 3.56 1.27 8.1 2.5 15.89 3.87 24.57z"/></g><path d="m361.2 9.6.8-1c.9.7 1.9 1.4 2.9 2.3l-.9 1.1c-1-1-2-1.8-2.8-2.4zm.5 10.6c.9-2.1 1.6-4.3 2.3-6.7.4.2.8.4 1.3.6-.7 2.1-1.5 4.3-2.2 6.6zm.4-15.2.9-.9c1 .8 2 1.6 2.8 2.4l-1 1c-.9-.9-1.8-1.7-2.7-2.5zm12.5-1.2h1.2v1.4h2.7v1.1h-2.7v2.7h-1.2v-.6h-1.8v1.3h4.9v3.8h-1.2v-.5h-3.7c0 .4-.1.9-.1 1.2h5.1v1h-5.2c0 .5-.1.9-.2 1.2h6v1h-5.2c1.1 1.3 2.9 2 5.5 2.2-.4.4-.7.8-.9 1.3-2.9-.5-4.8-1.6-5.7-3.5h-.1c-.8 1.7-2.7 2.9-5.9 3.6-.2-.4-.6-.8-.9-1.1 2.8-.6 4.6-1.4 5.4-2.5h-4.8v-1h5.3c.1-.3.2-.7.2-1.2h-4.9v-1h5c0-.4 0-.8.1-1.2h-3.5v.5h-1.2v-3.8h4.9v-1.3h-1.8v.5h-1.2v-2.7h-2.7v-1h2.6v-1.4h1.2v1.4h4.7v-1.4zm-6.6 8.3h3.6c0-.4 0-.9 0-1.4h-3.6zm1.9-4.6h4.7v-1.3h-4.7zm6.6 3.2h-3.7v1.4h3.7z" fill="#fbfcfa"/><path d="m385.3 3.8h1.3v2.2h2.8v-2.2h1.3v2.2h4.1v9.1h1.7v1.3h-16.9v-1.3h1.7v-9.1h4.1v-2.2zm.4 13.1.7 1.2c-1.8.9-3.8 1.9-6 2.9-.2-.4-.5-.8-.8-1.3 2.3-1 4.3-1.9 6.1-2.8zm-3.1-6.4h2.8v-3.2h-2.8zm0 4.6h2.8v-3.3h-2.8zm4-4.6h2.8v-3.2h-2.8zm0 4.6h2.8v-3.3h-2.8zm3.7 1.9c2.1.9 4.1 1.8 6.1 2.7l-.7 1.3c-2.2-1.1-4.2-2-6.1-2.9zm3.2-9.7h-2.8v3.2h2.8zm-2.8 7.8h2.8v-3.3h-2.8z" fill="#fbfcfa"/></svg>