<svg enable-background="new 0 0 400 400" viewBox="0 0 400 400" xmlns="http://www.w3.org/2000/svg"><path d="m356.18 242.24c.61 4.89.99 9.83 1.89 14.67 2.34 12.54 4.9 25.05 7.41 37.56.42 2.11 1.22 4.15 1.55 6.26 1.25 8.08-1.54 14.07-8.69 18.49-13.43 8.3-28.21 12.33-43.53 14.88-23.4 3.89-47.02 4.64-70.64 3.79-30.21-1.08-60.48-2.33-89.78-10.88-14.51-4.23-28.36-9.97-37.32-23.17-7.31-10.75-10.34-23.1-10.98-35.79-.69-13.76-.16-27.58-.16-42.69-5.19 1.43-8.98 2.19-12.56 3.51-7.47 2.76-14.96 5.53-22.2 8.83-14.17 6.46-27.1.22-36.2-7.88-.84-.74-1.54-2.47-1.24-3.4.25-.78 2.02-1.45 3.17-1.52 22.33-1.44 43.9-6.91 65.53-12.14 2.28-.55 4.23-1.15 4.36-4.34.6-13.78 1.46-27.56 2.21-41.34.03-.63-.11-1.27-.2-2.15-16.92 4.11-33.75 8.76-49.72-1.75-.05-.55-.11-1.1-.16-1.65 2.75-.52 5.5-1.06 8.26-1.56 13.38-2.39 26.77-4.7 40.12-7.26 1.37-.26 3.47-2.01 3.49-3.11.25-11.78.46-23.58.01-35.34-.24-6.15-1.74-6.34-7.41-4.79-12.63 3.44-25.36 6.56-38.13 9.44-2.53.57-5.43-.52-8.16-.84-.04-.65-.09-1.3-.13-1.94 1.68-.82 3.33-1.73 5.06-2.44 21.42-8.77 42.75-17.88 61-32.39 7.17-5.7 12.86-13.3 19.09-20.14 1.07-1.17 1.69-2.87 2.19-4.43 1.93-6.03 4.24-7.47 10.2-5.29 9.34 3.41 17.56 8.77 24.51 15.87 3.98 4.07 4.03 6.53-2.27 8.42-15.95 4.78-31.22 11.26-45.03 20.86-3.66 2.55-7.77 4.44-12.01 6.83 2.76 2.12 5.48 3.94 7.89 6.09 5.34 4.78 5.77 8.7 3.75 15.49-1.91 6.44-2.79 13.18-4.13 19.79.45.3.91.6 1.36.9 5.24-2.21 10.58-4.22 15.69-6.7 6.13-2.97 12.41-2.65 18.44-.63 2.43.81 4.11 3.89 6.13 5.93-1.81 1.56-3.37 3.84-5.46 4.55-10.82 3.67-21.74 7.09-32.73 10.24-3.51 1.01-4.52 2.65-4.7 6.18-.62 12.61-1.65 25.19-2.5 37.79-.08 1.14.12 2.29.23 4.12 8.47-2.65 16.5-5.94 24.85-7.53 7-1.33 14.4-1.03 21.59-.7 2.02.1 3.91 2.89 5.85 4.44-1.94 1.61-3.64 4.11-5.86 4.69-14.58 3.87-29.25 7.46-43.96 10.8-3.36.76-4.19 2.12-4.16 5.31.13 12.66-.04 25.33.01 37.99.1 23.38 9.58 36.5 32.31 45.74 14.92 6.06 30.75 8.69 46.63 9.69 22.57 1.41 45.22 2.11 67.83 2.01 15.94-.07 31.72-2.59 47.03-7.67 13.23-4.39 22.01-12.82 27.15-25.79 5.06-12.77 7.96-25.97 9.89-39.48.23-1.6.98-3.12 1.49-4.68.63.1 1.24.17 1.85.25z" fill="#010100"/><path d="m272.01 260.93c8.92 1.23 16.44 2.18 23.93 3.34 4.39.68 7.13-.43 7.26-5.38.42-15.45 1.36-30.9 1.17-46.34-.17-13.78-1.54-27.54-2.46-41.31-.31-4.64-.66-9.3-1.36-13.9-1.2-7.9-3.88-10.51-11.87-10.2-10.09.39-20.15 1.6-30.42 2.47v26.48c8.62-.02 17.93-3.87 25.96 3.01-6.24 10.22-17.64 6.2-25.98 10.74v26.1c3.54-1.22 6.86-3.22 10.24-3.32 5.49-.16 11.05.7 16.49 1.67 1.24.22 2.73 2.53 2.91 4.02.12.96-1.78 2.87-3.06 3.18-7.06 1.7-14.16 3.45-21.35 4.35-5.2.64-6.07 3.17-6.49 7.78-1.32 14.69-2.97 29.36-5.05 43.96-.65 4.53-1.95 9.47-6.83 12.38-3.99-3.43-4.08-8.1-4.06-12.39.04-14.31.52-28.61.82-42.92.03-1.65 0-3.3 0-4.87-11.17-.93-22.15-1.84-33.74-2.8-.36 10.82-.23 22.42-1.31 33.89-.69 7.32-2.37 14.79-5.06 21.62-2.85 7.25-7.71 7.13-11.5.25-4.19-7.61-4.15-15.81-2.89-24.24 2.39-15.9 4.72-31.82 6.47-47.8 1.12-10.22 1.5-20.56 1.62-30.86.11-9.32-.55-18.65-6.13-26.79-.77-1.13-1.67-3.39-1.19-3.91.91-.98 2.87-1.68 4.23-1.47 15.28 2.33 30.01-1.46 44.87-3.82 1.46-.23 2.89-.61 4.75-1.01.49-9.18.97-18.23 1.49-28.14-12.11 2.37-23.75 4.07-35.05 7.04-11.04 2.9-21.27 1.8-31.4-2.87-1.21-.56-2.4-1.17-3.53-1.87-.53-.33-.91-.91-2.17-2.23 2.42-.87 4.2-1.91 6.07-2.12 20.63-2.32 41.27-4.54 61.92-6.71 2.62-.28 4.29-.84 4.34-4.07.24-16.64.12-33.25-3.7-49.58-1.23-5.24-3.02-10.13-7.95-13.34-1.15-.75-1.91-3.19-1.64-4.63.18-.99 2.54-2.39 3.76-2.24 9.89 1.21 19.84 2.38 28.37 8.3 4.74 3.28 4.73 4.85 2.82 10.36-1.83 5.27-3.03 10.89-3.65 16.44-1.27 11.35-1.96 22.77-2.97 35.12 8.47-1.39 16.07-2.56 23.65-3.9 11.6-2.04 23.12-4.63 34.78-6.13 7.79-1 15.67.34 22.6 4.46 2.69 1.6 4.76 4.24 7.11 6.4-.2.53-.4 1.07-.61 1.6-28.88 2.74-57.76 5.48-87.02 8.25-.51 9.34-.98 17.9-1.48 27.07 9.47-2.3 18.28-4.35 27.04-6.6 4.63-1.19 9.17-2.76 13.78-4.05 1.24-.35 2.84-.8 3.88-.32 7.97 3.65 16.07 7.11 23.65 11.47 4.87 2.8 4.66 6.35.58 10.42-6.46 6.45-8.72 14.65-8.36 23.27.53 12.43 2.14 24.81 3.06 37.23 1.07 14.42 2.05 28.86 2.73 43.3.3 6.41.49 12.99-.56 19.27-1.57 9.37-7.79 16.34-14.27 22.92-1.85 1.88-3.45 1.66-4.83-.58-7.62-12.39-17.64-22.45-29.51-30.78-1.11-.81-1.6-2.55-2.9-4.67zm-30.4-41.77c0-9.45 0-18.03 0-25.59-10.83-.83-21.26-1.63-32.12-2.46-.43 9.47-.9 19.82-1.42 31.16 11.55-1.07 22.4-2.08 33.54-3.11zm-.08-38.69c0-9.12 0-18.16 0-27.61-10.89 1.52-21.33 2.99-31.64 4.43v29c10.85-1.99 21.24-3.9 31.64-5.82z" fill="#010100"/><path d="m323.61 74.65c-.94 1.48-2.09 5.1-4.52 6.48-1.82 1.04-5.87.02-7.91-1.47-8.56-6.26-16.78-12.98-24.99-19.71-1.07-.88-1.34-2.73-1.98-4.13 1.47-.6 3.05-1.91 4.38-1.69 7.82 1.29 15.73 2.43 23.32 4.62 6.62 1.92 11.02 6.65 11.7 15.9z" fill="#010100"/><g fill="#fafafa"><path d="m12.4 4.8-6.1 9h6v1.2h-8v-.5l6.1-8.9h-5.7v-1.2h7.6v.4z"/><path d="m14 15v-10.6h3c1.6 0 2.9.5 4 1.4s1.6 2.2 1.6 3.8-.5 3-1.6 3.9-2.4 1.5-4 1.5zm1.4-9.4v8.2h1.6c1.3 0 2.4-.4 3.1-1.1s1.1-1.8 1.1-3.1-.4-2.3-1.2-3-1.8-1-3.1-1z"/><path d="m26.1 4.4v10.6h-1.4v-10.6z"/><path d="m36.1 14.6c-.8.4-1.8.6-2.9.6-1.5 0-2.7-.5-3.6-1.4s-1.4-2.2-1.4-3.8c0-1.7.5-3.1 1.5-4.1s2.3-1.6 3.9-1.6c1 0 1.8.1 2.5.4v1.4c-.8-.4-1.6-.6-2.5-.6-1.2 0-2.1.4-2.9 1.2s-1.1 1.8-1.1 3.2c0 1.3.3 2.3 1 3s1.6 1.1 2.7 1.1c1 0 2-.2 2.7-.7v1.3z"/><path d="m37.6 14.3c0-.2.1-.5.3-.6s.4-.3.6-.3c.3 0 .5.1.6.3s.3.4.3.6-.1.4-.3.6-.4.3-.6.3c-.3 0-.5-.1-.6-.3s-.3-.4-.3-.6z"/><path d="m50.2 15h-1.6l-5.3-8.2c-.2-.2-.3-.5-.4-.7 0 .2.1.7.1 1.5v7.4h-1.4v-10.6h1.7l5.2 8.1c.2.4.4.6.4.7 0-.3-.1-.8-.1-1.5v-7.3h1.4z"/><path d="m58.6 15h-5.7v-10.6h5.5v1.2h-4.1v3.4h3.8v1.2h-3.8v3.6h4.3z"/><path d="m67.1 5.6h-3.1v9.4h-1.4v-9.4h-3v-1.2h7.5z"/></g></svg>