<svg enable-background="new 0 0 400 400" viewBox="0 0 400 400" xmlns="http://www.w3.org/2000/svg"><g fill="#010100"><path d="m209.48 78.33c-12.37 1.44-24.18 2.82-34.54 4.02-.24 4.92-.07 8.94-.69 12.83-1.82 11.45-3.51 22.96-6.08 34.25-4.19 18.39-15.12 31.88-31.74 40.76-3.52 1.88-7.07 3.71-10.61 5.56-.5-.58-.99-1.16-1.49-1.74 1.19-1.71 2.08-3.76 3.6-5.08 18.03-15.72 25.6-36.41 27.86-59.41.8-8.13.13-16.39.13-25.52-13.66 3.19-26.42 6-39.09 9.18-8.02 2.01-15.86 4.78-23.89 6.76-2.92.72-6.32.78-9.22.05-8.58-2.15-16.18-6.16-22.06-13.24 6.21-5.29 13.28-3.89 19.7-4.69 23.24-2.89 46.56-5.11 69.81-7.99 25.7-3.18 51.38-6.61 77.02-10.28 20.05-2.87 39.99-6.46 60.04-9.3 6.49-.92 13.2-.97 19.74-.52 7.1.48 12.24 4.73 15.92 10.76 3.63 5.97 2.09 9.09-4.84 9.35-6.32.23-12.66.16-18.98.33-21.29.56-42.57 1.14-63.85 1.8-3.44.11-6.86.65-9.21.89.31 4.68.83 9.01.85 13.33.06 11.07-.57 22.17-.07 33.21.65 14.2.09 27.91-8.4 40.12-4.25 6.12-7.34 6.56-11.81.31-5.62-7.87-13.36-14.23-20.07-21.34-1.12-1.19-1.69-2.89-2.52-4.35 1.6-.3 3.22-.94 4.8-.84 4.96.29 9.91 1.06 14.87 1.23 3.2.11 5.02-1.36 5.07-5.19.17-14.47.8-28.94 1.01-43.42.07-3.72-.77-7.48-1.26-11.83z"/><path d="m184.28 179.16c-40.76 49.55-92.66 81.65-152.97 100.92-2.88.92-6.01 1.06-9.19 1.58-.75-5.18 2.66-6.21 5.29-7.62 15.96-8.58 32.16-16.71 47.91-25.66 25.96-14.76 50.62-31.46 72.18-52.3 9.92-9.59 17.82-20.64 20.84-34.5.28-1.29.41-2.63.45-3.95.18-6.05 2.55-7.97 8.54-6.38 7.23 1.92 12.29 6.88 17.08 12.53-2.04 2.71-3.9 5.19-6.24 8.3 7.83 5.15 15.18 10.23 22.76 14.94 41.81 25.97 87.04 43.22 135.33 52.51 8.79 1.69 17.71 2.73 26.5 4.42 2.29.44 4.32 2.23 6.47 3.41-2.08 1.64-3.95 4.16-6.29 4.74-7.06 1.75-14.32 2.69-21.48 4.07-8.63 1.66-17.2 3.73-25.88 5.11-13.19 2.1-25.3 1.63-37.11-7.42-19.65-15.04-40.87-28.01-61.09-42.32-14.52-10.3-28.49-21.37-43.1-32.38z"/><path d="m177.11 212.74c6.72-1.91 12.86.11 18.65 4.03 4.83 3.27 4.7 7.47 4.01 13.01-1.3 10.49-1.4 21.21-1.09 31.81.56 19.44 2.32 38.86 2.55 58.3.17 14.92-6.41 27.96-14.63 40.12-2.08 3.07-4.59 3.09-7.03.48-1.35-1.44-2.58-3.07-3.54-4.79-6.1-10.89-13.53-20.57-24.19-27.43-.84-.54-1.72-1.01-2.58-1.51.23-.44.47-.88.7-1.32 3.46 0 6.93-.16 10.38.05 2.95.18 5.93 1.37 8.81 1.1 6.87-.65 12.13-3.84 12.9-11.4 1.11-10.89 2.63-21.81 2.64-32.71.01-16.93-.67-33.89-1.97-50.76-.49-6.23-3.55-12.28-5.61-18.98z"/><path d="m238.01 234.85c10.29 1.56 19.13 4.59 25 13.32 3.87 5.75 3.27 6.52-2.44 10.32-11.87 7.9-23.36 16.37-36.29 25.52 9.37 2.21 17.17 3.93 24.9 5.9 11.23 2.87 22.45 5.78 33.59 8.95 12.16 3.45 19.77 11.52 23.52 23.59 1.17 3.75.61 7.25-2.26 8.86-2.47 1.38-6.74 1.83-9.17.61-22.4-11.22-44.59-22.86-66.79-34.46-7.07-3.69-13.99-7.66-20.96-11.53-.83-.46-1.54-1.13-2.3-1.7.01-.56.01-1.12.02-1.68 2.46-.13 5.11-.91 7.33-.24 3.09.93 5.11.35 6.9-2.09 5.49-7.48 11.41-14.7 16.36-22.52 3.5-5.53 4.9-11.95 2.63-18.64-.37-1.14-.04-2.54-.04-4.21z"/><path d="m86.62 266.98c2.27-.43 4.24-1 6.23-1.14 14.6-.99 29.18-2.21 42.84-7.98 4.38-1.85 8.62-4.36 12.41-7.23 3.66-2.78 7.6-3.84 11.01-1.33 5.39 3.98 10.22 8.79 14.89 13.63.71.74-.13 4.58-1.25 5.21-9.9 5.57-15.95 15.01-23.53 22.86-17.55 18.16-36.29 34.74-59.34 45.73-4.34 2.07-8.8 3.91-13.32 5.53-2.01.72-4.31.64-6.47.92-.27-.53-.54-1.06-.81-1.59 2.09-1.91 4.03-4.04 6.3-5.7 10.74-7.83 21.97-15.05 32.27-23.41 14.82-12.02 27.47-26.13 36.68-43.04.54-1 1-2.04 1.9-3.89-2.03.43-3.38.59-4.64 1.01-9.89 3.36-19.79 6.7-29.64 10.18-7.79 2.76-20.7-1.79-25.53-9.76z"/><path d="m248.45 115.4c1.57-.62 2.58-1.34 3.62-1.38 13.64-.59 27.16-.19 40.34 4.14 8.74 2.87 12.85 9.1 13.63 17.71.48 5.31 2.55 12.51-2.92 15.04-3.51 1.62-9.85-1.1-14.17-3.33-14.73-7.61-27.13-18.46-39-29.9-.44-.44-.71-1.07-1.5-2.28z"/><path d="m167.04 24.27c11.68-2.31 22.21-3.07 32.81.52 15.05 5.1 14.78 22 10.05 31.06-1.98 3.8-5.67 4.15-9.09 2.78-3.15-1.27-6.39-3.05-8.73-5.44-7.77-7.94-15.17-16.22-22.64-24.45-.92-1.02-1.35-2.48-2.4-4.47z"/><path d="m112.59 113.51c5.73 6.99 6.95 15.89 5.18 25.02-2.52 12.96-8.94 24.22-17.67 34.05-1.57 1.77-4.64 3.74-6.49 3.32-1.8-.41-3.6-3.59-4.22-5.88-2.68-9.76-1.36-18.4 5.25-26.97 6.89-8.92 11.86-19.32 17.95-29.54z"/></g><path d="m12.4 4.8-6.1 9h6v1.2h-8v-.5l6.1-8.9h-5.7v-1.2h7.6v.4z" fill="#fafafa"/><path d="m14 15v-10.6h3c1.6 0 2.9.5 4 1.4s1.6 2.2 1.6 3.8-.5 3-1.6 3.9-2.4 1.5-4 1.5zm1.4-9.4v8.2h1.6c1.3 0 2.4-.4 3.1-1.1s1.1-1.8 1.1-3.1-.4-2.3-1.2-3-1.8-1-3.1-1z" fill="#fafafa"/><path d="m26.1 4.4v10.6h-1.4v-10.6z" fill="#fafafa"/><path d="m36.1 14.6c-.8.4-1.8.6-2.9.6-1.5 0-2.7-.5-3.6-1.4s-1.4-2.2-1.4-3.8c0-1.7.5-3.1 1.5-4.1s2.3-1.6 3.9-1.6c1 0 1.8.1 2.5.4v1.4c-.8-.4-1.6-.6-2.5-.6-1.2 0-2.1.4-2.9 1.2s-1.1 1.8-1.1 3.2c0 1.3.3 2.3 1 3s1.6 1.1 2.7 1.1c1 0 2-.2 2.7-.7v1.3z" fill="#fafafa"/><path d="m37.6 14.3c0-.2.1-.5.3-.6s.4-.3.6-.3c.3 0 .5.1.6.3s.3.4.3.6-.1.4-.3.6-.4.3-.6.3c-.3 0-.5-.1-.6-.3s-.3-.4-.3-.6z" fill="#fafafa"/><path d="m50.2 15h-1.6l-5.3-8.2c-.2-.2-.3-.5-.4-.7 0 .2.1.7.1 1.5v7.4h-1.4v-10.6h1.7l5.2 8.1c.2.4.4.6.4.7 0-.3-.1-.8-.1-1.5v-7.3h1.4z" fill="#fafafa"/><path d="m58.6 15h-5.7v-10.6h5.5v1.2h-4.1v3.4h3.8v1.2h-3.8v3.6h4.3z" fill="#fafafa"/><path d="m67.1 5.6h-3.1v9.4h-1.4v-9.4h-3v-1.2h7.5z" fill="#fafafa"/></svg>