<svg enable-background="new 0 0 400 400" viewBox="0 0 400 400" xmlns="http://www.w3.org/2000/svg"><path d="m233.41 157.86c-11.53 1.39-22.52 2.8-33.53 3.99-6.73.73-13.19.18-19.19-6.5 3.97-.97 6.84-1.8 9.77-2.37 13.34-2.59 26.71-5.03 40.01-7.78 1.23-.25 2.92-2.25 2.97-3.51.3-6.64.14-13.3.14-19.95-8.83.49-17.37 1.65-25.83 1.23-8.17-.41-17.17.93-23.97-5.33.05-.5.1-.99.15-1.49 7.17-.74 14.35-1.37 21.49-2.26 6.91-.86 13.81-1.88 20.68-3.05 3.15-.54 5.28-1.85 4.62-6.02-.96-6.04-1.29-12.19-1.6-18.31-.23-4.49-2.44-5.03-6.24-4.17-11.86 2.67-23.73 2.61-35.52-.46-2.18-.57-4.22-1.62-6.33-2.46-.07-.5-.14-.99-.21-1.49 2.15-.7 4.25-1.66 6.45-2.05 28.78-5.06 57.58-9.96 86.34-15.07 8.27-1.47 16.41-3.79 24.7-5.06 3.09-.47 6.59.59 9.67 1.64 1.59.54 3.69 2.59 3.69 3.96 0 1.5-1.87 3.85-3.41 4.35-5.47 1.78-11.1 3.22-16.76 4.28-15.15 2.83-30.36 5.4-46.57 8.25 1.73 1.3 2.67 2.03 3.63 2.73 4.57 3.36 5.89 7.21 4.32 12.68-.59 2.07-1.31 4.12-1.72 6.22-.37 1.91-.39 3.88-.63 6.58 7.17-2.02 13.77-4.05 20.46-5.71 4.8-1.19 9.72-1.96 14.61-2.74 1.25-.2 2.63.19 3.91.48 3.53.82 6.88 2.86 6.1 6.56-.43 2.05-3.87 4.33-6.35 4.95-9.5 2.39-19.15 4.16-28.75 6.16-3.24.68-6.48 1.36-9.79 2.05v21.57c10.54-2.2 20.69-4.59 30.94-6.29 3.4-.56 7.24.19 10.6 1.24 3.27 1.02 5.81 3.46 4.87 7.59-.83 3.67-3.22 5.63-6.93 6.12-9.05 1.2-18.1 2.4-27.15 3.68-4.56.64-9.1 1.44-13.9 2.21-.48 8.98-.93 17.56-1.43 26.78 12.71-2.68 24.57-5.71 36.62-7.53 7.61-1.15 15.54-1.08 23.22-.4 3.63.32 7.42 2.87 10.4 5.31 3.55 2.91 2.66 6.85-1.57 8.65-2.39 1.02-5.07 1.81-7.65 1.92-31.93 1.31-63.59 4.69-95 10.7-20.53 3.93-25.53 3.38-44.41-1.25-.9 4.72-1.54 9.51-2.77 14.13-1.25 4.68-3.01 5.14-7.16 2.57-6.89-4.27-11.09-13.1-9.7-20.77 2.83-15.67 6.44-31.23 8.42-47.01 1.99-15.86 1.54-31.9-1.38-47.73-.29-1.58-1.09-3.06-1.88-5.21-15.01 15.03-30.45 28.57-48.71 38.32-.47-.49-.93-.97-1.4-1.46 1.48-1.79 2.82-3.73 4.46-5.36 15.4-15.28 30.14-31.13 41.57-49.69 7.22-11.72 13.13-24.01 12.1-38.38-.2-2.8-.93-5.56-1.26-8.35-.48-4.07 1.59-6.32 5.5-5.63 8.76 1.53 17.08 4.45 23.96 10.33 2.36 2.02 3.64 4.49 1.29 7.8-7.3 10.27-14.36 20.71-21.55 31.07-2.65 3.83-6.94 7.34-7.63 11.47-.65 3.86 3.17 8.25 3.81 12.58 1.69 11.3 3.67 22.7 3.79 34.07.17 17.62-1.12 35.25-1.77 52.87-.08 2.12-.01 4.25-.01 7.06 8.28-.51 16.07-.64 23.76-1.54 10.88-1.27 21.69-3.18 32.55-4.66 3.76-.51 5.69-1.62 5.78-6.14.21-7.05 1.51-14.08 2.31-20.97z" fill="#010100"/><path d="m100.73 333.63c38.89-5.23 76.04-14.74 106.66-42.1-17.8-16.02-36.43-29.71-60.13-35.01.01-.6.02-1.19.03-1.79 3.36-.71 6.71-1.98 10.08-2.05 17.68-.37 32.68 6.6 45.85 17.84 4.29 3.66 7.97 8.02 11.9 12.02 10.56-8.17 27.3-38.75 26.26-49.02-9.51 1.02-19.06 1.84-28.55 3.12-14.62 1.98-29.15 4.88-43.82 6.14-5.16.44-10.71-2.58-15.92-4.47-1.36-.49-2.12-2.67-3.15-4.08 1.53-1.07 2.96-2.85 4.61-3.08 7.07-.98 14.21-1.53 21.32-2.18 21.74-1.98 43.14-5.71 63.84-12.81 4.35-1.49 8.36-1.78 12.48.37 6.47 3.36 13.4 6.03 19.34 10.15 7.32 5.08 5.91 10.01-1.04 15.42-6.15 4.79-11.59 11.02-15.87 17.58-8.01 12.28-15.49 24.85-27.4 34.8 40.15 30.02 83.85 48.71 135.28 46.65-1.83 7.61-7.07 9.07-11.98 9.71-22.62 2.93-45.35 4.57-68.18 3.15-7.27-.45-13.56-2.91-18.96-8.55-12.79-13.33-26.17-26.1-39.33-39.07-1.17-1.15-2.49-2.16-3.92-3.38-14.82 10.22-30.46 18.56-47.4 24.35-15.78 5.4-31.94 8.94-48.62 9.79-6.26.32-12.54.18-18.81.02-1.49-.04-2.95-.96-4.42-1.48-.03-.68-.09-1.36-.15-2.04z" fill="#010100"/><path d="m110.84 187.87c-1.52 5.36-2.84 10.79-4.59 16.07-11.63 35.11-23.31 70.19-35.09 105.25-1.25 3.73-2.83 7.48-5 10.73-2.35 3.52-5.79 3.28-8.09-.31-7.08-11.07-11.17-23.3-12.9-36.25-.44-3.31.57-6.29 4.9-8.03 4.01-1.61 8.16-4.85 10.41-8.51 14.34-23.34 28.15-47.01 42.19-70.54 1.91-3.19 4.09-6.22 6.14-9.33.67.3 1.35.61 2.03.92z" fill="#010100"/><path d="m111.34 89.67c.13 6.55-2.42 10.07-6.89 12.53-4.07 2.24-7.18-.1-9.98-2.26-10.79-8.32-17.58-19.81-23.97-31.5-1.6-2.93.01-5.41 3.42-5.48 2.76-.06 5.74.26 8.27 1.29 7.07 2.87 14.31 5.6 20.8 9.51 6.07 3.65 7.44 10.57 8.35 15.91z" fill="#010100"/><path d="m45.31 138.91c9.17 4.15 22.23 5.36 28.32 18.01 1.11 2.31 1.67 5.12 1.65 7.68-.09 8.72-9.32 13.77-16.52 8.97-10.86-7.24-16.22-18.63-21.49-29.93-1.4-2.98 1.31-4.96 8.04-4.73z" fill="#010100"/><path d="m223.32 23.8c3.08 0 6.4-.75 9.19.14 8.77 2.79 17.57 5.7 25.92 9.52 5.47 2.5 7.58 10.19 5.81 16-2.46 8.03-10.19 10.92-16.25 5.18-6.96-6.6-12.93-14.25-19.25-21.52-2.06-2.36-3.85-4.95-5.77-7.44.12-.63.24-1.26.35-1.88z" fill="#010100"/><g fill="#fafafa"><path d="m12.4 4.8-6.1 9h6v1.2h-8v-.5l6.1-8.9h-5.7v-1.2h7.6v.4z"/><path d="m14 15v-10.6h3c1.6 0 2.9.5 4 1.4s1.6 2.2 1.6 3.8-.5 3-1.6 3.9-2.4 1.5-4 1.5zm1.4-9.4v8.2h1.6c1.3 0 2.4-.4 3.1-1.1s1.1-1.8 1.1-3.1-.4-2.3-1.2-3-1.8-1-3.1-1z"/><path d="m26.1 4.4v10.6h-1.4v-10.6z"/><path d="m36.1 14.6c-.8.4-1.8.6-2.9.6-1.5 0-2.7-.5-3.6-1.4s-1.4-2.2-1.4-3.8c0-1.7.5-3.1 1.5-4.1s2.3-1.6 3.9-1.6c1 0 1.8.1 2.5.4v1.4c-.8-.4-1.6-.6-2.5-.6-1.2 0-2.1.4-2.9 1.2s-1.1 1.8-1.1 3.2c0 1.3.3 2.3 1 3s1.6 1.1 2.7 1.1c1 0 2-.2 2.7-.7v1.3z"/><path d="m37.6 14.3c0-.2.1-.5.3-.6s.4-.3.6-.3c.3 0 .5.1.6.3s.3.4.3.6-.1.4-.3.6-.4.3-.6.3c-.3 0-.5-.1-.6-.3s-.3-.4-.3-.6z"/><path d="m50.2 15h-1.6l-5.3-8.2c-.2-.2-.3-.5-.4-.7 0 .2.1.7.1 1.5v7.4h-1.4v-10.6h1.7l5.2 8.1c.2.4.4.6.4.7 0-.3-.1-.8-.1-1.5v-7.3h1.4z"/><path d="m58.6 15h-5.7v-10.6h5.5v1.2h-4.1v3.4h3.8v1.2h-3.8v3.6h4.3z"/><path d="m67.1 5.6h-3.1v9.4h-1.4v-9.4h-3v-1.2h7.5z"/></g></svg>