<svg enable-background="new 0 0 400 400" viewBox="0 0 400 400" xmlns="http://www.w3.org/2000/svg"><path d="m2.6 9.9.8-1c.9.7 1.9 1.4 2.9 2.3l-.9 1.1c-1.1-1-2-1.8-2.8-2.4zm.5 10.6c.9-2.1 1.6-4.3 2.3-6.7.4.2.8.4 1.3.6-.7 2.1-1.5 4.3-2.2 6.6zm.3-15.2.9-.9c1 .8 2 1.6 2.8 2.4l-1 1c-.9-.9-1.8-1.7-2.7-2.5zm12.6-1.2h1.2v1.4h2.7v1.1h-2.7v2.7h-1.2v-.6h-1.8v1.3h4.9v3.8h-1.2v-.5h-3.7c0 .4-.1.9-.1 1.2h5.1v1h-5.2c0 .5-.1.9-.2 1.2h6v1h-5.2c1.1 1.3 2.9 2 5.5 2.2-.4.4-.7.8-.9 1.3-2.9-.5-4.8-1.6-5.7-3.5h-.1c-.8 1.7-2.7 2.9-5.9 3.5-.2-.4-.6-.8-.9-1.1 2.8-.6 4.6-1.4 5.4-2.5h-4.8v-1h5.3c.1-.3.2-.7.2-1.2h-4.9v-1h5c0-.4 0-.8.1-1.2h-3.6v.5h-1.2v-3.7h4.9v-1.3h-1.8v.5h-1.2v-2.7h-2.7v-1h2.7v-1.4h1.2v1.4h4.8zm-6.7 8.3h3.6c0-.4 0-.9 0-1.4h-3.6zm1.9-4.6h4.8v-1.3h-4.7v1.3zm6.7 3.2h-3.7v1.4h3.7z" fill="#fbfafc"/><path d="m8.7 22.1h1.3v2.2h2.8v-2.2h1.3v2.2h4.1v9.1h1.7v1.3h-17v-1.3h1.7v-9.1h4.1zm.3 13.1.7 1.2c-1.8.9-3.8 1.9-6 2.9-.2-.4-.5-.8-.8-1.3 2.3-1 4.4-1.9 6.1-2.8zm-3.1-6.4h2.8v-3.2h-2.8zm0 4.6h2.8v-3.3h-2.8zm4.1-4.6h2.8v-3.2h-2.8zm0 4.6h2.8v-3.3h-2.8zm3.6 1.9c2.1.9 4.1 1.8 6.1 2.7l-.7 1.4c-2.2-1.1-4.2-2-6.1-2.9zm3.2-9.7h-2.8v3.2h2.8zm-2.7 7.8h2.8v-3.3h-2.8z" fill="#fbfafc"/><g fill="#010104"><path d="m92.46 213.23c-4.57 18.74-10.52 36.26-19.1 52.83-10.7 20.65-24.59 38.75-42.46 53.69-2.2 1.84-5.14 2.97-7.91 3.92-3.03 1.04-3.57-.95-2.74-3.28.48-1.36 1.48-2.61 2.48-3.69 26.97-29.15 42.01-64.26 51.15-102.3 5.92-24.65 8.58-49.72 9.12-75.04.37-17.81.84-35.61.92-53.42.05-14.93-2.92-29.4-7.57-43.54-.7-2.14-1.1-4.38-1.63-6.56 11.2-2.84 27.23 2.76 32.61 11.46 1.04 1.68.78 4.49.4 6.65-3.99 22.61-6.31 45.38-6.54 68.35-.01.65.09 1.3.18 2.46.89-.46 1.74-.63 2.13-1.14 7.66-10.01 15.57-19.86 22.71-30.23 2.29-3.33 2.6-8.06 3.66-12.19.81-3.16 2.26-3.92 5.39-2.55 7.73 3.39 13.25 11.86 12.66 20.35-.09 1.33-.88 2.93-1.86 3.84-3.17 2.93-6.4 5.86-9.94 8.3-10.82 7.46-21.89 14.56-32.62 22.15-1.95 1.38-3.66 4.29-3.93 6.68-2.34 20.29-4.25 40.63-6.48 60.93-.37 3.39.32 5.28 3.57 6.96 8.11 4.18 15.82 9.12 23.91 13.36 7.87 4.13 9.9 21.73 5.7 28.63-2.71 4.46-6.13 2.16-8.23-.17-6.09-6.78-12-13.78-17.36-21.14-3.24-4.49-5.31-9.79-8.22-15.31z"/><path d="m244.39 85.56c7.85 7 15.39 13.73 23.51 20.98 15.1-12.97 31.3-25.11 33.7-47.42 9.95-1.6 18.99 3.27 28.45 15.7-21.9 8.54-40.92 21.6-60.21 36.23 9.1 7.31 17.55 14.52 26.43 21.17 21.33 15.96 44.22 28.93 70.42 35.19 4.18 1 8.45 1.66 12.55 2.92 1.19.37 1.91 2.29 2.84 3.49-1.14.75-2.24 2.08-3.43 2.15-18.4 1.17-36.81 2.22-55.23 3.18-5.7.3-10.09-1.57-14.13-6.33-18.2-21.44-36.46-42.86-55.61-63.44-7.94-8.53-18.17-14.92-27.29-22.37-1.03-.84-2.45-2.45-2.22-3.31.29-1.11 1.98-2.37 3.23-2.59 2.41-.42 5.14-.76 7.38-.04 3.37 1.09 4.76-.38 6.38-2.84 5.72-8.67 10.5-17.61 11.93-28.18 1.29-9.49 3.85-10.71 12.91-7.26 1.85.7 3.7 1.57 5.32 2.69 9.14 6.33 9.05 9.06-.16 14.78-10.61 6.58-19.16 15.38-26.77 25.3z"/><path d="m299.6 239.52c-.14.72-.08 1.16-.27 1.35-10.57 10.56-12.47 25.39-18.76 38.05-1.03 2.07-1.84 4.24-2.8 6.48 7.12 4.15 14.25 8.04 21.11 12.34 12.19 7.64 21.78 17.36 24.59 32.26.66 3.47 1.16 6.95-2.23 8.9-3.58 2.06-7.24 1.54-10.54-1.44-12.35-11.14-24.79-22.19-37.24-33.21-1.73-1.53-3.75-2.73-5.9-4.26-10.12 9.37-21.59 16.45-34.96 19.37-9.5 2.08-19.33 2.71-29.04 3.7-1.83.19-3.8-.99-5.7-1.54-.02-.6-.03-1.2-.05-1.8 2.71-.93 5.37-2.03 8.12-2.77 14.53-3.9 28.54-8.96 40.67-18.17 2.75-2.08 5.2-4.55 8.3-7.3-8.64-5.61-16.72-10.8-24.74-16.09-2.76-1.82-5.48-3.75-8.01-5.87-.71-.59-1.2-2.25-.87-3.06.31-.76 1.86-1.53 2.78-1.43 2.45.27 4.94.74 7.24 1.59 10.09 3.71 20.13 7.58 30.68 11.58 4.04-10.65 8.77-21 7.54-33.32-9.76 2.31-18.85 4.77-28.07 6.49-4.1.77-8.51.28-12.73-.16-1.16-.12-2.13-2.13-3.19-3.27 1.19-.94 2.29-2.54 3.6-2.73 13.58-1.96 25.78-7.08 37.3-14.5 2.7-1.74 7.32-1.18 10.93-.71 8.3 1.08 16.07 3.73 22.24 9.52z"/><path d="m179.5 167.68c8.71-2.23 17.49-4.57 26.31-6.68 3.65-.88 14.24 5.76 14.34 9.29.06 2-1.53 4.23-2.81 6.05-3.16 4.46-6.88 8.55-9.71 13.2-.96 1.59-.63 4.77.33 6.57 3.15 5.91 2.3 8.87-4.36 10.55-9.65 2.44-19.38 4.59-29.12 6.65-3.37.71-5.25 1.76-5.78 5.76-1.13 8.49-3.12 16.86-4.95 26.32 4.11-1.53 7.78-2.07 10.36-4.04 4.17-3.18 8.02-2.58 12.09-.68 4.42 2.07 8.72 4.42 12.08 6.15-2.23 12.25-3.92 23.2-6.27 34.02-2.69 12.37-6.18 24.68-14 34.85-3.81 4.95-9.45 8.55-14.49 12.46-.83.65-3.31.31-4.25-.49-6.55-5.55-12.9-11.35-19.33-17.04-.61-.54-1.44-.85-2.16-1.27.21-.62.42-1.23.63-1.85 5.32.27 10.73.01 15.92.98 5.07.94 8.22-.05 11.21-4.52 6.95-10.4 10.24-21.86 11.35-34.1.34-3.79.75-7.65.37-11.4-.54-5.42-3.14-6.92-7.75-4.12-7.78 4.74-15.18 10.11-22.74 15.2-2.44 1.64-4.67 5.58-7.98 2.2-2.9-2.96-3.01-7.09-.73-10.59 2.16-3.32 4.87-6.31 7.49-9.31 11.39-13.05 13-28.21 9.28-44.32-1.27-5.52-.71-6.9 5.13-6.64 1.96.09 4.12.26 5.82 1.12 8.96 4.54 16.33-1.55 24.08-3.81 4.08-1.19 8.01-18.2 5.73-22.09-.73-1.25-3.05-2.25-4.61-2.21-4.98.15-9.19-1.96-11.48-6.21z"/><path d="m156.1 80.57c3.07-.82 6.14-1.6 9.19-2.48 6.51-1.89 13.55-2.82 19.38-5.97 10.64-5.76 29.16 6.41 31 14.85.38 1.75.25 4.53-.85 5.54-11.24 10.45-14.19 25.34-20.76 38.24-10.84 21.32-22.54 42.06-40.99 57.8-7.13 6.08-15.65 10.52-23.59 15.62-.87.56-2.08.56-4.06-.14 1.48-1.96 2.67-4.25 4.48-5.83 29.14-25.33 46.62-57.56 56.08-94.54 2.39-9.34-1.13-14.11-10.71-15.55-4.74-.72-9.45-1.78-14.1-2.96-1.79-.45-3.4-1.64-5.09-2.5.01-.68.02-1.38.02-2.08z"/><path d="m250 173.66c.54 11.76-.32 23.09-4.77 33.93-3.67 8.95-9.18 16.54-16.29 22.97-1.63 1.47-4.07 2.05-6.14 3.04-.35-.4-.69-.79-1.04-1.19.77-1.72 1.42-3.51 2.33-5.15 6.32-11.5 10.13-23.78 11.64-36.78.75-6.43 0-12.59-3.39-18.3-.84-1.41-1.31-3.04-1.94-4.57-1.27-3.09.3-4.43 3.12-4.59 1.96-.11 4.06-.1 5.9.49 10.01 3.19 18.12-.7 25.87-6.45 1.89-1.4 4.27-3.67 6.07-3.38 5.62.92 11.13 2.73 16.52 4.64.55.2.41 3.52-.05 5.22-2.21 8.13-5.01 16.11-6.87 24.31-1.59 7 .64 9.71 7.8 9.83 5.08.09 10.22-.66 15.25-1.52 4.34-.74 8.27-.68 11.62 2.51 3.53 3.35 3.46 6.94-1.02 8.65-5.81 2.21-12.03 3.66-18.2 4.54-5.56.8-11.3.59-16.95.48-6.96-.13-11.23-4.1-11.45-11.16-.23-7.46 0-14.97.52-22.42.49-7.05-1.08-8.71-8.19-7.29-3.23.65-6.45 1.37-10.34 2.19z"/><path d="m65.36 152.39c-1.97 6.22-3.38 12.71-6.08 18.6-2.61 5.69-6.63 5.92-10.14.63-2.48-3.74-4.03-8.32-5.05-12.75-2.33-10.18-4.09-20.49-6.05-30.75-.22-1.14-.5-2.44-.16-3.46.6-1.79 1.27-4.01 2.65-4.92 1.02-.67 3.8-.11 4.8.89 4.2 4.21 8.27 8.59 11.92 13.28 4.08 5.24 8.29 10.64 6.57 18.16.52.11 1.03.22 1.54.32z"/><path d="m162.9 139.24c-1.99 2.39-3.75 5.95-6.57 7.35-1.66.82-5.71-1.13-7.47-2.99-4.65-4.92-8.67-10.43-12.82-15.8-.59-.76-1-2.45-.57-3.02.67-.89 2.44-1.96 3.2-1.64 7.42 3.11 14.8 6.35 21.98 9.96 1.14.56 1.24 3.2 2.25 6.14z"/></g></svg>