<svg enable-background="new 0 0 400 400" viewBox="0 0 400 400" xmlns="http://www.w3.org/2000/svg"><path d="m2.6 9.9.8-1c.9.7 1.9 1.4 2.9 2.3l-.9 1.1c-1.1-1-2-1.8-2.8-2.4zm.5 10.6c.9-2.1 1.6-4.3 2.3-6.7.4.2.8.4 1.3.6-.7 2.1-1.5 4.3-2.2 6.6zm.3-15.2.9-.9c1 .8 2 1.6 2.8 2.4l-1 1c-.9-.9-1.8-1.7-2.7-2.5zm12.6-1.2h1.2v1.4h2.7v1.1h-2.7v2.7h-1.2v-.6h-1.8v1.3h4.9v3.8h-1.2v-.5h-3.7c0 .4-.1.9-.1 1.2h5.1v1h-5.2c0 .5-.1.9-.2 1.2h6v1h-5.2c1.1 1.3 2.9 2 5.5 2.2-.4.4-.7.8-.9 1.3-2.9-.5-4.8-1.6-5.7-3.5h-.1c-.8 1.7-2.7 2.9-5.9 3.5-.2-.4-.6-.8-.9-1.1 2.8-.6 4.6-1.4 5.4-2.5h-4.8v-1h5.3c.1-.3.2-.7.2-1.2h-4.9v-1h5c0-.4 0-.8.1-1.2h-3.6v.5h-1.2v-3.7h4.9v-1.3h-1.8v.5h-1.2v-2.7h-2.7v-1h2.7v-1.4h1.2v1.4h4.8zm-6.7 8.3h3.6c0-.4 0-.9 0-1.4h-3.6zm1.9-4.6h4.8v-1.3h-4.7v1.3zm6.7 3.2h-3.7v1.4h3.7z" fill="#fbfafc"/><path d="m8.7 22.1h1.3v2.2h2.8v-2.2h1.3v2.2h4.1v9.1h1.7v1.3h-17v-1.3h1.7v-9.1h4.1zm.3 13.1.7 1.2c-1.8.9-3.8 1.9-6 2.9-.2-.4-.5-.8-.8-1.3 2.3-1 4.4-1.9 6.1-2.8zm-3.1-6.4h2.8v-3.2h-2.8zm0 4.6h2.8v-3.3h-2.8zm4.1-4.6h2.8v-3.2h-2.8zm0 4.6h2.8v-3.3h-2.8zm3.6 1.9c2.1.9 4.1 1.8 6.1 2.7l-.7 1.4c-2.2-1.1-4.2-2-6.1-2.9zm3.2-9.7h-2.8v3.2h2.8zm-2.7 7.8h2.8v-3.3h-2.8z" fill="#fbfafc"/><g fill="#010104"><path d="m110.46 134.42c-6.76 6.38-13.11 12.71-19.81 18.63-11.29 9.98-23.65 18.37-37.84 23.71-2.79 1.05-5.94 1.15-8.92 1.68-.3-.57-.6-1.14-.9-1.71 1.84-1.64 3.5-3.56 5.56-4.88 20.9-13.42 36.77-32.06 53.77-51.23-5.96-5.79-11.57-11.61-17.59-16.97-5.34-4.75-11.23-8.87-16.67-13.52-1.69-1.44-2.69-3.67-4.01-5.54 2.59-.3 5.77-1.7 7.68-.7 9.81 5.15 19.42 10.71 28.82 16.58 3.6 2.25 6.45 5.69 10.04 8.95 10.75-15.45 21.86-30.39 25.79-49.1.59-2.79-.14-5.88-.4-8.81-.22-2.46-1.06-4.92-.92-7.34.19-3.48 2.4-5.65 5.7-3.57 8.68 5.46 17.4 10.97 25.48 17.26 4.68 3.64 3.59 6.1-.83 9.98-4.96 4.36-9.76 9.1-13.72 14.36-9.61 12.75-18.76 25.84-27.87 38.95-.97 1.39-1.22 4.13-.54 5.69 9.59 22.19 14.13 45.57 16.91 69.4 2.59 22.18 4.11 44.43 2.8 66.73-1.11 18.91-3.26 37.73-9.87 55.7-3.58 9.73-8.73 18.31-17.9 23.87-3.27 1.98-6.42 2.7-8.31-1.46-5.17-11.37-14.18-19.57-22.73-28.18-3.32-3.34-6.59-6.74-9.89-10.11l.84-1.29c2.01.43 4.01.95 6.04 1.29 8.31 1.41 16.59 3.14 24.96 4 5.27.55 8.91-2.28 10.81-7.66 7.51-21.34 9.38-43.43 9.01-65.8-.24-14.72-1.06-29.43-1.62-44.15-.48-.11-.97-.22-1.45-.32-1.54 2.43-3.09 4.86-4.61 7.3-17.18 27.72-36.5 53.72-61.61 74.87-7.48 6.3-15.73 11.7-23.78 17.3-1.18.82-3.2.45-4.83.63.16-1.78-.3-4.04.61-5.24 2.2-2.88 5.01-5.3 7.65-7.84 33.7-32.51 59.6-70.58 80.03-112.52.84-1.73 1.06-4.15.64-6.04-1.53-6.79-3.45-13.49-5.28-20.21-.26-.87-.78-1.69-1.24-2.69z"/><path d="m215.94 193.39c-1.17 1.6-2.71 3.7-4.25 5.81-2.33-2.12-5.9-3.82-6.76-6.42-2.57-7.83-3.9-16.06-6.05-24.04-4.18-15.51-8.43-31.01-13.02-46.4-.9-3-3.56-5.45-5.22-8.27-.78-1.33-1.83-3.2-1.41-4.33.37-1 2.68-1.92 4.01-1.78 3.43.37 6.76 1.59 10.19 2.03 4.26.54 8.57.78 12.86.83 1.07.01 2.49-.91 3.19-1.83 9.79-12.86 19.14-26.02 25.26-41.11 3.12-7.68 5.01-15.51.99-23.63-.58-1.18-.23-4.14.37-4.34 1.88-.65 4.36-1.09 6.1-.36 7.19 2.99 14.23 6.33 21.22 9.76 2.36 1.16 4.46 2.9 6.55 4.54 4.21 3.29 4.41 5.33.44 8.71-16.32 13.93-32.73 27.75-49.11 41.6-1.2 1.01-2.45 1.97-3.68 2.95.22.54.44 1.08.66 1.63 23.7-5.45 47.42-10.8 71.07-16.46 3.8-.91 7.37-2.98 10.88-4.82 4.13-2.16 8.29-2.62 12.42-.52 9.04 4.6 17.99 9.37 26.94 14.13 1.31.7 2.52 1.62 3.68 2.55 6.57 5.28 6.36 8.73-1.1 12.56-6.68 3.43-10.41 9.23-13.17 15.73-8.29 19.55-18.98 37.67-31.67 54.66-2.59 3.47-5.5 3.17-7.19.15-3.76-6.73-8.64-5-14.57-3.84-19.8 3.92-39.75 7.07-59.63 10.51zm-5.18-46.33c12.72-3.58 24.91-6.76 36.92-10.49 7.94-2.46 15.88-3.82 23.92-1.54 3.03.86 7.7 3.15 7.94 5.21.53 4.51-4.49 5.09-7.92 5.75-19.9 3.82-39.65 9.46-61.24 5.56 1.52 10.99 2.99 21.63 4.47 32.38 6.8-1.38 12.28-2.7 17.83-3.58 16.52-2.61 33.02-5.67 49.65-7.2 5.89-.54 8.81-2.21 10.22-7.33 3.96-14.38 8.14-28.72 11.62-43.22 2.99-12.45-1.86-18.61-14.51-17.38-18.81 1.82-37.52 4.73-56.22 7.49-8.97 1.32-17.84 3.36-26.88 5.1 1.43 10.03 2.79 19.48 4.2 29.25z"/><path d="m254.92 229.73c.83.55 1.69 1.06 2.48 1.66 4.33 3.3 7.08 6.67 5.08 13.03-1.38 4.38-.26 9.54-.26 14.84 16.5-4.01 32.93-8.79 48.74.7.15.64.3 1.28.45 1.91-3.8 1.71-7.44 4.16-11.43 5-11.5 2.43-23.11 4.38-34.74 6.13-3.45.52-5.5 1.3-5.78 5.16-.81 11.05-1.84 22.09-2.87 34.06 9.34-1.02 17.52-1.96 25.72-2.82 20.96-2.18 41.9-4.86 62.91-6.26 10.78-.72 20.02 4.3 26.69 13.17 3.63 4.82 2.72 7.52-3.25 7.74-10.27.39-20.56.03-30.84-.07-16.48-.16-32.95-.68-49.43-.48-16.63.2-33.27.86-49.88 1.71-23.6 1.2-46.93 4.48-69.88 10.22-2.04.51-4.36.8-6.36.36-7.8-1.69-14.04-6.31-20.22-10.97.05-.53.09-1.07.14-1.6 33.08-2.64 66.17-5.28 99.41-7.94 0-13.13 0-25.41 0-38.41-16.54 4.26-32.11 1.3-47.37-4.14-.03-.68-.06-1.35-.09-2.03 6.05-.93 12.11-1.75 18.13-2.8 8.82-1.54 17.63-3.16 26.4-4.98 1.2-.25 3.09-1.86 3.04-2.77-.38-8.27-1.07-16.53-1.76-24.78-.24-2.85-1.8-3.51-4.72-3.48-12.6.16-25.34 1.66-37.6-2.78-2.38-.86-4.66-1.99-6.99-3 .05-.61.09-1.21.14-1.82 5.59-1.08 11.17-2.21 16.76-3.25 26.76-4.93 53.51-9.92 80.3-14.71 8.55-1.53 17.23-1.91 25.48 1.53 2.15.9 3.75 3.09 5.61 4.69-1.89 1.67-3.54 4.31-5.71 4.84-12.87 3.16-25.83 5.99-38.83 8.6-6.14 1.24-12.43 1.76-18.66 2.61-.26.39-.53.76-.81 1.13z"/></g></svg>