<svg enable-background="new 0 0 400 400" viewBox="0 0 400 400" xmlns="http://www.w3.org/2000/svg"><path d="m180.81 225.7c-5.33 10.45-11.23 23.1-18.08 35.21-9.81 17.36-22.41 32.64-37.16 46.06-2.5 2.28-4.99 5.25-9.37 4.67 11.13-16.68 22.5-32.69 32.75-49.39 10.25-16.69 17.54-34.88 24.38-53.91-3.67.43-6.58.77-9.37 1.1-.33.35-.6.55-.75.82-1.04 1.89-2.06 3.8-3.08 5.71-2.03-1.48-4.66-2.56-5.99-4.51-5.81-8.52-6.36-18.65-8.33-28.4-1.8-8.91-4.33-17.7-7.04-26.39-.95-3.05-3.55-5.56-5.13-8.47-.96-1.76-2.43-5.03-1.89-5.48 1.73-1.44 4.4-2.77 6.5-2.51 4.55.56 8.96 2.21 13.46 3.27 1.52.36 3.24.68 4.72.34 8.07-1.85 16.13-3.8 24.11-6.01 1.3-.36 3.09-2.16 3.14-3.35.28-7.63.15-15.27.15-23.46-4.82.5-9.21 1.4-13.59 1.31-7.42-.15-14.84-.72-22.22-1.55-1.93-.22-3.68-2.05-5.51-3.14.13-.52.27-1.04.4-1.57 13.51-2.69 27.03-5.38 40.89-8.14-.57-14.98-.39-29.66-5.5-43.61-1.39-3.79-4.4-6.96-6.23-10.63-1.02-2.04-1.89-4.74-1.33-6.73.29-1.03 4.05-2.01 5.85-1.54 8.3 2.19 16.64 4.45 24.63 7.55 7.89 3.05 8.18 6.02 5 13.52-2.29 5.41-3.38 11.42-4.42 17.26-1.21 6.79-1.8 13.7-2.69 20.85 13.74-3.34 25.97-11.79 40.42-6.92 2.59.87 5.09 2.05 7.63 3.09.15.66.3 1.31.45 1.97-3.3 1.83-6.41 4.36-9.95 5.35-10.86 3.02-21.85 5.57-32.85 8.04-4.09.92-6.05 2.45-5.92 7.16.19 6.76-.66 13.55-1.17 22.09 6.89-2.82 12.57-5.27 18.35-7.44 2.34-.88 5.2-2.13 7.32-1.51 10.85 3.16 21.52 6.83 30.55 14.14 3.49 2.83 3.48 5.24.61 8.21-7.95 8.23-12.28 18.36-15.66 29.1-2.59 8.22-5.33 16.44-8.75 24.34-3.08 7.1-8.53 7.79-15.16 3.92-2.84-1.66-6.82-1.71-10.3-1.83-2.93-.09-5.89.79-9.61 1.35 0 6.19-.12 12.61.15 19.03.03.81 1.97 1.88 3.19 2.24 11.84 3.47 23.55 7.2 33.63 14.7 8.27 6.15 12.59 14.15 10.88 24.6-.36 2.21-1.65 5.27-3.33 5.96-1.47.61-4.59-1.05-6.11-2.58-11.62-11.7-23.03-23.6-34.48-35.46-1-1.04-1.82-2.25-2.72-3.38-.42.2-.83.41-1.25.61v5.21c0 23.83.37 47.67-.19 71.48-.21 9.03-2.17 18.1-4.1 26.98-.82 3.75-3.64 7.06-5.72 10.9-7.21-4.91-10.31-11.2-10.77-17.96-.61-9.18-.16-18.53.82-27.71 1.48-13.83 4.44-27.51 5.57-41.35.93-11.72.17-23.59.17-33.21zm15.52-62.77c8.37-.57 16.55-5.9 24.99.42-6.75 7.63-16.31 7.77-24.78 10.3-.49 7.75-.97 15.3-1.48 23.37 6.58-.8 12.65-1.37 18.64-2.41 1.27-.22 2.58-1.99 3.31-3.34 7.22-13.47 10.76-27.83 9.98-43.16-.28-5.52-2.91-8.32-8.55-8.02-6.73.35-13.43 1.34-19.91 2.03-.78 7.38-1.47 13.91-2.2 20.81zm-39.04 11.31c.94 8.92 1.87 17.83 2.81 26.74 8.23-.95 15.75-1.82 23.33-2.69 0-7.57 0-14.75 0-21.63-8.92-.83-17.41-1.61-26.14-2.42zm-.04-3.35c8.47-1.42 16.46-2.7 24.41-4.18.82-.15 2.02-1.42 2.04-2.2.17-5.72.09-11.45.09-17.32-10.23 1.14-19.6 2.19-29.3 3.27.91 6.73 1.8 13.39 2.76 20.43z" fill="#010106"/><path d="m39.41 77.86c11.22-2.36 34.19 12.79 49.44 31.53 8.27-13.65 16.87-26.82 18.96-42.88.37-2.85-.77-5.86-.96-8.81-.12-1.97-.49-5.12.49-5.71 1.64-.99 4.83-1.26 6.37-.27 5.99 3.85 12.03 7.82 17.22 12.65 8.12 7.55 7.45 7.52.14 15.6-6.33 7.01-11.66 14.93-17.46 22.42-4.28 5.52-8.71 10.93-12.82 16.58-.82 1.12-1.18 3.44-.58 4.59 14.38 27.34 20.21 56.88 21.83 87.31 1.06 19.76 1.32 39.6.81 59.38-.39 15.11-2.43 30.38-9.91 43.85-3.95 7.11-9.99 13.09-15.3 19.41-2.04 2.43-4.72 1.92-6.35-.55-9.34-14.2-23.04-23.75-35.82-35.39 4.22.56 8.43 1.24 12.67 1.65 6.94.66 13.9 1.27 20.86 1.65 4.08.23 6.7-2.47 7.73-5.94 1.59-5.37 2.72-10.91 3.55-16.45 3.75-24.85 6.64-49.79 5.28-75-.41-7.6-1.2-15.17-2.31-23.02-19.24 37.67-39.24 74.6-77.73 97.23-2.14-4.33-.27-6.87 1.94-9.14 30.78-31.59 50.88-69.55 66.52-110.32 3.48-9.07-.91-15.91-3.57-24.27-18.55 22.16-36.08 44.63-64.26 53.77-.5-.54-1.01-1.09-1.51-1.63 1.93-2.13 3.74-4.4 5.82-6.38 17.69-16.74 34.48-34.22 47.98-54.68 2.84-4.31 2.82-7.26-.83-10.65-11.2-10.42-22.33-20.9-33.46-31.39-1.46-1.36-2.73-2.94-4.74-5.14z" fill="#010106"/><path d="m378.29 316.26c-2.73 1.43-4.01 2.69-5.24 2.66-16.58-.46-33.15-.97-49.71-1.79-4.81-.24-8.08-3.15-9.92-7.85-7.75-19.77-15.66-39.48-23.52-59.21-.78-1.95-1.63-3.86-3-7.1-10.88 41.2-30.32 73.41-73.38 84.74 24.35-15.95 41.64-37.63 50.66-65.21 8.71-26.65 15.7-53.76 7.53-82.04 8.98-1.77 21.18 3.97 24.54 11.43.59 1.31.23 3.2-.1 4.74-2.03 9.56-4.2 19.09-6.22 28.65-.22 1.04-.12 2.41.4 3.3 9.03 15.48 17.22 31.56 27.5 46.18 13 18.49 32.41 29.19 52.82 37.99 2.04.87 4.07 1.86 7.64 3.51z" fill="#010106"/><path d="m278.66 147.15c9.77-1.23 18.63-4.85 27.34-8.95 1.35-.64 2.82-1.19 3.95-2.13 9.47-7.88 18.83-6.31 28.08.27 5.13 3.65 10.59 7.01 15 11.41 5 4.98 4.36 7.41-2.18 10.11-12.23 5.04-23.74 11.21-33.97 19.65-2.52 2.08-4.97 4.24-7.46 6.36-.52-.22-1.03-.44-1.55-.67 3.66-11.79 7.31-23.58 11.42-36.83-3.18 1.07-4.7 1.48-6.14 2.09-12 5.06-24.37 8.64-37.37 10.08-1.82.2-3.98 1.97-5.04 3.62-5.88 9.22-11.43 18.64-17.19 27.94-.77 1.24-1.89 2.45-3.14 3.16-1.4.79-3.14.99-4.73 1.45.15-1.66-.2-3.58.52-4.93 15.3-28.87 24.79-59.75 31.66-91.53 2.29-10.57 4.59-21.16 2.04-32.03-.72-3.06-1.85-6.01-2.64-9.06-.51-1.98-.98-4.43 2.23-4.21 10.83.73 21.23 2.63 27.94 12.57 2.54 3.77 3.12 7.42-.16 11.28-5.8 6.83-8.88 14.98-11.7 23.42-5.2 15.58-11.09 30.91-16.91 46.93z" fill="#010106"/><g fill="#fafbfa"><path d="m12.4 4.8-7.1 9h6v1.2h-8v-.5l6.1-8.9h-4.7v-1.2h7.6v.4z"/><path d="m14 14v-9.6h3c1.6 0 2.9.5 4 1.4s1.6 2.2 1.6 3.8-.5 3-1.6 3.9-2.4 1.5-4 1.5h-3zm1.4-8.4v8.2h1.6c1.3 0 2.4-.4 3.1-1.1s1.1-1.8 1.1-3.1-.4-2.3-1.2-3-1.8-1-3.1-1z"/><path d="m26.1 4.4v10.6h-1.4v-10.6z"/><path d="m36.1 14.6c-.8.4-1.8.6-2.9.6-1.5 0-2.7-.5-3.6-1.4s-1.4-2.2-1.4-3.8c0-1.7.5-3.1 1.5-4.1s2.3-1.6 3.9-1.6c1 0 1.8.1 2.5.4v1.4c-.8-.4-1.6-.6-2.5-.6-1.2 0-2.1.4-2.9 1.2s-1.1 1.8-1.1 3.2c0 1.3.3 2.3 1 3s1.6 1.1 2.7 1.1c1 0 2-.2 2.7-.7v1.3z"/><path d="m37.6 14.3c0-.2.1-.5.3-.6s.4-.3.6-.3c.3 0 .5.1.6.3s.3.4.3.6-.1.4-.3.6-.4.3-.6.3c-.3 0-.5-.1-.6-.3s-.3-.4-.3-.6z"/><path d="m50.2 15h-1.6l-5.3-8.2c-.2-.2-.3-.5-.4-.7 0 .2.1.7.1 1.5v7.4h-1.4v-10.6h1.7l5.2 8.1c.2.4.4.6.4.7 0-.3-.1-.8-.1-1.5v-7.3h1.4z"/><path d="m58.6 15h-5.7v-10.6h5.5v1.2h-4.1v3.4h3.8v1.2h-3.8v3.6h4.3z"/><path d="m67.1 5.6h-3.1v9.4h-1.4v-9.4h-3v-1.2h7.5z"/></g></svg>