<svg enable-background="new 0 0 400 400" viewBox="0 0 400 400" xmlns="http://www.w3.org/2000/svg"><path d="m2.6 9.9.8-1c.9.7 1.9 1.4 2.9 2.3l-.9 1.1c-1.1-1-2-1.8-2.8-2.4zm.5 10.6c.9-2.1 1.6-4.3 2.3-6.7.4.2.8.4 1.3.6-.7 2.1-1.5 4.3-2.2 6.6zm.3-15.2.9-.9c1 .8 2 1.6 2.8 2.4l-1 1c-.9-.9-1.8-1.7-2.7-2.5zm12.6-1.2h1.2v1.4h2.7v1.1h-2.7v2.7h-1.2v-.6h-1.8v1.3h4.9v3.8h-1.2v-.5h-3.7c0 .4-.1.9-.1 1.2h5.1v1h-5.2c0 .5-.1.9-.2 1.2h6v1h-5.2c1.1 1.3 2.9 2 5.5 2.2-.4.4-.7.8-.9 1.3-2.9-.5-4.8-1.6-5.7-3.5h-.1c-.8 1.7-2.7 2.9-5.9 3.5-.2-.4-.6-.8-.9-1.1 2.8-.6 4.6-1.4 5.4-2.5h-4.8v-1h5.3c.1-.3.2-.7.2-1.2h-4.9v-1h5c0-.4 0-.8.1-1.2h-3.6v.5h-1.2v-3.7h4.9v-1.3h-1.8v.5h-1.2v-2.7h-2.7v-1h2.7v-1.4h1.2v1.4h4.8zm-6.7 8.3h3.6c0-.4 0-.9 0-1.4h-3.6zm1.9-4.6h4.8v-1.3h-4.7v1.3zm6.7 3.2h-3.7v1.4h3.7z" fill="#fbfafc"/><path d="m8.7 22.1h1.3v2.2h2.8v-2.2h1.3v2.2h4.1v9.1h1.7v1.3h-17v-1.3h1.7v-9.1h4.1zm.3 13.1.7 1.2c-1.8.9-3.8 1.9-6 2.9-.2-.4-.5-.8-.8-1.3 2.3-1 4.4-1.9 6.1-2.8zm-3.1-6.4h2.8v-3.2h-2.8zm0 4.6h2.8v-3.3h-2.8zm4.1-4.6h2.8v-3.2h-2.8zm0 4.6h2.8v-3.3h-2.8zm3.6 1.9c2.1.9 4.1 1.8 6.1 2.7l-.7 1.4c-2.2-1.1-4.2-2-6.1-2.9zm3.2-9.7h-2.8v3.2h2.8zm-2.7 7.8h2.8v-3.3h-2.8z" fill="#fbfafc"/><g fill="#010104"><path d="m243.54 263.68c-24.86 27.06-53.27 46.53-88.71 54.21-5.95 1.29-12.24.97-18.38 1.4-.27-.83-.54-1.65-.81-2.48 3.24-1.93 6.3-4.29 9.75-5.73 20.59-8.61 40.75-18.14 58.59-31.66 9.9-7.5 19.08-16.07 27.9-24.84 7.08-7.04 6.6-10.08-.32-18.46-18.72 19.5-41.58 32-66.61 40.75-.49-.65-.98-1.3-1.46-1.96 1.75-1.73 3.24-3.86 5.28-5.13 15.42-9.61 30.74-19.35 43.51-32.45 3.87-3.97 7.06-8.61 9.85-13.5-8.67 3.05-17.21 6.55-26.04 9.03-8.66 2.44-17.57 4.14-26.65 3.37-.17-.51-.35-1.02-.52-1.53 3.65-1.64 7.23-3.45 10.95-4.9 15.48-6.07 31.14-11.76 44.33-22.35 1.16-.93 2.2-2.02 3.24-3.1.3-.31.37-.84.67-1.57-10.05-1.38-20.33 1.3-30.5-3.8 2.07-1.24 4-3.06 6.24-3.61 20.93-5.16 41.87-10.35 62.93-14.93 4.46-.97 9.58-.09 14.13 1.03 2 .49 4.31 3.56 4.62 5.73.21 1.42-2.63 4.29-4.57 4.85-8.11 2.32-16.38 4.12-24.63 5.89-7.43 1.6-14.92 2.92-21.43 4.18 1.65 3.85 5.38 8.4 4.39 11.36-1.17 3.47-6.45 5.56-9.57 7.96 11 9.26 22.16 18.66 33.75 28.41 11.33-11.4 21.45-22.89 26.44-38.05.57-1.73 1.08-3.49 1.87-5.12 1.5-3.09 3.69-4.62 7.24-2.88 5.04 2.47 10.59 4.19 15.11 7.37 6.18 4.36 5.32 10.14-.92 14.14-14.67 9.39-29.21 18.99-45.26 29.45 8.74 5.39 15.86 10.1 23.27 14.3 25.38 14.38 52.8 22.35 81.67 25.81 2.48.3 4.77 2.13 7.16 3.24-2.26 1.68-4.3 4.35-6.8 4.89-13.77 2.95-27.58 5.86-41.52 7.74-5.93.8-12.4-.51-17.42-4.68-15.47-12.85-30.88-25.77-46.22-38.77-4.17-3.54-8-7.47-12.13-11.37 2.24 8.59 4.58 16.87 6.55 25.25 5.06 21.56-.01 41.76-8.86 61.3-1.46 3.22-4.01 6.17-6.66 8.58-5.15 4.68-11.94 4.39-18.63-.89-7.96-6.29-15.59-12.99-23.29-19.6-.92-.79-1.4-2.07-2.36-3.53 5.81-2.82 11.36-2.84 16.83-1.21 10.13 3.02 18.32-.23 22.65-9.82 1.55-3.44 2.84-7.22 3.17-10.94 1.17-13.57 1.48-27.15-1.82-41.38z"/><path d="m71.62 306.52c4.86.92 9.69 2.07 14.59 2.68 4.27.54 8.63.83 12.91.58 5.69-.34 9.05-3.1 9.98-8.72 2.83-17.02 6.06-34.02 7.65-51.17 1.56-16.85 1.34-33.87 1.8-50.82.07-2.75-.42-5.53-.75-9.42-4.19 5.95-7.72 11.09-11.38 16.14-16.85 23.29-35.21 45.2-58.68 62.22-5.64 4.09-11.69 7.65-17.77 11.04-2.56 1.43-5.71 1.81-8.59 2.66-.38-.57-.75-1.14-1.13-1.71 2.06-2.42 3.89-5.08 6.2-7.22 23.05-21.34 44.43-44.19 61.31-70.78 7.91-12.45 14.27-25.88 21.45-38.8 5.73-10.3 1.53-19.42-2.74-28.88-7.64 7.3-14.77 14.47-22.3 21.21-10.83 9.69-22.48 18.29-35.91 24.12-2.57 1.12-5.57 1.25-8.38 1.84-.33-.58-.67-1.16-1-1.74 1.81-1.65 3.41-3.61 5.45-4.91 21.35-13.61 36.87-32.9 51.79-52.81 1.7-2.26.87-3.79-.46-5.65-8.15-11.36-18.51-20.45-29.45-28.97-2.55-1.99-5.02-4.08-7.52-6.13.22-.56.44-1.11.66-1.67 2.89.55 5.92.7 8.63 1.72 12.31 4.62 23.03 11.79 32.37 21.02 1.87 1.85 3.46 3.98 5.64 6.52 9.85-15.13 19.6-28.86 23.31-45.59.81-3.66-.48-7.76-.62-11.67-.08-2.36.19-4.74.31-7.11 2.34.2 5-.27 6.96.7 8.63 4.27 15.72 10.48 21.57 18.17 2.47 3.25 2.02 6.15-.27 9.04-9.77 12.35-19.54 24.7-29.42 36.96-3.64 4.52-7.57 8.81-11.37 13.22 10.61 19.78 15.09 41.19 16.58 63.18 1.33 19.73 2.29 39.57 1.82 59.33-.6 25.72-2.72 51.42-10.68 76.19-2.82 8.78-6.57 17.09-13.33 23.66-4.08 3.97-7.02 3.92-9.4-.96-6.2-12.76-15.95-22.42-26.31-31.65-1.55-1.38-2.83-3.08-4.23-4.63.23-.39.47-.79.71-1.19z"/><path d="m308.44 190.1c1.57-2.61 3.39-5.1 4.66-7.85 2.27-4.93 4.22-10.01 6.3-15.03 1.82-4.38-1.14-5.56-4.34-5.63-4.8-.1-9.69.01-14.41.84-32.19 5.64-64.33 11.51-96.51 17.24-8.18 1.46-16.39 2.83-25.02-.32-1.01 3.71-1.48 7.6-3.11 10.92-3.46 7.09-7.25 14.05-11.52 20.68-1.09 1.7-5.09 3.25-6.61 2.51-2.01-.98-3.9-4.19-4.09-6.59-.7-8.74 3.33-16.27 8.27-22.96 4.46-6.03 7.2-12.22 6.99-19.74-.04-1.53.66-3.08 2.29-5.08 1.95 2.95 4.44 5.68 5.69 8.9 1.38 3.56 3.47 4.3 6.8 3.98 15.37-1.47 30.9-1.95 46.1-4.47 20.44-3.39 40.74-7.88 60.88-12.78 8.43-2.05 16.38-6.2 24.43-9.68 5.78-2.5 11.5-3.66 17.17-.27 8.68 5.18 17.23 10.6 25.77 16.01 1.23.78 2.25 1.99 3.14 3.17 3.1 4.1 1.85 7.4-3.2 8.07-15.51 2.07-29.32 8.13-41.92 17.3-1.84 1.34-4.51 1.55-6.8 2.28-.31-.5-.63-1-.96-1.5z"/><path d="m281.72 128.33c2.62 3.24 4.32 4.89 5.46 6.86 1.78 3.06 1.35 5.31-2.8 5.91-20.86 3-41.71 6.09-63.31 9.26 0 1.65.32 3.48-.09 5.14-.39 1.58-1.53 2.98-2.34 4.46-1.46-.88-3.66-1.41-4.25-2.69-2.69-5.84-5.35-11.76-7.24-17.89-2.93-9.5-7-18.26-13.39-25.94-.94-1.13-2-3.45-1.5-4.17.86-1.24 2.86-1.86 4.49-2.36 1.05-.32 2.41-.24 3.46.14 11.06 4.05 21.97 1.23 32.86-.73 12.61-2.27 24.91-5.43 36.54-11.18 2.85-1.41 7.22-1.14 10.43-.14 5.99 1.86 11.75 4.6 17.4 7.4 6.03 2.99 5.91 6.68.73 10.93-5.73 4.69-10.96 9.95-16.45 15zm-61.3 14.27c11.43-2.2 22.37-4.1 33.21-6.5 4.08-.9 9.74 1.06 11.86-3.92 1.7-4 1.75-8.71 2.42-13.13.22-1.47 0-3 .11-4.49.3-4.2-1.99-5.98-5.77-5.49-5.75.75-11.46 1.82-17.14 2.99-9.8 2.03-19.57 4.24-28.91 6.27 1.44 8.35 2.83 16.31 4.22 24.27z"/><path d="m173.89 82.42c4.22-.48 8.43-1.1 12.66-1.41 34.5-2.59 68.41-8.18 101.45-18.81 10.56-3.4 21.52-5.57 32.81-3.3 3.69.74 7.06 2.2 7.19 6.34.12 4.02-3.58 4.65-6.65 5.41-29.78 7.41-59.76 13.95-90.31 17.2-16.99 1.81-34.14 3.04-50.99-1.68-2.18-.61-4.26-1.54-6.39-2.33.07-.47.15-.94.23-1.42z"/><path d="m225.43 28.81c9.36-1.73 17.87-1.29 26.2 1.23 7.92 2.4 15.19 6.35 16.96 15.14.84 4.17.61 11.14-1.84 12.75-3.17 2.09-10.43 1.9-13.47-.47-9.25-7.2-17.35-15.88-25.8-24.09-.85-.83-1.07-2.33-2.05-4.56z"/></g></svg>