<svg enable-background="new 0 0 400 400" viewBox="0 0 400 400" xmlns="http://www.w3.org/2000/svg"><path d="m365.02 113.48c-8.76 9.94-11.9 22-13.64 34.11-2.8 19.54-4.76 39.24-6.28 58.93-2.14 27.81-2.52 55.87-10.22 82.91-2.69 9.45-7.58 18.3-11.75 27.3-.99 2.14-3.12 3.74-5.73 6.74-2.15-4.08-4.39-7.14-5.45-10.56-3.04-9.82-5.78-19.74-8.26-29.71-1.17-4.72-3.12-6.71-8.4-6.32-26.02 1.91-52.08 3.43-78.12 5.08-1.16.07-2.34.21-3.49.12-3.38-.28-4.44 1.14-4.74 4.57-.49 5.58-1.6 11.14-2.92 16.6-.4 1.64-2.35 2.91-3.59 4.35-1.31-1.57-3.14-2.94-3.8-4.75-1-2.77-1.53-5.81-1.66-8.76-.81-17.44-1.18-34.91-2.2-52.34-2.16-36.82-3.64-73.72-9.91-110.17-.87-5.04-2.56-9.95-4.07-14.85-1.68-5.43.8-8.52 6.47-7.5 3.41.61 6.91 1.33 10.07 2.69 6.29 2.69 12.47 3.26 19.32 2.14 31.6-5.15 63.95-7.77 94.06-18.73 19.91-7.25 33.5-.38 47.44 11.15 1.28 1.06 2.42 2.29 3.59 3.48 1.05 1.05 2.04 2.18 3.28 3.52zm-54.11 160.86c1.07-.39 2.13-.79 3.2-1.18 1.92-5.36 4.77-10.58 5.58-16.1 2.76-19.03 5.71-38.11 6.89-57.28 1.36-21.9 1.07-43.91 1.12-65.88.01-5.06-1.06-10.26-2.49-15.15-1.94-6.65-5.86-9.16-12.69-8.69-6.78.46-13.55 1.25-20.3 2.12-9.71 1.24-19.39 2.68-29.83 4.14 4.97 3.09 9.11 5.49 13.07 8.16 3.74 2.53 4.68 5.73 3.13 10.34-4.97 14.78-5.72 30.21-6.63 46.2 3.73-1.03 6.89-1.91 10.05-2.76 6.82-1.83 13.47-4.69 20.78-1.68 3.53 1.45 6.99 2.62 7.31 7.06.33 4.49-3.58 5.45-6.47 6.41-9.59 3.19-19.26 6.2-29.06 8.63-3.31.82-4.3 1.99-4.42 5.1-.63 16.79-1.41 33.56-2.09 50.35-.13 3.11-.02 6.24-.02 10.37 8.39-1.43 16.21-2.52 23.93-4.17 4.04-.86 7.23-.25 9.84 2.87 3.1 3.68 6.08 7.43 9.1 11.14zm-56.2-73.02c-3.72 0-7.03.13-10.31-.03-6.29-.29-12.62-.44-18.83-1.31-2-.28-3.71-2.64-5.55-4.05 1.87-1.85 3.67-3.77 5.64-5.5.54-.48 1.58-.38 2.39-.55 7.62-1.64 15.21-3.44 22.87-4.83 3.41-.62 4.21-2.27 4.07-5.42-.5-11.29-.49-22.62-1.3-33.89-.55-7.75-2.05-15.43-3.26-23.12-.61-3.85-2.88-4.94-6.82-4.29-10.96 1.82-21.96 3.44-32.99 4.74-3.57.42-4.4 1.83-4.24 5.07.63 13.11 1.21 26.22 1.6 39.33.8 27.42 1.5 54.85 2.17 82.27.17 6.93.03 13.86.03 22.16 15.75-2.06 30.09-3.95 44.54-5.84-.01-22.04-.01-43.13-.01-64.74z" fill="#010100"/><path d="m64.36 190.35c-6.79-1.97-13.64-3.78-20.33-6.03-1.35-.45-2.13-2.57-3.17-3.92 1.27-.9 2.44-2.34 3.83-2.6 7.82-1.43 15.77-2.23 23.54-3.89 18.79-4.02 37.47-8.57 56.26-12.58 10.02-2.14 20.15-3.82 30.3-5.26 2.63-.37 5.67.52 8.2 1.59 1.74.74 3.93 2.7 4.07 4.27.13 1.57-1.67 4.1-3.27 4.88-4.6 2.25-9.46 4.02-14.33 5.64-25.77 8.6-52.4 13.14-79.26 16.53-1.8.23-3.66.03-5.49.03-.13.45-.24.9-.35 1.34z" fill="#010100"/><g fill="#fafafa"><path d="m12.4 4.8-6.1 9h6v1.2h-8v-.5l6.1-8.9h-5.7v-1.2h7.6v.4z"/><path d="m14 15v-10.6h3c1.6 0 2.9.5 4 1.4s1.6 2.2 1.6 3.8-.5 3-1.6 3.9-2.4 1.5-4 1.5zm1.4-9.4v8.2h1.6c1.3 0 2.4-.4 3.1-1.1s1.1-1.8 1.1-3.1-.4-2.3-1.2-3-1.8-1-3.1-1z"/><path d="m26.1 4.4v10.6h-1.4v-10.6z"/><path d="m36.1 14.6c-.8.4-1.8.6-2.9.6-1.5 0-2.7-.5-3.6-1.4s-1.4-2.2-1.4-3.8c0-1.7.5-3.1 1.5-4.1s2.3-1.6 3.9-1.6c1 0 1.8.1 2.5.4v1.4c-.8-.4-1.6-.6-2.5-.6-1.2 0-2.1.4-2.9 1.2s-1.1 1.8-1.1 3.2c0 1.3.3 2.3 1 3s1.6 1.1 2.7 1.1c1 0 2-.2 2.7-.7v1.3z"/><path d="m37.6 14.3c0-.2.1-.5.3-.6s.4-.3.6-.3c.3 0 .5.1.6.3s.3.4.3.6-.1.4-.3.6-.4.3-.6.3c-.3 0-.5-.1-.6-.3s-.3-.4-.3-.6z"/><path d="m50.2 15h-1.6l-5.3-8.2c-.2-.2-.3-.5-.4-.7 0 .2.1.7.1 1.5v7.4h-1.4v-10.6h1.7l5.2 8.1c.2.4.4.6.4.7 0-.3-.1-.8-.1-1.5v-7.3h1.4z"/><path d="m58.6 15h-5.7v-10.6h5.5v1.2h-4.1v3.4h3.8v1.2h-3.8v3.6h4.3z"/><path d="m67.1 5.6h-3.1v9.4h-1.4v-9.4h-3v-1.2h7.5z"/></g></svg>