<svg enable-background="new 0 0 400 400" viewBox="0 0 400 400" xmlns="http://www.w3.org/2000/svg"><path d="m76.59 228.37c0-10.74.6-21.4-.16-31.97-.88-12.39-2.64-24.75-4.62-37.02-.78-4.82-3.08-9.43-4.93-14.04-2.15-5.34-1.02-7.81 4.53-8.97 1.13-.23 2.34-.5 3.45-.32 17.16 2.74 33.57-2.7 51.14-4.47-.09-25.05 2.15-50.29-15.86-71.95 6.71-3.07 12.85-2.85 18.94-1.31 7.26 1.83 13.11 6.23 16.76 12.54 1.58 2.74 1.12 7 .73 10.48-1.68 14.98-3.68 29.92-5.71 46 9.77-2.85 18-5.15 26.17-7.66 11.18-3.44 30.67 4.24 35.87 14.64.94 1.87.94 5.01.01 6.88-4.17 8.42-5.57 17.3-5.78 26.54-.29 12.81-.76 25.61-1.14 38.41-.05 1.64-.01 3.28-.01 4.88 5.86-.84 11.31-1.96 16.81-2.33 6.64-.44 11.72 2.67 15.8 7.93 2.37 3.06 1.68 4.98-1.47 6.07-2.6.9-5.45 1.24-8.22 1.44-7.44.53-14.89.85-22.42 1.26 0 8.11-.29 15.71.06 23.29.67 14.27 2.32 28.52 2.44 42.79.12 14.83-2.98 29.15-12.6 41.11-7.11 8.84-8.64 8.34-15.13-.82-7.2-10.16-15.21-19.74-22.74-29.68-1.41-1.86-2.19-4.18-3.27-6.29 2.5.01 5.11-.44 7.49.12 5.63 1.33 11.09 3.46 16.74 4.69 6.5 1.41 9.99-.92 10.23-7.35.8-21.94 1.2-43.9 1.73-65.85.01-.3-.23-.61-.58-1.48-6.2.82-12.58 1.6-18.93 2.52-21.84 3.18-43.65 6.55-65.52 9.49-4.13.55-5.37 1.6-5.58 5.94-.95 18.9-2.18 37.8-3.92 56.65-.52 5.65-2.8 11.21-4.78 16.63-.85 2.32-2.98 4.18-4.82 6.65-7.19-5.99-9.44-13.63-10.18-21.54-.44-4.63.27-9.66 1.69-14.11 4.88-15.32 6.94-31.02 7.84-47.35-5.23.88-10.19 1.83-15.19 2.52-7.52 1.05-14.16-1.29-19.96-5.96-1.44-1.15-2.31-3.01-3.44-4.54 1.72-.74 3.39-1.99 5.16-2.14 10.93-.91 21.87-1.55 33.37-2.32zm91.98-52.33c-6.17 2.27-11.2 4.23-16.3 5.97-3.89 1.32-9.41 1.21-11.38 3.85-2.02 2.71-.67 7.98-.7 12.14-.04 7.25-.01 14.5-.01 21.58 1.09.22 1.43.38 1.74.34 12.49-1.7 25-3.32 37.45-5.28 1-.16 2.37-2.61 2.35-3.98-.19-15.63-.38-31.27-1.08-46.89-.27-6.1-1.52-12.2-2.84-18.18-1.67-7.56-4.08-9.77-11.69-9.4-7.74.38-15.44 1.81-23.12 3.03-1.04.17-2.64 1.75-2.66 2.71-.2 9.43-.12 18.87-.12 28.53 9.85-1.51 19.53-5.04 28.36 5.58zm-42.72-34.83c-11.19 2.28-21.88 4.68-32.67 6.51-3.65.62-4.07 2.24-4.06 5.3.09 23.48.04 46.96.07 70.45 0 1.24.25 2.49.42 4.11 12.34-1.98 24.23-3.89 35.97-5.78 0-11.55 0-22.57 0-32.7-5.23 0-10.02.17-14.8-.05-3.61-.17-8.65-.21-9-4.38-.34-4.14 4.61-4.88 8.13-5.74 5.29-1.3 10.6-2.48 15.94-3.71 0-11.42 0-22.39 0-34.01z" fill="#010100"/><path d="m288.29 357.92c-5.76-4.54-6.03-10.76-6.22-16.54-1.04-31.61-1.8-63.22-2.43-94.84-.28-13.96-.05-27.92-.05-42.74-9.94 1.56-18.86 2.95-27.79 4.35-2.34 4.87-.61 11.3-6.07 14.81-5-2.31-6.13-6.81-6.82-11.46-3.36-22.49-6.15-45.07-10.15-67.44-2.06-11.5-6.23-22.63-9.44-33.93-.45-1.6-1.02-3.18-1.26-4.82-.55-3.76 1.05-5.87 4.99-5.44 2.46.27 5.2.39 7.24 1.58 9 5.24 18.4 3.03 27.73 1.94 23.97-2.8 47.59-7.25 70.51-15.03 1.86-.63 4.28-.21 6.29.3 12.81 3.26 22.86 11.29 32.78 19.43 3.44 2.82.46 5.72-1.04 7.86-5.73 8.17-9.32 17.17-11.67 26.78-3.55 14.5-6.95 29.03-10.79 43.46-1.87 7.04-4.46 13.91-6.97 20.77-1.14 3.1-2.64 6.14-4.44 8.91-4.04 6.21-8.08 5.97-11.3-.63-1.44-2.97-2.34-6.2-3.43-9.34-.86-2.48-1.64-4.99-2.58-7.86-6.84 1.01-13.47 1.99-21.18 3.12 0 26.62.12 52.91-.03 79.2-.18 25.96.48 52-5.88 77.56zm37.38-166.08c2.75-16.6 5.94-33.15 8.08-49.83 1.26-9.81 1.17-19.83 1.04-29.75-.08-5.83-2.91-8.61-8.08-8.97-11.18-.8-21.88 2.02-33.24 4.54 5.08 5.3 4.93 10.82 3.57 16.8-1.22 5.39-1.72 10.95-2.64 17.12 4.56-1.13 7.9-2.2 11.32-2.74 3.89-.61 8.16-1.8 11.71-.79 3.58 1.02 8.29 3.88 9.23 6.95 1.29 4.2-4.31 4.96-7.43 6.43-2.52 1.18-5.34 1.81-8.08 2.45-5.28 1.22-10.61 2.27-15.88 3.38v32.56c9.91-2.72 19.64-6.47 30.4 1.85zm-46.81-32.34c-7.61-.44-14.73-.65-21.8-1.38-2.4-.25-4.67-1.81-7-2.77 2.21-1.43 4.23-3.51 6.65-4.18 6.22-1.73 12.64-2.73 18.91-4.29 1.27-.32 3.24-1.86 3.21-2.78-.46-11.54-1.22-23.08-1.93-35.04-12.63 1.59-24.07 3.02-36.03 4.52 2.94 28.38 5.84 56.35 8.8 84.89 10.15-2.03 19.66-3.94 29.19-5.85 0-11.34 0-22.13 0-33.12z" fill="#010100"/><g fill="#fafafa"><path d="m12.4 4.8-6.1 9h6v1.2h-8v-.5l6.1-8.9h-5.7v-1.2h7.6v.4z"/><path d="m14 15v-10.6h3c1.6 0 2.9.5 4 1.4s1.6 2.2 1.6 3.8-.5 3-1.6 3.9-2.4 1.5-4 1.5zm1.4-9.4v8.2h1.6c1.3 0 2.4-.4 3.1-1.1s1.1-1.8 1.1-3.1-.4-2.3-1.2-3-1.8-1-3.1-1z"/><path d="m26.1 4.4v10.6h-1.4v-10.6z"/><path d="m36.1 14.6c-.8.4-1.8.6-2.9.6-1.5 0-2.7-.5-3.6-1.4s-1.4-2.2-1.4-3.8c0-1.7.5-3.1 1.5-4.1s2.3-1.6 3.9-1.6c1 0 1.8.1 2.5.4v1.4c-.8-.4-1.6-.6-2.5-.6-1.2 0-2.1.4-2.9 1.2s-1.1 1.8-1.1 3.2c0 1.3.3 2.3 1 3s1.6 1.1 2.7 1.1c1 0 2-.2 2.7-.7v1.3z"/><path d="m37.6 14.3c0-.2.1-.5.3-.6s.4-.3.6-.3c.3 0 .5.1.6.3s.3.4.3.6-.1.4-.3.6-.4.3-.6.3c-.3 0-.5-.1-.6-.3s-.3-.4-.3-.6z"/><path d="m50.2 15h-1.6l-5.3-8.2c-.2-.2-.3-.5-.4-.7 0 .2.1.7.1 1.5v7.4h-1.4v-10.6h1.7l5.2 8.1c.2.4.4.6.4.7 0-.3-.1-.8-.1-1.5v-7.3h1.4z"/><path d="m58.6 15h-5.7v-10.6h5.5v1.2h-4.1v3.4h3.8v1.2h-3.8v3.6h4.3z"/><path d="m67.1 5.6h-3.1v9.4h-1.4v-9.4h-3v-1.2h7.5z"/></g></svg>