<svg enable-background="new 0 0 400 400" viewBox="0 0 400 400" xmlns="http://www.w3.org/2000/svg"><g fill="#010100"><path d="m110.26 205.36c-17.69 12.29-34.79 23.49-49.55 37.78-5.29 5.12-8.17 5.57-13.82 1.1-4.96-3.92-9.87-7.95-14.4-12.33-1.32-1.27-1.29-3.95-1.87-5.98 1.9-.36 3.79-.9 5.71-1.03 4.88-.34 10.19.65 14.57-.96 10.4-3.82 20.43-8.69 30.48-13.41 9.33-4.38 18.55-8.99 27.67-13.78 1.61-.85 3.29-2.92 3.61-4.67 4.71-25.04 7.5-50.3 7.2-75.82-.1-8.34-.8-16.7-8.47-22.4-1.19-.88-1.62-2.8-2.97-5.31 3.42-.21 6.14-.81 8.72-.43 3.58.53 7.51 1.05 10.5 2.87 8.58 5.23 17.63 3.6 26.59 2.61 18.31-2.02 36.69-3.77 54.85-6.79 25.51-4.25 50.78-9.93 76.28-14.22 8.51-1.43 17.48-1.09 26.14-.4 5.2.42 9.86 3.6 13.35 9.5-3.43 1.21-6.34 2.79-9.42 3.25-29.87 4.45-59.73 8.93-89.66 12.95-20.23 2.72-40.53 5.2-60.87 6.84-8.29.67-16.78-1.16-25.44-1.87-.45 7.96-.82 16.38-1.41 24.79-2.83 40.89-8.72 81.21-22.94 119.92-10.58 28.78-25.41 54.9-48.58 75.56-5.19 4.63-11.01 8.57-16.61 12.74-1.17.87-2.6 1.7-3.99 1.86-1.11.13-2.63-.51-3.41-1.34-.44-.47.06-2.09.49-3.03.39-.87 1.19-1.61 1.92-2.28 27.53-25.23 44.14-57.13 55.93-91.91 3.19-9.41 5.71-19.06 8.49-28.61.39-1.31.49-2.73.91-5.2z"/><path d="m181.81 264.61c-6.35-5.47-7.11-12.46-7.74-19.06-1.7-17.86-2.49-35.81-4.22-53.67-1.78-18.36-4.54-36.59-12.01-53.73-1.74-3.99-.62-5.95 3.81-6.32 3.13-.26 6.4-.42 9.46.17 12.12 2.32 23.9-.69 35.56-2.71 25.8-4.48 51.42-9.96 77.12-15.01 1.13-.22 2.44-.55 3.44-.19 10.59 3.84 21.43 7.19 31.6 11.96 7.67 3.59 8.08 6.81 2.69 13.01-6.76 7.78-7.47 17.15-8.4 26.56-2.53 25.45-4.4 51-11.06 75.82-1.23 4.56-3.19 9.12-5.72 13.1-3.13 4.92-6.64 4.87-10.51.45-1.84-2.1-2.86-4.93-4.77-6.94-1.37-1.44-3.71-3.03-5.45-2.86-17.05 1.58-34.06 3.5-51.08 5.36-10.41 1.14-20.79 2.54-31.22 3.45-4.43.39-8.25.68-8.95 6.25-.19 1.31-1.43 2.49-2.55 4.36zm4.19-19.79c2.16 0 3.65.16 5.1-.02 21.56-2.82 43.1-5.76 64.67-8.52 7.46-.95 14.89-4.68 22.49-1.21 3.61 1.65 5.45.58 6.16-2.85 1.93-9.24 4.26-18.45 5.37-27.8 1.46-12.36 2.18-24.83 2.68-37.28.31-7.78.13-15.66-.73-23.39-1.01-9.12-5.68-13.15-14.69-12.58-17.74 1.12-35.48 2.5-53.16 4.39-14.48 1.55-28.86 4.01-43.74 6.12 1.95 34.28 3.88 68.42 5.85 103.14z"/><path d="m183.5 272.31c1.36 2.11 2.94 4.1 4.03 6.34 7.53 15.44 17.04 29.2 31.15 39.57 8.18 6.02 17.55 7.7 27.04 9.15 16.4 2.51 32.78 3.13 48.82-2.39 8.24-2.83 8.41-2.92 4.87-11.01-2.79-6.39-6.18-12.51-9.07-18.85-1.25-2.74-1.92-5.75-2.86-8.63.44-.27.88-.55 1.32-.82 1.36 1.06 2.93 1.94 4.03 3.22 11.37 13.26 25.02 23.85 39.26 33.76.96.66 1.86 1.4 2.78 2.12 7.03 5.44 7.33 8.03-.83 11.93-8.26 3.95-17.26 6.87-26.24 8.73-20.88 4.32-41.86 4.27-62.8-.58-30.11-6.98-49.23-26.21-61.06-53.81-1.31-3.05-2.89-6.13-3.39-9.34-.46-2.9.38-6 .65-9.01.78-.13 1.54-.25 2.3-.38z"/><path d="m365.42 291.16c-.89 1.44-1.92 5.24-4.14 6.16-2.94 1.22-7.96 1.6-10.08-.12-11.09-8.97-21.59-18.68-32.18-28.27-1.42-1.28-2.37-3.21-3.19-4.99-1.56-3.39.16-6.21 3.88-5.85 11.6 1.12 22.88 3.12 33.24 9.26 8.67 5.15 10.98 13.15 12.47 23.81z"/><path d="m157.09 294.7c-.62 14.83-3.48 26.56-12.92 35.78-6.08 5.95-10.74 5.13-14.17-2.66-4.28-9.75-1.51-18.19 4.28-26.59 4.56-6.62 7.94-14.05 11.8-21.14.47-.86.42-2.1 1.04-2.77 1.29-1.4 2.87-2.54 4.32-3.78 1.02 1.39 2.67 2.67 2.96 4.2 1.24 6.32 2.05 12.73 2.69 16.96z"/><path d="m243.33 61.5c-.02.19-.04 1.88-.46 3.47-1.88 7.18-8.98 9.93-14.12 4.69-6.59-6.72-12.21-14.4-18.01-21.84-2.64-3.38-4.87-7.12-6.88-10.91-.41-.78 1.16-3.71 1.52-3.65 9.78 1.48 19.83 2.04 28.32 8.18 6.39 4.63 9.85 10.62 9.63 20.06z"/><path d="m92.42 156.7c-1.31 4.88-1.79 9.12-3.57 12.72-2.55 5.15-7.3 5.47-10.68.86-8.99-12.23-14.37-26.17-18.15-40.74-.87-3.35.8-5.39 4.44-4.03 9.38 3.48 17.89 8.52 23.12 17.27 2.53 4.23 3.35 9.48 4.84 13.92z"/><path d="m222.98 262.82c12.98.1 23.93 2.38 33.13 10.2 3.05 2.6 5.31 14.74 3.81 18.44-1.45 3.57-6.77 5.03-10.19 1.94-8.24-7.45-16.12-15.31-23.87-23.26-1.49-1.52-1.73-4.24-2.88-7.32z"/><path d="m225.46 182.41c-12.33.77-24.2 6.07-35.44-.9-.1-.54-.19-1.08-.29-1.62 1.53-.65 3.01-1.61 4.61-1.91 9.62-1.78 19.25-3.57 28.93-4.98 3.41-.49 4.53-2 4.62-5.15.19-7.16.81-14.26-4.09-20.55-1.1-1.4-.94-4.59-.1-6.35.41-.85 3.92-.81 5.74-.25 3.95 1.21 7.73 2.99 11.56 4.58 4.1 1.7 5.22 4.35 3.45 8.66-1.87 4.57-3.09 9.41-5.05 15.54 8.31-2.19 15.47-4.41 22.78-5.88 4.06-.82 8.41-.81 12.53-.35 1.63.18 4.08 2.56 4.18 4.07.1 1.48-2.01 3.86-3.68 4.56-3.62 1.52-7.56 2.35-11.42 3.21-5.01 1.12-10.04 2.28-15.12 2.89-7.38.89-12.28 3.77-12.02 12.12.05 1.61-.58 3.23-1.03 5.56 7.27 2.11 14.3 4.46 21.5 6.15 6.52 1.53 10.38 5.84 12.88 11.42.82 1.83.34 4.89-.74 6.67-.54.9-4.16.93-5.67.08-7.95-4.47-15.69-9.32-23.47-14.1-2.38-1.47-4.64-3.13-7.3-4.94-9.27 15.97-21.08 28.77-39.27 34.62 14.52-15.38 26.62-32.03 31.91-53.15z"/></g><path d="m12.4 4.8-6.1 9h6v1.2h-8v-.5l6.1-8.9h-5.7v-1.2h7.6v.4z" fill="#fafafa"/><path d="m14 15v-10.6h3c1.6 0 2.9.5 4 1.4s1.6 2.2 1.6 3.8-.5 3-1.6 3.9-2.4 1.5-4 1.5zm1.4-9.4v8.2h1.6c1.3 0 2.4-.4 3.1-1.1s1.1-1.8 1.1-3.1-.4-2.3-1.2-3-1.8-1-3.1-1z" fill="#fafafa"/><path d="m26.1 4.4v10.6h-1.4v-10.6z" fill="#fafafa"/><path d="m36.1 14.6c-.8.4-1.8.6-2.9.6-1.5 0-2.7-.5-3.6-1.4s-1.4-2.2-1.4-3.8c0-1.7.5-3.1 1.5-4.1s2.3-1.6 3.9-1.6c1 0 1.8.1 2.5.4v1.4c-.8-.4-1.6-.6-2.5-.6-1.2 0-2.1.4-2.9 1.2s-1.1 1.8-1.1 3.2c0 1.3.3 2.3 1 3s1.6 1.1 2.7 1.1c1 0 2-.2 2.7-.7v1.3z" fill="#fafafa"/><path d="m37.6 14.3c0-.2.1-.5.3-.6s.4-.3.6-.3c.3 0 .5.1.6.3s.3.4.3.6-.1.4-.3.6-.4.3-.6.3c-.3 0-.5-.1-.6-.3s-.3-.4-.3-.6z" fill="#fafafa"/><path d="m50.2 15h-1.6l-5.3-8.2c-.2-.2-.3-.5-.4-.7 0 .2.1.7.1 1.5v7.4h-1.4v-10.6h1.7l5.2 8.1c.2.4.4.6.4.7 0-.3-.1-.8-.1-1.5v-7.3h1.4z" fill="#fafafa"/><path d="m58.6 15h-5.7v-10.6h5.5v1.2h-4.1v3.4h3.8v1.2h-3.8v3.6h4.3z" fill="#fafafa"/><path d="m67.1 5.6h-3.1v9.4h-1.4v-9.4h-3v-1.2h7.5z" fill="#fafafa"/></svg>