<svg enable-background="new 0 0 400 400" viewBox="0 0 400 400" xmlns="http://www.w3.org/2000/svg"><path d="m2.6 9.9.8-1c.9.7 1.9 1.4 2.9 2.3l-.9 1.1c-1.1-1-2-1.8-2.8-2.4zm.5 10.6c.9-2.1 1.6-4.3 2.3-6.7.4.2.8.4 1.3.6-.7 2.1-1.5 4.3-2.2 6.6zm.3-15.2.9-.9c1 .8 2 1.6 2.8 2.4l-1 1c-.9-.9-1.8-1.7-2.7-2.5zm12.6-1.2h1.2v1.4h2.7v1.1h-2.7v2.7h-1.2v-.6h-1.8v1.3h4.9v3.8h-1.2v-.5h-3.7c0 .4-.1.9-.1 1.2h5.1v1h-5.2c0 .5-.1.9-.2 1.2h6v1h-5.2c1.1 1.3 2.9 2 5.5 2.2-.4.4-.7.8-.9 1.3-2.9-.5-4.8-1.6-5.7-3.5h-.1c-.8 1.7-2.7 2.9-5.9 3.5-.2-.4-.6-.8-.9-1.1 2.8-.6 4.6-1.4 5.4-2.5h-4.8v-1h5.3c.1-.3.2-.7.2-1.2h-4.9v-1h5c0-.4 0-.8.1-1.2h-3.6v.5h-1.2v-3.7h4.9v-1.3h-1.8v.5h-1.2v-2.7h-2.7v-1h2.7v-1.4h1.2v1.4h4.8zm-6.7 8.3h3.6c0-.4 0-.9 0-1.4h-3.6zm1.9-4.6h4.8v-1.3h-4.7v1.3zm6.7 3.2h-3.7v1.4h3.7z" fill="#fbfafc"/><path d="m8.7 22.1h1.3v2.2h2.8v-2.2h1.3v2.2h4.1v9.1h1.7v1.3h-17v-1.3h1.7v-9.1h4.1zm.3 13.1.7 1.2c-1.8.9-3.8 1.9-6 2.9-.2-.4-.5-.8-.8-1.3 2.3-1 4.4-1.9 6.1-2.8zm-3.1-6.4h2.8v-3.2h-2.8zm0 4.6h2.8v-3.3h-2.8zm4.1-4.6h2.8v-3.2h-2.8zm0 4.6h2.8v-3.3h-2.8zm3.6 1.9c2.1.9 4.1 1.8 6.1 2.7l-.7 1.4c-2.2-1.1-4.2-2-6.1-2.9zm3.2-9.7h-2.8v3.2h2.8zm-2.7 7.8h2.8v-3.3h-2.8z" fill="#fbfafc"/><g fill="#010104"><path d="m145.99 329.17c-1.23 4.44-2.52 9.58-4.13 14.62-.7 2.19-1.81 4.34-3.16 6.2-3.05 4.22-6.87 3.93-9.39-.66-5.41-9.86-6.4-20.46-3.01-30.93 5.22-16.14 7.06-32.76 8.42-49.46.9-11.1 1.29-22.29 1-33.42-.11-4.35-2.75-8.62-4.14-12.96-.62-1.93-1.02-3.94-1.51-5.91 1.76-.29 3.71-1.22 5.25-.77 17.82 5.17 34.65-1.23 51.71-4.37 8.78-1.61 17.45-4 25.97-6.68 4.8-1.51 9.14-4.46 13.82-6.44 2.04-.86 4.65-1.73 6.62-1.19 12.7 3.41 25.13 7.61 36.3 14.81 4.04 2.6 5.2 6.93 1.78 10.14-8.28 7.77-7.97 17.31-7.14 27.3 1.34 16.07 2.41 32.16 3.64 48.23.58 7.62 1.76 15.24 1.8 22.86.07 11.72-3.16 22.66-10.07 32.31-2.13 2.97-4.27 5.95-6.66 8.72-3.36 3.88-6.55 3.21-8.61-1.46-4.62-10.45-9.34-20.85-14.01-31.28-1.29-2.88-3.26-4.21-6.63-3.88-17.67 1.71-35.34 3.54-53.05 4.74-8.01.54-16.12-.29-24.8-.52zm3.24-76.95c15.04-4.47 29.21-8.49 43.26-12.93 8.76-2.77 17.01-2.11 25.05 2.08 1.02.53 2.37 1.84 2.31 2.69-.07 1.02-1.32 2.41-2.38 2.82-3.23 1.27-6.57 2.36-9.95 3.15-19.17 4.45-38.33 9.03-58.21 6.71v29.09c15.2-1.71 29.81-4.53 43.89-9.76 8.51-3.17 16.95-3.2 25.15.88 1.77.88 3.11 2.64 4.64 4-1.7 1.42-3.19 3.61-5.13 4.15-19.87 5.5-39.83 10.64-60.77 8.02-2.69-.34-5.34-.93-8.99-1.58v31.87c8.3-1.29 16.81-2.51 25.29-3.95 13.73-2.33 27.39-5.22 41.19-7.06 7.04-.94 14.21-.38 19.11 6.75 1.35 1.97 5.16 3.26 7.68 3.03 1.39-.13 2.78-3.92 3.55-6.27.71-2.16.84-4.6.81-6.9-.21-13.97-.36-27.95-.88-41.92-.46-12.29-1.18-24.58-2.14-36.84-.94-11.94-6.1-16.39-17.61-14.71-25.25 3.69-50.45 7.78-75.84 11.73-.03 7.89-.03 15.49-.03 24.95z"/><path d="m337.29 146.59c-2.66 1.46-5.18 3.75-8 4.22-14.08 2.34-28.19 4.66-42.38 6.09-10.85 1.09-21.83 1.08-32.75 1.07-5.1 0-10.2-1.16-15.86-1.87-.73 7.15-1.22 14.36-2.29 21.47-.66 4.39-1.77 8.85-3.58 12.87-.9 2-3.78 4.14-5.88 4.26-1.66.1-4.35-2.47-5.09-4.42-3.91-10.27-5.63-20.23-3.22-31.86 3.21-15.47 3.36-31.71 3.51-47.63.17-17.92-.83-35.88-1.93-53.79-.48-7.79-2.72-15.35-8.36-21.43-.92-.99-1.46-3.27-.94-4.4.5-1.1 2.6-2.14 3.94-2.08 10.41.46 20.24 2.72 29.17 8.69 3.83 2.56 3.49 4.96 2.29 8.36-2.65 7.56-5.16 15.16-7.73 22.74.53.51 1.06 1.02 1.59 1.53 7.31-1.73 14.67-3.31 21.94-5.21 9.61-2.51 19.05-5.84 28.77-7.68 5.52-1.04 11.51-.14 17.21.55 3.38.41 5.26 3.41 4.27 6.68-.47 1.57-2.9 3.23-4.71 3.61-15.23 3.27-30.45 6.68-45.81 9.14-6.94 1.11-14.21.19-21.95.19-.56 10.69-1.14 21.68-1.76 33.62 8.09-2.08 15.32-4.17 22.66-5.77 8.56-1.86 17.16-3.82 25.85-4.7 4.57-.46 9.49.9 14.01 2.24 1.79.53 2.94 3.21 4.38 4.91-1.81 1.25-3.47 3.19-5.46 3.62-8.1 1.72-16.31 2.98-24.48 4.42-3.1.55-6.26.89-9.29 1.73-9.22 2.55-18.08 1.25-27.1-2.62v35.11c7.22-1.31 14.32-2.41 21.33-3.91 14.9-3.2 29.75-6.7 44.64-9.92 12.27-2.66 22.73 1.78 32.57 8.3.13.63.29 1.25.44 1.87z"/><path d="m156.99 125.84c-22.11 6.51-44 17.03-67.62 6.63-.08-.55-.16-1.1-.23-1.66 5.76-1.35 11.55-2.59 17.27-4.08 8.5-2.22 17-4.5 25.43-6.99 8.81-2.6 17.31-2.38 25.83 2.67 0-11.48 0-22.21 0-33.25-24.18 6.7-47.98 18.43-73.41 5.98-.12-.52-.25-1.04-.37-1.56 2.18-.82 4.3-1.84 6.54-2.43 13.14-3.46 26.32-6.82 39.48-10.22 8.74-2.26 17.33-1.89 26.65 2.14-2.92-9.72-5.14-18.64-11.98-25.61-1.38-1.4-2.49-3.51-2.77-5.44-.46-3.14 1.66-5.12 4.57-3.9 9.76 4.1 19.41 8.48 28.89 13.19 1.31.65 2.43 4.17 1.86 5.71-3.48 9.5-4.95 19.24-5.07 29.3-.3 25.31-.49 50.62-1.17 75.91-.21 7.75-1.69 15.49-2.92 23.18-.33 2.06-1.86 3.92-3.17 6.52-11.25-10.39-12.07-22.56-9.52-36.02-19.66 5.87-39.34 8.63-57.08 17.95-3.14 1.65-7.98 2.13-11.26.97-6.82-2.41-13.21-6.15-19.58-9.69-1.24-.69-2.62-3.57-2.14-4.38.82-1.39 2.98-2.53 4.71-2.76 18.91-2.48 37.86-4.72 56.78-7.13 3.94-.5 7.81-1.8 11.75-2.04 5.84-.35 11.72-.09 18.54-.09-.01-10.2-.01-21.51-.01-32.9z"/></g></svg>