<svg enable-background="new 0 0 400 400" viewBox="0 0 400 400" xmlns="http://www.w3.org/2000/svg"><path d="m2.6 9.9.8-1c.9.7 1.9 1.4 2.9 2.3l-.9 1.1c-1.1-1-2-1.8-2.8-2.4zm.5 10.6c.9-2.1 1.6-4.3 2.3-6.7.4.2.8.4 1.3.6-.7 2.1-1.5 4.3-2.2 6.6zm.3-15.2.9-.9c1 .8 2 1.6 2.8 2.4l-1 1c-.9-.9-1.8-1.7-2.7-2.5zm12.6-1.2h1.2v1.4h2.7v1.1h-2.7v2.7h-1.2v-.6h-1.8v1.3h4.9v3.8h-1.2v-.5h-3.7c0 .4-.1.9-.1 1.2h5.1v1h-5.2c0 .5-.1.9-.2 1.2h6v1h-5.2c1.1 1.3 2.9 2 5.5 2.2-.4.4-.7.8-.9 1.3-2.9-.5-4.8-1.6-5.7-3.5h-.1c-.8 1.7-2.7 2.9-5.9 3.5-.2-.4-.6-.8-.9-1.1 2.8-.6 4.6-1.4 5.4-2.5h-4.8v-1h5.3c.1-.3.2-.7.2-1.2h-4.9v-1h5c0-.4 0-.8.1-1.2h-3.6v.5h-1.2v-3.7h4.9v-1.3h-1.8v.5h-1.2v-2.7h-2.7v-1h2.7v-1.4h1.2v1.4h4.8zm-6.7 8.3h3.6c0-.4 0-.9 0-1.4h-3.6zm1.9-4.6h4.8v-1.3h-4.7v1.3zm6.7 3.2h-3.7v1.4h3.7z" fill="#fbfafc"/><path d="m8.7 22.1h1.3v2.2h2.8v-2.2h1.3v2.2h4.1v9.1h1.7v1.3h-17v-1.3h1.7v-9.1h4.1zm.3 13.1.7 1.2c-1.8.9-3.8 1.9-6 2.9-.2-.4-.5-.8-.8-1.3 2.3-1 4.4-1.9 6.1-2.8zm-3.1-6.4h2.8v-3.2h-2.8zm0 4.6h2.8v-3.3h-2.8zm4.1-4.6h2.8v-3.2h-2.8zm0 4.6h2.8v-3.3h-2.8zm3.6 1.9c2.1.9 4.1 1.8 6.1 2.7l-.7 1.4c-2.2-1.1-4.2-2-6.1-2.9zm3.2-9.7h-2.8v3.2h2.8zm-2.7 7.8h2.8v-3.3h-2.8z" fill="#fbfafc"/><g fill="#010104"><path d="m252.07 188.57c10.29-2.95 19.51-5.6 28.72-8.23 1.91-.55 3.91-.85 5.77-1.55 9.69-3.66 18.6-2.11 26.86 3.86 5.93 4.29 11.89 8.54 17.66 13.04 4.44 3.47 4.25 5.68.14 9.59-7.16 6.8-8.59 15.66-9.21 25.02-1.9 28.83-3.82 57.7-10.99 85.84-1.49 5.83-4.15 11.54-7.23 16.73-2.47 4.15-4.82 3.57-7.4-.5-2.22-3.51-4.87-6.76-6.96-10.34-4.32-7.4-10.61-9.77-18.95-8.87-23.13 2.49-46.29 4.61-69.43 7.04-1.15.12-2.74 1.65-3.09 2.83-.82 2.83-.49 6.08-1.65 8.71-.83 1.89-3.34 4.2-5.08 4.19-1.78-.01-4.45-2.32-5.11-4.19-1.29-3.7-1.84-7.77-2.03-11.72-.88-17.6-1.04-35.26-2.38-52.82-1.37-17.86-3.53-35.67-5.97-53.42-.7-5.09-3.77-9.83-5.43-14.83-.75-2.25-.71-4.77-1.02-7.16 2.37-.23 4.94-1.18 7.06-.56 5.05 1.49 9.88 3.73 14.81 5.65 1.37.53 2.84 1.57 4.15 1.41 13.12-1.63 26.22-3.45 39.13-5.2 0-13.17.04-25.62-.03-38.07-.02-3.32.1-6.75-.67-9.92-1.2-4.88-3.2-9.55-4.69-14.37-.54-1.76-1.25-3.96-.61-5.41.42-.96 3.35-1.68 4.72-1.21 7.69 2.61 15.34 5.38 22.8 8.59 3.42 1.47 5.81 4.63 3.52 8.51-4.67 7.92-5.04 16.77-6.02 25.46-.81 6.89-.92 13.86-1.39 21.9zm.12 115.85c1.22.08 1.71.19 2.19.14 11.49-1.31 22.89-4.23 34.57-.92 3.07.87 5.5-.82 6.01-4.35 1.06-7.39 2.71-14.74 3.09-22.17 1.18-22.74 2.2-45.49 2.61-68.26.17-9.52-5.44-14.04-15.1-13.75-6.15.18-12.29.68-18.41 1.25-4.53.43-9.02 1.21-14.16 1.92v43.63c1.86-.47 4.03-.73 5.96-1.56 6.06-2.61 12.08-1.91 17.85.42 2.69 1.09 4.86 3.46 7.26 5.25-2.49 2-4.69 4.89-7.54 5.83-6.73 2.23-13.81 3.44-20.67 5.33-1.39.38-3.49 1.93-3.51 2.98-.23 14.63-.15 29.26-.15 44.26zm-17.37-43.49c-4.31-.28-8.64-.1-12.76-.95-5.25-1.08-10.38-2.84-15.42-4.68-.92-.34-1.84-2.64-1.56-3.72.23-.89 2.17-1.69 3.46-1.91 7.66-1.35 15.34-2.59 23.04-3.73 2.67-.4 3.51-1.66 3.47-4.32-.15-9.16-.06-18.31-.06-27.47 0-4.27 0-8.54 0-13.39-11.84 1.79-22.94 3.6-34.07 5.09-3.23.43-4.11 1.74-3.98 4.83.47 11.63.9 23.26 1.01 34.9.2 20.31.16 40.62.21 60.94v6.2c12.86-2.07 24.74-3.99 36.65-5.91.01-15.67.01-30.45.01-45.88z"/><path d="m100.4 267.24c-8.31 0-16.62.01-24.93 0-3.89-.01-5.72 1.69-6.42 5.76-.86 5.02-2.4 10-4.34 14.72-.74 1.79-3.43 3.92-5.14 3.85-1.66-.07-3.85-2.47-4.71-4.35-5.31-11.5-6.19-23.43-4.06-35.99 2.3-13.56 4.32-27.3 4.84-41.02 1.18-31.09 1.39-62.23 1.93-93.35.12-7.18-1.88-13.71-6.23-19.58-1-1.34-1.31-3.68-.92-5.32.17-.71 3-1.36 4.46-1.11 5.7.99 11.33 2.36 16.99 3.55.95.2 2.03.51 2.9.26 9.25-2.66 18.47-5.39 27.67-8.2 1.57-.48 3.36-1.13 4.39-2.28 6.59-7.35 13.82-5.12 20.65-1.07 6.23 3.69 11.95 8.25 17.78 12.59 2.71 2.01 2.68 4.67.17 6.76-6.98 5.83-8.32 13.75-8.33 22.07-.08 34.83.06 69.66-.08 104.5-.06 14.48.16 29.02-1.2 43.4-.76 8.04-4.04 15.98-7.12 23.58-.96 2.36-5 3.48-7.62 5.16-1.46-2.38-3.55-4.6-4.27-7.19-1.99-7.19-3.5-14.51-5.03-21.82-.93-4.43-3.09-6.75-7.89-5.78-1.12.22-2.33.03-3.49.03zm-29.75-9.26c5.8-.93 11.33-2.21 16.92-2.6 6.72-.46 13.72-1.22 20.19.13 6.83 1.42 7.69 1.74 8.08-5.26.7-12.61 1.87-25.21 2.1-37.82.51-29.08.69-58.16.73-87.24.01-6.27-1-12.57-1.83-18.82-.92-6.97-5.55-10.13-12.36-8.64-9.39 2.06-18.72 4.38-28.15 6.27-2.89.58-3.33 1.96-3.29 4.43.1 6.83.04 13.66.04 20.48v21.06c5.78-2.13 10.6-3.74 15.28-5.67 6.19-2.55 12.39-2.27 18.48-.08 1.61.58 2.7 2.63 4.03 4.01-1.26 1.2-2.3 2.91-3.8 3.53-10.66 4.43-21.58 7.66-33.65 5.69v43.2c4.47-1.5 8.47-2.52 12.19-4.17 6.91-3.05 13.68-2.32 20.29.48 1.45.62 3.11 2.96 3.01 4.39-.1 1.49-1.96 3.38-3.52 4.11-2.19 1.02-4.79 1.37-7.25 1.59-8.21.73-16.44 1.27-24.61 1.88-.96 16.15-1.9 32.33-2.88 49.05z"/><path d="m291.43 136.32c2.92-5.69 5.82-11.39 8.76-17.07 1.76-3.4 4.01-6.62 5.2-10.2.87-2.61 1.4-6.3.16-8.33-.91-1.48-5.08-1.76-7.58-1.32-12.57 2.19-25.1 4.65-37.58 7.29-22.89 4.84-45.64 10.43-68.66 14.51-7.09 1.25-8.46 4.23-10.02 10.15-2.21 8.39-5.71 16.53-9.46 24.39-1.17 2.45-5.55 5.55-7.38 4.97-2.6-.83-4.98-4.5-6.1-7.46-3.19-8.46-2.32-16.68 1.76-25.01 4.88-9.97 8.72-20.45 13.34-31.52 1.84 2.44 3.85 4.68 5.38 7.22 5.13 8.52 5.14 8.94 14.72 6.96 29.54-6.1 59.08-12.27 88.47-19.03 6.28-1.44 12.36-4.87 17.82-8.47 6.13-4.05 11.77-5.11 18.57-2.08 11.95 5.32 23.31 11.51 32.37 21.1 1.75 1.86 2.81 5.32 2.47 7.82-.18 1.31-3.99 2.87-6.26 3.06-17.77 1.44-32.54 9.77-46.7 19.68-2.54 1.78-5.35 3.18-8.04 4.76-.41-.47-.82-.94-1.24-1.42z"/><path d="m222.02 41.19c10.8 2.25 21.88 3.63 32.33 6.96 14.88 4.74 20.15 15.98 16.22 31.17-2.37 9.17-8.23 11.72-15.24 5.51-7.68-6.79-14.42-14.68-21.31-22.32-3.44-3.82-6.42-8.07-9.38-12.28-1.55-2.2-2.6-4.75-3.88-7.15.42-.63.84-1.26 1.26-1.89z"/></g></svg>