<svg enable-background="new 0 0 400 400" viewBox="0 0 400 400" xmlns="http://www.w3.org/2000/svg"><path d="m2.6 9.9.8-1c.9.7 1.9 1.4 2.9 2.3l-.9 1.1c-1.1-1-2-1.8-2.8-2.4zm.5 10.6c.9-2.1 1.6-4.3 2.3-6.7.4.2.8.4 1.3.6-.7 2.1-1.5 4.3-2.2 6.6zm.3-15.2.9-.9c1 .8 2 1.6 2.8 2.4l-1 1c-.9-.9-1.8-1.7-2.7-2.5zm12.6-1.2h1.2v1.4h2.7v1.1h-2.7v2.7h-1.2v-.6h-1.8v1.3h4.9v3.8h-1.2v-.5h-3.7c0 .4-.1.9-.1 1.2h5.1v1h-5.2c0 .5-.1.9-.2 1.2h6v1h-5.2c1.1 1.3 2.9 2 5.5 2.2-.4.4-.7.8-.9 1.3-2.9-.5-4.8-1.6-5.7-3.5h-.1c-.8 1.7-2.7 2.9-5.9 3.5-.2-.4-.6-.8-.9-1.1 2.8-.6 4.6-1.4 5.4-2.5h-4.8v-1h5.3c.1-.3.2-.7.2-1.2h-4.9v-1h5c0-.4 0-.8.1-1.2h-3.6v.5h-1.2v-3.7h4.9v-1.3h-1.8v.5h-1.2v-2.7h-2.7v-1h2.7v-1.4h1.2v1.4h4.8zm-6.7 8.3h3.6c0-.4 0-.9 0-1.4h-3.6zm1.9-4.6h4.8v-1.3h-4.7v1.3zm6.7 3.2h-3.7v1.4h3.7z" fill="#fbfafc"/><path d="m8.7 22.1h1.3v2.2h2.8v-2.2h1.3v2.2h4.1v9.1h1.7v1.3h-17v-1.3h1.7v-9.1h4.1zm.3 13.1.7 1.2c-1.8.9-3.8 1.9-6 2.9-.2-.4-.5-.8-.8-1.3 2.3-1 4.4-1.9 6.1-2.8zm-3.1-6.4h2.8v-3.2h-2.8zm0 4.6h2.8v-3.3h-2.8zm4.1-4.6h2.8v-3.2h-2.8zm0 4.6h2.8v-3.3h-2.8zm3.6 1.9c2.1.9 4.1 1.8 6.1 2.7l-.7 1.4c-2.2-1.1-4.2-2-6.1-2.9zm3.2-9.7h-2.8v3.2h2.8zm-2.7 7.8h2.8v-3.3h-2.8z" fill="#fbfafc"/><g fill="#010104"><path d="m165.42 294.59c2.99-2.75 5.88-5.64 9-8.24 17.2-14.37 33.09-29.95 45.17-49.01 3.09-4.87 5.64-10.07 8.74-15.67-6.42-.49-11.95-1.06-17.49-1.18-1.09-.02-2.35 1.59-3.31 2.65-12.17 13.52-25.78 25.06-43.13 31.45-2.31.85-4.66 1.55-7 2.33-.36-.33-.73-.66-1.09-1 1.33-1.52 2.48-3.25 4.01-4.53 17.65-14.8 34.47-30.42 47.87-49.32 3.92-5.53 7.32-11.44 10.21-18.15-9.81 2.72-19.64 5.4-29.43 8.18-5.6 1.58-18.76-2.8-22.21-7.37-1.97-2.62-.85-4.17 1.71-4.7 4.37-.92 8.84-1.41 13.26-2.08 27.57-4.18 55.21-7.92 82.68-12.68 23.84-4.13 47.45-9.59 71.23-14.12 11.73-2.23 23.23-1.68 33.13 6.37.52.42 1.19.77 1.48 1.32 1.62 3.1 3.15 6.25 4.71 9.39-3.23 1.25-6.44 3.51-9.7 3.59-17.28.44-34.66-.69-51.85.64-26.8 2.08-53.47 5.71-80.2 8.72-1.12.13-2.2.64-3.3.97.12.5.1.89.29 1.1 6.38 7.24 6.35 9.1-.08 16.46-3.57 4.09-7.04 8.25-11.4 13.37 10.56-1.19 19.8-1.9 28.91-3.34 15.06-2.38 30.07-5.14 45.06-7.94 3.06-.57 6.28-1.52 8.86-3.18 5.54-3.57 10.93-2.98 15.85.37 8.09 5.5 15.83 11.53 23.66 17.42 2.4 1.81 1.6 3.86-.31 5.4-10.08 8.13-11.43 19.7-12.67 31.39-2.59 24.35-6.57 48.35-17.74 70.57-6.86 13.64-17.07 23.59-31.26 29.41-2.74 1.12-5.18 1.94-6.21-1.96-4.34-16.45-14.76-29.21-25.32-41.89-1-1.2-1.81-2.56-2.71-3.84.26-.44.53-.88.79-1.32 2.53.82 5.08 1.56 7.58 2.47 7.77 2.84 15.38 6.22 23.31 8.47 6.16 1.75 9.34-.46 11.96-6.09 11.98-25.73 18.26-52.96 21.15-81.05 1.07-10.37-5.45-16.44-15.82-15.1-3.62.47-7.23.98-10.83 1.57-1.25.21-2.45.74-4.56 1.4 8.27 7.14 4.21 13.92.62 21.15-13.15 26.48-29.39 50.63-51.62 70.42-17.29 15.39-37.03 26.36-59.27 32.77-1.2.35-2.65-.13-3.98-.22.73-1.33 1.13-3.16 2.26-3.9 5.01-3.27 10.28-6.14 15.35-9.32 41.2-25.8 69.86-61.44 84.58-107.99.2-.63.35-1.27.49-1.91.03-.15-.06-.32-.32-1.46-8.79 1.3-17.66 2.61-27.17 4.02.95 2.16 2 3.56 2.1 5.03.19 2.67.86 6.19-.49 7.96-8.6 11.21-17.26 22.43-26.76 32.87-11.17 12.26-24.44 22.08-39.55 29.15-2.55 1.19-5.53 1.46-8.3 2.16-.29-.65-.61-1.31-.94-1.98z"/><path d="m39.07 316.57c1.92-2.38 3.49-5.19 5.81-7.08 16-12.98 30.6-27.21 41.66-44.76 10.3-16.34 16.61-33.98 17.41-53.42.03-.81 0-1.63 0-3.79-10.11 4.28-19.53 8.25-28.93 12.26-2.45 1.04-5.01 1.93-7.25 3.32-10.93 6.76-20.75 2.75-30.18-3.21-2.21-1.4-4.08-3.99-5.09-6.45-1.47-3.55 1.05-5.58 4.81-6.04 13.98-1.72 27.94-3.7 41.86-5.94 7.36-1.18 14.6-3.12 21.91-4.63 3.3-.68 5.1-1.93 4.87-5.9-.38-6.47-.03-12.99.05-19.49.17-13.14-.08-13.72-10.81-22.8-10.94 12.24-21.82 24.75-37.99 30.08-.52-.48-1.03-.95-1.55-1.43 1.38-2.26 2.61-4.64 4.17-6.77 15.12-20.72 29.51-41.9 40.26-65.31 5.86-12.76 10.65-25.85 10.68-40.14.01-3.1-.63-6.27-1.4-9.29-1.23-4.78.56-8.32 5.23-7.68 11.07 1.51 21.26 5.43 28.51 14.59 2.69 3.4 1.21 7.22-1.2 9.6-9.97 9.85-14.47 23.04-21.73 34.52-6.4 10.12-12.8 20.24-19.18 30.37-.42.67-.67 1.45-.35 3.6 8.81-3.09 17.65-6.11 26.43-9.3 5.93-2.16 11.64-4.99 17.69-6.67 3.32-.93 7.35-.84 10.68.1 6.45 1.82 7.47 7.2 2.45 11.7-1.91 1.71-4.43 3-6.89 3.77-9.16 2.87-18.41 5.45-27.87 8.21 4.18 7.61.97 15.14.59 22.64-.3 5.96-.62 11.91-.98 18.66 6.95-1.81 13.1-3.63 19.35-4.94 3.69-.77 7.59-1.17 11.33-.89 3.52.26 7.17 1.83 7.57 5.99.39 4.01-3.19 5.13-6.19 6.03-9.21 2.76-18.44 5.48-27.75 7.87-3.49.9-4.7 2.52-5.09 6.08-.83 7.71-2.31 15.36-3.44 22.48 7.87 4.61 15.43 8.75 22.67 13.37 9.82 6.26 13.07 15.93 12.83 27.05-.08 3.61-.91 7.33-5.22 8.01-4.37.69-7.08-1.38-9.31-5.56-6.76-12.71-14.14-25.09-21.97-37.52-12.67 39.7-41.69 62.87-76.34 80.6-.71-.63-1.41-1.26-2.11-1.89z"/><path d="m232.51 144.27c-.41 2.05-.51 3.91-1.19 5.53-.64 1.55-1.88 2.84-2.85 4.25-1.44-1.01-3.69-1.73-4.17-3.09-1.78-4.94-3.26-10.03-4.35-15.17-4.11-19.27-7.79-38.64-12.17-57.84-1.03-4.5-4.3-8.45-6.27-12.78-.74-1.64-1.57-4.22-.82-5.3 1-1.43 3.85-2.93 5.32-2.48 17.7 5.41 34.52-.42 51.36-4.08 8.46-1.84 16.4-5.96 24.73-8.54 2.6-.81 6.2-.89 8.52.3 8.41 4.32 16.57 9.16 24.62 14.13 5.31 3.28 4.62 5.8.16 10.15-3.25 3.16-6 7.72-7.04 12.11-2.65 11.28-4 22.87-6.3 34.24-2.25 11.17-6.26 21.65-13.55 30.68-2.89 3.58-4.63 3.96-8.02.89-.62-.56-1.41-1.07-1.72-1.79-2.63-5.97-7.63-5.96-12.96-5.29-11.1 1.38-22.21 2.72-33.3 4.08zm-1.74-8.64c2.16-.45 3.9-.88 5.65-1.17 14.17-2.34 27.84-9.15 43.11-4.43.41-1.69.9-3.08 1.07-4.51 1.07-9.24 2.31-18.48 3.02-27.75.71-9.28 1.11-18.6 1.21-27.9.08-7.05-3.87-9.92-10.74-8.52-1.94.4-3.9.76-5.86 1.05-13.9 2.06-27.81 4.09-41.57 6.11 1.03 9.92 2.02 19.53 3.07 29.58 7.29-2.5 14.34-4.88 21.37-7.35 6.97-2.45 13.92-3.93 20.38 1.07 3.97 3.08 3.62 6.67-.94 8.23-12.81 4.4-25.6 9.41-39.77 5.3z"/></g></svg>