<svg enable-background="new 0 0 400 400" viewBox="0 0 400 400" xmlns="http://www.w3.org/2000/svg"><g fill="#010103"><path d="m46.17 180.9c8.32-14.06 16.79-27.57 24.47-41.51 9.56-17.36 17.77-35.44 20.56-55.26 1.11-7.91-.05-16.13-.02-24.21.01-2.7-.43-6.44 1.07-7.8 1.45-1.32 5.53-1.05 7.74.01 5.95 2.85 11.87 6.01 17.13 9.95 5.2 3.89 4.74 5.8 1.89 11.54-10.34 20.83-20.43 41.78-31.26 64.01 6.66-1.65 12.49-2.53 17.89-4.57 9.76-3.69 19.18-8.29 28.93-12.03 3.1-1.19 6.82-1.22 10.23-1.07 3.96.17 7.71 2.55 7.7 6.4 0 2.57-2.74 6.39-5.21 7.47-7.57 3.3-15.59 5.59-23.46 8.19-2.49.82-5.07 1.39-8.29 2.25 7.49 14.06.01 27.82-.02 42.3 4.26-1.77 7.89-3.76 11.77-4.8 6.2-1.65 12.55-2.73 18.86-3.9 1.26-.23 2.92-.27 3.9.37 1.93 1.25 4.93 3.07 4.89 4.58-.05 2-2.19 4.88-4.15 5.73-5.45 2.35-11.24 3.93-16.94 5.66-5.08 1.54-10.15 3.28-15.35 4.16-3.77.64-4.77 2.67-5.25 5.86-1.51 10-3.12 19.99-4.71 30.1 5.87 3.97 11.89 8.04 17.92 12.1 10.96 7.39 13.74 18.31 12.69 30.57-.18 2.14-2.14 5.05-4.04 5.92-2.95 1.35-6.11.37-8.02-3-6.07-10.7-12.25-21.34-18.42-31.98-.8-1.39-1.8-2.66-2.67-3.92-4.49 9.59-8.31 19.13-13.26 28.05-11.97 21.57-29.47 37.57-51.59 48.38-3.18 1.55-7.09 1.61-11.29 1.31 18.25-15.19 34.89-31.34 46.81-51.75 11.88-20.33 19.03-42.16 21.72-67.1-10.18 4.58-19.22 8.63-28.24 12.73-1.97.89-3.96 1.79-5.77 2.94-10.85 6.91-20.25 3.03-29.03-4.06-1.79-1.45-3.23-3.9-3.78-6.15-.62-2.51-.32-5.45 3.66-5.45 17.45.04 34.13-4.65 50.97-8.34.48-.11.92-.41 1.4-.51 12.33-2.69 12.43-2.69 12.29-15.08-.12-10.44-.52-20.88-.78-30.81-5.21-1.64-9.56-3.01-14.16-4.45-4.8 6.55-9.61 13.94-15.27 20.6-4.82 5.67-10.55 10.58-16.05 15.64-2.02 1.87-4.51 3.66-7.46.93z"/><path d="m249.45 281.82c12.85 6.24 26.79 12.22 39.88 19.69 7.19 4.1 13.33 10.33 19.18 16.34 2.69 2.77 4.47 7.22 4.95 11.12.39 3.15-1 7.35-3.15 9.63-1.17 1.24-6.05.31-8.38-1.1-6.11-3.69-11.66-8.28-17.57-12.31-14.3-9.74-28.7-19.34-43-29.07-2.25-1.53-3.74-1.65-5.97.38-24.59 22.36-54.46 33.87-86.2 41.36-2.1.5-4.61-.74-6.93-1.17 1.8-1.89 3.29-4.93 5.43-5.51 26.93-7.21 50.41-20.39 70.45-39.74 1.3-1.26 2.48-2.64 4.45-4.75-14-6.97-27.54-13.72-41.24-20.54 4.68-7.98 8.84-15.07 13.77-23.47-15.1 2.4-28.71 4.35-42.23 6.78-7.55 1.36-13.07-2.24-18.54-6.3-.64-.47-1.04-2.49-.64-2.89 1.07-1.08 2.58-2.21 4.01-2.35 5.62-.54 11.3-.42 16.91-1.05 13.69-1.55 27.34-3.4 41.01-5.09 3.53-.44 5.85-2.11 6.28-5.79.98-8.53 2.2-17.04 2.75-25.59.33-5.03 2.75-7.17 7.23-4.62 4.17 2.37 8.06 5.3 11.78 8.34 3.18 2.58 3.23 5.73.98 9.31-2.97 4.75-5.48 9.79-8.7 15.64 11.5-1.5 21.97-2.7 32.34-4.49 1.05-.18 1.86-3.97 2.08-6.15.28-2.65-.18-5.38-.32-8.07 2.8.63 5.88.72 8.34 2 4.08 2.14 7.73 5.1 11.63 7.59 1.15.73 2.6 1.6 3.83 1.49 19.53-1.72 39.04-3.62 58.56-5.4 10.28-.94 19.24 2.94 27.64 8.23 2.43 1.53 5.13 3.82 3.27 7.38-1.86 3.55-4.42 6.02-9.12 5.25-21.75-3.54-43.64-4.13-65.61-2.95-5.32.29-10.66.3-15.99.17-2.71-.06-4.07.73-5.13 3.41-5.8 14.64-11.85 29.17-18.03 44.29zm-.99-44.38c-12.6 1.39-24.42 2.67-36.24 4.02-.77.09-1.83.44-2.18 1.01-3.99 6.56-7.87 13.2-12.43 20.9 11.32 3.71 21.5 7.09 31.72 10.3.77.24 2.32-.48 2.85-1.22 7.56-10.41 12.42-22.07 16.28-35.01z"/><path d="m248.93 108.92c0-10.16-.05-20.32.02-30.49.04-6.48-1.19-12.46-5.07-17.9-2.85-3.99-1.77-6.19 3.03-7.3 1.12-.26 2.41-.55 3.45-.24 8.83 2.66 16.15-1.76 23.78-4.84 4.16-1.68 8.42-3.12 12.48-5 7.33-3.39 13.86-1.68 20.09 2.64 2.19 1.52 4.51 2.92 6.39 4.77 7.57 7.47 6.53 5.55 3.17 14.34-3.15 8.25-3.39 17.76-4 26.78-1.09 16.09-1.23 32.24-2.36 48.32-.3 4.27-2.2 8.7-4.36 12.5-2.45 4.31-6 4.21-7.6-.24-2.78-7.72-8.09-9.15-15.24-8.1-5.91.87-11.91 1.24-17.8 2.22-1.7.28-3.16 1.96-4.76 2.95-1.95 1.21-4.7 3.82-5.73 3.27-2.3-1.23-4.94-3.87-5.31-6.27-.85-5.54-.49-11.28-.53-16.94-.05-6.83-.01-13.65-.01-20.48.14.01.25.01.36.01zm12.53 29.46c1.78-.43 3.16-.87 4.58-1.09 8-1.2 15.97-2.71 24.02-3.34 3.37-.26 4.81-.85 4.91-4.31.59-19.89 1.49-39.78 1.75-59.67.05-3.71-2-7.59-3.62-11.14-1.49-3.25-4.58-4.26-8.03-3.43-8.32 2-16.6 4.11-25.26 6.26.49 7.13.97 14.04 1.51 21.84 3.45-.98 6.35-2.11 9.36-2.59 4.32-.69 8.74-1.31 13.06-1.09 1.36.07 2.57 2.96 3.85 4.55-1.45.92-2.8 2.33-4.38 2.68-7.21 1.6-14.49 2.91-21.69 4.31v18.2c6.77-.93 13.25-2.2 19.78-2.49 1.97-.09 4.07 2.52 6.11 3.89-1.49 1.4-2.78 3.21-4.53 4.08-2.17 1.08-4.7 1.64-7.13 1.96-4.72.62-9.48.91-14.3 1.35.01 6.74.01 13.15.01 20.03z"/><path d="m163.5 60.45c4.96 1 9.9 2.12 14.89 2.95 1.85.31 3.96.36 5.69-.24 6.58-2.27 13.05-4.86 19.57-7.32 8.55-3.23 20.64.46 25.46 8.23.93 1.51.7 4.63-.26 6.25-3 5.08-4.09 10.34-3.9 16.18.56 17.29 1.14 34.58 1.07 51.88-.02 5.84-1.52 11.8-3.22 17.45-.86 2.86-3.66 5.13-6.2 8.49-1.45-2.58-2.31-3.92-2.98-5.36-3.26-6.99-5.59-8.36-13.17-7.47-4.28.51-8.59.93-12.8 1.81-3.98.84-8.13 1.51-10.13 6.13-.52 1.2-3.68 2.61-4.31 2.14-1.81-1.33-4.01-3.51-4.15-5.48-.54-7.62-.41-15.29-.4-22.95.02-15.98.47-31.97 0-47.93-.16-5.48-2.48-10.91-3.91-16.34-.62-2.35-1.49-4.64-2.25-6.96.33-.47.67-.97 1-1.46zm47.35 81.48c.28-1.24 1.01-3 1.02-4.76.08-20.75.11-41.51-.02-62.26-.03-4.43-3.2-6.83-7.25-6.59-8.34.5-16.64 1.65-24.81 2.52v23.01c3.66-1.11 6.73-2.29 9.91-2.93 3.68-.75 7.47-1.41 11.18-1.31 1.2.03 2.95 2.45 3.28 4.02.19.93-1.72 3.04-3.02 3.4-6.93 1.9-13.97 3.42-21.36 5.16v19.19c2.52-.75 4.51-1.45 6.54-1.92 3.99-.91 7.99-2.02 12.04-2.4 2.96-.27 5.41 1.21 6.18 6.1-8.31 1.44-16.46 2.86-24.76 4.3v19.56c10.33-1.7 20.25-3.32 31.07-5.09z"/><path d="m148.58 208.53c.7-1.33 1.1-2.97 2.13-3.95 8.34-7.89 14.33-17.33 19.05-27.71 3.36-7.39 14.09-7.99 18.59-1.02.81 1.26 1.01 4.3.17 5.03-8.7 7.69-17.52 15.26-26.63 22.45-3.53 2.78-7.9 4.51-11.88 6.71-.48-.5-.96-1-1.43-1.51z"/><path d="m237.4 197.96c.77-2.05 1.14-3.72 1.97-5.12 5.02-8.57 10.49-16.9 15.12-25.67 3.85-7.29 9.26-8.84 15.51-3.3 1.68 1.49 2.96 3.44 4.37 5.11-.55.84-.74 1.53-1.09 1.62-7.45 1.89-10.52 8.65-15.18 13.62-6.82 7.25-13.96 12.18-20.7 13.74z"/><path d="m319.93 181.62c.2 7.12-4.57 10.25-9.62 7.8-2.16-1.05-3.92-3-5.71-4.7-5.42-5.14-10.86-10.26-16.06-15.61-1.05-1.08-2.02-3.74-1.44-4.57.89-1.28 3.6-2.65 4.76-2.15 7.86 3.37 15.81 6.74 23.08 11.17 2.8 1.71 3.9 6.2 4.99 8.06z"/><path d="m198.49 171.5c.75-1.04.82-1.24.94-1.28 9.14-2.72 17.19 1.7 25.17 4.66 3.01 1.12 5.4 5.61 6.66 9.08.79 2.18-.36 5.97-2.02 7.77-1.01 1.1-5.32.7-6.96-.57-8.11-6.22-15.82-12.98-23.79-19.66z"/></g><path d="m361.2 9.6.8-1c.9.7 1.9 1.4 2.9 2.3l-.9 1.1c-1-1-2-1.8-2.8-2.4zm.5 10.6c.9-2.1 1.6-4.3 2.3-6.7.4.2.8.4 1.3.6-.7 2.1-1.5 4.3-2.2 6.6zm.4-15.2.9-.9c1 .8 2 1.6 2.8 2.4l-1 1c-.9-.9-1.8-1.7-2.7-2.5zm12.5-1.2h1.2v1.4h2.7v1.1h-2.7v2.7h-1.2v-.6h-1.8v1.3h4.9v3.8h-1.2v-.5h-3.7c0 .4-.1.9-.1 1.2h5.1v1h-5.2c0 .5-.1.9-.2 1.2h6v1h-5.2c1.1 1.3 2.9 2 5.5 2.2-.4.4-.7.8-.9 1.3-2.9-.5-4.8-1.6-5.7-3.5h-.1c-.8 1.7-2.7 2.9-5.9 3.6-.2-.4-.6-.8-.9-1.1 2.8-.6 4.6-1.4 5.4-2.5h-4.8v-1h5.3c.1-.3.2-.7.2-1.2h-4.9v-1h5c0-.4 0-.8.1-1.2h-3.5v.5h-1.2v-3.8h4.9v-1.3h-1.8v.5h-1.2v-2.7h-2.7v-1h2.6v-1.4h1.2v1.4h4.7v-1.4zm-6.6 8.3h3.6c0-.4 0-.9 0-1.4h-3.6zm1.9-4.6h4.7v-1.3h-4.7zm6.6 3.2h-3.7v1.4h3.7z" fill="#fbfcfa"/><path d="m385.3 3.8h1.3v2.2h2.8v-2.2h1.3v2.2h4.1v9.1h1.7v1.3h-16.9v-1.3h1.7v-9.1h4.1v-2.2zm.4 13.1.7 1.2c-1.8.9-3.8 1.9-6 2.9-.2-.4-.5-.8-.8-1.3 2.3-1 4.3-1.9 6.1-2.8zm-3.1-6.4h2.8v-3.2h-2.8zm0 4.6h2.8v-3.3h-2.8zm4-4.6h2.8v-3.2h-2.8zm0 4.6h2.8v-3.3h-2.8zm3.7 1.9c2.1.9 4.1 1.8 6.1 2.7l-.7 1.3c-2.2-1.1-4.2-2-6.1-2.9zm3.2-9.7h-2.8v3.2h2.8zm-2.8 7.8h2.8v-3.3h-2.8z" fill="#fbfcfa"/></svg>