<svg enable-background="new 0 0 400 400" viewBox="0 0 400 400" xmlns="http://www.w3.org/2000/svg"><g fill="#010103"><path d="m220.38 164.5c2.95 4.63.88 7.91-1.04 11.55-13.11 24.85-28.63 47.99-48.2 68.25-10.8 11.18-22.77 20.94-36.11 28.97-1.85 1.11-3.47 2.67-5.41 3.52-1.29.56-2.96.23-4.46.3 0-1.47-.6-3.42.11-4.33 2.23-2.86 4.86-5.44 7.51-7.95 28.16-26.72 51.53-56.94 67.64-92.47.39-.87.62-1.81 1-2.92-8.22 1.59-16.09 4.03-24.06 4.39-8.12.36-15.34-3.64-21.58-9.57 7.81-1.11 15.63-2.12 23.43-3.34 8.02-1.25 16.03-2.64 24.01-4.14 1.02-.19 2.67-1.48 2.64-2.19-.56-13.06-1.33-26.12-2.07-39.28-10.24-.96-20.79 3.44-29.76-6.38 3.81-1.2 6.51-2.14 9.25-2.9 5.27-1.46 10.62-2.67 15.82-4.34 1.07-.34 2.5-2.42 2.3-3.4-1.82-8.93-3.46-17.95-6.22-26.6-1.51-4.73-5.19-8.75-7.65-13.22-.92-1.68-1.93-3.99-1.43-5.55.34-1.07 3.45-2.21 4.9-1.81 8.74 2.43 17.53 4.84 25.94 8.17 5.54 2.19 5.71 5.49 4.6 11.48-1.62 8.74-2.29 17.66-3.56 28.1 11.86-3.61 22-6.98 32.31-9.72 5.88-1.56 9.62-3.82 9.28-10.77-.53-10.94-.17-21.93-.83-32.86-.21-3.45-2.31-6.84-3.82-10.13-1.72-3.76-.9-6.36 3.1-6.21 11.49.43 22.39 3.34 31.01 11.45 1.35 1.27 1.62 5.12.77 7.07-4.67 10.77-7.06 21.98-8.13 33.65 8.17-.85 16.01-1.87 23.87-2.41 4.14-.28 9.45-.09 10.39 4.65.91 4.56-4 6.65-7.7 7.86-9.13 2.99-18.47 5.3-27.63 8.22-1.6.51-3.5 2.45-3.87 4.05-2.75 11.95-5.15 23.97-7.63 35.98-.19.91-.15 1.87-.32 4.18 13-3.73 25.53-6.4 37.33-10.94 14.7-5.65 27.03-1.51 38.84 6.69 1.92 1.33 3.8 4.97 3.3 6.93-.58 2.26-3.54 4.66-5.98 5.49-3.18 1.09-6.94 1.28-10.32.86-11.82-1.48-56.48 1.35-69.75 4.82 6.71 7.14 12.74 14.14 19.39 20.5 26.87 25.7 58.69 42.76 94.21 53.22 1.26.37 2.69.62 3.66 1.39 1.07.85 2.49 2.38 2.32 3.37-.22 1.34-1.6 3.15-2.86 3.53-2.82.85-5.88 1.32-8.83 1.28-14.14-.17-28.29-.38-42.42-.93-7.6-.29-13.49-4.56-18.36-10.01-16.31-18.24-32.5-36.58-48.67-54.93-3.96-4.49-7.56-9.32-11.66-13.67-1.22-1.3-3.76-2.35-5.44-2.05-7.45 1.33-14.83 3.21-23.16 5.1zm-.2-10.96c7.92-1.61 15.05-2.95 22.12-4.53 11.67-2.59 11.65-2.66 12.66-14.16.09-.99.35-1.96.48-2.94 1.24-9.3 2.47-18.6 3.84-28.96-12.87 2.89-24.61 5.44-36.29 8.26-1.14.28-2.68 2.16-2.7 3.32-.18 12.61-.11 25.21-.11 39.01z"/><path d="m76.12 210.51c-5.79 7.79-10.58 15.42-16.54 21.99-9.82 10.81-20.33 21.01-30.74 31.26-1.82 1.79-4.61 2.61-6.95 3.87-.45-.46-.9-.91-1.35-1.37 1.49-2.39 2.89-4.85 4.49-7.17 14.28-20.64 28.58-41.28 42.93-61.87 2.28-3.28 3.38-6.35.16-9.65-.44-.45-.81-1.14-.89-1.76-.34-2.64-.56-5.29-.82-7.94 2.48.18 4.97.33 7.44.56.8.07 1.57.37 2.83.68 8.26-20.88 18.01-41.2 16.07-65.22-13.81 2.98-27.01 2.36-39.52-3.6-.08-.65-.15-1.31-.23-1.96 4.49-.97 8.97-2.05 13.49-2.88 22.63-4.16 44.37-11.14 65.58-20.05 5.7-2.4 12.12-3.12 18.26-4.4 1.36-.28 3.14-.04 4.33.65 2.28 1.32 5.93 3.07 6 4.75.1 2.62-1.64 6.58-3.81 7.78-8.12 4.46-16.52 8.59-25.21 11.76-9.1 3.32-18.66 5.39-28.33 8.1 4.23 3.31 8.47 6.63 12.7 9.95 4.04 3.17 4.35 6.07 1.49 10.92-8.66 14.73-16.46 29.97-25.05 45.85 11.36-2.8 21.6-6.39 31.1-12.13 1.83-1.1 4.38-2.01 6.36-1.67 6.01 1.04 12.15 2.13 17.79 4.33 8.63 3.38 9.33 8.73 5.3 16.74-4.81 9.56-8.31 19.79-11.99 29.88-.53 1.45.74 3.99 1.85 5.54 7.35 10.32 6.56 12.98-5.86 15.97-13.06 3.14-26.22 5.9-39.37 8.64-3.1.65-4.25 1.95-4.62 5.21-.58 5.06-1.6 10.2-3.33 14.98-1.8 4.96-5.41 5.25-7.59.44-2.2-4.86-3.62-10.38-3.99-15.71-.87-12.43-.89-24.93-1.3-37.4-.06-1.44-.38-2.87-.68-5.07zm16.16 24.35c8.55-2.24 16.84-4.39 25.11-6.58 3.65-.97 5.88-3.14 6.83-7 1.54-6.27 3.85-12.36 5.19-18.66.99-4.65 1.25-9.53 1.23-14.31-.01-3.16-1.48-6.07-5.59-5.16-11.91 2.63-23.8 5.4-35.73 8.12 1 14.66 1.96 28.87 2.96 43.59z"/><path d="m187.87 317.78c2.18.17 4.39.2 6.54.55 7.19 1.16 14.32 2.87 21.54 3.54 5.84.54 8.32-2.16 9.03-8.12 3.42-28.87 2.54-57.77-.24-86.6-.66-6.81-3.85-13.35-5.35-20.13-.82-3.7-.53-7.64-.74-11.47 3.35.51 7.05.28 9.97 1.69 5.48 2.65 10.63 6.05 15.65 9.53 2.82 1.95 3.3 4.81 2.17 8.41-1.82 5.77-4.16 11.82-4 17.68.62 23.25 2.1 46.48 3.31 69.72.87 16.67.01 32.96-10.19 47.22-1.45 2.02-3.12 3.89-4.82 5.72-3.9 4.21-7.2 3.96-9.81-1.07-6.49-12.51-16.57-21.48-27.96-29.27-2.2-1.5-4.02-3.57-6.01-5.37.3-.68.6-1.35.91-2.03z"/><path d="m292.44 251.19c1.59-.35 2.85-1.06 3.83-.77 12.26 3.56 24.52 7.25 34.88 15.13 11.35 8.63 14.4 19.54 9.36 32.52-2.26 5.83-4.79 6.73-8.83 2.1-10.35-11.84-20.35-24.01-30.31-36.18-3.11-3.8-5.66-8.07-8.93-12.8z"/><path d="m190.9 254.03c3.76 9.86 4.34 18.79.69 27.55-5.21 12.51-13.67 22.78-23.84 31.6-5.16 4.47-8.44 3.13-10.08-3.53-1.66-6.75-.39-12.35 4.25-17.97 9.08-11 17.39-22.64 26.03-34 .68-.91 1.41-1.77 2.95-3.65z"/><path d="m256.13 257.25c11.32 4.75 22.09 9.76 29.66 19.62 6.89 8.97 6.92 18.68 2.51 28.63-1.79 4.04-4.23 4.46-6.45.75-8.73-14.65-17.14-29.5-25.63-44.3-.39-.68-.47-1.6-.52-2.41-.02-.62.23-1.25.43-2.29z"/></g><path d="m361.2 9.6.8-1c.9.7 1.9 1.4 2.9 2.3l-.9 1.1c-1-1-2-1.8-2.8-2.4zm.5 10.6c.9-2.1 1.6-4.3 2.3-6.7.4.2.8.4 1.3.6-.7 2.1-1.5 4.3-2.2 6.6zm.4-15.2.9-.9c1 .8 2 1.6 2.8 2.4l-1 1c-.9-.9-1.8-1.7-2.7-2.5zm12.5-1.2h1.2v1.4h2.7v1.1h-2.7v2.7h-1.2v-.6h-1.8v1.3h4.9v3.8h-1.2v-.5h-3.7c0 .4-.1.9-.1 1.2h5.1v1h-5.2c0 .5-.1.9-.2 1.2h6v1h-5.2c1.1 1.3 2.9 2 5.5 2.2-.4.4-.7.8-.9 1.3-2.9-.5-4.8-1.6-5.7-3.5h-.1c-.8 1.7-2.7 2.9-5.9 3.6-.2-.4-.6-.8-.9-1.1 2.8-.6 4.6-1.4 5.4-2.5h-4.8v-1h5.3c.1-.3.2-.7.2-1.2h-4.9v-1h5c0-.4 0-.8.1-1.2h-3.5v.5h-1.2v-3.8h4.9v-1.3h-1.8v.5h-1.2v-2.7h-2.7v-1h2.6v-1.4h1.2v1.4h4.7v-1.4zm-6.6 8.3h3.6c0-.4 0-.9 0-1.4h-3.6zm1.9-4.6h4.7v-1.3h-4.7zm6.6 3.2h-3.7v1.4h3.7z" fill="#fbfcfa"/><path d="m385.3 3.8h1.3v2.2h2.8v-2.2h1.3v2.2h4.1v9.1h1.7v1.3h-16.9v-1.3h1.7v-9.1h4.1v-2.2zm.4 13.1.7 1.2c-1.8.9-3.8 1.9-6 2.9-.2-.4-.5-.8-.8-1.3 2.3-1 4.3-1.9 6.1-2.8zm-3.1-6.4h2.8v-3.2h-2.8zm0 4.6h2.8v-3.3h-2.8zm4-4.6h2.8v-3.2h-2.8zm0 4.6h2.8v-3.3h-2.8zm3.7 1.9c2.1.9 4.1 1.8 6.1 2.7l-.7 1.3c-2.2-1.1-4.2-2-6.1-2.9zm3.2-9.7h-2.8v3.2h2.8zm-2.8 7.8h2.8v-3.3h-2.8z" fill="#fbfcfa"/></svg>