<svg enable-background="new 0 0 400 400" viewBox="0 0 400 400" xmlns="http://www.w3.org/2000/svg"><path d="m219.62 304.54c5.69.85 11.39 1.59 17.05 2.57 14.31 2.49 18.6-.09 22.09-14.29 3.96-16.12 4.01-32.62 4.07-49.09.06-16.3.14-32.64-4.03-48.53-1.88-7.17-5.04-14-7.39-21.06-1.43-4.32-3.94-4.15-7.7-3.13-13.74 3.74-27.53 7.32-41.4 10.55-10.02 2.33-22.88-3.31-27.3-11.58 3.73-4.64 9.3-4.66 14.41-4.96 25.6-1.52 50.72-6.08 75.72-11.45.27-.06.47-.41-.49.54-6.39-7.15-12.9-14.18-19.11-21.48-3.98-4.68-7.66-9.64-11.16-14.7-.85-1.23-1.25-3.96-.5-4.84 1.03-1.2 3.64-2.16 5.08-1.69 8.31 2.71 16.48 5.87 25.61 9.21 7.53-14.42 15.53-29.31 23.03-44.45 1.41-2.85.84-6.68 1.18-10.06-3.13.29-6.46.01-9.37.97-15.12 5-30.07 10.52-45.22 15.45-7.37 2.4-15.14 5.55-22.83 2.34-5.33-2.22-10.18-5.87-14.8-9.46-3.1-2.41-1.55-4.74 1.78-5.61 2.22-.58 4.59-.99 6.87-.91 29.61 1 57.34-5.72 83.49-19.61 6.25-3.32 13.43-2.29 19.29.85 7.53 4.03 14.36 9.43 21.24 14.57.96.71 1.24 3.82.51 4.98-1.37 2.16-3.49 4.05-5.68 5.45-19.98 12.74-36.51 29.34-52.68 46.4-2.12 2.23-1.1 3.66.09 5.59 6.3 10.21 6.38 15.4.05 26.14 8.63-1.64 16.71-3 24.7-4.73 8.76-1.9 17.35-5.02 26.18-5.92 6.37-.65 13.19.8 19.5 2.48 13.2 3.53 23.91 10.69 29.71 23.73 1.87 4.21.99 6.53-3.49 7.84-3.32.97-7.03.71-10.23 1.9-9.9 3.71-19.66 7.81-29.44 11.84-2.91 1.2-5.7 2.69-8.55 4.05-.47-.46-.94-.92-1.4-1.37 1.29-2.71 2.56-5.42 3.86-8.12 2.31-4.79 5.07-9.4 6.85-14.38 2.96-8.28.22-12.38-8.48-12.26-8.45.11-16.95.75-25.31 1.98-12.62 1.86-25.14 4.43-38.5 6.84 1.18.95 1.67 1.52 2.28 1.81 12.54 5.99 18.44 16.14 18.95 29.82 1.02 27.59 2.28 55.17 3.15 82.77.47 14.98.93 30.2-6.68 43.83-3.18 5.69-7.64 10.88-12.33 15.46-5.65 5.53-9.38 4.35-14.08-2.2-5.21-7.26-10.74-14.33-16.58-21.09-2.67-3.09-6.47-5.18-9.68-7.82-1.18-.97-2.13-2.23-3.19-3.36.28-.62.57-1.21.86-1.81z" fill="#010103"/><path d="m126.82 191.58c-7.75 10.17-14.7 19.87-22.25 29.09-18.2 22.23-39.11 41.29-65.22 54.03-1.05.51-2.08 1.25-3.18 1.4-1.74.23-3.53.04-5.3.03.77-1.85 1.03-4.29 2.39-5.44 5.82-4.96 12.13-9.34 17.95-14.31 32.2-27.5 56.1-61.16 73.41-99.65.19-.43.17-.95.36-2.21-4.28 1.08-8.32 1.76-12.11 3.13-10.15 3.65-20.3 7.34-30.23 11.54-5.06 2.15-10 2.86-14.96.95-7.11-2.74-14.08-5.88-20.92-9.23-1.4-.68-3.1-3.6-2.66-4.54.73-1.54 2.99-3.02 4.79-3.28 21.02-3.03 42.07-5.8 63.1-8.7 5.38-.74 10.73-1.74 16.7-2.72-2.64-15.3.48-31.01-7.88-44.78-12.32 3.44-24.99 6.97-37.42 10.44-3.14-4.28-.15-5.04 1.87-6.22 12.63-7.36 25.46-14.41 37.82-22.2 5.42-3.42 10.25-8 14.7-12.67 2.45-2.58 3.95-6.3 5.19-9.75 1.44-4 4.53-6.79 8.21-5.2 7.88 3.42 15.81 6.97 23.06 11.51 5.76 3.61 4.94 6.49-1.31 9.29-11.67 5.22-23.29 10.55-34.91 15.87-1.31.6-2.5 1.47-3.62 2.14 3.98 4.44 8.15 8.36 11.34 12.95 1.42 2.05 1.51 5.53 1.14 8.22-1.18 8.46-2.87 16.84-4.55 26.26 6.65-1.78 11.99-3.86 17.49-4.51 5.61-.66 11.45-.37 17.05.46 1.93.29 3.44 3.45 5.14 5.3-2.22 1.41-4.26 3.57-6.68 4.11-10.18 2.3-20.48 4.06-30.69 6.22-1.31.28-3.35 1.75-3.37 2.7-.23 11.92-.15 23.84-.15 35.85 6.98.7 14.59 1.17 22.12 2.28 11.14 1.64 17.68 8.12 18.52 18.9.24 3.02-1.42 6.81-3.48 9.1-.98 1.09-5.48.31-7.47-1-10.37-6.81-20.46-14.07-30.54-21.1-.01.08-.23 1.28-.25 2.48-.35 22.47-.24 44.95-1.15 67.4-.77 19.04-.2 38.29-5.8 56.86-1.2 3.99-1.29 9.82-6.57 10.01-4.83.18-6.53-5.16-8.32-9.01-5.79-12.41-7.64-24.61-2.85-38.45 4.23-12.23 5.68-25.56 7.25-38.54 2-16.49 2.89-33.11 4.23-49.67.11-1.45.01-2.96.01-5.34z" fill="#010103"/><g fill="#fbfcfa"><path d="m361.2 9.6.8-1c.9.7 1.9 1.4 2.9 2.3l-.9 1.1c-1-1-2-1.8-2.8-2.4zm.5 10.6c.9-2.1 1.6-4.3 2.3-6.7.4.2.8.4 1.3.6-.7 2.1-1.5 4.3-2.2 6.6zm.4-15.2.9-.9c1 .8 2 1.6 2.8 2.4l-1 1c-.9-.9-1.8-1.7-2.7-2.5zm12.5-1.2h1.2v1.4h2.7v1.1h-2.7v2.7h-1.2v-.6h-1.8v1.3h4.9v3.8h-1.2v-.5h-3.7c0 .4-.1.9-.1 1.2h5.1v1h-5.2c0 .5-.1.9-.2 1.2h6v1h-5.2c1.1 1.3 2.9 2 5.5 2.2-.4.4-.7.8-.9 1.3-2.9-.5-4.8-1.6-5.7-3.5h-.1c-.8 1.7-2.7 2.9-5.9 3.6-.2-.4-.6-.8-.9-1.1 2.8-.6 4.6-1.4 5.4-2.5h-4.8v-1h5.3c.1-.3.2-.7.2-1.2h-4.9v-1h5c0-.4 0-.8.1-1.2h-3.5v.5h-1.2v-3.8h4.9v-1.3h-1.8v.5h-1.2v-2.7h-2.7v-1h2.6v-1.4h1.2v1.4h4.7v-1.4zm-6.6 8.3h3.6c0-.4 0-.9 0-1.4h-3.6zm1.9-4.6h4.7v-1.3h-4.7zm6.6 3.2h-3.7v1.4h3.7z"/><path d="m385.3 3.8h1.3v2.2h2.8v-2.2h1.3v2.2h4.1v9.1h1.7v1.3h-16.9v-1.3h1.7v-9.1h4.1v-2.2zm.4 13.1.7 1.2c-1.8.9-3.8 1.9-6 2.9-.2-.4-.5-.8-.8-1.3 2.3-1 4.3-1.9 6.1-2.8zm-3.1-6.4h2.8v-3.2h-2.8zm0 4.6h2.8v-3.3h-2.8zm4-4.6h2.8v-3.2h-2.8zm0 4.6h2.8v-3.3h-2.8zm3.7 1.9c2.1.9 4.1 1.8 6.1 2.7l-.7 1.3c-2.2-1.1-4.2-2-6.1-2.9zm3.2-9.7h-2.8v3.2h2.8zm-2.8 7.8h2.8v-3.3h-2.8z"/></g></svg>