<svg enable-background="new 0 0 400 400" viewBox="0 0 400 400" xmlns="http://www.w3.org/2000/svg"><g fill="#010103"><path d="m128.03 161.78c-.49 10.68-.97 21.09-1.44 31.54 7.5.87 14.76 1.4 21.89 2.61 9.62 1.64 15.19 8.57 19.15 16.7 2.2 4.53.26 8.61-3.46 12.01-3.8 3.47-7.41 2.52-10.69-.2-5.62-4.67-10.95-9.69-16.4-14.56-3.18-2.84-6.36-5.66-9.53-8.5-.45.15-.91.31-1.36.46 0 8.75.2 17.51-.04 26.25-.61 22.95-1.13 45.9-2.27 68.83-.45 9.08-2.4 18.09-3.81 27.11-.33 2.11-1.08 4.18-1.91 6.16-1.46 3.49-2.67 7.77-7.35 7.73-4.95-.04-6.96-4.13-8.26-8.16-2.81-8.75-4.06-17.27-.99-26.65 6.49-19.81 8.79-40.51 10.35-61.23 1.24-16.41 2.05-32.84 3.04-49.27.09-1.45.01-2.9.01-5.76-3.86 6.29-6.96 11.46-10.19 16.56-17.89 28.28-39.26 53.31-67.55 71.8-2.3 1.5-5 2.38-7.51 3.56-.5-.65-.99-1.29-1.49-1.94 2.8-3.32 5.27-7.01 8.45-9.91 29.95-27.4 51.93-60.43 68.88-97.03.2-.43.2-.96.41-2.07-2.63.64-5.02 1.02-7.28 1.8-10.19 3.5-20.36 7.08-30.51 10.68-7.9 2.8-21.02-1.98-25.18-9.25-2.83-4.95-1.31-7.72 4.36-8.09 21.93-1.42 43.56-4.73 64.92-9.94 3.6-.88 4.93-2.25 4.51-6.02-1.42-12.86-2.58-25.75-3.84-38.63-.06-.66-.15-1.33-.31-1.97-2.51-10.64-2.93-10.67-13.33-7.38-7.57 2.4-15.34 4.21-23.1 5.91-1.54.34-3.46-1.04-5.21-1.63 1.17-2.01 1.86-4.77 3.6-5.87 3.62-2.28 7.98-3.36 11.71-5.49 10.96-6.25 21.81-12.68 32.59-19.24 5.72-3.48 9.47-8.68 12.06-14.85 2.81-6.7 5.46-8.03 11.97-4.68 6.74 3.48 12.97 7.96 19.31 12.17 1.33.88 2.33 2.39 3.21 3.78 3.32 5.24 2.05 8.09-3.95 9.83-12.58 3.65-25.12 7.42-37.67 11.17-1.24.37-2.42.91-4.18 1.58 3.91 3.17 7.47 6.01 10.98 8.92 2.46 2.03 3.37 4.28 2.81 7.82-2.17 13.58-3.82 27.25-5.79 41.85 2.63-.6 4.42-1.04 6.22-1.42 6.79-1.42 13.55-3.08 20.4-4.09 2.45-.36 5.62.21 7.57 1.6 1.97 1.41 3.93 4.43 3.79 6.61-.1 1.5-3.63 3.6-5.89 4.01-10.27 1.84-20.63 3.16-31.7 4.78z"/><path d="m194.99 168.39c32.07-8.72 64.14-17.44 96.84-26.34-5.59-9.57-10.55-18.04-16.14-27.62 3.09-.2 4.61-.68 5.88-.31 13.01 3.74 25.68 8.3 35.6 18.08 8.13 8.02 11.59 17.73 9.18 29.07-1.44 6.81-7.53 9.23-12.74 4.72-5.13-4.44-9.57-9.7-14.06-14.81-1.67-1.9-2.88-2.55-5.43-1.53-35.5 14.08-71.07 27.98-106.57 42.05-6.01 2.38-7 2.43-9.37-3.63-1.92-4.91-3.4-10.04-4.47-15.19-.35-1.66.67-4.71 2-5.44 16.62-9.08 27.57-23.63 36.58-39.41 9.04-15.84 16.65-32.52 24.37-49.07 3.07-6.58 3.81-13.63-.06-20.68-1.06-1.93-.62-5.28.34-7.45.42-.96 3.94-1.13 5.88-.75 9.09 1.78 17.48 5.26 24.65 11.28 5.88 4.94 5.57 8.48.83 14.27-9.37 11.45-17.9 23.57-27.22 35.05-14.89 18.34-30.15 36.38-45.25 54.56-.49.59-.91 1.25-1.36 1.88.15.42.34.84.52 1.27z"/><path d="m352.7 236.59c.76 3.72 1.59 7.43 2.26 11.16 2.66 14.93 6.26 29.51 14.08 42.78 2.88 4.89 1.48 11.51-2.86 16.06-6.33 6.64-14.47 9.98-23.19 11.76-21.84 4.44-43.86 5.95-65.73.67-23.99-5.79-33.98-23.58-31.8-48.05.53-5.95 1.04-11.92 1.21-17.89.51-17.63 1.03-35.26 1.19-52.89.07-7.44-1.65-14.52-7.56-19.91-.81-.74-1.57-2.81-1.16-3.34 1.01-1.3 2.78-2.98 4.13-2.88 4.25.3 8.62.84 12.61 2.25 4.65 1.64 9.08 4.07 13.36 6.59 3.8 2.24 5.11 6.06 2.87 9.89-6.02 10.29-6.51 21.82-7.93 33.12-1.51 12.02-2.65 24.09-3.73 36.15-.96 10.75-.87 21.37 6.6 30.32 5.15 6.17 12.27 8.99 19.79 9.19 11.59.31 23.28-.03 34.81-1.27 11.95-1.28 19.1-9.36 23.2-20.18 4.54-12.02 5.28-24.6 5.13-37.29-.02-2.02.35-4.04.54-6.06.71-.06 1.44-.12 2.18-.18z"/><path d="m205.73 204.29c-.99-2.74-2.28-6.04-3.37-9.41-.41-1.27-.97-3.16-.38-3.94.82-1.07 2.65-1.41 4.08-1.95.42-.16 1.07-.09 1.46.13 7.2 4.04 14.49 7.95 21.51 12.3 2.58 1.6 1.69 4 .12 6.45-3.55 5.56-7.13 11.17-9.94 17.12-12.97 27.5-27.2 54.21-49.3 75.64-6 5.82-13.46 10.2-20.51 14.84-1.52 1-4.16.29-6.29.37.91-1.78 1.44-3.95 2.8-5.28 27.11-26.69 45.94-58.38 57.21-94.63 1.08-3.44 1.6-7.05 2.61-11.64z"/></g><path d="m361.2 9.6.8-1c.9.7 1.9 1.4 2.9 2.3l-.9 1.1c-1-1-2-1.8-2.8-2.4zm.5 10.6c.9-2.1 1.6-4.3 2.3-6.7.4.2.8.4 1.3.6-.7 2.1-1.5 4.3-2.2 6.6zm.4-15.2.9-.9c1 .8 2 1.6 2.8 2.4l-1 1c-.9-.9-1.8-1.7-2.7-2.5zm12.5-1.2h1.2v1.4h2.7v1.1h-2.7v2.7h-1.2v-.6h-1.8v1.3h4.9v3.8h-1.2v-.5h-3.7c0 .4-.1.9-.1 1.2h5.1v1h-5.2c0 .5-.1.9-.2 1.2h6v1h-5.2c1.1 1.3 2.9 2 5.5 2.2-.4.4-.7.8-.9 1.3-2.9-.5-4.8-1.6-5.7-3.5h-.1c-.8 1.7-2.7 2.9-5.9 3.6-.2-.4-.6-.8-.9-1.1 2.8-.6 4.6-1.4 5.4-2.5h-4.8v-1h5.3c.1-.3.2-.7.2-1.2h-4.9v-1h5c0-.4 0-.8.1-1.2h-3.5v.5h-1.2v-3.8h4.9v-1.3h-1.8v.5h-1.2v-2.7h-2.7v-1h2.6v-1.4h1.2v1.4h4.7v-1.4zm-6.6 8.3h3.6c0-.4 0-.9 0-1.4h-3.6zm1.9-4.6h4.7v-1.3h-4.7zm6.6 3.2h-3.7v1.4h3.7z" fill="#fbfcfa"/><path d="m385.3 3.8h1.3v2.2h2.8v-2.2h1.3v2.2h4.1v9.1h1.7v1.3h-16.9v-1.3h1.7v-9.1h4.1v-2.2zm.4 13.1.7 1.2c-1.8.9-3.8 1.9-6 2.9-.2-.4-.5-.8-.8-1.3 2.3-1 4.3-1.9 6.1-2.8zm-3.1-6.4h2.8v-3.2h-2.8zm0 4.6h2.8v-3.3h-2.8zm4-4.6h2.8v-3.2h-2.8zm0 4.6h2.8v-3.3h-2.8zm3.7 1.9c2.1.9 4.1 1.8 6.1 2.7l-.7 1.3c-2.2-1.1-4.2-2-6.1-2.9zm3.2-9.7h-2.8v3.2h2.8zm-2.8 7.8h2.8v-3.3h-2.8z" fill="#fbfcfa"/></svg>