<svg enable-background="new 0 0 400 400" viewBox="0 0 400 400" xmlns="http://www.w3.org/2000/svg"><path d="m234.63 221.92c0-10.69 0-20.47 0-31-5.61.57-10.98 1.65-16.33 1.54-9.24-.2-18.48-.91-27.66-1.94-1.95-.22-3.65-2.71-5.46-4.16 2-.82 3.93-2.08 6-2.4 14.4-2.23 28.82-4.28 43.7-6.44-.58-13.67-.41-26.24-6.12-38.03-1.09-2.25-.81-5.17-1.16-7.78 2.64-.32 5.62-1.6 7.84-.79 6.81 2.47 13.55 5.33 19.89 8.83 5.03 2.77 5.49 6.14 3.82 11.51-2.06 6.59-3.78 13.29-5.84 20.59 1.55-.33 2.76-.5 3.91-.85 13.8-4.19 27.48-8.81 41.41-12.46 7.81-2.04 15.59-.66 21.71 5.49 3.91 3.93 3.68 6.2-1.7 7.68-10.38 2.85-20.93 5.06-31.46 7.33-10.39 2.24-20.82 4.24-31.25 6.31-3.12.62-4.6 2.1-4.93 5.58-.87 9.07-2.29 18.09-3.57 27.73 6.53-.45 12.41-1.66 16.93-6.22 2.36-2.38 4.75-3.19 7.53-1.57 6.15 3.58 12.55 6.9 18.14 11.24 5.98 4.64 5.08 8.53-.38 13.59-3.81 3.53-6.91 8.09-9.48 12.68-7.45 13.33-14.47 26.9-21.97 40.96 32.77 29.01 73.94 41.19 115.88 51.73-.04.66-.07 1.31-.11 1.97-2.98.84-5.91 2.21-8.93 2.44-18.38 1.39-36.76 2.96-55.18 3.57-9.99.33-18.74-4.11-25.86-11.24-11.74-11.75-23.4-23.57-35.2-35.47-7.74 4.76-15.85 10.25-24.4 14.9-20.11 10.93-41.8 16.83-64.56 18.89-.83.08-1.77.34-2.48.06-1.86-.72-3.61-1.7-5.41-2.58 1.6-1.37 3.02-3.64 4.81-3.98 14.6-2.75 28.73-6.76 41.96-13.7 13.12-6.88 24.53-15.84 34.88-27.85-7.19-7.92-13.83-16.27-21.55-23.46-7.51-7-16.13-12.82-25.34-20 11.75-2.25 21.22-.98 29.03 6.56 8.62 8.33 16.94 16.97 25.92 26.01 1.76-2.53 3.68-4.58 4.78-7 4.78-10.55 9.92-20.99 13.77-31.88 3.15-8.9-.76-13.17-9.78-11.04-8.8 2.08-17.25 5.6-25.91 8.33-2.3.73-5.24 1.91-7.11 1.1-6.23-2.71-12.12-6.24-18.13-9.45.21-.67.41-1.33.62-2 11.46-1.09 22.89-2.19 34.73-3.33z" fill="#010100"/><path d="m121.71 213.01c-7.81 0-14.48-.27-21.1.18-1.86.13-3.91 2.08-5.31 3.69-15.82 18.16-33.02 34.79-53.38 47.84-3.66 2.34-7.87 3.82-11.82 5.7-.49-.52-.98-1.04-1.47-1.56 1.47-2.03 2.66-4.36 4.46-6.04 18.73-17.6 36.12-36.42 51.4-57.11 15-20.31 27.47-41.97 35.03-66.22.49-1.58.93-3.18 1.3-4.8.1-.44-.1-.94-.24-1.97-5.15 1.17-10.17 2.32-15.2 3.47-.2-.28-.39-.56-.59-.84 3.09-2.58 6.32-5.02 9.25-7.77 6.41-6.04 13.31-11.72 18.78-18.54 3.9-4.87 6.21-11.2 8.44-17.17 1.55-4.16 2.92-6.82 8-5.35 4.27 1.24 8.83 1.55 12.99 3.04 2.51.9 4.91 2.92 6.65 5.02 3.44 4.16 2.93 5.62-1.51 8.5-13.67 8.85-27.3 17.77-41.07 26.74 3.42 2.26 7.27 4.46 10.72 7.17 5.79 4.54 5.76 9.45.53 14.63-1.94 1.92-3.41 4.31-5.11 6.51 9.64 1.33 18.77 1.95 27.55 4.05 5.45 1.3 10.55 4.57 15.44 7.55 1.93 1.17 3.62 3.81 4.08 6.05.55 2.68.66 6.56-.87 8.24-1.43 1.57-5.79 2.07-7.98 1.08-11.49-5.19-22.7-10.98-33.99-16.6-2.36-1.18-4.64-2.53-6.67-3.64-8.12 13.11-16.05 25.91-24.23 39.13 3.3-.8 6.74-1.37 10-2.48 8-2.73 15.99-5.53 23.85-8.64 6.48-2.57 12.98-4.43 19.79-1.93 1.9.7 4.67 2.85 4.59 4.19-.12 2.19-1.77 5.41-3.63 6.2-7.45 3.18-15.23 5.59-22.88 8.29-1.51.53-3.03 1.07-6.23 2.2 10.84 4.07 10.25 11.04 7.29 18.92-.69 1.84-.1 4.16-.1 6.98 6.14-1.66 12.12-3.39 18.16-4.84 2.54-.61 5.59-1.58 7.74-.72 2.58 1.03 5.01 3.55 6.3 6.05.43.84-2.49 4.62-4.48 5.28-8.65 2.88-17.45 5.38-26.33 7.44-3.57.83-4.88 1.9-4.9 5.74-.08 14.14-.59 28.29-.92 42.43-.05 2.15-.01 4.31-.01 7.35 8.2-3.15 15.88-6.13 23.58-9.03 5.11-1.92 10.19-4.03 15.45-5.4 2.13-.55 6.23-.06 6.79 1.15 1.62 3.56-2.18 4.73-4.55 5.8-14.37 6.53-28.86 12.82-43.27 19.27-16.53 7.41-33.06 14.83-49.49 22.46-3.83 1.78-6.78 1.47-9.99-1.2-5.45-4.54-11.13-8.81-17.7-13.96 10.68-2.05 20.11-3.47 29.33-5.73 11.76-2.88 23.38-6.36 34.99-9.8 1.35-.4 3.25-2.17 3.26-3.33.21-16.47.15-32.94.15-49.42-9.11.66-17.8 1.53-26.52 1.82-3.56.12-7.22-.75-10.72-1.63-1.36-.34-3.5-2.2-3.35-2.95.31-1.48 1.75-3.41 3.14-3.86 5.66-1.83 11.44-3.34 17.26-4.63 5.66-1.26 11.43-2 17.1-3.23 1.15-.25 2.92-1.66 2.92-2.53-.05-8.97-.41-17.9-.7-27.24z" fill="#010100"/><path d="m330.28 90.75c-20.5 3.91-39.34 7.5-59.78 11.4 2.07-4.21 3.5-7.42 5.18-10.48 1.75-3.2 4.13-6.1 5.55-9.43 2.93-6.83.04-11.25-7.38-11.11-8.81.17-17.62.66-26.4 1.35-13.24 1.04-26.47 2.3-39.7 3.58-19.18 1.86-38.34 3.83-57.51 5.75-11.07 1.11-22.13 2.38-33.22 3.21-4.39.33-7.06 1.5-9.05 5.93-2.83 6.31-6.43 12.45-10.72 17.86-2.97 3.75-7.47 6.42-11.61 9.05-2.85 1.8-5.7.73-6.69-2.67-2.08-7.15-3.31-14.22 2.87-20.37 7.29-7.25 12.98-15.48 15.48-25.72 1.1-4.51 4.94-5.28 8.36-2 1.3 1.25 2.8 2.72 3.25 4.35 1.62 5.83 5.74 5.99 10.58 5.47 21.47-2.3 42.96-4.32 64.41-6.77 19.12-2.19 38.21-4.7 57.28-7.28 11.84-1.6 23.63-3.58 35.44-5.39.98-.15 2.06-.58 2.93-.33 14.9 4.33 29.68 9.06 40.94 20.48 3.53 3.58 6.11 8.11 9.79 13.12z" fill="#010100"/><path d="m204.58 80.07c10.73-.75 20.15 2.77 29.74 5.27 1.44.38 2.81 1.14 4.26 1.37 13.26 2.11 20.27 11.76 26.5 22.17 1.29 2.15 1.95 5.02 1.91 7.55-.05 3.73-4.51 6.47-7.97 5.03-21.05-8.76-39.89-20.58-53.59-39.38-.27-.36-.38-.86-.85-2.01z" fill="#010100"/><path d="m167.92 29.42c15-5.48 34.72-1.73 43.11 7.89 5.55 6.36 5.93 14.15.66 19.77-1.02 1.09-3.28 2.05-4.57 1.67-16.55-4.81-29.7-14.29-39.2-29.33z" fill="#010100"/><path d="m179.69 261.57c-9.8 12.27-20.37 21.55-31.47 30.25-.52-.36-1.04-.72-1.57-1.07.76-1.78 1.36-3.66 2.3-5.34 2.75-4.92 5.98-9.59 8.34-14.68 1.7-3.66 2.92-7.77 3.24-11.78.39-4.75 2.2-5.92 6.22-4.03 4.23 1.99 8.31 4.25 12.94 6.65z" fill="#010100"/><path d="m87.73 268.1c9.95 3.41 19.18 15.65 18.31 23.24-.68 5.9-4.04 8.78-9.16 7.71-.87-.18-2.09-.68-2.39-1.36-4.02-9.25-6.81-18.79-6.76-29.59z" fill="#010100"/><g fill="#fafafa"><path d="m12.4 4.8-6.1 9h6v1.2h-8v-.5l6.1-8.9h-5.7v-1.2h7.6v.4z"/><path d="m14 15v-10.6h3c1.6 0 2.9.5 4 1.4s1.6 2.2 1.6 3.8-.5 3-1.6 3.9-2.4 1.5-4 1.5zm1.4-9.4v8.2h1.6c1.3 0 2.4-.4 3.1-1.1s1.1-1.8 1.1-3.1-.4-2.3-1.2-3-1.8-1-3.1-1z"/><path d="m26.1 4.4v10.6h-1.4v-10.6z"/><path d="m36.1 14.6c-.8.4-1.8.6-2.9.6-1.5 0-2.7-.5-3.6-1.4s-1.4-2.2-1.4-3.8c0-1.7.5-3.1 1.5-4.1s2.3-1.6 3.9-1.6c1 0 1.8.1 2.5.4v1.4c-.8-.4-1.6-.6-2.5-.6-1.2 0-2.1.4-2.9 1.2s-1.1 1.8-1.1 3.2c0 1.3.3 2.3 1 3s1.6 1.1 2.7 1.1c1 0 2-.2 2.7-.7v1.3z"/><path d="m37.6 14.3c0-.2.1-.5.3-.6s.4-.3.6-.3c.3 0 .5.1.6.3s.3.4.3.6-.1.4-.3.6-.4.3-.6.3c-.3 0-.5-.1-.6-.3s-.3-.4-.3-.6z"/><path d="m50.2 15h-1.6l-5.3-8.2c-.2-.2-.3-.5-.4-.7 0 .2.1.7.1 1.5v7.4h-1.4v-10.6h1.7l5.2 8.1c.2.4.4.6.4.7 0-.3-.1-.8-.1-1.5v-7.3h1.4z"/><path d="m58.6 15h-5.7v-10.6h5.5v1.2h-4.1v3.4h3.8v1.2h-3.8v3.6h4.3z"/><path d="m67.1 5.6h-3.1v9.4h-1.4v-9.4h-3v-1.2h7.5z"/></g></svg>