<svg enable-background="new 0 0 400 400" viewBox="0 0 400 400" xmlns="http://www.w3.org/2000/svg"><path d="m194.97 368.17c-6.41-6.7-6.74-13.9-6.93-20.69-.66-23.46-.78-46.94-1.11-70.41-.02-1.8 0-3.6 0-6.13-7.33.78-14.23 1.22-21.03 2.3-26.22 4.18-52.42 8.48-78.59 12.94-4.7.8-9.16 3.23-13.86 3.74-5.47.59-11.29.77-16.56-.5-5.7-1.37-11.09-4.36-16.33-7.17-1.92-1.03-3.03-3.58-4.52-5.44 2.04-1.23 3.95-3.15 6.14-3.55 4.72-.85 9.59-.86 14.39-1.32 22.82-2.23 45.65-4.41 68.46-6.77 15.7-1.62 31.37-3.49 47.05-5.26 4.77-.54 9.53-1.14 14.55-1.74 0-11.73 0-23.13 0-35.24-7.5.84-14.85 1.63-22.2 2.5-7.09.84-14.15 1.93-21.26 2.57-3.06.28-4.83.83-5.23 4.42-.19 1.67-2.14 3.93-3.74 4.39-1.24.36-3.81-1.25-4.66-2.67-1.68-2.8-2.92-5.97-3.74-9.15-4.36-16.86-8.53-33.76-12.79-50.65-2.68-10.64-7.33-20.25-14.43-28.71-2.06-2.45-3.46-5.45-6.08-9.65 3.94 0 6.37-.34 8.66.06 15.02 2.62 29.84 0 44.69-1.6 16.52-1.78 33.03-3.61 49.53-5.53 22.74-2.64 45.61-4.45 67.73-10.95.64-.19 1.38-.2 1.91-.55 7.6-5.06 14.88-3.04 21.85 1.21 7.06 4.3 13.99 8.83 20.8 13.51 3.16 2.17 3.15 5.24.97 8.31-.1.14-.15.31-.26.43-14.9 15.64-18.89 36.67-27.36 55.48-3.34 7.42-6.25 15.03-9.49 22.5-.92 2.11-2.1 4.19-3.56 5.95-4.38 5.29-11.17 4.83-13.59-1.5-1.84-4.81-4.37-4.76-8.56-4.42-12.92 1.04-25.89 1.54-38.84 2.26-.8.04-1.6.2-2.65.33v35.39c13.85-1.52 27.39-2.8 40.86-4.54 25.53-3.29 50.95-7.8 76.57-9.92 13.93-1.15 27.06 4.54 37.86 14.1 1.31 1.16 2.28 2.89 2.97 4.54 1.77 4.23.18 7.05-4.45 7.04-6.8-.01-13.59-.9-20.4-1.05-17.97-.39-35.96-.99-53.92-.75-20.12.27-40.24 1.34-60.36 2.13-6.28.24-12.56.69-19.44 1.07v5.51c-.02 18.33.4 36.67-.24 54.98-.34 9.88-2.24 19.74-3.98 29.51-.46 2.8-2.84 5.27-4.83 8.69zm9.35-156.72c15.37-1.27 30.09-2.53 44.82-3.66 3.31-.25 5.49-1.2 6.42-4.82 1.28-4.98 3.47-9.73 4.69-14.72 3.4-13.82 7.61-27.57 9.41-41.62 1.77-13.86-2.35-16.77-16.34-15.13-10.06 1.18-20.1 2.43-30.15 3.74-6.89.9-13.77 1.95-21.49 3.05 7.46 5.42 7.19 5.34 4.74 13.63-1.47 4.97-1.93 10.24-2.93 15.89 7.65-2.03 14.14-4.05 20.77-5.44 6.25-1.31 12.29.1 17.5 3.77 3.62 2.55 3.15 5-.92 6.29-3.46 1.1-7 2.05-10.57 2.67-8.62 1.51-17.28 2.8-25.97 4.19.02 10.84.02 21.26.02 32.16zm-19.7-71.51c-20.03 2.87-39.31 5.64-58.46 8.39 4.49 23.69 8.9 46.89 13.37 70.45 15.48-1.9 31.35-3.84 47.11-5.77 0-10.65 0-20.57 0-30.72-12.84-.6-25.56 1.55-38.07-2.12 11.03-8.4 25.21-4.71 37.39-10.28-.44-9.71-.88-19.59-1.34-29.95z" fill="#010100"/><path d="m61.36 135.99c1.77-2.54 3.36-5.21 5.33-7.58 13.94-16.8 27.3-34 36.31-54.08 5.3-11.82 8.86-23.98 6.32-37.21-.17-.89 1.5-3.07 2.35-3.09 8.36-.2 16.54.78 24.1 4.86 3.64 1.97 5.1 4.33 2.91 8.34-3.74 6.84-7.29 13.79-10.94 20.68-1 1.89-2.06 3.75-3.9 7.1 11.32-3.2 21.2-6.37 31.28-8.71 8.5-1.98 17.2-3.09 25.85-4.36 1.51-.22 3.28.48 4.75 1.14 4.53 2.06 5.16 6.56.7 8.55-6.58 2.93-13.58 5.33-20.65 6.63-11.71 2.15-23.62 3.23-35.44 4.76-.33.04-.7.09-.99-.01-8.03-2.92-11.7 1.42-15.77 7.8-10.75 16.85-24.41 31.16-41.46 41.92-2.97 1.88-6.2 3.33-9.32 4.97-.5-.58-.96-1.14-1.43-1.71z" fill="#010100"/><path d="m185.06 109.67c2.05-2.9 3.97-5.92 6.19-8.69 10.42-13.01 20.39-26.31 27.48-41.5 4.44-9.51 7.08-19.33 4.23-29.92-.19-.72.08-1.57.15-2.66 11.22-1.52 20.28 3.24 28.92 8.93.9.59.97 3.75.3 5.2-2.84 6.15-6.1 12.1-9.63 18.93 9.87-2.64 19.18-5.14 28.49-7.61 9.78-2.6 19.46-5.67 29.37-7.59 7.54-1.46 14.34 1.82 19.89 6.89 2.99 2.73 2.21 6.23-1.92 7.87-4.89 1.95-10.06 3.5-15.26 4.32-16.27 2.57-32.62 4.52-49.15 3.26-3.29-.25-6.74-.49-9.77-1.64-4.19-1.59-6.19.12-9 3.03-11.75 12.19-23.73 24.18-36.06 35.78-3.44 3.23-8.37 4.88-12.62 7.25-.54-.62-1.08-1.24-1.61-1.85z" fill="#010100"/><path d="m233.36 86.68c8.41-4.74 16.11-3.76 23.77-2.31 3.56.68 6.97 2.12 10.52 2.9 5.6 1.23 8.63 5.26 11.15 9.83 1.89 3.43 2.1 6.91-.45 10.25-2.54 3.32-5.89 3.35-9.45 2.44-11.81-3.01-21.08-10.16-29.74-18.32-1.69-1.57-3.56-2.95-5.8-4.79z" fill="#010100"/><path d="m118.86 97.35c2.26-.18 4.04-.61 5.75-.42 10.14 1.09 18.67 5.65 25.73 12.84 2.58 2.62 3.63 6.05 1.06 9.47-2.64 3.51-5.65 4.99-10.32 3.13-11.03-4.42-18.64-12.43-22.22-25.02z" fill="#010100"/><g fill="#fafafa"><path d="m12.4 4.8-6.1 9h6v1.2h-8v-.5l6.1-8.9h-5.7v-1.2h7.6v.4z"/><path d="m14 15v-10.6h3c1.6 0 2.9.5 4 1.4s1.6 2.2 1.6 3.8-.5 3-1.6 3.9-2.4 1.5-4 1.5zm1.4-9.4v8.2h1.6c1.3 0 2.4-.4 3.1-1.1s1.1-1.8 1.1-3.1-.4-2.3-1.2-3-1.8-1-3.1-1z"/><path d="m26.1 4.4v10.6h-1.4v-10.6z"/><path d="m36.1 14.6c-.8.4-1.8.6-2.9.6-1.5 0-2.7-.5-3.6-1.4s-1.4-2.2-1.4-3.8c0-1.7.5-3.1 1.5-4.1s2.3-1.6 3.9-1.6c1 0 1.8.1 2.5.4v1.4c-.8-.4-1.6-.6-2.5-.6-1.2 0-2.1.4-2.9 1.2s-1.1 1.8-1.1 3.2c0 1.3.3 2.3 1 3s1.6 1.1 2.7 1.1c1 0 2-.2 2.7-.7v1.3z"/><path d="m37.6 14.3c0-.2.1-.5.3-.6s.4-.3.6-.3c.3 0 .5.1.6.3s.3.4.3.6-.1.4-.3.6-.4.3-.6.3c-.3 0-.5-.1-.6-.3s-.3-.4-.3-.6z"/><path d="m50.2 15h-1.6l-5.3-8.2c-.2-.2-.3-.5-.4-.7 0 .2.1.7.1 1.5v7.4h-1.4v-10.6h1.7l5.2 8.1c.2.4.4.6.4.7 0-.3-.1-.8-.1-1.5v-7.3h1.4z"/><path d="m58.6 15h-5.7v-10.6h5.5v1.2h-4.1v3.4h3.8v1.2h-3.8v3.6h4.3z"/><path d="m67.1 5.6h-3.1v9.4h-1.4v-9.4h-3v-1.2h7.5z"/></g></svg>