<svg enable-background="new 0 0 400 400" viewBox="0 0 400 400" xmlns="http://www.w3.org/2000/svg"><path d="m6.4 11.7c-1-.8-1.9-1.6-2.9-2.3l.6-.7c.9.7 1.9 1.4 2.9 2.2zm-2.1 8.3c.7-2.1 1.4-4.2 2-6.4.2.1.6.3 1 .4-.7 2.3-1.3 4.4-1.9 6.4zm3-12.8c-1.1-.9-2.1-1.7-2.9-2.4l.6-.7c1 .8 2 1.5 3 2.4zm1.4-1.3v-.9h10.2v.9c-.9 4.2-2.3 7.3-4.1 9.4 1.3 1.4 3.2 2.7 5.7 4-.2.2-.4.5-.7.9-2.5-1.4-4.4-2.7-5.7-4.2-1.4 1.5-3.5 3-6.1 4.4 0 0 0 0-.1-.1-.3-.4-.5-.7-.7-.8 2.7-1.3 4.7-2.8 6.2-4.2-1.8-2.2-3-5.3-3.7-9.4zm9.2 0h-7.1c.6 3.8 1.7 6.7 3.4 8.7 1.7-2 2.9-4.8 3.7-8.7z" fill="#fbfcfa"/><path d="m31.6 3.6h.9v2.3h4.1v9.1h1.7v.9h-16.6v-.9h1.7v-9.1h4.1v-2.3h.9v2.3h3.1v-2.3zm-4 13.3.6.8c-1.9.9-3.8 1.9-5.8 2.8-.2-.3-.3-.6-.5-.9 2-.9 3.9-1.8 5.7-2.7zm-3.2-10.1v3.7h3.1v-3.7zm0 4.5v3.7h3.1v-3.7zm4.1-4.5v3.7h3.1v-3.7zm0 4.5v3.7h3.1v-3.7zm9.1 9.1c-2.1-1.1-4.1-2-5.8-2.7l.5-.8c2.2.9 4.1 1.8 5.8 2.6zm-1.9-13.6h-3.1v3.7h3.1zm-3.2 4.5v3.7h3.1v-3.7z" fill="#fbfcfa"/><g fill="#010101"><path d="m271.19 255.32c-15.98 3.56-31.78 7.08-48.73 10.85v42.37c4.95-2.21 10.41-4.79 15.97-7.1 5.21-2.17 10.44-4.4 15.85-5.91 2.06-.57 4.67.82 7.03 1.32-1.3 1.65-2.31 3.69-3.94 4.9-11.23 8.29-22.91 16.01-33.76 24.77-5.03 4.06-8.8 9.84-12.65 15.19-4.06 5.63-7.16 6.26-10.96.61-3.21-4.77-5.71-10.08-7.97-15.38-.63-1.48.02-4.6 1.22-5.58 8.33-6.78 11.4-16.21 13.34-26.06 3.22-16.34 5.09-32.85 4.34-49.55-.48-10.61-.72-21.24-5.32-31.2-.77-1.68-.75-4.46.18-5.91.56-.87 3.67-.52 5.49-.08 2.39.57 5.05 1.26 6.85 2.78 4.19 3.54 7.69 2.16 11.5-.45 11.8-8.06 23.81-15.82 35.41-24.15 3.55-2.55 6.17-6.47 8.99-9.94 1.88-2.31 3.71-3.23 6.85-2.43 8.28 2.1 15.77 5.17 20.76 13.98-10.33 3.59-20.36 7.08-30.95 10.76 1.35 1.61 2.04 2.77 3.03 3.55 2.93 2.32 3.47 5.05 3.05 8.77-1.07 9.4 1.37 18.36 4.66 28.28 5.82-2.85 11.32-5.33 16.62-8.19 7.36-3.97 14.72-3.61 21.99-.23 1.83.85 3 3.13 4.47 4.75-1.83 1.29-3.48 3.13-5.51 3.79-9.63 3.1-19.38 5.85-29.07 8.77-1.88.57-3.71 1.32-5.99 2.14 8.35 22.18 15.89 44.42 33.23 61.38 5.24 5.13 11.55 8.26 19.04 8.87 4.12.34 6.95-1.16 7.93-5.12 2.07-8.35 3.83-16.78 5.8-25.16.94-4.01 2.08-7.97 3.13-11.96.91.09 1.82.19 2.73.28.38 4.8.85 9.6 1.11 14.41.69 12.56 1.27 25.13 1.92 37.69.1 1.99.51 3.98.51 5.96 0 5.85-2.35 8.28-8.23 8.06-15.37-.56-28.73-6.32-40.21-16.41-16.24-14.27-25.59-32.92-32.92-52.76-2.52-6.82-4.55-13.8-6.79-20.66zm-45.66 1.84c13.93-3.7 28.26-7.51 43.25-11.5-3.64-13.57-7-26.09-10.4-38.76-10.54 5.2-20.4 9.93-30.09 14.99-1.36.71-2.6 3.04-2.64 4.65-.24 9.94-.12 19.88-.12 30.62z"/><path d="m102.96 308.37c2.08 1.11 4.19 2.15 6.22 3.33 4.15 2.41 8.04 5.38 12.41 7.25 6.69 2.87 10.8 1.56 15.42-3.92 8.59-10.16 12.77-22.17 13.71-35.21.55-7.61.04-15.31-.15-22.97-.1-4.15-1.66-6.73-6.26-8.26-4.59-1.52-8.52-5.05-13.11-7.92-20.29 37.23-43.66 71.67-86.72 86.24 37.27-31.45 65.11-69.23 79.8-117.4-4.14 1.2-7.45 2.02-10.67 3.12-10.49 3.59-20.8 7.78-31.47 10.69-3.96 1.08-8.9-.12-13.05-1.39-5.65-1.73-11.05-4.39-16.4-6.96-1.37-.66-2.19-2.47-3.68-4.26 11.11-1.35 21.39-1.93 31.37-3.93 27.3-5.47 54.47-11.58 81.71-17.33 6.78-1.43 13.62-3.01 20.49-3.36 3.07-.16 6.28 2.52 9.43 3.92-2.66 1.68-5.12 4.14-8.03 4.92-14.73 3.96-29.57 7.48-44.37 11.16-.76.19-1.48.53-3.2 1.15 8.08 6.81 6.34 13.41.87 20.32-1.73 2.19-2.15 5.41-3.62 9.37 4.71 0 8.72.53 12.53-.11 8.49-1.43 15.27 1.59 21.46 6.91 1.64 1.41 3.43 2.64 5.06 4.05 8.16 7.05 8.13 7.09 1.22 15.18-6.09 7.13-6.89 16.02-7.82 24.76-2.56 24.14-12.38 44.58-30.51 60.87-1.46 1.31-3.17 2.54-4.98 3.23-4.76 1.81-6.87.54-8.09-4.4-2.97-12.08-9.04-22.42-17.44-31.51-1.55-1.68-2.51-3.89-3.75-5.85.55-.58 1.08-1.14 1.62-1.69z"/><path d="m186.93 123.04c5.29-5.9 10.82-11.6 15.83-17.72 10.75-13.13 21.15-26.6 27.9-42.3 3.54-8.24 5.77-16.95 3.6-26.2-.8-3.42 2.02-5.67 4.93-4.27 6.11 2.95 12.21 5.93 18.25 9.04 6.12 3.15 6.38 6.96 1.85 12.22-7.53 8.75-14.64 17.86-21.93 26.81.43.65.86 1.29 1.29 1.94 15.34-3.96 30.61-8.21 46.04-11.78 9.31-2.16 18.83-3.58 28.33-4.66 3.04-.35 6.52 1.07 9.44 2.45 1.6.76 3.27 3.1 3.33 4.78.04 1.13-2.52 2.94-4.22 3.44-8.91 2.61-17.81 5.41-26.9 7.17-14.14 2.75-28.38 5.05-42.67 6.83-5.32.66-10.97-.25-16.32-1.24-3.18-.59-4.83.11-6.67 2.53-9.16 12.05-20.2 22.06-33.27 29.72-2.42 1.42-5.31 2.04-7.98 3.03-.27-.6-.55-1.2-.83-1.79z"/><path d="m232.5 160.49c18.13-1.46 33.98-5.83 49.34-12.22 7.18-2.99 14.24-6.47 21.69-8.56 4.98-1.4 10.53-.97 15.82-.86 1.88.04 3.74 1.56 6.78 2.93-2.47 2.05-3.87 3.64-5.61 4.58-23.5 12.76-48.6 20.33-75.22 22.83-1.82.17-3.72 1.03-5.41.7-9.06-1.76-13.18 3.89-18.29 10.08-9.4 11.37-20.09 21.69-30.38 32.32-.95.98-2.83 1.07-4.28 1.57-.02-1.69-.69-3.77.06-4.98 2.62-4.23 5.76-8.12 8.63-12.2 10.1-14.35 18.12-29.78 23.72-46.43 2.78-8.28 3.24-16.51-.28-24.8-.67-1.58-.02-3.71.03-5.59 1.66.11 3.54-.25 4.95.39 6.64 3.04 13.28 6.12 19.66 9.65 5.43 3.01 5.51 5.74 1.96 10.72-4.39 6.15-8.38 12.59-13.17 19.87z"/><path d="m68.62 139.14c.76-.95 1.4-2.04 2.31-2.83 20.5-17.77 35.84-39.67 49.82-62.61 4.04-6.63 5.41-13.8 2.04-21.42-2.04-4.61-.49-6.57 4.53-5.28 6.32 1.62 12.68 3.6 18.54 6.42 5.52 2.66 5.8 6.06 2.21 11.32-5.25 7.69-10.55 15.36-15.82 23.05-.74 1.08-1.38 2.23-2.91 4.74 9.53-2.28 17.81-4.04 25.95-6.28 7.34-2.02 14.45-4.93 21.83-6.79 7.31-1.84 14.57-.97 21.13 3.12 1.12.7 2.19 2.1 2.41 3.34.11.6-1.67 1.91-2.8 2.31-18.48 6.57-37.08 12.76-57 12.74-4.08 0-8.4-.64-12.15-2.14-3.41-1.36-4.78.12-6.65 2.14-13.04 14.13-27.28 26.85-43.96 36.58-2.61 1.52-5.74 2.14-8.63 3.18-.28-.53-.56-1.06-.85-1.59z"/><path d="m119.43 148.39c6.69.55 13.51.48 20.05 1.79 10.63 2.14 17.37 10.91 16.41 21.03-.28 2.97-1.96 6.87-4.26 8.23-1.67.99-6.11-.74-8.08-2.59-7.36-6.9-14.27-14.29-21.21-21.62-1.43-1.51-2.31-3.54-3.45-5.33.18-.5.36-1 .54-1.51z"/><path d="m246.73 99.53c7.11 2.48 14.67 4.12 21.22 7.64 7.99 4.3 9.95 14.48 5.24 22.21-.59.97-3.86 1.6-4.73.91-8.87-6.93-17.61-14.04-26.08-21.45-1.53-1.34-1.66-4.26-2.44-6.46 2.04-.7 4.08-1.39 6.12-2.09.21-.25.44-.5.67-.76z"/><path d="m129.47 114.01c9.22-3.53 26.95 1.14 31.48 8.34 1.76 2.8 2.98 6.94 2.35 10.06-1.73 8.63-7.5 10.16-13.65 4-5.73-5.75-11.2-11.76-16.72-17.72-1.19-1.3-2.11-2.85-3.46-4.68z"/><path d="m301.58 202.15c.81-1.08.95-1.44 1.21-1.6 7.03-4.31 26.42-1.74 31.66 4.34 2.22 2.58 4.96 5.5 2.69 9.24-2.49 4.1-6.47 3.5-10.17 1.99-6.27-2.56-12.55-5.16-18.58-8.23-2.6-1.31-4.6-3.83-6.81-5.74z"/></g></svg>