<svg enable-background="new 0 0 400 400" viewBox="0 0 400 400" xmlns="http://www.w3.org/2000/svg"><g fill="#010103"><path d="m78.37 322.45c6.41.52 12.81 1.3 19.23 1.47 6.63.18 8.12-1.58 8.3-8.2.33-12.31 1.02-24.61.91-36.91-.09-10.1-1.78-20.07-5.96-30.88-10.91 3.88-21.56 7.39-31.99 11.47-7.03 2.75-8.15 2.8-12.83-3-1.46-1.81-3.37-3.29-4.61-5.23-2.46-3.83-1.51-6.37 2.88-7.33 26.33-5.75 44.51-23.6 62.46-41.81.43-.43.62-1.1.92-1.65-.22-.5-.44-1-.67-1.5-13.35 4.78-26.79 9.34-40 14.47-4.49 1.74-6.01 1.94-8.32-2.41-1.4-2.64-2.83-5.28-4.03-8.01-1.77-4.03-.54-6.67 3.68-7.22 5.47-.71 9.5-3.22 12.85-7.59 6.75-8.83 14.26-17.12 20.59-26.23 3.4-4.9 5.03-11.03 7.74-17.26-17.02-.88-31.48 9.02-46.56 5.4-3.36 9.38-6.17 18.18-9.72 26.68-1.7 4.06-4.68 7.63-7.34 11.23-2.67 3.61-4.57 3.59-6.44-.63-4.01-9.02-4.1-18.19 1.67-26.58 5.94-8.63 10.02-17.9 11.87-28.21.31-1.73 1.3-3.33 1.99-5.03 5.11 2.86 5.31 3.23 6.9 12.51 16.23.04 31.92-3.98 47.86-7.1 0-9.93 0-19.55 0-29.18-25.33 2.83-37.25 1.03-42.28-6.16 14.03-1.96 28.17-3.94 43.45-6.08-1.25-11.77-1.92-22.37-3.73-32.77-.68-3.9-4.17-7.26-6.05-11.03-.93-1.86-2.2-4.97-1.41-5.93 1.21-1.47 4.53-2.69 6.17-2.04 6.74 2.67 13.3 5.89 19.72 9.28 4.81 2.55 4.79 6.62 3.48 11.6-2.29 8.71-3.72 17.65-5.81 28.01 6.82-2.03 12.12-3.18 17.1-5.18 8.59-3.44 17.18-5.44 26.04-1.54 2.19.96 3.8 3.23 5.67 4.9-1.88 1.38-3.57 3.43-5.67 4.04-14.17 4.13-28.43 7.96-43.16 12.02-.95 8.77-1.97 18.24-3.12 28.84 10.38-1.79 20.36-3.16 30.15-5.34 6.43-1.43 12.51-4.33 18.91-5.99 2.6-.68 5.63-.03 8.39.43 1.39.23 2.78 1.19 3.9 2.14 10.21 8.64 23.69 8.83 35.36 13.69 1.12.47 2.66.34 3.91.05 8.08-1.87 16.11-3.92 24.19-5.79 2.4-.56 3.81-1.56 3.81-4.27-.03-22.29.44-44.65-5.13-66.44-1.2-4.71-5.1-8.67-7.28-13.2-1.05-2.19-1.69-5.07-1.16-7.32.31-1.31 3.55-3.08 5.05-2.75 6.41 1.43 12.75 3.3 18.92 5.57 3.05 1.12 5.76 3.3 8.45 5.25 5.5 3.99 6.01 6.06 3.68 12.56-.5 1.4-.85 2.88-1.13 4.34-1.05 5.49-2.05 11-3.17 17.07 8.58-3.55 16.41-7.13 24.48-10.03 7-2.52 14.19-4.81 21.48-6.15 3.38-.62 7.6.51 10.76 2.16 4.64 2.43 4.33 7.13-.47 9.09-17.67 7.21-35.37 14.56-55.17 12.41-.64-.07-1.31.05-2.2.09-.93 12.44-1.86 24.79-2.85 37.88 13.36-3.33 26.84-4.53 38.31-12.17 5.27-3.51 9.94-1.32 14.38 1.3 6.43 3.79 12.63 7.97 18.84 12.11 2.34 1.56 4.7 3.22 6.6 5.26 3.32 3.56 3.05 7.04-.85 9.73-7.13 4.91-11.63 11.38-14.63 19.56-5.76 15.66-13.31 30.48-23.66 43.72-3.43 4.39-4.61 4.74-7.8.35-2.58-3.54-5.08-3.96-9.06-2.95-5.59 1.41-11.39 1.98-17.84 3.02 7.99 10.57.13 22.17 3.34 33.12 12.13-1.58 24.43-3.07 36.68-4.83 8.21-1.18 16.33-2.98 24.54-4.09 12.54-1.7 23.4 2.09 32.03 11.35 1.44 1.54 2.62 5.55 1.77 6.5-1.55 1.75-4.73 2.9-7.2 2.85-20.61-.41-41.22-1.38-61.83-1.67-8.61-.12-17.24 1-26.52 1.6-.58 9.68-1.53 19.07-1.63 28.46-.24 23.65-1.36 47.21-6.42 70.39-1.14 5.23-2.18 10.71-8.11 15.78-1.14-6.35-2.73-11.53-2.89-16.75-.6-20.63-.97-41.28-.98-61.92 0-10.29.96-20.58 1.46-30.86.05-.96-.11-1.93-.23-3.97-12.69 2.64-25.26 4.23-37.13 7.99-12.45 3.95-23.09 2.43-33.16-5.36-1.5-1.16-2.78-2.62-4.16-3.94.1-.49.19-.98.29-1.47 4.97-.41 9.95-.73 14.9-1.26 18.82-2.04 37.63-4.1 56.42-6.38 1.23-.15 3.09-2.14 3.19-3.4.62-7.79.87-15.6 1.15-23.41.15-4.18-1.23-6.43-6.16-5.74-6.06.86-12.23.96-18.44 1.4-1.31 2.78-2.69 5.7-4.08 8.65-4.83-1.17-5.56-4.53-6.29-8.02-3.62-17.2-7.12-34.44-11.08-51.56-1.32-5.69-3.89-11.1-5.71-16.13-17.48 2.27-29.11 13.68-42.33 22.01-.41-.3-.81-.61-1.22-.91.57-1.91.99-3.88 1.73-5.71 2.57-6.3 5.28-12.55 7.89-18.84 1.31-3.16.24-5.18-3.24-4.67-15.26 2.26-30.49 4.73-45.73 7.16-.81.13-1.57.53-2.05.7 2.7 2.96 5.58 5.87 8.16 9.03 2.49 3.05 2.13 5.53-1.05 8.5-10.71 9.99-21.05 20.39-31.5 30.66-1.16 1.14-2.13 2.47-3.72 4.35 8.4-1.12 16-2.16 23.6-3.11 2.8-.35 5.69-.98 8.42-.61 5.28.71 8.17-1.7 9.77-6.28 2.34-6.67 4.42-13.43 6.94-20.02.52-1.36 2.74-3.3 3.71-3.06 8.66 2.12 14.55 8.38 20.22 14.72.54.6-.23 3.36-1.18 4.15-21.6 17.71-43.31 35.3-65.01 52.89-1.64 1.33-3.36 2.58-4.75 4.65 20.57-3.65 41.15-7.31 62.32-11.07-2.89-4.66-5.59-8.92-8.17-13.26-.43-.72-.55-1.81-.38-2.63.07-.32 1.37-.61 2.07-.53 12.74 1.32 29.7 17.68 31.36 30.23.13.98.18 2.04-.04 2.98-.79 3.35-.94 7.53-5.34 8.08-3.8.48-6.23-1.98-8.17-5.34-6.53-11.29-6.63-11.19-19.35-8.58-11 2.25-22.02 4.39-33.45 6.66 3.9 3.2 7.61 6.17 11.24 9.23 2.95 2.49 4.5 5.18 3.42 9.53-4.93 19.85-2.51 40.03-2.17 60.1.17 10.34-3.82 19.14-10.25 26.88-4.49 5.39-6.68 4.6-10.84-.96-6.25-8.36-13.21-16.2-20.03-24.12-1.24-1.44-3.23-2.24-4.87-3.34.42-.48.86-.94 1.29-1.41zm148.22-119.59c10.38-1.61 20.18-3.29 30.02-4.62 11.11-1.5 22.01-5.42 33.53-3.03.99.21 3.2-1.67 3.6-2.96 4.81-15.51 9.75-31.01 13.9-46.7 2.9-10.99-1.23-15.25-12.55-14.42-.83.06-1.66.13-2.48.27-9.67 1.56-19.38 2.89-28.98 4.77-14.28 2.8-28.48 6-42.57 9.01.95 8.28 1.82 15.81 2.76 23.94 2.18-.29 4.48-.34 6.64-.92 10.72-2.86 21.35-6.11 32.14-8.71 4.94-1.19 10.31-2.15 15.22-1.44 3.35.48 6.26 4.04 9.37 6.23-2.66 2.12-5.02 5.05-8.05 6.18-4.61 1.72-9.65 2.4-14.56 3.15-13.01 1.98-25.92 6.35-39.57 1.72.53 9.11 1.04 18.02 1.58 27.53z"/><path d="m149.72 276.49c2.06.35 4.41.19 6.14 1.14 8.96 4.94 18.29 9.45 26.49 15.47 9.15 6.71 10.01 18.44 3.48 27.67-2.25 3.19-5.42 3.41-8.37 1.78-2.21-1.22-4.23-3.27-5.62-5.41-6.59-10.16-13-20.44-19.33-30.76-1.66-2.71-2.83-5.72-4.22-8.59.48-.43.95-.87 1.43-1.3z"/><path d="m63.32 278.91c5.07 9.56 6.95 18.93 3.06 27.66-3.99 8.95-10.09 17.01-15.75 25.11-1.23 1.76-5.19 3.45-6.68 2.72-1.95-.96-3.68-4.33-3.77-6.72-.31-8.38.91-16.18 7.78-22.59 6.56-6.12 11.78-13.53 13.02-22.96.11-.8 1.05-1.49 2.34-3.22z"/></g><path d="m361.2 9.6.8-1c.9.7 1.9 1.4 2.9 2.3l-.9 1.1c-1-1-2-1.8-2.8-2.4zm.5 10.6c.9-2.1 1.6-4.3 2.3-6.7.4.2.8.4 1.3.6-.7 2.1-1.5 4.3-2.2 6.6zm.4-15.2.9-.9c1 .8 2 1.6 2.8 2.4l-1 1c-.9-.9-1.8-1.7-2.7-2.5zm12.5-1.2h1.2v1.4h2.7v1.1h-2.7v2.7h-1.2v-.6h-1.8v1.3h4.9v3.8h-1.2v-.5h-3.7c0 .4-.1.9-.1 1.2h5.1v1h-5.2c0 .5-.1.9-.2 1.2h6v1h-5.2c1.1 1.3 2.9 2 5.5 2.2-.4.4-.7.8-.9 1.3-2.9-.5-4.8-1.6-5.7-3.5h-.1c-.8 1.7-2.7 2.9-5.9 3.6-.2-.4-.6-.8-.9-1.1 2.8-.6 4.6-1.4 5.4-2.5h-4.8v-1h5.3c.1-.3.2-.7.2-1.2h-4.9v-1h5c0-.4 0-.8.1-1.2h-3.5v.5h-1.2v-3.8h4.9v-1.3h-1.8v.5h-1.2v-2.7h-2.7v-1h2.6v-1.4h1.2v1.4h4.7v-1.4zm-6.6 8.3h3.6c0-.4 0-.9 0-1.4h-3.6zm1.9-4.6h4.7v-1.3h-4.7zm6.6 3.2h-3.7v1.4h3.7z" fill="#fbfcfa"/><path d="m385.3 3.8h1.3v2.2h2.8v-2.2h1.3v2.2h4.1v9.1h1.7v1.3h-16.9v-1.3h1.7v-9.1h4.1v-2.2zm.4 13.1.7 1.2c-1.8.9-3.8 1.9-6 2.9-.2-.4-.5-.8-.8-1.3 2.3-1 4.3-1.9 6.1-2.8zm-3.1-6.4h2.8v-3.2h-2.8zm0 4.6h2.8v-3.3h-2.8zm4-4.6h2.8v-3.2h-2.8zm0 4.6h2.8v-3.3h-2.8zm3.7 1.9c2.1.9 4.1 1.8 6.1 2.7l-.7 1.3c-2.2-1.1-4.2-2-6.1-2.9zm3.2-9.7h-2.8v3.2h2.8zm-2.8 7.8h2.8v-3.3h-2.8z" fill="#fbfcfa"/></svg>