<svg enable-background="new 0 0 400 400" viewBox="0 0 400 400" xmlns="http://www.w3.org/2000/svg"><path d="m362.1 8.8c1.1.8 2.1 1.6 3.1 2.4l-1 1.1c-1.3-1.1-2.3-2-3-2.5zm1.9 4.8c.5.2.9.4 1.4.5-.6 2.3-1.3 4.5-1.9 6.8l-1.5-.5c.8-2.1 1.4-4.3 2-6.8zm-1-9.4c1.3.9 2.4 1.8 3.4 2.5l-1 1.1c-1.4-1.2-2.4-2.1-3.2-2.6zm3.7 2.2v-1.4h10.3v1.2c-.5 3.6-1.8 6.8-4 9.4 1.5 1.6 3.4 2.8 5.7 3.8-.3.4-.7.8-1.1 1.4-2.3-1.1-4.1-2.5-5.6-4.1-1.6 1.6-3.6 3.1-5.9 4.3-.3-.5-.7-.9-1-1.3 2.4-1.1 4.4-2.5 6-4.1-1.9-2.5-3-5.6-3.3-9.3h-1.1zm8.8 0h-6.4c.3 3.3 1.3 6 3 8.2 2-2.3 3.1-5.1 3.4-8.2z" fill="#fcfbfa"/><path d="m385.3 3.8h1.3v2.2h2.8v-2.2h1.3v2.2h4.1v9.1h1.7v1.3h-16.9v-1.3h1.7v-9.1h4.1v-2.2zm.4 13.1.7 1.2c-1.8.9-3.8 1.9-6 2.9-.2-.4-.5-.8-.8-1.3 2.3-1 4.3-1.9 6.1-2.8zm-3.1-6.4h2.8v-3.2h-2.8zm0 4.6h2.8v-3.3h-2.8zm4-4.6h2.8v-3.2h-2.8zm0 4.6h2.8v-3.3h-2.8zm3.7 1.9c2.1.9 4.1 1.8 6.1 2.7l-.7 1.3c-2.2-1.1-4.2-2-6.1-2.9zm3.2-9.7h-2.8v3.2h2.8zm-2.8 7.8h2.8v-3.3h-2.8z" fill="#fcfbfa"/><g fill="#010100"><path d="m139.32 85.17c11.86 4.23 11.67 12.56 10.01 22.53-1.95 11.74-2.75 23.73-3.16 35.65-.74 21.96-.82 43.94-1.17 65.92-.03 1.82 0 3.65 0 6.2 4.08-1.91 7.61-4.02 11.43-5.19 2.58-.79 5.57-.24 8.38-.29-1.41 2.38-2.35 5.31-4.34 7.02-3.5 3.01-7.47 5.61-11.59 7.73-3.2 1.65-3.98 3.72-3.96 7.07.13 22.5.32 45-.06 67.49-.14 8.24-1.5 16.51-2.88 24.67-.42 2.46-2.76 4.6-4.22 6.89-1.95-1.87-4.36-3.44-5.76-5.65-6.92-10.95-4.85-22.45-3.08-34.53 2.51-17.18 2.9-34.68 4.19-52.04-.6-.23-1.2-.45-1.79-.68-1.43.94-2.93 1.79-4.3 2.82-19.12 14.45-38.22 28.94-57.35 43.38-3.16 2.39-6.17 5.18-10.77 3.61-7.2-2.47-15.08-3.86-19.28-11.22-2.48-4.35-1.16-6.09 3.66-7.73 13.2-4.48 26.34-9.15 39.36-14.11 1.51-.58 2.98-3.41 3.05-5.26.54-12.8.89-25.62.95-38.43.14-31.16.22-62.32.01-93.47-.04-6.26-1.46-12.52-2.27-18.78-.56-4.31-2.6-5.9-7.33-5.65-5.73.31-11.59-.53-17.3-1.43-1.79-.28-3.29-2.36-4.93-3.62 1.58-1.24 3.02-3.24 4.78-3.59 6.49-1.31 13.08-2.18 19.66-3.02 20.98-2.67 41.25-8.29 61.57-13.91 5.97-1.65 12.77-1.14 19.04-.42 2.25.26 4.86 3.79 5.76 6.36.36 1.04-3.12 4.34-5.39 5.2-6.46 2.43-13.22 4.15-20.92 6.48zm-39.89 160.1c10.8-6.84 20.66-13 30.39-19.37 1.11-.73 1.97-2.62 2.06-4.02.41-6.63.71-13.29.67-19.94-.14-27.8-.17-55.6-.76-83.39-.19-9.08-1.85-18.15-3.03-27.2-.25-1.95-.46-4.38-3.82-3.98-9.02 1.07-18.06 1.9-27.53 2.87 5.33 6.99 5.63 14.64 5.11 22.52-.68 10.41-1.19 20.84-1.82 32.08 3.14-.98 5.34-1.56 7.46-2.35 4.05-1.5 8.02-3.2 12.07-4.68 3.85-1.4 6.55.21 7.87 3.81 1.28 3.49-.04 6.24-3.48 7.66-3.5 1.45-7.06 2.82-10.69 3.9-4.22 1.26-8.54 2.18-13.54 3.42v32.42c6.17-2.05 12.74-4.19 19.28-6.4 3.85-1.3 6.92-.67 8.7 3.28 1.9 4.21-1.27 5.87-4.13 7.11-6.99 3.02-14.16 5.62-21.17 8.59-1.4.59-3.47 2.04-3.49 3.12-.23 13.15-.15 26.27-.15 40.55z"/><path d="m346.61 309.11c1.87-58.13-1.59-114.87-3.18-172.93-16.93 1.37-33.25 2.69-49.56 4.02.27.65.54 1.31.81 1.96-1.85 1.66-4.5 5.05-5.4 4.64-2.5-1.15-4.89-3.57-6.13-6.08-1.17-2.37-.87-5.49-1.13-8.28-1.71-18.66-3.36-37.33-5.15-55.98-.19-1.93-1.09-3.82-1.79-5.68-1.7-4.52-.48-6.55 4.33-6.81 6.94-.38 14.08.23 20.78-1.22 9.02-1.96 17.65-5.63 26.54-8.26 2.7-.8 5.84-1.3 8.53-.75 9.88 2.01 18.19 7.21 25.39 14.1 1.18 1.13 2.03 3.91 1.49 5.34-4.43 11.86-6.34 24.19-5.96 36.69.99 32.58 2.39 65.15 3.86 97.72.79 17.61 2.17 35.19 3.09 52.8.81 15.43 2.06 30.89 1.79 46.31-.23 13.19-3.89 25.67-15.06 34.43-4.43 3.47-5.64 3.19-8.21-1.95-6.04-12.06-14.36-22.35-24.18-31.5-.85-.79-1.98-1.51-2.39-2.51-.49-1.2-.9-3.07-.31-3.88.55-.75 2.65-.96 3.78-.57 5.81 1.99 11.47 4.42 17.3 6.33 3.08 1.01 6.41 1.26 10.76 2.06zm-54.71-237.74c.4 6.7.88 13.13 1.14 19.57.25 6.22.18 6.53 6.58 5.86 7.92-.83 15.8-2.08 23.64-3.44 3.38-.59 5.83.3 6.61 3.5.87 3.57-2.27 4.28-4.79 5.16-.46.16-.99.12-1.48.18-10 1.15-20 2.3-30.1 3.46v25.68c16.19-2.02 31.6-8.47 48.87-4.13-.98-13.16-1.84-25.54-2.87-37.91-.35-4.2-.52-8.56-1.82-12.5-2.27-6.87-9.28-11.77-14.97-10.86-10.12 1.6-20.19 3.54-30.81 5.43z"/><path d="m175.43 82.37c4.57-2.71 9.59-1.99 13.88-.3 12.45 4.91 23.93 1.44 34.14-4.78 9.36-5.71 16.52-3.19 24.14 2.04 2.18 1.49 4.13 3.32 6.3 5.08-10.07 11.44-8.62 25.5-9.63 38.88-.74 9.78-.45 19.63-1.2 29.41-.59 7.68-3.58 9.24-10.83 6.81-.92-.31-1.97-.57-2.91-.45-10.18 1.29-20.35 2.65-30.67 4.01-.09 1.99-.21 3.47-.22 4.95-.15 22.49.28 45-.56 67.47-1.04 27.86-1.06 55.86-6.72 83.37-.23 1.13-.38 2.36-.95 3.32-1.45 2.41-3.12 4.69-4.71 7.03-1.91-1.96-4.37-3.61-5.63-5.93-3.94-7.24-5.28-15.31-3.56-23.23 4.62-21.2 7.08-42.65 7.62-64.27.94-37.44 1.66-74.89 1.81-112.33.04-9.16-2.01-18.44-4.01-27.46-1.05-4.7-4.07-8.96-6.29-13.62zm23.01 72.21c10.05-2.12 19.03-4.53 28.17-5.72 4.17-.54 5.37-1.61 5.27-5.55-.42-15.61-.62-31.22-1-46.83-.04-1.6-.3-3.67-1.31-4.66-1.62-1.59-4.08-3.62-5.95-3.41-7.36.82-14.66 2.33-21.92 3.88-1.24.27-3.08 1.94-3.11 3.02-.26 8.4-.14 16.82-.14 25.87 3.45-1.62 6-3.36 8.8-3.99 3.8-.85 7.81-1.27 11.68-1.03 1.73.11 3.34 2.25 5.01 3.48-1.37 1.46-2.48 3.68-4.16 4.25-5.93 2.03-12.09 3.4-18.09 5.26-1.25.39-3.07 1.78-3.1 2.76-.27 7.4-.15 14.84-.15 22.67z"/><path d="m290.33 191.06c17.35 10.76 34.71 21.52 52.99 32.86-9.32 1.06-18.05 2.47-26.81 2.79-2.54.09-5.75-2.48-7.7-4.68-13.9-15.72-27.25-31.94-44.17-44.67-.39-.3-.85-.51-1.82-1.1-17.92 23.34-30.92 50.83-55.02 69.15-.67-.34-1.33-.68-2-1.02.73-1.73 1.18-3.64 2.23-5.15 6.34-9.15 12.89-18.15 19.13-27.37.6-.89-.04-3.1-.75-4.31-1.67-2.87-4-5.37-5.53-8.29-.69-1.32-.8-3.88.03-4.84 1.05-1.22 3.62-2.28 5.01-1.82 3.73 1.23 7.18 3.31 11.04 5.19 2.24-4.93 4.63-10.16 7.34-16.12-1.67-.34-2.97-.76-4.29-.83-1.48-.09-3.16.6-4.44.13-2.63-.98-5.05-2.51-7.56-3.81 2-1.45 3.92-3.04 6.03-4.3 1.99-1.18 4.49-1.65 6.24-3.07 4.57-3.71 9.38-3.64 14.56-1.86 4.66 1.6 9.37 3.07 15.33 5.01 2.76-7.72 5.62-15.69 8.44-23.59 5.86.88 10.88 5.66 11.23 11.07.08 1.19-1.55 3.1-2.84 3.65-5.89 2.52-10.36 6.49-14 12.41 3.78 2.87 7.55 5.73 12.29 9.32 5.6-7.71 11.64-14.84 16.22-22.8 2.73-4.75 5.43-4.8 9.13-2.82 2.71 1.45 5 3.69 7.5 5.59-9.62 7.76-18.81 15.19-28.01 22.61.08.88.14 1.77.2 2.67z"/><path d="m217.93 300.21c13.06-10.96 25.2-22.41 32.62-37.95.84-1.75 1.52-3.58 2.7-6.37-4.01.71-7.01 1.44-10.06 1.75-5.94.61-11.89 1.08-17.85 1.38-1.59.08-3.44-.31-4.77-1.14-1.42-.88-2.37-2.53-3.52-3.84 1.33-1.05 2.54-2.78 4.02-3.05 8.66-1.57 17.38-2.76 26.07-4.15 3.88-.62 7.87-.79 8.63-6.27.97-6.95-.33-8.93-7.33-9.41-1.98-.13-4.07-.18-5.86-.89-1.68-.67-3.03-2.17-4.53-3.3 1.45-1.61 2.61-4.06 4.41-4.7 8.58-3.06 17.32-5.65 26.02-8.35 5.07-1.57 10.16-3.08 15.27-4.51 1.58-.44 3.57-1.2 4.82-.63 1.82.83 3.95 2.53 4.41 4.27.35 1.34-1.29 4.17-2.72 4.81-4.06 1.81-8.5 2.72-12.73 4.19-3.87 1.34-7.65 2.95-10.95 4.24.69 5.46 1.28 10.13 1.96 15.48 5.29-.68 11.45-1.43 17.6-2.28 6.09-.84 12.14-2.15 18.25-2.51 3.68-.22 7.56.6 11.11 1.72 1.21.38 2.34 3.11 2.27 4.72-.04.97-2.38 2.46-3.82 2.64-14.5 1.81-29.02 3.42-43.54 5.02-3.05.34-4.75 1.29-5.74 4.8-6.29 22.32-20.3 37.33-42.93 43.73-1.23.36-2.54.41-3.81.6z"/><path d="m275.57 265.65c12.28-2.58 27.11 7.21 29.06 18.92.05.32.35.7.25.95-1.23 3.23-1.64 7.84-4 9.33-3.28 2.07-5.7-1.97-7.63-4.63-5.9-8.14-11.74-16.31-17.68-24.57z"/></g></svg>