<svg enable-background="new 0 0 400 400" viewBox="0 0 400 400" xmlns="http://www.w3.org/2000/svg"><g fill="#010103"><path d="m147.94 82.14c6.96 2.28 5.32 7.57 5.07 12.29-1.28 24.39-2.71 48.78-3.91 73.18-.72 14.62-1.12 29.25-1.65 43.87-.02.65.12 1.31.25 2.56 8.16-2.7 15.06-8.73 25.26-7.08-1.85 2.37-3.29 5.33-5.64 7-5.53 3.93-11.56 7.15-17.22 10.9-1.25.83-2.56 2.7-2.57 4.09-.14 30.66-.09 61.33-.07 91.99 0 .46.22.93.77 3.05 4.49-7.65 8.69-14.04 12.14-20.81 12.69-24.95 20.61-51.55 24.34-79.14 3.4-25.16 4.97-50.57 7.3-75.88 1.8-19.5.93-38.87-2.99-58.07-.8-3.93 1.04-5.91 4.85-5.4 4.58.61 9.44.98 13.54 2.86 6.83 3.13 13.32 2.57 20.23.91 32.25-7.73 64.52-15.36 96.82-22.9 8.17-1.91 16.28-1.8 23.25 3.68 1.61 1.27 3.04 3.77 3.04 5.71 0 1.05-3.07 2.68-4.95 3.06-31.38 6.38-62.75 12.81-94.21 18.76-11.24 2.12-22.71 3.04-34.08 4.39-3.48.41-6.1.74-6.44 5.49-1.85 26.36-4.07 52.7-6.17 79.05-.05.61-.1 1.23-.2 2.54 13.92-3.48 27.37-6.84 41-10.25-.51-8.48-1-16.53-1.51-25.08-5.02.55-9.42 1.11-13.83 1.49-1.95.17-4.07.4-5.85-.19-2.32-.77-4.37-2.33-6.54-3.56 2.17-1.57 4.14-3.87 6.56-4.58 6.32-1.84 12.84-2.98 20.21-4.6-4.07-8.98-7.87-17.37-11.79-26.03 7.68-3.46 14.05.21 20.57 3.45 9.06 4.51 2.27 13.11 5.59 19.64 9.21-2.6 18.77-5.2 28.24-8.11 1.12-.34 2.35-2.36 2.44-3.67.59-9.18.64-18.27-4.1-26.73-2.15-3.84-.55-6.1 3.7-4.92 6.19 1.71 12.2 4.18 18.16 6.64 3.04 1.25 3.62 3.7 2.46 6.95-1.88 5.28-3.32 10.72-5.41 17.62 6.05-1.48 10.98-3 16.03-3.82 4.15-.68 8.46-.92 12.64-.63 4.01.28 5.9 3.87 5.4 7.13-.3 1.96-3.4 4.51-5.61 4.96-8.61 1.77-17.37 2.76-26.05 4.18-1.27.21-3.26.94-3.48 1.81-2 7.69-3.69 15.47-5.42 23.23-.17.77-.02 1.6-.02 3.58 7.34-2.06 14.15-3.81 20.86-5.89 10.31-3.19 20.67-5.03 31.3-1.86 2.52.75 5.15 1.68 7.24 3.2 1.57 1.14 3.43 3.53 3.18 5.03-.25 1.49-2.85 3.37-4.65 3.66-6.55 1.05-13.19 1.54-19.8 2.19-23.46 2.33-46.6 6.42-69.74 12.33 4.4 2.58 8.39 5.1 12.55 7.33 4.61 2.47 6.73 5.58 4.45 10.93-.88 2.06-.78 4.53-1.28 7.85 5.81-1.4 11.38-2.5 16.8-4.1 6.37-1.87 12.64-4.09 18.89-6.31 10.93-3.87 28.17 3.53 32.55 14.22.46 1.12.26 3.03-.43 4.02-7.83 11.27-11.62 24.08-15.21 37.11-1.96 7.12-5.02 14.11-8.66 20.55-2.32 4.1-6.6 7.09-10.58 11.17-1.31-2.48-2.33-3.69-2.61-5.05-1.18-5.64-4.57-6.73-9.86-5.87-19.32 3.13-38.7 5.94-58.04 8.94-1.37.21-3.34.73-3.8 1.7-1.08 2.26-1.71 5.75-4.71 4.35-2.8-1.31-5.83-4.16-6.77-7-1.96-5.93-2.36-12.35-3.82-18.47-3.33-13.89-6.65-27.78-14.91-39.89-3.05-4.48-1.16-7.72 4.33-7.87 3.8-.11 7.63.69 11.43.52 6.6-.3 13.21-.85 19.77-1.65 6.1-.75 12.16-1.83 18.17-3.08 1.11-.23 2.82-2.1 2.71-3.03-.73-6.05-1.88-12.05-2.89-18.07-.4-2.36-.77-4.73-1.17-7.16-12.4 2.52-25.67 5.33-38.99 7.86-5.2.99-10.52 1.69-15.8 1.88-3.51.13-4.22 1.41-4.65 4.66-3.66 28.04-8.73 55.77-19.82 82.01-6.6 15.62-14.5 30.77-28.31 41.02-7.05 5.24-10.54 10.55-10.92 19.09-.14 3.08-3.24 6.03-5 9.04-2.3-2.21-5.3-4.04-6.79-6.7-5.75-10.26-7.38-21.3-6.05-33.07 1.99-17.67 3.34-35.41 4.86-53.13.64-7.41 1-14.85 1.54-23.07-5.51 3.56-10.47 6.72-15.38 9.95-13.64 8.95-27.32 17.84-40.86 26.94-3.7 2.49-6.88 5.76-10.43 8.51-1.25.97-3.17 2.35-4.31 2-8.95-2.71-17.86-5.68-23.27-14.22-.53-.83-.89-1.79-1.2-2.73-.2-.61-.17-1.3-.25-2.12 8.61-2.52 17.23-4.85 25.72-7.55 13.39-4.27 13.26-4.38 13.37-18.36.32-41.31.81-82.61 1-123.92.03-6.1-1.02-12.24-2.03-18.29-.21-1.26-2.28-2.68-3.77-3.16-4.85-1.58-9.89-2.57-14.71-4.23-1.43-.49-2.35-2.45-3.51-3.73 1.72-1.06 3.32-2.73 5.17-3.09 9.12-1.78 18.39-2.83 27.44-4.85 21.37-4.77 42.66-9.87 63.95-15.02 7.05-1.71 13.98-1.86 20.31 1.7 2.34 1.32 3.6 4.56 5.35 6.92-2.42 1.73-4.6 4.21-7.3 5.04-6.62 2.06-13.48 3.36-20.25 4.97-.2.39-.38.82-.56 1.24zm-16.43 2.75c-12.9 1.84-24.46 3.49-34.42 4.92-1.47 17.39-2.84 33.53-4.22 49.85 4.76-1.63 9.52-3.49 14.42-4.84 3.47-.96 7.16-1.78 10.71-1.67 3.63.12 6.04 2.61 6.34 6.52.3 3.94-2.36 4.96-5.52 5.76-8.77 2.21-17.51 4.59-27.06 7.11v35.94c4.47-1.68 8.85-3.62 13.41-4.95 4.24-1.23 8.66-2.39 13.01-2.42 1.99-.02 4.87 2.39 5.68 4.38.52 1.27-1.55 4.73-3.26 5.56-5.64 2.74-11.51 5.16-17.52 6.93-12.2 3.6-12.44 3.38-12.79 15.91-.29 10.18-.06 20.37-.06 30.82 13.65-6.83 27.44-13.66 41.11-20.73 1.18-.61 2.14-2.84 2.17-4.34.47-22.97.91-45.93 1.04-68.9.08-13.81-.17-27.63-.71-41.42-.33-8.08-1.51-16.11-2.33-24.43zm178.61 184.38c9.01-14.51 11.89-30.42 11-47.14-.24-4.45-3.65-7.27-7.78-6.88-10.12.95-20.17 2.71-30.04 4.11v16.9c2.71-.51 5.06-.99 7.43-1.38 2.59-.42 5.65-1.77 7.7-.87 2.66 1.17 5.56 3.79 6.46 6.44 1.27 3.7-2.62 4.25-5.33 4.9-4.19 1-8.45 1.73-12.58 2.93-1.45.42-3.65 1.82-3.71 2.88-.36 6.06-.17 12.15-.17 18.34 21.01-4.18 21.01-4.18 27.02-.23zm-67.75 7.9c9.59-1.54 18.67-3 28-4.5-.5-7.03-.97-13.59-1.44-20.25-7.51-1.31-15.69 1.85-22.88-6 8.25-2.78 15.36-5.17 22.94-7.72-.48-5.02-.98-10.22-1.52-15.92-11.37 1.97-22.27 3.85-33.85 5.86 2.89 16.1 5.74 31.88 8.75 48.53zm16.09-100.24c8.66-2.2 16.8-4.19 24.88-6.41 1.21-.33 2.96-1.67 3.05-2.65.69-8.18 1.04-16.39 1.52-25.18-10.28 2.65-19.84 5.12-29.45 7.59z"/><path d="m182.83 351.87c5.1-4.11 10.19-8.22 15.29-12.34 11.29-9.11 22.04-18.76 29.65-31.32 1.96-3.23 3.35-6.84 4.67-10.4.95-2.55 2.28-3.34 4.89-2.57 7.54 2.21 12.51 7.32 15.92 14.09.46.92.04 3.07-.75 3.72-8.04 6.63-15.98 13.42-24.44 19.48-12.32 8.83-25.65 15.87-40.39 19.92-1.34.37-2.76.44-4.14.65-.23-.41-.46-.82-.7-1.23z"/><path d="m292.85 297.37c5.43-3.45 10.73-2.76 15.99-.73 13.05 5.04 23.16 14.17 32.36 24.27 4.77 5.23 3.19 18.85-2.01 23.63-3.28 3.02-5.55.47-7.45-1.8-4.59-5.47-8.79-11.26-13.46-16.66-8.23-9.54-16.7-18.88-25.43-28.71z"/><path d="m249.81 36.99c3.48-4.3 7.66-5.45 10.98-3.59 7.44 4.15 14.58 8.99 21.32 14.22 3.14 2.43 2.95 15.04.2 17.98-1.27 1.35-3.86 2.53-5.52 2.19-2.61-.54-5.68-1.85-7.25-3.86-6.82-8.76-13.16-17.88-19.73-26.94z"/></g><path d="m361.2 9.6.8-1c.9.7 1.9 1.4 2.9 2.3l-.9 1.1c-1-1-2-1.8-2.8-2.4zm.5 10.6c.9-2.1 1.6-4.3 2.3-6.7.4.2.8.4 1.3.6-.7 2.1-1.5 4.3-2.2 6.6zm.4-15.2.9-.9c1 .8 2 1.6 2.8 2.4l-1 1c-.9-.9-1.8-1.7-2.7-2.5zm12.5-1.2h1.2v1.4h2.7v1.1h-2.7v2.7h-1.2v-.6h-1.8v1.3h4.9v3.8h-1.2v-.5h-3.7c0 .4-.1.9-.1 1.2h5.1v1h-5.2c0 .5-.1.9-.2 1.2h6v1h-5.2c1.1 1.3 2.9 2 5.5 2.2-.4.4-.7.8-.9 1.3-2.9-.5-4.8-1.6-5.7-3.5h-.1c-.8 1.7-2.7 2.9-5.9 3.6-.2-.4-.6-.8-.9-1.1 2.8-.6 4.6-1.4 5.4-2.5h-4.8v-1h5.3c.1-.3.2-.7.2-1.2h-4.9v-1h5c0-.4 0-.8.1-1.2h-3.5v.5h-1.2v-3.8h4.9v-1.3h-1.8v.5h-1.2v-2.7h-2.7v-1h2.6v-1.4h1.2v1.4h4.7v-1.4zm-6.6 8.3h3.6c0-.4 0-.9 0-1.4h-3.6zm1.9-4.6h4.7v-1.3h-4.7zm6.6 3.2h-3.7v1.4h3.7z" fill="#fbfcfa"/><path d="m385.3 3.8h1.3v2.2h2.8v-2.2h1.3v2.2h4.1v9.1h1.7v1.3h-16.9v-1.3h1.7v-9.1h4.1v-2.2zm.4 13.1.7 1.2c-1.8.9-3.8 1.9-6 2.9-.2-.4-.5-.8-.8-1.3 2.3-1 4.3-1.9 6.1-2.8zm-3.1-6.4h2.8v-3.2h-2.8zm0 4.6h2.8v-3.3h-2.8zm4-4.6h2.8v-3.2h-2.8zm0 4.6h2.8v-3.3h-2.8zm3.7 1.9c2.1.9 4.1 1.8 6.1 2.7l-.7 1.3c-2.2-1.1-4.2-2-6.1-2.9zm3.2-9.7h-2.8v3.2h2.8zm-2.8 7.8h2.8v-3.3h-2.8z" fill="#fbfcfa"/></svg>