<svg enable-background="new 0 0 400 400" viewBox="0 0 400 400" xmlns="http://www.w3.org/2000/svg"><g fill="#010103"><path d="m197.09 32.04c-11.6 11.07-22.9 21.85-34.19 32.63.25.56.5 1.12.76 1.68 18.58-4.56 37.67-7.71 55.61-14.09 16.62-5.92 30.21-1.5 44.01 6.31 2.87 1.62 5.53 3.71 8.04 5.87 5.08 4.38 4.75 5.79 1.76 11.85-3.78 7.67-7.77 15.53-9.7 23.76-2.45 10.45-2.63 21.42-4.37 32.06-1.52 9.3-3.82 18.47-5.85 27.68-.35 1.6-.82 3.34-1.77 4.62-1.71 2.3-3.87 6.04-5.76 5.99-2.41-.06-5.87-2.8-6.91-5.23-3.25-7.61-7.68-9.73-16.21-8.43-23.31 3.53-46.82 5.76-70.25 8.54-2.66.32-5.02.69-5.36 4.45-.17 1.86-2.21 4.78-3.68 4.96-1.65.2-4.73-1.79-5.26-3.45-2.38-7.52-4.75-15.16-5.88-22.93-2.73-18.71-4.24-37.61-7.38-56.25-1.11-6.57-5.21-12.74-8.5-18.79-2.38-4.38-1.57-7.53 3.4-7.39 5.04.14 10.19 1.22 15.01 2.76 7.6 2.41 12.86 1.03 17.29-5.7 6.15-9.34 11.8-18.95 13.39-30.28.44-3.1.29-6.29.3-9.44.02-5.14 1.05-6.18 6.17-5.83 10.25.74 17.15 7.26 25.33 14.65zm-51.11 123.72c2.03 0 3.22.17 4.35-.03 17.47-3.11 34.91-6.36 52.39-9.4 10.73-1.86 21.47-4.48 33.14-1.27 1.94-12.69 4.11-25.24 5.67-37.88.75-6.08.68-12.32.37-18.46-.24-4.93-1.14-9.86-2.22-14.69-.97-4.36-3.68-6.2-8.63-6.17-29.9.19-59.11 5.94-88.49 10.35-.86.13-2.25 1.34-2.22 2 .33 6.85.9 13.69 1.4 20.55 12.01-2.59 23.12-5.27 34.34-7.35 11.54-2.14 23.15-3.93 34.8-5.33 3.06-.37 6.36 1.27 9.55 1.99-.01.69-.02 1.38-.03 2.07-11.1 7.85-24.46 8.89-37.34 11.16-13.17 2.32-26.44 4.12-39.98 6.2.52 6.31 1.01 12.34 1.55 18.91 10.4-2.45 20.16-4.96 30.01-7.04 13.13-2.77 26.12-6.7 39.79-5.6 2.33.19 4.63.91 6.94 1.39.04.7.07 1.4.11 2.1-23.57 13.64-50.63 12.33-76.76 16.49.41 6.61.83 13.17 1.26 20.01z"/><path d="m188.66 286.93c-9.55 1.23-18.59 2.39-27.62 3.57-21.9 2.88-43.76 6.08-65.71 8.52-9.98 1.11-20.15 1.29-30.18.83-4.75-.22-9.67-2.42-13.98-4.71-3.28-1.75-5.72-5.06-8.83-7.95 48.75-3.47 96.36-6.87 144.38-10.29.27-7.1-1.83-12.16-4.07-17.3-1.18-2.7-1.47-5.8-2.16-8.71 3.13-.46 6.75-2.17 9.3-1.17 9.78 3.83 16.5.3 22.92-6.94 7.2-8.12 14.88-15.8 17.46-26.83.56-2.39.91-4.98.61-7.38-.47-3.85 1.59-5.32 4.56-4.51 6.97 1.9 13.88 4.15 20.57 6.86 2.93 1.19 3.32 3.91.58 6.41-3.28 3-6.44 6.15-9.96 9.53 9.28 2.49 17.96 4.03 25.97 7.24 5.32 2.14 9.91 6.39 14.33 10.27 1.78 1.56 2.7 4.55 3.2 7.05.79 3.97.02 8.55-3.95 9.76-2.6.79-6.85-.8-9.2-2.74-11.03-9.1-21.67-18.68-32.33-28-6.12 4.73-11.81 9.5-17.89 13.71-6.12 4.24-12.64 7.91-19.46 12.13 7.75 5.12 1.06 11.51 2.07 17.77 7.53-.8 14.92-1.49 22.29-2.37 18.47-2.21 36.94-4.41 55.39-6.82 9.04-1.18 18.04-2.79 27.04-4.28 14.81-2.45 27.32 3.23 39.25 10.98.69.45 1.4 1.03 1.79 1.72 1.18 2.12 2.21 4.32 3.3 6.48-2.23.8-4.47 2.3-6.7 2.28-14.13-.12-28.26-.62-42.39-.91-33.31-.7-66.55.39-99.69 4.03-.63.07-1.24.29-2.38.56 0 6.19-.16 12.32.03 18.43.58 18.22-1.06 36.21-5.18 53.96-.78 3.38-1.97 6.69-3.31 9.89-.51 1.22-2.13 3-2.92 2.84-1.31-.26-3.09-1.69-3.38-2.94-1.71-7.25-4.13-14.56-4.3-21.9-.41-17.58.3-35.19.55-52.79.03-1.78 0-3.59 0-6.28z"/><path d="m285.26 189.56c-8.61 1.49-17.18 3.27-25.84 4.41-26.49 3.47-53.01 6.77-79.54 9.97-12.86 1.55-25.74 3.15-38.67 3.93-9.75.58-19.17-1.95-28.23-5.34-.01-.69-.01-1.38-.02-2.07 26.61-3.14 53.22-6.28 81.42-9.61-4.12-3.37-7.19-5.54-9.85-8.13-4.03-3.92-8.02-7.93-11.54-12.29-2.14-2.65-1.2-5.73 2.54-5.39 6.52.59 13.33 1.14 19.32 3.49 8.02 3.14 9.63 9.1 7.5 21.49 19.11-3.84 37.9-7.69 56.72-11.36 7.99-1.56 15.51.36 22.4 4.39 1.83 1.07 3 3.26 4.47 4.94-.22.52-.45 1.05-.68 1.57z"/><path d="m144.68 236.96c8.26 2.45 15.68 4.27 22.8 6.89 5.26 1.94 6.72 15.45 2.27 18.98-3.54 2.81-6.29.13-8.71-2.06-5.55-5.02-10.92-10.24-16.39-15.36-1.31-1.22-2.69-2.37-4.11-3.62-17.81 14.35-35.7 27.8-58.11 34.34-1.2-5.54 2.02-7.06 4.55-9.11 11.1-8.97 22.49-17.63 33.1-27.15 6.53-5.85 12.11-12.79 12.16-22.65.01-1.47 3.85-4.39 5.54-4.13 7.32 1.1 14.64 2.71 21.69 4.99 4.13 1.34 3.97 3.54.46 6.38-4.99 4.05-9.95 8.15-15.25 12.5z"/></g><path d="m361.2 9.6.8-1c.9.7 1.9 1.4 2.9 2.3l-.9 1.1c-1-1-2-1.8-2.8-2.4zm.5 10.6c.9-2.1 1.6-4.3 2.3-6.7.4.2.8.4 1.3.6-.7 2.1-1.5 4.3-2.2 6.6zm.4-15.2.9-.9c1 .8 2 1.6 2.8 2.4l-1 1c-.9-.9-1.8-1.7-2.7-2.5zm12.5-1.2h1.2v1.4h2.7v1.1h-2.7v2.7h-1.2v-.6h-1.8v1.3h4.9v3.8h-1.2v-.5h-3.7c0 .4-.1.9-.1 1.2h5.1v1h-5.2c0 .5-.1.9-.2 1.2h6v1h-5.2c1.1 1.3 2.9 2 5.5 2.2-.4.4-.7.8-.9 1.3-2.9-.5-4.8-1.6-5.7-3.5h-.1c-.8 1.7-2.7 2.9-5.9 3.6-.2-.4-.6-.8-.9-1.1 2.8-.6 4.6-1.4 5.4-2.5h-4.8v-1h5.3c.1-.3.2-.7.2-1.2h-4.9v-1h5c0-.4 0-.8.1-1.2h-3.5v.5h-1.2v-3.8h4.9v-1.3h-1.8v.5h-1.2v-2.7h-2.7v-1h2.6v-1.4h1.2v1.4h4.7v-1.4zm-6.6 8.3h3.6c0-.4 0-.9 0-1.4h-3.6zm1.9-4.6h4.7v-1.3h-4.7zm6.6 3.2h-3.7v1.4h3.7z" fill="#fbfcfa"/><path d="m385.3 3.8h1.3v2.2h2.8v-2.2h1.3v2.2h4.1v9.1h1.7v1.3h-16.9v-1.3h1.7v-9.1h4.1v-2.2zm.4 13.1.7 1.2c-1.8.9-3.8 1.9-6 2.9-.2-.4-.5-.8-.8-1.3 2.3-1 4.3-1.9 6.1-2.8zm-3.1-6.4h2.8v-3.2h-2.8zm0 4.6h2.8v-3.3h-2.8zm4-4.6h2.8v-3.2h-2.8zm0 4.6h2.8v-3.3h-2.8zm3.7 1.9c2.1.9 4.1 1.8 6.1 2.7l-.7 1.3c-2.2-1.1-4.2-2-6.1-2.9zm3.2-9.7h-2.8v3.2h2.8zm-2.8 7.8h2.8v-3.3h-2.8z" fill="#fbfcfa"/></svg>