<svg enable-background="new 0 0 400 400" viewBox="0 0 400 400" xmlns="http://www.w3.org/2000/svg"><path d="m6.4 11.7c-1-.8-1.9-1.6-2.9-2.3l.6-.7c.9.7 1.9 1.4 2.9 2.2zm-2.1 8.3c.7-2.1 1.4-4.2 2-6.4.2.1.6.3 1 .4-.7 2.3-1.3 4.4-1.9 6.4zm3-12.8c-1.1-.9-2.1-1.7-2.9-2.4l.6-.7c1 .8 2 1.5 3 2.4zm1.4-1.3v-.9h10.2v.9c-.9 4.2-2.3 7.3-4.1 9.4 1.3 1.4 3.2 2.7 5.7 4-.2.2-.4.5-.7.9-2.5-1.4-4.4-2.7-5.7-4.2-1.4 1.5-3.5 3-6.1 4.4 0 0 0 0-.1-.1-.3-.4-.5-.7-.7-.8 2.7-1.3 4.7-2.8 6.2-4.2-1.8-2.2-3-5.3-3.7-9.4zm9.2 0h-7.1c.6 3.8 1.7 6.7 3.4 8.7 1.7-2 2.9-4.8 3.7-8.7z" fill="#fbfcfa"/><path d="m31.6 3.6h.9v2.3h4.1v9.1h1.7v.9h-16.6v-.9h1.7v-9.1h4.1v-2.3h.9v2.3h3.1v-2.3zm-4 13.3.6.8c-1.9.9-3.8 1.9-5.8 2.8-.2-.3-.3-.6-.5-.9 2-.9 3.9-1.8 5.7-2.7zm-3.2-10.1v3.7h3.1v-3.7zm0 4.5v3.7h3.1v-3.7zm4.1-4.5v3.7h3.1v-3.7zm0 4.5v3.7h3.1v-3.7zm9.1 9.1c-2.1-1.1-4.1-2-5.8-2.7l.5-.8c2.2.9 4.1 1.8 5.8 2.6zm-1.9-13.6h-3.1v3.7h3.1zm-3.2 4.5v3.7h3.1v-3.7z" fill="#fbfcfa"/><g fill="#010101"><path d="m288 242.36c3.93 2.63 7.46 4.82 10.76 7.3 1.05.78 2.06 2.35 2.06 3.55 0 .84-1.65 2.15-2.76 2.41-3.05.71-6.19 1.08-9.31 1.39-19.84 1.97-39.69 3.78-59.52 5.86-14.7 1.54-29.35 3.52-44.04 5.04-2.8.29-4.03 1.3-3.9 3.87.45 9.11.4 18.29 1.69 27.29 1.43 9.99 8.54 16.22 17.53 19.43 7.26 2.6 15.05 4.79 22.68 5.08 30.16 1.17 60.12-.5 89.51-8.46 12.18-3.3 19.46-11.53 23.64-22.39 3.74-9.69 5.77-20.03 8.59-30.07.68-2.42 1.51-4.79 2.27-7.19.51.07 1.02.14 1.53.21 1.11 7.75 1.9 15.57 3.42 23.24 1.77 8.93 3.98 17.78 6.38 26.56 1.41 5.17.37 10.22-3.92 13.91-13.09 11.27-28.7 17.19-45.31 20.63-26.98 5.59-54.21 5.24-81.43 2.28-9.68-1.05-19.57-2.21-28.78-5.14-23.18-7.36-34.3-26.52-32.79-50.82 1.24-20.04.65-40.2.53-60.31-.02-3.14-1.88-6.24-2.76-9.4-.36-1.3-.81-2.86-.38-3.98.26-.67 2.24-1.18 3.28-.96 23.94 5.07 46.9-2.9 70.27-5.28 14.56-1.49 28.68-4.83 42.11-11.02 2.32-1.07 6.16-.47 8.64.72 7.76 3.75 15.37 7.88 22.71 12.41 5.95 3.67 5.65 7.33-.55 10.63-9.77 5.19-16.37 13.28-22.15 23.21zm-105.67 16.54c12.18-1.68 24.09-3.27 35.97-5.06.9-.14 2.23-1.72 2.25-2.64.16-10.71.1-21.43.1-32.57-12.01.95-24.58 1.95-38.67 3.06 10.39 12.44-1.31 23.93.35 37.21zm52.72-6.16c8.51-1.65 15.28-3.15 22.12-4.23 8.83-1.39 15.71-4.46 17.29-14.65.85-5.51 3.14-10.78 4.43-16.25.88-3.73-.8-5.6-4.88-5.26-5.62.46-11.27.52-16.88 1-6.81.58-13.6 1.41-21.09 2.2 4.03 4.62 3.5 9.01 2.54 13.78-1.47 7.24-2.25 14.61-3.53 23.41z"/><path d="m56.45 302.43c2.14.93 4.3 1.84 6.43 2.79 6.96 3.11 13.77 6.64 20.93 9.19 4.54 1.62 8.29.56 11.73-4.38 11.83-16.99 15.61-36.04 16.45-56.09.13-3.15.2-6.3.4-9.44.27-4.16-1.77-6.68-5.78-6.32-15.39 1.38-30.35 4.11-41.86 15.86-5.09 5.2-8.68 4.54-10.81-2.46-2.1-6.92-2.74-13.25 3.72-19.41 11.81-11.27 15.52-25.5 11.51-41.58-.64-2.58-.33-5.39-.47-8.09 2.95.53 6.18.46 8.78 1.72 3.93 1.91 7.33 2.65 11.73 1.11 6.53-2.29 13.41-3.61 20.15-5.25 3.34-.81 4.94-2.95 5.57-6.21 1.51-7.81 3.29-15.57 4.69-23.4 1.03-5.79-.66-7.25-6.6-6.11-10.59 2.03-21.17 4.14-31.76 6.19-7.11 1.38-17.05-3-19.9-9.46 3.95-.73 7.7-1.51 11.47-2.09 15.93-2.46 31.67-5.52 46.94-11.05 4.08-1.48 10.03-1.15 13.86.81 7.13 3.66 13.43 8.99 19.86 13.91 2.58 1.98 2.09 4.89-.77 6-9.87 3.85-14.63 12.7-20.69 20.3-1.43 1.79-2.61 3.77-3.98 5.77 2.32 1.99 4.64 3.64 6.51 5.7 1.11 1.22 2.5 3.57 2.02 4.51-.74 1.44-2.89 2.72-4.62 3.01-12.76 2.17-25.54 4.26-38.36 5.98-4.91.66-6.98 2.13-8.05 7.64-1.84 9.53-5.64 18.69-8.63 28-.3.93-.65 1.85-1.31 3.72 4.44-.87 8.33-1.3 12.01-2.43 8.84-2.71 17.5-6.01 26.39-8.52 3.25-.92 7.57-1.49 10.32-.09 6.11 3.12 11.63 7.45 17.18 11.56 3.02 2.23 2.14 4.47-.91 6.14-7.7 4.24-10.82 11.04-11.6 19.58-2.08 22.86-4.99 45.54-16.32 66.15-6.18 11.24-15.43 18.49-27.66 22.11-2.86.85-5.01.2-5.89-2.81-4.13-14.01-11.76-25.96-21.4-36.77-1.09-1.22-1.48-3.08-2.19-4.64.3-.38.61-.77.91-1.15z"/><path d="m208.87 20.81c11.7.09 21.68 2.63 29.79 10.74 2.7 2.7 3 5.12 1.21 8.38-4.57 8.3-8.96 16.7-13.39 25.09-.76 1.43-1.35 2.96-2.53 5.57 11.22-1.85 21.49-3.47 31.74-5.24 11.49-1.98 23.09-4.44 34.57-1.23 5.73 1.6 10.95 5.19 16.19 8.25 1.33.78 1.85 2.93 2.75 4.46-1.48.86-2.87 2.07-4.46 2.48-2.22.57-4.59.69-6.9.74-24.93.49-49.85.99-74.78 1.28-3.14.04-3.76 1.73-4.71 3.96-4.44 10.36-8.79 20.78-13.7 30.92-1.73 3.57-3.66 9.62-8.93 7.41-4.87-2.04-1.16-7.17-.4-10.72 2.06-9.72 4.64-19.33 7.22-29.77-4.82.42-9.01.71-13.18 1.17-11.22 1.25-22.42 2.71-33.65 3.79-3.73.36-4.55 1.55-4.16 5.32.67 6.43.62 12.96.48 19.44-.04 1.71-1.49 3.39-2.3 5.09-1.59-.99-3.83-1.6-4.64-3.03-2.36-4.17-4.27-8.61-6.13-13.04-1.28-3.04-2.18-6.25-3.45-9.97-7.62 1.22-15.27 2.37-22.89 3.67-11.61 1.98-23.19 4.08-34.8 6.08-.94.16-2.05.3-2.9-.03-6.49-2.49-12.99-4.98-19.37-7.76-1.69-.74-2.95-2.46-4.41-3.72-.01-.62-.02-1.23-.03-1.85 3.29-.76 6.54-1.98 9.86-2.22 23.18-1.64 46.37-3.08 70.04-4.61-2.61-15.04-11.92-24.88-21.03-35.8 12.08-2.88 22.69-3.27 33.14 1.66 4.9 2.31 4.65 6.77 5.04 10.97.57 6.24.95 12.5 1.45 19.18 13.19-1.38 25.71-2.68 38.22-4.02 3.79-.41 7.58-1.33 11.36-1.33 3.94.01 5.61-1.27 5.91-5.33 1.01-13.54 2.33-27.06 3.51-40.6.13-1.73.17-3.47.26-5.38z"/><path d="m276.93 161.4c2.16 1.97 4.06 3.37 5.51 5.14 1.16 1.42 2.91 4.1 2.41 4.79-1.2 1.67-3.46 3.25-5.48 3.54-13.46 1.95-27 3.38-40.46 5.34-9.51 1.38-18.94 3.3-28.39 5.05-2.62.48-4.58 1.53-4.17 4.91.35 2.87.29 5.81-3.83 6.2-4.2.4-6.63-1.35-7.55-5.44-2.01-8.88-3.44-17.96-6.3-26.56-2.42-7.27-6.63-13.93-9.78-20.99-.7-1.58-.94-4.01-.18-5.39.61-1.11 3.04-1.23 4.67-1.77.12-.04.32.09.46.17 12.91 7.11 25.96 3.91 39.05.61 8.35-2.11 16.85-3.71 25.08-6.21 4.84-1.47 9.51-3.87 13.82-6.54 4.57-2.83 9.24-4.41 13.96-1.76 7.36 4.13 14.53 8.67 21.37 13.61 3.83 2.77 2.96 6.71-1.2 8.66-7.89 3.71-13.72 9.75-18.99 16.64zm-71.24 14.99c1.64-.23 3.28-.35 4.88-.69 13.78-2.88 27.49-6.2 41.36-8.51 5.28-.88 7.59-3.16 8.48-7.91.61-3.24 1.47-6.45 1.93-9.71.84-5.9-1.79-9.24-6.55-8.32-17.69 3.44-35.37 6.98-53.2 10.51 1.03 8.14 2.05 16.28 3.1 24.63z"/></g></svg>