<svg enable-background="new 0 0 400 400" viewBox="0 0 400 400" xmlns="http://www.w3.org/2000/svg"><path d="m362.1 8.8c1.1.8 2.1 1.6 3.1 2.4l-1 1.1c-1.3-1.1-2.3-2-3-2.5zm1.9 4.8c.5.2.9.4 1.4.5-.6 2.3-1.3 4.5-1.9 6.8l-1.5-.5c.8-2.1 1.4-4.3 2-6.8zm-1-9.4c1.3.9 2.4 1.8 3.4 2.5l-1 1.1c-1.4-1.2-2.4-2.1-3.2-2.6zm3.7 2.2v-1.4h10.3v1.2c-.5 3.6-1.8 6.8-4 9.4 1.5 1.6 3.4 2.8 5.7 3.8-.3.4-.7.8-1.1 1.4-2.3-1.1-4.1-2.5-5.6-4.1-1.6 1.6-3.6 3.1-5.9 4.3-.3-.5-.7-.9-1-1.3 2.4-1.1 4.4-2.5 6-4.1-1.9-2.5-3-5.6-3.3-9.3h-1.1zm8.8 0h-6.4c.3 3.3 1.3 6 3 8.2 2-2.3 3.1-5.1 3.4-8.2z" fill="#fcfbfa"/><path d="m385.3 3.8h1.3v2.2h2.8v-2.2h1.3v2.2h4.1v9.1h1.7v1.3h-16.9v-1.3h1.7v-9.1h4.1v-2.2zm.4 13.1.7 1.2c-1.8.9-3.8 1.9-6 2.9-.2-.4-.5-.8-.8-1.3 2.3-1 4.3-1.9 6.1-2.8zm-3.1-6.4h2.8v-3.2h-2.8zm0 4.6h2.8v-3.3h-2.8zm4-4.6h2.8v-3.2h-2.8zm0 4.6h2.8v-3.3h-2.8zm3.7 1.9c2.1.9 4.1 1.8 6.1 2.7l-.7 1.3c-2.2-1.1-4.2-2-6.1-2.9zm3.2-9.7h-2.8v3.2h2.8zm-2.8 7.8h2.8v-3.3h-2.8z" fill="#fcfbfa"/><g fill="#010100"><path d="m278.91 96.92c-18.67 9.89-36.82 19.5-54.97 29.12.02.51.04 1.02.06 1.53 11.19 4.03 22.25 8.46 33.59 12.03 32.66 10.29 66.06 16.33 100.43 16.51 4.31.02 8.61 1.44 12.91 2.21.03.55.06 1.1.08 1.64-2.48 1.19-4.84 2.8-7.45 3.5-18.23 4.89-36.38 10.26-54.85 14.08-9.02 1.87-18.42 2.08-27.58-3.04-36.14-20.21-72.63-39.78-109-59.57-1.73-.94-3.5-1.83-5.4-2.81-4.34 3.85-8.55 7.6-12.48 11.09 2.1 4.42 5.27 8.41 5.75 12.71.81 7.15-.07 14.5-.31 21.77-.13 4.1-.41 8.2-.65 12.93 18.74-7.57 35.31-18.93 55.07-21.44.36.56.73 1.11 1.09 1.67-1.98 1.81-3.78 3.89-5.98 5.37-9.39 6.29-18.56 13.03-28.46 18.41-12.31 6.68-22.94 15.29-32.95 24.86-5.37 5.14-6.67 5.25-11.34-.47-2.05-2.51-3.84-5.49-4.85-8.55-1.7-5.14-2.15-10 3.21-14.17 5.4-4.19 8.5-10.01 8.26-17.36-.29-8.52-.07-17.06-.7-25.81-33.78 27.48-68.67 51.86-111.59 61.39-.37-.53-.73-1.07-1.1-1.6 2.24-1.68 4.35-3.56 6.73-5.01 29.4-18 58.59-36.39 84.88-58.77 13-11.07 24.54-23.84 36.7-35.89 1.02-1.01 1.72-2.34 3.02-4.16-26.64 4.33-52.43 10.37-78.73 4.67-.19-.68-.38-1.37-.57-2.05 3.3-1.31 6.48-3.17 9.91-3.85 21.8-4.37 43.72-8.15 65.46-12.77 25.81-5.49 51.45-11.75 77.21-17.45 11.17-2.47 22.47-4.42 33.71-6.55 1.13-.21 2.33-.13 3.49-.11 3.44.06 6.85 1.28 7.16 4.78.16 1.87-2.25 5.08-4.21 5.84-9.87 3.83-19.78 7.85-30.04 10.34-20.3 4.93-40.82 8.89-61.25 13.27-.94.2-1.83.63-2.76.96 3.7 8.12 3.7 8.12-4.56 19.03 12.09 5.63 24.06 11.25 36.11 16.7.86.39 2.63-.17 3.44-.9 9.56-8.52 19.26-16.93 28.35-25.94 2.23-2.21 2.7-6.46 3.35-9.89.42-2.23.11-4.82 3.25-4.19 10.04 2.01 19.73 4.92 26.79 13.1.51.58.85 1.35 1.77 2.84z"/><path d="m224.36 325.13c6.32.38 12.63.89 18.95 1.11 4.62.16 9.29.21 13.87-.3 1.38-.15 3.43-2.25 3.62-3.66.97-7.23 1.91-14.52 1.99-21.8.29-26.46-.22-52.89-4.88-79.05-.32-1.8-.72-3.6-1.26-5.34-1.91-6.16-3.99-8.18-10.45-7.8-13.59.8-27.14 2.16-40.71 3.33-1.96.17-3.89.6-6.15.95v24.85c13.9-.98 27.72-7.88 42.02-.42-2.69 5.53-7.63 6.07-11.97 6.97-9.89 2.05-19.89 3.58-30.11 5.37v24.59c8.78-1.88 17.31-4.05 25.97-5.4 3.97-.62 8.34-.2 12.25.83 2.13.56 4.48 3.12 5.15 5.26.38 1.21-2.13 4.44-3.9 5-6.9 2.19-13.97 3.94-21.08 5.35-5.65 1.12-11.45 1.51-17.49 2.26-.69 11.32-.73 22.49-2.29 33.46-.95 6.72-4.04 13.19-6.62 19.59-.58 1.43-3.03 2.84-4.64 2.86-.99.01-2.56-2.5-2.92-4.09-.91-4.01-1.71-8.14-1.79-12.23-.23-11.98-.08-23.97-.08-36.21-13.59-2.98-27.92 4.75-42.43-3.18 7.11-4.37 13.59-5.07 20.1-5.87 5.91-.73 11.8-1.68 17.67-2.71 3.32-.58 5-2.31 4.77-6.19-.39-6.61-.11-13.27-.11-19.95-12.21-1.82-24.86 5.18-36.12-3.51 11.45-4.7 23.72-4.95 35.81-7.64 0-8.94 0-18 0-27.52-15.68 2.45-31.04 4.85-47.44 7.42 0 11.5.86 22.99-.15 34.31-4.32 48.21-27.07 83.63-72.9 102.42-2.38.98-4.95 1.49-7.44 2.22-.27-.4-.53-.8-.8-1.19 1.72-1.86 3.27-3.93 5.18-5.56 12.58-10.66 25.09-21.3 34.89-34.82 14.77-20.38 22.03-43.16 21.77-68.12-.11-10.34-2.07-20.7-3.69-30.98-.49-3.12-2.62-5.98-4.47-9.97 3.28-.64 6.39-2.12 9.15-1.63 20.53 3.59 40.79.46 61.01-2.29 21.54-2.93 42.98-6.61 64.44-10.05 2.44-.39 5.06-.88 7.14-2.1 5.51-3.22 10.83-2.34 16.06.21 7.72 3.76 15.73 7.17 22.86 11.88 6.32 4.17 6.01 6.14 1.16 11.95-5.97 7.15-8.16 15.76-8 24.63.28 15.45 1.27 30.9 2.36 46.33.8 11.43 3.13 22.81 3.13 34.21 0 14.84-4.54 28.41-16.18 38.78-3.66 3.26-6.55 2.44-9.15-1.05-2.28-3.06-4.35-6.29-6.48-9.46-6.5-9.68-15.48-16.34-25.89-21.27-1.05-.5-2.04-1.13-3-1.77-.38-.26-.62-.73-.93-1.1.07-.63.14-1.27.2-1.91z"/><path d="m172.93 20.86c8.91 1.76 17.89 3.27 26.72 5.38 6.04 1.44 11.85 9.16 12.4 15.33.6 6.69-5.96 12.28-11.89 9.45-11.65-5.56-22.98-11.78-34.41-17.8-1.3-.69-2.58-1.66-3.49-2.79-1.29-1.6-2.24-3.48-3.33-5.25 1.93-1.03 3.77-2.56 5.82-2.98 2.56-.52 5.3-.12 7.97-.12.07-.4.14-.81.21-1.22z"/></g></svg>