<svg enable-background="new 0 0 400 400" viewBox="0 0 400 400" xmlns="http://www.w3.org/2000/svg"><path d="m362.1 8.8c1.1.8 2.1 1.6 3.1 2.4l-1 1.1c-1.3-1.1-2.3-2-3-2.5zm1.9 4.8c.5.2.9.4 1.4.5-.6 2.3-1.3 4.5-1.9 6.8l-1.5-.5c.8-2.1 1.4-4.3 2-6.8zm-1-9.4c1.3.9 2.4 1.8 3.4 2.5l-1 1.1c-1.4-1.2-2.4-2.1-3.2-2.6zm3.7 2.2v-1.4h10.3v1.2c-.5 3.6-1.8 6.8-4 9.4 1.5 1.6 3.4 2.8 5.7 3.8-.3.4-.7.8-1.1 1.4-2.3-1.1-4.1-2.5-5.6-4.1-1.6 1.6-3.6 3.1-5.9 4.3-.3-.5-.7-.9-1-1.3 2.4-1.1 4.4-2.5 6-4.1-1.9-2.5-3-5.6-3.3-9.3h-1.1zm8.8 0h-6.4c.3 3.3 1.3 6 3 8.2 2-2.3 3.1-5.1 3.4-8.2z" fill="#fcfbfa"/><path d="m385.3 3.8h1.3v2.2h2.8v-2.2h1.3v2.2h4.1v9.1h1.7v1.3h-16.9v-1.3h1.7v-9.1h4.1v-2.2zm.4 13.1.7 1.2c-1.8.9-3.8 1.9-6 2.9-.2-.4-.5-.8-.8-1.3 2.3-1 4.3-1.9 6.1-2.8zm-3.1-6.4h2.8v-3.2h-2.8zm0 4.6h2.8v-3.3h-2.8zm4-4.6h2.8v-3.2h-2.8zm0 4.6h2.8v-3.3h-2.8zm3.7 1.9c2.1.9 4.1 1.8 6.1 2.7l-.7 1.3c-2.2-1.1-4.2-2-6.1-2.9zm3.2-9.7h-2.8v3.2h2.8zm-2.8 7.8h2.8v-3.3h-2.8z" fill="#fcfbfa"/><g fill="#010100"><path d="m230.1 221.32c3.79 6.12 7.51 11.78 10.8 17.68.92 1.65 1.45 4.47.66 5.97-12.79 24.2-23.76 49.55-44.67 68.54-13.31 12.09-27.91 22.05-44.31 29.33-3.18 1.41-6.81 1.81-10.23 2.68-.33-.58-.66-1.16-.99-1.73 1.67-1.59 3.14-3.49 5.05-4.71 41.78-26.67 66.41-65.18 78.03-112.7.35-1.42.5-2.88.8-4.63-5.66.13-10.88-.33-12.52 6.89-.4 1.78-3.59 4.25-5.25 4.08-2.11-.22-5.44-2.61-5.69-4.42-1.04-7.46-2.2-15.18-1.36-22.58 3.46-30.51 4.99-61.06 2.44-91.66-1.07-12.84-3.93-25.54-5.91-38.31-.27-1.75-.2-3.56-.29-5.49 6.83-1.65 12.9-.01 18.78 2.33 3.87 1.54 7.45 1.72 11.55.72 17.11-4.16 33.98-8.89 50.1-16.22 3.1-1.41 7.48-.74 11.11-.13 12.19 2.07 22.71 7.51 30.56 17.26 1.26 1.57 2.11 4.88 1.31 6.46-5.5 10.81-7.04 22.47-7.69 34.25-1.04 18.94-1.08 37.94-2.53 56.84-1.27 16.48.51 33.33-4.86 49.38-1.36 4.06-3.04 8.13-5.32 11.72-2.72 4.27-5.35 4.14-7.83-.21-2.71-4.75-4.96-9.78-7.2-14.78-1.36-3.04-3.09-4.16-6.59-3.43-5.5 1.15-11.13 1.65-17.55 2.55 3.51 3.31 6.4 6.14 9.39 8.86 6.05 5.5 7.4 12.23 5.61 19.97-4.68 20.24-5.14 40.88-5.19 61.48-.03 12.05 6.85 20.75 18.81 22.28 11.92 1.53 24.28 2.09 36.18.74 16.33-1.86 27.11-14.59 30.53-33.17 1.11-6.02 1.2-12.22 2.24-18.26.7-4.1 2.24-8.05 3.41-12.06.67.04 1.33.08 2 .12.53 1.94 1.44 3.86 1.52 5.82.7 16.7 3.77 32.96 8.66 48.9 2.9 9.46 1.89 12.6-6.52 17.94-9.71 6.16-20.66 9.12-31.84 10.93-15.51 2.51-31.13 3.12-46.56-.61-19.19-4.65-30.26-17.85-30.6-38.44-.34-20.39 1.29-40.82 1.18-61.22-.05-9.86-2.08-19.72-3.3-29.57-.39-3.14-2.09-3.89-5.29-3.17-6.75 1.5-13.6 2.52-20.63 3.78zm-10.92-97.42c10.15-3.4 20.59-7.19 31.23-10.34 5.95-1.76 12.17-3 18.34-3.39 3.33-.21 7.04 1.92 7.3 6.17.24 4-3.22 4.97-6.23 6.02-.93.33-1.9.57-2.87.76-16.08 3.1-32.17 6.19-48.69 9.36v33.58c1.33-.29 2.46-.45 3.54-.79 9.33-2.94 18.55-6.3 28.01-8.75 6.66-1.73 13.61-2.72 20.48-3.02 2.17-.09 4.48 3.12 6.72 4.82-1.9 2.13-3.74 4.33-5.74 6.36-.51.52-1.55.52-2.35.73-7.04 1.9-14.02 4.08-21.14 5.63-9.81 2.13-19.73 3.79-29.23 5.58-.9 12.17-1.77 24.02-2.69 36.42 10.48-1.86 21.03-3.79 31.61-5.6 12.63-2.17 24.97-7.12 38.47-3.58.68-2.27 1.63-4.27 1.83-6.34.75-7.77 1.68-15.56 1.76-23.34.28-27.65.29-55.3.25-82.95 0-3.62-.47-7.34-1.39-10.83-1.74-6.57-6.22-9.59-12.76-8.1-17.93 4.09-35.78 8.51-53.62 12.99-1.14.29-2.67 2.13-2.69 3.27-.22 11.59-.14 23.23-.14 35.34z"/><path d="m120.85 168.95c2.78 3.17 5.67 5.61 7.41 8.7 1.35 2.39 1.92 5.64 1.68 8.41-.59 6.72-2.77 13.39-2.7 20.06.26 24.45 1.46 48.89 1.73 73.35.16 14.39-4.52 27.44-13.88 38.59-4.97 5.92-9.39 5.55-12.99-1.07-5.56-10.23-12.94-18.88-22.16-26.04-2.66-2.06-4.81-4.76-7.2-7.17l.75-1.26c5.54 1.25 11.08 2.51 16.62 3.75.97.22 1.95.46 2.93.56 13.79 1.41 16.01-.27 16.84-14.02 1.08-17.74 2.4-35.49 2.51-53.24.07-12.42-1.54-24.87-2.8-37.27-.32-3.08-2.22-6-3.44-9.14-16.43 3.71-31.9 7.79-46.61 14.56-3.16 1.45-8 1.92-11 .54-6.99-3.23-13.55-7.57-19.86-12.04-3.2-2.27-1.88-5.99 2.12-6.86 1.92-.42 3.96-.35 5.95-.35 26.2.06 51.93-3.98 78.19-8.47 0-1.97.03-3.75 0-5.53-.35-21.3-.46-42.62-1.2-63.91-.31-8.93-1.64-17.86-3.11-26.69-.83-4.97-2.09-10.04-7.02-13.24-1.73-1.13-2.52-3.72-4.6-7 4.09 0 7.19-.77 9.67.14 7.62 2.8 15.19 5.86 22.41 9.54 6 3.06 5.66 5.68 3.74 12.35-2.6 9.03-4.06 18.42-5.62 27.71-.9 5.37-1.05 10.86-1.64 17.41 3.57-.95 6.58-1.47 9.38-2.55 5.57-2.15 10.85-5.22 16.57-6.77 5.32-1.44 11.07-2.07 16.55-1.73 2.41.15 4.62 3.57 6.92 5.51-1.8 1.78-3.33 4.59-5.46 5.18-11.01 3.02-22.11 5.74-33.31 7.94-3.16.62-6.73-.91-10.39-1.49-.55 13.56-1.1 27.25-1.7 41.88 12.12-2.31 23.76-4.48 35.38-6.76 5.21-1.02 10.36-2.36 15.58-3.34 7.05-1.33 12.78 1.08 16.31 7.28-23.83 6.64-48.4 7.67-72.55 12.48z"/><path d="m73.15 208.42c6.8 7.72 6.71 15.93 4.46 24.46-3.51 13.28-10.98 24.51-18.86 35.44-3.48 4.82-7.87 3.93-10.14-1.73-3.34-8.32-2.3-15.88 2.98-23.49 6.3-9.09 11.57-18.9 17.33-28.38 1.25-2.06 2.69-4.01 4.23-6.3z"/><path d="m146.19 203.49c14.65 2.31 28.44 3.45 37.66 15.42 4.32 5.61 5.83 12.21 4.5 19.27-1.02 5.42-4.08 7.12-8.3 3.66-7.54-6.17-14.71-12.85-21.48-19.85-4.12-4.26-7.25-9.49-10.74-14.35-.62-.85-.82-2-1.64-4.15z"/></g></svg>