<svg enable-background="new 0 0 400 400" viewBox="0 0 400 400" xmlns="http://www.w3.org/2000/svg"><path d="m6.4 11.7c-1-.8-1.9-1.6-2.9-2.3l.6-.7c.9.7 1.9 1.4 2.9 2.2zm-2.1 8.3c.7-2.1 1.4-4.2 2-6.4.2.1.6.3 1 .4-.7 2.3-1.3 4.4-1.9 6.4zm3-12.8c-1.1-.9-2.1-1.7-2.9-2.4l.6-.7c1 .8 2 1.5 3 2.4zm1.4-1.3v-.9h10.2v.9c-.9 4.2-2.3 7.3-4.1 9.4 1.3 1.4 3.2 2.7 5.7 4-.2.2-.4.5-.7.9-2.5-1.4-4.4-2.7-5.7-4.2-1.4 1.5-3.5 3-6.1 4.4 0 0 0 0-.1-.1-.3-.4-.5-.7-.7-.8 2.7-1.3 4.7-2.8 6.2-4.2-1.8-2.2-3-5.3-3.7-9.4zm9.2 0h-7.1c.6 3.8 1.7 6.7 3.4 8.7 1.7-2 2.9-4.8 3.7-8.7z" fill="#fbfcfa"/><path d="m31.6 3.6h.9v2.3h4.1v9.1h1.7v.9h-16.6v-.9h1.7v-9.1h4.1v-2.3h.9v2.3h3.1v-2.3zm-4 13.3.6.8c-1.9.9-3.8 1.9-5.8 2.8-.2-.3-.3-.6-.5-.9 2-.9 3.9-1.8 5.7-2.7zm-3.2-10.1v3.7h3.1v-3.7zm0 4.5v3.7h3.1v-3.7zm4.1-4.5v3.7h3.1v-3.7zm0 4.5v3.7h3.1v-3.7zm9.1 9.1c-2.1-1.1-4.1-2-5.8-2.7l.5-.8c2.2.9 4.1 1.8 5.8 2.6zm-1.9-13.6h-3.1v3.7h3.1zm-3.2 4.5v3.7h3.1v-3.7z" fill="#fbfcfa"/><g fill="#010101"><path d="m53.45 300.99c20.81-27.55 41.07-55.32 40.3-93.51-5.36 2.26-9.79 3.64-13.72 5.89-6.11 3.51-11.58 3.53-16.85-1.34-2.68-2.47-5.77-4.63-7.95-7.49-3.19-4.18-1.57-7.32 3.65-7.54 5.16-.22 10.33.05 15.49-.09 22.55-.61 44.45-5.23 66.13-11.08 1.12-.3 2.64-1.76 2.75-2.81 1.25-11.83 2.26-23.68 3.38-36.14-19.73 3.6-37.54 8.79-53.64 18.55-4.26 2.58-6.57.75-8.94-1.77-2.72-2.88-3.77-6.96-1.15-9.97 11.73-13.48 10.46-28.77 6.27-44.22-1.57-5.8-5.27-11.01-7.95-16.51-1.11-2.27-2.08-4.61-3.16-7.03 9.39-2.74 22.44.6 26.68 8.06 2.36 4.15 2.05 10.19 1.88 15.34-.38 11.44-1.42 22.86-2.26 35.17 4.91-.97 8.88-1.74 12.84-2.54 8.78-1.77 17.56-3.56 26.33-5.34 2.39-.48 4.1-1.06 4.14-4.35.18-13.97 1.2-27.95.99-41.91-.17-11.38-1.64-22.73-2.57-34.52 5.03-1.15 10.79.43 15.77 3.19 6.55 3.62 13.07 3.87 20.1 2.82 33.15-4.97 66.29-9.91 99.47-14.67 11.98-1.72 24.01-3.15 36.07-4.15 3.07-.25 6.62 1.12 9.37 2.73 1.91 1.12 3.9 3.96 3.84 5.98-.04 1.53-3.05 3.72-5.11 4.28-4.12 1.14-8.49 1.47-12.77 1.95-31.21 3.44-62.43 6.78-93.64 10.25-17.15 1.91-34.28 3.99-51.17 5.97-1.37 25.15-2.72 50-4.09 75.23 8.92-9.58 16.81-20.05 23.2-31.6 6.46-11.66 12.69-23.45 11.35-37.47 7.15.38 16.77 7.19 17.82 13.46.46 2.72-1.4 6.27-3.11 8.84-5.23 7.87-10.94 15.41-16.33 23.17-.72 1.03-1.08 2.65-.91 3.91 1.03 7.66 3.03 15.27 3.28 22.94.46 14.14.06 28.32-.26 42.47-.09 3.94-.94 7.92-1.91 11.76-.38 1.53-2.04 3.87-3.09 3.85-1.62-.03-3.75-1.4-4.71-2.84-4.51-6.79-3.96-14.23-3.01-22.02 1.69-13.75 2.6-27.61 3.57-41.44.19-2.65-.84-5.38-1.52-9.31-6.97 11.07-16.23 18.05-24.93 25.7-2.5 2.19-2.63 7.47-3.19 11.43-5.38 38.55-14.47 76.01-32.16 110.97-10.3 20.34-23.27 38.81-40.09 54.33-3.14 2.9-7.09 4.9-10.67 7.32-.52-.53-1.05-1.07-1.57-1.6 2.66-4.22 5.12-8.59 8.01-12.64 27.19-38.16 45.96-79.98 54.86-126.09.56-2.89.9-5.81 1.45-9.44-13.75 3.43-26.88 6.7-40.82 10.17 3.74 2.41 6.95 4.27 9.94 6.43 5.42 3.91 5.55 6.77 2.52 12.69-3.55 6.93-6.33 14.25-9.47 21.38-7.97 18.12-17.54 35.16-33.01 48.11-3.05 2.55-6.43 4.73-9.83 6.82-1.42.87-3.27 1.05-4.93 1.54-.3-.42-.63-.84-.96-1.27z"/><path d="m237.76 204.12c10.94 5.81 15.48 12.08 11.7 21.86 9.38-1.55 18.49-3.28 27.66-4.52 14.97-2.04 29.94-4.39 44.99-5.36 7.24-.47 14.79 1.44 21.95 3.25 2.69.68 4.69 4.11 7 6.29-2.92 1.47-5.76 3.97-8.79 4.24-15.23 1.38-30.53 1.87-45.76 3.26-20.18 1.84-40.36 3.86-60.46 6.46-21.07 2.73-41.98 6.75-63.09 9.07-6.22.68-12.93-2.23-19.26-4.07-1.29-.38-2.8-3.51-2.47-4.99.32-1.46 2.77-3.32 4.42-3.47 21.18-1.91 42.39-3.42 63.56-5.31 6.86-.61 13.65-2.06 20.8-3.18-4.37-6.42-8.54-12.36-12.51-18.43-2.88-4.39-2.57-5.05 2.6-7.16-4.87-9.29-1.07-18.87-.8-28.38.41-14.74.98-29.47 1.49-44.53-8.59 7.58-16.56 14.61-24.53 21.65-.61-.51-1.23-1.03-1.84-1.54 1.02-1.89 1.8-3.96 3.09-5.63 11.95-15.46 22.42-31.79 29.88-49.95 1.88-4.57 3.41-8.98 1.76-13.97-.44-1.33-.07-2.92-.07-4.88 9.46.91 15.29 6.26 19.45 13.06-7.09 10.99-14.01 21.7-19.84 30.74 1.31 6.66 3.04 11.69 3.16 16.76.38 15.47.14 30.96.14 47.06 12.47-1.3 24.59-2.5 36.68-3.97 1.08-.13 2.67-2.02 2.76-3.19.33-4.27.13-8.59.13-13.06-10.19-.71-20.38 3.81-29.66-2.64 8.85-6.21 19.47-5.33 29.38-8.19 0-4 0-8.1 0-12.58-5 .76-9.83 1.96-14.68 2.09-4.73.13-9.99 1.89-14.97-3.03 9.26-6.16 19.68-7.09 30.01-9.94-.42-2.24-.63-4.53-1.3-6.67-1.21-3.84-3.46-5.31-7.94-4.51-5.84 1.04-11.88 1.02-17.84 1.15-1.82.04-3.66-.96-5.49-1.48-.11-.54-.22-1.07-.33-1.61 2.68-1.28 5.23-3.2 8.05-3.75 21.34-4.18 42.72-8.15 64.12-11.97 1.53-.27 3.37 1.15 5.06 1.78-1.27 1.74-2.23 4.54-3.86 5.02-6.2 1.81-12.63 2.8-18.95 4.21-3.69.82-7.33 1.84-11.29 2.84.39 4.39.74 8.28 1.08 12.05 10.01.61 19.54-5.23 30.67.8-3.22 2.24-5.16 4.49-7.53 5.07-7.39 1.83-14.93 3.04-22.77 4.56v14.32c9.49-1.17 19-4.37 28.35-.29.17.61.33 1.22.5 1.83-2.22.97-4.35 2.36-6.67 2.81-6.18 1.22-12.42 2.13-18.67 2.97-4.02.54-6.32 1.93-5.79 6.63.46 4.06.1 8.22.1 12.91 14.15-1.48 27.63-3.1 41.15-4.19 4.14-.33 8.64.12 12.51 1.52 1.9.69 2.72 4.36 4.03 6.68-1.94.94-3.84 2.56-5.83 2.71-20.06 1.43-40.14 2.53-60.21 3.9-12.77.87-25.52 2.05-38.27 3.11-2.67.22-4.58.82-4.64 4.38-.02 3.02-1.3 6.06-2.12 9.4z"/><path d="m182.37 303.87c4.83-4.67 8.67-5.23 15.32-1.69 3.7 1.97 7.07 2.57 11.31 1.96 26.94-3.83 53.93-7.34 80.93-10.78 2.12-.27 4.59.44 6.58 1.37 7.7 3.57 12.75 9.76 16 16.1-6.07 5.03-11.67 9.67-17.49 14.48 1.68 1.97 2.56 2.92 3.35 3.94 1.99 2.57 1.07 4.44-1.69 5.33-2.35.76-4.84 1.28-7.3 1.45-21.55 1.43-43.11 2.74-64.66 4.14-3.31.22-6.61.69-9.91 1.12-3.56.47-6.98.74-8.62 5.1-1.25 3.3-4.28 3.23-6.2.45-2.04-2.95-4.06-6.21-4.91-9.63-2.89-11.71-4.45-23.85-12.71-33.34zm22.78 10.67c1.14 6.4 2.14 12.02 3.21 18 21.93-2.26 43.22-4.54 64.53-6.6 7.7-.75 9.69-2.27 10.9-10.02.35-2.24.3-4.54.47-7.34-26.71-2-52.54 2.44-79.11 5.96z"/><path d="m190.68 258.42c4.86-.81 9.69-1.84 14.58-2.39 24.21-2.73 48.42-5.52 72.67-7.83 4.79-.46 9.79.9 14.63 1.79 1.15.21 2.03 1.89 3.04 2.89-1.12 1.07-2.07 2.71-3.39 3.1-3.31.98-6.76 1.6-10.19 1.98-14.49 1.64-28.98 3.28-43.5 4.64-13.96 1.31-27.94 4.56-41.96.49-2.08-.6-4.01-1.69-6.01-2.55.05-.71.09-1.41.13-2.12z"/><path d="m190.08 282.57c5.5-.53 11.02-.86 16.48-1.64 21.83-3.11 43.63-6.39 65.46-9.54 5.09-.73 10.2-1.4 15.33-1.66 2.22-.11 4.81.37 6.65 1.51 1.55.97 3.05 3.29 3.07 5.03.02 1.25-2.3 3.41-3.81 3.65-6.36 1.01-12.82 1.38-19.23 2.1-13.51 1.52-26.98 3.61-40.54 4.53-12.19.83-24.47.54-36.71.42-2.26-.02-4.51-1.58-6.76-2.43.02-.65.04-1.31.06-1.97z"/><path d="m293.62 88.1c-.82 3.04-1.18 5-1.88 6.84-1.42 3.76-5.08 4.94-7.8 2.03-4.42-4.72-8.45-9.84-12.23-15.09-.94-1.3-.72-3.86-.18-5.58.18-.58 3.17-.92 4.51-.41 4.63 1.75 9.34 3.52 13.51 6.11 2.04 1.26 2.96 4.34 4.07 6.1z"/></g></svg>