<svg enable-background="new 0 0 400 400" viewBox="0 0 400 400" xmlns="http://www.w3.org/2000/svg"><path d="m6.4 11.7c-1-.8-1.9-1.6-2.9-2.3l.6-.7c.9.7 1.9 1.4 2.9 2.2zm-2.1 8.3c.7-2.1 1.4-4.2 2-6.4.2.1.6.3 1 .4-.7 2.3-1.3 4.4-1.9 6.4zm3-12.8c-1.1-.9-2.1-1.7-2.9-2.4l.6-.7c1 .8 2 1.5 3 2.4zm1.4-1.3v-.9h10.2v.9c-.9 4.2-2.3 7.3-4.1 9.4 1.3 1.4 3.2 2.7 5.7 4-.2.2-.4.5-.7.9-2.5-1.4-4.4-2.7-5.7-4.2-1.4 1.5-3.5 3-6.1 4.4 0 0 0 0-.1-.1-.3-.4-.5-.7-.7-.8 2.7-1.3 4.7-2.8 6.2-4.2-1.8-2.2-3-5.3-3.7-9.4zm9.2 0h-7.1c.6 3.8 1.7 6.7 3.4 8.7 1.7-2 2.9-4.8 3.7-8.7z" fill="#fbfcfa"/><path d="m31.6 3.6h.9v2.3h4.1v9.1h1.7v.9h-16.6v-.9h1.7v-9.1h4.1v-2.3h.9v2.3h3.1v-2.3zm-4 13.3.6.8c-1.9.9-3.8 1.9-5.8 2.8-.2-.3-.3-.6-.5-.9 2-.9 3.9-1.8 5.7-2.7zm-3.2-10.1v3.7h3.1v-3.7zm0 4.5v3.7h3.1v-3.7zm4.1-4.5v3.7h3.1v-3.7zm0 4.5v3.7h3.1v-3.7zm9.1 9.1c-2.1-1.1-4.1-2-5.8-2.7l.5-.8c2.2.9 4.1 1.8 5.8 2.6zm-1.9-13.6h-3.1v3.7h3.1zm-3.2 4.5v3.7h3.1v-3.7z" fill="#fbfcfa"/><g fill="#010101"><path d="m97.23 247.56c-13.43 22.16-28.82 41.8-52.96 52.39-4.26 1.87-8.95 2.77-13.45 4.12-.34-.62-.68-1.24-1.02-1.85 1.72-1.54 3.37-3.17 5.18-4.6 27.48-21.54 46.12-48.99 55.28-82.75 1.72-6.36 2.28-12.59-1.22-18.82-2.3-4.09-.74-5.94 3.99-5.24 1.89.28 3.85 1.07 5.45 2.12 4.86 3.19 9.6 6.57 14.31 9.98 4.53 3.29 4.13 6.11 1.06 10.76-4.87 7.38-8.82 15.37-13.15 23.1 11.11 6.38 21.03 12.08 31.99 18.38-1.02-28.55 2.26-56.66-3.87-84.99-17.37 4.27-33.39 8.94-48.46 16.43-13.4 6.66-24.75 4.67-34.79-6.48-1.81-2.01-3.01-4.56-4.49-6.86 2.66-.42 5.31-1.19 7.97-1.22 18.91-.21 37.19-4.41 55.46-8.65 9.21-2.13 18.43-4.24 27.6-6.51 1.24-.31 3.24-1.48 3.25-2.29.22-11.06.15-22.13.15-33.38-15.2 3.28-31.01 5.61-45.9-2.98 13.45-2.8 26.83-5.51 40.16-8.4 7.09-1.53 7.26-1.68 7.02-8.97-.45-13.44-.57-26.94-2.07-40.28-.61-5.43-4.61-10.43-6.74-15.76-.97-2.43-2.42-6.03-1.38-7.54 1.16-1.69 5.09-2.59 7.48-2.11 9.77 1.96 17.36 8.19 24.68 14.43 1.41 1.2 1.77 5.39.82 7.3-4.87 9.69-5.04 20.24-6.34 30.57-.58 4.58-.54 9.24-.8 14.44 4.49-.91 8.58-2.14 12.75-2.48 3.9-.32 8-.2 11.77.73 1.98.48 4.26 2.88 4.79 4.85.29 1.08-2.49 3.79-4.36 4.52-7.26 2.84-14.71 5.19-22.1 7.69-1.26.43-2.56.71-3.77 1.04-.66 11.43-1.31 22.78-1.96 34.11 8.88-1.66 17.35-3.07 25.75-4.86 6.42-1.37 12.24-.28 17.59 3.33 1.24.84 2.04 2.33 3.05 3.52-1.42.93-2.74 2.41-4.29 2.72-15.62 3.12-31.27 6.03-46.91 9.05-1.55.3-3.05.86-5.72 1.62 2.25 1.13 3.47 1.82 4.74 2.38 6.02 2.64 8.1 7.49 6.53 14.09-1.17 4.93-1.82 9.98-2.77 15.37 6.59.59 11.71-.5 16.48-3.68 5.54-3.7 11.55-5.23 17.89-2.26 1.73.81 4.08 2.68 4.1 4.1.03 1.62-1.87 3.96-3.54 4.81-8.32 4.29-17.03 7.48-26.58 7.59-2.98.04-5.96.01-9.36.01-.45 4.22-1.07 8.3-1.28 12.39-.65 12.45-1.22 24.9-1.59 37.36-.04 1.26 1.16 3.11 2.31 3.78 29.55 16.99 59.11 34.05 91.15 46.02 22.47 8.39 45.85 13.57 69.69 16.12 20.15 2.16 40.4 3.39 60.6 5.16 1.69.15 3.3 1.27 4.95 1.94-.02.51-.05 1.02-.07 1.53-2.48 1.1-4.86 2.53-7.44 3.25-19.48 5.47-38.79 11.76-58.56 15.88-15.1 3.15-29.98.06-43.67-8.12-51.69-30.89-103.52-61.53-155.3-92.25-3.14-1.83-6.36-3.56-10.08-5.65z"/><path d="m258.69 119.52c-.93-16.3-1.25-32.11-3.04-47.75-.68-5.91-4.83-11.4-7.24-17.15-.63-1.5-1.33-3.66-.7-4.78.53-.95 3.31-1.64 4.46-1.1 7.92 3.72 15.76 7.64 23.41 11.91 1.14.64 1.79 3.54 1.47 5.16-.99 5.08-3.45 10.01-3.7 15.07-.57 11.76-.18 23.57-.18 36.57 9.63-3.07 19.94-5.81 29.79-9.71 5.55-2.2 10.57-2.97 15.7-.19 6.28 3.4 12.44 7.08 18.44 10.96 5.13 3.32 5 5.82.99 10.42-2.11 2.42-4.34 5.46-4.77 8.47-1.04 7.17-1.4 14.49-1.38 21.74.04 10.14.53 20.29 1.09 30.42.86 15.43 2.58 30.84 2.78 46.28.24 18.61-1.94 36.93-13.67 52.57-1.29 1.73-2.66 3.45-4.25 4.9-3.12 2.86-6.52 2.8-8.34-.91-7.37-14.99-18.75-26.09-32.55-35.04-.71-.46-1.08-1.45-2.58-3.55 3.77.38 6.25.48 8.68.91 7.65 1.36 15.22 3.31 22.92 4.13 5.98.64 8.58-1.83 8.64-7.67.27-25.12.49-50.24.25-75.35-.11-11.96-1.25-23.91-2-35.86-.11-1.81-.7-3.58-.95-5.38-1.8-12.88-3.27-14.04-16.05-12.12-7.38 1.11-14.73 2.49-22.12 3.51-2.63.36-3.53 1.27-3.73 4.04-.77 10.89-1.9 21.75-2.94 33.18 7.62 3.55 16.26 7.3 24.61 11.59 3.77 1.94 7.41 4.55 10.38 7.58 6.3 6.41 5.74 14.55 4.23 22.54-.58 3.06-4.78 3.22-8.05.1-4.71-4.47-9.27-9.11-13.61-13.93-6.75-7.5-13.25-15.22-19.16-22.04-5.56 8.78-10.24 18.52-17.11 26.35-6.56 7.48-15.17 13.28-23.34 19.19-2.92 2.12-4.09 3.83-4.21 7.42-.5 15.77-1.02 31.57-5.65 46.85-.38 1.27-.58 2.65-1.23 3.76-1.1 1.89-2.48 3.61-3.75 5.4-1.78-1.62-4.26-2.9-5.23-4.91-4.14-8.62-5.85-17.77-3.01-27.13 5.59-18.48 7.37-37.48 7.7-56.62.23-13.46.36-27.03-1.07-40.38-.84-7.83-4.88-15.31-7.37-22.99-.46-1.41-.36-3-.51-4.51 1.56-.02 3.57-.67 4.63.05 10.29 7.07 21.16 4.56 32.05 2.3 6.67-1.38 13.32-2.7 21.27-4.3zm-37.49 90.73c24.23-22.28 32.38-50.01 35.04-81-12.24 2.1-23.58 4.05-35.04 6.02z"/></g></svg>