<svg enable-background="new 0 0 400 400" viewBox="0 0 400 400" xmlns="http://www.w3.org/2000/svg"><path d="m6.4 11.7c-1-.8-1.9-1.6-2.9-2.3l.6-.7c.9.7 1.9 1.4 2.9 2.2zm-2.1 8.3c.7-2.1 1.4-4.2 2-6.4.2.1.6.3 1 .4-.7 2.3-1.3 4.4-1.9 6.4zm3-12.8c-1.1-.9-2.1-1.7-2.9-2.4l.6-.7c1 .8 2 1.5 3 2.4zm1.4-1.3v-.9h10.2v.9c-.9 4.2-2.3 7.3-4.1 9.4 1.3 1.4 3.2 2.7 5.7 4-.2.2-.4.5-.7.9-2.5-1.4-4.4-2.7-5.7-4.2-1.4 1.5-3.5 3-6.1 4.4 0 0 0 0-.1-.1-.3-.4-.5-.7-.7-.8 2.7-1.3 4.7-2.8 6.2-4.2-1.8-2.2-3-5.3-3.7-9.4zm9.2 0h-7.1c.6 3.8 1.7 6.7 3.4 8.7 1.7-2 2.9-4.8 3.7-8.7z" fill="#fbfcfa"/><path d="m31.6 3.6h.9v2.3h4.1v9.1h1.7v.9h-16.6v-.9h1.7v-9.1h4.1v-2.3h.9v2.3h3.1v-2.3zm-4 13.3.6.8c-1.9.9-3.8 1.9-5.8 2.8-.2-.3-.3-.6-.5-.9 2-.9 3.9-1.8 5.7-2.7zm-3.2-10.1v3.7h3.1v-3.7zm0 4.5v3.7h3.1v-3.7zm4.1-4.5v3.7h3.1v-3.7zm0 4.5v3.7h3.1v-3.7zm9.1 9.1c-2.1-1.1-4.1-2-5.8-2.7l.5-.8c2.2.9 4.1 1.8 5.8 2.6zm-1.9-13.6h-3.1v3.7h3.1zm-3.2 4.5v3.7h3.1v-3.7z" fill="#fbfcfa"/><g fill="#010101"><path d="m26.45 323.8c1.32-2.01 2.34-4.33 4.01-5.98 20.37-20.06 35.53-43.45 45.04-70.41 1.76-4.98 3.2-10.2 3.76-15.41.37-3.42-.78-7.14-1.85-10.53-1.29-4.11-.4-6.28 3.68-5.72 8.42 1.15 15.96 4.65 21.91 10.83 2.35 2.44 2.69 5.13-.21 8.28-3.34 3.63-5.68 8.17-8.76 12.78 12.54 5.98 24.85 11.85 38.01 18.12-.45-26.5 1.25-52.05-3.46-78.13-6.72 1.8-12.84 3.15-18.77 5.09-14.49 4.75-28.82 10.05-43.39 14.52-4.17 1.28-9.38 1.68-13.39.33-6.36-2.14-12.22-5.92-18.04-9.41-1.52-.91-2.14-3.32-3.17-5.04 1.71-.7 3.41-1.97 5.15-2.02 31.86-.84 62.25-9.45 92.8-17.27.29-.07.52-.35.94-.65 0-11.82 0-23.74 0-36.2-17.27 7.4-34.4 10.29-51.77 2.53-.19-.63-.38-1.25-.57-1.88 2.48-1.21 4.85-2.88 7.47-3.56 13.79-3.54 27.66-6.75 41.44-10.32 1.44-.37 3.55-2.45 3.5-3.66-.78-18.08-1.45-36.19-3.18-54.2-.44-4.64-4.39-8.96-6.78-13.39-.63-1.16-1.57-2.16-2.14-3.35-2.78-5.78-.93-8.93 5.29-8.22 11.89 1.37 22.36 6.33 31.22 14.29 1.42 1.28 2.34 5.09 1.49 6.6-5.95 10.57-6.08 22.32-7.46 33.79-.81 6.74-.92 13.56-1.33 20.25 6.3-.77 12.14-1.51 17.98-2.17.98-.11 2.12-.14 2.97.25 3.17 1.47 6.25 3.13 9.36 4.72-2.38 1.73-4.54 4.02-7.19 5.09-6.89 2.78-14.05 4.91-21 7.56-1.4.53-3.36 2.18-3.39 3.35-.26 11.28-.15 22.56-.15 33.4 7.88-1.3 16.75-3.32 25.73-4.02 4.95-.39 10.12 1.24 15.09 2.41 1.49.35 2.63 2.19 3.93 3.34-1.37 1.03-2.6 2.63-4.13 3-11.76 2.9-23.58 5.55-35.37 8.31-2.91.68-5.78 1.48-9.92 2.54 9.2 5.97 7.88 14.17 6.57 22.59-.61 3.89-.1 7.94-.1 13.24 4.08-.73 7.84-1.27 11.54-2.09 4.82-1.07 9.54-2.69 14.39-3.41 2.07-.31 4.72.56 6.52 1.77 2.07 1.38 3.5 3.73 5.21 5.66-2 1.32-3.83 3.14-6.02 3.88-5.33 1.8-10.76 3.76-16.29 4.4-5.29.61-10.77-.37-16.9-.69-.47 6.23-1.05 13.58-1.58 20.93-.11 1.49-.04 3-.02 4.5.07 5.49-1.74 12.18.76 16.13 2.61 4.13 9.3 5.8 14.35 8.24 34.36 16.56 69.75 30.26 107.09 38.59 17 3.79 34.24 4.44 51.54 4.53 15.83.08 31.66.02 47.49.12 2.78.02 5.56.55 8.45 1.67-5.95 2.19-11.82 4.68-17.88 6.52-20.31 6.17-40.61 12.42-61.08 18-10.8 2.94-21.2.52-31.35-4.36-15.87-7.63-32.43-13.88-48.1-21.89-39.38-20.13-78.43-40.91-117.6-61.44-2.35-1.23-4.63-2.61-7.31-4.13-2.72 5.31-5.24 10.47-7.97 15.52-11.19 20.71-25.71 38.43-46.3 50.48-2.78 1.63-6.19 2.2-9.3 3.26-.52-.62-.99-1.24-1.46-1.86z"/><path d="m318.85 173.95c3.77 3.06 6.41 4.67 8.31 6.9 1.46 1.73 2 4.24 2.95 6.4-1.96.64-3.87 1.54-5.88 1.87-17.33 2.85-34.67 5.6-51.99 8.37v46.04c12.49-2.38 24.69-4.71 37.47-7.15-4.26-7.07-8.35-13.87-12.44-20.67.29-.59.57-1.18.86-1.77 3.26 0 6.91-.96 9.72.16 13.68 5.49 25.96 12.99 31.74 27.58 3.01 7.61 2.37 14.94-3.04 21.57-2.69 3.3-5.39 4.01-8.07.43-4.19-5.57-8.1-11.35-12.12-17.05-.75-1.07-1.47-2.16-2.32-3.41-31.67 9.3-63.11 18.75-93.28 32.02-4.12 1.81-9.21 4.34-13 3.33-7.6-2-15.07-5.62-20.03-12.36-1.13-1.54-2.01-4.44-1.3-5.84.7-1.37 3.57-2.21 5.52-2.28 20.38-.65 40.21-4.75 59.99-9.17 1.28-.29 2.53-.69 3.81-1.04 0-15.68 0-31.12 0-46.85-9.24 1.8-18.19 3.48-27.11 5.34-.92.19-1.88 1.24-2.39 2.14-.65 1.12-.6 2.67-1.31 3.73-1.15 1.71-2.66 3.18-4.02 4.74-1.33-1.54-3.35-2.87-3.88-4.64-2.88-9.68-4.89-19.63-8.17-29.16-3.22-9.35-7.6-18.31-11.5-27.42-.45-1.06-1.43-1.98-1.62-3.06-.38-2.2-1.16-4.87-.28-6.57.57-1.09 4.15-1.62 5.81-.96 12.28 4.9 24.31 2.97 36.52-.28 5.74-1.53 11.74-2.06 18.39-3.17-.43-7.06-.48-14.02-1.39-20.87-1.09-8.21-2.9-16.32-4.45-24.46-.96-5.04-3.55-6.2-8.81-5.21-11.4 2.15-22.97 3.41-34.51 4.79-1.58.19-3.32-1.04-4.99-1.61 1.38-1.39 2.51-3.44 4.17-4.08 19.07-7.23 38.29-14.08 57.34-21.38 7.83-3 15.41-6.67 16.51-16.75.11-1 3.3-2.62 4.77-2.36 5.17.92 10.38 2.09 15.25 4.01 5.7 2.24 11.14 5.2 16.5 8.2 1.49.84 3.3 3.07 3.12 4.4-.19 1.34-2.52 2.88-4.2 3.4-3.14.97-6.6.91-9.72 1.91-9.13 2.92-18.17 6.11-27.21 9.28-4.36 1.53-8.67 3.22-13.67 5.09 3.19 2.19 6.18 3.86 8.65 6.11 1.2 1.09 2.17 3.36 1.95 4.91-1.24 8.68-3 17.28-4.32 25.95-.59 3.9-.57 7.9-.88 12.64 11.51-2.97 23.08-4.58 32.95-10.95 7.23-4.67 14.16-6 21.89-1.77 5.95 3.25 12.32 5.87 17.91 9.64 5.51 3.72 4.95 6.12.64 11.13-8.41 9.78-16.42 19.92-24.84 30.21zm-98.1-15.25c2 12.96 3.93 25.47 5.91 38.3 10.09-2.03 19.59-3.94 29.13-5.86 0-13.34 0-26.26 0-39.66-11.6 2.39-22.9 4.71-35.04 7.22zm51.39 28.24c8.91-2.5 17.23-4.66 25.41-7.26 1.69-.54 3.86-2.55 4.1-4.14 1.4-9.34 2.57-18.73 3.25-28.15.47-6.55-.77-7.63-7.09-6.15-8.66 2.04-17.14 4.79-25.68 7.22.01 12.81.01 25.1.01 38.48z"/></g></svg>