<svg enable-background="new 0 0 400 400" viewBox="0 0 400 400" xmlns="http://www.w3.org/2000/svg"><path d="m378.6 9.2.8-1c.9.7 1.9 1.4 2.9 2.3l-.9 1.1c-1.1-.9-2-1.7-2.8-2.4zm.5 10.7c.9-2.1 1.6-4.3 2.3-6.7.4.2.8.4 1.3.6-.7 2.1-1.5 4.3-2.2 6.6zm.4-15.2.9-.9c1 .8 2 1.6 2.8 2.4l-1 1c-1-.9-1.9-1.8-2.7-2.5zm12.5-1.3h1.2v1.4h2.7v1.1h-2.7v2.7h-1.2v-.5h-1.8v1.3h4.9v3.8h-1.2v-.5h-3.7c0 .4-.1.9-.1 1.2h5.1v1h-5.2c0 .5-.1.9-.2 1.2h6v1h-5.2c1.1 1.3 2.9 2 5.5 2.2-.4.4-.7.8-.9 1.3-2.9-.5-4.8-1.6-5.7-3.5h-.1c-.8 1.7-2.7 2.9-5.9 3.6-.2-.4-.6-.8-.9-1.1 2.8-.6 4.6-1.4 5.4-2.5h-4.8v-1h5.3c.1-.3.2-.7.2-1.2h-4.9v-1h5c0-.4 0-.8.1-1.2h-3.6v.5h-1.2v-3.8h4.9v-1.3h-1.8v.5h-1.2v-2.7h-2.6v-1.1h2.6v-1.4h1.2v1.4h4.7v-1.4zm-6.7 8.4h3.6c0-.4 0-.9 0-1.4h-3.6zm1.9-4.7h4.7v-1.2h-4.7zm6.7 3.3h-3.7v1.4h3.7z" fill="#fcfbfa"/><path d="m384.7 21.4h1.3v2.2h2.8v-2.2h1.3v2.2h4.1v9.1h1.7v1.3h-16.9v-1.3h1.7v-9.1h4.1v-2.2zm.3 13.2.7 1.2c-1.8.9-3.8 1.9-6 2.9-.2-.4-.5-.8-.8-1.3 2.4-1 4.4-2 6.1-2.8zm-3.1-6.5h2.8v-3.2h-2.8zm0 4.6h2.8v-3.3h-2.8zm4.1-4.6h2.8v-3.2h-2.8zm0 4.6h2.8v-3.3h-2.8zm3.6 1.9c2.1.9 4.1 1.8 6.1 2.7l-.7 1.3c-2.2-1.1-4.2-2-6.1-2.9zm3.3-9.7h-2.8v3.2h2.8zm-2.8 7.8h2.8v-3.3h-2.8z" fill="#fcfbfa"/><g fill="#010103"><path d="m101.9 103.18c10.1-18.34 20.09-36.76 23.33-57.85.72-4.68.46-9.61-.09-14.34-.71-6.07.62-7.84 6.43-6.9 12.13 1.96 22.53 7.48 29.38 15.65-15.52 19.78-31.07 39.59-46.62 59.4.41.44.82.87 1.23 1.31 10.39-2.7 20.58-6.19 28.67-13.59 5.2-4.75 10.15-6.1 15.9-2.03 5.11 3.62 9.98 7.6 14.79 11.62 1.92 1.61 2.43 3.65.69 6.1-6.25 8.76-7.67 19.06-8.36 29.34-.83 12.45-1.1 24.94-1.2 37.42-.38 49.63-.39 99.27-1 148.9-.17 13.43-6.38 24.22-18.25 31.32-2.5 1.49-4.48 1.78-6.3-.95-7.93-11.9-15.94-23.75-23.82-35.68-.75-1.14-.79-2.76-1.59-5.82 4.38 1.42 7.59 2.29 10.66 3.5 4.32 1.69 8.52 3.68 12.81 5.44 3.44 1.41 5.54-.1 6.21-3.48 1.02-5.21 2.3-10.44 2.56-15.71 1.24-24.53 2.17-49.08 3.21-73.63-.52-.12-1.04-.25-1.57-.37-.7 1.16-1.47 2.28-2.08 3.47-20.25 39.48-49.81 70-88.49 91.66-4.5 2.52-9.49 4.19-14.25 6.25-.43-.62-.87-1.25-1.3-1.87 2.25-2.39 4.28-5.03 6.78-7.13 25.76-21.61 49.37-45.2 67.77-73.57 3.34-5.15 6.14-10.64 9.16-16 .37-.66.5-1.44 1.18-3.51-13.55 4.35-26.16 8.28-38.69 12.45-10.23 3.4-20.36 7.14-30.56 10.62-9.68 3.3-21.65-4.76-21.96-15-.03-1.01 2.94-3.21 4.21-3 14.99 2.45 29.4-.13 43.76-4.17 3.49-.98 4.44-2.7 4.38-5.97-.4-23.14-.23-46.3-1.21-69.41-.63-14.74-2.81-29.42-8.05-43.44-2.14-5.73-.1-8.14 5.76-6.62 5.39 1.4 10.62 3.56 16.52 5.59zm1.31 75.85c6.34-2.26 12.26-5.01 18.48-6.41 6.02-1.35 12.36-1.41 18.57-1.78.98-.06 2.75 1.16 2.89 2 .15.96-.84 2.57-1.79 3.16-3.09 1.92-6.22 4.02-9.64 5.12-9.37 3.02-18.89 5.56-28.49 8.34v28.38c9-2.79 17.57-5.19 25.96-8.12 6.59-2.31 12.94-5.32 21.41-2.29 0-10.39.06-19.84-.01-29.29-.18-23.29-.37-46.58-.66-69.88-.07-5.27-1.5-6.61-6.91-5.32-13.33 3.18-26.55 6.83-39.63 10.24v29.58c4.39-1.91 8.21-4.05 12.31-5.25 6.46-1.89 13.04-3.66 19.69-4.41 2.41-.27 6.59 1.94 7.45 4.05 1.48 3.63-2.45 5.42-5.34 6.49-4.81 1.78-9.73 3.42-14.75 4.39-6.43 1.24-13.01 1.77-19.51 2.6-.03 9.51-.03 18.78-.03 28.4z"/><path d="m269.45 201.49c15.5-3.89 31.36-4.03 45.57-11.44 2.15-1.12 5.8-1.05 8.05 0 9.19 4.28 18.13 9.08 27.08 13.85 1.72.91 3.09 2.5 4.57 3.83 2.67 2.41 2.74 4.51-.39 6.82-6.95 5.14-9.4 12.6-10.09 20.85-1.05 12.41-1.83 24.85-3.28 37.22-1.64 14-3.28 28.05-6.04 41.86-3.04 15.26-11.15 27.59-24.78 35.88-3.91 2.38-7.09 1.96-9.3-1.93-9.02-15.88-21.22-28.92-35.33-40.31-1.24-1-2.21-2.35-2.9-4.36 3.13.8 6.24 1.67 9.38 2.39 9.36 2.14 18.67 4.52 28.11 6.24 7.92 1.44 11.19-.95 13.57-8.48 6.13-19.42 9.73-39.28 10.31-59.65.27-9.64.74-19.28.49-28.91-.18-7.22-5.4-11.14-12.53-9.99-28.02 4.51-56.06 8.88-83.98 13.9-6.33 1.14-12.36 4.42-18.29 7.2-3.1 1.45-5.65 2.3-7.78-.93-2.45-3.7-5.26-7.36-6.7-11.46-.73-2.08.42-6.09 2.13-7.51 4.63-3.83 5.08-8.92 5.34-13.95 1.21-23.75 2.39-47.5 3.01-71.26.22-8.42-.49-17.01-2.08-25.28-.87-4.53-4.51-8.51-6.77-12.81-.86-1.63-2.03-3.56-1.77-5.14.15-.93 2.77-1.71 4.39-2.08 1.41-.32 3.13-.37 4.45.15 12.39 4.84 24.64 1.33 36.69-1.04 19.02-3.73 37.78-8.81 56.83-12.4 6.64-1.25 13.84-.11 20.7.68 2.1.24 3.92 2.93 5.87 4.49-2.06 1.67-3.89 4.26-6.24 4.87-10.59 2.74-21.33 4.95-32.02 7.31-8.68 1.91-17.36 3.75-26.58 6.27 14.73 3.69 16.75 14.11 15.27 26.47-.14 1.15 0 2.33.05 3.49.01.32.17.63.27.97 4.86-1.3 9.66-3.23 14.6-3.71 5.19-.5 10.56.15 15.77.85 1.52.21 2.78 2.32 4.16 3.56-1.3 1.32-2.38 3.34-3.94 3.83-9.47 3-19.05 5.65-28.58 8.43-1.11.32-2.2.71-3.57 1.15-.5 8.92-.99 17.84-1.49 26.82 7.96-1.24 15.36-2.57 22.81-3.46 3.44-.41 7.04-.32 10.45.24 1.59.26 4.17 2.33 4.05 3.31-.2 1.67-1.9 4.04-3.46 4.51-9.82 3.02-19.8 5.49-29.65 8.43-1.66.5-4 2.24-4.17 3.64-1.01 8.52-1.51 17.1-2.26 26.59zm-45.52-32.43c10.92-1.81 20.73-3.37 30.51-5.14 1.14-.21 2.95-1.53 2.97-2.37.22-9.06.13-18.13.13-27.53-12.04 1.26-23.39 2.76-33.53-4.83 2.06-1.26 4.14-1.9 6.28-2.24 7.53-1.19 15.09-2.17 22.59-3.52 1.18-.21 3.01-1.98 2.97-2.96-.46-10.55-1.16-21.09-2.07-31.62-.08-.97-2.21-2.7-3.11-2.53-10.85 1.94-21.59 2.22-31.11-1.14-.68 41.63-1.36 83.06-2.04 124.69 13.4-2.35 27.22-4.77 40.17-7.04 0-9.59 0-18.59 0-27.82-12.07.32-23.66 2.87-33.76-5.95z"/><path d="m196.77 249.93c4.12 3.69 5.43 9.31 6.23 14.87 1.95 13.65-3.12 25.42-10.71 36.33-2.21 3.18-4.81 2.58-7.03.05-4.82-5.5-3.78-12.09-2.79-18.45.42-2.7 2.03-5.23 3.17-7.8 3.59-8.13 7.22-16.23 11.13-25z"/><path d="m309.34 256.72c.43 4.28-1.94 7.18-5.28 8.23-1.88.59-5.41-.67-6.73-2.29-6.16-7.58-11.88-15.53-17.57-23.48-.71-.99-.87-3.17-.25-4.06.54-.77 2.7-.95 3.92-.61 4.93 1.39 10.03 2.56 14.58 4.79 7.07 3.48 10.85 9.59 11.33 17.42z"/><path d="m215.04 251.25c18.19.2 27.63 14.14 24.02 27.51-1 3.71-5.13 5.2-8.22 2.88-1.66-1.24-3.19-3-4.08-4.86-3.93-8.19-7.61-16.5-11.72-25.53z"/><path d="m244.81 244.36c13.18-1.67 24.38 4.67 27.45 15.12.61 2.06.52 4.6-.08 6.69-1.31 4.63-4.31 5.57-8.24 2.65-8.43-6.27-13.59-15.1-19.13-24.46z"/></g></svg>