<svg enable-background="new 0 0 400 400" viewBox="0 0 400 400" xmlns="http://www.w3.org/2000/svg"><path d="m58.32 296.49c-2.34 7.62-4.33 15.11-7.03 22.34-.88 2.36-3.58 4.03-5.45 6.02-1.95-2.11-4.73-3.88-5.73-6.37-4.84-12.05-3.35-24.37-1.23-36.81 2.34-13.73 4.84-27.52 5.73-41.39 1.22-19.09 1.01-38.27 1.38-57.41.22-11.51-1.9-22.43-7.95-32.45-2.42-4.01-1.24-5.82 3.5-5.77 2.48.03 5.14-.02 7.41.81 10.6 3.92 20.96.92 31.35-.81.91-.15 2.26-2.08 2.17-3.08-1.06-12.22-2.13-24.44-3.75-36.59-.39-2.9-3-5.45-4.22-8.32-.63-1.48-1.17-4.09-.43-4.79 1.09-1.04 3.76-1.64 5.07-1.01 5.38 2.59 10.71 5.41 15.65 8.74 3.5 2.35 4.4 6.06 3.74 10.53-1.56 10.63-2.56 21.34-3.95 33.5 7.28-1.17 13.58-2.07 19.81-3.31.85-.17 1.93-1.99 1.96-3.07.44-16.67 5.32-33.35-.03-50.01-.25-.77-.49-1.55-.67-2.09-13.21 1.2-26.23 2.36-39.25 3.58-10.43.97-20.58.28-30.03-4.79-1.11-.6-2.12-1.38-4.48-2.95 7.73-.77 14.03-1.4 20.33-2.02 26.53-2.6 52.59-7.36 77.68-16.7 9.17-3.41 18.58-5.16 28.32-2.43 1.11.31 2.47.48 3.21 1.22 2 2 3.73 4.27 5.57 6.43-2.13 1.6-4.03 3.99-6.42 4.68-15.78 4.51-31.66 8.65-47.61 12.93 1.33.75 3.1 1.71 4.83 2.75 6.76 4.05 8.93 9.91 6.48 17.43-3.3 10.16-5.16 20.54-5.34 32.93 5.27-2.37 10.32-3.53 13.86-6.49 4.62-3.88 8.98-3.74 13.17-.98 7.35 4.84 14.39 10.19 21.25 15.71 3.92 3.16 4 6.25.39 9.81-6.45 6.37-8.24 14.29-8.17 22.79.22 28.47.27 56.95 1.1 85.41.48 16.67 1.5 33.3-3.47 49.45-1.78 5.78-4.85 11.23-7.85 16.55-1.09 1.92-3.68 2.99-5.58 4.45-1.25-1.89-2.69-3.69-3.73-5.7-4.8-9.26-9.62-18.51-14.17-27.89-2.08-4.27-5.5-5.5-9.7-5.21-12.58.86-25.18 1.6-37.72 2.9-10.46 1.1-20.82 2.6-30-2.52zm6.9-70.51c-.59-.48-1.18-.97-1.76-1.45 13.98-21.37 18.31-45.15 18.78-70.34-3.98.9-7.47 2.01-11.04 2.41-3.51.4-7.09.09-9.48.09-1.11 44.35-2.22 88.64-3.34 133.29 4.34-.62 9.21-1.46 14.1-2 15.35-1.7 30.71-3.35 46.07-4.89 7.18-.72 13.98.13 19.28 5.86.88.95 2.14 1.56 3.23 2.33 3.54 2.51 6.1 1.24 7.25-2.46 1.18-3.77 2.22-7.73 2.43-11.65 1.1-20.91 2.33-41.84 2.72-62.77.31-16.63-.67-33.27-.84-49.91-.17-17.44-4.23-21.05-21.3-18.34-.65.1-1.47.1-1.89.49-.86.79-2.11 1.79-2.15 2.74-.52 12.8-1.02 25.6-1.17 38.41-.06 5.26 3.32 7.84 8.75 8.06 2.93.12 6.41 0 8.61 1.5 2.45 1.67 3.74 5.06 5.53 7.71-2.48 1.36-4.92 2.8-7.45 4.03-.85.41-1.96.3-2.95.41-14.06 1.51-23.83-5.67-25.42-19.11-.5-4.24.04-8.62.24-12.93.42-9.03.93-18.05 1.45-28.04-6.3 1.04-11.33 1.98-16.39 2.65-2.77.37-3.22 1.82-3.53 4.33-1.11 9.22-2.08 18.49-4.03 27.55-3.05 14.14-8.33 27.4-19.04 37.73-1.87 1.79-4.42 2.88-6.66 4.3z" fill="#010106"/><path d="m265.86 189.66c-22.12 9.55-30.24 8.73-46.82 4.4-1 28.91-2 57.63-3.04 87.63 14.33-9.3 27.64-18.02 41.05-26.58 2.47-1.58 5.33-2.53 8.01-3.78.42.57.85 1.14 1.27 1.71-1.43 1.85-2.63 3.94-4.32 5.5-19.97 18.43-39.21 37.55-56.02 58.99-4.07 5.19-7.08 4.58-10.4-1.23-2.05-3.59-4.71-6.83-7.13-10.21-3.72-5.21-4.1-11.19.4-15.54 8.41-8.15 10.87-18.63 11.92-29.37 1.61-16.53 2.54-33.15 3.09-49.76.71-21.46.92-42.95.99-64.43.02-5.93-.66-12-2.06-17.75-1.02-4.19-3.74-7.97-5.73-11.91-.79-1.55-1.68-3.05-2.67-4.85 5.77-3.1 10.65-.86 15.26 1.12 2.94 1.26 5.03 1.41 7.73-.47 17.03-11.86 34.37-23.28 51.17-35.47 5.65-4.1 10.7-9.36 9.31-17.98-.69-4.28 3.95-7.08 8.39-5.35 10.46 4.1 20.15 9.58 27.89 17.91 1.28 1.38 2.09 3.9 1.84 5.72-.12.92-3.12 1.42-4.79 2.15-11.39 4.95-22.91 9.63-34.12 14.98-7.28 3.48-14.1 7.94-21.33 12.08 4.67 2.91 8.54 5.74 12.78 7.86 6.96 3.49 6.52 9.29 6.33 15.75-.38 13.05.01 26.12.08 40.02 9.25-3.93 16.89-7.44 24.73-10.42 4.47-1.7 9.28-2.47 13.91-3.78 4.81-1.36 8.87.39 12.55 3.12 1.46 1.09 3.51 3.29 3.2 4.43-.5 1.88-2.38 4.05-4.22 4.81-11.04 4.58-22.22 8.8-33.36 13.13-3.7 1.44-7.41 2.84-11.44 4.39 3.05 15.53 7.74 30.32 13.74 44.72 7.79 18.69 17.88 36.06 30.56 51.83 3.4 4.23 7.56 8.01 11.93 11.26 6.14 4.57 10.32 3.54 13.61-3.35 3.65-7.63 6.47-15.65 9.89-23.4 1.4-3.19 3.41-6.11 5.14-9.15.62.22 1.25.44 1.87.67-.79 5.56-1.74 11.09-2.33 16.67-1.8 17.06-3.53 34.12 1.09 51.06 1.24 4.55-1.17 7.64-5.88 6.3-6.3-1.8-12.6-4.39-18.16-7.84-18.44-11.43-31.03-28.32-42.17-46.54-16.16-26.44-24.92-55.66-32.57-85.32-.38-1.22-.79-2.45-1.17-3.73zm-47.25-69.64c4.87 22.34.93 45.01.49 68.32 14.25-3.8 28-7.4 41.66-11.28.95-.27 2.04-2.83 1.8-4.09-2.09-11.05-4.1-22.14-6.86-33.04-2.46-9.74-5.52-19.39-11.23-27.17-8.93 2.51-17.33 4.87-25.86 7.26z" fill="#010106"/><path d="m122.99 236.67c2.64.63 5.96 1.09 8.99 2.3 1.6.64 2.66 2.6 3.97 3.96-1.25 1.17-2.31 2.98-3.77 3.41-8.07 2.37-16.12 5.38-24.39 6.31-9.76 1.1-19.8 2.63-29.59-.56-1.56-.51-3.26-.92-4.52-1.87-.89-.67-1.7-2.29-1.5-3.27.17-.83 1.87-1.95 2.86-1.91 14.68.5 28.4-4.3 42.39-7.56 1.59-.37 3.25-.48 5.56-.81z" fill="#010106"/><g fill="#fafbfa"><path d="m12.4 4.8-7.1 9h6v1.2h-8v-.5l6.1-8.9h-4.7v-1.2h7.6v.4z"/><path d="m14 14v-9.6h3c1.6 0 2.9.5 4 1.4s1.6 2.2 1.6 3.8-.5 3-1.6 3.9-2.4 1.5-4 1.5h-3zm1.4-8.4v8.2h1.6c1.3 0 2.4-.4 3.1-1.1s1.1-1.8 1.1-3.1-.4-2.3-1.2-3-1.8-1-3.1-1z"/><path d="m26.1 4.4v10.6h-1.4v-10.6z"/><path d="m36.1 14.6c-.8.4-1.8.6-2.9.6-1.5 0-2.7-.5-3.6-1.4s-1.4-2.2-1.4-3.8c0-1.7.5-3.1 1.5-4.1s2.3-1.6 3.9-1.6c1 0 1.8.1 2.5.4v1.4c-.8-.4-1.6-.6-2.5-.6-1.2 0-2.1.4-2.9 1.2s-1.1 1.8-1.1 3.2c0 1.3.3 2.3 1 3s1.6 1.1 2.7 1.1c1 0 2-.2 2.7-.7v1.3z"/><path d="m37.6 14.3c0-.2.1-.5.3-.6s.4-.3.6-.3c.3 0 .5.1.6.3s.3.4.3.6-.1.4-.3.6-.4.3-.6.3c-.3 0-.5-.1-.6-.3s-.3-.4-.3-.6z"/><path d="m50.2 15h-1.6l-5.3-8.2c-.2-.2-.3-.5-.4-.7 0 .2.1.7.1 1.5v7.4h-1.4v-10.6h1.7l5.2 8.1c.2.4.4.6.4.7 0-.3-.1-.8-.1-1.5v-7.3h1.4z"/><path d="m58.6 15h-5.7v-10.6h5.5v1.2h-4.1v3.4h3.8v1.2h-3.8v3.6h4.3z"/><path d="m67.1 5.6h-3.1v9.4h-1.4v-9.4h-3v-1.2h7.5z"/></g></svg>