<svg enable-background="new 0 0 400 400" viewBox="0 0 400 400" xmlns="http://www.w3.org/2000/svg"><path d="m58.26 85.29c4.71-.33 9.43-.59 14.14-.99 24.39-2.12 47.98-8.4 71.8-13.56 11.34-2.46 23.08-2.68 34.66 3.82-4.35 5.9-10.41 7.29-16.44 8.47-11.18 2.18-22.4 4.12-33.95 6.23 2.77 2.58 5.41 5 8.01 7.46 2.84 2.68 3.05 5.78 2.37 9.58-1.96 10.88-3.43 21.85-5.09 32.79.64.4 1.29.8 1.93 1.19 3.66-1.92 7.67-3.39 10.88-5.89 3.83-2.99 7.78-3.54 11.58-1.36 6.02 3.46 11.78 7.45 17.35 11.61 3.39 2.54 3.32 5.43.91 9.48-2.22 3.72-3.13 8.75-3.12 13.2.02 23.3.44 46.6.88 69.89.27 14.47.9 28.93 1.22 43.4.3 13.66-3.84 26.24-10.52 37.9-1.28 2.24-5.05 4.11-7.69 4.13-1.69.01-3.98-3.44-5-5.77-3.57-8.18-6.67-16.56-10.05-24.82-1.18-2.88-3.29-4.31-6.65-4-14.87 1.35-29.73 2.84-44.64 3.66-4.98.27-10.09-1.15-15.09-2.09-2.05-.38-3.95-1.52-5.85-2.28-1.29 6.76-2.2 13.3-3.93 19.61-.72 2.62-3.18 4.77-4.86 7.13-2.1-1.99-4.83-3.62-6.19-6.03-5.39-9.54-4.16-19.85-2.7-30.12 1.59-11.16 3.93-22.3 4.39-33.51.95-22.94 1.2-45.93 1.04-68.89-.06-9.18-.28-18.67-5.34-27.08-.55-.92-.44-2.68.09-3.65.33-.61 2.09-.83 3.09-.62 2.59.54 5.38.93 7.59 2.22 7.62 4.47 15.53 2.1 23.35 1.33.89-.09 2.28-1.92 2.29-2.96.16-14.11.21-28.23.08-42.34-.04-3.94-1.38-6.15-6.42-6.73-6.97-.79-13.76-3.5-20.52-5.7-1.59-.52-2.78-2.26-4.16-3.43.2-.43.38-.85.56-1.28zm90.58 203.03c1.68-3.32 3.42-5.48 3.85-7.87 1.32-7.33 2.83-14.74 3.02-22.14.44-16.92.14-33.86.14-51.21-5.83 0-11.12.22-16.39-.05-11.11-.57-16.33-5.04-17.8-15.98-.83-6.22-.72-12.59-.64-18.89.08-6.24.64-12.47 1.03-19.33-7.25.54-13.79 1.03-20.62 1.54-.14 1.96-.23 3.58-.38 5.2-1.17 12.91-2.9 25.71-7.81 37.86-3.82 9.46-9.05 17.95-18.17 23.02-3.7 2.06-4.56 4.65-4.69 8.3-.27 7.3-.88 14.6-1.01 21.9-.18 10.1-.05 20.2-.05 30.94 4.67-.44 8.92-.74 13.13-1.27 13.81-1.73 27.57-3.97 41.43-5.19 10.17-.9 18.98 2.56 24.96 13.17zm-55.11-193.09c1.79 1.04 3.34 1.87 4.83 2.81 6.63 4.2 7.62 7.09 6.68 14.88-1.25 10.32-1.98 20.7-2.99 31.61 7.35-.56 13.38-1.02 20-1.53.54-17.8 2.2-35.11-.87-52-9.69 1.49-18.45 2.82-27.65 4.23zm61.84 100.2c0-1.75.07-3.21-.01-4.66-.5-9.11-1.24-18.22-1.51-27.34-.37-12.69-1.66-13.97-14.09-13.41-3.72.17-5.44 1.65-5.61 5.34-.32 6.97-1.19 13.94-1.09 20.9.23 16.68-.07 20.67 22.31 19.17zm-82.17-38.11c-.82 19.68-1.63 39.23-2.44 58.79 15.13-17.57 16.36-38.6 17.64-59.88-5.71.4-10.63.76-15.2 1.09z" fill="#010106"/><path d="m347.18 71.25c-14.45 11.91-18.85 28.63-23.12 45.51-1.21 4.78-1.06 8.72 2.92 12.04.75.62 1.28 1.53 1.81 2.37 3.33 5.29 2.43 7.02-3.86 7.98-30.34 4.63-60.66 9.35-91 13.91-4.25.64-6.55 2.44-7.66 6.79-4.72 18.47-9.77 36.85-14.87 55.88 6-.62 12.12-1.19 18.23-1.89 13.2-1.52 26.49-2.56 39.55-4.84 13.53-2.36 26.95-5.58 40.21-9.19 6.61-1.8 12.49-1.86 18.79.82 8.03 3.41 15.91 6.9 21.44 14.02 4.28 5.5 3.36 6.58-.21 12.11-3.97 6.16-7.4 13.12-9.08 20.21-3.73 15.79-5.72 31.99-9.36 47.82-4 17.41-10.06 34.14-21.81 48.13-6.27 7.47-13.99 12.63-23.67 14.83-4.64 1.06-7.62-.04-9.6-4.48-6.12-13.74-14.92-25.47-26.43-35.22-2.17-1.83-3.75-4.36-5.6-6.56.31-.53.62-1.05.93-1.58 3.18.86 6.4 1.61 9.54 2.6 7.88 2.49 15.72 5.12 23.6 7.63 6.65 2.13 12.28-.33 15.75-5.61 4.69-7.14 9.21-14.69 12.07-22.69 6.48-18.16 11.15-36.85 12.09-56.27.08-1.66.05-3.33-.04-4.99-.63-10.98-3.63-14.33-14.62-14.28-9.45.05-18.97.58-28.32 1.92-16.25 2.32-32.54 4.78-48.52 8.48-8.41 1.95-16.38 6.25-24.18 10.22-3.9 1.99-6.49 1.64-9.17-1.31-4.05-4.45-5.35-9.85-5.08-15.67.05-1 .76-2.23 1.55-2.89 11.19-9.43 14.99-22.44 17.38-36.04 2.42-13.81 1.56-27.45-2.9-40.84-.68-2.04-.29-4.45-.39-6.68 2.39.11 5.12-.48 7.11.48 3.84 1.84 7.2 4.67 10.89 6.86 1.58.94 3.64 2.08 5.25 1.8 23.7-4.1 47.35-8.56 71.06-12.59 6.45-1.1 9.56-4.26 10.12-10.67 1.08-12.56 2.4-25.1 3.61-37.65.05-.5.06-1 .11-1.49 1.18-11.29-1.6-13.84-13.11-11.81-26.14 4.62-52.21 9.64-78.43 13.78-8.47 1.34-16.17-2.79-23.33-7.01 0-.69-.01-1.38-.01-2.07 3.68-.7 7.34-1.79 11.05-2.05 33.91-2.44 67.06-8.19 99.52-18.86 12.09-3.99 33.07 2.34 39.79 19.04z" fill="#010106"/><path d="m221.09 301.17c-.06.21-.14 1.45-.74 2.37-1.44 2.23-3.12 4.3-4.71 6.44-1.93-1.86-4.92-3.41-5.59-5.65-1.88-6.31-2.95-12.88-4.08-19.39-1.68-9.67-3.32-19.31-8.85-27.76-.61-.94-.92-3.27-.62-3.42 1.4-.68 3.17-1.35 4.62-1.07 14.97 2.92 28.92-1.94 42.93-5.75 4.68-1.28 8.91-4.19 13.43-6.16 1.43-.62 3.36-1.26 4.68-.81 8.13 2.8 16.36 5.46 24.14 9.05 5.93 2.74 6 5.92 1.17 10.24-6.74 6.01-11.56 13.29-14.47 21.79-.51 1.48-.53 3.76.28 4.95 4.55 6.64 3.08 9.03-5.2 9.97-15.47 1.76-30.96 3.43-46.99 5.2zm.2-9.17c9.51-1.5 18.36-2.86 27.2-4.31 4.44-.73 7.6-2.92 8.17-7.79.74-6.24 1.85-12.46 2.18-18.73.33-6.35-1.98-7.85-8.35-6.43-11.41 2.54-22.31 7.85-34.46 6.47-.19-.02-.42.37-.66.6 1.93 9.87 3.87 19.75 5.92 30.19z" fill="#010106"/><path d="m240.06 201.7c.45-14.71 4.57-28.47-1.47-43.01 3.14.82 6.51 1.15 9.34 2.58 3.66 1.84 6.96 2.1 10.93 1.15 11.27-2.7 22.62-5.08 33.99-7.32 7.4-1.46 13.58.56 17.59 5.57-1.68.78-3.15 1.87-4.75 2.13-15.54 2.54-31.1 4.89-46.63 7.49-1.34.22-3.32 1.72-3.49 2.85-.7 4.71-.82 9.52-1.22 15.1 4.72-1.05 8.97-2.24 13.3-2.91 12.42-1.92 24.86-3.76 37.33-5.33 2.34-.29 5.01.48 7.26 1.42 1.59.67 4.06 3.01 3.8 3.63-.78 1.86-2.45 4.17-4.22 4.65-5.59 1.52-11.34 2.68-17.1 3.27-13.38 1.37-26.81 2.18-40.19 3.57-2.8.29-5.43 2.12-8.18 3.14-1.8.67-3.66 1.18-6.29 2.02z" fill="#010106"/><path d="m271.9 112.39c1.94 1.79 3.49 3.23 6.2 5.74-5.83 1.29-10.5 2.57-15.25 3.33-11.14 1.77-22.31 3.47-33.51 4.8-3.2.38-6.58-.46-9.82-1.04-.87-.16-1.53-1.42-2.29-2.18.97-.69 1.85-1.78 2.92-2.02 10.99-2.49 22.03-4.77 33.02-7.27 4.64-1.06 9.76-8.14 9.8-13.01.03-3.96-2.72-3.75-5.2-3.24-7.8 1.58-15.56 3.4-23.34 5.07-4.05.87-8.22 2.51-12.18 2.14-3.95-.37-7.71-2.82-11.56-4.36.09-.83.19-1.65.28-2.48 3.87-.63 7.76-1.14 11.6-1.9 9.89-1.96 19.78-3.92 29.61-6.13 2.37-.53 4.52-2.06 6.77-3.12 3.21-1.52 7.08-5.01 9.53-4.2 8.06 2.67 15.84 6.51 23.25 10.73 2.97 1.69 1.44 4.83-2.85 5.96-7.46 1.93-13.08 6.19-16.98 13.18z" fill="#010106"/><path d="m78.2 236.88c4.35-.59 8.77-.86 13.03-1.83 8.52-1.94 16.87-4.7 25.45-6.29 5.71-1.06 11.68-.74 17.54-.88 1.07-.02 2.45.45 3.18 1.19 1.66 1.7 3.64 3.56 4.19 5.69.22.87-2.71 3.27-4.56 3.85-15.76 4.92-31.79 8.35-48.36 5.32-3.82-.7-7.29-3.26-10.92-4.96.15-.7.3-1.4.45-2.09z" fill="#010106"/><g fill="#fafbfa"><path d="m12.4 4.8-7.1 9h6v1.2h-8v-.5l6.1-8.9h-4.7v-1.2h7.6v.4z"/><path d="m14 14v-9.6h3c1.6 0 2.9.5 4 1.4s1.6 2.2 1.6 3.8-.5 3-1.6 3.9-2.4 1.5-4 1.5h-3zm1.4-8.4v8.2h1.6c1.3 0 2.4-.4 3.1-1.1s1.1-1.8 1.1-3.1-.4-2.3-1.2-3-1.8-1-3.1-1z"/><path d="m26.1 4.4v10.6h-1.4v-10.6z"/><path d="m36.1 14.6c-.8.4-1.8.6-2.9.6-1.5 0-2.7-.5-3.6-1.4s-1.4-2.2-1.4-3.8c0-1.7.5-3.1 1.5-4.1s2.3-1.6 3.9-1.6c1 0 1.8.1 2.5.4v1.4c-.8-.4-1.6-.6-2.5-.6-1.2 0-2.1.4-2.9 1.2s-1.1 1.8-1.1 3.2c0 1.3.3 2.3 1 3s1.6 1.1 2.7 1.1c1 0 2-.2 2.7-.7v1.3z"/><path d="m37.6 14.3c0-.2.1-.5.3-.6s.4-.3.6-.3c.3 0 .5.1.6.3s.3.4.3.6-.1.4-.3.6-.4.3-.6.3c-.3 0-.5-.1-.6-.3s-.3-.4-.3-.6z"/><path d="m50.2 15h-1.6l-5.3-8.2c-.2-.2-.3-.5-.4-.7 0 .2.1.7.1 1.5v7.4h-1.4v-10.6h1.7l5.2 8.1c.2.4.4.6.4.7 0-.3-.1-.8-.1-1.5v-7.3h1.4z"/><path d="m58.6 15h-5.7v-10.6h5.5v1.2h-4.1v3.4h3.8v1.2h-3.8v3.6h4.3z"/><path d="m67.1 5.6h-3.1v9.4h-1.4v-9.4h-3v-1.2h7.5z"/></g></svg>