<svg enable-background="new 0 0 400 400" viewBox="0 0 400 400" xmlns="http://www.w3.org/2000/svg"><path d="m6.4 11.7c-1-.8-1.9-1.6-2.9-2.3l.6-.7c.9.7 1.9 1.4 2.9 2.2zm-2.1 8.3c.7-2.1 1.4-4.2 2-6.4.2.1.6.3 1 .4-.7 2.3-1.3 4.4-1.9 6.4zm3-12.8c-1.1-.9-2.1-1.7-2.9-2.4l.6-.7c1 .8 2 1.5 3 2.4zm1.4-1.3v-.9h10.2v.9c-.9 4.2-2.3 7.3-4.1 9.4 1.3 1.4 3.2 2.7 5.7 4-.2.2-.4.5-.7.9-2.5-1.4-4.4-2.7-5.7-4.2-1.4 1.5-3.5 3-6.1 4.4 0 0 0 0-.1-.1-.3-.4-.5-.7-.7-.8 2.7-1.3 4.7-2.8 6.2-4.2-1.8-2.2-3-5.3-3.7-9.4zm9.2 0h-7.1c.6 3.8 1.7 6.7 3.4 8.7 1.7-2 2.9-4.8 3.7-8.7z" fill="#fbfcfa"/><path d="m31.6 3.6h.9v2.3h4.1v9.1h1.7v.9h-16.6v-.9h1.7v-9.1h4.1v-2.3h.9v2.3h3.1v-2.3zm-4 13.3.6.8c-1.9.9-3.8 1.9-5.8 2.8-.2-.3-.3-.6-.5-.9 2-.9 3.9-1.8 5.7-2.7zm-3.2-10.1v3.7h3.1v-3.7zm0 4.5v3.7h3.1v-3.7zm4.1-4.5v3.7h3.1v-3.7zm0 4.5v3.7h3.1v-3.7zm9.1 9.1c-2.1-1.1-4.1-2-5.8-2.7l.5-.8c2.2.9 4.1 1.8 5.8 2.6zm-1.9-13.6h-3.1v3.7h3.1zm-3.2 4.5v3.7h3.1v-3.7z" fill="#fbfcfa"/><g fill="#010101"><path d="m214.5 60.34c4.93 1.18 9.83 2.5 14.79 3.5 2.94.59 6.23 1.62 8.92.87 17.06-4.78 33.93-10.21 51.01-14.93 3.58-.99 8.26-1.05 11.53.44 7.82 3.59 15.33 8 22.53 12.74 7.46 4.91 7.42 8.25 1.03 14.44-4.79 4.64-6.12 10.85-6.04 16.96.23 19.12.97 38.23 1.71 57.33.5 12.79 1.37 25.56 2.02 38.35 1.46 28.72 2.69 57.46 4.41 86.17 1.21 20.13.5 39.87-8.29 58.49-2.12 4.49-4.41 8.99-7.29 13-4.58 6.38-10.7 6.15-14.88-.36-9.56-14.91-21.42-27.52-36.26-37.28-1.04-.69-1.85-1.73-2.77-2.6.13-.55.26-1.1.39-1.64 3.73.5 7.48.88 11.18 1.53 5.56.97 11.05 2.5 16.64 3.13 10.52 1.18 18.81-3.37 18.77-15.64-.08-27.15.01-54.3-.38-81.45-.31-20.95-1.23-41.89-1.94-62.84-.18-5.29-.59-10.58-.93-16.28-21.3 2.55-42.45 5.08-64.18 7.68-.43 1.23-.82 3.22-1.8 4.85-.78 1.31-2.36 3.13-3.44 3.04-1.42-.12-3.24-1.62-3.95-3-3.19-6.2-4.9-13.02-3.36-19.81 3.28-14.39.45-28.38-1.36-42.53-.9-7-3.49-13.05-7.41-18.75-.8-1.15-1.07-2.67-1.58-4.02.31-.45.62-.92.93-1.39zm85.36 61.88c0-13.23.22-27.69-.06-42.13-.25-12.74-6.25-17.11-18.89-14.57-6.67 1.34-13.37 2.57-20.08 3.66-8.47 1.38-16.98 2.58-25.53 3.86.41 8.3.81 16.38 1.28 25.82 8.99-2.77 17.62-4.98 25.9-8.11 6.96-2.63 13.33-2.73 19.37 1.64 1.45 1.05 3.06 3.29 2.87 4.76-.18 1.35-2.52 3.08-4.18 3.46-6.3 1.42-12.67 2.73-19.08 3.4-8.22.85-16.5 1.04-25 1.53v26.04c13.3-2.13 26.18-4.3 39.11-6.24 8.1-1.24 16.26-2.1 24.29-3.12z"/><path d="m101 164.97c0 1.52.01 2.68 0 3.84-.33 28.3-.02 56.64-1.19 84.91-1.01 24.36-3.71 48.66-5.67 72.98-.04.5.07 1.12-.18 1.47-1.93 2.68-3.92 5.32-5.9 7.96-2-1.98-4.62-3.64-5.91-6.01-6.66-12.27-9.01-24.68-4.06-38.71 3.48-9.86 4.65-20.7 5.68-31.22 4.92-50.49 3.03-101.14 2.99-151.74-.01-9.93-2.96-19.26-7.72-28.06-1.03-1.91-.75-4.53-1.07-6.82 2.22-.15 4.53-.76 6.63-.35 2.9.57 5.85 1.55 8.42 3 8.59 4.85 16.88.76 25.08-.86 9.05-1.79 18.31-3.51 25.95-9.52 1.04-.82 2.88-1.13 4.25-.95 9.6 1.25 19.06 3.06 26.81 9.53 4.35 3.63 4.21 5.68-.09 9.41-5 4.34-6.17 10.5-6.95 16.6-1.82 14.33-2.86 28.78-5.25 43-.95 5.63-4.32 10.99-7.27 16.08-1.87 3.21-5.15 3.66-8.71 1.49-1.87-1.14-4.42-2.1-6.5-1.83-12.98 1.71-25.9 3.78-39.34 5.8zm.2-8.93c2.66-.61 5.03-1.31 7.44-1.66 10.14-1.5 20.27-3.62 30.47-4.1 7.48-.35 8.65-.47 8.85-7.97.45-17.43 1-34.86 1.56-52.29.21-6.51-4.25-10.94-10.75-9.83-12.52 2.13-24.98 4.67-37.47 7.04v29.67c6.59-1.86 12.76-3.72 19-5.32 6.65-1.7 13.02-1.52 19.31 4.17-11.36 10.53-25.42 8.05-38.4 9.84-.01 10.17-.01 20.11-.01 30.45z"/><path d="m224.78 271.53c-19.37 6.02-39.48 12.11-59.47 18.6-4.01 1.3-7.61 3.99-11.29 6.21-4.76 2.87-7.62 2.64-10.48-2.09-2.56-4.23-4.74-8.8-6.26-13.48-.54-1.65.85-5.39 2.28-5.99 13.32-5.58 22.48-15.79 30.79-26.93 5.44-7.29 11.74-14.25 13.48-23.57.74-3.94.18-8.11.32-12.17.04-1.23.03-2.95.76-3.53.71-.56 2.61-.35 3.55.23 5.64 3.47 11.36 6.88 16.66 10.84 4.13 3.09 3.67 5.2 0 8.92-15.3 15.5-30.48 31.11-45.68 46.7-.29.3-.31.86-.5 1.42 20.98-3.82 41.8-7.61 63.87-11.63-3.52-7.01-6.89-13.73-10.43-20.8 18.24.97 36.6 19.78 35.61 36.08-.18 2.91-1.96 6.92-4.22 8.12-1.78.94-6.15-.96-8.1-2.88-3.72-3.69-6.52-8.28-10.89-14.05z"/><path d="m187.33 163.64c9.79-4.9 18.87-2.95 24.88 4.02 22.74 26.41 48.94 48.3 82.86 59.32 1.99.65 3.4 3.08 5.09 4.68-1.96.91-3.9 2.57-5.88 2.61-11.44.25-22.88.17-34.33.09-6.41-.04-10.82-3.66-14.44-8.53-9.52-12.8-19.29-25.43-28.47-38.47-6.32-8.98-14.45-15.48-24-20.51-1.72-.89-3.38-1.89-5.71-3.21z"/><path d="m157.13 177.49c10.12.51 17.22 4.78 23.63 10.22.82.7.59 4.15-.38 5.21-5.89 6.47-12.22 12.53-18.23 18.88-13.52 14.28-28.55 26.38-47.18 33.42-.31.12-.59.41-.89.42-1.95.06-3.9.07-5.85.09 1.01-1.57 1.7-3.55 3.09-4.64 15.81-12.41 29.61-26.72 41.33-43.04 1.35-1.89 2.81-3.73 3.9-5.77 1.72-3.22 2.54-6.43-.49-9.62-.83-.88-1.13-2.79-.82-4.02.2-.79 1.95-1.18 1.89-1.15z"/></g></svg>