<svg enable-background="new 0 0 400 400" viewBox="0 0 400 400" xmlns="http://www.w3.org/2000/svg"><g fill="#010105"><path d="m337.87 239.77c.82 3.43 1.64 6.85 2.45 10.28 3.17 13.38 6.25 26.79 9.56 40.15 1.89 7.63 1.12 12.29-5.75 16.17-6.68 3.77-14.12 6.94-21.61 8.33-11.55 2.15-23.4 2.8-35.15 3.64-17.18 1.24-28.33-7.63-35.48-22.38-5.5-11.34-8.47-23.55-8.82-36.02-.58-20.59-.43-41.22.01-61.82.5-23.43 2.19-46.85 2.32-70.28.09-16.73-.78-33.58-6.51-49.66-1.38-3.87-2.86-7.7-4.82-12.96 5.4 0 9.9-.74 14.06.15 10.12 2.15 17.89 8.56 24.98 15.73.79.79.91 2.77.61 4.03-3.37 14.33-7.89 28.47-10.11 42.96-2.8 18.2-3.76 36.68-5.49 55.04-.08.82-.01 1.65-.01 2.61.59.04 1.16.26 1.46.07 9.81-6.07 19.36-12.61 25.95-22.26 2.91-4.26 4.71-9.41 6.3-14.39 1.17-3.67 2.43-5.02 6.33-3.51 8.84 3.4 17.16 7.35 21.96 16.18 2.09 3.84 2.52 6.8-2.5 8.93-17.26 7.31-34.39 14.94-51.6 22.35-7.89 3.4-7.94 3.29-7.94 12.1 0 17.66-.6 35.35.27 52.97.39 7.88 2.81 16.01 5.93 23.33 4.06 9.49 12.55 14.03 22.8 14.33 6.28.19 12.64-.17 18.89-.96 9.62-1.22 16.23-6.61 18.92-16.07 3.14-11 5.93-22.1 8.96-33.14.57-2.08 1.54-4.04 2.32-6.06.57.07 1.14.11 1.71.16z"/><path d="m50.91 82.01c4.96 1.07 10.36 1.22 14.8 3.37 12.19 5.89 23.39 3.07 34.17-2.93 7.67-4.26 14.71-9.65 22.21-14.24 1.89-1.16 4.58-1.98 6.7-1.65 9.91 1.54 18.65 5.74 26.15 12.53 2.44 2.21 2.58 3.99.16 6.11-6.26 5.48-12.77 10.71-18.7 16.53-5.44 5.34-10.52 11.12-15.24 17.1-4.65 5.88-5.34 12.36-2.29 19.64 4.94 11.78 9.8 23.68 13.35 35.92 1.81 6.25.94 13.36.76 20.06-.06 2.11-1.51 4.41-2.86 6.22-4.07 5.44-6.66 5.45-11.94 1.31-9.02-7.06-18.25-13.86-27.38-20.79-1.13-.86-2.17-1.86-4.45-3.83 3.3-.37 5.14-.68 6.98-.75 5.65-.21 11.32-.07 16.94-.56 5.82-.51 7.17-2.15 5.84-8.04-1.74-7.73-3.4-15.67-6.61-22.84-4.21-9.38-4.56-17.9.06-27.17 3.76-7.55 6.41-15.64 9.47-23.53.58-1.49.76-3.14 1.39-5.85-13.46 3.83-26.06 7.41-39.25 11.17 0 9.5.02 19.15 0 28.8-.05 24.5-.01 48.99-.2 73.49-.2 25.47-.02 50.97-1.19 76.41-.79 17.19-3.47 34.3-5.68 51.4-.56 4.34-2.05 10.46-6.69 10.45-2.94 0-6.91-5.24-8.63-8.96-5.89-12.68-8.31-25.41-4.61-39.96 4.55-17.92 7.17-36.54 8.55-55.01 1.95-26.18 2.19-52.5 2.79-78.77.25-10.97-.38-21.96-.73-32.94-.38-11.97-4.91-22.6-10.82-32.78-1.55-2.68-2.75-5.56-4.11-8.35.35-.52.7-1.04 1.06-1.56z"/><path d="m143.35 183.86c2.94-1.09 5.28-2.24 7.75-2.84 13.87-3.32 27.79-6.43 41.63-9.85 1.24-.3 2.94-2.24 2.96-3.44.41-26.91-1.42-53.52-11.85-78.79-1.65-3.99-3.8-7.77-5.71-11.65-2.62-5.31-1.62-7.07 4.36-6.59 3.24.26 6.72.97 9.53 2.5 5.24 2.84 9.93 6.66 15.1 9.65 6.95 4.03 7.54 10.11 6.82 17.19-1.51 14.86-3.61 29.76-3.76 44.66-.48 48.33-.03 96.66-.31 144.99-.05 9.25-1.53 18.51-2.85 27.7-.36 2.48-2.58 4.69-3.95 7.02-2.32-1.46-5.25-2.44-6.86-4.47-5.43-6.83-7.79-14.87-5.49-23.38 4.23-15.67 6.76-31.48 6.17-48.24-.93.47-1.74.64-2.2 1.14-11.08 11.94-22.53 23.58-33.05 36.01-7.36 8.7-12.27 10.04-21.67 3.11-2.27-1.68-4.39-3.57-6.48-5.48-4.52-4.13-3.95-5.71 1.69-8.28 9.04-4.12 18.21-8.13 26.68-13.25 11.1-6.7 21.61-14.36 32.27-21.77 1.3-.9 2.73-2.76 2.74-4.19.19-17.65.12-35.31.12-54.17-7.94 3.9-15.27 7.3-22.42 11.05-8.72 4.58-21.33 2.81-28.15-4.32-.99-1.04-1.7-2.36-3.07-4.31z"/></g><path d="m6.8 9.5c.6.3 1.3.7 2.1 1.1-.4.4-.7.8-.9 1.2-.7-.4-1.3-.8-1.8-1.1s-1.1-.6-1.6-.8c.2-.4.5-.8.7-1.2.4.2.8.5 1.5.8zm.9 6.9c-.3.6-.5 1.1-.7 1.7s-.4 1.1-.6 1.7c-.6-.4-1.1-.7-1.6-1 .7-1 1.2-1.8 1.5-2.4.3-.5.6-1.1.8-1.7.3-.6.5-1.2.8-1.8.3.3.8.6 1.3.8-.7 1.3-1.2 2.2-1.5 2.7zm.1-11c.4.3 1 .7 1.7 1.1-.5.2-.8.6-1.1 1.1-.5-.6-1-1-1.4-1.2s-.9-.6-1.5-.8c.2-.4.5-.7.9-1.1.5.3.9.6 1.4.9zm10.5 13c1 .4 2 .6 3.1.7-.4.4-.7.8-.8 1.3-.9-.2-1.9-.6-3-.9-1-.4-2-.9-2.8-1.6-.5.4-1.1.9-1.9 1.3s-1.9.9-3.3 1.2c-.1-.3-.5-.8-1.1-1.3 1 0 2.1-.3 3.2-.8 1.2-.5 1.9-1 2.3-1.7h-3.2c-.4 0-1 0-2 .1v-1.2c1 0 1.7.1 2 .1h3.3v-1h-2.3c-.2 0-.9 0-2 .1v-1.2c1.2 0 1.9.1 2 .1h2.3v-.8h-4.1c0-.7.1-1.2.1-1.6 0-.5 0-1.1-.1-1.8h4.1v-.6h-2.5c0-.6.1-1.1.1-1.6v-.6h-.5c-.4 0-1 0-1.8.1v-1.3c1.2 0 1.9.1 2.1.1h.2c0-.3 0-.8-.1-1.4h1.4c0 .6-.1 1-.1 1.4h3.4c0-.4 0-.8-.1-1.3h1.5c0 .4-.1.9-.1 1.3.7 0 1.5 0 2.5-.1v1.2c-1 0-1.8-.1-2.5-.1v.6c0 .3 0 .8.1 1.5h-2.5v.8h4.1c0 .7-.1 1.3-.1 1.8s0 1 .1 1.5h-4.1v.8h1.4c.8 0 1.8 0 2.9-.1v1.2c-1 0-1.9-.1-2.8-.1h-1.5v1h3.2c.3 0 1 0 2.1-.1v1.2c-1.1 0-1.8-.1-2.1-.1h-3.4l-.1.1c1.4 1 2.4 1.5 3.4 1.9zm-4.1-6.6v-1.3h-2.7v1.3zm2.2-4.1v-1.1h-3.4v1.1zm1.9 4.1v-1.3h-2.8v1.3z" fill="#fbfafc"/><path d="m37 6.7v2.3 5.4c1 0 1.8 0 2.2-.1v1.3c-.6 0-1.5-.1-2.5-.1h-11.9c-.7 0-1.3 0-1.8.1v-1.3c.5 0 1.1.1 2 .1v-5.2c0-1 0-1.8-.1-2.5h3.7c0-1.3 0-2.1-.1-2.5h1.5c0 .4-.1 1.3-.1 2.5h2.2c0-1.2 0-2.1-.1-2.6h1.5c0 .4-.1 1.3-.1 2.6zm-12.3 13.7c-.3-.4-.7-.8-1.1-1.1 1.1-.4 2.1-.9 2.9-1.3.8-.5 1.5-1 2.1-1.6.4.4.9.8 1.3 1.1-2.5 1.4-4.2 2.4-5.2 2.9zm3.9-10.1v-2.4h-2.2v2.4zm0 4.1v-2.9h-2.2v2.9zm3.5-4.1v-2.4h-2.2v2.4zm0 4.1v-2.9h-2.2v2.9zm.4 2.9 1-1.1c.6.3 1.4.7 2.5 1.3s2 1.1 2.7 1.5c-.4.4-.8.8-1.1 1.3-.8-.8-2.5-1.7-5.1-3zm3.1-7v-2.4h-2.1v2.4zm0 4.1v-2.9h-2.1v2.9z" fill="#fbfafc"/></svg>