<svg enable-background="new 0 0 400 400" viewBox="0 0 400 400" xmlns="http://www.w3.org/2000/svg"><path d="m362.1 8.8c1.1.8 2.1 1.6 3.1 2.4l-1 1.1c-1.3-1.1-2.3-2-3-2.5zm1.9 4.8c.5.2.9.4 1.4.5-.6 2.3-1.3 4.5-1.9 6.8l-1.5-.5c.8-2.1 1.4-4.3 2-6.8zm-1-9.4c1.3.9 2.4 1.8 3.4 2.5l-1 1.1c-1.4-1.2-2.4-2.1-3.2-2.6zm3.7 2.2v-1.4h10.3v1.2c-.5 3.6-1.8 6.8-4 9.4 1.5 1.6 3.4 2.8 5.7 3.8-.3.4-.7.8-1.1 1.4-2.3-1.1-4.1-2.5-5.6-4.1-1.6 1.6-3.6 3.1-5.9 4.3-.3-.5-.7-.9-1-1.3 2.4-1.1 4.4-2.5 6-4.1-1.9-2.5-3-5.6-3.3-9.3h-1.1zm8.8 0h-6.4c.3 3.3 1.3 6 3 8.2 2-2.3 3.1-5.1 3.4-8.2z" fill="#fcfbfa"/><path d="m385.3 3.8h1.3v2.2h2.8v-2.2h1.3v2.2h4.1v9.1h1.7v1.3h-16.9v-1.3h1.7v-9.1h4.1v-2.2zm.4 13.1.7 1.2c-1.8.9-3.8 1.9-6 2.9-.2-.4-.5-.8-.8-1.3 2.3-1 4.3-1.9 6.1-2.8zm-3.1-6.4h2.8v-3.2h-2.8zm0 4.6h2.8v-3.3h-2.8zm4-4.6h2.8v-3.2h-2.8zm0 4.6h2.8v-3.3h-2.8zm3.7 1.9c2.1.9 4.1 1.8 6.1 2.7l-.7 1.3c-2.2-1.1-4.2-2-6.1-2.9zm3.2-9.7h-2.8v3.2h2.8zm-2.8 7.8h2.8v-3.3h-2.8z" fill="#fcfbfa"/><g fill="#010100"><path d="m224.34 138.06c-8.79 6.64-16.92 12.77-25.04 18.9-.6-.51-1.21-1.02-1.81-1.53.97-2.03 1.55-4.42 2.98-6.04 20.81-23.65 35.18-51.15 47.73-79.72 3.46-7.89 4.63-16.18 2.91-24.86-.66-3.3-.11-6.85-.11-10.3 10.52.53 22.51 9.08 25.59 18.34.61 1.82.51 4.46-.4 6.1-5.83 10.61-11.64 21.25-18.08 31.49-7.33 11.67-15.25 22.98-23.06 34.35-1.52 2.21-1.65 3.59-.8 6.46 2.58 8.65 5.51 17.66 5.52 26.53 0 24.1-1.67 48.2-2.22 72.31-.4 17.45-.08 34.92-.08 52.98 10.81-1.86 21.55-3.62 32.26-5.58 4.39-.8 9.98-.77 12.67-3.47 2.3-2.3 1.38-7.95 1.62-12.14.51-8.93.86-17.86 1.27-26.82-7.61 0-14.53.22-21.44-.08-4.1-.18-8.23-.91-12.22-1.91-1.4-.35-2.41-2.25-3.6-3.44 1.51-1.24 2.9-3.34 4.56-3.59 10.64-1.59 21.34-2.77 32.18-4.11 0-11.43 0-22.36 0-33.77-8.71 0-17.31.06-25.9-.04-2.13-.02-4.34-.3-6.36-.92-1.38-.43-2.51-1.66-3.75-2.54 1.18-1.25 2.16-3.26 3.56-3.62 5.3-1.33 10.73-2.16 16.13-3.1 4.41-.77 8.88-1.23 13.22-2.27 1.29-.31 3.23-2.16 3.17-3.2-.46-7.44-1.25-14.86-2.18-22.26-.39-3.11-1.99-4.57-5.74-4.34-7.96.49-15.98.4-23.96.12-3.51-.12-8.4-.32-8.68-4.79-.28-4.48 3.99-5.51 8.03-6.45 21.48-4.96 42.84-10.48 64.36-15.29 7.39-1.65 15.12-1.82 22.69-2.64.66-.07 1.33-.01 2 .04 5.35.37 10.64 3.48 10.62 6.66-.04 5.54-4.6 7.04-8.71 8.13-15.35 4.07-30.79 7.82-46.18 11.68 11.43 6.93 5.77 17.88 5.15 29.03 4.6-.98 9.01-1.4 13.03-2.89 7.82-2.91 15.04-.73 22.3 1.71 1.31.44 2.37 1.64 4.63 3.28-2.81 1.54-4.7 3.11-6.86 3.67-11.22 2.89-22.51 5.52-33.99 8.3v32.33c6.14-1.77 11.97-3.61 17.89-5.1 4.33-1.09 8.75-2.08 13.18-2.46 3.49-.3 6.68 1.29 7.74 4.99 1.05 3.7-1.54 5.75-4.5 6.69-10.1 3.19-20.24 6.3-30.48 8.98-3.23.84-4.15 2.01-4.24 5.25-.28 10.62-.97 21.23-1.46 31.85-.05 1.1.24 2.22.4 3.51 11.18-2.09 22.01-4.62 32.98-6 7.82-.98 16.01-1.42 23.72-.18 4.74.76 9.46 4.56 13.16 8.07 3.75 3.56 1.15 9.39-4.35 10.48-3.23.64-6.64.61-9.95.51-31.54-.91-62.83 1.16-93.72 7.78-7.08 1.52-13.79 1.28-20.31-2.08-1.14-.58-2.46-.8-4.02-1.29-2.85 23.58.1 47.82-11.45 70.28-7.73-5.67-10.57-13.08-10.8-20.87-.36-12.56.01-25.21 1.11-37.73 1.83-20.84 5.12-41.57 6.62-62.43 1.68-23.54 2.32-47.17 2.88-70.77.19-10.08-.92-20.2-1.41-30.18z"/><path d="m94.59 302.93c-1.13 5.69-1.78 10.8-3.21 15.69-1.62 5.54-4.15 5.87-7.82 1.31-4.2-5.21-5.07-11.39-4.88-17.88.43-14.3 1.12-28.6 1.03-42.9-.08-13.13-1.22-26.2-5.96-38.69-1.81-4.79.59-8.1 4.99-6.12 9.61 4.32 19.08 3.67 28.72 1.48 9.54-2.16 19.05-4.55 28.42-7.33 6.83-2.03 13.36-5.03 20.13-7.26 2.2-.72 5.01-1.16 7.07-.42 7.27 2.6 14.84 4.96 21.35 8.94 7 4.29 7.72 9 5.3 16.74-4.84 15.43-4.92 31.42-5.61 47.35-.56 13.1-.46 26.32-2.41 39.22-.97 6.46-5.11 12.89-9.18 18.31-4.65 6.19-7.41 5.12-9.99-2.21-2.7-7.66-5.49-15.3-8.62-22.78-3.21-7.68-3.43-7.82-11.54-7.25-15.87 1.12-31.76 2.51-47.79 3.8zm-.21-7.87c14.77-2.65 29.21-4.75 43.39-7.98 7.43-1.69 12.77-.6 17.36 5.55 1.48 1.98 4.21 3.02 6.37 4.5 1.43-2.33 2.88-4.65 4.29-7 .16-.26.15-.65.16-.98.47-15.41 1.07-30.82 1.3-46.24.07-4.77-.48-9.64-1.42-14.33-1.7-8.39-5.66-11.1-14.1-10.41-3.64.3-7.3.46-10.92.92-14.98 1.93-29.95 3.91-44.91 6.01-1.16.16-3.13 1.47-3.11 2.19.27 8.71.85 17.41 1.36 26.39 5.15-1.23 9.6-2.65 14.16-3.3 12.12-1.72 24.26-3.35 36.45-4.4 2.32-.2 6.11 1.87 7.08 3.92 1.67 3.52-2.32 5.01-4.75 6.43-8.1 4.74-17.19 6.15-26.33 6.63-8.72.46-17.47.1-26.37.1-.01 11.06-.01 21.11-.01 32z"/><path d="m29.55 202.76c1.99-2.09 3.8-4.4 5.99-6.24 19.9-16.74 36.05-36.33 46.23-60.49 1.39-3.29 2.47-6.71 3.95-10.75-8.81 1.03-15.79 4.08-22.18 8.72-5.55 4.03-14.4.34-15.29-6.52-.14-1.04 1.16-2.73 2.24-3.38 5.96-3.62 8.71-9.06 9.04-15.74.39-7.93 1.6-15.95-1.75-23.68-.25-.59 2.38-3.35 2.79-3.16 4.03 1.83 8.41 3.49 11.55 6.41 1.82 1.69 2.64 5.86 2.04 8.48-1.62 7.08-4.27 13.91-6.44 20.87-.47 1.52-.65 3.13-1.05 5.17 6.76-2.37 12.98-4.5 19.13-6.8.75-.28 1.6-1.42 1.66-2.22.89-10.7 1.76-21.4 2.38-32.12.19-3.24-1.88-4.13-5.14-4.38-6.13-.49-12.2-1.8-18.3-2.77-.07-.66-.15-1.32-.22-1.99 1.21-.72 2.4-2.02 3.64-2.07 13.6-.54 25.79-5.88 38-11.06 6.48-2.75 12.93-2.85 19.48-.97 1.73.5 3.18 2.01 6.23 4.02-14.1 4.93-26.74 9.35-39.25 13.72 3 1.5 6.42 3 9.64 4.87 4 2.32 5.09 5.43 3.2 10.1-2.28 5.62-3.63 11.62-5.39 17.49 6.37-1.29 12.2-2.92 18.14-3.52 3.61-.36 9.23-1.71 9.98 3.65.69 4.9-4.96 4.46-8.12 5.45-6.94 2.19-14.07 3.79-21.22 5.66-.85 3.26-1.72 6.58-2.73 10.48 2.55 1.27 5.35 2.62 8.1 4.06 6.13 3.2 8.16 7.26 6.65 13.91-1.76 7.73-3.76 15.4-5.98 24.42 9.87-7.3 18.65-13.78 27.43-20.26.48.47.95.95 1.43 1.42-1.07 1.69-2 3.49-3.22 5.06-9.55 12.38-19.19 24.68-28.72 37.07-3.13 4.07-3.65 3.5-6.82-.67-6.46-8.51-6.25-16.15-1.17-25.54 5.64-10.41 5.27-21.95.25-34.12-13.33 31.74-32.3 56.91-64.4 69.32-.59-.63-1.18-1.26-1.78-1.9z"/><path d="m166.6 119.37c-9.16.92-15.77 3.5-21.47 8.57-1.49 1.32-4.72 2.79-5.78 2.1-3.48-2.26-6.37-5.44-9.33-8.42-.28-.28.3-2.16.92-2.49 9.87-5.28 10.62-14.66 10.54-24.11-.04-5.07-1.35-10.11-1.98-15.18-.15-1.2-.3-2.96.36-3.54.74-.66 2.59-.72 3.63-.27 8.74 3.76 15.58 9.28 9.91 21.22-2.79 5.86-3.9 12.51-5.97 19.46 6.77-2.53 12.48-4.56 18.09-6.85.97-.4 2.07-1.83 2.15-2.86.84-10.93 1.55-21.87 2.1-32.82.09-1.88-.73-3.8-1.16-5.84-8.49-.45-16.88.46-25.88-4.37 5.74-1.11 10.19-1.55 14.37-2.86 9.76-3.08 19.63-6.01 29-10.06 8.38-3.63 21.48-2.92 26.33 3.14-12.15 7.74-26.04 10.23-39.52 14.21 4.33 1.75 8.57 3.19 12.55 5.15 5.11 2.52 5.23 4.92 2.93 10.1-2.67 5.98-4.41 12.38-6.69 19.02 5.82-1.38 10.93-3.05 16.18-3.71 5.17-.66 10.85-1.42 14.48 5.33-3.32 1.25-6.45 2.59-9.68 3.62-5.83 1.87-11.66 3.78-17.6 5.25-5.41 1.34-7.54 4.85-7.92 9.95 3.74 1.87 7.36 3.79 11.08 5.51 4.28 1.98 5.62 5.18 4.9 9.74-1.62 10.16-3.02 20.35-4.52 30.54-.23 1.6-.47 3.2-.79 5.37 7.64-5.06 14.74-9.77 21.84-14.47.51.3 1.03.59 1.54.89-.57 1.72-.74 3.75-1.78 5.11-8.25 10.81-16.7 21.46-25 32.23-3.25 4.21-4.74 4.36-7.9.27-.1-.13-.19-.28-.31-.39-6.44-6.28-6.42-12.67-2.75-20.96 5.94-13.43 6.38-28.08 5.25-42.64-.15-1.96-1.33-3.83-1.86-5.27-5.96 10.11-11.31 20.38-17.78 29.86-8.33 12.19-19.37 21.93-31.29 30.58-2.32 1.68-5.33 2.41-8.02 3.57-.41-.57-.82-1.14-1.23-1.71 1.57-1.95 3.02-4.01 4.73-5.83 12.85-13.58 24.77-27.9 33.59-44.48 3.52-6.68 6.23-13.8 9.74-21.66z"/><path d="m318.15 98.29c-1.65 2.55-2.82 6.46-4.95 7.09-2.56.75-6.96-.34-8.78-2.29-7.09-7.61-13.67-15.71-19.94-24.02-1.29-1.72-1.36-5.68-.22-7.5.93-1.48 5.02-2.47 6.81-1.67 7.49 3.33 15.63 6.32 21.56 11.64 3.63 3.24 3.64 10.5 5.52 16.75z"/></g></svg>