<svg enable-background="new 0 0 400 400" viewBox="0 0 400 400" xmlns="http://www.w3.org/2000/svg"><path d="m362.1 8.8c1.1.8 2.1 1.6 3.1 2.4l-1 1.1c-1.3-1.1-2.3-2-3-2.5zm1.9 4.8c.5.2.9.4 1.4.5-.6 2.3-1.3 4.5-1.9 6.8l-1.5-.5c.8-2.1 1.4-4.3 2-6.8zm-1-9.4c1.3.9 2.4 1.8 3.4 2.5l-1 1.1c-1.4-1.2-2.4-2.1-3.2-2.6zm3.7 2.2v-1.4h10.3v1.2c-.5 3.6-1.8 6.8-4 9.4 1.5 1.6 3.4 2.8 5.7 3.8-.3.4-.7.8-1.1 1.4-2.3-1.1-4.1-2.5-5.6-4.1-1.6 1.6-3.6 3.1-5.9 4.3-.3-.5-.7-.9-1-1.3 2.4-1.1 4.4-2.5 6-4.1-1.9-2.5-3-5.6-3.3-9.3h-1.1zm8.8 0h-6.4c.3 3.3 1.3 6 3 8.2 2-2.3 3.1-5.1 3.4-8.2z" fill="#fcfbfa"/><path d="m385.3 3.8h1.3v2.2h2.8v-2.2h1.3v2.2h4.1v9.1h1.7v1.3h-16.9v-1.3h1.7v-9.1h4.1v-2.2zm.4 13.1.7 1.2c-1.8.9-3.8 1.9-6 2.9-.2-.4-.5-.8-.8-1.3 2.3-1 4.3-1.9 6.1-2.8zm-3.1-6.4h2.8v-3.2h-2.8zm0 4.6h2.8v-3.3h-2.8zm4-4.6h2.8v-3.2h-2.8zm0 4.6h2.8v-3.3h-2.8zm3.7 1.9c2.1.9 4.1 1.8 6.1 2.7l-.7 1.3c-2.2-1.1-4.2-2-6.1-2.9zm3.2-9.7h-2.8v3.2h2.8zm-2.8 7.8h2.8v-3.3h-2.8z" fill="#fcfbfa"/><g fill="#010100"><path d="m80.48 339.6c5.48-1.58 10.88-3.47 16.44-4.68 31.1-6.8 59.71-19.17 85.59-37.75 1.07-.77 2.05-1.66 4.14-3.36-11.25-4.73-21.74-9.17-32.25-13.55-4.29-1.79-8.63-3.44-12.94-5.18-2.9-1.17-4.14-2.9-2.69-6.18 2.47-5.6 4.6-11.36 6.97-17 1.12-2.67 2.47-5.24 4.24-8.98-17.41 3.06-33.55 5.82-49.65 8.75-9.46 1.72-18.81 4.11-28.3 5.5-12.94 1.89-22.19-5.25-32.11-14.19 4.47-.41 7.53-.73 10.61-.96 26.68-1.98 53.36-3.91 80.04-5.95 6.79-.52 13.53-1.59 20.32-2.05 3.23-.22 5.36-1.04 6.14-4.45 2.27-9.99 4.65-19.96 6.99-29.93.41-1.75.81-3.5 1.26-5.46 7.84.75 14.2 3.93 20.09 8.45 3.52 2.7 3.15 5.02.62 8.3-4.66 6.03-8.89 12.4-13.24 18.67-.63.91-.92 2.05-1.61 3.64 16.62-2.25 32.73-4.43 49.81-6.73 0-2.21-.07-5.46.01-8.7.15-5.96 1.74-7.78 7.21-5.65 5.22 2.03 9.95 5.71 14.33 9.35 2.33 1.94 3.96 3.07 7.2 2.57 20-3.11 40.02-6.12 60.08-8.75 10.88-1.43 21.93-2.01 32.4 2.25 3.91 1.59 7.75 4.02 10.75 6.95 1.78 1.74 3.01 5.55 2.36 7.82-.57 2-3.97 4.23-6.32 4.48-5.58.59-11.28 0-16.93 0-18.12-.02-36.25-.14-54.37.09-9.97.12-19.93 1-29.91 1.26-4.67.12-6.99 1.76-9 6.42-6.18 14.31-13.33 28.2-20.32 42.71 3.85 1.39 8.22 2.73 12.39 4.53 10.22 4.41 20.48 8.76 30.47 13.64 10.36 5.05 18.29 13.21 25.6 21.93 1.59 1.9 2.94 4.05 4.09 6.26 2.17 4.16 3.42 8.42-.45 12.4-3.68 3.79-7.9 2.55-11.46.36-13.31-8.18-26.31-16.84-39.6-25.04-10.32-6.36-20.85-12.41-31.45-18.3-1.39-.77-4.35-.53-5.59.48-24.64 19.87-53.28 30.27-84.03 35.4-10.77 1.79-21.78 2.18-32.69 3.07-1.65.13-3.35-.5-5.03-.78-.07-.57-.14-1.12-.21-1.66zm74.63-73.04c10.05 3.23 19.82 6.36 29.58 9.52 4.83 1.56 10.55 5.52 14.21 4.11 3.79-1.46 5.89-7.96 8.16-12.54 4.54-9.13 8.7-18.46 13.63-29.02-18.44 1.01-34.99 1.87-51.53 2.91-1.16.07-2.72 1.3-3.27 2.39-3.68 7.42-7.15 14.94-10.78 22.63z"/><path d="m272.6 131.78c5.78-9.57 10.88-17.74 15.66-26.11 1.05-1.84 2-5.42 1.11-6.3-1.46-1.44-4.54-2.05-6.79-1.77-25.06 3.02-50.08 6.37-75.14 9.35-3.85.46-4.33 2-4.46 5.36-.81 20.26-1.67 40.53-2.99 60.77-.52 7.91-2.27 15.74-8.2 22.14-5.95-5-5.53-11.83-5.73-18.05-.67-20.97-.86-41.95-1.23-62.93-.03-1.48 0-2.95 0-5-7.79 1.11-15.12 2-22.41 3.21-12.44 2.06-24.8 4.75-37.3 6.3-5.62.7-11.5-.72-16.75-1.14-2.65 8.06-4.43 16.98-8.45 24.73-4.29 8.26-9.97 16.11-16.39 22.86-5.54 5.82-10.21 3.48-11.98-4.57-2.38-10.81.25-20.17 8.12-27.88 8.84-8.66 13.5-19.6 17.49-30.96.49-1.41 1.02-2.81 1.65-4.16.26-.56.82-.99 1.91-2.23 1.58 2.95 3.43 5.34 4.16 8.03 1.23 4.52 4.03 4.92 7.91 4.38 10.36-1.44 20.76-2.65 31.13-4.03 12.19-1.63 24.36-3.34 36.53-5.06 1.3-.18 2.57-.68 5.07-1.36-1.32-7.22-2.43-14.53-4.06-21.71-.7-3.09-2.6-4.53-6.65-3.91-11.86 1.81-23.88 2.56-35.65-.73-3.44-.96-6.61-2.88-9.9-4.36.17-.49.34-.99.51-1.48 7.83-1.05 15.66-2.11 23.5-3.15 24.66-3.28 48.46-9.94 71.82-18.3 8.11-2.9 16.3-2.77 24.55-.83 1.28.3 2.88.58 3.64 1.47 1.9 2.24 4.66 4.82 4.66 7.27 0 1.79-3.56 4.58-5.98 5.21-11.88 3.07-23.88 5.67-35.88 8.22-8.06 1.72-16.2 3.08-24.89 4.71 4.36 3.69 12.05 2.55 12.99 8.98.74 5.03-.46 10.34-.84 16.19 6.22-.71 12.3-1.1 18.27-2.14 18.14-3.15 36.26-6.4 54.32-9.95 4.84-.95 9.45-3.09 14.13-4.8 4.81-1.76 9.33-1.56 13.91.96 12.06 6.64 23.02 14.67 32.06 25.1 1.4 1.61 3.16 4.63 2.53 5.86-.87 1.7-3.77 3.07-5.94 3.3-19.06 2.04-37.15 7.09-54 16.37-1.53.83-3.29 1.19-6.02 2.14z"/><path d="m222.56 154.64c14.49-6.92 33.32-.2 36.94 12.85 1.24 4.48-1.25 8.34-5.64 7.41-11.57-2.47-21.43-8.43-29.76-16.82-.83-.84-1.05-2.29-1.54-3.44z"/><path d="m223.07 122.22c12.65-8.09 32.23-7.47 36.52 9.34 1.08 4.24-1.22 7.55-5.31 7.47-8.25-.16-25.89-9.65-31.21-16.81z"/><path d="m118.58 162.02c9.72-2.18 18.56-2.39 27.06 1.51 6.18 2.83 8.91 8.97 7.48 15.31-.71 3.12-2.61 4.88-5.7 4.18-12.21-2.76-21.95-9.06-28.84-21z"/><path d="m138.55 127.83c12.59-.05 19.45 4.99 21.98 15.32 1.3 5.31-1.46 8.56-6.62 7-8.62-2.61-16.8-6.37-23.04-13.16-1.42-1.54-2.77-4.17-2.43-5.97.25-1.27 3.32-2.29 5.29-2.85 1.87-.52 3.95-.29 4.82-.34z"/></g></svg>