<svg enable-background="new 0 0 400 400" viewBox="0 0 400 400" xmlns="http://www.w3.org/2000/svg"><path d="m362.1 8.8c1.1.8 2.1 1.6 3.1 2.4l-1 1.1c-1.3-1.1-2.3-2-3-2.5zm1.9 4.8c.5.2.9.4 1.4.5-.6 2.3-1.3 4.5-1.9 6.8l-1.5-.5c.8-2.1 1.4-4.3 2-6.8zm-1-9.4c1.3.9 2.4 1.8 3.4 2.5l-1 1.1c-1.4-1.2-2.4-2.1-3.2-2.6zm3.7 2.2v-1.4h10.3v1.2c-.5 3.6-1.8 6.8-4 9.4 1.5 1.6 3.4 2.8 5.7 3.8-.3.4-.7.8-1.1 1.4-2.3-1.1-4.1-2.5-5.6-4.1-1.6 1.6-3.6 3.1-5.9 4.3-.3-.5-.7-.9-1-1.3 2.4-1.1 4.4-2.5 6-4.1-1.9-2.5-3-5.6-3.3-9.3h-1.1zm8.8 0h-6.4c.3 3.3 1.3 6 3 8.2 2-2.3 3.1-5.1 3.4-8.2z" fill="#fcfbfa"/><path d="m385.3 3.8h1.3v2.2h2.8v-2.2h1.3v2.2h4.1v9.1h1.7v1.3h-16.9v-1.3h1.7v-9.1h4.1v-2.2zm.4 13.1.7 1.2c-1.8.9-3.8 1.9-6 2.9-.2-.4-.5-.8-.8-1.3 2.3-1 4.3-1.9 6.1-2.8zm-3.1-6.4h2.8v-3.2h-2.8zm0 4.6h2.8v-3.3h-2.8zm4-4.6h2.8v-3.2h-2.8zm0 4.6h2.8v-3.3h-2.8zm3.7 1.9c2.1.9 4.1 1.8 6.1 2.7l-.7 1.3c-2.2-1.1-4.2-2-6.1-2.9zm3.2-9.7h-2.8v3.2h2.8zm-2.8 7.8h2.8v-3.3h-2.8z" fill="#fcfbfa"/><g fill="#010100"><path d="m72.41 298.18c-.41 3.51-.63 7.5-1.46 11.35-.36 1.7-1.95 3.15-2.98 4.71-1.27-1.32-3.43-2.51-3.67-4-1.41-8.82-2.96-17.69-3.37-26.6-1.33-29.04-2.52-58.09-9.12-86.55-1.68-7.25-4.23-14.3-6.21-21.49-.39-1.43 0-3.07.04-4.62 1.56.12 3.23-.08 4.65.43 2.49.9 4.85 2.19 7.22 3.4 8.08 4.11 14.02 2.75 18.09-5.46 6.62-13.36 12.62-27.04 18.64-40.69 1.15-2.61 1.16-5.72 1.84-9.34-11.29 1.44-21.71.68-33-4.29 2.79-1.11 4.42-1.92 6.14-2.41 26.79-7.64 53.54-15.45 80.44-22.65 5.04-1.35 10.83-.85 16.08.01 2.11.35 4.21 3.74 5.19 6.2.3.76-2.87 3.79-4.89 4.43-17.52 5.64-35.14 10.98-52.73 16.41-.91.28-1.81.6-2.83.95 7.37 8.08 7.53 8.2.93 16.9-7.84 10.33-16 20.43-24.02 30.63-1.51 1.92-3.01 3.84-3.96 6.69 12.38-2.92 24.8-5.64 37.11-8.82 8.34-2.16 16.54-4.92 24.75-7.55 2.03-.65 4.01-1.67 5.81-2.83 6.25-4.03 8.93-4.09 14.9.12 4.61 3.25 9.31 6.4 13.72 9.91 4.29 3.41 3.62 4.97 1.22 9.63-2.43 4.71-4.01 10.16-4.6 15.44-.97 8.57-.9 17.26-1.14 25.91-.68 24.6-1.53 49.19-7.12 73.3-1.23 5.31-3.35 10.43-5.34 15.52-.53 1.35-2.1 3.19-3.2 3.19-1.22.01-2.85-1.6-3.6-2.9-2.15-3.74-4.54-7.52-5.73-11.6-1.37-4.69-4.27-4.91-7.97-4.29-16.37 2.73-32.72 5.56-49.1 8.22-6.68 1.08-13.41 1.79-20.73 2.74zm26.11-92.17c5.48-1.06 10.9-2.38 16.39-3.01 1.59-.18 4.79 1.56 4.85 2.56.15 2.78-.17 6.03-4.32 6.55-5.57.69-11.11 1.67-16.97 2.58v29.55c5.53-1.21 10.94-2.61 16.44-3.51 3.03-.5 5.68.57 6.15 4.24.44 3.39-1.16 5.58-4.42 6.12-5.94.98-11.92 1.67-18.08 2.5v30.57c9.29-2.08 18.12-4.06 27.65-6.19-.72-35.06-1.45-70.38-2.19-106.77-10.15 2.32-19.07 4.36-28.01 6.4 4.61 9.67.62 19.51 2.51 28.41zm38.45 67.88c6.11 2.8 11.96 5.49 18.07 8.3.64-6.37 1.5-11.94 1.72-17.54 1.11-28.71 2.1-57.43 3-86.15.08-2.6-.35-5.39-1.34-7.77-.63-1.52-2.79-3.54-4.12-3.44-6.83.51-13.61 1.63-20.3 2.52 1.33 4.47 3.11 7.88 3.23 11.35.31 8.63-.22 17.29-.24 25.94-.06 22.59-.02 45.19-.02 66.79zm-46.96 11.83c-.34-35.27.08-70.23-4.32-105.05-5.74.6-10.66 1.06-15.56 1.64-2.87.34-4.13 1.61-3.87 4.95 1.74 22.5 3.5 45 4.7 67.53.62 11.58.11 23.22.11 35.66 7.22-1.79 12.93-3.23 18.94-4.73z"/><path d="m232.36 227.31v33.75c5.26-.85 10.27-1.48 15.19-2.49 15.99-3.29 31.7-7.47 46.02-15.65 3.71-2.12 7.41-2.25 11.5-1.1 9.45 2.64 18.24 6.14 24.34 14.44 1.95 2.66 1.99 4.72-.52 6.85-1.52 1.29-2.91 2.74-4.45 4.01-8.17 6.75-11.97 15.76-13.2 25.98-.19 1.62.58 3.53 1.39 5.04 1.18 2.18 2.9 4.06 4.23 6.17 4.15 6.6 3.44 8.63-4.41 9.59-13.68 1.68-27.42 3.01-41.16 4.12-13.24 1.06-26.51 1.65-40.09 2.47-.69 3.55-1.26 7.13-2.11 10.64-.46 1.9-1.23 3.8-2.19 5.51-1.58 2.81-3.62 3.1-5.94.64-7.54-8-10.02-17.66-7.67-28.05 4.08-18.04 7.26-36.07 6.76-54.68-.29-10.96 1.18-21.98.6-32.91-.77-14.54-2.75-29.03-4.26-43.53-.22-2.1-.71-4.17-1.21-7.06 4.32 0 8.14-.51 11.79.09 15.54 2.55 29.77-1.55 43.1-8.84 5.34-2.92 10.21-3.81 15.47-1.4 5.52 2.54 11.29 5 16.03 8.68 6.51 5.06 5.87 6.55.53 12.79-4.29 5.01-8.01 10.57-11.41 16.23-.98 1.62-.7 4.83.26 6.65 4.9 9.27 3.33 13.06-6.98 14.61-14.77 2.22-29.58 4.15-44.37 6.23-2.29.3-4.57.76-7.24 1.22zm.02 81.82c20-.96 39.13-4.08 58.07-8.42.99-.23 1.99-2.36 2.19-3.73 1.33-9.02 2.41-18.08 3.64-27.11 1.19-8.74-.83-10.86-9.61-9.46-9.32 1.48-18.61 3.18-27.9 4.8-8.76 1.53-17.52 3.1-26.39 4.68zm-.2-92.03c12.86-.18 24.74-2.02 36.03-6.74 1.72-.72 3.95-2.7 4.11-4.28.81-8.06 1.25-16.19 1.36-24.3.06-4.76-2.83-6.66-7.56-5.63-10.35 2.27-20.73 4.41-31.04 6.84-1.14.27-2.75 2-2.77 3.08-.21 10.12-.13 20.24-.13 31.03z"/><path d="m309.05 149.58c3.17-10.87 6.06-20.65 8.83-30.47.29-1.02-.15-2.26-.36-4.46-36.63 2.73-71.83 12.83-107.82 17.61-.89 5.55-1.05 10.98-2.75 15.88-1.86 5.38-4.7 10.59-8.03 15.21-1.34 1.86-5.62 3.32-7.63 2.54-2.33-.9-5.04-4.45-5.06-6.87-.04-4.26 1.43-8.69 2.98-12.77 3.6-9.43 7.58-18.7 11.52-28 .66-1.56 1.86-2.89 2.81-4.32 1.36 1.28 2.98 2.38 4.02 3.89.89 1.29 1.11 3.03 1.73 4.88 35.2-6.07 70.19-11.96 103.83-23.63 7.78-2.7 14.42-2.22 21.26 1.89 8.62 5.17 17.14 10.36 21.57 20.01 2.15 4.68 1.76 5.77-3.29 6.93-13.18 3.05-24.89 9.09-35.79 16.94-2.26 1.62-4.77 2.9-7.82 4.74z"/><path d="m284.08 64.74c-.07 12.31-7.28 16.91-14.65 11.45-11.41-8.45-22.18-17.81-32.87-27.18-3.91-3.42-2.78-7.1 2.28-7.57 14.26-1.34 28.08.42 38.57 11.31 3.67 3.8 5.35 9.52 6.67 11.99z"/></g></svg>