<svg enable-background="new 0 0 400 400" viewBox="0 0 400 400" xmlns="http://www.w3.org/2000/svg"><path d="m378.6 9.2.8-1c.9.7 1.9 1.4 2.9 2.3l-.9 1.1c-1.1-.9-2-1.7-2.8-2.4zm.5 10.7c.9-2.1 1.6-4.3 2.3-6.7.4.2.8.4 1.3.6-.7 2.1-1.5 4.3-2.2 6.6zm.4-15.2.9-.9c1 .8 2 1.6 2.8 2.4l-1 1c-1-.9-1.9-1.8-2.7-2.5zm12.5-1.3h1.2v1.4h2.7v1.1h-2.7v2.7h-1.2v-.5h-1.8v1.3h4.9v3.8h-1.2v-.5h-3.7c0 .4-.1.9-.1 1.2h5.1v1h-5.2c0 .5-.1.9-.2 1.2h6v1h-5.2c1.1 1.3 2.9 2 5.5 2.2-.4.4-.7.8-.9 1.3-2.9-.5-4.8-1.6-5.7-3.5h-.1c-.8 1.7-2.7 2.9-5.9 3.6-.2-.4-.6-.8-.9-1.1 2.8-.6 4.6-1.4 5.4-2.5h-4.8v-1h5.3c.1-.3.2-.7.2-1.2h-4.9v-1h5c0-.4 0-.8.1-1.2h-3.6v.5h-1.2v-3.8h4.9v-1.3h-1.8v.5h-1.2v-2.7h-2.6v-1.1h2.6v-1.4h1.2v1.4h4.7v-1.4zm-6.7 8.4h3.6c0-.4 0-.9 0-1.4h-3.6zm1.9-4.7h4.7v-1.2h-4.7zm6.7 3.3h-3.7v1.4h3.7z" fill="#fcfbfa"/><path d="m384.7 21.4h1.3v2.2h2.8v-2.2h1.3v2.2h4.1v9.1h1.7v1.3h-16.9v-1.3h1.7v-9.1h4.1v-2.2zm.3 13.2.7 1.2c-1.8.9-3.8 1.9-6 2.9-.2-.4-.5-.8-.8-1.3 2.4-1 4.4-2 6.1-2.8zm-3.1-6.5h2.8v-3.2h-2.8zm0 4.6h2.8v-3.3h-2.8zm4.1-4.6h2.8v-3.2h-2.8zm0 4.6h2.8v-3.3h-2.8zm3.6 1.9c2.1.9 4.1 1.8 6.1 2.7l-.7 1.3c-2.2-1.1-4.2-2-6.1-2.9zm3.3-9.7h-2.8v3.2h2.8zm-2.8 7.8h2.8v-3.3h-2.8z" fill="#fcfbfa"/><g fill="#010103"><path d="m169.57 239.06c-3.4 1.64-6.67 3.73-10.23 4.85-10.77 3.37-21.64 6.41-32.5 9.49-3.04.86-4.51 2.14-4.54 5.8-.22 22.14-.61 44.28-1.36 66.41-.22 6.42-1.58 12.85-2.95 19.16-.59 2.71-2.53 5.14-4.35 8.65-7.16-8.39-9.76-17.19-11.89-26.46-2.31-10.07 2.12-18.92 3.55-28.32 1.93-12.77 3.52-25.58 5.25-38.38-.49-.45-.98-.9-1.47-1.35-9.27 3.27-18.66 6.24-27.77 9.9-6.77 2.72-13.28 6.15-19.74 9.58-4.72 2.5-9.24 3.42-14.09.59-5.29-3.09-10.78-5.88-15.85-9.29-1.39-.93-2.73-4.17-2.13-5.33.86-1.63 3.47-3.13 5.44-3.28 24.65-1.82 48.43-7.99 72.2-14.2 1.06-.28 2.54-1.79 2.57-2.76.2-8.8.12-17.61.12-27.12-8.42 1.47-16.32 2.85-24.54 4.28 0 1.14.31 2.25-.07 3.02-.7 1.43-1.63 3.54-2.77 3.76-1.25.24-3.68-1.01-4.16-2.19-2.97-7.38-6.1-14.77-8.08-22.44-2.21-8.58-5.66-16.27-11.49-22.9-.76-.87-1.58-1.74-2.13-2.75-1.58-2.87-1.12-4.92 2.58-5.01 2.99-.07 6.17-.45 8.94.37 10.42 3.08 20.35.27 30.37-1.86 2.11-.45 4.23-1.34 6.33-1.29 4.75.1 5.53-2.46 5.05-6.35-.71-5.77-1.24-11.56-1.97-17.33-.44-3.47-.74-3.54-6.81-3-.12.11-.28.21-.36.34-1.27 2.01-1.02 6.67-4.51 4.93-2.42-1.2-4.23-5.2-4.8-8.22-1.31-6.97-1.68-14.12-2.45-21.2-.38-3.47-.79-6.94-1.26-11.02-13.51-.77-27.85 4.48-40.74-4.26 12.23-5.76 25.67-4.96 38.59-7.6-.77-16.02-6.06-30.69-14.85-44.47 11.46-3.76 19.59.11 26.82 6.63 1.2 1.08 1.51 3.53 1.62 5.38.53 9.61.86 19.24 1.27 29.14 8.94-1.53 17.38-2.97 25.82-4.42.16-.03.31-.14.47-.17 12.53-2.62 12.64-2.6 14.94-15.21 2.47-13.53 4.05-27.04-2.71-39.99-1.38-2.65-.28-4.45 2.64-4.13 3.92.43 7.95.97 11.63 2.32 3.7 1.36 7.27 3.41 10.46 5.76 8.7 6.39 7.72 4.54 3.34 13.64-4.83 10.01-9.41 20.15-10.79 31.65 3.23-.2 6.28-.45 9.33-.55 1.48-.05 3.33-.31 4.4.42 2.57 1.77 4.78 4.06 7.14 6.15-2.47 1.55-4.77 4-7.44 4.5-17.72 3.31-17.74 3.18-22.66 20.47-.54 1.91-1.12 3.82-1.76 5.71-.79 2.31-.27 3.82 1.82 5.41 1.49 1.14 3.16 3.6 2.86 5.1-.29 1.48-2.79 2.96-4.61 3.6-3.9 1.38-7.99 2.2-11.99 3.29-3.78 1.03-7.55 2.12-11.31 3.17.14.7.1 1.17.27 1.28 6.45 4.05 6.37 4.03 4.73 11.83-.72 3.4-1.06 6.89-1.5 10.34-.1.79.15 1.63.31 3.11 6.31-2.24 12.38-4.3 18.37-6.55 9.96-3.74 23-.34 29.92 7.69 1.98 2.3 1.94 3.98.2 6.47-3.7 5.31-6.92 10.97-10.51 16.36-1.65 2.48-1.84 4.4.74 6.32 1.04.77 1.87 1.91 2.58 3.02 2.4 3.71 1.44 6.53-2.92 7.38-11.4 2.2-22.85 4.13-34.28 6.15-2.28.4-4.57.76-7.14 1.18v27.6c15.5-2.83 30.27-10.44 46.09-5.29.22.82.47 1.65.72 2.49zm-67.86-106c9.76-2.46 18.44-4.61 27.09-6.89 1.13-.3 2.81-1.11 3-1.95 1.68-7.7 3.08-15.46 4.78-24.31-12.67 2.22-24.09 4.22-34.86 6.11-.01 9.34-.01 17.76-.01 27.04zm-18.49 78.13c8.4-1.27 16.27-2.39 24.11-3.74.94-.16 2.34-1.59 2.36-2.45.17-8.9.11-17.8.11-26.84-10.22 2.03-19.73 3.91-29.51 5.84.97 8.94 1.93 17.82 2.93 27.19zm40.86-4.83c6.93-1.94 13.18-3.48 19.26-5.52 1.5-.5 3.25-2.48 3.52-4.02 1.2-6.83 1.87-13.74 2.82-20.62.58-4.22-1.9-6.35-5.4-5.93-6.19.74-12.29 2.35-18.38 3.81-.76.18-1.73 1.62-1.74 2.49-.12 9.62-.08 19.23-.08 29.79z"/><path d="m227.55 113.67c-3.55-13.86-6.54-25.88-9.87-37.81-.26-.94-2.87-1.42-4.46-1.76-5.54-1.2-11.1-2.25-16.66-3.36-.01-.82-.01-1.63-.02-2.45 3.02-.88 6.02-1.84 9.07-2.64 29.85-7.77 59.72-15.5 89.57-23.29 6.59-1.72 13.22-2.73 19.3 1.06 2.1 1.31 4.4 4.1 4.47 6.29.06 1.79-2.7 4.6-4.8 5.39-10.33 3.88-20.85 7.23-31.36 10.79-.02-.12-.05.14.04.2 10.39 7 10.08 4.78 4.24 17.45-2.68 5.8-4.89 11.81-7.32 17.73.36.47.72.94 1.09 1.41 9.53-3.1 19.05-6.24 28.6-9.26 1.59-.5 3.45-.96 5-.61 9.67 2.15 18.96 5.28 26.01 12.76 4.49 4.76 4.44 5.54-.16 10.14-10.52 10.54-19.58 22.15-26.88 35.18-2.32 4.14-5.48 7.94-8.81 11.36-3.75 3.84-6.81 3.25-10.73-.47-1.45-1.37-3.94-2.74-5.72-2.49-23.66 3.33-47.27 7.01-70.92 10.4-3.38.48-4.82 1.71-5.28 5.11-.25 1.86-1.91 3.54-2.94 5.29-1.55-1.35-3.73-2.41-4.53-4.12-2.17-4.63-4.01-9.46-5.51-14.35-4.24-13.77-9.64-26.89-19.24-37.94-2.67-3.08-1.93-4.96 2.05-5.68.65-.12 1.33-.06 1.99-.12 13.94-1.33 27.88-2.68 43.78-4.21zm42.14 38.23c9.33-1.05 17.7-1.93 26.05-3.03.99-.13 2.34-1.31 2.65-2.29 3.63-11.52 7.02-23.12 10.64-34.64 1.46-4.65-.98-5.25-4.52-4.73-6.4.94-12.79 1.98-19.17 3.07-8.09 1.39-8.2 1.41-9.77 9.49-2.02 10.41-3.82 20.83-5.88 32.13zm-41.27-78.35c7.97 4.49 9.95 10.71 8.82 18.84-.83 5.96-.16 12.12-.16 18.72 10.09-1.96 19.04-3.57 27.9-5.6 1.14-.26 2.41-2.61 2.57-4.1.58-5.61.85-11.27 1-16.91.15-5.72.03-11.45.03-17.31-13.47 2.14-26.37 4.18-40.16 6.36zm34.38 79.64c.99-12.86 1.95-25.33 2.95-38.27-9.73 1.57-18.67 3.01-26.88 4.33v38.46c8.59-1.62 16.2-3.06 23.93-4.52zm-61.54-26.51c2.11 9.03 4.07 17.72 6.18 26.37 2.55 10.48 2.61 10.47 13.33 8.1 9.5-2.1 9.66-2.11 9.14-11.75-.5-9.4-1.37-18.78-2.1-28.62-9.13 2.03-17.66 3.93-26.55 5.9z"/><path d="m206.06 241.58c-16.83 15.74-32.77 30.96-54.23 37.89-.49-.53-.97-1.05-1.46-1.58 1.33-1.62 2.42-3.56 4.04-4.8 23.18-17.81 41.67-39.56 55.36-65.39 3-5.65 4.98-11.17 1.13-17.37-.86-1.38-.91-4.33.01-5.44.87-1.05 3.92-1.43 5.31-.73 6.64 3.37 13.15 7.04 19.49 10.96 3.86 2.38 2.73 4.94.06 8.13-7.94 9.5-15.44 19.37-23.09 29.06 6.46 5.3 12.53 6 19.68 3.69 12.3-3.97 24.86-7.16 37.32-10.64 6.92-1.93 24.53 6.01 27.83 12.63.45.9.38 2.74-.24 3.39-7.09 7.43-9.81 16.89-12.11 26.41-2.79 11.54-8.88 20.55-18.44 27.51-3.64 2.65-6.39 2.06-9.14-.93-1.01-1.1-1.89-2.32-2.82-3.49-4.22-5.31-8.44-10.62-12.64-15.94-1.11-1.41-2.12-2.88-3.18-4.33.14-.51.28-1.02.42-1.53 3.21.36 6.55.3 9.62 1.17 12.31 3.49 13.45 3.29 19.22-10.65 1.46-3.53 1.63-7.8 1.55-11.72-.14-6.48-1.79-8.31-8.21-7.66-10.53 1.07-20.98 2.99-31.45 4.65-2.25.36-4.44 1.1-6.84 1.72 0 18.48-.31 36.91.13 55.32.22 9.26 5.6 15.42 14.62 18.03 14.58 4.22 29.5 4.71 44.49 3.46 5.77-.48 11.48-1.77 17.22-2.61 6.11-.89 10.82-4.22 13.11-9.63 3.21-7.59 5.39-15.62 8.04-23.45 1.03-3.03 2.15-6.02 3.22-9.03.62.02 1.24.03 1.86.05 1.03 3.84 1.92 7.72 3.1 11.51 2.71 8.67 5.12 17.47 8.51 25.87 3.1 7.69 2.69 10.24-4.73 13.77-15.52 7.39-31.94 10.95-49.08 11.58-16.18.6-32.2.05-47.55-5.84-18.18-6.97-27.13-20.35-27.3-39.87-.12-14.14-.54-28.27-1.04-42.4-.13-3.61-1.07-7.19-1.79-11.77z"/><path d="m383.28 256.39c-2.77 1.3-4.16 2.42-5.65 2.57-11.06 1.12-22.12 2.23-33.21 2.94-3.92.25-7.97-.33-11.87-1.04-4.89-.89-7.88-3.72-10.87-8.21-10.67-16.01-21.98-31.65-33.9-46.77-6.53-8.28-14.56-15.44-22.3-22.69-2.95-2.76-7-4.35-10.51-6.53-1.34-.83-2.6-1.79-4.13-2.85 9.63-4.94 22.54-1.61 30.69 7.01 10.96 11.59 21.85 23.28 33.4 34.27 14.25 13.57 29.74 25.61 48.19 33.17 3.66 1.5 7.6 2.3 11.3 3.71 2.67 1.04 5.16 2.56 8.86 4.42z"/></g></svg>