<svg enable-background="new 0 0 400 400" viewBox="0 0 400 400" xmlns="http://www.w3.org/2000/svg"><path d="m362.1 8.8c1.1.8 2.1 1.6 3.1 2.4l-1 1.1c-1.3-1.1-2.3-2-3-2.5zm1.9 4.8c.5.2.9.4 1.4.5-.6 2.3-1.3 4.5-1.9 6.8l-1.5-.5c.8-2.1 1.4-4.3 2-6.8zm-1-9.4c1.3.9 2.4 1.8 3.4 2.5l-1 1.1c-1.4-1.2-2.4-2.1-3.2-2.6zm3.7 2.2v-1.4h10.3v1.2c-.5 3.6-1.8 6.8-4 9.4 1.5 1.6 3.4 2.8 5.7 3.8-.3.4-.7.8-1.1 1.4-2.3-1.1-4.1-2.5-5.6-4.1-1.6 1.6-3.6 3.1-5.9 4.3-.3-.5-.7-.9-1-1.3 2.4-1.1 4.4-2.5 6-4.1-1.9-2.5-3-5.6-3.3-9.3h-1.1zm8.8 0h-6.4c.3 3.3 1.3 6 3 8.2 2-2.3 3.1-5.1 3.4-8.2z" fill="#fcfbfa"/><path d="m385.3 3.8h1.3v2.2h2.8v-2.2h1.3v2.2h4.1v9.1h1.7v1.3h-16.9v-1.3h1.7v-9.1h4.1v-2.2zm.4 13.1.7 1.2c-1.8.9-3.8 1.9-6 2.9-.2-.4-.5-.8-.8-1.3 2.3-1 4.3-1.9 6.1-2.8zm-3.1-6.4h2.8v-3.2h-2.8zm0 4.6h2.8v-3.3h-2.8zm4-4.6h2.8v-3.2h-2.8zm0 4.6h2.8v-3.3h-2.8zm3.7 1.9c2.1.9 4.1 1.8 6.1 2.7l-.7 1.3c-2.2-1.1-4.2-2-6.1-2.9zm3.2-9.7h-2.8v3.2h2.8zm-2.8 7.8h2.8v-3.3h-2.8z" fill="#fcfbfa"/><g fill="#010100"><path d="m257.17 263.71c-24.51 27.6-51.81 49.13-90.98 48.33 15.11-7.18 30.19-14.38 43.36-24.87 13.22-10.52 24.85-22.53 34.84-36.8-7.52-6.97-14.81-13.78-22.16-20.52-7.18-6.58-14.67-12.69-25.86-14.71 5.74-4.97 10.73-4.72 15.79-3.63 9.89 2.14 16.96 8.89 24.23 15.21 5 4.35 9.78 8.96 15.21 13.97 6.75-16.06 14.63-31.21 11.25-48.99-.51-2.7-2.35-5.12-3.14-7.8-.47-1.59-.73-3.94.11-5.01s3.47-1.77 4.8-1.27c10.41 3.91 19.89 9.4 26.35 18.73 1.09 1.58.85 5.87-.45 7.04-7.36 6.57-11.18 15.21-15.15 23.82-3.2 6.95-6.19 13.99-9.5 20.88-1.43 2.98-1.14 4.93 1.41 7.28 29.1 26.79 62.25 45.79 101.36 53.68 2.71.55 5.18 2.33 7.76 3.54-.01.6-.03 1.2-.04 1.79-2.8 1.15-5.51 2.96-8.41 3.35-12.34 1.65-24.73 2.99-37.13 4.24-15.09 1.52-26.37-4.86-35.97-16.31-11.96-14.26-24.86-27.75-37.68-41.95z"/><path d="m137.85 304.42c-12.84 2.33-25.08 4.51-37.29 6.86-.99.19-2.11 1.38-2.57 2.38-.83 1.79-.83 4.01-1.85 5.63-1.56 2.47-3.69 4.58-5.57 6.85-2.03-2.19-5.37-4.14-5.83-6.62-1.21-6.59-2.14-13.51-1.45-20.11 2.39-22.61.68-44.77-5.31-66.64-.31-1.12-.68-2.23-1.12-3.31-2.88-7-1.82-9.08 5.97-8.52 19.43 1.41 37.24-5 55.16-10.79 11.01-3.56 29.92 2.45 35.89 12.44.88 1.47.89 4.45-.04 5.85-6.35 9.62-7.44 20.28-7.95 31.44-.67 14.43-1.7 28.94-4.1 43.15-1.16 6.87-5.51 13.34-9.11 19.59-1.05 1.83-4.45 2.98-6.81 3.05-.98.03-2.3-3.55-3.03-5.63-1.73-4.99-3.23-10.07-4.99-15.62zm4.63-5.91c.95-3.25 1.81-5.76 2.4-8.33 4.09-17.69 3.01-35.7 3.1-53.63.05-10.03-4.73-15-14.52-13.22-12 2.18-23.77 5.72-35.58 8.86-1.08.29-2.55 1.9-2.57 2.93-.21 8.45-.12 16.91-.12 25.47 1.08 0 1.76.13 2.36-.02 8.02-2.07 16.01-4.25 24.05-6.25 4.1-1.02 11.07 3 11.37 6.84.45 5.64-4.29 4.82-7.69 5.35-9.4 1.48-18.81 2.86-28.03 4.25v31.63c10.07-2.34 19.71-4.63 29.37-6.82 5.38-1.21 10.81-2.37 15.86 2.94z"/><path d="m63.51 120.23c1.6-.7 3.13-1.65 4.8-2.07 27.66-6.99 55.25-14.25 83.06-20.58 5.94-1.35 12.71.47 19.01 1.39 1.8.26 3.72 2.23 4.85 3.91 2.27 3.38.24 5.27-3.03 6.09-10.42 2.61-20.86 5.14-31.73 7.81 4.43 1.76 8.77 3.21 12.86 5.18 8.04 3.86 9.1 6.85 4.44 14.18-6.42 10.1-13.3 19.92-19.98 29.86-.9 1.34-1.76 2.7-2.08 5.2 11.78-3.19 23.56-6.37 35.34-9.57 6.23-1.7 12.25-1.25 17.62 2.41 1.56 1.06 2.26 3.38 3.35 5.12-1.64.95-3.18 2.38-4.94 2.77-19.14 4.15-38.5 7.42-57.43 12.33-24.56 6.37-48.83 13.89-73.15 21.17-8.03 2.4-15.45.89-22.48-2.62-1.93-.97-3.48-4.31-3.71-6.7-.3-3.18 2.62-3.74 5.5-4.3 29.32-5.63 58.61-11.42 87.88-17.31 1.68-.34 4.04-1.62 4.49-2.99 5.69-17.13 9.08-34.68 8.35-52.84-.02-.47-.26-.94-.48-1.72-23.93 3.75-47.59 12.67-72.16 4.81-.13-.52-.26-1.02-.38-1.53z"/><path d="m186.3 120.16c3.59-.97 5.81-1.99 8.06-2.1 23.8-1.13 47.2-4.61 69.96-11.8 7.11-2.25 14.02-5.15 20.97-7.9 10.46-4.13 21.02-7.41 32.44-4.53 1.27.32 2.95.58 3.61 1.48 1.56 2.14 3.36 4.57 3.58 7.02.11 1.22-2.82 3.53-4.71 4-17.52 4.39-35.05 8.81-52.71 12.56-17.03 3.62-34.22 6.51-51.36 9.62-9.24 1.68-17.76-.97-25.99-4.83-.97-.44-1.67-1.48-3.85-3.52z"/><path d="m270.54 141.12c15.45 1.72 31.37 1.7 44.86 11.36 6.98 5 9.62 12.18 8.41 20.58-1.12 7.75-5.95 9.79-12.31 5.11-7.76-5.71-15.35-11.68-22.83-17.76-5.29-4.3-10.32-8.91-15.36-13.49-1.39-1.26-2.41-2.92-3.6-4.39.27-.47.55-.94.83-1.41z"/><path d="m179.41 204.52c6.63-8.5 13.56-16.78 19.76-25.58 3.59-5.09 6.29-10.89 8.84-16.61 2.24-5.02 2.61-10.25-1.17-15.06-.72-.92-.73-2.41-1.17-4.05 7-1.55 12.8.79 18.56 3.24 1.21.51 2.31 1.29 3.42 2 9.77 6.29 9.7 7.49 1.5 15.19-4.44 4.17-7.69 9.61-12.17 13.74-8.29 7.63-16.92 14.92-25.75 21.91-3.28 2.6-7.53 3.97-11.33 5.9-.17-.23-.33-.45-.49-.68z"/><path d="m219.56 44.49c10.03-1.34 19.26-.04 28.22 2.94 11.96 3.98 17.96 12.49 18.28 25.05.12 4.92-3.11 7.87-7.61 6.15-16.17-6.16-28.99-16.58-38.2-31.3-.33-.52-.32-1.25-.69-2.84z"/><path d="m104.34 58.33c4.28-5.08 9.32-6.19 14.49-5.06 6.61 1.43 13.2 3.34 19.48 5.84 6.1 2.43 9.72 7.82 10.43 14.13.33 2.89-1.45 6.99-3.67 8.98-3.33 3-8.27 3.27-12.1.59-6.11-4.27-11.88-9.05-17.57-13.88-3.79-3.19-7.19-6.85-11.06-10.6z"/><path d="m110.63 158.28c-.32 4.71-2.48 7.63-6.45 9.64-4.06 2.06-6.7-.64-8.4-3.09-5.17-7.43-9.91-15.18-14.39-23.06-.8-1.41-.15-4.52.99-5.86.84-1 4.1-1.24 5.35-.41 6.86 4.57 13.69 9.27 19.96 14.59 1.91 1.65 2.01 5.41 2.94 8.19z"/></g></svg>