<svg enable-background="new 0 0 400 400" viewBox="0 0 400 400" xmlns="http://www.w3.org/2000/svg"><path d="m378.6 9.2.8-1c.9.7 1.9 1.4 2.9 2.3l-.9 1.1c-1.1-.9-2-1.7-2.8-2.4zm.5 10.7c.9-2.1 1.6-4.3 2.3-6.7.4.2.8.4 1.3.6-.7 2.1-1.5 4.3-2.2 6.6zm.4-15.2.9-.9c1 .8 2 1.6 2.8 2.4l-1 1c-1-.9-1.9-1.8-2.7-2.5zm12.5-1.3h1.2v1.4h2.7v1.1h-2.7v2.7h-1.2v-.5h-1.8v1.3h4.9v3.8h-1.2v-.5h-3.7c0 .4-.1.9-.1 1.2h5.1v1h-5.2c0 .5-.1.9-.2 1.2h6v1h-5.2c1.1 1.3 2.9 2 5.5 2.2-.4.4-.7.8-.9 1.3-2.9-.5-4.8-1.6-5.7-3.5h-.1c-.8 1.7-2.7 2.9-5.9 3.6-.2-.4-.6-.8-.9-1.1 2.8-.6 4.6-1.4 5.4-2.5h-4.8v-1h5.3c.1-.3.2-.7.2-1.2h-4.9v-1h5c0-.4 0-.8.1-1.2h-3.6v.5h-1.2v-3.8h4.9v-1.3h-1.8v.5h-1.2v-2.7h-2.6v-1.1h2.6v-1.4h1.2v1.4h4.7v-1.4zm-6.7 8.4h3.6c0-.4 0-.9 0-1.4h-3.6zm1.9-4.7h4.7v-1.2h-4.7zm6.7 3.3h-3.7v1.4h3.7z" fill="#fcfbfa"/><path d="m384.7 21.4h1.3v2.2h2.8v-2.2h1.3v2.2h4.1v9.1h1.7v1.3h-16.9v-1.3h1.7v-9.1h4.1v-2.2zm.3 13.2.7 1.2c-1.8.9-3.8 1.9-6 2.9-.2-.4-.5-.8-.8-1.3 2.4-1 4.4-2 6.1-2.8zm-3.1-6.5h2.8v-3.2h-2.8zm0 4.6h2.8v-3.3h-2.8zm4.1-4.6h2.8v-3.2h-2.8zm0 4.6h2.8v-3.3h-2.8zm3.6 1.9c2.1.9 4.1 1.8 6.1 2.7l-.7 1.3c-2.2-1.1-4.2-2-6.1-2.9zm3.3-9.7h-2.8v3.2h2.8zm-2.8 7.8h2.8v-3.3h-2.8z" fill="#fcfbfa"/><g fill="#010103"><path d="m93.7 305.75c6.5 1.22 12.96 2.7 19.5 3.58 4.42.59 9 .75 13.44.37 5.75-.49 9.65-3.41 11.28-9.52 5.47-20.46 5.51-40.98 1.54-61.63-.28-1.45-.63-2.88-1.14-5.2-1.33 1.29-2.34 2.15-3.22 3.14-17.25 19.5-35.07 38.45-56.93 52.88-8.41 5.55-17.73 9.77-26.85 14.14-2.92 1.4-6.54 1.32-10.41.9 33.88-24.02 63.79-51.88 91.08-85.5-1.74-1.07-3.82-1.97-5.39-3.43-1.42-1.33-2.28-3.27-2.92-4.24-13.18 9.15-24.7 17.92-36.97 25.46-12.08 7.43-24.9 13.66-39.77 15.88.25-4.98 3.75-6 6.43-7.47 15.35-8.48 29.82-18.22 42.71-30.15 5.11-4.73 9.8-9.91 14.71-14.91-2.93-4.41-5.65-5.08-10.26-3.03-11.17 4.97-22.65 9.26-34.11 13.53-2.31.86-5.11.39-7.68.53-.22-.52-.45-1.03-.67-1.55 1.58-1.07 3.07-2.34 4.76-3.19 21.83-10.96 42.46-23.63 59.56-41.38 1.13-1.18 2.23-2.4 4.19-4.52-8.46 1.54-15.79 2.9-23.14 4.2-13.5 2.39-26.83 2.6-39.43-3.85-1.85-.95-3.15-2.97-4.71-4.49.29-.41.59-.81.88-1.22 10.58-.72 21.18-1.27 31.74-2.2 12.57-1.11 25.12-2.52 37.67-3.88 1.21-.13 2.91-.5 3.43-1.35 5.66-9.14 11.12-18.4 17.16-28.49-17.47 1.43-34.12 1.05-49.96 6.87-7.3 2.68-9.83 1.15-10.24-6.46-.04-.83.05-1.74-.26-2.47-2.18-5.18.21-8.58 3.74-12.28 14.25-14.91 24.28-32.37 29.42-52.38.77-3.02-.93-6.65-1.35-10.01-.23-1.87-.19-3.78-.27-5.67 1.72-.02 3.7-.62 5.1.03 6.88 3.19 13.9 6.26 20.3 10.27 4.88 3.06 4.23 5.09.56 9.53-6.54 7.92-12.63 16.21-19.66 25.32 13.58-1.13 26.13-2 36.52-10.11 3.81-2.98 6.83-3.34 10.67-.66 6.82 4.76 13.8 9.28 20.62 14.04 3.75 2.62 3.92 6.91-.07 8.83-19.09 9.18-29.83 26.52-42.11 42.38-2.21 2.85-4.13 5.92-7.11 10.23 13.3-3.01 25.09-5.64 36.85-8.36 6.97-1.61 13.88-3.3 21.11-1.39 5.71 1.51 10.31 4.57 13.83 9.22.72.95 1.36 2.65.97 3.55-.36.83-2.13 1.39-3.31 1.45-13.78.72-27.59 1.05-41.35 2.04-12.34.89-24.63 2.47-37.82 3.83 3.63 4.44 6.55 8 9.44 11.58 2.12 2.63 1.22 4.53-1.57 5.84-5.55 2.59-11.17 5.03-16.66 7.75-5.5 2.72-10.86 5.7-15.92 8.38 9.82 7.53 19.85 15.23 30.82 23.66 8.92-10.5 18.4-21.37 27.47-32.57 1.56-1.92 1.7-5.24 1.88-7.96.21-3.21 1.25-4.99 4.53-3.64 8.24 3.4 15.72 7.97 20.95 15.47 2.14 3.07 2.16 5.65-1.66 7.74-11.95 6.51-23.79 13.22-35.69 19.82-4.19 2.32-8.42 4.57-14.11 7.64 3.1 1.38 5.05 2.52 7.15 3.15 11.58 3.48 23.39 6.3 34.73 10.41 7.96 2.89 14.32 8.32 16.61 17.31.98 3.86.99 7.37-2.1 10.04-3.46 3-6.56.59-9.43-1.42-11.71-8.2-23.38-16.46-35.07-24.67-.93-.65-1.97-1.15-3-1.74 1.67 11.09 3.91 21.95 4.84 32.91 2.32 27.18-2.62 52.67-19.57 74.88-4.79 6.28-9.35 6.48-12.85.09-6.77-12.36-17.08-21.11-28.12-29.27-2.19-1.62-4.11-3.61-6.15-5.43.29-.39.55-.78.82-1.18zm59.01-191.99c4.75-7.4 9.37-14.29 13.6-21.42 1.06-1.78 1.89-5.32.97-6.28-1.37-1.43-4.37-1.38-6.7-1.75-.73-.11-1.57.46-2.35.72-10.18 3.44-20.57 5.11-31.35 4.17-1.34-.12-3.35.05-4.02.9-5.49 6.99-10.74 14.17-16.57 21.97 16-1.06 31.21-3.14 46.42 1.69z"/><path d="m267.2 79.36c-19.06 5.15-37.17 11.8-55.64-2.55 6.62-1.08 11.86-2.05 17.14-2.77 33.41-4.6 66.42-11.17 99.11-19.45 10.95-2.77 20.83.28 29.63 6.64 1.96 1.42 2.26 5.14 3.32 7.81-2.04.73-4.03 1.92-6.12 2.12-24.3 2.43-48.61 4.7-72.91 7.04-.44.04-.85.31-1.59.6 3.15 3.19 6.22 6.1 9.04 9.23 2.95 3.26 2.49 5.63-.86 9.17-9.77 10.34-18.77 21.42-28.07 32.2.39.58.77 1.15 1.16 1.73 3.38-.73 6.78-1.39 10.14-2.21 10.8-2.62 21.59-5.28 32.37-7.96 1.44-.36 3.08-.62 4.19-1.49 7.01-5.5 14.07-4.04 20.93-.07 6.03 3.49 11.97 7.19 17.59 11.3 5.54 4.06 5.61 6.75 1.41 11.94-3.9 4.81-6.23 10.29-6 16.52.9 24.6 2.25 49.19 2.82 73.79.35 14.81-2.29 29.14-11.2 41.63-2.45 3.43-5.42 2.79-7.86-1.68-3.02-5.53-6.16-11-9.12-16.57-1.39-2.63-3.33-3.23-6.14-2.79-22.01 3.4-44.06 6.48-66.44 5.91-1.16-.03-2.74 1.32-3.47 2.45-2.97 4.56-5.56 4.71-8.67.19-5.98-8.7-6.64-18.65-4.71-28.34 4.21-21.21 4.87-42.59 4.55-64.05-.13-9.1-1.07-18.2-2.02-27.26-.29-2.72-2.06-5.25-2.8-7.96-1.12-4.11.44-5.79 4.45-4.72 3.19.85 6.3 2.03 9.35 3.32 4.87 2.06 9.28.8 11.74-3.79 6.38-11.88 12.27-23.99 14.6-37.41.61-3.65.08-7.48.08-12.52zm-23.35 171.28c10.26-1.79 20.51-3.89 30.85-5.32 14.09-1.94 28.11-5.43 42.52-2.5 2.65.54 4.62-.64 4.72-3.7.56-17.79 1.42-35.58 1.52-53.37.06-12.12-.97-24.26-1.5-36.38-.5-11.46-8.64-18.2-20.1-16.48-9.19 1.38-18.39 2.78-27.54 4.4-9.42 1.66-18.8 3.58-28.12 5.37v31.18c10.68-3.16 21.07-5.95 31.26-9.36 7.02-2.35 13.44-1.76 19.49 2.19 1.24.81 1.84 2.89 2.26 4.5.12.46-1.28 1.66-2.17 2.01-11.57 4.43-23.43 7.4-35.96 7.03-4.89-.14-9.79-.02-14.63-.02-.66 9.96-1.34 20.32-2.04 30.88 1.25-.08 2.1-.01 2.88-.21 11.42-2.92 22.87-5.69 34.21-8.88 6.34-1.78 12.21-1.1 17.77 2.08 1.36.78 2.52 2.62 2.85 4.17.17.79-1.55 2.59-2.72 2.94-9.15 2.8-18.24 6.47-27.63 7.68-8.87 1.14-18.08-.37-27.9-.75-.02 10.4-.02 21.32-.02 32.54z"/><path d="m358.66 333.96c-1 2.56-1.77 5.25-3.07 7.66-2.03 3.78-5.37 4.41-8.89 2.33-2.39-1.41-4.86-3.12-6.5-5.3-13.42-17.73-26.72-35.57-39.87-53.5-1.07-1.45-.79-3.89-1.14-5.87 1.87-.14 3.95-.9 5.56-.33 15.66 5.53 29.99 13.27 41.8 25.27 8.11 8.24 10.69 18.46 12.11 29.74z"/><path d="m250.52 275.8c10.62 3.62 19.11 7.94 25.13 15.92.7.93.08 4.27-.92 4.88-16.56 10.09-32.83 20.78-50.09 29.51-12.32 6.23-26.01 9.8-39.14 14.38-1.25.44-2.92-.33-4.4-.54.96-1.13 1.7-2.66 2.91-3.34 17.41-9.72 34.88-19.39 49.69-32.95 4.45-4.08 8.11-9.16 11.48-14.22 1.49-2.24 1.1-5.64 2.05-8.35.67-1.9 2.16-3.52 3.29-5.29z"/></g></svg>