<svg enable-background="new 0 0 400 400" viewBox="0 0 400 400" xmlns="http://www.w3.org/2000/svg"><path d="m378.6 9.2.8-1c.9.7 1.9 1.4 2.9 2.3l-.9 1.1c-1.1-.9-2-1.7-2.8-2.4zm.5 10.7c.9-2.1 1.6-4.3 2.3-6.7.4.2.8.4 1.3.6-.7 2.1-1.5 4.3-2.2 6.6zm.4-15.2.9-.9c1 .8 2 1.6 2.8 2.4l-1 1c-1-.9-1.9-1.8-2.7-2.5zm12.5-1.3h1.2v1.4h2.7v1.1h-2.7v2.7h-1.2v-.5h-1.8v1.3h4.9v3.8h-1.2v-.5h-3.7c0 .4-.1.9-.1 1.2h5.1v1h-5.2c0 .5-.1.9-.2 1.2h6v1h-5.2c1.1 1.3 2.9 2 5.5 2.2-.4.4-.7.8-.9 1.3-2.9-.5-4.8-1.6-5.7-3.5h-.1c-.8 1.7-2.7 2.9-5.9 3.6-.2-.4-.6-.8-.9-1.1 2.8-.6 4.6-1.4 5.4-2.5h-4.8v-1h5.3c.1-.3.2-.7.2-1.2h-4.9v-1h5c0-.4 0-.8.1-1.2h-3.6v.5h-1.2v-3.8h4.9v-1.3h-1.8v.5h-1.2v-2.7h-2.6v-1.1h2.6v-1.4h1.2v1.4h4.7v-1.4zm-6.7 8.4h3.6c0-.4 0-.9 0-1.4h-3.6zm1.9-4.7h4.7v-1.2h-4.7zm6.7 3.3h-3.7v1.4h3.7z" fill="#fcfbfa"/><path d="m384.7 21.4h1.3v2.2h2.8v-2.2h1.3v2.2h4.1v9.1h1.7v1.3h-16.9v-1.3h1.7v-9.1h4.1v-2.2zm.3 13.2.7 1.2c-1.8.9-3.8 1.9-6 2.9-.2-.4-.5-.8-.8-1.3 2.4-1 4.4-2 6.1-2.8zm-3.1-6.5h2.8v-3.2h-2.8zm0 4.6h2.8v-3.3h-2.8zm4.1-4.6h2.8v-3.2h-2.8zm0 4.6h2.8v-3.3h-2.8zm3.6 1.9c2.1.9 4.1 1.8 6.1 2.7l-.7 1.3c-2.2-1.1-4.2-2-6.1-2.9zm3.3-9.7h-2.8v3.2h2.8zm-2.8 7.8h2.8v-3.3h-2.8z" fill="#fcfbfa"/><g fill="#010103"><path d="m356.4 272.73c-6.48 1.64-12.97 3.6-19.59 4.88-14.97 2.9-29.28 1.05-43.07-5.87-11.46-5.74-16.6-15.21-16.66-27.33-.07-13.12.93-26.25 1.44-39.38.07-1.74.01-3.48.01-6.57-10.04 11.01-19.15 20.86-25.49 32.88-3.6 6.83-6.09 7.4-11.54 2.23-3.01-2.86-5.93-5.87-8.45-9.16-2.4-3.14-1.28-4.45 2.38-5.63 4.69-1.5 9.43-3.37 13.57-5.98 7.45-4.7 14.44-10.1 21.68-15.13 2.3-1.61 4.41-4.98 8.12.32 0-16.91.11-32.14-.1-47.37-.04-2.72-1.37-5.44-2.23-8.12-1.51-4.69.05-6.89 4.55-5.47 5.8 1.82 11.38 4.36 16 6.18-.98 10.93-2.24 20.75-2.66 30.61-.95 21.94-1.34 43.91-2.25 65.85-.37 8.79 3.84 14.43 11.39 17.45 12.49 5 25.39 4.41 38.1.78 6.45-1.84 10.82-6.89 13.28-12.8 2.97-7.15 4.82-14.76 7.1-22.19.72-2.34 1.25-4.74 1.87-7.11.64.06 1.27.11 1.91.17.7 4.76 1.26 9.55 2.14 14.27 1.18 6.35 2.6 12.65 3.92 18.98 1.46 7.04-.68 12.79-6.21 17.31-1.67 1.36-3.42 2.62-4.82 3.7.76 5.7 1.54 11.19 2.23 16.69 1.23 9.88 4.69 18.98 9.62 27.57.49.86 1.07 1.68 1.54 2.56 3.3 6.27 3.18 7.97-3.54 9.78-13.26 3.56-26.65 7.67-40.21 8.8-25.58 2.12-51.23 1.14-76.09-6.56-21.05-6.52-40.08-16.48-53.5-34.64-10.49-14.18-15.8-30.74-18.72-47.86-3.01-17.65-4.8-35.5-7.22-53.94-1.95 2.08-4.83 3.92-5.93 6.52-3.32 7.89-6.02 16.05-8.78 24.17-.35 1.04.09 2.63.68 3.66 3.28 5.64 1.96 8.12-4.72 9.04-7.06.98-14.09 2.17-21.12 3.33-1.3.21-2.56.7-4.33 1.2-.56 9.92-1.13 19.96-1.75 30.8 8.68-2.55 16.7-4.9 25.11-7.37-.79-2.74-1.54-5.05-2.11-7.41-.75-3.07.72-4.42 3.45-3.09 3.39 1.65 6.96 3.45 9.57 6.07 4.57 4.57 8.72 9.62 12.6 14.81 3.55 4.75 1.89 16.33-2.5 20.53-2.79 2.67-5.55 1.65-7.16-1.02-3.25-5.39-6-11.08-8.88-16.68-.67-1.3-1.07-2.75-1.89-4.93-7.26 2.76-14.36 5.3-21.34 8.14-12.92 5.25-25.86 10.48-38.62 16.12-5.38 2.38-9.91 1.72-14.5-1.43-1.92-1.32-4.13-2.29-5.82-3.84-1.29-1.18-3.1-3.54-2.68-4.45.76-1.62 2.87-3.27 4.67-3.62 5.52-1.08 11.21-1.28 16.75-2.31 6.35-1.18 12.63-2.79 18.87-4.46 1.3-.35 3.23-1.75 3.3-2.78.71-10.41 1.09-20.83 1.59-31.97-5.33.83-9.75 1.32-14.06 2.33-1.26.3-2.43 1.93-3.19 3.22-2.14 3.64-4.35 4.22-6.05.49-2.42-5.32-3.94-11.19-4.95-16.98-1.36-7.8-1.88-15.76-2.83-24.24-1.42 7.58-2.64 14.71-4.09 21.79-7.23 35.38-21.89 67.14-46.15 94.17-1.63 1.82-3.65 3.52-5.84 4.53-1.45.67-3.51 0-5.3-.07.31-1.62.15-3.56 1-4.82 5.22-7.71 11.15-14.97 15.95-22.92 14.36-23.78 22.5-49.83 27.13-77.09 3.58-21.06 4.99-42.29 4.52-63.59-.33-15.11-1.09-30.29-2.98-45.27-.89-7.03-4.77-13.73-7.53-20.47-2.63-6.4-1.53-8.16 5.37-7.78.99.05 2.1-.05 2.95.35 11.44 5.32 23.08 3.23 34.53.52 18.37-4.35 36.61-9.22 54.9-13.92 1.44-.37 2.79-1.09 4.15-1.71 5.73-2.58 11.21-5.44 18.03-3.36 9.71 2.96 18.64 6.93 25.64 14.59 2.76 3.02.28 4.87-1.16 6.84-2.93 4.02-6.37 7.7-9.12 11.84-5.71 8.61-5.28 18.75-6.06 28.42-1.31 16.23-2.52 32.52-2.63 48.79-.16 24.13 1.93 48.14 7.06 71.79.06.28.39.51 1.4 1.75 4.39-9.86 9.03-19.01 12.61-28.57 8.32-22.24 12.98-45.36 14.24-69.04.85-15.91 1.31-31.9.81-47.81-.23-7.42-2.82-14.87-4.99-22.11-1.39-4.65-.91-6.38 3.87-6.45 2.63-.04 5.47-.06 7.88.83 8.53 3.12 16.94 2.23 25.33-.19 17.2-4.96 34.37-10.06 51.56-15.07 1.1-.32 2.35-.83 3.37-.59 9.8 2.28 19.38 5.21 26.33 13.11 4.73 5.38 4.25 8.09-1.78 11.45-7.33 4.09-12.74 10.04-17.48 16.79-1.53 2.19-1.58 3.74-.03 6.16 4.13 6.44 2.71 8.61-4.94 10-17.95 3.24-35.85 6.81-53.79 10.15-6.03 1.12-12.12 1.96-18.32 2.96-.97 10.51-1.93 21.03-2.94 31.91 4.34.52 9.09.7 13.66 1.71 7.94 1.76 12.97 8.62 11.54 16.14-.47 2.48-2.82 5.3-5.07 6.44-1.12.57-4.46-1.91-5.97-3.71-4.65-5.54-8.91-11.41-13.58-17.5-3.22 14.07-5.67 27.22-9.3 40.03-5.39 19.06-14.39 36.48-26.67 52.07-2.33 2.96-2.55 5.21-1.21 8.84 7.88 21.24 24.7 32.46 44.58 39.94 28.59 10.75 57.95 12.43 87.72 5.51 12.57-2.92 14.86-5.75 16.43-18.87.84-7.2 1.61-14.42 2.49-22.26zm-224.97-89.35c6.25-2.76 11.21-4.54 15.76-7.06 5.81-3.21 10.86-3.3 15.88 1.46 3.77 3.57 7.89 6.78 12.24 10.49 1.57-35.21 3.1-69.42 4.7-105.19-30.41 6.11-60.23 12.09-90.21 18.11v86.21c10 5.85 19.44 1.29 28.27-.51 0-13.12 0-25.49 0-37.77-8.35-.56-15.55 4.39-23.34.83 3.97-2.95 8.18-5.04 12.39-7.14 12.09-6.03 24.27-11.92 31.68-24.12.45-.75 1.47-1.52 2.3-1.61 5.49-.61 17.34 8.47 17.87 13.97.12 1.27-1.45 3.49-2.74 3.98-7.98 3.05-16.1 5.73-25.36 8.94 7.81 6.99 6.76 13.97 3.86 21.7-1.87 5.01-2.05 10.63-3.3 17.71zm115.04-59.69c-.25-.11.08.18.33.12 17.44-3.96 34.87-7.93 52.28-12 .99-.23 2.34-1.15 2.59-2.01 2.55-8.71 5.44-17.38 7.12-26.27 1.07-5.66-.67-7.29-6.34-6.39-18.44 2.94-36.79 6.44-55.98 9.87zm-127.72 109.66c0-12.37 0-24.27 0-36.67-6.91.97-13.5 1.9-20.28 2.86 1.3 11.07 2.44 21.56 3.9 32.01.17 1.2 2.11 3.08 3.21 3.06 4.26-.06 8.51-.76 13.17-1.26zm12.52-3.1c4.42-.84 9.07-1.72 13.92-2.64.44-3.1.84-6.03 1.28-8.96 1.03-6.88 2.32-13.73 2.94-20.64.16-1.82-1.91-5.55-2.68-5.48-4.97.47-9.87 1.76-15.45 2.91-.01 11.85-.01 23.05-.01 34.81z"/><path d="m299.54 198.72c10.78-.31 21.48.1 31.43 5.06 7.37 3.67 11.93 9.5 12.1 17.99.04 1.9-.62 4.98-1.8 5.46-1.93.8-5.06.7-6.8-.4-6.58-4.18-12.88-8.82-19.13-13.48-5.65-4.21-11.11-8.69-16.65-13.05.28-.53.57-1.05.85-1.58z"/><path d="m300.54 183.89c1.97-2.68 3.13-4.63 4.64-6.26 4.92-5.36 10.09-10.48 14.87-15.96 1.45-1.66 2.22-4.09 2.8-6.31 1.35-5.16 2.41-5.98 7.02-3.58 4.99 2.6 9.79 5.6 14.51 8.67.97.63 1.72 2.38 1.63 3.54-.05.75-1.73 1.55-2.81 2.04-3.58 1.66-7.25 3.13-10.82 4.78-9.31 4.32-18.59 8.72-27.91 13.02-.66.32-1.57.06-3.93.06z"/></g></svg>