<svg enable-background="new 0 0 400 400" viewBox="0 0 400 400" xmlns="http://www.w3.org/2000/svg"><path d="m292.86 223.92c2.73 3.38 5.77 7.1 8.75 10.86 2.57 3.24 3.39 6.49 2.72 10.98-2.22 14.93-3.57 29.99-5.23 45-.07.61.22 1.26.45 2.44 9.1-1.62 18.04-3.29 27-4.78 5.73-.95 11.5-2.3 17.25-2.29 9.39.01 17.46 4.2 23.69 11.04 1.74 1.91 2.52 6.21 1.58 8.55-.73 1.82-4.81 3.18-7.42 3.21-22.83.22-45.67-.3-68.48.19-24.47.52-48.79 2.74-71.86 11.96-2.46.98-4.86 2.18-7.09 3.6-4.11 2.61-7.68 1.58-10.84-1.44-4.57-4.37-3.68-13.37-.9-18.91 3.27-6.5 5.27-13.96 6.26-21.22 4.51-32.94 2.96-66.13 3.25-99.25.16-17.81.68-35.61.46-53.41-.1-7.92-1.33-15.87-2.63-23.71-.55-3.32-2.97-6.28-3.86-9.59-.73-2.72-1.21-6.01-.28-8.46.4-1.06 4.65-.85 7.15-.85 1.79.01 3.67.41 5.36 1.03 16.03 5.91 31.56.28 46.95-2.69 16.57-3.2 32.65-8.91 49.19-12.36 7.74-1.61 16.06-.56 24.11-.46 1.52.02 3.45.88 4.45 2.01 1.68 1.89 3.28 4.18 3.81 6.56.18.8-2.83 2.96-4.66 3.46-16.29 4.5-32.65 8.76-48.63 13 2.03.88 5.03 1.93 7.79 3.44 6.15 3.35 6.05 5.31 4.55 12.08-2.49 11.31-3.96 22.86-5.66 34.33-.65 4.39-.76 8.87-1.23 14.7 7.51-3.05 14.07-5.71 20.63-8.36.99-.4 2.05-1.08 3.03-1.02 12.73.81 22.52 6.33 28.48 17.97 1.59 3.11 1.63 5.12-1.81 7.28-8.45 5.32-15.12 12.42-19.57 21.51-1.27 2.59-1.61 4.63 1.1 6.35.28.18.64.36.76.63 1.3 3.08 3.47 6.2 3.37 9.25-.04 1.23-4.98 2.95-7.84 3.32-10.37 1.37-20.8 2.24-31.2 3.36-1.44.16-2.88.67-2.95.69zm-68.55 78.09c19.77-2.49 38.05-4.73 56.31-7.22 1.19-.16 2.98-2.11 3.05-3.32.81-13.1 1.89-26.22 1.71-39.32-.11-7.84-2.11-15.71-3.78-23.45-.38-1.74-3.02-4.3-4.51-4.23-3.82.18-8 .7-9.77 5.36-1.55 4.07-4.18 3.83-6.71.89-1.28-1.48-2.48-3.24-3.05-5.08-2.04-6.65-3.85-13.37-5.64-20.09-2.55-9.57-5.01-19.17-7.47-28.76-.9-3.5-1.69-7.02-2.53-10.53 3.64-.26 7.58-1.56 10.87-.6 9.42 2.74 18.62 1.75 27.95.17 2.72-.46 4.43-1.34 4.44-4.67.04-13.76.72-27.54.33-41.28-.18-6.61-2.21-13.16-3.49-20.22-17.73 1.99-34.36 3.86-51.92 5.83-1.94 65.32-3.86 130.58-5.79 196.52zm95.63-122.89c0-1.5.1-3-.02-4.49-.44-5.71-2.06-7.28-7.62-6.26-14.99 2.72-29.9 5.83-44.89 8.54-2.86.52-3.53 1.73-3.36 4.29.53 8.29.79 16.6 1.45 24.88.8 10.1.95 10.24 11.16 8.78 10.17-1.45 20.32-3.1 30.4-5.05 2.17-.42 4.98-2.1 5.83-3.96 3.86-8.46 7.27-17.15 7.05-26.73z" fill="#010106"/><path d="m87.25 168.46c-11.46 11.83-22.24 23.6-33.76 34.58-5.54 5.28-12.4 9.25-18.89 13.44-1.58 1.02-4.1.6-7-.24 1.4-1.89 2.63-3.93 4.22-5.64 30.4-32.67 57.84-67.47 76.99-108.12 6.76-14.35 11.37-29.42 12.68-45.33.23-2.77-.49-5.61-.33-8.39.12-2.01.41-4.55 1.68-5.76.92-.88 3.85-.55 5.37.24 6.63 3.45 13.1 7.23 19.58 10.98 3.13 1.81 3.77 4.23 1.84 7.53-1.73 2.96-2.99 6.19-4.53 9.46 8 .56 15.73.83 23.38 1.73 4.07.48 8.14 1.72 11.99 3.19 9.11 3.49 11.88 11.62 13.35 20.13.56 3.29-1.47 6.41-5.64 5.83-3.71-.51-7.77-.88-10.91-2.66-11.97-6.81-23.63-14.16-36.27-21.84-4.87 10.56-9.95 21.58-15.03 32.6 6.88.6 13.35.65 19.6 1.86 6.89 1.34 10.52 6.24 11.06 13.02.41 5.1-2.08 7.16-7.25 6.53-8.62-1.05-14.85-6.25-21.06-11.58-1.74-1.49-3.38-3.1-5.23-4.8-9.78 14.7-19.32 29.06-29.03 43.67 4.13 3.88 8.45 7.29 15.07 4.94 12.63-4.49 25.35-8.75 38.02-13.16 1.23-.43 2.64-1.03 3.41-1.99 4.9-6.06 10.35-5.19 16.44-1.96 5.41 2.87 11.22 4.98 16.66 7.81 6.04 3.14 5.77 5.09 1.77 10.26-2.92 3.77-5.03 8.55-6.2 13.21-3.68 14.62-6.52 29.45-10.15 44.09-1.22 4.93-3.56 9.66-5.87 14.23-2.29 4.53-5.44 5.26-9.35 2.11-2.54-2.05-4.71-2.21-7.71-1.41-12.49 3.34-25.04 6.4-38.36 9.76v52.18c13.44-8.58 26.75-17.07 40.41-25.8-3.53-5.88-6.62-11.04-9.72-16.21.31-.35.63-.69.94-1.04 13.26 2.85 27.07 4.81 36.33 16.46 4.51 5.67 5.27 12.49 1.65 19.23-2.62 4.87-5.22 5.49-9.46 2.03-5.28-4.32-10.35-8.89-16.73-14.4-5.76 6.16-11.91 12.17-17.4 18.74-9.57 11.47-18.89 23.16-27.99 35-3.89 5.07-6.71 5.76-10.34.4-4.08-6.02-7.54-12.48-10.92-18.93-1.35-2.58-1.1-4.93 2-7.19 2.23-1.62 3.8-5.17 4.22-8.07 1.66-11.49 3.52-23.04 3.89-34.61.64-19.93.77-39.92.04-59.85-.37-10.01-2.99-19.95-4.84-29.87-.46-2.35-1.84-4.54-2.62-6.39zm65.36 56c-.41.72-.14.45-.1.15 2.37-18.09 4.86-36.17 7-54.3.77-6.49-3.18-9.64-10-8.69-1.47.21-2.9.7-4.33 1.11-9.34 2.68-18.67 5.4-28.02 8.03-2.49.7-5.06 1.08-7.48 1.59v25.92c1.92-.34 3.57-.41 5.06-.94 4.52-1.62 8.97-3.43 13.45-5.16 5.02-1.94 10.08-2.64 14.83.51 4 2.65 4.09 5.8.1 7.59-10.45 4.68-20.99 9.39-33.28 5.67-.49 10.6-.97 20.97-1.44 31.31 14.5-4.21 28.95-8.39 44.21-12.79z" fill="#010106"/><g fill="#fafbfa"><path d="m12.4 4.8-7.1 9h6v1.2h-8v-.5l6.1-8.9h-4.7v-1.2h7.6v.4z"/><path d="m14 14v-9.6h3c1.6 0 2.9.5 4 1.4s1.6 2.2 1.6 3.8-.5 3-1.6 3.9-2.4 1.5-4 1.5h-3zm1.4-8.4v8.2h1.6c1.3 0 2.4-.4 3.1-1.1s1.1-1.8 1.1-3.1-.4-2.3-1.2-3-1.8-1-3.1-1z"/><path d="m26.1 4.4v10.6h-1.4v-10.6z"/><path d="m36.1 14.6c-.8.4-1.8.6-2.9.6-1.5 0-2.7-.5-3.6-1.4s-1.4-2.2-1.4-3.8c0-1.7.5-3.1 1.5-4.1s2.3-1.6 3.9-1.6c1 0 1.8.1 2.5.4v1.4c-.8-.4-1.6-.6-2.5-.6-1.2 0-2.1.4-2.9 1.2s-1.1 1.8-1.1 3.2c0 1.3.3 2.3 1 3s1.6 1.1 2.7 1.1c1 0 2-.2 2.7-.7v1.3z"/><path d="m37.6 14.3c0-.2.1-.5.3-.6s.4-.3.6-.3c.3 0 .5.1.6.3s.3.4.3.6-.1.4-.3.6-.4.3-.6.3c-.3 0-.5-.1-.6-.3s-.3-.4-.3-.6z"/><path d="m50.2 15h-1.6l-5.3-8.2c-.2-.2-.3-.5-.4-.7 0 .2.1.7.1 1.5v7.4h-1.4v-10.6h1.7l5.2 8.1c.2.4.4.6.4.7 0-.3-.1-.8-.1-1.5v-7.3h1.4z"/><path d="m58.6 15h-5.7v-10.6h5.5v1.2h-4.1v3.4h3.8v1.2h-3.8v3.6h4.3z"/><path d="m67.1 5.6h-3.1v9.4h-1.4v-9.4h-3v-1.2h7.5z"/></g></svg>