<svg enable-background="new 0 0 400 400" viewBox="0 0 400 400" xmlns="http://www.w3.org/2000/svg"><path d="m362.1 8.8c1.1.8 2.1 1.6 3.1 2.4l-1 1.1c-1.3-1.1-2.3-2-3-2.5zm1.9 4.8c.5.2.9.4 1.4.5-.6 2.3-1.3 4.5-1.9 6.8l-1.5-.5c.8-2.1 1.4-4.3 2-6.8zm-1-9.4c1.3.9 2.4 1.8 3.4 2.5l-1 1.1c-1.4-1.2-2.4-2.1-3.2-2.6zm3.7 2.2v-1.4h10.3v1.2c-.5 3.6-1.8 6.8-4 9.4 1.5 1.6 3.4 2.8 5.7 3.8-.3.4-.7.8-1.1 1.4-2.3-1.1-4.1-2.5-5.6-4.1-1.6 1.6-3.6 3.1-5.9 4.3-.3-.5-.7-.9-1-1.3 2.4-1.1 4.4-2.5 6-4.1-1.9-2.5-3-5.6-3.3-9.3h-1.1zm8.8 0h-6.4c.3 3.3 1.3 6 3 8.2 2-2.3 3.1-5.1 3.4-8.2z" fill="#fcfbfa"/><path d="m385.3 3.8h1.3v2.2h2.8v-2.2h1.3v2.2h4.1v9.1h1.7v1.3h-16.9v-1.3h1.7v-9.1h4.1v-2.2zm.4 13.1.7 1.2c-1.8.9-3.8 1.9-6 2.9-.2-.4-.5-.8-.8-1.3 2.3-1 4.3-1.9 6.1-2.8zm-3.1-6.4h2.8v-3.2h-2.8zm0 4.6h2.8v-3.3h-2.8zm4-4.6h2.8v-3.2h-2.8zm0 4.6h2.8v-3.3h-2.8zm3.7 1.9c2.1.9 4.1 1.8 6.1 2.7l-.7 1.3c-2.2-1.1-4.2-2-6.1-2.9zm3.2-9.7h-2.8v3.2h2.8zm-2.8 7.8h2.8v-3.3h-2.8z" fill="#fcfbfa"/><g fill="#010100"><path d="m118.53 277.37c-13.13 12.46-27.14 24.76-35.38 42.03-3.27 6.85-6.13 7.17-10.35.75-3.36-5.11-6.25-10.55-8.97-16.04-.58-1.17-.05-3.95.93-4.66 7.41-5.35 10.64-13.18 10.9-21.53.82-27.29 1.17-54.61.95-81.91-.06-7.87-2.63-15.72-4.81-23.62-14.41 20.56-28.59 40.55-50.37 53.6-.14-5.01 2.39-8.76 5.16-12.37 24.31-31.69 45.39-65.29 60.02-102.6 5.67-14.5 11.41-29.11 12.39-44.92.21-3.34-1.12-6.75-1.32-10.15-.14-2.32-.29-5.25.94-6.82.82-1.04 4.35-.77 6.21 0 6.44 2.68 12.75 5.71 18.98 8.86 4.82 2.44 5.53 5.66 2.79 10.21-1.44 2.39-2.74 4.85-4.25 7.54 4.4 1.07 8.66 1.81 12.72 3.17 4.54 1.51 9.13 3.17 13.29 5.49 7.92 4.41 10.56 12.25 8.1 21-1.13 4.01-3.52 4.79-6.69 3.16-3.2-1.65-6.51-3.53-8.95-6.09-6.75-7.08-13.08-14.57-19.79-22.14-6.33 12.66-12.52 25.03-18.67 37.34 5.5 1.36 10.98 2.46 16.3 4.1 4.96 1.53 8.51 5.12 9.04 10.3.29 2.83-.56 6.88-2.47 8.46-1.49 1.23-6.05.37-8.14-1.11-4.29-3.04-7.93-7.04-11.68-10.8-1.74-1.74-3.14-3.83-5.01-6.16-8.49 15.15-16.82 30-25.11 44.8 7.42 2.84 14.94 3.18 22.82-.99 8.91-4.72 18.72-7.72 26.2-15.06 1.08-1.05 4.28-1.11 5.82-.32 6.65 3.42 13.15 7.16 19.44 11.2 1.21.78 2.31 4.24 1.68 5-6.42 7.85-7.58 17.58-10.11 26.81-3.32 12.15-6.58 24.31-9.94 36.45-.48 1.74-1.23 3.44-2.05 5.06-2.28 4.55-3.97 5.05-7.39 1.43-2.13-2.26-4.07-2.25-6.62-1.53-9.08 2.57-18.18 5.06-27.75 7.71v48.86c9.56-7.05 18.53-13.65 27.45-20.23-3.03-5.05-5.87-9.78-8.9-14.83 15.88-2.83 31.11 13.62 27.25 27.99-1.01 3.75-3.18 4.32-5.74 2.06-3.14-2.75-5.76-6.07-8.92-9.5zm-31.19-76.85c5.61-2.33 10.69-4.2 15.57-6.53 4.42-2.11 8.73-3.26 13.32-.82 3.6 1.91 3.97 4.06.58 6.23-4.01 2.57-8.24 5.26-12.76 6.48-5.3 1.44-11.02 1.35-16.78 1.96v26.85c11.63-1.54 21.19-10.96 34.35-7.22 1.26-7.9 2.87-15.19 3.5-22.56.95-11.25 1.39-22.56 1.69-33.85.13-5.1-1.56-6.35-6.34-5-6.82 1.93-13.53 4.27-20.24 6.54-4.16 1.4-8.25 3.01-12.89 4.71z"/><path d="m193.93 212.96c-10.84 15.37-21.2 30.62-32.19 45.4-5.44 7.31-11.97 13.83-18.17 20.55-1.18 1.28-3.17 1.81-5.05 2.84-1.9-5.19.71-8.17 3.06-11.11 20.65-25.91 36.21-54.51 45.7-86.32 1.32-4.41 2.43-8.89 3.53-12.93-7.71 0-15.16.27-22.57-.14-2.81-.16-7.73-1.63-7.89-2.96-.49-4.12 3.93-3.94 6.8-4.82 7.61-2.33 15.22-4.67 22.88-6.85 3.09-.88 4.27-2.6 3.92-5.79-.79-7.26-1.17-14.57-2.17-21.8-.44-3.18-1.99-6.2-3.12-9.53-7.73 2.98-14.8 5.7-21.86 8.43-.36-.66-.72-1.32-1.09-1.98 4.44-3.87 8.88-7.72 13.31-11.6 6.64-5.81 13.25-11.65 19.92-17.42 5.48-4.74 8.39-10.52 8.1-17.93-.23-5.86.91-6.69 6.66-5.85 7.08 1.03 14.19 1.86 20.19 6.37 6.71 5.05 6.38 7.05-.59 11.32-11.29 6.92-22.25 14.37-33.61 21.76 2.15 2.08 4.16 4.29 6.44 6.17 4.82 3.98 5.69 8.88 4.48 14.77-1.19 5.81-1.74 11.75-2.65 18.21 5.12-1.54 9.57-3.7 14.15-4.05 5.32-.41 10.97.03 16.09 1.46 4.83 1.35 4.87 5.07.58 7.88-1.47.96-3.27 1.48-4.99 1.96-7.83 2.17-15.7 4.17-23.49 6.49-.98.29-2.13 2.07-2.15 3.18-.17 9.49-.24 19 .04 28.48.04 1.51 1.66 3.34 3.04 4.4 7.1 5.44 14.74 10.25 21.45 16.13 5.31 4.65 5.55 10.5 2.27 15.83-3.08 4.99-6.96 4.93-9.63-.34-4.61-9.11-10.55-17.15-18.93-25.16 0 2.98.01 4.74 0 6.5-.11 30.15-.07 60.31-.47 90.45-.09 6.39-1.41 12.86-2.91 19.11-1.17 4.88-3.38 5.25-6.99 1.9-5.84-5.42-9.07-12.42-10.19-20.06-.51-3.51 1.11-7.42 2.15-11.04 4.78-16.62 6.17-33.6 5.96-50.8-.11-10.4-.01-20.83-.01-31.11z"/><path d="m278.31 224.55c-14.01 35.23-29.71 67.86-67.82 81.1-.62-.52-1.25-1.04-1.87-1.56 1.5-1.7 2.79-3.67 4.53-5.07 24.46-19.79 40.93-44.92 49.01-75.21 3.23-12.12 5.53-24.7 6.43-37.21 2.02-28.01 3.21-56.1 4.06-84.18.27-9.05-1.26-18.21-2.57-27.23-.53-3.64-2.81-6.99-4.02-10.57-.52-1.56-1.02-3.87-.26-4.91.81-1.11 3.4-1.93 4.73-1.47 6.87 2.4 13.87 4.71 20.26 8.1 6.47 3.43 7.83 7.92 4.78 14.71-5.05 11.22-5.69 23-6.54 35-2.18 30.82-5.1 61.58-7.64 92.37-.17 2.09-.36 4.52.49 6.3 14.47 30.33 34.04 56.49 63.47 73.8 9.8 5.77 20.8 9.49 31.19 14.27 1.64.75 2.98 2.17 4.46 3.27-1.6.96-3.18 2.69-4.82 2.75-15.41.62-30.84 1.24-46.26 1.25-7.2.01-12.85-3.18-16.18-10.37-11.1-23.97-22.55-47.77-33.86-71.64-.43-.88-.81-1.79-1.57-3.5z"/><path d="m295.57 198.39c.9-1.79 1.7-3.65 2.73-5.36 7.8-12.95 16.23-25.66 19.59-40.65 1-4.47-.16-9.41-.11-14.13.02-1.64.16-3.85 1.18-4.76 1.06-.95 3.89-1.47 4.83-.74 5.84 4.53 11.88 9.01 16.82 14.44 2.97 3.28 2.62 8.01-1.14 11.69-12.01 11.74-23.91 23.59-35.92 35.33-1.97 1.93-4.3 3.49-6.47 5.21-.51-.33-1.01-.68-1.51-1.03z"/><path d="m255.09 194.25c-.05.99.26 2.21-.2 2.94-1.74 2.77-3.73 5.39-5.63 8.06-2.26-1.9-5.63-3.37-6.59-5.79-3.38-8.55-6.15-17.37-8.7-26.22-1.03-3.56 1.14-5.22 4.41-3.47 2.68 1.43 5.26 3.54 7.1 5.95 4.24 5.57 9.23 10.89 9.61 18.53z"/></g></svg>