<svg enable-background="new 0 0 400 400" viewBox="0 0 400 400" xmlns="http://www.w3.org/2000/svg"><path d="m378.6 9.2.8-1c.9.7 1.9 1.4 2.9 2.3l-.9 1.1c-1.1-.9-2-1.7-2.8-2.4zm.5 10.7c.9-2.1 1.6-4.3 2.3-6.7.4.2.8.4 1.3.6-.7 2.1-1.5 4.3-2.2 6.6zm.4-15.2.9-.9c1 .8 2 1.6 2.8 2.4l-1 1c-1-.9-1.9-1.8-2.7-2.5zm12.5-1.3h1.2v1.4h2.7v1.1h-2.7v2.7h-1.2v-.5h-1.8v1.3h4.9v3.8h-1.2v-.5h-3.7c0 .4-.1.9-.1 1.2h5.1v1h-5.2c0 .5-.1.9-.2 1.2h6v1h-5.2c1.1 1.3 2.9 2 5.5 2.2-.4.4-.7.8-.9 1.3-2.9-.5-4.8-1.6-5.7-3.5h-.1c-.8 1.7-2.7 2.9-5.9 3.6-.2-.4-.6-.8-.9-1.1 2.8-.6 4.6-1.4 5.4-2.5h-4.8v-1h5.3c.1-.3.2-.7.2-1.2h-4.9v-1h5c0-.4 0-.8.1-1.2h-3.6v.5h-1.2v-3.8h4.9v-1.3h-1.8v.5h-1.2v-2.7h-2.6v-1.1h2.6v-1.4h1.2v1.4h4.7v-1.4zm-6.7 8.4h3.6c0-.4 0-.9 0-1.4h-3.6zm1.9-4.7h4.7v-1.2h-4.7zm6.7 3.3h-3.7v1.4h3.7z" fill="#fcfbfa"/><path d="m384.7 21.4h1.3v2.2h2.8v-2.2h1.3v2.2h4.1v9.1h1.7v1.3h-16.9v-1.3h1.7v-9.1h4.1v-2.2zm.3 13.2.7 1.2c-1.8.9-3.8 1.9-6 2.9-.2-.4-.5-.8-.8-1.3 2.4-1 4.4-2 6.1-2.8zm-3.1-6.5h2.8v-3.2h-2.8zm0 4.6h2.8v-3.3h-2.8zm4.1-4.6h2.8v-3.2h-2.8zm0 4.6h2.8v-3.3h-2.8zm3.6 1.9c2.1.9 4.1 1.8 6.1 2.7l-.7 1.3c-2.2-1.1-4.2-2-6.1-2.9zm3.3-9.7h-2.8v3.2h2.8zm-2.8 7.8h2.8v-3.3h-2.8z" fill="#fcfbfa"/><g fill="#010103"><path d="m266.57 319.78c2.34.2 4.68.36 7.01.59 8.53.83 17.05 2.19 25.59 2.34 5.13.09 7.77-3.6 7.82-8.51.33-33.14.64-66.28.93-99.42.01-1.46-.14-2.93-.23-4.86-10.63 1.56-20.97 2.85-31.22 4.63-10.62 1.85-21.1 4.63-31.77 6.09-4.36.6-9.08-1-13.56-1.97-2.53-.55-4.89-1.84-7.7-2.95-2.01 39.94 3.37 79.82-5.98 119.59-9.09-4.09-11.56-11.25-13.6-18.94-1.96-7.38 1.84-13.97 2.22-21.02 1.12-20.41 2.75-40.79 3.84-61.2.47-8.77.08-17.59.08-27.52-10.84 2.31-21.68 4.62-33.41 7.12 3.73 3.3 6.68 5.87 9.58 8.49 3.19 2.88 4.21 6.69 2.79 10.49-6.58 17.54-12.64 35.35-20.45 52.34-7.03 15.31-18.63 27.5-32.35 37.4-2.12 1.53-4.84 2.2-7.54 2.8 24.33-32.75 44.89-66.55 42.71-109.32-6.6-.68-12.39-1.1-18.11-1.99-1.5-.23-2.78-1.9-4.17-2.91 1.32-1.36 2.41-3.49 4-3.96 14.45-4.32 28.91-8.65 43.54-12.28 4.64-1.15 9.82-.18 15.04-.18 0-12.19 0-24.58 0-37.6-15.2 1.76-30.1 2.96-41.56 14.45-.46.46-1.22 1.39-1.37 1.3-2.56-1.47-5.85-2.55-7.33-4.79-1.72-2.6-5.48-5.95-1.72-9.56 12.24-11.74 15.25-30.57 7.09-45.57-.85-1.56-1.77-3.3-1.9-5.01-.3-3.96 1.97-5.27 5.57-3.52.3.15.59.3.88.48 4.83 2.92 11.72 4.79 13.89 9.06 2.01 3.95-1.09 10.46-1.81 15.86-.94 7.06-1.74 14.14-2.74 22.33 7.57-.86 14.44-1.37 21.2-2.48 9.9-1.63 10.04-1.82 10.11-11.83.11-16.45.29-32.92-.18-49.36-.29-10.1-1.57-20.17-5.92-29.59-.98-2.13-.99-4.71-1.57-7.71 1.87 0 3.08-.32 4.01.05 7.07 2.87 14.09 5.85 21.11 8.84 4.13 1.76 4.68 4.8 3.43 8.85-4.64 15.02-6.48 30.47-6.84 46.16-.56 24.96-1.29 49.91-2.03 74.86-.19 6.45-.68 12.9-1.12 20.92 28.78-4.2 56.73-8.27 84.95-12.39.52-12.61-1.8-24.09-8.42-35.3-18.21 12.28-36.49 24-57.37 30.43-.38-.59-.76-1.18-1.14-1.77 1.35-1.14 2.58-2.45 4.06-3.4 33.56-21.55 63.05-47.3 84.45-81.45.35-.56.91-1.08 1.04-1.69.52-2.49 2.02-5.69 1.02-7.31-.88-1.43-4.69-1.79-7.04-1.45-6.06.88-12.21 1.88-18 3.8-8.51 2.82-15.94 1.36-23.11-4.03-3.34 3.79-6.62 7.5-10.28 11.65 4.84 1.73 9.53 2.9 13.72 5.06 4.35 2.24 8.44 5.15 12.21 8.29 3.23 2.69 2.99 6.57 1.23 10.09-2.42 4.83-6.78 5.56-10.47 1.59-4.64-5-8.9-10.35-13.38-15.5-1.85-2.13-3.83-4.16-5.82-6.3-6.35 5.75-12.56 11.37-19.13 17.33 1.9.84 3.93 1.44 5.63 2.55 5.53 3.61 11.27 7.03 16.24 11.32 2.22 1.92 3.95 5.78 3.83 8.67-.12 3.01-2.04 7-4.46 8.58-3.23 2.1-6.25-1.03-8.14-3.84-5.47-8.12-10.73-16.38-16.43-25.13-4.56 2.81-8.81 5.43-13.06 8.05-.3-.31-.6-.62-.9-.94 1.51-1.98 2.94-4.03 4.55-5.94 15.73-18.76 31.02-37.85 42.6-59.58 5.04-9.46 8.98-19.28 9.63-30.13.25-4.16 2.61-5.58 6.38-4.96 7.61 1.25 18.54 11.67 20.09 19.23.25 1.2-.08 2.98-.85 3.87-4.91 5.56-10.04 10.93-15.07 16.4-4.23 4.6-8.41 9.25-12.78 14.06 14.93-1 30.32-.66 44.49-6.82 6.54-2.84 11.66-1.44 15.89 2.68 4.44 4.32 7.85 9.78 11.28 15.01.73 1.12.27 4.39-.72 5.05-16.91 11.24-28.08 28.35-42.89 41.7-3.32 3-6.59 6.06-10 9.21 5.02 3.36 9.89 6.74 14.89 9.93 3.53 2.25 3.97 5.22 3.18 9.04-1.23 5.96-2.04 12.01-3.24 19.26 6.99-1.24 12.79-2.13 18.53-3.31 9.64-1.98 19.25-3.91 29.06-1.16 6.24 1.74 9.53 5.44 8.68 9.78-.52 2.66-1.53 4.23-4.88 4.32-13.96.38-27.91 1.1-41.85 1.81-2.79.14-5.55.73-8.59 1.14 0 11.26-.2 22.23.06 33.18.28 11.8.94 23.59 1.53 35.38.71 14.11 2.2 28.23 2.11 42.33-.1 15.06-5.8 28.16-17.69 38.06-3.48 2.89-6.05 2.84-8.73-1.51-8.13-13.19-18.5-24.34-31.7-32.7-.66-.42-1.18-1.08-1.76-1.62.09-.57.2-1.09.31-1.61z"/><path d="m115.22 71.86c11.8-.42 21.82 1.35 30.92 6.97 6.54 4.04 10.85 9.28 9.9 17.53-.62 5.38-3.58 7.44-8.12 4.67-5.93-3.61-11.36-8.05-16.91-12.25-2.39-1.8-4.46-4.02-6.85-5.81-3.17-2.37-6.51-4.51-9.54-6.59-4.7 9.4-9.34 18.69-14.08 28.18 5.44 1.13 11.36 2.17 17.19 3.63 7.08 1.77 11.92 10.99 9.23 17.76-.37.94-3.57 1.84-4.57 1.25-6.83-3.98-13.45-8.33-20.07-12.65-1.49-.97-2.72-2.34-4.41-3.84-7.92 13.83-15.63 27.3-23.36 40.82 6.09 4.12 12.98 4.78 20.42 1.39 8.39-3.82 16.89-7.42 25.45-10.83 2.18-.87 5.39-1.73 7.09-.77 6.6 3.75 12.88 8.1 19.1 12.49 3.39 2.4 3.52 5.31.29 8.29-4.55 4.19-5.89 9.82-6.8 15.67-2.31 14.91-4.7 29.82-7.15 44.71-.26 1.6-1 3.18-1.78 4.64-2.41 4.52-5.6 5.44-9.73 2.33-2.68-2.02-5.06-2.42-8.25-1.51-8.93 2.55-17.98 4.68-26.9 7.26-1.26.37-2.91 2.29-2.96 3.56-.59 14.79-.91 29.6-1.29 44.4-.02.61.15 1.22.31 2.37 11.53-6.93 22.72-13.66 34.61-20.8-3.6-5.92-7.38-12.14-11.77-19.37 8.69 1.05 15.92 2.28 22.32 6.41 2.79 1.8 5.5 3.75 8.11 5.81 7.48 5.94 10.32 17.94 6.42 26.73-2.37 5.34-5.9 6.04-9.88 1.67-4.24-4.65-8.21-9.56-13.21-15.43-10.66 10.62-21.73 21.08-32.09 32.21-5.05 5.42-8.9 11.99-13.04 18.2-3.32 4.99-6.5 5.42-9.84.47-2.77-4.11-5.16-8.5-7.33-12.96-1.84-3.78-1.29-7.79 1.91-10.51 7.99-6.8 9.72-16.11 10.21-25.61.81-15.45.96-30.94 1.24-46.41.29-16.14.61-32.28.51-48.42-.03-5.55-1.29-11.09-1.99-16.64-.47-.14-.94-.27-1.4-.41-2.75 2.98-5.48 6-8.27 8.94-8.92 9.43-17.81 18.89-26.85 28.2-1.94 2-4.33 3.71-6.81 4.98-1.14.58-3.29.23-4.39-.55-.63-.45-.56-2.88.06-3.9 1.44-2.4 3.27-4.6 5.16-6.68 31.34-34.74 53.82-74.51 67.8-119.13 2.44-7.79 3.01-15.6 1.32-23.61-1.21-5.71 1.49-8.22 6.87-5.73 6.29 2.92 12.39 6.44 18.09 10.4 3.8 2.64 2.05 6.53.15 9.86-1.5 2.56-2.99 5.08-5.04 8.61zm-32.31 152.73c12.99-.54 24.07-8.73 36.82-4.49.45-1.35.91-2.25 1.02-3.19 1.32-11.03 2.91-22.04 3.73-33.11.53-7.09.39-14.32-.37-21.39-.64-5.97-4.19-7.7-9.98-6.24-6.91 1.73-13.83 3.44-20.76 5.1-7.19 1.72-7.1 1.69-7.24 8.96-.08 4.14-.61 8.27-.81 12.41-.13 2.71-.02 5.44-.02 9.21 5.25-2.24 9.65-4.48 14.28-5.98 3.52-1.14 7.5-2.24 10.98-1.65 2.49.43 4.5 3.69 6.72 5.68-1.93 1.76-3.61 4.53-5.84 5.09-7.34 1.84-14.9 2.79-22.33 4.3-1.68.34-4.46 1.4-4.57 2.36-.84 7.53-1.14 15.12-1.63 22.94z"/><path d="m278.42 257.11c-1.23 3-2.31 7.06-4.42 10.49-3.31 5.35-7.94 5.16-11.19-.47-2.64-4.57-4.58-9.56-6.73-14.41-2.29-5.15-4.65-10.27-6.57-15.56-.58-1.59-.36-4.1.58-5.42.78-1.11 3.51-1.97 4.74-1.44 9.75 4.19 16.79 11.56 22.34 20.4.89 1.41.72 3.51 1.25 6.41z"/></g></svg>