<svg enable-background="new 0 0 400 400" viewBox="0 0 400 400" xmlns="http://www.w3.org/2000/svg"><g fill="#010106"><path d="m142.45 79.57c-1.9 12.33-3.61 23.48-5.5 35.76 6.67-1.36 12.4-2.52 18.13-3.69 3.71-.75 8.13-2.56 9.69 2.65 1.43 4.76-2.64 6.82-6.17 8.31-6.25 2.65-12.6 5.12-19.05 7.23-2.48.81-3.49 1.75-3.59 4.39-.21 5.62-.78 11.23-1.2 16.84 6.73-.8 12.92-1.57 19.12-2.23 1.47-.16 3.3-.45 4.4.23 1.83 1.13 4.04 2.78 4.51 4.61.33 1.29-1.6 4.1-3.15 4.77-7.32 3.13-14.88 5.7-22.29 8.63-1.14.45-2.73 1.65-2.79 2.6-.6 8.41-.91 16.84-1.37 26.64 16.11-8.16 30.45-6.19 43.9 5.18-6.07 12.69-4.56 26.42-4.96 39.96-.54 18.45-1.77 36.9-7.15 54.68-3.93 12.97-10.62 24.37-22.37 32.06-.42.27-.81.59-1.24.84-7.67 4.37-8.33 4.14-11.58-3.86-3.85-9.47-10.27-17.02-17.76-23.78-1.69-1.53-3.35-3.1-5.02-4.65.1-.52.2-1.04.31-1.56 2.99 0 6.01-.22 8.97.04 7.28.66 14.53 2.07 21.8 2.07 2.91 0 6.73-2.19 8.57-4.59 5.35-6.99 6.16-15.73 6.69-24.14 1.08-17.43 2.01-34.93-2.48-52.1-2.88-11.02-4.87-12.56-15.91-10.4-14.14 2.77-28.1 6.4-42.22 9.27-4.93 1-8.19 2.32-9.3 8.07-1.08 5.57-5.12 6.55-9.79 2.94-6.39-4.94-9.01-11.96-8.25-19.76 1.11-11.38 4.04-22.67 4.27-34.03.45-22.29.04-44.62-.99-66.89-.41-8.82-3.25-17.57-5.35-26.26-1.45-5.97.15-8.01 6.33-7.02 1.31.21 2.81.11 3.91.71 13.22 7.25 26.21 2.45 39.08-.92 13.63-3.57 26.9-8.7 40.67-11.39 6.76-1.32 14.35.99 21.44 2.31 3.69.69 3.86 3.71.94 5.74-2.65 1.85-5.78 3.21-8.89 4.13-8.44 2.5-16.97 4.63-24.36 6.61zm-56.91 127.55c11.06-2.77 21.99-5.44 32.87-8.31.95-.25 2.17-1.72 2.24-2.69.54-7.89.83-15.8 1.21-24.08-8.49 0-16.46.21-24.4-.15-1.89-.09-3.7-2.05-5.55-3.16 1.49-1.32 2.76-3.22 4.5-3.84 7.18-2.58 14.54-4.67 21.74-7.19 1.46-.51 3.55-2.1 3.61-3.28.35-6.73.17-13.49.17-19.83-9.4-2.49-19.12-.01-27.01-6.52 6.43-2.56 12.86-4.45 19.35-6.09 9.06-2.29 9.07-2.21 8.75-11.12-.08-2.16.21-4.38-.15-6.49-1.02-6.03-2.2-12.05-3.51-18.02-.58-2.66-2.39-3.61-5.24-3.16-9.48 1.49-18.99 2.79-28.58 4.18z"/><path d="m191.03 96.89c25.63 1.6 50.41-4.56 75.38-8.56 19.13-3.06 38.11-7.06 56.32-14.12 2.71-1.05 6.41-.72 9.32.12 11.35 3.28 21.54 8.74 29.59 17.65 5.1 5.65 4.76 7.44-1.43 11.78-9.36 6.55-14.14 16.47-19.21 26.27-6.56 12.67-13.61 25.08-20.52 37.57-.71 1.29-1.8 2.4-2.82 3.49-3.92 4.19-5.65 3.81-7.41-1.58-2.34-7.17-2.32-7-9.57-5.95-22.5 3.25-45.02 6.35-67.53 9.53-5.25.74-10.56 1.33-15.71 2.52-2.37.55-4.73 2.05-6.61 3.69-3.95 3.44-5.85 3.53-8.85-.81-1.38-2-2.5-4.33-3.12-6.67-4.75-18.12-9.26-36.3-14.05-54.41-1.27-4.79-3.29-9.38-4.88-14.08-1.56-4.6-.71-5.98 4.11-6.4 2.31-.21 4.66-.04 6.99-.04zm76.15 38.91c-.96 7.68-1.91 15.17-2.92 23.2 2.07-.25 3.51-.38 4.94-.61 11.28-1.82 22.51-4.1 33.85-5.35 8.56-.94 8.78-.3 11.7-8.27 5.6-15.28 10.96-30.59 9.35-47.38-.49-5.15-2.37-7.12-7.41-6.4-13.62 1.94-27.25 3.77-40.87 5.7-4.43.63-8.84 1.4-14.65 2.32 10.74 5.72 6.45 14.14 6.48 22.1 2.25-.51 4.29-.94 6.3-1.44 7.55-1.88 15.09-2.22 22.34 1 1.55.69 3.51 2.76 3.46 4.13-.06 1.46-2.11 3.05-3.59 4.19-.98.75-2.48.86-3.77 1.15-8.22 1.86-16.45 3.69-25.21 5.66zm-14.47 24.72c0-7.94 0-15.53 0-23.7-10.74 3.24-21.08 4.29-30.64-2.04-.07-.55-.14-1.1-.22-1.64 10.28-2.54 20.56-5.08 31.82-7.86-.94-6.51-1.63-12.72-2.81-18.84-.71-3.69-3.36-5-7.15-4.18-3.55.77-7.17 1.25-10.76 1.84-10.25 1.69-20.49 3.38-30.9 5.1.11 1.8.05 3.13.28 4.41 2.87 15.81 6.02 31.57 8.52 47.43.71 4.52 2.35 5.42 6.39 4.78 11.63-1.85 23.29-3.5 35.47-5.3z"/><path d="m303.12 199.1c7.38-1.44 13.34-2.62 19.31-3.77 6.2-1.19 12.25.96 14.56 5.12 2.74 4.93 1.25 7.19-4.38 7.78-10.06 1.05-20.09 2.37-30.09 3.91-1.47.22-3.48 2-3.86 3.43-2.62 9.92-4.88 19.93-7.44 30.71 6.12-.95 12.17-2.03 18.27-2.81 12.49-1.6 24.97-3.36 37.51-4.42 8.55-.72 15.58 2.97 20.38 10.18 1.06 1.6 2.08 4.56 1.32 5.69-.99 1.48-3.83 2.59-5.76 2.42-24.62-2.06-49.29-1.77-73.71 1.14-25.33 3.03-50.46 7.79-75.61 12.19-8.67 1.52-17.09 2.38-25.5-.75-4.56-1.7-8.54-4.13-10.7-9.18 20.42-2.23 40.38-4.41 61.09-6.67-1.96-10.48-3.83-20.5-5.73-30.69-7.41 0-14.7.64-21.81-.18-7.01-.81-13.44-3.97-19.08-8.26.07-.45.15-.89.22-1.34 12.86-1.09 25.73-2.18 38.87-3.3-.69-7.07-4.16-11.77-8.15-16.28-1.2-1.35-1.77-3.25-2.64-4.9 1.87-.37 3.78-1.16 5.61-1.02 4.62.35 9.26.9 13.81 1.76 5.79 1.09 7.34 3.25 7.38 9.27.02 2.98 0 5.96 0 9.49 13.72-2.43 27.02-4.79 40.84-7.24-.25-7.02 1.27-13.92-2.19-20.54-.7-1.34-.57-3.68.18-4.99.41-.73 3.08-.8 4.39-.28 4.63 1.82 9.25 3.75 13.61 6.13 5.21 2.85 5.79 6.31 2.61 11.06-1.03 1.56-1.76 3.34-3.31 6.34zm-17.42 14.78c-13.7 2.12-26.06 4.04-39.08 6.06.56 10.9 1.1 21.37 1.65 32.04 10.74-1.41 20.73-2.67 30.69-4.1.85-.12 2.09-1.27 2.21-2.08 1.59-10.39 2.99-20.81 4.53-31.92z"/><path d="m276.27 276.82c1.42 0 2.89-.23 4.26.04 15.67 3.1 31.1 6.99 44.87 15.5 9.74 6.02 17.36 13.77 20.01 25.51.91 4.06.85 7.77-2.42 10.45-3.88 3.17-8.38 2.43-12.06-.25-7.11-5.18-14.16-10.51-20.7-16.38-10.76-9.66-21.09-19.79-31.57-29.77-1.14-1.09-2-2.46-3-3.71.2-.47.4-.93.61-1.39z"/><path d="m165.25 336.58c1.87-1.84 3.53-3.99 5.66-5.47 13.35-9.3 26.88-18.34 40.18-27.71 3.36-2.37 6.68-5.22 9.02-8.54 3.36-4.77 6.26-9.99 8.48-15.38 1.63-3.96 4-5.91 7.44-3.82 6.02 3.67 11.68 8.01 17.14 12.49 1.74 1.43 3.18 4.23-.29 6.12-21.67 11.81-40.57 28.41-64.06 37.08-5.44 2.01-10.83 4.14-16.31 6.03-1.93.67-4.05.78-6.08 1.14-.4-.65-.79-1.3-1.18-1.94z"/><path d="m263.45 77.09c2.65-3.1 5.44-6.09 7.92-9.32 6.76-8.8 13.85-17.41 19.83-26.72 2.52-3.92 3.14-9.37 3.59-14.23.37-4.06 2.04-5.7 5.58-4.9 9.92 2.24 18.67 6.93 25.78 14.2 2.91 2.98.59 5.28-2.21 7.18-13.6 9.27-27.11 18.66-40.7 27.93-3.69 2.52-7.42 5.08-11.43 6.99-2.11 1.01-4.86.66-7.33.92-.34-.67-.68-1.36-1.03-2.05z"/><path d="m38.73 243.72c5.29 1.98 6.4 6.01 7.14 9.85 2.66 13.79.22 27.4-2 40.98-.05.31-.3.59-.42.89-1.56 3.81-3.52 7.95-8.22 7.36-4.92-.62-5.92-5.23-6.34-9.49-1.09-11.12 1.61-21.76 4.44-32.33 1.52-5.69 3.51-11.26 5.4-17.26z"/><path d="m240.24 68.68c-.12 1.33.21 2.97-.45 3.92-1.79 2.57-3.62 6.1-6.16 6.89-2.33.72-6.76-.76-8.27-2.77-5.88-7.8-10.98-16.19-16.33-24.38-.44-.68-.84-1.56-.81-2.33.09-2.23.4-4.45.63-6.67 1.87.38 4.01.32 5.57 1.23 6.87 4.01 13.63 8.22 20.33 12.51 4.18 2.66 5.64 6.78 5.49 11.6z"/><path d="m64.68 245.72c3.27 1.76 5.36 2.63 7.16 3.91 5.49 3.9 11.33 21.9 7.36 28.86-1.26 2.2-3.64 3.76-5.51 5.62-1.79-1.9-4.24-3.51-5.2-5.76-1.4-3.3-2.08-7.02-2.43-10.62-.67-6.75-.88-13.54-1.38-22.01z"/><path d="m122.14 229.85c3.28 1.96 7.5 3.22 9.63 6.05 3.7 4.92 6.43 10.68 8.87 16.38.83 1.94.07 4.97-.82 7.15-1.83 4.46-7.42 5.03-9.89.95-5.39-8.89-7.73-18.79-9.11-28.94.43-.53.88-1.06 1.32-1.59z"/><path d="m91.04 241.32c2.71 1.34 6.04 2.08 8 4.13 3.85 4.02 7.21 8.6 10.2 13.31 1.07 1.69 1.25 4.75.47 6.61-.82 1.94-3.14 4.2-5.06 4.46-1.79.25-4.97-1.48-5.71-3.14-3.47-7.82-6.31-15.92-9.37-23.92.49-.48.98-.97 1.47-1.45z"/></g><path d="m12.4 4.8-7.1 9h6v1.2h-8v-.5l6.1-8.9h-4.7v-1.2h7.6v.4z" fill="#fafbfa"/><path d="m14 14v-9.6h3c1.6 0 2.9.5 4 1.4s1.6 2.2 1.6 3.8-.5 3-1.6 3.9-2.4 1.5-4 1.5h-3zm1.4-8.4v8.2h1.6c1.3 0 2.4-.4 3.1-1.1s1.1-1.8 1.1-3.1-.4-2.3-1.2-3-1.8-1-3.1-1z" fill="#fafbfa"/><path d="m26.1 4.4v10.6h-1.4v-10.6z" fill="#fafbfa"/><path d="m36.1 14.6c-.8.4-1.8.6-2.9.6-1.5 0-2.7-.5-3.6-1.4s-1.4-2.2-1.4-3.8c0-1.7.5-3.1 1.5-4.1s2.3-1.6 3.9-1.6c1 0 1.8.1 2.5.4v1.4c-.8-.4-1.6-.6-2.5-.6-1.2 0-2.1.4-2.9 1.2s-1.1 1.8-1.1 3.2c0 1.3.3 2.3 1 3s1.6 1.1 2.7 1.1c1 0 2-.2 2.7-.7v1.3z" fill="#fafbfa"/><path d="m37.6 14.3c0-.2.1-.5.3-.6s.4-.3.6-.3c.3 0 .5.1.6.3s.3.4.3.6-.1.4-.3.6-.4.3-.6.3c-.3 0-.5-.1-.6-.3s-.3-.4-.3-.6z" fill="#fafbfa"/><path d="m50.2 15h-1.6l-5.3-8.2c-.2-.2-.3-.5-.4-.7 0 .2.1.7.1 1.5v7.4h-1.4v-10.6h1.7l5.2 8.1c.2.4.4.6.4.7 0-.3-.1-.8-.1-1.5v-7.3h1.4z" fill="#fafbfa"/><path d="m58.6 15h-5.7v-10.6h5.5v1.2h-4.1v3.4h3.8v1.2h-3.8v3.6h4.3z" fill="#fafbfa"/><path d="m67.1 5.6h-3.1v9.4h-1.4v-9.4h-3v-1.2h7.5z" fill="#fafbfa"/></svg>