<svg enable-background="new 0 0 400 400" viewBox="0 0 400 400" xmlns="http://www.w3.org/2000/svg"><g fill="#010105"><path d="m232.33 168.01c-.45 19.94 1.71 39.63-4.03 58.66-.54.26-1.07.51-1.61.77-1.52-2.24-3.4-4.32-4.5-6.75-4.13-9.16-2.09-18.61-.89-27.99.88-6.9 1.85-13.8 1.83-21.22-2.12 2.59-4.25 5.17-6.35 7.77-7.61 9.41-16.53 17.25-27 23.43-1.81 1.07-3 4.11-3.45 6.44-3.57 18.56-6.38 37.27-10.42 55.72-3.88 17.73-9.66 34.98-19 50.69-2.55 4.28-6.73 7.65-10.45 11.13-.94.88-3.53 1.27-4.37.62-.97-.75-1.23-2.96-1.07-4.45.19-1.75.93-3.55 1.82-5.1 12.95-22.54 19.78-47.25 23.79-72.55 4.71-29.67 7.78-59.61 11.33-89.46 1.81-15.21 2.48-30.5-.09-45.7-.88-5.19-2.66-10.25-4.26-15.29-1.46-4.59-.31-6.26 4.52-5.79 1.3.13 2.7.37 3.84.97 13.26 7.09 27.07 5.57 40.87 2.48 26.08-5.84 52.13-11.8 78.14-17.96 8.98-2.13 17.44-.68 25.85 2.23 1.81.63 3.43 1.84 5.41 2.93-2.49 5.43-7.28 6.76-11.81 7.74-19.14 4.11-38.22 8.7-57.55 11.56-21.97 3.26-44.18 4.87-66.59 7.24-.92 13-1.88 26.71-2.9 41.16 9.88-.88 19.85-1.77 30.08-2.68 1.75-11.58-.07-22.46-5.22-32.9 8.04-1.33 16.76 3.37 19.18 9.8.3.8.23 1.87-.01 2.72-1.51 5.32-3.11 10.62-5.07 17.24 5.98-1.24 10.38-2.43 14.85-2.99 3.05-.38 6.27-.2 9.3.34 1.29.23 2.88 1.88 3.23 3.18.22.82-1.39 2.77-2.55 3.21-5.88 2.2-11.82 4.31-17.87 6-7.42 2.07-7.48 1.88-6.81 10.3 4.39.8 8.98 1.32 13.37 2.53 4.71 1.3 9.27 3.29 10.17 9.01.73 4.61-1 6.17-5.29 4.25-6.07-2.68-11.86-5.94-18.42-9.29zm-39.54-13.64c-1.79 13.74-3.7 28.4-5.75 44.18 15.12-12 24.53-26.59 31-44.18-8.63 0-16.62 0-25.25 0z"/><path d="m258.34 274.44c-17.59 4.67-35.16 9.42-52.8 13.91-2.26.58-6.03.7-7.05-.59-1.53-1.93-2.07-5.46-1.58-8.02 1.22-6.33 4.4-11.18 10.56-14.66 17.61-9.94 28.59-25.57 34.99-44.44 1.23-3.61 3.17-5.03 6.02-3.71 4.55 2.1 9.22 4.54 12.84 7.92 3.45 3.22 1.46 6.84-1.83 9.76-12.33 10.94-24.56 21.98-36.83 32.99-.86.77-1.76 1.51-2.35 3.42 5.29-.39 10.59-.69 15.87-1.18 9.25-.87 18.52-1.69 27.73-2.9 2.4-.32 5.45-1.39 6.79-3.18 6.03-8.08 12.15-16.19 17.07-24.95 4.37-7.78 6.69-9.1 14.01-3.75 3.45 2.53 6.73 5.4 9.65 8.52 2.52 2.69 1.71 5.18-1.31 7.48-25.69 19.55-51.3 39.21-76.93 58.84-.48.37-.83.91-1.97 2.17 24.7-3.47 48.39-6.79 72.48-10.17-3.78-7.45-10.07-13.05-10.95-22.09 20.43 8.62 35.48 22.05 45.08 41.22 2.52 5.03 1.05 10.54-1.72 15.25-3.06 5.21-7.86 5.42-11.19.5-5.4-7.99-10.57-16.14-15.63-24.35-1.75-2.84-3.44-3.68-6.86-2.76-34.26 9.28-68.57 18.4-102.91 27.41-1.97.52-5.12.46-6.24-.73-1.22-1.29-1.43-4.44-.82-6.38 1.8-5.72 4.49-10.51 10.52-13.63 20.04-10.38 37.81-24.13 54.94-38.73.46-.39.83-.9 1.24-1.35-.27-.61-.55-1.21-.82-1.82z"/><path d="m129.53 147.34c10.62-5.75 20.56-2.63 30.04 2.26 3.89 2.01 6.98 5.55 11.17 8.99-12.83 6.54-24.11 12.29-36.28 18.49 1.39-3.42 2.66-6.33 3.76-9.31 3.97-10.8 5.52-16.31-9.57-12.65-23.38 5.68-46.71 11.53-70 17.58-1.43.37-2.6 2.94-3.32 4.71-4.31 10.57-8.24 21.3-12.83 31.74-.93 2.12-4.12 3.24-6.26 4.82-1.42-2.65-3.52-5.17-4.08-8-.51-2.6.19-5.69 1.12-8.28 4.73-13.12 9.7-26.14 14.63-39.19.22-.58.75-1.03 1.68-2.26 1.41 1.68 2.7 2.99 3.69 4.49.91 1.38 1.61 4.32 2.19 4.26 4.78-.45 9.57-1.22 14.22-2.43 1.03-.27 2.25-2.74 2.13-4.08-.78-8.6-1.84-17.18-2.93-25.75-1.34-10.54-2.12-21.22-4.48-31.53-1.34-5.88-5.37-11.14-8.15-16.69-1.07-2.13-2.06-4.31-3.08-6.47 2.44-.69 4.84-1.65 7.33-1.97 1.74-.22 3.69.17 5.39.74 11.84 4.01 22.9-.03 33.97-3.29 5.89-1.73 11.68-3.86 17.35-6.21 9.11-3.77 23.21-1.14 29.74 6.16.94 1.05 1.37 4.25.68 4.81-10.24 8.41-11.53 20.55-13.63 32.26-2.13 11.89-3.77 23.86-5.63 35.79.37.35.76.68 1.15 1.01zm-50.27-32.69c5.99-3.4 11.13-6.05 15.98-9.14 4.5-2.87 15.97 1.34 17.05 6.57.12.59.04 1.41-.29 1.87-5.93 8.35-5.08 18.34-6.7 27.71-.63 3.63-.84 7.34-1.32 11.67 4.4-1.24 7.84-2.68 11.39-3.08 4.66-.53 5.35-2.96 5.32-7.03-.05-7.13.55-14.26.82-21.39.51-13.11.95-26.23 1.48-39.34.13-3.29-1.47-4.64-4.55-4.25-4.27.54-8.59.98-12.77 1.94-9.28 2.15-18.49 4.6-27.92 6.97.51 9.25.97 17.69 1.51 27.5zm.84 4.76v39.74c5.18-.96 9.42-1.53 13.51-2.67 1-.28 2.02-2.36 2.12-3.69.53-6.77.87-13.56 1.06-20.34.16-5.88.03-11.77.03-18.1-6.2 1.88-11.67 3.53-16.72 5.06z"/><path d="m111.87 222.96c-9.25 2.96-17.6 5.63-26.87 8.59-.41 6.42-.88 13.97-1.37 21.71 5.98-1.24 11.56-2.6 17.22-3.46 2.19-.33 4.82-.05 6.74.94 1.62.84 3.53 3.17 3.42 4.71-.1 1.33-2.7 3.24-4.44 3.57-7.81 1.48-15.72 2.5-24.09 3.75-4.27 19.74-3.22 41.83-18.36 59.7-5.59-7.79-5.21-15.41-3.58-22.85 2.59-11.82 6.17-23.43 8.75-35.26 4.29-19.6 5.51-39.51 4.46-59.52-.18-3.48-1.92-6.99-3.4-10.28-2.17-4.84-1.38-7.01 3.73-6.61 13.67 1.07 25.85-2.84 37.69-9.26 2.28-1.24 6.28-.35 9.07.68 3.5 1.3 6.72 3.56 9.8 5.78 3.05 2.2 3.49 4.9 2.73 9.04-1.56 8.43-2.34 17.17-2.12 25.74.6 23.44 2.18 46.86 2.74 70.3.22 9.22-1.16 18.49-1.95 27.73-.14 1.61-.9 3.19-1.54 4.72-3.73 8.93-7.23 9.56-13.84 2.77-6.72-6.92-13.55-13.74-20.47-20.47-1.15-1.11-2.98-1.53-4.49-2.26.52-.76 1.03-1.53 1.55-2.29 2.04-.13 4.08-.32 6.13-.37 4.96-.11 9.96.2 14.85-.43 1.71-.22 4.26-2.54 4.5-4.17 1.08-7.54 1.94-15.17 2.02-22.78.27-25.14-1.04-50.2-5.83-74.96-1.14-5.87-3.09-7.31-9.04-6.31-6.03 1.02-11.99 2.57-17.86 4.28-1.23.36-2.75 2.39-2.8 3.71-.29 6.63-.13 13.28-.13 20.86 4.72-.95 8.94-2.19 13.23-2.56 4.38-.37 9.07-.63 13.55 5.26z"/><path d="m371.85 192.08c-4.87 1.25-9.7 3.24-14.63 3.56-7.08.45-14.41.51-21.3-.89-3.77-.76-7.37-4.41-10.16-7.54-7.76-8.68-15.06-17.78-22.54-26.71-1.03-1.23-2.08-2.45-3.61-4.26.55 11.9 1.4 22.9 1.46 33.91.06 10.92 1.53 22.23-5.6 33.12-7.04-10.38-10.02-20.61-8.16-32.22 1.57-9.77 2.85-19.59 4.26-29.39-.44-.16-.87-.32-1.31-.47-6.79 6.64-13.47 13.4-20.4 19.9-7.04 6.59-14.82 12.01-24.73 13.79 16.07-15.93 33.79-30.44 41.27-52.35-6.5-2.1-12.02-3.88-17.54-5.67.06-.78.11-1.55.17-2.33 2.55-.56 5.09-1.19 7.66-1.66 14.87-2.74 13.46-1.12 10.82-14.83-1.02-5.3-3.4-10.33-5.27-15.81 6.12-.88 11.5.62 16.48 3.93 3.42 2.27 4.07 5.16 2.64 9.05-1.28 3.49-1.83 7.24-2.9 11.69 8.06-1.67 14.91-3.3 21.83-4.45 3.74-.62 7.63-.73 11.41-.5 1.75.1 3.43 1.55 5.13 2.38-.92 1.47-1.5 3.72-2.81 4.28-7.87 3.36-15.87 6.39-23.89 9.38-1.84.68-3.95.58-5.85 1.13-1.74.51-4.74 1.33-4.79 2.15-.13 2.25.34 5.14 1.74 6.78 8.87 10.31 19.15 19.19 31.26 25.32 11.38 5.76 23.39 10.26 35.13 15.3 1.34.57 2.71 1.07 4.07 1.6.07.6.12 1.21.16 1.81z"/><path d="m236.44 41.41c8.9-2.48 16.64-2.05 24.01 1.86 8.52 4.52 11.94 12.07 11.8 21.33-.03 2.12-1.24 4.41-2.45 6.27-1.94 2.96-4.24 3.7-7.19.65-7.01-7.25-14.41-14.13-21.33-21.46-2.06-2.18-3.06-5.37-4.84-8.65z"/></g><path d="m6.8 9.5c.6.3 1.3.7 2.1 1.1-.4.4-.7.8-.9 1.2-.7-.4-1.3-.8-1.8-1.1s-1.1-.6-1.6-.8c.2-.4.5-.8.7-1.2.4.2.8.5 1.5.8zm.9 6.9c-.3.6-.5 1.1-.7 1.7s-.4 1.1-.6 1.7c-.6-.4-1.1-.7-1.6-1 .7-1 1.2-1.8 1.5-2.4.3-.5.6-1.1.8-1.7.3-.6.5-1.2.8-1.8.3.3.8.6 1.3.8-.7 1.3-1.2 2.2-1.5 2.7zm.1-11c.4.3 1 .7 1.7 1.1-.5.2-.8.6-1.1 1.1-.5-.6-1-1-1.4-1.2s-.9-.6-1.5-.8c.2-.4.5-.7.9-1.1.5.3.9.6 1.4.9zm10.5 13c1 .4 2 .6 3.1.7-.4.4-.7.8-.8 1.3-.9-.2-1.9-.6-3-.9-1-.4-2-.9-2.8-1.6-.5.4-1.1.9-1.9 1.3s-1.9.9-3.3 1.2c-.1-.3-.5-.8-1.1-1.3 1 0 2.1-.3 3.2-.8 1.2-.5 1.9-1 2.3-1.7h-3.2c-.4 0-1 0-2 .1v-1.2c1 0 1.7.1 2 .1h3.3v-1h-2.3c-.2 0-.9 0-2 .1v-1.2c1.2 0 1.9.1 2 .1h2.3v-.8h-4.1c0-.7.1-1.2.1-1.6 0-.5 0-1.1-.1-1.8h4.1v-.6h-2.5c0-.6.1-1.1.1-1.6v-.6h-.5c-.4 0-1 0-1.8.1v-1.3c1.2 0 1.9.1 2.1.1h.2c0-.3 0-.8-.1-1.4h1.4c0 .6-.1 1-.1 1.4h3.4c0-.4 0-.8-.1-1.3h1.5c0 .4-.1.9-.1 1.3.7 0 1.5 0 2.5-.1v1.2c-1 0-1.8-.1-2.5-.1v.6c0 .3 0 .8.1 1.5h-2.5v.8h4.1c0 .7-.1 1.3-.1 1.8s0 1 .1 1.5h-4.1v.8h1.4c.8 0 1.8 0 2.9-.1v1.2c-1 0-1.9-.1-2.8-.1h-1.5v1h3.2c.3 0 1 0 2.1-.1v1.2c-1.1 0-1.8-.1-2.1-.1h-3.4l-.1.1c1.4 1 2.4 1.5 3.4 1.9zm-4.1-6.6v-1.3h-2.7v1.3zm2.2-4.1v-1.1h-3.4v1.1zm1.9 4.1v-1.3h-2.8v1.3z" fill="#fbfafc"/><path d="m37 6.7v2.3 5.4c1 0 1.8 0 2.2-.1v1.3c-.6 0-1.5-.1-2.5-.1h-11.9c-.7 0-1.3 0-1.8.1v-1.3c.5 0 1.1.1 2 .1v-5.2c0-1 0-1.8-.1-2.5h3.7c0-1.3 0-2.1-.1-2.5h1.5c0 .4-.1 1.3-.1 2.5h2.2c0-1.2 0-2.1-.1-2.6h1.5c0 .4-.1 1.3-.1 2.6zm-12.3 13.7c-.3-.4-.7-.8-1.1-1.1 1.1-.4 2.1-.9 2.9-1.3.8-.5 1.5-1 2.1-1.6.4.4.9.8 1.3 1.1-2.5 1.4-4.2 2.4-5.2 2.9zm3.9-10.1v-2.4h-2.2v2.4zm0 4.1v-2.9h-2.2v2.9zm3.5-4.1v-2.4h-2.2v2.4zm0 4.1v-2.9h-2.2v2.9zm.4 2.9 1-1.1c.6.3 1.4.7 2.5 1.3s2 1.1 2.7 1.5c-.4.4-.8.8-1.1 1.3-.8-.8-2.5-1.7-5.1-3zm3.1-7v-2.4h-2.1v2.4zm0 4.1v-2.9h-2.1v2.9z" fill="#fbfafc"/></svg>