<svg enable-background="new 0 0 400 400" viewBox="0 0 400 400" xmlns="http://www.w3.org/2000/svg"><g fill="#010105"><path d="m160.05 235.84c-8.49 1.53-16.01 2.74-23.45 4.35-1.49.32-2.78 2.08-3.92 3.39-4.8 5.51-8.92 4.84-11.33-1.91-5.97-16.72-11.78-33.5-18.04-50.11-1.4-3.72-4.34-6.87-6.66-10.23-1.03-1.49-2.69-2.66-3.34-4.27-1.07-2.63-.77-5.19 2.98-5.12 4.14.08 8.34.05 12.39.77 23.01 4.12 46.7-11.37 53.81-32.86-6.66.45-13.03.78-19.36 1.44-.98.1-1.86 1.71-2.69 2.69-3.61 4.26-8.05 4.22-11.07-.48-1.5-2.32-2.29-5.13-3.28-7.76-5.07-13.34-9.78-26.83-15.33-39.97-1.71-4.05-5.72-7.11-8.56-10.72-1.27-1.61-2.24-3.47-3.34-5.21 1.91-.66 3.83-1.9 5.74-1.87 4.97.07 10.06.14 14.88 1.2 9.23 2.04 16.84.09 23.45-6.79 6.69-6.96 14.15-13.21 20.46-20.47 2.83-3.26 4.39-8.1 5.24-12.48.88-4.5 2.87-6.8 7.18-6.41 10.71.98 20.12 5.64 28.78 11.62 3.48 2.4 1 4.12-1.9 4.8-19.57 4.59-34.26 18.45-51.94 26.63.12.41.24.82.37 1.23 10.79-1.27 21.62-2.27 32.37-3.87 17.89-2.66 35.7-5.81 53.57-8.54 13.59-2.08 34.96 8.11 42.28 20.39-2.13 1.33-4.47 2.46-6.39 4.08-2.83 2.38-5.99 4.71-7.9 7.76-6.34 10.11-12.1 20.59-18.28 30.8-1.92 3.17-3.95 7.32-6.93 8.49-2.67 1.06-6.67-1.87-10.15-2.11-4.1-.28-8.27.44-12.4.75-6.14.46-12.28.88-18.41 1.41-6.05.53-12.08 1.18-18.94 1.86 3.42 1.95 6.15 3.51 10.34 5.9-7.32 4.07-13.45 7.16-19.23 10.8-5.68 3.58-11 7.72-16.48 11.62.21.47.43.95.64 1.42 14.36-2.23 28.79-4.06 43.05-6.8 12.19-2.34 24.15-5.88 36.28-8.55 2.94-.65 6.41-.72 9.21.22 9.23 3.1 18.31 6.68 27.34 10.34 1.9.77 3.54 2.49 4.96 4.08 4.09 4.56 4.35 6.98-.84 10.04-11.78 6.97-17.51 18.26-23.32 29.72-3.83 7.57-7.86 15.05-11.86 22.53-3.01 5.63-7.61 6.53-11.37 1.55-2.95-3.91-5.87-4.06-10.19-3.32-11.94 2.05-23.97 3.56-35.96 5.24-3.49.49-5.79 1.99-7.53 5.43-25.75 51.13-67.1 83.2-121.69 98.84-3.04.87-6.36.79-9.55 1.15-.27-.63-.53-1.25-.8-1.88 1.84-1.28 3.54-2.86 5.54-3.78 21.05-9.73 41.19-21.01 59.53-35.3 20.45-15.94 37.5-34.86 50.03-57.68.55-.99 1.02-2.05 2.01-4.05zm-28.13-130.86c1.96-.16 3.59-.24 5.21-.44 18.76-2.29 37.48-5.06 56.3-6.63 6.34-.53 12.97 1.89 19.4 3.27 1.08.23 1.83 2.01 2.73 3.08-1.22.63-2.4 1.71-3.65 1.81-13.73 1.12-27.49 1.92-41.2 3.16-11.84 1.07-23.64 2.59-36.01 3.97 1.66 7.07 3.11 13.27 4.57 19.5 1.49 0 2.48.08 3.46-.01 13.89-1.28 27.78-2.59 41.66-3.89 14.38-1.35 28.76-2.79 43.16-4 3.92-.33 6.57-1.67 7.65-5.64 2.87-10.52 6.17-20.94 8.62-31.56 1.7-7.36-1.21-10.45-8.97-10.47-5.47-.01-10.95.43-16.41.89-24.99 2.08-49.97 4.21-74.96 6.36-5.2.45-10.39 1.09-15.92 1.67 1.55 6.73 2.92 12.68 4.36 18.93zm57.1 85.81c1.44-.18 2.57-.18 3.62-.46 6.07-1.66 12.08-3.56 18.2-5.03 5.76-1.38 9.48.29 12.27 5.07-.78.5-1.52 1.19-2.4 1.48-10.16 3.41-20.35 6.74-30.5 10.18-1.25.42-2.95 1.13-3.35 2.14-2.41 6.04-4.49 12.2-6.99 19.17 5.81-1.15 10.64-2.24 15.52-3.05 10.53-1.76 20.99-7.21 32.69.17 4.6-11.91 9.33-23.21 13.25-34.78 1.45-4.26 1.32-9.16 1.33-13.77.01-3.45-1.78-5.75-5.85-5.89-15.95-.54-31.58 1.91-48.62 4.54 10.29 6.93 2.3 13.33.83 20.23zm-50.45 11.26c-.07-.5-.15-1.01-.22-1.51 1.78-.63 3.51-1.56 5.34-1.83 7.04-1.05 14.14-1.75 21.17-2.87 2.37-.38 5.15-1.04 6.8-2.58 3.18-2.98 3.16-15.74.5-19.92-17.17 2.39-34.36 4.79-51.94 7.25 3.95 16.81 7.77 33.06 11.73 49.88 10.51-1.91 20.75-3.74 30.97-5.67.67-.13 1.56-.85 1.74-1.47 1.84-6.27 3.56-12.57 5.37-19.08-10.9-.53-21.46 1.86-31.46-2.2z"/><path d="m344.67 265.57c1.1 4.69 2.18 9.39 3.31 14.08 2.75 11.41 5.38 22.85 8.36 34.2 1.25 4.76 1.27 8.16-3.39 11.58-10.61 7.78-22.78 11.05-35.3 12.45-19.13 2.15-38.4 2.97-57.6 4.56-15.35 1.28-30.63.83-45.62-2.54-7.19-1.62-14.37-4.29-20.84-7.8-10.6-5.75-16.26-15.36-15.86-27.49.48-14.42 1.99-28.81 2.84-43.22.34-5.8.22-11.64.07-17.46-.16-6.31 2.84-9.23 8.39-6.41 4.99 2.53 9.15 6.86 13.25 10.84.82.79.27 3.91-.6 5.39-8.74 14.77-10 31.2-10.31 47.69-.18 9.2 4.98 16.21 13.48 19.19 8.36 2.94 17.25 5.49 26.02 5.93 20.92 1.05 41.94 1.03 62.69-2.72 5.84-1.06 11.61-2.79 17.24-4.71 15.75-5.37 21.32-18.99 25.96-33.1 1.49-4.54 1.99-9.39 3.15-14.05.54-2.17 1.6-4.21 2.43-6.31.77-.03 1.55-.06 2.33-.1z"/><path d="m257.77 225.25c4.69 4.61 9.08 8.18 12.53 12.51 4.28 5.38 3.84 8.73-.93 13.58-3.61 3.67-7.73 6.84-11.38 10.47-7.5 7.47-14.84 15.11-22.25 22.68.25.4.5.79.74 1.19 16-2.81 31.99-5.63 49.05-8.63-4.17-3.54-7.58-6.42-10.48-8.88 1.84-6.56 4.7-8.32 9.89-5.32 7.58 4.38 14.74 9.55 21.66 14.93 2.96 2.3 5.52 5.68 6.99 9.11.95 2.22.1 5.6-.82 8.15-1.35 3.78-5.23 5.16-8.52 2.85-4.87-3.42-9.18-7.62-13.93-11.22-1.44-1.09-3.74-2.13-5.33-1.77-19.42 4.39-38.51 9.86-56.5 18.66-3.09 1.51-6.47 3.14-9.66.04-3.85-3.74-7.96-7.52-6.69-13.59.34-1.62 2.07-3.4 3.63-4.25 7.91-4.32 14.26-10.32 19.43-17.59 8.27-11.64 16.83-23.15 19.93-37.56.29-1.39 1.27-2.63 2.64-5.36z"/></g><path d="m6.8 9.5c.6.3 1.3.7 2.1 1.1-.4.4-.7.8-.9 1.2-.7-.4-1.3-.8-1.8-1.1s-1.1-.6-1.6-.8c.2-.4.5-.8.7-1.2.4.2.8.5 1.5.8zm.9 6.9c-.3.6-.5 1.1-.7 1.7s-.4 1.1-.6 1.7c-.6-.4-1.1-.7-1.6-1 .7-1 1.2-1.8 1.5-2.4.3-.5.6-1.1.8-1.7.3-.6.5-1.2.8-1.8.3.3.8.6 1.3.8-.7 1.3-1.2 2.2-1.5 2.7zm.1-11c.4.3 1 .7 1.7 1.1-.5.2-.8.6-1.1 1.1-.5-.6-1-1-1.4-1.2s-.9-.6-1.5-.8c.2-.4.5-.7.9-1.1.5.3.9.6 1.4.9zm10.5 13c1 .4 2 .6 3.1.7-.4.4-.7.8-.8 1.3-.9-.2-1.9-.6-3-.9-1-.4-2-.9-2.8-1.6-.5.4-1.1.9-1.9 1.3s-1.9.9-3.3 1.2c-.1-.3-.5-.8-1.1-1.3 1 0 2.1-.3 3.2-.8 1.2-.5 1.9-1 2.3-1.7h-3.2c-.4 0-1 0-2 .1v-1.2c1 0 1.7.1 2 .1h3.3v-1h-2.3c-.2 0-.9 0-2 .1v-1.2c1.2 0 1.9.1 2 .1h2.3v-.8h-4.1c0-.7.1-1.2.1-1.6 0-.5 0-1.1-.1-1.8h4.1v-.6h-2.5c0-.6.1-1.1.1-1.6v-.6h-.5c-.4 0-1 0-1.8.1v-1.3c1.2 0 1.9.1 2.1.1h.2c0-.3 0-.8-.1-1.4h1.4c0 .6-.1 1-.1 1.4h3.4c0-.4 0-.8-.1-1.3h1.5c0 .4-.1.9-.1 1.3.7 0 1.5 0 2.5-.1v1.2c-1 0-1.8-.1-2.5-.1v.6c0 .3 0 .8.1 1.5h-2.5v.8h4.1c0 .7-.1 1.3-.1 1.8s0 1 .1 1.5h-4.1v.8h1.4c.8 0 1.8 0 2.9-.1v1.2c-1 0-1.9-.1-2.8-.1h-1.5v1h3.2c.3 0 1 0 2.1-.1v1.2c-1.1 0-1.8-.1-2.1-.1h-3.4l-.1.1c1.4 1 2.4 1.5 3.4 1.9zm-4.1-6.6v-1.3h-2.7v1.3zm2.2-4.1v-1.1h-3.4v1.1zm1.9 4.1v-1.3h-2.8v1.3z" fill="#fbfafc"/><path d="m37 6.7v2.3 5.4c1 0 1.8 0 2.2-.1v1.3c-.6 0-1.5-.1-2.5-.1h-11.9c-.7 0-1.3 0-1.8.1v-1.3c.5 0 1.1.1 2 .1v-5.2c0-1 0-1.8-.1-2.5h3.7c0-1.3 0-2.1-.1-2.5h1.5c0 .4-.1 1.3-.1 2.5h2.2c0-1.2 0-2.1-.1-2.6h1.5c0 .4-.1 1.3-.1 2.6zm-12.3 13.7c-.3-.4-.7-.8-1.1-1.1 1.1-.4 2.1-.9 2.9-1.3.8-.5 1.5-1 2.1-1.6.4.4.9.8 1.3 1.1-2.5 1.4-4.2 2.4-5.2 2.9zm3.9-10.1v-2.4h-2.2v2.4zm0 4.1v-2.9h-2.2v2.9zm3.5-4.1v-2.4h-2.2v2.4zm0 4.1v-2.9h-2.2v2.9zm.4 2.9 1-1.1c.6.3 1.4.7 2.5 1.3s2 1.1 2.7 1.5c-.4.4-.8.8-1.1 1.3-.8-.8-2.5-1.7-5.1-3zm3.1-7v-2.4h-2.1v2.4zm0 4.1v-2.9h-2.1v2.9z" fill="#fbfafc"/></svg>