<svg enable-background="new 0 0 400 400" viewBox="0 0 400 400" xmlns="http://www.w3.org/2000/svg"><g fill="#010105"><path d="m181.32 115.64c-6.87 7.79-8.96 17.44-11.37 27.19-3.65 14.79-8.22 29.35-12.54 43.97-.65 2.2-1.9 4.27-3.14 6.23-2.43 3.85-4.25 3.71-7.38.43-1.21-1.27-3.53-2.32-5.22-2.15-7.93.78-15.8 2.14-23.72 3.05-3.44.39-5.02 2.01-5.84 5.34-5.01 20.26-12.52 39.55-22.96 57.67-14.9 25.87-34.86 46.91-60.07 62.93-1.65 1.05-3.68 1.49-5.53 2.21-.36-.5-.71-1.01-1.07-1.51 1.82-2 3.48-4.18 5.48-5.98 23.64-21.3 43.08-45.76 56.46-74.8 6.32-13.73 11.17-27.94 14.76-43.53-5.05.94-9.47 1.48-13.68 2.73-1.34.4-2.01 2.77-3.21 4.03-1.28 1.34-2.82 2.44-4.24 3.64-1.07-1.38-2.74-2.6-3.13-4.15-2.47-9.97-5.36-19.91-6.79-30.05-2.47-17.44-7.54-33.94-15.09-49.78-1.08-2.27-1.72-4.75-2.81-7.81h26.59c2.31-3.6 5.86-8.77 9.05-14.16 8.05-13.59 16.13-27.26 19.1-43.02.99-5.25.58-10.87.12-16.26-.43-4.9.71-6.83 5.52-6.91 11.39-.2 19.98 5.45 27.26 13.42.86.94.47 4.19-.51 5.43-3.82 4.81-8.32 9.08-12.2 13.85-11.55 14.21-22.92 28.55-34.35 42.85-.61.76-1.06 1.65-2.43 3.82 10.91-2.72 20.68-4.72 30.16-7.66 9.01-2.79 17.82-6.29 26.52-9.96 11.23-4.74 27.39-.88 35.18 8.66 2.75 3.37 3.58 6.63 1.02 10.37zm-59.47 28.07c.41.37.82.74 1.23 1.11 2.42-.92 4.77-2.25 7.28-2.67 4.1-.69 8.51-1.73 12.4-.88 4.88 1.07 5.42 6.17 1.08 8.75-3.34 2-7.26 3.78-11.06 4.11-9.6.83-14.06 5.48-14.61 15.1-.35 6.15-2.05 12.23-3.27 19 10.65-2.4 20.5-4.5 30.26-6.98 1.18-.3 2.39-2.55 2.66-4.06 2.08-11.75 4.11-23.51 5.78-35.33 1.09-7.71 1.91-15.5 2.18-23.27.21-5.99-3.05-9.91-7.93-9.38-10.26 1.13-20.44 3.07-30.64 4.67.03.52.06 1.05.09 1.57 1.94 1.17 3.87 2.37 5.84 3.51 3.94 2.29 5.54 4.88 3.27 9.73-2.19 4.7-3.09 9.99-4.56 15.02zm-36.05 11.94c-.1-.93-.2-1.87-.3-2.8 2.06-.95 4.04-2.27 6.2-2.76 4.52-1.02 9.15-1.53 13.69-2.43.93-.18 2.33-1.05 2.46-1.79 1.72-9.64 2.29-19.29-.11-29.41-11.39 2.46-22.34 4.82-33.78 7.29 2.94 23.05 5.85 45.79 8.8 68.9 5.51-.96 10.4-1.69 15.21-2.73 1.19-.26 2.84-1.33 3.12-2.35 2.56-9.37 4.87-18.81 7.25-28.22-8.13-1.34-15.33-2.52-22.54-3.7z"/><path d="m359.86 251.17c.71 4.81 1.12 9.69 2.21 14.42 2.29 9.98 4.43 20.05 7.59 29.77 3.02 9.27 2.59 13.88-4.63 20.47-9.56 8.73-21.51 12.75-33.76 14.96-15.97 2.88-32.14 5.27-48.32 6.14-22.58 1.21-45.26 1.51-67.87.93-21.76-.55-43.43-3.07-63.8-11.74-17.36-7.39-31.12-18.56-34.65-38.12-1.7-9.39-1.67-19.22-1.38-28.81.47-15.61 1.8-31.19 2.76-46.78.04-.66-.14-1.37.03-1.99.81-2.9 1.72-5.78 2.59-8.66 2.89 1.41 6.19 2.34 8.58 4.35 4.1 3.45 4.68 7.58 3.13 13.27-2.67 9.86-4.2 20.13-5.06 30.33-.75 8.86-1 18.03.44 26.75 2.73 16.54 12.81 28.14 27.79 35.48 16.49 8.08 34.25 10.91 52.27 10.7 28.26-.33 56.56-1.16 84.75-3.14 11.37-.8 22.93-4.06 33.62-8.22 20.13-7.83 29.57-23.67 29.76-45.21.04-4.99.8-9.98 1.23-14.97.89.03 1.8.05 2.72.07z"/><path d="m235.16 259.21c-1.59 1.9-3.02 5.13-4.82 5.35-1.91.23-4.86-1.92-6.14-3.85-4.63-7-5.46-14.97-3.57-22.97 4.86-20.67 4.87-41.48 2.13-62.36-.39-2.96-2.27-5.71-3.97-9.77 3.16-.22 6.4-1.17 9.28-.53 9.41 2.09 18.54.07 27.66-1.34 9.99-1.54 19.88-3.72 29.77-5.83 2.72-.58 5.79-1.3 7.8-3.01 4.3-3.65 8.5-3.18 12.88-.92 5.45 2.81 10.87 5.7 16.11 8.88 2.86 1.73 4.35 4.93 1.82 7.6-6.79 7.16-6.7 16.19-6.74 24.83-.04 9.42 1.3 18.86 2.31 28.27 1.29 12.12.21 23.85-4.82 35.07-2.88 6.42-6.6 7.15-10.34 1.32-3.94-6.14-8.84-7.07-15.6-6.29-13.85 1.6-27.79 2.32-41.7 3.41-4.13.32-8.26.64-12.38.96.1.39.21.79.32 1.18zm65.21-14.36c.37-6.26 1.19-13.34 1.14-20.41-.12-15.77-.57-31.54-1.12-47.3-.27-7.62-3.41-11.12-9.02-10.6-8.1.76-16.22 1.45-24.25 2.65-9.9 1.49-19.73 3.47-29.59 5.24v19.26c10.38-2.64 20.18-4.92 29.86-7.65 6.54-1.85 12.75-2.41 18.58 1.8 3.08 2.23 2.9 4.14-.53 5.77-1.19.56-2.48 1.03-3.78 1.24-14.55 2.39-28.98 6.1-44.2 3.94v22.81c1.56 0 2.89.22 4.12-.04 7.62-1.6 15.18-3.55 22.85-4.91 5.35-.95 10.9-1.87 16.22-1.37 2.58.24 4.84 3.8 7.24 5.86-2.22 1.33-4.31 3.45-6.69 3.87-14.46 2.51-28.9 5.89-43.9 2.9-.85 7.41-1.65 14.37-2.53 22 17.42-1.75 33.92-3.51 50.45-5 4.77-.43 9.61-.06 15.15-.06z"/><path d="m365.8 106.62c2.26 6.91 4.47 13.84 6.81 20.72.75 2.19 1.61 4.41 2.81 6.38 3 4.94 2.72 8.79-2.52 11.22-5.93 2.75-12.37 5.08-18.8 5.87-8.16 1-16.56.69-24.8.17-10.09-.64-16.91-8.96-17.41-20.31-.37-8.29-.61-16.6-.95-24.89-.03-.63-.31-1.24-.61-2.37-4.27.93-8.37 1.83-12.68 2.77 5.09 6.11 5.46 6.39.68 12.59-7.07 9.19-14.32 18.31-22.29 26.7-4.95 5.22-11.68 8.33-20.36 9.22 12.98-13.27 26.53-24.58 32.39-41.73.62-1.82.68-3.83.95-5.44-5.97-1.38-11.5-2.56-16.94-4.03-.67-.18-.94-1.87-1.73-3.58 7.17-.69 13.71-1.32 20.25-1.94 11.24-1.06 11.24-1.06 11.24-12.23 0-3.16 0-6.31 0-9.4-5.78-1.08-11.25-2.24-16.77-2.99-1.01-.14-2.43 1.3-3.37 2.29-4.24 4.45-8.26 9.11-12.61 13.45-1.32 1.32-3.45 1.82-6.23 3.21 3.87-8.62 7.37-15.74 10.26-23.09 2.51-6.39 4.02-12.92.16-19.66-1.79-3.12 1.61-6.28 5.78-5.31 2.7.63 5.38 1.82 7.73 3.31 6.35 4.03 6.91 8.01 2.4 14.06-1.08 1.45-2.04 2.98-3.81 5.58 5.95-.35 10.91-.64 16.44-.97.47-16.63 5.42-33.25-7.86-48.38 1.84-.58 3.91-1.98 5.58-1.61 4.81 1.09 9.62 2.54 14.14 4.51 6.49 2.82 7.34 5.85 5.7 12.7-2.26 9.46-4.01 19.05-6.19 29.55 6-1.74 10.52-3.09 15.07-4.34 1.26-.35 2.79-.9 3.88-.49 2.38.89 4.56 2.34 6.82 3.55-1.74 1.75-3.17 4.23-5.27 5.1-5.33 2.2-10.99 3.59-16.45 5.5-1.19.42-2.83 1.51-3.01 2.52-1.05 5.86-1.73 11.78-2.6 18.16 5.84-1.99 11-4.55 16.43-5.36 4.34-.64 9.1.47 13.47 1.59 1.53.39 2.47 3.11 3.68 4.77-1.74 1.05-3.35 2.56-5.24 3.05-6.24 1.62-12.57 2.87-20.33 4.59 7.08 6.65 3.81 13.94 3.45 21.07-.7 14.15 1.84 16.4 15.86 14.98 2.65-.27 5.29-.54 7.93-.87 9.75-1.22 13.88-5.28 15.97-16.1.91-4.7 1.4-9.48 2.09-14.23.29.04.57.09.86.14z"/><path d="m181.26 115.72c2.17-.41 4.34-.86 6.52-1.21 10.78-1.7 21.73-2.67 32.31-5.22 12.47-3 10.18-.33 10.87-13.48.18-3.47.56-6.92.85-10.44-7 0-13.84 0-21.05 0-4.61 9.89-11.86 17.66-24.12 22.39 9.82-15.36 21.67-29.02 11.78-47.6 4.4-2.09 16.83.3 18.98 4.29 1.01 1.87.6 4.82.09 7.11-.53 2.35-1.97 4.49-3.6 8 5.97-1.08 10.95-1.83 15.84-3.02.92-.22 2.03-2.17 2.01-3.31-.15-11.48-.25-22.97-1-34.41-.21-3.24-2.46-6.37-3.9-9.49-1.28-2.76-.92-5.34 2.46-4.29 5.74 1.8 11.28 4.41 16.62 7.2 3.66 1.91 3.49 5.24 2.4 9.1-2.04 7.16-3.51 14.5-4.89 21.83-.51 2.68-.08 5.55-.08 8.59 6.61-.82 13.23-4.29 19.67 2.7-3.18 1.73-5.75 3.32-8.47 4.54-2.1.94-4.37 1.66-6.64 2.06-3.99.7-5.32 3.27-5.71 6.9-.55 5.08-1.29 10.14-2.05 15.98 8.35-1.13 16.2-2.2 24.05-3.27.21.77.43 1.54.64 2.31-6.43 2.75-12.87 5.51-19.59 8.38 6.21 8.04-2.75 16.31-.23 25.02 7.08-3.98 14.15-7.96 21.22-11.93.27.37.54.75.81 1.12-4.65 5.32-9.41 10.54-13.91 15.98-4.51 5.46-8.76 11.14-13.13 16.72-.4.51-1.12 1.45-1.22 1.39-3.04-1.74-6.16-3.4-8.97-5.48-2.14-1.58-2.1-3.44-.51-5.99 2.13-3.4 3.89-7.28 4.71-11.19 1.18-5.65 1.5-11.51 1.92-17.3.14-1.86-.54-3.79-.93-6.26-4.67 1.5-8.69 2.79-13.47 4.32 1.32 1.1 2.1 1.79 2.93 2.43 2.47 1.9 3.03 3.7 1.12 6.72-8.39 13.26-16.51 26.82-30.3 35.24-5.02 3.07-11.05 4.48-17.26 5.69 14.08-13.58 30.83-24.79 33.28-47.32-11.71 5.01-21.23 2.11-29.96-4.95-.03.07-.09.15-.09.15z"/><path d="m175.46 259.1c-1.58-3.66-2.49-5.78-3.79-8.79-11.59 5.29-23.09 10.53-34.58 15.78-4.38-5.37-4.45-15.44-.48-20.69 8.7-11.49 14.05-24.37 15.19-38.83.4-5.06 1.98-6.11 6.66-3.89 1.62.77 3.17 1.84 4.49 3.05 5.22 4.79 5.02 5.91.06 11.05-2.49 2.58-4.54 5.67-6.36 8.78-3.19 5.44-6.07 11.06-9.06 16.63-1.63 3.04-3.2 6.1-5.4 10.28 9.68-2.7 18.19-5.07 27.07-7.55-1.65-3.48-3.08-6.28-4.3-9.17-.46-1.09-.98-3.09-.52-3.46 1.02-.8 2.76-1.36 4.01-1.08 8.5 1.85 15.49 14.3 12.39 22.36-.74 1.95-3.1 3.27-5.38 5.53z"/><path d="m181.37 311.57c10.31-5.9 21.06-11.17 30.79-17.91 7.68-5.32 14.35-12.21 20.96-18.9 2.28-2.31 3.47-6 4.35-9.28.83-3.09 2.68-4.35 4.89-2.81 5.65 3.93 11.09 8.23 16.17 12.87 1.54 1.4 1.55 4.02-1.48 5.61-8.78 4.63-17.65 9.2-25.96 14.6-12.85 8.34-26.39 14.64-41.6 16.96-2.76.42-5.63.06-8.45.06.11-.41.22-.81.33-1.2z"/><path d="m275.02 261.41c14.01 3.59 26.26 7.74 36.76 16.04 5.01 3.97 8.33 9.05 9.68 15.28.36 1.69.28 3.64-.19 5.3-1.94 6.95-5.58 8.28-10.6 3.3-11.23-11.13-22.12-22.61-33.04-34.06-1.1-1.15-1.4-3.07-2.61-5.86z"/></g><path d="m6.8 9.5c.6.3 1.3.7 2.1 1.1-.4.4-.7.8-.9 1.2-.7-.4-1.3-.8-1.8-1.1s-1.1-.6-1.6-.8c.2-.4.5-.8.7-1.2.4.2.8.5 1.5.8zm.9 6.9c-.3.6-.5 1.1-.7 1.7s-.4 1.1-.6 1.7c-.6-.4-1.1-.7-1.6-1 .7-1 1.2-1.8 1.5-2.4.3-.5.6-1.1.8-1.7.3-.6.5-1.2.8-1.8.3.3.8.6 1.3.8-.7 1.3-1.2 2.2-1.5 2.7zm.1-11c.4.3 1 .7 1.7 1.1-.5.2-.8.6-1.1 1.1-.5-.6-1-1-1.4-1.2s-.9-.6-1.5-.8c.2-.4.5-.7.9-1.1.5.3.9.6 1.4.9zm10.5 13c1 .4 2 .6 3.1.7-.4.4-.7.8-.8 1.3-.9-.2-1.9-.6-3-.9-1-.4-2-.9-2.8-1.6-.5.4-1.1.9-1.9 1.3s-1.9.9-3.3 1.2c-.1-.3-.5-.8-1.1-1.3 1 0 2.1-.3 3.2-.8 1.2-.5 1.9-1 2.3-1.7h-3.2c-.4 0-1 0-2 .1v-1.2c1 0 1.7.1 2 .1h3.3v-1h-2.3c-.2 0-.9 0-2 .1v-1.2c1.2 0 1.9.1 2 .1h2.3v-.8h-4.1c0-.7.1-1.2.1-1.6 0-.5 0-1.1-.1-1.8h4.1v-.6h-2.5c0-.6.1-1.1.1-1.6v-.6h-.5c-.4 0-1 0-1.8.1v-1.3c1.2 0 1.9.1 2.1.1h.2c0-.3 0-.8-.1-1.4h1.4c0 .6-.1 1-.1 1.4h3.4c0-.4 0-.8-.1-1.3h1.5c0 .4-.1.9-.1 1.3.7 0 1.5 0 2.5-.1v1.2c-1 0-1.8-.1-2.5-.1v.6c0 .3 0 .8.1 1.5h-2.5v.8h4.1c0 .7-.1 1.3-.1 1.8s0 1 .1 1.5h-4.1v.8h1.4c.8 0 1.8 0 2.9-.1v1.2c-1 0-1.9-.1-2.8-.1h-1.5v1h3.2c.3 0 1 0 2.1-.1v1.2c-1.1 0-1.8-.1-2.1-.1h-3.4l-.1.1c1.4 1 2.4 1.5 3.4 1.9zm-4.1-6.6v-1.3h-2.7v1.3zm2.2-4.1v-1.1h-3.4v1.1zm1.9 4.1v-1.3h-2.8v1.3z" fill="#fbfafc"/><path d="m37 6.7v2.3 5.4c1 0 1.8 0 2.2-.1v1.3c-.6 0-1.5-.1-2.5-.1h-11.9c-.7 0-1.3 0-1.8.1v-1.3c.5 0 1.1.1 2 .1v-5.2c0-1 0-1.8-.1-2.5h3.7c0-1.3 0-2.1-.1-2.5h1.5c0 .4-.1 1.3-.1 2.5h2.2c0-1.2 0-2.1-.1-2.6h1.5c0 .4-.1 1.3-.1 2.6zm-12.3 13.7c-.3-.4-.7-.8-1.1-1.1 1.1-.4 2.1-.9 2.9-1.3.8-.5 1.5-1 2.1-1.6.4.4.9.8 1.3 1.1-2.5 1.4-4.2 2.4-5.2 2.9zm3.9-10.1v-2.4h-2.2v2.4zm0 4.1v-2.9h-2.2v2.9zm3.5-4.1v-2.4h-2.2v2.4zm0 4.1v-2.9h-2.2v2.9zm.4 2.9 1-1.1c.6.3 1.4.7 2.5 1.3s2 1.1 2.7 1.5c-.4.4-.8.8-1.1 1.3-.8-.8-2.5-1.7-5.1-3zm3.1-7v-2.4h-2.1v2.4zm0 4.1v-2.9h-2.1v2.9z" fill="#fbfafc"/></svg>