<svg enable-background="new 0 0 400 400" viewBox="0 0 400 400" xmlns="http://www.w3.org/2000/svg"><g fill="#010105"><path d="m72.65 255.23c-5.63-2.98-5.8-7.72-6.67-11.99-4.42-21.6-8.34-43.31-13.3-64.79-1.68-7.28-5.92-13.97-8.95-20.94-.39-.89-.56-1.87-.92-3.07 6.29-2.54 11.79.17 17.43 1.75 1.82.51 3.85 1 5.64.69 10.78-1.86 21.55-3.86 32.26-6.08 1.69-.35 3.63-1.75 4.55-3.23 7.44-12.02 14.75-24.12 21.87-36.33 1.05-1.8.93-4.27 1.35-6.43-2.15-.41-4.28-1.03-6.44-1.19-5.1-.39-10.31-.07-15.29-1-3.39-.63-5.33-.31-7.7 2.37-16.41 18.68-35.35 34.25-57.49 45.76-.84.44-1.76.71-2.65 1.07-.4-.37-.81-.74-1.21-1.1 2.5-3 4.79-6.23 7.55-8.97 7.91-7.87 16.36-15.22 23.96-23.36 13.59-14.54 25.96-30.07 31.58-49.63 1.65-5.76 1.94-12.03 2.05-18.08.07-3.7 1.59-4.91 4.38-3.74 7.94 3.35 15.83 6.87 23.42 10.92 4.46 2.39 1.72 5.6-.41 8.24-5.74 7.12-11.6 14.14-17.24 21.33-1.91 2.44-3.32 5.28-5.49 8.81 10.71-.78 20.27-1.39 28.19-8.4 4.94-4.38 10.46-4.5 16.04-.8 5.55 3.67 11 7.49 16.38 11.41 1.38 1 2.31 2.61 3.44 3.94-1.51 1.19-2.84 2.97-4.55 3.47-23.76 6.88-37.69 26.19-54.53 41.82.22.45.43.9.65 1.34 10.78-2.36 22.28-3.13 32.12-7.58 7.35-3.33 12.43-3.06 18.5.74 5.02 3.15 10.2 6.07 15.1 9.39 2.41 1.64 2.83 4.33.57 6.44-7.06 6.59-8.42 15.55-10.61 24.24-4.34 17.19-8.87 34.32-13.36 51.47-.25.96-.72 1.86-1.13 2.77-2.87 6.4-4.29 6.5-9.47 1.97-1.7-1.48-4.75-2.42-6.99-2.12-16.29 2.2-32.48 5.08-48.79 7.11-6.54.81-12.45 1.08-12.84 9.59-.04.81-.7 1.56-1 2.19zm41.8-68.4c2.68-.79 3.92-1.29 5.21-1.51 5-.87 10.04-1.32 14.15 2.43 1.36 1.24 2.08 3.17 3.09 4.79-1.54.86-2.98 2.05-4.63 2.53-4.77 1.39-9.65 2.38-14.4 3.8-1.1.33-2.59 1.7-2.67 2.69-.69 8.41-1.09 16.84-1.57 25.21 9.34-.75 17.96-1.44 27.08-2.17-.15.39.06-.05.2-.51 6.1-21.05 7.1-42.81 8.84-64.45.38-4.69-1.95-7.04-6.6-6.55-9.46 1.01-18.86 2.56-29.98 4.13 6.18 3.46 5.03 7.34 4.03 11.63-1.3 5.59-1.78 11.36-2.75 17.98zm-46.13-20.96c2.83 23.49 5.55 46.13 8.27 68.71 8.12-1.45 16.08-2.88 23.98-4.29 0-9.84 0-19.39 0-28.97-14.97 1.47-20.43.39-23.84-4.97 6.23-1.42 12.25-3.39 18.41-4.03 5.18-.54 6.41-2.76 5.85-7.35-.3-2.46.05-4.99-.09-7.48-.32-5.69-.77-11.38-1.16-17.1-11.29 1.97-21.7 3.78-31.42 5.48z"/><path d="m265.54 192.15c4.11 3.24 7.36 5.76 10.55 8.33 3.26 2.63 3.71 5.95 2.74 9.89-.87 3.51-1.67 7.15-1.69 10.74-.15 31.16 0 62.31-.2 93.47-.09 14.08-4.57 26.38-16.21 35.35-6.06 4.67-8.43 4.03-11.16-3.24-4.12-10.98-11.33-19.89-19.4-28.16-3.11-3.19-6.49-6.1-9.75-9.14.29-.5.58-.99.87-1.49 1.24.29 2.47.58 3.71.88 7.56 1.83 15.05 4.07 22.71 5.38 7.32 1.26 10.32-1.76 10.92-9.1 2.51-30.78.62-61.51-.9-92.25-.24-4.74-1.71-9.44-2.72-14.13-.85-3.97-3.17-5.17-7.28-4.4-10.58 1.98-21.2 3.89-31.88 5.21-6.24.77-12.67.93-18.92.34-7-.66-11.99-5.12-16.37-11.83 4.89 0 9.09.45 13.16-.07 26.17-3.36 52.35-6.67 78.45-10.52 17.88-2.63 35.55-6.79 53.48-8.96 10.81-1.31 21.87.27 29.01 10.42 1.34 1.91 2.56 5.64 1.62 6.98-1.29 1.84-4.69 3.02-7.19 3.05-7.3.07-14.62-.95-21.92-.85-13.44.19-26.87.69-40.29 1.45-6.78.4-13.51 1.65-21.34 2.65z"/><path d="m308.5 144.61c.63-2.1 1-4.32 1.92-6.28 3.32-7.06 6.83-14.02 10.25-21.03.44-.89.99-1.85 1.03-2.79.16-3.84 1.36-8.37-.28-11.26-.96-1.69-6.72-1.62-10-.9-23.81 5.24-47.53 10.88-71.3 16.32-7.92 1.81-15.51.82-22.12-3.16-4.62 9.25-8.97 18.37-13.73 27.27-1.86 3.47-4.34 6.76-7.1 9.57-3.76 3.82-7.44 2.93-9.9-1.84-4.14-8.03-2.76-17.26 2.95-24.09 7.97-9.53 12.4-20.73 14.36-32.94.21-1.3.39-2.6.7-4.69 7.93 4.22 11.27 10.67 12.19 19.72 9.83-1.22 19.66-1.71 29.14-3.78 20.57-4.49 41.02-9.57 61.38-14.95 4.05-1.07 7.32-4.81 11.25-6.72 2.07-1 5.3-1.74 7.1-.82 12.36 6.29 23.88 13.92 33.23 24.31 1.53 1.7 2.65 5.15 1.95 7.07-.66 1.82-3.84 2.92-6.1 3.93-3.76 1.68-8.06 2.44-11.45 4.65-9.33 6.08-18.29 12.72-27.42 19.12-2.13 1.49-4.33 2.86-6.5 4.28-.5-.35-1.03-.67-1.55-.99z"/><path d="m245.04 42.41c15.24-1.95 33.53 8.47 36.27 21.05.88 4.03.62 8.68-.46 12.68-1.75 6.45-8.81 8.5-12.7 3.29-8.29-11.12-15.49-23.06-23.06-34.71-.36-.56-.05-1.55-.05-2.31z"/><path d="m52.61 264.9c1.53 1.7 2.82 2.64 3.45 3.91 6.84 13.88 7.05 28.09 1.49 42.38-1.97 5.07-4.42 9.99-6.94 14.82-2.03 3.9-4.11 4.12-6.65.55-4.99-7.02-7.99-14.09-3.17-22.95 5.96-10.97 9.48-22.92 10.95-35.4.1-.75.39-1.5.87-3.31z"/><path d="m80.21 269.17c8.03 3.75 15.26 8.61 19.57 16.89 3.56 6.84 1.13 13.35-2.33 19.37-2.79 4.85-7.52 4.09-9.8-1.92-3.1-8.18-5.51-16.63-7.99-25.03-.77-2.61-.8-5.43-1.17-8.15.57-.39 1.15-.78 1.72-1.16z"/><path d="m147.04 253.74c9.77 2.49 19.41 4.28 26.1 12.36 3.63 4.39 3.61 14.48.26 18.86-2.1 2.75-6.04 2.93-8.76.4-5.65-5.27-15.25-22.31-17.6-31.62z"/><path d="m136.97 285.76c-.69 2.57-1.36 6.36-2.76 9.86-1.69 4.24-5.28 4.62-7.27.55-4.65-9.49-8.95-19.18-12.88-29-1.6-3.99.13-5.75 3.75-5.19 8.26 1.29 19.33 14.34 19.16 23.78z"/></g><path d="m6.8 9.5c.6.3 1.3.7 2.1 1.1-.4.4-.7.8-.9 1.2-.7-.4-1.3-.8-1.8-1.1s-1.1-.6-1.6-.8c.2-.4.5-.8.7-1.2.4.2.8.5 1.5.8zm.9 6.9c-.3.6-.5 1.1-.7 1.7s-.4 1.1-.6 1.7c-.6-.4-1.1-.7-1.6-1 .7-1 1.2-1.8 1.5-2.4.3-.5.6-1.1.8-1.7.3-.6.5-1.2.8-1.8.3.3.8.6 1.3.8-.7 1.3-1.2 2.2-1.5 2.7zm.1-11c.4.3 1 .7 1.7 1.1-.5.2-.8.6-1.1 1.1-.5-.6-1-1-1.4-1.2s-.9-.6-1.5-.8c.2-.4.5-.7.9-1.1.5.3.9.6 1.4.9zm10.5 13c1 .4 2 .6 3.1.7-.4.4-.7.8-.8 1.3-.9-.2-1.9-.6-3-.9-1-.4-2-.9-2.8-1.6-.5.4-1.1.9-1.9 1.3s-1.9.9-3.3 1.2c-.1-.3-.5-.8-1.1-1.3 1 0 2.1-.3 3.2-.8 1.2-.5 1.9-1 2.3-1.7h-3.2c-.4 0-1 0-2 .1v-1.2c1 0 1.7.1 2 .1h3.3v-1h-2.3c-.2 0-.9 0-2 .1v-1.2c1.2 0 1.9.1 2 .1h2.3v-.8h-4.1c0-.7.1-1.2.1-1.6 0-.5 0-1.1-.1-1.8h4.1v-.6h-2.5c0-.6.1-1.1.1-1.6v-.6h-.5c-.4 0-1 0-1.8.1v-1.3c1.2 0 1.9.1 2.1.1h.2c0-.3 0-.8-.1-1.4h1.4c0 .6-.1 1-.1 1.4h3.4c0-.4 0-.8-.1-1.3h1.5c0 .4-.1.9-.1 1.3.7 0 1.5 0 2.5-.1v1.2c-1 0-1.8-.1-2.5-.1v.6c0 .3 0 .8.1 1.5h-2.5v.8h4.1c0 .7-.1 1.3-.1 1.8s0 1 .1 1.5h-4.1v.8h1.4c.8 0 1.8 0 2.9-.1v1.2c-1 0-1.9-.1-2.8-.1h-1.5v1h3.2c.3 0 1 0 2.1-.1v1.2c-1.1 0-1.8-.1-2.1-.1h-3.4l-.1.1c1.4 1 2.4 1.5 3.4 1.9zm-4.1-6.6v-1.3h-2.7v1.3zm2.2-4.1v-1.1h-3.4v1.1zm1.9 4.1v-1.3h-2.8v1.3z" fill="#fbfafc"/><path d="m37 6.7v2.3 5.4c1 0 1.8 0 2.2-.1v1.3c-.6 0-1.5-.1-2.5-.1h-11.9c-.7 0-1.3 0-1.8.1v-1.3c.5 0 1.1.1 2 .1v-5.2c0-1 0-1.8-.1-2.5h3.7c0-1.3 0-2.1-.1-2.5h1.5c0 .4-.1 1.3-.1 2.5h2.2c0-1.2 0-2.1-.1-2.6h1.5c0 .4-.1 1.3-.1 2.6zm-12.3 13.7c-.3-.4-.7-.8-1.1-1.1 1.1-.4 2.1-.9 2.9-1.3.8-.5 1.5-1 2.1-1.6.4.4.9.8 1.3 1.1-2.5 1.4-4.2 2.4-5.2 2.9zm3.9-10.1v-2.4h-2.2v2.4zm0 4.1v-2.9h-2.2v2.9zm3.5-4.1v-2.4h-2.2v2.4zm0 4.1v-2.9h-2.2v2.9zm.4 2.9 1-1.1c.6.3 1.4.7 2.5 1.3s2 1.1 2.7 1.5c-.4.4-.8.8-1.1 1.3-.8-.8-2.5-1.7-5.1-3zm3.1-7v-2.4h-2.1v2.4zm0 4.1v-2.9h-2.1v2.9z" fill="#fbfafc"/></svg>