<svg enable-background="new 0 0 400 400" viewBox="0 0 400 400" xmlns="http://www.w3.org/2000/svg"><g fill="#010105"><path d="m136.41 305.98c2.68.31 5.4.43 8.03.98 5.8 1.23 11.49 3.38 17.33 3.86 7.97.66 13.04-3.34 15.02-11.01 3.06-11.86 6.64-23.69 8.37-35.77 1.49-10.41 1.55-21.22.63-31.71-.8-9.18-5.65-12.21-14.92-11.09-15.81 1.9-31.57 4.21-47.34 6.42-4.27.6-8.67.97-12.69 2.35-3.48 1.2-7.37 3.02-9.56 5.77-3.14 3.94-6.13 3.47-9.43 1.47-3.39-2.05-6.32-5.08-4.75-9.45 4.3-11.96 5.02-24.31 4.94-36.84-.11-17.99-.21-35.99.04-53.98.16-11.32-1.76-22.13-5.85-32.65-3.16-8.12-2.02-9.56 6.83-9.39.67.01 1.4-.14 1.99.09 8.63 3.3 13.39-1.21 17.45-8.11 5.38-9.15 11.36-17.95 16.74-27.1 2.67-4.53 3.4-9.49 2-14.9-1.58-6.1 1.41-9.46 7.41-7.9 6.83 1.77 13.52 4.42 19.92 7.45 4.42 2.09 4.8 5.5 1.79 9.45-1.69 2.22-3.89 4.09-5.97 5.99-11.3 10.34-22.63 20.63-33.93 30.96-1.06.97-1.95 2.13-2.92 3.21.14.46.28.93.42 1.39 9.16-1.66 18.43-2.88 27.45-5.11 7.53-1.87 14.77-4.93 22.15-7.43 1.23-.42 2.66-1.12 3.79-.85 10.39 2.47 20.61 5.42 28.95 12.61 3.18 2.74 5.16 5.75 1.3 9.52-11.6 11.31-17.21 26.28-24.6 40.18-2.4 4.51-4.65 9.26-7.91 13.11-4.38 5.17-7.1 4.79-11.85.05-.7-.7-2.01-1.42-2.87-1.25-16.08 3.19-32.13 6.5-48.18 9.81-.28.06-.53.32-.92.57v24.43c9.94-2.27 19.54-4.6 29.19-6.64 11-2.33 22.02-4.54 33.09-6.5 1.95-.35 4.35.36 6.18 1.3 1.4.72 3.09 2.6 3.05 3.92-.03 1.33-1.8 3.37-3.21 3.79-6.5 1.97-13.09 3.66-19.72 5.12-15.89 3.49-31.84 6.62-48.52 4.9v26.13c6.12-.89 12.13-1.51 18.05-2.67 18.38-3.6 36.66-7.79 55.12-10.97 11.84-2.04 22.66 1.84 32.2 9.01 3.56 2.68 4.25 5.59 1.29 9.75-5.46 7.66-6.34 16.94-7.87 25.96-3.21 18.96-6.24 37.98-10.24 56.78-1.9 8.92-6.25 17.23-13.23 23.6-2.29 2.09-4.99 4-7.84 5.15-6.37 2.57-6.72 1.22-10.87-4.22-6.29-8.26-13.9-15.51-21.02-23.13-1.53-1.64-3.34-3.02-5.03-4.52.17-.66.34-1.28.52-1.89zm-30.04-146.72c5.11-1.09 9.65-1.93 14.13-3.04 11.42-2.82 22.83-5.68 34.18-8.74 1.32-.36 2.74-1.9 3.31-3.23 4.8-11.29 9.76-22.52 13.96-34.04 3.25-8.9-1.79-14.19-11.36-12.82-8.7 1.25-17.43 2.35-26.1 3.77-9.42 1.54-18.79 3.38-28 5.06v21.97c1.62-.31 2.91-.47 4.16-.81 9.93-2.65 19.75-5.89 29.83-7.77 4.54-.85 9.61.81 14.36 1.73.94.18 1.99 2.2 2.07 3.44.05.74-1.56 2.04-2.63 2.33-6.55 1.79-13.1 3.74-19.77 4.91-9.25 1.63-18.62 2.62-28.12 3.91-.02 7.48-.02 14.92-.02 23.33z"/><path d="m248.47 141.82c15.78.21 30.41-4.14 44.8-9.36 7.49-2.71 14.66-6.29 22.14-9.01 3.11-1.13 6.78-1.87 9.98-1.38 11.87 1.79 22.07 7.11 30.32 15.98 2.16 2.33 3.01 4.19.43 7.13-8.79 10.07-12.36 21.72-12.3 35.32.1 25.28-.23 50.64-2.13 75.83-1.4 18.45-5.08 36.79-8.7 54.99-3.13 15.75-13.37 27.31-25.64 36.95-9.4 7.38-16.79 4.84-20.45-6.49-3.21-9.91-10.13-17-17.67-23.66-1.87-1.65-3.71-3.35-5.3-5.25-.59-.7-.41-2.04-.58-3.09.92-.12 1.91-.51 2.76-.31 6.29 1.52 12.6 3 18.82 4.79 13.71 3.95 22.86-.08 26.58-13.8 3.94-14.52 7.56-29.36 9.04-44.28 2.6-26.28 3.79-52.71 4.84-79.11.34-8.53-1.08-17.24-2.63-25.69-1.74-9.53-4.91-11.18-14.3-9.63-18.51 3.06-37.04 6.03-55.56 9.02-.98.16-2.1.48-2.96.17-6.09-2.16-8.74 1.84-11.81 5.94-8.17 10.93-16.48 21.76-25.06 32.36-3.57 4.41-7.74 8.47-13.41 10.1-.53-.33-1.06-.67-1.58-1 1.23-3.24 2.02-6.75 3.78-9.68 5.74-9.54 12.11-18.72 17.75-28.32 16.24-27.68 28.82-57.03 36.73-88.09 2.28-8.97.28-19.05.13-28.62-.02-1.62-.56-3.24-.89-4.97 5.17-2.98 10.14-1.64 15 .09 9.07 3.22 15.9 9.63 22.08 16.63 1.12 1.27.86 4.91-.13 6.68-4.47 7.96-9.79 15.45-14.16 23.46-10.08 18.5-19.79 37.18-29.92 56.3z"/><path d="m310.21 219.24c-1.93 2.15-2.97 3.64-4.32 4.75-23.01 19.12-45.96 38.3-69.14 57.22-7.12 5.81-11.07 5.43-17.89-.82-3.41-3.14-6.47-6.7-9.43-10.28-2.43-2.93-.66-5.66 4.3-7.07 4.91-1.4 9.99-2.42 14.7-4.33 23.13-9.43 45.44-20.37 65.2-35.99 4.3-3.41 9.34-6.33 16.58-3.48z"/><path d="m276.26 204.27c-.44 8.1-3.95 12.75-9.02 14.77-2.72 1.08-7.46-.76-10.36-2.68-9.62-6.36-15.01-16.23-19.94-26.29-1.92-3.91.58-6.31 3.85-5.86 10.77 1.5 21.95 2.71 30.08 11.09 2.72 2.81 4.16 6.87 5.39 8.97z"/><path d="m56.65 249.38c7.75 6.55 8.07 14.86 7.23 23.2-.56 5.57-1.74 11.19-3.58 16.47-1.07 3.07-3.53 6.06-6.14 8.09-4.61 3.59-10.14.97-10.05-4.88.08-5.19 1.15-10.49 2.59-15.51 2.42-8.4 5.48-16.62 8.32-24.89.27-.73.87-1.34 1.63-2.48z"/><path d="m98.27 277.51c-.86 1.78-2.01 5.68-4.42 8.52-1.32 1.56-4.97 2.15-7.16 1.59-1.41-.36-2.72-3.55-2.95-5.6-.84-7.38-1.37-14.81-1.62-22.23-.06-1.86.91-4.44 2.31-5.42.94-.66 3.81.47 5.19 1.58 6.13 4.93 7.99 11.89 8.65 21.56z"/><path d="m128.56 266.01c-.32 1.79-.32 3.54-.96 5.01-1.52 3.53-3.27 7.29-7.96 6.96-4.37-.31-5.27-4-5.9-7.48-1-5.52-2.08-11.04-2.56-16.62-.15-1.76 1-4.55 2.39-5.28 1.37-.72 4.45-.07 5.64 1.12 4.57 4.53 8.74 9.51 9.35 16.29z"/><path d="m163.72 259.79c-.54 2.07-.48 4.32-1.57 5.46-2.14 2.24-4.92 3.87-7.44 5.76-1.6-2.32-3.98-4.44-4.65-7.01-1.59-6.07-2.5-12.33-3.43-18.56-.54-3.62 2.11-5.61 5.07-3.65 6.51 4.31 10.09 10.7 12.02 18z"/></g><path d="m6.8 9.5c.6.3 1.3.7 2.1 1.1-.4.4-.7.8-.9 1.2-.7-.4-1.3-.8-1.8-1.1s-1.1-.6-1.6-.8c.2-.4.5-.8.7-1.2.4.2.8.5 1.5.8zm.9 6.9c-.3.6-.5 1.1-.7 1.7s-.4 1.1-.6 1.7c-.6-.4-1.1-.7-1.6-1 .7-1 1.2-1.8 1.5-2.4.3-.5.6-1.1.8-1.7.3-.6.5-1.2.8-1.8.3.3.8.6 1.3.8-.7 1.3-1.2 2.2-1.5 2.7zm.1-11c.4.3 1 .7 1.7 1.1-.5.2-.8.6-1.1 1.1-.5-.6-1-1-1.4-1.2s-.9-.6-1.5-.8c.2-.4.5-.7.9-1.1.5.3.9.6 1.4.9zm10.5 13c1 .4 2 .6 3.1.7-.4.4-.7.8-.8 1.3-.9-.2-1.9-.6-3-.9-1-.4-2-.9-2.8-1.6-.5.4-1.1.9-1.9 1.3s-1.9.9-3.3 1.2c-.1-.3-.5-.8-1.1-1.3 1 0 2.1-.3 3.2-.8 1.2-.5 1.9-1 2.3-1.7h-3.2c-.4 0-1 0-2 .1v-1.2c1 0 1.7.1 2 .1h3.3v-1h-2.3c-.2 0-.9 0-2 .1v-1.2c1.2 0 1.9.1 2 .1h2.3v-.8h-4.1c0-.7.1-1.2.1-1.6 0-.5 0-1.1-.1-1.8h4.1v-.6h-2.5c0-.6.1-1.1.1-1.6v-.6h-.5c-.4 0-1 0-1.8.1v-1.3c1.2 0 1.9.1 2.1.1h.2c0-.3 0-.8-.1-1.4h1.4c0 .6-.1 1-.1 1.4h3.4c0-.4 0-.8-.1-1.3h1.5c0 .4-.1.9-.1 1.3.7 0 1.5 0 2.5-.1v1.2c-1 0-1.8-.1-2.5-.1v.6c0 .3 0 .8.1 1.5h-2.5v.8h4.1c0 .7-.1 1.3-.1 1.8s0 1 .1 1.5h-4.1v.8h1.4c.8 0 1.8 0 2.9-.1v1.2c-1 0-1.9-.1-2.8-.1h-1.5v1h3.2c.3 0 1 0 2.1-.1v1.2c-1.1 0-1.8-.1-2.1-.1h-3.4l-.1.1c1.4 1 2.4 1.5 3.4 1.9zm-4.1-6.6v-1.3h-2.7v1.3zm2.2-4.1v-1.1h-3.4v1.1zm1.9 4.1v-1.3h-2.8v1.3z" fill="#fbfafc"/><path d="m37 6.7v2.3 5.4c1 0 1.8 0 2.2-.1v1.3c-.6 0-1.5-.1-2.5-.1h-11.9c-.7 0-1.3 0-1.8.1v-1.3c.5 0 1.1.1 2 .1v-5.2c0-1 0-1.8-.1-2.5h3.7c0-1.3 0-2.1-.1-2.5h1.5c0 .4-.1 1.3-.1 2.5h2.2c0-1.2 0-2.1-.1-2.6h1.5c0 .4-.1 1.3-.1 2.6zm-12.3 13.7c-.3-.4-.7-.8-1.1-1.1 1.1-.4 2.1-.9 2.9-1.3.8-.5 1.5-1 2.1-1.6.4.4.9.8 1.3 1.1-2.5 1.4-4.2 2.4-5.2 2.9zm3.9-10.1v-2.4h-2.2v2.4zm0 4.1v-2.9h-2.2v2.9zm3.5-4.1v-2.4h-2.2v2.4zm0 4.1v-2.9h-2.2v2.9zm.4 2.9 1-1.1c.6.3 1.4.7 2.5 1.3s2 1.1 2.7 1.5c-.4.4-.8.8-1.1 1.3-.8-.8-2.5-1.7-5.1-3zm3.1-7v-2.4h-2.1v2.4zm0 4.1v-2.9h-2.1v2.9z" fill="#fbfafc"/></svg>