<svg enable-background="new 0 0 400 400" viewBox="0 0 400 400" xmlns="http://www.w3.org/2000/svg"><path d="m2.6 9.9.8-1c.9.7 1.9 1.4 2.9 2.3l-.9 1.1c-1.1-1-2-1.8-2.8-2.4zm.5 10.6c.9-2.1 1.6-4.3 2.3-6.7.4.2.8.4 1.3.6-.7 2.1-1.5 4.3-2.2 6.6zm.3-15.2.9-.9c1 .8 2 1.6 2.8 2.4l-1 1c-.9-.9-1.8-1.7-2.7-2.5zm12.6-1.2h1.2v1.4h2.7v1.1h-2.7v2.7h-1.2v-.6h-1.8v1.3h4.9v3.8h-1.2v-.5h-3.7c0 .4-.1.9-.1 1.2h5.1v1h-5.2c0 .5-.1.9-.2 1.2h6v1h-5.2c1.1 1.3 2.9 2 5.5 2.2-.4.4-.7.8-.9 1.3-2.9-.5-4.8-1.6-5.7-3.5h-.1c-.8 1.7-2.7 2.9-5.9 3.6-.2-.4-.6-.8-.9-1.1 2.8-.6 4.6-1.4 5.4-2.5h-4.8v-1h5.3c.1-.3.2-.7.2-1.2h-4.9v-1h5c0-.4 0-.8.1-1.2h-3.6v.5h-1.2v-3.8h4.9v-1.3h-1.8v.5h-1.2v-2.7h-2.7v-1h2.7v-1.4h1.2v1.4h4.8zm-6.7 8.3h3.6c0-.4 0-.9 0-1.4h-3.6zm1.9-4.6h4.8v-1.3h-4.7v1.3zm6.7 3.2h-3.7v1.4h3.7z" fill="#fbfcfa"/><path d="m8.7 22.1h1.3v2.2h2.8v-2.2h1.3v2.2h4.1v9.1h1.7v1.3h-17v-1.3h1.7v-9.1h4.1zm.3 13.1.7 1.2c-1.8.9-3.8 1.9-6 2.9-.2-.4-.5-.8-.8-1.3 2.3-1 4.4-1.9 6.1-2.8zm-3.1-6.4h2.8v-3.2h-2.8zm0 4.6h2.8v-3.3h-2.8zm4.1-4.6h2.8v-3.2h-2.8zm0 4.6h2.8v-3.3h-2.8zm3.6 1.9c2.1.9 4.1 1.8 6.1 2.7l-.7 1.4c-2.2-1.1-4.2-2-6.1-2.9zm3.2-9.7h-2.8v3.2h2.8zm-2.7 7.8h2.8v-3.3h-2.8z" fill="#fbfcfa"/><g fill="#010104"><path d="m275.56 106.32c13.42-4.02 27.53-6.1 39.47-14.3 3.37-2.31 6.74-3.07 10.15-.71 7.2 4.97 14.32 10.05 21.31 15.3 2.24 1.68 2.36 4.19-.25 5.79-7.28 4.47-10.5 11.6-13.25 19.19-3.5 9.68-7.2 19.3-10.95 28.89-.77 1.98-1.98 3.86-3.28 5.56-5.16 6.79-6.45 6.84-12.98 1.4-.97-.81-2.68-1.23-3.96-1.07-11.51 1.38-22.99 2.93-34.97 4.5v25.83c12.77-2.73 25.54-5.22 38.16-8.27 6.25-1.51 12.33-3.09 18.46-.26 1.6.74 2.72 2.54 4.06 3.85-1.52 1.38-2.83 3.57-4.58 4-9.49 2.33-19.05 4.45-28.66 6.19-8.97 1.62-18.05 3.14-27.65-.93-.64 9.72-1.25 19.04-1.92 29.26 9.78-1.75 18.79-2.88 27.55-5.05 14.61-3.62 29-8.06 43.57-11.83 6.77-1.75 13.4-.06 18.86 4.02 5.15 3.84 9.67 8.58 14.14 13.23.82.85.78 3.72-.02 4.75-6.44 8.29-8.12 17.95-8.83 28.01-1.24 17.39-2.4 34.85-7.92 51.53-3.85 11.63-7.4 23.54-15.37 33.27-1.95 2.38-4.5 4.48-7.17 6.02-5.48 3.16-7.16 2.16-10.35-3.41-6.25-10.89-15.43-19.08-25.45-26.42-1.78-1.31-3.28-3-4.91-4.51.21-.48.42-.96.63-1.43 3.09.52 6.17 1.26 9.28 1.53 8.03.7 16.08 1.51 24.12 1.52 1.89 0 4.65-2.62 5.53-4.67 8.18-18.94 11.82-38.99 13.47-59.41.52-6.41.68-12.97-.11-19.32-.98-7.89-5.35-10.79-13.31-9.41-14.68 2.56-29.26 5.73-43.97 8.13-6.12 1-12.47.56-18.68 1.08-1.46.12-2.87 1.38-4.19 2.29-.47.32-.5 1.23-.88 1.76-1.72 2.38-3.5 4.72-5.25 7.07-1.85-2.54-4.95-4.92-5.3-7.66-.78-5.94-.47-12.09-.04-18.11.68-9.58 2.33-19.1 2.68-28.68.67-18.46.91-36.94.93-55.41.01-6.44-.88-12.92-1.88-19.3-.45-2.83-2.47-5.39-3.23-8.22-.47-1.72-.45-4.05.41-5.46.48-.79 3.15-.52 4.77-.28 1.61.23 3.11 1.16 4.71 1.53 3.54.83 6.15.17 8.12-3.56 6.91-13.02 15.26-25.41 17.53-40.4.46-3.02.25-6.24-.2-9.29-.65-4.4.43-6.08 4.89-5.71 8.35.69 15.79 3.85 22.19 9.22 3.18 2.66 2.7 5.12-.44 8.4-12.13 12.7-24.13 25.53-36.17 38.31.37.55.75 1.1 1.13 1.65zm-7.13 28.06c5.46-1.99 10.3-4.24 15.4-5.49 5.72-1.41 11.65-2.17 17.53-2.65 1.48-.12 4.17 1.66 4.42 2.93.26 1.34-1.39 3.72-2.84 4.57-3.12 1.82-6.52 3.52-10.02 4.25-8.05 1.69-16.22 2.77-24.47 4.12v20.89c6.5-1.47 12.57-3.27 18.76-4.12 6.3-.86 12.74-.77 19.79-1.13-.54.5-.35.41-.31.27 3.74-14.25 7.61-28.47 11.11-42.77.89-3.62-1.22-6.82-4.76-7.78-3.25-.88-6.97-1.34-10.21-.66-11.94 2.53-23.77 5.61-35.63 8.48.41 6.34.79 12.28 1.23 19.09z"/><path d="m116.34 92.49c8.62 3.01 16.28 5.23 23.55 8.35 8.16 3.5 11.41 14.55 6.75 22.07-.75 1.21-3.84 2.1-5.18 1.54-1.97-.82-3.34-3.06-4.95-4.72-7.24-7.48-14.46-14.96-22.18-22.95-11.87 21.9-23.07 42.57-34.32 63.35 1.27-.46 2.88-1.08 4.51-1.62 14.14-4.67 28.2-9.57 42.47-13.81 3.2-.95 7.19.06 10.63.91 1.83.45 4.77 2.88 4.56 3.77-.52 2.12-2.23 4.67-4.15 5.57-5.22 2.46-10.77 4.26-16.26 6.12-2.82.96-5.77 1.49-9.07 2.31 5.56 9.77-.44 19.79 1.09 29.83 6.49-1.55 12.96-3.13 19.46-4.62 1.6-.37 3.39-.95 4.86-.55 2.48.67 4.77 2.03 7.14 3.1-1.6 2.3-2.69 5.63-4.89 6.73-8.42 4.18-17.2 7.65-27.2 11.97v63.6c9.35-3.17 19.37-6.56 29.39-9.95.78-.26 1.63-.72 2.38-.61 1.69.23 3.34.75 5.01 1.16-1 1.59-1.62 3.88-3.06 4.64-6.01 3.19-12.43 5.63-18.39 8.89-17.03 9.33-33.9 18.96-50.87 28.42-5.51 3.07-11.2 4.41-16.73.16-4.08-3.14-8.05-6.44-11.8-9.96-1.03-.97-1.81-3.21-1.39-4.4.34-.96 2.65-1.69 4.11-1.72 16.45-.38 31.58-5.84 46.49-12.07 1.16-.49 2.52-2.29 2.53-3.49.16-20.3.11-40.6.11-61.28-12.72-1.1-25.63 3.84-39.09-2.96 3.25-.74 5.26-1.06 7.18-1.67 9.94-3.16 19.87-6.35 29.75-9.7.92-.31 2.1-1.8 2.05-2.69-.48-8.95-1.19-17.88-1.84-26.82-.21-2.84-1.77-3.15-4.43-3.13-6.2.03-12.41-.73-18.62-.8-1.42-.02-3.16 1.17-4.25 2.29-11.12 11.46-22.09 23.04-33.2 34.51-1.6 1.65-3.59 2.98-5.58 4.16-.84.49-2.15.19-3.24.24 0-1.22-.47-2.76.1-3.6 1.76-2.6 3.86-4.99 5.92-7.38 27.22-31.48 48.88-66.37 63.77-105.28 2.75-7.18 3.92-15 5.35-22.61.43-2.28-1.04-4.86-1.04-7.3 0-1.61.65-3.68 1.77-4.69.73-.66 3.22-.28 4.27.51 5.19 3.84 10.26 7.85 15.17 12.05 3.02 2.59 2.74 5.46.46 8.81-3.34 4.9-6.09 10.18-9.1 15.32z"/><path d="m160.5 114.79c3.8.47 7.76.4 11.36 1.52 12.36 3.84 23.63.71 33.56-6.16 6.55-4.54 11.96-3.42 18.01-.49 1.33.65 2.57 1.55 3.74 2.48 6.44 5.14 6.76 5.98 4.13 13.91-4.93 14.89-5.58 30.38-6.03 45.79-.73 24.96-.78 49.95-1.11 74.92-.02 1.61 0 3.21 0 5.21 6.66-1.66 12.42-6.35 20.2-2.59-1.72 1.57-2.71 2.87-4.01 3.6-22.96 12.75-45.96 25.43-68.96 38.12-1.31.72-2.8 1.19-3.97 2.09-8.17 6.23-16.26 3.64-24.13-.41-1.89-.97-2.99-3.49-4.45-5.3 1.69-1.34 3.18-3.17 5.1-3.94 5.53-2.21 11.19-4.12 16.87-5.91 3.52-1.1 4.18-3.32 4.17-6.73-.11-40.16-.19-80.32 0-120.48.06-11.77 1.14-23.56-5.43-34.39.33-.41.64-.82.95-1.24zm17.51 156.29c10.47-4.76 20.44-9.21 30.3-13.89.93-.44 1.61-2.32 1.68-3.57.63-11.78 1.43-23.57 1.54-35.36.28-29.32.24-58.64.28-87.96.01-5.07-2.65-7.69-7.52-6.75-8.74 1.69-17.38 3.89-26.12 5.9v38.08c5.68-1.31 11.09-2.92 16.62-3.62 1.91-.24 4.11 1.76 6.18 2.74-1.4 2.17-2.6 4.52-4.29 6.44-.72.82-2.47.74-3.76 1.06-4.95 1.2-9.9 2.39-14.42 3.48v35.46c6.26-4.35 12.34-7.46 19.54-5.31 1.95.58 3.49 2.52 5.23 3.84-1.54 1.7-2.77 4.2-4.69 4.94-5.71 2.2-11.73 3.6-17.54 5.57-1.21.41-2.9 1.92-2.91 2.94-.18 15.1-.12 30.23-.12 46.01z"/><path d="m249.54 265.82c3.35 3.85 5.34 8.76 4.17 13.51-2.27 9.28-5.65 18.29-8.78 27.33-.46 1.34-2.22 3.28-3.17 3.17-1.47-.18-3.4-1.58-4.03-2.97-3.24-7.09-3.86-14.11.64-21.2 3.95-6.23 7.27-12.85 11.17-19.84z"/><path d="m62.78 229.38c9.12 3.49 16.11 8.42 22.04 14.75 3.77 4.03 2.32 17.59-2.1 20.75-.82.59-3.53.17-4.02-.63-6.63-10.61-13.27-21.26-15.92-34.87z"/><path d="m124.09 253.5c.34-1.38.31-3.03 1.08-4.11 6.45-9.2 10.5-19.19 10.77-30.54.08-3.21 1.88-3.57 4.35-2.52.9.38 1.68 1.06 2.47 1.67 12.27 9.52 12.28 11.44.32 21.36-4.73 3.93-9.37 7.97-14.08 11.93-1.2 1.01-2.49 1.92-3.74 2.88-.38-.23-.77-.45-1.17-.67z"/><path d="m286.84 256.84c4.06 2.51 8.38 4.7 12.13 7.61 6.71 5.21 8.33 14.32 3.97 20.94-.93 1.42-2.7 3.13-4.1 3.15-1.21.02-2.99-1.97-3.58-3.44-3.58-9-6.89-18.1-10.3-27.17.63-.36 1.26-.73 1.88-1.09z"/><path d="m313.06 251.93c4.96 3.09 10.34 5.68 14.77 9.39 5.06 4.24 5.73 11.78 2.66 17.37-1.79 3.27-5.94 3.81-7.49.65-4.14-8.42-7.92-17.01-11.85-25.54.64-.62 1.27-1.25 1.91-1.87z"/><path d="m272.62 294.7c-3.39-10.82-6.61-21.08-10.08-32.15 9.26 2.09 16.5 9.63 17.48 16.84.92 6.75-1.23 12.21-7.4 15.31z"/></g></svg>