<svg enable-background="new 0 0 400 400" viewBox="0 0 400 400" xmlns="http://www.w3.org/2000/svg"><path d="m2.6 9.9.8-1c.9.7 1.9 1.4 2.9 2.3l-.9 1.1c-1.1-1-2-1.8-2.8-2.4zm.5 10.6c.9-2.1 1.6-4.3 2.3-6.7.4.2.8.4 1.3.6-.7 2.1-1.5 4.3-2.2 6.6zm.3-15.2.9-.9c1 .8 2 1.6 2.8 2.4l-1 1c-.9-.9-1.8-1.7-2.7-2.5zm12.6-1.2h1.2v1.4h2.7v1.1h-2.7v2.7h-1.2v-.6h-1.8v1.3h4.9v3.8h-1.2v-.5h-3.7c0 .4-.1.9-.1 1.2h5.1v1h-5.2c0 .5-.1.9-.2 1.2h6v1h-5.2c1.1 1.3 2.9 2 5.5 2.2-.4.4-.7.8-.9 1.3-2.9-.5-4.8-1.6-5.7-3.5h-.1c-.8 1.7-2.7 2.9-5.9 3.6-.2-.4-.6-.8-.9-1.1 2.8-.6 4.6-1.4 5.4-2.5h-4.8v-1h5.3c.1-.3.2-.7.2-1.2h-4.9v-1h5c0-.4 0-.8.1-1.2h-3.6v.5h-1.2v-3.8h4.9v-1.3h-1.8v.5h-1.2v-2.7h-2.7v-1h2.7v-1.4h1.2v1.4h4.8zm-6.7 8.3h3.6c0-.4 0-.9 0-1.4h-3.6zm1.9-4.6h4.8v-1.3h-4.7v1.3zm6.7 3.2h-3.7v1.4h3.7z" fill="#fbfcfa"/><path d="m8.7 22.1h1.3v2.2h2.8v-2.2h1.3v2.2h4.1v9.1h1.7v1.3h-17v-1.3h1.7v-9.1h4.1zm.3 13.1.7 1.2c-1.8.9-3.8 1.9-6 2.9-.2-.4-.5-.8-.8-1.3 2.3-1 4.4-1.9 6.1-2.8zm-3.1-6.4h2.8v-3.2h-2.8zm0 4.6h2.8v-3.3h-2.8zm4.1-4.6h2.8v-3.2h-2.8zm0 4.6h2.8v-3.3h-2.8zm3.6 1.9c2.1.9 4.1 1.8 6.1 2.7l-.7 1.4c-2.2-1.1-4.2-2-6.1-2.9zm3.2-9.7h-2.8v3.2h2.8zm-2.7 7.8h2.8v-3.3h-2.8z" fill="#fbfcfa"/><g fill="#010104"><path d="m235.09 253.2c-9.49 2.26-19.23 3.79-28.4 6.98-9.86 3.43-19.01 4.47-28.8-2.56-2.74 12.39-5.57 23.78-7.66 35.3-1.06 5.83-.43 11.96-1.25 17.86-.39 2.78-1.85 6.86-3.82 7.56-2 .72-5.85-1.38-7.81-3.32-6.82-6.75-9.19-15.82-10.27-24.88-2.18-18.29-3.63-36.67-5.22-55.02-1.13-13.07-1.76-26.19-3.14-39.23-.42-4.01-2.78-7.77-3.81-11.77-.53-2.05-.92-5.6.09-6.28 1.9-1.27 5.68-2.13 7.24-1.06 5.4 3.7 10.47 8.03 15.03 12.72 1.45 1.49 1.84 5.17 1.17 7.37-5.26 17.15-6.35 34.58-4.46 52.3 1.07 10.07 2.09 20.16 3.29 30.21.26 2.17 1.2 4.26 2.3 7.99 2.42-3.06 4.22-4.73 5.27-6.79 2.62-5.18 4.83-10.57 7.35-15.8 1.14-2.37 2.62-4.57 3.9-6.87.43-.77 1.24-1.89.98-2.37-1.9-3.6 0-4.17 3.07-4.66 18.35-2.9 36.68-5.96 55.02-8.97 12.81-2.11 12.8-2.12 12.8-15.04 0-3.48 0-6.97 0-11.33-4.42 1.11-8.36 2.03-12.26 3.09-2.72.74-5.49 1.44-8.07 2.54-7.98 3.41-14.92.6-21.62-3.46-1.28-.78-2.1-2.31-3.14-3.5 1.48-.84 2.88-2.19 4.46-2.44 11.14-1.75 22.3-3.38 33.48-4.83 4.47-.58 7-2.22 6.18-7.25-.93-5.79-1.58-11.63-2.36-17.59-18.06 4.35-34.82 12.76-51.62 2.18-.1-1.01-.2-2.02-.29-3.03 5.38-1.1 10.75-2.24 16.13-3.28 16.29-3.15 32.59-6.21 48.86-9.45 1.64-.33 3.59-1.28 4.52-2.58 7.61-10.55 14.35-21.58 17.24-34.5.25-1.13.39-2.29.44-3.45.03-.79-.18-1.59-.33-2.75-17.56 2.84-34.85 5.64-52.32 8.47 4.59 5.05 9.05 9.65 13.16 14.55 4.23 5.03 3.5 10.97 1.57 16.54-.64 1.84-3.55 4.18-5.27 4.06-2.52-.17-6.13-1.76-7.11-3.79-2.81-5.77-4.4-12.12-6.69-18.16-4.06-10.73-5.13-11.24-16.04-8.02-3.02.89-6.13 1.72-8.88 3.17-7.2 3.79-13.19.62-18.86-3.21-1.57-1.06-1.97-3.87-2.9-5.88 1.66-.71 3.26-1.76 4.99-2.08 17.31-3.16 34.65-6.2 51.98-9.3.46-.08.88-.45 1.76-.92-1.34-18.86-1.7-38.02-8.23-56.24-1.37-3.83-4.98-6.81-7.18-10.42-1.18-1.94-1.57-4.37-2.32-6.58 2.12-.11 4.63-1.01 6.3-.19 6.85 3.34 13.49 7.13 20.12 10.9 3.07 1.75 3.54 4.35 3.28 8.01-.76 10.74-.83 21.54-1.02 32.32-.13 7.31-.03 14.62-.03 22.84 7.4-1.53 14.14-2.81 20.81-4.44.92-.22 1.97-2.1 2.04-3.26 1.16-20.25 2.33-40.51 3.12-60.78.24-6.24.22-12.7-4.48-17.93-.64-.72-.65-2.81-.07-3.61.59-.8 2.6-1.4 3.47-.99 6.43 3.05 12.94 6.04 18.94 9.82 1.73 1.09 3.01 4.94 2.57 7.13-2.92 14.45-6.47 28.78-9.59 43.19-1.71 7.9-2.99 15.9-4.64 24.8 7.57-1.73 14.44-3.23 21.27-4.88 10.32-2.5 20.69-3.66 30.96-.25 3.14 1.04 6.19 3.08 8.61 5.38 2.28 2.17 1.42 4.82-1.7 5.74-3.16.93-6.46 1.61-9.74 1.84-12.09.85-24.2 1.46-37.02 2.2 2.34 3.27 4.49 6.09 6.43 9.04 1.96 3 1.67 5.47-1.05 8.35-7.86 8.33-15.3 17.05-22.91 25.61-.47-.32-.93-.65-1.4-.97 5.51-1.6 11.01-3.23 16.53-4.78 3.36-.94 6.83-1.54 10.12-2.66 5.46-1.86 9.77.71 13.81 3.58 1.29.92 2.36 3.52 2.02 5-.34 1.46-2.44 3.3-4.02 3.57-10.96 1.89-21.99 3.39-32.99 5.06-6.98 1.06-13.96 2.19-22.41 3.52 9.66 5.6 7.22 14.26 7.64 22.78 9.02-2.36 17.37-4.39 25.62-6.76 6.78-1.95 12.91-.99 18.18 3.6 1.43 1.24 1.89 3.59 2.79 5.43-1.88.83-3.69 2.16-5.65 2.43-13.94 1.91-27.92 3.61-41.95 5.38v22.82c6.81-.99 13.48-1.69 20.04-2.98 10.58-2.09 21.04-4.75 31.63-6.82 9.16-1.79 17.89-.79 25.4 5.53 2.71 2.28 4.32 5.39 2.51 8.29-1.04 1.67-4.51 2.83-6.73 2.61-22.42-2.23-44.36 1.86-67.85 4.54 28.93 32.49 58.71 61.82 101.56 73.86-.27.62-.53 1.25-.8 1.87-1.81.58-3.61 1.6-5.45 1.66-14.8.52-29.6.92-44.4 1.2-4.2.08-7.36-1.68-9.93-5.43-13.26-19.35-26.79-38.52-40.24-57.73-1.61-2.3-3.36-4.49-5.63-7.52-.14 2.23-.3 3.61-.31 4.99-.02 20.66.17 41.33-.1 61.99-.11 8.62-.88 17.27-1.97 25.82-.61 4.79-1.65 9.98-8.06 11.91-5.09-8.96-10.07-17.2-7.26-28.7 5.51-22.62 4.55-45.85 4.2-70.13-4.12 6.35-7.53 11.91-11.24 17.27-17.33 25.01-40.12 43.33-68.11 55.18-1.84.78-3.97.85-6.55.18 29.85-22.03 55.89-47.05 73.88-79.5-.23-.36-.47-.76-.7-1.16z"/><path d="m68.67 98.77c1.21 10.26 2.23 18.9 3.27 27.74 4.58-1.24 9.44-3.02 14.44-3.75 4.17-.61 8.53-.18 12.77.22 1.37.13 2.61 1.64 3.91 2.52-.97 1.21-1.7 2.89-2.96 3.56-8.06 4.25-16.47 7.05-25.8 5.22-.63-.12-1.31-.02-2.48-.02.84 10.11 1.67 20.11 2.52 30.42 23.41-4.17 46.06-11.25 70.47-10.85 1.36-9.65 2.75-19.44 4.2-29.72-5.17 1.61-9.77 3.36-14.51 4.45-6.43 1.48-12.91 1.4-19.03-1.5-1.07-.51-2.43-1.66-2.51-2.61-.07-.81 1.37-2.36 2.36-2.57 8.9-1.88 17.81-3.71 26.79-5.13 2.03-.32 4.32.96 6.96 1.62 2.52-7.19 3.59-14.87 2.23-22.64-.83-4.75-4.11-5.99-9.08-4.77-7.55 1.85-15.13 3.64-22.77 5.09-1.96.37-4.42-.21-6.2-1.18-1.49-.81-2.33-2.82-3.46-4.29 1.35-1.03 2.56-2.57 4.07-2.98 4.15-1.14 8.57-1.38 12.63-2.75 7.33-2.49 14.39-5.77 21.72-8.25 3.16-1.07 7.35-2.32 9.97-1.1 7.01 3.25 13.77 7.32 19.96 11.97 4.71 3.53 3.54 6.55.16 11.39-3.73 5.34-6.77 11.42-8.83 17.61-4.87 14.63-8.97 29.52-13.38 44.3-.43 1.43-.58 3.08-1.42 4.22-1.78 2.44-3.62 5.93-6.01 6.48-1.77.4-5.28-2.72-6.51-5.07-1.88-3.57-4.41-3.54-7.45-3.1-16.6 2.4-33.18 4.85-49.78 7.23-2.94.42-5.93.56-9.04.85-.2.33-.41.77-.7 1.14-1.72 2.17-3.46 4.33-5.19 6.49-1.68-2.32-4.29-4.43-4.87-7-2.4-10.67-3.9-21.55-6.3-32.22-2.1-9.31-2.59-19.14-7.78-27.58-2-3.24-4.35-6.27-6.26-9.56-1.06-1.84-1.55-4.01-2.29-6.03 2.1-.57 4.21-1.58 6.31-1.58 2.26 0 4.66.63 6.73 1.57 3.32 1.51 5.36.63 7.48-2.18 7.1-9.44 14.69-18.51 21.54-28.12 3.72-5.22 6.65-10.91 4.48-18.13-1.46-4.85 2.21-7.81 6.6-5.55 6.78 3.49 13.44 7.33 19.65 11.73 4.99 3.54 4.24 5.05-.54 8.67-15.85 12.01-31.49 24.39-46.07 35.74z"/><path d="m64.93 210.58c5.63.48 10.77.61 15.8 1.43 4.26.69 7.56 3.47 7.88 7.88.22 3-.27 6.9-2.08 9.02-2.69 3.16-5.73 0-8.24-1.74-4.49-3.1-8.85-6.37-13.73-9.9-.66 9.37-1.27 18.17-1.94 27.61 4.14 0 8.08-.21 11.99.05 4.89.33 9.5 2.21 11.26 6.93.98 2.64-.28 6.11-.53 9.2-2.92-.4-6.38.06-8.64-1.37-4.72-2.98-8.8-6.97-13.14-10.54-.5.15-1 .29-1.5.44-.83 15.59-1.66 31.19-2.56 48.22 9.64-6.85 18.5-13.14 27.36-19.43.43.4.87.8 1.3 1.2-1.21 1.99-2.25 4.11-3.67 5.94-9.42 12.07-18.97 24.03-28.34 36.13-1.81 2.34-3.02 5.14-4.49 7.74-2.44 4.32-5.09 4.94-8.02.95-3.32-4.51-6.34-9.47-8.25-14.68-.86-2.34.31-7.03 2.22-8.52 7.6-5.89 10.16-14.24 10.95-22.72 1.53-16.5 1.94-33.11 2.47-49.68.21-6.42.43-13.1-1.11-19.23-1.35-5.37-5.2-10.1-7.83-15.18-.83-1.61-1.26-3.42-1.87-5.14 1.81-.47 3.95-1.79 5.38-1.25 5.71 2.16 11.34 4.63 16.72 7.52 3.57 1.93 5.16 5.19 2.61 9.12z"/><path d="m113.43 203.9c3.91 0 7.08-.18 10.22.04 5.36.37 9.9 2.48 11.31 8.08.65 2.6-.11 5.56-.23 8.36-3.28-.41-6.98 0-9.74-1.41-4.36-2.24-8.09-5.7-13.08-9.37-1.02 10.71-1.96 20.58-2.88 30.26 4.8 0 9.07-.15 13.33.03 6.73.29 11.81 4.1 13.06 10.26.45 2.2.18 5.55-1.19 6.82-1.29 1.19-4.96 1.17-6.74.18-4.6-2.55-8.72-5.94-13.05-8.98-1.47-1.03-2.96-2.02-4.85-3.31-1.03 17.59-2.03 34.65-3.06 52.21 9.52-6.73 18.71-13.22 27.9-19.72.61.57 1.22 1.13 1.83 1.7-1.29 2.25-2.33 4.7-3.92 6.72-6.98 8.89-14.22 17.58-21.13 26.53-2.32 3-4.01 6.5-5.87 9.83-2.83 5.04-7.36 6.07-10.68 1.55-3.18-4.33-5.42-9.45-7.45-14.47-.66-1.64-.1-4.83 1.14-6 7.18-6.76 8.72-15.83 9.31-24.62 1.28-19.22 1.62-38.52 1.87-57.79.11-8.25-.53-16.57-1.74-24.73-.49-3.28-3.48-6.17-5.2-9.31-.88-1.61-1.46-3.38-2.18-5.07 1.81-.38 3.86-1.49 5.38-.99 5.33 1.75 10.62 3.76 15.64 6.25 3.14 1.56 4.86 4.01 2.7 8.19-1.25 2.35-.54 5.7-.7 8.76z"/><path d="m287.1 96.74c2.84-2.67 5.64-5.39 8.53-8.01 10.3-9.33 19.65-19.32 23.8-33.11 1.14-3.78 3.46-4.59 7.27-2.96 7.82 3.35 12.06 9.67 14.81 17.17.37 1.02-1.36 3.9-2.6 4.26-15.86 4.67-28.64 15.11-43.01 22.53-2.35 1.21-5.28 1.29-7.94 1.89-.28-.58-.57-1.17-.86-1.77z"/><path d="m216.23 97.92c-.19 2.87-.08 4.41-.43 5.84-1.3 5.33-6.45 7.42-10.2 3.56-8.28-8.52-13.12-19.1-15.56-30.64-.83-3.92 2.93-6.29 6.55-4.25 2.7 1.52 5.24 3.61 7.29 5.94 3.71 4.24 7.24 8.7 10.37 13.38 1.38 2.07 1.6 4.9 1.98 6.17z"/></g></svg>