<svg enable-background="new 0 0 400 400" viewBox="0 0 400 400" xmlns="http://www.w3.org/2000/svg"><path d="m85.65 305c1.13-9.39 2.47-18.76 3.34-28.17 1.44-15.55 3.33-31.12 3.71-46.71.77-32.29 1.16-64.61.75-96.91-.25-19.88-1.3-39.86-8.13-58.97-1.69-4.74 1.73-8.04 6.72-7.08.48.09 1 .25 1.4.53 9.89 7.09 21.05 4.27 31.8 3.85 12.95-.51 25.87-1.71 38.81-2.5 27.88-1.72 55.79-2.97 83.63-5.22 12.16-.99 24.14-4.01 36.22-5.99 1.85-.3 4.26-.67 5.63.22 8.5 5.47 16.88 11.13 25.06 17.05 3.54 2.56 4.6 6.26 2.75 10.65-5.31 12.56-5.34 25.8-5.37 39.17-.14 57.81-.59 115.61-.91 173.42-.07 11.93-2.05 23.42-7.12 34.34-3.2 6.9-7.66 8.12-12.9 2.51-4.75-5.09-8.57-11.04-13.09-16.36-1.18-1.39-3.48-2.65-5.23-2.6-28.1.8-56.2 1.88-84.3 2.78-18.47.59-36.95.95-55.42 1.46-7.15.2-14.31.32-21.44.89-1.68.13-3.48 1.71-4.76 3.07-1.09 1.15-1.51 2.93-2.21 4.44-2.98 6.43-6.41 6.99-10.36 1.24-5.13-7.54-9.25-15.52-8.58-25.11zm201.46-3.79c.64-4.95 1.5-9.02 1.64-13.13.71-20.95 1.27-41.91 1.83-62.86.42-15.47 1.2-30.96 1.04-46.43-.29-27.29-.71-54.59-2.01-81.84-.82-17.29-2.97-19.1-20.65-18.62-18.09.5-36.14 2.35-54.21 3.65-28.52 2.05-57.04 4.11-85.56 6.21-5.27.39-10.52.97-15.82 1.47-.7 72.26-1.4 144.1-2.09 215.98 12.23-.69 24.34-1.33 36.45-2.07 24.89-1.52 49.78-3.11 74.67-4.64 13.61-.84 27.26-1.25 40.83-2.52 8.2-.77 15.93-.74 23.88 4.8z" fill="#000001"/><path d="m202.23 208.4c7.68-20.86 13.82-41.17 8.69-63.38-14.13 1.58-27.63 3.11-41.15 4.6-4.95.55-9.9 1.26-14.87 1.49-9.92.46-15.37-6.24-20.91-12.69.05-.6.1-1.2.15-1.8 3.08-.55 6.13-1.34 9.23-1.62 15.88-1.43 31.78-2.72 47.67-4.08.44-.04.86-.28.83-.27-4.1-12.21-8.26-24.28-12.1-36.45-.52-1.65.58-3.82.93-5.74 1.75.59 3.85.76 5.21 1.84 6.47 5.16 12.8 10.5 19.07 15.91 4.78 4.12 4.66 9.56 3.62 15.14-.48 2.59-1 5.17-1.64 8.46 8.2-1.16 16-2.24 23.79-3.38 5.09-.75 10.14-1.92 15.25-2.32 9.39-.75 16.98 3.8 23.99 9.31 1.13.89 2.08 3.7 1.5 4.67-.85 1.43-3.08 2.67-4.83 2.84-9.6.91-19.23 1.46-28.84 2.17-3.38.25-6.76.63-11.38 1.06 4.04 3.02 7.11 5.21 10.07 7.54 3.07 2.42 3.89 5.24 2.39 9.18-7.18 18.93-14.01 38-21.24 56.92-1.18 3.07.39 4.1 2.01 5.8 9.95 10.47 20.17 20.73 29.61 31.66 6.9 8 6.93 18.18 5.58 28.06-.76 5.55-8.44 6.93-12.73 2.38-2.95-3.12-5.31-6.81-7.93-10.25-9.07-11.88-18.13-23.77-27.6-36.17-1.62 2.33-2.89 4.19-4.2 6.03-17.22 24.14-41.15 37.52-69.73 43.34-2.38.49-5-.17-7.51-.3-.1-.49-.21-.99-.31-1.48 1.6-.99 3.19-2 4.81-2.95 11.16-6.57 22.8-12.46 33.38-19.87 13.14-9.2 22.53-22.02 30.23-36.06 1.26-2.3 1.05-3.69-.65-5.61-9.51-10.69-18.96-21.46-28.25-32.35-1.88-2.2-3.24-4.96-4.33-7.66-.45-1.11.45-2.76.74-4.17 1.49.37 3.31.31 4.41 1.17 11.05 8.57 21.97 17.29 32.94 25.96 1.17.89 2.36 1.75 4.1 3.07z" fill="#000001"/><g fill="#fcfbfa"><path d="m378.6 9.2.8-1c.9.7 1.9 1.4 2.9 2.3l-.9 1.1c-1.1-.9-2-1.7-2.8-2.4zm.5 10.7c.9-2.1 1.6-4.3 2.3-6.7.4.2.8.4 1.3.6-.7 2.1-1.5 4.3-2.2 6.6zm.4-15.2.9-.9c1 .8 2 1.6 2.8 2.4l-1 1c-1-.9-1.9-1.8-2.7-2.5zm12.5-1.3h1.2v1.4h2.7v1.1h-2.7v2.7h-1.2v-.5h-1.8v1.3h4.9v3.8h-1.2v-.5h-3.7c0 .4-.1.9-.1 1.2h5.1v1h-5.2c0 .5-.1.9-.2 1.2h6v1h-5.2c1.1 1.3 2.9 2 5.5 2.2-.4.4-.7.8-.9 1.3-2.9-.5-4.8-1.6-5.7-3.5h-.1c-.8 1.7-2.7 2.9-5.9 3.6-.2-.4-.6-.8-.9-1.1 2.8-.6 4.6-1.4 5.4-2.5h-4.8v-1h5.3c.1-.3.2-.7.2-1.2h-4.9v-1h5c0-.4 0-.8.1-1.2h-3.6v.5h-1.2v-3.8h4.9v-1.3h-1.8v.5h-1.2v-2.7h-2.6v-1.1h2.6v-1.4h1.2v1.4h4.7v-1.4zm-6.7 8.4h3.6c0-.4 0-.9 0-1.4h-3.6zm1.9-4.7h4.7v-1.2h-4.7zm6.7 3.3h-3.7v1.4h3.7z"/><path d="m384.7 21.4h1.3v2.2h2.8v-2.2h1.3v2.2h4.1v9.1h1.7v1.3h-16.9v-1.3h1.7v-9.1h4.1v-2.2zm.3 13.2.7 1.2c-1.8.9-3.8 1.9-6 2.9-.2-.4-.5-.8-.8-1.3 2.4-1 4.4-2 6.1-2.8zm-3.1-6.5h2.8v-3.2h-2.8zm0 4.6h2.8v-3.3h-2.8zm4.1-4.6h2.8v-3.2h-2.8zm0 4.6h2.8v-3.3h-2.8zm3.6 1.9c2.1.9 4.1 1.8 6.1 2.7l-.7 1.3c-2.2-1.1-4.2-2-6.1-2.9zm3.3-9.7h-2.8v3.2h2.8zm-2.8 7.8h2.8v-3.3h-2.8z"/></g></svg>