<svg enable-background="new 0 0 400 400" viewBox="0 0 400 400" xmlns="http://www.w3.org/2000/svg"><g fill="#000001"><path d="m283.4 170.21c10.54-1.29 20.48-2.09 30.26-3.8 14.04-2.46 24.19 3.85 32.88 13.6 3.35 3.76.97 7.62-4.96 7.94-5.81.31-11.65-.11-17.48-.04-20.11.23-40.29-.44-60.3 1.06-21.83 1.63-43.5 5.31-65.24 8.06-9.91 1.25-19.37.44-27.04-6.92-1.92-1.84-3.31-4.23-4.95-6.37.2-.55.41-1.1.61-1.65 17.18-1.68 34.36-3.36 51.81-5.07-.66-14.6-1.29-28.52-1.94-42.94-10.68.22-20.92-.57-29.23-7.86-1.54-1.35-2.73-3.11-4.94-5.67 11.5-3.16 22.32-1.88 33.34-3.33-2.22-17.39.26-34.96-7.28-51.29-.63-1.37-.1-4.23.98-5.2 1.48-1.35 4.69-2.78 5.95-2.06 6.38 3.64 13.58 6.97 18.07 12.4 2.83 3.43 1.69 10.36 1.82 15.74.23 9.58.06 19.18.06 29.69 9.47-1.35 19.07-3.07 28.75-3.96 5.3-.49 6.27-2.94 6.38-7.61.21-8.63 1.63-17.25 1.54-25.86-.09-8.06-1.62-16.09-2.21-24.15-.18-2.4-.16-6.06 1.24-7.04 2.02-1.41 6.17-2.15 8.03-.97 5.39 3.42 10.55 7.51 14.86 12.2 1.83 1.98 2.14 6.22 1.73 9.25-1.72 12.8-3.97 25.54-6.06 38.54 5.89 0 11.64-.59 17.21.19 4.14.58 8.26 2.54 11.93 4.68 1.8 1.05 3.71 4.1 3.41 5.89-.29 1.7-3.22 3.86-5.26 4.21-8.33 1.45-16.75 2.36-25.16 3.32-2.68.3-4.7.57-4.99 4.07-1.13 13.37-2.48 26.73-3.82 40.95zm-48.23 5.61c10.66-1.29 20.7-2.5 30.7-3.72 1.14-15.32 2.2-29.64 3.3-44.48-10.89 1.24-21.07 2.31-31.21 3.68-1.05.14-2.41 1.9-2.67 3.12-.44 2.07-.13 4.29-.13 6.45.01 11.42.01 22.85.01 34.95z"/><path d="m276.03 330.68c-17.96 1.62-35.47 3.2-53.26 4.8-1.55 3.86-3.13 8.15-4.98 12.32-1.8 4.06-4.96 4.51-7.57.89-4.96-6.86-7.85-14.01-6.97-23.15 2.99-31.33 3.96-62.76.39-94.14-.39-3.42-1.77-6.73-2.65-10.11-1-3.83.44-5.76 4.47-5.61.17.01.34 0 .5.04 17 4.57 32.96-2.01 49.27-4.67 7.69-1.25 15.27-3.12 22.9-4.71 10.6-2.22 28.18 6.65 32.05 16.71.92 2.38.46 6.06-.8 8.35-3.07 5.59-4.5 11.28-4.42 17.62.26 23.15.33 46.31.46 69.47.02 3.79-.15 7.59.02 11.38.43 9.23-4.38 16.18-9.87 22.77-4.26 5.11-8.35 4.49-11.29-1.87-2.58-5.57-4.63-11.39-6.93-17.09-.38-.9-.8-1.79-1.32-3zm8.6-12.64c.63-14.87 1.19-28.23 1.77-42.19-7.04 1.03-13.04 2.18-19.1 2.74-11.17 1.04-22.36 1.98-33.57 2.41-3.22.12-6.51-1.66-10.27-2.72v41.86c8.29-.93 16.46-2.01 24.66-2.71 11.67-.98 23.26-6.77 36.51.61zm.12-51.3c0-11.2.42-22.01-.14-32.77-.41-7.84-3.33-10.25-11.38-9.69-15.23 1.05-30.42 2.62-45.6 4.25-1.26.14-3.27 2.33-3.3 3.6-.26 11.09-.15 22.18-.15 34.73 10.44-1.35 21.03-2.01 31.27-4.25 8.87-1.94 17.02-1.78 25.08 2.35 1.44.73 2.98 1.26 4.22 1.78z"/><path d="m124.01 246.02c14.25-5.27 27.58-10.21 40.94-15.08.44-.16 1.16.41 3.12 1.17-2.88 3.02-4.92 6.05-7.71 7.95-20.63 14.02-41.4 27.83-62.15 41.67-3.87 2.59-7.9 4.94-11.74 7.58-3.52 2.43-7.27 3.59-11.26 1.81-6.2-2.77-12.48-5.48-18.24-9.02-2.07-1.27-3.61-4.84-3.65-7.39-.02-1.43 3.33-3.47 5.51-4.27 13.87-5.08 27.82-9.95 41.8-14.75 3.21-1.1 4.27-3 4.26-6.29-.07-13.66.08-27.32.12-40.99.02-7.77 0-15.54 0-23.72-4.96.97-10.1 2.23-15.32 2.94-9.95 1.34-19.68.94-27.9-5.89-1.56-1.29-2.55-3.27-3.81-4.93 2.15-.95 4.22-2.38 6.47-2.77 12.42-2.18 24.88-4.21 37.35-6.06 3.67-.54 4.98-1.97 4.87-5.8-.42-15.97-.03-31.98-.97-47.92-.48-8.15-2.87-16.24-4.89-24.24-1.46-5.8 2.54-11.12 8.3-9.72 9.26 2.25 16.49 7.81 21.74 15.63 3.45 5.13 1.19 10.98.74 16.5-1.32 16-2.78 31.99-4.26 48.78 9.11-3.11 17.39-2.71 25.5.61 1.23.5 2.73.78 3.58 1.67 1.63 1.69 4.09 3.84 3.94 5.61-.15 1.72-2.89 4.11-4.9 4.62-8.18 2.09-16.48 3.83-24.82 5.17-3.26.52-4.16 1.86-4.24 4.79-.41 14.97-.88 29.94-1.41 44.9-.2 5.65-.62 11.27-.97 17.44z"/></g><path d="m378.6 9.2.8-1c.9.7 1.9 1.4 2.9 2.3l-.9 1.1c-1.1-.9-2-1.7-2.8-2.4zm.5 10.7c.9-2.1 1.6-4.3 2.3-6.7.4.2.8.4 1.3.6-.7 2.1-1.5 4.3-2.2 6.6zm.4-15.2.9-.9c1 .8 2 1.6 2.8 2.4l-1 1c-1-.9-1.9-1.8-2.7-2.5zm12.5-1.3h1.2v1.4h2.7v1.1h-2.7v2.7h-1.2v-.5h-1.8v1.3h4.9v3.8h-1.2v-.5h-3.7c0 .4-.1.9-.1 1.2h5.1v1h-5.2c0 .5-.1.9-.2 1.2h6v1h-5.2c1.1 1.3 2.9 2 5.5 2.2-.4.4-.7.8-.9 1.3-2.9-.5-4.8-1.6-5.7-3.5h-.1c-.8 1.7-2.7 2.9-5.9 3.6-.2-.4-.6-.8-.9-1.1 2.8-.6 4.6-1.4 5.4-2.5h-4.8v-1h5.3c.1-.3.2-.7.2-1.2h-4.9v-1h5c0-.4 0-.8.1-1.2h-3.6v.5h-1.2v-3.8h4.9v-1.3h-1.8v.5h-1.2v-2.7h-2.6v-1.1h2.6v-1.4h1.2v1.4h4.7v-1.4zm-6.7 8.4h3.6c0-.4 0-.9 0-1.4h-3.6zm1.9-4.7h4.7v-1.2h-4.7zm6.7 3.3h-3.7v1.4h3.7z" fill="#fcfbfa"/><path d="m384.7 21.4h1.3v2.2h2.8v-2.2h1.3v2.2h4.1v9.1h1.7v1.3h-16.9v-1.3h1.7v-9.1h4.1v-2.2zm.3 13.2.7 1.2c-1.8.9-3.8 1.9-6 2.9-.2-.4-.5-.8-.8-1.3 2.4-1 4.4-2 6.1-2.8zm-3.1-6.5h2.8v-3.2h-2.8zm0 4.6h2.8v-3.3h-2.8zm4.1-4.6h2.8v-3.2h-2.8zm0 4.6h2.8v-3.3h-2.8zm3.6 1.9c2.1.9 4.1 1.8 6.1 2.7l-.7 1.3c-2.2-1.1-4.2-2-6.1-2.9zm3.3-9.7h-2.8v3.2h2.8zm-2.8 7.8h2.8v-3.3h-2.8z" fill="#fcfbfa"/></svg>