<svg enable-background="new 0 0 400 400" viewBox="0 0 400 400" xmlns="http://www.w3.org/2000/svg"><g fill="#000001"><path d="m266.61 215.36c-13.03.3-24.14.5-35.24.83-24.43.71-48.85 1.48-73.28 2.25-2.15.07-4.3.59-6.44.52-3.97-.13-7.33-.44-8.09 5.21-.51 3.76-5.61 4.7-7.56 1.4-2.62-4.44-4.99-9.39-5.9-14.4-2.35-13.05-3.92-26.25-5.66-39.4-.83-6.23-3.56-11.23-8.24-15.45-1.47-1.33-1.91-3.79-2.82-5.73 2.27-.64 4.53-1.71 6.82-1.81 2.43-.11 4.97.44 7.34 1.13 11.57 3.38 23.08.23 34.57-.38 13.59-.73 27.17-2.03 40.69-3.6 14.97-1.74 29.86-4.26 44.83-6.02 4.09-.48 9.01-.61 12.41 1.21 6.78 3.63 12.92 8.55 19.04 13.3 2.54 1.97 3.04 4.84 1.08 8.03-5.53 9.02-10.86 18.15-16.21 27.28-1.17 2-1.85 4.32-3.19 6.19-3.24 4.53-3.36 8.02 1.86 11.41 1.79 1.13 2.24 4.31 3.99 8.03zm-121.58-10.57c5.14-.29 9.6-.46 14.04-.8 26.33-2 52.67-4 78.99-6.15 1.2-.1 3.01-1.52 3.28-2.63 2.53-10.46 4.95-20.96 7.02-31.52.71-3.63-.83-6.75-5.22-6.8-7.11-.09-14.24-.19-21.34.18-18.59.97-37.17 2.16-55.74 3.34-8.39.53-16.76 1.26-25.49 1.93 1.5 14.34 2.96 28.14 4.46 42.45z"/><path d="m251.94 261.88c6.47 5.45 12.65 11.29 19.46 16.25 11.27 8.21 22.89 15.96 34.48 23.72 8.82 5.91 8.93 12.26-.39 17.69-13.92 8.11-28.88 13.49-45.05 14.79-22.98 1.86-45.82.96-68.51-3.47-17.71-3.46-30.41-13.82-41.32-27.59-9.29-11.72-15.21-24.87-19.62-38.92-1.39-4.43-2.6-8.94-4.31-13.25-1.3-3.29-.04-4.24 2.92-4.49 5.45-.46 13.26 4.91 13.53 10.22 1.42 28.19 26.67 49.98 57.12 54.12 16.79 2.28 33.48 2.46 50.18-.1 3.4-.52 6.76-1.74 9.96-3.06 6.97-2.89 8.95-6.96 5.76-13.83-4.06-8.73-8.99-17.05-13.46-25.59-.94-1.79-1.52-3.78-2.26-5.67.5-.26 1.01-.54 1.51-.82z"/><path d="m123.64 64.77c5.28.4 10.56 1.09 15.84 1.13 10.44.06 20.88-.04 31.31-.45 22.83-.9 45-5.92 67.17-11.03 3.2-.74 7.33-.5 10.19.95 6.9 3.49 13.65 7.51 19.78 12.2 4.7 3.59 4.27 5.7-.11 9.61-10.09 9.02-14.51 21.75-21.39 32.86-.63 1.03.68 3.61 1.59 5.18 3.51 6.01 2.49 8.13-4.51 8.16-13.32.06-26.64-.34-39.96-.07-13.79.28-27.56 1.2-41.34 1.64-2.68.09-3.87 1-5.27 3.29-1.39 2.27-4.2 3.67-6.38 5.45-1.5-2.02-3.72-3.83-4.39-6.09-4.26-14.47-7.91-29.12-12.39-43.52-1.2-3.87-4.59-7.05-6.94-10.57-1.63-2.44-3.2-4.91-4.8-7.37.54-.47 1.07-.92 1.6-1.37zm33.75 47.96c9.17-.64 17.77-1.19 26.36-1.86 13.08-1.02 26.15-2.02 39.2-3.33 1.72-.17 4.17-1.74 4.73-3.24 2.6-6.99 4.87-14.11 6.85-21.31 2.13-7.77-1.04-11.65-9.22-11.92-1.83-.06-3.68-.18-5.49-.01-15.36 1.49-30.72 3-46.07 4.59-8.03.83-16.04 1.83-24.47 2.8 2.74 11.62 5.37 22.71 8.11 34.28z"/><path d="m274.54 232.17c5.34 1.49 10.87 2.51 15.99 4.56 9.34 3.75 18.81 7.45 27.51 12.44 7.06 4.05 11.48 11.02 12.66 19.4.36 2.55.21 5.34-.41 7.83-1.08 4.29-3.08 8.08-8.09 9.07-4.92.98-8.36-1.56-11.17-4.95-7.3-8.83-14.32-17.9-21.6-26.75-4.32-5.26-8.96-10.26-13.35-15.46-1.09-1.29-1.78-2.91-2.66-4.37.37-.59.75-1.18 1.12-1.77z"/><path d="m68.91 305.72c1.71-3.45 2.7-7.6 5.25-10.24 8.73-9.03 14.7-19.6 19.3-31.1.55-1.37 1.29-2.72 2.19-3.88 1.61-2.06 3.17-2.27 4.41.47 7.72 17.02 2.34 47.1-13.18 57.72-1.63 1.12-3.34 2.25-5.18 2.9-4.87 1.72-9.95-1.39-10.78-6.47-.48-2.94-.78-5.91-1.16-8.87-.28-.17-.57-.35-.85-.53z"/><path d="m179.23 238.42c4.52.55 8.24.4 11.52 1.52 8.89 3.06 18.06 5.81 26.27 10.25 10.39 5.62 12.41 21.53 5.07 30.86-2.32 2.96-5.21 4.08-8.15 1.76-4.91-3.87-10.05-7.74-13.93-12.56-6.84-8.51-12.84-17.7-19.08-26.67-.77-1.09-.89-2.63-1.7-5.16z"/></g><path d="m378.6 9.2.8-1c.9.7 1.9 1.4 2.9 2.3l-.9 1.1c-1.1-.9-2-1.7-2.8-2.4zm.5 10.7c.9-2.1 1.6-4.3 2.3-6.7.4.2.8.4 1.3.6-.7 2.1-1.5 4.3-2.2 6.6zm.4-15.2.9-.9c1 .8 2 1.6 2.8 2.4l-1 1c-1-.9-1.9-1.8-2.7-2.5zm12.5-1.3h1.2v1.4h2.7v1.1h-2.7v2.7h-1.2v-.5h-1.8v1.3h4.9v3.8h-1.2v-.5h-3.7c0 .4-.1.9-.1 1.2h5.1v1h-5.2c0 .5-.1.9-.2 1.2h6v1h-5.2c1.1 1.3 2.9 2 5.5 2.2-.4.4-.7.8-.9 1.3-2.9-.5-4.8-1.6-5.7-3.5h-.1c-.8 1.7-2.7 2.9-5.9 3.6-.2-.4-.6-.8-.9-1.1 2.8-.6 4.6-1.4 5.4-2.5h-4.8v-1h5.3c.1-.3.2-.7.2-1.2h-4.9v-1h5c0-.4 0-.8.1-1.2h-3.6v.5h-1.2v-3.8h4.9v-1.3h-1.8v.5h-1.2v-2.7h-2.6v-1.1h2.6v-1.4h1.2v1.4h4.7v-1.4zm-6.7 8.4h3.6c0-.4 0-.9 0-1.4h-3.6zm1.9-4.7h4.7v-1.2h-4.7zm6.7 3.3h-3.7v1.4h3.7z" fill="#fcfbfa"/><path d="m384.7 21.4h1.3v2.2h2.8v-2.2h1.3v2.2h4.1v9.1h1.7v1.3h-16.9v-1.3h1.7v-9.1h4.1v-2.2zm.3 13.2.7 1.2c-1.8.9-3.8 1.9-6 2.9-.2-.4-.5-.8-.8-1.3 2.4-1 4.4-2 6.1-2.8zm-3.1-6.5h2.8v-3.2h-2.8zm0 4.6h2.8v-3.3h-2.8zm4.1-4.6h2.8v-3.2h-2.8zm0 4.6h2.8v-3.3h-2.8zm3.6 1.9c2.1.9 4.1 1.8 6.1 2.7l-.7 1.3c-2.2-1.1-4.2-2-6.1-2.9zm3.3-9.7h-2.8v3.2h2.8zm-2.8 7.8h2.8v-3.3h-2.8z" fill="#fcfbfa"/></svg>