<svg enable-background="new 0 0 400 400" viewBox="0 0 400 400" xmlns="http://www.w3.org/2000/svg"><g fill="#000001"><path d="m245.59 241.96c-17.66 3.58-34.56 6.8-51.36 10.49-11.01 2.42-19.33-2.61-27.39-8.76-.96-.74-1.88-3.18-1.42-3.77.83-1.09 2.65-1.81 4.14-1.97 24.91-2.77 49.84-5.43 75.09-8.15.92-9.47-.39-18.32-3.59-27.01-1.07-2.92-1.28-6.16-2-9.85-4.51.35-9.97.63-15.38 1.32-1.23.16-2.38 1.61-3.41 2.63-3.34 3.29-5.59 3.15-8.7-.44-4.24-4.89-4.48-10.77-3.49-16.55 3.2-18.59.17-37.14.09-55.7-.02-3.45 0-6.91 0-10.64-4.06.56-7.42.69-10.59 1.54-7.67 2.05-14.38-.97-21.06-3.78-1.77-.74-2.87-3.07-4.28-4.67 1.99-1.23 3.87-3.25 5.98-3.54 9.35-1.28 18.78-2.07 29.39-3.16-1.3-6.75-2.06-12.94-3.76-18.87-1.7-5.92-4.36-11.57-6.91-18.16 10.24-.69 18.74.88 26.67 5.12 3.08 1.65 2.55 4.45 2.06 7.45-1.19 7.28-1.95 14.63-2.99 22.78 19.88-2.88 38.36-5.55 56.97-8.25.44-13.09 2.25-25.63-2.3-37.98-2.47-6.7-1.13-8.02 6.01-7.18 8.08.94 15.49 3.56 21.67 9.19 3 2.73 3.43 5.24 1.92 9.17-2.81 7.33-4.72 15-7.34 23.62 5.59-.94 9.65-1.38 13.6-2.32 11.71-2.78 20.47 3.46 29.27 9.46.87.59 1.66 3.06 1.33 3.36-1.39 1.23-3.16 2.65-4.89 2.77-8.62.64-17.27.86-25.91 1.31-4.29.22-8.57.61-13.28.95-.89 9.37-1.74 18.6-2.66 27.83-1.64 16.36-2.95 32.76-5.19 49.04-.72 5.22-3.6 10.27-6.11 15.07-2 3.81-4.89 3.93-6.61.2-2.65-5.75-6.25-7.03-12.21-5.6-6.22 1.5-12.71 1.91-19.05 3.75 4.05 1.32 8.12 2.6 12.16 3.97 7.9 2.68 8.3 4.03 6.43 12.08-1.37 5.88-1.72 11.99-2.69 19.26 17.22-2.7 33.2-4.68 48.95-7.84 10.91-2.19 21.49-3.12 31.55 2.03 4.07 2.08 7.79 5.53 10.6 9.18 2.64 3.42.77 6.24-3.72 6.72-2.97.31-5.99.32-8.98.36-20.14.27-40.29.47-60.43.81-4.81.08-9.62.81-14.43.83-3.29.02-4.23 1.22-4.2 4.43.11 11.83.01 23.66-.12 35.49-.13 11.64-.52 23.29-.53 34.93-.01 7.81.27 15.63.74 23.43.4 6.71-2.02 12.41-5.6 17.74-2.79 4.16-5.01 4.2-8.27.51-4.84-5.48-7.08-11.7-6.69-19.18 1-19.26 1.68-38.54 2.34-57.82.36-10.64.43-21.29.62-31.94-.02-1.64-.04-3.25-.04-5.69zm-21.23-59.79c6.54-.97 12.75-1.84 18.94-2.82 10.3-1.62 20.36-6.45 31.09-2.3.24.09.62-.17 1.35-.39.58-10.7 1.17-21.54 1.78-32.77-17.99 2.81-35.41 5.53-53.16 8.3zm-.16-40.48c4.77-1.16 9.07-2.33 13.42-3.26 12.9-2.76 25.31-9.79 39.16-4.64.23.08.59-.19 1.52-.52 0-9.46 0-19.14 0-29.34-18.02 2.17-36.04 4.35-54.1 6.53z"/><path d="m66.99 158.88c16.49-2.56 32.98-5.12 50.19-7.8-1.47-16.36-2.03-32.24-10.44-46.43-12.26 2.34-24.28 4.63-36.3 6.93-.65.12-1.37.57-1.92.41-1.85-.57-3.63-1.35-5.44-2.06 1.28-1.25 2.35-3.06 3.89-3.65 9.44-3.64 19.07-6.78 28.47-10.51 19.53-7.77 34.71-21.4 48.22-37.01 2.62-3.03 4.73-3.75 8-1.77 7.14 4.3 11.81 10.72 14.94 18.2.59 1.42-.96 5.42-1.74 5.48-15.24 1.21-26.58 11.85-40.38 16.41-2.82.93-5.55 2.15-9.06 3.53 4.94 2.24 9.26 4.17 13.55 6.16 4.82 2.23 6.24 5.47 5.64 11.17-.97 9.16-.26 18.51-.26 28.81 6.99-2.41 13.57-4.5 20.02-6.93 6.65-2.51 18.76 1.58 21.95 7.83 1.66 3.26-1 4.82-3.23 5.46-6.68 1.93-13.46 3.53-20.26 4.98-5.68 1.21-11.43 2.05-16.99 3.02v44.45c7.12-1.86 13.33-3.49 19.55-5.09 6.86-1.76 13.63-5.03 20.89-2.79 3.2.99 6.43 2.72 8.95 4.91 4.78 4.15 4.29 6.26-2.07 7.65-13.28 2.9-26.67 5.26-40.02 7.86-2.09.41-4.16.92-5.83 1.29v34.64c-.01 23.94.62 48.01-6.46 71.22-2.03 6.66-5.76 13.07-9.87 18.75-4.33 6-8.18 5.53-12.79-.24-6.02-7.54-11.63-15.43-17.94-22.72-4.88-5.65-10.65-10.52-15.83-15.92-1.19-1.24-1.58-3.25-2.34-4.9 1.7.05 3.53-.31 5.07.22 7.54 2.58 14.97 5.49 22.5 8.09 9.4 3.24 14.03.84 15.53-9.08 1.36-9 1.71-18.18 2.2-27.29.85-15.94 1.47-31.9 2.17-47.84.03-.64-.18-1.3-.38-2.57-2.65.75-5.17 1.34-7.6 2.18-14.1 4.9-28.25 9.69-42.24 14.9-5.47 2.04-9.74-.41-14.15-2.47-2.81-1.31-5.52-3.18-7.7-5.37-3.27-3.28-2.21-6.03 2.33-6.99 14.27-3.03 28.56-5.99 42.82-9.08 8.9-1.92 17.76-4.01 26.24-5.94 0-14.95 0-29.38 0-44.46-8.58 1.1-16.36 2.52-24.2 2.98-6.55.38-13.26.22-19.72-.83-3.11-.51-5.79-3.62-8.66-5.55.24-.77.47-1.51.7-2.24z"/><path d="m285.44 259.89c2.87.23 3.95.03 4.75.42 15.25 7.27 31.23 13.28 44.02 24.83 3.43 3.09 6.38 6.74 9.35 10.31 5.1 6.14 5.45 13.44 4.17 20.81-1.42 8.2-8.66 10.81-15.27 5.6-2.45-1.93-4.54-4.4-6.48-6.86-12.24-15.52-24.44-31.07-36.51-46.72-1.58-2.06-2.32-4.77-4.03-8.39z"/><path d="m163.59 326.97c2.12-2.18 4.17-4.44 6.37-6.53 12.49-11.82 24.24-24.32 32.28-39.64 3.09-5.9 4.85-12.59 6.55-19.09 1.37-5.21 3.03-6.62 7.37-3.38 5.56 4.15 10.87 8.77 15.66 13.78 3.9 4.07 2.74 6.01-1.47 9.58-8.36 7.08-16.05 14.96-24.36 22.1-11.09 9.53-22.53 18.66-36.72 23.38-1.59.53-3.31.67-4.96.99-.24-.39-.48-.79-.72-1.19z"/></g><path d="m378.6 9.2.8-1c.9.7 1.9 1.4 2.9 2.3l-.9 1.1c-1.1-.9-2-1.7-2.8-2.4zm.5 10.7c.9-2.1 1.6-4.3 2.3-6.7.4.2.8.4 1.3.6-.7 2.1-1.5 4.3-2.2 6.6zm.4-15.2.9-.9c1 .8 2 1.6 2.8 2.4l-1 1c-1-.9-1.9-1.8-2.7-2.5zm12.5-1.3h1.2v1.4h2.7v1.1h-2.7v2.7h-1.2v-.5h-1.8v1.3h4.9v3.8h-1.2v-.5h-3.7c0 .4-.1.9-.1 1.2h5.1v1h-5.2c0 .5-.1.9-.2 1.2h6v1h-5.2c1.1 1.3 2.9 2 5.5 2.2-.4.4-.7.8-.9 1.3-2.9-.5-4.8-1.6-5.7-3.5h-.1c-.8 1.7-2.7 2.9-5.9 3.6-.2-.4-.6-.8-.9-1.1 2.8-.6 4.6-1.4 5.4-2.5h-4.8v-1h5.3c.1-.3.2-.7.2-1.2h-4.9v-1h5c0-.4 0-.8.1-1.2h-3.6v.5h-1.2v-3.8h4.9v-1.3h-1.8v.5h-1.2v-2.7h-2.6v-1.1h2.6v-1.4h1.2v1.4h4.7v-1.4zm-6.7 8.4h3.6c0-.4 0-.9 0-1.4h-3.6zm1.9-4.7h4.7v-1.2h-4.7zm6.7 3.3h-3.7v1.4h3.7z" fill="#fcfbfa"/><path d="m384.7 21.4h1.3v2.2h2.8v-2.2h1.3v2.2h4.1v9.1h1.7v1.3h-16.9v-1.3h1.7v-9.1h4.1v-2.2zm.3 13.2.7 1.2c-1.8.9-3.8 1.9-6 2.9-.2-.4-.5-.8-.8-1.3 2.4-1 4.4-2 6.1-2.8zm-3.1-6.5h2.8v-3.2h-2.8zm0 4.6h2.8v-3.3h-2.8zm4.1-4.6h2.8v-3.2h-2.8zm0 4.6h2.8v-3.3h-2.8zm3.6 1.9c2.1.9 4.1 1.8 6.1 2.7l-.7 1.3c-2.2-1.1-4.2-2-6.1-2.9zm3.3-9.7h-2.8v3.2h2.8zm-2.8 7.8h2.8v-3.3h-2.8z" fill="#fcfbfa"/></svg>