<svg enable-background="new 0 0 400 400" viewBox="0 0 400 400" xmlns="http://www.w3.org/2000/svg"><path d="m107.31 299.54c3.99.75 7.12 1.24 10.2 1.95 6.47 1.48 12.93 2.98 19.35 4.63 4.18 1.08 6.53-.58 7.15-4.59 1.64-10.47 4.01-20.92 4.45-31.45.74-17.42.2-34.9.2-52.52-17.27 2.92-34.52 11.16-52.73 9.59-3.02 11.67-5.62 22.95-8.89 34.03-5.59 18.95-12.75 37.31-26.79 51.8-6.44 6.64-14.07 12.13-21.31 17.96-1.14.92-3.06.88-4.62 1.28.52-1.45.74-3.11 1.6-4.33 5.92-8.42 12.5-16.43 17.87-25.18 11.9-19.43 18.25-41.04 20.89-63.39 2.76-23.41 3.85-47.02 5.25-70.57.79-13.28 1.02-26.61.95-39.91-.06-12.16-1.08-24.2-7.22-35.28-2.94-5.3-1.36-7.27 4.7-6.84 2.96.21 6.23.37 8.74 1.71 8.28 4.42 16.66 3.44 25.12 1.3 11.73-2.97 23.5-5.85 35.05-9.4 5.07-1.56 9.47-1.29 13.78 1.31 2.97 1.8 5.82 3.87 8.46 6.14 7.12 6.11 6.52 6.2 3.28 14.74-2.19 5.78-2.87 12.25-3.44 18.49-.8 8.77-1.19 17.6-1.22 26.4-.15 37.15.08 74.31-.2 111.46-.12 15.78-1.05 31.56-1.85 47.32-.64 12.68-5.69 23.08-16.5 30.36-2.6 1.75-4.88 2.05-7.15-.21-11.31-11.27-22.61-22.56-33.88-33.88-.43-.43-.52-1.16-1.24-2.92zm44.18-144.82c0-17.64.32-33.89-.16-50.12-.2-6.61-3.23-8.18-10.86-7.02-10.81 1.65-21.55 3.8-32.38 5.28-3.18.43-4.45 1.88-4.85 4.5-1.02 6.72-2.37 13.44-2.64 20.2-.44 11.02-.12 22.07-.12 33.71 10.55-2.98 20.93-5.31 30.86-8.9 6.94-2.51 13.08-3.34 20.15 2.35zm-52.08 15.71c-.89 14.92-1.79 29.94-2.75 45.9 7.63-1.71 14.88-3.09 22-4.99 10.12-2.7 19.96-7.96 30.69-2.32.17.09.56-.25 1.46-.7 0-15.41 0-31.13 0-46.8-17.05 2.58-32.92 12.48-51.4 8.91z" fill="#000001"/><path d="m259.55 252.57c-7.37 7.05-14.21 14.33-21.81 20.71-18.09 15.18-37.94 26.97-62.13 29.3-1.83.18-4.88-.21-5.45-1.32-1.46-2.83 1.31-3.8 3.46-4.78 29.3-13.35 53.24-33.16 71.54-59.67 1-1.45 1.76-4.28 1.03-5.55-12.7-22.22-25.52-44.38-38.67-66.33-2.99-4.99-6.71-9.41-13.1-11.46-3.68-1.18-6.34-5.55-9.46-8.49.28-.68.56-1.35.84-2.03 6.09-1.01 12.14-2.34 18.27-2.97 25.37-2.61 49.96-8.75 74.27-16.17 1.11-.34 2.28-.68 3.22-1.32 7.83-5.24 15.56-3.98 22.84.82 5.62 3.71 10.9 7.98 16.03 12.35 1.76 1.5 2.42 4-.21 5.95-8.89 6.6-12.53 16.6-16.64 26.2-9.69 22.59-18.51 45.59-31.88 66.41-1.46 2.27-1.02 3.7.69 5.56 22.54 24.58 48.41 44.03 81.05 53.26 4.3 1.22 8.48 2.93 12.58 4.75 1.28.57 2.08 2.21 3.11 3.37-1.13.98-2.11 2.44-3.42 2.88-17.63 5.91-35.83 8.43-54.38 8.25-9.07-.09-15.1-6.02-19.85-12.73-10.47-14.8-20.39-29.99-30.53-45.02-.55-.78-1.11-1.55-1.4-1.97zm-3.69-32.8c.92-1.3 1.44-1.9 1.81-2.58 11.62-21.21 19.61-43.87 26.74-66.87.48-1.56.53-3.28.57-4.93.16-6.91-1.13-8.19-7.8-6.8-12.33 2.57-24.62 5.32-36.89 8.2-8.77 2.06-17.46 4.44-26.99 6.89 14.41 22.38 28.32 43.98 42.56 66.09z" fill="#000001"/><g fill="#fcfbfa"><path d="m378.6 9.2.8-1c.9.7 1.9 1.4 2.9 2.3l-.9 1.1c-1.1-.9-2-1.7-2.8-2.4zm.5 10.7c.9-2.1 1.6-4.3 2.3-6.7.4.2.8.4 1.3.6-.7 2.1-1.5 4.3-2.2 6.6zm.4-15.2.9-.9c1 .8 2 1.6 2.8 2.4l-1 1c-1-.9-1.9-1.8-2.7-2.5zm12.5-1.3h1.2v1.4h2.7v1.1h-2.7v2.7h-1.2v-.5h-1.8v1.3h4.9v3.8h-1.2v-.5h-3.7c0 .4-.1.9-.1 1.2h5.1v1h-5.2c0 .5-.1.9-.2 1.2h6v1h-5.2c1.1 1.3 2.9 2 5.5 2.2-.4.4-.7.8-.9 1.3-2.9-.5-4.8-1.6-5.7-3.5h-.1c-.8 1.7-2.7 2.9-5.9 3.6-.2-.4-.6-.8-.9-1.1 2.8-.6 4.6-1.4 5.4-2.5h-4.8v-1h5.3c.1-.3.2-.7.2-1.2h-4.9v-1h5c0-.4 0-.8.1-1.2h-3.6v.5h-1.2v-3.8h4.9v-1.3h-1.8v.5h-1.2v-2.7h-2.6v-1.1h2.6v-1.4h1.2v1.4h4.7v-1.4zm-6.7 8.4h3.6c0-.4 0-.9 0-1.4h-3.6zm1.9-4.7h4.7v-1.2h-4.7zm6.7 3.3h-3.7v1.4h3.7z"/><path d="m384.7 21.4h1.3v2.2h2.8v-2.2h1.3v2.2h4.1v9.1h1.7v1.3h-16.9v-1.3h1.7v-9.1h4.1v-2.2zm.3 13.2.7 1.2c-1.8.9-3.8 1.9-6 2.9-.2-.4-.5-.8-.8-1.3 2.4-1 4.4-2 6.1-2.8zm-3.1-6.5h2.8v-3.2h-2.8zm0 4.6h2.8v-3.3h-2.8zm4.1-4.6h2.8v-3.2h-2.8zm0 4.6h2.8v-3.3h-2.8zm3.6 1.9c2.1.9 4.1 1.8 6.1 2.7l-.7 1.3c-2.2-1.1-4.2-2-6.1-2.9zm3.3-9.7h-2.8v3.2h2.8zm-2.8 7.8h2.8v-3.3h-2.8z"/></g></svg>