<svg enable-background="new 0 0 400 400" viewBox="0 0 400 400" xmlns="http://www.w3.org/2000/svg"><g fill="#000001"><path d="m248.25 232.04v22.23c8.8-.94 17.39-1.53 25.87-2.85 9.16-1.42 18.19-3.59 27.31-5.31 4.89-.92 9.63-.47 13.81 2.6 4.69 3.44 9.67 6.56 13.98 10.42 4.13 3.69 3.45 5.76-.03 10.1-5.78 7.23-11.08 14.85-16.82 22.62 2.53 1.85 4.53 3.01 6.15 4.58 1.18 1.14 1.86 2.79 2.76 4.21-1.53.79-3.01 2.13-4.6 2.27-6.62.57-13.27.77-19.91 1.11-15.44.79-30.88 1.68-46.33 2.3-3.96.16-5.21 1.49-5.5 5.56-.97 13.4-2.43 26.77-3.85 40.13-.59 5.55-3.86 9.6-8.94 14.38-4.44-19.94-2.4-39.04-3.69-57.1-12.33 0-24.25.12-36.17-.06-4.5-.07-8.08.38-9.14 5.78-.23 1.19-2.46 3.02-3.43 2.82-1.69-.34-3.98-1.71-4.49-3.19-1.8-5.14-2.78-10.55-4.38-15.77-2.66-8.69-5.28-17.41-8.52-25.89-1.12-2.94-4.12-5.12-6.03-7.81-1.01-1.42-1.52-3.19-2.25-4.8 1.65-.47 3.31-1.35 4.96-1.33 3.65.06 7.3.99 10.92.82 14.88-.68 29.75-1.63 44.61-2.5 3.48-.2 6.96-.54 10.44-.76 2.76-.17 4.1-1.27 4-4.34-.2-6.25-.06-12.52-.06-19.14-12.01.79-24.07 1.58-36.46 2.4-.27.65-.44 1.72-1.05 2.37-1.39 1.48-3.07 3.91-4.5 3.83-1.84-.11-4.44-1.94-5.15-3.67-2.33-5.66-4.26-11.53-5.77-17.47-2.47-9.67-4.34-19.47-11.81-27-1.03-1.03-.79-3.32-1.14-5.03 1.4-.25 2.8-.71 4.2-.71 1.47 0 3.03.2 4.38.74 10 3.97 20.18 2.54 30.35 1.07 9.18-1.33 18.35-2.78 27.99-4.25.48-8.4.28-16.83-2.89-25.09-1.12-2.91-1.12-6.24-1.64-9.38 3.39.02 6.97-.65 10.12.22 5.39 1.48 10.66 3.65 15.72 6.06 4.06 1.94 5.47 5.34 3.82 9.97-1.77 4.94-3.05 10.06-5.06 16.85 12.67-2.01 23.92-3.76 35.15-5.6 5.95-.98 12.11-4.59 17.83-.76 6.97 4.68 13.48 10.13 19.8 15.68 2.75 2.41.27 4.84-1.68 6.71-6.72 6.43-13.48 12.83-20.03 19.06.25.87.3 1.2.44 1.48 1.03 2.13 2.08 4.26 3.13 6.39-2.39.8-4.75 2.17-7.19 2.32-16.21 1.05-32.45 1.83-49.23 2.73zm-1.16 33.67v28.51c5.25-.41 10.84-.82 16.41-1.29 10.1-.85 20.21-1.65 30.29-2.73 1.39-.15 3.52-1.55 3.78-2.72 1.28-5.66 2.24-11.41 2.89-17.18.37-3.27-.37-6.52-4.49-7.14-2.78-.42-5.64-.86-8.42-.67-13.08.92-26.15 2.06-40.46 3.22zm-61.32 33.47c14.18-1.12 28-2.22 42.47-3.37 0-9.69 0-18.88 0-28.43-15.38 2.12-30.71 4.23-46.49 6.4 1.37 8.62 2.65 16.75 4.02 25.4zm63.92-78.94c11.24-1.1 22.43-2.15 33.59-3.39.98-.11 2.18-1.32 2.65-2.31 1.47-3.14 2.86-6.36 3.87-9.67 2.63-8.61-.35-12.94-9.47-12.57-10.03.41-20.03 1.78-30.64 2.8zm-20.21-22.36c-13.62 1.58-26.93 3.12-40.82 4.73 1.25 7.94 2.43 15.41 3.69 23.38 12.54-1.41 24.68-2.77 37.13-4.16 0-7.94 0-15.55 0-23.95z"/><path d="m295.63 124.29c6.51 5.13 11 10.14 10.5 17.82-.1 1.47-.31 3-.81 4.38-2.95 8.19-6.3 11.22-13.94 4.64-10.97-9.45-21.73-19.14-32.62-28.68-2.12-1.86-4.56-3.36-6.58-5.3-1.88-1.81-3.4-3.99-4.61-6.57 15.22.98 28.95 6.23 43.17 11.22 3.66-7.19 7.48-13.99 10.62-21.09 2.43-5.5-.58-9.8-6.74-9.53-8.96.4-17.91 1.27-26.81 2.38-21.92 2.73-43.8 5.78-65.72 8.54-7.41.93-14.9 1.24-22.3 2.23-1.35.18-2.94 2.09-3.56 3.56-3.8 8.96-6.88 18.27-11.23 26.95-1.75 3.5-5.74 6.39-9.37 8.32-4.74 2.52-9.99-.17-10.5-5.34-.39-3.92-.2-8.78 1.8-11.89 7.44-11.6 12.65-24.05 16.85-37.06.63-1.94 2.51-3.48 3.81-5.2 1.89 1.59 4.12 2.94 5.58 4.86 1.25 1.63 1.63 3.93 2.65 6.61 19.03-2.45 38.22-4.93 56.72-7.31-5.28-6.44-10.91-12.81-15.98-19.61-5.05-6.76-9.54-13.94-11.14-23.12 2.85 0 5.38-.67 7.34.12 8.42 3.37 17.37 6.11 24.82 11.05 9.83 6.52 11.3 17.25 5.83 27.76-.22.42-.24.93-.53 2.13 5.49-.83 10.67-1.44 15.78-2.42 14.48-2.79 28.9-5.9 43.42-8.49 3.27-.58 7.25-.48 10.18.87 8.88 4.08 17.41 8.93 26.07 13.5.58.3 1.05.81 1.53 1.28 4.93 4.77 3.97 8.61-2.41 11.16-7.06 2.82-14.21 5.59-20.9 9.15-6.98 3.74-13.49 8.39-20.92 13.08z"/><path d="m135.82 207.16c-.8 2.79-1.22 5.2-2.16 7.38-13.62 31.57-27.35 63.1-40.97 94.68-2.63 6.09-4.55 12.5-7.4 18.47-2.52 5.28-5.44 5.78-8.9 1.07-3.66-4.99-6.34-10.81-8.85-16.53-1.92-4.37-3.03-9.11-4.28-13.75-1.03-3.82-.38-7.65 2.97-9.9 27.51-18.42 42.05-47.05 58.75-74.01 2.25-3.59 3.62-8.63 10.84-7.41z"/><path d="m86.33 69.66c2.55.4 5.19.48 7.63 1.24 9.93 3.09 19.98 5.91 29.63 9.72 14.92 5.89 13.01 26.81 4.79 35.14-2.46 2.49-5.47 2.4-8.11.29-2.97-2.38-6.11-4.74-8.42-7.7-8.19-10.44-16.09-21.11-23.99-31.77-1.19-1.61-1.78-3.67-2.64-5.52.36-.46.74-.93 1.11-1.4z"/><path d="m157.25 166.35c1.99-1.78 3.03-2.95 4.29-3.8 18.83-12.65 32.78-29.27 41.11-50.47 1.93-4.91 3.9-5.8 8.11-2.91 4.07 2.8 7.87 6.06 11.43 9.5 2.38 2.3 2.96 5.4-.1 7.79-13.7 10.72-25 24.36-40.53 32.87-6.92 3.8-18.08 7.75-24.31 7.02z"/><path d="m101.68 177.71c-.88 3.67-1.36 7.5-2.74 10.97-2.52 6.34-7.57 7.84-11.86 2.8-9.85-11.6-18.98-23.82-28.29-35.87-.64-.83-.29-2.42-.4-3.65 1.2-.11 2.51-.58 3.58-.26 9.48 2.82 19.02 5.5 28.33 8.8 7.8 2.75 11.36 8.78 11.38 17.21z"/></g><path d="m378.6 9.2.8-1c.9.7 1.9 1.4 2.9 2.3l-.9 1.1c-1.1-.9-2-1.7-2.8-2.4zm.5 10.7c.9-2.1 1.6-4.3 2.3-6.7.4.2.8.4 1.3.6-.7 2.1-1.5 4.3-2.2 6.6zm.4-15.2.9-.9c1 .8 2 1.6 2.8 2.4l-1 1c-1-.9-1.9-1.8-2.7-2.5zm12.5-1.3h1.2v1.4h2.7v1.1h-2.7v2.7h-1.2v-.5h-1.8v1.3h4.9v3.8h-1.2v-.5h-3.7c0 .4-.1.9-.1 1.2h5.1v1h-5.2c0 .5-.1.9-.2 1.2h6v1h-5.2c1.1 1.3 2.9 2 5.5 2.2-.4.4-.7.8-.9 1.3-2.9-.5-4.8-1.6-5.7-3.5h-.1c-.8 1.7-2.7 2.9-5.9 3.6-.2-.4-.6-.8-.9-1.1 2.8-.6 4.6-1.4 5.4-2.5h-4.8v-1h5.3c.1-.3.2-.7.2-1.2h-4.9v-1h5c0-.4 0-.8.1-1.2h-3.6v.5h-1.2v-3.8h4.9v-1.3h-1.8v.5h-1.2v-2.7h-2.6v-1.1h2.6v-1.4h1.2v1.4h4.7v-1.4zm-6.7 8.4h3.6c0-.4 0-.9 0-1.4h-3.6zm1.9-4.7h4.7v-1.2h-4.7zm6.7 3.3h-3.7v1.4h3.7z" fill="#fcfbfa"/><path d="m384.7 21.4h1.3v2.2h2.8v-2.2h1.3v2.2h4.1v9.1h1.7v1.3h-16.9v-1.3h1.7v-9.1h4.1v-2.2zm.3 13.2.7 1.2c-1.8.9-3.8 1.9-6 2.9-.2-.4-.5-.8-.8-1.3 2.4-1 4.4-2 6.1-2.8zm-3.1-6.5h2.8v-3.2h-2.8zm0 4.6h2.8v-3.3h-2.8zm4.1-4.6h2.8v-3.2h-2.8zm0 4.6h2.8v-3.3h-2.8zm3.6 1.9c2.1.9 4.1 1.8 6.1 2.7l-.7 1.3c-2.2-1.1-4.2-2-6.1-2.9zm3.3-9.7h-2.8v3.2h2.8zm-2.8 7.8h2.8v-3.3h-2.8z" fill="#fcfbfa"/></svg>