<svg enable-background="new 0 0 400 400" viewBox="0 0 400 400" xmlns="http://www.w3.org/2000/svg"><g fill="#000001"><path d="m33.18 225.45c2.1-2.98 3.58-5.48 5.44-7.67 26.03-30.5 45.95-64.84 61.93-101.37 4.83-11.05 6.21-23.66 8.71-35.65.61-2.92-.5-6.23-.95-9.34-.58-4.03 1.43-6.36 5.29-5.22 8.78 2.59 16.57 7.09 22.31 14.33 1.18 1.48 1.59 5.25.56 6.55-7.75 9.8-10.91 21.88-16.76 32.6-1.58 2.89-2.67 6.04-4.38 9.99 6.83-1.4 13.05-2.45 19.14-3.98 8.36-2.11 16.64-4.52 24.92-6.93 7.01-2.04 13.12.65 18.96 3.77 3.01 1.61 1.98 5.76-2.07 7.16-5.3 1.84-10.85 3.02-16.36 4.19-11.37 2.42-22.73 4.93-34.19 6.83-4.83.8-9.9.13-15.28.13-8.22 13.44-16.67 27.25-25.69 41.98 11.38-2.46 22.04-4.61 32.62-7.11 8.87-2.1 17.62-4.7 26.47-6.9 6.68-1.66 12.76.53 18.42 3.79 1.09.63 2.16 3.12 1.74 4.1-.59 1.37-2.46 2.67-4.02 3.05-9.35 2.26-18.76 4.24-28.15 6.33-2.56.57-5.12 1.15-7.73 1.74.18.55.19.95.35 1.02 10.52 4.78 10.31 4.73 7.65 16.06-1.39 5.9-1.89 12.02-2.95 19.1 7.04-1.79 13.03-2.91 18.74-4.85 8.68-2.95 16.36.02 24.01 3.33 1.15.5 2.48 2.82 2.18 3.87-.4 1.44-2.09 3.22-3.54 3.57-6.76 1.63-13.63 2.87-20.47 4.15-6.03 1.13-12.08 2.18-18.14 3.16-2.78.45-3.69 1.84-3.88 4.68-1.17 18.24-2.57 36.47-3.89 54.7-.47 6.5 2.23 8.6 7.86 5.51 12.39-6.78 24.57-13.96 36.89-20.87 2.23-1.25 4.71-2.05 7.07-3.06.49.43.97.87 1.46 1.3-1.19 2.01-2.01 4.4-3.63 5.98-10.99 10.67-22.26 21.05-33.19 31.77-5.46 5.35-10.46 11.17-15.57 16.86-4.6 5.11-8.08 5.7-12.38.41-4.64-5.7-8.37-12.17-12.15-18.51-.74-1.24-.62-4.01.29-5.06 5.97-6.91 6.96-15.47 7.64-23.83 1.24-15.03 1.64-30.13 2.42-45.83-8.7 1.53-16.79 2.89-24.86 4.38-8.22 1.51-14.85-2.44-21.47-6.24-.84-.48-1.27-2.2-1.26-3.35 0-.41 1.82-1.02 2.87-1.18 13.61-2.09 27.23-4.14 40.86-6.13 3.26-.48 4.83-1.72 4.64-5.46-.49-9.45-.39-18.88-4.47-27.81-1.29-2.83-2.6-3.89-5.67-4.29-6.81-.89-13.53-2.45-21.13-3.89-13.15 12.97-25.61 28.83-43.44 38.67-.63.33-1.78-.23-3.77-.53z"/><path d="m367.1 349.66c-3.88.91-7.72 2.16-11.65 2.67-10.7 1.39-21.41 2.76-32.16 3.6-14.85 1.17-26.77-4.26-36.07-16.19-7.96-10.21-16.72-19.8-25.12-29.65-8.68 6.59-16.81 13.43-25.6 19.29-18.17 12.11-37.3 22.37-58.86 27.26-.65.15-1.36.54-1.93.39-1.46-.38-2.86-.99-4.28-1.52.81-1.38 1.28-3.34 2.48-4.05 9.02-5.3 18.45-9.95 27.26-15.57 17.55-11.19 34.42-23.35 49.04-39.09-9.24-12.3-20.83-21.77-33.28-30.21-6.32 6.76-12.12 13.64-18.65 19.73-5.57 5.19-11.9 9.59-18.08 14.07-1.17.85-3.24.48-4.89.67.52-1.46.76-3.11 1.6-4.35 9.49-14.03 19.47-27.74 28.49-42.06 8.02-12.72 12.8-26.97 16.09-41.62.79-3.51.56-7.29.45-10.94-.13-4.39 2.63-6.46 5.89-4.93 7.12 3.33 13.95 7.42 20.5 11.79 2.95 1.96 1.18 4.53-.64 7.21-4.89 7.18-9.17 14.78-13.14 22.71 18.01-2.72 35.89-3.83 52.1-11.78 4.68-2.3 9.08-2.19 13.21.25 5.83 3.44 11.47 7.26 16.89 11.32 2.56 1.92 3.18 5.1-.01 7.09-8.72 5.43-13.21 14.36-18.97 22.22-7.64 10.41-15.06 20.97-22.89 31.9 2.4 1.83 5.48 4.29 8.68 6.58 19.29 13.84 39.82 25.29 62.58 32.46 5.2 1.64 10.4 3.32 15.48 5.3 2.04.79 3.73 2.46 5.58 3.72-.03.58-.07 1.16-.1 1.73zm-106.93-63.74c7.76-10.38 17.64-19.58 21.86-32.59.97-3.01 1.02-6.32 1.49-9.49-3.18-.1-6.41-.59-9.54-.25-12.49 1.39-24.91 3.36-37.42 4.47-8.25.73-10.75 2.05-13.83 10.17 12.28 9.08 24.52 18.13 37.44 27.69z"/><path d="m260.16 152.28c8.66 2.22 17.3 4.42 25.94 6.65 13.88 3.59 26.98 8.5 36.14 20.48 3.99 5.22 6.24 10.91 5.82 17.52-.54 8.5-7.77 12.69-14.5 7.65-7.96-5.95-15.04-13.06-22.58-19.58-10.92-9.45-21.91-18.83-33.69-28.94-11.83 28.47-34.44 41.9-61.89 48.85-2.26.57-4.89-.34-7.35-.56-.16-.64-.32-1.29-.48-1.93 1.98-1.17 3.87-2.55 5.96-3.49 12.43-5.59 23.49-13.21 33.01-22.89 12.15-12.36 17.16-28.14 20.36-44.64 2.07-10.69 1.19-21.11-3-31.27-1.86-4.52.19-7.34 4.76-5.99 6.76 1.99 13.31 4.9 19.66 7.99 1.29.63 2.11 3.92 1.83 5.79-1.45 9.47-3.13 18.92-5.14 28.29-1.12 5.15-3.03 10.12-4.85 16.07z"/><path d="m302.52 86.19c-30.82 1.44-61.37 4.74-91.47 11.33-9.9 2.17-17.6-.8-24.87-6.69-1.05-.85-1.52-2.4-2.26-3.63 1.35-.75 2.63-1.99 4.06-2.18 13.5-1.79 27.06-3.2 40.54-5.1 18.89-2.67 37.74-5.64 56.6-8.52 7.06-1.08 14.08-2.39 21.15-3.36 11.65-1.59 20.65 3.51 28.12 11.85 1.05 1.17 1.54 3.35 1.32 4.92-.09.65-2.75 1.31-4.25 1.33-9.65.11-19.3.05-28.94.05z"/><path d="m331.34 126.37c-.65.69-1.71 2.81-3.33 3.4-17.39 6.34-34.84 12.5-52.35 18.51-1.85.64-4.15-.01-6.23-.06 1.22-2.06 2.02-4.61 3.73-6.1 9.36-8.17 19.18-15.81 28.31-24.22 3.15-2.9 4.8-7.44 7.03-11.3 1.18-2.04 1.93-4.18 5.16-3.24 6.15 1.77 17.47 15.42 17.68 23.01z"/><path d="m193.87 116.46c11.05 2.67 21.81 4.63 29.36 13.48 3.95 4.63 3.88 15.23.5 20.26-3.1 4.61-8.47 6-11.14 1.95-6.7-10.19-12.57-20.92-18.66-31.51-.48-.84-.06-2.18-.06-4.18z"/></g><path d="m378.6 9.2.8-1c.9.7 1.9 1.4 2.9 2.3l-.9 1.1c-1.1-.9-2-1.7-2.8-2.4zm.5 10.7c.9-2.1 1.6-4.3 2.3-6.7.4.2.8.4 1.3.6-.7 2.1-1.5 4.3-2.2 6.6zm.4-15.2.9-.9c1 .8 2 1.6 2.8 2.4l-1 1c-1-.9-1.9-1.8-2.7-2.5zm12.5-1.3h1.2v1.4h2.7v1.1h-2.7v2.7h-1.2v-.5h-1.8v1.3h4.9v3.8h-1.2v-.5h-3.7c0 .4-.1.9-.1 1.2h5.1v1h-5.2c0 .5-.1.9-.2 1.2h6v1h-5.2c1.1 1.3 2.9 2 5.5 2.2-.4.4-.7.8-.9 1.3-2.9-.5-4.8-1.6-5.7-3.5h-.1c-.8 1.7-2.7 2.9-5.9 3.6-.2-.4-.6-.8-.9-1.1 2.8-.6 4.6-1.4 5.4-2.5h-4.8v-1h5.3c.1-.3.2-.7.2-1.2h-4.9v-1h5c0-.4 0-.8.1-1.2h-3.6v.5h-1.2v-3.8h4.9v-1.3h-1.8v.5h-1.2v-2.7h-2.6v-1.1h2.6v-1.4h1.2v1.4h4.7v-1.4zm-6.7 8.4h3.6c0-.4 0-.9 0-1.4h-3.6zm1.9-4.7h4.7v-1.2h-4.7zm6.7 3.3h-3.7v1.4h3.7z" fill="#fcfbfa"/><path d="m384.7 21.4h1.3v2.2h2.8v-2.2h1.3v2.2h4.1v9.1h1.7v1.3h-16.9v-1.3h1.7v-9.1h4.1v-2.2zm.3 13.2.7 1.2c-1.8.9-3.8 1.9-6 2.9-.2-.4-.5-.8-.8-1.3 2.4-1 4.4-2 6.1-2.8zm-3.1-6.5h2.8v-3.2h-2.8zm0 4.6h2.8v-3.3h-2.8zm4.1-4.6h2.8v-3.2h-2.8zm0 4.6h2.8v-3.3h-2.8zm3.6 1.9c2.1.9 4.1 1.8 6.1 2.7l-.7 1.3c-2.2-1.1-4.2-2-6.1-2.9zm3.3-9.7h-2.8v3.2h2.8zm-2.8 7.8h2.8v-3.3h-2.8z" fill="#fcfbfa"/></svg>