<svg enable-background="new 0 0 400 400" viewBox="0 0 400 400" xmlns="http://www.w3.org/2000/svg"><g fill="#000001"><path d="m44.14 159.74c1.37-1.87 2.54-3.92 4.12-5.59 14.96-15.74 28.61-32.47 39.22-51.49 6.05-10.85 10.05-22.38 10.36-34.97.11-4.2 2.33-6.2 6.1-4.44 6.42 3.01 12.72 6.5 18.47 10.62 4.27 3.05 3.43 5.38.1 9.49-7.3 9-14.14 18.36-21.7 28.26 1.88.15 2.58.42 3.08.21 10.82-4.64 21.57-9.44 32.44-13.94 2.23-.92 5.22-1.67 7.31-.93 6.04 2.15 12.17 4.5 17.56 7.89 5.48 3.44 5.27 6.58-.2 9.7-20.58 11.7-34.36 30.72-50.85 46.82-.21.2-.23.6-.94 2.55 9.39-2.64 18.06-4.34 26.13-7.53 11.63-4.59 26.43-2.03 34.66 7.6 1.39 1.63 2.33 5.63 1.35 6.97-8.18 11.1-9.02 24.49-12.16 37.11-2.76 11.1-4.88 22.36-7.33 33.54-.35 1.61-.61 3.5-1.61 4.66-1.81 2.1-4.37 5.41-6.22 5.17-2.46-.32-4.7-3.41-6.72-5.61-.75-.82-.61-2.46-.98-4.17-10.38 1.27-20.57 2.49-30.75 3.78-9.22 1.17-18.41 2.58-27.65 3.54-3 .31-4.12 1.37-5.04 4.23-.74 2.28-2.82 5.17-4.88 5.75-3.54.98-5.39-2.37-5.96-5.35-1.92-9.93-3.53-19.92-5.16-29.9-1.71-10.47-2.78-21.09-5.15-31.41-1.45-6.31-4.91-12.14-7.29-18.26-.72-1.86-1.8-4.8-.99-5.74 1.23-1.42 3.95-1.75 6.11-2.1 1.22-.2 2.67.28 3.86.82 12.17 5.54 24.4 2.05 36.66.46 3.61-.47 5.86-2.09 7.85-5.11 8.25-12.49 16.78-24.8 25.15-37.22 1.36-2.02 2.43-4.23 3.64-6.35-.23-.46-.46-.91-.69-1.37-6.73 1.29-13.46 2.58-20.18 3.88-.98.19-2.04.87-2.89.65-8.02-2.03-11.88 3.58-16.43 8.44-10.51 11.24-22.25 21.01-35.72 28.58-1.66.93-3.5 1.53-5.26 2.28-.47-.51-.95-1.02-1.42-1.52zm69.45 11.63c5.14 3.86 4.06 7.35 2.82 11.39-1.37 4.47-1.61 9.28-2.5 14.98 10.57-3.43 20.21-4.62 30.44.2.79-8.1.98-15.66.72-23.21-.16-4.75-2.93-7.33-7.87-6.7-7.36.94-14.69 2.07-23.61 3.34zm-43.64 34.39c9.83-1.7 18.77-3.25 28.5-4.93-1.04-7.4-1.86-14.27-3.13-21.05-.21-1.11-2.52-2.67-3.77-2.59-7.57.47-15.12 1.36-23.08 2.14.49 8.88.96 17.27 1.48 26.43zm3.6 33.6c8.04-1.26 15.55-2.37 23.03-3.7.77-.14 1.87-1.52 1.89-2.35.16-6.57.09-13.15.09-19.59-9.43.8-18.19 1.55-27.43 2.34.73 7.08 1.53 14.76 2.42 23.3zm68.82-32.41c-10 1.35-18.97 2.56-28.26 3.81v20.93c8.06-.36 16.06-.72 24.48-1.09 1.16-7.26 2.41-15.05 3.78-23.65z"/><path d="m279.17 249c6.42 3.73 12.26 6.79 17.73 10.4 3.69 2.43 3.39 5.3.83 9.25-7.02 10.83-13.31 22.13-19.89 33.24.28.4.56.81.85 1.21 5.78-.82 11.6-1.47 17.35-2.5 9.47-1.7 18.86-3.9 28.35-5.43 12.33-1.98 23.03 2.16 31.97 10.44 2.26 2.09 2.89 5.94 4.26 8.97-3.01.92-6.01 2.59-9.04 2.64-16.31.27-32.64-.04-48.95.2-36.8.55-73.1 4.85-108.91 13.71-10.68 2.64-20.28-3.29-29.24-8.71-1.04-.63-1.53-3.95-.83-5.24.81-1.5 3.14-2.83 4.93-3.01 6.77-.69 13.62-.65 20.39-1.33 13.33-1.34 26.62-2.99 39.38-4.44-4.24-12.87-8.22-25.45-12.59-37.9-1.33-3.79-4.15-7.05-5.58-10.83-2.09-5.52-3.85-11.22-5.17-16.97-1.44-6.3-2.08-12.77-3.31-19.12-1.19-6.14-3.83-11.6-8.23-16.19-.88-.92-1.68-3.04-1.21-3.82.57-.95 2.71-1.74 3.85-1.43 17.17 4.58 33.52-1.24 50.07-3.9 12.75-2.05 25.36-4.94 38.05-7.4 1.26-.25 2.78-.59 3.87-.13 8.47 3.56 16.55 7.7 22.18 15.46 2.14 2.95 1.74 5.33-.95 7.24-8.21 5.83-12.42 14.54-17.1 22.98-1.42 2.56-2.08 4.63.35 7.03.92.91 1.8 3.35 1.34 3.87-.92 1.03-2.77 1.55-4.27 1.65-3.42.21-6.84.06-10.48.06zm-42.57 58.4c9.66-.92 19.07-1.68 28.43-2.86 1.42-.18 3.31-2.07 3.75-3.54 1.83-6.04 3.66-12.14 4.59-18.36 1.22-8.12 1.69-16.37 2.24-24.57.17-2.5-.45-5.06-.73-7.8.03 0-.47-.2-.94-.14-17.59 2.31-35.18 4.6-52.75 7.09-1.24.18-2.26 1.87-3.49 2.95 15.21 12.51 27.6 25.53 18.9 47.23zm-16.29-62.95c.84.17 1.18.35 1.48.29 16.93-3.07 33.86-6.09 50.75-9.36 1.35-.26 3.01-1.96 3.47-3.35 1.77-5.34 3.33-10.77 4.57-16.26 1.35-5.95-1.8-9.83-7.87-9.72-5.13.09-10.33.24-15.36 1.12-13.14 2.3-26.2 5.02-39.64 7.64.93 10.61 1.75 19.98 2.6 29.64z"/><path d="m371.66 177.69c-1.95 1.11-3 1.98-4.21 2.36-9.03 2.8-18.06 5.55-27.13 8.2-9 2.64-16.12-.51-21.37-7.82-7.84-10.93-15.46-22.03-23.04-33.15-7.31-10.72-14.48-21.53-21.66-32.33-4.49-6.75-9.78-12.55-17.14-16.34-1.44-.74-2.19-2.83-3.26-4.3 1.64-1.13 3.24-3.12 4.94-3.2 3.13-.15 4.77-1.56 6.22-4 3.06-5.14 6.74-9.98 9.26-15.36 2.2-4.69 3.53-9.89 4.55-15 .85-4.3 3.22-6.6 6.66-4.12 5.15 3.72 9.8 8.32 13.98 13.13 2.26 2.61.84 5.16-2.47 7.14-9.92 5.95-19.56 12.37-29.2 18.54 8.01 7.34 15.18 13.92 22.47 20.6 7.5-10.98 19.71-21.6 23.56-37.72 1.23-5.17 3.69-6.2 7.82-3.03 4.68 3.6 9.33 7.56 12.89 12.21 4.71 6.16 3.13 7.89-3.56 11.43-13.14 6.95-25.79 14.84-38.97 22.53 10.94 14.37 21.76 27.11 36.03 35.96 13.87 8.61 28.52 15.94 43.63 24.27z"/><path d="m202.49 141.93c-5.22-9-9.24-16.03-13.36-23-1.52-2.56-3.37-4.93-4.88-7.5-.61-1.03-.72-2.36-1.06-3.55 1.35-.17 2.89-.85 4.04-.44 9.06 3.24 17.04 8.07 22.46 16.37 6.42-8.34 13.94-29.89 12.47-37.43-4.87 1.73-9.56 3.58-14.36 5.02-3.91 1.17-7.95 1.94-11.97 2.69-1.06.2-2.54.03-3.35-.59-2.01-1.54-3.74-3.43-5.58-5.18 1.93-.94 3.76-2.28 5.79-2.75 12.01-2.77 23.76-6.07 34.46-12.55 2.03-1.23 5.63-1.9 7.53-.92 5.38 2.76 10.46 6.27 15.19 10.06 1.09.88 1.3 5.03.28 6.04-8.98 8.95-13.27 20.66-18.78 31.56-9.36 18.5-19.65 36.34-34.8 50.71-6.09 5.78-13.4 10.31-20.32 15.17-1.6 1.13-3.88 1.3-6.32 1.02 11.11-15.25 22.22-30.52 32.56-44.73z"/><path d="m228.29 177.09c-5.55.01-11.07-.3-15.15-4.76-1.01-1.11-2.16-3.07-1.8-4.17.34-1.05 2.5-1.89 3.97-2.14 15.84-2.71 31.94-4.22 46.95-10.64 8.45-3.61 15.65.01 22.34 4.62 3.65 2.52 3.09 5.92-1.15 6.86-18.25 4.08-36.57 7.79-54.87 11.64-.09-.47-.19-.94-.29-1.41z"/><path d="m50.38 267.54c4.81 8.5 6.39 17.83 5.55 27.51-1.06 12.2-4.33 23.76-11.14 34.17-4.1 6.26-8.81 6.57-11.78-.14-3.25-7.35-4.98-15.43-.44-22.94 6.48-10.73 12.24-21.64 13.86-34.32.2-1.58 1.5-3.03 2.29-4.54.56.08 1.11.17 1.66.26z"/><path d="m132.75 263.38c2.79 1.18 5.77 2.06 8.35 3.61 6.64 4 13.57 7.71 19.5 12.61 7.48 6.16 6.03 20.78.91 27.62-.95 1.27-5 1.82-6.33.88-2.71-1.92-5.06-4.8-6.64-7.77-5.38-10.12-10.39-20.44-15.46-30.72-.75-1.53-1.03-3.29-1.53-4.95.39-.42.8-.85 1.2-1.28z"/><path d="m97.19 300.52c-1.86 3.74-3.56 7.56-5.62 11.19-1.74 3.06-4.34 2.89-6.6.62-1.96-1.97-4.17-4.07-5.16-6.55-3.96-9.98-7.46-20.14-11.17-30.23-1.38-3.75 1.14-4.65 3.45-3.45 9.93 5.18 20.61 9.81 23.42 22.47.39 1.76.51 3.58.75 5.37.31.19.62.39.93.58z"/><path d="m129.62 293.84c-1.39 5.35-2.37 9.38-3.5 13.36-1.03 3.66-3.58 4.03-5.96 1.71-3.3-3.21-6.96-6.52-8.91-10.54-3.75-7.73-6.46-15.96-9.47-24.04-.4-1.08-.07-2.43-.07-3.65 1.22 0 2.75-.48 3.62.07 6.29 3.96 12.92 7.58 18.45 12.43 3.07 2.69 4.23 7.55 5.84 10.66z"/></g><path d="m378.6 9.2.8-1c.9.7 1.9 1.4 2.9 2.3l-.9 1.1c-1.1-.9-2-1.7-2.8-2.4zm.5 10.7c.9-2.1 1.6-4.3 2.3-6.7.4.2.8.4 1.3.6-.7 2.1-1.5 4.3-2.2 6.6zm.4-15.2.9-.9c1 .8 2 1.6 2.8 2.4l-1 1c-1-.9-1.9-1.8-2.7-2.5zm12.5-1.3h1.2v1.4h2.7v1.1h-2.7v2.7h-1.2v-.5h-1.8v1.3h4.9v3.8h-1.2v-.5h-3.7c0 .4-.1.9-.1 1.2h5.1v1h-5.2c0 .5-.1.9-.2 1.2h6v1h-5.2c1.1 1.3 2.9 2 5.5 2.2-.4.4-.7.8-.9 1.3-2.9-.5-4.8-1.6-5.7-3.5h-.1c-.8 1.7-2.7 2.9-5.9 3.6-.2-.4-.6-.8-.9-1.1 2.8-.6 4.6-1.4 5.4-2.5h-4.8v-1h5.3c.1-.3.2-.7.2-1.2h-4.9v-1h5c0-.4 0-.8.1-1.2h-3.6v.5h-1.2v-3.8h4.9v-1.3h-1.8v.5h-1.2v-2.7h-2.6v-1.1h2.6v-1.4h1.2v1.4h4.7v-1.4zm-6.7 8.4h3.6c0-.4 0-.9 0-1.4h-3.6zm1.9-4.7h4.7v-1.2h-4.7zm6.7 3.3h-3.7v1.4h3.7z" fill="#fcfbfa"/><path d="m384.7 21.4h1.3v2.2h2.8v-2.2h1.3v2.2h4.1v9.1h1.7v1.3h-16.9v-1.3h1.7v-9.1h4.1v-2.2zm.3 13.2.7 1.2c-1.8.9-3.8 1.9-6 2.9-.2-.4-.5-.8-.8-1.3 2.4-1 4.4-2 6.1-2.8zm-3.1-6.5h2.8v-3.2h-2.8zm0 4.6h2.8v-3.3h-2.8zm4.1-4.6h2.8v-3.2h-2.8zm0 4.6h2.8v-3.3h-2.8zm3.6 1.9c2.1.9 4.1 1.8 6.1 2.7l-.7 1.3c-2.2-1.1-4.2-2-6.1-2.9zm3.3-9.7h-2.8v3.2h2.8zm-2.8 7.8h2.8v-3.3h-2.8z" fill="#fcfbfa"/></svg>