<svg enable-background="new 0 0 400 400" viewBox="0 0 400 400" xmlns="http://www.w3.org/2000/svg"><g fill="#010103"><path d="m251.17 240.04c0 8.54.08 15.63-.01 22.72-.36 26.31-.38 52.63-1.36 78.92-.37 9.99-2.94 19.91-4.66 29.84-.27 1.57-1.19 3.12-2.15 4.44-.9 1.25-2.3 3.08-3.38 3.01-1.19-.08-2.89-1.84-3.28-3.18-2.64-9.04-5.38-18.09-7.33-27.29-2.04-9.61-.18-19.03 2.32-28.49 1.9-7.17 2.83-14.72 3.18-22.15.95-20.1 1.37-40.22 2-60.34-.4-.11-.81-.23-1.21-.34-.87 1.48-1.78 2.94-2.62 4.43-14.71 26.16-33.15 49.1-58 66.34-6.4 4.44-13.31 8.17-20.14 11.94-2.35 1.3-5.18 1.75-7.78 2.58-.35-.43-.7-.86-1.05-1.3 1.94-2.46 3.57-5.26 5.87-7.32 16.21-14.49 31.02-30.31 43.46-48.08 10.83-15.47 20.55-31.7 30.77-47.6-.44-.4-.87-.81-1.31-1.21-9.06 1.88-18.11 3.74-27.16 5.64-9.83 2.06-24.65-4.31-28.87-13.36 3.62-.51 6.88-1.09 10.16-1.4 18.96-1.79 37.93-3.52 57.06-5.28 0-12.19 0-23.1 0-34.31-8.33.98-16.4 1.8-24.41 3-1.19.18-2.13 2.09-3.18 3.2-1.51 1.58-3.01 3.16-4.52 4.75-1.25-1.86-3.16-3.56-3.63-5.59-2.55-10.97-4.92-21.99-7.02-33.06-2.82-14.83-4.99-29.79-8.17-44.54-1.23-5.72-4.61-10.96-6.69-16.54-.75-2-.56-4.36-.8-6.55 1.87-.03 3.89-.55 5.59-.03 16.75 5.2 33.4 2.18 49.76-1.32 17.83-3.81 35.73-7.95 52.86-14.02 9.5-3.37 17.21-2.63 24.95 2.09 7.89 4.8 15.65 10.01 22.67 15.98 5.11 4.35 4.29 8.01-.85 12.43-6.88 5.92-10.91 13.63-14.23 21.94-6.65 16.64-13.42 33.25-20.6 49.66-1.77 4.05-5.29 7.33-8.01 10.96-.57-.15-1.13-.29-1.7-.44-1.19-2.98-2.37-5.96-3.83-9.61-10.33 1.45-21.11 2.97-32.17 4.53v34.86c8-.81 15.93-1.09 23.66-2.5 12.39-2.26 24.65-5.23 36.95-7.96 12.01-2.67 22.46.07 30.93 9.13 1.34 1.44 3.05 4.5 2.46 5.35-1.09 1.59-3.68 2.78-5.76 2.97-6.78.64-13.62.58-20.41 1.1-21.55 1.63-43.09 3.35-64.62 5.26-1.27.11-3.2 2.11-3.4 3.44-1.06 7.06.52 12.68 6.79 17.69 12.99 10.39 25.18 21.78 37.56 32.91 16.39 14.73 34.49 26.48 55.54 33.53 7.07 2.37 13.85 5.59 20.71 8.56 2.06.89 3.93 2.22 7.04 4.02-2.84 1.22-4.48 2.37-6.23 2.6-18.14 2.44-36.32 4.62-54.56 1-6.87-1.37-12.51-4.55-16.88-10.49-15.47-21.05-31.28-41.86-46.97-62.75-.62-.89-1.44-1.66-3.34-3.77zm.33-85.71c1.94-.47 3.31-.97 4.72-1.12 6.55-.72 13.16-2.2 19.64-1.77 7.18.47 8.44.62 11.42-6.06 1.01-2.26 2.11-4.59 2.55-6.99 3.32-17.9 6.73-35.79 9.6-53.77 1.25-7.86-2.42-11.55-10.39-11.49-4.97.04-9.95.45-14.89 1.04-8.33 1.01-16.63 2.29-24.8 3.44-.1.59-.19.77-.14.89.19.45.36.95.67 1.31 4.6 5.3 5.73 11.14 3.94 18.03-1.04 3.99-.62 8.36-.85 12.52 6.37-.88 11.92-1.98 17.52-2.29 3.79-.21 8.58.5 9.34 4.84.73 4.25-3.99 5.17-7.15 6.22-6.39 2.13-12.92 3.86-19.59 5.81-.52 9.64-1.04 19.2-1.59 29.39zm-15.86 3.46c0-10.39 0-20.29 0-29.81-7.44-1.99-14.44-3.86-21.45-5.74.05-.59.11-1.19.16-1.78 1.94-.76 3.83-1.69 5.82-2.23 4.32-1.17 8.74-1.97 13-3.31 1.17-.37 2.69-2.13 2.69-3.25 0-10.08-.3-20.17-.52-31.08-10.84 1.71-20.57 3.24-30.56 4.82 1.55 25.78 3.07 51.08 4.63 76.95 8.97-1.57 17.45-3.05 26.23-4.57z"/><path d="m20.74 358.73c26.68-17.41 50.67-37.71 69.17-62.71-6.8-6.19-13.93-12.08-20.28-18.73-3.49-3.65-5.89-8.44-8.29-12.98-.97-1.83-1.6-5.3-.61-6.35 1.34-1.42 4.5-1.96 6.69-1.62 14.86 2.26 23.06 10.55 26.63 26.4.4 1.76.82 3.51 1.52 6.51 5.36-7.69 10.52-14.36 14.88-21.52 7.58-12.48 14.67-25.26 21.95-37.91.25-.43.5-.91.54-1.38.26-2.86.46-5.74.68-8.6-2.81-.05-5.72-.59-8.4-.04-4.21.86-8.44 2.07-12.36 3.81-6.94 3.07-12.23 1.06-16.81-4.34-.63-.74-1.31-1.44-2.17-2.38-20.17 16.07-39.44 33.32-65 39.92-.38-.46-.75-.92-1.13-1.38 1.59-1.66 3.06-3.45 4.8-4.94 12.08-10.42 24.78-20.21 36.16-31.34 9.71-9.5 18.41-20.25 22.36-33.77 2.47-8.45 4.4-9.57 12.56-5.77 3.59 1.67 7.11 3.69 10.26 6.07 4.32 3.28 4.13 5.54.06 9.15-5.55 4.92-11.05 9.89-16.24 15.38 12.65-1.22 25.27-1.58 36.78-7.22 11.14-5.45 27.78.87 31.81 12.62.63 1.83-.24 5.21-1.66 6.54-9.82 9.15-16.02 20.77-22.45 32.2-19.96 35.47-45.9 65.64-78.92 89.54-10.31 7.46-21.53 13.2-34.21 15.62-1.14.22-2.28.51-3.43.6-1.32.1-2.65.02-3.97.02-.32-.47-.62-.94-.92-1.4z"/><path d="m33.62 140.05c4.31-5.11 8.63-10.2 12.94-15.32 15.6-18.54 29.1-38.52 39.66-60.33 2.6-5.36 3.78-11.61 4.6-17.59 1.1-8.1 3.57-9.91 10.57-5.79 4.56 2.69 9 5.73 12.98 9.21 4.23 3.7 3.86 6.83.33 11.16-7.53 9.23-14.88 18.6-21.89 28.53 14.13-.19 28.21.96 40.5-7.41 5.39-3.67 10.5-4.29 15.64-.33 4.13 3.19 7.76 7.21 10.89 11.39.95 1.27.33 5.4-.97 6.4-15.8 12.14-26.79 28.65-39.81 43.3-15.49 17.42-30.81 35.04-49.64 49.05-11.96 8.9-25 15.81-39.33 20.16-1.18.36-2.46.4-4.12-.07 19.4-16.69 40.67-31.16 56.45-51.15-5.21-6.48-10.51-12.78-15.43-19.37-1.74-2.33-2.93-5.25-3.74-8.08-1.65-5.84 1.73-9.18 7.54-7.59 9.43 2.58 16.24 8.15 19.36 17.69.72 2.21 1.42 4.42 2.4 7.47 7.51-9.99 14.79-19.42 21.78-29.06 4.09-5.64 8.03-11.44 11.44-17.51 2.8-4.98 1.13-7.44-4.47-6.67-5.22.72-10.38 2.19-15.41 3.81-6.15 1.97-11.03.22-15.36-4.11-.93-.93-1.91-1.8-2.94-2.77-14.92 16.14-28.85 33.09-48.23 44.02-1.5.85-3.17 1.41-4.76 2.1-.33-.39-.66-.77-.98-1.14z"/></g><path d="m6.8 9.5c.6.3 1.3.7 2.1 1.1-.4.4-.7.8-.9 1.2-.7-.4-1.3-.8-1.8-1.1s-1.1-.6-1.6-.8c.2-.4.5-.8.7-1.2.4.2.8.5 1.5.8zm.9 6.9c-.3.6-.5 1.1-.7 1.7s-.4 1.1-.6 1.7c-.6-.4-1.1-.7-1.6-1 .7-1 1.2-1.8 1.5-2.4.3-.5.6-1.1.8-1.7.3-.6.5-1.2.8-1.8.3.3.8.6 1.3.8-.7 1.3-1.2 2.2-1.5 2.7zm.1-11c.4.3 1 .7 1.7 1.1-.5.2-.8.6-1.1 1.1-.5-.6-1-1-1.4-1.2s-.9-.6-1.5-.8c.2-.4.5-.7.9-1.1.5.3.9.6 1.4.9zm10.5 13.1c1 .4 2 .6 3.1.7-.4.4-.7.8-.8 1.3-.9-.2-1.9-.6-3-.9-1-.4-2-.9-2.8-1.6-.5.4-1.1.9-1.9 1.3s-1.9.9-3.3 1.2c-.1-.3-.5-.8-1.1-1.3 1 0 2.1-.3 3.2-.8 1.2-.5 1.9-1 2.3-1.7h-3.2c-.4 0-1 0-2 .1v-1.2c1 0 1.7.1 2 .1h3.3v-1h-2.3c-.2 0-.9 0-2 .1v-1.2c1.2 0 1.9.1 2 .1h2.3v-.8h-4.1c0-.7.1-1.2.1-1.6 0-.5 0-1.1-.1-1.8h4.1v-.7h-2.5c0-.6.1-1.1.1-1.6v-.6h-.5c-.4 0-1 0-1.8.1v-1.3c1.2 0 1.9.1 2.1.1h.2c0-.3 0-.8-.1-1.4h1.4c0 .6-.1 1-.1 1.4h3.4c0-.4 0-.8-.1-1.3h1.5c0 .4-.1.9-.1 1.3.7 0 1.5 0 2.5-.1v1.2c-1 0-1.8-.1-2.5-.1v.6c0 .3 0 .8.1 1.5h-2.5v.8h4.1c0 .8-.1 1.3-.1 1.8s0 1 .1 1.5h-4.1v.8h1.4c.8 0 1.8 0 2.9-.1v1.2c-1 0-1.9-.1-2.8-.1h-1.5v1h3.2c.3 0 1 0 2.1-.1v1.2c-1.1 0-1.8-.1-2.1-.1h-3.4l-.1.1c1.4 1 2.4 1.5 3.4 1.9zm-4.1-6.7v-1.3h-2.7v1.3zm2.2-4.1v-1.1h-3.4v1.1zm1.9 4.1v-1.3h-2.8v1.3z" fill="#fafbfc"/><path d="m37 6.7v2.3 5.4c1 0 1.8 0 2.2-.1v1.3c-.6 0-1.5-.1-2.5-.1h-11.9c-.7 0-1.3 0-1.8.1v-1.3c.5 0 1.1.1 2 .1v-5.2c0-1 0-1.8-.1-2.5h3.7c0-1.3 0-2.1-.1-2.5h1.5c0 .4-.1 1.3-.1 2.5h2.2c0-1.2 0-2.1-.1-2.6h1.5c0 .4-.1 1.3-.1 2.6zm-12.3 13.7c-.3-.4-.7-.8-1.1-1.1 1.1-.4 2.1-.9 2.9-1.3.8-.5 1.5-1 2.1-1.6.4.4.9.8 1.3 1.1-2.5 1.4-4.2 2.4-5.2 2.9zm3.9-10.1v-2.4h-2.2v2.4zm0 4.1v-2.9h-2.2v2.9zm3.5-4.1v-2.4h-2.2v2.4zm0 4.1v-2.9h-2.2v2.9zm.4 2.9 1-1.1c.6.3 1.4.7 2.5 1.3s2 1.1 2.7 1.5c-.4.4-.8.8-1.1 1.3-.8-.8-2.5-1.7-5.1-3zm3.1-7v-2.4h-2.1v2.4zm0 4.1v-2.9h-2.1v2.9z" fill="#fafbfc"/></svg>