<svg enable-background="new 0 0 400 400" viewBox="0 0 400 400" xmlns="http://www.w3.org/2000/svg"><g fill="#010103"><path d="m245.5 231.1c-7.79.71-10.43 4.63-12.68 9.93-10.03 23.64-21.47 46.63-38.58 66.04-20.14 22.85-43.8 40.76-73.92 48.64-.61.16-1.26.17-3.35.43 2.07-2.25 3.15-3.76 4.55-4.9 10.19-8.31 20.7-16.24 30.63-24.85 27.89-24.19 48.16-53.98 63.1-87.55.18-.4.18-.89.35-1.81-9.86 1.77-19.48 3.41-29.05 5.24-11.1 2.12-24.41-3.57-30.97-14.02 2.17-.58 4.06-1.35 6-1.56 18.48-2 36.97-3.86 55.43-5.94 1.53-.17 3.84-1.38 4.21-2.59 2.75-8.99 5.1-18.11 7.84-28.16-5.11.68-9.02 1.02-12.86 1.74-8.13 1.53-15.64.21-22.05-5.04-1.84-1.51-2.58-4.35-3.82-6.58 2.17-1.03 4.24-2.6 6.52-2.98 9.66-1.63 19.36-3.04 29.08-4.24 4.39-.54 6.79-2.24 7.13-6.96.53-7.39 1.5-14.74 2.37-22.92-7.25 1.01-13.32 1.61-19.29 2.76-9.41 1.81-17.85-.23-25.51-5.71-1.2-.86-2.66-2.69-2.46-3.81.19-1.08 2.25-2.36 3.66-2.62 8.97-1.64 18.09-2.53 26.96-4.57 22.3-5.12 44.53-10.56 66.7-16.2 9.3-2.36 18.14-2.91 26 3.47 2.01 1.63 4.52 4.62 4.2 6.57-.31 1.89-3.76 4.18-6.16 4.65-12.54 2.46-25.17 4.4-37.78 6.53-8.44 1.43-16.88 2.87-26.21 4.46 3.07 2.75 5.48 4.92 7.9 7.09 2.65 2.38 3.42 4.88 1.63 8.38-2 3.91-3.29 8.18-5.3 13.35 8.27-1.78 15.48-3.6 22.79-4.83 5.81-.98 11.73-1.61 17.62-1.69 3.92-.05 7.88 2.53 7.47 6.43-.27 2.48-3.99 5.74-6.79 6.58-12.69 3.81-25.55 7.1-38.45 10.11-4.17.98-6.02 2.8-6.88 6.95-1.74 8.44-4.07 16.77-6.37 26 4.62-.39 8.81-.6 12.95-1.13 16.79-2.18 33.56-4.55 50.36-6.67 11.96-1.5 22.99.53 31.5 9.93 1.78 1.96 2.71 4.69 4.03 7.07-2.65.98-5.31 2.81-7.96 2.81-13.14 0-26.29-.7-39.43-.74-12.06-.04-24.12.44-36.18.7-.16.42-.32.85-.48 1.27 3.43 3.25 6.74 6.65 10.33 9.73 4.11 3.52 5.49 7.82 4.29 12.93-2.55 10.81-6.1 21.47-7.6 32.42-1.58 11.6-2.1 23.49-1.53 35.19.56 11.55 6.62 20.01 18.72 22.85 17.53 4.11 35.09 5.39 52.74.74 9.16-2.41 15.95-7.79 20.73-15.98 7.24-12.42 10.72-26.04 13.28-40 .47-2.56 1.26-5.06 1.9-7.58h1.28c.66 4.39 1.49 8.77 1.94 13.18 1.71 16.69 2.62 33.48 8.36 49.52 1.81 5.06-1.48 8.95-5.45 11.13-6.36 3.49-13 6.72-19.88 8.97-23.82 7.79-48.14 10.17-72.64 3.77-14.58-3.8-27.54-10.44-32.77-26.2-3.61-10.89-4.21-22.13-3.26-33.49 1.5-18.05 3.53-36.08 4.33-54.16.27-7.27-2.06-14.63-3.22-22.08z"/><path d="m112.84 169.25c10.48-2.63 20.15-4.89 29.69-7.6 1.55-.44 3.55-2.75 3.65-4.3.46-7.07.72-14.2.24-21.25-.34-5.04.62-7.03 4.95-5.08 7.06 3.18 13.91 7.02 20.3 11.39 3.58 2.45 3.88 7.25 1.76 10.96-10.6 18.52-14.15 39.65-22.22 59.09-4.96 11.94-10.59 23.6-16.17 35.95 1.34.89 3.12 1.99 4.82 3.21 5 3.58 9.94 7.25 14.95 10.8 10.77 7.63 9.42 21.15 6.15 29.87-1.54 4.12-4.34 3.3-7 .8-8.62-8.08-17.25-16.17-25.89-24.23-1.32-1.23-2.74-2.34-4.4-3.75-22.7 29.88-49 54.06-86.8 61.57-.38-.5-.76-1.01-1.15-1.51 2.9-2.24 5.68-4.66 8.71-6.71 26.01-17.52 47.43-39.57 65.84-66.22-7.37-5.83-14.54-11.65-21.89-17.24-2.49-1.89-3.53-3.48-2.83-6.96 2.59-12.79 4.62-25.69 7.01-39.42-3.8 1.24-6.88 2.22-9.94 3.25-12.4 4.2-24.8 8.42-37.2 12.64-.47.16-.92.4-1.4.49-6.75 1.28-22.73-10.75-23.09-17.71-.07-1.37 1.58-3.57 2.94-4.11 1.89-.75 4.26-.4 6.42-.34 21.33.59 41.93-3.94 62.45-8.96 1.23-.3 2.96-1.77 3.09-2.86 3.76-32.32 10.41-64.4 9.02-97.17-.35-8.24-1.75-16.46-2.99-24.64-.79-5.18.54-7.13 5.23-5.3 7.84 3.07 15.6 6.53 22.93 10.64 5.37 3.01 5.14 6.43 3.35 12.3-4.05 13.29-8.1 26.65-10.83 40.25-3.76 18.7-6.3 37.63-9.34 56.47-.24 1.46-.2 2.94-.36 5.68zm31.43 2.2c-7.51 2.44-13.98 5.46-20.76 6.54-11.16 1.77-16.4 7.52-18.17 18.68-1.75 11.01-5.49 21.71-8.37 32.61 7.57 3.26 14.69 6.32 22.3 9.59 13.56-20.23 19.63-43.15 25-67.42z"/><path d="m254.78 111.93c2.84-4.64 5.69-9.26 8.51-13.91 6.79-11.21 14.22-22.1 20.07-33.78 2.65-5.3 2.18-12.16 3.11-18.31.28-1.87-.08-4.79.93-5.38 1.55-.9 4.49-.96 6.03-.02 6.79 4.12 13.31 8.67 19.86 13.18 1.63 1.12 2.99 2.63 4.43 4.02 4.47 4.32 4.42 7.75-1.19 10.58-14.81 7.46-26.34 19.02-38.69 29.61-5.29 4.53-11.03 8.54-16.65 12.68-1.52 1.12-3.34 1.82-5.02 2.71-.47-.47-.93-.92-1.39-1.38z"/><path d="m236.35 97.59c-1.52 3.81-1.98 9.17-4.79 11.07-4.2 2.86-8.6-1.26-11.72-4.3-9.39-9.16-18.42-18.7-27.53-28.15-1.02-1.06-1.79-2.41-2.47-3.73-2.01-3.91-1.08-5.92 3.2-5.81 12.52.33 24.33 3.47 34.74 10.62 5.03 3.47 7.33 10.59 8.57 20.3z"/></g><path d="m6.8 9.5c.6.3 1.3.7 2.1 1.1-.4.4-.7.8-.9 1.2-.7-.4-1.3-.8-1.8-1.1s-1.1-.6-1.6-.8c.2-.4.5-.8.7-1.2.4.2.8.5 1.5.8zm.9 6.9c-.3.6-.5 1.1-.7 1.7s-.4 1.1-.6 1.7c-.6-.4-1.1-.7-1.6-1 .7-1 1.2-1.8 1.5-2.4.3-.5.6-1.1.8-1.7.3-.6.5-1.2.8-1.8.3.3.8.6 1.3.8-.7 1.3-1.2 2.2-1.5 2.7zm.1-11c.4.3 1 .7 1.7 1.1-.5.2-.8.6-1.1 1.1-.5-.6-1-1-1.4-1.2s-.9-.6-1.5-.8c.2-.4.5-.7.9-1.1.5.3.9.6 1.4.9zm10.5 13.1c1 .4 2 .6 3.1.7-.4.4-.7.8-.8 1.3-.9-.2-1.9-.6-3-.9-1-.4-2-.9-2.8-1.6-.5.4-1.1.9-1.9 1.3s-1.9.9-3.3 1.2c-.1-.3-.5-.8-1.1-1.3 1 0 2.1-.3 3.2-.8 1.2-.5 1.9-1 2.3-1.7h-3.2c-.4 0-1 0-2 .1v-1.2c1 0 1.7.1 2 .1h3.3v-1h-2.3c-.2 0-.9 0-2 .1v-1.2c1.2 0 1.9.1 2 .1h2.3v-.8h-4.1c0-.7.1-1.2.1-1.6 0-.5 0-1.1-.1-1.8h4.1v-.7h-2.5c0-.6.1-1.1.1-1.6v-.6h-.5c-.4 0-1 0-1.8.1v-1.3c1.2 0 1.9.1 2.1.1h.2c0-.3 0-.8-.1-1.4h1.4c0 .6-.1 1-.1 1.4h3.4c0-.4 0-.8-.1-1.3h1.5c0 .4-.1.9-.1 1.3.7 0 1.5 0 2.5-.1v1.2c-1 0-1.8-.1-2.5-.1v.6c0 .3 0 .8.1 1.5h-2.5v.8h4.1c0 .8-.1 1.3-.1 1.8s0 1 .1 1.5h-4.1v.8h1.4c.8 0 1.8 0 2.9-.1v1.2c-1 0-1.9-.1-2.8-.1h-1.5v1h3.2c.3 0 1 0 2.1-.1v1.2c-1.1 0-1.8-.1-2.1-.1h-3.4l-.1.1c1.4 1 2.4 1.5 3.4 1.9zm-4.1-6.7v-1.3h-2.7v1.3zm2.2-4.1v-1.1h-3.4v1.1zm1.9 4.1v-1.3h-2.8v1.3z" fill="#fafbfc"/><path d="m37 6.7v2.3 5.4c1 0 1.8 0 2.2-.1v1.3c-.6 0-1.5-.1-2.5-.1h-11.9c-.7 0-1.3 0-1.8.1v-1.3c.5 0 1.1.1 2 .1v-5.2c0-1 0-1.8-.1-2.5h3.7c0-1.3 0-2.1-.1-2.5h1.5c0 .4-.1 1.3-.1 2.5h2.2c0-1.2 0-2.1-.1-2.6h1.5c0 .4-.1 1.3-.1 2.6zm-12.3 13.7c-.3-.4-.7-.8-1.1-1.1 1.1-.4 2.1-.9 2.9-1.3.8-.5 1.5-1 2.1-1.6.4.4.9.8 1.3 1.1-2.5 1.4-4.2 2.4-5.2 2.9zm3.9-10.1v-2.4h-2.2v2.4zm0 4.1v-2.9h-2.2v2.9zm3.5-4.1v-2.4h-2.2v2.4zm0 4.1v-2.9h-2.2v2.9zm.4 2.9 1-1.1c.6.3 1.4.7 2.5 1.3s2 1.1 2.7 1.5c-.4.4-.8.8-1.1 1.3-.8-.8-2.5-1.7-5.1-3zm3.1-7v-2.4h-2.1v2.4zm0 4.1v-2.9h-2.1v2.9z" fill="#fafbfc"/></svg>