<svg enable-background="new 0 0 400 400" viewBox="0 0 400 400" xmlns="http://www.w3.org/2000/svg"><g fill="#010103"><path d="m151.99 118.49c21.36 1.99 41.1-.37 61.81-5.04-2.68-12.03-5.2-23.81-8.07-35.5-.29-1.19-2.63-2.09-4.18-2.71-5.07-2.01-10.3-3.62-15.28-5.82-1.9-.84-3.29-2.84-4.91-4.32.14-.64.28-1.28.43-1.92 5.28-.72 10.54-1.68 15.84-2.11 27.4-2.19 54.09-7.87 80.49-15.42 7.05-2.02 14.74-2.86 22.05-2.5 4.55.22 9.32 3.15 13.29 5.89 4.21 2.91 3.72 6.87-1.04 8.8-5.01 2.03-10.45 3.13-15.8 4.16-4.53.87-9.18 1.07-14.78 1.67 2.01 2.18 3.61 3.89 5.19 5.62 2.68 2.95 3.46 5.59 1.19 9.72-3.46 6.31-5.68 13.3-8.95 21.28 12.06-2.39 22.91-3.91 33.36-6.84 6.83-1.91 13.03-1.4 18.75 1.75 7.24 3.98 14.17 8.65 20.73 13.67 4.96 3.79 3.76 6.6-1.09 10.46-6.56 5.21-12.65 11.15-18.3 17.36-8.39 9.21-16.2 18.94-24.32 28.39-.96 1.12-2.27 1.95-3.47 2.85-5.41 4.02-7.78 3.07-9.01-3.59-.11-.62-.22-1.25-.4-2.3-8.22 1.09-16.26 1.99-24.24 3.24-24.6 3.85-49.18 7.8-73.75 11.86-1.51.25-3.33 1.4-4.13 2.68-2.73 4.36-4.72 4.78-7.35.24-4.74-8.19-9.23-16.56-13.22-25.14-5.25-11.31-9.79-22.97-18.8-32.06-.6-.63-.8-1.69-2.04-4.37zm111.95 35.69c7.45-.84 13.66-1.69 19.89-2.21 5.37-.45 12.06 1.34 15.81-1.27 4.07-2.83 5.53-9.53 7.93-14.64 1.83-3.9 3.54-7.88 4.96-11.94 1.09-3.1 2.07-6.35 2.36-9.6.54-5.92-1.18-7.74-7.08-7.27-9.09.72-18.15 1.83-27.2 2.96-1.03.13-2.46 1.2-2.78 2.14-4.63 13.63-9.1 27.32-13.89 41.83zm-36.5-43.42c2.36-.37 4.34-.59 6.28-1 6.01-1.27 12.01-2.58 18-3.93 10.93-2.46 11.22-2.44 12.68-13.37 1.11-8.33 1.35-16.78 2.01-25.59-16.65 2.66-32.3 5.16-47.22 7.54 2.04 5.8 4.57 11.38 5.89 17.23 1.38 6.09 1.59 12.46 2.36 19.12zm-45.81 16.87c3.74 13.95 7.34 27.4 10.97 40.96 9.25-1.65 17.98-3.22 27.37-4.9-1.67-13.77-3.28-27-4.96-40.83-11.48 1.64-22.18 3.17-33.38 4.77zm78.35-14c-10.35 2-20.04 3.8-29.67 5.87-.78.17-1.69 2.22-1.63 3.36.36 6.94.97 13.87 1.53 20.81.44 5.57.92 11.14 1.43 17.19 7.51-1.09 14.64-2.13 22-3.2 2.08-14.5 4.13-28.72 6.34-44.03z"/><path d="m106.86 217.17c9.51-3.02 18.39-5.72 27.15-8.76 1.23-.43 2.7-2.52 2.69-3.84-.11-16.64-.37-33.28-.85-49.91-.09-3.26-1.46-6.46-1.84-9.73-.54-4.6 1.35-6.44 5.36-4.54 6.26 2.97 12.32 6.5 18.04 10.41 3.9 2.68 4.31 6.94 3.25 11.65-2.43 10.81-4.47 21.7-6.56 32.58-2.34 12.19-4.26 24.47-7.01 36.57-.86 3.77-3.82 7.07-6.29 11.42-6.35-7.4-3.97-15.67-6.56-23.36-4.93 1.79-9.98 3.32-14.78 5.4-19.27 8.35-37.8 18.08-54.71 30.61-4.39 3.25-8.11 7.39-12.22 11.03-4.92 4.35-6.46 4.03-8.88-1.91-1.5-3.68-3.46-7.38-3.95-11.23-.57-4.45-.32-9.19.61-13.59 1.11-5.27 4.21-10.2 4.89-15.48 2.43-18.72 3.83-37.47-5.21-55.21-.78-1.52-.93-4.11-.12-5.44.57-.93 3.38-1.02 5-.65 3.06.69 6.12 1.68 8.93 3.06 9.57 4.68 12.67 12.05 11.06 23.72-1.55 11.18-2.78 22.41-3.69 33.65-.49 6.1.67 6.88 6.59 5.08 7.46-2.27 14.84-4.85 22.11-7.66 1.33-.51 2.83-2.76 2.84-4.21.17-23.49.21-46.99.07-70.48-.08-13.14-.43-26.29-.86-39.43-.51-15.52-2.66-30.75-8.66-45.26-1.31-3.17-1.95-6.67-2.57-10.07-.54-2.96.99-4.71 4-3.79 10.1 3.08 19.7 7.5 27.16 15.01 2.13 2.14 2.92 7.51 1.87 10.55-3.82 11.12-3.81 22.59-4.18 33.97-.81 24.62-.95 49.27-1.56 73.9-.27 10.8-1.01 21.58-1.5 32.37-.07.96.18 1.93.38 3.57z"/><path d="m207.84 324.07c2.4.53 4.79 1.07 7.19 1.59 5.17 1.12 10.33 2.33 15.53 3.3 3.39.63 5.44-1.26 6.17-4.4.8-3.39 1.74-6.84 1.83-10.28.43-18.28 1.71-36.61-1.72-54.77-.4-2.1-1.1-4.14-1.84-6.85-8.81 1.27-17.51 2.3-26.13 3.81-13.39 2.35-26.72 4.99-40.08 7.55-9.35 1.79-18.46-1.8-24.78-11.61 4.21-.49 8.03-.83 11.81-1.4 13.93-2.12 27.84-4.35 41.77-6.5 20.84-3.22 41.67-6.46 62.52-9.58 17.39-2.61 34.79-5.25 52.23-7.51 9.38-1.22 18.84-2.11 28.28-2.37 9.56-.26 16.47 5.48 22.5 12.15 2.4 2.65 1.56 5.14-2.01 5.82-3.56.68-7.23 1.18-10.84 1.09-29.48-.75-58.85.8-88.14 4.09-2.6.29-5.18.84-8.39 1.38 1.01 1.65 1.72 3.08 2.67 4.33 2.83 3.76 3.17 7.61 1.74 12.17-1.21 3.89-1.77 8.17-1.66 12.25.39 14.29 1.05 28.58 1.87 42.86.88 15.35-2.35 29.41-12.17 41.58-4.84 5.99-7.2 5.66-10.38-1.48-4.94-11.1-13.77-19.05-22.01-27.5-2.46-2.52-4.6-5.37-6.89-8.06.32-.56.63-1.11.93-1.66z"/><path d="m349.07 320.7c-.09 1.09-.08 2.27-.28 3.41-1.44 8.22-5.72 10.05-11.79 4.4-17.52-16.32-34.76-32.95-52.1-49.48-.72-.68-1.52-1.44-1.86-2.33-.72-1.87-1.15-3.85-1.71-5.78 1.89-.23 3.86-.95 5.66-.63 17.82 3.15 33.61 11.26 48.73 20.72 10.88 6.8 12.49 18.11 13.35 29.69z"/><path d="m184.25 211.13c2.09-.73 4.13-1.68 6.28-2.16 28.97-6.53 57.92-13.11 86.96-19.35 4.89-1.05 10.13-.65 15.21-.64 1.38 0 3.05.73 4.05 1.69 1.45 1.39 3.24 3.26 3.3 4.98.05 1.38-2 3.37-3.58 4.16-2.79 1.4-5.87 2.36-8.93 3.05-20.87 4.67-41.62 10.22-62.72 13.41-11.39 1.72-23.4-.55-35.12-1.28-1.89-.12-3.69-1.64-5.54-2.51.03-.46.06-.9.09-1.35z"/><path d="m180.81 269.88c.95 2.82 1.77 4.45 2.04 6.17 3.43 22.21-4.27 40.86-18.82 57.09-4.5 5.01-8.06 3.86-10.46-2.64-3.53-9.54-.65-17.69 4.77-25.7 6.39-9.44 12.19-19.29 18.28-28.93 1.09-1.74 2.35-3.37 4.19-5.99z"/></g><path d="m6.8 9.5c.6.3 1.3.7 2.1 1.1-.4.4-.7.8-.9 1.2-.7-.4-1.3-.8-1.8-1.1s-1.1-.6-1.6-.8c.2-.4.5-.8.7-1.2.4.2.8.5 1.5.8zm.9 6.9c-.3.6-.5 1.1-.7 1.7s-.4 1.1-.6 1.7c-.6-.4-1.1-.7-1.6-1 .7-1 1.2-1.8 1.5-2.4.3-.5.6-1.1.8-1.7.3-.6.5-1.2.8-1.8.3.3.8.6 1.3.8-.7 1.3-1.2 2.2-1.5 2.7zm.1-11c.4.3 1 .7 1.7 1.1-.5.2-.8.6-1.1 1.1-.5-.6-1-1-1.4-1.2s-.9-.6-1.5-.8c.2-.4.5-.7.9-1.1.5.3.9.6 1.4.9zm10.5 13.1c1 .4 2 .6 3.1.7-.4.4-.7.8-.8 1.3-.9-.2-1.9-.6-3-.9-1-.4-2-.9-2.8-1.6-.5.4-1.1.9-1.9 1.3s-1.9.9-3.3 1.2c-.1-.3-.5-.8-1.1-1.3 1 0 2.1-.3 3.2-.8 1.2-.5 1.9-1 2.3-1.7h-3.2c-.4 0-1 0-2 .1v-1.2c1 0 1.7.1 2 .1h3.3v-1h-2.3c-.2 0-.9 0-2 .1v-1.2c1.2 0 1.9.1 2 .1h2.3v-.8h-4.1c0-.7.1-1.2.1-1.6 0-.5 0-1.1-.1-1.8h4.1v-.7h-2.5c0-.6.1-1.1.1-1.6v-.6h-.5c-.4 0-1 0-1.8.1v-1.3c1.2 0 1.9.1 2.1.1h.2c0-.3 0-.8-.1-1.4h1.4c0 .6-.1 1-.1 1.4h3.4c0-.4 0-.8-.1-1.3h1.5c0 .4-.1.9-.1 1.3.7 0 1.5 0 2.5-.1v1.2c-1 0-1.8-.1-2.5-.1v.6c0 .3 0 .8.1 1.5h-2.5v.8h4.1c0 .8-.1 1.3-.1 1.8s0 1 .1 1.5h-4.1v.8h1.4c.8 0 1.8 0 2.9-.1v1.2c-1 0-1.9-.1-2.8-.1h-1.5v1h3.2c.3 0 1 0 2.1-.1v1.2c-1.1 0-1.8-.1-2.1-.1h-3.4l-.1.1c1.4 1 2.4 1.5 3.4 1.9zm-4.1-6.7v-1.3h-2.7v1.3zm2.2-4.1v-1.1h-3.4v1.1zm1.9 4.1v-1.3h-2.8v1.3z" fill="#fafbfc"/><path d="m37 6.7v2.3 5.4c1 0 1.8 0 2.2-.1v1.3c-.6 0-1.5-.1-2.5-.1h-11.9c-.7 0-1.3 0-1.8.1v-1.3c.5 0 1.1.1 2 .1v-5.2c0-1 0-1.8-.1-2.5h3.7c0-1.3 0-2.1-.1-2.5h1.5c0 .4-.1 1.3-.1 2.5h2.2c0-1.2 0-2.1-.1-2.6h1.5c0 .4-.1 1.3-.1 2.6zm-12.3 13.7c-.3-.4-.7-.8-1.1-1.1 1.1-.4 2.1-.9 2.9-1.3.8-.5 1.5-1 2.1-1.6.4.4.9.8 1.3 1.1-2.5 1.4-4.2 2.4-5.2 2.9zm3.9-10.1v-2.4h-2.2v2.4zm0 4.1v-2.9h-2.2v2.9zm3.5-4.1v-2.4h-2.2v2.4zm0 4.1v-2.9h-2.2v2.9zm.4 2.9 1-1.1c.6.3 1.4.7 2.5 1.3s2 1.1 2.7 1.5c-.4.4-.8.8-1.1 1.3-.8-.8-2.5-1.7-5.1-3zm3.1-7v-2.4h-2.1v2.4zm0 4.1v-2.9h-2.1v2.9z" fill="#fafbfc"/></svg>