<svg enable-background="new 0 0 400 400" viewBox="0 0 400 400" xmlns="http://www.w3.org/2000/svg"><g fill="#010103"><path d="m385.07 366.87c-1.86.92-3.62 2.29-5.58 2.69-16.08 3.25-32.11 6.85-48.31 9.3-18.24 2.76-32.29-6.34-45.16-17.95-10.62-9.58-21.44-18.95-32.72-28.9-29.97 27.26-65.19 37.83-105.1 33.75 33.11-9.51 64.78-21.67 91.12-46.06-15.51-17.16-30.95-34.24-46.83-51.8-24.76 37.27-51.41 71.01-96.53 82.62-.43-.51-.87-1.02-1.3-1.53 4.39-3.65 8.57-7.58 13.19-10.91 36.19-26.05 61.73-60.3 77.35-101.81 4.5-11.96 6.54-24.84 10.1-38.81-8.75 1.3-15.6 2.12-22.37 3.36-8.27 1.52-19.68-2.98-24.35-10.43 1.79-.52 3.42-1.43 5.03-1.39 25.37.74 49.71-5.86 74.31-10.47 14.34-2.69 28.61-5.77 41.57-13.25 4.94-2.85 10.92-2.04 15.94.54 7.5 3.85 14.93 7.97 21.85 12.75 4.74 3.27 4.17 7.54-1.09 9.36-11.99 4.13-19.44 12.81-25.7 23.19-5.06 8.4-10.82 16.38-15.91 24.76-4.13 6.8-3.14 8.27 4.69 9.14 11.33 1.26 18.15 9.09 24.26 17.54 2.13 2.95.28 6.04-2.35 7.77-7.51 4.92-10.49 12.13-12.83 20.5-2.49 8.88-6.96 17.2-11.09 27 8.31 5.73 17.04 12.32 26.31 18.01 23.62 14.51 50.03 21.09 76.93 26.09 4.9.91 9.76 2.09 14.64 3.15-.04.61-.05 1.2-.07 1.79zm-189.86-104.7c17.89 14.67 35.57 29.16 53.25 43.66 5.59-6.74 12.76-22.83 14.5-32.32 1.75-9.59.88-10.88-8.5-12.6-14.44-2.65-16.41-7.33-10.11-20.62 6.39-13.49 12.3-27.24 17.66-41.17 3.84-10 .79-13.52-10.08-12.88-5.29.31-10.57 1.08-15.81 1.9-9.74 1.53-19.45 3.26-30.38 5.11 3.63 3.49 6.7 5.85 8.96 8.83 1.34 1.76 2.51 4.87 1.87 6.73-3.6 10.46-7.66 20.78-11.78 31.05-3.02 7.51-6.38 14.89-9.58 22.31z"/><path d="m16.53 359.72c1.95-1.25 4-2.37 5.83-3.78 35.29-27.29 57.26-63.74 72.37-104.98 10.19-27.79 19.52-55.88 23.67-85.22 2.47-17.51 2.99-35.36 3.3-53.07.1-5.44-3.19-11.03-5.31-16.4-2.18-5.5-1.28-7.33 4.8-7.27 3.96.04 8.29-.11 11.78 1.38 10.5 4.48 21.29 4.01 31.92 2.23 23.21-3.87 46.34-8.3 69.39-13.02 5.91-1.21 11.28-4.85 17.15-6.45 5.16-1.4 10.79-2.56 15.99-1.96 9.84 1.14 18.88 5.14 26.77 11.31 6.5 5.08 6.31 9.48-.97 13.18-8.95 4.56-15.23 11.64-20.64 19.81-1.98 2.99-2.37 5.31.25 8.25 2.06 2.31 3.67 5.19 4.85 8.08 1.9 4.62.51 7.47-4.49 8.36-5.85 1.04-11.86 1.19-17.79 1.81-21.98 2.29-43.92 4.91-65.93 6.84-14.24 1.25-28.56 1.66-42.85 2.13-3.38.11-4.82.83-5.64 4.37-7.53 32.82-14.86 65.68-25.8 97.63-9.56 27.91-23.86 53-43.04 75.29-13.76 16-30.69 27.41-51.16 33.2-.9.26-1.86.32-2.8.47-.54-.72-1.1-1.46-1.65-2.19zm127.25-217.77c2.24-.13 4.05-.13 5.83-.35 15.99-1.89 32.03-3.45 47.95-5.84 15.75-2.37 31.37-5.61 47.06-8.39 2.74-.49 4.27-1.28 4.51-4.61.5-6.94 1.77-13.82 2.55-20.75.7-6.24-.84-8.07-7.18-8.69-1.8-.18-3.66-.02-5.47.18-22.78 2.52-45.56 5.05-68.33 7.64-8.5.96-16.99 2.07-25.32 3.09-.53 12.79-1.05 24.89-1.6 37.72z"/><path d="m190.39 29.82c8.07 1.65 16.35 2.63 24.16 5.1 12.26 3.88 16.32 16.04 13.36 27.42-1.11 4.27-4.24 6.41-8.67 5.6-2.73-.5-5.67-1.23-7.94-2.74-11.73-7.78-23.37-15.72-34.8-23.94-1.83-1.32-2.46-4.31-3.64-6.53 2.13-1.03 4.17-2.52 6.42-2.99 3.54-.73 7.23-.78 10.86-1.11.08-.26.17-.54.25-.81z"/></g><path d="m6.8 9.5c.6.3 1.3.7 2.1 1.1-.4.4-.7.8-.9 1.2-.7-.4-1.3-.8-1.8-1.1s-1.1-.6-1.6-.8c.2-.4.5-.8.7-1.2.4.2.8.5 1.5.8zm.9 6.9c-.3.6-.5 1.1-.7 1.7s-.4 1.1-.6 1.7c-.6-.4-1.1-.7-1.6-1 .7-1 1.2-1.8 1.5-2.4.3-.5.6-1.1.8-1.7.3-.6.5-1.2.8-1.8.3.3.8.6 1.3.8-.7 1.3-1.2 2.2-1.5 2.7zm.1-11c.4.3 1 .7 1.7 1.1-.5.2-.8.6-1.1 1.1-.5-.6-1-1-1.4-1.2s-.9-.6-1.5-.8c.2-.4.5-.7.9-1.1.5.3.9.6 1.4.9zm10.5 13.1c1 .4 2 .6 3.1.7-.4.4-.7.8-.8 1.3-.9-.2-1.9-.6-3-.9-1-.4-2-.9-2.8-1.6-.5.4-1.1.9-1.9 1.3s-1.9.9-3.3 1.2c-.1-.3-.5-.8-1.1-1.3 1 0 2.1-.3 3.2-.8 1.2-.5 1.9-1 2.3-1.7h-3.2c-.4 0-1 0-2 .1v-1.2c1 0 1.7.1 2 .1h3.3v-1h-2.3c-.2 0-.9 0-2 .1v-1.2c1.2 0 1.9.1 2 .1h2.3v-.8h-4.1c0-.7.1-1.2.1-1.6 0-.5 0-1.1-.1-1.8h4.1v-.7h-2.5c0-.6.1-1.1.1-1.6v-.6h-.5c-.4 0-1 0-1.8.1v-1.3c1.2 0 1.9.1 2.1.1h.2c0-.3 0-.8-.1-1.4h1.4c0 .6-.1 1-.1 1.4h3.4c0-.4 0-.8-.1-1.3h1.5c0 .4-.1.9-.1 1.3.7 0 1.5 0 2.5-.1v1.2c-1 0-1.8-.1-2.5-.1v.6c0 .3 0 .8.1 1.5h-2.5v.8h4.1c0 .8-.1 1.3-.1 1.8s0 1 .1 1.5h-4.1v.8h1.4c.8 0 1.8 0 2.9-.1v1.2c-1 0-1.9-.1-2.8-.1h-1.5v1h3.2c.3 0 1 0 2.1-.1v1.2c-1.1 0-1.8-.1-2.1-.1h-3.4l-.1.1c1.4 1 2.4 1.5 3.4 1.9zm-4.1-6.7v-1.3h-2.7v1.3zm2.2-4.1v-1.1h-3.4v1.1zm1.9 4.1v-1.3h-2.8v1.3z" fill="#fafbfc"/><path d="m37 6.7v2.3 5.4c1 0 1.8 0 2.2-.1v1.3c-.6 0-1.5-.1-2.5-.1h-11.9c-.7 0-1.3 0-1.8.1v-1.3c.5 0 1.1.1 2 .1v-5.2c0-1 0-1.8-.1-2.5h3.7c0-1.3 0-2.1-.1-2.5h1.5c0 .4-.1 1.3-.1 2.5h2.2c0-1.2 0-2.1-.1-2.6h1.5c0 .4-.1 1.3-.1 2.6zm-12.3 13.7c-.3-.4-.7-.8-1.1-1.1 1.1-.4 2.1-.9 2.9-1.3.8-.5 1.5-1 2.1-1.6.4.4.9.8 1.3 1.1-2.5 1.4-4.2 2.4-5.2 2.9zm3.9-10.1v-2.4h-2.2v2.4zm0 4.1v-2.9h-2.2v2.9zm3.5-4.1v-2.4h-2.2v2.4zm0 4.1v-2.9h-2.2v2.9zm.4 2.9 1-1.1c.6.3 1.4.7 2.5 1.3s2 1.1 2.7 1.5c-.4.4-.8.8-1.1 1.3-.8-.8-2.5-1.7-5.1-3zm3.1-7v-2.4h-2.1v2.4zm0 4.1v-2.9h-2.1v2.9z" fill="#fafbfc"/></svg>