<svg enable-background="new 0 0 400 400" viewBox="0 0 400 400" xmlns="http://www.w3.org/2000/svg"><g fill="#010103"><path d="m107.58 171.68c-18.86 2.9-37.39 9.22-54.84-1.92-.07-.57-.13-1.13-.2-1.7 1.73-.74 3.41-1.67 5.2-2.19 15.14-4.4 30.29-8.78 45.47-13.02 3.18-.89 4.57-2.27 4.46-5.86-.74-23.28-.77-46.6-2.05-69.85-.48-8.81-3.74-17.45-5.51-26.21-.5-2.45-1.25-6.29-.05-7.3 1.66-1.4 5.27-1.45 7.69-.79 6.06 1.67 12.09 3.68 17.81 6.26 8.21 3.71 10.22 8.23 7.8 16.89-7.37 26.47-7.41 53.57-7.3 80.7 0 .29.21.59.34.92 5.84-1.78 11.59-3.94 17.54-5.22 5.16-1.11 10.61-1.71 15.13 2.4 4.73 4.29 4.54 8.88-1.33 11.3-10.09 4.15-20.51 7.47-31.39 11.34v39.99c13.02-8.68 25.61-17.07 38.21-25.47.42.44.85.88 1.27 1.33-3.69 4.53-7.17 9.26-11.12 13.55-8.23 8.94-16.66 17.7-25.13 26.43-2.59 2.66-3.71 5.46-3.68 9.28.18 23.66.37 47.33-.04 70.99-.19 10.76-1.3 21.56-2.83 32.22-1.54 10.79-7.67 19.38-15.65 26.55-5.06 4.55-9.26 3.74-11.63-2.49-4.38-11.55-12.86-19.16-22.86-25.57-3.24-2.08-6.29-4.43-9.43-6.65.23-.62.47-1.25.7-1.87 4.14.41 8.27.81 12.41 1.23.66.07 1.32.18 1.97.29 18.43 3.09 23.97-.78 26.17-19.33 1.23-10.39 1.68-20.88 2.17-31.34.45-9.64.49-19.3.7-28.94.04-1.62 0-3.24 0-6.16-7.77 6.69-14.71 12.48-21.44 18.5-10.42 9.32-20.83 18.64-30.97 28.26-5.38 5.1-11.3 6.5-17.8 3.52-5.25-2.4-10.36-5.36-14.98-8.81-5.38-4.02-4.58-6.72 1.56-9.42 10.03-4.41 20.26-8.52 29.8-13.84 18.68-10.42 35.69-23.26 50.86-38.4 1.31-1.31 2.82-3.25 2.84-4.91.22-14.65.13-29.3.13-44.69z"/><path d="m251.08 132.28c8.79 12.03 8.8 12.04-.3 22.89-8.55 10.21-17.17 20.36-25.65 30.63-1.9 2.3-3.31 5-4.94 7.51.4.56.79 1.12 1.19 1.69 18.06-5.06 36.11-10.11 54.41-15.23-4.38-4.84-8.62-9.23-12.47-13.93-1.21-1.48-1.42-3.78-2.08-5.71 1.86-.43 3.73-1.29 5.57-1.23 10.93.34 21.39 2.79 31.01 8.12 10.6 5.88 16.19 17.69 13.51 28-1.57 6.02-4.06 7.46-9.26 4.37-5.11-3.04-9.68-6.99-14.64-10.3-1.26-.84-3.41-1.52-4.66-1.03-22.06 8.74-44.18 17.36-65.97 26.75-6.92 2.98-13.03 7.94-19.28 12.33-8.31 5.83-12.55 4.47-14.68-5.36-.73-3.37-.89-6.89-1.06-10.36-.25-5.3 2.37-8.6 6.73-11.78 20.98-15.31 36.8-34.53 43.36-60.29.12-.46.01-.99.01-2.17-7.78 1.84-15.39 3.76-23.05 5.42-5.17 1.12-10.4 2.19-15.65 2.73-7.89.82-14.31-2.52-19.37-8.37-1.3-1.5-2.53-3.77-2.38-5.56.08-.95 3.13-2.05 4.96-2.39 11.42-2.11 22.98-3.58 34.31-6.11 29.29-6.54 58.55-13.28 87.69-20.47 11.47-2.83 22.3-3.58 32.42 3.45 2.04 1.42 5.02 4.3 4.64 5.75-.56 2.15-3.47 4.65-5.81 5.22-11.27 2.73-22.66 4.98-34.05 7.18-14.65 2.84-29.33 5.45-44.51 8.25z"/><path d="m371.26 270.41c.59 8.43 1.32 16.85 1.74 25.29.61 12.22 2.81 24.02 7.83 35.26 3.16 7.07 1.91 11.93-5.32 14.54-8.96 3.23-18.38 5.88-27.81 6.98-15.01 1.75-30.28 2.44-44.67-3.95-18.46-8.2-28.71-22.43-28.96-42.7-.19-15.44 1-30.9 1.46-46.35.32-10.74-1.15-21.14-5.51-31.14-1.2-2.75-.85-6.18-1.21-9.3 2.99.15 6.49-.66 8.87.62 6.95 3.73 13.82 7.84 19.93 12.78 1.97 1.59 3.1 7.14 1.86 9.31-9.94 17.45-8.72 36.54-9.02 55.42-.06 3.96.37 7.98 1.04 11.89 2 11.69 10.03 18.1 20.74 20.3 9.17 1.88 18.76 2.34 28.16 2.24 10.05-.11 16.13-6.31 18.49-15.9 2.82-11.42 5.36-22.92 8.06-34.37.86-3.66 1.85-7.28 2.78-10.92.51-.02 1.02-.01 1.54 0z"/><path d="m218.72 339.01c1.32-14.57 2.72-27.11 3.54-39.68 1.1-16.72 2.55-33.49-.42-50.17-.55-3.07-2-5.96-2.83-8.99-1.13-4.11.71-6.29 4.46-4.61 7.35 3.29 14.51 7.08 21.47 11.14 3.19 1.86 3.93 5.4 2.09 8.79-4.86 8.94-5.09 18.82-5.81 28.54-1.24 16.72-1.73 33.5-3.3 50.19-.74 7.85-3.09 15.57-5.07 23.26-.43 1.68-2.26 3.98-3.66 4.15-1.31.15-3.37-1.87-4.31-3.42-3.91-6.49-6.5-13.45-6.16-19.2z"/><path d="m128.45 354.02c5.23-5.27 9.91-9.91 14.5-14.63 18.42-18.94 29.57-41.61 33.48-67.61.99-6.56-.11-13.55-.97-20.25-.78-6.12.4-7.91 6.12-5.51 6.82 2.87 13.42 6.46 19.65 10.46 4.37 2.81 4.03 5.01.28 8.69-6.23 6.1-8.21 14.27-10.44 22.23-5.35 19.13-14.27 36.11-29.22 49.53-8.66 7.77-18.84 12.95-29.74 16.78-.84.3-1.84.17-3.66.31z"/><path d="m226.97 45.45c9.69 2.59 19.66 4.45 29.01 7.96 12.38 4.66 12.96 17.78 10.24 26.97-1.32 4.47-5.26 6.06-9.16 3.96-7.83-4.21-15.6-8.7-22.76-13.94-5.45-3.98-10.15-9.09-14.71-14.13-1.66-1.83-1.93-4.92-2.83-7.43 2.45-.67 4.88-1.4 7.35-1.99.79-.19 1.66-.03 2.49-.03.12-.45.25-.91.37-1.37z"/></g><path d="m6.8 9.5c.6.3 1.3.7 2.1 1.1-.4.4-.7.8-.9 1.2-.7-.4-1.3-.8-1.8-1.1s-1.1-.6-1.6-.8c.2-.4.5-.8.7-1.2.4.2.8.5 1.5.8zm.9 6.9c-.3.6-.5 1.1-.7 1.7s-.4 1.1-.6 1.7c-.6-.4-1.1-.7-1.6-1 .7-1 1.2-1.8 1.5-2.4.3-.5.6-1.1.8-1.7.3-.6.5-1.2.8-1.8.3.3.8.6 1.3.8-.7 1.3-1.2 2.2-1.5 2.7zm.1-11c.4.3 1 .7 1.7 1.1-.5.2-.8.6-1.1 1.1-.5-.6-1-1-1.4-1.2s-.9-.6-1.5-.8c.2-.4.5-.7.9-1.1.5.3.9.6 1.4.9zm10.5 13.1c1 .4 2 .6 3.1.7-.4.4-.7.8-.8 1.3-.9-.2-1.9-.6-3-.9-1-.4-2-.9-2.8-1.6-.5.4-1.1.9-1.9 1.3s-1.9.9-3.3 1.2c-.1-.3-.5-.8-1.1-1.3 1 0 2.1-.3 3.2-.8 1.2-.5 1.9-1 2.3-1.7h-3.2c-.4 0-1 0-2 .1v-1.2c1 0 1.7.1 2 .1h3.3v-1h-2.3c-.2 0-.9 0-2 .1v-1.2c1.2 0 1.9.1 2 .1h2.3v-.8h-4.1c0-.7.1-1.2.1-1.6 0-.5 0-1.1-.1-1.8h4.1v-.7h-2.5c0-.6.1-1.1.1-1.6v-.6h-.5c-.4 0-1 0-1.8.1v-1.3c1.2 0 1.9.1 2.1.1h.2c0-.3 0-.8-.1-1.4h1.4c0 .6-.1 1-.1 1.4h3.4c0-.4 0-.8-.1-1.3h1.5c0 .4-.1.9-.1 1.3.7 0 1.5 0 2.5-.1v1.2c-1 0-1.8-.1-2.5-.1v.6c0 .3 0 .8.1 1.5h-2.5v.8h4.1c0 .8-.1 1.3-.1 1.8s0 1 .1 1.5h-4.1v.8h1.4c.8 0 1.8 0 2.9-.1v1.2c-1 0-1.9-.1-2.8-.1h-1.5v1h3.2c.3 0 1 0 2.1-.1v1.2c-1.1 0-1.8-.1-2.1-.1h-3.4l-.1.1c1.4 1 2.4 1.5 3.4 1.9zm-4.1-6.7v-1.3h-2.7v1.3zm2.2-4.1v-1.1h-3.4v1.1zm1.9 4.1v-1.3h-2.8v1.3z" fill="#fafbfc"/><path d="m37 6.7v2.3 5.4c1 0 1.8 0 2.2-.1v1.3c-.6 0-1.5-.1-2.5-.1h-11.9c-.7 0-1.3 0-1.8.1v-1.3c.5 0 1.1.1 2 .1v-5.2c0-1 0-1.8-.1-2.5h3.7c0-1.3 0-2.1-.1-2.5h1.5c0 .4-.1 1.3-.1 2.5h2.2c0-1.2 0-2.1-.1-2.6h1.5c0 .4-.1 1.3-.1 2.6zm-12.3 13.7c-.3-.4-.7-.8-1.1-1.1 1.1-.4 2.1-.9 2.9-1.3.8-.5 1.5-1 2.1-1.6.4.4.9.8 1.3 1.1-2.5 1.4-4.2 2.4-5.2 2.9zm3.9-10.1v-2.4h-2.2v2.4zm0 4.1v-2.9h-2.2v2.9zm3.5-4.1v-2.4h-2.2v2.4zm0 4.1v-2.9h-2.2v2.9zm.4 2.9 1-1.1c.6.3 1.4.7 2.5 1.3s2 1.1 2.7 1.5c-.4.4-.8.8-1.1 1.3-.8-.8-2.5-1.7-5.1-3zm3.1-7v-2.4h-2.1v2.4zm0 4.1v-2.9h-2.1v2.9z" fill="#fafbfc"/></svg>