<svg enable-background="new 0 0 400 400" viewBox="0 0 400 400" xmlns="http://www.w3.org/2000/svg"><g fill="#010103"><path d="m298.13 187.14c2.79 2.77 5.82 4.88 7.56 7.77 1.77 2.93 3.44 6.74 3.12 9.95-1.48 14.68-3.51 29.31-5.71 43.91-1.06 7.04-3.03 13.94-4.34 20.95-.34 1.79-.42 4.18.49 5.56 15.16 22.98 32.88 43.55 56.37 58.49 4.48 2.85 9.27 5.21 13.82 7.96 1.16.7 1.96 2.02 3.57 3.75-2.8.95-4.71 2.01-6.71 2.2-12.25 1.16-24.52 1.85-36.71-.55-6.85-1.35-12.13-4.9-15.72-11.15-7.11-12.41-14.49-24.65-21.78-36.96-1-1.69-2.07-3.34-3.38-5.45-15.42 30.48-38.59 50.1-72.07 56.05-.39-.42-.79-.85-1.18-1.27 1.5-1.49 2.89-3.1 4.51-4.43 9.86-8.16 20.19-15.8 29.57-24.48 13.28-12.29 22.16-27.71 28.55-44.55.58-1.54.93-3.88.18-5.11-8.39-13.75-16.92-27.42-25.69-40.94-1.72-2.65-4.61-4.54-7-6.82 6.24-4.87 14.53-2.65 18.95 4.43 6.05 9.68 12.21 19.28 18.99 28.73 1.38-21.56 7.35-42.77 1.97-64.42-5.17-.96-10.48-1.94-16.19-3-7.01 11.19-14.69 22.46-25.56 31.05-1.95 1.54-4.12 2.82-6.26 4.08-.64.38-1.56.3-3.31.59.9-2.37 1.28-4.28 2.26-5.81 25.25-39.58 37.42-83.75 45.06-129.41 1.4-8.36.64-17.13.37-25.7-.16-5.04 1.21-6.87 5.92-4.92 6.25 2.59 12.32 5.69 18.21 9.03 4.37 2.47 5.2 6.76 3.63 11.32-8.42 24.47-16.83 48.95-25.45 73.36-3.25 9.2-7.05 18.2-11.09 28.53 8.71-3.41 16.75-6.29 24.57-9.7 6.84-2.98 13.32-6.81 20.17-9.78 5.43-2.35 11.23-5.11 17.21-2.38 2.74 1.25 6.26 3.94 6.62 6.38.33 2.25-2.56 6.29-5 7.38-11.34 5.08-23.02 9.41-34.58 13.99-1.18.5-2.42.86-3.94 1.37z"/><path d="m161.53 209.47c4.68.91 8.18 1.37 11.56 2.28 10.24 2.77 19.36.46 26.39-7.18 4.62-5.02 9.27-5.9 15.11-3.66 2.31.89 4.59 1.93 6.7 3.21 7.52 4.55 6.99 5.71 3.63 13.68-2.97 7.04-4.36 14.94-5.34 22.59-1.13 8.88-1.18 17.92-1.4 26.89-.04 1.73 1.25 3.49 1.93 5.24 1.53-.84 3.36-1.39 4.54-2.57 5.54-5.53 10.88-11.24 16.34-16.85 1.71-1.76 3.56-3.4 5.34-5.09.4.24.8.48 1.2.72-3.21 6.62-6.25 13.33-9.66 19.84-8.53 16.34-17.25 32.58-25.85 48.88-2.31 4.37-4.23 4.49-7.16.51-7.08-9.62-6.31-20.08-3.95-30.99 1.5-6.95 2.51-14.1 2.76-21.19.47-13.27.35-26.57.24-39.85-.06-7.57-1.46-8.48-8.58-6.64-11.17 2.89-10.73 2.92-11.42 14.55-1.29 21.8-5.86 42.81-17.76 61.58-6.14 9.68-15.43 17.34-25.05 20.66 1.02-2.53 1.42-4.58 2.52-6.12 13.57-19.01 20.24-40.58 23.63-63.36 1.65-11.08 3.02-22.17-4.16-32.17-.63-.84-.7-2.11-1.56-4.96z"/><path d="m118.9 205.38c-8.65 11.74-18.59 21.14-32.02 26.96 1.2-1.83 2.31-3.72 3.61-5.47 19.11-25.67 33.81-53.71 44.28-83.88 2.23-6.43 2.12-13.67 3.21-20.52.25-1.53.67-3.81 1.66-4.24 1.1-.48 3.47.31 4.38 1.34 4.48 5.07 8.92 10.22 12.83 15.73 2.25 3.16 1.56 6.66-.66 10.21-10.9 17.47-21.53 35.11-32.55 53.19 1.84 2.08 4.43 4.85 6.84 7.76 5.4 6.51 7.9 13.45 6.86 22.44-1.89 16.32-2.02 32.83-3.35 49.22-1.73 21.51-3.84 42.99-5.98 64.46-.27 2.73-1.37 5.54-2.73 7.95-.93 1.67-2.85 3.54-4.54 3.77-1.07.15-3.17-2.35-3.71-4.01-3.64-11.24-5.98-22.3-3.59-34.6 3.26-16.74 4.84-33.85 6.21-50.88 1.1-13.75 1.05-27.6 1.05-41.41.02-6.01-1.16-12.01-1.8-18.02z"/><path d="m190.42 44.22c8.78 1.4 16.54 2.37 23.13 6.64 1.8 1.17 3.13 5.35 2.53 7.58-5.16 19.11-3.68 38.57-4.15 58.66 5.55-1.49 10.62-2.7 15.58-4.29 1.12-.36 2.27-1.87 2.66-3.1 3.5-10.97 6.35-22 2.93-33.65-.59-2.01-.49-5.32.74-6.43 1.16-1.05 4.22-.02 6.45.11.16.01.32.08.48.14 15.25 5.86 16.52 9.33 10.16 24-4.41 10.17-8.04 20.68-12.07 31.02-1.24 3.19-2.66 6.31-4.1 9.69-6.18-2.79-4.24-8.26-5.8-12.93-3.07 1.17-6.17 2.13-9.06 3.51-10.91 5.24-21.84 10.46-32.57 16.05-3.33 1.73-5.95 4.77-9.07 6.95-4.08 2.84-6.93 2.16-9.52-2.07-2.94-4.79-3.48-9.25-.9-14.92 4.42-9.76 2.19-19.81-1.49-29.55-.86-2.29-1.04-4.84-1.53-7.27 2.69-.13 5.41-.58 8.06-.3 2.26.24 4.49 1.17 6.64 2.03 6.58 2.63 7.25 4.55 5.56 11.43-1.1 4.47-1.65 9.11-2.01 13.71-.32 4.11 1.87 5.2 5.75 4.01 7.73-2.39 9.47-4.18 9.12-12.16-.82-18.41-1.76-36.82-3.13-55.2-.3-4.13-2.54-8.12-4.39-13.66z"/><path d="m87.64 214.57c-2.6 6.74-5.07 13.54-7.83 20.22-10.87 26.38-21.05 52.97-27.07 80.98-.9 4.18-1.43 10.49-6.44 10.56-2.84.04-6.73-5.06-8.42-8.66-3.99-8.5-7.09-17.43-10.15-26.32-.5-1.46.57-4.72 1.8-5.29 8.2-3.88 13.7-10.59 18.66-17.63 11.18-15.88 21.92-32.09 32.87-48.13 1.56-2.28 3.34-4.41 5.02-6.61.52.29 1.04.59 1.56.88z"/><path d="m133.12 52.33c7.49 4.32 13.98 8.65 17.99 15.51 1.18 2.02 1.28 5.97.08 7.9-12.85 20.62-25.83 41.21-43.78 57.95-4.68 4.36-10.16 7.87-15.27 11.76-.43-.36-.86-.72-1.29-1.08 1.18-2.2 2.22-4.5 3.57-6.6 7.46-11.6 15.54-22.83 22.35-34.79 7.15-12.55 12.8-25.91 15.47-40.27.58-3.05.55-6.22.88-10.38z"/><path d="m31.52 134.96c9.6 2.54 20.57 5.33 28.86 13.82 8.76 8.97 5.24 22.83-.57 30.16-2.23 2.82-5.13 2.97-8.01 1.2-1.67-1.03-3.46-2.3-4.47-3.92-7.27-11.67-14.6-23.32-21.39-35.28-2.44-4.31-.8-6.08 5.58-5.98z"/><path d="m99.94 80.22c-.9 3.85-1.49 7.81-2.77 11.53-2.91 8.48-8.31 9.69-14.15 2.69-4.87-5.84-9.06-12.32-12.91-18.9-3.08-5.27-5.51-11-7.63-16.74-1.87-5.09.65-8.03 5.61-6.22 7.86 2.88 15.71 6.17 22.89 10.41 6.04 3.56 8.59 9.93 8.96 17.23z"/><path d="m159.62 179.95c2.4-1.42 3.57-2.35 4.9-2.86 17.36-6.57 34.68-13.22 52.15-19.5 3.81-1.37 8.14-1.93 12.18-1.75 2.4.11 4.71 2.41 7.06 3.72-1.26 2.16-1.99 5.36-3.87 6.31-9.27 4.73-18.6 9.58-28.39 13-8.37 2.92-17.34 4.38-26.15 5.69-5.83.86-11.69-.32-17.88-4.61z"/></g><path d="m6.8 9.5c.6.3 1.3.7 2.1 1.1-.4.4-.7.8-.9 1.2-.7-.4-1.3-.8-1.8-1.1s-1.1-.6-1.6-.8c.2-.4.5-.8.7-1.2.4.2.8.5 1.5.8zm.9 6.9c-.3.6-.5 1.1-.7 1.7s-.4 1.1-.6 1.7c-.6-.4-1.1-.7-1.6-1 .7-1 1.2-1.8 1.5-2.4.3-.5.6-1.1.8-1.7.3-.6.5-1.2.8-1.8.3.3.8.6 1.3.8-.7 1.3-1.2 2.2-1.5 2.7zm.1-11c.4.3 1 .7 1.7 1.1-.5.2-.8.6-1.1 1.1-.5-.6-1-1-1.4-1.2s-.9-.6-1.5-.8c.2-.4.5-.7.9-1.1.5.3.9.6 1.4.9zm10.5 13.1c1 .4 2 .6 3.1.7-.4.4-.7.8-.8 1.3-.9-.2-1.9-.6-3-.9-1-.4-2-.9-2.8-1.6-.5.4-1.1.9-1.9 1.3s-1.9.9-3.3 1.2c-.1-.3-.5-.8-1.1-1.3 1 0 2.1-.3 3.2-.8 1.2-.5 1.9-1 2.3-1.7h-3.2c-.4 0-1 0-2 .1v-1.2c1 0 1.7.1 2 .1h3.3v-1h-2.3c-.2 0-.9 0-2 .1v-1.2c1.2 0 1.9.1 2 .1h2.3v-.8h-4.1c0-.7.1-1.2.1-1.6 0-.5 0-1.1-.1-1.8h4.1v-.7h-2.5c0-.6.1-1.1.1-1.6v-.6h-.5c-.4 0-1 0-1.8.1v-1.3c1.2 0 1.9.1 2.1.1h.2c0-.3 0-.8-.1-1.4h1.4c0 .6-.1 1-.1 1.4h3.4c0-.4 0-.8-.1-1.3h1.5c0 .4-.1.9-.1 1.3.7 0 1.5 0 2.5-.1v1.2c-1 0-1.8-.1-2.5-.1v.6c0 .3 0 .8.1 1.5h-2.5v.8h4.1c0 .8-.1 1.3-.1 1.8s0 1 .1 1.5h-4.1v.8h1.4c.8 0 1.8 0 2.9-.1v1.2c-1 0-1.9-.1-2.8-.1h-1.5v1h3.2c.3 0 1 0 2.1-.1v1.2c-1.1 0-1.8-.1-2.1-.1h-3.4l-.1.1c1.4 1 2.4 1.5 3.4 1.9zm-4.1-6.7v-1.3h-2.7v1.3zm2.2-4.1v-1.1h-3.4v1.1zm1.9 4.1v-1.3h-2.8v1.3z" fill="#fafbfc"/><path d="m37 6.7v2.3 5.4c1 0 1.8 0 2.2-.1v1.3c-.6 0-1.5-.1-2.5-.1h-11.9c-.7 0-1.3 0-1.8.1v-1.3c.5 0 1.1.1 2 .1v-5.2c0-1 0-1.8-.1-2.5h3.7c0-1.3 0-2.1-.1-2.5h1.5c0 .4-.1 1.3-.1 2.5h2.2c0-1.2 0-2.1-.1-2.6h1.5c0 .4-.1 1.3-.1 2.6zm-12.3 13.7c-.3-.4-.7-.8-1.1-1.1 1.1-.4 2.1-.9 2.9-1.3.8-.5 1.5-1 2.1-1.6.4.4.9.8 1.3 1.1-2.5 1.4-4.2 2.4-5.2 2.9zm3.9-10.1v-2.4h-2.2v2.4zm0 4.1v-2.9h-2.2v2.9zm3.5-4.1v-2.4h-2.2v2.4zm0 4.1v-2.9h-2.2v2.9zm.4 2.9 1-1.1c.6.3 1.4.7 2.5 1.3s2 1.1 2.7 1.5c-.4.4-.8.8-1.1 1.3-.8-.8-2.5-1.7-5.1-3zm3.1-7v-2.4h-2.1v2.4zm0 4.1v-2.9h-2.1v2.9z" fill="#fafbfc"/></svg>