<svg enable-background="new 0 0 400 400" viewBox="0 0 400 400" xmlns="http://www.w3.org/2000/svg"><g fill="#010103"><path d="m222.17 193.18c0 10.15.29 20.58-.1 30.99-.25 6.77-1.38 13.52-2.4 20.23-.22 1.42-1.67 2.65-2.56 3.97-1.27-.92-2.9-1.58-3.74-2.79-4.99-7.18-7.38-14.61-5.37-23.84 1.98-9.11 1.82-18.68 1.63-28.12-4.21 5.87-8.04 12.06-12.71 17.54-7.66 9.01-15.88 17.49-27.78 21.1-.98.3-1.81 2.1-2.16 3.35-5.28 18.88-10.27 37.82-19.44 55.37-9.57 18.32-21.53 34.77-36.67 48.85-1.93 1.8-4.07 3.37-6.11 5.05-.38-.22-.75-.44-1.13-.67 1.63-3.18 3.11-6.45 4.9-9.54 6.94-11.93 14.45-23.55 20.89-35.73 13.24-25.05 20.34-52.15 25.51-79.84 5.88-31.49 8.06-63.28 8.01-95.25-.02-10.27-.36-20.55-1.14-30.78-.31-4.03-2.24-7.92-3.37-11.89-.8-2.78-1.5-5.59-2.61-9.76 4.51.71 7.91.64 10.8 1.81 14.24 5.77 28.98 4.52 43.33 2.09 27.45-4.65 54.69-10.59 82.03-15.91 7.77-1.51 15.34-.97 21.93 3.92 1.72 1.27 3.94 3.7 3.7 5.26-.25 1.64-2.96 3.62-4.95 4.16-9.75 2.69-19.53 5.52-29.48 7.27-33.24 5.85-66.7 9.93-101.39 10.19-1.78 46.53-5.73 92.76-13.58 138.61 7.94-4.77 26.7-32.99 33.63-50.81-9.02 1.14-17.27.29-23.79-8.79 4.86-.86 8.83-1.43 12.74-2.29 5.02-1.11 9.95-2.6 14.98-3.64 2.9-.6 3.33-2.33 2.99-4.71-.52-3.61-1.37-7.2-1.58-10.83-.32-5.55-3.29-6.28-8-5.48-4.15.71-8.42.74-12.64 1.07-.17-.47-.35-.93-.52-1.4 2.08-1.43 4.21-2.79 6.23-4.3 7.56-5.7 15.28-11.23 22.56-17.28 4.21-3.49 7.81-7.71 8.13-13.79.17-3.27 3.05-3.35 4.8-2.27 6.46 4.01 12.91 8.13 18.83 12.87 3.21 2.57 2 4.8-2.57 6.69-8.71 3.61-17.35 7.35-27.11 11.5 8.29 6.82 7.61 14.73 4.56 24.05 4.93-1.03 8.73-1.7 12.46-2.63 5.45-1.36 14.75 3.7 15.61 9.09.18 1.11-2.17 3.42-3.73 3.85-5.11 1.42-10.37 2.28-15.59 3.28-8.57 1.63-8.57 1.6-7.66 10.7 1.97.36 4.03.8 6.12 1.1 10.06 1.43 15.12 8.28 13.54 18.35-.67 4.28-2.68 5.36-6.05 2.64-4.75-3.83-9.11-8.17-13.98-12.61z"/><path d="m115.28 297.44c-2.77-6.66-5.78-13.22-8.25-19.99-3.29-9.01-3.14-9.37-12.68-8.23-11.2 1.33-22.36 3.13-33.48 5.02-1.22.21-2.63 2.12-3.09 3.53-1.85 5.67-3.1 11.54-5.08 17.16-1.51 4.28-3.67 4.41-6.1.49-4.64-7.51-6.91-15.77-6.76-24.61.32-20.13 1.37-40.28.9-60.4-.42-18.23-2.17-36.44-3.98-54.6-.49-4.94-3.41-9.61-4.98-14.48-.45-1.41-.09-3.08-.11-4.64 1.39.06 2.81-.04 4.16.22 6.48 1.22 12.93 2.54 19.62 3.87 9.95-22.02 20.49-43.13 26.02-66.21.9-3.76.58-7.87.46-11.8-.14-4.41 1.78-6.67 5.88-5.15 7.88 2.94 15.74 6.14 23.14 10.11 5.87 3.15 5.78 6.92.62 11.4-19.49 16.92-33.11 38.5-47.44 59.52-.17.25-.12.64-.29 1.66 12.28-2.9 24.78-4.41 34.98-12.15 4.84-3.68 9.68-4.69 14.82-2.3 7.22 3.36 14.25 7.17 21.08 11.27 4.58 2.75 5.64 6.57 2.65 10.52-8.62 11.41-8.31 24.61-8.07 37.73.35 19.28 1.51 38.55 1.66 57.83.13 16.41-3.14 32.36-9.41 47.59-.96 2.33-2.57 4.39-3.88 6.58-.8.02-1.6.04-2.39.06zm-58.05-32.96c9.74-2.65 18.86-5.03 27.92-7.63 5.19-1.49 10.24-2.73 15.53-.4 5.18 2.29 6.8 1.67 7.8-3.98 1.21-6.85 2.21-13.82 2.31-20.75.28-19.65.35-39.31-.13-58.95-.18-7.38-1.52-14.86-3.39-22.02-1.61-6.18-6.01-8.49-11.77-7.42-11.75 2.18-23.44 4.67-35.19 6.84-3.11.58-3.38 2.32-3.36 4.92.09 13.16.03 26.31.06 39.47 0 1.09.24 2.18.37 3.36 1.12-.06 1.98.03 2.76-.18 6.71-1.85 13.49-3.51 20.08-5.71 5.34-1.78 10.09-1.19 14.7 1.83 4.77 3.12 5.16 6.32.25 8.94-5.04 2.7-10.55 5.26-16.12 6.07-7.07 1.03-14.41.25-21.85.25.03 18.37.03 36.3.03 55.36z"/><path d="m242.99 230.29c11.42 1.2 20.77 3.64 27.65 10.85 2.18 2.28 2 7.34 1.92 11.11-.12 5.75-1.08 11.48-1.83 18.52 7.91-2.09 14.93-3.73 21.82-5.81 8.11-2.44 15.93-3.38 23.39 1.86 4.92 3.46 4.94 7.15-.82 8.85-7.39 2.19-15.16 3.41-22.85 4.18-6.73.67-13.58.14-21.46.14-.99 13.59-2.02 27.89-3.13 43.14 5.77-.6 10.95-1.1 16.12-1.67 14.03-1.57 28.02-3.5 42.08-4.65 10.38-.85 20.21 1.43 28.37 8.5 1.5 1.29 2.84 2.84 3.98 4.46 3.44 4.87 2.52 7.81-3.46 8.5-7.06.81-14.3 1.09-21.37.53-23.61-1.89-47.16-1.45-70.77.04-29.44 1.85-58.46 6.57-87.09 13.27-13.79 3.22-21.89-4.39-30.52-12.17-2.63-2.37-1.3-4.26 1.67-4.78 2.27-.4 4.65-.26 6.98-.19 15.89.5 31.36-2.37 47.17-5.48.27-19.47-1.48-38.32-9.32-56.23-1.06-2.42-1.31-5.19-1.94-7.8 2.84-.17 5.92-1.12 8.49-.35 5.83 1.74 11.57 4.01 16.98 6.77 1.47.75 2.48 4.09 2.3 6.11-.65 7.05-2.43 14.02-2.82 21.08-.51 9.44-.13 18.93-.13 28.91 7.31-.81 14.04-1.53 20.75-2.32 4.61-.54 9.26-.97 13.79-1.94 1.39-.3 3.51-2.24 3.47-3.37-.66-22.92-1.36-45.84-2.62-68.73-.26-4.79-2.74-9.47-4.25-14.19-.61-1.96-1.37-3.88-2.55-7.14z"/><path d="m272.06 162.37c-7.93 4.59-14.1 2.33-19.5-3.16-.9-.91-1.52-2.61-1.37-3.84.07-.62 2.1-1.16 3.31-1.48 7.51-2.02 15.02-4.02 22.56-5.93 2.67-.68 3.9-2.07 3.55-4.94-.59-4.91-1-9.83-1.54-15.21-8.85 4.55-17.15 8.69-27.59 7.36 1.76-1.72 3.43-3.55 5.3-5.13 8.77-7.39 17.99-14.32 26.27-22.22 4.44-4.24 7.58-9.96 10.78-15.32 2.55-4.28 4.66-5.82 9.23-3.61 5.49 2.66 10.88 5.7 15.82 9.26 5.38 3.88 4.7 6.33-1.36 8.99-9.84 4.32-19.58 8.88-29.77 14.22 12.39 3.76 12.04 12.39 8.75 22.81 7.13-1.63 12.92-2.81 18.62-4.31 6.04-1.59 12.81.67 16.21 5.8 2.11 3.19.67 4.98-2.53 5.83-8.32 2.24-16.67 4.39-25 6.6-.92.24-1.81.63-2.97 1.05 18.66 25.39 43.34 43.04 70.75 57.43-.23.62-.46 1.24-.69 1.86-3.83.73-7.65 1.98-11.5 2.09-8.61.26-17.25.25-25.84-.23-4.77-.27-7.74-3.67-10.3-7.75-8.02-12.81-16.41-25.4-24.67-38.05-.12-.18-.59-.14-1.43-.32 0 13.36.36 26.62-.13 39.85-.3 8.08-1.74 16.13-3.05 24.14-.29 1.8-2.18 3.34-3.33 5-1.41-1.29-3.25-2.33-4.15-3.9-4.87-8.51-7.66-17.24-6.09-27.54 1.62-10.63 1.39-21.54 2.01-33.02-7.15 9.45-13.29 18.6-20.51 26.79-7.3 8.29-16.16 14.95-26.72 19.28 12.7-20.3 31.04-37.07 36.88-62.4z"/></g><path d="m6.8 9.5c.6.3 1.3.7 2.1 1.1-.4.4-.7.8-.9 1.2-.7-.4-1.3-.8-1.8-1.1s-1.1-.6-1.6-.8c.2-.4.5-.8.7-1.2.4.2.8.5 1.5.8zm.9 6.9c-.3.6-.5 1.1-.7 1.7s-.4 1.1-.6 1.7c-.6-.4-1.1-.7-1.6-1 .7-1 1.2-1.8 1.5-2.4.3-.5.6-1.1.8-1.7.3-.6.5-1.2.8-1.8.3.3.8.6 1.3.8-.7 1.3-1.2 2.2-1.5 2.7zm.1-11c.4.3 1 .7 1.7 1.1-.5.2-.8.6-1.1 1.1-.5-.6-1-1-1.4-1.2s-.9-.6-1.5-.8c.2-.4.5-.7.9-1.1.5.3.9.6 1.4.9zm10.5 13.1c1 .4 2 .6 3.1.7-.4.4-.7.8-.8 1.3-.9-.2-1.9-.6-3-.9-1-.4-2-.9-2.8-1.6-.5.4-1.1.9-1.9 1.3s-1.9.9-3.3 1.2c-.1-.3-.5-.8-1.1-1.3 1 0 2.1-.3 3.2-.8 1.2-.5 1.9-1 2.3-1.7h-3.2c-.4 0-1 0-2 .1v-1.2c1 0 1.7.1 2 .1h3.3v-1h-2.3c-.2 0-.9 0-2 .1v-1.2c1.2 0 1.9.1 2 .1h2.3v-.8h-4.1c0-.7.1-1.2.1-1.6 0-.5 0-1.1-.1-1.8h4.1v-.7h-2.5c0-.6.1-1.1.1-1.6v-.6h-.5c-.4 0-1 0-1.8.1v-1.3c1.2 0 1.9.1 2.1.1h.2c0-.3 0-.8-.1-1.4h1.4c0 .6-.1 1-.1 1.4h3.4c0-.4 0-.8-.1-1.3h1.5c0 .4-.1.9-.1 1.3.7 0 1.5 0 2.5-.1v1.2c-1 0-1.8-.1-2.5-.1v.6c0 .3 0 .8.1 1.5h-2.5v.8h4.1c0 .8-.1 1.3-.1 1.8s0 1 .1 1.5h-4.1v.8h1.4c.8 0 1.8 0 2.9-.1v1.2c-1 0-1.9-.1-2.8-.1h-1.5v1h3.2c.3 0 1 0 2.1-.1v1.2c-1.1 0-1.8-.1-2.1-.1h-3.4l-.1.1c1.4 1 2.4 1.5 3.4 1.9zm-4.1-6.7v-1.3h-2.7v1.3zm2.2-4.1v-1.1h-3.4v1.1zm1.9 4.1v-1.3h-2.8v1.3z" fill="#fafbfc"/><path d="m37 6.7v2.3 5.4c1 0 1.8 0 2.2-.1v1.3c-.6 0-1.5-.1-2.5-.1h-11.9c-.7 0-1.3 0-1.8.1v-1.3c.5 0 1.1.1 2 .1v-5.2c0-1 0-1.8-.1-2.5h3.7c0-1.3 0-2.1-.1-2.5h1.5c0 .4-.1 1.3-.1 2.5h2.2c0-1.2 0-2.1-.1-2.6h1.5c0 .4-.1 1.3-.1 2.6zm-12.3 13.7c-.3-.4-.7-.8-1.1-1.1 1.1-.4 2.1-.9 2.9-1.3.8-.5 1.5-1 2.1-1.6.4.4.9.8 1.3 1.1-2.5 1.4-4.2 2.4-5.2 2.9zm3.9-10.1v-2.4h-2.2v2.4zm0 4.1v-2.9h-2.2v2.9zm3.5-4.1v-2.4h-2.2v2.4zm0 4.1v-2.9h-2.2v2.9zm.4 2.9 1-1.1c.6.3 1.4.7 2.5 1.3s2 1.1 2.7 1.5c-.4.4-.8.8-1.1 1.3-.8-.8-2.5-1.7-5.1-3zm3.1-7v-2.4h-2.1v2.4zm0 4.1v-2.9h-2.1v2.9z" fill="#fafbfc"/></svg>