<svg enable-background="new 0 0 400 400" viewBox="0 0 400 400" xmlns="http://www.w3.org/2000/svg"><g fill="#010103"><path d="m66.68 124.92c1.49-1.39 2.9-2.9 4.49-4.16 13.97-11.03 28.19-21.75 41.87-33.13 6.74-5.61 12.95-12.09 15.68-20.91.98-3.15 3.45-3.58 5.98-3.01 9.8 2.2 17.66 7.67 23.53 15.63 2.96 4-.63 5.7-3.84 7.25-13.15 6.35-26.25 12.8-39.36 19.23-.73.36-1.38.88-2.22 1.42 3.8 3.92 7.53 7.6 11.07 11.46 2.47 2.7 2.6 5.48 1.93 9.43-1.86 11.02-2.35 22.28-3.48 34.44 9.32-2.63 17.02-5.3 24.94-6.83 3.96-.77 8.44.07 12.45 1.09 1.77.45 4.1 3.18 4.08 4.86-.02 1.54-2.59 3.83-4.47 4.43-9.17 2.92-18.43 5.54-27.75 7.95-8.34 2.15-8.4 1.96-8.38 10.45.01 5.67.05 11.33.1 17 0 .31.21.62.22.66 6.48 2.01 13.01 3.44 19.03 6.05 7.5 3.25 14.58 7.75 13.41 17.56-.37 3.09-2.18 7.23-4.59 8.48-2.05 1.07-6.69-.44-8.8-2.34-5.4-4.87-10.06-10.58-14.96-16-1.21-1.33-2.21-2.85-4.04-5.23-.18 2.4-.37 3.75-.38 5.09-.08 16.16.32 32.35-.29 48.49-.89 23.41-2.32 46.81-3.93 70.19-.36 5.2-2.02 10.43-3.83 15.37-1.83 5-4.79 5.42-7.87 1.03-7.66-10.91-13.1-22.92-9.1-36.44 5.59-18.88 6.59-38.23 7.7-57.62.85-14.77 1.44-29.56 2.11-43.46-9.97 14.54-19.64 30.07-30.76 44.48-11.23 14.55-25.54 26-41.36 35.37-.44-.35-.89-.7-1.33-1.05 1.99-2.83 3.77-5.83 5.99-8.47 24.67-29.44 44.18-62 59.09-97.36.64-1.53 1.17-3.1 2.1-5.59-4.26 1.21-7.9 2.05-11.4 3.28-11.26 3.95-22.41 8.25-33.75 11.97-3.15 1.03-7.33 1.68-10.12.45-6.44-2.84-12.4-6.84-18.38-10.65-1.13-.72-2.23-3.02-1.87-4.11.38-1.14 2.44-1.92 3.91-2.45 1.21-.43 2.63-.39 3.96-.33 23.13.94 45.11-4.92 67.09-11.07 5.41-1.51 7.57-3.81 6.89-9.55-1.33-11.19-2.08-22.45-3.12-33.68-.09-.97-.51-1.92-.82-2.86-2.27-6.86-2.83-6.88-9.28-4.35-7.72 3.03-15.63 5.55-23.5 8.19-1.28.43-2.75.31-4.13.44-.18-.36-.34-.72-.51-1.09z"/><path d="m283.8 280.72c-13.31.89-26.74 1.7-40.16 2.7-10.93.81-21.85 1.86-32.78 2.75-4.49.37-8.44.5-9.67 6.59-1.11 5.53-4.12 5.64-7.82 1.3-7.33-8.6-6.3-18.21-5.28-28.67 2.42-24.98 3.66-50.09-.12-75.12-.32-2.1-1.35-4.09-1.77-6.19-.36-1.8-1.1-4.62-.27-5.32 1.38-1.17 3.92-1.44 5.93-1.35 8.12.37 16.25 1.75 24.32 1.45 21.64-.81 42.9-4.71 63.75-10.37 7.51-2.04 14.28-2.25 21.06 1.7 5.16 3.01 10.49 5.73 15.59 8.83 3.45 2.1 4.88 5.14 2.01 8.74-7.71 9.65-7.83 21.29-8.45 32.67-.94 17.42-.68 34.94-2.32 52.28-.89 9.4-4.14 18.72-7.37 27.69-2.16 6-5.48 5.95-8.31.27-3.09-6.18-5.38-12.77-8.34-19.95zm3.84-9.08c3.36-25.1 4.67-49.96 1.82-74.84-1.33-11.63-5.17-14.43-17.09-13.59-14.58 1.03-29.12 2.67-43.65 4.19-7.51.79-14.99 1.9-22.31 2.84v23.41c10.76-2.14 21.11-4.51 31.58-6.16 6.86-1.08 13.89-1.29 20.85-1.48 1.7-.05 3.45 1.47 5.18 2.27-1.15 1.46-2 3.54-3.5 4.26-4.48 2.14-9.07 4.69-13.87 5.37-11.47 1.61-23.08 2.27-34.65 3.25-1.89.16-3.81.02-5.69.02v21.22c10.84-1.38 21.3-2.77 31.78-4.03 7.4-.89 14.81-1.87 22.25-2.23 1.83-.09 3.77 2.07 5.65 3.2-1.39 1.21-2.6 3.09-4.19 3.5-7.71 1.97-15.45 3.99-23.3 5.16-11.13 1.66-22.38 2.58-34.09 3.88-.46 7.81-.94 15.96-1.43 24.17 28.75-.54 56.27-7.13 84.66-4.41z"/><path d="m188.63 170.15c2.07-1.51 4.05-3.17 6.22-4.51 21.41-13.18 37.08-31.22 45.31-55.07 1.92-5.56 1.72-11.96 1.83-17.98.07-4.21 1.7-6.24 5.95-4.95 4.9 1.48 9.79 3.15 14.43 5.29 5.62 2.58 5.92 5.13 2.35 10.09-3.09 4.29-5.86 8.8-9.18 13.83 39.5 16.32 77.97 33.35 120.12 39.73-.01.69-.03 1.38-.04 2.07-3.68.96-7.31 2.3-11.05 2.81-12.48 1.7-24.97 3.51-37.52 4.48-8.43.65-16.27-1.96-23.4-6.96-16.06-11.25-32.36-22.17-48.56-33.22-.52-.35-1.1-.62-2.05-1.14-13.98 25.66-34.4 42.31-63.28 47.07-.38-.53-.75-1.03-1.13-1.54z"/><path d="m248 67.02c16.16-.35 32.05-2.83 46.89-9.38 8.32-3.67 15.67-3.82 23.08 1.14 5.51 3.69 11.12 7.3 16.17 11.56 3.69 3.11 3.14 6.8-1.31 8.03-13.96 3.87-25.08 12.82-37.32 19.75-1.84 1.04-3.86 1.79-7.29 3.35 1.35-3.33 2.01-5.4 2.99-7.32 2.66-5.17 5.58-10.2 8.16-15.41 2.71-5.45 1.23-8.15-4.93-7.53-8.54.85-17.15 2.15-25.41 4.43-8.6 2.37-16.76 3.96-25.2-.19-.91-.45-2.93.66-4.08 1.52-9.05 6.72-17.96 13.63-27.05 20.3-1.79 1.32-4.14 1.87-6.23 2.78-.38-.31-.76-.61-1.14-.92 1.31-2.07 2.54-4.19 3.93-6.2 6.17-8.87 12.83-17.44 18.44-26.65 4.69-7.71 7.74-16.24 4.66-27.03 4.68.71 8.65.74 12.18 2 4.64 1.66 9.08 4.04 13.31 6.6 3.06 1.85 2.96 4.25.13 6.85-3.76 3.46-7.12 7.35-10.65 11.05.22.44.45.86.67 1.27z"/><path d="m261.68 303.53c1.7.43 3.61.51 5.08 1.34 12.84 7.27 25.94 14.15 38.29 22.18 11.74 7.63 15.19 19.74 13.86 33.16-.26 2.63-2.11 6.31-4.2 7.2-2.02.85-6.2-.45-7.87-2.25-6.77-7.29-13.22-14.93-19.28-22.84-8.19-10.69-15.92-21.73-23.8-32.66-1.13-1.57-1.96-3.36-2.93-5.05.29-.36.57-.72.85-1.08z"/><path d="m151.99 364.85c4.31-3.02 8.7-5.95 12.92-9.09 16.45-12.2 30.33-26.9 42.19-43.56 2.8-3.93 4.27-8.07 3.83-13.06-.49-5.63 2.37-7.87 7.23-5.07 6.11 3.52 11.68 8.08 17.13 12.61 2.69 2.23 2.61 5.62-.3 7.8-22.31 16.74-43.09 35.75-68.95 47.29-4.32 1.93-8.91 3.24-13.37 4.84-.22-.58-.45-1.17-.68-1.76z"/><path d="m219.06 108.36c-4.27 4.56-8.37 9.3-12.85 13.65-10.5 10.2-21.23 20.16-31.77 30.33-2.46 2.37-5.35 3.65-8 1.61-5.71-4.4-11.13-9.21-16.36-14.18-2.12-2.01-.99-4.32 1.76-4.66 14.04-1.76 25.94-8.95 38.31-14.91 6.43-3.1 12.71-6.49 19.11-9.64 2.77-1.37 5.68-2.46 8.53-3.68.41.48.84.98 1.27 1.48z"/><path d="m159.87 64.08c10.62-.5 19.71-.24 28.37 3.13 7.27 2.82 11.99 10.39 11.74 18.11-.15 4.71-5.25 8.52-9.74 7.1-2.19-.69-4.61-1.44-6.26-2.9-7.19-6.37-14.21-12.95-21.12-19.63-1.25-1.22-1.71-3.26-2.99-5.81z"/></g><path d="m6.8 9.5c.6.3 1.3.7 2.1 1.1-.4.4-.7.8-.9 1.2-.7-.4-1.3-.8-1.8-1.1s-1.1-.6-1.6-.8c.2-.4.5-.8.7-1.2.4.2.8.5 1.5.8zm.9 6.9c-.3.6-.5 1.1-.7 1.7s-.4 1.1-.6 1.7c-.6-.4-1.1-.7-1.6-1 .7-1 1.2-1.8 1.5-2.4.3-.5.6-1.1.8-1.7.3-.6.5-1.2.8-1.8.3.3.8.6 1.3.8-.7 1.3-1.2 2.2-1.5 2.7zm.1-11c.4.3 1 .7 1.7 1.1-.5.2-.8.6-1.1 1.1-.5-.6-1-1-1.4-1.2s-.9-.6-1.5-.8c.2-.4.5-.7.9-1.1.5.3.9.6 1.4.9zm10.5 13.1c1 .4 2 .6 3.1.7-.4.4-.7.8-.8 1.3-.9-.2-1.9-.6-3-.9-1-.4-2-.9-2.8-1.6-.5.4-1.1.9-1.9 1.3s-1.9.9-3.3 1.2c-.1-.3-.5-.8-1.1-1.3 1 0 2.1-.3 3.2-.8 1.2-.5 1.9-1 2.3-1.7h-3.2c-.4 0-1 0-2 .1v-1.2c1 0 1.7.1 2 .1h3.3v-1h-2.3c-.2 0-.9 0-2 .1v-1.2c1.2 0 1.9.1 2 .1h2.3v-.8h-4.1c0-.7.1-1.2.1-1.6 0-.5 0-1.1-.1-1.8h4.1v-.7h-2.5c0-.6.1-1.1.1-1.6v-.6h-.5c-.4 0-1 0-1.8.1v-1.3c1.2 0 1.9.1 2.1.1h.2c0-.3 0-.8-.1-1.4h1.4c0 .6-.1 1-.1 1.4h3.4c0-.4 0-.8-.1-1.3h1.5c0 .4-.1.9-.1 1.3.7 0 1.5 0 2.5-.1v1.2c-1 0-1.8-.1-2.5-.1v.6c0 .3 0 .8.1 1.5h-2.5v.8h4.1c0 .8-.1 1.3-.1 1.8s0 1 .1 1.5h-4.1v.8h1.4c.8 0 1.8 0 2.9-.1v1.2c-1 0-1.9-.1-2.8-.1h-1.5v1h3.2c.3 0 1 0 2.1-.1v1.2c-1.1 0-1.8-.1-2.1-.1h-3.4l-.1.1c1.4 1 2.4 1.5 3.4 1.9zm-4.1-6.7v-1.3h-2.7v1.3zm2.2-4.1v-1.1h-3.4v1.1zm1.9 4.1v-1.3h-2.8v1.3z" fill="#fafbfc"/><path d="m37 6.7v2.3 5.4c1 0 1.8 0 2.2-.1v1.3c-.6 0-1.5-.1-2.5-.1h-11.9c-.7 0-1.3 0-1.8.1v-1.3c.5 0 1.1.1 2 .1v-5.2c0-1 0-1.8-.1-2.5h3.7c0-1.3 0-2.1-.1-2.5h1.5c0 .4-.1 1.3-.1 2.5h2.2c0-1.2 0-2.1-.1-2.6h1.5c0 .4-.1 1.3-.1 2.6zm-12.3 13.7c-.3-.4-.7-.8-1.1-1.1 1.1-.4 2.1-.9 2.9-1.3.8-.5 1.5-1 2.1-1.6.4.4.9.8 1.3 1.1-2.5 1.4-4.2 2.4-5.2 2.9zm3.9-10.1v-2.4h-2.2v2.4zm0 4.1v-2.9h-2.2v2.9zm3.5-4.1v-2.4h-2.2v2.4zm0 4.1v-2.9h-2.2v2.9zm.4 2.9 1-1.1c.6.3 1.4.7 2.5 1.3s2 1.1 2.7 1.5c-.4.4-.8.8-1.1 1.3-.8-.8-2.5-1.7-5.1-3zm3.1-7v-2.4h-2.1v2.4zm0 4.1v-2.9h-2.1v2.9z" fill="#fafbfc"/></svg>