<svg enable-background="new 0 0 400 400" viewBox="0 0 400 400" xmlns="http://www.w3.org/2000/svg"><g fill="#010103"><path d="m220 205.2c-13.48 2.77-26.31 5.13-39.01 8.1-9.34 2.18-18.89-2.15-23.18-11.95 20.8-2.96 41.41-5.89 62.03-8.82 0-11.09 0-21.23 0-32.13-10.89 2.41-21.51 4.66-32.08 7.13-5.49 1.28-10.92 2.86-16.32 4.47-11.18 3.33-24.01-2.29-29.81-13.89 13.14-1.34 25.98-2.46 38.76-4.02 13-1.59 25.96-3.61 39.25-5.48 0-10.51 0-20.74 0-32.32-9.31 2.21-18.69 3.53-27.38 6.72-10.59 3.89-18.4.45-25.64-6.65-1.22-1.2-2-2.85-3.45-4.96 19.34-2.02 37.82-3.95 56.77-5.93 0-12.38-.11-23.83.03-35.27.16-13.02-1.9-25.45-8.21-37.08-1.17-2.15-.66-5.21-.92-7.85 2.52-.23 5.25-1.2 7.51-.54 6.49 1.89 13 4 19.11 6.87 5.87 2.76 6.41 6.54 4.99 12.89-1.81 8.07-3.09 16.31-3.85 24.54-.97 10.55-1.18 21.18-1.79 33.41 14.71-3.76 28.43-6.84 41.85-10.91 5.05-1.53 9.74-3.47 14.89-1.62 6.68 2.41 13.5 4.64 19.76 7.89 5.98 3.1 5.59 6 2.15 11.77-4.56 7.66-8.16 15.88-12.12 23.89-.25.5-.03 1.23-.03 2.23 12.16-1.78 24.1-3.48 36.03-5.3 9.73-1.48 18.61.2 25.89 7.18 1.65 1.58 2.44 4.06 3.63 6.13-2.21.88-4.4 2.46-6.63 2.51-10.49.22-21-.39-31.48.07-10.61.47-21.19 1.78-31.76 2.96-1.19.13-2.81 1.67-3.21 2.88-2.86 8.84-5.53 17.74-8.06 26.68-.32 1.14.27 2.75.9 3.9.78 1.44 2.17 2.53 3.04 3.92 3.1 5 1.78 7.86-3.99 8.52-14.68 1.69-29.37 3.28-44.05 4.95-2.1.24-4.17.75-6.54 1.19 0 13.63-.04 26.94.07 40.25.01 1.13.77 2.53 1.62 3.34 11.65 11.06 13.58 11.09 23.98-.67 7.6-8.59 15.16-17.25 17.53-29.11.77-3.86 3.9-2.82 5.84-1.26 5.55 4.47 11.27 8.88 16.06 14.1 4.81 5.25 3.43 8.35-3.56 9.93-14.57 3.31-25.87 12.37-39.06 21.64 19.77 11.7 37.95 24.12 57.56 33.59 19.42 9.38 40.27 15.77 61.48 23.85-2.65 1.11-4.71 2.42-6.94 2.83-15.88 2.9-31.83 5.17-48.05 4.38-8.3-.41-15.5-3.31-21.53-9.1-14.65-14.07-29.21-28.23-44.05-42.09-6.3-5.88-13.23-11.09-20.94-17.5 0 2.87-.04 4.57.01 6.27.68 23.29 1.13 46.58 2.15 69.86.7 15.98-5.3 29.64-13.69 42.44-5.51 8.4-10.54 7.9-15.74-.69-7.83-12.92-19.04-22.56-30.63-31.87-3.28-2.63-6.26-5.64-9.38-8.48.3-.54.61-1.09.91-1.63 3.89 1.03 7.81 1.95 11.67 3.1 7.47 2.24 14.92 4.56 22.35 6.93 4.91 1.57 8.4 0 9.65-4.89 1.79-7.04 3.93-14.18 4.34-21.36.94-16.44 1.08-32.94 1.25-49.42.19-18 .04-36 .04-54-.02-1.75-.02-3.54-.02-6.52zm17.08-60c14.35-2.12 28.11-4.07 41.82-6.34 1.07-.18 2.37-2.48 2.53-3.91.67-5.94.99-11.92 1.33-17.89.41-7.1-1.52-9.6-8.46-8.87-11.7 1.22-23.32 3.2-34.95 5.04-.87.14-2.16 1.65-2.17 2.55-.16 9.62-.1 19.23-.1 29.42zm.24 43.64c7.82-1.01 15.32-2.16 22.86-2.92 12.71-1.28 12.86-1.15 15.21-13.52 1.22-6.41 1.81-12.94 2.79-20.22-14.24 1.71-27.49 3.31-40.87 4.92.01 10.89.01 21.14.01 31.74z"/><path d="m111.18 260.33c14.63-4.53 28.18-12.13 43.43-13.22.34.7.69 1.41 1.03 2.11-2.05 1.63-3.9 3.66-6.2 4.83-16 8.12-32.31 15.66-48.09 24.17-17.98 9.69-35.57 20.1-53.21 30.41-8.06 4.71-13.81 5.11-20.88-1.36-4.79-4.38-8.62-10.03-11.99-15.65-2.53-4.22-.6-7.37 4.34-7.47 26.27-.51 50.26-10.04 74.65-18.16 4.07-1.35 6.1-3.26 6.97-7.69 3.42-17.4 7.78-34.63 10.87-52.09 1.43-8.06 1-16.51.88-24.77-.08-5.37 2.05-7.51 6.86-4.88 6.69 3.66 13.09 7.9 19.34 12.27 3.94 2.76 3.55 6.95 1.68 10.8-2.75 5.68-5.91 11.16-8.73 16.82-6.97 13.98-13.84 28-20.73 42.02-.19.4-.12.92-.22 1.86z"/><path d="m40.24 157.13c2.83-1.32 4.93-2.63 7.23-3.31 26.39-7.81 52.74-15.75 79.27-23.07 4.66-1.29 10.11-.24 15.09.45 1.64.23 4 2.63 4.15 4.21.15 1.51-1.8 4.02-3.44 4.78-8.26 3.84-16.52 7.88-25.15 10.68-14.5 4.7-29.19 8.94-43.99 12.56-10.11 2.47-20.13.27-29.67-3.74-1.01-.42-1.82-1.31-3.49-2.56z"/><path d="m211.65 252.12c-4.66 5.63-8.95 11.63-14.07 16.8-14.29 14.43-28.93 28.52-43.43 42.75-.83.82-1.61 1.69-2.39 2.56-8.64 9.64-22.56 7.85-28.68-3.91-.52-.99.63-4.11 1.61-4.43 29.36-9.76 51.12-31.17 75.33-48.81 3.23-2.35 6.58-4.55 9.87-6.81.58.61 1.17 1.23 1.76 1.85z"/><path d="m88.1 66.24c7.82 1.61 15.44 2.56 22.65 4.82 10.58 3.32 15.84 11.57 17.35 22.22.9 6.39-2.21 9.65-8.64 8.57-4.14-.7-8.81-1.94-11.9-4.53-8.23-6.9-15.84-14.55-23.41-22.19-1.4-1.42-2.47-4.58-1.83-6.19.57-1.44 3.73-1.84 5.78-2.7z"/><path d="m54.95 205.24c1.18-2.82 1.52-5.56 2.74-6.03 1.33-.52 3.75.7 5.23 1.78 9.07 6.67 16.83 14.47 17.43 26.51.18 3.66-.92 7.99-2.95 11.01-4.01 6-11.23 5.37-13.57-1.39-3.67-10.59-6.09-21.61-8.88-31.88z"/><path d="m186.2 251.67c-1.8 2.96-2.98 7.04-5.61 8.51-2.11 1.18-6.95.22-8.91-1.6-7.61-7.05-14.62-14.75-21.66-22.38-.94-1.01-1.49-3.44-.91-4.5.57-1.04 2.88-1.78 4.29-1.6 8.71 1.13 17.4 2.52 24.78 7.89 4.37 3.18 7.02 8.16 8.02 13.68z"/></g><path d="m6.8 9.5c.6.3 1.3.7 2.1 1.1-.4.4-.7.8-.9 1.2-.7-.4-1.3-.8-1.8-1.1s-1.1-.6-1.6-.8c.2-.4.5-.8.7-1.2.4.2.8.5 1.5.8zm.9 6.9c-.3.6-.5 1.1-.7 1.7s-.4 1.1-.6 1.7c-.6-.4-1.1-.7-1.6-1 .7-1 1.2-1.8 1.5-2.4.3-.5.6-1.1.8-1.7.3-.6.5-1.2.8-1.8.3.3.8.6 1.3.8-.7 1.3-1.2 2.2-1.5 2.7zm.1-11c.4.3 1 .7 1.7 1.1-.5.2-.8.6-1.1 1.1-.5-.6-1-1-1.4-1.2s-.9-.6-1.5-.8c.2-.4.5-.7.9-1.1.5.3.9.6 1.4.9zm10.5 13.1c1 .4 2 .6 3.1.7-.4.4-.7.8-.8 1.3-.9-.2-1.9-.6-3-.9-1-.4-2-.9-2.8-1.6-.5.4-1.1.9-1.9 1.3s-1.9.9-3.3 1.2c-.1-.3-.5-.8-1.1-1.3 1 0 2.1-.3 3.2-.8 1.2-.5 1.9-1 2.3-1.7h-3.2c-.4 0-1 0-2 .1v-1.2c1 0 1.7.1 2 .1h3.3v-1h-2.3c-.2 0-.9 0-2 .1v-1.2c1.2 0 1.9.1 2 .1h2.3v-.8h-4.1c0-.7.1-1.2.1-1.6 0-.5 0-1.1-.1-1.8h4.1v-.7h-2.5c0-.6.1-1.1.1-1.6v-.6h-.5c-.4 0-1 0-1.8.1v-1.3c1.2 0 1.9.1 2.1.1h.2c0-.3 0-.8-.1-1.4h1.4c0 .6-.1 1-.1 1.4h3.4c0-.4 0-.8-.1-1.3h1.5c0 .4-.1.9-.1 1.3.7 0 1.5 0 2.5-.1v1.2c-1 0-1.8-.1-2.5-.1v.6c0 .3 0 .8.1 1.5h-2.5v.8h4.1c0 .8-.1 1.3-.1 1.8s0 1 .1 1.5h-4.1v.8h1.4c.8 0 1.8 0 2.9-.1v1.2c-1 0-1.9-.1-2.8-.1h-1.5v1h3.2c.3 0 1 0 2.1-.1v1.2c-1.1 0-1.8-.1-2.1-.1h-3.4l-.1.1c1.4 1 2.4 1.5 3.4 1.9zm-4.1-6.7v-1.3h-2.7v1.3zm2.2-4.1v-1.1h-3.4v1.1zm1.9 4.1v-1.3h-2.8v1.3z" fill="#fafbfc"/><path d="m37 6.7v2.3 5.4c1 0 1.8 0 2.2-.1v1.3c-.6 0-1.5-.1-2.5-.1h-11.9c-.7 0-1.3 0-1.8.1v-1.3c.5 0 1.1.1 2 .1v-5.2c0-1 0-1.8-.1-2.5h3.7c0-1.3 0-2.1-.1-2.5h1.5c0 .4-.1 1.3-.1 2.5h2.2c0-1.2 0-2.1-.1-2.6h1.5c0 .4-.1 1.3-.1 2.6zm-12.3 13.7c-.3-.4-.7-.8-1.1-1.1 1.1-.4 2.1-.9 2.9-1.3.8-.5 1.5-1 2.1-1.6.4.4.9.8 1.3 1.1-2.5 1.4-4.2 2.4-5.2 2.9zm3.9-10.1v-2.4h-2.2v2.4zm0 4.1v-2.9h-2.2v2.9zm3.5-4.1v-2.4h-2.2v2.4zm0 4.1v-2.9h-2.2v2.9zm.4 2.9 1-1.1c.6.3 1.4.7 2.5 1.3s2 1.1 2.7 1.5c-.4.4-.8.8-1.1 1.3-.8-.8-2.5-1.7-5.1-3zm3.1-7v-2.4h-2.1v2.4zm0 4.1v-2.9h-2.1v2.9z" fill="#fafbfc"/></svg>