<svg enable-background="new 0 0 400 400" viewBox="0 0 400 400" xmlns="http://www.w3.org/2000/svg"><g fill="#010103"><path d="m177.05 263.48c-2.52-6.75-4.8-12.86-7.34-19.69 10.39-.38 19.47 1.79 27.51 7.63.93.67.93 2.83 1.07 4.33.17 1.93.04 3.9.04 6.47 9.15-.57 18.08-.99 26.98-1.71 13.58-1.09 27.16-2.31 40.73-3.6 7.28-.69 14.55-2.42 21.8-2.28 9.19.17 18.55.96 27.45 3.08 4.56 1.09 8.71 5.23 12.27 8.78 2.99 2.97 1.89 5.57-2.37 6.15-4.25.58-8.62.25-12.94.26-17.96.02-35.92-.14-53.88.08-15.48.18-30.95.78-46.43 1.21-1.57.04-3.14.15-4.72.23-.12.41-.24.82-.35 1.23 7.75 5.04 15.54 10.02 23.23 15.15 39.71 26.42 83.46 42.05 130.43 49.24 4.2.64 8.24 2.35 12.35 3.56-.05.78-.1 1.57-.15 2.35-6.87 1.37-13.7 3.04-20.63 4.04-14.96 2.17-29.94 4.24-44.96 5.89-10.43 1.15-18.99-3.7-26.89-9.93-25.11-19.77-50.22-39.54-75.35-59.28-2.47-1.94-5.12-3.65-8.71-6.2v5.55c-.06 16.83.32 33.68-.31 50.49-.5 13.37.19 27.07-5.62 39.7-1.09 2.36-3.27 4.21-4.95 6.29-1.99-1.63-4.5-2.9-5.89-4.94-6.61-9.75-9.12-20.23-6.7-32.18 1.93-9.55 2.55-19.41 3.22-29.16.6-8.79.48-17.63.67-26.44.03-1.59 0-3.18-.56-5.08-41.04 41.06-86.99 71.99-146.05 77.83-.35-.6-.7-1.19-1.05-1.79 2.71-1.67 5.32-3.56 8.16-4.97 15.49-7.69 31.3-14.77 46.49-23 23.99-13.01 45.2-29.92 64.82-48.83.68-.66 1.29-1.4 2.8-3.07-6.3.49-11.48.81-16.65 1.3-19.85 1.87-39.67 4.02-59.54 5.61-13.3 1.06-24.4-4.33-34.11-12.74.03-.55.07-1.1.1-1.66 2.65-.49 5.29-1.32 7.95-1.4 17.3-.55 34.64-.44 51.91-1.51 23.38-1.45 46.71-3.74 70.06-5.72 1.59-.13 3.19-.65 6.11-1.27z"/><path d="m232.96 149.42c-5.76-6.09-10.92-11.54-16.08-16.99.18-.53.35-1.05.53-1.58 3.63.35 7.31.4 10.87 1.11 15.35 3.06 30.59 6.53 43.37 16.4 1.7 1.31 3.27 2.84 4.64 4.49 2.84 3.42 4.21 7.29 1.86 11.5-2.21 3.96-8.09 6.72-12.47 5.03-7.53-2.9-14.69-6.73-22.11-9.93-2.09-.9-4.68-1.75-6.78-1.32-38.81 7.88-77.59 15.91-116.35 24.05-4.35.91-8.46 2.91-12.78 4.08-7.69 2.08-17.69-7.5-15.47-15.18.69-2.37 3.65-5.31 6.01-5.79 25.59-5.23 42.58-23.74 61.45-39.31 6.58-5.43 10.16-12.51 10.01-21.36-.09-5.13 2.2-7.01 6.43-4.64 7.75 4.36 15.26 9.28 22.31 14.7 3.91 3.01 2.61 5.73-1.79 8.34-18.55 11.03-36.98 22.29-55.39 33.56-1.41.86-2.39 2.43-3.57 3.67.16.44.31.88.47 1.33 5.43 0 10.95.62 16.28-.11 24.17-3.32 48.29-7.01 72.42-10.6 1.72-.27 3.4-.8 6.14-1.45z"/><path d="m106.84 195.65c4.67-.27 7.95-.95 11.09-.57 19.89 2.42 39.5-.12 59.02-3.39 15.37-2.57 31.15-4.26 45.8-9.15 16.88-5.64 28.14 2.19 39.56 11.63 4.42 3.65 3.26 4.99-1.14 8.75-6.62 5.67-12.44 12.29-18.31 18.78-.74.82-.02 3.37.55 4.92 2.54 6.89 1.28 9.06-6.16 9.5-12.77.75-25.58 1.02-38.33 2.03-16.72 1.32-33.4 3.24-50.12 4.69-2.97.26-4.18 1.25-5.1 4.13-.72 2.25-3.02 4-4.61 5.97-1.67-1.72-3.91-3.15-4.91-5.2-3.7-7.61-6.65-15.58-10.52-23.09-4.17-8.09-9.06-15.81-13.64-23.69-.7-1.25-1.46-2.47-3.18-5.31zm36.71 38.41c3.1-.18 6.08-.16 9.01-.55 18.9-2.48 37.78-5.15 56.69-7.54 16.25-2.06 16.4-2.06 20.22-18.24 2.31-9.79-.2-12.78-10.36-12.31-.83.04-1.65.13-2.47.26-14.41 2.2-28.82 4.43-43.24 6.62-11.43 1.74-22.86 3.43-34.49 5.18 1.54 8.83 3.02 17.31 4.64 26.58z"/><path d="m65.58 129.91c2.52-2.95 4.93-6 7.57-8.83 16.1-17.29 29.72-36.35 39.33-57.91 3-6.72 3.51-14.71 4.32-22.21.74-6.91 2.41-8.8 8.66-5.78 5.76 2.78 10.99 6.7 16.28 10.37 2.53 1.75 2.98 4.09.76 6.81-1.97 2.42-3.5 5.19-5.51 8.24 7.12 2.68 13.72.92 20.31-.14 7.83-1.26 15.62-3.02 23.5-3.64 3.34-.26 7.26 1.19 10.24 2.98 5.9 3.55 5.5 8.24-.81 11.02-10.89 4.79-22.44 6.26-34.16 4.85-6.69-.81-13.32-2.62-19.78-4.64-3.24-1.01-4.54-.08-6.49 2.25-10.85 13-21.31 26.44-33.2 38.44-6.87 6.94-16.14 11.53-24.43 17.02-1.68 1.11-3.83 1.53-5.76 2.26-.27-.37-.55-.73-.83-1.09z"/><path d="m247.64 60.06c12.99-2.54 25.97-5.1 38.96-7.62 9.16-1.77 17.88-1.29 25.36 5.18 4.34 3.76 4.19 6.96-1.17 8.8-6.07 2.09-12.44 3.64-18.8 4.47-14.92 1.94-29.86 2.03-44.59-1.71-2.78-.71-4.55-.39-6.56 2.35-10.25 13.96-21.92 26.43-38.54 33-2.21.87-4.59 1.28-6.89 1.91-.37-.48-.74-.96-1.11-1.45 2.61-3.27 5.01-6.74 7.87-9.76 11.58-12.23 20.9-25.71 26.11-41.99 2.28-7.11 1.75-14.08 1.47-21.15-.17-4.32 1.92-6.48 5.58-5.09 7.2 2.74 14.15 6.16 21 9.71 2.51 1.3 2 3.51.29 5.88-3.56 4.95-6.66 10.23-9.94 15.37.32.7.64 1.4.96 2.1z"/><path d="m250.89 83.36c8.51 2.53 17.31 4.38 25.46 7.78 7.94 3.32 11.55 10.94 10.66 18.58-.76 6.5-4.55 9.3-10.24 6.19-6.94-3.79-13.31-8.7-19.64-13.5-4.35-3.31-8.32-7.14-12.22-10.99-1.3-1.28-1.86-3.32-2.76-5.02 1.79-.6 3.55-1.29 5.38-1.75.94-.23 1.99-.04 2.98-.04.13-.42.26-.84.38-1.25z"/><path d="m125.38 87.44c11.8-1.62 26.21 6.25 29.61 16.23 1.06 3.1.93 7.45-.45 10.37-3.47 7.35-9.68 8.04-15.1 1.93-7.16-8.08-10.87-17.95-14.06-28.53z"/></g><path d="m6.8 9.5c.6.3 1.3.7 2.1 1.1-.4.4-.7.8-.9 1.2-.7-.4-1.3-.8-1.8-1.1s-1.1-.6-1.6-.8c.2-.4.5-.8.7-1.2.4.2.8.5 1.5.8zm.9 6.9c-.3.6-.5 1.1-.7 1.7s-.4 1.1-.6 1.7c-.6-.4-1.1-.7-1.6-1 .7-1 1.2-1.8 1.5-2.4.3-.5.6-1.1.8-1.7.3-.6.5-1.2.8-1.8.3.3.8.6 1.3.8-.7 1.3-1.2 2.2-1.5 2.7zm.1-11c.4.3 1 .7 1.7 1.1-.5.2-.8.6-1.1 1.1-.5-.6-1-1-1.4-1.2s-.9-.6-1.5-.8c.2-.4.5-.7.9-1.1.5.3.9.6 1.4.9zm10.5 13.1c1 .4 2 .6 3.1.7-.4.4-.7.8-.8 1.3-.9-.2-1.9-.6-3-.9-1-.4-2-.9-2.8-1.6-.5.4-1.1.9-1.9 1.3s-1.9.9-3.3 1.2c-.1-.3-.5-.8-1.1-1.3 1 0 2.1-.3 3.2-.8 1.2-.5 1.9-1 2.3-1.7h-3.2c-.4 0-1 0-2 .1v-1.2c1 0 1.7.1 2 .1h3.3v-1h-2.3c-.2 0-.9 0-2 .1v-1.2c1.2 0 1.9.1 2 .1h2.3v-.8h-4.1c0-.7.1-1.2.1-1.6 0-.5 0-1.1-.1-1.8h4.1v-.7h-2.5c0-.6.1-1.1.1-1.6v-.6h-.5c-.4 0-1 0-1.8.1v-1.3c1.2 0 1.9.1 2.1.1h.2c0-.3 0-.8-.1-1.4h1.4c0 .6-.1 1-.1 1.4h3.4c0-.4 0-.8-.1-1.3h1.5c0 .4-.1.9-.1 1.3.7 0 1.5 0 2.5-.1v1.2c-1 0-1.8-.1-2.5-.1v.6c0 .3 0 .8.1 1.5h-2.5v.8h4.1c0 .8-.1 1.3-.1 1.8s0 1 .1 1.5h-4.1v.8h1.4c.8 0 1.8 0 2.9-.1v1.2c-1 0-1.9-.1-2.8-.1h-1.5v1h3.2c.3 0 1 0 2.1-.1v1.2c-1.1 0-1.8-.1-2.1-.1h-3.4l-.1.1c1.4 1 2.4 1.5 3.4 1.9zm-4.1-6.7v-1.3h-2.7v1.3zm2.2-4.1v-1.1h-3.4v1.1zm1.9 4.1v-1.3h-2.8v1.3z" fill="#fafbfc"/><path d="m37 6.7v2.3 5.4c1 0 1.8 0 2.2-.1v1.3c-.6 0-1.5-.1-2.5-.1h-11.9c-.7 0-1.3 0-1.8.1v-1.3c.5 0 1.1.1 2 .1v-5.2c0-1 0-1.8-.1-2.5h3.7c0-1.3 0-2.1-.1-2.5h1.5c0 .4-.1 1.3-.1 2.5h2.2c0-1.2 0-2.1-.1-2.6h1.5c0 .4-.1 1.3-.1 2.6zm-12.3 13.7c-.3-.4-.7-.8-1.1-1.1 1.1-.4 2.1-.9 2.9-1.3.8-.5 1.5-1 2.1-1.6.4.4.9.8 1.3 1.1-2.5 1.4-4.2 2.4-5.2 2.9zm3.9-10.1v-2.4h-2.2v2.4zm0 4.1v-2.9h-2.2v2.9zm3.5-4.1v-2.4h-2.2v2.4zm0 4.1v-2.9h-2.2v2.9zm.4 2.9 1-1.1c.6.3 1.4.7 2.5 1.3s2 1.1 2.7 1.5c-.4.4-.8.8-1.1 1.3-.8-.8-2.5-1.7-5.1-3zm3.1-7v-2.4h-2.1v2.4zm0 4.1v-2.9h-2.1v2.9z" fill="#fafbfc"/></svg>