<svg enable-background="new 0 0 400 400" viewBox="0 0 400 400" xmlns="http://www.w3.org/2000/svg"><g fill="#010103"><path d="m238.07 280.88c5.27-18.19 4.39-52.56-1.61-66.95-4.15.37-8.41.86-12.69 1.1-2.99.17-6.24.74-8.95-.15-7.72-2.55-12.85.94-17.86 6.06-2.98 3.05-6.56 5.52-9.88 8.26-.36-.26-.72-.51-1.08-.77.63-1.36 1.21-2.74 1.89-4.08 12.42-24.39 21.75-49.9 27.4-76.68 1.27-6.02 1.51-12.1-1.66-17.98-2.52-4.68.45-8.72 5.7-7.56 9.78 2.15 18.26 7.07 25.17 14.37.83.87.83 3.38.2 4.63-2.75 5.48-5.91 10.76-8.85 16.15-7.89 14.43-15.75 28.87-23.61 43.32-.53.98-1.01 1.99-1.98 3.91 6.37-1.82 12.06-2.98 17.4-5.05 17.33-6.69 34.7-13.33 51.74-20.73 11.84-5.15 23.52-8.1 36.17-3.76.79.27 1.69.42 2.3.92 1.73 1.41 3.34 2.96 4.99 4.46-1.42 1.54-2.57 3.59-4.32 4.53-3.63 1.95-7.5 3.58-11.42 4.89-19.85 6.61-39.76 13.08-59.64 19.61-.77.25-1.49.67-3.12 1.41 5.47 2.74 10.25 5.35 15.21 7.53 3.41 1.49 5.06 3.82 4.57 7.36-1.42 10.35-3.05 20.67-4.53 31.01-1.86 12.99-3.6 25.99-5.52 38.96-.46 3.11.44 5.19 2.84 7.31 23.78 21.03 50.57 36.58 81.2 45.34 4.29 1.23 8.43 3.03 12.61 4.65.71.28 1.26.98 2.97 2.37-4.18 1-7.37 2.25-10.63 2.47-14.08.95-28.18 2.04-42.28 2.18-8.93.09-16.68-3.78-22.77-10.69-9.24-10.49-18.65-20.83-28.01-31.22-1.77-1.96-3.61-3.86-5.42-5.8-24.68 25.57-50.36 34.9-76.35 33.02 3.04-1.14 6.07-2.28 9.11-3.42 21.81-8.18 40.64-20.37 54.12-39.9 1.93-2.79 1.97-4.8-.04-7.46-7.22-9.55-13.93-19.51-21.53-28.74-4.71-5.71-10.65-10.42-16.12-15.5-1.67-1.56-3.58-2.86-5.68-4.51 6.72-3.53 16.69-1.85 22.4 4.13 8.85 9.25 17.08 19.09 25.57 28.68.52.6 1.04 1.22 1.99 2.32z"/><path d="m98.93 317.21c8.62-3.04 16.62-5.75 24.51-8.77 1.12-.43 2.39-2.34 2.38-3.56-.16-24.31-.22-48.63-.92-72.93-.36-12.42-1.96-24.81-3.01-37.22-.04-.49-.22-.97-.29-1.47-.6-4.62-2.59-6.54-7.84-6.29-8.09.38-16.25-.31-24.34-1.03-2.97-.26-5.82-1.89-8.73-2.89-.04-.48-.08-.95-.13-1.43 1.44-.81 2.79-2.08 4.32-2.37 21.17-3.98 40.12-13.85 59.64-22.22 5.01-2.15 10.33-3.58 15.52-5.31 4.95-1.65 9.53-.42 13.87 2.02 5.49 3.09 6.2 6.9 1 10.29-7.06 4.6-14.69 8.4-22.31 12.05-4.42 2.12-9.3 3.28-14.42 5.02 5.25 7.24 5.35 15.26 5.08 23.51-.33 10.11-.08 20.25-.08 30.09 7.82-2.44 15.52-4.89 23.26-7.21 1.4-.42 2.97-.58 4.42-.43 3.74.39 8.18 1.21 8.42 5.44.15 2.54-2.42 5.96-4.72 7.77-7.09 5.6-15.59 7.92-24.49 8.82-2.13.21-4.28.32-6.73.49v53.05c12.67-3.18 24.86-8.49 38.13-7.15.19.48.38.95.57 1.43-2.29 1.45-4.45 3.23-6.91 4.3-17.83 7.74-35.82 15.1-53.55 23.06-14.09 6.33-27.9 13.29-41.77 20.08-2.22 1.09-4.23 2.67-6.19 4.2-4.85 3.79-7.4 4.21-11.62-.07-4.63-4.69-8.94-9.87-12.52-15.4-2.89-4.46-.91-6.83 4.45-7.32 8.73-.79 17.45-1.75 26.13-3.01 1.36-.2 3.55-2.43 3.46-3.57-1.48-19.2-2.49-38.5-8.32-57.05-1.44-4.57-3.66-8.89-5.4-13.37-1.7-4.38-.6-6.42 4-5.8 6.01.81 12.27 1.84 17.72 4.32 8.01 3.64 7.62 11.46 7.5 19.03-.26 16.77-.09 33.53-.09 50.9z"/><path d="m138.98 69.66c8.6-1.07 17.19-2.35 25.82-3.14 6.05-.56 12.17-.64 18.24-.52 1.82.04 3.82 1.22 5.39 2.35 5.58 4.05 5.26 8.94-1.06 11.72-16.84 7.4-33.6 6.56-50.12-1.24-1.76-.83-3.5-1.73-5.3-2.63-17.49 25.96-35.1 51.41-65.3 63.81-.41-.31-.83-.62-1.24-.93 1.92-2.65 3.82-5.32 5.76-7.95 9.98-13.48 20.12-26.85 29.89-40.48 3.08-4.29 5.18-9.28 7.73-13.95 4.76-8.71 5.66-17.89 3.47-27.5-1.25-5.48.09-7.34 5.56-7.15 10.37.36 18.78 5.14 25.65 12.62.91.99.85 3.7.18 5.11-1.38 2.91-3.48 5.48-5.29 8.19.2.56.41 1.13.62 1.69z"/><path d="m247.46 71.52c-13.46 22.62-30.57 41.37-54.76 52.58-.45-.29-.9-.58-1.35-.88 1.24-2.06 2.24-4.3 3.75-6.14 12.07-14.69 22.55-30.39 31.15-47.39 4.73-9.35 7.38-18.55 4.06-29.11-2.09-6.66-.04-8.52 6.98-7.81 8.2.83 15.3 4.24 21.34 9.84 2.15 1.99 2.43 3.74.49 6.41-3.17 4.37-5.7 9.22-9.34 15.26 10.71-1.05 19.85-1.83 28.96-2.89 4.27-.5 8.47-1.64 12.73-2.32 8.01-1.28 15.67-.32 22.3 4.68 1.94 1.47 4.19 3.82 4.34 5.91.1 1.35-3.14 3.67-5.26 4.34-20.69 6.5-41.36 7.52-61.83-1.04-1.07-.46-2.14-.87-3.56-1.44z"/><path d="m245.23 92.72c3.6 0 7.33-.59 10.79.12 7.58 1.55 15.36 2.96 22.45 5.91 8.89 3.7 11.99 10.81 10.73 20.29-.78 5.89-3.89 7.84-9.35 5.49-2.56-1.1-5.03-2.64-7.18-4.41-7.82-6.46-15.53-13.05-23.18-19.71-1.82-1.59-3.25-3.63-4.85-5.46.19-.75.39-1.49.59-2.23z"/><path d="m124.59 95.55c12.02-2.69 28.86 6.36 31.71 16.74.81 2.95.66 6.77-.54 9.56-3.69 8.6-10.11 9.6-16.11 2.46-6.99-8.33-11.11-18.28-15.06-28.76z"/></g><path d="m6.8 9.5c.6.3 1.3.7 2.1 1.1-.4.4-.7.8-.9 1.2-.7-.4-1.3-.8-1.8-1.1s-1.1-.6-1.6-.8c.2-.4.5-.8.7-1.2.4.2.8.5 1.5.8zm.9 6.9c-.3.6-.5 1.1-.7 1.7s-.4 1.1-.6 1.7c-.6-.4-1.1-.7-1.6-1 .7-1 1.2-1.8 1.5-2.4.3-.5.6-1.1.8-1.7.3-.6.5-1.2.8-1.8.3.3.8.6 1.3.8-.7 1.3-1.2 2.2-1.5 2.7zm.1-11c.4.3 1 .7 1.7 1.1-.5.2-.8.6-1.1 1.1-.5-.6-1-1-1.4-1.2s-.9-.6-1.5-.8c.2-.4.5-.7.9-1.1.5.3.9.6 1.4.9zm10.5 13.1c1 .4 2 .6 3.1.7-.4.4-.7.8-.8 1.3-.9-.2-1.9-.6-3-.9-1-.4-2-.9-2.8-1.6-.5.4-1.1.9-1.9 1.3s-1.9.9-3.3 1.2c-.1-.3-.5-.8-1.1-1.3 1 0 2.1-.3 3.2-.8 1.2-.5 1.9-1 2.3-1.7h-3.2c-.4 0-1 0-2 .1v-1.2c1 0 1.7.1 2 .1h3.3v-1h-2.3c-.2 0-.9 0-2 .1v-1.2c1.2 0 1.9.1 2 .1h2.3v-.8h-4.1c0-.7.1-1.2.1-1.6 0-.5 0-1.1-.1-1.8h4.1v-.7h-2.5c0-.6.1-1.1.1-1.6v-.6h-.5c-.4 0-1 0-1.8.1v-1.3c1.2 0 1.9.1 2.1.1h.2c0-.3 0-.8-.1-1.4h1.4c0 .6-.1 1-.1 1.4h3.4c0-.4 0-.8-.1-1.3h1.5c0 .4-.1.9-.1 1.3.7 0 1.5 0 2.5-.1v1.2c-1 0-1.8-.1-2.5-.1v.6c0 .3 0 .8.1 1.5h-2.5v.8h4.1c0 .8-.1 1.3-.1 1.8s0 1 .1 1.5h-4.1v.8h1.4c.8 0 1.8 0 2.9-.1v1.2c-1 0-1.9-.1-2.8-.1h-1.5v1h3.2c.3 0 1 0 2.1-.1v1.2c-1.1 0-1.8-.1-2.1-.1h-3.4l-.1.1c1.4 1 2.4 1.5 3.4 1.9zm-4.1-6.7v-1.3h-2.7v1.3zm2.2-4.1v-1.1h-3.4v1.1zm1.9 4.1v-1.3h-2.8v1.3z" fill="#fafbfc"/><path d="m37 6.7v2.3 5.4c1 0 1.8 0 2.2-.1v1.3c-.6 0-1.5-.1-2.5-.1h-11.9c-.7 0-1.3 0-1.8.1v-1.3c.5 0 1.1.1 2 .1v-5.2c0-1 0-1.8-.1-2.5h3.7c0-1.3 0-2.1-.1-2.5h1.5c0 .4-.1 1.3-.1 2.5h2.2c0-1.2 0-2.1-.1-2.6h1.5c0 .4-.1 1.3-.1 2.6zm-12.3 13.7c-.3-.4-.7-.8-1.1-1.1 1.1-.4 2.1-.9 2.9-1.3.8-.5 1.5-1 2.1-1.6.4.4.9.8 1.3 1.1-2.5 1.4-4.2 2.4-5.2 2.9zm3.9-10.1v-2.4h-2.2v2.4zm0 4.1v-2.9h-2.2v2.9zm3.5-4.1v-2.4h-2.2v2.4zm0 4.1v-2.9h-2.2v2.9zm.4 2.9 1-1.1c.6.3 1.4.7 2.5 1.3s2 1.1 2.7 1.5c-.4.4-.8.8-1.1 1.3-.8-.8-2.5-1.7-5.1-3zm3.1-7v-2.4h-2.1v2.4zm0 4.1v-2.9h-2.1v2.9z" fill="#fafbfc"/></svg>