<svg enable-background="new 0 0 400 400" viewBox="0 0 400 400" xmlns="http://www.w3.org/2000/svg"><g fill="#010103"><path d="m67.01 229.05c11.87-4.96 23.74-9.91 35.7-14.9-1.48-5.95-3.05-11.49-4.21-17.1-1.15-5.58 1.29-7.62 6.49-5.76 11.98 4.28 22.41 24.05 18.81 36.32-1.18 4.04-2.89 9.41-7.76 9.08-2.55-.17-5.04-4.84-7.06-7.81-1.35-1.98-1.82-4.55-2.99-7.69-10.3 6.76-20.45 12.99-30.12 19.91-7.15 5.12-13.64 11.14-20.46 16.73-1.67 1.37-3.29 2.91-5.2 3.82-2.34 1.13-4.62.88-5.47-2.23-2.3-8.4-3.98-16.88-1.46-25.49.67-2.28 2.27-4.42 3.85-6.28 14.74-17.31 26.97-36.22 37.05-57.6-2.29.56-4.01.76-5.56 1.39-11.69 4.7-23.4 9.35-34.99 14.3-6.23 2.67-8.62 1.75-9.6-4.91-.6-4.09-1.2-8.28-.94-12.37.18-2.8 1.08-6.26 2.96-8.12 9.5-9.41 14.78-21.24 20.02-33.12 6.57-14.91 13.05-29.91 15.17-46.23.74-5.7.13-11.59.06-17.39-.03-1.99-.4-3.97-.45-5.96-.11-3.99 2.31-4.73 5.21-3.18 9.41 5.03 16.51 12.36 19.92 22.61.72 2.16.12 5.44-1.11 7.44-6.77 11.02-14.18 21.64-20.87 32.71-6.87 11.38-13.16 23.11-19.7 34.69-.65 1.16-1.32 2.31-1.84 3.53-2.05 4.8-.75 7.13 4.47 7.05 7.31-.11 14.63-1.19 21.91-.92 7.38.27 10.6-3.43 13.35-9.63 5.64-12.7 10.56-25.44 10.84-39.58.11-5.39 2.72-6.97 7.46-4.3 8.1 4.56 13.83 11.38 16.8 20.22.52 1.56.11 4.33-.99 5.4-11.73 11.46-19.06 25.96-27.67 39.55-9.79 15.46-19.28 31.1-28.82 46.71-1.52 2.49-2.61 5.25-3.9 7.89.38.42.74.82 1.1 1.22z"/><path d="m363.91 299.11c.53 4.87.77 9.8 1.64 14.61 2.13 11.9 4.42 23.78 6.89 35.61 2.22 10.64.04 12.93-10.7 11.47-23.23-3.16-36.83-17.45-44.91-38.29-4.73-12.2-7.38-24.81-7.3-38.33-9.09-.75-15.71-5.85-21.93-12.51-1.92 11.67-3.49 22.6-5.55 33.45-4.15 21.83-14.1 40.33-32.16 53.89-2.2 1.65-4.81 2.74-7.23 4.09-.37-.28-.74-.56-1.1-.84 1.51-2.98 2.7-6.19 4.59-8.91 15.13-21.92 21.37-47 25.65-72.67 3.42-20.49 3.26-41.07-.86-61.52-.49-2.42-1.2-4.86-2.22-7.1-1.65-3.63.04-4.78 3.19-4.39 5.1.63 10.13 2.05 15.24 2.43 9.16.68 18.12.31 26.29-5.22 2.35-1.59 6.47-2 9.25-1.18 4.36 1.29 8.41 3.88 12.34 6.32 3.62 2.24 4.18 5.73 1.57 8.99-16.03 20.06-14.69 43.68-13.67 67.11.51 11.62 2.3 23.26 8.28 33.5 2.87 4.92 6.79 9.49 11.09 13.25 6.17 5.4 10.53 3.73 12.54-4.18 1.84-7.23 3.37-14.54 5.11-21.8.65-2.7 1.51-5.34 2.28-8.01.56.09 1.12.16 1.68.23zm-54.93-27.25c.94-15.82 1.92-32 2.87-48.18.2-3.4-1.52-4.96-4.87-4.58-6.53.74-13.05 1.55-19.9 2.37 0 13.18-.04 25.95.09 38.71.01.92 1.16 2.23 2.11 2.68 6.54 3.11 13.17 6.04 19.7 9z"/><path d="m148.45 333.9c3.74.31 7.49.8 11.24.89 7.43.18 9.29-1.24 10.18-8.49 1.19-9.72 2.54-19.48 2.84-29.25.63-20.63.63-41.28.88-61.92.01-.5.02-1-.01-1.5-.53-9.22-2.47-11.03-11.57-10.45-3.44.22-6.86.86-10.53 1.34v29.44c3.33.32 6.49.25 9.43 1.04 1.6.43 3.53 2.1 3.96 3.6.31 1.08-1.5 2.88-2.55 4.21-.48.6-1.37 1.12-2.13 1.21-7.27.86-10.08 4.78-9.73 12.13.21 4.38-1.25 8.84-2.07 13.97 2.45-.13 4.84-.47 7.2-.31 2.43.16 5.05.37 7.15 1.42 1.23.61 2.27 2.96 2.18 4.45-.08 1.15-1.91 2.89-3.2 3.14-4.18.79-8.46 1-13.4 1.51-3.93 23.38-13.29 44.19-35.99 56.21-.45-.25-.9-.5-1.35-.76 1.06-1.86 1.88-3.9 3.21-5.55 12.39-15.45 18.13-33.66 20.47-52.79 1.93-15.8 2.73-31.82 2.73-47.74-.01-11.52-2.17-23.04-3.34-34.57-.12-1.15-.02-2.31-.02-4.63 3 .56 5.85.79 8.5 1.64 7.3 2.34 14.49 5.2 22.24 1.88 1.52-.65 3.07-1.28 4.52-2.08 8.07-4.5 16.51-3.19 22.89 3.65 2.43 2.6 3.14 5.72 1.08 8.67-5.06 7.24-5.7 15.6-5.97 23.87-.93 29.28-1.51 58.56-2.2 87.85-.23 9.87-3.98 18.07-11.44 24.55-2.99 2.59-5.99 2.17-7.19-1.38-2.99-8.8-9-15-15.99-20.58-1.07-.86-1.83-2.11-2.73-3.18.22-.52.46-1.01.71-1.49z"/><path d="m193.34 93.55v25.88c11.45-3.02 22.73-6.2 34.12-8.94 9.99-2.39 20.02-5.22 30.18-6.08 7.73-.65 15.76 1.15 23.52 2.6 2.19.41 3.9 3.39 5.83 5.19-2.13 1.31-4.15 3.44-6.43 3.78-7.05 1.06-14.21 1.36-21.31 2.1-23.01 2.37-45.71 6.26-67.3 14.98-3.69 1.49-7.25 2.84-10.71-.08-3.94-3.33-5.59-7.68-5.03-12.87.82-7.72 1.58-15.44 2.39-23.4-10.31 1.77-19.63 3.26-28.91 4.98-8.28 1.53-14.99-1.21-20.91-6.83-2.99-2.83-2.1-4.8 1.32-5.59 4.67-1.08 9.47-1.63 14.24-2.26 24.36-3.23 48.83-5.78 73.07-9.79 25.68-4.25 51.11-10.05 76.72-14.77 8.81-1.63 17.65-.94 25.26 4.76 1.7 1.27 3.14 2.96 4.48 4.62 2.17 2.69 1.09 4.79-1.81 5.75-2.49.82-5.19 1.41-7.8 1.43-39.22.29-77.78 6.33-116.24 13.28-1.44.26-2.86.76-4.68 1.26z"/><path d="m235.6 237.32c5.94-.77 10.85-1.79 15.78-1.92 3.48-.1 7.08.71 10.43 1.74 1.11.34 2.36 2.72 2.19 3.98-.16 1.16-2.02 2.65-3.37 2.97-6.28 1.51-12.65 2.68-18.98 3.96-2.26.46-4.52.89-6.75 1.33v14.32c2.39-.44 5.06-1.15 7.76-1.36 2.92-.23 6.13-.66 8.75.28 1.95.7 3.16 3.43 4.7 5.26-1.78 1.16-3.42 2.88-5.37 3.38-5.28 1.37-10.68 2.22-16.35 3.35v19.44c4.46-.93 8.63-1.73 12.78-2.68 5.16-1.17 9.92-.87 13.77 3.33 3.21 3.5 2.78 5.61-1.81 6.43-5.37.96-10.86 1.28-16.29 1.92-2.78.33-5.54.75-8.48 1.16-1 17.69-.82 35.32-8.17 51.87-5.39-16.25-3.81-33.08-4.4-50.36-12.5 4.58-25.2 10.8-34.21-6.57 11.68-1.27 22.87-2.49 34.16-3.72 0-6.17 0-11.63 0-17.61-9.32 2.37-18.43 4.18-26.25-5.7 6.12-1.07 11.24-1.83 16.31-2.88 11.47-2.38 11.46-2.44 9.1-14.16-.13-.63-.38-1.23-.67-2.15-7.93.1-16.35 3.93-23.29-2.85-1.55-1.52-3.03-3.12-5.2-5.36 9.94-1.38 18.56-2.57 27.19-3.78 10.62-1.5 10.99-1.43 13.21-12.06 1.79-8.55 2.73-17.3 3.62-26 .35-3.48 1.81-4.53 4.78-3.69 2.7.76 5.36 1.81 7.87 3.07 6.91 3.47 7.53 6.51 2.91 12.89-4.58 6.33-9.15 12.67-13.71 19.02-.49.63-.88 1.35-2.01 3.15z"/><path d="m167.87 147.99c6.86.72 12.13 1.52 17.43 1.79 17.82.89 35.01-3.28 52.09-7.44 9.27-2.26 18.18-6.07 27.19-9.33 4.17-1.51 8.06-1.9 11.75 1.1 2.97 2.42 6.05 4.7 8.95 7.18 5.67 4.84 5.26 7.76-.52 12.68-3.96 3.38-7.37 7.47-10.7 11.52-2.93 3.56-2.32 6.86.74 10.6 6.74 8.23 6.13 9.75-4.49 11.12-12.35 1.59-24.77 2.57-37.16 3.85-10.08 1.04-20.16 2.02-30.21 3.34-1.6.21-3.41 1.76-4.4 3.19-3.04 4.42-5.37 4.91-8.18.3-4.14-6.8-7.58-14.03-11.22-21.13-4.01-7.82-7.83-15.73-11.88-23.52-1.99-3.84-1.52-5.23.61-5.25zm21.48 12.59c2.57 8.42 5.08 16.6 7.72 25.25 20.12-3.09 40.36-6.19 60.51-9.29.46-3.17.96-5.78 1.19-8.42.23-2.65.04-5.34.28-7.98.83-9.22-1.43-11.5-10.68-9.92-19.61 3.34-39.19 6.87-59.02 10.36z"/><path d="m206.24 34.4c1.32-1.47 1.5-1.83 1.77-1.95 10.19-4.31 28.92.04 35.94 8.32 3.82 4.51 5.69 9.67 5.46 15.61-.27 7.04-4.8 10.07-11.05 6.61-4.89-2.7-9.51-6.13-13.63-9.92-6.42-5.91-12.31-12.38-18.49-18.67z"/><path d="m57.64 320.16c-2.15 4.72-3.89 9.68-6.55 14.09-2.48 4.11-5.31 3.84-8.01-.37-1.59-2.49-2.96-5.23-3.82-8.04-3.43-11.24-6.7-22.54-9.79-33.87-.46-1.68.33-3.71.54-5.57 1.68.39 3.55.43 5.02 1.22 13.32 7.21 21.46 19.49 21.38 31.98.41.18.82.37 1.23.56z"/><path d="m129.65 277.05c-.66 3.22-.94 6.6-2.12 9.62-.89 2.28-2.72 5.5-4.51 5.77-1.86.28-5.01-2.01-6.14-4.01-4.98-8.75-9.55-17.74-14.01-26.78-1.14-2.3-1.76-5.09-1.72-7.64.02-1.12 2.31-3.21 3.51-3.16 11.48.42 24.51 14.48 24.99 26.2z"/><path d="m69.38 267.86c4.09 2.54 8.33 4.86 12.24 7.65 9.94 7.1 13.81 18.22 10.01 29.77-.87 2.66-3.33 5.44-5.8 6.62-1.06.51-5.04-2.51-5.92-4.65-4.32-10.52-8.13-21.25-11.9-31.99-.61-1.75-.09-3.89-.09-5.85.5-.52.98-1.04 1.46-1.55z"/><path d="m220.37 228.23c-.25 1.29-.34 2.63-.77 3.86-2.29 6.6-6.35 7.62-10.64 2.19-3.66-4.63-6.68-9.81-9.53-15-.78-1.43-.65-4.43.35-5.46.95-.98 3.81-.93 5.43-.3 3.67 1.42 7.53 2.96 10.48 5.44 2.51 2.12 3.85 5.62 5.7 8.51-.34.26-.68.51-1.02.76z"/></g><path d="m6.8 9.5c.6.3 1.3.7 2.1 1.1-.4.4-.7.8-.9 1.2-.7-.4-1.3-.8-1.8-1.1s-1.1-.6-1.6-.8c.2-.4.5-.8.7-1.2.4.2.8.5 1.5.8zm.9 6.9c-.3.6-.5 1.1-.7 1.7s-.4 1.1-.6 1.7c-.6-.4-1.1-.7-1.6-1 .7-1 1.2-1.8 1.5-2.4.3-.5.6-1.1.8-1.7.3-.6.5-1.2.8-1.8.3.3.8.6 1.3.8-.7 1.3-1.2 2.2-1.5 2.7zm.1-11c.4.3 1 .7 1.7 1.1-.5.2-.8.6-1.1 1.1-.5-.6-1-1-1.4-1.2s-.9-.6-1.5-.8c.2-.4.5-.7.9-1.1.5.3.9.6 1.4.9zm10.5 13.1c1 .4 2 .6 3.1.7-.4.4-.7.8-.8 1.3-.9-.2-1.9-.6-3-.9-1-.4-2-.9-2.8-1.6-.5.4-1.1.9-1.9 1.3s-1.9.9-3.3 1.2c-.1-.3-.5-.8-1.1-1.3 1 0 2.1-.3 3.2-.8 1.2-.5 1.9-1 2.3-1.7h-3.2c-.4 0-1 0-2 .1v-1.2c1 0 1.7.1 2 .1h3.3v-1h-2.3c-.2 0-.9 0-2 .1v-1.2c1.2 0 1.9.1 2 .1h2.3v-.8h-4.1c0-.7.1-1.2.1-1.6 0-.5 0-1.1-.1-1.8h4.1v-.7h-2.5c0-.6.1-1.1.1-1.6v-.6h-.5c-.4 0-1 0-1.8.1v-1.3c1.2 0 1.9.1 2.1.1h.2c0-.3 0-.8-.1-1.4h1.4c0 .6-.1 1-.1 1.4h3.4c0-.4 0-.8-.1-1.3h1.5c0 .4-.1.9-.1 1.3.7 0 1.5 0 2.5-.1v1.2c-1 0-1.8-.1-2.5-.1v.6c0 .3 0 .8.1 1.5h-2.5v.8h4.1c0 .8-.1 1.3-.1 1.8s0 1 .1 1.5h-4.1v.8h1.4c.8 0 1.8 0 2.9-.1v1.2c-1 0-1.9-.1-2.8-.1h-1.5v1h3.2c.3 0 1 0 2.1-.1v1.2c-1.1 0-1.8-.1-2.1-.1h-3.4l-.1.1c1.4 1 2.4 1.5 3.4 1.9zm-4.1-6.7v-1.3h-2.7v1.3zm2.2-4.1v-1.1h-3.4v1.1zm1.9 4.1v-1.3h-2.8v1.3z" fill="#fafbfc"/><path d="m37 6.7v2.3 5.4c1 0 1.8 0 2.2-.1v1.3c-.6 0-1.5-.1-2.5-.1h-11.9c-.7 0-1.3 0-1.8.1v-1.3c.5 0 1.1.1 2 .1v-5.2c0-1 0-1.8-.1-2.5h3.7c0-1.3 0-2.1-.1-2.5h1.5c0 .4-.1 1.3-.1 2.5h2.2c0-1.2 0-2.1-.1-2.6h1.5c0 .4-.1 1.3-.1 2.6zm-12.3 13.7c-.3-.4-.7-.8-1.1-1.1 1.1-.4 2.1-.9 2.9-1.3.8-.5 1.5-1 2.1-1.6.4.4.9.8 1.3 1.1-2.5 1.4-4.2 2.4-5.2 2.9zm3.9-10.1v-2.4h-2.2v2.4zm0 4.1v-2.9h-2.2v2.9zm3.5-4.1v-2.4h-2.2v2.4zm0 4.1v-2.9h-2.2v2.9zm.4 2.9 1-1.1c.6.3 1.4.7 2.5 1.3s2 1.1 2.7 1.5c-.4.4-.8.8-1.1 1.3-.8-.8-2.5-1.7-5.1-3zm3.1-7v-2.4h-2.1v2.4zm0 4.1v-2.9h-2.1v2.9z" fill="#fafbfc"/></svg>