<svg enable-background="new 0 0 400 400" viewBox="0 0 400 400" xmlns="http://www.w3.org/2000/svg"><g fill="#010103"><path d="m290.52 275.47c8.38 1.86 16.75 3.82 25.16 5.54 9.04 1.85 15.72-.96 20.06-9.11 7.59-14.26 10.57-29.75 9.89-45.76-.45-10.58-6.06-15.79-16.52-14.91-18.81 1.58-37.54 4.11-56.69 6.29 0 2.94.01 4.74 0 6.54-.13 27.66.28 55.34-.6 82.98-.59 18.22-2.94 36.4-4.78 54.57-.29 2.85-1.63 5.79-3.17 8.26-1.99 3.2-4.58 2.99-5.75-.58-1.49-4.54-2.73-9.33-3-14.07-1-17.1-1.94-34.23-2.18-51.35-.35-25.5-.09-51-.09-76.5 0-1.79 0-3.59 0-6.11-15.67 3.98-31.35 5.51-44.91 14-2.86 1.79-5.47 1.88-8.37.23-8.63-4.91-10.71-12.81-6.84-21.88 6.71-15.71 11.15-32.08 10.07-49.37-.25-3.96-2.52-7.77-3.72-11.7-.59-1.93-.88-3.96-1.3-5.95 2.08-.16 4.28-.85 6.21-.4 5.65 1.33 11.18 4.33 16.8 4.45 10.03.21 20.1-1.16 30.13-2.04.7-.06 1.85-1.57 1.83-2.37-.46-15.45-1.03-30.9-1.67-46.34-.16-3.8-2.13-5.49-6.13-4.9-6.57.97-13.17 1.71-19.77 2.49-8.72 1.03-15.88-2.35-22.17-8.02-.54-.49-.67-1.43-1.43-3.18 3.29-.17 6-.45 8.7-.44 30.66.18 59.79-7.61 88.64-16.92.63-.2 1.35-.34 1.85-.73 11.58-9.01 22.32-4.06 32.62 2.37 4.45 2.77 8.38 6.53 12.06 10.31 2.76 2.83 3.06 6.32-.67 9.01-6.69 4.82-11.29 11.24-14.32 18.8-3.33 8.33-6.3 16.8-9.7 25.09-1.09 2.65-.36 4.08 1.29 6.12 2.28 2.82 3.88 6.21 5.77 9.35-3.54.96-7.02 2.34-10.63 2.8-14.5 1.82-29.04 3.36-43.84 5.03v47.05c21.05-4.55 41.58-8.99 62.11-13.4 2.1-.45 4.23-1.08 6.34-1.07 13.76.09 24.9 6.38 34.72 15.33 3.13 2.85 3.64 6.17.66 10.11-8.15 10.75-9.25 23.96-12.12 36.57-3.04 13.4-5.95 26.87-10.01 39.97-2.99 9.64-9.29 17.62-17.48 23.79-2.11 1.59-4.42 3.02-6.84 4.04-4.02 1.7-7.69.57-8.8-3.71-4.12-15.94-15.36-26.07-27.82-35.35-1.53-1.14-2.81-2.63-4.21-3.95.19-.33.4-.65.62-.98zm-18.33-130.14c10.95-2.17 20.24-3.9 29.46-5.98 1.27-.29 2.76-2.18 3.09-3.58.89-3.86 1.36-7.84 1.74-11.79.9-9.42 1.94-18.83 2.36-28.27.3-6.88-3.11-9.28-9.75-7.83-2.11.46-4.23.89-6.35 1.27-7.67 1.37-15.34 2.72-23.58 4.17 7.6 5.33 6.96 5.34 5.81 14.56-1.54 12.13-1.87 24.41-2.78 37.45zm-49.69 19.99c-1.81 13.01-3.76 25.62-5.25 38.28-.81 6.85 2.9 10.06 9.58 8.94 7.19-1.21 14.34-2.61 21.53-3.8 3.26-.54 4.65-1.84 4.57-5.52-.28-12.81-.1-25.63-.12-38.44 0-1.25-.26-2.51-.43-4.15-10.03 1.57-19.66 3.09-29.88 4.69z"/><path d="m118.73 210.4c-26.27 35.47-52.97 69.37-90.03 93.21-.51-.43-1.02-.86-1.52-1.29 2.06-2.86 4.01-5.8 6.19-8.57 20.19-25.6 41.39-50.52 57.16-79.27 9.75-17.76 18.81-35.92 27.86-54.05 2.25-4.52 3.29-9.64 5.33-15.84-7.53 2.14-13.86 3.69-20.03 5.75-13.38 4.46-27.04 8.27-38.81 16.58-4.51 3.18-9.87 3.24-14.18.39-6.86-4.54-13.11-10.01-19.48-15.25-.85-.7-1.53-2.58-1.17-3.47.33-.83 2.24-1.64 3.3-1.47 17.9 2.92 35.08-1.28 52.18-5.48 14.39-3.54 28.31-8.29 40.26-17.73 6.27-4.96 13.75-5.73 21.28-2.72 4.93 1.97 9.8 4.12 14.55 6.5 3.82 1.91 3.95 5.09.94 7.63-16.51 13.91-24.46 33.31-33.83 51.84-1.55 3.07-1.04 5.27 1.72 6.64 4.98 2.46 10.15 4.53 15.69 6.96 6.52-13.07 15.13-24.14 15.14-38.77 0-3.58 2.66-5.53 5.76-3.68 6.08 3.63 12.11 7.55 17.44 12.17 4.06 3.53 2.96 6.23-1.53 9.53-9.73 7.14-19.25 14.58-29.28 22.21 5.22 2.71 9.6 4.69 13.68 7.16 10.05 6.09 14.33 18.58 10.39 29.57-1.74 4.85-5.3 5.83-9.77 1.96-8.05-6.97-15.73-14.35-23.59-21.54-3.67-3.36-7.38-6.67-11.5-10.39-.38 1.15-.72 1.69-.7 2.21.92 22.26 2.27 44.51 2.7 66.78.49 25.6.83 51.26-3.85 76.6-.55 2.96-2.95 5.59-4.5 8.37-2.05-2.28-4.68-4.26-6.02-6.9-2.86-5.61-5.2-11.5-7.45-17.39-1.98-5.19-2.07-10.36-.99-16.06 1.98-10.41 3.15-21.05 3.69-31.64 1.1-21.43 1.53-42.89 2.27-64.33.17-5.4.46-10.81.7-16.22z"/><path d="m159.01 65.22c-.74 2.76-1.44 6.54-2.78 10.08-2.54 6.74-7.35 8.16-13.4 4.21-1.52-1-3.22-1.99-4.28-3.4-8.39-11.09-16.72-22.23-24.83-33.53-1.07-1.49-1.69-5.09-.92-5.72 1.53-1.23 4.39-1.83 6.33-1.32 8.94 2.39 18.03 4.59 26.53 8.14 8.61 3.62 13.07 10.98 13.35 21.54z"/></g><path d="m6.8 9.5c.6.3 1.3.7 2.1 1.1-.4.4-.7.8-.9 1.2-.7-.4-1.3-.8-1.8-1.1s-1.1-.6-1.6-.8c.2-.4.5-.8.7-1.2.4.2.8.5 1.5.8zm.9 6.9c-.3.6-.5 1.1-.7 1.7s-.4 1.1-.6 1.7c-.6-.4-1.1-.7-1.6-1 .7-1 1.2-1.8 1.5-2.4.3-.5.6-1.1.8-1.7.3-.6.5-1.2.8-1.8.3.3.8.6 1.3.8-.7 1.3-1.2 2.2-1.5 2.7zm.1-11c.4.3 1 .7 1.7 1.1-.5.2-.8.6-1.1 1.1-.5-.6-1-1-1.4-1.2s-.9-.6-1.5-.8c.2-.4.5-.7.9-1.1.5.3.9.6 1.4.9zm10.5 13.1c1 .4 2 .6 3.1.7-.4.4-.7.8-.8 1.3-.9-.2-1.9-.6-3-.9-1-.4-2-.9-2.8-1.6-.5.4-1.1.9-1.9 1.3s-1.9.9-3.3 1.2c-.1-.3-.5-.8-1.1-1.3 1 0 2.1-.3 3.2-.8 1.2-.5 1.9-1 2.3-1.7h-3.2c-.4 0-1 0-2 .1v-1.2c1 0 1.7.1 2 .1h3.3v-1h-2.3c-.2 0-.9 0-2 .1v-1.2c1.2 0 1.9.1 2 .1h2.3v-.8h-4.1c0-.7.1-1.2.1-1.6 0-.5 0-1.1-.1-1.8h4.1v-.7h-2.5c0-.6.1-1.1.1-1.6v-.6h-.5c-.4 0-1 0-1.8.1v-1.3c1.2 0 1.9.1 2.1.1h.2c0-.3 0-.8-.1-1.4h1.4c0 .6-.1 1-.1 1.4h3.4c0-.4 0-.8-.1-1.3h1.5c0 .4-.1.9-.1 1.3.7 0 1.5 0 2.5-.1v1.2c-1 0-1.8-.1-2.5-.1v.6c0 .3 0 .8.1 1.5h-2.5v.8h4.1c0 .8-.1 1.3-.1 1.8s0 1 .1 1.5h-4.1v.8h1.4c.8 0 1.8 0 2.9-.1v1.2c-1 0-1.9-.1-2.8-.1h-1.5v1h3.2c.3 0 1 0 2.1-.1v1.2c-1.1 0-1.8-.1-2.1-.1h-3.4l-.1.1c1.4 1 2.4 1.5 3.4 1.9zm-4.1-6.7v-1.3h-2.7v1.3zm2.2-4.1v-1.1h-3.4v1.1zm1.9 4.1v-1.3h-2.8v1.3z" fill="#fafbfc"/><path d="m37 6.7v2.3 5.4c1 0 1.8 0 2.2-.1v1.3c-.6 0-1.5-.1-2.5-.1h-11.9c-.7 0-1.3 0-1.8.1v-1.3c.5 0 1.1.1 2 .1v-5.2c0-1 0-1.8-.1-2.5h3.7c0-1.3 0-2.1-.1-2.5h1.5c0 .4-.1 1.3-.1 2.5h2.2c0-1.2 0-2.1-.1-2.6h1.5c0 .4-.1 1.3-.1 2.6zm-12.3 13.7c-.3-.4-.7-.8-1.1-1.1 1.1-.4 2.1-.9 2.9-1.3.8-.5 1.5-1 2.1-1.6.4.4.9.8 1.3 1.1-2.5 1.4-4.2 2.4-5.2 2.9zm3.9-10.1v-2.4h-2.2v2.4zm0 4.1v-2.9h-2.2v2.9zm3.5-4.1v-2.4h-2.2v2.4zm0 4.1v-2.9h-2.2v2.9zm.4 2.9 1-1.1c.6.3 1.4.7 2.5 1.3s2 1.1 2.7 1.5c-.4.4-.8.8-1.1 1.3-.8-.8-2.5-1.7-5.1-3zm3.1-7v-2.4h-2.1v2.4zm0 4.1v-2.9h-2.1v2.9z" fill="#fafbfc"/></svg>