<svg enable-background="new 0 0 400 400" viewBox="0 0 400 400" xmlns="http://www.w3.org/2000/svg"><g fill="#010103"><path d="m209.55 257.49c-9.83 2.08-19.52 4.1-29.2 6.17-9.67 2.07-22.75-3.17-29.13-12.48 4.38-.79 8.25-1.72 12.17-2.15 16.34-1.78 32.71-3.35 49.04-5.22 1.42-.16 3.17-1.7 3.88-3.06 6.93-13.13 9.44-27.42 11.13-43.36-9.65 2.8-18.46 5.3-27.22 8-.85.26-1.28 1.79-1.95 2.69-1.11 1.5-2.26 2.96-3.4 4.44-1.39-1.32-3.27-2.4-4.09-4.02-4.01-7.83-8.21-15.61-11.47-23.76-4.68-11.71-10.56-22.58-18.92-32.05-.77-.87-1.51-1.79-2.13-2.77-2.73-4.34-1.36-6.62 3.86-7.06 10.58-.89 21.17-1.73 31.7-3.07 6.37-.81 12.63-2.52 19.87-4.02-2.45-9.93-4.86-19.35-7.08-28.81-1.97-8.4-3.75-16.07-15.69-14.52-5.09.66-10.66-1.97-15.93-3.4-2.15-.58-4.08-1.96-6.1-2.98-.08-.56-.16-1.11-.24-1.67 2.89-1.17 5.68-2.74 8.68-3.43 17.94-4.13 35.96-7.94 53.9-12.09 19.4-4.49 38.95-8.42 57.27-16.76 3.35-1.52 8.25-1.94 11.59-.66 6.24 2.39 11.93 6.28 17.67 9.84 1.17.73 2.49 3.25 2.06 4.08-.66 1.29-2.68 2.34-4.27 2.63-10.12 1.83-20.29 3.39-30.42 5.12-4.89.83-9.75 1.83-15.46 2.92 3.16 2.64 5.84 4.65 8.26 6.95 3.81 3.61 4.88 7.68 3.32 13.09-2.51 8.68-4.07 17.63-6.36 27.99 11.58-3.59 21.66-6.29 31.41-9.91 5.67-2.1 11.02-2.86 16.36-.28 7.17 3.47 14.33 7.07 21.03 11.33 6.3 4 5.66 7.3.62 12.65-5.18 5.5-9.72 11.74-13.72 18.17-6.32 10.16-11.94 20.75-17.9 31.13-.74 1.29-1.58 2.62-2.68 3.59-1.79 1.6-3.84 4-5.77 3.99-1.4 0-2.8-3.34-3.89-6.69-21.09 3.03-42.19 6.07-64.01 9.2 3.61 5.07 6.54 9.02 9.28 13.1 2.07 3.07 1.69 5.82-.4 9.15-4.38 6.98-8.06 14.4-12.02 21.64.32.4.63.79.95 1.19 13.86-2 27.73-4.01 41.19-5.95.64-3.78 1.1-6.49 1.67-9.78 3.11.8 5.89.98 8.11 2.19 9.66 5.26 19.65 3.33 29.57 1.61 10.3-1.78 20.49-4.22 30.78-6.1 12.56-2.3 22.96 1.95 31.32 11.32 3.38 3.79 2.39 6.95-2.81 7.41-8.92.79-17.92.72-26.89.93-12.12.28-24.23.46-36.35.71-1.16.02-2.31.26-3.47.32-3.77.21-8.65-.96-11.02.96-2.4 1.95-2.13 7.02-3.36 10.61-4.78 13.92-9.7 27.79-14.62 41.84 8.53 4.05 18.17 7.82 26.97 13.02 10.53 6.23 20.82 13.1 30.31 20.81 7.21 5.86 10.47 14.4 9.59 24.1-.64 7.14-4.56 10.03-10.68 6.57-6.45-3.65-12.61-8.08-18.16-12.99-15.61-13.81-31.49-27.18-49.86-37.95-31.77 31.26-70.4 44.61-114.06 44.58-.29-.73-.57-1.45-.86-2.18 2.45-.85 4.86-1.82 7.34-2.52 30.62-8.53 58.93-21.6 83.33-42.37 1.76-1.5 3.45-3.07 5.73-5.1-9.6-5.34-18.69-10.4-27.78-15.46-3.63-2.02-7.38-3.88-10.88-6.1-5.06-3.2-5.56-5.35-3.47-11.3 1.43-4.06 2.7-8.18 3.99-12.28.1-.4-.12-.92-.23-1.74zm64.65-122.82c-1.68 15.54-3.24 29.95-4.92 45.46 9.66-1.1 18.64-2.29 27.65-3.05 3.09-.26 4.3-1.52 4.97-4.32 2.4-10.13 5-20.21 7.44-30.32 1.78-7.35.26-9.5-7.5-9.33-9.06.19-18.13.99-27.64 1.56zm1.57 113.67c-1.25-.07-2.07-.26-2.85-.14-11.13 1.76-22.2 4.16-33.4 5.15-8.88.78-12.86 5.01-14.75 13.28-1.51 6.6-1.31 9.49 4.7 12.77 7.13 3.89 14.65 7.08 21.78 10.97 3.44 1.87 5.34.94 7.44-1.83 8.99-11.92 13.41-25.7 17.08-40.2zm-15.96-121.89c0-6.9.24-13.24-.08-19.55-.24-4.79-1.05-9.57-1.87-14.31-1.74-10.11-2.53-10.6-12.4-8.64-.49.1-1 .08-1.49.19-8.43 1.9-16.86 3.81-26.24 5.94 1.59 1.05 2.1 1.48 2.68 1.75 8.17 3.86 11.92 9.54 10.24 19.19-1.19 6.87-.23 14.11-.23 21.59 10.07-2.12 19.6-4.11 29.39-6.16zm-38.06 62.28c-2.25-15.19-4.37-29.46-6.54-44.13-10.89 2.34-20.51 4.4-30.25 6.5 4.36 14.49 8.5 28.24 12.78 42.43 7.72-1.55 15.39-3.08 24.01-4.8zm33.38-6c1.39-15.45 2.73-30.37 4.12-45.89-6.29 1.2-12.61 2.23-18.86 3.65-10.25 2.32-10.22 2.43-10.22 13.08 0 1.66-.07 3.33.01 4.99.46 9.39.95 18.78 1.46 28.85 8.41-1.67 16.12-3.21 23.49-4.68z"/><path d="m89.93 218.5c-18.37 35.03-37.89 68.59-69.46 93.1-.62-.37-1.24-.74-1.86-1.11 1.35-2.65 2.48-5.44 4.07-7.93 9.23-14.43 18.96-28.57 27.8-43.23 16.46-27.31 27.41-57.19 39.24-86.64 2.89-7.21 5.29-14.61 8.24-22.82-2.08.53-3.31.7-4.43 1.15-15.07 6.08-30.52 11.34-43.78 21.29-1.96 1.47-5.89 1.71-8.35.87-8.58-2.94-14.06-9.79-18.89-17.05-1.85-2.79-.44-4.42 2.83-4.17 28 2.14 52.36-8.01 75.35-22.52 9.42-5.94 18.18-6.16 27.47 0 4.6 3.05 5.59 6.07 2.12 10.4-12.94 16.18-19.3 35.42-26.52 54.38-2.18 5.73-.38 8.77 3.47 11.86 2.18 1.75 4.63 3.15 7.54 5.09 6.32-14.4 13.78-27.79 15.95-43.19.83-5.91 2.93-7.69 8.23-4.9 5.03 2.65 9.9 6.1 13.84 10.17 4.4 4.55 3.01 7.66-1.5 12.14-9.52 9.45-18.51 19.43-27.51 28.97 6.06 4.88 11.59 8.66 16.3 13.26 10.37 10.11 9.6 21.68 4.46 33.57-1.86 4.3-4.76 4.26-7.8-.03-6.14-8.68-12.02-17.56-18.11-26.28-3.38-4.83-6.98-9.5-11.14-15.12 0 6.41-.06 11.49.01 16.56.47 32.78 1.18 65.55 1.31 98.33.03 8.41-1.66 16.83-2.81 25.22-.35 2.58-1.24 5.21-2.52 7.46-.48.84-3.75 1.3-4.1.8-6.38-9.26-11.8-19.42-12.03-30.62-.29-14.2 2.16-28.43 2.43-42.67.46-23.82.12-47.65.12-71.47.03-1.64.03-3.25.03-4.87z"/><path d="m83.84 48.7c12.3-3.05 35.95 6.94 41.31 16.81 4.26 7.84 3.24 15.76-.42 23.41-1.99 4.17-5.53 5.08-9.51 2.54-2.76-1.77-5.58-3.87-7.5-6.46-6.93-9.33-13.57-18.89-20.14-28.48-1.53-2.23-2.38-4.93-3.74-7.82z"/></g><path d="m6.8 9.5c.6.3 1.3.7 2.1 1.1-.4.4-.7.8-.9 1.2-.7-.4-1.3-.8-1.8-1.1s-1.1-.6-1.6-.8c.2-.4.5-.8.7-1.2.4.2.8.5 1.5.8zm.9 6.9c-.3.6-.5 1.1-.7 1.7s-.4 1.1-.6 1.7c-.6-.4-1.1-.7-1.6-1 .7-1 1.2-1.8 1.5-2.4.3-.5.6-1.1.8-1.7.3-.6.5-1.2.8-1.8.3.3.8.6 1.3.8-.7 1.3-1.2 2.2-1.5 2.7zm.1-11c.4.3 1 .7 1.7 1.1-.5.2-.8.6-1.1 1.1-.5-.6-1-1-1.4-1.2s-.9-.6-1.5-.8c.2-.4.5-.7.9-1.1.5.3.9.6 1.4.9zm10.5 13.1c1 .4 2 .6 3.1.7-.4.4-.7.8-.8 1.3-.9-.2-1.9-.6-3-.9-1-.4-2-.9-2.8-1.6-.5.4-1.1.9-1.9 1.3s-1.9.9-3.3 1.2c-.1-.3-.5-.8-1.1-1.3 1 0 2.1-.3 3.2-.8 1.2-.5 1.9-1 2.3-1.7h-3.2c-.4 0-1 0-2 .1v-1.2c1 0 1.7.1 2 .1h3.3v-1h-2.3c-.2 0-.9 0-2 .1v-1.2c1.2 0 1.9.1 2 .1h2.3v-.8h-4.1c0-.7.1-1.2.1-1.6 0-.5 0-1.1-.1-1.8h4.1v-.7h-2.5c0-.6.1-1.1.1-1.6v-.6h-.5c-.4 0-1 0-1.8.1v-1.3c1.2 0 1.9.1 2.1.1h.2c0-.3 0-.8-.1-1.4h1.4c0 .6-.1 1-.1 1.4h3.4c0-.4 0-.8-.1-1.3h1.5c0 .4-.1.9-.1 1.3.7 0 1.5 0 2.5-.1v1.2c-1 0-1.8-.1-2.5-.1v.6c0 .3 0 .8.1 1.5h-2.5v.8h4.1c0 .8-.1 1.3-.1 1.8s0 1 .1 1.5h-4.1v.8h1.4c.8 0 1.8 0 2.9-.1v1.2c-1 0-1.9-.1-2.8-.1h-1.5v1h3.2c.3 0 1 0 2.1-.1v1.2c-1.1 0-1.8-.1-2.1-.1h-3.4l-.1.1c1.4 1 2.4 1.5 3.4 1.9zm-4.1-6.7v-1.3h-2.7v1.3zm2.2-4.1v-1.1h-3.4v1.1zm1.9 4.1v-1.3h-2.8v1.3z" fill="#fafbfc"/><path d="m37 6.7v2.3 5.4c1 0 1.8 0 2.2-.1v1.3c-.6 0-1.5-.1-2.5-.1h-11.9c-.7 0-1.3 0-1.8.1v-1.3c.5 0 1.1.1 2 .1v-5.2c0-1 0-1.8-.1-2.5h3.7c0-1.3 0-2.1-.1-2.5h1.5c0 .4-.1 1.3-.1 2.5h2.2c0-1.2 0-2.1-.1-2.6h1.5c0 .4-.1 1.3-.1 2.6zm-12.3 13.7c-.3-.4-.7-.8-1.1-1.1 1.1-.4 2.1-.9 2.9-1.3.8-.5 1.5-1 2.1-1.6.4.4.9.8 1.3 1.1-2.5 1.4-4.2 2.4-5.2 2.9zm3.9-10.1v-2.4h-2.2v2.4zm0 4.1v-2.9h-2.2v2.9zm3.5-4.1v-2.4h-2.2v2.4zm0 4.1v-2.9h-2.2v2.9zm.4 2.9 1-1.1c.6.3 1.4.7 2.5 1.3s2 1.1 2.7 1.5c-.4.4-.8.8-1.1 1.3-.8-.8-2.5-1.7-5.1-3zm3.1-7v-2.4h-2.1v2.4zm0 4.1v-2.9h-2.1v2.9z" fill="#fafbfc"/></svg>