<svg enable-background="new 0 0 400 400" viewBox="0 0 400 400" xmlns="http://www.w3.org/2000/svg"><g fill="#010103"><path d="m266.4 335.12c2.89-3.16 6.22-6.02 8.6-9.52 9.44-13.87 18.67-27.9 27.73-42.02.98-1.53 1.03-4.2.5-6.06-7.37-26.1-11.96-52.74-15.41-79.59-1.31-10.18-2.63-20.36-4.02-31.17-14.1 3.64-27.78 7.17-42.56 10.99 8.27 6.64 17.57 12.42 8.52 25.17 6.98-1.72 12.32-3.09 17.7-4.33 1.77-.41 3.72-.96 5.39-.58 2.18.48 4.16 1.82 6.23 2.79-1.43 1.81-2.51 4.6-4.36 5.26-6.05 2.15-12.31 3.83-18.61 5.07-3.79.75-5.87 1.9-5.88 6.16-.01 5.94-.58 11.87-.91 18 7.19-1.66 14.06-3.27 20.95-4.79 1.08-.24 2.5-.51 3.34-.02 2.15 1.24 4.06 2.89 6.06 4.37-1.57 1.71-2.84 4.4-4.75 4.96-8.23 2.43-16.64 4.24-25.73 6.45-.42 5.4-.92 11.8-1.48 18.96 6.29-1.69 11.91-3.36 17.6-4.66 3.53-.81 7.18-1.31 10.79-1.43 1.33-.04 3.19 1.13 3.88 2.29.38.65-.88 2.72-1.87 3.65-5.88 5.6-13.66 6.54-21.1 7.94-9.71 1.82-9.72 1.59-9.98 11.37-.07 2.49-.45 4.96-.55 7.45-.1 2.48-.02 4.97-.02 7.76 14.72-3.16 28.84-9.13 44.01-10 .24.51.48 1.02.73 1.53-3.26 2.03-6.31 4.57-9.82 5.99-19.24 7.79-38.69 15.07-57.87 22.99-14.42 5.95-28.64 12.44-42.79 19.02-5.18 2.41-9.8 2.88-14.45-.72-5.68-4.4-11.35-8.81-17.02-13.22.24-.67.47-1.35.71-2.02 3.79-.73 7.59-1.41 11.37-2.19 12.97-2.66 25.96-5.28 38.89-8.14 1.06-.23 2.44-2.16 2.48-3.34.24-6.65.12-13.31.12-20.54-10.09 2.69-20.33 8.84-29.77-2.74 2.51-.95 4.23-1.77 6.04-2.24 6.73-1.75 13.47-3.5 20.26-5.01 2.57-.57 3.61-1.66 3.53-4.36-.17-5.99-.05-11.98-.05-18.61-10.93 3.07-21.8 8.67-33.23-1.41 3.48-1.11 5.71-1.93 8-2.53 7.86-2.07 15.76-3.98 23.57-6.2 1.14-.33 2.65-2 2.7-3.11.27-5.8.13-11.62.13-17.8-11.33 3.18-22.45 8.48-33.91-1.75 2.78-.93 4.66-1.68 6.6-2.18 8.03-2.09 16.11-3.97 24.07-6.28 1.34-.39 3.2-2.64 3.07-3.83-.84-7.34-2.19-14.61-3.5-22.67-11.81 6.32-21.6 4.17-30.68-3.11-1.03-.83-2.13-1.7-2.85-2.78-.78-1.18-1.85-2.88-1.49-3.88.33-.91 2.36-1.51 3.72-1.71 9.52-1.37 19.09-2.39 28.58-3.93 6.34-1.03 12.57-2.73 18.28-4-1.6-10.69-3.11-20.81-4.69-31.39-12.37-.6-26.14 4.94-39.14-4.9 13.16-6.25 26.61-7.44 39.82-10.95.46-13.08-1.63-25.62-8.08-37.34-1.26-2.29-1.56-5.11-2.3-7.68 2.87.12 6.05-.51 8.56.5 6.29 2.54 12.38 5.63 18.34 8.89 3.37 1.84 4.09 4.5 2.96 8.79-1.82 6.96-2.09 14.32-3.07 21.94 9.44-1.43 17.71-2.81 26.02-3.87 3.11-.39 6.37-.35 9.45.15 1.89.31 3.58 1.87 5.36 2.87-1.28 1.5-2.28 3.77-3.89 4.36-10.43 3.83-20.91 7.57-31.56 10.72-3.8 1.12-4.68 2.63-4.81 6.39-.35 9.72-1.36 19.42-2.14 29.56 12.76-3.07 25.6-6.14 38.43-9.25 4.84-1.17 9.61-2.73 14.5-3.52 3.68-.6 4.45-2.23 4.23-5.67-1.4-21.9-2.57-43.82-3.89-65.73-.58-9.61-.66-19.31-2.23-28.77-1.05-6.36-4.33-12.35-6.58-18.52-.59-1.6-1.07-3.25-1.83-5.58 11.83-.41 21.98 2.16 30.61 8.91 1.84 1.44 2.81 5.96 2.07 8.43-4.24 14.23-4.75 28.82-4.93 43.44-.2 15.79-.07 31.59-.02 47.38.01 3.15.26 6.29.43 10.22 7.34-1.3 14.26-2.63 21.22-3.7 4.75-.73 9.63-1.86 14.31-1.41 3.89.38 7.98 2.23 11.26 4.48 4.24 2.92 3.54 5.63-1.6 7.01-6.39 1.72-12.9 3.06-19.4 4.34-8.14 1.6-16.33 2.95-25.5 4.59 3.48 32.26 7.75 64.35 15.38 97.17 1.04-2.1 1.66-3.13 2.07-4.23 5.39-14.31 10.57-28.81 11.06-44.19.3-9.34-1.33-18.79-2.65-28.12-.86-6.08.77-8.46 6.26-6.07 6.46 2.8 12.62 6.53 18.43 10.55 3.5 2.42 3.68 6.03 2.03 10.58-4.41 12.14-7.54 24.73-11.79 36.94-5.07 14.58-10.82 28.92-16.15 43.4-.56 1.53-.96 3.7-.3 5.01 6.66 13.37 13.35 26.74 20.52 39.84 2.1 3.84 5.46 7.15 8.74 10.17 4.46 4.11 8.1 3.21 10.42-2.36 3.82-9.2 7.38-18.51 11.11-27.74.7-1.72 1.68-3.33 2.52-4.98.48.13.96.25 1.44.38 0 5.54.37 11.11-.07 16.61-1.42 17.75-2.57 35.48.1 53.23.22 1.47.19 3.01.01 4.49-.62 5.33-3.58 7.42-8.14 4.75-5.83-3.42-11.53-7.37-16.47-11.96-16.87-15.68-27.94-35.37-37.44-56.05-1.43-3.12-2.86-6.25-4.47-9.77-12.59 14.41-24.7 28.76-43 35.27-.33-.45-.67-.88-1.01-1.31zm-51.4-27.05c6.03-1.37 11.49-2.69 16.98-3.84 2.95-.61 4-2.1 3.92-5.18-.2-7.82-.01-15.66 0-23.49.02-24.29.22-48.59-.11-72.87-.08-5.52-1.69-11.11-3.28-16.47-.49-1.67-3.38-3.93-4.91-3.74-4.63.55-9.13 2.17-12.32 3.01.9 7.1 2.22 13.68 2.43 20.29.17 5.43-1.35 10.89-1.47 16.35-.54 24.97-.85 49.94-1.22 74.91-.06 3.47-.02 6.95-.02 11.03z"/><path d="m90.63 330.93c-.92 7.2-1.81 14.14-2.7 21.08-.79.17-1.58.35-2.37.52-1.58-2.64-3.7-5.1-4.64-7.96-3.52-10.71-6.17-21.72-10.06-32.28-3.88-10.54-8.92-20.65-13.3-31.01-.97-2.3-2.5-5.54-1.61-7.14.88-1.57 4.49-2.13 6.93-2.23 11.59-.47 23.21-.27 34.77-1 10.66-.68 20.29-4.93 29.18-10.7 4.3-2.79 8.86-3.44 13.29-1.44 5.55 2.5 11.08 5.35 15.97 8.93 4.36 3.19 4.21 6.46.19 9.93-9.03 7.81-11.98 18.47-14.31 29.44-.27 1.26.36 2.81.85 4.12.64 1.7 1.67 3.25 2.34 4.94 2.95 7.41.8 10.43-7.24 10.95-14.92.97-29.83 2.15-44.74 3.28-.96.08-1.9.42-2.55.57zm-2.29-12.21c11.9-1.5 23.4-2.86 34.85-4.53 1.26-.19 3.13-2.12 3.24-3.38.69-7.78 1.25-15.6 1.28-23.41.02-5.55-3.03-8.22-8.52-8.17-3.48.03-6.97.42-10.42.89-8.19 1.12-16.36 2.39-25.15 3.69 1.6 11.83 3.13 23.1 4.72 34.91z"/><path d="m44.34 138.86c19.94.65 39.26-3.74 58.65-7.43 11.71-2.23 23.3-5.11 35.01-7.38 8.55-1.65 16.49.88 23.92 4.92 3.36 1.83 3.29 4.15-.5 5.53-6.19 2.27-12.6 4.12-19.05 5.5-22.52 4.83-45.13 9.25-67.63 14.16-5.29 1.15-10.63 3-15.34 5.61-5.2 2.89-10.08 3.12-14.46-.2-6.18-4.68-12.01-9.89-17.48-15.39-2.98-2.99-1.84-5.09 2.41-5.29 4.81-.2 9.64-.03 14.47-.03z"/><path d="m93.56 197.28c-7.34-1.45-13.85-2.55-20.25-4.11-1.65-.4-2.96-2.21-4.42-3.37 1.48-1.22 2.78-3.02 4.48-3.55 7.92-2.45 15.97-4.43 23.92-6.78 9.86-2.91 19.61-6.18 29.51-8.96 6.3-1.77 12.2-.09 17.5 3.61 4 2.79 4.32 6.31.04 8.56-6.43 3.38-13.14 6.61-20.11 8.48-10.19 2.74-20.73 4.21-30.67 6.12z"/><path d="m151.07 84.78c0 .83.09 1.67-.01 2.49-.62 4.86-1.38 10.62-6.4 11.94-3.16.83-7.96-1.46-10.96-3.75-10.77-8.22-19.5-18.49-26.84-29.85-1.26-1.96-1.08-4.85-1.56-7.31 2.35-.23 4.85-1.09 7.03-.59 8.96 2.09 18.12 3.83 26.63 7.16 8.43 3.31 12.29 10.71 12.11 19.91z"/><path d="m70.37 228.62c2.87-1.26 4.28-2.07 5.79-2.51 12.71-3.69 25.45-7.3 38.17-10.96 8.34-2.4 16.72-4.95 25.25-1.19 2.24.99 5.02 2.81 5.61 4.82.41 1.39-2.13 4.3-4 5.6-10.19 7.09-21.89 10-34 11.8-10.96 1.63-21.5.83-31.54-4.11-1.39-.69-2.64-1.71-5.28-3.45z"/><path d="m358.19 105.48c-.08 1.33-.04 2.67-.25 3.97-.86 5.28-4.01 7.31-8.87 5.17-3.29-1.45-6.61-3.32-9.2-5.77-7.22-6.8-14.17-13.91-20.98-21.12-1.15-1.21-1.09-3.55-1.6-5.37 1.7-.46 3.4-1.32 5.1-1.3 8.88.09 17.47 1.61 25.31 6.06 7.09 4.02 10.8 10.05 10.49 18.36z"/></g><path d="m6.8 9.5c.6.3 1.3.7 2.1 1.1-.4.4-.7.8-.9 1.2-.7-.4-1.3-.8-1.8-1.1s-1.1-.6-1.6-.8c.2-.4.5-.8.7-1.2.4.2.8.5 1.5.8zm.9 6.9c-.3.6-.5 1.1-.7 1.7s-.4 1.1-.6 1.7c-.6-.4-1.1-.7-1.6-1 .7-1 1.2-1.8 1.5-2.4.3-.5.6-1.1.8-1.7.3-.6.5-1.2.8-1.8.3.3.8.6 1.3.8-.7 1.3-1.2 2.2-1.5 2.7zm.1-11c.4.3 1 .7 1.7 1.1-.5.2-.8.6-1.1 1.1-.5-.6-1-1-1.4-1.2s-.9-.6-1.5-.8c.2-.4.5-.7.9-1.1.5.3.9.6 1.4.9zm10.5 13.1c1 .4 2 .6 3.1.7-.4.4-.7.8-.8 1.3-.9-.2-1.9-.6-3-.9-1-.4-2-.9-2.8-1.6-.5.4-1.1.9-1.9 1.3s-1.9.9-3.3 1.2c-.1-.3-.5-.8-1.1-1.3 1 0 2.1-.3 3.2-.8 1.2-.5 1.9-1 2.3-1.7h-3.2c-.4 0-1 0-2 .1v-1.2c1 0 1.7.1 2 .1h3.3v-1h-2.3c-.2 0-.9 0-2 .1v-1.2c1.2 0 1.9.1 2 .1h2.3v-.8h-4.1c0-.7.1-1.2.1-1.6 0-.5 0-1.1-.1-1.8h4.1v-.7h-2.5c0-.6.1-1.1.1-1.6v-.6h-.5c-.4 0-1 0-1.8.1v-1.3c1.2 0 1.9.1 2.1.1h.2c0-.3 0-.8-.1-1.4h1.4c0 .6-.1 1-.1 1.4h3.4c0-.4 0-.8-.1-1.3h1.5c0 .4-.1.9-.1 1.3.7 0 1.5 0 2.5-.1v1.2c-1 0-1.8-.1-2.5-.1v.6c0 .3 0 .8.1 1.5h-2.5v.8h4.1c0 .8-.1 1.3-.1 1.8s0 1 .1 1.5h-4.1v.8h1.4c.8 0 1.8 0 2.9-.1v1.2c-1 0-1.9-.1-2.8-.1h-1.5v1h3.2c.3 0 1 0 2.1-.1v1.2c-1.1 0-1.8-.1-2.1-.1h-3.4l-.1.1c1.4 1 2.4 1.5 3.4 1.9zm-4.1-6.7v-1.3h-2.7v1.3zm2.2-4.1v-1.1h-3.4v1.1zm1.9 4.1v-1.3h-2.8v1.3z" fill="#fafbfc"/><path d="m37 6.7v2.3 5.4c1 0 1.8 0 2.2-.1v1.3c-.6 0-1.5-.1-2.5-.1h-11.9c-.7 0-1.3 0-1.8.1v-1.3c.5 0 1.1.1 2 .1v-5.2c0-1 0-1.8-.1-2.5h3.7c0-1.3 0-2.1-.1-2.5h1.5c0 .4-.1 1.3-.1 2.5h2.2c0-1.2 0-2.1-.1-2.6h1.5c0 .4-.1 1.3-.1 2.6zm-12.3 13.7c-.3-.4-.7-.8-1.1-1.1 1.1-.4 2.1-.9 2.9-1.3.8-.5 1.5-1 2.1-1.6.4.4.9.8 1.3 1.1-2.5 1.4-4.2 2.4-5.2 2.9zm3.9-10.1v-2.4h-2.2v2.4zm0 4.1v-2.9h-2.2v2.9zm3.5-4.1v-2.4h-2.2v2.4zm0 4.1v-2.9h-2.2v2.9zm.4 2.9 1-1.1c.6.3 1.4.7 2.5 1.3s2 1.1 2.7 1.5c-.4.4-.8.8-1.1 1.3-.8-.8-2.5-1.7-5.1-3zm3.1-7v-2.4h-2.1v2.4zm0 4.1v-2.9h-2.1v2.9z" fill="#fafbfc"/></svg>