<svg enable-background="new 0 0 400 400" viewBox="0 0 400 400" xmlns="http://www.w3.org/2000/svg"><g fill="#010103"><path d="m199.95 359.07c-6.4-6.46-10.86-14.27-11.86-23.32-.73-6.62.49-13.46.82-20.2 1.04-21.25 2.5-42.5 2.95-63.77.34-16.29-.33-32.62-1.06-48.92-.39-8.62-1.93-17.13-6.25-24.92-1.2-2.16-1.41-4.87-2.55-9.1 5.94 1.21 10.81 1.21 14.7 3.18 10.21 5.18 20.64 4.03 31.23 2.6 2.13-.29 4.23-.78 6.89-1.29 1.58-12.86.16-25.33-5.12-37.25-.42-.95-2.95-1.58-4.37-1.38-12.14 1.69-24.21 4.04-36.4 5.3-7.22.74-17.14-4.98-20.48-10.87 3.56-.72 6.79-1.72 10.09-1.99 34.02-2.78 66.99-11.46 100.39-17.73 19.25-3.62 38.47-7.48 57.82-10.47 5.9-.91 12.54-.4 18.18 1.47 4.87 1.61 9.32 5.56 13 9.4 3.44 3.57 2.23 6.82-2.74 7.9-5.96 1.29-12.12 1.88-18.22 2.24-20.89 1.23-41.79 2.22-63.68 3.35 1.12 2.32 1.46 3.37 2.06 4.22 3.38 4.73 4.24 9.55 2.78 15.47-1.61 6.52-1.68 13.42-2.56 21.37 7.3-1.96 13.54-3.31 19.55-5.35 6.11-2.07 12.25-2.49 17.97.07 8.3 3.72 16.51 7.86 24.21 12.69 6.1 3.82 7.07 9.55 2.71 14.5-7.97 9.08-9.63 20.05-9.69 31.2-.14 27.14.84 54.29.54 81.42-.19 17.41-.77 34.98-6.98 51.61-1.35 3.6-4.38 6.57-6.64 9.83-2.6-2.99-5.92-5.63-7.63-9.06-2.49-5.01-3.64-10.66-5.75-15.88-.55-1.37-2.57-3.1-3.87-3.07-26.6.74-53.2 1.66-79.8 2.67-6.47.25-12.93.91-19.4 1.42-2.93.23-4.45 1.29-4.89 4.79-.75 5.96-2.53 11.8-3.87 17.69-.7.06-1.39.12-2.08.18zm116.29-37.77c.21-1.12.5-2.08.57-3.05 1.08-14.75 2.77-29.49 3.06-44.26.46-23.94.3-47.91-.25-71.85-.16-7.19-2-14.46-3.93-21.46-1.74-6.31-5.9-8.89-12.39-8.54-5.29.29-10.57 1.1-15.79 2.05-1.16.21-2.91 2.01-2.91 3.07 0 13.47-.09 26.95.63 40.39.33 6.23 5.31 9.83 11.61 10.27 3.14.22 6.29.44 9.41.82 3.55.43 6.58 1.71 6.71 5.94.13 4.31-3.15 8.29-7.54 8.4-5.45.14-11.01.03-16.37-.85-9.82-1.6-15.01-7.26-16.07-16.88-.58-5.28-.91-10.61-1-15.92-.15-9.93-.04-19.86-.04-30.36-7.14 1.06-14.39 2.14-21.43 3.19-4.92 41.66-14.95 64.05-31.88 70.64 4.17-11.33 8.88-22.07 12.04-33.24 3.24-11.45 4.39-23.38 4.17-35.83-9.2 1.12-17.85 2.17-26.79 3.26-.56 46.16-1.11 91.72-1.67 137.81 4.23-.36 7.82-.64 11.41-.98 16.21-1.55 32.41-3.26 48.63-4.62 9.38-.78 18.82-1.56 28.21-1.29 7.04.21 14.04 2.08 21.61 3.29zm-74.92-190.42c.99 1.13 1.35 1.68 1.84 2.07 6.34 5.08 9.08 11.13 7.49 19.63-1.13 6.06-.22 12.5-.22 19.21 3.99-.7 7.55-1.28 11.1-1.95 11.4-2.14 11.4-2.15 11.39-13.62 0-3 .2-6.02-.13-8.98-.78-7.01-1.82-14-2.78-21.15-9.95 1.67-18.89 3.16-28.69 4.79z"/><path d="m127.18 162.08c1.79 2.3 3.16 3.95 4.4 5.69 3.47 4.89 3.98 10 2.89 16.05-1.84 10.18-2.44 20.58-3.61 31.23 8.05-1.27 14.86-2.68 21.75-3.31 5.93-.55 12.05-.7 17.18 3.42 4.36 3.5 4.13 6.62-1.25 7.99-7.21 1.83-14.66 2.71-22.02 3.92-4.88.8-9.79 1.47-15.01 2.25-.54 16.69-1.08 33.09-1.63 50.01 19.96-4.79 38.47-13.04 58.57-13.61.31.66.63 1.33.94 1.99-2.67 1.93-5.1 4.38-8.04 5.7-15.91 7.11-31.9 14.04-47.95 20.85-16.67 7.07-33.53 13.7-50.1 20.98-5.71 2.51-10.64 6.76-16.27 9.53-2.87 1.41-7.36 2.88-9.6 1.62-8.19-4.61-15.99-10.02-23.42-15.8-3.56-2.78-.03-4.77 2.49-5.39 6.76-1.66 13.64-2.86 20.45-4.31 3.55-.75 7.06-1.65 11.06-2.59-.71-7.97-.97-15.77-2.19-23.42-2.32-14.55-4.78-29.1-8.06-43.45-1.22-5.33-5-10.05-7.47-15.12-2.07-4.24-1.14-6.16 3.28-5.17 8.83 1.98 17.52 4.7 26.07 7.7 3.59 1.26 4.35 4.44 3.59 8.64-1.29 7.15-1.86 14.5-1.99 21.78-.28 15.1-.09 30.21-.09 46.11 10.6-3.13 20.26-5.91 29.84-8.94.97-.31 1.96-2.15 2.04-3.34.43-6.3.75-12.62.77-18.93.08-23.99.15-47.99-.06-71.98-.05-5.43-.92-10.92-2.09-16.24-.53-2.39-2.36-4.8-4.24-6.51-2.1-1.92-4.5-2.08-6.82.72-8.65 10.46-11.86 10.02-15.9-2.89-3.77-12.02-6.15-24.47-9.89-36.5-2.74-8.83-6.8-17.24-10.03-25.92-.92-2.48-2.26-6.62-1.18-7.63 1.75-1.65 5.55-2.3 8.12-1.73 24.1 5.42 46.47 1.03 67.64-11.09 4.81-2.75 10.13-2.85 14.91-.87 9.64 3.99 19.12 8.41 28.36 13.25 5.36 2.81 5.18 5.49.9 9.63-2.61 2.53-5.37 5.13-7.2 8.21-5.83 9.81-11.25 19.85-16.89 29.92 2.31 1.79 4.06 3.02 5.66 4.42 2.83 2.48 2.44 4.84-1.08 5.83-6.05 1.71-12.21 3.07-18.38 4.29-5.84 1.13-11.76 1.93-18.45 3.01zm-30.42-5.85c14.98-2.63 28.84-5.02 42.66-7.58.95-.18 2.17-1.58 2.39-2.6 2.44-11.51 5.16-23 6.87-34.63 1.31-8.9-3.67-13.31-12.46-11.65-13.67 2.58-27.27 5.53-40.85 8.56-1.2.27-2.92 2.43-2.82 3.59 1.22 14.52 2.71 29.02 4.21 44.31z"/><path d="m262.53 98.58c1.68-2.31 3.36-4.63 5.04-6.94 5.76-7.92 11.83-15.65 17.21-23.83 6.17-9.39 9.16-19.78 8.23-31.23-.51-6.27 2.58-8.76 8.21-5.97 10.08 5 19.82 10.71 29.41 16.61 3.84 2.36 3.85 6.48.34 7.97-15.64 6.63-26.92 19.42-40.87 28.42-6.56 4.23-13.06 8.57-19.67 12.72-2.15 1.35-4.56 2.29-6.84 3.42-.37-.39-.72-.78-1.06-1.17z"/><path d="m248.59 83.62c-1.33 4.77-1.4 9.35-5.99 11.19-4.53 1.81-9.02.42-12.41-3-3.14-3.17-6.24-6.55-8.53-10.34-4.63-7.66-8.78-15.62-12.96-23.54-1.89-3.58.31-5.12 3.3-3.91 10.9 4.39 22.45 8.04 30.64 16.99 3 3.27 4.02 8.35 5.95 12.61z"/><path d="m223.04 277.74c4.13-.74 8.27-1.47 12.4-2.21 13.71-2.48 27.36-5.28 41.13-7.31 7.9-1.17 16.06-1.41 23.01 3.89 1.36 1.04 3.51 3.03 3.21 3.81-.59 1.57-2.42 3.34-4.05 3.75-9.32 2.32-18.64 5.04-28.13 6.13-11.99 1.38-24.23 2.94-36.15-.79-4.08-1.28-7.89-3.41-11.82-5.16.14-.7.27-1.41.4-2.11z"/></g><path d="m6.8 9.5c.6.3 1.3.7 2.1 1.1-.4.4-.7.8-.9 1.2-.7-.4-1.3-.8-1.8-1.1s-1.1-.6-1.6-.8c.2-.4.5-.8.7-1.2.4.2.8.5 1.5.8zm.9 6.9c-.3.6-.5 1.1-.7 1.7s-.4 1.1-.6 1.7c-.6-.4-1.1-.7-1.6-1 .7-1 1.2-1.8 1.5-2.4.3-.5.6-1.1.8-1.7.3-.6.5-1.2.8-1.8.3.3.8.6 1.3.8-.7 1.3-1.2 2.2-1.5 2.7zm.1-11c.4.3 1 .7 1.7 1.1-.5.2-.8.6-1.1 1.1-.5-.6-1-1-1.4-1.2s-.9-.6-1.5-.8c.2-.4.5-.7.9-1.1.5.3.9.6 1.4.9zm10.5 13.1c1 .4 2 .6 3.1.7-.4.4-.7.8-.8 1.3-.9-.2-1.9-.6-3-.9-1-.4-2-.9-2.8-1.6-.5.4-1.1.9-1.9 1.3s-1.9.9-3.3 1.2c-.1-.3-.5-.8-1.1-1.3 1 0 2.1-.3 3.2-.8 1.2-.5 1.9-1 2.3-1.7h-3.2c-.4 0-1 0-2 .1v-1.2c1 0 1.7.1 2 .1h3.3v-1h-2.3c-.2 0-.9 0-2 .1v-1.2c1.2 0 1.9.1 2 .1h2.3v-.8h-4.1c0-.7.1-1.2.1-1.6 0-.5 0-1.1-.1-1.8h4.1v-.7h-2.5c0-.6.1-1.1.1-1.6v-.6h-.5c-.4 0-1 0-1.8.1v-1.3c1.2 0 1.9.1 2.1.1h.2c0-.3 0-.8-.1-1.4h1.4c0 .6-.1 1-.1 1.4h3.4c0-.4 0-.8-.1-1.3h1.5c0 .4-.1.9-.1 1.3.7 0 1.5 0 2.5-.1v1.2c-1 0-1.8-.1-2.5-.1v.6c0 .3 0 .8.1 1.5h-2.5v.8h4.1c0 .8-.1 1.3-.1 1.8s0 1 .1 1.5h-4.1v.8h1.4c.8 0 1.8 0 2.9-.1v1.2c-1 0-1.9-.1-2.8-.1h-1.5v1h3.2c.3 0 1 0 2.1-.1v1.2c-1.1 0-1.8-.1-2.1-.1h-3.4l-.1.1c1.4 1 2.4 1.5 3.4 1.9zm-4.1-6.7v-1.3h-2.7v1.3zm2.2-4.1v-1.1h-3.4v1.1zm1.9 4.1v-1.3h-2.8v1.3z" fill="#fafbfc"/><path d="m37 6.7v2.3 5.4c1 0 1.8 0 2.2-.1v1.3c-.6 0-1.5-.1-2.5-.1h-11.9c-.7 0-1.3 0-1.8.1v-1.3c.5 0 1.1.1 2 .1v-5.2c0-1 0-1.8-.1-2.5h3.7c0-1.3 0-2.1-.1-2.5h1.5c0 .4-.1 1.3-.1 2.5h2.2c0-1.2 0-2.1-.1-2.6h1.5c0 .4-.1 1.3-.1 2.6zm-12.3 13.7c-.3-.4-.7-.8-1.1-1.1 1.1-.4 2.1-.9 2.9-1.3.8-.5 1.5-1 2.1-1.6.4.4.9.8 1.3 1.1-2.5 1.4-4.2 2.4-5.2 2.9zm3.9-10.1v-2.4h-2.2v2.4zm0 4.1v-2.9h-2.2v2.9zm3.5-4.1v-2.4h-2.2v2.4zm0 4.1v-2.9h-2.2v2.9zm.4 2.9 1-1.1c.6.3 1.4.7 2.5 1.3s2 1.1 2.7 1.5c-.4.4-.8.8-1.1 1.3-.8-.8-2.5-1.7-5.1-3zm3.1-7v-2.4h-2.1v2.4zm0 4.1v-2.9h-2.1v2.9z" fill="#fafbfc"/></svg>