<svg enable-background="new 0 0 400 400" viewBox="0 0 400 400" xmlns="http://www.w3.org/2000/svg"><g fill="#010103"><path d="m38.06 197.26c22.26 4.47 43.55-.66 65.71-5.29-1.04-6.5-1.43-12.83-3.23-18.74-1.05-3.47-4.35-6.25-6.59-9.38-1.72-2.4-4.02-4.62-4.93-7.31-2.96-8.77-5.41-17.72-8.18-27.03-12.27-1.04-25.91 2.33-37.75-5.22-.04-.66-.09-1.31-.13-1.97 11.09-2.31 22.17-4.62 33.8-7.04-2.23-11.3-5.76-22-12.21-31.62-.28-.41-.72-.75-.9-1.19-.87-2.2-1.67-4.43-2.49-6.65 2.48-.46 5.07-1.64 7.41-1.25 6.19 1.04 12.38 2.37 18.34 4.3 6.17 2 7.55 4.96 7.4 11.39-.17 7.13-.04 14.27-.04 21.97 9.75-1.88 19.31-3.67 28.85-5.59 9.42-1.9 9.75-1.92 11.03-11.71 1.87-14.35 3.38-28.8-.32-43.1-.94-3.65-3.15-6.95-4.4-10.54-.54-1.56-.65-3.75.08-5.08.42-.77 3.15-.96 4.44-.44 7.79 3.19 15.76 6.12 23.08 10.19 6.08 3.37 6.36 7.27 2.75 13.44-4.27 7.3-11.67 31.86-12.45 41.74 5.29-.93 10.43-2.11 15.63-2.68 5.23-.57 10.53-.59 15.8-.73.94-.02 2.18.25 2.79.87 2.58 2.6 6.75 5.23 7.02 8.14.38 4.18-4.77 4.13-8.06 4.65-10.48 1.68-20.98 3.28-31.52 4.6-2.84.36-4.02 1.44-4.49 4.13-1.02 5.72-2.52 11.37-3.28 17.12-.3 2.25.53 4.84 1.42 7.04 2.64 6.47 1.39 9.35-5.38 10.84-8.56 1.89-17.16 3.59-25.82 5.4 2.26 4.47 5.33 8.66 6.44 13.31s.24 9.77.24 15.45c8.11-2.84 16.6-5.21 24.53-8.8 6.32-2.86 12.14-3.29 18.15-.23 4.58 2.33 9.1 4.84 13.37 7.69 5.36 3.58 4.95 6.32-.15 10.16-8.32 6.27-16.33 12.96-24.33 19.36 6.22 10.61 5.41 11.58-5.99 12.82-9.36 1.02-18.6 3.1-28.05 4.73v30.02c1.36-.2 2.6-.27 3.79-.56 10.47-2.57 20.96-5.06 31.38-7.82 5.49-1.45 10.16.25 14.61 3.05 1.14.72 2.81 2.36 2.6 3.1-.38 1.3-1.85 2.85-3.17 3.23-6.53 1.88-13.13 3.49-19.75 5.03-8.56 2-17.13 4-25.77 5.65-3.11.59-3.98 1.84-4.04 4.9-.3 16.81-.43 33.63-1.44 50.4-.52 8.72-2.61 17.36-4.24 26-.36 1.93-1.77 3.67-3.01 6.1-6.31-5.6-7.89-12.58-9.7-19.37-2.53-9.48.05-18.78 1.31-28.14 1.57-11.64 2.69-23.35 4.1-35.97-9.03 2.05-17.1 3.63-25.03 5.73-13.13 3.47-26.16 7.27-39.25 10.89-1.41.39-2.97.88-4.36.67-9.88-1.49-16.48-7.53-22.2-15.67 30.48-4.37 60.19-8.62 90.23-12.93.57-11.05 1.09-21.27 1.66-32.29-7.75 1.48-15.15 2.83-22.51 4.31-4.63.93-9.23 1.41-12.41 6.09-2.29 3.38-4.59.87-5.8-1.85-2.22-5-3.9-10.28-6.54-15.04-5.38-9.71-11.26-19.14-16.92-28.69-.57-.96-1.03-1.98-1.53-2.98.17-.52.29-1.07.4-1.61zm27.02 11.45c2.2 8.8 4.26 17.02 6.55 26.15 10.4-2.2 20.08-4.19 29.72-6.41.9-.21 2.1-1.81 2.12-2.78.17-8.07.1-16.15.1-25.09-13.05 2.75-25.27 5.33-38.49 8.13zm33.24-55.26c9.21-2.63 17.8-5.01 26.32-7.6 1-.3 2.18-1.61 2.4-2.64 1.6-7.54 2.98-15.12 4.64-23.77-12.13 2.21-23.32 4.18-34.44 6.44-.9.18-2.06 2.52-1.93 3.74.78 7.7 1.9 15.36 3.01 23.83zm16.86 71.57c7.86-2.09 14.56-3.79 21.2-5.69 1.27-.36 3.05-1.29 3.34-2.31 1.61-5.71 2.96-11.5 4.15-17.32.67-3.27-.76-5.13-4.35-4.7-6.71.8-13.44 1.55-20.13 2.51-.85.12-2.13 1.31-2.21 2.1-.77 8.19-1.33 16.41-2 25.41z"/><path d="m277.39 327.31c7.04 1.47 12.98 2.79 18.94 3.92 11.29 2.15 16.34-.9 18.4-12.29 1.56-8.63 2.61-17.46 2.71-26.22.23-19.14-.05-38.29-.66-57.41-.19-6.04-1.46-12.24-3.34-18-2.52-7.74-8.96-11.26-16.96-9.48-8.23 1.83-16.25 4.6-24.39 6.84-7.3 2.01-15.93-1.25-20.5-8.07 2.23-.56 4.19-1.27 6.21-1.54 15.68-2.05 30.15-7.41 44.11-14.79 3.75-1.98 9.29-2.79 13.27-1.62 7.55 2.22 14.77 5.86 21.73 9.65 5.84 3.17 5.32 5.5 3.21 11.83-2.22 6.66-3.67 13.89-3.79 20.9-.47 27.31-.03 54.64-.46 81.95-.16 10.26-1.3 20.56-2.84 30.72-1.54 10.14-7.09 18.56-14.06 25.91-4.57 4.81-9.36 4.52-11.92-1.41-6.15-14.23-15.48-25.89-26.7-36.3-1.02-.94-1.56-2.39-2.96-4.59z"/><path d="m194.26 331.58c4.86.53 9.74.92 14.58 1.61 13.02 1.87 16.74-1.01 18-14.39 2.69-28.73 1.88-57.46.02-86.2-.11-1.64-.58-3.27-.96-4.88-1.65-6.95-4.88-9.42-11.81-8.01-7.95 1.61-15.73 4-23.64 5.8-6.78 1.54-13.28.7-18.8-3.9-1.25-1.04-1.85-2.87-2.75-4.33 1.58-.77 3.09-1.99 4.74-2.23 4.92-.72 10.09-.38 14.83-1.67 10.23-2.78 20.4-5.94 30.3-9.71 5.53-2.1 10.66-2.69 15.8-.04 4.99 2.59 9.82 5.55 14.47 8.72 3.05 2.08 4.24 5.38 2.23 8.78-5.78 9.8-5.91 20.74-5.95 31.46-.1 24.8.69 49.59.67 74.39-.01 12.61-2.21 24.85-10.59 35.08-.84 1.03-1.65 2.1-2.55 3.07-6.76 7.25-9.52 6.64-12.55-2.77-3.12-9.72-10.2-16.16-18.05-22-2.99-2.23-5.86-4.62-8.78-6.93.25-.61.52-1.23.79-1.85z"/><path d="m278.2 146.76c-2.81-8.14-8.11-14.96-8.25-24.39 2.66 1.06 4.88 1.47 6.5 2.68 9.06 6.74 18.32 13.27 26.82 20.66 6.54 5.68 8.52 13.86 7.59 22.32-.29 2.59-2.25 5.79-4.42 7.09-1.35.81-5.12-.8-6.76-2.4-5.1-4.98-9.79-10.39-14.46-15.79-1.57-1.81-2.79-2.82-5.36-1.77-18.61 7.6-37.33 14.94-55.88 22.67-4.86 2.03-9.33 5.04-13.88 7.76-4.94 2.96-7.95 2.05-10.18-3.31-4.18-10.02-2.3-16.09 5.52-23.77 14.46-14.22 24.97-31.05 30.74-50.6.91-3.1.6-6.58.75-9.89.17-3.77 2.26-5.15 5.15-3.02 5.7 4.21 11.22 8.73 16.36 13.61 2.88 2.73 1.8 5.7-1.01 8.63-11.63 12.12-23.04 24.44-34.4 36.82-1.07 1.16-1.15 3.23-1.68 4.88 2.22.26 4.58 1.15 6.63.67 11.3-2.63 22.53-5.57 33.77-8.46 5.43-1.38 10.83-2.88 16.45-4.39z"/><path d="m251.61 45.16c11.03-5.91 23.6-2.13 30.82 6.84 6.88 8.55 13.78 17.08 21.02 25.32 19.63 22.33 43.36 38.62 71.74 47.93 3.17 1.04 6.12 2.76 9.17 4.16-.07.58-.13 1.17-.2 1.75-3.61.61-7.21 1.68-10.83 1.76-12.45.28-24.9.26-37.35.27-10.72 0-18.88-4.97-24.59-13.75-8.7-13.37-17.27-26.85-25.55-40.49-7.62-12.55-16.43-23.85-29.37-31.34-1.57-.89-3.24-1.63-4.86-2.45z"/><path d="m173.52 129.57c2.71-3.17 5.25-6.52 8.16-9.49 12.45-12.67 22.35-27.15 30.98-42.6 3.88-6.94 4.72-14.37 4.94-22.05.15-5.47 1.7-6.62 6.26-3.87 6.8 4.1 13.54 8.39 19.78 13.28 4.36 3.42 3.35 5.72-.72 9.59-10.35 9.83-20.29 20.1-30.4 30.19-9.07 9.05-18.15 18.1-29.84 23.84-2.52 1.24-5.36 1.84-8.05 2.73-.36-.54-.73-1.08-1.11-1.62z"/><path d="m149.8 313.67c12.64-6.82 24.54-12.53 35.69-19.45 11.23-6.97 21.73-15.14 32.54-22.78.44.36.88.72 1.31 1.09-.96 1.92-1.63 4.07-2.92 5.72-8.1 10.31-16.42 20.45-24.48 30.79-2.74 3.51-5.13 7.34-7.31 11.23-1.82 3.25-4.24 5.22-7.95 4.74-9.51-1.22-18.06-4.84-26.88-11.34z"/><path d="m309.92 263.4c-9.79 12.89-19.56 25.8-29.44 38.64-.74.96-2.12 1.64-3.34 1.99-6.95 2.01-19.69-2.67-24.02-8.7l55.32-33.08c.5.38.99.76 1.48 1.15z"/><path d="m182.47 240.95c5.29 1.74 10.77 3.06 15.81 5.36 4.32 1.97 6.4 6.15 6.83 10.92.56 6.08-2.9 9.37-8.78 7.59-9.33-2.82-15.97-9.43-20.98-17.48-2.27-3.66.12-5.46 7.12-6.39z"/><path d="m260.02 232.83c11.27.32 21.03 1.97 28.81 9.33 4.06 3.84 4.3 8.9 1.36 12.53-2.64 3.25-7.11 3.99-11.51.23-6.1-5.21-11.38-11.4-16.89-17.28-.8-.86-.9-2.36-1.77-4.81z"/></g><path d="m6.8 9.5c.6.3 1.3.7 2.1 1.1-.4.4-.7.8-.9 1.2-.7-.4-1.3-.8-1.8-1.1s-1.1-.6-1.6-.8c.2-.4.5-.8.7-1.2.4.2.8.5 1.5.8zm.9 6.9c-.3.6-.5 1.1-.7 1.7s-.4 1.1-.6 1.7c-.6-.4-1.1-.7-1.6-1 .7-1 1.2-1.8 1.5-2.4.3-.5.6-1.1.8-1.7.3-.6.5-1.2.8-1.8.3.3.8.6 1.3.8-.7 1.3-1.2 2.2-1.5 2.7zm.1-11c.4.3 1 .7 1.7 1.1-.5.2-.8.6-1.1 1.1-.5-.6-1-1-1.4-1.2s-.9-.6-1.5-.8c.2-.4.5-.7.9-1.1.5.3.9.6 1.4.9zm10.5 13.1c1 .4 2 .6 3.1.7-.4.4-.7.8-.8 1.3-.9-.2-1.9-.6-3-.9-1-.4-2-.9-2.8-1.6-.5.4-1.1.9-1.9 1.3s-1.9.9-3.3 1.2c-.1-.3-.5-.8-1.1-1.3 1 0 2.1-.3 3.2-.8 1.2-.5 1.9-1 2.3-1.7h-3.2c-.4 0-1 0-2 .1v-1.2c1 0 1.7.1 2 .1h3.3v-1h-2.3c-.2 0-.9 0-2 .1v-1.2c1.2 0 1.9.1 2 .1h2.3v-.8h-4.1c0-.7.1-1.2.1-1.6 0-.5 0-1.1-.1-1.8h4.1v-.7h-2.5c0-.6.1-1.1.1-1.6v-.6h-.5c-.4 0-1 0-1.8.1v-1.3c1.2 0 1.9.1 2.1.1h.2c0-.3 0-.8-.1-1.4h1.4c0 .6-.1 1-.1 1.4h3.4c0-.4 0-.8-.1-1.3h1.5c0 .4-.1.9-.1 1.3.7 0 1.5 0 2.5-.1v1.2c-1 0-1.8-.1-2.5-.1v.6c0 .3 0 .8.1 1.5h-2.5v.8h4.1c0 .8-.1 1.3-.1 1.8s0 1 .1 1.5h-4.1v.8h1.4c.8 0 1.8 0 2.9-.1v1.2c-1 0-1.9-.1-2.8-.1h-1.5v1h3.2c.3 0 1 0 2.1-.1v1.2c-1.1 0-1.8-.1-2.1-.1h-3.4l-.1.1c1.4 1 2.4 1.5 3.4 1.9zm-4.1-6.7v-1.3h-2.7v1.3zm2.2-4.1v-1.1h-3.4v1.1zm1.9 4.1v-1.3h-2.8v1.3z" fill="#fafbfc"/><path d="m37 6.7v2.3 5.4c1 0 1.8 0 2.2-.1v1.3c-.6 0-1.5-.1-2.5-.1h-11.9c-.7 0-1.3 0-1.8.1v-1.3c.5 0 1.1.1 2 .1v-5.2c0-1 0-1.8-.1-2.5h3.7c0-1.3 0-2.1-.1-2.5h1.5c0 .4-.1 1.3-.1 2.5h2.2c0-1.2 0-2.1-.1-2.6h1.5c0 .4-.1 1.3-.1 2.6zm-12.3 13.7c-.3-.4-.7-.8-1.1-1.1 1.1-.4 2.1-.9 2.9-1.3.8-.5 1.5-1 2.1-1.6.4.4.9.8 1.3 1.1-2.5 1.4-4.2 2.4-5.2 2.9zm3.9-10.1v-2.4h-2.2v2.4zm0 4.1v-2.9h-2.2v2.9zm3.5-4.1v-2.4h-2.2v2.4zm0 4.1v-2.9h-2.2v2.9zm.4 2.9 1-1.1c.6.3 1.4.7 2.5 1.3s2 1.1 2.7 1.5c-.4.4-.8.8-1.1 1.3-.8-.8-2.5-1.7-5.1-3zm3.1-7v-2.4h-2.1v2.4zm0 4.1v-2.9h-2.1v2.9z" fill="#fafbfc"/></svg>