<svg enable-background="new 0 0 400 400" viewBox="0 0 400 400" xmlns="http://www.w3.org/2000/svg"><g fill="#010103"><path d="m126 261.94c9.83-1.86 19.07-3.82 28.4-5.27 3.51-.54 7.2.19 10.81.18 1.31 0 3.19 0 3.84-.8 13.68-16.75 27.84-33.16 40.58-50.6 8.89-12.17 15.82-25.77 23.58-38.76.73-1.21 1.2-2.58 1.06-5.04-9.84 3.76-19.76 7.32-29.49 11.35-7.18 2.98-20.51-.25-25.03-6.52-1.99-2.77-.28-4.12 2-4.73 4.15-1.13 8.47-1.64 12.6-2.82 16.43-4.68 32.83-9.44 49.16-14.42 1.39-.42 3.2-2.77 3.13-4.14-.69-13.25-1.71-26.48-2.75-39.7-.13-1.61-.84-3.21-1.46-4.75-2.3-5.71-2.99-5.9-8.76-4.06-6.32 2.02-12.71 3.82-19.09 5.63-1.48.42-3.07.47-5.06-.36 2.06-1.55 4.22-2.99 6.17-4.66 12.37-10.58 24.94-20.94 36.87-32 3.74-3.46 5.92-8.72 8.39-13.39 2.8-5.29 5.67-6.97 11.21-4.88 7.46 2.81 14.86 5.81 22.09 9.14 4.97 2.29 4.98 4.86.27 7.74-2.67 1.63-5.73 2.61-8.53 4.04-12.42 6.33-24.82 12.71-37.22 19.1-.69.36-1.25.98-2.24 1.78 3.37 2.05 6.52 3.77 9.47 5.79 7.15 4.89 7.89 8.45 6.63 16.85-1.63 10.79-2.19 21.74-3.29 33.58 3.08-.56 4.97-.71 6.74-1.27 12.81-4.03 25.86-7.49 38.32-12.43 11.57-4.59 21.12-1.87 30.15 5.2 4.78 3.74 4.35 7.16-1.5 8.82-7.46 2.12-15.24 3.15-22.9 4.54-15.95 2.88-31.91 5.68-47.87 8.51-.22.57-.44 1.14-.66 1.7 5.98 5.66 11.5 11.92 18.02 16.87 27.36 20.77 58.43 34.17 90.88 44.68 4.58 1.48 9.15 3.04 13.63 4.78 1.76.68 3.29 1.96 4.92 2.96.02.52.05 1.04.07 1.56-4.92 1.49-9.76 3.43-14.78 4.38-9.6 1.81-19.26 3.59-28.98 4.38-9.57.78-17.42-3.36-24.55-10.04-19.19-17.98-38.85-35.45-58.34-53.1-.45-.41-1.05-.64-2.11-1.28-.09 2.08-.22 3.66-.23 5.24-.05 17.66.04 35.33-.21 52.99-.06 4.13-1.25 8.23-2.13 13.63-7.53-5.66-10.63-12.15-12.88-19.04-.78-2.4-.58-5.2-.44-7.8.61-11.11 1.38-22.21 2.03-33.32.05-.9-.3-1.83-.55-3.2-19.65 32.26-40.86 62.3-75.89 79.91 2.16 1.46 4.08 2.76 7 4.73-2.75 1.38-4.59 2.82-6.65 3.26-11.67 2.52-23.39 4.8-35.09 7.18-3.06.62-6.1 1.32-10.31 2.23 0 14.27.52 28.43-.16 42.52-.59 12.25-2.27 24.46-4.08 36.61-.46 3.06-3.24 5.77-4.96 8.64-2.25-2.42-5.1-4.51-6.64-7.32-6.11-11.14-6.27-22.85-4.04-35.28 2.36-13.18 2.95-26.68 4.41-41.01-22.54 7.07-44.73 11.66-61.02 29.05-2.22 2.37-5.65 3.59-8.52 5.35-1.98-3.28-4.84-6.34-5.76-9.9-1.78-6.86-.36-13.61 4.1-19.32 6.15-7.86 9.91-16.35 8.72-26.65-.21-1.86 1.21-3.9 1.88-5.86 1.68.87 3.66 1.44 5 2.68 5.31 4.89 7.33 10.94 5.53 18.07-.65 2.57-1.33 5.14-2.25 8.67 4.62-1.3 8.79-2.43 12.94-3.64 12.11-3.52 24.19-7.17 36.34-10.56 3.12-.87 4.24-2.34 4.09-5.58-.26-5.77-.07-11.57-.07-17.61-15.86 2.23-31.14 8.96-46.48 1.67-.17-.75-.34-1.51-.51-2.26 3.67-1.57 7.23-3.45 11.02-4.65 10.13-3.2 20.34-6.16 30.55-9.08 2.81-.8 4.23-2.07 3.67-5.23-.65-3.74-.97-7.53-1.53-12.05-5.49 1.52-10.75 2.82-15.88 4.51-1.11.37-1.74 2.14-2.63 3.22-.8.98-1.67 1.91-2.5 2.86-1.04-.95-2.39-1.71-3.08-2.87-6.78-11.44-13.38-22.99-20.2-34.41-2.44-4.09-5.33-7.92-8.67-12.83 3.8-.43 6.65-1.02 9.51-1.03 23.67-.05 45.42-6.95 65.9-18.36 4.13-2.3 8.34-3.67 12.82-1.6 6.32 2.92 12.63 5.92 18.68 9.35 3.36 1.9 4.32 4.52.82 7.99-3.27 3.24-5.7 7.34-8.45 11.1-2.88 3.94-5.08 7.52-1.4 12.73 2.9 4.1.8 7.54-4.31 8.83-7.67 1.94-15.39 3.66-22.38 5.31 1.23 5.74 2.31 10.77 3.33 15.56 6.75-1 14.1-2.12 21.46-3.14 1.46-.2 3.11-.37 4.45.1 1.72.6 4.16 1.58 4.55 2.9.48 1.66-.21 4.45-1.46 5.64-2.09 1.99-4.88 3.49-7.63 4.48-6.87 2.47-13.85 4.67-20.88 6.68-2.51.72-3.53 1.71-3.43 4.39.26 5.55.12 11.04.12 16.98zm-37.45-52.78c14.78-5.08 29.02-9.92 43.18-14.99 1.04-.37 2.04-2.39 2.09-3.68.23-5.47.16-10.97.08-16.45-.07-4.42-2.34-6.73-6.69-5.64-15.04 3.76-29.98 7.94-45.05 11.98 2.22 9.94 4.25 19.1 6.39 28.78z"/><path d="m213.11 364.01c-6.31-4.89-7.36-10.66-8.21-16.35-3.65-24.52-9.44-48.52-16.95-72.12-.85-2.68-1.83-5.37-3.14-7.85-1.71-3.23-.35-4.64 2.61-5.37.96-.24 1.99-.39 2.96-.29 20.05 2.12 38.81-4.11 57.57-9.46 18.17-5.18 36.02-11.52 53.96-17.5 6.16-2.05 11.87-1.5 17.05 2.31 6.02 4.44 11.92 9.06 17.73 13.78 4.85 3.94 4.7 6.73.44 11.44-5.59 6.19-6.02 14.26-6.97 21.92-2.28 18.45-3.52 37.05-6.37 55.4-1.29 8.34-5.19 16.34-8.39 24.29-.78 1.95-3.49 3.12-5.31 4.65-1.39-1.75-3.26-3.31-4.08-5.3-2.4-5.83-4.52-11.79-6.49-17.78-1.57-4.77-4.55-7.33-9.62-6.76-9.23 1.04-18.44 2.24-27.66 3.39-12.52 1.56-25.01 3.29-37.56 4.6-4.44.46-7.44 1.23-7.89 6.61-.26 3.26-2.19 6.37-3.68 10.39zm50.33-79.94c1.93-.27 3.52-.61 5.13-.7 5.09-.29 10.21-.85 15.28-.53 2.09.13 4.05 2.22 6.07 3.41-1.61 1.9-2.86 4.61-4.91 5.53-5.87 2.64-12.1 4.48-18.12 6.79-1.36.52-3.5 1.69-3.53 2.61-.26 9.25-.16 18.5-.16 28.21 2.67-.43 4.59-.82 6.54-1.04 8.27-.92 16.32-4 24.89-.38 7.77 3.29 10.65 1.71 12.16-6.58 1.76-9.59 3.22-19.35 3.52-29.07.35-11.42-.35-22.91-1.26-34.32-.44-5.51-4.1-7.89-9.49-6.67-12.09 2.74-24.08 5.93-36.13 8.95.01 8.12.01 15.71.01 23.79zm-13.99 48.41c0-10.3 0-20.67 0-31.01-18.12-1.21-18.36-1.28-21.86-6.63 1.73-.68 3.32-1.39 4.97-1.94 4.72-1.59 9.51-3.02 14.18-4.74 1.18-.43 2.89-1.69 2.92-2.62.24-7.12.13-14.24.13-22.21-14.11 2.72-27.52 5.31-41.44 8 2.67 22.95 5.25 45.15 7.84 67.45 11.47-2.18 22.21-4.21 33.26-6.3z"/><path d="m12.72 151.81c5.64-1.1 10.14-1.86 14.58-2.86 22.63-5.13 45.26-10.28 67.85-15.6 1.17-.28 2.77-2 2.86-3.15.86-10.55 1.44-21.12 2.16-32.63-8.49 2.44-15.92 4.62-23.38 6.72-8.62 2.42-18.39-2.75-21.88-12.21 4.29-.72 8.46-1.28 12.56-2.14 9.74-2.04 19.47-4.1 29.12-6.5 1.33-.33 3.08-2.59 3.1-3.97.15-12.92 1.64-26.02-4.07-38.32-1.41-3.04-.15-4.75 2.99-4.25 9.79 1.56 18.98 4.87 26.9 10.95 3.13 2.4 2.35 5.59 1.01 9.03-2.32 5.96-4.03 12.14-5.99 18.24.42.36.83.71 1.25 1.07 5.2-2.25 10.65-4.06 15.55-6.84 9.3-5.28 17.71-4.25 25.89 2.16 3.01 2.36 6.32 4.35 9.22 6.82 4.6 3.92 4.65 7.51-.19 10.99-9.77 7.02-13.03 17.6-16.9 29.1 5.57-1.09 10.36-1.89 15.09-2.97 8.59-1.96 16.18.18 22.88 5.56 1.35 1.08 2.59 3.33 2.44 4.91-.11 1.14-2.5 2.69-4.05 2.95-7.52 1.25-15.09 2.33-22.68 3.08-25.74 2.53-50.48 9.52-75.23 16.55-15.94 4.53-31.87 9.15-47.97 13.05-10.92 2.64-21.07-.7-30.39-6.6-.64-.42-1.05-1.2-2.72-3.14zm99.08-23.04c9.92-2.81 18.84-5.26 27.69-7.94 1.12-.34 2.44-1.83 2.68-2.99 1.9-9.26 3.84-18.52 5.18-27.87.84-5.83-2.9-8.9-8.63-7.33-6.38 1.75-12.56 4.22-18.9 6.14-2.88.87-3.74 2.48-3.88 5.39-.19 4.13-1.07 8.22-1.57 12.34-.83 7.03-1.62 14.07-2.57 22.26z"/><path d="m293.44 72.61c3.35.27 6.78.21 10.04.92 2.87.63 5.85 1.68 8.23 3.33 3.4 2.36 6.3 5.44 9.41 8.21-2.82 2.29-5.58 4.67-8.47 6.86-10.05 7.62-20.14 15.2-30.25 22.74-2.17 1.62-4.53 2.98-6.8 4.46-.37-.31-.74-.63-1.11-.94 1.38-2.53 2.63-5.13 4.15-7.58 4.28-6.91 8.89-13.62 12.95-20.65 2.84-4.91 5.3-10.18 1.11-15.95.23-.46.49-.93.74-1.4z"/><path d="m187.06 102.39c13.56-1.47 31.38 10.87 33.12 22.59.45 3.02-1.05 7.41-3.25 9.49-2.96 2.79-6.2-.11-8.41-2.71-6.03-7.08-12.06-14.17-17.81-21.48-1.62-2.07-2.3-4.89-3.65-7.89z"/></g><path d="m6.8 9.5c.6.3 1.3.7 2.1 1.1-.4.4-.7.8-.9 1.2-.7-.4-1.3-.8-1.8-1.1s-1.1-.6-1.6-.8c.2-.4.5-.8.7-1.2.4.2.8.5 1.5.8zm.9 6.9c-.3.6-.5 1.1-.7 1.7s-.4 1.1-.6 1.7c-.6-.4-1.1-.7-1.6-1 .7-1 1.2-1.8 1.5-2.4.3-.5.6-1.1.8-1.7.3-.6.5-1.2.8-1.8.3.3.8.6 1.3.8-.7 1.3-1.2 2.2-1.5 2.7zm.1-11c.4.3 1 .7 1.7 1.1-.5.2-.8.6-1.1 1.1-.5-.6-1-1-1.4-1.2s-.9-.6-1.5-.8c.2-.4.5-.7.9-1.1.5.3.9.6 1.4.9zm10.5 13.1c1 .4 2 .6 3.1.7-.4.4-.7.8-.8 1.3-.9-.2-1.9-.6-3-.9-1-.4-2-.9-2.8-1.6-.5.4-1.1.9-1.9 1.3s-1.9.9-3.3 1.2c-.1-.3-.5-.8-1.1-1.3 1 0 2.1-.3 3.2-.8 1.2-.5 1.9-1 2.3-1.7h-3.2c-.4 0-1 0-2 .1v-1.2c1 0 1.7.1 2 .1h3.3v-1h-2.3c-.2 0-.9 0-2 .1v-1.2c1.2 0 1.9.1 2 .1h2.3v-.8h-4.1c0-.7.1-1.2.1-1.6 0-.5 0-1.1-.1-1.8h4.1v-.7h-2.5c0-.6.1-1.1.1-1.6v-.6h-.5c-.4 0-1 0-1.8.1v-1.3c1.2 0 1.9.1 2.1.1h.2c0-.3 0-.8-.1-1.4h1.4c0 .6-.1 1-.1 1.4h3.4c0-.4 0-.8-.1-1.3h1.5c0 .4-.1.9-.1 1.3.7 0 1.5 0 2.5-.1v1.2c-1 0-1.8-.1-2.5-.1v.6c0 .3 0 .8.1 1.5h-2.5v.8h4.1c0 .8-.1 1.3-.1 1.8s0 1 .1 1.5h-4.1v.8h1.4c.8 0 1.8 0 2.9-.1v1.2c-1 0-1.9-.1-2.8-.1h-1.5v1h3.2c.3 0 1 0 2.1-.1v1.2c-1.1 0-1.8-.1-2.1-.1h-3.4l-.1.1c1.4 1 2.4 1.5 3.4 1.9zm-4.1-6.7v-1.3h-2.7v1.3zm2.2-4.1v-1.1h-3.4v1.1zm1.9 4.1v-1.3h-2.8v1.3z" fill="#fafbfc"/><path d="m37 6.7v2.3 5.4c1 0 1.8 0 2.2-.1v1.3c-.6 0-1.5-.1-2.5-.1h-11.9c-.7 0-1.3 0-1.8.1v-1.3c.5 0 1.1.1 2 .1v-5.2c0-1 0-1.8-.1-2.5h3.7c0-1.3 0-2.1-.1-2.5h1.5c0 .4-.1 1.3-.1 2.5h2.2c0-1.2 0-2.1-.1-2.6h1.5c0 .4-.1 1.3-.1 2.6zm-12.3 13.7c-.3-.4-.7-.8-1.1-1.1 1.1-.4 2.1-.9 2.9-1.3.8-.5 1.5-1 2.1-1.6.4.4.9.8 1.3 1.1-2.5 1.4-4.2 2.4-5.2 2.9zm3.9-10.1v-2.4h-2.2v2.4zm0 4.1v-2.9h-2.2v2.9zm3.5-4.1v-2.4h-2.2v2.4zm0 4.1v-2.9h-2.2v2.9zm.4 2.9 1-1.1c.6.3 1.4.7 2.5 1.3s2 1.1 2.7 1.5c-.4.4-.8.8-1.1 1.3-.8-.8-2.5-1.7-5.1-3zm3.1-7v-2.4h-2.1v2.4zm0 4.1v-2.9h-2.1v2.9z" fill="#fafbfc"/></svg>