<svg enable-background="new 0 0 400 400" viewBox="0 0 400 400" xmlns="http://www.w3.org/2000/svg"><g fill="#010103"><path d="m299.95 257.14c11.52-2.76 22.22-4.78 32.56-7.99 6.34-1.98 11.52-1.97 16.73 2.3 4.11 3.37 8.67 6.2 12.83 9.52 4.24 3.38 3.89 5.49.04 9.2-11.24 10.81-19.15 23.68-22.52 39.02-.32 1.47 1.29 3.58 2.4 5.1 1.91 2.6 4.13 4.97 6.22 7.43-3.12 1.15-6.17 2.98-9.38 3.33-17.5 1.9-35.03 3.46-52.56 5.09-7.44.69-14.92 1.12-22.33 2.07-1.4.18-3.06 1.98-3.73 3.43-1.61 3.49-2.72 7.22-4.02 10.85-.54.01-1.09.01-1.63.02-.93-1.59-2.33-3.08-2.71-4.79-2.77-12.28-5.08-24.66-8.03-36.89-3.19-13.17-6.93-26.21-10.4-39.32-.41-1.55-.59-3.17-1.08-5.85 4.27.75 7.89.96 11.2 2.07 7.77 2.61 15.42.99 23.12.04 5.27-.65 10.57-1.12 15.79-2.07 1.51-.28 3.93-1.94 3.95-3 .27-14.1.18-28.2.18-42.38-6.51.94-13.81 2.19-21.16 3.01-8.35.93-15.38-2.07-21.03-8.21-1.15-1.26-1.88-2.91-3.58-5.63 16.35-.53 31.49-1.03 46.98-1.53.3-13.31.09-25.71-2.99-37.87-.55-2.18-2.2-4.07-3.24-6.14-1.87-3.74-.95-5.53 3.15-5.27 9.16.57 17.15 4.44 23.39 10.88 1.8 1.85 1.64 6.52 1.02 9.62-1.76 8.74-4.23 17.33-6.7 27.12 8.27-1.05 15.47-1.81 22.63-2.9 8.85-1.34 17.62-3.22 26.49-4.34 8.55-1.08 16.46 1.48 23.78 5.85 1.12.67 2.08 1.68 2.93 2.68 3.52 4.15 2.77 7.12-2.52 7.74-6.91.82-13.91.81-20.88 1.07-17.08.64-34.16 1.23-51.61 1.85-1.08 14.61-2.12 28.93-3.29 44.89zm-39.34 63.17c10.12-.86 19.21-1.54 28.27-2.43 10.91-1.07 21.79-2.37 32.7-3.47 2.84-.29 4.17-1.37 4.75-4.43 2.19-11.57 4.85-23.05 7.18-34.59 1.54-7.62-.38-10.26-8.31-10.14-7.11.1-14.25.9-21.3 1.92-15.22 2.2-30.4 4.74-46.48 7.28 1.07 15.42 2.11 30.37 3.19 45.86z"/><path d="m182.34 336.46c1.1-3.68 1.93-7.48 3.35-11.03 15.17-37.82 24.32-77.12 29.32-117.48 3.98-32.2 7.26-64.48 6.58-96.94-.23-11.14-2.92-22.28-5.07-33.31-1.13-5.8-.21-7.54 5.77-6.21 29.35 6.51 56.94-1.56 84.52-9.89 9.32-7.37 17.94-4.05 26.45 1.67 4.55 3.06 9.29 5.85 13.72 9.05 2.57 1.86 3.93 4.76.64 6.99-12.39 8.39-17.68 21.65-24.02 34.22-2.74 5.42-3.98 10.26 1.03 15.68 3.83 4.14 1.78 7.24-3.71 7.89-17.3 2.05-34.57 4.3-51.85 6.51-8.89 1.14-17.77 2.43-26.67 3.55-3.22.4-4.97 1.09-5.54 5.2-4.33 31.22-8.16 62.56-14.07 93.49-4.57 23.93-12.04 47.32-22.83 69.37-2.97 6.07-7.09 11.59-10.95 17.18-1.32 1.92-3.45 3.28-5.2 4.89-.49-.27-.98-.55-1.47-.83zm55.53-202.62c1.97 0 3.63.17 5.25-.03 19.25-2.28 38.51-4.57 57.73-7.08 1.22-.16 2.88-2.06 3.17-3.41 2.43-11.32 4.95-22.65 6.71-34.08 1.53-9.95.62-10.56-9.43-10.17-1.82.07-3.64.3-5.43.61-10.61 1.84-21.18 3.96-31.83 5.5-8.14 1.18-16.38 1.65-24.6 2.43-.53 15.34-1.04 30.55-1.57 46.23z"/><path d="m145.48 143.28c-.97 12.86.85 25.1-3.7 36.6-13.18-3.38-16.39-11.57-12.35-31.28-22.6 16.71-42.74 36.6-70.47 43.89-.28-.39-.57-.78-.85-1.17 10.96-9.11 22.43-17.69 32.74-27.49 10.42-9.9 19.7-21.02 29.47-31.6-.25-.34-.5-.68-.74-1.02-8.17.63-16.33 1.43-24.51 1.84-8.13.4-16.27.36-25.52-3.95 3.74-1.36 6.13-2.5 8.65-3.1 15.82-3.75 31.64-7.46 47.51-10.97 3.15-.7 4.52-1.85 4.27-5.22-.56-7.41-.82-14.83-1.22-22.69-15.32 4.25-29.48 10.84-45.62 8.8 2.35-1.33 4.63-2.8 7.07-3.96 15.95-7.62 31.75-15.46 44.97-27.52 6.25-5.7 12.88-11 16.12-19.37.63-1.63 4.82-3.53 6.38-2.89 8.21 3.36 16.37 7.05 24.01 11.54 4.08 2.4 3.45 5.99-1.31 8.41-9.76 4.97-19.76 9.48-29.71 14.06-4.67 2.15-9.45 4.04-15.19 6.47 11.57 6.56 12.35 16.54 9.36 28.38 10.6-2.4 20.27-4.33 29.8-6.84 7.85-2.07 14.43-.55 20.03 5.23 3.38 3.49 2.76 6.11-2.15 7.38-5.45 1.4-11.04 2.3-16.61 3.19-9.18 1.46-18.4 2.66-27.56 4.2-1.18.2-2.93 1.7-3.03 2.74-.37 3.76-.14 7.58-.14 11.38 7.88.54 15.33.73 22.68 1.64 8.46 1.05 15.9 4.66 21.9 10.86 1.26 1.3 2.87 2.79 3.14 4.39.54 3.26 1.42 7.38-.07 9.74-1.02 1.61-6.44 2.11-8.8.93-9.93-4.95-19.48-10.67-29.1-16.23-2.99-1.74-5.76-3.87-9.45-6.37z"/><path d="m145.43 282.13c.61.33.88.58 1.18.62 13.52 1.82 13.63 1.86 18.69-11 3.04-7.73 5.97-15.53 3.65-24.17-.87-3.26.9-5.71 4.23-4.79 6.32 1.75 12.59 3.9 18.56 6.6 3.28 1.48 1.41 3.84-.38 5.99-8.18 9.81-16.19 19.76-24.34 29.77 4.49 2.45 8.37 4.33 12.01 6.6 7.19 4.48 10.3 10.97 9.1 19.49-.81 5.8-4.33 7.96-8.9 4.4-9.57-7.44-18.66-15.5-27.92-23.34-1.75-1.48-3.39-3.09-5.6-5.11-.26 1.4-.53 2.14-.5 2.86.58 15.94 1.4 31.87 1.65 47.82.05 3.44-1.43 7.17-3.09 10.29-2.24 4.22-5.06 8.22-8.16 11.86-2.6 3.06-6.51 3.69-9.08.23-7.9-10.65-18.25-18.32-29.2-25.38-.49-.31-.8-.89-2-2.27 3.18.22 5.25.22 7.27.53 2.12.33 4.18 1.15 6.3 1.4 14.57 1.75 16.96-.57 18.36-12.1 1.32-10.86 2.14-21.79 3.26-33.49-1.92.8-3.02 1.04-3.88 1.64-14.83 10.4-29.68 20.77-44.41 31.32-4.11 2.95-8.59 4.77-12.95 2.07-6.57-4.06-12.81-8.76-18.73-13.73-2.89-2.43-1.75-5.24 2.04-5.24 23.99 0 44.82-11.47 66.97-18.12.32-.1.62-.23.93-.34 12.13-4.43 12.11-4.43 11.06-17.32-1.08-13.23-1.69-26.49-7.57-38.85-2.08-4.38.09-6.85 4.52-5.16 7.4 2.82 14.59 6.29 21.65 9.89 3.26 1.66 3.93 4.67 2.97 8.52-2.61 10.39-4.79 20.9-7.01 31.38-.49 2.36-.47 4.84-.68 7.13z"/><path d="m26.94 282.69c4.21-3.16 8.32-6.46 12.64-9.45 27.54-19.06 50.55-42.71 70.01-69.8 3.9-5.43 6.54-11.9 9.07-18.17 3.13-7.77 7.11-9.54 14.08-5.06 2.5 1.61 4.8 3.6 6.92 5.69 4.32 4.27 4.59 6.52 1.71 12.24 8.49 1.6 16.95 2.87 25.24 4.85 6.42 1.54 12.8 3.55 18.86 6.13 5.01 2.13 8.85 6 9.61 11.89.69 5.37-1.3 8-6.55 7.19-5.33-.82-10.84-2.2-15.6-4.64-12.41-6.36-24.45-13.44-36.26-20.01-15.3 15.32-30.8 30.83-46.3 46.34 3.66 1.71 8.2 3.52 12.44 5.87 6.94 3.84 11.82 9.17 11.25 17.86-.5 7.63-4.9 10.32-10.77 5.5-5.27-4.33-9.37-10.15-13.64-15.59-2.02-2.57-3.21-5.79-4.99-9.11-16.67 14.66-35.51 24.78-56.82 30.02-.3-.58-.6-1.17-.9-1.75z"/></g><path d="m6.8 9.5c.6.3 1.3.7 2.1 1.1-.4.4-.7.8-.9 1.2-.7-.4-1.3-.8-1.8-1.1s-1.1-.6-1.6-.8c.2-.4.5-.8.7-1.2.4.2.8.5 1.5.8zm.9 6.9c-.3.6-.5 1.1-.7 1.7s-.4 1.1-.6 1.7c-.6-.4-1.1-.7-1.6-1 .7-1 1.2-1.8 1.5-2.4.3-.5.6-1.1.8-1.7.3-.6.5-1.2.8-1.8.3.3.8.6 1.3.8-.7 1.3-1.2 2.2-1.5 2.7zm.1-11c.4.3 1 .7 1.7 1.1-.5.2-.8.6-1.1 1.1-.5-.6-1-1-1.4-1.2s-.9-.6-1.5-.8c.2-.4.5-.7.9-1.1.5.3.9.6 1.4.9zm10.5 13.1c1 .4 2 .6 3.1.7-.4.4-.7.8-.8 1.3-.9-.2-1.9-.6-3-.9-1-.4-2-.9-2.8-1.6-.5.4-1.1.9-1.9 1.3s-1.9.9-3.3 1.2c-.1-.3-.5-.8-1.1-1.3 1 0 2.1-.3 3.2-.8 1.2-.5 1.9-1 2.3-1.7h-3.2c-.4 0-1 0-2 .1v-1.2c1 0 1.7.1 2 .1h3.3v-1h-2.3c-.2 0-.9 0-2 .1v-1.2c1.2 0 1.9.1 2 .1h2.3v-.8h-4.1c0-.7.1-1.2.1-1.6 0-.5 0-1.1-.1-1.8h4.1v-.7h-2.5c0-.6.1-1.1.1-1.6v-.6h-.5c-.4 0-1 0-1.8.1v-1.3c1.2 0 1.9.1 2.1.1h.2c0-.3 0-.8-.1-1.4h1.4c0 .6-.1 1-.1 1.4h3.4c0-.4 0-.8-.1-1.3h1.5c0 .4-.1.9-.1 1.3.7 0 1.5 0 2.5-.1v1.2c-1 0-1.8-.1-2.5-.1v.6c0 .3 0 .8.1 1.5h-2.5v.8h4.1c0 .8-.1 1.3-.1 1.8s0 1 .1 1.5h-4.1v.8h1.4c.8 0 1.8 0 2.9-.1v1.2c-1 0-1.9-.1-2.8-.1h-1.5v1h3.2c.3 0 1 0 2.1-.1v1.2c-1.1 0-1.8-.1-2.1-.1h-3.4l-.1.1c1.4 1 2.4 1.5 3.4 1.9zm-4.1-6.7v-1.3h-2.7v1.3zm2.2-4.1v-1.1h-3.4v1.1zm1.9 4.1v-1.3h-2.8v1.3z" fill="#fafbfc"/><path d="m37 6.7v2.3 5.4c1 0 1.8 0 2.2-.1v1.3c-.6 0-1.5-.1-2.5-.1h-11.9c-.7 0-1.3 0-1.8.1v-1.3c.5 0 1.1.1 2 .1v-5.2c0-1 0-1.8-.1-2.5h3.7c0-1.3 0-2.1-.1-2.5h1.5c0 .4-.1 1.3-.1 2.5h2.2c0-1.2 0-2.1-.1-2.6h1.5c0 .4-.1 1.3-.1 2.6zm-12.3 13.7c-.3-.4-.7-.8-1.1-1.1 1.1-.4 2.1-.9 2.9-1.3.8-.5 1.5-1 2.1-1.6.4.4.9.8 1.3 1.1-2.5 1.4-4.2 2.4-5.2 2.9zm3.9-10.1v-2.4h-2.2v2.4zm0 4.1v-2.9h-2.2v2.9zm3.5-4.1v-2.4h-2.2v2.4zm0 4.1v-2.9h-2.2v2.9zm.4 2.9 1-1.1c.6.3 1.4.7 2.5 1.3s2 1.1 2.7 1.5c-.4.4-.8.8-1.1 1.3-.8-.8-2.5-1.7-5.1-3zm3.1-7v-2.4h-2.1v2.4zm0 4.1v-2.9h-2.1v2.9z" fill="#fafbfc"/></svg>