<svg enable-background="new 0 0 400 400" viewBox="0 0 400 400" xmlns="http://www.w3.org/2000/svg"><g fill="#fbfafa"><path d="m37.59 393.81c-.92.31-1.52.05-2-.78-.7-1.2-1.52-2.34-2.47-3.78v4.59c-.55.03-.95.05-1.41.07-.03-.37-.06-.64-.06-.91 0-1.91 0-3.81 0-5.7 1.13-.41 1.77-.03 2.29.91.62 1.11 1.38 2.14 2.31 3.19v-4.2h1.35v6.61z"/><path d="m12.94 393.88v-6.75c1.9.19 3.93-.54 5.37 1.29.8 1.01.78 2.88.03 3.97-1.37 1.97-3.4 1.51-5.4 1.49m1.45-1.22c2.04.12 2.92-.58 2.89-2.21-.03-1.51-.98-2.19-2.89-2z"/><path d="m11.81 393.87h-5.49c.68-2.18 2.47-3.48 3.51-5.45h-3.08v-1.21h5.29c-.71 2.13-2.44 3.48-3.47 5.51.86 0 1.63.04 2.39-.01.79-.05 1.14.21.85 1.16"/><path d="m39.33 393.86v-6.61h3.7v1.07h-2.22v1.52c.68.04 1.34.09 2.07.13v1.07c-.72.05-1.38.09-2.1.14v1.48h2.4v1.19h-3.85z"/><path d="m27.71 388.56c-1.15-.3-2.46-.61-3.1.64-.37.73-.41 1.93-.06 2.67.63 1.35 1.99.93 3.17.68.35.94-.01 1.32-.93 1.46-1.62.25-3.05-.27-3.76-1.48-.73-1.25-.6-3.03.31-4.17.88-1.11 2.71-1.7 4-1.16.32.13.44.74.65 1.12-.1.08-.19.16-.28.24"/><path d="m49.15 387.24v1.07c-.59.02-1.17.05-1.87.08v5.44h-1.48v-5.44h-1.85c-.05-.4-.08-.73-.13-1.15z"/><path d="m20.06 387.21h1.33v6.62h-1.33z"/><path d="m30.68 393.25c-.49.38-.8.79-1.05.76-.32-.05-.6-.45-.9-.7.26-.24.51-.64.8-.67.29-.04.62.3 1.15.61"/></g><path d="m324.16 271.77c17.87-.24 32.82 5.34 44.05 19.58 1.13 1.43 2.23 2.92 3.04 4.54 2.32 4.65 1.14 7.95-4.02 8.09-9.21.26-18.56-.04-27.67-1.35-27.09-3.89-54.22-5.34-81.55-3.7-15.11.91-30.29.91-45.35 2.24-23.83 2.11-47.69 4.28-71.34 7.73-23.95 3.49-47.65 8.64-71.5 12.81-3.16.55-6.64-.01-9.85-.65-9.49-1.92-17.73-6.54-25.16-12.59-.99-.81-1.74-2.47-1.71-3.72.01-.61 2.03-1.57 3.21-1.7 13.22-1.46 26.45-2.79 39.68-4.15 22.14-2.26 44.29-4.5 66.43-6.78 16.69-1.72 33.4-3.37 50.07-5.24 21.79-2.45 43.54-5.12 65.32-7.63 22.11-2.53 44.23-4.98 66.35-7.48z" fill="#000001"/><path d="m160.4 120.92c-15.05.34-29.44-2.41-42.48-10.26-2.24-1.35-3.82-3.81-5.7-5.75 2.41-1.16 4.73-3.05 7.25-3.36 9.21-1.13 18.53-1.44 27.73-2.6 24.02-3.05 48-6.38 71.99-9.6 16.08-2.16 31.7-7.68 48.24-6.41 9.01.69 17.25 3.44 24.3 9.15 4.77 3.86 4.54 7.09-1.31 8.93-9.13 2.88-18.47 5.43-27.92 6.88-30.33 4.65-60.74 8.78-91.14 12.96-3.58.48-7.3.06-10.96.06z" fill="#000001"/><path d="m118.06 197.49c2.68-.5 5.36-1.37 8.05-1.44 30-.76 59.27-6.98 88.73-11.74 15.75-2.54 31.6-5.53 47.49-2.22 5.43 1.13 10.66 4.39 15.36 7.59 3.93 2.67 3.36 6.33-1.18 7.84-6.25 2.07-12.78 3.72-19.31 4.47-12.52 1.43-25.16 1.81-37.7 3.14-14.69 1.55-29.32 3.59-43.96 5.53-18.23 2.42-35.75.24-52.34-7.92-1.96-.96-3.6-2.6-5.39-3.92.08-.44.17-.89.25-1.33z" fill="#000001"/></svg>