<svg enable-background="new 0 0 400 400" viewBox="0 0 400 400" xmlns="http://www.w3.org/2000/svg"><g fill="#fbfafa"><path d="m37.59 393.81c-.92.31-1.52.05-2-.78-.7-1.2-1.52-2.34-2.47-3.78v4.59c-.55.03-.95.05-1.41.07-.03-.37-.06-.64-.06-.91 0-1.91 0-3.81 0-5.7 1.13-.41 1.77-.03 2.29.91.62 1.11 1.38 2.14 2.31 3.19v-4.2h1.35v6.61z"/><path d="m12.94 393.88v-6.75c1.9.19 3.93-.54 5.37 1.29.8 1.01.78 2.88.03 3.97-1.37 1.97-3.4 1.51-5.4 1.49m1.45-1.22c2.04.12 2.92-.58 2.89-2.21-.03-1.51-.98-2.19-2.89-2z"/><path d="m11.81 393.87h-5.49c.68-2.18 2.47-3.48 3.51-5.45h-3.08v-1.21h5.29c-.71 2.13-2.44 3.48-3.47 5.51.86 0 1.63.04 2.39-.01.79-.05 1.14.21.85 1.16"/><path d="m39.33 393.86v-6.61h3.7v1.07h-2.22v1.52c.68.04 1.34.09 2.07.13v1.07c-.72.05-1.38.09-2.1.14v1.48h2.4v1.19h-3.85z"/><path d="m27.71 388.56c-1.15-.3-2.46-.61-3.1.64-.37.73-.41 1.93-.06 2.67.63 1.35 1.99.93 3.17.68.35.94-.01 1.32-.93 1.46-1.62.25-3.05-.27-3.76-1.48-.73-1.25-.6-3.03.31-4.17.88-1.11 2.71-1.7 4-1.16.32.13.44.74.65 1.12-.1.08-.19.16-.28.24"/><path d="m49.15 387.24v1.07c-.59.02-1.17.05-1.87.08v5.44h-1.48v-5.44h-1.85c-.05-.4-.08-.73-.13-1.15z"/><path d="m20.06 387.21h1.33v6.62h-1.33z"/><path d="m30.68 393.25c-.49.38-.8.79-1.05.76-.32-.05-.6-.45-.9-.7.26-.24.51-.64.8-.67.29-.04.62.3 1.15.61"/></g><path d="m124.08 329.29c23.89-15.72 46.48-32.77 65.34-55.76-8.72-7.05-17.07-14.34-26.02-20.81-4.55-3.29-5.27-6.56-3.65-11.46 4.48-13.51 8.74-27.09 13.46-41.81-5.35 2.42-9.82 4.3-14.17 6.44-12.56 6.18-20.34 5.01-31.88-8.99-.72-.87-1.32-2.73-.87-3.46.53-.86 2.32-1.51 3.44-1.36 14.7 1.93 28.14-3.39 41.88-7.05 3.23-.86 4.81-2.31 5.67-5.79 5.83-23.53 11.74-47.02 12.68-71.4.39-10.17.22-20.22-4.47-29.78-2.43-4.97-.14-7.47 5.35-6.07 10.14 2.59 19.17 7.45 26.73 14.81 2.97 2.9 3.1 6.39 1.98 10.16-6.86 23.03-13.7 46.06-20.49 69.1-1.06 3.61-1.89 7.28-3.07 11.88 9.3-2.8 17.83-5.24 26.26-7.99 3.44-1.12 4.39-3.69 2.84-7.18-1.48-3.34-2.81-6.75-3.93-10.22-1.36-4.2.31-6.32 4.62-5.52 10.29 1.93 19.1 6.86 25.79 14.87 1.55 1.85 2.36 6.11 1.3 8.06-6.78 12.48-9.49 26.2-12.58 39.74-4.69 20.58-11.54 40.22-22.86 58.15-.26.4-.31.94-.44 1.37 5.22 4.16 10.58 8.06 15.52 12.45 6.6 5.86 11.34 13.01 13.08 21.86.16.81.37 1.63.37 2.45-.02 4.44-.34 9.65-4.77 11.11-2.86.95-7.72-.63-10.23-2.77-8.59-7.33-16.56-15.4-24.74-23.21-1.32-1.26-2.52-2.63-4.09-4.29-22.55 20.58-45.52 40.31-78.05 42.47zm100.02-148.37c-10.6 4.17-20.77 8.09-30.85 12.23-1.09.45-1.95 2.06-2.44 3.32-2.68 6.98-5.1 14.05-7.81 21.02-3.71 9.54-7.6 19.02-11.34 28.33 9.46 4.94 18.55 9.68 28.09 14.66 11.84-25.29 21.1-51.35 24.35-79.56z" fill="#000001"/><path d="m102.94 152.69c1.04.99 1.95 1.93 2.93 2.77 9.87 8.42 14.34 18.1 12.67 31.96-2.5 20.74-2.64 41.78-3.49 62.7-.86 21.1-.9 42.25-2.25 63.32-.6 9.32-3.32 18.53-5.57 27.68-.49 2-3.06 4.82-4.7 4.84-1.79.02-4.31-2.43-5.3-4.41-5.69-11.4-8.59-23.36-5.42-36.12 5.38-21.69 8.49-43.65 8.22-66.05-.2-16.29.11-32.58-.19-48.86-.12-6.61-1.12-13.22-2.01-19.79-.29-2.16-1.5-4.2-2.67-7.32-17.27 21.71-34.14 42.29-58.02 55.19-.41-.38-.83-.75-1.24-1.13 2.36-3.06 4.68-6.15 7.08-9.18 26.73-33.92 51.22-69.31 69.34-108.67 5.26-11.44 6.92-23.88 4.74-36.57-.22-1.3-.22-2.66-.19-3.99.1-4.75 2.03-6.17 6.31-4.24 9.93 4.47 18.06 11.16 23.98 20.39 2.83 4.42 2.37 8.07-.84 12.64-12.23 17.42-23.88 35.25-35.72 52.95-2.6 3.84-5.04 7.79-7.66 11.89z" fill="#000001"/><path d="m286.69 281.2c-1.01 2.78-1.79 5.48-2.99 7.98-.58 1.2-1.96 2-2.98 2.98-.94-1.06-2.46-1.99-2.74-3.2-1.53-6.61-3.02-13.26-4.04-19.97-3.77-24.74-7.15-49.55-11.15-74.25-.8-4.94-3.76-9.51-5.51-14.33-.76-2.1-.97-4.4-1.43-6.61 2.21-.27 4.45-.89 6.63-.74 7.23.49 14.5 2.17 21.65 1.71 14.78-.95 29.12-4.27 42.97-9.94 4.29-1.75 10.12-2.5 14.34-1.07 8.07 2.74 15.67 7.09 23.13 11.35 4.19 2.39 5.29 7.07 2.45 10.84-9.01 11.93-10.72 26.25-13.72 40.11-2.1 9.71-3.29 19.62-5.09 29.4-.7 3.82.37 6.44 3.19 9.16 2.34 2.26 3.65 5.59 5.41 8.45-2.87 1.07-5.68 2.81-8.62 3.09-17.35 1.6-34.73 2.85-52.11 4.23-2.96.24-5.93.51-9.39.81zm46.29-17.36c0-9.91-.11-19.05.03-28.17.24-15.6.84-31.2.87-46.8.01-6.31-3.31-9.25-9.5-8.71-12.73 1.13-25.44 2.63-38.12 4.26-1.09.14-2.68 2.33-2.71 3.61-.14 4.97.3 9.95.44 14.93.44 14.97.77 29.94 1.28 44.9.24 7.1.81 14.19 1.26 21.92 15.21-1.96 30.1-3.86 46.45-5.94z" fill="#000001"/></svg>