<svg enable-background="new 0 0 400 400" viewBox="0 0 400 400" xmlns="http://www.w3.org/2000/svg"><g fill="#fbfafa"><path d="m37.59 393.81c-.92.31-1.52.05-2-.78-.7-1.2-1.52-2.34-2.47-3.78v4.59c-.55.03-.95.05-1.41.07-.03-.37-.06-.64-.06-.91 0-1.91 0-3.81 0-5.7 1.13-.41 1.77-.03 2.29.91.62 1.11 1.38 2.14 2.31 3.19v-4.2h1.35v6.61z"/><path d="m12.94 393.88v-6.75c1.9.19 3.93-.54 5.37 1.29.8 1.01.78 2.88.03 3.97-1.37 1.97-3.4 1.51-5.4 1.49m1.45-1.22c2.04.12 2.92-.58 2.89-2.21-.03-1.51-.98-2.19-2.89-2z"/><path d="m11.81 393.87h-5.49c.68-2.18 2.47-3.48 3.51-5.45h-3.08v-1.21h5.29c-.71 2.13-2.44 3.48-3.47 5.51.86 0 1.63.04 2.39-.01.79-.05 1.14.21.85 1.16"/><path d="m39.33 393.86v-6.61h3.7v1.07h-2.22v1.52c.68.04 1.34.09 2.07.13v1.07c-.72.05-1.38.09-2.1.14v1.48h2.4v1.19h-3.85z"/><path d="m27.71 388.56c-1.15-.3-2.46-.61-3.1.64-.37.73-.41 1.93-.06 2.67.63 1.35 1.99.93 3.17.68.35.94-.01 1.32-.93 1.46-1.62.25-3.05-.27-3.76-1.48-.73-1.25-.6-3.03.31-4.17.88-1.11 2.71-1.7 4-1.16.32.13.44.74.65 1.12-.1.08-.19.16-.28.24"/><path d="m49.15 387.24v1.07c-.59.02-1.17.05-1.87.08v5.44h-1.48v-5.44h-1.85c-.05-.4-.08-.73-.13-1.15z"/><path d="m20.06 387.21h1.33v6.62h-1.33z"/><path d="m30.68 393.25c-.49.38-.8.79-1.05.76-.32-.05-.6-.45-.9-.7.26-.24.51-.64.8-.67.29-.04.62.3 1.15.61"/></g><path d="m232.54 223.57c-20.01 49.83-44.37 94.29-96.71 115.3 34.79-30.95 61.27-67.38 75.97-113.52-8.84 1.64-16.71 2.92-24.47 4.7-1.35.31-2.25 2.65-3.34 4.07-3.51 4.56-7.31 4.67-9.5-.61-3.41-8.23-6.17-16.79-8.52-25.4-3.28-12.02-6.02-24.17-12.7-34.96-1.13-1.83-1.32-4.23-2.18-7.16 5.23 0 9.58-.59 13.72.11 13.46 2.28 26.5-.73 39.64-2.48 5.09-.68 10.18-1.57 15.17-2.79 1.8-.44 4.05-1.76 4.81-3.31 8.5-17.29 16.75-34.7 25.06-52.08.21-.45.5-.92.52-1.4.08-2.7.09-5.4.12-8.1-2.38.02-4.93-.51-7.11.16-8.09 2.47-15.89 3.92-22.75-3.25-14.03 19-28.8 36.39-50.35 46.2-.41-.32-.82-.64-1.23-.96 2.35-3.2 4.52-6.55 7.08-9.57 15.67-18.38 26.88-39.18 33.26-62.43 1.39-5.08 1.13-10.77.79-16.13-.38-6 1.4-8.37 6.9-6.24 7.36 2.85 14.68 6.12 21.41 10.22 5.89 3.59 5.59 7.48 1.08 12.74-5.06 5.91-9.76 12.12-15.21 18.94 11.09 2.53 20.36.35 29-4.67 5-2.9 9.65-8 15.76-5.8 8.01 2.89 15.71 6.88 23.1 11.17 3.53 2.05 3.08 5.54-.7 8.15-22.27 15.35-37.03 37-50.56 59.72-.42.7-.78 1.44-1.74 3.22 12.32-3.48 23.84-6.27 33.78-13.12 4.84-3.33 9.86-4.38 14.92-1.59 7.69 4.25 15.36 8.66 22.48 13.77 5.75 4.13 5.27 8.02-.74 11.58-12.08 7.16-16.47 19.56-21.64 31.4-.36.83.38 2.44 1.05 3.38 4.17 5.9 3.02 8.69-4.27 10.15-11.72 2.35-23.43 4.72-35.14 7.11-1.26.26-2.47.75-3.98 1.21 3.95 3.72 7.78 7.14 11.37 10.79 2.41 2.45 2.17 4.88.99 8.45-3.77 11.45-7.03 23.13-9.36 34.95-1.66 8.42-1.94 17.18-2.05 25.81-.22 18.03 7.97 28.5 25.67 30.15 20.6 1.92 41.17.7 61.1-6.24 11.54-4.02 17.95-11.95 20.83-23.43 1.9-7.56 4.02-15.07 6.09-22.58.34-1.23.96-2.37 2.53-3.54.51 5.7.51 11.5 1.63 17.07 1.76 8.73 3.59 17.56 6.67 25.88 3.65 9.87 2.44 16.58-6.35 22.4-9.9 6.56-21.22 9.23-32.67 11.48-22.45 4.42-44.87 5.04-67.24-.39-22.85-5.54-33.21-18.07-32.5-41.62.43-14.4 2.94-28.73 4.37-43.1 1.08-10.86 4.48-21.68 1.4-32.64-1.03-3.64-3.24-6.96-5.26-11.17zm-51.9-46.27c1.51 14.96 2.96 29.37 4.4 43.76 1.05-.06 1.4-.02 1.71-.11 6.38-1.81 12.66-4.28 19.17-5.29 7.98-1.24 11.77-4.94 11.75-13.15-.03-8.62.79-17.24.84-25.86.02-3.14-1.13-5.61-5.62-4.72-10.4 2.03-20.9 3.52-32.25 5.37zm53.06 32.8c.63.5 1.26.99 1.9 1.49 10.35-2.86 20.71-5.69 31.04-8.63.81-.23 1.87-1.04 2.06-1.77 2.74-10.92 5.62-21.82 7.88-32.85 1.02-5-1.69-7.55-6.9-7.18-4.11.29-8.2 1.17-12.25 2.01-8.28 1.71-16.52 3.57-25.48 5.52 3.16 2.2 5.56 3.69 7.74 5.44 2.83 2.28 3.41 4.56 1.93 8.56-3.29 8.89-5.35 18.24-7.92 27.41z" fill="#000001"/><path d="m95.65 167.79c-18.21 23.09-35.81 44.66-60.44 58.75-.43-.37-.86-.73-1.28-1.1 2.3-3.05 4.49-6.19 6.91-9.15 31.25-38.29 56.14-80.3 73.51-126.62 3.92-10.45 6.35-21.3 5.55-32.69-.35-4.95 2.16-6.87 6.41-4.43 7.88 4.54 15.61 9.5 22.77 15.09 4.47 3.49 3.3 6.02-.53 10.3-4.62 5.14-9.05 10.73-12.28 16.8-10.77 20.23-21.01 40.75-31.26 61.25-.61 1.22-.01 3.66.9 4.89 1.86 2.52 4.47 4.47 6.49 6.89 5.48 6.55 8.09 13.62 5.9 22.54-1.64 6.7-2.08 13.82-2.13 20.77-.23 31.78.35 63.58-.41 95.35-.28 11.63-2.95 23.31-5.48 34.76-1.61 7.31-5.41 7.76-10.1 1.84-7.49-9.46-9.07-20.21-7.28-32 2.29-15.07 4.67-30.2 5.57-45.39 1.36-23.07 1.64-46.2 2.02-69.32.1-6.27-.87-12.59-1.74-18.83-.4-2.87-1.75-5.6-3.1-9.7z" fill="#000001"/></svg>