<svg enable-background="new 0 0 400 400" viewBox="0 0 400 400" xmlns="http://www.w3.org/2000/svg"><g fill="#010106"><path d="m264.57 267.03c-13.09-15.92-23.11-33.03-40.29-43.81 7.27-6.57 18.22-5.26 23.28 1.49 6.23 8.32 13.01 16.22 20.37 25.31 4.35-15.87 6.28-30.38 5.4-45.21-.28-4.8-1.04-9.58-1.41-14.38-.23-2.97-1.09-4.27-4.56-4.2-5.78.11-11.57-.84-17.36-.89-1.62-.01-3.51 1.27-4.84 2.46-4.95 4.41-9.64 9.1-14.59 13.51-1.4 1.24-3.35 1.87-6.35 3.48 1.05-3.34 1.33-5.51 2.34-7.24 15.03-25.8 21.74-54.46 28.48-83.08 2.47-10.48 4.39-21.09 6.44-31.66 1.74-8.97-.91-17.47-2.97-26.04-1.08-4.5.03-5.58 4.52-4.3 9.09 2.59 17.22 7.04 24.14 13.49 4.87 4.54 4.39 7.65 1.68 13.7-5.09 11.32-9.2 23.08-13.79 34.63-7.36 18.51-14.77 36.99-22.17 55.47-.58 1.46-1.3 2.86-2.6 5.68 19.94-5.61 38.49-11.13 57.22-15.94 6.76-1.74 13.96-2.38 20.96-2.37 4.34.01 9.74 2.01 10.44 6.9.74 5.18-4.96 6.35-8.64 7.37-16.29 4.52-32.73 8.51-49.11 12.7-.61.16-1.21.34-2.69.75 3.42 2.5 6.35 4.48 9.08 6.71 2.31 1.88 4.57 3.89 6.5 6.15 2.62 3.07 2.91 6.38 1.81 10.58-2.88 11.05-4.81 22.34-7.33 33.48-1.5 6.64-3.6 13.15-5.05 19.8-.39 1.8-.07 4.48 1.06 5.77 22.39 25.49 48.78 45.11 81.69 55.02 3.49 1.05 6.92 2.3 10.35 3.52.56.2.99.75 2.31 1.8-2.27.77-3.79 1.58-5.38 1.77-19.05 2.34-38.14 2.89-57.18.1-9.99-1.47-17.24-7.32-22.71-15.65-6.47-9.85-13.07-19.6-20.12-30.17-18.44 27.65-42.1 47.48-75.27 52.33 11.94-10 25.13-19.31 36.12-30.74 11.12-11.55 20.06-25.2 30.22-38.29z"/><path d="m149.96 290.78c2.18.63 4.38 1.2 6.54 1.9 2.84.92 5.6 2.11 8.47 2.89 9.21 2.5 13.41.69 17.9-7.88 6.79-12.96 10.12-26.99 11.96-41.37 1.03-8.06 1.55-16.2 2.03-24.32.14-2.42 0-5.29-1.2-7.22-1.02-1.64-3.82-3.25-5.68-3.09-5.07.44-10.07 1.83-15.45 2.91-4.67 17.87-10.25 35.75-19.18 52.37-9.08 16.9-20.31 32.04-36.5 42.86-3.46 2.31-7.41 3.88-11.14 5.79-.46-.48-.92-.97-1.39-1.45 1.8-2.77 3.29-5.81 5.44-8.28 20.67-23.7 32.61-51.87 41.47-81.52 5.06-16.92 7.62-34.24 5.61-52.49-12.7 1.92-25.18 4.2-38.07-3.54 3.77-1.69 6.3-3.39 9.07-3.98 24.29-5.16 47.46-13.76 70.71-22.21 5.68-2.06 11.93-2.73 17.99-3.51 2.67-.34 5.95-.1 8.17 1.21 2.63 1.56 4.42 4.55 6.57 6.91-2.1 1.84-3.91 4.61-6.35 5.38-16.59 5.22-33.31 10.03-50 14.95-1.84.54-3.72.98-6.13 1.61 3.21 2.48 5.96 4.51 8.61 6.67 3.88 3.16 4.52 6.85 2.45 11.53-2.33 5.26-4.02 10.81-5.99 16.23.33.55.65 1.09.98 1.64 5.49-1.36 11.27-2.04 16.39-4.23 9.03-3.86 25.73.16 30.68 8.53.95 1.6 1.01 4.99-.06 6.32-9.03 11.24-10.36 24.89-12.85 38.27-2.39 12.87-4.79 25.77-8.04 38.44-3.47 13.56-11.9 24.03-23.18 32.11-6.95 4.98-9.24 3.54-12.77-4.17-3.41-7.43-8.35-14.18-12.76-21.13-1.56-2.45-3.54-4.63-5.32-6.94.32-.37.67-.78 1.02-1.19z"/><path d="m86.91 160.79c-17.49 24.17-34.32 48.97-60.37 65.01-.36-.28-.71-.55-1.07-.83 3.6-5.04 7.16-10.1 10.79-15.1 27.92-38.45 48.81-80.61 65.85-124.79 3.3-8.57 5.2-17.37 2.97-26.77-1.31-5.53 1.59-7.98 6.69-5.36 6.84 3.5 13.34 7.87 19.44 12.57 3.81 2.93 4.42 7.77 1.2 11.6-10.86 12.9-17.31 28.27-24.73 43.11-3.87 7.74-7.57 15.56-11.52 23.26-1.21 2.36-1.43 3.87.79 5.96 7.25 6.78 10.75 14.61 9.72 25.27-1.53 15.86-1.08 31.9-1.71 47.86-1.23 31.23-2.5 62.46-4.07 93.68-.36 7.09-1.79 14.16-3.28 21.13-.45 2.11-2.53 5.04-4.28 5.35-1.63.3-4.31-1.99-5.66-3.78-8.05-10.71-7.77-22.65-5.55-35.23 2.79-15.81 5.27-31.74 6.64-47.72 1.63-18.86 2.5-37.83 2.62-56.76.08-12.71-1.73-25.44-2.7-38.16-.58-.12-1.17-.21-1.77-.3z"/><path d="m206.49 103.6c-1.68 3.76-2.4 8.79-5.28 10.97-3.74 2.83-8.17-.57-11.8-2.93-10.59-6.89-19.62-15.42-26.48-26.08-1-1.56-2.18-4.51-1.5-5.31 1.15-1.36 3.84-2.33 5.67-2.07 8.03 1.16 16.16 2.24 23.95 4.45 10.81 3.08 14.65 9.22 15.44 20.97z"/></g><path d="m5.17 384 .55-.58c.85.61 1.65 1.24 2.4 1.87l-.59.64c-.83-.73-1.62-1.38-2.36-1.93m1.22 9.53-.82-.34c.71-1.76 1.37-3.64 1.98-5.63.24.13.5.25.76.36-.6 1.67-1.24 3.54-1.92 5.61m-.5-13.5.57-.54c.56.44 1.31 1.06 2.26 1.87l-.64.64c-.68-.66-1.41-1.32-2.19-1.97m3.25.46h2.24v-1.36h.77v1.36h4.57v-1.36h.76v1.36h2.28v.69h-2.28v1.84h-2.64v1.26h4.18v2.64h-4.21c0 .45-.02.86-.05 1.21h4.32v.69h-4.38c-.04.34-.1.75-.19 1.22h5.15v.69h-4.82c.87 1.19 2.51 1.92 4.93 2.19-.17.32-.3.57-.37.76-2.77-.49-4.52-1.41-5.26-2.76-.56 1.26-2.3 2.23-5.24 2.9-.12-.24-.26-.48-.43-.72 2.73-.55 4.38-1.34 4.96-2.38h-4.38v-.69h4.65c.1-.38.17-.79.21-1.22h-4.32v-.69h4.4c.03-.34.05-.75.05-1.21h-4.2v-2.64h4.23v-1.26h-2.69v-1.84h-2.24zm1.46 4.46v1.29h3.45c.01-.4.02-.57.01-.53v-.32-.45h-3.46zm1.55-2.59h4.57v-1.19h-4.57zm6.11 2.59h-3.42v.77c-.01.19-.01.37-.02.53h3.44z" fill="#fafafc"/><path d="m32.63 379.16h.82v1.98h3.54v7.89h1.46v.78h-14.37v-.78h1.46v-7.89h3.54v-1.98h.82v1.98h2.73zm-3.49 11.48.5.73c-1.61.82-3.28 1.63-5 2.41-.13-.27-.28-.55-.44-.82 1.75-.72 3.4-1.49 4.94-2.32m-2.78-5.55h2.73v-3.18h-2.73zm0 3.95h2.73v-3.2h-2.73zm3.54-3.95h2.73v-3.18h-2.73zm0 3.95h2.73v-3.2h-2.73zm7.89 4.68c-1.84-.92-3.51-1.7-5.02-2.32l.45-.73c1.89.8 3.57 1.55 5.04 2.23zm-1.62-11.81h-2.73v3.18h2.73zm-2.73 7.13h2.73v-3.2h-2.73z" fill="#fafafc"/></svg>