<svg enable-background="new 0 0 400 400" viewBox="0 0 400 400" xmlns="http://www.w3.org/2000/svg"><g fill="#fbfafa"><path d="m37.59 393.81c-.92.31-1.52.05-2-.78-.7-1.2-1.52-2.34-2.47-3.78v4.59c-.55.03-.95.05-1.41.07-.03-.37-.06-.64-.06-.91 0-1.91 0-3.81 0-5.7 1.13-.41 1.77-.03 2.29.91.62 1.11 1.38 2.14 2.31 3.19v-4.2h1.35v6.61z"/><path d="m12.94 393.88v-6.75c1.9.19 3.93-.54 5.37 1.29.8 1.01.78 2.88.03 3.97-1.37 1.97-3.4 1.51-5.4 1.49m1.45-1.22c2.04.12 2.92-.58 2.89-2.21-.03-1.51-.98-2.19-2.89-2z"/><path d="m11.81 393.87h-5.49c.68-2.18 2.47-3.48 3.51-5.45h-3.08v-1.21h5.29c-.71 2.13-2.44 3.48-3.47 5.51.86 0 1.63.04 2.39-.01.79-.05 1.14.21.85 1.16"/><path d="m39.33 393.86v-6.61h3.7v1.07h-2.22v1.52c.68.04 1.34.09 2.07.13v1.07c-.72.05-1.38.09-2.1.14v1.48h2.4v1.19h-3.85z"/><path d="m27.71 388.56c-1.15-.3-2.46-.61-3.1.64-.37.73-.41 1.93-.06 2.67.63 1.35 1.99.93 3.17.68.35.94-.01 1.32-.93 1.46-1.62.25-3.05-.27-3.76-1.48-.73-1.25-.6-3.03.31-4.17.88-1.11 2.71-1.7 4-1.16.32.13.44.74.65 1.12-.1.08-.19.16-.28.24"/><path d="m49.15 387.24v1.07c-.59.02-1.17.05-1.87.08v5.44h-1.48v-5.44h-1.85c-.05-.4-.08-.73-.13-1.15z"/><path d="m20.06 387.21h1.33v6.62h-1.33z"/><path d="m30.68 393.25c-.49.38-.8.79-1.05.76-.32-.05-.6-.45-.9-.7.26-.24.51-.64.8-.67.29-.04.62.3 1.15.61"/></g><path d="m232.09 222.69c4.57 3.75 8.65 6.87 12.47 10.29 2.9 2.61 3.79 5.68 2.48 9.82-1.48 4.69-2.51 9.74-2.56 14.64-.17 17.76.24 35.53.26 53.3.02 16.23-5.94 30.16-17.12 41.77-3.02 3.13-6.91 2.36-8.4-1.84-5.07-14.36-14.96-24.9-26.1-34.61-1.51-1.32-2.51-3.22-3.75-4.85.2-.41.4-.81.59-1.22 2 .16 4.04.14 6 .53 4.72.93 9.37 2.24 14.11 3.05 8.87 1.52 12.86-1.31 13.87-10.3 2.5-22.39 2.38-44.73-2.03-66.92-.06-.33-.1-.66-.19-.98-3.1-11.44-9.3-14.13-19.77-8.39-1.13.62-1.61 2.33-2.55 3.4-1.7 1.93-3.51 3.75-5.27 5.62-1.79-2.03-4.35-3.76-5.23-6.13-3.27-8.85-6.39-17.8-8.81-26.91-3.16-11.94-6.8-23.56-13.94-33.85-1.21-1.74-1.29-4.26-1.89-6.41 2.13-.58 4.35-1.88 6.38-1.64 24.93 2.96 48.94-2.01 72.8-8.19 4.15-1.08 8.32-2.51 12.1-4.5 6.62-3.48 13.22-3.56 19.62-.32 6.95 3.51 13.69 7.48 20.23 11.7 5.53 3.57 5.76 7.78.32 11.47-10.08 6.85-15.25 16.88-19.32 27.73-.56 1.5-.36 3.91.52 5.2 4.89 7.27 3.56 10.49-5.18 11.88-12.44 1.99-24.87 4.04-37.31 6.07-.6.09-1.18.29-2.33.59zm-32.85-5.82c19.08-3.78 37.46-7.37 55.79-11.16.99-.2 1.97-2.03 2.35-3.29 3.05-10.16 3.75-20.44 1.62-30.93-.92-4.55-3.27-6.89-7.85-6.38-7.74.86-15.49 1.76-23.17 3.05-11.38 1.92-22.7 4.19-34.5 6.4 1.96 14.36 3.83 28.14 5.76 42.31z" fill="#000001"/><path d="m321.78 92.59c10.65-.08 18.43 3.71 25.03 10.01 3.81 3.64 3.16 6.75-2 7.71-7.48 1.39-15.12 2.04-22.71 2.68-40.38 3.38-80.76 6.85-120.66 14.25-9.76 1.81-19.22 5.25-28.99 6.99-4.61.82-10.03.42-14.36-1.27-5.28-2.07-9.89-5.96-14.6-9.34-1.12-.81-1.45-2.72-2.14-4.13 1.31-.6 2.58-1.58 3.93-1.72 6.93-.7 13.88-1.49 20.84-1.7 35.34-1.08 69.93-7.94 104.64-13.7 15.21-2.53 30.23-6.17 45.35-9.22 2.28-.49 4.65-.47 5.67-.56z" fill="#000001"/><path d="m126.75 164.18c-1.82 4.53-3.5 9.12-5.47 13.58-9.82 22.17-20.15 44.13-29.42 66.52-4.54 10.97-7.15 22.74-10.63 34.15-.43 1.42-.66 2.92-1.23 4.28-2.13 5.06-4.45 5.57-8.62 2.02-.38-.32-.85-.58-1.14-.96-8.8-11.6-15.97-24.05-19.78-38.22-.81-3.01-.38-5.58 3.33-5.65 6.87-.14 12.34-3.47 16.54-8.19 9.38-10.55 18.39-21.46 27.17-32.52 8.37-10.55 16.24-21.49 24.36-32.23.97-1.28 2.14-2.4 3.22-3.59.55.27 1.11.54 1.67.81z" fill="#000001"/><path d="m328.4 293.63c-.48 4.21.41 10.24-5.17 12.76-5.21 2.35-9.18-1.89-12.66-5.01-13.73-12.34-27.33-24.83-40.71-37.55-2.05-1.94-2.68-5.37-3.97-8.11 2.95-.26 6.04-1.2 8.84-.67 14.45 2.71 28.34 7.22 40.94 14.98 8.97 5.54 12.84 12.78 12.73 23.6z" fill="#000001"/><path d="m80.74 88.45c14.3 1.76 27.1 4.26 36.92 14.25 6.91 7.02 8.57 15.48 5.95 24.81-1.68 5.99-5.61 7.78-11 4.51-4.94-2.99-9.68-6.45-14-10.28-6.57-5.83-12.75-12.12-19-18.32-1.39-1.38-2.77-3.04-3.44-4.84-.92-2.48-2.22-5.67-1.35-7.7.68-1.59 4.41-1.88 5.92-2.43z" fill="#000001"/><path d="m213.45 42.59c16.16 1.86 30.25 4.51 40.04 17.06 3.73 4.77 5.28 9.9 2.71 15.77-1.52 3.46-4.17 5.08-7.87 4.93-1.65-.07-3.39-.12-4.91-.68-13.46-4.93-25.65-11.71-34.15-23.78-.29-.41-.62-.83-.73-1.3-.79-3.09-2.82-6.7-1.87-9.12.74-1.89 5.23-2.29 6.78-2.88z" fill="#000001"/><path d="m161.37 246.67c3.56 7.99 5.39 16.42 4.43 25.29-1.48 13.65-7.58 25.33-16.06 35.89-.93 1.16-2 2.24-3.11 3.23-5.39 4.79-8.8 3.99-11.71-2.67-2.95-6.74-2.72-13.16 1.59-19.33 3.8-5.45 7.85-10.78 11.08-16.56 3.54-6.33 6.28-13.1 9.33-19.7.93-2.02 1.71-4.12 2.55-6.19.62.02 1.26.03 1.9.04z" fill="#000001"/></svg>