<svg enable-background="new 0 0 400 400" viewBox="0 0 400 400" xmlns="http://www.w3.org/2000/svg"><g fill="#fbfafa"><path d="m37.59 393.81c-.92.31-1.52.05-2-.78-.7-1.2-1.52-2.34-2.47-3.78v4.59c-.55.03-.95.05-1.41.07-.03-.37-.06-.64-.06-.91 0-1.91 0-3.81 0-5.7 1.13-.41 1.77-.03 2.29.91.62 1.11 1.38 2.14 2.31 3.19v-4.2h1.35v6.61z"/><path d="m12.94 393.88v-6.75c1.9.19 3.93-.54 5.37 1.29.8 1.01.78 2.88.03 3.97-1.37 1.97-3.4 1.51-5.4 1.49m1.45-1.22c2.04.12 2.92-.58 2.89-2.21-.03-1.51-.98-2.19-2.89-2z"/><path d="m11.81 393.87h-5.49c.68-2.18 2.47-3.48 3.51-5.45h-3.08v-1.21h5.29c-.71 2.13-2.44 3.48-3.47 5.51.86 0 1.63.04 2.39-.01.79-.05 1.14.21.85 1.16"/><path d="m39.33 393.86v-6.61h3.7v1.07h-2.22v1.52c.68.04 1.34.09 2.07.13v1.07c-.72.05-1.38.09-2.1.14v1.48h2.4v1.19h-3.85z"/><path d="m27.71 388.56c-1.15-.3-2.46-.61-3.1.64-.37.73-.41 1.93-.06 2.67.63 1.35 1.99.93 3.17.68.35.94-.01 1.32-.93 1.46-1.62.25-3.05-.27-3.76-1.48-.73-1.25-.6-3.03.31-4.17.88-1.11 2.71-1.7 4-1.16.32.13.44.74.65 1.12-.1.08-.19.16-.28.24"/><path d="m49.15 387.24v1.07c-.59.02-1.17.05-1.87.08v5.44h-1.48v-5.44h-1.85c-.05-.4-.08-.73-.13-1.15z"/><path d="m20.06 387.21h1.33v6.62h-1.33z"/><path d="m30.68 393.25c-.49.38-.8.79-1.05.76-.32-.05-.6-.45-.9-.7.26-.24.51-.64.8-.67.29-.04.62.3 1.15.61"/></g><path d="m266.68 297.66c1.76.69 3.51 1.41 5.27 2.07 6.5 2.45 13.01 4.89 19.52 7.31 4.35 1.61 8.43.29 10.65-3.21 4.86-7.65 9.85-15.42 13.19-23.77 7.33-18.29 10.63-37.66 12.55-57.2 1.33-13.55 2.28-27.15 2.93-40.75.19-4.03-.83-8.26-2.03-12.17-1.41-4.58-5.09-6.44-9.83-5.6-8.66 1.53-17.28 3.37-25.97 4.71-3.81.59-5.12 2.57-5.83 6.04-5.45 26.56-12.42 52.72-23.94 77.36-16.27 34.82-38.71 64.38-73.56 82.77-2.87 1.52-5.91 2.72-9.57 3.47 46.76-45.19 73.84-100.67 88.34-164.33-7.83 2.15-14.66 3.89-21.41 5.91-8.11 2.43-19.93-2.83-24.08-11.35 1.25-.37 2.37-.88 3.55-1.03 13.33-1.73 26.66-3.46 40.01-5.06 3.78-.45 5.26-2.2 5.54-6.09.99-13.9 2.73-27.76 3.44-41.68.48-9.32-.87-18.53-5.57-27.01-1.13-2.04-.74-4.93-1.05-7.43 2.5-.26 5.33-1.39 7.46-.62 8.35 3.04 16.82 6.05 24.58 10.29 6.05 3.31 5.31 6.08 3.15 12.52-3.56 10.65-6.15 21.64-8.78 32.58-1.66 6.91-2.64 13.98-4.07 21.79 3.27-.58 6.21-.79 8.95-1.64 8.53-2.64 16.88-5.93 25.52-8.11 3.79-.96 8.54-.93 12.07.53 7.42 3.07 14.49 7.11 21.37 11.3 3.56 2.17 4.35 6.23 1.76 9.66-8.15 10.81-9.04 23.73-10.69 36.31-3.68 28.13-5.68 56.54-15.12 83.61-6.25 17.95-14.7 34.64-28.94 47.73-2.89 2.65-6.36 4.75-9.77 6.74-2.9 1.7-5.62.54-6.24-2.59-2.85-14.33-11.72-25.14-20.42-36.1-1.42-1.79-2.52-3.84-3.77-5.77.27-.4.53-.79.79-1.19z" fill="#000001"/><path d="m87.58 307.42c-2.84-20.9-5.16-41.48-11.56-61.3-1.16-3.59-3.4-6.82-5.02-10.27-2.14-4.55-1.08-6.22 3.8-6.15 1.5.02 3.06-.1 4.48.27 15.94 4.2 31.35.14 46.71-3.19 13.29-2.88 26.42-6.52 39.61-9.84.8-.2 1.59-.48 2.35-.82 4.98-2.19 9.68-5.25 15.61-3.76 9.16 2.3 17.52 6.18 24.79 12.22 2.54 2.11 3.82 4.83 1.75 7.92-8.16 12.13-10.71 26.34-14.98 39.91-.49 1.57-.82 3.19-1.41 5.57 3.92-.91 7.31-1.97 10.78-2.44 3.75-.51 7.59-.7 11.37-.59 1.43.04 2.82 1.3 4.23 2-.93 1.22-1.61 2.93-2.85 3.56-4.13 2.11-8.36 4.12-12.73 5.65-39 13.68-78.06 27.23-117.07 40.9-5.79 2.03-11.54 4.25-17.11 6.83-5.66 2.62-11.18 2.6-16.05-.97-4.77-3.5-9.32-7.5-13.17-11.96-3.72-4.3-2.34-6.6 3.4-7.28 10.54-1.25 21.09-2.45 31.61-3.85 3.73-.49 7.39-1.53 11.46-2.41zm32.41-68.86c3.64 9.96 7.27 19.35 10.5 28.87 2.47 7.27 1.87 14.47-2.42 21-1 1.52-2.92 2.45-4.42 3.64-1.06-1.55-2.74-2.98-3.08-4.68-1.14-5.67-1.86-11.43-2.65-17.17-1.38-9.98-2.69-19.97-4.07-30.25-6.85 1.11-12.99 2.11-19.39 3.16 1.98 20.68 3.9 40.76 5.92 61.96 13.24-4.56 25.76-8.8 38.19-13.28 1.04-.37 1.97-2.23 2.17-3.52 2.09-13.25 4.27-26.5 5.87-39.82.55-4.59-.45-9.36-.76-14.24-9.18 1.54-17.5 2.93-25.86 4.33zm31.37 48.97c.33.47.66.95.99 1.42 8.4-2.37 16.82-4.68 25.18-7.21.95-.29 2.09-1.82 2.18-2.85 1.19-14.74 2.22-29.49 3.27-44.24.32-4.56-2.4-6.66-6.4-6.36-5.83.44-11.61 1.62-18.79 2.68 8.52 8.43 7.15 16.38 3.55 25.28-4.09 10.12-6.72 20.83-9.98 31.28z" fill="#000001"/><path d="m149.76 121.74c1.79 3.53 3.14 6.2 4.78 9.44 8.74-1.9 17.6-3.85 26.48-5.76 6.48-1.4 12.94-3.03 19.48-4.04 8.65-1.34 16.57.62 22.97 6.91 4.15 4.07 3.19 7.55-2.58 8.66-5.53 1.06-11.2 1.38-16.8 2.09-15.45 1.96-30.9 3.96-46.38 5.95.9 9.23 2.08 17.87 2.52 26.56.75 14.85-2.52 28.78-11.56 40.86-2.23 2.98-5.41 5.34-8.43 7.62-2.67 2.02-5.45 1.16-6.51-1.84-3.71-10.53-12.23-15.72-21.45-20.33-1.94-.97-3.63-2.46-5.03-4.59 3.71 0 7.43.12 11.14-.03 3.94-.16 8.01-.06 11.79-.99 6.99-1.72 9.06-7.6 9.31-13.82.4-9.89.11-19.81.11-30.58-18.03 3.77-34.57 7.12-51.07 10.7-10.6 2.3-25.66-3.3-32.04-13.11 13.63-1.28 26.69-2.2 39.66-3.81 12.98-1.61 25.88-3.89 40.38-6.12-4.24-8.08-8.13-15.48-12.02-22.89.29-.54.57-1.07.86-1.61 5.74 1.5 11.49 3.01 18.76 4.91 6.52-9.54 13.87-19.94 20.78-30.62 1.99-3.08-.07-5.46-4-4.68-13.98 2.77-27.98 5.47-41.82 8.84-8.79 2.14-23.05-1.47-28.66-8.36-.37-.46-.43-1.18-.98-2.81 4.07-.46 7.75-1.16 11.45-1.23 24.18-.46 47.47-4.93 69.56-15.02 4.85-2.21 9.68-1.31 13.9 1.13 5.73 3.31 11.23 7.12 16.46 11.19 4.97 3.86 4.51 7.25-1.27 9.49-20.25 7.87-33.49 24.66-49.79 37.89z" fill="#000001"/></svg>