<svg enable-background="new 0 0 400 400" viewBox="0 0 400 400" xmlns="http://www.w3.org/2000/svg"><g fill="#fbfafa"><path d="m37.59 393.81c-.92.31-1.52.05-2-.78-.7-1.2-1.52-2.34-2.47-3.78v4.59c-.55.03-.95.05-1.41.07-.03-.37-.06-.64-.06-.91 0-1.91 0-3.81 0-5.7 1.13-.41 1.77-.03 2.29.91.62 1.11 1.38 2.14 2.31 3.19v-4.2h1.35v6.61z"/><path d="m12.94 393.88v-6.75c1.9.19 3.93-.54 5.37 1.29.8 1.01.78 2.88.03 3.97-1.37 1.97-3.4 1.51-5.4 1.49m1.45-1.22c2.04.12 2.92-.58 2.89-2.21-.03-1.51-.98-2.19-2.89-2z"/><path d="m11.81 393.87h-5.49c.68-2.18 2.47-3.48 3.51-5.45h-3.08v-1.21h5.29c-.71 2.13-2.44 3.48-3.47 5.51.86 0 1.63.04 2.39-.01.79-.05 1.14.21.85 1.16"/><path d="m39.33 393.86v-6.61h3.7v1.07h-2.22v1.52c.68.04 1.34.09 2.07.13v1.07c-.72.05-1.38.09-2.1.14v1.48h2.4v1.19h-3.85z"/><path d="m27.71 388.56c-1.15-.3-2.46-.61-3.1.64-.37.73-.41 1.93-.06 2.67.63 1.35 1.99.93 3.17.68.35.94-.01 1.32-.93 1.46-1.62.25-3.05-.27-3.76-1.48-.73-1.25-.6-3.03.31-4.17.88-1.11 2.71-1.7 4-1.16.32.13.44.74.65 1.12-.1.08-.19.16-.28.24"/><path d="m49.15 387.24v1.07c-.59.02-1.17.05-1.87.08v5.44h-1.48v-5.44h-1.85c-.05-.4-.08-.73-.13-1.15z"/><path d="m20.06 387.21h1.33v6.62h-1.33z"/><path d="m30.68 393.25c-.49.38-.8.79-1.05.76-.32-.05-.6-.45-.9-.7.26-.24.51-.64.8-.67.29-.04.62.3 1.15.61"/></g><path d="m187.69 311.32c-14.34-5.54-27.44-10.6-41.54-16.04 3.41-8.21 7.29-17.54 11.45-27.53-9.88.96-19.33 1.49-28.65 2.86-19.7 2.89-39.29 6.48-59 9.27-13.75 1.95-24.01-4.72-32.35-14.97-.37-.45-.37-1.2-.96-3.29 5.92 0 11.29.18 16.65-.03 17.1-.69 34.21-1.38 51.3-2.37 15.26-.89 30.5-2.18 45.76-3.28 1.16-.08 2.33-.16 3.5-.1 5.9.29 9.59-1.67 11.68-7.91 3.47-10.36 8.78-20.1 9.52-31.33.06-.88 3.02-2.61 3.64-2.24 5.7 3.31 11.4 6.71 16.63 10.69 2.87 2.19 2.55 5.17-.11 8.21-4.91 5.62-9.34 11.66-14.64 18.38 3.7 0 6.39.14 9.07-.03 9.13-.57 18.24-1.37 27.37-1.84 3.35-.17 5.32-1.27 6.79-4.51 3.1-6.83 5.47-7.45 11.16-2.35 4.16 3.74 8.09 5 13.76 4.2 18.57-2.65 37.24-4.66 55.88-6.82 17.2-1.99 33.67-.56 47.34 11.62 2.18 1.94 3.37 4.98 5.01 7.51-2.88.92-5.77 2.67-8.64 2.61-18.29-.33-36.56-1.45-54.85-1.52-15.62-.06-31.25.89-46.86 1.55-1.33.06-3.22.97-3.81 2.05-7.63 13.94-15.07 27.99-22.54 41.99 9.3 3.04 19.59 6.2 29.72 9.79 11.77 4.16 23.32 8.92 33.18 16.83 6.4 5.14 11.44 11.19 11.28 20.1-.11 6.11-2.42 8.65-8.38 7.11-5.85-1.51-11.54-4.11-16.9-6.98-19.93-10.66-39.66-21.69-59.56-32.39-1.5-.81-4.49-.98-5.61-.05-17.82 15.02-39.01 22.41-61.22 27.58-13.19 3.07-26.52 4.65-40.08 3.93-.92-.05-1.83-.24-2.91-.98 30.68-9.14 60.71-19.55 87.92-39.72zm37.09-49.01c-1.43-.07-2.39-.23-3.33-.14-14.7 1.29-29.4 2.55-44.07 4.04-1.29.13-2.83 1.5-3.57 2.71-3.02 4.95-5.88 10.01-8.61 15.14-2.46 4.62-1.58 6.49 3.58 7.85 9.76 2.57 19.53 5.13 29.34 7.46 1.51.36 3.93.12 4.88-.85 9.97-10.27 16.72-22.5 21.78-36.21z" fill="#000001"/><path d="m149.31 71.17c2.04 2.49 4.56 4.94 6.27 7.86 1.31 2.24 2.36 5.12 2.22 7.64-.47 8.25-1.55 16.46-2.39 24.69.53.4 1.05.8 1.58 1.2 3.66-2.27 7.83-4.01 10.85-6.93 4.42-4.27 9.18-5.08 14.07-2.37 4.26 2.36 8.06 5.72 11.64 9.09 2.57 2.42 1.54 5-.44 7.93-5.08 7.5-9.65 15.36-14.21 23.21-.52.89.15 2.71.68 3.91.45 1.01 1.73 1.63 2.25 2.63 1.19 2.26 2.13 4.65 3.17 6.99-2.26.72-4.48 1.82-6.8 2.08-8.58.96-17.18 1.64-26.71 2.51 3.07 1.4 5.55 2.42 7.92 3.64 3.46 1.78 4.84 3.82 3.35 8.33-2.54 7.66-3.82 15.75-5.85 24.66 8.49-.67 16.04-1.67 23.59-1.74 5.51-.05 11.13.67 16.49 1.96 2.16.52 4.21 3.2 5.45 5.38 2 3.55.65 6.42-3.28 7.01-4.23.64-8.56.61-12.86.74-7.31.21-14.68-.25-21.91.57-17.62 2-35.24 4.23-52.73 7.1-5.6.92-10.8 4.18-16.24 6.22-1.41.53-3.24 1.12-4.52.67-6.19-2.17-11.18-11.7-9.19-18.05 4.74-15.09 5.73-30.65 6.08-46.26.45-20.13.97-40.27.64-60.39-.21-13.07-1.03-26.26-7.14-38.39-.77-1.53-.14-3.76-.16-5.66 1.74.11 3.81-.36 5.18.41 17.88 9.98 36.38 6.02 54.78 2.44 9.76-1.9 19.34-4.72 29.07-6.75 6.87-1.43 13.93-2.18 20.44 1.43 1.86 1.03 3.14 3.1 4.69 4.69-1.61 1.49-3 3.9-4.85 4.32-9.99 2.31-20.07 4.23-30.17 6.06-3.83.74-7.79.85-10.96 1.17zm-46.37 135.79c13.4-1.78 27.03-3.5 40.61-5.54.99-.15 2.29-2.51 2.34-3.89.24-6.65.38-13.33.02-19.97-.26-4.85-1.36-9.66-2.2-15.19-6.79 2.25-14.02-.94-18.49 5.9-.22.34-2.86-.17-3.43-.96-1.02-1.4-1.43-3.3-1.89-5.04-3.95-14.87-7.87-29.74-11.73-44.63-.27-1.04-.04-2.22-.04-4.5 11.84 2.54 23.44 6.39 34.86 1.62 0-2.92.36-5.61-.06-8.17-1.57-9.45-3.4-18.86-5.14-28.29-.68-3.72-2.99-4.42-6.5-4.13-6.95.58-13.94.68-20.91 1.03-2.25.11-4.48.36-7.43.61-.01 43.96-.01 87.34-.01 131.15zm23.74-82.53c.54 11.08 1.04 21.12 1.56 31.74 13.22-2.55 25.8-4.98 38.75-7.48 0-8.37-.02-16.12.01-23.88.01-3.4-1.9-5.09-4.98-4.75-11.62 1.31-23.22 2.86-35.34 4.37z" fill="#000001"/><path d="m298.28 115.68c3.35 2.8 5.99 4.81 8.4 7.07 2.51 2.35 2.27 4.53-1.3 5.3-8.27 1.8-16.57 3.43-24.89 5-13.04 2.46-26.12 4.72-39.14 7.32-1.47.29-3.75 2.19-3.74 3.33.09 9.46.37 18.93 1.1 28.36.82 10.62 7.53 16.4 17.39 18.5 18.44 3.93 36.64 3.08 54.39-3.81 8.01-3.11 13.29-8.46 15.21-17.05 1.62-7.24 3.62-14.4 6.7-21.7.54 2.88 1.34 5.73 1.57 8.64.78 9.66 3.84 18.48 9.07 26.59 5.47 8.47 4.24 14.61-5.28 17.47-12.32 3.71-25.09 6.23-37.83 8.17-10.31 1.57-20.87 2.21-31.3 2.03-15.49-.28-29.52-4.44-38.95-18.36-6.25-9.22-7.16-19.45-7.1-30.04.09-16.16.23-32.32.22-48.48-.01-12.7-1.04-25.24-6.68-36.95-.63-1.32-1.04-2.82-1.2-4.28-.3-2.67.56-4.25 3.71-3.29 1.26.38 2.68.21 3.94.59 22.02 6.64 41.02-2.44 59.72-11.93 5.7-2.89 11.07-3.06 16.22-.86 6.49 2.77 12.75 6.4 18.5 10.51 5.5 3.94 5.17 7.08.41 11.65-1.67 1.6-3.4 3.35-4.4 5.37-5.05 10.26-9.87 20.62-14.74 30.85zm-59.84 14.05c14.45-3.61 29.06-7.21 43.62-11.02 1.16-.3 2.65-2.09 2.75-3.29.87-10.26 1.67-20.53 2.05-30.82.3-7.97-1.79-10.08-9.77-9.06-12.61 1.62-25.13 3.95-38.65 6.14z" fill="#000001"/></svg>