<svg enable-background="new 0 0 400 400" viewBox="0 0 400 400" xmlns="http://www.w3.org/2000/svg"><g fill="#fbfafa"><path d="m37.59 393.81c-.92.31-1.52.05-2-.78-.7-1.2-1.52-2.34-2.47-3.78v4.59c-.55.03-.95.05-1.41.07-.03-.37-.06-.64-.06-.91 0-1.91 0-3.81 0-5.7 1.13-.41 1.77-.03 2.29.91.62 1.11 1.38 2.14 2.31 3.19v-4.2h1.35v6.61z"/><path d="m12.94 393.88v-6.75c1.9.19 3.93-.54 5.37 1.29.8 1.01.78 2.88.03 3.97-1.37 1.97-3.4 1.51-5.4 1.49m1.45-1.22c2.04.12 2.92-.58 2.89-2.21-.03-1.51-.98-2.19-2.89-2z"/><path d="m11.81 393.87h-5.49c.68-2.18 2.47-3.48 3.51-5.45h-3.08v-1.21h5.29c-.71 2.13-2.44 3.48-3.47 5.51.86 0 1.63.04 2.39-.01.79-.05 1.14.21.85 1.16"/><path d="m39.33 393.86v-6.61h3.7v1.07h-2.22v1.52c.68.04 1.34.09 2.07.13v1.07c-.72.05-1.38.09-2.1.14v1.48h2.4v1.19h-3.85z"/><path d="m27.71 388.56c-1.15-.3-2.46-.61-3.1.64-.37.73-.41 1.93-.06 2.67.63 1.35 1.99.93 3.17.68.35.94-.01 1.32-.93 1.46-1.62.25-3.05-.27-3.76-1.48-.73-1.25-.6-3.03.31-4.17.88-1.11 2.71-1.7 4-1.16.32.13.44.74.65 1.12-.1.08-.19.16-.28.24"/><path d="m49.15 387.24v1.07c-.59.02-1.17.05-1.87.08v5.44h-1.48v-5.44h-1.85c-.05-.4-.08-.73-.13-1.15z"/><path d="m20.06 387.21h1.33v6.62h-1.33z"/><path d="m30.68 393.25c-.49.38-.8.79-1.05.76-.32-.05-.6-.45-.9-.7.26-.24.51-.64.8-.67.29-.04.62.3 1.15.61"/></g><path d="m248.61 197.29c1.07-2.19 1.85-4.58 3.24-6.54 14.95-21.02 21.98-45.21 28.12-69.76 3.91-15.62 8.15-31.21 7.98-47.5-.04-3.63-.87-7.24-1.02-10.88-.19-4.53 1.66-6.42 5.62-4.64 6.11 2.75 11.95 6.29 17.4 10.2 1.53 1.1 2.31 4.99 1.67 7.06-3.85 12.48-8.31 24.78-12.39 37.19-5.94 18.09-11.73 36.24-17.68 54.68.79-.16 2.34-.25 3.73-.78 10.83-4.16 21.52-8.7 32.47-12.51 5.68-1.97 11.77-2.83 17.73-3.87 1.49-.26 3.5.26 4.73 1.16 2.16 1.59 4.99 3.52 5.43 5.74.3 1.51-2.61 4.67-4.7 5.49-11.57 4.52-23.32 8.54-35.02 12.72-1.06.38-2.14.66-3.64 1.12 3.22 2.3 6.16 4.17 8.81 6.37 3.45 2.86 4.62 6.1 3.24 10.97-1.8 6.32-2.29 13.03-3.12 19.61-1.95 15.47-3.67 30.96-5.72 46.42-.48 3.65-.2 6.48 2.16 9.67 17.18 23.14 37.6 42.62 62.69 57.06 1.63.94 2.59 3.06 3.86 4.63-1.62 1.03-3.12 2.64-4.88 2.98-12.81 2.5-25.73 2.33-37.68-2.92-4.7-2.06-8.66-7.11-11.56-11.69-7.21-11.35-13.62-23.21-20.85-35.73-15.55 22.96-34.88 39.63-63.18 43.38 2.74-2.25 5.33-4.73 8.26-6.7 18.3-12.31 31.42-28.96 41.24-48.49 1.72-3.41 2.03-6.36.03-9.78-8.49-14.47-16.65-29.14-25.32-43.51-2.53-4.19-6.34-7.62-9.57-11.39 3.11-2.93 8.07-3.36 11.87-.09 3.07 2.65 5.6 6.07 7.85 9.49 6.6 9.98 12.94 20.14 19.4 30.21.42.66 1.07 1.18 2.34 2.55 3.67-24.34 4.48-47.83 3.23-70.58-7.4-1.03-13.54-1.88-20.36-2.82-6.16 8.96-13.55 18.18-25.06 22.62-.46-.39-.9-.76-1.35-1.14z" fill="#000001"/><path d="m114.38 279.14c-14.12 16.05-27.87 31.26-46.27 41.05-4.65 2.48-9.78 4.07-14.74 5.96-1.32.51-2.8.61-4.21.9-.26-.4-.52-.79-.78-1.19 2.67-2.29 5.28-4.66 8.02-6.87 15.36-12.44 29.29-26.15 39.87-43.04 6.75-10.77 6.9-10.75-1.54-20.22-3.76-4.22-7.75-8.24-11.63-12.35-3.01-3.19-4.52-6.76-3.68-11.32 1.85-10.1 3.46-20.24 5.3-31.14-4.94 1.62-9.57 3.04-14.13 4.65-6.11 2.15-12.15 4.48-18.25 6.65-9.32 3.31-21.76-3.35-24.11-12.94-.99-4.04 1.94-4.25 4.73-4.53 9.41-.94 18.86-1.59 28.2-2.96 7.52-1.11 14.95-2.96 22.32-4.83 1.37-.35 3.14-2.28 3.32-3.66 3.07-23.72 6.09-47.46 8.74-71.23 1.64-14.74 2.39-29.51-2.72-43.92-.58-1.65-.56-4.81.36-5.39 1.49-.94 4.24-.95 5.97-.22 5.8 2.44 11.54 5.13 17.03 8.2 5.2 2.91 6.59 6.66 4.6 12.25-7.81 21.94-9.62 45.07-13.69 67.75-1.82 10.12-3.26 20.3-5.01 31.37 6.18-1.21 11.94-2.25 17.66-3.47 12.03-2.58 12.04-2.62 11.06-15.83-.13-1.81-.68-3.6-.83-5.41-.35-4.14 1.54-5.97 5.32-4.32 4.98 2.19 9.95 4.78 14.18 8.14 1.76 1.4 2.73 5.52 2.11 7.9-3.59 13.76-7.58 27.42-11.77 41.02-5.08 16.5-10.4 32.93-15.86 49.31-1.02 3.07-.75 4.97 1.42 7.51 4.96 5.81 9.59 11.93 13.94 18.2 4 5.77 3.63 11.88.01 17.85-3.56 5.87-7.11 5.91-10.68-.15-2.61-4.44-4.75-9.16-7.36-13.6-1.92-3.27-4.26-6.3-6.9-10.12zm14.52-94.76c-9.65 3.61-18.32 6.82-26.94 10.15-.77.3-1.52 1.36-1.77 2.22-3.23 10.97-6.53 21.92-9.45 32.96-1.14 4.3.34 8.32 3.88 11.17 4.77 3.85 9.7 7.49 14.99 11.55 10.83-21.37 15.01-43.97 19.29-68.05z" fill="#000001"/><path d="m209.95 300.28c9.22-2.77 17.6-5.33 26.02-7.79 3.02-.89 6.08-1.77 9.18-2.22 1.87-.27 4.52-.4 5.67.65 2.79 2.57 4.92 5.86 7.31 8.87-2.61 1.66-5.02 4.09-7.88 4.85-23.9 6.31-47.88 12.3-71.82 18.44-3.37.86-6.85 1.66-9.93 3.19-6.89 3.41-12.56 1.48-17.77-3.27-2.2-2.01-4.37-4.11-6.25-6.41-.86-1.04-1.67-2.94-1.26-3.95.36-.9 2.39-1.38 3.75-1.59 15.55-2.43 31.13-4.71 46.66-7.25 1.26-.21 3.19-2.03 3.23-3.16.28-7.8.15-15.62.15-24.07-6.61 1.36-12.75 2.55-18.86 3.89-6.2 1.36-16.45-3.29-19.19-8.83-1.42-2.87.41-3.5 2.64-3.81 6.9-.97 13.81-1.86 20.69-2.9 4.73-.71 9.44-1.61 15.22-2.61-.84-9.3-1.67-18.44-2.5-27.56-12.86.06-25.37 2.92-37.02-6.66 3.07-1.22 5.16-2.37 7.4-2.9 20.33-4.84 40.73-9.43 61.02-14.43 6-1.48 11.16-.39 16.17 2.68 4.67 2.86 4.94 6.22-.05 8.36-7.73 3.32-15.86 5.73-23.91 8.25-3.9 1.22-7.99 1.83-12.55 2.83.94.84 1.34 1.34 1.85 1.64 5.15 3.03 7.82 6.83 5.33 13.18-1.16 2.97-1.12 6.41-1.76 10.48 6.58-1.73 12.46-3.21 18.3-4.83 6.88-1.9 14.45 1.05 18.21 7.09 2.3 3.69-.11 5.46-2.93 6.3-5.56 1.65-11.26 2.87-16.94 4.09-4.06.87-8.16 1.95-12.26 2.06-4.22.11-4.77 2.1-4.83 5.6-.15 6.96-.68 13.91-1.09 21.79z" fill="#000001"/><path d="m200.96 131.05c-1.02-19.21-1.86-38.1-3.15-56.97-.24-3.51-2.4-6.86-3.44-10.35-1.19-3.99.46-5.91 4.17-4.21 6.43 2.94 12.7 6.38 18.62 10.25 2.89 1.88 2.84 4.96 1.73 8.82-2.59 9.02-4.25 18.36-5.61 27.66-1.12 7.64-1.26 15.42-1.86 23.52 8.55-1.39 16.41-2.57 24.22-4.03 1.17-.22 2.72-1.54 3.04-2.65 2.39-8.43 5.39-16.78 3.47-25.86-.36-1.69.19-4.39 1.37-5.33.94-.75 3.9-.11 5.19.9 4.68 3.66 9.26 7.53 13.37 11.8 1.15 1.19 1.39 4.47.61 6.11-3.91 8.19-8.33 16.14-12.51 24.21-2.66 5.14-4.88 10.56-7.97 15.42-1.14 1.79-4.2 2.36-6.39 3.49-.93-2.37-2.57-4.73-2.61-7.12-.06-3.56 1.01-7.14 1.76-11.67-6.23 1.5-11.99 2.62-17.59 4.29-11.61 3.46-23.3 6.75-34.63 11-6.74 2.52-13.02 6.45-19.2 10.26-4.45 2.74-7.45 2.48-8.54-2.63-.89-4.18-1.41-9.24.13-12.99 5.34-12.95 5.12-25.82 1.75-39.01-.43-1.67-.29-3.48-.41-5.22 1.89-.08 4.03-.77 5.61-.11 4.57 1.89 9.1 4.03 13.23 6.72 1.32.86 1.97 3.78 1.83 5.68-.42 5.61-1.51 11.16-2.1 16.76-.39 3.64.5 5.55 5.12 4.46 6.4-1.54 13.04-2.08 20.79-3.2z" fill="#000001"/><path d="m159.25 184.95c25.29-5.25 50.28-10.5 75.31-15.56 4.28-.86 8.86-1.55 13.17 2.84-2.09 1.51-3.7 3.25-5.69 4.01-13.92 5.36-27.88 10.61-41.9 15.71-5.76 2.09-11.7 3.69-17.55 5.55-8.94 2.85-20.69-3.47-23.34-12.55z" fill="#000001"/></svg>