<svg enable-background="new 0 0 400 400" viewBox="0 0 400 400" xmlns="http://www.w3.org/2000/svg"><g fill="#fbfafa"><path d="m37.59 393.81c-.92.31-1.52.05-2-.78-.7-1.2-1.52-2.34-2.47-3.78v4.59c-.55.03-.95.05-1.41.07-.03-.37-.06-.64-.06-.91 0-1.91 0-3.81 0-5.7 1.13-.41 1.77-.03 2.29.91.62 1.11 1.38 2.14 2.31 3.19v-4.2h1.35v6.61z"/><path d="m12.94 393.88v-6.75c1.9.19 3.93-.54 5.37 1.29.8 1.01.78 2.88.03 3.97-1.37 1.97-3.4 1.51-5.4 1.49m1.45-1.22c2.04.12 2.92-.58 2.89-2.21-.03-1.51-.98-2.19-2.89-2z"/><path d="m11.81 393.87h-5.49c.68-2.18 2.47-3.48 3.51-5.45h-3.08v-1.21h5.29c-.71 2.13-2.44 3.48-3.47 5.51.86 0 1.63.04 2.39-.01.79-.05 1.14.21.85 1.16"/><path d="m39.33 393.86v-6.61h3.7v1.07h-2.22v1.52c.68.04 1.34.09 2.07.13v1.07c-.72.05-1.38.09-2.1.14v1.48h2.4v1.19h-3.85z"/><path d="m27.71 388.56c-1.15-.3-2.46-.61-3.1.64-.37.73-.41 1.93-.06 2.67.63 1.35 1.99.93 3.17.68.35.94-.01 1.32-.93 1.46-1.62.25-3.05-.27-3.76-1.48-.73-1.25-.6-3.03.31-4.17.88-1.11 2.71-1.7 4-1.16.32.13.44.74.65 1.12-.1.08-.19.16-.28.24"/><path d="m49.15 387.24v1.07c-.59.02-1.17.05-1.87.08v5.44h-1.48v-5.44h-1.85c-.05-.4-.08-.73-.13-1.15z"/><path d="m20.06 387.21h1.33v6.62h-1.33z"/><path d="m30.68 393.25c-.49.38-.8.79-1.05.76-.32-.05-.6-.45-.9-.7.26-.24.51-.64.8-.67.29-.04.62.3 1.15.61"/></g><path d="m124.51 180.37c2.86 5.15 5.83 10.24 8.56 15.45 6.55 12.49 11.73 25.9 19.72 37.38 17.95 25.78 43.04 40.39 74.95 40.53 13 .06 26.25-1.33 38.96-4.06 13.76-2.96 17.7-12.64 12.44-25.86-4.42-11.11-9.07-22.12-13.52-33.21-1.46-3.63-2.6-7.38-3.89-11.08.47-.38.93-.75 1.4-1.13 2.56 2.29 5.23 4.46 7.67 6.87 12.89 12.75 25.57 25.73 38.66 38.27 4.77 4.57 10.48 8.18 15.77 12.21 2.25 1.71 4.64 3.26 6.77 5.11 6.86 5.97 6.82 8.95-.72 13.72-20.88 13.21-43.13 22.66-68.13 24.71-18.12 1.49-36.13 1.62-54.21-.84-22.64-3.09-39.84-14.54-53.63-32.27-18.02-23.19-27.66-49.72-32.31-78.36-.24-1.47-.16-2.99-.15-4.49 0-.8.15-1.59.23-2.39.47-.2.95-.38 1.43-.56z" fill="#000001"/><path d="m78.36 166.48c4.25 6.13 6.64 13.16 7.65 20.48 3.5 25.48-3.79 48.91-14.48 71.58-.76 1.6-2.14 2.95-3.37 4.28-2.93 3.15-5.75 2.63-8.48-.39-8.87-9.81-10.38-25.33-4.37-36.9 8.81-16.94 16.69-34.3 19.86-53.39.31-1.89 1.11-3.69 1.68-5.54.5-.03 1.01-.08 1.51-.12z" fill="#000001"/><path d="m280.32 112.97c5.88 0 11.76-.11 17.64.02 14.95.35 28.75 3.96 40.85 13.39 12.89 10.05 16.34 23.32 13.87 38.59-1.29 7.97-5.74 9.59-11.76 4.22-5.31-4.73-9.82-10.34-14.62-15.63-10.69-11.78-22.98-21.61-36.32-30.23-3.74-2.42-7-5.57-10.48-8.39.27-.65.55-1.31.82-1.97z" fill="#000001"/><path d="m214.59 144.46c-2.06 5.85-3.67 11.92-6.31 17.5-2 4.22-4.83 4.44-7.76.72-14.25-18.15-28.34-36.44-42.29-54.82-2.51-3.31-1.3-5.59 2.45-4.79 16.06 3.42 32.33 6.64 44.39 19.28 5.78 6.04 8.41 13.18 9.52 22.11z" fill="#000001"/></svg>