<svg enable-background="new 0 0 400 400" viewBox="0 0 400 400" xmlns="http://www.w3.org/2000/svg"><g fill="#010106"><path d="m82.05 314.08c7.83 1.84 14.34 3.61 20.95 4.87 7.37 1.41 12.22-1.31 13.68-8.66 1.67-8.43 2.72-17.08 2.97-25.66.49-16.31.23-32.65.27-48.98 0-.6-.14-1.19-.33-2.74-9 8.06-17.48 15.45-25.72 23.09-10.87 10.06-21.59 20.29-32.33 30.5-4.41 4.19-9.31 6.06-14.89 2.78-5.98-3.52-11.92-7.19-17.47-11.35-3.63-2.72-3.14-4.54 1.19-6.29 3.99-1.62 8.26-2.55 12.25-4.18 18.66-7.62 34.77-19.5 50.92-31.18 8.34-6.03 15.99-13.03 23.82-19.75 1.23-1.05 2.44-2.94 2.46-4.46.19-14.14.11-28.29.11-42.71-9.62 1.27-18.86 2.87-28.17 3.62-9.37.75-18.76.36-27.13-4.62-.08-.64-.17-1.27-.25-1.91 18.4-4.86 36.8-9.72 55.19-14.58 0-9.9.33-19.38-.08-28.83-.52-11.78-1.1-23.61-2.69-35.27-1.49-10.95-4.31-21.73-6.59-32.57-.27-1.3-.92-2.52-1.14-3.82-.67-3.81 1.55-6.42 4.98-5.04 8.57 3.44 17.18 7.01 25.21 11.53 5.29 2.98 5.51 7.66 3.98 13.58-1.68 6.54-3.01 13.28-3.49 20.01-1.31 18.38-2.09 36.79-3.12 56.08 6.1-1.76 11.29-2.91 16.21-4.76 6.17-2.31 11.45-.74 16.43 2.8 3.86 2.75 3.88 5.42-.46 7.45-7.96 3.71-16.15 6.93-24.35 10.09-7.33 2.83-7.39 2.68-7.39 10.69v30.11c9.82-7.52 18.91-14.48 27.99-21.44.48.46.95.93 1.43 1.39-2.57 3.7-4.85 7.65-7.78 11.03-5.88 6.79-11.99 13.4-18.27 19.83-2.39 2.44-3.52 4.8-3.44 8.28.58 26.13.95 52.26 1.42 78.4.35 19.22-6.52 35.38-20.53 48.51-1.33 1.25-2.73 2.47-4.28 3.41-3.99 2.44-7.12 1.67-7.93-2.94-2.36-13.5-10.67-22.96-20.1-31.85-1.06-1-1.82-2.28-3.53-4.46z"/><path d="m146.99 332.63c15.67-10.31 32.19-19.44 43.17-35.79 10.67-15.89 17.52-33.04 21.12-51.74 3.68-19.09 4.65-37.68-8.06-55.21 2.21-.38 3.74-1.14 4.89-.77 7.24 2.35 14.55 4.6 21.54 7.58 4.58 1.95 5.8 5.78 4.97 11.13-1.47 9.5-1.85 19.17-2.5 28.78-.09 1.32.45 3.05 1.33 4.01 18.2 19.9 36.03 40.19 57.94 56.25 21.25 15.58 45.09 25.34 70.72 31 2.67.59 5.23 1.63 7.85 2.47 0 .56.01 1.11.01 1.67-5.35.99-10.67 2.49-16.06 2.87-14.59 1.02-29.22 1.56-43.83 2.28-14.15.7-24.85-5.5-33.6-16.24-15.62-19.17-28.65-40-40.65-61.54-1.52-2.72-3.13-5.4-5.34-9.21-9.98 46.62-38.9 72.69-83.5 82.46z"/><path d="m214.07 154.71c5.99-.44 10.7-.54 15.33-1.17 19.74-2.71 38.51-8.09 55.78-18.59 10.39-6.32 14.71-5.65 23.71 2.52 7.12 6.46 13.58 13.69 20.04 20.83 3.54 3.92 2.69 6.98-2.32 8.66-3.89 1.3-8.08 1.67-12.11 2.61-15.1 3.5-28.02 11.02-39.39 21.4-1.3 1.18-2.66 2.29-4 3.44-.53-.28-1.07-.55-1.6-.83 2.32-6.51 4.45-13.1 7.01-19.52 2.57-6.45 5.56-12.74 8.9-20.3-3.52.33-6.34.36-9.06.9-12.51 2.51-24.89 5.91-37.51 7.51-7.71.98-15.82-.35-23.64-1.41-2.97-.4-4.46.17-6.34 2.15-5.48 5.79-11.09 11.46-16.85 16.98-1.71 1.64-4.07 2.6-6.13 3.87-.39-.31-.79-.63-1.18-.94.84-1.77 1.52-3.63 2.53-5.29 16.16-26.37 28.27-54.45 35.93-84.43 2.56-10.01 2.27-20.05.34-30.16-.46-2.4-.42-6.1.99-7.29 1.43-1.2 5.25-.81 7.34.24 7.7 3.88 15.29 8.06 22.56 12.68 4.2 2.67 4.01 5.59 1.5 9.77-4.77 7.93-9.33 15.99-13.79 24.1-8.39 15.28-16.65 30.64-24.95 45.97-.83 1.54-1.55 3.16-3.09 6.3z"/></g><path d="m5.17 384 .55-.58c.85.61 1.65 1.24 2.4 1.87l-.59.64c-.83-.73-1.62-1.38-2.36-1.93m1.22 9.53-.82-.34c.71-1.76 1.37-3.64 1.98-5.63.24.13.5.25.76.36-.6 1.67-1.24 3.54-1.92 5.61m-.5-13.5.57-.54c.56.44 1.31 1.06 2.26 1.87l-.64.64c-.68-.66-1.41-1.32-2.19-1.97m3.25.46h2.24v-1.36h.77v1.36h4.57v-1.36h.76v1.36h2.28v.69h-2.28v1.84h-2.64v1.26h4.18v2.64h-4.21c0 .45-.02.86-.05 1.21h4.32v.69h-4.38c-.04.34-.1.75-.19 1.22h5.15v.69h-4.82c.87 1.19 2.51 1.92 4.93 2.19-.17.32-.3.57-.37.76-2.77-.49-4.52-1.41-5.26-2.76-.56 1.26-2.3 2.23-5.24 2.9-.12-.24-.26-.48-.43-.72 2.73-.55 4.38-1.34 4.96-2.38h-4.38v-.69h4.65c.1-.38.17-.79.21-1.22h-4.32v-.69h4.4c.03-.34.05-.75.05-1.21h-4.2v-2.64h4.23v-1.26h-2.69v-1.84h-2.24zm1.46 4.46v1.29h3.45c.01-.4.02-.57.01-.53v-.32-.45h-3.46zm1.55-2.59h4.57v-1.19h-4.57zm6.11 2.59h-3.42v.77c-.01.19-.01.37-.02.53h3.44z" fill="#fafafc"/><path d="m32.63 379.16h.82v1.98h3.54v7.89h1.46v.78h-14.37v-.78h1.46v-7.89h3.54v-1.98h.82v1.98h2.73zm-3.49 11.48.5.73c-1.61.82-3.28 1.63-5 2.41-.13-.27-.28-.55-.44-.82 1.75-.72 3.4-1.49 4.94-2.32m-2.78-5.55h2.73v-3.18h-2.73zm0 3.95h2.73v-3.2h-2.73zm3.54-3.95h2.73v-3.18h-2.73zm0 3.95h2.73v-3.2h-2.73zm7.89 4.68c-1.84-.92-3.51-1.7-5.02-2.32l.45-.73c1.89.8 3.57 1.55 5.04 2.23zm-1.62-11.81h-2.73v3.18h2.73zm-2.73 7.13h2.73v-3.2h-2.73z" fill="#fafafc"/></svg>