<svg enable-background="new 0 0 400 400" viewBox="0 0 400 400" xmlns="http://www.w3.org/2000/svg"><g fill="#010106"><path d="m125.05 73.63c9.26 0 18.64.93 27.76-.21 14.29-1.79 28.37-5.19 42.6-7.54 19.15-3.16 38.62-4.87 57.46-9.31 14.02-3.3 25.04.36 35.86 8.03 5.29 3.75 10.77 7.26 15.79 11.35 7.26 5.92 7 9.54 1.07 16.61-8.1 9.66-15.84 19.64-23.39 29.73-6.27 8.38-12.02 17.17-18.09 25.7-1.34 1.88-3.01 3.56-4.67 5.19-5.37 5.25-8.43 4.94-13.11-.72-1.01-1.22-3.29-2.31-4.79-2.09-26.26 3.84-52.49 7.95-78.74 11.85-3.22.48-4.85 1.99-6.16 4.81-.76 1.62-2.88 3.95-4 3.75-1.68-.3-3.74-2.27-4.37-3.99-4.19-11.54-8.64-23.05-11.85-34.88-4.59-16.91-10.53-33.21-18.24-48.93-4.24-8.61-2.9-10.37 6.87-9.35zm27.39 40.24c20.12-4.34 39.05-8.56 58.05-12.41 4.16-.84 8.78-1.2 12.81-.22 2.61.64 5.58 3.78 6.38 6.42.48 1.56-2.53 4.88-4.69 6.39-2.35 1.64-5.47 2.66-8.36 2.96-18.64 1.94-37.31 3.64-55.97 5.36-2.03.19-4.08.03-6.18.03 1.51 10.02 2.93 19.44 4.39 29.06 2.4-.39 4.36-.67 6.3-1.02 27.11-4.83 54.22-9.63 81.3-14.61 1.59-.29 3.62-1.79 4.23-3.24 4.26-10.08 8.75-20.12 12.05-30.52 2.33-7.33 3.34-15.17 4.1-22.87.59-6.04-1.41-8.65-7.36-9.07-7.87-.55-15.95-.58-23.74.55-18.71 2.71-37.31 6.18-55.94 9.44-9.91 1.73-19.79 3.67-30.37 5.64 1.01 9.49 1.97 18.49 3 28.11z"/><path d="m115.72 337.65c3.38-2.54 6.63-5.3 10.18-7.59 12.17-7.86 24.4-15.56 34.49-26.2 17.96-18.94 26.99-42.08 31.22-67.23.93-5.55-1.07-11.74-2.34-17.49-1.72-7.79.49-10.63 7.78-8.07 6.69 2.35 13.18 5.48 19.37 8.96 4.75 2.67 4.13 3.89 1.28 8.59-2.71 4.47-4.35 9.6-6.29 14.51-.26.66.26 2 .85 2.56 14.9 14.02 29 29.04 44.99 41.69 24.58 19.45 53.33 31.66 82.57 42.49 7.47 2.76 15.11 5.05 22.62 7.7 2.27.8 4.37 2.08 6.55 3.14-.01.47-.02.95-.03 1.42-3.08.59-6.13 1.45-9.23 1.71-14.58 1.2-29.16 2.3-43.76 3.32-19.66 1.37-35.2-6.82-47.86-21.17-19.71-22.34-39.28-44.8-58.88-67.23-.63-.72-.97-1.7-1.92-3.41-3.56 7.72-6.23 14.1-9.39 20.23-3.95 7.67-8.17 15.21-12.49 22.69-11.24 19.43-29.95 28.56-49.95 35.77-6.17 2.22-12.55 3.86-18.83 5.77-.32-.73-.63-1.44-.93-2.16z"/><path d="m35.05 361.31c4.81-3.97 8.83-7.58 13.14-10.79 13.88-10.35 26.18-22.17 34.84-37.32 11.06-19.35 18.32-40.11 21.8-62.1 1.47-9.33 2.31-18.77 3.12-28.19.8-9.2-1.25-17.78-6.19-25.71-1.02-1.64-.94-3.97-1.37-5.98 2.03-.21 4.15-.9 6.09-.55 11.9 2.1 23.57 5.96 35.92 4.14 14.77-2.17 29.62-3.92 44.31-6.53 29.06-5.16 58.02-10.93 87.06-16.16 9.47-1.71 18.15 1.19 25.8 6.88 4.15 3.08 3.82 7.03-1.15 8.58-6.61 2.06-13.49 3.54-20.36 4.38-26.21 3.19-52.45 6.24-78.72 8.91-17.68 1.8-35.44 2.87-53.16 4.28-5.93.47-11.85.99-17.39 1.46-1.26 13.54-2.06 26.64-3.77 39.62-4.37 33.04-16.06 63.06-38.74 88.02-12.51 13.77-28.4 22.3-46.17 27.45-.78.23-1.63.29-2.45.31-.43.01-.86-.22-2.61-.7z"/></g><path d="m5.17 384 .55-.58c.85.61 1.65 1.24 2.4 1.87l-.59.64c-.83-.73-1.62-1.38-2.36-1.93m1.22 9.53-.82-.34c.71-1.76 1.37-3.64 1.98-5.63.24.13.5.25.76.36-.6 1.67-1.24 3.54-1.92 5.61m-.5-13.5.57-.54c.56.44 1.31 1.06 2.26 1.87l-.64.64c-.68-.66-1.41-1.32-2.19-1.97m3.25.46h2.24v-1.36h.77v1.36h4.57v-1.36h.76v1.36h2.28v.69h-2.28v1.84h-2.64v1.26h4.18v2.64h-4.21c0 .45-.02.86-.05 1.21h4.32v.69h-4.38c-.04.34-.1.75-.19 1.22h5.15v.69h-4.82c.87 1.19 2.51 1.92 4.93 2.19-.17.32-.3.57-.37.76-2.77-.49-4.52-1.41-5.26-2.76-.56 1.26-2.3 2.23-5.24 2.9-.12-.24-.26-.48-.43-.72 2.73-.55 4.38-1.34 4.96-2.38h-4.38v-.69h4.65c.1-.38.17-.79.21-1.22h-4.32v-.69h4.4c.03-.34.05-.75.05-1.21h-4.2v-2.64h4.23v-1.26h-2.69v-1.84h-2.24zm1.46 4.46v1.29h3.45c.01-.4.02-.57.01-.53v-.32-.45h-3.46zm1.55-2.59h4.57v-1.19h-4.57zm6.11 2.59h-3.42v.77c-.01.19-.01.37-.02.53h3.44z" fill="#fafafc"/><path d="m32.63 379.16h.82v1.98h3.54v7.89h1.46v.78h-14.37v-.78h1.46v-7.89h3.54v-1.98h.82v1.98h2.73zm-3.49 11.48.5.73c-1.61.82-3.28 1.63-5 2.41-.13-.27-.28-.55-.44-.82 1.75-.72 3.4-1.49 4.94-2.32m-2.78-5.55h2.73v-3.18h-2.73zm0 3.95h2.73v-3.2h-2.73zm3.54-3.95h2.73v-3.18h-2.73zm0 3.95h2.73v-3.2h-2.73zm7.89 4.68c-1.84-.92-3.51-1.7-5.02-2.32l.45-.73c1.89.8 3.57 1.55 5.04 2.23zm-1.62-11.81h-2.73v3.18h2.73zm-2.73 7.13h2.73v-3.2h-2.73z" fill="#fafafc"/></svg>