<svg enable-background="new 0 0 400 400" viewBox="0 0 400 400" xmlns="http://www.w3.org/2000/svg"><g fill="#010106"><path d="m206 260.57c0 14.59-.01 28.89 0 43.19.01 14.5.47 29.01-.11 43.49-.3 7.53-2.21 15.04-3.88 22.44-.44 1.93-2.57 4.66-4.16 4.82-1.64.17-4.02-1.98-5.29-3.7-8.71-11.81-10.85-23.98-5-38.35 3.45-8.47 3.3-18.5 4.14-27.89.59-6.51.11-13.11.11-21.5-7.04 7.44-12.85 14.52-19.59 20.56-24.34 21.82-51.53 39.34-81.73 51.93-8.2 3.42-16.89 5.5-26.17 4.92 22.68-11.67 44.21-24.98 63.74-41.29 19.45-16.23 40.17-31.22 54.44-52.69-.28-.5-.55-1-.83-1.5-5.83 1.33-11.7 2.5-17.47 4.03-13.14 3.49-26.36 6.74-39.27 10.96-5.54 1.81-10.57 5.49-15.5 8.81-4.92 3.32-8.36 3.26-11.91-1.6-1.84-2.52-3.24-5.4-4.56-8.25-1.87-4.02-.93-7.46 1.91-10.98 8.24-10.22 13.73-21.6 13.02-35.18-.15-2.81-.75-5.6-.92-8.41-.22-3.62 1.92-4.42 4.83-3.28 2.3.91 4.75 1.95 6.52 3.6 6.92 6.43 15.27 6.07 23.52 4.91 16.76-2.37 33.45-5.26 50.74-8.03.15-7.57-.66-14.88-3.7-21.77-.42-.95-2.74-1.72-4.02-1.52-12.95 2.02-25.86 4.25-38.79 6.43-9.46 1.59-18.57.62-27.07-4-1.81-.98-3.21-2.71-4.8-4.1.22-.51.43-1.02.65-1.53 2.87-.39 5.75-1.14 8.62-1.11 21.39.27 42.35-3.47 63.36-6.7.16-.03.33-.14.48-.13 11.68 1.1 17.34-5.99 22.08-15.3 6.01-11.8 13.94-22.65 16.85-35.92 2.08-9.49 4.18-10.34 12.26-4.45 3.58 2.61 6.83 5.87 9.64 9.32 3.85 4.74 3.13 7.11-2.09 10.38-13.38 8.39-23.91 19.97-34.66 31.68 8.35-2.13 16.79-4.01 25.04-6.48 6.64-1.99 12.96-5.08 19.62-6.95 3.47-.98 7.65-1.28 11.06-.3 8.16 2.34 14.86 7.44 20.43 13.8 4.01 4.57 2.96 6.34-2.37 9.33-9.92 5.57-19.44 11.84-29.01 17.74.81 1.61.95 1.9 1.1 2.18 1.44 2.63 2.88 5.27 4.32 7.9-3.11 1.32-6.11 3.35-9.34 3.83-13.47 2.01-27.01 3.47-40.49 5.41-1.42.2-3.47 2.12-3.68 3.49-.8 5.19-.97 10.48-1.43 16.4 8.74-1.21 16.61-2.13 24.43-3.4 17.52-2.86 35.02-5.87 52.52-8.9 2.77-.48 5.59-1.08 8.18-2.13 9.72-3.93 18.67-2.34 26.79 3.8 5.82 4.4 11.49 9.08 16.76 14.12 4.74 4.53 4.47 9.97-.78 13.66-10.3 7.24-15.63 17.59-20.69 28.68-4.79 10.51-10.71 20.69-17.44 30.07-6.23 8.68-16.19 12.55-26.49 14.75-6.41 1.37-8.24-.59-7.18-6.89 1.24-7.31-1.66-13.4-5.92-18.97-3.39-4.42-7.02-8.67-10.54-13 .29-.35.59-.71.88-1.06 5.58 3.03 11.15 6.09 16.75 9.08 10.75 5.72 15.65 4.72 21.26-6.22 5.97-11.64 10.78-23.86 16.1-35.83.2-.45.41-.94.45-1.42.79-10.04 1.42-14.94-11.3-15.78-9.36-.62-18.95.3-28.28 1.62-18.24 2.56-36.36 5.89-56.14 9.18zm-13.19-29.07c-19.96 2.61-39.01 5.34-58.12 7.46-5.94.66-9.81 2.34-11.28 8.58-1.49 6.29-3.67 12.41-5.82 19.5 24.91-4.93 48.49-9.56 72.03-14.36 1.22-.25 3.01-1.86 3.06-2.9.28-5.94.13-11.91.13-18.28zm11.93-38.44c-.33.39-.66.78-.99 1.18 10.36 6.4 6.55 15.45 4.43 24.29 4.78-.81 8.53-1.47 12.29-2.08 3.92-.64 7.84-1.76 11.77-1.77 9.08-.02 14.16-4.44 16.22-13.04.49-2.07 1.62-3.98 2.42-5.98 2.39-6.03.59-8.61-5.85-7.83-13.45 1.62-26.86 3.47-40.29 5.23z"/><path d="m147.33 145.56c-2.15-3.39-5.14-6.51-6.31-10.21-3.73-11.85-7.1-23.83-10-35.91-2.69-11.22-5.68-22.22-12.14-31.97-.64-.96-1.17-2.04-1.54-3.13-1.15-3.35-.59-5.65 3.66-5.41 5.97.35 12.01 1.48 17.89.9 17.83-1.77 35.72-3.46 53.34-6.58 20.86-3.69 41.39-9.21 62.22-13.08 5.57-1.03 12.2-.1 17.5 2.02 7.89 3.16 15.35 7.73 22.38 12.59 4.37 3.02 3.69 5.86-.8 8.95-7.13 4.91-10.05 12.6-13.4 20.01-5.25 11.63-10.17 23.43-15.83 34.85-2.24 4.52-5.8 8.53-9.33 12.23-3.78 3.95-7.51 2.97-8.71-2.39-1-4.49-2.8-5.41-7.17-4.73-27.72 4.29-55.48 8.28-83.2 12.53-1.37.21-2.75 1.82-3.67 3.11-1.27 1.79-2.11 3.88-3.14 5.84-.58.14-1.17.26-1.75.38zm-4.3-73.22c3.06 18.45 6.03 36.35 9.07 54.67 14.71-2.86 29.32-5.84 43.99-8.52 16.3-2.98 32.56-6.84 49.36-3.83.95.17 2.92-1.08 3.17-2.01 3.55-13.28 7.87-26.47 10-39.99 2.34-14.89-2.6-18.77-17.74-16.32-32.43 5.26-64.85 10.6-97.85 16z"/><path d="m172.12 172.06c.05 6.19-2.88 8.6-8.4 7.39-9.84-2.15-15.65-9.59-21.33-16.96-2.19-2.85-3.73-6.28-5.12-9.63-.94-2.28-.87-4.56 2.69-4.97 12.19-1.4 28.64 9.47 31.57 21.04.33 1.28.49 2.6.59 3.13z"/><path d="m160.26 91.14c6.03-1.39 12.04-2.85 18.09-4.16 13.76-2.96 27.51-5.95 41.31-8.72 7.8-1.56 14.95.34 22.98 5.56-4.47 2.15-7.63 4.45-11.12 5.21-14.87 3.27-29.76 6.54-44.8 8.86-6.52 1.01-13.43.05-20.08-.73-2.36-.27-4.47-2.64-6.69-4.05.11-.64.21-1.3.31-1.97z"/></g><path d="m5.17 384 .55-.58c.85.61 1.65 1.24 2.4 1.87l-.59.64c-.83-.73-1.62-1.38-2.36-1.93m1.22 9.53-.82-.34c.71-1.76 1.37-3.64 1.98-5.63.24.13.5.25.76.36-.6 1.67-1.24 3.54-1.92 5.61m-.5-13.5.57-.54c.56.44 1.31 1.06 2.26 1.87l-.64.64c-.68-.66-1.41-1.32-2.19-1.97m3.25.46h2.24v-1.36h.77v1.36h4.57v-1.36h.76v1.36h2.28v.69h-2.28v1.84h-2.64v1.26h4.18v2.64h-4.21c0 .45-.02.86-.05 1.21h4.32v.69h-4.38c-.04.34-.1.75-.19 1.22h5.15v.69h-4.82c.87 1.19 2.51 1.92 4.93 2.19-.17.32-.3.57-.37.76-2.77-.49-4.52-1.41-5.26-2.76-.56 1.26-2.3 2.23-5.24 2.9-.12-.24-.26-.48-.43-.72 2.73-.55 4.38-1.34 4.96-2.38h-4.38v-.69h4.65c.1-.38.17-.79.21-1.22h-4.32v-.69h4.4c.03-.34.05-.75.05-1.21h-4.2v-2.64h4.23v-1.26h-2.69v-1.84h-2.24zm1.46 4.46v1.29h3.45c.01-.4.02-.57.01-.53v-.32-.45h-3.46zm1.55-2.59h4.57v-1.19h-4.57zm6.11 2.59h-3.42v.77c-.01.19-.01.37-.02.53h3.44z" fill="#fafafc"/><path d="m32.63 379.16h.82v1.98h3.54v7.89h1.46v.78h-14.37v-.78h1.46v-7.89h3.54v-1.98h.82v1.98h2.73zm-3.49 11.48.5.73c-1.61.82-3.28 1.63-5 2.41-.13-.27-.28-.55-.44-.82 1.75-.72 3.4-1.49 4.94-2.32m-2.78-5.55h2.73v-3.18h-2.73zm0 3.95h2.73v-3.2h-2.73zm3.54-3.95h2.73v-3.18h-2.73zm0 3.95h2.73v-3.2h-2.73zm7.89 4.68c-1.84-.92-3.51-1.7-5.02-2.32l.45-.73c1.89.8 3.57 1.55 5.04 2.23zm-1.62-11.81h-2.73v3.18h2.73zm-2.73 7.13h2.73v-3.2h-2.73z" fill="#fafafc"/></svg>