<svg enable-background="new 0 0 400 400" viewBox="0 0 400 400" xmlns="http://www.w3.org/2000/svg"><g fill="#010106"><path d="m159.65 227.1c15.89-10.47 29.76-22.82 40.52-38.44 10.69-15.54 18.84-32.32 25.99-51.2-7.05 1.77-13.02 3-18.82 4.78-6.74 2.06-16.04-1.15-19.69-7.21-2-3.32.02-4 2.75-4.38 11.01-1.54 22-3.26 33.04-4.62 3.03-.37 4.3-1.36 4.7-4.46 1.14-8.82 2.63-17.6 4.09-27.06-5.8.46-10.74.63-15.61 1.3-6.5.9-12.21-.73-17.26-4.72-1.06-.84-1.6-2.33-2.39-3.51 1.37-.82 2.66-2.13 4.12-2.38 7.2-1.23 14.44-2.23 21.67-3.22 10.81-1.48 11.06-1.46 10.76-12.25-.3-10.77-.4-21.6-5.2-31.73-2.09-4.41.14-7.22 4.86-5.82 7.11 2.1 14.01 5.02 20.85 7.92 2.65 1.12 3.39 3.09 2.39 6.5-2.75 9.3-4.7 18.83-7.25 29.41 10.4-1.69 19.28-3.71 28.26-4.38 5.05-.38 10.5.76 15.33 2.46 4.64 1.64 4.67 5.37.08 7.28-5.93 2.47-12.23 4.19-18.51 5.63-7.42 1.7-15.01 2.66-22.48 4.18-1.29.26-3.2 1.58-3.36 2.64-1.5 9.8-2.68 19.65-4.05 30.14 10.93-1.89 21.27-3.93 31.7-5.43 10.48-1.5 21.06-3.45 31.57-3.26 5.85.1 11.69 4.04 17.41 6.52 1.3.56 2.1 2.28 4.06 4.55-4.76 1.09-8.34 2.31-12 2.69-23.96 2.52-47.94 4.86-71.92 7.28-.46.05-.89.36-1.99.82 2.54 2.85 4.72 5.67 7.27 8.12 14.06 13.47 27.96 27.11 42.4 40.17 15.01 13.58 33.62 20.43 52.6 26.37 5.07 1.59 10.07 3.41 15.02 5.34 2.19.86 4.17 2.26 6.24 3.42-.06.61-.12 1.21-.18 1.82-4.24.88-8.44 2.23-12.72 2.54-12.94.94-25.9 1.62-38.86 2.14-10.65.43-19.23-3.31-25.77-12.26-14.62-20.03-29.66-39.75-44.54-59.59-.86-1.15-1.84-2.22-3.29-3.96-11.11 30-26.92 55.37-56.52 69.3-7.9 3.68-16.02 6.58-25.27 6.56z"/><path d="m142.7 339.78c-1.78 4.61-3.33 9.69-5.66 14.4-2.81 5.67-6.12 5.69-9.26.31-4.05-6.94-5.51-14.3-4.29-22.46 3.99-26.74 5.41-53.57.37-80.35-.72-3.82-2.79-7.38-4.25-11.06-.77-1.93-1.55-3.85-2.66-6.59 2.55 0 4.26-.43 5.64.07 15.61 5.57 31.49 3.81 47.3 1.62 16.75-2.32 33.43-5.17 50.13-7.86 1.95-.31 4-.74 5.73-1.63 5.63-2.88 11.41-2.68 16.83-.22 7.51 3.41 15.04 7 21.92 11.51 5.53 3.63 4.89 6.66 2.55 12.86-2.42 6.42-4.4 13.35-4.77 20.15-.94 17.27-.76 34.59-1.25 51.89-.4 14.03-4.02 27.21-11.54 39.19-.26.42-.41.99-.79 1.26-2.58 1.83-5.24 4.99-7.82 4.94-1.95-.04-4.24-3.97-5.64-6.57-2.27-4.22-3.7-8.88-5.91-13.14-4.91-9.5-13.18-14-23.59-13.87-8.95.11-17.89 1.06-26.82 1.88-12.04 1.09-24.08 2.43-36.22 3.67zm-.52-57.22c1.84 0 3.02.18 4.13-.03 12.71-2.34 25.43-4.62 38.11-7.15 6.79-1.36 13.56-2.12 20.05.7 3.27 1.42 6.12 3.83 9.63 6.11-5.21 5.15-10.69 5.35-15.85 5.84-15.54 1.47-31.13 2.51-46.67 3.95-9.41.87-9.4 1.06-9.4 10.84v25.07c2.89 0 5.06.19 7.18-.03 17.67-1.79 35.31-3.9 53-5.38 8.77-.74 17.23.51 23.19 8.46 1.12 1.49 3.71 3.02 5.27 2.72 1.54-.29 2.84-2.77 3.86-4.52.72-1.24.91-2.84 1.13-4.31 3.55-23.29 4.18-46.68 1.98-70.12-1.01-10.79-4.83-14.45-15.08-14.61-26.23-.42-51.85 5.1-77.69 8.38-1.06.13-2.69 2.06-2.71 3.18-.21 10.12-.13 20.26-.13 30.9z"/><path d="m121.02 152.64c-11.42 2.46-21.93 4.71-32.42 6.99-10.7 2.33-21.38 4.75-32.09 7.02-6.89 1.46-21.61-6.19-24.03-12.56-.3-.78.7-2.4 1.54-3.15.59-.53 1.92-.39 2.9-.3 19.83 1.81 39.02-2.64 58.29-6.12 9.43-1.7 18.77-3.93 28.6-6.01 1.46-10.69 2.91-21.28 4.41-32.27-8.08 1.23-15.41 2.32-22.73 3.47-9.88 1.55-20.69-3.86-24.79-13.14 2.25-.57 4.34-1.4 6.48-1.61 13.36-1.25 26.73-2.37 41.42-3.64 0-5.69.25-10.59-.05-15.46-.69-11.28-1.32-22.6-7.73-32.57-.79-1.24-1.24-3.57-.59-4.59.56-.89 3.1-1.22 4.45-.79 7.73 2.42 15.44 4.93 23 7.83 3.69 1.42 4.45 4.21 3.55 8.49-2.23 10.65-3.57 21.49-5.47 33.58 6.87-1.32 12.23-2 17.38-3.42 8.09-2.23 14.35.37 19.6 6.37 2.8 3.2 2.25 4.85-1.96 5.54-10.15 1.66-20.33 3.11-30.45 4.89-1.43.25-3.62 1.67-3.79 2.79-1.54 10.29-2.7 20.63-4.04 31.49 7.73-.99 14.91-2.01 22.11-2.8 5.22-.57 10.01.57 13.43 4.93 2.97 3.78 2.12 5.85-2.7 6.64-10.15 1.66-20.3 3.34-30.49 4.73-2.96.4-4.19 1.67-5.13 4.39-2.12 6.11-4.69 12.07-7.22 18.45 3.93 1.68 8.24 3.03 12.02 5.26 6.41 3.76 13.02 7.48 18.59 12.32 6.7 5.83 6.48 15.71.72 22.54-2.06 2.44-4.55 3.16-6.9.97-2.64-2.46-4.92-5.34-7.13-8.21-5.79-7.5-11.43-15.11-17.19-22.63-.78-1.02-1.88-1.8-2.93-2.79-16.42 33.85-39.9 59.16-78.23 67.32 16.45-11.21 31.23-24.14 43.34-40 12.18-15.97 19.96-34 26.23-53.95z"/></g><path d="m5.17 384 .55-.58c.85.61 1.65 1.24 2.4 1.87l-.59.64c-.83-.73-1.62-1.38-2.36-1.93m1.22 9.53-.82-.34c.71-1.76 1.37-3.64 1.98-5.63.24.13.5.25.76.36-.6 1.67-1.24 3.54-1.92 5.61m-.5-13.5.57-.54c.56.44 1.31 1.06 2.26 1.87l-.64.64c-.68-.66-1.41-1.32-2.19-1.97m3.25.46h2.24v-1.36h.77v1.36h4.57v-1.36h.76v1.36h2.28v.69h-2.28v1.84h-2.64v1.26h4.18v2.64h-4.21c0 .45-.02.86-.05 1.21h4.32v.69h-4.38c-.04.34-.1.75-.19 1.22h5.15v.69h-4.82c.87 1.19 2.51 1.92 4.93 2.19-.17.32-.3.57-.37.76-2.77-.49-4.52-1.41-5.26-2.76-.56 1.26-2.3 2.23-5.24 2.9-.12-.24-.26-.48-.43-.72 2.73-.55 4.38-1.34 4.96-2.38h-4.38v-.69h4.65c.1-.38.17-.79.21-1.22h-4.32v-.69h4.4c.03-.34.05-.75.05-1.21h-4.2v-2.64h4.23v-1.26h-2.69v-1.84h-2.24zm1.46 4.46v1.29h3.45c.01-.4.02-.57.01-.53v-.32-.45h-3.46zm1.55-2.59h4.57v-1.19h-4.57zm6.11 2.59h-3.42v.77c-.01.19-.01.37-.02.53h3.44z" fill="#fafafc"/><path d="m32.63 379.16h.82v1.98h3.54v7.89h1.46v.78h-14.37v-.78h1.46v-7.89h3.54v-1.98h.82v1.98h2.73zm-3.49 11.48.5.73c-1.61.82-3.28 1.63-5 2.41-.13-.27-.28-.55-.44-.82 1.75-.72 3.4-1.49 4.94-2.32m-2.78-5.55h2.73v-3.18h-2.73zm0 3.95h2.73v-3.2h-2.73zm3.54-3.95h2.73v-3.18h-2.73zm0 3.95h2.73v-3.2h-2.73zm7.89 4.68c-1.84-.92-3.51-1.7-5.02-2.32l.45-.73c1.89.8 3.57 1.55 5.04 2.23zm-1.62-11.81h-2.73v3.18h2.73zm-2.73 7.13h2.73v-3.2h-2.73z" fill="#fafafc"/></svg>