<svg enable-background="new 0 0 400 400" viewBox="0 0 400 400" xmlns="http://www.w3.org/2000/svg"><g fill="#fbfafa"><path d="m37.59 393.81c-.92.31-1.52.05-2-.78-.7-1.2-1.52-2.34-2.47-3.78v4.59c-.55.03-.95.05-1.41.07-.03-.37-.06-.64-.06-.91 0-1.91 0-3.81 0-5.7 1.13-.41 1.77-.03 2.29.91.62 1.11 1.38 2.14 2.31 3.19v-4.2h1.35v6.61z"/><path d="m12.94 393.88v-6.75c1.9.19 3.93-.54 5.37 1.29.8 1.01.78 2.88.03 3.97-1.37 1.97-3.4 1.51-5.4 1.49m1.45-1.22c2.04.12 2.92-.58 2.89-2.21-.03-1.51-.98-2.19-2.89-2z"/><path d="m11.81 393.87h-5.49c.68-2.18 2.47-3.48 3.51-5.45h-3.08v-1.21h5.29c-.71 2.13-2.44 3.48-3.47 5.51.86 0 1.63.04 2.39-.01.79-.05 1.14.21.85 1.16"/><path d="m39.33 393.86v-6.61h3.7v1.07h-2.22v1.52c.68.04 1.34.09 2.07.13v1.07c-.72.05-1.38.09-2.1.14v1.48h2.4v1.19h-3.85z"/><path d="m27.71 388.56c-1.15-.3-2.46-.61-3.1.64-.37.73-.41 1.93-.06 2.67.63 1.35 1.99.93 3.17.68.35.94-.01 1.32-.93 1.46-1.62.25-3.05-.27-3.76-1.48-.73-1.25-.6-3.03.31-4.17.88-1.11 2.71-1.7 4-1.16.32.13.44.74.65 1.12-.1.08-.19.16-.28.24"/><path d="m49.15 387.24v1.07c-.59.02-1.17.05-1.87.08v5.44h-1.48v-5.44h-1.85c-.05-.4-.08-.73-.13-1.15z"/><path d="m20.06 387.21h1.33v6.62h-1.33z"/><path d="m30.68 393.25c-.49.38-.8.79-1.05.76-.32-.05-.6-.45-.9-.7.26-.24.51-.64.8-.67.29-.04.62.3 1.15.61"/></g><path d="m48.68 331.67c4.39-3.13 8.74-6.31 13.17-9.39 38.98-27.14 68.55-62.29 89.18-104.99 5.99-12.4 12.03-24.82 17.14-37.59 4.51-11.27 2.41-13.5-9.6-12.7-6.58.44-13.76 2.65-19.58.75-7.32-2.39-9.48 1.29-12.89 5.6-12.47 15.72-25.85 30.53-43.98 40.04-2.39 1.25-4.97 2.15-7.46 3.21-.33-.46-.67-.93-1-1.39 2.85-3.34 5.58-6.8 8.57-10.01 20.16-21.69 36.48-45.81 46.12-73.98 2.32-6.79 3.07-14.12 4.73-22.09-7.1.59-12.8 1.05-18.5 1.55-9.04.79-17.96.44-26.35-3.43-1.66-.77-2.86-2.53-4.27-3.84 1.61-1.22 3.06-3.13 4.85-3.55 14.21-3.31 28.54-6.13 42.73-9.51 17.11-4.07 34.09-8.7 51.19-12.78 7.58-1.81 15.32-1.68 22.33 2.22 2.18 1.21 4.73 3.74 4.94 5.88.17 1.71-2.62 4.77-4.69 5.45-9.11 3.02-18.37 5.6-27.68 7.94-10.07 2.54-20.26 4.64-30.66 6.99 3.33 3.73 6.38 6.96 9.21 10.37 2.4 2.9 2.07 5.34-.26 8.79-7.12 10.53-13.48 21.57-19.61 32.96 11.6.77 22.51.2 32.41-4.94 8.66-4.5 16.15-3.88 23.18 2.82 3.24 3.1 6.62 6.07 9.66 9.35 2.39 2.58 2.45 5.82-.41 7.92-7.86 5.78-11.94 14.19-16.1 22.48-15.8 31.52-34.41 61.15-57.42 87.97-20.22 23.58-44.48 40.83-74.85 48.77-1.08.28-2.23.34-3.34.51-.26-.46-.51-.92-.76-1.38z" fill="#000001"/><path d="m240 177.47c29.74-3.41 57.47-9.48 85.74-14.13-7.35-13.32-17.84-24.14-23.02-39.49 3.38.34 5.53.18 7.43.8 18.38 6.01 33.57 16.83 45.66 31.75 7.55 9.32 8.81 20.22 5.02 31.55-2.34 7-7.13 8.38-12.4 3.2-5.2-5.11-9.85-10.8-14.42-16.5-1.87-2.32-3.3-2.81-6.23-1.92-29.39 8.89-58.88 17.4-88.23 26.42-7.24 2.23-14.11 5.75-21.02 8.97-5.65 2.63-9.29 1.74-11.36-4.13-1.41-4-2.02-8.35-2.51-12.61-.53-4.66 1.47-8.45 5.38-11.09 31-20.83 46.82-52.39 60.07-85.61 4.08-10.23 6.09-20.99 3.98-32.25-.52-2.75.99-5.88 1.57-8.84 2.86.9 6.22 1.13 8.47 2.84 6.74 5.11 13.49 10.36 19.39 16.38 5.78 5.9 4.94 10.13-1.19 15.52-11.42 10.03-18.91 23.09-27.24 35.52-10.55 15.74-21.36 31.3-32 46.98-1 1.52-1.57 3.37-3.09 6.64z" fill="#000001"/><path d="m235.52 337.13c-1.52-5.14-3.24-10.23-4.52-15.43-3.83-15.61-7.04-31.39-11.39-46.86-2.26-8.06-6.47-15.56-9.64-23.38-.89-2.2-1.23-4.62-1.82-6.94 2.31-.26 4.77-1.17 6.91-.67 22.21 5.17 43.91 1.25 65.51-3.56 10.83-2.41 21.81-4.71 32.15-8.6 6.85-2.58 13-4.31 20.04-1.8 9.84 3.51 19.07 8.04 25.86 16.23 3.15 3.8 2.15 9.14-2.72 13.84-9.91 9.57-16.24 21.38-22.3 33.47-1.85 3.69-1.99 6.19 1.72 8.78 2.4 1.67 4.34 4.15 6.08 6.56 2.97 4.1 1.92 6.66-3.06 7.88-1.75.43-3.62.37-5.44.52-26.99 2.22-53.96 4.66-80.97 6.5-5.99.41-9.45 2.24-11.12 8.02-.59 2.04-2.49 3.7-3.79 5.53-.5-.02-1-.06-1.5-.09zm6.9-24.36c1.7 0 3.03.2 4.29-.03 22.02-3.94 44.03-7.88 66.01-12.02 1.25-.24 2.99-2.13 3.12-3.39 1.17-11.55 2.39-23.11 2.89-34.7.5-11.57-3.08-14.55-14.55-13.45-.66.06-1.32.15-1.98.25-13.12 1.9-26.25 3.76-39.36 5.72-8.14 1.22-16.26 2.62-24.82 4 1.49 18.17 2.93 35.79 4.4 53.62z" fill="#000001"/><path d="m130.39 242.03c-1.59 3.28-2.45 8.45-5.4 10.31-4.05 2.55-8.55-1.36-10.95-4.63-7.11-9.68-13.73-19.75-20.08-29.96-2.12-3.4-.15-6.2 3.67-5.65 12.31 1.77 22.93 6.83 29.45 17.95 1.83 3.12 2.05 7.19 3.31 11.98z" fill="#000001"/></svg>