<svg enable-background="new 0 0 400 400" viewBox="0 0 400 400" xmlns="http://www.w3.org/2000/svg"><g fill="#fbfafa"><path d="m37.59 393.81c-.92.31-1.52.05-2-.78-.7-1.2-1.52-2.34-2.47-3.78v4.59c-.55.03-.95.05-1.41.07-.03-.37-.06-.64-.06-.91 0-1.91 0-3.81 0-5.7 1.13-.41 1.77-.03 2.29.91.62 1.11 1.38 2.14 2.31 3.19v-4.2h1.35v6.61z"/><path d="m12.94 393.88v-6.75c1.9.19 3.93-.54 5.37 1.29.8 1.01.78 2.88.03 3.97-1.37 1.97-3.4 1.51-5.4 1.49m1.45-1.22c2.04.12 2.92-.58 2.89-2.21-.03-1.51-.98-2.19-2.89-2z"/><path d="m11.81 393.87h-5.49c.68-2.18 2.47-3.48 3.51-5.45h-3.08v-1.21h5.29c-.71 2.13-2.44 3.48-3.47 5.51.86 0 1.63.04 2.39-.01.79-.05 1.14.21.85 1.16"/><path d="m39.33 393.86v-6.61h3.7v1.07h-2.22v1.52c.68.04 1.34.09 2.07.13v1.07c-.72.05-1.38.09-2.1.14v1.48h2.4v1.19h-3.85z"/><path d="m27.71 388.56c-1.15-.3-2.46-.61-3.1.64-.37.73-.41 1.93-.06 2.67.63 1.35 1.99.93 3.17.68.35.94-.01 1.32-.93 1.46-1.62.25-3.05-.27-3.76-1.48-.73-1.25-.6-3.03.31-4.17.88-1.11 2.71-1.7 4-1.16.32.13.44.74.65 1.12-.1.08-.19.16-.28.24"/><path d="m49.15 387.24v1.07c-.59.02-1.17.05-1.87.08v5.44h-1.48v-5.44h-1.85c-.05-.4-.08-.73-.13-1.15z"/><path d="m20.06 387.21h1.33v6.62h-1.33z"/><path d="m30.68 393.25c-.49.38-.8.79-1.05.76-.32-.05-.6-.45-.9-.7.26-.24.51-.64.8-.67.29-.04.62.3 1.15.61"/></g><path d="m188.67 171.4c-.98 3.64-1.53 6.96-2.83 9.95-.68 1.58-2.68 2.58-4.09 3.85-1.06-1.39-2.68-2.63-3.09-4.19-2.09-8.02-3.82-16.13-5.75-24.2-4.28-17.88-8.12-35.89-13.15-53.56-2.04-7.15-6.76-13.53-10.18-20.3-.93-1.85-1.57-3.85-2.34-5.78 2.08-.75 4.13-2.04 6.24-2.12 3.62-.15 7.34.1 10.89.82 13.22 2.66 26.18.35 39.03-2.12 14.79-2.85 29.46-6.39 44.1-9.96 3.97-.97 7.54-3.5 11.48-4.65 3.49-1.02 7.58-2.32 10.84-1.43 10.97 2.96 20.03 9.52 28.02 17.47 3.24 3.22 4.44 7.39 1.36 11.22-14.74 18.32-21.68 40.59-31.43 61.43-2.39 5.11-4.51 10.37-7.24 15.3-3.79 6.84-7.7 7.17-13.55 2.24-1.62-1.37-4.46-2.27-6.54-1.97-17.22 2.47-34.41 5.27-51.77 8zm-5.12-44.67c.94 11.58 1.87 23.07 2.85 35.02 5.51-1.37 10.6-2.68 15.7-3.9 15.29-3.65 30.43-8.38 46.52-6.47.91.11 2.66-1.73 3.02-2.96 1.52-5.25 2.79-10.58 3.93-15.93 2.74-12.97 5.52-25.93 7.98-38.96 2.62-13.88-2.7-19-16.61-16.8-14.41 2.28-28.88 4.19-43.31 6.37-8.13 1.23-16.22 2.69-24.63 4.09 1.07 10.59 2.08 20.57 3.18 31.48 12.5-4.03 24.19-7.64 35.77-11.58 8.15-2.77 16.69-.79 21.52 6.21-16.73 12.11-36.54 11-55.92 13.43z" fill="#000001"/><path d="m344.31 258.95c.91 8.04 1.74 16.09 2.76 24.12 1.24 9.77 3.21 19.27 9.01 27.64 3.27 4.72 2.78 9.24-2.47 12.46-6.25 3.83-13.14 7.34-20.22 8.97-22.22 5.1-44.8 6.01-67.34 2.03-23.25-4.11-34.46-17.37-35.05-41.38-.62-24.97-.66-49.94-1.25-74.91-.18-7.45-.8-14.99-2.24-22.28-.94-4.73-3.63-9.15-5.76-13.6-1.95-4.08-.8-6.44 3.59-5.91 9.33 1.12 18.29 3.63 26.09 9.14 4.05 2.86 5.14 6.71 2.41 10.3-5.94 7.81-7.07 17.07-8.64 26.21-.95 5.51-1.37 11.11-2.14 17.61 2.71-1.32 4.73-2.04 6.48-3.18 12.29-8.09 23.73-17.2 33.11-28.64 3.64-4.44 6.13-9.36 6.33-15.36.16-4.82 2.92-7.25 7.57-6.14 10.5 2.5 19.96 7.31 27.94 14.71 2.89 2.68 2.03 4.9-1.29 6.57-25.26 12.64-50.48 25.37-75.8 37.88-3.34 1.65-4.62 3.57-4.36 7.26.83 12.26.99 24.58 2.18 36.8 1.16 11.95 8.51 19.29 19.92 22.15 15.81 3.96 31.83 4.97 47.91 1.57 12.56-2.65 20.85-10.05 23.71-22.74 2-8.89 3.45-17.9 5.17-26.85.28-1.43.7-2.83 1.05-4.24.43-.07.88-.13 1.33-.19z" fill="#000001"/><path d="m172.95 230.7c7.7-2.48 15.45-4.8 23.08-7.49 6.75-2.38 13.02-2.62 18.62 2.56 3.51 3.25 3.43 6.41-1.07 8-6.67 2.36-13.65 4.26-20.65 5.16-6.66.86-13.52.18-21.03.18-.51 5-1.2 10.02-1.49 15.07-.58 9.79-1.14 19.59-1.31 29.4-.12 7.16 3.42 9.25 10.01 6.18 10.99-5.12 21.89-10.44 32.86-15.61 2.12-1 4.39-1.68 6.58-2.52.29.46.57.91.86 1.37-3.89 3.52-7.71 7.12-11.68 10.55-13.09 11.32-26.32 22.46-39.28 33.92-3.58 3.17-6.54 7.08-9.53 10.85-4.67 5.88-8.48 5.86-12.13-.76-4.96-9-6.53-17.53-.32-27.51 3.98-6.38 5.42-15.03 5.88-22.78 1.12-19.22 2.22-38.61-2.51-57.58-1.26-5.05-4.1-9.69-5.96-14.62-.84-2.21-1.04-4.66-1.53-7.01 2.19-.38 4.61-1.56 6.54-1.01 7.62 2.15 15.22 4.52 22.57 7.45 3.9 1.55 5.25 4.87 3.71 9.44-1.66 4.95-2.42 10.2-3.57 15.32.45.49.9.96 1.35 1.44z" fill="#000001"/><path d="m120.39 204.6c-1.01 3.26-1.89 6.57-3.06 9.77-8.46 23.21-17.41 46.25-25.28 69.65-3.94 11.72-5.94 24.09-8.81 36.16-.08.32 0 .71-.15.98-1.67 2.88-3.37 5.75-5.06 8.62-2.71-1.65-6.42-2.66-7.96-5.06-5.24-8.17-10.3-16.57-14.29-25.4-2.76-6.1-.51-8.11 4.7-12.32 6.25-5.05 12.66-10.53 17.03-17.14 12.19-18.41 23.33-37.51 34.96-56.29 2.05-3.31 4.42-6.42 6.64-9.62.43.23.86.44 1.28.65z" fill="#000001"/><path d="m87.88 69.6c7.91 2.8 16.22 4.82 23.65 8.58 13.5 6.83 12.83 21.34 8.48 32.13-1.43 3.53-4.47 4.95-8.18 2.89-2.31-1.28-4.98-2.44-6.58-4.39-7.9-9.61-15.82-19.24-23.07-29.33-3.86-5.37-1.53-8.57 5.24-8.54.15-.45.31-.89.46-1.34z" fill="#000001"/><path d="m85.16 177.11c-.33 1.91-.65 5.23-1.49 8.41-1.87 7.06-5.89 8.79-11.59 4.29-4.9-3.86-9.39-8.46-13.26-13.36-5.01-6.35-9.6-13.12-13.66-20.12-2.83-4.88-.77-7.81 4.89-7.31 9.85.88 19.26 3.55 27.27 9.68 5.51 4.22 7.68 10.19 7.84 18.41z" fill="#000001"/></svg>