<svg enable-background="new 0 0 400 400" viewBox="0 0 400 400" xmlns="http://www.w3.org/2000/svg"><g fill="#fbfafa"><path d="m37.59 393.81c-.92.31-1.52.05-2-.78-.7-1.2-1.52-2.34-2.47-3.78v4.59c-.55.03-.95.05-1.41.07-.03-.37-.06-.64-.06-.91 0-1.91 0-3.81 0-5.7 1.13-.41 1.77-.03 2.29.91.62 1.11 1.38 2.14 2.31 3.19v-4.2h1.35v6.61z"/><path d="m12.94 393.88v-6.75c1.9.19 3.93-.54 5.37 1.29.8 1.01.78 2.88.03 3.97-1.37 1.97-3.4 1.51-5.4 1.49m1.45-1.22c2.04.12 2.92-.58 2.89-2.21-.03-1.51-.98-2.19-2.89-2z"/><path d="m11.81 393.87h-5.49c.68-2.18 2.47-3.48 3.51-5.45h-3.08v-1.21h5.29c-.71 2.13-2.44 3.48-3.47 5.51.86 0 1.63.04 2.39-.01.79-.05 1.14.21.85 1.16"/><path d="m39.33 393.86v-6.61h3.7v1.07h-2.22v1.52c.68.04 1.34.09 2.07.13v1.07c-.72.05-1.38.09-2.1.14v1.48h2.4v1.19h-3.85z"/><path d="m27.71 388.56c-1.15-.3-2.46-.61-3.1.64-.37.73-.41 1.93-.06 2.67.63 1.35 1.99.93 3.17.68.35.94-.01 1.32-.93 1.46-1.62.25-3.05-.27-3.76-1.48-.73-1.25-.6-3.03.31-4.17.88-1.11 2.71-1.7 4-1.16.32.13.44.74.65 1.12-.1.08-.19.16-.28.24"/><path d="m49.15 387.24v1.07c-.59.02-1.17.05-1.87.08v5.44h-1.48v-5.44h-1.85c-.05-.4-.08-.73-.13-1.15z"/><path d="m20.06 387.21h1.33v6.62h-1.33z"/><path d="m30.68 393.25c-.49.38-.8.79-1.05.76-.32-.05-.6-.45-.9-.7.26-.24.51-.64.8-.67.29-.04.62.3 1.15.61"/></g><path d="m233.64 318.59c0-10.08 0-19.01 0-28.18-16.1-2.05-33.8 4.87-49.57-8.38 17.44-3.26 33.47-6.25 50.34-9.4-.73-10.45-1.43-20.44-2.18-31.1-13.54 2.4-25.47 5.51-36.78 10.88-3.28 1.56-6.42 5.6-10.36 2.76-4.39-3.17-3.8-8.63-3.73-13.31.08-5.94 3.42-9.3 8.82-12.53 7.54-4.51 14.56-10.55 20.3-17.22 6.84-7.96 12.08-17.29 18.68-27-14.2.64-27.26 4.86-39.28-6.15 2.79-1.29 4.62-2.49 6.64-3.01 29.39-7.58 58.8-15.09 88.22-22.57 6.98-1.78 13.61-.62 19.51 3.44 2.03 1.4 3.38 3.77 5.04 5.69-1.96 1.59-3.69 3.97-5.92 4.62-10.03 2.92-20.16 5.5-30.33 7.89-8.5 2-17.1 3.56-26.03 5.39.55.96.82 1.54 1.19 2.04 5.08 6.76 6.21 10.34-2.97 16.64-9.76 6.7-17.8 15.92-26.5 24.14-.94.89-1.27 2.43-2.51 4.94 22.04-1.09 41.74-7.89 62.48-10.83-3.26-5.66-6.33-10.7-9.07-15.91-.86-1.63-.86-3.71-1.25-5.58 2.05-.17 4.26-.93 6.11-.4 9.64 2.8 18.9 6.54 26.48 13.42 7.31 6.63 10.07 17.79 6.61 25.95-2.38 5.61-5.61 6.61-10.44 2.98-2.92-2.2-5.89-4.45-8.32-7.15-2.66-2.96-5.24-3.61-9.11-2.53-10.17 2.84-20.48 5.2-30.91 7.79 9.29 7.54 7.91 16.97 5.63 26.64-.37 1.55-.05 3.26-.05 5.33 9.07-1.8 17.98-3.38 26.8-5.39 5.52-1.25 10.32.09 14.45 3.43 2 1.61 4.2 4.37 4.18 6.59-.02 1.54-3.48 3.76-5.76 4.41-7.17 2.05-14.48 3.62-21.79 5.16-5.84 1.23-11.74 2.14-18.18 3.3-.52 9.94-1.03 19.84-1.6 30.63 4.39-.21 8.6-.38 12.81-.63 20.07-1.16 40.13-2.84 60.22-3.33 10.71-.26 19.6 4.72 25.02 14.56 3.04 5.52 1.7 8.18-4.67 8.34-4.96.12-9.98-.27-14.9-.99-30.67-4.49-61.38-3.17-92.1-.98-27.72 1.97-55.03 6.56-82.06 12.89-.8.19-1.65.2-2.48.19-7.1-.04-22.39-9.27-26.61-16.59 2.57-.55 4.84-1.27 7.15-1.49 32.86-3.17 65.73-6.27 98.78-9.39z" fill="#000001"/><path d="m63.67 354.07c1.78-1.91 3.44-3.96 5.37-5.71 24.22-21.98 42.53-48.35 57.74-77.1 24.42-46.14 39.09-95.44 46.74-146.83 2.19-14.68 1.9-29.75 2.29-44.66.09-3.5-1.83-7.02-2.49-10.59-.27-1.48-.13-3.45.69-4.56.48-.64 2.76-.33 4.07.09 3.16 1.02 6.41 1.99 9.26 3.63 7.13 4.09 14.6 4.27 22.21 2.37 13.67-3.41 27.36-6.79 40.87-10.78 5.15-1.52 10-4.39 14.64-7.23 4.89-2.99 9.99-3.33 14.73-1.1 7.45 3.51 14.85 7.39 21.58 12.09 5.89 4.12 5.41 9.09-.82 12.62-13.41 7.59-19.27 20.67-25.21 33.71-.53 1.16.35 3.44 1.27 4.69 6.71 9.19 6.64 10.09-4.63 11.81-16.74 2.55-33.59 4.44-50.4 6.53-9.07 1.13-18.14 2.25-27.23 3.06-3.64.32-3.51 2.95-4.13 5.21-5.03 18.38-9.43 36.96-15.13 55.13-9.1 29-19.24 57.68-34.2 84.3-12.71 22.63-27.14 44.04-48.99 59.03-8.55 5.87-17.82 10.69-26.76 15.99-.51-.56-.99-1.13-1.47-1.7zm133.43-271.36c-1.47 14.79-2.9 29.27-4.38 44.15 17.46-3.24 33.99-7.03 50.74-9.13 9.9-1.24 14.49-5.03 15.02-15.05.41-7.73 2.63-15.36 3.32-23.1.52-5.76-1.83-7.43-7.5-6.65-5.1.7-10.22 1.31-15.29 2.2-13.87 2.44-27.72 5-41.91 7.58z" fill="#000001"/><path d="m119.51 180.06c-.42 2.06-.55 4.23-1.3 6.16-9.15 23.7-18.26 47.41-27.65 71.02-5.66 14.25-10.08 28.77-12.66 43.92-.58 3.43-3.26 6.5-4.97 9.74-3.02-2-7.05-3.33-8.88-6.11-4.99-7.57-9.26-15.66-13.41-23.75-1.91-3.73-.69-6.26 3.5-8.7 4.74-2.75 9.31-6.82 12.28-11.4 13.21-20.36 25.81-41.11 38.65-61.7 4.17-6.7 8.41-13.35 12.62-20.03.61.28 1.21.57 1.82.85z" fill="#000001"/><path d="m90.37 155.66c-.08.83-.07 1.68-.25 2.48-1.31 5.95-2.9 12.35-9.24 14.37-5.72 1.82-10.45-2.39-13.43-6.67-7-10.04-13.48-20.47-19.69-31.03-2.38-4.04-.39-6.71 3.86-5.4 9.91 3.05 19.92 6.14 29.3 10.49 7.12 3.32 9.65 9.21 9.45 15.76z" fill="#000001"/><path d="m133.4 89.07c-.13.76-.17 2.65-.77 4.34-1.67 4.72-3.3 10.1-8.77 11.25-5.38 1.12-8.97-3.15-11.68-7.05-6.13-8.84-11.94-17.91-17.49-27.13-1.16-1.92-.61-4.86-.84-7.34 2.36-.22 4.87-1.07 7.06-.56 9.61 2.23 18.68 5.85 26.26 12.43 4.36 3.78 6.25 7.91 6.23 14.06z" fill="#000001"/></svg>