<svg enable-background="new 0 0 400 400" viewBox="0 0 400 400" xmlns="http://www.w3.org/2000/svg"><g fill="#fbfafa"><path d="m37.59 393.81c-.92.31-1.52.05-2-.78-.7-1.2-1.52-2.34-2.47-3.78v4.59c-.55.03-.95.05-1.41.07-.03-.37-.06-.64-.06-.91 0-1.91 0-3.81 0-5.7 1.13-.41 1.77-.03 2.29.91.62 1.11 1.38 2.14 2.31 3.19v-4.2h1.35v6.61z"/><path d="m12.94 393.88v-6.75c1.9.19 3.93-.54 5.37 1.29.8 1.01.78 2.88.03 3.97-1.37 1.97-3.4 1.51-5.4 1.49m1.45-1.22c2.04.12 2.92-.58 2.89-2.21-.03-1.51-.98-2.19-2.89-2z"/><path d="m11.81 393.87h-5.49c.68-2.18 2.47-3.48 3.51-5.45h-3.08v-1.21h5.29c-.71 2.13-2.44 3.48-3.47 5.51.86 0 1.63.04 2.39-.01.79-.05 1.14.21.85 1.16"/><path d="m39.33 393.86v-6.61h3.7v1.07h-2.22v1.52c.68.04 1.34.09 2.07.13v1.07c-.72.05-1.38.09-2.1.14v1.48h2.4v1.19h-3.85z"/><path d="m27.71 388.56c-1.15-.3-2.46-.61-3.1.64-.37.73-.41 1.93-.06 2.67.63 1.35 1.99.93 3.17.68.35.94-.01 1.32-.93 1.46-1.62.25-3.05-.27-3.76-1.48-.73-1.25-.6-3.03.31-4.17.88-1.11 2.71-1.7 4-1.16.32.13.44.74.65 1.12-.1.08-.19.16-.28.24"/><path d="m49.15 387.24v1.07c-.59.02-1.17.05-1.87.08v5.44h-1.48v-5.44h-1.85c-.05-.4-.08-.73-.13-1.15z"/><path d="m20.06 387.21h1.33v6.62h-1.33z"/><path d="m30.68 393.25c-.49.38-.8.79-1.05.76-.32-.05-.6-.45-.9-.7.26-.24.51-.64.8-.67.29-.04.62.3 1.15.61"/></g><path d="m209.02 168.75c-11.17 1.89-22.82 3.6-34.36 5.87-12.86 2.52-25.57 5.8-38.44 8.27-11.42 2.19-20.35-3.15-28.11-10.84-2.23-2.21-1.7-4.28 1.52-5.05 2.09-.5 4.26-.96 6.4-.96 22.57-.01 44.62-4.24 66.69-8.19 1.19-.21 3.05-1.75 3.07-2.7.21-11.28.14-22.57.14-34.52-15.09 2.28-29.87 5.1-43.11-8.09 5.73-.99 10.2-1.76 14.66-2.54 7.85-1.38 15.69-2.8 23.55-4.15 2.48-.43 3.93-1.47 3.57-4.28-1.29-10.2-2.14-20.48-3.95-30.59-.79-4.43-3.37-8.58-5.39-12.73-2.37-4.86-1.56-6.59 3.68-6.35 8.67.38 16.52 3.41 23.76 8.07 3.51 2.26 4 5.18 3.11 9.46-2.08 10-3.23 20.2-4.95 31.56 11.81-1.97 22.07-3.45 32.24-5.43 11.74-2.28 11.87-2.47 11.79-14.59-.07-10.3-.4-20.62-1.02-30.9-.17-2.85-1.81-5.61-2.73-8.42-.55-1.65-1.03-3.33-1.87-6.09 4.32.26 7.88-.09 11.1.79 6.53 1.8 13.04 3.88 19.24 6.58 4.98 2.18 5.69 5.57 3.8 10.24-1.8 4.45-3.65 8.94-4.8 13.58-1.75 7.05-2.92 14.24-4.41 21.77 8.81-1.73 16.99-3.44 25.21-4.91 6.06-1.08 11.49.76 16.29 4.45 4.8 3.7 4.6 7.05-1.1 8.95-8.33 2.78-16.92 4.78-25.42 7-4.17 1.09-8.36 2.31-12.62 2.78-3.4.37-4 2.26-4.28 4.91-1.21 11.55-2.44 23.09-3.75 35.46 6.56-.88 12.75-1.58 18.9-2.56 15.41-2.44 30.75-5.3 46.2-7.41 11.14-1.52 21.27 1.33 28.85 10.19 1.54 1.8 3.04 5.16 2.33 6.91-.73 1.81-4.07 3.37-6.41 3.6-7.6.73-15.28.65-22.91 1.15-24.39 1.58-48.78 3.13-73.14 4.99-12.57.96-25.09 2.56-37.46 3.86 7.39 2.4 14.87 4.38 21.97 7.3 5.96 2.45 6.18 5.65 4.14 11.7-2.24 6.63-3.33 13.66-4.91 20.51.49.41.98.82 1.46 1.23 11.56-2.69 23.13-5.32 34.66-8.12 2.88-.7 5.8-1.65 8.4-3.04 5.82-3.12 11.7-4.05 18.25-2.69 10.07 2.1 19.52 5.59 27.99 11.4 5.83 3.99 5.62 7 2.91 13.52-2.43 5.85-4.38 12.39-4.44 18.65-.21 21.47.33 42.95.93 64.42.5 17.65-3.18 34.01-13.42 48.6-1.7 2.43-3.69 4.77-5.93 6.69-3.89 3.32-7.65 2.85-9.85-1.76-6.07-12.77-16.31-21.2-27.92-28.45-2.41-1.5-4.43-3.62-6.64-5.45.19-.38.38-.77.57-1.15 5.35 0 10.7.06 16.05-.02 4.13-.06 8.33.1 12.37-.58 4.87-.83 7.11-5.01 8.21-9.21 1.76-6.71 3.33-13.56 4.02-20.44 1.92-19.25 1.97-38.53-.79-57.75-2.04-14.22-7.74-19.72-21.46-19.58-6.29.07-12.6.9-18.84 1.75-7.39 1.01-14.69 2.65-22.09 3.58-3.25.41-4.14 1.63-4.14 4.73 0 13.33-.14 26.66-.39 39.98-.12 6.11-.62 12.21-.97 18.89 8.28-1.36 15.91-2.51 23.47-3.98.88-.17 1.99-2.09 2.03-3.24.42-11.82.81-23.65-5.69-34.37-1.89-3.12-.93-5.31 2.99-4.99 8.9.74 17.39 3.05 24.66 8.41 1.37 1.01 2.55 4.45 1.87 5.75-4.71 9-4.83 18.89-6.31 28.54-1.28 8.35-2.87 16.66-4.48 24.96-.37 1.92-1.26 3.8-2.22 5.54-2.32 4.2-6.29 4.51-8.27.16-1.8-3.95-2.31-8.54-3.03-12.91-.4-2.42-.07-4.96-.07-8.2-5.96 1.94-11.6 3.61-17.12 5.62-11.07 4.01-22.27 7.74-33.02 12.51-6.27 2.78-12.06 6.94-17.51 11.19-6.5 5.07-9.96 4.62-13.39-2.89-2.6-5.72-2.73-11.22-.39-17.32 4.75-12.41 3.04-24.45-3.74-35.88-1.25-2.11-1.65-4.73-2.44-7.12 2.54-.45 5.07-1.18 7.63-1.26 2.11-.07 4.31.42 6.36 1.02 13.09 3.84 13.39 5.29 11.54 16.82-.79 4.91-1.22 9.9-1.37 14.87-.11 3.83 1.43 5.83 5.96 4.42 5.84-1.82 11.88-2.97 17.7-4.38 0-20.89 0-41.61 0-63.14-6.67 1.25-12.43 2.53-18.26 3.37-14.46 2.1-28.92 4.23-43.44 5.84-4.66.51-5.13 2.57-5.12 6.44.02 26.49.16 52.99-.45 79.48-.22 9.38-1.91 18.83-3.89 28.04-1.62 7.52-5.43 8.13-10.57 2.35-7.96-8.95-10.41-19.34-7.97-31.07 5.79-27.81 6.56-55.76 1.4-83.74-.79-4.28-3.51-8.17-5.06-12.35-.58-1.57-.95-3.76-.26-5.06.46-.87 2.97-1 4.52-.88 2.46.19 5.03.51 7.31 1.41 11.59 4.57 23.45 3.99 35.39 2.16 14.11-2.17 28.19-4.59 42.32-6.61 3.3-.47 3.77-2.06 3.5-4.67-1.15-11.27-2.33-22.5-9.05-32.26-1.08-1.6-.98-3.9-1.54-6.43zm-8.04-13.25c12.45-2.15 25.17-4.26 37.83-6.66 1.17-.22 2.74-2.22 2.86-3.5.61-6.94.89-13.92 1.14-20.89.15-4.05.03-8.12.03-12.51-14.2 2.54-27.67 4.95-41.85 7.49-.01 12.27-.01 24.16-.01 36.07z" fill="#000001"/><path d="m110.72 228.77c-1.07 4.28-1.71 8.72-3.28 12.81-7.9 20.58-16.41 40.94-23.94 61.65-3.71 10.21-5.78 21.02-8.59 31.56-.26.96-.48 1.94-.76 2.89-1.7 5.84-4.43 7.02-8.8 2.85-8.91-8.48-15.18-18.88-19.14-30.49-.63-1.86.63-5.97 2.15-6.72 12.22-5.97 20.07-16.3 27.48-26.94 9.21-13.22 17.83-26.85 26.79-40.24 1.9-2.83 4.17-5.41 6.28-8.11.61.25 1.21.49 1.81.74z" fill="#000001"/><path d="m86.48 183.15c-.52 2.93-.81 5.93-1.6 8.78-2.3 8.29-6.97 10.07-13.88 5.05-3.33-2.42-6.53-5.27-9.03-8.5-6.49-8.37-12.93-16.83-18.68-25.71-3.42-5.28-1.36-8.32 4.93-7.74 10.32.94 20.27 3.57 28.87 9.7 6.21 4.43 9.37 10.6 9.39 18.42z" fill="#000001"/><path d="m122.63 104.53c-.84 3.35-1.36 6.82-2.59 10.02-2.38 6.17-6.93 7.88-12.17 3.77-5.43-4.26-10.47-9.26-14.75-14.67-5.01-6.33-9.33-13.29-13.35-20.32-2.18-3.82-.42-6.65 3.72-6.2 11.62 1.27 22.97 3.72 32.16 11.75 4.67 4.08 6.68 9.37 6.98 15.65z" fill="#000001"/></svg>