<svg enable-background="new 0 0 400 400" viewBox="0 0 400 400" xmlns="http://www.w3.org/2000/svg"><g fill="#010106"><path d="m217.73 244.28c-13.36 2.61-25.75 4.84-38.04 7.49-11.17 2.41-20.84.92-27.75-9.15-.87-1.27-1.18-2.94-1.74-4.43 1.51-.43 3.03-1.29 4.52-1.23 21.28.81 42.03-3.57 62.96-6.25 1.12-.14 2.93-1.48 3-2.36.94-12.42 2.29-24.84-.59-37.23-.68-2.93-1.68-4-4.69-3.22-1.57.4-3.31.15-4.98.19-4.71.09-8.96.68-9.18 6.88-.05 1.26-.72 2.56-1.33 3.71-2.17 4.1-5 4.87-7.62 1.05-2.89-4.23-5.55-9.3-6.13-14.26-.75-6.46.48-13.2 1.15-19.78.68-6.77 2.28-13.49 2.46-20.26.4-15.79.75-31.62-.03-47.38-.35-7.1-3.48-14.05-5.25-21.09-.41-1.62-.43-3.34-.63-5.01 1.72-.03 3.49-.31 5.16-.03 7.47 1.25 15.15 4.54 22.33 3.66 20.37-2.49 40.56-6.6 60.78-10.26 2.53-.46 5.03-1.83 7.22-3.27 5.07-3.31 10.37-3.77 15.58-1.09 6.93 3.56 13.76 7.39 20.31 11.61 4.39 2.83 5.08 6.5 2.08 10.74-7.64 10.84-9.19 23.34-10.21 35.95-1.5 18.38-2.29 36.83-4.23 55.16-.66 6.23-3.32 12.46-6.07 18.2-2.32 4.82-5.09 4.55-7.85-.22-1.82-3.14-3.29-6.54-4.48-9.98-.91-2.64-2.17-3.75-5.03-3.38-15.15 1.93-30.33 3.73-45.49 5.62-2.62.33-5.21.9-9.11 1.58 5.48 2.28 9.9 3.9 14.13 5.92 6.07 2.89 6.8 5.05 4.91 11.5-2.19 7.47-4.19 14.99-6.64 23.79 8.15-1.51 15.22-2.83 22.3-4.12 10.43-1.91 20.81-4.22 31.32-5.59 8.68-1.14 15.18 3.96 21.06 9.61 2.81 2.7 1.8 5.06-1.69 5.65-7.51 1.27-15.09 2.18-22.66 3.07-15.79 1.84-31.6 3.56-48.78 5.49 38.34 42.52 76.82 82.68 134.93 95.99-.23.71-.46 1.42-.69 2.13-3.13.63-6.25 1.74-9.4 1.82-16.58.43-33.18 1.07-49.76.72-12.07-.25-20-8.21-26.43-17.51-9.84-14.23-19.16-28.83-29.16-42.94-7.18-10.12-15.12-19.71-22.92-29.79-4.26 10.95-7.81 21.46-12.37 31.51-12.82 28.32-34.75 46.21-64.69 53.98-7.05 1.83-14.61 1.65-22.23 1.45 19.87-9.18 38.45-19.53 53.39-35.8 15.18-16.57 22.46-36.56 28.26-58.84zm-10.33-101.04c10.36-2.04 20.26-4.06 30.19-5.91 5.04-.94 10.14-2.04 15.23-2.16 3.7-.09 8.42.64 8.93 5.42.45 4.18-3.62 5.47-6.91 6.73-.92.35-1.86.75-2.83.89-9.35 1.34-18.69 2.89-28.08 3.84-5.41.55-10.92.1-16.81.1-.5 8.98-.96 17.18-1.4 25.11 27.18-.83 52.53-13.04 79.95-8.37.39-1.55.92-2.8.98-4.07 1.09-20.42 2.38-40.83 2.99-61.26.17-5.69-1.48-11.49-2.75-17.15-1.13-5.03-4.75-7.62-9.88-7.32-8.61.5-17.25.96-25.8 2.05-14.62 1.86-29.17 4.19-43.74 6.31v24.63c1.9-.29 3.39-.41 4.83-.74 11.14-2.59 22.29-5.17 33.41-7.85 8.73-2.11 16.08.56 19.61 8.2-18.58 7.74-37.97 9.63-57.91 9.37-.01 7.39-.01 14.44-.01 22.18z"/><path d="m113.96 232.75c-8.95 6.84-17.25 12.86-25.19 19.32-12 9.76-23.7 19.89-35.68 29.67-1.64 1.34-4.48 2.63-6.26 2.13-8.99-2.52-16.14-7.94-22.55-15.52 1.95-1.2 3.21-2.49 4.67-2.8 17.54-3.71 32.02-13.55 46.56-23.2 11.91-7.91 23.6-16.16 35.3-24.38 1.34-.94 3.01-2.65 3.03-4.02.21-17.3.14-34.6.14-51.85-12.26.71-24.14 1.28-35.99 2.26-1.34.11-2.93 2.3-3.66 3.88-6.79 14.6-14.74 28.38-27 39.18-2.34 2.06-4.93 3.85-7.4 5.76-.41-.24-.82-.48-1.23-.72.92-2.26 1.62-4.65 2.8-6.76 10.69-19.2 17.61-39.75 21.78-61.25 1.85-9.54 2.42-19.06-.17-28.66-1.96-7.23.72-9.74 7.74-6.83 6.38 2.64 12.4 6.26 18.3 9.92 3.71 2.3 4.08 5.3 1.7 9.67-4.63 8.51-8.2 17.59-12.21 26.44.37.39.73.78 1.1 1.18 11.37-3.31 22.74-6.62 34.77-10.12-.53-24.58-.62-48.72-1.86-72.8-.33-6.47-4.24-12.75-6.38-19.15-.8-2.4-1.23-4.91-1.83-7.38 2.61-.35 5.42-1.5 7.79-.9 7.05 1.78 14.12 3.79 20.81 6.59 6.48 2.71 6.7 6.33 4.32 12.93-2.33 6.47-3.94 13.41-4.53 20.26-1.55 17.85-2.38 35.77-3.52 54.01 8.07-2.2 15.04-4.28 22.12-5.92 2.29-.53 5.34-.7 7.19.39 3.09 1.82 5.5 4.8 8.19 7.3-2.26 2.44-4.08 6.03-6.87 7.11-9.25 3.61-18.88 6.25-28.3 9.47-1.36.46-3.31 2.05-3.32 3.13-.22 15.46-.15 30.93-.15 47.15 9.72-5.23 18.89-10.16 28.06-15.1l1.32 1.8c-5.32 5.57-10.03 11.94-16.09 16.53-10.45 7.9-14.47 17.22-13.62 30.55 1.22 19.25.69 38.65.02 57.96-.66 18.91-2.27 37.79-3.9 56.65-.25 2.88-2.87 5.55-4.4 8.31-2.05-2.25-4.66-4.21-6.06-6.81-8.33-15.43-7.76-31.9-5.47-48.64 1.89-13.81 3.5-27.67 4.69-41.56.87-10.1.86-20.28 1.23-30.42.05-1.23.01-2.48.01-4.76z"/><path d="m346.64 217.4c-2.06 4.06-3.13 9.68-6.44 11.8-4.12 2.64-8.53-1.82-11.3-5.05-7.08-8.25-13.66-16.94-20.13-25.69-1.16-1.57-.8-4.25-1.14-6.42 2.18-.28 4.62-1.32 6.49-.69 7.63 2.57 15.34 5.15 22.53 8.7 6.52 3.22 8.9 9.51 8.69 16.7.43.22.87.44 1.3.65z"/></g><path d="m5.17 384 .55-.58c.85.61 1.65 1.24 2.4 1.87l-.59.64c-.83-.73-1.62-1.38-2.36-1.93m1.22 9.53-.82-.34c.71-1.76 1.37-3.64 1.98-5.63.24.13.5.25.76.36-.6 1.67-1.24 3.54-1.92 5.61m-.5-13.5.57-.54c.56.44 1.31 1.06 2.26 1.87l-.64.64c-.68-.66-1.41-1.32-2.19-1.97m3.25.46h2.24v-1.36h.77v1.36h4.57v-1.36h.76v1.36h2.28v.69h-2.28v1.84h-2.64v1.26h4.18v2.64h-4.21c0 .45-.02.86-.05 1.21h4.32v.69h-4.38c-.04.34-.1.75-.19 1.22h5.15v.69h-4.82c.87 1.19 2.51 1.92 4.93 2.19-.17.32-.3.57-.37.76-2.77-.49-4.52-1.41-5.26-2.76-.56 1.26-2.3 2.23-5.24 2.9-.12-.24-.26-.48-.43-.72 2.73-.55 4.38-1.34 4.96-2.38h-4.38v-.69h4.65c.1-.38.17-.79.21-1.22h-4.32v-.69h4.4c.03-.34.05-.75.05-1.21h-4.2v-2.64h4.23v-1.26h-2.69v-1.84h-2.24zm1.46 4.46v1.29h3.45c.01-.4.02-.57.01-.53v-.32-.45h-3.46zm1.55-2.59h4.57v-1.19h-4.57zm6.11 2.59h-3.42v.77c-.01.19-.01.37-.02.53h3.44z" fill="#fafafc"/><path d="m32.63 379.16h.82v1.98h3.54v7.89h1.46v.78h-14.37v-.78h1.46v-7.89h3.54v-1.98h.82v1.98h2.73zm-3.49 11.48.5.73c-1.61.82-3.28 1.63-5 2.41-.13-.27-.28-.55-.44-.82 1.75-.72 3.4-1.49 4.94-2.32m-2.78-5.55h2.73v-3.18h-2.73zm0 3.95h2.73v-3.2h-2.73zm3.54-3.95h2.73v-3.18h-2.73zm0 3.95h2.73v-3.2h-2.73zm7.89 4.68c-1.84-.92-3.51-1.7-5.02-2.32l.45-.73c1.89.8 3.57 1.55 5.04 2.23zm-1.62-11.81h-2.73v3.18h2.73zm-2.73 7.13h2.73v-3.2h-2.73z" fill="#fafafc"/></svg>