<svg enable-background="new 0 0 400 400" viewBox="0 0 400 400" xmlns="http://www.w3.org/2000/svg"><g fill="#010106"><path d="m192.11 284.13c-12.18 3.1-24.35 5.74-36.51.84-.07-.48-.14-.96-.21-1.45 16.78-4.01 33.56-8.02 50.65-12.11-1.48-5.56-3.48-10.28-3.79-15.1-.31-4.85 1.07-9.8 1.91-16.21-16.89 21.27-36.63 36.93-61.54 47.6 17.71-18.67 34.63-36.52 51.54-54.36-.31-.51-.62-1.03-.94-1.54-15.78 4.91-31.53 10.75-47.91 1.01 19.69-4.63 39.38-9.26 59.72-14.05-.47-5.09-.91-9.78-1.38-14.77-6.14 1.06-11.66 2.02-17.19 2.97-.27-.52-.53-1.05-.8-1.57 11.96-8.11 23.26-16.76 27.53-32.25-13.29 1.62-26.24 2.75-38.2-5.34 3.45-.61 6.9-1.24 10.36-1.83 18.15-3.12 36.31-6.19 54.43-9.47 1.15-.21 2.82-1.98 2.88-3.11.31-5.29.14-10.61.14-16.24-14.52 1.27-28.8 8.46-42.67.32-.13-.84-.25-1.68-.38-2.52 14.27-3.69 28.54-7.38 43.44-11.23-1.08-6.59-2.08-12.68-3.13-19.08-19.21 4.75-37.46 9.32-55.82 1.59-.14-.51-.27-1.02-.41-1.53 2.28-.95 4.48-2.25 6.85-2.8 24.73-5.74 49.5-11.3 74.23-17.04 12.59-2.92 25.02-6.55 37.7-9.01 6.88-1.34 13.42.87 18.92 7.55-3.31 1.37-5.99 2.88-8.87 3.6-16.41 4.12-32.87 8.05-49.32 12.06-1.59.39-3.16.84-4.2 1.12v19.07c5.52-1.24 11.56-2.57 17.59-3.96 6.7-1.55 13.43-3.23 19.82.81 1.55.98 2.63 2.71 3.92 4.1-1.42 1.27-2.66 3.28-4.3 3.7-10.12 2.59-20.32 4.83-30.5 7.15-2.26.51-4.56.85-7.38 1.37-.5 6.66-1 13.37-1.55 20.74 15.03-3.67 29.33-7.12 43.61-10.66 5.91-1.46 11.24-.22 15.97 3.39 1.3 1 2.86 2.98 2.66 4.25-.21 1.31-2.27 2.95-3.79 3.31-5.95 1.45-12.01 2.47-18.03 3.61-15.25 2.87-30.5 5.72-46.57 8.73 3.98 1.95 7.26 3.35 10.33 5.12 2.94 1.7 4 4.16 3.75 7.9-.5 7.59-.15 15.23-.15 23.81 5.39-1.22 9.53-2.06 13.61-3.11 7.72-1.98 15.38-4.2 23.12-6.09 8.32-2.03 17.33 1.1 21.88 8.03-17.69 6.44-36.44 7.17-54.61 12.6 2.58 19.33 8.47 37.53 17.53 55.62 7.16-10.77 13.56-21.01 15.58-33.25.44-2.69-.61-5.59-.53-8.38.05-1.68.5-3.81 1.61-4.82.67-.61 3.19.13 4.45.94 4.19 2.7 8.31 5.55 12.24 8.62 5.71 4.47 5.68 6.6 1.41 12.41-8.67 11.8-17.19 23.71-25.54 35.74-.93 1.34-1.18 4.29-.34 5.55 11.94 17.88 26.1 33.63 44.51 45.19 9.6 6.03 11.43 5.86 15.59-4.81 3.55-9.07 5.87-18.62 8.74-27.95.54-1.76 1.1-3.52 1.64-5.28.57.1 1.15.2 1.72.3-.25 5.67-.49 11.34-.76 17.01-.71 15.39 1 30.48 4.68 45.47.98 4.01-.26 8.57-.49 12.87-4.08-.78-8.59-.7-12.17-2.48-30.51-15.17-53.76-38.2-71.39-67.13-.77-1.26-1.5-2.53-2.4-4.07-11.25 9.52-21.98 19.35-36.33 23.47-1.64.47-3.36.67-5.04 1-.25-.43-.5-.86-.75-1.29 2.55-2.19 5.28-4.21 7.61-6.62 8.54-8.82 17.04-17.68 25.28-26.76 1.09-1.2 1.45-4.12.8-5.7-8.27-20.31-16.18-40.72-20.67-62.85-8.74 2.21-17.2 4.34-25.65 6.5-3.05.78-6.03 2.03-9.13 2.39-4.51.52-5.57 2.74-4.32 6.77 7.39.8 14.83 1.33 22.17 2.49 8.15 1.29 10.87 3.94 12.12 10.47 1.05 5.48-1.33 7.86-6.5 5.8-8.31-3.32-16.4-7.2-24.58-10.84-1.01-.45-2.04-.86-3.35-1.41-.54 9.8-1.06 19.17-1.58 28.75 10.13-2.49 19.91-4.95 29.72-7.27 2.74-.65 5.57-1.22 8.35-1.2 1.55.01 3.86.96 4.41 2.15.51 1.09-.42 3.69-1.54 4.51-2.36 1.73-5.13 3.14-7.95 3.96-12.12 3.51-24.27 6.91-36.5 9.98-2.97.75-3.64 2.01-4.48 4.76-1.46 4.8-4.05 9.26-6.48 14.54 1.91-.23 3.58-.09 4.97-.65 4.31-1.74 8.7-3.41 12.72-5.7 9.96-5.67 19.29-4.16 26.83 4.74 2.7 3.19 2.67 5.89.41 9.82-3.43 5.95-6.17 12.5-7.99 19.12-3.71 13.53-7.98 26.5-20.09 35.13-.27.19-.5.44-.77.64-9.03 6.96-10.39 6.16-14.75-4.39-2.55-6.17-7.08-11.51-10.74-17.21-1.09-1.7-2.28-3.35-3.42-5.02.27-.4.55-.8.82-1.21 2.85.57 5.7 1.11 8.54 1.73 2.9.64 5.75 1.69 8.68 2.01 5.36.59 10.39-.95 12.53-6.12 2.83-6.85 5.4-13.98 6.72-21.23 1.42-7.81-2.47-10.81-9.91-7.92-7.24 2.82-14.09 6.64-21.04 10.16-2.36 1.2-4.42 2.98-6.75 4.25-3.77 2.06-6.5 1-7.66-3.15-1.26-4.51-.74-8.36 2.82-12.32 4.44-4.94 7.64-11 11.37-16.58-.42-.38-.9-.78-1.39-1.17zm23.97-68.35c12.52-3 24.52-5.88 36.72-8.8-2.12-14.51-6.47-27.56-13.4-39.86-7.27 1.42-14.12 2.76-21.36 4.18 5.42 4.01 10.43 7.24 14.86 11.13 3.65 3.21 3.01 5.98-1.43 8.02-4.06 1.87-8.4 3.16-12.47 5.01-1.21.55-2.72 2.1-2.78 3.25-.31 5.46-.14 10.94-.14 17.07z"/><path d="m127.57 180.58c-12.64 1.89-24.77 5.47-36.71 4.93-9.94-.45-15.92 2.52-21.86 9.52-4.59 5.41-10.4 9.81-15.75 14.56-1.3 1.15-2.94 1.93-4.42 2.87-.36-.32-.72-.63-1.08-.95 2.02-3.05 4.01-6.12 6.07-9.14 9.32-13.62 17.9-27.65 23.14-43.43 2.65-7.96 2.72-15.92-.03-23.96-2-5.85.46-8.64 6.31-6.57 6.5 2.31 12.89 5.29 18.75 8.91 5.02 3.1 4.27 5.22.79 10.02-6.47 8.94-12.29 18.35-18.38 27.57.4.37.8.74 1.2 1.11 2.05-.5 4.13-.9 6.15-1.53 10.76-3.37 21.54-6.69 32.21-10.34 1.51-.52 3.48-2.77 3.46-4.19-.36-25.79-.48-51.61-1.9-77.35-.41-7.45-4.7-14.71-7.3-22.02-.65-1.82-1.61-3.53-3.02-6.56 3.3 0 5.85-.64 7.87.12 6.5 2.47 13.02 5.06 19.13 8.34 6.1 3.27 7.84 8.03 5.47 15.43-5.57 17.37-5.79 35.33-6.56 53.24-.34 7.95-.06 15.92-.06 24.29 3.46-.91 7.32-2.17 11.28-2.9 3.24-.59 6.68-1.12 9.85-.59 2.06.34 4.53 2.3 5.42 4.19.59 1.25-.77 4.56-2.18 5.4-6.4 3.78-12.89 7.61-19.8 10.25-5.1 1.95-7.24 4.14-6.8 9.86.63 8.06.16 16.21.16 24.68 9.06-4.93 17.64-9.6 26.22-14.28.43.57.86 1.13 1.29 1.7-1.03 1.54-1.82 3.32-3.12 4.57-7.09 6.8-14.41 13.35-21.39 20.25-1.54 1.53-2.87 4.12-2.88 6.23-.06 24.66-.1 49.33.38 73.98.29 14.86-.22 29.53-4.34 43.9-.23.8-.35 1.67-.77 2.36-1.06 1.74-2.26 3.4-3.4 5.09-1.36-1.55-3.2-2.89-4-4.69-6.12-13.72-7.72-27.87-5.1-42.81 2.03-11.59 2.95-23.4 3.8-35.16.91-12.59 1.17-25.22 1.74-38.34-1.1.49-2.03.69-2.67 1.23-15.23 12.91-30.52 25.77-45.59 38.88-4.25 3.7-7.84 8.15-11.69 12.31-3.7 4-7.98 4.81-12.52 1.84-5.83-3.82-11.72-7.65-17.07-12.09-3.89-3.22-3.1-6.49 1.56-7.49 23-4.91 42.02-17.97 61.56-29.88 8.23-5.01 16-10.78 23.87-16.36 1.2-.85 2.55-2.53 2.57-3.84.23-11.33.14-22.65.14-33.16z"/><path d="m259.38 70.85c1.6-1.94 3.09-3.98 4.81-5.81 4.87-5.21 9.81-10.36 14.75-15.51 4.3-4.47 5.63-10.06 5.85-15.97.12-3.26 1.8-4.2 4.5-3.5 9.23 2.4 17.98 5.93 25.16 12.45 3 2.72 2.75 5.49-.88 7.07-16.84 7.33-33.79 14.42-50.71 21.57-.83.35-1.78.44-2.68.65-.26-.32-.53-.63-.8-.95z"/><path d="m236.24 74.08c-.09 1.66.04 3.36-.3 4.96-1.04 4.97-5.31 7-8.77 3.5-7.31-7.39-14.01-15.4-20.81-23.29-.83-.96-1.44-3.49-.94-3.95 1.02-.93 3.04-1.56 4.37-1.21 6.06 1.57 12.22 3.04 17.96 5.46 6.08 2.57 8.63 7.93 8.49 14.53z"/><path d="m305.89 165.67c10.23 1.42 19.72 2.13 25.03 11.65.64 1.15 1.2 2.39 1.58 3.65 1.18 3.92 2.19 8.34-1.32 11.18-3.78 3.06-7.38-.2-10.16-2.55-6.07-5.15-11.86-10.66-17.51-16.29-1.36-1.35-1.73-3.7-2.56-5.59 1.88-.77 3.77-1.56 4.94-2.05z"/></g><path d="m5.17 384 .55-.58c.85.61 1.65 1.24 2.4 1.87l-.59.64c-.83-.73-1.62-1.38-2.36-1.93m1.22 9.53-.82-.34c.71-1.76 1.37-3.64 1.98-5.63.24.13.5.25.76.36-.6 1.67-1.24 3.54-1.92 5.61m-.5-13.5.57-.54c.56.44 1.31 1.06 2.26 1.87l-.64.64c-.68-.66-1.41-1.32-2.19-1.97m3.25.46h2.24v-1.36h.77v1.36h4.57v-1.36h.76v1.36h2.28v.69h-2.28v1.84h-2.64v1.26h4.18v2.64h-4.21c0 .45-.02.86-.05 1.21h4.32v.69h-4.38c-.04.34-.1.75-.19 1.22h5.15v.69h-4.82c.87 1.19 2.51 1.92 4.93 2.19-.17.32-.3.57-.37.76-2.77-.49-4.52-1.41-5.26-2.76-.56 1.26-2.3 2.23-5.24 2.9-.12-.24-.26-.48-.43-.72 2.73-.55 4.38-1.34 4.96-2.38h-4.38v-.69h4.65c.1-.38.17-.79.21-1.22h-4.32v-.69h4.4c.03-.34.05-.75.05-1.21h-4.2v-2.64h4.23v-1.26h-2.69v-1.84h-2.24zm1.46 4.46v1.29h3.45c.01-.4.02-.57.01-.53v-.32-.45h-3.46zm1.55-2.59h4.57v-1.19h-4.57zm6.11 2.59h-3.42v.77c-.01.19-.01.37-.02.53h3.44z" fill="#fafafc"/><path d="m32.63 379.16h.82v1.98h3.54v7.89h1.46v.78h-14.37v-.78h1.46v-7.89h3.54v-1.98h.82v1.98h2.73zm-3.49 11.48.5.73c-1.61.82-3.28 1.63-5 2.41-.13-.27-.28-.55-.44-.82 1.75-.72 3.4-1.49 4.94-2.32m-2.78-5.55h2.73v-3.18h-2.73zm0 3.95h2.73v-3.2h-2.73zm3.54-3.95h2.73v-3.18h-2.73zm0 3.95h2.73v-3.2h-2.73zm7.89 4.68c-1.84-.92-3.51-1.7-5.02-2.32l.45-.73c1.89.8 3.57 1.55 5.04 2.23zm-1.62-11.81h-2.73v3.18h2.73zm-2.73 7.13h2.73v-3.2h-2.73z" fill="#fafafc"/></svg>