<svg enable-background="new 0 0 400 400" viewBox="0 0 400 400" xmlns="http://www.w3.org/2000/svg"><path d="m259.29 123.9c12.67 12.11 23.86 24.07 36.39 34.43 12.52 10.36 25.76 20.17 39.81 28.27 13.87 8 29.14 13.56 43.77 21.34-8.79 1.04-17.57 2.16-26.36 3.08-3.3.35-6.66.19-9.98.37-15.46.82-27.14-6-36.59-17.7-17.15-21.24-34.49-42.32-51.58-63.62-2.37-2.96-4.64-3.05-8.09-2.8-11.88.87-17.8 7.06-22.63 18.04-8.53 19.43-19.54 37.77-29.51 56.56-.76 1.44-1.59 2.85-2.66 4.77 12.66 1.41 24.36-1.33 36.6-4.11-.67-11.05.15-22.19-4.87-32.61-.88-1.82-1.17-3.93-1.74-5.9 2.18-.05 4.52-.66 6.49-.05 4.74 1.46 9.45 3.17 13.89 5.37 5.39 2.66 6.06 5.61 4.35 11.43-1.72 5.85-2.94 11.85-4.38 17.78.38.47.76.94 1.13 1.41 8.09-2.53 16.4-4.53 24.2-7.74 6.2-2.56 11.93-2.95 17.68.1 6.89 3.66 13.7 7.52 20.27 11.74 5.39 3.46 5.34 7.95 2.25 13.07-4.84 7.99-8.03 17.02-11.62 25.73-4.56 11.04-8.77 22.23-13.26 33.3-.8 1.98-2.03 3.85-3.37 5.52-2.78 3.49-5.23 3.26-6.21-.99-.91-3.94-2.97-4.61-6.33-4.28-8.41.84-16.82 1.6-25.88 2.45.23 14.81-.46 29.07 4.59 42.79 2.27 6.16 7.04 9.8 13.2 11.07 14.17 2.91 28.28 3.47 42.23-1.74 6.3-2.35 10.79-6.35 12.51-12.57 2.82-10.21 4.9-20.62 7.27-30.95.44-1.91.73-3.86 2.23-5.86.65 4.9 1.41 9.79 1.93 14.71 1.27 11.91 2.84 23.67 8.98 34.38 3.81 6.64 2.74 8.64-2.96 13.4-10.33 8.62-22.86 10.9-35.4 11.64-11.67.69-23.56-.3-35.22-1.67-18.02-2.11-27.76-15.04-30.39-32.09-1.04-6.72-1.63-13.53-1.96-20.33-.33-6.62-.07-13.27-.07-20.65-5.93.85-11.92 1.7-17.91 2.56-.99.14-1.95.46-2.94.52-3.95.26-7.44 1.09-9 5.44-.39 1.08-1.63 1.86-2.48 2.77-.57.01-1.14.02-1.71.03-5.34-22.46-10.68-44.91-16.15-67.91-8.91 6.5-17.29 12.61-25.67 18.72-.34-.44-.67-.89-1.01-1.33 7.3-10.03 14.61-20.06 21.73-29.83-2.11-3.59-3.95-6.73-6.35-10.83 2.83 0 4.32-.43 5.37.07 4.57 2.2 6.69-.13 9-3.77 11.1-17.46 25.66-47.5 29.56-61.8-11.99-.04-24.45 3.26-35.38-6 4.02-.88 8.03-1.78 12.05-2.62 8.27-1.74 16.58-3.35 24.81-5.27 1.49-.35 3.49-1.72 3.88-3.03 5.58-18.42 11.95-36.73 11.08-56.39-.17-3.94-1.26-7.84-1.85-11.76-.59-3.96 1.27-6.03 4.68-4.29 7.34 3.74 14.43 8.05 21.26 12.65 3.18 2.14 2.32 5.51.97 9-5.9 15.29-11.44 30.72-17.11 46.1.38.37.76.74 1.14 1.1 7.08-2.01 14.21-3.86 21.23-6.06 9.8-3.07 19.46-6.64 29.31-9.55 7.25-2.14 13.85-.18 19.27 5.12 3.38 3.3 3.07 5.26-1.51 6.63-12.72 3.8-25.54 7.27-38.33 10.86-1.71.46-3.44.91-6.65 1.78zm-18.01 145.31c9.56-1.2 18.91-2.25 28.2-3.67 1.32-.2 3.22-2.05 3.43-3.36 2.52-15.52 5.16-31.03 6.92-46.65.87-7.74-3.04-11.1-10.93-10.3-8.05.82-16.03 2.46-24 3.93-.99.18-2.46 1.46-2.54 2.33-.65 7.04-1.02 14.1-1.49 21.51 1.77-.3 2.73-.52 3.7-.6 5.42-.45 10.86-1.22 16.27-1.11 1.76.04 3.46 2.41 5.19 3.72-1.22 1.61-2.14 3.71-3.74 4.73-2.34 1.48-5.1 2.4-7.8 3.17-4.39 1.25-8.88 2.19-13.2 3.22-.01 7.99-.01 15.43-.01 23.08zm-46.79-52.42c2 20.49 3.91 40.09 5.83 59.87 9.6-2.01 18.79-3.93 27.93-5.84 0-7.87 0-15.45 0-23.01-16.56-.37-19.46-.89-25.46-5.37 9.19-2.47 17.36-4.67 25.4-6.83 0-7.68 0-15.23 0-23.16-11.39 1.46-22.34 2.87-33.7 4.34z" fill="#010106"/><path d="m90.01 138.6c-9.74-2.85-20.13-2.05-28.33-8.09-.03-.55-.06-1.1-.09-1.65 2.68-.93 5.29-2.15 8.04-2.74 22.07-4.69 44.17-9.25 66.25-13.88 8.51-1.78 15.81-.3 21.91 8.45-5.13 1.92-9.7 4.13-14.53 5.34-15.08 3.79-30.25 7.21-45.95 10.9 2.69 2.88 5.32 5.52 7.76 8.32 6.23 7.14 6.76 13.68 2.42 22.01-7.44 14.27-14.67 28.65-22.49 43.98 11.71-1.34 22.4-2.36 31.91-7.9 11.62-6.76 27.35-5.72 37.84 2.83 2.91 2.37 3.24 5.41.78 7.81-10.55 10.32-14.56 23.96-19.59 37.14-1.07 2.81-.76 4.42 1.61 6.36 2.86 2.35 5.18 5.34 8.83 9.22-5.83 1.34-10.04 2.49-14.31 3.26-13.88 2.5-27.78 4.91-41.68 7.24-2.88.48-4 1.74-4.54 4.76-.9 5.08-2.68 10-4.89 14.95-5.59-5.19-7.65-11.51-8.11-18.26-.82-11.91-1.19-23.85-1.78-36.63-7.99 8.66-15.3 16.74-22.78 24.64-7.58 8.01-16.19 14.68-25.73 19.26 14.74-22.13 29.65-44.5 44.32-66.53-2.1-3.56-3.94-6.16-5.19-9.02-.65-1.49-.97-4.01-.15-5.02.86-1.06 3.26-1.18 4.98-1.15 1.91.03 3.82.68 6.06 1.13 8.43-21.82 17.58-43.01 17.43-66.73zm-4.82 129.17c1.28 0 1.8.11 2.25-.02 10.21-2.84 20.38-5.85 30.65-8.49 3.18-.82 4.38-2.6 4.61-5.5.78-9.59 1.78-19.18 2.23-28.79.36-7.67-2.36-10.07-9.92-8.72-9.14 1.63-18.19 3.78-27.23 5.91-1.03.24-2.46 1.86-2.47 2.85-.18 14.14-.12 28.27-.12 42.76z" fill="#010106"/><g fill="#fafafc"><path d="m5.17 384 .55-.58c.85.61 1.65 1.24 2.4 1.87l-.59.64c-.83-.73-1.62-1.38-2.36-1.93m1.22 9.53-.82-.34c.71-1.76 1.37-3.64 1.98-5.63.24.13.5.25.76.36-.6 1.67-1.24 3.54-1.92 5.61m-.5-13.5.57-.54c.56.44 1.31 1.06 2.26 1.87l-.64.64c-.68-.66-1.41-1.32-2.19-1.97m3.25.46h2.24v-1.36h.77v1.36h4.57v-1.36h.76v1.36h2.28v.69h-2.28v1.84h-2.64v1.26h4.18v2.64h-4.21c0 .45-.02.86-.05 1.21h4.32v.69h-4.38c-.04.34-.1.75-.19 1.22h5.15v.69h-4.82c.87 1.19 2.51 1.92 4.93 2.19-.17.32-.3.57-.37.76-2.77-.49-4.52-1.41-5.26-2.76-.56 1.26-2.3 2.23-5.24 2.9-.12-.24-.26-.48-.43-.72 2.73-.55 4.38-1.34 4.96-2.38h-4.38v-.69h4.65c.1-.38.17-.79.21-1.22h-4.32v-.69h4.4c.03-.34.05-.75.05-1.21h-4.2v-2.64h4.23v-1.26h-2.69v-1.84h-2.24zm1.46 4.46v1.29h3.45c.01-.4.02-.57.01-.53v-.32-.45h-3.46zm1.55-2.59h4.57v-1.19h-4.57zm6.11 2.59h-3.42v.77c-.01.19-.01.37-.02.53h3.44z"/><path d="m32.63 379.16h.82v1.98h3.54v7.89h1.46v.78h-14.37v-.78h1.46v-7.89h3.54v-1.98h.82v1.98h2.73zm-3.49 11.48.5.73c-1.61.82-3.28 1.63-5 2.41-.13-.27-.28-.55-.44-.82 1.75-.72 3.4-1.49 4.94-2.32m-2.78-5.55h2.73v-3.18h-2.73zm0 3.95h2.73v-3.2h-2.73zm3.54-3.95h2.73v-3.18h-2.73zm0 3.95h2.73v-3.2h-2.73zm7.89 4.68c-1.84-.92-3.51-1.7-5.02-2.32l.45-.73c1.89.8 3.57 1.55 5.04 2.23zm-1.62-11.81h-2.73v3.18h2.73zm-2.73 7.13h2.73v-3.2h-2.73z"/></g></svg>