<svg enable-background="new 0 0 400 400" viewBox="0 0 400 400" xmlns="http://www.w3.org/2000/svg"><path d="m242.33 315.74c2.28.52 4.59.92 6.82 1.6 4.28 1.31 8.43 3.09 12.76 4.12 7.57 1.8 11.79-.91 13.29-8.53.9-4.54 1.57-9.22 1.54-13.83-.15-20.97.25-41.99-1.18-62.88-1.28-18.62-4.7-37.09-7.11-55.14-9.8-1.13-18.32-2.3-26.89-2.93-1.55-.11-3.61 1.71-4.85 3.15-9.09 10.6-17.92 21.44-27.1 31.96-2.43 2.78-5.8 4.73-8.74 7.06-.47-.32-.95-.64-1.42-.96.96-2.67 1.63-5.49 2.94-7.97 7.21-13.68 15.14-27.01 21.77-40.97 12.83-27 25.05-54.28 33.04-83.23 2.75-9.96 3.56-19.86 1.42-30.05-1.33-6.31.99-8.34 6.78-6 7.54 3.05 15.07 6.23 22.26 10.02 7.27 3.83 7.31 6.81 3.45 13.97-6.7 12.44-12.77 25.21-19.12 37.84-8.36 16.64-16.73 33.27-25.1 49.9-1.38 2.74-2.76 5.48-4.15 8.22.3.43.6.87.9 1.3 16.01-4.68 32.04-9.29 48.02-14.08 13.98-4.19 27.81-8.92 41.88-12.78 8.4-2.3 16.9-1.66 24.36 3.64 5.86 4.16 5.79 9.08-.89 11.47-9.78 3.5-19.91 6.23-30.09 8.34-16.88 3.5-33.93 6.24-50.9 9.32-.63.11-1.22.43-2.38.86 5.65 3.31 10.94 6.25 16.07 9.44 8.08 5.02 7.52 5.95 7.07 15.19-.94 18.91-.96 37.88-1.02 56.83-.08 23.93.67 47.87.06 71.78-.28 10.81-6.54 19.77-14.11 27.35-4.07 4.08-8.09 3.46-9.7-1.62-4.14-13.08-13.2-22.51-22.49-31.87-2.85-2.87-5.42-6.03-8.11-9.05.29-.49.6-.98.92-1.47z" fill="#010000"/><path d="m45.96 243.1c2.44-2.91 4.83-5.86 7.33-8.71 21.13-24.01 38.03-50.89 52.68-79.17 8.24-15.91 15.77-32.22 23.09-48.58 4.11-9.19 5.37-19.1 5.01-29.26-.32-8.9 2.41-10.77 10.42-6.87 6.24 3.04 12.29 6.67 17.86 10.8 5.27 3.91 4.76 7.38 1.3 12.86-8.6 13.62-16.6 27.61-25.05 41.33-10.8 17.55-21.8 34.98-32.72 52.46-.43.69-.85 1.38-2.18 3.54 7.9-1.56 14.73-2.27 21.14-4.31 16.6-5.3 32.93-11.45 49.53-16.72 5.61-1.78 11.71-2.33 17.63-2.71 4.47-.28 8.95 1.16 10.12 6.29 1.12 4.94-2.77 7.56-6.41 8.91-12.59 4.66-25.34 8.9-38.11 13.07-4.37 1.43-8.96 2.19-13.98 3.38 1.07 1.31 1.76 2.4 2.67 3.25 8.94 8.25 9.47 18.87 8.69 29.96-1.7 24.2-3.03 48.42-5.07 72.59-.69 8.2-2.82 16.32-4.85 24.33-.61 2.4-3.11 4.33-4.74 6.48-1.72-1.88-3.91-3.5-5.07-5.68-6.52-12.28-5.65-25.07-3.17-38.33 4.26-22.82 4.58-45.94 3.05-69.08-.38-5.8-.92-11.6-1.21-17.4-.13-2.5-1.1-3.25-3.62-3.53-9.06-.99-18.07-2.51-27.14-3.39-1.62-.16-3.86 1.38-5.1 2.77-11.4 12.85-23 25.48-37.12 35.43-4.36 3.07-9.24 5.4-13.89 8.07-.35-.6-.72-1.19-1.09-1.78z" fill="#010000"/><g fill="#fbfcfa"><path d="m6.44 374.46.42-.45c.65.47 1.27.95 1.85 1.44l-.45.49c-.65-.56-1.25-1.06-1.82-1.48m.93 7.33-.63-.26c.55-1.36 1.05-2.8 1.52-4.33.19.1.38.19.59.27-.46 1.29-.95 2.73-1.48 4.32m-.38-10.38.44-.42c.43.34 1.01.82 1.74 1.44l-.49.49c-.53-.51-1.09-1.01-1.69-1.51m2.5.35h1.72v-1.04h.59v1.04h3.52v-1.04h.59v1.04h1.75v.53h-1.75v1.42h-2.03v.97h3.22v2.03h-3.24c0 .35-.01.66-.03.93h3.32v.53h-3.37c-.03.27-.08.58-.15.94h3.96v.53h-3.71c.67.92 1.93 1.48 3.79 1.68-.13.24-.23.44-.29.59-2.13-.38-3.48-1.08-4.04-2.12-.43.97-1.77 1.72-4.03 2.23-.09-.19-.2-.37-.33-.55 2.1-.42 3.37-1.03 3.81-1.83h-3.36v-.53h3.58c.08-.29.13-.61.16-.94h-3.33v-.53h3.39c.02-.27.04-.58.04-.93h-3.23v-2.03h3.25v-.97h-2.07v-1.42h-1.73zm1.12 3.44v1h2.65c.01-.3.02-.44.01-.4v-.25-.35zm1.19-2h3.52v-.91h-3.52zm4.71 2h-2.63v.59c0 .15-.01.28-.01.4h2.64z"/><path d="m13.56 383.74h.63v1.52h2.72v6.07h1.13v.6h-11.06v-.6h1.13v-6.07h2.73v-1.52h.63v1.52h2.1v-1.52zm-2.69 8.83.38.56c-1.24.63-2.53 1.25-3.85 1.85-.1-.21-.21-.42-.34-.63 1.36-.55 2.63-1.15 3.81-1.78m-2.13-4.27h2.1v-2.45h-2.1zm0 3.04h2.1v-2.46h-2.1zm2.72-3.04h2.1v-2.45h-2.1zm0 3.04h2.1v-2.46h-2.1zm6.07 3.6c-1.41-.71-2.7-1.3-3.86-1.78l.35-.56c1.45.62 2.75 1.19 3.84 1.72zm-1.25-9.09h-2.1v2.45h2.1zm-2.09 5.49h2.1v-2.46h-2.1z"/></g></svg>