<svg enable-background="new 0 0 400 400" viewBox="0 0 400 400" xmlns="http://www.w3.org/2000/svg"><g fill="#010000"><path d="m239.1 194.65c12.37-5.3 24.02-10.13 35.52-15.27 6.79-3.03 13.4-3.75 20.07.02 6.39 3.62 6.79 8.01.4 11.4-7.45 3.96-15.3 7.23-23.21 10.21-9.62 3.62-19.48 6.63-29.98 10.15 2.97 15.49 7.79 30.42 14.56 45.58 12.09-11.67 24.74-21.84 28.61-38.78 1.51-6.61 5.65-7.86 10.36-3.05 4.61 4.71 8.81 9.94 12.43 15.43 2.77 4.2 1.05 6.87-2.97 10-13.61 10.58-26.96 21.48-40.62 32.43 15.33 23.29 31.84 42.91 58.71 50.35 8.55 2.37 11.91.46 14.46-8.03 3.29-10.96 6.26-22.02 9.45-33.01.77-2.66 1.87-5.23 2.81-7.84.57 0 1.15-.01 1.72-.01.54 4.7 1.47 9.4 1.57 14.11.34 16.14.9 32.25 5.13 47.96.99 3.67 2.57 7.18 3.82 10.79 2.32 6.72-.31 11.13-7.47 10.76-7.38-.39-15.03-1.19-21.97-3.56-31.24-10.67-55.71-30.51-74.85-57.17-1.55-2.16-2.97-4.42-4.4-6.67-1.32-2.08-2.58-4.21-4-6.55-27.2 14.01-53.91 29-86.17 26.17 28.18-9.95 54.1-24.06 78.47-40.33-6.32-17.63-12.53-34.93-18.89-52.67-19.2 5.27-38.8 9.95-58.19.46-.13-.67-.26-1.34-.39-2.01 3.45-1.2 6.84-2.61 10.36-3.56 13.93-3.76 27.89-7.42 41.86-11 2.64-.67 4.1-1.66 3.63-4.69-2.17-13.76-3.81-27.63-6.55-41.27-1.11-5.52-4.6-10.55-6.88-15.86-.94-2.2-1.54-4.55-2.29-6.84 2.48-.53 5.12-1.9 7.41-1.45 7.61 1.48 15.24 3.15 22.56 5.65 5.7 1.95 6.41 5.22 3.84 10.57-.71 1.49-1.54 3.07-1.67 4.66-1.12 14 .1 27.85 2.75 42.92z"/><path d="m123.44 221.65c-23.38 22.95-47.53 42.21-76 55.39-.36-.38-.73-.77-1.09-1.15 2.17-2.3 4.18-4.77 6.53-6.87 28.11-25.03 52.67-53.18 73.66-84.39 6.9-10.26 12.88-20.96 11.41-34.24-.53-4.74 2.09-6.65 6.93-5.67 9.15 1.85 17.23 6.02 23.96 12.5 3.37 3.24 2.8 5.09-.75 8.04-3.29 2.73-6.67 5.63-9.1 9.09-9.24 13.18-18.11 26.62-27.45 40.45 6.51 10.31 11.32 22.08 10.42 35.36-1.82 26.84-3.81 53.67-5.94 80.49-.3 3.74-1.49 7.49-2.83 11.02-.67 1.78-2.65 4.34-3.95 4.29-1.88-.08-4.66-1.81-5.33-3.52-2.4-6.12-4.46-12.44-5.93-18.85-2.38-10.37 2.63-19.86 4.24-29.77 3.52-21.67 6.21-43.43 3.66-65.45-.23-1.94-1.35-3.79-2.44-6.72z"/><path d="m131.54 99.48c8.66 3.45 16.85 6.19 24.56 9.92 7.7 3.72 9.85 11.1 6.56 19.01-1.62 3.88-4.82 5.3-8.97 2.88-4.24-2.47-8.1-5.7-11.78-8.99-2.84-2.53-5.21-5.6-7.68-8.52-2.45-2.9-4.78-5.91-7.4-9.17-15.64 12.98-31.67 24.82-50.64 31.75-.59-.67-1.17-1.34-1.76-2.01 1.77-1.13 3.72-2.05 5.27-3.42 16.14-14.28 30.7-30.03 42.83-47.86 5.64-8.29 10.2-17.08 7.65-27.96-1.07-4.58 2.03-7.52 6.39-6.07 7.81 2.61 15.55 5.71 22.84 9.51 4.76 2.48 4.55 4.62 1.12 8.74-3.28 3.93-6.55 7.87-9.36 12.86 8.16-1.59 16.29-3.41 24.49-4.69 7.62-1.19 15.31-2.18 23-2.44 2.15-.07 4.39 2.77 6.59 4.27-1.69 2.02-2.97 4.83-5.12 5.92-16.48 8.36-33.69 9.6-51.21 3.83-3.83-1.26-6.17-.57-8.54 2.37-2.91 3.57-6.07 6.93-8.84 10.07z"/><path d="m245.54 80.91c-11.97 20.56-28.26 37.48-51 47.32-.38-.3-.77-.6-1.15-.91 1.5-1.97 2.91-4.02 4.51-5.91 12.27-14.4 22.72-29.97 30.25-47.37 3.36-7.77 4.79-15.71 1.74-24.16-2.02-5.58.55-8.56 6.04-6.71 6.83 2.3 13.48 5.47 19.7 9.13 4.6 2.7 4.15 4.96.85 9.2-2.81 3.62-5.02 7.72-7.5 11.6.27.4.54.8.81 1.2 7.86-1.64 15.79-2.98 23.56-4.99 11.71-3.03 23.23-6.8 34.96-9.74 8.55-2.14 16.08 1.18 22.74 6.32 3.2 2.47 2.94 5.42-1.06 6.84-7.77 2.75-15.73 5.53-23.84 6.63-14.62 1.99-29.39 3.07-44.14 3.87-5.11.28-10.35-1.39-16.47-2.32z"/><path d="m330.35 162.73c-1.66 3.94-2.29 9.27-5.25 11.48-3.93 2.93-7.39-2.02-10.46-4.46-8.84-7.01-17.58-14.15-26.07-21.59-2.04-1.78-2.91-4.9-4.31-7.4 2.94-.54 6.01-1.91 8.79-1.47 7.83 1.23 15.66 2.77 23.26 5.01 9.96 2.93 12.91 7.56 14.04 18.43z"/><path d="m246.58 95.99c3.23 0 6.04-.64 8.4.12 6.75 2.17 13.53 4.46 19.9 7.54 8.15 3.94 8.54 12.82 5.07 19.79-2.06 4.12-5.84 3.42-9.06 1.65-10.52-5.78-17.53-15-23.63-25-.55-.88-.39-2.19-.68-4.1z"/></g><path d="m6.44 374.46.42-.45c.65.47 1.27.95 1.85 1.44l-.45.49c-.65-.56-1.25-1.06-1.82-1.48m.93 7.33-.63-.26c.55-1.36 1.05-2.8 1.52-4.33.19.1.38.19.59.27-.46 1.29-.95 2.73-1.48 4.32m-.38-10.38.44-.42c.43.34 1.01.82 1.74 1.44l-.49.49c-.53-.51-1.09-1.01-1.69-1.51m2.5.35h1.72v-1.04h.59v1.04h3.52v-1.04h.59v1.04h1.75v.53h-1.75v1.42h-2.03v.97h3.22v2.03h-3.24c0 .35-.01.66-.03.93h3.32v.53h-3.37c-.03.27-.08.58-.15.94h3.96v.53h-3.71c.67.92 1.93 1.48 3.79 1.68-.13.24-.23.44-.29.59-2.13-.38-3.48-1.08-4.04-2.12-.43.97-1.77 1.72-4.03 2.23-.09-.19-.2-.37-.33-.55 2.1-.42 3.37-1.03 3.81-1.83h-3.36v-.53h3.58c.08-.29.13-.61.16-.94h-3.33v-.53h3.39c.02-.27.04-.58.04-.93h-3.23v-2.03h3.25v-.97h-2.07v-1.42h-1.73zm1.12 3.44v1h2.65c.01-.3.02-.44.01-.4v-.25-.35zm1.19-2h3.52v-.91h-3.52zm4.71 2h-2.63v.59c0 .15-.01.28-.01.4h2.64z" fill="#fbfcfa"/><path d="m13.56 383.74h.63v1.52h2.72v6.07h1.13v.6h-11.06v-.6h1.13v-6.07h2.73v-1.52h.63v1.52h2.1v-1.52zm-2.69 8.83.38.56c-1.24.63-2.53 1.25-3.85 1.85-.1-.21-.21-.42-.34-.63 1.36-.55 2.63-1.15 3.81-1.78m-2.13-4.27h2.1v-2.45h-2.1zm0 3.04h2.1v-2.46h-2.1zm2.72-3.04h2.1v-2.45h-2.1zm0 3.04h2.1v-2.46h-2.1zm6.07 3.6c-1.41-.71-2.7-1.3-3.86-1.78l.35-.56c1.45.62 2.75 1.19 3.84 1.72zm-1.25-9.09h-2.1v2.45h2.1zm-2.09 5.49h2.1v-2.46h-2.1z" fill="#fbfcfa"/></svg>