<svg enable-background="new 0 0 400 400" viewBox="0 0 400 400" xmlns="http://www.w3.org/2000/svg"><g fill="#010000"><path d="m217.69 221.1c-13.13 5.81-26.59 9.64-37.68 18.58-1.18.95-4.25.98-5.57.11-6.21-4.1-7.01-11.48-4.22-18.39 6.22-15.41 9.64-31.15.82-46.99-1.95-3.49-.94-5 3.77-4.44 13.26 1.57 26.14-.69 39.08-2.98 3.1-.55 4.18-1.56 4.12-4.76-.2-9.8-.07-19.6-.07-29.7-12.08.43-24.65 4.79-34.5-7.58 11.98-1.25 23.17-2.42 34.54-3.6-1.16-14.67-1.77-28.3-9.75-40.21-.9-1.34-.83-3.32-1.21-5.01 1.68-.24 3.58-1.11 5.02-.62 6.4 2.18 12.76 4.53 18.93 7.26 3.58 1.59 4.33 4.75 3.91 8.78-.9 8.56-1.13 17.18-1.68 26.63 7.95-1.58 15.15-3.01 22.95-4.56-1.54-25.53 2.64-51.43-11.64-75.04.58-.31 1.16-.61 1.74-.92 2.23.2 4.65-.1 6.65.68 6.02 2.36 12 4.9 17.77 7.82 5.53 2.8 5.74 5.2 5.07 11.49-1.74 16.33-2.91 32.73-4.28 49.1-.05.6.21 1.23.47 2.62 7.52-2.95 14.82-5.53 21.87-8.67 6.57-2.93 13.1-3.14 19.18.32 5.71 3.26 11.04 7.29 16.15 11.47 2.95 2.41 2.81 4.92-1.01 7.48-3.29 2.2-6.18 5.53-8.19 8.98-3.17 5.42-5.64 11.28-7.96 17.13-.47 1.18.91 3.22 1.69 4.73.96 1.85 2.18 3.55 3.3 5.32-1.88.85-3.68 2.12-5.64 2.49-12.06 2.27-24.18 4.27-36.23 6.58-1.35.26-3.45 1.92-3.48 2.98-.27 9.78-.16 19.57-.16 30.28 10.43-2.78 20.2-5.21 29.86-8.05 4.91-1.44 9.71-3.38 14.36-5.54 4.71-2.19 9.5-2.44 13.93-.29 8.34 4.05 16.52 8.49 24.51 13.19 3.89 2.29 4.46 6.45 2.1 10.07-6.34 9.71-7.2 20.84-9.12 31.77-2.92 16.66-5.13 33.63-15.5 47.85-2.33 3.19-5.09 6.18-8.13 8.69-3.76 3.1-7.21 2.54-10.49-1.13-1.21-1.35-2.24-2.91-3.09-4.52-4.9-9.33-11.7-16.94-20.34-22.95-1.36-.94-2.56-2.12-3.76-3.26-.3-.28-.34-.83-.89-2.28 4.72.39 8.89.67 13.04 1.09 4.13.42 8.23 1.11 12.36 1.45 6.16.5 10.65-2.77 12.4-8.12 2.98-9.09 5.56-18.42 7.03-27.85.91-5.87.34-12.33-1.12-18.14-2.19-8.68-7.48-11.58-16.24-9.89-12.05 2.31-24 5.11-36.03 7.54-3.69.74-5.01 2.37-4.99 6.34.16 41.83.22 83.66 0 125.49-.04 7.59-1.21 15.21-2.39 22.73-.37 2.32-2.51 4.36-3.84 6.53-2.09-1.7-4.73-3.03-6.18-5.17-7.99-11.76-10.1-24.71-7.1-38.59 4.07-18.82 4.09-37.96 4.17-57.08.07-17.5-.01-35-.03-52.49 0-.98-.13-1.95-.22-3.39-6.9 1.31-13.59 2.34-20.11 4.05-1.18.31-2.18 3.31-2.37 5.16-1.64 16.08-4.37 31.93-10.62 46.91-9.9 23.73-24.04 44.13-47.27 56.77-4.22 2.3-8.96 3.66-14.31 4.58 32.28-29.29 51.45-65.01 56.62-108.83zm53.74-65.17c8.2-1.86 15.45-3.46 22.66-5.2 1-.24 2.53-1.08 2.64-1.81 1.43-9.94 2.95-19.89 3.75-29.9.28-3.49-2.42-4.98-6.25-3.91-6.52 1.83-13.17 3.21-19.69 5.04-1.21.34-2.95 1.88-2.97 2.9-.22 10.76-.14 21.52-.14 32.88zm-80.09 24.6c-.95 12.71-1.87 25.01-2.83 37.85 10.28-3.13 19.83-6.04 29.07-8.85 0-11.39 0-22.27 0-33.29-8.82 1.43-17.29 2.82-26.24 4.29zm42.41-51.12v33.87c7.65-1.55 14.85-3.01 21.93-4.44 0-11.59 0-22.52 0-33.86-7.45 1.5-14.56 2.94-21.93 4.43zm-.32 76.05c7.36-1.4 13.98-2.59 20.56-4 .78-.17 1.83-1.56 1.84-2.4.13-9.92.08-19.83.08-30.4-7.23 1.46-13.86 2.71-20.43 4.24-.85.2-1.95 1.79-1.97 2.75-.14 9.6-.08 19.21-.08 29.81z"/><path d="m117.85 154.21c-15.68 3.95-31.99 5.75-46.5 13.76-4.25 2.35-7.66 1.26-10.14-2.85-1.37-2.28-2.87-4.5-4.01-6.89-3.01-6.34-1.36-9.96 4.58-13.63 4.3-2.66 8.7-5.82 11.71-9.78 13.97-18.36 24.72-38.6 32.37-60.35 1.67-4.75.95-10.34 1.29-15.54.04-.65-.3-1.36-.17-1.98.49-2.35 1.09-4.67 1.65-7 2.17.6 4.76.63 6.44 1.89 5.55 4.17 11.25 8.33 15.98 13.35 4.39 4.66 3.04 7.03-.94 11.96-7.28 9.02-14.12 18.44-20.52 28.1-9.27 13.99-17.98 28.35-27.42 43.34 5.6 0 10.61.12 15.61-.03 7.15-.22 14.31-.43 21.42-1.09 1.97-.18 4.62-1.47 5.55-3.07 3.68-6.3 7.43-12.7 9.94-19.51 1.95-5.3 2.61-11.22 2.94-16.92.4-6.87 3.39-9.55 8.95-5.79 6.37 4.31 12.02 9.8 17.54 15.22 2.69 2.64 2.5 6.36-.96 8.59-11.78 7.6-19.5 18.94-27.83 29.72-12.21 15.8-24.3 31.68-36.45 47.53-.1.13-.24.25-.3.4-.91 2.2-1.81 4.4-2.71 6.6 2.33.19 4.84 1.04 6.96.46 10.68-2.89 21.26-6.16 31.93-9.31-2.05-5.29-4.09-9.84-5.51-14.56-.55-1.84.27-4.1.47-6.17 1.86.24 3.96.02 5.55.81 10.06 5.01 19.59 10.95 21.07 23.32.51 4.26-1.25 9.04-2.91 13.22-1.19 3-4.38 3.06-6.58.61-2.85-3.19-5.3-6.74-8.78-11.24-14.07 7.36-28.5 14.77-42.77 22.48-2.54 1.37-4.48 3.92-6.56 6.06-3.76 3.88-7.35 4.29-10.43-.14-3.26-4.68-5.62-10.07-7.75-15.4-.59-1.48.4-4.72 1.72-5.65 13.38-9.47 21.96-23.08 31.37-35.93 5.55-7.57 10.49-15.58 15.7-23.39-.51-.4-1-.8-1.5-1.2z"/><path d="m43.82 268.71c1.13-.4 1.53-.69 1.73-.59 13.13 6.46 26.81 12.57 30.84 28.56 1.25 4.98 1.1 10.51.61 15.69-.58 6.12-5.93 8.4-10.83 4.66-2.93-2.24-5.68-5.33-7.23-8.64-5.11-10.95-9.71-22.15-14.29-33.34-.8-1.96-.59-4.35-.83-6.34z"/><path d="m125.27 280.31c-.32 1.23-.62 3.58-1.54 5.65-2.21 4.98-6.29 5.92-10.38 2.25-8.74-7.85-13.94-18.05-18.16-28.76-.52-1.32-.18-3.4.58-4.61.39-.62 2.8-.51 3.97.01 5.59 2.5 11.3 4.87 16.51 8.04 5.91 3.58 8.67 9.4 9.02 17.42z"/><path d="m132.84 240.07c3.65 1.17 7.46 1.98 10.91 3.58 5.06 2.33 10.35 4.61 14.66 8.02 5.7 4.5 6.96 13.36 4.11 20.02-1.32 3.09-3.71 5.08-6.56 3.01-11.56-8.37-18.51-20.22-24.68-32.55.52-.69 1.04-1.38 1.56-2.08z"/></g><path d="m6.44 374.46.42-.45c.65.47 1.27.95 1.85 1.44l-.45.49c-.65-.56-1.25-1.06-1.82-1.48m.93 7.33-.63-.26c.55-1.36 1.05-2.8 1.52-4.33.19.1.38.19.59.27-.46 1.29-.95 2.73-1.48 4.32m-.38-10.38.44-.42c.43.34 1.01.82 1.74 1.44l-.49.49c-.53-.51-1.09-1.01-1.69-1.51m2.5.35h1.72v-1.04h.59v1.04h3.52v-1.04h.59v1.04h1.75v.53h-1.75v1.42h-2.03v.97h3.22v2.03h-3.24c0 .35-.01.66-.03.93h3.32v.53h-3.37c-.03.27-.08.58-.15.94h3.96v.53h-3.71c.67.92 1.93 1.48 3.79 1.68-.13.24-.23.44-.29.59-2.13-.38-3.48-1.08-4.04-2.12-.43.97-1.77 1.72-4.03 2.23-.09-.19-.2-.37-.33-.55 2.1-.42 3.37-1.03 3.81-1.83h-3.36v-.53h3.58c.08-.29.13-.61.16-.94h-3.33v-.53h3.39c.02-.27.04-.58.04-.93h-3.23v-2.03h3.25v-.97h-2.07v-1.42h-1.73zm1.12 3.44v1h2.65c.01-.3.02-.44.01-.4v-.25-.35zm1.19-2h3.52v-.91h-3.52zm4.71 2h-2.63v.59c0 .15-.01.28-.01.4h2.64z" fill="#fbfcfa"/><path d="m13.56 383.74h.63v1.52h2.72v6.07h1.13v.6h-11.06v-.6h1.13v-6.07h2.73v-1.52h.63v1.52h2.1v-1.52zm-2.69 8.83.38.56c-1.24.63-2.53 1.25-3.85 1.85-.1-.21-.21-.42-.34-.63 1.36-.55 2.63-1.15 3.81-1.78m-2.13-4.27h2.1v-2.45h-2.1zm0 3.04h2.1v-2.46h-2.1zm2.72-3.04h2.1v-2.45h-2.1zm0 3.04h2.1v-2.46h-2.1zm6.07 3.6c-1.41-.71-2.7-1.3-3.86-1.78l.35-.56c1.45.62 2.75 1.19 3.84 1.72zm-1.25-9.09h-2.1v2.45h2.1zm-2.09 5.49h2.1v-2.46h-2.1z" fill="#fbfcfa"/></svg>