<svg enable-background="new 0 0 400 400" viewBox="0 0 400 400" xmlns="http://www.w3.org/2000/svg"><g fill="#010000"><path d="m280.6 303.24c6.16 1.68 12.32 3.36 18.49 5.04 1.92.52 3.82 1.15 5.76 1.57 8.06 1.73 11.49-.37 12.81-8.63 1.1-6.88 2.18-13.87 2.1-20.8-.37-31.41-1.14-62.82-1.78-94.22-.45-22.13-.82-44.27-1.45-66.4-.22-7.63-.89-15.27-1.75-22.85-1.21-10.66-6.79-14.53-17.49-13.28-19.8 2.31-39.63 4.33-59.45 6.49-9.08.99-18.15 2.02-27.49 3.06-.11 1.06-.33 2.18-.34 3.3-.33 21.3.12 42.66-1.12 63.91-2.19 37.18-6.25 74.16-19.73 109.34-8.16 21.29-21.25 39.08-39.29 53.05-2.91 2.25-6.67 3.4-10.04 5.05-.42-.56-.83-1.11-1.25-1.67 1.55-2.47 2.81-5.2 4.71-7.36 18.93-21.55 29.1-47.37 36.72-74.48 6.31-22.44 10.64-45.25 11.9-68.53 1.07-19.76 1.78-39.56 1.88-59.34.06-11.58-.62-23.33-7.06-33.72-.56-.9-.57-2.14-1.12-4.37 4.24.63 7.95.57 11.21 1.78 8.77 3.24 17.62 2.75 26.55 1.57 19.41-2.58 38.86-4.93 58.2-7.94 8.47-1.32 16.86-3.59 25.02-6.23 6.19-2 11.72-1.74 17.18 1.51 5.85 3.49 11.72 6.98 17.44 10.67 3.49 2.25 4.83 4.98 2.01 9.11-6 8.8-8.01 18.88-8.15 29.36-.26 18.96-1.22 37.96-.48 56.89 1.17 29.88 3.57 59.71 5.34 89.57 1.53 25.73 1.56 51.28-10.89 75-2.44 4.65-4.12 11.88-9.54 11.56-3.67-.22-7.72-6.18-10.29-10.38-6.76-11.04-15.04-20.7-24.25-29.68-1.95-1.9-3.61-4.11-5.4-6.18.34-.58.69-1.18 1.04-1.77z"/><path d="m81.14 154.27c11.51-.65 21.42-1.81 31.31-1.6 8.76.19 12.81-3.99 15.86-11.51 3.81-9.38 8.9-18.25 8.45-28.86-.12-2.96 1.76-3.84 4.31-3.08 7.6 2.28 14.51 5.79 19.89 11.82 2.91 3.25 2.73 6.39 0 9.82-20.05 25.29-40.03 50.63-59.96 76.02-1.66 2.11-2.78 4.64-4.73 7.97 14.91-4.9 28.49-9.37 42.32-13.92-1.58-4.63-3.23-8.94-4.51-13.36-1.34-4.6.05-6.07 4.53-4.65 15.58 4.96 25.34 14.8 23.58 30.6-.43 3.85-1.48 7.31-5.48 8.71-4.2 1.47-6.48-1.74-8.63-4.37-2.41-2.94-4.38-6.24-7.38-10.6-16.67 10.11-33.55 19.96-50 30.49-6.8 4.35-9.99 4.52-14.2-2.39-4.56-7.5-7.32-15.3 3.67-24.35 16.99-13.99 26.9-33.54 38.47-52.34-5.56 1.31-11.21 2.33-16.67 3.98-9.53 2.88-18.98 6.05-28.4 9.26-5.52 1.88-7.35 1.38-9.9-3.99-1.42-2.98-2.65-6.12-3.46-9.31-.98-3.88.14-6.54 3.52-9.76 7.38-7.05 14.66-14.75 19.84-23.46 8.21-13.81 14.78-28.61 21.81-43.11 3.31-6.82 3.11-14.16 2.1-21.54-.24-1.78-.15-4.22.89-5.35.77-.84 3.68-.66 5 .13 6.42 3.79 12.91 7.56 18.81 12.08 4.33 3.31 3.67 6.36.52 10.77-16.05 22.45-31.91 45.03-47.75 67.63-1.37 1.97-2.06 4.4-3.81 8.27z"/><path d="m249.54 135.28c-1.39-12.17-.48-24.53-7.73-35.22-1.73-2.54-.64-4.26 2.14-5.34 6.76-2.61 23.1 3.31 26.1 9.8.65 1.4.3 3.45-.09 5.09-1.61 6.89-3.41 13.74-5.33 21.38 5.34-.6 9.73-1.31 14.14-1.52 3.43-.17 7.01-.19 10.3.62 1.9.47 4.43 2.56 4.7 4.24.26 1.64-1.56 4.69-3.2 5.38-6.69 2.81-13.66 5-20.55 7.33-1.85.62-3.8.93-5.85 1.41-.06 1.17-.15 2.15-.15 3.13-.01 6.99-.01 13.97-.01 21.39 5.98-.89 11.63-2.43 17.27-2.39 6.34.04 12.7 1.32 18.97 2.5 1.44.27 2.54 2.32 3.8 3.54-1.31 1.14-2.44 2.89-3.94 3.31-9.72 2.74-19.43 5.72-29.34 7.59-11.07 2.08-22.31 3.58-33.54 4.35-7.43.5-14.78-1.4-22.38-6.7 3.55-1.35 5.96-2.57 8.52-3.18 7.59-1.81 15.26-3.29 22.84-5.13 1.26-.31 3.18-1.72 3.21-2.69.27-7.45.15-14.92.15-22.63-10.4-1.18-20.88.04-30.7-6.52 9.91-5.85 20.34-6.55 30.67-9.74z"/><path d="m234.91 281.42c-1.51-2.74-3.04-4.92-3.97-7.33-6.22-16.1-12.3-32.26-18.46-48.39-1.21-3.18-.1-4.78 3.18-5.05.83-.07 1.69-.18 2.49-.04 18.65 3.23 35.91-2.55 52.91-8.76 7.14-2.61 13.38-2.29 19.39 1.62 4.7 3.05 9.1 6.65 13.25 10.43 2.73 2.49 2.79 5.15-.84 7.73-7.03 4.98-9.24 13.16-12.41 20.61-.36.84.59 2.42 1.22 3.48 3.56 6.03 2.58 8.63-4.42 9.98-11.56 2.24-23.15 4.35-34.78 6.17-5.74.9-11.55 1.04-14.33 7.5-.32.74-1.61 1.06-3.23 2.05zm-1.97-50.5c2.38 11.19 4.8 22.6 7.26 34.18 11.89-2.79 23.03-5.33 34.1-8.09 1.28-.32 3.07-1.8 3.22-2.92.98-7.39 1.85-14.82 2.2-22.26.25-5.28-3.5-8.47-8.71-7.61-12.55 2.06-25.06 4.39-38.07 6.7z"/><path d="m87.47 305.9c-2.34 4.42-4.21 9.19-7.14 13.17-3.05 4.14-6.75 3.93-10-.08-2.06-2.54-3.96-5.49-4.97-8.57-3.3-10.08-6.33-20.26-9.11-30.49-1.2-4.43 1.03-6.79 4.63-5.23 11.9 5.17 21.3 12.88 24.86 26.06.17.64.26 1.3.32 1.96.08.83.08 1.66.12 2.49.43.23.86.46 1.29.69z"/><path d="m163.73 263.59c-1.07 3.61-1.81 7.37-3.28 10.81-2.37 5.58-5.87 6.4-9.76 1.87-3.97-4.63-7.43-9.8-10.38-15.14-2.87-5.2-5.17-10.79-7.04-16.43-1.75-5.28 1.08-7.98 6.2-5.82 5.74 2.43 11.34 5.41 16.53 8.87 5.36 3.57 7.28 9.26 7.73 15.84z"/><path d="m124.51 282.42c-.15 1.82.31 4.03-.56 5.37-1.9 2.92-4.05 6.39-6.96 7.65-1.6.69-6.22-2.04-7.28-4.27-4.98-10.56-9.45-21.4-13.57-32.33-1.36-3.61 1.3-5.8 4.54-3.85 6.62 3.99 13.51 7.95 18.97 13.29 3.29 3.22 4.08 8.99 5.99 13.62-.38.18-.75.35-1.13.52z"/></g><path d="m6.44 374.46.42-.45c.65.47 1.27.95 1.85 1.44l-.45.49c-.65-.56-1.25-1.06-1.82-1.48m.93 7.33-.63-.26c.55-1.36 1.05-2.8 1.52-4.33.19.1.38.19.59.27-.46 1.29-.95 2.73-1.48 4.32m-.38-10.38.44-.42c.43.34 1.01.82 1.74 1.44l-.49.49c-.53-.51-1.09-1.01-1.69-1.51m2.5.35h1.72v-1.04h.59v1.04h3.52v-1.04h.59v1.04h1.75v.53h-1.75v1.42h-2.03v.97h3.22v2.03h-3.24c0 .35-.01.66-.03.93h3.32v.53h-3.37c-.03.27-.08.58-.15.94h3.96v.53h-3.71c.67.92 1.93 1.48 3.79 1.68-.13.24-.23.44-.29.59-2.13-.38-3.48-1.08-4.04-2.12-.43.97-1.77 1.72-4.03 2.23-.09-.19-.2-.37-.33-.55 2.1-.42 3.37-1.03 3.81-1.83h-3.36v-.53h3.58c.08-.29.13-.61.16-.94h-3.33v-.53h3.39c.02-.27.04-.58.04-.93h-3.23v-2.03h3.25v-.97h-2.07v-1.42h-1.73zm1.12 3.44v1h2.65c.01-.3.02-.44.01-.4v-.25-.35zm1.19-2h3.52v-.91h-3.52zm4.71 2h-2.63v.59c0 .15-.01.28-.01.4h2.64z" fill="#fbfcfa"/><path d="m13.56 383.74h.63v1.52h2.72v6.07h1.13v.6h-11.06v-.6h1.13v-6.07h2.73v-1.52h.63v1.52h2.1v-1.52zm-2.69 8.83.38.56c-1.24.63-2.53 1.25-3.85 1.85-.1-.21-.21-.42-.34-.63 1.36-.55 2.63-1.15 3.81-1.78m-2.13-4.27h2.1v-2.45h-2.1zm0 3.04h2.1v-2.46h-2.1zm2.72-3.04h2.1v-2.45h-2.1zm0 3.04h2.1v-2.46h-2.1zm6.07 3.6c-1.41-.71-2.7-1.3-3.86-1.78l.35-.56c1.45.62 2.75 1.19 3.84 1.72zm-1.25-9.09h-2.1v2.45h2.1zm-2.09 5.49h2.1v-2.46h-2.1z" fill="#fbfcfa"/></svg>