<svg enable-background="new 0 0 400 400" viewBox="0 0 400 400" xmlns="http://www.w3.org/2000/svg"><g fill="#010000"><path d="m104.27 345.22c2.9-.36 5.79-.9 8.7-1.05 20.89-1.04 41.79-1.84 62.67-3.02 14.94-.84 29.85-2.17 44.77-3.21 12.11-.84 24.25-1.46 36.34-2.48 1.66-.14 4.25-1.8 4.58-3.19 2.04-8.66 3.57-17.45 5.41-26.96-13.51.78-26.62 1.04-39.61 2.41-22.62 2.39-45.14 5.62-67.74 8.21-10.37 1.19-20.14-1.32-29.19-6.52-.86-.49-1.67-1.1-2.41-1.75-.33-.29-.44-.84-.86-1.7 1.78-.35 3.35-.83 4.94-.93 21.86-1.34 43.77-2.19 65.58-4.06 21.34-1.83 42.58-4.84 63.89-7 5.19-.53 8.27-2.11 8.66-7.68.23-3.29 1.25-6.52 1.6-9.81.63-6.02-1.47-8.75-7.49-8.37-13.25.85-26.48 2.1-39.69 3.46-16.19 1.67-32.37 3.54-48.53 5.5-11.04 1.34-22.15 2.48-33.05 4.62-11.01 2.17-18.77-2.49-26.64-10.18 1.86-.33 2.92-.7 3.98-.68 27.75.4 54.85-5.28 82.17-8.83 19.58-2.54 39.02-6.08 58.56-8.96 16.09-2.37 29.71 3.64 42.02 13.3 3.19 2.5 4.97 6.23 1.4 9.39-9.11 8.06-13.36 18.93-18.02 29.56-3.13 7.14-5.54 14.6-8.51 21.82-1.07 2.6-.66 4.18 1.43 6.03 2.73 2.41 5.3 5.1 7.45 8.03 2.62 3.57 1.54 5.78-2.85 6.62-1.29.25-2.66.09-3.99.18-23.87 1.64-47.75 3.28-71.62 4.95-14.43 1.01-28.86 2.08-43.29 3.14-11.6.85-23.19 2.02-34.8 2.52-10.68.46-18.65-5.47-26.22-11.87.12-.47.24-.98.36-1.49z"/><path d="m153.88 144.8c7.81-1.22 14.76-2.46 21.75-3.35 6-.76 12.1-1.76 18.07-1.4 3.07.19 6.35 2.69 8.88 4.9 3.89 3.41 3.22 6.61-1.9 7.86-6.58 1.61-13.4 2.27-20.13 3.24-8.68 1.25-17.38 2.4-26.13 3.6v20.81c6.64-1.08 12.98-2.14 19.33-3.16 7.03-1.13 13.67-.18 19.3 4.45 1.39 1.15 2.78 3.15 2.81 4.79.02.97-2.53 2.59-4.11 2.87-9.46 1.72-18.97 3.17-28.47 4.65-2.91.45-5.86.72-8.78 1.07v20.73c10.37-1.86 20.32-3.55 30.23-5.44 6.16-1.18 11.22.76 15.31 5.16 3.4 3.65 2.6 6.45-2.29 7.41-6.83 1.34-13.79 2.03-20.68 3.08-6.57 1-13.1 2.19-19.68 3.13-2.83.41-3.17 2-3.32 4.48-.5 8.11-1.12 16.23-2.15 24.29-.26 2.01-1.9 4.9-3.5 5.37-1.5.44-4.22-1.37-5.66-2.89-5.27-5.55-9.65-11.55-7.22-20.02.48-1.67.07-3.59.07-6.24-8.66 2.03-17 3.79-25.23 5.99-7.53 2.01-15.06 4.16-22.38 6.84-14.92 5.47-25.79.53-37.01-10.04-2.66-2.51-1.76-4.67 1.7-5.13 6.08-.81 12.22-1.69 18.33-1.73 19.67-.15 38.39-5.65 57.35-9.77 7.46-1.62 7.42-1.81 7.42-9.61 0-3.63 0-7.26 0-11.51-6.11.89-11.67 1.51-17.15 2.54-10.97 2.05-19.26-2.55-27.86-10.92 3.33-.85 5.51-1.68 7.75-1.92 11.08-1.16 22.17-2.14 33.26-3.25 1.27-.13 2.49-.7 3.74-1.06 0-7.67 0-15.11 0-23.22-8.97 1.47-17.61 2.76-26.2 4.31-8.11 1.47-20.01-5.69-22.71-14.82 15.74-1.07 31.29-2.13 47.28-3.22-.2-10.73-1.82-20.36-6.63-29.35-.89-1.66-1.26-3.59-1.88-5.39 2.03-.35 4.27-1.42 6.06-.92 7.14 1.99 14.25 4.21 21.17 6.86 4.13 1.58 5.18 5.03 4.1 9.48-1.17 4.92-1.75 10.02-2.84 16.45z"/><path d="m278.59 128.71c10.71-1.59 19.87-2.85 28.99-4.34 6.82-1.11 12.91-.2 17.78 5.18 3.9 4.31 3.33 7.17-2.32 8.4-7.94 1.72-16.03 2.79-24.05 4.15-6.36 1.08-12.72 2.17-19.3 3.3v21.84c9.28-.44 18.33-1.06 27.39-1.21 3.6-.06 7.3.6 10.79 1.53 1.64.44 3.93 2.18 4.06 3.52.14 1.43-1.61 3.96-3.07 4.46-6.23 2.16-12.58 4.1-19.02 5.44-6.47 1.34-13.12 1.86-20.26 2.81-.49 6.25-1.01 12.8-1.6 20.26 3.16-.35 5.86-.69 8.56-.95 14.22-1.37 28.42-3.24 42.68-3.89 8.76-.39 17.21 2.16 23.02 9.66 1.01 1.31 2.1 3.9 1.5 4.79-.88 1.32-3.23 2.27-4.98 2.3-12.33.21-24.66-.11-36.98.23-10.95.31-21.89 1.26-33.1 1.94-1.2 5.58-2.12 11.11-3.63 16.47-.88 3.13-2.35 6.23-4.15 8.95-2.39 3.62-5 3.41-6.34-.74-1.97-6.13-3.14-12.51-4.63-18.79-.19-.78-.29-1.58-.53-2.9-8.71 1.22-17.31 1.88-25.66 3.72-11 2.43-19.55-1.08-26.84-8.96-1.19-1.29-2.05-2.88-3.88-5.5 3.54-.21 5.9-.29 8.25-.49 14.87-1.27 29.73-2.66 44.61-3.8 3.2-.24 3.82-1.68 3.74-4.44-.14-4.96-.04-9.92-.04-15.47-7.13 0-13.76.58-20.23-.23-3.68-.46-7.21-3-10.54-5.02-1.14-.69-2.44-3.2-2.02-3.96.75-1.36 2.66-2.56 4.26-2.87 5.05-.95 10.18-1.5 15.29-2.12 4.12-.5 8.25-.89 12.8-1.37 0-7.28 0-14.49 0-21.65-7.8-.61-15.57-.88-23.22-1.95-3.66-.51-7.21-2.33-10.61-3.99-1.39-.68-2.21-2.5-3.29-3.8 1.36-.8 2.64-2.03 4.1-2.32 7.31-1.45 14.68-2.66 22.02-3.94 1.47-.26 2.95-.46 4.43-.73 7.77-1.41 7.54-1.4 6.75-9.56-.78-8.13-1.49-16.16-5.83-23.42-1.69-2.83-.17-4.46 2.93-4.44 8.73.06 16.75 2.38 23.53 8.09 3.12 2.62 3.81 5.83 2.5 9.86-1.49 4.65-2.34 9.54-3.86 15.95z"/><path d="m229.12 86.55c-19.49 1.99-38.09 3.89-56.71 5.8-1.37 11.04 2.15 22.04-4.67 32.39-7.68-9.04-8.77-19.83-12.04-30.56-16.98 2.77-34.01 5.19-50.88 8.41-13.68 2.61-23.7-3.9-33.46-11.75-.39-.31-.34-1.18-.66-2.43 27.54-1.69 54.76-3.35 83.03-5.08-2.62-7.43-4.29-14.07-7.26-20.05-2.88-5.81-7.09-10.95-11.37-17.35 3.01-.23 5.35-.69 7.63-.5 3.47.29 6.95.8 10.33 1.62 12.96 3.15 15.66 6.69 16.03 19.99.12 4.12.68 8.24 1.1 13.05 5.5-.43 10.74-.76 15.97-1.25 14.23-1.31 28.45-2.62 42.65-4.16 1.3-.14 3.16-1.83 3.48-3.11 3.21-12.8 5.58-25.66 1.94-38.85-.52-1.89.26-4.13.44-6.21 2.06.24 4.37-.06 6.12.8 6.4 3.15 12.79 6.4 18.85 10.16 5.81 3.61 5.69 6.15 2.12 11.81-4.66 7.39-8.71 15.16-13.57 23.75 9.07-.94 16.8-1.6 24.49-2.56 11.03-1.38 22.01-3.14 33.05-4.42 11.18-1.3 20.14 3.4 27.3 11.57 1.68 1.91 2 5.01 2.95 7.56-2.57.72-5.16 2.11-7.72 2.06-25.95-.47-51.89-1.09-77.83-1.91-4.23-.13-6.52 1.11-8.47 4.98-3.59 7.11-7.89 13.85-11.96 20.71-.76 1.28-1.63 2.62-2.78 3.48-1.2.9-2.8 1.25-4.23 1.84-.46-1.35-1.55-2.82-1.29-4.01 1.33-6.13 2.94-12.21 4.6-18.27.62-2.2 1.6-4.29 2.82-7.51z"/></g><path d="m6.44 374.46.42-.45c.65.47 1.27.95 1.85 1.44l-.45.49c-.65-.56-1.25-1.06-1.82-1.48m.93 7.33-.63-.26c.55-1.36 1.05-2.8 1.52-4.33.19.1.38.19.59.27-.46 1.29-.95 2.73-1.48 4.32m-.38-10.38.44-.42c.43.34 1.01.82 1.74 1.44l-.49.49c-.53-.51-1.09-1.01-1.69-1.51m2.5.35h1.72v-1.04h.59v1.04h3.52v-1.04h.59v1.04h1.75v.53h-1.75v1.42h-2.03v.97h3.22v2.03h-3.24c0 .35-.01.66-.03.93h3.32v.53h-3.37c-.03.27-.08.58-.15.94h3.96v.53h-3.71c.67.92 1.93 1.48 3.79 1.68-.13.24-.23.44-.29.59-2.13-.38-3.48-1.08-4.04-2.12-.43.97-1.77 1.72-4.03 2.23-.09-.19-.2-.37-.33-.55 2.1-.42 3.37-1.03 3.81-1.83h-3.36v-.53h3.58c.08-.29.13-.61.16-.94h-3.33v-.53h3.39c.02-.27.04-.58.04-.93h-3.23v-2.03h3.25v-.97h-2.07v-1.42h-1.73zm1.12 3.44v1h2.65c.01-.3.02-.44.01-.4v-.25-.35zm1.19-2h3.52v-.91h-3.52zm4.71 2h-2.63v.59c0 .15-.01.28-.01.4h2.64z" fill="#fbfcfa"/><path d="m13.56 383.74h.63v1.52h2.72v6.07h1.13v.6h-11.06v-.6h1.13v-6.07h2.73v-1.52h.63v1.52h2.1v-1.52zm-2.69 8.83.38.56c-1.24.63-2.53 1.25-3.85 1.85-.1-.21-.21-.42-.34-.63 1.36-.55 2.63-1.15 3.81-1.78m-2.13-4.27h2.1v-2.45h-2.1zm0 3.04h2.1v-2.46h-2.1zm2.72-3.04h2.1v-2.45h-2.1zm0 3.04h2.1v-2.46h-2.1zm6.07 3.6c-1.41-.71-2.7-1.3-3.86-1.78l.35-.56c1.45.62 2.75 1.19 3.84 1.72zm-1.25-9.09h-2.1v2.45h2.1zm-2.09 5.49h2.1v-2.46h-2.1z" fill="#fbfcfa"/></svg>