<svg enable-background="new 0 0 400 400" viewBox="0 0 400 400" xmlns="http://www.w3.org/2000/svg"><g fill="#010000"><path d="m82.62 82.56c27.3-1.67 54.06-3.3 81.67-4.99-2.82-9.75-6.1-18.54-12.76-25.85-1.77-1.94-2.9-4.47-4.33-6.73 2.54-.36 5.15-1.3 7.59-.95 5.89.83 11.82 1.84 17.49 3.58 6.07 1.87 7.56 4.82 7.82 11.22.2 4.94.75 9.87 1.21 15.52 9.66-.97 18.88-1.79 28.07-2.85 9.24-1.07 18.43-2.59 27.68-3.5 4.15-.41 6.4-1.56 7.43-6.11 2.06-9.12 4.51-18 .72-27.27-1.2-2.94.03-4.98 3.54-4.68 9.09.77 16.98 4.49 23.78 10.4 2.64 2.3 2.18 5.19.32 8.12-3.37 5.29-6.48 10.74-10.36 17.23 10.79-1.17 20.27-2.13 29.74-3.24 6.6-.77 13.14-2.06 19.75-2.55 11.08-.82 19.36 5.15 26.72 12.38 3.11 3.06 1.54 6.18-3.29 6.58-5.13.43-10.32.18-15.48.12-19.81-.24-39.61-.6-59.42-.69-1.55-.01-3.63 1.34-4.56 2.68-4.08 5.87-7.82 11.97-11.7 17.97-1.27 1.97-2.57 3.91-3.79 5.76 3.37 2.69 8.15 6.52 12.94 10.35-.22.59-.44 1.19-.66 1.78-17 5.49-34.93 6.36-54.03 9.92 7.51 2.67 12.39 6.26 10.1 14.61 11.52-.97 22.24-1.71 32.94-2.81 17.03-1.75 34.02-3.84 51.04-5.61 11.55-1.2 23.11-2.51 34.69-2.97 9.73-.39 18.75 2.77 26.33 9.02 1.95 1.61 4.31 4.82 3.86 6.67-.45 1.86-4.07 4.03-6.43 4.18-10.27.67-20.58.82-30.87.85-18.81.06-37.63-.41-56.43-.04-13.12.26-26.21 1.54-39.32 2.39-4.97.32-9.93.73-15.22 1.13v17.37c4.33 0 8.8.46 13.15-.09 13.29-1.68 26.53-3.81 39.81-5.59 2.89-.39 6.04-.69 8.78.05 11.11 3 20.66 9.01 29.25 16.54 2.68 2.34 2.59 5.04.27 7.9-12.06 14.85-23.98 29.82-36.07 44.64-4.93 6.04-7.75 5.82-15.12 3.16-3.87-1.39-8.76-.21-13.15.18-8.6.77-17.17 1.99-25.78 2.64-3.45.26-4.61 1.42-4.43 4.83.25 4.79.06 9.61.06 15.04 9.44-1.6 18.37-3.06 27.29-4.63 8.09-1.42 16.18-2.88 23.7 1.97 2.16 1.4 4.06 3.22 6.45 5.15-5.66 4.51-11.8 4.17-17.61 4.63-13.06 1.04-26.15 1.78-39.51 2.66v16.42c6.34-.56 12.57-.92 18.74-1.69 14.33-1.8 28.6-4.01 42.95-5.64 8.98-1.02 17.24.94 23.55 8.17 3.63 4.17 3.07 6.48-2.45 7.2-9.54 1.25-19.13 2.23-28.74 2.85-23.89 1.56-47.84 2.44-71.7 4.4-17.53 1.44-34.98 4.02-52.43 6.34-10.1 1.34-19.14-.93-27.34-6.79-1.26-.9-2.29-2.13-4.53-4.27 29.54-2.9 57.62-5.66 85.95-8.45 0-5.42 0-10 0-15.47-8.08 1-16.08 1.8-24.01 3.04-10.19 1.58-18.87-1.22-26.54-8.61 16.62-3.56 33.63-3.31 50.56-5.97 0-6.22 0-12.29 0-18.99-6.79.76-13.45 1.52-20.12 2.27-4.95.55-9.9 1.3-14.86 1.53-2.97.14-4.75.59-5.72 3.95-1.54 5.31-4.39 5.87-7.42 1.28-5.03-7.61-9.44-15.64-14.02-23.54-7.41-12.79-14.81-25.6-22.05-38.48-1.13-2.01-1.41-4.5-2.09-6.77 2.34-.38 4.68-.96 7.03-1.1 9.58-.54 19.21-.53 28.74-1.5 16.36-1.66 32.65-3.89 48.98-5.89.47-.06.91-.29 1.6-.52 0-5.59 0-11.18 0-17.31-6.99.8-13.7 1.52-20.39 2.34-17.8 2.18-35.59 4.47-53.4 6.6-13.69 1.64-27.44 2.88-41.1 4.76-10.57 1.46-19.75-1.17-27.96-7.72-.92-.73-1.5-1.89-3.25-4.16 25.14-1.64 48.91-2.74 72.58-4.85 23.81-2.12 47.54-5.26 71.87-8.01 0-2.14.05-3.91-.01-5.68-.32-9.08-1.37-9.85-10.38-8.54-6.07.88-12.18 1.73-18.3 2.05-3.71.19-7.47-.64-11.43-1.98 1.91-.67 3.8-1.4 5.74-2 17.27-5.38 34.71-10.28 51.73-16.33 6.16-2.19 11.13-7.54 17.06-10.66 3.41-1.79 7.65-2.01 12.32-3.13 1.15-4.91 2.68-11.47 4.52-19.37-19.36 1.53-37.98 2.99-56.83 4.48.3 5.62.73 10.37.75 15.11.01 2.62-.43 5.31-1.14 7.83-.41 1.44-1.77 2.61-2.7 3.89-1.24-.94-2.99-1.62-3.64-2.87-2.91-5.59-5.52-11.33-8.22-17.03-.42-.88-.73-1.82-1.28-3.22-9.44 1.32-18.78 2.67-28.12 3.91-9.54 1.27-19.07 3.12-28.65 3.43-10.04.33-18.41-4.97-26.19-10.88-.56-.4-.8-1.27-1.53-2.5zm125.72 99.93v19.75c16.35-1.23 32.37-2.4 48.38-3.68 5.21-.42 8.95-6.04 9.32-12.77.33-6.1-3.67-6.58-8.02-6.95-1.81-.15-3.65-.55-5.44-.39-14.66 1.28-29.31 2.66-44.24 4.04zm-17.85 3.72c-19.62 1.97-38.86 3.91-58.59 5.89 1.73 5.22 3.5 9.85 4.77 14.62.82 3.09 2.54 3.23 5.15 2.9 8.39-1.03 16.81-1.84 25.22-2.81 7.85-.91 15.69-1.91 23.46-2.87-.01-6.21-.01-11.79-.01-17.73zm70.38 21.49c-18.97 1.59-36.71 3.07-54.4 4.55v18.93c14.15-.76 28.01-1.49 41.87-2.3.86-.05 2.1-.53 2.45-1.19 3.27-6.27 6.39-12.61 10.08-19.99zm-70.34 6.6c-16.59 1.03-32.88 2.04-49.55 3.08 2.27 5.62 4.75 10.86 6.48 16.34 1.33 4.22 2.97 6.12 7.7 4.54 3.08-1.03 6.55-.91 9.83-1.38 8.5-1.22 17-2.48 25.54-3.73 0-6.56 0-12.63 0-18.85z"/><path d="m334.1 344.66c-.09 1.23-.02 2.1-.24 2.88-1.22 4.45-1.75 10.44-7.02 10.92-3.54.33-8.35-2.32-11.02-5.14-11.43-12.05-22.43-24.52-33.21-37.15-2.26-2.65-2.91-6.66-4.31-10.04 3.61.12 7.39-.42 10.79.49 11.58 3.11 22.8 7.24 32.16 15.13 7.25 6.12 12.12 13.57 12.85 22.91z"/><path d="m107.45 328.05c-1.51 16.09-9.66 28.27-22.4 37.58-3.3 2.41-7.16 2.41-10.6-.44-4.39-3.63-6.83-9.49-4.83-13.57 1.49-3.02 3.96-5.61 6.22-8.2 6.41-7.32 12.85-14.62 19.48-21.74 2.33-2.51 5.22-4.5 7.85-6.73 1.37 3.21 2.82 6.38 4.05 9.64.39 1.03.17 2.3.23 3.46z"/><path d="m256.41 340.84c-.52 2.06-.84 4.21-1.61 6.19-2.65 6.82-7.19 8.29-12.66 3.33-10.29-9.33-18.33-20.5-24.53-32.94-1.34-2.68-.87-4.46 2.5-4.8 10.32-1.04 31.64 12.48 34.96 22.29.62 1.85.87 3.83 1.34 5.93z"/><path d="m142.18 320.5c11.52-2.84 33.79 8.9 37.35 18.89.55 1.53.83 3.26.8 4.88-.08 4.59-.6 9.51-5.2 11.62-4.49 2.06-8.05-1.25-10.81-4.38-6.38-7.22-12.64-14.57-18.55-22.18-1.84-2.37-2.39-5.77-3.59-8.83z"/></g><path d="m6.44 374.46.42-.45c.65.47 1.27.95 1.85 1.44l-.45.49c-.65-.56-1.25-1.06-1.82-1.48m.93 7.33-.63-.26c.55-1.36 1.05-2.8 1.52-4.33.19.1.38.19.59.27-.46 1.29-.95 2.73-1.48 4.32m-.38-10.38.44-.42c.43.34 1.01.82 1.74 1.44l-.49.49c-.53-.51-1.09-1.01-1.69-1.51m2.5.35h1.72v-1.04h.59v1.04h3.52v-1.04h.59v1.04h1.75v.53h-1.75v1.42h-2.03v.97h3.22v2.03h-3.24c0 .35-.01.66-.03.93h3.32v.53h-3.37c-.03.27-.08.58-.15.94h3.96v.53h-3.71c.67.92 1.93 1.48 3.79 1.68-.13.24-.23.44-.29.59-2.13-.38-3.48-1.08-4.04-2.12-.43.97-1.77 1.72-4.03 2.23-.09-.19-.2-.37-.33-.55 2.1-.42 3.37-1.03 3.81-1.83h-3.36v-.53h3.58c.08-.29.13-.61.16-.94h-3.33v-.53h3.39c.02-.27.04-.58.04-.93h-3.23v-2.03h3.25v-.97h-2.07v-1.42h-1.73zm1.12 3.44v1h2.65c.01-.3.02-.44.01-.4v-.25-.35zm1.19-2h3.52v-.91h-3.52zm4.71 2h-2.63v.59c0 .15-.01.28-.01.4h2.64z" fill="#fbfcfa"/><path d="m13.56 383.74h.63v1.52h2.72v6.07h1.13v.6h-11.06v-.6h1.13v-6.07h2.73v-1.52h.63v1.52h2.1v-1.52zm-2.69 8.83.38.56c-1.24.63-2.53 1.25-3.85 1.85-.1-.21-.21-.42-.34-.63 1.36-.55 2.63-1.15 3.81-1.78m-2.13-4.27h2.1v-2.45h-2.1zm0 3.04h2.1v-2.46h-2.1zm2.72-3.04h2.1v-2.45h-2.1zm0 3.04h2.1v-2.46h-2.1zm6.07 3.6c-1.41-.71-2.7-1.3-3.86-1.78l.35-.56c1.45.62 2.75 1.19 3.84 1.72zm-1.25-9.09h-2.1v2.45h2.1zm-2.09 5.49h2.1v-2.46h-2.1z" fill="#fbfcfa"/></svg>