<svg enable-background="new 0 0 400 400" viewBox="0 0 400 400" xmlns="http://www.w3.org/2000/svg"><g fill="#010000"><path d="m282.27 234.27v14.42c5.38-.38 10.48-.79 15.59-1.06 1.65-.09 3.48-.17 4.93.45 1.54.66 3.24 1.95 3.83 3.38.29.71-1.52 3-2.79 3.5-5.69 2.22-11.53 4.08-17.34 6.02-1.38.46-2.84.71-4.31 1.07v14.87c8.2-1.16 16.16-2.28 24.11-3.41 7.2-1.03 13.46 1.05 18.78 5.9 1 .91 2.13 2.55 1.94 3.64-.16.9-2.1 1.98-3.36 2.13-6.59.76-13.21 1.14-19.81 1.85-17.65 1.88-35.3 3.77-52.92 5.84-6.26.74-15.64-3.87-19.22-10.55 2.94-.46 5.59-1.04 8.27-1.27 9.1-.79 18.23-1.37 27.31-2.29 1.17-.12 3.04-1.67 3.13-2.7.37-3.92.15-7.89.15-11.92-6.02.36-11.5 1.2-16.89.83-3.81-.26-7.61-1.9-11.21-3.42-1.43-.61-2.29-2.56-3.41-3.89 1.5-.86 2.92-2.26 4.51-2.5 6.41-.95 12.87-1.53 19.31-2.26 2.45-.28 4.9-.58 7.42-.88 0-5.05 0-9.66 0-15.33-7.06 1.12-13.71 2.08-20.3 3.32-.94.18-1.76 1.67-2.37 2.71-.86 1.47-1.48 3.09-2.67 5.66-4.44-6.52-4.85-13.04-5.99-19.24-1.82-9.95-3.02-20.02-5.09-29.91-1.1-5.26-3.49-10.25-5.42-15.73-4.77 1.9-8.97 3.57-13.18 5.25-1.54 28.78 2.34 57.86-4.04 86.46-.22 1-1.24 1.83-2.46 3.54-1.79-2.31-3.52-4.03-4.65-6.08-5.56-10.13-6.17-20.87-5.21-32.31 1.46-17.33 1.86-34.77 1.99-52.17.08-10.1-.87-20.27-2.1-30.31-.61-4.98-2.98-9.73-4.41-14.63-.48-1.64-1.27-4.4-.6-4.91 1.33-1.01 3.66-1.31 5.43-1 2.91.5 5.82 1.47 8.53 2.67 10.05 4.48 11.37 8.02 9.46 18.77-1.55 8.71-1.98 17.62-2.23 26.62 19.38-16.96 40.28-31.83 54.3-55.26-7.09-4.72-14.28-9.64-21.66-14.26-.79-.5-2.95.35-3.96 1.19-4.23 3.49-8.19 7.29-12.4 10.79-1.32 1.1-3.11 1.64-4.69 2.44-.37-.28-.73-.56-1.1-.84.81-1.79 1.43-3.7 2.44-5.37 12.12-19.78 22.29-40.46 28.12-63 1.25-4.84 1.1-10.13 1.05-15.21-.04-4.41 2.06-6.49 6.07-4.4 5.12 2.67 10.01 5.89 14.69 9.3 3.51 2.56 3.67 5.59.63 9.29-4.92 6-9.26 12.48-13.85 18.75.27.52.54 1.04.81 1.55 7.46-1.59 15.47-1.98 22.26-5.06 10.15-4.59 17.24-.26 24.55 5.34 1.31 1 2.45 2.27 3.53 3.53 3.63 4.23 3.01 6.06-1.47 9.53-3.2 2.48-6.12 5.65-8.32 9.05-5.31 8.21-10.12 16.74-15.36 25.53 26.11 17.97 50.88 37.74 83.95 44.75-1.93 1.59-2.43 2.34-3.08 2.5-10.78 2.77-21.86 6.06-32.78 3.26-7.13-1.83-13.96-6.16-19.99-10.63-12.55-9.3-24.48-19.43-37.1-29.57-13.31 16.24-28 31.73-48.02 41 .14.42.28.84.42 1.27 2.96-.32 5.95-.42 8.86-.99 16.61-3.25 33.83-4.83 49.6-10.46 15.44-5.51 25.96.98 37.12 8.59 4.09 2.79 3.37 4.99.96 9.29-3.36 6-6.01 12.47-8.36 18.96-2.99 8.25-5.06 16.83-8.12 25.05-2.36 6.34-4.33 6.42-9.09 1.77-.87-.85-2.54-1.39-3.75-1.27-6.23.68-12.46 1.59-18.97 2.46zm.27-8.34c4.44-.64 8.82-1.32 13.22-1.91 8.18-1.11 8.53-1.03 9.76-8.93 1.5-9.64 2.51-19.37 3.4-29.08.4-4.33-1.78-8.03-6.4-7.76-8.64.51-17.23 1.92-25.84 2.96 7.14 7.12 6.99 14.75 6.02 23.07-.81 7.01-.16 14.18-.16 21.65zm-5.79-105.65c6.45-7.31 11.15-16.16 13-26.31 1.22-6.69-1.79-9.24-8.2-6.9-6.65 2.43-13.13 3.21-19.42.45-4.52 7.42-8.86 14.53-12.8 21 9.19 3.94 18.12 7.77 27.42 11.76zm-31.68 69.09c.35 6.93.54 13.56 1.04 20.16.51 6.74 1.33 13.45 2.08 20.78 5.22-.54 9.82-.91 14.39-1.52 8.02-1.06 8.01-1.12 8.01-9.35 0-5.33.08-10.67-.03-16-.09-4.15-.17-8.32-.72-12.42-.45-3.36-2.61-5.48-6.28-4.9-6.02.95-12.02 2.11-18.49 3.25z"/><path d="m96.88 132.66c1.08-18.5.92-36.41-3.04-54.06-1.01-4.48-3.43-8.62-4.77-13.04-.73-2.41-1.6-5.94-.44-7.42 1.11-1.42 4.88-1.45 7.28-1.02 4.22.76 8.28 2.36 12.42 3.59 4.51 1.34 6.46 4.38 6.07 9-.56 6.59-1.14 13.19-1.76 20.41 8.49-1.34 16.24-2.78 24.05-3.69 3.55-.41 7.44-.44 10.76.65 2.22.73 3.69 3.73 5.49 5.71-1.77 1.51-3.39 4.08-5.34 4.36-9.35 1.33-18.77 2.06-28.18 2.93-1.96.18-3.96.03-6.66.03-.59 9.95-1.15 19.47-1.81 30.47 10-2.81 19.12-4.97 27.92-8.05 3.64-1.28 6.91-1.97 9.87.13 4.98 3.53 9.77 7.41 14.18 11.62 2.58 2.46 2.22 5.58-1.38 7.3-8.98 4.29-17.99 8.51-27.06 12.62-1.53.69-3.37.72-6.15 1.26 1.98-5.31 3.57-9.6 5.18-13.88 1.83-4.88 1.24-6.02-3.74-5.42-6.52.79-12.98 2.14-20.48 3.43 6.37 8.92 2.57 17.42.36 26.98 3.98-1.39 6.95-2.23 9.74-3.46 4.58-2.03 8.85-1.41 12.7 1.43 1.6 1.18 3.37 3.08 3.59 4.83.12 1-2.54 2.87-4.26 3.49-5.46 1.96-11.01 3.72-16.63 5.13-2.8.7-3.95 1.9-3.76 4.73.18 2.66-.11 5.35.15 7.99.44 4.41 1.31 8.85 6.52 10.09 5.3 1.26 10.57.73 13.91-4.03 2.33-3.32 3.67-7.36 5.33-11.13 1.1-2.49 2.01-5.08 3-7.62.42.04.83.08 1.25.11.64 2.34 1.15 4.73 1.95 7.02 1.53 4.37 2.85 8.89 4.96 12.98 2.95 5.73 2.62 9.62-3.48 12.11-6.04 2.46-12.71 3.45-19.17 4.76-2.57.52-5.32.26-7.98.17-10.18-.36-15.32-4.27-17.67-14.18-1.44-6.08-2.08-12.36-3.13-18.82-7.61.01-16.06 4.03-22.8-5.7 7.97-2.64 15.22-5.04 23.34-7.73-.42-8.89-.86-18.08-1.32-27.93-7.33 1.58-13.91 3.01-20.68 4.47-.36 7.25-.76 14.2-1.03 21.15-.74 18.95-.39 38.01-2.35 56.83-3.52 33.8-10.83 66.64-32.23 94.48-5.1 6.63-9.56 9.8-16.1 11.22 1-2.3 1.58-4.32 2.66-6.02 14.35-22.49 22.72-47.21 27.08-73.33 2.02-12.1 3.71-24.32 4.41-36.55.91-15.93 1.18-31.94.74-47.89-.25-9.02-2.14-18.05-3.92-26.95-.83-4.14-.11-5.48 4.1-5.41 10.95.18 21.91.14 32.86.16 1.65-.03 3.28-.2 5.45-.31z"/><path d="m172.65 172.32c-6.27 9.54-9.56 20.39-21.17 26.5.87-2.83 1.23-4.5 1.88-6.03 14.3-33.54 25.36-68.15 33.02-103.76 1.95-9.07 1.37-18.78 1.2-28.18-.07-3.97 1.3-4.51 4.2-3.62 8.23 2.52 14.93 7.36 19.44 14.68 1.07 1.73 1.17 5.07.22 6.87-13.06 24.68-20.16 51.6-29.37 77.71-.35 1-.58 2.38-.17 3.27 6.29 13.91 6.45 28.75 6.47 43.52.05 40.97-.08 81.94-.38 122.9-.05 6.94-1.16 13.89-2.18 20.78-.25 1.72-2.04 3.22-3.11 4.82-1.58-1.09-3.56-1.88-4.69-3.32-8.4-10.7-9.59-23.25-7.82-36.01 4.35-31.4 5.53-62.93 4.78-94.56-.32-13.63-.87-27.26-1.37-40.89-.08-1.3-.53-2.59-.95-4.68z"/><path d="m163.35 280.71c-2.54 4.76-5.02 9.54-7.63 14.27-6.18 11.21-12.25 22.49-18.74 33.51-1.72 2.92-4.76 6.97-7.25 7.01-2.55.04-5.68-3.85-7.65-6.65-3.85-5.49-4.15-11.48-1.91-18.01 1.86-5.43 3.11-11.25 3.46-16.97.8-12.94.93-25.92 1.22-38.89.04-1.95-.49-3.93-.89-5.87-.65-3.19-2.67-4.43-5.85-3.82-.33.06-.65.13-.98.19-12.04 2.17-11.66 2.22-13.1 14.37-2.97 24.95-8 49.23-25.42 68.93-6.14 6.94-13.01 12.61-22.69 14.74 11.42-15.4 24.13-30 27.9-49.53 3.6-18.67 8.97-37.28 1.1-57.57 5.56.62 9.91.86 14.17 1.63 7.57 1.38 14.64-.09 21.14-3.76 5.46-3.08 10.32-2.95 15.34.63 3.25 2.31 6.74 4.28 9.93 6.67 2.15 1.61 3.52 4.03 1.3 6.42-8.75 9.39-8.95 21.46-10.61 33.06-.61 4.27-.95 8.62-.87 12.92.04 1.92 1.45 3.8 2.23 5.71 1.75-.75 3.81-1.14 5.18-2.33 6.18-5.32 12.15-10.87 18.22-16.32.44-.39 1.02-.61 1.54-.92.28.2.57.39.86.58z"/><path d="m319.49 296.46c7.17.98 12.22 4.37 17.09 7.93 10.81 7.91 16.11 21.86 12.41 32.68-.64 1.88-2.08 4.43-3.6 4.78-1.42.33-4.15-1.42-5.05-2.97-6.82-11.72-13.4-23.58-19.84-35.52-.91-1.7-.63-4.04-1.01-6.9z"/><path d="m230.15 294.5c1.6 18.05 4.11 36.31-10.33 51.3-1.71 1.77-4.63 4.14-6.33 3.7-1.81-.47-3.46-3.79-4.08-6.15-1.65-6.31-.86-12.32 2.65-18.17 4.76-7.93 8.91-16.23 13.3-24.39 1.2-2.23 2.28-4.53 3.42-6.8.46.16.92.34 1.37.51z"/><path d="m250.77 304.35c9.81 4.84 18.93 9.85 20.63 21.02.72 4.75-1.45 10.21-3.29 14.98-1.01 2.61-4.41 4.29-6.69.72-6.59-10.34-10.42-21.7-11.49-33.95-.05-.59.35-1.22.84-2.77z"/><path d="m283.35 300.12c17.02.01 29.15 18.72 22.18 32.46-1.38 2.72-3.6 5.44-6.42 2.23-8.58-9.77-13.06-21.49-15.76-34.69z"/><path d="m284.49 214.01c.84-1.53 1.56-3.14 2.54-4.58 4.01-5.85 6.88-12.07 6.96-19.36.01-1 .56-2.56 1.27-2.84.75-.29 1.98.63 2.99 1.04.14.06.24.22.37.33 10.05 8.82 9.99 11.2-.93 18.98-3.87 2.75-8.03 5.1-12.05 7.63-.38-.39-.76-.79-1.15-1.2z"/><path d="m247.04 197.63c7.78.93 13.16 3.2 17.3 7.95 3.12 3.57 3.9 9.02 1.23 12.42-.97 1.23-4.43 2.27-5.22 1.59-6.54-5.58-10.56-12.76-13.31-21.96z"/></g><path d="m6.44 374.46.42-.45c.65.47 1.27.95 1.85 1.44l-.45.49c-.65-.56-1.25-1.06-1.82-1.48m.93 7.33-.63-.26c.55-1.36 1.05-2.8 1.52-4.33.19.1.38.19.59.27-.46 1.29-.95 2.73-1.48 4.32m-.38-10.38.44-.42c.43.34 1.01.82 1.74 1.44l-.49.49c-.53-.51-1.09-1.01-1.69-1.51m2.5.35h1.72v-1.04h.59v1.04h3.52v-1.04h.59v1.04h1.75v.53h-1.75v1.42h-2.03v.97h3.22v2.03h-3.24c0 .35-.01.66-.03.93h3.32v.53h-3.37c-.03.27-.08.58-.15.94h3.96v.53h-3.71c.67.92 1.93 1.48 3.79 1.68-.13.24-.23.44-.29.59-2.13-.38-3.48-1.08-4.04-2.12-.43.97-1.77 1.72-4.03 2.23-.09-.19-.2-.37-.33-.55 2.1-.42 3.37-1.03 3.81-1.83h-3.36v-.53h3.58c.08-.29.13-.61.16-.94h-3.33v-.53h3.39c.02-.27.04-.58.04-.93h-3.23v-2.03h3.25v-.97h-2.07v-1.42h-1.73zm1.12 3.44v1h2.65c.01-.3.02-.44.01-.4v-.25-.35zm1.19-2h3.52v-.91h-3.52zm4.71 2h-2.63v.59c0 .15-.01.28-.01.4h2.64z" fill="#fbfcfa"/><path d="m13.56 383.74h.63v1.52h2.72v6.07h1.13v.6h-11.06v-.6h1.13v-6.07h2.73v-1.52h.63v1.52h2.1v-1.52zm-2.69 8.83.38.56c-1.24.63-2.53 1.25-3.85 1.85-.1-.21-.21-.42-.34-.63 1.36-.55 2.63-1.15 3.81-1.78m-2.13-4.27h2.1v-2.45h-2.1zm0 3.04h2.1v-2.46h-2.1zm2.72-3.04h2.1v-2.45h-2.1zm0 3.04h2.1v-2.46h-2.1zm6.07 3.6c-1.41-.71-2.7-1.3-3.86-1.78l.35-.56c1.45.62 2.75 1.19 3.84 1.72zm-1.25-9.09h-2.1v2.45h2.1zm-2.09 5.49h2.1v-2.46h-2.1z" fill="#fbfcfa"/></svg>