<svg enable-background="new 0 0 400 400" viewBox="0 0 400 400" xmlns="http://www.w3.org/2000/svg"><g fill="#010000"><path d="m90.93 206.73c-5.32.88-10.07 1.57-14.76 2.54-.81.17-1.57 1.41-2.03 2.32-.51 1.02-.43 2.34-.99 3.31-.94 1.64-2.18 3.11-3.3 4.64-1.51-1.19-3.63-2.07-4.42-3.63-3.46-6.8-7.07-13.61-9.64-20.77-5.04-14.07-8.83-28.58-17.61-41.08-2.77-3.95-.98-6.43 4.38-6.06 14.74 1.03 29.15-.83 43.44-4.13 1.58-.36 3.13-.83 4.98-1.33-.52-24.44 1.01-48.89-11.17-71.3-.85-1.57-.5-3.78-.71-5.7 1.92-.16 4.2-1.07 5.69-.35 7.74 3.72 15.69 7.26 22.77 12.04 6.08 4.11 6.53 9.06 3.31 15.74-4.77 9.89-4.72 20.64-5.63 31.19-.38 4.45-.06 8.97-.06 14.56 7.67-2.32 15.01-4.15 22.05-6.77 13.37-4.97 25.06-.24 36.57 5.7 3.56 1.84 2.76 5.1.81 7.73-3.36 4.54-7.38 8.63-10.47 13.33-4.55 6.91-8.61 14.16-12.73 21.35-1.63 2.85-1.51 5.4 1.51 7.79 1.57 1.25 3.41 4.58 2.8 5.62-1.02 1.76-3.77 3.02-6 3.47-10.89 2.22-21.85 4.03-32.75 6.18-1.29.25-3.36 1.65-3.37 2.53-.21 14.78-.15 29.57-.15 45.12 9.23-3.07 17.76-5.91 26.13-8.69-2.73-7.27-5.29-14.11-8.25-22 2.97 0 4.36-.37 5.43.06 14.26 5.73 26.44 13.62 29.82 30.1 1.38 6.73.07 13.23-2.61 19.45-1.63 3.8-4.41 4.28-6.82 1.1-4.01-5.27-7.56-10.89-11.21-16.43-1.08-1.64-1.85-3.47-3-5.67-12.85 7.03-25.55 13.52-37.78 20.8-12.41 7.38-24.43 15.43-36.48 23.41-6.07 4.02-10.78 4.44-16.43-.11-4.39-3.53-8.44-7.52-12.37-11.57-1.11-1.14-2.24-3.89-1.67-4.67.98-1.36 3.22-2.09 5.05-2.5 8.21-1.84 16.7-2.75 24.64-5.37 10.06-3.32 19.73-7.87 29.46-12.14 1.49-.65 3.4-2.62 3.42-4.01.24-14.96.15-29.94.15-45.8zm12.25-12.92c7.43-1.91 13.88-3.36 20.15-5.34 1.44-.45 2.91-2.59 3.31-4.22 1.59-6.43 2.95-12.94 4.02-19.48.88-5.39 1.55-10.85 1.72-16.3.1-3.18-1.35-6.09-5.52-5.19-6.32 1.36-12.63 2.78-18.88 4.41-1.13.29-2.75 1.68-2.8 2.63-.79 14.24-1.36 28.49-2 43.49zm-12.47 2.91c0-14.27 0-28.19 0-42.33-9.35 1.97-18.5 3.9-28.31 5.96 3.5 13.48 6.86 26.38 10.26 39.46 6.59-1.12 12.25-2.09 18.05-3.09z"/><path d="m158.56 201.57c27.9-15.59 51.61-36.16 72.98-59.51-.18-.44-.35-.88-.53-1.32-9.48 2.48-19.24 4.23-28.36 7.67-8 3.02-15.07 2.87-22.39-1.05-4.06-2.17-8.18-4.22-12.06-7.47 26.35-4.08 52.71-8.16 79.06-12.24.07-.47.13-.95.2-1.42-5.97-4.03-12.01-7.97-17.89-12.12-4.35-3.07-8.69-6.2-12.64-9.75-1.8-1.62-2.65-4.3-3.92-6.5 2.58-.62 5.3-2.09 7.73-1.7 7.52 1.21 14.92 3.12 22.36 4.78 1.1.25 2.17.61 3.86 1.09 3.65-7.94 7.38-15.71 10.79-23.61 1.86-4.31.45-6.56-4.29-6.11-7.07.67-14.09 2.07-21.08 3.44-10.74 2.1-21.36 4.85-32.16 6.52-8.26 1.27-14.49-3.05-20.69-10.65 5.68-1.01 10.06-2.33 14.49-2.5 22.46-.83 43.89-6.81 65.2-13.07 16.17-4.75 28.88 1.38 40.92 10.87 3.19 2.51 2.52 5.21-.72 7.23-1.82 1.13-3.79 2.08-5.8 2.83-14.82 5.49-31.98 16.25-43.6 27.45 6.36 9.44 6.45 10.07 2.53 20.89 7.83-1.65 15.25-2.91 22.49-4.81 11.53-3.03 23.03-6.21 34.38-9.86 8.88-2.86 17.12-2.41 24.64 3.14 5.33 3.94 10.55 8.13 15.29 12.75 4.84 4.71 3.86 8.88-2.61 9.85-16.4 2.45-30.01 10.25-42.76 20.2-1.73 1.35-4.06 1.95-6.11 2.89-.39-.28-.79-.56-1.18-.84.77-2.19 1.38-4.45 2.32-6.56 2.43-5.47 5.34-10.74 7.43-16.33 2.47-6.58.94-8.94-6.02-8.47-8.08.54-16.11 2-24.13 3.3-4.83.78-9.58 2.03-15.11 3.63 9.95 4.37 8.51 11.45 7.14 19.75-1.59 9.58-.8 19.55-1.15 29.35-.4 11.07-5.52 20.07-12.86 27.92-3.79 4.06-7.15 3.61-10.61.06-6.23-6.39-12.82-12.42-19.28-18.59-1.13-1.08-2.33-2.07-3.49-3.11.19-.39.39-.77.58-1.16 3.46.84 6.91 1.7 10.37 2.53 10.69 2.55 15.31-.48 16.01-11.31.61-9.45.51-18.94.66-28.41.02-1.09-.35-2.19-.66-4-22.79 30.05-51.65 49.3-87.74 56.91-.52-.87-1.06-1.73-1.59-2.58z"/><path d="m229.04 247.53c-14.58 2.15-28.21 4.04-41.8 6.2-11.83 1.88-21.33-2.12-29.28-11.82 26.08-2.26 52.15-4.52 79.7-6.91-3.18-8.29-5.91-15.42-8.89-23.18 9.18.01 17.11 2.25 23.65 8.12 1.21 1.08 1.12 3.9 1.13 5.93.01 1.76-.7 3.52-1.23 5.91 4.5-.3 8.59-.41 12.64-.86 18.96-2.14 37.98-3.98 56.85-6.74 11.43-1.67 24.45 3.14 32.55 14.57-4.23.83-7.88 1.95-11.6 2.18-6.81.44-13.65.36-20.48.49-18.81.34-37.61.63-56.42 1.03-4.1.09-8.19.54-13.47.91 18.9 16.7 37.98 31.46 57.94 45.16 20.19 13.85 42.33 23.1 66.41 28.15-.1.68-.2 1.35-.31 2.03-2.54.77-5.04 1.99-7.63 2.24-12.06 1.19-24.13 2.48-36.22 3.03s-22.64-2.73-30.9-12.77c-15.33-18.64-31.32-36.74-47.04-55.05-.94-1.09-1.92-2.14-3.25-3.62 0 9.21-.08 17.79.02 26.36.19 16.14.65 32.29.68 48.43.02 8.29-.34 16.62-1.18 24.87-.28 2.79-2.55 5.38-3.91 8.07-2.07-1.99-4.78-3.63-6.07-6.04-2.87-5.36-5.34-11-7.34-16.75-.87-2.49-.42-5.55-.13-8.31 1.36-12.68 3.19-25.32 4.22-38.02.63-7.75.12-15.59.12-24.66-5.05 4.88-9.43 9-13.7 13.24-20.39 20.28-42.32 38.63-67.76 52.26-7.08 3.8-15.09 5.89-22.73 8.61-1.6.57-3.45.42-5.68-.22 38.05-25.96 73.36-54.59 101.11-92.84z"/></g><path d="m6.44 374.46.42-.45c.65.47 1.27.95 1.85 1.44l-.45.49c-.65-.56-1.25-1.06-1.82-1.48m.93 7.33-.63-.26c.55-1.36 1.05-2.8 1.52-4.33.19.1.38.19.59.27-.46 1.29-.95 2.73-1.48 4.32m-.38-10.38.44-.42c.43.34 1.01.82 1.74 1.44l-.49.49c-.53-.51-1.09-1.01-1.69-1.51m2.5.35h1.72v-1.04h.59v1.04h3.52v-1.04h.59v1.04h1.75v.53h-1.75v1.42h-2.03v.97h3.22v2.03h-3.24c0 .35-.01.66-.03.93h3.32v.53h-3.37c-.03.27-.08.58-.15.94h3.96v.53h-3.71c.67.92 1.93 1.48 3.79 1.68-.13.24-.23.44-.29.59-2.13-.38-3.48-1.08-4.04-2.12-.43.97-1.77 1.72-4.03 2.23-.09-.19-.2-.37-.33-.55 2.1-.42 3.37-1.03 3.81-1.83h-3.36v-.53h3.58c.08-.29.13-.61.16-.94h-3.33v-.53h3.39c.02-.27.04-.58.04-.93h-3.23v-2.03h3.25v-.97h-2.07v-1.42h-1.73zm1.12 3.44v1h2.65c.01-.3.02-.44.01-.4v-.25-.35zm1.19-2h3.52v-.91h-3.52zm4.71 2h-2.63v.59c0 .15-.01.28-.01.4h2.64z" fill="#fbfcfa"/><path d="m13.56 383.74h.63v1.52h2.72v6.07h1.13v.6h-11.06v-.6h1.13v-6.07h2.73v-1.52h.63v1.52h2.1v-1.52zm-2.69 8.83.38.56c-1.24.63-2.53 1.25-3.85 1.85-.1-.21-.21-.42-.34-.63 1.36-.55 2.63-1.15 3.81-1.78m-2.13-4.27h2.1v-2.45h-2.1zm0 3.04h2.1v-2.46h-2.1zm2.72-3.04h2.1v-2.45h-2.1zm0 3.04h2.1v-2.46h-2.1zm6.07 3.6c-1.41-.71-2.7-1.3-3.86-1.78l.35-.56c1.45.62 2.75 1.19 3.84 1.72zm-1.25-9.09h-2.1v2.45h2.1zm-2.09 5.49h2.1v-2.46h-2.1z" fill="#fbfcfa"/></svg>