<svg enable-background="new 0 0 400 400" viewBox="0 0 400 400" xmlns="http://www.w3.org/2000/svg"><g fill="#010000"><path d="m281.48 225.92c9.66-1.12 19.37-1.91 28.97-3.45 10.47-1.68 20.85-4 31.24-6.17 9.31-1.94 24.23 4.42 29.34 12.56 1.77 2.82 1.5 4.97-2.04 5.36-7.26.79-14.54 1.35-21.83 1.76-24.9 1.41-49.81 2.71-74.72 4.12-1.24.07-2.68.5-3.61 1.27-12.85 10.58-25.64 21.25-38.43 31.91-.34.28-.54.74-1.45 2.04 8.12-1.02 15.48-1.59 22.69-2.94 11.55-2.16 22.94-5.29 34.53-7.07 4.31-.66 9.31.57 13.47 2.25 5.31 2.14 10.27 5.36 15.05 8.59 3.21 2.17 3.96 5.06 1.46 8.96-4.98 7.75-4.48 16.84-4.96 25.6-.74 13.43-.87 26.93-2.3 40.28-.67 6.28-3.33 12.5-5.91 18.39-2.35 5.34-5.57 5.13-8.51.06-.17-.29-.33-.58-.49-.87-9.9-18.9-10.75-17.13-30.26-16.2-14.59.69-29.13 2.52-43.69 3.87-1.14.11-2.26.4-3.41.61-.74 3.21-1.17 6.36-2.25 9.28-.68 1.83-2.32 3.31-3.53 4.94-1.46-1.24-3.32-2.22-4.3-3.76-6-9.37-7.49-19.29-5.52-30.47 1.82-10.34 1.47-21.06 2.07-31.61-.54-.14-1.08-.28-1.62-.42-5.69 3.91-11.33 7.89-17.07 11.71-15.94 10.62-32.3 20.55-50.34 27.22-5.6 2.07-11.68 2.87-17.54 4.25-.36-.78-.71-1.55-1.07-2.33 2.11-1.49 4.2-3.01 6.34-4.46 19.15-12.93 38.43-25.65 57.38-38.87 5.83-4.07 10.64-9.56 16.09-14.19 2.14-1.81 2.26-3.57 1.63-6.06-.7-2.75-.81-5.66-1.25-9.11 2.55.54 4.22.45 5.33 1.2 5.37 3.62 9.16 1.44 13.2-2.57 9.29-9.23 18.9-18.15 28.39-27.19-.25-.44-.5-.88-.75-1.32-10.76 2.15-21.54 4.26-32.29 6.48-4.06.84-8.1 1.8-12.07 2.98-9.85 2.93-25.3-2.57-31.92-12.26 3.47-.5 6.42-1.11 9.41-1.33 16.7-1.24 33.41-2.38 50.34-3.58 0-8.13 0-15.21 0-22.94-5.5.77-10.72 1.33-15.88 2.28-7.98 1.48-15.57.65-22.77-3.14-1.52-.8-2.87-1.94-4.29-2.92.06-.58.11-1.16.17-1.73 14.27-1.91 28.53-3.82 42.93-5.75-.29-7.7-2.98-13.82-6.38-19.8-1.05-1.85-1.14-4.25-1.66-6.4 2.37-.3 4.83-1.14 7.09-.77 3.24.53 6.46 1.68 9.46 3.05 6.51 2.98 8.54 6.46 6.5 12.53-.77 2.29-.48 4.94-.75 8.52 5.36-1.2 10.52-1.98 15.42-3.56 5.72-1.84 10.12.07 14.03 3.84 1.21 1.17 2.83 3.5 2.39 4.42-.67 1.43-2.85 2.71-4.56 2.98-7.54 1.22-15.12 2.4-22.73 2.9-4.03.26-5.09 1.64-4.91 5.41.27 5.62.07 11.27.07 17.52 5.95-1.03 11.3-1.91 16.63-2.93.88-.17 1.89-.76 2.43-1.48 9.06-12.13 18.55-24.06 22.55-39.07.91-3.42.52-7.17 1.07-10.72.34-2.18.8-4.87 2.25-6.15.83-.73 4.28.33 5.63 1.58 5.09 4.74 10.11 9.62 14.54 14.97 2.77 3.35 2.31 6.73-1.25 10.44-7.98 8.33-15.2 17.4-22.72 26.17.3.45.62.87.94 1.29zm-8.34 87.53c-17.52 9.76-36.18 8.12-55.55 5.43-.55 9.55-1.06 18.54-1.62 28.3 12.43-1.34 23.96-2.42 35.46-3.85 13.25-1.65 26.46-3.51 39.82 3.56.73-6.49 1.98-12.52 1.96-18.54-.06-13.58-.19-27.21-1.4-40.71-.65-7.26-3.31-8.8-10.47-8.37-11.26.68-22.51 1.7-33.71 3.01-9.84 1.15-19.6 2.91-29.4 4.4v24.11c10.64-1.52 20.92-3.16 31.25-4.42 8.66-1.07 16.59 1.1 23.66 7.08z"/><path d="m91.58 203.83c-5.89.88-11.01 1.42-15.99 2.56-1.12.26-1.82 2.58-2.62 4-1.33 2.35-2.58 4.75-3.86 7.12-1.74-2.06-4.13-3.85-5.11-6.22-5.8-14.11-11.18-28.4-16.92-42.54-1.93-4.75-4.65-9.18-6.73-13.88-.89-2-2.05-4.84-1.26-6.34.69-1.31 3.99-1.93 6.04-1.74 15.93 1.45 30.93-2.71 46.23-7.03-1.2-21.2-.94-42.36-6.5-62.9-1.38-5.11-3.72-9.95-5.42-14.98-1.83-5.39.06-7.92 5.19-6.01 7.7 2.87 15.37 6.23 22.35 10.53 6.01 3.7 5.73 8 4.42 14.82-2.09 10.88-3.17 21.98-4.12 33.03-.58 6.77-.11 13.63-.11 21.42 4.92-1.64 9.74-2.5 13.82-4.73 12.16-6.64 23.76-3.6 35.45 1.01.31.12.61.27.91.41 7.59 3.54 8.37 6.59 3.66 13.48-5.54 8.09-11.02 16.23-16.43 24.41-1.28 1.93-2.18 4.11-3.23 6.19-2.09 4.16-2.85 7.91 2.1 10.9 1.27.77 2.59 3.25 2.22 4.42-.39 1.22-2.69 2.3-4.31 2.6-10.76 2.01-21.57 3.71-32.32 5.76-1.35.26-3.45 1.96-3.46 3.01-.23 14.62-.16 29.24-.16 44.75 9.81-3.59 18.89-6.92 28.03-10.27-1.68-5.5-3.17-10.58-4.8-15.62-1.26-3.9.82-4.53 3.81-3.87 18.04 3.98 28.75 18.59 26.55 36.6-.3 2.45-1.98 5.74-3.95 6.65-1.59.74-5.15-.92-6.81-2.56-3.87-3.81-7.12-8.25-10.99-12.88-17.5 9.09-35.31 18.04-52.81 27.53-9.18 4.98-17.87 10.85-26.72 16.42-4.17 2.63-8.74 3.56-12.66.66-5.84-4.32-11.32-9.22-16.44-14.37-3.11-3.13-1.8-6.01 2.77-6.16 20.04-.67 38.14-8.39 56.49-15.22 1.49-.56 3.5-2.48 3.52-3.8.26-15.46.17-30.94.17-47.16zm-19.56-6.87c7.17-1.2 13.28-2.23 19.04-3.19 0-14.57 0-28.4 0-42.26-9.52 2.01-18.53 3.91-27.85 5.88 2.98 13.39 5.85 26.27 8.81 39.57zm33.15-6.04c7.01-1.48 13.01-2.6 18.9-4.11 1.14-.29 2.47-1.99 2.71-3.23 1.15-6.03 2.2-12.1 2.84-18.2.62-5.93 1.05-11.93.91-17.89-.08-3.63-1.62-6.42-6.49-4.45-4.44 1.8-9.21 2.75-13.73 4.37-1.28.46-3.08 1.91-3.14 2.99-.82 13.23-1.35 26.49-2 40.52z"/><path d="m287.66 157.86c-25.77 3.77-51.2 7.52-76.65 11.15-3.41.49-5.13 1.93-5.88 5.39-.44 2.01-2.29 3.71-3.51 5.56-1.82-1.29-4.3-2.18-5.37-3.93-5.96-9.78-11.5-19.82-17.34-29.68-3.55-6-7.52-11.77-11.01-17.81-1.23-2.12-2.88-5.43-2.05-6.92.93-1.68 4.45-2.65 6.85-2.66 33.89-.2 67.17-5.43 100.25-12.11 9.07-1.83 17.81-5.29 26.85-7.36 4.19-.96 9.24-1.7 13.02-.26 8.28 3.16 16.3 7.31 23.87 11.96 4.82 2.96 4.26 5.1-.87 7.61-8.75 4.28-14.16 11.92-19.61 19.46-5.85 8.08-11.38 16.38-17.21 24.48-4.33 6.02-6.84 5.68-9.87-1.07-.38-.9-.7-1.82-1.47-3.81zm-21.61-40.62c1.57 1.47 1.99 1.95 2.49 2.33 7.12 5.35 7.52 6.99 4.09 14.96-2.34 5.43-4.46 10.95-6.88 16.93 7.96-.52 15.2-.96 22.43-1.52.87-.07 2.05-.57 2.49-1.25 6.01-9.52 9.95-19.82 10.98-31.07.1-1.07-2.09-3.43-3.08-3.36-10.48.74-20.93 1.85-32.52 2.98zm-41.54 7.27c3.12 5.7 6.32 10.23 8.14 15.26 1.81 5.01 2.22 10.53 3.3 16.06 6.29-1.02 12.55-2.03 18.95-3.06.59-8.89 1.1-17.14 1.71-25.39.31-4.21-1.62-6.52-5.72-6.11-8.85.89-17.66 2.15-26.38 3.24zm-31.73 4.95c3.56 11.23 6.89 21.73 10.32 32.55 7.71-1.57 14.75-3.01 22.09-4.51-3.61-10.58-7.05-20.65-10.56-30.92-7.05.93-14.08 1.85-21.85 2.88z"/><path d="m295.84 62.96c9.32-1.23 18.67-2.32 27.96-3.73 8.55-1.29 16.3.02 22.63 6.25 1.54 1.52 2.38 3.75 3.55 5.65-2.04 1.24-3.96 3.26-6.13 3.58-5.57.83-11.24 1.05-16.88 1.26-11.64.43-23.28.59-34.91 1.15-1.57.08-3.53 1.49-4.49 2.86-4.49 6.38-8.74 12.94-12.98 19.5-1.09 1.68-1.86 3.56-2.78 5.35-.88-.65-1.76-1.29-2.64-1.94-1.17-8.5 3.19-15.98 5.62-24.5-15.65 1.94-30.88 3.84-46.2 5.74-.46 8-.9 15.8-1.35 23.61-.6.16-1.21.31-1.81.47-1.19-.95-2.67-1.69-3.51-2.88-2.2-3.1-4.43-6.25-6.1-9.65-4.2-8.5-4.11-8.77-13.48-7.4-8.36 1.22-16.73 2.62-24.95 4.54-10.99 2.56-19.85-1.45-28.11-7.96-.69-.55-1.01-1.56-1.9-2.98 20.45-1.35 40.31-2.66 61.68-4.07-3.19-6.42-5.29-11.82-8.4-16.56-3-4.57-7.04-8.46-11.41-13.55 3.16-.83 4.87-1.74 6.51-1.63 6.94.45 13.88 1.04 20.78 1.9 4.43.55 6.94 3.08 7.33 7.91.46 5.58 1.56 11.1 2.44 17.05 7.44-.8 14.33-1.51 21.21-2.28 8.25-.91 16.49-2 24.75-2.75 3.94-.35 5.96-1.58 6.9-5.94 2.13-9.86 3.55-19.52.96-29.54-1.15-4.44 1.43-6.73 5.63-4.8 6.73 3.09 13.25 6.76 19.44 10.83 3.49 2.3 3.83 5.53.43 9.22-3.98 4.31-7.11 9.4-10.61 14.15.26.37.54.75.82 1.14z"/></g><path d="m6.44 374.46.42-.45c.65.47 1.27.95 1.85 1.44l-.45.49c-.65-.56-1.25-1.06-1.82-1.48m.93 7.33-.63-.26c.55-1.36 1.05-2.8 1.52-4.33.19.1.38.19.59.27-.46 1.29-.95 2.73-1.48 4.32m-.38-10.38.44-.42c.43.34 1.01.82 1.74 1.44l-.49.49c-.53-.51-1.09-1.01-1.69-1.51m2.5.35h1.72v-1.04h.59v1.04h3.52v-1.04h.59v1.04h1.75v.53h-1.75v1.42h-2.03v.97h3.22v2.03h-3.24c0 .35-.01.66-.03.93h3.32v.53h-3.37c-.03.27-.08.58-.15.94h3.96v.53h-3.71c.67.92 1.93 1.48 3.79 1.68-.13.24-.23.44-.29.59-2.13-.38-3.48-1.08-4.04-2.12-.43.97-1.77 1.72-4.03 2.23-.09-.19-.2-.37-.33-.55 2.1-.42 3.37-1.03 3.81-1.83h-3.36v-.53h3.58c.08-.29.13-.61.16-.94h-3.33v-.53h3.39c.02-.27.04-.58.04-.93h-3.23v-2.03h3.25v-.97h-2.07v-1.42h-1.73zm1.12 3.44v1h2.65c.01-.3.02-.44.01-.4v-.25-.35zm1.19-2h3.52v-.91h-3.52zm4.71 2h-2.63v.59c0 .15-.01.28-.01.4h2.64z" fill="#fbfcfa"/><path d="m13.56 383.74h.63v1.52h2.72v6.07h1.13v.6h-11.06v-.6h1.13v-6.07h2.73v-1.52h.63v1.52h2.1v-1.52zm-2.69 8.83.38.56c-1.24.63-2.53 1.25-3.85 1.85-.1-.21-.21-.42-.34-.63 1.36-.55 2.63-1.15 3.81-1.78m-2.13-4.27h2.1v-2.45h-2.1zm0 3.04h2.1v-2.46h-2.1zm2.72-3.04h2.1v-2.45h-2.1zm0 3.04h2.1v-2.46h-2.1zm6.07 3.6c-1.41-.71-2.7-1.3-3.86-1.78l.35-.56c1.45.62 2.75 1.19 3.84 1.72zm-1.25-9.09h-2.1v2.45h2.1zm-2.09 5.49h2.1v-2.46h-2.1z" fill="#fbfcfa"/></svg>