<svg enable-background="new 0 0 400 400" viewBox="0 0 400 400" xmlns="http://www.w3.org/2000/svg"><g fill="#010000"><path d="m182.67 206.21c-16.81 26.84-33.72 53.43-62.53 68.88-.58-.43-1.16-.85-1.74-1.28 1.67-2.64 3.24-5.35 5.03-7.91 9.73-13.89 20.14-27.35 29.09-41.72 8.76-14.08 16.06-29.06 23.95-43.68.85-1.58 1.42-3.32 2.43-5.73-4.34.37-8.07 1.02-11.78.91-5.1-.15-10.2-.72-15.25-1.46-1.15-.17-2.1-1.79-3.13-2.74 1.01-.97 1.85-2.41 3.05-2.85 8.89-3.25 17.81-6.42 26.81-9.35 3.64-1.18 5.23-2.86 5.09-7.03-.78-22.78-.55-45.62-2.13-68.34-.6-8.63-5.12-16.97-7.76-25.47-.66-2.12-1-4.33-1.48-6.5 2.2-.37 4.63-1.55 6.55-.97 7.24 2.17 14.51 4.49 21.38 7.59 4.62 2.08 5.53 6.72 4.52 11.6-1.43 6.96-3.65 13.89-4.04 20.92-1.13 20.42-1.52 40.88-2.2 61.43 7.88-1.84 14.94-3.52 22.02-5.1 1.26-.28 2.65-.34 3.92-.13 3.77.61 8.07 2.07 8 6.07-.04 2.27-3.67 5.49-6.36 6.52-8.19 3.14-16.65 5.63-25.12 7.92-2.92.79-3.72 2-3.61 4.76.2 5.32-1.71 11.88.75 15.63 2.37 3.61 9.27 4.09 13.96 6.39 6.53 3.21 13.24 6.29 19.16 10.43 7.71 5.39 10.43 14.92 7.96 23.5-1.31 4.55-3.32 5.76-7.21 3.12-4.78-3.24-9.13-7.18-13.41-11.1-7-6.39-13.79-13.01-20.94-19.79-.06 1.33-.21 3-.21 4.67-.13 27.32.02 54.65-.53 81.97-.15 7.52-2.2 15.04-3.75 22.48-.33 1.6-2.12 3.58-3.62 4-.98.28-3.06-1.68-3.97-3.08-6.88-10.52-9.39-22.56-6.92-34.4 4.5-21.56 4.04-43.3 4.95-65.01.06-1.33-.05-2.66-.14-3.99-.04-.27-.36-.52-.79-1.16z"/><path d="m292.58 170.46c2.49 1.88 4.26 3.09 5.89 4.48 5.02 4.27 8.04 9.13 7.76 16.33-.5 12.75-.39 25.56.15 38.32.69 16.1 2.01 32.18 3.16 48.26 1.09 15.32 1.41 30.76-2.73 45.54-2.87 10.25-8 19.96-12.86 29.54-2.8 5.52-6.69 5.67-9.88.52-7.3-11.75-16.89-21.36-26.88-30.68-1.29-1.21-2.17-2.86-4.02-5.34 2.83 0 4.65-.2 6.41.04 5.74.76 11.43 2.08 17.18 2.43 6.34.38 9.79-2.08 11.1-8.39 1.54-7.44 2.89-15.08 2.91-22.63.06-22.3-.21-44.61-1.08-66.89-.55-14.11-3.16-27.97-8.47-41.26-2.03-5.08-5.19-7.03-10.28-6.52-6.94.69-13.85 1.64-20.8 2.15-7.98.59-15.49-.83-23.05-7.47 5.39-1.49 9.61-3.11 13.98-3.78 31.85-4.93 63.16-12.25 94.18-20.92 8.73-2.44 17.42-1.97 25.84 1.61.91.39 2.05.69 2.61 1.41 2.26 2.9 6.13 5.98 6.05 8.91-.12 4.41-5.35 3.8-8.85 4.29-21.2 2.96-42.4 5.88-63.6 8.85-1.28.16-2.54.63-4.72 1.2z"/><path d="m100.54 206.3c-18.18 20.83-37.77 39.2-63.07 51.1 1.6-1.83 3.1-3.75 4.82-5.47 25.15-25.15 47.97-52.21 67.09-82.26 6.72-10.57 12.83-21.39 12.74-34.6-.03-4.5 2.81-5.96 6.13-3.03 5.58 4.92 10.71 10.39 15.68 15.95 2.69 3.01 1.22 6.38-1.08 9.03-7.43 8.53-15.02 16.92-22.49 25.42-3.84 4.38-7.62 8.81-11.24 13.37-.74.93-1.32 3.09-.79 3.74 10.6 13.24 8.86 28.46 7.8 43.84-1.11 16.08-1.44 32.23-1.63 48.36-.14 12.59-1.36 24.92-6.56 36.48-1.41 3.14-4.27 5.62-6.46 8.4-2.05-2.86-4.74-5.45-6.03-8.62-4.97-12.19-6.09-24.3-1.23-37.27 3.08-8.21 3.91-17.49 4.46-26.37.97-15.6.93-31.27 1.35-46.9.08-3.73.33-7.45.51-11.17z"/><path d="m62.42 154.01c2.33-2.69 4.48-5.56 7.02-8.04 17.88-17.45 32.36-37.49 45.02-58.91 5.31-8.98 9.23-18.31 7.61-29.24-.75-5.07 2.1-7.32 6.5-5.07 7.33 3.75 14.71 7.68 21.24 12.61 5.69 4.3 4.41 7.07-.73 11.77-7.32 6.69-13.92 14.2-20.49 21.66-15.19 17.23-29.88 34.97-49.39 47.68-5.03 3.28-10.44 5.98-15.68 8.95-.36-.47-.73-.94-1.1-1.41z"/><path d="m265.9 97.62c4.45-.82 8.89-1.67 13.34-2.46 12.72-2.27 25.44-4.5 38.15-6.78 5.14-.92 9.49.47 13.06 4.27 3.77 4.02 3.52 7.33-1.6 9.22-6 2.21-12.35 3.99-18.68 4.71-9.47 1.08-19.11 1.78-28.61 1.28-6-.31-11.54-3.67-15.71-8.37.01-.63.03-1.25.05-1.87z"/><path d="m245.02 114.5c-1.22 2.73-1.79 6.85-3.84 7.8-2.11.99-6.02-.49-8.52-1.95-8.54-5.02-15.55-11.84-20.9-20.21-.96-1.5-1.85-4.62-1.17-5.25 1.32-1.22 3.82-1.7 5.77-1.58 4.43.27 8.94.67 13.21 1.79 10.42 2.71 14.43 8.22 15.45 19.4z"/></g><path d="m6.44 374.46.42-.45c.65.47 1.27.95 1.85 1.44l-.45.49c-.65-.56-1.25-1.06-1.82-1.48m.93 7.33-.63-.26c.55-1.36 1.05-2.8 1.52-4.33.19.1.38.19.59.27-.46 1.29-.95 2.73-1.48 4.32m-.38-10.38.44-.42c.43.34 1.01.82 1.74 1.44l-.49.49c-.53-.51-1.09-1.01-1.69-1.51m2.5.35h1.72v-1.04h.59v1.04h3.52v-1.04h.59v1.04h1.75v.53h-1.75v1.42h-2.03v.97h3.22v2.03h-3.24c0 .35-.01.66-.03.93h3.32v.53h-3.37c-.03.27-.08.58-.15.94h3.96v.53h-3.71c.67.92 1.93 1.48 3.79 1.68-.13.24-.23.44-.29.59-2.13-.38-3.48-1.08-4.04-2.12-.43.97-1.77 1.72-4.03 2.23-.09-.19-.2-.37-.33-.55 2.1-.42 3.37-1.03 3.81-1.83h-3.36v-.53h3.58c.08-.29.13-.61.16-.94h-3.33v-.53h3.39c.02-.27.04-.58.04-.93h-3.23v-2.03h3.25v-.97h-2.07v-1.42h-1.73zm1.12 3.44v1h2.65c.01-.3.02-.44.01-.4v-.25-.35zm1.19-2h3.52v-.91h-3.52zm4.71 2h-2.63v.59c0 .15-.01.28-.01.4h2.64z" fill="#fbfcfa"/><path d="m13.56 383.74h.63v1.52h2.72v6.07h1.13v.6h-11.06v-.6h1.13v-6.07h2.73v-1.52h.63v1.52h2.1v-1.52zm-2.69 8.83.38.56c-1.24.63-2.53 1.25-3.85 1.85-.1-.21-.21-.42-.34-.63 1.36-.55 2.63-1.15 3.81-1.78m-2.13-4.27h2.1v-2.45h-2.1zm0 3.04h2.1v-2.46h-2.1zm2.72-3.04h2.1v-2.45h-2.1zm0 3.04h2.1v-2.46h-2.1zm6.07 3.6c-1.41-.71-2.7-1.3-3.86-1.78l.35-.56c1.45.62 2.75 1.19 3.84 1.72zm-1.25-9.09h-2.1v2.45h2.1zm-2.09 5.49h2.1v-2.46h-2.1z" fill="#fbfcfa"/></svg>