<svg enable-background="new 0 0 400 400" viewBox="0 0 400 400" xmlns="http://www.w3.org/2000/svg"><g fill="#010000"><path d="m213.46 222.78c14.24.66 27.21-1.1 39.91-4.27 20.58-5.14 40.97-11.08 61.55-16.24 4.15-1.04 9.3-1.41 13.11.12 8.89 3.57 17.51 8.01 25.7 12.99 5.8 3.53 6.71 8.77 3.03 13.6-7.26 9.51-9.56 20.7-11.66 31.98-3.82 20.56-6.84 41.28-11.32 61.68-3.49 15.87-12.38 28.99-25.43 38.93-6.37 4.85-10.1 3.84-13.05-3.39-4.51-11.1-12.58-19.45-20.81-27.73-2.24-2.25-4.08-4.9-6.11-7.36.29-.5.59-.99.88-1.49 2.5.33 5 .63 7.49 1.01 7.81 1.17 15.59 2.66 23.44 3.48 6.48.68 10.55-3.62 12.41-8.96 3.54-10.15 7.1-20.45 8.97-30.98 2.49-14.02 3.55-28.32 4.86-42.53.36-3.9-.17-8.02-1.02-11.87-2.49-11.32-5.99-13.96-19.6-12.99-8.17.58-16.14 3.69-24.26 5.34-10.53 2.15-21.13 3.98-31.43 5.9 1.91 2.73 4.92 5.27 5.43 8.24.48 2.8-1.69 6.04-2.85 9.58 4.73 1.5 10.22 3 15.52 5 4.8 1.81 9.64 3.76 14 6.4 6.04 3.66 7.96 11.12 5.24 17.58-1.72 4.1-4.6 5.48-8.27 2.97-6.16-4.22-12.02-8.9-17.78-13.66-4.74-3.92-9.14-8.24-14.06-12.74-11.23 12.79-22.37 25.74-39.5 30.51-.34-.36-.69-.72-1.03-1.08 4.11-4.91 8.62-9.55 12.24-14.79 5.37-7.77 10.39-15.81 14.99-24.05 1.94-3.47 2.43-7.76 3.68-12.04-5.56-.26-10.12-.46-14.69-.69-1.16-.06-2.54.18-3.45-.36-6.45-3.81-9.92.37-14.28 4.31-5.1 4.6-11.15 8.17-16.95 11.94-1.34.87-3.33.73-6.4 1.33 1.75-2.47 2.6-3.83 3.6-5.07 8.29-10.29 12.64-22.16 13.87-35.19.26-2.76-.35-5.63-.78-8.41-.85-5.53 0-6.33 6.45-4.88-1.41-7.37-2.65-14.48-4.16-21.54-1.83-8.58-3.39-17.27-6.02-25.61-1.61-5.09-5.02-9.61-7.58-14.41-.6-1.12-1.74-2.86-1.36-3.38.74-1 2.39-1.87 3.65-1.86 3.98.02 7.95.48 11.93.75 21.56 1.43 42.29-3.44 62.94-8.54 9.64-2.38 19.05-5.69 28.6-8.45 1.68-.49 3.63-.77 5.31-.43 10.63 2.19 19.99 7.21 28.51 13.75 4.87 3.74 5.2 7 1.96 12.1-10.58 16.7-21.17 33.39-31.78 50.07-.8 1.26-1.62 2.54-2.59 3.67-3.97 4.6-7.87 4.36-10.34-1.16-1.64-3.67-3.66-3.58-7.02-3.13-19.42 2.63-38.89 4.91-58.33 7.45-2.31.3-4.49 1.5-7.74 2.62 4.01 3.38 6.8 5.66 9.52 8.04 2.15 1.88 2.73 3.61.52 6.26-2.76 3.37-4.84 7.32-7.66 11.68zm1.77-36.46c1.86-.41 3.15-.66 4.41-.98 19.97-5.07 39.99-10 60.79-9.27 4.55.16 6.94-1.3 7.88-5.34 2.51-10.78 5.22-21.54 7.11-32.44 1.02-5.87-1.61-8.49-7.66-9.41-2.42-.37-4.97-.43-7.41-.14-11.36 1.36-22.71 2.79-34.04 4.39-11.29 1.59-22.55 3.4-34.22 5.17.51 7.36 1 14.38 1.55 22.23 10.01-2.78 19.31-5.76 28.81-7.84 5.86-1.28 12.03-1.57 18.05-1.49 2.19.03 4.36 2.43 6.53 3.74-1.86 1.68-3.47 4.24-5.64 4.89-8.08 2.42-16.28 4.53-24.56 6.16-7.1 1.4-14.36 1.97-21.6 2.92z"/><path d="m264.56 91.18c-11.65 1.96-23.01 3.87-34.95 5.87v20.14c-.58.21-1.16.41-1.75.62-3.29-5.73-6.57-11.47-10.04-17.51-7.08 1.76-14.28 3.59-21.5 5.35-8.64 2.1-22.47-3.12-26.94-10.82 2.85-.68 5.41-1.51 8.04-1.87 11.98-1.64 23.98-3.15 36.8-4.82-4.4-11.27-8.91-21.27-15.78-30.15-1.92-2.48-3.05-5.57-4.55-8.39 3.33-.42 6.67-1.28 9.98-1.18 5.13.16 10.27.81 15.36 1.54 6.22.89 7.26 3.17 7.17 9.33-.12 8.24.74 16.5 1.22 25.51 13.87-2.05 26.79-3.9 39.68-5.96 1.07-.17 2.4-1.62 2.78-2.75 4.26-12.58 8.81-25.09 7.92-38.76-.31-4.86 2.04-6.62 6.52-4.75 5.18 2.16 10.25 4.76 14.96 7.81 5.49 3.55 5.64 6.83 1.88 12.11-4.05 5.69-7.9 11.52-11.76 17.34-1.07 1.62-1.84 3.44-3.35 6.3 11.85-2.08 22.58-3.79 33.23-5.87 9.72-1.9 19.28-2.78 27.71 3.62 2.47 1.88 3.98 5.03 5.92 7.59-2.79 1.18-5.51 3.11-8.39 3.4-10.25 1.03-20.57 1.39-30.85 2.22-10.1.81-20.19 1.75-30.25 2.96-1.78.21-3.8 1.67-4.96 3.14-4.63 5.88-8.9 12.03-13.45 17.97-1.12 1.46-2.79 2.5-4.21 3.73-.6-.27-1.2-.53-1.8-.8 1.73-7.38 3.46-14.76 5.36-22.92z"/><path d="m103.64 329.91c-1.59-2.73-3.67-5.29-4.68-8.22-2.9-8.47-5.55-17.04-7.97-25.66-3.11-11.11-7.08-21.77-13.81-31.3-1.22-1.73-2.5-5.03-1.7-6.2 1.09-1.6 4.18-2.65 6.37-2.57 19.83.68 38.13-4.02 55.23-14.14 2.87-1.7 7.35-2.51 10.47-1.61 6.26 1.81 12.31 4.72 18.05 7.89 3.91 2.16 4.07 5.6 1.72 9.82-4.09 7.35-7.4 15.13-11.04 22.72-1.15 2.4-.91 4.44 1.4 6.08.66.47 1.14 1.21 1.65 1.87 4.48 5.8 3.8 8.12-3.3 9.71-15.06 3.36-30.13 6.64-45.27 9.61-3.14.62-3.57 1.92-3.65 4.59-.16 5.56-.68 11.1-1.05 16.66-.8.24-1.61.5-2.42.75zm-2.22-63.39c1.51 10.9 2.96 21.45 4.42 32.01 11.71-3.65 22.7-7.08 33.78-10.53.32-3.96.78-7.9.93-11.86.16-4.14.33-8.32-.05-12.43-.57-6.11-3.28-8.01-9.08-6.34-9.84 2.83-19.61 5.96-30 9.15z"/><path d="m195.42 302.47c17.25-3.2 33.01-6.29 48.84-9.02 11.27-1.94 22.59-4.16 34.08-1.58 5.77 1.29 10.24 4.58 13.71 9.32 2.1 2.86.9 4.44-2.09 4.69-2.27.19-4.59-.53-6.9-.65-26.76-1.41-53.06 1.51-78.9 8.53-6.84 1.86-12.9 5.03-17.77 10.49-3.8 4.26-6.77 3.39-8.36-2.24-1.86-6.59-2.03-12.51 1.52-19.42 6.04-11.76 5.76-24.62.75-37.19-1.1-2.77-1.24-5.92-1.82-8.9 3.3.4 6.89.09 9.83 1.33 9.2 3.89 11.35 9.78 9.51 19.51-1.45 7.75-1.56 15.76-2.4 25.13z"/><path d="m41.7 135.66c2.65-.58 5.1-1.47 7.59-1.61 34.2-1.88 67.19-9.91 99.81-19.7 7.5-2.25 14.87-3.73 22.45-1.13 1.71.59 3.05 2.24 4.57 3.4-1.4 1.26-2.6 3.12-4.25 3.67-11.95 4.01-24.04 7.59-35.98 11.63-18.87 6.39-37.67 12.97-56.47 19.58-13.21 4.67-31.67-2.65-37.72-15.84z"/><path d="m117.7 50.19c8.26 1.69 16.74 2.7 24.73 5.23 12.35 3.91 17.51 20.58 10.32 31.4-2.33 3.51-5.79 4.38-9.1 2.12-6.56-4.49-13.03-9.17-19.03-14.37-5.01-4.33-9.47-9.35-13.78-14.4-1.44-1.69-2.92-5.37-2.12-6.46 1.24-1.67 4.43-1.92 6.82-2.68.6-.19 1.32-.03 1.99-.03.06-.27.11-.54.17-.81z"/><path d="m98.05 216.77c1.81-1.08 2.7-1.85 3.73-2.18 14.85-4.78 29.67-9.66 44.61-14.13 4.74-1.42 9.86-2.02 14.42 1.2 2.78 1.96 2.97 4.1.56 6.61-11.44 11.91-42.69 18.59-57.48 12.14-1.86-.8-3.48-2.15-5.84-3.64z"/><path d="m99.08 175.74c1.84-1.2 3.4-2.72 5.26-3.35 12.22-4.18 24.38-8.64 36.82-12.04 7.62-2.09 15.42-1.21 21.85 4.5-9.01 14.01-52.8 21.75-63.93 10.89z"/></g><path d="m6.44 374.46.42-.45c.65.47 1.27.95 1.85 1.44l-.45.49c-.65-.56-1.25-1.06-1.82-1.48m.93 7.33-.63-.26c.55-1.36 1.05-2.8 1.52-4.33.19.1.38.19.59.27-.46 1.29-.95 2.73-1.48 4.32m-.38-10.38.44-.42c.43.34 1.01.82 1.74 1.44l-.49.49c-.53-.51-1.09-1.01-1.69-1.51m2.5.35h1.72v-1.04h.59v1.04h3.52v-1.04h.59v1.04h1.75v.53h-1.75v1.42h-2.03v.97h3.22v2.03h-3.24c0 .35-.01.66-.03.93h3.32v.53h-3.37c-.03.27-.08.58-.15.94h3.96v.53h-3.71c.67.92 1.93 1.48 3.79 1.68-.13.24-.23.44-.29.59-2.13-.38-3.48-1.08-4.04-2.12-.43.97-1.77 1.72-4.03 2.23-.09-.19-.2-.37-.33-.55 2.1-.42 3.37-1.03 3.81-1.83h-3.36v-.53h3.58c.08-.29.13-.61.16-.94h-3.33v-.53h3.39c.02-.27.04-.58.04-.93h-3.23v-2.03h3.25v-.97h-2.07v-1.42h-1.73zm1.12 3.44v1h2.65c.01-.3.02-.44.01-.4v-.25-.35zm1.19-2h3.52v-.91h-3.52zm4.71 2h-2.63v.59c0 .15-.01.28-.01.4h2.64z" fill="#fbfcfa"/><path d="m13.56 383.74h.63v1.52h2.72v6.07h1.13v.6h-11.06v-.6h1.13v-6.07h2.73v-1.52h.63v1.52h2.1v-1.52zm-2.69 8.83.38.56c-1.24.63-2.53 1.25-3.85 1.85-.1-.21-.21-.42-.34-.63 1.36-.55 2.63-1.15 3.81-1.78m-2.13-4.27h2.1v-2.45h-2.1zm0 3.04h2.1v-2.46h-2.1zm2.72-3.04h2.1v-2.45h-2.1zm0 3.04h2.1v-2.46h-2.1zm6.07 3.6c-1.41-.71-2.7-1.3-3.86-1.78l.35-.56c1.45.62 2.75 1.19 3.84 1.72zm-1.25-9.09h-2.1v2.45h2.1zm-2.09 5.49h2.1v-2.46h-2.1z" fill="#fbfcfa"/></svg>