<svg enable-background="new 0 0 400 400" viewBox="0 0 400 400" xmlns="http://www.w3.org/2000/svg"><g fill="#010000"><path d="m171.52 176.08c2.45-1.05 4.82-2.37 7.37-3.1 18.96-5.45 37.95-10.77 56.92-16.15.79-.22 1.53-.61 3-1.21-2.12-12.61-4.05-25.34-6.42-37.98-3.94-21.11-9.54-41.72-19.35-61.02-1.02-2.01-1.66-5.88-.59-6.88 1.46-1.37 4.9-1.54 7.19-.98 6.89 1.68 13.83 3.48 20.39 6.12 8.44 3.4 9.58 8.45 8 17.18-1.58 8.72-2.11 17.86-1.44 26.69 1.23 16.37 3.66 32.66 5.62 48.97.13 1.12.55 2.21 1.01 4.01 6.33-2.15 12.44-4.09 18.45-6.32 6.41-2.38 12.72-2.57 18.78.66 2.06 1.1 4.8 3.08 4.99 4.9.17 1.63-2.37 4.46-4.33 5.25-10.42 4.22-21.04 7.97-31.59 11.88-.61.23-1.22.43-2.61.91 3.4 11.83 6.53 23.65 10.2 35.29 9.19 29.11 20.42 57.36 38.65 82.18 6.28 8.54 13.7 16.24 20.68 24.26 1.07 1.23 2.5 2.2 3.88 3.12 5.38 3.62 8.74 3.15 11.9-2.59 2.71-4.9 4.82-10.21 6.64-15.52 2.58-7.53 4.6-15.25 6.99-22.85.83-2.63 2.04-5.14 4.29-7.63.31 1.8.88 3.59.89 5.39.11 11.15.17 22.31.1 33.46-.1 14.37 1.81 28.47 5.05 42.45 2 8.63-1.91 12.13-10.69 10.03-10.66-2.55-19.47-8.44-27.37-15.7-21.09-19.39-36.82-42.8-50.12-67.94-16.19-30.62-25.79-63.58-33.94-97.02-.96-3.93-2.38-4.06-5.8-3.28-13.89 3.17-27.82 6.26-41.83 8.87-8.58 1.6-16.92.07-24.66-3.81-.06-.56-.15-1.1-.25-1.64z"/><path d="m162.63 267.02c-4.64 3.86-9.22 7.79-13.93 11.55-12.35 9.86-24.9 19.48-37.06 29.56-4.44 3.68-8.02 8.4-12.03 12.62-1.71 1.8-3.31 3.79-5.3 5.21-3.17 2.28-6.25 1.99-8.59-1.48-5.8-8.59-9.77-20.81.61-31.84 8.41-8.93 11.45-20.69 12.45-32.52 1.62-19.2 2.25-38.49 3.21-57.75.21-4.28.52-8.63-.02-12.85-.93-7.21-4.72-9.35-11.62-6.66-7.89 3.07-15.7 6.38-23.39 9.9-10.11 4.63-18.75 1.68-26.85-4.64-.97-.76-1.6-1.97-3.37-4.25 5.91-1.12 10.8-1.96 15.64-2.98 14.29-3 28.68-5.73 41.56-13.14 2.15-1.24 4.27-2.68 6-4.43 3.99-4.04 8.94-6.02 14.07-4.27 6.49 2.21 12.73 5.39 18.67 8.86 3.4 1.99 4.18 5.96 1.09 9-9.12 8.96-12.27 20.36-13.57 32.43-2.09 19.32-3.93 38.67-5.7 58.02-1.09 12.01 2.24 14.44 13.81 10.33 10.47-3.72 20.89-7.56 31.35-11.33.73-.26 1.54-.28 2.31-.41.2.38.43.73.66 1.07z"/><path d="m156.25 230.81c1.3-.79 1.93-1.35 2.67-1.59 18.75-6.06 37.52-12.08 56.27-18.14 6.99-2.26 14.04-3.04 20.91 0 2.24.99 3.95 3.18 5.9 4.82-1.57 1.8-2.78 4.41-4.76 5.25-9.26 3.93-18.73 7.38-28.22 11.03.63.68 2.28 1.76 2.86 3.25.97 2.47 2.3 5.49 1.67 7.79-3.15 11.49-1.98 22.99-1.32 34.71 14.2-4.07 28.08-8.05 41.96-12.03.3.72.6 1.45.89 2.17-4.09 2.61-8.02 5.55-12.31 7.78-19.46 10.11-39.04 19.98-58.51 30.06-3.82 1.98-7.2 4.85-11.1 6.63-2.96 1.35-6.95 3.03-9.55 2.06-6.29-2.34-12.33-5.73-17.92-9.5-4.56-3.08-3.78-6.55 1.51-7.96 6.39-1.71 13.04-2.47 19.38-4.32 8.91-2.6 17.7-5.67 26.4-8.9 1.53-.57 3.47-2.9 3.44-4.38-.26-11.79-.69-23.58-1.6-35.33-.52-6.7-2.69-7.68-9.5-7.32-9.1.49-18.34 1.2-26.61-4.04-.68-.43-1.24-1.02-2.46-2.04z"/><path d="m284.1 75.86c9.32.49 18.6 1.33 26.89 6.13 9.58 5.54 12.96 15.13 9.3 25.62-2.32 6.64-6.52 8.71-12.78 5.49-12.74-6.55-23.32-15.94-32.5-26.82-1.51-1.79-2.83-5.56-1.95-7.07 1.09-1.85 4.54-2.45 7.07-3.27 1.19-.41 2.63-.08 3.97-.08z"/><path d="m98.46 69.16c12.62-1.11 23.43-.23 34.13 2.39 2.9.71 5.81 1.45 8.6 2.48 11.08 4.1 16.24 17.46 10.92 28.03-2.01 4-5.95 5.65-10.58 2.88-9.52-5.7-18.73-11.97-27.77-18.42-4.16-2.97-7.78-6.76-11.36-10.46-1.47-1.52-2.19-3.76-3.94-6.9z"/></g><path d="m6.44 374.46.42-.45c.65.47 1.27.95 1.85 1.44l-.45.49c-.65-.56-1.25-1.06-1.82-1.48m.93 7.33-.63-.26c.55-1.36 1.05-2.8 1.52-4.33.19.1.38.19.59.27-.46 1.29-.95 2.73-1.48 4.32m-.38-10.38.44-.42c.43.34 1.01.82 1.74 1.44l-.49.49c-.53-.51-1.09-1.01-1.69-1.51m2.5.35h1.72v-1.04h.59v1.04h3.52v-1.04h.59v1.04h1.75v.53h-1.75v1.42h-2.03v.97h3.22v2.03h-3.24c0 .35-.01.66-.03.93h3.32v.53h-3.37c-.03.27-.08.58-.15.94h3.96v.53h-3.71c.67.92 1.93 1.48 3.79 1.68-.13.24-.23.44-.29.59-2.13-.38-3.48-1.08-4.04-2.12-.43.97-1.77 1.72-4.03 2.23-.09-.19-.2-.37-.33-.55 2.1-.42 3.37-1.03 3.81-1.83h-3.36v-.53h3.58c.08-.29.13-.61.16-.94h-3.33v-.53h3.39c.02-.27.04-.58.04-.93h-3.23v-2.03h3.25v-.97h-2.07v-1.42h-1.73zm1.12 3.44v1h2.65c.01-.3.02-.44.01-.4v-.25-.35zm1.19-2h3.52v-.91h-3.52zm4.71 2h-2.63v.59c0 .15-.01.28-.01.4h2.64z" fill="#fbfcfa"/><path d="m13.56 383.74h.63v1.52h2.72v6.07h1.13v.6h-11.06v-.6h1.13v-6.07h2.73v-1.52h.63v1.52h2.1v-1.52zm-2.69 8.83.38.56c-1.24.63-2.53 1.25-3.85 1.85-.1-.21-.21-.42-.34-.63 1.36-.55 2.63-1.15 3.81-1.78m-2.13-4.27h2.1v-2.45h-2.1zm0 3.04h2.1v-2.46h-2.1zm2.72-3.04h2.1v-2.45h-2.1zm0 3.04h2.1v-2.46h-2.1zm6.07 3.6c-1.41-.71-2.7-1.3-3.86-1.78l.35-.56c1.45.62 2.75 1.19 3.84 1.72zm-1.25-9.09h-2.1v2.45h2.1zm-2.09 5.49h2.1v-2.46h-2.1z" fill="#fbfcfa"/></svg>