<svg enable-background="new 0 0 400 400" viewBox="0 0 400 400" xmlns="http://www.w3.org/2000/svg"><path d="m5.17 384 .55-.58c.85.61 1.65 1.24 2.4 1.87l-.59.64c-.83-.73-1.62-1.38-2.36-1.93m1.22 9.53-.82-.34c.71-1.76 1.37-3.64 1.98-5.63.24.13.5.25.76.36-.6 1.67-1.24 3.54-1.92 5.61m-.5-13.5.57-.54c.56.44 1.31 1.06 2.26 1.87l-.64.64c-.68-.66-1.41-1.32-2.19-1.97m3.25.46h2.24v-1.36h.77v1.36h4.57v-1.36h.76v1.36h2.28v.69h-2.28v1.84h-2.64v1.26h4.18v2.64h-4.21c0 .45-.02.86-.05 1.21h4.32v.69h-4.38c-.04.34-.1.75-.19 1.22h5.15v.69h-4.82c.87 1.19 2.51 1.92 4.93 2.19-.17.31-.3.57-.37.76-2.77-.49-4.52-1.41-5.26-2.76-.56 1.26-2.3 2.23-5.24 2.9-.12-.24-.26-.48-.43-.72 2.73-.55 4.38-1.34 4.96-2.38h-4.38v-.69h4.65c.1-.38.17-.79.21-1.22h-4.32v-.69h4.4c.03-.34.05-.75.05-1.21h-4.2v-2.64h4.23v-1.26h-2.69v-1.84h-2.24zm1.46 4.46v1.29h3.45c.01-.4.02-.57.01-.53v-.32-.45h-3.46zm1.55-2.59h4.57v-1.19h-4.57zm6.11 2.59h-3.42v.77c-.01.19-.01.37-.02.53h3.44z" fill="#fbfcfa"/><path d="m32.63 379.16h.82v1.98h3.54v7.89h1.46v.78h-14.37v-.78h1.46v-7.89h3.55v-1.98h.82v1.98h2.73v-1.98zm-3.49 11.48.5.73c-1.61.82-3.28 1.63-5 2.41-.13-.27-.28-.55-.44-.82 1.75-.72 3.4-1.49 4.94-2.32m-2.78-5.55h2.73v-3.18h-2.73zm0 3.95h2.73v-3.2h-2.73zm3.54-3.95h2.73v-3.18h-2.73zm0 3.95h2.73v-3.2h-2.73zm7.89 4.68c-1.84-.92-3.51-1.7-5.02-2.32l.45-.73c1.89.8 3.57 1.55 5.04 2.23zm-1.62-11.81h-2.73v3.18h2.73zm-2.73 7.13h2.73v-3.2h-2.73z" fill="#fbfcfa"/><g fill="#010102"><path d="m205.78 207.98v93.2c17.01-7.61 30.78-20.28 47.48-27.64.43.49.86.98 1.28 1.47-3.72 4.48-7.32 9.07-11.19 13.42-11.96 13.41-24.2 26.58-35.95 40.17-3.99 4.61-6.6 10.38-10.27 15.31-1.65 2.21-4.26 4.86-6.6 5.03-1.63.11-4.24-3.37-5.19-5.74-4.69-11.63-4.75-23.01-.55-35.3 3.91-11.46 5.86-23.87 6.79-36.01 1.34-17.56 1.15-35.25 1.26-52.89.03-5.3-1.12-10.61-2.7-16.02-9.61 25.81-20.94 50.1-42.53 68.45.98-3.19 1.79-6.44 2.96-9.56 7.19-19.3 14.99-38.39 21.56-57.89 8.16-24.21 12.13-49.34 12.81-74.88.39-14.61.24-29.25-.12-43.86-.11-4.21-1.82-8.37-2.81-12.56-.48-2.03-.99-4.05-1.73-7.1 2.63.52 4.51.45 5.91 1.24 17.61 9.92 35.06 5.46 52.48-.46 9.26-3.15 18.35-6.87 27.72-9.65 6.93-2.05 14.21-1.93 21.02.97 2.1.89 3.72 2.92 5.57 4.42-1.56 1.61-2.84 4.01-4.74 4.69-9.35 3.35-18.68 7.12-28.35 9.1-18.66 3.82-37.54 6.53-56.68 9.76-1.91 26.75-3.91 54.67-5.97 83.46 7.11-.86 14.18-1.28 21.06-2.64 19.53-3.85 38.94-8.26 58.48-12.08 9.13-1.79 18.3-1.41 26.63 3.5 1.82 1.07 3.07 3.11 4.58 4.7-1.69 1.21-3.24 3.09-5.11 3.5-8.73 1.9-17.5 3.84-26.36 4.95-20.27 2.54-40.58 4.78-60.91 6.77-6.41.63-12.94.1-20.17.1-.74 2.91-1.78 6.17-2.29 9.52-.16 1.05.83 2.74 1.8 3.4 2.18 1.49 4.57 2.86 7.07 3.68 13.99 4.55 23.91 14.73 34.18 24.42 3.38 3.19 6.76 6.4 10.52 9.97 10.77-13.78 23.97-25.73 27.49-43.88.81-4.18 3.54-5.56 6.82-3.07 5.64 4.29 11.19 8.84 16.08 13.96 3.27 3.42 2.07 6.95-2.36 8.6-16.17 6.03-27.01 18.96-39.93 29.8 15.53 14.65 32.37 26.37 50.82 35.86 17.07 8.79 34.95 15.29 53.61 19.79 3.41.82 6.63 2.38 9.94 3.6-.04.65-.08 1.3-.12 1.95-4.74 1.18-9.42 2.9-14.23 3.44-14.36 1.61-28.77 2.75-43.16 4.11-13.81 1.31-23.27-6.24-31.77-15.63-19.33-21.33-38.52-42.79-57.96-64.03-4.79-5.28-10.28-9.86-16.17-15.42z"/><path d="m77.5 234.95c-.47 2.86-.64 5.9-1.54 8.7-.65 2.02-1.9 4.51-3.58 5.29-1.03.48-3.8-1.54-5.05-3.05-5.74-6.94-8.85-14.91-7.45-24.02 4.67-30.28 3.12-60.76 2.76-91.16-.16-13.21-2.25-26.41-3.83-39.57-.43-3.55-2.11-6.97-3.34-10.41-1.56-4.34-.57-6.03 4.08-5.71 3.96.27 7.85 1.53 11.8 1.76 16.46.94 32.43-.4 47.29-8.88 3.12-1.78 8.23-1.67 11.86-.58 5.95 1.8 11.67 4.74 17.08 7.9 5.55 3.24 6.91 7.45 4 13.14-6.22 12.11-7.16 25.2-7.41 38.28-.57 29.61-.57 59.22-.76 88.83-.07 11.04-1.18 21.92-5.56 32.16-1.03 2.41-3.24 4.31-4.9 6.45-1.68-2.28-3.96-4.35-4.9-6.9-1.53-4.16-2.06-8.69-3.3-12.98-.31-1.06-1.78-2.63-2.63-2.57-14.71.96-29.42 2.14-44.62 3.32zm46.86-10.61c.42-13.24 1.16-25.82 1.16-38.4-.01-27.61-.26-55.23-.75-82.84-.09-4.87-1.56-9.78-2.84-14.56-1.07-3.99-3.97-6.08-8.28-5.54-11.97 1.51-23.93 3.07-36.14 4.64v43.38c1.67-.31 2.94-.65 4.23-.77 6.73-.64 13.48-1.69 20.19-1.54 2.09.05 4.11 3.37 6.17 5.2-1.99 1.41-3.83 3.69-6.01 4.09-8.1 1.49-16.3 2.36-24.55 3.48v34.48c8.29-.81 16.19-1.77 24.12-2.3 5.17-.34 9.44 2.81 9.54 6.79.12 4.98-4.3 5.08-7.42 5.62-8.61 1.51-17.32 2.48-26.15 3.68v35.89c15.53-2.88 30.55-7.76 46.73-1.3z"/><path d="m27.66 332.55c2.54-3.21 4.94-6.54 7.63-9.61 14.64-16.72 27.77-34.42 36.03-55.26 1.58-3.98 2.51-8.23 3.54-12.4 1.15-4.67 3.63-6.49 7.89-4.32 5.72 2.92 11.14 6.51 16.44 10.17 2.17 1.5 2.91 3.72.57 6.34-7.27 8.13-14.98 15.98-21.3 24.82-11.96 16.73-27.01 29.64-44.82 39.56-1.52.85-3.3 1.24-4.96 1.84-.35-.38-.68-.76-1.02-1.14z"/><path d="m151.84 294.37c-1.11 4.12-1.96 8.34-3.39 12.34-1.4 3.92-4.3 4.38-7.5 1.92-1.7-1.31-3.34-2.8-4.65-4.49-9.74-12.53-18.26-25.77-22.53-41.26-.64-2.31.1-5 .21-7.51 2.53.35 5.55-.08 7.49 1.18 6.95 4.48 13.95 9.06 20.16 14.49 7.25 6.33 9.61 13.4 10.21 23.33z"/><path d="m215.47 125.12c3.96-.87 7.97-1.57 11.88-2.66 10.38-2.88 20.7-5.92 31.05-8.89 7.92-2.27 15.94-3.52 23.88-.46 2.11.81 3.71 2.94 5.54 4.47-1.6 1.59-2.94 4.06-4.84 4.61-11.1 3.23-22.26 6.36-33.55 8.82-8.98 1.96-18.17 2.1-27.09-.87-2.44-.81-4.75-2.03-7.12-3.06.09-.65.17-1.31.25-1.96z"/></g></svg>