<svg enable-background="new 0 0 400 400" viewBox="0 0 400 400" xmlns="http://www.w3.org/2000/svg"><path d="m5.17 384 .55-.58c.85.61 1.65 1.24 2.4 1.87l-.59.64c-.83-.73-1.62-1.38-2.36-1.93m1.22 9.53-.82-.34c.71-1.76 1.37-3.64 1.98-5.63.24.13.5.25.76.36-.6 1.67-1.24 3.54-1.92 5.61m-.5-13.5.57-.54c.56.44 1.31 1.06 2.26 1.87l-.64.64c-.68-.66-1.41-1.32-2.19-1.97m3.25.46h2.24v-1.36h.77v1.36h4.57v-1.36h.76v1.36h2.28v.69h-2.28v1.84h-2.64v1.26h4.18v2.64h-4.21c0 .45-.02.86-.05 1.21h4.32v.69h-4.38c-.04.34-.1.75-.19 1.22h5.15v.69h-4.82c.87 1.19 2.51 1.92 4.93 2.19-.17.31-.3.57-.37.76-2.77-.49-4.52-1.41-5.26-2.76-.56 1.26-2.3 2.23-5.24 2.9-.12-.24-.26-.48-.43-.72 2.73-.55 4.38-1.34 4.96-2.38h-4.38v-.69h4.65c.1-.38.17-.79.21-1.22h-4.32v-.69h4.4c.03-.34.05-.75.05-1.21h-4.2v-2.64h4.23v-1.26h-2.69v-1.84h-2.24zm1.46 4.46v1.29h3.45c.01-.4.02-.57.01-.53v-.32-.45h-3.46zm1.55-2.59h4.57v-1.19h-4.57zm6.11 2.59h-3.42v.77c-.01.19-.01.37-.02.53h3.44z" fill="#fbfcfa"/><path d="m32.63 379.16h.82v1.98h3.54v7.89h1.46v.78h-14.37v-.78h1.46v-7.89h3.55v-1.98h.82v1.98h2.73v-1.98zm-3.49 11.48.5.73c-1.61.82-3.28 1.63-5 2.41-.13-.27-.28-.55-.44-.82 1.75-.72 3.4-1.49 4.94-2.32m-2.78-5.55h2.73v-3.18h-2.73zm0 3.95h2.73v-3.2h-2.73zm3.54-3.95h2.73v-3.18h-2.73zm0 3.95h2.73v-3.2h-2.73zm7.89 4.68c-1.84-.92-3.51-1.7-5.02-2.32l.45-.73c1.89.8 3.57 1.55 5.04 2.23zm-1.62-11.81h-2.73v3.18h2.73zm-2.73 7.13h2.73v-3.2h-2.73z" fill="#fbfcfa"/><g fill="#010102"><path d="m232.83 222.38c-27.45 35.88-55.09 69.33-95.84 88.71 35.59-33.93 64.98-72.54 90.3-116.34-9.35 2.27-17.39 3.75-25.12 6.23-10.5 3.36-20.26 3.01-29.49-3.37-.82-.56-1.69-1.06-2.44-1.7-.74-.63-1.35-1.4-2.5-2.62 21.26-4.57 41.99-9.03 63.12-13.57.05-8.05-2.66-14.87-5.63-21.68-1.05-2.41-1.3-5.16-1.92-7.76 2.74.14 5.65-.26 8.19.54 4.73 1.48 9.33 3.49 13.83 5.59 3.22 1.5 5.18 3.73 3.99 7.93-.92 3.23-.82 6.75-1.26 10.94 15.92-3.42 30.98-6.65 46.03-9.88 9.76-2.09 18.92-.58 27.1 5.19 1.99 1.41 3.22 3.9 4.79 5.9-2.23 1.22-4.34 3.08-6.72 3.52-6.84 1.29-13.8 1.97-20.7 2.95-16.93 2.4-33.86 4.82-51.48 7.34 0 5.43-.1 10.69.09 15.94.03.95 1.09 2.02 1.91 2.77 26.12 24.07 52.9 47.31 85.12 63.07 9.07 4.44 18.78 7.56 28.14 11.42 3.28 1.36 6.39 3.13 9.58 4.71-.05.48-.11.95-.16 1.43-1.25.52-2.45 1.35-3.75 1.52-16.8 2.29-33.66 4.37-50.6 1.84-8.69-1.3-15.68-5.87-21.38-12.68-15.27-18.26-30.73-36.36-46.09-54.55-.63-.75-1.09-1.64-1.63-2.47-.44.18-.87.35-1.31.53v5.18c0 24.49.46 49-.17 73.48-.4 15.57-2.2 31.12-3.9 46.61-.38 3.42-2.99 6.59-4.57 9.88-2.16-2.77-4.83-5.28-6.4-8.35-6.5-12.68-6.23-25.93-4.22-39.83 2.4-16.57 3.1-33.4 4.15-50.14.67-10.62.65-21.28.93-31.92.04-1.6.01-3.19.01-6.36z"/><path d="m65.02 273.98c-.16-24.16-.3-47.94-9.11-70.58-1.49-3.82-3.94-7.28-5.94-10.9-1.76-3.2-.66-5.25 2.81-4.42 7.85 1.88 15.7 3.98 23.27 6.75 4.04 1.48 5.34 5.42 5.12 9.92-.82 17.08-1.45 34.18-2.08 51.27-.16 4.29-.02 8.59-.02 14.02 10.87-3.08 20.88-5.84 30.81-8.86.91-.28 1.89-2.22 1.88-3.38-.22-27.43-.26-54.87-1.12-82.28-.21-6.56-3.21-13.03-4.97-19.69-1.44.57-1.79.63-2.02.82-2.3 1.95-4.59 3.92-6.88 5.88-1.89-2.62-4.45-4.99-5.55-7.91-3.97-10.55-6.84-21.55-11.3-31.87-3.92-9.1-9.46-17.49-14.15-26.27-1.12-2.1-1.71-4.48-2.54-6.74 2.41-.72 4.85-2.16 7.22-2.04 20.85 1.06 40.57-3.81 59.86-11 3.23-1.2 6.43-2.91 9.13-5.04 4.15-3.26 8.66-5.01 13.36-2.62 6.86 3.5 13.54 7.5 19.84 11.93 3.24 2.28 3.53 6.25.09 9-9.37 7.47-13.17 18.09-16.85 28.82-.92 2.67-1.74 5.37-2.66 8.04-.91 2.65-.72 4.72 1.34 7.13 4.51 5.3 3.38 8.42-3.43 10.18-11.38 2.95-22.81 5.67-34.92 8.66 3.44 2.37 6.49 4.46 9.54 6.56 4 2.77 5.98 5.94 4.77 11.37-1.62 7.25-2.04 14.76-3.06 22.74 6.97-1.78 13.54-3.71 20.22-5.05 2.63-.53 5.69-.24 8.24.61 1.73.58 3.89 2.68 4.06 4.29.15 1.45-1.83 4.05-3.41 4.6-6.7 2.35-13.57 4.23-20.43 6.06-2.71.72-5.57.86-9.23 1.39v49.16c13.31-3.32 27.08-6.75 40.86-10.18.18.47.36.94.54 1.4-1.32.81-2.57 1.75-3.97 2.39-22.49 10.36-45.11 20.45-67.47 31.08-12.89 6.13-25.33 13.18-38.06 19.65-2.28 1.16-5.13 2.34-7.5 2-10.14-1.42-17.86-7.23-23.28-15.57-2.69-4.14 1.83-4.81 4.55-5.32 6.52-1.22 13.12-1.99 19.65-3.16 4.2-.71 8.35-1.83 12.79-2.84zm37.14-128.56c1.23-.17 1.72-.17 2.15-.31 6.9-2.37 13.66-5.31 20.72-7 8.47-2.03 13.45-5.75 13.63-15.37.15-8.24 2.21-16.42 3.07-24.67.74-7.15-1.9-10.91-7.47-9.89-13.97 2.55-27.81 5.79-42.62 8.95 3.6 16.55 7.01 32.19 10.52 48.29z"/><path d="m200.53 94.95c6.53-4.41 13.2-8.63 19.56-13.27 8.98-6.56 18.17-12.94 26.38-20.39 3.62-3.28 5.5-8.82 7.31-13.65 1.49-3.96 3.72-6.39 8.02-5.49 10.67 2.25 19.87 7.5 27.64 15.04 3.39 3.28 2.71 6.1-1.39 7.68-25.52 9.87-51.04 19.7-76.61 29.43-3.18 1.21-6.62 1.75-9.95 2.6-.31-.65-.63-1.3-.96-1.95z"/><path d="m258.77 141.13c5.59-6.76 11.16-13.54 16.77-20.29 6.53-7.85 12.81-15.66 12.64-26.83-.06-4.21 3.42-6.14 7.47-4.98 9.8 2.81 18.12 8.25 25.09 15.61 2.88 3.04 2.13 6.21-1.54 8.18-2.18 1.16-4.7 1.68-6.9 2.8-15.5 7.93-30.96 15.96-46.44 23.92-1.99 1.02-4.07 1.88-6.1 2.81-.34-.4-.67-.81-.99-1.22z"/><path d="m210.03 151.43c0 .67.05 1.34-.01 2-.98 10.33-5.72 12.65-14.11 6.55-8.85-6.45-16.11-14.46-20.92-24.38-.96-1.99-1.43-5.47-.34-6.85 1.07-1.35 4.65-1.7 6.72-1.09 6.48 1.91 13.03 3.94 19.05 6.94 6.72 3.34 9.64 9.43 9.61 16.83z"/><path d="m251.06 129.93c-.68 3.63-.1 9.34-5.49 11.31-4.69 1.71-8.08-2.31-10.84-5.38-6.56-7.32-12.19-15.31-14.25-25.23-.72-3.46-.41-6.47 4.04-6.76 11.52-.76 26.6 13.5 26.54 26.06z"/></g></svg>