<svg enable-background="new 0 0 400 400" viewBox="0 0 400 400" xmlns="http://www.w3.org/2000/svg"><path d="m5.17 384 .55-.58c.85.61 1.65 1.24 2.4 1.87l-.59.64c-.83-.73-1.62-1.38-2.36-1.93m1.22 9.53-.82-.34c.71-1.76 1.37-3.64 1.98-5.63.24.13.5.25.76.36-.6 1.67-1.24 3.54-1.92 5.61m-.5-13.5.57-.54c.56.44 1.31 1.06 2.26 1.87l-.64.64c-.68-.66-1.41-1.32-2.19-1.97m3.25.46h2.24v-1.36h.77v1.36h4.57v-1.36h.76v1.36h2.28v.69h-2.28v1.84h-2.64v1.26h4.18v2.64h-4.21c0 .45-.02.86-.05 1.21h4.32v.69h-4.38c-.04.34-.1.75-.19 1.22h5.15v.69h-4.82c.87 1.19 2.51 1.92 4.93 2.19-.17.31-.3.57-.37.76-2.77-.49-4.52-1.41-5.26-2.76-.56 1.26-2.3 2.23-5.24 2.9-.12-.24-.26-.48-.43-.72 2.73-.55 4.38-1.34 4.96-2.38h-4.38v-.69h4.65c.1-.38.17-.79.21-1.22h-4.32v-.69h4.4c.03-.34.05-.75.05-1.21h-4.2v-2.64h4.23v-1.26h-2.69v-1.84h-2.24zm1.46 4.46v1.29h3.45c.01-.4.02-.57.01-.53v-.32-.45h-3.46zm1.55-2.59h4.57v-1.19h-4.57zm6.11 2.59h-3.42v.77c-.01.19-.01.37-.02.53h3.44z" fill="#fbfcfa"/><path d="m32.63 379.16h.82v1.98h3.54v7.89h1.46v.78h-14.37v-.78h1.46v-7.89h3.55v-1.98h.82v1.98h2.73v-1.98zm-3.49 11.48.5.73c-1.61.82-3.28 1.63-5 2.41-.13-.27-.28-.55-.44-.82 1.75-.72 3.4-1.49 4.94-2.32m-2.78-5.55h2.73v-3.18h-2.73zm0 3.95h2.73v-3.2h-2.73zm3.54-3.95h2.73v-3.18h-2.73zm0 3.95h2.73v-3.2h-2.73zm7.89 4.68c-1.84-.92-3.51-1.7-5.02-2.32l.45-.73c1.89.8 3.57 1.55 5.04 2.23zm-1.62-11.81h-2.73v3.18h2.73zm-2.73 7.13h2.73v-3.2h-2.73z" fill="#fbfcfa"/><g fill="#010102"><path d="m209.39 111.37c5 .6 9.4.43 13.33 1.73 10.25 3.39 20.37 1.61 30.58.35 20.31-2.52 39.06-10.16 58.01-17.26 9.86-3.69 19.79-4.46 28.95 2.51 5.64 4.29 5.71 8.16-1.03 10.33-12.27 3.96-24.74 7.91-37.44 9.84-21.49 3.26-43.22 4.95-64.85 7.31-.64.07-1.26.25-2.2.45v58.56c9.39-2.15 18.72-3.7 27.67-6.5 9.91-3.1 19.35-7.65 29.21-10.92 4.05-1.34 9.27-2.49 12.89-1.04 7.74 3.1 15.14 7.43 22 12.23 5.48 3.84 5.5 8.92.33 12.93-13.47 10.47-18 25.85-23.62 40.35 4.28 3.49 8.25 6.73 12.22 9.97-.22.66-.45 1.33-.67 1.99-12.76 4.71-26.55 4.19-39.73 6.68s-26.56 3.85-40.48 5.79c-.92 17.38-1.85 35.09-2.82 53.54 6.47-.52 12.54-.76 18.54-1.52 24.87-3.13 49.69-6.74 74.6-9.52 12.56-1.4 25.41-2.02 36.47 6.22 2.51 1.87 5 3.93 6.95 6.35 3.29 4.1 2.08 7.28-3.14 8.1-3.75.59-7.64.52-11.46.41-21.61-.64-43.24-2.26-64.83-1.84-19.76.39-39.38 3.43-58.04 10.7-2.32.9-4.58 1.98-6.79 3.12-9.02 4.65-11.83 3.52-15.1-6.27-2.92-8.72-2.13-16.98 1.26-25.69 2.97-7.61 5.14-15.99 5.44-24.11 1.47-39.91 2.56-79.84 2.98-119.77.14-13.19-.93-26.64-8-38.63-.84-1.41-.69-3.42-1.23-6.39zm25.27 134.13c.56.2.9.46 1.18.4 16.65-3.62 33.3-7.24 49.92-10.99.82-.19 1.87-1.45 2-2.33 1.77-12.3 3.66-24.6 4.95-36.96.67-6.43-2.96-9.13-9.3-8.13-10.14 1.61-20.31 3.09-30.46 4.66-6.14.95-12.28 1.97-18.3 2.94.01 17.31.01 33.9.01 50.41z"/><path d="m130.88 254.54c-9.11 2.33-18.24 4.44-27.24 7.02-11.14 3.19-21.69 2.44-31.64-3.68-1.48-.91-2.67-2.27-5.4-4.64 4.51-1.32 7.62-2.55 10.84-3.13 15.99-2.85 32-5.61 48.02-8.22 4.5-.73 6.7-2.19 6.56-7.52-.3-11.61.13-23.23-3.45-35.18-11.93 3.5-22.39.78-31.77-6.29-.03-.64-.06-1.27-.09-1.91 3.54-.84 7.11-1.59 10.63-2.54 17.12-4.61 34.14-9.65 51.39-13.71 6.07-1.43 12.74-1.04 19.03-.39 2.25.23 5.29 3.46 5.81 5.8.33 1.5-2.95 4.92-5.22 5.67-10.37 3.43-20.94 6.24-31.46 9.22-1.91.54-3.89.83-6.69 1.41 2.81 2.12 5.21 3.75 7.39 5.63 3.49 3 5.01 6.09 3.32 11.29-2.27 6.97-2.87 14.49-4.4 22.91 7.91-1.43 14.66-2.65 21.41-3.88 2.93-.53 5.85-1.18 8.8-1.6 5.48-.77 10.24 1.13 14.22 4.68 1.48 1.32 3.21 3.67 2.95 5.25-.22 1.4-2.91 3.07-4.74 3.43-12.68 2.48-25.41 4.74-38.16 6.84-2.76.45-3.92 1.22-4.09 4.26-.75 13.27-1.82 26.51-2.73 39.77-.09 1.32-.07 2.68.1 3.99 1.09 8.41 3.94 10.07 11.65 6.67 9.88-4.36 19.68-8.88 29.57-13.21 2.63-1.15 5.46-1.87 8.19-2.79.3.45.61.9.91 1.35-1.85 2.23-3.41 4.8-5.59 6.63-9.79 8.26-19.99 16.03-29.57 24.52-8.7 7.7-16.8 16.07-25.15 24.16-3.14 3.04-5.9 8.59-10.71 6.28-3.13-1.5-5.25-6.43-6.51-10.25-2.65-8.06-2.15-15.74 3.75-22.88 5.95-7.2 6.86-16.49 7.8-25.39 1.31-12.39 1.98-24.84 2.89-37.27.06-.46-.23-.93-.62-2.3z"/><path d="m135.63 125.1c12.62-.43 24.01-3.15 35.27-6.8 6.76-2.19 13.62-4.54 20.94-2.45.64.18 1.44.15 1.9.53 2.56 2.09 5.05 4.27 7.56 6.42-2.25 1.96-4.19 4.7-6.81 5.76-19.07 7.73-38.79 10.08-59.06 5.91-3.15-.65-4.73-.02-6.31 2.83-13.66 24.66-28.93 48.17-48.57 68.64-8.4 8.76-28.4 24.45-37.1 27.61 2.31-3.21 3.66-5.46 5.36-7.41 26.82-30.81 48.62-64.96 66.78-101.43 10.03-20.13 17.85-41.11 20.67-63.6.55-4.35-.4-8.89-.6-13.35-.19-4.21 1.41-5.8 5.37-4.58 8.5 2.63 16.39 6.46 22.44 13.3 2.79 3.15 4.15 6.87 1.35 10.42-9.96 12.62-14.63 27.91-21.68 41.99-2.56 5.16-4.85 10.46-7.51 16.21z"/></g></svg>