<svg enable-background="new 0 0 400 400" viewBox="0 0 400 400" xmlns="http://www.w3.org/2000/svg"><path d="m5.17 384 .55-.58c.85.61 1.65 1.24 2.4 1.87l-.59.64c-.83-.73-1.62-1.38-2.36-1.93m1.22 9.53-.82-.34c.71-1.76 1.37-3.64 1.98-5.63.24.13.5.25.76.36-.6 1.67-1.24 3.54-1.92 5.61m-.5-13.5.57-.54c.56.44 1.31 1.06 2.26 1.87l-.64.64c-.68-.66-1.41-1.32-2.19-1.97m3.25.46h2.24v-1.36h.77v1.36h4.57v-1.36h.76v1.36h2.28v.69h-2.28v1.84h-2.64v1.26h4.18v2.64h-4.21c0 .45-.02.86-.05 1.21h4.32v.69h-4.38c-.04.34-.1.75-.19 1.22h5.15v.69h-4.82c.87 1.19 2.51 1.92 4.93 2.19-.17.31-.3.57-.37.76-2.77-.49-4.52-1.41-5.26-2.76-.56 1.26-2.3 2.23-5.24 2.9-.12-.24-.26-.48-.43-.72 2.73-.55 4.38-1.34 4.96-2.38h-4.38v-.69h4.65c.1-.38.17-.79.21-1.22h-4.32v-.69h4.4c.03-.34.05-.75.05-1.21h-4.2v-2.64h4.23v-1.26h-2.69v-1.84h-2.24zm1.46 4.46v1.29h3.45c.01-.4.02-.57.01-.53v-.32-.45h-3.46zm1.55-2.59h4.57v-1.19h-4.57zm6.11 2.59h-3.42v.77c-.01.19-.01.37-.02.53h3.44z" fill="#fbfcfa"/><path d="m32.63 379.16h.82v1.98h3.54v7.89h1.46v.78h-14.37v-.78h1.46v-7.89h3.55v-1.98h.82v1.98h2.73v-1.98zm-3.49 11.48.5.73c-1.61.82-3.28 1.63-5 2.41-.13-.27-.28-.55-.44-.82 1.75-.72 3.4-1.49 4.94-2.32m-2.78-5.55h2.73v-3.18h-2.73zm0 3.95h2.73v-3.2h-2.73zm3.54-3.95h2.73v-3.18h-2.73zm0 3.95h2.73v-3.2h-2.73zm7.89 4.68c-1.84-.92-3.51-1.7-5.02-2.32l.45-.73c1.89.8 3.57 1.55 5.04 2.23zm-1.62-11.81h-2.73v3.18h2.73zm-2.73 7.13h2.73v-3.2h-2.73z" fill="#fbfcfa"/><g fill="#010102"><path d="m224.27 239.99c-15.9 3.46-31.64 6.71-47.29 10.34-9.34 2.17-16.99-.92-24.03-6.55-.91-.73-1.28-2.15-1.9-3.25 1.11-.58 2.17-1.56 3.33-1.68 9.57-1.06 19.21-1.66 28.74-2.99 13.31-1.86 26.57-4.15 39.81-6.52 1.45-.26 3.65-2.15 3.73-3.4 1.54-23.23 2.82-46.47 4.12-69.72.03-.47-.2-.95-.39-1.75-15.79 1.57-31.98 6.74-46.63-3.54-.1-.7-.21-1.4-.31-2.1 3.63-.94 7.26-1.93 10.9-2.82 11.12-2.72 22.26-5.33 33.34-8.19 1.22-.32 3.01-2.01 2.99-3.03-.37-19.75.37-39.64-5.82-58.8-1.07-3.3-2.76-6.4-4.09-9.63-1.76-4.24-.69-6.16 3.57-5.33 10.73 2.09 20.58 6.49 29.28 13.16 1.98 1.52 2.3 3.48 1.31 6.5-2.2 6.72-3.66 13.76-4.58 20.78-1.26 9.68-1.75 19.46-2.61 29.7 10.58-2.65 20.4-5.01 30.17-7.58 8.39-2.21 15.8.15 22.73 4.61 3.69 2.37 3.61 5.68-.75 7.55-7.59 3.26-15.47 5.96-23.41 8.26-9.86 2.85-19.9 5.04-29.83 7.51-.97 24.65-1.94 49.18-2.94 74.41 10.12-1.88 19.99-3.63 29.83-5.58 11.71-2.32 23.32-5.24 35.09-7.15 14.09-2.28 25.11 4.21 34.7 13.79.46.45.73 1.11 1 1.72.26.59.41 1.23.97 2.98-3.39.61-6.49 1.59-9.61 1.65-10.32.19-20.67-.36-30.97.11-19.59.89-39.16 2.28-59.11 3.48.25 1 .23 1.7.56 2.13 16.26 21.17 33.1 41.89 54.75 57.84 17.87 13.17 37.59 23.26 57.99 32.01 4.46 1.91 8.75 4.25 13.12 6.38-.11.62-.22 1.23-.34 1.85-2.09.64-4.17 1.77-6.29 1.84-15.96.53-31.93 1.22-47.89 1.1-10.66-.08-19.89-4.58-26-13.53-15-21.97-29.65-44.2-44.42-66.33-2-2.99-3.89-6.05-6.62-10.3-13.28 48.27-43.14 78.09-90.54 89.48-.47-.53-.94-1.05-1.41-1.58 2.2-1.73 4.35-3.52 6.61-5.17 11.28-8.2 23.41-15.44 33.71-24.73 18.9-17.05 30.72-38.61 35.56-63.79.16-.81.28-1.64.35-2.46.03-.33-.16-.64-.48-1.68z"/><path d="m121.16 199.49c9.71 6.52 5.06 16.01 6.21 24.55 7.67-2.54 15.12-5.24 22.72-7.42 3.93-1.13 8.14-1.79 12.22-1.75 2.43.02 5.14 1.4 7.21 2.89 3.95 2.85 3.98 6.25-.12 8.77-3.78 2.32-7.97 4.14-12.19 5.54-9.45 3.15-19.07 5.82-28.54 8.9-1.37.45-3.29 2-3.39 3.18-1.59 18.37-2.92 36.76-4.39 56.12 17.36-7.54 34.06-14.79 50.75-22.04.37.58.73 1.15 1.1 1.73-2.31 2.2-4.49 4.57-6.96 6.57-14.63 11.82-29.5 23.35-43.92 35.42-5.57 4.66-10.19 10.46-15.23 15.76-.8.84-1.47 1.82-2.28 2.64-5.66 5.74-10.29 4.99-14.05-2.19-3.92-7.47-3.49-14.96 2.27-20.82 8.55-8.71 12.26-19.28 13.74-30.79 1.59-12.34 2.39-24.79 3.49-37.19.08-.95-.21-1.94-.37-3.21-15.04 2.53-29.92 5.77-44.89.95-1.82-.59-3.5-1.58-5.25-2.38-.05-.5-.1-.99-.15-1.49 3.5-1.06 6.97-2.2 10.5-3.16 12.64-3.41 25.32-6.67 37.92-10.25 1.39-.4 3.31-2.5 3.28-3.76-.16-6.63-.83-13.25-1.4-19.86-.25-2.85-1.56-4.06-4.78-4.35-5.25-.46-10.47-1.71-15.6-3.02-2.26-.58-4.28-2.13-7.59-3.85 2.29-1.15 3.3-1.8 4.4-2.19 15.65-5.49 31.3-11 47-16.38 4.05-1.39 8.21-2.61 12.41-3.36 1.99-.35 4.5.08 6.25 1.07 2.33 1.32 5.44 3.32 5.81 5.44.34 1.96-1.98 5.54-4.04 6.55-8.9 4.34-18.13 8.02-27.26 11.89-1.33.56-2.77.85-4.88 1.49z"/><path d="m29.6 226.11c4.75-6.56 9.55-13.09 14.25-19.69 24.88-34.89 44.02-72.73 57.7-113.32 3.2-9.5 3.88-19.15-.1-28.78-1.6-3.88.37-6.56 4.17-5.16 8.63 3.18 17.1 6.96 25.27 11.19 3.75 1.94 3.83 5.45 1.17 9.33-3.46 5.04-6.4 10.48-9.1 15.98-6.35 12.96-12.42 26.06-19.15 40.26 9.83-2.36 18.98-4.32 27.99-6.79 7.02-1.92 13.74-5.24 20.85-6.5 5.32-.94 11.08.14 16.57.9 1.51.21 3.83 2.54 3.8 3.87-.03 1.69-1.7 4.26-3.28 4.87-10.79 4.16-21.56 8.57-32.69 11.6-12.71 3.46-25.85 4.01-39.24 1.49-15.87 32.72-36.03 61.73-66.86 81.85-.45-.36-.9-.73-1.35-1.1z"/><path d="m264.85 206.44c2.34-3.73 4.82-7.38 6.98-11.21 6.15-10.95 13.7-21.5 10.61-35.33-.15-.69 2.41-2.94 3.51-2.81 9.33 1.12 18.06 4.18 25.67 9.79.85.63.99 4.17.21 4.79-14.65 11.73-29.48 23.23-44.29 34.75-.49.38-1.19.51-1.79.76-.3-.24-.6-.49-.9-.74z"/><path d="m206.04 206.23c-1.24 2.58-1.88 6.43-3.88 7.38-1.98.93-6.14-.23-7.97-1.94-6.15-5.76-11.8-12.07-17.36-18.41-1.08-1.23-1.56-3.83-1.01-5.32.34-.91 3.4-1.63 4.84-1.17 6.38 2.05 12.9 4 18.82 7.07 4.32 2.22 5.82 7.03 6.56 12.39z"/></g></svg>