<svg enable-background="new 0 0 400 400" viewBox="0 0 400 400" xmlns="http://www.w3.org/2000/svg"><path d="m5.17 384 .55-.58c.85.61 1.65 1.24 2.4 1.87l-.59.64c-.83-.73-1.62-1.38-2.36-1.93m1.22 9.53-.82-.34c.71-1.76 1.37-3.64 1.98-5.63.24.13.5.25.76.36-.6 1.67-1.24 3.54-1.92 5.61m-.5-13.5.57-.54c.56.44 1.31 1.06 2.26 1.87l-.64.64c-.68-.66-1.41-1.32-2.19-1.97m3.25.46h2.24v-1.36h.77v1.36h4.57v-1.36h.76v1.36h2.28v.69h-2.28v1.84h-2.64v1.26h4.18v2.64h-4.21c0 .45-.02.86-.05 1.21h4.32v.69h-4.38c-.04.34-.1.75-.19 1.22h5.15v.69h-4.82c.87 1.19 2.51 1.92 4.93 2.19-.17.31-.3.57-.37.76-2.77-.49-4.52-1.41-5.26-2.76-.56 1.26-2.3 2.23-5.24 2.9-.12-.24-.26-.48-.43-.72 2.73-.55 4.38-1.34 4.96-2.38h-4.38v-.69h4.65c.1-.38.17-.79.21-1.22h-4.32v-.69h4.4c.03-.34.05-.75.05-1.21h-4.2v-2.64h4.23v-1.26h-2.69v-1.84h-2.24zm1.46 4.46v1.29h3.45c.01-.4.02-.57.01-.53v-.32-.45h-3.46zm1.55-2.59h4.57v-1.19h-4.57zm6.11 2.59h-3.42v.77c-.01.19-.01.37-.02.53h3.44z" fill="#fbfcfa"/><path d="m32.63 379.16h.82v1.98h3.54v7.89h1.46v.78h-14.37v-.78h1.46v-7.89h3.55v-1.98h.82v1.98h2.73v-1.98zm-3.49 11.48.5.73c-1.61.82-3.28 1.63-5 2.41-.13-.27-.28-.55-.44-.82 1.75-.72 3.4-1.49 4.94-2.32m-2.78-5.55h2.73v-3.18h-2.73zm0 3.95h2.73v-3.2h-2.73zm3.54-3.95h2.73v-3.18h-2.73zm0 3.95h2.73v-3.2h-2.73zm7.89 4.68c-1.84-.92-3.51-1.7-5.02-2.32l.45-.73c1.89.8 3.57 1.55 5.04 2.23zm-1.62-11.81h-2.73v3.18h2.73zm-2.73 7.13h2.73v-3.2h-2.73z" fill="#fbfcfa"/><g fill="#010102"><path d="m261.18 252.06c1.49 3.06 2.58 5.66 3.97 8.09 3.91 6.85.87 13.56-.18 20.34-.76 4.92-1.54 9.87-1.71 14.83-.52 14.64-.49 29.29-1.18 43.92-.36 7.6-1.63 15.17-2.87 22.69-.3 1.84-2.11 3.42-3.22 5.12-1.68-1.21-3.82-2.09-4.95-3.68-8.15-11.45-10.53-23.42-8.15-37.95 3.61-22.1 4.08-44.7-.59-67.02-.9-4.28-2.33-5.31-6.98-4.68-16.3 2.2-32.71 3.57-49.06 5.39-6.57.73-13.1 1.81-20.32 2.82 3.51 5.83 3.08 10.55-.6 15.63-2.77 3.82-4.33 8.59-6.06 13.08-13.6 35.22-39.52 57.22-74.58 69.16-8.12 2.77-16.71 4.19-25.12 6.08-1.97.44-4.08.29-6.13.42-.13-.48-.25-.95-.38-1.43 6.13-2.7 12.29-5.32 18.38-8.1 27.31-12.46 50.34-29.88 64.8-56.92 5.69-10.65 8.84-22.12 9.85-34.9-8.44.51-16.52.93-24.59 1.5-11.44.81-22.87 1.72-34.3 2.59-3.64.28-7.28.62-10.93.88-13.51.98-23.78-5.31-33.03-13.87.02-.57.05-1.15.07-1.72 1.9-.47 3.79-1.3 5.71-1.36 14.47-.43 28.97-.29 43.42-1.13 21.57-1.24 43.12-3.08 64.66-4.76 16.9-1.32 33.8-2.67 50.69-4.23 18.87-1.74 37.71-3.7 56.56-5.6 14.05-1.42 28.09-3 42.15-4.31 9.42-.88 18.86-1.84 28.31-2 8.23-.14 15.64 2.93 21.71 8.65 1.22 1.15 1.8 2.97 2.68 4.48-1.52.76-3 2.1-4.56 2.19-13.61.76-27.24 1.17-40.86 1.94-16.43.92-32.86 2.08-49.28 3.17-.98.07-1.92.39-3.33.69z"/><path d="m287.3 170.85c-21.4 2.06-42.51 4.1-64.09 6.18-.82 2.54-1.66 5.91-2.99 9.07-1.32 3.13-3.48 3.88-6.08 1.05-4.48-4.88-7.38-10.02-7.44-17.23-.17-21.06-.88-42.14-2.05-63.17-.3-5.44-3.11-10.73-4.68-16.12-.43-1.47-.5-3.05-.74-4.58 1.4-.19 2.85-.71 4.2-.52 5.58.79 11.12 1.88 16.71 2.68 1.27.18 3.13.13 3.88-.63 3.98-4.05 8.2-18.45 7.51-25.08-15.19 2.44-31.06 8.58-44.34-7.13 1.93-.58 3.33-1.34 4.73-1.37 25.03-.45 49.44-5.52 73.99-9.67 11.92-2.01 23.86-4.07 35.88-5.21 7.78-.74 14.8 3.61 18.79 10.55-3.89 1.2-7.43 2.83-11.13 3.33-19.08 2.57-38.2 4.83-57.3 7.23-1.12.14-2.22.53-4.9 1.19 1.87 1.17 2.94 1.64 3.76 2.39 2.7 2.49 2.29 4.47-.58 6.87-4.85 4.03-9.32 8.52-13.9 12.87-.91.87-1.57 1.99-3.01 3.85 14.28-2.02 27.71-3.12 40.07-8.72 13.38-6.06 25.33-2.2 36.94 4.46 3.14 1.8 3.53 4.94 2.48 8.72-1.74 6.32-3.55 12.84-3.74 19.32-.36 11.95.62 23.94.68 35.91.05 11.32-.64 22.64-5.25 33.19-1.25 2.86-3.89 5.11-5.89 7.64-2.36-2.36-5.18-4.43-6.97-7.17-2.06-3.13-3.19-6.85-4.54-9.9zm-63.91-3.03c10.7-1.53 21.01-2.96 31.31-4.48 9.44-1.4 18.64-4.64 28.5-2.48 5.48 1.2 6.47-3.68 6.54-7.3.22-11.77.07-23.55-.44-35.31-.25-5.93-1.29-11.88-2.47-17.71-1.54-7.56-5.63-10.8-13.06-9.94-16.77 1.93-33.5 4.26-50.44 6.45v16.61c4.53-.8 8.74-1.67 12.99-2.28 10.81-1.56 21.62-3.18 32.47-4.4 3.59-.4 7.15.66 9.85 5.01-18.1 6.94-36.54 7.51-55.31 7.42v20.63c10.35-1.9 20.38-3.98 30.49-5.5 6.02-.9 12.19-1.31 18.27-1.11 2.38.08 4.69 2.41 7.04 3.72-2.11 1.6-4.02 4.12-6.37 4.63-9.69 2.1-19.48 3.84-29.3 5.22-6.67.94-13.45 1.05-20.08 1.52.01 6.58.01 12.68.01 19.3z"/><path d="m183.94 59.16c-18.29 7.99-38.57 6.16-57.58 10.65 1.18 8.38 1.14 8.34-5.26 14.94-2.85 2.94-5.49 6.07-8.22 9.11.28.61.55 1.22.83 1.83 11.9-3.19 23.95-5.91 35.64-9.74 8.59-2.82 25.61.26 31.46 7.28.99 1.19 1.01 3.61.75 5.36-.87 5.8-2.96 11.55-2.96 17.32 0 14.12 1.21 28.24 1.35 42.36.09 8.68-1.57 17.21-6.12 24.88-3.04 5.11-4.7 5.13-8.09.19-.09-.14-.2-.27-.26-.43-3.35-8.66-9.36-10.36-18.29-8.9-13.58 2.22-27.41 2.95-41.13 4.28-3.43.33-6.42.96-7.55 5-.46 1.66-1.81 3.19-3.06 4.49-2.33 2.4-4.85 2.37-6.58-.62-3.95-6.85-6.24-13.93-5.34-22.23 1.91-17.74 1.66-35.54-1.71-53.13-.77-4.01-2.71-7.8-4.26-11.64-1.94-4.8-.78-6.58 4.42-6.1 5.12.47 10.23 1.15 15.32 1.89 2.71.39 4.44-.36 5.3-3.11 1.99-6.39 4.09-12.75 6.53-20.31-18.41 2.51-35.87 8.48-50.82-7.07 1.82-.55 3.26-1.34 4.7-1.37 32.47-.49 63.71-8.75 95.28-14.95 6.71-1.32 13.26-1.26 19.26 2.4 2.46 1.5 4.55 3.63 6.81 5.47-.12.7-.27 1.42-.42 2.15zm-83.25 92.41v17.54c9.35-1.28 18.33-2.68 27.36-3.7 8.55-.97 17.16-2.16 25.73-2.08 6.24.06 7.92.26 7.86-5.85-.15-16.93-.6-33.88-1.79-50.76-.53-7.53-5.02-10.45-12.5-9.42-14.77 2.03-29.48 4.49-44.19 6.91-.99.16-2.52 1.43-2.57 2.25-.25 4.71-.12 9.44-.12 14.57 3.29-.67 5.68-1.28 8.11-1.64 10.31-1.54 20.59-3.33 30.96-4.33 3.13-.3 6.47 1.68 9.71 2.62-.1.71-.19 1.43-.29 2.14-15.27 6.79-31.9 6.86-48.29 8.59v15.79c4.38-.63 8.43-1.22 12.48-1.79 9.19-1.28 18.35-2.97 27.59-3.6 3.9-.27 7.96 1.69 11.95 2.64-.06.86-.12 1.72-.18 2.57-16.39 6.69-34.12 5.3-51.82 7.55z"/><path d="m190.78 236.18c2.61-2.69 5.33-5.29 7.82-8.09 6.41-7.19 13.28-14.08 18.88-21.87 3.25-4.52 4.77-10.44 6.39-15.93 1.3-4.44 3.18-6.25 7.44-4.2 5.21 2.51 10.17 5.63 14.99 8.85 2.29 1.53 3.69 3.85.87 6.55-14.71 14.12-29.93 27.48-49.7 34.23-1.95.67-4.01 1.01-6.01 1.51-.23-.34-.46-.69-.68-1.05z"/><path d="m267.42 185.01c2.85 0 5.95-.73 8.5.13 8.42 2.87 17.04 5.57 24.84 9.73 9.12 4.86 13.89 13.26 13.18 23.9-.18 2.71-1.3 6.39-3.26 7.63-1.55.99-5.76-.24-7.55-1.86-10.07-9.14-19.86-18.59-29.51-28.18-2.75-2.73-4.71-6.26-7.04-9.42.28-.64.56-1.29.84-1.93z"/><path d="m58.06 238.02c2.17-1.39 4.27-2.87 6.51-4.14 12.41-7.04 23.65-15.59 32.54-26.79 2.98-3.75 4.49-8.64 6.95-12.85.68-1.16 2.46-2.6 3.53-2.45 7.21 1.01 13.82 3.58 18.99 8.98 1.82 1.9 1.98 4.08-.42 5.46-19.51 11.24-37.12 26.09-59.7 31.49-2.61.63-5.3.97-7.95 1.44-.15-.36-.3-.75-.45-1.14z"/><path d="m143.86 192.55c3.57.55 5.95.5 8.01 1.29 8.6 3.33 17.43 6.27 25.53 10.57 8.11 4.3 10.16 12.22 8.65 21.02-.82 4.79-3.67 6.3-7.77 3.66-4.16-2.68-8.37-5.55-11.75-9.1-7.08-7.44-13.65-15.37-20.38-23.14-.69-.79-1.03-1.9-2.29-4.3z"/></g></svg>