<svg enable-background="new 0 0 400 400" viewBox="0 0 400 400" xmlns="http://www.w3.org/2000/svg"><path d="m5.17 384 .55-.58c.85.61 1.65 1.24 2.4 1.87l-.59.64c-.83-.73-1.62-1.38-2.36-1.93m1.22 9.53-.82-.34c.71-1.76 1.37-3.64 1.98-5.63.24.13.5.25.76.36-.6 1.67-1.24 3.54-1.92 5.61m-.5-13.5.57-.54c.56.44 1.31 1.06 2.26 1.87l-.64.64c-.68-.66-1.41-1.32-2.19-1.97m3.25.46h2.24v-1.36h.77v1.36h4.57v-1.36h.76v1.36h2.28v.69h-2.28v1.84h-2.64v1.26h4.18v2.64h-4.21c0 .45-.02.86-.05 1.21h4.32v.69h-4.38c-.04.34-.1.75-.19 1.22h5.15v.69h-4.82c.87 1.19 2.51 1.92 4.93 2.19-.17.31-.3.57-.37.76-2.77-.49-4.52-1.41-5.26-2.76-.56 1.26-2.3 2.23-5.24 2.9-.12-.24-.26-.48-.43-.72 2.73-.55 4.38-1.34 4.96-2.38h-4.38v-.69h4.65c.1-.38.17-.79.21-1.22h-4.32v-.69h4.4c.03-.34.05-.75.05-1.21h-4.2v-2.64h4.23v-1.26h-2.69v-1.84h-2.24zm1.46 4.46v1.29h3.45c.01-.4.02-.57.01-.53v-.32-.45h-3.46zm1.55-2.59h4.57v-1.19h-4.57zm6.11 2.59h-3.42v.77c-.01.19-.01.37-.02.53h3.44z" fill="#fbfcfa"/><path d="m32.63 379.16h.82v1.98h3.54v7.89h1.46v.78h-14.37v-.78h1.46v-7.89h3.55v-1.98h.82v1.98h2.73v-1.98zm-3.49 11.48.5.73c-1.61.82-3.28 1.63-5 2.41-.13-.27-.28-.55-.44-.82 1.75-.72 3.4-1.49 4.94-2.32m-2.78-5.55h2.73v-3.18h-2.73zm0 3.95h2.73v-3.2h-2.73zm3.54-3.95h2.73v-3.18h-2.73zm0 3.95h2.73v-3.2h-2.73zm7.89 4.68c-1.84-.92-3.51-1.7-5.02-2.32l.45-.73c1.89.8 3.57 1.55 5.04 2.23zm-1.62-11.81h-2.73v3.18h2.73zm-2.73 7.13h2.73v-3.2h-2.73z" fill="#fbfcfa"/><g fill="#010102"><path d="m140.62 159.94c-9.11 3.31-17.54 6.29-25.88 9.53-1.04.4-2.19 2.13-2.22 3.27-.19 8.13-.1 16.27-.1 25.22 5.83-3.54 11.05-6.72 16.28-9.9.44.48.88.96 1.32 1.44-3.61 4.11-6.79 8.74-10.94 12.2-5.54 4.63-6.62 9.61-6.42 16.83.59 21.62.16 43.29-.78 64.9-.42 9.73-6 17.87-12.67 24.85-3.17 3.31-6.76 2.79-8.37-1.43-4.33-11.3-11.96-19.83-21.18-27.25-1.21-.97-2.04-2.4-2.46-4.58 6.01 1.44 12.01 2.93 18.04 4.29 5.81 1.31 8.24.26 9.51-5.62 1.5-6.94 2.48-14.07 2.78-21.16.45-10.59.12-21.21.12-32.41-3.95 3.56-8.01 7.05-11.87 10.75-7.22 6.91-14.45 13.81-21.43 20.95-5.34 5.46-8.7 6.85-15.44 3.44-4.79-2.43-9.05-6.06-13.17-9.59-2.63-2.25-1.53-5.1 1.59-5.41 19.96-1.95 33.56-15.77 49.39-25.6 9.61-5.97 13.67-13.37 11.97-24.52-.73-4.84-.12-9.88-.12-15.24-6.96 1.82-13.23 3.82-19.66 5.05-6.5 1.24-13.14 1.68-19.61-3.61 2.39-1.04 4.05-1.92 5.81-2.5 9.44-3.15 18.9-6.25 28.37-9.3 2.56-.82 3.93-2.1 3.38-5.04-1.21-6.46-2.27-12.94-3.34-19.19-9.06 2.1-17.09 3.96-25.13 5.82-.26-.71-.51-1.41-.77-2.12 2.75-1.65 5.49-3.29 8.24-4.94 7.54-4.55 15.29-8.8 22.55-13.75 5.79-3.95 11.18-8.53 10.68-16.84-.18-2.9 1.79-4.52 4.62-2.81 5.65 3.41 11.44 6.72 16.55 10.84 3.75 3.02 2.76 5.79-1.77 7.75-8.97 3.89-17.93 7.81-27.39 12.44 12.56 2.01 11.23 11.35 11.31 20.78 5.61-2.06 10.7-3.79 15.68-5.79 10.94-4.39 11.49-4.49 10.6-16.44-1.9-25.49-4.28-50.95-6.93-76.38-.44-4.25-3.31-8.21-4.82-12.39-.51-1.4-.3-3.05-.43-4.59 1.41-.07 2.95-.55 4.2-.14 6.29 2.07 12.67 4 18.69 6.72 5.68 2.56 6.26 5.75 5.45 11.85-1.07 8.05-1.63 16.2-1.74 24.32-.24 18.64-.08 37.28-.08 56.41 5.87-1.86 11.2-3.5 16.5-5.23 4.8-1.57 8.8.03 12.43 3.04 4.05 3.36 3.83 5.48-1.06 7.38-6.5 2.52-13.04 5.02-19.73 6.91-5.01 1.41-6.8 3.86-6.2 9.11 1.91 16.99 3.44 34.02 5.14 51.03.04.42.32.82.91 2.25 7.02-14.55 14.69-27.88 14.7-43.93 0-2 .86-4 1.32-6 1.97.64 4.38.78 5.83 2.03 4.4 3.77 8.63 7.78 12.52 12.07 2.79 3.08 2.21 5.91-.58 9.6-8.6 11.38-16.12 23.58-24.72 34.96-4.84 6.41-5.2 12.3-1.76 19.16 3.26 6.52 5.75 13.46 9.29 19.81 4.02 7.2 8.72 7.05 13.01-.01 3.67-6.03 7.09-12.22 11.26-18.1-2.4 21.89-4.8 43.77-7.35 67.02-3.16-2.63-6.03-4.5-8.24-6.96-13.9-15.48-23.04-33.63-29.39-53.29-.55-1.71-1.1-3.41-1.82-5.64-11.83 8.94-21.5 20.62-37.11 23.28 1.13-1.31 2.24-2.62 3.38-3.92 8.96-10.29 18-20.52 26.82-30.93 1.2-1.41 2.19-3.93 1.81-5.6-5.05-22.56-8.55-45.33-9.37-69.15z"/><path d="m265.47 181.85c5.76 1.1 11.5 2.35 17.29 3.26 9.36 1.48 12.95-.08 15.02-9.32 3.08-13.72 5.09-27.71 7-41.65.99-7.22 1.11-14.6 1.07-21.91-.06-12.07-5.13-16.33-16.98-14.32-16.83 2.85-33.62 5.99-50.88 9.08v5.92 78.48c0 10.96.02 21.92.06 32.88.02 4.29 1.83 6.37 6.48 5.77 14.82-1.92 29.7-3.36 44.48-5.55 11.95-1.77 23.81-4.19 35.64-6.67 4.52-.95 8.78-3.05 13.25-4.3 10.24-2.85 26.71 3.63 31.94 12.8.92 1.61.96 5.07-.13 6.26-7.31 7.96-7.95 18.07-9.56 27.83-3.48 21.11-6.19 42.37-10.26 63.37-2.61 13.48-9.94 24.96-19.94 34.5-2.02 1.93-4.35 3.67-6.82 4.94-4.78 2.46-9.33 1.47-11.45-3.34-5.79-13.1-15.03-23.45-24.89-33.44-1.32-1.34-2.18-3.13-3.25-4.71.22-.39.45-.79.67-1.18 2.12.46 4.31.72 6.35 1.42 7.52 2.6 14.89 5.7 22.51 7.95 8.58 2.54 11.98 1.13 15.03-7.49 3.86-10.91 7.33-22.08 9.54-33.41 2.47-12.67 3.54-25.63 4.81-38.51.38-3.89-.21-8-1.03-11.86-1.41-6.69-3.98-9.01-10.77-8.45-18.37 1.51-36.71 3.33-55.02 5.47-8.21.96-16.45 2.43-24.39 4.68-5.93 1.68-11.61 4.6-17.03 7.64-4.84 2.71-10.29 2.08-12.94-3.47-1.69-3.53-2.36-8.01-2.03-11.94.64-7.72 2.8-15.32 3.4-23.04.88-11.27 1.28-22.6 1.26-33.9-.03-16.77.01-33.58-1.22-50.28-.6-8.08-4.02-15.95-6.21-23.9-.64-2.31-1.44-4.58-2.66-8.39 5.47.94 9.6 1.81 13.77 2.27 1.54.17 3.97-.08 4.67-1.08 7.76-10.99 15.69-21.91 22.6-33.43 2.56-4.27 3.05-10.02 3.62-15.18.61-5.58 2.53-8.26 7.33-6.34 7.94 3.18 15.54 7.28 23.02 11.48 2.68 1.5 4.08 4.55-.17 6.38-13.45 5.8-23.42 16.26-34.33 25.44-5.82 4.9-11.3 10.2-16.5 16.38 7.81-1.51 15.72-2.61 23.4-4.63 12.31-3.24 24.52-6.91 36.65-10.75 5.33-1.69 10.42-2.23 15.46.32 5.45 2.77 10.89 5.61 16.11 8.79 2.84 1.73 4.02 4.79 1.79 7.72-6.06 7.97-6.9 17.41-8.19 26.79-2.58 18.73-4.89 37.52-8.05 56.16-1.72 10.15-6.22 19.27-15.06 25.57-6.15 4.38-9.68 3.16-13.88-2.93-4.37-6.33-9.89-11.88-15.06-17.64-1.81-2.02-4.07-3.63-6.13-5.43.2-.4.41-.75.61-1.11z"/><path d="m308.77 266.23c5.32 1.95 10.77 3.62 15.89 6 1.56.72 2.22 3.38 3.29 5.15-1.69.9-3.31 2.4-5.08 2.6-5.44.62-10.93.94-16.4 1.05-26.83.54-53.3 3.49-79.28 10.53-8.66 2.35-16.95 1.21-23.13-6.31-.85-1.03-1.55-2.59-1.44-3.82.06-.6 2.13-1.32 3.35-1.44 20.16-2.08 40.35-3.84 60.47-6.18 10.87-1.26 21.62-3.49 32.43-5.23 3.11-.5 6.25-.82 9.37-1.23.17-.37.35-.74.53-1.12z"/><path d="m166.29 89.99c6.25 2.31 13.28 4.31 19.74 7.48 5.68 2.79 7.89 9.37 6.55 15.41-1.19 5.34-4.13 7.18-9.01 4.63-4.22-2.2-8.1-5.21-11.73-8.34-3.77-3.24-7.24-6.88-10.46-10.67-1.23-1.45-2.44-4.33-1.78-5.6.72-1.39 3.59-1.68 6.69-2.91z"/><path d="m244.97 138.1c11.16-.96 22.12-1.37 32.21 4.73 4.28 2.59 6.54 6.46 6.97 11.42.46 5.35-.56 6.84-5.65 5.73-12.49-2.72-24.03-7.52-32.45-17.79-.51-.62-.88-1.4-1.16-2.17-.15-.42.02-.95.08-1.92z"/></g></svg>