<svg enable-background="new 0 0 400 400" viewBox="0 0 400 400" xmlns="http://www.w3.org/2000/svg"><path d="m5.17 384 .55-.58c.85.61 1.65 1.24 2.4 1.87l-.59.64c-.83-.73-1.62-1.38-2.36-1.93m1.22 9.53-.82-.34c.71-1.76 1.37-3.64 1.98-5.63.24.13.5.25.76.36-.6 1.67-1.24 3.54-1.92 5.61m-.5-13.5.57-.54c.56.44 1.31 1.06 2.26 1.87l-.64.64c-.68-.66-1.41-1.32-2.19-1.97m3.25.46h2.24v-1.36h.77v1.36h4.57v-1.36h.76v1.36h2.28v.69h-2.28v1.84h-2.64v1.26h4.18v2.64h-4.21c0 .45-.02.86-.05 1.21h4.32v.69h-4.38c-.04.34-.1.75-.19 1.22h5.15v.69h-4.82c.87 1.19 2.51 1.92 4.93 2.19-.17.31-.3.57-.37.76-2.77-.49-4.52-1.41-5.26-2.76-.56 1.26-2.3 2.23-5.24 2.9-.12-.24-.26-.48-.43-.72 2.73-.55 4.38-1.34 4.96-2.38h-4.38v-.69h4.65c.1-.38.17-.79.21-1.22h-4.32v-.69h4.4c.03-.34.05-.75.05-1.21h-4.2v-2.64h4.23v-1.26h-2.69v-1.84h-2.24zm1.46 4.46v1.29h3.45c.01-.4.02-.57.01-.53v-.32-.45h-3.46zm1.55-2.59h4.57v-1.19h-4.57zm6.11 2.59h-3.42v.77c-.01.19-.01.37-.02.53h3.44z" fill="#fbfcfa"/><path d="m32.63 379.16h.82v1.98h3.54v7.89h1.46v.78h-14.37v-.78h1.46v-7.89h3.55v-1.98h.82v1.98h2.73v-1.98zm-3.49 11.48.5.73c-1.61.82-3.28 1.63-5 2.41-.13-.27-.28-.55-.44-.82 1.75-.72 3.4-1.49 4.94-2.32m-2.78-5.55h2.73v-3.18h-2.73zm0 3.95h2.73v-3.2h-2.73zm3.54-3.95h2.73v-3.18h-2.73zm0 3.95h2.73v-3.2h-2.73zm7.89 4.68c-1.84-.92-3.51-1.7-5.02-2.32l.45-.73c1.89.8 3.57 1.55 5.04 2.23zm-1.62-11.81h-2.73v3.18h2.73zm-2.73 7.13h2.73v-3.2h-2.73z" fill="#fbfcfa"/><g fill="#010102"><path d="m143.51 202.01c-9.93 3.2-19.61 6.13-29.16 9.44-9.51 3.3-18.65 2-27.75-1.39-.6-.23-1.15-.64-1.66-1.04-.21-.17-.25-.55-.65-1.55 5.78-1.48 11.47-2.91 17.15-4.39 4.17-1.09 9.84-1.02 12.05-3.73 2.06-2.53.52-8.07.4-12.28-.11-3.95-.42-7.89-.69-12.49-8.73 2.88-16.84 4.63-24.71-1.81-1.9 10.92-3.49 20.99-5.42 31.01-6.65 34.59-17.79 67.69-34.16 98.89-3.58 6.83-8.85 12.8-13.65 18.94-1.55 1.99-4.05 3.23-7.15 4.13.62-1.71 1.02-3.54 1.9-5.11 14.58-26.26 23.8-54.5 29.73-83.75 4.97-24.53 9.04-49.27 12.61-74.05 1.43-9.94 1.1-20.26.37-30.32-.38-5.2-3.39-10.22-5.64-16.51 2.97 0 5.95-.58 8.61.1 15.31 3.89 29.96 1.01 44.6-3.54 15.67-4.87 31.44-9.46 47.23-13.92 2.96-.84 6.35-1.05 9.36-.51 2.14.38 3.97 2.49 5.94 3.83-1.3 1.76-2.22 4.32-3.97 5.15-6.27 2.98-12.75 5.6-19.29 7.95-5.78 2.07-11.74 3.6-18.44 5.61 5.49 1.79 10.36 3.18 15.08 4.95 7.51 2.82 7.77 3.93 5.23 11.25-1.55 4.48-2.46 9.18-3.66 13.79.38.49.76.98 1.15 1.47 5.82-2.45 12.02-4.29 17.36-7.53 4.96-3.01 9.65-3.75 14.58-1.45 4.78 2.23 9.4 4.95 13.7 7.99 2.57 1.82 4.08 4.86.7 7.52-8.54 6.7-13.18 16.14-18.34 25.27-2.28 4.04-4.97 7.87-7.74 11.59-2.14 2.89-4.61 3.42-7.46.42-1.03-1.08-3.21-2.04-4.54-1.7-7.02 1.76-13.93 3.95-22 6.33 5.85 2.39 10.55 4.24 15.18 6.23 3.74 1.61 4.86 4.04 3.64 8.35-1.66 5.86-2.26 12.03-2.65 18.4 6.78-5.38 13.05-11.04 14.49-20.12.78-4.92 2.52-6.14 6.77-3.5 3.5 2.18 6.82 4.79 9.78 7.66 3.21 3.12 2.59 5.04-1.43 7.2-8.92 4.8-17.9 9.51-26.61 14.66-1.68.99-2.98 3.8-3.18 5.88-.62 6.61-.75 13.28-.81 19.93-.02 2.36.7 4.72 1.08 7.08 2.42-.74 5.03-1.12 7.23-2.27 6.27-3.27 12.38-6.86 18.56-10.32.34.35.68.71 1.01 1.06-1.58 2.14-3.14 4.3-4.75 6.42-10.05 13.24-20.17 26.42-30.12 39.73-2.98 3.98-4.86 4.28-8.21.51-5.2-5.85-6.1-11.71-2.45-18.6 4.59-8.68 5.21-18.15 5.74-27.6 1.04-18.31.99-36.58-3.57-54.54-.32-1.45-.8-2.84-1.37-4.72zm-52.41-73.92c-.99 13.81-1.94 27.14-2.95 41.25 8.35-1.64 16-3.14 23.53-4.62-.29-10.47-3.82-19.02-10.04-27.55 8.8-.54 15.89.69 22.32 4.27 1.27.71 1.65 3.92 1.59 5.96-.15 4.65-.82 9.28-1.35 14.57 5.14-1.59 9-3.23 13.02-3.91 5.45-.92 7.49-3.53 6.79-9.03-.48-3.77.21-7.67-.17-11.46-.42-4.25-1.29-8.48-2.28-12.65-.75-3.16-2.47-4.37-6.2-3.47-6.9 1.67-13.97 2.67-21 3.7-7.65 1.11-15.36 1.95-23.26 2.94zm62.67 61.32c6.33-1.41 11.94-2.59 17.5-3.95.81-.2 1.86-1.15 2.03-1.92 1.66-7.4 3.28-14.81 4.64-22.27.58-3.19-1.32-4.86-4.42-4.18-5.16 1.13-10.25 2.58-15.32 4.05-.75.22-1.71 1.24-1.8 1.97-.94 8.52-1.73 17.06-2.63 26.3zm-29.16 7.37c6.18-1.86 11.72-3.43 17.17-5.28.92-.31 2.03-1.82 2.05-2.79.17-7.45.09-14.92.09-22.97-6.77 1.57-13 3.02-19.31 4.48z"/><path d="m265.07 125.37c8.59-2.73 16.87-5.58 25.29-7.98 5.56-1.58 11.26-2.71 16.97-3.65 2.02-.33 4.47.03 6.29.94 1.92.97 4.38 2.85 4.62 4.59.19 1.44-2.2 4.12-3.99 4.79-10.57 3.93-21.28 7.48-31.98 11.07-4.63 1.55-9.34 2.88-14.76 4.53 31.49 21.66 66.22 31.1 104.38 33.89-1.74 1.84-2.08 2.46-2.59 2.69-13.04 5.94-26.41 10.75-40.84 11.98-5.9.5-11.09-1.22-15.87-4.62-14.38-10.22-28.79-20.37-43.2-30.54-1.43-1.01-2.94-1.9-5.2-3.34 0 2.82.07 4.76-.01 6.69-.65 15.78-1.32 31.55-2.03 47.32-.05 1.15-.2 2.38-.67 3.4-.67 1.43-1.64 3.75-2.55 3.78-1.48.05-3.51-1.07-4.45-2.34-5.75-7.78-9.75-15.95-7.72-26.29 1.8-9.19 2.52-18.58 3.79-28.51-8.48 10.13-15.85 19.93-24.28 28.73-8.32 8.7-18.24 15.47-30.33 18.2 7.43-8 15.38-15.59 22.13-24.12 6.65-8.4 12.08-17.76 18.77-27.78-9.73-1.05-18.76 1.41-25.76-6.81 13.39-4.08 26.08-7.95 39.02-11.88-.69-22.59 1.59-44.79-3.25-66.64-.92-4.17-2.97-8.07-4.24-12.18-.5-1.63-1-3.96-.21-5.07.66-.93 3.34-1.11 4.84-.66 5.37 1.64 10.77 3.35 15.87 5.68 5.55 2.53 6.69 6.19 6.04 12.29-1.54 14.51-2.88 29.04-4 43.58-.45 5.77-.08 11.59-.08 18.26z"/><path d="m264.84 263.84c9.58-2.48 19.15-4.96 28.86-7.47 0-8.28 0-16.38 0-24.65-12.75 1.03-25.7 4.72-36.72-4.31-.01-.59-.01-1.17-.02-1.76 5.91-1.25 11.85-2.42 17.74-3.76 5.34-1.21 10.7-2.41 15.91-4.05 1.36-.43 3.16-2.46 3.17-3.76.01-9.74-1.24-19.24-7.11-27.53-.96-1.36-1.29-3.15-2.26-5.61 10.42-.2 19.45 1.26 26.9 7.44 1.62 1.35 2 5.06 1.79 7.59-.53 6.38-1.71 12.71-2.74 19.8 7.6-1.95 14.04-3.5 20.42-5.27 4.81-1.33 8.87 0 12.45 3.11 4.5 3.91 4.12 7.94-1.52 9.7-7.88 2.46-16.06 3.92-24.13 5.76-2.06.47-4.17.72-6.34 1.08v23.39c10.8-2.04 21.34-3.9 31.82-6.04 8.71-1.77 15.21 2.12 20.81 7.95 2.78 2.9 1.22 5.5-2.29 6.14-6.03 1.1-12.14 1.74-18.24 2.44-10.07 1.16-20.14 2.21-30.21 3.35-.62.07-1.21.49-2.08.87 0 2.8.07 5.62-.01 8.44-.64 23.11-1.08 46.23-2.08 69.32-.31 7.21-1.7 14.49-7.14 21.75-1.25-2.79-2.67-4.66-2.89-6.66-1.59-15-3.5-30-4.2-45.06-.71-15.42-.16-30.89-.16-47.1-15 3.58-29.27 5.18-41.45 13.52-5.21 3.56-8.46 2.22-10.43-3.96-1.33-4.16-1.52-8.14 1.55-11.74 6.6-7.72 7.74-16.64 5.58-26.22-.99-4.39-.28-5.4 3.89-4.02 4.37 1.44 8.61 3.4 12.72 5.5 2.76 1.41 3.1 3.63 1.71 6.72-2.05 4.55-3.34 9.45-4.95 14.2.57.31 1.11.6 1.65.9z"/><path d="m193 252.19c6.34 4.57 12.68 9.15 19.45 14.03 5.53-10.43 11.43-20.74 14.12-32.49.71-3.13-.3-5.1-3.95-5.35-6.33-.43-11.59.39-16.35 5.79-4.83 5.48-11.31 9.51-17.07 14.17-.47-.42-.95-.85-1.42-1.27.86-1.42 1.62-2.91 2.6-4.24 8.17-11.09 13.35-23.34 14.04-37.21.21-4.24 3.66-4.76 5.9-4.39 6.21 1.03 11.87 3.66 15.78 8.82-3.37 4.18-6.45 8-9.52 11.82.3.49.61.98.91 1.47 4.45-1.4 9.36-2.04 13.24-4.39 4.62-2.8 8.38-2.32 12.5.17 1.28.77 2.54 1.59 3.76 2.46 7.56 5.37 7.27 6.33.93 12.64-3.65 3.63-6.6 8.37-8.64 13.14-11.63 27.22-28.74 50.52-49.98 70.9-8.91 8.54-18.56 16.2-30.12 21.02-.7.29-1.46.46-2.9-.2 2.63-2.84 5.05-5.93 7.94-8.48 15.55-13.74 27.47-30.3 37.66-48.19.83-1.45.73-4.07 0-5.67-2.77-6.04-6.06-11.83-8.95-17.82-.8-1.66-.89-3.67-1.31-5.51.46-.41.92-.82 1.38-1.22z"/><path d="m88.94 219.73c5.82-1.38 19.53 2.99 21.34 7.13 1.06 2.42.19 5.68.19 9.53 4.25-.96 8.33-2.27 12.5-2.74 5.5-.61 11.07-.75 16.61-.67 1.21.02 2.4 1.82 3.6 2.81-.99 1.03-1.81 2.41-3.01 3.03-7.86 4.06-16.38 5.24-25.11 5.35-6.81.09-6.59.13-7.04 6.89-.57 8.44-1.61 16.85-2.31 25.29-.13 1.51.06 4.18.72 4.39 1.51.49 3.55.14 5.1-.51 7.66-3.19 15.21-6.65 22.86-9.88 1.91-.81 4.04-1.12 6.68-.59-4.42 3.67-8.93 7.24-13.24 11.02-13.14 11.52-26.24 23.08-39.28 34.72-4.36 3.89-6.61 3.53-8.57-1.98-1.93-5.43-1.89-10.35 1.9-15.45 7.49-10.06 9.63-22.15 10.88-34.28.85-8.22 1.33-16.54 1.07-24.78-.15-4.83-2.06-9.6-3.25-14.38-.4-1.55-1.02-3.05-1.64-4.9z"/><path d="m126.11 55.29c8.71 2.45 17.7 4.19 26.03 7.57 8.1 3.28 10.72 14.59 6.27 22.22-2.47 4.23-6.37 5.72-11.03 2.79-7.56-4.75-14.71-10.19-21.83-15.61-3.28-2.5-6.39-5.36-9.03-8.52-3.41-4.09-2.13-6.6 3.24-7.05 1.98-.16 3.99-.03 5.98-.03.13-.45.25-.91.37-1.37z"/><path d="m274.36 102.82c2.2-2.81 4.46-5.59 6.58-8.45 2.87-3.86 6.18-7.52 8.26-11.78 1.49-3.04 1.86-6.95 1.66-10.42-.29-5.02.32-6.49 5.45-6.46 2.52.02 5.38.55 7.49 1.83 4.96 3 9.81 6.29 14.23 10.01 3.78 3.19 2.96 4.97-1.39 6.95-10.85 4.94-21.56 10.22-32.32 15.37-2.93 1.4-5.85 2.83-8.77 4.25-.39-.43-.79-.86-1.19-1.3z"/><path d="m212.75 91.68c6.77 2.88 13.8 5.31 20.2 8.87 2.49 1.38 4.33 5.1 5.12 8.11 1.39 5.33-2.54 9.08-7.98 8.4-8.03-1-19.95-11.43-22.01-19.25-.89-3.39.32-4.81 4.14-4.85.17-.44.35-.86.53-1.28z"/></g></svg>