<svg enable-background="new 0 0 400 400" viewBox="0 0 400 400" xmlns="http://www.w3.org/2000/svg"><path d="m5.17 384 .55-.58c.85.61 1.65 1.24 2.4 1.87l-.59.64c-.83-.73-1.62-1.38-2.36-1.93m1.22 9.53-.82-.34c.71-1.76 1.37-3.64 1.98-5.63.24.13.5.25.76.36-.6 1.67-1.24 3.54-1.92 5.61m-.5-13.5.57-.54c.56.44 1.31 1.06 2.26 1.87l-.64.64c-.68-.66-1.41-1.32-2.19-1.97m3.25.46h2.24v-1.36h.77v1.36h4.57v-1.36h.76v1.36h2.28v.69h-2.28v1.84h-2.64v1.26h4.18v2.64h-4.21c0 .45-.02.86-.05 1.21h4.32v.69h-4.38c-.04.34-.1.75-.19 1.22h5.15v.69h-4.82c.87 1.19 2.51 1.92 4.93 2.19-.17.31-.3.57-.37.76-2.77-.49-4.52-1.41-5.26-2.76-.56 1.26-2.3 2.23-5.24 2.9-.12-.24-.26-.48-.43-.72 2.73-.55 4.38-1.34 4.96-2.38h-4.38v-.69h4.65c.1-.38.17-.79.21-1.22h-4.32v-.69h4.4c.03-.34.05-.75.05-1.21h-4.2v-2.64h4.23v-1.26h-2.69v-1.84h-2.24zm1.46 4.46v1.29h3.45c.01-.4.02-.57.01-.53v-.32-.45h-3.46zm1.55-2.59h4.57v-1.19h-4.57zm6.11 2.59h-3.42v.77c-.01.19-.01.37-.02.53h3.44z" fill="#fbfcfa"/><path d="m32.63 379.16h.82v1.98h3.54v7.89h1.46v.78h-14.37v-.78h1.46v-7.89h3.55v-1.98h.82v1.98h2.73v-1.98zm-3.49 11.48.5.73c-1.61.82-3.28 1.63-5 2.41-.13-.27-.28-.55-.44-.82 1.75-.72 3.4-1.49 4.94-2.32m-2.78-5.55h2.73v-3.18h-2.73zm0 3.95h2.73v-3.2h-2.73zm3.54-3.95h2.73v-3.18h-2.73zm0 3.95h2.73v-3.2h-2.73zm7.89 4.68c-1.84-.92-3.51-1.7-5.02-2.32l.45-.73c1.89.8 3.57 1.55 5.04 2.23zm-1.62-11.81h-2.73v3.18h2.73zm-2.73 7.13h2.73v-3.2h-2.73z" fill="#fbfcfa"/><g fill="#010102"><path d="m215.49 264.42c18.83-3.6 36.31-6.94 54.28-10.37.05-14.45.14-28.35-4.23-41.83-1.03-3.17-2.91-4.49-6.86-3.49-11.57 2.95-23.29 5.29-34.96 7.84-11.25 2.46-20.32-2.04-28.78-8.4-.05-.62-.09-1.25-.14-1.87 3.17-.78 6.29-1.79 9.5-2.31 23.06-3.74 46.14-7.38 69.4-11.08 0-13.25 0-25.84 0-38.8-15.45 3.17-31.01 7.75-45.53-6.48 5.58-1.06 9.9-1.72 14.14-2.71 9.52-2.23 19.04-4.5 28.47-7.08 1.33-.36 3.1-2.58 3.07-3.9-.47-19.13-1.02-38.25-1.99-57.36-.4-7.86-2.75-15.34-7.43-21.94-.87-1.23-.97-3-1.43-4.52 1.68-.38 3.62-1.5 4.99-1.02 8.08 2.85 16.34 5.46 23.92 9.37 5.83 3.01 5.53 6.75 3.71 13.15-2.07 7.28-3.25 14.91-3.9 22.47-1.08 12.57-1.43 25.2-2.15 38.84 8.96-2.36 17.05-4.44 25.11-6.62 7.25-1.97 14.37-2.71 21.14 1.56 4.67 2.95 4.91 6.3-.18 8.32-9.53 3.77-19.38 6.72-29.16 9.82-3.78 1.2-7.7 2.37-11.62 2.66-4.17.31-5.33 2.52-5.35 5.99-.05 11.28-.02 22.56-.02 34.6 7.25-1.2 15.32-2.57 23.41-3.86 13.74-2.19 27.45-4.77 41.26-6.29 7.29-.8 13.57 2.86 18.04 8.82 1.09 1.46 2.28 4.15 1.65 5.27-.84 1.48-3.36 2.59-5.26 2.78-5.95.61-11.97.45-17.92 1.05-25.25 2.57-50.49 5.3-75.73 7.98-.07.67-.13 1.33-.2 2 2.88 1.73 5.83 3.34 8.61 5.2 6.98 4.66 7.81 7.33 6.28 15.33-1.3 6.81-2 13.74-3.14 21.9 8-1.59 15.09-2.73 22.03-4.46 7.33-1.83 14.22-1.85 20.24 3.27 1.51 1.28 3.37 3.53 3.16 5.06-.2 1.48-2.7 3.34-4.5 3.8-11.09 2.83-22.28 5.32-33.44 7.9-2.1.49-4.23.84-7.05 1.4-.5 14.26-1 28.64-1.53 43.92 8.44-.97 16.43-1.86 24.41-2.83 12.03-1.46 24.02-3.64 36.09-4.26 10.15-.52 19.96 1.92 26.73 10.66 1.21 1.56 2.54 4.22 1.97 5.63-.55 1.37-3.45 2.47-5.35 2.52-11.48.3-22.99-.06-34.46.39-41.39 1.63-82.58 5.15-123.25 13.44-10.41 2.12-17.84-3.48-24.64-10.23-.69-.69-1.25-2.68-.9-3.01.97-.9 2.44-1.64 3.77-1.74 10.11-.76 20.29-.91 30.35-2.09 16.46-1.93 32.85-4.5 49.43-6.82 0-13.81 0-27.08 0-41.11-6.89.96-13.55 1.83-20.19 2.82-10.38 1.54-20.21.11-29.28-5.36-1.29-.79-2.35-2-4.59-3.92z"/><path d="m124.25 187.32c-.46-8.37-.94-16.93-1.47-26.62-18.31 3.72-35.93 6.86-53.32 10.98-13.42 3.18-24.48-.68-34.63-8.95-1.04-.85-1.64-2.23-3.2-4.45 3.97-.51 6.9-1.48 9.66-1.14 16.24 1.97 32.17-.8 48.15-2.74 5.58-.68 11.11-1.8 17.16-2.79-.48-8.83-.96-17.5-1.44-26.27-9.92-.75-19.47.22-29.69-4.29 9.18-6.17 19.05-6.17 28.23-9.08-1.74-11.05-2.6-22.16-10.18-31.35.81-.56 1.34-1.23 1.85-1.22 7.85.16 15.77.79 22.28 5.5 1.74 1.26 2.02 5.22 2.08 7.96.11 5.27-.43 10.54-.75 16.71 9.06-2.07 17.3-3.82 25.46-5.86 12.3-3.08 12.33-3.17 12.49-15.86.1-7.96.24-15.92-.05-23.87-.12-3.25-1.33-6.46-2-9.7-.54-2.65-.01-4.43 3.28-3.57 9.28 2.4 17.16 7.19 23.21 14.59.98 1.2.77 4 .19 5.75-2.71 8.11-5.74 16.12-8.89 24.81 8.84-1.14 16.52-2.19 24.21-3.06 2.13-.24 4.37-.27 6.46.14 1.62.32 3.93 1.17 4.36 2.36.47 1.29-.37 3.85-1.52 4.79-2.52 2.05-5.41 4.01-8.47 4.98-8.53 2.7-17.19 5.01-25.87 7.2-3.02.76-4.78 1.85-5.36 5.22-1.32 7.67-3.09 15.27-4.87 23.78 7.86-.97 15.17-2.07 22.51-2.74 9.05-.82 18.12-1.51 27.2-1.81 3.42-.11 6.86 1.33 6.96 5.62.11 4.61-3.96 5.12-7.04 5.58-14.93 2.25-29.92 4.16-44.89 6.21-10.51 1.43-21.01 2.88-32.74 4.49 7.33 7.9 7.16 16.71 3.78 26.96 9.47-2.74 17.76-4.47 25.52-7.53 14.11-5.57 24.86 1.03 35.34 8.77 3.11 2.3 3.89 6.08.77 9.15-9.56 9.38-13.02 21.71-17.2 33.81-3.14 9.08-6.97 17.92-10.53 26.86-.36.91-.82 1.88-1.5 2.56-2.37 2.38-4.85 4.65-7.28 6.96-1.93-2.44-3.86-4.88-6.35-8.04-6.55.94-14.22 2.09-21.91 3.13-12.01 1.63-24.04 3.1-36.01 4.92-1.63.25-3.05 2.1-4.49 3.31s-2.79 2.54-4.17 3.82c-1.12-1.48-2.94-2.84-3.25-4.47-1.99-10.6-3.58-21.27-5.44-31.9-1.99-11.41-2.35-23.21-8.02-33.74-1.49-2.78-3.34-5.36-4.79-8.16-1.29-2.49-.77-4.29 2.51-4.05 4.47.33 8.97.57 13.4 1.22 7.61 1.08 32.13-1.63 40.26-4.88zm9.72 63.23c3.71-.28 6.67-.47 9.62-.75 2.97-.28 5.93-.73 8.9-.94 9.41-.69 9.41-.66 11.5-10.17.46-2.11 1.16-4.18 1.4-6.31 1.24-11.02 2.77-22.03 3.38-33.1.37-6.59-2.29-8.73-8.38-8.02-6.58.76-13.11 2-19.63 3.19-.94.17-2.39 1.19-2.47 1.92-.61 6.35-.95 12.72-1.41 19.69 6.37 0 11.86-.28 17.3.16 1.76.14 3.37 2.17 5.05 3.33-1.31 1.52-2.33 3.74-3.99 4.43-4.88 2.03-10.06 3.33-15.01 5.21-1.48.56-3.48 1.92-3.72 3.2-1.12 5.81-1.69 11.74-2.54 18.16zm-10.15-54.19c-10.58 2.05-20.58 3.99-30.78 5.96 1.03 18.28 2.02 35.96 3.05 54.07 9.68-1.53 18.73-2.96 27.59-4.36 0-7.27 0-13.84 0-20.62-7.29-.72-14.67.57-21.15-2.97-.1-.58-.2-1.16-.31-1.74 7.26-2.85 14.51-5.7 21.6-8.48 0-7.31 0-14.27 0-21.86zm26.54-50.63c.94-9.22 1.85-18.22 2.86-28.19-11.39 2-21.95 3.82-32.48 5.76-.58.11-1.42 1.13-1.43 1.73-.1 8.23-.06 16.46-.06 25.17 10.64-1.53 20.48-2.94 31.11-4.47z"/><path d="m51.4 349.77c4.09-4.72 8.39-9.28 12.23-14.19 7.46-9.56 15.37-18.89 21.71-29.17 3.87-6.27 5.71-14.01 7.45-21.33 1.51-6.35 3.23-7.81 9.05-4.46 3.87 2.23 7.67 4.7 11.1 7.55 5.59 4.64 5.73 8.68.64 13.86-6.18 6.29-12.5 12.46-18.88 18.54-7.57 7.22-15 14.64-23.03 21.32-4.13 3.44-9.39 5.57-14.25 8.08-1.51.78-3.38.88-5.09 1.29-.32-.5-.63-.99-.93-1.49z"/><path d="m180.14 315.48c-.58 2.1-1.26 5.88-2.67 9.36-2.11 5.2-4.93 5.54-9.01 1.51-.83-.82-1.74-1.62-2.31-2.61-6.31-11.07-12.58-22.16-18.78-33.29-.71-1.28-1.14-2.78-1.4-4.24-.83-4.64.99-6.45 4.95-4.2 7.44 4.23 14.91 8.63 21.53 13.99 5.28 4.26 7.49 10.82 7.69 19.48z"/></g></svg>