<svg enable-background="new 0 0 400 400" viewBox="0 0 400 400" xmlns="http://www.w3.org/2000/svg"><path d="m5.17 384 .55-.58c.85.61 1.65 1.24 2.4 1.87l-.59.64c-.83-.73-1.62-1.38-2.36-1.93m1.22 9.53-.82-.34c.71-1.76 1.37-3.64 1.98-5.63.24.13.5.25.76.36-.6 1.67-1.24 3.54-1.92 5.61m-.5-13.5.57-.54c.56.44 1.31 1.06 2.26 1.87l-.64.64c-.68-.66-1.41-1.32-2.19-1.97m3.25.46h2.24v-1.36h.77v1.36h4.57v-1.36h.76v1.36h2.28v.69h-2.28v1.84h-2.64v1.26h4.18v2.64h-4.21c0 .45-.02.86-.05 1.21h4.32v.69h-4.38c-.04.34-.1.75-.19 1.22h5.15v.69h-4.82c.87 1.19 2.51 1.92 4.93 2.19-.17.31-.3.57-.37.76-2.77-.49-4.52-1.41-5.26-2.76-.56 1.26-2.3 2.23-5.24 2.9-.12-.24-.26-.48-.43-.72 2.73-.55 4.38-1.34 4.96-2.38h-4.38v-.69h4.65c.1-.38.17-.79.21-1.22h-4.32v-.69h4.4c.03-.34.05-.75.05-1.21h-4.2v-2.64h4.23v-1.26h-2.69v-1.84h-2.24zm1.46 4.46v1.29h3.45c.01-.4.02-.57.01-.53v-.32-.45h-3.46zm1.55-2.59h4.57v-1.19h-4.57zm6.11 2.59h-3.42v.77c-.01.19-.01.37-.02.53h3.44z" fill="#fbfcfa"/><path d="m32.63 379.16h.82v1.98h3.54v7.89h1.46v.78h-14.37v-.78h1.46v-7.89h3.55v-1.98h.82v1.98h2.73v-1.98zm-3.49 11.48.5.73c-1.61.82-3.28 1.63-5 2.41-.13-.27-.28-.55-.44-.82 1.75-.72 3.4-1.49 4.94-2.32m-2.78-5.55h2.73v-3.18h-2.73zm0 3.95h2.73v-3.2h-2.73zm3.54-3.95h2.73v-3.18h-2.73zm0 3.95h2.73v-3.2h-2.73zm7.89 4.68c-1.84-.92-3.51-1.7-5.02-2.32l.45-.73c1.89.8 3.57 1.55 5.04 2.23zm-1.62-11.81h-2.73v3.18h2.73zm-2.73 7.13h2.73v-3.2h-2.73z" fill="#fbfcfa"/><g fill="#010102"><path d="m287.24 235.09c3.08 0 6.24-.44 9.23.1 5.34.97 9.01-1.22 10.93-5.71 4.53-10.59 7.68-21.62 7.53-33.27-.07-5.5-3.09-7.45-8.5-6.07-8.21 2.09-16.42 4.18-25.26 6.43-.59 7.68-1.6 15.57-1.72 23.49-.33 21.61-.82 43.24-.22 64.84.59 21.15 12.23 31.75 33.33 32.12 9 .16 17.8.04 26.39-3.75 6.53-2.89 10.89-7.2 12.37-13.92 2.16-9.86 3.71-19.86 5.55-29.79.22-1.19.65-2.33.98-3.5.42.03.85.06 1.27.09.98 8.5 1.37 17.12 3.11 25.46 1.4 6.68 3.97 13.24 6.9 19.45 2.5 5.31 2.75 8.25-1.58 12.39-7.79 7.45-17.51 10.45-27.89 12.03-14.76 2.25-29.47 2.55-44.14-.54-18.32-3.86-26.71-14.24-27.38-32.89-1.08-29.94-.9-59.92-1.25-89.89-.02-1.78 0-3.55 0-5.33-.47-.39-.94-.77-1.41-1.16-2.87 2.17-6.56 3.79-8.44 6.61-6.08 9.11-12.21 18.31-17.03 28.1-10.25 20.8-22.79 39.86-39.3 56.19-15.71 15.54-33.61 27.62-55.07 33.86-1.82.53-3.68.95-5.97.77 28.16-18.69 51.79-41.67 70.22-70.55-12.96-5.74-20.12-16.8-26.12-28.98-2.59.9-4.89 1.69-7.2 2.49-.35-.28-.71-.55-1.06-.83 1.25-1.86 2.31-3.89 3.79-5.55 12.19-13.68 22.13-28.81 28.05-46.18 2.28-6.7 2.69-14.04 4.1-21.88 1.14.24 3.46.15 5.07 1.18 4.73 3.01 9.55 6.07 13.63 9.86 4.24 3.93 3.43 5.75-.95 9.68-5.26 4.71-10.02 9.97-14.99 15 .36.68.72 1.36 1.08 2.05 7.04-1.84 14.29-3.14 21.06-5.71 5.03-1.9 9.02-1.97 13.53 1.04 5.22 3.48 10.85 6.34 16.3 9.47.49-.34.97-.67 1.46-1.01-1.85-3.48-3.76-6.92-5.52-10.44-.76-1.53-1.22-3.21-1.81-4.82 1.69-.41 3.37-1.01 5.09-1.17 1.46-.14 3.02.05 4.46.39 15.43 3.68 29.15.75 41.29-9.85 2.04-1.78 6.4-3.06 8.61-2.09 7.07 3.07 13.77 7.08 20.32 11.19 2.84 1.78 2.81 4.93.25 7.29-6.25 5.74-8.04 13.48-10.26 21.19-4.07 14.15-8.26 28.28-13.1 42.18-1.4 4.01-4.86 7.51-7.96 10.67-3.58 3.64-6.37 2.62-7.89-2.31-.19-.63-.22-1.31-.32-1.97-1.12-7.7-4.66-14.11-10.12-19.59-1.58-1.59-2.81-3.52-4.2-5.3.25-.54.5-1.05.76-1.56zm-71.14 15.31c6-13.06 11.54-25.05 17.01-37.08.68-1.49 1.26-3.16 1.3-4.77.03-1.36-.77-3.92-1.23-3.93-7.63-.1-15.26.12-22.89.26-6.76 7.9-13.51 15.79-20.34 23.77 10.24 4.97 22.19 7.51 26.15 21.75z"/><path d="m169.09 228.83c-6.78 2.42-13.51 4.98-20.34 7.22-22.52 7.4-45.09 14.67-67.62 22.06-2.04.67-4.12 1.56-5.82 2.83-6.11 4.56-12.15 3.87-18.05-.09-5.14-3.45-10.07-7.21-15.09-10.84.24-.56.49-1.12.73-1.68 5.17-.44 10.43-.43 15.49-1.42 16.27-3.18 32.47-6.7 48.66-10.23.97-.21 2.35-1.63 2.38-2.53.21-6.1.11-12.2.11-18.58-15.16 1.73-29.77 6.89-44.05-.02-.08-.59-.16-1.18-.25-1.77 3.39-.95 6.74-2.08 10.17-2.8 10.05-2.12 20.12-4.16 30.22-6.04 3.01-.56 4.1-1.83 4.02-4.97-.21-8.78-.07-17.57-.07-26.98-9.08 1.89-17.5 3.52-25.85 5.5-1.17.28-2.23 2.08-2.85 3.4-1.24 2.63-2.15 5.42-3.2 8.14-.59.13-1.17.26-1.76.4-1.64-3.21-3.89-6.26-4.81-9.67-3.59-13.29-6.74-26.69-10.08-40.05-3.62-14.49-6.6-29.19-15.44-41.81-2.56-3.65-1.37-5.37 3.29-5.25 4.3.11 8.6 1.19 12.86 1.03 6.77-.25 13.65-.49 20.23-1.92 19.61-4.28 39.12-9.06 58.62-13.86 3.66-.9 7.27-2.47 10.58-4.31 5.04-2.81 10.08-3.1 15.32-1.13 10.57 3.98 19.98 9.87 27.99 17.82 4.51 4.48 4.83 6.91.86 11.67-11.37 13.65-17.56 30.06-25.27 45.7-4.47 9.06-9.76 17.72-14.82 26.48-.94 1.63-2.53 2.88-4.92 5.52-.78-4.55-1.31-7.67-2.04-12.01-7.95.87-16.26 1.74-24.55 2.78-.62.08-1.51 1.37-1.56 2.14-.52 8.6-.9 17.21-1.34 26.21 7.98-1.56 15.28-3.13 22.63-4.35 2.18-.36 4.94-.5 6.69.52 2.52 1.47 4.36 4.1 6.49 6.24-2.35 1.3-4.55 3.17-7.07 3.8-9.31 2.34-18.73 4.28-28.34 6.41v20.38c16.01-1.54 31.19-7.99 47.27-6.81.21.97.39 1.92.58 2.87zm-46.89-67.14c7.86-.71 15.09-1.64 22.34-1.91 5.61-.21 8.8-2.3 9.5-8.11.33-2.76 1.54-5.4 2.33-8.11 4.38-14.89 7.38-29.98 6.5-45.62-.39-6.98-3.42-11.27-9.19-10.67-10.46 1.07-20.82 3.2-32.2 5.05 7.5 15.24.43 29.4 1.11 44.6 6.22-7.14 11.3-13.7 12.39-22.57.6-4.89 2.71-6.93 6.29-5.14 4.22 2.11 8.14 5.09 11.59 8.34 2.48 2.33 1.53 4.91-1.46 6.97-9.02 6.19-17.9 12.58-26.75 19.02-1.09.79-2.26 2.29-2.33 3.52-.28 4.74-.12 9.53-.12 14.63zm-17.24-64.63c-9.07 2.46-17.4 4.65-25.67 7-6.94 1.98-6.83 2.06-5.97 9.2 1.36 11.37 2.54 22.75 3.88 34.12.89 7.54 1.9 15.07 2.93 23.14 10.06-2.01 19.58-3.91 29.61-5.91-1.05-22.59 2.36-45.08-4.78-67.55z"/><path d="m211.16 130.98c-1 13.47-3.96 25.78-11.1 36.82-3.16 4.89-5.41 5.07-8.92.32-4.5-6.1-5.42-12.98-2.89-19.88 4.67-12.77 9.88-25.34 14.9-37.98.23-.57.85-.98 1.6-1.8 5.16 3.06 5.39 8.9 8.41 14.28 13.47-2.09 27.42-3.89 41.22-6.48 21.57-4.05 42.7-9.8 62.79-18.88 6.25-2.82 11.91-2.02 16.95 2.91 7.49 7.33 15.52 14.16 22.55 21.89 6.58 7.24 5.28 11.03-4.37 12.09-15.21 1.67-28.44 7.52-40.73 16.18-1.35.95-2.92 1.6-4.43 2.29-.53.24-1.21.15-2.73.31 1.11-2.49 1.95-4.36 2.77-6.23 3.33-7.59 7.12-15.01 9.86-22.81 2.38-6.79.03-9.75-7.2-8.8-10.99 1.44-21.93 3.54-32.75 6-21.54 4.93-43.04 9.94-65.93 9.77z"/><path d="m240.14 53.29c13.52 2.26 25.71 4.05 35.3 12.55 8.44 7.48 8.19 19.63 3.95 28.5-1.93 4.03-5.93 4.36-9.87.22-6.28-6.59-12.15-13.6-17.8-20.73-3.38-4.27-6.12-9.07-8.96-13.74-1-1.63-1.42-3.6-2.62-6.8z"/><path d="m51.2 280.9c1.3 3.32 3.45 6.57 3.75 9.99 1.39 15.92-1.2 31.17-9.5 45.07-4.18 6.99-7.81 6.7-11.69-.49-3.27-6.05-4.03-12.21.45-17.77 6.76-8.39 10.36-18.05 12.85-28.32.69-2.85 1.89-5.57 2.86-8.35.43-.05.85-.09 1.28-.13z"/><path d="m138.14 255.82c2.81.23 4.79-.13 6.25.59 5.93 2.94 11.88 5.92 17.46 9.46 4.83 3.06 6.59 8.28 7.05 13.75.54 6.46-5.7 10.54-11.46 7.52-1.84-.97-3.63-2.51-4.78-4.23-4.24-6.36-8.32-12.83-12.18-19.43-1.16-1.99-1.41-4.51-2.34-7.66z"/><path d="m97.97 299.08c-1.59 2.6-2.6 6.31-4.84 7.34-1.93.89-6.1-.47-7.82-2.24-4.9-5.06-9.5-10.54-13.34-16.43-2.96-4.53-.76-7.44 4.6-6.73 7.13.95 13.29 4.21 17.83 9.79 1.66 2.05 2.21 5.01 3.57 8.27z"/><path d="m103.06 267.86c8.15.29 15.5 1.7 21.79 6.47 4.62 3.5 6.23 9.56 4.04 14.63-1.2 2.78-2.98 4.69-6.55 3.5-6.63-2.22-18.55-16.93-19.28-24.6z"/><path d="m81.03 125.64c5.39 1.68 11.01 2.84 16.09 5.18 5.18 2.38 7.16 9.96 4.7 15.08-1.55 3.22-4.31 3.12-6.67 1.43-7.13-5.08-11.88-12-15.24-19.89.37-.6.74-1.2 1.12-1.8z"/></g></svg>