<?xml version="1.0" encoding="utf-8"?>
<!-- Generator: Adobe Illustrator 22.0.0, SVG Export Plug-In . SVG Version: 6.00 Build 0)  -->
<svg version="1.1" id="图层_1" xmlns="http://www.w3.org/2000/svg" xmlns:xlink="http://www.w3.org/1999/xlink" x="0px" y="0px"
	 viewBox="0 0 200 200" style="enable-background:new 0 0 200 200;" xml:space="preserve">
<style type="text/css">
	.st1{fill:#010000;}
	.st4{fill:#fbfafc;}
</style>
<g>
	
	<path d="M81.4,51.4C70.1,52.5,59,60.1,48.6,48c5.3-0.6,9.8-0.9,14.2-1.6c23.8-3.9,47.5-7.8,71.3-12c6.1-1.1,16.6,2.3,19.9,7.6
		c0.7,1.1,1.1,3.1,0.6,3.9c-6.6,8.6-6.2,19.3-8.7,29.1c-1.7,6.8-3.4,13.7-6,20.2c-2.7,6.9-7.5,12.4-14.9,14.5
		c-1.8,0.5-4.9,0.1-5.9-1.1c-5.1-6-9.8-12.5-15.1-19.3c3.9,0.7,7.3,1.3,10.7,1.9c8.2,1.5,11.3,0.5,14.3-7.4
		c3.2-8.4,5.2-17.4,7.7-26.1c0.1-0.5,0.1-1,0.1-1.4c1.3-12,0.9-12.8-10.9-11.9c-11.4,0.8-22.8,2.7-34.2,4c0.1,1.2,0.1,1.6,0.2,1.8
		c6.3,6.7,6.3,6.7,1.4,14.8c-10,16.8-20.3,33.5-35.8,45.9c-6.3,5.1-13.4,9.3-20.3,13.6c-2,1.3-4.6,1.6-7.1,2.3
		c10.7-11.7,21.5-22.6,31.2-34.4C70.8,80.6,80,68.1,81.4,51.4z"/>
	<path d="M138.2,160.7c2.3,2.2,4.2,4,6.1,5.8c-0.1,0.4-0.3,0.8-0.4,1.2c-21.8,1.6-43.6,3.1-65.5,4.7c-0.1,0.2-0.4,0.4-0.5,0.6
		c-1,1.9-1.9,3.8-2.8,5.6c-1.6-1.6-4.1-3.1-4.5-5c-1.5-6.5-2.2-13.2-3.2-19.8c-0.9-5.8-1.6-11.7-3-17.4c-0.7-3-2.7-5.7-4.1-8.5
		c-0.6-1.2-1.1-2.4-1.6-3.7c1.4-0.4,2.9-1.1,4.3-1c4.7,0.4,9.5,2.1,14,1.7c12.2-1.2,24.4-3.1,36.5-5.1c6-1,11.8-2.6,17.7-4
		c5.9-1.4,17.5,3.9,20.2,9.4c0.5,0.9,0.5,2.8-0.1,3.5c-7.2,7.6-8.5,17.7-11.7,26.9C139,157.3,138.6,159,138.2,160.7z M73.7,132.5
		c1.4,10.9,2.7,21.3,4.2,32.4c15.2-1.6,29.8-3,44.4-4.8c1.4-0.2,3.3-2.1,3.6-3.5c1.9-8.1,3.6-16.2,5-24.3c0.9-5.2-0.4-6.6-5.5-6.3
		c-7,0.3-14,1.1-21,2C94.3,129.3,84.2,130.9,73.7,132.5z"/>
	
</g>
</svg>
