<?xml version="1.0" encoding="utf-8"?>
<!-- Generator: Adobe Illustrator 22.0.0, SVG Export Plug-In . SVG Version: 6.00 Build 0)  -->
<svg version="1.1" id="图层_1" xmlns="http://www.w3.org/2000/svg" xmlns:xlink="http://www.w3.org/1999/xlink" x="0px" y="0px"
	 viewBox="0 0 200 200" style="enable-background:new 0 0 200 200;" xml:space="preserve">
<style type="text/css">
	.st1{fill:#010000;}
	.st4{fill:#fbfafc;}
</style>
<g>
	
	<path d="M164.9,81.8c-9.2,1.3-18.2,2.6-28.4,4.1c-0.5-1.6-1.8-4.2-2-6.8c-1-12.9-1.7-25.8-2.3-38.7c-0.1-1.1,1.7-3.3,2.2-3.2
		c9.4,2.1,17.6-1.7,26-4.6c5.8-2,13.9,0,17.2,5.1c0.7,1,0.7,2.7,0.5,4c-1,6.9-3,13.8-3,20.7c0,32.3,0.5,64.6,0.8,97
		c0.1,7.2-0.2,14.4-4.4,20.8c-4.2,6.4-6,6.6-11.1,1.2c-5-5.3-9.9-10.6-15.3-16.5c4,0.9,7.6,1.8,11.2,2.5c5.6,1.2,6.9,0.5,7.5-5.2
		c0.8-7.6,1.3-15.3,1.4-23c0.2-17.9,0.1-35.9,0.1-53.8C165.3,84.3,165,83.2,164.9,81.8z M165,56.1c-0.2-4.3-0.4-8.3-0.6-12.2
		c-0.2-3.5-2.1-4.9-5.4-4.2c-5.1,1.1-10.3,2.3-15.3,3.7c-1,0.3-2.3,1.8-2.4,2.8c-0.3,4.4-0.1,8.8-0.1,13.3
		C149.4,59,156.2,52.6,165,56.1z M141.3,78.3c8.2-1.1,15.9-2.2,23.6-3.3c0-4.2,0-9.2,0-14.3c-8.1,1.2-15.7,2.4-23.6,3.5
		C141.3,68.7,141.3,73.3,141.3,78.3z"/>
	<path d="M21.5,159.1c8.8-7.3,18.6-13.4,25.3-24c-4.4-2.8-8.4-5.6-12.6-8c-4.1-2.3-5.1-4.9-3-9.4c1.9-4.2,2.9-9,4.8-15.3
		c-12.1,6.9-20.8,5.6-26.8-6.9c2.2-0.1,3.8-0.2,5.5-0.3c6.9-0.3,13.7-0.4,20.5-0.9c1.1-0.1,2.8-2,3.1-3.3
		c2.9-15.2,5.5-30.5,4.2-46.1c-0.2-2.5-1-5-1.6-7.5c-0.7-3.1,0.7-4.8,3.5-3.5c4.2,1.9,8.2,4.2,11.8,7c1.1,0.9,1,4.1,0.5,6
		C52.9,62,49,77.1,45,92.9c5-0.6,9.2-0.9,13.4-1.8c1.2-0.3,2.8-2.5,2.8-3.8c0.1-2.8-0.8-5.6-1.3-8.5c-0.6-3.4,1-5,4.3-3.9
		c2,0.6,3.8,1.6,5.7,2.5c3.5,1.9,6.3,4.1,3.3,8.6c-0.4,0.6-0.3,1.5-0.4,2.3c2.7,0.3,5.3,0.7,7.8,1c0.1,0.6,0.3,1.3,0.4,1.9
		c-2,0.8-3.9,1.8-6,2.3c-3,0.6-4.2,2.1-5.1,5.2c-3.1,11.5-6.8,22.8-10.5,35.1c2.2,1.4,5.6,3.6,9,6c3.2,2.2,5.5,5.2,4.6,9.3
		c-0.4,2.1-1.5,5.2-3.1,5.7c-1.7,0.5-4.5-0.9-6.1-2.4c-3-2.6-5.4-5.9-8.1-8.8c-0.8-0.9-1.9-1.7-3.2-2.8
		C44.4,150.7,34.5,157.5,21.5,159.1z M51.5,129.3c3.3-10.7,6.5-21.1,10-32.5c-4.6,1-7.5,2-10.4,2.3c-6.5,0.5-9.3,4-10.8,10.2
		C36.5,125.5,35.4,122,51.5,129.3z"/>
	<path d="M89.7,91.2c-0.8,19.4-1.5,38.4-2.4,57.4c-0.3,5.4-1.1,10.8-2.1,16.1c-0.2,1.3-1.7,3.2-2.8,3.3c-1.1,0.2-2.7-1.3-3.6-2.5
		c-3.3-4.5-3.6-9.6-2.9-15.1c2.1-15.1,4.5-30.3,5.6-45.5c0.9-13,0.5-26.2,0.1-39.3c-0.2-5.6-1.6-11.3-3.1-16.8
		c-1-3.7,0.1-5.6,3.3-4.4c9.6,3.6,18-0.2,26.7-3c3-1,11.6,3.2,12.7,6.2c0.4,1,0,2.4-0.3,3.6c-2.5,10.2-5.1,20.4-7.7,30.6
		c-0.5,2.2-1,4.4-1.7,6.5c-1.7,4.7-2.7,4.9-6.9,1.9c-0.9-0.7-2.3-0.9-3.5-0.8C97.4,89.9,93.6,90.6,89.7,91.2z M90.4,67.3
		c5.6-1.5,10.8-2.8,16.8-4.4c0.1-2.3,0.3-5.8,0.6-9.2c0.3-3.3-1.5-4.1-4.4-4C90.2,50.3,90,50.5,90.2,63.8
		C90.2,64.9,90.3,66,90.4,67.3z M89.8,85.5c14.2-1.5,17.2-4.6,15.6-16.1c-5.1,0.9-10.2,1.7-15.6,2.7C89.8,76.5,89.8,80.9,89.8,85.5z
		"/>
	<path d="M119.8,145.9c2.9,1.1,5.8,2.2,8.7,3.4c3,1.3,4.7,0.3,5.1-2.8c0.5-4.2,0.8-8.5,1.3-13.2c-6.9,0.6-13,1.1-19.3,1.6
		c-1.9,10.7-4.9,20.8-17.1,26.4c11.9-19.6,13.4-39.4,7.9-60.8c0.7-0.1,2.2-0.7,3.3-0.2c7.8,3.4,14.6,0,21.4-3
		c4.2-1.8,11.5,0.4,13.6,4.3c0.4,0.8,0.6,1.9,0.3,2.7c-4.3,12-2.1,24.3-1.9,36.6c0.1,7.1,0.2,14.1-4.5,20.1c-3,3.9-4.3,3.9-7.3,0.2
		c-3.9-4.9-8-9.8-12-14.6C119.6,146.4,119.7,146.1,119.8,145.9z M134.2,112.6c0-1.8,0.3-4.2-0.1-6.5c-0.2-1.2-1.8-3.1-2.3-3
		c-4.6,1.1-9.5,1.8-13.4,4.2c-1.8,1.1-1.5,5.6-2.3,9C122.5,115,128.1,113.9,134.2,112.6z M134.2,127.5c0-2.9,0-6,0-9.2
		c-6.2,1-11.9,2-17.8,2.9c0,3,0,5.8,0,8.9C122.5,129.3,128.3,128.4,134.2,127.5z"/>
	
	
	
	
	
	
	
</g>
</svg>
