<?xml version="1.0" encoding="utf-8"?>
<!-- Generator: Adobe Illustrator 22.0.0, SVG Export Plug-In . SVG Version: 6.00 Build 0)  -->
<svg version="1.1" id="图层_1" xmlns="http://www.w3.org/2000/svg" xmlns:xlink="http://www.w3.org/1999/xlink" x="0px" y="0px"
	 viewBox="0 0 200 200" style="enable-background:new 0 0 200 200;" xml:space="preserve">
<style type="text/css">
	.st1{fill:#010000;}
	.st4{fill:#fbfafc;}
</style>
<g>
	
	<path d="M141.4,183c-0.7-3.3-1.9-6.6-1.9-9.9c-0.3-41.6-0.3-83.1-0.7-124.7c-0.1-6.3-1.2-12.7-2.1-18.9c-0.6-4.2,0.7-5.7,4.9-4.6
		c2,0.5,4,1.1,5.9,1.9c6.8,2.8,7.1,4.5,6.2,11.6c-1.3,10.1-2.1,20.3-2.3,30.5c-0.5,22-0.1,44.1-0.8,66.2c-0.5,13.5-2.3,27-3.8,40.4
		c-0.3,2.6-1.9,5.1-3,7.7C142.9,183.1,142.2,183.1,141.4,183z"/>
	<path d="M26.7,159.5c2.5-2.6,5.1-5.1,7.4-7.8c13.4-15.8,19-34.5,19.7-54.8c0.4-11,0.5-22.1-0.1-33.1c-0.3-4.9-2.5-9.7-3.7-14.6
		c-0.4-1.4-1.2-3.4-0.6-4.3c0.7-1,3.1-1.8,4.2-1.3c4.7,2.2,9.3,4.6,13.6,7.4c1,0.7,1.2,3.2,1.2,4.8c-0.6,11.3-1.3,22.6-2.2,33.9
		c-1,13-1.4,26.1-6.3,38.6c-5,12.8-13.2,22.9-25.4,29.4c-2.2,1.2-4.7,2-7,2.9C27.1,160.4,26.9,159.9,26.7,159.5z"/>
	<path d="M108.7,52.7c-5.8,28.3-1.9,56.4-3.3,84.3c-0.2,3.2-1.2,6.6-2.7,9.5c-2,3.9-4.9,3.7-7.1-0.2c-3.7-6.4-2.6-13.3-1.9-20.1
		c2.6-23.4,3.2-46.9,1.5-70.4c-0.2-2.6-1.5-5.2-1.9-7.9c-0.2-1.1,0.2-3,1-3.4c2.8-1.4,12.4,2.1,13.8,5
		C108.6,50.6,108.6,52,108.7,52.7z"/>
</g>
</svg>
