<?xml version="1.0" encoding="utf-8"?>
<!-- Generator: Adobe Illustrator 22.0.0, SVG Export Plug-In . SVG Version: 6.00 Build 0)  -->
<svg version="1.1" id="图层_1" xmlns="http://www.w3.org/2000/svg" xmlns:xlink="http://www.w3.org/1999/xlink" x="0px" y="0px"
	 viewBox="0 0 200 200" style="enable-background:new 0 0 200 200;" xml:space="preserve">
<style type="text/css">
	.st0{fill:#FFFFFF;}
</style>
<g>
	
	<path d="M117,125.4c5.2-13.7,6.1-27.9,5-41.8c-6.3,0.3-12,0.4-17.6,1c-1.2,0.1-2.4,1.6-3.3,2.7c-5.6,6.9-11,14-16.7,20.9
		c-1.1,1.3-3,2-5.3,2.3c0.4-0.9,0.8-1.8,1.3-2.6C92.8,87,102.4,65,107.1,41c0.5-2.6,0.6-5.4,0.6-8.1c0.1-4,2.2-4.9,5.3-3.2
		c2.8,1.5,5.4,3.4,7.8,5.4c2.3,2,2.2,4.2,0.8,7.2c-5.3,11.6-10.1,23.4-15.5,36.2c6.4-1.8,12-3.1,17.6-4.9c8.4-2.6,16.7-5.5,25-8.2
		c5.4-1.7,13.8,1.4,17.9,7.4c-11.8,2.4-23.2,4.6-36.1,7.2c7.7,4.4,6.3,9.7,4.6,15.6c-2,7-2.6,14.4-4.3,21.6
		c-1.4,5.7-3.4,11.3-5.3,17.5c17,16.3,39.3,22.6,62.1,28.1c-0.1,0.5-0.2,1.1-0.3,1.6c-1,0.7-1.9,1.7-2.9,2c-9.2,2-18.3,4.1-27.6,5.7
		c-6.1,1-11.3-1.7-15.4-6.1c-7.1-7.6-14.1-15.2-21.1-22.8c-17.2,16-29.5,21.5-44,18.6c2.4-1,3.7-1.6,5-2.1
		c12.3-4.4,22.1-12,29.5-22.8c1.7-2.5,1.7-4.3-0.4-6.2c-5-4.6-10.2-9.1-15.1-13.8c-1.1-1.1-1.7-2.7-2.6-4.1c1.7-0.6,3.7-2.1,5-1.6
		c3.3,1.3,6.6,3.1,9.4,5.3C110.7,119.1,113.6,122.3,117,125.4z"/>
	<path d="M64.7,179.4c-4.6-6.4-7.7-12.6-6.5-20.3c1.9-13.3,3.7-26.7,5.6-40.1c-0.5-0.2-1-0.5-1.4-0.7c-6.8,6.2-13.7,12.3-20.3,18.7
		c-7.5,7.2-11.3,6.2-14.2-4c-0.4-1.6-0.8-4,0.1-4.9c4.1-4.3,4.1-9.8,4.4-14.8c0.6-9.2,0.6-18.5,0.3-27.7c-0.1-3.4-1.4-6.8-2.7-10
		c-2-4.9-0.8-7.1,4.3-5.9c3.7,0.8,7.3,3,10.4,5.3c1.2,0.9,1.4,3.9,1.2,5.9c-1,11.7-2.3,23.4-3.4,35.1c-0.1,1,0.6,2,1.2,3.8
		c6.4-2.8,12.6-5.3,18.7-8c0.6-0.3,1.2-1.5,1.2-2.3c-0.1-20.8-0.2-41.5-0.6-62.3c-0.1-3.1-1.6-6.1-2.6-9.2c-1.1-3.6,0.4-5.7,3.9-4.3
		c3.8,1.5,7.4,3.7,10.7,6.2c1.2,0.9,1.9,3.4,1.7,5.1c-1.4,17-3.7,34-4.5,51c-0.9,22.7-0.7,45.4-0.9,68.1
		C71.2,169.9,69.6,175,64.7,179.4z"/>
</g>
</svg>
