<?xml version="1.0" encoding="utf-8"?>
<!-- Generator: Adobe Illustrator 22.0.0, SVG Export Plug-In . SVG Version: 6.00 Build 0)  -->
<svg version="1.1" id="图层_1" xmlns="http://www.w3.org/2000/svg" xmlns:xlink="http://www.w3.org/1999/xlink" x="0px" y="0px"
	 viewBox="0 0 200 200" style="enable-background:new 0 0 200 200;" xml:space="preserve">
<style type="text/css">
	.st0{fill:#FFFFFF;}
</style>
<g>
	
	<path d="M98.8,82c1.8,0.8,3.6,1.6,5.3,2.5c3.9,2.2,4,4,0.6,6.6c-1.6,1.2-3.1,2.5-4.6,3.8c0.2,0.4,0.3,0.8,0.5,1.2
		c6.8-0.9,13.7-1.7,20.5-2.9c10.2-1.7,20.4-3.8,30.6-5.6c1.4-0.2,3.1,0.2,4.6,0.7c1.8,0.7,3.4,1.8,5.1,2.7c8.7,5,8.1,5,6,14.5
		c-2.2,9.8-2.8,19.9-4,29.8c-1.1,9-1.5,18.1-3,27.1c-1.4,8.3-5.6,15.3-12.4,20.4c-5.3,4-8.7,3.2-12.3-2.2c-3.4-5-7.1-9.8-10.7-14.7
		c-0.7-1-1.3-2-2.6-4.2c4.6,1.2,8,2.1,11.4,3c9,2.1,11.9,0.6,14.2-8.4c4.5-17.7,5-35.7,4.1-53.8c-0.2-4-2.5-5.8-6.3-5.4
		c-12.4,1.3-24.7,2.9-37.1,4.1c-3.5,0.3-7.1-0.4-10.7-0.4c-1.7,0-3.6,0.1-5,0.9c-5.9,3.4-11.7,7.2-17.5,10.7c-1,0.6-2.2,0.6-3.7,1
		c4.5-4.8,8.6-9.1,12.6-13.6c2.6-3,5.2-6.1,7.5-9.3c2.7-3.7,2.7-7.4,1.5-12.1c-2.1-7.6-2.5-15.7-3.7-23.6
		c-0.9-5.8-1.4-11.8-5.6-16.5c-1.7-1.9-0.9-3.2,1.6-3.4c0.6-0.1,1.3-0.2,1.9,0c10.9,3.5,21.4-0.6,32-2c3.8-0.5,7.7-1,11.2-2.4
		c7.6-3.1,13.7-0.4,19.6,3.9c1.2,0.9,2.6,3.3,2.2,4.5c-3.6,12.4-7.4,24.7-11.4,37c-0.6,1.9-2.4,3.6-4,4.9c-1.9,1.5-3.8,1.1-5.2-1.3
		c-0.6-1-2.1-2.4-3-2.3c-9.9,1-19.8,2.3-29.7,3.5C99,81.2,98.9,81.6,98.8,82z M135.1,52.5c0.2-3.6,0.4-6.4,0.6-9.2
		c0.4-5.5-0.6-6.6-6.1-6c-7.1,0.8-14.3,1.6-21.4,2.8c-11.8,1.9-11.8,2-10.1,13.9c0,0.3,0.4,0.5,0.4,0.5
		C110.6,55,122,47.1,135.1,52.5z M134.6,56.2c-12.3,1.6-23.7,3-35.8,4.6c0.3,4.1,0.7,8.6,1.1,13.7c11.1-1.7,21.6-3.3,32.8-5
		C133.2,65.7,133.9,61.1,134.6,56.2z"/>
	<path d="M32,148.2c-6.6-5.5-8.8-11.5-7.7-18.3c3.4-20.8,3.3-41.7,2.6-62.6c-0.1-3.7-1.5-7.4-2.9-11c-1.4-3.7-0.9-5.4,2.7-4.6
		c10.4,2.5,19.3-1.8,28.4-5.4c5.7-2.3,8.8,2.4,12.7,4.7c3.1,1.8,1.7,4.8,1.4,7.7c-0.8,8.1-1.6,16.2-1.5,24.3
		c0.2,17.2,1,34.5,1.7,51.7c0.2,6-1.1,11.4-5.3,15.9c-3,3.2-4.9,3-7.1-0.7c-5.4-8.9-5.4-9-15.8-7.1C37.9,143.5,33.1,141.5,32,148.2z
		 M58,95.7c-7.4,0.8-14.8,1.5-22.9,2.3c0,12.8,0,25.8,0,39c7.4-1.1,14.7-2.2,22.9-3.5C58,121.4,58,108.6,58,95.7z M58.6,88.9
		c0-9.1,0.1-19.3,0-29.5c0-3-1.6-4.9-4.8-4.5c-4.9,0.6-9.7,1.2-14.6,2.1c-1.1,0.2-2.7,1.7-2.7,2.6c-0.2,10.8-0.1,21.6-0.1,32.4
		C43.4,91,50.7,90,58.6,88.9z"/>
	<path d="M101.3,157.3c-7.1,0-12.4,0.4-17.6-0.1c-5.6-0.6-6.8-2.7-7.1-8.3c-0.4-8.6-1.1-17.2-1.6-25.7c-0.1-1.3,0.1-3.2,0.9-3.9
		c0.7-0.6,2.7-0.2,3.9,0.3c6,2.6,6.9,4.8,5.9,11.7c-0.6,4.3-0.7,8.6-1.1,12.9c-0.3,3.3,1.2,5.5,4.5,5.5c11.4-0.1,23,1.1,33.8-3.9
		c3.9-1.8,11.1,0.7,13,4.6c1.3,2.7-0.5,3.4-2.6,3.7c-7,0.9-13.9,1.9-20.9,2.7C108.2,157.1,103.8,157.1,101.3,157.3z"/>
	<path d="M88.5,139c3.6-4.8,7.5-9.5,10.9-14.4c4.2-6.1,9.1-12,9.4-20c0-0.6,0.7-1.6,0.8-1.6c3.8,1.2,7.9,1.8,11.2,3.8
		c2.8,1.8,0.5,4.1-1.3,5.8c-1.2,1.1-2.3,2.4-3.4,3.6c6,2.8,11.7,5.2,17.2,8c3.5,1.7,5,4.9,4.4,8.8c-0.5,3.6-2.6,5-5.6,2.8
		c-3.8-2.8-7.2-6.2-10.8-9.4c-2.4-2.1-4.6-4.4-7.2-6.8C106.2,127.3,99.5,135.9,88.5,139z"/>
	
	
	
	
</g>
</svg>
