<?xml version="1.0" encoding="utf-8"?>
<!-- Generator: Adobe Illustrator 22.0.0, SVG Export Plug-In . SVG Version: 6.00 Build 0)  -->
<svg version="1.1" id="图层_1" xmlns="http://www.w3.org/2000/svg" xmlns:xlink="http://www.w3.org/1999/xlink" x="0px" y="0px"
	 viewBox="0 0 200 200" style="enable-background:new 0 0 200 200;" xml:space="preserve">
<style type="text/css">
	.st1{fill:#010000;}
	.st4{fill:#fbfafc;}
</style>
<g>
	
	<path d="M74,133.2c1.7-0.5,2.8-1,4-1.2c10.3-1,20.7-1.9,31-2.9c8-0.7,8-0.7,8.1-9.7c-7.3-0.9-15.4,3.1-22.1-2.3
		c-0.1-0.7-0.1-1.3-0.2-2c7.3-1.1,14.6-2.3,21.9-3.4c0.1-8.1-3.3-9.4-8.4-8.7c-4.3,0.6-8.9,0.3-13.3,0c-1.6-0.1-3.1-1.3-5.7-2.5
		c6.1-4.4,12.7-2.1,18.2-4.7c-2.7-5.9-5.4-11.9-8.2-18.3c-6.5,1.3-13.4,4.1-19.5-3.4c9.5-1.3,18.5-2.6,28.1-4
		c-0.9-6.9-1.5-13.7-2.6-20.4c-0.7-4.5-2.3-8.9-3.1-13.4c-0.2-1.1,1.6-3.6,2.2-3.5c3.3,0.5,6.6,1.2,9.5,2.6c1.1,0.5,1.4,3.2,1.5,4.9
		c0.1,9.4,0.1,18.7,0.1,28.7c4.6-0.7,8-1.2,11.9-1.7c0.2-1.8,0.4-3.4,0.4-5.1c0.2-9.6,0.4-19.2,0.4-28.8c0-3-0.5-6.1-1.5-8.9
		c-1.3-3.6,0.7-5,3.2-4.2c3.8,1.2,7.4,3.4,10.8,5.6c0.8,0.6,1,2.9,0.7,4.3c-2,11.6-4.1,23.1-6.4,35.7c8-1.4,15.1-2.3,21.9-4
		c5.5-1.4,10.1,0.3,14.6,3c1,0.6,1.5,1.9,2.2,2.8c-1.1,0.8-2.1,2.2-3.3,2.3c-6.7,0.5-13.4,0.8-20.1,1.1c-2.8,0.1-5.6,0-9.5,0
		c1.9,2.4,2.9,3.7,4.1,5.3c-3.3,4.9-6.6,9.7-10.5,15.3c7.7-1.5,14.7-2.3,21.8,3.1c-9.7,5.3-20.3,2.9-30,6.4c3,2.1,5.7,4.3,1.8,8.7
		c8.7-1.8,16.6-3.4,24.9,2.8c-3.3,1.1-5.4,2.2-7.7,2.6c-3.8,0.7-7.6,1-11.4,1.2c-4.3,0.2-7,1.7-6.3,6.6c0.1,1.1-0.1,2.2-0.3,4.1
		c6.5-0.5,12.8-0.9,19.1-1.5c4.3-0.4,8.6-0.9,12.8-1.6c5.8-0.9,10.3,1.7,14.4,5.2c1,0.9,1.2,2.7,1.7,4.1c-1.3,0.5-2.5,1.4-3.8,1.4
		c-9.1,0-18.2-0.2-27.4-0.1c-5.6,0.1-11.2,0.4-16.7,1c-1.5,0.2-3.4,1.6-4,3c-8.6,19.3-23.8,30.3-43.6,35.9c-1.3,0.4-2.7,0.4-4.3,0.1
		c15.4-9.6,30.6-19.3,38.1-38.1c-7.9,1.4-15,2.5-21.9,4C84.7,142,78.8,139.9,74,133.2z M131.3,72.6c-9.1,1.3-17.6,2.6-26.1,3.9
		c7.8,4.2,11.3,10.1,9.5,18.8c3.1-0.5,5.8-0.8,8.4-1.3c1.5-0.3,3.8-0.6,4.2-1.5C129.8,86.3,133.3,80.3,131.3,72.6z"/>
	<path d="M63.2,69.2c4.9,1.1,8.6,1.8,12.2,3c1.3,0.4,2.1,2.1,3.1,3.2c-1.2,0.9-2.3,2.2-3.6,2.8c-2.6,1.1-5.4,2-8.2,2.6
		c-2.9,0.5-4.1,1.9-4.1,4.8c0.1,4.6,0,9.3,0,14.2c4.5,1.4,9.2,2.8,13.7,4.5c3.5,1.3,4.9,3.7,3.6,7.6c-1.6,5-4,5.9-7.9,2.2
		c-3.1-2.9-5.8-6.2-9.4-10.1c-0.2,2.2-0.3,3.5-0.4,4.9c-0.1,18.2,0,36.5-0.5,54.7c-0.1,4.8-1.5,9.7-3.3,14.3c-1.5,4-3.8,3.9-5.8,0.2
		c-3.1-5.7-4.8-11.4-3.9-18.3c2.5-18.1,4.2-36.3,5.5-54.7c-10.6,15.6-20.9,30.7-39.4,37.3c16.9-16.7,30.2-35.6,38.5-58.1
		c-11-0.2-22.1,6.5-32-1.4c0-0.5,0-1.1-0.1-1.6c11.1-2.2,22.2-4.5,33.5-6.8c-0.3-15.5,1-30.4-4.3-44.8c-1.2-3.2,0.8-5.4,3.8-4.1
		c3.9,1.6,7.7,3.9,11,6.5c1.3,1,1.5,4,1.3,6C65.7,48.8,64.3,59.5,63.2,69.2z"/>
	<path d="M131,142.8c12.3,2.3,23.6,7.2,33.3,15.2c2.8,2.4,4.2,6.5,6.1,9.9c0.4,0.8,0.6,2,0.3,2.8c-0.7,2.3-1.1,5.2-2.7,6.6
		c-0.8,0.8-4.4-0.3-5.9-1.5c-4.9-4.3-9.4-9-14.1-13.6c-5.1-5-10.2-10.1-15.3-15.1c-1-1-1.8-2-2.7-3.1
		C130.4,143.6,130.7,143.2,131,142.8z"/>
	<path d="M141.4,54.7c5.1-6.3,10.1-12.6,15.3-18.8c0.5-0.6,2.2-1,2.8-0.6c3.8,2.4,7.4,5.1,11,7.7c-0.1,0.7-0.3,1.3-0.4,2
		c-9.5,3.6-19,7.1-28.6,10.7C141.5,55.3,141.4,55,141.4,54.7z"/>
	<path d="M85.6,49.4C90,51,94.7,52.3,99,54.5c3.2,1.6,3.5,6.4,1.1,8.7c-2.8,2.8-5.7,1.7-7.9-0.9c-2.9-3.4-5.4-7.3-8.1-10.9
		C84.6,50.7,85.1,50.1,85.6,49.4z"/>
	
</g>
</svg>
