<?xml version="1.0" encoding="utf-8"?>
<!-- Generator: Adobe Illustrator 22.0.0, SVG Export Plug-In . SVG Version: 6.00 Build 0)  -->
<svg version="1.1" id="图层_1" xmlns="http://www.w3.org/2000/svg" xmlns:xlink="http://www.w3.org/1999/xlink" x="0px" y="0px"
	 viewBox="0 0 200 200" style="enable-background:new 0 0 200 200;" xml:space="preserve">
<style type="text/css">
	.st1{fill:#010000;}
	.st4{fill:#fbfafc;}
</style>
<g>
	
	<path d="M153.9,140.5c5.3-0.5,9.7-0.3,13.8-1.3c6.3-1.6,11.1,0.7,15.3,4.7c1.7,1.6,2.1,4.5,3.2,6.8c-2.4,0.6-4.9,1.8-7.3,1.8
		c-3.5-0.1-6.9-1.3-10.4-1.5c-30.3-1.8-60.4-0.3-89.9,7.4c-7.6,2-16.1-1.4-20.3-9.3c9.2-0.8,17.9-1.5,27.1-2.3
		c-1-8.6-2-17.1-3.1-25.6c-0.7-5.2-1.2-10.5-2.6-15.6c-1.1-4.1-3.4-7.8-5.1-11.7c-0.5-1.1-0.8-2.2-1.2-3.3c1.3-0.4,2.6-1.2,3.8-1.1
		c4.9,0.2,9.8,0.9,14.7,0.8c1.6,0,4-1.6,4.7-3.1c6.7-14.7,13.7-29.3,15.7-45.6c0.3-2.7,1.6-3.5,3.8-2.8c2.6,0.8,5.2,1.7,7.5,3
		c5.7,3.2,5.7,5.1,1.8,10.3c-3.1,4-5.5,8.6-8.3,12.9c-5.2,8-10.5,15.9-16.3,24.6c12.8-2.1,25-4,37.2-6.1c3.3-0.6,6.6-1.2,9.8-2.4
		c7.1-2.6,13-0.3,18,4.4c1.3,1.2,2,4.3,1.6,6.1C163,107.6,158.5,123.7,153.9,140.5z M143.6,141.5c0.7-3.2,1.5-5.9,2-8.7
		c2.3-12.7,4.5-25.4,6.6-38.2c0.6-3.5-1-5.6-4.8-5.2c-3.6,0.3-7.1,0.7-10.1,1.1c0.5,2.4,1.7,4.6,1.3,6.4
		c-2.5,10.9-5.2,21.7-8.1,32.5c-1.2,4.5-3,8.9-4.6,13.8C132.2,142.6,138,142.1,143.6,141.5z M88.2,96.7c2,16.8,3.9,33,5.8,49.5
		c4.3-0.4,8.5-0.8,12.7-1.2c-0.8-10.2-1.3-20.1-2.4-29.9c-0.6-5.4-1.7-10.7-3-15.9c-0.3-1.3-2.2-2.9-3.5-3
		C95,95.8,91.9,96.4,88.2,96.7z M111.2,94.2c0.4,3.8,0.9,7.3,1,10.8c0.5,13,0.9,26.1,1.4,39.5c3.6-1.4,8.8,1.7,9.4-5
		c0.8-9.7,2-19.4,2.7-29.1c0.4-6,0.1-12,0.1-18.4C120.2,92.9,115.2,93.7,111.2,94.2z"/>
	<path d="M64.7,104.5c-0.6,2.5-0.9,5.2-1.9,7.6c-5.7,14-11.7,28-17.5,42c-1.1,2.6-1.8,5.5-3,8c-1.4,3.1-4.2,3.8-5.8,0.7
		c-2.6-5.2-4.6-10.8-6.4-16.4c-0.3-1.1,0.8-3.3,1.9-4c12.9-8.6,19.7-21.9,27.5-34.6c0.9-1.5,2.2-2.7,3.4-4.1
		C63.5,103.9,64.1,104.2,64.7,104.5z"/>
	<path d="M50.8,42.2c8.2-0.2,15.6,1.5,21.7,6.4c3.3,2.6,3.9,6.9,2.6,11c-1.2,3.6-4,5-7.1,3.3C59.6,58.2,55.5,50.1,50.8,42.2z"/>
	<path d="M29.7,78.2c6.5-0.2,12.7,1.9,18.2,5.1c2.7,1.5,5,5,5.7,8c0.6,2.4-0.7,6.2-2.5,7.9c-2.5,2.3-5.9,0.7-8-1.8
		c-5-5.7-9.8-11.6-14.7-17.4C28.9,79.4,29.3,78.8,29.7,78.2z"/>
	
	
	
</g>
</svg>
