<?xml version="1.0" encoding="utf-8"?>
<!-- Generator: Adobe Illustrator 22.0.0, SVG Export Plug-In . SVG Version: 6.00 Build 0)  -->
<svg version="1.1" id="图层_1" xmlns="http://www.w3.org/2000/svg" xmlns:xlink="http://www.w3.org/1999/xlink" x="0px" y="0px"
	 viewBox="0 0 200 200" style="enable-background:new 0 0 200 200;" xml:space="preserve">
<style type="text/css">
	.st1{fill:#010000;}
	.st4{fill:#fbfafc;}
</style>
<g>
	
	<path d="M56.8,128.4c25.1-3.6,49.3-7,74.1-10.5c-1-3.1-2.1-5.4-2.3-7.9c-0.1-1.3,1.4-3.7,2.4-3.8c5.8-0.9,12.3,3.7,13.7,9.4
		c6.2-1.2,12.5-2.3,18.7-3.5c7-1.4,13,0.3,18.1,5.1c1,0.9,1.4,2.4,2,3.6c-1.2,0.7-2.4,1.8-3.6,1.9c-8.3,0.6-16.6,1-24.9,1.5
		c-4.1,0.3-8.2,0.7-12.3,1.1c0,6.9,0.1,13.4,0,19.9c-0.1,9.6-0.1,19.1-0.6,28.7c-0.2,5.1-3.6,8.8-7.6,11.7c-2.5,1.8-5.1,1.9-7.4-0.5
		c-5.6-5.7-11.1-11.5-16.6-17.2c-0.5-0.5-0.7-1.3-1.6-3.1c4.6,1,8.3,1.7,11.9,2.5c8.3,1.7,10.1,0.8,10.5-7.4c0.5-11,0.1-22,0.1-33.7
		c-8.2,1.1-16.4,1.9-24.5,3.3c-10.9,1.8-21.7,4-32.5,6C68.4,136.4,61.4,134,56.8,128.4z"/>
	<path d="M133.5,48.1c-15.2,2.1-29.9,4.1-44.6,6.3c-5.2,0.8-10-0.6-14.4-5.3c7.1-1,13.6-1.8,20.2-2.7c12.7-1.7,25.3-3.2,38-5.1
		c1.3-0.2,3-2.1,3.4-3.6c0.6-2,0.1-4.4,0.1-7.6c-6.2,0.7-12.2,1.3-18.1,2c-7.8,0.9-15.5,2.1-23.3,2.9c-4.5,0.5-6.4-0.6-9.3-4.7
		c8.6-1.1,17.2-1.7,25.6-3.2c7.5-1.3,15.1-3,22.2-5.5c6.7-2.3,11.9,0,17.1,3.2c3.1,1.9,2.8,4.7,0.9,7.5c-1.2,1.8-2.4,3.6-4.3,6.5
		c7.9-1.2,14.1,0,18.7,7c-2.4,0.6-4,1.1-5.6,1.3c-2.4,0.2-4.8,0.1-7.2,0.3c-11,0.7-8.5-1.2-11.3,8.9c-0.7,2.4,1.2,5.5,2.1,8.9
		c-1,0.3-2.8,0.9-4.5,1.1c-14.7,1.7-29.5,3.1-44.2,5c-5.5,0.7-10-0.6-15-4.7c3-0.7,5.1-1.4,7.3-1.8c12.8-2.1,25.5-4,38.3-6.1
		C132.7,57.6,133.3,56.8,133.5,48.1z"/>
	<path d="M124.1,105.1c-6.5-6.5-1.2-18.8-10.2-25.3c0.2-0.4,0.4-0.8,0.6-1.2c1.7-0.1,3.6-0.8,5-0.2c4.1,1.9,8.1,1,12.1,0
		c7-1.6,13.9-3.3,20.9-5c2.8-0.7,12.6,4.3,13.3,7.1c0.3,0.9-0.4,2.4-1.1,3.3c-2.5,3.5-5.5,6.7-7.8,10.3c-1,1.5-0.9,3.8-1.6,6.9
		c-6.4,0.5-14.4,1-22.4,1.8C130.4,103.2,128,104.2,124.1,105.1z M126.7,85.2c0.6,4.5,1.1,8.2,1.6,12c6.3-0.8,11.6-1.4,17-2.1
		c0.8-0.1,2.1-0.6,2.3-1.2c1.1-3.8,2-7.8,3.2-13C141.9,82.5,134.5,83.8,126.7,85.2z"/>
	<path d="M61.1,99.6c-0.8,3-1.2,6.1-2.3,9c-6,15.6-12.1,31.2-18.2,46.9c-1.2,3.1-2,6.4-3.3,9.5c-1.3,3.1-4.1,3.9-5.7,0.8
		c-2.7-5.3-4.6-11.1-6.4-16.8c-0.4-1.1,0.6-3.3,1.7-4.1c14-10.7,20.7-26.5,28.8-41.3c1-1.7,2.2-3.3,3.3-5
		C59.7,98.9,60.4,99.2,61.1,99.6z"/>
	<path d="M71.4,87.9c6.8-1.4,12.7-2.5,18.6-3.9c3.4-0.8,6.8-1.8,10.1-2.9c4.1-1.2,8,0.2,11,4.7c-3.2,1-6.1,2.1-9.1,2.7
		c-3.4,0.7-5.5,1.9-5.2,5.9c0.2,2.6-0.4,5.3-0.7,8.3c6.3-1.2,12.1-2.3,17.8-3.3c0.3,0.8,0.6,1.5,0.9,2.3c-1.3,0.9-2.6,2.1-4,2.7
		c-10.2,4.2-20.4,8.2-30.6,12.2c-0.9,0.4-2.3,0.5-3.2,0.1c-4.3-2.1-8-5-10.3-10.3c7.2-0.3,13.9-0.6,20.8-0.9
		c0.3-5.1,0.6-9.4,0.9-13.8C82.5,91.2,76.6,93.6,71.4,87.9z"/>
	<path d="M36,34.4c3.3,0,5.1-0.4,6.6,0.1c4.7,1.5,9.4,3.1,14,4.9c5.6,2.2,7.3,6.9,7.1,12.4c-0.2,5.9-4.9,8.3-9.6,4.8
		c-3.2-2.5-6-5.8-8.6-9C42.4,43.8,39.7,39.7,36,34.4z"/>
	<path d="M19.8,71.3c1.3-0.1,2.7-0.6,3.9-0.2c5.8,1.7,11.6,3.3,17.2,5.4c4,1.5,5.8,5.2,5.7,9.1c-0.1,2.4-1.1,5.8-2.9,6.8
		c-1.7,1-5.8,0.5-7.3-0.9c-6.2-5.8-11.8-12.2-17.6-18.5C19.2,72.5,19.5,71.9,19.8,71.3z"/>
	<path d="M108.3,148.9c-1.8,2.7-2.8,5.7-4.6,6.3c-1.8,0.6-5.2-0.5-6.6-2c-3.6-4-6.7-8.5-9.7-13c-1.7-2.5-0.4-3.9,2.2-3.2
		c4.6,1.2,9.3,2.4,13.5,4.6C105.2,142.9,106.3,146.1,108.3,148.9z"/>
	
</g>
</svg>
