<?xml version="1.0" encoding="utf-8"?>
<!-- Generator: Adobe Illustrator 22.0.0, SVG Export Plug-In . SVG Version: 6.00 Build 0)  -->
<svg version="1.1" id="图层_1" xmlns="http://www.w3.org/2000/svg" xmlns:xlink="http://www.w3.org/1999/xlink" x="0px" y="0px"
	 viewBox="0 0 200 200" style="enable-background:new 0 0 200 200;" xml:space="preserve">
<style type="text/css">
	.st1{fill:#010000;}
	.st4{fill:#fbfafc;}
</style>
<g>
	
	<path d="M172.5,76.6c-4.5,0.5-8.4,0.9-12.3,1.3c-26.1,2.5-52.1,4.9-78.2,7.4c-5.9,0.6-10.7-1.7-15-5.1c0-0.6,0.1-1.1,0.1-1.7
		c10.6-1.3,21.3-2.6,32.6-4c-3.1-7.9-6.2-15.5-8.8-22.1c-3.9-1.9-7.1-3.4-10.4-4.9c0.1-0.6,0.3-1.2,0.4-1.9
		c10.3-1.4,20.6-2.8,31.3-4.2c-3.7-6-7.3-11.8-10.9-17.6c10.2-4.4,20.5,4,19.9,15.8c4.4-1,8.8-1.7,12.9-3.1c5-1.8,9.1,0.2,13.1,2.6
		c2.8,1.7,2.4,3.7-0.7,4.6c-3.9,1.2-7.9,2-12.3,3.2c1.2,1.1,2.1,1.9,3.1,2.7c2.1,1.8,2.7,3.4,0.7,6.1c-3.6,4.8-6.6,10.1-10,15.5
		c9.7-1.4,19-2.8,28.3-4.1C162.3,66.3,169,69.9,172.5,76.6z M105.3,73.8c2.4-0.2,4-0.3,5.6-0.5c10.2-0.8,10.3-0.8,13-10.6
		c1.3-4.7,3-9.4,0.6-14.3c-10.3,1.1-20.4,2.2-31,3.3C101.9,56.6,109.5,61.9,105.3,73.8z"/>
	<path d="M93.4,132.9c-1.3-3.1-3-6.1-3.7-9.3c-1.4-6.7-1.9-13.6-3.4-20.3c-0.7-3.3-2.8-6.3-4.2-9.5c-0.4-0.9-1.3-2.2-1-2.7
		c0.4-0.7,1.9-1.5,2.8-1.3c17,3.8,32.8-1.7,48.9-5.7c5.8-1.4,16.8,2.7,20,7.7c0.6,0.9,0.9,2.5,0.5,3.5c-3,9.2-6.2,18.4-9.4,27.5
		c-0.6,1.6-1.2,3.4-2.3,4.7c-1.7,1.7-3.6,3-6.3,0.9c-1.6-1.2-4.1-2.2-6.1-2.1c-9.9,0.6-19.8,1.5-29.6,2.6
		C97.9,129.2,96.3,131.1,93.4,132.9z M95.7,107c2.5-0.2,4.5-0.5,6.5-0.6c11.5-0.5,22.5-6.2,34.2-2.5c2.5-10.3,1.5-11.5-8.5-10.6
		c-0.5,0-1,0-1.4,0.1c-10.4,1.2-20.8,2.5-31.7,3.8C95.1,100.3,95.4,103.4,95.7,107z M136.3,108.7c-13.5,1.4-26.4,2.8-39.6,4.2
		c0.2,2.9,0.4,6.2,0.7,10.1c12.5-1.4,24.5-2.7,37.1-4.1C135,116.3,135.6,112.9,136.3,108.7z"/>
	<path d="M143.1,149c4.2,3.2,8.2,6.4,12.5,9.4c2.6,1.8,5.5,3.2,8.3,4.8c4.6,2.8,4.8,6.2,0.4,9.3c-8.7,6-18.7,7.4-28.8,7
		c-6.4-0.3-13-1.6-19.2-3.5c-11.9-3.5-19.2-12-23.2-23.6c-1.5-4.3-3-8.7-4.6-13.3c4.1-1.1,6.6,0.7,7.2,4.2
		c4.3,23.4,29.4,28.2,46.1,23.4c5.9-1.7,6.3-2.4,4.1-8c-1.2-3.1-2.5-6-3.8-9.1C142.4,149.4,142.8,149.2,143.1,149z"/>
	<path d="M64.7,105.7c-0.5,2.9-0.5,5.1-1.2,7.1c-3.3,8.8-6.8,17.6-10.2,26.4c-3.7,9.7-7.4,19.4-11.1,29.1c-0.5,1.2-0.9,2.4-1.4,3.6
		c-2.1,4.2-4.8,4.6-6.9,0.6c-2.4-4.6-4.2-9.7-5.6-14.7c-0.4-1.6,0.5-4.5,1.8-5.5c13.3-9.8,19.9-24.4,27.7-38.1c1.3-2.4,2.6-4.8,4-7
		C62,106.4,63,106.3,64.7,105.7z"/>
	<path d="M41.8,35.6c12.2-1.9,26.1,6.4,27.8,15.3c0.6,3.4,0.9,7-2.7,8.9c-3.5,1.9-6.4-0.4-8.4-2.8C53.1,50.3,47.9,43.4,41.8,35.6z"
		/>
	<path d="M77.6,140c1,3.9,3.4,8,2.7,11.5c-1.2,6.7-3.8,13.3-6.7,19.6c-0.9,1.9-5,3.9-6.9,3.3c-1.9-0.6-3.3-4.2-4-6.7
		c-0.5-1.8,0.1-4.3,1-6c3.9-7.2,8.2-14.2,12.3-21.3C76.7,140.3,77.1,140.1,77.6,140z"/>
	<path d="M25.9,76.7c8.5-0.1,16.1,1.9,22.6,6.7c3.8,2.7,4.4,7.4,3.1,11.8c-1.1,3.9-4.5,4.4-7.3,2.8C35.9,93.1,31,84.9,25.9,76.7z"/>
	<path d="M150.2,130.8c9.9,1.8,18.6,3.9,25.4,10.3c3.2,3,2.5,7.2,0.3,10.6c-0.7,1.1-3.8,1.7-5.1,1.1c-2.3-1.1-4.3-3.2-6.2-5.1
		c-4.3-4.4-8.5-9-12.7-13.6C151.4,133.4,151.1,132.5,150.2,130.8z"/>
	<path d="M111.8,134.8c6.8,0.6,13.5,2.1,18.7,6.7c1.8,1.6,2.6,5.1,2.7,7.8c0.2,4.8-4.3,7.2-7.7,4c-5.5-5.1-10.1-11.1-15.1-16.7
		C110.9,136,111.3,135.4,111.8,134.8z"/>
	
	
	
</g>
</svg>
