<?xml version="1.0" encoding="utf-8"?>
<!-- Generator: Adobe Illustrator 22.0.0, SVG Export Plug-In . SVG Version: 6.00 Build 0)  -->
<svg version="1.1" id="图层_1" xmlns="http://www.w3.org/2000/svg" xmlns:xlink="http://www.w3.org/1999/xlink" x="0px" y="0px"
	 viewBox="0 0 200 200" style="enable-background:new 0 0 200 200;" xml:space="preserve">
<style type="text/css">
	.st1{fill:#010000;}
	.st4{fill:#fbfafc;}
</style>
<g>
	
	<path d="M82.9,112.9c0,5.1,0,9.5,0,14.2c2.2-0.4,4.4-0.7,6.5-1.4c5-1.6,9.1-0.1,12.9,3c1,0.8,1.5,2.2,2.3,3.4
		c-1.2,0.6-2.4,1.5-3.6,1.7c-6,0.6-12.1,1-17.8,1.4c-2.8,14.3,0.9,29.1-6.3,42.6c-5.9-4.8-7.4-11.3-6-17.3
		c1.8-7.7,2.7-15.5,4.1-23.6c-10.9-0.2-20.9,7.8-30.8-2.3c7.2-1.3,13.6-2.5,20-3.6c0.6-0.1,1.3-0.2,1.9-0.3
		c8.8-1.7,8.8-1.7,7.1-10.7c-1.2-6.8-5.2-8.2-11.9-3c-1.3-3.3-2.9-6.1-3.4-9.1c-1.1-5.8-1.2-11.8-2.3-17.6c-1-4.9-2.9-9.6-4.7-15.2
		c6.8,0,14.4,0,22.5,0c0.3-5.6,0.6-10.2,0.8-14.9c-5.4-1.4-11.8,1.5-15.9-5.2c4.6-0.7,8.6-1.5,12.7-2c2.8-0.4,4.1-1.6,4-4.6
		c0-3.8,0.7-7.7,0.6-11.5c-0.2-3.4-0.8-6.9-1.9-10.1c-1.2-3.6-0.4-5.4,3.3-5.1c2.2,0.2,4.3,0.9,6.5,1.5c4.1,1.2,5.4,3.7,4.5,8
		C86.9,37,86.4,43,85.6,49.7c2.7-0.9,4.7-1.3,6.5-2.2c4-2.1,7.5-0.3,10.8,1.5c0.8,0.4,1.7,1.8,1.7,2.6c-0.1,0.8-1.3,1.8-2.2,2
		c-4.6,1.3-9.2,2.6-13.9,3.5c-2.9,0.6-4.5,1.6-4.7,4.8c-0.2,3.3-0.8,6.6-1.3,10.7c4.8-1.1,9.1-1.9,13.3-3.1c5.7-1.6,9,2.4,12.5,5.3
		c3.4,2.8,0.4,5.8-0.7,8.6c-3,8.1-6,16.2-8.8,24.3c-1.5,4.2-2.6,8-8.6,5C88.3,111.8,85.5,112.8,82.9,112.9z M94.2,88.7
		c0.3-2.2,0.9-5.3,0.9-8.4c0-1.1-2-3.1-2.9-3c-9,1.1-18,2.4-26.9,4c-0.9,0.2-2.2,1.9-2.2,2.9c-0.1,2.8,0.5,5.6,0.8,8.6
		C73.9,91.5,83.6,90.2,94.2,88.7z M64.2,98.8c0.2,3,0.5,5.9,0.8,9c9-0.6,17.4-1.1,26.6-1.7c0.4-2.3,1-6,1.7-10.3
		C83.4,96.8,74.2,97.8,64.2,98.8z"/>
	<path d="M131.8,119c-0.6-5.1-1.2-9.9-1.8-14.5c-5.3-1.1-10.8,0.5-14.1-5.4c6.2-1.3,12-2.3,17.6-3.6c4.3-1,8.6-2.3,12.9-3.6
		c4.6-1.4,9.8,0.3,13.5,5.4c-3.1,1.1-6,2.2-8.9,3c-3,0.9-6.1,1.5-9.9,2.4c6.7,4.1,1.3,8.9,1.6,14.3c5.3-1.1,10.6-1.9,15.7-3.2
		c6.1-1.6,11,1.1,15.7,4.1c2.6,1.7,1.8,3.7-0.9,4.3c-3.9,0.8-7.9,1.1-11.8,1.4c-6.2,0.4-12.4,0.7-18.7,1c-2.5,20.8,2,41.9-6.9,61.3
		c-0.7,0.1-1.4,0.1-2.1,0.2c-0.6-3.3-1.8-6.5-1.8-9.8c-0.3-14.7-0.2-29.4-0.3-44.1c0-1.7,0-3.4,0-5.4c-8.8-0.2-18,6-26.2-3.5
		C114.3,121.8,122.7,120.4,131.8,119z"/>
	<path d="M105,99.5c4-7.8,8.6-15.3,11.8-23.3c4.6-11.5,8.4-23.4,12.2-35.2c1.1-3.4,0.8-7.3,1.2-10.9c0.4-4.2,1.8-4.9,5.6-3
		c6.9,3.4,8.5,7.1,5.6,14.1c-1.3,3.2-0.9,5.4,1.2,8.2c11.3,15.3,24.5,28.2,42.1,36.1c1,0.5,2,1.1,2.9,1.7c0.4,0.2,0.5,0.7,1.2,1.6
		c-8.5,3.3-17,4.8-25.7,3.1c-1.6-0.3-3.2-2.6-4.2-4.3c-7.1-11.2-14-22.5-21.4-34.5c-0.9,2.1-1.6,3.5-2.3,5.1
		c-5.4,13.4-11.8,26.3-22.1,36.7c-2.1,2.1-4.7,3.8-7.1,5.7C105.6,100.2,105.3,99.9,105,99.5z"/>
	<path d="M30.1,170.6c-5.3-3.7-6.1-8.9-8.1-13.4c-2.4-5.5,0-9.1,2.7-13.9c6.4-11.5,11.3-23.9,16.7-35.9c0.7-1.6,1.5-3.2,2.2-4.8
		c0.5,0.1,1,0.2,1.4,0.3c0,1.9,0.4,3.9-0.1,5.7c-4.3,19.3-8.8,38.5-13.2,57.8C31.4,167.6,30.8,168.7,30.1,170.6z"/>
	<path d="M25.1,40.5c11.1-3.4,25.1,5.9,24.6,15.2c-0.1,2.2-1.6,5.3-3.3,6.1c-1.7,0.8-5.3-0.2-6.6-1.7C34.7,54,30.2,47.5,25.1,40.5z"
		/>
	<path d="M13.5,80c9.3-2.5,22.3,4.3,23.6,11.4c0.6,3.4,0.6,6.9-3,8.8c-3.4,1.8-6-0.3-7.9-2.8C21.9,91.9,17.9,86.1,13.5,80z"/>
	
	
</g>
</svg>
