<?xml version="1.0" encoding="utf-8"?>
<!-- Generator: Adobe Illustrator 22.0.0, SVG Export Plug-In . SVG Version: 6.00 Build 0)  -->
<svg version="1.1" id="图层_1" xmlns="http://www.w3.org/2000/svg" xmlns:xlink="http://www.w3.org/1999/xlink" x="0px" y="0px"
	 viewBox="0 0 200 200" style="enable-background:new 0 0 200 200;" xml:space="preserve">
<style type="text/css">
	.st1{fill:#010000;}
	.st4{fill:#fbfafc;}
</style>
<g>
	
	<path d="M73.5,176.8c15.2-11.6,28-24.8,33.9-44.3c-8.2,1.9-16.5,5.3-23.1-4c6.2-0.8,11.8-1.5,17.4-2.3c8.7-1.2,10.9-4.3,9.5-13.2
		c-0.3-1.7,0.1-3.6,0.2-5.4c2.1,0.3,4.2,0.4,6.2,0.8c1.1,0.2,2,1,3,1.5c3.9,1.9,5.7,4.5,3,8.7c-0.6,1-0.7,2.3-1.3,4.4
		c6.1-1.5,11.5-2.7,16.8-4.1c4.4-1.1,14.5,4.1,15.9,8.4c0.2,0.7,0.3,1.7-0.1,2.2c-6.4,8.7-5.2,19.6-8.2,29.2
		c-1.9,5.9-4.1,11.7-6.7,17.3c-1,2.2-3.3,3.9-5.3,5.4c-5.5,3.8-7.4,3-11-2.6c-3.1-5-6.6-9.8-10.3-15.2c3.9,1.5,7.4,2.6,10.8,4.1
		c3.6,1.5,6.2,0.4,8-2.8c5.6-10.2,8.1-21.1,7.9-32.6c0-1.4-2.7-3.9-4.2-3.9c-5.1,0-10.2,0.6-15.2,1.5c-1.2,0.2-2.3,2.3-3,3.8
		c-6.4,13.9-13.6,27.2-26.8,36C85.7,173.2,80.3,176.4,73.5,176.8z"/>
	<path d="M145.3,52.4c3.5-5.2,7.4-10.1,10.4-15.5c2.1-3.7,4.1-4,7.1-1.8c0.7,0.5,1.4,0.8,1.9,1.4c1.8,2.3,3.5,4.7,5.2,7
		c-2.2,1.5-4.3,3.3-6.7,4.5c-6.1,3.1-12.4,5.8-18.5,9c-1.3,0.7-1.9,2.6-2.7,3.7c6.9,3.6,13.4,6.6,19.4,10.4
		c4.5,2.8,5.5,7.6,3.9,12.2c-1.3,3.7-3.7,4.6-6.5,2.2c-3.5-3-6.5-6.5-9.6-9.9c-2.7-2.9-5.2-5.9-8.4-9.4c-5,15-16,21.5-30,24.3
		c1.3-1.1,2.6-2.2,4-3.1c12.1-8,18-19.7,19.3-33.7c0.6-7.2-0.3-14.6-0.7-21.9c-0.1-1.5-1.2-2.9-1.7-4.4c-0.4-1.1-0.7-2.2-1-3.3
		c1-0.3,2.2-0.9,3.1-0.7c3.1,0.7,6.2,1.3,9.1,2.6c2.9,1.2,3.6,2.9,2.6,6.7c-1.7,6.1-1.7,12.7-2.4,19.1
		C143.9,51.8,144.6,52.1,145.3,52.4z"/>
	<path d="M80.8,108c-1.8,5.8-3.2,11-5.2,16c-0.6,1.6-3.5,3.9-4.1,3.5c-1.8-1-3.3-3-4.4-4.9c-0.5-0.9-0.3-2.6,0.1-3.7
		c2.4-7.6,5-15.1,7.5-22.9c0.6,0.2,1.5,0.2,1.7,0.6c1.8,4.5,5.1,4.3,9.3,3.7c23.9-3.5,47.8-6.7,71.6-10.1c10-1.4,17.3,4,24.4,9.7
		c0.5,0.4-0.1,4-1,4.4c-9.1,4.1-18.4,7.8-28.2,11.8c2.9-5.1,5.6-9.9,8.8-15.5c-2.5-0.5-4.1-1.2-5.7-1c-22.5,2.5-45.1,5.1-67.6,7.7
		C85.4,107.7,82.9,107.8,80.8,108z"/>
	<path d="M70.4,91.3c9.9-7.5,17-16.6,18.9-29c1.8-11.5,3.3-23-2.3-34.1c3.3-2.2,12.5-0.3,14.1,3.3c0.3,0.7,0.1,1.8-0.1,2.7
		c-0.9,6-1.9,12-2.9,18c0.6,0.2,1.2,0.4,1.8,0.6c3.1-5.2,6.3-10.4,9.5-15.7c0.1,0,0.5-0.1,0.7,0c3,2.3,5.9,4.6,8.9,6.9
		c-2.4,2.3-4.7,4.9-7.4,6.9c-3.2,2.4-6.7,4.5-10.3,6.2c-3.3,1.5-4.1,4.2-3.6,7c0.2,1.3,2.7,2.4,4.4,3.4c2.5,1.5,5.3,2.4,7.5,4.2
		c1.5,1.2,3.3,3.4,3.2,5c-0.2,2.6-1.8,5.1-2.8,7.7c-2-1-4.4-1.7-5.8-3.2c-2.9-3.1-5.2-6.8-8.4-10.9C91.1,82.3,82.3,88.7,70.4,91.3z"
		/>
	<path d="M58.7,99.4c-0.4,2.3-0.5,4.7-1.2,6.9c-6.3,18.9-12.7,37.8-19.3,56.7c-0.5,1.5-2.1,2.7-3.2,4c-1.3-1.1-3.2-1.9-3.8-3.3
		c-2-4.3-3.9-8.8-5.1-13.4c-0.5-2,0.2-5.3,1.7-6.5c10.4-8.5,15.8-20.4,21.8-31.8c2-3.7,3.5-7.5,5.4-11.2c0.4-0.8,1.5-1.3,2.3-2
		C57.9,99,58.3,99.2,58.7,99.4z"/>
	<path d="M64.1,53.5c-1.7,2.8-2.6,6.2-4.4,6.8c-2.2,0.7-6-0.2-7.6-1.9c-5.1-5.7-9.6-11.9-14.1-18.1c-1.9-2.5,0.1-3.9,2.3-3.2
		c6.2,2,12.5,3.9,18.1,7.1C61.1,45.6,62.1,50,64.1,53.5z"/>
	<path d="M19.5,70.2c8.3,0.4,16.5,1.9,22.8,7.5c2.2,2,2.6,7,2.4,10.5c-0.3,3.7-5.6,5.3-8.9,2.3C29.6,84.9,24,78.4,18.1,72.3
		C18.6,71.6,19.1,70.9,19.5,70.2z"/>
	<path d="M69,46.6c9.9,0.5,16,6.1,15.3,12.9c-0.2,1.7-1.7,4.2-3.1,4.6c-1.3,0.4-4.1-0.9-4.9-2.3C73.7,57.3,71.7,52.3,69,46.6z"/>
	<path d="M114.2,52.3c7-0.4,12.6,2.2,12.9,6.3c0.2,2.4-1.6,4.9-2.6,7.4c-1.8-1.1-4.1-1.9-5.2-3.5C117.3,59.5,116,56,114.2,52.3z"/>
</g>
</svg>
