<?xml version="1.0" encoding="utf-8"?>
<!-- Generator: Adobe Illustrator 22.0.0, SVG Export Plug-In . SVG Version: 6.00 Build 0)  -->
<svg version="1.1" id="图层_1" xmlns="http://www.w3.org/2000/svg" xmlns:xlink="http://www.w3.org/1999/xlink" x="0px" y="0px"
	 viewBox="0 0 200 200" style="enable-background:new 0 0 200 200;" xml:space="preserve">
<style type="text/css">
	.st0{fill:#FFFFFF;}
</style>
<g>
	
	<path d="M105.1,82.9c6.1-1,11.1-1.8,17-2.8c-0.8-9.2-1.6-18.1-2.4-27.1c-0.1-1.4-0.6-2.8-0.7-4.2c-0.2-2.5-2.8-6,1.6-7.2
		c4.7-1.2,10.4,3,10.4,7.3c0.1,8.2,0,16.3,0,24.5c0,1.7,0,3.5,0,5.9c6.5-0.7,12.5-1.3,18.8-2c-0.6-12.8,3.6-25-1-37.1
		c-1-2.7,1-4,3.4-3.9c5.9,0.3,10.7,3.1,14.3,7.7c0.8,1,0.5,3,0.2,4.5c-1.8,8.5-3.8,17-5.6,24.7c6.3,0.7,11.8,1.1,17.3,2
		c1.9,0.3,3.9,1.6,5.4,3c1.2,1,1.7,2.8,2.5,4.3c-1.5,0.7-3,1.9-4.6,1.9c-7,0.2-14,0.1-21.6,0.1c-1.3,9.5-2.7,18.8-3.6,28.2
		c-0.2,1.6,1.8,3.4,3.2,5.9c-2,0.2-3.7,0.3-5.3,0.5c-7.6,0.7-15.3,1.3-22.9,2c-0.3,0-0.7,0-0.9,0.1c-1.6,0.7-3.2,1.5-4.9,2.3
		c-1.2-3-3.4-6-3.6-9.1c-0.5-7,0-14.1,0.1-21.1c0-1.9,0-3.7,0-6.4c-5.4,1.2-10,2.2-14.6,3.5c-0.9,0.3-1.9,2-1.9,3.1
		c0.5,16,1.2,31.9,1.8,47.9c0.1,2.9,1.7,3.3,4.1,3.1c12.2-1.2,24.5-2.4,36.7-3.6c6-0.6,12.1-1.8,18.1-1.3c4,0.3,7.9,2.7,11.5,4.7
		c1.1,0.6,1.9,3.3,1.4,4.5c-0.5,1.1-2.8,2.1-4.2,2.1c-8.8-0.2-17.6-1.1-26.4-0.9c-11.5,0.3-22.9,1.3-34.4,2.3
		c-2.3,0.2-4.4,1.8-6.7,2.5c-2.5,0.8-6.7,2.7-7.4,1.8c-2.4-2.8-4.9-6.6-5-10.2c-0.2-7.8,1.3-15.6,1.6-23.4
		c0.3-9.4,0.1-18.9,0.1-27.8c-5.8-2.5-11.2-4.8-16.6-7.1c0.1-0.8,0.3-1.7,0.4-2.5c5-0.6,10-1.1,15.5-1.8c-1.4-8.5-0.7-17-4.9-24.9
		c-0.8-1.5-0.5-3.6-0.7-5.4c1.9-0.2,3.9-0.6,5.8-0.4c1.7,0.2,3.3,1,4.9,1.7c5.7,2.5,6.1,3.8,5.2,9.9
		C105.9,70.5,105.7,76.4,105.1,82.9z M149.2,84.7c-5.6,0.4-10.3,0.6-15.1,1.3c-1.1,0.2-2.9,1.7-2.9,2.7c-0.2,8.2-0.1,16.5-0.1,25.4
		c6-1.1,10.9-1.9,16.1-2.8C147.8,102.4,148.5,93.9,149.2,84.7z"/>
	<path d="M16.6,142.1c9.2-2.7,18.3-5.5,27.5-8c3-0.8,4-2.2,3.9-5.3c-0.2-9.4-0.1-18.8-0.1-28.8c-2.4,0.3-3.9,0.5-5.4,0.6
		c-2.7,0.2-5.5,0.8-8.1,0.2c-2.7-0.6-5.1-2.4-7.7-3.7c2.3-0.9,4.6-2.4,7-2.7c14.3-2,14.9-2.6,13.8-17c-0.2-3-0.1-6.1-0.3-9.1
		c-0.4-6.1-2.5-7.5-8.4-7.1c-3.6,0.3-7.3,0-10.9-0.6c-1.9-0.3-3.5-2-5.3-3c0.1-0.5,0.3-1.1,0.4-1.6c3.7-0.6,7.4-0.9,11-1.7
		c11.7-2.5,23.3-5.5,35.1-7.4c3.5-0.6,7.7,1.3,11.1,3c2.4,1.2,1.2,3.4-1.1,4c-5.2,1.4-10.5,2.6-15.8,3.9c-1.5,0.4-3.1,0.7-3.6,0.8
		c0.3,3.3,0.9,6.1,0.8,8.9c-0.3,7-0.9,13.9-1.4,21.4c7.9-2.3,14.6-2,21.5,3c-6.7,5.2-14.7,3.1-21.7,6.2c-0.4,10-0.9,20.3-1.4,31
		c9.6-1.7,17.8-7.1,27.1-8.1c0.2,0.5,0.5,1,0.7,1.5c-1.2,1-2.4,2.2-3.8,3c-16.2,9.1-32.3,18.1-48.5,27.1c-0.9,0.5-2.1,0.7-3.2,0.7
		C25,153,17.8,146.8,16.6,142.1z"/>
	
</g>
</svg>
