<?xml version="1.0" encoding="utf-8"?>
<!-- Generator: Adobe Illustrator 22.0.0, SVG Export Plug-In . SVG Version: 6.00 Build 0)  -->
<svg version="1.1" id="图层_1" xmlns="http://www.w3.org/2000/svg" xmlns:xlink="http://www.w3.org/1999/xlink" x="0px" y="0px"
	 viewBox="0 0 200 200" style="enable-background:new 0 0 200 200;" xml:space="preserve">
<style type="text/css">
	.st0{fill:#FFFFFF;}
</style>
<g>
	
	<path d="M118.9,157.3c-17.3,13.1-35.6,20.9-56.8,20.7c18.1-6.5,36.2-12.7,50.9-28.3c-10.5-9.7-20.6-19.2-31.3-29.1
		c5.5-0.7,10.9-1.1,16.3-2.1c9.7-1.9,19.3-4.3,29-6.1c3.1-0.6,6.7-0.7,9.7,0.2c9.3,2.9,9.3,4.9,3.5,12.5c-5.6,7.3-9.9,15.6-15,23.7
		c17.3,13.4,38.2,17.3,58.6,22.6c0,0.5-0.1,1.1-0.1,1.6c-1.3,0.6-2.6,1.6-4,1.9c-9.1,1.8-18.1,3.8-27.2,5.1c-6.5,1-12.4-1.3-17.1-6
		C129.9,168.7,124.5,163,118.9,157.3z M116.8,144.3c4.8-8,8.6-14.6,9.2-23.6c-9.3,1.8-17.7,3.5-25.5,5.1
		C105.9,131.9,111.1,137.7,116.8,144.3z"/>
	<path d="M51.7,56.8c20.3-3.3,39.3-6.3,58.4-9.4c-4-6.9-7.9-13.5-11.9-20.3c11.9-3.2,21.3,5.3,21,18.6c6.3-1.3,12.5-2.6,18.7-3.9
		c8-1.6,14.4,1,19.1,8.3c-2.4,0.6-4.6,1.6-6.7,1.6c-24.7,0.8-49,4-71.9,8.9C73.1,84.5,69,107.8,63,130.7
		c-4.9,18.6-15,34.5-31.5,45.6c-1.5,1-3.2,1.8-5.4,2c0.5-0.8,0.9-1.7,1.5-2.5c19.7-23.4,30.5-50.7,34.1-80.9
		c0.8-6.5,1.4-13,1.6-19.6c0.2-6.5-0.2-13-8.1-15.5C54.3,59.5,53.7,58.6,51.7,56.8z"/>
	<path d="M78.7,113.8c9-14,14.4-27.4,7.9-43.1c3.4,0,6.8,0.6,9.8-0.1c6.8-1.7,13.6-3.7,20-6.5c7-3.1,12.5-0.4,17.8,3.4
		c1,0.7,1,3.7,0.5,5.3c-1.5,4.3-4.1,8.4-5.4,12.7c-2.8,9.4,1.3,13.6,10.9,11.5c1.9-0.4,3.7-1.1,5.5-1.8c4.9-1.9,9.5-0.5,13.7,2
		c1.1,0.7,2.3,2.9,2,3.9c-0.6,1.5-2.3,3.5-3.7,3.7c-7.6,0.8-15.2,1.4-22.8,1.4c-3.1,0-6.8-0.8-9-2.6c-2.6-2.2-4.9-5.7-5.3-9
		c-0.7-4.8-0.1-9.8,0.7-14.7c1.1-7-0.2-8.8-7.3-7.6c-4.1,0.7-8.2,1.5-12,3.1c-1.5,0.6-2.7,3.2-3.3,5c-2,7-3,14.3-5.6,21.1
		C90.8,107.3,86.1,111.3,78.7,113.8z"/>
	<path d="M17.7,126.2c12.4-8.4,24.3-16.4,36.2-24.5c0.4,0.3,0.8,0.5,1.2,0.8c-0.8,1.7-1.4,3.5-2.4,5c-7,9.5-14.1,18.9-21.5,28.8
		C25,134.8,20.2,131.5,17.7,126.2z"/>
	<path d="M24.2,71.2c3.2,0,4.9-0.4,6.4,0.1c4.6,1.3,9.1,2.8,13.6,4.4c5.2,1.9,7.3,6,6.7,11.3c-0.2,2-1.2,5-2.6,5.5
		c-2,0.7-5.2,0.3-7-0.9c-2.9-2-5.4-4.9-7.7-7.7C30.7,80.2,28,76.3,24.2,71.2z"/>
	
</g>
</svg>
