<?xml version="1.0" encoding="utf-8"?>
<!-- Generator: Adobe Illustrator 22.0.0, SVG Export Plug-In . SVG Version: 6.00 Build 0)  -->
<svg version="1.1" id="图层_1" xmlns="http://www.w3.org/2000/svg" xmlns:xlink="http://www.w3.org/1999/xlink" x="0px" y="0px"
	 viewBox="0 0 200 200" style="enable-background:new 0 0 200 200;" xml:space="preserve">
<style type="text/css">
	.st1{fill:#010000;}
	.st4{fill:#fbfafc;}
</style>
<g>
	
	<path d="M186.4,168.6c-4,0.6-6.7,1.4-9.4,1.5c-16.3,0.4-32.6,0.2-48.9,1.1c-10.6,0.6-21.2,2.6-31.8,4.3c-6.1,1-14.7-1.8-18.8-7.2
		c7.2-2.8,14.6-1.3,21.6-2.2c7.1-0.9,14.3-1.8,21.7-2.8c0-4.3,0-8.5,0-13.1c-8.4-0.9-17.9,3.5-25-3.8c0-0.5,0.1-1,0.1-1.5
		c8.2-0.8,16.4-1.6,24.9-2.5c0-4.5,0-8.8,0-13.9c-6.5,0.8-12.8,1.6-19.1,2.4c-0.3,0.6-0.6,1.2-0.8,1.8c-1.3-2.7-3.2-5.3-3.9-8.2
		c-1.6-6.8-2.2-13.9-3.9-20.7c-0.9-3.7-3.3-7.1-5-10.6c-0.5-1-1-2.1-1.4-3.1c1.1-0.4,2.3-1,3.4-1c10.2-0.3,20.3-0.5,30.7-0.8
		c0-5.7,0-10.3,0-15.7c-7,1.5-13.8,2.9-20.5,4.6c-6.5,1.6-11.6-0.8-16.5-4.5c0-0.5,0-1,0-1.5c12.3-2.1,24.6-4.3,38-6.6
		c-1.3-4.4-2.4-8.3-3.6-12.4c-8,2.6-14.5,6.9-23.3,5.1c1.2-1.1,1.7-1.8,2.4-2.2c14.1-6.9,26.8-15.5,37.5-27.1
		c1.3-1.4,4.6-1.6,6.7-1.2c2.2,0.5,4.2,2.3,5.9,4c1.4,1.3,3.4,3.8,3,4.8c-0.8,1.9-3,3.6-5,4.5c-6.6,2.8-13.3,5.2-20.6,8
		c10,5,10,5,9,14.4c8.4-1.8,16.6-3.3,24.7-5.3c6.4-1.6,11.6,0.4,16.4,4.4c0.9,0.8,2,2.5,1.7,3.1c-0.6,1-2.1,2-3.3,2.1
		c-5.7,0.6-11.5,0.8-17.2,1.2c-6.5,0.6-13,1.2-19.5,2.1c-1.1,0.2-2.9,1.6-3,2.6c-0.4,3.8-0.1,7.6-0.1,12.1c5.7-1.5,11.2-3,16.7-4.4
		c8.9-2.3,15.4,2.3,21.6,7.5c0.8,0.6,1,2.7,0.6,3.8c-3.4,9.1-7,18.1-10.5,27.1c-0.9,2.4-1.5,4.9-2.7,7.1c-2,3.6-4.8,3.8-8.2,1.6
		c-1.4-0.9-3.5-0.9-5.3-0.9c-4.5,0.2-8.9,0.6-13.7,1c0,4.4,0,8.5,0,13.3c5.6-1,11-2,16.4-3c4.7-0.9,10.7,1.7,13.7,6.9
		c-10.3,1.5-20.1,2.9-30.5,4.3c0,4.2,0,8.5,0,13.9c11-1.4,21.7-2.5,32.4-4.3c6.9-1.2,12.6,0.7,18,4.4
		C183.5,164.3,184.4,166.1,186.4,168.6z M154.8,101.6c0-2.7-0.1-5.8,0-9c0.1-2.8-1.5-3.8-3.9-3.6c-6,0.6-12,1.4-18.1,2.2
		c0,4.3,0,8.1,0,11.8C139.8,102.6,146.6,102.1,154.8,101.6z M120.8,93.4c-6.4,0.7-12.6,1.4-19.4,2.1c0.5,3.9,1,7.5,1.6,11.6
		c6.4-0.7,12.1-1.4,17.8-2.1C120.8,100.8,120.8,97.2,120.8,93.4z M132.1,119.9c6.5-0.3,12.4-0.5,18.6-0.8c0.7-3.2,1.5-6.6,2.5-10.8
		c-6.6,0.6-12.5,1-18.3,1.8c-0.9,0.1-2.2,1.4-2.3,2.2C132.1,114.7,132.2,117.2,132.1,119.9z M105.1,123.3c5.4-0.5,10.5-0.9,15.7-1.4
		c0-3.7,0-6.9,0-10.3c-5.8,0.4-11.3,0.7-16.9,1.1C104.4,116.3,104.7,119.5,105.1,123.3z"/>
	<path d="M59.2,81.7C58,73,57,65.1,55.9,56.8c-9.4,3.1-17,8.4-27.4,6.6c1.8-1.3,2.6-2.1,3.6-2.6c14.5-7,28-15.5,39-27.4
		c2.5-2.7,5.1-3,8.1-1c1.9,1.2,3.7,2.5,5.4,4c4.4,3.5,3.7,6.8-1.9,9c-5.7,2.2-11.3,4.3-17,6.5c-0.7,0.3-1.3,0.7-2.3,1.3
		c1.7,1.1,3,1.9,4.2,2.9c2.7,2.1,3.9,4.4,2.7,8.3c-1.4,4.6-1.6,9.6-2.4,14.6c17.3-1.2,17.3-1.2,20.4,4.8c-1.6,0.5-3.2,1.2-4.7,1.5
		c-2.8,0.5-5.7,0.8-8.5,1.3c-8.1,1.2-9.3,2.8-8.2,10.7c0.2,1.2,1.8,2.3,3,3.1c3.9,2.4,8.1,4.4,11.9,7c3.8,2.6,4.8,6.7,3.7,11.1
		c-0.4,1.5-1.5,3.6-2.7,4c-1.2,0.4-3.3-0.7-4.4-1.8c-2-2-3.5-4.5-5.2-6.9c-2-2.8-3.9-5.7-6.7-9.8c-0.3,6.1-0.6,10.8-0.7,15.5
		c-0.2,16.2,0,32.3-0.5,48.5c-0.1,4.2-1.5,8.4-3.2,12.3c-1.6,3.8-3.7,3.7-5.7,0.2c-3.5-6.1-4.9-12.3-3.6-19.7
		c2.7-15.8,4.2-31.8,5.3-48.1c-11,16.3-23,30.7-43.2,35.3c17.3-16.2,32.1-34,41.6-57.6c-8.5,2.6-15.8,4.9-23,7.1
		c-5.7,1.7-13.2-1.5-16-7.2C31.1,87.5,44.7,84.7,59.2,81.7z"/>
	
	
	
	
</g>
</svg>
