<?xml version="1.0" encoding="utf-8"?>
<!-- Generator: Adobe Illustrator 22.0.0, SVG Export Plug-In . SVG Version: 6.00 Build 0)  -->
<svg version="1.1" id="图层_1" xmlns="http://www.w3.org/2000/svg" xmlns:xlink="http://www.w3.org/1999/xlink" x="0px" y="0px"
	 viewBox="0 0 200 200" style="enable-background:new 0 0 200 200;" xml:space="preserve">
<style type="text/css">
	.st1{fill:#010000;}
	.st4{fill:#fbfafc;}
</style>
<g>
	
	<path d="M100.1,58.3c-3.6,1.7-6.9,3.1-10.1,4.6c-0.3-0.4-0.6-0.8-0.9-1.2c2.9-3.2,5.9-6.4,8.7-9.7c6.1-7.2,12.5-14.2,14.2-24
		c0.2-1.3,0-2.8,0.6-3.7c0.8-1.1,2.2-2.3,3.4-2.3c1.5-0.1,3,0.9,4.5,1.6c6.8,3.3,7.2,5.9,1.9,11.3c-1.3,1.4-2.6,2.8-5,5.3
		c6-1,10.8-1.6,15.4-2.6c8.9-1.9,17.7-4.1,26.6-6c1-0.2,2.3-0.2,3.1,0.4c3.1,2,6.1,4,8.9,6.4c3.9,3.4-0.2,6.8-0.5,10.1
		c-0.9,9.7-1.9,19.4-2.8,29.1c-0.7,7.3-2.6,14.2-8.4,19.3c-4.4,3.8-6.8,3.3-9.9-1.6c-2.3-3.7-4.9-7.3-7.8-11.7
		c3.3,0.3,5.8,0.3,8.2,0.8c3.9,0.7,6.2-1,7.1-4.6c2.9-11.8,3.3-23.7,2.2-35.7c-0.4-4.4-4.2-4-7.1-3.7c-7.9,0.9-15.8,2.2-23.7,3.3
		c-4.8,0.7-9.6,1.3-14.4,2c-0.7,0.1-1.4,0.6-2,1.1c-3.2,2.9-6.3,5.8-9.1,8.3c2.5,3,5.5,5.1,5.8,7.5c0.3,2.6-2,5.5-3.6,9.5
		c5.1-0.8,9.3-1.6,14.1-2.3c0-6.2,0-12,0-17.8c6.3-1.1,10,2.4,8.7,8.3c-0.5,2.3-0.8,4.7-1.3,7.8c4.6-0.5,8.9-1,14-1.6
		c-0.3-4-0.6-7.9-0.9-12.3c2.8-2.2,5.3,0.2,8,1.7c2.7,1.5,1.1,3.3,0.5,5.3c-1,3.5-1.3,7.3-2.6,10.7c-0.8,2.1-2.9,3.7-4.4,5.5
		c-1.1-1.9-2.3-3.8-3.7-6.2c-2.2,0.4-5.5,0.5-8.4,1.5c-1.9,0.7-4,2.4-4.8,4.2c-3.4,7.4-7,14.5-15.4,17.3c-0.4,0.1-0.9,0.1-2.5,0.2
		c5.4-5.7,9.9-11.2,10.9-19.7c-5.9,2.5-11.1,4.7-16.5,6.9c-5.1-3.8-5.4-5.5-1.7-10.8C101.9,66.8,101.9,62.7,100.1,58.3z"/>
	<path d="M55.8,80.5c-5.8,2.2-11.7,4.1-17.2,6.7c-3.6,1.7-5.7,1-7.4-2.2c-1.6-3.1-4.5-6.1,0-9.6C44.6,65,52.6,51.1,56.8,34.9
		c1.5-5.6,2.9-6.4,7.8-3.5c7.3,4.3,7.7,7.5,2.3,13.8c-7.2,8.6-14.4,17.2-21.4,25.9c-1.2,1.5-2,3.4-3.1,5.3
		c13.8,2.8,24-3.7,28.7-17.2c0.8-2.4,2.4-4.6,3.6-6.8c2.2,1.9,4.8,3.5,6.6,5.7c3,3.5,2.2,6.7-1.1,10c-11,11.4-21.8,23-32.6,34.5
		c-1,1-1.7,2.2-2.6,3.3c0.2,0.4,0.4,0.9,0.6,1.3c8.3-3.1,16.6-6.2,25.3-9.5c-1.2-2.9-2.4-5.6-4-9.4c6.6,0.4,12.1,2.3,15.4,6.6
		c2.2,2.9,2.7,7.7,2.5,11.6c-0.1,3.5-5.3,4.4-7.2,1c-3.2-5.8-6.9-4.6-11.3-2.3c-8.8,4.5-17.7,8.8-26.5,13.2
		c-2.8,1.4-6.1-0.4-8.7-4.7c-1.6-2.8-1.7-4.7,1.6-6.6c3.2-1.9,6.1-4.7,8.6-7.5c5.2-5.8,10.1-12,15.1-18
		C56.3,81.3,56.1,80.9,55.8,80.5z"/>
	<path d="M81.8,131.2c8.3-11.1,20.2-20.1,20.3-35.8c5.2-0.2,9.6,1.4,11.7,5.2c2.9,5.3-5.1,6.4-5.6,11.5c16.5-2.8,32.8-5.8,49.2-8.4
		c6-1,9.7,3.9,13.9,7.1c3.1,2.3,0.4,5.1,0,7.8c-1.6,11.8-3,23.7-4.2,35.6c-0.9,8.6-1.4,17.3-6.9,24.5c-1.8,2.4-4.1,4.6-6.5,6.2
		c-3.4,2.2-6.5,1.6-9.1-2c-3.8-5.3-7.8-10.4-12.5-16.5c4.2,1,7.5,1.8,10.7,2.5c7.7,1.7,10.1,0.3,12-7.3c3.6-13.9,3.9-28.1,3.5-42.4
		c-0.2-6.2-1.9-7.6-8.1-6.9c-13.1,1.5-26.2,3.3-39.4,5c-0.2,0-0.3,0.1-0.5,0.1c-7.4-2.6-10.5,3.7-15.1,7.2c-3.9,3-8.3,5.4-12.5,8
		C82.4,132,82.1,131.6,81.8,131.2z"/>
	<path d="M88.3,178.7c11-6.8,20.3-14.8,24.4-28.8c-5.3,2-9.8,3.8-14.3,5.3c-1.6,0.5-4.3,1-4.9,0.3c-1.7-2.1-4.1-5.9-3.3-7.2
		c4-6.4,5.4-12.8,2.4-19.9c7.3-0.9,11.4,3.6,9.6,9.7c-0.7,2.2-1.3,4.5-2.2,7.6c4.9-0.6,9-1,13-1.7c0.9-0.2,2.1-1.7,2.1-2.7
		c0.3-5.4,0.6-10.8,0.3-16.1c-0.2-3.9,0.4-4.8,4-3.8c6.4,1.7,7.7,4.2,5.9,10.5c-1,3.3-1.7,6.8-2.7,10.8c5.2-0.5,9.9-0.9,15.6-1.4
		c-0.4-4-0.2-7.8-1.3-11.3c-1.1-3.7,0.5-4,3.1-3.8c5.8,0.4,8,3.8,6.5,9.3c-1,4-1.7,8.1-2.7,12.1c-0.7,3-1.3,6.9-4.9,6.5
		c-1.5-0.2-2.6-4.4-4.5-8c-3.3,0.6-8.1,1.2-12.8,2.3c-1,0.3-1.6,2.5-2.2,3.9c-5.2,12.2-13,22-26.2,26.1c-1.2,0.4-2.5,0.6-3.7,0.9
		C89.5,179.4,89.2,179.1,88.3,178.7z"/>
	<path d="M45,148.3c-0.2,0.6-0.3,2.5-1.1,4c-1.5,2.8-5.1,3.3-6.6,0.5c-3.7-7.2-7-14.6-10-22.2c-1-2.5,1.4-2.6,3.3-2.1
		C39.1,130.8,44.9,138.3,45,148.3z"/>
	<path d="M65.8,137.2c-0.6,0.8-1.6,3.6-3.4,4.3c-1.2,0.5-4.3-1.5-5.3-3.2c-2.7-4.3-4.8-9-7.1-13.5c-1-2-1.1-3.5,1.8-3.3
		C58.9,122.1,65.5,128.8,65.8,137.2z"/>
	<path d="M65.5,113.3c9.9-0.6,17.2,5.5,16.4,12.8c-0.2,1.6-1.4,3.9-2.7,4.3c-1.3,0.4-3.8-0.7-4.7-2
		C71.4,123.8,68.8,118.8,65.5,113.3z"/>
</g>
</svg>
