<?xml version="1.0" encoding="utf-8"?>
<!-- Generator: Adobe Illustrator 22.0.0, SVG Export Plug-In . SVG Version: 6.00 Build 0)  -->
<svg version="1.1" id="图层_1" xmlns="http://www.w3.org/2000/svg" xmlns:xlink="http://www.w3.org/1999/xlink" x="0px" y="0px"
	 viewBox="0 0 200 200" style="enable-background:new 0 0 200 200;" xml:space="preserve">
<style type="text/css">
	.st0{fill:#FFFFFF;}
</style>
<g>
	
	<path d="M90.4,155c0-12.1,0-23.4,0-35.1c-7.5,0.4-14.7,0.8-21.8,1.4c-0.9,0.1-1.9,1.5-2.4,2.5c-1.7,2.9-3.7,2.5-5.1,0.2
		c-1.5-2.4-2.8-5.1-3.4-7.8c-1.8-8.1-2.8-16.4-5-24.4c-1.2-4.1-4.4-7.5-6.6-11.3c-0.5-0.9-1.7-2.2-1.4-2.6c0.6-0.9,1.8-1.8,2.9-1.9
		c1.9-0.1,4.1-0.2,5.6,0.6c5.6,2.9,11.4,2.2,17.3,1.5c6.5-0.8,13-1.2,20.1-1.9c-0.7-14.7,1.1-29.1-5.1-42.8c-1.6-3.6,0.5-7,4.3-6.1
		c5.3,1.3,10.5,3.5,15.4,6c2.6,1.3,2.1,4.2,1.5,7.2c-2.1,10.9-3.6,21.9-5.5,34c8.3-1.4,15-2.5,21.6-3.7c1.6-0.3,3.2-0.4,4.7-1
		c10.3-4.1,17.9,0.9,25,7.4c2.4,2.2,2.8,3.8-0.1,6.6c-3.3,3.1-5.8,7.2-8,11.1c-2.5,4.5-4.2,9.3-6.2,13.9c0.2,0.4,0.3,0.7,0.5,1
		c1.1,1.6,2.3,3.2,3.5,4.8c-1.9,0.5-3.7,1.3-5.6,1.5c-11.4,0.8-22.9,1.5-34.6,2.2c0,11.4,0,22.2,0,33.9c10.3-2.4,20.4-4.7,31.2-7.2
		c-4-5.4-7.6-10.2-11.1-14.9c0.3-0.4,0.6-0.8,0.9-1.2c1.9,0.3,4,0.3,5.7,1.1c9.4,4.1,18.3,9.2,25.4,16.9c5,5.5,6.4,12.1,5.4,19.2
		c-0.9,6.2-4.9,7.7-9.1,3.3c-4-4.3-7.4-9.2-10.6-14.1c-1.8-2.8-3.3-3.9-6.9-2.9c-23.8,6.7-47.7,13.2-71.5,19.8
		c-0.9,0.3-1.8,0.6-2.7,1c-10.3,4.2-18.4,1.4-24-8.4c-2.1-3.7,0.1-4.1,3-4.1c6,0,12.2,0.8,18.1,0C67.3,159.3,78.7,157,90.4,155z
		 M102.3,110.9c7.2-1,14.3-1.9,21.3-3c0.7-0.1,1.7-1.1,1.9-1.8c2.2-6.8,4.4-13.6,6.4-20.5c0.9-3.3-1-5.6-4.2-5.5
		c-8.4,0.1-16.8,0.8-25.5,1.2C102.3,91.6,102.3,100.9,102.3,110.9z M67.6,114.1c7.7-0.6,15.1-1.1,22.6-1.7c0-10.1,0-19.6,0-29.4
		c-9.3,1-18.3,2-27.6,3C64.2,95.4,65.8,104.4,67.6,114.1z"/>
	
	
</g>
</svg>
