<?xml version="1.0" encoding="utf-8"?>
<!-- Generator: Adobe Illustrator 22.0.0, SVG Export Plug-In . SVG Version: 6.00 Build 0)  -->
<svg version="1.1" id="图层_1" xmlns="http://www.w3.org/2000/svg" xmlns:xlink="http://www.w3.org/1999/xlink" x="0px" y="0px"
	 viewBox="0 0 200 200" style="enable-background:new 0 0 200 200;" xml:space="preserve">
<style type="text/css">
	.st0{fill:#FFFFFF;}
</style>
<g>
	
	<path d="M106.5,60.6c-1.4,5.5-2.5,10.2-4,15.9c4.8-1.5,8.6-3.1,12.5-4c3.7-0.8,7.5-1.1,11.3-1.2c1.1,0,2.3,1.2,3.4,1.9
		c-0.8,1.1-1.3,2.8-2.3,3.3c-2.4,1.2-5,1.9-7.6,2.7c-5.5,1.7-11,3.2-16.5,4.9c-1.3,6,0.8,9.4,7.3,9c8.5-0.6,17.1-2,25.4-4.1
		c4.4-1.1,8.2-1.7,11.8,1c1.5,1.1,3,3.2,3.1,4.9c0.1,1.1-2.4,2.8-4,3.3c-12.3,4.4-25,4.8-37.9,3.3c-8.6-1-14-5.7-15-14.8
		c-8-0.3-15.7,5.1-25.2,0.9c2.4-1.3,3.7-2.4,5.2-2.8c5-1.5,10.1-3.1,15.2-4.3c3.4-0.8,4.9-2,4.2-5.8c-0.7-3.8-0.6-7.7-0.9-12
		c-8.9,1.5-16.7,2.8-24.7,4.1c-1.2,10-2.2,20-3.5,30c-2.7,20.3-6.7,40.3-15.3,59.1c-4.4,9.7-10.6,18.2-18.8,25.2
		c-1.3,1.1-3,1.9-4,2.5c5.5-12.2,11.8-24.2,16.5-36.7c9.3-24.5,12.4-50.2,12.1-76.3c0-2.5-0.9-5-1.7-7.4c-1.8-4.8-1.7-5.2,3.2-5.5
		C67.2,57.1,78,56.6,88.9,56c1.6-0.1,3.1-0.3,5.6-0.5c-2.4-11.9,1.5-24-4.3-35.4c-1.4-2.7,0.4-4.7,3.1-4.3c3.9,0.6,7.8,1.6,11.2,3.4
		c1.4,0.7,1.8,4.1,1.8,6.2c0.1,3.1-0.6,6.2-1.1,10.1c7.6-2,14.3-4.2,21.1-5.5c3.3-0.6,7.1,0.3,10.5,1c1.2,0.3,2.2,2,3.2,3.1
		c-1.2,0.9-2.3,2.5-3.6,2.6c-9.6,1.2-19.3,2-28.9,3c-0.8,0.1-1.5,0-2.7,0c-0.3,4.7-0.6,9.2-1,14.7c7.8-1,15.1-1.8,22.5-2.9
		c6.6-1,13.2-2.3,19.9-3.2c1.8-0.3,4.3-0.4,5.5,0.6c5.4,4.2,10.6,8.6,15.5,13.4c2.5,2.4,1.5,4.7-2.1,5.3c-9.4,1.4-18.9,2.8-29.1,4.4
		c3.3-4.5,6.2-8.6,10-13.9C131.4,56.9,118.4,59.2,106.5,60.6z"/>
	<path d="M51.2,178c19-3.5,36.8-9.5,51.2-23.6c-7.2-8-16.1-13.4-25.9-17.6c2.6-4.3,6.1-3.6,8.6-2.5c5.3,2.4,10.4,5.5,15.4,8.5
		c2.4,1.5,4.6,3.3,6.9,4.9c6-6.3,8.8-16.3,6.4-23.2c-11.7,1.9-23.5,3.5-35.2,5.7c-6.1,1.1-10.7-1-15.2-4.2c0-0.6,0-1.1,0-1.7
		c12.5-1.8,25-3.5,37.8-5.3c-2.9-5.1-5.7-10-8.7-15.2c10.9-2,18.2,3.7,18,14c7.8-1.3,15.4-2.4,23-4c6.2-1.3,12-1.3,17.1,3
		c1.2,1,2.1,2.2,3.1,3.4c-0.1,0.5-0.2,1.1-0.3,1.6c-9.5,0.7-19,1.4-28.8,2.2c4.9,6.1,4.9,6.1,0.9,13.2c-3,5.3-5.7,10.7-8.7,16.3
		c21,12.6,45,16.3,68.8,20.5c0,0.5,0.1,1,0.1,1.5c-1.1,0.7-2.1,1.7-3.3,1.9c-11,2-21.9,4.1-33,5.6c-5.9,0.8-11.4-1.4-16.2-4.9
		c-7.7-5.7-15.3-11.5-23.3-17.6c-13.7,12.7-30.2,18.9-48.9,19.6c-3.2,0.1-6.5-0.5-9.7-0.8C51.3,178.9,51.3,178.5,51.2,178z"/>
</g>
</svg>
