<?xml version="1.0" encoding="utf-8"?>
<!-- Generator: Adobe Illustrator 22.0.0, SVG Export Plug-In . SVG Version: 6.00 Build 0)  -->
<svg version="1.1" id="图层_1" xmlns="http://www.w3.org/2000/svg" xmlns:xlink="http://www.w3.org/1999/xlink" x="0px" y="0px"
	 viewBox="0 0 200 200" style="enable-background:new 0 0 200 200;" xml:space="preserve">
<style type="text/css">
	.st1{fill:#010000;}
	.st4{fill:#fbfafc;}
</style>
<g>
	
	<path d="M132.9,38.8c-4.1,4-44.4,10.1-62,9.6c-0.9,4.3-1.9,8.7-3,14c10.9-1.3,21.2-2.5,31.4-3.9c13.4-1.9,26.8-4.2,40.3-6
		c5.9-0.8,10.4,1.9,14.9,7.5c-3.1,0.5-5.3,1.1-7.5,1.3c-21,2.1-41.9,4.2-62.9,6.2c-0.4,0-0.9,0.2-0.8,0.2c0,5.5,0,10.8,0,16.1
		c0,5.4,0,10.7,0,17.1c9-4.1,17.1-7.9,25.3-11.6c0.3,0.4,0.6,0.7,0.8,1.1c-1.3,1.4-2.5,2.9-3.9,4.1c-7.6,6.4-15.2,12.8-22.9,19
		c-2,1.6-4.4,4.9-6.8,2.1c-2-2.3-3.2-6.2-3.2-9.3c0.1-10.4,1.1-20.9,1.4-31.3c0.1-4.2-2.1-7.3-7.3-7.8c-3.6,12.9-8.5,25.5-16.3,36.7
		c-7.9,11.5-18.7,19.3-31.1,24.9c-0.3-0.3-0.6-0.6-0.8-1c0.4-0.5,0.8-1.1,1.3-1.5c26.3-22.8,40.3-51.5,41.1-86.4
		c0.1-5.6-1.5-10.7-6.3-15.2c2.4-0.6,4.1-1.2,5.9-1.4c21-3.1,42-6.1,63.1-9.1c5-0.7,9.1,1.1,12.8,4.3c1,0.8,1.4,2.3,2.1,3.5
		c-1.2,0.6-2.4,1.5-3.7,1.6c-9.6,0.7-19.1,1.1-28.7,1.9c-9.2,0.8-18.4,2.1-27.6,3.1c-2.6,0.3-4.4,1.4-4.9,4.2
		c-0.5,3.1-1.2,6.2-1.9,10.2c9.7-1.6,18.7-2.9,27.6-4.4c6-1,11.8-2.9,17.8-3.4c4.4-0.3,9,1.1,13.5,1.9
		C131.4,36.9,132.1,38.1,132.9,38.8z"/>
	<path d="M170.3,124.5c-3.1,0.5-5.7,1.4-8.2,1.4c-11.5,0.1-23,0.1-34.7,0.1c0,6.3,0.1,12.3,0,18.3c-0.1,9.9-0.1,19.8-0.7,29.6
		c-0.2,2.6-1.8,5.5-3.5,7.6c-5.1,6-7.7,5.7-12.6-0.4c-3.2-4-6.9-7.6-10.3-11.3c-0.9-1-1.8-2-2.7-3c0.2-0.4,0.4-0.8,0.6-1.2
		c3.1,0.7,6.2,1.4,9.2,2.2c7,1.7,8.6,1.1,9.2-5.9c1-11.6,1.1-23.2,1.6-35.7c-11.2,1.1-21.4,1.8-31.4,3.2c-7.4,1.1-14.7,3.1-22,4.8
		c-6.1,1.5-14.5-1.4-19.2-7.4c12.4-1.2,24.1-2.4,35.7-3.6c11.7-1.2,23.4-2.6,35.8-3.9c-1-3.9-1.8-7.4-2.8-10.9
		c-1-3.5,0.4-4.9,3.8-4.3c2.2,0.4,4.3,1.2,6.4,1.9c3.4,1.1,4.4,3.4,3.7,6.7c-0.3,1.7-0.5,3.4-1,6.1c7.8-1.4,14.9-2.6,22.1-4
		C157.3,113.3,166.2,117,170.3,124.5z"/>
	<path d="M98.6,72.8c5.9,1.8,11.9,3.3,17.6,5.6c3.5,1.4,5.7,0.7,7.6-2.2c2.8-4.4,5.6-8.8,8.6-13.7c1.4,0.8,3.2,1.3,4.3,2.4
		c2.4,2.4,4.4,5.1,6.6,7.7c-2.5,1.4-5,2.9-7.6,4.1c-3.3,1.5-6.7,2.8-10.8,4.5c5.3,2.7,10.6,4.5,14.6,7.7c4.6,3.7,8.4,8.5,12,13.2
		c1.1,1.4,0.2,4.3,0.2,6.5c-2.4-0.1-5.3,0.6-7.1-0.5c-4.6-2.6-8.7-5.9-12.9-9c-10.9-8-21.8-16.1-32.7-24.1c-0.3-0.3-0.6-0.7-0.8-1
		C98.4,73.6,98.5,73.2,98.6,72.8z"/>
	<path d="M93.7,151c-1.6,2.3-2.6,5.1-4.4,5.8c-1.5,0.6-4.8-0.6-6-2c-3.8-4.6-7.2-9.7-10.5-14.7c-1.4-2-0.5-3.8,1.9-3
		c5,1.6,10,3.2,14.4,5.8C91.3,144.2,92,147.8,93.7,151z"/>
</g>
</svg>
