<?xml version="1.0" encoding="utf-8"?>
<!-- Generator: Adobe Illustrator 22.0.0, SVG Export Plug-In . SVG Version: 6.00 Build 0)  -->
<svg version="1.1" id="图层_1" xmlns="http://www.w3.org/2000/svg" xmlns:xlink="http://www.w3.org/1999/xlink" x="0px" y="0px"
	 viewBox="0 0 200 200" style="enable-background:new 0 0 200 200;" xml:space="preserve">
<style type="text/css">
	.st1{fill:#010000;}
	.st4{fill:#fbfafc;}
</style>
<g>
	
	<path d="M57.6,129.2c4.4-0.9,8-1.3,11.5-2.4c5.8-1.8,10.3,0.4,14.5,3.9c0.9,0.7,1.3,2,2,3.1c-1.2,0.6-2.3,1.7-3.5,1.8
		c-8,0.7-15.9,1.2-24.6,1.8c0,10.4,0.3,20.6-0.2,30.8c-0.2,4.3-1.7,8.7-3.4,12.8c-1.5,3.7-3.6,3.6-5.7,0.1
		c-3.7-6.3-5.1-12.9-3.6-20.2c1.4-7,2.1-14.1,3.3-22.2c-7.5,1.5-13.9,2.5-20.2,4c-6.1,1.5-10.6-1.2-15.1-4.1c0-0.5,0.1-1,0.1-1.5
		c4-0.8,8-1.6,12-2.3c6.5-1.1,12.9-2.2,19.4-3c3.2-0.4,4.4-1.8,4.5-4.9c0.1-4.1,0.4-8.2,0.7-13.6c-5.2,1.7-9.4,3-13.6,4.3
		c0.1,0.5,0.2,1,0.2,1.5c-3.7-1.6-4.4-5.1-5-8.5c-1.1-6.6-1.6-13.4-3.2-19.8c-1.3-5.4-4-10.4-6.4-16.6c3.9,0,8.7,0.3,13.5-0.1
		c5.1-0.4,10.1-1.4,15.4-2.2c0-4.7,0-9.2,0-14.1c-7.7-0.8-16.5,3.8-23.8-4.6c8.4-1.4,16-2.7,24.7-4.2C49.5,40.7,48,33,46.6,25.2
		c-0.3-1.6-0.1-3.3-0.1-5c1.8,0,3.7-0.4,5.4,0.2c2.4,0.8,4.6,2.2,6.8,3.5c3.6,2.2,4.7,5.2,3.7,9.4c-1,4.1-1.4,8.4-2.2,13.7
		c3.3-1,6-1.4,8.3-2.5c4.5-2.1,8.4-0.6,12.2,1.6c0.9,0.5,2,1.8,1.9,2.4c-0.2,1-1.4,2.2-2.4,2.5c-6.6,1.9-13.2,3.6-20.4,5.4
		c-0.2,3.9-0.4,8.1-0.7,13.1c4.5-1.4,8.5-2.7,12.5-3.9c5-1.4,15.4,1.9,18,6.2c0.7,1.2,0.2,3.5-0.3,5.1c-1.2,3.7-2.8,7.3-4.3,10.9
		c0.5,0.3,1,0.6,1.5,0.8c3.7-5,7.7-9.9,11.1-15.1c8.8-13.4,16.7-27.2,20.1-43.2c0.1-0.3,0.1-0.6,0.2-0.9c0.8-2.3,1.6-4.7,2.4-7
		c3.5,2.1,7.3,3.8,10.3,6.4c2.9,2.5,0.3,4.9-1.4,7c-0.5,0.6-0.7,1.4-0.8,1.6c17.8,17.8,34.7,36.4,61,42.6
		c-9.3,8.7-25.9,8.3-32.6,0.1c-7.5-9.1-14.5-18.7-21.9-27.9c-2.6-3.3-5.8-6.2-8.7-9.3c-5.3,8.7-9.9,17-15,24.8
		c-6.6,10.1-14.8,18.8-25.5,24.9c-1.2,0.6-2,2.3-2.4,3.7c-1.4,4.6-2.4,9.3-3.9,13.8c-1.9,5.9-4.1,5.7-9,2.7
		c-2.6-1.6-7.2-0.5-10.8,0.1c-0.8,0.1-1.5,3-1.7,4.7C57.4,121.2,57.6,124.9,57.6,129.2z M74.9,85.7c0.1-3,0.6-6.5,0.4-10
		c-0.1-1.1-1.8-3.1-2.6-3.1c-4.6,0.5-9.5,0.8-13.4,2.9c-1.6,0.9-0.7,6.2-0.9,9.5c0,0.5,0.1,0.9,0.1,0.6C64,85.7,69.3,85.7,74.9,85.7
		z M57.9,105.4c4.6,0,8.6,0,13.4,0c0.9-4.5,1.9-9.6,3-15.1c-6.1,1.1-11.2,2.1-16.4,3C57.9,97.7,57.9,101.5,57.9,105.4z M50.1,76.8
		c-5.3,0.9-10.3,1.7-15.9,2.6c0.6,4,1.1,7.8,1.6,11.7C52.1,89,50.5,91,50.1,76.8z M49.8,95.4c-4.5,0.2-8.5,0.5-12.9,0.7
		c0.6,4.4,1.2,8.9,1.8,13.7c3.8-0.7,7.4-1.3,11.1-1.9C49.8,103.6,49.8,99.6,49.8,95.4z"/>
	<path d="M104.6,161.3c1.9,0.7,3.9,1.2,5.7,2c3.3,1.3,5.5,0.1,5.8-3.3c0.6-6,0.8-12,1.2-18.3c-5.5,0.5-10.2,1.3-15,1.4
		c-3.4,0-4,1.4-4.6,4.4c-2.5,11.4-7.8,20.9-20.6,26c16.5-21.9,16.5-45.3,11.6-70.5c0.1,0,1.6-0.9,2.5-0.5c8.3,3.7,15.5-0.6,23.1-2.6
		c2.2-0.6,5-0.4,7.1,0.5c6.5,3.1,5.6,3.8,5,10.9c-1,12.5-0.6,25.2-0.9,37.8c-0.1,5.7-0.1,11.5-0.7,17.2c-0.2,2.4-1.4,4.9-2.7,7.1
		c-3.5,5.8-5.2,5.8-9.1,0.6c-1.5-2.1-3.1-4.1-4.6-6.1c-1.5-1.9-3-3.7-4.5-5.5C104.1,161.9,104.4,161.6,104.6,161.3z M116.8,118.1
		c-0.1-3,0-6.2-0.6-9.3c-0.2-1.1-1.9-2.7-3-2.9c-9.1-1.1-13.3,2.7-13.3,11.8c0,1.4,0.1,2.8,0.2,4.2
		C105.6,120.7,110.8,119.5,116.8,118.1z M117,124.8c-3.2,0.6-6.1,1.1-9,1.7c-9,1.8-9,1.8-8.8,11.1c0,0.3,0.3,0.5,0.4,0.7
		c5.7-1,11.5-2.1,17.4-3.1C117,132,117,128.6,117,124.8z"/>
	<path d="M137.1,163.9c4.6,1.2,8.2,2.2,11.9,3.2c2.9,0.8,4.7-0.1,5-3.2c0.4-4.3,1-8.6,1-12.9c0-13.1-0.1-26.2-0.5-39.3
		c-0.1-3.1-1.6-6.2-2.1-9.3c-0.3-1.7,0-3.6,0-5.4c1.8,0.1,3.7-0.1,5.4,0.4c1.9,0.6,4.1,1.5,5.3,3c1.4,1.8,2.6,4.3,2.5,6.5
		c-0.4,14.8-1.2,29.6-1.6,44.4c-0.2,6.4,0.9,12.8,0.1,19.1c-0.5,4-2.8,8-5.1,11.4c-0.7,1.1-5.1,1.4-6,0.5
		C147.6,176.8,142.8,170.7,137.1,163.9z"/>
	<path d="M134.7,114.1c7.3-0.7,9.8,1.4,9.8,7.9c0,6.4,0.2,12.8-0.1,19.2c-0.2,3-1.3,5.9-2.1,8.9c-0.7,0.1-1.5,0.2-2.2,0.3
		c-1.2-2.7-3.5-5.5-3.3-8.1c0.7-9,0.6-17.8-2.4-26.5C134.3,115.3,134.6,114.6,134.7,114.1z"/>
	<path d="M109.9,81.8c8.3-1.9,16.3-3.8,24.3-5.7c4.2-1,9.3,1.2,11.7,5C136.8,87.8,113.8,88.2,109.9,81.8z"/>
	
	
	
	
	
	
</g>
</svg>
