<?xml version="1.0" encoding="utf-8"?>
<!-- Generator: Adobe Illustrator 22.0.0, SVG Export Plug-In . SVG Version: 6.00 Build 0)  -->
<svg version="1.1" id="图层_1" xmlns="http://www.w3.org/2000/svg" xmlns:xlink="http://www.w3.org/1999/xlink" x="0px" y="0px"
	 viewBox="0 0 200 200" style="enable-background:new 0 0 200 200;" xml:space="preserve">
<style type="text/css">
	.st0{fill:#FFFFFF;}
</style>
<g>
	
	<path d="M48.5,92.2c-9.5,0.8-18.1,6.4-27.3-0.7c2.1-0.9,3.3-1.5,4.5-2c8-3.3,16-6.4,23.8-9.8c4.4-2,15.9,2.4,16.6,7.2
		c0.3,1.7-1.2,4.1-2.5,5.7c-5.1,6.1-10.4,12.1-15.1,17.4c4.4,5.3,9.1,9.5,11.9,14.8c3,5.6,1,11.8-2,16.7
		c41.6,17.2,85.5,20.7,129.9,20.7c0.1,0.6,0.2,1.2,0.2,1.8c-1.5,1-2.8,2.3-4.4,3c-11.5,4.3-23,8.6-34.6,12.8
		c-5.3,1.9-10.7,1.5-15.9-0.6c-17.5-7-34.9-14.2-52.5-20.9c-8.2-3.1-16.6-6-25.2-7.2c-6.1-0.9-12.8,0.5-18.8,2.3
		c-8.5,2.7-14.6,0.1-17.1-10c10.9,0,21.7,0,32.5,0c2.3-12.1-2-21-8.7-28.9c-1.9-2.2-2.2-3.9-1.2-6.3C44.7,103.2,46.4,98.3,48.5,92.2
		z"/>
	<path d="M124.5,83.3c7.1,2.5,6.3,6.9,5.7,13c-1.2,12.8-0.5,25.8-0.4,38.8c0,5.8,0.3,11.6-4,16.3c-3.6,4.1-5.4,4-8.5-0.3
		c-3.4-4.8-6.9-9.5-11-14.9c2.7,0.5,4.5,0.9,6.4,1.2c5.7,1.1,7.2,0.3,7.4-5.3c0.3-9.9,0.5-19.8,0.1-29.7c-0.2-5.3-1.8-10.6-2.7-15.9
		c-0.5-2.8-2.1-3.1-4.5-2.7c-6.6,1.2-13.2,2.2-19.8,3.3c-5.7,1-10.1-1.5-14.3-4.4c0-0.5,0.1-1,0.1-1.5c4.5-0.7,8.9-1.5,13.4-2.1
		c8.6-1.1,17.1-2.1,25.7-3c3.2-0.3,5.3-1.6,6.7-4.5c1.4-2.9,3.2-5.5,5.5-9.5c-9.4,2.2-17.7,3.8-25.9,6.3c-4.1,1.2-6.1,0.3-8.1-3.3
		c-1.9-3.4-0.8-5.3,1.9-7.7c9.3-8.3,15.2-18.8,18.3-30.9c1.2-4.7,2.3-5.2,6.5-2.7c5.8,3.4,6.3,6.4,2,11.4c-1.9,2.1-3.6,4.4-5.4,6.5
		c0.2,0.4,0.4,0.8,0.6,1.3c6.6-1.9,13.4-3.4,19.8-5.9c5.1-2,9.3-1,13.6,1.6c3.1,1.9,3,3.9,0.6,6.6c-8.1,9.2-16.1,18.5-24.1,27.7
		c0.2,0.4,0.5,0.9,0.7,1.3c7.6-1.2,15.2-2.2,22.7-3.6c6.6-1.2,12.9-2,18.7,2.7c1.2,1,2.9,1.4,4.4,2c-0.5,1-1,2-1.5,3.1
		c-16.6,1.2-33.1,2.5-49.7,3.7C124.9,82.6,124.7,83,124.5,83.3z M106.4,58.4c0.3,0.5,0.5,1.1,0.8,1.6c7.9-0.6,15.8-1.1,23.7-1.8
		c0.7-0.1,1.6-0.6,1.9-1.2c1.9-3.4,3.6-6.9,5.6-10.9c-8.4,0.5-15.8,0.9-23.2,1.4c-0.4,0-0.9,0.4-1.1,0.8
		C111.5,51.7,108.9,55.1,106.4,58.4z"/>
	<path d="M61.8,58.9c-1.4,2.1-2.5,5.7-4.7,6.5c-2.2,0.8-6.4-0.2-8-2c-5.3-5.9-9.9-12.5-14.5-19c-0.3-0.4,0.7-2.7,1.5-2.9
		c4.2-1.2,20.7,5.4,22.9,9.2C60.1,52.9,60.6,55.5,61.8,58.9z"/>
	<path d="M134.3,115.1c11.8,1.1,22.7,4.6,31.9,12.3c1,0.9,2.1,2.4,2.2,3.6c0.1,2.9-0.4,5.8-0.6,8.7c-2.5-0.5-5.3-0.5-7.4-1.7
		c-2.9-1.6-5.4-4-7.9-6.2C146.5,126.3,140.4,120.7,134.3,115.1z"/>
	<path d="M115.8,110.9c-2.6,3.2-4.9,6.7-7.7,9.6c-4.8,4.9-9.8,9.6-14.9,14.2c-5.3,4.9-12,3-14.1-4c-0.3-1,0.8-3.3,1.6-3.5
		c12.5-2.3,22.5-9.5,32.4-16.8c0.4-0.3,0.8-0.4,1.2-0.6C114.8,110.2,115.3,110.5,115.8,110.9z"/>
	<path d="M153.7,87.1c3.1,2.5,6.5,5,9.3,8c0.7,0.8,0.1,4.4-0.9,4.9c-6.8,3.6-13.8,6.7-20.7,9.9c-0.7,0.3-1.6,0.1-2.1,0.2
		C143.9,102.8,148.4,95.6,153.7,87.1z"/>
	<path d="M87.3,95.9c5.9,0.1,11.7,1,16.5,4.9c2.7,2.2,2.4,5.6,0.2,8.2c-2.3,2.7-5.1,1.7-7.2-0.3c-3.6-3.5-6.9-7.4-10.3-11.1
		C86.8,97,87,96.5,87.3,95.9z"/>
	
</g>
</svg>
