<?xml version="1.0" encoding="utf-8"?>
<!-- Generator: Adobe Illustrator 22.0.0, SVG Export Plug-In . SVG Version: 6.00 Build 0)  -->
<svg version="1.1" id="图层_1" xmlns="http://www.w3.org/2000/svg" xmlns:xlink="http://www.w3.org/1999/xlink" x="0px" y="0px"
	 viewBox="0 0 200 200" style="enable-background:new 0 0 200 200;" xml:space="preserve">
<style type="text/css">
	.st1{fill:#010000;}
	.st4{fill:#fbfafc;}
</style>
<g>
	
	<path d="M18.8,85.4c3.3,0.4,5.7,0.8,8.1,1.1c2,0.3,4,0.5,6.1,0.7c8.7,0.7,14.3-3.2,17.8-11.1c2.6-5.8,6.1-11.1,8.8-17.1
		c-6.6,1.6-13.8-1.4-19.2,6c-4.3,5.8-11.2,9.8-17,14.5c-1.1,0.9-2.7,1.1-3.8,1.5c6.5-9.5,13.3-18.8,19.3-28.5
		c4.1-6.6,7.5-13.8,7.8-21.9c0.1-3.1,1.9-3.9,4.6-2.4c1.7,0.9,3.4,1.8,4.9,2.9c4.8,3.7,4.8,4.5,1.5,9.5c-2.6,3.8-4.9,7.9-6.8,12.9
		c4.3-1.7,8.6-3.2,12.7-5.1c5-2.3,12-1.2,15.8,2.7c2.5,2.6,1.1,4.2-1.1,6.3c-8.4,8.4-16.6,17-24.9,25.6c0.3,0.4,0.5,0.7,0.8,1.1
		c4.9-1.4,9.7-2.9,14.6-4.3c5.2-1.5,15.6,1.7,18.5,6.1c0.7,1,0.9,2.7,0.5,3.9c-2.7,9.7-5.5,19.3-8.3,28.9c-0.7,2.4-1,5.1-2.3,7.2
		c-1.5,2.5-3.7,4.6-6.9,1.5c-0.9-0.9-2.8-1.2-4.2-1.1c-9.5,0.9-19.1,2-28.6,3.3c-1.7,0.2-3.1,1.8-5.9,3.4c-1.2-2.9-3.1-5.9-3.7-9
		c-1.6-8.5-2.2-17.1-3.9-25.6C23.3,94.3,21,90.5,18.8,85.4z M69.9,119.6c0.7-4.4,1.5-9.3,2.3-14.4c-2,0.3-3.2,0.6-4.5,0.8
		c-11.7,1.6-11.7,1.6-12,13.5c0,0.3,0.2,0.6,0.4,0.8C60.5,120.1,64.9,119.8,69.9,119.6z M57.4,99.3c5.1,0.6,10.1,1.1,15.8,1.7
		c0-3.4-0.1-6.8,0-10.3c0.2-3.6-1.6-4.5-4.7-4.1c-4.3,0.7-8.7,1.4-11.8,1.9C57,92.6,57.2,96.1,57.4,99.3z M34.5,108.5
		c0.4,5,0.8,10,1.3,15.4c4.3-0.5,8.2-1,11.9-1.5c0-4.9,0-9.3,0-13.9C43.2,108.5,39.1,108.5,34.5,108.5z M32.7,92
		c0.4,4,0.8,7.5,1.3,11.4c4.7-0.5,8.9-1,13.9-1.6c-0.5-3.1-0.7-6-1.5-8.6c-0.3-1-2-2.2-3-2.2C40.1,91,36.8,91.6,32.7,92z"/>
	<path d="M138,100.9c-0.3,12.8-1,26.7-0.8,40.5c0.1,7.9,3.4,10.6,11.3,11.5c2.5,0.3,5.1,0.1,7.7,0.1c11.5,0,15.7-3.5,17.8-15
		c0.7-3.6,1.1-7.3,1.7-11c0.4,0,0.9,0,1.3-0.1c0.5,2.1,0.9,4.2,1.5,6.2c1.5,5,2.7,10.2,4.6,15c2.1,5.4,1.5,8.1-3.6,11.3
		c-7.4,4.7-15.6,5.3-24,5.2c-3.6,0-7.3-0.5-10.9-1.2c-10.1-2.1-15.5-7.5-15.7-17.7c-0.4-13.2,0.5-26.5,0.7-39.7
		c0.2-11.8,0.3-23.6,0.1-35.5c-0.1-3.7-1.4-7.4-2.1-11.1c4.9-2.2,14,0.8,15.7,5.4c0.5,1.4-0.1,3.3-0.4,5c-1.4,8-2.9,15.9-4.5,25
		c9.3-2.4,17.2-4.7,25.3-6.3c3-0.6,6.5,0.2,9.6,1c1.4,0.4,2.4,2.2,3.6,3.4c-1.5,1.1-2.8,2.8-4.4,3C161.4,97.8,150.4,99.2,138,100.9z
		"/>
	<path d="M98.9,99.5c-4.9,4-9.5,7.8-14.2,11.6c-0.5-0.5-1-1-1.5-1.5c0.7-1.1,1.4-2.1,2.1-3.2c11.5-16.7,20.5-34.6,25.4-54.3
		c0.8-3.2,0.6-6.7,0.9-10c0.3-3.4,2-4.4,5.2-3c7,3.1,9.1,7.4,6.1,14.2c-6,13.5-12.3,26.9-18.5,40.4c-0.4-0.1-0.8-0.2-1.3-0.4
		c0.3,0.5,0.6,1.1,1,1.5c4,4.3,5.1,8.8,4.6,15.1c-1,14.6,0.1,29.3-0.1,44c-0.1,4.7-1.3,9.4-2.3,14c-0.2,0.9-1.6,2-2.6,2.3
		c-0.6,0.1-2-1-2.4-1.9c-2.6-5.4-4.4-10.7-3.8-17.3c1.5-15.5,1.6-31.2,2.2-46.8C99.9,102.8,99.3,101.2,98.9,99.5z"/>
	<path d="M26.1,138.5c1.4,3.7,3.1,6.7,3.5,9.8c0.8,7.5-1.5,14.5-5.4,20.8c-0.9,1.4-3.6,3-4.9,2.6c-1.7-0.5-3.4-2.8-3.9-4.6
		c-0.6-2.3-0.7-5.3,0.3-7.5C18.7,152.8,22.2,146.2,26.1,138.5z"/>
	<path d="M36.2,139.5C47,140.2,52.1,151,50.5,158c-0.8,3.5-4.8,5.1-6.4,2.7C39.9,154.3,37.3,147.3,36.2,139.5z"/>
	<path d="M70.9,151.1c-1.3,1.8-2.3,4.6-3.9,5c-1.5,0.3-4.2-1.6-5.2-3.3c-2.4-4.1-4.2-8.5-6-12.9c-0.2-0.6,1.2-2.7,1.8-2.7
		C64.3,137.5,70.1,143.9,70.9,151.1z"/>
	<path d="M72.4,135.1c11.3,0.3,16.7,5.2,16,12.7c-0.2,1.7-1.5,4.3-2.9,4.7c-1.3,0.4-4.1-0.9-4.9-2.3C77.5,145.3,75,140.1,72.4,135.1
		z"/>
	
	
	
	
</g>
</svg>
