<?xml version="1.0" encoding="utf-8"?>
<!-- Generator: Adobe Illustrator 22.0.0, SVG Export Plug-In . SVG Version: 6.00 Build 0)  -->
<svg version="1.1" id="图层_1" xmlns="http://www.w3.org/2000/svg" xmlns:xlink="http://www.w3.org/1999/xlink" x="0px" y="0px"
	 viewBox="0 0 200 200" style="enable-background:new 0 0 200 200;" xml:space="preserve">
<style type="text/css">
	.st0{fill:#FFFFFF;}
</style>
<g>
	
	<path d="M121.1,88.7c9.8-2.6,18.6-4.8,27.3-7.2c4.8-1.3,9.5-2.7,14.2-4.4c5.7-2.1,10.7-0.1,15.5,2.6c1.1,0.6,1.7,2.1,2.5,3.2
		c-1.2,0.7-2.3,1.7-3.5,1.9c-6.6,1.1-13.3,1.9-18.9,2.7c-0.2,3.6-0.5,6.7-0.7,9.7c-0.6,8.9-1.3,17.8-1.6,26.7
		c-0.5,14.5-0.5,29.1-1.4,43.6c-0.4,6.5-2.6,12.9-4,19.3c-0.9,0-1.8,0-2.6,0c-0.6-3-1.8-6-1.8-9c-0.3-19.2-0.3-38.4-0.4-57.6
		c-0.1-8-0.2-16-0.4-24c-0.1-1.9-0.6-3.7-1-5.7c-7.9,1.6-15.3,3-22.8,4.5c-4,24.7-5.2,50.8-26.6,68.6c-0.6-0.2-1.1-0.4-1.7-0.6
		c0.3-1.1,0.5-2.3,1-3.2c11.4-20.7,15.4-43.2,16.4-66.4c0.3-6.4,0.5-12.8,0.1-19.2c-0.3-4-2-7.9-2.8-11.9c-0.4-1.7-0.7-3.9,0.1-5.3
		c0.5-0.8,3.5-1.1,4.7-0.4c6.6,3.6,11.5,0.8,16-3.7c6.6-6.7,13.2-13.4,19.4-20.4c2.6-2.9,4.8-3.3,7.8-1.4c2,1.3,4,2.7,5.8,4.2
		c3.6,3,3.3,6.4-0.9,8.7c-10.7,5.8-21.3,11.6-32.2,16.9c-3.6,1.7-5.7,4-6,7.6C121.8,74.9,121.6,81.2,121.1,88.7z"/>
	<path d="M55.6,100.1c3.1,0.5,6.5,0.4,9.3,1.7c6.9,3.1,8.1,4.8,6.6,12c-1.4,6.6-0.9,13.6-1.3,20.8c5.2-0.7,10.1-1.4,16.2-2.2
		c-0.8-7-1.2-14.1-2.4-21c-0.7-3.8,1.5-4.6,3.8-4c3.3,0.9,6.4,2.8,9.3,4.6c0.9,0.5,1.7,2.2,1.5,3.2c-1.6,9.4-3.5,18.8-5.3,28.1
		c-0.6,3.3-1.1,8-5,7.5c-4.2-0.5-3.8-5.1-3.6-8.7c0-0.8,0-1.6,0-3.2c-4.9,0.9-9.6,1.4-14,2.7c-1.1,0.3-1.8,3.1-2.1,4.8
		c-3,14.9-11.8,24.8-25.7,30.4c-1,0.4-2.1,0.8-3.2,1.1c-0.4,0.1-0.9,0-2.6-0.2c11.2-8.8,18.6-19.3,20.6-34c-6.6,3-13.3,5.7-19.6,9.1
		c-3.2,1.7-4.8,1.4-6.7-1.4c-2.7-4-4.4-7.6-1.3-12.7c3.3-5.5,3.6-11.8,1.6-18.1c-0.4-1.3,0-2.9,0.1-4.4c1.6,0.3,3.4,0.1,4.8,0.9
		c6.8,3.7,7.5,5.5,6,13c-0.6,2.9-1,5.8-1.6,9.8c6.8-1.2,12.6-2.3,18.7-3.4c0-8.8,0.2-17.2-0.1-25.7c-0.1-2.2-1.8-4.3-2.7-6.6
		C56.3,103,56,101.4,55.6,100.1L55.6,100.1z"/>
	<path d="M55.7,100c-5.3,4.3-11.2,7.6-18.1,8.6c10.7-8.7,17.9-19.4,20.1-34c-6.6,3-13.3,5.6-19.6,9c-3.1,1.7-4.8,1.4-6.7-1.4
		c-2.9-4.1-4.1-7.7-1.2-12.7c3.2-5.5,3.6-11.8,1.6-18.1c-0.4-1.3,0.1-2.9,0.1-4.4c1.5,0.2,3.2,0.1,4.4,0.7c7,3.6,7.9,5.8,6.2,13.8
		c-0.6,2.7-0.9,5.5-1.4,9.3c6.7-1.3,12.6-2.4,18.9-3.6c-0.4-12,3-24.1-4.8-35.2c5.8-2.7,9.9,0.3,14.1,2.8c3.7,2.1,2.8,5.3,2.3,8.8
		c-0.9,7.1-1,14.2-1.4,21.7c5.3-0.7,10.2-1.4,16.3-2.3c-0.9-7.2-1.4-14.2-2.6-21.1c-0.6-3.6,1.8-4.5,3.7-3.9c3.7,1.2,7,3.5,10.4,5.5
		c0.6,0.3,0.8,1.7,0.7,2.5c-1.7,9.4-3.5,18.8-5.3,28.1c-0.6,3.3-1.1,7.9-5.2,7.4c-3.8-0.5-3.6-5-3.4-8.4c0.1-1.1-0.1-2.2-0.2-3.6
		c-5.1,1-9.9,1.9-15,2.8C67.8,83.2,64,92.8,55.7,100C55.6,100.1,55.7,100,55.7,100z"/>
</g>
</svg>
