<?xml version="1.0" encoding="utf-8"?>
<!-- Generator: Adobe Illustrator 22.0.0, SVG Export Plug-In . SVG Version: 6.00 Build 0)  -->
<svg version="1.1" id="图层_1" xmlns="http://www.w3.org/2000/svg" xmlns:xlink="http://www.w3.org/1999/xlink" x="0px" y="0px"
	 viewBox="0 0 200 200" style="enable-background:new 0 0 200 200;" xml:space="preserve">
<style type="text/css">
	.st0{fill:#FFFFFF;}
</style>
<g>
	
	<path d="M150.2,97.6c-15.9,1.9-31,3.8-46.6,5.6c-0.7,1.5-1.6,3.6-2.8,6.3c-4-3.2-5.1-7-5.6-11.2c-1.3-10.1-2.1-20.4-4.1-30.4
		c-1-5.1-4-9.9-6-14.8c-0.4-1.1-0.9-2.4-0.5-3.4c0.2-0.7,1.9-1.5,2.7-1.3c15.6,4.1,29.6-4.1,44.5-5.8c4.5-0.5,8.9-2.4,13.4-3.4
		c1.7-0.4,3.8-0.3,5.5,0.3c2.2,0.8,4.3,2.1,6.3,3.5c9.4,6.4,9.3,8.7,4.1,18.4c-5,9.4-8.8,19.5-12.6,29.4
		C147.6,92.5,149.4,95.1,150.2,97.6z M98.8,59.8c1.5,11.3,3,22.2,4.6,34.1c11.2-2.1,22.2-4.1,33.1-6.2c0.7-0.1,1.6-1.5,1.8-2.4
		c1.8-9.4,3.6-18.8,4.9-28.3c0.8-5.4-0.9-7.1-6.5-6.5C123.7,51.6,111.1,54.2,98.8,59.8z"/>
	<path d="M48.6,82.7c-9.7,13.3-20,24.9-33.9,32.4c-0.4-0.4-0.8-0.9-1.2-1.3c2.2-2.5,4.5-4.9,6.6-7.4c14.5-16.9,26.2-35.6,34.5-56.2
		c2.5-6.1,3.5-12.9,4.8-19.4c0.8-4.2,1.7-5.1,5.5-3.3c2.4,1.2,4.6,2.8,6.7,4.6c3,2.6,2.9,5.1,0.6,8.7c-4.7,7.4-8.5,15.4-12.6,23.1
		c-0.4,0.7-0.6,1.5-1.1,2.1c-4.4,5.6-6.4,11.1,0.1,16.8c1.1,1,1.5,3.2,1.4,4.8c-0.8,24-1.5,47.9-2.6,71.8c-0.2,4.7-1.8,9.3-3.2,13.9
		c-1,3-3.4,3.1-4.8,0.4c-3-5.8-6-11.4-4.3-18.6c5.5-23.4,5.7-47.2,4-71C49,84,48.9,83.7,48.6,82.7z"/>
	<path d="M158.8,164.5c-24.6,0.6-49.1,1.1-73.3,6.3c-6.2,1.3-11.3-2.5-16.2-5.8c-0.6-0.4-1.2-2.1-0.9-2.4c0.7-0.9,1.9-1.7,3-1.8
		c6-0.4,12.1-0.4,18.2-1c26.2-2.6,52.3-5.3,78.5-8c7.3-0.8,13,2.3,18.1,6.9c0.9,0.8,1.6,3,1.1,3.7c-0.8,1.1-2.6,2-4,2
		C175.1,164.6,167,164.5,158.8,164.5z"/>
	<path d="M154.8,129.2c-4.4,1-8.6,2.4-12.9,2.8c-13.8,1.4-27.6,2.5-41.4,3.5c-3.9,0.3-7.5-1.1-9.7-6c6.1-0.8,11.9-1.4,17.5-2.4
		c9.7-1.7,19.4-3.6,29.1-5.7C143.7,120,152.5,123.4,154.8,129.2z"/>
	
</g>
</svg>
