<?xml version="1.0" encoding="utf-8"?>
<!-- Generator: Adobe Illustrator 22.0.0, SVG Export Plug-In . SVG Version: 6.00 Build 0)  -->
<svg version="1.1" id="图层_1" xmlns="http://www.w3.org/2000/svg" xmlns:xlink="http://www.w3.org/1999/xlink" x="0px" y="0px"
	 viewBox="0 0 200 200" style="enable-background:new 0 0 200 200;" xml:space="preserve">
<style type="text/css">
	.st0{fill:#FFFFFF;}
</style>
<g>
	
	<path d="M54.4,128c-5.1,0-6-3.4-7-6.5c-0.9-2.7-1.1-5.7-2.2-8.3c-1.7-3.9-4-7.5-6.1-11.4c8.6-1,18-2.2,27.1-3.3
		c-0.8-5.7-1.5-10.7-2.2-16.3c-5.6,1.4-11.3,2.7-17,4.1c-5.6,1.3-10.3-0.3-13.9-5.2c10.6-1.7,20.9-3.3,31.3-4.9c0-3.7,0-7,0-10.6
		c-5.9,0-12.1,2.1-17.1-4c5.6-0.9,11.3-1.8,17.1-2.8c0-3.2,0-6.2,0-9.7c-3.9,0.3-7.7,0.8-11.4,0.8c-3.7,0-7.7,0.3-10.3-4.2
		c7.5-1,14.6-2,22.5-3c-0.7-5.8-1.3-11.1-2.2-16.4c-0.6-4.1,0.2-5.1,4.2-4c2,0.5,4,1.2,5.8,2.2c2.9,1.4,4.3,3.4,2.7,6.9
		c-1.2,2.7-1.4,5.8-2.1,9c8.4,1.3,17-6.9,25,2.6c-3.9,1-7.1,2-10.4,2.7c-2.3,0.5-4.7,0.9-7.1,1.3c-7.8,1.3-7.8,1.3-6.7,10.1
		c6.5-1.1,13.1-2.2,18.7,2.4c0.1,0.6,0.2,1.1,0.2,1.7c-3.9,0.7-7.7,1.5-11.6,2.1c-9.1,1.3-9.2,1.3-7.7,10.8c6.8,1,14.7-5.7,21.6,3.3
		c-6.8,0.9-12.5,1.9-18.3,2.5c-3.3,0.3-4.7,1.6-5.3,4.9c-0.7,4-2,8-3.2,12.6c2.3-0.8,4.5-1.3,6.3-2.4c5.7-3.5,10.8-1.4,15.8,1.4
		c3,1.7,3.1,3.7,1.1,6.7c-2.6,4.1-4.7,8.7-6.6,13.2c-0.6,1.4,0.4,3.4,0.7,5.8c-1.7,0.3-3.7,0.7-5.7,1.1c0,9.6,0,19.1,0,29.6
		c5.8-4.5,11.1-8.6,16.3-12.7c0.3,0.3,0.7,0.7,1,1c-1,1.5-1.8,3.1-3,4.5c-5.9,7.4-11.9,14.7-17.9,22c-2.8,3.4-5.3,3.3-7.3-0.6
		c-1.5-2.9-2-5.6-0.9-9.4c2.9-9.7,3.3-19.9,0.7-29.8c-1.3-4.8-4.6-2.1-7.9-1.7c4.1,4.3,2.9,7.8-0.1,11.7
		c-5.3,6.9-9.3,15.1-15.4,21.1c-5.4,5.3-12.9,8.6-19.6,12.4c-1.6,0.9-3.9,0.7-6,0.6C35.2,160,49.4,148,54.4,128z M55.1,120.9
		c4.8-1.1,9-2.4,13.4-2.9c7.1-0.8,10-4.4,10.1-11.4c0.1-3.6-0.7-5.3-4.3-4.6c-7.3,1.4-14.6,2.8-22.4,4.4
		C52.9,111.1,53.9,115.6,55.1,120.9z"/>
	<path d="M153.3,116.5c-3.5,0.4-6.9,0.7-11.3,1.2c4.9,3.2,3.9,6.2,2.7,10.6c-2.1,7.9-3,16.3-3.3,24.5c-0.2,5.8,3.2,8.8,9.1,10
		c2.6,0.5,5.4,0.8,8.1,0.7c12-0.3,16.3-4.2,18.2-16c0.6-4,1-8,2.6-12.2c0.4,1.3,0.8,2.5,1.2,3.8c1.9,5.7,4.2,11.4,5.6,17.3
		c0.6,2.6,0.4,6.2-0.9,8.4c-4.1,6.7-11.1,9-18.4,9.9c-5.3,0.6-10.9,0.5-16.2-0.4c-11.3-1.9-17.4-8.9-18-20.4
		c-0.4-8.1,0.1-16.3-0.1-24.5c-0.1-3.3-1-6.5-1.6-10c-2.9,0.4-5.1,0.7-7.8,1.1c1.1,1.5,2.4,2.5,2.9,3.8c0.7,1.8,1.8,4.4,1,5.7
		c-5.1,8.8-9.8,18.1-16.1,25.9c-4.4,5.4-11.1,9-17,12.9c-2.2,1.4-5.2,1.4-8.1,1.5c14.2-12.8,26.5-26.6,30.4-45.8
		c-0.4,0.1-0.9,0.3-1.3,0.4c-1.7-2.9-3.9-5.6-5.1-8.7c-1.3-3.2-1.3-7-2.5-10.2c-1.5-3.8-3.7-7.4-6-11.7c0.8-0.2,2.3-0.9,3.7-0.7
		c13.3,1.8,25.7-1.6,37.7-6.7c5.4-2.3,13.4-1.2,17.1,3.2c1,1.2,0.9,4.1,0.1,5.7c-2.3,5-5.3,9.7-7.6,14.8
		C151.8,111.9,152.9,114,153.3,116.5z M117.5,115.1c8.4-1.8,16.5-3.6,24.5-5.5c0.7-0.2,1.6-1.2,1.7-1.9c0.7-4,1.2-8,2-13.3
		c-11.2,2.1-21.1,4-31.1,5.9C115.5,105.3,116.4,109.8,117.5,115.1z"/>
	<path d="M125.4,89.8c-0.7-4.7-1.4-9.3-2.1-14c-6.9-0.4-14.5,5.7-21.5-2.7c7.7-1.2,14.8-2.4,21.9-3.5c0-3.7,0-7,0-10.4
		c-6.2,0.1-12.6,2.3-17.9-3.8c6-1.1,11.9-2.1,18-3.2c0-3,0-5.7,0-8.4c-5.9-1.6-12.8,2-18.6-4.4c6.8-0.9,12.6-1.7,19.2-2.6
		c-0.6-5.3-1.3-10.3-1.8-15.4c-0.2-1.6,0.1-3.3,0.1-4.9c1.7,0.1,3.4,0,5,0.3c1.5,0.3,3,1.1,4.4,1.8c3.1,1.4,4.1,3.4,2.8,6.9
		c-1.1,2.8-1.3,6-1.9,9.4c8.1,0.3,15.9-6.4,23.7,2.7c-8.2,1.7-15.5,3.2-23.2,4.9c-0.2,2.3-0.4,4.8-0.6,8c6.3-1.4,11.9-0.8,16.8,2.5
		c0.1,0.6,0.1,1.1,0.2,1.7c-3.1,0.7-6.2,1.7-9.3,2.1c-8.7,1.1-8.8,1.2-7.3,11.2c5.1-1,10.3-1.8,15.3-3.2c4.8-1.3,8.8,0,12.7,2.4
		c1,0.6,1.5,1.8,2.3,2.8c-1.1,0.7-2.2,2-3.4,2.1c-6,0.5-12.1,0.7-18.2,1c-0.3,0-0.6,0-1,0c-8.3,0.3-8.3,0.4-10.5,8.1
		c-0.8,2.9-1.9,5.8-2.9,8.7C126.9,89.9,126.2,89.8,125.4,89.8z"/>
	
	
</g>
</svg>
