<?xml version="1.0" encoding="utf-8"?>
<!-- Generator: Adobe Illustrator 22.0.0, SVG Export Plug-In . SVG Version: 6.00 Build 0)  -->
<svg version="1.1" id="图层_1" xmlns="http://www.w3.org/2000/svg" xmlns:xlink="http://www.w3.org/1999/xlink" x="0px" y="0px"
	 viewBox="0 0 200 200" style="enable-background:new 0 0 200 200;" xml:space="preserve">
<style type="text/css">
	.st0{fill:#FFFFFF;}
</style>
<g>
	
	<path d="M62.9,100.4c-13.3,18.8-29,32.4-51.6,36.2c1.2-1,2.4-2.1,3.8-3c16.4-11,30.6-24.3,41.3-40.9c6.1-9.5,6.4-12.6-0.2-23.3
		c-9.6,8.9-19.8,16.7-33.7,21c10-10.2,19-19.3,28.6-29C45,56.4,39.7,52,34.5,47.6c-1.1-0.9-1.6-2.4-2.4-3.7c1.6,0.1,3.4-0.4,4.6,0.3
		c6,3.3,11.8,7,17.9,10.7c4.4-7.1,9.7-13.7,9.9-22.8c0.1-3.9,2.2-4.8,5.4-3.2c2.3,1.1,4.5,2.4,6.6,3.9c5.3,4,5.2,5.4,1,10.5
		c-4.9,5.9-9.5,12-14.2,18.2c-0.6,0.8-0.9,2.6-0.4,3.3c6.6,9.6,8.5,20.7,9.5,31.8c1.6,18.8,2,37.7-1.6,56.4
		c-1.4,7.6-4.2,14.7-11,19.6c-3.2,2.3-5.4,2.2-8-1.2c-4.5-5.8-9.5-11.1-14.7-17.1c4.8,0.7,8.9,1.3,13.1,1.9c4.5,0.7,7.6-1.2,8.6-5.6
		c1.3-6.1,2.7-12.2,3.2-18.3c0.8-8.9,0.9-17.9,1.3-26.8C63.5,104.1,63.2,102.9,62.9,100.4z"/>
	<path d="M143.8,92.3c8.2-1.4,15.6-2.6,22.9-3.8c5.9-1,10.6,1.4,14.9,5c0.8,0.7,1.7,2.3,1.5,3.1c-0.3,0.8-1.9,1.6-3,1.7
		c-8.4,0.7-16.9,0.8-25.3,1.8c-18.9,2.2-37.7,4.6-56.5,7.4c-6.8,1-12.5-0.5-17.7-4.5c0-0.5-0.1-1.1-0.1-1.6
		c8.6-1.3,17.3-2.5,26.4-3.9c-0.8-8.4-1.5-16.4-2.3-24.7c-3.5-0.5-7-0.8-10.3-1.6c-1.5-0.4-2.6-1.9-3.9-2.9c1.5-0.9,3-2.1,4.7-2.5
		c2.7-0.7,5.6-0.8,9.6-1.2c-1.7-8.3-3-16.2-4.9-24c-0.8-3.2,0.6-4.7,3-4.4c3.6,0.4,7.1,1.6,10.4,3.2c1.1,0.5,1.7,3.2,1.7,4.9
		c-0.1,6-0.6,12-1,18.9c8-1.4,15.1-2.7,23.5-4.2c-0.8-10.3-1.5-20.2-2.6-30.1c-0.3-3.1,0.6-4.5,3.4-4.3c6.1,0.3,11,3.1,14.7,7.8
		c0.7,0.9,0.5,2.7,0.2,4c-1.4,6.4-3,12.7-4.4,18.7c5.9,1.6,11.1,3,16.3,4.4c0,0.8,0.1,1.6,0.1,2.4c-2.8,0.9-5.6,1.9-8.5,2.6
		c-2.2,0.5-4.5,0.3-6.6,0.9c-1.1,0.3-2.5,1.6-2.7,2.6C146,75.7,145,83.6,143.8,92.3z M115.7,96.3c5.9-0.8,11-1.4,16.2-2.3
		c1-0.2,2.4-1.4,2.5-2.2c0.6-8,0.9-16.1,1.3-24.4c-6.5,1-12.3,1.9-18.1,3c-1.1,0.2-2.7,1.6-2.7,2.4C115,80.6,115.4,88.3,115.7,96.3z
		"/>
	<path d="M96.2,118.3c0.5-0.1,2-1,3-0.7c9.7,3.1,18.9-0.6,28.2-2.2c4.1-0.7,8.1-1.9,12-3.3c3.9-1.5,7-1.1,10.6,1.4
		c5,3.4,6.5,6.4,5.5,13.2c-1.5,9.9-0.1,20.3,0.7,30.5c0.5,6.8-0.5,12.8-5.3,17.7c-3.2,3.3-5.2,2.8-7.3-1.2
		c-3.9-7.4-3.9-7.3-12.4-6.5c-8.1,0.7-16.2,1.3-24.4,2c-0.5,2.2-1.1,4.6-1.7,7c-5-1.5-8.2-8.4-7.7-14.1c0.9-10.8,1.7-21.7,1.9-32.5
		C99.4,126.1,97.5,122.7,96.2,118.3z M146.1,141.3c-13.3,1.3-25.5,6-38.8,2.9c0,5.9,0,11.5,0,17.2c12.3,0.9,24.1-5.6,37.4-1.1
		C145.1,153.8,145.6,147.6,146.1,141.3z M145.6,138.3c0-2.5,0-3.9,0-5.4c0-1.6,0-3.2,0-4.8c-0.2-6.1-0.5-6.8-6.6-6.4
		c-10.3,0.7-20.5,2-31.1,3c0,5.4,0,10.3,0,15.4c4.4-0.7,8.6-1.4,12.8-2.2C128.9,136.5,136.9,132.6,145.6,138.3z"/>
	
	
	
</g>
</svg>
