<?xml version="1.0" encoding="utf-8"?>
<!-- Generator: Adobe Illustrator 22.0.0, SVG Export Plug-In . SVG Version: 6.00 Build 0)  -->
<svg version="1.1" id="图层_1" xmlns="http://www.w3.org/2000/svg" xmlns:xlink="http://www.w3.org/1999/xlink" x="0px" y="0px"
	 viewBox="0 0 200 200" style="enable-background:new 0 0 200 200;" xml:space="preserve">
<style type="text/css">
	.st0{fill:#FFFFFF;}
</style>
<g>
	
	<path d="M144.5,167.2c3.1,0.4,6.3,0.7,9.4,1.3c4.3,0.9,6.5-0.5,6.8-4.9c0.4-6.5,0.8-13,1.3-19.9c-6,0.6-11.3,1.2-16.6,1.6
		c-2.9,0.2-3.7,1.5-3.8,4.2c-0.3,7.2-0.7,14.4-1.5,21.5c-0.4,3.2-1.9,6.3-3.7,9.3c-4.3-5-3.7-10.6-3.8-16c-0.1-5.6,0-11.1,0-16.9
		c-5,0-10.2,0-15.8,0c-1.5,9-4.2,17.7-11.5,24c-2.9,2.5-6.5,4.3-10.5,5.9c15.4-16.4,15.4-36.2,14.7-55.6c-8.4,6.5-16.8,13-25.2,19.4
		c-0.8,0.6-2,0.7-3.7,1.4c0.7-1.6,1-2.5,1.7-4.1c-7.7,0.6-14.9,1.2-22.4,1.8c-0.4,7.6-0.8,14.8-1.2,21.9c-0.4,6.8,1,14-4.6,20.4
		c-4.8-5.4-6.8-11-6.1-17.4c0.8-7.6,1.8-15.2,2.9-23.8c-7.3,1.4-14,2.5-20.6,3.9c-6.3,1.4-11.4-0.6-16-6.1
		c12.1-2.1,24.2-4.2,36.6-6.3c0-4.4,0-8.7,0-13.7c-4.6,2-10.3-1.6-14.1,5.7c-1.7-3-3.3-5.1-4-7.4c-1-3.2-1.1-6.6-2.1-9.8
		c-1.5-4.5-3.4-8.9-5.3-13.6c7.8-0.6,16.6-1.2,26.3-2c-1.3-5.4-2.4-9.7-3.7-15c-1.8,2.1-2.9,3.5-4.3,5c-6.8-5.8-3.8-14.4-6.6-21.4
		c-6.9,2.2-13.7,3.9-20.1-3.2c6.9-1.3,13-2.4,20.6-3.9c-1.6-4.9-3.1-9.6-4.7-14.3c-0.4-1.1-0.8-2.3-1.2-3.4c1.3-0.3,2.6-1,3.9-1
		c5.9,0.2,8.3,2.8,8.8,8.9c0.2,2.7,0.7,5.3,1,8.5c5.6-1.1,11-2.2,17.6-3.5c-0.5-6.5-0.7-13-1.5-19.4c-0.4-3.1,0.6-4.9,3.3-4
		c3.6,1.3,7,3.5,10.1,5.8c0.8,0.6,0.5,3.2,0.1,4.7c-0.8,3.3-2,6.6-3.3,10.6c7.6-1.7,13.3-0.2,18.2,7c-4.3,0.5-7.6,1.1-10.9,1.2
		c-8.5,0.3-8.5,0.2-10.3,8.5c-1.5,7-1.5,7,1.6,11.9c-4.2,0.6-8.2,1.2-11.4,1.6c0.8,4.2,1.5,8.2,2.4,12.7c4.2-0.9,8.9-1.9,13.4-3
		c3.6-0.9,12,3.1,13,6.6c0.3,0.9-0.4,2.3-1,3.3c-3,4.7-6,9.4-9,13.9c1.2,1.8,2.2,3.1,3.7,5.2c-5.8,0.6-10.6,1.5-15.4,1.5
		c-5.4,0-7.1,2.2-6.4,7.2c0.3,2,0,4.1,0,6.7c9.6-2.4,19-5.8,26.9,3.8c10.1-12.4,19.5-24.4,22.4-39.5c-5.6-1.9-10.3-3.6-15.1-5.2
		c0.1-0.8,0.2-1.5,0.2-2.3c7.6-1.1,15.1-2.2,23.3-3.3c-0.4-5.2-0.8-10.4-1.2-15.7c-4.6-1.4-10.2,0.1-13.8-6
		c4.6-0.7,8.6-1.3,13.9-2.1c-1.3-6.6-2.2-13.1-3.9-19.2c-1-3.6,0.3-4.5,3.2-4.5c7.6-0.1,10.5,3.3,9.5,10.7c-0.2,1.6-0.2,3.2-0.2,4.8
		c0,2.2,0.2,4.4,0.3,7.2c5.8-1.1,11.3-1.9,16.7-3.2c1.1-0.3,2.6-2.4,2.5-3.7c-0.2-7.3-0.6-14.5-1.3-21.8c-0.3-3.1,1.7-4.2,3.7-3.4
		c3.8,1.5,7.4,3.6,10.6,6c0.9,0.7,0.6,3.5,0.3,5.2c-0.8,4.7-1.9,9.3-2.6,12.8c4.8,1.3,8.8,2.2,12.7,3.5c0.9,0.3,1.8,1.8,1.9,2.8
		c0.1,0.6-1.3,1.8-2.2,2c-3.7,1.1-7.5,1.7-11.1,2.9c-1.2,0.4-2.8,1.7-3,2.8c-1,4.5-1.5,9.1-2.2,14.3c6.3-1,11.9-2.1,17.5-2.6
		c6.1-0.6,10.6,2.3,14.7,8c-2.5,0.6-4.2,1.3-5.9,1.4c-18.4,1.7-36.9,3.3-55.4,4.9c-1.6,0.1-3.1,0.6-5,1c1.9,2.3,4.4,4.1,4.9,6.4
		c0.4,1.9-1.7,4.3-3.1,7.3c6.6-0.9,12.8-1.5,19-2.7c6.7-1.3,13.4-3,20.1-4.6c4.8-1.1,14.3,3.2,16.2,7.7c0.4,0.9,0.5,2.3,0.2,3.2
		c-4.8,10.9-3,22.3-3.2,33.6c-0.1,9.9,0.4,19.8-0.6,29.6c-0.4,4-3.7,7.9-6.2,11.5c-0.6,0.9-4.2,1-5.1,0.1
		c-5.3-5.2-10.2-10.9-15.3-16.3C144.2,167.8,144.3,167.5,144.5,167.2z M143,81.1c0.3-5.8,0.6-10.8,0.9-16.2
		c-6.5,0.9-12.4,1.8-18.1,2.6c0,5.6,0,10.7,0,16.1C131.9,82.6,137.3,81.9,143,81.1z M161.4,122c-0.2-3.7-0.1-7.2-0.8-10.6
		c-0.3-1.4-2.2-3.5-3.4-3.5c-5.1,0-10.2,0.6-14,0.9c0.2,4.5,0.4,8.2,0.6,12.1c2.5-0.3,5.4-1,8.1-0.9
		C154.8,120.3,157.7,121.2,161.4,122z M161.3,125.8c-6.2,0.8-12.2,1.5-18.6,2.3c-0.2,3.6-0.4,7-0.6,10.3c6.7,0,12.9,0,19.2,0
		C161.3,134.6,161.3,130.2,161.3,125.8z M74.7,93.9c-5.6,0.6-9.9,1-14.4,1.5c0,5.3,0,10.1,0,15.4c4-0.8,7.7-1.5,11.6-2.3
		C72.8,103.9,73.6,99.5,74.7,93.9z M46.2,72.1c13.1-0.3,15.5-2.8,14.5-15.5c-5,0.8-9.9,1.6-14.5,2.3C46.2,63.5,46.2,67.6,46.2,72.1z
		 M37.3,99.7c0.8,5.2,1.4,9.6,2.1,14.4c4.1-0.5,7.7-1,11.2-1.4c0-5.4,0-10.4,0-15.8C46.1,97.8,41.9,98.7,37.3,99.7z M117,142.5
		c5.7-0.8,10.7-1.4,16-2.2c0-3.7,0-7,0-10.5c-5.1,0-9.9,0-15.2,0C117.6,134,117.3,137.9,117,142.5z M133.1,122.9
		c-0.5-3.7-0.8-6.9-1.6-9.9c-0.2-0.9-1.9-2.2-2.8-2.1c-3.1,0.2-6.2,1-9.5,1.6c-0.4,4-0.8,7.9-1.3,12.3
		C123.2,124.1,127.7,123.6,133.1,122.9z"/>
	
	
	
	
	
	
	
	
</g>
</svg>
