<?xml version="1.0" encoding="utf-8"?>
<!-- Generator: Adobe Illustrator 22.0.0, SVG Export Plug-In . SVG Version: 6.00 Build 0)  -->
<svg version="1.1" id="图层_1" xmlns="http://www.w3.org/2000/svg" xmlns:xlink="http://www.w3.org/1999/xlink" x="0px" y="0px"
	 viewBox="0 0 200 200" style="enable-background:new 0 0 200 200;" xml:space="preserve">
<style type="text/css">
	.st0{fill:#FFFFFF;}
</style>
<g>
	
	<path d="M95.9,73.1c5.2-0.8,10.5-1.7,15.7-2.5c15-2.5,29.9-4.9,44.9-7.4c5.9-1,13.1,2.5,16.4,8.5c-1.7,0.6-3.2,1.4-4.7,1.5
		c-4,0.4-8,0.6-12,0.8c-16.1,0.6-16.3,0.7-27.1,14.7c8.1-1.5,15.5-2.9,22.9-4.4c4-0.8,14.4,3,16.3,6.2c0.6,1,0.8,2.6,0.4,3.6
		c-3.7,10.1-2.3,20.5-2.2,30.9c0.1,5.3,0,10.5,0,15.8c0,0.8-0.1,1.7-0.4,2.3c-1.9,3-3.9,5.9-5.9,8.9c-2-2.5-3.9-4.9-5.9-7.4
		c-0.3-0.4-0.5-0.8-1.1-1.5c-8.2,0.9-16.5,1.8-26,2.8c1.4,0.9,1.8,1.3,2.3,1.5c7.2,3.7,7.3,5.1,0.8,9.7c-8.4,6-16.6,12.5-25.1,18.3
		c-3.5,2.4-7.9,3.6-11.9,5.3c-0.3-0.5-0.6-1.1-0.9-1.6c1.2-1.1,2.5-2.1,3.6-3.2c6.6-6.7,13.4-13.3,19.7-20.3c2-2.2,2.8-5.3,4.4-8.6
		c-2.8-0.4-4.4-0.6-6.1-0.9c-0.6,1.8-1.2,3.5-1.8,5.3c-5-2.3-7.8-9.1-7.3-15.1c1-11,1.8-22,2-33c0.1-4-1.9-8.1-3.1-12.8
		c0.4-0.1,1.7-0.5,3.1-0.7c0.4-0.1,0.9,0.2,1.4,0.2c12.1,1.1,13.3,0.9,16.4-12.7C115,78.1,104.7,83.2,95.9,73.1z M153.6,101.4
		c0.8-9-1-10.7-10.6-9.5c-6,0.8-12,1.6-18,2.4c-10.6,1.5-10.6,1.5-9.7,12.4c0,0.3,0.2,0.6,0.5,1.3
		C128.1,105.9,140.5,103.7,153.6,101.4z M154.5,108.6c-13.4,1.8-26.3,3.5-39.4,5.2c0,3.6,0,7,0,10.5c13.3-1.7,26.2-3.3,39.4-4.9
		C154.5,116.2,154.5,112,154.5,108.6z M114.4,140.1c3.9-0.4,7.3-0.8,10.8-1c9.5-0.5,18.8-5.5,29-1.1c0-4.6,0-8.6,0-11.5
		c-13.2,1.1-26.4,2.3-39.8,3.4C114.4,133,114.4,136.2,114.4,140.1z"/>
	<path d="M70.3,54.7c3.7-1,6.5-1.3,9.1-2.5c4.9-2.2,9-0.3,13.1,2.1c1,0.5,2.1,2,2,2.9c-0.1,0.9-1.6,2-2.7,2.3
		c-5.9,1.5-11.8,2.7-17.7,4c-1.2,0.3-2.4,0.5-3.2,0.7c-1.8,17.8-3.5,35.3-5.2,52.5c5.8,3.3,12.4,6.6,18.4,10.7
		c6.3,4.4,8.4,10.9,6.5,16.6c-1.4,4.1-3.4,5-6.6,2.1c-2.9-2.7-5.4-5.8-7.8-9c-4-5.2-7.7-10.5-12.1-16.5c-2.1,5.3-3.6,9.6-5.4,13.8
		c-6,14.6-15.4,26.2-29.9,32.9c-3.3,1.5-7,2.1-10.5,3.1c-0.2-0.5-0.4-1-0.6-1.5c3.6-3,7.3-5.9,10.9-8.9c18.1-14.8,27-34.4,29.2-57.3
		c1-10.5,1.4-21,2-31.6c0.1-1.7,0-3.4,0-5c-8.8-0.7-18,3.7-26.3-5.1c9.6-1.5,17.8-2.7,27.3-4.2c-1.4-9.1-2.3-17.6-4.2-25.9
		c-1.3-5.8-0.3-7.5,5.6-6.4c2,0.4,4.1,0.9,6,1.7c3.7,1.5,5,3.6,3.9,8.1C70.6,40.7,70.8,47.3,70.3,54.7z"/>
	<path d="M37.4,100.6c-6.2,8.1-12,15.8-22.8,20c1.2-2.1,1.8-3.2,2.5-4.2c5-7.4,10.4-14.6,14.7-22.4c2.3-4,3.1-9,3.7-13.7
		c0.5-3.6,2-4,4.7-3c1.6,0.6,3.3,1.3,4.8,2.2c4.1,2.6,4.3,4.6,1.3,8.5c-2,2.6-4,5.3-6.2,8.2c3.9,1.9,7.8,3.1,10.8,5.4
		c1.9,1.4,3.3,4.3,3.5,6.6c0.2,1.9-1.4,5-3,5.8c-1.3,0.6-4.3-1.2-5.7-2.7C42.7,108.2,40.4,104.5,37.4,100.6z"/>
	<path d="M148.2,44.1c3.5,1,6.3,1.6,9,2.6c4.5,1.7,8.6,4.1,9.5,9.2c0.3,1.7-0.3,4.4-1.5,5.5c-0.9,0.8-3.9,0.4-5.2-0.5
		c-6.1-4.3-12.1-8.8-18-13.4c-2.2-1.7-1.6-3.2,0.2-5.5c4.2-5.4,8-11.1,11.2-17c2.3-4.2,3.6-5.1,7.6-2.3c1.5,1.1,2.9,2.5,4,4
		c1.9,2.6,1.4,4.6-1.5,6.2c-3.9,2.2-7.6,4.7-11.3,7.2C150.8,41,149.8,42.4,148.2,44.1z"/>
	<path d="M83.2,95.6c-4.2,5.3-8,10.4-15.7,13C73.8,96.4,81.3,86,80.8,72.3c5.1,0.2,9,1.7,11.7,5.2c0.8,1,0.2,3.6-0.6,5
		c-1.8,3.2-4.1,6-6.4,9.3c3.5,1.6,6.7,2.9,9.6,4.6c1.7,1,3.8,2.7,4,4.4c0.3,2.4-0.9,5-1.5,7.4c-2-0.8-4.6-1-6-2.4
		C88.6,102.8,86.1,99.3,83.2,95.6z"/>
	<path d="M119.8,30.2c-1.4,1.8-2.3,3.2-3.5,4.3c-3,3-6.3,5.9-9.3,9c-2.2,2.3-2.2,3.9,1.5,4.9c5.3,1.3,9.4,4.4,10.2,10.1
		c0.3,2-1.2,4.2-1.9,6.3c-1.9-0.8-4.1-1.2-5.6-2.4c-4.1-3.4-7.9-7.3-12-10.9c-2.4-2.1-2.7-3.8-1-6.9c3.3-5.9,6.2-12.2,8.5-18.5
		c2-5.5,3.3-6.3,7.8-2.5C116.5,25.4,117.9,27.8,119.8,30.2z"/>
	<path d="M126.1,45.6c4.6,1.7,7.5,2.6,10.2,3.8c3.8,1.8,6.5,4.9,6.6,9.3c0,1.5-0.9,3.5-2.1,4.3c-0.9,0.6-3.2,0-4.2-0.9
		c-5.2-4-10.3-8.1-15-12.5c-1-0.9-1.2-3.8-0.5-5.2c3.3-6.8,7.2-13.4,10.4-20.2c1.5-3.2,3.1-3.6,5.9-2.1c6.4,3.6,6.7,8.4,1,12.8
		C134.3,38,130.7,41.5,126.1,45.6z"/>
	<path d="M143.1,153.1c8.9,0.7,15.7,3.7,22.4,6.8c2.4,1.1,4.7,2.7,6.8,4.4c4.1,3.2,5.2,9.4,2.8,14c-1.5,2.8-3.8,3.6-6.3,1.7
		c-2.8-2.1-5.4-4.4-7.9-6.9c-5.2-5.4-10.3-10.9-15.4-16.4C144.9,155.9,144.5,155.1,143.1,153.1z"/>
	
	
	
</g>
</svg>
