<svg enable-background="new 0 0 400 400" viewBox="0 0 400 400" xmlns="http://www.w3.org/2000/svg"><path d="m374.8 390.4.4-.4c.7.5 1.3 1 1.8 1.4l-.5.5c-.5-.6-1.1-1.1-1.7-1.5zm1 7.3-.6-.3c.5-1.4 1.1-2.8 1.5-4.3.2.1.4.2.6.3-.5 1.3-1 2.8-1.5 4.3zm-.4-10.3.4-.4c.4.3 1 .8 1.7 1.4l-.5.5c-.4-.5-1-1-1.6-1.5zm2.5.3h1.7v-1h.6v1h3.5v-1h.6v1h1.8v.5h-1.8v1.4h-2v1h3.2v2h-3.2v.9h3.3v.5h-3.4c0 .3-.1.6-.1.9h4v.5h-3.7c.7.9 1.9 1.5 3.8 1.7-.1.2-.2.4-.3.6-2.1-.4-3.5-1.1-4-2.1-.4 1-1.8 1.7-4 2.2-.1-.2-.2-.4-.3-.6 2.1-.4 3.4-1 3.8-1.8h-3.4v-.5h3.6c.1-.3.1-.6.2-.9h-3.3v-.5h3.4c0-.3 0-.6 0-.9h-3.2v-2h3.3v-1h-2.1v-1.4h-1.7v-.5zm1.1 3.5v1h2.7c0-.3 0-.4 0-.4 0-.1 0-.2 0-.2 0-.1 0-.2 0-.3h-2.7zm1.2-3v.9h3.5v-.9zm4.7 3h-2.6v.6.4h2.6z" fill="#fcfbfa"/><path d="m393.6 386.7h.6v1.5h2.7v6.1h1.1v.6h-11v-.6h1.1v-6.1h2.7v-1.5h.6v1.5h2.1v-1.5zm-2.7 8.8.4.6c-1.2.6-2.5 1.3-3.8 1.9-.1-.2-.2-.4-.3-.6 1.2-.6 2.5-1.2 3.7-1.9zm-2.2-6.7v2.4h2.1v-2.4zm0 3v2.5h2.1v-2.5zm2.8-3v2.4h2.1v-2.4zm.1 3v2.5h2.1v-2.5h-2.2zm5.9 6.1c-1.4-.7-2.7-1.3-3.9-1.8l.3-.6c1.5.6 2.7 1.2 3.9 1.7zm-1.2-9.1h-2.1v2.4h2.1zm-2.1 3v2.5h2.1v-2.5z" fill="#fcfbfa"/><g fill="#010104"><path d="m34.22 285.35c44.76-17.13 78.77-47.65 106.27-87.46-8.49 2.39-16.04 4.77-23.73 6.62-13.86 3.33-27.83 6.24-41.69 9.58-1.89.46-3.78 2.07-5.07 3.65-1.88 2.29-3.12 5.09-4.82 7.54-2.12 3.06-4.32 2.51-5.46-.65-2.96-8.23-5.6-16.57-8.04-23.87 2.74-2.4 4.95-3.76 6.39-5.69 20.69-27.8 39.7-56.63 53.78-88.46.72-1.63 1.4-3.29 2.29-5.38-1.91-.09-3.33-.22-4.75-.21-20.99.05-41.98.09-62.98.2-3.63.02-8.39 1.89-10.62.22-2.93-2.2-3.9-7.04-5.65-10.78-.47-1.01-.71-2.12-1.15-3.45 34.72 6.85 69.49 2.24 104.57 4.06-5.08-21.64-16.46-38.41-31.9-52.67 2.83-4.15 5.59-5.1 9.78-1.56 9.13 7.73 18.76 14.87 27.9 22.59 9.63 8.13 13.84 18.16 8.5 31.31h10.8c13.5 0 26.99.11 40.49-.12 1.99-.03 4.47-1.17 5.83-2.63 5.21-5.57 10.06-11.49 15.33-17.61 9.12 7.18 18.04 14.07 26.76 21.21 1.15.94 2.08 3.36 1.69 4.68-.46 1.55-2.26 3.16-3.86 3.8-1.92.77-4.23.72-6.38.72-32.66.04-65.31.04-97.97-.01-2.63 0-4.54.34-6.14 2.96-19.39 31.88-41.13 62.11-64.45 91.22-.49.61-.89 1.31-1.9 2.81 5.01-.42 9.22-.57 13.37-1.15 20.7-2.9 41.41-5.77 62.05-9.07 2.63-.42 5.68-2.81 7.15-5.16 10.25-16.34 19.53-33.21 26-52.48 10.67 5.72 22.01 9.48 30.92 18.53-4.79 4.74-10.54 5.16-16.03 5.32-3.92.11-5.88 1.5-7.64 4.82-21.8 41.06-51.03 75.75-88.83 103.03-16.41 11.84-34.24 21.05-53.19 28.08-5.19 1.91-5.22 1.82-7.62-4.54z"/><path d="m338.83 30.29c10.29 3.04 21.4 6.17 32.39 9.71 1.86.6 3.17 2.92 4.73 4.45-1.74 1.6-3.23 3.9-5.28 4.65-4.48 1.64-9.26 2.48-14.67 3.84v5.93c0 90.81-.11 181.62.08 272.42.05 21.02-5.97 31.28-32.96 37.56-2.42-19.05-18.61-18.97-31.95-22.58-5.71-1.54-11.77-1.79-17.95-2.66 0-2.36 0-4.78 0-7.34 9.41 1.35 18.67 3.13 28.01 3.9 9.1.75 18.29.83 27.42.55 6.16-.19 8.51-2.81 9.59-8.83.44-2.44.57-4.96.57-7.44.03-87.97.02-175.95.02-263.92 0-9.75 0-19.48 0-30.24z"/><path d="m28.28 369.01c-1.12-2.29-1.84-3.77-3.01-6.17 86.66-28.97 144.13-89.5 183.9-169.23 11.99 4.02 26.62 12.7 30.32 18.71-3.08 1.23-5.91 2.64-8.9 3.47-2.7.74-5.67.53-8.34 1.33-2.11.63-4.55 1.71-5.81 3.38-13.6 18.05-26.93 36.31-40.51 54.37-2.78 3.69-6.34 6.8-9.94 10.6 2.11 1.31 3.99 2.49 5.88 3.66 20.7 12.83 40.65 26.72 57.85 44.04 6.35 6.39 11.15 14.44 8.48 24.21-.7 2.56-3.29 5.52-5.73 6.48-3.47 1.37-7.17.08-9.55-3.46-7.16-10.62-14.05-21.43-21.65-31.73-11.05-14.98-25.07-27.01-40.05-38.54-32.78 30.46-68.83 55.72-110.92 71.49-7.13 2.67-14.43 4.86-22.02 7.39z"/><path d="m270.31 65.11c11.44 2.97 22.48 5.67 33.39 8.82 2.04.59 3.57 2.97 5.33 4.53-1.66 1.57-3.06 3.75-5.03 4.6-4.07 1.76-8.49 2.67-12.65 4.25-1.19.45-2.3 1.87-2.82 3.1-.48 1.13-.11 2.62-.11 3.96 0 50.82-.07 101.64.07 152.46.02 7.46 1.32 14.9 1.51 22.37.23 9.36-6.84 14.6-15.59 11.46-1.92-.69-4.26-3.73-4.26-5.69-.01-10.97.62-21.94 1.05-32.91.09-2.15.37-4.31.37-6.46.02-48.32.07-96.64-.04-144.96-.01-7.97-.74-15.93-1.22-25.53z"/></g></svg>