<svg enable-background="new 0 0 400 400" viewBox="0 0 400 400" xmlns="http://www.w3.org/2000/svg"><path d="m374.8 390.4.4-.4c.7.5 1.3 1 1.8 1.4l-.5.5c-.5-.6-1.1-1.1-1.7-1.5zm1 7.3-.6-.3c.5-1.4 1.1-2.8 1.5-4.3.2.1.4.2.6.3-.5 1.3-1 2.8-1.5 4.3zm-.4-10.3.4-.4c.4.3 1 .8 1.7 1.4l-.5.5c-.4-.5-1-1-1.6-1.5zm2.5.3h1.7v-1h.6v1h3.5v-1h.6v1h1.8v.5h-1.8v1.4h-2v1h3.2v2h-3.2v.9h3.3v.5h-3.4c0 .3-.1.6-.1.9h4v.5h-3.7c.7.9 1.9 1.5 3.8 1.7-.1.2-.2.4-.3.6-2.1-.4-3.5-1.1-4-2.1-.4 1-1.8 1.7-4 2.2-.1-.2-.2-.4-.3-.6 2.1-.4 3.4-1 3.8-1.8h-3.4v-.5h3.6c.1-.3.1-.6.2-.9h-3.3v-.5h3.4c0-.3 0-.6 0-.9h-3.2v-2h3.3v-1h-2.1v-1.4h-1.7v-.5zm1.1 3.5v1h2.7c0-.3 0-.4 0-.4 0-.1 0-.2 0-.2 0-.1 0-.2 0-.3h-2.7zm1.2-3v.9h3.5v-.9zm4.7 3h-2.6v.6.4h2.6z" fill="#fcfbfa"/><path d="m393.6 386.7h.6v1.5h2.7v6.1h1.1v.6h-11v-.6h1.1v-6.1h2.7v-1.5h.6v1.5h2.1v-1.5zm-2.7 8.8.4.6c-1.2.6-2.5 1.3-3.8 1.9-.1-.2-.2-.4-.3-.6 1.2-.6 2.5-1.2 3.7-1.9zm-2.2-6.7v2.4h2.1v-2.4zm0 3v2.5h2.1v-2.5zm2.8-3v2.4h2.1v-2.4zm.1 3v2.5h2.1v-2.5h-2.2zm5.9 6.1c-1.4-.7-2.7-1.3-3.9-1.8l.3-.6c1.5.6 2.7 1.2 3.9 1.7zm-1.2-9.1h-2.1v2.4h2.1zm-2.1 3v2.5h2.1v-2.5z" fill="#fcfbfa"/><g fill="#010104"><path d="m333.96 325.32c9.73 7.72 19.19 15.04 28.42 22.64 3.48 2.86 2.1 7.79-2.31 8.81-1.91.44-3.97.29-5.97.29-97.33.01-194.65.01-291.98.01-1.99 0-3.97 0-6.45 0-.1 2.06-.18 3.84-.27 5.63-.25 4.84-1.98 6.78-6.86 6.22-7.95-.91-12.26-2.41-11.62-12.5 6.27-99.19 1.4-198.49 2.83-297.73.11-7.59-1.04-15.2-1.65-23.45 5.67 4.16 11.08 8.37 16.77 12.16 2.05 1.37 4.78 2.44 7.2 2.44 79.99.12 159.99.13 239.99-.03 2.23 0 5.01-1.45 6.6-3.12 5.14-5.4 9.83-11.21 14.96-17.17 9.15 7.23 18.11 14.13 26.78 21.38 1.26 1.05 1.81 4.02 1.35 5.74-.38 1.41-2.62 2.61-4.29 3.3-1.28.53-2.96.14-4.46.14-93.49 0-186.99 0-280.48 0-2.14 0-4.28 0-6.75 0v286.7c1.76.08 3.51.23 5.26.23 83.16.01 166.32-.01 249.48.08 3.49 0 5.82-.98 8.02-3.73 4.75-5.99 9.91-11.65 15.43-18.04z"/><path d="m217.7 71.16c9.9 2.96 19.08 5.48 28.07 8.57 1.88.65 4.01 3.29 4.23 5.22.16 1.46-2.25 3.73-4.03 4.77-2.95 1.73-6.31 2.75-9.72 4.17v28.94h4.93c16.33 0 32.66.13 48.98-.14 2.43-.04 5.31-1.49 7.14-3.19 4.49-4.18 8.5-8.88 13.25-13.97 8.62 6.29 17.24 12.4 25.58 18.86 1.11.86 1.59 3.76 1.03 5.22-.55 1.46-2.64 2.55-4.28 3.29-1.11.5-2.62.11-3.96.11-28.99 0-57.98 0-86.97 0-1.79 0-3.59 0-5.62 0v45h9.79c10.16 0 20.33.14 30.49-.12 2.02-.05 4.46-1.16 5.91-2.58 4.6-4.53 8.82-9.44 13.53-14.57 8.38 6.17 16.65 12.02 24.56 18.32 1.5 1.2 2.27 4.35 1.96 6.39-.17 1.11-3.31 2.5-5.12 2.52-25.16.16-50.32.11-75.48.11-1.79 0-3.57 0-5.62 0v54.2c1.49.11 2.94.31 4.4.31 19.49.02 38.99.13 58.48-.14 2.42-.03 5.29-1.6 7.11-3.34 4.55-4.36 8.61-9.23 13.2-14.25 8.16 6.09 16.34 12.02 24.25 18.28 1.45 1.15 2.98 4.27 2.4 5.43-.84 1.67-3.58 3.34-5.53 3.36-32.16.2-64.31.14-96.47.14-2.47 0-4.94 0-8.11 0v5.66c0 20.16.13 40.32-.15 60.48-.04 2.76-1.42 7.19-3.28 7.87-3.54 1.31-8.03 1.12-11.8.21-1.52-.37-3.07-4.26-3.08-6.55-.02-7.47 1-14.94 1.01-22.42.09-68.81.08-137.62.01-206.44-.02-6.1-.66-12.21-1.09-19.72z"/><path d="m88.08 319.1c35.85-15.93 55.66-44.73 65.18-82.89-4.31 2.19-7.79 4.2-11.46 5.77-15.26 6.53-30.61 12.86-45.84 19.45-1.55.67-2.93 2.45-3.71 4.05-1.56 3.21-2.64 6.65-3.92 9.99-.67.13-1.34.26-2.01.38-5.2-9.29-10.39-18.58-16.01-28.62 7.66-1.51 14.65-2.45 21.39-4.29 20.3-5.55 40.51-11.39 60.69-17.35 1.58-.47 3.52-2.66 3.74-4.26 1.48-10.81 2.53-21.67 3.77-32.86-2-.18-3.28-.39-4.55-.39-21 .01-42 .06-62.99.09-1.17 0-2.33.01-3.5.07-11.34.64-12.07.06-14.62-11.28h86.04c0-13.95 0-28.54 0-43.49-.59-.11-1.51-.44-2.43-.44-23 .02-46-.02-68.99.16-10.63.08-10.63.27-14.46-9.96-.22-.59-.27-1.24-.33-1.52 28.78.52 57.45 1.03 87.05 1.57-.99-17.68-1.92-34.33-2.91-51.83 9.88 2.28 19.41 4.32 28.83 6.8 1.92.5 4.72 2.66 4.74 4.1.04 1.95-2.18 3.96-3.51 5.89-.25.37-.82.62-1.29.73-8.26 1.91-9.46 7.41-9.18 15.11.62 16.81.19 33.66.19 50.49 0 29-1.7 57.79-8.84 86.08-7.17 28.41-22.57 51.37-45.9 68.69-7.75 5.75-17.2 9.2-25.87 13.72-4.45 2.31-7.56 1.23-9.3-3.96z"/></g></svg>