<svg enable-background="new 0 0 400 400" viewBox="0 0 400 400" xmlns="http://www.w3.org/2000/svg"><path d="m52.07 264.19c0 4.9-.09 9.37.03 13.84.11 3.95-1.77 5.86-5.6 6.04-7.99.39-13.72-2.34-12.92-11.95 4.6-55.37 1.67-110.85 2.37-166.27.2-15.56-.33-31.13-.52-46.6 4.88 3.54 10.37 7.81 16.19 11.57 2.34 1.51 5.41 2.6 8.18 2.65 14.99.25 29.99.06 44.99.18 2.96.02 4.87-.75 6.53-3.39 2.74-4.34 6.02-8.33 9.82-13.49 6.39 5.49 12.59 10.65 18.58 16.06 3.18 2.88 3.25 6.01-.48 8.73-1.21.88-2.26 2.11-3.6 2.65-6.75 2.7-7.83 7.72-7.78 14.53.3 46.99.2 93.98.08 140.97-.01 3.82.73 6.56 4.23 8.61 3.14 1.84 6.21 4.03 8.72 6.63 1.41 1.47 2.52 4.3 2.09 6.12-.31 1.32-3.38 2.8-5.22 2.81-27.33.18-54.66.12-81.98.13-1.01 0-1.99.09-3.71.18zm59.44-10.46c0-57.07 0-113.75 0-170.28-20 0-39.57 0-59.11 0v170.28z" fill="#010100"/><path d="m114.68 363.83c-1.46-2.41-2.65-4.38-3.55-5.87 8.96-11.41 18.57-21.92 26.21-33.7 18.3-28.23 30.99-58.96 38.62-91.82 6.93-29.84 11.72-59.97 12.96-90.57.92-22.59 1.23-45.21 1.59-67.81.1-6.13-.61-12.27-1-19.39 4.6.41 8.8.65 12.97 1.19 5.92.77 11.87 1.47 17.68 2.76 4.47.99 5.11 3.78 1.49 6.55-2.84 2.17-6.55 3.19-9.56 5.18-1.36.9-2.73 2.9-2.81 4.46-.89 17.93-.99 35.91-2.35 53.8-3.67 48.38-8.81 96.5-26.73 142.28-12.09 30.87-30.55 57.38-53.27 81.18-3.33 3.49-6.79 6.86-10.21 10.26-.44.44-1.02.76-2.04 1.5z" fill="#010100"/><path d="m368.98 352.82c-11.62.29-21.45 1.57-27.92 13.32-6.36-13.57-12.77-25.75-17.9-38.44-21.26-52.62-34.04-107.57-42.95-163.41-5.1-31.97-8.39-64.22-12.42-96.35-1.09-8.71-1.92-17.46-2.9-26.52 2.74-.9 5.32-1.75 8.59-2.83.91 7.89 1.75 15.23 2.6 22.57 7.83 67.71 18.2 134.89 40.99 199.53 9.21 26.13 19.97 51.49 36.96 73.68 3.41 4.46 7.7 8.23 11.4 12.48 1.32 1.51 2.1 3.48 3.55 5.97z" fill="#010100"/><g fill="#fafafb"><path d="m342.2 3.2-6.3 9.2h6.1v1.2h-8.2v-.5l6.2-9.1h-5.7v-1.2h7.8v.4z"/><path d="m344 13.7v-10.9h3.1c1.6 0 3 .5 4.1 1.4 1.1 1 1.6 2.2 1.6 3.9s-.5 3-1.6 4-2.5 1.5-4.2 1.5h-3zm1.4-9.6v8.4h1.6c1.4 0 2.5-.4 3.2-1.1.8-.8 1.2-1.8 1.2-3.2s-.4-2.4-1.2-3.1-1.8-1-3.1-1z"/><path d="m356.3 2.8v10.9h-1.4v-10.9z"/><path d="m366.6 13.2c-.8.4-1.8.6-3 .6-1.6 0-2.8-.5-3.7-1.5s-1.4-2.3-1.4-3.9c0-1.7.5-3.2 1.6-4.2s2.4-1.6 4-1.6c1 0 1.9.1 2.6.4v1.5c-.8-.4-1.6-.6-2.6-.6-1.2 0-2.2.4-3 1.2s-1.1 1.9-1.1 3.3c0 1.3.4 2.3 1.1 3.1s1.6 1.1 2.8 1.1c1.1 0 2-.2 2.8-.7v1.3z"/><path d="m368.2 13c0-.3.1-.5.3-.6.2-.2.4-.3.6-.3.3 0 .5.1.7.3s.3.4.3.6-.1.5-.3.6c-.2.2-.4.3-.7.3-.3 1-.5-.1-.6-.3-.2-.2-.3-.4-.3-.6z"/><path d="m381.1 13.7h-1.7l-5.5-8.4c-.2-.2-.3-.5-.4-.7 0 .2.1.8.1 1.5v7.6h-1.4v-10.9h1.8l5.3 8.3c.3.4.4.6.4.8 0-.3-.1-.8-.1-1.6v-7.5h1.4v10.9z"/><path d="m389.7 13.7h-5.8v-10.9h5.6v1.2h-4.2v3.5h3.9v1.2h-3.9v3.7h4.4z"/><path d="m398.4 4.1h-3.1v9.6h-1.4v-9.6h-3.1v-1.3h7.7v1.3z"/></g></svg>