<svg enable-background="new 0 0 400 400" viewBox="0 0 400 400" xmlns="http://www.w3.org/2000/svg"><g fill="#010000"><path d="m104.11 367.34c-.55-2.53-1-4.57-1.4-6.41 14.34-4.09 28.45-7.76 42.33-12.14 21.37-6.76 40.41-17.81 57.07-32.82 7.47-6.73 14.66-17.44 17.47-25.6-1.51-.1-2.91-.29-4.31-.27-24.8.33-49.61.61-74.41 1.14-3.66.08-5.9-.56-7.13-4.28-1.08-3.28-2.82-6.34-4.61-10.25 5.75.8 10.86 1.93 16.01 2.15 13.8.59 27.61.91 41.42 1.12 11.33.17 22.66.12 33.99-.07 1.56-.03 4.13-1.12 4.49-2.27 2.71-8.65 4.98-17.43 7.3-25.82-1.06-.8-1.31-1.16-1.57-1.16-18.47.08-36.95.09-55.42.33-9.47.12-18.94.74-28.41.92-1.11.02-2.72-1.08-3.28-2.1-2.11-3.93-3.88-8.04-6.13-12.83 31.91 6.68 63.47 2.85 95.57 4.17.72-10.45 1.4-20.33 2.11-30.66-23.06 0-45.62 0-68.21 0-2.54 8.72-4.84 10.62-12.81 10.88-3.23.1-5.16-1.01-5.16-4.48 0-25.15 0-50.29 0-76.43 4.9 2.67 9.32 4.81 13.46 7.41 4.95 3.11 10.06 4.38 15.99 4.26 16.82-.34 33.66-.12 50.49-.12h5.69c0-10.33 0-20.23 0-30.48-8.68 0-17.24 0-26.01 0-.16.73-.39 1.34-.42 1.96-.33 6.92-3.16 9.69-9.74 9.5-6.07-.17-8.83-3.28-8.61-10.26.45-14.3 1.07-28.59 1.63-43.38-2.03-.14-3.45-.36-4.86-.33-12.98.3-25.95.7-38.93.89-1.33.02-3.32-.82-3.91-1.87-2.24-4.01-4.04-8.28-5.7-11.81 17.38 1.19 34.7 2.37 52.4 3.58 0-12.81 0-24.51 0-36.92 2.08.29 4.49.39 6.76 1 6.86 1.86 13.77 3.64 20.43 6.08 2.13.78 4.57 3.3 4.95 5.38.27 1.47-2.37 4.06-4.28 5.21-2.95 1.77-6.37 2.74-9.92 4.18v13.84h66.98c0-11.76 0-23.46 0-36.27 8.82 2.25 17.65 4.17 26.25 6.85 3.69 1.15 3.64 4.1.32 6.14-2.67 1.65-5.54 2.97-8.72 4.64v18.96c10.7 0 21.3.1 31.9-.12 1.33-.03 2.83-1.51 3.91-2.64 4.47-4.69 8.81-9.5 13.6-14.71 8.59 6.33 17.08 12.43 25.31 18.86 1.19.93 1.81 3.62 1.44 5.2-.31 1.34-2.28 2.6-3.79 3.26-1.27.56-2.95.24-4.45.24-22.49.01-44.98.01-68.15.01 0 8.81-.08 17.4.1 25.99.02 1.05 1.28 2.2 2.18 3.08 1.79 1.74 4.04 3.08 5.52 5.03 1.13 1.49 2.12 3.85 1.73 5.48-.28 1.17-2.95 2.46-4.56 2.49-13.33.2-26.66.11-39.99.11-1.79 0-3.59 0-5.65 0v30.83h13.47c14.33 0 28.67-.19 42.99.11 4.59.09 7.94-.86 10.44-4.91 1.45-2.36 3.62-4.28 6.11-7.14 5.48 4.15 10.97 8.08 16.19 12.35 3.36 2.75 2.79 6.35-.59 8.24-7.26 4.06-7.56 10.38-7.01 17.39.27 3.48.19 7 .02 10.49-.27 5.44-.33 10.55 5.37 13.84 1 .58 1.39 3.76.76 5.14-.58 1.27-2.91 2.44-4.48 2.45-25.83.15-51.66.11-77.49.11-1.8 0-3.6 0-5.75 0-.69 10.26-1.36 20.15-2.09 30.87h4.82c17.5 0 35 .14 52.49-.15 2.61-.04 5.69-1.5 7.67-3.29 4.29-3.87 8.01-8.38 12.16-12.85 8.5 6.41 16.26 12.1 23.77 18.1 1.01.81 1.5 3.57.9 4.75-.7 1.36-2.85 2.74-4.4 2.78-9.83.25-19.66.13-29.49.13-21 0-41.99 0-62.99 0-1.82 0-3.63 0-5.51 0-2.37 9.95-4.65 19.57-7.03 29.59h18.6c19.5 0 38.99.09 58.49-.12 2.14-.02 4.73-1.24 6.29-2.75 4.65-4.5 8.89-9.42 13.61-14.51 8.71 6.38 17.38 12.52 25.73 19.06 1.24.97 1.75 4.05 1.22 5.71-.4 1.26-2.98 2.51-4.63 2.56-7.99.26-15.99.12-23.99.12-31.49 0-62.99.09-94.48-.11-3.96-.02-5.71 1.23-7.32 4.77-8.45 18.67-23.6 31.02-40.45 41.57-24.46 15.33-51.59 23.41-79.66 28.8-1.95.37-3.92.7-5.87 1.06-1.82.32-3.6.68-6.13 1.17zm62.33-167.72h68.24c0-12.62 0-24.86 0-37.24-22.89 0-45.54 0-68.24 0zm149.88.2c0-12.82 0-25.06 0-37.54-21.45 0-42.62 0-63.92 0v37.54zm-40.63-120.55c-22.59 0-44.79 0-67.18 0v31.46h67.18c0-10.51 0-20.75 0-31.46z"/><path d="m51.06 245.07c0 5.32-.09 9.96.03 14.6.09 3.6-1.78 5.27-5.09 5.36-9.78.27-14.39-2.21-13.41-13.88 4.95-58.71 1.34-117.54 2.33-176.31.13-7.75-.82-15.53-1.29-23.63 5.44 3.95 10.87 8.2 16.64 11.94 2.34 1.51 5.39 2.61 8.15 2.67 12.66.28 25.33-.02 37.99.21 3.44.06 5.54-1.08 7.35-3.83 2.65-4.03 5.58-7.87 9.17-12.88 6.61 5.93 13.12 11.67 19.5 17.56 2.5 2.31 1.96 4.79-.57 6.8-1.81 1.45-3.6 3.17-5.7 3.99-5.93 2.34-6.93 6.61-6.89 12.54.24 44.16.23 88.33 0 132.49-.03 4.94 1.54 7.96 5.35 10.78 2.91 2.16 8.1 3.61 6.19 8.86-1.85 5.08-6.67 2.57-10.08 2.61-21.16.23-42.33.12-63.5.12-1.8 0-3.62 0-6.17 0zm52.51-10.3c0-53.14 0-105.81 0-158.47-17.6 0-34.84 0-52.13 0v158.47z"/><path d="m266.08 312.01c.85-4.92 3.15-5.3 7.22-4.24 25.63 6.62 50.58 15.01 73.05 29.25 5.84 3.7 10.34 9.59 15.17 14.74 1.37 1.46 2.44 3.91 2.37 5.85-.11 2.93-.5 6.61-2.31 8.53-2.57 2.74-5.77.54-8.35-1.52-4.53-3.62-9.17-7.13-13.66-10.8-19.22-15.7-41.58-25.99-63.53-36.97-3.25-1.63-6.54-3.18-9.96-4.84z"/></g><path d="m377.9 391.2c-.2.3-.4.5-.6.8-.7-.6-1.4-1-2.2-1.5.2-.3.4-.5.5-.8.6.4 1.4.8 2.3 1.5zm-1.8 6.1c-.2-.2-.5-.4-.9-.6.4-.6.8-1.2 1.2-1.9s.7-1.3.9-1.9c.3.3.5.5.8.7-.7 1.3-1.4 2.6-2 3.7zm2.2-9c-.3.3-.5.5-.6.8-.6-.6-1.3-1.1-2-1.5.3-.3.5-.5.6-.7.6.5 1.3.9 2 1.4zm.3.2v-.9h2 4.5c-.3 1.3-.6 2.5-1 3.6s-.9 2.1-1.4 3c.4.5 1 1 1.6 1.4s1.2.8 1.9 1.1c-.3.2-.5.4-.8.8-.4-.3-1-.7-1.6-1.2s-1.2-1.1-1.6-1.6c-.5.6-1.1 1.1-1.7 1.6s-1.4.9-2.1 1.4c-.1-.3-.3-.5-.7-.8.6-.2 1.2-.5 1.9-1s1.4-1.1 2-1.8c-.5-.8-.9-1.6-1.2-2.5s-.6-2-.8-3.2c-.4.1-.7.1-1 .1zm2.5 2.7c.3 1 .7 1.7 1 2.2.3-.5.6-1.1 1-2s.6-1.9.9-3h-3.2-.4c.1.9 1.3 1.8.7 2.8z" fill="#fbfafa"/><path d="m396.5 388.5v1.5 3.6h1.5v.9c-.4 0-1 0-1.7 0h-7.9c-.5 0-.9 0-1.2 0v-.9h1.3v-3.5c0-.7 0-1.2 0-1.6h2.4c0-.8 0-1.4 0-1.7h1c0 .3-.1.8-.1 1.7h1.5c0-.8 0-1.4 0-1.7h1c0 .3-.1.9-.1 1.7zm-8.2 9.2c-.2-.3-.5-.5-.8-.8.8-.3 1.4-.6 1.9-.9s1-.7 1.4-1.1c.3.3.6.5.9.8-1.6 1-2.8 1.6-3.4 2zm2.6-6.8v-1.6h-1.5v1.6zm0 2.7v-1.9h-1.5v1.9zm2.4-2.7v-1.6h-1.5v1.6zm0 2.7v-1.9h-1.5v1.9zm.2 2 .7-.8c.4.2.9.5 1.6.8s1.3.7 1.8 1c-.3.3-.5.5-.8.8-.4-.3-1.5-1-3.3-1.8zm2-4.7v-1.6h-1.4v1.6zm0 2.7v-1.9h-1.4v1.9z" fill="#fbfafa"/></svg>