<svg enable-background="new 0 0 400 400" viewBox="0 0 400 400" xmlns="http://www.w3.org/2000/svg"><path d="m374.8 390.4.4-.4c.7.5 1.3 1 1.8 1.4l-.5.5c-.5-.6-1.1-1.1-1.7-1.5zm1 7.3-.6-.3c.5-1.4 1.1-2.8 1.5-4.3.2.1.4.2.6.3-.5 1.3-1 2.8-1.5 4.3zm-.4-10.3.4-.4c.4.3 1 .8 1.7 1.4l-.5.5c-.4-.5-1-1-1.6-1.5zm2.5.3h1.7v-1h.6v1h3.5v-1h.6v1h1.8v.5h-1.8v1.4h-2v1h3.2v2h-3.2v.9h3.3v.5h-3.4c0 .3-.1.6-.1.9h4v.5h-3.7c.7.9 1.9 1.5 3.8 1.7-.1.2-.2.4-.3.6-2.1-.4-3.5-1.1-4-2.1-.4 1-1.8 1.7-4 2.2-.1-.2-.2-.4-.3-.6 2.1-.4 3.4-1 3.8-1.8h-3.4v-.5h3.6c.1-.3.1-.6.2-.9h-3.3v-.5h3.4c0-.3 0-.6 0-.9h-3.2v-2h3.3v-1h-2.1v-1.4h-1.7v-.5zm1.1 3.5v1h2.7c0-.3 0-.4 0-.4 0-.1 0-.2 0-.2 0-.1 0-.2 0-.3h-2.7zm1.2-3v.9h3.5v-.9zm4.7 3h-2.6v.6.4h2.6z" fill="#fcfbfa"/><path d="m393.6 386.7h.6v1.5h2.7v6.1h1.1v.6h-11v-.6h1.1v-6.1h2.7v-1.5h.6v1.5h2.1v-1.5zm-2.7 8.8.4.6c-1.2.6-2.5 1.3-3.8 1.9-.1-.2-.2-.4-.3-.6 1.2-.6 2.5-1.2 3.7-1.9zm-2.2-6.7v2.4h2.1v-2.4zm0 3v2.5h2.1v-2.5zm2.8-3v2.4h2.1v-2.4zm.1 3v2.5h2.1v-2.5h-2.2zm5.9 6.1c-1.4-.7-2.7-1.3-3.9-1.8l.3-.6c1.5.6 2.7 1.2 3.9 1.7zm-1.2-9.1h-2.1v2.4h2.1zm-2.1 3v2.5h2.1v-2.5z" fill="#fcfbfa"/><g fill="#010104"><path d="m160.26 340.87c34.02 5.76 67.5 1.86 101.27 3.39 0-34.68 0-68.9 0-103.46-1.18-.12-2.47-.38-3.76-.37-19.64.23-39.29.42-58.93.79-8.68.17-8.69.36-12.26-7.48-.94-2.06-1.82-4.14-2.52-5.73 13.07.98 25.91 2.32 38.79 2.81 12.78.48 25.6.11 38.74.11 0-29.95 0-59.5 0-89.76-5.49 0-10.93 0-16.37 0-8 0-16.01.25-23.99-.1-4.15-.18-6.08 1.17-7.52 5.09-8.19 22.29-19.54 42.95-33.25 62.32-.57.81-1.18 1.59-1.92 2.59-1.03-.62-2.03-1.14-2.92-1.8-.91-.68-1.72-1.49-2.68-2.34 26.07-46.52 40.51-96.64 48.45-149.67 9.97 4.19 19.63 8.1 29.12 12.41 1.59.72 3.11 3.18 3.25 4.94.08 1.04-2.44 2.91-4.07 3.35-3.82 1.03-7.86 1.24-11.71 2.19-1.4.35-3.24 1.64-3.64 2.89-4.82 15.18-9.42 30.44-14.05 45.68-.23.76-.32 1.57-.55 2.75h41.67c0-33.43 0-66.79 0-101.13 10.55 2.61 20.97 5.15 31.35 7.83 1.56.4 3.12 1.28 4.37 2.32 3.02 2.51 2.6 5.83-1.21 7.3-4.6 1.78-9.5 2.78-14.15 4.45-1.32.47-3.19 2.08-3.2 3.18-.16 24.83-.1 49.66-.06 74.49 0 .46.31.92.67 1.89 11.99 0 24.1.08 36.22-.12 1.3-.02 2.79-1.55 3.82-2.72 5.07-5.73 10.02-11.56 15.38-17.8 9.1 7.23 18.15 14.22 26.89 21.58 1.22 1.03 1.81 4.28 1.11 5.72-.69 1.42-3.4 2.57-5.24 2.59-18.66.19-37.33.12-55.99.12-7.32 0-14.65 0-22.45 0v89.74c9.44 0 18.74.11 28.02-.12 1.31-.03 2.81-1.55 3.82-2.72 4.89-5.66 9.64-11.44 14.85-17.67 7.1 5.56 14.01 10.96 20.91 16.36 2.1 1.64 4.43 3.08 6.19 5.02 1.05 1.15 1.97 3.36 1.55 4.65-.5 1.53-2.3 2.98-3.88 3.7-1.4.64-3.27.28-4.94.28-20.33.01-40.66.01-60.99.01-1.79 0-3.58 0-5.68 0v103.59h13.27c9 0 18-.16 26.99.08 3.2.09 5.22-1.02 7.17-3.39 4.54-5.51 9.33-10.81 14.4-16.62 9.62 7.19 19.13 14.13 28.39 21.39 1.14.89 1.69 3.72 1.18 5.18-.52 1.47-2.56 2.69-4.21 3.39-1.27.55-2.95.14-4.45.14-50.66 0-101.32-.06-151.98.04-12.81.03-25.62.49-38.42.96-3.12.12-4.9-.65-5.98-3.76-1.2-3.39-3.01-6.58-4.87-10.55z"/><path d="m169.9 81.83c6.03 5.11 11.86 10.01 17.65 14.96 3.15 2.69 2.55 5.46-.14 8.03-1.44 1.37-2.91 3.05-4.68 3.66-4.45 1.55-4.98 5.13-5.55 8.93-9.55 63.34-32 121.81-66.92 175.44-18.29 28.1-42.64 53.44-73.09 77.31-1.56-1.14-3.25-2.37-5.58-4.08 40.71-34.38 70.58-76.31 91.9-125.45-8.94.14-11.27-6.13-13.47-12.29-6.98-19.54-18.42-36.04-33.68-49.97-.48-.44-1.03-.79-.96-.73-12.46 17.55-24.84 34.98-37.32 52.56-5.68-6.09-5.73-6.12-1.5-12.09 27.93-39.46 44.42-83.73 54.3-130.64 3.99-18.94 6.74-38.14 10.3-58.61 8.83 2.71 18 5.26 26.96 8.43 3.03 1.07 2.58 3.89-.24 5.15-3.46 1.54-7.24 2.35-10.8 3.7-1.17.44-2.79 1.43-3 2.42-3.39 15.86-6.59 31.77-9.96 48.28h16.04c11 0 21.99-.16 32.98.09 3.57.08 5.91-1.05 7.93-3.87 2.61-3.65 5.53-7.07 8.83-11.23zm-10.24 25.08c-1.11-.2-1.91-.47-2.7-.47-17.47-.03-34.95.05-52.42-.1-3.15-.03-3.71 1.67-4.53 4.06-4.46 13.02-8.96 26.03-13.74 38.93-2.52 6.8-5.62 13.38-8.46 20.08 21.85 14.86 43.16 29.82 51.73 57.33 13.68-39.45 28.13-77.96 30.12-119.83z"/></g></svg>