<svg enable-background="new 0 0 400 400" viewBox="0 0 400 400" xmlns="http://www.w3.org/2000/svg"><path d="m378.6 9.2.8-1c.9.7 1.9 1.4 2.9 2.3l-.9 1.1c-1.1-.9-2-1.7-2.8-2.4zm.5 10.7c.9-2.1 1.6-4.3 2.3-6.7.4.2.8.4 1.3.6-.7 2.1-1.5 4.3-2.2 6.6zm.4-15.2.9-.9c1 .8 2 1.6 2.8 2.4l-1 1c-1-.9-1.9-1.8-2.7-2.5zm12.5-1.3h1.2v1.4h2.7v1.1h-2.7v2.7h-1.2v-.5h-1.8v1.3h4.9v3.8h-1.2v-.5h-3.7c0 .4-.1.9-.1 1.2h5.1v1h-5.2c0 .5-.1.9-.2 1.2h6v1h-5.2c1.1 1.3 2.9 2 5.5 2.2-.4.4-.7.8-.9 1.3-2.9-.5-4.8-1.6-5.7-3.5h-.1c-.8 1.7-2.7 2.9-5.9 3.6-.2-.4-.6-.8-.9-1.1 2.8-.6 4.6-1.4 5.4-2.5h-4.8v-1h5.3c.1-.3.2-.7.2-1.2h-4.9v-1h5c0-.4 0-.8.1-1.2h-3.6v.5h-1.2v-3.8h4.9v-1.3h-1.8v.5h-1.2v-2.7h-2.6v-1.1h2.6v-1.4h1.2v1.4h4.7v-1.4zm-6.7 8.4h3.6c0-.4 0-.9 0-1.4h-3.6zm1.9-4.7h4.7v-1.2h-4.7zm6.7 3.3h-3.7v1.4h3.7z" fill="#fafbfa"/><path d="m384.7 21.4h1.3v2.2h2.8v-2.2h1.3v2.2h4.1v9.1h1.7v1.3h-16.9v-1.3h1.7v-9.1h4.1v-2.2zm.3 13.2.7 1.2c-1.8.9-3.8 1.9-6 2.9-.2-.4-.5-.8-.8-1.3 2.4-1 4.4-2 6.1-2.8zm-3.1-7.5h2.8v-3.2h-2.8v4.2zm0 5.6h2.8v-3.3h-2.8zm4.1-4.6h2.8v-3.2h-2.8zm0 4.6h2.8v-3.3h-2.8zm3.6 1.9c2.1.9 4.1 1.8 6.1 2.7l-.7 1.3c-2.2-1.1-4.2-2-6.1-2.9zm3.3-9.7h-2.8v3.2h2.8zm-2.8 7.8h2.8v-3.3h-2.8z" fill="#fafbfa"/><g fill="#010000"><path d="m318.83 103.41c-2.05 0-3.83 0-5.61 0-75.47 0-150.94-.01-226.41.05-2.44 0-4.95.47-7.31 1.13-8.28 2.33-13.06-1.08-12.88-9.66.3-14.47.91-28.93 1.14-43.4.08-5.08-.6-10.18-.96-15.79 10.68 1.35 20.5 3.5 29.58 8.12 4.33 2.2 4.17 6.3-.16 8.76-3.42 1.95-7.09 3.45-10.88 5.26v35.66h105.98c0-21.34 0-42.69 0-64.81 2.94.35 6.2.41 9.29 1.17 8.04 1.97 16.07 4.05 23.96 6.55 1.82.58 4.03 2.87 4.24 4.6.16 1.25-2.44 3.49-4.24 4.22-4.86 1.97-9.95 3.37-15.33 5.11v43.12h110.19c0-19.1 0-38.13 0-57.69 10.14 1.28 20.1 3.43 29.28 8.13 4.32 2.21 4.17 5.92-.02 8.33-3.57 2.05-7.36 3.7-11.53 5.76 0 17.01.02 34.49-.01 51.97-.01 7.73-4.78 11.22-12.38 9.42-4.05-.96-5.98-3.28-5.95-7.37.03-2.65.01-5.3.01-8.64z"/><path d="m344.72 261.41c9.08 7.11 17.95 13.85 26.49 20.99 1.35 1.13 1.85 4.26 1.43 6.16-.28 1.23-2.88 2.19-4.61 2.75-1.36.44-2.97.1-4.47.1-50.33 0-100.65 0-150.98 0-1.97 0-3.94 0-6.57 0v5.72c0 21.16.01 42.33 0 63.49 0 7.6-2.82 10.01-11.05 9.54-5.79-.33-8.03-4.18-7.74-10.91.97-22.27 1.57-44.55 2.33-67.42-2.66-.18-4.39-.41-6.13-.41-36.83-.02-73.66-.14-110.48.06-11.79.06-23.58 1.06-35.37 1.41-1.43.04-3.59-.97-4.21-2.13-2.1-3.92-3.66-8.12-5.37-12.1 51.47 5.96 102.93 2.04 154.27 3.16 1.66.04 3.33-.04 4.99-.11.3-.01.6-.22 1.08-.42 0-11.29 0-22.65 0-35.15 9.16 2.63 18.1 4.94 26.82 7.88 2.07.7 4.68 3.47 4.76 5.37.07 1.84-2.48 4.32-4.47 5.58-2.72 1.72-6.01 2.54-9.26 3.83v13.02h4.85c37.16 0 74.32-.04 111.48.07 3.13.01 5.24-.86 7.23-3.27 4.64-5.63 9.57-11.04 14.98-17.21z"/><path d="m330.05 131.71c9.34 7.35 18.28 14.26 27.02 21.42 1.11.91 1.92 3.41 1.49 4.7-.55 1.61-2.34 3.13-3.96 3.92-1.36.66-3.27.25-4.93.25-91.83.03-183.66.03-275.5.11-7.15.01-14.3.48-21.43 1-2.95.21-4.64-.68-5.68-3.47-1.39-3.72-3.07-7.34-4.43-10.56 48.85 5.77 97.96 1.72 146.95 2.91.66.02 1.31-.13 2.48-.25-4.17-13.66-12.4-24.22-22.87-33.25 2.79-3.99 5.93-4.52 10.11-1.79 5.42 3.55 11.15 6.6 16.71 9.93 9.69 5.8 14.76 13.43 8.93 25.38h5.61c32.5 0 65-.04 97.5.07 3.27.01 5.55-.79 7.64-3.42 4.41-5.61 9.2-10.93 14.36-16.95z"/><path d="m126.59 200.9c14.43 7.57 28.49 14.7 42.27 22.32 3.49 1.93 6.5 5.13 9.03 8.31 3.1 3.88 2.11 10.84-1.26 13.56-3.14 2.54-8.01 1.71-11.81-2.71-11.48-13.34-24-25.38-39.78-33.6-.88-.46-1.75-.94-3.36-1.81-17.52 20.16-38.84 35.6-64.01 46.42-1.36-2.16-2.64-4.2-4.24-6.74 30.74-17.96 54.73-41.71 67.4-76.21 8.95 2.61 17.68 5.11 26.38 7.73 1.56.47 3.13 1.25 4.4 2.26 1.22.97 3.11 2.82 2.83 3.57-.53 1.39-2.27 2.81-3.78 3.24-3.31.94-6.8 1.74-10.22 1.74-4.11 0-6.88 1.21-8.82 4.98-1.34 2.6-3.46 4.81-5.03 6.94z"/><path d="m268.57 210.17c-15.41 15.9-34.24 26.93-54.92 36.2-1.36-2.23-2.7-4.41-4.33-7.09 27.12-15.21 48.23-35.64 60.15-66.11 10.08 3.19 20.27 6.31 30.36 9.74 1.42.48 2.32 2.5 3.46 3.81-1.4 1.21-2.63 2.79-4.24 3.54-1.91.89-4.25 1.75-6.23 1.45-8.12-1.21-12.42 3.61-16.26 9.49-.79 1.2-1.77 2.28-2.88 3.68 10.58 4.83 20.88 9.32 30.99 14.22 6.12 2.96 12.17 6.2 17.81 9.97 4.58 3.07 8.44 7 6.8 13.66-1.53 6.16-6.26 8.5-11.55 4.89-2.85-1.94-5.36-4.5-7.69-7.08-10.25-11.37-26.99-23.76-41.47-30.37z"/></g></svg>