<svg enable-background="new 0 0 400 400" viewBox="0 0 400 400" xmlns="http://www.w3.org/2000/svg"><path d="m378.6 9.2.8-1c.9.7 1.9 1.4 2.9 2.3l-.9 1.1c-1.1-.9-2-1.7-2.8-2.4zm.5 10.7c.9-2.1 1.6-4.3 2.3-6.7.4.2.8.4 1.3.6-.7 2.1-1.5 4.3-2.2 6.6zm.4-15.2.9-.9c1 .8 2 1.6 2.8 2.4l-1 1c-1-.9-1.9-1.8-2.7-2.5zm12.5-1.3h1.2v1.4h2.7v1.1h-2.7v2.7h-1.2v-.5h-1.8v1.3h4.9v3.8h-1.2v-.5h-3.7c0 .4-.1.9-.1 1.2h5.1v1h-5.2c0 .5-.1.9-.2 1.2h6v1h-5.2c1.1 1.3 2.9 2 5.5 2.2-.4.4-.7.8-.9 1.3-2.9-.5-4.8-1.6-5.7-3.5h-.1c-.8 1.7-2.7 2.9-5.9 3.6-.2-.4-.6-.8-.9-1.1 2.8-.6 4.6-1.4 5.4-2.5h-4.8v-1h5.3c.1-.3.2-.7.2-1.2h-4.9v-1h5c0-.4 0-.8.1-1.2h-3.6v.5h-1.2v-3.8h4.9v-1.3h-1.8v.5h-1.2v-2.7h-2.6v-1.1h2.6v-1.4h1.2v1.4h4.7v-1.4zm-6.7 8.4h3.6c0-.4 0-.9 0-1.4h-3.6zm1.9-4.7h4.7v-1.2h-4.7zm6.7 3.3h-3.7v1.4h3.7z" fill="#fafbfa"/><path d="m384.7 21.4h1.3v2.2h2.8v-2.2h1.3v2.2h4.1v9.1h1.7v1.3h-16.9v-1.3h1.7v-9.1h4.1v-2.2zm.3 13.2.7 1.2c-1.8.9-3.8 1.9-6 2.9-.2-.4-.5-.8-.8-1.3 2.4-1 4.4-2 6.1-2.8zm-3.1-7.5h2.8v-3.2h-2.8v4.2zm0 5.6h2.8v-3.3h-2.8zm4.1-4.6h2.8v-3.2h-2.8zm0 4.6h2.8v-3.3h-2.8zm3.6 1.9c2.1.9 4.1 1.8 6.1 2.7l-.7 1.3c-2.2-1.1-4.2-2-6.1-2.9zm3.3-9.7h-2.8v3.2h2.8zm-2.8 7.8h2.8v-3.3h-2.8z" fill="#fafbfa"/><g fill="#010000"><path d="m50.41 291.79h24.76c0-84.82 0-169.5 0-254.65 11.78 1.52 23.44 3.55 34.42 8.33 1.5.65 3.24 2.92 3.18 4.36-.06 1.4-2.07 3.3-3.65 3.93-4.44 1.76-9.16 2.81-13.63 4.51-1.28.49-2.33 2.11-2.99 3.46-.46.94-.1 2.29-.1 3.46v219.93 6.53h25.02c0-66.34 0-132.4 0-199.04 10.14 1.1 20.23 3.24 29.37 8.42 4.15 2.35 3.74 6.01-.42 8.46-2 1.18-4.08 2.78-6.24 3-4.75.49-5.15 3.11-5.14 7.08.1 62.81-.08 125.63.25 188.44.04 8.45-5.78 10.39-12.03 9.62-4.25-.52-6.44-3.17-6.51-7.47-.04-2.48-.01-4.95-.01-8.17-1.87 0-3.63 0-5.38 0-19.16 0-38.32-.06-57.48.07-2.54.02-5.16.76-7.6 1.58-7.67 2.58-14.61.77-14.44-9.7.85-51.93 1.35-103.88 1.73-155.82.11-15.11-.6-30.23-.96-46.69 9.33 2.8 18.75 5.42 28 8.56 1.83.62 4.03 3.14 4.14 4.91.11 1.64-2.12 3.71-3.75 5.09-1.47 1.24-3.47 2.41-5.32 2.55-4.69.36-5.32 2.89-5.31 6.97.11 55.48.08 110.97.08 166.45.01 1.81.01 3.61.01 5.83z"/><path d="m221.22 370.29c.3-20.08-15.5-21.25-28.99-25.4-.08-1.07-.19-2.21-.23-3.35-.04-1.15-.01-2.3-.01-3.65 6.87 1.58 13.37 3.34 19.98 4.47 3.54.6 7.3.36 10.92.05 4.78-.41 7.01-3.52 7.03-8.14.06-14.48.02-28.97.02-43.83-17.92 0-35.63 0-53.95 0v5.35c0 20.83.01 41.66-.01 62.49-.01 3.72 1.01 8.02-4.66 8.84-6.69.96-12.77-1.67-13.47-7.13-.76-5.99-.13-12.19.22-18.28.49-8.78 1.79-17.54 1.83-26.32.19-43.82.15-87.65.02-131.47-.02-6.09-1.02-12.18-1.64-19.09 4.44 3.23 8.45 6.52 12.83 9.2 2.39 1.46 5.4 2.63 8.15 2.68 14.83.26 29.66.01 44.49.21 3.41.05 5.55-.99 7.34-3.8 2.22-3.5 4.8-6.77 7.52-10.55 8.3 4.33 15.32 10 20.74 17.43.78 1.07.06 4.31-1.07 5.48-2.4 2.46-5.31 4.65-8.4 6.15-3.31 1.6-3.87 3.83-3.86 7.12.06 47.16.22 94.31-.12 141.47-.12 16.55-7.03 22.74-20.62 29.27-1.12.52-2.51.5-4.06.8zm8.44-90.53c0-14.19 0-28.05 0-41.93-18.03 0-35.72 0-53.41 0v41.93zm.13-52.08c0-13.77 0-27.18 0-41.21-17.25 0-34.34-.04-51.43.11-.78.01-2.2 1.66-2.21 2.56-.15 12.76-.1 25.52-.1 38.53 18.03.01 35.6.01 53.74.01z"/><path d="m146.52 144.25c42.22-28.61 77.91-62.78 97.75-111.67 8.18 3.54 16.76 7.09 25.16 11.03 1.65.77 3.9 3.4 3.58 4.51-.49 1.7-2.85 3.03-4.65 4.13-1.22.74-2.84.82-5.66 1.56 28.78 35.88 64 60.88 108.08 73.67v5.35c-10.27.06-19.69 2-25.95 11.26-19.86-8.55-35.49-22.1-50.22-37.28-14.53-14.97-28.02-30.66-39.77-48.42-5.96 7.53-11.52 14.87-17.42 21.93-20.94 25.09-46.26 44.83-74.74 60.65-2.32 1.29-4.73 2.46-6.92 3.97-3.11 2.14-6.02 2.52-9.24-.69z"/><path d="m315.23 369.04c-2.24-16.39-15.33-18-27.38-20.86-3.36-.8-6.87-.99-10.61-1.5 0-2.39 0-4.81 0-7.46 7.9 1.05 15.69 2.53 23.53 3.01 7.42.45 14.92 0 22.37-.37 3.92-.2 6.42-2.54 6.96-6.6.3-2.3.7-4.61.7-6.92.04-46.83.08-93.66-.02-140.49-.02-7.78-.72-15.56-1.13-23.91 11.31 1.33 22.4 2.86 32.8 7.45 1.21.54 2.64 2.6 2.48 3.74-.21 1.44-1.68 3.26-3.07 3.86-4.98 2.15-10.16 3.86-15.67 5.89v5.62c0 48-.46 96 .21 143.99.3 21.59-8.13 27.12-26.38 33.53-1.41.49-2.92.63-4.79 1.02z"/><path d="m295.07 207.44v48.09 44.93c0 7.57-1.99 9.67-9.18 9.71-6.57.04-9.01-2.48-8.94-9.6.29-29.43.67-58.85.97-88.28.09-8.61.01-17.22.01-27.09 7.49 1.97 15.41 3.89 23.22 6.18 3.79 1.11 9.01 2.77 8.25 7.14-.49 2.83-5.37 5.06-8.55 7.16-1.55 1.03-3.7 1.16-5.78 1.76z"/><path d="m202.63 124.52c19.64 4.53 38.58 4.33 57.52 4.38 3.47.01 5.98-.94 8.24-3.52 3.83-4.36 7.9-8.5 12.14-13.02 8.22 6.27 15.85 11.86 23.13 17.87 1.22 1.01 1.54 3.95 1.13 5.75-.23 1-2.79 2.08-4.31 2.09-13.99.16-27.99-.07-41.97.14-15.47.24-30.93.87-46.4 1.19-1.11.02-2.79-.81-3.28-1.74-2.1-3.93-3.85-8.05-6.2-13.14z"/></g></svg>