<svg enable-background="new 0 0 400 400" viewBox="0 0 400 400" xmlns="http://www.w3.org/2000/svg"><path d="m378.6 9.2.8-1c.9.7 1.9 1.4 2.9 2.3l-.9 1.1c-1.1-.9-2-1.7-2.8-2.4zm.5 10.7c.9-2.1 1.6-4.3 2.3-6.7.4.2.8.4 1.3.6-.7 2.1-1.5 4.3-2.2 6.6zm.4-15.2.9-.9c1 .8 2 1.6 2.8 2.4l-1 1c-1-.9-1.9-1.8-2.7-2.5zm12.5-1.3h1.2v1.4h2.7v1.1h-2.7v2.7h-1.2v-.5h-1.8v1.3h4.9v3.8h-1.2v-.5h-3.7c0 .4-.1.9-.1 1.2h5.1v1h-5.2c0 .5-.1.9-.2 1.2h6v1h-5.2c1.1 1.3 2.9 2 5.5 2.2-.4.4-.7.8-.9 1.3-2.9-.5-4.8-1.6-5.7-3.5h-.1c-.8 1.7-2.7 2.9-5.9 3.6-.2-.4-.6-.8-.9-1.1 2.8-.6 4.6-1.4 5.4-2.5h-4.8v-1h5.3c.1-.3.2-.7.2-1.2h-4.9v-1h5c0-.4 0-.8.1-1.2h-3.6v.5h-1.2v-3.8h4.9v-1.3h-1.8v.5h-1.2v-2.7h-2.6v-1.1h2.6v-1.4h1.2v1.4h4.7v-1.4zm-6.7 8.4h3.6c0-.4 0-.9 0-1.4h-3.6zm1.9-4.7h4.7v-1.2h-4.7zm6.7 3.3h-3.7v1.4h3.7z" fill="#fafbfa"/><path d="m384.7 21.4h1.3v2.2h2.8v-2.2h1.3v2.2h4.1v9.1h1.7v1.3h-16.9v-1.3h1.7v-9.1h4.1v-2.2zm.3 13.2.7 1.2c-1.8.9-3.8 1.9-6 2.9-.2-.4-.5-.8-.8-1.3 2.4-1 4.4-2 6.1-2.8zm-3.1-7.5h2.8v-3.2h-2.8v4.2zm0 5.6h2.8v-3.3h-2.8zm4.1-4.6h2.8v-3.2h-2.8zm0 4.6h2.8v-3.3h-2.8zm3.6 1.9c2.1.9 4.1 1.8 6.1 2.7l-.7 1.3c-2.2-1.1-4.2-2-6.1-2.9zm3.3-9.7h-2.8v3.2h2.8zm-2.8 7.8h2.8v-3.3h-2.8z" fill="#fafbfa"/><g fill="#010000"><path d="m355.12 367.06c-22.07-17.14-36.9-41.41-49.66-68.15-19.6 29.98-45.74 52.21-76.73 69.86-1.41-1.86-2.66-3.52-4.07-5.39 7.08-5.59 14.02-10.99 20.87-16.51 21.16-17.02 37.83-37.79 51.35-61.25 1.68-2.91 1.66-5.3.52-8.3-10.47-27.62-16.7-56.29-20.29-85.53-.99-8.07-.94-16.26-1.37-24.4-.39-7.49-.12-7.74 7.94-7.31 2.58 36.49 7.52 72.57 22.11 107.88 21.19-42.93 26.7-88.34 30.47-134.97-2.08 0-3.67 0-5.26 0-15.5 0-30.99.11-46.49-.08-3.66-.05-5.21.95-6.77 4.54-7.68 17.65-15.9 35.06-23.96 52.53-.55 1.18-1.39 2.23-2.06 3.3-4.63-1.82-5.2-4.36-3.27-8.9 15.13-35.61 24.76-72.83 31.43-110.84 2.18-12.41 3.43-24.98 5.13-37.47.13-.95.5-1.86 1-3.7 10.08 4.2 19.88 8.11 29.48 12.49 1.45.66 2.54 3.46 2.59 5.31.03 1.05-2.24 2.74-3.73 3.13-3.67.95-7.56 1.07-11.23 2.03-1.52.4-3.55 1.85-3.91 3.2-5.43 20.7-10.63 41.45-15.86 62.2-.12.46-.01.97-.01 2.08h5.34c15.16 0 30.33-.13 45.49.09 3.85.06 6.62-1.02 9.09-3.89 2.49-2.9 5.54-5.32 8.04-8.21 2.01-2.32 3.67-2.14 5.87-.39 5.73 4.56 11.68 8.85 17.26 13.58 1.31 1.11 2.51 3.99 1.95 5.26-.73 1.66-3.2 3.42-5.03 3.56-5.93.44-11.92.17-18.06.17-1.39 11.46-2.93 22.46-4.03 33.5-4.03 40.29-15.78 78.27-33.89 114.36-1.54 3.06-1.18 5.2.26 8.22 12.94 27.2 34.42 46.59 57.81 64.35 1.38 1.05 2.76 3.5 2.45 4.94-.28 1.31-2.74 2.44-4.45 3.09-5.01 1.9-10.09 3.5-16.32 5.62z"/><path d="m146.91 151.85h25.59c0-40.18 0-80.22 0-120.89 7.58 1.69 15.29 3.29 22.91 5.2 1.38.35 3.2 1.81 3.43 3.02.2 1.03-1.36 3.19-2.55 3.57-7.49 2.37-7.45 7.97-7.4 14.4.25 29.66.11 59.33.11 88.99v5.61h31.84c0-31.1 0-62.12 0-94.06 5.68 1.09 11.91 2.2 18.11 3.51 3.24.68 6.53 1.4 9.58 2.64 3.69 1.5 3.77 4.03.47 6.1-1.54.97-3.1 2.18-4.82 2.56-5.04 1.11-6.01 4.09-5.92 8.95.33 17.66-.04 35.33.2 52.99.12 8.46 1.17 16.91 1.5 25.37.4 10.52-4.53 14.85-14.74 13.26-3.34-.52-5.54-2.16-5.32-5.95.08-1.48.01-2.98.01-5.13-1.77 0-3.38 0-4.98 0-22.17 0-44.33-.05-66.5.07-2.36.01-4.69 1.12-7.07 1.55-2.74.5-5.54 1.28-8.25 1.09-4.37-.32-6.52-2.58-6.42-7.58.59-28.3.9-56.6 1.16-84.91.05-5.27-.53-10.55-.85-16.44 9.11 2.03 17.83 3.85 26.47 6.01 1.68.42 3.04 2.16 4.55 3.29-1.22 1.38-2.43 2.76-3.66 4.13-.1.12-.28.21-.43.24-8.82 1.85-9.19 8.02-8.95 15.55.51 16.48.01 33 .24 49.49.11 5.77 1.1 11.5 1.69 17.37z"/><path d="m224 245.26c7.12 5.64 13.83 10.79 20.27 16.24 1.07.9 1.84 3.69 1.23 4.68-.91 1.5-3.15 3.05-4.84 3.08-14.66.24-29.33.14-43.99.14-1.96 0-3.92 0-6.18 0v54.97c20.48-6.8 40.66-13.5 61.11-20.29.42 1.97.85 3.99 1.48 6.95-15.57 6.66-30.85 14.07-46.74 19.78-22.77 8.17-46.01 15.03-68.97 22.68-1.95.65-3.66 2.78-4.89 4.62-1.59 2.38-2.57 5.15-3.82 7.75-.58.08-1.16.16-1.74.24-4.87-8.35-9.73-16.69-14.75-25.3 20.59-3.97 40.5-7.81 60.56-11.68 0-20.03 0-39.47 0-59.8-4.24.21-8.47.47-12.69.63-9.8.37-19.61.77-29.42.96-1.15.02-2.89-.95-3.4-1.95-2.03-3.97-3.68-8.13-5.28-11.78 16.78 1.2 33.53 2.4 50.71 3.62 0-18.08 0-34.96 0-52.14-8.75 0-17.37-.16-25.99.05-7.47.18-14.93.85-22.39 1.12-.84.03-2.1-.91-2.53-1.73-2.11-4.1-4.01-8.32-6.17-12.89 7.75.96 14.9 2.34 22.1 2.65 14.46.62 28.94.72 43.42.93 8 .12 16-.13 23.99.1 3.3.09 5.61-.94 7.81-3.33 3.95-4.28 8.18-8.3 12.72-12.86 7.8 6 15.64 11.8 23.19 17.97 2.81 2.29 1.11 6.92-2.51 7.57-1.46.26-2.99.15-4.49.15-15.16.01-30.33.01-45.49.01-1.8 0-3.6 0-5.77 0v51.49c6 0 12.09.14 18.16-.11 1.23-.05 2.55-1.4 3.56-2.42 3.88-3.86 7.64-7.85 11.74-12.1z"/><path d="m70.81 198.65c-13.28 13.71-26.3 27.14-39.36 40.61-1.6-.68-2.49-1-3.33-1.43s-1.64-.96-2.88-1.71c34.17-36.49 57.76-78.36 69.74-127.13.46.07 1.6.04 2.56.43 7.69 3.13 15.43 6.16 22.95 9.66 1.75.81 3.58 3.19 3.77 5.02.12 1.16-2.77 3.81-4.23 3.76-10.22-.38-13.15 6.78-16.83 14.3-6.63 13.56-14.17 26.67-21.42 40.12 3.82 2.08 8 4.06 11.86 6.54 4.56 2.93 4.77 5.53.03 7.44-6.23 2.51-6.77 6.65-6.73 12.44.25 33.14-.02 66.29.18 99.43.1 17.13.75 34.25 1.26 51.38.24 8.09-4.38 12.89-12.13 11.62-1.71-.28-3.48-2.48-4.46-4.22-.72-1.28-.21-3.25-.21-4.92 0-49.47.02-98.93-.04-148.4.01-4.96-.47-9.92-.73-14.94z"/><path d="m25.44 135.51c30.83-29.07 53.62-62.76 65.56-104.62 9.03 3.97 18.42 7.84 27.53 12.27 3.13 1.52 2.41 5.52-.84 7-.9.41-1.9.87-2.84.85-8.21-.2-12.19 4.53-15.91 11.36-15.99 29.29-37.06 54.29-64.78 73.32-3.95 2.71-3.91 2.77-8.72-.18z"/></g></svg>