<svg enable-background="new 0 0 400 400" viewBox="0 0 400 400" xmlns="http://www.w3.org/2000/svg"><path d="m345 125.33c-14.48 0-28.11 0-42.59 0 0 2.74-.05 5.33.01 7.93.67 33.46-3.69 66.36-12 98.68-12.71 49.44-39.55 90.02-78.63 122.63-6.86 5.72-13.92 11.21-21.03 16.91-1.47-1.96-2.56-3.42-3.78-5.04 6.64-6.05 13.4-11.92 19.84-18.11 25.87-24.87 44.23-54.59 57.29-87.9 7.84-20.01 14.83-40.23 17.09-61.66 1.85-17.5 2.71-35.11 3.75-52.69.4-6.75.06-13.53.06-21.14-8.61.38-17.2.49-25.74 1.26-3.82.35-5.39-.9-6.32-4.32-.77-2.84-2.06-5.55-3.2-8.53 11.9.91 23.41 1.79 35.05 2.68 0-28.52 0-56.52 0-85.56 9.04 2.12 18.33 4.18 27.54 6.57 1.25.33 2.65 2.14 2.92 3.48.18.91-1.32 2.4-2.37 3.26-1.13.93-2.55 1.76-3.97 2.04-6.04 1.17-6.74 5.04-6.64 10.48.34 17.82.13 35.65.13 53.48v6.01c12.81 0 25.09.32 37.32-.27 2.48-.12 4.93-3.57 7.14-5.74 7.59-7.45 7.59-7.55 16.4-1.6 3.16 2.14 6.14 4.57 9.11 6.98 3.34 2.72 3.79 5.71.45 8.83-1.09 1.02-2 2.38-3.28 3.06-6.63 3.53-7.41 9.18-7.67 16.15-1.12 30.07-2.5 60.14-4.65 90.15-1.75 24.52-4.48 48.97-7.28 73.4-.98 8.53-3.12 16.97-5.32 25.29-4.29 16.23-15.12 26.51-30.71 31.98-5.31 1.86-10.77 3.27-16.01 4.84-.48-.64-.82-.89-.85-1.16-1.13-11.31-8.47-16.72-18.55-19.48-5.73-1.57-11.51-2.99-17.5-4.54.43-2.57.83-4.97 1.27-7.57 8.45 2.65 16.69 5.57 25.12 7.81 17.93 4.78 28.42.03 37.02-16.33 6.05-11.51 8.93-24.06 10.19-36.77 3.43-34.72 6.6-69.47 9.07-104.26 1.31-18.41.94-36.93 1.31-55.41.04-1.8.01-3.6.01-5.82z" fill="#010100"/><path d="m71.59 127.93c-11.27 0-21.74-.21-32.19.1-4.23.13-7.29-.19-8.56-5-.86-3.26-2.57-6.3-3.68-8.92 14.65 1.23 29.13 2.45 43.7 3.67 0-29.81 0-58.52 0-87.91 2.41.3 5.53.32 8.43 1.13 8.6 2.41 17.15 5.02 25.61 7.86 1.61.54 4.02 2.72 3.83 3.73-.32 1.73-2.13 3.92-3.8 4.51-5.27 1.84-10.77 3.02-16.24 4.47v65.02c6.24 1.08 11.45.83 15.44-5.05 2.86-4.21 6.9-7.61 10.94-11.94 8.07 6.28 16.14 12.35 23.89 18.81 1.18.99 1.69 4.14 1.02 5.62-.65 1.44-3.2 2.8-4.94 2.83-13.49.23-26.99.13-40.48.13-1.82 0-3.64 0-5.79 0v77.99c10.02-6.12 19.3-11.78 28.58-17.44 2.57 4.5 1.2 7.66-2.51 10.67-7.63 6.17-14.88 12.81-22.58 18.89-2.78 2.19-3.93 4.33-3.92 7.87.12 38.15-.15 76.3.17 114.45.15 18.51-9.55 26.04-23.96 31.26-1.22.44-2.6.42-4.3.67-1.66-19.85-17.49-21.24-32.14-24.98-.07-.9-.24-2.18-.26-3.47-.02-1.15.12-2.3.13-2.47 10.59 1.2 21.02 2.81 31.51 3.44 8.82.53 10.58-1.5 11.85-10.36.16-1.15.25-2.32.25-3.48.01-31.15.01-62.31 0-93.46 0-1.12-.14-2.24-.25-3.82-7.42 4.18-14.51 7.96-21.32 12.2-1.38.86-1.76 3.4-2.51 5.2-1.07 2.56-2.06 5.16-3.12 7.84-4.81-3.09-13.43-17.4-17.15-27.75 13.04-4.75 26.04-9.59 39.13-14.17 4.09-1.43 5.39-3.69 5.35-8.06-.23-24.99-.11-49.98-.11-74.97-.02-1.82-.02-3.62-.02-5.11z" fill="#010100"/><path d="m225.24 115.49c8.59 4.72 17.33 9.47 26.01 14.32 1.28.72 2.38 1.83 3.43 2.89 4.15 4.19 3.59 6.93-2.02 8.44-3.66.98-7.56 1.04-11.24 1.96-1.62.4-3.54 1.57-4.35 2.95-13.3 22.82-26.01 45.98-39.74 68.54-13.39 22-27.76 43.41-41.73 65.05-1.4 2.17-3.03 4.18-5.26 7.23 24.27-5.48 45.96-14.33 68.61-24.37-6.99-7.26-13.29-13.81-19.7-20.46 2.2-3.69 5.02-4.36 9.06-1.41 9.25 6.75 18.92 12.94 28.02 19.89 6.46 4.93 8.15 11.92 5.7 19.74-1.18 3.76-3.38 6.55-7.66 6.78-4.34.24-6.04-2.83-7.37-6.25-1.43-3.69-2.84-7.39-4.54-11.84-3.13 2.17-5.67 3.89-8.17 5.67-16.58 11.84-34.56 21.19-53.15 29.34-3.79 1.66-6.43 3.43-7.33 7.73-.55 2.61-2.17 4.99-3.31 7.47-.61.12-1.22.24-1.84.35-5.28-9.4-10.57-18.8-16.58-29.49 10.48.97 13.03-6.46 16.48-12.42 16.63-28.78 33.04-57.69 49.51-86.56.73-1.28 1.26-2.69 2.39-5.13-5.05 2.02-9.16 3.78-13.34 5.32-10.9 4.01-21.87 7.83-32.71 12-1.68.65-3.24 2.5-4.12 4.18-1.58 3.03-2.59 6.35-4.28 10.67-8.27-9.21-12.16-19.59-18.11-30.21 9.69 1.98 10.33-5.32 12.74-10.52 13.87-29.85 26.48-60.24 35.7-91.86 4.35-14.93 7.12-30.33 10.62-45.51.29-1.27.64-2.52 1.1-4.26 12.05 5.17 23.9 9.86 33.92 18 1.49 1.21 3.12 3.72 2.82 5.25-.28 1.42-2.94 2.97-4.79 3.36-4.36.92-8.9.99-13.29 1.83-1.58.3-3.63 1.51-4.25 2.87-11.95 25.97-23.49 52.13-35.62 78.01-6.41 13.66-13.8 26.86-21.16 41.06 8.03-1.26 15.66-2.15 23.15-3.7 10.56-2.18 20.97-5.1 31.54-7.2 4.39-.87 6.48-3.08 7.76-7.09 5.48-17.21 11.15-34.37 17.1-52.62z" fill="#010100"/><g fill="#fafafb"><path d="m342.2 3.2-6.3 9.2h6.1v1.2h-8.2v-.5l6.2-9.1h-5.7v-1.2h7.8v.4z"/><path d="m344 13.7v-10.9h3.1c1.6 0 3 .5 4.1 1.4 1.1 1 1.6 2.2 1.6 3.9s-.5 3-1.6 4-2.5 1.5-4.2 1.5h-3zm1.4-9.6v8.4h1.6c1.4 0 2.5-.4 3.2-1.1.8-.8 1.2-1.8 1.2-3.2s-.4-2.4-1.2-3.1-1.8-1-3.1-1z"/><path d="m356.3 2.8v10.9h-1.4v-10.9z"/><path d="m366.6 13.2c-.8.4-1.8.6-3 .6-1.6 0-2.8-.5-3.7-1.5s-1.4-2.3-1.4-3.9c0-1.7.5-3.2 1.6-4.2s2.4-1.6 4-1.6c1 0 1.9.1 2.6.4v1.5c-.8-.4-1.6-.6-2.6-.6-1.2 0-2.2.4-3 1.2s-1.1 1.9-1.1 3.3c0 1.3.4 2.3 1.1 3.1s1.6 1.1 2.8 1.1c1.1 0 2-.2 2.8-.7v1.3z"/><path d="m368.2 13c0-.3.1-.5.3-.6.2-.2.4-.3.6-.3.3 0 .5.1.7.3s.3.4.3.6-.1.5-.3.6c-.2.2-.4.3-.7.3-.3 1-.5-.1-.6-.3-.2-.2-.3-.4-.3-.6z"/><path d="m381.1 13.7h-1.7l-5.5-8.4c-.2-.2-.3-.5-.4-.7 0 .2.1.8.1 1.5v7.6h-1.4v-10.9h1.8l5.3 8.3c.3.4.4.6.4.8 0-.3-.1-.8-.1-1.6v-7.5h1.4v10.9z"/><path d="m389.7 13.7h-5.8v-10.9h5.6v1.2h-4.2v3.5h3.9v1.2h-3.9v3.7h4.4z"/><path d="m398.4 4.1h-3.1v9.6h-1.4v-9.6h-3.1v-1.3h7.7v1.3z"/></g></svg>