<svg enable-background="new 0 0 400 400" viewBox="0 0 400 400" xmlns="http://www.w3.org/2000/svg"><path d="m77.59 226.73c-8.93 5.11-17.33 9.78-25.54 14.75-1.33.8-2.02 2.85-2.71 4.45-1.26 2.95-2.3 6.01-3.43 9.02-.66.12-1.31.24-1.97.36-5.37-9.4-10.73-18.79-15.81-27.68 14.4-5.66 28.25-11.35 42.3-16.51 5.77-2.12 7.43-5.35 7.32-11.43-.41-23.15-.17-46.32-.17-69.47 0-1.96 0-3.91 0-5.46-11.27 0-21.92-.39-32.51.17-5.11.27-8.6-.06-10.05-5.71-.76-2.98-2.4-5.74-3.39-8.01 15.09 1.2 30.2 2.39 45.2 3.58 0-28.65 0-56.01 0-84.72 11.19 3.3 22.43 6.48 33.54 10.04 1.62.52 3.72 2.91 3.67 4.38-.05 1.55-2.11 3.79-3.78 4.41-4.02 1.48-8.37 2-12.47 3.3-1.33.42-3.24 2.04-3.25 3.13-.15 19.16-.04 38.31.03 57.47 0 .29.3.58.04.1 14.53 6.07 20.67-5.4 29.23-13.35 7.27 5.48 14.61 10.85 21.67 16.55.95.77 1.25 3.75.53 4.84-.97 1.47-3.2 2.91-4.92 2.94-13.99.23-27.99.13-41.98.13-1.32 0-2.64 0-4.36 0v74.11c12.39-8.13 23.97-15.73 35.61-23.38 2.62 4.28 1.23 7.46-2.39 10.51-10.3 8.68-20.55 17.43-30.56 26.43-1.67 1.5-2.92 4.41-2.93 6.67-.18 38.99-.53 77.98.05 116.96.28 18.4-9.49 29-28.82 33.62.54-16.68-10.63-22.13-24.57-25.13 0-2.39 0-4.84 0-6 8.46 1.05 17.05 2.54 25.69 3.06 6.85.42 9.29-2.21 10.1-8.93.32-2.63.57-5.29.57-7.94.04-30.49.02-60.98.02-91.47.04-1.82.04-3.63.04-5.79z" fill="#010100"/><path d="m314.59 37.86c9.6 1.72 19.21 3.22 28.7 5.26 3.75.81 4.22 5.48.84 7.71-2.74 1.81-6.15 2.65-8.82 4.55-1.56 1.1-3.14 3.41-3.18 5.22-.54 22.8-.63 45.61-1.18 68.41-.94 39.32-4.7 78.24-17.82 115.71-.11.31-.07.7-.24.96-5.81 8.86-2.48 14.66 4.82 21.46 18.05 16.81 34.03 35.63 47.51 56.38 5.63 8.66 8.18 18.46 8.92 28.73.09 1.32.37 2.99-.27 3.93-1.67 2.44-3.49 5.82-5.85 6.4-1.94.48-5.83-1.93-6.96-4.07-4.11-7.77-7.66-15.85-10.99-24-10.3-25.24-25.34-47.46-42.82-68.17-.41-.49-.99-.85-1.98-1.68-21.55 52.09-62.82 82.49-112.68 104.36-1.49-2.5-2.72-4.58-4.22-7.08 6.78-3.67 13.32-7.09 19.74-10.7 49.69-27.91 79.79-70.53 93.85-125.15 6.53-25.36 9.86-51.23 10.9-77.32 1.11-27.92 1.23-55.89 1.7-83.84.15-8.6.03-17.19.03-27.07z" fill="#010100"/><path d="m158.93 45.81c10.46 1.23 21.2 3.02 31.27 7.53 1.32.59 2.65 2.66 2.73 4.1.06 1.16-1.54 2.99-2.82 3.52-3.96 1.64-8.05 3.11-12.22 4.05-2.48.56-3.77 1.07-3.76 3.97.1 70.15.13 140.3.17 210.45 0 .16.09.32.39 1.37 32-18.03 62.46-37.98 91.9-60 .87 2.47 1.62 4.61 2.58 7.32-18 14.04-35.68 28.44-54.02 41.95-19.94 14.69-40.53 28.5-60.72 42.86-1.6 1.14-2.8 3.42-3.31 5.4-1.29 5.01-2.08 10.15-3.06 15.23-.71.22-1.42.43-2.14.65-7.18-8.96-14.37-17.91-21.87-27.26 10.07-4.97 19.43-9.85 29.01-14.21 4.52-2.06 6.04-4.66 6.03-9.77-.21-72.82-.14-145.64-.14-218.46-.02-5.96-.02-11.93-.02-18.7z" fill="#010100"/><path d="m212.85 67.29c1.28-1.35 2.41-2.54 4.14-4.38 4.88 5.35 9.73 10.09 13.9 15.36 7.83 9.91 15.23 20.15 22.86 30.22 5.85 7.73 9.19 16.58 10.75 25.99.59 3.57.1 7.71-1.23 11.06-.81 2.05-4.05 4.01-6.39 4.27-1.54.17-4.23-2.42-5.02-4.34-3.83-9.35-7.03-18.96-10.74-28.36-6.98-17.72-16.74-33.91-28.27-49.82z" fill="#010100"/><g fill="#fafafb"><path d="m342.2 3.2-6.3 9.2h6.1v1.2h-8.2v-.5l6.2-9.1h-5.7v-1.2h7.8v.4z"/><path d="m344 13.7v-10.9h3.1c1.6 0 3 .5 4.1 1.4 1.1 1 1.6 2.2 1.6 3.9s-.5 3-1.6 4-2.5 1.5-4.2 1.5h-3zm1.4-9.6v8.4h1.6c1.4 0 2.5-.4 3.2-1.1.8-.8 1.2-1.8 1.2-3.2s-.4-2.4-1.2-3.1-1.8-1-3.1-1z"/><path d="m356.3 2.8v10.9h-1.4v-10.9z"/><path d="m366.6 13.2c-.8.4-1.8.6-3 .6-1.6 0-2.8-.5-3.7-1.5s-1.4-2.3-1.4-3.9c0-1.7.5-3.2 1.6-4.2s2.4-1.6 4-1.6c1 0 1.9.1 2.6.4v1.5c-.8-.4-1.6-.6-2.6-.6-1.2 0-2.2.4-3 1.2s-1.1 1.9-1.1 3.3c0 1.3.4 2.3 1.1 3.1s1.6 1.1 2.8 1.1c1.1 0 2-.2 2.8-.7v1.3z"/><path d="m368.2 13c0-.3.1-.5.3-.6.2-.2.4-.3.6-.3.3 0 .5.1.7.3s.3.4.3.6-.1.5-.3.6c-.2.2-.4.3-.7.3-.3 1-.5-.1-.6-.3-.2-.2-.3-.4-.3-.6z"/><path d="m381.1 13.7h-1.7l-5.5-8.4c-.2-.2-.3-.5-.4-.7 0 .2.1.8.1 1.5v7.6h-1.4v-10.9h1.8l5.3 8.3c.3.4.4.6.4.8 0-.3-.1-.8-.1-1.6v-7.5h1.4v10.9z"/><path d="m389.7 13.7h-5.8v-10.9h5.6v1.2h-4.2v3.5h3.9v1.2h-3.9v3.7h4.4z"/><path d="m398.4 4.1h-3.1v9.6h-1.4v-9.6h-3.1v-1.3h7.7v1.3z"/></g></svg>