<svg enable-background="new 0 0 400 400" viewBox="0 0 400 400" xmlns="http://www.w3.org/2000/svg"><path d="m322.95 191.33c-47.45 0-94.36 0-141.25 0-1.66 9.96-2.85 11.21-11.82 12.56-5.03.76-7.05-.93-7.05-6.07-.02-26.67-.01-53.33-.01-80 0-1.79 0-3.58 0-6.19-6.24 3.36-11.83 6.37-17.72 9.55-1.44-2.38-2.72-4.49-4.31-7.11 15.16-10.44 29.94-21.21 41.6-35.94 11.6-14.65 21.26-30.1 26.63-47.91 10.91-.36 31.21 6.9 35.63 13.45-3.2 1.19-6.05 2.58-9.05 3.28-3.05.72-6.27.67-9.39 1.14-1.18.18-2.78.54-3.34 1.39-2.72 4.12-5.16 8.42-8.17 13.44h5.93c16.67 0 33.33-.14 50 .1 4.23.06 7.28-.89 9.69-4.46 1.65-2.44 3.88-4.5 6.39-7.33 7.2 6.07 14.22 11.87 21.1 17.84 2.47 2.15 1.34 4.11-.98 5.64-.27.18-.61.33-.92.35-15.42 1.08-23.51 13.95-34.8 21.66-3.51 2.4-6.73 5.22-10.69 8.32 1.61.27 2.39.51 3.16.51 18.33.02 36.67.09 55-.09 1.67-.02 3.67-1.26 4.93-2.52 2.81-2.8 5.24-5.98 8.29-9.53 5.32 3.98 10.67 7.63 15.59 11.79 3.86 3.27 4.15 6.45-.12 8.97-7.4 4.38-7.3 10.66-7.19 17.82.29 19.33.12 38.66.09 58-.01 7.1-7.55 12.92-14.3 10.85-1.21-.37-2.45-2.1-2.8-3.43-.48-1.83-.12-3.88-.12-6.08zm-45.78-118.26c-23.99 0-46.15-.02-68.31.05-1.2 0-2.79.44-3.53 1.27-8.97 10.03-17.81 20.17-26.69 30.28.28-.38 2.84.8 5.43.83 14.5.18 29 .09 43.49.09 23.14 0 23.19.04 38.37-17.78 3.71-4.36 6.96-9.1 11.24-14.74zm-18.44 42.27v27.26h63.79c0-9.31 0-18.21 0-27.26-21.37 0-42.34 0-63.79 0zm63.91 38.11c-21.37 0-42.45 0-63.84 0v27.26h63.84c0-9.19 0-18.09 0-27.26zm-142.4-38.13v27.41h60.87c0-9.28 0-18.29 0-27.41-20.42 0-40.36 0-60.87 0zm60.99 38.23c-20.55 0-40.74 0-60.93 0v27.11h60.93c0-9.25 0-18.15 0-27.11z" fill="#010100"/><path d="m92.3 121.17v79.35c14.82-5.83 29.13-11.45 43.56-17.13 2 3.55 2.19 6.44-2.22 8.85-12.39 6.78-24.53 13.99-36.97 20.67-3.35 1.8-4.73 3.52-4.71 7.49.18 38.99.19 77.98.07 116.98-.05 17.57-10.08 24.5-24.66 29.65-.57.2-1.28.03-2.4.03.29-16.85-12.12-20.84-24.78-23.55-5.63-1.2-6.38-3.42-5.1-8.37 5.7 1.39 11.33 3.14 17.09 4.05 4.72.75 9.62.86 14.41.59 5.43-.3 7.87-3.09 8.35-8.71.36-4.13.61-8.29.62-12.44.05-29.66.03-59.32.03-88.98 0-1.99 0-3.98 0-6.71-8.15 2.98-15.87 5.69-23.45 8.74-.98.39-1.29 2.53-1.84 3.89-1.27 3.16-2.5 6.34-3.75 9.52-.61.09-1.21.18-1.82.27-5.26-9.47-10.52-18.94-16.17-29.11 4.64-.85 8.63-1.42 12.54-2.33 10.35-2.39 20.7-4.8 30.95-7.56 1.46-.39 3.38-2.79 3.39-4.27.2-25.99.15-51.99.12-77.98 0-.8-.24-1.6-.37-2.45-8.98 0-17.8-.61-26.5.14-12.86 1.12-14.5.36-18.65-13.24 14.91 1.04 29.83 2.08 44.81 3.12 0-28.05 0-55.09 0-83.12 3.9.64 8.43 1 12.75 2.17 7.03 1.89 13.98 4.12 20.82 6.61 1.61.59 3.72 2.92 3.62 4.3-.11 1.56-2.21 3.72-3.89 4.28-5 1.66-10.22 2.67-15.73 4.03v62c2.83-1.47 5.47-2.18 7.19-3.85 4.04-3.93 7.64-8.31 11.82-12.95 7.89 6.05 15.72 11.85 23.24 18.03 1.07.88 1.42 3.92.75 5.29-.66 1.34-3.04 2.54-4.69 2.58-10.83.23-21.66.12-32.49.12-1.8 0-3.61 0-5.94 0z" fill="#010100"/><path d="m177 242.59c4.17 2.13 7.63 3.47 10.61 5.51 7.5 5.13 15.67 6.08 24.57 5.97 29.14-.36 58.3-.19 87.44-.06 3.2.01 5.23-.86 6.97-3.54 2.71-4.17 5.79-8.1 9.5-13.21 6.79 6.16 13.41 11.89 19.58 18.07.96.96.61 4.58-.45 5.92-1.9 2.41-4.64 4.32-7.34 5.88-2.97 1.71-3.95 3.81-3.89 7.22.49 25.46.78 50.92 1.13 76.39.02 1.67.06 3.33.04 5-.07 8.4-5.95 13.26-14.12 11.17-1.66-.42-3.63-2.9-3.92-4.69-.61-3.72-.18-7.61-.18-11.82-37.59 0-74.92 0-112.77 0 0 3.27.04 6.4-.01 9.52-.07 5.42-10.44 11.44-14.8 8.29-1.47-1.06-2.25-3.94-2.27-5.99-.17-18.82-.1-37.64-.1-56.46 0-19.16 0-38.31 0-57.47.01-1.63.01-3.25.01-5.7zm129.64 63.92c-37.51 0-74.73 0-112.17 0v33.21h112.17c0-11.19 0-22.1 0-33.21zm.03-10.76c0-10.77 0-21.02 0-31.36-37.57 0-74.87 0-112.2 0v31.36z" fill="#010100"/><path d="m131.46 213.36c13.56.87 26.94 2.38 40.33 2.46 51.97.29 103.95.08 155.92.2 3.81.01 6.73-.9 9.2-3.72 3.61-4.13 7.31-8.18 11.33-12.67 8.51 6.47 16.14 12.03 23.4 18.03 1.21.99 1.46 4.04 1 5.84-.29 1.14-2.65 1.97-4.23 2.49-1.2.4-2.64.08-3.97.08-68.47.04-136.93.05-205.4.15-5.98.01-11.95.78-17.93.76-1.53 0-3.68-1.29-4.45-2.62-2.14-3.72-3.72-7.78-5.2-11z" fill="#010100"/><g fill="#fafafb"><path d="m342.2 3.2-6.3 9.2h6.1v1.2h-8.2v-.5l6.2-9.1h-5.7v-1.2h7.8v.4z"/><path d="m344 13.7v-10.9h3.1c1.6 0 3 .5 4.1 1.4 1.1 1 1.6 2.2 1.6 3.9s-.5 3-1.6 4-2.5 1.5-4.2 1.5h-3zm1.4-9.6v8.4h1.6c1.4 0 2.5-.4 3.2-1.1.8-.8 1.2-1.8 1.2-3.2s-.4-2.4-1.2-3.1-1.8-1-3.1-1z"/><path d="m356.3 2.8v10.9h-1.4v-10.9z"/><path d="m366.6 13.2c-.8.4-1.8.6-3 .6-1.6 0-2.8-.5-3.7-1.5s-1.4-2.3-1.4-3.9c0-1.7.5-3.2 1.6-4.2s2.4-1.6 4-1.6c1 0 1.9.1 2.6.4v1.5c-.8-.4-1.6-.6-2.6-.6-1.2 0-2.2.4-3 1.2s-1.1 1.9-1.1 3.3c0 1.3.4 2.3 1.1 3.1s1.6 1.1 2.8 1.1c1.1 0 2-.2 2.8-.7v1.3z"/><path d="m368.2 13c0-.3.1-.5.3-.6.2-.2.4-.3.6-.3.3 0 .5.1.7.3s.3.4.3.6-.1.5-.3.6c-.2.2-.4.3-.7.3-.3 1-.5-.1-.6-.3-.2-.2-.3-.4-.3-.6z"/><path d="m381.1 13.7h-1.7l-5.5-8.4c-.2-.2-.3-.5-.4-.7 0 .2.1.8.1 1.5v7.6h-1.4v-10.9h1.8l5.3 8.3c.3.4.4.6.4.8 0-.3-.1-.8-.1-1.6v-7.5h1.4v10.9z"/><path d="m389.7 13.7h-5.8v-10.9h5.6v1.2h-4.2v3.5h3.9v1.2h-3.9v3.7h4.4z"/><path d="m398.4 4.1h-3.1v9.6h-1.4v-9.6h-3.1v-1.3h7.7v1.3z"/></g></svg>