<svg enable-background="new 0 0 400 400" viewBox="0 0 400 400" xmlns="http://www.w3.org/2000/svg"><g fill="#010000"><path d="m179.72 370.58c.07-10.12-5.35-15.26-13.31-17.54-9.68-2.77-19.6-4.72-29.43-6.95-2.09-.47-4.26-.6-6.67-.92 0-2.54 0-4.95 0-7.53 8.22 1.28 16.2 3.07 24.26 3.63 10.56.73 21.19.69 31.78.58 4.37-.04 7.24-3.03 7.42-7.35.33-7.93.09-15.88.09-23.57-53 0-105.57 0-158.85 0-.69-1.47-1.83-3.81-2.89-6.19-1.07-2.41-2.06-4.86-3.14-7.41 9.29.98 18.3 1.96 27.33 2.85 3.47.34 6.96.62 10.45.63 41.16.04 82.31.03 123.47.02.98 0 1.97-.09 3.36-.16 0-9.31 0-18.5 0-28.25-1.88 0-3.67 0-5.47 0-26.33 0-52.66-.15-78.98.07-11.29.1-22.58 1.03-33.88 1.41-1.41.05-3.59-.58-4.15-1.59-2.27-4.14-4.05-8.55-6.09-13.02 42.97 6.43 85.74 2.21 128.68 3.81 0-8.82 0-16.9 0-24.67-7.32 0-14.57-.16-21.81.03-18.29.49-36.57 1.15-54.86 1.73-1.5.05-3 .03-4.5.1-7.66.38-7.66.39-9.44-8.11 1.65-.08 3.24-.2 4.82-.22 53.79-.97 107.11-5.89 159.4-19.28 1.23-.31 3.09-.15 3.98.59 4.99 4.14 9.92 8.37 14.53 12.92 1.31 1.3 1.48 3.75 2.17 5.67-1.84.4-3.74 1.32-5.52 1.13-22.7-2.32-44.95 3.69-67.53 3.61-1.11 0-2.23.51-3.51.82v25.15c1.88.1 3.49.26 5.11.26 24.49.02 48.99-.05 73.48.08 3.27.02 5.6-.84 7.74-3.38 3.96-4.7 8.25-9.11 12.82-14.09 8.78 6.29 17.48 12.34 25.91 18.76 1.16.88 1.59 3.75 1.15 5.35-.34 1.23-2.51 2.18-4.06 2.76-1.17.44-2.63.11-3.97.11-37.33 0-74.65 0-111.98 0-1.96 0-3.92 0-6.18 0v28.14c1.8.1 3.42.26 5.03.26 35.66.01 71.32.07 106.98-.13 2.41-.01 5.32-1.44 7.13-3.14 4.59-4.32 8.68-9.16 13.44-14.29 7.26 5.26 14.49 10.48 21.7 15.72 1.61 1.17 3.58 2.13 4.65 3.69.85 1.25 1.14 3.45.65 4.88-.39 1.14-2.22 2.04-3.6 2.52-1.19.42-2.64.1-3.97.1-48.49 0-96.98 0-145.47 0-1.99 0-3.98 0-6.58 0-.1 2.01-.26 3.76-.26 5.51-.03 8.66.05 17.33-.04 25.99-.07 6.39-1.99 12.18-6.62 16.72-6.65 6.59-14.92 10.02-24.77 12.19z"/><path d="m35.22 141.58c9.48 2.3 14.27-3.64 19.24-8.93 11.04-11.77 21.91-23.7 32.84-35.59.65-.7 1.12-1.57 2.17-3.05-8.47 1.92-16.13 3.66-23.79 5.39-1.13.26-2.27.63-3.41.69-7.41.43-13.37 2.84-15.91 10.66-.36 1.1-2.05 1.76-3.12 2.63-.89-1.12-2.18-2.11-2.61-3.38-2.38-7.07-4.54-14.2-7.11-22.34 6.08 1.8 8.63-1.89 11.42-5.47 13.39-17.25 26.2-34.81 32.77-57.41 8.32 4.6 16.32 8.86 24.11 13.48 1.44.85 2.02 3.15 3 4.78-1.54.86-3.07 1.74-4.61 2.59-.28.16-.65.35-.93.29-8.91-1.72-13.22 4.56-18.35 10.04-9.44 10.08-19.33 19.73-29.03 29.58-.42.43-.74.97-1.56 2.07 9.89-.71 19.08-1.29 28.25-2.05 4.96-.41 9.88-1.26 14.83-1.64 3.29-.25 5.55-1.46 7.14-4.48 4.47-8.52 9.13-16.94 14.05-26.01 8.5 3.73 17.56 7.23 24.92 13.88 2.66 2.4 1.74 4.41-1.38 5.51-1.56.55-3.29 1.28-4.84 1.09-6.53-.8-9.95 3.32-14.12 7.39-20.22 19.75-40.81 39.12-61.17 58.52 21.17-1.99 43.19-3.2 65.36-10.76-4.35-6.17-8.5-12.05-12.97-18.38 1.38-.99 3.08-2.2 5.66-4.05 8 7.49 16.29 14.63 23.81 22.51 5.1 5.34 5.36 12.33 3.17 19.26-1.17 3.69-3.63 5.91-7.74 5.78-4.05-.13-3.72-3.54-4.55-6.09-1.18-3.59-2.38-7.18-3.68-11.11-8.82 2.99-16.99 6.14-25.39 8.53-13.39 3.81-26.9 7.23-40.42 10.57-3.69.91-6.5 2.12-8.38 5.83-1.56 3.07-4.34 5.51-6.57 8.23-1.81-3.16-4.09-6.16-5.33-9.53-2.16-5.89-3.68-12-5.77-19.03z"/><path d="m336.27 110.64c1.74-1.16 3.38-2.25 5.81-3.87 7.6 7.07 15.4 14 22.81 21.33 5.26 5.21 6.44 11.77 4.59 18.93-1.05 4.1-3.12 6.99-7.73 7.13-4.84.15-4.6-4.06-5.68-6.93-1.27-3.36-2.12-6.86-3.27-10.68-7.74 2.3-14.79 4.73-22 6.48-15.79 3.83-31.63 7.46-47.53 10.79-2.88.6-4.22 1.74-5.45 4.14-1.78 3.48-4 6.73-6.79 11.31-6.37-9.93-7.88-20.09-11.21-30.53 7.61 1.65 11.59-3.45 15.84-7.68 11.09-11.03 22-22.24 32.95-33.41.89-.91 1.52-2.06 2.48-3.38-12.09 2.66-23.73 5.14-35.31 7.88-1.28.3-2.4 1.95-3.25 3.21-1.9 2.81-3.58 5.77-6 9.74-5.75-8.94-6.91-18.02-9.08-24.96 3.54-2.93 6.89-4.83 9.06-7.64 13.03-16.9 25.25-34.31 31.84-54.96.19-.59.69-1.09 1.56-2.44 7.71 4.34 15.41 8.51 22.9 13.02 1.48.89 2.16 3.1 3.21 4.71-1.62.95-3.24 1.9-4.87 2.83-.28.16-.65.33-.94.28-8.42-1.46-12.44 4.26-17.36 9.64-9.86 10.77-20.51 20.82-31.79 32.13 3.24-.3 5.37-.5 7.51-.69 12.25-1.05 24.52-1.89 36.73-3.3 2.54-.29 5.74-2.08 7.09-4.17 5.37-8.35 10.14-17.09 15.7-26.68 7.41 4.21 15.2 8.47 22.78 13.08 1.45.88 2.09 3.11 3.1 4.71-1.52.85-3.11 2.54-4.56 2.43-11.63-.87-16.69 8.43-23.79 14.75-18.74 16.68-37.67 33.15-56.87 50 23.17-1.67 46.35-2.8 69.95-9.13-4.25-6.23-8.16-11.89-12.43-18.07z"/><path d="m157.83 143.58c4.27 2.18 7.88 3.57 10.98 5.7 5.8 3.99 12.07 4.87 18.91 4.63 9.49-.33 19-.32 28.49.02 4.13.15 6.91-1.15 9.28-4.37 1.96-2.66 4.31-5.03 6.89-7.99 5.08 3.77 10.14 7.22 14.83 11.1 4.26 3.53 4.61 6.83.04 9.74-6.56 4.18-7.6 9.7-6.88 16.53.31 2.97.33 6.02-.01 8.99-.56 4.95.93 8.56 5.28 11.29 1.24.78 2.39 3.69 1.85 4.78-.71 1.45-3.1 2.91-4.78 2.93-21.16.19-42.33.06-63.49.23-2.21.02-4.41 1.42-6.61 2.21-3.41 1.21-6.72 2.93-10.23 3.53-3.77.64-4.58-2.2-4.57-5.46.06-13.5.02-27 .02-40.5 0-7.49 0-14.98 0-23.36zm65.51 19.61c-15.53 0-30.51-.05-45.5.11-.95.01-2.68 1.61-2.7 2.5-.19 10.27-.12 20.55-.12 30.82h48.32c0-11.15 0-21.93 0-33.43z"/><path d="m207.76 57.56c6.47 0 12.42.16 18.35-.12 1.4-.07 2.95-1.38 4.06-2.49 3.4-3.42 6.62-7.01 10.26-10.91 7.21 5.34 13.95 10.15 20.41 15.31 1.04.83 1.41 3.4 1 4.86-.33 1.18-2.19 2.2-3.58 2.74-1.16.45-2.63.11-3.96.11-30.32.11-60.65.23-90.97.35-1 0-2.01-.01-2.99.1-15.1 1.7-15.5 1.44-20.07-12.76 17.84 1.2 35.91 2.41 54.96 3.69-2.93-13.24-11.57-20.72-19.25-28.99 2.62-3.23 5.33-4.57 9.39-2.15 4.85 2.89 10.17 4.97 14.97 7.92 10.69 6.61 11.3 8.67 7.42 22.34z"/><path d="m152.4 83.75c20.16 5.15 39.64 4.17 59.06 4.08 1.89-.01 4.15-1.04 5.59-2.32 3.6-3.19 6.82-6.8 10.62-10.68 6.7 5 13.32 9.7 19.65 14.76 3.21 2.57 2.06 6.92-1.9 8.03-1.56.44-3.29.36-4.94.37-22.81.08-45.62.13-68.42.19-1.16 0-2.33.05-3.49.13-9.61.63-9.61.64-13.44-8.14-.8-1.82-1.55-3.64-2.73-6.42z"/><path d="m224.36 105.25c7.15 5.25 13.92 10.03 20.41 15.16 1.05.83 1.46 3.39 1.07 4.86-.31 1.18-2.15 2.22-3.54 2.78-1.15.46-2.63.11-3.96.13-24.46.39-48.93.8-73.39 1.07-1.31.01-3.28-.86-3.82-1.9-1.99-3.8-3.5-7.84-5.56-12.63 4.37.78 8.01 1.8 11.69 2.02 13.6.83 27.22 1.51 40.84 1.96 1.86.06 4.16-1.03 5.58-2.34 3.65-3.36 6.93-7.15 10.68-11.11z"/><path d="m331.9 162.34c2.86-4.17 5.78-4.74 9.68-1.76 8.03 6.16 16.34 11.96 24.4 18.07 7.19 5.45 8.58 12.95 5.71 20.94-.86 2.4-4.21 4.84-6.8 5.35-1.82.36-5.62-2.11-6.23-4.04-4.89-15.62-14.55-27.79-26.76-38.56z"/><path d="m33.02 179.57c3.26-4.16 6.3-4.23 9.95-.63 5.91 5.82 12.28 11.17 18.16 17.01 5.59 5.55 8.38 12.3 6.97 20.37-.2 1.13-.41 2.26-.77 3.35-1.18 3.59-3.6 6.89-7.32 6.04-2.3-.52-5.08-3.96-5.56-6.49-1.9-10.08-6.72-18.7-12.15-27.06-2.78-4.3-6.07-8.28-9.28-12.59z"/><path d="m72.43 174c3.26-5.36 6.57-4.15 10.13-1.22 7.04 5.81 14.36 11.29 21.18 17.34 6.22 5.51 6.75 12.88 4.07 20.16-.81 2.2-4.11 4.23-6.61 4.78-1.54.34-5-1.93-5.43-3.59-3.91-14.99-12.59-26.92-23.34-37.47z"/><path d="m296.7 170.77c3.3-3.95 6.32-4.21 10.01-1.2 6.68 5.42 13.81 10.3 20.38 15.85 5.96 5.04 6.47 11.97 3.69 18.66-1.06 2.54-4.49 4.53-7.29 5.65-.89.35-4.23-2.68-4.74-4.61-3.43-13.01-11.32-23.08-20.4-32.46-.57-.59-1.08-1.23-1.65-1.89z"/><path d="m260.52 179.7c3.13-4.9 6.48-4 10.29-.93 6.18 4.99 12.69 9.57 18.8 14.64 6.01 4.99 5.96 11.73 3.35 18.17-.96 2.36-4.33 4.62-6.94 5.09-1.43.26-4.48-2.99-5.2-5.19-4.07-12.44-11.24-22.79-20.3-31.78z"/><path d="m113.02 160.15c8.76 6.48 17.66 12.52 25.91 19.35 5.66 4.69 7.13 12.51 3.84 18.04-1.3 2.19-4.37 4.04-6.92 4.51-1.43.26-4.46-2.3-5.02-4.13-4.02-13.11-12.07-23.42-22-33.03 1.18-1.34 2.33-2.64 4.19-4.74z"/></g><path d="m377.9 391.2c-.2.3-.4.5-.6.8-.7-.6-1.4-1-2.2-1.5.2-.3.4-.5.5-.8.6.4 1.4.8 2.3 1.5zm-1.8 6.1c-.2-.2-.5-.4-.9-.6.4-.6.8-1.2 1.2-1.9s.7-1.3.9-1.9c.3.3.5.5.8.7-.7 1.3-1.4 2.6-2 3.7zm2.2-9c-.3.3-.5.5-.6.8-.6-.6-1.3-1.1-2-1.5.3-.3.5-.5.6-.7.6.5 1.3.9 2 1.4zm.3.2v-.9h2 4.5c-.3 1.3-.6 2.5-1 3.6s-.9 2.1-1.4 3c.4.5 1 1 1.6 1.4s1.2.8 1.9 1.1c-.3.2-.5.4-.8.8-.4-.3-1-.7-1.6-1.2s-1.2-1.1-1.6-1.6c-.5.6-1.1 1.1-1.7 1.6s-1.4.9-2.1 1.4c-.1-.3-.3-.5-.7-.8.6-.2 1.2-.5 1.9-1s1.4-1.1 2-1.8c-.5-.8-.9-1.6-1.2-2.5s-.6-2-.8-3.2c-.4.1-.7.1-1 .1zm2.5 2.7c.3 1 .7 1.7 1 2.2.3-.5.6-1.1 1-2s.6-1.9.9-3h-3.2-.4c.1.9 1.3 1.8.7 2.8z" fill="#fbfafa"/><path d="m396.5 388.5v1.5 3.6h1.5v.9c-.4 0-1 0-1.7 0h-7.9c-.5 0-.9 0-1.2 0v-.9h1.3v-3.5c0-.7 0-1.2 0-1.6h2.4c0-.8 0-1.4 0-1.7h1c0 .3-.1.8-.1 1.7h1.5c0-.8 0-1.4 0-1.7h1c0 .3-.1.9-.1 1.7zm-8.2 9.2c-.2-.3-.5-.5-.8-.8.8-.3 1.4-.6 1.9-.9s1-.7 1.4-1.1c.3.3.6.5.9.8-1.6 1-2.8 1.6-3.4 2zm2.6-6.8v-1.6h-1.5v1.6zm0 2.7v-1.9h-1.5v1.9zm2.4-2.7v-1.6h-1.5v1.6zm0 2.7v-1.9h-1.5v1.9zm.2 2 .7-.8c.4.2.9.5 1.6.8s1.3.7 1.8 1c-.3.3-.5.5-.8.8-.4-.3-1.5-1-3.3-1.8zm2-4.7v-1.6h-1.4v1.6zm0 2.7v-1.9h-1.4v1.9z" fill="#fbfafa"/></svg>