<svg enable-background="new 0 0 400 400" viewBox="0 0 400 400" xmlns="http://www.w3.org/2000/svg"><path d="m118.57 361.07c8.67-14.27 17.77-27.6 25.17-41.82 10.93-20.99 15.58-44.04 19.15-67.27 4.22-27.47 6.85-55.08 7.09-82.89.27-31.97.41-63.94.59-95.91.04-7.26.01-14.51.01-22.26 5.28 3.35 10.47 6.83 15.86 9.97 1.89 1.1 4.26 1.95 6.41 1.95 42.99.11 85.99.12 128.98-.04 2.12-.01 4.7-1.34 6.27-2.88 4.97-4.86 9.55-10.12 14.61-15.57 8.81 6.89 17.4 13.44 25.73 20.31 1.16.96 1.74 3.78 1.22 5.25-.49 1.38-2.7 2.38-4.35 3.05-1.14.47-2.63.09-3.96.09-55.66 0-111.32 0-166.98 0-1.96 0-3.92 0-6.11 0v59.7c1.63.08 3.24.22 4.84.22 43.99.01 87.99-.02 131.98.08 3.29.01 5.54-.87 7.62-3.47 4.56-5.69 9.44-11.13 14.41-16.93 8.53 6.73 16.86 13.05 24.84 19.79 1.85 1.56 3.65 4.62 3.46 6.81-.32 3.67-3.97 3.74-7.09 3.74-29.16-.02-58.33-.01-87.49-.01-6.96 0-13.91 0-20.91 0-1.14 20.67-2.26 40.84-3.4 61.59h5.51c21 0 42-.13 62.99.1 4.96.05 9.02-.75 12.45-4.61 2.3-2.59 5.22-4.62 8.49-7.45 6.06 4.35 12.41 8.55 18.34 13.28 4.17 3.33 3.73 6.05-.78 9.04-1.38.92-2.85 1.95-4.41 2.29-6.28 1.35-6.73 5.76-7.13 11.17-2.6 34.8-6.37 69.46-16.9 102.96-5.65 17.98-18.05 29.9-34.98 37.43-1.75.78-3.75 1.01-5.46 1.45-.49-.62-.85-.87-.86-1.12-.4-9.59-6.98-13.72-14.79-16.72-8.36-3.21-16.74-6.39-25.13-9.53-5.39-2.02-5.41-1.97-4.35-8.3 8.04 2.65 15.9 5.69 24 7.8 7.82 2.04 15.83 3.65 23.86 4.45 7.08.71 12.87-2.51 16.64-8.88 6.78-11.47 10.98-23.99 12.62-37.01 3.49-27.67 6.04-55.46 8.95-83.2.08-.81-.08-1.64-.15-2.9-26.66 0-53.21 0-79.82 0-2.5 12.45-4.55 25.07-7.61 37.43-7.72 31.15-19.47 60.35-42.09 84.15-11.78 12.39-30.36 26.86-42.44 32-1.19-1.53-2.47-3.17-3.9-5.01 6.52-4.77 12.91-9.22 19.05-13.99 19.9-15.47 32.63-36.24 42.54-58.89 10.9-24.88 16.56-51.17 18.66-78.12 1.44-18.39 1.5-36.89 2.2-55.34.17-4.45.46-8.89.71-13.71-18.41 0-36.29 0-54.51 0-.35 7.79-.7 15.55-1.04 23.31-1.62 37.06-4 74.03-14.11 110-7.08 25.22-17.5 48.82-34.54 69.04-4.38 5.2-9.53 9.76-14.27 14.66-2.13 2.24-4.15 2.54-5.69.72z" fill="#010000"/><path d="m83.44 177.59c-13.62 38.47-29.68 75.56-53.65 108.89-4.19-2.85-4.17-5.8-1.92-10.06 20.93-39.52 34.1-81.74 43.02-125.39 1.59-7.77 2.93-15.59 4.37-23.33-12.32 0-24.12-.41-35.86.19-5.18.26-8.5-.15-9.87-5.79-.72-2.94-2.39-5.65-3.58-8.34 9.92 1.08 19.42 2.51 28.97 3.04 9.29.52 18.64.11 27.94.11 0-28.94 0-57.66 0-87.08 2.59.32 5.85.43 8.96 1.16 7.89 1.85 15.82 3.7 23.52 6.19 2.25.73 3.81 3.61 5.69 5.5-1.8 1.5-3.37 3.55-5.43 4.37-4.74 1.89-9.71 3.17-14.93 4.81v65.12c6.1 0 12.03.13 17.95-.1 1.25-.05 2.65-1.23 3.65-2.23 3.89-3.88 7.64-7.89 11.91-12.33 7.35 5.54 14.46 10.65 21.21 16.2 1.22 1 1.72 4.06 1.16 5.68-.45 1.3-3 2.63-4.64 2.66-10.99.23-22 .12-33 .12-5.97 0-11.94 0-18.47 0 0 11.55-.13 22.68.17 33.8.04 1.38 2.15 3.11 3.69 3.98 12.43 6.98 24.02 14.95 32.79 26.46 3.54 4.64 5.04 9.96 3.77 15.5-.61 2.69-2.66 6-4.98 7.13-3.32 1.61-6.94-.21-9-3.48-2.2-3.51-4-7.27-5.95-10.93-4.98-9.31-11.13-17.68-20.01-25.24-.23 2.13-.49 3.46-.49 4.79-.02 53-.08 106 .06 158.99.02 6.79 1.35 13.57 1.5 20.37.21 9.33-7.02 14.58-15.71 11.31-1.91-.72-4.14-3.83-4.13-5.83.02-10.8.7-21.6 1.16-32.4.06-1.33.27-2.65.27-3.98.01-49 .01-98 .01-146.99-.01-.95-.1-1.91-.15-2.87z" fill="#010000"/><g fill="#fbfafa"><path d="m377.9 391.2c-.2.3-.4.5-.6.8-.7-.6-1.4-1-2.2-1.5.2-.3.4-.5.5-.8.6.4 1.4.8 2.3 1.5zm-1.8 6.1c-.2-.2-.5-.4-.9-.6.4-.6.8-1.2 1.2-1.9s.7-1.3.9-1.9c.3.3.5.5.8.7-.7 1.3-1.4 2.6-2 3.7zm2.2-9c-.3.3-.5.5-.6.8-.6-.6-1.3-1.1-2-1.5.3-.3.5-.5.6-.7.6.5 1.3.9 2 1.4zm.3.2v-.9h2 4.5c-.3 1.3-.6 2.5-1 3.6s-.9 2.1-1.4 3c.4.5 1 1 1.6 1.4s1.2.8 1.9 1.1c-.3.2-.5.4-.8.8-.4-.3-1-.7-1.6-1.2s-1.2-1.1-1.6-1.6c-.5.6-1.1 1.1-1.7 1.6s-1.4.9-2.1 1.4c-.1-.3-.3-.5-.7-.8.6-.2 1.2-.5 1.9-1s1.4-1.1 2-1.8c-.5-.8-.9-1.6-1.2-2.5s-.6-2-.8-3.2c-.4.1-.7.1-1 .1zm2.5 2.7c.3 1 .7 1.7 1 2.2.3-.5.6-1.1 1-2s.6-1.9.9-3h-3.2-.4c.1.9 1.3 1.8.7 2.8z"/><path d="m396.5 388.5v1.5 3.6h1.5v.9c-.4 0-1 0-1.7 0h-7.9c-.5 0-.9 0-1.2 0v-.9h1.3v-3.5c0-.7 0-1.2 0-1.6h2.4c0-.8 0-1.4 0-1.7h1c0 .3-.1.8-.1 1.7h1.5c0-.8 0-1.4 0-1.7h1c0 .3-.1.9-.1 1.7zm-8.2 9.2c-.2-.3-.5-.5-.8-.8.8-.3 1.4-.6 1.9-.9s1-.7 1.4-1.1c.3.3.6.5.9.8-1.6 1-2.8 1.6-3.4 2zm2.6-6.8v-1.6h-1.5v1.6zm0 2.7v-1.9h-1.5v1.9zm2.4-2.7v-1.6h-1.5v1.6zm0 2.7v-1.9h-1.5v1.9zm.2 2 .7-.8c.4.2.9.5 1.6.8s1.3.7 1.8 1c-.3.3-.5.5-.8.8-.4-.3-1.5-1-3.3-1.8zm2-4.7v-1.6h-1.4v1.6zm0 2.7v-1.9h-1.4v1.9z"/></g></svg>