<svg enable-background="new 0 0 400 400" viewBox="0 0 400 400" xmlns="http://www.w3.org/2000/svg"><path d="m378.6 9.2.8-1c.9.7 1.9 1.4 2.9 2.3l-.9 1.1c-1.1-.9-2-1.7-2.8-2.4zm.5 10.7c.9-2.1 1.6-4.3 2.3-6.7.4.2.8.4 1.3.6-.7 2.1-1.5 4.3-2.2 6.6zm.4-15.2.9-.9c1 .8 2 1.6 2.8 2.4l-1 1c-1-.9-1.9-1.8-2.7-2.5zm12.5-1.3h1.2v1.4h2.7v1.1h-2.7v2.7h-1.2v-.5h-1.8v1.3h4.9v3.8h-1.2v-.5h-3.7c0 .4-.1.9-.1 1.2h5.1v1h-5.2c0 .5-.1.9-.2 1.2h6v1h-5.2c1.1 1.3 2.9 2 5.5 2.2-.4.4-.7.8-.9 1.3-2.9-.5-4.8-1.6-5.7-3.5h-.1c-.8 1.7-2.7 2.9-5.9 3.6-.2-.4-.6-.8-.9-1.1 2.8-.6 4.6-1.4 5.4-2.5h-4.8v-1h5.3c.1-.3.2-.7.2-1.2h-4.9v-1h5c0-.4 0-.8.1-1.2h-3.6v.5h-1.2v-3.8h4.9v-1.3h-1.8v.5h-1.2v-2.7h-2.6v-1.1h2.6v-1.4h1.2v1.4h4.7v-1.4zm-6.7 8.4h3.6c0-.4 0-.9 0-1.4h-3.6zm1.9-4.7h4.7v-1.2h-4.7zm6.7 3.3h-3.7v1.4h3.7z" fill="#fafbfa"/><path d="m384.7 21.4h1.3v2.2h2.8v-2.2h1.3v2.2h4.1v9.1h1.7v1.3h-16.9v-1.3h1.7v-9.1h4.1v-2.2zm.3 13.2.7 1.2c-1.8.9-3.8 1.9-6 2.9-.2-.4-.5-.8-.8-1.3 2.4-1 4.4-2 6.1-2.8zm-3.1-7.5h2.8v-3.2h-2.8v4.2zm0 5.6h2.8v-3.3h-2.8zm4.1-4.6h2.8v-3.2h-2.8zm0 4.6h2.8v-3.3h-2.8zm3.6 1.9c2.1.9 4.1 1.8 6.1 2.7l-.7 1.3c-2.2-1.1-4.2-2-6.1-2.9zm3.3-9.7h-2.8v3.2h2.8zm-2.8 7.8h2.8v-3.3h-2.8z" fill="#fafbfa"/><g fill="#010000"><path d="m222.02 70.12c-18.05 0-35.2-.11-52.34.05-8.81.08-17.62.77-26.44.86-1.54.02-3.75-1.2-4.53-2.51-2.09-3.54-3.58-7.45-5.56-11.76 6.04.81 11.51 1.72 17.03 2.24 7.43.69 14.9 1.5 22.35 1.52 48 .14 96 .02 144 .16 3.89.01 6.51-1.14 8.92-4.1 4.91-6.04 10.12-11.85 15.59-18.19 9.69 7.7 19.26 15.13 28.56 22.88 1.15.96 1.54 3.77 1.1 5.41-.37 1.36-2.33 2.59-3.86 3.23-1.28.54-2.95.16-4.45.16-38.17 0-76.33 0-114.5 0-1.98 0-3.96 0-6.26 0-9.22 41.6-23.63 81.05-43.45 118.82 4.55 2.98 9.1 5.26 15.03 5.23 35.17-.22 70.33-.18 105.5-.01 3.82.02 6.13-1.11 8.11-4.28 2.36-3.79 5.22-7.27 8.13-11.26 8.08 4.53 15.15 9.84 20.64 17.12 1.56 2.07 1.49 4.01-.6 5.58-3.18 2.4-6.64 4.45-9.61 7.07-1.49 1.32-3.05 3.57-3.06 5.4-.17 39.5-.17 79 0 118.5.01 1.91 1.6 4.03 2.94 5.66 1.23 1.5 3.46 2.22 4.61 3.75 1.13 1.52 2.22 3.79 1.9 5.44-.24 1.21-2.73 2.15-4.38 2.83-1 .41-2.3.08-3.47.08-44.67 0-89.33 0-134 0-1.97 0-3.93 0-6.07 0-.17 1.38-.35 2.34-.39 3.3-.35 8.11-5.33 12.23-13.41 10.73-1.2-.22-2.52-1.81-3.03-3.06-.53-1.29-.16-2.95-.16-4.45 0-47 0-94 0-141 0-1.8 0-3.6 0-5.4-.36-.22-.72-.43-1.08-.65-20.5 33.42-44.97 63.31-76.6 87.26-1.25-1.92-2.64-4.07-3.9-6.01 65.06-59.59 98.86-135.38 116.74-220.6zm-18.27 269.5h122.5c0-45.31 0-90.23 0-135.35-40.95 0-81.55 0-122.5 0z"/><path d="m51.34 354.72c-6.8-8.67-13.6-17.34-20.55-26.21 34.66-39.24 61.27-83.34 88.09-128.43.13 2.37 1.11 5.1.27 7.06-18.36 42.99-38.49 85.13-60.63 126.33-2.03 3.78-2.29 8.52-3.39 12.8-.68 2.63-1.41 5.26-2.11 7.88-.56.19-1.12.38-1.68.57z"/><path d="m31.05 131.29c1.41-2.06 2.51-3.68 3.78-5.55 20.13 8.29 39.66 17.12 54.17 33.7 2.88 3.29 4.08 8.51 4.86 13.05.64 3.76-.75 8.01-5.07 9.29-4.34 1.29-8.62.37-11.86-3.22-1.1-1.23-2.13-2.59-2.9-4.04-9.28-17.52-22.9-30.82-39.73-41.03-.99-.6-1.92-1.3-3.25-2.2z"/><path d="m56.87 39.75c1.64-2.15 2.95-3.85 4.39-5.73 18.58 7.89 36.17 17.03 50.26 31.74 4.22 4.4 6.96 9.63 5.67 15.8-.62 2.96-2.39 7.3-4.55 7.94-3.14.92-7.2-.61-10.65-1.76-1.46-.49-2.67-2.52-3.47-4.1-9.45-18.64-23.3-33.1-41.65-43.89z"/></g></svg>