<svg enable-background="new 0 0 400 400" viewBox="0 0 400 400" xmlns="http://www.w3.org/2000/svg"><path d="m374.8 390.4.4-.4c.7.5 1.3 1 1.8 1.4l-.5.5c-.5-.6-1.1-1.1-1.7-1.5zm1 7.3-.6-.3c.5-1.4 1.1-2.8 1.5-4.3.2.1.4.2.6.3-.5 1.3-1 2.8-1.5 4.3zm-.4-10.3.4-.4c.4.3 1 .8 1.7 1.4l-.5.5c-.4-.5-1-1-1.6-1.5zm2.5.3h1.7v-1h.6v1h3.5v-1h.6v1h1.8v.5h-1.8v1.4h-2v1h3.2v2h-3.2v.9h3.3v.5h-3.4c0 .3-.1.6-.1.9h4v.5h-3.7c.7.9 1.9 1.5 3.8 1.7-.1.2-.2.4-.3.6-2.1-.4-3.5-1.1-4-2.1-.4 1-1.8 1.7-4 2.2-.1-.2-.2-.4-.3-.6 2.1-.4 3.4-1 3.8-1.8h-3.4v-.5h3.6c.1-.3.1-.6.2-.9h-3.3v-.5h3.4c0-.3 0-.6 0-.9h-3.2v-2h3.3v-1h-2.1v-1.4h-1.7v-.5zm1.1 3.5v1h2.7c0-.3 0-.4 0-.4 0-.1 0-.2 0-.2 0-.1 0-.2 0-.3h-2.7zm1.2-3v.9h3.5v-.9zm4.7 3h-2.6v.6.4h2.6z" fill="#fcfbfa"/><path d="m393.6 386.7h.6v1.5h2.7v6.1h1.1v.6h-11v-.6h1.1v-6.1h2.7v-1.5h.6v1.5h2.1v-1.5zm-2.7 8.8.4.6c-1.2.6-2.5 1.3-3.8 1.9-.1-.2-.2-.4-.3-.6 1.2-.6 2.5-1.2 3.7-1.9zm-2.2-6.7v2.4h2.1v-2.4zm0 3v2.5h2.1v-2.5zm2.8-3v2.4h2.1v-2.4zm.1 3v2.5h2.1v-2.5h-2.2zm5.9 6.1c-1.4-.7-2.7-1.3-3.9-1.8l.3-.6c1.5.6 2.7 1.2 3.9 1.7zm-1.2-9.1h-2.1v2.4h2.1zm-2.1 3v2.5h2.1v-2.5z" fill="#fcfbfa"/><g fill="#010104"><path d="m241.83 172.69c10 1.32 20.03 3.4 29.24 8.2 4.1 2.13 4.02 6.17.16 8.69-1.94 1.26-4.07 2.77-6.24 3.01-5.07.57-6.07 3.3-5.65 7.76.34 3.6.07 7.26.07 11.58h10.25c11.5 0 23-.17 34.49.1 3.9.09 6.55-1.11 8.95-4.06 3.24-3.99 6.85-7.68 10.77-12.02 7.94 6.04 15.84 11.77 23.39 17.93 2.52 2.05.68 6.72-2.59 7.36-1.45.28-2.99.17-4.48.17-24.83.01-49.66.01-74.49.01-1.81 0-3.62 0-5.86 0v32.51c13.61 0 27.06.07 40.51-.11 1.35-.02 2.9-1.38 3.96-2.49 4.02-4.2 7.89-8.56 12.17-13.25 7.87 6.01 15.73 11.8 23.32 17.91 2.71 2.18 1.51 6.41-1.89 7.42-1.71.51-3.6.57-5.41.57-22.33.04-44.66.02-66.99.02-1.82 0-3.63 0-5.78 0v32h18.14c14.66 0 29.33.1 43.99-.11 2.02-.03 4.5-1.1 5.94-2.52 4.62-4.54 8.86-9.47 13.63-14.67 8.07 6.27 16.14 12.32 23.88 18.77 1.27 1.06 2.08 4.34 1.37 5.67-.82 1.54-3.55 2.89-5.46 2.9-25.16.19-50.32.13-75.48.13-8.49 0-16.98 0-26.04 0-.11 2.02-.29 3.78-.29 5.54-.02 15.33.01 30.66-.02 45.99-.02 7.56-2.17 9.53-10.08 9.47-6.17-.05-8.55-2.55-8.35-9.59.42-15.12 1.07-30.24 1.61-45.36.06-1.79.01-3.59.01-5.68-1.8-.15-3.07-.36-4.34-.36-19.83.06-39.65.09-59.48.25-5.48.05-10.97.74-16.44.61-1.6-.04-3.77-1.54-4.62-3-1.96-3.35-3.28-7.09-5.23-11.5 30.28 5.82 59.92 2.43 89.78 3.6 0-10.92 0-21.32 0-31.44-17.38 0-34.5-.19-51.6.15-3.71.08-5.84-.33-7.13-4.03-1.24-3.54-3.09-6.87-5.05-11.12 21.38 5.52 42.34 3.99 63.66 4.21 0-10.79 0-21.31 0-32.14-1.21-.13-2.32-.38-3.44-.36-19.98.23-39.96.42-59.93.8-8.24.15-8.25.35-11.59-7.12-.98-2.19-1.86-4.43-3.08-7.34 26.2 6.04 52.01 3.62 77.73 4.22.01-13.06.01-25.78.01-39.28z"/><path d="m275.99 142.03c19.69 10.02 38.62 18.85 59.11 23.77 11.28 2.71 22.67 4.97 34.01 7.43 2.29.5 4.93.65 3.72 3.97-5.27 1.06-10.82 1.25-15.49 3.38-4.4 2.01-7.86 6.06-12.57 9.9-27.1-8.74-54.59-20.24-79.27-37.79-1.22-.86-3.89-1.06-5.13-.31-35.78 21.61-75.44 32.54-115.53 42.35-4.41 1.08-4.88-2.02-6.82-4.76 39.34-12.87 79.34-23.37 113.01-46.53-13.32-15.78-26.37-31.22-39.69-47-13.59 19.32-31.06 36.61-52.1 50.64-.74-1.15-1.49-2.21-2.13-3.33-.58-1.01-1.05-2.08-1.89-3.79 34-27.6 55.93-63.19 67.01-106.59 9.94 3.02 19.63 5.8 29.17 9.01 1.89.64 3.22 2.93 4.81 4.46-1.88 1.38-3.65 2.95-5.67 4.07-1.25.69-2.97 1.19-4.32.95-9.14-1.66-12.55 3.99-15.08 11.21-.97 2.78-2.6 5.33-4.24 8.62 2.12.09 3.84.24 5.55.24 22 .01 44-.21 66 .14 6.55.1 11.68-1.27 16.44-6.04 5.96-5.96 6.41-5.79 13.44-1.06 4.54 3.06 8.8 6.56 12.98 10.11 3.51 2.98 3.41 5.38-.35 7.95-2.59 1.77-5.67 2.8-8.33 4.48-2.86 1.79-6.06 3.49-8.12 6.03-14.31 17.57-28.62 35.1-48.52 48.49zm-12.21-7.8c18.26-15.2 35.62-30.64 46.43-51.95-.68-.48-.8-.66-.93-.66-28.62-.07-57.24-.19-85.87-.13-4.06.01-5.95 4.34-3.72 7.85 11.41 17.94 26.24 32.51 44.09 44.89z"/><path d="m33.61 364.3c-1.73-1.92-3.26-3.61-4.78-5.3 6.57-8.57 13.43-16.7 19.38-25.44 16.23-23.86 25.56-50.67 31.61-78.6 6.49-29.98 9.02-60.44 9.2-91.11.17-29.15.66-58.29.45-87.43-.09-12.43-1.59-24.86-2.44-37.29-.06-.95-.01-1.9-.01-4.21 11.38 2.48 22.21 4.65 32.91 7.28 3.36.83 3.56 5.18.2 7.44-3.26 2.19-7.17 3.4-10.62 5.35-1.28.72-2.95 2.31-2.95 3.51-.16 25.16-.1 50.32-.06 75.49 0 .44.35.88.7 1.69 14.83-11.75 26.39-25.81 34.99-43.86 8.53 6.41 16.91 12.58 25.1 18.99 1.06.83 1.99 3.28 1.51 4.28-.63 1.34-2.61 2.58-4.17 2.81-2.76.4-5.8.56-8.42-.2-4.2-1.22-6.97.21-10.4 2.55-11.63 7.96-23.58 15.47-35.57 22.89-2.52 1.56-3.91 2.88-3.88 6.07.22 27.64-1.48 55.16-6.21 82.43-.65 3.77.3 5.79 3.84 7.83 13.5 7.76 25.71 17.27 35.09 29.88 4.6 6.19 8.46 13.01 6.03 21.19-.71 2.39-2.85 5.94-4.57 6.08-2.82.22-6.6-1.18-8.55-3.24-2.52-2.65-3.73-6.58-5.34-10.03-5.96-12.8-13.44-24.51-24.08-33.97-.99-.88-2.01-1.75-3.04-2.59-.38-.3-.85-.48-1.89-1.05-8.28 46.58-28.37 86.6-64.03 118.56z"/><path d="m29.9 120.08c1.63-1.38 3.12-2.64 5.15-4.36 2.15 3.03 4.3 5.72 6.08 8.62 9.37 15.27 19.75 30.08 25.26 47.32 2.19 6.84 2.66 14.26 3.57 21.45.28 2.22-.34 4.64-.92 6.87-1 3.82-3.36 6.99-7.47 6.89-4-.1-5.03-3.86-5.64-7.19-1.31-7.17-2.05-14.47-3.76-21.54-4.88-20.21-11.54-39.8-22.27-58.06z"/></g></svg>