<svg enable-background="new 0 0 400 400" viewBox="0 0 400 400" xmlns="http://www.w3.org/2000/svg"><path d="m374.8 390.4.4-.4c.7.5 1.3 1 1.8 1.4l-.5.5c-.5-.6-1.1-1.1-1.7-1.5zm1 7.3-.6-.3c.5-1.4 1.1-2.8 1.5-4.3.2.1.4.2.6.3-.5 1.3-1 2.8-1.5 4.3zm-.4-10.3.4-.4c.4.3 1 .8 1.7 1.4l-.5.5c-.4-.5-1-1-1.6-1.5zm2.5.3h1.7v-1h.6v1h3.5v-1h.6v1h1.8v.5h-1.8v1.4h-2v1h3.2v2h-3.2v.9h3.3v.5h-3.4c0 .3-.1.6-.1.9h4v.5h-3.7c.7.9 1.9 1.5 3.8 1.7-.1.2-.2.4-.3.6-2.1-.4-3.5-1.1-4-2.1-.4 1-1.8 1.7-4 2.2-.1-.2-.2-.4-.3-.6 2.1-.4 3.4-1 3.8-1.8h-3.4v-.5h3.6c.1-.3.1-.6.2-.9h-3.3v-.5h3.4c0-.3 0-.6 0-.9h-3.2v-2h3.3v-1h-2.1v-1.4h-1.7v-.5zm1.1 3.5v1h2.7c0-.3 0-.4 0-.4 0-.1 0-.2 0-.2 0-.1 0-.2 0-.3h-2.7zm1.2-3v.9h3.5v-.9zm4.7 3h-2.6v.6.4h2.6z" fill="#fcfbfa"/><path d="m393.6 386.7h.6v1.5h2.7v6.1h1.1v.6h-11v-.6h1.1v-6.1h2.7v-1.5h.6v1.5h2.1v-1.5zm-2.7 8.8.4.6c-1.2.6-2.5 1.3-3.8 1.9-.1-.2-.2-.4-.3-.6 1.2-.6 2.5-1.2 3.7-1.9zm-2.2-6.7v2.4h2.1v-2.4zm0 3v2.5h2.1v-2.5zm2.8-3v2.4h2.1v-2.4zm.1 3v2.5h2.1v-2.5h-2.2zm5.9 6.1c-1.4-.7-2.7-1.3-3.9-1.8l.3-.6c1.5.6 2.7 1.2 3.9 1.7zm-1.2-9.1h-2.1v2.4h2.1zm-2.1 3v2.5h2.1v-2.5z" fill="#fcfbfa"/><g fill="#010104"><path d="m258.65 227.73c-22.43 0-44.67 0-66.87 0-1.4 7.68-2.68 8.85-8.81 8.31-7.13-.63-10.44-3.82-10.06-10.92.62-11.61 2.42-23.19 2.56-34.79.42-35.16.4-70.32.3-105.49-.04-14.92-.7-29.83-1.07-44.73 5.01 3.65 10.58 7.98 16.46 11.85 2.2 1.44 5.12 2.51 7.72 2.52 45.67.15 91.33.07 137 .19 3.41.01 5.54-1.05 7.35-3.86 2.6-4.04 5.58-7.85 8.7-12.18 7.84 4.43 14.95 9.49 19.99 16.86.93 1.36.5 4.49-.48 6.1-1.23 2.02-3.45 3.72-5.61 4.82-4.61 2.32-5.81 5.7-5.77 10.77.3 38.66.17 77.33.43 115.99.07 10.63 1.16 21.25 1.46 31.88.17 6.23-2.52 9.3-8.28 10.66-7.08 1.66-10.16-.48-11.04-7.94-22.03 0-44.08 0-66.54 0v5.75c0 34.67-.07 69.33.06 104 .03 6.8 1.16 13.6 1.17 20.4.01 7.88-5.98 12.44-13.73 10.99-3.86-.73-6.25-2.55-6.03-7.05.57-11.46 1.18-22.94 1.25-34.42.19-32.16.11-64.33.13-96.5-.02-.99-.18-1.95-.29-3.21zm-67.24-84.52v73.93h67.23c0-24.88 0-49.3 0-73.93-22.43 0-44.55 0-67.23 0zm151.23 74.04c0-24.87 0-49.44 0-73.95-22.29 0-44.21 0-66.35 0v73.95zm-83.85-152.88c-22.66 0-44.88 0-67.22 0v68.26h67.22c0-22.82 0-45.28 0-68.26zm83.85 68.49c0-23.08 0-45.78 0-68.51-22.26 0-44.17 0-66.21 0v68.51z"/><path d="m106.94 203.46c-19.27 29.39-45.94 50.55-75.74 68.81-1.19-1.66-2.32-3.25-3.69-5.16 7.65-6.63 15.33-12.92 22.61-19.65 21.05-19.46 39.37-41.07 52.3-66.92 2.77-5.54 3.97-10.81 2.69-17.16-3.28-16.31-6.88-32.47-13.77-47.71-.47-1.03-1.04-2.01-1.16-2.24-18.35 12-36.61 23.85-54.75 35.88-3.37 2.24-5.66 2.29-7.48-1.84 8.66-6.6 17.62-12.94 26.02-19.95 9.71-8.1 19.01-16.69 28.24-25.33.99-.93 1.11-4.14.29-5.44-8.59-13.64-17.4-27.13-26.26-40.6-2.56-3.89-5.45-7.55-8.56-11.85 2.28-1.43 4.45-2.79 7.22-4.53 12.63 17.12 25.26 34.2 38.23 51.73 15.8-18.74 32.97-36.71 40.51-62.52 8.71 5.13 17.15 9.92 25.38 15.06 2.99 1.87 2.18 4.38-.73 5.67-2.55 1.13-5.48 1.38-8.06 2.45-2.27.95-4.9 2.03-6.31 3.86-13.24 17.18-27.27 33.62-43.69 47.23 4.92 12.97 9.97 25.42 14.38 38.1 5.77 16.58 8.45 33.83 9.5 51.29.87 14.44 1.99 28.91 1.74 43.35-.5 29.25-1.25 58.54-6.77 87.42-4.48 23.46-22.84 41.91-44.49 44.88-2.48-13.73-9.19-19.05-29.89-21.07-3.12-.31-6.3-.04-10.29-.04 1.08-3.14 1.92-5.57 2.39-6.92 13.54 1.28 26.5 2.77 39.5 3.66 10.74.74 18.71-4.38 21.98-14.46 3.05-9.4 5.13-19.24 6.45-29.05 3.75-27.76 4.13-55.72 3.86-83.69-.04-4.3-.01-8.6-.01-12.9-.54-.12-1.09-.24-1.64-.36z"/></g></svg>