<svg enable-background="new 0 0 400 400" viewBox="0 0 400 400" xmlns="http://www.w3.org/2000/svg"><g fill="#010000"><path d="m211.13 181.46c-.04.94-.12 1.89-.12 2.83 0 48.5-.04 96.99.06 145.49.01 6.3.97 12.6 1.05 18.9.12 9.12-8.44 14.5-16.52 10.08-1.95-1.07-3.45-4.84-3.43-7.36.38-50.12 1.01-100.24 1.59-150.36 0-.15-.09-.31-.48-1.62-13.62 33.72-28.88 65.55-52.12 92.98-.63-.54-1.07-.79-1.33-1.16-.87-1.22-1.67-2.47-2.64-3.92 25.77-43.28 42.41-89.89 51.04-139.73-8.39 0-16.17-.03-23.95.02-2.32.02-4.64.36-6.96.41-13.62.25-13.78.12-17.52-13.12 17.59 1.24 35.37 2.5 53.64 3.8 0-21.8 0-42.37 0-62.53-15.12 2.52-30.39 5.07-45.92 7.65-.73-2.96-1.23-5-1.85-7.49 17.63-2.52 34.31-7.27 50.18-14.63 15.79-7.33 31.03-15.47 41.64-30.86 7.68 5.47 15.17 10.66 22.43 16.14 1.11.84 1.99 3.37 1.52 4.55-.49 1.22-2.67 1.89-4.23 2.49-.87.33-2.06.29-2.96-.02-7.8-2.66-13.96.86-20.41 4.64-6.28 3.69-13.16 6.32-19.66 9.65-1.32.67-3.01 2.36-3.02 3.58-.15 21.5-.08 42.99-.03 64.49 0 .3.23.59.58 1.47 4.37 0 9.01.23 13.6-.13 1.53-.12 3.2-1.52 4.38-2.74 4.48-4.67 8.78-9.51 13.67-14.85 8.75 6.43 17.49 12.68 25.94 19.3 1.03.81 1.18 4.04.42 5.42-.71 1.29-3.16 2.25-4.86 2.27-15.83.17-31.66.1-47.5.1-1.82 0-3.64 0-6.27 0 0 7.96-.17 15.7.18 23.43.05 1.21 2.36 2.49 3.82 3.43 13.56 8.79 25.78 19.11 33.88 33.25 2.58 4.5 3.31 10.3 3.86 15.62.33 3.18-1.24 6.66-5.4 7.31-3.95.61-6.8-.97-8.52-4.58-4.07-8.55-7.64-17.38-12.36-25.55-3.95-6.85-9.25-12.91-13.96-19.33-.5.21-.98.45-1.46.68z"/><path d="m86.73 107.73c-18.32 12.57-36.25 24.86-54.23 37.2-1.93-2.05-3.04-3.22-4.49-4.75 18.39-13.98 36.33-28.22 52.49-45.81-11.54-15.44-22.96-30.72-34.38-46 5.64-4.41 5.69-4.45 10.02.69 10.39 12.33 20.74 24.7 31.54 37.57 13.51-16.26 26.68-32.76 33.57-54.43 8.62 4.89 16.91 9.33 24.91 14.26 3.24 1.99 2.58 4.72-1.01 6.32-.6.27-1.27.49-1.92.54-8.13.56-12.31 6.15-17.02 11.97-9.38 11.59-19.67 22.46-30.11 34.2 1.27 2.32 3.26 5.73 5.05 9.23 12.45 24.23 20.36 49.79 22.01 77.08.82 13.6 1.93 27.24 1.69 40.84-.54 30.24-1.34 60.52-6.76 90.39-4.41 24.28-18.42 40.24-42.67 47.23-.5-1.03-1.22-1.85-1.27-2.72-.54-8.77-5.86-13.61-13.7-15.69-6.21-1.65-12.69-2.35-19.05-3.43-1.41-.24-2.85-.35-4.83-.58 1.04-2.74 1.9-5 2.3-6.06 12.67 1.46 24.64 3.41 36.68 4.06 11.58.63 18.74-4.4 22.11-15.59 2.85-9.47 4.72-19.34 6.01-29.16 4.29-32.58 4.98-65.33 3.91-98.14-.05-1.63-.32-3.25-.62-6.28-19.03 29.82-45.09 50.32-73.74 68.68-1.74-2.25-3.44-4.45-4.97-6.43 11.26-10.32 22.94-20.01 33.42-30.84 16.7-17.27 31.69-35.95 41.62-58.15.58-1.29 1.17-2.88.92-4.18-3.51-18.32-8.41-36.19-17.48-52.02z"/><path d="m287.11 342.14c0-2.76 0-4.89 0-7.3 7.29 1.52 14.3 3.41 21.44 4.34 6.07.79 12.29.84 18.42.55 5.1-.24 8.82-2.86 9.23-8.6.18-2.48.6-4.95.6-7.43.03-87.81.03-175.62.03-263.42 0-8.94 0-17.89 0-27.73 6.12 1.34 13.05 2.63 19.83 4.43 4.63 1.23 9.14 3.02 13.55 4.92 1.48.63 3.7 2.71 3.46 3.52-.52 1.83-2.05 4.03-3.74 4.73-3.48 1.44-7.33 2-11.03 2.93-1.57.4-3.13.82-4.91 1.29v6.68 271.92c0 18.33-8.48 29.23-26.25 33.88-3.2.84-4.78-.17-4.77-3.55.03-5.79-2.89-10.23-7.85-12.34-7.41-3.15-15.24-5.34-22.92-7.85-1.55-.52-3.23-.63-5.09-.97z"/><path d="m280.01 62.21c9.62 2.85 18.58 5.25 27.34 8.26 2.13.73 4.84 3.38 4.95 5.29.11 1.82-2.48 4.36-4.5 5.62-2.74 1.71-6.05 2.5-9.74 3.92v5.46 189.94c0 7.69-6.64 12.21-13.49 8.59-2.23-1.18-4.29-4.81-4.42-7.42-.34-6.77.72-13.61.73-20.41.04-61.98-.01-123.96-.09-185.94 0-3.96-.45-7.91-.78-13.31z"/></g><path d="m377.9 391.2c-.2.3-.4.5-.6.8-.7-.6-1.4-1-2.2-1.5.2-.3.4-.5.5-.8.6.4 1.4.8 2.3 1.5zm-1.8 6.1c-.2-.2-.5-.4-.9-.6.4-.6.8-1.2 1.2-1.9s.7-1.3.9-1.9c.3.3.5.5.8.7-.7 1.3-1.4 2.6-2 3.7zm2.2-9c-.3.3-.5.5-.6.8-.6-.6-1.3-1.1-2-1.5.3-.3.5-.5.6-.7.6.5 1.3.9 2 1.4zm.3.2v-.9h2 4.5c-.3 1.3-.6 2.5-1 3.6s-.9 2.1-1.4 3c.4.5 1 1 1.6 1.4s1.2.8 1.9 1.1c-.3.2-.5.4-.8.8-.4-.3-1-.7-1.6-1.2s-1.2-1.1-1.6-1.6c-.5.6-1.1 1.1-1.7 1.6s-1.4.9-2.1 1.4c-.1-.3-.3-.5-.7-.8.6-.2 1.2-.5 1.9-1s1.4-1.1 2-1.8c-.5-.8-.9-1.6-1.2-2.5s-.6-2-.8-3.2c-.4.1-.7.1-1 .1zm2.5 2.7c.3 1 .7 1.7 1 2.2.3-.5.6-1.1 1-2s.6-1.9.9-3h-3.2-.4c.1.9 1.3 1.8.7 2.8z" fill="#fbfafa"/><path d="m396.5 388.5v1.5 3.6h1.5v.9c-.4 0-1 0-1.7 0h-7.9c-.5 0-.9 0-1.2 0v-.9h1.3v-3.5c0-.7 0-1.2 0-1.6h2.4c0-.8 0-1.4 0-1.7h1c0 .3-.1.8-.1 1.7h1.5c0-.8 0-1.4 0-1.7h1c0 .3-.1.9-.1 1.7zm-8.2 9.2c-.2-.3-.5-.5-.8-.8.8-.3 1.4-.6 1.9-.9s1-.7 1.4-1.1c.3.3.6.5.9.8-1.6 1-2.8 1.6-3.4 2zm2.6-6.8v-1.6h-1.5v1.6zm0 2.7v-1.9h-1.5v1.9zm2.4-2.7v-1.6h-1.5v1.6zm0 2.7v-1.9h-1.5v1.9zm.2 2 .7-.8c.4.2.9.5 1.6.8s1.3.7 1.8 1c-.3.3-.5.5-.8.8-.4-.3-1.5-1-3.3-1.8zm2-4.7v-1.6h-1.4v1.6zm0 2.7v-1.9h-1.4v1.9z" fill="#fbfafa"/></svg>