<svg enable-background="new 0 0 400 400" viewBox="0 0 400 400" xmlns="http://www.w3.org/2000/svg"><path d="m374.8 390.4.4-.4c.7.5 1.3 1 1.8 1.4l-.5.5c-.5-.6-1.1-1.1-1.7-1.5zm1 7.3-.6-.3c.5-1.4 1.1-2.8 1.5-4.3.2.1.4.2.6.3-.5 1.3-1 2.8-1.5 4.3zm-.4-10.3.4-.4c.4.3 1 .8 1.7 1.4l-.5.5c-.4-.5-1-1-1.6-1.5zm2.5.3h1.7v-1h.6v1h3.5v-1h.6v1h1.8v.5h-1.8v1.4h-2v1h3.2v2h-3.2v.9h3.3v.5h-3.4c0 .3-.1.6-.1.9h4v.5h-3.7c.7.9 1.9 1.5 3.8 1.7-.1.2-.2.4-.3.6-2.1-.4-3.5-1.1-4-2.1-.4 1-1.8 1.7-4 2.2-.1-.2-.2-.4-.3-.6 2.1-.4 3.4-1 3.8-1.8h-3.4v-.5h3.6c.1-.3.1-.6.2-.9h-3.3v-.5h3.4c0-.3 0-.6 0-.9h-3.2v-2h3.3v-1h-2.1v-1.4h-1.7v-.5zm1.1 3.5v1h2.7c0-.3 0-.4 0-.4 0-.1 0-.2 0-.2 0-.1 0-.2 0-.3h-2.7zm1.2-3v.9h3.5v-.9zm4.7 3h-2.6v.6.4h2.6z" fill="#fcfbfa"/><path d="m393.6 386.7h.6v1.5h2.7v6.1h1.1v.6h-11v-.6h1.1v-6.1h2.7v-1.5h.6v1.5h2.1v-1.5zm-2.7 8.8.4.6c-1.2.6-2.5 1.3-3.8 1.9-.1-.2-.2-.4-.3-.6 1.2-.6 2.5-1.2 3.7-1.9zm-2.2-6.7v2.4h2.1v-2.4zm0 3v2.5h2.1v-2.5zm2.8-3v2.4h2.1v-2.4zm.1 3v2.5h2.1v-2.5h-2.2zm5.9 6.1c-1.4-.7-2.7-1.3-3.9-1.8l.3-.6c1.5.6 2.7 1.2 3.9 1.7zm-1.2-9.1h-2.1v2.4h2.1zm-2.1 3v2.5h2.1v-2.5z" fill="#fcfbfa"/><g fill="#010104"><path d="m45.23 368.79c37.86-44.2 43.84-97.84 47.49-153.42-7.02 5.9-13.1 11.15-19.33 16.22-4 3.25-8.08 6.44-12.36 9.3-2.81 1.87-3.94 4.07-3.94 7.41 0 3.18-.74 6.35-1.15 9.53-.62.22-1.25.44-1.87.66-7.4-8.58-14.8-17.16-22.14-25.67 10.72-4.34 21.15-8.15 31.21-12.76 9.05-4.15 17.69-9.2 26.53-13.81 2.79-1.45 3.97-3.53 3.97-6.78-.09-38.82-.06-77.65-.06-116.47 0-7.96 0-15.93 0-24.65 4.48 2.85 9.1 5.56 13.45 8.63 3.83 2.71 7.83 3.72 12.55 3.69 32.33-.17 64.66-.09 96.99-.09h6.86c-3.34-15.53-10.89-28.09-21.03-39.75.93-.78 1.74-1.52 2.62-2.16.8-.59 1.67-1.08 3.39-2.16 7.8 6.55 16.01 13.03 23.72 20.06 5.76 5.25 7.29 12.09 4.95 19.66-.34 1.1-.6 2.22-.87 3.34-.03.12.14.29.39.81 1.41.06 3.02.19 4.63.2 25.17.01 50.33-.04 75.5.07 3.26.01 5.52-.81 7.63-3.5 4.51-5.72 9.47-11.09 14.72-17.16 9.74 7.42 19.29 14.56 28.62 21.98 1.04.83 1.48 3.52.97 4.9-.5 1.36-2.44 2.46-3.98 3.06-1.31.5-2.96.13-4.46.13-80.83 0-161.66 0-242.49 0-1.98 0-3.96 0-6.7 0v6.07c-.02 34.16.95 68.37-.33 102.48-1.47 38.98-3.76 78.05-16.61 115.49-8.58 24.99-21.23 47.29-41.9 64.4-3.28 2.75-3.21 2.83-6.97.29z"/><path d="m257.05 214.1c7.35 4.33 14.54 8.78 21.92 12.87 28.18 15.62 58.44 25.24 90.02 31.06 1.29.24 2.38 1.58 3.31 3.04-9.61 1.83-19.27 2.33-23.95 13.71-12.66-5.02-25.4-9.33-37.48-15.03-21.35-10.06-42.65-20.38-60.75-36-1.85-1.6-3.3-2.18-5.59-.45-32.42 24.44-69.84 38.06-108.14 49.71-4.6 1.4-9.31 2.43-13.84 4-4.14 1.43-7.1.95-8.44-3.99 42.15-16.69 86.31-29.76 121.49-59.9-8.02-9.04-16.17-17.39-23.32-26.52-7.05-9-13.1-18.79-19.93-28.73-15.26 15.27-32.34 28.47-51.72 38.82-1.05-1.77-1.93-3.17-2.73-4.61-.39-.7-.66-1.48-.99-2.25 7.99-6.18 16.25-11.85 23.68-18.45 23.57-20.93 40.93-46.22 51.14-76.14 1.58-4.64 3.24-6.11 8.03-4.47 7.98 2.73 16.18 4.8 24.18 7.49 1.62.54 2.72 2.6 4.07 3.96-1.59 1.27-3.05 2.8-4.82 3.73-1.41.74-3.26 1.21-4.82 1.02-8.01-.97-12.55 2.79-15.5 9.94-1.62 3.92-4.39 7.37-7.2 11.94h5.87c21.49 0 42.99-.21 64.48.14 5.62.09 9.62-1.58 13.71-5.29 8.69-7.89 5.27-7.66 15.41-1.29 4.07 2.56 7.83 5.64 11.53 8.74 4.37 3.66 4.03 6.69-.92 9.76-1.83 1.14-3.74 2.53-5.77 2.89-5.53.99-8.03 5.07-11.02 9.11-10.67 14.44-21.25 28.97-32.59 42.88-5.44 6.61-12.48 11.9-19.32 18.31zm39.46-75.93c-26.17 0-51.32.35-76.45-.2-8.19-.18-14.51 1.29-18.61 8.72-.16.29-.59.49-.62.77-.18 1.7-1.02 3.85-.3 5.05 3.73 6.28 7.62 12.51 11.92 18.42 9.24 12.7 20.24 23.74 32.7 33.74 20.88-19.1 39.85-39.28 51.36-66.5z"/><path d="m179.57 319.54c1.52-5.81 5.02-5.65 9.68-4.8 26.98 4.92 53.58 11.33 79.17 21.17 8.53 3.28 16.46 8.48 24.03 13.71 2.62 1.81 4.33 6.27 4.72 9.71.64 5.74-2.91 8.14-8.23 5.77-6.5-2.89-12.69-6.47-18.95-9.88-26.24-14.27-54.47-23.57-82.6-33.13-2.49-.85-5-1.64-7.82-2.55z"/><path d="m208.01 256.62c1.46-1.93 2.74-3.64 4.16-5.51 18.35 6.23 36.14 13.38 51.84 24.84 3.19 2.33 6.05 5.2 8.75 8.1 3.87 4.16 4.42 10.89 1.65 15.8-2.26 3.99-9.28 4.54-14.2.93-1.58-1.16-3.16-2.59-4.17-4.25-10.89-17.85-27.15-29.3-45.4-38.44-.73-.37-1.44-.8-2.63-1.47z"/><path d="m30.56 107.65c1.49-1.04 3.08-2.14 5.17-3.6 13.23 11.89 26.69 23.67 34.61 39.92 2.52 5.17 2.46 11.89 2.5 17.9.04 5.05-3.58 8.17-7.6 8.35-5.26.23-6.39-3.86-7.06-7.52-2.29-12.63-7.55-24.09-13.87-35.03-3.95-6.84-8.94-13.09-13.75-20.02z"/></g></svg>