<svg enable-background="new 0 0 400 400" viewBox="0 0 400 400" xmlns="http://www.w3.org/2000/svg"><path d="m378.6 9.2.8-1c.9.7 1.9 1.4 2.9 2.3l-.9 1.1c-1.1-.9-2-1.7-2.8-2.4zm.5 10.7c.9-2.1 1.6-4.3 2.3-6.7.4.2.8.4 1.3.6-.7 2.1-1.5 4.3-2.2 6.6zm.4-15.2.9-.9c1 .8 2 1.6 2.8 2.4l-1 1c-1-.9-1.9-1.8-2.7-2.5zm12.5-1.3h1.2v1.4h2.7v1.1h-2.7v2.7h-1.2v-.5h-1.8v1.3h4.9v3.8h-1.2v-.5h-3.7c0 .4-.1.9-.1 1.2h5.1v1h-5.2c0 .5-.1.9-.2 1.2h6v1h-5.2c1.1 1.3 2.9 2 5.5 2.2-.4.4-.7.8-.9 1.3-2.9-.5-4.8-1.6-5.7-3.5h-.1c-.8 1.7-2.7 2.9-5.9 3.6-.2-.4-.6-.8-.9-1.1 2.8-.6 4.6-1.4 5.4-2.5h-4.8v-1h5.3c.1-.3.2-.7.2-1.2h-4.9v-1h5c0-.4 0-.8.1-1.2h-3.6v.5h-1.2v-3.8h4.9v-1.3h-1.8v.5h-1.2v-2.7h-2.6v-1.1h2.6v-1.4h1.2v1.4h4.7v-1.4zm-6.7 8.4h3.6c0-.4 0-.9 0-1.4h-3.6zm1.9-4.7h4.7v-1.2h-4.7zm6.7 3.3h-3.7v1.4h3.7z" fill="#fafbfa"/><path d="m384.7 21.4h1.3v2.2h2.8v-2.2h1.3v2.2h4.1v9.1h1.7v1.3h-16.9v-1.3h1.7v-9.1h4.1v-2.2zm.3 13.2.7 1.2c-1.8.9-3.8 1.9-6 2.9-.2-.4-.5-.8-.8-1.3 2.4-1 4.4-2 6.1-2.8zm-3.1-7.5h2.8v-3.2h-2.8v4.2zm0 5.6h2.8v-3.3h-2.8zm4.1-4.6h2.8v-3.2h-2.8zm0 4.6h2.8v-3.3h-2.8zm3.6 1.9c2.1.9 4.1 1.8 6.1 2.7l-.7 1.3c-2.2-1.1-4.2-2-6.1-2.9zm3.3-9.7h-2.8v3.2h2.8zm-2.8 7.8h2.8v-3.3h-2.8z" fill="#fafbfa"/><g fill="#010000"><path d="m271.59 278.18c-8.79 0-16.78-.13-24.76.14-1.23.04-3.31 1.78-3.46 2.94-4.36 33.63-25.41 54.19-54.48 67.25-17.48 7.85-36.14 13.09-54.29 19.47-.91.32-1.94.32-3.13.49-.86-2.04-1.68-4-2.74-6.54 4.19-1.36 8.25-2.59 12.25-3.99 19.46-6.84 38.81-13.88 55.43-26.64 16.39-12.58 28.37-34.54 28.54-52.86-6.75 0-13.51 0-20.63 0-.11 1.03-.28 1.96-.3 2.9-.17 8.05-4.1 11.73-12.38 11.74-3.04 0-4.74-1.21-4.79-4.36-.01-.83-.02-1.67-.02-2.5 0-47.99 0-95.98 0-143.98 0-1.16 0-2.32 0-4.34 6.14 3.18 11.69 6.29 17.47 8.94 2.61 1.2 5.63 2.05 8.48 2.07 30.16.15 60.32-.04 90.48.21 5.27.04 9.25-1.05 12.32-5.42 1.42-2.02 3.33-3.7 5.74-6.31 5.36 4.03 10.84 7.92 16.04 12.14 3.05 2.48 2.83 5.42-.14 8.06-.25.22-.44.56-.72.68-7.79 3.35-7.46 9.92-7.42 16.94.22 35.66.05 71.32.16 106.98.01 4.37-1.43 7.24-5.42 9.1-8.69 4.06-11.81 2.23-11.82-7.16 0-1.79 0-3.59 0-5.68-7.89 0-15.32 0-23.31 0-.09 1.75-.26 3.52-.27 5.29-.02 14.33-.04 28.66-.01 42.99.03 12.98 3.98 17.15 17.01 17.12 12.14-.03 24.27-.62 36.41-.8 5.39-.08 8.02-3.45 8.88-7.89 1.75-8.94 2.93-18 4.17-27.03.63-4.59.87-9.24 1.28-13.89 5.29-1.25 5.56 2.48 5.77 5.75.5 7.97 1.02 15.95.98 23.92-.04 7.26 2.91 12.41 8.98 16.09 5.21 3.16 5.81 8.21.46 11.39-5.14 3.05-11.13 5.51-17.02 6.33-21.49 2.99-43.14 3.39-64.63.1-13.03-1.99-19.6-8-19.22-22.07.46-17.15.11-34.32.11-51.49 0-1.76 0-3.56 0-6.08zm-67.38-9.98h107.56c0-10.33 0-20.27 0-30.49-35.93 0-71.64 0-107.56 0zm.19-109.02v30.34h107.29c0-10.33 0-20.25 0-30.34-35.86 0-71.42 0-107.29 0zm-.18 68.38h107.51c0-9.29 0-18.21 0-27.29-35.94 0-71.62 0-107.51 0z"/><path d="m27.73 146.07c5.01-1.41 9.98-2.66 14.86-4.2 20.3-6.43 40.64-12.89 58.5-24.9 16.8-11.29 32.62-23.73 42.31-42.22.54-1.03 1.08-2.05 1.53-3.12.31-.73.47-1.53.86-2.81-1.73-.16-3.16-.39-4.58-.4-22.83-.02-45.67.1-68.5-.12-4.27-.04-5.17 1.65-5.66 5.41-1.66 12.63-5.66 24.34-15.83 32.87-4.73 3.97-10.38 6.2-16.62 5.36-2.11-.28-4.88-1.85-5.69-3.6-.67-1.45.55-4.56 1.92-6 4.92-5.18 10.47-9.76 15.38-14.96 11.03-11.62 17.48-25.31 17.89-41.6.03-1.37 1.57-2.7 2.41-4.05.63 1.29 1.75 2.55 1.82 3.86.23 4.28.09 8.58.09 13.1h133.05c-3.06-12.39-12.07-20.06-20.94-27.74 2.86-3.77 5.94-4.42 10.02-2.34 5.91 3.01 12.05 5.56 18.08 8.33 8.61 3.96 9.13 8.1 4.8 18.51-.42 1-1.22 1.85-2.33 3.49h6.01c38.67 0 77.33-.1 116 .12 4.97.03 8.55-1.07 11.31-5.24 1.53-2.31 3.6-4.26 6.02-7.06 7.22 6.15 14.18 12 21.05 17.97 2.2 1.91 1.67 3.81-.72 5.18-.99.57-2.12 1.08-3.23 1.24-8.53 1.17-14.56 6.1-20.29 12.2-6.34 6.75-13.55 12.69-20.4 19-2.08-1.66-3.62-2.89-4.74-3.78 6.29-9.71 12.42-19.19 19.28-29.79-32.62 0-63.35 0-94.74 0 0 8.73-.27 17.49.07 26.22.48 12.3 2.7 13.41 14.25 16.28 20.2 5.02 40.8 5.83 61.4 2.91 6.61-.94 13.07-3.25 19.46-5.38 5.86-1.95 14.52 1.23 17.13 6.79 2.43 5.17 1.01 8.93-4.47 10.36-5.12 1.34-10.38 2.3-15.63 2.96-29.44 3.7-58.75 2.84-87.9-2.82-15.17-2.95-21.06-9.86-21.32-25.31-.18-10.61-.03-21.22-.03-32.11-24.44 0-47.81 0-72.71 0 5.56 2.34 9.85 3.86 13.85 5.95 1.71.89 2.82 2.95 4.2 4.48-1.63 1.47-3.1 3.92-4.93 4.23-7.2 1.23-11.84 5.45-16.51 10.76-16.39 18.61-36.67 31.91-60.04 39.89-18.34 6.26-37.14 11.2-55.78 16.54-5.98 1.72-6.06 1.45-9.96-4.46z"/><path d="m150.48 143.3c8.28 6.43 16.13 12.33 23.68 18.6 1.28 1.06 2.12 4.09 1.53 5.55-.57 1.42-3.23 2.8-4.99 2.82-15.49.22-30.99.14-46.48.14-3.31 0-6.62 0-10.37 0v68.08c14.81 5.92 22.22-4.84 30.49-13.7 7.12 5.25 14.06 10.14 20.67 15.43 1.4 1.12 2.59 4.11 2.06 5.59-.54 1.5-3.31 3.08-5.13 3.11-14.16.25-28.32.14-42.48.14-1.8 0-3.6 0-5.73 0v67.85c20.73-7.32 40.82-14.42 60.87-21.49 2.63 4.48 1.09 6.83-3.67 9.24-37.92 19.15-77.25 34.59-118.18 45.97-1.65.46-3.28 2.39-4.12 4.04-1.54 3.02-2.49 6.35-4.08 10.59-8.14-9.13-12.07-19.29-17.61-29.44 8.03-1.37 15.31-2.62 22.46-3.84 0-40.12 0-79.85 0-120.1 8.02 1.85 16.11 3.54 24.07 5.67 1.8.48 3.2 2.44 4.78 3.71-1.35 1.48-2.45 3.79-4.1 4.28-6.58 1.97-7.29 6.39-7.22 12.48.32 28.15.14 56.31.14 84.47v6.36c9.46-2.35 18.44-4.41 27.27-6.99 1.15-.33 2.15-3.32 2.16-5.09.13-29.16.09-58.31.09-87.47 0-19.31 0-38.63 0-58.34-1.52-.2-2.77-.55-4.02-.52-16.8.38-33.59.87-50.39 1.14-1.2.02-2.96-1.14-3.55-2.24-2.03-3.79-3.66-7.79-5.78-12.46 4.51.74 8.43 1.8 12.39 1.98 17.77.79 35.54 1.45 53.31 1.92 9.99.26 20-.21 29.98.16 4.49.17 7.47-1.36 10.21-4.66 3.6-4.34 7.56-8.39 11.74-12.98z"/></g></svg>