<svg enable-background="new 0 0 400 400" viewBox="0 0 400 400" xmlns="http://www.w3.org/2000/svg"><path d="m378.6 9.2.8-1c.9.7 1.9 1.4 2.9 2.3l-.9 1.1c-1.1-.9-2-1.7-2.8-2.4zm.5 10.7c.9-2.1 1.6-4.3 2.3-6.7.4.2.8.4 1.3.6-.7 2.1-1.5 4.3-2.2 6.6zm.4-15.2.9-.9c1 .8 2 1.6 2.8 2.4l-1 1c-1-.9-1.9-1.8-2.7-2.5zm12.5-1.3h1.2v1.4h2.7v1.1h-2.7v2.7h-1.2v-.5h-1.8v1.3h4.9v3.8h-1.2v-.5h-3.7c0 .4-.1.9-.1 1.2h5.1v1h-5.2c0 .5-.1.9-.2 1.2h6v1h-5.2c1.1 1.3 2.9 2 5.5 2.2-.4.4-.7.8-.9 1.3-2.9-.5-4.8-1.6-5.7-3.5h-.1c-.8 1.7-2.7 2.9-5.9 3.6-.2-.4-.6-.8-.9-1.1 2.8-.6 4.6-1.4 5.4-2.5h-4.8v-1h5.3c.1-.3.2-.7.2-1.2h-4.9v-1h5c0-.4 0-.8.1-1.2h-3.6v.5h-1.2v-3.8h4.9v-1.3h-1.8v.5h-1.2v-2.7h-2.6v-1.1h2.6v-1.4h1.2v1.4h4.7v-1.4zm-6.7 8.4h3.6c0-.4 0-.9 0-1.4h-3.6zm1.9-4.7h4.7v-1.2h-4.7zm6.7 3.3h-3.7v1.4h3.7z" fill="#fafbfa"/><path d="m384.7 21.4h1.3v2.2h2.8v-2.2h1.3v2.2h4.1v9.1h1.7v1.3h-16.9v-1.3h1.7v-9.1h4.1v-2.2zm.3 13.2.7 1.2c-1.8.9-3.8 1.9-6 2.9-.2-.4-.5-.8-.8-1.3 2.4-1 4.4-2 6.1-2.8zm-3.1-7.5h2.8v-3.2h-2.8v4.2zm0 5.6h2.8v-3.3h-2.8zm4.1-4.6h2.8v-3.2h-2.8zm0 4.6h2.8v-3.3h-2.8zm3.6 1.9c2.1.9 4.1 1.8 6.1 2.7l-.7 1.3c-2.2-1.1-4.2-2-6.1-2.9zm3.3-9.7h-2.8v3.2h2.8zm-2.8 7.8h2.8v-3.3h-2.8z" fill="#fafbfa"/><g fill="#010000"><path d="m376.93 350.77c-11.46 1.37-22.02 1.75-27.78 14.33-7.34-9.9-14.56-18.63-20.68-28.06-23.54-36.27-37.71-76.43-47.4-118.24-4.41-19.05-7.55-38.4-11.3-57.61-.21-1.1-.71-2.14-1.18-3.52-3.16 15.87-5.79 31.42-9.4 46.74-5.42 23.01-13.64 45.11-24.37 66.18-2.04 4.01-1 5.6 2.04 7.97 13.27 10.34 24.72 22.43 31.85 37.8 2.41 5.2 2.83 11.46 3.41 17.32.4 4.09-1.64 7.57-6.19 8.37-4.71.83-7.43-1.64-9.11-5.9-4.02-10.18-7.59-20.6-12.51-30.33-4.08-8.08-9.82-15.33-14.56-22.55-12.52 15.48-23.82 31.09-36.84 45.12-12.95 13.96-27.62 26.34-41.87 39.72-2.01-3.32-3.29-5.43-4.87-8.05 65.98-51.88 95.43-122.85 106.73-203.78-1.77-.1-3.22-.28-4.67-.26-18.97.31-37.95.51-56.91 1.1-4.25.13-6.84-.68-8.23-4.95-1.06-3.26-2.83-6.3-4.59-10.1 25.25 6.12 50.25 3.17 75.75 4.06 4.7-39.6 6.11-78.98 2.8-119.36 7.48.84 14.83 1.62 22.15 2.53 2.8.35 5.61.81 8.3 1.61 1.4.42 3.57 1.73 3.55 2.59-.04 1.53-1.13 3.5-2.41 4.43-2.26 1.64-4.91 2.81-7.53 3.85-3.02 1.19-4.05 3.01-4.18 6.37-.8 20.77-1.69 41.55-3.03 62.3-.68 10.6-2.37 21.13-3.57 31.7-.13 1.11-.02 2.24-.02 3.85h20.57c10.67 0 21.34-.2 31.99.1 4.11.12 6.77-1.23 9.24-4.41 4.17-5.38 8.75-10.44 13.45-15.98 9.14 7.21 18.22 14.19 27.03 21.51 1.17.97 1.7 3.85 1.18 5.38-.5 1.45-2.66 2.55-4.32 3.29-1.11.5-2.62.11-3.96.11-27.16 0-54.32 0-81.49 0-1.81 0-3.62 0-5.81 0 5.17 30.43 12.22 59.83 22.63 88.44 9.74 26.77 22.3 51.95 40.4 74.03 9.08 11.08 19.32 21.11 32.4 27.72 1.28.65 1.91 2.58 3.31 4.58z"/><path d="m30.05 160.94c21.06 5.44 41.39 3.82 61.8 4.03 0-45.03 0-89.84 0-135.21 11.65 1.4 23.49 3.42 34.59 8.44 1.45.66 2.86 3.04 2.9 4.66.03 1.25-1.89 3.16-3.35 3.71-5.26 1.97-10.69 3.49-16.49 5.31v113.07c7.51 0 15.09.11 22.66-.12 1.18-.04 2.47-1.47 3.45-2.5 4.91-5.19 9.74-10.47 14.96-16.1 8.54 6.67 17 13.07 25.16 19.83 1.25 1.04 2.18 4.3 1.47 5.44-1.03 1.68-3.65 3.32-5.61 3.34-19 .24-38 .15-57 .15-1.62 0-3.24 0-5.14 0v27.14c14.79 10.4 28.48 22.15 41.21 35 2.68 2.7 5.03 5.79 7.18 8.94 4.27 6.26 6.04 13.22 5.22 20.82-.68 6.32-4.04 10.71-8.76 11.21-5.27.56-8.67-2.17-10.38-9.19-3.89-15.98-11.61-30.02-21.43-42.98-3.69-4.88-7.96-9.32-12.76-14.88-.28 2.37-.54 3.55-.54 4.73-.02 42.5-.06 85 .04 127.5.01 5.97 1.09 11.94 1.09 17.91 0 8.35-9.2 13.44-16.48 9.17-1.41-.83-2.79-3.14-2.76-4.74.21-11.64.77-23.27 1.24-34.91.05-1.16.26-2.31.26-3.47.01-38.33.01-76.66 0-115 0-.92-.13-1.85-.55-2.85-14.86 37.68-33.28 73.11-61.3 103.4-1.3-1.59-2.5-3.06-3.99-4.89 27.93-40.15 45.1-84.76 55.31-132.46-11.85 0-23.33-.39-34.76.12-10.44.46-10.43.9-14.71-8.71-.74-1.65-1.43-3.33-2.53-5.91z"/><path d="m150.93 58.34c10.06 4.09 19.32 7.69 28.4 11.7 1.85.82 3 3.21 4.47 4.87-1.83 1.51-3.44 3.66-5.54 4.39-3.4 1.17-7.11 1.75-10.72 1.94-3.09.16-4.4 1.21-5.68 4.16-6.75 15.54-13.3 31.24-24.44 44.37-2.78 3.28-5.72 6.44-8.84 9.94-1.9-1.27-3.49-2.34-5.12-3.43 13.05-24.41 23.16-49.46 27.47-77.94z"/><path d="m34.28 65.69c1.78-1.34 3.36-2.53 5.55-4.18 12.82 17.4 28.85 32.59 33.6 54.65 1.15 5.32.35 11.21-.44 16.71-.31 2.17-2.73 4.53-4.8 5.85-3.97 2.53-6.51 1.61-8.07-2.95-1.32-3.88-1.78-8.05-2.62-12.09-4.16-20.04-11.5-38.79-22.47-56.09-.26-.41-.37-.91-.75-1.9z"/></g></svg>