<svg enable-background="new 0 0 400 400" viewBox="0 0 400 400" xmlns="http://www.w3.org/2000/svg"><path d="m378.6 9.2.8-1c.9.7 1.9 1.4 2.9 2.3l-.9 1.1c-1.1-.9-2-1.7-2.8-2.4zm.5 10.7c.9-2.1 1.6-4.3 2.3-6.7.4.2.8.4 1.3.6-.7 2.1-1.5 4.3-2.2 6.6zm.4-15.2.9-.9c1 .8 2 1.6 2.8 2.4l-1 1c-1-.9-1.9-1.8-2.7-2.5zm12.5-1.3h1.2v1.4h2.7v1.1h-2.7v2.7h-1.2v-.5h-1.8v1.3h4.9v3.8h-1.2v-.5h-3.7c0 .4-.1.9-.1 1.2h5.1v1h-5.2c0 .5-.1.9-.2 1.2h6v1h-5.2c1.1 1.3 2.9 2 5.5 2.2-.4.4-.7.8-.9 1.3-2.9-.5-4.8-1.6-5.7-3.5h-.1c-.8 1.7-2.7 2.9-5.9 3.6-.2-.4-.6-.8-.9-1.1 2.8-.6 4.6-1.4 5.4-2.5h-4.8v-1h5.3c.1-.3.2-.7.2-1.2h-4.9v-1h5c0-.4 0-.8.1-1.2h-3.6v.5h-1.2v-3.8h4.9v-1.3h-1.8v.5h-1.2v-2.7h-2.6v-1.1h2.6v-1.4h1.2v1.4h4.7v-1.4zm-6.7 8.4h3.6c0-.4 0-.9 0-1.4h-3.6zm1.9-4.7h4.7v-1.2h-4.7zm6.7 3.3h-3.7v1.4h3.7z" fill="#fafbfa"/><path d="m384.7 21.4h1.3v2.2h2.8v-2.2h1.3v2.2h4.1v9.1h1.7v1.3h-16.9v-1.3h1.7v-9.1h4.1v-2.2zm.3 13.2.7 1.2c-1.8.9-3.8 1.9-6 2.9-.2-.4-.5-.8-.8-1.3 2.4-1 4.4-2 6.1-2.8zm-3.1-7.5h2.8v-3.2h-2.8v4.2zm0 5.6h2.8v-3.3h-2.8zm4.1-4.6h2.8v-3.2h-2.8zm0 4.6h2.8v-3.3h-2.8zm3.6 1.9c2.1.9 4.1 1.8 6.1 2.7l-.7 1.3c-2.2-1.1-4.2-2-6.1-2.9zm3.3-9.7h-2.8v3.2h2.8zm-2.8 7.8h2.8v-3.3h-2.8z" fill="#fafbfa"/><g fill="#010000"><path d="m317.69 299.3c-5.34-1.41-5.37-4.41-4.62-8.51 6.01-32.98 11.86-65.98 17.6-99.01.87-5.02.93-10.19 1.41-15.83-16.54 4.78-32.51 9.3-48.37 14.15-1.25.38-2.52 3.1-2.54 4.74-.19 15.33-.11 30.66-.11 45.99 0 22 .01 44-.01 65.99-.01 6.96-2.54 9.32-9.86 9.34-6.44.02-8.67-2.28-8.59-9.35.4-35.13.88-70.26 1.32-105.4.02-1.78 0-3.56 0-5.97-7.16 2.02-13.68 3.83-20.18 5.69-7.34 2.1-14.65 4.32-22.02 6.32-2.65.72-3.63 1.93-3.63 4.83.11 40.16.05 80.32.09 120.49.01 6.89 2 10.2 8.82 11.22 13.93 2.08 27.97 4.27 42.01 4.57 18.26.4 36.57-.87 54.84-1.72 3.72-.17 7.83-.94 10.96-2.79 3.47-2.05 7.67-5.18 8.67-8.67 3.19-11.1 5.14-22.57 7.38-33.94.86-4.35 1.23-8.8 1.89-13.66 2.04.52 3.57.92 5.41 1.39 0 12.5.14 24.81-.06 37.12-.1 6.14 2.08 10.31 7.64 13.34 2.37 1.29 4.73 4.51 5.02 7.08.2 1.79-2.78 5.13-4.94 5.79-9.45 2.9-19.02 6.46-28.75 7.23-23.36 1.85-46.84 3.09-70.26 2.96-15.85-.09-31.83-2.1-47.49-4.78-12.38-2.12-16.51-8.75-16.51-21.24 0-39 0-77.99 0-116.99 0-1.99 0-3.98 0-7.39-7.79 4.19-14.82 7.97-22.28 11.98-3.21-5.61-6.37-11.15-9.61-16.82 10.78-2.2 21.13-4.32 31.37-6.41 0-20.01 0-39.4 0-59.37 9.13 2.14 18.17 4.13 27.12 6.48 1.4.37 2.95 2.24 3.3 3.69.2.84-1.71 2.44-2.94 3.31-1.19.84-2.71 1.24-4.12 1.74-7.48 2.68-7.48 2.67-7.48 10.78v28.55c10.94-2.93 21.33-5.66 31.68-8.51 4.61-1.27 10.92-1.5 13.23-4.6 2.35-3.15.82-9.26.83-14.08.04-16.96.02-33.91.02-51.4 9.67.98 19.67 3.47 28.94 8.36 3.64 1.92 3.48 5.9-.11 7.86-3.6 1.97-7.46 3.46-11.45 5.28v39.85c16.65-4.5 33-8.81 49.25-13.44 2.01-.57 3.64-2.77 5.24-4.42 2.66-2.72 5.16-5.61 8.5-9.26 7.66 6.93 15.22 13.6 22.56 20.51 2.38 2.24 1.36 4.26-1.66 5.04-3.69.96-7.39 2.15-11.14 2.47-3.69.32-4.98 2.06-5.82 5.38-7.61 30.07-15.29 60.12-23.14 90.13-2.1 8.01-4.88 15.83-7.41 23.91z"/><path d="m95.85 165.01c0-45.26 0-89.97 0-135.25 11.64 1.4 23.49 3.42 34.59 8.43 1.45.66 2.86 3.04 2.9 4.66.03 1.25-1.89 3.17-3.35 3.71-5.26 1.97-10.69 3.49-16.49 5.31v113.03c7.66 0 15.41.09 23.14-.11 1.02-.03 2.08-1.49 2.97-2.44 4.89-5.22 9.73-10.48 14.95-16.12 8.54 6.66 16.99 13.07 25.15 19.82 1.26 1.04 2.19 4.29 1.5 5.44-1.02 1.68-3.64 3.33-5.6 3.36-18.83.25-37.66.15-56.49.15-1.79 0-3.59 0-5.93 0 0 9.59-.13 18.72.14 27.82.04 1.38 1.78 2.92 3.04 4.02 13.29 11.57 26.96 22.72 39.86 34.7 7.48 6.95 11.07 16.03 9.03 26.7-1.12 5.83-3.83 9.34-8.28 9.87-4.93.58-9.33-2.27-10.85-8.29-4.26-16.82-12.94-31.24-23.51-44.67-2.54-3.23-5.46-6.17-9.03-10.16-.2 2.65-.4 4.04-.4 5.43-.02 40.66-.06 81.33.04 121.99.02 6.14 1.07 12.27 1.1 18.4.05 8.52-8.48 13.67-16.17 9.75-1.53-.78-3.09-3.34-3.07-5.05.14-11.48.69-22.95 1.13-34.42.06-1.49.36-2.97.36-4.46.02-36.83.02-73.66 0-110.49 0-1.42-.19-2.83-.65-4.32-15.06 37.18-34.43 71.54-62.11 100.79-4.74-4.33-4.7-4.29-1.21-9.29 26.42-37.84 43.74-79.65 54.08-124.48.26-1.11.21-2.28.3-3.29-12.77 0-25.42-.46-38.03.15-9.49.46-9.46 1.06-13.38-7.76-.92-2.08-1.85-4.15-3.1-6.97 21.35 5.53 42.33 3.71 63.37 4.04z"/><path d="m223.39 30.73c10 4.33 19.76 8.41 29.35 12.86 1.48.69 3.12 3.13 2.99 4.61-.12 1.36-2.35 3.18-3.97 3.63-3.98 1.1-8.16 1.44-12.22 2.28-1.12.23-2.69.93-3.06 1.82-4.06 9.94-7.93 19.97-12.13 30.67h5.56c30 0 59.99-.07 89.99.09 3.74.02 6.2-1.12 8.47-3.97 4.46-5.58 9.23-10.92 14.17-16.7 9.01 7.18 17.94 14.1 26.57 21.36 1.28 1.07 1.97 3.97 1.51 5.62-.37 1.35-2.77 2.44-4.48 3.02-1.5.51-3.3.16-4.96.16-45.83 0-91.66.05-137.48-.08-3.65-.01-5.58 1.09-7.31 4.35-8.55 16.15-19.82 30.32-32.79 43.62-.96-.62-1.93-1.16-2.79-1.83-.9-.69-1.69-1.52-2.58-2.33 22.81-33.01 37.89-69 45.16-109.18z"/><path d="m126.2 135.87c13.32-24.19 22.74-49.36 27.31-77.5 9.91 4.08 19.69 7.97 29.31 12.23 1.47.65 3.17 3.06 3.02 4.48-.15 1.47-2.2 3.46-3.8 3.93-3.93 1.17-8.06 1.95-12.16 2.23-2.89.2-4.15 1.09-5.36 3.84-7.14 16.27-13.97 32.76-25.78 46.45-1.3 1.51-2.82 2.86-3.97 4.47-2.98 4.15-5.76 3.66-8.57-.13z"/><path d="m36.63 65.78c1.93-1.48 3.38-2.58 4.83-3.69.45-.43.9-.86 1.36-1.3.56 1.22.92 2.6 1.72 3.64 10.46 13.53 22.14 26.24 28.67 42.39 3.2 7.92 5.37 16.14 2.85 24.75-.58 1.99-1.58 4.11-3.02 5.54-4.71 4.69-9.36 3.47-11.03-2.99-1.49-5.77-2.15-11.76-3.61-17.54-4.25-16.84-10.65-32.82-20-47.54-.62-.95-1.1-1.99-1.77-3.26z"/></g></svg>