<svg enable-background="new 0 0 400 400" viewBox="0 0 400 400" xmlns="http://www.w3.org/2000/svg"><path d="m378.6 9.2.8-1c.9.7 1.9 1.4 2.9 2.3l-.9 1.1c-1.1-.9-2-1.7-2.8-2.4zm.5 10.7c.9-2.1 1.6-4.3 2.3-6.7.4.2.8.4 1.3.6-.7 2.1-1.5 4.3-2.2 6.6zm.4-15.2.9-.9c1 .8 2 1.6 2.8 2.4l-1 1c-1-.9-1.9-1.8-2.7-2.5zm12.5-1.3h1.2v1.4h2.7v1.1h-2.7v2.7h-1.2v-.5h-1.8v1.3h4.9v3.8h-1.2v-.5h-3.7c0 .4-.1.9-.1 1.2h5.1v1h-5.2c0 .5-.1.9-.2 1.2h6v1h-5.2c1.1 1.3 2.9 2 5.5 2.2-.4.4-.7.8-.9 1.3-2.9-.5-4.8-1.6-5.7-3.5h-.1c-.8 1.7-2.7 2.9-5.9 3.6-.2-.4-.6-.8-.9-1.1 2.8-.6 4.6-1.4 5.4-2.5h-4.8v-1h5.3c.1-.3.2-.7.2-1.2h-4.9v-1h5c0-.4 0-.8.1-1.2h-3.6v.5h-1.2v-3.8h4.9v-1.3h-1.8v.5h-1.2v-2.7h-2.6v-1.1h2.6v-1.4h1.2v1.4h4.7v-1.4zm-6.7 8.4h3.6c0-.4 0-.9 0-1.4h-3.6zm1.9-4.7h4.7v-1.2h-4.7zm6.7 3.3h-3.7v1.4h3.7z" fill="#fafbfa"/><path d="m384.7 21.4h1.3v2.2h2.8v-2.2h1.3v2.2h4.1v9.1h1.7v1.3h-16.9v-1.3h1.7v-9.1h4.1v-2.2zm.3 13.2.7 1.2c-1.8.9-3.8 1.9-6 2.9-.2-.4-.5-.8-.8-1.3 2.4-1 4.4-2 6.1-2.8zm-3.1-7.5h2.8v-3.2h-2.8v4.2zm0 5.6h2.8v-3.3h-2.8zm4.1-4.6h2.8v-3.2h-2.8zm0 4.6h2.8v-3.3h-2.8zm3.6 1.9c2.1.9 4.1 1.8 6.1 2.7l-.7 1.3c-2.2-1.1-4.2-2-6.1-2.9zm3.3-9.7h-2.8v3.2h2.8zm-2.8 7.8h2.8v-3.3h-2.8z" fill="#fafbfa"/><g fill="#010000"><path d="m243.04 339.14c.39-2.32.81-4.75 1.31-7.66 9.13 2.01 18.1 4.18 27.16 5.9 6.34 1.2 12.77 2.14 19.21 2.54 9.08.56 16.08-3.6 21.04-11.08 7.6-11.46 11.31-24.47 12.97-37.82 2.93-23.56 5.33-47.21 7.17-70.89 1.87-24.02 3.04-48.11 4.05-72.19.95-22.61 1.29-45.24 1.88-67.86.03-1.14-.1-2.27-.16-3.73-23.47 0-46.7 0-70.3 0-.43 12.09-.71 24.17-1.31 36.24-2.42 49.16-8.28 97.75-27.3 143.67-21.76 52.52-55.04 85.86-105.39 110.86-1.19-1.59-2.45-3.25-3.94-5.23 7.01-4.35 13.76-8.47 20.44-12.69 30.04-18.92 51.09-45.72 67.23-76.81 14.24-27.43 21.79-56.91 26.92-87.17 6.04-35.62 5.71-71.56 5.87-107.49 0-.32-.14-.63-.28-1.23-24.49 0-49.03 0-74.17 0-1.49-3.6-3.17-7.67-5.25-12.7 5.9.46 10.9.91 15.91 1.22 5.97.37 11.95.88 17.93.89 40.49.08 80.99-.06 121.48.16 5.43.03 9.3-1.41 13.01-5.41 7.56-8.15 7.83-8.02 17.03-1.71 3.56 2.44 6.93 5.18 10.25 7.94 2.5 2.08 2.63 4.53.2 6.8-2.67 2.5-5.72 4.64-8.11 7.36-1.6 1.82-3.23 4.34-3.33 6.61-.73 17.62-.8 35.28-1.62 52.89-1.29 27.73-2.78 55.46-4.64 83.16-1.38 20.56-2.95 41.13-5.42 61.58-1.63 13.45-4.45 26.83-7.75 39.99-5.64 22.52-22.75 32.21-43.8 37.39-.53-1.06-1.12-1.89-1.38-2.8-2.11-7.45-7.14-11.9-14.47-13.62-10.62-2.51-21.33-4.7-32.44-7.11z"/><path d="m67.45 231.06c28.91-.65 57.38-6.16 86-11.88 1.47 3.6.47 5.7-3.44 6.79-26.16 7.3-52.27 14.81-78.47 21.96-3.65 1-6.32 2.02-7.61 5.89-.86 2.6-2.59 4.91-3.93 7.35-.62.13-1.23.26-1.85.39-4.96-9.52-9.92-19.04-15.01-28.81 1.46-.49 1.94-.83 2.33-.75 10.25 2.12 16.07-3.37 21.31-11.3 14.68-22.18 29.81-44.06 44.75-66.08.64-.94 1.04-2.03 2.04-4-8.08 2.13-15.32 4.09-22.59 5.95-9.64 2.47-19.24 5.1-28.96 7.18-3.38.72-5.08 2.14-6.43 5.2-1.15 2.61-3.36 4.75-5.1 7.09-1.84-2.18-4.12-4.13-5.45-6.59-3.69-6.82-6.98-13.86-10.61-21.19 1.53-.25 2.18-.52 2.77-.42 8.28 1.37 12.55-2.53 16.24-9.88 15.66-31.22 30.9-62.54 37.99-97.09.32-1.58.72-3.14 1.42-6.18 8.99 5.24 17.42 10.03 25.68 15.11 1.32.81 2.92 3.49 2.49 4.32-.73 1.42-2.93 2.14-4.6 2.98-.87.44-1.98.87-2.88.71-8.46-1.49-10.78 4.25-14.13 10.42-13.78 25.41-28.23 50.45-42.43 75.62-.47.83-.9 1.68-1.86 3.47 11.4-.62 21.96-1.04 32.5-1.81 8.78-.64 17.51-1.87 26.28-2.49 3.1-.22 4.8-1.26 5.92-4.14 5.16-13.29 10.47-26.52 16.24-41.1 8.29 4.88 16.81 9.78 25.16 14.94 1.2.74 2.55 3.17 2.16 4.09-.58 1.34-2.57 2.36-4.17 2.89-2.18.72-4.64 1.42-6.84 1.12-5.37-.72-7.25 2.6-9.76 6.42-9.41 14.3-18.94 28.55-29.04 42.37-15.01 20.58-30.53 40.74-46.12 61.45z"/><path d="m35.59 313.78c43.18-8.46 82.72-23.86 120.32-45.02 1.9 4.3 2.01 7.06-2.15 9.96-28.78 20.06-59.41 36.6-91.94 49.71-1.55.62-2.89 2.45-3.71 4.03-1.64 3.16-2.84 6.54-4.22 9.83-.63.12-1.26.25-1.89.37-5.32-9.36-10.64-18.73-16.41-28.88z"/><path d="m211.96 138.44c.19 24.76.53 49.52-9.74 72.86-3.36 7.63-8.47 13.91-16.23 17.57-1.18.56-2.48 1.1-3.76 1.2-3.76.3-7.96 1.22-10.3-2.9-2.26-3.99.66-7.01 2.93-9.71 10.09-11.98 19.85-24.13 25.68-38.94 4.69-11.9 6.24-24.38 7.19-36.98.2-2.76.57-4.59 4.23-3.1z"/></g></svg>