<svg enable-background="new 0 0 400 400" viewBox="0 0 400 400" xmlns="http://www.w3.org/2000/svg"><path d="m374.8 390.4.4-.4c.7.5 1.3 1 1.8 1.4l-.5.5c-.5-.6-1.1-1.1-1.7-1.5zm1 7.3-.6-.3c.5-1.4 1.1-2.8 1.5-4.3.2.1.4.2.6.3-.5 1.3-1 2.8-1.5 4.3zm-.4-10.3.4-.4c.4.3 1 .8 1.7 1.4l-.5.5c-.4-.5-1-1-1.6-1.5zm2.5.3h1.7v-1h.6v1h3.5v-1h.6v1h1.8v.5h-1.8v1.4h-2v1h3.2v2h-3.2v.9h3.3v.5h-3.4c0 .3-.1.6-.1.9h4v.5h-3.7c.7.9 1.9 1.5 3.8 1.7-.1.2-.2.4-.3.6-2.1-.4-3.5-1.1-4-2.1-.4 1-1.8 1.7-4 2.2-.1-.2-.2-.4-.3-.6 2.1-.4 3.4-1 3.8-1.8h-3.4v-.5h3.6c.1-.3.1-.6.2-.9h-3.3v-.5h3.4c0-.3 0-.6 0-.9h-3.2v-2h3.3v-1h-2.1v-1.4h-1.7v-.5zm1.1 3.5v1h2.7c0-.3 0-.4 0-.4 0-.1 0-.2 0-.2 0-.1 0-.2 0-.3h-2.7zm1.2-3v.9h3.5v-.9zm4.7 3h-2.6v.6.4h2.6z" fill="#fcfbfa"/><path d="m393.6 386.7h.6v1.5h2.7v6.1h1.1v.6h-11v-.6h1.1v-6.1h2.7v-1.5h.6v1.5h2.1v-1.5zm-2.7 8.8.4.6c-1.2.6-2.5 1.3-3.8 1.9-.1-.2-.2-.4-.3-.6 1.2-.6 2.5-1.2 3.7-1.9zm-2.2-6.7v2.4h2.1v-2.4zm0 3v2.5h2.1v-2.5zm2.8-3v2.4h2.1v-2.4zm.1 3v2.5h2.1v-2.5h-2.2zm5.9 6.1c-1.4-.7-2.7-1.3-3.9-1.8l.3-.6c1.5.6 2.7 1.2 3.9 1.7zm-1.2-9.1h-2.1v2.4h2.1zm-2.1 3v2.5h2.1v-2.5z" fill="#fcfbfa"/><g fill="#010104"><path d="m368.61 350.96c-14.1 4.32-14.1 4.32-21.38 12.84-56.53-20.31-89.71-61.04-103.41-118.94-3.65 19.04-8.83 37.29-17.78 54.02-17.4 32.55-43.97 54.58-79.2 65.96-3.62 1.17-3.67 1.06-7.25-4.83 54.3-22.5 79.89-65.65 87.64-122.6-2.34 0-4.09 0-5.85 0-19 0-38-.07-57 .08-2.52.02-5.04 1.1-7.55 1.72-1.11.28-2.18.79-3.31.96-9.46 1.44-10.86-.3-7.62-9.14 7.19-19.62 10.52-40.08 13.04-60.7.28-2.29.61-4.58 1-7.56 5.47 3.24 10.51 6.29 15.63 9.22 1.4.8 3 1.74 4.51 1.75 16.65.12 33.3.08 50.39.08 0-15.14 0-30.02 0-45.1-22.49 0-45.06 0-68.28 0-1.52-3.65-3.29-7.89-4.79-11.48 24.19.71 48.48 1.43 73.15 2.15 0-13.07 0-25.16 0-37.73-1.55-.08-3.17-.25-4.79-.24-21.81.24-43.68-.37-65.4 1.16-9.4.66-13.64-2.08-15.94-10.26-.35-1.24-1.05-2.39-1.96-4.4 29.34 6.52 58.42 3.05 88.23 4.18-.66-15.2-1.3-29.89-1.99-45.91 10.52 2.58 20.48 4.75 30.25 7.54 4.25 1.21 4.73 5.26 1.15 8.04-2.59 2.01-5.62 3.56-8.65 4.86-2.46 1.05-3.6 2.27-3.5 5.13.24 6.47.07 12.96.07 19.91 1.9.1 3.49.26 5.09.26 19.83.02 39.66-.05 59.5.08 3.1.02 5.2-.78 7.21-3.27 5.02-6.19 10.41-12.09 16.17-18.69 7.44 5.86 14.71 11.58 21.97 17.33 2.09 1.65 4.45 3.12 6.06 5.16 1.17 1.48 2.09 3.97 1.67 5.65-.33 1.34-2.73 2.45-4.42 3.1-1.31.5-2.96.13-4.46.13-34.16 0-68.33 0-102.49 0-1.95 0-3.91 0-6.07 0v37.18c1.57.08 3.15.23 4.73.23 17.33.02 34.67-.08 52 .09 3.22.03 5.22-.95 6.99-3.55 2.89-4.24 6.1-8.27 10.02-13.52 6.45 5.74 12.66 11.12 18.69 16.7 3.23 2.99 2.18 5.87-.98 8.28-1.59 1.21-3.08 2.74-4.89 3.42-6.01 2.28-7.25 6.63-6.79 12.54.49 6.13-.15 12.34.25 18.48.14 2.09 1.54 4.53 3.12 6 2.9 2.7 6.31 4.88 9.61 7.12 2.69 1.82 4.26 4.37 2.61 7.12-.87 1.46-3.75 2.39-5.73 2.4-28 .15-56 .1-83.99.1-1.79 0-3.57 0-5.49 0-.8 14.72-1.56 28.95-2.37 43.93h5.42c26.33 0 52.67-.16 78.99.14 5.13.06 8.9-1.36 12.29-4.9 2.3-2.4 4.86-4.55 8.08-7.54 6.28 4.83 12.7 9.69 19.03 14.65 2.75 2.16 2.43 4.57-.14 6.63-1.67 1.34-3.44 3-5.41 3.45-6.7 1.54-7.14 6.62-8.39 12.09-2.47 10.78-5.12 21.65-9.15 31.91-5.63 14.32-18.98 17.73-32.93 20.61.96-7.62-3.37-11.41-9.07-14.31-3.56-1.81-6.9-4.13-10.6-5.54-4.63-1.77-5.4-4.33-2.83-8.5 7.33 1.56 14.71 3.27 22.14 4.68 8.86 1.68 15.11-1.2 19.01-9.19 5.24-10.75 6.8-22.36 7.5-34.46-29.81 0-59.07 0-89.52 0 2.83 7.95 5.15 15.49 8.14 22.76 16.45 39.95 47.26 64.08 86.92 78.28 6.25 2.24 12.62 4.26 19.07 5.82 3.77.9 5.31 2.37 4.03 6.44zm-120.25-177.46h64.07c0-15.21 0-30.08 0-44.91-21.63 0-42.85 0-64.07 0zm-84.49 54.13h65.15c.77-14.59 1.53-28.92 2.3-43.29-19.79 0-38.53 0-56.65 0-3.68 14.74-7.24 29.02-10.8 43.29z"/><path d="m100.33 367.01c-1.11-14.31-6.78-19.56-21.46-23.4-5.71-1.49-5.87-4.01-4.81-8.54 5.9 1.35 11.6 2.98 17.42 3.88 4.89.76 9.92.9 14.89.91 4.37.01 7.21-2.23 7.64-6.88.17-1.81.55-3.62.55-5.42.03-38.66.03-77.31.01-115.97 0-1.44-.18-2.87-.3-4.5-7.43 7.23-14.55 14.16-21.67 21.1-.48.46-.92.99-1.47 1.35-6.86 4.62-12.62 10.07-14.39 18.64-.15.72-.88 1.33-2.24 3.28-4.86-8.18-9.31-15.68-14.06-23.68-2.48 47.92-4.55 95.21-25.77 139.58-2.01-1.19-3.33-1.96-4.68-2.76 7.36-29.67 11.21-59.56 12.03-89.87.58-21.45 1.57-42.9 1.91-64.36.45-28.47.65-56.95.59-85.42-.05-24.47-.58-48.94-.97-73.41-.08-4.97-.52-9.92-.86-15.96 5.9 3.74 10.89 7.23 16.2 10.11 2.78 1.51 6.11 2.7 9.23 2.77 12.99.3 25.99.01 38.98.21 3.24.05 5.23-.99 6.96-3.64 2.71-4.15 5.76-8.08 9.44-13.18 6.65 5.85 13.03 11.29 19.2 16.97 2.71 2.49 2.51 5.25-.6 7.53-1.21.89-2.26 2.12-3.6 2.67-7.37 3.01-8.67 8.39-8.64 16.04.32 87.31.08 174.62.31 261.92.04 16.14-11.64 26.6-29.84 30.03zm-38.91-308.33c0 21.09-.04 41.57.12 62.04.01 1.05 1.7 2.84 2.8 3 18.11 2.62 35.97 5.75 49.88 20.02 0-28.71 0-56.75 0-85.06-17.6 0-34.84 0-52.8 0zm-.28 74.87v87.44c18.75-5.78 36.01-14.34 51.75-25.97.81-.6 1.59-1.87 1.6-2.83.12-9.75.07-19.51.07-29.31-6.19.54-6.09.42-14.07-5.67-11.86-9.04-24.24-17.3-39.35-23.66z"/></g></svg>