<svg enable-background="new 0 0 400 400" viewBox="0 0 400 400" xmlns="http://www.w3.org/2000/svg"><g fill="#010000"><path d="m120.89 208.2c-8.67 7.21-16.8 13.99-24.95 20.74-.9.74-1.82 1.49-2.83 2.05-6.67 3.65-12.55 7.95-14.21 16.06-.15.71-.89 1.3-2.04 2.88-3.59-5.54-6.85-10.57-10.45-16.12-.78 11.69-1.48 22.72-2.26 33.75-1.87 26.67-5.63 52.97-18.04 77.09-4.13 8.03-9.69 15.31-14.77 23.19-2.25-1.57-3.44-2.4-3.63-2.53 4.62-14.12 10.39-27.37 13.13-41.22 3.6-18.18 6.18-36.78 6.78-55.28 1.42-43.25 1.65-86.55 1.88-129.83.14-27.63-.54-55.28-.94-82.91-.09-6.47-.55-12.93-.88-20.49 5.93 3.75 10.9 7.27 16.22 10.12 2.92 1.56 6.44 2.7 9.72 2.78 12.99.31 25.99.01 38.99.21 3.66.06 6.2-.73 8.22-4.06 2.48-4.1 5.59-7.82 9.26-12.84 6.76 6.13 13.27 11.92 19.65 17.87 2.11 1.97 1.76 4.24-.45 6.01-2.33 1.87-4.59 4.06-7.26 5.23-4.96 2.16-5.74 5.66-5.73 10.67.16 88.64-.05 177.29.26 265.93.06 17.43-7.75 25.89-24.3 32.09-1.17.44-2.51.41-3.79.6-1.16-14.69-8.5-19.39-28.28-23.95-6-1.38-6.08-1.02-5.04-8.41 3.98.82 7.92 1.91 11.92 2.41 8.39 1.04 16.81 2.09 25.24 2.5 5.9.28 8.51-2.3 8.53-8 .1-42.01.05-83.98.05-126.54zm-.09-149.35c-18.3 0-36.16 0-54.09 0v62.79c18.86 3.33 38.22 4.15 54.09 17.27 0-26.99 0-53.28 0-80.06zm.13 99.65c-3.65-2-6.82-3.66-9.91-5.44-8.64-4.98-17.1-10.29-25.91-14.94-5.74-3.03-11.97-5.12-18.25-7.74v91.47c18.99-5.49 36.11-13.73 52.01-24.5 1.02-.69 1.95-2.34 1.97-3.55.15-11.98.09-23.96.09-35.3z"/><path d="m331.09 142.95c8.26 6.19 16.39 12.14 24.32 18.35 1.23.96 2.59 3.85 2.09 4.5-1.13 1.51-3.27 2.41-5.17 3.12-1.17.44-2.77.44-3.94.01-7.04-2.6-11.1 1.03-15.55 5.99-7.11 7.91-14.77 15.41-22.83 22.34-8.05 6.92-16.89 12.93-26.39 20.1 8.93 10.67 17.39 21.99 27.1 32.1 17.72 18.46 37.3 34.63 61.56 44.17 1.66.65 2.52 3.31 4.17 5.63-5.82 1.15-10.38 1.46-14.47 3.03-4.07 1.56-7.65 4.38-12.24 7.13-9.84-5.69-19.47-13.51-27.67-22.9-22.96-26.28-42.77-54.76-58.55-85.96-.65-1.29-1.42-2.51-2.8-4.95-.15 2.87-.31 4.46-.31 6.04-.01 45.33-.08 90.65.06 135.98.02 6.45 1.39 12.9 1.49 19.36.15 9.26-7.31 14.48-15.86 11.08-1.8-.72-4-3.46-3.99-5.26.08-12.64.68-25.27 1.13-37.91.06-1.66.32-3.31.32-4.96.02-67.82.01-135.64.01-203.46 0-1.64 0-3.27 0-4.64-.77-.42-1.05-.7-1.32-.7-25.3.27-50.6.5-75.9.92-3.38.06-5.57-.45-6.71-4.07s-2.98-7.02-4.72-10.98c29.28 6.65 58.62 2.78 87.89 4.1 0-23.83 0-47.19 0-71.24 2.24.28 5.16.38 7.95 1.03 8.07 1.88 16.17 3.7 24.06 6.19 2.2.69 3.69 3.63 5.51 5.53-1.7 1.54-3.15 3.69-5.15 4.51-4.57 1.87-9.4 3.1-14.5 4.7v48.77c1.59.12 3.02.32 4.45.32 19.5.02 38.99.12 58.49-.12 2.26-.03 5.05-1.41 6.64-3.08 5.03-5.3 9.61-11.03 14.83-17.14 9.17 7.26 18.35 14.3 27.25 21.7 3.15 2.61 1.87 6.87-2.15 8.13-1.7.53-3.6.57-5.41.57-32.83.03-65.65.02-98.48.02-1.79 0-3.58 0-5.9 0v5.39c0 18.33-.08 36.66.09 54.99.03 2.88.61 6.05 1.92 8.58 5.46 10.61 11.29 21.02 17.07 31.66 17.98-14.06 36.57-34.64 51.61-68.67z"/><path d="m231.1 230c2 4.02 1.46 6.69-1.36 9.69-15.76 16.73-32.44 32.41-50.57 46.55-1.64 1.28-2.52 3.91-3.08 6.09-.89 3.46-1.21 7.07-1.77 10.61-.58.27-1.15.53-1.73.8-7.35-8.54-14.7-17.07-22.45-26.08 30.13-11.47 56.28-28.15 80.96-47.66z"/><path d="m168.27 152.32c2.75-4.29 5.4-4.89 9.06-1.08 9.55 9.92 19.66 19.33 28.91 29.51 6.27 6.9 9.86 15.35 8.87 25.08-.22 2.13-.2 4.73-1.4 6.19-1.73 2.11-4.48 4.66-6.8 4.66-2.24.01-5.3-2.53-6.54-4.75-1.71-3.09-1.91-6.97-2.98-10.45-5-16.26-13.53-30.56-24.29-43.61-1.57-1.89-3.23-3.71-4.83-5.55z"/><path d="m296.43 49.99c1.79-5 4.34-5.57 8.78-3.35 9.57 4.79 18.57 10.27 26.11 17.93 4.73 4.81 6.26 10.46 3.79 16.85-2.13 5.51-7.54 6.31-11.31 1.8-.32-.38-.6-.8-.81-1.25-5.98-13.09-14.92-23.78-26.56-31.98z"/></g><path d="m377.9 391.2c-.2.3-.4.5-.6.8-.7-.6-1.4-1-2.2-1.5.2-.3.4-.5.5-.8.6.4 1.4.8 2.3 1.5zm-1.8 6.1c-.2-.2-.5-.4-.9-.6.4-.6.8-1.2 1.2-1.9s.7-1.3.9-1.9c.3.3.5.5.8.7-.7 1.3-1.4 2.6-2 3.7zm2.2-9c-.3.3-.5.5-.6.8-.6-.6-1.3-1.1-2-1.5.3-.3.5-.5.6-.7.6.5 1.3.9 2 1.4zm.3.2v-.9h2 4.5c-.3 1.3-.6 2.5-1 3.6s-.9 2.1-1.4 3c.4.5 1 1 1.6 1.4s1.2.8 1.9 1.1c-.3.2-.5.4-.8.8-.4-.3-1-.7-1.6-1.2s-1.2-1.1-1.6-1.6c-.5.6-1.1 1.1-1.7 1.6s-1.4.9-2.1 1.4c-.1-.3-.3-.5-.7-.8.6-.2 1.2-.5 1.9-1s1.4-1.1 2-1.8c-.5-.8-.9-1.6-1.2-2.5s-.6-2-.8-3.2c-.4.1-.7.1-1 .1zm2.5 2.7c.3 1 .7 1.7 1 2.2.3-.5.6-1.1 1-2s.6-1.9.9-3h-3.2-.4c.1.9 1.3 1.8.7 2.8z" fill="#fbfafa"/><path d="m396.5 388.5v1.5 3.6h1.5v.9c-.4 0-1 0-1.7 0h-7.9c-.5 0-.9 0-1.2 0v-.9h1.3v-3.5c0-.7 0-1.2 0-1.6h2.4c0-.8 0-1.4 0-1.7h1c0 .3-.1.8-.1 1.7h1.5c0-.8 0-1.4 0-1.7h1c0 .3-.1.9-.1 1.7zm-8.2 9.2c-.2-.3-.5-.5-.8-.8.8-.3 1.4-.6 1.9-.9s1-.7 1.4-1.1c.3.3.6.5.9.8-1.6 1-2.8 1.6-3.4 2zm2.6-6.8v-1.6h-1.5v1.6zm0 2.7v-1.9h-1.5v1.9zm2.4-2.7v-1.6h-1.5v1.6zm0 2.7v-1.9h-1.5v1.9zm.2 2 .7-.8c.4.2.9.5 1.6.8s1.3.7 1.8 1c-.3.3-.5.5-.8.8-.4-.3-1.5-1-3.3-1.8zm2-4.7v-1.6h-1.4v1.6zm0 2.7v-1.9h-1.4v1.9z" fill="#fbfafa"/></svg>