<svg enable-background="new 0 0 400 400" viewBox="0 0 400 400" xmlns="http://www.w3.org/2000/svg"><g fill="#010000"><path d="m296.59 62.75c-27.28 0-53.7 0-80.52 0v20.74c0 17 .17 34-.11 50.99-.08 4.64 1.31 7.42 5.06 10.27 17.34 13.2 34.87 26.26 48.89 43.23 6.09 7.37 10.23 15.51 10.17 25.36-.05 7.47-2.5 11.83-7.21 12.67-5.44.97-10.75-2.59-12.58-9.71-4.98-19.37-15.73-35.45-28.09-50.63-4.57-5.61-9.89-10.6-15.66-16.71-.27 2.08-.42 2.82-.46 3.57-1.36 30.07-1.77 60.21-4.3 90.18-2.7 32.02-9.08 63.45-23.73 92.56-6.48 12.87-14.83 24.42-25.5 34.82-1.27-.8-2.58-1.61-4.14-2.58 9.94-13.8 17.52-28.58 22.09-44.33 5.3-18.25 9.51-36.99 12.22-55.79 9.32-64.72 5.95-129.9 5.89-194.96-.01-10.31 0-20.61 0-31.58 4.29 2.7 8.87 5.19 13 8.29 3.95 2.98 8.06 3.93 12.95 3.89 22.66-.2 45.32-.18 67.98 0 3.91.03 6.54-.84 8.32-4.53 1.58-3.27 3.77-6.25 6.34-10.39 6.55 5.77 12.96 11.17 19.07 16.89 2.94 2.76 2.41 6.09-.42 8.77-1.92 1.81-3.97 3.8-6.34 4.73-4.62 1.81-5.62 4.73-5.62 9.51.17 85.48.12 170.96.12 256.44 0 7.77 1.46 9.34 9.21 9.5 4.83.1 9.67.13 14.49-.09 7.14-.32 10.59-2.5 12.22-9.49 3.36-14.36 6.12-28.87 8.95-43.35 1.33-6.83 2.25-13.74 3.38-20.82 2.2.42 4.25.81 6.63 1.26-.65 5.96-1.53 11.66-1.85 17.39-.81 14.94-1.33 29.89-2.06 44.84-.22 4.55 1.47 7.57 5.77 9.42 1.71.73 3.33 2.29 4.35 3.88 2.53 3.93 1.46 7.3-3.05 8.42-6.42 1.58-12.98 3.12-19.54 3.43-13.26.62-26.58.78-39.85.42-10.79-.29-16.06-6.42-16.06-17.26-.01-90.81-.01-181.63-.01-272.44 0-2.14 0-4.27 0-6.81z"/><path d="m130.6 368.01c.36-13.04-7.49-17.88-17.1-20.9-5.21-1.63-10.54-3.04-15.92-3.91-6.48-1.05-6.59-.86-5.37-8.36 6.28 1.14 12.53 2.61 18.87 3.35 7.91.91 15.88 1.3 23.83 1.76 4.3.25 6.37-2.32 6.92-6.29.2-1.48.17-2.99.17-4.49.01-44.99.01-89.98 0-134.98 0-1.15-.1-2.3-.17-3.77-22.73 4.77-45.24 9.5-68.64 14.42 0 5.7.2 11.67-.03 17.61-1.25 32.74-2.91 65.45-13.02 96.99-5.71 17.8-14.12 34.07-27.99 47.05-.72.67-1.47 1.31-2.2 1.96-.59-.19-1.13-.24-1.49-.51-.76-.59-1.43-1.3-1.43-1.3 5.61-12.41 11.71-24.06 16.19-36.3 6.08-16.6 8.44-34.15 9.66-51.74 1.49-21.56 2.49-43.14 3.68-64.72.1-1.8.01-3.61.01-5.04-12.54-3.21-16.09 6.06-20.06 14.74-.6-.14-1.19-.28-1.79-.42-3.49-9.47-6.99-18.93-10.61-28.76 9.59-.54 18.35-1.22 27.11-1.44 3.91-.1 5.53-1.02 5.47-5.36-.5-34.13-.72-68.27-1.13-102.41-.08-6.47-.56-12.94-.9-20.58 6.18 3.93 11.53 7.34 16.88 10.75 6.84 4.36 8.81 3.75 13.36-2.83 8.4-12.17 10.9-26.18 13.03-40.34.1-.66.13-1.32.27-1.97.07-.3.32-.57.88-1.53 10.4 2.18 21.16 3.89 30.61 9.8 2.73 1.71 2.35 4.19-.67 5.15-3.76 1.2-7.72 2.01-11.65 2.38-3.08.29-4.92 1.26-6.75 3.98-5.47 8.13-11.47 15.9-17.27 23.81-.76 1.03-1.55 2.04-2.77 3.65 2.07.16 3.47.35 4.87.35 13 .02 26-.13 38.99.11 3.45.06 5.54-1.14 7.38-3.83 2.81-4.11 5.86-8.04 9.67-13.22 6.63 5.97 13.08 11.56 19.26 17.44 2.34 2.23 1.78 4.87-.81 6.86-2.24 1.71-4.35 3.81-6.87 4.9-4.43 1.9-5.2 5-5.17 9.43.2 24.16.09 48.32.09 72.49v6.31c9.13-1.88 17.78-3.65 26.59-5.46 1.53 4.53.64 7.2-4.44 8.26-7.29 1.52-14.46 3.59-22.15 5.54v5.89c0 47.33.05 94.65-.05 141.98-.02 7.7-.99 15.28-6.48 21.42-5.38 6.01-12.39 9.07-20.86 12.08zm11.03-186.44c0-31.68 0-62.72 0-93.83-22.79 0-45.2 0-67.8 0v103.64c22.97-3.32 45.41-6.57 67.8-9.81z"/><path d="m84.76 223.71c.85-1.09 2.07-2.64 3.8-4.85 5.45 4.28 11.05 8.09 15.96 12.65 8.63 8.03 17.45 16.18 21.53 27.63 1.65 4.63 1.94 9.89 2.06 14.88.09 3.82-2.41 6.46-6.46 7.03-4.23.59-6.41-1.89-7.89-5.39-3.67-8.7-6.63-17.8-11.22-25.98-5-8.9-11.51-16.95-17.78-25.97z"/><path d="m84.17 115.43c1.32-1.84 2.55-3.58 4.05-5.68 15.17 9.18 28.54 19.78 36.67 35.75 2.57 5.06 3.4 10.59 1.18 15.93-.8 1.94-3.26 4.33-5.07 4.41-2.13.1-4.6-1.8-6.49-3.35-1.17-.96-1.68-2.84-2.24-4.4-5.89-16.41-14.81-30.83-28.1-42.66z"/></g><path d="m377.9 391.2c-.2.3-.4.5-.6.8-.7-.6-1.4-1-2.2-1.5.2-.3.4-.5.5-.8.6.4 1.4.8 2.3 1.5zm-1.8 6.1c-.2-.2-.5-.4-.9-.6.4-.6.8-1.2 1.2-1.9s.7-1.3.9-1.9c.3.3.5.5.8.7-.7 1.3-1.4 2.6-2 3.7zm2.2-9c-.3.3-.5.5-.6.8-.6-.6-1.3-1.1-2-1.5.3-.3.5-.5.6-.7.6.5 1.3.9 2 1.4zm.3.2v-.9h2 4.5c-.3 1.3-.6 2.5-1 3.6s-.9 2.1-1.4 3c.4.5 1 1 1.6 1.4s1.2.8 1.9 1.1c-.3.2-.5.4-.8.8-.4-.3-1-.7-1.6-1.2s-1.2-1.1-1.6-1.6c-.5.6-1.1 1.1-1.7 1.6s-1.4.9-2.1 1.4c-.1-.3-.3-.5-.7-.8.6-.2 1.2-.5 1.9-1s1.4-1.1 2-1.8c-.5-.8-.9-1.6-1.2-2.5s-.6-2-.8-3.2c-.4.1-.7.1-1 .1zm2.5 2.7c.3 1 .7 1.7 1 2.2.3-.5.6-1.1 1-2s.6-1.9.9-3h-3.2-.4c.1.9 1.3 1.8.7 2.8z" fill="#fbfafa"/><path d="m396.5 388.5v1.5 3.6h1.5v.9c-.4 0-1 0-1.7 0h-7.9c-.5 0-.9 0-1.2 0v-.9h1.3v-3.5c0-.7 0-1.2 0-1.6h2.4c0-.8 0-1.4 0-1.7h1c0 .3-.1.8-.1 1.7h1.5c0-.8 0-1.4 0-1.7h1c0 .3-.1.9-.1 1.7zm-8.2 9.2c-.2-.3-.5-.5-.8-.8.8-.3 1.4-.6 1.9-.9s1-.7 1.4-1.1c.3.3.6.5.9.8-1.6 1-2.8 1.6-3.4 2zm2.6-6.8v-1.6h-1.5v1.6zm0 2.7v-1.9h-1.5v1.9zm2.4-2.7v-1.6h-1.5v1.6zm0 2.7v-1.9h-1.5v1.9zm.2 2 .7-.8c.4.2.9.5 1.6.8s1.3.7 1.8 1c-.3.3-.5.5-.8.8-.4-.3-1.5-1-3.3-1.8zm2-4.7v-1.6h-1.4v1.6zm0 2.7v-1.9h-1.4v1.9z" fill="#fbfafa"/></svg>