<svg enable-background="new 0 0 400 400" viewBox="0 0 400 400" xmlns="http://www.w3.org/2000/svg"><path d="m374.8 390.4.4-.4c.7.5 1.3 1 1.8 1.4l-.5.5c-.5-.6-1.1-1.1-1.7-1.5zm1 7.3-.6-.3c.5-1.4 1.1-2.8 1.5-4.3.2.1.4.2.6.3-.5 1.3-1 2.8-1.5 4.3zm-.4-10.3.4-.4c.4.3 1 .8 1.7 1.4l-.5.5c-.4-.5-1-1-1.6-1.5zm2.5.3h1.7v-1h.6v1h3.5v-1h.6v1h1.8v.5h-1.8v1.4h-2v1h3.2v2h-3.2v.9h3.3v.5h-3.4c0 .3-.1.6-.1.9h4v.5h-3.7c.7.9 1.9 1.5 3.8 1.7-.1.2-.2.4-.3.6-2.1-.4-3.5-1.1-4-2.1-.4 1-1.8 1.7-4 2.2-.1-.2-.2-.4-.3-.6 2.1-.4 3.4-1 3.8-1.8h-3.4v-.5h3.6c.1-.3.1-.6.2-.9h-3.3v-.5h3.4c0-.3 0-.6 0-.9h-3.2v-2h3.3v-1h-2.1v-1.4h-1.7v-.5zm1.1 3.5v1h2.7c0-.3 0-.4 0-.4 0-.1 0-.2 0-.2 0-.1 0-.2 0-.3h-2.7zm1.2-3v.9h3.5v-.9zm4.7 3h-2.6v.6.4h2.6z" fill="#fcfbfa"/><path d="m393.6 386.7h.6v1.5h2.7v6.1h1.1v.6h-11v-.6h1.1v-6.1h2.7v-1.5h.6v1.5h2.1v-1.5zm-2.7 8.8.4.6c-1.2.6-2.5 1.3-3.8 1.9-.1-.2-.2-.4-.3-.6 1.2-.6 2.5-1.2 3.7-1.9zm-2.2-6.7v2.4h2.1v-2.4zm0 3v2.5h2.1v-2.5zm2.8-3v2.4h2.1v-2.4zm.1 3v2.5h2.1v-2.5h-2.2zm5.9 6.1c-1.4-.7-2.7-1.3-3.9-1.8l.3-.6c1.5.6 2.7 1.2 3.9 1.7zm-1.2-9.1h-2.1v2.4h2.1zm-2.1 3v2.5h2.1v-2.5z" fill="#fcfbfa"/><g fill="#010104"><path d="m132.5 240.41c-1.77 0-3.54 0-5.32 0-20 0-40-.16-59.99.07-10.13.11-20.25.99-30.39 1.31-1.29.04-3.27-.88-3.82-1.94-2.08-3.95-3.7-8.14-5.6-12.48 7.7.91 15.02 1.93 22.37 2.6 5.79.53 11.62.92 17.43.92 85.66.06 171.32.01 256.98.13 4.11.01 6.72-1.24 9.18-4.44 4.16-5.39 8.81-10.4 13.74-16.14 7.92 6.22 15.71 12.34 23.5 18.46 1.31 1.03 3.03 1.8 3.83 3.13.84 1.38 1.42 3.5.95 4.91-.46 1.37-2.24 2.7-3.72 3.22-1.65.57-3.62.23-5.45.23-67.49.01-134.99.06-202.48-.1-4.81-.01-7.91 1.26-10.82 5.21-6.31 8.57-13.22 16.71-19.86 25.04-.77.97-1.39 2.06-2.72 4.04h6.79c51 0 101.99-.07 152.99.1 5.19.02 9.31-.94 12.74-5.04 2.11-2.51 4.9-4.45 8.21-7.37 6.35 4.85 12.81 9.7 19.16 14.68 2.79 2.19 2.23 4.63-.2 6.71-1.38 1.18-2.89 2.59-4.56 2.97-7.46 1.68-8.56 7.22-9.41 13.59-1.85 13.88-6.09 27.11-11.33 40.12-6.18 15.33-17.92 23.46-33.07 27.7-5.54 1.55-11.22 2.58-17.52 4-.31-9.82-6.47-13.5-13.82-15.74-12.69-3.86-25.45-7.47-38.18-11.19-1.41-.41-2.82-.86-4.14-1.27.02-6.6-.02-6.43 5.94-5.15 15.41 3.29 30.76 7.06 46.32 9.45 19.53 3 32.09-2.64 40.39-21.84 5.7-13.18 8.55-27.12 9.73-42.12-2.21 0-4.14 0-6.08 0-60.33-.03-120.66-.06-180.98-.09-1.66 0-3.38.12-4.98-.22-4.48-.97-4.91-3.28-2.13-6.81 9.19-11.68 18.16-23.54 27.22-35.33-.29-.45-.6-.88-.9-1.32z"/><path d="m324.25 93.51c5.06 3.8 10.1 7.27 14.77 11.17 4.28 3.57 4.67 6.92.04 9.7-7 4.2-7.51 10.05-6.92 16.89.21 2.48.29 5.02-.01 7.48-.88 7.25.5 13.2 7.41 17.31 1.56.93 2.08 4.48 2 6.79-.03.77-3.41 2.03-5.27 2.04-33.3.12-66.61.09-99.91.09-1.82 0-3.63 0-5.36 0-1.79 6.78-6.37 10.38-13.28 9.8-1.64-.14-3.83-2.37-4.44-4.1-.79-2.23-.27-4.93-.27-7.42-.01-21.31 0-42.63 0-63.94 0-1.6 0-3.21 0-5.64 6.44 3.54 12.12 6.89 18.02 9.8 2.42 1.19 5.31 2 8 2.02 22.98.15 45.96 0 68.94.17 4.03.03 6.94-.89 9.28-4.34 1.82-2.71 4.37-4.93 7-7.82zm-9.67 61.1c0-13.43 0-26.3 0-39.04-28.29 0-56.16 0-83.95 0v39.04z"/><path d="m169.75 93.4c5.28 4 10.36 7.48 15 11.47 4.2 3.61 4.59 6.51.06 9.24-7.25 4.37-7.27 10.56-6.84 17.44.14 2.32.24 4.69-.02 6.99-.86 7.71.23 14.33 8.09 18.35 1.14.58 1.88 3.99 1.26 5.4-.61 1.37-3.21 2.59-4.95 2.59-31.65.15-63.3.11-94.94.11-1.8 0-3.6 0-5.28 0-1.59 6.78-6.95 10.57-13.51 10-3.26-.29-4.05-2.35-4.03-5.17.03-6 0-11.99 0-17.99 0-17.16 0-34.31 0-51.47 0-1.8 0-3.6 0-6.42 6.59 3.54 12.3 6.8 18.2 9.68 2.29 1.11 5 1.87 7.52 1.88 20.99.15 41.98-.06 62.96.2 4.32.06 7.22-1.23 9.71-4.53 1.9-2.49 4.13-4.75 6.77-7.77zm-87.98 61.13h78.71c0-13.16 0-26.01 0-39.07-26.38 0-52.41 0-78.71 0z"/><path d="m272.3 54.59h5.26c15.66 0 31.32-.08 46.98.06 3.43.03 5.92-.78 8.19-3.54 4.01-4.87 8.47-9.36 12.95-14.24 8.11 5.99 16.24 11.79 24.07 17.98 1.6 1.26 2.86 4.05 2.78 6.07-.13 3.15-3.06 3.18-5.72 3.17-29.99-.05-59.97-.03-89.96-.03-1.83 0-3.65 0-5.89 0-1.29 6.57-2.56 13.01-3.81 19.46-1.33 6.83-9.88 11.11-15.46 7.12-1.52-1.09-1.51-5.3-1.09-7.9.96-6 2.6-11.9 4.2-18.85-9.46.43-17.89.52-26.26 1.3-4.26.4-6.4-.96-7.67-4.86-1.02-3.12-2.54-6.07-4.11-9.73 3.63.63 6.65 1.35 9.72 1.66 8.58.87 17.19 1.49 25.77 2.37 3.41.35 4.27-1.45 4.62-4.3.97-8.05 2.06-16.09 3.16-24.55 9.82.28 18.88 2.66 27.59 6.31 3.4 1.43 3.33 4.58-.03 6.36-2.46 1.3-5.21 2.36-7.94 2.73-4.6.62-6.56 2.96-6.54 7.45-.01 1.63-.43 3.26-.81 5.96z"/><path d="m139.78 54.58c5.51 0 11.17.18 16.81-.11 1.58-.08 3.36-1.24 4.59-2.4 4.11-3.89 8-8 12.26-12.32 7.11 5.26 14.14 10.24 20.84 15.63 1.38 1.11 2.34 4.03 1.91 5.71-.34 1.31-3.11 2.82-4.81 2.85-15.16.22-30.33.13-45.49.13-1.79 0-3.58 0-5.7 0 .76 6.66 1.46 12.73 2.16 18.8.6 5.24-1.98 7.63-9.44 8.79-4.73.73-5.86-1.73-6.24-5.98-.64-7.07-1.97-14.08-3.04-21.31-1.35-.11-2.49-.29-3.62-.29-21.66.1-43.32.17-64.98.36-4.98.04-9.97.74-14.93.59-1.65-.05-3.89-1.44-4.73-2.88-1.91-3.25-3.11-6.92-5.06-11.49 30.81 6.04 61.11 3.22 91.9 4.05-1.2-9.92-2.31-19.1-3.54-29.26 7.61 1.02 14.61 1.9 21.58 2.93 2.6.38 5.23.91 7.72 1.75 2.69.9 2.73 2.68.7 4.46-.99.87-2.17 1.54-3.29 2.24-9.27 5.78-9.59 6.75-5.6 17.75z"/><path d="m68.03 189.29c42 6.59 83.81 2.79 125.48 3.54 29.81.53 59.63.18 89.45-.03 2.43-.02 5.36-1.41 7.16-3.11 4.57-4.33 8.63-9.2 13.31-14.3 8.73 6.39 17.35 12.54 25.69 19.03 1.09.85 1.42 3.71.91 5.24-.41 1.22-2.54 2.14-4.08 2.63-1.36.44-2.97.11-4.47.11-57.14 0-114.28-.15-171.41.07-24.28.09-48.55.98-72.83 1.37-1.13.02-2.79-1.03-3.33-2.05-2.1-3.94-3.85-8.08-5.88-12.5z"/></g></svg>