<svg enable-background="new 0 0 400 400" viewBox="0 0 400 400" xmlns="http://www.w3.org/2000/svg"><g fill="#010000"><path d="m111.81 255.88c16.36 17.84 29.22 37.58 34.72 61.38 1.16 5.03.78 10.53.47 15.77-.25 4.2-3.53 7.03-7.38 6.55-2.09-.26-4.71-3.58-5.44-6.01-2.51-8.34-4.29-16.9-6.37-25.47-11.81 6.98-22.86 14.09-34.44 20.2-12.63 6.66-25.68 12.56-38.71 18.41-3.13 1.41-5.29 2.64-6.03 6.25-.58 2.82-2.12 5.44-3.64 9.12-8.13-8.95-11.95-19.19-17.54-29.05 7.96-1.78 15.37-3.32 22.72-5.13 5.96-1.47 11.88-3.12 17.7-5.02 1.26-.41 2.93-2.25 2.94-3.44.15-32.5.11-65 .08-97.5 0-.46-.25-.91-.45-1.61-8.13 0-16.23 0-25.03 0 0 3.56.43 7.08-.17 10.43-.33 1.86-2.04 4.41-3.68 4.95-8.09 2.64-15.41-3.25-14.47-11.74 4.55-41.02 2.49-82.18 2.67-123.28.02-5.58-1.07-11.16-1.74-17.67 5.99 4.35 11.29 8.5 16.92 12.14 2.34 1.51 5.33 2.53 8.1 2.73 5.75.4 11.57.11 17.35.11 0-22.53 0-44.58 0-67.67 10.37 2.56 20.63 5.04 30.85 7.66 1.58.4 3.14 1.21 4.46 2.17 3.44 2.5 3.2 6.05-.76 7.63-5.34 2.13-10.9 3.72-16.67 5.64v44.55c6.92 0 13.7.12 20.46-.12 1.13-.04 2.42-1.51 3.28-2.6 3.27-4.16 6.4-8.42 9.78-12.92 7.98 4.62 14.94 9.94 20.13 17.2.84 1.17.48 4.47-.58 5.47-2.85 2.72-6.52 4.56-9.57 7.1-1.3 1.08-2.66 3.04-2.67 4.6-.16 28-.16 56-.01 84 .01 1.66 1.17 3.69 2.43 4.88 2.28 2.16 5.32 3.53 7.48 5.78 1.34 1.4 2.26 3.8 2.26 5.76 0 3.31-2.87 2.96-5.22 2.96-14.67-.01-29.33-.01-44 0-1.14 0-2.27.12-3.68.21v95.83c2.53-.96 4.94-1.76 7.26-2.77 8.54-3.7 16.98-7.65 25.6-11.13 3.73-1.5 4.33-3.43 2.75-6.79-4.59-9.76-8.79-19.73-13.8-29.27-2.09-4.02-2.67-6.89 1.64-10.29zm-65.95-147.74v102.1h24.69c0-34.24 0-68.13 0-102.1-8.38 0-16.36 0-24.69 0zm66.71 102.1c0-34.22 0-68.09 0-101.93-8.28 0-16.19 0-24.13 0v101.93z"/><path d="m238.59 221.61c-19.93 0-38.89 0-58.22 0v106.68c21.72-6.51 41.29-16.87 61.51-29.01-6.5-10.07-12.4-20.02-19.18-29.33-2.97-4.09-2.96-6.51 2.04-10.1 6.9 7.27 14.4 14.35 20.92 22.25 9.11 11.04 17.58 22.68 21.67 36.69 1.51 5.19 1.95 10.71 2.66 16.11.19 1.41-.35 2.94-.68 4.38-.78 3.43-2.76 5.51-6.45 5.9-4 .42-6.44-1.57-7.63-5.03-3.22-9.41-6.22-18.89-9.33-28.34-.41-1.25-.96-2.45-1.58-4.02-.95.57-1.84.94-2.53 1.55-17.51 15.23-36.26 28.67-56.76 39.63-1.38.74-2.38 2.52-3.13 4.03-1.33 2.66-2.33 5.49-3.47 8.24-.26.63-.55 1.24-.82 1.86-.62-.01-1.24-.02-1.86-.03-5.34-9.41-10.68-18.81-16.02-28.22.58.03 1.16.05 1.74.08.84-1.87 2.42-3.74 2.42-5.61.1-92.14.09-184.28-.04-276.42-.01-5.23-1.11-10.45-1.8-16.53 6.31 4.55 11.98 8.85 17.89 12.78 1.94 1.29 4.49 2.29 6.77 2.32 14.83.2 29.66.24 44.48-.05 2.21-.04 4.92-1.61 6.46-3.32 3.42-3.8 6.24-8.14 10.17-13.42 6.69 6.15 13.14 11.77 19.12 17.85 1.02 1.03.47 4.21-.2 6.1-.48 1.36-2.21 2.57-3.66 3.23-7.23 3.29-7.92 9.09-7.84 16.28.37 31.65-.02 63.31.23 94.97.13 16.29 1.12 32.58 1.55 48.87.25 9.58-4.15 13.36-13.65 12.36-3.45-.36-5.12-1.85-4.82-5.46.2-2.25.04-4.55.04-7.27zm-58.47-9.89h58.13c0-23.92 0-47.66 0-71.35-19.56 0-38.79 0-58.13 0zm0-81.91h58.12c0-22.9 0-45.63 0-68.36-19.57 0-38.8 0-58.12 0z"/><path d="m343 62.61c-15.37 0-29.99 0-45.29 0-.1 2.31-.29 4.55-.29 6.79-.01 96.65-.01 193.29-.01 289.94 0 8.2-.97 9.65-6.42 9.65-7.32 0-12.16-3.87-11.94-10.5.29-8.45 1.4-16.86 2.03-25.3.4-5.3.82-10.62.82-15.94.05-86.15.07-172.3-.03-258.45-.01-6.59-1.01-13.18-1.62-20.59 4.48 3.19 8.95 5.89 12.83 9.26 4.94 4.31 10.26 5.95 16.83 5.58 8.97-.51 17.99.04 26.98-.26 1.93-.06 4.32-1.35 5.59-2.85 3.33-3.9 6.16-8.23 9.47-12.78 8.03 4.53 15.21 9.77 20.22 17.4.79 1.2.1 4.06-.86 5.53-1.12 1.71-3.1 3.19-5.03 3.96-6.41 2.56-7.46 7.14-7.44 13.66.26 70.98.17 141.97.16 212.96 0 18.57-10.1 30.21-29 33.02 1.27-15.22-7.98-21.78-21.17-25.09 0-2.38 0-4.66 0-7.21 5.39 1.39 10.51 3.34 15.8 3.95 18.18 2.1 18.45.67 18.43-14.36-.11-70.65-.05-141.3-.05-211.96-.01-1.97-.01-3.95-.01-6.41z"/></g><path d="m377.9 391.2c-.2.3-.4.5-.6.8-.7-.6-1.4-1-2.2-1.5.2-.3.4-.5.5-.8.6.4 1.4.8 2.3 1.5zm-1.8 6.1c-.2-.2-.5-.4-.9-.6.4-.6.8-1.2 1.2-1.9s.7-1.3.9-1.9c.3.3.5.5.8.7-.7 1.3-1.4 2.6-2 3.7zm2.2-9c-.3.3-.5.5-.6.8-.6-.6-1.3-1.1-2-1.5.3-.3.5-.5.6-.7.6.5 1.3.9 2 1.4zm.3.2v-.9h2 4.5c-.3 1.3-.6 2.5-1 3.6s-.9 2.1-1.4 3c.4.5 1 1 1.6 1.4s1.2.8 1.9 1.1c-.3.2-.5.4-.8.8-.4-.3-1-.7-1.6-1.2s-1.2-1.1-1.6-1.6c-.5.6-1.1 1.1-1.7 1.6s-1.4.9-2.1 1.4c-.1-.3-.3-.5-.7-.8.6-.2 1.2-.5 1.9-1s1.4-1.1 2-1.8c-.5-.8-.9-1.6-1.2-2.5s-.6-2-.8-3.2c-.4.1-.7.1-1 .1zm2.5 2.7c.3 1 .7 1.7 1 2.2.3-.5.6-1.1 1-2s.6-1.9.9-3h-3.2-.4c.1.9 1.3 1.8.7 2.8z" fill="#fbfafa"/><path d="m396.5 388.5v1.5 3.6h1.5v.9c-.4 0-1 0-1.7 0h-7.9c-.5 0-.9 0-1.2 0v-.9h1.3v-3.5c0-.7 0-1.2 0-1.6h2.4c0-.8 0-1.4 0-1.7h1c0 .3-.1.8-.1 1.7h1.5c0-.8 0-1.4 0-1.7h1c0 .3-.1.9-.1 1.7zm-8.2 9.2c-.2-.3-.5-.5-.8-.8.8-.3 1.4-.6 1.9-.9s1-.7 1.4-1.1c.3.3.6.5.9.8-1.6 1-2.8 1.6-3.4 2zm2.6-6.8v-1.6h-1.5v1.6zm0 2.7v-1.9h-1.5v1.9zm2.4-2.7v-1.6h-1.5v1.6zm0 2.7v-1.9h-1.5v1.9zm.2 2 .7-.8c.4.2.9.5 1.6.8s1.3.7 1.8 1c-.3.3-.5.5-.8.8-.4-.3-1.5-1-3.3-1.8zm2-4.7v-1.6h-1.4v1.6zm0 2.7v-1.9h-1.4v1.9z" fill="#fbfafa"/></svg>