<svg enable-background="new 0 0 400 400" viewBox="0 0 400 400" xmlns="http://www.w3.org/2000/svg"><path d="m374.8 390.4.4-.4c.7.5 1.3 1 1.8 1.4l-.5.5c-.5-.6-1.1-1.1-1.7-1.5zm1 7.3-.6-.3c.5-1.4 1.1-2.8 1.5-4.3.2.1.4.2.6.3-.5 1.3-1 2.8-1.5 4.3zm-.4-10.3.4-.4c.4.3 1 .8 1.7 1.4l-.5.5c-.4-.5-1-1-1.6-1.5zm2.5.3h1.7v-1h.6v1h3.5v-1h.6v1h1.8v.5h-1.8v1.4h-2v1h3.2v2h-3.2v.9h3.3v.5h-3.4c0 .3-.1.6-.1.9h4v.5h-3.7c.7.9 1.9 1.5 3.8 1.7-.1.2-.2.4-.3.6-2.1-.4-3.5-1.1-4-2.1-.4 1-1.8 1.7-4 2.2-.1-.2-.2-.4-.3-.6 2.1-.4 3.4-1 3.8-1.8h-3.4v-.5h3.6c.1-.3.1-.6.2-.9h-3.3v-.5h3.4c0-.3 0-.6 0-.9h-3.2v-2h3.3v-1h-2.1v-1.4h-1.7v-.5zm1.1 3.5v1h2.7c0-.3 0-.4 0-.4 0-.1 0-.2 0-.2 0-.1 0-.2 0-.3h-2.7zm1.2-3v.9h3.5v-.9zm4.7 3h-2.6v.6.4h2.6z" fill="#fcfbfa"/><path d="m393.6 386.7h.6v1.5h2.7v6.1h1.1v.6h-11v-.6h1.1v-6.1h2.7v-1.5h.6v1.5h2.1v-1.5zm-2.7 8.8.4.6c-1.2.6-2.5 1.3-3.8 1.9-.1-.2-.2-.4-.3-.6 1.2-.6 2.5-1.2 3.7-1.9zm-2.2-6.7v2.4h2.1v-2.4zm0 3v2.5h2.1v-2.5zm2.8-3v2.4h2.1v-2.4zm.1 3v2.5h2.1v-2.5h-2.2zm5.9 6.1c-1.4-.7-2.7-1.3-3.9-1.8l.3-.6c1.5.6 2.7 1.2 3.9 1.7zm-1.2-9.1h-2.1v2.4h2.1zm-2.1 3v2.5h2.1v-2.5z" fill="#fcfbfa"/><g fill="#010104"><path d="m262.93 102.18c-19.04 0-37.34-.08-55.64.15-1.43.02-3.28 1.92-4.19 3.4-10.09 16.62-22.1 31.65-36.55 44.69-1.32 1.19-2.74 2.29-4.3 3.59-.77-.94-1.33-1.53-1.76-2.19-.9-1.38-1.72-2.8-2.75-4.49 15.38-16.44 28.13-34.49 37.71-54.91 9.51-20.28 16.53-41.23 20.72-63.87 11.12 2.12 22.07 3.76 31.8 9.45 3.66 2.14 3.2 5.03-.99 6.22-4.11 1.16-8.51 1.22-12.7 2.13-1.67.36-3.99 1.32-4.56 2.64-6.07 14.15-11.85 28.43-17.78 42.85.86.04 2.27.16 3.69.16 34.66.01 69.31-.04 103.97.09 3.34.01 5.56-1 7.63-3.55 4.82-5.93 9.9-11.65 15.45-18.13 9.72 7.71 19.38 15.21 28.77 23.03 1.09.91 1.43 3.84.84 5.32-.58 1.45-2.67 2.61-4.34 3.23-1.48.55-3.29.19-4.96.19-25.83.01-51.65 0-77.48 0-1.8 0-3.6 0-6.1 0v6.79c0 75.31-.23 150.63.18 225.94.09 17.33-6.21 28.35-29.45 33.86-.22-.38-.67-.78-.67-1.19-.1-10.07-6.7-14.62-15.05-17.45-4.86-1.65-9.84-2.99-14.85-4.07-4.99-1.08-10.09-1.66-15.35-2.5 0-2.45 0-4.88 0-7.35 8.85 1.4 17.46 3.18 26.17 4.02 7.76.75 15.62.72 23.43.55 4.89-.1 7.98-3.08 8.74-8.03.3-1.96.36-3.98.36-5.97.02-73.15.01-146.29.01-219.44 0-1.48 0-2.96 0-5.16z"/><path d="m130.38 154.3c8.63 6.51 16.52 12.28 24.14 18.4 1.37 1.1 2.63 4.12 2.05 5.37-.69 1.47-3.43 2-5.3 2.9-.27.13-.7.12-.99.01-9.38-3.57-15.35 1.51-21.05 7.96-2.51 2.84-5.76 5.02-9.02 7.81 3.25 2.61 6.59 5 9.59 7.77 5 4.61 10.05 9.22 14.56 14.29 4.06 4.56 6.34 10.1 5.74 16.49-.39 4.1-.89 8.15-5.61 9.58-3.87 1.17-8.7-1.28-11.19-5.65-2.47-4.33-4.61-8.85-7.12-13.17-7.17-12.35-16.32-22.96-28.77-32.28v6.2c0 45.32-.07 90.65.07 135.97.02 7.45 1.33 14.9 1.51 22.36.23 9.42-6.8 14.58-15.63 11.38-1.92-.69-4.21-3.77-4.22-5.75-.01-10.63.64-21.27 1.08-31.9.06-1.32.35-2.64.35-3.96.02-40.33.02-80.65.01-120.98 0-1.13-.12-2.27-.17-3.18-15.27 12.39-30.48 24.73-46.01 37.34-2.39-2.57-3.93-4.23-6.23-6.7 44.16-30.19 72.77-71.72 89.78-121.81-26.66 0-53.05 0-80.03 0-1.52-3.7-3.28-7.95-5.1-12.37 8.61.6 16.83 1.5 25.07 1.66 18.98.37 37.96.43 56.94.43 1.4 0 3.06-1.15 4.17-2.21 3.12-2.99 6.01-6.22 9.43-9.82 6.08 4.76 11.96 9.06 17.48 13.78 3.68 3.14 3.33 5.15-.53 7.87-.14.1-.28.21-.44.24-9.19 2.19-11.92 10.06-15.46 17.34-8.73 18-18.73 35.25-31.1 51.04-.6.76-1.01 1.66-1.61 2.67 5.42 2.96 10.64 5.82 16.31 8.92 8.34-10.97 13.29-23.51 17.3-38z"/><path d="m201.02 162.09c9.67 3.92 19.73 7.65 29.46 12.1 3.99 1.82 3.42 6.28-.9 7.84-4.02 1.45-8.35 2.63-12.58 2.77-3.76.12-4.6 1.92-5.58 4.81-10.85 32.06-24.27 62.93-43.14 91.18-4.78 7.16-10.4 13.75-15.91 20.97-2.28-1.64-3.97-2.85-5.6-4.02 27.54-41.28 44.99-86.25 54.25-135.65z"/><path d="m310.78 172.14c1.5-1.32 2.6-2.3 4.42-3.9 5.72 8.63 11.7 16.79 16.77 25.48 9.11 15.63 17.99 31.41 26.34 47.45 6.83 13.12 9.75 27.49 10.6 42.22.18 3.1.11 6.63-1.22 9.27-1.25 2.49-4.08 5.08-6.68 5.69-1.79.42-5.66-2-6.34-3.94-2.4-6.81-4.29-13.89-5.54-21.01-6.01-34.42-18.23-66.49-35.71-96.65-.81-1.42-1.63-2.85-2.64-4.61z"/><path d="m60.77 35.13c1.67-1.39 3.17-2.64 4.97-4.13 10.95 9.74 21.66 19.41 29.43 31.82 4.1 6.54 5.06 13.64 2.92 21.05-.49 1.69-1.23 3.77-2.54 4.66-2.18 1.46-5.11 3.16-7.35 2.74-1.75-.33-3.77-3.53-4.23-5.75-2.76-13.32-7.8-25.69-14.7-37.33-2.55-4.29-5.43-8.37-8.5-13.06z"/></g></svg>