<svg enable-background="new 0 0 400 400" viewBox="0 0 400 400" xmlns="http://www.w3.org/2000/svg"><path d="m60.71 80.63c5.66 4.1 11.38 8.35 17.23 12.41 1.41.98 3.26 1.87 4.92 1.88 18.67.12 37.33.07 56 .04.47 0 .93-.22 1.68-.41 0-10.43 0-20.87 0-31.85-1.75-.09-3.53-.26-5.3-.26-17.67-.02-35.34-.2-53 .05-11.46.17-22.91.92-34.36 1.54-2.43.13-4.02-.28-4.96-2.82-1.47-3.97-3.29-7.8-5.3-12.48 21.91 5.48 43.4 4.16 64.8 4.18 66.83.07 133.66 0 200.49.1 3.64.01 6.13-.86 8.45-3.85 4.36-5.64 9.24-10.89 14.23-16.67 9.2 7.29 18.27 14.29 27.06 21.62 1.14.95 1.56 3.77 1.08 5.36-.38 1.26-2.53 2.27-4.09 2.82-1.34.47-2.97.13-4.47.13-35 0-70 0-105 0-1.97 0-3.95 0-6.34 0v32.59h13.46c14.67 0 29.33-.1 44 .07 3.64.04 6.19-.63 8.18-4.06 2.32-3.99 5.39-7.54 8.33-11.54 8.38 4.4 15.2 10.38 20.84 17.63.76.98.2 3.97-.8 5.12-2.04 2.34-4.61 4.39-7.32 5.94-3.34 1.92-4.34 4.37-4.18 8.12.72 16.79 1.04 33.59 1.78 50.37.41 9.41-7.26 11.58-13.57 11.21-3.17-.19-5.25-1.89-4.97-5.53.14-1.79.02-3.6.02-5.78-74.06 0-147.63 0-222.19 0 0 3.09-.14 6.33.03 9.55.23 4.25-1.64 6.02-5.86 6.11-8.85.18-12.97-3.37-12.58-12.11.77-17.43 2.34-34.83 2.79-52.27.32-12.23-.66-24.5-1.08-37.21zm173.04 74.99h65.5c0-16.97 0-33.56 0-50.35-21.95 0-43.55 0-65.5 0zm-93.18-50.16c-21.29 0-42.02 0-62.84 0v50.26h62.84c0-16.85 0-33.43 0-50.26zm75.68-.01c-19.56 0-38.78 0-57.96 0v50.18h57.96c0-16.98 0-33.57 0-50.18zm-58.05-10.82h58.08c0-10.77 0-21.18 0-31.9-19.5 0-38.7 0-58.08 0z" fill="#010000"/><path d="m101.09 324.57c-12.38 8.93-24.7 17.72-36.88 26.71-1.36 1-2.37 3.01-2.71 4.72-.72 3.63-.89 7.37-1.44 12.58-10.34-6.63-15.73-15.6-22.05-23.67 9.65-4.46 19.07-8.78 28.46-13.17 2.56-1.2 5.27-2.26 7.49-3.94 15.8-11.97 35.1-13.99 53.35-18.85 35.17-9.37 70.07-19.62 103.83-33.25 15.61-6.3 30.47-14.48 45.67-21.81-.16-.51-.32-1.02-.49-1.53-1.38-.1-2.77-.28-4.15-.28-62.5.02-124.99.04-187.49.13-4.15.01-8.33.29-12.43.9-3.72.55-5.47-.9-6.46-4.3-.83-2.83-2.11-5.52-3.35-8.68 41.02 4.4 81.55 1.59 122.02 2.57.41-.47.82-.93 1.23-1.4-3.11-6.29-6.2-12.59-9.32-18.88-4.97-10-11.9-13.69-24.02-12.65-30.3 2.58-60.79 3.04-91.2 4.33-2.33.1-4.87.61-6.93-.14-1.45-.53-2.46-2.78-3.14-4.47-.14-.35 2.01-2.31 3.17-2.39 12.78-.84 25.59-1.16 38.35-2.19 21.36-1.73 42.77-3.3 64.01-6.01 26.82-3.43 53.61-7.37 80.22-12.21 14.29-2.6 28.19-7.45 42.2-11.5 2.89-.84 5.14-1.19 7.76.82 5.68 4.35 11.77 8.16 17.36 12.62 1.6 1.27 2.05 3.98 3.02 6.02-1.99.78-4.16 2.53-5.93 2.19-16.17-3.13-31.61 2.38-47.38 3.73-16.54 1.42-33.01 3.7-49.52 5.48-8.66.94-17.36 1.62-26.84 2.5 10.33 9.54 25.29 15.56 19.4 33.75 2.01.11 3.61.27 5.2.27 24.83.02 49.66.07 74.5-.1 2.15-.02 4.63-1.16 6.39-2.52 5.52-4.24 10.78-8.84 17.02-14.03 7 7.5 13.92 14.63 20.5 22.07 2.88 3.26 1.65 5.85-3.15 6.9-5.67 1.25-11.43 2.04-17.14 3.13-1.93.37-3.92.77-5.67 1.61-38 18.24-77.8 31.64-118.18 43.35-20.85 6.04-42.02 11-63.04 16.47-.46.12-.87.45-2.05 1.09 2.06 1.49 3.72 2.94 5.6 4 15.31 8.6 32.14 12.61 49.24 15.22 42.37 6.45 85.06 4.49 127.65 3.6 22.24-.46 44.44-2.88 66.66-4.39 1.3-.09 2.62-.01 4.03-.01 1.18 3.16.62 4.89-2.83 5.8-6.87 1.81-10.52 7.04-13.42 13.15-.72 1.51-2.82 3.25-4.39 3.34-9.95.62-19.93.9-29.91 1.12-13.31.29-26.63.76-39.93.54-22.62-.37-45.33-.16-67.83-2.13-32.23-2.82-63.76-9.34-92.01-26.46-4.63-2.81-8.74-6.5-13.05-9.75z" fill="#010000"/><g fill="#fbfafa"><path d="m377.9 391.2c-.2.3-.4.5-.6.8-.7-.6-1.4-1-2.2-1.5.2-.3.4-.5.5-.8.6.4 1.4.8 2.3 1.5zm-1.8 6.1c-.2-.2-.5-.4-.9-.6.4-.6.8-1.2 1.2-1.9s.7-1.3.9-1.9c.3.3.5.5.8.7-.7 1.3-1.4 2.6-2 3.7zm2.2-9c-.3.3-.5.5-.6.8-.6-.6-1.3-1.1-2-1.5.3-.3.5-.5.6-.7.6.5 1.3.9 2 1.4zm.3.2v-.9h2 4.5c-.3 1.3-.6 2.5-1 3.6s-.9 2.1-1.4 3c.4.5 1 1 1.6 1.4s1.2.8 1.9 1.1c-.3.2-.5.4-.8.8-.4-.3-1-.7-1.6-1.2s-1.2-1.1-1.6-1.6c-.5.6-1.1 1.1-1.7 1.6s-1.4.9-2.1 1.4c-.1-.3-.3-.5-.7-.8.6-.2 1.2-.5 1.9-1s1.4-1.1 2-1.8c-.5-.8-.9-1.6-1.2-2.5s-.6-2-.8-3.2c-.4.1-.7.1-1 .1zm2.5 2.7c.3 1 .7 1.7 1 2.2.3-.5.6-1.1 1-2s.6-1.9.9-3h-3.2-.4c.1.9 1.3 1.8.7 2.8z"/><path d="m396.5 388.5v1.5 3.6h1.5v.9c-.4 0-1 0-1.7 0h-7.9c-.5 0-.9 0-1.2 0v-.9h1.3v-3.5c0-.7 0-1.2 0-1.6h2.4c0-.8 0-1.4 0-1.7h1c0 .3-.1.8-.1 1.7h1.5c0-.8 0-1.4 0-1.7h1c0 .3-.1.9-.1 1.7zm-8.2 9.2c-.2-.3-.5-.5-.8-.8.8-.3 1.4-.6 1.9-.9s1-.7 1.4-1.1c.3.3.6.5.9.8-1.6 1-2.8 1.6-3.4 2zm2.6-6.8v-1.6h-1.5v1.6zm0 2.7v-1.9h-1.5v1.9zm2.4-2.7v-1.6h-1.5v1.6zm0 2.7v-1.9h-1.5v1.9zm.2 2 .7-.8c.4.2.9.5 1.6.8s1.3.7 1.8 1c-.3.3-.5.5-.8.8-.4-.3-1.5-1-3.3-1.8zm2-4.7v-1.6h-1.4v1.6zm0 2.7v-1.9h-1.4v1.9z"/></g></svg>