<svg enable-background="new 0 0 400 400" viewBox="0 0 400 400" xmlns="http://www.w3.org/2000/svg"><g fill="#010100"><path d="m267.41 158.2v54.2c0 8.95-2.45 11.37-11.3 11.9-3.65.22-5.35-1.16-5.45-4.69-.06-2.16-.07-4.33-.07-6.5-.01-18.33 0-36.66 0-54.99 0-1.78 0-3.56 0-6.97-27.26 33.29-61.24 54.74-99.06 71.68-1.3-2.12-2.56-4.18-4.22-6.88 35.06-18.55 66.69-40.87 88.55-75.69-2.22-.11-3.64-.25-5.05-.25-19 .04-37.99.05-56.99.2-4.48.03-8.96.8-13.42.7-1.53-.03-3.66-1.29-4.41-2.62-2.03-3.58-3.47-7.5-5.45-11.97 33.25 6.58 66.29 2.32 99.62 3.93 0-20.51 0-40.49 0-60.38-19.01 1.33-37.71 2.68-56.41 3.91-5.31.35-10.66.19-15.97.53-3.07.19-4.15-1.58-3.69-3.87.27-1.32 2.15-3.15 3.47-3.3 14.03-1.58 28.17-2.38 42.15-4.35 29.93-4.22 59.55-9.99 87.93-20.84 2.48-.95 5.19-1.79 7.17-3.45 6.29-5.27 11.66-3.84 17.32 1.12 4.24 3.72 9.14 6.66 13.5 10.25 1.12.92 2.13 3.29 1.69 4.43-.48 1.25-2.67 1.86-4.13 2.73-.12.07-.33.04-.49.01-17.85-3.48-34.23 4.73-51.43 6.47-6.6.67-13.15 1.81-19.74 2.63-2.29.29-4.17.45-4.15 3.62.12 19.5.09 38.99.14 58.49 0 .46.3.92.59 1.74 14.41 0 28.95-.83 43.34.23 14.22 1.05 26.17-1.35 34.48-13.93.43-.65 1.22-1.07 2.24-1.92 7.85 5.92 15.75 11.67 23.39 17.75 2.69 2.14.96 7.02-2.54 7.77-1.28.27-2.66.1-3.99.1-30.5 0-60.99 0-91.49 0-1.82 0-3.63 0-5.53 0-.24.91-.51 1.53-.54 2.16-.44 8.37-.42 8.35 7.73 10.5 26.63 7.02 52.02 17.1 75.84 31 7.12 4.16 13.42 9.38 17.69 16.54 1.82 3.06 3.28 6.53 4 10.01 1.06 5.12-3.23 8.36-8.08 6.18-3.45-1.56-7.04-3.38-9.74-5.94-18.65-17.69-41.36-28.89-63.83-40.49-7.51-3.87-15.12-7.52-23.67-11.75z"/><path d="m177.83 217.72c6.25 3.38 11.64 6.61 17.32 9.24 3.05 1.41 6.57 2.5 9.89 2.52 38.67.17 77.33.04 116 .21 4.56.02 7.95-.87 10.57-4.82 1.71-2.58 4.16-4.68 6.74-7.52 5.24 3.87 10.47 7.37 15.26 11.38 4.19 3.51 4.55 6.67-.06 9.24-7.85 4.38-7.5 10.88-7.46 18.15.19 31.83.08 63.67.08 95.5 0 7.25-5.21 12.03-12.46 11.31-2.89-.29-4.99-1.35-4.78-5.01.26-4.45.06-8.93.06-13.66-44.68 0-88.95 0-134 0 0 3.15.06 6.4-.01 9.64-.14 5.74-10.17 11.49-15 8.36-1.27-.82-2.05-3.31-2.07-5.05-.16-14.5-.09-29-.09-43.5.01-31.63.01-63.29.01-95.99zm150.92 72.69c-20.7 0-40.78 0-61.05 0v43.27h61.05c0-14.58 0-28.84 0-43.27zm-61.05-51.19v40.47h60.87c0-13.7 0-27.07 0-40.47-20.41 0-40.4 0-60.87 0zm-17.58 94.65c0-14.83 0-29.19 0-43.48-18.56 0-36.65 0-54.72 0v43.48zm-54.9-54.13h54.94c0-13.64 0-27.02 0-40.39-18.52 0-36.62 0-54.94 0z"/><path d="m122.75 242.24c5.42 4.19 10.46 7.97 15.37 11.91 3.53 2.83 3.54 6.51-.2 8.51-7.49 4.01-7.11 10.43-6.99 17.33.24 13.65.23 27.31-.03 40.95-.08 4.09.8 7.04 4.52 9.01 1.3.69 2.77 1.63 3.4 2.85.88 1.7 1.73 3.96 1.27 5.6-.34 1.18-2.84 2.48-4.38 2.49-24.81.15-49.62.11-74.43.11-1.82 0-3.64 0-6.22 0 0 3.32.61 6.58-.19 9.44-.66 2.34-2.62 5.3-4.7 6.03-3.4 1.2-7.35.93-11.07.95-.38 0-1.11-2.3-1.11-3.53-.06-36.77-.05-73.55-.05-111.13 6.36 3.29 12.11 6.47 18.05 9.26 2.3 1.08 5 1.8 7.53 1.83 14.15.17 28.3-.07 42.45.17 4.34.07 7.63-.76 10.16-4.58 1.62-2.44 3.99-4.4 6.62-7.2zm-9.55 88.53c0-22.45 0-44.47 0-66.34-19.58 0-38.77 0-57.86 0v66.34z"/><path d="m30.45 95.39c16.89 1.14 33.68 2.27 50.59 3.41-5.2-25.24-16.98-45.68-34.11-63.62 1.92-1.47 3.48-2.65 6.15-4.69 10.69 10.06 21.47 20.08 32.08 30.28 2.5 2.4 4.64 5.25 6.6 8.13 6.21 9.1 6.84 16.68 2.58 29.1 6.24 0 12.38.16 18.5-.11 1.57-.07 3.37-1.24 4.56-2.41 3.91-3.84 7.59-7.92 11.67-12.22 7.85 5.86 15.24 11.18 22.39 16.8 2.57 2.02 1.26 6.5-2.06 7.53-1.54.48-3.28.4-4.93.41-31.15.08-62.31.13-93.46.19-.83 0-1.67-.01-2.5.03-14.05.59-14.05.59-18.06-12.83z"/><path d="m116.24 131.49c7.25 5.36 13.95 10.03 20.25 15.18 1.55 1.26 2.93 4.45 2.38 6.08-.51 1.54-3.65 3.1-5.66 3.12-25.32.26-50.64.21-75.97.35-4.98.03-9.96.79-14.93.72-1.5-.02-3.58-1.36-4.35-2.7-2.12-3.68-3.69-7.68-5.83-12.31 22.54 5.74 44.7 3.75 66.74 3.97 1.88.02 4.18-1.01 5.58-2.31 4.03-3.73 7.69-7.84 11.79-12.1z"/><path d="m32.23 194.6c22.11 5.25 43.43 4.03 64.67 4.31 3.68.05 6.32-.95 8.67-3.71 3.23-3.79 6.72-7.35 10.35-11.29 7.82 5.76 15.02 10.81 21.85 16.31 1.2.97 1.61 4.12 1.01 5.76-.45 1.23-3.11 2.3-4.79 2.32-15.33.18-30.66-.08-45.98.16-15.46.25-30.9.96-46.36 1.36-1.04.03-2.63-.69-3.06-1.53-2.13-4.11-3.94-8.38-6.36-13.69z"/><path d="m291.87 118.32c14.3-12.27 25.79-26.71 33.73-45 7.79 4.27 15.54 8.29 23.03 12.74 3.09 1.83 2.71 5.55-.6 5.81-13.01 1.02-19.65 12.14-29.69 17.77-6.08 3.41-11.98 7.15-18.11 10.46-4.48 2.44-4.6 2.23-8.36-1.78z"/><path d="m178.22 85.07c2.32-4.23 4.76-4.48 8.23-1.96 7.8 5.65 16.05 10.69 23.66 16.56 5.6 4.32 8.36 10.18 6.01 17.64-1.27 4.04-3.95 6.29-7.87 6.56-3.83.26-5.17-2.73-6.23-5.96-3.67-11.16-10.64-20.2-18.86-28.36-1.51-1.51-3.17-2.88-4.94-4.48z"/></g><path d="m342.2 3.2-6.3 9.2h6.1v1.2h-8.2v-.5l6.2-9.1h-5.7v-1.2h7.8v.4z" fill="#fafafb"/><path d="m344 13.7v-10.9h3.1c1.6 0 3 .5 4.1 1.4 1.1 1 1.6 2.2 1.6 3.9s-.5 3-1.6 4-2.5 1.5-4.2 1.5h-3zm1.4-9.6v8.4h1.6c1.4 0 2.5-.4 3.2-1.1.8-.8 1.2-1.8 1.2-3.2s-.4-2.4-1.2-3.1-1.8-1-3.1-1z" fill="#fafafb"/><path d="m356.3 2.8v10.9h-1.4v-10.9z" fill="#fafafb"/><path d="m366.6 13.2c-.8.4-1.8.6-3 .6-1.6 0-2.8-.5-3.7-1.5s-1.4-2.3-1.4-3.9c0-1.7.5-3.2 1.6-4.2s2.4-1.6 4-1.6c1 0 1.9.1 2.6.4v1.5c-.8-.4-1.6-.6-2.6-.6-1.2 0-2.2.4-3 1.2s-1.1 1.9-1.1 3.3c0 1.3.4 2.3 1.1 3.1s1.6 1.1 2.8 1.1c1.1 0 2-.2 2.8-.7v1.3z" fill="#fafafb"/><path d="m368.2 13c0-.3.1-.5.3-.6.2-.2.4-.3.6-.3.3 0 .5.1.7.3s.3.4.3.6-.1.5-.3.6c-.2.2-.4.3-.7.3-.3 1-.5-.1-.6-.3-.2-.2-.3-.4-.3-.6z" fill="#fafafb"/><path d="m381.1 13.7h-1.7l-5.5-8.4c-.2-.2-.3-.5-.4-.7 0 .2.1.8.1 1.5v7.6h-1.4v-10.9h1.8l5.3 8.3c.3.4.4.6.4.8 0-.3-.1-.8-.1-1.6v-7.5h1.4v10.9z" fill="#fafafb"/><path d="m389.7 13.7h-5.8v-10.9h5.6v1.2h-4.2v3.5h3.9v1.2h-3.9v3.7h4.4z" fill="#fafafb"/><path d="m398.4 4.1h-3.1v9.6h-1.4v-9.6h-3.1v-1.3h7.7v1.3z" fill="#fafafb"/></svg>