<svg enable-background="new 0 0 400 400" viewBox="0 0 400 400" xmlns="http://www.w3.org/2000/svg"><path d="m261.09 223.4c-27.82 44.5-68.92 73.62-113.09 100.1-1.34-1.69-2.64-3.32-4.22-5.3 7.53-5.59 15.04-11.03 22.42-16.64 32.35-24.6 60.69-52.91 81.5-88.19 10.03-17 10.08-16.99 4.48-36.02-1.77-6.03-3.69-12.01-5.56-18.06-11.32 13.05-22.44 25.88-33.88 39.08 1.67 2.56 3.99 5.97 6.17 9.45 3.28 5.22 4.63 10.93 4.3 17.1-.19 3.61-1.17 7.35-4.86 7.7-2.83.27-6.66-1.17-8.66-3.22-2.4-2.46-3.38-6.34-4.86-9.65-1.7-3.78-3.28-7.61-4.84-11.24-17.23 10.79-34.19 21.4-51.56 32.27-1.68-2.11-2.97-3.73-4.23-5.32 16.88-12.45 33.54-24.74 51.22-37.78-9.28-10.65-17.66-20.26-26.36-30.24-.04.09.14-.54.45-1.09.4-.71.92-1.36 2.11-3.08 10.83 8.08 21.51 16.06 32.6 24.34 10.1-9.65 18.95-21.18 27.77-32.87 7.07-9.37 8.37-17.79 2.02-27.8-3.52-5.56-5.92-11.84-8.8-17.75-10.39 7.78-20.17 15.48-30.34 22.64-16.94 11.93-35.53 20.85-54.67 28.58-1.61.65-4.33-1.47-6.56-3.34 43.47-23.02 82.54-50.17 109.47-92.8-1.91-.09-3.16-.22-4.41-.2-28.64.33-57.29.59-85.93 1.14-3.76.07-5.83-.77-7.03-4.38-1.04-3.12-2.66-6.04-4.43-9.94 6.2.79 11.62 1.64 17.07 2.15 7.11.66 14.24 1.46 21.36 1.48 42.5.14 85 .03 127.5.14 3.64.01 6.16-.86 8.48-3.86 4.37-5.64 9.24-10.88 14.42-16.89 9.65 7.36 19.19 14.52 28.52 21.95 1.06.85 1.57 3.48 1.1 4.86-.47 1.37-2.36 2.51-3.88 3.2-1.11.51-2.62.14-3.96.14-27.5 0-55-.05-82.5.1-2.02.01-4.72.82-5.94 2.25-10.42 12.27-20.58 24.77-31.46 37.98 13.69 20.74 24.85 44.37 33.48 69.77 24.4-17.57 44.37-38.22 57.65-66.33 8.53 6.39 16.92 12.56 25.12 18.97 1.06.83 1.99 3.27 1.52 4.28-.63 1.34-2.6 2.57-4.16 2.83-2.58.44-5.53.72-7.92-.11-4.99-1.73-7.68.76-11.19 3.74-12.02 10.21-24.53 19.85-36.72 29.87-1.34 1.1-2.85 3.51-2.53 4.9 6.97 30.3 16.65 59.53 34.6 85.41 12.54 18.09 27.5 33.31 48.07 42.28 1.2.52 1.69 2.69 2.96 4.88-10.65 0-19.42 1.3-24.33 10.95-13.81-10.53-23.93-23.95-32.91-38.18-18.34-29.06-28.08-61.47-35.71-94.63-.55-2.41-1.06-4.83-1.74-7.91-3.11 1.77-6.03 3.18-8.61 5.06-.79.57-1.16 2.58-.84 3.68 6.24 21.78 10.52 43.97 12 66.54 1.82 27.63 1.12 55.11-7.56 81.93-5.96 18.42-18.52 29.03-36.56 34.09-2.01.56-4.17.61-6.53.94-.43-2.06-1.08-3.65-1.03-5.22.21-7.34-3.62-12.21-9.93-14.71-8.14-3.22-16.51-5.97-24.99-8.16-3.72-.96-3.62-2.81-3.08-5.33.7-3.24 2.83-1.74 4.69-1.19 11.94 3.52 23.8 7.36 35.87 10.41 12.47 3.16 20.28-.48 24.38-12.69 3.61-10.74 6.24-22.07 7.4-33.33 2.5-24.49.94-49.03-2.33-73.73z" fill="#010100"/><path d="m90.93 152.89c-17.89 0-35.02.04-52.15-.08-1.31-.01-3.28-.88-3.8-1.92-1.81-3.65-3.12-7.56-4.32-10.61 17.81.52 35.56.96 53.3 1.62 3.26.12 5.25-.99 6.98-3.6 2.74-4.13 5.76-8.08 9.5-13.27 6.62 5.97 12.93 11.5 19.03 17.25 2.61 2.46 1.95 5.1-.74 7.22-1.96 1.54-3.83 3.44-6.08 4.32-5.39 2.12-6.39 5.88-6.36 11.31.22 42.49.12 84.99.12 127.49v5.78c.49.28.97.56 1.46.83 13.3-12.22 26.6-24.44 40.05-36.8 2.71 2.42 2.7 4.98.27 8.24-13.25 17.73-26.53 35.44-39.31 53.51-2.38 3.36-2.54 8.31-3.68 12.54-.63 2.34-1.17 4.7-1.75 7.06-.51.21-1.02.43-1.53.64-6.91-8.55-13.82-17.09-20.5-25.35.41-1.03.45-1.53.66-1.62 7.93-3.3 9.13-9.37 9.06-17.46-.41-47.16-.2-94.32-.2-141.48-.01-1.97-.01-3.93-.01-5.62z" fill="#010100"/><path d="m71.23 42.18c1.16-1.54 2.34-3.11 4.19-5.57 8.93 6.95 17.88 13.46 26.29 20.6 6.05 5.14 11.73 10.81 16.92 16.81 4.71 5.44 7.38 12.12 4.44 19.34-.95 2.33-3.76 4.94-6.08 5.36-1.96.35-5.26-1.77-6.56-3.73-7.14-10.76-13.34-22.16-20.86-32.63-5.18-7.22-11.97-13.29-18.34-20.18z" fill="#010100"/><g fill="#fafafb"><path d="m342.2 3.2-6.3 9.2h6.1v1.2h-8.2v-.5l6.2-9.1h-5.7v-1.2h7.8v.4z"/><path d="m344 13.7v-10.9h3.1c1.6 0 3 .5 4.1 1.4 1.1 1 1.6 2.2 1.6 3.9s-.5 3-1.6 4-2.5 1.5-4.2 1.5h-3zm1.4-9.6v8.4h1.6c1.4 0 2.5-.4 3.2-1.1.8-.8 1.2-1.8 1.2-3.2s-.4-2.4-1.2-3.1-1.8-1-3.1-1z"/><path d="m356.3 2.8v10.9h-1.4v-10.9z"/><path d="m366.6 13.2c-.8.4-1.8.6-3 .6-1.6 0-2.8-.5-3.7-1.5s-1.4-2.3-1.4-3.9c0-1.7.5-3.2 1.6-4.2s2.4-1.6 4-1.6c1 0 1.9.1 2.6.4v1.5c-.8-.4-1.6-.6-2.6-.6-1.2 0-2.2.4-3 1.2s-1.1 1.9-1.1 3.3c0 1.3.4 2.3 1.1 3.1s1.6 1.1 2.8 1.1c1.1 0 2-.2 2.8-.7v1.3z"/><path d="m368.2 13c0-.3.1-.5.3-.6.2-.2.4-.3.6-.3.3 0 .5.1.7.3s.3.4.3.6-.1.5-.3.6c-.2.2-.4.3-.7.3-.3 1-.5-.1-.6-.3-.2-.2-.3-.4-.3-.6z"/><path d="m381.1 13.7h-1.7l-5.5-8.4c-.2-.2-.3-.5-.4-.7 0 .2.1.8.1 1.5v7.6h-1.4v-10.9h1.8l5.3 8.3c.3.4.4.6.4.8 0-.3-.1-.8-.1-1.6v-7.5h1.4v10.9z"/><path d="m389.7 13.7h-5.8v-10.9h5.6v1.2h-4.2v3.5h3.9v1.2h-3.9v3.7h4.4z"/><path d="m398.4 4.1h-3.1v9.6h-1.4v-9.6h-3.1v-1.3h7.7v1.3z"/></g></svg>