<svg enable-background="new 0 0 400 400" viewBox="0 0 400 400" xmlns="http://www.w3.org/2000/svg"><path d="m117.36 343.59c33.96-4.34 67.48-8.62 101.42-12.95.14.39.57 1.43.85 2.51.25.95.33 1.95.62 3.78-7.9 2.22-15.71 4.82-23.71 6.58-24.61 5.42-49.28 10.56-73.95 15.68-2.71.56-4.39 1.49-5.23 4.33-.96 3.26-2.52 6.35-3.83 9.51-.6.12-1.2.24-1.8.37-5.34-9.4-10.68-18.81-15.46-27.22 1.63-2.5 3.51-4.05 3.52-5.61.17-26.33.12-52.67.09-79 0-.47-.18-.95-.26-1.35-8.98 0-17.86 0-27.47 0-.36-.63-1.21-2.1-2.67-4.64-4.65 40.45-11.67 78.99-35.55 112.79-1.99-1.59-4.1-3.27-5.45-4.35 4.71-13.4 10.54-25.91 13.41-39.07 4.41-20.21 7.74-40.78 9.79-61.37 2.12-21.32 2.61-42.84 2.95-64.28.18-11.39-1.45-22.82-2.31-34.97 6.97 4.64 13.51 9.31 20.38 13.44 2.81 1.69 6.33 3.1 9.53 3.11 76.17.17 152.33.11 228.5.2 3.41 0 5.89-.67 8.17-3.46 3.89-4.75 8.28-9.09 12.69-13.85 8.44 6.18 16.85 12.14 24.98 18.47 1.28 1 2.15 3.93 1.64 5.42s-2.89 2.55-4.66 3.32c-1.12.49-2.63.1-3.96.1-90.17 0-180.33 0-270.5 0-2.14 0-4.27 0-6.9 0v21.38c12.45.82 25.15 2.32 37.85 2.38 55.33.27 110.67.15 166-.02 2.44-.01 5.34-1.44 7.23-3.1 4.49-3.94 8.5-8.43 12.99-12.98 7.88 5.97 15.61 11.67 23.1 17.67 1.11.89 1.79 3.41 1.37 4.78-.41 1.34-2.36 2.5-3.88 3.1-1.3.52-2.96.15-4.46.15-55.33 0-110.67-.14-166 .07-22.96.09-45.92 1.07-68.88 1.23-1.84.01-3.71-3.2-5.96-5.29-.48 8.47-.96 17.15-1.5 26.73 10.71.84 20.93 2.3 31.15 2.33 73.17.2 146.33.08 219.5.17 3.47 0 5.93-.92 8.18-3.6 3.95-4.71 8.25-9.13 12.73-14.03 8.69 6.36 17.36 12.5 25.72 19.04 1.22.96 1.75 4.02 1.21 5.64-.43 1.28-3 2.56-4.64 2.58-13.83.2-27.66.12-41.5.12-1.78 0-3.57 0-6.71 0 2.15 1.66 3.21 2.52 4.3 3.33 4.8 3.57 9.7 7 14.35 10.76 1.21.98 1.62 2.94 2.4 4.45-1.64.67-3.27 1.36-4.92 2-.29.11-.69.1-.99 0-8.63-3.07-15.81 1.02-23.64 3.89-21.15 7.76-42.64 14.59-64.56 21.98 40.97 22.28 85.47 33.25 131.98 38.6.88 2.4.38 3.65-2.69 3.92-3.63.32-7.44.59-10.74 1.95-3.57 1.47-7.78 3.46-9.66 6.49-2.64 4.25-5.16 4.3-9.25 3.26-38.19-9.74-75.14-22.51-107.93-45.05-16.42-11.29-30.26-25.36-42.08-41.48 7.11-3.97 7.15-3.65 12.34 1.21 8.84 8.28 17.98 16.24 27.17 24.12 1.24 1.07 3.81 1.8 5.24 1.27 23.33-8.62 45.87-18.78 65.36-34.66 1.91-1.55 3.66-3.29 6.28-5.65-64.47 0-127.83 0-191.31 0 .02 27.69.02 55.11.02 83.77z" fill="#010100"/><path d="m70.15 46.34c6.32 4.57 12.04 8.79 17.86 12.88 1.45 1.01 3.2 2.23 4.83 2.25 17.13.16 34.27.1 51.64.1 0-11.04 0-21.7 0-33.14 10.1 2.71 21.08 2.1 31.18 10.01-4.37 2.38-7.24 4.33-10.4 5.55-2.5.97-3.24 2.29-3.14 4.8.17 3.98.05 7.97.05 12.38h59.65c0-10.58 0-21.23 0-33.07 8.73 2.22 17.73 4.16 26.48 6.88 3.76 1.17 3.85 4.84.09 5.91-11.35 3.23-9.32 11.65-8.63 20.3 1.33.13 2.75.38 4.17.38 15.66.03 31.32.15 46.98-.13 2.2-.04 4.9-1.62 6.44-3.32 3.43-3.79 6.27-8.1 10.05-13.13 6.29 5.51 12.46 10.48 18.1 15.99 3.98 3.89 3.53 5.6-.76 9.43-.62.55-1.19 1.27-1.92 1.58-7.42 3.13-8.03 9.07-7.78 16.21.77 21.78 1 43.59 1.34 65.38.11 7.02-1.33 8.74-7.95 10.66-7.29 2.11-10.34-.07-10.51-7.49-.02-.98-.14-1.95-.25-3.24-69.7 0-139.25 0-209.62 0 0 2.41.27 4.86-.09 7.22-.25 1.63-.97 3.76-2.2 4.56-5.88 3.8-15.99-1.38-16.06-8.36-.06-6.79.69-13.58 1.09-20.37.59-9.95 1.59-19.9 1.69-29.86.14-15.3-.23-30.62-.62-45.92-.09-4.44-1.01-8.85-1.71-14.44zm92.41 64.8v31.55h59.63c0-10.68 0-21.05 0-31.55-20.01 0-39.62 0-59.63 0zm135.13.22c-19.55 0-38.72 0-57.84 0v31.37h57.84c0-10.51 0-20.74 0-31.37zm-75.57-10.63c0-9.95 0-19.48 0-28.88-20.2 0-39.93 0-59.6 0v28.88zm-77.34 10.63c-19.07 0-37.74 0-56.3 0v31.37h56.3c0-10.51 0-20.76 0-31.37zm94.98-10.84h57.84c0-9.81 0-19.21 0-28.66-19.51 0-38.68 0-57.84 0zm-94.9-28.66c-19.18 0-37.86 0-56.45 0v28.66h56.45c0-9.71 0-19.02 0-28.66z" fill="#010100"/><g fill="#fafafb"><path d="m342.2 3.2-6.3 9.2h6.1v1.2h-8.2v-.5l6.2-9.1h-5.7v-1.2h7.8v.4z"/><path d="m344 13.7v-10.9h3.1c1.6 0 3 .5 4.1 1.4 1.1 1 1.6 2.2 1.6 3.9s-.5 3-1.6 4-2.5 1.5-4.2 1.5h-3zm1.4-9.6v8.4h1.6c1.4 0 2.5-.4 3.2-1.1.8-.8 1.2-1.8 1.2-3.2s-.4-2.4-1.2-3.1-1.8-1-3.1-1z"/><path d="m356.3 2.8v10.9h-1.4v-10.9z"/><path d="m366.6 13.2c-.8.4-1.8.6-3 .6-1.6 0-2.8-.5-3.7-1.5s-1.4-2.3-1.4-3.9c0-1.7.5-3.2 1.6-4.2s2.4-1.6 4-1.6c1 0 1.9.1 2.6.4v1.5c-.8-.4-1.6-.6-2.6-.6-1.2 0-2.2.4-3 1.2s-1.1 1.9-1.1 3.3c0 1.3.4 2.3 1.1 3.1s1.6 1.1 2.8 1.1c1.1 0 2-.2 2.8-.7v1.3z"/><path d="m368.2 13c0-.3.1-.5.3-.6.2-.2.4-.3.6-.3.3 0 .5.1.7.3s.3.4.3.6-.1.5-.3.6c-.2.2-.4.3-.7.3-.3 1-.5-.1-.6-.3-.2-.2-.3-.4-.3-.6z"/><path d="m381.1 13.7h-1.7l-5.5-8.4c-.2-.2-.3-.5-.4-.7 0 .2.1.8.1 1.5v7.6h-1.4v-10.9h1.8l5.3 8.3c.3.4.4.6.4.8 0-.3-.1-.8-.1-1.6v-7.5h1.4v10.9z"/><path d="m389.7 13.7h-5.8v-10.9h5.6v1.2h-4.2v3.5h3.9v1.2h-3.9v3.7h4.4z"/><path d="m398.4 4.1h-3.1v9.6h-1.4v-9.6h-3.1v-1.3h7.7v1.3z"/></g></svg>