<svg enable-background="new 0 0 400 400" viewBox="0 0 400 400" xmlns="http://www.w3.org/2000/svg"><g fill="#010000"><path d="m145.18 287.86c22.63 5.7 45.11 3.7 67.32 4.1-3.3-30.95-11.34-60.32-24.9-88.4-1.34.16-2.62.48-3.89.45-9.6-.18-13.39-3.32-12.91-12.16 1.13-20.91 2.36-41.82 2.9-62.75.29-11.23-.77-22.49-1.24-33.96 4.06 2.98 8.42 6.44 13.07 9.47 1.95 1.26 4.5 2.23 6.78 2.24 40.82.13 81.65.06 122.47.16 3.01.01 4.92-.88 6.55-3.37 2.45-3.75 5.24-7.28 8.74-12.09 6.72 5.96 13.3 11.63 19.66 17.55 2.17 2.02 1.89 4.51-.53 6.46-1.55 1.25-3 2.86-4.79 3.55-6.73 2.59-7.8 7.49-7.57 14.13.5 14.65.23 29.32.1 43.98-.03 2.93.53 5.04 3.24 6.59 2.14 1.23 4.36 2.73 5.79 4.66 1.2 1.61 1.97 4.15 1.64 6.05-.18 1.06-2.98 2.34-4.62 2.37-10.49.21-20.98.11-31.7.81 5.22 2.25 10.59 4.21 15.58 6.9 2.15 1.16 3.51 3.81 5.22 5.78-2.05 1.34-4.09 2.68-6.15 4.01-.27.18-.64.38-.92.33-8.5-1.27-10.03 4.43-11.79 10.9-6.14 22.65-13.56 44.83-27.13 64.39-.25.36-.23.9-.46 1.9 11.5 0 22.76.09 34.01-.12 1.34-.02 2.84-1.5 3.92-2.64 4.46-4.69 8.78-9.5 13.45-14.58 8.71 6.31 17.22 12.34 25.57 18.59 2.99 2.24 1.91 7.3-1.7 8.34-1.87.54-3.94.48-5.92.48-63.15.08-126.3.13-189.45.19-.83 0-1.67 0-2.5.04-11.29.54-11.3.55-16.04-9.71-.57-1.29-1.02-2.66-1.8-4.64zm175.6-170.86c-2.13 0-3.76 0-5.4 0-39.97 0-79.95.11-119.92-.13-5.35-.03-6.38 1.97-6.35 6.62.15 19.65.06 39.31.08 58.96 0 1.42.22 2.85.32 4.08h131.27c0-23.19 0-45.97 0-69.53zm-18.25 80.27c-37.24 0-73.3 0-109.87 0 5.27 9.22 10.53 18.03 15.42 27.04 11.39 21 21.56 42.33 16.15 67.63 16.13 0 32.29-.12 48.44.1 3.46.05 5.14-1.03 6.12-4.21 5.66-18.37 11.87-36.59 16.94-55.12 3.12-11.42 4.53-23.3 6.8-35.44z"/><path d="m51.35 348.91c-9.44-5.9-14.59-15.09-21.1-22.98 9.38-5.03 18.37-9.92 27.42-14.67 27.27-14.32 41.29-38.63 50.11-66.74 3.76-11.99 7.17-24.11 7.6-37.45-10.58 0-20.85-.02-31.12.01-4.85.01-9.43-.61-13.25 4.38-3.12 4.07-8.84 3.38-13.61 2.28-3.15-.73-3.76-4.24-1.48-7.32 14.87-20.12 27.15-41.78 38.22-64.16.7-1.43 1.31-2.9 2.29-5.08-6.55 0-12.32-.08-18.09.02-13.64.23-27.29.36-40.91.92-3.94.16-6.19-.69-7.12-4.71-.63-2.71-1.86-5.28-3.07-8.56 4.81.42 9.03 1.03 13.26 1.13 17.97.43 35.94.76 53.91.93 1.59.02 3.41-1.09 4.74-2.16 3.48-2.81 6.75-5.89 10.45-9.17 5.58 5.34 11.13 10.36 16.34 15.71 3.56 3.65 2.99 7.25-1.41 9.88-2.24 1.34-4.79 2.48-7.34 2.89-4.7.76-7.27 3.32-9.56 7.43-8.07 14.53-16.59 28.8-24.94 43.18-.31.54-.54 1.13-1.09 2.32 10.76 0 21.01.08 31.26-.11 1.15-.02 2.49-1.43 3.37-2.5 2.54-3.07 4.88-6.3 8.05-10.44 5.87 5.06 11.69 9.89 17.18 15.06.74.7.13 3.24-.39 4.74-.33.95-1.53 1.91-2.56 2.26-6.54 2.3-7.86 7.56-9.21 13.68-7.44 33.74-15.37 49.04-38.4 75.84 1.73.31 3.21.57 4.69.83-.36.29-.71.59-1.07.88 3.39 4.3 6.19 9.3 10.27 12.79 17.13 14.65 37.81 22.28 59.43 26.63 15.22 3.06 30.9 4.48 46.43 5.12 23.44.97 46.95 1.31 70.4.66 27.4-.76 54.77-2.87 82.15-4.38 4.11-.23 8.23-.37 12.45-.56.69 2.84.73 4.83-3 5.88-6.54 1.83-10.64 6.69-12.9 12.93-.99 2.72-2.21 3.85-5.3 3.87-38.8.19-77.6 1-116.39.73-36.36-.25-71.74-6.47-105.07-21.74-18.44-8.45-31.67-19.11-45.43-35.59-5.74 5.45-11.46 10.89-17.21 16.32-1.45 1.37-2.86 2.83-4.48 3.97-7.53 5.28-13.79 11.24-12.91 21.57.09.81-.76 1.72-1.61 3.48z"/><path d="m152.39 48.72c22.01 5.49 43.48 4.12 64.86 4.19 31.14.1 62.28-.02 93.43.09 3.1.01 5.21-.77 7.2-3.28 4.54-5.72 9.45-11.15 14.65-17.2 7.55 5.93 15.03 11.64 22.29 17.6 2.99 2.46 8.24 4.18 5.93 9.57-2.01 4.68-6.75 2.63-10.28 2.64-47.8.12-95.59-.04-143.39.15-14.95.06-29.89 1.04-44.84 1.39-1.4.03-3.48-1.11-4.12-2.31-2.05-3.77-3.56-7.83-5.73-12.84z"/><path d="m56.49 33.97c3.26-4.19 6.18-4.42 10.2-1.3 11.8 9.16 24.18 17.58 35.76 26.99 8.31 6.76 11.98 15.86 8.47 26.72-1.27 3.92-3.87 6.58-8.3 6.75-4.35.17-7.54-1.74-8.69-5.95-5.89-21.42-19.54-37.42-35.78-51.65-.49-.42-.94-.88-1.66-1.56z"/></g><path d="m377.9 391.2c-.2.3-.4.5-.6.8-.7-.6-1.4-1-2.2-1.5.2-.3.4-.5.5-.8.6.4 1.4.8 2.3 1.5zm-1.8 6.1c-.2-.2-.5-.4-.9-.6.4-.6.8-1.2 1.2-1.9s.7-1.3.9-1.9c.3.3.5.5.8.7-.7 1.3-1.4 2.6-2 3.7zm2.2-9c-.3.3-.5.5-.6.8-.6-.6-1.3-1.1-2-1.5.3-.3.5-.5.6-.7.6.5 1.3.9 2 1.4zm.3.2v-.9h2 4.5c-.3 1.3-.6 2.5-1 3.6s-.9 2.1-1.4 3c.4.5 1 1 1.6 1.4s1.2.8 1.9 1.1c-.3.2-.5.4-.8.8-.4-.3-1-.7-1.6-1.2s-1.2-1.1-1.6-1.6c-.5.6-1.1 1.1-1.7 1.6s-1.4.9-2.1 1.4c-.1-.3-.3-.5-.7-.8.6-.2 1.2-.5 1.9-1s1.4-1.1 2-1.8c-.5-.8-.9-1.6-1.2-2.5s-.6-2-.8-3.2c-.4.1-.7.1-1 .1zm2.5 2.7c.3 1 .7 1.7 1 2.2.3-.5.6-1.1 1-2s.6-1.9.9-3h-3.2-.4c.1.9 1.3 1.8.7 2.8z" fill="#fbfafa"/><path d="m396.5 388.5v1.5 3.6h1.5v.9c-.4 0-1 0-1.7 0h-7.9c-.5 0-.9 0-1.2 0v-.9h1.3v-3.5c0-.7 0-1.2 0-1.6h2.4c0-.8 0-1.4 0-1.7h1c0 .3-.1.8-.1 1.7h1.5c0-.8 0-1.4 0-1.7h1c0 .3-.1.9-.1 1.7zm-8.2 9.2c-.2-.3-.5-.5-.8-.8.8-.3 1.4-.6 1.9-.9s1-.7 1.4-1.1c.3.3.6.5.9.8-1.6 1-2.8 1.6-3.4 2zm2.6-6.8v-1.6h-1.5v1.6zm0 2.7v-1.9h-1.5v1.9zm2.4-2.7v-1.6h-1.5v1.6zm0 2.7v-1.9h-1.5v1.9zm.2 2 .7-.8c.4.2.9.5 1.6.8s1.3.7 1.8 1c-.3.3-.5.5-.8.8-.4-.3-1.5-1-3.3-1.8zm2-4.7v-1.6h-1.4v1.6zm0 2.7v-1.9h-1.4v1.9z" fill="#fbfafa"/></svg>