<svg enable-background="new 0 0 400 400" viewBox="0 0 400 400" xmlns="http://www.w3.org/2000/svg"><path d="m374.8 390.4.4-.4c.7.5 1.3 1 1.8 1.4l-.5.5c-.5-.6-1.1-1.1-1.7-1.5zm1 7.3-.6-.3c.5-1.4 1.1-2.8 1.5-4.3.2.1.4.2.6.3-.5 1.3-1 2.8-1.5 4.3zm-.4-10.3.4-.4c.4.3 1 .8 1.7 1.4l-.5.5c-.4-.5-1-1-1.6-1.5zm2.5.3h1.7v-1h.6v1h3.5v-1h.6v1h1.8v.5h-1.8v1.4h-2v1h3.2v2h-3.2v.9h3.3v.5h-3.4c0 .3-.1.6-.1.9h4v.5h-3.7c.7.9 1.9 1.5 3.8 1.7-.1.2-.2.4-.3.6-2.1-.4-3.5-1.1-4-2.1-.4 1-1.8 1.7-4 2.2-.1-.2-.2-.4-.3-.6 2.1-.4 3.4-1 3.8-1.8h-3.4v-.5h3.6c.1-.3.1-.6.2-.9h-3.3v-.5h3.4c0-.3 0-.6 0-.9h-3.2v-2h3.3v-1h-2.1v-1.4h-1.7v-.5zm1.1 3.5v1h2.7c0-.3 0-.4 0-.4 0-.1 0-.2 0-.2 0-.1 0-.2 0-.3h-2.7zm1.2-3v.9h3.5v-.9zm4.7 3h-2.6v.6.4h2.6z" fill="#fcfbfa"/><path d="m393.6 386.7h.6v1.5h2.7v6.1h1.1v.6h-11v-.6h1.1v-6.1h2.7v-1.5h.6v1.5h2.1v-1.5zm-2.7 8.8.4.6c-1.2.6-2.5 1.3-3.8 1.9-.1-.2-.2-.4-.3-.6 1.2-.6 2.5-1.2 3.7-1.9zm-2.2-6.7v2.4h2.1v-2.4zm0 3v2.5h2.1v-2.5zm2.8-3v2.4h2.1v-2.4zm.1 3v2.5h2.1v-2.5h-2.2zm5.9 6.1c-1.4-.7-2.7-1.3-3.9-1.8l.3-.6c1.5.6 2.7 1.2 3.9 1.7zm-1.2-9.1h-2.1v2.4h2.1zm-2.1 3v2.5h2.1v-2.5z" fill="#fcfbfa"/><g fill="#010104"><path d="m243.83 31.97c5.8 4.28 10.81 8.37 16.22 11.82 2.61 1.66 5.97 2.97 9 3.01 20.83.26 41.66 0 62.49.24 4.43.05 7.35-1.32 10.17-4.63 7.34-8.64 7.5-8.56 16.54-1.59 3.56 2.74 7.1 5.54 10.37 8.61 4.88 4.59 4.47 7.08-1.34 10.18-2.64 1.41-5.23 3.2-8.07 3.87-4.76 1.13-6.85 4.19-8.88 8.31-14.62 29.68-29.5 59.23-44.3 88.81-.66 1.32-1.37 2.63-2.28 4.36 5.4 4.2 10.8 8.28 16.08 12.51 21.51 17.25 38.05 38.18 46.68 64.64 6.45 19.77 6.01 39.55-1.83 58.97-5.61 13.89-16.92 20.83-30.55 24.89-2.06.61-4.19 1.01-6.64 1.58-5.07-15.8-19.6-15.96-32.14-19.37-3.64-.99-7.45-1.37-11.68-2.13.54-2.42.98-4.42 1.19-5.36 12.37 1.47 24.16 3.54 36.03 4.13 19.69.98 29.62-8.8 31.85-29.83 4-37.8-11.9-68.15-37.97-94.06-4.48-4.45-9.24-8.67-14.22-12.55-3.18-2.48-3.52-4.44-1.94-8.25 11.08-26.69 21.87-53.5 32.59-80.33 2.88-7.21 5.2-14.66 7.93-22.44-25.99 0-51.39 0-77.4 0-.11 2.15-.31 4.38-.32 6.62-.02 99.49-.01 198.98-.01 298.48 0 7.6-.9 8.81-6.62 8.91-7.7.14-12.03-3.09-11.77-9.61.4-10.12 1.44-20.21 2.07-30.33.4-6.47.8-12.96.8-19.44.02-87.16 0-174.32-.15-261.48 0-5.87-1.17-11.76-1.9-18.54z"/><path d="m30.01 189.56c48.26-31.24 64.52-78.22 67.95-132.48-12.85 0-25.3-.08-37.74.04-4.98.05-9.97.36-14.92.93-3.62.42-6.01-.3-7.09-4.15-.8-2.85-2.08-5.56-3.38-8.93 5.34.37 10.2.75 15.07 1.04 5.81.34 11.62.86 17.43.87 38.16.08 76.32-.12 114.48.2 6.24.05 10.6-1.64 14.67-6.22 5.25-5.92 5.6-5.82 12.18-1.72 3.65 2.27 7.28 4.77 10.36 7.74 4.44 4.28 3.95 7.47-1 11-.8.57-1.65 1.31-2.57 1.47-8.18 1.41-8.31 6.99-8.45 13.83-.6 30.78-3.03 61.43-11.05 91.29-5.79 21.55-16.42 27.24-40.19 29.37-1.18.11-3.32-1.5-3.68-2.7-1.9-6.46-6.44-9.99-12.48-11.82-10.32-3.11-20.71-5.98-31.14-8.97-1.47-7.34-.68-8.1 6.49-6.58 12.49 2.65 24.97 5.35 37.52 7.66 4.04.74 8.56 1.23 12.37.13 3.83-1.11 7.93-3.66 10.37-6.78 6.32-8.09 7.96-18.17 9.45-28.03 3.85-25.53 5.53-51.24 5.32-77.07-.01-.65-.12-1.3-.22-2.29-24.31 0-48.54 0-73 0-1.55 10.04-2.98 20.18-4.71 30.26-4.85 28.17-15.45 53.9-33.61 76.16-10.99 13.47-24.95 23.42-40.2 31.55-1 .53-3.1.08-4.09-.69-1.52-1.15-2.51-3-4.14-5.11z"/><path d="m48.93 201.67c6.7 3.59 12.47 6.85 18.41 9.77 2.3 1.13 4.98 2.06 7.49 2.07 36 .13 71.99.15 107.99-.04 2.29-.01 4.95-1.45 6.75-3.02 2.86-2.48 5.13-5.63 8.28-9.22 5.2 3.96 10.34 7.78 15.36 11.74 3.81 3 3.61 6.93-.16 9.01-7.61 4.19-7.2 10.69-7.13 17.79.22 25.5.19 51-.02 76.49-.03 4.09.9 7.01 4.42 9.13 1.41.85 3.01 1.85 3.77 3.2.94 1.67 1.81 3.99 1.34 5.65-.35 1.24-2.85 2.63-4.41 2.66-14.66.2-29.33.12-43.99.12-31.66 0-63.33 0-94.99 0-1.8 0-3.59 0-5.95 0 0 3.54.53 6.78-.17 9.73-.57 2.4-2.14 5.69-4.08 6.41-3.51 1.31-7.62 1.22-11.47 1.12-.52-.01-1.36-3.43-1.36-5.28-.08-36.33-.06-72.66-.06-108.99-.02-12.49-.02-24.97-.02-38.34zm17.39 124.89c1.26.1 2.23.25 3.2.25 38.16.01 76.31-.02 114.47.07 3.71.01 4.91-1.3 4.9-4.97-.1-31.66-.06-63.32-.07-94.97 0-1.12-.17-2.25-.28-3.59-40.85 0-81.41 0-122.21 0-.01 34.38-.01 68.48-.01 103.21z"/></g></svg>