<svg enable-background="new 0 0 400 400" viewBox="0 0 400 400" xmlns="http://www.w3.org/2000/svg"><g fill="#010000"><path d="m165 345.44c-37.11 0-73.68 0-110.93 0 0 5.6.02 11.04-.01 16.47-.03 5.27-2.09 7.61-7.22 7-8.1-.97-11.71-3.34-11.26-11.41.79-14.26 2.25-28.51 2.31-42.77.25-63.81.15-127.62.06-191.44-.01-7.76-.76-15.53-1.21-23.92 4.25 3.1 8.43 6.42 12.9 9.28 1.96 1.26 4.49 2.16 6.79 2.25 7.29.28 14.59.1 22.2.1 0-17.98 0-35.56 0-53.76-8.88 0-17.8-.1-26.71.04-4.81.07-9.64.39-14.43.88-2.75.28-4.32-.53-5.32-3.16-1.48-3.87-3.29-7.62-5.03-11.6 32.18 6.04 64.52 2.64 96.72 3.52 2.16.06 4.33.01 6.5.01 8.33 0 17.31 1.95 24.8-.57 7.09-2.38 12.62-9.44 19.22-14.75 6.86 5.25 14.38 10.75 21.54 16.69 1.38 1.15 2.2 4.23 1.71 5.98-.37 1.3-3.27 2.64-5.05 2.66-16.49.2-32.99.12-49.48.12-1.8 0-3.61 0-5.75 0v53.88c8.54 0 17.29.08 26.03-.11.98-.02 2.11-1.41 2.86-2.39 2.41-3.17 4.67-6.46 7.25-10.07 8.12 4.59 15.13 10.3 20.7 17.59.79 1.03.36 4.03-.62 5.17-2.02 2.36-4.56 4.49-7.29 5.95-3.49 1.87-4.17 4.41-4.17 8.09.1 61.48.02 122.96.12 184.44.02 11.81.43 23.63 1.02 35.42.43 8.66-6.67 10.94-12.4 10.84-3.72-.07-6.15-1.94-5.9-6.34.26-4.59.05-9.22.05-14.09zm-44-223.87c-9.08 0-17.6 0-26.04 0-.61 12.5-.6 24.66-1.9 36.68-3.29 30.4-13.9 57.64-36.09 79.61-1.63 1.61-2.77 4.52-2.78 6.84-.19 28.65-.13 57.3-.11 85.95 0 1.6.17 3.2.26 4.89h110.27c0-38.29 0-76.3 0-114.4-7.7 0-15.02.22-22.32-.05-14.16-.52-21.29-8.04-21.29-22.1-.01-23.99 0-47.97 0-71.96 0-1.77 0-3.56 0-5.46zm44 83.41c0-9.91 0-19.2 0-28.49 0-16.82.07-33.65-.12-50.47-.02-1.62-1.64-4.56-2.62-4.61-8.26-.37-16.54-.21-25.26-.21v5.96 67.97c0 7.74 2.42 10.5 10.31 10.67 5.62.12 11.27-.49 17.69-.82zm-86.21-83.81c-6.7 0-12.7.29-18.65-.09-4.75-.31-6.22 1.16-6.18 6.05.21 31.44.11 62.89.11 94.33v4.25c24.1-31.05 25.53-67.18 24.72-104.54zm41.97-63.84c-8.91 0-17.34 0-25.95 0v53.42h25.95c0-17.84 0-35.43 0-53.42z"/><path d="m293.02 369.78c-.64-11.15-8.08-16.02-17.98-18.79-9.24-2.59-18.35-5.67-28.24-8.76.32-2.27.68-4.77 1.11-7.77 10.01 3.01 19.46 5.95 28.97 8.68 6.38 1.83 12.79 3.55 19.27 4.97 11.31 2.48 21.25-2.84 26.04-13.42 7.35-16.24 10.98-33.49 12.58-51.03 2.88-31.77 5.43-63.59 7.09-95.45 1.45-27.91 1.47-55.9 2.11-83.85.01-.48-.15-.97-.36-2.17-1.51 0-3.11 0-4.7 0-32.83 0-65.66.06-98.49-.08-3.71-.02-5.45.95-6.73 4.69-8.59 25.17-20.89 48.5-35.88 70.44-.73 1.07-1.54 2.09-2.53 3.42-1.88-1.44-3.56-2.73-5.4-4.15 25.03-45.85 39.59-94.84 46.94-147.05 9.92 4.23 19.99 8.39 29.91 12.89 1.27.58 2.5 3 2.36 4.43-.12 1.26-2.01 2.99-3.43 3.37-3.82 1.02-7.84 1.3-11.71 2.17-1.38.31-3.39 1.21-3.72 2.27-3.82 12.31-7.37 24.7-11.1 37.42h12.61c28 0 56-.21 83.99.16 6.23.08 10.61-1.59 14.68-6.2 5.18-5.88 5.54-5.75 12.1-1.64 3.64 2.29 7.29 4.74 10.38 7.7 4.54 4.34 3.93 7.87-1.29 11.24-.84.54-1.66 1.31-2.58 1.47-7.33 1.3-7.95 6.03-8.02 12.57-.26 25.45-.41 50.96-2.19 76.34-2.51 35.62-5.92 71.2-10.05 106.66-1.58 13.56-5.49 27-9.66 40.07-5.91 18.44-26.67 31.28-46.08 29.4z"/><path d="m222.44 172.39c2.13-3.78 4.18-3.99 7.2-1.92 21.75 14.89 42.29 31.23 59.64 51.18 5.3 6.1 7.95 13.78 7.73 22.07-.1 3.64-1.17 7.12-5.23 8.15-3.84.97-6.83-.72-8.85-4.06-5.76-9.53-11.23-19.24-17.29-28.57-10.32-15.88-23.47-29.31-37.59-41.83-1.85-1.64-3.68-3.3-5.61-5.02z"/><path d="m72.08 284.17c0-3.45 0-6.09 0-9.31 1.85-.1 3.59-.26 5.34-.26 11.16-.02 22.32.19 33.46-.16 2.63-.08 5.68-1.51 7.71-3.26 3.86-3.34 7.13-7.37 11.01-11.5 7.23 5.76 13.95 10.88 20.33 16.39 1.11.96 1.46 3.76.96 5.33-.39 1.22-2.56 2.43-4.08 2.63-3.11.41-6.31.15-9.48.15-19.81 0-39.63 0-59.44 0-1.8-.01-3.59-.01-5.81-.01z"/></g><path d="m377.9 391.2c-.2.3-.4.5-.6.8-.7-.6-1.4-1-2.2-1.5.2-.3.4-.5.5-.8.6.4 1.4.8 2.3 1.5zm-1.8 6.1c-.2-.2-.5-.4-.9-.6.4-.6.8-1.2 1.2-1.9s.7-1.3.9-1.9c.3.3.5.5.8.7-.7 1.3-1.4 2.6-2 3.7zm2.2-9c-.3.3-.5.5-.6.8-.6-.6-1.3-1.1-2-1.5.3-.3.5-.5.6-.7.6.5 1.3.9 2 1.4zm.3.2v-.9h2 4.5c-.3 1.3-.6 2.5-1 3.6s-.9 2.1-1.4 3c.4.5 1 1 1.6 1.4s1.2.8 1.9 1.1c-.3.2-.5.4-.8.8-.4-.3-1-.7-1.6-1.2s-1.2-1.1-1.6-1.6c-.5.6-1.1 1.1-1.7 1.6s-1.4.9-2.1 1.4c-.1-.3-.3-.5-.7-.8.6-.2 1.2-.5 1.9-1s1.4-1.1 2-1.8c-.5-.8-.9-1.6-1.2-2.5s-.6-2-.8-3.2c-.4.1-.7.1-1 .1zm2.5 2.7c.3 1 .7 1.7 1 2.2.3-.5.6-1.1 1-2s.6-1.9.9-3h-3.2-.4c.1.9 1.3 1.8.7 2.8z" fill="#fbfafa"/><path d="m396.5 388.5v1.5 3.6h1.5v.9c-.4 0-1 0-1.7 0h-7.9c-.5 0-.9 0-1.2 0v-.9h1.3v-3.5c0-.7 0-1.2 0-1.6h2.4c0-.8 0-1.4 0-1.7h1c0 .3-.1.8-.1 1.7h1.5c0-.8 0-1.4 0-1.7h1c0 .3-.1.9-.1 1.7zm-8.2 9.2c-.2-.3-.5-.5-.8-.8.8-.3 1.4-.6 1.9-.9s1-.7 1.4-1.1c.3.3.6.5.9.8-1.6 1-2.8 1.6-3.4 2zm2.6-6.8v-1.6h-1.5v1.6zm0 2.7v-1.9h-1.5v1.9zm2.4-2.7v-1.6h-1.5v1.6zm0 2.7v-1.9h-1.5v1.9zm.2 2 .7-.8c.4.2.9.5 1.6.8s1.3.7 1.8 1c-.3.3-.5.5-.8.8-.4-.3-1.5-1-3.3-1.8zm2-4.7v-1.6h-1.4v1.6zm0 2.7v-1.9h-1.4v1.9z" fill="#fbfafa"/></svg>