<svg enable-background="new 0 0 400 400" viewBox="0 0 400 400" xmlns="http://www.w3.org/2000/svg"><g fill="#010000"><path d="m280.66 101v62.83c8.32 0 16.45-.56 24.48.16 7.97.71 13.58-1.61 17.93-8.41 2.75-4.29 6.64-7.85 10.51-12.3 9.23 7.35 18.37 14.46 27.24 21.91 1.09.92 1.45 3.98.76 5.36-.67 1.34-3.11 2.49-4.79 2.52-11.66.21-23.33.12-34.99.12-13.49 0-26.97 0-40.93 0v74.75c14.15 0 28.12.07 42.08-.11 1.33-.02 2.9-1.4 3.93-2.53 5-5.53 9.86-11.2 15.17-17.28 9.3 7.21 18.42 14.12 27.27 21.35 1.1.9 1.51 3.79.94 5.26-.57 1.48-2.62 2.8-4.29 3.33-1.82.57-3.96.14-5.96.14-24.5 0-48.99 0-73.49 0-1.81 0-3.62 0-6.13 0v5.71c0 24.33-.12 48.66.08 72.98.06 7.12 1.33 14.23 1.51 21.35.24 9.55-6.43 14.64-15.44 11.6-2-.67-4.39-3.98-4.4-6.08-.04-10.63.64-21.27 1.08-31.9.09-2.16.34-4.31.34-6.47.02-90.48.04-180.96-.04-271.45-.01-7.79-.72-15.59-1.17-24.61 8.43 1.74 16.79 3.32 25.07 5.25 3.53.82 7.05 2.08 10.26 3.74 1.49.77 2.98 2.93 3.07 4.54.07 1.2-1.87 3.14-3.32 3.69-5.39 2.06-10.94 3.68-16.78 5.58v38.91c11.03 0 21.84-.51 32.56.18 7.25.47 12.27-1.57 16.35-7.54 3.08-4.5 7.02-8.4 10.97-13.02 7.58 5.96 15.07 11.69 22.35 17.67 2.87 2.35 8 3.91 5.95 9.09-1.96 4.96-6.91 3.64-10.89 3.65-23.83.08-47.66.04-71.49.04-1.76-.01-3.57-.01-5.79-.01z"/><path d="m33.06 33.62c5.94 4.31 11.28 8.5 16.95 12.16 2.35 1.52 5.41 2.62 8.17 2.68 12.66.28 25.33-.09 37.99.24 4.36.12 7.19-1.33 9.71-4.62 2.21-2.89 4.79-5.48 7.74-8.8 6.89 5.57 13.79 10.73 20.17 16.47 3.86 3.47 3.06 6.45-1.53 8.98-1.75.97-3.45 2.25-5.34 2.68-8.04 1.85-11.07 7.87-14.32 14.72-10.53 22.2-21.79 44.05-32.78 66.04-.52 1.04-1.03 2.07-1.54 3.09 6.42 5.48 12.97 10.63 19.01 16.32 16.68 15.73 27.89 34.84 32.12 57.38 2.67 14.21 1.77 28.52-5.09 41.85-5.31 10.32-14.83 14.68-25.08 18.22-4.29 1.48-6.72 1.27-8.4-3.84-1.02-3.1-4.04-6.48-7.02-7.81-8.11-3.62-16.68-6.22-25.46-9.36.22-1.33.55-3.38.8-4.96 8.08 1.63 15.94 4.03 23.94 4.68 21.16 1.73 30.38-8.11 30.31-29.8-.09-27.96-11.84-51.4-30.67-71.56-.68-.73-1.41-1.42-2.12-2.12-9.21-9.21-8.91-9.1-4.33-21.52 8.84-23.98 17.3-48.1 25.9-72.17.38-1.06.6-2.18 1.02-3.76-17.55 0-34.75 0-52.82 0v6.21 295.93c0 8.23-.59 9.09-6.28 9.19-7.84.14-12.41-3.24-12.09-9.95.55-11.6 1.73-23.18 2.61-34.77.15-1.99.17-3.99.17-5.99.01-88.15.04-176.29-.07-264.44.01-6.85-1.04-13.73-1.67-21.37z"/><path d="m201.56 231.76c-9.65 8.12-18.53 15.59-27.42 23.05-.51.43-1.01.89-1.57 1.23-5.44 3.3-10.03 6.99-8.73 14.5.28 1.64-.63 3.59-1.32 5.26-.95 2.28-2.58 3.22-4.51.96-7.55-8.81-15.03-17.67-22.98-27.04 23.4-6.6 43.91-16.96 63.92-28.47 3.02-1.74 4.06-3.74 4.08-7.12.1-11.81.52-23.62.8-35.43.04-1.63.01-3.25.01-4.79-18.23 0-35.94 0-54.17 0-1.46-3.57-3.21-7.84-4.83-11.8 19.49.76 38.82 1.51 58.59 2.28 0-21.48 0-42.05 0-62.95-.77-.13-1.7-.44-2.63-.42-18.14.28-36.27.64-54.41.81-1.1.01-2.73-1.11-3.24-2.13-1.67-3.4-2.94-6.99-4.21-10.16 21.44.63 42.77 1.26 65.45 1.93-.8-20.94-1.56-40.95-2.34-61.62 3.03.36 6.92.6 10.71 1.34 6.67 1.3 13.32 2.75 19.88 4.49 1.64.43 4.07 2.22 4.08 3.39.01 1.76-1.38 4.23-2.92 5.15-3.8 2.28-8.03 3.86-12.73 6.02v5.36c-.02 48 .33 96-.2 143.99-.34 31.22-4.72 62.03-15.94 91.35-11.65 30.42-32.06 54.17-58.55 72.85-3.53 2.49-7.17 4.84-11.56 7.78-1.29-1.84-2.6-3.74-4.31-6.19 45.12-32.12 66.08-78.12 71.05-133.62z"/></g><path d="m377.9 391.2c-.2.3-.4.5-.6.8-.7-.6-1.4-1-2.2-1.5.2-.3.4-.5.5-.8.6.4 1.4.8 2.3 1.5zm-1.8 6.1c-.2-.2-.5-.4-.9-.6.4-.6.8-1.2 1.2-1.9s.7-1.3.9-1.9c.3.3.5.5.8.7-.7 1.3-1.4 2.6-2 3.7zm2.2-9c-.3.3-.5.5-.6.8-.6-.6-1.3-1.1-2-1.5.3-.3.5-.5.6-.7.6.5 1.3.9 2 1.4zm.3.2v-.9h2 4.5c-.3 1.3-.6 2.5-1 3.6s-.9 2.1-1.4 3c.4.5 1 1 1.6 1.4s1.2.8 1.9 1.1c-.3.2-.5.4-.8.8-.4-.3-1-.7-1.6-1.2s-1.2-1.1-1.6-1.6c-.5.6-1.1 1.1-1.7 1.6s-1.4.9-2.1 1.4c-.1-.3-.3-.5-.7-.8.6-.2 1.2-.5 1.9-1s1.4-1.1 2-1.8c-.5-.8-.9-1.6-1.2-2.5s-.6-2-.8-3.2c-.4.1-.7.1-1 .1zm2.5 2.7c.3 1 .7 1.7 1 2.2.3-.5.6-1.1 1-2s.6-1.9.9-3h-3.2-.4c.1.9 1.3 1.8.7 2.8z" fill="#fbfafa"/><path d="m396.5 388.5v1.5 3.6h1.5v.9c-.4 0-1 0-1.7 0h-7.9c-.5 0-.9 0-1.2 0v-.9h1.3v-3.5c0-.7 0-1.2 0-1.6h2.4c0-.8 0-1.4 0-1.7h1c0 .3-.1.8-.1 1.7h1.5c0-.8 0-1.4 0-1.7h1c0 .3-.1.9-.1 1.7zm-8.2 9.2c-.2-.3-.5-.5-.8-.8.8-.3 1.4-.6 1.9-.9s1-.7 1.4-1.1c.3.3.6.5.9.8-1.6 1-2.8 1.6-3.4 2zm2.6-6.8v-1.6h-1.5v1.6zm0 2.7v-1.9h-1.5v1.9zm2.4-2.7v-1.6h-1.5v1.6zm0 2.7v-1.9h-1.5v1.9zm.2 2 .7-.8c.4.2.9.5 1.6.8s1.3.7 1.8 1c-.3.3-.5.5-.8.8-.4-.3-1.5-1-3.3-1.8zm2-4.7v-1.6h-1.4v1.6zm0 2.7v-1.9h-1.4v1.9z" fill="#fbfafa"/></svg>