<svg enable-background="new 0 0 400 400" viewBox="0 0 400 400" xmlns="http://www.w3.org/2000/svg"><g fill="#010000"><path d="m347.08 35.55c8.6 6.26 17.04 12.15 25.12 18.5 1.36 1.07 1.84 4.21 1.47 6.16-.19 1-3.14 2.09-4.84 2.1-23.66.14-47.33.18-71 0-3.77-.03-5.3 1.22-6.82 4.66-5.75 13.06-12.03 25.89-18.12 38.8-.54 1.14-1.14 2.24-2.06 4.04h18.99c12.33 0 24.67-.2 37 .11 4.05.1 6.49-1.28 8.53-4.53 2.11-3.37 4.58-6.51 7.1-10.04 8.03 4.41 14.84 9.82 20.43 16.75 1.9 2.35 1.59 4.63-.64 6.6-1.62 1.43-3.15 3.13-5.04 4.05-5.25 2.54-6.21 6.54-6.17 12.11.26 41.16.01 82.33.22 123.49.06 12.13.97 24.26 1.75 36.37.57 8.82-7.49 15.39-15.74 12.2-1.49-.58-2.78-3.06-3.13-4.86-.53-2.7-.14-5.58-.14-8.69-22.77 0-45.16 0-68.74 0 4.32 2.9 8 5.03 11.23 7.71 1.43 1.19 2.58 3.51 2.55 5.29-.02.88-3.22 2.7-4.61 2.4-10.43-2.25-14.88 4.85-20.7 11.43-16.57 18.73-34.39 36.19-57.92 47.03-.76-1.16-1.48-2.2-2.14-3.27-.68-1.11-1.31-2.25-2.05-3.54 24.33-18.62 48.7-37 61.25-67.01-6.33 0-12.02 0-18.2 0-.08 1.57-.19 3.18-.24 4.8-.16 5.1-2.46 7.08-7.55 6.5-8.01-.92-11.49-5.45-10.87-13.6 1.05-13.91 2.62-27.82 2.72-41.75.34-45.83.17-91.66.02-137.49-.02-5.44-1.1-10.87-1.81-17.43 4.67 3.43 8.92 6.14 12.68 9.42 5.29 4.62 11.02 6.37 18.15 6.11 14.63-.53 14.82-.11 19.08-14.17 2.88-9.52 5.2-19.21 7.7-28.84.32-1.25.24-2.6.37-4.23-12.37 0-24.47-.16-36.56.05-10.14.18-20.27.85-30.41 1.12-1.01.03-2.53-.94-2.99-1.86-2.04-4.1-3.77-8.35-5.6-12.51 43.1 6.31 86.09 2.23 128.94 3.26 1.66.04 3.72-1.2 4.97-2.46 4.67-4.67 9.07-9.64 13.82-14.78zm-13.2 197.73c-33.25 0-66.02 0-99.13 0v49.35h99.13c0-16.52 0-32.66 0-49.35zm-.2-9.94c0-15.92 0-31.32 0-46.77-33.15 0-65.98 0-98.89 0v46.77zm.15-102.97c-33.35 0-66.19 0-99.05 0v46.08h99.05c0-15.48 0-30.59 0-46.08z"/><path d="m36.61 192.1c-1.27-1.66-2.54-3.32-4.34-5.67 30.38-19.56 53.33-45.38 68.47-77.48-19.02 0-37.79-.13-56.56.1-4.05.05-6.96-.22-8.33-4.71-1.01-3.3-2.79-6.37-4.58-10.35 26.55 6.09 52.88 3.33 79.39 4.07 0-10.28 0-20.02 0-30.05-19.76 1.86-39.35 3.71-59.14 5.57-.59-2.8-1.02-4.85-1.52-7.22 37.55-5.16 75.13-10 108.33-32.14 6.85 4.86 14.36 10.06 21.67 15.53 1.16.87 2.19 3.28 1.8 4.51s-2.63 1.89-4.06 2.78c-.12.08-.34.05-.49.01-13.55-3.46-25.76 2.69-38.4 5.47-10.72 2.36-10.67 2.63-10.66 13.78.01 6.66.04 13.33.07 19.99 0 .31.16.62.46 1.66 9.2 0 18.62.09 28.03-.12 1.13-.03 2.38-1.6 3.32-2.68 5.02-5.74 9.97-11.54 15.13-17.55 8.82 6.99 17.39 13.57 25.65 20.52 1.57 1.32 3.22 4.75 2.56 6.02-.97 1.85-3.96 3.61-6.15 3.68-10.82.37-21.65.17-32.48.17-11.97 0-23.94 0-36.57 0 0 3.79-.31 7.27.16 10.64.18 1.3 1.94 2.82 3.34 3.43 20.26 8.88 38.99 20.25 55.39 35.1 4.29 3.88 7.7 9.13 10.23 14.37 1.19 2.46.4 7.33-1.43 9.43-2.59 2.97-6.59 1.13-9.38-1.27-2.88-2.48-5.64-5.17-8.14-8.04-13.98-16.04-29.65-30.09-47.97-41.04-.4-.24-.91-.3-1.81-.57-.15 1.38-.39 2.6-.39 3.82-.03 8-.21 16 .03 23.99.29 9.63.77 19.26 1.49 28.86.68 9.05-5.31 14.77-14.08 13.08-3.94-.76-6.02-2.55-5.89-7.06.55-19.63.82-39.27 1.18-58.9.03-1.63 0-3.27 0-6.29-21 27-43.98 49.89-74.33 64.56z"/><path d="m174.49 268.96c-11.13.52-21.16.97-31.2 1.47-1.97.1-3.94.62-5.9.6-6.65-.06-7.97-2.25-5.89-8.58 4.7-14.28 9.21-28.62 14.02-43.62-16.62 0-32.16 0-47.96 0-1.15 9.55-2.16 19.08-3.48 28.57-4.11 29.52-11.54 58-27.81 83.44-8.34 13.05-19.25 23.76-31.99 32.57-1.07.74-2.27 1.29-3.57 2.02-1.3-1.73-2.48-3.3-3.81-5.08 41.29-38.24 50.19-88.54 53.26-141.34-4.91 0-9.32-.08-13.73.02-4.46.1-8.91.38-13.76.6-1.72-4.23-3.51-8.63-5.43-13.35 32.24 4.43 64.21 2.05 96.1 2.55 1.75.03 3.78-.96 5.23-2.06 3.04-2.31 5.77-5.01 9.13-7.99 5.5 5.23 11.16 10.3 16.44 15.73 3.44 3.54 2.64 7.44-1.77 9.83-2.6 1.41-5.42 2.89-8.29 3.26-4.52.58-5.84 3.1-6.73 7.08-1.85 8.22-4.21 16.33-6.54 25.2 6.6 0 13.04.96 18.98-.35 3.75-.82 7.11-4.71 10-7.81 3.22-3.45 5.9-3.24 9.26-.53 4.53 3.65 9.24 7.08 13.8 10.68 3.41 2.69 2.86 5.37-.43 7.66-2.04 1.42-4.12 3.07-6.44 3.72-4.87 1.36-5.5 4.89-5.86 9.05-1.56 18.27-5.42 36.05-10.89 53.56-6.13 19.64-20.6 28.82-39.73 33.44-.24-1.26-.53-2.14-.57-3.04-.32-6.02-3.01-10.53-8.53-13.05-8.47-3.85-16.98-7.63-25.54-11.27-5.88-2.49-5.94-2.36-3.73-8.1 12.01 3.82 23.82 8.27 35.99 11.25 10.79 2.64 17.4-.9 22.47-9.26 5.67-9.36 8.1-19.61 9.7-30.16 1.8-11.78 3.36-23.6 5.2-36.71z"/><path d="m295.15 310.4c.86-1.84 1.55-3.31 2.77-5.92 10.56 4.92 21.12 9.27 31.12 14.67 7.71 4.16 14.93 9.36 21.99 14.59 7.54 5.59 12.91 12.95 14.56 22.45.35 2.02.11 4.36-.59 6.29-1.3 3.61-4.55 4.3-7.47 1.8-2.02-1.73-4.15-3.46-5.7-5.58-13.36-18.22-32.04-30.31-49.83-43.44-2.12-1.56-4.31-3.06-6.85-4.86z"/></g><path d="m377.9 391.2c-.2.3-.4.5-.6.8-.7-.6-1.4-1-2.2-1.5.2-.3.4-.5.5-.8.6.4 1.4.8 2.3 1.5zm-1.8 6.1c-.2-.2-.5-.4-.9-.6.4-.6.8-1.2 1.2-1.9s.7-1.3.9-1.9c.3.3.5.5.8.7-.7 1.3-1.4 2.6-2 3.7zm2.2-9c-.3.3-.5.5-.6.8-.6-.6-1.3-1.1-2-1.5.3-.3.5-.5.6-.7.6.5 1.3.9 2 1.4zm.3.2v-.9h2 4.5c-.3 1.3-.6 2.5-1 3.6s-.9 2.1-1.4 3c.4.5 1 1 1.6 1.4s1.2.8 1.9 1.1c-.3.2-.5.4-.8.8-.4-.3-1-.7-1.6-1.2s-1.2-1.1-1.6-1.6c-.5.6-1.1 1.1-1.7 1.6s-1.4.9-2.1 1.4c-.1-.3-.3-.5-.7-.8.6-.2 1.2-.5 1.9-1s1.4-1.1 2-1.8c-.5-.8-.9-1.6-1.2-2.5s-.6-2-.8-3.2c-.4.1-.7.1-1 .1zm2.5 2.7c.3 1 .7 1.7 1 2.2.3-.5.6-1.1 1-2s.6-1.9.9-3h-3.2-.4c.1.9 1.3 1.8.7 2.8z" fill="#fbfafa"/><path d="m396.5 388.5v1.5 3.6h1.5v.9c-.4 0-1 0-1.7 0h-7.9c-.5 0-.9 0-1.2 0v-.9h1.3v-3.5c0-.7 0-1.2 0-1.6h2.4c0-.8 0-1.4 0-1.7h1c0 .3-.1.8-.1 1.7h1.5c0-.8 0-1.4 0-1.7h1c0 .3-.1.9-.1 1.7zm-8.2 9.2c-.2-.3-.5-.5-.8-.8.8-.3 1.4-.6 1.9-.9s1-.7 1.4-1.1c.3.3.6.5.9.8-1.6 1-2.8 1.6-3.4 2zm2.6-6.8v-1.6h-1.5v1.6zm0 2.7v-1.9h-1.5v1.9zm2.4-2.7v-1.6h-1.5v1.6zm0 2.7v-1.9h-1.5v1.9zm.2 2 .7-.8c.4.2.9.5 1.6.8s1.3.7 1.8 1c-.3.3-.5.5-.8.8-.4-.3-1.5-1-3.3-1.8zm2-4.7v-1.6h-1.4v1.6zm0 2.7v-1.9h-1.4v1.9z" fill="#fbfafa"/></svg>