<svg enable-background="new 0 0 400 400" viewBox="0 0 400 400" xmlns="http://www.w3.org/2000/svg"><g fill="#010000"><path d="m73.3 249.33v84.8c21.76-7.55 42.84-14.86 65.06-22.57-5.07-9.01-9.48-16.92-13.97-24.78-1.24-2.16-2.51-4.38-4.16-6.22-3.45-3.86-2.96-6.98 1.69-10.08 14.04 16.55 28.82 32.67 38.49 52.42 3.36 6.87 5.77 14.59 3.71 22.65-.4 1.57-1.04 3.22-2.04 4.47-3.46 4.34-7.98 3.77-9.96-1.39-3.22-8.36-6.11-16.86-9.16-25.28-.56-1.55-1.24-3.05-2.04-5-7.55 4.67-14.57 9.63-22.13 13.56-12.82 6.67-25.88 12.9-39.05 18.85-3.64 1.64-6.15 3.25-7.04 7.35-.58 2.64-2.15 5.07-3.27 7.6-.6.16-1.21.33-1.81.49-5.34-9.37-10.68-18.73-16.02-28.1.56.01 1.12.01 1.68.02.88-1.98 2.54-3.95 2.54-5.93.1-60.15.06-120.31-.04-180.47-.01-4.44-.64-8.88-1.03-13.93-8.07 6.76-15.73 13.18-23.7 19.85-2.04-2.6-3.63-4.64-5.29-6.76 37.39-33.21 63.66-73.05 75.98-123.06 9.63 2.88 19.3 5.56 28.8 8.75 2.94.99 2.62 5.17-.61 6.53-3.47 1.46-7.29 2.12-10.99 2.96-1.73.39-3.56.4-6.42.68 6.76 5.16 13.04 9.37 18.64 14.34 11.68 10.37 23.31 20.83 34.35 31.87 5.64 5.64 8.51 13.25 7.42 21.44-.36 2.68-2.38 6.14-4.65 7.34-3.38 1.79-6.57-.25-8.7-3.68-7.26-11.73-13.93-23.92-22.19-34.9-7.93-10.54-17.56-19.81-27.26-30.54-8.18 22.24-19.34 40.92-33.77 59.8 13.04.57 24.58 1.14 36.12 1.48 1.23.04 2.73-1.05 3.72-2 3.47-3.35 6.77-6.87 10.69-10.89 7.03 5.11 13.97 9.9 20.58 15.09 2.59 2.03 1.17 6.59-2.08 7.6-1.23.38-2.63.28-3.96.31-20.47.36-40.95.69-61.42 1.04-3.18.05-3.18.08-7.72-7.17-5.58 6.24-11.1 12.42-17.03 19.06 7.09 5.4 14.25 10.94 21.54 16.3.93.68 2.55.57 3.85.57 18.16.03 36.33.1 54.49-.09 1.98-.02 4.35-1.24 5.84-2.64 2.88-2.72 5.25-5.96 8.26-9.49 5.22 3.84 10.45 7.31 15.23 11.32 4.46 3.74 4.76 6.42-.17 9.44-7.04 4.32-7.38 10.17-7.28 17.28.32 22.99.13 45.99.11 68.99-.01 7.29-7.57 12.84-14.42 10.4-1.18-.42-2.3-2.2-2.63-3.55-.45-1.85-.11-3.89-.11-6.11-22.34-.02-44.27-.02-66.67-.02zm-.09-10.15h66.53c0-11.35 0-22.29 0-33.36-22.3 0-44.35 0-66.53 0zm66.52-75.73c-22.26 0-44.18 0-66.34 0v32.11h66.34c0-10.71 0-21.15 0-32.11z"/><path d="m202.54 263.99c7.23 0 14.03.14 20.82-.11 1.4-.05 2.96-1.32 4.07-2.4 3.92-3.83 7.68-7.83 11.78-12.05 7.28 5.51 14.26 10.58 20.91 16.05 1.3 1.07 2.2 4.01 1.67 5.53-.49 1.41-3.12 2.91-4.83 2.93-16.16.22-32.32.13-48.48.13-1.8 0-3.61 0-5.74 0v62.56h136.95c0-21.21 0-42.42 0-63.46-17.91 0-35.64 0-54.05 0-1.46-3.49-3.24-7.72-5.05-12.05 19.77.74 39.2 1.46 59.04 2.2 0-21.42 0-41.99 0-62.86-17.57 0-35.28 0-53.81 0-1.61-3.87-3.47-8.35-5.01-12.07 17.85.52 35.58.96 53.31 1.6 3.14.11 5.31-.8 7.25-3.25 2.57-3.26 5.47-6.25 9.06-10.31 6.12 4.85 12.27 9.49 18.13 14.47 2.48 2.11 2.02 4.73-.53 6.82-.77.63-1.46 1.51-2.35 1.83-7.04 2.56-7.7 7.87-7.65 14.58.29 40.99.09 81.97.21 122.96.02 5.79.74 11.6 1.51 17.35.58 4.32-.7 7.58-4.33 9.79-4.23 2.57-8.83 4.16-13.67 2.12-1-.42-1.62-2.74-1.68-4.21-.21-4.81-.08-9.63-.08-14.79-45.82 0-91.38 0-137.61 0 0 3.76.13 7.55-.03 11.33-.24 5.53-10.06 10.87-14.85 8.06-.82-.48-1.38-1.8-1.57-2.83-.27-1.45-.1-2.99-.1-4.49 0-56.15 0-112.3 0-168.45 0-1.82 0-3.64 0-6.31 4.62 2.32 8.83 4.15 12.74 6.48 2.97 1.77 5.18 1.56 8.03-.38 14.17-9.66 26.73-20.87 36.15-36.23 8.02 5.96 15.98 11.66 23.65 17.75 1.51 1.2 2.98 4.37 2.4 5.77-.63 1.51-3.65 2.09-5.7 2.89-.72.28-1.73.27-2.47 0-7.51-2.73-13.49.73-19.98 3.99-10.49 5.28-21.39 9.8-32.33 14.08-3.53 1.38-5.6 3.56-5.64 6.66-.26 19.3-.14 38.59-.14 58.32z"/><path d="m181.3 73.02c-.51-2.25-.98-4.29-1.53-6.73 8.01-.8 15.72-1.58 23.42-2.33 35.13-3.44 69.64-9.97 103.04-21.52 8.09-2.8 15.53-7.44 23.36-11.05 1.41-.65 3.7-1.15 4.77-.45 6.96 4.53 13.77 9.29 20.41 14.26 1.16.87 2.14 3.35 1.72 4.59-.4 1.2-2.88 2.69-4.16 2.46-16.95-3.08-32.17 4.95-48.27 7.23-22.16 3.14-44.23 6.92-66.45 9.52-17.47 2.05-35.09 2.73-52.65 4-1.12.09-2.27.02-3.66.02z"/><path d="m343.12 73.33c9.97 4.12 19.37 7.79 28.54 11.97 1.85.84 2.82 3.62 4.19 5.51-1.66 1.14-3.18 2.71-5.02 3.31-2.97.96-6.17 1.87-9.22 1.73-4.42-.2-5.46 2.29-6.62 5.68-7.78 22.68-18.28 43.82-35.79 61.45-1.61-1.18-3.4-2.51-5.46-4.03 15.56-26.39 24.36-54.85 29.38-85.62z"/><path d="m181.35 93.28c1.29-1.54 2.55-3.05 4.26-5.1 3.48 4.03 7 7.7 10.06 11.72 9.24 12.14 19.56 23.68 23.99 38.73 1.23 4.19 1.26 8.81 1.36 13.24.04 1.84-.86 3.94-1.92 5.52-2.78 4.14-7.78 3.67-9.56-.93-1.91-4.94-3.5-10.02-5.06-15.09-4.97-16.15-12.81-30.93-21.52-45.3-.52-.83-.99-1.69-1.61-2.79z"/><path d="m249.9 85.43c11.79 14.61 25.83 27.7 31.35 46.54 1.13 3.86.79 8.2.75 12.31-.02 1.53-.75 3.5-1.86 4.45-1.65 1.41-3.91 2.76-5.95 2.82-1.08.03-2.64-2.56-3.3-4.23-5.07-12.77-9.78-25.69-15.02-38.4-1.95-4.73-4.69-9.21-7.63-13.42-2.67-3.83-2.74-6.79 1.66-10.07z"/></g><path d="m377.9 391.2c-.2.3-.4.5-.6.8-.7-.6-1.4-1-2.2-1.5.2-.3.4-.5.5-.8.6.4 1.4.8 2.3 1.5zm-1.8 6.1c-.2-.2-.5-.4-.9-.6.4-.6.8-1.2 1.2-1.9s.7-1.3.9-1.9c.3.3.5.5.8.7-.7 1.3-1.4 2.6-2 3.7zm2.2-9c-.3.3-.5.5-.6.8-.6-.6-1.3-1.1-2-1.5.3-.3.5-.5.6-.7.6.5 1.3.9 2 1.4zm.3.2v-.9h2 4.5c-.3 1.3-.6 2.5-1 3.6s-.9 2.1-1.4 3c.4.5 1 1 1.6 1.4s1.2.8 1.9 1.1c-.3.2-.5.4-.8.8-.4-.3-1-.7-1.6-1.2s-1.2-1.1-1.6-1.6c-.5.6-1.1 1.1-1.7 1.6s-1.4.9-2.1 1.4c-.1-.3-.3-.5-.7-.8.6-.2 1.2-.5 1.9-1s1.4-1.1 2-1.8c-.5-.8-.9-1.6-1.2-2.5s-.6-2-.8-3.2c-.4.1-.7.1-1 .1zm2.5 2.7c.3 1 .7 1.7 1 2.2.3-.5.6-1.1 1-2s.6-1.9.9-3h-3.2-.4c.1.9 1.3 1.8.7 2.8z" fill="#fbfafa"/><path d="m396.5 388.5v1.5 3.6h1.5v.9c-.4 0-1 0-1.7 0h-7.9c-.5 0-.9 0-1.2 0v-.9h1.3v-3.5c0-.7 0-1.2 0-1.6h2.4c0-.8 0-1.4 0-1.7h1c0 .3-.1.8-.1 1.7h1.5c0-.8 0-1.4 0-1.7h1c0 .3-.1.9-.1 1.7zm-8.2 9.2c-.2-.3-.5-.5-.8-.8.8-.3 1.4-.6 1.9-.9s1-.7 1.4-1.1c.3.3.6.5.9.8-1.6 1-2.8 1.6-3.4 2zm2.6-6.8v-1.6h-1.5v1.6zm0 2.7v-1.9h-1.5v1.9zm2.4-2.7v-1.6h-1.5v1.6zm0 2.7v-1.9h-1.5v1.9zm.2 2 .7-.8c.4.2.9.5 1.6.8s1.3.7 1.8 1c-.3.3-.5.5-.8.8-.4-.3-1.5-1-3.3-1.8zm2-4.7v-1.6h-1.4v1.6zm0 2.7v-1.9h-1.4v1.9z" fill="#fbfafa"/></svg>