<svg enable-background="new 0 0 400 400" viewBox="0 0 400 400" xmlns="http://www.w3.org/2000/svg"><g fill="#010000"><path d="m223.69 367.09c-.78-.7-1.48-1.37-2.24-1.98-1.67-1.36-3.36-2.68-5.43-4.33 4.7-3.87 8.69-6.86 12.34-10.21 19.08-17.5 36.7-36.22 49.4-59.08 1.43-2.58 1.65-4.47.25-7.23-13.91-27.39-23.71-56.23-30.11-86.25-.34-1.57-.79-3.12-1.43-5.64-12.25 54.23-24.88 107.29-65.59 148.3-3.22-3.79-3.82-6.62-.99-10.51 25.18-34.75 38.6-74.35 46.92-115.9 5.88-29.34 9.77-58.98 11.14-88.91.07-1.62.01-3.25.01-4.53-11.4 0-22.5-.22-33.6.13-3.6.11-5.93-.17-7.24-3.95-1.24-3.56-3.1-6.92-4.53-10.03 15.28 1.19 30.42 2.38 46.99 3.67.7-25.48 1.38-49.89 2.08-75.55 9.16 2.66 19.09 5.48 28.96 8.51 1 .31 2.18 1.92 2.2 2.94.01.89-1.35 2.18-2.39 2.62-2.74 1.16-5.58 2.41-8.49 2.78-3.21.41-3.68 2.13-3.75 4.71-.35 12.81-.71 25.62-1.14 38.42-.15 4.63-.5 9.26-.8 14.51 1.77.09 3.36.24 4.94.24 20.5.02 40.99.1 61.48-.12 2.28-.02 5.1-1.31 6.7-2.96 5.2-5.36 9.96-11.15 15.36-17.32 9.14 7.22 18.24 14.15 27.01 21.49 3.2 2.68 1.71 7.38-2.38 8.5-1.88.52-3.94.57-5.92.57-33.99.03-67.98.02-101.98.02-1.82 0-3.64 0-5.81 0-.81 7.29-1.58 14.34-2.37 21.38-.71 6.27-1.04 12.62-2.25 18.8-1.69 8.62.02 16.77 1.95 25.05 5.18 22.19 11.55 44 20.66 64.91 3.5 8.04 7.99 15.65 12.71 24.76 9.63-20.73 17.19-40.74 23.17-61.29 6.03-20.7 10.98-41.68 12.31-64.63 8.5 2.93 16.41 5.58 24.25 8.43 2.48.9 4.92 2.09 7.13 3.53 3.88 2.53 3.6 6.64-.67 8.47-3.33 1.43-6.89 2.44-10.44 3.22-2.63.58-3.74 1.73-4.34 4.45-6.04 27.29-14.35 53.88-25.61 79.49-4.21 9.58-8.74 19.04-13.47 28.37-1.42 2.81-1.3 4.62.6 7.04 18.47 23.48 40.84 41.85 68.81 52.92 3.55 1.4 6.45 2.91 4.56 7.84-7.6 1.33-14.71 4.14-19.93 12.45-11.93-9.6-24.18-18.3-35.02-28.49-10.71-10.07-20-21.64-30.27-32.94-16.78 24.33-37.62 46.38-63.74 63.33z"/><path d="m105.65 109.82c0-14.46 0-28.37 0-42.36-21.08 2.02-42 4.03-63.41 6.08-.65-2.68-1.16-4.82-1.73-7.17 41.02-4.94 81.02-11.64 117.03-34.98 6.61 4.69 14.12 9.87 21.43 15.33 1.17.88 2.22 3.26 1.84 4.5-.37 1.24-2.83 2.94-3.98 2.68-15.57-3.45-29.15 4.64-43.65 7.27-3.24.59-6.41 1.57-9.89 2.44v46.19c8.85 0 17.47.09 26.08-.11 1.21-.03 2.58-1.28 3.54-2.29 4.23-4.44 8.33-9 12.68-13.73 7.33 5.64 14.59 10.95 21.47 16.71 1.5 1.26 2.87 4.84 2.14 6.07-1.06 1.79-4.07 3.36-6.27 3.39-17.66.27-35.33.15-53 .15-2.13 0-4.27 0-6.4 0-1.41 5.24-.07 8.08 4.57 11.1 17.25 11.25 34.21 22.99 50.83 35.15 6.15 4.5 10.03 11.37 9.03 19.5-.34 2.73-2.31 6.71-4.41 7.38-2.44.78-6.91-.52-8.65-2.52-6.86-7.9-12.73-16.65-19.45-24.68-9.2-10.98-19.97-20.33-32.19-29.27-.11 2.37-.25 3.94-.25 5.52-.01 18.83 0 37.67-.01 56.5 0 7.53-6.09 12.91-13.3 11.05-1.65-.43-3.54-3.85-3.59-5.93-.34-12.49-.17-25-.17-37.49 0-9.8 0-19.59 0-28.79-10.9 11.84-21.18 24.66-33.18 35.58-12.09 11-25.89 20.12-39.17 30.23-2.11-2.69-3.31-4.22-4.68-5.97 27.24-20.9 51.28-44.42 65.29-76.7-17.3 0-34.05-.28-50.77.19-4.44.13-7.2-.11-8.64-4.74-1.02-3.27-2.75-6.32-4.5-10.23 25.35 5.32 50.24 3.7 75.36 3.95z"/><path d="m155 334.23c-27.88 0-55.13 0-82.94 0 0 4.66.04 9.11-.01 13.56-.07 5.83-10.4 11.76-15.13 8.43-1.32-.93-1.9-3.68-1.91-5.6-.11-39.98-.08-79.96-.08-119.95 0-6.82 0-13.64 0-21.48 5.77 3.04 10.8 6.09 16.17 8.36 3.69 1.57 7.82 2.84 11.77 2.9 21.49.28 42.98-.04 64.47.26 4.85.07 8.23-1.21 10.95-5.13 1.59-2.29 3.68-4.23 6.08-6.93 5.32 3.98 10.56 7.71 15.58 11.72 3.29 2.63 4.17 6.29.05 8.45-8.36 4.4-7.97 11.58-7.91 19.36.24 30.15.1 60.31.09 90.46 0 6.75-5.3 11.72-12.14 11.3-3.19-.2-5.31-1.54-5.07-5.31.2-3.3.03-6.63.03-10.4zm-.28-10.45c0-14.3 0-28.19 0-42.24-27.61 0-54.94 0-82.37 0v42.24zm-82.27-93.05v40.55h82.19c0-13.7 0-27.08 0-40.55-27.61 0-54.87 0-82.19 0z"/><path d="m291.75 43.97c1.41-4.84 3.73-5.56 8.39-3.25 12.78 6.36 24.58 13.95 34.59 24.2 4.11 4.2 6.81 8.98 6.46 15.12-.24 4.2-.16 8.64-5.24 10.14-4.38 1.29-7.31-1.06-10.58-6.29-5.27-8.42-10.47-16.99-16.75-24.65-4.68-5.71-11-10.06-16.87-15.27z"/></g><path d="m377.9 391.2c-.2.3-.4.5-.6.8-.7-.6-1.4-1-2.2-1.5.2-.3.4-.5.5-.8.6.4 1.4.8 2.3 1.5zm-1.8 6.1c-.2-.2-.5-.4-.9-.6.4-.6.8-1.2 1.2-1.9s.7-1.3.9-1.9c.3.3.5.5.8.7-.7 1.3-1.4 2.6-2 3.7zm2.2-9c-.3.3-.5.5-.6.8-.6-.6-1.3-1.1-2-1.5.3-.3.5-.5.6-.7.6.5 1.3.9 2 1.4zm.3.2v-.9h2 4.5c-.3 1.3-.6 2.5-1 3.6s-.9 2.1-1.4 3c.4.5 1 1 1.6 1.4s1.2.8 1.9 1.1c-.3.2-.5.4-.8.8-.4-.3-1-.7-1.6-1.2s-1.2-1.1-1.6-1.6c-.5.6-1.1 1.1-1.7 1.6s-1.4.9-2.1 1.4c-.1-.3-.3-.5-.7-.8.6-.2 1.2-.5 1.9-1s1.4-1.1 2-1.8c-.5-.8-.9-1.6-1.2-2.5s-.6-2-.8-3.2c-.4.1-.7.1-1 .1zm2.5 2.7c.3 1 .7 1.7 1 2.2.3-.5.6-1.1 1-2s.6-1.9.9-3h-3.2-.4c.1.9 1.3 1.8.7 2.8z" fill="#fbfafa"/><path d="m396.5 388.5v1.5 3.6h1.5v.9c-.4 0-1 0-1.7 0h-7.9c-.5 0-.9 0-1.2 0v-.9h1.3v-3.5c0-.7 0-1.2 0-1.6h2.4c0-.8 0-1.4 0-1.7h1c0 .3-.1.8-.1 1.7h1.5c0-.8 0-1.4 0-1.7h1c0 .3-.1.9-.1 1.7zm-8.2 9.2c-.2-.3-.5-.5-.8-.8.8-.3 1.4-.6 1.9-.9s1-.7 1.4-1.1c.3.3.6.5.9.8-1.6 1-2.8 1.6-3.4 2zm2.6-6.8v-1.6h-1.5v1.6zm0 2.7v-1.9h-1.5v1.9zm2.4-2.7v-1.6h-1.5v1.6zm0 2.7v-1.9h-1.5v1.9zm.2 2 .7-.8c.4.2.9.5 1.6.8s1.3.7 1.8 1c-.3.3-.5.5-.8.8-.4-.3-1.5-1-3.3-1.8zm2-4.7v-1.6h-1.4v1.6zm0 2.7v-1.9h-1.4v1.9z" fill="#fbfafa"/></svg>