<svg enable-background="new 0 0 400 400" viewBox="0 0 400 400" xmlns="http://www.w3.org/2000/svg"><path d="m37.56 313.17c-1.55-3.35-3.7-7.98-5.49-11.83 23.65 1.12 47.3 2.23 72.02 3.4-1.03-36.47 1.55-71.75-1.76-107.65 5.73 4.14 11.04 8.07 16.47 11.84 1.28.89 3.02 1.84 4.44 1.7 46.1-4.73 92.09-10.14 136.73-23.38 4.92-1.46 9.8-3.22 14.4-5.46 3.19-1.55 5.79-1.66 8.78.09 9.03 5.28 18.24 10.29 27.1 15.85 1.52.95 2.93 5.06 2.2 5.99-1.33 1.69-5.14 3.56-6.45 2.8-11.77-6.8-23.7-2.36-35.54-1.08-16.68 1.79-33.31 4.09-50 5.68-23 2.19-46.04 4.02-69.09 5.79-8.95.69-17.95 1.01-26.92 1.08-3.28.03-4.76 1.29-4.83 4.18-.16 6.12-.05 12.24-.05 18.8h5.88c57.16 0 114.32-.04 171.49.09 3.68.01 6.22-.98 8.56-3.78 3.83-4.59 8.02-8.88 12.59-13.87 8.53 6.33 17.13 12.51 25.42 19.1 1.21.96 1.63 4.11 1.03 5.74-.43 1.18-3.16 2.11-4.87 2.12-21.16.14-42.33.09-63.49.09-1.98 0-3.95 0-6.33 0v53.4c17.62 0 34.93.07 52.23-.13 1.45-.02 3.14-1.62 4.27-2.89 5.07-5.71 9.98-11.57 15.22-17.7 9.19 7.38 18.19 14.48 26.97 21.84 1.08.9 1.67 3.43 1.23 4.82-.44 1.38-2.29 2.7-3.81 3.23-1.65.57-3.62.2-5.45.2-96.49 0-192.98 0-289.48 0-10.81-.06-21.6-.06-33.47-.06zm214.59-9.6c0-17.77 0-35.27 0-52.69-44.44 0-88.43 0-132.32 0v52.69z" fill="#010100"/><path d="m84.75 136h41.47c19.66 0 39.33.12 58.99-.15 2.61-.04 5.65-1.5 7.68-3.25 3.88-3.33 7.18-7.34 10.91-11.28 7.02 5.47 13.57 10.31 19.73 15.58 1.35 1.16 2.31 4.3 1.69 5.8-.64 1.55-3.41 3.11-5.27 3.14-13.83.26-27.66.14-41.49.14-.66 0-1.32 0-3.28 0 3.39 2.55 5.99 4.32 8.38 6.35 7.11 6.04 14.62 11.91 18.23 20.83 1.48 3.65 1.73 8.02 1.6 12.03-.12 3.66-2.21 6.49-6.49 6.98-4.41.51-6.33-2.23-7.77-5.59-1.83-4.27-3.51-8.61-5.25-12.93-1.06-2.61-2.34-3.44-5.65-2.83-33.95 6.23-67.96 12.13-101.95 18.11-.82.14-1.66.11-2.49.16-8.77.55-17.91.5-19.31 12.52-.1.83-1.12 1.55-2.54 3.42-5.72-10.05-11.08-19.48-16.11-28.32 3.52-2.32 6.79-3.83 9.23-6.2 7.72-7.5 15.14-15.31 23.59-23.95-10.57 0-19.45-.4-28.27.12-8.1.48-8.07.92-11.24-6.51-1.04-2.44-2.08-4.88-3.03-7.11 14.07 1.23 28.11 2.45 43.04 3.75-1.17-35.95 1.62-70.68-1.98-106.18 5.63 4.09 10.75 8.21 16.28 11.66 2.77 1.73 6.3 3.11 9.51 3.14 25.16.25 50.33.08 75.49.21 3.6.02 6.36-.74 8.75-3.58 3.3-3.92 6.94-7.57 10.59-11.51 7.07 5.69 13.4 10.54 19.39 15.79 1.43 1.26 2.84 4.42 2.2 5.68-.84 1.66-3.69 3.21-5.68 3.22-24.5.22-48.99.14-73.49.14-14.98 0-29.95 0-45.36 0v20.59h5.41c22 0 44-.12 65.99.1 4.38.04 7.6-1.08 10.36-4.43 2.42-2.94 5.21-5.58 8.21-8.74 6.76 5.37 13.23 10.25 19.32 15.57 1.05.92 1.23 4.04.49 5.46-.63 1.21-3.15 2.01-4.84 2.02-32.83.11-65.66.08-98.49.08-1.99 0-3.98 0-6.42 0v19.29c1.86.08 3.64.23 5.41.23 22.16.02 44.33-.06 66.49.08 3.78.02 6.56-.81 9.02-3.92 2.65-3.35 6-6.13 9.37-9.47 6.32 5.03 12.56 9.72 18.39 14.87 1.21 1.07 1.63 4.06 1.08 5.73-.38 1.16-3.05 2.2-4.69 2.2-33 .13-65.99.09-98.99.1-1.96 0-3.92 0-6.2 0-.01 7.12-.01 13.69-.01 20.86zm-26.68 37.24c.05.5.09 1 .14 1.5 39.53-3.59 79.06-7.18 118.59-10.78.18-.57.35-1.13.53-1.7-4.19-4.64-8.31-9.35-12.62-13.88-1.04-1.1-2.71-2.27-4.09-2.28-22.98-.14-45.96-.13-68.94-.04-1.5.01-3.35.5-4.45 1.45-9.8 8.49-19.46 17.13-29.16 25.73z" fill="#010100"/><path d="m228.15 171.35c11.24-2.98 21.58-5.32 31.67-8.46 30.94-9.64 60.59-21.99 86.34-42.29 1.22-.96 3.49-1.61 4.88-1.17 7.12 2.24 14.17 4.74 21.11 7.51 1.56.62 3.72 2.89 3.51 4.03-.3 1.68-2.22 3.5-3.91 4.38-1.98 1.04-4.51 1.75-6.7 1.55-6.55-.61-11.85 2.31-17.42 5-35.34 17.06-72.27 29.13-111.04 35.56-5.64.94-5.18-3.81-8.44-6.11z" fill="#010100"/><path d="m239.09 125.25c13.84-5.1 27.5-10.12 41.16-15.16 22.32-8.24 41.61-21.39 59.39-36.91 2.36-2.06 4.24-2.53 7.1-1.45 6.35 2.41 12.91 4.31 19.19 6.89 1.75.72 4.05 3.25 3.88 4.68-.2 1.63-2.68 3.36-4.55 4.3-1.86.94-4.25 1.53-6.28 1.26-6.34-.84-11.06 2.48-16.1 5.36-29.61 16.95-60.9 29.45-94.43 36.35-5.92 1.23-6.96-2.79-9.36-5.32z" fill="#010100"/><path d="m228.79 80.39c23.4-5.5 45.82-13.67 66.45-25.95 10.95-6.52 20.96-14.64 31.22-22.27 2.36-1.75 4.16-2.62 7.12-1.43 6.15 2.48 12.57 4.28 18.66 6.88 1.93.82 3.14 3.31 4.68 5.03-1.86 1.45-3.57 3.19-5.63 4.25-1.55.8-3.6 1.2-5.33 1-6.06-.71-10.77 2.11-15.76 4.91-28.44 15.95-58.61 27.31-90.61 33.74-6.72 1.34-7.66.89-10.8-6.16z" fill="#010100"/><path d="m42.13 361.9c11.43-3.36 22.78-6.32 33.88-10.04 17.59-5.9 35.44-11.31 51.31-21.32 4.62-2.91 8.92-6.39 13.11-9.91 1.93-1.62 3.24-2.26 5.56-.71 6.07 4.07 12.4 7.74 18.41 11.9 1.56 1.08 2.28 3.35 3.39 5.07-1.62.96-3.26 2.8-4.85 2.75-19.5-.64-35.61 10.82-53.8 14.83-19.25 4.24-38.4 8.95-57.56 13.6-5.27 1.27-8.13-.73-9.45-6.17z" fill="#010100"/><path d="m240.11 330.85c1.58-5.55 4.57-6.84 9.74-6.04 30.82 4.79 61.51 10.1 90.83 21.15 5.03 1.9 9.74 4.97 14.14 8.12 3.87 2.77 4.52 7.85 2.29 11.6-2.53 4.23-6.44 3.83-10.08 2.29-7.94-3.37-15.47-7.86-23.6-10.58-26.23-8.74-52.65-16.89-79.01-25.26-1.41-.46-2.83-.85-4.31-1.28z" fill="#010100"/><g fill="#fafafb"><path d="m342.2 3.2-6.3 9.2h6.1v1.2h-8.2v-.5l6.2-9.1h-5.7v-1.2h7.8v.4z"/><path d="m344 13.7v-10.9h3.1c1.6 0 3 .5 4.1 1.4 1.1 1 1.6 2.2 1.6 3.9s-.5 3-1.6 4-2.5 1.5-4.2 1.5h-3zm1.4-9.6v8.4h1.6c1.4 0 2.5-.4 3.2-1.1.8-.8 1.2-1.8 1.2-3.2s-.4-2.4-1.2-3.1-1.8-1-3.1-1z"/><path d="m356.3 2.8v10.9h-1.4v-10.9z"/><path d="m366.6 13.2c-.8.4-1.8.6-3 .6-1.6 0-2.8-.5-3.7-1.5s-1.4-2.3-1.4-3.9c0-1.7.5-3.2 1.6-4.2s2.4-1.6 4-1.6c1 0 1.9.1 2.6.4v1.5c-.8-.4-1.6-.6-2.6-.6-1.2 0-2.2.4-3 1.2s-1.1 1.9-1.1 3.3c0 1.3.4 2.3 1.1 3.1s1.6 1.1 2.8 1.1c1.1 0 2-.2 2.8-.7v1.3z"/><path d="m368.2 13c0-.3.1-.5.3-.6.2-.2.4-.3.6-.3.3 0 .5.1.7.3s.3.4.3.6-.1.5-.3.6c-.2.2-.4.3-.7.3-.3 1-.5-.1-.6-.3-.2-.2-.3-.4-.3-.6z"/><path d="m381.1 13.7h-1.7l-5.5-8.4c-.2-.2-.3-.5-.4-.7 0 .2.1.8.1 1.5v7.6h-1.4v-10.9h1.8l5.3 8.3c.3.4.4.6.4.8 0-.3-.1-.8-.1-1.6v-7.5h1.4v10.9z"/><path d="m389.7 13.7h-5.8v-10.9h5.6v1.2h-4.2v3.5h3.9v1.2h-3.9v3.7h4.4z"/><path d="m398.4 4.1h-3.1v9.6h-1.4v-9.6h-3.1v-1.3h7.7v1.3z"/></g></svg>