<svg enable-background="new 0 0 400 400" viewBox="0 0 400 400" xmlns="http://www.w3.org/2000/svg"><g fill="#010100"><path d="m141.84 255.27c-26.25 0-51.69 0-77.36 0-.15.77-.36 1.38-.38 1.99-.28 7.63-5.83 12.24-13.5 10.59-1.49-.32-3.4-3.06-3.5-4.77-.39-7.31-.17-14.65-.17-21.98 0-35.15 0-70.29 0-105.44 0-1.79 0-3.59 0-6.39-6.06 5.84-11.45 11.05-16.89 16.29-5.13-6.62-5.13-6.62-.38-11.91 26.05-29.03 40.17-63.75 48.27-101.34.24-1.14.49-2.27.78-3.4.16-.61.42-1.2.94-2.64 9.78 2.96 19.47 5.72 29.01 8.93 1.85.62 3.09 3.01 4.62 4.59-1.81 1.22-3.46 2.95-5.45 3.55-3.14.95-6.53 1.63-9.79 1.53-3.85-.12-5.62 1.25-6.6 4.91-1.14 4.28-2.91 8.39-4.61 13.14 11.91 0 23.2.09 34.48-.11 1.34-.02 2.87-1.39 3.94-2.49 2.64-2.72 5.07-5.65 8.09-9.08 7.09 6.09 13.87 11.91 20.64 17.73 3.06 2.63 1.99 4.73-1.16 5.87-3.57 1.29-7.41 1.84-11 3.12-1.68.6-3.5 1.83-4.43 3.3-9.29 14.57-18.41 29.24-27.56 43.9-.24.38-.35.83-.75 1.83 10.12 0 19.87.1 29.61-.12 1.34-.03 2.83-1.46 3.92-2.57 2.67-2.71 5.15-5.6 8.12-8.87 5.25 3.9 10.49 7.43 15.31 11.46 4.26 3.56 4.55 6.4-.12 9.14-6.8 3.99-7.09 9.53-7.04 16.28.24 34.15.11 68.29.11 102.44 0 8.11-6.1 13.19-14.07 11.4-1.23-.28-2.65-2.18-2.96-3.56-.49-2.18-.12-4.56-.12-7.32zm-18.76-182.2c-13.18 0-25.82-.09-38.46.14-1.22.02-2.75 1.82-3.56 3.15-8.68 14.14-17.25 28.36-25.85 42.55-.62 1.02-1.19 2.06-1.7 2.93 5.49 4.28 11.22 5.64 17.67 5.24 6.14-.39 12.41-.71 18.47.07 7.82 1.02 11.94-2.14 15.39-8.9 7.34-14.38 13.66-29.08 18.04-45.18zm-28.54 172.17c0-17.2 0-34.05 0-50.84-10.29 0-20.18 0-30.27 0v50.84zm17.79-.04h29.2c0-17.13 0-33.86 0-50.86-9.84 0-19.39 0-29.2 0zm-17.73-61.47c0-15.66 0-30.87 0-46.54-9.27 0-18.23-.12-27.17.15-1.14.04-3.16 2.15-3.18 3.33-.22 14.26-.14 28.53-.14 43.06zm46.97-46.28c-10.05 0-19.49 0-29.1 0v46.13h29.1c0-15.53 0-30.64 0-46.13z"/><path d="m191.58 89.99c4.34-1.35 3.53 1.85 3.58 4.19.06 2.49.01 4.98.01 7.94h60.11c0-11.09 0-22 0-33.44-1.89-.09-3.66-.3-5.43-.25-19.62.5-39.25 1.06-58.87 1.47-1.19.03-3.03-.77-3.51-1.72-2.08-4.11-3.76-8.41-5.56-12.57 45.17 6.28 90.3 2.16 135.3 3.2 2.15.05 4.78-1.19 6.44-2.67 4.47-3.98 8.53-8.41 13.25-13.16 7.89 5.99 15.8 11.7 23.33 17.88 2.75 2.25.68 6.95-2.96 7.46-1.47.21-2.99.08-4.49.08-24.5 0-48.99 0-73.49 0-1.99 0-3.97 0-6.42 0v33.93c1.79.08 3.56.24 5.34.24 17.83.02 35.67-.24 53.49.15 6.07.13 10.31-1.45 13.92-6.44 4.07-5.61 4.51-5.49 9.89-1.32 5.26 4.08 10.41 8.31 15.38 12.74 3.25 2.9 2.84 5.71-1.42 6.32-11.38 1.64-18.93 8.89-26.53 16.36-1.3 1.28-2.79 2.36-4.51 3.79-1.82-1.39-3.62-2.76-5.35-4.09 2.42-5.9 4.73-11.5 7.25-17.63-22.94 0-45.02 0-67.64 0-.09 1.79-.26 3.56-.26 5.34-.02 23.33-.14 46.66.06 69.99.06 7.12 1.31 14.23 1.5 21.36.17 6.6-3.53 10.34-9.84 10.89-7.83.69-10.32-1.5-10.19-9.36.51-30.62 1.09-61.25 1.63-91.87.04-1.97 0-3.94 0-6.27-20.37 0-40.25 0-59.86 0-1.62 9.52-2.85 18.89-4.95 28.06-.94 4.09-3.32 7.96-5.65 11.55-1.12 1.73-3.63 3.59-5.5 3.58-2.73-.02-6.62-.93-7.81-2.84-1.1-1.76-.08-5.88 1.38-8.02 7.47-10.97 13.81-22.4 16.13-35.61 1.08-6.17 1.48-12.49 2.25-19.26z"/><path d="m328.81 222.51c6.71 6.12 12.97 11.71 19.09 17.45 2.82 2.65 2.21 5.24-.82 7.41-1.76 1.26-3.35 2.93-5.29 3.72-5.89 2.39-7.12 6.68-6.73 12.6.5 7.62.12 15.29.12 23.8 10.14-.04 12.43-10.41 19.92-13.91 6.08 4.83 12.58 9.75 18.73 15.07 1.27 1.1 2.09 4.04 1.53 5.53-.53 1.41-3.14 2.83-4.86 2.86-11.48.25-22.97.13-35.05.13-.1 2.03-.26 3.78-.26 5.54-.02 11.16.11 22.33-.08 33.49-.06 3.34.68 5.8 3.77 7.35 2.95 1.48 4.48 4.23 2.83 6.93-.93 1.52-4.02 2.41-6.15 2.42-39.33.2-78.65.22-117.98.28-1.33 0-2.66.05-3.99.12-13.28.76-14.77-.37-18.22-13.71 41 6.2 82.3 1.76 123.85 3.53 0-15.57 0-30.46 0-45.66-1.65-.11-3.1-.28-4.55-.28-36.33.06-72.65.11-108.98.26-6.15.03-12.3.7-18.44.68-1.51-.01-3.64-1.22-4.39-2.51-2.05-3.51-3.52-7.36-5.52-11.74 5.73.82 10.6 1.66 15.49 2.19 5.94.64 11.91 1.44 17.86 1.46 34.99.14 69.99.07 104.98.06.99 0 1.98-.13 3.44-.23 0-12.59 0-25.12 0-37.75-.46-.16-.9-.46-1.35-.46-35.16.07-70.31.17-105.47.26-.17 0-.33 0-.5.01-12.49.65-12.49.65-16.91-12.39 2.94.32 5.59.79 8.25.88 19.29.61 38.58 1.33 57.87 1.64 16.83.27 33.66-.04 50.49.14 3.54.04 5.89-.88 7.81-3.94 2.56-4.08 5.59-7.84 9.51-13.23z"/><path d="m57.99 288.13c-1.54 13.5-2.88 26.66-4.6 39.77-1.39 10.62-3.96 20.97-10.84 29.56-2.78 3.48-5.86 6.89-11.39 4.94-5.54-1.95-7.57-6.72-4.39-11.74 2.67-4.21 5.61-8.24 8.31-12.43 8.55-13.24 11.38-28.21 12.75-43.54.68-7.64.47-7.66 10.16-6.56z"/><path d="m284.86 179.64c.3-1.37.75-3.4 1.3-5.91 17.79 2.03 35.23 4.11 50.74 13.41 6.76 4.05 11.13 10.1 11.12 18.28 0 2.29-1.34 5.92-2.97 6.52-2.01.74-5.31-.46-7.42-1.81-8.8-5.65-17.08-12.13-26.08-17.4-8.25-4.83-17.19-8.49-26.69-13.09z"/><path d="m180.68 188.27c23.65.17 44.55-5.72 64.9-13.96 1.76 3.6.59 5.75-2.26 7.36-11.38 6.46-22.56 13.31-34.22 19.23-4.58 2.33-7.83 4.93-9.75 9.64-.73 1.8-2.61 3.12-3.97 4.67-1.22-1.48-2.74-2.81-3.6-4.48-3.55-6.9-6.9-13.9-11.1-22.46z"/><path d="m73.76 287.58c1.84-.53 3.24-.93 4.93-1.41 7.44 12.05 11.95 25.16 13.29 39.19.69 7.2.28 14.53-.02 21.79-.07 1.78-1.24 4.32-2.66 5.07-2.71 1.43-6.06 2.62-8.94 2.25-1.19-.15-2.56-4.56-2.6-7.05-.19-11.25.49-22.53.01-33.77-.3-7.08-2.11-14.1-3.23-21.14-.25-1.58-.5-3.17-.78-4.93z"/><path d="m110.14 280.86c6.58 11.31 12.91 21.78 18.81 32.5 3.63 6.59 4.08 13.95 3.17 21.32-.26 2.08-.67 4.67-2.03 5.95-2.1 1.98-5.08 3.02-7.68 4.46-1.02-2.07-2.7-4.07-2.97-6.23-2.18-17.56-6.85-34.4-14.17-50.5-2.09-4.6 2.54-4.34 4.87-7.5z"/><path d="m137.67 279.81c1.24-1.28 2.36-2.45 3.81-3.95 10.42 10.68 20.71 20.68 27.3 33.56 3.04 5.95 4.3 12.58 2.29 19.37-1.03 3.46-2.94 6.1-6.79 6.3-4.01.22-4.87-3.02-5.39-5.97-3.19-17.94-10.84-33.98-21.22-49.31z"/><path d="m287.39 167.15c-3.41-4.7-2.57-6.54 1.31-8.34 12.71-5.9 24.15-13.45 31.04-27.48 8.05 4.96 15.94 9.76 23.72 14.74.89.57 1.79 2.53 1.45 3.25-.53 1.11-2.1 1.77-3.32 2.48-.32.19-1.01-.04-1.41-.27-8.64-4.94-15.4-.37-22.97 3.53-9.5 4.9-19.85 8.14-29.82 12.09z"/><path d="m199.16 134.48c14.42 1.66 27.58 2.41 38.53 10.93 4.04 3.15 6.11 7.42 5.48 12.67-.58 4.82-4.33 6.68-8.12 3.79-10.61-8.1-21.5-15.61-34.27-20.1-1.1-.38-.99-4.19-1.62-7.29z"/></g><path d="m342.2 3.2-6.3 9.2h6.1v1.2h-8.2v-.5l6.2-9.1h-5.7v-1.2h7.8v.4z" fill="#fafafb"/><path d="m344 13.7v-10.9h3.1c1.6 0 3 .5 4.1 1.4 1.1 1 1.6 2.2 1.6 3.9s-.5 3-1.6 4-2.5 1.5-4.2 1.5h-3zm1.4-9.6v8.4h1.6c1.4 0 2.5-.4 3.2-1.1.8-.8 1.2-1.8 1.2-3.2s-.4-2.4-1.2-3.1-1.8-1-3.1-1z" fill="#fafafb"/><path d="m356.3 2.8v10.9h-1.4v-10.9z" fill="#fafafb"/><path d="m366.6 13.2c-.8.4-1.8.6-3 .6-1.6 0-2.8-.5-3.7-1.5s-1.4-2.3-1.4-3.9c0-1.7.5-3.2 1.6-4.2s2.4-1.6 4-1.6c1 0 1.9.1 2.6.4v1.5c-.8-.4-1.6-.6-2.6-.6-1.2 0-2.2.4-3 1.2s-1.1 1.9-1.1 3.3c0 1.3.4 2.3 1.1 3.1s1.6 1.1 2.8 1.1c1.1 0 2-.2 2.8-.7v1.3z" fill="#fafafb"/><path d="m368.2 13c0-.3.1-.5.3-.6.2-.2.4-.3.6-.3.3 0 .5.1.7.3s.3.4.3.6-.1.5-.3.6c-.2.2-.4.3-.7.3-.3 1-.5-.1-.6-.3-.2-.2-.3-.4-.3-.6z" fill="#fafafb"/><path d="m381.1 13.7h-1.7l-5.5-8.4c-.2-.2-.3-.5-.4-.7 0 .2.1.8.1 1.5v7.6h-1.4v-10.9h1.8l5.3 8.3c.3.4.4.6.4.8 0-.3-.1-.8-.1-1.6v-7.5h1.4v10.9z" fill="#fafafb"/><path d="m389.7 13.7h-5.8v-10.9h5.6v1.2h-4.2v3.5h3.9v1.2h-3.9v3.7h4.4z" fill="#fafafb"/><path d="m398.4 4.1h-3.1v9.6h-1.4v-9.6h-3.1v-1.3h7.7v1.3z" fill="#fafafb"/></svg>