<svg enable-background="new 0 0 400 400" viewBox="0 0 400 400" xmlns="http://www.w3.org/2000/svg"><path d="m66.93 294.79c-7.76 22.83-19.22 43.09-37.71 59.37-1.45-.88-2.79-1.7-4.34-2.63 19.34-24.51 27.9-52.95 30.91-83.13 2.49-24.95 3.89-50.03 5.07-75.09.7-14.75.05-29.57-.07-44.36-.02-2.58-.4-5.15-.66-8.22-9.09 7.34-17.57 14.19-26.44 21.35-2.63-3.08-4.85-5.66-6.53-7.63 10.2-10.02 20.66-19.12 29.73-29.44 20.19-22.99 37.5-47.95 47.49-77.29 2.03-5.97 3.96-12.01 5.25-18.16.7-3.34 1.99-4.28 4.97-3.5 8.98 2.33 18.01 4.51 26.88 7.21 2.01.61 3.45 3.08 5.15 4.7-1.88 1.63-3.51 4.02-5.69 4.73-4.23 1.36-8.76 1.78-14.16 2.77 1.83 1.38 3.21 2.32 4.49 3.38 17.52 14.55 35.09 29.05 52.52 43.72 6.78 5.71 11.09 13.22 13.88 21.54.93 2.78 1.25 5.83 1.44 8.79.23 3.57-1 6.81-4.69 7.96-3.62 1.13-7.12.13-9.31-3.09-4.02-5.9-8.01-11.85-11.54-18.05-13.16-23.17-30.72-42.48-51.77-59.78-7.63 22.11-20.21 40.98-34.46 59.97 4.37.69 8 1.5 11.67 1.8 6.79.54 13.61 1.04 20.41.99 2.3-.02 5.08-1.25 6.78-2.85 4.23-3.97 7.96-8.47 12.25-13.14 7.61 5.83 15.19 11.44 22.49 17.4 1.13.92 1.84 3.81 1.22 5.03-.73 1.45-3.08 2.9-4.76 2.93-15.16.3-30.32.18-45.48.41-8.13.12-16.25.7-24.51 1.08-1.3-2.53-2.58-5.01-4.03-7.8-6.69 7.19-13.18 14.17-19.93 21.44 8.51 5.54 15.98 11.56 27.39 10.95 19.11-1.03 38.31-.49 57.47-.15 5.51.1 9.27-1.42 12.66-5.79 4.91-6.3 5.23-6.14 11.95-1.58 3.16 2.15 6.25 4.43 9.14 6.92 3.23 2.79 3.89 6.53-.13 8.63-8.43 4.39-7.94 11.64-7.85 19.36.25 19.83.09 39.66.08 59.49 0 7.58-5.83 12.62-13.35 11.08-1.49-.31-3.18-2.48-3.67-4.13-.63-2.13-.15-4.59-.15-7.22-26.94 0-53.55 0-80.84 0-.67 6.23-.6 12.79-2.22 18.89-2.19 8.22 1.16 11.9 8.28 14.78 4.54 1.84 8.79 3.34 13.79 3.28 18.16-.21 36.33-.29 54.48.05 4.86.09 8.21-1.32 11.05-5.02 1.71-2.23 3.79-4.18 6.33-6.94 5.34 3.97 10.73 7.75 15.84 11.88 3.52 2.84 3.33 6.69-.46 8.62-7.76 3.95-7.56 10.4-7.35 17.55.35 11.65.34 23.33-.03 34.99-.14 4.52 1.48 7.35 4.7 10.15 1.4 1.22 2.41 3.92 2.09 5.67-.2 1.11-3.18 2.44-4.92 2.44-28.99.15-57.99.11-86.98.11-1.98 0-3.96 0-6.09 0-.25.9-.54 1.5-.57 2.1-.46 9.25-1.18 10.13-10.17 12.21-5.19 1.21-6.99-.2-7-5.74-.03-19.83-.01-39.66-.01-59.49.02-1.85.02-3.68.02-5.5zm91.66-13.19c-25.15 0-49.71 0-74.14 0v59.01h74.14c0-19.84 0-39.29 0-59.01zm-80.32-85.85c-.49 9.84-.96 19.35-1.44 28.84h79.93c0-9.76 0-19.18 0-28.84-26.25 0-52.28 0-78.49 0zm0-38.32v27.82h78.44c0-9.4 0-18.49 0-27.82-26.2 0-52.11 0-78.44 0z" fill="#010100"/><path d="m346.17 249.07c-3.33 0-4.95 0-6.57 0-34.33 0-68.65-.09-102.98.12-4 .02-7.98 1.78-11.99 2.65-5.48 1.19-7.6-.39-7.6-5.91-.03-61.99-.01-123.98 0-185.97 0-.49.1-.99.25-2.3 6.07 3.23 11.8 6.41 17.66 9.36 6.33 3.18 11.31 4.04 14.05-4.33 3.03-9.25 5.38-18.72 7.9-28.13.64-2.37.8-4.87 1.35-8.32 9.67 3.09 18.98 5.88 28.12 9.13 1.86.66 3.09 3.08 4.61 4.7-1.74 1.07-3.46 2.16-5.23 3.18-.56.32-1.28.65-1.89.59-9.74-.97-14.79 4.9-19.18 12.43-2.48 4.26-6.09 7.86-9.5 12.15 1.28.2 2.3.49 3.33.5 20.5.03 40.99.09 61.49-.1 1.98-.02 4.32-1.28 5.85-2.67 2.79-2.54 5.09-5.62 7.98-8.91 5.24 3.8 10.39 7.17 15.1 11.05 4.42 3.64 4.7 6.78.09 9.65-6.37 3.96-7.02 9.25-6.94 15.9.31 23.83.02 47.66.19 71.48.04 5.34-2.04 8.34-7.05 9.93-7.81 2.47-9.86 1.3-10.56-6.93-29.9 0-59.83 0-90.17 0v31.37c1.37.1 2.8.28 4.24.28 30.83.02 61.66.08 92.48-.12 2.44-.02 5.32-1.45 7.2-3.11 4.22-3.74 7.94-8.05 12.44-12.72 7.94 6.07 15.64 11.76 23.04 17.84 1.11.91 1.38 3.84.84 5.43-.41 1.24-2.59 2.12-4.16 2.67-1.18.42-2.64.09-3.97.09-41.99 0-83.98 0-125.98 0-1.97 0-3.93 0-6.22 0v29.24c1.51.09 3.11.27 4.71.27 32.99.02 65.99.08 98.98-.11 2.51-.01 5.32-1.38 7.45-2.89 3.51-2.48 6.57-5.6 10.46-9 6.03 4.51 12.32 8.83 18.13 13.7 3.94 3.3 3.54 5.19-.54 8.23-.93.69-1.88 1.6-2.95 1.82-8.63 1.78-8.99 8.38-9.54 15.32-1.66 21.06-5.43 41.73-10.93 62.16-5.39 20.03-16.91 33.92-36.86 40.37-1.54.5-3.15.75-5.43 1.27-.26-10.7-8.6-13.04-16.04-16.25-4.71-2.03-9.54-3.8-14.67-5.82.33-2.09.66-4.13 1.07-6.73 7.97 1.62 15.67 3.43 23.45 4.66 4.4.69 8.97.73 13.43.49 6.72-.37 10.59-4.97 13.71-10.34 6.13-10.55 8.86-22.17 10.46-34.09 2.37-17.41 4.53-34.86 6.89-53.28zm-21.37-126.45c-30.49 0-60.49 0-90.43 0v34.77h90.43c0-11.75 0-23.06 0-34.77zm-.08-43.23c-30.38 0-60.39 0-90.26 0v33.09h90.26c0-11.11 0-21.89 0-33.09z" fill="#010100"/><path d="m237.64 274.41c2.14-.49 3.72-.84 5.54-1.26 9.79 15.63 15.68 32.2 13.87 50.89-.49 5.03-2.91 8.83-7.72 10.7-3.88 1.51-7.23-.5-7.32-4.66-.08-3.78 1.16-7.63.82-11.35-1.24-13.35-2.89-26.66-4.42-39.99-.14-1.3-.45-2.58-.77-4.33z" fill="#010100"/><path d="m218.06 276.43c-.04 19.79.76 39.42-4.92 58.49-1.12 3.75-3.01 7.37-5.1 10.69-3.09 4.89-8.2 5.99-12.94 2.66-1.47-1.03-2.59-3.87-2.35-5.67.33-2.47 1.81-4.96 3.31-7.08 11.79-16.64 17.48-35.2 17.9-55.48.04-2.32-.4-5.09 4.1-3.61z" fill="#010100"/><path d="m298.65 265.39c1.7-1.47 2.92-2.53 5.2-4.51 8.09 8.75 16.38 17.04 23.83 26.03 4.24 5.12 5.62 11.91 3.11 18.29-1.08 2.74-4.39 5.76-7.19 6.38-3.39.76-4.33-3.11-4.99-6.17-3.21-14.88-10.31-27.88-19.96-40.02z" fill="#010100"/><path d="m269.75 271.36c1.69-1.27 3.38-2.53 5.75-4.31 8.7 14.88 21.4 27.44 19.58 46.29-.25 2.64-1.43 5.49-3.03 7.61-1.08 1.43-3.72 2.5-5.5 2.29-1.07-.13-2.17-2.93-2.63-4.69-3.14-11.99-5.95-24.07-9.23-36.02-1.03-3.77-3.17-7.24-4.94-11.17z" fill="#010100"/><g fill="#fafafb"><path d="m342.2 3.2-6.3 9.2h6.1v1.2h-8.2v-.5l6.2-9.1h-5.7v-1.2h7.8v.4z"/><path d="m344 13.7v-10.9h3.1c1.6 0 3 .5 4.1 1.4 1.1 1 1.6 2.2 1.6 3.9s-.5 3-1.6 4-2.5 1.5-4.2 1.5h-3zm1.4-9.6v8.4h1.6c1.4 0 2.5-.4 3.2-1.1.8-.8 1.2-1.8 1.2-3.2s-.4-2.4-1.2-3.1-1.8-1-3.1-1z"/><path d="m356.3 2.8v10.9h-1.4v-10.9z"/><path d="m366.6 13.2c-.8.4-1.8.6-3 .6-1.6 0-2.8-.5-3.7-1.5s-1.4-2.3-1.4-3.9c0-1.7.5-3.2 1.6-4.2s2.4-1.6 4-1.6c1 0 1.9.1 2.6.4v1.5c-.8-.4-1.6-.6-2.6-.6-1.2 0-2.2.4-3 1.2s-1.1 1.9-1.1 3.3c0 1.3.4 2.3 1.1 3.1s1.6 1.1 2.8 1.1c1.1 0 2-.2 2.8-.7v1.3z"/><path d="m368.2 13c0-.3.1-.5.3-.6.2-.2.4-.3.6-.3.3 0 .5.1.7.3s.3.4.3.6-.1.5-.3.6c-.2.2-.4.3-.7.3-.3 1-.5-.1-.6-.3-.2-.2-.3-.4-.3-.6z"/><path d="m381.1 13.7h-1.7l-5.5-8.4c-.2-.2-.3-.5-.4-.7 0 .2.1.8.1 1.5v7.6h-1.4v-10.9h1.8l5.3 8.3c.3.4.4.6.4.8 0-.3-.1-.8-.1-1.6v-7.5h1.4v10.9z"/><path d="m389.7 13.7h-5.8v-10.9h5.6v1.2h-4.2v3.5h3.9v1.2h-3.9v3.7h4.4z"/><path d="m398.4 4.1h-3.1v9.6h-1.4v-9.6h-3.1v-1.3h7.7v1.3z"/></g></svg>