<svg enable-background="new 0 0 400 400" viewBox="0 0 400 400" xmlns="http://www.w3.org/2000/svg"><path d="m255.86 338.74c0-2.41 0-5.36 0-8.12 11.19 1.6 22.11 3.52 33.11 4.58 6.39.62 12.93.14 19.35-.41 4.34-.37 7.35-2.97 7.81-7.71.24-2.48.66-4.96.66-7.44.04-41.33-.03-82.66.12-123.99.02-4.61-1.02-6.4-6.05-6.36-31.83.21-63.66.11-95.49.11-1.63 0-3.25 0-5.07 0-.13 1.67-.29 2.79-.29 3.92.01 47.66-.01 95.32.1 142.98.01 5.97.74 11.93 1.04 17.9.2 4.01-1.27 7.87-5.14 8.75-3.96.9-8.47.64-12.43-.36-1.35-.34-2.5-4.49-2.46-6.88.41-23.29 1.39-46.57 1.63-69.86.3-29.99.07-59.99.07-89.99 0-1.82 0-3.65 0-5.96-34.6 0-68.94 0-103.76 0v6.01 160.98c0 6.54-8.69 12.52-14.71 9.95-1.08-.46-1.94-2.11-2.31-3.38-.4-1.39-.11-2.97-.11-4.47 0-58.83 0-117.65 0-176.48 0-1.99 0-3.98 0-6.84-2.43.94-4.35 1.68-6.27 2.42-9.92 3.83-19.89 7.54-29.73 11.55-3.27 1.34-5.28.79-6.79-2.79 34.79-18.43 69.66-36.89 93.23-69.93-.29-.51-.57-1.02-.86-1.52-1.26-.07-2.52-.22-3.78-.21-20.99.06-41.99.09-62.98.26-5.82.05-11.65.31-17.44.85-2.89.27-4.26-.76-5.22-3.29-1.35-3.54-2.96-6.98-4.66-10.93 42.59 6.66 84.82 1.94 127.02 3.85 0-26.12 0-51.34 0-77.08 9.82.29 19.37 2.7 28.79 5.74 2.05.66 4.24 1.24 5.96 2.44 1.32.92 2.77 2.78 2.73 4.19-.04 1.32-1.7 3.24-3.08 3.77-5.23 1.99-10.63 3.52-16.49 5.39v54.89h51.99c0-25.37 0-50.58 0-77.16 8.45 1.78 16.96 3.43 25.39 5.43 3.37.8 6.71 2.07 9.77 3.7 1.31.7 2.51 2.82 2.53 4.31.02 1.15-1.68 2.9-2.99 3.38-5.4 1.98-10.95 3.59-16.75 5.43v55.19c6.02 0 11.98.17 17.91-.12 1.4-.07 2.89-1.5 4.06-2.6 16.75-15.77 29.59-34.06 36.67-57.46 9.19 4.06 18.5 7.8 27.43 12.29 3.78 1.9 2.94 5.8-1.09 7.35-.93.36-1.93.79-2.88.75-7.69-.3-12.1 4.25-16.33 9.96-7.71 10.42-17.72 18.45-28.61 25.39-1.78 1.13-3.55 2.28-6.39 4.11 2.67.19 4.1.38 5.53.38 15.66.02 31.33.14 46.99-.12 2.3-.04 5.09-1.39 6.77-3.04 4.99-4.88 9.53-10.2 14.75-15.9 8.69 6.81 17.39 13.4 25.74 20.39 1.17.98 1.4 4.22.73 5.88-.5 1.24-3.14 2.27-4.84 2.28-19.5.16-38.99.1-58.49.1-31.33 0-62.66 0-93.99 0-1.82 0-3.63 0-5.84 0v64.42c1.53.07 3.13.22 4.74.22 31.16.01 62.33-.04 93.49.09 3.38.01 5.53-.98 7.41-3.75 2.8-4.12 5.99-7.96 9.26-12.25 8.57 4.69 16.38 10.14 22.72 17.53 2.26 2.63 2.1 5.21-.78 7.25-2.98 2.11-5.92 4.4-9.21 5.92-3.23 1.49-4.12 3.45-4.11 6.89.12 42.49-.06 84.99.14 127.48.1 21.15-10.87 32.7-31.93 36.79.16-12.3-7.94-17.68-18.16-20.58-9.07-2.57-18.37-4.26-28.13-6.46zm-63.3-223.24c-22.14 0-43.66 0-66.27 0 6.71 3.75 12.56 6.77 18.12 10.25 2.22 1.39 3.8 3.78 5.67 5.72-2.39 1.44-4.7 3.07-7.2 4.28-3.79 1.83-8 2.93-11.53 5.14-10.84 6.79-21.31 14.17-32.17 20.92-6.13 3.81-12.75 6.82-19.38 10.31 7.51 5.15 14.81 8.12 23.92 7.93 27.64-.57 55.29-.21 82.94-.21h5.91c-.01-21.86-.01-42.94-.01-64.34z" fill="#010100"/><path d="m98.25 317.97c22.79-30.98 37.98-64.93 45.33-103.34 10.02 4.25 20.07 8.39 29.97 12.86 1.26.57 2.37 2.92 2.34 4.43-.02 1.12-1.83 2.82-3.14 3.17-3.66 1-7.45 1.68-11.22 2-3.03.25-4.5 1.29-5.67 4.31-11.35 29.52-26.89 56.42-49.95 78.5-.72.69-1.45 1.35-2.31 2.15-1.77-1.34-3.43-2.62-5.35-4.08z" fill="#010100"/><path d="m257.69 128.48c.47-4.79 2.5-5.78 7.06-4.72 28.62 6.68 56.87 14.45 83.5 27.19 7.7 3.68 14.87 8.17 20 15.27.96 1.34 2.1 2.66 2.62 4.18 1.27 3.7 2.32 8.29-1.45 10.4-2.35 1.32-6.97.74-9.51-.78-9.41-5.61-17.83-13.07-27.61-17.8-23.88-11.56-48.31-21.99-72.52-32.87-.71-.31-1.44-.6-2.09-.87z" fill="#010100"/><path d="m233.6 223.45c.79-.96 1.18-1.49 1.63-1.96.69-.71 1.44-1.38 2.71-2.58 5.61 4.92 11.6 9.44 16.71 14.81 12.14 12.77 24.14 25.7 35.63 39.06 6.52 7.58 9.82 16.91 9.72 27.11-.02 2.09-.29 4.66-1.5 6.14-1.51 1.85-4.1 3.79-6.26 3.85-2.1.05-5.07-1.73-6.24-3.6-2.63-4.2-4.58-8.86-6.46-13.48-10.62-26.08-26.43-48.74-45.94-69.35z" fill="#010100"/><path d="m73.74 48.63c1.83-2.96 3.42-4.87 6.62-2.7 14.29 9.7 28.79 19.09 42.81 29.17 5.37 3.86 7.43 9.99 6.01 16.89-.74 3.58-2.42 6.22-6.13 7-3.54.75-6.01-.75-7.82-3.88-10.56-18.24-24.18-33.79-41.49-46.48z" fill="#010100"/><g fill="#fafafb"><path d="m342.2 3.2-6.3 9.2h6.1v1.2h-8.2v-.5l6.2-9.1h-5.7v-1.2h7.8v.4z"/><path d="m344 13.7v-10.9h3.1c1.6 0 3 .5 4.1 1.4 1.1 1 1.6 2.2 1.6 3.9s-.5 3-1.6 4-2.5 1.5-4.2 1.5h-3zm1.4-9.6v8.4h1.6c1.4 0 2.5-.4 3.2-1.1.8-.8 1.2-1.8 1.2-3.2s-.4-2.4-1.2-3.1-1.8-1-3.1-1z"/><path d="m356.3 2.8v10.9h-1.4v-10.9z"/><path d="m366.6 13.2c-.8.4-1.8.6-3 .6-1.6 0-2.8-.5-3.7-1.5s-1.4-2.3-1.4-3.9c0-1.7.5-3.2 1.6-4.2s2.4-1.6 4-1.6c1 0 1.9.1 2.6.4v1.5c-.8-.4-1.6-.6-2.6-.6-1.2 0-2.2.4-3 1.2s-1.1 1.9-1.1 3.3c0 1.3.4 2.3 1.1 3.1s1.6 1.1 2.8 1.1c1.1 0 2-.2 2.8-.7v1.3z"/><path d="m368.2 13c0-.3.1-.5.3-.6.2-.2.4-.3.6-.3.3 0 .5.1.7.3s.3.4.3.6-.1.5-.3.6c-.2.2-.4.3-.7.3-.3 1-.5-.1-.6-.3-.2-.2-.3-.4-.3-.6z"/><path d="m381.1 13.7h-1.7l-5.5-8.4c-.2-.2-.3-.5-.4-.7 0 .2.1.8.1 1.5v7.6h-1.4v-10.9h1.8l5.3 8.3c.3.4.4.6.4.8 0-.3-.1-.8-.1-1.6v-7.5h1.4v10.9z"/><path d="m389.7 13.7h-5.8v-10.9h5.6v1.2h-4.2v3.5h3.9v1.2h-3.9v3.7h4.4z"/><path d="m398.4 4.1h-3.1v9.6h-1.4v-9.6h-3.1v-1.3h7.7v1.3z"/></g></svg>