<svg enable-background="new 0 0 400 400" viewBox="0 0 400 400" xmlns="http://www.w3.org/2000/svg"><path d="m374.8 390.4.4-.4c.7.5 1.3 1 1.8 1.4l-.5.5c-.5-.6-1.1-1.1-1.7-1.5zm1 7.3-.6-.3c.5-1.4 1.1-2.8 1.5-4.3.2.1.4.2.6.3-.5 1.3-1 2.8-1.5 4.3zm-.4-10.3.4-.4c.4.3 1 .8 1.7 1.4l-.5.5c-.4-.5-1-1-1.6-1.5zm2.5.3h1.7v-1h.6v1h3.5v-1h.6v1h1.8v.5h-1.8v1.4h-2v1h3.2v2h-3.2v.9h3.3v.5h-3.4c0 .3-.1.6-.1.9h4v.5h-3.7c.7.9 1.9 1.5 3.8 1.7-.1.2-.2.4-.3.6-2.1-.4-3.5-1.1-4-2.1-.4 1-1.8 1.7-4 2.2-.1-.2-.2-.4-.3-.6 2.1-.4 3.4-1 3.8-1.8h-3.4v-.5h3.6c.1-.3.1-.6.2-.9h-3.3v-.5h3.4c0-.3 0-.6 0-.9h-3.2v-2h3.3v-1h-2.1v-1.4h-1.7v-.5zm1.1 3.5v1h2.7c0-.3 0-.4 0-.4 0-.2 0-.2 0-.2 0-.1 0-.2 0-.3h-2.7zm1.2-3v.9h3.5v-.9zm4.7 3h-2.6v.6.4h2.6z" fill="#fbfafc"/><path d="m393.6 386.7h.6v1.5h2.8v6.1h1.1v.6h-11.1v-.6h1.1v-6.1h2.7v-1.5h.6v1.5h2.1v-1.5zm-2.7 8.8.4.6c-1.2.6-2.5 1.3-3.8 1.9-.1-.2-.2-.4-.3-.6 1.2-.6 2.5-1.2 3.7-1.9zm-2.2-6.7v2.4h2.1v-2.4zm0 3v2.5h2.1v-2.5zm2.8-3v2.4h2.1v-2.4zm0 3v2.5h2.1v-2.5zm6 6.1c-1.4-.7-2.7-1.3-3.9-1.8l.3-.6c1.5.6 2.7 1.2 3.9 1.7zm-1.2-9.1h-2.1v2.4h2.1zm-2.1 3v2.5h2.1v-2.5z" fill="#fbfafc"/><g fill="#010100"><path d="m337.1 276.7c7.82 5.88 15.12 11.14 22.12 16.77 1.76 1.41 3.11 3.85 3.69 6.06.74 2.81-.71 4.81-4.03 4.78-1.83-.02-3.66.09-5.5.09-52.5.01-105 .04-157.49-.07-3.88-.01-6.25 1.04-8.53 4.36-16.3 23.76-39.48 38.11-66.19 47.37-27.42 9.51-55.85 14.57-85.04 18.78-.18-2.1-.35-4.13-.54-6.46 12.34-2.87 24.47-5.51 36.5-8.53 24.56-6.18 49.01-13.02 69.75-28.27 8.76-6.44 16.14-14.75 24.07-22.29 1.14-1.08 1.84-2.63 2.88-4.16-44.53 0-88.59 0-133.61 0-.63-1.44-1.66-3.81-2.69-6.18-1.05-2.43-2.08-4.86-3.41-7.96 6.42.73 12.23 1.49 18.06 2.02 5.13.47 10.28.94 15.42.95 36 .08 72-.02 107.99.14 3.63.02 5.43-1.08 6.4-4.47 1.95-6.81 4.12-13.56 6.31-20.7-1.48-.36-2.23-.71-2.97-.71-31.33.04-62.66.09-93.99.22-4.32.02-8.65.3-12.94.8-2.85.33-4.26-.78-5.31-3.25-1.54-3.64-3.34-7.17-5.29-11.29 40.7 6.09 81.09 1.85 121.86 3.51.92-9.9 1.77-19.08 2.61-28.24-44.41 0-88.13 0-132.45 0-1.72-3.91-3.77-8.58-6.21-14.12 34.45 5.86 68.48 3.4 102.51 4.07-3.93-8.81-7.08-17.7-11.71-25.74-4.52-7.86-10.54-14.86-16.7-23.35-26.07.62-53.36 1.29-80.64 1.86-1.18.02-3.02-.61-3.48-1.5-2.03-3.94-3.67-8.08-5.67-12.65 40.03 6.01 79.67 2.01 119.53 3.54 0-29.25 0-57.94 0-87.55 9.57 2.55 19.14 4.88 28.55 7.77 1.99.61 4.86 3.46 4.65 4.91-.29 2.1-2.97 3.9-4.72 5.74-.42.44-1.18.6-1.8.82-3.09 1.08-7.65 1.27-8.93 3.42-1.63 2.75-.73 7.07-.74 10.72-.04 16-.02 32-.02 48v5.65h56.42c0-28.43 0-56.79 0-86.5 10.07 3.01 20.39 5.69 30.38 9.27 4.08 1.46 4.02 5.92.16 8.13-3.11 1.78-6.85 2.44-10.13 4-1.32.63-3.03 2.32-3.04 3.54-.19 20.32-.13 40.65-.13 61.61 1.79.09 3.37.24 4.95.24 22 .02 44-.05 66 .08 3.13.02 5.25-.85 7.25-3.27 3.92-4.73 8.16-9.2 12.8-14.36 8.04 6.23 16.11 12.27 23.86 18.7 1.25 1.03 2 4.38 1.26 5.63-.89 1.51-3.63 2.68-5.57 2.69-31.66.16-63.33.12-95 .12-1.81 0-3.61 0-5.42 0-.12.35-.24.71-.36 1.06 3.89 1.77 7.79 3.49 11.65 5.32 2.99 1.42 6.11 2.7 8.77 4.61 1.37.98 2.6 3.24 2.49 4.82-.08 1.11-2.53 2.08-3.96 3.03-.39.26-.98.4-1.44.34-7.5-1.03-11.21 4.09-15.25 9.04-5.32 6.53-11 12.78-17.43 20.19h10.45c13.17 0 26.34.16 39.49-.14 2.44-.06 5.36-1.45 7.16-3.16 4.82-4.57 9.15-9.64 14.16-15.04 8.18 6.47 16.45 12.8 24.39 19.51 1.26 1.07 2.02 4.59 1.22 5.75-1.01 1.47-3.84 2.33-5.89 2.34-38.66.13-77.33.1-115.99.1-1.97 0-3.95 0-6.35 0-.8 9.59-1.56 18.79-2.39 28.76h5.18c22.17 0 44.33.11 66.5-.15 2.6-.03 5.69-1.51 7.66-3.3 4.29-3.88 8-8.39 12.19-12.9 7.78 6.01 14.93 11.17 21.56 16.91 1.76 1.52 1.92 4.88 2.81 7.4-2.2.76-4.39 2.17-6.59 2.18-34.83.14-69.66.1-104.5.1-1.96 0-3.92 0-5.8 0-2.37 8.77-4.61 17.03-6.99 25.83h5.06c38.16 0 76.33-.05 114.49.08 3.48.01 5.93-.97 8.23-3.52 4.26-4.73 8.79-9.16 13.39-13.9zm-178.81-56.88c22.49 0 44.29.05 66.1-.13 1.33-.01 3.18-1.54 3.87-2.85 2.96-5.56 5.85-11.19 8.26-17.01 3.77-9.1 7.13-18.37 10.85-28.04-39.09 0-77.11 0-116.26 0 2.32 1.78 3.84 2.78 5.15 3.99 7.19 6.63 14.96 12.77 21.32 20.13 7.47 8.64 7.14 14.04.71 23.91z"/><path d="m209.19 50.07c0-3.39 0-6.14 0-9.48 5.85 0 11.47-.2 17.07.08 3.39.17 5.6-1.06 7.62-3.62 3.08-3.9 6.45-7.56 10.04-11.73 6.52 3.95 13.05 7.56 19.18 11.75 4.53 3.1 4.27 7.22-.12 10.62-1.3 1.01-2.82 1.73-4.25 2.57-1.41.83-2.82 1.66-4.89 2.87 17.36 13.11 36.5 21.21 56.96 25.62 20.2 4.36 40.75 7.13 61.6 10.67-.06.64-.21 2.39-.4 4.46-1.4.34-2.79.87-4.2.98-7.32.53-12.04 4.46-14.37 11.2-.92 2.66-1.97 3.09-4.72 2.43-40.94-9.82-78.14-26.79-108.94-56.26-1.35-1.29-3.76-2.01-5.7-2.06-8.12-.23-16.27-.1-24.88-.1z"/><path d="m39.77 116.7c-1.13-2.04-2-3.61-3.16-5.71 44.49-19.76 87.33-41.54 115.43-85.09 8.35 4.99 17.05 9.68 25.14 15.26 4.07 2.81 2.7 6.9-2.11 8.5-.31.1-.64.32-.94.29-9.98-1.15-16.5 4.99-23.5 10.66-28.21 22.87-60.46 38.3-94.41 50.51-5.41 1.95-10.9 3.7-16.45 5.58z"/><path d="m209.62 317.39c1-2.34 1.76-4.15 2.78-6.55 21.34 6.92 42.74 13.38 63.77 20.86 14.17 5.04 27.93 11.32 41.66 17.52 3.66 1.65 6.78 4.79 9.69 7.69 1.8 1.79 3.73 4.4 3.84 6.72.16 3.37-.26 7.77-2.32 9.93-1.84 1.93-6.44 2.39-9.45 1.75-3.56-.76-7.08-2.94-9.99-5.29-22.59-18.27-48.2-31.07-74.88-42.02-8.27-3.38-16.47-6.95-25.1-10.61z"/><path d="m281.29 101.54c6.81 2.67 14.3 5.37 21.53 8.63 1.85.84 4.16 3.62 3.96 5.22-.2 1.67-3.22 4.29-4.96 4.25-7.67-.16-11.18 4.72-15.06 10.13-6.34 8.85-13.36 17.23-20.24 26-2.39-1.83-3.93-3.01-4.48-3.44 6.49-17.1 12.78-33.71 19.25-50.79z"/><path d="m98.12 108.29c10.84 5.7 22.45 10.5 30.52 20.51 3.91 4.85 7.01 10.53 4.34 16.93-1.06 2.54-3.93 5.45-6.41 5.91-2.01.38-4.81-2.46-6.97-4.23-1.06-.87-1.69-2.49-2.12-3.9-3.61-11.77-10.16-21.52-19.88-29.11-2.53-1.98-1.9-3.83.52-6.11z"/></g></svg>