<svg enable-background="new 0 0 400 400" viewBox="0 0 400 400" xmlns="http://www.w3.org/2000/svg"><path d="m374.8 390.4.4-.4c.7.5 1.3 1 1.8 1.4l-.5.5c-.5-.6-1.1-1.1-1.7-1.5zm1 7.3-.6-.3c.5-1.4 1.1-2.8 1.5-4.3.2.1.4.2.6.3-.5 1.3-1 2.8-1.5 4.3zm-.4-10.3.4-.4c.4.3 1 .8 1.7 1.4l-.5.5c-.4-.5-1-1-1.6-1.5zm2.5.3h1.7v-1h.6v1h3.5v-1h.6v1h1.8v.5h-1.8v1.4h-2v1h3.2v2h-3.2v.9h3.3v.5h-3.4c0 .3-.1.6-.1.9h4v.5h-3.7c.7.9 1.9 1.5 3.8 1.7-.1.2-.2.4-.3.6-2.1-.4-3.5-1.1-4-2.1-.4 1-1.8 1.7-4 2.2-.1-.2-.2-.4-.3-.6 2.1-.4 3.4-1 3.8-1.8h-3.4v-.5h3.6c.1-.3.1-.6.2-.9h-3.3v-.5h3.4c0-.3 0-.6 0-.9h-3.2v-2h3.3v-1h-2.1v-1.4h-1.7v-.5zm1.1 3.5v1h2.7c0-.3 0-.4 0-.4 0-.2 0-.2 0-.2 0-.1 0-.2 0-.3h-2.7zm1.2-3v.9h3.5v-.9zm4.7 3h-2.6v.6.4h2.6z" fill="#fbfafc"/><path d="m393.6 386.7h.6v1.5h2.8v6.1h1.1v.6h-11.1v-.6h1.1v-6.1h2.7v-1.5h.6v1.5h2.1v-1.5zm-2.7 8.8.4.6c-1.2.6-2.5 1.3-3.8 1.9-.1-.2-.2-.4-.3-.6 1.2-.6 2.5-1.2 3.7-1.9zm-2.2-6.7v2.4h2.1v-2.4zm0 3v2.5h2.1v-2.5zm2.8-3v2.4h2.1v-2.4zm0 3v2.5h2.1v-2.5zm6 6.1c-1.4-.7-2.7-1.3-3.9-1.8l.3-.6c1.5.6 2.7 1.2 3.9 1.7zm-1.2-9.1h-2.1v2.4h2.1zm-2.1 3v2.5h2.1v-2.5z" fill="#fbfafc"/><g fill="#010100"><path d="m190.44 86.82c5.92 0 11.08.2 16.21-.12 1.55-.1 3.2-1.44 4.48-2.58 5.34-4.75 10.57-9.63 16.27-14.86 6.75 5.99 14.41 12.57 21.74 19.5 1.21 1.14 1.86 4.28 1.16 5.66-.73 1.41-3.44 2.51-5.29 2.53-16.33.19-32.66.11-48.99.11-1.79 0-3.58 0-5.93 0 0 12.76-.06 25.04.1 37.32.02 1.16 1.47 2.3 2.27 3.44 1.5 2.15 4.45 4.46 4.22 6.39-.48 4.08-4.59 2.79-7.39 2.8-17.33.08-34.65.04-52.34.04-.18 4.83-2.92 6.79-7.45 7.51-7.4 1.18-9.55-.32-9.56-7.67-.01-16.33 0-32.65 0-49.41-12.43 0-24.66 0-37.33 0v81.08c1.62.08 3.38.24 5.14.24 35.16.01 70.32-.03 105.49.07 3.41.01 5.8-.88 8.23-3.44 4.68-4.92 9.92-9.3 15.33-14.28 6.9 6.22 14.5 12.89 21.84 19.84 1.14 1.08 1.92 3.75 1.37 5.05-.58 1.39-2.86 2.22-4.56 2.92-1 .41-2.3.08-3.47.08-29.66 0-59.33 0-88.99 0-1.8 0-3.6 0-5.39 0-.05.29-.1.58-.15.87 5.38 1.31 10.79 2.52 16.14 3.96 2.87.78 5.77 1.67 8.4 3.02 4.63 2.38 4.78 6.77.17 9.11-3.94 2-8.31 3.16-12.74 4.78v28.73c1.72.1 3.31.27 4.91.27 17.5.02 35 .12 52.49-.12 2.33-.03 5.06-1.3 6.87-2.85 5.3-4.53 10.24-9.5 15.77-14.73 7.08 6.32 14.86 13.04 22.29 20.13 1.18 1.12 1.24 3.97.9 5.85-.13.7-2.92 1.28-4.5 1.28-32.16.08-64.32.06-96.49.08-.64 0-1.27.24-2.15.41-.12.87-.32 1.65-.32 2.43.06 24.99-.12 49.99.32 74.98.2 11.28 1.68 22.53 2.53 33.79.27 3.63.11 7.83-4.03 8.63s-8.79.54-12.83-.6c-1.44-.41-2.48-4.77-2.49-7.33-.16-33.66-.11-67.32-.11-100.99 0-3.49 0-6.97 0-11.06-2.05-.12-3.8-.3-5.55-.3-18-.02-36-.18-53.99.06-8.96.12-17.93.85-26.87 1.55-3.41.27-5.5-.38-6.48-4.06-.93-3.48-2.61-6.77-4.35-11.1 32.45 6.52 64.5 2.93 97.63 4.18-.57-17.22-1.11-33.87-1.68-50.98-13.01 0-24.81-.25-36.59.1-6.02.18-12.09 1.07-17.99 2.3-7.44 1.55-10.72-.71-10.72-8.34 0-26.66 0-53.33 0-79.99 0-1.81 0-3.61 0-5.58-6.27 0-12.24-.46-18.11.1-9.86.94-9.83 1.21-13.4-7.61-.87-2.13-1.77-4.25-2.72-6.51 11.39 1.34 22.47 2.64 33.72 3.97 0-18.11 0-35.01 0-52.65 9.46 2.38 19.07 4.54 28.49 7.36 2.3.69 3.96 3.52 5.91 5.37-1.93 1.92-3.81 3.9-5.82 5.73-.58.53-1.51.66-2.28.97-9.61 3.87-9.61 3.87-9.61 14.57v17.65h37.27c0-18.48 0-37 0-56.74 10.13 2.78 20.37 5.13 30.26 8.49 5.31 1.81 5.36 6.23.44 9.15-3.38 2-7.36 2.97-10.94 4.7-1.23.59-2.87 2.06-2.89 3.17-.22 10.29-.13 20.58-.13 31.2h37.31c0-18.82 0-37.52 0-57.51 10.31 2.9 20.57 5.31 30.47 8.75 4.98 1.73 4.8 6.96-.02 9.38-3.22 1.62-6.94 2.21-10.31 3.59-1.26.52-3.04 1.94-3.06 2.98-.22 10.86-.13 21.66-.13 33.19zm-16.67 10.53c-12.57 0-24.8 0-37.26 0v40.18h37.26c0-13.42 0-26.54 0-40.18z"/><path d="m336.42 30.09c10.39 2.32 20.49 4.25 30.36 6.98 2.52.7 5.73 3.64 6.17 6.01.73 3.93-3.33 5.11-6.58 6.1-3.63 1.11-7.26 2.21-11.31 3.45v6.45c-.02 91.81-.06 183.62-.05 275.42 0 19.45-2.75 24.92-23.28 33.35-2.58 1.06-5.35 1.69-8.06 2.52-2.31-13.58-12.29-17.26-23.58-19.33-9.8-1.8-19.59-3.61-29.76-5.49 0-2.24 0-4.8 0-7.77 8.57 1.21 16.88 2.57 25.25 3.53 8.91 1.03 17.85 2.11 26.8 2.4 11.22.36 15.43-4.12 15.43-15.28.01-90.14.05-180.28-.05-270.43 0-8.94-.84-17.89-1.34-27.91z"/><path d="m269.99 70.9c9.38 1.77 18.05 3.22 26.62 5.11 3.92.86 9.1 1.4 9.51 6.53.44 5.61-4.69 6.42-8.85 7.67-8.86 2.65-8.86 2.68-8.86 11.84 0 40.98-.24 81.96.12 122.93.14 15.59 1.78 31.17 2.48 46.76.32 7.19-2.27 10.02-9.15 11.16-6.03 1-9.63-1.77-10.13-7.88-.15-1.82-.13-3.66-.13-5.49-.01-54.47.08-108.94-.08-163.41-.03-10.62-1-21.23-1.53-31.85-.05-.97 0-1.94 0-3.37z"/><path d="m82.64 270.83c8.24 3.29 16.01 6.15 23.54 9.55 2.09.94 3.45 3.49 5.15 5.3-2.04 1.38-4.1 3.99-6.1 3.95-9.41-.22-14.71 5.58-20.54 11.72-15.76 16.61-34.09 30.06-54.18 41.9-1.17-1.71-2.25-3.28-3.55-5.19 22.77-18.93 40.21-42.06 55.68-67.23z"/><path d="m172.66 278.82c1.53-1.92 2.75-3.45 4.15-5.22 19.79 9.56 39.5 18.84 55.65 33.95 5.38 5.04 10.2 10.71 11.05 18.44.29 2.67-.08 5.7-1.11 8.18-2.24 5.42-9.31 6.35-13.62 1.69-2.67-2.89-4.63-6.46-6.7-9.85-11.08-18.12-26.36-31.98-43.9-43.58-1.65-1.1-3.31-2.17-5.52-3.61z"/></g></svg>