<svg enable-background="new 0 0 400 400" viewBox="0 0 400 400" xmlns="http://www.w3.org/2000/svg"><path d="m374.8 390.4.4-.4c.7.5 1.3 1 1.8 1.4l-.5.5c-.5-.6-1.1-1.1-1.7-1.5zm1 7.3-.6-.3c.5-1.4 1.1-2.8 1.5-4.3.2.1.4.2.6.3-.5 1.3-1 2.8-1.5 4.3zm-.4-10.3.4-.4c.4.3 1 .8 1.7 1.4l-.5.5c-.4-.5-1-1-1.6-1.5zm2.5.3h1.7v-1h.6v1h3.5v-1h.6v1h1.8v.5h-1.8v1.4h-2v1h3.2v2h-3.2v.9h3.3v.5h-3.4c0 .3-.1.6-.1.9h4v.5h-3.7c.7.9 1.9 1.5 3.8 1.7-.1.2-.2.4-.3.6-2.1-.4-3.5-1.1-4-2.1-.4 1-1.8 1.7-4 2.2-.1-.2-.2-.4-.3-.6 2.1-.4 3.4-1 3.8-1.8h-3.4v-.5h3.6c.1-.3.1-.6.2-.9h-3.3v-.5h3.4c0-.3 0-.6 0-.9h-3.2v-2h3.3v-1h-2.1v-1.4h-1.7v-.5zm1.1 3.5v1h2.7c0-.3 0-.4 0-.4 0-.2 0-.2 0-.2 0-.1 0-.2 0-.3h-2.7zm1.2-3v.9h3.5v-.9zm4.7 3h-2.6v.6.4h2.6z" fill="#fbfafc"/><path d="m393.6 386.7h.6v1.5h2.8v6.1h1.1v.6h-11.1v-.6h1.1v-6.1h2.7v-1.5h.6v1.5h2.1v-1.5zm-2.7 8.8.4.6c-1.2.6-2.5 1.3-3.8 1.9-.1-.2-.2-.4-.3-.6 1.2-.6 2.5-1.2 3.7-1.9zm-2.2-6.7v2.4h2.1v-2.4zm0 3v2.5h2.1v-2.5zm2.8-3v2.4h2.1v-2.4zm0 3v2.5h2.1v-2.5zm6 6.1c-1.4-.7-2.7-1.3-3.9-1.8l.3-.6c1.5.6 2.7 1.2 3.9 1.7zm-1.2-9.1h-2.1v2.4h2.1zm-2.1 3v2.5h2.1v-2.5z" fill="#fbfafc"/><g fill="#010100"><path d="m186.73 194.15c-16.68 0-32.82 0-48.95 0-.03.16-.06.32-.09.48 6.71 1.62 13.43 3.2 20.12 4.88 1.77.44 3.57.94 5.18 1.78 4.07 2.11 4.56 6.21.71 8.66-3.01 1.92-6.61 3.01-10.05 4.13-2.52.81-3.8 1.82-3.67 4.8.27 6.31.08 12.64.08 19.45 1.89.1 3.5.26 5.11.26 19.17.02 38.33.12 57.5-.13 2.43-.03 5.29-1.45 7.17-3.11 5.23-4.61 10.04-9.69 15.47-15.03 7.52 6.66 15.14 13.27 22.54 20.13 1.08 1 1.91 3.58 1.36 4.68-.73 1.46-2.82 2.48-4.53 3.14-1.32.5-2.96.15-4.46.15-31.17 0-62.33 0-93.5 0-1.97 0-3.95 0-6.26 0-.16 1.49-.39 2.58-.39 3.67.09 26.33 0 52.66.43 78.98.16 9.78 1.36 19.55 2.4 29.3.75 6.98-2.58 10.99-10.25 11.55-6.76.49-10.66-3.13-10.66-9.99-.01-35.83-.01-71.66-.01-107.49 0-1.8 0-3.6 0-5.19-.71-.36-1-.64-1.3-.64-22.98.09-45.96.13-68.94.37-6.31.06-12.61.83-18.93.99-1.31.03-3.27-.89-3.87-1.97-2.02-3.59-3.55-7.44-5.06-10.72 32.54.62 64.96 1.24 97.39 1.86 0-15.49 0-30.02 0-44.83-11.81 0-22.92 0-34.32 0-.17.82-.47 1.74-.54 2.67-.51 6.82-6.42 10.87-12.88 8.22-1.97-.81-3.5-3.46-4.51-5.61-.71-1.51-.22-3.6-.22-5.44-.01-34.83 0-69.66 0-104.5 0-1.97 0-3.93 0-6.95-13.69.59-26.88 1.16-40.58 1.75-1.98-4.38-4.14-9.14-6.11-13.5 15.48.89 30.8 1.77 46.23 2.65 0-15.56 0-29.95 0-45.36 9.63 2.44 19.13 4.56 28.41 7.41 2.17.67 5.02 3.81 4.97 5.75-.05 1.96-3.11 5.23-5.19 5.51-10.33 1.42-11.16 8.06-10.21 16.29.35 3.09.06 6.25.06 9.59h89.98c0-14.53 0-28.91 0-44.62 10.02 2.79 20.11 5.08 29.8 8.51 5.31 1.88 5.28 6.19.37 9.22-2.76 1.7-6.21 2.25-9.2 3.65-1.26.59-2.99 1.97-3.03 3.05-.28 6.61-.14 13.24-.14 20.14 7.05.41 13.37 1.6 18.12-5.4 3.12-4.59 7.87-8.08 12.15-12.31 7.4 6.57 14.92 13.06 22.16 19.85 1.28 1.2 2.34 4.09 1.75 5.41-.64 1.42-3.34 2.64-5.16 2.67-14.33.21-28.66.12-43 .12-1.8 0-3.6 0-6.05 0v6.27c0 34.83.02 69.66-.01 104.5-.01 8.48-2.13 10.57-10.16 10.33-5.61-.17-6.87-1.44-7.08-7.17.02-.83-.06-1.63-.15-2.86zm-.04-10.36c0-15.86 0-31.28 0-47.04-30 0-59.85 0-89.86 0v47.04zm0-100.49c-30.1 0-59.84 0-89.86 0v43.21h89.86c0-14.41 0-28.51 0-43.21z"/><path d="m338 33.85c9.19 2.46 17.85 4.52 26.31 7.24 2.05.66 4.68 3.45 4.72 5.31.04 1.94-2.72 3.95-4.26 5.92-.1.12-.27.23-.42.25-8.17 1.01-8.31 6.43-8.3 13.15.2 89.82-.01 179.63.27 269.45.05 16.48-5.08 25.16-23.15 31.46-2.51.87-5.08 1.55-7.84 2.38-.31-.52-.87-1.04-.92-1.6-.8-9.51-7.41-13.64-15.36-16.26-5.34-1.76-10.82-3.15-16.31-4.4-5.47-1.25-11.03-2.12-16.78-3.2.3-2.22.59-4.34.98-7.17 7.43 1.01 14.74 2.19 22.09 2.95 9.58 1 19.19 1.97 28.8 2.4 7.64.34 11.16-3.3 11.15-10.77-.02-95.98-.08-191.96-.18-287.95-.01-2.63-.45-5.26-.8-9.16z"/><path d="m275.74 72.34c9.24 2.63 18.45 5.07 27.5 7.99 1.63.53 3.69 3.08 3.63 4.62-.07 1.81-2.23 3.54-3.5 5.3-.09.12-.28.21-.43.24-9.41 1.65-9.73 8.13-9.68 16.04.31 46.12.07 92.25.22 138.37.03 9.62 1.21 19.23 1.34 28.85.04 3.02-.7 6.98-2.66 8.88-3.2 3.1-7.97 3.27-12.15 1.32-1.37-.64-2.47-2.55-3.01-4.11-.52-1.49-.18-3.29-.18-4.96 0-57.28.05-114.56-.05-171.84-.01-9.9-.65-19.81-1.03-30.7z"/><path d="m85.74 270.58c8.45 5.75 16.64 11.06 24.46 16.87 1.58 1.17 2.91 4.73 2.25 6.3-.69 1.64-4.41 3.58-5.98 3.03-9.91-3.51-14.41 3.08-19.48 9.33-14.14 17.45-30.77 32.22-49.32 44.85-.67.45-1.42.79-2.37 1.31-1.26-1.68-2.43-3.25-3.94-5.27 22.17-22.25 41.3-46.57 54.38-76.42z"/><path d="m171.8 282.34c1.14-1.95 2.21-3.77 3.41-5.82 16.43 7.08 31.55 15.76 45.74 25.9 6.84 4.89 13.23 10.67 18.79 16.97 3.19 3.62 4.97 8.91 6.17 13.75 1.16 4.71-2.11 9.25-6.2 10.76-4.34 1.6-9.66.04-12.51-3.71-.7-.92-1.39-1.89-1.88-2.93-10.23-21.75-28.45-36.03-46.86-50.13-2.11-1.61-4.3-3.09-6.66-4.79z"/></g></svg>