<svg enable-background="new 0 0 400 400" viewBox="0 0 400 400" xmlns="http://www.w3.org/2000/svg"><path d="m6.44 374.46.42-.45c.65.47 1.27.95 1.85 1.44l-.45.49c-.65-.56-1.25-1.06-1.82-1.48m.93 7.33-.63-.26c.55-1.36 1.05-2.8 1.52-4.33.19.1.38.19.59.27-.46 1.29-.95 2.73-1.48 4.32m-.38-10.38.44-.42c.43.34 1.01.82 1.74 1.44l-.49.49c-.53-.51-1.09-1.01-1.69-1.51m2.5.35h1.72v-1.04h.59v1.04h3.52v-1.04h.59v1.04h1.75v.53h-1.75v1.42h-2.03v.97h3.22v2.03h-3.24c0 .35-.01.66-.03.93h3.32v.53h-3.37c-.03.27-.08.58-.15.94h3.96v.53h-3.71c.67.92 1.93 1.48 3.79 1.68-.13.24-.23.44-.29.59-2.13-.38-3.48-1.08-4.04-2.12-.43.97-1.77 1.72-4.03 2.23-.09-.19-.2-.37-.33-.55 2.1-.42 3.37-1.03 3.81-1.83h-3.36v-.53h3.58c.08-.29.13-.61.16-.94h-3.33v-.53h3.39c.02-.27.04-.58.04-.93h-3.23v-2.03h3.25v-.97h-2.07v-1.42h-1.73zm1.12 3.44v1h2.65c.01-.3.02-.44.01-.4v-.25-.35zm1.19-2h3.52v-.91h-3.52zm4.71 2h-2.63v.59c0 .15-.01.28-.01.4h2.64z" fill="#fcfbfa"/><path d="m13.56 383.74h.63v1.52h2.72v6.07h1.13v.6h-11.06v-.6h1.13v-6.07h2.73v-1.52h.63v1.52h2.1v-1.52zm-2.69 8.83.38.56c-1.24.63-2.53 1.25-3.85 1.85-.1-.21-.21-.42-.34-.63 1.36-.55 2.63-1.15 3.81-1.78m-2.13-4.27h2.1v-2.45h-2.1zm0 3.04h2.1v-2.46h-2.1zm2.72-3.04h2.1v-2.45h-2.1zm0 3.04h2.1v-2.46h-2.1zm6.07 3.6c-1.41-.71-2.7-1.3-3.86-1.78l.35-.56c1.45.62 2.75 1.19 3.88 1.72zm-1.25-9.09h-2.1v2.45h2.1zm-2.09 5.49h2.1v-2.46h-2.1z" fill="#fcfbfa"/><g fill="#010105"><path d="m51.17 276.41c0 6.6.03 12.41-.01 18.22s-3.07 8.38-9.78 8.36c-6.06-.01-8.66-2.41-8.5-8.46.17-6.64.94-13.27 1.06-19.91.44-23.46.89-46.93 1.01-70.39.17-32.65.13-65.3-.02-97.96-.04-8.6-.83-17.2-1.31-26.52 4.67 3.61 9.43 6.98 13.82 10.77 3.73 3.21 7.6 4.73 12.65 4.42 7.3-.45 14.66-.25 21.98-.05 3.43.09 5.93-.71 8.14-3.58 2.92-3.79 6.42-7.14 10.15-11.2 6.16 4.63 12.41 8.96 18.21 13.82 3.65 3.06 3.4 6.81-.41 9.73-2.59 1.99-5.7 3.37-8.71 4.74-2.35 1.07-3.48 2.32-3.48 5.19.11 47.98.05 95.96.19 143.94.01 1.81 1.25 3.98 2.57 5.34 2.19 2.24 5.21 3.69 7.31 5.99 1.24 1.37 1.85 3.78 1.73 5.65-.05.73-2.9 1.8-4.48 1.81-18.49.13-36.98.08-55.47.08-1.96.01-3.93.01-6.65.01zm.27-8.86h38.25c0-54.61 0-108.84 0-163.17-12.88 0-25.44 0-38.25 0z"/><path d="m169.47 308.94c16.24-3.08 32-6.06 47.73-9.04 2.95 6.01 2.92 5.93-3.32 8.29-24.74 9.37-50.43 15.32-76.17 21.07-4.15.93-6.63 2.56-7.63 6.99-.63 2.8-2.8 5.24-4.28 7.85-2.27-2.41-5.13-4.49-6.68-7.29-3.75-6.79-6.89-13.92-10.48-21.32 14.91-1.49 29.36-2.94 44.02-4.4 0-49.52 0-98.63 0-148.51-2.36.14-4.73.3-7.11.42-7.47.36-14.95.61-22.42 1.09-2.64.17-4.27-.29-5.18-3.14-1.31-4.11-3.13-8.05-4.62-11.78 12.83 1.25 25.72 2.5 38.77 3.77 0-34.61 0-68.57 0-102.92 8.86 2.26 18.19 4.43 27.36 7.14 2.17.64 5.58 3.53 5.32 4.66-.57 2.45-3.11 4.48-4.94 6.59-.38.44-1.2.53-1.82.75-8.84 3.12-8.84 3.12-8.84 12.7v64.49 5.51c13.13 3.37 16.92-8.95 26.13-14.84 5.17 5.56 10.68 11.27 15.88 17.25 1.12 1.29 2.1 4.08 1.45 5.2-.86 1.49-3.37 2.78-5.2 2.83-10.82.26-21.66.12-32.49.15-1.78 0-3.57.15-5.47.24-.01 48.68-.01 96.93-.01 146.25z"/><path d="m249.93 109.74c8.55 2.01 17.41 4.07 26.26 6.2 1.12.27 2.44.59 3.18 1.36 1.63 1.68 3.94 3.6 4.06 5.55.09 1.41-2.65 3.48-4.54 4.43-3.67 1.83-9.23 2.04-11.03 4.84-2 3.1-.78 8.35-.78 12.66-.02 58.15-.02 116.29-.02 174.44 0 12.53 2.51 16.09 14.82 18.18 12.83 2.18 25.79 2.6 38.64-.47 7.11-1.7 11.36-6.06 12.37-13.27 2.1-14.96 4.03-29.94 6.05-44.91.24-1.78.6-3.54.98-5.74 2.18.41 4.06.77 7.08 1.34v27.28c0 5.5.2 11.01-.06 16.49-.25 5.49 1.83 9.49 6.09 12.9 8 6.41 7.56 13.37-2.05 17.16-8.67 3.42-18.11 5.7-27.39 6.6-17.52 1.69-35.16 1.7-52.61-1.65-15.21-2.92-21.05-9.87-21.05-25.31 0-64.31 0-128.62 0-192.94 0-8.13 0-16.25 0-25.14z"/><path d="m231.99 182.35c-.35 21.75-.63 43.53-7.88 64.43-3.07 8.86-7.02 17.26-13.96 23.84-3.84 3.63-8.18 6.26-13.82 5.78-5.61-.48-9.17-6.07-6.7-11.16 1.43-2.95 3.34-5.83 5.63-8.16 16.31-16.56 23.28-37.08 25.63-59.59 1.1-10.56 1.97-21.14 3.28-31.67.14-1.13 2.52-2.78 3.83-2.76 1.35.02 3.73 1.74 3.81 2.84.4 5.45.18 10.96.18 16.45z"/><path d="m317.97 156.58c1.5-1.18 2.92-2.29 4.89-3.83 5.5 7.31 10.98 14.54 16.39 21.82 12.39 16.68 23.09 34.29 27.14 54.99 1.22 6.22 1.09 12.85.58 19.22-.47 5.81-4.35 9.19-8.75 9.31-4.29.12-8.36-3.71-9.27-9.51-1.4-9.02-2.4-18.1-3.56-27.15-2.42-18.88-10.7-35.53-19.72-51.89-2.39-4.35-5.07-8.56-7.7-12.96z"/><path d="m262.95 41.38c1.29-1.49 2.37-2.74 3.94-4.56 8.64 6.23 17.48 12.07 25.72 18.66 14.42 11.54 28.81 23.33 37.56 40.09 2.6 4.98 3.98 10.83 4.81 16.45.77 5.22-3.1 9.94-7.47 10.98-5.1 1.22-10.08-1.36-12.37-6.88-3.29-7.97-5.95-16.2-9.46-24.06-7.56-16.94-20.83-29.44-33.73-42.18-2.82-2.8-5.78-5.48-9-8.5z"/></g></svg>