<svg enable-background="new 0 0 400 400" viewBox="0 0 400 400" xmlns="http://www.w3.org/2000/svg"><g fill="#010105"><path d="m221.24 122.64c5.55 4.1 10.9 7.71 15.84 11.81 3.18 2.64 6.45 3.54 10.5 3.45 9.94-.22 19.89-.07 30.09-.07 0-11.69 0-22.79 0-33.79-19.43 0-38.79 0-58.72 0-1.74-4.02-3.83-8.82-5.56-12.8 21.24 1.03 42.55 2.07 64 3.11 0-22.49 0-43.7 0-65.43 9.07 2.3 18.29 4.34 27.28 7.1 2.44.75 4.2 3.68 6.28 5.61-1.9 1.91-3.8 3.81-5.71 5.71-.11.11-.28.21-.44.23-9.11 1.27-10.53 6.98-9.91 15.14.75 9.93.18 19.96.18 30.55 2.46.12 4.7.25 6.94.33 1.5.05 3 .01 4.5.01 7.5-.01 15.64 1.81 22.31-.55 6.36-2.25 11.19-8.85 16.93-13.75 6.42 4.86 13.27 9.82 19.82 15.14 1.55 1.26 3.07 3.75 2.97 5.58-.17 3.13-3.16 3.19-5.78 3.18-20.49-.03-40.99-.02-61.49-.02-1.81 0-3.62 0-5.82 0v34.6c12.33 0 24.6.07 36.87-.11 1.17-.02 2.49-1.46 3.43-2.52 2.97-3.34 5.8-6.81 9.15-10.79 5.98 4.54 12.02 8.66 17.5 13.43 4.12 3.59 3.82 7.53-1.04 9.39-7.77 2.98-8.38 8.31-8.35 15.54.27 59.82.16 119.64.15 179.46 0 16.11-10.58 27.75-27.76 29.77.09-18.06-14.07-20-27.27-23.21.46-2.59.88-4.97 1.38-7.83 7.57 1.23 14.89 2.31 22.18 3.62 10.26 1.85 14.85-1.8 14.87-12.21.04-20 .02-39.99 0-59.99 0-1.62-.14-3.25-.22-4.99-13.87 0-27.29 0-40.72 0 0 14.52-.22 28.78.07 43.04.22 10.47 1.27 20.91 1.63 31.38.2 5.81-2.87 8.26-9.32 8.26-6.91 0-10.07-2.7-10.08-8.73-.01-22.66 0-45.32 0-67.98 0-1.82 0-3.63 0-5.83-12.53 0-24.77 0-37.87 0v5.56c0 29.66-.28 59.32.15 88.98.16 10.62-8.08 12.99-16.01 10.08-3.96-1.46-4.2-5.28-4.02-8.81.84-15.93 2.52-31.86 2.62-47.79.35-55.98.24-111.97.12-167.96 0-8.09-1.05-16.14-1.67-24.9zm114.93 75.22c0-16.95 0-33.49 0-50.12-13.84 0-27.26 0-40.74 0v50.12zm-40.76 10.38v48.55h40.87c0-16.24 0-32.28 0-48.55-13.66 0-27.06 0-40.87 0zm-55-60.51v49.99h37.18c0-16.8 0-33.32 0-49.99-12.59 0-24.83 0-37.18 0zm.03 60.41v48.55h37.12c0-16.35 0-32.39 0-48.55-12.49 0-24.62 0-37.12 0z"/><path d="m180.48 106.44c-19.05.81-36.66 1.35-54.24 2.43-4.4.27-7.28-.06-8.64-4.79-.85-2.97-2.45-5.73-4.09-9.42 4.82.5 8.85 1.18 12.9 1.29 17.13.44 34.27.77 51.4.95 1.38.02 3.08-1.03 4.11-2.09 3-3.09 5.74-6.44 9.01-10.17 6.75 4.51 13.51 8.7 19.9 13.4 3.78 2.78 3.6 6.9-.37 9.51-2.99 1.96-6.68 2.8-9.92 4.43-1.62.81-3.62 1.96-4.27 3.47-8.4 19.34-19.87 36.89-31.59 54.26-3.74 5.54-2.89 11.34-2 16.76.42 2.56 5.28 4.39 9.17 7.34 6.88-13.81 13.42-26.95 20.08-40.34 6.21 3.33 12.93 6.61 19.27 10.52 2.05 1.26 3.07 4.19 4.56 6.36-2.35 1.23-4.74 3.57-7.03 3.47-5.62-.25-9.34 2.09-12.88 6.03-5.44 6.04-11.27 11.74-16.95 17.59 5.65 4.8 11.47 9.48 16.97 14.51 5.42 4.97 9.22 11 9.42 18.63.06 2.43-.26 5.09-1.22 7.28-2.78 6.35-10.55 7.02-14.34 1.23-1.61-2.45-2.67-5.34-3.57-8.16-4.09-12.75-12.32-22.67-21.54-31.92-.42-.42-1.06-.61-1.76-1-.29.65-.63 1.06-.63 1.48.03 39.99-.14 79.99.26 119.98.14 13.94 1.94 27.85 2.46 41.79.12 3.11-1.21 8.3-3.16 9.02-3.83 1.41-8.72.99-12.84-.04-1.53-.38-2.99-4.56-3.01-7.01-.27-35.99-.3-71.98-.36-107.97-.03-18.83-.01-37.66-.01-56.49 0-1.62 0-3.24 0-4.86-12.66 10.05-25.03 19.86-37.71 29.92-2.09-2.35-3.38-3.78-5.11-5.72 31.22-24.66 52.13-56.86 69.46-91.69 2.96-5.92 5.09-12.22 8.27-19.98z"/><path d="m52.07 273.07c0 5 .03 9.16-.01 13.32-.05 6.08-.86 6.84-7.09 6.74-.67-.01-1.33-.03-2-.06-6.56-.25-9.1-2.68-9.01-9.19.18-12.31.79-24.62.82-36.92.13-50.14.18-100.29.07-150.43-.02-7.61-1.03-15.21-1.63-23.61 5.64 4.18 10.81 8.4 16.39 11.98 2.59 1.66 5.89 2.52 8.99 3.03 12.18 2.01 22.57-.57 29.12-12.2.29-.52 1.01-.81 1.88-1.47 5.89 3.97 12.04 7.63 17.62 12.01 6.23 4.89 5.82 9.67-1.3 12.85-6.34 2.83-8.18 6.65-8.12 13.65.4 46.64.26 93.29.11 139.94-.01 3.8 1.11 6.23 4.15 8.27 2.05 1.38 4.12 3 5.5 4.99 1.02 1.47 1.54 3.87 1.09 5.53-.24.89-3.01 1.52-4.65 1.53-15.33.11-30.65.07-45.98.07-1.8-.03-3.6-.03-5.95-.03zm28.45-10.39c0-54.88 0-109.41 0-164.19-9.53 0-18.75 0-28.17 0v164.19z"/><path d="m138.59 27.02c12.47 8.81 24.68 16.71 31.83 29.95 2.53 4.68 3.87 9.62 1.05 14.69-1.98 3.56-5.08 6.52-9.17 5.37-2.5-.71-5.66-3.61-6.2-6.03-3.32-15.12-9.85-28.42-20.95-39.64 1.26-1.59 2.25-2.84 3.44-4.34z"/><path d="m319.17 37.71c1.02-1.97 2-3.85 3.57-6.87 9.34 6.47 18.55 12.31 27.1 18.98 4.25 3.32 6.96 8.6 4.18 14.16-1.4 2.8-4.57 6.37-7.08 6.49-2.55.12-6.05-3.08-7.77-5.71-3.68-5.63-6.02-12.15-9.81-17.69-2.44-3.58-6.48-6.05-10.19-9.36z"/></g><path d="m378.6 9.2.8-1c.9.7 1.9 1.4 2.9 2.3l-.9 1.1c-1.1-.9-2-1.7-2.8-2.4zm.5 10.7c.9-2.1 1.6-4.3 2.3-6.7.4.2.8.4 1.3.6-.7 2.1-1.5 4.3-2.2 6.6zm.4-15.2.9-.9c1 .8 2 1.6 2.8 2.4l-1 1c-1-.9-1.9-1.8-2.7-2.5zm12.5-1.3h1.2v1.4h2.7v1.1h-2.7v2.7h-1.2v-.5h-1.8v1.3h4.9v3.8h-1.2v-.5h-3.7c0 .4-.1.9-.1 1.2h5.1v1h-5.2c0 .5-.1.9-.2 1.2h6v1h-5.2c1.1 1.3 2.9 2 5.5 2.2-.4.4-.7.8-.9 1.3-2.9-.5-4.8-1.6-5.7-3.5h-.1c-.8 1.7-2.7 2.9-5.9 3.6-.2-.4-.6-.8-.9-1.1 2.8-.6 4.6-1.4 5.4-2.5h-4.8v-1h5.3c.1-.3.2-.7.2-1.2h-4.9v-1h5c0-.4 0-.8.1-1.2h-3.6v.5h-1.2v-3.8h4.9v-1.3h-1.8v.5h-1.2v-2.7h-2.6v-1.1h2.6v-1.4h1.2v1.4h4.7v-1.4zm-6.7 8.4h3.6c0-.4 0-.9 0-1.4h-3.6zm1.9-4.7h4.7v-1.2h-4.7zm6.7 3.3h-3.7v1.4h3.7z" fill="#fafbfa"/><path d="m384.7 21.4h1.3v2.2h2.8v-2.2h1.3v2.2h4.1v9.1h1.7v1.3h-16.9v-1.3h1.7v-9.1h4.1v-2.2zm.3 13.2.7 1.2c-1.8.9-3.8 1.9-6 2.9-.2-.4-.5-.8-.8-1.3 2.4-1 4.4-2 6.1-2.8zm-3.1-6.5h2.8v-3.2h-2.8zm0 4.6h2.8v-3.3h-2.8zm4.1-4.6h2.8v-3.2h-2.8zm0 4.6h2.8v-3.3h-2.8zm3.6 1.9c2.1.9 4.1 1.8 6.1 2.7l-.7 1.3c-2.2-1.1-4.2-2-6.1-2.9zm3.3-9.7h-2.8v3.2h2.8zm-2.8 7.8h2.8v-3.2h-2.8z" fill="#fafbfa"/></svg>