<svg enable-background="new 0 0 400 400" viewBox="0 0 400 400" xmlns="http://www.w3.org/2000/svg"><path d="m6.44 374.46.42-.45c.65.47 1.27.95 1.85 1.44l-.45.49c-.65-.56-1.25-1.06-1.82-1.48m.93 7.33-.63-.26c.55-1.36 1.05-2.8 1.52-4.33.19.1.38.19.59.27-.46 1.29-.95 2.73-1.48 4.32m-.38-10.38.44-.42c.43.34 1.01.82 1.74 1.44l-.49.49c-.53-.51-1.09-1.01-1.69-1.51m2.5.35h1.72v-1.04h.59v1.04h3.52v-1.04h.59v1.04h1.75v.53h-1.75v1.42h-2.03v.97h3.22v2.03h-3.24c0 .35-.01.66-.03.93h3.32v.53h-3.37c-.03.27-.08.58-.15.94h3.96v.53h-3.71c.67.92 1.93 1.48 3.79 1.68-.13.24-.23.44-.29.59-2.13-.38-3.48-1.08-4.04-2.12-.43.97-1.77 1.72-4.03 2.23-.09-.19-.2-.37-.33-.55 2.1-.42 3.37-1.03 3.81-1.83h-3.36v-.53h3.58c.08-.29.13-.61.16-.94h-3.33v-.53h3.39c.02-.27.04-.58.04-.93h-3.23v-2.03h3.25v-.97h-2.07v-1.42h-1.73zm1.12 3.44v1h2.65c.01-.3.02-.44.01-.4v-.25-.35zm1.19-2h3.52v-.91h-3.52zm4.71 2h-2.63v.59c0 .15-.01.28-.01.4h2.64z" fill="#fcfbfa"/><path d="m13.56 383.74h.63v1.52h2.72v6.07h1.13v.6h-11.06v-.6h1.13v-6.07h2.73v-1.52h.63v1.52h2.1v-1.52zm-2.69 8.83.38.56c-1.24.63-2.53 1.25-3.85 1.85-.1-.21-.21-.42-.34-.63 1.36-.55 2.63-1.15 3.81-1.78m-2.13-4.27h2.1v-2.45h-2.1zm0 3.04h2.1v-2.46h-2.1zm2.72-3.04h2.1v-2.45h-2.1zm0 3.04h2.1v-2.46h-2.1zm6.07 3.6c-1.41-.71-2.7-1.3-3.86-1.78l.35-.56c1.45.62 2.75 1.19 3.88 1.72zm-1.25-9.09h-2.1v2.45h2.1zm-2.09 5.49h2.1v-2.46h-2.1z" fill="#fcfbfa"/><g fill="#010105"><path d="m30.65 364.86c13.14-4.42 25.93-8.48 38.54-13.02 28.57-10.29 55.05-24.18 77.58-44.98 11.99-11.07 24.78-29.38 28.66-42.5-1.31-.1-2.55-.28-3.78-.28-39.66.02-79.32.03-118.98.13-4.98.01-9.97.39-14.92.93-2.89.31-4.21-.79-5.17-3.34-1.4-3.71-3.11-7.29-4.72-10.99 10.52 1.03 20.81 2.83 31.11 2.92 38.82.36 77.65.14 116.48.26 3 .01 4.18-1.08 4.48-3.89 1.54-14.17 3.15-28.34 4.75-42.51.07-.64.21-1.26.41-2.42 9.43 1.95 18.7 3.64 27.83 5.92 1.95.49 4.34 2.91 4.7 4.8.24 1.28-2.7 3.17-4.23 4.78-.11.11-.3.19-.45.2-9.4.28-10.24 6.88-10.96 14.12-.62 6.22-2.18 12.35-3.41 18.94h5.21c38.49 0 76.99-.04 115.48.07 3.47.01 5.77-.94 8-3.74 4.83-6.09 10.15-11.8 15.55-17.98 9.6 7.76 18.99 15.17 28.15 22.86 3.57 3 2.56 6.89-1.93 8.24-2.02.61-4.26.67-6.39.67-43.66.04-87.32.03-130.98.03-1.77 0-3.54 0-6.51 0 33.34 50.18 81 74.95 137.74 85.18.1.84.23 1.48.25 2.12.04.99.01 1.99.01 3.7-1.79 0-3.38-.02-4.96 0-8.65.11-15.78 3.29-21.36 10.09-.89 1.09-3.52 1.97-4.69 1.45-29.78-13.25-58.21-28.71-81.36-52.24-13.4-13.63-24.2-29.19-32.59-46.37-1.46-2.99-3.07-4.22-6.43-4.01-5.31.33-11.74-1.66-15.68.7-3.79 2.27-4.98 8.83-7.4 13.46-14.87 28.52-38 48.42-66.13 63.01-27.35 14.18-56.77 22.38-86.52 29.58-5.55 1.33-3.75-3.41-5.38-5.89z"/><path d="m43.93 215.23c0-2.58 0-4.57 0-6.85 11.2-1.49 22.38-2.73 33.47-4.49 64.83-10.3 125.94-30.38 179.09-70.23 12.84-9.63 24.14-21.29 36.9-32.68 5.88 4.93 12.86 10.47 19.4 16.49 1.52 1.4 1.54 4.43 2.25 6.71-2.25.65-4.87 2.39-6.68 1.76-8.73-3-14.64 1.61-21.01 6.32-37.41 27.68-77.38 50.39-122.52 63.22-27.37 7.78-55.06 13.66-83.35 16.7-10.9 1.17-21.83 2.06-32.75 3.03-1.55.14-3.15.02-4.8.02z"/><path d="m195.83 28.32c8.14 1.81 16.77 3.44 25.2 5.8 2.42.68 4.23 3.49 6.33 5.32-1.95 2.2-3.48 5.31-5.92 6.43-8.3 3.82-8.43 3.55-8.42 12.54.02 17.83-.13 35.65.14 53.48.11 7.63.87 15.26 1.73 22.85 1.17 10.23-2.61 14.38-12.8 13.64-4.45-.32-6.36-2.21-6.33-6.94.16-30.32.08-60.64.08-90.96-.01-7.27-.01-14.54-.01-22.16z"/><path d="m112.87 57.4c8.98 3.56 17.58 6.55 25.76 10.44 2.71 1.29 4.32 4.88 6.44 7.41-2.87 1.59-5.8 4.59-8.61 4.49-8.59-.3-13.21 4.11-17.91 10.58-18.64 25.61-41.52 46.6-69.47 61.92-4.68 2.56-7.14 1.95-8.9-3.16 32.34-23.57 59.23-51.7 72.69-91.68z"/><path d="m277.23 58.29c1.63-1.91 2.91-3.4 4.61-5.38 6.84 4.14 13.77 8.03 20.38 12.4 18.85 12.46 38.3 24.18 54.2 40.57 3.55 3.66 6.49 7.98 9.39 12.21 1.38 2.01 2.27 4.46 2.95 6.84 1.99 6.93.28 12.98-4.04 15.15-5.27 2.64-10.71.85-15.23-5.67-6.06-8.73-11.26-18.09-17.73-26.48-13.42-17.38-30.16-31.37-47.65-44.48-2.13-1.59-4.25-3.19-6.88-5.16z"/></g></svg>