<svg enable-background="new 0 0 400 400" viewBox="0 0 400 400" xmlns="http://www.w3.org/2000/svg"><path d="m6.44 374.46.42-.45c.65.47 1.27.95 1.85 1.44l-.45.49c-.65-.56-1.25-1.06-1.82-1.48m.93 7.33-.63-.26c.55-1.36 1.05-2.8 1.52-4.33.19.1.38.19.59.27-.46 1.29-.95 2.73-1.48 4.32m-.38-10.38.44-.42c.43.34 1.01.82 1.74 1.44l-.49.49c-.53-.51-1.09-1.01-1.69-1.51m2.5.35h1.72v-1.04h.59v1.04h3.52v-1.04h.59v1.04h1.75v.53h-1.75v1.42h-2.03v.97h3.22v2.03h-3.24c0 .35-.01.66-.03.93h3.32v.53h-3.37c-.03.27-.08.58-.15.94h3.96v.53h-3.71c.67.92 1.93 1.48 3.79 1.68-.13.24-.23.44-.29.59-2.13-.38-3.48-1.08-4.04-2.12-.43.97-1.77 1.72-4.03 2.23-.09-.19-.2-.37-.33-.55 2.1-.42 3.37-1.03 3.81-1.83h-3.36v-.53h3.58c.08-.29.13-.61.16-.94h-3.33v-.53h3.39c.02-.27.04-.58.04-.93h-3.23v-2.03h3.25v-.97h-2.07v-1.42h-1.73zm1.12 3.44v1h2.65c.01-.3.02-.44.01-.4v-.25-.35zm1.19-2h3.52v-.91h-3.52zm4.71 2h-2.63v.59c0 .15-.01.28-.01.4h2.64z" fill="#fcfbfa"/><path d="m13.56 383.74h.63v1.52h2.72v6.07h1.13v.6h-11.06v-.6h1.13v-6.07h2.73v-1.52h.63v1.52h2.1v-1.52zm-2.69 8.83.38.56c-1.24.63-2.53 1.25-3.85 1.85-.1-.21-.21-.42-.34-.63 1.36-.55 2.63-1.15 3.81-1.78m-2.13-4.27h2.1v-2.45h-2.1zm0 3.04h2.1v-2.46h-2.1zm2.72-3.04h2.1v-2.45h-2.1zm0 3.04h2.1v-2.46h-2.1zm6.07 3.6c-1.41-.71-2.7-1.3-3.86-1.78l.35-.56c1.45.62 2.75 1.19 3.88 1.72zm-1.25-9.09h-2.1v2.45h2.1zm-2.09 5.49h2.1v-2.46h-2.1z" fill="#fcfbfa"/><g fill="#010105"><path d="m298.95 235.3c-66.24 0-131.82 0-197.95 0 0 2.66.03 5.11 0 7.55-.07 5.91-2.89 8.24-9.87 8.21-6.09-.03-9.29-2.98-9.09-8.69.16-4.64.9-9.28.93-13.92.26-32.13.44-64.27.56-96.4.02-4.26-.46-8.52-.76-13.79 6.81 3.31 12.64 6.39 18.68 8.98 2.95 1.26 6.3 2.26 9.48 2.27 59.82.13 119.64.06 179.46.18 3.85.01 6.63-.97 9-4.02 2.63-3.4 5.63-6.52 8.88-10.22 6.42 4.42 12.89 8.44 18.85 13.11 4.53 3.55 4.13 6.95-.45 10.62-1.42 1.14-2.91 2.43-4.58 2.96-5.14 1.64-6.27 4.96-6.13 10.13.46 16.98.17 33.99.53 50.97.24 11.29 1.21 22.56 1.66 33.85.32 8.21-7.78 13.84-15.23 10.38-1.8-.84-3.06-3.58-3.82-5.72-.64-1.78-.15-3.95-.15-6.45zm-197.81-57.13h90.07c0-13.15 0-25.88 0-38.61-30.24 0-60.09 0-90.07 0zm107.71-38.74v38.82h89.78c0-13.08 0-25.82 0-38.82-30.05 0-59.78 0-89.78 0zm-107.7 85.2h90.05c0-12.28 0-24.18 0-36.05-30.24 0-60.1 0-90.05 0zm107.67-36.29v36.26h89.71c0-12.31 0-24.2 0-36.26-29.88 0-59.35 0-89.71 0z"/><path d="m36.86 377.06c-.66-2.08-1.25-3.91-1.9-5.96 8.57-3.15 17.06-5.92 25.26-9.36 15.94-6.68 30.62-15.35 42.57-28.15 9.07-9.72 13.83-21.29 15.69-35.18-2.12 0-3.86 0-5.6 0-16.33 0-32.66-.17-48.99.07-8.96.13-17.91.92-26.87 1.52-2.72.18-4.71-.05-5.73-3.23-1.21-3.76-3.06-7.32-5.05-11.91 31.33 5.84 62.19 2.79 93.63 4.08 0-13.32 0-26.16 0-39.95 9.55 2.04 18.59 3.81 27.53 6.02 1.76.44 4.25 2.46 4.35 3.9.11 1.5-2.04 4.3-3.58 4.6-11.73 2.26-10.54 11.4-10.98 19.72-.08 1.49-.01 2.98-.01 4.92h128.14c0-12.16 0-24.05 0-36.77 9.92 2.62 19.71 5 29.32 7.94 1.88.58 4.27 3.37 4.27 5.14 0 1.81-2.62 3.65-4.16 5.42-.3.34-.88.45-1.35.61-3.27 1.12-6.55 2.22-9.81 3.37-.22.08-.41.56-.41.85-.03 4.32-.02 8.64-.02 13.45 1.51.15 2.92.41 4.33.41 12.33.03 24.66.18 36.99-.12 2.29-.06 4.92-1.5 6.75-3.06 6.07-5.18 11.84-10.7 18.14-16.47 7.45 6.54 15.87 13.76 24.03 21.27 1.3 1.2 2.47 4.37 1.8 5.45-.93 1.5-3.65 2.64-5.61 2.65-26.66.17-53.32.11-79.98.11-1.97 0-3.93 0-6.03 0 0 14.43-.29 28.35.1 42.26.26 9.12 1.61 18.2 2.25 27.32.4 5.64-3.76 8.96-10.74 9.01-6.29.04-9.33-2.57-9.34-8.34-.05-21.33-.02-42.66-.02-63.98 0-1.82 0-3.64 0-5.85-43.23 0-86.13 0-129.09 0-1.65 6.04-2.93 12.2-5.03 18.07-7.83 21.96-24.26 35.61-44.67 45.19-15.72 7.37-32.38 11.71-50.18 14.98z"/><path d="m188.82 27.85c9.98 2.49 19.2 4.51 28.22 7.22 2.43.73 4.24 3.55 6.33 5.4-2.16 2.2-3.94 5.33-6.57 6.45-9.51 4.06-9.84 3.82-9.57 14.28.44 17.09 1.32 34.17 1.79 51.26.23 8.4-8.92 13.5-16.14 8.84-1.71-1.1-2.8-4.4-2.82-6.71-.24-24.11-.15-48.23-.27-72.35-.03-4.44-.59-8.88-.97-14.39z"/><path d="m44.08 102.48c-.64-2.27-1.17-4.12-1.73-6.08 31.08-13.65 60.58-29.14 83.45-55.53 6.34 5.96 12.58 11.67 18.59 17.62 1.31 1.3 2.23 3.37 2.56 5.22.64 3.65-1.01 5.79-5.01 5.45-.99-.08-2.11-.01-2.93-.45-7.21-3.86-13.1-1.58-19.69 2.52-22.16 13.75-46.13 23.56-71.26 30.53-1.1.29-2.26.41-3.98.72z"/><path d="m255.21 54.69c.4-5.19 2.64-6.42 7.26-4.76 17.91 6.43 36.07 12.21 53.77 19.17 6.45 2.54 12.2 7.3 17.68 11.77 4.37 3.56 6.42 8.78 6.14 14.65-.35 7.67-6.03 10.92-12.74 7.05-2.41-1.39-4.75-3.18-6.58-5.26-15.74-17.89-35.86-29.28-57.17-38.95-2.71-1.23-5.45-2.4-8.36-3.67z"/></g></svg>