<svg enable-background="new 0 0 400 400" viewBox="0 0 400 400" xmlns="http://www.w3.org/2000/svg"><path d="m6.44 374.46.42-.45c.65.47 1.27.95 1.85 1.44l-.45.49c-.65-.56-1.25-1.06-1.82-1.48m.93 7.33-.63-.26c.55-1.36 1.05-2.8 1.52-4.33.19.1.38.19.59.27-.46 1.29-.95 2.73-1.48 4.32m-.38-10.38.44-.42c.43.34 1.01.82 1.74 1.44l-.49.49c-.53-.51-1.09-1.01-1.69-1.51m2.5.35h1.72v-1.04h.59v1.04h3.52v-1.04h.59v1.04h1.75v.53h-1.75v1.42h-2.03v.97h3.22v2.03h-3.24c0 .35-.01.66-.03.93h3.32v.53h-3.37c-.03.27-.08.58-.15.94h3.96v.53h-3.71c.67.92 1.93 1.48 3.79 1.68-.13.24-.23.44-.29.59-2.13-.38-3.48-1.08-4.04-2.12-.43.97-1.77 1.72-4.03 2.23-.09-.19-.2-.37-.33-.55 2.1-.42 3.37-1.03 3.81-1.83h-3.36v-.53h3.58c.08-.29.13-.61.16-.94h-3.33v-.53h3.39c.02-.27.04-.58.04-.93h-3.23v-2.03h3.25v-.97h-2.07v-1.42h-1.73zm1.12 3.44v1h2.65c.01-.3.02-.44.01-.4v-.25-.35zm1.19-2h3.52v-.91h-3.52zm4.71 2h-2.63v.59c0 .15-.01.28-.01.4h2.64z" fill="#fcfbfa"/><path d="m13.56 383.74h.63v1.52h2.72v6.07h1.13v.6h-11.06v-.6h1.13v-6.07h2.73v-1.52h.63v1.52h2.1v-1.52zm-2.69 8.83.38.56c-1.24.63-2.53 1.25-3.85 1.85-.1-.21-.21-.42-.34-.63 1.36-.55 2.63-1.15 3.81-1.78m-2.13-4.27h2.1v-2.45h-2.1zm0 3.04h2.1v-2.46h-2.1zm2.72-3.04h2.1v-2.45h-2.1zm0 3.04h2.1v-2.46h-2.1zm6.07 3.6c-1.41-.71-2.7-1.3-3.86-1.78l.35-.56c1.45.62 2.75 1.19 3.88 1.72zm-1.25-9.09h-2.1v2.45h2.1zm-2.09 5.49h2.1v-2.46h-2.1z" fill="#fcfbfa"/><g fill="#010105"><path d="m123.44 285.2c0-64.15 0-128.04 0-193.2 10.45 2.96 20.83 5.51 30.91 8.94 4.34 1.48 4.3 6.03.17 8.41-3.11 1.79-6.7 2.83-10.17 3.89-2.43.74-3.35 1.87-3.34 4.53.12 50.98.03 101.97.28 152.95.05 9.61 1.52 19.22 2.07 28.84.52 9.06-6.93 14.06-15.17 9.98-1.95-.97-3.39-3.89-4.09-6.2-.69-2.28-.15-4.94-.15-8.27-1.97 0-3.71 0-5.46 0-18.99 0-37.99-.14-56.98.09-4.86.06-9.8.92-14.55 2.06-8.25 1.99-12.35-1.19-12.35-10.38-.03-48.15-.01-96.3-.01-144.46 0-16.27 0-32.54 0-49.26 8.68 2.22 18.32 4.42 27.77 7.28 2.25.68 3.85 3.54 5.75 5.4-1.98 2.02-3.89 4.13-5.99 6.02-.68.61-1.85.7-2.8.98-8.13 2.41-8.14 2.4-8.14 10.65v155.45 6.3h27.16c0-84.11 0-167.98 0-252.11 8.18 1.91 16.42 3.78 24.62 5.8 2.07.51 4.14 1.32 6 2.37 4.44 2.5 4.54 6.77.04 9.25-2.72 1.49-5.84 2.62-8.9 3.04-4.19.57-4.79 2.69-4.78 6.42.12 44.99.08 89.97.08 134.96v83.97 6.29c9.68.01 18.88.01 28.03.01z"/><path d="m177.59 52.72c2.63 1.73 5.31 3.11 7.53 5.02 6.06 5.22 12.62 6.46 20.63 5.25 28.27-4.29 56.39-9.11 83.45-18.61 10.62-3.73 20.94-8.32 31.99-12.76 4.97 6.44 10.3 13.03 15.21 19.92 1.16 1.63 1.87 4.88 1 6.27-.8 1.29-4.53 2.14-6.05 1.36-11.88-6.05-23.18-.63-34.71 1.1-20.99 3.14-42.02 6.15-63.08 8.81-11.7 1.48-23.51 2.06-35.24 3.3-1.46.16-3.91 1.87-3.95 2.93-.31 9.28-.18 18.58-.18 28.5h6.59c40.33 0 80.65-.08 120.98.11 4.76.02 8.21-.95 10.88-5.08 1.77-2.75 4.31-5.01 6.77-7.78 5.57 3.9 11.21 7.42 16.36 11.57 5.5 4.43 5.28 8.36-.93 11.49-5.34 2.69-7.21 6.09-6.83 12.05.55 8.63.18 17.32-.08 25.98-.09 3.02.73 4.99 3.36 6.5 2.15 1.24 4.38 2.64 5.92 4.51 1.1 1.33 1.84 3.76 1.39 5.31-.33 1.16-2.74 1.93-4.36 2.45-1.21.38-2.64.08-3.98.08-49.66 0-99.32 0-148.98 0-1.99 0-3.98 0-6.57 0-.11 1.94-.28 3.68-.29 5.42-.15 16.49.03 33-.49 49.48-.99 31.31-5.72 61.81-20.6 90.01-7.89 14.96-17.56 28.61-28.83 41.17-.42.47-1 .81-1.67 1.33-.76-.51-1.45-.92-2.08-1.42-.9-.72-1.76-1.49-2.79-2.38 11.31-17.07 20.47-35.11 26.68-54.51 6.92-21.63 10.71-43.96 11.17-66.59 1.02-50.27 1.25-100.57 1.76-150.85.1-9.77.02-19.55.02-29.94zm17.17 107.66h135.85c0-15.54 0-30.63 0-45.95-45.39 0-90.47 0-135.85 0z"/><path d="m205.51 209.07c28.06 4.79 55.43 1.89 82.64 3.14 11.17.51 20.56-1.45 28.09-10.03.95-1.08 2.39-1.74 4.14-2.98 5.57 4.9 11.44 9.53 16.65 14.8 5.06 5.12 3.6 9.23-3.31 11.12-.8.22-1.61.58-2.42.59-10.3.13-17.97 5.55-25.58 11.8-27.03 22.22-53.56 44.97-76.71 71.33-4.23 4.82-7.99 10.27-10.9 15.97-3.84 7.51-1.84 12.57 6.09 15.34 6.52 2.27 13.44 3.86 20.3 4.56 25.54 2.6 51.13 2.29 76.7.08 2.64-.23 5.26-.77 7.87-1.24 9.72-1.75 11.51-9.4 12.75-17.36 1.86-11.96 3.6-23.93 5.39-35.86 6.55-.55 7.05-.12 6.89 6.05-.22 8.47-.52 16.95-.68 25.42-.13 6.61 2.37 11.87 7.94 15.73 8.45 5.84 8.23 12.99-1.5 16.34-10.39 3.57-21.47 6.37-32.38 6.9-25.41 1.24-50.92 1.44-76.36.98-11.49-.21-23.3-1.69-34.3-4.89-16.46-4.8-22.79-18.87-16.09-34.75 3.28-7.78 8.37-15.22 14.1-21.48 24.44-26.66 51.05-51.11 78.71-74.41 1.12-.95 2.19-1.96 3.96-3.56-2.03-.23-3.23-.48-4.44-.48-19.16-.02-38.32-.15-57.48.06-6.29.07-12.58.92-18.85 1.66-2.97.35-4.95.09-6.06-3.26-1.23-3.72-3.18-7.23-5.16-11.57z"/></g></svg>