<svg enable-background="new 0 0 400 400" viewBox="0 0 400 400" xmlns="http://www.w3.org/2000/svg"><path d="m6.44 374.46.42-.45c.65.47 1.27.95 1.85 1.44l-.45.49c-.65-.56-1.25-1.06-1.82-1.48m.93 7.33-.63-.26c.55-1.36 1.05-2.8 1.52-4.33.19.1.38.19.59.27-.46 1.29-.95 2.73-1.48 4.32m-.38-10.38.44-.42c.43.34 1.01.82 1.74 1.44l-.49.49c-.53-.51-1.09-1.01-1.69-1.51m2.5.35h1.72v-1.04h.59v1.04h3.52v-1.04h.59v1.04h1.75v.53h-1.75v1.42h-2.03v.97h3.22v2.03h-3.24c0 .35-.01.66-.03.93h3.32v.53h-3.37c-.03.27-.08.58-.15.94h3.96v.53h-3.71c.67.92 1.93 1.48 3.79 1.68-.13.24-.23.44-.29.59-2.13-.38-3.48-1.08-4.04-2.12-.43.97-1.77 1.72-4.03 2.23-.09-.19-.2-.37-.33-.55 2.1-.42 3.37-1.03 3.81-1.83h-3.36v-.53h3.58c.08-.29.13-.61.16-.94h-3.33v-.53h3.39c.02-.27.04-.58.04-.93h-3.23v-2.03h3.25v-.97h-2.07v-1.42h-1.73zm1.12 3.44v1h2.65c.01-.3.02-.44.01-.4v-.25-.35zm1.19-2h3.52v-.91h-3.52zm4.71 2h-2.63v.59c0 .15-.01.28-.01.4h2.64z" fill="#fcfbfa"/><path d="m13.56 383.74h.63v1.52h2.72v6.07h1.13v.6h-11.06v-.6h1.13v-6.07h2.73v-1.52h.63v1.52h2.1v-1.52zm-2.69 8.83.38.56c-1.24.63-2.53 1.25-3.85 1.85-.1-.21-.21-.42-.34-.63 1.36-.55 2.63-1.15 3.81-1.78m-2.13-4.27h2.1v-2.45h-2.1zm0 3.04h2.1v-2.46h-2.1zm2.72-3.04h2.1v-2.45h-2.1zm0 3.04h2.1v-2.46h-2.1zm6.07 3.6c-1.41-.71-2.7-1.3-3.86-1.78l.35-.56c1.45.62 2.75 1.19 3.88 1.72zm-1.25-9.09h-2.1v2.45h2.1zm-2.09 5.49h2.1v-2.46h-2.1z" fill="#fcfbfa"/><g fill="#010105"><path d="m147.59 77.86c8.26 2.23 17.13 4.35 25.79 7.15 2.24.72 5.49 3.81 5.26 5.37-.34 2.33-3.35 4.27-5.23 6.37-.1.11-.3.13-.46.19-9.54 3.8-9.54 3.8-9.54 13.88v224.99 6.69h78.2c0-62.39 0-124.78 0-187.36-1.26 0-2.53-.02-3.8 0-4.48.09-6.61 2.03-7.87 6.75-10.28 38.68-23.79 76.07-45.77 109.9-1.17 1.79-2.12 3.72-2.7 6.95 12.96-3.27 25.91-6.53 39.76-10.02-2.74-10.45-5.24-19.99-7.83-29.86 1.17-.74 2.55-1.62 4.29-2.72 10.27 17.24 21.49 33.9 21.51 54.93 0 3.36-.58 7.12-2.2 9.94-1.12 1.94-4.43 3.37-6.89 3.6-3.27.31-4.76-2.5-5.18-5.6-.85-6.23-1.68-12.45-2.61-19.34-3.09 1.52-5.97 3.01-8.91 4.38-7.23 3.37-14.41 6.84-21.75 9.95-3.36 1.42-5.36 3.14-5.94 7.05-.43 2.95-.08 7.87-4.5 7.61-2.09-.12-4.38-3.84-5.84-6.36-2.33-4.01-3.62-8.64-6.11-12.51-3.23-5.02-1.9-8.79 1.04-13.44 16.03-25.36 26.25-53.25 34.51-81.92.17-.58-.04-1.26-.08-2.15-3.34 1.69-6.37 3.41-9.56 4.77-5.31 2.27-9.39 5.23-9.87 11.73-.13 1.73-2.2 3.32-3.38 4.97-1.73-1.32-4.17-2.26-5.08-4.01-3.44-6.63-6.46-13.49-9.44-20.34-.51-1.18-.56-3.09.05-4.17 9.31-16.44 12.65-34.88 17.26-52.81 5.03-19.58 8.73-39.49 13.18-60.03 8.15 3.11 16.79 6.21 25.22 9.83 1.45.62 2.74 3.48 2.65 5.23-.06 1.26-2.51 3.39-3.94 3.43-9.03.3-11.02 5.72-13.26 13.59-7.64 26.82-16.54 53.29-29.8 78.01-.38.7-.63 1.46-1.57 3.65 11.02-2.5 20.93-4.66 30.77-7.11.92-.23 1.7-2.21 2.01-3.51 3.23-13.72 6.34-27.46 9.54-41.41 7.24 3.01 14.54 6.05 22.01 9.16 0-37.46 0-74.37 0-112.47 9.63 2.78 19.35 5.16 28.73 8.47 4.84 1.71 5.02 5.59.78 8.71-2.46 1.81-5.53 3.19-8.52 3.76-3.59.68-4.46 2.22-4.43 5.68.17 17.66.08 35.33.08 53v224.99 6.94h79.92c0-62.97 0-126.15 0-189.72-3.81.81-7.59 1.33-11.14 2.53-1.26.43-2.54 2.38-2.84 3.84-6.93 32.81-18.15 64.17-32.16 94.54-3.89 8.42-8.7 16.42-13.63 25.61 12.93-3.99 24.98-7.71 37.98-11.72-2.62-10.18-5.11-19.89-7.71-29.99l4.02-2.68c9.95 15.61 18.87 31.44 21.47 49.95.57 4.02.45 8.25-.12 12.28-.56 4-3.54 6.68-7.56 6.76-3.76.07-5.98-2.72-6.69-6.32-.51-2.58-.65-5.24-.88-7.87-.3-3.42-.53-6.85-.82-10.62-11.53 5.56-22.47 10.76-33.3 16.17-1.21.61-2.09 2.34-2.62 3.75-.87 2.31-1.08 4.89-2.02 7.16-1.54 3.73-4.89 4.31-6.68.88-3.75-7.21-6.99-14.7-10.1-22.21-.44-1.06.86-3.02 1.64-4.39 15.61-27.3 25.15-56.92 34.37-88.5-6.4 3.51-11.76 6.01-16.56 9.32-1.63 1.12-1.68 4.37-2.75 6.5-1.04 2.08-2.45 3.98-3.7 5.96-1.8-1.5-4.26-2.64-5.3-4.56-3.4-6.28-6.38-12.8-9.28-19.33-.56-1.26-.46-3.16.05-4.48 2.23-5.68 5.19-11.12 7.07-16.9 8.93-27.51 15.32-55.65 20.51-84.08.68-3.75 1.15-7.54 1.85-12.14 8.89 3.34 17.57 6.39 26.02 9.97 1.49.63 2.8 3.5 2.75 5.29-.03 1.26-2.48 3.5-3.88 3.53-9.87.16-10.97 6.93-13.49 14.55-7.92 23.92-17.13 47.43-25.91 71.06-.97 2.62-2.46 5.04-3.11 8.96 9.22-2.12 18.49-4.08 27.62-6.54 1.23-.33 2.2-3.06 2.58-4.83 2.49-11.68 4.77-23.41 7.14-35.11.36-1.77.81-3.52 1.32-5.71 8.71 3.58 17.1 7.02 26.77 10.99-.59-21.75-1.17-42.76-1.78-64.97 9.7 2.8 19.25 5.17 28.51 8.39 4.64 1.61 5.12 6.1 1.05 8.86-3.59 2.43-8.04 3.6-12.52 5.5-.02.17-.19.99-.19 1.8.02 74.83.01 149.66.14 224.49.02 10.14.94 20.28 1.1 30.42.11 6.59-2.4 9.49-8.49 11.11-5.09 1.35-8.11-.84-8.22-6.07-.08-3.78-.02-7.57-.02-11.75-2.65 0-4.62 0-6.6 0-53.83 0-107.66-.03-161.5.08-3.37.01-6.74 1.23-10.11 1.84-2.6.47-5.2 1.05-7.82 1.26-4.03.32-6.41-1.85-6.67-5.76-.26-3.8-.06-7.65.09-11.47.49-12.29 1.5-24.58 1.53-36.87.16-61.16.07-122.33.07-183.5.02-13.03.02-26.13.02-39.74z"/><path d="m106.94 304.17c-3.8 0-6.93 0-10.07 0-14 0-27.99-.08-41.99.08-2.54.03-5.24.66-7.59 1.67-8.08 3.45-13.45.22-13.45-8.5-.03-60.49.01-120.97-.06-181.46-.01-5.92-.55-11.85-.87-18.45 9.61 2.63 18.62 4.85 27.43 7.66 2.17.69 5.03 3.21 5.19 5.09.16 1.9-2.52 4.16-4.2 6.04-.71.79-2.02 1.08-3.12 1.45-8.04 2.7-8.05 2.69-8.05 11.33v158.96 6.36h19.29c0-85.31 0-170.67 0-256.49 9.11 2.4 18.28 4.62 27.29 7.36 2.02.61 4.86 3.05 4.86 4.66.01 2.05-2.1 4.65-4 6.01-2.21 1.57-5.13 2.4-7.86 2.93-2.96.57-3.68 2.03-3.63 4.81.15 7.5.05 15 .05 22.49v201.96 6.32h20.29c0-64.72 0-129.41 0-195.16 9.66 2.63 19.31 4.82 28.62 7.98 5.29 1.79 5.3 6.8.42 9.79-2.22 1.36-4.82 2.47-7.38 2.86-4.21.64-5.06 2.73-5.05 6.74.15 45.32-.04 90.65.18 135.97.07 14.12 1.2 28.24 1.66 42.36.1 2.94-.23 6.01-1.03 8.83-1.26 4.42-5.65 6.22-11.54 5.26-4.38-.71-5.5-3.73-5.41-7.63.06-2.18.02-4.34.02-7.28z"/></g></svg>