<svg enable-background="new 0 0 400 400" viewBox="0 0 400 400" xmlns="http://www.w3.org/2000/svg"><g fill="#010000"><path d="m260.26 263.41c-.1 1.74-.25 3.2-.25 4.65.04 20-.13 40 .26 59.99.21 10.79 1.52 21.56 2.09 32.35.42 7.83-2.41 10.62-10.12 10.66-6.74.03-9.4-2.54-9.41-9.3-.02-30.66-.01-61.33-.01-91.99 0-1.96 0-3.93 0-6.17-1.71-.17-2.99-.42-4.27-.4-24.31.3-48.62.54-72.93 1.07-3.7.08-5.87-.55-7-4.33-.97-3.27-2.63-6.33-4.42-10.52 29.87 5.73 58.98 2.75 88.3 3.74 0-20.16 0-39.74 0-59.68-1.3-.14-2.56-.39-3.83-.39-24.33.01-48.66.01-72.99.13-4.48.02-8.96.85-13.42.71-1.67-.05-3.99-1.37-4.8-2.8-2.04-3.57-3.4-7.54-5.36-12.14 25.38 5.7 50.51 3.5 74.9 3.95-2.58-10.62-4.94-20.87-7.56-31.06-4.79-18.61-14.21-35.02-24.47-51.04-1.01-1.58-1.18-3.71-2.1-6.75-5.8.28-13.02.44-20.19 1.07-3.41.3-5.14-.71-6.22-3.94-1.2-3.61-2.93-7.04-4.63-11.01 31.55 6.49 63.07 2.47 96.09 4.05-4.61-10.18-7.81-19.88-13.12-28.23-5.38-8.45-12.86-15.55-19.81-23.71.58-.81 1.59-2.22 2.95-4.12 15.23 9.82 30.4 19.12 40.5 34.44 4.28 6.5 5.42 13.48 1.59 21.29h21.29c11.83 0 23.67.17 35.49-.14 2.47-.07 5.4-1.38 7.24-3.08 5-4.62 9.52-9.75 14.67-15.13 7.77 6.93 15.52 13.66 22.97 20.69 1.12 1.06 1.65 3.98.99 5.32-.64 1.31-3.15 2.35-4.86 2.37-13 .19-26 .11-38.99.11-1.57 0-3.14 0-4.71 0-.08.37-.16.73-.24 1.1 3.94 1.97 7.88 3.93 11.81 5.9 1.93.97 4.07 1.7 5.71 3.03 1.43 1.16 2.31 3.01 3.43 4.56-1.59 1.07-3.22 3.1-4.78 3.05-7.09-.26-9.64 4.26-12.68 9.61-10.92 19.21-22.41 38.1-33.69 57.11-.74 1.25-1.49 2.49-2.71 4.51h16.43c9.33 0 18.68-.26 27.99.11 4.29.17 7.07-1.4 9.96-4.28 4.57-4.55 9.62-8.63 14.79-13.19 6.47 5.81 13.99 12.34 21.19 19.2 1.25 1.19 2.17 4.45 1.43 5.57-.99 1.51-3.73 2.6-5.72 2.61-33.5.15-66.99.11-100.49.11-1.97 0-3.94 0-6.23 0v59.65c1.24.09 2.66.27 4.08.27 17 .02 34 .12 50.99-.12 2.31-.03 5-1.35 6.8-2.9 5.27-4.55 10.17-9.51 15.56-14.64 7.27 6.5 14.9 13.15 22.25 20.09 1.11 1.04 1.81 4.06 1.11 5.09-.95 1.42-3.42 2.53-5.25 2.54-17.83.18-35.66.11-53.49.11-12.33 0-24.66-.01-37 .01-1.61.02-3.23.15-5.11.24zm-32.39-80.49c15.3 0 29.55.08 43.81-.15 1.22-.02 2.93-1.94 3.54-3.35 7.95-18.41 16.11-36.76 23.44-55.42 3.71-9.45 5.88-19.52 8.79-29.48-40.14 0-79.4 0-119.27 0 5.22 6.54 10.27 12.3 14.69 18.52 8.74 12.3 17.85 24.44 25.44 37.44 5.75 9.85 8.05 20.93-.44 32.44z"/><path d="m118.14 100.46c8.87 3.65 17.24 6.86 25.35 10.61 1.91.88 4.15 3.69 4.05 5.49-.09 1.57-3.26 4.18-5.1 4.2-9.15.11-13.24 5.72-17.47 12.86-9.31 15.71-19.6 30.85-29.81 46.72 3.03 1.41 6.41 2.7 9.47 4.54 1.49.89 3.22 2.77 3.28 4.26.06 1.53-1.51 4.18-2.85 4.54-7.89 2.11-8.25 7.57-8.19 14.44.32 42.83.12 85.66.4 128.48.06 9.28 1.41 18.56 2.09 27.84.26 3.54.59 7.96-3.42 9-4.07 1.06-8.84.94-12.89-.19-1.62-.45-2.98-4.96-2.99-7.62-.18-44.33-.13-88.66-.13-132.99 0-11.64 0-23.27 0-34.9-16.18 12.57-32.18 25.01-48.5 37.68-2.08-2.48-3.32-3.96-4.87-5.82 42.13-34.89 72.44-77.94 91.58-129.14z"/><path d="m30.73 126.55c33.78-26.13 59.05-58.13 75.76-97.25 8.61 3.62 16.94 6.87 24.99 10.71 1.77.85 3.55 3.82 3.47 5.74-.06 1.49-3 2.86-4.67 4.28-.11.09-.32.1-.48.09-10.38-.73-15.25 6.35-20.39 13.71-19.32 27.65-43.67 49.95-72.7 67.13-.7.41-1.44.77-2.58 1.37-1.13-1.92-2.19-3.73-3.4-5.78z"/></g><path d="m362.1 8.8c1.1.8 2.1 1.6 3.1 2.4l-1 1.1c-1.3-1.1-2.3-2-3-2.5zm1.9 4.8c.5.2.9.4 1.4.5-.6 2.3-1.3 4.5-1.9 6.8l-1.5-.5c.8-2.1 1.4-4.3 2-6.8zm-1-9.4c1.3.9 2.4 1.8 3.4 2.5l-1 1.1c-1.4-1.2-2.4-2.1-3.2-2.6zm3.7 2.2v-1.4h10.3v1.2c-.5 3.6-1.8 6.8-4 9.4 1.5 1.6 3.4 2.8 5.7 3.8-.3.4-.7.8-1.1 1.4-2.3-1.1-4.1-2.5-5.6-4.1-1.6 1.6-3.6 3.1-5.9 4.3-.3-.5-.7-.9-1-1.3 2.4-1.1 4.4-2.5 6-4.1-1.9-2.5-3-5.6-3.3-9.3h-1.1zm8.8 0h-6.4c.3 3.3 1.3 6 3 8.2 2-2.3 3.1-5.1 3.4-8.2z" fill="#fbfafa"/><path d="m385.3 3.8h1.3v2.2h2.8v-2.2h1.3v2.2h4.1v9.1h1.7v1.3h-16.9v-1.3h1.7v-9.1h4.1v-2.2zm.4 13.1.7 1.2c-1.8.9-3.8 1.9-6 2.9-.2-.4-.5-.8-.8-1.3 2.3-1 4.3-1.9 6.1-2.8zm-3.1-6.4h2.8v-3.2h-2.8zm0 4.6h2.8v-3.3h-2.8zm4-4.6h2.8v-3.2h-2.8zm0 4.6h2.8v-3.3h-2.8zm3.7 1.9c2.1.9 4.1 1.8 6.1 2.7l-.7 1.3c-2.2-1.1-4.2-2-6.1-2.9zm3.2-9.7h-2.8v3.2h2.8zm-2.8 7.8h2.8v-3.3h-2.8z" fill="#fbfafa"/></svg>