<svg enable-background="new 0 0 400 400" viewBox="0 0 400 400" xmlns="http://www.w3.org/2000/svg"><path d="m374.8 390.4.4-.4c.7.5 1.3 1 1.8 1.4l-.5.5c-.5-.6-1.1-1.1-1.7-1.5zm1 7.3-.6-.3c.5-1.4 1.1-2.8 1.5-4.3.2.1.4.2.6.3-.5 1.3-1 2.8-1.5 4.3zm-.4-10.3.4-.4c.4.3 1 .8 1.7 1.4l-.5.5c-.4-.5-1-1-1.6-1.5zm2.5.3h1.7v-1h.6v1h3.5v-1h.6v1h1.8v.5h-1.8v1.4h-2v1h3.2v2h-3.2v.9h3.3v.5h-3.4c0 .3-.1.6-.1.9h4v.5h-3.7c.7.9 1.9 1.5 3.8 1.7-.1.2-.2.4-.3.6-2.1-.4-3.5-1.1-4-2.1-.4 1-1.8 1.7-4 2.2-.1-.2-.2-.4-.3-.6 2.1-.4 3.4-1 3.8-1.8h-3.4v-.5h3.6c.1-.3.1-.6.2-.9h-3.3v-.5h3.4c0-.3 0-.6 0-.9h-3.2v-2h3.3v-1h-2.1v-1.4h-1.7v-.5zm1.1 3.5v1h2.7c0-.3 0-.4 0-.4 0-.2 0-.2 0-.2 0-.1 0-.2 0-.3h-2.7zm1.2-3v.9h3.5v-.9zm4.7 3h-2.6v.6.4h2.6z" fill="#fbfafc"/><path d="m393.6 386.7h.6v1.5h2.8v6.1h1.1v.6h-11.1v-.6h1.1v-6.1h2.7v-1.5h.6v1.5h2.1v-1.5zm-2.7 8.8.4.6c-1.2.6-2.5 1.3-3.8 1.9-.1-.2-.2-.4-.3-.6 1.2-.6 2.5-1.2 3.7-1.9zm-2.2-6.7v2.4h2.1v-2.4zm0 3v2.5h2.1v-2.5zm2.8-3v2.4h2.1v-2.4zm0 3v2.5h2.1v-2.5zm6 6.1c-1.4-.7-2.7-1.3-3.9-1.8l.3-.6c1.5.6 2.7 1.2 3.9 1.7zm-1.2-9.1h-2.1v2.4h2.1zm-2.1 3v2.5h2.1v-2.5z" fill="#fbfafc"/><g fill="#010100"><path d="m146.93 112.51c14.6 11.75 30.29 14.75 47.64 11.7 0-11.48 0-23.49 0-36.28-18.05.51-35.96 1.01-54.52 1.53-1.89-4.26-3.99-8.99-5.62-12.68 19.89.97 39.87 1.95 60.01 2.93 0-16.87 0-32.59 0-49.18 7.41 1.63 14.92 3.23 22.39 4.97 2.41.56 4.99 1.07 7.03 2.35 1.76 1.11 3.76 3.16 3.97 4.99.18 1.54-1.71 4.01-3.32 4.91-2.84 1.59-6.27 2.09-9.25 3.48-1.31.61-2.99 2.25-3.04 3.47-.27 7.81-.14 15.63-.14 24.14 9.19 0 18.12.15 27.03-.15 1.43-.05 2.9-2.03 4.15-3.31 4.3-4.4 8.51-8.89 13.01-13.61 7.71 5.84 15.36 11.37 22.64 17.36 1.52 1.25 2.53 4.33 2.16 6.26-.24 1.23-3.44 2.65-5.33 2.67-19.16.2-38.33.12-57.5.12-1.81 0-3.61 0-5.8 0v36.73c9.41 0 18.85.09 28.28-.11 1.2-.03 2.54-1.42 3.51-2.46 3.52-3.75 6.91-7.62 10.69-11.82 6.12 4.14 12.35 7.98 18.13 12.38 5.82 4.42 5.58 10.5-1.1 12.71-8.55 2.84-9.26 8.18-9.05 15.79.5 17.99.27 36 .08 53.99-.04 3.85.71 6.76 4.24 8.65 1.01.54 2.15 1.25 2.66 2.19.9 1.66 1.36 3.56 2 5.35-1.64.53-3.28 1.5-4.93 1.51-16.33.11-32.67.07-49 .07-1.78 0-3.57 0-5.89 0 0 7.51-.14 14.47.12 21.42.05 1.32 1.44 2.85 2.6 3.82 11.35 9.52 23.32 18.38 33.99 28.6 6.22 5.95 10.95 13.72 15.24 21.3 2.03 3.57 1.85 8.61 1.94 13 .08 3.8-2.31 6.64-6.03 7.68-3.73 1.04-7.56.65-9.87-2.85-2.08-3.15-3.81-6.62-5.15-10.15-6.82-17.94-17.93-32.79-32.52-46.25-.15 2.15-.33 3.55-.33 4.96-.02 26.17-.09 52.33.04 78.5.03 6.81.83 13.61 1.01 20.42.13 5.11-2.69 8.24-7.87 8.27-5.55.03-9.29-1.25-9.84-6.79-.2-1.98-.39-3.97-.39-5.96-.02-32.83-.02-65.66-.02-99.45-22.18 32.76-46.7 62.16-79.8 84.18-1.26-1.58-2.53-3.18-3.93-4.94 17.37-16.32 33.14-33.66 45.87-53.45 12.62-19.62 25.93-38.97 33.27-62.04-9.34 0-17.93 0-27.23 0 0 3.64.09 7.08-.02 10.51-.16 5.21-10.25 10.63-14.43 7.53-1.22-.9-1.7-3.44-1.71-5.23-.11-22.17-.07-44.33-.07-66.5 0-16.83 0-33.67 0-50.5 0-1.64 0-3.26 0-6.73zm99.32 100.36c0-26.38 0-52.29 0-78.25-11.54 0-22.74 0-33.79 0v78.25zm-51.4-78.35c-10.75 0-20.97 0-31.4 0v78.1h31.4c0-26.15 0-51.93 0-78.1z"/><path d="m340.83 33.8c9 2.24 18.39 4.31 27.58 7.04 2.23.66 5.55 3.72 5.33 5.22-.35 2.34-2.94 4.92-5.25 6.22-2.96 1.67-6.58 2.17-11.07 3.53v22.95 259.97c0 17.57-12.4 30.5-30.12 31.19-1.06.04-3.04-1.91-3.15-3.07-.58-6.44-4.14-10.71-9.82-12.67-8.59-2.96-17.4-5.35-26.22-7.61-6.46-1.66-6.53-1.4-5.69-8.47 8.77 1.45 17.49 3.32 26.3 4.22 7.7.79 15.57 1.16 23.26.46 6.15-.56 8.33-4.05 8.8-10.29.11-1.49.05-3 .05-4.5 0-89.66 0-179.32 0-268.97 0-8.26 0-16.52 0-25.22z"/><path d="m70.59 203.2c-13.02 12.82-25.61 25.22-38.55 37.97-2.14-2.62-3.36-4.13-4.79-5.87 33.27-34.98 55.97-75.86 69.51-122.26 9.14 3.22 17.65 5.94 25.9 9.31 1.99.81 4.42 3.85 4.27 5.67-.14 1.76-3.35 4.67-5.2 4.66-9.51-.02-12.96 5.9-16.37 13.52-5.28 11.79-11.78 23.02-17.97 34.89 2.6 1.82 5.87 3.77 8.75 6.19 4.27 3.57 4.13 6.6-1.03 8.47-6.37 2.32-7.31 6.33-7.26 12.48.34 41.3.16 82.6.4 123.91.05 8.62.95 17.25 1.76 25.85 1.02 10.92-3.7 16.43-13.39 15.13-3.49-.47-5.97-2.01-5.92-6.03.02-1.83-.11-3.66-.11-5.49-.01-50.8-.01-101.59-.01-152.39.01-1.96.01-3.9.01-6.01z"/><path d="m290.62 61.09c10.57 2.74 20.22 5.05 29.72 7.85 1.85.55 4.43 3.03 4.38 4.55-.06 1.99-2.05 4.37-3.86 5.72-1.91 1.42-4.53 2.31-6.92 2.54-4.45.42-5.03 2.75-5.02 6.66.12 57.3.04 114.61.13 171.91.01 7.14.8 14.27.97 21.42.13 5.48-2.03 7.51-7.45 7.65-9.05.23-10.63-1.34-10.63-10.61-.04-67.63-.05-135.26-.15-202.89-.02-4.46-.69-8.9-1.17-14.8z"/><path d="m35.34 131.1c-4.38-3.44-3.94-5.97-.37-9.53 23.97-23.94 42.04-51.86 55.07-83.08.51-1.22 1.07-2.41 2.03-4.55 9.21 3.69 18.5 6.99 27.39 11.16 4.16 1.95 3.44 6.48-.95 8.13-2.77 1.04-5.74 1.78-8.68 2.12-4.05.46-6.35 2.64-8.32 6.05-15.93 27.58-37.77 49.67-63.62 67.97-.81.56-1.63 1.1-2.55 1.73z"/></g></svg>