<svg enable-background="new 0 0 400 400" viewBox="0 0 400 400" xmlns="http://www.w3.org/2000/svg"><path d="m374.8 390.4.4-.4c.7.5 1.3 1 1.8 1.4l-.5.5c-.5-.6-1.1-1.1-1.7-1.5zm1 7.3-.6-.3c.5-1.4 1.1-2.8 1.5-4.3.2.1.4.2.6.3-.5 1.3-1 2.8-1.5 4.3zm-.4-10.3.4-.4c.4.3 1 .8 1.7 1.4l-.5.5c-.4-.5-1-1-1.6-1.5zm2.5.3h1.7v-1h.6v1h3.5v-1h.6v1h1.8v.5h-1.8v1.4h-2v1h3.2v2h-3.2v.9h3.3v.5h-3.4c0 .3-.1.6-.1.9h4v.5h-3.7c.7.9 1.9 1.5 3.8 1.7-.1.2-.2.4-.3.6-2.1-.4-3.5-1.1-4-2.1-.4 1-1.8 1.7-4 2.2-.1-.2-.2-.4-.3-.6 2.1-.4 3.4-1 3.8-1.8h-3.4v-.5h3.6c.1-.3.1-.6.2-.9h-3.3v-.5h3.4c0-.3 0-.6 0-.9h-3.2v-2h3.3v-1h-2.1v-1.4h-1.7v-.5zm1.1 3.5v1h2.7c0-.3 0-.4 0-.4 0-.2 0-.2 0-.2 0-.1 0-.2 0-.3h-2.7zm1.2-3v.9h3.5v-.9zm4.7 3h-2.6v.6.4h2.6z" fill="#fbfafc"/><path d="m393.6 386.7h.6v1.5h2.8v6.1h1.1v.6h-11.1v-.6h1.1v-6.1h2.7v-1.5h.6v1.5h2.1v-1.5zm-2.7 8.8.4.6c-1.2.6-2.5 1.3-3.8 1.9-.1-.2-.2-.4-.3-.6 1.2-.6 2.5-1.2 3.7-1.9zm-2.2-6.7v2.4h2.1v-2.4zm0 3v2.5h2.1v-2.5zm2.8-3v2.4h2.1v-2.4zm0 3v2.5h2.1v-2.5zm6 6.1c-1.4-.7-2.7-1.3-3.9-1.8l.3-.6c1.5.6 2.7 1.2 3.9 1.7zm-1.2-9.1h-2.1v2.4h2.1zm-2.1 3v2.5h2.1v-2.5z" fill="#fbfafc"/><g fill="#010100"><path d="m256.62 255.07c-.05.93-.2 2.54-.2 4.15-.02 20-.34 40.01.11 59.99.31 13.61 1.53 27.21 2.68 40.79.94 11.04-4.03 12.47-14.56 10.71-1.85-.31-3.81-3.38-4.61-5.58-.8-2.22-.21-4.94-.22-7.44-.08-29.83-.15-59.66-.25-89.49 0-1.61-.15-3.22-.28-5.96-34.27 35.83-72.97 63.69-117.65 83.27-.53-.83-.93-1.35-1.22-1.93-.52-1.02-.99-2.08-1.65-3.49 42.58-23.46 78.6-54.33 108.66-94.1-10.44 0-19.39-.14-28.33.03-14.14.26-28.29.66-42.43 1.17-2.7.1-4.27-.45-5.26-3.2-1.27-3.55-3.09-6.9-4.39-9.71 30.58.77 61.07 1.54 92.07 2.32 0-18.93 0-36.95 0-55.26-14.82 0-29.56 0-45.04 0 0 9.63.02 19.06-.01 28.48-.02 7.78-3.55 11-11.2 10.2-3.77-.39-6.05-2.03-5.98-6.37.17-10.62.06-21.25.06-32.86-9.1.62-17.68.98-26.2 1.91-2.97.32-4.63.09-5.75-2.88-1.45-3.86-3.29-7.56-4.97-11.34 12.26 1.05 24.26 2.07 36.4 3.11 0-13.42 0-25.81 0-38.88 9.25 2.36 18.58 4.43 27.68 7.25 2.38.74 4.06 3.74 6.06 5.71-2.11 2.05-3.94 4.6-6.41 6.03-2.79 1.62-7.6 1.37-8.9 3.52-1.64 2.73-.65 7.05-.76 10.69-.05 1.47-.01 2.94-.01 4.75h45.21c0-18.44 0-36.69 0-54.79-.6-.3-.88-.57-1.17-.56-29.14.27-58.3.11-87.41 1.21-6.63.25-9.22-1.29-10.88-6.92-.69-2.35-2-4.51-3.48-7.74 34.54 5.69 68.53 3.12 102.86 3.8 0-13.1 0-25.65 0-37.85-28.94 2.17-57.72 4.32-86.66 6.49-.48-2.1-.75-3.02-.89-3.95-.12-.79-.09-1.6-.16-2.87 7.41-.87 14.61-1.82 21.84-2.53 41.25-4.09 82.08-10.23 121.1-25.04 8.22-3.12 16.16-6.99 24.12-10.75 2.39-1.13 3.97-1.41 6.12.62 5.08 4.79 10.66 9.07 15.63 13.96 1.51 1.49 1.72 4.31 2.52 6.52-2.21.67-4.76 2.42-6.57 1.84-11.19-3.58-21.45.13-32.09 2.76-15.58 3.85-31.4 6.71-47.44 10.06v40.29c1.21.15 2.17.36 3.12.36 20.17.02 40.33.08 60.5-.09 1.9-.02 4.15-1.08 5.61-2.37 5.51-4.83 10.76-9.94 16.73-15.52 6.97 6.33 14.84 13.14 22.29 20.39 2.9 2.81 1.44 6.16-2.55 6.91-1.61.31-3.32.17-4.98.17-31.83.04-63.66.08-95.49.11-1.62 0-3.24 0-5.19 0v55.5h45.67c0-12.86 0-25.57 0-39.05 10.49 2.52 21.44 3.32 31.23 8.49 3.81 2.02 3.84 6.08.04 8.33-2.93 1.74-6.37 2.74-9.69 3.69-2.73.78-4.25 1.81-4.01 5.04.32 4.3.08 8.64.08 12.88 8.31 2.31 10.56 1.55 15.16-4.9 2.02-2.83 4.09-5.63 6.4-8.81 7.21 5.51 14.3 10.71 21.07 16.3 1.32 1.09 2.34 4.07 1.77 5.49-.56 1.42-3.27 2.77-5.07 2.8-12.82.24-25.65.13-39.22.13v8.94c0 6.83.12 13.67-.06 20.5-.15 5.79-3.39 8.15-10.25 7.9-5.54-.2-6.92-1.76-6.93-7.95-.02-9.62-.01-19.24-.01-29.12-15.63 0-30.72 0-46.17 0v54.3c1.64.1 3.23.28 4.82.29 19.5.02 39 .12 58.5-.13 2.45-.03 5.29-1.47 7.24-3.1 5.21-4.37 10.04-9.2 15.55-14.35 7.15 6.45 14.97 13.35 22.55 20.52.97.92 1.43 3.95.73 4.73-1.22 1.35-3.54 2.36-5.41 2.37-18.83.15-37.66.07-56.5.06-13.33-.01-26.65 0-41.04 0 1.35 1.82 2.2 3.09 3.17 4.26 22.46 26.92 48.76 49.11 80.52 64.31 7.75 3.71 15.99 6.52 24.22 9.08 3.62 1.13 4.6 2.62 3.64 6.02-4.7 1.22-9.73 1.81-14.09 3.86-4.23 1.98-7.77 5.45-11.99 8.55-17.81-10.92-35.49-23.26-50.32-38.82-14.65-15.35-27.88-32.07-41.73-48.21z"/><path d="m96.07 55.61c0 13.93-.12 27.41.15 40.89.03 1.67 1.77 3.73 3.28 4.87 9.15 6.92 18.72 13.31 27.65 20.49 7.19 5.78 13.06 12.87 15.2 22.25.51 2.23.73 4.58.7 6.87-.05 3.97-2.32 6.54-5.98 7.72-3.64 1.17-7.11.54-9.36-2.69-1.89-2.69-3.8-5.63-4.64-8.75-4.18-15.42-14.94-25.98-26.55-36.88-.19 1.74-.43 2.94-.43 4.13.02 71.79-.05 143.59.21 215.38.04 10.59 1.46 21.2 2.57 31.77.96 9.14-2.14 12.79-11.29 12.48-5.84-.2-8.36-2.73-8.57-8.65-.05-1.33-.01-2.67-.01-4-.02-104.94-.04-209.89-.09-314.83 0-4.11-.37-8.23-.64-13.89 10.82 3.09 21.36 5.58 31.49 9.2 4.96 1.77 4.47 6.79-.68 9.19-4.01 1.9-8.41 2.92-13.01 4.45z"/><path d="m62.21 103.34c-1.38 19.31.19 38.63-5.43 57.13-1.97 6.49-6.31 12.26-9.61 18.34-.3.56-.93.95-1.43 1.39-6.08 5.32-13.14 6.4-17.13 2.61-4.01-3.81-3.29-8.78 1.82-16.14 5.86-8.43 12.94-16.46 16.71-25.78 3.96-9.8 5-20.88 6.62-31.5 1.04-6.83.48-6.92 8.45-6.05z"/></g></svg>