<svg enable-background="new 0 0 400 400" viewBox="0 0 400 400" xmlns="http://www.w3.org/2000/svg"><path d="m361.2 9.6.8-1c.9.7 1.9 1.4 2.9 2.3l-.9 1.1c-1-1-2-1.8-2.8-2.4zm.5 10.6c.9-2.1 1.6-4.3 2.3-6.7.4.2.8.4 1.3.6-.7 2.1-1.5 4.3-2.2 6.6zm.4-15.2.9-.9c1 .8 2 1.6 2.8 2.4l-1 1c-.9-.9-1.8-1.7-2.7-2.5zm12.5-1.2h1.2v1.4h2.7v1.1h-2.7v2.7h-1.2v-.6h-1.8v1.3h4.9v3.8h-1.2v-.5h-3.7c0 .4-.1.9-.1 1.2h5.1v1h-5.2c0 .5-.1.9-.2 1.2h6v1h-5.2c1.1 1.3 2.9 2 5.5 2.2-.4.4-.7.8-.9 1.3-2.9-.5-4.8-1.6-5.7-3.5h-.1c-.8 1.7-2.7 2.9-5.9 3.6-.2-.4-.6-.8-.9-1.1 2.8-.6 4.6-1.4 5.4-2.5h-4.8v-1h5.3c.1-.3.2-.7.2-1.2h-4.9v-1h5c0-.4 0-.8.1-1.3h-3.5v.5h-1.2v-3.7h4.9v-1.3h-1.8v.5h-1.2v-2.7h-2.7v-1h2.6v-1.4h1.2v1.4h4.7v-1.4zm-6.6 8.3h3.6c0-.4 0-.9 0-1.4h-3.6zm1.9-4.6h4.7v-1.3h-4.7zm6.6 3.2h-3.7v1.4h3.7z" fill="#fbfafc"/><path d="m385.3 3.8h1.3v2.2h2.8v-2.2h1.3v2.2h4.1v9.1h1.7v1.3h-16.9v-1.3h1.7v-9.1h4.1v-2.2zm.4 13.1.7 1.2c-1.8.9-3.8 1.9-6 2.9-.2-.4-.5-.8-.8-1.3 2.3-1 4.3-1.9 6.1-2.8zm-3.1-6.4h2.8v-3.2h-2.8zm0 4.6h2.8v-3.3h-2.8zm4-4.6h2.8v-3.2h-2.8zm0 4.6h2.8v-3.3h-2.8zm3.7 1.9c2.1.9 4.1 1.8 6.1 2.7l-.7 1.3c-2.2-1.1-4.2-2-6.1-2.9zm3.2-9.7h-2.8v3.2h2.8v-3.1zm-2.8 7.8h2.8v-3.3h-2.8z" fill="#fbfafc"/><g fill="#010000"><path d="m249.78 218.06c-1.79-1.64-3.35-3.07-5.32-4.88 24.12-31.01 38.94-66.13 48.28-104.98-8.35.48-15.84.37-23.13 1.51-4.88.76-7.41-.25-8.92-4.91-.95-2.94-2.58-5.65-4.06-8.78 14.2.86 27.75 1.69 41.49 2.52 0-22.34 0-43.74 0-66.41 10.19 2.86 20.33 5.54 30.32 8.69 1.55.49 3.42 3.18 3.33 4.76-.09 1.67-2.02 3.88-3.71 4.69-3.7 1.78-7.75 2.82-11.85 4.24v42.56c13.84 5.62 19.86-5.85 28.09-12.97 6.91 5.24 13.77 10.19 20.28 15.56 1.47 1.21 2.79 4.27 2.25 5.78-.53 1.46-3.54 2.81-5.48 2.85-13.33.25-26.66.13-39.99.15-1.63 0-3.26.13-5.33.23 0 10.12-.1 19.92.13 29.71.03 1.19 1.72 2.56 2.93 3.45 11.64 8.56 23.75 16.53 34.89 25.69 8.14 6.69 14.24 15.41 16.49 26.16.44 2.09.81 4.35.48 6.41-.66 4.06-2.27 7.79-6.73 9.08-4.6 1.33-7.41-1.61-9.33-4.98-3.94-6.92-7.17-14.25-11.16-21.13-7.05-12.18-16.35-22.54-27.34-32.46-.17 1.78-.36 2.84-.36 3.91 0 19.33-.2 38.66.15 57.99.18 10.29 1.48 20.55 1.95 30.84.28 6.27-2.7 8.67-9.86 8.76-6.74.08-9.52-2.35-9.66-8.48-.02-1 0-2-.01-3-.2-29.81-.39-59.62-.59-89.43-.01-.81-.07-1.62-.18-4.03-12.1 27.29-27.21 50.84-48.05 70.9z"/><path d="m78.36 107.97c-10.93.58-21.21.84-31.42 1.83-3.66.35-5.57-.28-6.8-3.7-1.18-3.25-2.72-6.38-4.22-9.83 16.33.77 32.3 1.53 48.7 2.3 0-22.31 0-43.83 0-66.5 10 2.84 19.98 5.12 29.52 8.6 5.39 1.97 5.02 6.7-.11 9.6-1.29.73-2.7 1.28-4.12 1.73-7.73 2.47-7.74 2.45-7.74 10.73v34.73c5.58.96 10.49 1.48 14.42-3.74 2.68-3.57 6.13-6.55 9.58-10.16 7.07 5.56 13.93 10.73 20.47 16.27 1.36 1.16 2.66 4.27 2.03 5.44-.84 1.57-3.56 2.93-5.5 2.98-11.66.27-23.33.14-34.99.14-1.8 0-3.6 0-5.98 0 0 8-.14 15.44.14 22.87.05 1.2 1.79 2.56 3.02 3.47 7.5 5.51 15.36 10.56 22.54 16.45 5.31 4.36 9.32 9.98 9.27 17.49-.03 4.49-2 7.94-6.23 9.21-4.26 1.28-6.82-1.88-8.79-5.08-1.38-2.25-2.3-4.78-3.35-7.22-3.6-8.36-8.78-15.52-16.02-21.87-.29 1.09-.59 1.67-.59 2.25.05 21.66-.13 43.33.3 64.98.2 10.11 1.46 20.21 2.41 30.31.59 6.33-2.04 9.96-8.2 10.75-6.84.87-10.48-1.54-11.44-7.75-.28-1.8-.26-3.65-.26-5.47-.01-30.66-.01-61.31-.4-92.15-11.72 31.27-28.43 59.44-50.89 84.18-3.85-3.03-4.44-5.75-1.45-10.27 22-33.19 36.43-69.63 45.48-108.3.24-.93.29-1.92.62-4.27z"/><path d="m145.5 112.8h34.29c5.32-25.04 10.44-49.16 15.7-73.98 8.31 2.62 16.85 5.08 25.18 8.12 1.97.72 4.19 3.21 4.51 5.18.21 1.33-2.62 3.26-4.25 4.74-.7.63-1.77 1.1-2.72 1.18-7.78.65-10.15 5.62-11.88 12.56-2.89 11.56-7.06 22.79-10.69 34.16-.6 1.86-1.22 3.71-2.1 6.37 8.8-.51 16.86-.98 25.65-1.49.56-8.15 1.11-16.19 1.72-25.04 8.76 2.04 17.12 3.79 25.34 6.06 1.64.45 4 3.1 3.77 4.32-.33 1.81-2.5 3.49-4.22 4.77-1.11.83-2.8 1.04-4.27 1.23-4.07.54-5.3 2.74-4.01 6.93 2.23-.13 4.59.07 6.78-.45 4.49-1.07 7.78-.87 7.13 5.37-2.34.67-4.99 1.82-7.74 2.13-5.79.65-8.73 2.8-9.39 9.38-2.19 22.07-10.06 42.56-19.18 62.59-.4.88-.69 1.81-1 2.63 6.72 5.96 13.74 11.38 19.72 17.77 4.57 4.89 8.2 10.8 11.5 16.68 2.19 3.9 1.11 8.58-2.2 11.47-2.05 1.79-5.91 3.07-8.37 2.4-2.8-.76-5.37-3.61-7.3-6.12-6.46-8.41-12.58-17.09-18.86-25.64-.97-1.32-2.15-2.47-3.6-4.12-15.95 20.11-35.68 34.34-58.29 45.83-1.07-2.08-1.93-3.77-2.96-5.77 19.23-13.95 36.97-29.15 50.69-49.72-11.5-8.22-22.8-16.31-34.3-24.52 4.56-12.81 9.22-25.87 13.93-39.11-8.38-.73-8.72-.49-11.04 6.37-.53 1.56-1.05 3.29-2.11 4.46-.99 1.08-2.79 2.2-4.06 2.03-1.3-.18-3.03-1.7-3.46-3-2.65-8.01-4.99-16.11-7.91-25.77zm55.28 68.23c7.89-19.52 14.3-39.1 17.47-60.51-9.88 1.84-19.11 3.51-28.3 5.34-.95.19-2.11 1.15-2.51 2.04-5.54 12.4-10.96 24.85-16.53 37.55 9.94 5.19 19.72 10.29 29.87 15.58z"/><path d="m123.71 258.1c10.47 2.76 20.11 5.06 29.56 7.98 1.99.62 4.6 3.6 4.52 5.39-.08 1.92-2.68 4.37-4.76 5.41-3.34 1.66-7.17 2.35-10.98 3.51 0 16.66-.18 33.14.1 49.6.09 5.44 3.89 9.07 9.06 9.88 10.79 1.7 21.67 3.56 32.55 3.88 20.26.58 40.56.17 60.84.03 4.81-.03 9.65-.41 14.42-1.07 14.28-1.98 20.16-8.08 22.84-23.45 1.45-8.34 2.74-16.7 4.16-25.05.24-1.43.77-2.81 1.27-4.57 2.33.48 4.39.9 6.92 1.42-.37 8.31-.61 16.42-1.14 24.52-.59 8.97 2.39 15.69 10.52 20.31 7.09 4.03 7.46 10.87.18 14.64-7.04 3.65-15.05 6.22-22.91 7.34-30.58 4.35-61.43 3.53-92.19 2.95-14.39-.27-28.92-1.43-43.08-3.92-14.97-2.64-20.73-11.23-20.77-26.53-.05-18.98-.1-37.97-.26-56.95-.05-4.76-.52-9.51-.85-15.32z"/><path d="m307.21 277.72c2.7-5.39 5.62-5.34 9.99-2.18 13.87 10.05 28.62 18.96 40.2 31.88 5.96 6.64 10.85 13.92 12.25 22.96.37 2.38.25 4.99-.33 7.32-1.2 4.82-4.02 8.75-9.28 9.15-5.09.39-8.29-3.1-10.15-7.47-3.44-8.08-6.19-16.48-10.01-24.37-6.81-14.08-18.13-24.52-29.63-34.7-1.01-.88-2.03-1.72-3.04-2.59z"/><path d="m74.98 272.92c1.62.09 2.64.03 3.59.23 1.1.24 2.14.71 3.46 1.17-1.98 19.8-3.96 39.46-13.43 57.38-5.46 10.33-13.16 18.11-25.28 19.85-2.95.42-6.39-.03-9.12-1.19-4.86-2.07-5.91-7.13-2.38-11.12 2.61-2.95 5.69-5.7 9.06-7.73 18.24-11.03 29.16-26.79 32.06-48.01.46-3.42 1.3-6.8 2.04-10.58z"/><path d="m177.78 256c.65-1.29 1.04-2.19 1.54-3.02.59-.98 1.28-1.91 2.3-3.39 19.3 8.34 39.26 15.51 53.29 32.42 4.43 5.33 7.38 11.62 5.17 18.81-2.44 7.94-10.68 9.74-16.37 3.69-1.79-1.9-3.47-4.16-4.43-6.56-7.27-18.29-21.19-30.17-37.65-39.7-1.14-.64-2.27-1.32-3.85-2.25z"/></g></svg>