<svg enable-background="new 0 0 400 400" viewBox="0 0 400 400" xmlns="http://www.w3.org/2000/svg"><g fill="#010000"><path d="m31.88 228.01c18-.91 34.97-1.76 51.24-2.58-1.89-5.45-3.67-10.53-5.4-15.63-2.9-8.52-7.05-16.33-12.97-23.58-1.43 7.4-8.32 10.94-14.75 7.71-1.36-.68-2.88-2.73-2.89-4.16-.18-22.09-.13-44.19-.13-66.9 6.24 2.87 11.85 5.69 17.66 8.03 2.83 1.14 6.02 1.94 9.05 1.96 25.98.15 51.97.01 77.95.17 3.87.03 6.56-.92 8.8-4.14 2.16-3.12 4.86-5.88 7.69-9.24 5.92 4.19 11.85 8.1 17.43 12.45 3.95 3.08 3.68 6.24-.19 9.48-.88.74-1.84 1.6-2.9 1.89-6.85 1.88-8.13 6.73-7.34 12.96.29 2.3.35 4.71-.01 6.98-.85 5.28 1.1 8.94 5.71 11.42 2.56 1.38 4.78 3.72 3.08 6.34-1.24 1.92-4.34 3.57-6.68 3.67-9.14.42-18.3.17-27.81 1.02 4.15 1.97 8.3 3.94 12.44 5.93 3.27 1.57 7.7 2.87 6.97 7.29-.79 4.78-5.75 3.14-9.06 4.05-2.4.66-5.18 1.36-6.86 2.99-4.95 4.81-9.44 10.1-14.34 15.46 18-1.88 36.23-3.79 54.76-5.73.52 2.02.99 3.86 1.62 6.34-10.75 1.99-21.27 4.18-31.86 5.87-27.52 4.4-55.07 8.61-82.62 12.81-6.24.95-12.52 1.63-18.8 2.25-3.89.38-7.23 1.11-7.29 6.03-.01.82-.05 1.81-.49 2.42-1.19 1.65-2.44 4.15-3.99 4.41-1.5.26-4.15-1.43-5.01-2.97-4.44-7.94-8.44-16.1-13.01-25zm126.38-84.56c-31.51 0-62.7 0-93.8 0v31.07h93.8c0-10.55 0-20.78 0-31.07zm-64.46 81.41c10.59-.75 20.29-1.39 29.97-2.21.9-.08 2.09-1.18 2.47-2.09 4.86-11.56 9.6-23.17 14.53-35.15-22.16 0-43.09 0-62.38 0 4.26 4.82 9.28 10.14 13.9 15.78 5.82 7.12 9.42 14.7 1.51 23.67z"/><path d="m40.5 109.52c-2.09-4.6-4.2-9.26-6.11-13.47 22.78.86 45.57 1.72 68.8 2.6 0-9.56 0-18.12 0-26.79-.45-.21-.88-.6-1.3-.59-21.28.55-42.55 1.07-63.83 1.77-2.69.09-4.26-.37-5.24-3.11-1.39-3.85-3.25-7.53-4.49-10.33 24.8.65 49.69 1.3 74.74 1.95 0-11.65 0-22.4 0-33.9 10.38 2.57 21.54 3.15 31.4 8.66 3.65 2.04 3.75 5.71.19 7.9-2.77 1.71-6.01 3.04-9.2 3.57-4.19.7-5.68 2.57-5.1 6.65.27 1.93.05 3.93.05 6.56 9.53 0 18.69-.66 27.7.18 9.48.89 16.8-1.66 22.33-9.4 1.35-1.89 2.96-3.6 4.69-5.69 7.66 5.9 14.73 11.12 21.48 16.74 1.3 1.08 2.24 4.04 1.69 5.5-.53 1.38-3.24 2.7-5 2.72-21.99.18-43.99.12-65.98.12-1.99 0-3.98 0-6.44 0v26.75c11.47 0 22.77.08 34.07-.1 1.4-.02 3-1.22 4.13-2.27 4.22-3.96 8.28-8.1 12.51-12.28 6.56 4.98 13.19 9.73 19.45 14.94 1.73 1.44 2.33 4.24 3.45 6.41-2.33 1.13-4.66 3.22-7 3.23-41.65.22-83.31.12-124.96.27-7.12.04-14.24.89-22.03 1.41z"/><path d="m124.83 254.9c10.68 3 20.8 5.38 30.57 8.77 5.33 1.85 5.19 6.83.01 9.55-3.03 1.59-6.67 1.99-9.78 3.46-1.39.65-3.08 2.6-3.08 3.96.01 16.98.19 33.96.58 50.93.14 5.99 2.54 8.79 8.41 9.16 11.57.74 23.18.97 34.78 1.26 12.48.31 24.96.78 37.43.6 13.95-.2 27.89-.88 41.82-1.67 7.35-.41 12.09-4.66 13.45-11.89 2.45-13.04 4.54-26.14 6.86-39.67 1.06.14 2.76.38 4.11.56 0 10.65.25 21.09-.08 31.51-.24 7.43 2.17 13.06 8.07 17.73 7.14 5.65 6.13 11.18-2.46 14.52-11.38 4.43-23.45 4.51-35.4 4.66-29.97.37-59.94.61-89.91.56-8.95-.02-17.9-1.03-26.83-1.83-10.96-.98-17.1-7.59-17.53-18.59-.17-4.33-.21-8.66-.26-12.99-.26-21.48-.51-42.95-.76-64.43-.01-1.62 0-3.24 0-6.16z"/><path d="m271.11 104.32c7.53 1.13 15.59 2.29 23.62 3.6 1.76.29 3.57.87 5.13 1.73 4.22 2.36 4.18 5.84.06 8.43-.56.35-1.13.87-1.74.93-8.3.93-10.81 5.9-10.95 13.77-.14 8.11-1.75 16.18-2.31 24.29-.1 1.4 1.5 3.34 2.83 4.37 16.42 12.72 33.13 25.09 49.35 38.07 7.15 5.72 13.28 12.76 16.28 21.72 1.24 3.7 1.69 7.76 1.88 11.69.2 4.02-1.94 7.57-5.83 8.28-2.67.49-6.58-.36-8.46-2.16-3.4-3.24-6.28-7.36-8.37-11.61-11.47-23.35-29.03-41.64-48.01-58.8-.47-.43-1.11-.67-2.4-1.43-10.12 40.19-39.58 61.68-74.98 78.21-1.15-1.75-2.36-3.58-2.81-4.27 12.23-10.36 24.67-19.63 35.59-30.43 16.93-16.74 25.54-37.91 27.9-61.45 1.47-14.84 2.15-29.74 3.22-44.94z"/><path d="m251.26 76.93h61.28c6.83 0 13.68-.24 20.49.08 4.86.23 8.63-.77 11.53-5.05 1.74-2.57 4.39-4.51 7.11-7.22 6.43 5.03 13.17 9.83 19.32 15.29 4.3 3.82 2.72 9.26-2.97 9.77-7.53.67-11.45 4.9-15.46 10.63-7.89 11.29-16.63 21.98-25.3 33.29-2.66-2.11-4.55-3.6-6.23-4.93 6.28-13.52 12.41-26.7 18.84-40.55-2.74-.12-4.19-.24-5.64-.24-28.33-.01-56.66.05-84.99-.09-3.27-.02-4.89 1.16-6.74 3.75-9.26 12.99-18.81 25.78-28.33 38.59-1.45 1.96-3.31 3.62-5.15 5.6-1.87-1.53-3.38-2.77-5.47-4.49 21.3-30.92 35.93-64.61 42.55-102.14 9.78 3.38 19.09 6.3 28.12 9.93 2.09.84 4.35 4.04 4.42 6.22.05 1.56-3.41 3.25-5.34 4.83-.36.29-.96.48-1.42.42-9.11-1.22-11.57 5.31-14.18 11.9-1.82 4.61-4.03 9.06-6.44 14.41z"/><path d="m305.27 274.13c1.59-1.74 2.81-3.07 4.62-5.05 8.18 5.62 16.79 10.7 24.4 16.99 8.94 7.39 17.47 15.41 25.26 23.99 3.73 4.11 6.11 9.94 7.63 15.4 1.01 3.63.28 8.32-1.18 11.93-2.98 7.36-11.06 8.06-15.96 1.74-1.6-2.07-3.03-4.52-3.71-7.01-6.18-22.56-19.53-40.14-37.46-54.62-1.15-.94-2.17-2.03-3.6-3.37z"/><path d="m80.31 271.53c-1.99 18.91-2.67 38.28-12.25 55.6-5.68 10.28-13.52 18.51-25.6 21.41-6.27 1.51-11.01-.06-12.89-4.38-2.29-5.24-.77-10.11 4.67-13.7 8.44-5.57 17.22-10.51 23.7-18.73 8.65-10.98 11.92-23.87 14.7-37.06 1.19-5.61 1.38-5.7 7.67-3.14z"/><path d="m183.6 253.94c1.17-1.96 2.17-3.63 3.72-6.22 11.61 5.77 23.41 10.97 34.49 17.39 6.93 4.01 13.14 9.49 19 15.02 4.56 4.3 6.68 10.21 6.59 16.7-.07 4.98-2.21 8.75-6.78 10.66-4.53 1.9-8.01-.48-10.95-3.71-1.22-1.34-2.48-2.79-3.17-4.42-7.98-18.66-22.53-31.28-38.73-42.41-1.33-.91-2.62-1.89-4.17-3.01z"/></g><path d="m362.1 8.8c1.1.8 2.1 1.6 3.1 2.4l-1 1.1c-1.3-1.1-2.3-2-3-2.5zm1.9 4.8c.5.2.9.4 1.4.5-.6 2.3-1.3 4.5-1.9 6.8l-1.5-.5c.8-2.1 1.4-4.3 2-6.8zm-1-9.4c1.3.9 2.4 1.8 3.4 2.5l-1 1.1c-1.4-1.2-2.4-2.1-3.2-2.6zm3.7 2.2v-1.4h10.3v1.2c-.5 3.6-1.8 6.8-4 9.4 1.5 1.6 3.4 2.8 5.7 3.8-.3.4-.7.8-1.1 1.4-2.3-1.1-4.1-2.5-5.6-4.1-1.6 1.6-3.6 3.1-5.9 4.3-.3-.5-.7-.9-1-1.3 2.4-1.1 4.4-2.5 6-4.1-1.9-2.5-3-5.6-3.3-9.3h-1.1zm8.8 0h-6.4c.3 3.3 1.3 6 3 8.2 2-2.3 3.1-5.1 3.4-8.2z" fill="#fbfafa"/><path d="m385.3 3.8h1.3v2.2h2.8v-2.2h1.3v2.2h4.1v9.1h1.7v1.3h-16.9v-1.3h1.7v-9.1h4.1v-2.2zm.4 13.1.7 1.2c-1.8.9-3.8 1.9-6 2.9-.2-.4-.5-.8-.8-1.3 2.3-1 4.3-1.9 6.1-2.8zm-3.1-6.4h2.8v-3.2h-2.8zm0 4.6h2.8v-3.3h-2.8zm4-4.6h2.8v-3.2h-2.8zm0 4.6h2.8v-3.3h-2.8zm3.7 1.9c2.1.9 4.1 1.8 6.1 2.7l-.7 1.3c-2.2-1.1-4.2-2-6.1-2.9zm3.2-9.7h-2.8v3.2h2.8zm-2.8 7.8h2.8v-3.3h-2.8z" fill="#fbfafa"/></svg>