<svg enable-background="new 0 0 400 400" viewBox="0 0 400 400" xmlns="http://www.w3.org/2000/svg"><path d="m6.44 374.46.42-.45c.65.47 1.27.95 1.85 1.44l-.45.49c-.65-.56-1.25-1.06-1.82-1.48m.93 7.33-.63-.26c.55-1.36 1.05-2.8 1.52-4.33.19.1.38.19.59.27-.46 1.29-.95 2.73-1.48 4.32m-.38-10.38.44-.42c.43.34 1.01.82 1.74 1.44l-.49.49c-.53-.51-1.09-1.01-1.69-1.51m2.5.35h1.72v-1.04h.59v1.04h3.52v-1.04h.59v1.04h1.75v.53h-1.75v1.42h-2.03v.97h3.22v2.03h-3.24c0 .35-.01.66-.03.93h3.32v.53h-3.37c-.03.27-.08.58-.15.94h3.96v.53h-3.71c.67.92 1.93 1.48 3.79 1.68-.13.24-.23.44-.29.59-2.13-.38-3.48-1.08-4.04-2.12-.43.97-1.77 1.72-4.03 2.23-.09-.19-.2-.37-.33-.55 2.1-.42 3.37-1.03 3.81-1.83h-3.36v-.53h3.58c.08-.29.13-.61.16-.94h-3.33v-.53h3.39c.02-.27.04-.58.04-.93h-3.23v-2.03h3.25v-.97h-2.07v-1.42h-1.73zm1.12 3.44v1h2.65c.01-.3.02-.44.01-.4v-.25-.35zm1.19-2h3.52v-.91h-3.52zm4.71 2h-2.63v.59c0 .15-.01.28-.01.4h2.64z" fill="#fcfbfa"/><path d="m13.56 383.74h.63v1.52h2.72v6.07h1.13v.6h-11.06v-.6h1.13v-6.07h2.73v-1.52h.63v1.52h2.1v-1.52zm-2.69 8.83.38.56c-1.24.63-2.53 1.25-3.85 1.85-.1-.21-.21-.42-.34-.63 1.36-.55 2.63-1.15 3.81-1.78m-2.13-4.27h2.1v-2.45h-2.1zm0 3.04h2.1v-2.46h-2.1zm2.72-3.04h2.1v-2.45h-2.1zm0 3.04h2.1v-2.46h-2.1zm6.07 3.6c-1.41-.71-2.7-1.3-3.86-1.78l.35-.56c1.45.62 2.75 1.19 3.88 1.72zm-1.25-9.09h-2.1v2.45h2.1zm-2.09 5.49h2.1v-2.46h-2.1z" fill="#fcfbfa"/><g fill="#010105"><path d="m41.04 259.85c-6.09-10.98-11.43-20.61-17.17-30.96 7.09-1.38 13.54-2.57 19.95-3.9 11.37-2.35 22.73-4.79 34.09-7.19 2.45-.52 4.01-1.32 3.99-4.49-.15-28.32-.1-56.65-.12-84.98 0-.48-.16-.97-.38-2.27-1.81 0-3.72-.04-5.63.01-11.97.31-23.96.47-35.92 1.05-4 .19-6.48-.6-7.74-4.72-1.01-3.3-2.71-6.4-3.92-9.15 17.54 1.17 35.13 2.34 53.13 3.54 0-30.82 0-60.52 0-91.12 3.14.68 6.42 1.31 9.66 2.12 6.27 1.56 12.63 2.88 18.7 5.03 2.18.77 5.17 3.79 5.01 5.53-.19 2.06-3.34 3.89-5.32 5.69-.57.51-1.53.61-2.32.85-8.64 2.63-8.64 2.62-8.64 11.83v53.49 5.73c4.99 0 9.32.27 13.59-.13 1.72-.16 3.59-1.51 4.9-2.82 4.95-4.92 9.71-10.04 15-15.58 7.85 7.1 15.65 14 23.19 21.18.99.94 1.43 3.99.7 4.87-1.17 1.4-3.53 2.48-5.41 2.51-15.33.19-30.66.11-45.99.11-1.79 0-3.58 0-5.63 0v86.23c18.3-6.45 35.93-12.66 53.76-18.94 2.7 3.71 1.87 6.42-2.61 8.54-15.78 7.44-31.42 15.16-47.27 22.45-3.26 1.5-4.34 3.12-4.32 6.62.12 35.66.09 71.31.07 106.97-.01 17.73-8.88 28.05-27.21 31.19-.46-1.59-.96-3.26-1.43-4.94-2.15-7.68-6.85-12.79-14.75-14.7-6.91-1.67-13.82-3.36-20.8-5.05-.95-7.43-.71-7.64 6.28-6.67 9.37 1.3 18.76 2.56 28.15 3.73 8.33 1.04 13.13-2.82 13.15-10.89.08-31.66.03-63.32.02-94.97 0-.79-.18-1.57-.37-3.09-4.37 1.54-8.39 2.95-12.4 4.38-3.75 1.34-7.41 3.01-11.25 4-6.6 1.7-12.02 4.12-12.51 12.2-.1 1.74-2.07 3.4-4.23 6.71z"/><path d="m219.23 195.59c-14.85 0-28.46-.2-42.05.15-3.16.08-4.89-.06-5.95-3.31-1.22-3.72-2.99-7.25-4.54-10.92 10.82.95 21.18 1.87 31.55 2.77 1.82.16 3.64.29 5.47.29 31.33.02 62.66-.08 93.99.12 4.45.03 7.54-1.21 10.19-4.69 2.4-3.16 5.27-5.97 8.3-9.35 6.19 4.1 12.44 7.82 18.22 12.19 5.45 4.12 5.12 7.91-.34 11.99-.53.4-1.02.99-1.62 1.15-7.88 2.06-8.57 7.66-8.4 14.75.76 31.67-1.88 63.18-6.1 94.52-2.05 15.2-5.46 30.2-15.45 42.59-8.71 10.81-20.31 16.17-34.59 17.55-1.91-13.46-12.48-16.41-23.09-19.37-6.21-1.73-12.37-3.67-18.72-5.56.42-2.21.78-4.12 1.21-6.4 9.44 2.09 18.73 4.3 28.1 6.15 4.71.93 9.53 1.3 14.32 1.76 10.32.99 17.09-4.43 21.91-12.76 6.48-11.17 9.03-23.67 10.09-36.24 2.22-26.5 3.65-53.07 5.24-79.62.36-6.08.05-12.19.05-18.63-1.43-.11-2.88-.31-4.33-.31-20.33-.02-40.67.08-61-.1-3.96-.03-5.22 1.02-5.74 5.16-4.07 32.31-9.02 64.5-22.18 94.65-12.52 28.69-34.07 49.27-60.28 65.43-4.67 2.88-9.37 5.71-14.07 8.55-.56.34-1.19.58-2.13 1.04-1.13-1.57-2.26-3.14-3.63-5.05 5.31-4.06 10.32-8.11 15.55-11.87 36.01-25.85 54.76-62.12 62.59-104.68 3.15-17.26 5-34.77 7.43-51.95z"/><path d="m377.87 151.75v6.14c-10.52.1-19.57 2.92-24.38 14.09-42.7-30.05-75.6-67.82-99.67-114.73-24.82 49-61.53 85.89-105.81 116.72-1.3-1.75-2.53-3.4-3.8-5.1 45.65-38.24 82.51-82.29 98.49-141.62 10.04 4.28 19.5 8.19 28.8 12.44 1.27.58 2.52 2.93 2.4 4.34-.12 1.39-1.76 3.25-3.16 3.79-3.34 1.29-6.94 1.91-11.2 3 28.9 46.19 65.47 82.59 118.33 100.93z"/></g></svg>