<svg enable-background="new 0 0 400 400" viewBox="0 0 400 400" xmlns="http://www.w3.org/2000/svg"><path d="m6.44 374.46.42-.45c.65.47 1.27.95 1.85 1.44l-.45.49c-.65-.56-1.25-1.06-1.82-1.48m.93 7.33-.63-.26c.55-1.36 1.05-2.8 1.52-4.33.19.1.38.19.59.27-.46 1.29-.95 2.73-1.48 4.32m-.38-10.38.44-.42c.43.34 1.01.82 1.74 1.44l-.49.49c-.53-.51-1.09-1.01-1.69-1.51m2.5.35h1.72v-1.04h.59v1.04h3.52v-1.04h.59v1.04h1.75v.53h-1.75v1.42h-2.03v.97h3.22v2.03h-3.24c0 .35-.01.66-.03.93h3.32v.53h-3.37c-.03.27-.08.58-.15.94h3.96v.53h-3.71c.67.92 1.93 1.48 3.79 1.68-.13.24-.23.44-.29.59-2.13-.38-3.48-1.08-4.04-2.12-.43.97-1.77 1.72-4.03 2.23-.09-.19-.2-.37-.33-.55 2.1-.42 3.37-1.03 3.81-1.83h-3.36v-.53h3.58c.08-.29.13-.61.16-.94h-3.33v-.53h3.39c.02-.27.04-.58.04-.93h-3.23v-2.03h3.25v-.97h-2.07v-1.42h-1.73zm1.12 3.44v1h2.65c.01-.3.02-.44.01-.4v-.25-.35zm1.19-2h3.52v-.91h-3.52zm4.71 2h-2.63v.59c0 .15-.01.28-.01.4h2.64z" fill="#fcfbfa"/><path d="m13.56 383.74h.63v1.52h2.72v6.07h1.13v.6h-11.06v-.6h1.13v-6.07h2.73v-1.52h.63v1.52h2.1v-1.52zm-2.69 8.83.38.56c-1.24.63-2.53 1.25-3.85 1.85-.1-.21-.21-.42-.34-.63 1.36-.55 2.63-1.15 3.81-1.78m-2.13-4.27h2.1v-2.45h-2.1zm0 3.04h2.1v-2.46h-2.1zm2.72-3.04h2.1v-2.45h-2.1zm0 3.04h2.1v-2.46h-2.1zm6.07 3.6c-1.41-.71-2.7-1.3-3.86-1.78l.35-.56c1.45.62 2.75 1.19 3.88 1.72zm-1.25-9.09h-2.1v2.45h2.1zm-2.09 5.49h2.1v-2.46h-2.1z" fill="#fcfbfa"/><g fill="#010105"><path d="m87.5 227.06c-9.12 3.2-17.84 6.25-26.56 9.31-1.25.44-2.45 1.14-3.73 1.38-6.72 1.29-11.39 4.37-12.23 11.9-.19 1.66-2.46 3.09-3.77 4.62-1.51-1.34-3.51-2.39-4.44-4.05-4.39-7.82-8.48-15.8-13.03-24.4 7.26-1.35 14.21-2.43 21.06-3.96 13.27-2.95 26.5-6.07 39.69-9.35 1.31-.33 3.19-2.21 3.2-3.37.18-27.8.14-55.6.14-84.14-2.75 0-5.17-.05-7.59.01-12.8.34-25.61.59-38.41 1.13-3.23.14-4.83-1.02-5.9-3.89-1.33-3.57-2.97-7.02-4.17-9.78 18.36 1.08 36.91 2.17 55.58 3.26 0-29.42 0-57.46 0-86.09 9.6 2.42 19.12 4.6 28.48 7.37 2.1.62 4.98 3.28 5 5.03.02 1.96-2.41 4.65-4.46 5.77-3.29 1.8-7.15 2.56-11.06 3.86v62.79c7.54 1.32 14.28 1.31 19.24-6.09 2.73-4.07 6.66-7.34 10.46-11.42 7.3 6.74 14.45 13.16 21.33 19.86 1.19 1.16 2.22 4.28 1.56 5.16-1.17 1.55-3.69 2.86-5.67 2.89-14.49.24-28.99.13-43.48.13-.99 0-1.98 0-3.34 0v81.94c15.79-5.64 31.32-11.2 47.07-16.83.56 1.73 1.1 3.43 1.7 5.3-12.76 9.46-27.12 15.6-41.48 21.67-7.57 3.2-7.66 2.99-7.66 11.17 0 33.82.02 67.65-.03 101.47-.01 4.65-.3 9.3-.57 13.94-.85 14.57-12.05 26.05-26.96 27.44-.27-.66-.74-1.37-.84-2.13-1.44-10.86-8.49-15.95-18.45-18.15-5.99-1.32-11.95-2.77-18.51-4.29.37-2.36.76-4.84 1.16-7.41 10.39 1.45 20.22 2.84 30.05 4.18 1.97.27 3.97.48 5.96.49 7.76.06 10.98-3.04 11-10.82.06-19.66.02-39.32.02-58.98 0-14.16.01-28.32-.01-42.49-.04-1.26-.21-2.54-.35-4.43z"/><path d="m279.65 128.64c9.05 2.14 17.6 4.13 26.13 6.21 1.59.39 3.2.97 4.62 1.8 4.27 2.49 4.63 6.35.44 8.96-2.88 1.79-6.4 2.64-9.71 3.63-2.64.79-4.04 1.77-4.04 5.02.06 58.83-.04 117.66-.07 176.49 0 6.81 3.76 11.53 10.87 11.87 11.43.55 22.93.56 34.35-.07 7.19-.4 11.42-5.09 12.61-13.36 2.3-15.94 4.01-31.96 5.97-47.95.12-.97.17-1.96.27-3.21h6.04c0 3.8.01 7.4 0 11-.04 12.5.07 25-.21 37.49-.11 5.06 1.86 8.45 5.86 11.3 8 5.69 7.48 13.18-1.85 16.13-8.74 2.77-18.09 4.28-27.27 4.86-12.74.81-25.56.33-38.35.2-3.29-.03-6.64-.57-9.85-1.33-10.58-2.52-15.46-9.48-15.47-21.86-.02-53.83.06-107.66-.05-161.49-.03-14.64-.6-29.28-.9-43.93.01-.44.31-.9.61-1.76z"/><path d="m203.29 127.03c9.62 2.45 18.85 4.54 27.88 7.29 2.28.69 4.98 3.28 5.45 5.44.32 1.44-2.94 3.71-4.68 5.52-.43.44-1.18.59-1.79.83-9.08 3.62-8.89 3.63-9.12 13.32-.56 23.28-.91 46.58-2.12 69.83-1.41 27.08-6.57 53.33-19.88 77.46-13.96 25.31-39.98 49.87-64.78 60.65-.87-1.46-1.78-2.96-2.6-4.33 7.66-6.81 15.28-13.02 22.25-19.87 25.09-24.66 41.19-54.1 45.67-89.26 1.66-13 2.8-26.12 3.12-39.22.67-27.11.64-54.24.87-81.37.03-1.9-.16-3.82-.27-6.29z"/><path d="m344.54 69.25c-54.07 0-106.35 0-158.62 0-1.26 6.14-1.65 12.45-3.93 17.97-2.53 6.14-6.25 12.02-10.5 17.14-2.15 2.59-6.49 3.82-10.07 4.65-4.66 1.07-8.04-1.34-9.59-5.94-1.69-5.03.51-8.73 4.37-11.6 10.02-7.45 18.01-16.3 20.24-29.12.71-4.08 1.05-8.22 1.55-12.33.27-2.26.51-4.52.78-6.9h5.39c.46 5.15.92 10.2 1.43 15.88h5.84c48.49 0 96.97-.07 145.46.11 4.91.02 8.61-.87 11.42-5.09 1.64-2.47 3.88-4.54 6.25-7.24 6.62 5.6 13.33 10.95 19.66 16.73 4.3 3.92 3.12 7.66-2.48 9.35-.16.05-.33.12-.49.11-8.81-.61-13.07 5.4-17.62 11.55-7.1 9.62-14.69 18.87-22.28 28.54-1.83-1.15-3.16-1.98-4.37-2.73 5.81-13.62 11.51-26.95 17.56-41.08z"/></g></svg>