<svg enable-background="new 0 0 400 400" viewBox="0 0 400 400" xmlns="http://www.w3.org/2000/svg"><path d="m152.95 339.45c11.02 1.24 21.65 2.44 32.42 3.65 0-45.44 0-90.14 0-135.93 9.87 2.6 19.64 4.95 29.23 7.88 1.87.57 4.21 3.41 4.22 5.21.01 1.78-2.56 3.67-4.19 5.33-.65.66-1.77.9-2.71 1.22-8.92 3-8.93 3-8.92 12.53.02 32.49.04 64.99.07 97.48v5.74h55.54c0-61.12 0-122.2 0-183.87-1.66-.09-3.41-.27-5.17-.27-18-.02-36-.13-53.99.05-6.13.06-12.31.53-18.37 1.45-4.65.7-7.58-.16-9.07-4.97-.91-2.97-2.55-5.72-4.3-9.51 30.54 5.75 60.61 2.63 90.91 3.6 0-25.95 0-51.34 0-76.98-28.4 4.61-56.64 8.23-85.4 9.44-.54-4.36-1.5-7.19 4.5-7.84 33.57-3.62 66.78-9.09 98.34-21.85 14.37-5.81 28.38-12.3 40.59-22.04 2.31-1.85 3.98-2.12 6.43-.12 5.54 4.52 11.42 8.63 17 13.11 1.62 1.3 3.18 3.09 3.91 4.98 1.15 2.95.17 5.29-3.5 5.53-1.16.08-2.39.32-3.49.06-7.66-1.77-14.62.69-21.76 3.01-11.83 3.85-23.85 7.11-35.71 10.86-1.41.45-3.32 2.43-3.33 3.71-.17 25.49-.09 50.99-.05 76.48 0 .3.21.6.57 1.53 4.53 0 9.3-.01 14.08 0 10.66.02 21.33.17 31.99-.05 2.04-.04 4.5-1.07 5.99-2.47 5.81-5.46 11.31-11.26 17.39-17.4 8.25 6.86 16.38 13.37 24.14 20.3 1.36 1.21 2.24 4.81 1.42 6.13-1 1.63-4 2.83-6.14 2.85-27.66.18-55.32.12-82.99.12-1.97 0-3.93 0-6.23 0v73.55c.77.18 1.69.59 2.6.59 13.16.04 26.33.16 39.49-.1 1.99-.04 4.33-1.49 5.85-2.96 4.88-4.75 9.45-9.82 14.67-15.33 8.15 6.47 16.26 12.73 24.1 19.33 1.11.94 1.63 3.82 1.03 5.19-.59 1.32-2.9 2.07-4.6 2.64-1.2.4-2.64.07-3.97.08-25.31.2-50.62.39-75.94.6-.98.01-1.95.11-3.24.19v100.26c.97.15 2.07.45 3.16.46 14.5.03 29 .11 43.49-.09 1.85-.03 4.16-1.13 5.42-2.51 5.17-5.63 10.02-11.55 15.28-17.7 8.99 6.85 17.95 13.45 26.57 20.47 1.38 1.12 1.94 4.26 1.56 6.21-.27 1.41-2.59 2.75-4.27 3.44-1.44.59-3.28.25-4.94.25-60.99.03-121.98.02-182.97.12-5.47.01-10.95.82-16.42.89-1.47.02-3.63-.93-4.3-2.1-2.25-3.94-4-8.21-5.99-12.43z" fill="#010100"/><path d="m28.75 216.01c16.69-3.47 32.61-6.68 48.48-10.12 6-1.3 11.93-2.97 17.77-4.83 1.23-.39 2.8-2.34 2.8-3.58.16-26.15.12-52.31.12-79.26-9.31 0-18.4-.14-27.48.05-6.81.14-13.62.83-20.43.93-1.39.02-3.43-1.12-4.08-2.31-1.96-3.62-3.38-7.52-4.85-10.95 18.72.93 37.35 1.85 56.32 2.8 0-28.11 0-55.29 0-82.95 9.37 2.38 18.76 4.48 27.93 7.3 2.35.72 4.01 3.71 5.98 5.66-2.12 2.06-3.95 4.63-6.44 6.04-2.81 1.59-7.66 1.22-8.98 3.35-1.67 2.69-.8 7.03-.81 10.66-.05 16.15-.02 32.29-.02 48.71 5.26.99 9.61 1.03 13.51-3.53 4.09-4.77 9.07-8.77 14.2-13.61 7.16 6.44 14.87 13.18 22.27 20.26 1.06 1.01 1.25 3.91.6 5.39-.5 1.15-2.93 2.04-4.51 2.06-13.33.16-26.66.09-39.99.09-1.8 0-3.6 0-5.74 0v77.63c17.84-6.43 35.29-12.73 52.77-19.04 2.89 4.02 1.58 6.45-2.55 8.4-15.45 7.29-30.77 14.87-46.3 21.99-3.26 1.49-4.36 3.04-4.35 6.56.12 40.66.08 81.32.08 121.98 0 19.71-7.89 29.32-27.26 33.24-.25-.2-.69-.37-.72-.6-1.73-12.3-9.21-18.55-21.11-20.35-3.27-.49-6.48-1.42-9.72-2.12-6.94-1.51-6.94-1.5-4.79-9.07 8.08 1.17 16.23 2.38 24.39 3.53 3.45.48 6.9 1.01 10.37 1.22 7.53.45 11.59-3.35 11.68-10.9.09-7.83.02-15.66.02-23.5 0-28.5 0-56.99 0-85.49 0-1.82 0-3.64 0-6.18-3.34 1.08-6.25 1.96-9.13 2.96-10.67 3.71-21.26 7.65-32.02 11.06-3.57 1.13-4.85 3.07-5.82 6.39-.86 2.94-2.89 5.54-4.4 8.29-2.14-2.3-4.76-4.32-6.32-6.96-4.01-6.82-7.57-13.92-11.47-21.2z" fill="#010100"/><g fill="#fafbfa"><path d="m6.4 11.7c-1-.8-1.9-1.6-2.9-2.3l.6-.7c.9.7 1.9 1.4 2.9 2.2zm-2.1 8.3c.7-2.1 1.4-4.2 2-6.4.2.1.6.3 1 .4-.7 2.3-1.3 4.4-1.9 6.4zm3-12.8c-1.1-.9-2.1-1.7-2.9-2.4l.6-.7c1 .8 2 1.5 3 2.4zm1.4-1.3v-.9h10.2v.9c-.9 4.2-2.3 7.3-4.1 9.4 1.3 1.4 3.2 2.7 5.7 4-.2.2-.4.5-.7.9-2.5-1.4-4.4-2.7-5.7-4.2-1.4 1.5-3.5 3-6.1 4.4 0 0 0 0-.1-.1-.3-.4-.5-.7-.7-.8 2.7-1.3 4.7-2.8 6.2-4.2-1.8-2.2-3-5.3-3.7-9.4zm9.2 0h-7.1c.6 3.8 1.7 6.7 3.4 8.7 1.7-2 2.9-4.8 3.7-8.7z"/><path d="m31.6 3.6h.9v2.3h4.1v9.1h1.7v.9h-16.6v-.9h1.7v-9.1h4.1v-2.3h.9v2.3h3.1v-2.3zm-4 13.3.6.8c-1.9.9-3.8 1.9-5.8 2.8-.2-.3-.3-.6-.5-.9 2-.9 3.9-1.8 5.7-2.7zm-3.2-10.1v3.7h3.1v-3.7zm0 4.5v3.7h3.1v-3.7zm4.1-4.5v3.7h3.1v-3.7zm0 4.5v3.7h3.1v-3.7zm9.1 9.1c-2.1-1.1-4.1-2-5.8-2.7l.5-.8c2.2.9 4.1 1.8 5.8 2.6zm-1.9-13.6h-3.1v3.7h3.1zm-3.2 4.5v3.7h3.1v-3.7z"/></g></svg>