<svg enable-background="new 0 0 400 400" viewBox="0 0 400 400" xmlns="http://www.w3.org/2000/svg"><g fill="#010100"><path d="m318.25 309.9c-23.7 0-46.61 0-70.54 0 .62 12.55 1.2 24.46 1.8 36.36.19 3.82.59 7.63.63 11.45.07 5.77-2.81 8.27-9.23 8.35-7.19.09-9.86-2.02-9.88-8.11-.06-14-.02-27.99-.02-41.99 0-1.8 0-3.6 0-5.45-23.31 0-46.22 0-69.64 0-.53-1.28-1.31-3.13-2.49-5.96-6.66 27.19-19.39 49.81-38.77 68.57-4.2-2.35-4.54-4.74-2.04-8.56 15.36-23.42 25.81-48.99 28.38-76.88 2.13-23.15 1.79-46.53 2.5-69.81.12-4.11.02-8.22.02-13.11 5.91 3.92 11.13 7.67 16.65 10.91 2.28 1.34 5.2 2.22 7.83 2.23 43.32.08 86.65-.06 129.97-.01 3.31 0 5.62-.83 7.6-3.55 2.43-3.33 5.28-6.36 8.19-9.81 5.96 4.27 11.76 8.12 17.21 12.43 4.49 3.55 4.15 8.65-1.19 10.57-6.8 2.45-7.69 6.81-7.24 13 1.54 20.87 2.32 41.81 4.3 62.64.97 10.17 5.34 19.54 12.45 27.23 4.89 5.3 8.77 4.8 10.85-2.09 3.26-10.78 5.61-21.84 8.36-32.78.12-.46.32-.91.63-1.76 2.08.47 4.11.93 6.77 1.53-.9 7.46-1.91 14.81-2.65 22.19-.78 7.74-2 15.54-1.69 23.26.18 4.36 3.32 8.54 4.62 12.94.78 2.66 1.83 6.83.54 8.14-1.96 1.99-6.01 3.22-8.88 2.79-11.8-1.76-20.57-8.69-27.88-17.82-8.83-11-13.9-23.72-17.16-36.9zm-152.16-50.02c-2.01 13.49-3.81 25.52-5.69 38.11 23.54 3.47 47.02 1.44 70.32 2.07 0-10.63 0-20.38 0-29.96-20.46 0-40.64 0-61.19 0-.9-2.7-1.95-5.81-3.44-10.22zm64.75-31.4c-21.46 0-42.89 0-64.44 0v30.18c21.66.59 42.95 1.16 64.44 1.74 0-11.27 0-21.39 0-31.92zm85.03 72.45c-1.21-11.03-2.31-21.12-3.42-31.19-21.19 0-42.37 0-63.63 0v30.26c13.37 0 26.33.07 39.29-.1 1.39-.02 3.02-1.13 4.09-2.19 3.03-3 5.84-6.23 8.81-9.46 5.19 4.43 9.7 8.27 14.86 12.68zm-67.14-72.72v31.72c7.94 0 15.6-.47 23.19.12 8.54.67 15.7-.81 20.61-8.53.74-1.17 2.12-1.93 3.3-2.98 5.44 4.67 10.64 9.12 15.51 13.3 0-11.38 0-22.5 0-33.64-21.51.01-41.81.01-62.61.01z"/><path d="m95.29 202.68c13.93-5.14 27.41-10.11 41.21-15.21.78 2.09 1.46 3.91 2.43 6.51-13.37 6.77-26.48 13.59-39.78 20-3.2 1.54-4.25 3.19-4.24 6.67.13 37.83.15 75.65 0 113.48-.02 5.44-.62 11-1.91 16.27-2.37 9.65-13.97 18.95-23.74 19.47-1.03.06-2.94-1.6-3.13-2.69-1.78-10.27-8.21-15.44-18-17.39-6-1.2-11.94-2.74-18.42-4.25.3-2.33.6-4.71.97-7.63 8.2 1.2 16 2.41 23.82 3.47 4.44.6 8.91 1.35 13.37 1.33 6.14-.03 9.86-3.6 9.88-9.59.12-36.15.06-72.3.06-109.51-8.42 3.38-16.4 6.36-24.1 9.93-1.21.56-.96 3.94-1.69 5.91-1.03 2.79-2.35 5.47-3.54 8.2-2.24-1.78-5-3.18-6.63-5.41-4.89-6.67-9.34-13.66-13.91-20.46 15.78-4.3 31.13-8.41 46.41-12.77 1.39-.4 3.32-2.39 3.33-3.66.17-25.49.1-50.99.06-76.48 0-.31-.19-.62-.46-1.42-8.09 0-16.34-.17-24.59.06-5.63.16-11.25.96-16.88 1.23-.97.05-2.49-.87-2.91-1.74-1.95-4.02-3.61-8.18-5.4-12.35 16.68 1.21 33.07 2.4 49.82 3.62 0-29.67 0-58.19 0-87.65 9.66 2.55 19.38 4.86 28.91 7.82 2.01.63 4.61 3.65 4.55 5.49-.07 1.9-2.92 3.84-4.81 5.46-.94.81-2.43 1.03-3.7 1.4-7.27 2.11-7.27 2.1-7.27 9.78v50.99 5.53c5.84 1.17 10.56.92 14.53-4.07 2.97-3.74 6.94-6.67 10.97-10.44 6.63 5.26 13.87 10.8 20.8 16.69 1.18 1.01 1.91 3.86 1.33 5.24-.54 1.31-3.04 2.52-4.71 2.55-12.33.21-24.66.12-36.99.12-1.79 0-3.58 0-5.65 0 .01 25.21.01 49.93.01 75.5z"/><path d="m239.58 159.12c13.85 3.04 26.97 5.77 40.01 8.83 5.64 1.33 11.25 3 16.65 5.11 5.78 2.26 10.53 5.87 11.03 12.85.38 5.19-2.4 8.11-7.51 7.23-2.86-.49-5.74-1.73-8.24-3.25-17.62-10.68-36.83-17.48-56.48-23.19-1.45-.42-3.79-.05-4.89.91-13.61 11.8-29.64 18.87-47.1 24.17-.68-1.74-1.43-3.67-2.3-5.9 18.2-8.97 33.44-21.11 45.34-37.15 4.39-5.92 8.16-12.31 12.75-19.3-23.96 0-46.52 0-69.84 0v5.32c.06 18.32.14 36.65.16 54.97.01 7.35-2.91 10.34-9.76 10.27-6.9-.07-9.68-3.07-9.44-10.47.89-26.93 1.83-53.86 2.77-81.16 5.71 3.1 11.71 6.5 17.84 9.61 1.98 1 4.34 1.77 6.53 1.77 46.48.1 92.96.12 139.44-.06 2.22-.01 4.84-1.6 6.57-3.22 3.01-2.82 5.47-6.23 8.49-9.78 5.76 4.1 11.65 7.83 16.98 12.23 5.06 4.18 4.9 8.4-1.04 10.73-7.17 2.81-7.92 7.51-7.53 13.94.87 14.27 1.35 28.56 1.98 42.85.05 1.16.07 2.33.08 3.5.08 7.72-2.41 10.23-10.03 10.12-7.15-.1-9.36-2.23-9.4-9.76-.1-18.32-.04-36.65-.04-54.98 0-1.8 0-3.61 0-5.77-26.72 0-52.95 0-80.67 0 4.11 2.15 7.23 3.61 10.18 5.36 3.83 2.28 7.87 4.39 11.17 7.3 3.17 2.79 2.07 5.19-2.2 5.96-1.63.3-3.39 1.03-4.9.7-8.6-1.88-11.9 4.56-16.6 10.26z"/><path d="m137.39 74.85c15.39-13.94 25.51-31.04 34.97-49.1 6.48 3.44 12.94 6.47 18.91 10.26 1.94 1.23 2.63 4.45 3.89 6.76-2.35 1.1-4.81 3.28-7.03 3.07-5.36-.51-8.77 1.49-12.41 5.23-7.27 7.48-15.21 14.31-23.28 21.79 7.18 3.02 14.4 5.78 21.36 9.1 5.03 2.4 10.07 5.09 14.43 8.51 4.09 3.21 5.58 8.19 4.77 13.49-.75 4.93-4.83 7.06-9.16 4.65-2.28-1.27-4.5-2.94-6.23-4.89-9.79-11.01-22.32-18.22-34.78-25.56-1.68-.99-3.33-2.03-5.44-3.31z"/><path d="m207.54 75.44c14.4-14.53 27.22-29.74 35-49.12 6.97 3.71 13.39 6.8 19.41 10.54 1.87 1.16 2.63 4.1 3.9 6.23-2.11 1-4.28 2.94-6.32 2.8-5.69-.38-9.37 1.94-13.3 5.9-7.69 7.77-16.17 14.74-24.39 22.11 7.31 2.86 15.03 5.73 22.63 8.91 3.97 1.66 7.92 3.52 11.5 5.87 5.41 3.55 7.79 8.89 7.45 15.41-.28 5.33-4.07 7.73-8.88 5.29-2.03-1.03-3.99-2.49-5.53-4.17-10.63-11.59-23.91-19.5-37.36-27.19-1.16-.65-2.25-1.4-4.11-2.58z"/><path d="m313.7 25.69c7.15 3.9 13.65 7.2 19.83 11 1.68 1.03 3.5 3.78 3.23 5.41-.24 1.44-3.45 3.62-5.07 3.41-8.48-1.11-12.6 4.75-17.72 9.64-6.56 6.27-13.69 11.92-20.77 18.02 8.22 3.22 16.62 6.2 24.75 9.77 7.08 3.11 13.22 7.59 13.05 16.41-.05 2.48-1.38 6.26-3.17 7.05-2.14.94-5.41-.7-8.18-1.24-.15-.03-.3-.16-.41-.28-11.48-12.15-24.21-22.63-40.94-29.31 16.08-14.08 27.14-30.46 35.4-49.88z"/></g><path d="m6.4 11.7c-1-.8-1.9-1.6-2.9-2.3l.6-.7c.9.7 1.9 1.4 2.9 2.2zm-2.1 8.3c.7-2.1 1.4-4.2 2-6.4.2.1.6.3 1 .4-.7 2.3-1.3 4.4-1.9 6.4zm3-12.8c-1.1-.9-2.1-1.7-2.9-2.4l.6-.7c1 .8 2 1.5 3 2.4zm1.4-1.3v-.9h10.2v.9c-.9 4.2-2.3 7.3-4.1 9.4 1.3 1.4 3.2 2.7 5.7 4-.2.2-.4.5-.7.9-2.5-1.4-4.4-2.7-5.7-4.2-1.4 1.5-3.5 3-6.1 4.4 0 0 0 0-.1-.1-.3-.4-.5-.7-.7-.8 2.7-1.3 4.7-2.8 6.2-4.2-1.8-2.2-3-5.3-3.7-9.4zm9.2 0h-7.1c.6 3.8 1.7 6.7 3.4 8.7 1.7-2 2.9-4.8 3.7-8.7z" fill="#fafbfa"/><path d="m31.6 3.6h.9v2.3h4.1v9.1h1.7v.9h-16.6v-.9h1.7v-9.1h4.1v-2.3h.9v2.3h3.1v-2.3zm-4 13.3.6.8c-1.9.9-3.8 1.9-5.8 2.8-.2-.3-.3-.6-.5-.9 2-.9 3.9-1.8 5.7-2.7zm-3.2-10.1v3.7h3.1v-3.7zm0 4.5v3.7h3.1v-3.7zm4.1-4.5v3.7h3.1v-3.7zm0 4.5v3.7h3.1v-3.7zm9.1 9.1c-2.1-1.1-4.1-2-5.8-2.7l.5-.8c2.2.9 4.1 1.8 5.8 2.6zm-1.9-13.6h-3.1v3.7h3.1zm-3.2 4.5v3.7h3.1v-3.7z" fill="#fafbfa"/></svg>