<svg enable-background="new 0 0 400 400" viewBox="0 0 400 400" xmlns="http://www.w3.org/2000/svg"><g fill="#010100"><path d="m196.43 172.66c-11.19 0-21.46-.16-31.72.05-9.8.2-19.59.83-29.39 1.1-.8.02-1.99-1.07-2.4-1.93-1.79-3.72-3.36-7.55-4.77-10.79 18 .86 35.97 1.73 54.33 2.61 0-22.81 0-44.56 0-67.24-6.96 0-14.03-.16-21.09.06-4.47.13-8.91.97-13.38 1.15-1.1.04-2.75-.98-3.28-1.98-2.09-3.95-3.84-8.08-5.59-11.89 14.3 1.29 28.55 2.57 43.17 3.88 0-19.61 0-37.97 0-57.56 9.99 2.82 19.92 5.19 29.51 8.52 4.83 1.67 4.81 6.52.15 9.09-3.87 2.14-8.25 3.34-12.68 5.07v34.67c7.01-2.68 10.03-9.2 16.05-13.2 5.47 4.79 11.28 9.66 16.76 14.88 1.02.97 1.28 3.56.77 5.01-.36 1.04-2.57 1.99-3.98 2.03-7.99.23-15.99.18-23.99.22-1.79.01-3.58 0-5.6 0v65.95c.32.38.65.77.97 1.15 1.53-1.34 3.42-2.44 4.53-4.07 14.11-20.54 24.24-43.15 33.86-66 4.24-10.07 8.22-20.24 12.63-31.12 7.69 3.54 15.47 6.79 22.87 10.74 1.87 1 2.57 4.21 3.8 6.41-2.3 1.23-4.71 3.68-6.87 3.47-6.55-.64-10.18 1.56-12.86 7.73-10.67 24.57-22.56 48.54-37.89 70.63-.16.24-.12.62-.3 1.75 5.54-1.18 11.38 2.56 16.24-2.64 3.84-4.11 7.74-8.18 11.8-12.46 6.9 5.25 13.65 10.09 19.99 15.43 1.52 1.28 2.53 4.43 2.08 6.31-.3 1.27-3.57 2.57-5.52 2.6-15.66.21-31.33.03-46.99.22-2.03.02-4.85.87-5.93 2.35-11.37 15.64-25.49 28.52-40.25 40.78-.76.63-1.48 1.31-3.22 2.86 2.62.99 4.54 2.32 6.47 2.34 17.66.16 35.33.17 52.99-.02 1.81-.02 3.98-1.28 5.33-2.62 3.16-3.13 5.93-6.66 9.15-10.37 5.83 4.38 11.54 8.37 16.91 12.78 4.19 3.45 3.87 6.29-.43 9.76-.39.31-.76.76-1.2.88-7.69 2.01-7.68 7.71-7.6 14.21.37 31.82.29 63.65.56 95.47.05 5.79.98 11.57 1.54 17.35.86 8.83-4.36 14.19-12.58 12.73-3.42-.61-5.73-2.32-5.61-6.35.16-5.29.04-10.58.04-16.18-20.89 0-40.97 0-61.83 0 0 4.74.04 9.49-.01 14.24-.06 5.75-3.7 9.27-9.44 9.23-6.07-.04-9.04-2.69-8.54-9.01 3.43-43.08 1.34-86.22 1.92-129.33.03-1.99 0-3.99 0-6.9-9.33 5.27-18.16 10.26-27.28 15.42-1.2-2.37-2.16-4.27-3.44-6.8 26.03-17.79 51.32-36.36 71.24-62.67zm36.81 114.91c-20.57 0-40.78 0-60.85 0v51.07h60.85c0-17.2 0-34.1 0-51.07zm.01-57.13c-20.56 0-40.78 0-60.86 0v48.06h60.86c0-16.22 0-32.12 0-48.06z"/><path d="m283.43 41.72c5.65 4.21 10.94 8.47 16.58 12.21 2.32 1.54 5.35 2.67 8.1 2.77 9.49.33 19-.01 28.49.2 3.33.08 5.58-.91 7.59-3.57 2.49-3.3 5.41-6.28 8.36-9.64 5.99 4.58 12.07 8.71 17.54 13.54 6 5.31 5.16 11.4-2.41 13.58-8.69 2.5-10.63 8.71-13.08 16.04-9.18 27.38-18.81 54.61-28.72 81.74-1.81 4.96-1.13 7.63 2.8 10.88 22.89 18.97 38.22 42.83 44.8 71.94 3.56 15.77 3.68 31.78-.73 47.36-4.35 15.35-16.86 22.27-31.42 27.4-1.57-6.86-5.24-11.94-11.37-14.95-5.63-2.77-11.3-5.44-17.43-8.38.21-1.5.5-3.57.84-6.05 6.44 1.81 12.39 3.63 18.43 5.15 16.77 4.2 24.52-4.27 26.08-19.86 3.24-32.47-5.99-61.42-25.8-87.1-4.36-5.65-9.19-10.99-14.19-16.1-2.17-2.22-2.55-4.04-1.8-6.89 8.15-31.15 16.19-62.33 24.21-93.51.91-3.52 1.52-7.12 2.36-11.07-13.81 0-27.34 0-41.49 0v5.48c0 80.15-.13 160.31.12 240.46.05 14.1 1.74 28.19 2.63 42.29.15 2.32.24 4.67.1 6.99-.49 8.15-9.08 12.86-16.08 8.63-1.43-.87-2.38-3.06-2.85-4.84-.5-1.87-.17-3.97-.17-5.97 0-96.82.04-193.63-.07-290.45.01-9.22-.9-18.46-1.42-28.28z"/><path d="m93.52 195.16c14.03-6.2 27.5-12.16 41.46-18.32.85 1.71 1.7 3.42 2.93 5.87-7.99 5-15.77 9.98-23.67 14.77-5.4 3.28-10.84 6.54-16.5 9.32-3.44 1.69-4.68 3.65-4.67 7.6.17 42.65-.12 85.3.22 127.95.13 16.3-9.24 24.69-22.22 29.35-3.31 1.19-5.73 1.28-6.46-3.6-1.39-9.34-8.58-13.47-16.74-15.82-6.34-1.83-12.9-2.87-19.59-4.32.33-2.38.64-4.61 1.05-7.5 9.41 1.31 18.7 2.64 28 3.89 15.19 2.05 19.51.88 19.35-15.82-.31-34.65-.09-69.3-.09-103.96 0-1.95 0-3.9 0-6.85-8.09 3.97-15.42 7.34-22.45 11.24-1.28.71-1.56 3.58-1.92 5.52-.6 3.24 1.54 8.2-2.79 9-2.27.42-5.84-3.07-7.96-5.54-5.06-5.92-9.61-12.28-14.44-18.55 15.31-5.3 30.35-10.52 45.42-15.69 2.49-.85 4.25-1.61 4.23-5-.18-23.82-.1-47.65-.12-71.47 0-.65-.16-1.3-.42-3.16-12.33.68-24.67 1.36-37.79 2.08-1.93-4.55-4.09-9.66-6.29-14.86 14.72 1.11 29.27 2.21 43.85 3.31 0-27.19 0-53.23 0-80.09 9.66 2.61 19.6 4.95 29.28 8.07 5.12 1.65 5.37 6.53.72 9.34-2.94 1.79-6.46 2.6-9.52 4.22-1.33.71-3.07 2.35-3.08 3.58-.2 17.8-.14 35.61-.14 53.69 5.28.87 9.89 1.44 13.63-3.4 2.93-3.78 6.54-7.04 10.04-10.74 7.37 5.52 14.28 10.4 20.78 15.79 1.53 1.27 2.58 4.48 2.1 6.35-.35 1.37-3.55 2.8-5.51 2.84-11.66.26-23.32.13-34.98.14-1.8 0-3.59 0-5.73 0 .02 23.63.02 46.7.02 70.77z"/></g><path d="m6.4 11.7c-1-.8-1.9-1.6-2.9-2.3l.6-.7c.9.7 1.9 1.4 2.9 2.2zm-2.1 8.3c.7-2.1 1.4-4.2 2-6.4.2.1.6.3 1 .4-.7 2.3-1.3 4.4-1.9 6.4zm3-12.8c-1.1-.9-2.1-1.7-2.9-2.4l.6-.7c1 .8 2 1.5 3 2.4zm1.4-1.3v-.9h10.2v.9c-.9 4.2-2.3 7.3-4.1 9.4 1.3 1.4 3.2 2.7 5.7 4-.2.2-.4.5-.7.9-2.5-1.4-4.4-2.7-5.7-4.2-1.4 1.5-3.5 3-6.1 4.4 0 0 0 0-.1-.1-.3-.4-.5-.7-.7-.8 2.7-1.3 4.7-2.8 6.2-4.2-1.8-2.2-3-5.3-3.7-9.4zm9.2 0h-7.1c.6 3.8 1.7 6.7 3.4 8.7 1.7-2 2.9-4.8 3.7-8.7z" fill="#fafbfa"/><path d="m31.6 3.6h.9v2.3h4.1v9.1h1.7v.9h-16.6v-.9h1.7v-9.1h4.1v-2.3h.9v2.3h3.1v-2.3zm-4 13.3.6.8c-1.9.9-3.8 1.9-5.8 2.8-.2-.3-.3-.6-.5-.9 2-.9 3.9-1.8 5.7-2.7zm-3.2-10.1v3.7h3.1v-3.7zm0 4.5v3.7h3.1v-3.7zm4.1-4.5v3.7h3.1v-3.7zm0 4.5v3.7h3.1v-3.7zm9.1 9.1c-2.1-1.1-4.1-2-5.8-2.7l.5-.8c2.2.9 4.1 1.8 5.8 2.6zm-1.9-13.6h-3.1v3.7h3.1zm-3.2 4.5v3.7h3.1v-3.7z" fill="#fafbfa"/></svg>