<svg enable-background="new 0 0 400 400" viewBox="0 0 400 400" xmlns="http://www.w3.org/2000/svg"><g fill="#010100"><path d="m259.14 305.41v41.48c39.06 5.44 77.74 2.95 116.46-4.44 1.5 3.99.51 6.67-4.19 7.53-4.44.81-6.9 3.87-8.16 7.89-1.75 5.61-5.26 7.39-11.16 7.35-17.64-.11-35.3 1.13-52.91.62-21.73-.63-43.54-1.54-64.67-7.67-22.66-6.58-40.01-19.77-51.12-40.82-1.78-3.36-3.73-6.64-6.11-10.87-15.52 32.7-41.41 53.24-73.21 68.09-1.38-2.46-2.56-4.56-3.97-7.07 37.45-22.36 63.81-52.39 69.46-97.81 8.7 2.91 17.02 5.53 25.18 8.55 1.45.54 3.28 2.85 3.13 4.14-.17 1.48-2.23 2.87-3.69 4.02-.7.55-1.89.53-2.87.65-6.95.88-10.47 7.71-7.37 14 11.75 23.85 31.83 36.46 57.28 43.23 0-28.03 0-55.24 0-82.98-1.78-.08-3.53-.23-5.28-.23-22.49.02-44.98.02-67.48.14-3.81.02-7.64.4-11.43.86-3.09.37-5.01-.55-6.07-3.62-1.06-3.08-2.51-6.03-3.99-9.5 25.77 4.05 51.25 2.75 76.67 2.84 36.99.13 73.98-.05 110.96.14 4.92.03 8.59-.97 11.34-5.25 1.5-2.33 3.69-4.2 6.09-6.85 6.91 5.28 13.89 10.09 20.23 15.64 4.05 3.55 2.68 8.89-2.4 9.12-13.63.62-20.71 10.69-29.33 18.7-.72.67-1.37 1.43-2.46 2.57-1.77-1.56-3.44-3.04-5.05-4.46 3.38-6.72 6.62-13.15 10.12-20.1-28.49 0-56.06 0-83.88 0v34.62c10.05 0 20.04-.59 29.91.18 8.73.67 15.47-1.49 20.66-8.65 1.92-2.65 4.5-4.83 7.05-7.52 7.87 6.01 15.35 11.51 22.52 17.4 1.3 1.07 2.24 4.05 1.67 5.48-.53 1.33-3.3 2.47-5.09 2.48-23.49.16-46.98.11-70.48.11-1.96.01-3.93.01-6.36.01z"/><path d="m135.47 187.21c2.98 4.09 2.1 6.65-2.38 8.84-11.78 5.76-23.32 12.02-35.13 17.72-2.99 1.45-4.06 2.9-4.05 6.24.13 38.82-.19 77.64.2 116.46.18 18.21-9.49 29.36-27.65 33.21-2.11-15.4-13.18-20.22-26.48-22.42-1.8-.3-3.59-.69-5.39-1.01-6.69-1.2-7.05-1.89-4.09-8.64 8.9 1.21 17.9 2.47 26.92 3.64 2.63.34 5.29.61 7.94.65 8.84.12 11.52-2.56 11.54-11.6.04-19.16.01-38.32.01-57.48 0-16.31 0-32.62 0-49.81-8.2 3.35-15.93 6.27-23.39 9.77-1.36.64-1.66 3.6-2.39 5.52-1.13 2.95-2.21 5.92-3.3 8.88-2.53-2.09-5.59-3.79-7.5-6.34-4.67-6.24-8.82-12.87-13.25-19.45 16.71-4.42 33.17-8.77 49.65-13.12 0-27.23 0-53.84 0-80.86-10.88 0-21.66-.53-32.37.14-11.61.73-11.58 1.23-16.08-9.44-.51-1.21-.85-2.49-1.16-3.4 16.36.97 32.69 1.94 49.26 2.93 0-29.92 0-58.77 0-88.61 10.19 2.65 20.34 4.95 30.25 8 4.66 1.44 5.17 6.06 1.08 8.77-3.08 2.04-7.01 2.76-10.45 4.31-1.26.57-3.11 1.86-3.12 2.84-.18 21.12-.14 42.25-.14 63.55 6.35 1.16 11.58.81 15.64-4.81 2.6-3.59 6.08-6.54 9.35-9.96 7.01 5.52 13.9 10.7 20.46 16.27 1.48 1.26 3.02 4.5 2.39 5.72-.86 1.67-3.75 3.15-5.81 3.2-11.99.29-23.99.14-35.98.14-1.8 0-3.6 0-5.73 0v75.33c13.94-5.14 27.57-10.17 41.15-15.18z"/><path d="m312.87 224.68c-41.19 0-82.61 0-123.87 0-.33.53-.63.79-.65 1.07-.7 9.04-3.5 11.37-12.6 10.45-4.23-.43-6.81-3.58-6.69-7.79.68-24.61 1.35-49.22 1.91-73.83.18-8.08.03-16.17.03-25.17 6.65 3.82 12.45 7.3 18.4 10.48 1.95 1.04 4.31 1.84 6.49 1.85 37.15.11 74.31.04 111.46.15 3.2.01 5.28-.97 7.1-3.52 2.12-2.96 4.61-5.66 7.55-9.22 6.2 4.8 12.51 9.3 18.34 14.35 3.33 2.88 2.65 7.65-1.9 9.22-7.64 2.64-7.78 7.89-7.53 14.34.76 19.12 1.36 38.24 1.54 57.37.03 2.8-1.95 7.35-4.05 8.08-3.9 1.36-8.71 1.12-12.85.22-1.29-.27-1.67-4.8-2.68-8.05zm-124.46-9.11h53.21c0-9.6 0-18.83 0-28-17.95 0-35.51 0-53.21 0zm125.03.19c0-9.74 0-18.96 0-28.23-17.96 0-35.53 0-53.1 0v28.23zm-71.77-37.23c0-9.42 0-18.32 0-27.24-17.89 0-35.44 0-53.2 0v27.24zm18.47-.02h53.41c0-9.21 0-18.1 0-27.15-17.95 0-35.62 0-53.41 0z"/><path d="m154.65 73.09c-2.04-4.24-4.31-8.95-6.88-14.3 31.41 5.19 62.3 3.57 93.14 3.76 0-12.11 0-23.64 0-35.78 9.05 2.13 18.44 4.02 27.59 6.69 2.56.75 4.43 3.82 6.62 5.82-2.08 2.16-3.84 4.91-6.34 6.34-2.77 1.59-6.23 1.98-9.56 2.94v14.01h14.09c12.66 0 25.33.16 37.98-.14 2.49-.06 5.41-1.38 7.3-3.05 4.96-4.4 9.47-9.32 14.55-14.43 8.41 6.68 16.66 13.05 24.62 19.76 1.08.91 1.49 3.92.82 5.25-.66 1.29-3.11 2.3-4.78 2.32-13.16.19-26.32.11-39.49.11-16.49 0-32.99 0-49.48 0-1.79 0-3.58 0-5.6 0v29.59h5.3c24.16 0 48.32-.14 72.48.12 4.95.05 8.58-1.04 11.31-5.27 1.43-2.21 3.39-4.06 5.52-6.56 6.27 4.55 12.58 8.78 18.46 13.55 2.64 2.15 2.29 5.39.01 8.03-.74.85-1.75 1.85-2.77 2.03-12.46 2.22-18.73 12.31-26.41 20.6-.57.61-1.13 1.22-1.73 1.8-.23.22-.55.36-1.11.72-1.66-1.07-3.43-2.21-5.61-3.62 2.97-7.05 5.91-14.03 9.06-21.54-60.23 0-120.08 0-179.9 0-1.27 8.6-2.24 17.28-3.92 25.83-1.13 5.74-3.44 11.14-8.92 14.4-4.56 2.71-9.71 2.73-12.44-.35-3.35-3.78-1.95-7.71.12-11.54.24-.44.41-.96.75-1.28 13.88-13.17 15.79-30.47 16.52-48.53h7.98c-.24 3.7-.47 7.29-.72 11.25h77.92c0-9.41 0-18.94 0-28.55-28.58.02-57.11.02-86.48.02z"/></g><path d="m6.4 11.7c-1-.8-1.9-1.6-2.9-2.3l.6-.7c.9.7 1.9 1.4 2.9 2.2zm-2.1 8.3c.7-2.1 1.4-4.2 2-6.4.2.1.6.3 1 .4-.7 2.3-1.3 4.4-1.9 6.4zm3-12.8c-1.1-.9-2.1-1.7-2.9-2.4l.6-.7c1 .8 2 1.5 3 2.4zm1.4-1.3v-.9h10.2v.9c-.9 4.2-2.3 7.3-4.1 9.4 1.3 1.4 3.2 2.7 5.7 4-.2.2-.4.5-.7.9-2.5-1.4-4.4-2.7-5.7-4.2-1.4 1.5-3.5 3-6.1 4.4 0 0 0 0-.1-.1-.3-.4-.5-.7-.7-.8 2.7-1.3 4.7-2.8 6.2-4.2-1.8-2.2-3-5.3-3.7-9.4zm9.2 0h-7.1c.6 3.8 1.7 6.7 3.4 8.7 1.7-2 2.9-4.8 3.7-8.7z" fill="#fafbfa"/><path d="m31.6 3.6h.9v2.3h4.1v9.1h1.7v.9h-16.6v-.9h1.7v-9.1h4.1v-2.3h.9v2.3h3.1v-2.3zm-4 13.3.6.8c-1.9.9-3.8 1.9-5.8 2.8-.2-.3-.3-.6-.5-.9 2-.9 3.9-1.8 5.7-2.7zm-3.2-10.1v3.7h3.1v-3.7zm0 4.5v3.7h3.1v-3.7zm4.1-4.5v3.7h3.1v-3.7zm0 4.5v3.7h3.1v-3.7zm9.1 9.1c-2.1-1.1-4.1-2-5.8-2.7l.5-.8c2.2.9 4.1 1.8 5.8 2.6zm-1.9-13.6h-3.1v3.7h3.1zm-3.2 4.5v3.7h3.1v-3.7z" fill="#fafbfa"/></svg>