<svg enable-background="new 0 0 400 400" viewBox="0 0 400 400" xmlns="http://www.w3.org/2000/svg"><path d="m377.9 391.2c-.2.3-.4.5-.6.8-.7-.6-1.4-1-2.2-1.5.2-.3.4-.5.5-.8.6.4 1.4.8 2.3 1.5zm-1.8 6.1c-.2-.2-.5-.4-.9-.6.4-.6.8-1.2 1.2-1.9s.7-1.3.9-1.9c.3.3.5.5.8.7-.7 1.3-1.4 2.6-2 3.7zm2.2-9c-.3.3-.5.5-.6.8-.6-.6-1.3-1.1-2-1.5.3-.3.5-.5.6-.7.6.5 1.3.9 2 1.4zm.3.2v-.9h2 4.5c-.3 1.3-.6 2.5-1 3.6s-.9 2.1-1.4 3c.4.5 1 1 1.6 1.4s1.2.8 1.9 1.1c-.3.2-.5.4-.8.8-.4-.3-1-.7-1.6-1.2s-1.2-1.1-1.6-1.6c-.5.6-1.1 1.1-1.7 1.6s-1.4.9-2.1 1.4c-.1-.3-.3-.5-.7-.8.6-.2 1.2-.5 1.9-1s1.4-1.1 2-1.8c-.5-.8-.9-1.6-1.2-2.5s-.6-2-.8-3.2c-.4.1-.7.1-1 .1zm2.5 2.7c.3 1 .7 1.7 1 2.2.3-.5.6-1.1 1-2s.6-1.9.9-3h-3.2-.4c.1.9.3 1.8.7 2.8z" fill="#fbfcfa"/><path d="m396.5 388.5v1.5 3.6h1.5v.9c-.4 0-1 0-1.7 0h-7.9c-.5 0-.9 0-1.2 0v-.9h1.3v-3.5c0-.7 0-1.2 0-1.6h2.4c0-.8 0-1.4 0-1.7h1c0 .3-.1.8-.1 1.7h1.5c0-.8 0-1.4 0-1.7h1c0 .3-.1.9-.1 1.7zm-8.2 9.2c-.2-.3-.5-.5-.8-.8.8-.3 1.4-.6 1.9-.9s1-.7 1.4-1.1c.3.3.6.5.9.8-1.6 1-2.8 1.6-3.4 2zm2.6-6.8v-1.6h-1.5v1.6zm0 2.7v-1.9h-1.5v1.9zm2.4-2.7v-1.6h-1.5v1.6zm0 2.7v-1.9h-1.5v1.9zm.2 2 .7-.8c.4.2.9.5 1.6.8s1.3.7 1.8 1c-.3.3-.5.5-.8.8-.4-.3-1.5-1-3.3-1.8zm2-4.7v-1.6h-1.4v1.6zm0 2.7v-1.9h-1.4v1.9z" fill="#fbfcfa"/><g fill="#010100"><path d="m212.54 119.81c6.16 3.39 12.11 6.98 18.35 9.96 3.17 1.51 6.86 2.65 10.33 2.7 18.99.26 37.99.02 56.98.21 3.88.04 6.55-.99 8.85-4.17 2.42-3.35 5.42-6.28 8.41-9.67 5.85 4.33 11.8 8.29 17.23 12.86 5.03 4.24 4.6 7.35-.7 11.12-.41.29-.81.66-1.27.78-7.55 1.9-7.98 7.24-7.87 13.94.4 22.65.15 45.32.15 67.98v5.55c6.07 1.33 10.8.77 14.55-4.75 3.34-4.92 7.65-9.19 11.95-14.23 8.18 7.14 16.35 14.08 24.23 21.35 1.11 1.02 1.54 4.04.83 5.38-.68 1.29-3.21 2.23-4.95 2.25-13.49.18-26.99.1-40.49.1-1.81 0-3.61 0-6.06 0 0 10.12-.22 19.89.05 29.63.47 17.19 2.15 34.31 9.53 50.08 3.11 6.64 7.76 12.73 12.54 18.37 3.73 4.4 7.06 3.45 8.54-2.16 2.71-10.26 4.81-20.68 7.14-31.04.46-2.05.21-4.46 3.59-4.16 3.43.31 3.85 2.25 3.65 5.13-.76 10.78-1.36 21.57-2.05 32.35-.42 6.52 1.04 12.4 4.63 18.01 1.39 2.16 2.28 6.28 1.13 7.98-1.24 1.84-5.21 2.8-7.85 2.56-11.26-.99-20.23-7.03-28.37-14.35-13.32-11.97-20.69-27.45-23.44-44.67-2.71-17-3.68-34.28-5.17-51.46-.44-5.12-.07-10.3-.07-15.86-25.67 0-51.06 0-76.95 0-.95 7.25-2 14.61-2.88 21.98-4.12 34.76-16.7 65.55-42.29 90.23-3.94 3.8-8.1 7.38-12.63 11.49-1.83-2.03-3.47-3.85-5.1-5.67 38.69-39.46 42.44-75.13 46.52-118.17-6.1 0-12.17-.2-18.21.06-5.13.22-10.24 1.18-15.37 1.33-1.53.05-3.78-1.12-4.52-2.41-2.13-3.73-3.66-7.8-5.37-11.61 14.56 1.13 29.03 2.26 44.6 3.48-1.01-38.06 1.78-75.08-2.17-112.48zm94.01 22.75c-25.51 0-50.4 0-75.68 0v88.71h75.68c0-29.7 0-59.08 0-88.71z"/><path d="m77.86 331.85c.64-1.3 1.06-2.21 1.53-3.08.31-.58.69-1.11 1.15-1.84 7.43 3.26 14.74 6.73 22.25 9.72 15.96 6.35 22.66 3.27 25.83-13.68 3.56-19.06 6.35-38.33 8.17-57.64 2.33-24.81 3.41-49.73 4.89-74.62.32-5.47.05-10.97.05-17-1.64-.1-3.23-.28-4.83-.28-15.83-.02-31.66.11-47.49-.1-3.9-.05-4.92 1.2-5.34 4.98-3.16 28.87-5.39 57.93-10.27 86.52-5.75 33.65-19.45 64.46-39.96 92.01-.7.93-1.43 1.84-2.19 2.73-.32.37-.74.65-1.45 1.26-1.5-1.09-3.04-2.21-4.34-3.16 5.42-11.14 11.16-21.65 15.75-32.64 10.82-25.88 17.65-52.93 20.19-80.82 2.72-29.78 4.34-59.65 6.14-89.51.96-15.93 1.28-31.9 1.87-47.86.06-1.65.01-3.3.01-5.26-9.04 0-17.77-.02-26.51.02-1.15 0-2.32.19-3.46.43-4.28.91-6.83-.6-8.09-4.94-.95-3.25-2.58-6.3-4.22-10.19 23.01 5.62 45.65 3.65 69.11 4.07-5.54-4.89-5.17-11.02-6.09-16.81-2.18-13.78-8.67-25.72-16.36-37.1-.45-.67-.92-1.33-1.55-2.23 1.32-1.23 2.5-2.34 4.13-3.87 12.41 12.87 25.24 25.2 32.01 42.18 2.56 6.42 1.46 12.34-4.76 17.78 11.39 0 21.65.07 31.9-.09 1.23-.02 2.64-1.13 3.63-2.08 5.36-5.21 10.62-10.54 16.13-16.04 7.35 6.67 14.7 13.17 21.79 19.94 1.33 1.27 2.72 4.29 2.1 5.34-.92 1.57-3.59 2.92-5.53 2.94-18.49.21-36.99.13-55.49.13-9.97 0-19.95 0-30.68 0-.88 20.82-1.75 41.31-2.65 62.27 2.01.1 3.63.24 5.25.24 14.5.02 28.99-.09 43.49.08 3.34.04 5.59-.99 7.65-3.57 2.78-3.49 5.96-6.67 9.38-10.44 6.46 4.4 12.95 8.43 18.96 13.07 4.45 3.45 4.19 6.68-.07 10.24-1.52 1.27-3.17 2.68-5 3.21-5.31 1.53-6.28 5.36-6.57 10.15-1.34 22.58-2.2 45.21-4.47 67.7-2.6 25.74-5.79 51.47-10.1 76.97-2.88 17.01-13.66 27.71-31.59 29.88-4.05.49-7.32 1.09-7.57-5.02-.22-5.58-4-9.66-8.77-12.63-6-3.75-11.98-7.58-17.96-11.36z"/><path d="m215.44 27.23c9.21 3.38 17.67 6.26 25.9 9.68 1.68.7 3.64 3.61 3.42 5.22-.27 1.91-2.74 3.53-4.29 5.24-.2.22-.61.36-.92.35-8.91-.46-11.95 5.38-14.31 12.62-1.89 5.79-4.74 11.26-7.39 17.4 1.98.1 3.54.26 5.11.26 32.65.01 65.3-.04 97.95.09 3.46.01 5.89-.97 8.28-3.44 4.62-4.76 9.59-9.19 14.82-14.15 7.14 6.26 14.84 12.8 22.22 19.68 1.29 1.2 2.32 4.56 1.59 5.61-1.01 1.45-3.81 2.3-5.84 2.3-48.14.12-96.29.15-144.43 0-4.26-.01-6.72 1.06-9.08 4.91-9.93 16.23-21.82 30.99-35.29 44.45-1.04 1.04-2.15 1.99-3.41 3.15-1.61-1.51-3.03-2.85-4.94-4.65 26.55-31.4 40.16-68.86 50.61-108.72z"/><path d="m245.83 170.96c1.56-1.97 2.77-3.51 4.21-5.32 11.94 7.97 24.58 14.48 33.41 25.96 3.76 4.88 6.11 10.28 5.59 16.6-.36 4.38-2.27 7.76-6.82 8.7-4.33.89-6.9-1.83-8.6-5.32-1.67-3.42-2.91-7.05-4.5-10.5-5.38-11.65-13.75-21.06-23.29-30.12z"/></g></svg>