<svg enable-background="new 0 0 400 400" viewBox="0 0 400 400" xmlns="http://www.w3.org/2000/svg"><path d="m377.9 391.2c-.2.3-.4.5-.6.8-.7-.6-1.4-1-2.2-1.5.2-.3.4-.5.5-.8.6.4 1.4.8 2.3 1.5zm-1.8 6.1c-.2-.2-.5-.4-.9-.6.4-.6.8-1.2 1.2-1.9s.7-1.3.9-1.9c.3.3.5.5.8.7-.7 1.3-1.4 2.6-2 3.7zm2.2-9c-.3.3-.5.5-.6.8-.6-.6-1.3-1.1-2-1.5.3-.3.5-.5.6-.7.6.5 1.3.9 2 1.4zm.3.2v-.9h2 4.5c-.3 1.3-.6 2.5-1 3.6s-.9 2.1-1.4 3c.4.5 1 1 1.6 1.4s1.2.8 1.9 1.1c-.3.2-.5.4-.8.8-.4-.3-1-.7-1.6-1.2s-1.2-1.1-1.6-1.6c-.5.6-1.1 1.1-1.7 1.6s-1.4.9-2.1 1.4c-.1-.3-.3-.5-.7-.8.6-.2 1.2-.5 1.9-1s1.4-1.1 2-1.8c-.5-.8-.9-1.6-1.2-2.5s-.6-2-.8-3.2c-.4.1-.7.1-1 .1zm2.5 2.7c.3 1 .7 1.7 1 2.2.3-.5.6-1.1 1-2s.6-1.9.9-3h-3.2-.4c.1.9.3 1.8.7 2.8z" fill="#fbfcfa"/><path d="m396.5 388.5v1.5 3.6h1.5v.9c-.4 0-1 0-1.7 0h-7.9c-.5 0-.9 0-1.2 0v-.9h1.3v-3.5c0-.7 0-1.2 0-1.6h2.4c0-.8 0-1.4 0-1.7h1c0 .3-.1.8-.1 1.7h1.5c0-.8 0-1.4 0-1.7h1c0 .3-.1.9-.1 1.7zm-8.2 9.2c-.2-.3-.5-.5-.8-.8.8-.3 1.4-.6 1.9-.9s1-.7 1.4-1.1c.3.3.6.5.9.8-1.6 1-2.8 1.6-3.4 2zm2.6-6.8v-1.6h-1.5v1.6zm0 2.7v-1.9h-1.5v1.9zm2.4-2.7v-1.6h-1.5v1.6zm0 2.7v-1.9h-1.5v1.9zm.2 2 .7-.8c.4.2.9.5 1.6.8s1.3.7 1.8 1c-.3.3-.5.5-.8.8-.4-.3-1.5-1-3.3-1.8zm2-4.7v-1.6h-1.4v1.6zm0 2.7v-1.9h-1.4v1.9z" fill="#fbfcfa"/><g fill="#010100"><path d="m32.6 294.12c-2.61-4.11-2.05-6.15 2.96-7.78 31.03-10.05 59.97-24.43 86.88-42.88 1.05-.72 2.03-1.56 3.08-2.37-.43-.4-.66-.79-.87-.79-25.94.54-51.89 1.06-77.83 1.74-2.86.07-4.68-.44-5.78-3.31-1.42-3.71-3.23-7.28-5.07-11.34 7.63.9 14.91 2.08 22.23 2.52 8.96.55 17.95.6 26.93.65 16.66.09 33.33.13 49.99-.09 2.4-.03 5.3-1.02 7.08-2.58 6.97-6.09 13.58-12.59 20.33-18.94-.22-.52-.43-1.03-.65-1.55-1.72 0-3.45 0-5.17 0-16.83 0-33.67-.23-50.49.11-7.58.15-15.17 1.19-22.69 2.31-6.91 1.03-8.91-.28-8.93-7.19-.04-10.96-.01-21.91-.01-33.49 7.57 2 16.16 4.06 24.58 6.65 1.87.58 4.58 3.22 4.4 4.57-.26 1.99-2.74 3.72-4.37 5.47-.42.45-1.18.58-1.8.83-6.86 2.86-6.92 2.96-5.29 10.88h96.53c0-10.84 0-21.58 0-32.9-1.64-.07-3.4-.22-5.16-.22-20.83-.02-41.66-.18-62.49.11-5 .07-9.96 1.78-14.98 2.5-4.7.67-6.46-1.56-6.51-6.31-.12-11.77-.67-23.53-1.08-36.09 8.69 2.14 17.4 3.9 25.85 6.52 4.71 1.46 4.75 5.73.59 8.61-.54.38-1.15.67-1.75.96-7.87 3.85-8.05 4.21-6.33 13.82h71.7c0-11.91 0-23.61 0-35.89 9.4 2.36 18.77 4.46 27.95 7.18 2.27.67 5.83 3.81 5.53 4.98-.65 2.57-3.39 4.61-5.29 6.86-.1.11-.3.14-.46.19-3.26 1.1-8.44 1.38-9.34 3.48-1.55 3.64-.43 8.41-.43 13.1h73.46c-.41-9.17-.81-18.19-1.26-28.3 9.83 2.81 18.97 5.06 27.84 8.11 4.56 1.57 4.69 5.39.95 8.47-.76.62-1.64 1.33-2.56 1.49-7.31 1.31-8.97 6.02-7.85 12.58.22 1.3-.07 2.67.05 3.99.81 9.07-3.57 10.33-11.62 11.15-4.76.48-6.29-2.6-5.8-7.17-24.55 0-48.78 0-73.25 0v32.63h96.1c0-7.71 0-15.28 0-24.04 9.04 2.24 18.21 4.08 27.08 6.89 4.14 1.31 4.08 5.54.56 8.24-.39.3-.83.61-1.3.71-7.71 1.71-8.9 7.08-7.89 13.8.22 1.47.04 2.99.03 4.49-.06 7.59-5.93 12.38-13.32 10.31-1.87-.53-3.48-3.05-4.54-5.02-.68-1.27-.13-3.2-.13-5.08-44.02 0-87.59 0-131.16 0-.13.29-.26.59-.38.88 3.59 2.11 7.24 4.13 10.76 6.35 1.8 1.14 3.75 2.34 4.99 4 2.24 3 .63 5.97-3.1 6.19-1.32.08-2.67.01-3.99-.15-7.61-.93-7.61-.94-14.88 5.04h4.93c51.66 0 103.32-.03 154.97.07 3.26.01 5.66-.81 7.84-3.26 3.75-4.23 7.76-8.22 12.13-12.81 7.85 6.22 15.34 11.93 22.48 18.05 1.2 1.03 1.76 4.3 1.02 5.7-.72 1.37-3.47 2.32-5.34 2.33-28.49.14-56.99.1-85.49.1-1.79 0-3.59 0-5.38 0 29.31 19.77 60.75 33.62 96.38 36.48v6.22c-9.42.24-17.48 2.96-22.16 13.08-10.08-4.67-19.96-8.87-29.48-13.76-20.38-10.47-39.1-23.38-55.95-38.98-1.84-1.7-4.91-2.9-7.42-2.91-32.33-.19-64.66-.18-96.98-.02-2.6.01-5.61.97-7.72 2.48-34.54 24.81-73.55 39.58-114.05 51-.76.21-1.6.23-2.41.35z"/><path d="m96.62 113.54c-1.27 6.38-6.23 9.65-12.68 8.44-4.26-.8-6.49-4.07-6.29-9.29.44-11.47 1.13-22.93 1.29-34.4.23-15.29.06-30.58.06-46.27 4.49 2.75 9.35 6.08 14.54 8.79 2.81 1.47 6.16 2.66 9.26 2.67 64.15.15 128.31.08 192.46.19 4.33.01 7.61-.75 10.13-4.62 1.97-3.03 4.67-5.59 7.41-8.78 6.34 4.55 12.71 8.77 18.65 13.51 4.16 3.32 3.43 6.8-1.37 9.27-1.03.53-2.12.97-3.2 1.39-3.63 1.43-5.15 3.73-4.98 7.96.61 15.46.82 30.94 1.09 46.42.15 8.75-4.63 13.36-13.47 13.24-5.67-.08-5.29-4.41-5.76-8.51-69.08-.01-138.12-.01-207.14-.01zm-.4-9.98h207.5c0-6.97 0-13.56 0-20.2-69.3 0-138.32 0-207.5 0zm207.53-49.68c-69.38 0-138.4 0-207.35 0v19.44h207.35c0-6.55 0-12.82 0-19.44z"/><path d="m177.47 291.95c-23.65 0-46.06 0-69.01 0-1.73-3.99-3.75-8.68-6.11-14.14 28.94 5.71 57.39 2.03 85.88 3.41 0-10.87 0-21.25 0-32.94 10.14 2.85 20.41 5.59 30.54 8.73 1.43.44 3.15 2.89 3.11 4.35-.05 1.54-1.86 3.27-3.29 4.43-1.23 1.01-2.99 1.39-4.55 1.97-8.51 3.16-8.52 3.15-7.63 13.23h6.21c12.66 0 25.33.1 37.99-.1 2.09-.03 4.53-.97 6.16-2.29 4.79-3.86 9.25-8.12 14.35-12.68 6.63 5.82 13.29 11.48 19.65 17.46 1.15 1.08 1.93 4.08 1.25 5.19-.87 1.4-3.4 2.48-5.22 2.49-23.99.12-47.98.04-71.97 0-1.82 0-3.63 0-5.71.86 2.83 1.02 5.64 2.09 8.48 3.06 25.01 8.55 49.68 17.94 73.06 30.4 7.72 4.12 14.68 9.31 19.37 16.86 1.51 2.43 2.75 5.53 2.73 8.31-.03 5.79-6.64 10.16-11.8 7.4-5.77-3.09-11.42-6.96-16.03-11.58-18.46-18.55-59.33-39.83-78.71-47.15-.08 1.51-.25 2.91-.22 4.3.43 19.3.81 38.61 1.39 57.9.29 9.75-4.37 13.47-13.6 10.72-4.33-1.29-4.88-4.4-4.87-8.12.02-17.66.01-35.32.01-52.98 0-1.82 0-3.64 0-7.05-33.44 30.47-72.59 46.82-115.47 56.58-.6-2.47-1.09-4.45-1.65-6.75 30.73-8.67 58.65-22.32 83.57-41.69 7.67-5.98 14.43-13.13 22.09-20.18z"/></g></svg>