<svg enable-background="new 0 0 400 400" viewBox="0 0 400 400" xmlns="http://www.w3.org/2000/svg"><path d="m361.2 9.6.8-1c.9.7 1.9 1.4 2.9 2.3l-.9 1.1c-1-1-2-1.8-2.8-2.4zm.5 10.6c.9-2.1 1.6-4.3 2.3-6.7.4.2.8.4 1.3.6-.7 2.1-1.5 4.3-2.2 6.6zm.4-15.2.9-.9c1 .8 2 1.6 2.8 2.4l-1 1c-.9-.9-1.8-1.7-2.7-2.5zm12.5-1.2h1.2v1.4h2.7v1.1h-2.7v2.7h-1.2v-.6h-1.8v1.3h4.9v3.8h-1.2v-.5h-3.7c0 .4-.1.9-.1 1.2h5.1v1h-5.2c0 .5-.1.9-.2 1.2h6v1h-5.2c1.1 1.3 2.9 2 5.5 2.2-.4.4-.7.8-.9 1.3-2.9-.5-4.8-1.6-5.7-3.5h-.1c-.8 1.7-2.7 2.9-5.9 3.6-.2-.4-.6-.8-.9-1.1 2.8-.6 4.6-1.4 5.4-2.5h-4.8v-1h5.3c.1-.3.2-.7.2-1.2h-4.9v-1h5c0-.4 0-.8.1-1.3h-3.5v.5h-1.2v-3.7h4.9v-1.3h-1.8v.5h-1.2v-2.7h-2.7v-1h2.6v-1.4h1.2v1.4h4.7v-1.4zm-6.6 8.3h3.6c0-.4 0-.9 0-1.4h-3.6zm1.9-4.6h4.7v-1.3h-4.7zm6.6 3.2h-3.7v1.4h3.7z" fill="#fbfafc"/><path d="m385.3 3.8h1.3v2.2h2.8v-2.2h1.3v2.2h4.1v9.1h1.7v1.3h-16.9v-1.3h1.7v-9.1h4.1v-2.2zm.4 13.1.7 1.2c-1.8.9-3.8 1.9-6 2.9-.2-.4-.5-.8-.8-1.3 2.3-1 4.3-1.9 6.1-2.8zm-3.1-6.4h2.8v-3.2h-2.8zm0 4.6h2.8v-3.3h-2.8zm4-4.6h2.8v-3.2h-2.8zm0 4.6h2.8v-3.3h-2.8zm3.7 1.9c2.1.9 4.1 1.8 6.1 2.7l-.7 1.3c-2.2-1.1-4.2-2-6.1-2.9zm3.2-9.7h-2.8v3.2h2.8v-3.1zm-2.8 7.8h2.8v-3.3h-2.8z" fill="#fbfafc"/><g fill="#010000"><path d="m311.41 111.03c0 3.44-.04 5.39.01 7.34.56 21.29 1.09 42.58 1.74 63.87.14 4.81.89 9.61.97 14.42.1 5.97-2.86 8.37-9.75 8.41-6.88.04-9.73-2.27-9.75-8.39-.07-22.66-.03-45.33-.03-67.99 0-1.63 0-3.25 0-4.88-19.22 22.75-41.76 40.93-67.21 56.06-1.27-1.64-2.36-3.04-3.67-4.72 29.69-24.66 54.41-52.84 68.6-90.14-10.3.52-19.76.66-29.14 1.56-8.12.78-8.08 1.17-11.42-6.14-1.02-2.24-2.02-4.48-3.31-7.33 15.56 1.16 30.46 2.28 45.48 3.4 0-15.83 0-30.53 0-46.48 10.17 2.94 20.58 5.46 30.62 9.04 4.96 1.77 4.81 6.27.04 8.93-2.99 1.66-6.57 2.21-9.76 3.57-1.3.55-3.19 1.86-3.23 2.89-.29 6.94-.15 13.9-.15 21.36 5.89 0 11.19.18 16.46-.12 1.4-.08 2.91-1.4 4.03-2.49 4.04-3.93 7.94-8.01 12.1-12.24 7.21 5.33 14.27 10.28 20.95 15.71 1.4 1.14 2.21 4.27 1.7 6.04-.36 1.28-3.32 2.56-5.14 2.59-14.66.21-29.33.12-43.99.13-1.8 0-3.59 0-6.1 0 0 5.08-.23 9.7.15 14.27.1 1.23 1.88 2.54 3.16 3.42 13.76 9.42 27.27 19.17 38.13 32 6.95 8.23 12.75 17.06 12.33 28.6-.17 4.56-1.97 7.84-6.35 9.02-4.22 1.14-7.7-.71-9.59-4.5-4.3-8.6-7.97-17.52-12.5-25.99-6.16-11.54-14.54-21.39-25.38-31.22z"/><path d="m101.2 87.07c0 7.9-.21 15.2.17 22.48.08 1.5 2.17 3.06 3.6 4.3 9.26 8.07 18.82 15.81 27.79 24.18 4.21 3.92 6.68 9.47 5.4 15.42-.58 2.71-2.63 6.2-4.91 7.12-1.89.76-5.58-1.16-7.58-2.91-2.14-1.87-3.19-4.96-4.81-7.47-5.82-9.01-11.67-18-17.51-26.99-.59.24-1.17.48-1.76.71-.14 1.16-.43 2.33-.39 3.48.9 24.1 1.78 48.2 2.81 72.29.28 6.43-3 10.07-9.93 10.3-6.25.22-10.03-3.27-10.05-9.73-.07-23.17-.03-46.33-.03-69.49 0-2.09 0-4.18 0-6.28-14.41 23.13-30.31 44.66-51.89 61.95-1.6-1.41-3.06-2.69-4.95-4.35 22.55-28.67 43-58.36 51.56-94.22-11.96 0-23.55 0-36.01 0-1.7-3.77-3.85-8.52-6.02-13.34 15.76 1.06 31.1 2.09 46.8 3.14 0-16.47 0-31.97 0-48.09 9.26 2.36 18.48 4.4 27.46 7.2 2.51.78 4.3 3.85 6.42 5.87-2.09 2.08-3.88 4.68-6.35 6.11-2.79 1.61-7.74 1.29-8.94 3.4-1.67 2.94-.8 7.36-.88 11.16-.09 4.3-.02 8.61-.02 12.61 14.71 5.68 19.49-7.12 27.66-14.26 7.15 5.55 14.35 10.91 21.21 16.66 1.29 1.08 2.2 4.16 1.58 5.58-.66 1.51-3.29 2.9-5.14 3-6.48.37-12.99.16-19.49.17-8.32 0-16.65 0-25.8 0z"/><path d="m197.64 183.63c7.32 3.91 13.77 7.36 20.22 10.82.88.47 1.93.82 2.56 1.53 1.59 1.77 2.98 3.72 4.45 5.59-2.32.95-4.57 2.19-6.98 2.75-2.44.57-5.04.45-7.7 1.61 51.35 26.75 105.16 44.64 163.54 47.93v6.08c-9.66 1.4-19.74 2.79-22.04 15.63-54.57-12.29-104.3-34.36-150.08-65.86-18.97 13.73-38.8 25.57-59.86 35.26-31.73 14.6-64.92 24.25-99.48 29.38-4.68.69-7.91 1.01-7.92-5.14 30.13-7.73 59.95-16.9 88.19-30.48 28.39-13.66 54.96-29.94 75.1-55.1z"/><path d="m230.18 374.87c-1.91-2.5-3.01-3.94-4.35-5.69 17.01-18.21 33.99-36.47 47.04-58.69-1.76-.18-2.98-.41-4.2-.4-46.66.02-93.32.01-139.98.14-7.98.02-15.96.51-23.93 1-3.09.19-4.93-.66-6-3.73-1.18-3.4-2.87-6.62-4.24-9.69 56.88 5.39 113.64 1.62 170.31 2.92 5.9.13 10.24-1.28 13.62-6.09 1.32-1.88 3.16-3.4 5.25-5.61 6.72 5.4 13.6 10.54 20.01 16.23 3.94 3.5 3.16 7.57-1.79 7.8-14.59.66-19.86 13.02-28.53 21.07-14.36 13.33-28.54 26.88-43.21 40.74z"/><path d="m236.14 242.52c8.49 7.16 15.81 13.16 22.87 19.44 1.37 1.22 2.86 4.28 2.27 5.26-.93 1.54-3.59 2.82-5.52 2.83-24.79.18-49.59 0-74.38.17-12.46.09-24.91.61-37.36 1.19-2.56.12-3.88-.31-4.83-2.83-1.42-3.81-3.32-7.45-5.26-11.7 27.55 5.66 54.85 3.58 82.04 3.83 1.87.02 4.21-1.06 5.55-2.41 4.92-4.94 9.51-10.21 14.62-15.78z"/><path d="m156.34 172.25c27.92-17.57 52.87-37.59 74.47-61.85 1.3 1 2.07 1.56 2.81 2.17.64.52 1.24 1.09 2.56 2.28-5.1 6.68-9.83 13.65-15.35 19.93-11.74 13.37-23.76 26.49-35.95 39.45-2.58 2.75-3.82 5.16-2.65 8.71.31.94.82 1.98.68 2.89-.36 2.32-1.03 4.6-1.58 6.89-2.55-.69-5.82-.61-7.52-2.2-5.92-5.58-11.29-11.72-17.47-18.27z"/><path d="m155.66 76.78c.98-1.82 2.04-3.81 3.26-6.09 14.9 5.86 29.5 11.51 42.04 20.95 4.28 3.22 7.54 8.29 10.03 13.15 1.21 2.38.23 6.48-.94 9.32-1.68 4.07-5.88 5.12-9.59 2.7-2.45-1.6-4.82-3.71-6.42-6.13-8.78-13.22-21.12-22.37-34.3-30.6-1.13-.7-2.25-1.42-3.34-2.17-.24-.16-.35-.52-.74-1.13z"/><path d="m170.66 34.82c1-1.97 1.81-3.58 2.9-5.75 16.04 6.87 33.07 11.35 46.52 23.14 4.11 3.6 7.52 8.15 6.84 13.77-.39 3.19-2.48 7.4-5.05 8.73-2.11 1.1-6.12-1.24-9.18-2.34-.97-.35-1.79-1.52-2.38-2.49-9.1-14.78-22.86-24.37-37.16-33.34-.7-.45-1.36-.94-2.49-1.72z"/></g></svg>