<svg enable-background="new 0 0 400 400" viewBox="0 0 400 400" xmlns="http://www.w3.org/2000/svg"><path d="m377.9 391.2c-.2.3-.4.5-.6.8-.7-.6-1.4-1-2.2-1.5.2-.3.4-.5.5-.8.6.4 1.4.8 2.3 1.5zm-1.8 6.1c-.2-.2-.5-.4-.9-.6.4-.6.8-1.2 1.2-1.9s.7-1.3.9-1.9c.3.3.5.5.8.7-.7 1.3-1.4 2.6-2 3.7zm2.2-9c-.3.3-.5.5-.6.8-.6-.6-1.3-1.1-2-1.5.3-.3.5-.5.6-.7.6.5 1.3.9 2 1.4zm.3.2v-.9h2 4.5c-.3 1.3-.6 2.5-1 3.6s-.9 2.1-1.4 3c.4.5 1 1 1.6 1.4s1.2.8 1.9 1.1c-.3.2-.5.4-.8.8-.4-.3-1-.7-1.6-1.2s-1.2-1.1-1.6-1.6c-.5.6-1.1 1.1-1.7 1.6s-1.4.9-2.1 1.4c-.1-.3-.3-.5-.7-.8.6-.2 1.2-.5 1.9-1s1.4-1.1 2-1.8c-.5-.8-.9-1.6-1.2-2.5s-.6-2-.8-3.2c-.4.1-.7.1-1 .1zm2.5 2.7c.3 1 .7 1.7 1 2.2.3-.5.6-1.1 1-2s.6-1.9.9-3h-3.2-.4c.1.9.3 1.8.7 2.8z" fill="#fbfcfa"/><path d="m396.5 388.5v1.5 3.6h1.5v.9c-.4 0-1 0-1.7 0h-7.9c-.5 0-.9 0-1.2 0v-.9h1.3v-3.5c0-.7 0-1.2 0-1.6h2.4c0-.8 0-1.4 0-1.7h1c0 .3-.1.8-.1 1.7h1.5c0-.8 0-1.4 0-1.7h1c0 .3-.1.9-.1 1.7zm-8.2 9.2c-.2-.3-.5-.5-.8-.8.8-.3 1.4-.6 1.9-.9s1-.7 1.4-1.1c.3.3.6.5.9.8-1.6 1-2.8 1.6-3.4 2zm2.6-6.8v-1.6h-1.5v1.6zm0 2.7v-1.9h-1.5v1.9zm2.4-2.7v-1.6h-1.5v1.6zm0 2.7v-1.9h-1.5v1.9zm.2 2 .7-.8c.4.2.9.5 1.6.8s1.3.7 1.8 1c-.3.3-.5.5-.8.8-.4-.3-1.5-1-3.3-1.8zm2-4.7v-1.6h-1.4v1.6zm0 2.7v-1.9h-1.4v1.9z" fill="#fbfcfa"/><g fill="#010100"><path d="m104.18 199.05c5.56 3.45 10.39 6.67 15.45 9.47 2.21 1.22 4.89 2.15 7.38 2.2 10.81.24 21.62.1 33.17.1-2.56-12.09-7.22-22.68-14.22-32.44 1.06-1.16 2.05-2.24 3.65-3.98 5.68 4.73 11.54 9.05 16.74 14.07 8.29 8.01 8.65 12.19 2.71 22.33 9.09 0 17.83.09 26.57-.1 1.21-.03 2.61-1.27 3.56-2.29 3.39-3.65 6.62-7.45 10.28-11.61 6.36 4.3 12.88 8.23 18.84 12.88 4.91 3.83 4.38 7.63-.7 11.27-.54.39-1.1.86-1.72 1-8.4 1.95-9.35 7.74-8.96 15.28.89 17.27.96 34.59 1.48 51.89.26 8.61-6.04 14.06-14.51 11.7-2.05-.57-3.43-3.56-6.11-6.54-23.5 0-48.9 0-74.55 0v47.54c22.59-7.42 44.66-14.68 66.74-21.93.06-.56.11-1.13.17-1.69-5.96-4.9-11.92-9.8-18.23-14.99.75-1.13 1.62-2.44 2.66-3.99 16.48 8.98 32.99 17.3 46.64 30.06 5.15 4.81 9.68 10.11 11.23 17.32 1.01 4.71-.82 9.73-4.42 11.72-3.73 2.07-7.61 1.22-11.17-3.64-5.39-7.36-10.2-15.15-15.31-22.72-1.2-1.78-2.62-3.4-4.19-5.41-5.68 3.07-11.08 6.25-16.71 8.97-16.31 7.89-32.61 15.82-49.14 23.23-4.2 1.88-6.7 4.04-7.96 8.46-.7 2.46-2.9 4.5-4.42 6.73-1.94-2.08-4.4-3.87-5.72-6.28-5.93-10.85-8.17-22.15-7.83-34.92.97-35.79.37-71.62.17-107.44-.04-8.46-.99-16.89-1.57-26.25zm19.09 57.3v26.81h76.27c0-9.17 0-17.91 0-26.81-25.52 0-50.64 0-76.27 0zm-.1-9.96h76.4c0-8.66 0-16.89 0-25.01-25.7 0-51.04 0-76.4 0z"/><path d="m85.07 173c0 2.4.02 4.04 0 5.69-.35 24.8-.22 49.63-1.21 74.41-.91 22.97-3.98 45.71-13.62 66.98-8.41 18.55-21.74 33.22-36.99 46.92-1.58-1.91-2.93-3.54-4.32-5.21 9.79-12.87 19.63-25.38 25.36-40.58 6.62-17.56 10.83-35.68 11.54-54.33 1.1-29.25 1.36-58.54 1.68-87.82.08-7.62-.97-15.25-1.45-22.87-.11-1.75-.02-3.52-.02-6.08 6.34 3.86 11.93 7.39 17.66 10.67 1.79 1.03 3.97 1.95 5.98 1.96 35.65.12 71.31.08 106.96.07.62 0 1.25-.14 1.88-.22-3.86-12.12-9.16-23.21-18.58-31.78 1.61-3.65 3.55-4.91 6.96-2.39 6.53 4.83 13.66 8.96 19.66 14.37 7.44 6.69 7.19 11.99.29 19.62 1.52.16 2.7.4 3.89.4 33.16.02 66.31.08 99.47-.12 2.45-.01 5.34-1.45 7.24-3.12 5.25-4.59 10.08-9.65 15.35-14.79 7.38 6.52 14.94 13.02 22.23 19.8 1.19 1.11 2.07 3.8 1.55 5.18-.54 1.44-2.85 2.46-4.58 3.11-1.32.49-2.96.13-4.46.13-85.31 0-170.61 0-255.92 0-1.99 0-3.96 0-6.55 0z"/><path d="m258.66 76.24c-15.1 0-29.57-.15-44.03.12-2.88.05-4.16-.58-5.1-3.19-1.28-3.58-2.96-7.02-4.3-10.14 21.26.89 42.52 1.79 63.82 2.69 0-13.33 0-25.69 0-38.82 9.37 2.41 19.27 4.74 29.01 7.63 1.98.59 4.58 3.2 4.65 4.96.07 1.77-2.64 3.67-4.19 5.47-.3.34-.87.46-1.33.65-3.48 1.45-8.99 2.07-9.99 4.52-1.67 4.12-.46 9.4-.46 14.88 8.51 0 16.99-.58 25.34.16 8.55.76 15.2-1.37 20.25-8.43 1.53-2.14 3.59-3.91 5.76-6.23 7.42 5.63 14.63 10.89 21.52 16.53 1.29 1.06 2.23 4.09 1.63 5.48-.59 1.37-3.33 2.54-5.14 2.55-21.16.17-42.32.11-63.49.11-1.81 0-3.62 0-5.92 0-.11 2.12-.02 3.93-.32 5.67-.67 3.84 1.37 5.02 4.69 5.98 16.88 4.92 33.88 9.56 50.45 15.38 8.65 3.04 16.74 7.95 24.66 12.72 4.81 2.9 6.91 7.9 6.05 13.83-.97 6.77-6.6 10.01-12.79 7.08-1.78-.84-3.5-2.01-4.91-3.38-15.68-15.27-34.8-24.87-54.61-33.35-4.11-1.76-8.26-3.45-12.45-5.19-.42.6-.93.99-.92 1.37.4 13.95.85 27.91 1.3 41.86.08 2.5.11 5 .34 7.48.45 5.09-2.36 7.69-6.78 9.04-8.82 2.68-11.58.67-11.58-8.36 0-16.16 0-32.33 0-48.49 0-1.25 0-2.49 0-4.93-18.35 18.34-38.98 31.1-61.59 41.69-1.28-1.95-2.43-3.7-3.82-5.83 20.42-15.01 39.99-30.55 54.25-51.51z"/><path d="m35.35 146.98c-1.22-1.88-2.37-3.65-3.82-5.87 26.29-17.21 48.25-38.31 64.54-65.45-12.67 0-24.91-.06-37.14.03-4.49.04-8.97.58-13.45.61-.96.01-2.38-.98-2.82-1.88-1.89-3.86-3.48-7.87-4.95-11.28 23.74.85 47.5 1.71 71.33 2.56 0-13.11 0-25.27 0-38.74 10.18 2.89 20.72 5.44 30.92 8.97 4.61 1.59 4.56 5.68.23 8.26-3.23 1.93-7.05 2.86-10.44 4.57-1.17.59-2.52 2.12-2.62 3.32-.32 4.1-.12 8.25-.12 12.92 10.51 0 20.62.09 30.73-.11 1.38-.03 2.96-1.29 4.06-2.37 3.9-3.85 7.64-7.87 11.65-12.05 7.42 5.65 14.53 10.84 21.32 16.42 1.35 1.11 2.44 4.03 1.92 5.49-.5 1.37-3.28 2.67-5.08 2.69-19.49.19-38.99.12-58.48.12-1.81 0-3.62 0-6.12 0 0 2.63.16 4.9-.04 7.14-.26 2.82.77 3.92 3.61 4.74 9.22 2.69 18.53 5.33 27.36 9.04 5.36 2.26 10.29 6.02 14.71 9.92 3.79 3.34 3.62 9.15.76 12.19-2.78 2.96-6.67 3.09-11.14-.73-9.42-8.05-19.44-15.08-30.69-20.32-1.31-.61-2.64-1.18-5.15-2.3.65 16.47 1.2 32.03 1.92 47.59.44 9.62-2.62 12.89-12.33 13.04-4.37.07-6.29-1.5-6.24-6.15.18-17.99.07-35.99.07-53.98 0-1.81 0-3.63 0-5.44-.33-.32-.66-.64-.99-.96-19.52 25.73-44.5 44.32-73.51 58.01z"/><path d="m315.07 221.77c15.01 6.11 20.69-6.37 29.21-13.67 6.99 5.32 13.97 10.37 20.58 15.86 1.44 1.2 2.55 4.29 2.02 5.94-.48 1.47-3.4 3-5.28 3.04-13.49.26-26.99.14-40.49.14-1.8 0-3.6 0-6.04 0v6.24 97.49c0 20.89-8.12 30.81-28.92 35.03-.59-10.69-6.92-16.32-16.78-18.88-4.82-1.25-9.52-2.95-14.3-4.36-6.14-1.81-6.15-1.77-3.89-7.67 11.78 1.37 23.41 3.06 35.1 3.96 7.55.58 11.41-2.96 11.46-10.58.22-33.48.1-66.96.1-101.23-1.92 0-3.68-.03-5.42 0-15.98.33-31.96.53-47.92 1.11-3.49.13-5.12-.94-6.21-4.05-1.24-3.55-2.86-6.97-3.94-9.55 20.92 1.05 41.92 2.09 63.08 3.15 0-15.81 0-30.38 0-46.02 9.7 2.65 19.54 5.12 29.2 8.15 1.91.6 4.38 3.33 4.36 5.05-.03 1.82-2.63 3.69-4.3 5.35-.64.64-1.8.79-2.73 1.11-8.87 3.03-8.87 3.03-8.87 12.74-.02 3.98-.02 7.97-.02 11.65z"/><path d="m236.82 254.56c1.2-1.65 2.26-3.1 3.64-4.99 15.56 8.98 31.08 17.69 41.37 32.89 3.74 5.53 6.19 11.79 4.4 18.83-1.02 4.01-3.71 6.22-7.67 6.81-4.11.61-6.02-2.26-7.43-5.38-1.92-4.22-3.52-8.6-5.37-12.85-4.88-11.21-12.67-20.22-21.61-28.35-2.46-2.22-4.81-4.56-7.33-6.96z"/></g></svg>