<svg enable-background="new 0 0 400 400" viewBox="0 0 400 400" xmlns="http://www.w3.org/2000/svg"><g fill="#010100"><path d="m363.81 302.36c0 5.71.39 11.19-.09 16.6-.79 8.89.15 16.6 8.15 22.55 6.6 4.91 5.56 11-2.31 13.89-6.17 2.27-12.78 3.73-19.32 4.48-8.57.98-17.26 1.25-25.9 1.26-67.82.06-135.64.02-203.46-.12-6.12-.01-12.23-1.06-18.35-1.51-9.88-.72-16.9-5.79-17.52-20.88-.62-15.31-.18-30.66-.18-45.99-.01-19.66 0-39.33-.01-58.99 0-1.31-.11-2.61-.2-4.57-6.97.86-13.75 1.18-20.29 2.63-7.7 1.71-15.17 4.47-22.79 6.6-1.18.33-3 .24-3.87-.46-4.76-3.83-9.31-7.92-14.74-12.61 11.17-1.18 21.31-2.22 31.45-3.32 9.25-1 18.51-1.97 27.73-3.17 1-.13 2.58-1.73 2.59-2.66.15-19.29.11-38.59.11-58.57-13.51 2.01-26.93 1.77-38.95 8.34-2.68 1.46-4.62 1.58-7.01-.69-4.15-3.95-8.67-7.53-13.39-11.56 20.11-2.35 39.49-4.61 59.09-6.89 0-21.76 0-43.02 0-64.4-18.69 4.79-37.25 9.54-55.69 14.27-3.17-7.41-2.99-7.61 4.21-9.62 35.83-9.96 69.82-23.82 99.39-47.03 1.7-1.34 3.36-2.73 5.02-4.12 1.52-1.27 3.02-2.56 4.86-4.12 6.43 4.89 12.91 9.51 18.98 14.63 1.56 1.32 1.8 4.2 2.65 6.36-2.23.6-4.57 1.95-6.68 1.67-6.1-.81-11.42-.01-17.06 3.02-11.55 6.2-23.66 11.34-35.43 17.13-1.44.71-3.2 2.68-3.21 4.08-.19 21.33-.12 42.66-.09 63.99 0 .46.28.93.56 1.83 4.54-.5 9.15-.79 13.66-1.62 1.3-.24 2.61-1.83 3.43-3.11 3.84-6.02 7.52-12.15 11.6-18.81 7.98 4.63 15.82 9.18 23.64 13.75 1.86 1.09 4.06 1.95 5.39 3.52 1.22 1.45 2.24 3.86 1.91 5.56-.27 1.38-2.56 3.12-4.16 3.38-11.64 1.86-23.32 3.41-35 5.02-5.76.79-11.56 1.3-17.26 2.37-1.43.27-3.63 2.17-3.65 3.34-.23 19.3-.16 38.6-.16 58.66 8.3-.89 16.15-1.62 23.96-2.69 1.12-.15 2.23-1.8 2.98-2.98 3.89-6.17 7.67-12.41 11.67-18.93 9.55 5.6 18.94 10.87 28.02 16.62 1.66 1.05 2.99 4.13 2.77 6.09-.15 1.41-2.99 3.36-4.84 3.64-16.92 2.48-33.87 4.92-50.86 6.83-13.68 1.54-13.71 1.21-13.71 14.71v84.99c0 1.17-.01 2.33 0 3.5.13 12.26 3.01 15.57 15.3 15.68 51.8.44 103.6.68 155.4.94 16.66.08 33.33.16 49.99-.07 5.78-.08 11.54-1.1 17.31-1.68 5.98-.59 9.35-4.42 10.78-9.71 2.21-8.16 3.84-16.48 5.68-24.74.5-2.26.84-4.55 1.33-7.23 2.1.26 4.24.58 6.57.92z"/><path d="m314.07 283c.56 12.36 1.08 23.96 1.61 35.56.08 1.82.3 3.65.3 5.47 0 7.77-6.32 12.4-13.8 10.06-4.23-1.32-4.53-4.96-4.55-8.52-.07-12.16-.04-24.33-.04-36.49 0-1.8 0-3.61 0-6.08-2.2 0-3.96 0-5.72 0-32.83 0-65.66-.07-98.49.05-6.64.02-13.28.91-19.92 1.02-1.49.03-3.64-1.15-4.39-2.43-2.09-3.51-3.6-7.36-5.62-11.69 12.4 1.14 24.05 2.22 36.12 3.33 0-46.26 0-91.64 0-137.61-7.24.51-14.31 1.14-21.4 1.41-1.4.05-3.56-.92-4.16-2.05-2.09-3.94-3.64-8.16-5.67-12.9 6.53.69 12.5 1.37 18.49 1.94 3.8.36 7.62.8 11.44.81 39.49.06 78.99 0 118.48.1 3.21.01 5.58-.7 7.79-3.22 4.04-4.61 8.49-8.86 13.02-13.52 7.48 6.22 14.6 11.92 21.41 17.99 1.32 1.18 2.45 4.3 1.79 5.55-.84 1.59-3.53 2.96-5.49 3.07-6.64.37-13.32.15-19.99.15-6.66 0-13.31 0-20.42 0v137.33c3.78 1.18 6.81.51 9.47-2.47 4.11-4.59 8.43-8.98 12.99-13.8 8.07 6.77 15.68 12.9 22.98 19.38 3.1 2.75 2.13 5.86-1.86 7.07-1.55.47-3.27.47-4.92.47-12.8.04-25.62.02-39.45.02zm-16.89-10.44c0-13.59 0-26.94 0-40.26-26.84 0-53.26 0-79.81 0v40.26zm-79.85-137.3v38.27h79.88c0-12.82 0-25.53 0-38.27-26.78 0-53.22 0-79.88 0zm79.91 86.54c0-13.05 0-25.61 0-38.2-26.87 0-53.39 0-79.76 0v38.2z"/><path d="m301.96 78.74c-8.61.63-16.37 1.3-24.14 1.67-1.37.06-3.48-.8-4.07-1.88-2.15-3.9-3.79-8.07-5.81-12.54 6.22.69 11.97 1.42 17.73 1.93 5.6.5 11.22.77 17.53 1.19 1.15-13.29 2.25-25.97 3.44-39.62 9.39 2.41 18.36 4.54 27.21 7.13 1.69.49 3.95 2.79 3.95 4.26.01 1.58-2.12 3.45-3.72 4.65-1.4 1.04-3.33 1.66-5.1 1.87-5.55.67-6.62 4.42-6.9 9.06-.23 3.93-.76 7.84-1.1 11.26 14.53 5.89 20.5-5.89 29.05-13.37 7.21 5.11 14.53 9.98 21.38 15.44 1.4 1.12 1.79 4.64 1.24 6.66-.35 1.26-3.35 2.49-5.18 2.52-14 .21-28 .11-42 .11-1.81 0-3.62 0-5.93 0-.85 8.01-1.84 15.71-2.43 23.44-.67 8.73-8.29 13.87-16.16 10.33-1.14-.51-2.12-2.93-2.01-4.38.62-8.11 1.59-16.2 2.44-24.3.17-1.48.32-2.94.58-5.43z"/><path d="m218.25 79.07c.81 8.68 1.42 16.61 2.32 24.51.68 6.01-1.64 8.36-9.81 9.33-4.89.58-6.42-1.16-6.92-7.16-.72-8.75-1.65-17.47-2.59-27.24-11.37.72-22.44 1.21-33.46 2.24-3.28.31-5.28.21-6.52-3.24-1.34-3.72-3.2-7.25-4.84-10.89 14.66.92 29 1.83 44.14 2.78-.9-13.66-1.73-26.31-2.65-40.35 9.69 1.75 18.9 3.22 28 5.21 1.62.35 3.76 2.83 3.84 4.42.08 1.63-2.08 3.36-3.29 5.03-.18.25-.55.36-.84.52-3.11 1.76-8.46 3.1-8.88 5.35-1.03 5.55 0 11.55.65 17.31.3 2.7 7.6 3.03 10.33.25 4.07-4.16 7.82-8.64 11.74-13.03 8.02 6.04 15.01 11.1 21.72 16.52 1.42 1.15 2.96 4.15 2.39 5.28-.77 1.56-3.47 2.97-5.38 3.02-11.32.27-22.64.14-33.96.14-1.81 0-3.61 0-5.99 0z"/></g><path d="m6.4 11.7c-1-.8-1.9-1.6-2.9-2.3l.6-.7c.9.7 1.9 1.4 2.9 2.2zm-2.1 8.3c.7-2.1 1.4-4.2 2-6.4.2.1.6.3 1 .4-.7 2.3-1.3 4.4-1.9 6.4zm3-12.8c-1.1-.9-2.1-1.7-2.9-2.4l.6-.7c1 .8 2 1.5 3 2.4zm1.4-1.3v-.9h10.2v.9c-.9 4.2-2.3 7.3-4.1 9.4 1.3 1.4 3.2 2.7 5.7 4-.2.2-.4.5-.7.9-2.5-1.4-4.4-2.7-5.7-4.2-1.4 1.5-3.5 3-6.1 4.4 0 0 0 0-.1-.1-.3-.4-.5-.7-.7-.8 2.7-1.3 4.7-2.8 6.2-4.2-1.8-2.2-3-5.3-3.7-9.4zm9.2 0h-7.1c.6 3.8 1.7 6.7 3.4 8.7 1.7-2 2.9-4.8 3.7-8.7z" fill="#fafbfa"/><path d="m31.6 3.6h.9v2.3h4.1v9.1h1.7v.9h-16.6v-.9h1.7v-9.1h4.1v-2.3h.9v2.3h3.1v-2.3zm-4 13.3.6.8c-1.9.9-3.8 1.9-5.8 2.8-.2-.3-.3-.6-.5-.9 2-.9 3.9-1.8 5.7-2.7zm-3.2-10.1v3.7h3.1v-3.7zm0 4.5v3.7h3.1v-3.7zm4.1-4.5v3.7h3.1v-3.7zm0 4.5v3.7h3.1v-3.7zm9.1 9.1c-2.1-1.1-4.1-2-5.8-2.7l.5-.8c2.2.9 4.1 1.8 5.8 2.6zm-1.9-13.6h-3.1v3.7h3.1zm-3.2 4.5v3.7h3.1v-3.7z" fill="#fafbfa"/></svg>