<svg enable-background="new 0 0 400 400" viewBox="0 0 400 400" xmlns="http://www.w3.org/2000/svg"><g fill="#010100"><path d="m142.98 69.82c-1.89-4.43-3.91-9.15-5.94-13.92 9.77 1.02 19.37 2.84 28.99 2.89 50.65.31 101.31.21 151.96.09 2 0 4.36-1.21 5.92-2.58 5.26-4.6 10.23-9.52 15.86-14.84 7.2 6.45 15.03 13.31 22.59 20.45.95.9 1.24 3.8.51 4.84-.92 1.31-3.19 2.29-4.9 2.32-12.49.19-24.99.1-37.49.1-17.83 0-35.66.09-53.49-.08-3.21-.03-4.67.97-5.71 3.98-3.52 10.2-7.08 20.4-11.11 30.41-3.52 8.75-1.29 17.77-2.19 26.61-.6 5.88 1.29 9.46 6.47 12.86 26.75 17.58 52.47 36.59 74.54 59.97 6.56 6.95 12.31 14.8 17.53 22.82 3.47 5.32 4.15 11.82 2.54 18.27-1.69 6.74-8.82 9.89-14.34 5.67-3.18-2.43-6.03-5.9-7.76-9.52-13.12-27.54-32.94-49.85-54.6-70.74-7.53-7.27-15.36-14.23-23.8-22.02-.25 2.16-.5 3.34-.5 4.52.02 48.15-.07 96.31.19 144.46.05 9.61 1.2 19.24 2.29 28.82.59 5.13.83 9.89-3.59 14.52 1.97.09 3.2.19 4.43.19 23.99.01 47.99.09 71.98-.12 2.31-.02 5.02-1.32 6.82-2.86 5.3-4.53 10.25-9.49 15.73-14.66 7.14 6.4 14.85 13.16 22.32 20.18 1.05.99 1.71 3.49 1.2 4.76-.51 1.29-2.59 2.17-4.16 2.75-1.18.43-2.64.09-3.97.1-71.65.04-143.3.05-214.95.15-5.47.01-10.94.66-16.9 1.04-2.14-4.94-4.26-9.86-6.52-15.07 37.06 6.86 74.05 2.22 110.04 4.02-.75-4.34-2.01-8.22-2.02-12.11-.13-58.82-.09-117.64-.09-176.46 0-1.82 0-3.64 0-5.47-.37-.28-.75-.55-1.12-.83-26.09 43.1-57.35 81.49-99.26 110.64-1.21-1.42-2.45-2.88-4.12-4.83 55.07-49.86 93.51-110.24 115.59-181.33-32.99.01-65.66.01-98.97.01z"/><path d="m114.77 220.97c1.95 1.22 3.6 2.26 5.9 3.71-4.48 10.4-8.83 20.75-13.39 31-12.92 29.04-28.06 56.86-45.55 83.41-1.03 1.57-1.3 3.98-1.14 5.93.27 3.44 1.43 6.82 1.64 10.27.09 1.53-.82 3.9-2 4.52-1.25.66-3.62.14-5.02-.68-1.8-1.05-3.3-2.76-4.61-4.44-5.1-6.53-10.07-13.17-15.22-19.94 33.21-33.36 55.17-74.17 79.39-113.78z"/><path d="m31.05 132.58c1.21-1.88 2.36-3.65 3.76-5.81 18.56 7.5 37.2 14.67 51.8 28.83 3.88 3.76 6.57 9.07 8.74 14.13 1.07 2.5.42 6.32-.68 9.05-2.1 5.22-7.89 6.62-12.29 3.1-2.8-2.24-5.51-5-7.27-8.09-9.97-17.5-25.35-29.17-41.83-39.74-.7-.45-1.38-.91-2.23-1.47z"/><path d="m53.59 41.87c.94-1.7 1.95-3.54 3.22-5.84 18.83 7.4 37.62 14.18 51.91 29.01 4.39 4.55 7.62 10.06 6.34 16.61-.59 3.03-2.54 7.26-4.9 8.11-2.75 1-7.09-.33-9.88-2.04-2.81-1.72-4.99-4.92-6.71-7.89-8.67-15-21.38-25.73-35.82-34.71-1.13-.7-2.25-1.41-3.35-2.16-.24-.17-.37-.5-.81-1.09z"/></g><path d="m6.4 11.7c-1-.8-1.9-1.6-2.9-2.3l.6-.7c.9.7 1.9 1.4 2.9 2.2zm-2.1 8.3c.7-2.1 1.4-4.2 2-6.4.2.1.6.3 1 .4-.7 2.3-1.3 4.4-1.9 6.4zm3-12.8c-1.1-.9-2.1-1.7-2.9-2.4l.6-.7c1 .8 2 1.5 3 2.4zm1.4-1.3v-.9h10.2v.9c-.9 4.2-2.3 7.3-4.1 9.4 1.3 1.4 3.2 2.7 5.7 4-.2.2-.4.5-.7.9-2.5-1.4-4.4-2.7-5.7-4.2-1.4 1.5-3.5 3-6.1 4.4 0 0 0 0-.1-.1-.3-.4-.5-.7-.7-.8 2.7-1.3 4.7-2.8 6.2-4.2-1.8-2.2-3-5.3-3.7-9.4zm9.2 0h-7.1c.6 3.8 1.7 6.7 3.4 8.7 1.7-2 2.9-4.8 3.7-8.7z" fill="#fafbfa"/><path d="m31.6 3.6h.9v2.3h4.1v9.1h1.7v.9h-16.6v-.9h1.7v-9.1h4.1v-2.3h.9v2.3h3.1v-2.3zm-4 13.3.6.8c-1.9.9-3.8 1.9-5.8 2.8-.2-.3-.3-.6-.5-.9 2-.9 3.9-1.8 5.7-2.7zm-3.2-10.1v3.7h3.1v-3.7zm0 4.5v3.7h3.1v-3.7zm4.1-4.5v3.7h3.1v-3.7zm0 4.5v3.7h3.1v-3.7zm9.1 9.1c-2.1-1.1-4.1-2-5.8-2.7l.5-.8c2.2.9 4.1 1.8 5.8 2.6zm-1.9-13.6h-3.1v3.7h3.1zm-3.2 4.5v3.7h3.1v-3.7z" fill="#fafbfa"/></svg>