<svg enable-background="new 0 0 400 400" viewBox="0 0 400 400" xmlns="http://www.w3.org/2000/svg"><g fill="#010100"><path d="m197.03 105.56c5.8 4.65 10.82 8.96 16.17 12.8 1.98 1.42 4.73 2.46 7.14 2.47 31.16.16 62.32.03 93.48.2 4.02.02 6.96-.88 9.39-4.15 2.07-2.78 4.62-5.21 7.3-8.17 5.31 3.89 10.74 7.41 15.63 11.56 5.21 4.43 5.08 9.2-1.05 11.61-7.76 3.05-8.15 8.22-8.05 15.16.35 23.99-.05 47.99.22 71.98.11 9.95 1.38 19.89 1.74 29.84.28 7.72-7.47 12.6-14.45 9.07-1.67-.84-2.86-3.45-3.4-5.48-.58-2.15-.13-4.57-.13-7.16-35.63 0-70.89 0-106.94 0v5.16 77.49c0 12.19 3.66 16.27 15.83 16.9 11.8.6 23.62 1.25 35.43 1.06 19.75-.31 39.49-1.24 59.24-2.01 2.81-.11 5.6-.72 8.38-1.23 9.64-1.74 13.71-8.18 15-17.33 1.65-11.65 3.69-23.25 5.61-35.19 1.54.31 3.25.64 4.6.91 0 10.26.32 20.38-.1 30.46-.33 7.68 1.43 13.8 7.75 18.86 6.39 5.12 5.58 10.86-2.18 13.44-7.79 2.59-16.1 4.77-24.24 4.97-34.12.85-68.26 1.08-102.39 1.08-8.24 0-16.52-1.47-24.71-2.77-8.61-1.37-13.41-6.78-14.39-15.42-.28-2.47-.29-4.99-.29-7.48.06-71.65.16-143.3.19-214.95-.01-4.26-.48-8.51-.78-13.68zm123.79 80.06c-35.81 0-71.16 0-106.32 0v48.99h106.32c0-16.44 0-32.56 0-48.99zm-106.46-11.02h106.27c0-14.63 0-28.85 0-43.15-35.58 0-70.78 0-106.27 0z"/><path d="m150.51 53.36c5.76 3.47 10.26 6.61 15.15 8.95 2.95 1.41 6.58 2.47 9.76 2.17 30.62-2.88 60.86-8.08 90.73-15.46 21.19-5.23 41.99-11.44 61.67-22.32 6.33 6.73 12.77 13.44 18.99 20.34.9 1 1.29 3.2.83 4.45-.32.87-2.47 1.11-3.84 1.54-.45.14-1.06.17-1.48-.01-12.69-5.39-24.28 1.45-36.27 3.37-25.56 4.08-50.98 9.1-76.61 12.6-19.08 2.61-38.39 3.43-57.6 5.07-.63.05-1.26.24-2.42.47v5.95c-.11 39.33.53 78.68-.57 117.98-.98 34.87-3.85 69.67-15.64 103.04-8.35 23.64-21.9 43.94-39.08 61.98-.45.47-1.05.79-1.68 1.26-1.09-.85-2.15-1.65-3.16-2.5-.49-.41-.89-.94-.7-.74 7.32-13.34 15-25.98 21.37-39.25 10.52-21.92 15.51-45.43 18.08-69.53 6.26-58.8 3.46-117.78 3.55-176.7-.01-7.14-.67-14.28-1.08-22.66z"/><path d="m30.11 327.32c32.69-35.36 58.35-75.54 82.4-117.39 1.94 1.23 3.81 2.41 6.42 4.06-8.82 18.17-17.08 36.3-26.32 53.91-11.5 21.93-23.91 43.37-35.65 65.18-1.26 2.34-.42 5.73-.92 8.57-.65 3.77-1.65 7.48-2.5 11.22-3.07-2.18-6.72-3.88-9.1-6.66-5.06-5.92-9.47-12.4-14.33-18.89z"/><path d="m29.55 130.03c1.21-1.97 2.22-3.61 3.79-6.16 8.98 4.34 18.31 7.93 26.63 13.12 9.35 5.84 18.15 12.73 26.45 20.01 3.21 2.81 5.05 7.77 6.26 12.1 1.14 4.08-.21 8.3-4.41 10.7-4.16 2.37-8.15 1.5-11.47-1.51-2.18-1.97-4.18-4.38-5.54-6.97-8.51-16.21-21.03-28.46-36.59-37.8-1.68-1.02-3.24-2.21-5.12-3.49z"/><path d="m46.01 43.74c1.39-2.2 2.52-4 3.81-6.03 18.01 7.02 35.11 14.97 49.49 27.71 5.22 4.62 9.49 10.28 8.55 17.69-.39 3.04-2.48 7.32-4.88 8.25-2.74 1.06-6.94-.42-10-1.87-2.19-1.04-3.91-3.62-5.2-5.89-9.35-16.37-23.2-28.07-38.91-37.87-.83-.52-1.6-1.11-2.86-1.99z"/></g><path d="m6.4 11.7c-1-.8-1.9-1.6-2.9-2.3l.6-.7c.9.7 1.9 1.4 2.9 2.2zm-2.1 8.3c.7-2.1 1.4-4.2 2-6.4.2.1.6.3 1 .4-.7 2.3-1.3 4.4-1.9 6.4zm3-12.8c-1.1-.9-2.1-1.7-2.9-2.4l.6-.7c1 .8 2 1.5 3 2.4zm1.4-1.3v-.9h10.2v.9c-.9 4.2-2.3 7.3-4.1 9.4 1.3 1.4 3.2 2.7 5.7 4-.2.2-.4.5-.7.9-2.5-1.4-4.4-2.7-5.7-4.2-1.4 1.5-3.5 3-6.1 4.4 0 0 0 0-.1-.1-.3-.4-.5-.7-.7-.8 2.7-1.3 4.7-2.8 6.2-4.2-1.8-2.2-3-5.3-3.7-9.4zm9.2 0h-7.1c.6 3.8 1.7 6.7 3.4 8.7 1.7-2 2.9-4.8 3.7-8.7z" fill="#fafbfa"/><path d="m31.6 3.6h.9v2.3h4.1v9.1h1.7v.9h-16.6v-.9h1.7v-9.1h4.1v-2.3h.9v2.3h3.1v-2.3zm-4 13.3.6.8c-1.9.9-3.8 1.9-5.8 2.8-.2-.3-.3-.6-.5-.9 2-.9 3.9-1.8 5.7-2.7zm-3.2-10.1v3.7h3.1v-3.7zm0 4.5v3.7h3.1v-3.7zm4.1-4.5v3.7h3.1v-3.7zm0 4.5v3.7h3.1v-3.7zm9.1 9.1c-2.1-1.1-4.1-2-5.8-2.7l.5-.8c2.2.9 4.1 1.8 5.8 2.6zm-1.9-13.6h-3.1v3.7h3.1zm-3.2 4.5v3.7h3.1v-3.7z" fill="#fafbfa"/></svg>