<svg enable-background="new 0 0 400 400" viewBox="0 0 400 400" xmlns="http://www.w3.org/2000/svg"><g fill="#010100"><path d="m279.83 195.34c-2.25 0-4.01 0-6.01 0-13.53 56.34-47.29 95.1-101.22 116.28-3.83-5.37-3.8-5.32 2.68-8.89 36.92-20.35 61.67-51.01 76.03-90.32 1.97-5.39 3.01-11.13 4.58-17.11-15.06 0-29.35 0-44.49 0v6.29c0 3.71-1.97 5.34-5.57 5.59-9.73.7-13.31-3.3-12.91-13.32.78-19.94 1.19-39.89 1.63-59.84.07-3.13-.46-6.28-.77-10.07-7.54 5.74-14.82 11.28-22.57 17.18-1.12-1.76-2.05-3.24-3.29-5.2 34.58-28.94 55.84-66.57 70.3-109.21 8.85 3.9 17.55 7.5 25.97 11.64 1.79.88 3.88 3.95 3.56 5.56-.34 1.69-3.44 4.07-5.27 4.02-9.44-.24-14.71 4.39-18.06 12.78-1.76 4.42-4.85 8.31-7.3 12.45-.14.23.01.62.06 1.63h8.7c14 0 28-.12 41.99.08 3.65.05 6.27-.78 8.47-3.84 2.32-3.22 5.18-6.04 7.95-9.22 6.44 5.35 12.82 10.39 18.82 15.85 1.61 1.46 3.16 4.53 2.67 6.3-.48 1.76-3.47 3.82-5.51 3.99-7.23.61-11.78 4.74-16.54 9.68-8.87 9.22-18.47 17.75-27.76 26.57-.56.53-1.01 1.16-2.24 2.58h13.16c12 0 24-.14 35.99.09 3.51.07 5.95-.98 8.12-3.65 2.81-3.47 5.92-6.69 9.24-10.4 6.32 4.19 12.6 7.92 18.38 12.31 5.54 4.21 5.31 10.03-1.1 12.53-8.75 3.41-10.19 9.29-9.47 17.45.58 6.61.35 13.33.03 19.98-.18 3.68 1.09 5.86 4.25 7.52 2.48 1.31 5.01 2.83 6.92 4.82 1.27 1.32 2.16 3.77 1.88 5.5-.15.93-3.11 2-4.8 2.01-19.49.14-38.98.09-59.33.09v4.89c0 26.33-.01 52.66 0 78.98 0 7.93 2.07 10.59 9.79 11.71 10.59 1.54 21.11 1.33 31.76-.43 7.65-1.26 11.64-5.48 13.17-12.32 1.76-7.92 2.87-15.99 4.18-24.01.82-5.06 1.47-10.15 2.24-15.5 1.78.31 3.2.56 4.2.73 0 10.49.22 20.78-.08 31.06-.2 7.15 1.74 12.83 7.53 17.47 7.76 6.23 7.12 12.06-2.36 15.05-8.73 2.76-18.08 4.22-27.25 4.83-14.71.98-29.55 2.49-44.18-1.2-11.98-3.02-16.11-8.08-16.15-20.35-.08-28.16-.03-56.32-.03-84.48.01-1.94.01-3.9.01-6.13zm-80.45-75.75c5.49 2.31 11.21 6.48 17.2 6.9 14.9 1.03 29.91.46 44.88.2 2.07-.04 4.86-1.4 6.03-3.06 5.72-8.15 11.03-16.58 16.43-24.95 2.74-4.25 5.37-8.59 8.49-13.6-21.2 0-41.44-.02-61.67.06-.99 0-2.26.64-2.91 1.39-9.35 10.76-18.61 21.58-28.45 33.06zm131.88 65.68c0-16.19 0-32.07 0-48.1-17.61 0-34.89 0-52.55 0-1.2 16.07-2.39 32-3.59 48.1zm-119.42-48.1v48.19h45.41c1.14-16.1 2.27-32.02 3.41-48.19-16.99 0-32.74 0-48.82 0z"/><path d="m158.11 137.5c5.65 5.15 10.75 9.46 15.45 14.16 6.27 6.26 5.15 11.24-3.41 12.89-6.69 1.29-10.01 4.76-12.68 10.71-6.55 14.55-13.81 28.77-20.77 43.14-.42.86-.7 1.8-1 2.59 13.06 4.42 20.74-2.32 26.37-13.05 6.08 4.42 11.6 8.15 16.78 12.3 4.77 3.82 4.59 6.39-.02 10.51-.37.33-.74.72-1.18.91-6.89 3-8.48 9.17-10.23 15.72-5.52 20.68-13.52 40.31-26.6 57.52-1.87 2.46-1.71 3.75.56 6.14 17.8 18.72 40.29 25.59 65.25 28.12 38.19 3.86 76.42 4.39 114.7 3.32 14.76-.42 29.49-2.24 44.23-3.36 2.29-.17 4.6-.02 7.02-.02 1.24 3.66.42 5.97-3.55 7.07-5.52 1.52-9.41 5-10.77 10.71-.64 2.7-2.12 3.26-4.64 3.25-31.66-.09-63.34.72-94.96-.39-21.68-.76-43.33-3.68-64.87-6.52-16.7-2.21-30.44-11.07-42.71-22.28-6.12-5.59-12.26-11.16-19.46-17.7-11.48 15.38-22.66 30.36-34.35 46.03-3.7-4.57-7.7-9.51-11.79-14.56 7.54-6.59 14.91-12.99 22.23-19.44 7.11-6.27 14.19-12.57 21.21-18.95 1.18-1.08 2.09-2.52 2.91-3.92 10.48-17.9 15.9-37.55 20.03-57.66.83-4.05 1.78-8.07 2.92-13.21-11.6.67-22.66 1.38-33.73 1.87-2.14.09-5.3.01-6.2-1.26-.95-1.33-.28-4.44.61-6.35 7.5-16.12 15.22-32.13 22.84-48.2 2.62-5.52 5.13-11.1 7.83-16.97-9.07 0-17.62 0-26.17.01-.16 0-.32.11-.48.11-15.57.39-12.07 3.58-17.66-12.63 4.56.33 8.89.76 13.22.93 9.64.38 19.28.71 28.93.83 1.42.02 3.15-.94 4.23-1.98 3.37-3.26 6.47-6.75 9.91-10.39z"/><path d="m27.94 333.82c26.47-36.6 44.59-77.36 64.39-117.15 5.04 2.19 6.31 4.92 4.26 10.2-14.38 37.15-28.53 74.39-42.39 111.74-1.47 3.96-.4 8.82-.88 13.22-.23 2.12-1.33 4.15-2.03 6.23-2.11-1.03-4.8-1.54-6.21-3.17-5.98-6.9-11.56-14.14-17.14-21.07z"/><path d="m27.3 135.86c1.16-1.91 2.33-3.85 3.63-6 17.49 6.13 33.45 14.35 46.65 27.13 2.7 2.61 4.6 6.48 5.81 10.12 1.86 5.57-.93 11.26-5.67 13.4-4.16 1.88-9.02-.49-12.7-5.24-7.28-9.41-14.54-18.88-22.54-27.67-4.15-4.56-9.85-7.71-15.18-11.74z"/><path d="m120.54 57.79c1.7-1.98 2.88-3.37 4.44-5.19 15.33 10.36 31.38 19.74 40.75 36.44 2.23 3.97 2.97 9.08 3.3 13.74.3 4.25-2.25 8.38-6.7 8.57-3.1.13-6.49-2.16-9.4-3.95-1.35-.83-2.15-2.94-2.7-4.64-5.67-17.63-14.92-32.92-29.69-44.97z"/><path d="m48.2 43c14.71 5.07 28.68 11.23 41.11 20.28 3.65 2.66 7.17 6.33 9.02 10.34 1.55 3.36 1.42 8.1.51 11.85-1.25 5.14-5.91 6.85-10.58 4.33-2.68-1.45-5.47-3.6-6.97-6.16-7.78-13.24-18.4-23.51-31.57-31.16-4.42-2.56-4.59-5.4-1.52-9.48z"/><path d="m305.86 215.87c1.98-.45 4.19-1.7 5.17-1.07 9.99 6.55 20.52 12.49 27.95 22.26 3.82 5.02 6.81 10.6 5.86 16.94-.48 3.19-2.67 6.91-5.25 8.8-3.3 2.42-7.52-.21-9.25-4.73-2.84-7.4-4.82-15.29-8.71-22.09-3.92-6.82-9.73-12.55-15.77-20.11z"/></g><path d="m6.4 11.7c-1-.8-1.9-1.6-2.9-2.3l.6-.7c.9.7 1.9 1.4 2.9 2.2zm-2.1 8.3c.7-2.1 1.4-4.2 2-6.4.2.1.6.3 1 .4-.7 2.3-1.3 4.4-1.9 6.4zm3-12.8c-1.1-.9-2.1-1.7-2.9-2.4l.6-.7c1 .8 2 1.5 3 2.4zm1.4-1.3v-.9h10.2v.9c-.9 4.2-2.3 7.3-4.1 9.4 1.3 1.4 3.2 2.7 5.7 4-.2.2-.4.5-.7.9-2.5-1.4-4.4-2.7-5.7-4.2-1.4 1.5-3.5 3-6.1 4.4 0 0 0 0-.1-.1-.3-.4-.5-.7-.7-.8 2.7-1.3 4.7-2.8 6.2-4.2-1.8-2.2-3-5.3-3.7-9.4zm9.2 0h-7.1c.6 3.8 1.7 6.7 3.4 8.7 1.7-2 2.9-4.8 3.7-8.7z" fill="#fafbfa"/><path d="m31.6 3.6h.9v2.3h4.1v9.1h1.7v.9h-16.6v-.9h1.7v-9.1h4.1v-2.3h.9v2.3h3.1v-2.3zm-4 13.3.6.8c-1.9.9-3.8 1.9-5.8 2.8-.2-.3-.3-.6-.5-.9 2-.9 3.9-1.8 5.7-2.7zm-3.2-10.1v3.7h3.1v-3.7zm0 4.5v3.7h3.1v-3.7zm4.1-4.5v3.7h3.1v-3.7zm0 4.5v3.7h3.1v-3.7zm9.1 9.1c-2.1-1.1-4.1-2-5.8-2.7l.5-.8c2.2.9 4.1 1.8 5.8 2.6zm-1.9-13.6h-3.1v3.7h3.1zm-3.2 4.5v3.7h3.1v-3.7z" fill="#fafbfa"/></svg>