<svg enable-background="new 0 0 400 400" viewBox="0 0 400 400" xmlns="http://www.w3.org/2000/svg"><path d="m377.9 391.2c-.2.3-.4.5-.6.8-.7-.6-1.4-1-2.2-1.5.2-.3.4-.5.5-.8.6.4 1.4.8 2.3 1.5zm-1.8 6.1c-.2-.2-.5-.4-.9-.6.4-.6.8-1.2 1.2-1.9s.7-1.3.9-1.9c.3.3.5.5.8.7-.7 1.3-1.4 2.6-2 3.7zm2.2-9c-.3.3-.5.5-.6.8-.6-.6-1.3-1.1-2-1.5.3-.3.5-.5.6-.7.6.5 1.3.9 2 1.4zm.3.2v-.9h2 4.5c-.3 1.3-.6 2.5-1 3.6s-.9 2.1-1.4 3c.4.5 1 1 1.6 1.4s1.2.8 1.9 1.1c-.3.2-.5.4-.8.8-.4-.3-1-.7-1.6-1.2s-1.2-1.1-1.6-1.6c-.5.6-1.1 1.1-1.7 1.6s-1.4.9-2.1 1.4c-.1-.3-.3-.5-.7-.8.6-.2 1.2-.5 1.9-1s1.4-1.1 2-1.8c-.5-.8-.9-1.6-1.2-2.5s-.6-2-.8-3.2c-.4.1-.7.1-1 .1zm2.5 2.7c.3 1 .7 1.7 1 2.2.3-.5.6-1.1 1-2s.6-1.9.9-3h-3.2-.4c.1.9.3 1.8.7 2.8z" fill="#fbfcfa"/><path d="m396.5 388.5v1.5 3.6h1.5v.9c-.4 0-1 0-1.7 0h-7.9c-.5 0-.9 0-1.2 0v-.9h1.3v-3.5c0-.7 0-1.2 0-1.6h2.4c0-.8 0-1.4 0-1.7h1c0 .3-.1.8-.1 1.7h1.5c0-.8 0-1.4 0-1.7h1c0 .3-.1.9-.1 1.7zm-8.2 9.2c-.2-.3-.5-.5-.8-.8.8-.3 1.4-.6 1.9-.9s1-.7 1.4-1.1c.3.3.6.5.9.8-1.6 1-2.8 1.6-3.4 2zm2.6-6.8v-1.6h-1.5v1.6zm0 2.7v-1.9h-1.5v1.9zm2.4-2.7v-1.6h-1.5v1.6zm0 2.7v-1.9h-1.5v1.9zm.2 2 .7-.8c.4.2.9.5 1.6.8s1.3.7 1.8 1c-.3.3-.5.5-.8.8-.4-.3-1.5-1-3.3-1.8zm2-4.7v-1.6h-1.4v1.6zm0 2.7v-1.9h-1.4v1.9z" fill="#fbfcfa"/><g fill="#010100"><path d="m28.98 261.21c-1.23-1.56-2.33-2.95-3.74-4.74 2.58-2.14 4.98-4.1 7.35-6.1 28.77-24.37 52.33-53.03 70.38-86.14 1.25-2.3 1.8-5.92.93-8.28-5.38-14.61-11.25-29.04-17-43.51-.55-1.38-1.42-2.64-2.22-3.9-.25-.39-.75-.62-.37-.32-18.59 11.92-36.88 23.64-55.73 35.72-1.36-2.96-2.09-4.54-2.9-6.29 18.45-12.73 35.89-26.25 51.26-43.12-11.42-16.12-22.74-32.08-34.19-48.25 1.57-1.16 3.02-2.23 5.58-4.13 12.37 14.3 24.72 28.57 37.36 43.18 14.7-16.19 27.68-34.31 38.01-55.41 7.9 4.86 15.7 9.49 23.26 14.47 1.38.91 2.59 3.33 2.42 4.9-.11 1.06-2.77 1.85-4.3 2.75-.13.08-.33.07-.49.06-9.23-.58-14.48 5.14-19.87 11.59-9.91 11.86-20.5 23.14-30.98 34.86 4.63 8.07 9.65 16.45 14.32 25.02 11.6 21.3 18.06 44.03 20.31 68.26 2.45 26.25 3.35 52.51 2.47 78.79-.72 21.54-1.85 43.12-7.65 64.14-3.62 13.13-11.63 22.28-23.62 28.04-5.94 2.86-12.28 4.89-18.82 7.45-5.85-20.27-24.75-20.59-39.64-27.59.45-1.86.94-3.88 1.52-6.31 8.26 2.32 16.14 4.68 24.1 6.73 4.8 1.24 9.7 2.19 14.6 2.95 11.11 1.72 19.93-2.44 23.3-13.14 3.47-10.98 6.08-22.52 6.92-33.97 1.52-20.71 1.98-41.55 1.85-62.33-.1-16.89-1.72-33.77-3.26-50.94-22.16 30.54-47.93 56.85-81.16 75.56z"/><path d="m318.94 200.36c-43.55 0-86.31 0-129.58 0-.1 1.72-.25 3.31-.28 4.9-.12 6.64-2.33 8.78-9.19 8.81-6.43.03-10.02-3.04-9.89-9.14.18-8.31.78-16.61 1.2-24.91.25-4.81.71-9.63.72-14.44.06-31.49.12-62.98-.08-94.46-.04-7.09-1.13-14.18-1.81-22.24 6.41 4.81 12.1 9.32 18.08 13.42 2.03 1.39 4.78 2.42 7.2 2.43 38.32.15 76.64.07 114.95.16 3.24.01 5.62-.69 7.71-3.37 2.85-3.66 6.19-6.94 9.57-10.66 6.1 4.12 12.31 7.95 18.11 12.34 5.35 4.04 4.98 8.1-.5 11.97-.41.29-.81.65-1.27.78-8.09 2.41-8.87 8.29-8.65 15.73.51 17.31-.12 34.65.24 51.97.41 19.95 1.34 39.89 2.14 59.83.15 3.86-.9 7.45-4.58 8.43-3.94 1.05-8.28.78-12.43.65-.59-.02-1.46-2.42-1.6-3.78-.24-2.62-.06-5.27-.06-8.42zm-129.74-10.74h129.42c0-18.29 0-36.19 0-54.15-43.3 0-86.29 0-129.42 0zm129.53-64.75c0-16.92 0-33.35 0-50.11-43.22 0-86.25 0-129.28 0v50.11z"/><path d="m146.84 356.61c-1.98-4.59-4-9.27-6.39-14.79 35.64 6.19 70.83 2.85 106.2 3.9 0-30.12 0-59.54 0-89.28-1.06-.14-2.15-.42-3.25-.41-21.99.03-43.99.09-65.98.15-.33 0-.67 0-1 .01-4.1.13-9.79 1.99-11.93.01-3.46-3.21-4.57-8.93-6.61-13.44 51.71 5.97 103.32 1.91 154.82 2.95 2.25.05 4.93-1.39 6.72-2.94 5.29-4.56 10.23-9.52 15.83-14.81 7.12 6.35 14.87 13.07 22.31 20.1 1.14 1.07 1.71 4 1.06 5.36-.64 1.34-3.15 2.4-4.88 2.48-6.32.29-12.66.12-18.99.12-21.49 0-42.99 0-64.48 0-1.81 0-3.62 0-5.77 0v89.24c1.61.11 3.35.33 5.09.33 19.33.02 38.66.13 57.98-.12 2.46-.03 5.32-1.47 7.27-3.12 5.33-4.49 10.27-9.44 15.8-14.62 7.05 6.22 14.72 12.81 22.09 19.72 1.12 1.05 1.51 3.84.98 5.38-.42 1.2-2.72 2.04-4.34 2.44-1.73.42-3.64.16-5.47.16-63.98 0-127.96-.04-191.95.05-8.11-.01-16.24.7-25.11 1.13z"/></g></svg>