<svg enable-background="new 0 0 400 400" viewBox="0 0 400 400" xmlns="http://www.w3.org/2000/svg"><path d="m377.9 391.2c-.2.3-.4.5-.6.8-.7-.6-1.4-1-2.2-1.5.2-.3.4-.5.5-.8.6.4 1.4.8 2.3 1.5zm-1.8 6.1c-.2-.2-.5-.4-.9-.6.4-.6.8-1.2 1.2-1.9s.7-1.3.9-1.9c.3.3.5.5.8.7-.7 1.3-1.4 2.6-2 3.7zm2.2-9c-.3.3-.5.5-.6.8-.6-.6-1.3-1.1-2-1.5.3-.3.5-.5.6-.7.6.5 1.3.9 2 1.4zm.3.2v-.9h2 4.5c-.3 1.3-.6 2.5-1 3.6s-.9 2.1-1.4 3c.4.5 1 1 1.6 1.4s1.2.8 1.9 1.1c-.3.2-.5.4-.8.8-.4-.3-1-.7-1.6-1.2s-1.2-1.1-1.6-1.6c-.5.6-1.1 1.1-1.7 1.6s-1.4.9-2.1 1.4c-.1-.3-.3-.5-.7-.8.6-.2 1.2-.5 1.9-1s1.4-1.1 2-1.8c-.5-.8-.9-1.6-1.2-2.5s-.6-2-.8-3.2c-.4.1-.7.1-1 .1zm2.5 2.7c.3 1 .7 1.7 1 2.2.3-.5.6-1.1 1-2s.6-1.9.9-3h-3.2-.4c.1.9.3 1.8.7 2.8z" fill="#fbfcfa"/><path d="m396.5 388.5v1.5 3.6h1.5v.9c-.4 0-1 0-1.7 0h-7.9c-.5 0-.9 0-1.2 0v-.9h1.3v-3.5c0-.7 0-1.2 0-1.6h2.4c0-.8 0-1.4 0-1.7h1c0 .3-.1.8-.1 1.7h1.5c0-.8 0-1.4 0-1.7h1c0 .3-.1.9-.1 1.7zm-8.2 9.2c-.2-.3-.5-.5-.8-.8.8-.3 1.4-.6 1.9-.9s1-.7 1.4-1.1c.3.3.6.5.9.8-1.6 1-2.8 1.6-3.4 2zm2.6-6.8v-1.6h-1.5v1.6zm0 2.7v-1.9h-1.5v1.9zm2.4-2.7v-1.6h-1.5v1.6zm0 2.7v-1.9h-1.5v1.9zm.2 2 .7-.8c.4.2.9.5 1.6.8s1.3.7 1.8 1c-.3.3-.5.5-.8.8-.4-.3-1.5-1-3.3-1.8zm2-4.7v-1.6h-1.4v1.6zm0 2.7v-1.9h-1.4v1.9z" fill="#fbfcfa"/><g fill="#010100"><path d="m48.15 336.12c9.83 2.44 19.44 4.88 29.08 7.21 8.43 2.03 12.71.11 16.65-7.75 5.31-10.6 7.36-22.17 7.86-33.75 1.09-25.25 1.47-50.54 1.76-75.82.13-10.75-.67-21.52-1.53-32.53-19.45 28.2-42.31 52.87-71.05 72.51-1.23-1.77-2.43-3.48-3.74-5.35 19.43-17.52 36.24-37.03 50.12-58.93 6.14-9.68 11.55-19.83 17.38-29.71 2.73-4.62 3.97-9.21 2.35-14.67-4.2-14.14-8.04-28.38-12.07-42.57-.35-1.22-1.07-2.33-1.55-3.36-15.21 12.63-30.22 25.1-45.55 37.84-1.93-2.55-3.09-4.09-4.26-5.63.57.4 1.14.79 1.72 1.19 8.53-9.33 17.06-18.65 25.58-27.98 4.6-5.04 9.07-10.21 13.79-15.13 2.08-2.16 2.27-3.92.74-6.49-8.24-13.85-16.33-27.8-24.65-42.02 1.16-.93 2.56-2.05 4.72-3.77 9.9 12.47 19.66 24.76 29.82 37.56 12.52-16.49 21.71-34.95 31.08-54.41 7.52 3.49 15.07 6.73 22.32 10.53 1.86.98 4.25 4.25 3.8 5.56-.67 1.94-3.69 4.32-5.69 4.31-8.71-.04-12.82 5.3-17.17 11.77-7.8 11.58-16.41 22.64-24.95 33.7-2.17 2.81-2.24 4.79-.62 7.84 12.99 24.47 20.97 50.5 24.11 78.05 3.54 31.01 3.51 62.08 1.89 93.19-1 19.25-1.87 38.51-6.87 57.27-5.06 18.97-18.08 29.46-36.81 34.48-.19-1.37-.39-2.44-.48-3.52-.65-7.33-3.81-13.05-10.75-16.13-4.55-2.02-9.12-4.1-13.88-5.48-4.58-1.33-5.52-3.58-3.15-8.01z"/><path d="m291.94 343.53c.47-2.52.89-4.79 1.37-7.34 10.36 1.41 20.64 2.85 30.94 4.2 2.3.3 4.66.51 6.96.37 5.41-.33 8.15-2.84 9.05-8.2.33-1.95.33-3.98.33-5.97.01-90.15.04-180.31-.03-270.46-.01-7.26-.68-14.52-1.1-23.02 10.46 2.9 20.74 5.27 30.66 8.69 5.53 1.91 5.5 6.71.27 9.48-3.17 1.68-6.95 2.18-10.26 3.65-1.27.56-2.28 2.25-2.85 3.65-.46 1.15-.1 2.63-.1 3.96 0 91.99.01 183.97-.01 275.96 0 16.67-11.15 28.61-27.49 29.59-.2-.26-.53-.5-.57-.78-1.52-11.07-7.54-17.62-18.77-19.5-6.04-1-11.94-2.74-18.4-4.28z"/><path d="m190.93 212.55c-18.83 0-36.94 0-55.72 0-1.83-4.22-3.92-9.04-6.35-14.64 20.64 5.03 41.09 4.11 61.54 4 0-18.44 0-36.48 0-55.56 9.99 2.27 19.97 4.33 29.79 6.96 1.93.52 4.51 3.23 4.55 4.98.04 1.82-2.42 3.93-4.17 5.5-1.16 1.04-2.96 1.42-4.52 1.97-8.05 2.83-8.05 2.81-8.05 11.47v24.76c6.4 0 12.74-.69 18.88.15 11.7 1.59 20.69-1.96 27.2-11.83.62-.94 1.65-1.62 3.02-2.92 7.33 5.63 14.73 11.18 21.92 16.99.98.79 1.67 3.15 1.2 4.21-.62 1.41-2.38 2.54-3.9 3.25-1.1.51-2.62.15-3.95.15-19.49 0-38.98 0-58.47 0-1.79 0-3.58 0-5.9 0v4.28c.02 36.31-.14 72.63.17 108.94.1 11.78 1.39 23.55 2.26 35.32.61 8.35-3.65 11.26-11.41 11.49-4.79.14-7.45-2.3-8-7.05-.19-1.65-.08-3.33-.08-4.99 0-47.14 0-94.29 0-141.43-.01-1.96-.01-3.93-.01-6z"/><path d="m212.48 103.54c-15.07 15.22-30.26 28.63-48.45 38.14-5.87 3.07-11.87 5.89-18.33 9.08-1.11-2.08-1.99-3.74-3.08-5.79 22.2-14.17 43.45-29 58.83-51.9-17.2-15.27-34.45-30.57-51.93-46.09.9-1.11 1.92-2.37 3.61-4.46 18.82 12.97 37.54 25.86 57.1 39.33 7.82-15.46 15.66-30.98 23.71-46.9 7.61 4.06 15.53 8.22 23.37 12.55 1.71.94 3.31 2.32 4.53 3.85 2.73 3.42 1.69 7.06-2.59 7.97-3.68.78-7.61.33-11.38.82-1.75.23-4.04.91-4.96 2.19-6.84 9.62-13.39 19.43-20.3 29.58 6.02 5.13 12.26 10.09 18.07 15.5 5.58 5.2 11.01 10.65 15.93 16.46 2.14 2.53 3.27 6.16 4.15 9.47 1.14 4.29-1.75 8.89-5.97 10.99-4.19 2.09-7.02-.04-9.55-2.93-9.75-11.15-19.44-22.34-29.14-33.53-1.1-1.24-2.14-2.54-3.62-4.33z"/><path d="m288.82 65.02c10.52 2.79 20.17 5.1 29.62 8.05 2 .62 4.62 3.63 4.54 5.42-.09 1.92-2.73 4.35-4.83 5.39-3.36 1.65-7.19 2.33-11.08 3.5v6.13c0 43-.23 86 .1 128.99.15 18.96 1.44 37.91 2.2 56.86.33 8.24-3.04 11.77-11.12 11.71-5.14-.04-7.69-2.25-8.24-7.34-.18-1.65-.07-3.33-.07-5-.04-66.99-.06-133.99-.15-200.98-.01-3.78-.56-7.56-.97-12.73z"/><path d="m232.46 236.94c8.42 2.08 16.87 3.83 25.08 6.37 2.6.81 5.8 3.37 6.48 5.77 1.12 3.93-2.89 5.46-5.97 6.73-8.86 3.65-8.88 3.61-8.88 13.05 0 10.83-.06 21.67.02 32.5.07 9.67 2.99 12.69 12.57 12.49 3.77-.08 7.52-1.41 11.29-1.52 3.33-.09 7.55-.34 9.8 1.45 2.42 1.94 4.28 6.3 3.98 9.37-.22 2.25-4.04 5.22-6.77 5.96-11.14 3.02-22.56 4.1-33.94 1.11-8.68-2.28-14-8.38-14.08-17.15-.25-24.83-.07-49.66-.05-74.49.01-.45.26-.91.47-1.64z"/><path d="m128.3 348.19c-1.47-1.53-2.59-2.71-4.07-4.25 26.38-31.71 25.75-69.88 25.48-108.64 9.02 1.52 17.81 2.94 26.57 4.51 3.06.55 5.74 2.39 4.9 5.69-.53 2.09-2.7 4.55-4.72 5.35-8.74 3.44-8.29 3.31-9.57 12.25-2.01 14.09-3.63 28.42-7.59 42.01-5.11 17.51-17.25 30.85-31 43.08z"/><path d="m242.63 149.16c7.05 4.87 14.36 9.41 21.06 14.73 4.21 3.34 5.57 8.4 4.71 13.93-.54 3.48-1.89 6.02-5.67 6.49-3.95.49-5.37-2.28-6.9-5.22-3.51-6.73-7.18-13.38-10.93-19.97-.88-1.55-2.66-2.61-3.49-4.18-.72-1.34-.68-3.08-.98-4.65.73-.38 1.46-.76 2.2-1.13z"/></g></svg>