<svg enable-background="new 0 0 400 400" viewBox="0 0 400 400" xmlns="http://www.w3.org/2000/svg"><path d="m361.2 9.6.8-1c.9.7 1.9 1.4 2.9 2.3l-.9 1.1c-1-1-2-1.8-2.8-2.4zm.5 10.6c.9-2.1 1.6-4.3 2.3-6.7.4.2.8.4 1.3.6-.7 2.1-1.5 4.3-2.2 6.6zm.4-15.2.9-.9c1 .8 2 1.6 2.8 2.4l-1 1c-.9-.9-1.8-1.7-2.7-2.5zm12.5-1.2h1.2v1.4h2.7v1.1h-2.7v2.7h-1.2v-.6h-1.8v1.3h4.9v3.8h-1.2v-.5h-3.7c0 .4-.1.9-.1 1.2h5.1v1h-5.2c0 .5-.1.9-.2 1.2h6v1h-5.2c1.1 1.3 2.9 2 5.5 2.2-.4.4-.7.8-.9 1.3-2.9-.5-4.8-1.6-5.7-3.5h-.1c-.8 1.7-2.7 2.9-5.9 3.6-.2-.4-.6-.8-.9-1.1 2.8-.6 4.6-1.4 5.4-2.5h-4.8v-1h5.3c.1-.3.2-.7.2-1.2h-4.9v-1h5c0-.4 0-.8.1-1.3h-3.5v.5h-1.2v-3.7h4.9v-1.3h-1.8v.5h-1.2v-2.7h-2.7v-1h2.6v-1.4h1.2v1.4h4.7v-1.4zm-6.6 8.3h3.6c0-.4 0-.9 0-1.4h-3.6zm1.9-4.6h4.7v-1.3h-4.7zm6.6 3.2h-3.7v1.4h3.7z" fill="#fbfafc"/><path d="m385.3 3.8h1.3v2.2h2.8v-2.2h1.3v2.2h4.1v9.1h1.7v1.3h-16.9v-1.3h1.7v-9.1h4.1v-2.2zm.4 13.1.7 1.2c-1.8.9-3.8 1.9-6 2.9-.2-.4-.5-.8-.8-1.3 2.3-1 4.3-1.9 6.1-2.8zm-3.1-6.4h2.8v-3.2h-2.8zm0 4.6h2.8v-3.3h-2.8zm4-4.6h2.8v-3.2h-2.8zm0 4.6h2.8v-3.3h-2.8zm3.7 1.9c2.1.9 4.1 1.8 6.1 2.7l-.7 1.3c-2.2-1.1-4.2-2-6.1-2.9zm3.2-9.7h-2.8v3.2h2.8v-3.1zm-2.8 7.8h2.8v-3.3h-2.8z" fill="#fbfafc"/><g fill="#010000"><path d="m143.68 356.54c-2.13-4.72-4.21-9.35-6.52-14.46 11.75 1.15 22.73 2.23 34.54 3.39-.8-40.36 1.23-79.73-1.44-119.69 5.53 3.56 10.65 7.2 16.11 10.24 2.74 1.53 6.09 2.76 9.17 2.78 35.48.19 70.96.03 106.44.24 4.77.03 7.97-1.3 11.06-4.91 7.73-9.03 7.91-8.91 18.08-2.52 3.23 2.04 6.51 4.06 9.47 6.45 4.98 4.01 4.78 6.88-.56 10.51-2.47 1.68-5.37 2.75-7.7 4.58-1.43 1.12-3.02 3.15-3.04 4.78-.22 28.15-.2 56.3-.22 84.45 0 .66.12 1.31.28 3.01 8.79-3.01 11.91-11.76 18.82-16.7 7.01 5.9 14.21 11.76 21.12 17.94 1.36 1.22 2.74 4.26 2.13 5.38-.84 1.54-3.56 2.86-5.48 2.87-28.32.18-56.63.11-84.95.12-38.81.01-77.62-.03-116.43.13-6.78.03-13.56.89-20.88 1.41zm168.72-11.74c0-32.14 0-63.81 0-95.44-10.18 0-19.94 0-29.8 0v95.44zm-47.12-95.29c-10.16 0-20 0-29.73 0v95.08h29.73c0-31.9 0-63.46 0-95.08zm-76.81-.31v95.43h29.15c0-31.97 0-63.63 0-95.43-9.84 0-19.3 0-29.15 0z"/><path d="m239.57 123.12c0-12.95 0-25.2 0-37.37-20.39 0-40.6 0-61.57 0-1.72-3.79-3.83-8.42-5.8-12.77 22.33.83 44.58 1.66 67.1 2.5 0-17.44 0-33.8 0-51.09 9.86 2.67 19.62 5.1 29.21 8.08 1.89.59 4.51 3.5 4.3 4.99-.3 2.09-2.58 4.52-4.64 5.59-3.31 1.71-7.14 2.43-10.89 3.61v28.17h11.53c9.17 0 18.34.17 27.49-.12 2.21-.07 4.76-1.2 6.47-2.65 5.44-4.6 10.55-9.58 16.14-14.74 6.73 5.98 14.27 12.49 21.51 19.3 1.25 1.17 2.25 4.3 1.56 5.42-.95 1.55-3.6 2.88-5.53 2.9-24.33.17-48.66.08-72.99.06-1.83 0-3.65 0-5.88 0v37.72c1.47.09 2.91.26 4.35.26 20 .02 39.99.11 59.99-.11 2.32-.03 5-1.33 6.87-2.84 5.43-4.38 10.54-9.17 15.96-13.96 6.09 5.4 13.43 11.68 20.44 18.31 1.54 1.46 1.91 4.17 2.81 6.31-2.14.83-4.27 2.37-6.42 2.38-35.49.15-70.99.21-106.48-.01-5.27-.03-8.81 1.49-12.46 5.37-17.84 18.93-37.04 36.39-57.99 51.87-.75.56-1.39 1.27-2.07 1.91.1.52.21 1.05.31 1.57 45.5-2.7 91-5.39 136.5-8.09.26-.65.52-1.3.78-1.94-9.23-8.72-18.46-17.43-28.07-26.52.59-.91 1.44-2.21 2.57-3.96 20.19 11.24 40.82 21.27 55.11 39.91 2.85 3.73 4.26 8.88 5.26 13.61.84 4-1.35 7.6-5.44 9.1-4.01 1.47-7.7.16-10.31-3.07-2.38-2.96-4.42-6.24-6.34-9.53-7.05-12.06-7.02-12.12-20.47-10.21-23.02 3.26-46 6.78-69.05 9.77-18.45 2.39-36.97 4.23-55.48 6.14-2.86.3-4.72.79-5.01 4.11-.14 1.57-1.03 3.18-1.92 4.55-2.47 3.84-6.9 3.94-8.56-.26-2.74-6.92-4.85-14.12-6.67-21.34-.31-1.24 1.85-3.53 3.35-4.72 16.79-13.3 31.74-28.41 44.92-45.28 3.03-3.88 5.85-7.93 9.28-12.6-2.53-.12-4.12-.29-5.7-.24-19.78.58-39.56 1.23-59.35 1.69-1.24.03-3.08-1.15-3.68-2.27-2.09-3.91-3.76-8.04-5.8-12.58 30.43 5.13 60.51 2.05 90.76 3.07z"/><path d="m79.53 94.29c-11.48-16.23-22.72-32.11-34.29-48.47 1.12-1.05 2.65-2.48 4.97-4.65 12.57 14.66 24.99 29.13 37.72 43.96 15.24-16.55 27.57-35.35 38.39-55.73 7.99 4.84 15.73 9.32 23.19 14.22 1.42.94 2.68 3.78 2.3 5.31-.34 1.38-3.15 3.23-4.68 3.07-8.35-.9-13.24 3.38-18.17 9.49-10.23 12.67-21.28 24.69-32.06 37.07 5.2 9.64 10.67 19.49 15.88 29.47 10.14 19.41 14.73 40.37 17.42 61.93 3.75 30 3.78 60.13 2.58 90.21-.66 16.52-3.26 33-5.69 49.39-2.53 17.07-13.61 27.62-28.73 34.37-4.81 2.15-9.94 3.56-15.47 5.5-4.95-17.57-21.14-19.24-34.29-25.18-1.62-.73-3.37-1.19-5.25-1.85.27-1.57.42-2.86.74-4.12.2-.77.66-1.48 1.14-2.5 9.01 2.5 17.88 5.06 26.8 7.41 4 1.05 8.09 1.88 12.19 2.5 10.57 1.59 19.95-3.58 23.31-14.44 3.02-9.74 5.45-19.97 6.05-30.1 1.35-22.73 1.9-45.54 1.83-68.31-.05-15.9-1.66-31.79-3.23-48.14-20.73 30.73-46.24 56.15-79.02 74.06-.42-.51-1.06-1.23-1.64-2.01s-1.09-1.6-1.46-2.15c9.82-9.37 19.73-18.24 28.96-27.78 18.87-19.5 34.08-41.71 46.76-65.65.72-1.37 1.3-3.3.91-4.69-4.71-17.17-11.58-33.46-19.65-48.49-18.15 11.61-36.02 23.04-54.21 34.69-1.75-2.85-2.77-4.52-4.01-6.53 18.13-12.02 35.08-25.34 50.71-41.86z"/></g></svg>