<svg enable-background="new 0 0 400 400" viewBox="0 0 400 400" xmlns="http://www.w3.org/2000/svg"><path d="m377.9 391.2c-.2.3-.4.5-.6.8-.7-.6-1.4-1-2.2-1.5.2-.3.4-.5.5-.8.6.4 1.4.8 2.3 1.5zm-1.8 6.1c-.2-.2-.5-.4-.9-.6.4-.6.8-1.2 1.2-1.9s.7-1.3.9-1.9c.3.3.5.5.8.7-.7 1.3-1.4 2.6-2 3.7zm2.2-9c-.3.3-.5.5-.6.8-.6-.6-1.3-1.1-2-1.5.3-.3.5-.5.6-.7.6.5 1.3.9 2 1.4zm.3.2v-.9h2 4.5c-.3 1.3-.6 2.5-1 3.6s-.9 2.1-1.4 3c.4.5 1 1 1.6 1.4s1.2.8 1.9 1.1c-.3.2-.5.4-.8.8-.4-.3-1-.7-1.6-1.2s-1.2-1.1-1.6-1.6c-.5.6-1.1 1.1-1.7 1.6s-1.4.9-2.1 1.4c-.1-.3-.3-.5-.7-.8.6-.2 1.2-.5 1.9-1s1.4-1.1 2-1.8c-.5-.8-.9-1.6-1.2-2.5s-.6-2-.8-3.2c-.4.1-.7.1-1 .1zm2.5 2.7c.3 1 .7 1.7 1 2.2.3-.5.6-1.1 1-2s.6-1.9.9-3h-3.2-.4c.1.9.3 1.8.7 2.8z" fill="#fbfcfa"/><path d="m396.5 388.5v1.5 3.6h1.5v.9c-.4 0-1 0-1.7 0h-7.9c-.5 0-.9 0-1.2 0v-.9h1.3v-3.5c0-.7 0-1.2 0-1.6h2.4c0-.8 0-1.4 0-1.7h1c0 .3-.1.8-.1 1.7h1.5c0-.8 0-1.4 0-1.7h1c0 .3-.1.9-.1 1.7zm-8.2 9.2c-.2-.3-.5-.5-.8-.8.8-.3 1.4-.6 1.9-.9s1-.7 1.4-1.1c.3.3.6.5.9.8-1.6 1-2.8 1.6-3.4 2zm2.6-6.8v-1.6h-1.5v1.6zm0 2.7v-1.9h-1.5v1.9zm2.4-2.7v-1.6h-1.5v1.6zm0 2.7v-1.9h-1.5v1.9zm.2 2 .7-.8c.4.2.9.5 1.6.8s1.3.7 1.8 1c-.3.3-.5.5-.8.8-.4-.3-1.5-1-3.3-1.8zm2-4.7v-1.6h-1.4v1.6zm0 2.7v-1.9h-1.4v1.9z" fill="#fbfcfa"/><g fill="#010100"><path d="m103.86 193.33c-18.96 29.5-42.55 52.19-70.51 71.22-1.4-1.73-2.8-3.46-5-6.2 8.56-8.22 17.3-15.94 25.27-24.4 17.33-18.38 32.5-38.29 41.8-62.15 2.54-6.51 3.48-12.74 1.61-19.75-3.99-14.92-8.32-29.66-14.8-43.2-16.09 10.94-31.96 21.72-47.71 32.43-4.15-4.94-3.49-7.46.75-10.88 12.8-10.35 25-21.43 37.51-32.14 2.49-2.13 2.63-3.96.93-6.79-7.97-13.25-15.7-26.64-23.71-40.31 1.68-1.18 3.41-2.4 6.27-4.41 9.18 13.13 18.26 26.11 28.14 40.25 12.12-17.25 24.03-34.2 36.44-51.87 6.61 4.04 14.07 8.34 21.2 13.14 1.58 1.06 2.92 3.96 2.67 5.78-.18 1.29-3.19 2.22-4.97 3.24-.56.32-1.31.65-1.9.55-8.49-1.42-12.76 4.34-17.57 9.76-8.72 9.84-17.75 19.42-26.88 28.88-2.31 2.4-2.37 4.16-.9 6.89 17.27 32.32 26.47 67.02 28.55 103.4 1.54 26.88 2.08 53.88 1.69 80.8-.25 17.7-2.54 35.42-8.6 52.37-6.84 19.13-21.9 27.39-40.63 31.53-4.79-19.3-21.9-20.17-36.68-24.8.6-2.28 1.14-4.31 1.73-6.55 10.55 2.45 20.81 4.97 31.14 7.2 13.04 2.82 22.12-1.16 26.96-13.6 3.51-9.01 6.03-18.76 6.91-28.37 1.76-19.19 2.63-38.49 2.85-57.77.19-16.11-1.05-32.24-1.7-48.36-.05-1.44-.41-2.89-.86-5.89z"/><path d="m159.24 226.48c6.28 3.43 11.95 6.79 17.87 9.65 2.73 1.32 5.92 2.35 8.91 2.36 47.49.14 94.99.07 142.48.17 3.49.01 5.87-.89 8.05-3.72 3.34-4.34 7.17-8.3 11.1-12.77 6.83 4.71 13.72 9.05 20.14 14.02 5.26 4.07 4.8 8.27-.61 12.09-.81.58-1.62 1.32-2.54 1.56-7.32 1.87-8.52 6.75-8.4 13.74.44 25.16-.26 50.34.31 75.49.48 21.24-8.96 30.4-28.35 34.81-.39-1.21-.92-2.41-1.16-3.67-1.38-7.23-5.69-12.05-12.54-14.18-7.9-2.46-15.98-4.33-24.54-6.61.19-1.87.42-4.04.66-6.33 10.15 1.17 19.69 2.28 29.23 3.37 1.49.17 2.98.3 4.48.34 11.38.31 14.6-2.84 14.6-14.31.01-26.33 0-52.66 0-78.99 0-1.62 0-3.25 0-5.16-54.4 0-108.3 0-162.87 0v5.92 108.99c0 6.49-1.95 7.99-10.15 7.91-6.83-.07-9.48-2.19-8.99-8.31 3.55-44.24 1.3-88.57 2.03-132.85.01-.93.15-1.88.29-3.52z"/><path d="m192.05 150.21c3.61 2.02 6.68 3.36 9.32 5.28 7.61 5.55 16 6.86 25.3 6.66 22.63-.48 45.29-.24 67.93-.07 3.67.03 6.24-.87 8.45-3.85 2.56-3.46 5.59-6.57 8.9-10.39 6.35 4.36 12.84 8.35 18.77 13.04 4.7 3.72 4.31 6.66-.29 10.59-.63.54-1.24 1.29-1.98 1.49-7.12 1.9-8.34 6.96-7.42 13.34.26 1.79.24 3.68 0 5.48-.66 4.94.97 8.43 5.29 11.26 1.81 1.19 3.56 4.28 3.37 6.32-.33 3.59-3.95 2.68-6.49 2.68-36.13.03-72.26.02-108.39.02-1.79 0-3.58 0-5.57 0-.09 1.8-.19 3.1-.23 4.39-.16 5.53-3.39 7.91-10.32 7.6-5.67-.25-8.99-3.62-8.57-8.73.27-3.31.79-6.61.86-9.92.35-17.13.6-34.25.89-51.38 0-.98.08-1.96.18-3.81zm111.64 21.61c-31.69 0-63.06 0-94.33 0v30.69h94.33c0-10.27 0-20.21 0-30.69z"/><path d="m221.78 323.17c-.15 1.85-.31 3.3-.36 4.75-.24 6.15-2.71 8.23-9.73 8.14-6.03-.07-8.88-2.6-8.72-8.34.59-21.76 1.33-43.52 2.03-65.28.01-.43.28-.86.59-1.73 5.72 3.01 11.16 6.09 16.81 8.74 2.6 1.22 5.59 2.23 8.42 2.26 17.14.21 34.29 0 51.43.19 3.54.04 5.91-1.01 7.97-3.81 2.55-3.47 5.45-6.69 8.61-10.51 5.91 4.37 11.97 8.42 17.51 13.09 4.13 3.48 4.19 6.8-.57 9.1-7.87 3.8-8.54 9.86-7.77 17.07.11.99.17 2.02-.01 2.99-1.22 6.66 1.09 11.57 7.07 14.78.72.39 1.63.92 1.86 1.59.62 1.78 1.33 3.72 1.13 5.5-.07.63-2.66 1.39-4.11 1.4-28.63.08-57.26.06-85.89.06-1.98.01-3.94.01-6.27.01zm69.47-9.46c0-10.92 0-21.32 0-31.89-23.36 0-46.38 0-69.52 0v31.89z"/><path d="m264.97 128.93c21.05 0 41.53.04 62.01-.09 1.4-.01 3.03-1.06 4.15-2.07 5.18-4.68 10.23-9.51 15.78-14.72 7.39 5.56 15.48 11.35 23.13 17.65 1.65 1.36 2.62 4.8 2.18 6.92-.25 1.2-4.02 2.34-6.21 2.35-55.66.13-111.32.04-166.97.15-12.98.03-25.95.52-38.92 1.03-2.95.12-4.52-.65-5.6-3.45-1.43-3.68-3.36-7.17-5.38-11.39 35.67 6.33 70.96 2.38 106.15 3.87-.72-8.18-7.51-21.31-18.23-35.65 2.08-4.61 4.84-5.66 9.14-2.31 4.19 3.26 8.9 5.86 13.07 9.13 10.99 8.62 12.49 15.92 5.7 28.58z"/><path d="m139.53 62.65c16.95 1.06 33.78 2.11 51.65 3.23-1.26-13-2.4-24.74-3.59-37.02 8.71 1.07 16.99 1.68 25.06 3.3 2.99.6 5.49 3.61 8.21 5.52-2.25 2.03-4.19 4.67-6.81 5.98-8.21 4.11-8.34 3.92-7.92 13.1.12 2.62.54 5.23.8 7.61 12.63 4.02 16.22-7.5 24.12-13.11 6.97 5.09 14.41 10.28 21.49 15.92 1.26 1.01 1.57 4.02 1.21 5.89-.18.92-2.9 1.89-4.48 1.91-11.83.16-23.66.09-35.49.09-1.8 0-3.61 0-6.09 0 .97 7.71 1.74 14.91 2.82 22.07.88 5.8-.59 8.14-6.21 8.94-7.67 1.09-9.8-.31-10.33-6.76-.65-7.92-1.33-15.84-1.99-23.72-15.74 0-30.99 0-46.8 0-1.88-4.33-3.99-9.14-5.65-12.95z"/><path d="m292.25 74.16c-8.77.46-16.68.88-25.08 1.32-1.98-4.37-4.14-9.14-6.18-13.63 10.71 1.26 21.29 2.5 32.57 3.82 1.25-12.77 2.38-24.41 3.58-36.7 9.18 2.29 18.03 4.33 26.76 6.81 1.72.49 4.07 2.6 4.13 4.04.06 1.56-2.16 3.27-3.51 4.81-.4.46-1.16.75-1.79.82-11.75 1.33-11.21 10.3-11.93 19.33 5.69 0 11.13.14 16.55-.11 1.23-.06 2.53-1.33 3.56-2.29 4.97-4.65 9.86-9.38 14.99-14.28 7.01 5.15 14.6 10.28 21.57 16.14 1.81 1.51 2.15 5.28 2.19 8.02.01.68-3.79 2.01-5.85 2.03-16.32.17-32.63.09-48.95.1-1.8 0-3.61 0-5.71 0-.9 8.23-1.59 15.99-2.66 23.69-.91 6.53-10.11 10.31-15.24 6.27-1-.79-1.48-2.9-1.37-4.35.63-8.24 1.49-16.48 2.37-25.84z"/></g></svg>