<svg enable-background="new 0 0 400 400" viewBox="0 0 400 400" xmlns="http://www.w3.org/2000/svg"><path d="m361.2 9.6.8-1c.9.7 1.9 1.4 2.9 2.3l-.9 1.1c-1-1-2-1.8-2.8-2.4zm.5 10.6c.9-2.1 1.6-4.3 2.3-6.7.4.2.8.4 1.3.6-.7 2.1-1.5 4.3-2.2 6.6zm.4-15.2.9-.9c1 .8 2 1.6 2.8 2.4l-1 1c-.9-.9-1.8-1.7-2.7-2.5zm12.5-1.2h1.2v1.4h2.7v1.1h-2.7v2.7h-1.2v-.6h-1.8v1.3h4.9v3.8h-1.2v-.5h-3.7c0 .4-.1.9-.1 1.2h5.1v1h-5.2c0 .5-.1.9-.2 1.2h6v1h-5.2c1.1 1.3 2.9 2 5.5 2.2-.4.4-.7.8-.9 1.3-2.9-.5-4.8-1.6-5.7-3.5h-.1c-.8 1.7-2.7 2.9-5.9 3.6-.2-.4-.6-.8-.9-1.1 2.8-.6 4.6-1.4 5.4-2.5h-4.8v-1h5.3c.1-.3.2-.7.2-1.2h-4.9v-1h5c0-.4 0-.8.1-1.3h-3.5v.5h-1.2v-3.7h4.9v-1.3h-1.8v.5h-1.2v-2.7h-2.7v-1h2.6v-1.4h1.2v1.4h4.7v-1.4zm-6.6 8.3h3.6c0-.4 0-.9 0-1.4h-3.6zm1.9-4.6h4.7v-1.3h-4.7zm6.6 3.2h-3.7v1.4h3.7z" fill="#fbfafc"/><path d="m385.3 3.8h1.3v2.2h2.8v-2.2h1.3v2.2h4.1v9.1h1.7v1.3h-16.9v-1.3h1.7v-9.1h4.1v-2.2zm.4 13.1.7 1.2c-1.8.9-3.8 1.9-6 2.9-.2-.4-.5-.8-.8-1.3 2.3-1 4.3-1.9 6.1-2.8zm-3.1-6.4h2.8v-3.2h-2.8zm0 4.6h2.8v-3.3h-2.8zm4-4.6h2.8v-3.2h-2.8zm0 4.6h2.8v-3.3h-2.8zm3.7 1.9c2.1.9 4.1 1.8 6.1 2.7l-.7 1.3c-2.2-1.1-4.2-2-6.1-2.9zm3.2-9.7h-2.8v3.2h2.8v-3.1zm-2.8 7.8h2.8v-3.3h-2.8z" fill="#fbfafc"/><g fill="#010000"><path d="m122.84 148.05c7.89 7.04 15.32 13.45 22.42 20.2 1.28 1.21 1.99 4.01 1.54 5.7-.31 1.16-3.07 2.32-4.75 2.34-14.33.19-28.66.11-43 .11-1.8 0-3.59 0-5.69 0v100.02c17.23-8.02 34.09-15.88 51.21-23.85 1.33 1.93 2.64 3.81 4.44 6.42-9.87 6.18-19.24 12.81-29.28 18.17-21.39 11.42-43.08 22.3-64.8 33.09-3.55 1.76-5.44 3.75-5.52 7.59-.02 1.33.09 2.79-.42 3.95-.69 1.56-1.68 3.66-3 4.07-1.3.4-3.87-.54-4.66-1.71-5.33-7.95-10.34-16.11-15.4-24.12 15.69-5.06 30.49-9.91 45.36-14.56 3.55-1.11 4.74-2.88 4.72-6.71-.18-32.33-.1-64.66-.1-97 0-1.49 0-2.98 0-5.34-4.98 0-9.73-.18-14.47.04-7.79.36-15.57 1.07-23.37 1.38-1.09.04-2.75-1.07-3.26-2.09-1.99-3.98-3.63-8.13-5.39-12.18 15.47 1.21 30.59 2.39 46.14 3.61 0-30.5 0-59.92 0-90.2-2.55 0-5.29-.07-8.03.01-9.31.3-18.62.58-27.93 1.02-2.56.12-4.42-.14-5.44-2.97-1.39-3.89-3.18-7.64-4.88-11.63 8.79.95 17.27 2.36 25.79 2.68 15.3.58 30.63.58 45.95.58 1.51 0 3.22-1.46 4.49-2.61 5.29-4.81 10.45-9.76 16.15-15.12 7.04 6.34 14.75 13.13 22.2 20.19 1.05.99 1.71 4.08 1.03 4.85-1.34 1.5-3.73 2.84-5.71 2.87-12.66.25-25.33.13-38 .13-2.48 0-4.96 0-7.79 0v89.15c6.55 1.11 12.3 1.08 16.9-5.04 3.5-4.59 8.04-8.41 12.55-13.04z"/><path d="m265.59 131.93c8.16 1.93 17.12 3.7 25.83 6.29 2.83.84 5.03 3.81 7.52 5.81-2.47 2.2-4.58 5.19-7.46 6.45-9.2 4-9.31 3.75-9.31 13.85v51.67h8.07c9.99 0 20-.2 29.98.1 4.21.13 7.22-.97 9.88-4.29 2.9-3.61 6.35-6.78 9.9-10.49 7.37 5.59 14.46 10.76 21.25 16.29 1.37 1.12 2.73 4.24 2.12 5.34-.88 1.57-3.56 2.97-5.49 2.99-23.15.2-46.31.13-69.46.13-1.82 0-3.64 0-6.25 0v5.56c0 31.98-.01 63.97.01 95.95 0 9.88 2.45 13.6 12.16 13.94 14.9.52 29.84-.14 44.76-.62 6.42-.2 10.61-4.05 11.81-10.28 2.23-11.55 4.02-23.18 5.99-34.78.33-1.91.63-3.83.94-5.69 3.93-.67 5.59.19 5.44 4.3-.35 9.82.02 19.66-.38 29.47-.25 6.21 1.65 11.11 6.54 14.81 7.8 5.9 5.74 12.44-3.3 14.95-7.16 1.98-14.57 3.63-21.97 4.15-20.57 1.44-41.19 2.21-61.74-.69-10.31-1.45-16.16-7.6-16.56-17.93-.33-8.65-.28-17.31-.29-25.97-.02-51.81-.01-103.61-.01-155.42.02-8.44.02-16.87.02-25.89z"/><path d="m159.35 237.76c-3.42-2.68-4.98-3.91-7.11-5.57 27.94-31.08 48.22-66.39 60.76-106.51 8.27 3.93 16.13 7.44 23.73 11.44 1.68.88 3.69 3.88 3.29 5.26-.54 1.87-3.49 4.61-4.98 4.37-9.61-1.56-12.13 4.96-15.55 11.7-5.85 11.52-12.57 22.61-18.96 33.93 4.85 1.48 9.99 2.68 14.79 4.7 2.19.92 3.7 3.47 5.52 5.28-1.8 1.8-3.33 4.69-5.45 5.21-7.6 1.88-8.45 6.69-8.37 13.55.4 35.49.1 70.99.49 106.48.12 11.1 1.89 22.18 2.47 33.29.42 8.1-2.15 10.45-10.08 10.51-7.54.05-9.91-2.4-9.91-10.32 0-49.83 0-99.66 0-149.49 0-1.8 0-3.59 0-6.13-10.51 11.08-20.5 21.61-30.64 32.3z"/><path d="m198.45 73.69c-1.61-15.16-3.05-28.78-4.65-43.85 10.8 2.1 20.97 3.91 31.04 6.2 1.64.37 3.94 2.85 3.92 4.33-.03 1.89-1.69 4.4-3.39 5.47-2.9 1.83-6.43 2.61-9.56 4.11-1.09.52-2.58 1.91-2.54 2.85.27 6.61.9 13.2 1.41 19.73 12.35 2.98 14.44-9.75 23.1-13.77 6.78 5.21 14.19 10.74 21.35 16.58 1.01.83 1.61 3.76.95 4.69-1.05 1.47-3.3 2.87-5.07 2.91-11.15.26-22.31.13-33.46.13-1.8 0-3.6 0-5.92 0 .29 5.65.54 10.88.84 16.11.19 3.31.63 6.62.68 9.93.11 6.47-2.55 9.08-8.88 9.32-4.65.18-7.61-1-7.83-6.49-.38-9.42-1.26-18.81-2.01-29.25-14.06.52-27.92 1.04-42.33 1.58-1.86-4.13-4.01-8.91-6.16-13.7 15.94 1.02 31.58 2.03 48.51 3.12z"/><path d="m272.5 84.73c-2.18-4.83-4.3-9.5-6.39-14.13 11.47 1.03 22.77 2.04 34.93 3.13.73-14.75 1.42-28.45 2.13-42.78 8.67 2.22 17.12 4.37 25.57 6.55.8.21 1.77.36 2.3.89 2.02 2.03 3.88 4.2 5.81 6.32-2.25 1.99-4.22 4.57-6.83 5.81-3.21 1.53-8.91.91-10.04 3.06-2 3.81-1.41 9-1.81 13.62-.14 1.65-.02 3.31-.02 6.5 5.91-.92 12.18-.55 17-3.02 4.92-2.53 8.41-7.84 12.88-12.29 7.22 5.49 14.45 10.78 21.37 16.44 1.19.97 2.07 4.19 1.38 5.16-1.1 1.55-3.62 2.9-5.56 2.94-13.83.24-27.66.13-41.49.13-1.97 0-3.94 0-6.32 0-.73 9.45-1.4 18.51-2.14 27.56-.65 7.87-7.48 11.7-14.19 7.54-1.67-1.03-2.77-4.38-2.69-6.61.33-9.27 1.22-18.52 1.96-28.62-9.58.63-18.44 1.2-27.85 1.8z"/></g></svg>