<svg enable-background="new 0 0 400 400" viewBox="0 0 400 400" xmlns="http://www.w3.org/2000/svg"><path d="m377.9 391.2c-.2.3-.4.5-.6.8-.7-.6-1.4-1-2.2-1.5.2-.3.4-.5.5-.8.6.4 1.4.8 2.3 1.5zm-1.8 6.1c-.2-.2-.5-.4-.9-.6.4-.6.8-1.2 1.2-1.9s.7-1.3.9-1.9c.3.3.5.5.8.7-.7 1.3-1.4 2.6-2 3.7zm2.2-9c-.3.3-.5.5-.6.8-.6-.6-1.3-1.1-2-1.5.3-.3.5-.5.6-.7.6.5 1.3.9 2 1.4zm.3.2v-.9h2 4.5c-.3 1.3-.6 2.5-1 3.6s-.9 2.1-1.4 3c.4.5 1 1 1.6 1.4s1.2.8 1.9 1.1c-.3.2-.5.4-.8.8-.4-.3-1-.7-1.6-1.2s-1.2-1.1-1.6-1.6c-.5.6-1.1 1.1-1.7 1.6s-1.4.9-2.1 1.4c-.1-.3-.3-.5-.7-.8.6-.2 1.2-.5 1.9-1s1.4-1.1 2-1.8c-.5-.8-.9-1.6-1.2-2.5s-.6-2-.8-3.2c-.4.1-.7.1-1 .1zm2.5 2.7c.3 1 .7 1.7 1 2.2.3-.5.6-1.1 1-2s.6-1.9.9-3h-3.2-.4c.1.9.3 1.8.7 2.8z" fill="#fbfcfa"/><path d="m396.5 388.5v1.5 3.6h1.5v.9c-.4 0-1 0-1.7 0h-7.9c-.5 0-.9 0-1.2 0v-.9h1.3v-3.5c0-.7 0-1.2 0-1.6h2.4c0-.8 0-1.4 0-1.7h1c0 .3-.1.8-.1 1.7h1.5c0-.8 0-1.4 0-1.7h1c0 .3-.1.9-.1 1.7zm-8.2 9.2c-.2-.3-.5-.5-.8-.8.8-.3 1.4-.6 1.9-.9s1-.7 1.4-1.1c.3.3.6.5.9.8-1.6 1-2.8 1.6-3.4 2zm2.6-6.8v-1.6h-1.5v1.6zm0 2.7v-1.9h-1.5v1.9zm2.4-2.7v-1.6h-1.5v1.6zm0 2.7v-1.9h-1.5v1.9zm.2 2 .7-.8c.4.2.9.5 1.6.8s1.3.7 1.8 1c-.3.3-.5.5-.8.8-.4-.3-1.5-1-3.3-1.8zm2-4.7v-1.6h-1.4v1.6zm0 2.7v-1.9h-1.4v1.9z" fill="#fbfcfa"/><g fill="#010100"><path d="m45.98 165.25c-1.83-4.32-3.84-9.05-5.92-13.97 50.27 6.34 100.45 1.77 150.69 3.64 0-17.35 0-33.77 0-50.47-1.35-.1-2.48-.26-3.6-.26-25.82.06-51.65.1-77.47.26-5.32.03-10.63.65-15.94.72-1.36.02-3.43-.67-3.97-1.67-2.11-3.91-3.74-8.08-5.81-12.76 35.81 6.06 71.23 1.94 106.79 3.52 0-13.63 0-26.56 0-39.8-.84-.14-1.77-.43-2.7-.43-37.32.03-74.65.09-111.97.15-.33 0-.67 0-1 .01-4.28.18-10.11 2.15-12.49.11-3.54-3.03-4.65-8.9-6.82-13.62 11.7 1.03 23.02 2.05 34.33 3.02 1.66.14 3.33.13 4.99.13 68.48.01 136.97-.02 205.45.07 3.76 0 6.42-.91 9.03-3.87 4.38-4.98 9.45-9.35 14.69-14.42 7.46 6.71 15.26 13.4 22.66 20.51 3.24 3.12 1.35 7.25-3.18 7.84-1.31.17-2.66.05-4 .05-41.66 0-83.31 0-124.97 0-1.99 0-3.99 0-6.37 0v39.72c1.33.09 2.76.27 4.2.27 19.5.02 38.99.11 58.49-.12 2.29-.03 4.94-1.39 6.78-2.9 5.38-4.43 10.43-9.25 15.85-14.13 6.28 5.54 13.64 11.79 20.64 18.42 1.52 1.44 2.62 4.42 2.24 6.37-.23 1.18-3.68 2.43-5.69 2.44-32.16.15-64.32.11-96.48.11-1.96 0-3.91 0-6.14 0v50.42h4.94c33.16 0 66.32-.06 99.48.09 3.57.02 5.89-1.27 8.13-3.75 5.13-5.67 10.42-11.2 16.07-17.23 8.76 7.73 17.41 15.21 25.79 22.98 1.15 1.06 1.62 3.8 1.13 5.37-.35 1.13-2.75 1.88-4.37 2.27-1.58.38-3.31.1-4.98.1-83.65 0-167.3-.05-250.94.04-18.97-.01-37.92.48-57.56.77z"/><path d="m176.41 227.64c7.1 5.33 14 10.28 20.58 15.63 1.51 1.22 3.15 4.57 2.52 5.61-1 1.65-3.84 3.04-5.91 3.06-20.33.22-40.66.13-60.99.13-1.81 0-3.63 0-5.35 0-2 7.84-1.43 8.33 4.87 11.83 10.74 5.96 21.51 11.95 31.67 18.82 7.19 4.87 12.86 11.54 14.67 20.65.89 4.49.03 8.44-3.76 11.01-4.27 2.89-8.5 1.33-11.64-2.05-2.79-3-5.19-6.5-7.12-10.12-6.92-13.03-16.2-23.86-28.98-32.22-.22 1.38-.53 2.45-.53 3.52-.03 18.16-.35 36.33.09 54.49.3 12.44 1.66 24.85 2.54 37.28.26 3.71-.18 7.18-4.31 8.54-4.54 1.49-9.38 2.22-13.08-1.47-1.48-1.48-1.98-4.48-1.99-6.8-.13-26.83-.08-53.65-.09-80.48 0-1.78 0-3.56 0-5.9-11.73 14.43-22.06 29.15-34.46 41.83-12.49 12.77-27.05 23.52-41.02 35.42-2.29-2.53-3.71-4.1-5.46-6.03 30.69-27.52 54.88-59.65 71.78-97.79-21.27 0-41.93 0-63.2 0-1.86-4.28-3.96-9.1-6.36-14.62 26.16 6.06 52.21 3.41 78.43 4.08 0-12.48 0-24.4 0-36.72-22.03 1.06-43.85 2.1-66.09 3.17 0-2.75 0-4.82 0-7.53 8.14-1.01 16.5-1.96 24.83-3.08 28.98-3.92 57.86-8.35 85.3-19.12 3.85-1.51 7.63-3.32 11.21-5.4 2.52-1.46 4.2-1.66 6.45.61 5.14 5.21 10.8 9.91 15.79 15.25 1.33 1.42 1.92 4.77 1.17 6.52-.58 1.36-4.29 2.76-5.72 2.13-10.01-4.38-19.48-.53-29.12 1.19-8.65 1.54-17.31 3-26.34 4.56v38.32c11.48 0 22.91.07 34.33-.11 1.21-.02 2.54-1.39 3.57-2.39 3.92-3.84 7.73-7.78 11.72-11.82z"/><path d="m281.67 265.06c7.62 11.16 14.67 22.63 22.87 33.21 12.56 16.19 25.77 31.97 43.47 42.94 6.59 4.08 13.74 7.41 20.92 10.37 3.66 1.51 5.13 3.13 4.02 6.54-4.78 1.27-9.66 1.89-13.9 3.89-4.09 1.92-7.5 5.27-11.76 8.39-30.47-25.84-52.3-58.67-70.05-96.28-11.13 54.7-46.45 84.41-96.44 100.07-2.21-4.02-2.23-6.42 2.63-8.74 14.74-7.03 28.91-15.11 40.9-26.45 20.8-19.67 31.53-44.52 36.49-72.16 5.17-28.8 5.59-57.9 4.76-87.04-.06-2.12-.34-4.23-.65-8 11.12 3.22 21.63 5.82 31.79 9.4 4.47 1.58 4.37 5.88.17 8.35-2.96 1.75-6.53 2.42-9.62 3.99-1.32.67-2.92 2.33-3.02 3.64-1.44 19.21-2.64 38.43-3.89 57.66-.01.12.16.25.63.94 21.32-16.36 41.54-33.62 55.9-57.49 8.52 6.15 16.95 12.03 25.08 18.31 1.33 1.03 2.25 4.14 1.68 5.65-.55 1.46-3.24 2.16-5.06 3.06-.54.26-1.36.2-1.97.02-8.39-2.45-14.61 1.2-21.09 6.24-15.92 12.38-32.9 23.2-51.28 31.69-.59.27-1.08.74-2.58 1.8z"/><path d="m198.36 217.81c1.76-1.67 3.06-2.91 4.69-4.45 12.37 9.86 25.58 18.59 34.38 31.75 3.54 5.3 4.9 12.14 6.83 18.41.59 1.92.13 4.37-.47 6.39-1.11 3.77-2.93 7.09-7.59 7.48-4.87.4-7.53-2.47-8.95-6.46-2.16-6.09-3.49-12.48-5.8-18.5-5.02-13.03-13.21-24.1-23.09-34.62z"/><path d="m246.27 116.84c1.23-5.51 4.29-5.51 8.31-3.84 7.19 2.99 14.68 5.34 21.65 8.77 4.51 2.22 8.6 5.59 12.31 9.05 1.9 1.77 3.17 4.76 3.63 7.38.76 4.36.35 8.88-4.42 11.13-4.96 2.34-8.64-.6-11.08-4.2-8-11.81-18.67-20.63-30.4-28.29z"/></g></svg>