<svg enable-background="new 0 0 400 400" viewBox="0 0 400 400" xmlns="http://www.w3.org/2000/svg"><g fill="#010100"><path d="m332.83 130.16c-24.91 0-49.04 0-73.53 0-.1 1.57-.28 3.01-.28 4.45.01 61.99-.07 123.99.16 185.98.04 10.62 1.44 21.23 2.17 31.85.24 3.55.58 8.02-3.38 9.02-4.2 1.06-8.93.42-13.36-.13-1.07-.13-2.15-2.71-2.63-4.34-.45-1.54-.14-3.3-.14-4.97.03-71.83.07-143.65.11-215.48 0-1.97 0-3.94 0-6.22-23.81 0-47.23 0-71.52 0v6.13 215.98c0 1.5-.08 3 .01 4.5.67 11.14-9.14 12.27-15.76 9.77-4-1.51-4.27-5.21-4.02-8.84.74-10.61 2.04-21.22 2.24-31.84.5-26.64.59-53.29.69-79.93.15-40.99.18-81.99.25-122.98 0-1.78 0-3.57 0-6.08-7.46 3.3-14.23 6.3-20.95 9.28-3.86-6-3.84-5.98 1.83-9.55 20.84-13.15 38.03-30.12 52.48-49.98.96-1.32 1.97-2.61 3.18-4.21 7.15 4.43 14.15 8.56 20.87 13.1 1.49 1.01 3 3.71 2.67 5.23-.34 1.55-2.92 2.64-4.57 3.85-.36.26-1 .34-1.45.25-8.6-1.75-13.97 3.3-19.93 8.4-8.04 6.88-17.04 12.64-26.05 19.18 6.5 3.44 12.07 7.8 20.33 7.55 19.63-.6 39.29-.19 59.33-.19 0-20.16 0-40.03 0-60.52-1.88 0-3.67 0-5.46 0-20.5 0-41-.11-61.49.07-6.3.06-12.6.81-18.87 1.47-2.95.31-5 .07-6.13-3.26-1.27-3.74-3.17-7.26-4.71-10.7 58.97 4.31 117.86 1.94 176.7 2.69 4.19.05 7.13-1.14 10.04-4.14 4.63-4.77 9.8-9.01 14.89-13.61 6.13 5.46 13.33 11.65 20.21 18.16 1.61 1.53 2.17 4.16 3.22 6.29-2.33.9-4.65 2.56-6.98 2.57-29.83.21-59.66.19-89.49.22-4.63.01-9.27 0-14.18 0v60.76h5.22c20.33 0 40.66-.11 60.99.1 3.75.04 6.23-1.03 8.39-3.98 2.25-3.08 4.89-5.88 7.67-9.17 5.57 3.91 11.3 7.54 16.57 11.75 5.58 4.46 5.4 8.65-.96 11.38-6.21 2.66-7.16 6.64-7.14 12.75.19 64.83.06 129.65.03 194.48-.01 15.37-6.04 23.44-20.97 27.98-2.51.76-5.06 1.38-7.44 2.02-.45-.59-.81-.85-.82-1.11-.38-11.89-2.71-15-14.06-18.51-3.01-.93-6.02-1.97-9.1-2.47-3.52-.56-4.19-2.42-3.67-5.54.62-3.73 2.92-2.57 5.25-2.2 8.03 1.26 16.06 2.72 24.14 3.4 6.3.53 9.03-2.46 9.42-8.83.05-.83.01-1.67.01-2.5 0-64.66 0-129.32 0-193.98-.03-1.63-.03-3.26-.03-5.35z"/><path d="m117.17 150.68c7.31 6.56 14.81 13.11 22.05 19.95 1.2 1.13 2.2 3.95 1.6 5.14-.76 1.52-3.2 3-4.98 3.08-7.32.34-14.66.15-21.99.16-7.63 0-15.25 0-23.14 0v108.73c18-5.9 35.42-11.6 53.17-17.42.87 1.63 1.85 3.49 3.33 6.27-12.32 5.94-24.13 12.37-36.5 17.43-18.59 7.61-37.55 14.32-56.41 21.24-3.08 1.13-4.84 2.39-5.53 5.99-.59 3.11-2.98 5.87-4.58 8.79-2.21-2.48-4.89-4.69-6.53-7.5-3.94-6.72-7.4-13.73-11.34-21.16 9.93-1.88 19.44-3.64 28.94-5.49 4.88-.95 9.73-2.08 14.61-3.08 2.32-.48 3.79-1.27 3.78-4.18-.12-35.99-.12-71.99-.16-107.98 0-.31-.19-.62-.31-1.01-11.05 0-22.14-.4-33.17.2-4.4.24-6.79-.42-8.11-4.71-1.02-3.3-2.58-6.44-3.83-9.46 14.95 1.32 29.75 2.62 45.08 3.98 0-33.18 0-65.24 0-97.56-13.57 0-27.25 0-41.47 0-1.74-4.07-3.75-8.77-6.17-14.44 5.26.84 9.7 1.97 14.17 2.17 13.29.59 26.71-.09 39.88 1.42 14.05 1.6 24.44-2.74 32.22-14.25.92-1.36 2.21-2.48 3.75-4.18 7.89 7.12 15.6 13.89 23.02 20.97 1.11 1.05 1.65 4 .97 5.26-.7 1.3-3.22 2.23-4.96 2.26-12.66.19-25.33.11-37.99.11-1.8 0-3.6 0-5.77 0v96.97c4.47 1.01 8.12.65 11.52-3.17 4.51-5.06 9.68-9.53 14.85-14.53z"/><path d="m265.66 314.57c7.42-10.8 14.39-21.29 21.76-31.5 2.45-3.4 1.79-5.43-1.01-7.89-6.6-5.83-13.06-11.82-19.91-18.05 1.17-1.68 2.45-3.53 3.96-5.7 8.24 5.45 16.2 10.72 24.65 16.3 3.66-9.26 7.12-17.99 10.88-27.51 6.92 3.69 13.59 6.9 19.88 10.73 3.42 2.08 3.05 6.72-.2 6.8-12.59.29-12.98 11.91-18.61 18.41 4.82 5.94 9.75 11.36 13.87 17.35 2.15 3.13 3.46 7.16 4.06 10.96.61 3.86-1.37 7.2-5.44 8.48-4.35 1.37-7.37-.55-9.57-4.26-3.54-5.97-7.14-11.89-10.64-17.73-9.46 10.23-18.45 19.96-27.44 29.68-.78-.56-1.57-1.11-2.35-1.67-1.46-1.66-2.91-3.3-3.89-4.4z"/><path d="m269.19 226.57c-1.8-2.28-2.9-3.68-3.66-4.64 8.45-11.83 16.64-23.31 25.21-35.31-8.32-7.69-16.1-14.88-24.14-22.31 1.01-1.55 2.16-3.31 3.64-5.58 8.22 5.42 16.29 10.75 24.84 16.39 3.71-9.36 7.23-18.22 10.9-27.45 6.84 3.62 13.34 6.89 19.62 10.53 1.24.72 2.49 3.08 2.2 4.33-.3 1.31-2.63 3.27-3.76 3.08-8-1.36-9.9 4.53-12.61 9.8-4.28 8.29-4.3 8.18 1.65 15.18 3.33 3.92 6.75 7.87 9.41 12.23 1.83 3 3.41 6.79 3.27 10.15-.12 2.75-2.37 6.26-4.74 7.85-2.94 1.98-6.03-.17-8.04-2.98-3.28-4.6-6.46-9.26-9.74-13.86-1.34-1.87-2.82-3.63-4.06-5.21-10.09 9.35-19.91 18.45-29.99 27.8z"/><path d="m205.04 270.82c3.53-10.16 6.94-19.97 10.44-30.05 6.44 3.1 12.8 5.95 18.93 9.25 1.62.87 2.5 3.13 3.72 4.75-1.63 1.15-3.25 3.27-4.88 3.28-6.58.02-8.56 4.19-11.5 9.22-5.07 8.66-5.38 15.21 2.64 22.12 3.21 2.77 5.12 7.32 6.91 11.38 1.87 4.22-.07 9.47-3.59 11.35-4.73 2.53-7.72-.57-10.05-3.83-3.36-4.72-6.17-9.84-9.15-14.67-10.3 9.42-20.52 18.76-31.13 28.47-1.76-2.41-2.87-3.95-4-5.5 5.76-7.01 11.39-13.75 16.89-20.59 2.08-2.59 3.68-5.58 5.87-8.07 3.53-4.01 3.2-7.19-.75-10.83-6.24-5.75-12.09-11.93-18.1-17.94-.69-.69-1.35-1.41-2.2-2.3 1.04-1.78 2.01-3.45 3.26-5.59 8.97 6.56 17.53 12.83 26.69 19.55z"/><path d="m177.18 229.15c-1.73-2.47-2.76-3.96-3.52-5.04 7.91-10.79 15.52-21.44 23.46-31.83 2.65-3.47 2.06-5.51-.96-8.22-7.05-6.33-13.8-12.98-21.06-19.86.85-1.58 1.75-3.26 3.05-5.69 8.85 6.35 17.38 12.47 26.52 19.03 3.73-10.01 7.29-19.58 10.98-29.49 6.62 3.43 13.46 6.76 20.04 10.54 1.34.77 2.27 3.16 2.34 4.85.04.86-2.29 2.69-3.45 2.61-7.41-.51-10.12 4.18-13.48 9.77-4.29 7.14-5.42 12.29 1.45 18.62 3.79 3.5 5.85 9.17 7.91 14.18 1.8 4.36-.33 8.54-4.24 10.44-4.48 2.19-6.9-.74-8.95-3.88-3.16-4.85-6.05-9.88-9.17-15.03-10.21 9.59-20.31 19.06-30.92 29z"/><path d="m288.35 74.72c.82-5.39 3.27-6.51 8.59-5.1 19.39 5.13 39.21 8.97 57.14 18.36 5.89 3.08 11.1 7.71 16.04 12.25 3.34 3.07 3.83 7.68 2.63 12.11-1.41 5.24-5.68 7.1-10.38 4.45-2.59-1.46-5.15-3.13-7.33-5.13-15.59-14.3-34.51-22.86-53.49-31.34-4.38-1.94-8.83-3.74-13.2-5.6z"/></g><path d="m6.4 11.7c-1-.8-1.9-1.6-2.9-2.3l.6-.7c.9.7 1.9 1.4 2.9 2.2zm-2.1 8.3c.7-2.1 1.4-4.2 2-6.4.2.1.6.3 1 .4-.7 2.3-1.3 4.4-1.9 6.4zm3-12.8c-1.1-.9-2.1-1.7-2.9-2.4l.6-.7c1 .8 2 1.5 3 2.4zm1.4-1.3v-.9h10.2v.9c-.9 4.2-2.3 7.3-4.1 9.4 1.3 1.4 3.2 2.7 5.7 4-.2.2-.4.5-.7.9-2.5-1.4-4.4-2.7-5.7-4.2-1.4 1.5-3.5 3-6.1 4.4 0 0 0 0-.1-.1-.3-.4-.5-.7-.7-.8 2.7-1.3 4.7-2.8 6.2-4.2-1.8-2.2-3-5.3-3.7-9.4zm9.2 0h-7.1c.6 3.8 1.7 6.7 3.4 8.7 1.7-2 2.9-4.8 3.7-8.7z" fill="#fafbfa"/><path d="m31.6 3.6h.9v2.3h4.1v9.1h1.7v.9h-16.6v-.9h1.7v-9.1h4.1v-2.3h.9v2.3h3.1v-2.3zm-4 13.3.6.8c-1.9.9-3.8 1.9-5.8 2.8-.2-.3-.3-.6-.5-.9 2-.9 3.9-1.8 5.7-2.7zm-3.2-10.1v3.7h3.1v-3.7zm0 4.5v3.7h3.1v-3.7zm4.1-4.5v3.7h3.1v-3.7zm0 4.5v3.7h3.1v-3.7zm9.1 9.1c-2.1-1.1-4.1-2-5.8-2.7l.5-.8c2.2.9 4.1 1.8 5.8 2.6zm-1.9-13.6h-3.1v3.7h3.1zm-3.2 4.5v3.7h3.1v-3.7z" fill="#fafbfa"/></svg>