<svg enable-background="new 0 0 400 400" viewBox="0 0 400 400" xmlns="http://www.w3.org/2000/svg"><g fill="#010100"><path d="m293.63 331.96c0-56.88 0-112.82 0-169.44-9.24 0-18.35-.18-27.45.06-7.3.19-14.58.97-21.88 1.28-.96.04-2.48-.97-2.88-1.87-1.8-4.08-3.29-8.29-4.64-11.81 23.64 1.07 47.24 2.13 71.3 3.21-9.96-23.23-26.61-39.2-44.18-54.85 1.11-1.65 2.18-3.24 3.66-5.44 10.81 6.98 21.38 13.8 32.58 21.02 14.46-16.16 27.77-33.36 39.29-52.49-30.05 0-59.41 0-89.21 0-1.62-4.18-3.4-8.77-5.41-13.93 6.71.8 12.89 1.89 19.11 2.2 11.96.58 23.95.84 35.92 1.01 11.5.16 23-.12 34.5.11 3.8.07 6.63-.93 9.2-3.74 2.91-3.17 6.25-5.95 10.06-9.5 6.65 6.64 13.41 12.94 19.61 19.75 3.22 3.54 2.3 5.62-2.29 7.33-2.33.86-4.78 1.87-7.2 1.91-6.12.1-9.86 3.43-13.5 7.89-13.07 16.05-27.82 30.46-44.66 43.6 2.6 2.73 5.14 5.05 7.25 7.71 2.87 3.64 5.87 7.31 7.96 11.4 2.45 4.78 2.89 9.93-2.57 15.29 4.95-.26 8.68-.9 12.32-.57 10.29.92 19.59-.09 24.67-11.31 6.46 5.42 12.39 10 17.84 15.1 4.78 4.47 4.22 7.83-2.08 9.03-9.11 1.73-14.08 7.71-19.14 14.43-5.59 7.42-11.77 14.38-17.57 21.39-4.05-1.71-4.45-3.77-2.76-7.19 4.49-9.08 8.6-18.35 12.83-27.56.39-.86.58-1.81 1-3.18-11.45 0-22.48 0-33.83 0v76.23c14.83 5.27 23.73-3.12 31.4-14.38 7.55 5.89 14.68 11.25 21.5 16.97 1.36 1.14 2.64 4.23 2.02 5.39-.83 1.55-3.53 2.92-5.45 2.95-16.32.23-32.64.13-49.46.13v88.04c20.54 3.15 41.31 2.49 62.28.04.39 1.5.81 2.91 1.11 4.34.13.62.02 1.29.02 2.13-7.1 2.36-13.01 5.95-15.09 13.81-.2.77-2.05 1.56-3.14 1.57-19.03.05-37.93-1.19-56.13-7.28-12.38-4.14-21.27-12.92-28.34-23.48-4.97-7.42-9.15-15.36-13.15-22.16-7.41 10.98-14.32 23.03-23.04 33.57-7.67 9.27-17.34 16.91-26.21 25.17-4.11 3.83-5.42-1.18-8-2.43 6.28-7.26 12.71-13.99 18.33-21.33 16.01-20.92 25-44.81 28.75-70.77 3.01-20.78 4.93-41.63 3.74-62.66-.03-.45.22-.92.46-1.89 8.66 1.71 17.3 3.17 25.8 5.26 2.24.55 4 3.02 5.99 4.61-1.82 1.79-3.35 4.57-5.51 5.19-6 1.74-8.27 4.58-8.71 11.34-.99 15.22-2.53 30.57-5.94 45.39-2.34 10.17.42 17.92 4.82 26.28 5.7 10.78 12.92 20.03 24.1 27.13z"/><path d="m71.59 77.1c-12.2 0-23.98-.23-35.74.14-3.71.12-5.4-.92-6.48-4.28-1.06-3.29-2.65-6.41-4.24-10.15 6.74.79 12.91 1.94 19.11 2.16 15.46.54 30.94.73 46.42.85 1.37.01 2.99-1.22 4.1-2.28 5.27-5.08 10.39-10.31 15.72-15.63 7.41 6.6 14.84 13 21.95 19.75 1.38 1.31 2.32 4.21 1.87 5.95-.32 1.23-3.35 2.43-5.19 2.46-13.13.21-26.27.11-39.76.11v98.1c2.71-1.19 5.36-1.74 7.19-3.27 4.98-4.15 9.62-8.71 14.69-13.37 6.18 5.25 13.24 11.02 19.97 17.15 1.42 1.29 2.69 4.39 2.08 5.81-.64 1.48-3.63 2.65-5.62 2.7-10.83.26-21.66.12-32.5.13-1.81 0-3.62 0-5.8 0v109.07c15.72-5.08 31.21-10.09 47.01-15.2.98 1.85 1.89 3.58 3.21 6.08-7.13 3.58-13.85 7.51-20.98 10.44-21.8 8.97-43.73 17.65-65.7 26.19-3.44 1.34-5.39 2.81-6.21 6.65-.63 2.97-2.92 5.58-4.47 8.36-2.08-2.36-4.6-4.47-6.17-7.14-4.04-6.86-7.66-13.97-11.7-21.44 15.91-3.16 31.43-6.24 47.16-9.36 0-37.86 0-75.3 0-112.87-12.18 0-24.37 0-37.41 0-1.73-3.98-3.87-8.89-5.87-13.51 14.45 1.21 28.74 2.41 43.36 3.63 0-33.39 0-65.34 0-97.23z"/><path d="m155.37 155.63c8.25 2.92 16.57 5.68 24.71 8.9 1.57.62 3.72 3.59 3.33 4.54-.72 1.74-3.17 3.99-4.82 3.92-8.63-.34-12.7 4.18-14.64 11.89-.59 2.36-1.97 4.51-3.31 7.46 1.97.1 3.53.23 5.1.24 11.83.02 23.66.18 35.49-.13 2.47-.07 5.22-1.5 7.25-3.07 4.32-3.35 8.24-7.2 12.8-11.28 6.15 4.77 13.33 10.1 20.17 15.83 1.27 1.07 1.93 3.94 1.49 5.62-.32 1.23-2.88 2.63-4.47 2.66-12.99.24-25.99.17-38.98.2-1.95 0-3.9 0-6.07 0-.86 14.7-1.69 28.74-2.55 43.4 5.83 0 11.11.14 16.38-.1 1.24-.06 2.57-1.23 3.61-2.17 4.43-4.03 8.76-8.16 13.61-12.69 6.5 5.03 13.69 10.36 20.55 16.09 1.29 1.08 2.18 4.17 1.55 5.57-.63 1.39-3.38 2.54-5.22 2.57-15.33.2-30.66.12-45.98.12-1.82 0-3.63 0-5.57 0-1.56 7.85-3.2 15.4-4.41 23.03-.18 1.16 1.42 3 2.66 3.92 9.83 7.35 20.07 14.19 29.53 21.97 3.51 2.88 5.62 7.71 7.71 11.96.9 1.83.96 4.96-.04 6.62-1.55 2.55-4 5.24-6.69 6.26-3.66 1.39-5.93-1.67-7.75-4.73-4.58-7.67-8.86-15.58-14.14-22.75-3.57-4.84-8.62-8.58-13.92-13.7-13.87 38.75-41.83 62.18-77.59 78.61-.65-.84-1.37-1.75-2.05-2.69-.56-.78-1.07-1.6-2.03-3.05 39.43-24.26 65.54-57.42 70.12-105.71-11.26.54-22.35.76-33.38 1.77-3.46.32-4.83-.49-5.87-3.39-1.28-3.57-2.77-7.07-4.29-10.91 14.98 1.3 29.56 2.56 45.38 3.93.84-14.83 1.64-28.99 2.48-43.89-6.9 0-13.01-.17-19.1.15-1.21.06-2.5 1.88-3.43 3.13-6.96 9.29-13.83 18.65-21.04 28.39-2.46-1.73-4.01-2.82-5.07-3.57 5.76-12.55 11.92-24.34 16.62-36.69 4.64-12.2 7.82-24.96 11.87-38.23z"/><path d="m150.59 30.13c7.98 2.03 16.88 4 25.55 6.71 2.37.74 5.55 3.72 5.58 5.71.03 2.01-3.17 5.52-5.34 5.85-9.27 1.44-10.35 7.12-9.49 14.85.43 3.84-.33 7.81-.58 12.3 11.04 0 21.33.1 31.6-.11 1.38-.03 2.87-1.45 4.07-2.49 4.24-3.71 8.38-7.54 12.97-11.69 6.04 4.67 12.98 9.8 19.56 15.34 1.46 1.23 2.73 4.29 2.19 5.85-.51 1.45-3.54 2.82-5.47 2.84-19.32.21-38.65.13-57.97.13-1.98 0-3.96 0-6.85 0 0 2.75-.05 5.16.01 7.57.17 6.81.46 13.62.56 20.43.14 9.83 5.12 16.06 14.95 17.32 13.14 1.69 26.18 1.31 38.76-3.69 4.82-1.92 10.07-4.17 14.54 0 2.31 2.15 4.58 5.86 4.41 8.71-.15 2.47-3.34 5.85-5.94 6.86-4.72 1.81-9.96 2.48-15.05 3.05-16.23 1.82-32.48 2.83-48.51-1.54-12.82-3.49-19.19-11.78-19.29-25.05-.15-19.32-.19-38.64-.25-57.96-.04-10.12-.01-20.24-.01-30.99z"/></g><path d="m6.4 11.7c-1-.8-1.9-1.6-2.9-2.3l.6-.7c.9.7 1.9 1.4 2.9 2.2zm-2.1 8.3c.7-2.1 1.4-4.2 2-6.4.2.1.6.3 1 .4-.7 2.3-1.3 4.4-1.9 6.4zm3-12.8c-1.1-.9-2.1-1.7-2.9-2.4l.6-.7c1 .8 2 1.5 3 2.4zm1.4-1.3v-.9h10.2v.9c-.9 4.2-2.3 7.3-4.1 9.4 1.3 1.4 3.2 2.7 5.7 4-.2.2-.4.5-.7.9-2.5-1.4-4.4-2.7-5.7-4.2-1.4 1.5-3.5 3-6.1 4.4 0 0 0 0-.1-.1-.3-.4-.5-.7-.7-.8 2.7-1.3 4.7-2.8 6.2-4.2-1.8-2.2-3-5.3-3.7-9.4zm9.2 0h-7.1c.6 3.8 1.7 6.7 3.4 8.7 1.7-2 2.9-4.8 3.7-8.7z" fill="#fafbfa"/><path d="m31.6 3.6h.9v2.3h4.1v9.1h1.7v.9h-16.6v-.9h1.7v-9.1h4.1v-2.3h.9v2.3h3.1v-2.3zm-4 13.3.6.8c-1.9.9-3.8 1.9-5.8 2.8-.2-.3-.3-.6-.5-.9 2-.9 3.9-1.8 5.7-2.7zm-3.2-10.1v3.7h3.1v-3.7zm0 4.5v3.7h3.1v-3.7zm4.1-4.5v3.7h3.1v-3.7zm0 4.5v3.7h3.1v-3.7zm9.1 9.1c-2.1-1.1-4.1-2-5.8-2.7l.5-.8c2.2.9 4.1 1.8 5.8 2.6zm-1.9-13.6h-3.1v3.7h3.1zm-3.2 4.5v3.7h3.1v-3.7z" fill="#fafbfa"/></svg>