<svg enable-background="new 0 0 400 400" viewBox="0 0 400 400" xmlns="http://www.w3.org/2000/svg"><g fill="#010100"><path d="m87.75 232.27c-8.24 0-14.68 0-21.5 0-.09 1.79-.24 3.4-.25 5v82.48c0 8.82 2.91 12.35 12.02 13.06 12.42.97 24.93 2.28 37.32 1.77 14.89-.61 29.72-2.85 44.53-4.68 4.88-.6 7.96 1.41 10.53 5.06 3.5 4.97 2.63 8.76-3.22 10.17-7.54 1.81-15.29 3.36-23.02 3.73-17.28.83-34.61 1.26-51.91 1.04-9.06-.12-18.21-1.43-27.13-3.16-11.43-2.22-15.53-7.91-15.54-19.64-.02-29.49-.01-58.98-.01-88.48 0-1.97 0-3.95 0-6.59-6.23.42-11.95.81-18.11 1.23-2.07-4.9-4.11-9.73-6.17-14.59 12.99 1.32 25.75 2.61 39.06 3.96 0-45.42 0-89.76 0-134.88-6.85.35-13.65.32-20.35 1.14-4.91.6-8.32.16-9.64-5.42-.71-3.02-2.31-5.82-3.6-8.93 11.29 1.39 22.3 2.75 33.5 4.13 0-16.14 0-31.04 0-46.96 9.65 2.58 19.51 5 29.19 7.98 1.91.59 4.53 3.51 4.35 5.08-.24 2.06-2.8 3.97-4.59 5.7-.77.74-2.09.94-3.2 1.28-8.6 2.63-8.6 2.62-8.6 11.76v14.15h48.67c0-15.05 0-30.08 0-45.77 8.98 2.21 18.1 4.4 27.17 6.74 1.57.4 3.1 1.25 4.43 2.21 3.43 2.49 3.59 5.93-.06 8.04-3.25 1.88-6.97 3.16-10.64 4.02-2.8.65-3.94 1.61-3.86 4.56.18 6.73.06 13.47.06 21.56 5.79-6.23 10.57-11.37 15.45-16.63 7.7 6.24 14.14 11.22 20.25 16.58 1.51 1.32 3.19 4.58 2.56 5.7-.95 1.69-3.82 3.11-5.93 3.19-8.98.34-17.99.13-26.99.16-1.62 0-3.24.14-5.07.23v133.03c3.41 1.14 5.71.44 8.06-2.24 3.72-4.22 8.03-7.92 12.32-12.06 5.93 4.93 12.21 9.85 18.08 15.23 1.65 1.52 3.37 4.9 2.72 6.47-.7 1.71-4.09 3.2-6.35 3.25-12.99.3-25.99.15-38.99.15-1.82 0-3.63 0-5.8 0-.16 1.51-.41 2.77-.41 4.03-.03 13.5-.05 26.99-.01 40.49.02 7.71 4.47 11.02 11.98 9.55 5.35-1.05 10.81-1.9 16.25-2.07 5.08-.16 9.31 4.16 8.64 8.85-.32 2.24-2.41 5.41-4.38 6.05-11.22 3.66-22.78 4.48-34.38 1.84-9.09-2.07-14.19-8.39-14.28-17.92-.16-16.65-.04-33.3-.04-50.38-5.36 0-10.42 0-16.12 0-.53 6.27-.99 12.81-1.67 19.34-2.25 21.56-9.86 40.59-26.42 55.32-1.22 1.09-2.54 2.07-3.95 3.2-1.56-1.42-2.9-2.64-4.63-4.22 6.88-11.05 13.73-22.17 15.56-35.22 1.78-12.61 2.74-25.32 4.12-38.67zm-5.99-105.84h48.51c0-12.96 0-25.52 0-38.09-16.36 0-32.39 0-48.51 0zm48.4 95.13c0-12.76 0-25.26 0-37.68-16.44 0-32.44 0-48.33 0v37.68zm.2-84.73c-16.53 0-32.53 0-48.59 0v36.59h48.59c0-12.32 0-24.23 0-36.59z"/><path d="m167.89 368.43c-2.21-1.99-3.68-3.32-5.31-4.79 5.42-8.78 11.1-17.32 16.13-26.24 16.49-29.26 26.85-60.67 32.22-93.77 5.47-33.72 8-67.67 8.07-101.81.01-8.11 0-16.22 0-24.15-8.42 0-16.89-.47-25.29.14-7.83.57-7.8 1.07-10.99-6.19-.99-2.26-2-4.51-3.35-7.57 13.57 1.03 26.46 2.01 39.93 3.03 0-26.8 0-52.68 0-78.97 9.04 1.98 18.14 3.71 27.08 6.05 3.52.92 8.3 1.97 8.43 6.61.14 4.73-4.62 5.52-8.11 6.86-2.94 1.13-6.01 1.91-9.36 2.96v55.95c8.65 0 17.41.12 26.15-.13 1.34-.04 2.83-1.65 3.9-2.84 3.66-4.08 7.17-8.3 10.64-12.34 7.26 5.36 13.04 9.58 18.75 13.88 1.32.99 2.82 2.08 3.52 3.48.89 1.81 1.96 4.39 1.28 5.87-.64 1.38-3.45 2.43-5.33 2.46-12.33.21-24.66.11-36.99.11-7.16 0-14.31 0-22.33 0-.25 5.51-.63 10.88-.73 16.25-.67 36.44-2.56 72.83-9.28 108.69-8.63 46.1-25.54 88.64-57.37 124.15-.56.6-.98 1.34-1.66 2.31z"/><path d="m244.3 145.64c8.89 2.14 17.28 4.12 25.64 6.19 1.6.4 3.35.85 4.6 1.83 1.71 1.35 4.18 3.23 4.17 4.86-.01 1.71-2.29 3.9-4.11 4.98-2.37 1.41-5.2 2.22-7.94 2.77-3.64.72-4.58 2.58-4.56 6.2.14 38.66.01 77.32.12 115.98.04 14.47.39 28.95.93 43.41.18 4.75 2.61 8.07 8.14 8.23 15.78.45 31.55 1.18 47.33 1.57 5.3.13 10.62-.51 15.94-.68 9.56-.32 15.21-4.17 17.2-13.49 2.25-10.53 3.49-21.28 5.17-31.93.33-2.11.69-4.22 1.06-6.45h6.78c-.83 9.84-1.51 19.41-2.48 28.95-.82 8.16.95 14.96 7.8 20.34 5.98 4.7 5.47 10.3-1.54 13.52-5.63 2.58-11.98 4.66-18.1 4.92-21.94.93-43.92 1.23-65.88 1.28-8.26.02-16.58-.85-24.76-2.08-7.74-1.16-12.68-6.7-13.79-14.41-.61-4.26-.96-8.61-.97-12.91-.08-57.16-.07-114.31-.13-171.47-.01-3.62-.38-7.23-.62-11.61z"/><path d="m352.77 224.69c6.37 5.8 12.76 11.38 18.81 17.3 1.25 1.23 2.25 4.2 1.6 5.49-.69 1.39-3.77 2.84-5.26 2.4-8.83-2.6-13.54 2.88-18.93 8.26-18.81 18.78-40.57 33.32-65.05 43.72-.87.37-1.81.6-2.9.96-.71-1.85-1.35-3.53-2.17-5.66 30.37-17.88 54.69-42 73.9-72.47z"/><path d="m287.13 228.34c-2.47-3.3-3.11-5.5.69-8.04 26.54-17.82 47.59-40.78 63.31-68.62.32-.56.74-1.07 1.28-1.83 6.51 5.14 13.03 10.02 19.17 15.33 1.49 1.29 2.6 4.13 2.29 5.99-.21 1.23-3.45 3.02-5.03 2.76-8.31-1.39-12.89 3.43-17.89 8.87-17.17 18.71-37.65 33.04-60.41 44.2-1.02.48-2.11.83-3.41 1.34z"/><path d="m291.05 149.26c-1.09-1.73-2.04-3.24-3.16-5.04 25.7-20.71 47.24-44.75 60.88-75.85 7.28 4.48 14.56 8.74 21.54 13.43 1.46.98 2.67 3.69 2.45 5.39-.16 1.22-2.95 3.04-4.5 2.97-9.04-.37-13.64 5.48-18.56 11.71-14.71 18.66-33.39 32.69-53.66 44.76-1.53.93-3.16 1.68-4.99 2.63z"/><path d="m266.69 45.65c1.4-1.95 2.46-3.42 3.87-5.38 12.25 7.19 25.39 12.71 35.06 23.46 4.22 4.68 6.91 10.16 6.56 16.76-.21 3.84-1.64 6.82-5.5 8.05-4.02 1.28-7.13-.37-9.66-3.41-.52-.63-.94-1.39-1.25-2.14-6.25-14.93-15.88-27.25-29.08-37.34z"/></g><path d="m6.4 11.7c-1-.8-1.9-1.6-2.9-2.3l.6-.7c.9.7 1.9 1.4 2.9 2.2zm-2.1 8.3c.7-2.1 1.4-4.2 2-6.4.2.1.6.3 1 .4-.7 2.3-1.3 4.4-1.9 6.4zm3-12.8c-1.1-.9-2.1-1.7-2.9-2.4l.6-.7c1 .8 2 1.5 3 2.4zm1.4-1.3v-.9h10.2v.9c-.9 4.2-2.3 7.3-4.1 9.4 1.3 1.4 3.2 2.7 5.7 4-.2.2-.4.5-.7.9-2.5-1.4-4.4-2.7-5.7-4.2-1.4 1.5-3.5 3-6.1 4.4 0 0 0 0-.1-.1-.3-.4-.5-.7-.7-.8 2.7-1.3 4.7-2.8 6.2-4.2-1.8-2.2-3-5.3-3.7-9.4zm9.2 0h-7.1c.6 3.8 1.7 6.7 3.4 8.7 1.7-2 2.9-4.8 3.7-8.7z" fill="#fafbfa"/><path d="m31.6 3.6h.9v2.3h4.1v9.1h1.7v.9h-16.6v-.9h1.7v-9.1h4.1v-2.3h.9v2.3h3.1v-2.3zm-4 13.3.6.8c-1.9.9-3.8 1.9-5.8 2.8-.2-.3-.3-.6-.5-.9 2-.9 3.9-1.8 5.7-2.7zm-3.2-10.1v3.7h3.1v-3.7zm0 4.5v3.7h3.1v-3.7zm4.1-4.5v3.7h3.1v-3.7zm0 4.5v3.7h3.1v-3.7zm9.1 9.1c-2.1-1.1-4.1-2-5.8-2.7l.5-.8c2.2.9 4.1 1.8 5.8 2.6zm-1.9-13.6h-3.1v3.7h3.1zm-3.2 4.5v3.7h3.1v-3.7z" fill="#fafbfa"/></svg>