<svg enable-background="new 0 0 400 400" viewBox="0 0 400 400" xmlns="http://www.w3.org/2000/svg"><g fill="#010100"><path d="m343.04 229.63c6.81 5.68 13.39 10.77 19.49 16.39 4.53 4.18 3.39 8.1-2.75 8.86-7.27.9-12.33 4.2-16.99 9.78-5.4 6.46-11.98 11.93-18.12 17.91-1.87-1.17-3.25-2.03-4.19-2.63 4.06-9.3 8.02-18.36 12.3-28.15-40.32 0-79.5 0-119.03 0v43.51c1.62.1 3.21.29 4.8.29 18.33.02 36.66.13 54.99-.13 2.47-.03 5.34-1.44 7.28-3.08 5.32-4.5 10.24-9.47 15.8-14.7 7.14 6.49 14.87 13.27 22.3 20.37 2.98 2.84 1.47 6.58-2.6 7.22-1.63.25-3.32.15-4.99.15-30.33.01-60.66.01-90.98.01-1.99 0-3.98 0-6.42 0v39.14c53.93 3.27 107.37 3.42 160.91.18 1.26 4.18.35 6.75-4.75 7.94-5.96 1.39-11.31 4.14-12.29 11.42-.11.78-2.28 1.83-3.5 1.83-22.97-.07-45.95-.27-68.92-.47-8.66-.08-17.33-.01-25.98-.42-26.22-1.25-52.54-2.38-78.06-9.02-30.28-7.88-56.09-23.21-75.24-48.6-1.38-1.84-2.99-3.5-5.14-6.01-6.79 20.01-18.41 36.17-33.5 49.52-10.27 9.09-21.83 16.73-33.42 25.47-1.55-2.93-2.5-4.73-3.62-6.87 18.28-13.31 33.47-29.01 43.81-48.87 10.21-19.6 16.42-40.52 19.33-62.99 9.9 1.79 19.58 3.09 28.27 7.9 3.56 1.98 3.29 6.4-.21 8.44-.71.41-1.51.89-2.29.94-7.94.53-11.17 5.69-13.13 12.6-.78 2.76-.52 4.59 1.32 6.68 22.91 26.12 51.29 42.34 85.79 47.52.63.1 1.3-.06 2.25-.11 0-29.87 0-59.64 0-89.47-48.57 0-97.12 0-146.59 0-1.7-3.94-3.82-8.84-5.95-13.78 9.65.96 18.85 1.89 28.06 2.78 2.15.21 4.31.4 6.46.41 52.99.02 105.98.09 158.97-.01 30.98-.05 61.96-.3 92.93-.7 2.23-.03 4.77-1.63 6.57-3.19 2.46-2.16 4.38-4.96 7.03-8.06z"/><path d="m176.26 136.06c5.95 4.62 11.24 8.38 16.06 12.67 1.52 1.36 2.92 4.65 2.28 6.16-.68 1.59-3.86 2.95-5.96 2.98-18.66.22-37.33.13-56 .13-1.63 0-3.25 0-5.17 0v27h5.28c12.33 0 24.67-.17 37 .09 4.28.09 7.69-.89 10.79-3.85 2.75-2.63 5.87-4.86 8.81-7.26 5.22 4.03 10.38 7.72 15.15 11.86 1.64 1.43 2.26 4.01 3.35 6.06-2.21 1.06-4.41 3-6.62 3.03-22.66.23-45.33.14-68 .14-1.8 0-3.6 0-6.14 0 .5 7.88.97 15.27 1.46 22.66.12 1.82.47 3.63.5 5.45.12 8.61-6.38 13.34-14.71 10.81-2.96-.9-3.57-2.95-3.55-5.75.1-10.8.04-21.61.04-32.25-1.05-.48-1.48-.85-1.9-.84-22.11.57-44.22 1.22-66.34 1.67-1.38.03-3.41-1.13-4.08-2.33-2.09-3.75-3.68-7.79-5.27-11.3 12.79.6 25.61 1.45 38.44 1.75 12.78.3 25.57.07 38.63.07 0-9.1 0-17.7 0-26.21-18.35 0-36.55 0-55.36 0-1.78-3.93-3.88-8.58-6.06-13.41 12.53 1.02 24.69 2.01 37.3 3.04-1.64-12.89-6.63-23.26-14.27-32.53-1.26-1.53-1.59-3.84-2.8-6.95-9.26.51-19.87.7-30.38 1.84-4.59.5-7.2-.1-8.61-4.71-.91-2.98-2.47-5.76-3.49-8.06 27.91.72 55.84 1.45 84.08 2.18 0-9.87 0-18.63 0-27.4-.26-.2-.53-.57-.78-.56-19.29.48-38.57 1.03-57.86 1.42-1.28.03-3.23-.8-3.77-1.81-2.09-3.93-3.73-8.1-5.27-11.59 22.47.76 44.94 1.52 67.47 2.28 0-11.83 0-22.57 0-34.53 10.17 2.74 20.42 5.09 30.38 8.36 4.63 1.52 4.77 6.01.64 8.84-2.4 1.64-5.32 2.85-8.17 3.41-4.3.84-5.82 2.99-5.21 7.18.26 1.77.04 3.61.04 6.11 9.81 0 19.24.09 28.66-.11 1.23-.03 2.56-1.35 3.62-2.32 4.02-3.72 7.95-7.55 12.4-11.8 6.78 5.22 13.94 10.55 20.84 16.21 1.18.97 2.14 3.85 1.55 4.94-.83 1.52-3.18 3.01-4.95 3.1-7.32.34-14.66.15-21.99.15-13.14 0-26.28 0-39.77 0v27.21c1.5.1 3.09.3 4.69.3 12.33.03 24.67.19 36.99-.13 2.47-.06 5.31-1.5 7.25-3.16 4.02-3.42 7.55-7.42 11.57-11.46 7.06 5.35 14.07 10.4 20.7 15.9 1.44 1.19 2.39 4.18 1.97 5.96-.28 1.19-3.4 2.37-5.26 2.39-17.65.18-35.3.11-53.34 1.07 4.63 2.23 9.27 4.41 13.87 6.7 2.67 1.33 5.48 2.52 7.82 4.3 3.1 2.37 2.42 5.34-1.22 6.75-.31.12-.65.14-.98.2-4.05.77-8.92.39-11.98 2.56-6.17 4.39-11.36 10.17-17.63 16.01 14.32 3.59 24.99.48 33.26-10.62zm-78.29 11.76c11.78 0 22.58.11 33.36-.14 1.3-.03 3.12-1.7 3.75-3.06 3.13-6.76 6.07-13.62 8.8-20.56 1.84-4.67 3.2-9.53 4.81-14.42-24.91 0-48.98 0-73.12 0 6.45 5.47 13.02 10.31 18.68 16.04 5.81 5.88 10.03 12.77 3.72 22.14z"/><path d="m369.53 158.31c1.94.71 3.63 1.34 5.74 2.12-1.8 9.8-3.39 19.57-5.42 29.26-1.69 8.08-1.27 15.73 2.52 23.19 1.33 2.63 2.29 5.52 2.96 8.4 1.16 5.06-.65 7.03-5.87 7.09-6.16.06-11.17-2.77-15.97-6.15-16.64-11.71-25.09-28.85-29.3-47.81-3.36-15.15-4.49-30.82-6.15-46.31-.95-8.92-.96-17.94-1.43-26.91-.07-1.29-.36-2.56-.57-3.98-13.11 0-25.9 0-39.25 0-.54 5.03-1 10.1-1.63 15.14-1.12 8.89-2.06 17.81-3.65 26.62-.7 3.87.21 5.94 3.28 8.33 8.62 6.69 17.17 13.55 25.1 21.02 2.94 2.77 4.64 7.28 5.9 11.31 1.47 4.7-1.36 9.94-5.33 11.75-4.37 2-7.72.8-11.43-4.13-7.37-9.8-14.73-19.62-22.87-30.46-10.88 25.96-28.24 44.67-50.49 59.6-1.23-1.04-2.56-2.17-3.96-3.36 7.12-8.28 14.2-16.16 20.87-24.37 8.89-10.95 15.12-23.38 19.61-36.74 1.17-3.49.81-5.77-2.39-7.99-8.32-5.76-16.42-11.85-24.88-18.01.75-1.41 1.5-2.83 2.65-4.99 9.44 4.97 18.76 9.86 29.06 15.28 1.46-13.11 2.88-25.83 4.42-39.57-13.5.56-26.02 1.09-39.15 1.63-1.88-4.12-4.06-8.89-6.23-13.64 15.07.96 29.75 1.89 45.33 2.87 0-18.65 0-36.32 0-54.87 9.5 1.76 18.58 3.28 27.55 5.26 1.45.32 3.38 2.67 3.39 4.1.02 1.46-1.75 3.52-3.26 4.31-2.89 1.5-6.16 2.27-9.75 3.52-.6 12.15-1.2 24.34-1.82 37.01 12.14 0 23.27.09 34.39-.12 1.25-.02 2.77-1.55 3.66-2.76 2.94-4 5.65-8.18 8.87-12.9 8.08 5.29 16.14 10.18 23.72 15.72 3.62 2.65 2.9 6.56-1.01 9.04-3.23 2.05-6.77 3.61-9.9 5.77-1.45 1-3.22 2.95-3.21 4.45.21 26.76.58 53.54 9.93 79.14 1.18 3.24 3.01 6.32 4.98 9.17 2.26 3.26 5.14 3.24 7.02-.34 2.38-4.54 4.45-9.27 6.29-14.06 2.66-6.99 5.01-14.09 7.68-21.63z"/></g><path d="m6.4 11.7c-1-.8-1.9-1.6-2.9-2.3l.6-.7c.9.7 1.9 1.4 2.9 2.2zm-2.1 8.3c.7-2.1 1.4-4.2 2-6.4.2.1.6.3 1 .4-.7 2.3-1.3 4.4-1.9 6.4zm3-12.8c-1.1-.9-2.1-1.7-2.9-2.4l.6-.7c1 .8 2 1.5 3 2.4zm1.4-1.3v-.9h10.2v.9c-.9 4.2-2.3 7.3-4.1 9.4 1.3 1.4 3.2 2.7 5.7 4-.2.2-.4.5-.7.9-2.5-1.4-4.4-2.7-5.7-4.2-1.4 1.5-3.5 3-6.1 4.4 0 0 0 0-.1-.1-.3-.4-.5-.7-.7-.8 2.7-1.3 4.7-2.8 6.2-4.2-1.8-2.2-3-5.3-3.7-9.4zm9.2 0h-7.1c.6 3.8 1.7 6.7 3.4 8.7 1.7-2 2.9-4.8 3.7-8.7z" fill="#fafbfa"/><path d="m31.6 3.6h.9v2.3h4.1v9.1h1.7v.9h-16.6v-.9h1.7v-9.1h4.1v-2.3h.9v2.3h3.1v-2.3zm-4 13.3.6.8c-1.9.9-3.8 1.9-5.8 2.8-.2-.3-.3-.6-.5-.9 2-.9 3.9-1.8 5.7-2.7zm-3.2-10.1v3.7h3.1v-3.7zm0 4.5v3.7h3.1v-3.7zm4.1-4.5v3.7h3.1v-3.7zm0 4.5v3.7h3.1v-3.7zm9.1 9.1c-2.1-1.1-4.1-2-5.8-2.7l.5-.8c2.2.9 4.1 1.8 5.8 2.6zm-1.9-13.6h-3.1v3.7h3.1zm-3.2 4.5v3.7h3.1v-3.7z" fill="#fafbfa"/></svg>