<svg enable-background="new 0 0 400 400" viewBox="0 0 400 400" xmlns="http://www.w3.org/2000/svg"><g fill="#010100"><path d="m283.26 312.81c-22.61 26.09-50.56 43.92-81.44 57.96-.86-.95-1.55-1.61-2.1-2.37-.58-.79-1.04-1.68-1.84-3.01 28.18-17.88 55.43-36.85 75.91-64.33-24.34-31.6-33.59-69.27-40.85-107.75-2.45 0-4.38 0-6.87 0-.3 4.88-.76 9.64-.87 14.41-.68 30.49-3.13 60.75-12.05 90.11-8.21 27.01-23.69 49.26-45.06 67.53-2.89 2.47-5.84 4.88-9.06 7.57-1.37-1.56-2.52-2.88-3.94-4.49 2.77-3.16 5.31-6.19 7.99-9.08 22.16-23.85 33.76-52.52 38.84-84.26 3.93-24.51 6.18-49.11 6.14-73.96-.07-34.14.4-68.27.47-102.41.02-7.74-.63-15.49-1.01-24.19 6.23 4.06 11.57 7.63 17.01 11.03 1.49.93 3.3 1.91 4.97 1.92 13.5.14 26.99.05 40.49.01.47 0 .93-.28 1.41-.44 0-19.29 0-38.51 0-58.3 9.45 2.33 18.97 4.45 28.31 7.16 2.12.61 5.16 3.35 5.08 4.97-.11 2.16-2.45 4.92-4.57 6.1-3.25 1.81-7.12 2.49-10.97 3.73v36.86h20.06c8.33 0 16.67-.2 24.99.09 4.17.14 7.33-.75 9.81-4.33 1.68-2.43 4.02-4.4 6.47-7 6.79 4.96 13.59 9.67 20.02 14.84 1.5 1.21 2.79 4.27 2.3 5.93-.48 1.66-3.27 3.67-5.12 3.74-7.72.3-11.82 4.76-15.99 10.7-8 11.39-16.97 22.11-25.92 33.59-2.34-1.99-3.79-3.23-5.43-4.63 8.18-13.79 15.83-27.53 19.75-43.27-17.08 0-33.72 0-50.79 0v86.32c9.99 0 20.11.08 30.22-.11 1.19-.02 2.56-1.36 3.48-2.41 3.16-3.62 6.15-7.37 9.37-11.28 6.49 5.11 12.96 9.82 18.99 15.04 5.9 5.11 5.4 10.03-2.07 12.03-11.24 3.01-14.71 10.55-17.78 20.73-8.35 27.74-19.59 54.39-35.26 78.96-.7 1.09-1.25 2.28-1.92 3.49 19.25 18.35 41.24 31.63 66.27 39.89 3.15 1.04 6.23 2.36 9.43 3.16 3.8.94 4.72 3.07 3.48 6.52-16.71 3.74-16.71 3.74-23.01 13.8-25.77-12.16-47.77-29.49-67.34-50.57zm36.66-119.5c-26.43 0-52.3 0-78.58 0 8.22 34.09 19.01 66.61 42.39 94.42 17.24-29.72 27.46-61.57 36.19-94.42zm-93.49-96.07v86.02h45.14c0-28.83 0-57.34 0-86.02-15.13 0-29.9 0-45.14 0z"/><path d="m97.83 266.61c-15.36 0-29.98-.01-44.61.02-1.82 0-3.64.34-5.46.37-14.33.24-14.33.23-19.11-12.99 22.67 1.09 45.64 2.2 68.88 3.31 0-21.12 0-40.85 0-60.76-11.4 0-22.51-.07-33.62.03-6.32.06-12.63.48-18.94.53-1.03.01-2.59-.85-3.01-1.73-1.98-4.17-3.64-8.48-5.8-13.66 3.76.82 6.57 1.73 9.45 2.02 8.75.86 17.53 1.97 26.3 2.09 21.49.3 42.99.19 64.48-.03 2.47-.03 5.52-1.27 7.28-2.99 4.62-4.5 8.69-9.58 13.19-14.68 9.18 7.29 17.08 13.35 24.65 19.8 1.25 1.07 1.92 4.25 1.26 5.72-.62 1.35-3.39 2.4-5.23 2.42-18.83.17-37.65.11-56.48.11-1.8 0-3.6 0-5.72 0v60.42c7.7 0 15.51-.47 23.23.13 8.52.66 15.59-.88 20.84-8.29 2.78-3.92 6.25-7.35 9.68-11.31 7.77 6.38 14.4 11.83 21.03 17.29 1.03.85 2.36 1.52 3 2.6 1.22 2.09 2.04 4.41 3.02 6.64-1.95.81-3.9 2.3-5.86 2.31-22.99.16-45.98.1-68.98.11-1.82 0-3.64 0-6.28 0v4.94c0 21.66-.09 43.32.05 64.98.05 8.14.86 16.28.96 24.42.11 8.54-8.28 13.54-15.72 9.19-1.54-.9-2.36-4.2-2.37-6.4-.15-29.66-.1-59.31-.1-88.97-.01-2.49-.01-4.96-.01-7.64z"/><path d="m105.95 29.08c9.1 2.27 18.36 4.28 27.39 7.03 2.57.78 4.48 3.74 6.7 5.7-2.36 2.35-4.39 5.23-7.16 6.89-2.73 1.63-7.71 1.11-8.97 3.19-1.65 2.72-.71 7.07-.71 10.72-.03 24-.02 48-.02 72v5.66h40.42c0-26.11 0-52 0-78.64 9.65 2.42 19.29 4.62 28.76 7.39 2.17.64 5.4 3.5 5.21 4.95-.3 2.27-2.96 4.35-4.91 6.21-.86.82-2.42.95-3.69 1.3-7.78 2.15-7.78 2.14-7.79 10.48-.01 18.33.05 36.67-.05 55-.05 8.21-2.92 10.55-11.07 10.27-4.63-.16-5.65-3.26-6.54-7.05-1.87 0-3.69 0-5.51 0-28.67 0-57.33-.08-86 .08-4.76.03-9.57.78-14.26 1.69-7.51 1.46-11.14-1.19-11.14-8.73-.02-20.17-.01-40.33-.01-60.5 0-7.78 0-15.55 0-24 9.44 2.48 19.36 4.93 29.15 7.79 1.72.5 4.09 2.76 4.09 4.21 0 1.87-1.65 4.53-3.35 5.45-3.73 2-7.94 3.12-12.23 4.7v59.42h41.7c-.01-36.93-.01-73.79-.01-111.21z"/></g><path d="m6.4 11.7c-1-.8-1.9-1.6-2.9-2.3l.6-.7c.9.7 1.9 1.4 2.9 2.2zm-2.1 8.3c.7-2.1 1.4-4.2 2-6.4.2.1.6.3 1 .4-.7 2.3-1.3 4.4-1.9 6.4zm3-12.8c-1.1-.9-2.1-1.7-2.9-2.4l.6-.7c1 .8 2 1.5 3 2.4zm1.4-1.3v-.9h10.2v.9c-.9 4.2-2.3 7.3-4.1 9.4 1.3 1.4 3.2 2.7 5.7 4-.2.2-.4.5-.7.9-2.5-1.4-4.4-2.7-5.7-4.2-1.4 1.5-3.5 3-6.1 4.4 0 0 0 0-.1-.1-.3-.4-.5-.7-.7-.8 2.7-1.3 4.7-2.8 6.2-4.2-1.8-2.2-3-5.3-3.7-9.4zm9.2 0h-7.1c.6 3.8 1.7 6.7 3.4 8.7 1.7-2 2.9-4.8 3.7-8.7z" fill="#fafbfa"/><path d="m31.6 3.6h.9v2.3h4.1v9.1h1.7v.9h-16.6v-.9h1.7v-9.1h4.1v-2.3h.9v2.3h3.1v-2.3zm-4 13.3.6.8c-1.9.9-3.8 1.9-5.8 2.8-.2-.3-.3-.6-.5-.9 2-.9 3.9-1.8 5.7-2.7zm-3.2-10.1v3.7h3.1v-3.7zm0 4.5v3.7h3.1v-3.7zm4.1-4.5v3.7h3.1v-3.7zm0 4.5v3.7h3.1v-3.7zm9.1 9.1c-2.1-1.1-4.1-2-5.8-2.7l.5-.8c2.2.9 4.1 1.8 5.8 2.6zm-1.9-13.6h-3.1v3.7h3.1zm-3.2 4.5v3.7h3.1v-3.7z" fill="#fafbfa"/></svg>