<svg enable-background="new 0 0 400 400" viewBox="0 0 400 400" xmlns="http://www.w3.org/2000/svg"><path d="m361.2 9.6.8-1c.9.7 1.9 1.4 2.9 2.3l-.9 1.1c-1-1-2-1.8-2.8-2.4zm.5 10.6c.9-2.1 1.6-4.3 2.3-6.7.4.2.8.4 1.3.6-.7 2.1-1.5 4.3-2.2 6.6zm.4-15.2.9-.9c1 .8 2 1.6 2.8 2.4l-1 1c-.9-.9-1.8-1.7-2.7-2.5zm12.5-1.2h1.2v1.4h2.7v1.1h-2.7v2.7h-1.2v-.6h-1.8v1.3h4.9v3.8h-1.2v-.5h-3.7c0 .4-.1.9-.1 1.2h5.1v1h-5.2c0 .5-.1.9-.2 1.2h6v1h-5.2c1.1 1.3 2.9 2 5.5 2.2-.4.4-.7.8-.9 1.3-2.9-.5-4.8-1.6-5.7-3.5h-.1c-.8 1.7-2.7 2.9-5.9 3.6-.2-.4-.6-.8-.9-1.1 2.8-.6 4.6-1.4 5.4-2.5h-4.8v-1h5.3c.1-.3.2-.7.2-1.2h-4.9v-1h5c0-.4 0-.8.1-1.3h-3.5v.5h-1.2v-3.7h4.9v-1.3h-1.8v.5h-1.2v-2.7h-2.7v-1h2.6v-1.4h1.2v1.4h4.7v-1.4zm-6.6 8.3h3.6c0-.4 0-.9 0-1.4h-3.6zm1.9-4.6h4.7v-1.3h-4.7zm6.6 3.2h-3.7v1.4h3.7z" fill="#fbfafc"/><path d="m385.3 3.8h1.3v2.2h2.8v-2.2h1.3v2.2h4.1v9.1h1.7v1.3h-16.9v-1.3h1.7v-9.1h4.1v-2.2zm.4 13.1.7 1.2c-1.8.9-3.8 1.9-6 2.9-.2-.4-.5-.8-.8-1.3 2.3-1 4.3-1.9 6.1-2.8zm-3.1-6.4h2.8v-3.2h-2.8zm0 4.6h2.8v-3.3h-2.8zm4-4.6h2.8v-3.2h-2.8zm0 4.6h2.8v-3.3h-2.8zm3.7 1.9c2.1.9 4.1 1.8 6.1 2.7l-.7 1.3c-2.2-1.1-4.2-2-6.1-2.9zm3.2-9.7h-2.8v3.2h2.8v-3.1zm-2.8 7.8h2.8v-3.3h-2.8z" fill="#fbfafc"/><g fill="#010000"><path d="m216.27 54.74c1.6 10.12 3.14 19.89 4.72 29.97 17.82-2.22 34.93-4.35 52.04-6.48 1.15-.14 2.32-.28 3.47-.3 7.99-.08 14.82-2.08 19.17-9.72 2.02-3.55 5.18-6.46 8.18-10.08 8.61 5.17 17.21 10.13 25.53 15.54 1.33.87 2.01 3.78 1.8 5.61-.13 1.09-2.5 2.54-4 2.75-21.07 2.81-42.16 5.43-63.24 8.11-13.33 1.7-26.65 3.44-40.91 5.28 2.07 7.24 4.04 14.12 6.09 21.26 12.34-1.45 24.17-2.82 36-4.23 6.76-.81 13.54-1.49 20.24-2.63 2.02-.34 4.28-1.63 5.61-3.18 4.32-5.04 8.27-10.41 12.71-16.11 8.67 5.37 17.33 10.54 25.7 16.13 1.34.9 2.01 3.81 1.79 5.64-.13 1.11-2.48 2.61-3.99 2.81-15.31 2.12-30.64 4.02-45.97 5.96-15.64 1.97-31.29 3.92-48.13 6.02 3.65 7.96 6.86 15.32 10.5 22.46.5.99 3.22 1.39 4.81 1.2 14.18-1.66 28.34-3.5 42.51-5.32 5.93-.76 11.89-1.42 17.75-2.54 2.04-.39 4.32-1.61 5.65-3.16 4.33-5.04 8.27-10.4 12.68-16.04 8.75 5.36 17.44 10.48 25.85 16.03 1.37.9 2.12 3.76 1.95 5.6-.1 1.06-2.51 2.53-4.04 2.75-16.59 2.42-33.21 4.69-49.84 6.88-16.46 2.17-32.94 4.21-49.79 6.35.3 1.05.33 2.08.83 2.76 5.58 7.66 11.25 15.25 16.84 22.9 2.21 3.02 4.49 3.65 7.92 1.57 15.76-9.52 31.65-18.83 48-28.52 4.95 4.03 11.17 8.8 17 14 1.56 1.39 3.26 5 2.58 6-1.19 1.74-4.45 3.48-6.39 3.07-8.63-1.82-15.72 1.21-23.03 5.18-8.97 4.87-18.39 8.9-28.3 13.62 13.77 9.16 27.56 16.54 43.73 18.01 6.83.62 9.49-1.05 11.71-7.57 4.55-13.35 8.63-26.87 12.91-40.31.35-1.1.77-2.17 1.3-3.63 1.9.62 3.69 1.2 5.47 1.77-1.93 12.09-3.56 23.91-5.76 35.62-1.52 8.1 1.31 14.67 5.79 20.92 7.18 10.04 5.8 13.51-6.35 14.61-23.05 2.08-43.99-4.76-63.67-16.02-7.06-4.04-13.87-8.61-20.31-13.57-3.12-2.41-5.52-2.42-9-1.42-24.1 6.87-48.06 14.41-72.47 19.93-18.88 4.28-38.36 5.96-57.57 8.77-.62.09-1.28-.08-2.14-.15-.39-2.17-.76-4.24-1.19-6.6 42.95-7.97 85.41-17.13 126.63-33.98-2.02-2.38-3.95-4.33-5.49-6.55-5.68-8.19-11.14-16.54-16.94-24.65-.99-1.38-3.37-2.83-4.87-2.62-27.62 3.88-55.2 8.01-82.79 12.05-1.03.15-2.57.22-3.12-.38-3.32-3.61-6.42-7.42-9.64-11.22 31.33-3.71 62.08-7.34 93.74-11.09-3.81-8.48-7.36-16.37-11.24-25.01-21.77 3.4-43.41 6.71-65.01 10.23-3.75.61-6.52.33-8.76-3.17-1.85-2.89-4.36-5.36-6.77-8.26 25.92-2.89 51.39-5.72 77.18-8.6-1.89-7.31-3.63-14.01-5.52-21.33-8.07.9-16.29 1.57-24.42 2.77-11.15 1.65-22.23 3.85-33.39 5.46-1.82.26-4.37-.74-5.76-2.04-2.87-2.68-5.2-5.95-8.1-9.4 23.38-2.6 46.18-5.14 69.32-7.71-3.22-17.87-6.31-35.08-9.52-52.89 10.25 1.38 19.58 2.64 28.91 3.91.82.11 1.82.03 2.42.48 2.05 1.5 5.29 3.02 5.55 4.88.26 1.85-2.12 4.74-4.08 6.08-3.39 2.3-7.33 3.73-11.07 5.54z"/><path d="m23.81 343.12c16.64 1.07 32.49 2.08 49.13 3.15 0-17.56.14-33.97-.04-50.38-.18-16.44-.66-32.87-1.02-49.66 4.47 3.12 9.44 6.25 14.02 9.89 3.74 2.97 7.63 3.97 12.37 3.96 67.13-.13 134.27-.13 201.4.02 4.29.01 7.19-1.16 9.7-4.51 2.38-3.18 5.22-6.02 8.19-9.38 6.71 4.54 13.46 8.74 19.81 13.5 4.92 3.69 4.58 6.4-.45 10.03-.81.58-1.62 1.3-2.54 1.57-7.67 2.19-8.68 7.56-8.48 14.76.51 17.98.17 35.98.17 53.97v4.95c.43.34.86.67 1.29 1.01 6.71-6.8 13.41-13.6 20.58-20.87 7.09 5.76 14.14 11.48 21.17 17.21 1.8 1.47 3.96 2.74 5.21 4.6 1.09 1.61 1.87 4.15 1.36 5.87-.36 1.22-2.99 2.04-4.75 2.51-1.56.41-3.31.1-4.97.1-102.45 0-204.9-.03-307.35.07-7.62.01-15.26.76-22.85 1.51-3.92.38-6.66-.1-7.9-4.47-.91-3.16-2.58-6.07-4.05-9.41zm285.45 2.1c0-25.12 0-49.83 0-74.59-21.16 0-41.99 0-62.87 0v74.59zm-80.52.07c0-25.1 0-49.83 0-74.76-20.77 0-41.29 0-62 0v74.76zm-79.51-74.84c-19.77 0-39.18 0-58.88 0v74.76h58.88c0-25.12 0-49.85 0-74.76z"/><path d="m31.52 208.69c30.34-17.9 54.78-42.3 79.53-66.98 1.74 1.4 3.36 2.71 5.59 4.51-6.37 8.06-12.39 16.13-18.87 23.8-12.66 14.98-25.67 29.66-38.25 44.69-1.66 1.99-2.06 5.32-2.36 8.11-.44 4.05.89 9.33-3.74 10.97-4.67 1.66-6.61-3.53-8.88-6.52-4.5-5.92-8.57-12.17-13.02-18.58z"/><path d="m34.2 99.55c.7-2.36 1.3-4.39 2.16-7.29 13.79 3.22 27.36 6.13 40.77 9.67 4.21 1.11 8.24 3.51 11.87 6.01 5.14 3.55 6.77 9.62 4.98 15.53-1.34 4.43-5.98 6.43-11.01 4.26-2.69-1.16-5.31-2.89-7.4-4.95-10.42-10.28-23.07-16.64-36.67-21.43-1.4-.49-2.77-1.06-4.7-1.8z"/><path d="m111.45 59.07c-1.99 2.64-3.46 6.28-6.1 7.57-2.18 1.07-5.85-.28-8.61-1.26-1.92-.68-3.62-2.37-5.08-3.92-9.57-10.13-21.34-16.79-34.2-21.67-2.8-1.06-4.16-2.38-3.32-5.44.94-3.41 3.19-2.49 5.51-1.86 11.65 3.15 23.48 5.75 34.91 9.58 4.93 1.65 9.3 5.46 13.37 8.93 1.74 1.51 2.1 4.65 3.52 8.07z"/><path d="m237.19 39.25c1.23-2.49 2.17-4.38 3.62-7.31 10.35 4.82 20.7 9.15 30.56 14.42 5.38 2.87 9.46 7.91 8.59 14.59-.37 2.86-2.45 6.58-4.82 7.75-1.98.98-5.61-.95-8.32-2.05-1.25-.51-2.29-1.97-3.03-3.23-6.22-10.66-15.27-18.24-26.6-24.17z"/></g></svg>