<svg enable-background="new 0 0 400 400" viewBox="0 0 400 400" xmlns="http://www.w3.org/2000/svg"><path d="m361.2 9.6.8-1c.9.7 1.9 1.4 2.9 2.3l-.9 1.1c-1-1-2-1.8-2.8-2.4zm.5 10.6c.9-2.1 1.6-4.3 2.3-6.7.4.2.8.4 1.3.6-.7 2.1-1.5 4.3-2.2 6.6zm.4-15.2.9-.9c1 .8 2 1.6 2.8 2.4l-1 1c-.9-.9-1.8-1.7-2.7-2.5zm12.5-1.2h1.2v1.4h2.7v1.1h-2.7v2.7h-1.2v-.6h-1.8v1.3h4.9v3.8h-1.2v-.5h-3.7c0 .4-.1.9-.1 1.2h5.1v1h-5.2c0 .5-.1.9-.2 1.2h6v1h-5.2c1.1 1.3 2.9 2 5.5 2.2-.4.4-.7.8-.9 1.3-2.9-.5-4.8-1.6-5.7-3.5h-.1c-.8 1.7-2.7 2.9-5.9 3.6-.2-.4-.6-.8-.9-1.1 2.8-.6 4.6-1.4 5.4-2.5h-4.8v-1h5.3c.1-.3.2-.7.2-1.2h-4.9v-1h5c0-.4 0-.8.1-1.3h-3.5v.5h-1.2v-3.7h4.9v-1.3h-1.8v.5h-1.2v-2.7h-2.7v-1h2.6v-1.4h1.2v1.4h4.7v-1.4zm-6.6 8.3h3.6c0-.4 0-.9 0-1.4h-3.6zm1.9-4.6h4.7v-1.3h-4.7zm6.6 3.2h-3.7v1.4h3.7z" fill="#fbfafc"/><path d="m385.3 3.8h1.3v2.2h2.8v-2.2h1.3v2.2h4.1v9.1h1.7v1.3h-16.9v-1.3h1.7v-9.1h4.1v-2.2zm.4 13.1.7 1.2c-1.8.9-3.8 1.9-6 2.9-.2-.4-.5-.8-.8-1.3 2.3-1 4.3-1.9 6.1-2.8zm-3.1-6.4h2.8v-3.2h-2.8zm0 4.6h2.8v-3.3h-2.8zm4-4.6h2.8v-3.2h-2.8zm0 4.6h2.8v-3.3h-2.8zm3.7 1.9c2.1.9 4.1 1.8 6.1 2.7l-.7 1.3c-2.2-1.1-4.2-2-6.1-2.9zm3.2-9.7h-2.8v3.2h2.8v-3.1zm-2.8 7.8h2.8v-3.3h-2.8z" fill="#fbfafc"/><g fill="#010000"><path d="m32.94 53.16c6 4.45 11.02 8.52 16.4 12.02 2.32 1.51 5.38 2.57 8.12 2.63 13.32.27 26.65-.02 39.97.21 3.69.07 6.25-.93 8.5-3.83 2.54-3.27 5.49-6.23 9.05-10.2 7.22 5.22 14.49 10.3 21.54 15.67 2.54 1.93 1.99 4.61-.45 6.3-3.27 2.26-6.72 4.31-10.31 6-2.45 1.16-3.42 2.5-3.42 5.26.07 68.13-.04 136.26.14 204.39.04 14.12 1.08 28.23 1.69 42.35.22 5.04-1.94 8.15-6.92 9.49-7.24 1.94-11.3-.98-11.42-8.51-.06-3.65-.01-7.29-.01-11.36-18.22 0-36.1 0-54.76 0 0 3.18.04 6.43-.01 9.69-.09 6.64-3.32 9.88-9.77 9.88-5.94 0-8.41-2.8-8.34-9.77.61-62.92 1.3-125.84 1.85-188.76.19-21.82.19-43.64-.05-65.46-.09-8.27-1.11-16.52-1.8-26zm18.5 187.15v72.31h54.07c0-24.27 0-48.17 0-72.31-18.07 0-35.84 0-54.07 0zm.01-82.56v71.85h54.06c0-24.14 0-47.88 0-71.85-18.23 0-36.14 0-54.06 0zm-.15-10.26h54.2c0-23.21 0-46.08 0-69.12-18.21 0-36.09 0-54.2 0z"/><path d="m160.11 161.91c27.11-25.95 45.35-56.67 59.16-90.98-1.66-.22-2.75-.52-3.83-.49-19.62.47-39.24 1.02-58.86 1.4-1.16.02-2.91-.9-3.42-1.88-2.04-3.96-3.7-8.11-5.85-12.98 5.53.75 10.32 1.61 15.14 2.01 9.11.75 18.23 1.71 27.36 1.75 41.82.18 83.64.14 125.46-.06 2.61-.01 5.65-1.47 7.73-3.17 5.38-4.4 10.35-9.32 15.98-14.5 6.83 6.12 14.45 12.76 21.77 19.71 1.13 1.07 1.59 3.79 1.08 5.32-.38 1.14-2.78 2.14-4.35 2.25-4.48.3-8.99.1-13.49.12-31.47.19-62.94.45-94.42.49-3.35 0-5 1.3-6.71 3.88-16.11 24.29-32.77 48.17-52.73 69.54-4.28 4.58-8.62 9.1-13.89 14.68 46.69-1.65 91.87-5.77 136.99-10.7.34-.44.69-.88 1.03-1.33-9.34-9.5-18.68-18.99-28.5-28.97.73-1.14 1.82-2.85 3.16-4.95 20.06 12.22 39.76 24 53.73 42.96 4.21 5.71 6.91 12.1 6.43 19.48-.37 5.63-2.95 9.07-7.81 10.23-4.05.96-8.68-1.23-11.05-5.9-2.09-4.13-3.58-8.57-5.32-12.87-4.73-11.71-4.73-11.74-16.88-9.86-29.85 4.6-59.69 9.28-89.55 13.8-10.5 1.59-21.04 2.95-31.61 4.05-3.07.32-4.04 1.46-4.98 4.25-1.08 3.19-2.86 7.9-5.22 8.51-4.56 1.18-5.61-4.17-7.33-7.37-3.29-6.14-6.26-12.46-9.22-18.42z"/><path d="m294.77 203.78c10.99 3.13 21.23 5.6 31.13 9.05 4.91 1.71 4.75 6.23.02 8.91-3 1.7-6.54 2.42-9.59 4.04-1.39.74-3.11 2.59-3.12 3.94-.17 35.13-.17 70.26-.08 105.39.01 5.9 2.72 9.08 8.66 10.57 9.76 2.45 19.41 1.64 28.98-1.35 8.27-2.58 11.57-1.56 15.62 4.29 4.1 5.92 2.65 10.68-4.32 12.26-5.46 1.24-11.18 2.17-16.73 1.96-11.25-.44-22.55-1.19-33.67-2.87-9.83-1.48-14.56-7.23-14.78-17.14-.53-23.11-.66-46.24-.85-69.36-.15-18.31-.08-36.63-.23-54.94-.06-4.42-.62-8.85-1.04-14.75z"/><path d="m127.62 368.43c-1.26-2.34-2.2-4.06-2.94-5.43 8.32-7.41 16.64-14.33 24.4-21.83 18.98-18.36 29.36-40.92 30.8-67.26 1.07-19.59 1.4-39.23 1.88-58.85.1-4.25-.58-8.52-.97-13.7 10.16 2.61 19.65 4.81 28.97 7.6 2.15.64 5.29 3.41 5.16 4.97-.18 2.17-2.9 4.22-4.76 6.1-.75.75-2.09.93-3.18 1.32-7.98 2.86-8.01 2.86-7.98 11.66.06 19.14-.44 38.25-4.21 57.1-5.69 28.48-22.59 49.13-45.92 65.14-6.8 4.66-14.02 8.72-21.25 13.18z"/><path d="m238.64 204.63c10.69 2.93 20.32 5.35 29.77 8.34 1.91.6 4.16 3.21 4.39 5.11.18 1.48-2.44 3.42-4.04 4.93-.8.76-2.06 1.05-3.14 1.48-8.63 3.45-8.64 3.44-8.63 12.62.05 28.33-.08 56.67.26 85 .12 10.12 1.54 20.23 2.09 30.36.5 9.28-7.09 13.9-15.65 9.82-3.45-1.65-3.9-4.55-3.9-7.9.04-23.5.05-47 .01-70.5-.04-22-.11-43.99-.26-65.99-.01-3.96-.51-7.9-.9-13.27z"/></g></svg>