<svg enable-background="new 0 0 400 400" viewBox="0 0 400 400" xmlns="http://www.w3.org/2000/svg"><path d="m377.9 391.2c-.2.3-.4.5-.6.8-.7-.6-1.4-1-2.2-1.5.2-.3.4-.5.5-.8.6.4 1.4.8 2.3 1.5zm-1.8 6.1c-.2-.2-.5-.4-.9-.6.4-.6.8-1.2 1.2-1.9s.7-1.3.9-1.9c.3.3.5.5.8.7-.7 1.3-1.4 2.6-2 3.7zm2.2-9c-.3.3-.5.5-.6.8-.6-.6-1.3-1.1-2-1.5.3-.3.5-.5.6-.7.6.5 1.3.9 2 1.4zm.3.2v-.9h2 4.5c-.3 1.3-.6 2.5-1 3.6s-.9 2.1-1.4 3c.4.5 1 1 1.6 1.4s1.2.8 1.9 1.1c-.3.2-.5.4-.8.8-.4-.3-1-.7-1.6-1.2s-1.2-1.1-1.6-1.6c-.5.6-1.1 1.1-1.7 1.6s-1.4.9-2.1 1.4c-.1-.3-.3-.5-.7-.8.6-.2 1.2-.5 1.9-1s1.4-1.1 2-1.8c-.5-.8-.9-1.6-1.2-2.5s-.6-2-.8-3.2c-.4.1-.7.1-1 .1zm2.5 2.7c.3 1 .7 1.7 1 2.2.3-.5.6-1.1 1-2s.6-1.9.9-3h-3.2-.4c.1.9.3 1.8.7 2.8z" fill="#fbfcfa"/><path d="m396.5 388.5v1.5 3.6h1.5v.9c-.4 0-1 0-1.7 0h-7.9c-.5 0-.9 0-1.2 0v-.9h1.3v-3.5c0-.7 0-1.2 0-1.6h2.4c0-.8 0-1.4 0-1.7h1c0 .3-.1.8-.1 1.7h1.5c0-.8 0-1.4 0-1.7h1c0 .3-.1.9-.1 1.7zm-8.2 9.2c-.2-.3-.5-.5-.8-.8.8-.3 1.4-.6 1.9-.9s1-.7 1.4-1.1c.3.3.6.5.9.8-1.6 1-2.8 1.6-3.4 2zm2.6-6.8v-1.6h-1.5v1.6zm0 2.7v-1.9h-1.5v1.9zm2.4-2.7v-1.6h-1.5v1.6zm0 2.7v-1.9h-1.5v1.9zm.2 2 .7-.8c.4.2.9.5 1.6.8s1.3.7 1.8 1c-.3.3-.5.5-.8.8-.4-.3-1.5-1-3.3-1.8zm2-4.7v-1.6h-1.4v1.6zm0 2.7v-1.9h-1.4v1.9z" fill="#fbfcfa"/><g fill="#010100"><path d="m101.83 313.2c-17.15 0-33.46 0-50.36 0-.12 2.31-.18 4.56-.37 6.81-.47 5.68-3.79 8.28-10.34 8.17-5.42-.09-8.22-2.7-8.06-8.44.44-15.46 1.16-30.9 1.76-46.36.07-1.83.12-3.66.12-5.49.01-50.64.11-101.28-.05-151.91-.06-19.23-.72-38.46-1.1-57.67 4.96 3.56 10.56 7.87 16.48 11.69 2.34 1.51 5.38 2.65 8.13 2.71 12.49.28 24.98 0 37.47.21 3.21.05 5.29-.96 7.08-3.5 2.49-3.52 5.26-6.85 8.41-10.92 7.09 5.03 14.16 9.84 20.98 14.98 3.32 2.5 2.73 5.49-.5 7.79-2.15 1.54-4.38 3.2-6.84 4.03-5.32 1.78-6.41 5.16-6.38 10.54.23 52.47-.04 104.94.22 157.41.11 21.95 1.16 43.89 1.76 65.84.19 6.73-1.73 9.19-8.05 10.44-6.44 1.27-10.22-1.79-10.37-8.45-.04-2.48.01-4.94.01-7.88zm-.22-10.42c0-24.17 0-47.91 0-71.89-16.87 0-33.52 0-50.13 0v71.89zm-50-147.59v65.44h49.78c0-21.98 0-43.65 0-65.44-16.74 0-33.04 0-49.78 0zm49.96-72.45c-16.79 0-33.33 0-50.05 0v61.89h50.05c0-20.76 0-41.15 0-61.89z"/><path d="m289.71 212.3c-9.05 60.99-30.77 115.27-78.19 157.11-2.01-1.67-3.78-3.15-5.68-4.73 17.99-19.81 32.45-41.61 43.34-65.76 10.89-24.13 16.96-49.55 20.75-75.61 7.07-48.58 7.63-97.45 6.62-146.39-.29-14.13-1.02-28.25-1.54-42.37-.05-1.46-.01-2.92-.01-5.28 9.73 2.42 18.93 4.43 27.9 7.16 2.19.67 5.22 3.89 5.05 5.67-.21 2.24-3.09 5.71-5.21 6.02-8.73 1.27-9.04 6.69-8.88 13.73.4 17.32.23 34.65.1 51.98-.11 13.98-.9 27.96-.67 41.92.21 12.75 1.37 25.49 2.11 38.23.45.11.91.22 1.36.34.9-1.05 1.9-2.04 2.69-3.17 15.93-22.58 26.77-47.39 32.26-74.46.79-3.88 2.03-4.13 5.27-2.96 6.08 2.2 12.39 3.79 18.38 6.2 1.92.77 4.1 3.22 4.33 5.12.16 1.34-2.57 4.12-4.33 4.43-7.47 1.31-10.58 6.21-13.63 12.6-10.7 22.37-24.87 42.42-42.37 60.09-1.24 1.25-1.46 4.28-1.07 6.28 4.56 23.33 10.45 46.31 19.11 68.49 8.26 21.14 17.83 41.62 32.95 58.88 5.13 5.85 11.27 10.81 16.75 16.36 1.56 1.59 2.44 3.86 3.8 6.1-5.06 1.09-8.91 1.48-12.4 2.79-3.5 1.31-6.66 3.54-10.98 5.92-4.57-6.63-9.79-13.61-14.39-20.99-16.01-25.69-25.44-53.98-32.2-83.25-3.58-15.5-6.75-31.11-10.13-46.66-.26-1.28-.72-2.53-1.09-3.79z"/><path d="m126.94 268.58c28.24-29.54 47.76-63.69 60.66-101.61 1.71-5.03.3-11.45-.75-17.01-2.09-11.01-4.95-21.87-7.52-32.95-15.27 12.78-29.89 25.02-44.92 37.6-1.94-2.03-3.16-3.31-4.01-4.21 7.34-7.71 14.52-15.01 21.42-22.57 6.05-6.64 11.67-13.67 17.72-20.32 3.29-3.62 3.98-6.89 1.73-11.54-8.08-16.73-15.75-33.66-23.86-51.14.93-.66 2.62-1.87 5.27-3.77 9.72 16.58 19.24 32.81 28.98 49.41 11.77-17.54 19.64-36.92 26.69-57.13 8.32 4.48 16.32 8.53 24.01 13.1 1.77 1.05 3.5 3.91 3.37 5.8-.09 1.34-3.46 3.61-5.2 3.47-7.54-.62-10.54 4.18-14.06 9.55-8.46 12.94-17.41 25.56-26.43 38.12-1.65 2.3-1.63 3.92-.68 6.25 6.44 15.71 11.75 31.77 14.15 48.63 1.45 10.19 2.98 20.43 3.39 30.69 1.33 33.07 2.74 66.17 2.95 99.26.12 18.42-2.55 36.76-9.96 54.01-6.69 15.57-18.73 24.02-35.57 26.84-1.02-17.62-17.03-18.62-28.3-25.35.19-.93.39-1.87.59-2.8.2-.95.41-1.89.66-3.05 9.05 2.4 17.83 4.76 26.62 7.06 7.83 2.04 13.89.26 17.1-7.09 3.54-8.1 6.98-16.83 7.63-25.49 2.04-27.33 2.85-54.76 3.93-82.16.35-8.92.06-17.86-.79-27.02-16.82 26.63-35.37 51.26-60.83 70.12-.65-.56-1.22-.92-1.6-1.41-.83-1.01-1.56-2.11-2.39-3.29z"/><path d="m226.71 111.85c8.64 14.15 17.67 28.22 25.94 42.73 6.34 11.12 11.19 22.96 11.91 36.05.3 5.46-.65 10.57-4.26 14.85-3.92 4.66-10.11 3.96-12.38-1.7-1.52-3.79-2.74-8-2.78-12.03-.2-22.31-7.8-42.55-16.8-62.44-1.5-3.32-2.92-6.73-4.88-9.78-2.19-3.41-1.26-5.44 3.25-7.68z"/></g></svg>