<svg enable-background="new 0 0 400 400" viewBox="0 0 400 400" xmlns="http://www.w3.org/2000/svg"><path d="m361.2 9.6.8-1c.9.7 1.9 1.4 2.9 2.3l-.9 1.1c-1-1-2-1.8-2.8-2.4zm.5 10.6c.9-2.1 1.6-4.3 2.3-6.7.4.2.8.4 1.3.6-.7 2.1-1.5 4.3-2.2 6.6zm.4-15.2.9-.9c1 .8 2 1.6 2.8 2.4l-1 1c-.9-.9-1.8-1.7-2.7-2.5zm12.5-1.2h1.2v1.4h2.7v1.1h-2.7v2.7h-1.2v-.6h-1.8v1.3h4.9v3.8h-1.2v-.5h-3.7c0 .4-.1.9-.1 1.2h5.1v1h-5.2c0 .5-.1.9-.2 1.2h6v1h-5.2c1.1 1.3 2.9 2 5.5 2.2-.4.4-.7.8-.9 1.3-2.9-.5-4.8-1.6-5.7-3.5h-.1c-.8 1.7-2.7 2.9-5.9 3.6-.2-.4-.6-.8-.9-1.1 2.8-.6 4.6-1.4 5.4-2.5h-4.8v-1h5.3c.1-.3.2-.7.2-1.2h-4.9v-1h5c0-.4 0-.8.1-1.3h-3.5v.5h-1.2v-3.7h4.9v-1.3h-1.8v.5h-1.2v-2.7h-2.7v-1h2.6v-1.4h1.2v1.4h4.7v-1.4zm-6.6 8.3h3.6c0-.4 0-.9 0-1.4h-3.6zm1.9-4.6h4.7v-1.3h-4.7zm6.6 3.2h-3.7v1.4h3.7z" fill="#fbfafc"/><path d="m385.3 3.8h1.3v2.2h2.8v-2.2h1.3v2.2h4.1v9.1h1.7v1.3h-16.9v-1.3h1.7v-9.1h4.1v-2.2zm.4 13.1.7 1.2c-1.8.9-3.8 1.9-6 2.9-.2-.4-.5-.8-.8-1.3 2.3-1 4.3-1.9 6.1-2.8zm-3.1-6.4h2.8v-3.2h-2.8zm0 4.6h2.8v-3.3h-2.8zm4-4.6h2.8v-3.2h-2.8zm0 4.6h2.8v-3.3h-2.8zm3.7 1.9c2.1.9 4.1 1.8 6.1 2.7l-.7 1.3c-2.2-1.1-4.2-2-6.1-2.9zm3.2-9.7h-2.8v3.2h2.8v-3.1zm-2.8 7.8h2.8v-3.3h-2.8z" fill="#fbfafc"/><g fill="#010000"><path d="m238.69 236.16c-1.03-2.29-1.82-4.07-2.32-5.17 9.82-9.16 20.03-17.34 28.53-27.02 7.39-8.41 12.92-18.48 19.04-27.96.77-1.19.81-3.69.06-4.87-4.34-6.84-9.02-13.47-13.53-20.1-9.06 5.3-17.17 10.5-25.69 14.91-8.36 4.33-17.14 7.86-25.54 11.65-3.37-4.18-2.01-6.29 1.61-8.22 17.78-9.5 33.54-21.71 47.15-36.54 5.93-6.46 11.1-13.6 16.56-20.37-.65-.71-.86-1.14-1.06-1.13-17.29.44-34.58.81-51.86 1.5-2.77.11-4.28-.2-5.28-2.95-1.39-3.83-3.22-7.51-4.56-10.56 13.51.56 26.89 1.35 40.28 1.62 20.31.41 40.63.34 60.94.73 4.02.08 6.9-1.11 9.64-3.94 4.28-4.42 8.9-8.5 13.86-13.18 7.53 5.98 15.12 11.82 22.44 17.98 1.23 1.03 2.31 4.07 1.68 5.08-1.03 1.66-3.46 3.29-5.38 3.39-7.31.39-14.66.17-21.99.17-10.17 0-20.33-.06-30.5.06-1.68.02-3.93.32-4.93 1.4-10.35 11.26-20.49 22.72-31.19 34.67 18.65 16.38 31.75 37.04 38.39 62.49 15.6-14.66 28.03-30.47 37.82-49.31 7.22 5.35 14.19 10.32 20.87 15.64 1.29 1.03 2.55 4.04 1.96 5.05-.87 1.48-3.75 3.12-5.18 2.69-7.23-2.16-11.53 1.76-16.43 6.05-10.76 9.4-22.02 18.22-33.52 27.63 6.27 13.99 15.35 26.76 26.16 38.33 7.76 8.3 16.23 15.74 26.39 21.14 1.83.97 2.75 3.67 3.67 6.24-8.42.21-15.61 1.49-19.81 9.79-15.8-15.8-26.77-33.94-34.65-53.32.55 14.32 1.73 29.04 1.51 43.74-.25 16.42-1.29 32.84-5.68 48.88-5.38 19.64-19.44 28.84-38.16 32.7-3.39.7-6.88.97-10.58 1.47-.28-19.57-16.31-20.14-29.56-24.9.38-2.06.79-4.24 1.2-6.44 12.43 2.1 24.51 4 36.54 6.21 10.38 1.91 17.39-.62 20.98-10.44 3.48-9.55 6.37-19.78 6.93-29.85 1.08-19.22.32-38.55.32-57.83 0-.61-.13-1.21-.8-2.3-19.91 30.09-46.57 51.59-79.75 65.24-3.06-4.08-2.94-6.53 1.71-9.16 30.44-17.19 52.37-42.62 69.93-72.41 4.02-6.81 4.93-13.04 2.17-20.24-1.53-3.98-2.52-8.16-4.03-13.15-15.26 20.01-34.64 33.44-56.36 44.91z"/><path d="m77.32 330.17c0 2.5-.02 4.3 0 6.09.1 6.41-2.97 9.17-10.23 9.13-7.53-.03-9.74-1.85-9.18-8.94 3.62-46.06 1.46-92.2 2.08-138.3.02-1.83 0-3.65 0-6.21-9.81 18.18-19.28 35.73-28.97 53.66-2.46-1.27-4-2.07-6.12-3.16 25.76-53.58 40.99-109.94 48.67-169.72-11.64.67-22.23 1.06-32.76 2.03-3.07.28-4.63-.22-5.76-3-1.5-3.69-3.25-7.27-5.04-11.24 8.54.82 16.82 2.1 25.12 2.3 16.32.38 32.65.28 48.98.03 2.43-.04 5.31-1.51 7.16-3.22 4.26-3.93 8.01-8.41 12.19-12.92 7.53 5.82 15.02 11.34 22.13 17.31 1.55 1.3 2.86 4.67 2.23 6.27-.6 1.51-3.9 2.71-6.03 2.74-14.32.23-28.66.3-42.98.02-4.54-.09-6.31.82-7.25 5.84-5.34 28.4-12.62 56.34-22.06 83.68-.16.46-.23.96-.45 1.88 5.37 3.29 10.29 7.26 17.48 6.63 6.12-.54 12.34-.39 18.48-.01 4.14.26 6.87-1.09 9.16-4.45 1.95-2.86 4.41-5.37 7.18-8.68 5.81 4.25 11.76 8.12 17.12 12.68 4.36 3.71 3.93 8.74-1.47 10.76-7.8 2.91-8.2 8.13-8.15 15.1.28 38.15.17 76.3.07 114.46-.01 3.58.34 6.51 3.98 8.14.88.39 1.86 1.08 2.28 1.89 1.18 2.33 2.09 4.8 3.11 7.22-2.13.65-4.26 1.86-6.4 1.87-17.95.19-35.93.12-54.57.12zm.26-148.83v138.24h34.15c0-46.25 0-92.15 0-138.24-11.52 0-22.75 0-34.15 0z"/><path d="m206.83 60.22c-11.97 0-23.76 0-35.95 0-.15 1.24-.34 2.49-.45 3.74-.06.66-.01 1.33-.01 2-.08 83.64-.29 167.28-.11 250.91.03 14.43 1.48 28.88 2.64 43.29.73 9.06-5.19 14.48-13.91 11.7-1.73-.55-3.41-2.97-4.04-4.88-.74-2.28-.39-4.94-.39-7.44-.01-95.3.04-190.61-.08-285.91-.01-11.45-1-22.9-1.52-34.36-.06-1.28-.01-2.56-.01-4.64 5.71 4.52 10.77 8.77 16.11 12.62 1.87 1.35 4.4 2.38 6.66 2.46 8.65.28 17.33.31 25.98-.02 2.13-.08 4.65-1.42 6.19-2.97 3.61-3.64 6.74-7.77 10.54-12.26 5.78 4.81 11.77 9.03 16.8 14.2 5.4 5.55 4.25 10.43-3.11 12.76-5.5 1.74-7.78 5.32-9.94 10-11.9 25.79-23.92 51.51-36.1 77.16-1.41 2.96.19 4.17 1.66 5.94 8.69 10.5 18.04 20.55 25.82 31.69 13.36 19.11 20.85 40.47 19.3 64.13-.49 7.51-2.01 15.23-4.63 22.27-5.37 14.46-17.93 22.74-34.19 23.69.26-14.12-12.6-14.12-21.29-19.2.41-1.83.8-3.57 1.3-5.77 4.88.9 9.53 1.82 14.21 2.61 16.24 2.73 25.65-5.37 26.73-22.06 2.35-36.39-10.62-67.02-34.67-93.46-3.54-3.89-3.99-6.81-2.31-11.65 9.72-28.05 19.01-56.24 28.43-84.38.21-.62.21-1.29.34-2.17z"/><path d="m301.43 92.26c-1.37-1.46-2.49-2.65-4-4.25 13.39-15.84 23.35-33.51 29.91-53.97 8.91 4.57 17.46 8.81 25.83 13.38 1.28.7 2.66 3.19 2.33 4.39-.44 1.59-2.3 3.43-3.93 3.93-2.95.92-6.21 1.39-9.29 1.2-3.79-.23-6.07 1.22-8.31 4.11-9.17 11.9-19.37 22.8-32.54 31.21z"/><path d="m241.48 41.15c.88-1.28 1.81-2.63 2.99-4.33 13.15 8.05 26.66 15.41 34.87 28.99 2.12 3.51 3.26 7.97 3.63 12.1.42 4.72-3.29 8.43-7.57 9.08-4.19.63-8.27-1.96-9.55-6.87-2.53-9.73-5.81-19.05-12.66-26.66-3.67-4.07-7.55-7.94-11.71-12.31z"/></g></svg>