<svg enable-background="new 0 0 400 400" viewBox="0 0 400 400" xmlns="http://www.w3.org/2000/svg"><path d="m377.9 391.2c-.2.3-.4.5-.6.8-.7-.6-1.4-1-2.2-1.5.2-.3.4-.5.5-.8.6.4 1.4.8 2.3 1.5zm-1.8 6.1c-.2-.2-.5-.4-.9-.6.4-.6.8-1.2 1.2-1.9s.7-1.3.9-1.9c.3.3.5.5.8.7-.7 1.3-1.4 2.6-2 3.7zm2.2-9c-.3.3-.5.5-.6.8-.6-.6-1.3-1.1-2-1.5.3-.3.5-.5.6-.7.6.5 1.3.9 2 1.4zm.3.2v-.9h2 4.5c-.3 1.3-.6 2.5-1 3.6s-.9 2.1-1.4 3c.4.5 1 1 1.6 1.4s1.2.8 1.9 1.1c-.3.2-.5.4-.8.8-.4-.3-1-.7-1.6-1.2s-1.2-1.1-1.6-1.6c-.5.6-1.1 1.1-1.7 1.6s-1.4.9-2.1 1.4c-.1-.3-.3-.5-.7-.8.6-.2 1.2-.5 1.9-1s1.4-1.1 2-1.8c-.5-.8-.9-1.6-1.2-2.5s-.6-2-.8-3.2c-.4.1-.7.1-1 .1zm2.5 2.7c.3 1 .7 1.7 1 2.2.3-.5.6-1.1 1-2s.6-1.9.9-3h-3.2-.4c.1.9.3 1.8.7 2.8z" fill="#fbfcfa"/><path d="m396.5 388.5v1.5 3.6h1.5v.9c-.4 0-1 0-1.7 0h-7.9c-.5 0-.9 0-1.2 0v-.9h1.3v-3.5c0-.7 0-1.2 0-1.6h2.4c0-.8 0-1.4 0-1.7h1c0 .3-.1.8-.1 1.7h1.5c0-.8 0-1.4 0-1.7h1c0 .3-.1.9-.1 1.7zm-8.2 9.2c-.2-.3-.5-.5-.8-.8.8-.3 1.4-.6 1.9-.9s1-.7 1.4-1.1c.3.3.6.5.9.8-1.6 1-2.8 1.6-3.4 2zm2.6-6.8v-1.6h-1.5v1.6zm0 2.7v-1.9h-1.5v1.9zm2.4-2.7v-1.6h-1.5v1.6zm0 2.7v-1.9h-1.5v1.9zm.2 2 .7-.8c.4.2.9.5 1.6.8s1.3.7 1.8 1c-.3.3-.5.5-.8.8-.4-.3-1.5-1-3.3-1.8zm2-4.7v-1.6h-1.4v1.6zm0 2.7v-1.9h-1.4v1.9z" fill="#fbfcfa"/><g fill="#010100"><path d="m66.61 164.18c9.75 9.61 21.55 6.36 32.64 6.67 1.14.03 2.51-1.4 3.45-2.44 2.89-3.2 5.62-6.54 8.85-10.35 5.61 4.08 11.29 7.79 16.47 12.11 4.85 4.05 4.6 9.28-1.19 11.42-7.69 2.84-8 7.94-7.96 14.68.24 38.5.15 77 .05 115.5-.01 3.32.68 5.71 3.69 7.41 1.56.88 3.17 2.14 4.04 3.65.97 1.67 1.59 3.87 1.38 5.73-.08.7-2.89 1.55-4.47 1.56-15.17.12-30.33.07-45.5.07-1.8 0-3.61 0-6.08 0 0 2.49.04 4.59-.01 6.69-.15 6.48-5.75 10.83-11.96 9.01-1.24-.36-2.42-2.05-2.94-3.4-.51-1.31-.16-2.96-.16-4.46 0-46.83 0-93.66 0-140.5 0-1.77 0-3.54 0-5.32-9.8 17.93-18.35 36.35-30.68 52.96-1.82-1.27-3.29-2.29-5.19-3.62 27.26-54.57 43.17-112.33 51.03-173.72-13.01.53-25.52 1.04-38.65 1.58-1.88-4.26-3.99-9.07-6.35-14.43 5.98.72 11.33 1.78 16.71 1.95 16.47.53 32.95.8 49.43.95 1.53.01 3.33-1.22 4.56-2.36 4.99-4.62 9.81-9.42 14.86-14.32 7.3 5.83 14.71 11.49 21.75 17.58 1.57 1.36 2.99 4.63 2.39 6.25-.58 1.56-3.84 2.94-5.95 2.99-11.99.28-24 .25-35.99.06-3.04-.05-4.13 1.22-4.58 3.86-5.22 30.99-12.64 61.42-23.34 91.01-.18.47-.24.96-.3 1.23zm36.17 17.26c-10.45 0-20.48 0-30.51 0v138.11h30.51c0-46.13 0-91.88 0-138.11z"/><path d="m244.65 157.18c5.79 4.51 11.13 8.23 15.94 12.54 4.89 4.38 4.77 8.41-.96 11-6.06 2.74-6.76 6.73-6.68 12.53.3 22.66-.01 45.33.19 67.99.07 8.14 1.28 16.26 1.34 24.4.02 3.02-.83 7.46-2.87 8.76-3 1.92-7.43 2.03-11.24 1.99-1.14-.01-2.87-2.97-3.22-4.79-.54-2.86-.14-5.89-.14-9.13-22.34 0-44.09 0-66.6 0 0 3.04.1 5.99-.02 8.92-.2 5.04-2.74 7.01-8.8 7.01-5.49 0-8.76-2.56-8.59-7.38.51-14.79 1.64-29.56 1.8-44.35.3-26.82.09-53.64.09-81.29-5.68 4.33-10.88 8.29-16.36 12.47-1.25-1.53-2.36-2.91-2.63-3.23 8.49-12.15 17.69-23.28 24.55-35.7 6.84-12.36 11.33-26.02 17.18-39.88 5.87 1.72 13.05 3.57 20.01 6.03 1.79.63 4.07 3.25 4 4.85-.07 1.54-2.81 4.08-4.54 4.23-8.92.76-10.9 7.98-14.8 14.84 9.39 0 18.15-.57 26.8.17 7.69.66 13.05-1.58 16.67-8.37.92-1.73 2.42-3.15 3.9-5.03 5.39 4.67 10.87 9.03 15.89 13.87 5.56 5.36 4.32 10.02-3.06 11.68-5.24 1.18-9.22 3.61-12.95 7.56-6.69 7.1-14.09 13.52-22.03 21.02 9.09 0 17.31.1 25.52-.11 1.17-.03 2.51-1.41 3.42-2.47 2.69-3.12 5.21-6.41 8.19-10.13zm-24.68-18.13c-.41-.54-.81-1.07-1.22-1.61-13.25 0-26.51-.02-39.76.05-.88 0-2.07.48-2.6 1.15-6 7.62-11.9 15.32-17.67 22.8 7.66 6.71 16.36 9.93 26.56 8.54 2.61-.35 5.33.1 7.97-.12 1.35-.11 3.15-.51 3.89-1.45 7.72-9.7 15.25-19.55 22.83-29.36zm-8.47 91.67v41.71h25.09c0-14.11 0-27.82 0-41.71-8.57 0-16.81 0-25.09 0zm-15.75.05c-8.39 0-16.59 0-25.01 0v41.64h25.01c0-14.05 0-27.67 0-41.64zm15.74-51.04v40.85h25.22c0-13.75 0-27.14 0-40.85-8.46 0-16.69 0-25.22 0zm-40.79 40.85h24.99c0-13.75 0-27.15 0-40.78-8.44 0-16.63 0-24.99 0z"/><path d="m308.73 139.1c-14.27 2.25-28.16 4.44-42.48 6.69-.24-2.54-.41-4.31-.67-7.04 30.39-3.68 57.67-15 82.44-33.53 5.33 4.86 10.81 9.44 15.72 14.58 1.51 1.58 2.38 5 1.73 6.99-.44 1.33-4.36 2.69-6.22 2.18-11.51-3.15-21.44 2.59-31.9 5.2-.96.24-2.17 2.02-2.18 3.09-.13 18.82-.1 37.64-.1 57.08 7 .1 13.85 2.28 18.65-5.51 2.57-4.18 6.48-7.53 10.2-11.73 7.33 5.94 14.66 11.65 21.62 17.76 1.22 1.07 1.63 4.14 1.06 5.82-.42 1.22-3.07 2.34-4.75 2.37-12.16.2-24.33.11-36.49.11-1.81 0-3.62 0-6.36 0 1.45 6.12 2.3 11.8 4.16 17.14 6.89 19.73 13.68 39.51 21.38 58.92 4.99 12.58 12.66 23.72 22.69 33.11 1.39 1.3 1.68 3.78 2.84 6.61-8.68-1.43-15.05.59-20.72 6.33-18.87-30.43-25.07-64.84-34.08-99.75-.11 2.31-.19 3.22-.19 4.13.11 37.65.17 75.31.38 112.96.04 6.98.49 13.96 1 20.93.28 3.86-1.57 5.89-4.87 7.1-3.83 1.41-7.91 2.79-11.21-.52-1.24-1.24-1.38-3.95-1.38-5.99-.08-36.49-.06-72.98-.06-109.48 0-1.81 0-3.63 0-5.44-11.92 27.45-22.16 55.65-41.15 79.64-2-1.37-3.75-2.57-5.81-3.99 19.56-38.34 32.53-78.65 38.88-120.71-9.24 0-18.02-.31-26.76.15-3.53.19-5.11-.84-6.28-3.86-1.18-3.03-2.75-5.91-3.97-8.47 15.01 1.06 29.81 2.11 44.89 3.18-.01-19.53-.01-37.81-.01-56.05z"/><path d="m314.59 62.97c14.7 5.14 23.38-3.1 31.51-13.47 7.57 5.78 14.86 11.16 21.86 16.89 1.14.93 1.92 4.01 1.25 5.05-.93 1.43-3.38 2.6-5.2 2.62-14.98.2-29.97.3-44.95 0-4.43-.09-5.86 1.36-5.93 5.55-.08 4.98-.65 9.95-1.07 14.91-.49 5.8-4.49 8.34-11.66 7.46-4.68-.57-5.78-3.07-4.91-9.29.8-5.71 1.07-11.5 1.64-18-7.17.41-13.74.58-20.27 1.25-3.7.38-6.3.18-7.52-4.08-.95-3.29-2.78-6.33-4.41-9.91 10.99.82 21.6 1.61 32.69 2.44.77-11.7 1.48-22.56 2.27-34.6 9.64 2.98 18.75 5.65 27.72 8.72 1.24.42 2.7 2.94 2.47 4.21-.27 1.55-1.97 3.52-3.49 4.04-3.55 1.23-7.37 1.71-11.25 2.53-.27 4.84-.52 9.43-.75 13.68z"/><path d="m212.72 64.2c11.15-.24 14.46-10.27 22.28-14.11 6.34 4.78 13.1 9.63 19.53 14.9 1.64 1.35 3.21 4.07 3.06 6.03-.26 3.41-3.55 3.19-6.28 3.18-10.66-.04-21.32-.03-31.98-.01-1.62 0-3.24.14-5.49.25.33 5.44.44 10.56 1 15.62.77 7.04-5.53 12.61-11.95 9.77-1.92-.85-3.22-4.24-3.81-6.7-.72-3.02-.31-6.29-.53-9.45-.21-2.96-.6-5.91-.92-8.95-8.53 0-16.96-.16-25.38.06-5.3.13-10.59 1-15.89 1.14-1.41.04-3.5-1.04-4.17-2.23-2.01-3.59-3.46-7.48-5.16-11.3 16.76.69 33.24 1.38 50.33 2.08-.56-11.95-1.07-22.97-1.62-34.71 9.13 1.76 17.71 3.22 26.17 5.21 1.62.38 3.57 2.72 3.83 4.39.21 1.32-1.62 3.58-3.11 4.41-3.11 1.74-8.78 2.12-9.48 4.3-1.46 4.67-.43 10.11-.43 16.12z"/><path d="m163.58 308.73c-2.5 17.86-5.02 35.61-12.28 52.15-1.89 4.31-5.9 7.9-9.53 11.16-2.94 2.64-6.96 2.49-10.1-.05-3.21-2.59-3.7-6.42-1.99-9.98 1.41-2.92 3.27-5.88 5.66-8.01 12.58-11.18 18.21-25.87 21.53-41.72.78-3.75 2.07-5.35 6.71-3.55z"/><path d="m177.39 305.28c3.45-2.35 5.58-1.56 7.16 2.32 4.86 11.94 10.36 23.63 14.72 35.74 1.59 4.42 1.1 9.79.74 14.66-.39 5.31-4.12 9.01-7.82 8.95-3.71-.06-6.79-4.25-7.21-9.93-.68-9.09-.84-18.26-2.13-27.26-1.17-8.14-3.55-16.13-5.46-24.48z"/><path d="m207.01 303.31c10.2 13.11 20.89 25.9 24.22 42.77.63 3.19-.19 6.83-1.02 10.09-.88 3.46-3.79 6.41-7.19 5.23-2.52-.88-5.2-4.19-5.9-6.91-2.24-8.62-3.18-17.57-5.41-26.18-1.52-5.88-3.96-11.63-6.76-17.04-1.79-3.44-2.19-5.68 2.06-7.96z"/><path d="m231.55 305.6c1.51-1.28 2.85-2.42 4.54-3.85 8.95 10.93 18.73 20.83 23.77 33.95 1.56 4.07 2.05 8.74 2.1 13.15.04 3.96-1.84 7.85-6.37 8.33-4.5.47-6.5-2.93-7.05-6.87-2.21-16.11-8.69-30.59-16.99-44.71z"/></g></svg>