<svg enable-background="new 0 0 400 400" viewBox="0 0 400 400" xmlns="http://www.w3.org/2000/svg"><path d="m188.55 108.93c0-14.39 0-27.8 0-40.74-38.79 1.47-77.4 2.94-115.96 4.4-1.23-4.75-1.29-7.24 4.08-7.72 31.26-2.77 62.55-5.37 93.71-9.01 32.15-3.76 64.06-9.21 95.27-18.04 9.89-2.8 19.5-6.59 29.32-9.63 1.58-.49 4.19.01 5.39 1.09 5.06 4.58 10.04 9.31 14.44 14.51 1.77 2.09 1.97 5.51 2.89 8.33-2.75.47-5.91 2.05-8.18 1.22-10.88-4-21.29-.63-31.88.99-22.14 3.39-44.31 6.6-66.46 9.91-1.8.27-3.57.69-5.66 1.1v42.99c1.76.09 3.53.25 5.31.26 29.49.02 58.99.09 88.48-.13 2.6-.02 5.79-1.45 7.67-3.28 5.71-5.56 10.91-11.65 16.63-17.88 10.06 8.21 19 15.32 27.65 22.79 1.26 1.09 1.83 4.12 1.28 5.77-.42 1.25-3.07 2.12-4.86 2.45-2.26.42-4.65.12-6.98.12-42.99 0-85.98 0-128.97 0-1.97 0-3.94 0-6.22 0v7.02c15.44 3.15 30.89 6.08 46.24 9.49 30.95 6.86 61.97 13.62 90.91 27.12 6.11 2.85 11.66 6.99 17.17 10.95 2.04 1.47 3.72 3.95 4.68 6.32 1.63 4.01 1.69 8.32-1.66 11.64-3.13 3.11-7.14 2.88-10.66.94-8.14-4.49-16.07-9.39-24.11-14.07-24.31-14.12-50.66-23.29-77.35-31.57-13.47-4.17-27.1-7.83-40.66-11.7-1.24-.35-2.53-.54-4.84-1.01.48 9.43.88 18.31 1.38 27.17.42 7.46 1.18 14.91 1.39 22.37.17 6.05-3.63 10.46-9.46 11.84-5.65 1.34-9.66-2.18-9.69-8.75-.07-17.16-.02-34.32-.02-51.49 0-1.62 0-3.24 0-4.86-.35-.35-.7-.69-1.05-1.04-40.13 42.82-90.87 67.34-145.6 85.74-.62-2.03-1.22-4.02-1.88-6.17 50.23-20.52 94.25-49.62 131.82-89.72-1.97-.22-3.18-.48-4.39-.48-30.99-.02-61.99-.11-92.98.06-6.45.04-12.91 1.01-19.34 1.72-2.79.31-4.61-.15-5.67-3.16-1.32-3.73-3.21-7.26-4.9-10.99 47.93 4.08 95.72 1.42 143.72 3.13z" fill="#010105"/><path d="m172.08 266.04c-45.46 0-90.5 0-136.13 0-1.73-4.02-3.81-8.85-5.99-13.94 48.49 6.51 96.84 2.45 145.67 2.94 4.82-18.26 6.97-36.73 6.26-56.03 10.07 1.63 19.72 2.99 29.25 4.89 1.95.39 4.78 2.73 4.87 4.31.11 1.8-2.14 5.09-3.81 5.41-9.06 1.73-11.38 7.56-11.95 15.82-.58 8.4-2.45 16.71-3.83 25.55h5.36c39.16 0 78.31-.06 117.47.1 3.76.01 6.12-1.24 8.45-3.98 4.83-5.69 9.98-11.1 15.39-17.05 9.26 7.49 18.39 14.64 27.18 22.2 1.36 1.17 2.2 4.83 1.37 6.16-.98 1.58-4.02 2.64-6.17 2.64-52.32.14-104.64.11-156.96.11-1.97 0-3.95 0-7.37 0 20.27 24.06 43.8 41.91 70.65 55.59 26.83 13.68 55.44 21.91 85.12 27.08v6.68c-17.13 2.81-17.36 2.94-24.12 12.9-57.64-18.13-106.82-48.12-140.01-100.4-4.52 7.97-8.47 15.66-13.08 22.94-12.4 19.56-29.79 33.85-49.35 45.77-28.29 17.25-58.92 28.96-90.94 38.68-.94-2.02-1.82-3.88-2.9-6.2 9.56-3.92 18.81-7.52 27.89-11.48 23.96-10.47 47.37-21.92 67.98-38.38 16.39-13.1 29.76-28.53 38.06-48.01.63-1.47 1.14-2.98 1.64-4.3z" fill="#010105"/><g fill="#fafbfa"><path d="m378.6 9.2.8-1c.9.7 1.9 1.4 2.9 2.3l-.9 1.1c-1.1-.9-2-1.7-2.8-2.4zm.5 10.7c.9-2.1 1.6-4.3 2.3-6.7.4.2.8.4 1.3.6-.7 2.1-1.5 4.3-2.2 6.6zm.4-15.2.9-.9c1 .8 2 1.6 2.8 2.4l-1 1c-1-.9-1.9-1.8-2.7-2.5zm12.5-1.3h1.2v1.4h2.7v1.1h-2.7v2.7h-1.2v-.5h-1.8v1.3h4.9v3.8h-1.2v-.5h-3.7c0 .4-.1.9-.1 1.2h5.1v1h-5.2c0 .5-.1.9-.2 1.2h6v1h-5.2c1.1 1.3 2.9 2 5.5 2.2-.4.4-.7.8-.9 1.3-2.9-.5-4.8-1.6-5.7-3.5h-.1c-.8 1.7-2.7 2.9-5.9 3.6-.2-.4-.6-.8-.9-1.1 2.8-.6 4.6-1.4 5.4-2.5h-4.8v-1h5.3c.1-.3.2-.7.2-1.2h-4.9v-1h5c0-.4 0-.8.1-1.2h-3.6v.5h-1.2v-3.8h4.9v-1.3h-1.8v.5h-1.2v-2.7h-2.6v-1.1h2.6v-1.4h1.2v1.4h4.7v-1.4zm-6.7 8.4h3.6c0-.4 0-.9 0-1.4h-3.6zm1.9-4.7h4.7v-1.2h-4.7zm6.7 3.3h-3.7v1.4h3.7z"/><path d="m384.7 21.4h1.3v2.2h2.8v-2.2h1.3v2.2h4.1v9.1h1.7v1.3h-16.9v-1.3h1.7v-9.1h4.1v-2.2zm.3 13.2.7 1.2c-1.8.9-3.8 1.9-6 2.9-.2-.4-.5-.8-.8-1.3 2.4-1 4.4-2 6.1-2.8zm-3.1-6.5h2.8v-3.2h-2.8zm0 4.6h2.8v-3.3h-2.8zm4.1-4.6h2.8v-3.2h-2.8zm0 4.6h2.8v-3.3h-2.8zm3.6 1.9c2.1.9 4.1 1.8 6.1 2.7l-.7 1.3c-2.2-1.1-4.2-2-6.1-2.9zm3.3-9.7h-2.8v3.2h2.8zm-2.8 7.8h2.8v-3.2h-2.8z"/></g></svg>