<svg enable-background="new 0 0 400 400" viewBox="0 0 400 400" xmlns="http://www.w3.org/2000/svg"><g fill="#010100"><path d="m203.41 243.28v6.39 115.47c0 9.24-8.37 13.91-16.42 8.9-1.61-1-2.98-3.72-3-5.66-.06-5.96.79-11.93.91-17.91.4-19.8.87-39.61.86-59.41-.01-19.97-.53-39.95-.92-59.92-.08-4.22-.56-8.43-.91-13.49 5.73 4.09 10.97 7.33 15.61 11.27 4.56 3.87 9.46 4.21 14.94 3.32 0-34 0-67.88 0-102.42 4.94 3.82 9.54 7.84 14.62 11.11 2.87 1.85 6.53 3.45 9.85 3.49 22.16.3 44.32.07 66.48.24 3.7.03 6.27-1 8.56-3.86 2.79-3.49 5.99-6.64 9.21-10.17 6.17 4.08 12.28 7.77 17.99 11.99 6.06 4.47 5.86 9.55-1.11 12.44-7.76 3.22-9.48 8.15-9.21 16.05.62 18.47.2 36.98.2 55.48v5.47c7.1 1.23 13.18 1.33 17.48-5.33 1.86-2.89 4.55-5.24 7.02-8.02 6.31 4.16 12.61 7.93 18.47 12.28 6.19 4.6 5.81 8.61-.63 12.76-.14.09-.28.2-.44.23-9.16 1.88-8.74 8.61-8.66 15.86.27 26.32-.3 52.66.24 78.97.41 20.12-14.54 29.66-29.2 31.4-.14-1.27-.26-2.53-.42-3.8-.9-7.02-4.13-12.3-11.25-14.36-8.1-2.34-16.26-4.45-24.88-6.79.36-2.16.76-4.53 1.23-7.37 7.96 1.21 15.59 2.45 23.25 3.51 4.44.61 8.92 1.31 13.37 1.32 6.52 0 10.1-3.44 10.13-9.82.11-29.32.04-58.65.01-87.97 0-.46-.23-.93-.42-1.65-47.47 0-94.88 0-142.96 0zm60.52-11.06c0-20.58 0-40.8 0-61.01.28-.49.56-.99.84-1.48 14.34 13.06 31.16 13.91 48.74 11.56 0-8.83 0-17.57 0-26.49-27.21 0-54.09 0-81.05 0v77.42zm17.53-40v39.93h32.05c0-13.53 0-26.63 0-39.93-10.75 0-21.21 0-32.05 0z"/><path d="m232 72.39c-24.29 0-47.92 0-71.54 0-.17.26-.35.51-.52.77 1.99 1.11 3.97 2.22 5.96 3.32 1.6.89 3.51 1.46 4.74 2.71 1.51 1.53 2.45 3.62 3.64 5.46-1.72 1.05-3.58 3.18-5.14 2.98-8.74-1.13-13.89 4.16-19.7 9.31-18.39 16.3-40.2 26.39-63.62 33.06-14.47 4.12-29.12 7.6-43.97 11.44-.72-2.85-1.23-4.89-1.53-6.06 17.92-6.95 35.78-13.23 53.09-20.77 18.69-8.14 35.12-19.68 46.91-36.84 1.02-1.48 1.98-2.99 3.43-5.19-2.15-.18-3.54-.39-4.92-.39-22.17-.02-44.33.07-66.5-.1-3.83-.03-5.01 1.03-5.39 4.93-1.06 10.76-4.66 20.74-11.21 29.49-4.58 6.12-10.38 9.71-18.39 8.84-6.99-.76-10.17-7.3-6.14-13.12 1.11-1.61 2.6-3.13 4.25-4.16 14.6-9.05 21.4-22.69 23.44-39.22.59-4.78 1.38-9.53 2.13-14.65h6.33v17.54h137.3c-2.51-9.72-8.38-17.72-25.06-34.33 1.56-5.16 4.51-5.7 8.88-2.98 8.17 5.07 17.02 9.22 24.56 15.07 9.23 7.15 9.19 13.05 1.28 22.5h5.71c39 0 78-.08 117 .11 4.46.02 7.52-1.16 10.01-4.79 1.86-2.7 4.22-5.05 6.71-7.97 7.27 5.82 14.4 11.26 21.2 17.09 3.54 3.03 2.86 7.35-1.06 7.39-14.12.13-21.27 11-30.55 18.64-2.17 1.79-4.26 3.69-6.52 5.65-1.59-1.2-3.01-2.27-4.53-3.42 3.86-7.37 7.6-14.52 11.63-22.22-31.79 0-62.82 0-95.03 0 .72 8.5.85 16.81 2.43 24.84.56 2.85 4.26 6.27 7.23 7.21 6.73 2.13 13.86 3.72 20.89 4.04 18.79.87 37.62 1.02 56.21-2.71 4.38-.88 8.65-2.33 12.99-3.45 5.81-1.5 12.58 2.99 13.37 8.89.59 4.46-2.39 6.64-5.93 7.39-6.8 1.45-13.7 2.77-20.62 3.22-15.27 1-30.57 1.98-45.86 1.9-11.42-.06-22.92-1.25-34.24-2.92-16.15-2.39-23-11.66-23.35-30.01-.1-5.98 0-11.97 0-18.49z"/><path d="m115.41 228.82c7.95 0 15.11.14 22.25-.11 1.57-.06 3.34-1.23 4.6-2.36 4.2-3.78 8.21-7.78 12.6-11.99 6.58 4.96 13.67 10.11 20.47 15.61 1.42 1.15 2.75 3.92 2.31 5.41-.44 1.5-3 2.83-4.88 3.35-2.18.6-4.62.26-6.95.27-16.62.01-33.23.01-50.38.01 0 3.45-.43 6.5.18 9.33.32 1.49 2.26 2.95 3.81 3.82 8.68 4.86 17.71 9.14 26.12 14.41 6.85 4.3 12.16 10.3 13.98 18.69 1.35 6.25-.15 10.53-4.57 12.28-5.2 2.06-9.85.25-12.71-5.6-5.63-11.54-13.06-21.61-22.93-29.86-.88-.73-1.78-1.43-3.55-2.84-.15 2.35-.34 3.85-.34 5.35-.02 20.49-.33 40.99.1 61.48.28 13.11 1.87 26.19 2.47 39.3.39 8.65-7.05 13.35-15.27 10.2-3.15-1.21-4.15-3.5-4.13-6.63.04-7 0-14 0-20.99 0-24.16 0-48.32 0-72.48 0-1.79 0-3.59 0-5.38-20.14 29.13-42.97 55.39-70.9 77.61-1.34-1.63-2.56-3.1-4.13-5 29.26-29.98 53.06-63.34 66.7-102.71-15.98 0-31.6-.14-47.22.09-4.17.06-7.44.1-8.65-4.95-.72-2.98-2.44-5.71-3.69-8.49 22.57.97 44.73 1.92 67.41 2.89 0-22.28 0-43.61 0-65.37-20.11 1.63-39.92 3.23-60.01 4.85-.39-2.37-.72-4.44-1.15-7.1 7.88-1.01 15.59-1.88 23.26-3 29.49-4.27 58.77-9.59 85.52-23.5 6.16-3.21 10.21-3.45 14.98 1.54 4.12 4.31 8.91 7.97 13.14 12.19.93.93 1.4 3.32.85 4.46-.5 1.04-2.86 2.1-4.03 1.78-16.36-4.4-31.37 2.99-46.93 5.26-8.4 1.23-8.33 1.72-8.33 10.58v51.48z"/><path d="m233.01 249.48c5.03 4.03 10.34 8.53 15.95 12.64 1.84 1.35 4.43 2.32 6.7 2.37 10.99.24 22-.06 32.99.2 4.04.1 6.93-.94 9.39-4.22 2.18-2.91 4.95-5.38 7.82-8.44 5.46 4.13 11.13 7.94 16.22 12.41 4.32 3.79 3.84 6.65-.68 10.19-.39.31-.75.78-1.19.89-8.54 2.12-8.68 8.56-8.03 15.45.11 1.16.16 2.35-.01 3.49-.98 6.62.74 11.84 6.7 15.69 1.68 1.09 2.14 4.06 3.17 6.17-2.03.7-4.06 1.99-6.1 2-19.66.15-39.32.09-58.98.09-1.8 0-3.6 0-5.64 0-.12 1.76.06 3.14-.36 4.31-1.05 2.95-1.7 7.54-3.72 8.31-3.66 1.4-8.48 1.38-12.26.18-1.78-.56-3.19-5.21-3.18-8 .02-9.14 1.03-18.27 1.16-27.42.21-15.43.05-30.87.05-46.31zm61.54 58.84c0-11.63 0-22.7 0-33.83-14.63 0-28.87 0-43.3 0v33.83z"/><path d="m134.21 219.68c-2.38-1.62-3.85-2.63-4.88-3.33 7.65-16.93 15.13-33.47 22.68-50.19 5.87 2.7 12.3 5.39 18.43 8.65 1.87 1 2.91 3.56 4.32 5.41-1.94 1.01-3.87 2.85-5.82 2.87-5.81.05-8.94 3.18-12.14 7.59-7.08 9.79-14.81 19.1-22.59 29z"/><path d="m48.46 179.6c1.42-1.51 2.42-2.57 3.68-3.92 9.64 7.17 19.11 14.15 25.08 24.71 2.56 4.52 3.78 9.24.55 14.03-3.6 5.32-9.9 4.86-12.68-.89-.22-.45-.4-.93-.48-1.41-1.98-12.34-7.73-22.86-16.15-32.52z"/></g><path d="m6.4 11.7c-1-.8-1.9-1.6-2.9-2.3l.6-.7c.9.7 1.9 1.4 2.9 2.2zm-2.1 8.3c.7-2.1 1.4-4.2 2-6.4.2.1.6.3 1 .4-.7 2.3-1.3 4.4-1.9 6.4zm3-12.8c-1.1-.9-2.1-1.7-2.9-2.4l.6-.7c1 .8 2 1.5 3 2.4zm1.4-1.3v-.9h10.2v.9c-.9 4.2-2.3 7.3-4.1 9.4 1.3 1.4 3.2 2.7 5.7 4-.2.2-.4.5-.7.9-2.5-1.4-4.4-2.7-5.7-4.2-1.4 1.5-3.5 3-6.1 4.4 0 0 0 0-.1-.1-.3-.4-.5-.7-.7-.8 2.7-1.3 4.7-2.8 6.2-4.2-1.8-2.2-3-5.3-3.7-9.4zm9.2 0h-7.1c.6 3.8 1.7 6.7 3.4 8.7 1.7-2 2.9-4.8 3.7-8.7z" fill="#fafbfa"/><path d="m31.6 3.6h.9v2.3h4.1v9.1h1.7v.9h-16.6v-.9h1.7v-9.1h4.1v-2.3h.9v2.3h3.1v-2.3zm-4 13.3.6.8c-1.9.9-3.8 1.9-5.8 2.8-.2-.3-.3-.6-.5-.9 2-.9 3.9-1.8 5.7-2.7zm-3.2-10.1v3.7h3.1v-3.7zm0 4.5v3.7h3.1v-3.7zm4.1-4.5v3.7h3.1v-3.7zm0 4.5v3.7h3.1v-3.7zm9.1 9.1c-2.1-1.1-4.1-2-5.8-2.7l.5-.8c2.2.9 4.1 1.8 5.8 2.6zm-1.9-13.6h-3.1v3.7h3.1zm-3.2 4.5v3.7h3.1v-3.7z" fill="#fafbfa"/></svg>