<svg enable-background="new 0 0 400 400" viewBox="0 0 400 400" xmlns="http://www.w3.org/2000/svg"><g fill="#010100"><path d="m210 281.7c-27.56 0-54.66 0-82.62 0 .21 3.89.57 7.61.59 11.34.08 18.83.13 37.67.06 56.5-.02 5.61-2.64 7.76-8.62 7.63-7.69-.18-10.73-2.38-10.43-8.13.75-14.11 2.27-28.2 2.45-42.32.18-14.11-.91-28.24-1.42-42.37-.06-1.77-.01-3.55-.01-6.31 5.96 4.23 11.13 8.03 16.46 11.6 1.57 1.05 3.56 2.09 5.36 2.1 25.5.11 51 .05 76.5.02.31 0 .62-.17 1.3-.37 0-10.78 0-21.66 0-32.88-12.79 0-25.55 0-38.33 0-2.55 8-4.06 9.44-10.12 9.56-6.11.12-9.45-2.96-9.19-9.07.52-12.13 1.3-24.25 1.94-36.37.1-1.82.01-3.64.01-6.03-9.91 0-19.52-.18-29.12.06-7.8.19-15.59.96-23.39 1.27-.99.04-2.54-.89-2.97-1.79-1.99-4.13-3.67-8.41-5.81-13.43 20.49 5.39 40.57 4.11 60.7 4.03 0-10.76 0-21.15 0-32.84 10.09 2.76 20.47 5.16 30.53 8.54 4.4 1.48 4.31 5.86.35 8.46-2.06 1.35-4.41 2.34-6.74 3.16-8.02 2.83-8.31 3.28-6.36 12.52h95.02c0-10.84 0-21.55 0-33.32 10.13 2.66 20.27 4.92 30.11 8.09 5.03 1.62 5.07 6.01.66 8.98-1.51 1.02-3.18 1.85-4.88 2.51-9.07 3.53-9.08 3.5-7.47 13.99 11.36 0 22.82.09 34.27-.12 1.33-.02 2.75-1.6 3.92-2.68 5.24-4.82 10.42-9.72 15.95-14.9 6.9 6.14 14.43 12.66 21.69 19.46 1.18 1.11 2.12 4.03 1.48 5.15-.81 1.42-3.34 2.57-5.14 2.58-21.67.17-43.33.11-65 .12-2.46 0-4.92 0-7.73 0 0 8.94-.07 17.25.08 25.56.02 1.09.91 2.43 1.8 3.2 2.26 1.96 5.02 3.4 7.02 5.56 1.25 1.34 2.29 3.8 1.92 5.41-.26 1.14-3.06 2.39-4.72 2.39-18.99.02-37.98-.2-56.97-.35-1.65-.01-3.29 0-5.33 0v33.65h5.52c24.33 0 48.67-.09 73 .09 3.75.03 6.21-1.1 8.45-3.99 2.64-3.4 5.75-6.44 9.06-10.08 6.4 4.34 12.91 8.33 18.92 12.96 4.75 3.66 4.31 7.87-.45 11.57-.65.5-1.36 1.14-2.12 1.27-8.3 1.43-8.48 7.19-8.31 13.98.28 11.3.29 22.67-.65 33.92-.99 11.89-11.63 22.37-23.42 24.61-1.11.21-2.21.46-3.81.8-.78-17.05-13.53-20.02-26.48-22.74-1.62-.34-3.26-.57-4.88-.89-6.9-1.37-6.9-1.37-3.88-8.75 8.37 1.27 16.85 2.73 25.38 3.78 4.56.57 9.23.78 13.82.53 4.26-.23 6.75-3.37 6.83-7.35.26-13.14.1-26.29.1-39.78-29.08 0-57.84 0-86.67 0-.23.43-.66.86-.65 1.28.41 22.63.85 45.25 1.31 67.88.07 3.33.26 6.66.4 9.98.28 6.34-1.86 8.49-9.01 9.05-4.96.39-9.55-2.98-10.19-7.6-.18-1.31-.07-2.66-.07-3.99 0-23.67 0-47.33 0-71 0-1.82 0-3.62 0-5.69zm-39.28-54.05h95.41c0-10.55 0-20.74 0-30.92-32.01 0-63.56 0-95.41 0z"/><path d="m68.59 124.25c3.65 2.25 7.59 4.16 10.91 6.85 5.66 4.57 11.89 5.66 19.01 5.61 34.82-.26 69.65-.12 104.47-.12h6.2c-3.49-6.77-6.04-13.13-9.82-18.65-3.79-5.54-8.81-10.24-13.65-15.73.56-.75 1.49-2.02 2.29-3.1.7-.05 1.08-.19 1.34-.07 10.56 4.67 10.62 4.72 17.92-4.63 14.28-18.29 27.41-37.24 34.11-59.86.18-.62.61-1.16 1.25-2.34 8.13 3.78 16.29 7.35 24.2 11.42 1.65.85 3.21 3.54 3.18 5.37-.02 1.26-2.8 2.53-4.43 3.67-.5.35-1.29.43-1.93.4-8.81-.42-12.7 5.37-15.85 12.69.9.09 1.65.22 2.41.22 23.83.01 47.66.07 71.48-.1 2.03-.01 4.41-1.16 6.01-2.51 5.35-4.5 10.42-9.33 16.12-14.52 6.71 6.01 14.44 12.77 21.92 19.8 1.04.97 1.67 3.75 1.03 4.79-.82 1.34-3.11 2.48-4.79 2.5-14.16.19-28.32.11-42.49.11-25.33 0-50.65-.04-75.98.09-1.91.01-4.28.72-5.65 1.97-10.06 9.15-19.93 18.53-29.84 27.84-.35.33-.59.76-.49.63 4.33 4.45 9.48 8.18 12.45 13.2 3.27 5.52 2.46 11.7-5.54 16.24 3.01.29 4.34.53 5.67.54 31.16.02 62.32.08 93.48-.11 2.32-.01 5.01-1.37 6.88-2.9 5.54-4.54 10.76-9.47 16.44-14.55 6.12 5.41 13.59 11.76 20.67 18.51 1.47 1.4 1.49 4.3 2.19 6.51-1.91.48-3.81 1.36-5.73 1.38-11.66.11-23.33.01-34.99 0-17.33-.01-34.66-.05-51.99.01-58.64.18-117.27.38-175.91.59-1.46.01-2.93.13-4.98.23v5.55c-.04 27.66.43 55.33-.25 82.97-.67 27.4-2.39 54.79-10.85 81.22-6.62 20.7-18.61 38.08-33.42 54.16-.79-.72-1.5-1.33-2.15-1.99-.57-.58-1.07-1.23-.95-1.09 5.73-11.99 11.55-23.34 16.62-35 7.05-16.2 8.81-33.61 10.76-50.97 4.74-42.18 1.87-84.52 2.62-126.78.2-9.92.05-19.86.05-30.05z"/><path d="m38.16 121.09c-1.34-1.65-2.47-3.05-4.37-5.39 28.26-21.06 44.71-50.39 58.11-82.61 8.12 3.43 16.52 6.81 24.7 10.62 1.33.62 2.44 3.26 2.35 4.88-.08 1.27-2.11 2.51-3.42 3.59-.6.49-1.59.84-2.34.74-10.9-1.51-12.85 7.66-18.02 14.52 2.36.18 3.77.37 5.18.37 18.16.02 36.32.15 54.47-.14 2.6-.04 5.53-1.65 7.67-3.34 5.34-4.2 10.31-8.87 15.92-13.79 6.64 6 14.43 12.96 22.11 20.02 2.9 2.66 1.18 4.99-1.31 6.38-1.6.9-3.8 1.01-5.74 1.01-33.48.06-66.97 0-100.45.13-2.06.01-4.82.7-6.05 2.12-14.01 16.09-30.06 29.66-48.81 40.89z"/><path d="m263.45 87c1.08-3.49 3.44-4.14 7.17-2.03 9.51 5.38 19.37 10.19 28.62 15.99 5.41 3.4 9.74 8.62 8.72 15.7-.38 2.67-2.49 6.04-4.77 7.2-2.04 1.03-5.65-.01-8.09-1.15-1.9-.89-3.15-3.3-4.53-5.14-4.07-5.45-7.7-11.27-12.18-16.34-4.47-5.06-9.78-9.38-14.94-14.23z"/><path d="m104.93 87.07c1.11-3.72 2.69-4.95 6.24-3.06 8.75 4.66 17.83 8.73 26.46 13.6 5.88 3.32 10.47 8.2 12.09 15.14 1.02 4.36-1.32 8.67-5.52 10.53-3.9 1.71-7.83.5-10.29-3.35-4.01-6.26-7.23-13.18-12.07-18.69-4.74-5.41-11.09-9.41-16.91-14.17z"/></g><path d="m6.4 11.7c-1-.8-1.9-1.6-2.9-2.3l.6-.7c.9.7 1.9 1.4 2.9 2.2zm-2.1 8.3c.7-2.1 1.4-4.2 2-6.4.2.1.6.3 1 .4-.7 2.3-1.3 4.4-1.9 6.4zm3-12.8c-1.1-.9-2.1-1.7-2.9-2.4l.6-.7c1 .8 2 1.5 3 2.4zm1.4-1.3v-.9h10.2v.9c-.9 4.2-2.3 7.3-4.1 9.4 1.3 1.4 3.2 2.7 5.7 4-.2.2-.4.5-.7.9-2.5-1.4-4.4-2.7-5.7-4.2-1.4 1.5-3.5 3-6.1 4.4 0 0 0 0-.1-.1-.3-.4-.5-.7-.7-.8 2.7-1.3 4.7-2.8 6.2-4.2-1.8-2.2-3-5.3-3.7-9.4zm9.2 0h-7.1c.6 3.8 1.7 6.7 3.4 8.7 1.7-2 2.9-4.8 3.7-8.7z" fill="#fafbfa"/><path d="m31.6 3.6h.9v2.3h4.1v9.1h1.7v.9h-16.6v-.9h1.7v-9.1h4.1v-2.3h.9v2.3h3.1v-2.3zm-4 13.3.6.8c-1.9.9-3.8 1.9-5.8 2.8-.2-.3-.3-.6-.5-.9 2-.9 3.9-1.8 5.7-2.7zm-3.2-10.1v3.7h3.1v-3.7zm0 4.5v3.7h3.1v-3.7zm4.1-4.5v3.7h3.1v-3.7zm0 4.5v3.7h3.1v-3.7zm9.1 9.1c-2.1-1.1-4.1-2-5.8-2.7l.5-.8c2.2.9 4.1 1.8 5.8 2.6zm-1.9-13.6h-3.1v3.7h3.1zm-3.2 4.5v3.7h3.1v-3.7z" fill="#fafbfa"/></svg>