<svg enable-background="new 0 0 400 400" viewBox="0 0 400 400" xmlns="http://www.w3.org/2000/svg"><path d="m6.8 9.5c.6.3 1.3.7 2.1 1.1-.4.4-.7.8-.9 1.2-.7-.4-1.3-.8-1.8-1.1s-1.1-.6-1.6-.8c.2-.4.5-.8.7-1.2.4.2.8.5 1.5.8zm.9 6.9c-.3.6-.5 1.1-.7 1.7s-.4 1.1-.6 1.7c-.6-.4-1.1-.7-1.6-1 .7-1 1.2-1.8 1.5-2.4.3-.5.6-1.1.8-1.7.3-.6.5-1.2.8-1.8.3.3.8.6 1.3.8-.7 1.3-1.2 2.2-1.5 2.7zm.1-11c.4.3 1 .7 1.7 1.1-.5.2-.8.6-1.1 1.1-.5-.6-1-1-1.4-1.2s-.9-.6-1.5-.8c.2-.4.5-.7.9-1.1.5.3.9.6 1.4.9zm10.5 13.1c1 .4 2 .6 3.1.7-.4.4-.7.8-.8 1.3-.9-.2-1.9-.6-3-.9-1-.4-2-.9-2.8-1.6-.5.4-1.1.9-1.9 1.3s-1.9.9-3.3 1.2c-.1-.3-.5-.8-1.1-1.3 1 0 2.1-.3 3.2-.8 1.2-.5 1.9-1 2.3-1.7h-3.2c-.4 0-1 0-2 .1v-1.2c1 0 1.7.1 2 .1h3.3v-1h-2.3c-.2 0-.9 0-2 .1v-1.2c1.2 0 1.9.1 2 .1h2.3v-.8h-4.1c0-.7.1-1.2.1-1.6 0-.5 0-1.1-.1-1.8h4.1v-.7h-2.5c0-.6.1-1.1.1-1.6v-.6h-.5c-.4 0-1 0-1.8.1v-1.3c1.2 0 1.9.1 2.1.1h.2c0-.3 0-.8-.1-1.4h1.4c0 .6-.1 1-.1 1.4h3.4c0-.4 0-.8-.1-1.3h1.5c0 .4-.1.9-.1 1.3.7 0 1.5 0 2.5-.1v1.2c-1 0-1.8-.1-2.5-.1v.6c0 .3 0 .8.1 1.5h-2.5v.8h4.1c0 .7-.1 1.3-.1 1.8s0 1 .1 1.5h-4.1v.8h1.4c.8 0 1.8 0 2.9-.1v1.2c-1 0-1.9-.1-2.8-.1h-1.5v1h3.2c.3 0 1 0 2.1-.1v1.2c-1.1 0-1.8-.1-2.1-.1h-3.4l-.1.1c1.4 1 2.4 1.5 3.4 1.9zm-4.1-6.7v-1.3h-2.7v1.3zm2.2-4.1v-1.1h-3.4v1.1zm1.9 4.1v-1.3h-2.8v1.3z" fill="#fafbfc"/><path d="m37 6.7v2.3 5.4c1 0 1.8 0 2.2-.1v1.3c-.6 0-1.5-.1-2.5-.1h-11.9c-.7 0-1.3 0-1.8.1v-1.3c.5 0 1.1.1 2 .1v-5.2c0-1 0-1.8-.1-2.5h3.7c0-1.3 0-2.1-.1-2.5h1.5c0 .4-.1 1.3-.1 2.5h2.2c0-1.2 0-2.1-.1-2.6h1.5c0 .4-.1 1.3-.1 2.6zm-12.3 13.7c-.3-.4-.7-.8-1.1-1.1 1.1-.4 2.1-.9 2.9-1.3.8-.5 1.5-1 2.1-1.6.4.4.9.8 1.3 1.1-2.5 1.4-4.2 2.4-5.2 2.9zm3.9-10.1v-2.4h-2.2v2.4zm0 4.1v-2.9h-2.2v2.9zm3.5-4.1v-2.4h-2.2v2.4zm0 4.1v-2.9h-2.2v2.9zm.4 2.9 1-1.1c.6.3 1.4.7 2.5 1.3s2 1.1 2.7 1.5c-.4.4-.8.8-1.1 1.3-.8-.8-2.5-1.7-5.1-3zm3.1-7v-2.4h-2.1v2.4zm0 4.1v-2.9h-2.1v2.9z" fill="#fafbfc"/><g fill="#000001"><path d="m255.16 192.08c6 4.92 12 9.62 17.69 14.68 1.2 1.07 2.17 3.82 1.61 5.08-.58 1.31-3.12 2.43-4.82 2.46-12.16.21-24.33-.1-36.49.18-11.96.28-23.93.88-35.87 1.71-3.64.25-5.48-.77-6.6-4.17-.92-2.78-2.45-5.36-4.67-7.96v5.6c.03 31.15-1.53 62.18-7.96 92.75-5.24 24.92-16.29 46.95-34.4 65.61-1.79-1.52-3.51-2.97-5.44-4.61 8.97-12.43 16.25-25.6 20.35-40.37 5.62-20.25 8.99-40.85 9.32-61.89.43-27.14.96-54.27 1.03-81.41.03-10.77-1.09-21.54-1.73-33.08 6.17 3.96 11.94 7.76 17.82 11.39 1.48.92 3.3 1.81 4.97 1.82 29.65.11 59.31.08 89.86.08-.78-13.42-1.55-26.57-2.4-41.11 9.94 2.45 19.55 4.57 28.96 7.33 1.89.56 3.97 3.45 4.23 5.5.17 1.33-2.52 3.57-4.38 4.51-3.5 1.78-9.95 2.25-10.5 4.44-1.48 5.92-.51 12.45-.51 19.32 12.11 0 24.05.08 35.99-.11 1.37-.02 2.97-1.34 4.04-2.46 3.77-3.99 7.35-8.16 11.16-12.44 7.91 5.85 14.8 10.75 21.41 15.99 1.44 1.14 3.13 4.42 2.62 5.06-1.3 1.65-3.77 3.29-5.79 3.31-20.99.23-41.99.15-62.99.15-1.8 0-3.61 0-6.32 0 3.44 32.38 3.68 64.56 10.43 96.26 10.11-21.87 15.98-45.03 22.51-68.68 7.77 3.14 15.39 5.89 22.66 9.36 2.14 1.02 3.3 4.09 4.9 6.22-2.17 1.55-4.27 4.33-6.51 4.44-7.55.39-10.17 4.48-12.6 11.18-7.06 19.49-15.3 38.55-22.84 57.88-.91 2.34-1.26 5.72-.25 7.85 5.82 12.29 12.13 24.35 18.29 36.47.45.88 1.04 1.71 1.67 2.47 5.03 6.01 9.87 5.34 12.5-2.04 3.16-8.91 5.89-17.97 8.81-26.97 1.44-4.42 2.89-8.83 4.5-13.73 1.94.49 3.78.96 6.27 1.59-1.33 8.05-2.58 15.84-3.91 23.6-1.46 8.5-3.79 16.95-4.24 25.5-.34 6.46 1.65 13.05 2.68 19.57.57 3.58 3.83 7.5-.14 10.58-3.95 3.07-8.47 1.32-12.17-.87-9.56-5.65-18.1-12.75-23.94-22.22-6.87-11.15-12.85-22.85-19.21-34.32-.72-1.3-1.33-2.65-2.42-4.83-15.82 24.83-34.58 46.25-57.82 64.84-1.17-1.59-2.42-3.29-3.97-5.4 5.13-5.59 10.67-11.45 16.03-17.49 15.46-17.41 27.75-36.93 38.1-57.71.71-1.42.75-3.54.31-5.11-7.79-28.14-11.4-56.92-13.2-85.97-.66-10.6-1.21-21.21-1.83-32.14-31.35 0-62.41 0-93.95 0 0 9.84-.1 19.47.14 29.08.03 1.04 1.88 2.75 3.07 2.93 8.36 1.24 16.75 2.52 25.18 3.08 7.63.5 15.33-.06 22.98.18 3.44.11 5.99-.75 8.29-3.38 2.82-3.27 6.04-6.15 9.49-9.58z"/><path d="m31.05 195.66c27.12-25.6 50.32-53.47 69.06-85.97 6.73 4.39 13.33 8.47 19.62 12.97 1.45 1.04 2.85 3.84 2.43 5.31-.42 1.49-3.08 2.4-4.85 3.42-.69.4-1.66.69-2.4.54-5.81-1.17-8.66 2.51-12.34 6.2-17.25 17.32-34.93 34.2-52.49 51.21-1.63 1.58-3.47 2.95-6.07 5.14 2.35.17 3.58.4 4.8.32 19.23-1.23 38.47-2.41 57.68-3.88 1.93-.15 4.41-1.62 5.48-3.24 6.01-9.15 11.67-18.53 17.9-28.55 6.5 4.43 13.22 8.64 19.45 13.48 1.69 1.31 2.62 4.57 2.45 6.83-.07.99-3.91 2.68-5.78 2.4-7.6-1.14-12.06 2.36-16.44 8.17-19.33 25.66-43.38 46.32-69.78 64.38-3.51 2.4-6.84 5.07-10.26 7.62.16.56.32 1.13.47 1.69 25.83-3.46 51.66-6.91 77.49-10.37.26-.62.53-1.23.79-1.85-5.62-6.6-11.25-13.2-17.21-20.2.92-1.27 2.03-2.8 3.24-4.47 12.64 7.56 24.23 15.95 32.76 27.69 3 4.13 4.78 9.4 6.03 14.43.62 2.52-.65 5.96-2.05 8.42-3.02 5.31-9.66 5.15-12.36-.34-1.81-3.67-2.57-7.85-3.75-11.81-1.76-5.92-3.05-6.35-8.75-4.8-18.57 5.04-37.21 9.82-55.83 14.68-2.73.71-5.44 1.55-8.22 2-6.39 1.04-11.66 2.9-11.72 10.92-.01 1.45-2.27 4.17-3.23 4.06-1.78-.21-4.14-1.71-4.9-3.31-3.71-7.78-6.97-15.77-10.48-23.9 26.11-17.74 47.71-40.19 69.81-63.78-12.97 2.3-24.8 4.4-36.64 6.5-1.14.2-2.29.44-3.44.55-5.8.51-11.13 1.3-11.97 8.9-.2 1.81-2.84 3.35-4.36 5.01-1.46-1.61-3.38-2.99-4.29-4.86-3.49-7.16-6.66-14.47-9.85-21.51z"/><path d="m213.39 319.17c-.15 1.4-.27 2.2-.31 3.01-.25 6.24-3.43 9-9.99 8.63-5.51-.31-8.31-3.85-8.14-9.68.72-24.1 1.33-48.19 1.97-72.29.05-1.78.01-3.56.01-6.15 5.37 3.02 10.01 5.86 14.86 8.26 2.27 1.12 4.95 1.86 7.48 1.95 6.82.26 13.67-.19 20.48.19 4.3.25 7.3-.97 9.6-4.59 1.23-1.94 2.97-3.56 4.9-5.82 4.65 3.21 9.42 6.15 13.77 9.61 4.45 3.53 4.38 7.18-.4 9.91-4.52 2.59-5.81 5.86-5.58 10.9.43 9.47.3 18.99.04 28.47-.11 3.98.6 7.19 4.12 9.42.69.44 1.43 1.04 1.75 1.75.7 1.54 1.7 3.29 1.46 4.76-.12.76-2.66 1.57-4.11 1.58-12.99.12-25.98.07-38.97.07-4.28.02-8.56.02-12.94.02zm-.19-9.58h33.42c0-15.63 0-30.85 0-46.1-11.32 0-22.33 0-33.42 0z"/><path d="m36.85 119.88c-1.39-1.66-2.55-3.04-3.95-4.73 26.78-23.01 47.59-50.16 60.22-83.84 8.47 3.38 16.78 6.55 24.93 10.09 1.32.57 2.89 3.04 2.61 4.22-.38 1.59-2.38 2.84-3.81 4.1-.42.37-1.29.43-1.92.36-10.11-1.14-13.28 6.66-18.11 13.93h8.58c17.16 0 34.33.11 51.49-.13 2.33-.03 5.17-1.22 6.85-2.83 4.81-4.59 9.14-9.68 13.94-14.88 8.46 7.11 16.13 13.39 23.61 19.91 3.07 2.68 2.41 5.84-1.4 7.31-1.63.63-3.57.59-5.38.59-33.33.03-66.66.07-99.99-.05-3.33-.01-5.4 1.08-7.55 3.57-14.32 16.61-30.37 31.23-50.12 42.38z"/><path d="m243.88 30.51c8.4 3.69 16.5 7.08 24.4 10.89 1.62.78 3.83 3.67 3.43 4.58-.76 1.75-3.17 2.79-4.93 4.08-.23.17-.65.1-.98.09-8.74-.41-13.61 4.46-16.59 12.48 1.27.11 2.49.3 3.72.3 23.16.02 46.32.1 69.48-.11 2.31-.02 5.17-1.25 6.79-2.89 4.77-4.86 9.03-10.22 13.66-15.57 9.36 7.83 17.21 14.21 24.82 20.85 2.65 2.32 1.7 5.52-1.71 6.49-1.56.45-3.29.35-4.95.35-38.16.02-76.32.12-114.47-.12-4.58-.03-7.3 1.71-10.05 4.86-14.11 16.13-30.03 29-46.16 37.51-1.13-1.22-2.33-2.53-3.79-4.13 25.81-21.7 45.03-47.92 57.33-79.66z"/><path d="m33.69 306.38c1.78-1.6 3.25-2.92 5.05-4.54 12.42 9.94 24.83 20.11 32.77 34.54 3.03 5.5 4.56 11.32 2.67 17.66-1.24 4.15-3.92 6.86-8.14 6.78-4.15-.07-7.02-2.7-8.11-6.88-1.29-4.97-2.36-9.99-3.8-14.91-3.69-12.58-11.43-22.71-20.44-32.65z"/><path d="m71.85 297.4c1.3-1.42 2.51-2.75 3.99-4.37 13.16 10.51 26.28 20.34 33.58 35.48 2 4.15 2.58 9.24 2.76 13.93.19 4.95-4.03 9.28-7.98 9.51-3.98.23-8.7-4.06-9.19-9.04-1.42-14.43-8.15-26.5-16.44-37.89-1.94-2.66-4.36-4.98-6.72-7.62z"/><path d="m109.81 289.8c1.05-1.25 2.2-2.6 3.57-4.23 12.19 8.27 23.76 16.91 32.33 28.77 3.78 5.23 6.51 11.32 4.4 18.19-1.07 3.49-2.92 6.33-7.12 6.62-4.32.3-6.09-2.5-7.63-5.87-4.54-9.91-8.75-20.01-14-29.53-2.82-5.1-7.5-9.17-11.55-13.95z"/><path d="m264.67 82.87c1.19-1.45 2.2-2.67 3.89-4.72 10.45 5.56 21.11 10.6 31.03 16.83 4.04 2.54 7.1 7.3 9.47 11.67 2.21 4.07.15 8.99-3.37 10.73-4.31 2.13-8.11.9-11.27-2.42-1.13-1.18-1.96-2.68-2.82-4.1-6.23-10.24-14.4-18.64-24.1-25.62-.91-.66-1.74-1.45-2.83-2.37z"/><path d="m105.85 82.72c1.27-1.81 2.1-3 3.74-5.32 10.89 5.7 21.97 10.94 32.39 17.25 3.84 2.33 6.6 6.93 9 10.99 2.34 3.96.34 8.6-3.74 10.98-3.45 2.01-8.64 1.03-11.27-2.15-.21-.25-.38-.55-.52-.85-6.14-13.56-16.68-23.01-29.6-30.9z"/><path d="m316.42 124.23c1.07-3.67 3.75-4.34 7.58-2.1 5.53 3.23 11.47 5.89 16.5 9.76 2.15 1.66 3.35 5.78 3.23 8.72-.08 2.12-2.7 5.13-4.83 5.87-1.74.6-5.13-.96-6.6-2.62-5.42-6.12-10.34-12.68-15.88-19.63z"/></g></svg>