<svg enable-background="new 0 0 400 400" viewBox="0 0 400 400" xmlns="http://www.w3.org/2000/svg"><path d="m6.8 9.5c.6.3 1.3.7 2.1 1.1-.4.4-.7.8-.9 1.2-.7-.4-1.3-.8-1.8-1.1s-1.1-.6-1.6-.8c.2-.4.5-.8.7-1.2.4.2.8.5 1.5.8zm.9 6.9c-.3.6-.5 1.1-.7 1.7s-.4 1.1-.6 1.7c-.6-.4-1.1-.7-1.6-1 .7-1 1.2-1.8 1.5-2.4.3-.5.6-1.1.8-1.7.3-.6.5-1.2.8-1.8.3.3.8.6 1.3.8-.7 1.3-1.2 2.2-1.5 2.7zm.1-11c.4.3 1 .7 1.7 1.1-.5.2-.8.6-1.1 1.1-.5-.6-1-1-1.4-1.2s-.9-.6-1.5-.8c.2-.4.5-.7.9-1.1.5.3.9.6 1.4.9zm10.5 13.1c1 .4 2 .6 3.1.7-.4.4-.7.8-.8 1.3-.9-.2-1.9-.6-3-.9-1-.4-2-.9-2.8-1.6-.5.4-1.1.9-1.9 1.3s-1.9.9-3.3 1.2c-.1-.3-.5-.8-1.1-1.3 1 0 2.1-.3 3.2-.8 1.2-.5 1.9-1 2.3-1.7h-3.2c-.4 0-1 0-2 .1v-1.2c1 0 1.7.1 2 .1h3.3v-1h-2.3c-.2 0-.9 0-2 .1v-1.2c1.2 0 1.9.1 2 .1h2.3v-.8h-4.1c0-.7.1-1.2.1-1.6 0-.5 0-1.1-.1-1.8h4.1v-.7h-2.5c0-.6.1-1.1.1-1.6v-.6h-.5c-.4 0-1 0-1.8.1v-1.3c1.2 0 1.9.1 2.1.1h.2c0-.3 0-.8-.1-1.4h1.4c0 .6-.1 1-.1 1.4h3.4c0-.4 0-.8-.1-1.3h1.5c0 .4-.1.9-.1 1.3.7 0 1.5 0 2.5-.1v1.2c-1 0-1.8-.1-2.5-.1v.6c0 .3 0 .8.1 1.5h-2.5v.8h4.1c0 .7-.1 1.3-.1 1.8s0 1 .1 1.5h-4.1v.8h1.4c.8 0 1.8 0 2.9-.1v1.2c-1 0-1.9-.1-2.8-.1h-1.5v1h3.2c.3 0 1 0 2.1-.1v1.2c-1.1 0-1.8-.1-2.1-.1h-3.4l-.1.1c1.4 1 2.4 1.5 3.4 1.9zm-4.1-6.7v-1.3h-2.7v1.3zm2.2-4.1v-1.1h-3.4v1.1zm1.9 4.1v-1.3h-2.8v1.3z" fill="#fafbfc"/><path d="m37 6.7v2.3 5.4c1 0 1.8 0 2.2-.1v1.3c-.6 0-1.5-.1-2.5-.1h-11.9c-.7 0-1.3 0-1.8.1v-1.3c.5 0 1.1.1 2 .1v-5.2c0-1 0-1.8-.1-2.5h3.7c0-1.3 0-2.1-.1-2.5h1.5c0 .4-.1 1.3-.1 2.5h2.2c0-1.2 0-2.1-.1-2.6h1.5c0 .4-.1 1.3-.1 2.6zm-12.3 13.7c-.3-.4-.7-.8-1.1-1.1 1.1-.4 2.1-.9 2.9-1.3.8-.5 1.5-1 2.1-1.6.4.4.9.8 1.3 1.1-2.5 1.4-4.2 2.4-5.2 2.9zm3.9-10.1v-2.4h-2.2v2.4zm0 4.1v-2.9h-2.2v2.9zm3.5-4.1v-2.4h-2.2v2.4zm0 4.1v-2.9h-2.2v2.9zm.4 2.9 1-1.1c.6.3 1.4.7 2.5 1.3s2 1.1 2.7 1.5c-.4.4-.8.8-1.1 1.3-.8-.8-2.5-1.7-5.1-3zm3.1-7v-2.4h-2.1v2.4zm0 4.1v-2.9h-2.1v2.9z" fill="#fafbfc"/><g fill="#000001"><path d="m103.21 150.4c-.51 8.28-2.09 9.99-8.62 9.59-7.11-.43-9.8-3.71-9.62-11.04.61-24.29 1.29-48.58 1.51-72.87.08-8.76-1.04-17.53-1.67-27.14 5.66 3.51 10.69 6.96 16.04 9.82 2.8 1.49 6.15 2.69 9.26 2.72 23.33.22 46.66.12 69.99.12h5.33c0-14.05 0-27.47 0-41.68 9.64 2.15 19.45 4.16 29.13 6.64 1.84.47 3.19 2.81 4.77 4.28-1.54 1.53-2.83 3.63-4.68 4.47-3.47 1.57-7.27 2.4-10.93 3.54.05.52.1 1.04.15 1.56 1.48.14 2.96.4 4.44.4 29.83.02 59.66.06 89.49-.07 1.94-.01 4.2-.88 5.75-2.07 5.02-3.84 9.77-8.01 15.06-12.42 7.2 4.99 14.5 9.84 21.49 15.11 1.33 1 2.42 4.09 1.82 5.4s-3.44 2.21-5.31 2.22c-41.99.12-83.99.09-125.98.09-1.98 0-3.95 0-6.28 0v12.52h5.99c28.33 0 56.66-.14 84.98.13 5.3.05 9.32-1.15 12.53-5.34 1.61-2.1 3.56-3.93 5.5-6.05 6.32 3.79 12.25 7.13 17.93 10.84 4.05 2.65 4.08 7.22-.38 8.38-9.71 2.54-9.22 9.25-9 16.78.6 20.47.84 40.95 1.23 61.42.17 8.69-6.79 13.77-14.85 10.24-1.98-.87-2.86-4.24-4.95-7.59-65.31 0-132.52 0-200.12 0zm106.21-63.74c11.78 1.14 22.89 1.97 33.92 3.34 14.16 1.75 28.31 3.71 42.38 6.08 3.76.63 7.74 2.45 10.63 4.9 1.78 1.51 2.66 5.47 2.08 7.87-.39 1.6-3.98 3.03-6.31 3.37-2.5.36-5.33-.26-7.79-1.12-23.09-8.08-46.89-13.32-70.9-17.67-5.12-.93-11.05-2.81-15.47-1.18-17.65 6.54-35.53 12.01-54.03 15.33-11.39 2.04-22.87 3.53-34.46 5.3-.64-2.39-1.05-3.88-1.41-5.22 32.6-7.69 64.56-15.81 91.2-37.07-32 0-64.01 0-95.9 0v70.02h201.27c0-23.63 0-46.86 0-70.16-29.41 0-58.45 0-88.74 0 1.69.97 2.3 1.39 2.96 1.69 3.48 1.56 7.09 2.9 10.42 4.73 1.21.67 2.61 2.67 2.4 3.78-.23 1.22-2.08 2.73-3.45 3-2.21.43-4.6.05-6.9-.17-4.13-.39-8.23-.94-11.9 3.18z"/><path d="m209.67 177.57c6.39 3.9 11.87 7.3 17.42 10.58 1.38.82 3 1.74 4.51 1.76 12.15.14 24.3.08 36.75.08 0-12.43 0-24.6 0-36.95 8.43 1.26 16.78 2.51 25.12 3.77 3.24.49 7.1 1.34 6.49 5.21-.31 1.97-3.88 3.67-6.26 4.99-2.03 1.13-4.46 1.53-6.72 2.25.06.52.12 1.04.19 1.56h7.59c8.49 0 16.99-.16 25.48.07 3.92.11 6.92-1 9.85-3.64 4.17-3.75 8.61-9.42 13.27-9.76 4.36-.32 9.18 5.19 13.75 8.2 2.64 1.74 5.42 3.36 7.67 5.52 1.23 1.18 2.41 3.71 1.94 5.02-.48 1.33-3.01 2.63-4.68 2.69-8.32.27-16.65.13-24.98.13-16.64 0-33.28 0-50.3 0v10.91c15.84 0 31.46.08 47.08-.13 1.47-.02 3.02-1.75 4.33-2.92 2.34-2.08 4.51-4.34 7-6.76 5.25 2.91 10.73 5.7 15.95 8.92 5.28 3.25 5.4 7.71-.33 10.01-6.55 2.63-7.01 7.01-6.83 12.85.64 20.79.89 41.59 1.4 62.38.2 8.3-7.68 13.54-15.26 9.68-1.58-.8-2.38-3.14-4.05-5.49-35.03 0-71.09 0-107.16 0-1.92 6.14-7.85 8.65-14.16 6.02-3.55-1.48-4.26-4.38-4.15-7.75.4-12.8 1.13-25.6 1.15-38.4.02-16.63-.49-33.26-.89-49.89-.06-3.26-.68-6.54-1.17-10.91zm18.66 91.99h108.83c0-23.53 0-46.87 0-70.09-15.92 0-31.4 0-46.88 0 3.61 2.43 7.52 3.9 10.99 6.08 1.45.91 1.97 3.3 2.91 5.02-1.73.87-3.38 2.26-5.19 2.51-4.34.6-9.17-1.31-13.23 3.04 1.56.33 2.66.58 3.76.78 11.27 2.02 22.63 3.64 33.75 6.27 3.66.86 7 4.02 9.85 6.78.96.93.7 4.44-.32 5.75-1.04 1.35-3.82 2.23-5.61 1.93-3.21-.53-6.23-2.12-9.35-3.24-11.54-4.12-23.12-8.15-34.62-12.37-4.74-1.74-8.77-.55-13.26 1.32-11.57 4.82-23.4 9.02-35.24 13.51-.76-1.94-1.15-2.84-1.45-3.76-.15-.45-.15-.96-.27-1.78 17.08-7.57 33.91-15.65 45.58-31.97-17.18 0-33.59 0-50.26 0 .01 23.38.01 46.49.01 70.22z"/><path d="m164.68 280.41c-34.18 0-68.62 0-103.02 0-1.28 6.4-3.58 7.75-11.27 6.82-5.2-.63-6.91-3.07-6.79-9.61.42-23.97.99-47.94 1.13-71.91.05-8.43-.98-16.87-1.56-25.88 5.87 3.64 11.46 7.17 17.12 10.58 1.53.92 3.27 2.05 4.93 2.07 13.82.17 27.63.09 41.7.09 0-12.85 0-25.36 0-38.39 8.76 1.45 18.05 2.74 27.19 4.69 1.98.42 3.47 3.2 5.18 4.89-1.74 1.75-3.21 4.02-5.3 5.11-2.62 1.38-5.74 1.8-8.46 3.79 1.05.11 2.1.31 3.15.32 4.67.04 9.4-.48 13.99.11 12.89 1.66 23.88-1.32 32.32-11.7 2.23-2.75 4.39-2.32 7.14-.26 5.19 3.89 10.91 7.08 16 11.09 1.9 1.5 2.64 4.47 3.91 6.76-2.15.81-4.3 2.3-6.45 2.31-21.33.18-42.66.11-64 .11-1.96 0-3.91 0-6.15 0v10.9c1.65.1 3.26.26 4.88.27 7.33.03 14.7-.44 21.99.14 7.52.6 13.75-.97 18.43-7.13 1.83-2.41 3.74-2.6 6.35-.86 3.87 2.58 8.2 4.48 11.96 7.19 1.79 1.29 3.68 3.76 3.71 5.72.03 1.53-2.48 3.97-4.31 4.52-5.19 1.54-6.6 4.47-6.42 9.77.66 19.13.78 38.28 1.15 57.42.03 1.82.25 3.66.56 5.46.62 3.67.57 7.85-3.04 9.17-3.95 1.44-8.58 1.28-12.9 1.19-.93-.03-1.82-2.71-3.12-4.75zm.87-78.91c-15.94 0-31.51 0-48.58 0 4.98 2.37 8.75 3.78 12.07 5.9 1.6 1.03 2.35 3.38 3.49 5.14-1.74.88-3.4 2.12-5.24 2.53-1.9.42-4.02-.25-5.96.07-2.37.39-4.66 1.32-6.98 2.02 12.35 3.22 24.4 5.27 36.32 7.88 3.41.74 7.03 2.51 9.47 4.91 1.51 1.49 1.96 5.5 1.03 7.55-.66 1.46-4.42 2.12-6.75 2.04-2.36-.09-4.67-1.55-7.01-2.38-12.64-4.5-25.22-9.19-37.98-13.32-2.66-.86-6.2-.16-9.01.79-11.27 3.83-22.41 8.05-33.42 12.05-2.92-3.72-2.36-5.37 1.16-7.03 6.15-2.89 12.17-6.13 17.97-9.68 7.9-4.82 15.03-10.62 20.87-18.48-15.69 0-30.71 0-45.65 0v70.01h104.21c-.01-23.4-.01-46.5-.01-70z"/><path d="m190.41 317.83c0-12.33 0-23.9 0-36.53 10.16 2.58 20.23 5 30.18 7.81 1.5.42 3.26 2.59 3.46 4.14.16 1.22-1.8 2.8-2.99 4.07-.53.57-1.43.82-2.21 1.11-3.41 1.28-6.84 2.51-10.24 3.8-.22.08-.43.54-.43.82-.03 4.65-.02 9.3-.02 14.78h5.42c36.15 0 72.3-.06 108.45.09 3.69.02 6.38-1.05 8.73-3.69 4.87-5.47 9.78-10.9 14.77-16.45 9.35 7.5 17.49 13.82 25.32 20.5 1.62 1.38 2.11 4.1 3.11 6.2-2.14.87-4.28 2.48-6.43 2.49-50.98.14-101.95.11-152.93.11-1.97 0-3.94 0-6.07 0 0 9.17-.16 17.93.06 26.68.12 4.96 1.31 9.93 1.1 14.86-.09 2.16-2.02 5.34-3.9 6.09-3.05 1.21-6.81 1.35-10.14.92-3.6-.47-4.81-3.43-4.78-7.08.12-11.83.04-23.65.04-35.48 0-1.79 0-3.59 0-5.68-1.88-.12-3.33-.3-4.78-.29-44.31.02-88.62.03-132.93.13-5.81.01-11.63.42-17.43.91-2.96.25-4.57-.67-5.59-3.53-1.15-3.24-2.84-6.3-4.4-9.68 9.82.93 19.19 2.47 28.57 2.57 34.98.37 69.96.27 104.94.34 10.32 0 20.62-.01 31.12-.01z"/><path d="m139.4 333.59c5.42 5.05 11.09 9.96 16.23 15.36 1.34 1.41 1.95 4.71 1.24 6.46-.48 1.17-4.35 2.16-5.93 1.47-8.51-3.71-16.24-1.59-24.31 1.61-19.62 7.77-40.38 10.4-61.2 12.57-3.46.36-6.93 1.02-10.39.95-1.69-.03-4.3-.99-4.85-2.26-1.35-3.06 1.24-3.46 3.67-4.2 20.12-6.13 40.37-11.94 60.2-18.92 8.97-3.15 17.1-8.72 25.34-13.04z"/><path d="m246.2 342.8c.42-2.13.77-3.89 1.23-6.21 9.31.8 18.64.97 27.72 2.53 16.46 2.83 32.85 6.19 49.11 10 5.02 1.18 9.77 4.15 14.2 6.99 4.66 2.98 6.25 9.33 4.11 13.15-2 3.57-7.08 4.86-12.49 3.04-2.03-.68-4.11-1.42-5.91-2.55-21.73-13.64-45.86-20.61-70.71-25.6-2.28-.45-4.56-.85-7.26-1.35z"/><path d="m246.15 309.17c19.61-5.1 36.99-14.61 53.1-27.08 6.47 5.88 12.71 11.35 18.66 17.11 1.23 1.19 2.26 3.86 1.73 5.19-.47 1.16-3.6 2.35-4.97 1.86-13-4.61-24.56 2.16-36.7 4.23-9.15 1.56-18.29 3.19-27.5 4.25-1.5.17-3.32-2.5-4.99-3.85.22-.58.45-1.14.67-1.71z"/><path d="m84.23 290.86c.48-3.62 2.05-4.71 5.2-4.18 13.05 2.17 26.23 3.67 39.13 6.48 5.02 1.1 9.75 4.59 14.02 7.79 3.19 2.38 3.54 6.36 1.18 9.86-2.39 3.54-5.94 4.02-9.72 2.69-1.84-.65-3.72-1.55-5.22-2.78-11.81-9.73-25.72-14.83-40.26-18.62-1.43-.38-2.84-.82-4.33-1.24z"/><path d="m118.22 138.8c-1.03-2.84-1.59-4.39-2.25-6.2 10.72-3.16 21.34-6.11 31.85-9.43 19.07-6.02 37.7-13.01 54.09-24.91.94-.68 2.8-.76 3.96-.35 6.25 2.21 12.49 4.48 18.55 7.15 1.84.81 3.09 2.97 4.61 4.51-1.96.87-3.84 2.2-5.88 2.51-6.75 1.02-13.56 1.67-20.35 2.46.03.64.07 1.29.1 1.93 4.14.41 8.28.91 12.43 1.22 19.05 1.44 38.11 2.76 57.15 4.31 4.27.35 8.59 1.09 12.69 2.32 5.1 1.53 8 5.83 6.78 9.6-1.66 5.12-6.16 4.24-10.07 4.02-2.12-.12-4.18-.98-6.29-1.41-20.46-4.14-40.92-8.34-61.41-12.34-5.36-1.05-10.83-1.79-16.27-2.08-3.85-.2-7.84.17-11.61 1.02-22.61 5.08-45.17 10.37-68.08 15.67z"/><path d="m279.18 225.89c6.35 2.44 12.47 4.57 18.35 7.21 1.58.71 2.45 2.98 3.65 4.54-1.55.93-3 2.28-4.69 2.72-3.87 1-7.85 1.54-11.78 2.27.02.59.04 1.18.06 1.77 6.21 1.16 12.44 2.2 18.62 3.51 6.97 1.48 13.99 2.86 20.77 4.99 2.75.86 5.46 3.2 7.17 5.6 1.05 1.48 1.06 5.13-.06 6.35-1.3 1.42-4.5 2.02-6.59 1.59-3.18-.64-6.07-2.62-9.17-3.78-11.78-4.4-23.57-8.8-35.45-12.92-1.55-.54-3.81.29-5.51 1.02-11.92 5.07-23.74 10.36-35.67 15.41-3.69 1.56-3.8 1.31-5.78-2.89 17.03-10.09 33.76-20.66 46.08-37.39z"/><path d="m64.89 263.28c15.76-9.53 31.36-19.43 42.52-35.24 6.13 2.32 12.36 4.5 18.42 7.08 1.6.68 2.67 2.57 3.99 3.91-1.74 1.29-3.32 3.21-5.27 3.75-3.77 1.05-7.75 1.32-11.64 1.91.06.59.12 1.19.18 1.78 10.95 2.15 21.94 4.14 32.83 6.54 3.82.84 8.05 1.95 10.89 4.36 2.13 1.8 3.82 6.34 3.05 8.83-1.28 4.12-5.75 3.48-8.95 1.77-12.67-6.74-25.84-12.09-39.74-15.67-3.35-.86-6.12-.72-9.42.78-10.42 4.75-21.12 8.88-31.66 13.38-3.21 1.36-4.63.27-5.2-3.18z"/></g></svg>