<svg enable-background="new 0 0 400 400" viewBox="0 0 400 400" xmlns="http://www.w3.org/2000/svg"><path d="m377.9 391.2c-.2.3-.4.5-.6.8-.7-.6-1.4-1-2.2-1.5.2-.3.4-.5.5-.8.6.4 1.4.8 2.3 1.5zm-1.8 6.1c-.2-.2-.5-.4-.9-.6.4-.6.8-1.2 1.2-1.9s.7-1.3.9-1.9c.3.3.5.5.8.7-.7 1.3-1.4 2.6-2 3.7zm2.2-9c-.3.3-.5.5-.6.8-.6-.6-1.3-1.1-2-1.5.3-.3.5-.5.6-.7.6.5 1.3.9 2 1.4zm.3.2v-.9h2 4.5c-.3 1.3-.6 2.5-1 3.6s-.9 2.1-1.4 3c.4.5 1 1 1.6 1.4s1.2.8 1.9 1.1c-.3.2-.5.4-.8.8-.4-.3-1-.7-1.6-1.2s-1.2-1.1-1.6-1.6c-.5.6-1.1 1.1-1.7 1.6s-1.4.9-2.1 1.4c-.1-.3-.3-.5-.7-.8.6-.2 1.2-.5 1.9-1s1.4-1.1 2-1.8c-.5-.8-.9-1.6-1.2-2.5s-.6-2-.8-3.2c-.4.1-.7.1-1 .1zm2.5 2.7c.3 1 .7 1.7 1 2.2.3-.5.6-1.1 1-2s.6-1.9.9-3h-3.2-.4c.1.9.3 1.8.7 2.8z" fill="#fbfcfa"/><path d="m396.5 388.5v1.5 3.6h1.5v.9c-.4 0-1 0-1.7 0h-7.9c-.5 0-.9 0-1.2 0v-.9h1.3v-3.5c0-.7 0-1.2 0-1.6h2.4c0-.8 0-1.4 0-1.7h1c0 .3-.1.8-.1 1.7h1.5c0-.8 0-1.4 0-1.7h1c0 .3-.1.9-.1 1.7zm-8.2 9.2c-.2-.3-.5-.5-.8-.8.8-.3 1.4-.6 1.9-.9s1-.7 1.4-1.1c.3.3.6.5.9.8-1.6 1-2.8 1.6-3.4 2zm2.6-6.8v-1.6h-1.5v1.6zm0 2.7v-1.9h-1.5v1.9zm2.4-2.7v-1.6h-1.5v1.6zm0 2.7v-1.9h-1.5v1.9zm.2 2 .7-.8c.4.2.9.5 1.6.8s1.3.7 1.8 1c-.3.3-.5.5-.8.8-.4-.3-1.5-1-3.3-1.8zm2-4.7v-1.6h-1.4v1.6zm0 2.7v-1.9h-1.4v1.9z" fill="#fbfcfa"/><g fill="#010100"><path d="m355.1 371.23c-18.36-13.31-31.48-30.34-42.4-48.69-9.29 9.63-17.83 19.79-27.74 28.37-9.85 8.53-21.09 15.46-32.11 23.38-1.72-2.68-2.75-4.28-3.96-6.16 16.03-11.75 29.87-25.36 41.29-41.33 3.96-5.54 7.72-11.24 11.2-17.08.91-1.53 1.15-4.2.45-5.82-9.76-22.86-16.3-46.66-20.9-71.01-2.37-12.54-4.14-25.2-6.22-37.8-.21-1.28-.69-2.51-1.05-3.78-2.53 0-4.79 0-7.54 0 0 4.35.02 8.47 0 12.59-.17 25.8-1.49 51.54-5.13 77.1-4.39 30.83-13.09 60.04-32.65 85.07-.61.79-1.21 1.59-1.85 2.35-.2.24-.53.39-1.19.85-1.41-1.1-2.92-2.28-4.83-3.77 1.2-2.1 2.26-4.11 3.46-6.02 10.6-16.87 14.21-36.03 17.93-55.1 5.76-29.48 7.1-59.34 7.17-89.32.09-39.31.56-78.61.73-117.92.03-6.95-.63-13.89-.98-20.97 7.7 3.68 14.7 8.56 22.4 10.26 7.92 1.75 16.53.39 25.08.39 0-18.08 0-35.77 0-53.76 8.37 1.93 16.96 3.71 25.43 5.94 3.57.94 8.19 1.89 8.26 6.64.06 4.7-4.5 5.83-8.01 7.08-7.89 2.81-7.94 2.67-7.94 10.81v23.23c9.81 0 19.4.23 28.96-.21 1.77-.08 3.5-2.76 5.12-4.37 2.23-2.21 4.34-4.55 7.02-7.37 6.82 5.87 13.68 11.37 20.03 17.39 3.58 3.39 2.52 6.39-2.14 8.28-.46.19-.95.49-1.41.46-9.3-.7-11.67 5.79-14.77 12.82-6.22 14.09-13.49 27.72-20.45 41.77-2.46-1.32-3.88-2.08-5.06-2.71 4.46-18.46 8.85-36.62 13.38-55.39-10.75 0-20.44 0-30.41 0v84.45c6.01 0 11.96.17 17.88-.13 1.33-.07 2.7-1.67 3.82-2.8 2.92-2.93 5.71-6 8.94-9.41 5.98 5.21 12.07 10.11 17.65 15.53 3.79 3.68 3.17 7.26-2.1 9.22-7.95 2.96-10.01 8.56-11.68 16.32-5.25 24.46-11.42 48.72-17.78 72.92-1.75 6.67-5.21 12.94-8.26 19.2-1.29 2.65-.99 4.51.55 6.81 12.81 19.04 28.56 34.62 50.29 43.28 3.23 1.29 6.41 2.6 3.79 7.5-9.22-.53-17.78 1.24-22.27 10.91zm-73.34-179.94c6.74 33.59 14.42 66.46 29.89 97.99 13-31.94 18.07-64.7 22.59-97.99-17.73 0-34.67 0-52.48 0zm-14.35-94.02v84.26h29.07c0-28.29 0-56.18 0-84.26-9.8 0-19.25 0-29.07 0z"/><path d="m212.93 306.34c-19.78 0-39.02 0-58.87 0 0 5.96-.09 11.74.03 17.52.08 3.54-.95 6.68-4.5 7.41-3.68.76-7.65.82-11.37.29-1.03-.15-2.28-3.51-2.27-5.38.08-7.98.9-15.95.91-23.93.08-75.16.07-150.33.01-225.49 0-4.45-.6-8.91-.97-14.05 6.64 3.16 12.68 6.24 18.91 8.89 2.66 1.13 5.7 1.87 8.57 1.91 13.83.19 27.67-.1 41.49.2 4.16.09 6.9-1.13 9.06-4.57 1.74-2.78 3.85-5.33 5.98-8.24 6.01 3.71 11.7 7.11 17.26 10.7 3.55 2.29 3.34 5.42 1.29 8.66-.35.55-.83 1.14-1.4 1.41-8.12 3.86-7.81 10.93-7.79 18.47.18 64 .04 127.99.17 191.99.02 9.79 1.22 19.57 1.28 29.37.01 2.52-1.6 6.19-3.6 7.33-3.57 2.04-8.1 4.02-12.15.86-1.27-.99-1.9-3.42-1.98-5.23-.21-5.96-.06-11.92-.06-18.12zm-58.64-9.96h20.19c0-35.2 0-69.96 0-104.85-6.9 0-13.46 0-20.19 0zm58.33.19c0-35.36 0-70.12 0-105.14-6.89 0-13.47 0-20.34 0v105.14zm-58.2-213.41v97.49h20.04c0-32.68 0-65.01 0-97.49-6.81 0-13.26 0-20.04 0zm37.92.08v97.5h20.33c0-32.59 0-64.92 0-97.5-6.85 0-13.44 0-20.33 0z"/><path d="m108.54 229.54c-7.14-10.66-13.38-19.99-20.2-30.17 1.02-.79 2.42-1.88 4.2-3.27 14.86 12.9 29.83 25.7 38.41 43.9 2.28 4.84 2.79 10.74 3.06 16.21.18 3.68-2.59 6.32-6.63 6.92-4.36.66-7.12-1.53-8.56-5.27-2.14-5.56-3.9-11.27-5.86-16.9-.37-1.06-.93-2.06-1.57-3.47-21.03 8.84-41.86 17.55-62.62 26.41-1.19.51-1.96 2.2-2.68 3.48-.47.83-.29 2.01-.74 2.86-1.29 2.42-2.75 4.74-4.15 7.1-2.31-1.81-5.43-3.16-6.79-5.52-3.55-6.18-6.52-12.73-9.26-19.32-.59-1.41.24-4.01 1.28-5.42 19.54-26.39 36.52-54.38 52.33-83.11.2-.37.08-.92.16-2.07-9.78 4.2-19.23 8.12-28.53 12.39-1.19.55-1.73 2.8-2.29 4.36-1.16 3.25.08 8.59-4.49 8.82-2.32.11-5.33-3.76-7.18-6.42-3.6-5.19-6.68-10.74-9.76-16.26-.68-1.22-1.15-3.39-.53-4.4 13.11-21.33 20.42-45.06 28.24-68.52 5.77-17.28 10.52-34.89 16-53.23 9.29 4.1 19.27 8.35 29.07 12.99 1.38.66 2.61 3.22 2.55 4.84-.05 1.23-2.08 2.92-3.57 3.45-2.95 1.04-6.22 1.15-9.18 2.18-1.89.66-4.34 1.92-5.01 3.54-12.65 30.85-28.89 59.84-45.48 88.66-.64 1.12-1.2 2.29-2.35 4.47 10.25-1.86 19.59-3.49 28.9-5.28 5.36-1.03 10.63-2.64 16.02-3.43 3.36-.49 4.87-2.24 5.91-5.08 4.52-12.31 9.08-24.61 13.63-36.9.34-.92.7-1.83 1.41-3.68 8.93 4.28 17.76 8.29 26.32 12.82 1.61.85 3.2 3.99 2.85 5.66-.34 1.62-3.2 2.7-4.96 4.01-.12.09-.33.12-.48.09-9.64-1.86-12.43 4.75-15.93 11.8-13.71 27.64-30.57 53.36-49.06 78.02-7.26 9.69-14.82 19.16-23.27 30.06 23.9-5.85 46.68-11.42 70.79-17.32z"/><path d="m27.1 294.12c1.18-1.09 2.61-2.41 5-4.63 8.38 10.9 16.93 21.1 24.38 32.04 4.69 6.89 7.59 15.13 4.41 23.63-1.07 2.86-4.06 5.63-6.87 7.08-4 2.06-7.25-.3-8.26-4.82-2.27-10.15-3.82-20.54-7.14-30.34-2.65-7.91-7.47-15.1-11.52-22.96z"/><path d="m58.14 282.12c1.29-1.41 2.5-2.73 3.85-4.22 13.07 7.61 24.26 17.09 33.57 28.77 3.82 4.79 5.69 10.41 4.33 16.32-.6 2.59-3.04 5.66-5.44 6.72-3.33 1.47-6.95.04-8.82-3.63-1.2-2.36-2.31-4.81-3.13-7.33-4.51-13.73-11.68-25.68-22.93-34.98-.49-.39-.84-.96-1.43-1.65z"/><path d="m88.9 264.03c1.43-1.69 2.39-2.82 3.74-4.42 10.55 7.82 22.16 14.18 29.87 25.17 3.93 5.6 6.4 12 2.92 18.64-1.26 2.4-4.32 4.76-6.95 5.31-3.24.68-5.87-1.85-6.73-5.34-3.76-15.2-11.21-28.3-22.85-39.36z"/></g></svg>