<svg enable-background="new 0 0 400 400" viewBox="0 0 400 400" xmlns="http://www.w3.org/2000/svg"><g fill="#010105"><path d="m265.81 134.41c32.94 20.56 69.31 22.08 106.21 22.54v5.98c-8.93-.68-16.08 2.1-19.2 11.84-9.7-1.54-19.17-3.04-29.51-4.68 2.13 1.96 3.84 3.31 5.29 4.9 3.7 4.05 3.5 6.61-.74 9.97-1.29 1.03-2.68 2.15-4.22 2.62-5.49 1.67-6.98 5.13-6.7 10.77.8 16.29.92 32.61 1.44 48.91.26 8.1-4.74 12.83-12.78 11.62-3-.45-5.41-1.71-5.04-5.5.12-1.27-.2-2.58-.34-4.08-68.35 0-136.44 0-204.49 0-1.67 7.98-3.37 9.7-9.47 9.69-6.56-.01-9.7-3.05-9.62-9.93.22-18.98.74-37.95.9-56.93.05-6.62-.6-13.24-.95-20.25-15.42 2.33-30.56 4.62-46.17 6.97-.33-3.04-.57-5.14-.88-7.95 5.41-1.02 10.71-1.96 15.99-3.03 24.13-4.89 48-10.57 70.15-21.88 13.88-7.09 26.72-15.58 37.96-27.26 7.26 4.63 14.71 8.96 21.6 14.04 1.94 1.43 2.24 5.08 3.3 7.71-2.48.84-5.27 2.87-7.38 2.32-7.03-1.85-12.84.28-19.03 3.24-19.68 9.41-40.24 16.5-61.33 22.08-.95.25-1.87.6-3.46 1.12 4.62 3.14 8.44 5.87 14.04 5.86 62.33-.15 124.65-.3 186.97.14 8.39.06 13.33-3.02 17.26-9.57-8.59-3.83-17.38-7.26-25.7-11.59-10.01-5.21-19.58-11.27-29.46-16.76-2.2-1.22-4.86-2.13-7.35-2.22-7.47-.29-14.96-.1-22.8-.1 0-2.99 0-5.71 0-9.17 5.02 0 10.14-.32 15.2.09 4.67.38 7.6-1.17 10.34-5.02 5.72-8.04 5.97-7.88 14.46-2.96 2.73 1.58 5.49 3.15 8.12 4.89 4.54 3.01 4.59 4.07.8 7.83-1.06 1.05-2 2.19-3.41 3.75zm34.44 104.46c0-18.04 0-35.62 0-53.26-32.21 0-64.07 0-95.8 0v53.26zm-204.95-.16h91.21c0-17.85 0-35.42 0-53.21-30.54 0-60.76 0-91.21 0z"/><path d="m277.58 255.46c6.42 4.29 12.55 7.99 18.22 12.31 5.68 4.32 5.4 7.61-.24 11.77-.93.69-1.88 1.52-2.95 1.83-6.37 1.86-7.7 6.09-7.34 12.38 1.21 21.23 2.02 42.49 2.52 63.75.06 2.78-1.92 7.15-4.12 8.09-3.77 1.62-8.45 1.31-12.75 1.32-.66 0-1.69-2.59-1.9-4.08-.33-2.24-.08-4.57-.08-7.13-49.09 0-97.65 0-146.56 0-.11 1.6-.27 3.04-.3 4.47-.12 6.13-2.45 8.6-8.3 8.72-5.96.12-9.98-3.15-9.87-8.75.18-9.64 1.09-19.27 1.17-28.91.17-20.94.04-41.89-.02-62.84-.01-3.47-.31-6.95-.51-11.12 5.61 3.39 10.74 6.69 16.07 9.61 2.07 1.14 4.6 2.02 6.93 2.03 44.64.12 89.27.13 133.91-.04 2.26-.01 4.95-1.44 6.69-3.03 3.29-2.99 6.04-6.58 9.43-10.38zm-155.29 52.69h146.25c0-9.84 0-19.24 0-28.64-48.94 0-97.49 0-146.25 0zm146.25 36.63c0-8.93 0-17.44 0-26.06-48.93 0-97.46 0-146.09 0v26.06z"/><path d="m49.2 33.89c5.8 3.43 11.1 6.83 16.67 9.73 2.51 1.3 5.56 2.22 8.37 2.23 78.14.12 156.28.06 234.42.19 4.23.01 7.21-1.03 9.77-4.38 2.5-3.27 5.46-6.18 8.53-9.59 6.11 4.27 12.15 8.1 17.73 12.51 5.15 4.06 4.77 7.82-.53 11.62-.4.29-.81.65-1.27.78-8.1 2.4-8.96 8.27-8.65 15.72.53 12.63.3 25.32-.11 37.97-.41 12.66-7.61 19.82-20.9 21.33-.45-13.96-12.11-13.55-21.3-16.3-.13-7.18-.13-7.21 6.98-6.75 2.15.14 4.29.51 6.44.68 7.71.63 11.97-2.17 12.23-9.64.49-14.44.14-28.91.14-43.68-83.8 0-166.98 0-250.66 0v16.07 49.98c0 8.04-1.73 9.91-8.95 9.7-5.93-.17-9.3-4.21-9.11-10.7.56-19.62 1.28-39.24 1.5-58.86.1-9.27-.81-18.55-1.3-28.61z"/><path d="m202.19 120.14c-.92-2.29-1.59-3.96-2.05-5.11 13.52-7.89 26.78-15.62 41.11-23.98-11.92-7.14-22.3-13.36-33.02-19.79.8-1.77 1.51-3.36 2.58-5.72 11.62 4.93 23.14 9.49 34.34 14.75 3.88 1.82 5.96 1.2 8.34-1.85 5.31-6.81 10.79-13.49 16.56-20.68 6.47 3.76 13.23 7.55 19.85 11.58 2.74 1.67 4.79 4.59 3.02 7.52-1.05 1.74-4.61 3.48-6.46 2.99-10.13-2.64-15.3 4.77-21.89 9.78 5.24 4.05 10.6 7.69 15.31 12.03 2.96 2.73 5.41 6.27 7.25 9.88 2.01 3.95 1.71 8.23-2.25 11.2-3.9 2.93-7.49.9-10.31-1.76-4.96-4.66-9.45-9.82-14.27-14.64-7.74-7.74-7.71-7.55-17.28-2.93-7.77 3.75-15.68 7.25-23.66 10.56-5.49 2.27-11.18 4.04-17.17 6.17z"/><path d="m156.32 87.81c5.17 4.37 10.29 8.14 14.68 12.62 2.57 2.63 4.5 6.21 5.76 9.7 1.23 3.44.41 7.7-3.23 9.01-2.61.94-6.89.51-9.01-1.13-4.83-3.72-8.78-8.58-13.09-12.97-2.44-2.48-4.88-4.95-6.81-6.9-17.6 7.43-34.65 14.63-52.28 22.08-1.23-2.8-2.05-4.64-2.52-5.73 14.13-8.34 27.8-16.4 41.47-24.47-.07-.64-.15-1.28-.22-1.93-11.29-6.82-22.57-13.65-34.33-20.76.89-1.57 1.81-3.21 3.07-5.44 12.36 5.43 24.63 10.52 36.59 16.25 3.92 1.88 5.9 1.14 8.22-1.95 4.79-6.37 9.8-12.59 15-19.23 6.39 3.96 12.92 7.86 19.26 12.04 2.43 1.6 5.78 3.8 3.72 7.08-1.15 1.82-4.87 3.37-7.05 2.97-8.74-1.62-13.99 3.31-19.23 8.76z"/><path d="m265.96 187.85c6.95 4.18 13.46 7.85 19.66 11.99 1.63 1.09 2.3 3.62 3.4 5.48-1.99.91-4.07 2.74-5.96 2.58-6.26-.55-10.66 1.92-15.51 5.78-9.57 7.62-20.05 14.1-30.56 21.33-1.75-2.27-2.91-3.78-4.29-5.57 13.54-11.75 24.6-25.33 33.26-41.59z"/><path d="m113.65 195.07c.93-1.41 1.82-2.76 3.06-4.64 10.81 6.72 22.63 11.54 31.5 20.84 4.41 4.63 7.16 10.01 4.92 16.76-1.97 5.95-7.27 7.19-11.47 2.58-.67-.73-1.39-1.5-1.78-2.39-5.49-12.7-14.72-22.43-24.8-31.51-.48-.42-.85-.97-1.43-1.64z"/></g><path d="m378.6 9.2.8-1c.9.7 1.9 1.4 2.9 2.3l-.9 1.1c-1.1-.9-2-1.7-2.8-2.4zm.5 10.7c.9-2.1 1.6-4.3 2.3-6.7.4.2.8.4 1.3.6-.7 2.1-1.5 4.3-2.2 6.6zm.4-15.2.9-.9c1 .8 2 1.6 2.8 2.4l-1 1c-1-.9-1.9-1.8-2.7-2.5zm12.5-1.3h1.2v1.4h2.7v1.1h-2.7v2.7h-1.2v-.5h-1.8v1.3h4.9v3.8h-1.2v-.5h-3.7c0 .4-.1.9-.1 1.2h5.1v1h-5.2c0 .5-.1.9-.2 1.2h6v1h-5.2c1.1 1.3 2.9 2 5.5 2.2-.4.4-.7.8-.9 1.3-2.9-.5-4.8-1.6-5.7-3.5h-.1c-.8 1.7-2.7 2.9-5.9 3.6-.2-.4-.6-.8-.9-1.1 2.8-.6 4.6-1.4 5.4-2.5h-4.8v-1h5.3c.1-.3.2-.7.2-1.2h-4.9v-1h5c0-.4 0-.8.1-1.2h-3.6v.5h-1.2v-3.8h4.9v-1.3h-1.8v.5h-1.2v-2.7h-2.6v-1.1h2.6v-1.4h1.2v1.4h4.7v-1.4zm-6.7 8.4h3.6c0-.4 0-.9 0-1.4h-3.6zm1.9-4.7h4.7v-1.2h-4.7zm6.7 3.3h-3.7v1.4h3.7z" fill="#fafbfa"/><path d="m384.7 21.4h1.3v2.2h2.8v-2.2h1.3v2.2h4.1v9.1h1.7v1.3h-16.9v-1.3h1.7v-9.1h4.1v-2.2zm.3 13.2.7 1.2c-1.8.9-3.8 1.9-6 2.9-.2-.4-.5-.8-.8-1.3 2.4-1 4.4-2 6.1-2.8zm-3.1-6.5h2.8v-3.2h-2.8zm0 4.6h2.8v-3.3h-2.8zm4.1-4.6h2.8v-3.2h-2.8zm0 4.6h2.8v-3.3h-2.8zm3.6 1.9c2.1.9 4.1 1.8 6.1 2.7l-.7 1.3c-2.2-1.1-4.2-2-6.1-2.9zm3.3-9.7h-2.8v3.2h2.8zm-2.8 7.8h2.8v-3.2h-2.8z" fill="#fafbfa"/></svg>