<svg enable-background="new 0 0 400 400" viewBox="0 0 400 400" xmlns="http://www.w3.org/2000/svg"><path d="m377.9 391.2c-.2.3-.4.5-.6.8-.7-.6-1.4-1-2.2-1.5.2-.3.4-.5.5-.8.6.4 1.4.8 2.3 1.5zm-1.8 6.1c-.2-.2-.5-.4-.9-.6.4-.6.8-1.2 1.2-1.9s.7-1.3.9-1.9c.3.3.5.5.8.7-.7 1.3-1.4 2.6-2 3.7zm2.2-9c-.3.3-.5.5-.6.8-.6-.6-1.3-1.1-2-1.5.3-.3.5-.5.6-.7.6.5 1.3.9 2 1.4zm.3.2v-.9h2 4.5c-.3 1.3-.6 2.5-1 3.6s-.9 2.1-1.4 3c.4.5 1 1 1.6 1.4s1.2.8 1.9 1.1c-.3.2-.5.4-.8.8-.4-.3-1-.7-1.6-1.2s-1.2-1.1-1.6-1.6c-.5.6-1.1 1.1-1.7 1.6s-1.4.9-2.1 1.4c-.1-.3-.3-.5-.7-.8.6-.2 1.2-.5 1.9-1s1.4-1.1 2-1.8c-.5-.8-.9-1.6-1.2-2.5s-.6-2-.8-3.2c-.4.1-.7.1-1 .1zm2.5 2.7c.3 1 .7 1.7 1 2.2.3-.5.6-1.1 1-2s.6-1.9.9-3h-3.2-.4c.1.9.3 1.8.7 2.8z" fill="#fbfcfa"/><path d="m396.5 388.5v1.5 3.6h1.5v.9c-.4 0-1 0-1.7 0h-7.9c-.5 0-.9 0-1.2 0v-.9h1.3v-3.5c0-.7 0-1.2 0-1.6h2.4c0-.8 0-1.4 0-1.7h1c0 .3-.1.8-.1 1.7h1.5c0-.8 0-1.4 0-1.7h1c0 .3-.1.9-.1 1.7zm-8.2 9.2c-.2-.3-.5-.5-.8-.8.8-.3 1.4-.6 1.9-.9s1-.7 1.4-1.1c.3.3.6.5.9.8-1.6 1-2.8 1.6-3.4 2zm2.6-6.8v-1.6h-1.5v1.6zm0 2.7v-1.9h-1.5v1.9zm2.4-2.7v-1.6h-1.5v1.6zm0 2.7v-1.9h-1.5v1.9zm.2 2 .7-.8c.4.2.9.5 1.6.8s1.3.7 1.8 1c-.3.3-.5.5-.8.8-.4-.3-1.5-1-3.3-1.8zm2-4.7v-1.6h-1.4v1.6zm0 2.7v-1.9h-1.4v1.9z" fill="#fbfcfa"/><g fill="#010100"><path d="m327.28 366.53c-2.73-14.01-4.84-15.76-24.86-20.93 1.11-6.88 1.1-6.78 8.02-5.7 5.24.82 10.51 1.68 15.79 1.95 5.88.3 8.56-2.21 9.48-7.99.23-1.47.21-2.99.21-4.49.01-61.33.01-122.65.01-183.98 0-1.16 0-2.32 0-3.9-12.78 0-25.35 0-38.54 0-.07 1.57-.21 3.32-.21 5.08-.01 50.49-.16 100.99.09 151.48.06 12.78 1.47 25.56 2.09 38.34.43 8.77-4.99 12.56-13.55 9.96-3.35-1.02-5.05-3-5.16-6.42-.06-1.83-.07-3.67-.07-5.5 0-62.16 0-124.32 0-186.48 0-2.12 0-4.25 0-6.63-11.67 0-22.74 0-34.42 0v5.59c0 48.83-.19 97.66.12 146.48.08 12.93 1.7 25.86 2.59 38.79.14 1.99.17 3.99.17 5.99.01 6.5-1.95 8.62-8.4 9.14-9.21.74-11.66-1.53-11.66-10.81 0-62.99 0-125.99 0-188.98 0-1.95 0-3.91 0-6.15-11.45 0-22.35 0-33.83 0v6.09 202.98c0 1.67.03 3.33-.04 5-.29 6.92-4.22 9.7-12.53 8.91-5.78-.55-7.91-4.17-7.37-10.63 1.15-13.75 2.57-27.53 2.63-41.3.27-58.49.11-116.99.01-175.48-.01-6.46-.73-12.93-1.18-20.38 5.45 4.13 10.45 7.58 15.05 11.5 3.39 2.88 6.9 4.15 11.34 3.83 4.81-.34 9.68.18 14.48-.21 1.74-.14 4.17-1.42 4.89-2.88 10.08-20.32 17.15-41.73 22.44-63.76.15-.61.13-1.26.18-1.86-26.32 0-52.35 0-79.01 0-1.72-4.07-3.76-8.9-6.04-14.32 6.7.76 12.74 1.57 18.81 2.11 5.46.49 10.95.96 16.42.97 42.66.08 85.32.1 127.99-.1 2.59-.01 5.6-1.55 7.69-3.26 5.26-4.33 10.09-9.17 15.38-14.07 6.46 6.04 13.72 12.61 20.69 19.48 1.45 1.43 1.84 3.93 2.72 5.94-2.06.74-4.12 2.12-6.19 2.13-30.33.22-60.65.34-90.98.24-4.52-.02-6.82 1.13-8.92 5.54-10.19 21.41-20.95 42.54-31.54 63.83.25.02 1.62.23 2.98.23 31-.02 61.99.01 92.99-.23 2.25-.02 4.9-1.5 6.62-3.1 3.37-3.14 6.21-6.84 9.52-10.58 6.35 4.33 12.57 8.19 18.35 12.62 5.22 4 4.89 7.68-.39 11.62-.8.6-1.58 1.39-2.49 1.64-7 1.92-7.68 6.79-7.65 13.27.25 60.33-.22 120.66.36 180.98.22 19.52-11.71 26.78-25.08 28.41z"/><path d="m105.17 150.41c13.58-15.75 23.51-33.12 31.26-52.28 7.48 4.77 14.75 9.12 21.65 14 1.85 1.31 2.55 4.23 3.78 6.41-2.35.87-4.94 2.86-7.01 2.43-8.63-1.82-13.32 2.35-18.34 8.76-8.72 11.1-18.78 21.15-28 31.87-1.75 2.03-3.05 5.09-3.22 7.76-1.42 23.05-2.58 46.12-3.62 69.19-.07 1.57 1.17 3.66 2.45 4.76 9.37 7.99 19.2 15.45 28.29 23.73 8.62 7.86 16.62 16.54 20.69 27.76 1.53 4.22 1.86 9.06 1.83 13.61-.02 3.92-2.56 6.84-6.65 7.65-4.14.83-7.3-.96-9-4.67-2.21-4.83-4.43-9.71-5.93-14.79-4.35-14.69-22.43-36.38-33.76-46.69-10.79 44.68-29.83 84.57-63.57 116.72-1.78-1.34-3.32-2.51-4.65-3.51 7.4-11.51 15.02-22.57 21.83-34.1 15.64-26.48 25.82-55.09 29.56-85.56 2.73-22.21 4.52-44.65 4.94-67.02.74-40.31.23-80.64.02-120.96-.04-7.4-1.12-14.8-1.84-23.62 11.13 2.68 21.54 5.04 31.85 7.81 1.49.4 3.4 2.7 3.43 4.16.03 1.51-1.77 3.33-3.18 4.51-1.36 1.14-3.22 1.71-4.91 2.4-7.93 3.24-7.94 3.22-7.94 11.89v82.48c.04 1.77.04 3.53.04 5.3z"/><path d="m32.24 101.97c1.78-1.14 3.28-2.09 5.18-3.3 14.36 18.19 29.58 35.72 33.13 59.65.65 4.39.16 9.49-1.56 13.52-1.15 2.71-5.2 5.36-8.27 5.8-3.72.53-6.08-3.19-6.71-6.83-1.3-7.5-1.28-15.35-3.49-22.53-3.93-12.78-9.04-25.2-13.82-37.71-1.1-2.89-2.85-5.53-4.46-8.6z"/></g></svg>