<svg enable-background="new 0 0 400 400" viewBox="0 0 400 400" xmlns="http://www.w3.org/2000/svg"><path d="m361.2 9.6.8-1c.9.7 1.9 1.4 2.9 2.3l-.9 1.1c-1-1-2-1.8-2.8-2.4zm.5 10.6c.9-2.1 1.6-4.3 2.3-6.7.4.2.8.4 1.3.6-.7 2.1-1.5 4.3-2.2 6.6zm.4-15.2.9-.9c1 .8 2 1.6 2.8 2.4l-1 1c-.9-.9-1.8-1.7-2.7-2.5zm12.5-1.2h1.2v1.4h2.7v1.1h-2.7v2.7h-1.2v-.6h-1.8v1.3h4.9v3.8h-1.2v-.5h-3.7c0 .4-.1.9-.1 1.2h5.1v1h-5.2c0 .5-.1.9-.2 1.2h6v1h-5.2c1.1 1.3 2.9 2 5.5 2.2-.4.4-.7.8-.9 1.3-2.9-.5-4.8-1.6-5.7-3.5h-.1c-.8 1.7-2.7 2.9-5.9 3.6-.2-.4-.6-.8-.9-1.1 2.8-.6 4.6-1.4 5.4-2.5h-4.8v-1h5.3c.1-.3.2-.7.2-1.2h-4.9v-1h5c0-.4 0-.8.1-1.3h-3.5v.5h-1.2v-3.7h4.9v-1.3h-1.8v.5h-1.2v-2.7h-2.7v-1h2.6v-1.4h1.2v1.4h4.7v-1.4zm-6.6 8.3h3.6c0-.4 0-.9 0-1.4h-3.6zm1.9-4.6h4.7v-1.3h-4.7zm6.6 3.2h-3.7v1.4h3.7z" fill="#fbfafc"/><path d="m385.3 3.8h1.3v2.2h2.8v-2.2h1.3v2.2h4.1v9.1h1.7v1.3h-16.9v-1.3h1.7v-9.1h4.1v-2.2zm.4 13.1.7 1.2c-1.8.9-3.8 1.9-6 2.9-.2-.4-.5-.8-.8-1.3 2.3-1 4.3-1.9 6.1-2.8zm-3.1-6.4h2.8v-3.2h-2.8zm0 4.6h2.8v-3.3h-2.8zm4-4.6h2.8v-3.2h-2.8zm0 4.6h2.8v-3.3h-2.8zm3.7 1.9c2.1.9 4.1 1.8 6.1 2.7l-.7 1.3c-2.2-1.1-4.2-2-6.1-2.9zm3.2-9.7h-2.8v3.2h2.8v-3.1zm-2.8 7.8h2.8v-3.3h-2.8z" fill="#fbfafc"/><g fill="#010000"><path d="m194 185.88c-11.65 10.47-22.85 20.54-34.22 30.76-1.96-2.06-3.32-3.48-4.95-5.19 27.38-27.78 47.29-59.98 58.49-97.62 8.49 3.21 16.82 6.05 24.86 9.57 2.34 1.03 3.83 4.01 5.7 6.09-2.34 1.61-4.69 4.6-7.03 4.59-8.58-.03-12.52 5.04-15.69 11.85-1.79 3.85-4.2 7.42-6.66 11.68h60.21c-3.28-14.62-9.96-27.32-20.7-37.82 2.72-4.53 5.71-4.87 9.78-1.8 5.18 3.9 10.9 7.07 16.02 11.03 12.35 9.55 13.39 15.4 5.27 28.88 8.07 0 15.82.13 23.56-.13 1.33-.05 2.71-1.67 3.89-2.76 5.25-4.84 10.43-9.74 15.97-14.94 6.91 6.22 14.41 12.76 21.59 19.63 1.28 1.23 2.16 4.2 1.56 5.7-.55 1.39-3.33 2.63-5.15 2.65-19.16.19-38.33.12-57.49.12-1.8 0-3.59 0-5.66 0v47.35c6.9 0 13.69.16 20.47-.13 1.35-.06 2.72-1.7 3.91-2.81 4-3.73 7.92-7.54 12.14-11.57 7.01 5.32 14 10.4 20.68 15.86 1.38 1.13 2.75 4.22 2.14 5.37-.83 1.58-3.53 3.02-5.45 3.04-15.99.16-31.99-.02-47.99-.09-1.81-.01-3.62 0-5.82 0v47.31c7.29 0 14.73.25 22.13-.18 1.73-.1 3.4-2.43 4.95-3.89 3.52-3.29 6.96-6.68 10.78-10.37 6.87 5.17 14.12 10.39 21.03 16.03 1.27 1.04 1.91 4.01 1.42 5.67-.35 1.18-3.08 2.3-4.77 2.33-16.49.25-32.99.26-49.49.34-1.96.01-3.92 0-6.16 0v49.59h11.24c7.17 0 14.36-.37 21.49.12 5.54.38 9.37-1.48 12.89-5.6 3.64-4.27 7.92-8 12.29-12.33 7.67 6.93 15.26 13.62 22.6 20.57 1.06 1.01 1.71 3.52 1.21 4.81-.48 1.23-2.64 2-4.21 2.52-1.2.4-2.64.09-3.97.09-46.33 0-92.66 0-138.99 0-1.99 0-3.97 0-6.71 0 0 6.01.03 11.75-.01 17.5-.04 5.86-2.66 8.21-9.19 8.34-6.63.14-9.99-2.44-9.96-8.3.03-6.14.81-12.28.92-18.43.43-23.47.88-46.95 1.02-70.42.19-28.19.06-56.35.06-85.01zm70.67 145.96c0-16.56 0-32.77 0-49.12-17.93 0-35.52 0-53.26 0v49.12zm.18-163.39c-18.05 0-35.62 0-53.49 0v46.8h53.49c0-15.66 0-30.97 0-46.8zm-.14 103.8c0-15.73 0-31.16 0-46.65-17.99 0-35.69 0-53.45 0v46.65z"/><path d="m125.93 328.39c-25.47 0-50.24 0-75.87 0 0 7.46.02 14.72 0 21.98-.02 6.12-1.15 7.19-7.36 7.02-9.68-.25-10.81-1.36-10.76-11.16.34-68.14.77-136.28 1.01-204.43.07-19.1-.43-38.21-.66-57.22 5.05 3.71 10.87 8.01 16.72 12.27 5.57 4.05 11.88 1.64 17.86 1.79.73.02 1.77-2.21 2.24-3.55 5.48-15.45 10.88-30.92 16.55-47.12.95.2 3.15.57 5.3 1.13 6.42 1.69 12.92 3.15 19.17 5.34 2.32.81 4.02 3.38 6 5.15-2 1.71-3.95 4.82-5.99 4.88-9.86.27-14.09 6.68-18.21 14.22-3.73 6.82-8.5 13.07-13.29 20.3h9.03c10.17 0 20.34.2 30.49-.15 2.44-.08 5.27-1.5 7.11-3.19 3.77-3.44 6.99-7.49 10.82-11.72 6.09 4.84 12.17 9.21 17.68 14.2 4.71 4.27 4.2 7.12-.92 10.84-.67.49-1.34 1.11-2.1 1.3-7.29 1.83-7.84 6.93-7.81 13.48.26 65 .17 129.99.3 194.99.02 8.81.72 17.62 1.12 26.42.4 8.9-1.65 11.62-10.27 13.58-5.23 1.19-7.9-.88-8.06-6.38-.11-4-.07-8-.08-12-.03-3.79-.02-7.6-.02-11.97zm-.29-153.88c-25.18 0-50.07 0-75.07 0v66.91h75.07c0-22.51 0-44.61 0-66.91zm-75.04 76.77v67.26h75.01c0-22.61 0-44.83 0-67.26-25.07 0-49.82 0-75.01 0zm-.06-141.84v55.11h75.11c0-18.59 0-36.79 0-55.11-25.23 0-50.11 0-75.11 0z"/><path d="m185.99 63.18h5.25c.39 4.54.78 9.08 1.2 14.01h68.87c-4.5-17.73-12.16-33.47-26.66-45.34 1.6-1.7 2.81-2.98 4.34-4.6 11.55 7.55 23.55 14.14 32.62 24.62 6.99 8.07 7.59 15.54 1.94 25.44 2.05.11 3.73.27 5.42.27 17.5.02 35-.09 52.49.09 3.83.04 6.65-.85 8.97-3.99 2.05-2.79 4.57-5.24 7.08-8.07 6.59 5.27 13.07 10.23 19.23 15.55 1.56 1.35 3.36 4.37 2.81 5.73-.74 1.84-3.53 3.75-5.62 3.98-6.76.75-11.46 3.83-15.56 9.29-4.85 6.47-10.76 12.15-16.32 18.29-1.79-1.23-3.1-2.14-4.27-2.95 3.26-9.33 6.42-18.35 9.78-27.98-48.9 0-96.8 0-144.39 0-2.22 8.2-4.09 16.4-6.71 24.35-1.81 5.48-5.43 9.94-11.11 12.14-5.88 2.28-11.03.82-13.6-3.69-2.31-4.07-1.26-8.94 3.79-12.61 9.49-6.9 15.45-15.98 17.95-27.27 1.24-5.5 1.66-11.17 2.5-17.26z"/></g></svg>