<svg enable-background="new 0 0 400 400" viewBox="0 0 400 400" xmlns="http://www.w3.org/2000/svg"><path d="m6.8 9.5c.6.3 1.3.7 2.1 1.1-.4.4-.7.8-.9 1.2-.7-.4-1.3-.8-1.8-1.1s-1.1-.6-1.6-.8c.2-.4.5-.8.7-1.2.4.2.8.5 1.5.8zm.9 6.9c-.3.6-.5 1.1-.7 1.7s-.4 1.1-.6 1.7c-.6-.4-1.1-.7-1.6-1 .7-1 1.2-1.8 1.5-2.4.3-.5.6-1.1.8-1.7.3-.6.5-1.2.8-1.8.3.3.8.6 1.3.8-.7 1.3-1.2 2.2-1.5 2.7zm.1-11c.4.3 1 .7 1.7 1.1-.5.2-.8.6-1.1 1.1-.5-.6-1-1-1.4-1.2s-.9-.6-1.5-.8c.2-.4.5-.7.9-1.1.5.3.9.6 1.4.9zm10.5 13.1c1 .4 2 .6 3.1.7-.4.4-.7.8-.8 1.3-.9-.2-1.9-.6-3-.9-1-.4-2-.9-2.8-1.6-.5.4-1.1.9-1.9 1.3s-1.9.9-3.3 1.2c-.1-.3-.5-.8-1.1-1.3 1 0 2.1-.3 3.2-.8 1.2-.5 1.9-1 2.3-1.7h-3.2c-.4 0-1 0-2 .1v-1.2c1 0 1.7.1 2 .1h3.3v-1h-2.3c-.2 0-.9 0-2 .1v-1.2c1.2 0 1.9.1 2 .1h2.3v-.8h-4.1c0-.7.1-1.2.1-1.6 0-.5 0-1.1-.1-1.8h4.1v-.7h-2.5c0-.6.1-1.1.1-1.6v-.6h-.5c-.4 0-1 0-1.8.1v-1.3c1.2 0 1.9.1 2.1.1h.2c0-.3 0-.8-.1-1.4h1.4c0 .6-.1 1-.1 1.4h3.4c0-.4 0-.8-.1-1.3h1.5c0 .4-.1.9-.1 1.3.7 0 1.5 0 2.5-.1v1.2c-1 0-1.8-.1-2.5-.1v.6c0 .3 0 .8.1 1.5h-2.5v.8h4.1c0 .7-.1 1.3-.1 1.8s0 1 .1 1.5h-4.1v.8h1.4c.8 0 1.8 0 2.9-.1v1.2c-1 0-1.9-.1-2.8-.1h-1.5v1h3.2c.3 0 1 0 2.1-.1v1.2c-1.1 0-1.8-.1-2.1-.1h-3.4l-.1.1c1.4 1 2.4 1.5 3.4 1.9zm-4.1-6.7v-1.3h-2.7v1.3zm2.2-4.1v-1.1h-3.4v1.1zm1.9 4.1v-1.3h-2.8v1.3z" fill="#fafbfc"/><path d="m37 6.7v2.3 5.4c1 0 1.8 0 2.2-.1v1.3c-.6 0-1.5-.1-2.5-.1h-11.9c-.7 0-1.3 0-1.8.1v-1.3c.5 0 1.1.1 2 .1v-5.2c0-1 0-1.8-.1-2.5h3.7c0-1.3 0-2.1-.1-2.5h1.5c0 .4-.1 1.3-.1 2.5h2.2c0-1.2 0-2.1-.1-2.6h1.5c0 .4-.1 1.3-.1 2.6zm-12.3 13.7c-.3-.4-.7-.8-1.1-1.1 1.1-.4 2.1-.9 2.9-1.3.8-.5 1.5-1 2.1-1.6.4.4.9.8 1.3 1.1-2.5 1.4-4.2 2.4-5.2 2.9zm3.9-10.1v-2.4h-2.2v2.4zm0 4.1v-2.9h-2.2v2.9zm3.5-4.1v-2.4h-2.2v2.4zm0 4.1v-2.9h-2.2v2.9zm.4 2.9 1-1.1c.6.3 1.4.7 2.5 1.3s2 1.1 2.7 1.5c-.4.4-.8.8-1.1 1.3-.8-.8-2.5-1.7-5.1-3zm3.1-7v-2.4h-2.1v2.4zm0 4.1v-2.9h-2.1v2.9z" fill="#fafbfc"/><g fill="#000001"><path d="m376.9 251.26v5.64c-10.65.55-20.22 3.18-25.4 15.03-14.04-9.15-27.91-17.64-41.17-26.96-21.37-15.02-40.26-32.81-56.14-53.62-3.39-4.44-7.1-6.4-12.97-6.33-26.66.33-53.32.13-79.98-.01-3.08-.02-5.12.77-7.18 3.28-33.9 41.18-76.15 70-127.42 85.38-3.02-4.15-1.26-6.38 2.97-8.43 23.54-11.45 46.65-23.83 66.51-41.03 12.54-10.86 23.66-23.35 35.38-35.15.87-.88 1.44-2.06 2.53-3.67-1.91-.09-3.18-.2-4.44-.2-24.66.07-49.32.09-73.98.27-5.81.04-11.62.77-17.43.76-1.48 0-3.59-1.26-4.32-2.55-2.03-3.57-3.48-7.46-5.46-11.91 6.91.81 13.19 1.67 19.49 2.24 5.63.51 11.28.95 16.92.97 24.33.1 48.66-.01 72.98.11 3.03.01 4.9-.78 6.28-3.58 5.97-12.06 12.12-24.02 18.17-36.04.42-.84.53-1.85.76-2.72-.51-.28-.78-.55-1.04-.55-26.33.01-52.65.03-78.98.07-4.56.01-10.13 1.69-13.4-.35-3.15-1.96-3.93-7.74-5.74-11.84-.24-.54-.41-1.11-.7-1.92 34.69 6.61 69.36 2.57 104.41 4.03 3.05-11.19 6-22.03 9.1-33.39 9.24 2.73 18.63 5.29 27.84 8.4 1.67.56 3.62 3.37 3.56 5.08-.05 1.67-2.37 3.41-3.97 4.81-.79.69-2.17.74-3.3 1.01-10.31 2.45-10.31 2.44-13.01 13.56 1.46.1 2.85.28 4.25.28 28.33.02 56.66.09 84.98-.12 2.47-.02 5.37-1.37 7.31-3.01 5.31-4.49 10.21-9.46 15.58-14.54 8.17 6.44 16.22 12.58 23.97 19.09 1.32 1.11 2.39 4.28 1.74 5.55-.81 1.58-3.53 3.02-5.45 3.04-18.33.22-36.66.13-54.99.14-25.83 0-51.66.06-77.48-.07-3.1-.02-4.56.89-5.87 3.79-5.86 12.98-12.07 25.8-18.28 38.93.99.07 2.38.26 3.77.27 50.99.02 101.98.05 152.97-.11 2.31-.01 5.17-1.21 6.82-2.83 6.04-5.96 11.68-12.32 17.6-18.67 9.49 8.1 18.05 15.24 26.35 22.66 1.17 1.05 1.97 3.81 1.42 5.16-.67 1.65-2.8 2.96-4.58 3.81-1.23.59-2.95.16-4.45.16-32.33 0-64.65 0-96.98 0-1.78 0-3.56 0-6.86 0 18.04 15.89 35.84 29.56 55.3 41.07 19.42 11.47 39.97 20.09 62.01 25.01z"/><path d="m61.09 375.01c-.48-2.32-.87-4.26-1.42-6.93 44.74-9.78 89.08-20.21 128.83-40.91-3.4-3.22-7.75-5.93-10.12-9.84-10.09-16.66-24.19-28.56-41.39-37.18-1.84-.92-3.33-2.55-4.27-3.29-20.11 8.5-40.59 17.07-60.97 25.86-4.52 1.95-7.29 1.78-7.68-4.7 43.17-18.94 82.6-43.49 108.56-85.82 8.23 4.3 16.35 8.38 24.27 12.83 1.24.7 2.36 3.14 2.11 4.52-.25 1.35-2.22 2.5-3.61 3.49-.76.54-1.95.95-2.84.8-9.01-1.61-14.01 4.24-19.15 10-2.26 2.53-4.79 4.83-8.07 8.11h6.03c29.66 0 59.32-.08 88.98.1 3.76.02 6.2-1.17 8.45-3.95 2.7-3.34 5.72-6.43 8.81-9.85 6.75 5.06 13.4 9.76 19.67 14.93 1.8 1.48 3.71 4.58 3.31 6.46-.38 1.82-3.5 3.97-5.7 4.34-7.66 1.31-12.81 5.55-17.85 11.29-22.12 25.2-47.09 47.1-77.19 62.43-20.8 10.6-43 17.65-65.66 22.88-23.27 5.37-46.78 9.67-70.2 14.41-.78.16-1.63.02-2.9.02zm136.16-53.05c26.66-14.69 48.32-34.51 65.94-60.55-2.84 0-4.6 0-6.36 0-31.16 0-62.35.61-93.48-.33-10.99-.33-17.1 6.21-25.6 11.13 5.72 2.12 10.57 3.79 15.33 5.7 13.3 5.33 26.46 10.96 37.08 21 6.56 6.19 10.6 13.29 7.09 23.05z"/><path d="m120.52 73.17c-12.17 0-23.64-.14-35.12.03-15.31.23-30.61.58-45.91 1.17-2.88.11-4.26-.66-5.22-3.2-1.34-3.55-2.92-7-4.83-11.53 30.28 5.99 60.06 2.14 90.05 3.58-.95-12.91-1.83-24.91-2.81-38.29 10.85 2.27 20.88 4.11 30.73 6.65 1.93.5 4.23 3.6 4.38 5.65.12 1.66-2.39 4.16-4.32 5.19-3.39 1.82-9.7 2.06-10.37 4.28-1.42 4.77-.03 10.38.23 16.25 4.83 0 9.5.46 14.01-.2 2.09-.31 4.05-2.6 5.75-4.3 4.35-4.33 8.52-8.84 13.13-13.66 7.92 7.12 15.62 13.9 23.09 20.93 1.04.98 1.69 3.7 1.07 4.75-.8 1.35-3.06 2.54-4.71 2.56-15.16.19-30.32.12-45.48.12-1.8 0-3.59 0-5.99 0 .59 6.74 1.03 12.98 1.7 19.18.79 7.24-.85 10.36-6.62 11.96-7.1 1.96-10.77-.65-11.3-8.11-.49-7.41-.93-14.85-1.46-23.01z"/><path d="m350.34 46.91c6.3 5.62 13.85 12.14 21.07 19.01 1.22 1.16 1.94 4.26 1.24 5.62-.71 1.39-3.45 2.41-5.31 2.42-28.49.15-56.97.1-85.46.1-1.99 0-3.98 0-6.66 0-1.04 6.57-2.07 13.04-3.11 19.51-.32 1.97-.55 3.96-1.03 5.89-1.35 5.47-4.9 7.61-10.92 6.7-5.15-.78-7.11-3.22-6.44-9.2.82-7.4 2.1-14.75 3.24-22.53-7.68 0-15.12-.41-22.5.1-10.91.75-10.9 1.03-15.43-9-.72-1.61-1.31-3.27-1.79-4.48 13.72 1.23 27.37 2.45 41.58 3.72 2.01-13.53 3.85-25.95 5.9-39.77 9.13 2.3 18.49 4.08 27.43 7.13 5.27 1.79 5.11 6.99.08 9.68-2.87 1.53-6.29 1.99-9.3 3.3-1.41.61-3.21 1.95-3.49 3.24-1.04 4.85-1.52 9.82-2.28 15.23 1.55.13 2.96.34 4.36.34 15.33.02 30.65.12 45.98-.11 2.15-.03 4.6-1.34 6.36-2.75 5.44-4.38 10.63-9.09 16.48-14.15z"/></g></svg>