<svg enable-background="new 0 0 400 400" viewBox="0 0 400 400" xmlns="http://www.w3.org/2000/svg"><path d="m6.8 9.5c.6.3 1.3.7 2.1 1.1-.4.4-.7.8-.9 1.2-.7-.4-1.3-.8-1.8-1.1s-1.1-.6-1.6-.8c.2-.4.5-.8.7-1.2.4.2.8.5 1.5.8zm.9 6.9c-.3.6-.5 1.1-.7 1.7s-.4 1.1-.6 1.7c-.6-.4-1.1-.7-1.6-1 .7-1 1.2-1.8 1.5-2.4.3-.5.6-1.1.8-1.7.3-.6.5-1.2.8-1.8.3.3.8.6 1.3.8-.7 1.3-1.2 2.2-1.5 2.7zm.1-11c.4.3 1 .7 1.7 1.1-.5.2-.8.6-1.1 1.1-.5-.6-1-1-1.4-1.2s-.9-.6-1.5-.8c.2-.4.5-.7.9-1.1.5.3.9.6 1.4.9zm10.5 13.1c1 .4 2 .6 3.1.7-.4.4-.7.8-.8 1.3-.9-.2-1.9-.6-3-.9-1-.4-2-.9-2.8-1.6-.5.4-1.1.9-1.9 1.3s-1.9.9-3.3 1.2c-.1-.3-.5-.8-1.1-1.3 1 0 2.1-.3 3.2-.8 1.2-.5 1.9-1 2.3-1.7h-3.2c-.4 0-1 0-2 .1v-1.2c1 0 1.7.1 2 .1h3.3v-1h-2.3c-.2 0-.9 0-2 .1v-1.2c1.2 0 1.9.1 2 .1h2.3v-.8h-4.1c0-.7.1-1.2.1-1.6 0-.5 0-1.1-.1-1.8h4.1v-.7h-2.5c0-.6.1-1.1.1-1.6v-.6h-.5c-.4 0-1 0-1.8.1v-1.3c1.2 0 1.9.1 2.1.1h.2c0-.3 0-.8-.1-1.4h1.4c0 .6-.1 1-.1 1.4h3.4c0-.4 0-.8-.1-1.3h1.5c0 .4-.1.9-.1 1.3.7 0 1.5 0 2.5-.1v1.2c-1 0-1.8-.1-2.5-.1v.6c0 .3 0 .8.1 1.5h-2.5v.8h4.1c0 .7-.1 1.3-.1 1.8s0 1 .1 1.5h-4.1v.8h1.4c.8 0 1.8 0 2.9-.1v1.2c-1 0-1.9-.1-2.8-.1h-1.5v1h3.2c.3 0 1 0 2.1-.1v1.2c-1.1 0-1.8-.1-2.1-.1h-3.4l-.1.1c1.4 1 2.4 1.5 3.4 1.9zm-4.1-6.7v-1.3h-2.7v1.3zm2.2-4.1v-1.1h-3.4v1.1zm1.9 4.1v-1.3h-2.8v1.3z" fill="#fafbfc"/><path d="m37 6.7v2.3 5.4c1 0 1.8 0 2.2-.1v1.3c-.6 0-1.5-.1-2.5-.1h-11.9c-.7 0-1.3 0-1.8.1v-1.3c.5 0 1.1.1 2 .1v-5.2c0-1 0-1.8-.1-2.5h3.7c0-1.3 0-2.1-.1-2.5h1.5c0 .4-.1 1.3-.1 2.5h2.2c0-1.2 0-2.1-.1-2.6h1.5c0 .4-.1 1.3-.1 2.6zm-12.3 13.7c-.3-.4-.7-.8-1.1-1.1 1.1-.4 2.1-.9 2.9-1.3.8-.5 1.5-1 2.1-1.6.4.4.9.8 1.3 1.1-2.5 1.4-4.2 2.4-5.2 2.9zm3.9-10.1v-2.4h-2.2v2.4zm0 4.1v-2.9h-2.2v2.9zm3.5-4.1v-2.4h-2.2v2.4zm0 4.1v-2.9h-2.2v2.9zm.4 2.9 1-1.1c.6.3 1.4.7 2.5 1.3s2 1.1 2.7 1.5c-.4.4-.8.8-1.1 1.3-.8-.8-2.5-1.7-5.1-3zm3.1-7v-2.4h-2.1v2.4zm0 4.1v-2.9h-2.1v2.9z" fill="#fafbfc"/><g fill="#000001"><path d="m297.47 357.23c-65.87 0-131.29 0-197.41 0v5.71c.01 6.24-3.46 9.15-10.88 9.13-6.12-.02-8.41-2.5-8.32-9.03.58-41.43 1.3-82.87 1.62-124.3.07-9.4-1.23-18.81-1.98-29.27 6.72 4.47 12.52 8.52 18.54 12.21 1.99 1.22 4.57 2.06 6.88 2.07 61.63.11 123.27.12 184.9-.04 2.25-.01 4.93-1.48 6.66-3.08 3.51-3.26 6.51-7.07 10.07-11.05 6.95 4.86 13.9 9.38 20.44 14.42 4.02 3.1 3.84 5.33-.21 8.3-3.06 2.24-6.72 3.65-9.83 5.84-1.33.94-2.75 2.91-2.75 4.42-.04 30.31-.01 60.63.3 90.94.1 9.29 1.09 18.57 1.68 27.86.24 3.78-.61 7.59-4.45 8.55-3.98.99-8.38.78-12.52.36-.95-.1-1.96-3.14-2.29-4.95-.47-2.59-.32-5.26-.45-8.09zm-.16-122.89c-65.95 0-131.49 0-196.91 0v31.41h196.91c0-10.5 0-20.77 0-31.41zm.04 41.45c-66.05 0-131.56 0-197.02 0v30.65h197.02c0-10.33 0-20.26 0-30.65zm-197.22 70.94h197.08c0-10.06 0-19.94 0-29.9-65.9 0-131.43 0-197.08 0z"/><path d="m198.93 133.66c-1.85-5.2-2.85-10.26-5.32-14.44-4.01-6.8-8.55-13.41-13.71-19.36-2.91-3.36-3.98-5.4.36-8.65 11.06 5.44 22.2 11.29 30.04 21.69 4.64 6.16 5.08 12.8.16 19.82 1.98.11 3.38.26 4.78.27 35.49.01 70.98.07 106.47-.12 2.45-.01 5.45-1.34 7.24-3.05 5.64-5.39 10.82-11.26 16.46-17.23 8.62 7.47 17.12 14.62 25.31 22.13 1.39 1.27 2.27 4.31 1.76 6.05-.37 1.27-3.35 2.05-5.29 2.52-1.73.42-3.64.11-5.48.11-87.64 0-175.28 0-262.92 0-2.15 0-4.3 0-7.9 0 .42 9.53.29 18.77 1.42 27.86.66 5.36 5.45 8.52 10.53 9.49 8.78 1.67 17.66 3.05 26.57 3.73 43.22 3.33 86.52 2.83 129.81 2.11 22.77-.38 45.46-1.79 67.86-6.55 9.08-1.93 13.87.55 16.8 6.95 2.29 5.01 1.07 8.61-4.32 10.01-5.74 1.49-11.7 2.58-17.62 2.88-19.77.99-39.55 1.96-59.33 2.18-29.32.32-58.66.59-87.96-.27-23.73-.69-47.41-3.04-71.11-4.73-2.29-.16-4.58-.76-6.81-1.37-16.84-4.55-22.62-12.13-22.71-29.73-.04-7.31-.01-14.62-.01-22.94-11.14.5-21.93.56-32.61 1.64-4.97.5-8.21.39-9.65-5.13-.77-2.96-2.5-5.66-3.97-8.87 10 .89 19.41 1.73 28.81 2.57 1.32.12 2.65.32 3.97.32 45.15.1 90.3.17 135.45.24.95.03 1.92-.07 2.92-.13z"/><path d="m39.13 82.51c-1.92-4.48-3.99-9.28-6.35-14.78 28.47 6.09 56.56 3.47 85.57 4.2-1.42-14.89-2.78-29.14-4.21-44.06 9.59 1.69 19.06 3.04 28.34 5.21 2.52.59 4.46 3.64 6.67 5.56-2.01 2.17-3.72 4.78-6.1 6.39-2.88 1.96-7.77 2.28-9.15 4.77-1.48 2.68.04 7.06.38 10.68.33 3.6.82 7.19 1.3 11.32 6.11 0 12.06.13 18-.1 1.24-.05 2.57-1.25 3.62-2.19 5.46-4.87 10.85-9.83 16.85-15.3 6.67 5.96 14.48 12.59 21.86 19.68 3.17 3.05 1.7 6.7-2.64 7.69-1.75.4-3.62.39-5.43.4-16.97.03-33.94.02-51.45.02.71 9.37 1.26 18.39 2.11 27.39.58 6.18-1.33 9.26-6.74 9.91-6.83.82-10.27-1.82-10.78-8.41-.73-9.42-1.39-18.85-2.09-28.38-26.66 0-53.04 0-79.76 0z"/><path d="m277.83 82c-.92 9.71-1.81 18.94-2.68 28.18-.53 5.57-3.93 8.74-9.49 8.81s-8.34-2.67-7.98-8.37c.48-7.62 1.26-15.23 1.9-22.84.14-1.65.23-3.31.39-5.78-3.96 0-7.71-.1-11.45.02-8.63.27-17.26.77-25.9.85-1.54.01-3.81-1.14-4.52-2.43-2.06-3.75-3.49-7.84-5.09-11.62 15.87 1.26 31.6 2.5 47.9 3.79 1.26-15.65 2.42-30 3.68-45.55 9.9 3.42 19.75 6.64 29.42 10.36 1.73.67 3.96 3.68 3.65 5.12-.42 1.97-2.75 4.12-4.78 5.04-2.96 1.34-6.44 1.5-9.59 2.51-1.13.36-2.64 1.66-2.77 2.67-.74 6.08-1.13 12.21-1.7 19.07h5.26c14.32 0 28.65.15 42.96-.14 2.45-.05 5.25-1.46 7.22-3.07 5.39-4.41 10.43-9.25 16.09-14.37 6.7 5.94 14.53 12.57 21.97 19.61 3.33 3.15 2.06 6.56-2.41 7.66-1.75.43-3.62.46-5.43.46-26.82.03-53.63.02-80.45.02-1.81 0-3.63 0-6.2 0z"/></g></svg>