<svg enable-background="new 0 0 400 400" viewBox="0 0 400 400" xmlns="http://www.w3.org/2000/svg"><path d="m6.8 9.5c.6.3 1.3.7 2.1 1.1-.4.4-.7.8-.9 1.2-.7-.4-1.3-.8-1.8-1.1s-1.1-.6-1.6-.8c.2-.4.5-.8.7-1.2.4.2.8.5 1.5.8zm.9 6.9c-.3.6-.5 1.1-.7 1.7s-.4 1.1-.6 1.7c-.6-.4-1.1-.7-1.6-1 .7-1 1.2-1.8 1.5-2.4.3-.5.6-1.1.8-1.7.3-.6.5-1.2.8-1.8.3.3.8.6 1.3.8-.7 1.3-1.2 2.2-1.5 2.7zm.1-11c.4.3 1 .7 1.7 1.1-.5.2-.8.6-1.1 1.1-.5-.6-1-1-1.4-1.2s-.9-.6-1.5-.8c.2-.4.5-.7.9-1.1.5.3.9.6 1.4.9zm10.5 13.1c1 .4 2 .6 3.1.7-.4.4-.7.8-.8 1.3-.9-.2-1.9-.6-3-.9-1-.4-2-.9-2.8-1.6-.5.4-1.1.9-1.9 1.3s-1.9.9-3.3 1.2c-.1-.3-.5-.8-1.1-1.3 1 0 2.1-.3 3.2-.8 1.2-.5 1.9-1 2.3-1.7h-3.2c-.4 0-1 0-2 .1v-1.2c1 0 1.7.1 2 .1h3.3v-1h-2.3c-.2 0-.9 0-2 .1v-1.2c1.2 0 1.9.1 2 .1h2.3v-.8h-4.1c0-.7.1-1.2.1-1.6 0-.5 0-1.1-.1-1.8h4.1v-.7h-2.5c0-.6.1-1.1.1-1.6v-.6h-.5c-.4 0-1 0-1.8.1v-1.3c1.2 0 1.9.1 2.1.1h.2c0-.3 0-.8-.1-1.4h1.4c0 .6-.1 1-.1 1.4h3.4c0-.4 0-.8-.1-1.3h1.5c0 .4-.1.9-.1 1.3.7 0 1.5 0 2.5-.1v1.2c-1 0-1.8-.1-2.5-.1v.6c0 .3 0 .8.1 1.5h-2.5v.8h4.1c0 .7-.1 1.3-.1 1.8s0 1 .1 1.5h-4.1v.8h1.4c.8 0 1.8 0 2.9-.1v1.2c-1 0-1.9-.1-2.8-.1h-1.5v1h3.2c.3 0 1 0 2.1-.1v1.2c-1.1 0-1.8-.1-2.1-.1h-3.4l-.1.1c1.4 1 2.4 1.5 3.4 1.9zm-4.1-6.7v-1.3h-2.7v1.3zm2.2-4.1v-1.1h-3.4v1.1zm1.9 4.1v-1.3h-2.8v1.3z" fill="#fafbfc"/><path d="m37 6.7v2.3 5.4c1 0 1.8 0 2.2-.1v1.3c-.6 0-1.5-.1-2.5-.1h-11.9c-.7 0-1.3 0-1.8.1v-1.3c.5 0 1.1.1 2 .1v-5.2c0-1 0-1.8-.1-2.5h3.7c0-1.3 0-2.1-.1-2.5h1.5c0 .4-.1 1.3-.1 2.5h2.2c0-1.2 0-2.1-.1-2.6h1.5c0 .4-.1 1.3-.1 2.6zm-12.3 13.7c-.3-.4-.7-.8-1.1-1.1 1.1-.4 2.1-.9 2.9-1.3.8-.5 1.5-1 2.1-1.6.4.4.9.8 1.3 1.1-2.5 1.4-4.2 2.4-5.2 2.9zm3.9-10.1v-2.4h-2.2v2.4zm0 4.1v-2.9h-2.2v2.9zm3.5-4.1v-2.4h-2.2v2.4zm0 4.1v-2.9h-2.2v2.9zm.4 2.9 1-1.1c.6.3 1.4.7 2.5 1.3s2 1.1 2.7 1.5c-.4.4-.8.8-1.1 1.3-.8-.8-2.5-1.7-5.1-3zm3.1-7v-2.4h-2.1v2.4zm0 4.1v-2.9h-2.1v2.9z" fill="#fafbfc"/><g fill="#000001"><path d="m270 184.59c-15.49 0-30.43-.12-45.37.07-4.96.06-9.92.85-14.87 1.4-2.41.27-4.01-.21-4.99-2.81-1.44-3.81-3.36-7.44-4.8-10.54 23.22.71 46.24 1.4 69.54 2.11 0-19.11 0-37.14 0-55.81 9.27 2.32 18.74 4.4 28 7.18 2.48.74 4.31 3.63 6.44 5.53-2.12 2.09-3.94 4.71-6.43 6.14-3.07 1.75-8.33 1.57-9.69 3.93-1.75 3.02-.61 7.75-.63 11.74-.04 6.63-.01 13.25-.01 20.44 13.59 0 26.7.06 39.8-.1 1.23-.01 2.61-1.23 3.64-2.19 5.24-4.85 10.39-9.8 16.08-15.19 7.23 6.46 14.97 13.21 22.46 20.22 1.05.98 1.83 3.87 1.19 4.7-1.07 1.41-3.37 2.62-5.16 2.63-23.83.17-47.66.11-71.49.11-1.96 0-3.92 0-6.52 0v5.83c0 41.83-.22 83.66.12 125.48.12 14.44 1.61 28.88 2.56 43.31.6 9.17-5.09 12.76-13.6 11.56-2.01-.28-4.24-2.93-5.28-5.02s-.94-4.85-.94-7.32c-.04-55.83-.03-111.65-.03-167.48-.02-1.92-.02-3.87-.02-5.92z"/><path d="m103.93 185.57c-17.12 0-33.58-.08-50.04.06-3.79.03-7.57 1.02-11.37 1.19-1.13.05-2.86-.92-3.38-1.91-2.08-3.95-3.8-8.09-5.35-11.52 23.1.72 46.23 1.45 69.64 2.18 0-18.98 0-37.02 0-55.8 9.38 2.38 18.82 4.62 28.14 7.24 2.73.77 6.64 2.02 5.55 5.77-.69 2.37-3.47 4.62-5.86 5.86-3.01 1.56-6.58 2.02-10.04 3v33.27c9.32 0 18.59.09 27.84-.11 1.23-.03 2.58-1.32 3.61-2.3 5.28-5.04 10.47-10.16 15.87-15.42 7.21 6.38 14.64 12.77 21.79 19.47 1.31 1.22 2.51 4.23 1.88 5.43-.82 1.55-3.51 2.96-5.41 2.98-21.65.2-43.31.13-65.79.13v5.44c0 41.17-.19 82.33.1 123.49.11 15.46 1.44 30.9 2.06 46.36.34 8.45-6.73 13.57-14.56 10.47-1.6-.64-3.14-2.54-3.78-4.21-.8-2.09-.85-4.55-.86-6.84-.04-56-.03-112-.03-167.99-.01-2.02-.01-4-.01-6.24z"/><path d="m122.07 70.29c-1.07-13.65-2.05-26.22-3.11-39.71 6.78.95 13.28 1.68 19.7 2.84 4.04.74 8.13 1.76 11.86 3.42 1.71.76 3.6 3.4 3.56 5.14-.04 1.76-2.05 3.96-3.77 5.07-2.17 1.39-4.87 2.34-7.44 2.64-4.27.49-5.04 2.61-4.46 6.41.67 4.41.85 8.89 1.3 13.89 4.79 0 9.41.16 14-.1 1.25-.07 2.56-1.27 3.61-2.2 5.46-4.83 10.85-9.75 16.54-14.88 6.25 5.57 13.58 11.84 20.55 18.5 1.49 1.43 2.55 4.48 2.09 6.37-.3 1.22-3.69 2.37-5.72 2.39-14.66.2-29.32.11-43.99.11-1.8 0-3.6 0-6.11 0 .68 7.08 1.33 13.63 1.94 20.18.2 2.15.5 4.31.41 6.45-.27 6.25-3.66 9.39-9.87 9.36-5.5-.03-7.67-2.46-8.18-9.01-.69-8.76-1.45-17.52-2.19-26.43-1.01-.21-1.79-.52-2.58-.52-21.99.04-43.98.08-65.97.23-4.32.03-8.63.67-12.94.68-1.36 0-3.41-.76-3.95-1.8-2.05-3.91-3.6-8.07-5.66-12.88 30.21 6.33 60.02 2.27 90.38 3.85z"/><path d="m277.44 69.99c17.78 0 34.93.07 52.07-.11 1.51-.02 3.22-1.41 4.47-2.57 5.24-4.83 10.34-9.81 15.75-14.99 7.22 6.44 14.73 12.98 21.99 19.79 1.19 1.11 2.25 4.17 1.61 5.02-1.15 1.53-3.61 2.9-5.54 2.91-21.99.2-43.98.13-65.97.13-8.64 0-17.28 0-26.36 0-1.5 8.76-2.88 17.23-4.4 25.68-1.3 7.2-5.36 10-11.83 8.39-5.43-1.35-7.14-4.09-6.1-9.98 1.13-6.37 2.35-12.72 3.48-19.09.25-1.44.25-2.93.33-4.09-9.23 0-18.18-.41-27.07.16-4.8.31-7.39-.98-8.8-5.47-.88-2.81-2.24-5.47-3.46-8.37 14 1.13 27.6 2.23 41.66 3.36 2.23-14.54 4.29-27.96 6.44-41.94 7.54 1.56 15.28 3.07 22.98 4.83 2.05.47 4.09 1.47 5.83 2.66 3.47 2.39 3.62 5.88-.01 8.02-3.07 1.81-6.87 2.34-10.11 3.92-1.66.8-3.66 2.46-4.03 4.06-1.31 5.64-1.95 11.41-2.93 17.68z"/><path d="m310.88 207.59c9.84 2.58 18.89 4.67 27.72 7.44 2.46.77 4.3 3.57 6.42 5.43-2.14 2.08-3.96 4.74-6.49 6.09-3 1.6-6.59 2.07-10.2 3.1-.09 1.49-.24 2.95-.24 4.41-.02 24.31-.03 48.63 0 72.94.01 11.86 2.96 15.04 14.61 14.9 4.91-.06 9.88-.85 14.7-1.88 7.36-1.57 14.03 2.63 14.54 10.23.14 2.14-1.43 5.2-3.19 6.46-2.29 1.64-5.55 2.6-8.41 2.64-10.25.13-20.65.76-30.71-.71-11.88-1.74-17.57-9.81-17.64-22.4-.16-29.98-.07-59.95-.19-89.93-.04-5.95-.58-11.89-.92-18.72z"/><path d="m145.59 208.52c9.14 2.45 18.46 4.7 27.59 7.56 2.07.65 5.02 3.64 4.8 5.16-.3 2.15-2.83 4.61-5.02 5.74-3.3 1.7-7.14 2.37-10.88 3.52 0 24.87-.09 49.51.07 74.15.04 5.76 3.32 9.09 9.1 9.13 5.43.04 10.93-.57 16.28-1.55 7-1.27 14.7 5.22 13.42 12.33-.38 2.11-2.79 4.87-4.83 5.51-13.52 4.23-27.18 4.51-40.34-1.32-7.19-3.18-9.7-10.03-9.79-17.29-.33-26.65-.29-53.3-.38-79.95-.04-7.43-.02-14.86-.02-22.99z"/><path d="m227.68 205.39c10.19 2.64 19.54 4.79 28.67 7.63 2.36.73 4.02 3.68 6.01 5.61-2.12 2.07-3.93 4.7-6.43 6.06-2.83 1.54-6.27 1.94-9.93 2.97 0 1.94-.01 3.9 0 5.86.06 20.29-.43 40.5-4.63 60.49-5.81 27.67-22.74 47.4-44.36 63.98-4.56-3.32-3.81-5.96-.3-9.6 18.74-19.42 28.95-42.76 30.21-69.72.93-19.91 1.21-39.85 1.63-59.77.08-4.09-.51-8.21-.87-13.51z"/><path d="m30.4 359.01c-1.34-1.94-2.46-3.56-3.47-5.02 5.55-6.99 11.16-13.56 16.23-20.52 11.33-15.54 15.96-33.64 17.44-52.29 1.57-19.85 1.48-39.84 1.92-59.77.1-4.6-.57-9.22-.97-14.96 10.86 2.82 21.13 5.1 31.12 8.25 4.79 1.51 4.91 6.53.5 9.11-2.66 1.56-5.76 2.65-8.8 3.18-4.13.73-5.05 2.75-5.08 6.76-.1 13.96-.44 27.93-1.14 41.88-1.67 33.38-17.07 59.46-43.08 79.76-1.44 1.11-2.89 2.23-4.67 3.62z"/></g></svg>