<svg enable-background="new 0 0 400 400" viewBox="0 0 400 400" xmlns="http://www.w3.org/2000/svg"><path d="m361.2 9.6.8-1c.9.7 1.9 1.4 2.9 2.3l-.9 1.1c-1-1-2-1.8-2.8-2.4zm.5 10.6c.9-2.1 1.6-4.3 2.3-6.7.4.2.8.4 1.3.6-.7 2.1-1.5 4.3-2.2 6.6zm.4-15.2.9-.9c1 .8 2 1.6 2.8 2.4l-1 1c-.9-.9-1.8-1.7-2.7-2.5zm12.5-1.2h1.2v1.4h2.7v1.1h-2.7v2.7h-1.2v-.6h-1.8v1.3h4.9v3.8h-1.2v-.5h-3.7c0 .4-.1.9-.1 1.2h5.1v1h-5.2c0 .5-.1.9-.2 1.2h6v1h-5.2c1.1 1.3 2.9 2 5.5 2.2-.4.4-.7.8-.9 1.3-2.9-.5-4.8-1.6-5.7-3.5h-.1c-.8 1.7-2.7 2.9-5.9 3.6-.2-.4-.6-.8-.9-1.1 2.8-.6 4.6-1.4 5.4-2.5h-4.8v-1h5.3c.1-.3.2-.7.2-1.2h-4.9v-1h5c0-.4 0-.8.1-1.3h-3.5v.5h-1.2v-3.7h4.9v-1.3h-1.8v.5h-1.2v-2.7h-2.7v-1h2.6v-1.4h1.2v1.4h4.7v-1.4zm-6.6 8.3h3.6c0-.4 0-.9 0-1.4h-3.6zm1.9-4.6h4.7v-1.3h-4.7zm6.6 3.2h-3.7v1.4h3.7z" fill="#fbfafc"/><path d="m385.3 3.8h1.3v2.2h2.8v-2.2h1.3v2.2h4.1v9.1h1.7v1.3h-16.9v-1.3h1.7v-9.1h4.1v-2.2zm.4 13.1.7 1.2c-1.8.9-3.8 1.9-6 2.9-.2-.4-.5-.8-.8-1.3 2.3-1 4.3-1.9 6.1-2.8zm-3.1-6.4h2.8v-3.2h-2.8zm0 4.6h2.8v-3.3h-2.8zm4-4.6h2.8v-3.2h-2.8zm0 4.6h2.8v-3.3h-2.8zm3.7 1.9c2.1.9 4.1 1.8 6.1 2.7l-.7 1.3c-2.2-1.1-4.2-2-6.1-2.9zm3.2-9.7h-2.8v3.2h2.8v-3.1zm-2.8 7.8h2.8v-3.3h-2.8z" fill="#fbfafc"/><g fill="#010000"><path d="m243.03 340.01c-16.5 0-32.81-.15-49.12.11-3.64.06-7.27 2.28-10.87 2.19-6.05-.15-7.09-1.72-7.09-7.73-.02-14.67.12-29.33-.06-43.99-.09-7.77-.72-15.53-1.12-23.77 8.57 1.87 16.56 3.33 24.35 5.51 2.06.58 4.8 3.29 4.87 5.11.06 1.67-2.88 4.67-4.81 4.96-6.56.98-7.33 4.66-7.12 10.37.44 12.31.13 24.64.13 37.39h17.3c0-27.49 0-54.87 0-82.72-8.52 0-16.98-.47-25.37.1-14.84 1.03-14.82 1.29-19.84-12.59-.09-.26.05-.61.01-.27 15 1.02 29.96 2.04 45.28 3.08 0-13.89 0-26.48 0-39.41-6.03 0-11.93 0-18.18 0-.1.73-.27 1.5-.3 2.27-.24 7.68-5 11.19-12.22 8.49-1.7-.64-3.84-3.13-3.85-4.78-.21-34.83-.14-69.66-.11-104.49 0-.28.26-.57.67-1.4 5.39 2.87 10.55 6.33 16.21 8.42 5.39 1.99 11.3 2.55 17.64 3.87 0-9.62 0-17.64 0-26.54-10.59.49-21.02.73-31.4 1.59-3.3.27-4.85-.29-5.93-3.42-1.28-3.71-3.08-7.25-4.64-10.83 14.15 1.26 27.93 2.49 41.91 3.73 0-15.53 0-29.76 0-45.35 10.33 2.9 20.57 5.31 30.46 8.75 5.03 1.75 4.79 6.93-.12 9.31-3.09 1.5-6.71 1.9-9.86 3.31-1.43.64-3.19 2.49-3.27 3.88-.36 6.13-.15 12.3-.15 18.62 4.28 1.43 7.52 1.22 10.76-2.39 3.97-4.43 8.73-8.14 13.38-12.37 5.95 5.01 12.84 10.52 19.32 16.49 1.49 1.37 2.2 4.41 1.93 6.51-.13 1.01-3.37 2.26-5.22 2.29-11.33.21-22.66.11-33.99.11-1.8 0-3.6 0-5.79 0v24.25c12.43 4.62 19.69-2.48 25.86-12.56 6.4 4.62 12.47 8.66 18.13 13.22 3.94 3.19 3.72 7.92-.95 9.57-8.6 3.03-8.72 9.09-8.54 16.47.52 21.64.61 43.29.57 64.93-.01 2.62-1.34 7-2.98 7.48-3.73 1.11-8.05.47-12.1.15-.67-.05-1.52-2.03-1.69-3.2-.28-1.96-.08-3.98-.08-6.35-6.08 0-11.99 0-18.26 0v38.16c6.71 1.35 12.52.95 16.94-5.12 2.32-3.18 5.42-5.79 8.35-8.84 7.35 5.54 14.46 10.71 21.31 16.21 1.27 1.02 2.55 3.97 1.97 4.91-.99 1.62-3.4 3.28-5.25 3.32-12.49.29-24.99.15-37.49.15-1.81 0-3.62 0-5.8 0v83.01h16.43c0-20.1 0-39.98 0-61.1 8.7 2.23 17.29 4.28 25.76 6.75 1.31.38 2.88 2.67 2.85 4.06-.02 1.37-1.75 3.69-3.01 3.9-9.07 1.48-9.22 7.54-8.96 14.86.48 13.48.33 27-.02 40.49-.07 2.82-1.37 6.5-3.42 8.2-6.03 5-12.11 1.78-13.41-7.33zm-33.55-191.41c0-10.11 0-19.68 0-29.26-6.26 0-12.16 0-18.07 0v29.26zm17.22-.08h17.91c0-9.98 0-19.66 0-29.26-6.15 0-11.91 0-17.91 0zm18.06 10.81c-6.18 0-12.04 0-17.92 0v27.97h17.92c0-9.36 0-18.44 0-27.97zm-53.45-.16v28.1h18.15c0-9.53 0-18.74 0-28.1-6.14 0-11.92 0-18.15 0z"/><path d="m87.84 155.17c0-16.4 0-32.21 0-48.38-7.85 0-15.58 0-23.59 0-.09 1.59-.22 3.05-.24 4.5-.34 35.97.03 71.97-1.21 107.91-1.17 34.02-2.91 68.16-12.78 101.1-3.23 10.77-7.94 21.1-12.29 31.5-1.77 4.24-4.39 8.12-6.57 12.06-4.91-1.3-5.6-3.61-3.99-8.07 9.99-27.86 14.83-56.71 16.94-86.21 4.02-56.06 2.72-112.17 2.69-168.27 0-4.96-.54-9.93-.87-15.72 7.06 4.01 13.17 9.19 20.14 10.99 7.18 1.85 15.2.41 23.12.41 0-22.69 0-45.09 0-68.5 7.86 1.82 15.67 3.55 23.43 5.47 2.06.51 4.09 1.44 5.93 2.52 4.51 2.66 4.67 6.7.12 9.29-2.83 1.62-6.26 2.16-9.27 3.52-1.27.57-2.98 1.94-3.06 3.06-.35 4.6-.14 9.24-.14 15.38 5.71-1.05 11.32-.84 15.5-3.18 4.44-2.49 7.52-7.39 11.5-11.56 6.95 5.13 13.62 9.76 19.88 14.88 1.63 1.33 1.99 4.21 2.93 6.38-2.14.92-4.26 2.59-6.42 2.63-12.5.25-25 .12-37.5.12-1.79 0-3.59 0-5.64 0v19.97c10.33 0 20.59.13 30.84-.15 1.39-.04 2.89-1.94 4.04-3.24 2.09-2.36 3.96-4.92 6.49-8.12 6.73 5.09 13.63 9.9 20.04 15.3 3.52 2.96 3.06 6.96-.92 7.75-13.54 2.71-20.02 14.11-29.11 22.31-.98.88-1.94 1.79-2.89 2.67-5.3-1.55-5.67-4.26-3.13-8.76 3.14-5.57 5.55-11.56 8.55-17.97-15.14 0-29.44 0-43.74 0-.03.21-.07.42-.1.63 4.85 1.5 9.88 2.59 14.46 4.67 2.52 1.15 5.52 3.69 6.08 6.11.86 3.73-3.03 5.48-6.07 5.94-6.02.92-7.1 4.29-6.69 9.66.46 6.07.11 12.19.11 18.15 6.64 1.17 10.35-1.34 12.78-6.74 1.47-3.27 3.71-6.2 5.81-9.6 7.06 4.17 13.83 8.01 20.39 12.17 1.3.83 2.89 3.33 2.48 4.27-.72 1.68-2.67 3.56-4.42 3.96-8.56 1.95-17.24 3.44-25.87 5.1-3.57.69-7.15 1.4-11.1 2.17 0 5.01-.36 9.84.08 14.6.77 8.42 5.57 13.19 14.1 12.9 7.71-.26 15.48-1.48 23.01-3.2 4.7-1.08 8.2-.14 11.38 2.9 4.54 4.35 4.14 10.22-1.63 12.66-5.53 2.34-11.72 4.06-17.67 4.23-9.87.29-19.97.09-29.64-1.69-10.13-1.87-14.67-8.52-15.18-18.94-.33-6.62-.06-13.26-.06-20.42-2.25.32-3.66.51-5.07.72-10.57 1.52-10.57 1.52-15.55-8.95 6.44-.94 12.8-1.88 19.59-2.89z"/><path d="m374.36 343.44c-.62 4.21-2.04 5.75-6.91 5.44-3.77-.24-7.82 2.82-11.6 4.7-1.58.79-2.79 2.32-4.97 4.19-11.08-15.33-22.05-30.51-33.39-46.19-12.62 21.49-31.98 36.87-53.45 50.61-.75-1.8-1.43-3.42-1.98-4.74 8.15-8.63 16.9-16.46 23.88-25.64 8.41-11.07 15.39-23.24 22.8-35.05.83-1.33 1.16-3.67.59-5.09-10.81-26.77-17.81-54.54-21.72-83.42-10.98 1.71-7.77-8.47-12.5-13.57 5.86.51 10.54 1.12 15.23 1.27 12.97.43 25.95.75 38.92.85 1.66.01 3.73-1.12 4.91-2.38 3.4-3.62 6.44-7.58 10.05-11.92 6.65 5.55 13.33 10.7 19.49 16.41 4.18 3.87 3.26 7.65-1.75 10.32-.15.08-.29.19-.44.22-9.06 1.96-11.25 8.31-12.7 16.76-3.74 21.8-9.8 43.06-19.31 63.14-1.67 3.53-1.38 5.96.79 9.02 11.62 16.45 25.23 30.93 41.51 42.85.93.69 1.74 1.52 2.55 2.22zm-58.41-68.74c.56-.08 1.12-.15 1.68-.23 6.62-13.81 16.13-56.44 14.93-67.06-12.05 0-24.11 0-37.73 0 7.19 22.91 14.16 45.1 21.12 67.29z"/><path d="m327.34 60.42c-6.53 0-12.61 0-19.32 0 .47 43.68-1.87 86.66-28.18 124.09-5.04-1.1-5.66-3.67-3.9-8.55 7.48-20.74 11.53-42.26 12.97-64.24.84-12.77 1.54-25.56 1.56-38.35.03-11.79-.94-23.57-1.44-35.36-.04-.92.11-1.84.22-3.54 6.96 4.75 13.35 9.16 19.79 13.5 5.97 4.02 14.76 2.83 19.5-2.57 2.62-2.98 5.24-5.96 8.1-9.2 6.4 4.4 12.8 8.32 18.63 12.95 5.16 4.1 4.75 7.19-.46 11.16-.79.6-1.54 1.5-2.43 1.71-8.02 1.91-8.16 7.68-8.08 14.45.31 24.15.12 48.3.12 72.45 0 1.17-.04 2.33.02 3.5.38 7.49 2.69 9.63 10.3 9.13 3.13-.2 6.24-.82 9.33-1.39 6.9-1.26 10.73.79 11.86 6.46 1.07 5.38-2.08 9.7-8.64 10.39-7.74.81-15.61 1.33-23.36.91-10.13-.55-16.17-7.75-16.28-18.47-.15-14.16-.04-28.31-.04-42.47 0-16.99.01-33.98-.01-50.97-.02-1.8-.17-3.59-.26-5.59z"/><path d="m134.09 238.08v79.75c8.57-8.58 16.78-16.8 25.2-25.23 1.78 1.57 3.23 2.86 5.3 4.7-4.12 7.12-8.15 14.32-12.42 21.37-2.92 4.83-6.5 9.29-9.15 14.25-1.45 2.71-1.65 6.11-2.33 9.22-.75 3.42-1.39 6.87-2.08 10.3-3.03-1.63-6.65-2.67-8.96-5.01-5.11-5.2-9.56-11.05-13.63-15.87.62-3.5 1.49-6.14 1.5-8.79.1-29.48.11-58.96.02-88.44-.02-5.78-.55-11.56-.92-18.7 10.38 2.89 20.06 5.41 29.6 8.4 1.63.51 3.72 3.08 3.64 4.58-.11 1.87-1.88 4.4-3.62 5.25-3.79 1.87-8.03 2.86-12.15 4.22z"/><path d="m78.11 213.01c8.32 2.06 16.46 3.73 24.34 6.22 2.62.83 6.21 3.6 6.4 5.74.18 2.15-2.9 5.86-5.31 6.69-6.76 2.31-7.28 6.91-7.62 13.01-1.31 23.19-2.49 46.48-9.87 68.8-5.71 17.25-15.33 32.35-26.53 47.07-1.78-1.53-3.36-2.9-5.23-4.52 24-44.94 25.53-93.54 23.82-143.01z"/></g></svg>