<svg enable-background="new 0 0 400 400" viewBox="0 0 400 400" xmlns="http://www.w3.org/2000/svg"><g fill="#010105"><path d="m84.77 312.98c0-27.98 0-55.11 0-82.61-9.34 0-18.57 0-27.84 0-2.29 8.55-6.87 11.52-13.98 9.05-3.53-1.22-5.62-3.38-5.36-7.36.58-8.79 1.17-17.58 1.62-26.38.15-2.95-.19-5.93-.2-8.9-.04-29.99-.06-59.99-.07-89.98 0-.97.12-1.94.2-3.05 8.32 3.67 16.16 8.3 24.62 10.49 6.51 1.69 13.82.34 20.7.34 0-24.57 0-48.47 0-72.86 9.27 2.21 18.52 4.1 27.54 6.77 2.54.75 4.4 3.79 6.57 5.78-2.24 2.22-4.18 4.98-6.82 6.52-2.74 1.6-7.69 1.14-8.91 3.21-1.62 2.75-.65 7.08-.66 10.73-.04 12.99-.01 25.97-.01 39.75 9.02 0 17.78.1 26.53-.12 1.18-.03 2.47-1.53 3.45-2.58 3.29-3.52 6.46-7.14 10.02-11.11 6.18 4.13 12.42 7.9 18.19 12.28 5.84 4.44 5.34 10.67-1.65 13.02-8.02 2.69-8.97 7.52-8.82 14.91.47 22.49.25 44.99.09 67.48-.03 3.41 1.02 5.55 3.78 7.38 2.9 1.92 5.77 4.01 8.19 6.48 3.47 3.54 2.51 6.23-2.33 7.2-1.94.39-3.95.54-5.93.54-15.16.04-30.33.02-45.49.02-1.8 0-3.61 0-5.71 0v77.91c11.84-3.78 23.24-7.41 35.83-11.43-4.98-9.69-9.49-18.46-14.18-27.59 1.09-1.02 2.53-2.37 4.39-4.1 12.48 13.47 26.11 25.9 32.69 43.52 1.63 4.36 1.91 9.42 1.84 14.15-.08 5.81-5.78 10.26-11.57 9.9-4.45-.28-5.68-3.67-6.5-7.11-1.5-6.29-2.71-12.65-4.06-18.98-.13-.6-.42-1.16-.72-1.97-11.25 5.11-22.07 10.62-33.34 14.99-18.09 7.03-36.45 13.35-54.74 19.83-2.63.93-4.39 1.85-4.07 5.08.17 1.75-.15 3.67-.75 5.33-1.65 4.61-5.07 5.31-7.47 1.14-4.78-8.3-8.93-16.98-13.39-25.61 19.82-4.07 38.91-8.03 58.32-12.06zm47.97-93.73c0-31.61 0-62.88 0-94.39-10.22 0-20.25 0-30.24 0v94.39zm-48.01-.01c0-31.61 0-62.88 0-94.39-9.56 0-18.92 0-28.23 0v94.39z"/><path d="m227.79 89.47c-9.4 0-17.68 0-26.26 0-1.18 6.35-1.98 12.76-3.6 18.96-2.58 9.87-6.67 18.87-16.89 23.35-3.61 1.58-7.05 2.15-10.03-1.17-2.98-3.31-3.89-7.05-1.29-10.91 2.22-3.29 4.57-6.59 7.36-9.39 11.06-11.13 15.01-25.14 16.84-40.09.44-3.61.85-7.22 1.31-11.1h7.91c-.38 6.84-.74 13.42-1.12 20.41h60.07c-3.49-8.31-6.23-16.65-10.39-24.22-4.12-7.51-9.65-14.25-15.02-21.99 1.46-1.13 3.26-2.52 6.18-4.79 9.07 8.23 18.79 16.76 28.1 25.71 2.39 2.3 4.03 5.76 5.1 8.99 1.94 5.83 2.77 11.8-4.9 16.31 2.67.19 4.05.38 5.44.38 17.16.02 34.32-.08 51.48.09 3.33.03 5.63-.94 7.65-3.51 2.66-3.38 5.6-6.53 8.67-10.07 6.47 5.07 12.86 9.61 18.61 14.85 1.99 1.81 3.86 5.86 3.13 7.96-.76 2.17-4.73 4.48-7.33 4.51-7.22.09-11.37 3.82-15.18 9.3-5.6 8.04-11.77 15.68-18.02 23.92-2.15-1.37-3.88-2.47-5.45-3.47 4.25-11.31 8.37-22.26 12.7-33.76-11.53 0-22.26 0-33.45 0 0 5.44-.06 10.7.01 15.95.17 13.31.2 26.63.66 39.93.26 7.46 5.64 13.18 13.08 14.14 11.29 1.46 22.66 1.27 33.52-2.23 8.47-2.73 12.59 2 14.08 9.3.77 3.78-2.09 5.65-5.08 6.2-7.47 1.37-15 2.63-22.57 3.22-11.92.92-23.85 1.28-35.32-3.35-11.28-4.56-15.19-10.08-15.21-22.34-.03-14.83.06-29.66-.04-44.48-.04-5.3-.49-10.6-.78-16.28-15.26 0-30.46 0-45.65 0-.12.24-.24.48-.36.71 3.24 1.69 6.5 3.33 9.7 5.09s6.51 3.4 9.4 5.57c1.37 1.03 2.94 3.54 2.55 4.76-.54 1.66-3.05 4-4.44 3.84-12.53-1.51-15.02 7.73-18.59 16.33-11.45 27.52-31.95 46.01-58.7 58.38-.86-.9-1.59-1.56-2.18-2.33-.6-.78-1.06-1.68-1.99-3.2 32.99-20.51 47.82-52.49 56.29-89.48z"/><path d="m154.43 368.65c-.56-2.31-1.02-4.2-1.58-6.53 48.36-20.44 82.58-52.8 89.99-107.13-22.4 0-44.92 0-68.3 0-1.72-3.83-3.88-8.62-6.35-14.09 25.85 4.89 51.29 2.35 78.09 3.16.79-19.89 1.56-39.4 2.36-59.55 9.37 1.77 18.82 3.38 28.17 5.47 1.64.37 3.79 2.58 3.98 4.15.2 1.62-1.48 3.7-2.78 5.18-.91 1.04-2.51 1.71-3.92 2.02-6 1.31-7.93 4.9-8.03 10.98-.18 10.27-1.36 20.53-2.16 31.31 1.05.09 2.44.3 3.83.31 18.99.04 37.99.16 56.98-.05 2.26-.03 4.96-1.42 6.67-3.02 5.1-4.74 9.8-9.9 14.84-15.08 7.47 6.82 14.58 13.1 21.37 19.71 1.42 1.38 2.74 4.49 2.1 5.92-.63 1.44-3.74 2.46-5.79 2.5-12.16.23-24.32.11-36.49.12-17.99.02-35.99.04-53.98.06-1.46 0-2.92 0-4.79 0 .34 1.24.43 2.06.78 2.76 10.24 20.66 22.08 40.26 37.92 57.2 17.06 18.24 38.17 29.01 62.48 33.95 6.85 1.39 6.83 1.52 6.11 8.81-1.84.1-3.77.17-5.69.33-6.19.5-11.91 2.43-15.64 7.56-2.19 3.02-3.97 2.49-6.66 1.23-18.26-8.52-33.35-21.23-47.09-35.64-17.91-18.77-29.11-41.55-38.26-65.47-.41-1.08-.76-2.19-1.2-3.26-.12-.28-.43-.49-1.31-1.43-11.71 59.32-49.3 92.93-105.65 108.52z"/><path d="m289.6 188.36c.83-1.46 1.7-2.99 3.31-5.81 10.59 6.64 21.13 12.57 30.84 19.66 3.84 2.8 6.36 7.91 8.47 12.44 1.88 4.02-.79 9.74-4.09 11.11-3.59 1.5-8.3-.65-11.03-4.65-4.94-7.25-9.76-14.63-15.25-21.46-3.27-4.07-7.72-7.19-12.25-11.29z"/></g><path d="m378.6 9.2.8-1c.9.7 1.9 1.4 2.9 2.3l-.9 1.1c-1.1-.9-2-1.7-2.8-2.4zm.5 10.7c.9-2.1 1.6-4.3 2.3-6.7.4.2.8.4 1.3.6-.7 2.1-1.5 4.3-2.2 6.6zm.4-15.2.9-.9c1 .8 2 1.6 2.8 2.4l-1 1c-1-.9-1.9-1.8-2.7-2.5zm12.5-1.3h1.2v1.4h2.7v1.1h-2.7v2.7h-1.2v-.5h-1.8v1.3h4.9v3.8h-1.2v-.5h-3.7c0 .4-.1.9-.1 1.2h5.1v1h-5.2c0 .5-.1.9-.2 1.2h6v1h-5.2c1.1 1.3 2.9 2 5.5 2.2-.4.4-.7.8-.9 1.3-2.9-.5-4.8-1.6-5.7-3.5h-.1c-.8 1.7-2.7 2.9-5.9 3.6-.2-.4-.6-.8-.9-1.1 2.8-.6 4.6-1.4 5.4-2.5h-4.8v-1h5.3c.1-.3.2-.7.2-1.2h-4.9v-1h5c0-.4 0-.8.1-1.2h-3.6v.5h-1.2v-3.8h4.9v-1.3h-1.8v.5h-1.2v-2.7h-2.6v-1.1h2.6v-1.4h1.2v1.4h4.7v-1.4zm-6.7 8.4h3.6c0-.4 0-.9 0-1.4h-3.6zm1.9-4.7h4.7v-1.2h-4.7zm6.7 3.3h-3.7v1.4h3.7z" fill="#fafbfa"/><path d="m384.7 21.4h1.3v2.2h2.8v-2.2h1.3v2.2h4.1v9.1h1.7v1.3h-16.9v-1.3h1.7v-9.1h4.1v-2.2zm.3 13.2.7 1.2c-1.8.9-3.8 1.9-6 2.9-.2-.4-.5-.8-.8-1.3 2.4-1 4.4-2 6.1-2.8zm-3.1-6.5h2.8v-3.2h-2.8zm0 4.6h2.8v-3.3h-2.8zm4.1-4.6h2.8v-3.2h-2.8zm0 4.6h2.8v-3.3h-2.8zm3.6 1.9c2.1.9 4.1 1.8 6.1 2.7l-.7 1.3c-2.2-1.1-4.2-2-6.1-2.9zm3.3-9.7h-2.8v3.2h2.8zm-2.8 7.8h2.8v-3.2h-2.8z" fill="#fafbfa"/></svg>