<svg enable-background="new 0 0 400 400" viewBox="0 0 400 400" xmlns="http://www.w3.org/2000/svg"><g fill="#010104"><path d="m137.17 369.9c-.61-2.44-1.01-3.54-1.15-4.68-1.02-8.36-5.65-13.7-13.64-16.01-5.42-1.57-10.94-2.77-16.41-4.13-1.58-.39-3.16-.78-4.68-1.15.34-2.47.63-4.58 1.03-7.51 6.5.97 12.96 2.03 19.46 2.87 5.43.7 10.89 1.44 16.35 1.6 5.39.16 8.68-2.71 8.76-8.07.34-21.14.34-42.28.45-63.42 0-.14-.15-.29-.44-.83-27.33 0-54.88 0-82.95 0-.95 8.85-1.87 17.75-2.87 26.63-3.18 28.13-12.15 54.05-29.45 76.76-.29.38-.75.64-1.25 1.04-.81-.56-1.64-1.1-2.43-1.69-.66-.5-1.26-1.06-2.18-1.83 2.16-4.81 4.33-9.6 6.48-14.39 8.11-18.09 11.98-37.18 13.75-56.82 5.16-57.2 1.88-114.53 2.81-171.8.01-.61-.1-1.22-.27-2.98-5.35 6.22-10.03 11.67-14.99 17.43-1.63-1.45-3.06-2.73-4.65-4.15 21.57-32.39 35.65-67.58 42.65-106.42 9.32 2.6 18.26 4.93 27.03 7.73 1.29.41 2.67 3.16 2.54 4.7-.12 1.51-2.1 4.06-3.31 4.09-10.31.21-13.9 7.03-16.16 15.46-.46 1.72-1.3 3.34-2.2 5.59 13.74 0 26.85.07 39.97-.11 1.35-.02 2.9-1.37 3.98-2.47 2.67-2.72 5.12-5.65 8.04-8.92 6.02 4.9 12 9.37 17.49 14.38 4.46 4.06 3.8 6.81-1.51 9.49-1.04.52-2.13 1.31-3.21 1.33-7.22.13-9.58 5.23-12.35 10.75-6.08 12.14-12.82 23.96-19.63 36.53 10.43 0 20.65.1 30.86-.12 1.3-.03 2.79-1.55 3.81-2.72 2.72-3.1 5.22-6.39 8.22-10.11 5.7 4.28 11.34 8.07 16.44 12.48 4.73 4.09 4.58 8.03-1.05 10.53-6.68 2.96-7.26 7.5-7.24 13.8.2 61.16.09 122.33.15 183.49.01 10.85-2.14 20.72-11.93 26.95-4.22 2.71-9.15 4.34-14.32 6.7zm-85.18-250.13c3.56 2.51 7.13 5.23 10.92 7.61 1.44.91 3.36 1.46 5.07 1.49 10.32.13 20.65-.06 30.98.15 2.91.06 4.15-1.15 5.07-3.57 4.62-12.25 9.35-24.46 13.94-36.73 1.24-3.32 2.15-6.76 3.36-10.64-15.2 0-29.51-.04-43.82.07-1.09.01-2.67.77-3.18 1.66-7.44 13.12-14.75 26.33-22.34 39.96zm95.27 138.03c0-18.34 0-36.23 0-54.24-11.35 0-22.36 0-33.54 0v54.24zm-33.56-64.54h33.48c0-18.19 0-36.05 0-53.93-11.34 0-22.26 0-33.48 0zm-16.44 64.54c0-18.35 0-36.23 0-54.23-10.85 0-21.37 0-32.37 0v54.23zm.02-118.46c-10.87 0-21.29 0-31.85 0v53.92h31.85c0-18.04 0-35.76 0-53.92z"/><path d="m270.04 324.17c-24.87 18.47-50.97 32.11-78.56 42.93-3.51-6-3.35-5.76 2-9.29 20.27-13.35 40.43-26.86 60.61-40.35 1.36-.91 2.49-2.14 4.01-3.48-1.14-1.23-2.09-2.31-3.1-3.34-14.81-15.1-29.58-30.26-44.54-45.21-1.66-1.66-4.45-2.16-6.68-3.26-1.18-.58-2.82-1.03-3.35-2.02-2.01-3.78-3.65-7.75-5.56-11.94 35.21 5.11 70.2 1.78 105.08 2.88 4.81.15 8.2-1.11 11.01-4.98 2.14-2.93 4.82-5.46 7.46-8.39 6.15 4.34 12.28 8.34 18.04 12.81 5.78 4.48 4.95 10.09-1.93 12.35-5.64 1.85-9.54 5.23-13.36 9.67-12.36 14.37-25.21 28.31-38.18 42.76 8.35 6.6 17.55 13.67 26.5 21.02 5.52 4.53 11.29 9 15.82 14.43 3.22 3.85 5.2 9.1 6.51 14.05.9 3.4-1.14 7.34-4.95 8.19-2.7.6-6.51.23-8.63-1.33-5.19-3.83-9.86-8.43-14.43-13.02-11.25-11.31-22.36-22.81-33.77-34.48zm-51.49-62.58c17.65 14.75 34.2 28.58 50.7 42.36 11.55-9.44 34.55-36.11 36.65-42.36-28.68 0-57.39 0-87.35 0z"/><path d="m292.83 163.22c-17.49 0-34.25 0-52.19 0 .74 38.8-19.1 62.83-55.09 75.1-.81-1.39-1.61-2.78-2.51-4.33 4.96-3.68 9.8-7.13 14.49-10.77 15.26-11.87 24.02-27.52 25.27-46.75.81-12.54.15-25.18.15-38.85 6.22 4.66 11.71 9 17.45 12.96 1.9 1.31 4.45 2.28 6.72 2.32 12.65.22 25.32-.01 37.97.19 3.2.05 5.24-1.02 7.15-3.43 2.68-3.37 5.69-6.48 9.24-10.47 6.6 4.69 13.31 9.15 19.64 14.09 3.14 2.46 2.97 5.83-.15 8.55-1.61 1.41-3.32 3.04-5.28 3.66-5.82 1.85-7.08 5.63-6.66 11.34.54 7.45.09 14.98.14 22.47.06 9.27 4.52 14.01 13.85 13.55 5.89-.29 11.76-1.74 17.55-3.04 5.6-1.26 13.93 3.59 14.03 9.22.04 2.14-2.27 5.45-4.3 6.26-4.7 1.88-9.83 3.2-14.87 3.58-7.78.59-15.64.52-23.45.15-12.78-.6-18.78-6.76-19.01-19.46-.25-13.49-.13-26.98-.16-40.47.01-1.79.02-3.59.02-5.87z"/><path d="m174.13 179.09c-1.49-1.7-2.67-3.05-4.15-4.73 15.28-15.14 28.38-31.75 39.61-50.94-5.74.44-8.72-2.47-10.45-6.63-4.97-11.9-14.32-19.82-24.31-27.18-1.72-1.27-3.43-2.56-6.71-5.02 2.87-1.1 5.01-2.76 6.19-2.24 10.15 4.47 20.29 9.01 30.09 14.2 5.73 3.04 9.44 8.31 10.67 15.06.46.05.93.1 1.39.15 6.08-15.69 12.16-31.38 18.55-47.85-2.59-.25-3.99-.54-5.37-.49-15.45.5-30.9 1-46.35 1.66-2.8.12-4.64-.25-5.7-3.26-1.26-3.56-3.09-6.91-5.04-11.15 5.67.49 10.54 1.14 15.43 1.3 13.8.45 27.61.77 41.41.91 1.55.02 3.43-1.13 4.6-2.29 3.42-3.39 6.55-7.06 9.96-10.79 6.82 5.03 13 9.24 18.78 13.95 5.08 4.13 4.65 7.32-.8 10.98-.14.09-.26.24-.41.28-8.36 2.06-10.69 9.02-13.95 15.87-7.63 16.05-15.33 32.15-24.41 47.39-12.16 20.43-30.01 35.86-49.03 50.82z"/><path d="m319.47 43.78c6.44 4 12.63 7.59 18.49 11.66 1.82 1.27 2.75 3.83 4.08 5.8-2.01 1.13-4.14 3.39-6.02 3.21-9.17-.9-15.61 4.43-22.57 8.81-4.21 2.65-8.61 5-13.63 7.9 4.51 7.95 9.03 15.92 14.24 25.09 10.2-9.65 19.68-18.62 29.67-28.07 6.46 4.41 13.41 8.9 19.99 13.87 1.46 1.1 2.54 4.16 2.1 5.89-.34 1.36-3.64 3.26-5.03 2.87-13.08-3.72-23.35 4.03-34.53 7.99-2.29.81-4.5 1.83-7.2 2.94 9.71 12.27 21.09 21.82 34.41 28.96 5.7 3.06 11.67 5.74 17.76 7.9 3.89 1.38 4.99 3.29 3.59 7.42-10.42-.61-20 1.67-26.56 10.69-43.36-31.5-60.6-77.01-70.51-127 2.26-.7 4.26-1.32 6.83-2.12 3.89 11.93 7.71 23.65 11.73 35.97 10.15-8.39 17-18.47 23.16-29.78z"/></g><path d="m2.6 9.9.8-1c.9.7 1.9 1.4 2.9 2.3l-.9 1.1c-1.1-1-2-1.8-2.8-2.4zm.5 10.6c.9-2.1 1.6-4.3 2.3-6.7.4.2.8.4 1.3.6-.7 2.1-1.5 4.3-2.2 6.6zm.3-15.2.9-.9c1 .8 2 1.6 2.8 2.4l-1 1c-.9-.9-1.8-1.7-2.7-2.5zm12.6-1.2h1.2v1.4h2.7v1.1h-2.7v2.7h-1.2v-.6h-1.8v1.3h4.9v3.8h-1.2v-.5h-3.7c0 .4-.1.9-.1 1.2h5.1v1h-5.2c0 .5-.1.9-.2 1.2h6v1h-5.2c1.1 1.3 2.9 2 5.5 2.2-.4.4-.7.8-.9 1.3-2.9-.5-4.8-1.6-5.7-3.5h-.1c-.8 1.7-2.7 2.9-5.9 3.6-.2-.4-.6-.8-.9-1.1 2.8-.6 4.6-1.4 5.4-2.5h-4.8v-1h5.3c.1-.3.2-.7.2-1.2h-4.9v-1h5c0-.4 0-.8.1-1.2h-3.6v.5h-1.2v-3.8h4.9v-1.3h-1.8v.5h-1.2v-2.7h-2.7v-1h2.7v-1.4h1.2v1.4h4.8zm-6.7 8.3h3.6c0-.4 0-.9 0-1.4h-3.6zm1.9-4.6h4.8v-1.3h-4.7v1.3zm6.7 3.2h-3.7v1.5h3.7z" fill="#fbfafa"/><path d="m8.7 22.1h1.3v2.2h2.8v-2.2h1.3v2.2h4.1v9.1h1.7v1.3h-17v-1.3h1.7v-9.1h4.1zm.3 13.1.7 1.2c-1.8.9-3.8 1.9-6 2.9-.2-.4-.5-.8-.8-1.3 2.3-1 4.4-1.9 6.1-2.8zm-3.1-6.4h2.8v-3.2h-2.8zm0 4.6h2.8v-3.3h-2.8zm4.1-4.6h2.8v-3.2h-2.8zm0 4.6h2.8v-3.3h-2.8zm3.6 1.9c2.1.9 4.1 1.8 6.1 2.7l-.7 1.4c-2.2-1.1-4.2-2-6.1-2.9zm3.2-9.7h-2.8v3.2h2.8zm-2.7 7.8h2.8v-3.4h-2.8z" fill="#fbfafa"/></svg>