<svg enable-background="new 0 0 400 400" viewBox="0 0 400 400" xmlns="http://www.w3.org/2000/svg"><path d="m377.9 391.2c-.2.3-.4.5-.6.8-.7-.6-1.4-1-2.2-1.5.2-.3.4-.5.5-.8.6.4 1.4.8 2.3 1.5zm-1.8 6.1c-.2-.2-.5-.4-.9-.6.4-.6.8-1.2 1.2-1.9s.7-1.3.9-1.9c.3.3.5.5.8.7-.7 1.3-1.4 2.6-2 3.7zm2.2-9c-.3.3-.5.5-.6.8-.6-.6-1.3-1.1-2-1.5.3-.3.5-.5.6-.7.6.5 1.3.9 2 1.4zm.3.2v-.9h2 4.5c-.3 1.3-.6 2.5-1 3.6s-.9 2.1-1.4 3c.4.5 1 1 1.6 1.4s1.2.8 1.9 1.1c-.3.2-.5.4-.8.8-.4-.3-1-.7-1.6-1.2s-1.2-1.1-1.6-1.6c-.5.6-1.1 1.1-1.7 1.6s-1.4.9-2.1 1.4c-.1-.3-.3-.5-.7-.8.6-.2 1.2-.5 1.9-1s1.4-1.1 2-1.8c-.5-.8-.9-1.6-1.2-2.5s-.6-2-.8-3.2c-.4.1-.7.1-1 .1zm2.5 2.7c.3 1 .7 1.7 1 2.2.3-.5.6-1.1 1-2s.6-1.9.9-3h-3.2-.4c.1.9.3 1.8.7 2.8z" fill="#fbfcfa"/><path d="m396.5 388.5v1.5 3.6h1.5v.9c-.4 0-1 0-1.7 0h-7.9c-.5 0-.9 0-1.2 0v-.9h1.3v-3.5c0-.7 0-1.2 0-1.6h2.4c0-.8 0-1.4 0-1.7h1c0 .3-.1.8-.1 1.7h1.5c0-.8 0-1.4 0-1.7h1c0 .3-.1.9-.1 1.7zm-8.2 9.2c-.2-.3-.5-.5-.8-.8.8-.3 1.4-.6 1.9-.9s1-.7 1.4-1.1c.3.3.6.5.9.8-1.6 1-2.8 1.6-3.4 2zm2.6-6.8v-1.6h-1.5v1.6zm0 2.7v-1.9h-1.5v1.9zm2.4-2.7v-1.6h-1.5v1.6zm0 2.7v-1.9h-1.5v1.9zm.2 2 .7-.8c.4.2.9.5 1.6.8s1.3.7 1.8 1c-.3.3-.5.5-.8.8-.4-.3-1.5-1-3.3-1.8zm2-4.7v-1.6h-1.4v1.6zm0 2.7v-1.9h-1.4v1.9z" fill="#fbfcfa"/><g fill="#010100"><path d="m269.59 114.41c-15.88 0-30.51.1-45.13-.07-3.51-.04-3.97 2.34-4.91 4.58-9.79 23.23-21.48 45.38-37.22 65.21-1.76 2.22-3.56 4.4-5.38 6.56-.64.76-1.4 1.41-2.4 2.39-1.36-1.06-2.72-2.13-4.47-3.49 30.69-49.69 46.15-104.45 54.96-161.96 9.32 3.5 18.25 6.6 26.93 10.31 2.2.94 3.56 3.82 5.31 5.8-2.16 1.5-4.31 4.28-6.47 4.28-9.55 0-11.95 5.72-13.76 13.74-3.25 14.35-7.62 28.45-11.6 42.97 1.14.08 2.55.25 3.95.25 9 .02 17.99-.04 26.99.02 21.64.16 43.28.48 64.92.45 2.48 0 5.41-1.31 7.34-2.94 5.45-4.61 10.49-9.71 16.07-14.98 7.51 6.71 15.01 13.23 22.24 20.05 1.13 1.06 1.9 4.44 1.24 5.07-1.69 1.62-4.28 3.19-6.51 3.19-15.47-.03-30.94-.53-46.41-.75-9.47-.13-18.95-.02-29.12-.02v6.56c0 72.47-.25 144.95.17 217.42.11 19.46-11.58 29.6-27.1 31.84-.28-.46-.82-.97-.9-1.55-1.74-11.56-9.25-17.03-20.02-19.19-5.66-1.14-11.27-2.46-17.09-3.74.34-2.44.66-4.69 1.09-7.7 6.04.88 12.02 1.79 18.01 2.62 5.75.79 11.5 1.71 17.28 2.19 7.82.65 11.76-3.06 11.96-11.08.15-6.33.04-12.66.04-18.99 0-45.82 0-91.63 0-137.45-.01-20.11-.01-40.23-.01-61.59z"/><path d="m54.93 247c1.47.74 2.13.95 2.63 1.34 10.89 8.65 23.32 10.77 36.92 9.74 10.1-.76 20.31-.31 30.46-.06 3.53.09 5.93-.92 7.99-3.74 2.25-3.08 4.9-5.86 7.87-9.35 5.89 4.29 11.97 8.27 17.5 12.91 4.32 3.62 4.08 7.85-1.04 9.81-8.53 3.26-8.31 9.24-8.04 16.61.55 15.13.32 30.3.09 45.45-.06 4.1.78 7 4.6 8.93 1.74.88 3.46 2.2 4.6 3.76 1.05 1.44 1.93 3.54 1.68 5.17-.12.82-2.89 1.72-4.48 1.77-6.66.2-13.32.09-19.98.09-19.32 0-38.63 0-57.95 0-1.79 0-3.59 0-5.52 0-.12 1.7-.33 2.85-.25 3.98.79 10.83-6.03 11.2-13.06 10.53-4.54-.43-6.53-3.58-6.29-9.14.36-8.3 1.06-16.59 1.29-24.89.45-16.29.74-32.59.95-48.89.15-11.14.03-22.26.03-34.02zm17.34 21.44v71.02h59.91c0-23.9 0-47.44 0-71.02-20.15 0-39.89 0-59.91 0z"/><path d="m108.85 94.93c9.18 0 17.67.15 26.15-.12 1.89-.06 4.06-1.2 5.53-2.5 4.09-3.63 7.87-7.6 12.13-11.78 7.07 5.4 14.27 10.72 21.19 16.38 1.21.99 2.13 3.75 1.61 5.07-.55 1.41-2.88 2.32-4.61 2.99-1.16.45-2.63.09-3.96.09-32.15 0-64.29-.1-96.43.06-10.45.05-20.9.76-32.05 1.2-1.9-4.15-4.08-8.93-6.02-13.19 21.88.81 43.79 1.63 65.16 2.43-3.25-21.07-10.98-39.34-24.45-55.46 2.05-1.67 3.65-2.98 6.33-5.16 9.73 10.43 19.49 20.59 28.84 31.12 2.33 2.63 3.69 6.3 4.92 9.7 2.67 7.41 1.52 12.18-4.34 19.17z"/><path d="m217.24 176.97c9.11 3.35 17.84 6.51 26.52 9.78 1.53.58 3.04 1.42 4.29 2.47 3.53 2.95 3.05 6.4-1.28 7.93-2.78.99-5.85 1.86-8.73 1.71-4.82-.25-6.01 2.32-7.1 6.27-5.84 21.18-13.17 41.8-23.79 61.14-9.76 17.77-21.69 33.87-36.33 47.92-.7.67-1.49 1.24-2.34 1.94-1.39-1.2-2.63-2.28-4.31-3.74 29.43-40.28 44.83-86.12 53.07-135.42z"/><path d="m301.05 184.61c1.57-1.32 2.94-2.48 5.12-4.31 7.28 8.96 14.81 17.55 21.57 26.7 15.87 21.48 29.43 44.26 36.62 70.28 2.21 7.99 4 16.15 1.87 24.52-1.42 5.61-5.54 9.23-10.33 9.15-3.86-.06-7.87-3.64-8.92-8.89-1.75-8.78-2.93-17.66-4.54-26.47-5.42-29.75-18.27-56.33-34.87-81.3-2.11-3.17-4.25-6.31-6.52-9.68z"/><path d="m50.76 144.03c7.95.72 15.31 1.72 22.71 1.98 14.11.49 28.24.65 42.37.7 1.52.01 3.32-1.3 4.53-2.48 4.03-3.92 7.85-8.05 11.86-12.21 7.18 5.45 13.91 10.31 20.31 15.58 1.65 1.36 2.27 3.98 3.36 6.02-2.17 1.13-4.33 3.21-6.51 3.24-23.79.26-47.58.12-71.37.27-5.97.04-11.92.86-17.89 1.02-1.28.03-3.2-.9-3.78-1.96-2.04-3.77-3.62-7.78-5.59-12.16z"/><path d="m49.6 198.87c10.68.82 20.42 1.87 30.18 2.23 12.3.45 24.63.43 36.94.35 1.52-.01 3.3-1.4 4.51-2.6 4-3.99 7.8-8.18 11.59-12.2 6.65 4.99 12.71 9.41 18.6 14.02 2.47 1.93 6.4 3.35 5.15 7.57-1.31 4.43-5.38 3.11-8.51 3.12-20.16.08-40.32-.11-60.48.11-8.62.1-17.25.84-25.85 1.57-3.87.33-6.67-.1-7.94-4.45-.9-3.13-2.57-6.04-4.19-9.72z"/></g></svg>