<svg enable-background="new 0 0 400 400" viewBox="0 0 400 400" xmlns="http://www.w3.org/2000/svg"><path d="m377.9 391.2c-.2.3-.4.5-.6.8-.7-.6-1.4-1-2.2-1.5.2-.3.4-.5.5-.8.6.4 1.4.8 2.3 1.5zm-1.8 6.1c-.2-.2-.5-.4-.9-.6.4-.6.8-1.2 1.2-1.9s.7-1.3.9-1.9c.3.3.5.5.8.7-.7 1.3-1.4 2.6-2 3.7zm2.2-9c-.3.3-.5.5-.6.8-.6-.6-1.3-1.1-2-1.5.3-.3.5-.5.6-.7.6.5 1.3.9 2 1.4zm.3.2v-.9h2 4.5c-.3 1.3-.6 2.5-1 3.6s-.9 2.1-1.4 3c.4.5 1 1 1.6 1.4s1.2.8 1.9 1.1c-.3.2-.5.4-.8.8-.4-.3-1-.7-1.6-1.2s-1.2-1.1-1.6-1.6c-.5.6-1.1 1.1-1.7 1.6s-1.4.9-2.1 1.4c-.1-.3-.3-.5-.7-.8.6-.2 1.2-.5 1.9-1s1.4-1.1 2-1.8c-.5-.8-.9-1.6-1.2-2.5s-.6-2-.8-3.2c-.4.1-.7.1-1 .1zm2.5 2.7c.3 1 .7 1.7 1 2.2.3-.5.6-1.1 1-2s.6-1.9.9-3h-3.2-.4c.1.9.3 1.8.7 2.8z" fill="#fbfcfa"/><path d="m396.5 388.5v1.5 3.6h1.5v.9c-.4 0-1 0-1.7 0h-7.9c-.5 0-.9 0-1.2 0v-.9h1.3v-3.5c0-.7 0-1.2 0-1.6h2.4c0-.8 0-1.4 0-1.7h1c0 .3-.1.8-.1 1.7h1.5c0-.8 0-1.4 0-1.7h1c0 .3-.1.9-.1 1.7zm-8.2 9.2c-.2-.3-.5-.5-.8-.8.8-.3 1.4-.6 1.9-.9s1-.7 1.4-1.1c.3.3.6.5.9.8-1.6 1-2.8 1.6-3.4 2zm2.6-6.8v-1.6h-1.5v1.6zm0 2.7v-1.9h-1.5v1.9zm2.4-2.7v-1.6h-1.5v1.6zm0 2.7v-1.9h-1.5v1.9zm.2 2 .7-.8c.4.2.9.5 1.6.8s1.3.7 1.8 1c-.3.3-.5.5-.8.8-.4-.3-1.5-1-3.3-1.8zm2-4.7v-1.6h-1.4v1.6zm0 2.7v-1.9h-1.4v1.9z" fill="#fbfcfa"/><g fill="#010100"><path d="m205.14 311.24c-1.32-1.92-2.44-3.54-3.6-5.24 6.31-6.38 12.59-12.49 18.62-18.85 19.39-20.44 34.54-43.84 47.44-68.76.72-1.39.02-4.09-.88-5.68-19.02-33.42-40.64-65.16-62.6-96.67-1.1-1.58-1.64-3.57-2.62-5.77-5.11.47-10.88 1.17-16.66 1.43-1.41.06-3.55-.91-4.2-2.06-2.18-3.87-3.85-8.04-5.24-11.06 29.27.65 58.75 1.31 87.57 1.96-2.24-4.56-4.88-8.38-6.04-12.6-5.68-20.61-17.28-37.64-31.29-53.31-1.22-1.36-2.44-2.71-3.75-4.17.92-1.13 1.72-2.17 2.59-3.16.43-.49.98-.86 2.04-1.77 15.73 14.2 34.02 25.6 45.84 43.86 2.06 3.18 3.8 6.72 4.89 10.33 2.18 7.22 4.41 14.74-4.29 20.27h11.75c14.16 0 28.33-.1 42.49.07 3.42.04 5.8-.85 8.26-3.36 4.76-4.85 10.03-9.2 15.49-14.1 6.72 6.01 14.47 12.78 22.01 19.79 3.08 2.86 1.7 6.76-2.46 7.54-1.45.27-2.99.12-4.49.12-15.3.01-30.61 0-45.94 0-3.36 14.36-6.46 28.43-9.97 42.39-5.23 20.82-12.65 40.9-21.73 60.33-1.27 2.73-.66 4.4.67 6.75 10.99 19.35 22.15 38.62 32.47 58.32 3.13 5.98 4.34 13.16 5.39 19.96.82 5.32-3.56 10.4-8.03 11.07-4.18.63-8.43-2.42-10.17-7.78-7.43-22.83-17.8-44.36-28.87-65.58-.38-.73-.86-1.41-1.87-3.05-18.56 31.76-42.89 57.49-72.82 78.78zm3.6-201.01c22.94 30.05 45.42 59.49 68.1 89.21 11.41-28.86 18.74-58.6 24.08-89.21-30.92 0-61.17 0-92.18 0z"/><path d="m337.83 351c-2.3 0-4.09 0-5.87 0-44.15 0-88.31-.03-132.46.07-2.72.01-5.44 1.04-8.14 1.65-.81.18-1.55.67-2.35.81-10.09 1.78-12.67-.09-12.5-9.34.66-35.79 1.08-71.59 1.38-107.39.18-21.49.02-42.98-.1-64.48-.03-4.62-.58-9.23-.94-14.63 10.02 2.47 19.53 4.52 28.83 7.3 2.4.71 4.12 3.68 6.16 5.61-2.01 2.08-4 4.18-6.06 6.21-.31.3-.95.26-1.42.41-9.3 3.08-9.3 3.08-9.3 13.21v144.45 6.33h142.31c0-60.12 0-120.12 0-180.87 9.69 2.45 19.21 4.63 28.56 7.41 2.12.63 5.21 3.5 5.04 5.01-.25 2.24-2.96 4.26-4.77 6.25-.5.55-1.5.66-2.3.91-9.49 3-9.49 3-9.49 13.12 0 35.49-.29 70.98.11 106.46.23 20.1 1.77 40.19 2.26 60.3.07 3.03-1.56 7.66-3.82 8.84-3.42 1.79-8.11 1.57-12.21 1.35-1.06-.06-2.61-3.24-2.78-5.1-.41-4.41-.14-8.9-.14-13.89z"/><path d="m43.21 244.51c4.76 2.77 9.03 5.62 13.62 7.78 3.03 1.42 6.51 2.55 9.81 2.59 17.82.25 35.65 0 53.47.21 3.97.05 6.94-.66 9.32-4.09 2.07-2.97 4.74-5.52 7.69-8.87 6.07 4.51 12.23 8.69 17.91 13.45 3.6 3.02 3.32 7.39-.9 8.88-8.66 3.06-9.1 9.2-8.84 16.84.59 17.13.58 34.27.66 51.41.01 2.99.91 4.9 3.57 6.42 2.27 1.3 4.43 3.05 6.13 5.04 2.61 3.06 1.24 6.15-2.77 6.77-1.3.2-2.66.06-3.99.06-27.99 0-55.98 0-83.96 0-1.79 0-3.59 0-5.74 0 0 1.3-.05 2.09.01 2.87.26 3.49.1 6.8-3.97 8.13-4.67 1.53-9.28 1.78-12.95-2.12-.98-1.04-1.39-3-1.37-4.53.52-36.11 1.13-72.22 1.75-108.33-.01-.6.24-1.2.55-2.51zm16.27 20.94v75.14h69.12c0-25.21 0-50.08 0-75.14-23.21 0-46.09 0-69.12 0z"/><path d="m33.36 103.58c-2.06-4.53-4.23-9.3-6.05-13.31 21.34.79 42.69 1.58 63.86 2.37-1-3.41-2.17-5.99-2.48-8.66-1.82-15.88-9.1-29.32-18.35-41.92-1.16-1.58-2.25-3.21-3.31-4.74.27-.5.35-.87.58-1.07 1.25-1.09 2.54-2.14 4.59-3.84 8.08 8.01 16.28 15.93 24.23 24.1 5.41 5.56 9.25 12.12 11 19.82 1.37 6.05.23 11.14-5.9 15.63 9.8 0 18.65.1 27.49-.11 1.2-.03 2.53-1.44 3.53-2.47 3.82-3.93 7.54-7.96 11.56-12.24 7.47 5.67 14.45 10.73 21.09 16.2 1.44 1.19 2.74 4.26 2.18 5.71-.58 1.49-3.51 2.86-5.43 2.89-14.65.24-29.3.13-43.95.13-19.31 0-38.63-.15-57.94.07-8.62.09-17.23.91-26.7 1.44z"/><path d="m130.44 133.96c7.56 5.68 14.24 10.37 20.48 15.59 1.71 1.43 2.11 4.42 3.11 6.7-2.14.92-4.28 2.61-6.43 2.63-26 .2-52 .04-77.99.24-7.94.06-15.88.93-24.34 1.46-2.02-4.51-4.17-9.29-5.89-13.12 23.5.49 47.07.87 70.63 1.57 4.57.14 7.93-.99 10.82-4.55 2.89-3.6 6.22-6.86 9.61-10.52z"/><path d="m128.66 186.57c7.37 5.57 14.26 10.51 20.78 15.89 1.48 1.22 2.73 4.32 2.19 5.91-.48 1.4-3.59 2.67-5.55 2.69-18.66.2-37.32-.11-55.97.2-13.62.22-27.22 1.07-40.83 1.82-2.88.16-4.59-.47-5.63-3.34-1.29-3.56-3.03-6.95-4.88-11.12 4.43.51 8.27 1.22 12.14 1.34 20.28.63 40.56 1.15 60.85 1.52 1.55.03 3.44-1.13 4.64-2.28 4.06-3.93 7.9-8.1 12.26-12.63z"/></g></svg>