<svg enable-background="new 0 0 400 400" viewBox="0 0 400 400" xmlns="http://www.w3.org/2000/svg"><path d="m374.8 390.4.4-.4c.7.5 1.3 1 1.8 1.4l-.5.5c-.5-.6-1.1-1.1-1.7-1.5zm1 7.3-.6-.3c.5-1.4 1.1-2.8 1.5-4.3.2.1.4.2.6.3-.5 1.3-1 2.8-1.5 4.3zm-.4-10.3.4-.4c.4.3 1 .8 1.7 1.4l-.5.5c-.4-.5-1-1-1.6-1.5zm2.5.3h1.7v-1h.6v1h3.5v-1h.6v1h1.8v.5h-1.8v1.4h-2v1h3.2v2h-3.2v.9h3.3v.5h-3.4c0 .3-.1.6-.1.9h4v.5h-3.7c.7.9 1.9 1.5 3.8 1.7-.1.2-.2.4-.3.6-2.1-.4-3.5-1.1-4-2.1-.4 1-1.8 1.7-4 2.2-.1-.2-.2-.4-.3-.6 2.1-.4 3.4-1 3.8-1.8h-3.4v-.5h3.6c.1-.3.1-.6.2-.9h-3.3v-.5h3.4c0-.3 0-.6 0-.9h-3.2v-2h3.3v-1h-2.1v-1.4h-1.7v-.5zm1.1 3.5v1h2.7c0-.3 0-.4 0-.4 0-.2 0-.2 0-.2 0-.1 0-.2 0-.3h-2.7zm1.2-3v.9h3.5v-.9zm4.7 3h-2.6v.6.4h2.6z" fill="#fbfafc"/><path d="m393.6 386.7h.6v1.5h2.8v6.1h1.1v.6h-11.1v-.6h1.1v-6.1h2.7v-1.5h.6v1.5h2.1v-1.5zm-2.7 8.8.4.6c-1.2.6-2.5 1.3-3.8 1.9-.1-.2-.2-.4-.3-.6 1.2-.6 2.5-1.2 3.7-1.9zm-2.2-6.7v2.4h2.1v-2.4zm0 3v2.5h2.1v-2.5zm2.8-3v2.4h2.1v-2.4zm0 3v2.5h2.1v-2.5zm6 6.1c-1.4-.7-2.7-1.3-3.9-1.8l.3-.6c1.5.6 2.7 1.2 3.9 1.7zm-1.2-9.1h-2.1v2.4h2.1zm-2.1 3v2.5h2.1v-2.5z" fill="#fbfafc"/><g fill="#010100"><path d="m342.97 161.73c6.47 4.26 12.73 8.05 18.6 12.37 5.1 3.75 4.72 8.61-.44 12.24-.54.38-1.09.89-1.71 1.02-8.92 1.81-9.43 8-9.17 15.62.52 14.98.31 29.99.05 44.98-.07 4.02 1.25 6.52 4.45 8.65 2.04 1.36 4.01 3.07 5.45 5.03 2.17 2.95.61 5.97-3.02 6.38-1.32.15-2.66.04-4 .04-42.65 0-85.31 0-127.96 0-1.99 0-3.98 0-6.53 0-.1 2.01-.27 3.77-.27 5.53-.02 17-.03 33.99 0 50.99.02 12.16 3.48 16.8 15.48 19.52 6.12 1.39 12.46 2.43 18.72 2.52 23.28.33 46.56.44 69.84.07 5.65-.09 11.39-1.95 16.85-3.72 4.34-1.41 6.78-5.09 7.64-9.71 2.44-13.23 4.94-26.44 7.49-40.07h5.74c0 4.85.02 9.74-.01 14.64-.02 3.16.18 6.36-.21 9.49-1.22 9.82 2.04 17.39 10.01 23.44 5.31 4.03 4.93 9.52-1.26 12.18-8.13 3.5-16.76 6.29-25.44 8.01-26.36 5.21-53.05 3.46-79.61 2.16-13.7-.67-27.38-2.77-40.95-4.96-15.96-2.58-20.7-15.57-20.73-27.56-.09-39.66.06-79.31-.08-118.97-.06-16.08-.64-32.16-.99-48.45 6.22 3.46 13.13 7.5 20.23 11.16 2.4 1.24 5.28 2.16 7.94 2.16 32.47-.05 64.95-.25 97.42-.61 1.99-.02 4.37-1.25 5.86-2.67 3.6-3.42 6.78-7.28 10.61-11.48zm-73.25 24.56c-17.31 0-34.06 0-50.88 0v71.95h50.88c0-24.1 0-47.87 0-71.95zm63.68.12c-15.68 0-30.9 0-46.02 0v71.71h46.02c0-24.1 0-47.73 0-71.71z"/><path d="m100.63 287.94c-20.24 0-40.19-.08-60.15.08-3.32.03-5.65-.18-6.78-3.92-1.1-3.61-2.89-7.01-4.66-11.18 24.87 5.85 49.51 3.5 75.06 4.07 1.12-10.87 2.22-21.49 3.41-32.93-2.52 0-4.28-.03-6.03.01-14.8.34-29.61.6-44.41 1.1-3.11.11-4.99-.64-6.08-3.68-1.28-3.57-2.92-7.01-4.04-9.64 19.65.94 39.46 1.88 59.69 2.85 0-10.27 0-19.48 0-28.55-18.31 0-36.56 0-55.56 0-1.67-3.93-3.72-8.76-5.48-12.92 20.24 1.02 40.52 2.03 60.92 3.06 0-12.78 0-24.34 0-36.47 9.28 2.37 18.61 4.5 27.75 7.27 2.27.69 5.69 3.73 5.46 5.16-.39 2.35-3.33 4.3-5.25 6.36-.3.32-.92.35-1.39.51-11.03 3.68-11.03 3.68-9.42 16.41 10.17 0 20.45.08 30.72-.11 1.21-.02 2.55-1.41 3.55-2.44 3.84-3.92 7.57-7.94 11.92-12.54 6.63 5.86 13.42 11.39 19.61 17.52 3.13 3.1 1.3 6.8-3.26 7.27-3.46.36-6.99.16-10.49.17-15.5.01-30.99 0-46.49.01-1.8 0-3.6 0-5.72 0v28.55c7.25 0 14.51.12 21.76-.12 1.18-.04 2.49-1.45 3.44-2.5 3.67-4.07 7.21-8.25 11.09-12.73 7.06 5.53 14.12 10.8 20.81 16.5 1.46 1.24 2.64 4.44 2.04 6.01-.57 1.48-3.64 2.8-5.63 2.82-15.99.22-31.99.13-47.99.13-1.8 0-3.59 0-5.51 0-1.07 10.97-2.09 21.49-3.2 32.87h12.08c7.5 0 15.65 1.83 22.31-.54 6.54-2.33 11.57-8.93 17.26-13.65.5-.41 1.05-.76 1.84-1.34 7.03 5.91 14.12 11.67 20.95 17.72 2.92 2.58 1.58 6.61-2.3 7.55-1.59.38-3.3.31-4.96.31-23.15.02-46.3.01-70 .01-9.12 43.06-39.65 66.25-77.09 83.2-3.49-3.62-2.69-5.61 1.34-8.01 18.03-10.73 34.37-23.43 45.76-41.53 5.94-9.41 11.83-24.15 13.12-32.72z"/><path d="m61 111.54h38.73c.58-26.25 1.16-52.24 1.77-79.54 10.24 2.82 20.63 5.26 30.7 8.66 4.42 1.49 4.46 5.92.34 8.43-3.34 2.03-7.38 2.86-10.91 4.64-1.44.73-3.27 2.49-3.34 3.87-.93 17.88-1.57 35.78-2.3 53.95h40.98c0-17.67 0-35.35 0-53.62 9.25 2.28 18.87 4.42 28.33 7.14 2.19.63 5.12 3.11 5.31 4.98.18 1.78-2.66 3.98-4.41 5.78-.75.78-2.07 1.02-3.14 1.46-8.64 3.51-8.62 3.51-8.65 12.77-.05 13.49-.11 26.99-.25 40.48-.08 7.79-6.35 11.68-13.35 8.01-1.51-.79-2.7-3.3-2.94-5.16-.46-3.57-.13-7.23-.13-11.31-14.21 0-27.67-.06-41.12.11-1.01.01-2.68 1.46-2.92 2.49-6.17 26.8-25.9 39.91-49.5 48.91-9.89 3.77-20.09 6.76-30.66 10.28-.93-2.49-1.66-4.43-2.33-6.22 18.13-6.83 35.45-14.75 49.96-27.72 8.31-7.42 13.75-16.51 15.81-28.31-7.12 0-14-.2-20.87.05-7.78.29-15.54 1.14-23.32 1.44-6.48.26-8.83-2.03-8.87-8.43-.1-13.66.02-27.33-.11-40.99-.05-4.77-.6-9.53-.98-15.23 10.35 2.6 20.14 4.87 29.79 7.64 1.81.52 4.13 2.96 4.25 4.65.12 1.71-2.03 3.74-3.51 5.33-.84.91-2.3 1.29-3.54 1.78-8.82 3.52-8.82 3.51-8.82 13.17z"/><path d="m213.21 40.91c5.97 4.45 11.44 8.75 17.17 12.67 1.9 1.3 4.47 2.25 6.75 2.26 24.82.16 49.64.17 74.45-.03 2.13-.02 4.68-1.34 6.27-2.86 3.59-3.42 6.7-7.35 10.59-11.72 6.71 4.69 13.47 9.12 19.88 14 3.19 2.44 2.85 6.84-.22 9.57-1.1.98-2.4 2-3.78 2.34-7.31 1.81-8.93 6.46-8.5 13.55.65 10.79.31 21.65.09 32.47-.07 3.24.89 5.24 3.65 6.89 2.25 1.35 4.54 3.01 6.04 5.09 1.11 1.54 1.67 4.18 1.14 5.93-.32 1.06-3.18 1.89-4.91 1.9-34.65.11-69.29.08-103.94.08-1.8 0-3.59 0-5.9 0 0 3.25.03 6.04-.01 8.82-.05 4.04-2.04 6.07-6.16 6.2-9.06.27-12.96-3.18-12.78-12.43.44-22.95 1.36-45.89 1.67-68.83.13-8.41-.93-16.84-1.5-25.9zm104.56 24.89c-28.79 0-57.14 0-85.34 0v57.86h85.34c0-19.36 0-38.44 0-57.86z"/></g></svg>