<svg enable-background="new 0 0 400 400" viewBox="0 0 400 400" xmlns="http://www.w3.org/2000/svg"><g fill="#010105"><path d="m122.41 306.07c.73 15.49 1.42 30.26 2.14 45.02.2 4.15.7 8.29.72 12.44.03 5.49-2.69 7.59-9.34 7.65-6.95.06-10.01-2.06-10.05-7.48-.11-17-.05-34-.06-50.99 0-1.97 0-3.94 0-6.63-2.17 0-3.93-.02-5.69 0-21.48.33-42.96.55-64.43 1.12-3.67.1-5.42-1.01-6.55-4.29-1.19-3.44-2.77-6.75-4.44-10.75 26.95 5.58 53.7 3.28 80.73 3.82 0-11.8 0-23.21 0-35.09-13.95 0-28.01 0-42.4 0-.18.7-.52 1.6-.62 2.53-.7 6.74-4.24 9.47-11.12 8.51-6.64-.92-8.81-4.41-8.09-11.14 1.09-10.07 2.15-20.2 2.26-30.31.31-26.66.1-53.33.1-79.99 0-1.98 0-3.97 0-6.73 4.88 2.74 9.01 5.49 13.48 7.46 3.66 1.61 7.73 3.21 11.63 3.24 29.66.27 59.32.06 88.99.24 4.4.03 7.59-.98 10.12-4.68 1.95-2.87 4.45-5.36 7.15-8.55 5.91 4.31 11.99 8.33 17.56 12.96 4.17 3.47 3.89 7.89-1.2 9.88-7.71 3-8.23 8.29-8.04 15.26.43 15.82-.1 31.66.22 47.49.22 11.12 1.22 22.23 1.85 33.35.46 8.09-8.02 14.1-15.55 10.85-1.24-.54-2.39-2.16-2.83-3.52-.7-2.17-.78-4.55-1.14-6.99-14.97 0-29.71 0-44.6 0v35.2c9.99 0 19.85-.77 29.53.19 12.89 1.27 23.49-1.42 30.89-12.74.44-.67 1.19-1.14 2.22-2.1 7.26 5.52 14.6 10.91 21.64 16.67 1.17.95 1.93 4.04 1.26 5.2-.85 1.47-3.35 2.75-5.16 2.79-12.49.24-24.99.13-37.49.13-14.13-.02-28.27-.02-43.69-.02zm45.84-93.62c-15.23 0-30.12 0-44.96 0v38.17h44.96c0-12.97 0-25.56 0-38.17zm.02-47.21c-15.28 0-30.03 0-44.89 0v37.31h44.89c0-12.51 0-24.74 0-37.31zm-62.82 85.52c0-13.19 0-25.77 0-38.35-14.44 0-28.5 0-42.75 0v38.35zm.11-85.39c-14.43 0-28.59 0-42.78 0v37.13h42.78c0-12.53 0-24.75 0-37.13z"/><path d="m357.97 286.33c5.32-1.27 6.52.79 6.2 5.16-.56 7.62-.65 15.27-1.01 22.91-.39 8.45 2.01 15.39 8.89 21.05 7.46 6.13 7.09 10.58-1.82 14.74-7.23 3.37-15.32 5.91-23.22 6.62-19.34 1.74-38.79 2.79-58.21 2.98-12.4.12-24.89-1.28-37.22-2.88-15.37-1.99-24.42-12.56-24.61-28.32-.28-21.99-.1-43.98-.14-65.97-.06-26.32-.01-52.64-.32-78.95-.09-8.1-1.2-16.19-1.86-24.43 6.93 3.91 13.93 7.98 21.07 11.8 1.95 1.04 4.31 1.86 6.49 1.87 27.82.12 55.64.14 83.46-.03 1.99-.01 4.39-1.22 5.87-2.64 3.69-3.55 6.96-7.54 10.63-11.61 6.16 4.18 12.22 7.95 17.89 12.24 5.73 4.34 5.41 7.97-.5 12.12-.82.57-1.61 1.37-2.52 1.58-7.6 1.78-7.88 7.23-7.73 13.68.35 14.98.33 29.99-.01 44.97-.12 5.04 1.46 8.32 5.35 11.4 2.34 1.85 3.57 5.09 5.29 7.71-3.03.89-6.05 2.53-9.08 2.55-37.15.18-74.3.12-111.45.12-1.8 0-3.59 0-5.74 0-.09 2.05-.23 3.68-.23 5.31-.02 16.49-.03 32.98 0 49.48.02 14.03 5.57 20.41 19.61 22.14 24.19 2.98 48.42 3.4 72.61-.04 9.4-1.34 14.63-6.43 16.26-15.74 1.94-11.12 3.36-22.33 5.02-33.5.29-2.12.68-4.22 1.03-6.32zm-73.75-31.06c0-24.27 0-48.13 0-72.08-13.64 0-26.91 0-40.5 0v72.08zm17.62-72.13v72.07h40.6c0-24.24 0-48.1 0-72.07-13.68 0-26.97 0-40.6 0z"/><path d="m254.99 130c0 3.19.13 5.68-.03 8.16-.39 6.18-3.81 8.54-11.22 7.89-5.79-.51-7.42-3.3-7.36-9.39.32-30.27.36-60.54.38-90.81 0-2.55-.81-5.09-1.4-8.59 6.66 4.98 12.4 9.44 18.35 13.61 1.63 1.14 3.88 1.97 5.86 1.98 20.83.14 41.66.16 62.48-.03 1.99-.02 4.06-1.47 5.92-2.57 1.1-.65 1.85-1.9 2.74-2.88 8.14-8.95 8.17-9.01 18.53-2.46 3.21 2.03 6.41 4.23 9.17 6.83 3.87 3.66 3.68 6.7-.55 9.99-2.59 2.02-5.86 3.17-8.49 5.16-1.43 1.08-3.05 3.07-3.08 4.68-.25 12.99-.26 25.99-.01 38.99.04 1.92 1.51 4.12 2.92 5.64 2.02 2.17 4.94 3.53 6.8 5.79 1.15 1.4 1.78 4.07 1.25 5.73-.37 1.16-3.11 2.18-4.79 2.19-30.46.12-60.96.09-91.45.09-1.8 0-3.61 0-6.02 0zm73.15-9.2c0-19.63 0-38.82 0-58.08-24.54 0-48.64 0-72.76 0v58.08z"/><path d="m184.62 39.44c5.5 3.97 11.24 7.69 16.47 12.02 4.8 3.96 4.43 8.66-1.32 10.86-6.63 2.53-7.77 6.68-7.48 12.97.47 10.31.26 20.65.05 30.97-.07 3.39.9 5.74 3.79 7.46 1.27.76 2.69 1.66 3.41 2.87 1.16 1.99 1.8 4.28 2.66 6.44-1.83.71-3.65 2.03-5.48 2.05-15.66.16-31.31.09-46.97.09-1.79 0-3.59 0-5.31 0-.95 8.19-4.7 11.03-12.48 9.77-4.21-.68-7.14-2.83-6.99-7.58.89-28.42 1.82-56.83 2.75-85.96 3.87 2.26 8.05 4.4 11.91 7.02 4.02 2.74 8.19 3.93 13.08 3.66 6.14-.34 12.9 1.46 18.32-.55 5.04-1.88 8.71-7.54 13.59-12.09zm-9.32 23.27c-10.68 0-20.78 0-30.93 0v51.95h30.93c0-17.35 0-34.43 0-51.95z"/><path d="m56.61 125.17c-1.22 8.18-3.19 9.93-10.53 9.85-6.56-.07-9.55-3.71-9.09-10.21.82-11.59 1.64-23.21 1.86-34.82.31-16.12.08-32.25.08-49.17 5.64 3.32 10.66 6.44 15.86 9.23 1.95 1.05 4.29 1.36 6.48 1.92.63.17 1.33.03 2 .03 6.33 0 12.71.49 18.97-.13 7.09-.7 8.33-8.8 14.24-12.45 5.48 3.99 11.46 7.89 16.88 12.45 4.43 3.74 4.08 8.12-1.35 10.08-7.7 2.78-8.23 7.96-7.94 14.71.42 9.81.24 19.65.03 29.47-.07 3.35.98 5.47 3.68 7.48 3.05 2.25 7.83 4.26 6.22 9.13-1.6 4.84-6.39 2.23-9.64 2.3-14.15.29-28.31.13-42.47.13-1.79 0-3.58 0-5.28 0zm-.13-62.41v51.75h31c0-17.48 0-34.52 0-51.75-10.59 0-20.81 0-31 0z"/></g><path d="m378.6 9.2.8-1c.9.7 1.9 1.4 2.9 2.3l-.9 1.1c-1.1-.9-2-1.7-2.8-2.4zm.5 10.7c.9-2.1 1.6-4.3 2.3-6.7.4.2.8.4 1.3.6-.7 2.1-1.5 4.3-2.2 6.6zm.4-15.2.9-.9c1 .8 2 1.6 2.8 2.4l-1 1c-1-.9-1.9-1.8-2.7-2.5zm12.5-1.3h1.2v1.4h2.7v1.1h-2.7v2.7h-1.2v-.5h-1.8v1.3h4.9v3.8h-1.2v-.5h-3.7c0 .4-.1.9-.1 1.2h5.1v1h-5.2c0 .5-.1.9-.2 1.2h6v1h-5.2c1.1 1.3 2.9 2 5.5 2.2-.4.4-.7.8-.9 1.3-2.9-.5-4.8-1.6-5.7-3.5h-.1c-.8 1.7-2.7 2.9-5.9 3.6-.2-.4-.6-.8-.9-1.1 2.8-.6 4.6-1.4 5.4-2.5h-4.8v-1h5.3c.1-.3.2-.7.2-1.2h-4.9v-1h5c0-.4 0-.8.1-1.2h-3.6v.5h-1.2v-3.8h4.9v-1.3h-1.8v.5h-1.2v-2.7h-2.6v-1.1h2.6v-1.4h1.2v1.4h4.7v-1.4zm-6.7 8.4h3.6c0-.4 0-.9 0-1.4h-3.6zm1.9-4.7h4.7v-1.2h-4.7zm6.7 3.3h-3.7v1.4h3.7z" fill="#fafbfa"/><path d="m384.7 21.4h1.3v2.2h2.8v-2.2h1.3v2.2h4.1v9.1h1.7v1.3h-16.9v-1.3h1.7v-9.1h4.1v-2.2zm.3 13.2.7 1.2c-1.8.9-3.8 1.9-6 2.9-.2-.4-.5-.8-.8-1.3 2.4-1 4.4-2 6.1-2.8zm-3.1-6.5h2.8v-3.2h-2.8zm0 4.6h2.8v-3.3h-2.8zm4.1-4.6h2.8v-3.2h-2.8zm0 4.6h2.8v-3.3h-2.8zm3.6 1.9c2.1.9 4.1 1.8 6.1 2.7l-.7 1.3c-2.2-1.1-4.2-2-6.1-2.9zm3.3-9.7h-2.8v3.2h2.8zm-2.8 7.8h2.8v-3.2h-2.8z" fill="#fafbfa"/></svg>