<svg enable-background="new 0 0 400 400" viewBox="0 0 400 400" xmlns="http://www.w3.org/2000/svg"><g fill="#010105"><path d="m167.27 246.17v34.79c11.8 0 23.41.07 35.01-.11 1.21-.02 2.53-1.38 3.56-2.37 3.95-3.79 7.8-7.68 11.92-11.76 6.99 5.32 13.97 10.43 20.65 15.89 1.37 1.12 2.7 4.13 2.12 5.33-.75 1.56-3.43 3.07-5.3 3.09-21.16.21-42.33.13-63.5.15-1.31 0-2.62.12-4.29.21v35.55c26.42-1.99 52.67-3.96 79.28-5.96.29 2.19.57 4.25.95 7.12-13.2 2.01-26.1 4.12-39.05 5.93-16.45 2.3-32.92 4.46-49.41 6.48-16.16 1.98-32.34 3.73-48.52 5.57-3.63.41-7.31.54-10.89 1.22-1.32.25-2.86 1.51-3.51 2.72-1.16 2.17-1.56 4.74-2.58 7-1.84 4.08-4.86 4.51-6.84.61-4.49-8.83-8.46-17.93-12.78-27.22 25.63-.81 50.49-1.6 75.62-2.4 0-12.53 0-24.43 0-36.33-13.88 0-27.49-.11-41.1.06-4.47.06-8.93 1.13-13.39 1.11-1.64-.01-3.92-1.45-4.77-2.91-2.08-3.57-3.49-7.52-4.81-10.51 21 .7 42.34 1.42 64.03 2.15 0-12.14 0-23.39 0-35.41-1.54 0-3.13 0-4.72 0-9.83 0-19.67-.02-29.5.01-3.99.01-7.44-.36-10.57 4.11-1.75 2.49-7.85 2.51-11.94 2.38-1.06-.03-2.78-4.84-2.81-7.47-.23-20.99-.13-41.98-.13-63.96 6.49 3.39 12.34 6.65 18.38 9.5 2.45 1.16 5.31 1.93 8.01 1.99 10.97.22 21.94.09 33.26.09 0-10.13 0-19.88 0-30.02-6.83 0-13.75 0-21.11 0-.88 5.11-4.8 7.03-9.76 7.49-5.97.55-8.24-1.63-8.17-7.71.13-11.33.27-22.66.39-33.99.02-1.63 0-3.26 0-5.42-8.27.54-16.02.85-23.73 1.64-2.89.3-4.67.1-5.8-2.92-1.39-3.71-3.23-7.24-5-11.1 11.58.92 22.71 1.8 34.03 2.69 0-13.38 0-25.92 0-39.53 9.93 2.72 19.8 5.26 29.53 8.27 1.63.5 3.48 2.98 3.64 4.69.14 1.39-1.82 3.47-3.36 4.42-2.8 1.74-5.91 3.06-9.01 4.21-2.64.98-3.46 2.57-3.3 5.29.22 3.8.06 7.62.06 11.77h53.44c0-12.71 0-25.28 0-38.65 9.8 2.63 19.55 5.08 29.18 7.97 1.74.52 4.12 2.78 4.12 4.24 0 1.84-1.74 4.37-3.45 5.36-2.95 1.71-6.52 2.3-9.7 3.68-1.26.55-3 1.88-3.08 2.96-.34 4.78-.15 9.59-.15 14.42 12.46 3.02 14.95-9.81 23.31-13.36 6.25 4.67 12.93 9.36 19.19 14.55 1.7 1.42 2.13 4.37 3.15 6.62-2.12.93-4.22 2.62-6.36 2.67-11.33.27-22.66.12-34 .14-1.61 0-3.22.14-4.72.21 0 8.4-.14 16.36.12 24.3.06 1.67 1.42 3.42 2.53 4.88.87 1.16 2.55 1.73 3.35 2.92.84 1.23 1.78 3.14 1.35 4.25-.43 1.13-2.45 2.28-3.81 2.32-9.66.27-19.32.26-28.99.34-1.96.01-3.93 0-6.19 0v30.42h23.46c.33 0 .67-.04 1 .01 11.45 1.61 21.32-.45 27.35-11.62.2-.38.8-.55 1.57-1.04 5.3 3.81 10.84 7.5 16.02 11.62 5.27 4.19 5.16 8.26-.72 11.05-5.81 2.76-8.03 6.47-7.07 12.77.57 3.75.35 7.66.16 11.48-.23 4.84-.05 9.16 5.2 11.73 1.25.61 2.47 3.6 1.98 4.8-.51 1.27-3.07 2.39-4.75 2.4-19.33.18-38.67.14-58 .15-1.95-.01-3.9-.02-6.28-.02zm-39.07-93.55h53.51c0-9.86 0-19.41 0-29.12-17.97 0-35.64 0-53.51 0zm83.4 84.15c0-11.72 0-22.93 0-34.32-14.87 0-29.41 0-44.12 0v34.32zm-61.87-.08c0-11.48 0-22.71 0-34.15-14.09 0-27.96 0-41.95 0v34.15z"/><path d="m334.92 59.22c-18.82 0-36.27 0-54.27 0-.08 1.79-.23 3.55-.23 5.31-.01 84.81-.1 169.62.1 254.43.03 11.43 1.54 22.86 2.31 34.3.17 2.49.44 5.02.16 7.48-.87 7.61-5.17 10.9-13.61 9.83-3.65-.46-6.11-2.43-5.71-6.71.18-1.98-.07-3.99-.07-5.99-.01-91.81.06-183.62-.07-275.43-.02-15.77-.87-31.54-1.36-48.22 4.78 3.48 9.49 6.43 13.61 10.05 4.18 3.66 8.64 4.8 14.11 4.66 12.99-.33 25.99-.22 38.99-.03 3.38.05 5.52-.97 7.41-3.77 2.58-3.82 5.68-7.29 8.77-11.19 6.84 5.07 13.56 9.65 19.82 14.8 5.71 4.7 4.92 10.69-2.08 12.3-9 2.07-12.29 8.1-15.63 15.63-11.87 26.71-24.25 53.19-36.7 79.64-1.7 3.62-1.13 5.39 1.74 7.84 21.64 18.51 39.82 39.83 50.31 66.64 7.76 19.84 9.05 40.55 3.96 61.28-4.81 19.61-19.48 29.27-37.54 34.96-1.72.54-3.54.74-5.59 1.15-.44-.94-1.16-1.78-1.19-2.65-.21-5.72-3.65-9.28-8.27-11.57-7.11-3.52-14.46-6.54-21.89-9.86.41-1.67.87-3.58 1.3-5.32 9.35 1.47 18.48 3.04 27.64 4.3 14.06 1.93 25.82-6.54 27.89-20.77 4.33-29.73-1.75-57.42-17.65-82.91-8.7-13.93-19.14-26.37-31.64-36.46 11.76-34.49 23.46-68.8 35.38-103.72z"/><path d="m71.41 65v6.78c-.14 62.66.21 125.32-.61 187.97-.42 31.81-5.8 62.9-22.71 90.79-3.34 5.51-7.49 10.54-11.22 15.72-4.84-1.59-4.91-4.15-2.91-7.72 11.77-20.99 17.1-43.9 18.9-67.6 1.47-19.38 2.42-38.84 2.61-58.27.39-39.99.3-79.99.04-119.99-.13-20.79-1.04-41.58-1.59-62.36-.04-1.65-.01-3.3-.01-5.86 5.38 2.8 10.18 5.58 15.22 7.82 2.92 1.3 6.23 2.43 9.37 2.44 40.33.16 80.66.06 120.99.19 3.63.01 6.31-.84 8.68-3.64 3.33-3.93 6.98-7.58 10.66-11.54 7.7 5.76 14.82 10.91 21.67 16.38 1.29 1.03 2.56 3.91 2 4.98-.89 1.72-3.21 2.87-5.14 3.8-1.09.52-2.62.11-3.96.11-51.83 0-103.66 0-155.48 0-1.97 0-3.94 0-6.51 0z"/></g><path d="m378.6 9.2.8-1c.9.7 1.9 1.4 2.9 2.3l-.9 1.1c-1.1-.9-2-1.7-2.8-2.4zm.5 10.7c.9-2.1 1.6-4.3 2.3-6.7.4.2.8.4 1.3.6-.7 2.1-1.5 4.3-2.2 6.6zm.4-15.2.9-.9c1 .8 2 1.6 2.8 2.4l-1 1c-1-.9-1.9-1.8-2.7-2.5zm12.5-1.3h1.2v1.4h2.7v1.1h-2.7v2.7h-1.2v-.5h-1.8v1.3h4.9v3.8h-1.2v-.5h-3.7c0 .4-.1.9-.1 1.2h5.1v1h-5.2c0 .5-.1.9-.2 1.2h6v1h-5.2c1.1 1.3 2.9 2 5.5 2.2-.4.4-.7.8-.9 1.3-2.9-.5-4.8-1.6-5.7-3.5h-.1c-.8 1.7-2.7 2.9-5.9 3.6-.2-.4-.6-.8-.9-1.1 2.8-.6 4.6-1.4 5.4-2.5h-4.8v-1h5.3c.1-.3.2-.7.2-1.2h-4.9v-1h5c0-.4 0-.8.1-1.2h-3.6v.5h-1.2v-3.8h4.9v-1.3h-1.8v.5h-1.2v-2.7h-2.6v-1.1h2.6v-1.4h1.2v1.4h4.7v-1.4zm-6.7 8.4h3.6c0-.4 0-.9 0-1.4h-3.6zm1.9-4.7h4.7v-1.2h-4.7zm6.7 3.3h-3.7v1.4h3.7z" fill="#fafbfa"/><path d="m384.7 21.4h1.3v2.2h2.8v-2.2h1.3v2.2h4.1v9.1h1.7v1.3h-16.9v-1.3h1.7v-9.1h4.1v-2.2zm.3 13.2.7 1.2c-1.8.9-3.8 1.9-6 2.9-.2-.4-.5-.8-.8-1.3 2.4-1 4.4-2 6.1-2.8zm-3.1-6.5h2.8v-3.2h-2.8zm0 4.6h2.8v-3.3h-2.8zm4.1-4.6h2.8v-3.2h-2.8zm0 4.6h2.8v-3.3h-2.8zm3.6 1.9c2.1.9 4.1 1.8 6.1 2.7l-.7 1.3c-2.2-1.1-4.2-2-6.1-2.9zm3.3-9.7h-2.8v3.2h2.8zm-2.8 7.8h2.8v-3.2h-2.8z" fill="#fafbfa"/></svg>