<svg enable-background="new 0 0 400 400" viewBox="0 0 400 400" xmlns="http://www.w3.org/2000/svg"><path d="m374.8 390.4.4-.4c.7.5 1.3 1 1.8 1.4l-.5.5c-.5-.6-1.1-1.1-1.7-1.5zm1 7.3-.6-.3c.5-1.4 1.1-2.8 1.5-4.3.2.1.4.2.6.3-.5 1.3-1 2.8-1.5 4.3zm-.4-10.3.4-.4c.4.3 1 .8 1.7 1.4l-.5.5c-.4-.5-1-1-1.6-1.5zm2.5.3h1.7v-1h.6v1h3.5v-1h.6v1h1.8v.5h-1.8v1.4h-2v1h3.2v2h-3.2v.9h3.3v.5h-3.4c0 .3-.1.6-.1.9h4v.5h-3.7c.7.9 1.9 1.5 3.8 1.7-.1.2-.2.4-.3.6-2.1-.4-3.5-1.1-4-2.1-.4 1-1.8 1.7-4 2.2-.1-.2-.2-.4-.3-.6 2.1-.4 3.4-1 3.8-1.8h-3.4v-.5h3.6c.1-.3.1-.6.2-.9h-3.3v-.5h3.4c0-.3 0-.6 0-.9h-3.2v-2h3.3v-1h-2.1v-1.4h-1.7v-.5zm1.1 3.5v1h2.7c0-.3 0-.4 0-.4 0-.2 0-.2 0-.2 0-.1 0-.2 0-.3h-2.7zm1.2-3v.9h3.5v-.9zm4.7 3h-2.6v.6.4h2.6z" fill="#fbfafc"/><path d="m393.6 386.7h.6v1.5h2.8v6.1h1.1v.6h-11.1v-.6h1.1v-6.1h2.7v-1.5h.6v1.5h2.1v-1.5zm-2.7 8.8.4.6c-1.2.6-2.5 1.3-3.8 1.9-.1-.2-.2-.4-.3-.6 1.2-.6 2.5-1.2 3.7-1.9zm-2.2-6.7v2.4h2.1v-2.4zm0 3v2.5h2.1v-2.5zm2.8-3v2.4h2.1v-2.4zm0 3v2.5h2.1v-2.5zm6 6.1c-1.4-.7-2.7-1.3-3.9-1.8l.3-.6c1.5.6 2.7 1.2 3.9 1.7zm-1.2-9.1h-2.1v2.4h2.1zm-2.1 3v2.5h2.1v-2.5z" fill="#fbfafc"/><g fill="#010100"><path d="m337.01 303.05c-.16-15.8-12.14-17.83-23.82-20.56.33-2.42.64-4.63.98-7.04 6.25.96 12.39 1.91 18.53 2.84 8.98 1.35 12.29-1.45 12.29-10.7.03-53.66.02-107.32.02-160.98 0-5.15 0-10.31 0-15.83-12.84 0-25.39 0-38.59 0v5.58c0 75.32-.09 150.65.09 225.97.03 12.12 1.32 24.23 1.87 36.36.37 8.34-2.46 11.84-9.49 12.3-4.57.3-7.34-1.82-7.97-6.37-.32-2.3-.3-4.65-.3-6.98.1-89.65.24-179.3.29-268.96 0-6.12-.58-12.25-.95-19.38 5.45 3.39 10.21 6.64 15.24 9.38 2.35 1.28 5.21 2.13 7.87 2.22 8.32.28 16.66-.03 24.99.17 3.26.08 5.66-.65 7.66-3.39 2.35-3.2 5.13-6.09 8.08-9.54 5.95 4.26 11.96 8.12 17.45 12.63 4.43 3.64 4.17 8.27-1.17 10.17-8.25 2.94-8.12 8.65-8.1 15.56.17 56.99.11 113.99.08 170.98-.01 14.81-9.4 24.58-25.05 25.57z"/><path d="m129.69 186.35c7.43 5.57 14.25 10.35 20.62 15.68 1.66 1.39 2.57 4.48 2.5 6.75-.03.94-3.56 2.48-5.52 2.51-13.16.23-26.32.12-39.49.12-1.79 0-3.57 0-5.49 0v111.51c16.34-4.32 32.32-8.55 48.65-12.86.79 2.08 1.53 4.06 2.6 6.88-11.09 4.45-21.83 9.21-32.88 13.09-19.88 6.98-39.91 13.54-59.95 20.03-3.57 1.16-5.4 2.71-6.19 6.54-.61 2.97-2.83 5.61-4.34 8.39-2.16-2.33-4.81-4.37-6.38-7.04-4.03-6.87-7.58-14.02-11.64-21.67 17.75-3.15 35.06-6.22 52.51-9.31 0-38.64 0-76.74 0-115.4-6.71 0-13.33-.19-19.93.06-5.8.22-11.57 1.16-17.36 1.28-1.66.03-4.03-1.29-4.88-2.71-2.01-3.35-3.31-7.12-5.05-11.08 15.99 1.04 31.34 2.04 47.11 3.07 0-17.75 0-34.48 0-52.24-8.37.58-16.77.91-25.1 1.86-3.23.37-4.9-.19-6.05-3.25-1.39-3.7-3.19-7.24-4.49-10.13 17.94.53 35.84 1.02 53.74 1.64 3.21.11 5.57-.64 7.8-3.18 3.38-3.87 7.29-7.28 11.43-11.32 7.1 5.38 14.44 10.73 21.48 16.47 1.19.97 1.97 4.04 1.32 5.29-.76 1.45-3.29 2.71-5.08 2.76-10.49.25-20.99.13-31.49.13-1.8 0-3.6 0-5.73 0v50.92c7.16 1.03 14.03 1.82 18.95-5.58 2.17-3.33 5.33-5.97 8.33-9.21z"/><path d="m154.32 185.98c-2.54-1.56-4.46-2.74-6.83-4.19 25.05-47.14 39.5-97.29 46.59-150.65 10.17 3.03 19.55 5.63 28.75 8.75 1.78.6 3.74 3.13 3.96 4.97.15 1.23-2.6 2.85-4.13 4.2-.47.42-1.2.75-1.82.77-9.41.36-11.91 6.53-14 14.57-4.87 18.77-10.77 37.28-16.45 56.53 3.19.97 6.8 2 10.35 3.18 2.92.97 6.35 2.35 5.54 5.91-.5 2.22-3.1 5.14-5.22 5.59-6.26 1.32-7.17 4.76-7.15 10.55.26 60.32.11 120.65.35 180.97.04 10.11 1.16 20.25 2.21 30.33.9 8.59-.8 12.2-6.94 12.62-8.75.6-11.95-2.5-11.96-11.63-.01-67.66 0-135.31 0-202.97 0-1.94 0-3.89 0-5.83-.32-.06-.63-.12-.95-.17-7.28 11.93-14.58 23.88-22.3 36.5z"/><path d="m221.43 284.76c.94-3.59 2.08-5.94 2.09-8.29.1-61.66.14-123.32 0-184.98-.02-7.94-1.13-15.88-1.82-24.9 5.77 3.75 10.81 7.02 17.06 11.08 12.92-11.72 25.93-23.52 39.63-35.96 5.55 4.14 12.11 8.64 18.13 13.76 1.79 1.53 2.07 4.83 3.04 7.32-2.5.74-5.3 2.58-7.45 2-5.74-1.54-9.97.44-14.86 3.15-11.18 6.2-22.79 11.62-34.34 17.14-2.43 1.16-3.54 2.33-3.54 5.14.08 60.66.06 121.32.07 181.98 0 .79.16 1.57.45 4.11 13.62-9.43 26.35-18.24 39.57-27.39 1.06 1.15 2.39 2.59 4.36 4.73-6.92 8.34-13.64 16.73-20.69 24.82-3.93 4.51-8.21 8.77-12.73 12.69-2.91 2.53-3.87 5.34-4.38 9-.36 2.62-1.88 6.43-3.78 7.08-1.86.64-5.67-1.41-7.23-3.38-5.15-6.48-9.66-13.48-13.58-19.1z"/><path d="m30.73 148.53c-1.45-1.72-2.69-3.2-4.15-4.95 31.23-32.17 53.78-68.74 60.81-114.61 9.85 2.97 19.04 5.59 28.07 8.64 1.31.44 2.66 3.05 2.59 4.59-.06 1.22-2.08 2.91-3.56 3.38-2.81.89-5.89.93-8.79 1.6-1.28.3-2.4 1.28-3.59 1.96.74 1.14 1.26 2.57 2.27 3.39 10.24 8.22 20.86 16 30.75 24.61 7.4 6.44 14.12 13.86 16.27 23.95.62 2.92.31 6.35-.6 9.21-1.72 5.37-8 7.01-12.05 3-2.98-2.96-5.48-6.7-7.23-10.54-7.75-16.88-18.75-31.25-31.48-43.37-9.88 16.21-19.09 32.69-29.64 48.25-10.68 15.73-24.31 28.96-39.67 40.89z"/><path d="m115.91 297.69c-2.78-1.48-4.36-2.32-5.64-3 5.66-20.21 11.24-40.13 16.98-60.62 8.36 2.5 17.52 5.11 26.56 8.07 1.35.44 3.02 2.55 2.99 3.84-.04 1.35-1.94 2.66-3.08 3.95-.19.21-.62.26-.94.28-9.23.66-13 7.21-16.93 14.47-6.06 11.21-13.14 21.87-19.94 33.01z"/><path d="m35.2 237.76c1.58-1.27 2.94-2.37 4.74-3.81 14.39 15.55 30.02 29.78 35.57 51.03 1.58 6.07 1.58 12.35-3.93 16.96-5.49 4.59-11.64 2.87-13.53-3.98-1-3.64-1.25-7.5-1.6-11.29-1.45-15.48-7.86-28.97-16.49-41.59-1.59-2.31-3.06-4.7-4.76-7.32z"/></g></svg>