<svg enable-background="new 0 0 400 400" viewBox="0 0 400 400" xmlns="http://www.w3.org/2000/svg"><path d="m6.8 9.5c.6.3 1.3.7 2.1 1.1-.4.4-.7.8-.9 1.2-.7-.4-1.3-.8-1.8-1.1s-1.1-.6-1.6-.8c.2-.4.5-.8.7-1.2.4.2.8.5 1.5.8zm.9 6.9c-.3.6-.5 1.1-.7 1.7s-.4 1.1-.6 1.7c-.6-.4-1.1-.7-1.6-1 .7-1 1.2-1.8 1.5-2.4.3-.5.6-1.1.8-1.7.3-.6.5-1.2.8-1.8.3.3.8.6 1.3.8-.7 1.3-1.2 2.2-1.5 2.7zm.1-11c.4.3 1 .7 1.7 1.1-.5.2-.8.6-1.1 1.1-.5-.6-1-1-1.4-1.2s-.9-.6-1.5-.8c.2-.4.5-.7.9-1.1.5.3.9.6 1.4.9zm10.5 13.1c1 .4 2 .6 3.1.7-.4.4-.7.8-.8 1.3-.9-.2-1.9-.6-3-.9-1-.4-2-.9-2.8-1.6-.5.4-1.1.9-1.9 1.3s-1.9.9-3.3 1.2c-.1-.3-.5-.8-1.1-1.3 1 0 2.1-.3 3.2-.8 1.2-.5 1.9-1 2.3-1.7h-3.2c-.4 0-1 0-2 .1v-1.2c1 0 1.7.1 2 .1h3.3v-1h-2.3c-.2 0-.9 0-2 .1v-1.2c1.2 0 1.9.1 2 .1h2.3v-.8h-4.1c0-.7.1-1.2.1-1.6 0-.5 0-1.1-.1-1.8h4.1v-.7h-2.5c0-.6.1-1.1.1-1.6v-.6h-.5c-.4 0-1 0-1.8.1v-1.3c1.2 0 1.9.1 2.1.1h.2c0-.3 0-.8-.1-1.4h1.4c0 .6-.1 1-.1 1.4h3.4c0-.4 0-.8-.1-1.3h1.5c0 .4-.1.9-.1 1.3.7 0 1.5 0 2.5-.1v1.2c-1 0-1.8-.1-2.5-.1v.6c0 .3 0 .8.1 1.5h-2.5v.8h4.1c0 .7-.1 1.3-.1 1.8s0 1 .1 1.5h-4.1v.8h1.4c.8 0 1.8 0 2.9-.1v1.2c-1 0-1.9-.1-2.8-.1h-1.5v1h3.2c.3 0 1 0 2.1-.1v1.2c-1.1 0-1.8-.1-2.1-.1h-3.4l-.1.1c1.4 1 2.4 1.5 3.4 1.9zm-4.1-6.7v-1.3h-2.7v1.3zm2.2-4.1v-1.1h-3.4v1.1zm1.9 4.1v-1.3h-2.8v1.3z" fill="#fafbfc"/><path d="m37 6.7v2.3 5.4c1 0 1.8 0 2.2-.1v1.3c-.6 0-1.5-.1-2.5-.1h-11.9c-.7 0-1.3 0-1.8.1v-1.3c.5 0 1.1.1 2 .1v-5.2c0-1 0-1.8-.1-2.5h3.7c0-1.3 0-2.1-.1-2.5h1.5c0 .4-.1 1.3-.1 2.5h2.2c0-1.2 0-2.1-.1-2.6h1.5c0 .4-.1 1.3-.1 2.6zm-12.3 13.7c-.3-.4-.7-.8-1.1-1.1 1.1-.4 2.1-.9 2.9-1.3.8-.5 1.5-1 2.1-1.6.4.4.9.8 1.3 1.1-2.5 1.4-4.2 2.4-5.2 2.9zm3.9-10.1v-2.4h-2.2v2.4zm0 4.1v-2.9h-2.2v2.9zm3.5-4.1v-2.4h-2.2v2.4zm0 4.1v-2.9h-2.2v2.9zm.4 2.9 1-1.1c.6.3 1.4.7 2.5 1.3s2 1.1 2.7 1.5c-.4.4-.8.8-1.1 1.3-.8-.8-2.5-1.7-5.1-3zm3.1-7v-2.4h-2.1v2.4zm0 4.1v-2.9h-2.1v2.9z" fill="#fafbfc"/><g fill="#000001"><path d="m215.66 118.8c9.62 4.19 18.97 8.02 28.03 12.42 1.7.83 3.46 4.23 3.05 5.92-.41 1.67-3.65 3.95-5.44 3.78-10.16-.97-14.93 3.97-17.87 13.16-2.35 7.33-6.51 14.09-10.09 21.56h67.23c-1.58-4.67-3.29-9.39-4.78-14.18-3.37-10.85-9.06-20.31-17.22-28.71 1-1.43 1.9-2.71 3.04-4.34 11.05 7.14 21.75 14.13 29.01 25.11 5.64 8.53 5.17 14.37-2.1 22.41 10.95 0 21.37-.49 31.72.17 7.33.47 12.69-1.55 17.14-7.36 3.01-3.93 6.76-7.29 10.63-11.39 7.8 6.98 15.62 13.63 23.01 20.73 3.39 3.25 2.09 6.31-2.63 7.32-1.93.41-3.95.57-5.92.58-22.99.04-45.99.02-68.98.02-1.81 0-3.63 0-5.75 0v44.59h9.73c3.5 0 7.1-.53 10.48.1 10.51 1.94 17.65-2.82 23.74-10.65 2.11-2.71 5.09-4.75 8.17-7.54 7.25 6.48 15.05 13.12 22.44 20.18 3.44 3.29 2.01 6.79-2.77 7.89-1.6.37-3.29.41-4.94.42-20.33.03-40.66.02-60.99.02-1.82 0-3.64 0-5.82 0v43.92c12.22 0 24.18.07 36.14-.1 1.22-.02 2.6-1.24 3.62-2.2 5.33-5.02 10.56-10.14 16.31-15.68 7.4 6.69 15.27 13.51 22.78 20.71 3.17 3.05 1.84 6.28-2.51 7.14-1.45.29-2.98.2-4.48.2-22 .01-43.99.01-65.99.01-1.82 0-3.64 0-5.85 0v44c11.24 0 22.39-.58 33.45.17 9.71.66 17.4-1.32 23-9.87 2.04-3.12 5.4-5.37 8.42-8.27 7.08 6.25 14.41 12.48 21.39 19.08 1.52 1.44 2.94 4.65 2.31 6.21-.61 1.51-3.9 2.73-6.02 2.73-50.49.15-100.98.12-151.47.12-1.99 0-3.97 0-6.82 0 0 5.84.01 11.41 0 16.99-.01 6.33-2.32 8.32-9.45 8.21-5.95-.09-9-2.84-8.56-8.48 3.94-51.24.95-102.56 1.95-153.83.04-1.99 0-3.99 0-6.93-9.11 9.66-17.67 18.74-26.54 28.15-1.72-1.56-3.26-2.96-5.07-4.61 24.87-32.9 40.31-69.94 51.27-109.88zm-2.47 111.47h57.07c0-14.86 0-29.4 0-43.93-19.21 0-38.09 0-57.07 0zm.03 108.36h57.1c0-14.62 0-28.87 0-43.36-19.14 0-38.01 0-57.1 0zm57.03-97.27c-19.21 0-38.11 0-56.95 0v43.35h56.95c0-14.56 0-28.96 0-43.35z"/><path d="m87.49 152.77c-9.21.62-17.86.94-26.42 1.93-3.14.36-4.52-.3-5.58-3.1-1.41-3.7-3.17-7.26-5.03-11.43 6.75.69 12.92 1.65 19.12 1.87 14.14.51 28.29.73 42.43.83 1.51.01 3.22-1.4 4.53-2.51 4.7-3.98 9.27-8.12 14.15-12.42 6.13 4.67 13.52 10.07 20.59 15.86 1.63 1.34 3.13 4.09 2.98 6.06-.25 3.36-3.48 3.33-6.25 3.32-14.13-.03-28.26-.02-42.7-.02v49.73c6.03 0 11.97.13 17.9-.11 1.23-.05 2.6-1.29 3.59-2.3 4.31-4.39 8.5-8.89 13.09-13.73 7.91 6.06 15.76 11.89 23.32 18.06 1.19.97 2.08 4.21 1.39 5.18-1.1 1.55-3.63 2.9-5.58 2.92-16 .23-32 .13-48 .13-1.8 0-3.6 0-5.72 0v108.85c9.63-2.52 19.17-4.92 28.66-7.52 7.69-2.1 15.34-4.37 22.96-6.69 2.36-.72 4.12-1.71 5.4 1.78 1.23 3.33.02 4.54-2.71 5.53-23.87 8.66-47.69 17.49-71.64 25.96-10.48 3.71-21.12 7-31.85 9.88-4.18 1.12-5.96 3.11-7.02 7.07-.75 2.8-2.78 5.26-4.24 7.87-2.03-2.23-4.53-4.2-6.01-6.75-4.08-7.03-7.74-14.3-11.74-21.82 20.41-3.78 40.4-7.48 60.46-11.2 0-37.89 0-75.01 0-112.44-1.13-.17-2.23-.52-3.31-.48-14.79.53-29.57 1.16-44.36 1.6-1.11.03-2.79-.91-3.3-1.88-2.07-3.95-3.79-8.09-5.53-11.93 18.77.91 37.39 1.82 56.4 2.74.02-17.35.02-33.57.02-50.84z"/><path d="m27.37 156.35c-1.26-1.43-2.44-2.76-3.86-4.36 35.24-33.33 58.68-72.96 67.04-121.76 9.45 2.76 18.52 5.22 27.43 8.19 1.49.5 3.1 3.18 3.08 4.83-.01 1.28-2.3 3.04-3.92 3.67-2.27.87-4.91.71-7.31 1.33-1.64.42-3.15 1.4-4.71 2.13 1.03 1.31 1.86 2.85 3.11 3.9 13.88 11.67 28.04 23.01 41.64 34.99 6.25 5.51 11.01 12.49 12.81 20.98 1.86 8.78-3.83 16.26-10.87 13.54-3.59-1.39-6.73-5.19-8.93-8.63-6.17-9.65-11.06-20.17-17.74-29.42-6.76-9.38-15.05-17.66-23.64-27.54-15.28 40.97-39.96 73.02-74.13 98.15z"/><path d="m317.71 32.09c7.71 2.38 15.74 4.53 23.47 7.45 2.34.88 3.89 3.9 5.8 5.94-2.13 1.86-4.29 5.35-6.4 5.31-9.06-.14-10.56 5.63-11.36 12.52-.26 2.29-.8 4.55-1.26 7.14 6.08.95 11.52 1.47 15.7-4.28 2.52-3.47 5.82-6.38 9.15-9.96 7.6 5.79 14.79 11.07 21.68 16.72 1.19.97 2.01 3.97 1.38 5.19-.76 1.46-3.24 2.8-5.01 2.83-13.16.23-26.33.13-39.5.13-1.82 0-3.63 0-5.87 0-1.93 8.92-3.77 17.64-5.72 26.34-1.72 7.7-4.35 9.24-12.01 7.78-4.32-.82-5.36-3.26-4.53-7.2 1.84-8.74 3.58-17.49 5.54-27.09-7.03.62-13.61 1-20.13 1.86-2.59.34-4 .01-5.01-2.53-1.57-3.95-3.46-7.77-5.38-12.01 11.02 1.03 21.38 2 32.46 3.03 2.35-13.14 4.62-25.81 7-39.17z"/><path d="m226.48 70.78c11.52 1.66 13.85-9.95 21.93-13.84 6.62 4.98 13.75 10.11 20.55 15.65 1.34 1.09 2.35 4.04 1.83 5.56-.47 1.38-3.21 2.75-4.98 2.8-10.99.25-21.98.12-32.97.14-1.62 0-3.24.13-5.34.23.76 8.55 1.38 16.77 2.25 24.95.55 5.21-1.49 8.39-6.16 8.88-7.15.74-9.17-.79-9.77-7.04-.85-8.89-1.85-17.77-2.86-27.39-10.34.66-20.27 1.14-30.16 2.02-2.54.23-3.98.11-5.01-2.46-1.58-3.96-3.54-7.78-5.33-11.63 13.17 1.03 25.95 2.04 39.38 3.09-1.41-13.94-2.69-26.56-4.03-39.71 8.75 1.78 17.05 3.17 25.16 5.3 2.47.65 4.4 3.38 6.58 5.15-1.84 1.94-3.36 4.48-5.59 5.72-7.29 4.04-7.44 3.87-6.75 12.27.25 3.29.79 6.55 1.27 10.31z"/><path d="m138.79 237.13c7.84 2.71 16.45 5.52 24.9 8.74 1.72.66 2.85 2.86 4.25 4.35-1.63 1.42-3.19 3.94-4.92 4.06-8.94.63-13.03 6.47-17.35 13.35-7.84 12.5-16.7 24.36-25.39 36.85-2.42-1.43-4.18-2.46-5.09-3.01 7.94-21.65 15.68-42.74 23.6-64.34z"/><path d="m34.52 241.51c1.49-1.34 2.71-2.44 4.35-3.91 14.02 14.39 28.32 28.35 35.04 47.85 1.25 3.64 1.79 8.02 1.03 11.72-.69 3.36-2.98 7.01-5.65 9.22-4.45 3.69-9.69 2.05-11.53-3.44-1.39-4.16-1.69-8.72-2.21-13.14-1.61-13.82-6.44-26.38-14.33-37.81-2.26-3.27-4.29-6.7-6.7-10.49z"/></g></svg>