<svg enable-background="new 0 0 400 400" viewBox="0 0 400 400" xmlns="http://www.w3.org/2000/svg"><path d="m6.8 9.5c.6.3 1.3.7 2.1 1.1-.4.4-.7.8-.9 1.2-.7-.4-1.3-.8-1.8-1.1s-1.1-.6-1.6-.8c.2-.4.5-.8.7-1.2.4.2.8.5 1.5.8zm.9 6.9c-.3.6-.5 1.1-.7 1.7s-.4 1.1-.6 1.7c-.6-.4-1.1-.7-1.6-1 .7-1 1.2-1.8 1.5-2.4.3-.5.6-1.1.8-1.7.3-.6.5-1.2.8-1.8.3.3.8.6 1.3.8-.7 1.3-1.2 2.2-1.5 2.7zm.1-11c.4.3 1 .7 1.7 1.1-.5.2-.8.6-1.1 1.1-.5-.6-1-1-1.4-1.2s-.9-.6-1.5-.8c.2-.4.5-.7.9-1.1.5.3.9.6 1.4.9zm10.5 13.1c1 .4 2 .6 3.1.7-.4.4-.7.8-.8 1.3-.9-.2-1.9-.6-3-.9-1-.4-2-.9-2.8-1.6-.5.4-1.1.9-1.9 1.3s-1.9.9-3.3 1.2c-.1-.3-.5-.8-1.1-1.3 1 0 2.1-.3 3.2-.8 1.2-.5 1.9-1 2.3-1.7h-3.2c-.4 0-1 0-2 .1v-1.2c1 0 1.7.1 2 .1h3.3v-1h-2.3c-.2 0-.9 0-2 .1v-1.2c1.2 0 1.9.1 2 .1h2.3v-.8h-4.1c0-.7.1-1.2.1-1.6 0-.5 0-1.1-.1-1.8h4.1v-.7h-2.5c0-.6.1-1.1.1-1.6v-.6h-.5c-.4 0-1 0-1.8.1v-1.3c1.2 0 1.9.1 2.1.1h.2c0-.3 0-.8-.1-1.4h1.4c0 .6-.1 1-.1 1.4h3.4c0-.4 0-.8-.1-1.3h1.5c0 .4-.1.9-.1 1.3.7 0 1.5 0 2.5-.1v1.2c-1 0-1.8-.1-2.5-.1v.6c0 .3 0 .8.1 1.5h-2.5v.8h4.1c0 .7-.1 1.3-.1 1.8s0 1 .1 1.5h-4.1v.8h1.4c.8 0 1.8 0 2.9-.1v1.2c-1 0-1.9-.1-2.8-.1h-1.5v1h3.2c.3 0 1 0 2.1-.1v1.2c-1.1 0-1.8-.1-2.1-.1h-3.4l-.1.1c1.4 1 2.4 1.5 3.4 1.9zm-4.1-6.7v-1.3h-2.7v1.3zm2.2-4.1v-1.1h-3.4v1.1zm1.9 4.1v-1.3h-2.8v1.3z" fill="#fafbfc"/><path d="m37 6.7v2.3 5.4c1 0 1.8 0 2.2-.1v1.3c-.6 0-1.5-.1-2.5-.1h-11.9c-.7 0-1.3 0-1.8.1v-1.3c.5 0 1.1.1 2 .1v-5.2c0-1 0-1.8-.1-2.5h3.7c0-1.3 0-2.1-.1-2.5h1.5c0 .4-.1 1.3-.1 2.5h2.2c0-1.2 0-2.1-.1-2.6h1.5c0 .4-.1 1.3-.1 2.6zm-12.3 13.7c-.3-.4-.7-.8-1.1-1.1 1.1-.4 2.1-.9 2.9-1.3.8-.5 1.5-1 2.1-1.6.4.4.9.8 1.3 1.1-2.5 1.4-4.2 2.4-5.2 2.9zm3.9-10.1v-2.4h-2.2v2.4zm0 4.1v-2.9h-2.2v2.9zm3.5-4.1v-2.4h-2.2v2.4zm0 4.1v-2.9h-2.2v2.9zm.4 2.9 1-1.1c.6.3 1.4.7 2.5 1.3s2 1.1 2.7 1.5c-.4.4-.8.8-1.1 1.3-.8-.8-2.5-1.7-5.1-3zm3.1-7v-2.4h-2.1v2.4zm0 4.1v-2.9h-2.1v2.9z" fill="#fafbfc"/><g fill="#000001"><path d="m28.03 331.45c16.45-2.92 32.43-5.93 48.48-8.51 5-.8 6.62-2.6 6.58-7.92-.29-34.83-.15-69.66-.15-104.49 0-1.96 0-3.93 0-6.11-10.41 0-20.35-.16-30.28.07-4.96.11-9.91 1.01-14.87 1.3-.99.06-2.53-.82-2.98-1.69-2.1-4.11-3.91-8.37-5.63-12.16 17.76.89 35.44 1.79 53.47 2.69 0-17.31 0-33.56 0-50.61-7.93.43-15.9.32-23.67 1.51-4.53.7-6.82-.07-8.19-4.34-.64-2.01-1.87-3.83-2.97-6.03-5.42 4.58-10.57 8.93-15.98 13.49-1.49-1.56-2.72-2.84-4.54-4.75 31.55-31.86 53.38-68.98 60.95-114.71 9.62 2.92 18.91 5.63 28.09 8.65 1.2.39 2.73 2.57 2.55 3.68-.24 1.48-1.74 3.36-3.15 3.9-3 1.16-6.29 1.57-10.25 2.46 6.45 5.13 12.46 9.75 18.29 14.58 8.85 7.35 17.53 14.91 23.32 25.11 2.73 4.81 5.76 9.95 2.79 15.44-1.48 2.73-4.55 5.49-7.42 6.26-2.05.55-5.71-1.6-7.36-3.61-2.68-3.27-4.6-7.28-6.32-11.21-6.51-14.84-16.34-27.22-27.98-39.24-11.45 28.76-27.11 54.16-49.89 76.6 6.56.76 11.85 1.8 17.16 1.92 13.33.3 26.66.29 39.99.12 1.85-.02 3.96-1.32 5.47-2.59 4.18-3.51 8.12-7.32 12.54-11.36 6.41 4.88 13.51 10.07 20.27 15.65 1.28 1.06 2.13 4.08 1.55 5.56-.56 1.41-3.23 2.77-4.99 2.8-13.99.22-27.98.12-42.4.12v49.92c5.59 0 11.21.16 16.8-.11 1.41-.07 3-1.27 4.09-2.36 3.98-4 7.79-8.18 11.84-12.49 7.57 5.68 14.61 10.7 21.28 16.17 1.41 1.16 2.48 4.39 1.86 5.9-.62 1.5-3.56 2.82-5.51 2.85-14.83.23-29.66.13-44.49.13-1.82 0-3.65 0-5.88 0v113.54c15.48-4.06 30.76-8.06 46.43-12.17.62 1.84 1.34 3.99 2.41 7.19-14.04 5.51-27.77 11.36-41.83 16.29-16.61 5.82-33.45 10.99-50.3 16.06-3.99 1.2-6.41 2.87-6.89 7.06-.17 1.47-.47 3-1.08 4.33s-1.86 3.55-2.54 3.45c-1.69-.25-3.92-1.21-4.7-2.58-4.79-8.34-9.23-16.9-13.97-25.76z"/><path d="m168.93 87.35c5.08 3.73 10.4 7.97 16.08 11.65 2.47 1.6 5.68 2.86 8.55 2.88 40.15.18 80.29.06 120.44.23 4.04.02 6.89-.93 9.37-4.11 2.53-3.25 5.51-6.16 8.73-9.7 6.42 4.35 12.97 8.29 18.93 12.99 4.84 3.81 4.14 8.25-1.06 11.78-.68.46-1.39 1.06-2.16 1.21-7.22 1.43-8.2 6.11-7.96 12.72.78 21.28.83 42.59 1.32 63.89.12 5.31 1.03 10.6 1.18 15.91.21 7.34-1.96 9.52-8.8 9.61-8.62.12-10.38-1.41-10.64-9.22-.02-.5-.11-.99-.2-1.83-45.02 0-90.06 0-135.34 0-.1.68-.34 1.32-.27 1.91 1.19 9.77-6.41 12.47-15.04 10.28-4.46-1.13-5.46-4.91-4.94-8.65 3.67-26.33 2.92-52.8 2.82-79.24-.05-14.09-.66-28.18-1.01-42.31zm18.51 25.09v81.25h135.19c0-27.2 0-54.1 0-81.25-45.18 0-90.07 0-135.19 0z"/><path d="m258.68 246.42v30.25c1.54.12 2.97.31 4.39.32 20.99.02 41.99.12 62.98-.13 2.44-.03 5.27-1.49 7.22-3.12 5.19-4.37 10-9.2 15.36-14.22 7.13 6.44 14.86 13.25 22.37 20.29 3.02 2.83 1.73 6.34-2.39 7.12-1.45.27-2.99.14-4.49.14-33.16.01-66.32 0-99.47 0-1.82 0-3.64 0-5.98 0-.09 2.05-.29 3.83-.24 5.6.55 19.95 1.1 39.91 1.74 59.85.12 3.81.94 7.61.93 11.41-.02 6.1-3.01 8.31-10.4 8.24-6.68-.06-9.07-2.15-9.08-8.37-.05-23.49-.02-46.99-.02-70.48 0-1.95 0-3.91 0-6.26-5.81 0-10.94-.06-16.08.01-22.81.31-45.61.55-68.42 1.09-3.92.09-6.19-.69-7.33-4.67-.91-3.15-2.54-6.09-4.15-9.84 32.04 5.99 63.75 2.14 95.66 3.56 0-9.85 0-19.11 0-28.36-24.77.97-49.4 1.93-74.02 2.9-1.14-4.72-1.22-7.18 4.09-7.95 26.76-3.87 53.56-7.6 80.12-12.59 15.26-2.87 30.49-7 44.94-12.6 8.24-3.2 13.68-2.84 19.57 3.12 3.25 3.3 7.37 5.78 10.42 9.23 1.33 1.51 1.86 4.91 1.07 6.71-.61 1.38-4.31 2.75-5.87 2.15-13.18-5.09-25.48.91-38.09 2.59-8.23 1.12-16.39 2.64-24.83 4.01z"/><path d="m227.05 29.62c1.28-1.48 2.34-2.69 4.24-4.88 8.36 6.87 16.92 13.17 24.59 20.41 7.21 6.8 7.29 13.84 1.37 22.09 1.71.14 3.11.34 4.52.34 20.99.02 41.98.11 62.97-.12 2.48-.03 5.4-1.35 7.32-3 5.28-4.51 10.13-9.52 15.58-14.75 7.34 6.58 15.05 13.37 22.57 20.37.99.92 1.81 3.25 1.32 4.25-.65 1.33-2.55 2.38-4.13 2.85-1.69.5-3.63.22-5.46.22-50.14.01-100.28-.09-150.42.06-17.47.05-34.94.7-52.41.98-1.06.02-2.75-.48-3.11-1.23-1.97-4.14-3.62-8.43-5.66-13.33 32.51 6.42 64.54 2.56 96.24 3.87-2.6-15.14-8.96-27.64-19.53-38.13z"/><path d="m290.04 305.2c1.18-2.15 2.11-3.85 3.25-5.92 21.67 8.47 42.71 17.38 59.04 34.35 4.79 4.98 8.17 10.8 7.97 18.2-.13 4.72-2.08 7.99-6.39 9.7-4.22 1.67-7.6-.33-10.12-3.4-3.37-4.1-6.59-8.39-9.34-12.92-9.68-15.94-23.39-27.51-39.2-36.88-1.56-.93-3.11-1.87-5.21-3.13z"/><path d="m190.03 295.1c7.98 5.27 15.44 9.93 22.54 15.08 1.71 1.24 2.26 4.09 3.35 6.2-2.3.94-4.88 3.06-6.85 2.6-7.8-1.83-12.94 1.46-18.24 6.68-15.26 15.03-33.13 26.56-51.86 37.26-1.33-1.41-2.56-2.72-4.13-4.39 21.71-18 41.49-37.53 55.19-63.43z"/><path d="m112.66 294.79c-1.89-.99-3.49-1.82-4.74-2.48 5.84-20.87 11.58-41.41 17.53-62.69 8.45 3.36 17.74 6.76 26.75 10.77 3.22 1.43 2.95 4.65.48 7.04-.99.96-2.66 1.84-3.95 1.76-8.12-.54-11.14 4.96-14.47 10.96-5.63 10.16-11.92 19.96-17.99 29.87-1.04 1.67-2.38 3.15-3.61 4.77z"/><path d="m33.15 233.06c1.78-1.35 2.95-2.24 4.13-3.14.39-.34.79-.68 1.18-1.02 1.58 2.09 3.06 4.27 4.76 6.26 7.03 8.21 14.45 16.1 21.09 24.6 6.13 7.86 9.76 16.96 9.81 27.16.01 1.63-.24 3.33-.77 4.86-1.66 4.75-7.01 8.64-10.85 8.11-4.51-.62-7.02-3.79-7.58-10.25-.93-10.8-2.28-21.52-7.01-31.41-2.71-5.67-5.92-11.12-9.06-16.57-1.63-2.82-3.61-5.46-5.7-8.6z"/><path d="m207.93 123.29c1.82.89 2.97 1.21 3.83 1.91 9.4 7.7 20.13 9.93 32.09 8.94 8.6-.71 17.32-.33 25.97-.05 3.56.12 5.93-1.01 8.01-3.76 2.3-3.04 4.9-5.85 7.84-9.32 5.97 4.47 12.01 8.56 17.51 13.25 4.23 3.61 3.99 7.05-1.13 9.28-7.23 3.14-8.79 8.15-8.13 15.27.34 3.61.6 6.61 3.55 9.26 1.47 1.32 1.72 4 2.52 6.06-1.91.62-3.82 1.78-5.73 1.79-22.81.13-45.62.08-67.11.08-2.62 3.16-4.11 6.68-6.58 7.62-7.06 2.69-13.04 3.15-12.75-8.63.43-16.97.11-33.96.11-51.7zm17.38 42.89h51.33c0-7.49 0-14.57 0-21.69-17.27 0-34.18 0-51.33 0z"/></g></svg>