<svg enable-background="new 0 0 400 400" viewBox="0 0 400 400" xmlns="http://www.w3.org/2000/svg"><path d="m6.8 9.5c.6.3 1.3.7 2.1 1.1-.4.4-.7.8-.9 1.2-.7-.4-1.3-.8-1.8-1.1s-1.1-.6-1.6-.8c.2-.4.5-.8.7-1.2.4.2.8.5 1.5.8zm.9 6.9c-.3.6-.5 1.1-.7 1.7s-.4 1.1-.6 1.7c-.6-.4-1.1-.7-1.6-1 .7-1 1.2-1.8 1.5-2.4.3-.5.6-1.1.8-1.7.3-.6.5-1.2.8-1.8.3.3.8.6 1.3.8-.7 1.3-1.2 2.2-1.5 2.7zm.1-11c.4.3 1 .7 1.7 1.1-.5.2-.8.6-1.1 1.1-.5-.6-1-1-1.4-1.2s-.9-.6-1.5-.8c.2-.4.5-.7.9-1.1.5.3.9.6 1.4.9zm10.5 13.1c1 .4 2 .6 3.1.7-.4.4-.7.8-.8 1.3-.9-.2-1.9-.6-3-.9-1-.4-2-.9-2.8-1.6-.5.4-1.1.9-1.9 1.3s-1.9.9-3.3 1.2c-.1-.3-.5-.8-1.1-1.3 1 0 2.1-.3 3.2-.8 1.2-.5 1.9-1 2.3-1.7h-3.2c-.4 0-1 0-2 .1v-1.2c1 0 1.7.1 2 .1h3.3v-1h-2.3c-.2 0-.9 0-2 .1v-1.2c1.2 0 1.9.1 2 .1h2.3v-.8h-4.1c0-.7.1-1.2.1-1.6 0-.5 0-1.1-.1-1.8h4.1v-.7h-2.5c0-.6.1-1.1.1-1.6v-.6h-.5c-.4 0-1 0-1.8.1v-1.3c1.2 0 1.9.1 2.1.1h.2c0-.3 0-.8-.1-1.4h1.4c0 .6-.1 1-.1 1.4h3.4c0-.4 0-.8-.1-1.3h1.5c0 .4-.1.9-.1 1.3.7 0 1.5 0 2.5-.1v1.2c-1 0-1.8-.1-2.5-.1v.6c0 .3 0 .8.1 1.5h-2.5v.8h4.1c0 .7-.1 1.3-.1 1.8s0 1 .1 1.5h-4.1v.8h1.4c.8 0 1.8 0 2.9-.1v1.2c-1 0-1.9-.1-2.8-.1h-1.5v1h3.2c.3 0 1 0 2.1-.1v1.2c-1.1 0-1.8-.1-2.1-.1h-3.4l-.1.1c1.4 1 2.4 1.5 3.4 1.9zm-4.1-6.7v-1.3h-2.7v1.3zm2.2-4.1v-1.1h-3.4v1.1zm1.9 4.1v-1.3h-2.8v1.3z" fill="#fafbfc"/><path d="m37 6.7v2.3 5.4c1 0 1.8 0 2.2-.1v1.3c-.6 0-1.5-.1-2.5-.1h-11.9c-.7 0-1.3 0-1.8.1v-1.3c.5 0 1.1.1 2 .1v-5.2c0-1 0-1.8-.1-2.5h3.7c0-1.3 0-2.1-.1-2.5h1.5c0 .4-.1 1.3-.1 2.5h2.2c0-1.2 0-2.1-.1-2.6h1.5c0 .4-.1 1.3-.1 2.6zm-12.3 13.7c-.3-.4-.7-.8-1.1-1.1 1.1-.4 2.1-.9 2.9-1.3.8-.5 1.5-1 2.1-1.6.4.4.9.8 1.3 1.1-2.5 1.4-4.2 2.4-5.2 2.9zm3.9-10.1v-2.4h-2.2v2.4zm0 4.1v-2.9h-2.2v2.9zm3.5-4.1v-2.4h-2.2v2.4zm0 4.1v-2.9h-2.2v2.9zm.4 2.9 1-1.1c.6.3 1.4.7 2.5 1.3s2 1.1 2.7 1.5c-.4.4-.8.8-1.1 1.3-.8-.8-2.5-1.7-5.1-3zm3.1-7v-2.4h-2.1v2.4zm0 4.1v-2.9h-2.1v2.9z" fill="#fafbfc"/><g fill="#000001"><path d="m48.45 133.18c10.33.88 19.22 1.66 28.12 2.4 1.16.1 2.33.01 3.5.01 8.17 0 16.39.59 24.48-.16 8.76-.81 11.33-10.51 18.7-14.4 5.87 5.2 12.09 10.46 17.94 16.1 1.25 1.2 1.94 4.06 1.41 5.68-.4 1.24-3.11 2.41-4.81 2.44-11.16.23-22.33.15-33.5.16-1.95 0-3.91 0-6.02 0v49.58c5.98 0 11.76.13 17.53-.1 1.25-.05 2.62-1.18 3.65-2.12 4.19-3.8 8.26-7.72 12.74-11.94 5.97 4.97 12.49 10.1 18.59 15.67 1.38 1.27 2.18 4.32 1.68 6.11-.35 1.24-3.38 2.41-5.22 2.44-14.33.2-28.66.11-43 .11-1.81 0-3.62 0-5.8 0v113.75c11.92-3.09 23.74-6.14 35.55-9.22 2.41-.63 4.81-1.28 7.16-2.09 2.16-.75 3.86-1.59 5.09 1.6 1.19 3.1.5 4.6-2.45 5.67-25.74 9.35-51.45 18.76-77.18 28.12-2.18.79-4.4 1.59-6.67 2.06-6.73 1.39-12.25 3.71-12.3 12.06-.01 1.39-1.8 3.58-3.13 3.89-1.13.27-3.33-1.31-4.09-2.64-4.79-8.32-9.31-16.8-14.13-25.61 18.64-3.27 36.61-6.43 54.56-9.58 0-39.69 0-78.49 0-117.64-8.9 0-17.66-.15-26.41.06-4.64.11-9.25 1.05-13.89 1.22-1.25.05-3.12-1.05-3.71-2.16-2.11-3.94-3.8-8.1-5.46-11.77 16.29.91 32.62 1.83 49.32 2.77 0-17.24 0-33.47 0-50.5-7.78.44-15.44.36-22.93 1.46-5.16.75-8.6.38-9.95-5.29-.37-1.57-1.39-2.99-2.3-4.86-4.54 4.02-8.86 7.85-13.46 11.91-1.39-1.28-2.69-2.46-4.59-4.21 28.42-32.84 47.08-70.56 56.34-113.7 9.28 2.64 18.2 4.97 26.95 7.84 1.75.57 2.82 3.22 4.2 4.91-1.71 1.36-3.26 3.05-5.18 4-1.72.85-3.84.88-6.91 1.5 1.96 1.54 3.38 2.69 4.83 3.79 13.3 10.02 26.72 19.95 36.4 33.85 3.83 5.5 7.05 11.38 4.97 18.52-1.97 6.76-8.75 8.76-13.44 3.53-3.16-3.52-5.65-7.82-7.68-12.13-7.43-15.72-17.95-29.07-30.92-41.85-10.39 29.64-26.5 55.28-48.58 78.76z"/><path d="m171 31.56c2.38 1.25 3.98 1.83 5.26 2.82 10.57 8.15 22.51 9.63 35.6 9.43 39.15-.61 78.32-.31 117.47-.1 4.35.02 7.19-1.3 9.65-4.61 2.17-2.92 4.64-5.62 7.45-8.99 5.99 4.42 12.04 8.46 17.57 13.11 3.87 3.25 3.33 6.33-.72 9.45-.26.2-.52.48-.82.56-8.82 2.35-8.92 8.97-8.48 16.32.73 12.28.91 24.6 1.45 36.9.19 4.2-.82 7.53-4.92 9.43-8.34 3.86-13.19 1.09-13.99-8.42-49.33 0-98.7 0-148.05 0-.97 7.25-3.98 9.36-12.03 8.58-5.61-.55-7.48-3.57-6.78-10.86.16-1.66.24-3.32.27-4.99.36-21.14.71-42.28 1.06-63.42.03-1.46.01-2.91.01-5.21zm165.66 22.78c-13.36 0-26.23 0-39.26 0v42.75h39.26c0-14.43 0-28.37 0-42.75zm-110.2 42.92c0-14.54 0-28.75 0-42.9-12.94 0-25.51 0-38.13 0v42.9zm16.76-.07h37.38c0-14.61 0-28.82 0-42.93-12.65 0-24.91 0-37.38 0z"/><path d="m201.72 289.65c.33-2.45.59-4.38.9-6.69 6.09.87 11.82 1.59 17.5 2.51 11.19 1.82 14.84-1.14 14.87-12.32.02-7.16 0-14.32 0-22.35-3.1 1.28-5.73 2.4-8.38 3.46-7.08 2.86-14.11 5.86-21.29 8.47-3 1.1-4.33 2.82-5.12 5.84-.61 2.33-2.46 4.34-3.76 6.5-2.21-1.48-4.84-2.59-6.52-4.52-2.67-3.07-4.71-6.68-7.66-11.01-2.67 19.22-8.44 35.9-21.8 49.57-1.32-.86-2.64-1.73-3.98-2.61 15.31-38.18 11.55-77.65 10.35-117.08-.19.04.15-.15.33-.05 16.17 8.72 33.77 6.72 51.16 7.48 10.19.44 17.71-1.85 22.78-10.84.47-.84 1.27-1.5 2.54-2.96 6.09 4.6 12.34 8.88 18.04 13.81 3.54 3.07 3.34 6.59-.9 8.43-9.47 4.12-10.04 11.35-9.77 20.2.55 18.14.17 36.32.17 54.48 0 16.91-4.21 22.16-21.13 25.87-.86-9.4-7.35-12.5-15.6-13.7-4.09-.59-8.11-1.57-12.73-2.49zm-17.53-73.11c5.82.5 11.15.61 16.36 1.47 7.65 1.26 15.32 2.67 22.75 4.81 2.66.77 5.4 3.46 6.71 5.99.95 1.83.35 5.46-.98 7.16-1.12 1.42-4.47 1.98-6.55 1.55-2.82-.58-5.44-2.36-8.04-3.8-9.37-5.18-19.56-7.72-30.72-10.07v30.33c17.14-3.02 34.19-6.03 50.93-8.99 0-13.6 0-26.16 0-38.6-17.06 0-33.77 0-50.46 0z"/><path d="m296.1 246c0 9.31-.15 17.8.05 26.28.15 6.49 2.92 10.4 9.42 10.78 13.06.76 26.19.86 39.27.42 5.82-.2 8.62-5.12 9.87-10.52 1.15-5.01 1.96-10.1 3.32-15.05.33-1.2 2.49-2.91 3.39-2.69 1.43.36 3.19 1.95 3.59 3.36.6 2.17.31 4.63.14 6.95-.46 6.11 1.46 10.83 6.58 14.66 5.61 4.19 5.28 10.05-1.3 12.74-7.26 2.97-15.2 5.48-22.95 5.79-16.39.67-32.88.39-49.25-.66-14.09-.9-19.14-7.26-19.2-21.45-.1-21.16-.02-42.33-.12-63.49-.02-4.79-.48-9.59-.79-15.5 10.26 2.77 20.25 5.26 30.08 8.31 1.93.6 4.46 3.37 4.42 5.08-.04 1.78-2.57 4.04-4.54 5.11-2.72 1.48-6.02 1.84-8.9 3.07-1.24.53-2.86 1.95-2.95 3.07-.35 4.27-.14 8.59-.14 13.54 9.35 0 18.29.11 27.22-.11 1.4-.03 2.91-1.41 4.11-2.45 4.02-3.48 7.92-7.08 12.3-11.03 5.47 4.89 10.96 9.43 15.95 14.47 1.49 1.5 2.68 4.86 1.98 6.5-.65 1.54-3.98 2.69-6.15 2.72-16.5.2-33 .1-49.5.1-1.79 0-3.59 0-5.9 0z"/><path d="m339.78 133.42c5.82 5.01 11.54 9.59 16.78 14.65 1.65 1.6 3.42 5.32 2.66 6.63-1.06 1.82-4.44 3.13-6.85 3.17-16.99.26-33.98.14-50.97.14-1.8 0-3.59 0-6.25 0 .38 5.4.37 10.37 1.18 15.2.73 4.31 3.88 6.78 8.2 7.72 16.6 3.62 32.98 2.87 49.19-2.19 7.06-2.2 11.29-.82 14.76 4.57 2.64 4.1 2.1 7.52-2.3 9.44-4.05 1.77-8.45 3.1-12.83 3.68-18.55 2.46-37.14 2.7-55.52-1.31-13.36-2.92-18.99-10.33-19-24.04-.02-18.92 0-37.85 0-56.88 8.48 1.86 17.76 3.63 26.85 6.09 2.42.66 5.35 3.08 6.12 5.35 1.22 3.6-2.02 5.53-5.14 6.76-.92.36-1.87.66-2.82.96-9.48 3.01-9.8 3.57-7.72 14.44 8.98 0 18.09.07 27.19-.09 1.1-.02 2.32-1.11 3.25-1.96 4.31-3.92 8.52-7.93 13.22-12.33z"/><path d="m197.9 108.99c8.06 4.47 15.69 8.48 23.05 12.95 1.72 1.04 3.63 3.82 3.37 5.46-.25 1.57-3.2 2.73-5 4.02-.39.28-.94.49-1.41.47-8.88-.28-15.03 4.75-21.15 10.33-7.33 6.67-15.12 12.83-23.84 20.16 23.77-.98 46.2-1.9 69.88-2.87-4.83-7.2-8.95-13.34-13.54-20.18 1.03-.95 2.18-2.02 3.48-3.22 10.46 6.88 20.27 13.68 27.57 23.44 4.65 6.21 5.69 12.49 2.06 16.99-1.6 1.98-4.96 3.67-7.39 3.51-2.12-.14-4.6-2.71-5.93-4.83-1.52-2.43-1.96-5.55-2.92-8.55-10.69 1.95-21.06 3.97-31.49 5.72-10.31 1.73-20.65 3.33-31.01 4.68-3.91.51-6.76 1.62-8.48 5.54-.71 1.61-3.22 3.68-4.56 3.45-1.76-.3-3.18-2.65-4.73-4.13-.11-.1-.11-.31-.17-.46-2.11-5.76-6.47-11.86-5.66-17.18.73-4.82 7.6-8.44 10.88-13.2 8.28-12.01 16.08-24.36 24.04-36.6.97-1.5 1.71-3.17 2.95-5.5z"/><path d="m111 295.76c-2.71-1.43-4.3-2.27-5.34-2.82 5.54-20.36 11.01-40.42 16.5-60.61 7.74 2.21 16.25 4.45 24.59 7.17 2.02.66 3.52 2.92 5.26 4.45-1.68 1.61-3.26 4.47-5.05 4.6-8.37.64-11.74 6.19-15.3 12.73-6.34 11.63-13.57 22.76-20.66 34.48z"/><path d="m71.03 286.87c-.61 5.73-.59 11.32-6.46 14.49-5.98 3.22-10.7 1.27-11.78-5.37-.93-5.72-.87-11.58-1.5-17.36-1.64-14.91-7.5-28.51-13.43-42.06-.86-1.97-1.86-3.92.9-4.87 1.18-.4 3.43-.24 3.99.54 9.31 12.74 19.5 25 24.72 40.21 1.6 4.67 2.39 9.61 3.56 14.42z"/><path d="m180.2 309.33c-.51 14.23-.19 28.38-5.11 41.9-3.84 10.57-10.52 18.31-22.43 19.21-2.97.22-6.98-1.22-8.99-3.34-2.56-2.7-2.26-6.87.35-10.08 1.45-1.79 3.03-3.7 4.98-4.82 15.14-8.73 21.43-23.04 24.85-39.12.74-3.45 2.05-5.08 6.35-3.75z"/><path d="m328.95 308.28c.9-.81 2.11-1.9 3.52-3.18 13.7 11.92 27.55 23.44 36.21 39.56 2.35 4.37 3.58 9.59 4.21 14.55.62 4.88-3 8.89-7.44 9.8-5.24 1.07-7.74-2.26-9.31-6.34-3.32-8.64-5.55-17.8-9.7-26-4.9-9.67-11.35-18.57-17.49-28.39z"/><path d="m270.67 313.05c1.84-1.23 3.31-2.22 5.06-3.39 10.59 12.04 21.76 23.3 28.61 37.79 1.58 3.33 2.44 7.21 2.71 10.9.38 5.33-3.07 9.13-8.08 9.6-4.92.47-6.79-3.25-7.79-6.94-3.96-14.65-9.03-28.82-16.9-41.88-1.11-1.83-2.2-3.69-3.61-6.08z"/><path d="m224.27 314.16c3.3-2.56 5.5-1.74 7.47 1.81 6.74 12.12 11.02 24.92 10.55 38.9-.12 3.69-1.14 7.57-2.66 10.94-1.87 4.15-5.77 5.34-10.11 4.02-4.28-1.31-4.99-4.63-4.78-8.7.54-10.73 1.04-21.48 1.1-32.22.02-4.91-1.02-9.84-1.57-14.75z"/></g></svg>