<svg enable-background="new 0 0 400 400" viewBox="0 0 400 400" xmlns="http://www.w3.org/2000/svg"><g fill="#010105"><path d="m351.05 318.26c7.52 6.83 14.75 13.2 21.69 19.87 1.32 1.27 2.41 4.13 1.86 5.6-.56 1.48-3.2 2.41-5.11 3.09-1.34.48-2.97.17-4.46.17-34.5 0-69 0-103.5 0-1.82 0-3.64 0-6.13 0 0 4.44.08 8.56-.02 12.68-.15 5.91-2.58 8.82-7.58 9.3-5.31.51-9.84-2.31-10.19-7.87-.48-7.57.41-15.23.54-22.85.34-19.11.59-38.22.87-57.33.02-1.5-.02-3-.02-4.5-.02-47-.05-94-.07-140.99 0-1.64 0-3.28 0-5.55-9.44 14.11-18.51 27.67-27.57 41.21-4.63-2.32-4.89-4.7-2.86-8.62 20.27-39.29 33.13-81.02 40.53-124.52.33-1.95.88-3.85 1.5-6.55 8.09 2.57 16.16 4.88 23.99 7.83 1.91.72 4.23 3.6 4.16 5.4-.07 1.77-2.83 4.76-4.61 4.91-9.45.78-11 7.71-13.03 14.85-3.71 13.07-7.81 26.02-11.84 39.35h58.45c-4.23-18.59-10.82-36.09-24.67-50.08.54-.66.96-1.15 1.37-1.65.84-1.04 1.66-2.09 2.59-3.27 11.32 7.86 21.49 16.08 29.33 26.79 2.23 3.04 4.05 6.54 5.31 10.09 2.48 6.99 1.44 10.27-4.99 18.36 5.07 0 9.63.17 14.15-.11 1.22-.08 2.51-1.4 3.5-2.42 4.75-4.9 9.4-9.88 14.68-15.46 7.69 7.01 15.32 13.84 22.73 20.89.91.87 1.41 3.47.79 4.34-.97 1.36-3.04 2.69-4.67 2.72-10.99.23-22 .12-33 .12-6.66 0-13.31 0-20.37 0v64.4c7.2 1.37 13.53 1.05 18.4-5.77 3.15-4.4 7.42-7.98 11.37-12.11 7.45 6.75 14.7 13.11 21.63 19.78 1.29 1.24 2.39 4.3 1.74 5.55-.82 1.57-3.54 2.98-5.46 3.01-14 .25-28 .13-42 .14-1.81 0-3.62 0-5.75 0v65.68c7.36.1 15.07 2.47 20.67-5.82 3.03-4.48 7.43-8.03 11.31-12.1 7.23 6.61 14.34 12.9 21.13 19.51 1.44 1.4 2.91 4.69 2.22 5.87-.94 1.61-3.91 2.82-6.03 2.85-14.5.24-29 .13-43.5.13-1.81 0-3.61 0-5.78 0v71.62c6 0 11.95.13 17.88-.11 1.22-.05 2.57-1.33 3.55-2.34 4.99-5.14 9.87-10.37 15.27-16.09zm-95.31-52.83v71.05h40.9c0-23.87 0-47.4 0-71.05-13.75 0-27.16 0-40.9 0zm40.85-10.68c0-22.06 0-43.76 0-65.36-13.83 0-27.25 0-40.9 0v65.36zm.01-75.95c0-21.81 0-43.16 0-64.44-13.81 0-27.23 0-40.74 0v64.44z"/><path d="m123.53 234.25c-18.14 0-35.76 0-53.87 0-.49 9.37-1.1 18.63-1.31 27.9-.02 1.07 1.99 2.61 3.38 3.21 9.44 4.09 19.24 7.44 28.34 12.14 5.15 2.66 9.59 7.08 13.57 11.43 2.03 2.21 3.34 6.07 3.13 9.05-.2 2.81-2.23 6.43-4.57 7.85-1.69 1.03-6-.08-7.78-1.72-5.6-5.18-10.26-11.37-15.85-16.57-6.28-5.84-13.17-11.02-19.45-16.19-3.95 17.55-7.03 34.67-11.77 51.31-4.87 17.1-16.08 30.78-27.5 44.6-1.44-1.29-2.62-2.35-3.61-3.24 4.27-9.06 8.82-17.71 12.5-26.73 7.4-18.15 10.72-37.32 11.95-56.75 1.16-18.25 1.41-36.56 1.84-54.86.12-5.09-.54-10.21-.93-16.73 5.13 3.86 9.47 6.79 13.42 10.18 4.11 3.52 8.4 5.14 13.99 4.99 14.45-.4 28.91-.13 43.45-.13 0-12.51 0-24.57 0-37.94 10.07 2.74 20.12 5.13 29.92 8.31 4.08 1.33 4.26 5.29.59 7.65-3.31 2.12-7.26 3.22-10.74 5.11-1.29.7-2.78 2.33-2.9 3.64-.37 4.11-.14 8.28-.14 13.22h10.53 4.5c7.5 0 15.09.73 22.47-.2 7.78-.98 10.3-9.69 16.87-13.61 6.41 4.97 13.09 9.89 19.42 15.22 1.51 1.27 3.14 4.47 2.53 5.69-.83 1.65-3.76 3.15-5.79 3.17-21.49.11-42.99-.09-64.48-.2-1.8-.01-3.6 0-5.94 0 1.25 22.99 3.3 45.26 13.98 67.24 6.58-8.73 13-16.52 18.58-24.87 5.61-8.39 10.39-17.33 15.9-26.65 7.62 4.31 15.6 8.63 23.34 13.35 1.55.95 3.21 3.59 2.94 5.13-.26 1.5-2.74 3.25-4.55 3.72-2.8.72-5.9.85-8.78.46-3-.41-4.89.28-6.83 2.65-10.76 13.1-21.69 26.05-33.47 40.15 5.91 5.61 12.43 12.41 19.63 18.4 4.87 4.05 9.44 3.18 13.38-2.02 2.88-3.81 4.93-8.26 7.16-12.52 3.07-5.87 5.95-11.84 9.04-18.02 1.98.91 3.6 1.65 5.6 2.57-2.15 7.15-3.87 14.23-6.4 21.01-3.54 9.47-3.15 18.16 3.18 26.32.81 1.04 1.43 2.25 1.95 3.47 2.21 5.2-.2 9.36-5.89 9.81-9.32.74-17.87-2.03-25.47-7.09-6.48-4.32-12.67-9.19-18.46-14.4-5.78-5.22-10.9-11.17-16.75-17.25-24.78 17.78-52.33 30.98-82.13 40.22-.6-1.02-1.21-1.95-1.73-2.94-.53-1.03-.97-2.1-.9-1.96 19.93-11.46 39.72-22.65 59.29-34.2 5.56-3.28 10.6-7.49 15.62-11.58 1.1-.9 2.03-3.56 1.5-4.69-10.84-23.03-14.28-47.57-15.2-72.65-.05-.98-.17-1.95-.3-3.46z"/><path d="m45.85 102.56c5.15 2.42 9.51 4.82 14.12 6.53 3.78 1.4 7.86 2.76 11.82 2.79 33.98.22 67.97.05 101.95.22 4.37.02 7.55-.95 10.13-4.61 2.19-3.1 4.97-5.77 7.98-9.18 6.27 4.5 12.65 8.64 18.52 13.43 4.2 3.42 3.84 6.44-.21 9.96-1.12.98-2.31 2.11-3.67 2.54-6.66 2.12-7.62 6.87-7.18 13.1.86 12.26 1.02 24.57 1.72 36.84.49 8.74-2.62 12.32-11.01 11.96-5.54-.24-6.49-1.31-7.38-8.67-40.02 0-80.07 0-120.09 0-1.32 9.24-4.99 11.8-13.17 9.89-4.26-.99-5.73-3.62-5.54-7.57.31-6.47.92-12.94 1.04-19.41.33-17.64.47-35.28.7-52.92.04-1.32.15-2.64.27-4.9zm90.94 65.21c0-15.26 0-30.01 0-45-9.94 0-19.66 0-29.29 0v45zm45.89-.13c0-15.26 0-30.01 0-44.88-9.9 0-19.47 0-29.24 0v44.88zm-120.23-44.91v44.92h28.19c0-15.14 0-29.99 0-44.92-9.62 0-18.86 0-28.19 0z"/><path d="m157 70c0 6.8.11 12.8-.03 18.78-.16 6.79-1.83 8.9-7.39 9.95-5.8 1.1-8.92-1.38-8.96-7.36-.07-10.49-.02-20.99-.02-31.48 0-9.6 0-19.2 0-29.79 9.33 2.67 19.42 5.12 29.17 8.52 4.81 1.68 4.75 5.82.34 8.64-2.19 1.4-4.78 2.25-7.27 3.1-6.17 2.12-6.19 2.06-5.47 9.61 7.55 0 15.16.1 22.77-.1 1.26-.03 2.66-1.15 3.71-2.09 4.09-3.65 8.07-7.43 12.61-11.63 6.35 4.94 13.49 10.3 20.32 16.04 1.12.94 1.71 4.16.97 5.23-.99 1.42-3.52 2.42-5.4 2.45-12.82.23-25.65.13-38.48.13-5.45 0-10.91 0-16.87 0z"/><path d="m39.98 70.79c-1.89-3.97-4.03-8.44-6.05-12.68 18.52.84 36.94 1.68 55.51 2.53 0-11.08 0-21.12 0-31.96 9.37 2.47 18.8 4.7 28.02 7.58 2.01.63 4.37 3.47 4.58 5.49.16 1.59-2.69 3.56-4.33 5.23-.54.55-1.47.75-2.24 1.04-9.28 3.45-9.28 3.45-9.28 13.09 0 9.82.05 19.64-.02 29.45-.04 5.67-3.33 8.56-9.32 8.43-5.03-.11-6.86-2.26-6.89-8.2-.03-6.65-.01-13.3-.01-20.01-16.55.01-32.87.01-49.97.01z"/><path d="m154.65 185.62c.49-1.7 2.54-2.52 5.48-.65 6.69 4.26 13.77 8.07 19.8 13.12 2.56 2.15 3.58 6.91 3.9 10.6.16 1.83-2.47 4.73-4.51 5.66-1.43.66-4.24-.85-6-2.03-1.42-.95-2.22-2.85-3.25-4.35-4.85-7.02-9.69-14.05-15.42-22.35z"/></g><path d="m378.6 9.2.8-1c.9.7 1.9 1.4 2.9 2.3l-.9 1.1c-1.1-.9-2-1.7-2.8-2.4zm.5 10.7c.9-2.1 1.6-4.3 2.3-6.7.4.2.8.4 1.3.6-.7 2.1-1.5 4.3-2.2 6.6zm.4-15.2.9-.9c1 .8 2 1.6 2.8 2.4l-1 1c-1-.9-1.9-1.8-2.7-2.5zm12.5-1.3h1.2v1.4h2.7v1.1h-2.7v2.7h-1.2v-.5h-1.8v1.3h4.9v3.8h-1.2v-.5h-3.7c0 .4-.1.9-.1 1.2h5.1v1h-5.2c0 .5-.1.9-.2 1.2h6v1h-5.2c1.1 1.3 2.9 2 5.5 2.2-.4.4-.7.8-.9 1.3-2.9-.5-4.8-1.6-5.7-3.5h-.1c-.8 1.7-2.7 2.9-5.9 3.6-.2-.4-.6-.8-.9-1.1 2.8-.6 4.6-1.4 5.4-2.5h-4.8v-1h5.3c.1-.3.2-.7.2-1.2h-4.9v-1h5c0-.4 0-.8.1-1.2h-3.6v.5h-1.2v-3.8h4.9v-1.3h-1.8v.5h-1.2v-2.7h-2.6v-1.1h2.6v-1.4h1.2v1.4h4.7v-1.4zm-6.7 8.4h3.6c0-.4 0-.9 0-1.4h-3.6zm1.9-4.7h4.7v-1.2h-4.7zm6.7 3.3h-3.7v1.4h3.7z" fill="#fafbfa"/><path d="m384.7 21.4h1.3v2.2h2.8v-2.2h1.3v2.2h4.1v9.1h1.7v1.3h-16.9v-1.3h1.7v-9.1h4.1v-2.2zm.3 13.2.7 1.2c-1.8.9-3.8 1.9-6 2.9-.2-.4-.5-.8-.8-1.3 2.4-1 4.4-2 6.1-2.8zm-3.1-6.5h2.8v-3.2h-2.8zm0 4.6h2.8v-3.3h-2.8zm4.1-4.6h2.8v-3.2h-2.8zm0 4.6h2.8v-3.3h-2.8zm3.6 1.9c2.1.9 4.1 1.8 6.1 2.7l-.7 1.3c-2.2-1.1-4.2-2-6.1-2.9zm3.3-9.7h-2.8v3.2h2.8zm-2.8 7.8h2.8v-3.2h-2.8z" fill="#fafbfa"/></svg>