<svg enable-background="new 0 0 400 400" viewBox="0 0 400 400" xmlns="http://www.w3.org/2000/svg"><g fill="#010104"><path d="m119.09 221.87c6.64 4.03 12.67 7.82 18.85 11.33 1.77 1.01 3.99 1.72 6.01 1.72 44.49.1 88.98.12 133.46-.06 2.22-.01 4.83-1.59 6.56-3.19 2.9-2.67 5.24-5.96 8.32-9.56 5.96 4.36 12.04 8.37 17.59 13.01 4.31 3.61 3.85 6.22-.64 9.6-.13.1-.26.24-.41.28-8.62 2.15-8.29 8.79-7.86 15.54.17 2.66.29 5.36-.02 7.99-.89 7.6.3 13.95 7.97 17.9 1.69.87 2.26 3.93 3.35 5.98-2.2.87-4.4 2.46-6.61 2.48-20.99.19-41.99.11-62.98.12-33.16.02-66.31.04-99.47.06-1.65 0-3.3 0-5.62 0 .15 3.02.38 5.74.4 8.46.06 8.33-.02 16.66.08 24.99.09 7.72.95 9.29 8.44 10.39 9.84 1.45 19.79 2.66 29.72 2.89 24.8.59 49.62.99 74.42.66 21.61-.29 43.21-1.56 64.8-2.65 9.63-.49 13.53-3.59 15.31-13.21 1.93-10.42 2.79-21.05 4.14-31.58.29-2.27.7-4.53 1.06-6.82 4.85-.65 6.58 1.05 6.28 5.71-.55 8.46-.72 16.95-.91 25.43-.16 6.87 1.2 12.94 7.11 17.71 8.75 7.05 7.55 13.04-3.41 16.23-6.94 2.02-14.28 3.39-21.49 3.63-23.46.78-46.94 1.1-70.41 1.22-31.65.16-63.31.1-94.97-.15-7.11-.06-14.27-.9-21.31-2.01-10.11-1.6-15.32-7.72-16.08-17.98-.15-1.99-.17-3.99-.17-5.99-.01-24.83.14-49.65-.07-74.48-.11-11.62-.92-23.23-1.44-35.65zm164.65 23.66c-48.75 0-97.07 0-145.46 0v39.15h145.46c0-13.1 0-25.87 0-39.15z"/><path d="m189.93 92.75c-42.49 0-84.58 0-127 0-.61 5.42-.59 10.97-1.99 16.14-1.63 6-3.93 12-7 17.39-3.32 5.84-8.9 8.78-15.99 7.99-6.56-.73-9.82-6.52-6.65-12.29 1.02-1.85 2.46-3.71 4.16-4.91 13.45-9.46 18.04-23.29 19.47-38.75.3-3.29.74-6.56 1.14-10.1h6.09v13.42h127.49c0-9.07 0-17.97 0-26.9-.69-.23-1.14-.52-1.6-.51-32.66.03-65.33.02-97.99.21-5.62.03-11.25.9-16.86 1.55-2.93.34-5.09.02-6.22-3.26-1.23-3.54-2.96-6.9-4.69-10.84 10.45.79 20.19 1.53 29.92 2.27 1.99.15 3.97.4 5.96.4 62.66.02 125.33-.02 187.99.1 4.04.01 6.78-1.29 9.56-4.09 4.67-4.71 9.82-8.95 15.11-13.69 6.57 5.86 14.12 12.38 21.34 19.23 1.26 1.2 2.22 4.54 1.48 5.57-1.06 1.47-3.81 2.37-5.84 2.37-38 .13-76 .1-114 .1-1.97 0-3.94 0-6.29 0v27.83h5.75c39.33 0 78.67-.13 118 .15 5.41.04 9.17-1.41 12.21-5.67 1.44-2.01 3.22-3.78 5.41-6.3 7.01 5.83 14.08 11.3 20.62 17.33 3.23 2.97 2.09 5.93-2.1 7.59-.77.31-1.58.76-2.37.74-8.38-.16-13.02 5.44-17.74 11.16-5.06 6.15-10.41 12.06-15.79 18.25-1.85-1.18-3.2-2.04-4.57-2.9 4.16-9.86 8.2-19.42 12.49-29.6-44.43 0-87.98 0-132.05 0-.09 1.86-.27 3.62-.23 5.37.62 24.62 1.29 49.25 1.92 73.87.19 7.23-1.77 9.24-8.95 9.4-7.64.17-10.21-2.15-10.22-9.4-.02-24.5-.01-49-.01-73.5.04-1.77.04-3.58.04-5.72z"/><path d="m332.89 177.51c7.52 6.72 15.05 13.26 22.3 20.09 1.19 1.12 2 3.83 1.48 5.26-.51 1.4-2.83 2.43-4.57 3-1.51.5-3.3.14-4.96.14-86.63 0-173.26 0-259.89 0-1.99 0-3.98 0-6.56 0-.18 3.79-.41 7.37-.5 10.95-.39 17.13.15 34.34-1.3 51.38-3.13 36.67-14.95 70.01-40.77 97.34-1.13 1.2-1.96 2.68-3 4.12-2.25-1.84-3.65-2.98-4.45-3.64 6.31-13 13.12-25.39 18.44-38.39 8.19-19.98 11.95-41.13 12.76-62.65.77-20.45.78-40.94.88-61.41.03-6.44-.74-12.89-1.21-20.53 6.59 3.81 12.2 7.26 18.01 10.31 2.24 1.17 4.95 2.03 7.45 2.03 74.47.11 148.94.12 223.4-.05 2.44-.01 5.34-1.43 7.23-3.1 5.13-4.49 9.81-9.48 15.26-14.85z"/><path d="m70.37 154.18c33.06-3.04 65.57-6.02 98.46-9.05.13.75.42 2.49.83 4.98-8.05 2.33-16.05 4.94-24.19 6.93-16.73 4.09-33.53 7.94-50.35 11.66-2.62.58-3.97 1.52-4.75 4.06-1.11 3.63-2.31 8.09-6.85 8.09-4.55 0-5.65-4.56-6.92-8.11-2.27-6.37-4.32-12.83-6.23-18.56z"/><path d="m228.04 151.59c0-1.92 0-3.4 0-5.53 5.17.3 10.28.24 15.28.94 18.04 2.52 36.09 4.96 54.01 8.17 5.21.93 10.12 4.05 14.9 6.67 3.77 2.06 5.41 5.68 4.93 10.12-.52 4.87-4.45 8.07-9 6.31-6.78-2.62-13.23-6.08-19.87-9.08-18.73-8.45-38.53-13.26-58.62-17.1-.46-.09-.9-.28-1.63-.5z"/><path d="m228.28 127.18c22.31-5.8 44.39-12.73 64.41-26.17 5.84 5.68 11.8 11.17 17.31 17.06 1.27 1.36 1.04 4.13 1.5 6.25-2.27.44-5.11 1.98-6.72 1.15-7.85-4.07-15.16-1.35-22.97.14-16.07 3.07-32.36 5.02-48.55 7.51-4.72.73-6.07-1.28-4.98-5.94z"/><path d="m81.23 108.33c21.09.46 41.99-.94 62.58 3.63 3.51.78 7.07 2.09 10.12 3.95 2.41 1.47 4.56 3.88 5.95 6.36 2.15 3.85 1.4 8.46-1.79 10.91-2.25 1.72-6.74 2.2-9.51 1.22-6.21-2.19-11.9-5.79-17.92-8.53-14.2-6.46-29.33-9.23-44.72-10.82-5.08-.52-5.17-.62-4.71-6.72z"/></g><path d="m2.6 9.9.8-1c.9.7 1.9 1.4 2.9 2.3l-.9 1.1c-1.1-1-2-1.8-2.8-2.4zm.5 10.6c.9-2.1 1.6-4.3 2.3-6.7.4.2.8.4 1.3.6-.7 2.1-1.5 4.3-2.2 6.6zm.3-15.2.9-.9c1 .8 2 1.6 2.8 2.4l-1 1c-.9-.9-1.8-1.7-2.7-2.5zm12.6-1.2h1.2v1.4h2.7v1.1h-2.7v2.7h-1.2v-.6h-1.8v1.3h4.9v3.8h-1.2v-.5h-3.7c0 .4-.1.9-.1 1.2h5.1v1h-5.2c0 .5-.1.9-.2 1.2h6v1h-5.2c1.1 1.3 2.9 2 5.5 2.2-.4.4-.7.8-.9 1.3-2.9-.5-4.8-1.6-5.7-3.5h-.1c-.8 1.7-2.7 2.9-5.9 3.6-.2-.4-.6-.8-.9-1.1 2.8-.6 4.6-1.4 5.4-2.5h-4.8v-1h5.3c.1-.3.2-.7.2-1.2h-4.9v-1h5c0-.4 0-.8.1-1.2h-3.6v.5h-1.2v-3.8h4.9v-1.3h-1.8v.5h-1.2v-2.7h-2.7v-1h2.7v-1.4h1.2v1.4h4.8zm-6.7 8.3h3.6c0-.4 0-.9 0-1.4h-3.6zm1.9-4.6h4.8v-1.3h-4.7v1.3zm6.7 3.2h-3.7v1.5h3.7z" fill="#fbfafa"/><path d="m8.7 22.1h1.3v2.2h2.8v-2.2h1.3v2.2h4.1v9.1h1.7v1.3h-17v-1.3h1.7v-9.1h4.1zm.3 13.1.7 1.2c-1.8.9-3.8 1.9-6 2.9-.2-.4-.5-.8-.8-1.3 2.3-1 4.4-1.9 6.1-2.8zm-3.1-6.4h2.8v-3.2h-2.8zm0 4.6h2.8v-3.3h-2.8zm4.1-4.6h2.8v-3.2h-2.8zm0 4.6h2.8v-3.3h-2.8zm3.6 1.9c2.1.9 4.1 1.8 6.1 2.7l-.7 1.4c-2.2-1.1-4.2-2-6.1-2.9zm3.2-9.7h-2.8v3.2h2.8zm-2.7 7.8h2.8v-3.4h-2.8z" fill="#fbfafa"/></svg>