<svg enable-background="new 0 0 400 400" viewBox="0 0 400 400" xmlns="http://www.w3.org/2000/svg"><path d="m374.8 390.4.4-.4c.7.5 1.3 1 1.8 1.4l-.5.5c-.5-.6-1.1-1.1-1.7-1.5zm1 7.3-.6-.3c.5-1.4 1.1-2.8 1.5-4.3.2.1.4.2.6.3-.5 1.3-1 2.8-1.5 4.3zm-.4-10.3.4-.4c.4.3 1 .8 1.7 1.4l-.5.5c-.4-.5-1-1-1.6-1.5zm2.5.3h1.7v-1h.6v1h3.5v-1h.6v1h1.8v.5h-1.8v1.4h-2v1h3.2v2h-3.2v.9h3.3v.5h-3.4c0 .3-.1.6-.1.9h4v.5h-3.7c.7.9 1.9 1.5 3.8 1.7-.1.2-.2.4-.3.6-2.1-.4-3.5-1.1-4-2.1-.4 1-1.8 1.7-4 2.2-.1-.2-.2-.4-.3-.6 2.1-.4 3.4-1 3.8-1.8h-3.4v-.5h3.6c.1-.3.1-.6.2-.9h-3.3v-.5h3.4c0-.3 0-.6 0-.9h-3.2v-2h3.3v-1h-2.1v-1.4h-1.7v-.5zm1.1 3.5v1h2.7c0-.3 0-.4 0-.4 0-.2 0-.2 0-.2 0-.1 0-.2 0-.3h-2.7zm1.2-3v.9h3.5v-.9zm4.7 3h-2.6v.6.4h2.6z" fill="#fbfafc"/><path d="m393.6 386.7h.6v1.5h2.8v6.1h1.1v.6h-11.1v-.6h1.1v-6.1h2.7v-1.5h.6v1.5h2.1v-1.5zm-2.7 8.8.4.6c-1.2.6-2.5 1.3-3.8 1.9-.1-.2-.2-.4-.3-.6 1.2-.6 2.5-1.2 3.7-1.9zm-2.2-6.7v2.4h2.1v-2.4zm0 3v2.5h2.1v-2.5zm2.8-3v2.4h2.1v-2.4zm0 3v2.5h2.1v-2.5zm6 6.1c-1.4-.7-2.7-1.3-3.9-1.8l.3-.6c1.5.6 2.7 1.2 3.9 1.7zm-1.2-9.1h-2.1v2.4h2.1zm-2.1 3v2.5h2.1v-2.5z" fill="#fbfafc"/><g fill="#010100"><path d="m188.93 96.13c-42.73 0-84.7 0-126.95 0-.62 5.47-.49 11.07-2.03 16.16-1.99 6.56-4.72 13.1-8.28 18.94-3.19 5.22-8.89 7.49-15.18 6.24-6.81-1.35-9.18-7.38-5.34-13.21 1.17-1.78 2.65-3.52 4.38-4.72 12.65-8.77 16.66-21.86 18.37-36.13.47-3.94.82-7.9 1.25-12.12h6.06v13.91h127.45c0-9.66 0-19.07 0-28.64-.88-.15-1.51-.35-2.14-.34-31.49.05-62.98.04-94.47.24-5.62.04-11.25.86-16.85 1.56-3.23.4-5.29-.24-6.42-3.68-1.18-3.61-3-7.01-4.39-10.16 61.2 3.78 122.53.99 183.83 1.82 10.5.14 21.06-.67 31.48.23 8.97.77 15.2-2.24 20.44-9.1 2.4-3.15 5.6-5.68 8.95-9 7.61 6.76 15.37 13.45 22.82 20.47 1.09 1.03 1.56 4.25.78 5.33-.99 1.36-3.57 2.17-5.46 2.18-38.16.12-76.32.09-114.48.09-1.96 0-3.92 0-6.21 0v29.17c1.88.09 3.66.24 5.45.24 40.16.01 80.32-.04 120.48.1 3.73.01 6.25-1.06 8.45-3.99 2.08-2.77 4.63-5.18 7.3-8.11 6.51 5.26 12.96 10.18 19.01 15.56 1.61 1.42 2.99 4.42 2.61 6.33-.29 1.49-3.37 3.24-5.36 3.46-6.53.72-11 3.6-15.04 8.99-5.54 7.39-12.43 13.76-18.83 20.67-1.89-1.25-3.24-2.15-4.55-3.02 4.18-9.76 8.26-19.32 12.56-29.36-44.46 0-88.06 0-131.89 0-.17.81-.49 1.58-.48 2.35.05 20.99-.03 41.99.27 62.98.12 8.12 1.13 16.23 1.67 24.35.23 3.51-.4 6.82-4.05 8.36-4.25 1.79-8.88 2.71-12.77-.22-1.56-1.17-2.29-4.3-2.3-6.54-.15-28.49-.1-56.99-.1-85.48-.04-1.83-.04-3.64-.04-5.91z"/><path d="m166.48 340.54c32.53-26.76 58.28-58.04 75.31-96.82-1.22-.25-1.96-.54-2.68-.52-19.12.54-38.24 1.14-57.36 1.58-1.13.03-2.85-.9-3.34-1.86-2.02-3.98-3.67-8.14-5.14-11.51 26.21.71 52.51 1.42 79.05 2.13 0-16.02 0-31.06 0-46.89 9.75 2.58 19.51 4.95 29.1 7.88 1.92.59 4.56 3.48 4.39 5.04-.22 2.02-2.71 4.04-4.64 5.52-1.36 1.04-3.42 1.65-5.15 1.61-5.67-.11-6.26 3.09-6.01 7.69.32 5.95.08 11.94.08 18.54h14.61c9.83 0 19.67.18 29.49-.13 2.33-.07 5.07-1.24 6.83-2.8 5.34-4.73 10.29-9.89 15.58-15.06 7.13 6.37 14.42 12.68 21.42 19.3 1.44 1.37 3 4.72 2.33 5.73-1.08 1.65-3.94 2.94-6.07 2.96-24.16.23-48.33.2-72.49.23-1.78 0-3.56 0-6.59 0 3.58 5.71 6.61 10.55 9.65 15.39 18.78 29.91 42.51 54.54 74.73 70.12 1.64.79 3.64 1.24 4.84 2.47 1.26 1.28 2.47 3.36 2.33 4.97-.09 1.08-2.57 2.82-3.96 2.8-8.15-.16-15.23 1.7-20.11 9.6-33.16-25.52-55.65-58.43-72.43-96.12-.08 1.35-.24 2.71-.24 4.06.04 27.83.01 55.66.23 83.49.05 6.63.87 13.26 1.54 19.88.4 3.91.1 8.26-3.68 9.4-4.11 1.24-8.94.88-13.26.1-1.13-.2-2.15-4.54-2.15-6.98-.07-31.33.06-62.66.14-93.99 0-1.79 0-3.57-.61-5.74-21.09 34.33-47.47 63.17-82.95 83.16-.45-.71-1.02-1.51-1.49-2.37-.46-.85-.82-1.78-1.3-2.86z"/><path d="m44.6 375.88c-1-1.48-2-2.94-3.4-5.01 26.99-20.48 37.63-48.1 35.59-81.27-8.8 0-17.4 0-26 .01-.16 0-.32.1-.48.12-9.03 1.26-9.03 1.27-12.34-7.01-.85-2.14-1.66-4.29-2.13-5.51 32.12.8 64.3 1.59 96.83 2.4 0-12.93 0-24.85 0-37.53-1.66 0-3.41 0-5.16 0-15.5 0-31-.23-46.5.1-6.89.15-13.79 1.26-20.64 2.24-5.91.85-8.27-.86-8.34-7.1-.12-10.33-.07-20.67-.09-31-.01-3.95 0-7.91 0-12.72 9.55 2.37 19.48 4.64 29.24 7.46 1.66.48 3.62 3.32 3.66 5.11.04 1.8-1.77 4.2-3.45 5.34-2.11 1.43-4.86 2.12-7.43 2.62-3.58.69-4.92 2.43-4.61 6.12.34 4.09.08 8.23.08 12.48h63.08c0-15.6 0-30.99 0-46.62 8.16 1.94 16.38 3.84 24.57 5.86 1.92.47 3.99 1.03 5.53 2.17 1.72 1.28 4.08 3.29 4.04 4.92-.04 1.73-2.33 3.8-4.12 4.98-1.87 1.23-4.28 1.88-6.54 2.25-4.5.73-6.03 2.77-5.94 7.62.36 18.66.12 37.33.15 56 .05 23.33.08 46.66.26 69.99.06 7.48.77 14.96.77 22.43 0 5.05-1.97 6.37-9.25 7.24-4.17.5-7.2-.98-8.21-5.3-.45-1.91-.72-3.91-.73-5.87-.05-22.83-.03-45.66-.03-68.93-12.41 0-24.64 0-37.2 0-.89 7-1.86 14.2-2.72 21.41-3.68 30.8-20.45 51.87-48.49 65z"/><path d="m67.63 159.75c34.42-3.93 68.11-7.77 102.26-11.67.12.5.55 2.2 1.16 4.64-12.99 3.8-25.75 7.77-38.65 11.25-13.25 3.58-26.6 6.83-39.99 9.87-2.91.66-4.17 1.86-5.1 4.48-1.18 3.33-1.96 7.68-6.56 7.7-4.5.02-5.63-4.12-6.85-7.5-2.3-6.45-4.35-13-6.27-18.77z"/><path d="m224.11 149.24c19.4 2.27 38.2 4.17 56.89 6.81 7.98 1.13 15.83 3.5 23.58 5.85 6.13 1.86 10.01 6.24 11.18 12.78.96 5.41-1.79 8.93-7.29 8.58-2.57-.17-5.33-.88-7.58-2.11-23.97-13.12-49.73-20.77-76.77-25.26-.01-1.94-.01-3.68-.01-6.65z"/><path d="m291.94 101.16c5.51 6.2 11.14 12.3 16.43 18.68 1.05 1.26 1.65 4.07.94 5.29s-3.8 2.36-5.01 1.78c-11.73-5.65-22.51.26-33.68 2.14-14.51 2.44-29.13 4.25-44.25 6.4-.24-2.43-.41-4.16-.62-6.35 22.78-6.08 44.89-13.41 66.19-27.94z"/><path d="m81.98 113.83c0-2 0-3.61 0-5.85 7.45.67 14.69.97 21.81 2.03 11.62 1.73 23.24 3.65 34.7 6.16 3.87.85 7.58 3.36 10.85 5.79 4.4 3.28 5.1 10.06 2.1 14.41-2.56 3.71-7.39 4.51-12.42.8-16.99-12.54-36.56-18.54-57.04-23.34z"/></g></svg>