<svg enable-background="new 0 0 400 400" viewBox="0 0 400 400" xmlns="http://www.w3.org/2000/svg"><path d="m374.8 390.4.4-.4c.7.5 1.3 1 1.8 1.4l-.5.5c-.5-.6-1.1-1.1-1.7-1.5zm1 7.3-.6-.3c.5-1.4 1.1-2.8 1.5-4.3.2.1.4.2.6.3-.5 1.3-1 2.8-1.5 4.3zm-.4-10.3.4-.4c.4.3 1 .8 1.7 1.4l-.5.5c-.4-.5-1-1-1.6-1.5zm2.5.3h1.7v-1h.6v1h3.5v-1h.6v1h1.8v.5h-1.8v1.4h-2v1h3.2v2h-3.2v.9h3.3v.5h-3.4c0 .3-.1.6-.1.9h4v.5h-3.7c.7.9 1.9 1.5 3.8 1.7-.1.2-.2.4-.3.6-2.1-.4-3.5-1.1-4-2.1-.4 1-1.8 1.7-4 2.2-.1-.2-.2-.4-.3-.6 2.1-.4 3.4-1 3.8-1.8h-3.4v-.5h3.6c.1-.3.1-.6.2-.9h-3.3v-.5h3.4c0-.3 0-.6 0-.9h-3.2v-2h3.3v-1h-2.1v-1.4h-1.7v-.5zm1.1 3.5v1h2.7c0-.3 0-.4 0-.4 0-.2 0-.2 0-.2 0-.1 0-.2 0-.3h-2.7zm1.2-3v.9h3.5v-.9zm4.7 3h-2.6v.6.4h2.6z" fill="#fbfafc"/><path d="m393.6 386.7h.6v1.5h2.8v6.1h1.1v.6h-11.1v-.6h1.1v-6.1h2.7v-1.5h.6v1.5h2.1v-1.5zm-2.7 8.8.4.6c-1.2.6-2.5 1.3-3.8 1.9-.1-.2-.2-.4-.3-.6 1.2-.6 2.5-1.2 3.7-1.9zm-2.2-6.7v2.4h2.1v-2.4zm0 3v2.5h2.1v-2.5zm2.8-3v2.4h2.1v-2.4zm0 3v2.5h2.1v-2.5zm6 6.1c-1.4-.7-2.7-1.3-3.9-1.8l.3-.6c1.5.6 2.7 1.2 3.9 1.7zm-1.2-9.1h-2.1v2.4h2.1zm-2.1 3v2.5h2.1v-2.5z" fill="#fbfafc"/><g fill="#010100"><path d="m71.34 192.36c6.72 3.96 12.77 7.77 19.07 11.11 2.5 1.33 5.56 2.25 8.37 2.25 63.32.12 126.65.06 189.97.18 4.31.01 7.61-.78 10.26-4.46 2.32-3.22 5.27-5.99 8.48-9.56 6.4 4.4 13.11 8.57 19.27 13.43 3.94 3.11 3.43 6.86-.53 10.04-1.41 1.14-2.93 2.4-4.61 2.91-5.9 1.78-6.9 5.76-6.58 11.38.49 8.8-.03 17.66.25 26.48.06 2 1.26 4.34 2.67 5.84 3.18 3.38 7.1 6.07 10.19 9.52 3.59 4.01 2.21 7.04-3.16 7.66-2.31.27-4.65.25-6.98.25-73.65.01-147.31.01-220.96.01-2.12 0-4.24 0-5.84 0 0 14.91-.3 29.17.16 43.41.17 5.29 3.47 9.31 9.26 10.28 7.51 1.26 15 3.31 22.55 3.57 27.77.96 55.56 1.6 83.35 1.82 19.31.15 38.63-.22 57.92-1 19.42-.79 38.83-2.16 58.21-3.67 11.87-.92 17.94-6.48 20.29-18.36 2.63-13.31 4.72-26.73 7.09-40.34h6.6c0 7.3-.07 14.38.02 21.46.07 5.3-.01 10.65.66 15.89.76 6 4.93 9.91 9.61 13.38 6.27 4.66 6.45 11.17-.46 14.61-7 3.49-14.77 6.59-22.45 7.36-24.79 2.48-49.67 4.75-74.55 5.37-39.78 1-79.61 1.03-119.41.62-18.41-.19-36.89-1.64-55.16-3.89-14.99-1.84-22.04-11.39-22.06-26.66-.05-38.49.01-76.98-.12-115.46-.02-4.91-.86-9.84-1.38-15.43zm116.21 23.46c-32.37 0-64.7 0-97.12 0v52.91h97.12c0-17.51 0-34.76 0-52.91zm17.66 52.8h92.05c0-17.8 0-35.21 0-52.78-30.86 0-61.39 0-92.05 0z"/><path d="m82 180.04c11.18-3.78 22.45-7.19 33.42-11.4 15.06-5.78 27.42-14.96 34.16-30.28.53-1.21.98-2.47 1.39-3.73.19-.58.2-1.22.34-2.14-12.36 2.92-24.33 6.11-36.45 8.52-19.68 3.91-39.44 7.44-59.23 10.77-3.51.59-4.41 2.39-5.66 5.08-1.37 2.96-3.58 5.52-5.43 8.25-2.05-2.61-4.65-4.96-6.05-7.88-3.2-6.69-5.82-13.65-9.01-21.31 5 0 9.28.27 13.52-.05 20.55-1.51 41.11-2.87 61.61-4.91 15.02-1.49 29.94-4.04 44.93-5.89 3.22-.4 4.34-1.82 4.3-4.79-.05-4.14-.01-8.29-.01-12.75-1.41-.13-2.69-.36-3.96-.36-26.66-.02-53.32-.06-79.99.03-4.98.02-9.96.73-14.94.79-1.33.01-3.34-.88-3.9-1.96-2.05-3.96-3.62-8.16-5.54-12.68 36.31 6.46 72.42 2.22 108.73 3.82 0-8.87 0-17.12 0-25.77-1.15-.12-2.25-.33-3.34-.33-30.83-.02-61.66-.07-92.49.03-5.31.02-10.61.9-15.92.92-1.52.01-3.72-1.2-4.45-2.5-2.01-3.59-3.4-7.52-5.27-11.85 40.57 6.3 80.93 1.82 122.02 3.63-.56-11.11-1.09-21.47-1.66-32.79 10 2.64 19.73 4.99 29.3 7.9 1.95.59 4.7 3.4 4.54 4.91-.22 2.04-2.89 3.84-4.56 5.69-.31.34-.87.46-1.33.64-3.23 1.26-7.96 1.64-9.33 3.98-1.69 2.9-.66 7.42-.67 11.24-.05 16.66.35 33.34-.2 49.99-.54 16.28-3.02 32.21-15.33 44.56-11.02 11.04-24.92 17.01-39.46 21.49-9.02 2.78-18.34 4.58-27.56 6.71-6.15 1.44-6.69.89-6.52-5.58z"/><path d="m243.73 95.99c22.69 0 45.01.04 67.33-.1 1.4-.01 3.07-1.15 4.15-2.22 3.89-3.88 7.58-7.96 11.6-12.23 7.6 5.71 14.71 10.83 21.51 16.33 1.36 1.1 2.63 4.17 2.03 5.36-.81 1.59-3.47 3.08-5.36 3.12-13.33.27-26.66.16-39.99.16-18.5 0-37 0-55.49 0-1.79 0-3.58 0-5.73 0v27.93c1.89.08 3.81.24 5.73.24 24.66.02 49.33-.06 73.99.09 3.62.02 6.33-.82 8.74-3.61 3.36-3.9 7.07-7.51 10.76-11.38 7.06 5.35 13.8 10.17 20.16 15.46 1.66 1.38 3.07 4.35 2.79 6.32-.18 1.23-3.74 2.82-5.79 2.83-36.66.17-73.32.12-109.99.13-1.97 0-3.94 0-6.81 0 .47 8.65.6 16.89 1.44 25.06.89 8.73-1.51 11.82-10.19 11.7-6.24-.09-7.99-2.02-8-9.22-.03-39.83.04-79.66-.06-119.49-.02-7.29-.68-14.57-1.1-22.94 10.15 2.73 20.16 5.25 30.02 8.25 1.83.56 4.21 3.07 4.25 4.73.05 1.71-2.19 3.84-3.91 5.15-1.65 1.26-3.89 1.8-5.93 2.47-7.05 2.33-7.06 2.31-5.99 10.6 1.51.08 3.11.25 4.71.25 24.5.02 48.99-.04 73.49.07 3.23.02 5.59-.82 7.88-3.19 3.57-3.69 7.57-6.95 11.84-10.8 6.48 4.91 13.71 10.19 20.64 15.83 1.2.98 2.14 4.17 1.47 5.14-1.06 1.54-3.58 2.89-5.5 2.91-26 .18-51.99.12-77.99.12-12.13 0-24.26 0-36.71 0 .01 8.38.01 16.3.01 24.93z"/></g></svg>