<svg enable-background="new 0 0 400 400" viewBox="0 0 400 400" xmlns="http://www.w3.org/2000/svg"><path d="m374.8 390.4.4-.4c.7.5 1.3 1 1.8 1.4l-.5.5c-.5-.6-1.1-1.1-1.7-1.5zm1 7.3-.6-.3c.5-1.4 1.1-2.8 1.5-4.3.2.1.4.2.6.3-.5 1.3-1 2.8-1.5 4.3zm-.4-10.3.4-.4c.4.3 1 .8 1.7 1.4l-.5.5c-.4-.5-1-1-1.6-1.5zm2.5.3h1.7v-1h.6v1h3.5v-1h.6v1h1.8v.5h-1.8v1.4h-2v1h3.2v2h-3.2v.9h3.3v.5h-3.4c0 .3-.1.6-.1.9h4v.5h-3.7c.7.9 1.9 1.5 3.8 1.7-.1.2-.2.4-.3.6-2.1-.4-3.5-1.1-4-2.1-.4 1-1.8 1.7-4 2.2-.1-.2-.2-.4-.3-.6 2.1-.4 3.4-1 3.8-1.8h-3.4v-.5h3.6c.1-.3.1-.6.2-.9h-3.3v-.5h3.4c0-.3 0-.6 0-.9h-3.2v-2h3.3v-1h-2.1v-1.4h-1.7v-.5zm1.1 3.5v1h2.7c0-.3 0-.4 0-.4 0-.2 0-.2 0-.2 0-.1 0-.2 0-.3h-2.7zm1.2-3v.9h3.5v-.9zm4.7 3h-2.6v.6.4h2.6z" fill="#fbfafc"/><path d="m393.6 386.7h.6v1.5h2.8v6.1h1.1v.6h-11.1v-.6h1.1v-6.1h2.7v-1.5h.6v1.5h2.1v-1.5zm-2.7 8.8.4.6c-1.2.6-2.5 1.3-3.8 1.9-.1-.2-.2-.4-.3-.6 1.2-.6 2.5-1.2 3.7-1.9zm-2.2-6.7v2.4h2.1v-2.4zm0 3v2.5h2.1v-2.5zm2.8-3v2.4h2.1v-2.4zm0 3v2.5h2.1v-2.5zm6 6.1c-1.4-.7-2.7-1.3-3.9-1.8l.3-.6c1.5.6 2.7 1.2 3.9 1.7zm-1.2-9.1h-2.1v2.4h2.1zm-2.1 3v2.5h2.1v-2.5z" fill="#fbfafc"/><g fill="#010100"><path d="m339.72 116.65c-19.11 0-37.71 0-57.2 0 1.22 7.63 2.24 14.96 3.59 22.22 4.24 22.68 8.73 45.31 16.98 66.96 6.4 16.78 14.49 32.53 28.21 44.72 1.79 1.59 4.53 3.41 1.95 6.08-1.3 1.35-3.83 2.43-5.63 2.22-5.99-.73-11.12.71-15.83 5.47-15.52-27.25-23.12-56.46-31.51-86.64-9.85 34.3-23.09 65.9-45.95 92.79-4.41-1.64-5.16-3.37-2.79-7.71 16.3-29.76 27.91-61.29 34.3-94.66 1.93-10.11 3.98-20.22 5.18-30.43.79-6.69.15-13.55.15-20.79-17.86 0-35.21 0-53.12 0v5.94 239.48c0 9.2-4.11 12.53-13.11 11.18-4.41-.66-6.11-3.28-6.03-7.14.12-5.81.76-11.6 1.09-17.41.63-10.96 1.7-21.91 1.73-32.87.16-66.49.14-132.99.01-199.48-.02-8.08-1.06-16.16-1.69-25.1 6.29 4.43 12.06 8.55 17.91 12.54 1.31.9 2.94 1.88 4.43 1.89 15.64.14 31.28.08 47.88.08-1.11-16.32-2.2-32.29-3.31-48.65-10.1 0-19.71 0-29.72 0 0-3.28 0-6.15 0-9.51 5.84 0 11.62-.26 17.35.09 4.06.25 6.92-.83 9.3-4.22 2.18-3.11 4.96-5.8 7.89-9.14 5.67 4.15 11.5 7.97 16.8 12.42 5.13 4.31 4.29 8-1.89 10.87-.3.14-.64.2-.94.33-8.27 3.53-8.32 3.54-7.54 11.98 1.08 11.73 2.25 23.46 3.45 35.85h5.4c14.67 0 29.33-.11 44 .08 3.79.05 6.61-.79 8.98-3.92 2.5-3.3 5.49-6.22 8.76-9.86 6.61 4.55 13.32 8.8 19.58 13.62 3.87 2.97 3.61 6.41-.08 9.7-1.59 1.41-3.44 2.87-5.42 3.42-5.15 1.44-6.01 4.68-6 9.62.16 70.83.13 141.66.1 212.48-.01 17.09-11.45 29.84-27.47 30.78-.19-.26-.51-.51-.54-.78-1.5-15-12.95-18.27-24.81-21-4.01-.92-8.08-1.57-12.55-2.42.5-2.7.94-5.07 1.42-7.65 10.83 1.55 21.31 3.01 31.78 4.55 8.27 1.22 12.84-.58 14.52-6.05.48-1.55.56-3.28.56-4.92.03-70.99.02-141.99.02-212.98.02-1.2-.1-2.36-.19-4.03z"/><path d="m169.03 186.65c6.23 4.13 12.29 7.89 18.06 12.06 6.01 4.35 5.82 10.31-1.11 13.07-7.06 2.81-9.24 6.72-9.42 14.24-.33 13.92-1.73 27.87-3.68 41.67-1.05 7.45-3.58 14.84-6.44 21.85-4.54 11.1-12.79 18.48-24.95 21.21-3.87-13.46-16.8-13.01-26.85-16.91.69-6.69.66-6.54 6.71-5.63 4.59.69 9.23 1.18 13.87 1.31 8.45.25 14.03-3.36 16.6-11.52 2.08-6.6 3.83-13.46 4.48-20.33 1.47-15.53 2.16-31.13 3.19-47.06-16.94 0-32.98 0-49.16 0-.11 1.58-.25 2.72-.25 3.87.02 40.5-.02 81 .15 121.49.04 9.14.8 18.28 1.27 27.42.41 7.99-7.64 13.68-14.79 10.13-1.63-.81-2.79-3.11-3.54-4.98-.58-1.45-.23-3.29-.23-4.95-.01-48.83-.01-97.66-.01-146.49 0-1.99 0-3.97 0-6.45-2.08-.09-3.86-.28-5.64-.23-15.95.5-31.9 1.12-47.86 1.45-1.48.03-3.62-1.31-4.38-2.63-1.98-3.42-3.37-7.18-4.92-10.64 20.79.88 41.53 1.75 62.55 2.63 0-16.34 0-31.41 0-47.07-6.2 0-12.16-.22-18.1.05-7.96.37-15.92.99-23.86 1.75-3.21.31-5.31-.19-6.51-3.59-1.25-3.56-3.12-6.9-4.59-10.08 17.72 1.01 35.21 2.01 53.05 3.02 0-16.41 0-31.5 0-47.09-1.57-.08-3.16-.27-4.76-.23-14.81.33-29.63.53-44.43 1.17-3.65.16-5.51-.77-6.68-4.15-1.13-3.25-2.73-6.33-3.95-9.1 19.92.85 39.61 1.69 59.61 2.55 0-20.08 0-39.11 0-58.88 9.65 2.44 19.3 4.68 28.78 7.46 1.98.58 4.76 3.23 4.69 4.8-.1 2.07-2.26 4.77-4.26 5.85-3.43 1.85-7.42 2.64-11.38 3.95v36.16c7.16 0 14.32-.57 21.34.15 8.59.88 15.2-1.42 20.1-8.64 1.58-2.32 3.68-4.29 5.88-6.8 7.69 5.87 14.89 11.16 21.78 16.82 1.19.98 1.79 3.68 1.4 5.28-.32 1.3-2.4 2.46-3.94 3.09-1.3.53-2.95.27-4.45.27-18.84.03-37.67.03-56.5.03-1.78 0-3.57 0-5.59 0v46.52c6.33 0 12.62.13 18.89-.11 1.26-.05 2.59-1.36 3.66-2.34 4.81-4.34 9.54-8.78 14.58-13.43 7.55 5.71 15.08 11.17 22.27 17.04 1.42 1.16 2.41 4.15 1.97 5.87-.31 1.23-3.35 2.48-5.18 2.5-16.83.19-33.66.11-50.5.11-1.79 0-3.58 0-5.64 0v46.42h15.02c8.83 0 17.67-.16 26.5.08 3.54.1 5.92-1.05 8.06-3.79 2.65-3.39 5.72-6.47 9.09-10.22z"/></g></svg>