<svg enable-background="new 0 0 400 400" viewBox="0 0 400 400" xmlns="http://www.w3.org/2000/svg"><g fill="#010104"><path d="m243.36 223.17v33.42h5.5c24.49 0 48.99-.09 73.48.09 3.91.03 6.51-1.08 8.8-4.25 2.61-3.61 5.79-6.8 9.05-10.54 6.97 4.94 13.89 9.5 20.4 14.59 4.68 3.65 4.66 7.83-.8 9.37-14.06 3.95-12.66 15.55-14.69 25.81-3.22 16.28-5.76 32.77-10.32 48.68-5.78 20.17-18.96 33.65-40.54 37.32-1.24.21-2.52.25-4.38.43 1.23-11.55-6.11-16.39-14.96-19.86-6.5-2.54-13.08-4.89-19.72-7.03-2.75-.89-3.87-2.07-3.04-4.99.89-3.13 2.97-2.38 5.13-1.96 12.05 2.3 24.1 4.61 36.17 6.81 9.51 1.73 17.22-1.81 21.19-10.26 3.91-8.3 6.94-17.26 8.77-26.25 3.17-15.57 5.12-31.39 7.66-47.62-61.75 0-122.89 0-183.94 0-.33.95-.58 1.4-.63 1.87-.68 7.7-8.25 11.77-14.97 7.59-1.84-1.14-3.46-4.32-3.42-6.53.79-50.75 1.82-101.5 2.81-152.55 4.15 2.24 8.91 4.49 13.33 7.28 4.12 2.6 8.34 3.51 13.18 3.49 46.65-.13 93.31-.02 139.96-.21 2.61-.01 5.68-1.44 7.72-3.17 5.18-4.4 9.9-9.34 15.18-14.43 7.29 6.55 14.93 13.2 22.23 20.2 1.2 1.15 1.79 4.35 1.04 5.72-.74 1.34-3.54 2.13-5.43 2.14-29.49.13-58.98.09-88.48.09-1.97 0-3.94 0-6.23 0v32.42h6.83c12 0 24-.17 35.99.1 3.88.09 6.48-1.24 9.09-3.92 4.73-4.86 9.84-9.36 14.95-14.16 6.71 5.95 14.04 12.24 21.05 18.85 1.45 1.36 2.75 4.31 2.22 5.9-.46 1.39-3.51 2.42-5.55 2.69-3.27.44-6.65.1-9.98.12-23.81.19-47.62.39-71.43.6-.97.01-1.94.11-3.2.19v31.4c1.12.12 2.37.38 3.63.38 13.83.03 27.66.13 41.49-.1 1.99-.03 4.32-1.27 5.87-2.65 5.34-4.72 10.41-9.75 15.7-14.77 6.7 5.95 13.91 12.13 20.8 18.65 1.55 1.47 3.13 4.54 2.57 6.12-.53 1.5-3.84 2.81-5.94 2.83-25.99.19-51.98.12-77.98.12-1.97-.02-3.93-.02-6.16-.02zm-96.21 33.12h78.52c0-11.04 0-21.78 0-32.74-26.3 0-52.34 0-78.52 0zm0-85.74h78.49c0-10.68 0-21.08 0-31.8-26.22 0-52.28 0-78.49 0zm.05 42.06h78.47c0-10.63 0-20.88 0-31.32-26.27 0-52.27 0-78.47 0z"/><path d="m73.39 93.62c-10.47 0-20.42-.39-30.32.2-3.75.22-5.38-.49-6.53-3.87-1.23-3.59-2.95-7.02-4.44-10.48 10.9.93 21.6 1.84 32.3 2.74 2.15.18 4.31.37 6.46.37 83.66.02 167.32-.02 250.97.11 4.21.01 7.19-1.14 10-4.22 4.36-4.79 9.14-9.19 14.07-14.08 7.55 6.77 15.18 13.43 22.52 20.39 1.12 1.06 1.63 3.78 1.1 5.26-.41 1.16-2.79 1.86-4.42 2.29-1.4.37-2.98.09-4.48.09-87.49 0-174.98 0-262.47 0-2.13 0-4.26 0-7 0v5.89c-.06 27.66.53 55.35-.33 82.98-1.28 41.23-4.24 82.35-16.73 122.08-7.84 24.93-20.22 47.28-38.57 66.4-1.07-.68-2.05-1.24-2.95-1.92-.92-.69-1.75-1.49-2.6-2.22 4.92-8.47 9.89-16.71 14.55-25.11 11.42-20.59 17.54-42.94 21.32-66 4.36-26.61 6.85-53.4 7.13-80.37.33-32.31.52-64.62.74-96.92.04-1.33-.22-2.64-.32-3.61z"/><path d="m120.17 288.08h5.87c0 5.21.47 10.35-.09 15.37-1.36 12.02-2.69 24.09-5.04 35.93-1.69 8.48-7.26 14.91-15.02 18.99-5.78 3.04-12.1 2.44-15.88-1.11-3.08-2.89-4.07-6.32-1.21-9.67 3.1-3.65 6.44-7.23 10.22-10.14 11.35-8.74 17.41-20.2 18.97-34.29.53-4.93 1.4-9.82 2.18-15.08z"/><path d="m243.83 79.2c-1.34-1.64-2.57-3.13-3.99-4.86 14.67-13.46 26.2-28.98 34.24-47.63 8.26 4.24 16.25 8.14 24 12.47 1.52.85 3.06 3.52 2.83 5.1-.22 1.5-2.62 2.83-4.27 3.94-.9.6-2.26.93-3.33.78-7.21-.98-11.94 2.64-16.75 7.54-9.34 9.5-20.1 17.23-32.73 22.66z"/><path d="m113.26 34.38c1.46-1.91 2.74-3.59 4.16-5.44 13.18 6.67 26.22 13.22 36.48 23.98 4.37 4.59 7.49 9.8 6.2 16.55-.91 4.74-3.88 7.65-8.54 8.59-4.56.92-7.6-1.7-8.82-5.55-5.13-16.23-15.67-28.2-29.48-38.13z"/><path d="m158.48 293.82c.81-.5 1.37-.85 1.93-1.2.98-.61 1.97-1.21 3.25-2.01 8.98 12.87 18.59 25.26 21.93 41 1.12 5.29 1.09 10.64-2.18 15.33-2.66 3.83-6.4 6.13-11.12 4.76-4.52-1.31-5.66-5.06-5.38-9.49 1.03-16.61-.52-32.83-8.43-48.39z"/><path d="m204.99 289.19c1.3-1.65 2.31-2.92 4.27-5.41 9.27 9.17 18.49 17.76 27.03 26.98 4.59 4.95 6.89 11.31 5.86 18.42-.76 5.22-3.67 8.61-7.93 8.81-5.04.23-7.89-2.81-8.79-7.23-3.13-15.52-10.33-29-20.44-41.57z"/><path d="m260.05 278.42c.84-.97 1.81-2.09 3.12-3.6 11.44 8.41 22.87 16.74 29.97 29.28 2.34 4.12 3.37 9.33 3.72 14.14.37 5.13-3.2 8.67-7.41 9.11-4.93.52-7.78-1.82-9.6-7.44-2.29-7.07-4.16-14.37-7.35-21.03-3.34-6.98-8.02-13.32-12.45-20.46z"/></g><path d="m2.6 9.9.8-1c.9.7 1.9 1.4 2.9 2.3l-.9 1.1c-1.1-1-2-1.8-2.8-2.4zm.5 10.6c.9-2.1 1.6-4.3 2.3-6.7.4.2.8.4 1.3.6-.7 2.1-1.5 4.3-2.2 6.6zm.3-15.2.9-.9c1 .8 2 1.6 2.8 2.4l-1 1c-.9-.9-1.8-1.7-2.7-2.5zm12.6-1.2h1.2v1.4h2.7v1.1h-2.7v2.7h-1.2v-.6h-1.8v1.3h4.9v3.8h-1.2v-.5h-3.7c0 .4-.1.9-.1 1.2h5.1v1h-5.2c0 .5-.1.9-.2 1.2h6v1h-5.2c1.1 1.3 2.9 2 5.5 2.2-.4.4-.7.8-.9 1.3-2.9-.5-4.8-1.6-5.7-3.5h-.1c-.8 1.7-2.7 2.9-5.9 3.6-.2-.4-.6-.8-.9-1.1 2.8-.6 4.6-1.4 5.4-2.5h-4.8v-1h5.3c.1-.3.2-.7.2-1.2h-4.9v-1h5c0-.4 0-.8.1-1.2h-3.6v.5h-1.2v-3.8h4.9v-1.3h-1.8v.5h-1.2v-2.7h-2.7v-1h2.7v-1.4h1.2v1.4h4.8zm-6.7 8.3h3.6c0-.4 0-.9 0-1.4h-3.6zm1.9-4.6h4.8v-1.3h-4.7v1.3zm6.7 3.2h-3.7v1.5h3.7z" fill="#fbfafa"/><path d="m8.7 22.1h1.3v2.2h2.8v-2.2h1.3v2.2h4.1v9.1h1.7v1.3h-17v-1.3h1.7v-9.1h4.1zm.3 13.1.7 1.2c-1.8.9-3.8 1.9-6 2.9-.2-.4-.5-.8-.8-1.3 2.3-1 4.4-1.9 6.1-2.8zm-3.1-6.4h2.8v-3.2h-2.8zm0 4.6h2.8v-3.3h-2.8zm4.1-4.6h2.8v-3.2h-2.8zm0 4.6h2.8v-3.3h-2.8zm3.6 1.9c2.1.9 4.1 1.8 6.1 2.7l-.7 1.4c-2.2-1.1-4.2-2-6.1-2.9zm3.2-9.7h-2.8v3.2h2.8zm-2.7 7.8h2.8v-3.4h-2.8z" fill="#fbfafa"/></svg>