<svg enable-background="new 0 0 400 400" viewBox="0 0 400 400" xmlns="http://www.w3.org/2000/svg"><g fill="#010104"><path d="m161.06 223.26c-32.84 0-64.45 0-96.65 0-.08 1.82-.38 3.6-.2 5.32.54 4.98-2.11 6.98-6.57 7.42-1.32.13-2.66.15-3.99.16-6.05.06-7.99-1.59-7.77-7.56.4-11.13 1.57-22.24 1.63-33.37.27-43.32.34-86.64.23-129.95-.03-10.1-1.09-20.2-1.73-31.23 5.83 4.16 11.01 8.18 16.55 11.63 2.5 1.56 5.71 2.75 8.62 2.78 22.66.22 45.32.03 67.98.21 4.03.03 6.93-1.09 9.54-4.1 3.15-3.63 6.67-6.93 10.41-10.77 7.43 5.73 14.77 11.12 21.77 16.93 3.4 2.82 2.26 6.52-2.09 7.74-1.72.48-3.61.5-5.42.5-17.49.04-34.98.03-52.89.03v42.06c14.17 5.23 22.55-3.52 30.57-13.65 7.41 5.62 14.5 10.79 21.28 16.32 1.35 1.1 2.62 4.21 2 5.33-.86 1.56-3.53 2.95-5.44 2.98-15.98.23-31.97.13-48.39.13v43.89c14.29 5.58 21.72-4.47 29.86-13.52 7.42 5.64 14.63 10.94 21.58 16.58 1.25 1.01 2.35 3.89 1.77 5.03-.74 1.47-3.22 2.86-4.98 2.89-14.16.23-28.32.13-42.49.13-1.81 0-3.62 0-5.8 0v45.83h13.63c2 0 4.02-.21 5.99.03 12.5 1.54 23.57-.26 30.09-13.75 6.59 5.23 12.67 9.55 18.14 14.55 3.78 3.45 2.91 9.24-1.93 10.46-9.94 2.5-9.82 9.76-10.4 17.46-2.22 29.14-4.54 58.32-11.97 86.7-4.96 18.94-16.21 32.56-35.88 37.79-2.84.76-5.83.94-8.93 1.42-.49-1.43-1.01-2.47-1.19-3.56-.87-5.4-3.85-9.19-8.84-11.22-8.28-3.36-16.64-6.51-25.43-9.93.43-1.68.96-3.7 1.49-5.78 10.09 2.32 19.96 4.43 29.75 6.87 16.29 4.07 28.89-7.29 31.91-19.31 2.99-11.88 5.83-23.9 7.39-36.03 2.79-21.53 4.56-43.2 6.8-65.44zm-57.42-10.49c0-15.26 0-30.16 0-45.26-13.18 0-26.07 0-39.16 0v45.26zm-.01-55.99c0-14.96 0-29.52 0-44.26-13.19 0-26.08 0-39.14 0v44.26zm.06-97.39c-13.46 0-26.34 0-39.26 0v42.23h39.26c0-14.28 0-28.18 0-42.23z"/><path d="m186.63 158.45c14.9.78 30.09 1.58 45.29 2.35 1.13.06 2.27-.13 3.7-.22 0-21.15 0-42.04 0-63.07-11.97 0-23.87 0-36.41 0-1.84-4.24-3.93-9.06-5.9-13.63 13.87 1.25 27.76 2.5 41.97 3.79 0-19.46 0-37.81 0-56.81 5.07 1.01 10.53 1.93 15.91 3.21 4.5 1.08 9.03 2.27 13.28 4.04 1.84.77 4.14 3.09 4.2 4.77.06 1.74-1.99 4.26-3.77 5.19-3.62 1.89-7.67 2.94-11.63 4.37v34.09h46.22c0-18.76 0-37.45 0-56.9 9.57 2.42 19.2 4.65 28.66 7.42 1.97.58 4.72 3.19 4.67 4.79-.06 2.05-2.18 4.8-4.15 5.87-3.42 1.86-7.41 2.67-11.36 3.98v34.55c3.55 1.27 6.16.55 8.72-2.42 4.54-5.27 9.5-10.16 14.58-15.52 7.83 6.88 15.42 13.35 22.72 20.13 1.28 1.19 2.41 4.25 1.76 5.37-.93 1.59-3.55 3-5.48 3.05-12.18.28-24.34.15-36.51.15-1.81 0-3.61 0-5.72 0v63.38c7.99.88 15.6 2 21.18-6.32 2.89-4.31 7.39-7.55 11.46-11.57 7.37 6.57 14.81 12.94 21.87 19.71 1.35 1.29 2.11 4.4 1.52 6.13-.45 1.33-3.41 2.49-5.29 2.55-8.82.26-17.66.12-26.49.12-44.15.02-88.3.04-132.46.08-3 0-6.01 0-8.98.36-8.95 1.07-7.09 1.78-10.68-6.31-1.13-2.56-2.22-5.13-2.88-6.68zm113.01 2.11c0-21.28 0-42.29 0-63.16-15.73 0-31.11 0-46.28 0v63.16z"/><path d="m211.28 202.62c6.02 4.65 11.55 9.11 17.31 13.27 1.6 1.16 3.84 2.02 5.8 2.03 28.48.13 56.96.15 85.44-.04 2.12-.01 4.63-1.39 6.25-2.89 3.28-3.03 6.07-6.58 9.66-10.58 6.37 4.47 12.95 8.59 18.94 13.44 4.7 3.81 4.07 7.85-.9 11.39-.54.38-1.1.89-1.71 1-7.85 1.4-8.31 6.65-8.22 13.44.38 28.81.03 57.62.3 86.43.1 10.78 1.14 21.56 1.82 32.34.31 4.95-3.29 8.68-9.44 9.57-7.78 1.13-9.6-.43-9.6-8.19 0-5.32 0-10.65 0-16.4-32.18 0-64.19 0-96.76 0 0 5.67-.16 11.29.06 16.9.15 3.86-1.77 5.31-5.21 5.86-10.08 1.62-15.01-2.86-13.99-13.01 4.11-40.67 2.25-81.47 2.42-122.22.05-10.55-1.37-21.1-2.17-32.34zm115.39 84.86c-32.47 0-64.33 0-96.13 0v49.13h96.13c0-16.54 0-32.76 0-49.13zm-96.24-10.95h96.08c0-16.29 0-32.18 0-47.92-32.29 0-64.16 0-96.08 0z"/><path d="m48.33 252.74h6.51c0 10.16.47 20.23-.16 30.23-.46 7.39-2.01 14.76-3.73 21.99-1.21 5.08-3.92 9.62-9.36 11.5-4.01 1.38-8.58 1.65-10.83-2.15-1.58-2.66-1.38-6.8-.89-10.12.33-2.22 2.27-4.43 3.98-6.16 8.83-8.91 11.7-20.18 13.05-32.08.49-4.27.93-8.53 1.43-13.21z"/><path d="m93.36 242.47c1.16-.97 2.55-2.14 4.43-3.71 9.95 14.45 22.47 27.4 22.3 46.53-.02 2.54-.81 5.26-1.92 7.57-1.9 3.95-5.49 5.18-9.66 4.26-3.96-.88-5.62-3.75-5.85-7.63-.44-7.44-.1-15.05-1.56-22.29-1.66-8.19-4.95-16.06-7.74-24.73z"/><path d="m75.62 248.42c6.61 12.82 10.24 26.51 11.27 40.83.43 6-.19 12.44-6.08 15.82-2.6 1.49-6.6 1.54-9.7.93-3.91-.77-3.63-4.61-3.47-7.8.07-1.48.14-3.05.66-4.41 4.88-12.69 4.53-25.76 2.3-38.77-.86-4.99.26-6.72 5.02-6.6z"/><path d="m117.43 235.57c1.49-1.48 2.67-2.64 4.46-4.42 11.64 12.37 26.71 21.8 28.33 40.68.27 3.16-.85 7.07-2.69 9.65-3.71 5.2-9.48 4.21-12.04-1.73-1.03-2.39-1.47-5.1-1.78-7.71-1.52-12.76-6.85-23.84-14.53-33.94-.5-.64-.93-1.33-1.75-2.53z"/></g><path d="m2.6 9.9.8-1c.9.7 1.9 1.4 2.9 2.3l-.9 1.1c-1.1-1-2-1.8-2.8-2.4zm.5 10.6c.9-2.1 1.6-4.3 2.3-6.7.4.2.8.4 1.3.6-.7 2.1-1.5 4.3-2.2 6.6zm.3-15.2.9-.9c1 .8 2 1.6 2.8 2.4l-1 1c-.9-.9-1.8-1.7-2.7-2.5zm12.6-1.2h1.2v1.4h2.7v1.1h-2.7v2.7h-1.2v-.6h-1.8v1.3h4.9v3.8h-1.2v-.5h-3.7c0 .4-.1.9-.1 1.2h5.1v1h-5.2c0 .5-.1.9-.2 1.2h6v1h-5.2c1.1 1.3 2.9 2 5.5 2.2-.4.4-.7.8-.9 1.3-2.9-.5-4.8-1.6-5.7-3.5h-.1c-.8 1.7-2.7 2.9-5.9 3.6-.2-.4-.6-.8-.9-1.1 2.8-.6 4.6-1.4 5.4-2.5h-4.8v-1h5.3c.1-.3.2-.7.2-1.2h-4.9v-1h5c0-.4 0-.8.1-1.2h-3.6v.5h-1.2v-3.8h4.9v-1.3h-1.8v.5h-1.2v-2.7h-2.7v-1h2.7v-1.4h1.2v1.4h4.8zm-6.7 8.3h3.6c0-.4 0-.9 0-1.4h-3.6zm1.9-4.6h4.8v-1.3h-4.7v1.3zm6.7 3.2h-3.7v1.5h3.7z" fill="#fbfafa"/><path d="m8.7 22.1h1.3v2.2h2.8v-2.2h1.3v2.2h4.1v9.1h1.7v1.3h-17v-1.3h1.7v-9.1h4.1zm.3 13.1.7 1.2c-1.8.9-3.8 1.9-6 2.9-.2-.4-.5-.8-.8-1.3 2.3-1 4.4-1.9 6.1-2.8zm-3.1-6.4h2.8v-3.2h-2.8zm0 4.6h2.8v-3.3h-2.8zm4.1-4.6h2.8v-3.2h-2.8zm0 4.6h2.8v-3.3h-2.8zm3.6 1.9c2.1.9 4.1 1.8 6.1 2.7l-.7 1.4c-2.2-1.1-4.2-2-6.1-2.9zm3.2-9.7h-2.8v3.2h2.8zm-2.7 7.8h2.8v-3.4h-2.8z" fill="#fbfafa"/></svg>