<svg enable-background="new 0 0 400 400" viewBox="0 0 400 400" xmlns="http://www.w3.org/2000/svg"><g fill="#010000"><path d="m276.37 276.81c12.26 0 24.22.08 36.17-.11 1.38-.02 2.96-1.33 4.08-2.41 5.25-5.07 10.37-10.27 15.74-15.63 7.34 6.56 14.63 12.87 21.62 19.49 1.45 1.37 3.03 4.65 2.37 5.71-1.03 1.67-3.89 3.05-6 3.07-22.66.21-45.32.13-67.99.13-1.82 0-3.65 0-5.89 0v58.3c1.61.07 3.23.21 4.85.21 15.5.02 31 .15 46.49-.13 2.48-.04 5.33-1.43 7.31-3.05 5.39-4.43 10.4-9.32 16.11-14.53 6.87 6.18 14.77 12.95 22.24 20.18 3.16 3.06 1.33 6.69-3.22 7.2-1.81.2-3.66.16-5.49.16-54.66.01-109.31-.04-163.97.06-7.96.01-15.92.74-24.62 1.18-1.91-4.42-4.03-9.34-6.49-15.05 29.89 5.9 59.3 3.41 88.89 4.06 0-19.81 0-38.89 0-58.29-1.67-.11-3.11-.3-4.56-.28-20.64.3-41.29.51-61.92 1.05-3.8.1-5.74-.87-6.86-4.51-1.06-3.45-2.77-6.7-4.45-10.64 25.98 5.46 51.74 3.45 77.73 3.85 0-52.65 0-104.73 0-157.41-1.73-.08-3.49-.25-5.24-.24-17.33.06-34.65.03-51.98.28-6.46.09-12.91.98-19.38 1.22-1.28.05-3.21-.84-3.79-1.88-2.07-3.75-3.69-7.74-5.91-12.58 29.08 5.94 57.62 3.01 86.34 3.84 0-14.19 0-27.77 0-42.09-5.54.46-10.91.92-16.29 1.36-19.37 1.59-38.74 3.26-58.12 4.71-6.16.46-6.18.19-5.98-7.13 5.76-.64 11.62-1.35 17.5-1.93 38.54-3.82 76.79-9.24 113.81-21.16 7.73-2.49 15.27-5.62 22.72-8.86 2.88-1.25 4.78-1.12 7.08.96 5.17 4.68 10.69 8.98 15.75 13.78 1.09 1.03 1.62 3.92.96 5.18-.67 1.26-3.45 2.51-4.81 2.11-16.66-4.89-32.13 2.23-48.05 4.5-8.86 1.26-17.64 3.01-26.74 4.59v43.92h10.38c12.5 0 25-.07 37.49.05 3.18.03 5.57-.59 7.79-3.22 4.5-5.33 9.47-10.27 14.57-15.72 7.54 6.65 15.09 13.11 22.34 19.89 1.31 1.23 2.32 4.13 1.76 5.6-.5 1.32-3.36 2.45-5.19 2.46-27.66.15-55.32.11-82.99.11-1.96 0-3.91 0-6.17 0 .01 52.61.01 104.7.01 157.64z"/><path d="m143.4 264.21c-26.39 0-52.02 0-77.73 0-.24.51-.58.93-.6 1.36-.53 9.03-4.7 12.34-13.57 10.46-4.65-.99-5.92-4.59-5.51-8.75 4.05-41.71.98-83.52 1.93-125.28.02-.78-.1-1.57-1.21-3.17-4.63 5.51-9.27 11.02-14.16 16.84-2.99-2.94-4.51-4.42-6.42-6.3 30.93-33.54 47-73.6 54.28-118.53 9.36 2.56 17.98 4.72 26.45 7.39 1.67.53 3.99 3.2 3.78 4.52-.29 1.77-2.75 3.18-4.29 4.74-.11.11-.29.26-.43.25-9.86-.86-11.61 6.21-13.34 13.46-.8 3.34-2.04 6.58-3.3 10.58 10.46 0 20.39.21 30.29-.19 1.88-.08 3.83-2.39 5.44-3.98 2.47-2.44 4.68-5.14 7.22-7.97 6.7 5.19 12.97 9.61 18.7 14.63 4.87 4.27 4.34 8.42-1.83 9.79-9.51 2.11-13.58 8.9-17.91 16.24-6.31 10.71-13.03 21.17-20.11 32.6 9.94 0 19.15.07 28.36-.09 1.06-.02 2.29-1.15 3.12-2.06 3.01-3.32 5.88-6.76 9.3-10.73 5.98 4.35 12.06 8.35 17.63 12.97 4.21 3.49 3.92 8.06-1.13 9.83-8.15 2.87-8.42 8.44-8.31 15.52.34 22.15-.11 44.31.21 66.47.19 12.95 1.23 25.89 1.96 38.84.19 3.45.41 7.44-3.31 8.58-4.09 1.25-8.63 1.16-12.99 1.21-.68.01-1.68-2.22-2.01-3.55-.43-1.7-.34-3.55-.51-5.68zm-85.32-136.86c4.39 3.22 8.95 6.2 15.39 5.71 7.44-.57 14.97-.33 22.44-.05 3.66.14 5.68-.84 7.07-4.42 3.66-9.43 7.82-18.66 11.62-28.04 2.41-5.94 4.53-12.01 6.98-18.56-9.95 0-19.11.36-28.22-.13-5.99-.32-10.19.69-11.83 7.22-.62 2.49-2.22 4.8-3.63 7.03-6.49 10.37-13.09 20.67-19.82 31.24zm85.11 126.5c0-17.29 0-34.14 0-51.08-10.46 0-20.52 0-30.64 0v51.08zm-47.62-51.05c-10.27 0-20.28 0-30.19 0v50.83h30.19c0-17.09 0-33.82 0-50.83zm47.68-59.42c-10.42 0-20.5 0-30.72 0v49.11h30.72c0-16.57 0-32.8 0-49.11zm-78.04 49.11h30.27c0-16.56 0-32.78 0-49.13-10.25 0-20.16 0-30.27 0z"/><path d="m316.01 186.17c0 12.41-.02 24.05.01 35.7.01 4.25 2.71 6.29 6.44 7.07 10.66 2.22 21.18.44 31.56-1.79 7.52-1.61 13.71.48 17.81 7.06 2.39 3.84 1.82 6.84-2.51 8.36-4.64 1.62-9.62 3.08-14.46 3.13-13.45.14-26.98.25-40.34-1.04-11.22-1.08-15.52-7.51-15.56-19.84-.07-20.98-.02-41.97-.02-62.95 0-7.78 0-15.55 0-23.94 8.99 2.31 18.62 4.52 28.04 7.41 2.15.66 5.08 3.77 4.95 5.56-.14 2.07-3.27 3.93-5.12 5.87-.1.11-.3.13-.46.19-3.37 1.2-8.94 1.66-9.64 3.75-1.5 4.44-.46 9.74-.46 15.21 7.66 0 15.11.1 22.55-.09 1.26-.03 2.66-1.11 3.7-2.04 3.6-3.19 7.07-6.54 10.87-10.09 5.85 4.85 11.7 9.45 17.18 14.46 1.29 1.18 2.22 4.12 1.64 5.59-.51 1.29-3.36 2.29-5.19 2.32-14.99.18-29.98.1-44.96.1-1.8 0-3.6 0-6.03 0z"/><path d="m218.37 187.06c-13.56 0-26.62 0-40.7 0-1.6-3.34-3.72-7.75-5.84-12.16 15.54.88 30.83 1.74 46.2 2.61 0-13.82 0-26.55 0-40.52 10.22 2.85 20.63 5.34 30.72 8.76 4.69 1.59 4.8 6.16.48 8.71-3.07 1.81-6.89 2.3-10.17 3.82-1.47.68-3.46 2.43-3.48 3.71-.22 19.14-.15 38.28-.15 58.13 3.43-.73 6.4-1.37 9.83-2.1.71 1.69 1.39 3.31 2.54 6.07-13.11 6.08-26 12.07-38.9 18.02-1.96.9-3.95 1.84-6.03 2.32-6.63 1.53-10.84 4.83-10.73 12.35.02 1.46-1.93 2.94-2.98 4.41-1.73-1.28-4.3-2.19-5.04-3.9-3.04-6.98-5.52-14.2-8.3-21.56 11.61-2.62 23.05-4.97 34.36-7.84 9.8-2.49 8.29 0 8.39-10.43.08-8.49.03-16.99 0-25.48 0-1.8-.14-3.59-.2-4.92z"/><path d="m55.13 291.8h6.19c-.49 10.44-.28 20.76-1.66 30.86-1.31 9.6-3.75 19.15-6.74 28.37-2.06 6.35-6.25 12.17-13.61 13.15-2.94.39-7.45-.82-8.98-2.94-1.52-2.11-.34-6.28-.01-9.51.1-.98 1.22-1.96 2.06-2.73 14.6-13.5 19.28-31.25 21.54-50.05.14-1.15.15-2.32.33-3.47.19-1.12.53-2.22.88-3.68z"/><path d="m98.19 342.18c-.81 5.26-.38 11.43-7.11 13.89-7.5 2.74-12.04-1.23-11.11-9.13.94-8.06 2.02-16.19 1.87-24.26-.17-8.92-1.8-17.8-2.5-26.73-.15-1.92.34-5.02 1.57-5.7 2.98-1.64 4.39.57 5.45 3.5 5.03 13.91 9.75 27.88 11.29 42.71.18 1.8.34 3.62.54 5.72z"/><path d="m108.44 288.58c.9-.67 2.45-1.82 4.43-3.3 10.79 14.35 22.27 27.9 25.53 45.84.76 4.16-.96 9.05-2.5 13.25-1.26 3.45-5.1 4.84-8.37 3.5-2.14-.87-4.42-3.62-4.92-5.9-1.51-6.93-1.47-14.25-3.35-21.05-2.92-10.63-6.95-20.97-10.82-32.34z"/><path d="m140.08 284.38c1.01-.75 2.32-1.72 4.05-3.01 11.73 11.42 24.19 22.03 31.6 36.91 1.44 2.89 2.06 7.08 1.1 10.04-.97 2.98-3.93 6.32-6.82 7.44-3.97 1.53-6.77-1.81-8.18-5.51-1.59-4.18-2.41-8.71-4.39-12.68-5.44-10.98-11.33-21.74-17.36-33.19z"/></g><path d="m362.1 8.8c1.1.8 2.1 1.6 3.1 2.4l-1 1.1c-1.3-1.1-2.3-2-3-2.5zm1.9 4.8c.5.2.9.4 1.4.5-.6 2.3-1.3 4.5-1.9 6.8l-1.5-.5c.8-2.1 1.4-4.3 2-6.8zm-1-9.4c1.3.9 2.4 1.8 3.4 2.5l-1 1.1c-1.4-1.2-2.4-2.1-3.2-2.6zm3.7 2.2v-1.4h10.3v1.2c-.5 3.6-1.8 6.8-4 9.4 1.5 1.6 3.4 2.8 5.7 3.8-.3.4-.7.8-1.1 1.4-2.3-1.1-4.1-2.5-5.6-4.1-1.6 1.6-3.6 3.1-5.9 4.3-.3-.5-.7-.9-1-1.3 2.4-1.1 4.4-2.5 6-4.1-1.9-2.5-3-5.6-3.3-9.3h-1.1zm8.8 0h-6.4c.3 3.3 1.3 6 3 8.2 2-2.3 3.1-5.1 3.4-8.2z" fill="#fbfafa"/><path d="m385.3 3.8h1.3v2.2h2.8v-2.2h1.3v2.2h4.1v9.1h1.7v1.3h-16.9v-1.3h1.7v-9.1h4.1v-2.2zm.4 13.1.7 1.2c-1.8.9-3.8 1.9-6 2.9-.2-.4-.5-.8-.8-1.3 2.3-1 4.3-1.9 6.1-2.8zm-3.1-6.4h2.8v-3.2h-2.8zm0 4.6h2.8v-3.3h-2.8zm4-4.6h2.8v-3.2h-2.8zm0 4.6h2.8v-3.3h-2.8zm3.7 1.9c2.1.9 4.1 1.8 6.1 2.7l-.7 1.3c-2.2-1.1-4.2-2-6.1-2.9zm3.2-9.7h-2.8v3.2h2.8zm-2.8 7.8h2.8v-3.3h-2.8z" fill="#fbfafa"/></svg>