<svg enable-background="new 0 0 400 400" viewBox="0 0 400 400" xmlns="http://www.w3.org/2000/svg"><g fill="#010000"><path d="m103.31 131.82c8.23 0 15.56.14 22.87-.11 1.55-.05 3.39-1.18 4.51-2.36 3.08-3.25 5.85-6.79 9.21-10.76 6.03 4.44 12.12 8.46 17.66 13.13 4.15 3.49 3.95 7.51-.99 9.41-8.06 3.1-8.5 8.57-8.33 15.93.65 28.63.61 57.27.98 85.91.07 5.64.61 11.31 1.38 16.9 1.42 10.22-2.42 14.73-12.64 14.57-3.71-.06-5.66-1.38-5.4-5.32.13-1.96.02-3.94.02-6.31-24.34 0-48.22 0-72.3 0-.1 1.04-.24 2-.29 2.96-.34 7.41-2.49 9.47-9.77 9.29-6.55-.16-9.01-3.22-8.87-9.76.89-41.09 1.64-82.19 2.43-123.29.01-.47-.14-.95-.41-2.56-4.8 4.31-9.13 8.2-13.7 12.3-1.38-1.3-2.64-2.49-4.52-4.27 28.9-33.82 48.29-71.97 53.4-117.59 9.54 2.52 18.3 4.64 26.9 7.28 1.56.48 3.43 3.12 3.4 4.73-.04 1.49-2.38 2.98-3.81 4.36-.44.42-1.23.74-1.83.7-7.65-.49-10.06 4.27-11.37 10.69-.82 4.02-2.46 7.87-3.91 12.33 8.15 0 15.77.12 23.39-.1 1.41-.04 3.01-1.19 4.13-2.25 3.02-2.84 5.83-5.91 9.1-9.27 6.43 5.08 12.81 9.6 18.56 14.81 4.56 4.13 3.72 7.14-1.78 9.87-.44.22-.88.59-1.34.62-8.35.52-11.74 6.69-15.41 12.94-6.23 10.61-12.86 20.98-19.31 31.46-.56.96-1.03 1.98-1.96 3.76zm-47.26-4.21c3.39 2.69 7.77 4.7 13.35 4.31 6.3-.43 12.66-.25 18.99-.03 2.77.1 4.21-.83 5.24-3.35 4.34-10.61 8.88-21.13 13.23-31.73 2.18-5.31 4.12-10.73 6.36-16.63-9.6 0-18.41-.08-27.22.1-1.14.02-2.67 1.17-3.3 2.23-8.84 14.81-17.57 29.7-26.65 45.1zm76.2 124.96c0-17.12 0-34 0-50.96-9.87 0-19.4 0-28.88 0v50.96zm-.07-61.33c0-16.58 0-32.78 0-48.94-9.84 0-19.26 0-28.9 0v48.94zm-71.85 10.22v51.07h26.25c0-17.17 0-34.05 0-51.07-8.93 0-17.51 0-26.25 0zm-.2-10.33h26.49c0-16.55 0-32.65 0-48.74-9.03 0-17.74 0-26.49 0z"/><path d="m187.8 320.57c-6.12 9.7-11.57 18.21-16.84 26.83-.54.89-.24 2.48.05 3.66.44 1.76 1.76 3.46 1.71 5.15-.06 2.17-.52 4.97-1.94 6.24-.97.87-4.45.3-5.79-.84-5.8-4.91-11.22-10.27-16.75-15.44 10.9-10.63 21.3-20.69 31.57-30.88 1.72-1.71 3.13-3.87 4.23-6.05 11.15-22.03 17.69-45.38 19.96-69.96.42-4.58 1.17-9.13 1.9-14.77-8.41.56-16.29 1.07-24.17 1.63-.98.07-1.99.77-2.9.63-2.86-.44-6.04-.58-8.34-2.03-.83-.53.06-4.59.87-6.79 8.78-23.83 17.71-47.62 26.58-71.42.45-1.2.72-2.47 1.32-4.56-10.31.63-20 1.22-29.99 1.83-2.03-4.77-4.1-9.61-6.34-14.87 8.09 1.13 15.74 2.32 23.42 3.21 3.78.44 7.66.61 11.44.31 1.74-.14 3.66-1.38 4.98-2.65 2.5-2.41 4.62-5.22 7.22-8.22 6.54 5.23 12.52 9.47 17.84 14.42 4.89 4.55 3.88 9.41-2.61 10.43-8.91 1.4-11.84 6.98-14.56 14.38-6.2 16.83-13.13 33.4-19.75 50.08-.42 1.06-.73 2.17-1.05 3.12 12.71 4.84 19.29-3.17 25.33-12.38 5.01 3.58 9.79 6.61 14.12 10.19 5.89 4.88 5.26 9.6-1.53 13.14-3.14 1.64-5.4 2.96-5.95 7.41-2.7 21.67-7.16 42.93-18.39 62.11-3.6 6.15-7.36 12.2-11.22 18.59 13.29 13.79 28.35 25.01 48.08 26.68 23.49 1.98 47.09 3.51 70.66 3.6 21.07.08 42.15-2.11 63.23-3.13 1.2-.06 3.45 1.27 3.49 2.05.09 1.62-.59 4.43-1.62 4.77-6.81 2.3-12.04 6.1-15.21 12.73-.41.86-2.56 1.28-3.9 1.26-27.97-.28-55.95-.31-83.9-1.19-11.06-.35-22.13-2.25-33.08-4.14-17.25-2.98-30.91-12.56-42.89-24.82-3-3.09-5.77-6.4-9.28-10.31z"/><path d="m254.59 168.49c4.58 2.92 9.92 6.56 15.51 9.78 2.18 1.26 4.9 2.2 7.38 2.22 17.66.19 35.32.21 52.97-.04 2.21-.03 4.87-1.57 6.49-3.22 3.12-3.16 5.65-6.91 8.72-10.79 5.76 4.13 11.53 7.79 16.74 12.14 5.3 4.42 5.25 8.94-.86 11.81-8 3.75-8.73 9.5-8.63 17.18.37 30.32.17 60.64.15 90.96-.01 17.52-8.81 27.66-26.73 30.63-.34-.81-.96-1.67-1.03-2.56-.79-11.33-7.33-17.51-17.97-19.55-5.41-1.04-6.87-3.64-4.77-9.12 4.78.76 9.77 1.69 14.79 2.3 3.78.46 7.62.79 11.42.68 4.48-.13 7.12-2.75 7.17-7.31.12-10.66.05-21.32.06-31.99 0-1.66 0-3.32 0-5.44-11.7 4.18-23.04 8.23-34.37 12.29-1.56.56-3.09 1.3-4.69 1.63-6.05 1.27-10.5 3.93-11.88 10.68-.41 2.01-2.95 3.58-4.52 5.35-1.48-1.64-3.44-3.05-4.34-4.96-2.67-5.67-4.92-11.53-7.81-18.48-5.77 23.76-15.68 44.16-30.71 62.37-1.81-1.28-3.49-2.46-4.89-3.45 3.97-9.49 8.05-18.36 11.41-27.5 6.17-16.8 9.23-34.26 9.79-52.14.3-9.64.53-19.29.59-28.94.08-14.94.01-29.85.01-44.53zm17.34 44.61c-.85 15.94-1.6 30.09-2.37 44.56 22.77-1.07 44.66-5.01 66.15-11.28 0-18.89 0-37.45 0-56.05-21.34 0-42.37 0-63.7 0 0 3.98.2 7.63-.06 11.26-.23 3.15 1.25 3.96 4.01 4.24 5.61.56 11.31.92 16.77 2.22 9 2.13 17.92 4.69 26.71 7.54 4.9 1.59 7.8 5.43 8.5 10.74.76 5.79-3.46 9.55-8.86 7.41-4.31-1.7-8.25-4.33-12.52-6.16-11.21-4.82-22.5-9.42-34.63-14.48z"/><path d="m318.41 145c5.73 0 10.9.2 16.04-.11 1.77-.11 3.74-1.19 5.13-2.39 4.39-3.79 8.55-7.84 13.05-12.02 6.55 5.58 13.01 10.82 19.09 16.46 1.44 1.33 1.65 4 2.43 6.05-1.9.67-3.8 1.92-5.7 1.93-31.49.18-62.99.17-94.49.3-4.65.02-9.31.4-13.93.89-3.09.33-4.92-.69-6.21-3.56-1.35-3-3.21-5.78-5.12-9.11-3.13 3.6-6.02 6.92-9.11 10.47-2.46-2.12-4.04-3.49-6.05-5.22 15.88-21.29 27.23-44.48 32.77-71.33-6.96.41-13.58.3-20.01 1.35-4.68.76-7.15-.22-8.51-4.78-.89-2.97-2.43-5.74-3.92-9.16 6.14.85 11.69 1.78 17.27 2.35 4.95.5 9.95.84 14.92.74 1.3-.03 3.45-1.81 3.71-3.09 2.07-10.4 3.78-20.86 5.66-31.64 7.96 1.96 15.99 3.91 23.98 5.95 1.27.32 2.49.97 3.62 1.66 4.04 2.5 3.96 5.15-.19 7.29-.88.46-1.84 1.05-2.77 1.08-8.68.28-11.62 5.77-12.42 13.36-.17 1.63-.71 3.22-1.25 5.55h18.51c5.17 0 10.4-.52 15.48.12 8.15 1.03 13.95-1.99 18.75-8.34 2.17-2.87 5.2-5.08 8.18-7.92 6.73 5.7 13.78 11.49 20.55 17.58 1.24 1.12 2.41 4.06 1.8 5.08-.85 1.42-3.39 2.53-5.23 2.55-24.83.24-49.65.39-74.48.24-4.69-.03-6.96 1.04-8.17 5.96-1.57 6.36-4.42 12.41-7.02 19.38 8.02.66 15.72 1.53 23.43 1.87 7.61.34 15.25 0 22.87.28 3.85.14 6.93-.28 9.63-3.62 2.68-3.33 6.24-5.95 10.04-9.44 5.77 4.92 12.14 10.16 18.21 15.73 1.05.96 1.54 3.65.95 4.92-.51 1.12-2.89 1.9-4.46 1.93-10.5.17-21 .08-31.5.1-1.79 0-3.57.15-5.55.24.02 10.2.02 19.95.02 30.32zm-68.52-2.31c17.32 1 34.09 1.98 50.86 2.95 0-11.06 0-20.66 0-30.79-8 .57-15.72 1.12-23.67 1.69-1.45-2.94-2.98-6.01-4.47-9.03-7.34 11.36-14.6 22.61-22.72 35.18z"/><path d="m52.91 289.08h5.16c0 5.65.28 11.24-.06 16.78-.8 13.05-1.06 26.23-5.86 38.67-3.06 7.92-7.06 15-15.97 17.81-4.57 1.44-8.35.41-11.12-3.18-2.9-3.76-1.09-7.46 1.7-10.29 8.73-8.87 16.34-18.47 19.57-30.71 2.48-9.43 4.32-19.01 6.58-29.08z"/><path d="m97.15 288.56c2.01-1.32 3.66-2.41 5.54-3.65 9.12 11.75 18.19 23.52 23.05 37.64 1.97 5.72 2.31 12.24 2.17 18.37-.11 4.76-4.47 7.45-9.19 7.13-4.75-.32-6.67-3.46-6.93-7.66-1.11-18.16-6.6-35.09-14.64-51.83z"/><path d="m71.93 289.74c2.33-.77 4.18-1.38 7.14-2.36 3.46 11.8 7.1 23.26 10.14 34.87 2.23 8.5 4.06 17.16 1.93 26.06-1.47 6.12-5.31 8.83-11.23 7.76-4.11-.75-6.44-3.56-5.75-7.42 3.5-19.63 1.91-39.03-2.23-58.91z"/><path d="m171.19 46.48c9.07 11.41 18.11 21.66 25.74 32.85 3.75 5.51 5.74 12.63 6.99 19.3 1.18 6.32-2.42 10.7-7.09 11.33-4.71.63-8.41-2.69-9.99-9.07-1.75-7.06-2.66-14.45-5.37-21.12-4.03-9.92-9.32-19.34-14.39-29.61.53-.47 1.82-1.62 4.11-3.68z"/><path d="m128.47 284.2c1.83-1.58 3.2-2.76 4.96-4.27 10.26 9.68 20.96 18.93 27.45 31.69 1.69 3.33 2.14 7.67 1.94 11.49-.21 4.09-2.92 6.86-7.49 7.3-4.05.39-7.11-.95-8.02-4.95-3.37-14.94-10.27-28.26-18.84-41.26z"/></g><path d="m362.1 8.8c1.1.8 2.1 1.6 3.1 2.4l-1 1.1c-1.3-1.1-2.3-2-3-2.5zm1.9 4.8c.5.2.9.4 1.4.5-.6 2.3-1.3 4.5-1.9 6.8l-1.5-.5c.8-2.1 1.4-4.3 2-6.8zm-1-9.4c1.3.9 2.4 1.8 3.4 2.5l-1 1.1c-1.4-1.2-2.4-2.1-3.2-2.6zm3.7 2.2v-1.4h10.3v1.2c-.5 3.6-1.8 6.8-4 9.4 1.5 1.6 3.4 2.8 5.7 3.8-.3.4-.7.8-1.1 1.4-2.3-1.1-4.1-2.5-5.6-4.1-1.6 1.6-3.6 3.1-5.9 4.3-.3-.5-.7-.9-1-1.3 2.4-1.1 4.4-2.5 6-4.1-1.9-2.5-3-5.6-3.3-9.3h-1.1zm8.8 0h-6.4c.3 3.3 1.3 6 3 8.2 2-2.3 3.1-5.1 3.4-8.2z" fill="#fbfafa"/><path d="m385.3 3.8h1.3v2.2h2.8v-2.2h1.3v2.2h4.1v9.1h1.7v1.3h-16.9v-1.3h1.7v-9.1h4.1v-2.2zm.4 13.1.7 1.2c-1.8.9-3.8 1.9-6 2.9-.2-.4-.5-.8-.8-1.3 2.3-1 4.3-1.9 6.1-2.8zm-3.1-6.4h2.8v-3.2h-2.8zm0 4.6h2.8v-3.3h-2.8zm4-4.6h2.8v-3.2h-2.8zm0 4.6h2.8v-3.3h-2.8zm3.7 1.9c2.1.9 4.1 1.8 6.1 2.7l-.7 1.3c-2.2-1.1-4.2-2-6.1-2.9zm3.2-9.7h-2.8v3.2h2.8zm-2.8 7.8h2.8v-3.3h-2.8z" fill="#fbfafa"/></svg>