<svg enable-background="new 0 0 400 400" viewBox="0 0 400 400" xmlns="http://www.w3.org/2000/svg"><path d="m6.44 374.46.42-.45c.65.47 1.27.95 1.85 1.44l-.45.49c-.65-.56-1.25-1.06-1.82-1.48m.93 7.33-.63-.26c.55-1.36 1.05-2.8 1.52-4.33.19.1.38.19.59.27-.46 1.29-.95 2.73-1.48 4.32m-.38-10.38.44-.42c.43.34 1.01.82 1.74 1.44l-.49.49c-.53-.51-1.09-1.01-1.69-1.51m2.5.35h1.72v-1.04h.59v1.04h3.52v-1.04h.59v1.04h1.75v.53h-1.75v1.42h-2.03v.97h3.22v2.03h-3.24c0 .35-.01.66-.03.93h3.32v.53h-3.37c-.03.27-.08.58-.15.94h3.96v.53h-3.71c.67.92 1.93 1.48 3.79 1.68-.13.24-.23.44-.29.59-2.13-.38-3.48-1.08-4.04-2.12-.43.97-1.77 1.72-4.03 2.23-.09-.19-.2-.37-.33-.55 2.1-.42 3.37-1.03 3.81-1.83h-3.36v-.53h3.58c.08-.29.13-.61.16-.94h-3.33v-.53h3.39c.02-.27.04-.58.04-.93h-3.23v-2.03h3.25v-.97h-2.07v-1.42h-1.73zm1.12 3.44v1h2.65c.01-.3.02-.44.01-.4v-.25-.35zm1.19-2h3.52v-.91h-3.52zm4.71 2h-2.63v.59c0 .15-.01.28-.01.4h2.64z" fill="#fcfbfa"/><path d="m13.56 383.74h.63v1.52h2.72v6.07h1.13v.6h-11.06v-.6h1.13v-6.07h2.73v-1.52h.63v1.52h2.1v-1.52zm-2.69 8.83.38.56c-1.24.63-2.53 1.25-3.85 1.85-.1-.21-.21-.42-.34-.63 1.36-.55 2.63-1.15 3.81-1.78m-2.13-4.27h2.1v-2.45h-2.1zm0 3.04h2.1v-2.46h-2.1zm2.72-3.04h2.1v-2.45h-2.1zm0 3.04h2.1v-2.46h-2.1zm6.07 3.6c-1.41-.71-2.7-1.3-3.86-1.78l.35-.56c1.45.62 2.75 1.19 3.88 1.72zm-1.25-9.09h-2.1v2.45h2.1zm-2.09 5.49h2.1v-2.46h-2.1z" fill="#fcfbfa"/><g fill="#010105"><path d="m114.25 330.05c-13.03 10.95-28.95 20.21-46.24 26.91-11.89 4.61-24.1 8.38-36.52 12.65-.89-2.72-1.54-4.69-2.29-6.97 23.61-8.96 45.82-19.74 65.41-35.29 2.98-2.36 5.82-4.9 8.14-6.86-10.95-14.3-21.62-28.22-32.24-42.07-10.52 7.21-21.82 14.96-33.4 22.91-1.12-1.85-1.74-2.77-2.25-3.75-.44-.86-.74-1.8-.79-1.92 9.74-9.55 19.07-18.77 28.5-27.88 2.37-2.29 2.62-4.43 1.5-7.54-2.42-6.7-4.34-13.58-6.42-20.41-1.34-4.42-1.3-4.44 3.71-6.25 3.37 6.83 6.77 13.72 10.54 21.35 11.03-15.8 18.31-32.38 23.59-50.44 8.88 2.42 17.55 4.55 26.03 7.28 1.86.6 4.23 3.4 4.16 5.1-.07 1.56-3.11 2.99-4.85 4.47-.12.1-.32.15-.47.14-10.59-.8-14.57 6.38-17.57 15.12 1.05.12 2.25.38 3.44.38 11.33.03 22.67-.17 34 .12 4.21.11 7.29-.91 9.86-4.32 2.09-2.77 4.73-5.11 7.53-8.08 5.86 4.55 11.86 8.72 17.27 13.55 4.75 4.24 4.48 8.4-1.24 10.4-7.93 2.77-10.75 8.67-13.66 15.56-8 18.94-18.36 36.54-31.97 52.08-.54.61-.92 1.36-1.57 2.34 11.9 6.84 24.59 11.08 37.66 14.22 20.75 4.99 41.84 7.64 63.16 8.12 16.64.37 33.34 1.39 49.92.41 29.67-1.75 59.27-4.77 88.89-7.28 3.12-.26 6.23-.7 9.29-1.06 1.88 4.74.66 7.31-4.37 8.8-8.52 2.51-14.44 8-16.44 17.7-14.26.29-28.53.78-42.81.82-21.62.05-43.28.48-64.86-.52-31.67-1.48-63.59-2.51-93.98-12.84-12.95-4.41-25.17-10.96-38.66-16.95zm-1.64-20.52c13.24-12.68 32.31-47.77 33.89-62.35-16.33 0-32.63-.06-48.92.11-1.27.01-2.8 1.42-3.72 2.57-4.33 5.47-8.26 11.28-12.82 16.54-2.21 2.55-2.13 4.3-.55 6.93 8.41 14 19.03 25.98 32.12 36.2z"/><path d="m209.36 37.87c5.98 4.51 11.53 8.98 17.4 12.96 2.3 1.56 5.33 2.85 8.04 2.87 29.64.2 59.29.07 88.94.2 3.48.01 5.95-.91 8.12-3.66 2.75-3.51 5.91-6.7 9.18-10.34 6.16 4.11 12.26 7.8 17.92 12.07 5.62 4.24 5.41 7.58-.03 11.92-.52.41-1.01.99-1.61 1.15-8.12 2.22-8.63 8.09-8.4 15.29.56 17.3.2 34.63.54 51.95.18 9.29 1.21 18.57 1.55 27.86.28 7.73-7.89 13.34-15.18 10.4-1.43-.58-2.73-2.72-3.09-4.36-.52-2.36-.13-4.92-.13-7.75-35.32 0-70.18 0-105.27 0-.11.63-.29 1.25-.31 1.87-.25 8.39-2.05 10.39-9.16 10.08-6.53-.28-9.06-3.57-8.9-11.06.69-31.6 1.46-63.19 1.86-94.8.12-8.69-.93-17.39-1.47-26.65zm122.79 62.92c0-12.61 0-24.8 0-37.11-35.17 0-69.9 0-104.87 0v37.11zm-105.03 47.02h105.12c0-12.23 0-24.29 0-36.36-35.24 0-70.12 0-105.12 0z"/><path d="m31.17 228.49c-.77-1.78-1.47-3.4-2.37-5.49 6.74-3.78 13.43-7.39 19.98-11.23 22.18-12.98 40.99-29.51 54.32-51.78 1.54-2.57 3.2-4.9 1.1-8.14-.78-1.21-.36-3.24-.36-4.9-.02-19.99-.01-39.98-.01-59.97 0-1.78 0-3.57 0-5.86-13.67 0-26.78-.12-39.89.05-8.14.1-16.28.54-24.41 1.06-2.72.17-4.32-.49-5.33-3.15-1.48-3.88-3.29-7.62-5.19-11.95 24.76 5.71 49.52 3.35 74.24 3.94 0-13.84 0-27.22 0-41.22 9.12 2.33 18.46 4.44 27.58 7.25 2.41.74 4.16 3.65 6.21 5.57-2.01 2.03-3.72 4.54-6.09 5.97-3.17 1.92-9.25 2.35-9.84 4.56-1.45 5.4-.47 11.45-.47 17.81 12.88 0 25.48.08 38.08-.11 1.37-.02 2.95-1.36 4.03-2.48 3.81-3.94 7.44-8.05 11.29-12.25 7.86 5.98 14.95 11.2 21.77 16.74 1.25 1.02 2.45 4.09 1.85 4.97-1.07 1.57-3.52 3.07-5.41 3.08-21.82.21-43.64.13-65.47.13-1.82 0-3.64 0-5.84 0-.19 1.47-.51 2.73-.49 3.98.23 19.47.38 38.94.83 58.4.23 9.92.17 10.38-9.75 13.47 3.92 1.79 7.36 3.31 10.75 4.94 2.39 1.15 4.87 2.24 7.01 3.77 1.2.86 1.79 2.57 2.66 3.89-1.35.83-2.62 1.89-4.08 2.44-1.48.56-3.14.62-4.78 1.75 11.86 4.68 23.89 8.97 35.52 14.17 7.52 3.36 14.68 7.71 21.54 12.29 2.67 1.78 5.01 5.21 5.8 8.32.7 2.72 0 7.13-1.87 8.81-1.91 1.73-6.34 2.08-9.03 1.17-3.26-1.11-6.17-3.87-8.7-6.44-14.23-14.44-31.07-24.9-49.39-33.24-3.17-1.44-5.09-1.03-7.54 1.63-20.79 22.44-45.79 38.3-75.09 47.28-.94.28-1.89.46-3.16.77z"/><path d="m309 242.41v24.44c.01 9.83-.07 19.66.06 29.49.08 6.2 2.19 9 8.3 9.83 6.56.89 13.25 1.49 19.85 1.25 8.85-.31 13.54-4.46 15.67-13.32 1.7-7.08 2.72-14.33 4.01-21.51.43-2.42.74-4.86 1.18-7.77 2.07.4 3.79.73 5.93 1.14 0 7.77.24 15.4-.07 23.02-.27 6.53 1.96 11.49 7 15.67 6.67 5.52 5.91 11.02-2.15 14.22-5.03 2-10.51 3.69-15.85 3.93-13.76.6-27.59.88-41.34.23-13.92-.66-19.91-7.59-19.96-21.52-.1-27.49-.03-54.98-.03-82.48 0-13.25 0-26.51 0-40.64 9.34 2.61 19.64 4.97 29.55 8.44 5.55 1.95 5.4 6.69.05 9.41-3.66 1.86-7.75 2.89-11.93 4.4v31.88c7.6 0 15.2.24 22.77-.18 1.74-.1 3.52-2.26 5-3.75 3.87-3.88 7.59-7.92 11.9-12.44 7.21 6.4 14.35 12.55 21.19 19 1 .94 1.41 3.88.69 4.93-.89 1.3-3.24 2.2-4.97 2.22-16.83.16-33.66.1-50.48.1-1.98.01-3.94.01-6.37.01z"/><path d="m279.3 284.48c2.97 4.07 1.9 6.66-2.75 9.01-14.38 7.26-28.47 15.1-42.91 22.24-3.84 1.9-5.88 3.97-6.54 8.2-.34 2.13-2.33 4-3.57 5.99-1.68-1.48-3.93-2.64-4.93-4.49-4.03-7.43-7.67-15.07-10.92-21.58 1-2.37 2.07-3.74 2.07-5.1.02-35.97-.04-71.94-.18-107.9-.01-3.93-.53-7.85-.92-13.23 11.03 3.22 21.24 5.81 31.16 9.26 4.66 1.62 4.67 6.12.29 8.59-2.98 1.68-6.59 2.19-9.7 3.68-1.4.67-3.21 2.41-3.24 3.71-.27 9.64-.15 19.29-.15 29.69 5.83 0 11.42.15 17-.11 1.24-.06 2.6-1.35 3.59-2.38 4.38-4.54 8.64-9.18 13.11-13.97 7.48 6.42 14.26 12.02 20.73 17.97 1.3 1.2 2.39 4.05 1.84 5.46s-3.27 2.75-5.05 2.77c-15.15.22-30.31.13-45.46.13-1.79 0-3.57 0-5.55 0v56.84c17.48-4.98 34.57-9.82 52.08-14.78z"/><path d="m30.72 161.03c-2.76-2.43-4.37-3.84-6.15-5.4 16.64-19.75 27.54-41.93 33.87-66.93 8.2 2.59 16.29 4.91 24.17 7.82 1.87.69 3.01 3.35 4.49 5.1-1.83 1.46-3.61 2.99-5.53 4.32-.62.43-1.62.28-2.43.46-9.59 2.02-11.3 3.71-14.12 13.6 7.41 3.42 14.99 6.42 22.02 10.39 3.25 1.84 5.98 5.26 7.92 8.56 2.4 4.08.68 9.37-2.75 11.49-3.52 2.17-8.34.95-11.35-3.13-1.77-2.4-3.32-4.99-4.78-7.6-3.41-6.11-8.99-9.52-14.2-12.3-10.54 11.38-20.77 22.41-31.16 33.62z"/><path d="m156.3 126.86c-8.8 9.68-17.39 19.11-26.62 29.25-1.95-2.31-3.29-3.9-4.31-5.11 5.7-10.22 11.87-19.91 16.67-30.24 4.73-10.18 8.08-21 12.46-32.69 7.85 2.61 16.46 5.33 24.92 8.43 1.29.47 2.77 2.79 2.65 4.12-.12 1.37-2 2.67-3.29 3.8-.56.49-1.55.53-2.35.7-11.89 2.57-11.89 2.57-16.71 14.71 5.49 2.28 11.12 4.27 16.43 6.93 4.12 2.06 8.34 4.42 11.53 7.63 2.19 2.2 3.88 6.2 3.59 9.17-.26 2.65-3.07 6.06-5.63 7.24-3.67 1.7-6.66-1.15-9.3-4.05-5.81-6.35-11.92-12.43-17.95-18.57-.66-.65-1.62-1.03-2.09-1.32z"/></g></svg>