<svg enable-background="new 0 0 400 400" viewBox="0 0 400 400" xmlns="http://www.w3.org/2000/svg"><path d="m6.44 374.46.42-.45c.65.47 1.27.95 1.85 1.44l-.45.49c-.65-.56-1.25-1.06-1.82-1.48m.93 7.33-.63-.26c.55-1.36 1.05-2.8 1.52-4.33.19.1.38.19.59.27-.46 1.29-.95 2.73-1.48 4.32m-.38-10.38.44-.42c.43.34 1.01.82 1.74 1.44l-.49.49c-.53-.51-1.09-1.01-1.69-1.51m2.5.35h1.72v-1.04h.59v1.04h3.52v-1.04h.59v1.04h1.75v.53h-1.75v1.42h-2.03v.97h3.22v2.03h-3.24c0 .35-.01.66-.03.93h3.32v.53h-3.37c-.03.27-.08.58-.15.94h3.96v.53h-3.71c.67.92 1.93 1.48 3.79 1.68-.13.24-.23.44-.29.59-2.13-.38-3.48-1.08-4.04-2.12-.43.97-1.77 1.72-4.03 2.23-.09-.19-.2-.37-.33-.55 2.1-.42 3.37-1.03 3.81-1.83h-3.36v-.53h3.58c.08-.29.13-.61.16-.94h-3.33v-.53h3.39c.02-.27.04-.58.04-.93h-3.23v-2.03h3.25v-.97h-2.07v-1.42h-1.73zm1.12 3.44v1h2.65c.01-.3.02-.44.01-.4v-.25-.35zm1.19-2h3.52v-.91h-3.52zm4.71 2h-2.63v.59c0 .15-.01.28-.01.4h2.64z" fill="#fcfbfa"/><path d="m13.56 383.74h.63v1.52h2.72v6.07h1.13v.6h-11.06v-.6h1.13v-6.07h2.73v-1.52h.63v1.52h2.1v-1.52zm-2.69 8.83.38.56c-1.24.63-2.53 1.25-3.85 1.85-.1-.21-.21-.42-.34-.63 1.36-.55 2.63-1.15 3.81-1.78m-2.13-4.27h2.1v-2.45h-2.1zm0 3.04h2.1v-2.46h-2.1zm2.72-3.04h2.1v-2.45h-2.1zm0 3.04h2.1v-2.46h-2.1zm6.07 3.6c-1.41-.71-2.7-1.3-3.86-1.78l.35-.56c1.45.62 2.75 1.19 3.88 1.72zm-1.25-9.09h-2.1v2.45h2.1zm-2.09 5.49h2.1v-2.46h-2.1z" fill="#fcfbfa"/><g fill="#010105"><path d="m37.59 38.36c2.46 1.35 4.07 1.91 5.28 2.94 7.63 6.53 16.35 8.23 26.3 7.88 18.14-.64 36.32-.34 54.47-.06 4.34.07 7.22-1.18 9.62-4.64 1.88-2.71 4.22-5.11 6.94-8.34 6.15 4.57 12.45 8.82 18.22 13.7 3.5 2.96 2.91 7.28-1.89 9.13-7.58 2.92-7.71 8.28-7.63 14.87.27 21.66-.03 43.32.16 64.98.08 8.97.87 17.94 1.34 26.91.21 4.09-.62 7.51-4.9 9.41-7.76 3.46-11.71 1.25-11.93-6.87-.03-1.14-.19-2.27-.31-3.74-10.6 0-21.01 0-31.84 0v41.6c13.49 4.88 18.48-7.2 26.76-13.99 6.79 5.88 13.64 11.62 20.19 17.68 1.21 1.12 2.07 3.95 1.48 5.26-.53 1.18-3.27 1.88-5.05 1.9-12.83.13-25.66.04-38.49.02-1.62 0-3.24 0-5.09 0v41.81c5.82 0 11.44.16 17.04-.11 1.41-.07 2.92-1.36 4.08-2.42 4.15-3.82 8.16-7.79 12.4-11.88 6.61 4.97 13.52 9.9 20.06 15.27 1.6 1.32 3.18 4.51 2.63 6.09-.56 1.58-3.79 3.1-5.87 3.11-32.65.21-65.31.1-97.97.27-6.95.04-13.9.93-21.53 1.47-1.98-4.25-4.19-8.99-6.36-13.65 19.86.84 39.46 1.67 59.47 2.52 0-14.59 0-28.16 0-42.11-11.59 0-23.19-.51-34.72.13-14.17.79-9.77 2.8-15.84-9.16-.59-1.17-1.09-2.39-1.75-3.82 17.55 1 34.77 1.98 52.33 2.98 0-15.1 0-28.99 0-43.1-10.8 0-21.23 0-31.63 0-1.47 8.09-3.23 9.86-9.62 9.86-5.88-.01-8.45-2.74-8.35-8.65.67-40.44 1.32-80.89 1.96-121.33.06-1.66.04-3.3.04-5.92zm15.79 49.78v66.13h31.83c0-31.67 0-63.01 0-94.43-10.91 0-21.43 0-32.08 0v19.3c1.56.76 3.24 1.06 4.08 2.07 8.41 10.15 15.99 20.85 20.68 33.29 2.44 6.46 3.49 13.16 1.52 19.99-1.06 3.69-3.54 6.46-7.4 6.34-4.21-.13-6.31-3.47-6.95-7.35-.62-3.76-.72-7.6-1.13-11.4-1.3-11.97-4.84-23.26-10.55-33.94zm47.86 66.07h31.98c0-20.41 0-40.44 0-60.53-4.26-.07-5.89 2.04-7.26 5.58-4.99 12.82-10.51 25.44-15.67 38.19-1.8 4.45-4.18 4.27-6.95 2.08 3.81-21.12 7.53-41.77 11.29-62.66 6.14 2.14 12.28 4.28 18.56 6.47 0-8.33 0-15.9 0-23.48-10.92 0-21.44 0-31.95 0z"/><path d="m187.74 337.41c.45-2.46.88-4.83 1.38-7.57 8.18 1.15 16.02 2.27 23.86 3.35 3.62.5 7.23 1.06 10.87 1.36 8.53.71 12.85-3.12 12.93-11.77.13-13.5.04-26.99.04-40.49 0-28.83 0-57.66 0-86.48 0-1.78 0-3.56 0-5.89-14.35 3.49-28.03 6.78-41.67 10.24-.87.22-1.92 1.74-2.01 2.73-1.12 13.42-2.29 26.84-3.04 40.28-2.53 45.16-16.06 86.29-44.23 122.14-2.84 3.62-2.82 3.64-7.36.58 1.22-2.24 2.43-4.54 3.72-6.81 17.2-30.35 27.81-62.76 30.76-97.6 1.6-18.86 3.28-37.72 4.92-56.52-6.44-1.77-6.74-1.58-8.01 4.61-.03.16-.02.36-.11.48-1.6 2.31-3.21 4.62-4.81 6.93-1.72-2.08-4-3.91-5.04-6.28-2.73-6.19-4.91-12.61-7.43-19.24 8.6-.86 16.64-1.67 25.23-2.53 0-41.99 0-83.69 0-126.41 5.47 4.1 10.06 7.56 14.69 10.98 4.67 3.45 6.22 3.08 7.45-2.45 2.86-12.95 5.4-25.98 8.08-38.97.29-1.41.68-2.79 1.13-4.62 9.01 2.73 17.59 5.22 26.07 8.02 1.24.41 2.72 2.27 2.76 3.51.04 1.28-1.42 2.71-2.46 3.87-.48.54-1.5.8-2.29.85-8.33.49-12.04 6.12-15.11 12.91-2.78 6.16-6.17 12.05-9.73 18.92 7.8 0 14.89.12 21.97-.12 1.17-.04 2.43-1.56 3.38-2.62 2.99-3.32 5.85-6.76 9.04-10.47 5.83 4.05 11.61 7.68 16.94 11.88 5.12 4.02 4.92 8.62-1.05 11.23-6.62 2.89-7.44 7.3-7.34 13.67.35 24.16.14 48.32.14 72.48v6.26c3.63-.46 6.7-.86 10.13-1.3.41 1.96.78 3.68 1.2 5.67-1.31.53-2.46 1.09-3.67 1.48-7.65 2.47-7.66 2.46-7.66 10.22 0 45.49.04 90.98-.02 136.48-.02 18.42-9.47 29.22-27.87 31.49-2.45-21.09-20.14-20.49-35.78-24.48zm6.11-150.3c14.24-2.09 28.44-4.17 42.67-6.26 0-32.18 0-63.73 0-95.53-14.2 0-28.09 0-42.67 0z"/><path d="m256.1 365.16c-1.17-1.96-2.17-3.65-3.18-5.33.58.48 1.15.97 1.73 1.45 8.94-9.83 18.19-19.4 26.72-29.57 7.58-9.03 14.33-18.75 21.54-28.1 1.77-2.3 1.63-4.23.37-6.76-11.4-22.91-16.96-47.41-19.43-72.73-.63-6.43-1.48-12.83-2.3-19.91-4.86.53-9.6.88-14.28 1.62-2.65.42-4.34.09-5.43-2.68-1.39-3.54-3.18-6.92-5.16-11.15 6.38.68 12.16 1.67 17.96 1.85 16.14.5 32.32.05 48.41 1.2 9.88.7 17.01-1.95 22.05-10.37.58-.97 1.51-1.74 2.39-2.73 5.78 4.16 11.57 8.07 17.07 12.36 5.07 3.96 5.02 7.05-.67 9.56-6.34 2.8-8.75 7.35-10.14 13.82-5.9 27.41-14.9 53.73-28.99 78.16-.71 1.23-.02 4.14 1.04 5.4 10.49 12.46 23.26 22.32 36.58 31.52 3.97 2.74 8.03 5.33 12.33 8.17-.27 1.46-.56 3.03-.99 5.29-8.83-1.03-17.22.1-23.97 8.75-12.83-13.74-25.15-26.94-37.62-40.29-15.94 19.08-34.7 35.67-56.03 50.47zm57.47-80.72c12.7-25.66 20.18-52.19 24.64-79.85-16.19 0-31.56 0-47.5 0 4.76 27.53 6.89 55.23 22.86 79.85z"/><path d="m270.69 171.16c-1.52-1.15-2.95-2.23-4.74-3.59 2.24-5.26 4.53-10.53 6.73-15.84 9.9-23.95 12.38-49.12 12.33-74.72-.02-10.8 0-21.6 0-33.57 5.47 4.26 10.36 7.8 14.93 11.72 3.34 2.87 6.97 3.47 11.25 4.05 10.65 1.43 18.26-2.16 23.49-11.32.34-.59.6-1.22 1.1-2.27 6.15 5 11.69 9.2 16.86 13.82 3.97 3.55 3.77 7.54-1.21 9.4-7.79 2.92-8.28 8.32-8.13 15.25.36 16.15.08 32.31.15 48.47.01 3.14.25 6.31.72 9.42.95 6.25 5.46 8.99 11.63 7.22 1.92-.55 3.78-1.29 5.7-1.83 6.25-1.77 14.36 2.91 15.25 9.29.24 1.74-1.38 4.87-2.93 5.53-11.42 4.9-23.45 7.2-35.31 2.51-9-3.56-10.35-12.53-10.47-20.97-.32-22.98-.17-45.97-.21-68.95 0-1.82 0-3.64 0-5.92-8.97 0-17.66 0-26.92 0-.27 36.88-3.87 72.72-30.22 102.3z"/><path d="m52.9 289.3c.77 17.16.42 34.1-5.92 50.12-2.04 5.15-5.9 9.86-9.84 13.87-2.82 2.87-7.25 3.49-10.83.21-3.27-2.99-3.33-7.47-.08-11.66 1.92-2.47 4.27-4.61 6.49-6.84 8.99-8.99 11.68-20.51 13.15-32.53.38-3.12 1.03-6.26 1-9.38-.05-4.34 1.83-5.28 6.03-3.79z"/><path d="m66.43 289.65c1.55-.6 2.75-1.07 3.94-1.54.31.21.68.34.83.59 7.19 11.96 14.21 24.08 17.16 37.87.96 4.49.63 9.61-.5 14.09-1.3 5.11-6.11 7.18-10.49 5.86-4.27-1.3-5.86-4.79-4.79-10.42 2.59-13.66-.94-26.66-4.36-39.66-.59-2.22-1.17-4.43-1.79-6.79z"/><path d="m96.64 282.54c.57-.42 1.72-1.26 3.32-2.44 9.87 12.82 20.57 24.73 23.42 41.14.46 2.66.25 5.6-.35 8.26-.94 4.14-4.06 5.73-8.21 5.69-3.95-.03-5.69-2.41-6.21-5.82-.85-5.56-.78-11.33-2.26-16.7-2.74-10-6.32-19.78-9.71-30.13z"/><path d="m199.61 225.03c7.92 8.2 16.41 15.94 23.5 24.8 3.37 4.22 4.83 10.45 5.74 16 .89 5.42-2.37 8.9-6.69 9.37-4.51.49-7.33-1.39-8.5-7.14-2.79-13.62-8.68-25.67-16.85-36.8-.82-1.12-.11-3.36-.11-5.09.96-.37 1.93-.75 2.91-1.14z"/><path d="m128.17 274.71c8.09 9.65 16.62 18.97 24.05 29.11 2.92 3.98 3.94 9.69 4.74 14.78.63 4.04-2.16 6.87-6.43 7.4-4.17.52-6.75-1.73-7.62-5.56-3.33-14.62-10.02-27.71-17.8-40.37-.69-1.12.15-3.17.27-4.79.92-.18 1.86-.37 2.79-.57z"/><path d="m200.11 112.14c7.48 7.21 15.31 14.1 22.3 21.75 4.25 4.64 7.47 10.64 4.55 17.27-.99 2.23-3.95 4.27-6.42 5.01-3.24.97-5.87-1.28-6.62-4.54-2.89-12.67-8.52-23.92-16.53-34.11-.72-.91.15-3.07.29-4.65.81-.25 1.62-.49 2.43-.73z"/></g></svg>