<svg enable-background="new 0 0 400 400" viewBox="0 0 400 400" xmlns="http://www.w3.org/2000/svg"><path d="m6.44 374.46.42-.45c.65.47 1.27.95 1.85 1.44l-.45.49c-.65-.56-1.25-1.06-1.82-1.48m.93 7.33-.63-.26c.55-1.36 1.05-2.8 1.52-4.33.19.1.38.19.59.27-.46 1.29-.95 2.73-1.48 4.32m-.38-10.38.44-.42c.43.34 1.01.82 1.74 1.44l-.49.49c-.53-.51-1.09-1.01-1.69-1.51m2.5.35h1.72v-1.04h.59v1.04h3.52v-1.04h.59v1.04h1.75v.53h-1.75v1.42h-2.03v.97h3.22v2.03h-3.24c0 .35-.01.66-.03.93h3.32v.53h-3.37c-.03.27-.08.58-.15.94h3.96v.53h-3.71c.67.92 1.93 1.48 3.79 1.68-.13.24-.23.44-.29.59-2.13-.38-3.48-1.08-4.04-2.12-.43.97-1.77 1.72-4.03 2.23-.09-.19-.2-.37-.33-.55 2.1-.42 3.37-1.03 3.81-1.83h-3.36v-.53h3.58c.08-.29.13-.61.16-.94h-3.33v-.53h3.39c.02-.27.04-.58.04-.93h-3.23v-2.03h3.25v-.97h-2.07v-1.42h-1.73zm1.12 3.44v1h2.65c.01-.3.02-.44.01-.4v-.25-.35zm1.19-2h3.52v-.91h-3.52zm4.71 2h-2.63v.59c0 .15-.01.28-.01.4h2.64z" fill="#fcfbfa"/><path d="m13.56 383.74h.63v1.52h2.72v6.07h1.13v.6h-11.06v-.6h1.13v-6.07h2.73v-1.52h.63v1.52h2.1v-1.52zm-2.69 8.83.38.56c-1.24.63-2.53 1.25-3.85 1.85-.1-.21-.21-.42-.34-.63 1.36-.55 2.63-1.15 3.81-1.78m-2.13-4.27h2.1v-2.45h-2.1zm0 3.04h2.1v-2.46h-2.1zm2.72-3.04h2.1v-2.45h-2.1zm0 3.04h2.1v-2.46h-2.1zm6.07 3.6c-1.41-.71-2.7-1.3-3.86-1.78l.35-.56c1.45.62 2.75 1.19 3.88 1.72zm-1.25-9.09h-2.1v2.45h2.1zm-2.09 5.49h2.1v-2.46h-2.1z" fill="#fcfbfa"/><g fill="#010105"><path d="m293.69 338.86c11 1.51 22.02 2.96 33.01 4.56 8.8 1.28 13.65-1.85 13.74-10.51.29-27.66.1-55.33.06-83 0-.44-.33-.89-.58-1.52-9.84 4.59-19.48 9.33-29.31 13.63-16.29 7.11-32.6 14.22-49.15 20.7-4.64 1.82-5.66 4.58-6.4 8.71-.43 2.41-1.57 5.93-3.32 6.62-3.76 1.49-5.31-2.13-6.71-5.03-2.29-4.75-4.61-9.49-7.58-14.28-2.57 34.15-10.96 66.07-33.14 93.63-1.54-1.67-2.96-3.2-4.41-4.78 8.37-16.42 14.45-33.43 17.4-51.41 1.61-9.83 3.13-19.78 3.37-29.7.99-41.28 1.62-82.57 2.05-123.86.1-9.71-1.1-19.43-1.75-29.81 6.2 3.83 11.78 7.39 17.48 10.75 1.65.97 3.64 1.9 5.49 1.93 11 .18 22 .09 33 .06.8 0 1.59-.26 2.43-.4 0-37.77 0-75.33 0-113.57 9.57 2.44 19.07 4.67 28.42 7.39 2.04.59 5.14 3.18 4.97 4.5-.3 2.35-2.25 5.2-4.35 6.43-3.21 1.88-7.12 2.57-11.09 3.88v91.79c12.72 0 25.46.06 38.19-.1 1.21-.02 2.61-1.26 3.58-2.27 3.44-3.61 6.74-7.35 10.65-11.67 6.49 4.54 13.22 8.75 19.35 13.7 4.31 3.48 3.67 7.38-.84 10.72-.8.59-1.64 1.33-2.56 1.51-7.71 1.53-8.45 6.68-8.42 13.54.26 55.66.14 111.33.14 167 0 19.04-8.04 28.86-27.47 33-.46-1.63-.99-3.29-1.39-4.98-1.67-7.07-5.87-11.86-12.87-13.93-5.57-1.64-11.15-3.48-16.86-4.41-5.34-.85-7.43-2.96-5.13-8.82zm-53.69-182.63c0 7.33.13 14.3-.06 21.26-.08 2.96.99 3.94 3.85 4.47 7.65 1.42 15.34 2.88 22.8 5.04 13.85 4.01 27.68 8.13 41.25 12.98 7.24 2.59 13.51 7.15 16.42 15.02 1.44 3.9.16 7.34-2.69 9.29-2.09 1.43-5.56 1.52-8.26 1.15-2.12-.29-4.03-2.18-6.01-3.4-10.48-6.43-20.77-13.18-31.47-19.23-11.02-6.24-22.97-10.26-35.46-12.91-.61 26.15-1.21 52.03-1.83 78.35 1.95-.2 3.89-.3 5.79-.63 31.51-5.49 61.85-15.02 91.64-26.49 3.47-1.34 4.73-3.03 4.7-6.84-.19-24.32-.09-48.64-.11-72.97 0-1.63-.13-3.26-.22-5.1-33.42.01-66.52.01-100.34.01z"/><path d="m100.68 129.43c5.25 1.44 9.34 2.25 13.15 3.75 1.7.67 3.97 2.74 3.96 4.16-.01 1.5-2.37 4.24-3.78 4.29-9.21.32-11.27 6.61-13.13 13.88-2.42 9.48-2.43 9.07 4.9 15.6 4.74 4.23 8.98 9.27 12.44 14.6 2.39 3.69 2.08 8.35-1.58 11.89-4.45 4.3-8.52 3.41-10.65-2.39-.86-2.33-1.11-4.93-2.21-7.12-2.41-4.79-5.19-9.4-7.91-14.25-6.71 12.79-12.89 24.58-19.01 36.24-5.64-1.26-6.6-3.38-4.48-8.22 9.27-21.14 14.75-43.31 16.64-66.35.08-.98.47-1.94.58-2.92.1-.97.02-1.96.02-2.99-14.5 0-28.94 0-43.37 0-.16 0-.32.08-.49.1-8.55 1.2-8.55 1.2-12.18-6.61-.97-2.09-1.9-4.19-3.21-7.1 11.95 1.02 23.21 1.98 34.57 2.95 0-20.09 0-39.79 0-60.51 9.26 2.61 18.76 5.11 28.1 8.1 1.64.52 3.78 3.24 3.6 4.69-.23 1.82-2.31 3.88-4.12 4.92-2.69 1.55-5.84 2.3-9.14 3.52v38.91h35.11c0-28.53 0-57.22 0-86.57 8.79 2.29 17.76 4.35 26.51 7.09 2.3.72 3.95 3.54 5.89 5.39-1.89 1.91-3.51 4.28-5.75 5.62-2.63 1.58-7.18 1.49-8.36 3.57-1.52 2.67-.56 6.78-.61 10.27-.04 2.99-.01 5.98-.01 9.68 9.45-.55 19.36 3.61 26.59-6.26 2.21-3.02 5.46-5.27 8.46-8.09 7.21 5.2 14.32 10.08 21.1 15.4 1.61 1.27 3.42 4.91 2.78 5.85-1.21 1.77-4.12 3.28-6.35 3.32-15.48.29-30.98.16-46.47.16-1.81 0-3.61 0-5.75 0v34.93c5.38 0 10.88-.6 16.2.12 13.74 1.86 25.11-1.47 33.27-13.27.36-.52 1.01-.84 1.75-1.44 7.2 5.08 14.51 10.01 21.49 15.36 1.52 1.16 2.79 4.01 2.47 5.78-.25 1.37-3.03 2.57-4.9 3.27-1.48.55-3.29.24-4.95.25-18.63.01-37.25.01-55.92.53 4.95 1.12 10 1.95 14.81 3.51 1.77.58 2.99 2.87 4.46 4.39-1.66 1.6-3.39 4.62-4.98 4.55-8.81-.39-11.06 4.94-11.86 12.09-.24 2.13-.5 4.43-1.46 6.28-2.98 5.74-.59 8.77 4.34 11.91 7.73 4.91 14.95 10.64 19.19 19.18 2.1 4.24 4.06 8.77 1.69 13.3-1.2 2.3-3.7 4.66-6.11 5.43-3.3 1.05-6.07-1.06-7.35-4.45-1.23-3.26-2.5-6.52-3.47-9.85-2.29-7.83-6.31-14.58-12.07-20.41-5.78 12.26-11.52 24.43-17.47 37.04-2.86-1.36-4.86-2.31-7.52-3.58 12.51-25.14 17.26-51.8 19.76-79.47-12.11-.02-24-.02-37.21-.02z"/><path d="m64.41 342.54h113.07c0-64.18 0-128.08 0-192.65 8.34 2.22 16.84 4.16 25.09 6.87 2.4.79 4.09 3.77 6.1 5.75-2.04 1.93-3.76 4.62-6.18 5.66-7.39 3.19-7.49 2.94-7.49 11.01 0 42.5-.09 84.99.05 127.49.05 15.64.7 31.28.98 46.92.14 8.05-8.37 13.26-14.94 8.77-2.24-1.53-2.96-5.29-4.38-8.03.33-.42.66-.84.99-1.26-1.77 0-3.53 0-5.3 0-34.33 0-68.66-.04-102.99.09-2.48.01-5.2.79-7.39 1.98-7.51 4.05-14.42.36-14.42-8.04-.02-55.16.06-110.32-.07-165.48-.02-10.76-.8-21.51-1.26-33.25 9.72 2.67 19.12 5.06 28.37 7.95 1.58.49 3.54 3.13 3.47 4.7-.08 1.81-2.1 3.64-3.51 5.25-.58.66-1.78.81-2.71 1.13-7.47 2.56-7.47 2.56-7.47 10.32v157.98c-.01 2.13-.01 4.27-.01 6.84z"/><path d="m138.62 247.04c7.04 1.57 14.23 2.89 21.21 4.92 2.07.6 4.72 3.02 5.07 4.97.66 3.68-2.92 4.75-5.71 4.53-7.65-.59-9.89 3.62-10.38 10.2-.19 2.61-.72 5.42-1.94 7.68-3.16 5.87-.38 8.92 4.34 11.97 7.71 4.96 15.41 10.28 19.05 19.14 1.55 3.77 2.33 8.27 1.96 12.29-.4 4.28-3.71 6.76-8.5 6.66-4.9-.1-6.04-3.56-6.7-7.26-1.91-10.56-6.19-19.91-13.65-27.79-6.67 12.9-13.3 25.7-20.06 38.78-1.98-.96-3-1.38-3.95-1.92-1-.57-1.93-1.25-2.09-1.36 4.72-13.83 10.12-27.04 13.65-40.73 3.51-13.57 5.14-27.64 7.7-42.08z"/><path d="m89.21 246.2c8.27 1.65 16.14 2.92 23.8 4.96 2.2.58 3.81 3.37 5.69 5.14-2.29 1.58-4.42 4.15-6.9 4.55-7.69 1.23-7.16 1.11-9.8 8.61-2.74 7.78-1.59 12.52 5.73 17.47 5.41 3.66 8.9 10.4 12.62 16.17 1.08 1.67.87 5.35-.3 7.02-1.62 2.29-4.51 4.38-7.22 5.03-3.45.82-4.93-2.31-6.17-5.27-2.78-6.64-5.84-13.16-9.18-20.59-7.43 15.45-14.13 29.37-20.85 43.34-2.21-.76-3.15-1.01-4.03-1.4-.9-.4-1.75-.92-3.12-1.65 12.27-26.23 17.53-54.1 19.73-83.38z"/><path d="m311.75 135.11c-1.32-1.49-2.51-2.85-3.78-4.28 15.51-21.67 26.64-45.14 31.96-72.03 9 4.33 17.52 8.26 25.84 12.58 1.49.77 3.28 3.4 2.94 4.64-.45 1.65-2.8 3.9-4.39 3.94-9.72.26-13.69 6.91-18.29 14.06-9.59 14.9-19.24 29.95-34.28 41.09z"/><path d="m148.52 213.18c6.64 5.13 13.17 9.96 19.41 15.15 1.39 1.16 2.7 3.8 2.31 5.32-.33 1.3-3.05 2.31-4.89 2.81-2.04.56-4.27.51-6.42.53-23.78.16-47.57.23-71.35.46-3.95.04-7.9.7-12.18 1.1-2.17-4.39-4.34-8.78-6.78-13.72 9.31.81 17.86 1.88 26.44 2.24 12.45.52 24.91.62 37.37.64 1.52 0 3.31-1.27 4.5-2.44 3.92-3.83 7.6-7.89 11.59-12.09z"/><path d="m212.2 66.82c1.56-1.95 2.79-3.48 4.32-5.39 17.39 12.63 33.9 25.58 43.83 45.02 2.74 5.36 3.79 10.93 2.06 16.85-1.12 3.84-3.27 6.52-7.57 6.75-4.48.24-7.14-2.26-8.66-6.15-2.84-7.25-5.35-14.63-8.43-21.78-5.79-13.46-14.83-24.68-25.55-35.3z"/></g></svg>