<svg enable-background="new 0 0 400 400" viewBox="0 0 400 400" xmlns="http://www.w3.org/2000/svg"><path d="m6.4 11.7c-1-.8-1.9-1.6-2.9-2.3l.6-.7c.9.7 1.9 1.4 2.9 2.2zm-2.1 8.3c.7-2.1 1.4-4.2 2-6.4.2.1.6.3 1 .4-.7 2.3-1.3 4.4-1.9 6.4zm3-12.8c-1.1-.9-2.1-1.7-2.9-2.4l.6-.7c1 .8 2 1.5 3 2.4zm1.4-1.3v-.9h10.2v.9c-.9 4.2-2.3 7.3-4.1 9.4 1.3 1.4 3.2 2.7 5.7 4-.2.2-.4.5-.7.9-2.5-1.4-4.4-2.7-5.7-4.2-1.4 1.5-3.5 3-6.1 4.4 0 0 0 0-.1-.1-.3-.4-.5-.7-.7-.8 2.7-1.4 4.7-2.8 6.2-4.2-1.8-2.2-3-5.3-3.7-9.4zm9.2 0h-7.1c.6 3.8 1.7 6.7 3.4 8.7 1.7-2 2.9-4.8 3.7-8.7z" fill="#fbfcfa"/><path d="m31.6 3.6h.9v2.3h4.1v9.1h1.7v.9h-16.6v-.9h1.7v-9.1h4.1v-2.3h.9v2.3h3.1v-2.3zm-4 13.3.6.8c-1.9.9-3.8 1.9-5.8 2.8-.2-.3-.3-.6-.5-.9 2-.9 3.9-1.8 5.7-2.7zm-3.2-10.1v3.7h3.1v-3.7zm0 4.5v3.7h3.1v-3.7zm4.1-4.5v3.7h3.1v-3.7zm0 4.5v3.7h3.1v-3.7zm9.1 9.1c-2.1-1.1-4.1-2-5.8-2.7l.5-.8c2.2.9 4.1 1.8 5.8 2.6zm-1.9-13.6h-3.1v3.7h3.1zm-3.2 4.5v3.7h3.1v-3.7z" fill="#fbfcfa"/><g fill="#010101"><path d="m347.17 304.97c8.53 6.39 16.83 12.43 24.88 18.79 1.35 1.06 2.32 3.53 2.23 5.28-.17 2.99-2.8 2.99-5.27 2.98-35.33-.04-70.66-.03-105.99-.03-1.76 0-3.52 0-6.69 0 5.75 4.86 10.33 8.99 15.19 12.76 4.12 3.2 8.64 5.88 12.79 9.04 1.13.86 2.45 2.85 2.17 3.91-.57 2.13-1.39 4.17-4.78 4.51-4.53.45-9 2.16-13.3 3.84-1.58.62-2.61 2.67-4.09 4.28-11.87-10.22-23.61-20.23-32.12-33.11-8.34-12.63-15.67-25.93-23.03-38.24-12.33 12.78-24.33 26.09-37.28 38.39-12.82 12.17-26.76 23.11-44.54 29.62-1.27-1.81-2.8-4-4.58-6.53 5.7-3.49 11.28-6.5 16.41-10.15 7.32-5.22 14.93-10.27 21.28-16.54 9.66-9.54 18.82-19.7 27.29-30.32 5.03-6.3 8.6-13.84 12.25-21.11.95-1.89.34-5.1-.57-7.29-9.22-22.37-15.58-45.63-20.15-69.28-2.85-14.76-3.62-29.94-5.25-44.93-.67-6.16-1.15-12.34-1.77-19.07 3.32-.98 6.67-1.96 9.08-2.67 3.25 21.26 6.24 42.28 9.73 63.22 3.48 20.87 9.67 41 17.89 62.09 10.48-22.56 17.91-44.75 21.75-67.78 3.85-23.1 5.54-46.56 8.28-70.79-28 1.1-54.81-1.74-81.44 2.1-1.83-5.03-3.54-9.76-5.41-14.91 4.76.35 9.13.87 13.5.95 22.76.41 45.53.8 68.3.85 2.15 0 4.37-2.34 6.43-3.77.75-.52 1.14-1.55 1.7-2.35 4.14-5.92 5.63-6.28 11.19-1.99 4.28 3.31 8.52 6.75 12.38 10.53 3.63 3.55 3.16 6.5-.91 9.41-2.65 1.89-5.44 3.59-8.07 5.5-.72.52-1.43 1.46-1.56 2.29-.29 1.96-.11 3.98-.32 5.96-.21 1.93-.68 3.83-1.11 6.21h46.49c-1.07-37.97 1.52-76.07-1.64-114.91 11.51 3.1 22.97 5.97 34.26 9.41 2.1.64 4.2 3.36 4.9 5.56.31.98-2.58 3.78-4.5 4.51-4.81 1.83-9.89 2.96-15 4.41v90.76c7.36 3 10.6-2.62 14.47-6.64 2.38-2.48 4.47-5.25 7.16-8.45 6.7 5 13.09 9.76 19.46 14.53 1.57 1.18 3.17 2.34 4.62 3.66 3.13 2.84 2.59 6.11-1.36 7.49-1.96.69-4.15 1.01-6.23 1.03-12.49.09-24.99.05-37.89.05v163.34c11.24 2.59 15.96.6 23.42-9.77 1.62-2.29 3.5-4.37 5.35-6.63zm-47.37-146.73c-16.16 0-31.77 0-47.4 0-.82 5.38-1.52 10.55-2.42 15.69-2.2 12.53-4.33 25.07-6.79 37.55-4.75 24.08-13.27 46.93-23.06 69.36-.59 1.34-.51 3.65.28 4.81 7.7 11.33 15.52 22.6 23.6 33.66 1.11 1.52 3.87 2.56 5.88 2.59 15.49.21 30.99.12 46.49.1 1.11 0 2.21-.2 3.43-.32-.01-54.58-.01-108.84-.01-163.44z"/><path d="m111.22 152v51c5.66 0 11.11.12 16.56-.09 1.27-.05 2.81-.98 3.69-1.98 4.43-5.06 8.69-10.27 13.18-15.64 7.71 6.33 15.58 12.69 23.28 19.26 1.14.97 2.32 3.27 1.91 4.34-.64 1.64-2.49 3.03-4.14 3.98-1.01.58-2.61.14-3.94.14-16.66 0-33.32 0-50.75 0v5.93 141c0 8.67-8.21 13.39-15.84 9.12-4.31-2.41-3.31-6.54-3-10.17.75-8.82 2.64-17.6 2.71-26.41.3-37.84.12-75.68.12-113.51 0-1.8 0-3.6 0-5.47-15.27 0-30.14 0-45.5 0-1.97-4.33-4.18-9.16-6.17-13.51 17.01 1.28 33.98 2.56 51.36 3.86 0-17.92 0-34.63 0-52.22-7.24.42-14.29.7-21.32 1.28-3.67.3-6.75.31-8.08-4.08-.7-2.29-2.13-4.36-3.44-6.97-7.78 8.98-15.25 17.63-22.92 26.49-2.84-2.97-5.23-5.46-7.55-7.88 32.92-36.65 51.8-80.1 60.7-128.36 9.32 2.7 18.28 5.06 27.04 8.01 2.48.84 4.38 3.43 6.54 5.22-2.11 1.3-4.08 3.12-6.38 3.78-3.56 1.04-7.38 1.16-11.04 1.94-1.58.34-3.02 1.37-4.49 2.08 10.21 7.28 20.23 13.49 29.09 21.05 6.88 5.87 16.16 9.7 19.56 18.94 1.43 3.88 1.71 8.45 1.36 12.61-.19 2.19-2.77 5.79-4.43 5.88-2.78.16-6.66-1.2-8.36-3.31-4.07-5.05-6.56-11.38-10.73-16.32-8.49-10.06-17.66-19.54-27.26-30.05-5.74 14.1-10.17 27.14-16.27 39.33-6.11 12.22-13.9 23.6-21.29 35.91 3.98.91 8.06 2.27 12.24 2.71 9 .95 18.1 1.06 27.07 2.23 6.64.86 9.4-3.82 12.97-7.5 2.73-2.81 5.17-5.91 7.89-9.05 7.24 5.34 14.07 10.37 20.87 15.42 2.72 2.02 4.98 4.96 3.2 7.96-1.06 1.79-4.62 2.85-7.09 2.92-10.29.31-20.61.13-31.35.13z"/><path d="m57.21 243.13c9.32 4.14 17.85 7.73 26.18 11.74 3.66 1.76 3.57 5.68-.22 7.32-2.88 1.24-6.28 1.56-9.48 1.72-2.46.12-3.79.72-4.7 3.16-4.4 11.71-8.18 23.76-13.78 34.89-4.87 9.66-11.88 18.25-17.96 27.3-.37.54-.97.92-1.38 1.43-3.64 4.48-3.63 4.49-8.88 1.64 13.76-28.06 27.53-56.17 30.22-89.2z"/><path d="m126.17 252.14c1.56-1.22 3.42-2.67 5.35-4.17 6.86 8.93 13.67 17.28 19.89 26.05 3.94 5.56 7.43 11.53 10.36 17.68 3.86 8.07 3.97 16.93 1.74 25.33-.6 2.27-5.59 4.03-8.82 4.59-1.2.21-3.9-3.47-4.56-5.77-2.98-10.42-4.6-21.31-8.39-31.4-4.08-10.86-10.03-21.03-15.57-32.31z"/></g></svg>