<svg enable-background="new 0 0 400 400" viewBox="0 0 400 400" xmlns="http://www.w3.org/2000/svg"><path d="m6.4 11.7c-1-.8-1.9-1.6-2.9-2.3l.6-.7c.9.7 1.9 1.4 2.9 2.2zm-2.1 8.3c.7-2.1 1.4-4.2 2-6.4.2.1.6.3 1 .4-.7 2.3-1.3 4.4-1.9 6.4zm3-12.8c-1.1-.9-2.1-1.7-2.9-2.4l.6-.7c1 .8 2 1.5 3 2.4zm1.4-1.3v-.9h10.2v.9c-.9 4.2-2.3 7.3-4.1 9.4 1.3 1.4 3.2 2.7 5.7 4-.2.2-.4.5-.7.9-2.5-1.4-4.4-2.7-5.7-4.2-1.4 1.5-3.5 3-6.1 4.4 0 0 0 0-.1-.1-.3-.4-.5-.7-.7-.8 2.7-1.4 4.7-2.8 6.2-4.2-1.8-2.2-3-5.3-3.7-9.4zm9.2 0h-7.1c.6 3.8 1.7 6.7 3.4 8.7 1.7-2 2.9-4.8 3.7-8.7z" fill="#fbfcfa"/><path d="m31.6 3.6h.9v2.3h4.1v9.1h1.7v.9h-16.6v-.9h1.7v-9.1h4.1v-2.3h.9v2.3h3.1v-2.3zm-4 13.3.6.8c-1.9.9-3.8 1.9-5.8 2.8-.2-.3-.3-.6-.5-.9 2-.9 3.9-1.8 5.7-2.7zm-3.2-10.1v3.7h3.1v-3.7zm0 4.5v3.7h3.1v-3.7zm4.1-4.5v3.7h3.1v-3.7zm0 4.5v3.7h3.1v-3.7zm9.1 9.1c-2.1-1.1-4.1-2-5.8-2.7l.5-.8c2.2.9 4.1 1.8 5.8 2.6zm-1.9-13.6h-3.1v3.7h3.1zm-3.2 4.5v3.7h3.1v-3.7z" fill="#fbfcfa"/><g fill="#010101"><path d="m74.76 143.98c-12.07 0-23.64.11-35.21-.13-1.67-.04-4-1.39-4.84-2.82-2.29-3.9-3.95-8.17-5.57-11.68 15.07 1.16 30.16 2.32 45.36 3.49 0-33.33 0-65.34 0-98.48 9.2 2.37 18.25 4.69 27.29 7.04 2.36.61 5.09.79 6.94 2.14 1.87 1.37 3.55 3.83 3.94 6.06.2 1.11-2.42 3.38-4.18 4.05-3.93 1.49-8.19 2.11-12.17 3.5-1.34.47-3.17 2.21-3.18 3.38-.19 23.63-.14 47.27-.14 70.75 8.32 3.35 12.06-2.74 16.4-7.26 2.73-2.84 5.14-5.99 7.94-9.3 6.34 5.35 12.45 10.3 18.3 15.54 2.26 2.02 3.38 2.29 5.22-.5 7.39-11.2 14.13-22.7 16.74-36.06.85-4.33.81-8.84 1.47-13.22.23-1.52 1.34-2.9 2.04-4.35.96 1.26 2.41 2.4 2.78 3.82.82 3.12 1.08 6.39 1.61 9.83h74.13c0-9.42 0-18.8 0-28.77-6.64 0-13.25-.1-19.86.02-13.6.26-27.2.57-40.8 1.04-2.73.09-4.15-.71-5.11-3.29-1.4-3.79-3.21-7.44-5.05-11.6 5.7.67 10.98 1.33 16.26 1.91 6.03.67 12.07 1.81 18.1 1.84 34.33.18 68.66.15 102.99-.04 2.45-.01 5.5-1.28 7.2-3.01 4.83-4.92 9.11-10.38 13.77-15.82 8.44 6.28 16.76 12.23 24.73 18.62 1.63 1.3 4.49 3.84 2.02 6.53-1.62 1.77-4.28 3.64-6.49 3.66-28.13.21-56.3.13-84.46.13-1.79 0-3.59 0-5.65 0v29h5.16c23.16 0 46.33-.12 69.49.1 4.67.05 8.39-.78 11.2-4.68.87-1.2 2.24-2.03 3.12-3.23 2.93-3.99 5.29-3.43 8.62-.03 4.94 5.04 10.68 9.3 15.85 14.13 4.11 3.84 3.56 5.88-1.86 7.62-2.77.89-5.7 1.95-8.51 1.83-3.79-.16-5.65 2.13-7.92 4.29-5.87 5.6-11.82 11.13-17.78 16.73-1.87-1.39-3.66-2.73-5.66-4.22 3.85-7.26 7.68-14.49 11.86-22.35-28.51 0-55.8 0-83.87 0v5.23c0 14.83-.25 29.67.08 44.49.23 10.36.91 20.75 2.02 31.06 1 9.37-9.09 13.27-15.96 11.72-1.41-.32-2.99-3.77-3-5.8-.2-25-.13-49.99-.13-74.99 0-3.79 0-7.59 0-11.64-25.04 0-49.63 0-73.71 0-2.11 9.24-4.12 18.41-6.31 27.55-2.5 10.42-12.71 16.64-23.21 15.4-7.07-.84-14.31-.2-21.48-.21-7.16-.01-14.32 0-21.89 0v104.68c17.04-7.79 33.62-15.38 50.36-23.04.17 1.61.63 3.36.46 5.04-.16 1.68-.43 4.13-1.54 4.83-13.07 8.3-26.01 16.88-39.59 24.3-14.31 7.81-29.24 14.51-43.97 21.54-4.56 2.18-8.4 4.67-9.92 9.92-.7 2.42-2.29 4.58-3.89 7.66-8.76-9.54-12.91-20.72-17.73-30.97 14.66-4.25 29.3-8.4 43.85-12.85 1.47-.45 3.41-2.7 3.42-4.12.17-35.16.11-70.32.08-105.48 0-.31-.18-.61-.16-.53z"/><path d="m288.23 242.61c-7 .52-12.95.68-18.81 1.49-4.13.57-5.98-1.4-7.33-4.68-1.35-3.29-2.73-6.57-4.28-10.29 13.12 1.42 25.77 2.79 38.28 4.15 0-14.22 0-27.97 0-42.68 7.1 1.96 14.72 3.9 22.23 6.2 3.22.99 6.45 2.36 9.25 4.19 3.72 2.43 3.39 5.98-.59 7.94-3.2 1.58-6.72 2.5-9.91 4.1-1.29.64-2.85 2.26-2.93 3.52-.33 5.28-.14 10.59-.14 15.73 7.51 3.02 11.4-1.79 15.38-6.22 2.64-2.94 5.12-6.01 7.77-9.14 8.05 6.28 15.79 12.27 23.47 18.32 2.08 1.64 1.41 5.75-1.22 6.68-1.96.69-4.14 1.02-6.23 1.03-11.31.1-22.61.05-34.47.05 3.25 11.98 6.23 23.49 12.63 33.64 6.69 10.62 13.32 21.33 20.86 31.33 4.08 5.41 9.68 9.88 15.2 13.95 5.12 3.76 5.48 3.27 2.89 9.9-8.67.66-16.95 2.33-22.82 10.5-17.83-21.3-21.92-48.36-33.48-71.71v4.47c0 27.49-.25 54.99.14 82.48.13 9.34-4.27 10.34-10.84 10.56-6.03.2-8.49-6.06-8.28-11.63.63-16.7 1.48-33.39 1.93-50.09.3-11.11.06-22.24.06-34.08-17.88 27.92-35.94 54.71-63.13 73.65-4.73-6.64-4.8-6.72.65-12 16.95-16.43 29.39-35.96 39.51-57.11 2.6-5.43 5.65-10.66 7.97-16.21 2.32-5.52 3.96-11.34 6.24-18.04z"/><path d="m123.15 344.69c-1.02-1.54-2.12-3.15-3.15-4.8-.42-.67-.71-1.43-1.14-2.32 28.71-26.44 51.01-57.09 63.81-94.83-8.76.43-17.18.72-25.57 1.32-3.04.22-4.4-1.01-5.4-3.64-1.37-3.64-3.06-7.16-4.64-10.78 14.17 1.38 28.22 2.75 42.44 4.13 0-14.86 0-28.53 0-43.32 7.66 2.11 15.26 4.09 22.78 6.31 2.79.83 5.65 1.88 8.03 3.49 1.6 1.08 3.54 3.5 3.29 4.99-.29 1.78-2.47 3.87-4.32 4.66-10.23 4.35-10.29 4.23-10.28 15.58v7.1c4.6 1.02 8.2.58 11.25-3.21 2.49-3.1 5.42-5.92 8.51-8.42 1.1-.89 3.81-1.27 4.82-.54 5.56 4.05 10.87 8.45 16.15 12.87 2.16 1.8 4.45 4.22 2.14 7-1.27 1.52-3.96 2.56-6.03 2.6-12.11.24-24.23.12-36.83.12 0 5.59-.17 10.72.13 15.82.07 1.22 1.56 2.56 2.69 3.49 10.53 8.61 21.28 16.98 31.65 25.78 5.38 4.56 5.08 11.23 4.08 17.42-.28 1.72-3.43 4.28-5.13 4.18-2.53-.15-5.83-1.71-7.25-3.75-5.4-7.74-9.91-16.1-15.28-23.86-2.75-3.98-6.6-7.21-10.89-11.78v6.66 83.97c0 6.18-3 8.87-10.05 9.07-5.77.16-9.89-3.38-9.88-9 0-4.1.87-8.2.89-12.3.09-24.82.04-49.65.02-74.48 0-.41-.19-.82-.48-2.05-16.11 30.24-38.45 53.86-66.36 72.52z"/><path d="m226.9 157.07v8.24c-13.87 8.49-29.43 12.24-44.72 16.71-6.71 1.96-13.41 3.99-19.93 6.5-1.78.68-3.11 3.05-4.19 4.91-1.61 2.78-2.81 5.79-4.21 8.75-4.93-3.04-10.26-14.71-13.88-29.91 29.13-3.69 58.5-5.75 86.93-15.2z"/><path d="m268.21 163.33c.52-6.89 2.42-8.38 9.57-7.31 9.69 1.45 19.41 2.67 29.12 3.97 11.96 1.6 23.17 5.31 32.9 12.55 2.5 1.86 4.91 4.89 5.62 7.81.63 2.56-.33 6.48-2.1 8.43-2.52 2.76-6.42 1.89-9.83.35-11.28-5.1-22.43-10.52-33.92-15.09-10.05-4.01-20.48-7.04-31.36-10.71z"/><path d="m267.93 140.61c14.83-5.94 25.1-17.35 35.18-30.44 7.9 6.01 15.73 11.82 23.31 17.93 1.09.88 1.5 3.26 1.29 4.82-.11.83-2.4 2.15-3.44 1.94-15.74-3.12-29.05 5.55-43.49 8.64-4.07.88-9.01 4.21-12.85-2.89z"/><path d="m172.86 115.96c12.81 2.37 25.5 4.3 37.96 7.19 6.76 1.57 13.86 4.18 15.03 12.63.35 2.56-.12 6.64-1.74 7.73-2.1 1.4-6.13 1.44-8.65.41-7.21-2.95-13.94-7.06-21.12-10.09-7.14-3.02-14.62-5.2-21.86-7.98-.87-.33-1.7-2.23-1.59-3.3.22-2.03 1.15-3.99 1.97-6.59z"/></g></svg>