<svg enable-background="new 0 0 400 400" viewBox="0 0 400 400" xmlns="http://www.w3.org/2000/svg"><path d="m6.4 11.7c-1-.8-1.9-1.6-2.9-2.3l.6-.7c.9.7 1.9 1.4 2.9 2.2zm-2.1 8.3c.7-2.1 1.4-4.2 2-6.4.2.1.6.3 1 .4-.7 2.3-1.3 4.4-1.9 6.4zm3-12.8c-1.1-.9-2.1-1.7-2.9-2.4l.6-.7c1 .8 2 1.5 3 2.4zm1.4-1.3v-.9h10.2v.9c-.9 4.2-2.3 7.3-4.1 9.4 1.3 1.4 3.2 2.7 5.7 4-.2.2-.4.5-.7.9-2.5-1.4-4.4-2.7-5.7-4.2-1.4 1.5-3.5 3-6.1 4.4 0 0 0 0-.1-.1-.3-.4-.5-.7-.7-.8 2.7-1.4 4.7-2.8 6.2-4.2-1.8-2.2-3-5.3-3.7-9.4zm9.2 0h-7.1c.6 3.8 1.7 6.7 3.4 8.7 1.7-2 2.9-4.8 3.7-8.7z" fill="#fbfcfa"/><path d="m31.6 3.6h.9v2.3h4.1v9.1h1.7v.9h-16.6v-.9h1.7v-9.1h4.1v-2.3h.9v2.3h3.1v-2.3zm-4 13.3.6.8c-1.9.9-3.8 1.9-5.8 2.8-.2-.3-.3-.6-.5-.9 2-.9 3.9-1.8 5.7-2.7zm-3.2-10.1v3.7h3.1v-3.7zm0 4.5v3.7h3.1v-3.7zm4.1-4.5v3.7h3.1v-3.7zm0 4.5v3.7h3.1v-3.7zm9.1 9.1c-2.1-1.1-4.1-2-5.8-2.7l.5-.8c2.2.9 4.1 1.8 5.8 2.6zm-1.9-13.6h-3.1v3.7h3.1zm-3.2 4.5v3.7h3.1v-3.7z" fill="#fbfcfa"/><g fill="#010101"><path d="m36.87 365.22c-1.75-2.57-3.32-4.83-4.83-7.13-.34-.51-.46-1.16-.31-.77 9.81-10.33 19.37-20.27 28.8-30.34 14.24-15.2 23.38-33.76 33.75-51.52 1.95-3.33 1.89-5.62-1.22-7.92-14.25-10.57-26.81-23.63-43.96-29.95-4.26-1.57-3.27-4.99-2.35-7.82 5.51-17.01 11.48-33.88 16.75-50.96 2.39-7.74 3.51-15.86 5.19-23.69-10.9-1.09-18.96 2.91-22.42 14.72-.59-.17-1.18-.35-1.78-.52-5.4-10.51-10.81-21.02-16.61-32.31h37.49c8.3 0 8.16-.03 9.69-8.24 2.15-11.53 4.82-22.97 6.76-34.53 2.05-12.26 3.59-24.6 5.17-36.93 1-7.82 1.64-15.69 2.53-24.41 11.33 4.97 22.67 9.82 33.85 15.01 1.59.74 3.4 3.16 3.33 4.72-.07 1.5-2.2 3.68-3.85 4.18-3.86 1.17-8.07 1.17-11.93 2.35-1.88.58-4.36 2.49-4.73 4.2-3.41 15.76-6.34 31.62-9.59 47.42-1.64 7.95-3.65 15.82-5.74 24.83 10.84-.78 21.17-1.53 31.49-2.28.32-.02.62-.21.94-.27 8.73-1.49 8.55-1.5 8.78-10.13.28-10.76.9-21.5 1.41-33.14 10.08 2.75 20.18 5.37 30.2 8.29 3.34.97 3.56 5.25.25 7.32-3.56 2.23-7.56 3.75-11.29 5.73-1.02.55-2.4 1.61-2.48 2.54-.48 5.55-.64 11.13-.91 16.92 5.73-.26 11.4-.52 16.99-.77 1.07 5.12 1.07 5.12-3.29 6.25-2.83.73-5.64 1.84-8.51 2.11-4.56.42-5.96 3.33-6.34 7.1-3.17 31.35-11.62 61.42-22.11 90.97-3.37 9.5-7.44 18.75-11.46 28.81 6.55 6.54 13.87 13.29 20.53 20.64 6.44 7.11 12.72 14.57 15.24 24.15 1.07 4.07 1.48 8.39 1.62 12.61.11 3.12-.79 6.27-4.45 7.32s-6.44-.28-8.39-3.49c-2.96-4.87-5.6-9.98-8.96-14.55-7.35-10-15.08-19.73-23.25-30.35-18.75 31.81-39.12 61.95-70 83.83zm65.75-109.58c15.16-35.48 22.56-73.08 27.32-111.67-15.05 2.68-29.32 5.23-44.22 7.88-5.25 26.74-16.83 51.7-28.07 75.64 15.02 9.4 29.79 18.65 44.97 28.15z"/><path d="m337.47 135c-1.68 0-3.47 0-5.26 0-42.32 0-84.64-.04-126.96.09-2.59.01-5.48.89-7.71 2.23-4.26 2.57-8.64 3.22-12.71.77-4.18-2.51-4.09-7.23-3.78-11.57.58-8.2 1.56-16.39 1.88-24.6.33-8.65.26-17.33.02-25.99-.23-8.17-.9-16.32-1.45-25.76 10.3 3.13 20.38 5.97 30.25 9.38 1.82.63 3.8 3.48 3.92 5.43.1 1.49-2.32 3.71-4.13 4.65-3.59 1.86-7.53 3.06-10.83 4.34v50.77h58.54c0-30.73 0-61.49 0-92.72 4.84.93 10.27 1.68 15.53 3.05 6.27 1.64 12.52 3.53 18.53 5.93 1.86.74 3.88 3.42 4.03 5.35.11 1.41-2.46 3.79-4.3 4.44-5.16 1.83-10.57 2.99-15.88 4.42v69.48h62.32c0-25.54 0-50.88 0-77.16 9.67 2.88 19.31 5.52 28.74 8.75 1.97.67 4.43 3.57 4.4 5.4-.03 1.81-2.6 4.36-4.63 5.22-10.93 4.65-10.99 4.51-10.99 16.56v59.48c0 6.85-2.18 9.61-8.73 9.97-4.98.27-9.27-2.06-9.36-8.27-.05-3.05-.89-6.09-1.44-9.64z"/><path d="m269.67 192.68c-29.76 0-59.12 0-88.94 0-1.94-4.29-4.15-9.2-6.53-14.47 5.21.66 10.1 1.31 14.99 1.88 5.86.68 11.73 1.81 17.6 1.83 36.82.17 73.65-.04 110.47.22 5.54.04 8.75-2.04 11.86-6.2 3.72-5 8.17-9.45 12.48-14.34 8.95 6.73 17.58 13.17 26.15 19.67 2.39 1.81 5.1 3.31 3.5 7.41-1.48 3.8-4.5 3.26-7.19 3.27-23.99.1-47.99.06-71.98.06-1.48 0-2.95 0-5.09 0v6.09c0 47.16-.21 94.31.12 141.47.11 15.29-11.83 25.84-24.44 29.36-2.3.64-4.75.73-7.54 1.14.75-11.04-5.69-15.79-14.95-18.08-8.2-2.03-16.4-4.03-24.62-5.98-2.29-.55-4-1.34-3.62-4.22.22-1.63.04-3.31.04-4.61 14.29 1.29 28.39 2.68 42.51 3.74 3.21.24 6.78 0 9.7-1.2 4.68-1.94 5.66-6.89 5.68-11.21.14-45.15.03-90.31-.02-135.46.01-.16-.13-.29-.18-.37z"/></g></svg>