<svg enable-background="new 0 0 400 400" viewBox="0 0 400 400" xmlns="http://www.w3.org/2000/svg"><path d="m6.4 11.7c-1-.8-1.9-1.6-2.9-2.3l.6-.7c.9.7 1.9 1.4 2.9 2.2zm-2.1 8.3c.7-2.1 1.4-4.2 2-6.4.2.1.6.3 1 .4-.7 2.3-1.3 4.4-1.9 6.4zm3-12.8c-1.1-.9-2.1-1.7-2.9-2.4l.6-.7c1 .8 2 1.5 3 2.4zm1.4-1.3v-.9h10.2v.9c-.9 4.2-2.3 7.3-4.1 9.4 1.3 1.4 3.2 2.7 5.7 4-.2.2-.4.5-.7.9-2.5-1.4-4.4-2.7-5.7-4.2-1.4 1.5-3.5 3-6.1 4.4 0 0 0 0-.1-.1-.3-.4-.5-.7-.7-.8 2.7-1.4 4.7-2.8 6.2-4.2-1.8-2.2-3-5.3-3.7-9.4zm9.2 0h-7.1c.6 3.8 1.7 6.7 3.4 8.7 1.7-2 2.9-4.8 3.7-8.7z" fill="#fbfcfa"/><path d="m31.6 3.6h.9v2.3h4.1v9.1h1.7v.9h-16.6v-.9h1.7v-9.1h4.1v-2.3h.9v2.3h3.1v-2.3zm-4 13.3.6.8c-1.9.9-3.8 1.9-5.8 2.8-.2-.3-.3-.6-.5-.9 2-.9 3.9-1.8 5.7-2.7zm-3.2-10.1v3.7h3.1v-3.7zm0 4.5v3.7h3.1v-3.7zm4.1-4.5v3.7h3.1v-3.7zm0 4.5v3.7h3.1v-3.7zm9.1 9.1c-2.1-1.1-4.1-2-5.8-2.7l.5-.8c2.2.9 4.1 1.8 5.8 2.6zm-1.9-13.6h-3.1v3.7h3.1zm-3.2 4.5v3.7h3.1v-3.7z" fill="#fbfcfa"/><g fill="#010101"><path d="m240 151.75c-22.83 37.41-48.45 70.42-84.41 94.57-1.91-2.83-3.61-5.36-5.58-8.29 52.39-43.06 85.52-97.78 98.7-164.1-29.68 0-59.43 0-90.25 0-1.85-4.04-4.21-9.16-6.66-14.5 8.6 1.02 16.8 2 25 2.97 1.79.21 3.59.57 5.38.57 42.65.03 85.3.06 127.96-.07 2.22-.01 5.1-.78 6.53-2.28 5.29-5.59 10.1-11.63 15.57-18.06 7.18 5.57 14.38 11.16 21.58 16.75 1.16.9 2.67 1.61 3.38 2.79 1.42 2.35 3.42 5.07 3.17 7.42-.14 1.37-4.17 3.3-6.47 3.32-25.99.24-51.98.21-77.97.08-3.77-.02-4.95 1.09-6.17 4.89-5.15 16.08-10.93 31.96-16.8 47.79-1.01 2.72-.13 3.77 1.58 5.3 4.48 4.03 9.03 8.02 13.06 12.46.92 1.02.61 4.47-.44 5.69-1.96 2.29-4.64 4.34-7.44 5.46-3.54 1.42-3.77 3.69-3.76 6.88.09 38.32-.13 76.64.15 114.96.12 15.87 1.41 31.73 1.84 47.6.25 9.04-3.9 12.18-12.74 11.25-3.7-.39-4.77-2.3-5.16-5.3-.17-1.31-.03-2.66-.03-3.99 0-55.81 0-111.63 0-167.44-.02-1.8-.02-3.6-.02-6.72z"/><path d="m147.14 222.99c.27 1.49.71 3.84 1.33 7.26-15.75 6.64-31.17 13.55-46.91 19.63-12.73 4.92-25.83 8.89-38.81 13.16-2.75.9-3.84 2.7-4.85 5.25-1.22 3.06-3.28 5.79-4.97 8.66-2.11-2.29-4.77-4.28-6.24-6.93-4.11-7.42-7.72-15.11-11.92-23.47 2.67-.21 4.71-.46 6.75-.52 5.11-.14 9.18-1.71 12.25-6.3 13.87-20.75 28.04-41.3 41.95-62.02 3.03-4.51 5.45-9.43 8.92-15.53-5.22 1.96-8.92 3.55-12.74 4.75-10.09 3.17-20.24 6.16-30.35 9.26-3.88 1.19-7.49 2.47-8.85 7.18-.68 2.38-2.85 4.33-4.9 7.28-7.2-10.06-11.12-21.45-16.94-31.75.64-.45.93-.8 1.13-.76 9.47 1.95 13.88-2.92 17.17-11.23 6.66-16.81 14.68-33.07 21.17-49.94 6.67-17.32 12.12-35.1 14.72-53.6.15-1.09.85-2.1 1.69-4.07 10.36 5.36 20.68 10.48 30.73 16.07 2 1.11 3.54 3.84 4.25 6.14.31 1-1.77 3.47-3.26 4.1-2.33.99-5.07 1.14-7.66 1.35-2.47.21-4.97.04-6.17.04-16.93 30.78-33.44 60.8-50.3 91.43 18.98-2.1 37.67-4.17 57.14-6.32 5.2-15.4 10.44-30.62 15.41-45.93.75-2.31 1.36-4 3.88-2.76 10.35 5.1 21.61 8.48 30.55 16.27 4.18 3.64 3.76 6.99-1.4 8.83-1.98.7-4.31 1.8-6.13 1.34-7.93-2-10.31 4-13.73 8.77-10.93 15.26-21.92 30.48-32.9 45.71-6.98 9.67-13.79 19.46-21.04 28.93-6.98 9.11-14.42 17.87-21.65 26.78-.39.48-.72 1.01-1.08 1.51.18.52.37 1.04.55 1.56 27.45-6.64 54.88-13.28 83.21-20.13z"/><path d="m145.66 361.56c-2.2-5.12-4.5-10.47-7.16-16.67 5.88.78 10.96 1.59 16.07 2.11 7.52.77 15.06 1.88 22.6 1.91 46.66.17 93.33.02 139.99.2 4.13.02 6.43-1.85 8.67-4.6 4.45-5.46 8.92-10.91 13.16-16.1 10.25 7.65 20.36 15.11 30.35 22.75.94.72 1.62 2.58 1.44 3.77-.17 1.12-1.46 2.62-2.56 2.94-2.48.71-5.14 1.09-7.73 1.09-61 .06-122-.07-182.99.15-10.29.04-20.59 1.55-31.84 2.45z"/><path d="m48.65 353.59c-5.68-10.15-11.37-20.3-17.4-31.09 43.75-5.99 83.66-21.36 123.18-39.49.53 3.58.9 6.08 1.41 9.5-12.47 6.74-24.98 14.13-38.03 20.39-18.91 9.07-38.26 17.25-57.31 26.05-2.2 1.02-4.02 3.36-5.4 5.49-1.74 2.68-2.84 5.76-4.21 8.68-.75.16-1.49.32-2.24.47z"/><path d="m274.01 156.25c2.01-1.48 3.84-2.83 6.19-4.57 13.07 8.81 27.22 16.61 39.23 26.91 13.98 11.98 26.47 25.8 38.78 39.56 4.33 4.84 4.61 12.17 3.76 18.9-.39 3.09-2.37 3.58-5.17 3.37-6.79-.51-9.28-6.04-12.82-10.42-13.25-16.44-25.83-33.49-40.04-49.05-8.49-9.32-19.55-16.29-29.93-24.7z"/></g></svg>