<svg enable-background="new 0 0 400 400" viewBox="0 0 400 400" xmlns="http://www.w3.org/2000/svg"><path d="m6.4 11.7c-1-.8-1.9-1.6-2.9-2.3l.6-.7c.9.7 1.9 1.4 2.9 2.2zm-2.1 8.3c.7-2.1 1.4-4.2 2-6.4.2.1.6.3 1 .4-.7 2.3-1.3 4.4-1.9 6.4zm3-12.8c-1.1-.9-2.1-1.7-2.9-2.4l.6-.7c1 .8 2 1.5 3 2.4zm1.4-1.3v-.9h10.2v.9c-.9 4.2-2.3 7.3-4.1 9.4 1.3 1.4 3.2 2.7 5.7 4-.2.2-.4.5-.7.9-2.5-1.4-4.4-2.7-5.7-4.2-1.4 1.5-3.5 3-6.1 4.4 0 0 0 0-.1-.1-.3-.4-.5-.7-.7-.8 2.7-1.4 4.7-2.8 6.2-4.2-1.8-2.2-3-5.3-3.7-9.4zm9.2 0h-7.1c.6 3.8 1.7 6.7 3.4 8.7 1.7-2 2.9-4.8 3.7-8.7z" fill="#fbfcfa"/><path d="m31.6 3.6h.9v2.3h4.1v9.1h1.7v.9h-16.6v-.9h1.7v-9.1h4.1v-2.3h.9v2.3h3.1v-2.3zm-4 13.3.6.8c-1.9.9-3.8 1.9-5.8 2.8-.2-.3-.3-.6-.5-.9 2-.9 3.9-1.8 5.7-2.7zm-3.2-10.1v3.7h3.1v-3.7zm0 4.5v3.7h3.1v-3.7zm4.1-4.5v3.7h3.1v-3.7zm0 4.5v3.7h3.1v-3.7zm9.1 9.1c-2.1-1.1-4.1-2-5.8-2.7l.5-.8c2.2.9 4.1 1.8 5.8 2.6zm-1.9-13.6h-3.1v3.7h3.1zm-3.2 4.5v3.7h3.1v-3.7z" fill="#fbfcfa"/><g fill="#010101"><path d="m274.32 182.42c-3.29 2-6.24 3.07-8.2 5.11-5.33 5.53-10.23 11.46-15.5 17.45 11.99 16.37 22.52 34.4 28.4 54.61 2.71 9.32 3.73 19.19 4.87 28.89.89 7.54 1.45 15.23.96 22.78-.87 13.33-1.71 26.72-7.6 39.21-5.94 12.59-16.31 18.54-29.31 20.93-.82.15-2.82-1.32-2.77-1.92.83-10.44-7.6-13.37-14.31-17.3-3.56-2.09-7.88-2.97-11.95-4.08-6.02-1.65-6.34-2.25-3.16-7.99 11.47 2.28 22.91 4.76 34.46 6.7 3.28.55 6.83-.43 10.23-.92.62-.09 1.22-1.17 1.6-1.91 3.53-7.01 5.02-14.47 4.98-22.3-.04-10.96-.01-21.92-.01-33.99-33 30.19-73.71 42.27-114.04 55.25-1.14-1.46-2.13-2.53-2.89-3.75-.68-1.11-1.1-2.37-1.5-3.26 16.68-6.72 33.77-12.56 49.89-20.4 16.15-7.85 31.49-17.45 44.6-30.08 6.21-5.98 12.67-11.71 18.65-17.9 1.38-1.42 2.09-4.45 1.68-6.45-1.12-5.55-2.99-10.96-4.77-17.15-3.71 3.33-7.53 6.11-10.56 9.59-11.93 13.68-27.8 21.19-43.86 28.31-11.59 5.14-23.44 9.67-35.55 14.63-1.6-2.62-2.98-4.9-4.52-7.43 7.47-3.28 14.77-6.44 22.03-9.68 20.92-9.34 38.23-23.58 53.88-40 3.5-3.68 6.61-7.74 9.73-11.75.66-.85 1.14-2.6.72-3.43-2.46-4.72-5.21-9.29-7.88-13.95-24.6 21.23-48.94 33.59-78.42 44.7-.3-.11-.74-.14-.89-.36-4.48-6.53-4.34-6.28 2.84-10.25 14.39-7.95 29.1-15.48 42.77-24.55 13.15-8.72 25.14-19.18 34.23-32.44.36-.53.66-1.12.9-1.72.17-.42.2-.91.29-1.36-14.71 0-29.31 0-44.33 0 0 1.38.01 2.51 0 3.63-.09 7.36-9.41 13.43-15.88 9.76-1.89-1.07-2.96-5.05-2.99-7.71-.23-22-.13-44-.13-65.99 0-1.83 0-3.65 0-6.59-3.73 2.65-6.84 4.82-9.91 7.04-4.55 3.28-9.1 5.25-13.49.02 7.03-6.55 15.01-12.66 21.33-20.18 9.13-10.85 17.33-22.54 25.4-34.23 4.15-6.01 7.64-12.61 10.56-19.31 2.37-5.43 3.3-11.48 5.21-17.14.45-1.34 2.65-3.38 3.37-3.13 9.52 3.31 18.99 6.81 28.29 10.7 1.77.74 3.69 3.27 3.84 5.1.12 1.47-2.11 3.52-3.76 4.62-1.38.91-3.55 1.4-5.16 1.06-11.35-2.4-14.7 5.5-18.2 14.1h31.95c3.83 0 7.81-.66 11.47.12 10.79 2.32 16.21-4.47 22.07-12.53 7.37 6.33 14.77 12.5 21.95 18.94 3.36 3.02 2.59 5.44-1.81 6.88-1.85.6-3.83 1.66-5.62 1.45-6.63-.76-10 2.88-13.9 7.68-7.37 9.1-15.9 17.26-24.55 26.45h12.77c13.33 0 26.67-.23 39.99.13 4.32.12 6.83-1.72 9.1-4.75.48-.65.77-1.45 1.29-2.05 5.58-6.53 6.4-6.68 12.73-.83 4.47 4.12 8.65 8.57 13.58 13.49-4.21 2.99-6.97 5.36-10.09 7.03-2.75 1.47-3.53 3.28-3.49 6.28.17 12-.07 24 .15 36 .07 4.04 1.63 8.09 1.48 12.09-.16 4.03-.56 8.74-2.72 11.84-3.02 4.32-8.66 4.17-13.64 3.56-.85-.1-1.98-2.07-2.09-3.25-.29-3.28-.1-6.61-.1-10.22-14.74 0-29.13 0-43.87 0 1.43 21.41 5.81 41.95 14.42 61.52 9.29-2.77 30.34-25 38.63-37.28 7.89 5.47 15.86 10.84 23.6 16.51 1.37 1 2.83 3.57 2.43 4.84-.43 1.38-2.89 2.38-4.66 3-1.33.46-3.29.61-4.41-.05-5.77-3.42-9.64-.08-14.53 2.62-11.09 6.11-22.79 11.1-34.25 16.55-1.12.53-2.25 1.04-3.26 1.51 7.55 15.79 16.36 30.59 29.25 41.88 12.6 11.03 26.7 20.35 41.04 31.09.16 2.6-1.08 4.38-6.04 4.8-7.09.61-14.17 2.69-18.06 9.79-18.92-14.05-34.97-30.28-45-51.52-6.87-14.56-14.25-29.1-18.95-44.4-4.7-15.31-9.13-31.02-9.42-47.39-.07-4.43-.89-8.83-1.61-15.37zm54.45-56.07c-19.09 0-37.8 0-56.38 0v47.39h56.38c0-15.85 0-31.44 0-47.39zm-129.57 47.28h54.56c0-15.96 0-31.55 0-47.34-18.28 0-36.32 0-54.56 0zm-7.14-62.76c3.11 1.32 6.4 3.86 9.74 3.94 17.48.41 34.97.26 52.46.09 1.88-.02 4.39-.94 5.5-2.33 5.22-6.49 10.29-13.13 14.94-20.03 3.35-4.96 5.95-10.43 9.38-16.53-21.49 0-41.3-.03-61.11.08-1.15.01-2.6.94-3.39 1.87-8.92 10.55-17.74 21.18-27.52 32.91z"/><path d="m89.84 152.23c-8.49 0-16.43 0-24.56 0-.11.82-.24 1.45-.27 2.07-.34 9.23-3.24 11.83-13.03 11.7-4.85-.06-6.64-2.26-5.69-6.76.4-1.91.67-3.89.67-5.83.06-21 .04-41.99.04-62.98 0-13.66.04-27.32-.03-40.99-.02-4.06-.36-8.12-.57-12.62 6.46 3.15 12.7 6.33 19.08 9.21 2.31 1.04 4.94 1.86 7.44 1.88 15.66.17 31.34-.39 46.97.3 7.29.32 11.32-3.08 15.11-8.14 1.28-1.71 2.75-3.26 4.54-5.36 5.31 4.74 10.56 9.17 15.49 13.92 4.4 4.25 4.36 7.3-1.18 9.75-7.43 3.29-8.19 8.54-8.01 15.65.46 18.32-.03 36.65.24 54.98.11 7.37 1.52 14.72 1.84 22.1.39 9.11-4.26 13.81-13.27 13.84-3.55.01-6.06-1.35-5.69-5.62.2-2.27.03-4.58.03-7.09-7.4 0-14.34 0-21.64 0v65.55c5.15-.94 10.78-.69 14.88-3.07 4.35-2.52 7.25-7.53 11.34-12.06 6.91 5.71 13.76 11.18 20.32 16.98.98.86 1.36 4.16.64 4.83-1.78 1.64-4.34 3.3-6.64 3.37-11.65.33-23.32.15-34.98.15-1.8 0-3.6 0-5.65 0v83.42c15.98-6.48 31.62-12.82 47.83-19.4.57 2.75 1.13 5.49 1.72 8.33-26.76 16.83-55.6 29.23-85.34 39.68-4.91 1.73-9.87 3.41-14.53 5.69-2.03 1-3.62 3.28-4.93 5.29-1.92 2.95-3.4 6.18-5.07 9.28-.67.1-1.34.2-2.01.3-5.55-10.13-11.09-20.27-16.96-30.99 6.91-1.06 12.67-1.94 19.11-2.93-.54-43.33.7-86.77-.75-130.86 6.96 1.41 14.71 2.98 22.46 4.57 1.27.26 2.81.25 3.73.98 1.38 1.1 2.96 2.63 3.24 4.19.17.96-1.71 2.96-3.04 3.39-6.48 2.15-7.99 6.36-7.91 13.02.4 31.48.18 62.98.18 94.47v5.68c7.86-1.8 15.16-3.37 22.39-5.23 1.05-.27 1.85-1.84 2.55-2.94.3-.48.06-1.3.06-1.97 0-52.15 0-104.3-.01-156.45.01-.96-.07-1.93-.14-3.28zm-24.62-10.59h63.38c0-27.73 0-55.1 0-82.38-21.32 0-42.24 0-63.38 0z"/></g></svg>