<svg enable-background="new 0 0 400 400" viewBox="0 0 400 400" xmlns="http://www.w3.org/2000/svg"><path d="m6.4 11.7c-1-.8-1.9-1.6-2.9-2.3l.6-.7c.9.7 1.9 1.4 2.9 2.2zm-2.1 8.3c.7-2.1 1.4-4.2 2-6.4.2.1.6.3 1 .4-.7 2.3-1.3 4.4-1.9 6.4zm3-12.8c-1.1-.9-2.1-1.7-2.9-2.4l.6-.7c1 .8 2 1.5 3 2.4zm1.4-1.3v-.9h10.2v.9c-.9 4.2-2.3 7.3-4.1 9.4 1.3 1.4 3.2 2.7 5.7 4-.2.2-.4.5-.7.9-2.5-1.4-4.4-2.7-5.7-4.2-1.4 1.5-3.5 3-6.1 4.4 0 0 0 0-.1-.1-.3-.4-.5-.7-.7-.8 2.7-1.4 4.7-2.8 6.2-4.2-1.8-2.2-3-5.3-3.7-9.4zm9.2 0h-7.1c.6 3.8 1.7 6.7 3.4 8.7 1.7-2 2.9-4.8 3.7-8.7z" fill="#fbfcfa"/><path d="m31.6 3.6h.9v2.3h4.1v9.1h1.7v.9h-16.6v-.9h1.7v-9.1h4.1v-2.3h.9v2.3h3.1v-2.3zm-4 13.3.6.8c-1.9.9-3.8 1.9-5.8 2.8-.2-.3-.3-.6-.5-.9 2-.9 3.9-1.8 5.7-2.7zm-3.2-10.1v3.7h3.1v-3.7zm0 4.5v3.7h3.1v-3.7zm4.1-4.5v3.7h3.1v-3.7zm0 4.5v3.7h3.1v-3.7zm9.1 9.1c-2.1-1.1-4.1-2-5.8-2.7l.5-.8c2.2.9 4.1 1.8 5.8 2.6zm-1.9-13.6h-3.1v3.7h3.1zm-3.2 4.5v3.7h3.1v-3.7z" fill="#fbfcfa"/><g fill="#010101"><path d="m151.52 242.51c.48 3.37.83 5.75 1.28 8.89-13.3 6.74-26.75 13.74-40.4 20.33-3.36 1.62-4.5 3.39-4.48 7.05.16 24.16.09 48.33.07 72.5 0 5.34.61 10.82-.35 16-.93 5.01-8.79 7.45-15.07 5.55-4.19-1.27-5.53-4.99-4.74-10.7 1.01-7.32 1.96-14.71 2.07-22.08.29-19.15.1-38.32.1-57.81-8.47 3-16.6 6.05-24.84 8.75-6.04 1.98-11.46 4.2-13.07 11.37-.39 1.74-2.46 3.1-3.75 4.63-1.44-1.33-3.33-2.4-4.25-4.02-4.65-8.2-9.05-16.54-13.78-25.29 11.96-2.33 23.12-4.33 34.19-6.73 7.94-1.73 15.8-3.91 23.61-6.16.9-.26 1.82-2.3 1.82-3.51.11-19.16.08-38.32.08-58.2-9.75 0-19.33-.06-28.91.09-.9.01-1.95 1.18-2.64 2.04-3.67 4.55-11.66 6.6-16.53 3.55-1.44-.9-2.69-3.93-2.32-5.6 5.26-23.34 10.9-46.58 16.24-69.9 1.74-7.61 2.9-15.36 4.27-22.74-7.26 0-14.83 0-22.67 0-2.08-5.02-4.3-10.39-6.63-16.02 10.75 1.37 21.15 2.69 31.96 4.06 2.97-23.24 5.84-45.62 8.83-69.04 8.03 1.62 16.1 3.22 24.16 4.89 2.71.56 5.51 1.02 8.01 2.11 1.35.59 2.9 2.38 3 3.73.09 1.29-1.31 3.53-2.52 3.93-5.67 1.89-11.51 3.29-18.25 5.13-2.27 15.22-4.71 31.62-7.26 48.69 10.43 0 20.39-.25 30.32.09 6.5.22 12.2.11 16.1-6.51 2.11-3.58 5.75-6.26 9.16-9.83 7.63 6.01 15.54 12.06 23.18 18.43 1.32 1.1 2.52 4.09 1.93 5.3-.67 1.37-3.42 2.4-5.27 2.42-23.66.16-47.33.1-71 .1-1.82 0-3.64 0-5.24 0-5.55 28.71-11.04 57.14-16.57 85.75h28.15c0-20.59 0-40.93 0-62.16 8.17 1.61 16.26 3.2 24.34 4.8 1.11.22 2.49.15 3.27.79 1.34 1.09 2.82 2.5 3.23 4.04.23.85-1.46 3.09-2.53 3.27-10.13 1.73-10.31 8.72-9.94 16.84.5 10.78.12 21.59.12 32.24 4.42 1.23 6.83-.35 9.13-3.64 3.18-4.54 7.09-8.56 11.09-13.29 9.04 7.45 20.1 12.33 27.8 21.45-2.79 4-6.09 5.04-10.24 4.98-12.33-.19-24.66-.07-37.39-.07v55.33c14.46-5.3 28.6-10.49 43.13-15.82z"/><path d="m202.15 181.33c-.06 1.17-.13 1.99-.15 2.81-.14 8.77-4.1 12.38-12.88 11.18-1.48-.2-2.89-2.07-3.98-3.45-.49-.62-.14-1.93-.14-2.93 0-48.46 0-96.93 0-145.39 0-.94.08-1.89.14-3.37 4.92 2.42 9.78 4.16 13.88 6.99 4.5 3.1 9.11 3.93 14.37 3.91 31.97-.13 63.95-.13 95.93.02 3.83.02 6.58-.99 9.03-3.87 2.69-3.16 5.74-6.02 9.33-9.73 5.65 5.2 11.09 10.19 16.5 15.22 3.65 3.39 1.88 6.16-1.13 8.68-.74.62-1.66 1.08-2.57 1.44-4.1 1.64-5.66 4.26-5.62 9.01.26 32.47.1 64.95.18 97.42.01 3.76.46 7.55.97 11.28.67 4.86-.74 8.49-5.54 10.24-2.42.88-5.03 2.16-7.42 1.92-3.16-.31-6.64-1.45-6.08-6.1.19-1.63.03-3.3.03-5.27-38.29-.01-76.34-.01-114.85-.01zm114.63-59.97c-16.45 0-32.49 0-48.38 0v49.37h48.38c0-16.52 0-32.77 0-49.37zm-.14-10.58c0-16.45 0-32.48 0-48.38-16.4 0-32.44 0-48.38 0v48.38zm-114.29 10.44v49.38h47.38c0-16.65 0-32.91 0-49.38-15.84 0-31.43 0-47.38 0zm-.02-58.97v48.38h47.44c0-16.29 0-32.21 0-48.38-15.83 0-31.42 0-47.44 0z"/><path d="m266 205.62c6.32 3.07 11.75 6.07 17.47 8.36 3.84 1.53 8.06 2.78 12.15 2.89 13.48.35 26.99-.04 40.47.24 4.04.08 6.92-1.01 9.45-4.08 2.42-2.94 5.22-5.56 8.84-9.36 5.46 5.66 10.75 10.68 15.47 16.19 3.23 3.78-.01 6.98-2.92 8.42-5.35 2.64-6.1 6.47-6.07 11.89.23 38.98-.06 77.96.28 116.93.07 7.41-5.71 11.5-12.19 11.88-3.24.19-4.98-1.34-4.97-4.69.01-3.5 0-6.99 0-10.89-19.87 0-39.58 0-60 0 0 2.43.08 5.02-.02 7.61-.24 6.5-10.38 12.28-15.52 8.48-1.66-1.23-2.25-4.63-2.36-7.08-.31-6.82-.11-13.65-.11-20.48 0-43.31 0-86.62 0-129.93.03-1.83.03-3.65.03-6.38zm18.35 84.6v52.37h21.39c0-17.65 0-34.9 0-52.37-7.19 0-14.12 0-21.39 0zm38.01 0v52.37h21.38c0-17.66 0-34.91 0-52.37-7.2 0-14.12 0-21.38 0zm-16.71-10.45c0-17.43 0-34.46 0-51.37-7.4 0-14.45 0-21.39 0v51.37zm16.7-51.54v51.37h21.4c0-17.32 0-34.23 0-51.37-7.19 0-14.12 0-21.4 0z"/><path d="m230 353.21c-18.48 0-36.41 0-55 0 0 2.67.09 5.27-.02 7.87-.26 6.47-10.4 12.14-15.61 8.43-1.49-1.06-2.2-4.01-2.27-6.13-.25-8.49-.1-16.99-.1-25.49 0-43.64 0-87.29 0-131.86 6.05 3.06 11.58 5.98 17.24 8.65 2.28 1.07 4.83 2.18 7.27 2.22 13.32.21 26.66-.07 39.98.2 4.34.09 7.37-1.21 10.37-4.32 9.02-9.39 9.14-9.27 18.36-.06l2.47 2.47c6.69 6.7 6.59 10.27-1.49 14.55-3.66 1.94-4.27 4.12-4.27 7.71.09 40.15.06 80.3.06 120.45 0 6.61-5.31 11.62-11.94 11.06-3.02-.26-5.37-1.37-5.11-5.21.24-3.32.06-6.66.06-10.54zm-19.79-10.58h19.39c0-17.74 0-35.11 0-52.35-6.67 0-12.93 0-19.39 0zm19.37-62.75c0-17.18 0-34.32 0-51.55-6.53 0-12.91 0-19.21 0v51.55zm-54.48 62.7h18.57c0-17.55 0-34.92 0-52.19-6.39 0-12.44 0-18.57 0zm.25-114.36v51.37h18.38c0-17.32 0-34.24 0-51.37-6.18 0-12.11 0-18.38 0z"/></g></svg>