<svg enable-background="new 0 0 400 400" viewBox="0 0 400 400" xmlns="http://www.w3.org/2000/svg"><path d="m6.4 11.7c-1-.8-1.9-1.6-2.9-2.3l.6-.7c.9.7 1.9 1.4 2.9 2.2zm-2.1 8.3c.7-2.1 1.4-4.2 2-6.4.2.1.6.3 1 .4-.7 2.3-1.3 4.4-1.9 6.4zm3-12.8c-1.1-.9-2.1-1.7-2.9-2.4l.6-.7c1 .8 2 1.5 3 2.4zm1.4-1.3v-.9h10.2v.9c-.9 4.2-2.3 7.3-4.1 9.4 1.3 1.4 3.2 2.7 5.7 4-.2.2-.4.5-.7.9-2.5-1.4-4.4-2.7-5.7-4.2-1.4 1.5-3.5 3-6.1 4.4 0 0 0 0-.1-.1-.3-.4-.5-.7-.7-.8 2.7-1.4 4.7-2.8 6.2-4.2-1.8-2.2-3-5.3-3.7-9.4zm9.2 0h-7.1c.6 3.8 1.7 6.7 3.4 8.7 1.7-2 2.9-4.8 3.7-8.7z" fill="#fbfcfa"/><path d="m31.6 3.6h.9v2.3h4.1v9.1h1.7v.9h-16.6v-.9h1.7v-9.1h4.1v-2.3h.9v2.3h3.1v-2.3zm-4 13.3.6.8c-1.9.9-3.8 1.9-5.8 2.8-.2-.3-.3-.6-.5-.9 2-.9 3.9-1.8 5.7-2.7zm-3.2-10.1v3.7h3.1v-3.7zm0 4.5v3.7h3.1v-3.7zm4.1-4.5v3.7h3.1v-3.7zm0 4.5v3.7h3.1v-3.7zm9.1 9.1c-2.1-1.1-4.1-2-5.8-2.7l.5-.8c2.2.9 4.1 1.8 5.8 2.6zm-1.9-13.6h-3.1v3.7h3.1zm-3.2 4.5v3.7h3.1v-3.7z" fill="#fbfcfa"/><g fill="#010101"><path d="m84.76 327.62c0-37.92 0-75.52 0-114.03-8.8.46-17.34.95-25.89 1.33-3.33.15-6.68.27-9.98-.05-1.12-.11-2.51-1.4-3.08-2.51-2-3.92-3.7-7.99-5.39-11.75 14.66 1.38 29.29 2.75 44.3 4.16 0-18.79 0-36.39 0-54.92-4.63.26-9.4.13-14.01.9-5.74.95-7.48.41-9.73-4.8-.64-1.49-1.28-2.99-1.88-4.5-.54-1.36-1.02-2.75-1.94-5.24-7.31 7.85-14.28 15.34-21.4 22.98-2.77-2.76-5.21-5.19-7.7-7.68 15.2-15.65 25.9-34.26 37.38-52.36 13.65-21.53 19.08-45.86 24.5-70.21.61-2.72 1.41-2.91 4-2.1 8.37 2.62 16.95 4.6 25.29 7.32 1.91.62 3.18 3.2 4.75 4.87-1.44 1.31-2.68 3.29-4.37 3.81-3.82 1.17-7.87 1.62-12.37 2.47 12.66 10.44 22.79 22.51 32.43 35.28 6.02 7.98 10.8 15.87 11.85 25.69.32 3.04-.4 6.49-1.65 9.3-.72 1.61-3.48 3.18-5.31 3.17-1.79-.01-4.41-1.63-5.23-3.26-4.44-8.91-7.87-18.34-12.7-27.01-7.11-12.78-15.1-25.08-22.8-37.71-6.79 15.5-12.27 30.39-19.66 44.25-7.48 14.03-16.85 27.05-25.78 41.11 8.02.93 16.36 1.98 24.71 2.85 4.75.49 9.53.96 14.3.9 1.87-.02 4.24-1.03 5.48-2.41 4.36-4.88 8.33-10.1 12.6-15.39 8.82 7.11 17.6 14.19 26.35 21.25-.44 5.33-3.8 6.7-8.33 6.69-10.3-.03-20.6-.01-31.2-.01v53.43c8.33 3.4 10.59-3.92 14.51-8.02 2.7-2.82 4.91-6.12 7.38-9.26 7.55 6.04 15.09 11.78 22.22 17.99 1.82 1.59 2.37 4.64 3.5 7.02-2.3.95-4.59 2.66-6.9 2.71-13.46.26-26.93.13-40.71.13v106.32c14.46-3.79 27.35-10.58 40.7-17.31 1.06 2.94 2.02 5.63 3.12 8.68-10.31 6.12-20.28 12.67-30.81 18.14-16.93 8.78-34.3 16.69-51.29 25.36-2.55 1.3-4.23 4.55-5.94 7.15-1.64 2.5-2.78 5.32-4.15 7.99-.66.07-1.32.14-1.98.21-5.54-10.17-11.09-20.34-16.64-30.53 17.03-4.28 33.11-8.31 49.45-12.4z"/><path d="m297.36 339.94c-44.24 0-88.56 0-133.75 0-.84-1.59-2.32-4.12-3.54-6.76-1.15-2.48-2.03-5.09-2.83-7.12 15.24 1.26 30.56 2.53 46.36 3.84 0-32.47 0-63.85 0-95.38-4.25.48-8.58 1.28-12.91 1.32-1.67.02-4.09-1.28-4.9-2.69-2.25-3.93-3.83-8.24-5.88-12.88 4.53.62 8.73 1.29 12.96 1.77 6.36.72 12.72 1.83 19.09 1.87 29.49.2 58.99.05 88.48.14 3.3.01 5.61-.48 7.82-3.54 3.16-4.38 7.36-8 11.24-12.07 7.54 5.8 15.33 11.64 22.9 17.78 1.09.89 1.87 3.56 1.32 4.71-.67 1.4-2.85 2.87-4.43 2.93-8.15.29-16.32.13-24.88.13v94.64c7.22.92 13.88 1.39 18.49-6.71 2.71-4.76 7.35-8.43 11.61-13.14 6.68 5.07 13.29 10.01 19.8 15.06 2.73 2.12 5.43 4.33 7.78 6.84 1.14 1.22 2.4 3.72 1.87 4.78-.79 1.58-3.09 3.34-4.78 3.38-12.49.28-24.99.15-37.49.15-5.65 0-11.3 0-17.69 0 0 3.48.1 6.74-.02 9.99-.26 6.93-.43 13.87-1.05 20.76-.49 5.41-4.39 7.7-11.3 7.25-4.99-.33-6.75-2.36-6.58-8.26.14-4.94.57-9.87.98-14.8.39-4.86.92-9.72 1.33-13.99zm-77.14-81.29h77.37c0-8.41 0-16.46 0-24.38-25.99 0-51.57 0-77.37 0zm77.6 10.74c-26.24 0-51.93 0-77.55 0v24.3h77.55c0-8.22 0-16.15 0-24.3zm-.05 34.96c-26.1 0-51.8 0-77.37 0v24.39h77.37c0-8.19 0-16.11 0-24.39z"/><path d="m182.2 182c-4.58 18.34-8.52 36.84-23.07 50.33-5.66-4.79-5.35-4.67-2.19-12.45 4.86-11.97 8.65-24.25 9.08-37.34.57-17.19 1.41-34.38 1.9-51.57.11-4.06-.72-8.14-1.18-12.98 5.58 3.15 10.44 6.07 15.47 8.66 2.23 1.14 4.81 2.22 7.25 2.26 14.82.21 29.65-.08 44.47.21 4.68.09 8.08-1.08 11.25-4.63 4.88-5.46 5.24-5.41 10.89-.84 3.27 2.65 6.2 5.77 9.01 8.93 3.37 3.78 1.72 6.92-2.33 8.37-5.21 1.87-6.28 5.26-5.84 10.27.42 4.79.17 9.66.06 14.48-.08 3.37-.06 6.41 2.9 9 1.1.97 1.52 4.11.77 5.38-.73 1.23-3.36 1.85-5.16 1.86-22.49.12-44.97.08-67.46.08-1.82-.02-3.64-.02-5.82-.02zm38.01-10.01c6.07 0 11.72.21 17.32-.17 1.23-.08 3.09-2.15 3.31-3.52.5-3.08.16-6.3.16-9.46 0-6.24 0-12.48 0-18.57-7.41 0-14 0-20.79 0zm-16.37-31.98c-5.8 0-11.09-.16-16.37.12-1.19.06-3.26 1.62-3.29 2.53-.24 9.65-.15 19.31-.15 29.02h19.8c.01-10.57.01-20.8.01-31.67z"/><path d="m340.36 123.4c6.62 4.44 13.36 8.7 19.79 13.39 4.3 3.13 3.73 7.14-.99 9.57-1.73.89-3.6 2.21-5.37 2.16-6.19-.14-7.91 4.34-10.54 8.6-4.62 7.5-9.95 14.56-15.35 22.34 12.37 8.18 27.15 11.74 42.92 12.83.24 3.94 1.02 6.8-4.6 8.47-5.28 1.57-9.65 6.21-15.16 10-4.58-2.05-10.46-4.09-15.72-7.19-6.16-3.63-11.93-8-17.56-12.44-2.29-1.81-3.38-2.29-6.24-.55-9.57 5.81-19.34 11.36-29.42 16.22-5.34 2.57-11.4 3.92-17.28 4.9-1.88.31-4.25-2.33-6.23-4.41 17.45-7.2 33.58-15.47 46.98-27.83-7.36-11.47-14.78-23.04-22.37-34.86-3.19 2.04-5.42-.1-7.04-3.98-1.25-3-2.78-5.88-4.34-9.13 8.24.67 16.1 1.56 23.99 1.88 10.62.43 21.3 1.05 31.85.25 3.35-.25 6.38-4.77 9.54-7.35.89-.74 1.7-1.55 3.14-2.87zm-49.23 20.7c7.84 9.46 14.78 17.85 22.67 27.37 6.32-9.61 11.91-18.1 18.01-27.37-14.03 0-26.48 0-40.68 0z"/><path d="m166.27 71.75c-1.97-4.23-4.23-9.08-6.5-13.96 14.78 1.35 29.18 2.67 43.75 4 0-11.67 0-22.14 0-33.29 9.47 4.41 21.08 2.09 29.93 11.36-3.9 1.73-6.53 3.47-9.39 4-3.41.64-4.28 2.21-4.1 5.35.21 3.65.05 7.32.05 11.73 5.72 0 11.88 1.48 16.72-.42 4.88-1.92 8.43-7.19 12.8-11.2 6.26 4.55 12.72 9.13 19 13.95.8.62 1.32 2.93.81 3.66-1.13 1.62-2.88 3.7-4.56 3.87-4.95.51-9.98.19-14.97.19-9.66 0-19.32 0-29.39 0v27.35c11.19 4.31 15.36-5.74 21.89-11.02 5.4 3.95 10.81 7.81 16.1 11.83 2.27 1.72 5.49 3.69 3.39 6.96-1.05 1.63-4.12 2.74-6.3 2.76-18.32.21-36.65 0-54.97.18-7.4.07-14.8.79-22.46 1.23-2.2-4.93-4.44-9.95-6.73-15.07 10.82.79 21.31 1.56 32.27 2.36 0-9.12 0-17.5 0-25.83-12.05.01-24.2.01-37.34.01z"/><path d="m279.48 38.21c5.74 3.64 11.47 7.23 17.14 10.9 5.61 3.62 17.27 2.61 21.84-2.11 3.32-3.44 6.46-7.06 10.06-11.03 7.31 5.74 14.7 11.31 21.71 17.31.89.76.6 4.33-.41 5.58-1.44 1.78-3.99 3.54-6.17 3.68-5.72.37-5.84 3.75-5.71 8.05.21 6.49-.03 13 .11 19.5.04 1.88.49 3.83 1.16 5.6 2.86 7.54 9.29 7.8 15.82 7.19 1.54-.14 3.18-1.58 4.34-2.83 2.64-2.83 5.37-2.28 8.54-1.12 4.38 1.62 5.3 4.81 5.13 8.99-.14 3.56-1.89 5.84-5.2 6.09-8.44.63-16.91 1.02-25.38 1.14-4.01.06-7.87-.07-11.46-3.31-4.22-3.81-5.67-8.31-5.95-13.4-.54-10.09-.74-20.19-1.06-30.29-.07-2.15-.01-4.29-.01-6.79-9.32 0-18.38 0-26.79 0-1.73 11.28-3.19 22.45-5.2 33.52-2.08 11.48-9.2 19.85-17.74 27.13-5.02-2.24-4.83-4.57-2.8-9.61 4.54-11.26 8.91-22.76 8.67-35.43-.14-7.35 1.63-14.73 1.64-22.09.03-5.46-1.43-10.9-2.28-16.67z"/><path d="m111.35 298.05c-7.37-5.11-2.54-10.58-1.02-15.5 3.82-12.4 8.43-24.55 12.27-36.95 1.29-4.16 1.18-8.75 1.86-14.38 9.39 4.87 18.56 9.29 27.33 14.38 2.6 1.51 1.75 4.77-.7 6.7-.97.77-2.45 1.54-3.55 1.38-8.6-1.29-10.85 5.15-13.4 10.95-5.53 12.59-13.37 23.51-22.79 33.42z"/><path d="m63.65 314c-4.96.05-7.13-2.47-7.7-8.05-.79-7.8-1.2-15.74-3.08-23.3-3.09-12.42-7.22-24.59-10.92-36.86-.33-1.09-1.15-2.19-1.03-3.2.17-1.48.97-2.89 1.51-4.32 1.19.55 2.85.78 3.49 1.71 9.15 13.34 16.73 27.48 22.18 42.76 2.9 8.12 4.43 16.24 2.92 24.81-.68 3.77-3.62 6.41-7.37 6.45z"/></g></svg>