<svg enable-background="new 0 0 400 400" viewBox="0 0 400 400" xmlns="http://www.w3.org/2000/svg"><g fill="#010104"><path d="m113.41 168.26c-8.11 0-15.89 0-24.16 0-.7 8.88-1.46 17.59-2.06 26.33-2.72 39.48-9.45 78.23-24.62 114.89-6.3 15.22-15.82 29.12-24.01 43.54-.66 1.16-2.45 1.68-3.71 2.5-.32-.41-.64-.81-.96-1.22 2.98-7.35 6.15-14.63 8.89-22.07 11.5-31.19 17.97-63.44 21.41-96.49 4.62-44.36 1.81-88.79 3.03-133.69-10.92 0-21.33 0-31.97 0 0-2.45 0-4.39 0-6.89h43.23c0-20.96 0-41.37 0-61.7 8.16-1.04 22.48 2.43 27.24 6.74-6.34 1.75-5.34 6.69-5.32 11.33.06 12.5.02 25 .02 37.5v5.35c7.44 1.53 13.33.76 18.14-5.36 3.57-4.54 8.17-8.26 12.76-12.78 7.22 5.99 14.63 11.82 21.56 18.18 1.41 1.29 1.02 4.55 1.56 7.43-28.62 0-56.56 0-85.87 0 9.22 3.63 18.65 1.52 26.55 8.08-5.85 1.61-5.16 5.87-5.14 9.98.06 13.45.02 26.9.02 40.97 7.55 0 15.35.42 23.05-.24 2.54-.22 4.87-3.21 7.23-5.02 1.57-1.19 3.04-2.52 4.8-4 6.68 5.43 13.21 10.73 19.65 15.96-.31.71-.37 1.16-.57 1.25-6.66 2.71-7.7 7.3-7.48 14.47.78 25.97.98 51.99.1 77.95-.71 21.04-1.89 42.17-7.71 62.68-5.11 18-19.39 29.56-36.9 28.97 0-3.38 0-6.79 0-10.69-7.59-1.69-14.76-3.62-22.06-4.79-4.03-.64-5.28-2.16-4-6.41 7.8 0 15.77.03 23.74-.01 10.59-.05 15-2.41 17.34-12.72 3.04-13.39 5.83-27.09 6.35-40.75 1.14-30.27.85-60.6.98-90.9.03-5.95-.69-11.89-1.11-18.37z"/><path d="m183.95 89.4c6.74 4.79 16.1 4.52 21.32 12.69-9.02 1.12-7.97 9.13-10.97 14.61 11.35 2.97 17.65 1.09 29.27-8.67 6.52 5.4 13.11 10.86 20.12 16.66-1.56 1.05-2.66 2.08-3.97 2.62-7.14 2.93-12 8.25-16.58 14.28-4.92 6.47-10.7 12.29-16.1 18.39-1.05 1.19-2.07 2.41-3.88 4.53 8.26 0 15.38.3 22.45-.2 1.83-.13 3.55-2.69 5.19-4.28 1.41-1.37 2.64-2.93 4.31-4.82 5.85 5.54 11.46 10.86 17.04 16.15-.4.56-.55 1.01-.79 1.07-8.52 2-8.37 8.28-8.29 15.27.28 25.5.04 51 .2 76.5.02 3.68-.96 5.79-4.48 7.15-3.82 1.49-7.4 3.61-11.64 5.73-.14-2.84-.26-5.2-.4-8.03-14.35 0-28.48-.32-42.59.22-3.5.13-6.89 3.06-10.33 4.7-2.5 1.19-5.01 2.37-8.23 3.9 0-35.07 0-69.32 0-103.57-.36-.19-.72-.37-1.08-.56-1.66 1.89-3.2 3.9-5.02 5.61-1.03.97-2.51 1.44-3.79 2.14-.15-1.47-.77-3.08-.37-4.38 3.12-10.33 6.58-20.57 9.67-30.91 4.97-16.65 9.73-33.37 14.57-50.06-.39-.21-.78-.41-1.17-.62-.75.64-1.5 1.27-2.25 1.91-9.71 8.29-19.39 16.62-29.18 24.82-.93.78-2.54.75-3.83 1.09.31-1.41.26-3.06 1-4.21 11.6-18.03 23.93-35.63 34.74-54.11 6.5-11.11 10.66-23.57 15.87-35.43.25-.56.53-1.11 1.03-2.18 7.37 5.65 16.87 7.62 22.79 16.24-10.44 1.52-10.92 11.11-15.47 17.23-2.24 3.02-3.83 6.52-6.04 10.39 2.19.12 3.79.29 5.39.29 39.67.01 79.33-.02 119 .07 3.23.01 5.58-.72 7.72-3.36 3.86-4.76 8.16-9.16 12.54-14 5.82 5.35 11.66 10.3 16.91 15.81 1.51 1.58 1.32 4.78 2.1 8.08-2.83 0-4.77 0-6.71 0-50.5 0-101 .32-151.49-.28-9.65-.11-14.74 3.64-18.58 11.52zm28.99 35.6c-6.84 0-12.65.2-18.43-.08-2.9-.14-4.02 1.12-5.08 3.5-2.9 6.5-6.03 12.9-9.15 19.3-1.92 3.94-4 7.81-6.05 11.8 1.47.79 2.59 1.2 3.49 1.9 5.21 4.05 11.32 3.33 17.24 3.13 8.79-.28 6.64-8.87 9.81-13.44.82-1.18 1.08-2.76 1.52-4.19 2.17-7.08 4.3-14.17 6.65-21.92zm-.6 95.46v40.75h14.28c0-13.77 0-27.16 0-40.75-4.89 0-9.45 0-14.28 0zm-28.88-.01c0 13.17-.03 26.07.09 38.97.01.72 1.34 1.99 2.1 2.03 3.87.21 7.77.1 11.53.1 0-14.3 0-27.67 0-41.09-4.64-.01-8.89-.01-13.72-.01zm28.85-7.88h14.22c0-13.7 0-27.04 0-40.23-4.99 0-9.56 0-14.22 0zm-28.59-40.36v40.35h13.57c0-13.63 0-26.88 0-40.35-4.58 0-8.87 0-13.57 0z"/><path d="m263.51 182.4c-2.35 3.12-4.6 6.32-7.11 9.3-.91 1.08-2.45 1.62-3.7 2.41-.08-1.49-.59-3.1-.18-4.44 4.74-15.57 10.29-30.93 14.27-46.69 4.31-17.02 7.18-34.39 10.69-51.61.22-1.1.52-2.19.91-3.77 8.45 4.19 18.31 4.47 25.76 12.11-9.25 1.45-7.61 9.16-10.05 14.75 10.64 1.82 20.17 1.23 26.61-9.06 7.29 5.95 13.92 11.35 20.77 16.94-1.28.84-2.04 1.58-2.95 1.9-8.59 3-12.48 9.86-15.82 17.76-3.74 8.84-8.6 17.21-13.33 26.46 11.77-.41 24.17 3.91 32.16-9.49 6.95 5.82 13.28 11.12 19.65 16.46-.4.61-.57 1.22-.94 1.39-7.27 3.29-8.41 9.01-8.27 16.53.49 25.99.11 51.99.28 77.99.02 3.37-1.08 5.12-3.98 6.46-5.26 2.43-10.39 5.12-16.24 8.03 0-3.68 0-6.74 0-10.42-4.63 0-8.76 0-12.88 0-5.33 0-10.69.35-15.99-.07-12.57-1.01-24.46.56-35.18 7.79-.76.51-1.76.64-3.41 1.21 0-34.23 0-67.92 0-101.61-.36-.11-.71-.22-1.07-.33zm11.69-18.22c-.04-.03.3.32.69.6 7.54 5.39 16.23 3.37 24.55 3.88 3.82.24 4.86-1.56 5.16-4.83.65-7.09 1.46-14.16 2.2-21.24.69-6.66 1.38-13.31 2.12-20.41-5.4 0-10.04.22-14.65-.08-2.99-.19-3.94 1.25-4.88 3.66-4.9 12.64-9.95 25.21-15.19 38.42zm23.2 104.05c0-14.55 0-28.73 0-42.74-5.33 0-10.22 0-15.01 0v42.74zm.23-91.88c-5.44 0-10.34 0-15.2 0v41.07h15.2c0-13.84 0-27.28 0-41.07zm33.15 49.16c-4.71 0-9.38 0-14.22 0v42.69h14.22c0-14.34 0-28.29 0-42.69zm-.23-7.94c0-14.18 0-27.75 0-41.17-4.96 0-9.52 0-13.97 0v41.17z"/><path d="m177.28 321.02c-1.19 7.67-2.11 17.27-4.44 26.5-.78 3.1-4.78 6.52-8.03 7.58-4.45 1.46-9.81.17-11.34-5.17-.99-3.44-1.32-8.47.5-11.1 9.41-13.55 12.15-29.26 16-44.66.6-2.4 1.52-4.73 2.29-7.09.66 2.25 1.64 4.45 1.93 6.75 1.08 8.37 1.93 16.77 3.09 27.19z"/><path d="m367.03 343.15c.11 6.09-5.84 13.26-10.5 12.75-7.23-.79-11.39-6.21-11.33-13.03.14-13.84-2.03-27.39-6.03-40.65-.37-1.22-.11-2.62-.14-3.94 1.16.63 2.64.99 3.42 1.93 10.13 12.19 19.67 24.74 23.78 40.47.26.97.61 1.9.8 2.47z"/><path d="m276.36 329.72c-1.15 5.51-2.3 13.05-4.37 20.34-1.51 5.33-7.7 7.22-13.25 6.33-7.18-1.16-9.47-12.24-4.69-16.84 8.64-8.31 10.67-19.19 13.78-29.75.93-3.17 1.27-6.5 2.08-9.71.22-.87 1.19-1.55 1.81-2.32.5.72 1.36 1.41 1.45 2.18 1.06 9.21 2 18.45 3.19 29.77z"/><path d="m313.01 299.35c11.96 10.83 18.93 23.89 22.42 38.57.87 3.66-.19 9.02-2.5 11.87-3.02 3.73-8.23 4.46-13.02 1.41-4.11-2.63-5-6.61-5.1-11.06-.26-11.23-.54-22.45-.91-33.68-.07-2.38-.58-4.74-.89-7.11z"/><path d="m307.25 342.4c-1.19 2.04-2.46 6.09-5.19 8.44-3.8 3.27-9.11 3.22-12.6-.53-2.28-2.45-4.31-6.79-3.82-9.87 2.01-12.64 3.89-25.19 2.35-38.02-.1-.8.53-1.68.82-2.53.81.29 1.98.34 2.38.92 8.28 12.06 13.79 25.24 16.06 41.59z"/><path d="m186.97 290.31c9.31 14.33 15.52 28.51 17.93 44.19.68 4.41-4.3 10-9.83 11.33-3.98.96-9.66-2.21-10.71-6.58-.7-2.89-.94-6.18-.31-9.06 2.56-11.79 3.25-23.61 1.87-35.59-.12-1.06.52-2.22 1.05-4.29z"/><path d="m208.25 327.43c1.56-11.72.05-22.75-4.32-33.35-.29-.69.07-1.65.12-2.49.98.2 2.18.1 2.9.64 11.64 8.82 19.21 20.46 23.49 34.34 1.4 4.54-1.94 10.41-7.27 12.81-4.1 1.85-9.31-.04-11.66-4.45-1.27-2.4-2.18-5-3.26-7.5z"/><path d="m225.27 286.84c13.51 6.46 22.49 15.62 29.03 27.45 2.42 4.39 1.74 8.53-.57 12.02-3.13 4.74-8.3 6.13-13.06 3.53-3.68-2-6.64-5.12-6.76-10.18-.23-10.25-3.44-19.78-7.95-28.92-.48-.98-.41-2.24-.69-3.9z"/></g><path d="m6.4 11.7c-1-.8-1.9-1.6-2.9-2.3l.6-.7c.9.7 1.9 1.4 2.9 2.2zm-2.1 8.3c.7-2.1 1.4-4.2 2-6.4.2.1.6.3 1 .4-.7 2.3-1.3 4.4-1.9 6.4zm3-12.8c-1.1-.9-2.1-1.7-2.9-2.4l.6-.7c1 .8 2 1.5 3 2.4zm1.4-1.3v-.9h10.2v.9c-.9 4.2-2.3 7.3-4.1 9.4 1.3 1.4 3.2 2.7 5.7 4-.2.2-.4.5-.7.9-2.5-1.4-4.4-2.7-5.7-4.2-1.4 1.5-3.5 3-6.1 4.4 0 0 0 0-.1-.1-.3-.4-.5-.7-.7-.8 2.7-1.3 4.7-2.8 6.2-4.2-1.8-2.2-3-5.3-3.7-9.4zm9.2 0h-7.1c.6 3.8 1.7 6.7 3.4 8.7 1.7-2 2.9-4.8 3.7-8.7z" fill="#fbfafa"/><path d="m31.6 3.6h.9v2.3h4.1v9.1h1.7v.9h-16.6v-.9h1.7v-9.1h4.1v-2.3h.9v2.3h3.1v-2.3zm-4 13.3.6.8c-1.9.9-3.8 1.9-5.8 2.8-.2-.3-.3-.6-.5-.9 2-.9 3.9-1.8 5.7-2.7zm-3.2-10.1v3.7h3.1v-3.7zm0 4.5v3.7h3.1v-3.7zm4.1-4.5v3.7h3.1v-3.7zm0 4.5v3.7h3.1v-3.7zm9.1 9.1c-2.1-1.1-4.1-2-5.8-2.7l.5-.8c2.2.9 4.1 1.8 5.8 2.6zm-1.9-13.7h-3.1v3.7h3.1v-3.6zm-3.2 4.6v3.7h3.1v-3.7z" fill="#fbfafa"/></svg>