<svg enable-background="new 0 0 400 400" viewBox="0 0 400 400" xmlns="http://www.w3.org/2000/svg"><g fill="#010104"><path d="m344.56 304.93c-16.27-12.61-27.47-29.07-35.48-47.56-5.78-13.35-10.19-27.32-14.78-41.15-1.01-3.03-2.11-3.91-5.08-3.87-9.83.14-19.66.18-29.49-.02-3.02-.06-4.55 1.03-5.51 3.75-8.89 25.27-22.92 47.7-39.66 68.28-9.18 11.28-20.28 21.01-30.61 31.34-.81.81-2.44.81-3.69 1.18.34-1.33.38-2.84 1.07-3.95 9.45-15.28 19.96-30 28.25-45.87 8.43-16.13 14.72-33.39 21.88-50.18.49-1.15.45-2.52.75-4.35-15.49 0-30.57 0-46.01 0 0-2.6 0-4.68 0-7.31h48.38c0-11.24 0-21.95 0-33.16-7.84 0-15.59 0-23.65 0 0-2.54 0-4.58 0-7.14h23.73c0-10.61 0-20.7 0-31.3-8.97 0-17.92 0-27.25 0 0-2.38 0-4.28 0-6.89h27.45c0-12.61 0-24.52 0-37.29 9.47 2.67 19.25 1.28 28.14 7.77-5.42 1.63-5.82 5.08-5.65 9.16.26 6.46.07 12.94.07 19.8h24.19c0-12.1 0-24 0-36.84 9.35 3.07 19.1 1.26 27.66 7.92-5.72 1.54-5.38 5.36-5.29 9.27.15 6.47.04 12.94.04 19.43 10.03 3.26 10.57-6.67 15.98-10.63 3.37 5.71 12.47 8.01 9.92 17.99-8.43 0-16.86 0-25.58 0v31.26c3.89 1.39 4.85-1.92 6.54-3.98 1.78-2.18 3.47-4.44 5.67-7.28 4.01 6.12 12.96 8.65 10.41 18.65-7.49 0-14.93 0-22.64 0v32.54c6.12 1.43 11.04.5 15.16-4.62 3.74-4.65 8.27-8.66 12.82-13.34 7.45 6.07 14.8 11.7 21.63 17.91 1.48 1.34 1.11 4.73 1.75 8-19.85 0-38.72 0-58.67 0 19.75 28.94 35.41 59.81 68.15 76.42-7.49 5.84-14.02 10.94-20.6 16.06zm-63.27-100.14c0-10.93 0-21.64 0-32.47-8.01 0-15.71 0-23.49 0v32.47zm-23.47-71.18v31.05h23.34c0-10.47 0-20.66 0-31.05-7.89 0-15.34 0-23.34 0z"/><path d="m95.35 130.77c6.31 6.03 16.4 7.92 21.14 18.41-8.47-2.06-11.17 4.27-15.48 8.27-6.78 6.3-13.81 12.33-20.78 18.51 4.34 2.5 8.93 5.51 13.84 7.88 5.37 2.59 7.05 7.39 8.72 14.26 9.3-14.43 17.79-27.62 26.55-41.2 6.08 5.92 15.48 8.64 20.54 18.8-7.25-2.37-9.31 2.44-12.17 6.21-12.13 16.01-26.29 30.03-41.89 42.63-1 .81-1.96 1.67-3.88 3.3 18.4-1.14 35.66-2.21 53.18-3.3-2.65-7.99-8-14.95-10.51-23.04 16.27 9.26 29.23 21.55 38.6 37.2 1.81 3.03 2.11 8.25.81 11.56-1.79 4.56-6.99 6.85-11.68 4.86-3.36-1.43-6.55-4.8-8.29-8.11-2.57-4.9-3.77-10.52-5.56-15.84-12.11 3.15-23.57 6.38-35.15 9.09-17.6 4.12-35.25 8.03-52.95 11.7-4.55.94-8.1 2.4-9.36 7.99-7.86-7.67-7.43-17.73-11.68-26.52 11.28-1.23 21.65-2.22 31.97-3.58 2.21-.29 4.75-1.47 6.25-3.07 6.35-6.77 12.37-13.85 18.87-21.22-3.04 0-5.73.75-7.57-.17-2.93-1.47-5.95-3.61-7.78-6.27-8.24-11.89-18.37-21.81-31.18-31.59 2.5-.3 3.94-.9 5.09-.55 6.32 1.95 12.57 4.14 19.91 6.61 6.74-14.11 13.48-28.24 20.44-42.82z"/><path d="m102.65 318.35c-12.03-5.65-22.96-10.8-33.92-15.92-5.11-2.39-10.3-4.62-15.36-7.12-.9-.44-1.35-1.8-2.01-2.73 1.08-.3 2.22-1 3.24-.85 18.76 2.82 37.05 7.45 54.82 14.13 1.26.47 3.57.54 4.26-.22 8.3-9.2 14.72-19.61 19.82-31.93-29.14 0-57.62 0-86.49 0 0-2.79 0-4.86 0-7.7h5.12c25.65 0 51.31-.15 76.96.13 5.23.06 9.31-1.16 12.87-4.87 1.58-1.65 3.52-2.96 5.38-4.5 6.75 5.62 13.26 11.03 19.81 16.48-.49.6-.71 1.17-1.09 1.31-9.37 3.54-14.74 10.78-19.54 19.24-4.21 7.43-10.06 13.94-14.91 20.49 9.93 5.98 20.07 11.97 30.07 18.19 3.99 2.48 6.41 6.37 5.84 11.17-1.34 11.31-12.01 11.86-19.69 5.91-9.19-7.12-18.69-13.84-27.94-20.88-2.15-1.64-3.71-1.38-5.67.13-22.82 17.55-49.12 25.86-77.35 28.96-1.2.13-2.52-.8-3.78-1.23 1-.89 1.85-2.21 3.02-2.6 17.36-5.93 34.03-13.35 49.5-23.25 5.56-3.58 10.73-7.75 17.04-12.34z"/><path d="m205.07 79.62c0 8.88.49 17.37-.13 25.79-.72 9.9-1.88 19.85-3.96 29.54-.68 3.19-4.3 6.94-7.46 8.2-9.46 3.77-16.14-6.36-13.25-13.57 10.08-25.18 12.99-51.69 17.2-79.04.87 1.19 2.25 2.28 2.53 3.59 1.23 5.67 2.14 11.4 3.22 17.45h54.47c0-15.38 0-30.93 0-47.27 9.58 2.28 19.11 1.37 28.24 7.5-7.45 1.72-5.85 6.97-5.87 11.55-.03 9.3-.01 18.6-.01 28.59h5.67c14.33 0 28.66-.29 42.98.14 5.93.18 10.68-1.16 14.68-5.46 1.24-1.33 2.75-2.41 4.56-3.97 6.75 5.49 13.52 11 20.53 16.7-1.19.86-1.89 1.65-2.76 1.95-8.01 2.78-11.02 9.23-13.86 16.65-4.38 11.46-10.01 22.45-15.2 33.6-.52 1.11-1.67 1.93-2.53 2.88-.5-.2-1-.4-1.49-.6 1.43-17.92 2.85-35.84 4.31-54.21-44.27-.01-88.28-.01-131.87-.01z"/><path d="m51.85 56.39c1.42.42 2.94.61 4.2 1.29 7.65 4.12 14.9 2.88 22.71-.24 23.42-9.36 47.06-18.16 71.09-27.36 2.97 7.79 14.96 9.86 16.53 20.95-5.58-3.69-10.42-.99-15.37.68-23.03 7.77-46.6 13.07-70.81 15.45-6.69.66-8.84 2.79-10.86 9.43-6.13 20.23-12.99 40.16-25.93 57.32-1.6 2.12-3.26 4.23-5.09 6.15-.9.94-2.26 1.44-3.42 2.14-.1-1.31-.53-2.7-.24-3.92 3.85-16.12 8.11-32.16 11.63-48.35 2.35-10.83 3.67-21.88 5.56-33.54z"/><path d="m329.21 291.79c-3.75 3.21-7.3 6.69-11.29 9.57-19.65 14.25-39.38 28.4-59.18 42.44-3.88 2.75-8.15 4.91-6.38 10.99-6.68-2.29-11.37-7.15-20.01-20.45 20.49-9.89 40.92-19.82 61.42-29.61 10.04-4.79 20.17-9.38 30.32-13.92 1.33-.6 3.03-.39 4.55-.56.2.51.39 1.02.57 1.54z"/><path d="m137.21 63.86c11.39 10.96 20.85 21.34 27.78 33.75 3.39 6.07 6.39 12.37 9.28 18.69 2.03 4.43.49 10.45-2.43 13.22-7.27 6.91-16.51.9-17.73-6.46-3.09-18.65-9.31-36.24-16.46-53.59-.49-1.22-.24-2.76-.44-5.61z"/><path d="m246.69 239.02c18.87 3.73 33.05 13.16 44.29 27.17 3.61 4.51 1.79 12.8-3.02 15.71-5.27 3.18-13.17.37-16.13-6.05-5.76-12.49-13.06-23.81-23.52-32.94-.81-.7-.94-2.18-1.62-3.89z"/><path d="m93.49 74.13c12.74 11.49 20.83 25.94 26.02 42.09 1.56 4.84-4.51 12.56-9.51 13.02-5.87.54-11.52-4.91-12.12-11.07-1.19-12.17-2.64-24.32-4.1-36.47-.29-2.43-1.12-4.8-1.7-7.2.47-.12.94-.25 1.41-.37z"/></g><path d="m6.4 11.7c-1-.8-1.9-1.6-2.9-2.3l.6-.7c.9.7 1.9 1.4 2.9 2.2zm-2.1 8.3c.7-2.1 1.4-4.2 2-6.4.2.1.6.3 1 .4-.7 2.3-1.3 4.4-1.9 6.4zm3-12.8c-1.1-.9-2.1-1.7-2.9-2.4l.6-.7c1 .8 2 1.5 3 2.4zm1.4-1.3v-.9h10.2v.9c-.9 4.2-2.3 7.3-4.1 9.4 1.3 1.4 3.2 2.7 5.7 4-.2.2-.4.5-.7.9-2.5-1.4-4.4-2.7-5.7-4.2-1.4 1.5-3.5 3-6.1 4.4 0 0 0 0-.1-.1-.3-.4-.5-.7-.7-.8 2.7-1.3 4.7-2.8 6.2-4.2-1.8-2.2-3-5.3-3.7-9.4zm9.2 0h-7.1c.6 3.8 1.7 6.7 3.4 8.7 1.7-2 2.9-4.8 3.7-8.7z" fill="#fbfafa"/><path d="m31.6 3.6h.9v2.3h4.1v9.1h1.7v.9h-16.6v-.9h1.7v-9.1h4.1v-2.3h.9v2.3h3.1v-2.3zm-4 13.3.6.8c-1.9.9-3.8 1.9-5.8 2.8-.2-.3-.3-.6-.5-.9 2-.9 3.9-1.8 5.7-2.7zm-3.2-10.1v3.7h3.1v-3.7zm0 4.5v3.7h3.1v-3.7zm4.1-4.5v3.7h3.1v-3.7zm0 4.5v3.7h3.1v-3.7zm9.1 9.1c-2.1-1.1-4.1-2-5.8-2.7l.5-.8c2.2.9 4.1 1.8 5.8 2.6zm-1.9-13.7h-3.1v3.7h3.1v-3.6zm-3.2 4.6v3.7h3.1v-3.7z" fill="#fbfafa"/></svg>