<svg enable-background="new 0 0 400 400" viewBox="0 0 400 400" xmlns="http://www.w3.org/2000/svg"><g fill="#010104"><path d="m332.55 195.61c6.84 5.7 13.35 11.12 19.83 16.52-.3.51-.39.89-.62 1.01-7.57 3.88-9.06 10.19-8.52 18.2.68 10.12.32 20.32.02 30.47-.05 1.81-1.58 4.28-3.16 5.2-5.69 3.33-11.7 6.12-18.39 9.53 0-5.18 0-9.57 0-14.24-79.96 0-159.32 0-239.08 0 .9 4.89-2.26 6.63-5.93 8.28-5.13 2.3-10.09 4.96-15.7 7.76 0-28.15 0-55.66 0-84 1.98.91 3.8 1.49 5.34 2.51 10.56 6.96 22.1 8.35 34.61 8.28 70.63-.4 141.27-.27 211.9-.06 6.1.02 10.99-1.16 15.07-5.7 1.2-1.34 2.81-2.31 4.63-3.76zm-249.91 58.56h64.58c0-14.14 0-27.86 0-41.6-21.7 0-43.03 0-64.58 0zm174.14-41.78v41.78h64.45c0-14.13 0-27.85 0-41.78-21.6 0-42.83 0-64.45 0zm-22.93.14c-21.47 0-42.5 0-63.56 0v41.7h63.56c0-13.98 0-27.61 0-41.7z"/><path d="m82.45 93.82c1.03 4.85-1.93 6.47-5.26 8.02-5.25 2.44-10.4 5.1-16.18 7.96 0-28.17 0-55.69 0-84.02 5.61 2.87 10.86 5.87 16.38 8.25 3.39 1.46 7.19 2.77 10.81 2.78 74.79.16 149.58.05 224.37.25 6.26.02 11.33-1.18 15.51-5.86 1.19-1.34 2.79-2.31 4.43-3.63 6.68 5.43 13.22 10.74 19.67 15.98-.21.66-.22 1.13-.42 1.24-7.67 4.1-9 10.71-8.5 18.79.61 9.96.05 19.98.2 29.97.04 2.86-.79 4.47-3.5 5.7-5.99 2.71-11.81 5.81-18.36 9.08 0-5.22 0-9.66 0-14.5-79.77-.01-159.11-.01-239.15-.01zm.24-7.65h64.63c0-14.17 0-27.91 0-41.91-21.63 0-42.99 0-64.63 0zm174.15-41.98v41.92h64.43c0-14.23 0-27.98 0-41.92-21.56 0-42.82 0-64.43 0zm-86.5.05v41.93h63.41c0-14.18 0-27.93 0-41.93-21.16 0-42.07 0-63.41 0z"/><path d="m145.97 136.8c3.24 8.54 12.44 12.89 12.21 23.64-6.29-5.05-10.7-.55-15.61 1.63-27.93 12.39-56.96 21.11-87.13 26.01-2.66.43-5.35.68-8.03 1.02-.21-.51-.42-1.01-.62-1.52 1.28-.89 2.46-2.01 3.86-2.65 19.93-9.11 40.09-17.75 59.77-27.37 11.11-5.43 21.43-12.45 32.11-18.76-.21-.55-.43-1.1-.64-1.65-30.49 0-60.99 0-91.76 0 0-2.66 0-4.73 0-7.46h140.65c0-10.41 0-20.18 0-30.64 9.37 2.64 19.21 1.19 27.78 7.66-5.38 1.56-5.86 5.18-5.54 9.49.31 4.13.07 8.31.07 13.06 1.95.12 3.69.33 5.43.33 30 .02 59.99.09 89.98-.12 2.47-.02 5.4-1.38 7.29-3.05 5.48-4.84 10.54-10.17 16.2-15.74 6.97 5.8 14.3 11.48 21.01 17.81 1.58 1.49 1.07 5.19 1.6 8.32-69.86-.01-138.97-.01-208.63-.01z"/><path d="m50.02 301.86c0-2.3 0-4.26 0-6.78h140.71c0-9.81 0-19.07 0-28.99 9.46 2.4 19.15 1.46 27.61 7.04-6.12 4.25-6.2 4.62-5 21.6 1.51.07 3.09.2 4.67.2 30.33.01 60.66.08 90.99-.13 2.45-.02 5.33-1.42 7.25-3.06 5.44-4.65 10.48-9.77 16.11-15.11 6.43 5.32 13.65 10.9 20.3 17.09 1.62 1.51 1.36 5.05 2.08 8.14-102 0-203.08 0-304.72 0z"/><path d="m242.75 139.25c19.66 5.08 39.23 9.5 58.38 15.31 14.88 4.51 29.26 10.7 43.8 16.29 4.64 1.78 7.71 5.35 8.06 10.36.61 8.76-7.88 13.4-16.39 9.85-2.28-.95-4.34-2.45-6.45-3.77-26.49-16.48-55.43-27.97-83.45-41.34-1.89-.91-5.91-.67-3.95-6.7z"/><path d="m351.04 347.49c.31 8.17-8.96 13.58-17.4 8.76-28.2-16.07-58.11-28.43-87.68-41.56-.45-.2-.97-.35-1.32-.67-.97-.89-1.87-1.87-2.8-2.81 1.42-.36 2.91-1.21 4.23-1 8.82 1.44 17.67 2.82 26.39 4.76 23.81 5.29 47.24 11.95 69.92 21.02 5.44 2.18 8.82 6.8 8.66 11.5z"/><path d="m46.75 353.83c1.32-.86 2.54-1.93 3.96-2.55 20.99-9.14 42.19-17.83 62.95-27.49 10.78-5.02 20.77-11.72 31.63-17.96 3.58 7.22 12.83 12.35 12.84 24.45-5.76-5.57-10.2-2.1-14.78.01-23.37 10.76-48.16 16.78-73.24 21.79-5.36 1.07-10.76 1.94-16.16 2.77-2.2.34-4.45.31-6.68.45-.16-.49-.34-.98-.52-1.47z"/></g><path d="m6.4 11.7c-1-.8-1.9-1.6-2.9-2.3l.6-.7c.9.7 1.9 1.4 2.9 2.2zm-2.1 8.3c.7-2.1 1.4-4.2 2-6.4.2.1.6.3 1 .4-.7 2.3-1.3 4.4-1.9 6.4zm3-12.8c-1.1-.9-2.1-1.7-2.9-2.4l.6-.7c1 .8 2 1.5 3 2.4zm1.4-1.3v-.9h10.2v.9c-.9 4.2-2.3 7.3-4.1 9.4 1.3 1.4 3.2 2.7 5.7 4-.2.2-.4.5-.7.9-2.5-1.4-4.4-2.7-5.7-4.2-1.4 1.5-3.5 3-6.1 4.4 0 0 0 0-.1-.1-.3-.4-.5-.7-.7-.8 2.7-1.3 4.7-2.8 6.2-4.2-1.8-2.2-3-5.3-3.7-9.4zm9.2 0h-7.1c.6 3.8 1.7 6.7 3.4 8.7 1.7-2 2.9-4.8 3.7-8.7z" fill="#fbfafa"/><path d="m31.6 3.6h.9v2.3h4.1v9.1h1.7v.9h-16.6v-.9h1.7v-9.1h4.1v-2.3h.9v2.3h3.1v-2.3zm-4 13.3.6.8c-1.9.9-3.8 1.9-5.8 2.8-.2-.3-.3-.6-.5-.9 2-.9 3.9-1.8 5.7-2.7zm-3.2-10.1v3.7h3.1v-3.7zm0 4.5v3.7h3.1v-3.7zm4.1-4.5v3.7h3.1v-3.7zm0 4.5v3.7h3.1v-3.7zm9.1 9.1c-2.1-1.1-4.1-2-5.8-2.7l.5-.8c2.2.9 4.1 1.8 5.8 2.6zm-1.9-13.7h-3.1v3.7h3.1v-3.6zm-3.2 4.6v3.7h3.1v-3.7z" fill="#fbfafa"/></svg>