<svg enable-background="new 0 0 400 400" viewBox="0 0 400 400" xmlns="http://www.w3.org/2000/svg"><g fill="#010104"><path d="m129.21 214c4.47 3.94 9.02 7.38 12.79 11.52 1.7 1.87 1.88 5.13 3.02 8.58-13.58 0-25.84 0-38.47 0-.15 1.91-.36 3.34-.36 4.78-.02 19.33.09 38.67-.11 58-.04 3.63 1.38 5.37 4.37 6.89 21.53 10.92 44.78 15.16 68.41 18.18 42.61 5.45 85.4 4.26 128.16 3.6 18.3-.29 36.58-1.18 54.88-1.78 1.23-.04 2.47-.01 4.74-.01-6.81 8.42-12.87 16.06-19.16 23.52-.88 1.04-2.85 1.65-4.31 1.66-26.66.1-53.35.71-79.98-.12-24.24-.76-48.5-2.49-72.63-4.93-22.31-2.26-44.4-6.73-65.28-15.14-15.96-6.43-30.86-15.39-42.3-28.42-8.17-9.31-15-19.95-17.98-32.45-.59-2.46-1.6-4.82-2.89-7.15-5.15 34.28-10.72 68.21-28.2 98.59-.46-.12-.92-.25-1.39-.37 3.14-26.29 7.52-52.5 9.08-78.88 1.57-26.5.35-53.16.35-80.16 9.39 2.66 19.04 1.94 28.22 7.67-7.36 2.62-5.82 8.3-6.02 13.42-.14 3.82-.16 7.68-.79 11.43-1.13 6.64 1.23 12.54 3.73 18.25 3.79 8.64 8.18 17.03 12.45 25.45.79 1.55 2.21 2.78 4.04 5.01 0-40.79 0-80.45 0-120.58-16.07 0-32.01 0-48.35 0 0-2.66 0-4.86 0-7.39h46.37c0-19.55 0-38.78 0-58.56-13.96 0-28.05 0-42.56 0 0-2.72 0-4.91 0-7.55h42.86c0-20.19 0-39.94 0-60.6 9.4 2.86 19.24 1.36 28.1 7.98-5.93 1.31-5.91 4.97-5.87 9 .14 14.31.06 28.62.06 42.87 3.98 1.64 6.49.33 8.9-2.56 3.72-4.45 7.81-8.59 12.12-13.27 6.03 5.32 12.06 10.24 17.5 15.74 1.5 1.52 1.23 4.79 1.97 8.14-13.9 0-26.95 0-40.23 0v58.1c4.91 1.55 8.56.42 11.75-3.7 3.24-4.19 7.13-7.88 11.09-12.17 6.09 5.45 12.19 10.52 17.74 16.14 1.36 1.38.9 4.56 1.38 7.59-13.64 0-26.55 0-39.83 0v65.81c11.94 5.01 15.77-5.79 22.63-12.13z"/><path d="m157.2 43.22c9.12 2.48 18.66 1.32 27.6 7.48-7.45 2.03-5.71 7.44-5.72 12.13-.04 17-.02 34-.02 50.99v5.77h24.26c0-30.95 0-62 0-94.06 8.98 1.89 17.63 1.52 25.66 6.98-5.14 1.84-5.03 5.56-5.03 9.51.06 84.99.01 169.98.15 254.97.01 4.27-1.15 6.65-5.13 8.29-4.98 2.05-9.71 4.73-15.39 7.55 0-41.74 0-82.47 0-123.48-6.65 0-12.72 0-19.41 0 0 6.32.06 12.44-.01 18.55-.22 20.38-2.82 40.42-9.08 59.87-5.08 15.79-11.92 30.67-23.45 42.96-.84.89-1.79 1.68-3.84 2 .39-1.92.53-3.93 1.22-5.74 6.29-16.69 11.43-33.72 13.21-51.5 1.17-11.69 1.41-23.48 1.73-35.23.27-10.13.06-20.28.06-31.05-4.91 0-9.31 0-13.93 0 0-2.58 0-4.52 0-7h53.08c0-18.57 0-36.62 0-54.93-7.86 0-15.63 0-24.1 0 0 6.28-.14 12.55.07 18.81.09 2.72-.75 4.15-3.26 5.31-6.13 2.8-12.1 5.96-18.67 9.24 0-39.42 0-77.99 0-117.42z"/><path d="m278.51 81.51c-7.2 6.84-13.18 12.53-18.31 17.4 8.45 5.13 17.11 10.16 25.52 15.58 4.07 2.62 5.65 8.15 4.29 12.25-1.32 3.98-6.77 8.22-11.17 7.01-3.36-.93-6.89-3.86-8.8-6.87-4.93-7.79-9.01-16.12-13.69-24.71-7.85 4.99-14.65 9.3-21.45 13.62-.54-.34-1.07-.69-1.61-1.03.73-1.68 1.16-3.58 2.24-5 10.77-14.15 22.46-27.67 32.22-42.47 7.9-11.98 13.51-25.46 20.13-38.28.52-1.01.97-2.06 1.67-3.55 7.22 5.75 16.95 7.49 22.63 16.94-10.16-.49-10.21 8.06-15.06 14.18h17.03c1.83 0 3.67.01 5.5 0 10.85-.05 22.51 2.57 29.08-9.99 7.57 6.06 14.18 11.35 21.27 17.03-3.09 1.93-5.64 4.21-8.63 5.23-4.11 1.4-5.81 4.39-7.57 7.87-17.42 34.27-40.83 63.43-73.13 84.86-15.05 9.99-31.43 17.1-48.94 21.52-.36-.36-.72-.73-1.08-1.09 1.06-1.09 1.94-2.53 3.22-3.23 15.52-8.53 29.92-18.68 43.25-30.32 26.48-23.13 45.06-51.79 58.73-84.29-.99-.3-1.73-.72-2.47-.72-12.66-.04-25.33-.08-37.99.02-1.33.01-3.12.53-3.91 1.48-3.61 4.31-6.94 8.86-10.51 13.51 5.58 2.24 10.91 4.1 15.97 6.5 4.02 1.91 7.87 4.28 11.53 6.84 3.45 2.41 5.27 8.61 3.97 11.83-2.01 4.97-5.89 7.91-11.01 7.35-4.5-.49-7.16-3.45-9.36-7.64-3.9-7.41-8.8-14.28-13.56-21.83z"/><path d="m282.53 291.82c8.13 0 16.43.07 24.73-.02 7.56-.08 8.67-1.25 8.67-8.75.01-27.16 0-54.32 0-81.48 0-1.48 0-2.96 0-5.03-28.42 0-56.5 0-84.95 0 0-2.46 0-4.35 0-6.84h84.82c0-15.84 0-31.08 0-46.73 9.37 2.61 19.08 1.37 28 7.33-5.98 2.15-5.79 6.47-5.69 11.03.2 9.14.06 18.29.06 27.37 10.75 4.37 12.31-5.64 17.66-10.7 3.27 5.97 12.48 8.22 10.15 18.27-8.96 0-18.03 0-27.81 0v6.41c0 27.33.08 54.66-.04 81.98-.07 16.28-8.99 26.53-24.96 29.15-1.27.21-2.6.03-3.94.03-.23-.58-.53-1.02-.56-1.47-.59-9.75-.58-9.78-10.15-11.87-4.22-.92-8.46-1.69-12.7-2.5-3.27-.64-5.08-2.12-3.29-6.18z"/><path d="m258.38 213.04c14.05 6.97 25.61 14.8 32.75 27.73 3 5.42 1.6 10.68-2.91 14.88-3.53 3.29-7.6 2.47-10.55.97-2.63-1.33-5.19-5.07-5.62-8.05-1.69-11.74-5.36-22.45-13.03-31.65-.58-.7-.37-2.05-.64-3.88z"/></g><path d="m6.4 11.7c-1-.8-1.9-1.6-2.9-2.3l.6-.7c.9.7 1.9 1.4 2.9 2.2zm-2.1 8.3c.7-2.1 1.4-4.2 2-6.4.2.1.6.3 1 .4-.7 2.3-1.3 4.4-1.9 6.4zm3-12.8c-1.1-.9-2.1-1.7-2.9-2.4l.6-.7c1 .8 2 1.5 3 2.4zm1.4-1.3v-.9h10.2v.9c-.9 4.2-2.3 7.3-4.1 9.4 1.3 1.4 3.2 2.7 5.7 4-.2.2-.4.5-.7.9-2.5-1.4-4.4-2.7-5.7-4.2-1.4 1.5-3.5 3-6.1 4.4 0 0 0 0-.1-.1-.3-.4-.5-.7-.7-.8 2.7-1.3 4.7-2.8 6.2-4.2-1.8-2.2-3-5.3-3.7-9.4zm9.2 0h-7.1c.6 3.8 1.7 6.7 3.4 8.7 1.7-2 2.9-4.8 3.7-8.7z" fill="#fbfafa"/><path d="m31.6 3.6h.9v2.3h4.1v9.1h1.7v.9h-16.6v-.9h1.7v-9.1h4.1v-2.3h.9v2.3h3.1v-2.3zm-4 13.3.6.8c-1.9.9-3.8 1.9-5.8 2.8-.2-.3-.3-.6-.5-.9 2-.9 3.9-1.8 5.7-2.7zm-3.2-10.1v3.7h3.1v-3.7zm0 4.5v3.7h3.1v-3.7zm4.1-4.5v3.7h3.1v-3.7zm0 4.5v3.7h3.1v-3.7zm9.1 9.1c-2.1-1.1-4.1-2-5.8-2.7l.5-.8c2.2.9 4.1 1.8 5.8 2.6zm-1.9-13.7h-3.1v3.7h3.1v-3.6zm-3.2 4.6v3.7h3.1v-3.7z" fill="#fbfafa"/></svg>