<svg enable-background="new 0 0 400 400" viewBox="0 0 400 400" xmlns="http://www.w3.org/2000/svg"><g fill="#010104"><path d="m93.34 207.94c-18.53 0-36.81 0-55.41 0 0-2.41 0-4.46 0-7.11h9.52c13 0 26-.21 38.98.11 4.99.12 9.05-.86 12.51-4.56 1.67-1.79 3.83-3.13 6.15-4.98 6.67 5.39 13.24 10.68 19.87 16.03-.25.5-.35 1.14-.69 1.31-8.14 4.16-8.5 11.28-8.34 19.31.41 20.15.04 40.32.27 60.47.03 2.26 1.35 5.09 3.01 6.67 18.13 17.22 40.55 24.43 64.76 27.77 34.45 4.75 69.05 4.34 103.65 3.56 25.27-.57 50.52-1.8 75.79-2.73 1.07-.04 2.14-.01 4.26-.01-6.83 8.59-12.95 16.4-19.27 24.04-.74.89-2.63 1.11-4 1.14-15.3.4-30.63 1.36-45.91.9-32.38-.96-64.83-.66-97.02-5.55-14.81-2.25-29.4-5.05-43.44-10.41-18.08-6.9-33.16-17.46-42.93-34.64-.48-.85-1.12-1.6-1.8-2.57-7.04 6.26-13.77 12.65-20.93 18.52-9.78 8.01-19.84 15.67-29.86 23.39-4.16 3.21-9.33 5.59-8.06 13.01-9.94-4.5-13.5-13.76-20.77-20.18 10.9-5.5 21.14-10.66 31.37-15.81 8.48-4.27 17.02-8.4 25.37-12.89 1.53-.82 3.24-3.08 3.25-4.69.19-29.32.13-58.64.1-87.97.01-.47-.18-.94-.43-2.13z"/><path d="m265.92 280.07c11.06-52.92 22.03-105.45 33.14-158.6 7.95 3.9 17.59 4.63 25.49 12.56-7.91.87-7.7 6.74-9.14 11.43-9.08 29.66-17.69 59.48-27.3 88.97-4.97 15.26-11.68 29.95-17.87 45.58h7.73c11.99 0 23.99.15 35.98-.13 2.33-.06 5.12-1.27 6.84-2.87 5.36-4.97 10.31-10.39 15.68-15.91 7.23 6.07 14.28 11.62 20.8 17.74 1.68 1.57 1.67 4.95 2.63 8.16-73.55 0-146.03 0-218.8 0 0-2.22 0-4.3 0-6.92 41.5-.01 82.89-.01 124.82-.01z"/><path d="m323.15 76.09c6.67 5.49 13.66 10.88 20.13 16.83 1.69 1.56 1.74 4.89 2.76 8.08-64.33 0-127.52 0-191.06 0 0-1.96 0-3.84 0-6.33h83.82c0-20.16 0-39.72 0-60.21 9.53 2.3 19.15 1.22 28.07 7.42-6.11 1.91-5.8 6.15-5.75 10.6.17 13.79.06 27.59.06 42.1h11.76c8.66 0 17.33-.15 25.99.07 3.6.09 6.24-.84 8.78-3.53 4.78-5.06 9.97-9.75 15.44-15.03z"/><path d="m227.9 253.02c-.92 8.75-7.86 15.17-16.68 9.94-2.79-1.66-4.71-6.36-5.26-9.94-1.77-11.46-2.62-23.06-3.99-34.59-3.57-30.24-10.82-59.62-20.8-88.36-.33-.94-.87-1.86-.96-2.82-.1-1.13.2-2.29.33-3.44 1.04.5 2.54.71 3.04 1.54 6.27 10.15 13.35 19.93 18.36 30.68 12.63 27.08 19.48 55.95 24.14 85.37.61 3.76 1.18 7.52 1.82 11.62z"/><path d="m42.55 110.05c24.5 3.98 44.74 15.08 62.47 31.02 5.33 4.79 6.24 13 1.81 17.59-3.63 3.75-13.21 2.9-16.97-2.24-12.42-16.97-27.83-30.71-44.86-42.82-1.09-.78-1.64-2.35-2.45-3.55z"/><path d="m62.63 42.5c1.86-.11 3.33-.57 4.56-.21 21.39 6.31 40.37 16.73 56.03 32.87 4.86 5.01 4.95 12.05.33 17.4-3.78 4.38-13.27 1.91-17.59-3.99-5.78-7.88-11.37-16.02-18.05-23.09-7.49-7.92-16.12-14.75-25.28-22.98z"/></g><path d="m6.4 11.7c-1-.8-1.9-1.6-2.9-2.3l.6-.7c.9.7 1.9 1.4 2.9 2.2zm-2.1 8.3c.7-2.1 1.4-4.2 2-6.4.2.1.6.3 1 .4-.7 2.3-1.3 4.4-1.9 6.4zm3-12.8c-1.1-.9-2.1-1.7-2.9-2.4l.6-.7c1 .8 2 1.5 3 2.4zm1.4-1.3v-.9h10.2v.9c-.9 4.2-2.3 7.3-4.1 9.4 1.3 1.4 3.2 2.7 5.7 4-.2.2-.4.5-.7.9-2.5-1.4-4.4-2.7-5.7-4.2-1.4 1.5-3.5 3-6.1 4.4 0 0 0 0-.1-.1-.3-.4-.5-.7-.7-.8 2.7-1.3 4.7-2.8 6.2-4.2-1.8-2.2-3-5.3-3.7-9.4zm9.2 0h-7.1c.6 3.8 1.7 6.7 3.4 8.7 1.7-2 2.9-4.8 3.7-8.7z" fill="#fbfafa"/><path d="m31.6 3.6h.9v2.3h4.1v9.1h1.7v.9h-16.6v-.9h1.7v-9.1h4.1v-2.3h.9v2.3h3.1v-2.3zm-4 13.3.6.8c-1.9.9-3.8 1.9-5.8 2.8-.2-.3-.3-.6-.5-.9 2-.9 3.9-1.8 5.7-2.7zm-3.2-10.1v3.7h3.1v-3.7zm0 4.5v3.7h3.1v-3.7zm4.1-4.5v3.7h3.1v-3.7zm0 4.5v3.7h3.1v-3.7zm9.1 9.1c-2.1-1.1-4.1-2-5.8-2.7l.5-.8c2.2.9 4.1 1.8 5.8 2.6zm-1.9-13.7h-3.1v3.7h3.1v-3.6zm-3.2 4.6v3.7h3.1v-3.7z" fill="#fbfafa"/></svg>