<svg enable-background="new 0 0 400 400" viewBox="0 0 400 400" xmlns="http://www.w3.org/2000/svg"><g fill="#010104"><path d="m247.08 358.55c0-106.42 0-211.85 0-318.13 5.97 2.95 11.32 5.85 16.9 8.23 2.95 1.26 6.29 2.21 9.47 2.25 18 .21 36-.14 53.99.24 5.89.12 10.72-.95 14.71-5.35 1.22-1.34 2.75-2.41 4.45-3.88 6.79 5.52 13.57 11.03 20.69 16.81-2.7 1.65-4.92 3.65-7.51 4.45-4.88 1.5-6.75 5.17-8.75 9.33-14.02 29.16-30.37 56.91-50.66 82.22-.92 1.15-1.73 2.4-2.82 3.92 1.58.69 2.86 1.41 4.23 1.83 25.74 7.92 41.83 25.93 52.17 49.93 9.95 23.1 10.18 46.83 3.98 70.77-3.74 14.43-15.94 24.33-30.82 26.07-1.8.21-3.59.5-5.87.82 0-3.79 0-7.37 0-11.28-5.18-1.61-10-3.33-14.94-4.55-3.44-.85-4.33-2.63-3.13-6.4 5.06 0 10.35.02 15.64 0 11.06-.04 15.27-3.03 18.78-13.46 8.69-25.88 6.41-51-7.07-74.51-8.97-15.64-22.79-27.21-37.63-38.35 7.07-16.43 14.34-32.93 21.28-49.57 6.95-16.66 13.56-33.46 20.67-51.06-22.69 0-44.03 0-65.77 0v6.64c0 91.83-.04 183.66.11 275.49.01 4.91-.94 7.89-5.9 9.71-5.37 1.97-10.37 4.95-16.2 7.83z"/><path d="m54.15 153.54c0-2.71 0-4.48 0-6.84h69.5c0-13.45 0-26.35 0-40.11 9.41 2.99 19.13 1.5 27.83 7.81-6.19 1.52-5.6 5.85-5.52 10.13.14 7.14.04 14.29.04 22.03 10.81 0 21.27.08 31.72-.11 1.2-.02 2.55-1.37 3.52-2.4 4.31-4.61 8.51-9.34 13.2-14.51 5.98 5.41 12.04 10.5 17.57 16.13 1.39 1.42 1.06 4.53 1.66 7.59-22.87 0-44.94 0-67.33 0v38.39c1.24.09 2.66.28 4.08.28 13.5.02 27 .13 40.49-.11 2.19-.04 4.76-1.19 6.45-2.65 5.67-4.89 11.02-10.15 16.78-15.54 6.19 5.15 13.27 10.63 19.79 16.71 1.81 1.68 1.96 5.14 3.17 8.68-21.3 0-41.36 0-62.46 0 5.64 6.98 14.5 9.36 17.98 18.7-8.25-2.79-10.9 2.93-14.38 7.46-6.16 7.99-12.42 15.9-19.35 24.75 10.11 0 19.03.11 27.94-.11 1.38-.03 2.95-1.31 4.05-2.39 5.47-5.37 10.81-10.86 16.4-16.51 7.06 5.87 14.14 11.36 20.66 17.44 1.81 1.69 1.96 5.15 3.21 8.81-28.66 0-56.01 0-83.73 0v38.63c6.99 0 13.93.12 20.87-.11 1.23-.04 2.55-1.38 3.58-2.39 5.47-5.34 10.86-10.77 16.47-16.35 6.95 5.79 14.01 11.32 20.59 17.37 1.68 1.55 1.85 4.73 3.02 8.03-22.3 0-43.22 0-64.88 0v10.25c0 10.17-.12 20.33.07 30.5.06 2.95-.92 4.49-3.56 5.69-6.03 2.74-11.93 5.76-18.67 9.06 0-18.75 0-36.76 0-55.27-22.89 0-45.16 0-67.86 0 0-2.35 0-4.21 0-6.71h67.48c0-13.03 0-25.45 0-38.41-28.64 0-57.21 0-86.15 0 0-2.6 0-4.67 0-7.21h63.72c-7.01-5.65-5.38-12.93-7.36-19.1-2.96-9.23-6.91-18.14-10.39-27.21-.31-.8-.25-1.73-.37-2.6.88 0 1.97-.34 2.61.05 13.42 8.16 24.02 19.01 29.96 33.69 2.21 5.46.51 10.7-4.88 14.89h8.64c9.67 0 19.33.11 29-.11 1.54-.04 3.98-1.2 4.44-2.42 5.6-14.91 10.92-29.92 16.29-44.91.32-.9.5-1.84.86-3.22-45.64 0-90.9 0-136.52 0 0-2.45 0-4.52 0-7.09h89.02c0-13.02 0-25.55 0-38.63-22.98-.05-45.9-.05-69.25-.05z"/><path d="m61.93 129.86c0-33.54 0-66.1 0-99.54 5.72 2.96 10.68 5.95 15.97 8.14 3.87 1.6 8.17 2.97 12.29 3.01 29.66.25 59.32 0 88.98.26 5.54.05 10.04-.99 13.84-5.09 1.55-1.68 3.51-2.98 5.36-4.5 6.86 5.49 13.48 10.8 20.05 16.06-.1.46-.06.93-.23 1.02-7.69 4.11-8.71 10.74-8.35 18.79.61 13.8.09 27.65.23 41.48.03 2.89-.81 4.49-3.51 5.71-6.32 2.84-12.48 6.02-19.36 9.39 0-6.42 0-12.15 0-18.21-34.69 0-68.91 0-103.5 0-.09 1.44-.51 2.97-.23 4.35 1.42 6.86-1.9 10.3-7.98 12.54-4.48 1.62-8.63 4.14-13.56 6.59zm21.85-31.41h102.9c0-16.78 0-33.17 0-49.62-34.49 0-68.67 0-102.9 0z"/></g><path d="m6.4 11.7c-1-.8-1.9-1.6-2.9-2.3l.6-.7c.9.7 1.9 1.4 2.9 2.2zm-2.1 8.3c.7-2.1 1.4-4.2 2-6.4.2.1.6.3 1 .4-.7 2.3-1.3 4.4-1.9 6.4zm3-12.8c-1.1-.9-2.1-1.7-2.9-2.4l.6-.7c1 .8 2 1.5 3 2.4zm1.4-1.3v-.9h10.2v.9c-.9 4.2-2.3 7.3-4.1 9.4 1.3 1.4 3.2 2.7 5.7 4-.2.2-.4.5-.7.9-2.5-1.4-4.4-2.7-5.7-4.2-1.4 1.5-3.5 3-6.1 4.4 0 0 0 0-.1-.1-.3-.4-.5-.7-.7-.8 2.7-1.3 4.7-2.8 6.2-4.2-1.8-2.2-3-5.3-3.7-9.4zm9.2 0h-7.1c.6 3.8 1.7 6.7 3.4 8.7 1.7-2 2.9-4.8 3.7-8.7z" fill="#fbfafa"/><path d="m31.6 3.6h.9v2.3h4.1v9.1h1.7v.9h-16.6v-.9h1.7v-9.1h4.1v-2.3h.9v2.3h3.1v-2.3zm-4 13.3.6.8c-1.9.9-3.8 1.9-5.8 2.8-.2-.3-.3-.6-.5-.9 2-.9 3.9-1.8 5.7-2.7zm-3.2-10.1v3.7h3.1v-3.7zm0 4.5v3.7h3.1v-3.7zm4.1-4.5v3.7h3.1v-3.7zm0 4.5v3.7h3.1v-3.7zm9.1 9.1c-2.1-1.1-4.1-2-5.8-2.7l.5-.8c2.2.9 4.1 1.8 5.8 2.6zm-1.9-13.7h-3.1v3.7h3.1v-3.6zm-3.2 4.6v3.7h3.1v-3.7z" fill="#fbfafa"/></svg>