<svg enable-background="new 0 0 400 400" viewBox="0 0 400 400" xmlns="http://www.w3.org/2000/svg"><path d="m362.1 8.8c1.1.8 2.1 1.6 3.1 2.4l-1 1.1c-1.3-1.1-2.3-2-3-2.5zm1.9 4.8c.5.2.9.4 1.4.5-.6 2.3-1.3 4.5-1.9 6.8l-1.5-.5c.8-2.1 1.4-4.3 2-6.8zm-1-9.4c1.3.9 2.4 1.8 3.4 2.5l-1 1.1c-1.4-1.2-2.4-2.1-3.2-2.6zm3.7 2.2v-1.4h10.3v1.2c-.5 3.6-1.8 6.8-4 9.4 1.5 1.6 3.4 2.8 5.7 3.8-.3.4-.7.8-1.1 1.4-2.3-1.1-4.1-2.5-5.6-4.1-1.6 1.6-3.6 3.1-5.9 4.3-.3-.5-.7-.9-1-1.3 2.4-1.1 4.4-2.5 6-4.1-1.9-2.5-3-5.6-3.3-9.3h-1.1zm8.8 0h-6.4c.3 3.3 1.3 6 3 8.2 2-2.3 3.1-5.1 3.4-8.2z" fill="#fafafb"/><path d="m385.3 3.8h1.3v2.2h2.8v-2.2h1.3v2.2h4.1v9.1h1.7v1.3h-16.9v-1.3h1.7v-9.1h4.1v-2.2zm.4 13.1.7 1.2c-1.8.9-3.8 1.9-6 2.9-.2-.4-.5-.8-.8-1.3 2.3-1 4.3-1.9 6.1-2.8zm-3.1-6.4h2.8v-3.2h-2.8zm0 4.6h2.8v-3.3h-2.8zm4-4.6h2.8v-3.2h-2.8zm0 4.6h2.8v-3.3h-2.8zm3.7 1.9c2.1.9 4.1 1.8 6.1 2.7l-.7 1.3c-2.2-1.1-4.2-2-6.1-2.9zm3.2-9.7h-2.8v3.2h2.8zm-2.8 7.8h2.8v-3.3h-2.8z" fill="#fafafb"/><path d="m158.31 334.93c11.2 0 22.19-.22 33.16.06 13.52.34 24.17-4.71 33.5-14.57 15.44-16.32 25.36-35.22 29.4-57.18 3.89-21.14 2.38-41.91-5.31-62.59-6.49 3.84-12.83 7.66-19.24 11.36-50.15 28.96-103.62 49.49-159.93 62.75-6.6 1.56-13.29 2.77-19.98 3.94-1.18.21-2.53-.62-3.81-.96.96-.89 1.78-2.16 2.92-2.61 24.22-9.64 48.62-18.84 72.69-28.84 33.85-14.06 66.22-31.01 96.69-51.49 7.03-4.73 14.1-9.4 21.74-14.48-1.36-2.48-2.43-4.85-3.85-6.97-12.95-19.37-29.78-34.72-48.67-48.2-6.23-4.44-10.55-4.97-17.45-1.26-37.47 20.14-77.06 34.92-118.55 44.49-1.71.39-3.46.62-5.19.92-.22-.43-.44-.86-.66-1.29 1.24-.9 2.37-2.05 3.74-2.67 20.63-9.22 41.58-17.78 61.88-27.67 38.24-18.65 74.39-40.73 106.78-68.57.75-.64 1.47-1.33 2.95-2.67-58.68 0-116.5 0-174.71 0 0-2.6 0-4.66 0-7.47h6.08c85.66 0 171.33-.02 256.99.08 3.81 0 6.52-1.03 9.14-3.79 4.68-4.93 9.76-9.49 15.1-14.61 6.82 5.64 14.14 11.35 20.94 17.61 1.51 1.39 1.2 4.75 1.86 7.85-2.69 0-4.48 0-6.27 0-30.17 0-60.33-.06-90.5.11-2.41.01-5.34.93-7.15 2.47-20.78 17.57-43.08 32.94-66.48 46.78-.95.56-1.78 1.34-3.07 2.32 4.53 1.94 8.61 3.77 12.76 5.44 17.54 7.05 31.36 18.96 43.89 32.79 16.02 17.68 26.21 38.46 31.7 61.31 3.65 15.16 4.22 30.86 2.33 46.55-2.41 20.01-9.08 38.68-20.12 55.19-9.65 14.43-20.47 28.68-38.21 34.48-6.07 1.99-12.47 2.95-19.82 4.64 0-3.7-.18-6.13.04-8.51.29-3.05-1.18-4.09-3.93-4.46-9.87-1.32-19.71-2.84-29.59-4.11-3.56-.49-5.12-1.96-3.79-6.17z" fill="#010000"/></svg>