<svg enable-background="new 0 0 400 400" viewBox="0 0 400 400" xmlns="http://www.w3.org/2000/svg"><path d="m362.1 8.8c1.1.8 2.1 1.6 3.1 2.4l-1 1.1c-1.3-1.1-2.3-2-3-2.5zm1.9 4.8c.5.2.9.4 1.4.5-.6 2.3-1.3 4.5-1.9 6.8l-1.5-.5c.8-2.1 1.4-4.3 2-6.8zm-1-9.4c1.3.9 2.4 1.8 3.4 2.5l-1 1.1c-1.4-1.2-2.4-2.1-3.2-2.6zm3.7 2.2v-1.4h10.3v1.2c-.5 3.6-1.8 6.8-4 9.4 1.5 1.6 3.4 2.8 5.7 3.8-.3.4-.7.8-1.1 1.4-2.3-1.1-4.1-2.5-5.6-4.1-1.6 1.6-3.6 3.1-5.9 4.3-.3-.5-.7-.9-1-1.3 2.4-1.1 4.4-2.5 6-4.1-1.9-2.5-3-5.6-3.3-9.3h-1.1zm8.8 0h-6.4c.3 3.3 1.3 6 3 8.2 2-2.3 3.1-5.1 3.4-8.2z" fill="#fafafb"/><path d="m385.3 3.8h1.3v2.2h2.8v-2.2h1.3v2.2h4.1v9.1h1.7v1.3h-16.9v-1.3h1.7v-9.1h4.1v-2.2zm.4 13.1.7 1.2c-1.8.9-3.8 1.9-6 2.9-.2-.4-.5-.8-.8-1.3 2.3-1 4.3-1.9 6.1-2.8zm-3.1-6.4h2.8v-3.2h-2.8zm0 4.6h2.8v-3.3h-2.8zm4-4.6h2.8v-3.2h-2.8zm0 4.6h2.8v-3.3h-2.8zm3.7 1.9c2.1.9 4.1 1.8 6.1 2.7l-.7 1.3c-2.2-1.1-4.2-2-6.1-2.9zm3.2-9.7h-2.8v3.2h2.8zm-2.8 7.8h2.8v-3.3h-2.8z" fill="#fafafb"/><g fill="#010000"><path d="m331.26 34.27c6.77 5.64 13.24 11.03 19.63 16.36-.37.74-.43 1.18-.66 1.29-8.24 3.9-8.37 10.98-8.18 18.81.4 16.99.03 33.99.2 50.99.03 3.29-.88 5.13-3.95 6.5-5.9 2.63-11.61 5.7-18.15 8.95 0-5.14 0-9.8 0-14.71-18.91 0-37.15 0-55.74 0v30.55h10.79c10.66 0 21.33-.1 31.99.06 3.25.05 5.57-.78 7.72-3.39 3.68-4.47 7.82-8.55 12.07-13.12 6.08 5.4 12.21 10.49 17.81 16.1 1.4 1.41 1.11 4.51 1.76 7.62-27.81 0-54.86 0-82.19 0v30.34c1.45.11 2.88.3 4.32.3 17.33.02 34.66.11 51.99-.11 2.17-.03 4.79-1.19 6.39-2.69 5.58-5.22 10.8-10.81 16.18-16.28 6.52 5.39 12.53 10.67 18.9 15.49 3.72 2.81 4.73 5.99 3.44 10.44-75.07 0-150.15 0-225.49 0 0-2.17 0-4.11 0-6.66h101.4c0-10.37 0-20.12 0-30.58-27.02 0-54.07 0-81.39 0 0-2.77 0-4.86 0-7.35h81.32c0-10.31 0-20.21 0-30.56-18.26 0-36.63 0-55.33 0 .96 4.55-1.74 6.38-5.4 8-5.74 2.54-11.27 5.57-17.37 8.63 0-35.72 0-70.87 0-106.73 6.47 3.16 12.45 6.29 18.63 8.99 2.65 1.16 5.69 1.98 8.56 1.98 40.66.13 81.32 0 121.98.19 5.33.02 9.73-.89 13.32-5.04 1.37-1.58 3.32-2.69 5.45-4.37zm-11.34 17.06c-18.78 0-37.13 0-55.49 0v63.27h55.49c0-21.2 0-41.99 0-63.27zm-78.48 63.53c0-21.55 0-42.58 0-63.55-18.62 0-36.86 0-55.08 0v63.55z"/><path d="m81.13 28.7c8.88 2.63 18.43 1.05 27.22 7.13-5.9 2.21-5.37 6.41-5.37 10.55.03 98.62 0 197.24.11 295.86 0 3.81-.85 6.03-4.55 7.59-5.77 2.43-11.29 5.47-17.42 8.51.01-110.16.01-219.64.01-329.64z"/><path d="m344.1 321.02c7.23 6.09 14.06 11.44 20.32 17.4 1.75 1.66 1.79 5.11 2.8 8.33-76.5 0-151.76 0-227.32 0 0-2.12 0-4.05 0-6.55h101.52c0-15.12 0-29.68 0-44.92-28.04 0-56.08 0-84.35 0 0-2.62 0-4.56 0-7.15h84.56c0-12.21 0-23.8 0-36.17 9.46 2.64 19.26 1.17 28.23 7.77-6.44 1.45-5.96 5.8-5.84 10.17.16 5.79.04 11.6.04 18.03 9.36 0 18.4-.85 27.22.2 12.27 1.47 21.63-2.16 28.75-12.14 1.82-2.56 3.99-4.87 6.22-7.57 7.82 6.64 14.86 12.21 21.34 18.38 1.62 1.54 1.43 4.99 2.26 8.35-29.12 0-57.18 0-85.51 0v44.45c1.32.1 2.74.31 4.16.32 17.67.02 35.33.11 53-.11 2.17-.03 4.79-1.21 6.41-2.7 5.49-5.06 10.63-10.5 16.19-16.09z"/><path d="m64.99 110.12c.33 4.05.95 8.09.96 12.14.02 18.49-1.16 36.9-5.99 54.84-1.65 6.13-3.09 12.51-9.46 16.32-4.04 2.42-7.82 1.23-10.68-.58-2.95-1.86-5.99-5.23-4.66-9.65.88-2.92 2.06-5.9 3.76-8.4 8.28-12.15 12.89-25.81 16.86-39.75 2.14-7.49 4.11-15.03 6.25-22.53.28-.97 1.04-1.81 1.58-2.71.46.11.92.22 1.38.32z"/><path d="m111.75 102.83c12.62 10.7 24.84 21.78 32.7 36.79 2.07 3.96 4.19 7.92 5.92 12.03 2.61 6.2-.28 13.27-6.19 15.86-4.73 2.08-13.27-3.64-14.21-9.75-2.75-17.95-9.77-34.3-18.34-50.1-.68-1.26-.91-2.76-1.35-4.15.5-.23.99-.45 1.47-.68z"/><path d="m317.03 211.32c1.63-.1 2.98-.6 3.9-.17 12.55 5.82 24.7 12.38 34.38 22.49 5.09 5.31 11.3 10.73 9.48 19.16-.69 3.21-3.56 7.05-6.45 8.34-2.48 1.11-7.12-.1-9.49-1.96-2.54-2-4.12-5.78-5.08-9.09-3.14-10.85-9.91-19.41-16.77-27.94-2.8-3.47-6.04-6.59-9.97-10.83z"/><path d="m178.08 222.4c-.23 16.74-4.95 30.25-17.96 39.88-4.28 3.17-10.6 2.87-14.16-.27-6.81-6.02-4.21-15.27 3.68-18.17 14.46-5.32 20.71-16.74 24.34-30.49.23-.87 1.14-1.56 1.74-2.33.55.87 1.46 1.69 1.58 2.62.44 3.28.61 6.6.78 8.76z"/><path d="m263.05 212.76c.98-.24 2.37-1.06 2.97-.67 8.99 5.85 19.43 9.79 25.9 18.99 2.75 3.92 5.1 8.12 7.53 12.25 2.65 4.5 1.04 8.92-1.63 12.4-3.02 3.95-8.65 4.86-13.05 1.83-2.68-1.85-5.62-5.83-5.52-8.76.49-14.62-7.68-24.91-16.2-36.04z"/><path d="m214.87 211.17c5.96 6.53 12.64 12.57 17.63 19.77 3.32 4.8 4.64 11.16 6.1 17.01 1.08 4.35-4.33 9.98-9.72 11.09-4.3.88-9.51-2.15-10.58-6.72-.63-2.73-.85-5.85-.19-8.54 2.47-10.01-.38-18.93-4.71-27.71-.56-1.14-.66-2.51-.98-3.77.82-.37 1.63-.75 2.45-1.13z"/><path d="m292.19 56.59c8.3 5.52 18.09 6.78 24.57 15.73-8.66-.36-11.77 6.26-16.66 10.5-8.4 7.28-17.05 14.28-25.67 21.31-.6.49-1.78.27-3.71.5 9.36-15.57 19.18-29.65 21.47-48.04z"/><path d="m197.85 58.88c7.59 4.63 15.49 8.83 22.64 14.05 4.17 3.04 7.35 7.56 10.6 11.71 3.18 4.06 3.21 9 .59 13.08-2.69 4.19-7.75 6.23-12.17 4.04-3.18-1.58-6.76-5.58-7.2-8.9-1.53-11.62-7.2-20.82-14.36-29.5-.74-.9-1.08-2.13-1.61-3.21.5-.43 1.01-.85 1.51-1.27z"/></g></svg>