<svg enable-background="new 0 0 400 400" viewBox="0 0 400 400" xmlns="http://www.w3.org/2000/svg"><path d="m362.1 8.8c1.1.8 2.1 1.6 3.1 2.4l-1 1.1c-1.3-1.1-2.3-2-3-2.5zm1.9 4.8c.5.2.9.4 1.4.5-.6 2.3-1.3 4.5-1.9 6.8l-1.5-.5c.8-2.1 1.4-4.3 2-6.8zm-1-9.4c1.3.9 2.4 1.8 3.4 2.5l-1 1.1c-1.4-1.2-2.4-2.1-3.2-2.6zm3.7 2.2v-1.4h10.3v1.2c-.5 3.6-1.8 6.8-4 9.4 1.5 1.6 3.4 2.8 5.7 3.8-.3.4-.7.8-1.1 1.4-2.3-1.1-4.1-2.5-5.6-4.1-1.6 1.6-3.6 3.1-5.9 4.3-.3-.5-.7-.9-1-1.3 2.4-1.1 4.4-2.5 6-4.1-1.9-2.5-3-5.6-3.3-9.3h-1.1zm8.8 0h-6.4c.3 3.3 1.3 6 3 8.2 2-2.3 3.1-5.1 3.4-8.2z" fill="#fafafb"/><path d="m385.3 3.8h1.3v2.2h2.8v-2.2h1.3v2.2h4.1v9.1h1.7v1.3h-16.9v-1.3h1.7v-9.1h4.1v-2.2zm.4 13.1.7 1.2c-1.8.9-3.8 1.9-6 2.9-.2-.4-.5-.8-.8-1.3 2.3-1 4.3-1.9 6.1-2.8zm-3.1-6.4h2.8v-3.2h-2.8zm0 4.6h2.8v-3.3h-2.8zm4-4.6h2.8v-3.2h-2.8zm0 4.6h2.8v-3.3h-2.8zm3.7 1.9c2.1.9 4.1 1.8 6.1 2.7l-.7 1.3c-2.2-1.1-4.2-2-6.1-2.9zm3.2-9.7h-2.8v3.2h2.8zm-2.8 7.8h2.8v-3.3h-2.8z" fill="#fafafb"/><g fill="#010000"><path d="m131.58 321.19c0-6.44 0-12.39 0-18.99-25.71 0-51.41 0-77.37 0 0-2.57 0-4.51 0-7.1h77.3c0-5.56 0-10.47 0-16.11-1.8 0-3.56 0-5.32 0-17.33 0-34.66.1-51.99-.04-8.81-.07-17.62-.52-26.43-.95-1.31-.06-2.58-.96-3.86-1.47.07-.51.14-1.02.21-1.54 7.49-1.03 14.97-2.11 22.46-3.06 23.22-2.95 46.45-5.93 69.69-8.76 18.14-2.21 36.29-4.33 54.47-6.19 4.38-.45 6.15-1.81 4.46-6.8-1.75 0-3.7 0-5.65 0-31.5 0-63-.12-94.49.14-4.44.04-9.06 1.4-13.24 3.06-5.49 2.17-10.62 5.25-16.47 8.22 0-24.28 0-47.83 0-72.17 6.24 3.04 12.18 6.18 18.33 8.83 2.95 1.27 6.31 2.23 9.49 2.25 31.16.16 62.33-.05 93.49.23 6.06.06 11.06-1 15.17-5.57 1.32-1.47 3-2.6 4.83-4.16 6.72 5.56 13.32 11.03 19.81 16.4-.32.79-.36 1.26-.58 1.37-7.8 3.67-8.59 10.27-7.97 17.84.46 5.63-.11 11.33.16 16.99.19 4.24.11 8-5.19 9.14.47.52.7.91.8.87 5.56-1.74 9.98-.49 14.23 3.81 4.77 4.84 10.46 8.76 15.52 13.33 1.49 1.34 2.21 3.53 2.74 6-5.48-3.37-10.88-3.84-16.8-2.78-5.63 1.01-11.42 1.1-18.41 1.7 6.89 5.78 12.65 11.02 18.86 15.65 3.73 2.78 5.1 5.81 3.72 10.5-26.18 0-52.46 0-79.14 0v18.86c4.27-.22 8.67-.57 13.06-.66 19.14-.38 38.29-.69 57.43-1.02.67-.01 1.38-.16 1.99.02 10.32 3.07 16.8-1.88 22.34-9.97 8.82-12.89 18.13-25.45 27.06-38.26.84-1.2 1.05-3.47.54-4.88-10.37-28.5-17.39-57.86-21.72-87.79-3.37-23.33-5.69-46.81-8.19-70.26-.93-8.71-1.04-17.51-1.56-26.76-70.41 0-140.65 0-211.16 0 0-2.44 0-4.38 0-6.84h210.17c0-16.22 0-31.92 0-48.06 8.52 2.38 18.13 1.4 27.11 7.63-7.27 2.16-5.04 7.45-5.07 11.98-.05 9.13-.01 18.26-.01 27.75 2.45.2 3.87.41 5.29.41 18.83.02 37.66.12 56.49-.12 2.27-.03 4.99-1.46 6.67-3.1 4.27-4.16 8.08-8.81 12.45-13.69 6 5.44 12.06 10.56 17.57 16.2 1.41 1.44 1.08 4.58 1.68 7.55-33.07 0-65.47 0-99.08 0 2.99 54.81 9.03 108.46 24.89 161.86 19.97-37.76 31.42-77.29 40.62-118.05 8.61 4.64 18.51 5.23 25.88 13.41-7.06.22-7.74 4.89-8.99 9.48-9.14 33.47-21.98 65.49-38.35 96.07-3.06 5.71-6.71 11.11-9.84 16.79-.76 1.38-1.2 3.53-.69 4.93 8.74 23.72 21.11 45.13 40.25 62.13.99.88 2.08 1.66 3.2 2.37.81.51 1.74.82 3.07 1.44 2.86-12.63 5.59-24.87 8.46-37.09.39-1.65 1.52-3.12 2.31-4.67.64.23 1.27.45 1.91.68-.41 7.24-.73 14.48-1.25 21.7-.43 5.96-.91 11.94-1.72 17.86-.56 4.06.31 6.71 4.21 8.83 5.1 2.77 7.08 8.68 5.14 12.9-2.39 5.19-8.23 8-14.01 6.5-9.33-2.42-17.52-7.16-24.96-13.13-15.85-12.73-27.15-29.06-36.44-46.93-2.05-3.95-4.23-7.84-6.48-12.01-3.76 4.48-7.33 8.8-10.96 13.07-19.56 22.96-41.63 43.07-67.42 58.9-1.27.78-2.83 1.09-4.25 1.62-.23-.51-.45-1.02-.68-1.53 11.24-10.67 22.48-21.35 33.72-32.02-.2-.41-.4-.82-.61-1.23-9.08 1.26-18.15 2.61-27.24 3.77-20.42 2.61-40.84 5.23-61.28 7.66-20.12 2.38-40.27 4.53-60.41 6.77-6.44.72-12.87 1.75-19.33 1.97-4.66.16-8.54.76-10.19 6.49-7.48-8.14-6.07-18.23-9.67-27.2 28.91-1.03 56.95-1.99 85.22-2.97zm63.99-112.84c-36.08 0-71.91 0-107.71 0v34.3h107.71c0-11.6 0-22.85 0-34.3zm16.17 67.19c-20.05.86-38.66 1.66-57.37 2.47v16.92c12.16 0 23.96.02 35.75-.03.93 0 2.15-.15 2.76-.74 6.03-5.83 11.96-11.77 18.86-18.62z"/><path d="m64.27 89.51c5.78 2.89 10.93 5.85 16.39 8.04 3.88 1.56 8.17 2.87 12.3 2.9 30.98.24 61.95-.04 92.93.27 6.1.06 11.03-1.16 15.13-5.66 1.22-1.34 2.73-2.41 4.52-3.96 6.71 5.42 13.37 10.82 20 16.18-.19.48-.22.93-.44 1.04-7.49 3.99-8.94 10.42-8.23 18.31.55 6.09 2.06 13.64-.76 18.05-2.94 4.61-10.54 6.26-16.11 9.18-1.45.76-2.96 1.4-5.08 2.4-.22-3.7-.4-6.89-.63-10.87-2.06 0-3.99 0-5.91 0-31.14 0-62.29.11-93.43-.1-5.85-.04-11.08 1.01-16.15 3.86-4.56 2.57-9.35 4.72-14.53 7.3 0-22.53 0-44.37 0-66.94zm22.18 48.14h107.66c0-10.22 0-20.08 0-29.84-36.19 0-71.9 0-107.66 0z"/><path d="m56 190.57c-6.04-6.47-4.14-16.51-8.03-25.45 2.78-.23 4.54-.47 6.3-.51 30.43-.69 60.87-1.39 91.3-2.01 28.93-.6 57.86-1.13 86.8-1.62 1.77-.03 3.56.51 5.33.79-.03.71-.06 1.43-.09 2.14-5.92 1.03-11.82 2.29-17.78 3.07-34.39 4.48-68.78 8.95-103.19 13.22-17.29 2.15-34.65 3.73-51.94 5.94-2.77.35-5.31 2.64-8.7 4.43z"/><path d="m333.41 54.8c-1.2 4.74-3.1 8.5-8.46 9.85-5.01 1.26-8.9-.8-11.23-4.27-8.4-12.49-20.69-19.83-33.42-26.78-.99-.54-1.67-1.64-2.49-2.48 1.11-.38 2.27-1.2 3.33-1.08 15.54 1.78 30.71 4.77 44.47 12.88 4.76 2.81 7 6.79 7.8 11.88z"/></g></svg>