<svg enable-background="new 0 0 400 400" viewBox="0 0 400 400" xmlns="http://www.w3.org/2000/svg"><path d="m362.1 8.8c1.1.8 2.1 1.6 3.1 2.4l-1 1.1c-1.3-1.1-2.3-2-3-2.5zm1.9 4.8c.5.2.9.4 1.4.5-.6 2.3-1.3 4.5-1.9 6.8l-1.5-.5c.8-2.1 1.4-4.3 2-6.8zm-1-9.4c1.3.9 2.4 1.8 3.4 2.5l-1 1.1c-1.4-1.2-2.4-2.1-3.2-2.6zm3.7 2.2v-1.4h10.3v1.2c-.5 3.6-1.8 6.8-4 9.4 1.5 1.6 3.4 2.8 5.7 3.8-.3.4-.7.8-1.1 1.4-2.3-1.1-4.1-2.5-5.6-4.1-1.6 1.6-3.6 3.1-5.9 4.3-.3-.5-.7-.9-1-1.3 2.4-1.1 4.4-2.5 6-4.1-1.9-2.5-3-5.6-3.3-9.3h-1.1zm8.8 0h-6.4c.3 3.3 1.3 6 3 8.2 2-2.3 3.1-5.1 3.4-8.2z" fill="#fafafb"/><path d="m385.3 3.8h1.3v2.2h2.8v-2.2h1.3v2.2h4.1v9.1h1.7v1.3h-16.9v-1.3h1.7v-9.1h4.1v-2.2zm.4 13.1.7 1.2c-1.8.9-3.8 1.9-6 2.9-.2-.4-.5-.8-.8-1.3 2.3-1 4.3-1.9 6.1-2.8zm-3.1-6.4h2.8v-3.2h-2.8zm0 4.6h2.8v-3.3h-2.8zm4-4.6h2.8v-3.2h-2.8zm0 4.6h2.8v-3.3h-2.8zm3.7 1.9c2.1.9 4.1 1.8 6.1 2.7l-.7 1.3c-2.2-1.1-4.2-2-6.1-2.9zm3.2-9.7h-2.8v3.2h2.8zm-2.8 7.8h2.8v-3.3h-2.8z" fill="#fafafb"/><g fill="#010000"><path d="m89.99 29.22c6.1 2.98 11.49 5.94 17.15 8.27 3.27 1.34 6.95 2.34 10.45 2.35 53.5.14 107 .02 160.5.22 5.7.02 10.34-1.08 14.29-5.21 1.47-1.53 3.32-2.69 5.13-4.12 6.75 5.5 13.31 10.84 19.8 16.12-.28.65-.33 1.07-.54 1.18-7.71 4.07-8.65 10.7-8.53 18.76.44 27.83.12 55.66.24 83.5.01 3.41-.81 5.48-4.14 6.92-6.04 2.61-11.87 5.72-18.34 8.88 0-7.54 0-14.46 0-21.73-10.28 0-20.18 0-30.82 0v4.74c0 11.5-.01 23 0 34.5.01 6.02 1.87 8 7.91 8.37 1.33.08 2.67.03 4 .03h73 5.29c4.46-7.88 4.68-17.35 10-24.46.67.2 1.34.41 2.02.61-.88 6.13-1.54 12.3-2.73 18.37-.7 3.58-.8 6.13 2.91 8.34 1.93 1.15 3.78 4.08 3.87 6.28.12 3.08-6.48 7.74-9.99 7.83-4.33.11-8.67.03-13 .03-25.5 0-51 .04-76.5-.01-14.57-.03-24.2-6.87-27.53-19.84-1.02-3.98-1.29-8.22-1.36-12.35-.18-10.66-.06-21.32-.06-32.49-1.54-.11-2.96-.3-4.38-.3-17-.02-34 .1-51-.11-3.37-.04-4.98 1.16-6.49 3.99-23.51 44.09-61 71.08-107.24 87.26-4.08 1.43-8.22 2.65-12.34 3.95-.29.09-.65-.04-2.52-.2 1.43-1.73 2.11-3.13 3.22-3.81 6.25-3.8 12.67-7.32 18.92-11.12 27.31-16.61 51.51-36.62 68.99-63.84 2.69-4.19 4.96-8.65 7.38-13 .39-.7.58-1.52 1.03-2.74-12.14 0-23.98 0-36.51 0 0 6.01.17 12.12-.11 18.21-.08 1.64-1.09 3.97-2.39 4.69-6.22 3.43-12.68 6.41-19.57 9.82-.01-49.34-.01-98.18-.01-147.89zm22.21 106.93h173.43c0-14.03 0-27.61 0-41.3-57.97 0-115.63 0-173.43 0zm-.13-49.51h173.57c0-13.27 0-26.18 0-39.2-57.95 0-115.6 0-173.38 0-.08 1.35-.18 2.33-.18 3.31-.02 11.82-.01 23.63-.01 35.89z"/><path d="m38.33 353.53c53.6-11.58 105.19-28.22 151.3-58.29-7.31-8.56-15.07-16.54-21.48-25.48-6.42-8.98-11.48-18.93-17.18-28.51-5.85 5.45-11.88 11.41-18.27 16.95-21.84 18.92-46.39 33.33-73.46 43.43-1.21.45-2.74.06-4.35-.81 43.37-28.88 81.85-61.86 105.93-109.99 7.03 6.68 17.03 9 21.43 19.03-11.45-1.19-11.02 10.02-17.33 13.96.19.4.39.79.58 1.19h5.27c28.16 0 56.33-.19 84.49.14 6.47.08 11.51-1.7 15.89-6.17 1.03-1.05 2.23-1.95 3.47-3.02 6.61 5.5 13.13 10.91 20.26 16.83-3.62 2.15-6.92 3.95-10.04 6.01-3.39 2.24-7.25 4.18-9.8 7.19-15.84 18.62-33.61 35.08-53.6 49.15-.4.28-.72.67-1.58 1.48 43.42 23.91 90.74 29.66 140.27 32.12-7.86 8.18-14.38 15.67-21.77 22.17-1.88 1.65-6.59.48-9.92.03-29.39-3.98-58.31-10.05-85.29-22.78-11.96-5.65-23.26-12.75-34.65-19.55-2.89-1.73-4.87-2.28-7.93-.47-31.6 18.63-65.37 31.91-101.31 39.14-18.51 3.72-37.34 5.89-56.04 8.7-1.38.21-2.82.03-4.23.03-.21-.82-.44-1.65-.66-2.48zm115.59-117.74c12.65 19.61 35.52 42.63 49.38 50.12 19.98-15.29 38.38-32.33 54.38-53.07-2.08-.21-3.19-.41-4.3-.41-30.49-.02-60.98-.09-91.47.12-2.5.02-4.99 1.97-7.99 3.24z"/></g></svg>