<svg enable-background="new 0 0 400 400" viewBox="0 0 400 400" xmlns="http://www.w3.org/2000/svg"><path d="m362.1 8.8c1.1.8 2.1 1.6 3.1 2.4l-1 1.1c-1.3-1.1-2.3-2-3-2.5zm1.9 4.8c.5.2.9.4 1.4.5-.6 2.3-1.3 4.5-1.9 6.8l-1.5-.5c.8-2.1 1.4-4.3 2-6.8zm-1-9.4c1.3.9 2.4 1.8 3.4 2.5l-1 1.1c-1.4-1.2-2.4-2.1-3.2-2.6zm3.7 2.2v-1.4h10.3v1.2c-.5 3.6-1.8 6.8-4 9.4 1.5 1.6 3.4 2.8 5.7 3.8-.3.4-.7.8-1.1 1.4-2.3-1.1-4.1-2.5-5.6-4.1-1.6 1.6-3.6 3.1-5.9 4.3-.3-.5-.7-.9-1-1.3 2.4-1.1 4.4-2.5 6-4.1-1.9-2.5-3-5.6-3.3-9.3h-1.1zm8.8 0h-6.4c.3 3.3 1.3 6 3 8.2 2-2.3 3.1-5.1 3.4-8.2z" fill="#fafafb"/><path d="m385.3 3.8h1.3v2.2h2.8v-2.2h1.3v2.2h4.1v9.1h1.7v1.3h-16.9v-1.3h1.7v-9.1h4.1v-2.2zm.4 13.1.7 1.2c-1.8.9-3.8 1.9-6 2.9-.2-.4-.5-.8-.8-1.3 2.3-1 4.3-1.9 6.1-2.8zm-3.1-6.4h2.8v-3.2h-2.8zm0 4.6h2.8v-3.3h-2.8zm4-4.6h2.8v-3.2h-2.8zm0 4.6h2.8v-3.3h-2.8zm3.7 1.9c2.1.9 4.1 1.8 6.1 2.7l-.7 1.3c-2.2-1.1-4.2-2-6.1-2.9zm3.2-9.7h-2.8v3.2h2.8zm-2.8 7.8h2.8v-3.3h-2.8z" fill="#fafafb"/><g fill="#010000"><path d="m267 65.95c0 8.86-.06 16.85.06 24.83.02 1.19.6 2.58 1.36 3.53 3.22 4.01 6.6 7.88 10.5 12.47 9.99-13.38 18.68-25.02 27.37-36.65 10.73 8.6 15.55 14.63 16.54 21.35-8.49-3.95-13.68 2.58-19.92 5.8-6.6 3.4-13.08 7.03-19.94 10.73 19.57 19.31 42.87 30.36 71.78 32.22-7.98 7.49-14.45 13.71-21.14 19.66-.86.77-3.04.56-4.42.16-15.91-4.64-29.18-13.67-40.42-25.58-7.5-7.95-14.31-16.54-21.78-25.25 0 1.44.04 3.07-.01 4.71-.32 11.12.45 22.42-1.26 33.32-2.17 13.79-14.13 22.01-28.66 21.51 0-3.58 0-7.19 0-11.24-12.57-1.93-24.78-3.8-37.19-5.7 0-1.71 0-3.12 0-5.24h17.51c6.67 0 13.33.12 20-.04 5.7-.14 7.22-1.52 7.33-7.11.19-9.46.05-18.93.05-29.57-5.44 4.1-10.08 7.69-14.81 11.16-14.5 10.62-29.13 21.05-43.43 31.92-2.33 1.77-3.24 5.42-5.17 8.83-7.57-2.19-10.26-11.13-16.08-15.97-1.85.83-3.41 1.91-5.11 2.25-15.6 3.14-31.22 6.14-46.83 9.22-1.28.25-2.52.76-3.95 1.2v57.67c7.52-1.61 14.75-3.07 21.92-4.81 1.04-.25 1.89-1.76 2.59-2.84 4.18-6.4 8.29-12.85 12.62-19.59 6.37 3.36 12.65 6.68 18.95 9.97 1.73.9 3.33 2.62 5.44.2.6-.68 2.55-.23 3.88-.23 21.33-.01 42.66-.01 63.99-.01h5.89c0-9.08 0-17.67 0-27.05 9.39 2.43 18.94 1.2 27.7 6.97-9.37 5.06-3.86 12.97-5.57 20.06 12.01 0 23.3.09 34.58-.11 1.37-.02 2.92-1.39 4.04-2.5 5.31-5.28 10.5-10.69 15.94-16.27 7.31 5.96 14.48 11.39 21.06 17.47 1.73 1.6 1.6 5.2 2.66 9.1-27.07 0-52.85 0-80.25 0 8.47 14.81 16.11 28.17 24.54 42.92 8.9-13.89 16.88-26.36 25.16-39.28 5.95 6.88 15.44 10.36 18.94 21.25-7.37-3.48-11.28.99-15.88 4.58-7.57 5.91-15.59 11.26-23.75 17.09 15.13 20.53 36.01 32.29 60.1 40.16.94-3.62 1.75-7.13 2.82-10.56.31-.99 1.37-1.74 2.09-2.6.48 1.02 1.45 2.07 1.38 3.05-.84 11.77-1.76 23.53-2.82 35.29-.47 5.2-1.29 10.04 5.06 12.88 2.39 1.07 3.73 4.5 5.46 6.74-4.16 8.8-10.45 12.23-20.25 12.19-75.16-.34-150.31-.14-225.47-.28-5.43-.01-10.97-.82-16.25-2.13-11.64-2.88-18.97-13.81-19.01-27.84-.07-28.5-.02-56.99-.02-85.49 0-1.81 0-3.61 0-6.01-15.16 3.19-29.74 6.25-44.56 9.36-.55-2.02-1.11-4.06-1.85-6.78 8.02-1.75 15.73-3.45 23.45-5.1 6.65-1.42 13.36-2.62 19.95-4.28 1.22-.31 2.87-2.3 2.88-3.53.19-18.14.13-36.29.13-55.37-15.1 3.02-29.74 5.94-44.55 8.9-.52-2.22-.97-4.13-1.58-6.73 8.02-1.69 15.91-3.36 23.8-5 6.5-1.36 13.04-2.56 19.48-4.13 1.13-.27 2.72-1.99 2.72-3.05.09-21.32-.02-42.65-.1-63.97 0-.11-.18-.22-.41-.47-10.54 3.73-21.11 7.6-31.77 11.21-5.34 1.81-10.81 3.24-16.27 4.65-1.35.35-2.89-.06-4.34-.11.91-1.11 1.59-2.63 2.76-3.27 13.85-7.65 27.74-15.16 41.62-22.69 26.07-14.13 51.43-29.38 74.76-47.8.77-.6 1.65-1.06 2.44-1.56 8.07 7.44 13.88 17.43 13.26 23.75-6-4.78-9.87.17-14.47 2.63-13.64 7.3-27.34 14.48-41.05 21.63-2.29 1.19-4.14 2.05-4.12 5.33.16 22 .08 43.99.1 65.99 0 .81.18 1.62.31 2.67 7.52-.66 14.33-1.57 18.11-9.57 2.53-5.35 6.37-10.08 9.76-15.28 8.34 4.63 16.41 9.23 24.62 13.57 1.31.69 3.52.89 4.8.26 25.11-12.21 50.15-24.54 75.14-36.99 1.3-.65 2.74-2.58 2.77-3.94.23-10.64.13-21.29.13-32.59-24.36 0-48.39 0-72.63 0 0-2.73 0-4.8 0-7.38h72.47c0-11.76 0-23.01 0-35.3 9.57 2.28 19.2 1.04 28.34 7.45-6.89 1.31-6.1 5.91-6.02 10.28.1 5.64.02 11.28.02 17.57 11.41-.45 22.47.96 32.91-.78-2.72-3.98-4.58-7.44-7.14-10.27-3.74-4.15-7.93-7.91-12.07-11.68-.74-.67-2.19-.56-2.63-1.5 16.71-4.44 30.37-.58 35.53 8.82 1.25-1.12 2.47-2.21 3.9-3.49 6.8 5.66 13.78 11.05 20.17 17.05 1.9 1.79 2.17 5.32 3.53 8.96-25.47.02-49.54.02-74.22.02zm20.11 207.8c-.02.64-.04 1.29-.06 1.93-1.39.87-2.75 1.8-4.18 2.59-23.22 12.84-48.01 21.91-73.01 30.44-4.62 1.58-9.41 2.53-9.88 9.72-7.81-7.64-9.41-17.02-14-25.76 8.72-1.77 16.6-3.37 24.42-4.95 0-11.32 0-22.32 0-33.78-1.53.8-2.52 1.36-3.55 1.85-12.88 6.15-25.75 12.31-38.67 18.37-.94.44-2.27.03-3.42.02.46-1.06.62-2.47 1.42-3.14 4.08-3.41 8.27-6.7 12.52-9.91 19.53-14.78 38.57-30.12 54.89-48.53 1.67-1.89 3.23-3.88 5.33-6.42-22.28 0-43.42 0-64.56 0 .17.4.34.81.5 1.21-1.54.97-2.97 2.44-4.65 2.82-18.92 4.26-37.86 8.45-56.85 12.42-3.25.68-4.27 1.87-4.25 5.2.13 30.49.05 60.97.09 91.46.01 6.68.95 7.55 7.45 7.7 1.5.04 3 .01 4.5.01h214.41c10.47 0 10.52.01 12.99-10.14 1.66-6.81 3.16-13.66 4.74-20.54-.87-.12-1.1-.22-1.19-.15-5.34 4.23-10.81 8.32-15.95 12.79-2.28 1.98-3.89 2.02-6.51.63-32.08-17.07-51.61-44.17-62.58-78.09-2.01-6.2-3.37-12.61-4.94-18.6-9.23 8.06-18.37 16.02-27.44 24.05-.78.69-1.58 1.87-1.59 2.84-.1 14.3-.07 28.6-.07 43.26 1.74-.27 3.03-.42 4.3-.67 14.95-2.98 29.9-6.02 44.87-8.92 1.56-.32 3.28.17 4.92.29z"/><path d="m189.43 77.73c1.18-.69 2.17-1.77 2.87-1.61 12.09 2.8 24.47 4.76 34.61 12.96 3.8 3.08 4.46 7.06 3.77 11.07-.83 4.86-5.89 8.39-11 7.91-4.18-.4-7.68-2.51-9.34-6.87-3.89-10.21-11.92-16.83-20.91-23.46z"/></g></svg>