<svg enable-background="new 0 0 400 400" viewBox="0 0 400 400" xmlns="http://www.w3.org/2000/svg"><g fill="#010105"><path d="m158 261.13c-12.19 0-23.67 0-35.93 0v5.33c0 20.66-.06 41.32.07 61.98.02 3.03-.69 4.77-3.63 6.07-6.01 2.66-11.82 5.78-18.41 9.06 0-27.8 0-54.84 0-82.23-12.4 0-24.3 0-36.92 0v5.27c0 24.99-.06 49.99.07 74.98.02 3.42-.85 5.43-4.13 6.91-5.85 2.65-11.47 5.82-17.75 9.07 0-79.17 0-157.65 0-236.7 6.12 3.1 11.92 6.25 17.92 8.97 2.62 1.18 5.64 2.05 8.48 2.06 27.66.15 55.32-.08 82.98.23 5.61.06 9.97-1.25 13.74-5.26 1.35-1.44 3.06-2.53 4.93-4.04 6.68 5.44 13.33 10.85 19.92 16.22-.35.56-.41.77-.53.83-8.5 4.53-8.83 12.05-8.79 20.64.31 54.98-.21 109.98.37 164.96.19 18.04-9.35 32.34-29.49 32.23 0-3.53 0-7.08 0-11.24-8.06-1.8-15.7-3.8-23.45-5.12-3.71-.63-3.69-2.42-3.12-5.75 7.83 0 15.61.01 23.39 0 9.54-.01 10.29-.75 10.29-10.09 0-19.49 0-38.99 0-58.48-.01-1.82-.01-3.62-.01-5.9zm-94.63-8.18h36.19c0-18.22 0-35.8 0-53.37-12.26 0-24.15 0-36.19 0zm94.34.3c0-18.07 0-35.82 0-53.65-11.99 0-23.69 0-35.45 0v53.65zm-58.19-61.44c0-17.8 0-35.15 0-52.32-12.3 0-24.18 0-36.01 0v52.32zm58.35-52.32c-12.19 0-23.88 0-35.48 0v52.12h35.48c0-17.53 0-34.66 0-52.12z"/><path d="m268.83 204.2c-13.43 0-26.22-.06-39 .1-1.23.02-2.64 1.22-3.64 2.21-4.17 4.07-8.21 8.27-12.06 12.19-6.2-6.31-12.21-12.43-18.55-18.88 2.27-1.96 5.05-4.77 8.22-7.01 3.63-2.56 5.35-5.94 6.53-10.1 7.82-27.61 15.84-55.17 23.77-82.75.45-1.56.78-3.15 1.33-5.42-14.72 0-28.93 0-43.48 0 0-2.71 0-4.79 0-7.33h46.05c6.02-20.67 11.94-41 18.05-61.99 8.15 5.16 17.54 6.78 24.11 14.74-6.34.61-6.89 5.22-8.1 9.51-3.46 12.28-7.07 24.52-10.84 37.53h5.67c15.33 0 30.66.12 45.99-.13 2.33-.04 5.16-1.22 6.86-2.83 5.2-4.91 9.96-10.28 15.27-15.88 7.76 6.4 15.06 12.09 21.88 18.31 1.43 1.3 1.09 4.55 1.77 7.93-2.64 0-4.54 0-6.45 0-29.49 0-58.98.05-88.48-.07-3.5-.01-5.25.8-6.27 4.46-8.79 31.45-17.81 62.84-26.75 94.25-.31 1.09-.48 2.22-.78 3.63h38.72c0-23.1 0-46.16 0-69.25 14.93.76 22.15 2.68 27.01 7.25-4.99 1.29-4.7 5.09-4.68 9 .1 17.16.06 34.32.08 51.49 0 .33.12.65.32 1.7 8.09 0 16.35.11 24.59-.12 1.19-.03 2.47-1.52 3.5-2.55 5.28-5.32 10.49-10.7 16-16.35 7.19 6.05 14.26 11.58 20.75 17.73 1.73 1.64 1.69 5.16 2.66 8.5-23.21 0-45.14 0-67.85 0v6.15c0 39.16-.04 78.31.02 117.47.03 17.11-8.85 31.1-30.11 30.98 0-3.58 0-7.17 0-11.01-12.72-1.94-25-3.8-37.6-5.72-.12-1.47-.24-2.9-.38-4.55.95-.22 1.72-.54 2.49-.54 11-.04 21.99-.01 32.99-.05 9.11-.03 10.41-1.35 10.41-10.33 0-38.66 0-77.31 0-115.97-.02-1.8-.02-3.62-.02-6.3z"/><path d="m116.13 100.41c9.66-16.04 20.19-30.78 27.07-48.26-32.3 0-63.89 0-95.88 0 0-2.37 0-4.43 0-7.32h5.56c28.15 0 56.31-.16 84.46.13 5.74.06 10.33-1.16 14.22-5.34 1.45-1.55 3.25-2.77 5.14-4.35 6.68 5.55 13.16 10.93 20.35 16.9-4.1 2.27-7.72 4.11-11.16 6.25-2.32 1.44-4.64 3.05-6.53 5-11.6 11.9-23.06 23.93-34.62 35.88-1.84 1.9-3.91 3.59-6.19 5.67 1.59 2.75 3.8 5.28 4.55 8.19.98 3.79 2.19 8.48.8 11.7-1.95 4.51-7.23 7.25-12.09 5.03-3.48-1.58-7.21-5.25-8.37-8.8-4.86-14.78-11.17-28.77-19.7-41.76-1.63-2.49-3.61-4.76-5.24-7.24-.6-.92-.68-2.18-1-3.29 1.16.1 2.51-.15 3.45.35 9.91 5.29 18.89 11.78 26.05 20.58 2.82 3.45 5.79 6.77 9.13 10.68z"/><path d="m359.71 315.49c-.87 5.85-4.34 10.3-8.76 10.72-6.03.58-11.73-3.19-13.01-9.01-6.46-29.38-18.87-56.29-33.86-82.14-.79-1.35-.82-3.15-1.2-4.73 1.57.56 3.39.78 4.67 1.73 18.82 14 31.02 33.16 41.15 53.78 3.72 7.57 6.54 15.59 9.62 23.46.76 1.94.94 4.11 1.39 6.19z"/><path d="m256.54 243.72c-6.99-.59-8.55 3.41-10.46 7.38-12.7 26.39-29.11 50.21-49.66 71.13-.47.47-.85 1.17-1.42 1.37-1.2.44-2.5.63-3.76.92.09-1.16-.15-2.49.33-3.46 4.87-9.82 9.71-19.66 14.85-29.35 9.88-18.65 17.82-38.08 24.01-58.24.48-1.56 1.1-3.07 1.9-5.28 7.74 5.21 17.29 6.53 24.21 15.53z"/></g><path d="m2.6 9.9.8-1c.9.7 1.9 1.4 2.9 2.3l-.9 1.1c-1.1-1-2-1.8-2.8-2.4zm.5 10.6c.9-2.1 1.6-4.3 2.3-6.7.4.2.8.4 1.3.6-.7 2.1-1.5 4.3-2.2 6.6zm.3-15.2.9-.9c1 .8 2 1.6 2.8 2.4l-1 1c-.9-.9-1.8-1.7-2.7-2.5zm12.6-1.2h1.2v1.4h2.7v1.1h-2.7v2.7h-1.2v-.6h-1.8v1.3h4.9v3.8h-1.2v-.5h-3.7c0 .4-.1.9-.1 1.2h5.1v1h-5.2c0 .5-.1.9-.2 1.2h6v1h-5.2c1.1 1.3 2.9 2 5.5 2.2-.4.4-.7.8-.9 1.3-2.9-.5-4.8-1.6-5.7-3.5h-.1c-.8 1.7-2.7 2.9-5.9 3.6-.2-.4-.6-.8-.9-1.1 2.8-.6 4.6-1.4 5.4-2.5h-4.8v-1h5.3c.1-.3.2-.7.2-1.2h-4.9v-1h5c0-.4 0-.8.1-1.2h-3.6v.5h-1.2v-3.8h4.9v-1.3h-1.8v.5h-1.2v-2.7h-2.7v-1h2.7v-1.4h1.2v1.4h4.8zm-6.7 8.3h3.6c0-.4 0-.9 0-1.4h-3.6zm1.9-4.6h4.8v-1.3h-4.7v1.3zm6.7 3.2h-4.7v1.4h3.7v-1.4z" fill="#fbfafa"/><path d="m8.7 22.1h1.3v2.2h2.8v-2.2h1.3v2.2h4.1v9.1h1.7v1.3h-17v-1.3h1.7v-9.1h4.1zm.3 13.1.7 1.2c-1.8.9-3.8 1.9-6 2.9-.2-.4-.5-.8-.8-1.3 2.3-1 4.4-1.9 6.1-2.8zm-3.1-6.4h2.8v-3.2h-2.8zm0 4.6h2.8v-3.3h-2.8zm4.1-4.6h2.8v-3.2h-2.8zm0 4.6h2.8v-3.3h-2.8zm3.6 1.9c2.1.9 4.1 1.8 6.1 2.7l-.7 1.4c-2.2-1.1-4.2-2-6.1-2.9zm3.2-9.8h-2.8v3.2h2.8v-3.1zm-2.7 7.9h2.8v-3.3h-2.8z" fill="#fbfafa"/></svg>