<svg enable-background="new 0 0 400 400" viewBox="0 0 400 400" xmlns="http://www.w3.org/2000/svg"><g fill="#010105"><path d="m73.16 302.57c3.51-20.69 6.86-40.44 10.38-61.2 5.17 3.83 9.69 7.33 14.39 10.55 1.54 1.06 3.56 1.99 5.37 1.99 27.66.12 55.33.08 82.99.07.64 0 1.28-.16 2.22-.29 0-7.01 0-13.92 0-21.43-32.43 0-64.83 0-97.26 0-.33-1.99-.57-3.41-.75-4.49-19.39 3.59-38.59 7.14-57.66 10.67-2.45-4.49 1.04-4.66 3.03-5.45 14.84-5.83 29.91-11.12 44.55-17.41 17.45-7.5 34.48-15.93 47.81-30.05 7.43 4.77 16.02 15.78 16.61 22.2-6.8-4.54-10.72 1.14-15.75 3.5-8.87 4.15-17.93 7.88-26.92 11.78-.71.31-1.41.63-2.07 1.71 1.53.07 3.06.2 4.6.21 57.33.01 114.65.05 171.98-.11 3.08-.01 6.15-1.71 10.34-2.96-8.02-5.59-14.91-9.63-20.84-14.77-4.94-4.28-9.04-9.64-12.93-14.95-1.77-2.41-3.45-3.01-6.12-3-30.5.06-60.99.04-91.49.04-1.98 0-3.97 0-6.32 0 0-2.16 0-4.03 0-6.58h5.87c21.5 0 43 .11 64.49-.14 2.63-.03 5.75-1.38 7.77-3.13 5.4-4.66 10.33-9.88 16.15-15.57-6.67-2.36-12.44-4.51-18.28-6.45-7.4-2.46-14.83-4.83-22.31-7.04-1.41-.42-3.47-.52-4.58.22-15.81 10.47-33.95 14.1-52.06 17.42-11.41 2.09-23.07 2.8-34.62 4.07-1.45.16-2.94.02-4.41.02-.23-.5-.46-1.01-.7-1.51 1.32-.76 2.56-1.79 3.99-2.25 13.9-4.46 27.94-8.52 41.72-13.33 12.09-4.22 23.81-9.34 33.81-17.75 4.98-4.19 7.02-9.04 5.37-15.68-32.83 0-65.75 0-99.24 0-.08 1.75-.22 3.5-.22 5.26-.02 13.17-.1 26.33.06 39.49.04 2.93-.9 4.54-3.53 5.75-6.01 2.77-11.89 5.8-18.29 8.96 0-26.05 0-51.71 0-77.91 5.55 2.86 10.85 5.91 16.42 8.33 3.24 1.4 6.92 2.51 10.4 2.52 65.99.15 131.98.03 197.98.23 6.02.02 11.03-.96 15.16-5.46 1.23-1.34 2.76-2.4 4.41-3.82 6.73 5.44 13.42 10.86 20.1 16.27-.21.44-.26.83-.46.94-7.26 3.79-9.14 9.79-8.49 17.69.68 8.28.04 16.65.21 24.98.06 2.83-.68 4.46-3.4 5.68-6.02 2.71-11.85 5.83-18.57 9.19 0-19.68 0-38.68 0-58.05-35.75 0-70.83 0-105.92 0-.07.12-.15.25-.22.37 2.35.6 4.69 1.28 7.06 1.78 2.44.52 5.01.57 7.33 1.37 2.41.83 4.59 2.31 6.15 3.12-4.22 5.04-8.1 9.68-12.88 15.39 9.35.85 17.11 1.05 24.68 2.35 15.85 2.72 31.68 5.67 47.31 9.37 3.07.73 6.29 4.9 7.55 8.2 1.8 4.72-.35 9.81-5.08 11.6-3.29 1.25-7.9.86-11.3-.44-7.53-2.87-14.66-6.76-21.96-10.24-.28.44-.55.88-.83 1.31 5.36 4.46 10.56 9.14 16.15 13.3 3.55 2.65 4.86 5.58 3.48 9.93-1.73.11-3.48.23-6.67.44 35.15 20.02 73.29 24.63 111.48 31.61-7.16 6.75-13.56 13.02-20.29 18.9-1.27 1.11-4.08 1.3-5.89.82-8.98-2.34-17.88-4.98-26.77-7.65-5.21-1.57-13.94 4.51-14.04 10.03-.09 4.5-.26 9.02.06 13.49.25 3.54-1.09 5.48-4.2 6.92-5.27 2.45-10.38 5.22-15.57 7.84-.42.21-.91.27-1.89.55-.16-3.59-.31-6.97-.48-10.59-23.44 0-46.52 0-69.95 0v25c1.81.08 3.72.25 5.64.25 29.33.02 58.66-.18 87.99.17 6.17.07 10.94-1.5 15.15-5.72 1.27-1.27 2.81-2.26 4.43-3.54 6.73 5.5 13.24 10.81 20.79 16.97-9.12 1.99-10.68 8.05-11.18 15.22-.6 8.58-4.8 15.42-11.78 20.53-10.33 7.55-21.65 12.12-35.46 11.97 0-1.78-.26-3.41.05-4.92 1.14-5.6-1.61-7.46-6.71-8.27-5.39-.85-10.64-2.57-16.11-3.95 0-1.62 0-3.07 0-4.75.95-.12 1.91-.31 2.87-.35 9.3-.33 18.63-.25 27.88-1.13 3.78-.36 7.5-2.52 11.02-4.29 8.8-4.42 6.78-12.55 6.86-20.28-33.91 0-67.5 0-101.79 0v5.35c0 14.5-.19 29 .12 43.49.09 4.18-1.37 6.21-4.99 7.79-5.61 2.44-11.03 5.34-17.17 8.36 0-18.5 0-36.37 0-55.24-50.16 24.39-102.24 39.1-156.73 45.19-.29-.57-.57-1.14-.86-1.71 1.37-.85 2.64-1.99 4.13-2.52 25.48-8.98 51.21-17.33 76.42-27 16.25-6.23 31.77-14.38 47.6-21.69.82-.38 1.55-.97 3.58-2.28-7.39 0-13.32 0-19.24 0-5.83 0-11.69.31-17.49-.06-16.35-1.04-32.24.47-47.43 7.09-1.55.75-3.37.97-5.81 1.59zm115.28-16.29c0-8.75 0-16.83 0-25.01-28.65 0-56.91 0-85.55 0-1.51 8.34-2.99 16.54-4.52 25.01zm22.79-32.64h70.04c0-7.28 0-14.2 0-21.2-23.51 0-46.7 0-70.04 0z"/><path d="m91.49 24.19c7.74 5.46 17.55 6.51 23.56 14.93-10.83 2.18-9.78 13.05-16.61 19.36 2.68.22 4.05.44 5.42.44 19.99.02 39.99.12 59.97-.12 2.46-.03 5.39-1.41 7.25-3.1 5.3-4.79 10.17-10.06 15.62-15.55 7.26 6.13 14.51 11.91 21.27 18.23 1.41 1.32 1 4.58 1.54 7.58-30.53 0-60.38 0-90.24 0-.08.37-.17.73-.25 1.1 2.36.96 4.72 1.9 7.06 2.88 11.48 4.82 21.96 11.05 29.82 21.04 3.01 3.82 3.1 8.18 1.4 12.14-1.88 4.4-5.91 7.49-10.8 5.74-3.37-1.2-7.36-3.89-8.73-6.96-6.9-15.53-19.51-25.43-32.78-34.71-4.59-3.21-10.73-1.31-14.22 3.3-14.81 19.58-33.44 34.65-54.86 46.4-1.09.6-2.63.4-3.96.58.55-1.36.78-3.01 1.71-4.05 8.42-9.44 17.28-18.5 25.38-28.19 14.22-17.01 25.28-35.81 30.96-57.45.24-.95.75-1.83 1.49-3.59z"/><path d="m268.1 67.05c3.14 1.28 6.25 2.62 9.42 3.82 9.85 3.73 17.8 10.18 25.45 17.19 3.83 3.51 4.7 7.97 4.84 12.57.18 5.78-10 10.96-14.86 7.51-2.56-1.82-4.95-4.5-6.3-7.32-7.11-14.89-19.42-24.72-32.47-33.74-4.41-3.05-11.28-.92-14.8 3.15-15.22 17.63-33.18 31.65-54.75 40.76-.98.41-2.29.05-3.45.05.46-1.09.65-2.46 1.42-3.24 8.76-8.88 17.86-17.44 26.38-26.55 13.94-14.91 24.07-32.14 29.92-51.78.33-1.11.71-2.21 1.14-3.28.17-.42.55-.77.82-1.12 10.1 3.11 19.98 9.04 23.22 14.15-11.02 1.47-9.88 12.89-16.8 19.15 2.31.28 3.51.54 4.7.54 21.16.03 42.32.1 63.48-.1 2.17-.02 4.8-1.19 6.41-2.69 5.36-4.97 10.36-10.33 15.96-16.01 7.34 6.21 14.58 12 21.33 18.32 1.38 1.3.89 4.59 1.36 7.59-31.21 0-61.72 0-92.24 0-.04.35-.11.69-.18 1.03z"/></g><path d="m2.6 9.9.8-1c.9.7 1.9 1.4 2.9 2.3l-.9 1.1c-1.1-1-2-1.8-2.8-2.4zm.5 10.6c.9-2.1 1.6-4.3 2.3-6.7.4.2.8.4 1.3.6-.7 2.1-1.5 4.3-2.2 6.6zm.3-15.2.9-.9c1 .8 2 1.6 2.8 2.4l-1 1c-.9-.9-1.8-1.7-2.7-2.5zm12.6-1.2h1.2v1.4h2.7v1.1h-2.7v2.7h-1.2v-.6h-1.8v1.3h4.9v3.8h-1.2v-.5h-3.7c0 .4-.1.9-.1 1.2h5.1v1h-5.2c0 .5-.1.9-.2 1.2h6v1h-5.2c1.1 1.3 2.9 2 5.5 2.2-.4.4-.7.8-.9 1.3-2.9-.5-4.8-1.6-5.7-3.5h-.1c-.8 1.7-2.7 2.9-5.9 3.6-.2-.4-.6-.8-.9-1.1 2.8-.6 4.6-1.4 5.4-2.5h-4.8v-1h5.3c.1-.3.2-.7.2-1.2h-4.9v-1h5c0-.4 0-.8.1-1.2h-3.6v.5h-1.2v-3.8h4.9v-1.3h-1.8v.5h-1.2v-2.7h-2.7v-1h2.7v-1.4h1.2v1.4h4.8zm-6.7 8.3h3.6c0-.4 0-.9 0-1.4h-3.6zm1.9-4.6h4.8v-1.3h-4.7v1.3zm6.7 3.2h-4.7v1.4h3.7v-1.4z" fill="#fbfafa"/><path d="m8.7 22.1h1.3v2.2h2.8v-2.2h1.3v2.2h4.1v9.1h1.7v1.3h-17v-1.3h1.7v-9.1h4.1zm.3 13.1.7 1.2c-1.8.9-3.8 1.9-6 2.9-.2-.4-.5-.8-.8-1.3 2.3-1 4.4-1.9 6.1-2.8zm-3.1-6.4h2.8v-3.2h-2.8zm0 4.6h2.8v-3.3h-2.8zm4.1-4.6h2.8v-3.2h-2.8zm0 4.6h2.8v-3.3h-2.8zm3.6 1.9c2.1.9 4.1 1.8 6.1 2.7l-.7 1.4c-2.2-1.1-4.2-2-6.1-2.9zm3.2-9.8h-2.8v3.2h2.8v-3.1zm-2.7 7.9h2.8v-3.3h-2.8z" fill="#fbfafa"/></svg>