<svg enable-background="new 0 0 400 400" viewBox="0 0 400 400" xmlns="http://www.w3.org/2000/svg"><g fill="#010105"><path d="m165.69 352.92c-7.33-5.25-14.65-10.5-22.78-16.33 4.72-3.61 8.73-6.71 12.78-9.76 7.84-5.92 15.75-11.75 23.5-17.78 1.26-.98 2.62-2.82 2.63-4.28.15-31.32.11-62.64.11-94.37-7.77 0-15.32 0-22.46 0-1.58 3.07-2.55 6.53-4.71 8.89-6.96 7.58-16.54.92-17.88-7.1-.76-4.54-1.68-9.04-2.58-13.83-8.26 3.39-15.96 6.37-23.44 9.83-1.11.51-1.63 3.3-1.63 5.04-.09 42.83-.16 85.67.05 128.5.02 4.71-1.39 7.17-5.65 8.94-5.47 2.27-10.67 5.2-16.62 8.16 0-48.11 0-95.38 0-143.04-10.1 2.43-19.71 4.92-29.41 7.02-4.9 1.06-10.08 1.26-10.92 8.65-8.16-7.63-7.25-17.73-11.77-26.65 5.65-.69 10.33-1.43 15.04-1.79 14.53-1.13 14.43-1.13 21.2-14.3 17.18-33.43 34.49-66.79 51.69-100.21 2.96-5.75 5.6-11.66 8.79-18.33 7.25 6 16.87 8.21 22.04 18.25-8.07-1.05-9.79 4.97-12.57 9.57-20.84 34.48-42.31 68.53-67.33 100.19-.39.49-.64 1.08-1.47 2.52 20.38-2.88 39.97-5.66 60.57-8.57-2.36-6.38-4.31-12.64-6.99-18.57-2.93-6.48-6.59-12.63-9.8-18.98-.6-1.19-.58-2.69-1.11-5.4 11.87 7.49 20.83 15.77 27.38 26.28 4.73 7.59 8.67 15.68 12.64 23.71 1.21 2.46 2.45 3.76 5.21 3.45 1.32-.14 2.66-.05 4-.02 10.5.29 21.33 1.61 28.02-9.99 7.26 5.98 13.77 11.35 20.58 16.96-.9 1-1.46 2.12-2.35 2.56-6.09 2.94-6.57 8.05-6.52 14.08.21 23.82-.03 47.65-.04 71.47 0 1 .44 2.15 1.02 2.99 12.52 18.04 30.81 26.31 51.75 27.93 19.84 1.53 39.85 1.38 59.78 1.07 15.11-.23 30.2-1.89 45.29-2.89 1.28-.08 2.56-.01 5.01-.01-6.23 8.68-11.85 16.62-17.67 24.42-.59.79-2.37.95-3.6.95-20.29.02-40.61.57-60.87-.23-19.47-.77-38.52-4.3-56.28-13.16-14.74-7.35-23.71-19.38-29.43-34.33-.35-.92-.73-1.84-1.47-3.7-1.49 2.47-2.49 4.42-3.76 6.19-6.97 9.75-13.91 19.51-21.04 29.14-3.42 4.62-8.07 8.62-5.14 15.59-.58.41-1.18.84-1.79 1.27z"/><path d="m335.82 71.14c1.4.66 2.98 1.09 4.15 2.02 5.07 4.06 10 8.29 15.02 12.42 4.63 3.8 4.65 3.78 3.62 10.5-21.2 0-42.47 0-64.14 0v82.99c13.12-20.32 25.65-39.72 38.61-59.8 6.24 6.97 15.9 10.23 19.63 21.16-5.88-2.75-8.81.06-11.87 3.45-13.44 14.86-27.88 28.61-45.05 39.22-.88.54-1.64 2.02-1.66 3.08-.14 7.3-.08 14.6-.08 21.29 2.23.65 4.1.82 5.56 1.69 18.23 10.79 34.17 24.3 47.18 41.05 2.2 2.83 3.22 6.62 4.56 10.06 1.79 4.61-1.85 7.6-4.55 9.51-2.24 1.58-6.7 1.82-9.27.65-3-1.35-5.79-4.48-7.33-7.52-9.58-18.92-21.97-35.88-36.15-52.16v5.17c0 23.33.08 46.66-.05 69.99-.04 6.81-.7 13.57-4.71 19.54-5.96 8.87-14.46 12.31-25.19 11.92 0-3.4 0-6.86 0-10.77-11.47-1.95-22.66-3.84-33.93-5.76 0-1.72 0-3.13 0-5.01 9.2 0 18.17.01 27.13-.01 2.33 0 4.69.13 6.99-.18 6.31-.83 7.61-2.32 7.61-8.68.02-62.32.01-124.65 0-186.97 0-.99-.11-1.99-.2-3.62-19.75 0-39.46 0-59.44 0 0-2.71 0-4.77 0-7.25h59.44c0-19.97 0-39.54 0-59.09 11.54-.49 22.46 2.16 27.3 6.63-4.48 1.45-5.12 4.71-5.04 8.94.25 14.28.1 28.57.1 43.38 7.92 0 15.37.08 22.81-.09 1.11-.03 2.38-1.04 3.27-1.92 5.32-5.27 10.55-10.63 15.81-15.97 0 .01-.13.14-.13.14z"/><path d="m93.72 26.84c7.57 6.12 17.07 8.17 22.56 17.44-6.44-.67-8.56 3.3-10.8 7.24-10.87 19.12-23.3 37.16-37.28 52.86 6.58 10 13.08 19.52 19.18 29.29 2.91 4.65 1.89 10.07-1.73 13.53-6.23 5.96-16.51 3.29-18.47-5.3-4.5-19.76-14.99-35.98-28.46-50.62-.81-.88-.93-2.39-1.37-3.6.47-.36.94-.71 1.41-1.07 8.2 4.88 16.4 9.76 24.99 14.87 9.78-24.34 19.68-49.01 29.97-74.64z"/><path d="m56.28 238.41c8.96 4.12 19.18 3.22 26.75 10.94-4.29 1.48-6.27 3.53-7.28 7.93-5.86 25.34-14.1 49.85-28.59 71.8-2.47 3.74-5.23 7.3-8 10.83-.7.89-1.96 1.34-2.97 1.99-.19-1.29-.83-2.72-.49-3.86 3.26-10.98 6.79-21.89 10.05-32.87 6.13-20.65 9.28-41.79 10.19-63.29.04-.84.16-1.66.34-3.47z"/><path d="m157.83 298.74c-.4 8.38-7.15 15-14.5 11.15-3.16-1.66-6.62-5.62-7.14-8.98-3.45-22.25-8.74-43.83-19.4-63.86-.42-.78-.01-2 .01-3.01.99.29 2.18.32 2.96.9 14.32 10.6 23.54 25.04 30.33 41.16 2.63 6.24 4.54 12.79 6.75 19.2.42 1.24.72 2.52.99 3.44z"/><path d="m212.78 269.85c18.2-19.9 35.59-38.92 53.03-57.89.75-.82 2.04-1.13 3.07-1.69.09 1.29.6 2.74.2 3.86-6.57 18.63-16.82 35.35-27.12 52.04-2.93 4.75-6.71 9.21-2.61 15.64-10.95-.66-17.6-8.19-26.57-11.96z"/><path d="m152.59 111.56c1.96.1 3.41-.18 4.54.28 16.83 6.9 29.72 18.68 40.49 33.02 3.21 4.28 1.34 13.08-3.28 15.87-4.97 3.01-12.69-.04-15.86-5.99-5.47-10.25-10.98-20.49-16.79-30.55-2.38-4.12-5.57-7.78-9.1-12.63z"/><path d="m259.32 178.37c-6.03-.7-9.61-3.43-11.19-7.82-5.45-15.21-14.34-28.41-23.37-41.57-.71-1.04-.85-2.47-1.25-3.73 1.28.33 2.72.39 3.81 1.04 14.82 8.85 28.45 19.12 38.72 33.27 4.31 5.93 4.26 11.56-.62 15.87-1.83 1.62-4.55 2.23-6.1 2.94z"/><path d="m211 84.14c-.84 5.01-4.13 9.54-8.05 10.26-6.4 1.18-12.06-1.86-13.93-7.94-3.92-12.81-10.34-24.35-17.68-35.43-1.09-1.65-2.47-3.12-3.52-4.79-.52-.83-.62-1.93-.91-2.91 1.14.03 2.58-.39 3.36.15 8.28 5.73 16.8 11.21 24.55 17.62 4.66 3.85 8.32 9.03 11.95 13.96 1.94 2.63 2.85 6.02 4.23 9.08z"/><path d="m335.95 71.01c-2.36 1.33-4.57 3.3-7.1 3.86-6.07 1.35-10.75-1.7-13.03-10.09-2.95-10.88-6.17-21.65-13.61-30.56-.46-.55-.25-1.65-.35-2.49.84-.02 1.79-.31 2.52-.03 12.67 4.86 22.09 13.62 29.9 24.51 3.51 4.89 3.54 9.69 1.54 14.93 0 0 .13-.13.13-.13z"/></g><path d="m2.6 9.9.8-1c.9.7 1.9 1.4 2.9 2.3l-.9 1.1c-1.1-1-2-1.8-2.8-2.4zm.5 10.6c.9-2.1 1.6-4.3 2.3-6.7.4.2.8.4 1.3.6-.7 2.1-1.5 4.3-2.2 6.6zm.3-15.2.9-.9c1 .8 2 1.6 2.8 2.4l-1 1c-.9-.9-1.8-1.7-2.7-2.5zm12.6-1.2h1.2v1.4h2.7v1.1h-2.7v2.7h-1.2v-.6h-1.8v1.3h4.9v3.8h-1.2v-.5h-3.7c0 .4-.1.9-.1 1.2h5.1v1h-5.2c0 .5-.1.9-.2 1.2h6v1h-5.2c1.1 1.3 2.9 2 5.5 2.2-.4.4-.7.8-.9 1.3-2.9-.5-4.8-1.6-5.7-3.5h-.1c-.8 1.7-2.7 2.9-5.9 3.6-.2-.4-.6-.8-.9-1.1 2.8-.6 4.6-1.4 5.4-2.5h-4.8v-1h5.3c.1-.3.2-.7.2-1.2h-4.9v-1h5c0-.4 0-.8.1-1.2h-3.6v.5h-1.2v-3.8h4.9v-1.3h-1.8v.5h-1.2v-2.7h-2.7v-1h2.7v-1.4h1.2v1.4h4.8zm-6.7 8.3h3.6c0-.4 0-.9 0-1.4h-3.6zm1.9-4.6h4.8v-1.3h-4.7v1.3zm6.7 3.2h-4.7v1.4h3.7v-1.4z" fill="#fbfafa"/><path d="m8.7 22.1h1.3v2.2h2.8v-2.2h1.3v2.2h4.1v9.1h1.7v1.3h-17v-1.3h1.7v-9.1h4.1zm.3 13.1.7 1.2c-1.8.9-3.8 1.9-6 2.9-.2-.4-.5-.8-.8-1.3 2.3-1 4.4-1.9 6.1-2.8zm-3.1-6.4h2.8v-3.2h-2.8zm0 4.6h2.8v-3.3h-2.8zm4.1-4.6h2.8v-3.2h-2.8zm0 4.6h2.8v-3.3h-2.8zm3.6 1.9c2.1.9 4.1 1.8 6.1 2.7l-.7 1.4c-2.2-1.1-4.2-2-6.1-2.9zm3.2-9.8h-2.8v3.2h2.8v-3.1zm-2.7 7.9h2.8v-3.3h-2.8z" fill="#fbfafa"/></svg>