<svg enable-background="new 0 0 400 400" viewBox="0 0 400 400" xmlns="http://www.w3.org/2000/svg"><g fill="#010105"><path d="m191.17 279.21c0 17.91-.69 36.09.27 54.18.53 9.96-2.07 16-11.84 18.69-2.8.77-5.34 2.48-8.4 3.95 0-50.84 0-101.19 0-152.03 2.06.94 3.97 1.54 5.59 2.58 9.45 6.06 19.67 7.57 30.85 7.43 38.48-.49 76.98-.32 115.46-.05 5.94.04 10.67-1.15 14.53-5.67 1.06-1.25 2.46-2.21 3.98-3.55 6.41 5.39 12.73 10.71 18.94 15.93-.24.69-.26 1.13-.45 1.21-7.53 3.41-8.34 9.51-8.22 17.06.42 28.15.22 56.31.12 84.47-.01 4.13-.41 8.32-1.15 12.39-2.26 12.33-10.95 19.39-24.39 20.05-.18-.39-.51-.81-.54-1.25-.59-8.94-.58-8.92-9.32-10.43-6.38-1.1-12.75-2.24-19.57-3.45-.15-1.26-.31-2.67-.49-4.22.87-.27 1.46-.63 2.06-.63 8.16-.05 16.33-.04 24.49-.07 6.97-.02 8.45-1.42 8.46-8.53.05-22.49.02-44.99.02-67.48 0-11 0-21.99 0-32.99 0-1.79 0-3.57 0-5.55-14.63 0-28.59 0-43.42 0 0 4.43.04 8.85-.01 13.27-.05 4.16.02 8.34-.39 12.47-.54 5.55 1.17 8.41 6.73 8.79 6.14.43 12.34.43 18.47.01 1.65-.11 3.25-2.32 4.69-3.75 1.79-1.77 3.38-3.72 5.06-5.59.46.34.93.68 1.39 1.02-.96 2.72-1.92 5.43-3 8.47.66.57 1.55 1.07 2.07 1.83 1.31 1.92 3.89 5.19 3.42 5.74-1.98 2.32-4.74 5.06-7.49 5.39-6.34.78-12.84.25-20.92.25 6.92 6.09 12.67 11.15 19.13 16.84-10.81 2.97-11.13 11.1-9.79 19.25 2.02 12.3-2.42 19.86-14.45 23.12-1.87.51-3.56 1.65-5.94 2.8 0-3.52 0-6.56 0-10.17-6.43 0-12.38 0-18.32 0-2 0-4 .04-6-.01-16.47-.4-33.12-1.71-47.75 11.66 0-21.66 0-41.32 0-60.98-8.03 2.55-15.57 4.93-23.88 7.55zm104.96-9.57c-22.44-1.44-30.19-9.84-30.19-31.87 0-5.44 0-10.87 0-16.25-4.3 0-7.93 0-12.11 0 1.42 1.62 2.38 2.7 4.03 4.58-7-.03-7.6 5.27-9.77 9.46-3.05 5.86-5.97 12.01-10.2 16.97-5.41 6.36-12.06 11.65-18.27 17.49 7.73 3.73 15.37 8.95 25.68 8.13 11.25-.9 22.67-.78 33.95 0 7.55.5 12.09-3.01 16.88-8.51zm-9.36 15.78c-17.11 0-33.86 0-50.94 0v28.23h50.94c0-9.39 0-18.51 0-28.23zm-95.6-64.07v26.41 26c20.69-8.96 39.46-32.86 38.45-52.41-12.57 0-25.15 0-38.45 0z"/><path d="m285.75 78.84v29.08c8.98 0 17.62.11 26.26-.11 1.36-.03 2.93-1.32 3.99-2.42 4.46-4.7 8.76-9.55 13.32-14.57 5.81 5.3 11.67 10.21 16.94 15.69 1.65 1.71 1.68 4.98 2.68 8.28-21.65 0-42.23 0-63.17 0v28.13c9.04 0 17.84.11 26.62-.12 1.35-.03 2.88-1.4 3.95-2.51 4.26-4.42 8.38-8.98 12.95-13.93 5.98 5.32 12 10.25 17.42 15.77 1.49 1.52 1.19 4.8 1.87 7.98-21.41 0-41.97 0-62.83 0v31.69c14.99 0 29.62.07 44.25-.11 1.35-.02 2.93-1.37 3.99-2.49 4.44-4.7 8.73-9.55 13.22-14.51 5.96 5.37 11.87 10.25 17.16 15.74 1.64 1.7 1.57 5.04 2.54 8.57-2.97 0-4.89 0-6.8 0-47.16 0-94.33.08-141.49-.09-6.02-.02-11.42.97-16.64 3.99-4.27 2.47-8.87 4.38-14.01 6.87 0-35.11 0-69.48 0-104.8-2.99 2.22-5.16 3.93-7.43 5.52-8.99 6.29-17.98 12.58-27.06 18.74-1.14.77-2.84.73-4.28 1.07.52-1.39.7-3.07 1.61-4.12 10.41-12.12 20.85-24.21 31.46-36.15 4.04-4.55 6.9-9.27 5.74-15.64-.2-1.08.09-2.25.18-3.75 2.27.85 4.24 1.59 6.9 2.58 6.36-11.65 12.69-23.25 19.03-34.87 9.33 3.45 19.49 11.36 21.15 17-6.5-1.68-8.26 3.36-10.87 7.32-2.11 3.19-4.31 6.31-6.55 9.41-2.11 2.91-4.32 5.74-7.19 9.53h10.4c13.83 0 27.67-.19 41.49.11 4.46.09 7.11-1.6 9.33-5.15 7.67-12.23 15.47-24.37 23.49-36.98 5.59 6.18 15.75 8.75 19.34 20.16-6.98-3.22-10.81.39-15.11 3.76-7.7 6.04-15.81 11.56-24.87 18.1h12.72c8.83-.01 18.56 2.29 26.24-.69 7.59-2.95 13.11-11.23 19.54-17.16.36-.33.82-.56 1.55-1.04 6.93 5.85 14.12 11.52 20.73 17.81 1.62 1.54 1.36 5.07 2.11 8.34-24.39-.03-47.98-.03-71.87-.03zm-22.5 102.74c0-10.45 0-20.65 0-31.07-17.63 0-34.96 0-52.44 0v31.07zm-.11-73.79c0-9.85 0-19.2 0-28.51-17.71 0-34.97 0-52.28 0v28.51zm-52.37 7.42v27.49h52.45c0-9.29 0-18.35 0-27.49-17.64 0-34.92 0-52.45 0z"/><path d="m87.78 358.3c0-48.48 0-96.1 0-144.47-5.98 1.54-11.49 2.98-17.01 4.36-4.34 1.08-8.69 2.17-13.07 3.09-4.58.96-9.32 1.56-10.04 8.52-7.93-7.98-7.78-18.01-11.91-26.83 8.06-.75 15.49-1.52 22.92-2.12 4.22-.34 7.06-1.72 9.19-6 19.96-40.19 40.21-80.23 60.37-120.32 1.11-2.21 2.15-4.45 3.55-7.37 7.25 5.93 16.46 8.75 22.44 18.34-7.19-1.75-8.79 2.84-11.03 6.71-20.44 35.29-42.09 69.79-67.26 101.95-.99 1.27-1.84 2.66-3.58 5.2 20.59-3.09 39.98-5.99 60.65-9.09-3.15-8.31-5.9-16.21-9.16-23.89-2.07-4.88-4.99-9.39-7.36-14.15-.55-1.11-.41-2.56-.59-3.86 1.28.39 2.77.49 3.8 1.22 18.77 13.39 29.97 32.14 37.45 53.44.83 2.36 1.29 5.07 1.05 7.53-.5 5.1-5.32 10.38-8.82 10.34-6.3-.06-11.55-4.73-12.54-10.97-.67-4.22-1.54-8.4-2.4-13.1-7.81 3.17-15.22 5.98-22.42 9.28-1.15.53-1.85 3.2-1.86 4.89-.12 23.99-.08 47.98-.08 71.97 0 19.99-.08 39.99.08 59.98.03 3.31-.9 5.03-4.04 6.37-5.93 2.55-11.62 5.66-18.33 8.98z"/><path d="m40.05 84.01c7.98 4.75 15.96 9.49 24.44 14.54 9.73-24.44 19.63-49.31 29.78-74.82 7.31 5.87 17.43 7.47 22.86 17.71-6.96-1.96-8.91 2.35-11.26 6.48-10.93 19.26-22.75 37.92-37.6 54.23 5.03 6.9 10.1 13.42 14.68 20.28 3.37 5.05 6.64 10.12 6.3 16.91-.23 4.65-3.22 6.91-6.19 8.12-2.63 1.07-6.97.72-9.25-.87-2.85-1.99-5.42-5.63-6.26-9.02-4.66-18.79-14.73-34.37-27.35-48.61-.9-1.02-1.36-2.43-2.02-3.65.63-.44 1.25-.87 1.87-1.3z"/><path d="m57.21 237.58c8.86 3.42 18.56 3.31 27.18 10.38-8.78 1.73-7.93 8.4-9.23 13.77-6.79 28-17.09 54.41-34.73 77.55-.7.91-1.5 1.74-3.72 2.61-.07-1.66-.56-3.44-.13-4.96 4.48-16.11 9.89-32.01 13.45-48.32 3.06-14.01 4.06-28.48 5.98-42.74.34-2.61.75-5.2 1.2-8.29z"/><path d="m115.6 232.1c2.47.82 4.3.94 5.46 1.89 15.98 13.02 25.42 30.4 32.14 49.42 1.94 5.5 3.61 11.4 3.76 17.15.15 5.8-4.83 9.83-9.62 9.68-6.08-.19-10.69-4.11-11.4-10.21-1.87-15.86-5.22-31.36-10.98-46.27-2.63-6.8-5.77-13.39-9.36-21.66z"/></g><path d="m2.6 9.9.8-1c.9.7 1.9 1.4 2.9 2.3l-.9 1.1c-1.1-1-2-1.8-2.8-2.4zm.5 10.6c.9-2.1 1.6-4.3 2.3-6.7.4.2.8.4 1.3.6-.7 2.1-1.5 4.3-2.2 6.6zm.3-15.2.9-.9c1 .8 2 1.6 2.8 2.4l-1 1c-.9-.9-1.8-1.7-2.7-2.5zm12.6-1.2h1.2v1.4h2.7v1.1h-2.7v2.7h-1.2v-.6h-1.8v1.3h4.9v3.8h-1.2v-.5h-3.7c0 .4-.1.9-.1 1.2h5.1v1h-5.2c0 .5-.1.9-.2 1.2h6v1h-5.2c1.1 1.3 2.9 2 5.5 2.2-.4.4-.7.8-.9 1.3-2.9-.5-4.8-1.6-5.7-3.5h-.1c-.8 1.7-2.7 2.9-5.9 3.6-.2-.4-.6-.8-.9-1.1 2.8-.6 4.6-1.4 5.4-2.5h-4.8v-1h5.3c.1-.3.2-.7.2-1.2h-4.9v-1h5c0-.4 0-.8.1-1.2h-3.6v.5h-1.2v-3.8h4.9v-1.3h-1.8v.5h-1.2v-2.7h-2.7v-1h2.7v-1.4h1.2v1.4h4.8zm-6.7 8.3h3.6c0-.4 0-.9 0-1.4h-3.6zm1.9-4.6h4.8v-1.3h-4.7v1.3zm6.7 3.2h-4.7v1.4h3.7v-1.4z" fill="#fbfafa"/><path d="m8.7 22.1h1.3v2.2h2.8v-2.2h1.3v2.2h4.1v9.1h1.7v1.3h-17v-1.3h1.7v-9.1h4.1zm.3 13.1.7 1.2c-1.8.9-3.8 1.9-6 2.9-.2-.4-.5-.8-.8-1.3 2.3-1 4.4-1.9 6.1-2.8zm-3.1-6.4h2.8v-3.2h-2.8zm0 4.6h2.8v-3.3h-2.8zm4.1-4.6h2.8v-3.2h-2.8zm0 4.6h2.8v-3.3h-2.8zm3.6 1.9c2.1.9 4.1 1.8 6.1 2.7l-.7 1.4c-2.2-1.1-4.2-2-6.1-2.9zm3.2-9.8h-2.8v3.2h2.8v-3.1zm-2.7 7.9h2.8v-3.3h-2.8z" fill="#fbfafa"/></svg>