<svg enable-background="new 0 0 400 400" viewBox="0 0 400 400" xmlns="http://www.w3.org/2000/svg"><g fill="#010105"><path d="m284.53 288.6c0-5.45 0-9.74 0-14.31-23.85 0-47.27 0-71.08 0v30.3c1.6.07 3.35.22 5.11.22 32 .01 63.99.08 95.99-.13 2.61-.02 5.77-1.4 7.72-3.19 5.37-4.93 10.23-10.42 15.48-15.88 7.66 6.37 14.87 11.98 21.54 18.17 1.65 1.53 1.56 4.93 2.44 8.07-50.02 0-98.96 0-148.66 0 0 8.95-.28 17.56.11 26.13.22 4.65-1.2 7.27-5.53 9.09-5.47 2.3-10.64 5.28-16.66 8.34 0-14.79 0-28.83 0-43.28-49.44 0-98.36 0-147.64 0 0-2.47 0-4.53 0-7.24h147.3c0-10.55 0-20.45 0-30.63-23.77 0-47.35 0-71.34 0 .82 4.38-1.77 6.18-5.19 7.72-5.57 2.5-10.97 5.37-16.89 8.3 0-37.56 0-74.46 0-112.1 6.56 3.34 12.69 6.56 18.92 9.58 1.89.91 4.05 1.73 6.1 1.74 21.83.12 43.66.07 65.49.06.81 0 1.63-.15 2.8-.26 0-9.54 0-18.93 0-28.94-22.29 0-44.68 0-67.39 0 0-2.66 0-4.73 0-7.38h67.73c0-11.48 0-22.4 0-33.9 9.38 2.66 19.17 1.18 27.73 7.67-6.09 1.43-5.69 5.68-5.58 9.94.13 5.15.03 10.3.03 16.18 8.86 0 17.45.1 26.03-.11 1.21-.03 2.52-1.45 3.54-2.47 5.2-5.16 10.33-10.39 15.88-16.01 7.37 6.04 14.72 11.69 21.52 17.93 1.46 1.34.99 4.8 1.5 7.84-23.1 0-45.37 0-68.06 0v29.25c1.71.09 3.62.27 5.53.27 18.5.02 37-.31 55.49.18 7 .18 12.76-1.24 17.36-6.45 2.69-3.05 4.98-2.82 7.91-.24 5.25 4.61 10.75 8.93 16.87 13.97-11.13 3.92-9.7 12.93-9.63 21.6.15 18.16-.07 36.33.15 54.49.04 3.57-1.2 5.33-4.26 6.7-5.86 2.62-11.6 5.53-18.36 8.78zm-93.74-54.24c-23.99 0-47.53 0-71.34 0v31.83h71.34c0-10.7 0-21 0-31.83zm93.48.07c-23.83 0-47.35 0-70.93 0v31.75h70.93c0-10.83 0-21.24 0-31.75zm-164.83-7.88h71.21c0-10.01 0-19.75 0-29.67-23.84 0-47.52 0-71.21 0zm164.89-29.67c-24 0-47.51 0-70.85 0v29.59h70.85c0-9.97 0-19.58 0-29.59z"/><path d="m201.57 60.17c-40.07 61.09-97.8 95.24-166.77 112.5-.4-.55-.79-1.09-1.19-1.64 1.31-.93 2.53-2.03 3.94-2.76 18.93-9.68 38.5-18.26 56.7-29.14 43.75-26.12 78.14-61.2 98.69-108.62.79-1.81 1.73-3.56 2.93-6.01 7.38 6.05 17.32 7.95 22.34 16.88-2.75.67-5.89.49-6.94 1.88-2.65 3.55-4.47 7.76-6.36 11.83-.28.61.6 2.12 1.34 2.78 19.48 17.43 39.2 34.57 61.94 47.79.28.16.62.21 2.2 1.12 15.19-23.67 30.38-47.35 45.61-71.08 9.89 5.31 16.96 11.27 19.97 17.58-7.19-2.09-9.3 3.45-12.38 7.5-13.57 17.8-28.46 34.31-46.42 47.84-.36.27-.59.71-1.07 1.31 28.4 17.96 59.95 28.14 92.48 38.92-7.27 6.31-13.8 12.08-20.49 17.64-.71.59-2.52.3-3.62-.12-47.49-18.01-89.87-43.84-124.33-81.67-3.46-3.8-6.48-8.02-9.58-12.14-3-3.95-5.84-8.02-8.99-12.39z"/><path d="m112.06 35.08c.31 4.58 1.02 9.17.85 13.73-.75 20.35-7.57 38.45-21.73 53.24-6.08 6.35-12.01 13.29-21.73 14.8-4.79.74-7.8-2.16-9.52-4.98-1.49-2.44-1.16-6.85-.03-9.77 1.03-2.65 3.84-5.18 6.5-6.54 22.52-11.52 34.32-31.09 41.5-54.27.66-2.12 1.41-4.21 2.11-6.31.68.03 1.37.07 2.05.1z"/></g><path d="m2.6 9.9.8-1c.9.7 1.9 1.4 2.9 2.3l-.9 1.1c-1.1-1-2-1.8-2.8-2.4zm.5 10.6c.9-2.1 1.6-4.3 2.3-6.7.4.2.8.4 1.3.6-.7 2.1-1.5 4.3-2.2 6.6zm.3-15.2.9-.9c1 .8 2 1.6 2.8 2.4l-1 1c-.9-.9-1.8-1.7-2.7-2.5zm12.6-1.2h1.2v1.4h2.7v1.1h-2.7v2.7h-1.2v-.6h-1.8v1.3h4.9v3.8h-1.2v-.5h-3.7c0 .4-.1.9-.1 1.2h5.1v1h-5.2c0 .5-.1.9-.2 1.2h6v1h-5.2c1.1 1.3 2.9 2 5.5 2.2-.4.4-.7.8-.9 1.3-2.9-.5-4.8-1.6-5.7-3.5h-.1c-.8 1.7-2.7 2.9-5.9 3.6-.2-.4-.6-.8-.9-1.1 2.8-.6 4.6-1.4 5.4-2.5h-4.8v-1h5.3c.1-.3.2-.7.2-1.2h-4.9v-1h5c0-.4 0-.8.1-1.2h-3.6v.5h-1.2v-3.8h4.9v-1.3h-1.8v.5h-1.2v-2.7h-2.7v-1h2.7v-1.4h1.2v1.4h4.8zm-6.7 8.3h3.6c0-.4 0-.9 0-1.4h-3.6zm1.9-4.6h4.8v-1.3h-4.7v1.3zm6.7 3.2h-4.7v1.4h3.7v-1.4z" fill="#fbfafa"/><path d="m8.7 22.1h1.3v2.2h2.8v-2.2h1.3v2.2h4.1v9.1h1.7v1.3h-17v-1.3h1.7v-9.1h4.1zm.3 13.1.7 1.2c-1.8.9-3.8 1.9-6 2.9-.2-.4-.5-.8-.8-1.3 2.3-1 4.4-1.9 6.1-2.8zm-3.1-6.4h2.8v-3.2h-2.8zm0 4.6h2.8v-3.3h-2.8zm4.1-4.6h2.8v-3.2h-2.8zm0 4.6h2.8v-3.3h-2.8zm3.6 1.9c2.1.9 4.1 1.8 6.1 2.7l-.7 1.4c-2.2-1.1-4.2-2-6.1-2.9zm3.2-9.8h-2.8v3.2h2.8v-3.1zm-2.7 7.9h2.8v-3.3h-2.8z" fill="#fbfafa"/></svg>