<svg enable-background="new 0 0 400 400" viewBox="0 0 400 400" xmlns="http://www.w3.org/2000/svg"><g fill="#010105"><path d="m139 247.8c11.69 0 22.81.09 33.93-.12 1.36-.03 2.91-1.42 3.99-2.54 4.25-4.45 8.34-9.04 12.9-14.03 5.62 4.95 11.01 9.83 16.57 14.5 1.29 1.08 3.14 2.1 4.74 2.11 19.5.13 39 .07 58.49.05.48 0 .95-.19 1.96-.41 0-11.5 0-23.08 0-35.41 9.54 2.56 19.33 1.23 28.03 7.64-5.73 1.38-5.88 5.11-5.69 9.36.27 6.11.07 12.23.07 18.84 13.98 0 27.44.08 40.89-.12 1.33-.02 2.81-1.56 3.92-2.69 3.12-3.19 6.08-6.53 9.3-10.02 4.71 4.06 9.42 7.55 13.34 11.77 1.59 1.71 1.47 5 2.3 8.26-23.1 0-45.16 0-67.23 0-.33.45-.65.9-.98 1.36 10.75 11.87 20.67 24.66 32.47 35.36 11.72 10.62 25.33 19.15 38.29 28.73-5.7 4.46-12.32 9.64-19.13 14.97-12.42-8.12-22.67-18.32-30.88-30.31-8.02-11.71-15.05-24.09-22.3-35.84v4.3c0 24-.06 48 .08 71.99.02 3.09-.83 4.74-3.7 6.02-6 2.68-11.81 5.77-18.55 9.11 0-29.23 0-57.55 0-85.87-19.54 30.93-44.35 55.29-77.8 70.05-.46-.32-.92-.64-1.38-.95.84-1.36 1.47-2.93 2.55-4.06 9.71-10.04 19.76-19.78 29.22-30.05 13.57-14.73 23.27-31.95 30.85-50.41.31-.76.51-1.58.66-2.38.09-.47-.04-.98-.09-1.72-38.11 0-76.18 0-115.75 0 9.32 9.64 17.48 18.96 26.59 27.23 9.2 8.36 19.34 15.67 29.59 23.85-6.22 4.85-12.67 9.88-19.19 14.96-16.88-15.95-28.43-34.97-37.85-55.88-.07 1.67-.21 3.33-.21 5-.01 25-.06 50 .06 74.99.02 3.03-.68 4.77-3.62 6.07-6.01 2.66-11.82 5.78-18.54 9.11 0-29.32 0-57.8 0-86.28-20.48 30.65-44.91 56.17-79.29 70.53-.46-.3-.93-.59-1.39-.89.74-1.28 1.28-2.75 2.26-3.8 12.96-13.82 27.07-26.74 38.64-41.62 9.17-11.79 15.28-25.97 22.69-39.13.62-1.1.76-2.46 1.31-4.29-19.89 0-39.28 0-58.99 0 0-2.56 0-4.62 0-7.18h74.47c0-12.19 0-23.91 0-35.73 19.66 3.07 22.87 2.74 26.88 7.3-4.81 1.57-4.72 5.35-4.57 9.41.25 6.16.09 12.28.09 18.86z"/><path d="m171.96 140.43c6.04 5.32 11.9 10.01 17.11 15.34 1.71 1.75 1.74 5.15 2.77 8.55-18.25 0-35.17 0-52.47 0v36.51c6.41 0 13.05-.56 19.56.14 8.74.94 15.41-1.39 20.33-8.91 1.96-3 4.79-5.43 7.48-8.39 5.81 5.37 11.67 10.32 16.87 15.88 1.58 1.69 1.36 5.07 2.11 8.31-40.15 0-79.4 0-118.99 0-.13 1.91-.55 3.44-.27 4.81 1.4 6.83-1.83 10.32-7.95 12.56-4.78 1.75-9.23 4.37-14.34 6.86 0-39.63 0-78.7 0-118.9-5.55 6.99-10.34 13.19-15.32 19.23-3.28 3.98-6.75 7.8-10.31 11.53-.84.88-2.36 1.1-3.57 1.62.08-1.32-.25-2.83.29-3.92 8.5-17.34 17.56-34.42 25.57-51.98 8.73-19.13 15.25-39.11 20.09-59.6.11-.47.34-.92.74-1.96 7.78 4.74 17.39 5.71 24.71 13.86-7.71-.03-8.08 5.79-10.05 10.22-3.97 8.93-7.83 17.91-12.08 27.64h16.46c6.33 0 12.68-.24 18.99.09 3.87.2 5.64-1.25 6.79-4.8 4.53-14.06 9.28-28.04 13.97-42.05.35-1.06.84-2.07 1.56-3.81 7.64 5.51 17.47 7.07 23.16 17.15-7.83-2-9.68 3.41-12.89 7.55-6.71 8.65-13.94 16.89-21.43 25.86 6.75 0 13.49-.48 20.12.14 6.32.59 10.66-1.58 14.58-6.34 3.58-4.35 7.9-8.09 12.44-12.65 7.32 6.11 14.72 11.94 21.6 18.33 1.35 1.26.7 4.67 1.02 7.53-20.67 0-40.77 0-61.25 0v32.69c5.24 0 10.54.19 15.81-.13 1.36-.08 2.81-1.59 3.89-2.74 4.19-4.5 8.26-9.11 12.88-14.25 6.18 5.62 12.45 10.97 18.22 16.82 1.25 1.26.7 4.29 1.07 7.18-17.72 0-34.79 0-52.04 0v30.57c5.39 0 10.66.14 15.92-.1 1.23-.06 2.6-1.23 3.55-2.22 4.38-4.54 8.63-9.2 13.3-14.22zm-85.31 60.05h29.89c0-12.04 0-23.75 0-35.62-10.12 0-19.95 0-29.89 0zm29.8-81.26c0-10.9 0-21.43 0-31.92-10.11 0-19.83 0-29.62 0v31.92zm-29.65 7.42v30.05h29.62c0-10.16 0-19.99 0-30.05-9.98 0-19.56 0-29.62 0z"/><path d="m297 29.3c7.38 5.79 17.43 7.18 23.2 17.08-7.86-2.1-9.92 3.32-13.13 7.47-6.7 8.63-13.7 17.02-20.92 25.93 8.7 0 17.41.1 26.12-.11 1.22-.03 2.57-1.36 3.58-2.37 5.42-5.41 10.74-10.91 16.25-16.54 7.09 5.88 14.07 11.25 20.46 17.24 1.91 1.79 2.2 5.31 3.57 8.94-21.48 0-41.55 0-61.87 0v32.56c5.23 0 10.5.2 15.72-.14 1.32-.09 2.67-1.81 3.76-2.99 4.16-4.5 8.22-9.09 12.52-13.88 5.99 5.37 11.89 10.25 17.21 15.68 1.54 1.57 1.46 4.75 2.34 7.99-17.63 0-34.35 0-51.44 0v30.83c5.09 0 10.21.19 15.3-.13 1.36-.09 2.82-1.54 3.9-2.68 4.23-4.43 8.34-8.99 12.72-13.76 5.87 5.22 11.71 9.93 16.89 15.27 1.71 1.77 1.71 5.19 2.75 8.71-18.05 0-34.79 0-51.68 0v36.39c10.2 0 20.15.08 30.09-.11 1.19-.02 2.55-1.38 3.51-2.42 4.4-4.74 8.68-9.58 13.21-14.61 5.75 5.29 11.51 10.08 16.56 15.51 1.7 1.83 1.63 5.31 2.57 8.77-39.89 0-78.64 0-117.64 0-.16 1.58-.54 2.75-.33 3.8 1.52 7.55-1.9 11.6-8.86 13.97-4.35 1.48-8.34 4.02-13.19 6.42 0-39.64 0-78.76 0-118.65-9.45 11.46-18.27 22.17-27.09 32.88-.62-.18-1.25-.35-1.87-.53.12-1.3-.1-2.78.43-3.89 3.1-6.45 6.31-12.86 9.61-19.21 15.07-28.95 27.08-59.07 34.68-90.87.26-1.1.87-2.12 1.53-3.68 7.91 4.69 17.55 5.64 24.54 13.82-7.03.24-8.24 5.23-10.11 9.84-3.74 9.17-7.71 18.25-11.83 27.96 12.82 0 25.24.11 37.66-.18 1.21-.03 2.9-2.36 3.45-3.95 5.31-15.16 10.42-30.4 15.83-46.36zm-54.49 135.39v35.76h28.98c0-12.08 0-23.78 0-35.76-9.74 0-19.14 0-28.98 0zm-.1-77.49v31.89h29.09c0-10.9 0-21.3 0-31.89-9.75 0-19.18 0-29.09 0zm29.19 69.59c0-10.2 0-19.93 0-29.9-9.87 0-19.52 0-29.11 0v29.9z"/></g><path d="m2.6 9.9.8-1c.9.7 1.9 1.4 2.9 2.3l-.9 1.1c-1.1-1-2-1.8-2.8-2.4zm.5 10.6c.9-2.1 1.6-4.3 2.3-6.7.4.2.8.4 1.3.6-.7 2.1-1.5 4.3-2.2 6.6zm.3-15.2.9-.9c1 .8 2 1.6 2.8 2.4l-1 1c-.9-.9-1.8-1.7-2.7-2.5zm12.6-1.2h1.2v1.4h2.7v1.1h-2.7v2.7h-1.2v-.6h-1.8v1.3h4.9v3.8h-1.2v-.5h-3.7c0 .4-.1.9-.1 1.2h5.1v1h-5.2c0 .5-.1.9-.2 1.2h6v1h-5.2c1.1 1.3 2.9 2 5.5 2.2-.4.4-.7.8-.9 1.3-2.9-.5-4.8-1.6-5.7-3.5h-.1c-.8 1.7-2.7 2.9-5.9 3.6-.2-.4-.6-.8-.9-1.1 2.8-.6 4.6-1.4 5.4-2.5h-4.8v-1h5.3c.1-.3.2-.7.2-1.2h-4.9v-1h5c0-.4 0-.8.1-1.2h-3.6v.5h-1.2v-3.8h4.9v-1.3h-1.8v.5h-1.2v-2.7h-2.7v-1h2.7v-1.4h1.2v1.4h4.8zm-6.7 8.3h3.6c0-.4 0-.9 0-1.4h-3.6zm1.9-4.6h4.8v-1.3h-4.7v1.3zm6.7 3.2h-4.7v1.4h3.7v-1.4z" fill="#fbfafa"/><path d="m8.7 22.1h1.3v2.2h2.8v-2.2h1.3v2.2h4.1v9.1h1.7v1.3h-17v-1.3h1.7v-9.1h4.1zm.3 13.1.7 1.2c-1.8.9-3.8 1.9-6 2.9-.2-.4-.5-.8-.8-1.3 2.3-1 4.4-1.9 6.1-2.8zm-3.1-6.4h2.8v-3.2h-2.8zm0 4.6h2.8v-3.3h-2.8zm4.1-4.6h2.8v-3.2h-2.8zm0 4.6h2.8v-3.3h-2.8zm3.6 1.9c2.1.9 4.1 1.8 6.1 2.7l-.7 1.4c-2.2-1.1-4.2-2-6.1-2.9zm3.2-9.8h-2.8v3.2h2.8v-3.1zm-2.7 7.9h2.8v-3.3h-2.8z" fill="#fbfafa"/></svg>