<svg enable-background="new 0 0 400 400" viewBox="0 0 400 400" xmlns="http://www.w3.org/2000/svg"><g fill="#010105"><path d="m308.91 355.13c0-5.21 0-9.68 0-14.55-71.98 0-143.69 0-215.75 0 .97 4.68-1.85 6.46-5.48 8.03-5.44 2.36-10.7 5.14-16.67 8.04 0-52.59 0-104.43 0-156.9 6.41 3.13 12.43 6.23 18.6 9.02 2.2.99 4.73 1.73 7.12 1.75 19.83.14 39.67.13 59.5 0 1.76-.01 4.2-.65 5.17-1.9 8.04-10.36 15.81-20.94 24.68-32.81-48.14 0-94.79 0-141.76 0 0-2.88 0-4.76 0-7.18h143.27c0-32.44 0-64.35 0-97.06-38.74 0-77.58 0-116.7 0 0-2.54 0-4.3 0-6.61h116.93c0-12.27 0-24 0-36.45 9.29 2.82 18.87 1.12 27.58 7.27-6.94 2.7-5.26 8.21-5.32 13.12-.06 5.12-.01 10.24-.01 15.66 2.14.11 3.76.26 5.38.26 21.33.02 42.67-.07 64 .09 3.48.03 5.94-1 8.25-3.53 4.82-5.27 9.9-10.3 15.15-15.73 7.37 6.18 14.41 11.71 20.93 17.81 1.5 1.41 1.22 4.73 1.93 7.96-39.06 0-77.12 0-115.41 0v97.18h5.45c31.83 0 63.67.08 95.5-.14 2.61-.02 5.73-1.46 7.7-3.25 5.41-4.91 10.32-10.36 15.78-15.96 7.64 6.34 15.06 12.2 22.03 18.55 1.41 1.28 1.1 4.44 1.72 7.38-2.88 0-4.84 0-6.8 0-44.83 0-89.67-.03-134.5.09-2.23.01-5.23.66-6.57 2.17-10.11 11.42-21.59 21.22-34.02 29.96-.93.66-1.79 1.43-3.52 2.81 2.26.17 3.62.37 4.97.37 42.17.02 84.33.06 126.5-.11 2.54-.01 5.3-1.39 7.55-2.79 2.77-1.72 5.11-4.14 7.88-6.46 6.8 5.52 13.38 10.84 19.93 16.16-.2.4-.27.84-.5.96-8.27 4.28-8.58 11.53-8.49 19.77.37 33.66.1 67.33.23 101 .01 3.41-.83 5.4-4.1 6.86-5.89 2.64-11.55 5.8-18.13 9.16zm-.21-22.34c0-38.54 0-76.61 0-115.03-18.34 0-36.54 0-54.88 0v115.03zm-160.84-114.92c-18.5 0-36.52 0-54.47 0v114.65h54.47c0-38.38 0-76.34 0-114.65zm22.75 38.27v34.46h60.01c0-11.69 0-23.05 0-34.46-20.16 0-39.92 0-60.01 0zm60.05 76.52c0-11.76 0-23 0-34.28-20.22 0-40.11 0-60.2 0v34.28zm-60.23-84.11h60.27c0-10.47 0-20.56 0-30.81-20.21 0-40.12 0-60.27 0z"/><path d="m111.08 76.92c8.37 5.11 18.36 5.89 24.93 14.81-6.34-.3-8.22 3.53-9.97 7.79-1.69 4.11-3.84 8.04-5.55 11.57 8.24 2.92 16.84 5.08 24.57 8.99 6.24 3.16 11.59 8.21 16.98 12.84 3.17 2.72 3.31 9.04 1.59 12.36-2.31 4.47-6.35 6.74-10.56 5.54-3.53-1-7.61-3.99-9.19-7.21-5.91-12.04-15.55-20-25.28-26.48-9.16 9.25-17.19 18.97-26.85 26.64-7.9 6.27-17.71 10.15-26.76 14.94-.93.49-2.4-.03-3.62-.09.53-1.2.79-2.66 1.64-3.57 8.74-9.34 18.26-18.04 26.22-27.99 10.06-12.58 16.23-27.35 19.78-43.14.47-2.05 1.2-4.06 2.07-7z"/><path d="m270.06 79.05c8.41 4.73 18.08 5.45 24.85 13.52-11.17 1.83-8.89 13-15.43 19.01 3.69.92 6.46 1.61 9.23 2.3 12.36 3.06 23.18 8.84 32.33 17.8 3.55 3.48 5.05 7.61 3.81 12.12-1.34 4.87-5.29 8.4-10.31 7.28-3.71-.83-8.09-3.55-9.98-6.73-6.79-11.42-15.81-20.36-25.88-27.16-8.71 8.74-16.35 18.16-25.73 25.32-8.15 6.22-18.24 9.92-27.55 14.59-.87.44-2.26-.16-3.4-.27.53-1.17.79-2.6 1.64-3.45 8.28-8.38 17.24-16.18 24.88-25.1 11.02-12.88 16.54-28.6 20.28-44.95.24-1.12.63-2.18 1.26-4.28z"/></g><path d="m2.6 9.9.8-1c.9.7 1.9 1.4 2.9 2.3l-.9 1.1c-1.1-1-2-1.8-2.8-2.4zm.5 10.6c.9-2.1 1.6-4.3 2.3-6.7.4.2.8.4 1.3.6-.7 2.1-1.5 4.3-2.2 6.6zm.3-15.2.9-.9c1 .8 2 1.6 2.8 2.4l-1 1c-.9-.9-1.8-1.7-2.7-2.5zm12.6-1.2h1.2v1.4h2.7v1.1h-2.7v2.7h-1.2v-.6h-1.8v1.3h4.9v3.8h-1.2v-.5h-3.7c0 .4-.1.9-.1 1.2h5.1v1h-5.2c0 .5-.1.9-.2 1.2h6v1h-5.2c1.1 1.3 2.9 2 5.5 2.2-.4.4-.7.8-.9 1.3-2.9-.5-4.8-1.6-5.7-3.5h-.1c-.8 1.7-2.7 2.9-5.9 3.6-.2-.4-.6-.8-.9-1.1 2.8-.6 4.6-1.4 5.4-2.5h-4.8v-1h5.3c.1-.3.2-.7.2-1.2h-4.9v-1h5c0-.4 0-.8.1-1.2h-3.6v.5h-1.2v-3.8h4.9v-1.3h-1.8v.5h-1.2v-2.7h-2.7v-1h2.7v-1.4h1.2v1.4h4.8zm-6.7 8.3h3.6c0-.4 0-.9 0-1.4h-3.6zm1.9-4.6h4.8v-1.3h-4.7v1.3zm6.7 3.2h-4.7v1.4h3.7v-1.4z" fill="#fbfafa"/><path d="m8.7 22.1h1.3v2.2h2.8v-2.2h1.3v2.2h4.1v9.1h1.7v1.3h-17v-1.3h1.7v-9.1h4.1zm.3 13.1.7 1.2c-1.8.9-3.8 1.9-6 2.9-.2-.4-.5-.8-.8-1.3 2.3-1 4.4-1.9 6.1-2.8zm-3.1-6.4h2.8v-3.2h-2.8zm0 4.6h2.8v-3.3h-2.8zm4.1-4.6h2.8v-3.2h-2.8zm0 4.6h2.8v-3.3h-2.8zm3.6 1.9c2.1.9 4.1 1.8 6.1 2.7l-.7 1.4c-2.2-1.1-4.2-2-6.1-2.9zm3.2-9.8h-2.8v3.2h2.8v-3.1zm-2.7 7.9h2.8v-3.3h-2.8z" fill="#fbfafa"/></svg>