<svg enable-background="new 0 0 400 400" viewBox="0 0 400 400" xmlns="http://www.w3.org/2000/svg"><path d="m330 227c-14.2 8.3-27.9 16.8-42 24.4-11.8 6.3-24.3 11.4-36.2 17.5-3.2 1.6-5.4 5.1-8.4 8.1-7.8-4.3-9.1-15-15.7-22.8-9.8 48.3-28.4 89.9-73 114.7-.5-.2-1.1-.5-1.6-.7.7-1.7 1-3.7 2.2-4.9 10-9.6 18.7-20.2 26.1-32.1 11.1-17.7 18.1-36.9 22.4-57 3.7-17.1 5.1-34.4 5.2-51.9.2-54.1.6-108.2.9-162.3 0-1.5 0-3 0-5.3 6.7 3.3 12.9 6.5 19.2 9.3 2.5 1.1 5.3 1.9 7.9 1.9 27.8.1 55.7-.3 83.5.3 7.8.2 13.2-2.5 18.2-7.6.8-.8 1.5-1.8 2.2-2.8 7.2 5.9 14.1 11.4 21.1 17.1-.4.6-.7 1.3-1.2 1.6-7.7 3.7-8 10.3-8 17.9.2 82.7.2 165.3.1 248 0 10.8-3.9 20.2-13.7 25.5-4.6 2.5-10.3 3.2-16.1 4.9 0-4.9 0-8.5 0-12.3-12.8-1.9-25.4-3.8-37.9-5.7 0-2.1 0-3.7 0-5.9 12.1 0 24.1-.1 36 0 9.5.1 8.9-2.1 8.9-8.5-.2-37.1-.1-74.2-.1-111.4zm-97-81.4c-.2 36.7 1.5 72.4-5.6 109.4 35-12.6 68.7-24.8 102.2-36.9 0-48.7 0-96.7 0-144.7-32.4 0-64.4 0-96.4 0v65c8.5 1.6 16.7 2.9 24.8 4.6 18.8 3.9 36.8 9.8 53.7 19 3.9 2.1 6.7 5.4 6.2 10.3-1.1 10.1-11.9 13.1-18.9 8-20.1-14.7-42.9-24-66-34.7z"/><path d="m96.4 193.9c-14.7 0-29.3 0-44.2 0 0-2.3 0-4.2 0-6.7h44.5c0-29.9 0-59.3 0-89-17.4 0-34.7 0-52.3 0 0-2.7 0-5.1 0-8.1h5.3c30.8 0 61.7.1 92.5-.1 2.5 0 5.4-1.3 7.2-3 5.5-5.1 10.6-10.6 15.6-15.7 6.2 5 12.1 9.7 18 14.4 3.9 3.1 6.5 6.6 4.4 12.4-22.5 0-45.2 0-68.2 0v89c6.4 0 12.9.1 19.3-.1 1.1 0 2.3-1.2 3.2-2.1 4.9-4.8 9.8-9.6 14.5-14.5 1.8-1.9 3.2-2.2 5.3-.4 6.1 5.2 12.6 10.1 18.3 15.7 1.6 1.5 1.2 5.1 1.8 8.4-21.3 0-41.7 0-62.3 0v92.4c25.3-6.2 50.1-12.4 75-18.6.4.4.7.8 1.1 1.1-.9 1.3-1.6 3.1-2.8 3.7-30.5 14-61.6 26.6-93.3 37.4-12.8 4.4-25.6 8.7-38.2 13.6-2.9 1.1-5 4.2-8 6.9-7-5.6-8.4-15.5-13.6-24.2 6-1.5 11.6-3 17.2-4.4 12.2-3 24.4-5.9 36.5-9.1 1.5-.4 3.6-2.6 3.6-3.9.2-31.2.1-62.3.1-93.5 0-.3-.2-.6-.5-1.6z"/></svg>