<svg enable-background="new 0 0 400 400" viewBox="0 0 400 400" xmlns="http://www.w3.org/2000/svg"><path d="m178.4 359.4c-.1-.7-.2-1.1-.3-1.5-.4-9.1-.4-9.1-9.2-11.2-3-.7-5.9-1.8-8.9-2.2-3.8-.5-4.5-2.5-3.3-6.5 1.4 0 3.1.1 4.8 0 7.6-.7 15.4 1.8 22.8-2 .4-7.4 1.1-14.7 1.1-22.1.1-26.4.1-52.8.1-79.2 0-1.6 0-3.1 0-5.5-7.8 4.5-14.8 8.8-22.1 12.8-4.2 2.3-8.3 4.3-7.6 10.2-5.8-2.1-12.2-9.5-18.4-21 11.8-5.3 23.6-10.5 35.4-15.8 4.1-1.8 9.8-2.7 11.8-5.9 2.1-3.4.8-9 .8-13.6 0-23.2 0-46.4 0-69.6 0-1.6 0-3.2 0-5.3-14.4 0-28.6 0-43 0 0-2.5 0-4.5 0-7.1h42.9c0-24.1 0-47.7 0-72.2 9.1 2.8 18.5 1.5 27.3 7.3-7 2.6-5.3 8.1-5.4 12.9v51.3c5 1.1 9.1.9 12.5-3.6 3.3-4.4 7.3-8.3 11.2-12.6 5.9 5.4 11.9 10.4 17.2 15.9 1.5 1.5 1.1 4.8 1.7 7.7-14.4 0-28.1 0-42.1 0v78.6c3-1.3 6-2.5 9-3.8 9.6-4.1 19.2-8.2 28.9-12.2 2.8-1.2 2.9-1.1 4.8 2.4-13.1 9.2-26.2 18.7-39.6 27.8-2.5 1.7-3.5 3.2-3.5 6.2.1 37.6.1 75.2.1 112.9-.1 16.4-12.7 28.2-29 26.9z" fill="#010101"/><path d="m128.4 37.5c16.8 7.4 19.3 9 22.8 15.5-7.2-.7-7.6 5.1-9.8 9.5-13.4 27.3-26.8 54.6-40.3 81.9-.6 1.3-1.2 2.6-2 4.3 3 .5 5.7.6 8.3 1.4 2.5.8 4.9 2.2 8.8 4-7.6 2.1-6.3 7.1-6.3 11.7 0 60.1 0 120.1.1 180.2 0 3.6-1.1 5.5-4.4 6.9-5.8 2.6-11.5 5.5-17.9 8.6 0-64.7 0-128.7 0-192.7-.4-.1-.7-.3-1.1-.4-14.2 21.2-27.5 43-45.2 61.6-.4-.1-.9-.1-1.3-.2.2-1.4-.1-3 .6-4.2 7.9-14.5 15.9-28.8 23.8-43.3 20.2-37.2 37.4-75.7 52.5-115.1 3.9-9.9 7.6-19.6 11.4-29.7z" fill="#010101"/><path d="m294.7 357.8c0-3.8 0-7.2 0-10.9-7.4-1.6-14.4-3.2-21.5-4.6-4.5-1-4.5-.9-3.9-6.2h23.8c7.5 0 8.8-1.1 8.8-8.4 0-79.2 0-158.3 0-237.5 0-.6-.1-1.2-.2-2.3-19 0-38 0-57.2 0 0-2.5 0-4.5 0-7.2h4.5c22.9 0 45.8-.1 68.7.1 3.8 0 6.5-1.1 9.1-3.9 4.6-5 9.5-9.8 14.4-14.8 7.2 6.1 14 11.5 20.3 17.5 1.6 1.5 1.6 4.9 2.5 8.1-13.9 0-26.8 0-40.2 0v6.1 236.6c0 16.2-12.3 28-29.1 27.4z" fill="#010101"/><g fill="#fcfbfa"><path d="m342.2 3.2-6.3 9.2h6.1v1.2h-8.2v-.5l6.2-9.1h-5.7v-1.2h7.8v.4z"/><path d="m344 13.7v-10.9h3.1c1.6 0 3 .5 4.1 1.4 1.1 1 1.6 2.2 1.6 3.9s-.5 3-1.6 4-2.5 1.5-4.2 1.5h-3zm1.4-9.6v8.4h1.6c1.4 0 2.5-.4 3.2-1.1.8-.8 1.2-1.8 1.2-3.2s-.4-2.4-1.2-3.1-1.8-1-3.1-1z"/><path d="m356.3 2.8v10.9h-1.4v-10.9z"/><path d="m366.6 13.2c-.8.4-1.8.6-3 .6-1.6 0-2.8-.5-3.7-1.5s-1.4-2.3-1.4-3.9c0-1.7.5-3.2 1.6-4.2s2.4-1.6 4-1.6c1 0 1.9.1 2.6.4v1.5c-.8-.4-1.6-.6-2.6-.6-1.2 0-2.2.4-3 1.2s-1.1 1.9-1.1 3.3c0 1.3.4 2.3 1.1 3.1s1.6 1.1 2.8 1.1c1.1 0 2-.2 2.8-.7v1.3z"/><path d="m368.2 13c0-.3.1-.5.3-.6.2-.2.4-.3.6-.3.3 0 .5.1.7.3s.3.4.3.6-.1.5-.3.6c-.2.2-.4.3-.7.3s-.5-.1-.6-.3c-.2-.2-.3-.4-.3-.6z"/><path d="m381.1 13.7h-1.7l-5.5-8.4c-.2-.2-.3-.5-.4-.7 0 .2.1.8.1 1.5v7.6h-1.4v-10.9h1.8l5.3 8.3c.3.4.4.6.4.8 0-.3-.1-.8-.1-1.6v-7.5h1.4v10.9z"/><path d="m389.7 13.7h-5.8v-10.9h5.6v1.2h-4.2v3.5h3.9v1.2h-3.9v3.7h4.4z"/><path d="m398.4 4.1h-3.1v9.6h-1.4v-9.6h-3.1v-1.3h7.7v1.3z"/></g></svg>