<svg enable-background="new 0 0 400 400" viewBox="0 0 400 400" xmlns="http://www.w3.org/2000/svg"><path d="m257.5 267.2c-14.5 0-28.2 0-42.4 0 0 6.5-.1 12.8.1 19 .1 2.5-.7 3.8-3 4.8-6.3 3-12.5 6.2-19.3 9.5 0-49.3 0-98 0-147.2 6.4 3.2 12.5 6.2 18.7 9.2 1.5.7 3 1.6 4.6 1.6 13.5.1 27 .1 40.8.1 0-18.4 0-36.6 0-55.2-28 0-55.8 0-84 0 0-2.6 0-4.7 0-7.5h84.3c0-23.5 0-46.3 0-70.3 9.6 2.9 19.5 1.5 28.6 7.7-7.4 2.2-5.8 7.8-5.8 12.7v49.4c1.5.2 2.8.4 4.1.4 11.8 0 23.7.1 35.5-.1 2.1 0 4.6-1.2 6.1-2.7 5.5-5.1 10.6-10.5 16.2-16.1 7.3 6.2 14.6 12 21.3 18.3 1.5 1.4 1.1 4.9 1.6 8.1-28.6 0-56.5 0-84.6 0v55.4h7.1c9.1 0 18.3-.2 27.4.1 4.9.2 9.1-.7 12.5-4.5 1.6-1.8 3.7-3.1 5.9-4.9 6.8 5.5 13.7 10.9 20.5 16.3-.2.5-.2.9-.3 1-8.1 4.2-9 11.2-8.8 19.5.5 27.3.1 54.6.3 81.9 0 3.6-1.1 5.3-4.3 6.7-6 2.6-11.8 5.7-18.4 8.9 0-7.7 0-14.7 0-22.1-14.1 0-27.7 0-42.1 0v5.1c0 26.1-.1 52.2.1 78.3 0 3-.8 4.5-3.5 5.8-6.3 2.8-12.3 6-19.1 9.3-.1-33.1-.1-65.5-.1-98.5zm-.4-95.3c-14.2 0-27.9 0-41.8 0v87.3h41.8c0-29.3 0-58.1 0-87.3zm64.7 87.4c0-29.4 0-58.3 0-87.4-14 0-27.7 0-41.5 0v87.4z" fill="#010101"/><path d="m84.9 363.5c0-3.6 0-7 0-10.9-8.9-2-17.6-3.9-26.3-5.8 0-2 0-3.8 0-5.9 3.2 0 6.2.1 9.2 0 7.6-.4 15.1-.9 22.6-1.4.5-7.7 1.4-15.3 1.5-23 .2-31.5.1-63 .1-94.5 0-1.7 0-3.5 0-5.9-12 6.1-23.4 11.7-34.5 17.8-1.6.9-1.9 4.3-3 7.1-9-4.9-11.4-14.9-17.8-22.2 13.4-5.4 26.3-10.6 39.1-15.7 2.1-.8 4.1-1.7 6.2-2.6 10-4.1 10-4.1 10-15.1 0-23.1 0-46.2 0-69.3 0-1.8 0-3.6 0-5.9-16.7 0-33.1 0-49.8 0 0-2.8 0-5.1 0-7.8h49.7c0-22.9 0-45.5 0-68.8 9.6 2.7 19.5 1.5 28.9 7.7-7.3 2-5.9 7.2-5.9 11.8v48.8c5.6.9 10.6 1.4 14.7-3.8 4.1-5.1 8.9-9.7 13.7-15 4.6 3.8 8.3 6.9 12.1 10 2.2 1.8 4.2 3.9 6.6 5.4 4.3 2.7 5.5 6.4 4 11.5-16.7 0-33.6 0-50.8 0v77.3c16.8-6 33.5-12 50-17.9 2.7 2.9.8 4-1.1 5.1-14.9 9-29.6 18.1-44.6 26.9-3.4 2-4.8 3.9-4.7 8 .2 40.2.2 80.4 0 120.6 0 5.9-.8 12.1-2.9 17.5-4.7 11.5-14.5 15.9-27 16z" fill="#010101"/><g fill="#fcfbfa"><path d="m346.9 398 5.4-7.3h-5.2v-.6h5.9v.6l-5.4 7.2h5.5l-.1.6h-6.2v-.5z"/><path d="m354.7 390.1h2.8c2.3 0 3.9 1.6 3.9 4.1s-1.6 4.3-3.9 4.3h-2.8zm.6 7.8h2c2.2 0 3.3-1.6 3.3-3.6 0-1.8-1-3.6-3.3-3.6h-2z"/><path d="m363.9 390.1v8.4h-.6v-8.4z"/><path d="m372.5 396.3c-.4 1.3-1.4 2.3-3.2 2.3-2.4 0-3.7-1.9-3.7-4.3 0-2.3 1.2-4.3 3.7-4.3 1.8 0 2.9 1 3.2 2.4h-.6c-.4-1.1-1.1-1.8-2.5-1.8-2.1 0-3 1.9-3 3.7s.9 3.7 3 3.7c1.4 0 2.1-.7 2.5-1.7z"/><path d="m373.8 398.5v-1.5h.6v1.5z"/><path d="m376.2 398.5v-8.4h1c1.3 2 4.4 6.7 4.9 7.6-.1-1.2-.1-2.4-.1-3.8v-3.8h.7v8.4h-.9c-1.2-1.9-4.4-6.8-5-7.7.1 1.1 0 2.3 0 3.9v3.9h-.6z"/><path d="m390 394.4h-4.3v3.5h4.7l-.1.6h-5.2v-8.4h5.1v.6h-4.5v3.1h4.3z"/><path d="m394.2 390.7h-2.8v-.6h6.3v.6h-2.8v7.8h-.7z"/></g></svg>