<svg enable-background="new 0 0 400 400" viewBox="0 0 400 400" xmlns="http://www.w3.org/2000/svg"><path d="m73.1 362.3c0-4 0-7.6 0-11.5-7.7-1.6-15-3.4-22.5-4.7-4-.7-5.1-2.4-3.7-6.5h25.5c6.4 0 7.9-1.3 7.9-7.5 0-33.3 0-66.6 0-99.9 0-.8-.2-1.7-.3-3.2-8.4 5.2-16.6 9.9-24.3 15.2-1.5 1-1.5 4.3-2.4 6.9-9.6-3.8-12.3-13.9-19.5-20.8 8.4-3.9 16.2-7.6 24-11.3 6.6-3.1 13.3-6.1 19.8-9.5 1.2-.6 2.6-2.6 2.6-3.9.1-29.1.1-58.2.1-87.3 0-.4-.2-.9-.4-1.8-13.2 0-26.4 0-39.9 0 0-2.6 0-4.6 0-7.3h40.2c0-24.8 0-49 0-73.2 8.5-.8 24 3 28.4 7.1-6.5 1.4-5.2 6.4-5.2 10.8v49.5 5c4.4 1.4 7.6.7 10.5-2.9 3.8-4.6 8-8.9 12.3-13.5 6 5.4 12 10.3 17.3 15.9 1.6 1.6 1.1 5.2 1.8 8.6-7.5 0-14.2 0-20.9 0s-13.5 0-20.6 0v80.7c6.3-2.8 12.3-5.6 18.4-8.4 6.3-2.8 12.5-5.7 18.9-8.3 1.1-.5 2.6 0 3.9 0-.5 1.2-.8 2.8-1.7 3.5-11.9 9.1-23.8 18.2-35.9 27.1-2.8 2-4.1 3.9-4.1 7.6.1 36.7.1 73.5.1 110.2 0 7.3-1 14.4-4.9 20.7-5.9 9.2-14.9 11.8-25.4 12.7z" fill="#010101"/><path d="m163.8 363.9c-.1-1.2-.2-2.1-.2-2.9-.2-8.1-.2-8.2-7.6-9.3-8.6-1.4-17.1-2.8-25.8-3.7-4.3-.4-5-2.2-3.8-6.3h23.6c4.8 0 9.6 0 14.4-.1 4.1-.1 6.3-2.2 6.5-6.4 0-1 .1-2.1.1-3.1 0-36.1 0-72.3 0-108.4 0-.9-.1-1.8-.2-3.5-7.9 3.7-15.6 6.9-22.8 10.9-1.7 1-2.2 4.3-3.5 7-8.6-5.8-10.3-15.9-16.2-23.8 9.7-3 18.8-5.7 27.8-8.6 4.8-1.6 11.2-2.2 13.8-5.6 2.4-3.2 1-9.4 1-14.3.1-18 0-36 0-54 0-1.6 0-3.2 0-5.1 1.5 0 2.5-.1 3.5 0 8.6 1.1 8.6 1.2 11.7-7 5.9-15.2 11.8-30.4 17.7-45.6.7-1.9 1.3-3.9 2.2-6.6-24.2 0-47.9 0-71.8 0 0-2.7 0-4.7 0-7.4h4.9c20.5 0 41.1-.1 61.6.1 5.1.1 9.4-.7 12.9-4.6 1.6-1.8 3.7-3.1 5.8-4.8 6.8 5.5 13.5 10.9 20.7 16.8-3.6 2.1-7 3.9-10.1 6-2.5 1.7-5.1 3.5-6.8 6-10.9 16.4-21.6 33.1-32.2 49.5 1.7.9 4.5 2.4 8.4 4.4-7.9 2.6-6.1 8.4-6.1 13.6v40 5.6c7.4-2.6 14.3-5 21.2-7.3 5.1-1.7 10.2-3.4 15.3-5 1-.3 2.3.2 3.5.3-.5 1.2-.8 2.8-1.7 3.4-11.5 7.6-23 15.2-34.7 22.4-2.9 1.8-3.7 3.6-3.7 6.7.1 39.7 0 79.5.1 119.2 0 10.5-2.3 19.9-11.4 26.5-5.2 3.8-11.3 5-18.1 5z" fill="#010101"/><path d="m273.9 364c-.1-1.3-.2-2-.2-2.7-.2-8.7-.2-8.7-8.7-10.7-3.2-.8-6.4-1.7-9.6-2.2-3.8-.6-5.3-2.3-3.8-6.7h16.6c12.9 0 13.1-.3 13.1-12.9 0-96.7 0-193.4 0-290.1 0-2.1 0-4.1 0-7.2 9.6 2.6 19.4 1.6 28.9 7.8-7.2 1.4-6.2 6.3-6.2 10.7 0 93.4.1 186.8-.1 280.2 0 8.8-.9 17.7-7.4 24.8-5.9 6.6-13.6 8.7-22.6 9z" fill="#010101"/><path d="m218.7 294.7c-4.6-.9-3.5-2.9-2.9-5 4.1-16.4 8.5-32.7 12.3-49.2 8.1-35.3 14.2-71 18.4-107 .3-2.8.5-5.6.8-9.2 9.1 4.2 19.4 3.6 27.5 11.9-6.7.5-6.9 4.9-7.7 9.3-6.6 35.1-15.6 69.5-28.1 103-6 15.5-13.5 30.7-20.3 46.2z" fill="#010101"/><path d="m367.9 273.4c-.7 9.1-7.6 15.7-16.4 10.7-3-1.7-5.3-6.5-5.8-10.2-3.7-22.9-5.8-46.1-10.4-68.8-5-24.8-12.1-49.1-18.3-73.6-.3-1-.9-2.1-.7-3 .1-1 .7-2.1 1.5-2.7.3-.2 1.9.5 2.3 1.2 1.3 2.2 2.2 4.6 3.3 6.9 21.9 43.5 36.5 89.4 44.1 137.5.1.7.3 1.4.4 2z" fill="#010101"/><g fill="#fcfbfa"><path d="m346.9 398 5.4-7.3h-5.2v-.6h5.9v.6l-5.4 7.2h5.5l-.1.6h-6.2v-.5z"/><path d="m354.7 390.1h2.8c2.3 0 3.9 1.6 3.9 4.1s-1.6 4.3-3.9 4.3h-2.8zm.6 7.8h2c2.2 0 3.3-1.6 3.3-3.6 0-1.8-1-3.6-3.3-3.6h-2z"/><path d="m363.9 390.1v8.4h-.6v-8.4z"/><path d="m372.5 396.3c-.4 1.3-1.4 2.3-3.2 2.3-2.4 0-3.7-1.9-3.7-4.3 0-2.3 1.2-4.3 3.7-4.3 1.8 0 2.9 1 3.2 2.4h-.6c-.4-1.1-1.1-1.8-2.5-1.8-2.1 0-3 1.9-3 3.7s.9 3.7 3 3.7c1.4 0 2.1-.7 2.5-1.7z"/><path d="m373.8 398.5v-1.5h.6v1.5z"/><path d="m376.2 398.5v-8.4h1c1.3 2 4.4 6.7 4.9 7.6-.1-1.2-.1-2.4-.1-3.8v-3.8h.7v8.4h-.9c-1.2-1.9-4.4-6.8-5-7.7.1 1.1 0 2.3 0 3.9v3.9h-.6z"/><path d="m390 394.4h-4.3v3.5h4.7l-.1.6h-5.2v-8.4h5.1v.6h-4.5v3.1h4.3z"/><path d="m394.2 390.7h-2.8v-.6h6.3v.6h-2.8v7.8h-.7z"/></g></svg>