<svg enable-background="new 0 0 400 400" viewBox="0 0 400 400" xmlns="http://www.w3.org/2000/svg"><g fill="#000001"><path d="m292.4 55.5c-14.9 0-29.2 0-43.9 0v11.4c.1 19-7.1 34.6-22.2 46.1-5 3.8-11.1 6.2-16.9 8.7-4.7 2-9.5 2.8-13.7 6.9-4.1 4-6.4 7.3-6 13.2.5 8.8 0 17.7.2 26.6 0 2.6-.6 4.2-3.2 5.4-6.2 2.8-12.2 5.9-18.9 9.2 0-5.1 0-9.5 0-14.2-29 0-57.6 0-85 0-3.8 12.6-6.7 25-11.3 36.9-5.7 15-15.3 27.7-27.1 38.5-.7.7-2.2.6-3.3.9 0-1.3-.4-2.8.2-3.8 6.8-13.8 13.2-27.9 15.9-43.2 1.6-9.3 2.5-18.7 2.7-28.1.3-19.9-.1-39.8-.1-59.8 0-.4.2-.8.4-1.7 6.2 3 12.3 6.1 18.4 8.9 2.2 1 4.7 1.6 7 1.7 25.2.1 50.3 0 75.5.2 4.7 0 8.4-.8 11.7-4.3 1.7-1.8 3.8-3.1 6-4.9 4.3 3.5 8.6 6.9 12.8 10.5 1.8 1.6 3.3 1.8 5.4.5 9.5-5.6 17.9-12.5 24-21.8 4.8-7.2 5.9-15.2 5.8-23.7-.2-12.5-.1-24.9-.1-38.1 5 2.4 9.6 4.3 13.9 6.8 5.5 3.2 11.1 4.4 17.4 4.1 9.4-.4 18.9-.3 28.4 0 4.2.1 7.6-.8 10.5-3.8 1.9-2 4.2-3.6 6.6-5.5 6.6 5.5 13.2 10.9 19.8 16.4-.6.6-.8 1-1.2 1.2-7.1 3.6-8.6 9.4-7.9 16.9.6 6.2.4 12.5 0 18.7-.2 4.7 2.3 6.4 6.2 6.5 6.7.2 13.4.1 20.5.1 2.4-6.8 4.7-13.8 7.3-20.7.5-1.3 2-2.2 3.1-3.3.4.3.9.6 1.3.8-1 6.5-1.8 13.1-3.1 19.6-.5 2.8.4 4 2.4 5.7 2.1 1.8 5.3 5.9 4.7 6.8-2 3.1-5.3 7.1-8.4 7.3-11.9.7-23.9 1-35.7-.4-10.9-1.2-17.5-9.1-19.2-19.8-1.2-7.4-.7-15.1-.9-22.6-.1-5.5 0-11 0-16.8zm-210.4 71.2v34h32.2c0-11.5 0-22.7 0-34-10.8 0-21.4 0-32.2 0zm85.5.1c-10.5 0-20.5 0-30.7 0v34h30.7c0-11.5 0-22.6 0-34z"/><path d="m341.7 135.9c-2.3 1.4-4.1 3-6.2 3.8-6.6 2.4-10.9 7.3-14.9 12.6-8.1 10.6-18.3 19-29 26.9-.8.6-1.5 1.3-2.6 2.1 23 12 48.1 15.6 73.5 20.9-7 6.7-13.6 13-20.3 19.1-.8.7-2.7.8-4 .4-23-6.3-45.3-14.2-64.8-28.6-1.2-.9-3.5-1.1-4.9-.6-13 4.3-26 8.8-39 13.2-.9.3-2.1-.5-3.2-.9.6-1 1-2.3 1.9-2.8 9.4-5.5 18.8-10.9 28.2-16.4 1.5-.9 2.8-1.9 4.5-3.1-2.9-3.2-5.6-6-8.1-9-8.2-9.6-14.8-20.2-18-32.4-1.2-4.6-3.2-6.1-7.8-5.6-4.3.4-8.6.1-13.2.1 0-2.6 0-4.7 0-7.2h4.9c27.5 0 55-.2 82.4.2 6.7.1 12.2-1.2 16.6-6.2 2.5-2.9 4.6-2.9 7.5-.2 5.4 4.8 10.9 9 16.5 13.7zm-67.4 36.9c13.4-10.3 24-22.5 33.1-36.7-23.5 0-46.1 0-69.2 0 9.7 14.8 21.8 26.6 36.1 36.7z"/><path d="m114.5 63.4c0-8.7 0-16.5 0-25.3 9.1 2.8 18.8 1.1 27.5 7.3-9.1 4.1-4.5 11.3-5.7 17.8h9.6c10.3 0 20.7-.1 31 .1 3.6.1 6.3-.8 8.6-3.7 3.4-4.3 7.4-8.2 11.4-12.5 5.9 5.2 11.9 10 17.2 15.5 1.5 1.6 1.1 5 1.7 8.1-26.9 0-52.8 0-79.1 0v23.2c5.8 0 11.6-.6 17.3.1 8.5 1 14.8-1.5 19.6-8.6 1.8-2.7 4.4-4.9 7-7.7 5.9 5.2 11.9 10.1 17.2 15.5 1.5 1.5 1.1 4.8 1.6 7.6-48.8 0-96.9 0-145.1 0 0-2.2 0-4.2 0-6.8h59.8c0-7.9 0-15.2 0-23.2-24.1 0-48.3 0-72.7 0 0-2.7 0-4.8 0-7.5 24.1.1 48.3.1 73.1.1z"/><path d="m264.2 247.1c16.8 8.2 19.1 9.8 22.2 16-8.1-.7-8.6 6.3-11.4 11-12.5 21-25.5 41.6-42.6 59.4-.6.6-1 1.3-1.9 2.5 1.8.1 3 .2 4.2.2 24.6 0 49.2.1 73.8-.1 2.3 0 5-1.2 6.7-2.8 5.3-4.9 10.3-10.3 15.6-15.7 7.1 6 14 11.4 20.4 17.5 1.6 1.5 1.4 4.9 2.1 8-101.8 0-202.8 0-304.2 0 0-2 0-4.1 0-6.9h5c55.3 0 110.6 0 165.8.1 3.3 0 4.8-1 6.2-3.9 12.9-27.3 26.9-54.1 36.8-82.8.3-.8.8-1.5 1.3-2.5z"/><path d="m189.8 237.4c0-13.6 0-26.5 0-39.3 7.6-1.3 22 2.2 27 6.4-5.8 1.5-5.4 5.9-5.3 10.4.2 6.8.1 13.7.1 20.5 0 .4.3.8.6 1.7h4.2c24.7 0 49.4.1 74.2-.1 2.3 0 5-1.3 6.7-2.9 5.2-4.8 10-10 15.2-15.3 7.2 6 14.2 11.5 20.6 17.6 1.6 1.5 1.2 4.9 1.9 7.9-89.7 0-178.4 0-267.5 0 0-2.1 0-4.1 0-6.9z"/><path d="m119.2 251.9c24.5 14.5 41.6 35.1 51.5 61.6 1.9 5.1-1.9 12.9-6.9 14.7-4.7 1.8-11.9-2.9-13.9-9-2.9-9-5.3-18.1-8.8-26.8-5.2-13.2-13.6-24.6-22.5-35.5-1.3-1.9-2.6-3.3.6-5z"/></g><path d="m6.44 374.46.42-.45c.65.47 1.27.95 1.85 1.44l-.45.49c-.65-.56-1.25-1.06-1.82-1.48m.93 7.33-.63-.26c.55-1.36 1.05-2.8 1.52-4.33.19.1.38.19.59.27-.46 1.29-.95 2.73-1.48 4.32m-.38-10.38.44-.42c.43.34 1.01.82 1.74 1.44l-.49.49c-.53-.51-1.09-1.01-1.69-1.51m2.5.35h1.72v-1.04h.59v1.04h3.52v-1.04h.59v1.04h1.75v.53h-1.75v1.42h-2.03v.97h3.22v2.03h-3.24c0 .35-.01.66-.03.93h3.32v.53h-3.37c-.03.27-.08.58-.15.94h3.96v.53h-3.71c.67.92 1.93 1.48 3.79 1.68-.13.24-.23.44-.29.59-2.13-.38-3.48-1.08-4.04-2.12-.43.97-1.77 1.72-4.03 2.23-.09-.19-.2-.37-.33-.55 2.1-.42 3.37-1.03 3.81-1.83h-3.36v-.53h3.58c.08-.29.13-.61.16-.94h-3.33v-.53h3.39c.02-.27.04-.58.04-.93h-3.23v-2.03h3.25v-.97h-2.07v-1.42h-1.73zm1.12 3.44v1h2.65c.01-.3.02-.44.01-.4v-.25-.35zm1.19-2h3.52v-.91h-3.52zm4.71 2h-2.63v.59c0 .15-.01.28-.01.4h2.64z" fill="#fafafa"/><path d="m13.56 383.74h.63v1.52h2.72v6.07h1.13v.6h-11.06v-.6h1.13v-6.07h2.73v-1.52h.63v1.52h2.1v-1.52zm-2.69 8.83.38.56c-1.24.63-2.53 1.25-3.85 1.85-.1-.21-.21-.42-.34-.63 1.36-.55 2.63-1.15 3.81-1.78m-2.13-4.27h2.1v-2.45h-2.1zm0 3.04h2.1v-2.46h-2.1zm2.72-3.04h2.1v-2.45h-2.1zm0 3.04h2.1v-2.46h-2.1zm6.07 3.6c-1.41-.71-2.7-1.3-3.86-1.78l.35-.56c1.45.62 2.75 1.19 3.88 1.72zm-1.25-9.09h-2.1v2.45h2.1zm-2.09 5.49h2.1v-2.46h-2.1z" fill="#fafafa"/></svg>