<svg enable-background="new 0 0 400 400" viewBox="0 0 400 400" xmlns="http://www.w3.org/2000/svg"><g fill="#010105"><path d="m296.7 357c0-2.7.3-5.3-.1-7.8-.2-1.2-1.7-2.9-2.8-3.1-9.6-1.6-19.1-3.2-28.8-4.3-3.9-.4-5-1.9-3.8-6h4.4c9.9 0 19.7.1 29.6 0 14.2-.2 22.5-6.7 25.6-20.5 1.9-8.6 3.6-17.4 4-26.2.9-21.1.9-42.3 1.3-63.4 0-.4-.2-.8-.3-1.6-1.5-.1-3-.2-4.5-.2-31.7 0-63.5 0-95.2-.1-3 0-5.1.7-7.1 2.9-3.5 3.9-7.2 7.6-10.7 11.3-6.3-6.4-12.1-12.2-18.6-18.8 2.1-1.9 4.7-4.3 7.4-6.6 2.4-2 3.2-4.3 3.1-7.4-.1-42.2-.1-84.3-.1-126.5 0-1.7 0-3.4 0-5.9 5.6 2.7 10.8 5 15.7 7.7 4 2.2 8.1 3.3 12.7 3 3.6-.3 7.2-.4 10.7 0 4.9.6 7.4-1 8.6-6.1 2.7-10.9 6-21.7 9.1-32.6.4-1.3 1-2.6 1.7-4.4 7.2 5.7 16.8 7.4 22 16.7-8.1-1-10.8 4.8-14.6 9.3-4.8 5.6-9.8 10.9-15.3 17h21.1c8.9 0 17.7-.2 26.6.1 4 .1 7.2-.8 9.9-3.7 1.8-1.9 4.1-3.5 6.4-5.4 6.5 5.3 12.8 10.4 19.4 15.7-.8.7-1.3 1.4-2 1.7-5.7 2.3-6.9 6.4-7.1 12.4-.6 19.2-1.7 38.5-3.6 57.7-1.1 11-4.6 21.5-13.9 28.9-6.6 5.2-13.9 7.5-22.9 7.7 0-2.7-.1-5.2 0-7.7.1-2.3-.8-3.2-3-3.7-6.1-1.3-12.2-2.9-18.5-4.5 0-1.8 0-3.5 0-5.7h21.5c7.3 0 11.3-2.3 13.5-9.3 1.8-5.7 3-11.7 3.4-17.6 1.3-19.6 2.2-39.3 3.2-59.3-28.1 0-55.1 0-82.5 0v126h5.2c30.4 0 60.9-.1 91.3.1 5.3 0 9.7-1 13.4-4.9 1.4-1.4 3.1-2.5 5-4.1 6.4 5.2 12.8 10.4 19.2 15.5-.1.3-.1.7-.3.8-7.5 2.7-8.1 8.2-8 15.5.4 23.6-.3 47.2-4.2 70.5-1.6 9.4-3.4 18.9-9 27-9 13.1-21.6 19.7-38.1 19.9z"/><path d="m88.2 88.6c-11.1 0-21.8 0-32.6 0 0-2.3 0-4.3 0-6.8h4.7c27 0 54-.1 81.1.1 4.4 0 8-.7 11.1-4.1 1.6-1.8 3.7-3.1 5.9-4.9 6.5 5.2 12.8 10.4 19 15.5-.1.5-.1.8-.2.8-8 2.7-8.2 8.9-8.3 16.2-1.1 44.1-2.3 88.3-4.4 132.4-1.2 24.9-3.8 49.9-10.9 74-2.5 8.5-5.3 16.8-11.8 23.4-7.6 7.7-16.8 10.7-27.7 11.2 0-3.5 0-6.7 0-10.5-9.7-2-19.1-3.9-28.7-5.8 0-1.8 0-3.4 0-5.4h27.6c9.7 0 14.3-3.2 17.8-12.2 6.2-16 8.2-32.9 10.1-49.8 4.4-40.7 6-81.5 6.3-122.4.1-15.6.4-31.1.6-46.7 0-1.4 0-2.8 0-4.5-12.4 0-24.5 0-37.1 0-.1 1.8-.4 3.7-.5 5.6-1.2 23.5-1.7 47.1-3.6 70.6-3.2 40.1-8.7 79.8-20.1 118.5-5.8 19.8-13.7 38.8-26.6 55.3-3.2 4.1-7.2 7.7-11 11.4-.8.8-2.3.9-3.5 1.3.1-1.2-.1-2.6.5-3.7 4.1-7.7 8.8-15 12.5-22.9 10.3-22.2 16-45.8 19.9-69.8 8.5-54 10.2-108.4 10.2-162.8 0-1.2-.2-2.3-.3-4z"/><path d="m284 259.6c7.5 6.2 14.4 11.5 20.7 17.5 1.5 1.4 1.2 4.8 1.8 7.7-42.1 0-83.2 0-124.8 0 0-2.1 0-4.1 0-6.8h4.9c25.1 0 50.2.1 75.4-.1 2.4 0 5.3-1.2 7-2.8 5.3-4.8 9.9-10.1 15-15.5z"/><path d="m235.2 108.7c1.6-.6 2.8-1.5 3.6-1.2 12.6 4.3 24.9 9.4 34.7 18.7 4.5 4.3 8.1 9.6 11.6 14.7 2.7 3.9 1.2 9.2-1.8 12.8-4.9 5.9-15.2 3.2-17.1-4.1-4.6-17.6-16.7-29.2-31-40.9z"/></g><path d="m361.2 9.6.8-1c.9.7 1.9 1.4 2.9 2.3l-.9 1.1c-1-1-2-1.8-2.8-2.4zm.5 10.6c.9-2.1 1.6-4.3 2.3-6.7.4.2.8.4 1.3.6-.7 2.1-1.5 4.3-2.2 6.6zm.4-15.2.9-.9c1 .8 2 1.6 2.8 2.4l-1 1c-.9-.9-1.8-1.7-2.7-2.5zm12.5-1.2h1.2v1.4h2.7v1.1h-2.7v2.7h-1.2v-.6h-1.8v1.3h4.9v3.8h-1.2v-.5h-3.7c0 .4-.1.9-.1 1.2h5.1v1h-5.2c0 .5-.1.9-.2 1.2h6v1h-5.2c1.1 1.3 2.9 2 5.5 2.2-.4.4-.7.8-.9 1.3-2.9-.5-4.8-1.6-5.7-3.5h-.1c-.8 1.7-2.7 2.9-5.9 3.6-.2-.4-.6-.8-.9-1.1 2.8-.6 4.6-1.4 5.4-2.5h-4.8v-1h5.3c.1-.3.2-.7.2-1.2h-4.9v-1h5c0-.4 0-.8.1-1.2h-3.5v.5h-1.2v-3.8h4.9v-1.3h-1.8v.5h-1.2v-2.7h-2.7v-1h2.6v-1.4h1.2v1.4h4.7v-1.4zm-6.6 8.3h3.6c0-.4 0-.9 0-1.4h-3.6zm1.9-4.6h4.7v-1.3h-4.7zm6.6 3.2h-3.7v1.4h3.7z" fill="#fafbfc"/><path d="m385.3 3.8h1.3v2.2h2.8v-2.2h1.3v2.2h4.1v9.1h1.7v1.3h-16.9v-1.3h1.7v-9.1h4.1v-2.2zm.4 13.1.7 1.2c-1.8.9-3.8 1.9-6 2.9-.2-.4-.5-.8-.8-1.3 2.3-1 4.3-1.9 6.1-2.8zm-3.1-6.4h2.8v-3.2h-2.8zm0 4.6h2.8v-3.3h-2.8zm4-4.6h2.8v-3.2h-2.8zm0 4.6h2.8v-3.3h-2.8zm3.7 1.9c2.1.9 4.1 1.8 6.1 2.7l-.7 1.3c-2.2-1.1-4.2-2-6.1-2.9zm3.2-9.7h-2.8v3.2h2.8zm-2.8 7.8h2.8v-3.3h-2.8z" fill="#fafbfc"/></svg>