<svg enable-background="new 0 0 400 400" viewBox="0 0 400 400" xmlns="http://www.w3.org/2000/svg"><g fill="#010105"><path d="m194.63 170.22c-8.48.49-16.75.78-24.98 1.55-2.76.26-4.35-.12-5.47-2.74-1.68-3.9-3.64-7.68-5.85-12.28 5.79.89 10.64 2.04 15.53 2.32 12.61.71 25.24 1.13 37.86 1.4 1.51.03 3.32-1.31 4.54-2.48 4.08-3.92 7.96-8.04 11.97-12.14 6.97 5.21 13.76 10.03 20.2 15.27 1.66 1.35 2.22 4.04 3.29 6.11-2.03.98-4.05 2.76-6.1 2.82-10.63.29-21.27.13-32.27.13v29.97c13.88 5.55 19.96-5.89 28.31-13.59 6.13 5.21 12.34 10.18 18.14 15.6 1.42 1.33 2.53 4.53 1.88 6.08-.62 1.48-3.67 2.58-5.72 2.7-5.95.35-11.93.12-18.54.12v5.8c0 36.17-.21 72.33.12 108.5.11 12.44 1.36 24.89 2.48 37.3.94 10.42-4.16 15.3-13.61 12.64-4.13-1.16-5.44-3.77-5.43-7.74.06-15.17.03-30.33.03-45.5 0-1.61 0-3.22 0-5.45-10.79 4.77-20.92 9.25-31.06 13.72-5.63 2.48-11.39 4.71-16.83 7.53-2.05 1.06-3.57 3.35-4.97 5.34-.92 1.31-1.08 3.13-1.79 4.62-1.96 4.16-4.17 4.62-6.91.86-5.15-7.09-9.87-14.51-15.08-22.25 7.19-1.59 13.58-3.14 20.03-4.36 2.61-.49 3.6-1.46 3.59-4.21-.08-34.67-.05-69.33-.07-104 0-.8-.2-1.6-.35-2.73-4.27.49-8.34.95-12.54 1.43-1.49-2.92-2.9-5.67-5-9.79-.71 11.57-1.17 21.65-1.98 31.69-1.93 23.85-4.1 47.7-11.02 70.75-7.01 23.39-19.63 43.55-36.25 61.31-.56.59-1.22 1.09-2.02 1.8-1.63-.91-3.18-1.77-5.12-2.84 2.7-4.38 5.16-8.66 7.91-12.74 13.64-20.3 20.28-43.15 24.35-66.91 4.77-27.79 6.34-55.82 6.13-83.98-.18-25.16-.12-50.33-.22-75.5-.01-3.3-.34-6.6-.56-10.58 5.73 3.6 11.04 7.18 16.61 10.32 2.34 1.32 5.2 2.39 7.82 2.4 55.67.14 111.33.14 167-.02 2.3-.01 5.04-1.34 6.8-2.92 5.2-4.65 10.02-9.74 15.46-15.12 7.69 6.95 15.58 13.77 23.08 21 2.77 2.67 1.1 6.3-2.74 6.83-1.8.25-3.66.14-5.49.14-67.67.01-135.33 0-203 0-2.12 0-4.25 0-6.58 0v60.31c14.67 1 29.33 1.99 44.42 3.01 0-10.85 0-20.77 0-31.5zm26.12 79.19c-12.36 0-24.11 0-36.05 0v27.27h36.05c0-9.25 0-18.17 0-27.27zm-35.99-10.85h35.93c0-9.28 0-18.19 0-27.29-12.06 0-23.82 0-35.93 0zm36.1 48.83c-12.25 0-23.99 0-36.09 0v30.02c12.32-3.29 24.2-6.46 36.09-9.62 0-6.93 0-13.39 0-20.4z"/><path d="m50.17 274.17c0 6.15-.17 11.62.05 17.08.18 4.35-1.9 5.94-5.92 6.15-9.59.51-12.53-2.23-12.47-12.04.36-64.47.79-128.93 1.03-193.4.03-7.04-1.02-14.09-1.63-21.83 6.06 4.35 11.58 8.57 17.39 12.37 2.07 1.36 4.78 2.32 7.23 2.4 8.82.28 17.67.31 26.49-.03 2.29-.09 4.95-1.41 6.68-3 3.4-3.13 6.27-6.85 9.66-10.67 6.26 4.17 12.56 7.92 18.34 12.34 5.57 4.26 5.19 7.54-.52 11.86-.4.3-.77.73-1.22.86-8.9 2.62-9.07 9.26-9.02 17.09.31 46.49.23 92.99.03 139.48-.02 4.68 1.2 7.95 4.98 10.49 1.36.92 2.94 1.95 3.63 3.33.83 1.65 1.45 3.91.95 5.54-.32 1.02-2.85 1.9-4.4 1.91-18.33.13-36.66.08-54.99.09-1.82-.02-3.64-.02-6.29-.02zm39.43-9.87c0-56.72 0-112.95 0-169.39-13.21 0-26.19 0-39.11 0v169.39z"/><path d="m306.51 298.38c9.57-16.95 24.21-73.73 23.06-90.21-8.4 0-16.85 0-25.31 0-4.83 0-9.68.18-14.5-.06-3.17-.16-4.56 1.02-5.8 3.96-7.58 17.94-16.2 35.35-27.82 51.74-1.95-.92-3.84-1.81-5.23-2.47 6.73-18.58 14.11-36.71 19.83-55.34s9.77-37.77 14.75-57.48c7.94 3.13 16.28 6.26 24.44 9.81 1.44.63 3.07 3.13 2.89 4.55-.19 1.48-2.43 2.74-3.84 4.01-.33.3-.95.37-1.43.37-8.41 0-11.21 5.23-12.71 12.56-1.25 6.1-3.66 11.96-5.83 18.77 6.76 0 13.11-.66 19.26.13 13.9 1.78 25.51-1.27 33.69-13.44.35-.52 1-.83 1.56-1.28 6.75 5.04 13.55 9.85 20 15.1 1.66 1.35 2.22 4.06 3.28 6.14-2.06.98-4.05 2.53-6.2 2.81-4.41.57-10.1-1.12-13.01 1.09-2.55 1.94-2.06 7.93-2.82 12.15-4.43 24.37-9.64 48.54-19.57 71.38-2.91 6.69-6.34 13.15-9.64 19.95 13.98 16.9 31.42 29.72 50.71 40.28 2 1.1 3.25 3.56 4.51 5-7.99 4.01-14.82 7.44-22.59 11.34-15.77-11.42-29.48-26.87-41.82-44.34-14.97 17.55-31.78 32.24-51.86 43.51-1.21-1.73-2.32-3.32-3.25-4.66 9.64-9.24 19.41-18.05 28.49-27.51 6.09-6.34 11.18-13.62 16.77-20.44 1.84-2.25 1.92-4.16.83-7.09-7.38-19.84-14.38-39.81-21.65-60.15 3.88-.76 6.28-1.23 8.01-1.56 7.11 17.49 14.08 34.63 21.05 51.77.56-.12 1.16-.26 1.75-.39z"/><path d="m258.84 35.02c1.21.55 1.7.66 2.06.95 12.47 9.88 26.8 11.11 42.18 11.01 11.19-.07 20.08-1.71 25.82-11.97.23-.41.71-.67 1.72-1.59 5.83 4.33 11.92 8.54 17.64 13.22 3.41 2.79 3.35 6.79-.8 8.41-9.28 3.61-9.01 10.88-8.48 18.64.17 2.49.29 5.03-.02 7.49-.79 6.22.62 11.29 5.99 15.16 1.46 1.05 1.91 3.51 2.83 5.32-2.09.78-4.17 2.2-6.27 2.24-11.15.23-22.31.11-33.47.11-10.47 0-20.94 0-31.35 0-1.74 9.18-4.45 11.45-12.58 11.08-3.37-.15-5.28-1.44-5.28-5.1.02-24.8.01-49.6.01-74.97zm17.55 22.17v35.49h46.31c0-11.94 0-23.62 0-35.49-15.53 0-30.77 0-46.31 0z"/><path d="m149.59 34.76c6.86 3.68 12.61 6.97 18.54 9.86 2.29 1.12 5 1.81 7.55 1.88 8.32.23 16.65-.08 24.96.17 3.68.11 6.3-.85 8.5-3.9 2.22-3.09 4.93-5.82 7.99-9.35 6.04 4.44 12.23 8.54 17.86 13.3 3.58 3.03 3.39 6.47-.92 8.36-8.54 3.75-9.63 10.2-8.71 18.13.31 2.63.33 5.36-.01 7.98-.87 6.67.82 11.86 7.03 15.41 1.46.83 1.89 3.47 2.8 5.27-1.88.71-3.76 2.03-5.65 2.05-18.98.15-37.95.09-56.93.09-1.82 0-3.64 0-5.28 0-.36.55-.73.84-.7 1.09.84 7.93-2.06 9.69-11.61 10.06-3.85.15-5.44-1.63-5.42-5.37.05-9.65.01-19.31.01-28.96-.01-14.97-.01-29.92-.01-46.07zm59.16 57.97c0-12.12 0-23.69 0-35.46-14.1 0-27.96 0-41.97 0v35.46z"/></g><path d="m361.2 9.6.8-1c.9.7 1.9 1.4 2.9 2.3l-.9 1.1c-1-1-2-1.8-2.8-2.4zm.5 10.6c.9-2.1 1.6-4.3 2.3-6.7.4.2.8.4 1.3.6-.7 2.1-1.5 4.3-2.2 6.6zm.4-15.2.9-.9c1 .8 2 1.6 2.8 2.4l-1 1c-.9-.9-1.8-1.7-2.7-2.5zm12.5-1.2h1.2v1.4h2.7v1.1h-2.7v2.7h-1.2v-.6h-1.8v1.3h4.9v3.8h-1.2v-.5h-3.7c0 .4-.1.9-.1 1.2h5.1v1h-5.2c0 .5-.1.9-.2 1.2h6v1h-5.2c1.1 1.3 2.9 2 5.5 2.2-.4.4-.7.8-.9 1.3-2.9-.5-4.8-1.6-5.7-3.5h-.1c-.8 1.7-2.7 2.9-5.9 3.6-.2-.4-.6-.8-.9-1.1 2.8-.6 4.6-1.4 5.4-2.5h-4.8v-1h5.3c.1-.3.2-.7.2-1.2h-4.9v-1h5c0-.4 0-.8.1-1.2h-3.5v.5h-1.2v-3.8h4.9v-1.3h-1.8v.5h-1.2v-2.7h-2.7v-1h2.6v-1.4h1.2v1.4h4.7v-1.4zm-6.6 8.3h3.6c0-.4 0-.9 0-1.4h-3.6zm1.9-4.6h4.7v-1.3h-4.7zm6.6 3.2h-3.7v1.4h3.7z" fill="#fafbfc"/><path d="m385.3 3.8h1.3v2.2h2.8v-2.2h1.3v2.2h4.1v9.1h1.7v1.3h-16.9v-1.3h1.7v-9.1h4.1v-2.2zm.4 13.1.7 1.2c-1.8.9-3.8 1.9-6 2.9-.2-.4-.5-.8-.8-1.3 2.3-1 4.3-1.9 6.1-2.8zm-3.1-6.4h2.8v-3.2h-2.8zm0 4.6h2.8v-3.3h-2.8zm4-4.6h2.8v-3.2h-2.8zm0 4.6h2.8v-3.3h-2.8zm3.7 1.9c2.1.9 4.1 1.8 6.1 2.7l-.7 1.3c-2.2-1.1-4.2-2-6.1-2.9zm3.2-9.7h-2.8v3.2h2.8zm-2.8 7.8h2.8v-3.3h-2.8z" fill="#fafbfc"/></svg>