<svg enable-background="new 0 0 400 400" viewBox="0 0 400 400" xmlns="http://www.w3.org/2000/svg"><g fill="#010105"><path d="m35.93 221.23c78.35 3.58 156.43.87 234.47 1.67 17.83.18 35.66-.06 53.48.11 3.33.03 5.52-1.12 7.77-3.4 4.68-4.73 9.67-9.16 15.03-14.17 3.8 3.35 8.26 7.25 12.69 11.18 3.24 2.87 6.61 5.62 9.58 8.76 1.04 1.1 1.86 3.58 1.31 4.71-.68 1.39-2.82 2.26-4.5 2.88-1.17.44-2.63.09-3.97.09-63.32 0-126.63.06-189.95-.11-4.99-.01-7.88 1.44-10.99 5.49-9.31 12.12-19.36 23.68-29.11 35.46-.5.6-.97 1.23-2.13 2.69h6.65c54.65 0 109.3-.06 163.95.11 4.48.01 7.53-1.19 9.97-4.88 2.1-3.16 4.66-6.03 7.31-9.4 6.98 4.75 13.84 9.11 20.34 13.95 4.47 3.33 4.03 6.8-.61 9.93-.14.09-.28.21-.43.25-9.61 2.52-10.43 9.51-9.95 17.97.59 10.3.31 20.66.05 30.98-.1 3.9.9 6.47 4.38 8.51 2.97 1.75 5.72 4.08 8.05 6.62 2.63 2.88 1.38 5.7-2.49 6.3-1.47.22-2.99.06-4.49.06-68.15 0-136.29 0-204.44 0-1.97 0-3.94 0-6.26 0-.09 2.03-.34 3.67-.22 5.28.58 7.17-2.77 9.82-11.12 9.61-6.47-.16-8.38-3.91-8.04-10.97.99-20.77 1.54-41.55 2.24-62.33.02-.45-.24-.92-.59-2.12-23.55 14.89-48.19 26.91-74.87 35.48-.67-1.88-1.31-3.67-2.01-5.64 45.99-21.53 87.41-48.46 115.6-92.31-33.6 0-66.72 0-100.84 0-1.66-3.63-3.85-8.38-5.86-12.76zm85.82 65.45v59.81h187.98c0-20.07 0-39.81 0-59.81-62.66 0-125.05 0-187.98 0z"/><path d="m290 57.17c-15.33 0-29.96 0-44.45 0-2.29 21.39-4.57 42.6-6.85 63.95 6.06 5.37 13.19 11.1 19.58 17.56 4.6 4.65 7.7 10.5 6.1 17.57-1.66 7.31-8.22 9.65-13.96 4.74-2.86-2.45-5.13-5.62-7.49-8.61-4-5.06-7.85-10.23-12.13-15.84-9.82 16.19-21.72 29.28-36.52 39.58-14.34 9.98-29.73 18.06-46.03 24.99-.89-1.9-1.65-3.52-2.42-5.15 8.89-5.52 17.83-10.59 26.25-16.4 18.63-12.84 34.1-28.61 44.14-49.26 1.55-3.18 1.81-5.02-1.5-7.28-10.56-7.2-20.88-14.76-31.79-22.54.92-1.66 1.98-3.6 3.23-5.85 12.15 5.84 23.94 11.51 36.3 17.45 4.2-18.05 4.27-36.22 5.35-54.69-10.7 0-21.15-.55-31.51.15-10.78.73-10.75 1.26-15.19-8.43-.69-1.5-1.3-3.03-2.18-5.08 7.12.68 13.78 1.49 20.46 1.91 7.63.48 15.28.8 22.93.84 19.99.11 39.99-.07 59.98.13 3.92.04 6.53-1.14 8.85-4.19 2.59-3.41 5.64-6.47 8.76-9.99 6.31 4.3 12.55 8.13 18.29 12.58 5.54 4.3 5.16 7.65-.55 11.82-.53.39-1.05.93-1.66 1.08-7.41 1.94-8.18 7.09-8.09 13.91.38 28.15.15 56.31.16 84.47 0 10.31 1.94 12.98 12.07 13.71 6.73.49 13.59-.22 20.35-.88 4.88-.47 8.38-3.47 9.65-8.24 2.67-10.08 5.4-20.17 7.38-30.4.92-4.72 2.76-5.87 7.52-4.34-.46 6.73-.6 13.67-1.47 20.51-1.17 9.27-.35 17.35 8.01 23.52 4.71 3.48 4.14 8.88-1.32 11.13-6.19 2.55-12.99 4.86-19.57 4.96-15.57.24-31.21-.41-46.74-1.67-8.16-.66-12.16-5.88-13.05-14.02-.51-4.61-.85-9.27-.86-13.91-.07-31.32-.04-62.65-.04-93.97.01-1.77.01-3.58.01-5.82z"/><path d="m173.87 130.01c1.01 1.87 2.02 3.73 3.54 6.56-16.86 7.3-33.16 15.26-50.1 21.46-23.68 8.67-47.81 16.12-71.83 23.81-3.1.99-4.59 2.1-4.41 5.34.06 1.12-.07 2.44-.61 3.38-.92 1.6-2 3.73-3.48 4.19-1.06.34-3.44-1.33-4.23-2.68-4.66-8.02-9.03-16.21-13.52-24.37 19.17-4.02 37.79-8.04 56.47-11.74 4.68-.93 6.32-2.74 6.26-7.77-.3-25.65-.14-51.3-.14-76.95 0-1.81 0-3.62 0-6.16-4.13 0-7.89-.14-11.64.03-12.45.55-24.89 1.24-37.34 1.74-1.06.04-2.73-.57-3.14-1.38-2.16-4.2-4.01-8.56-6.22-13.42 31.67 5.18 62.81 2.2 93.85 2.83 2.1.04 4.7-1.33 6.29-2.86 4.67-4.48 8.96-9.36 13.97-14.7 8 7.2 15.91 14.19 23.59 21.42.91.85 1.31 3.62.64 4.43-.95 1.15-3.1 1.81-4.74 1.82-17.32.12-34.65.08-51.97.08-1.81 0-3.61 0-5.76 0v85.59c21.59-6.91 42.85-13.72 64.52-20.65z"/></g><path d="m361.2 9.6.8-1c.9.7 1.9 1.4 2.9 2.3l-.9 1.1c-1-1-2-1.8-2.8-2.4zm.5 10.6c.9-2.1 1.6-4.3 2.3-6.7.4.2.8.4 1.3.6-.7 2.1-1.5 4.3-2.2 6.6zm.4-15.2.9-.9c1 .8 2 1.6 2.8 2.4l-1 1c-.9-.9-1.8-1.7-2.7-2.5zm12.5-1.2h1.2v1.4h2.7v1.1h-2.7v2.7h-1.2v-.6h-1.8v1.3h4.9v3.8h-1.2v-.5h-3.7c0 .4-.1.9-.1 1.2h5.1v1h-5.2c0 .5-.1.9-.2 1.2h6v1h-5.2c1.1 1.3 2.9 2 5.5 2.2-.4.4-.7.8-.9 1.3-2.9-.5-4.8-1.6-5.7-3.5h-.1c-.8 1.7-2.7 2.9-5.9 3.6-.2-.4-.6-.8-.9-1.1 2.8-.6 4.6-1.4 5.4-2.5h-4.8v-1h5.3c.1-.3.2-.7.2-1.2h-4.9v-1h5c0-.4 0-.8.1-1.2h-3.5v.5h-1.2v-3.8h4.9v-1.3h-1.8v.5h-1.2v-2.7h-2.7v-1h2.6v-1.4h1.2v1.4h4.7v-1.4zm-6.6 8.3h3.6c0-.4 0-.9 0-1.4h-3.6zm1.9-4.6h4.7v-1.3h-4.7zm6.6 3.2h-3.7v1.4h3.7z" fill="#fafbfc"/><path d="m385.3 3.8h1.3v2.2h2.8v-2.2h1.3v2.2h4.1v9.1h1.7v1.3h-16.9v-1.3h1.7v-9.1h4.1v-2.2zm.4 13.1.7 1.2c-1.8.9-3.8 1.9-6 2.9-.2-.4-.5-.8-.8-1.3 2.3-1 4.3-1.9 6.1-2.8zm-3.1-6.4h2.8v-3.2h-2.8zm0 4.6h2.8v-3.3h-2.8zm4-4.6h2.8v-3.2h-2.8zm0 4.6h2.8v-3.3h-2.8zm3.7 1.9c2.1.9 4.1 1.8 6.1 2.7l-.7 1.3c-2.2-1.1-4.2-2-6.1-2.9zm3.2-9.7h-2.8v3.2h2.8zm-2.8 7.8h2.8v-3.3h-2.8z" fill="#fafbfc"/></svg>