<svg enable-background="new 0 0 400 400" viewBox="0 0 400 400" xmlns="http://www.w3.org/2000/svg"><g fill="#010105"><path d="m138 233.25c-22.75 6.84-45.13 13.57-67.52 20.28-3.49 1.05-6.98 2.24-10.55 2.86-3.95.68-5.27 2.89-6.01 6.6-.56 2.81-2.5 5.35-3.82 8.01-2.32-1.96-5.16-3.55-6.87-5.94-4.54-6.33-8.59-13-12.94-19.71 14.08-12.49 25.05-27.36 35.43-42.6 10.23-15.03 19.73-30.56 29.54-45.88-.42-.33-.84-.65-1.25-.98-10.81 3.06-21.52 6.57-32.47 9-5.9 1.31-9.5 3.58-10.64 9.69-.36 1.89-2.15 3.51-3.28 5.26-1.81-1.32-4.31-2.25-5.3-4.03-3.98-7.11-7.55-14.46-11.09-21.8-.43-.88-.15-2.7.51-3.42 13.64-14.65 21.93-32.58 29.52-50.6 8.81-20.93 15.89-42.59 23.74-63.92.27-.75.71-1.43 1.36-2.71 8.77 3.91 17.47 7.53 25.88 11.73 1.79.89 3.51 3.88 3.45 5.85-.04 1.36-3.2 2.63-4.98 3.92-.12.09-.33.12-.48.1-9.68-1.3-12.98 5.06-16.01 12.6-11.45 28.47-28.26 53.81-46.32 78.4-1.07 1.46-2.07 2.96-3.76 5.38 9.17-.62 17.5-1.06 25.8-1.79 8.43-.74 16.82-1.93 25.26-2.6 3.58-.28 5.74-1.63 7.16-4.97 6.89-16.16 13.93-32.25 20.99-48.53 7.15 2.91 15.26 5.9 23.06 9.56 2.32 1.09 3.76 4.04 5.61 6.15-2.48 1.62-5.08 4.78-7.41 4.59-8.22-.66-11.44 3.83-14.61 10.38-21.34 43.98-49.64 83.01-84.55 117.24-.33.33-.57.76-.54 2.5 30.26-5.79 60.52-11.58 92.02-17.61-5.63-10.44-10.58-19.62-15.71-29.12 1.07-.89 2.44-2.04 4.24-3.53 12.59 14.13 26.49 27.09 31.77 45.91 1.2 4.26.8 9.25 0 13.7-.87 4.79-5.17 7.23-9.62 6.82-4.75-.44-5.73-3.99-6.34-7.72-.86-5.24-1.51-10.51-2.32-15.76-.23-1.24-.71-2.46-.95-3.31z"/><path d="m199 60.59v41.29c0 18.33.03 36.66-.02 54.99-.01 5.87-2.3 7.58-9.68 7.54-6.99-.03-9.74-2.15-9.68-7.78.43-38.46.92-76.93 1.39-115.39.01-.61.1-1.21.21-2.41 6.11 3.26 11.72 6.39 17.47 9.25 2 .99 4.33 1.85 6.51 1.86 38.82.11 77.65.13 116.47-.04 2.12-.01 4.64-1.37 6.26-2.88 3.38-3.16 6.28-6.83 9.68-10.63 6.26 4.25 12.48 8.07 18.24 12.5 5.17 3.97 4.79 7.84-.47 11.67-.67.49-1.33 1.14-2.1 1.33-7.86 2.05-8.16 7.77-7.99 14.55.39 15.99-.08 31.99.2 47.98.17 9.96 1.2 19.9 1.62 29.85.37 8.64-9.12 14.5-16.5 10-1.57-.96-2.49-4.14-2.5-6.31-.16-30.49-.11-60.98-.11-91.48 0-1.83 0-3.65 0-5.89-42.94 0-85.64 0-129 0z"/><path d="m219.7 371.44c-.42-1.79-.68-3.06-1.01-4.32-2-7.64-6.31-13.07-14.31-15.01-7.24-1.76-14.47-3.57-22.05-5.45.39-2.36.81-4.84 1.23-7.42 10.43 1.5 20.41 2.99 30.41 4.33 2.63.35 5.33.44 7.97.3 5.27-.28 8.49-3.57 8.95-8.88.09-.99.04-2 .04-3 0-42.14 0-84.27-.01-126.41 0-1.62-.14-3.25-.23-5.14-1.75-.1-3.2-.28-4.66-.26-18.63.28-37.26.58-55.89.89-3.39.06-7.62 1.48-9.95-.03-2.47-1.6-3.16-5.97-4.61-9.13-.62-1.34-1.19-2.71-2.02-4.6 5.8.58 11.12 1.46 16.47 1.6 18.13.48 36.26.77 54.39.91 1.68.01 3.74-1.13 4.99-2.37 3.42-3.37 6.5-7.09 10.25-11.26 6.49 4.52 13.06 8.65 19.09 13.47 4.05 3.23 3.58 6.7-.43 9.99-1.41 1.15-2.86 2.55-4.53 3.03-5.7 1.64-6.53 5.43-6.51 10.83.22 41.97.15 83.94.1 125.91-.02 16.76-6.88 25.98-22.76 30.93-1.5.47-3.1.69-4.92 1.09z"/><path d="m268.19 188.69c22.62.42 45.04.88 67.45 1.14 1.54.02 3.44-1.05 4.58-2.2 3.5-3.53 6.72-7.35 10.33-11.36 6.26 4.19 12.49 7.99 18.32 12.36 5.35 4.01 5.13 7.53-.07 11.54-.79.61-1.58 1.4-2.49 1.64-7.79 2.06-8.07 7.69-8.03 14.49.26 41.15.14 82.3.13 123.45-.01 16.5-7.57 26.43-23.43 31-2.77.8-4.48.88-5.21-2.85-1.62-8.29-6.22-14.07-15.02-15.95-7.12-1.52-14.15-3.47-21.49-5.29.37-2.35.74-4.73 1.16-7.39 9.89 1.37 19.52 2.71 29.15 4.04 1.48.2 2.96.46 4.45.54 11.03.59 13.92-2.19 13.92-13.35 0-41.32 0-82.63 0-123.95 0-1.95 0-3.89 0-6.37-3.86 0-7.15-.09-10.44.01-18.11.58-36.21 1.24-54.33 1.71-1.28.03-3.21-.95-3.79-2.02-2.11-3.92-3.79-8.08-5.19-11.19z"/><path d="m211.67 137.9c8.4.77 15.97 1.8 23.56 2.08 14.11.51 28.24.65 42.36.74 1.39.01 3.05-1.12 4.15-2.17 3.97-3.76 7.76-7.71 11.67-11.65 5.88 4.82 11.73 9.25 17.08 14.21 1.81 1.67 2.38 4.68 3.52 7.08-2.31.94-4.61 2.66-6.93 2.68-23.13.2-46.26.06-69.39.18-5.46.03-10.92.93-16.39.98-1.47.01-3.56-1.28-4.31-2.58-1.96-3.4-3.35-7.15-5.32-11.55z"/><path d="m149.23 316.88c25.64-11.92 48.35-26.54 68.98-44.03 4.39 2.82 4.14 5.29 1.08 8.98-12.71 15.32-26.92 29.04-42.55 41.3-3.13 2.46-5.08 5.02-4.67 9.13.13 1.28-.08 2.68-.49 3.91-1.41 4.26-3.9 5.02-6.72 1.54-5.32-6.54-10.16-13.47-15.63-20.83z"/><path d="m293.93 81.76c5.96 4.95 12.22 9.88 18.1 15.22 1.31 1.18 2.22 4.14 1.65 5.65-.49 1.31-3.34 2.42-5.15 2.43-20.48.17-40.97-.05-61.46.19-7.95.09-15.9 1.02-23.83 1.74-3.25.29-5.69.04-6.9-3.69-1.15-3.55-2.93-6.9-4.12-9.61 20.47.63 40.86 1.17 61.24 1.96 4.34.17 7.58-.95 10.47-4.27 2.93-3.35 6.43-6.23 10-9.62z"/><path d="m329.58 269.94c1.38 1.73 2.6 3.26 4.59 5.76-10.04 9.91-19.87 19.73-29.86 29.4-2.98 2.88-6.22 5.56-9.63 7.89-5.35 3.65-9.92 7.44-9.3 14.91.13 1.56-1.72 3.29-2.66 4.94-1.76-1.01-4.05-1.6-5.18-3.09-4.92-6.45-9.5-13.16-14.49-20.19 23.81-10.78 45.92-23.41 66.53-39.62z"/><path d="m32.84 295.43c.37-.34 1.57-1.43 3.52-3.21 6.98 7.97 13.94 15.7 20.64 23.65 7.15 8.47 13.17 17.76 14.52 28.98.52 4.34-.4 9.33-2.24 13.29-1.05 2.26-5.41 4.36-8.04 4.1-2.26-.22-5.34-3.56-6.05-6.08-2.12-7.46-2.23-15.61-5.01-22.76-4.96-12.78-11.32-25.01-17.34-37.97z"/><path d="m72.64 280.04c.32-.38.88-1.18 1.57-1.87.56-.57 1.26-1 2.24-1.76 13.3 11.75 26.57 23.31 35.19 39.04 3.12 5.69 5.4 11.74 3.64 18.55-1.35 5.21-4.09 7.94-8.71 8.01-4.62.06-6.61-2.93-7.9-6.87-3.08-9.4-5.47-19.16-9.69-28.03-4.45-9.38-10.71-17.9-16.34-27.07z"/><path d="m109.29 264.39c.85-1.02 1.24-1.55 1.7-2.01.57-.59 1.2-1.12 2.24-2.07 13.66 9.82 27.51 19.29 36.01 34.41 2.28 4.07 3.89 8.52 1.84 13.32-1.54 3.61-3.93 6.08-8.16 6.25-4.31.17-6.61-2.47-7.46-6.05-4.12-17.27-14.09-31.01-26.17-43.85z"/><path d="m277.67 222.64c1.21-1.92 2.27-3.59 3.6-5.68 13.3 6.1 26.6 12.06 36.96 22.74 4.24 4.37 7.32 9.5 5.14 16.13-2.21 6.71-9.24 8.38-14.02 3.27-.9-.96-1.8-2.04-2.29-3.23-5.58-13.64-15.95-23.07-27.45-31.54-.52-.38-.99-.85-1.94-1.69z"/><path d="m163.4 221.89c1.64-5.34 4.28-5.62 8.66-3.22 10.77 5.92 21.72 11.5 30.26 20.66 3.74 4.02 6.27 8.56 5.73 14.31-.38 4-2.23 6.99-6.22 8.11-3.84 1.08-6.79-.56-8.99-3.71-.75-1.08-1.65-2.15-2.07-3.37-4.57-13.14-13.86-22.39-24.7-30.42-1.03-.76-1.92-1.7-2.67-2.36z"/></g><path d="m361.2 9.6.8-1c.9.7 1.9 1.4 2.9 2.3l-.9 1.1c-1-1-2-1.8-2.8-2.4zm.5 10.6c.9-2.1 1.6-4.3 2.3-6.7.4.2.8.4 1.3.6-.7 2.1-1.5 4.3-2.2 6.6zm.4-15.2.9-.9c1 .8 2 1.6 2.8 2.4l-1 1c-.9-.9-1.8-1.7-2.7-2.5zm12.5-1.2h1.2v1.4h2.7v1.1h-2.7v2.7h-1.2v-.6h-1.8v1.3h4.9v3.8h-1.2v-.5h-3.7c0 .4-.1.9-.1 1.2h5.1v1h-5.2c0 .5-.1.9-.2 1.2h6v1h-5.2c1.1 1.3 2.9 2 5.5 2.2-.4.4-.7.8-.9 1.3-2.9-.5-4.8-1.6-5.7-3.5h-.1c-.8 1.7-2.7 2.9-5.9 3.6-.2-.4-.6-.8-.9-1.1 2.8-.6 4.6-1.4 5.4-2.5h-4.8v-1h5.3c.1-.3.2-.7.2-1.2h-4.9v-1h5c0-.4 0-.8.1-1.2h-3.5v.5h-1.2v-3.8h4.9v-1.3h-1.8v.5h-1.2v-2.7h-2.7v-1h2.6v-1.4h1.2v1.4h4.7v-1.4zm-6.6 8.3h3.6c0-.4 0-.9 0-1.4h-3.6zm1.9-4.6h4.7v-1.3h-4.7zm6.6 3.2h-3.7v1.4h3.7z" fill="#fafbfc"/><path d="m385.3 3.8h1.3v2.2h2.8v-2.2h1.3v2.2h4.1v9.1h1.7v1.3h-16.9v-1.3h1.7v-9.1h4.1v-2.2zm.4 13.1.7 1.2c-1.8.9-3.8 1.9-6 2.9-.2-.4-.5-.8-.8-1.3 2.3-1 4.3-1.9 6.1-2.8zm-3.1-6.4h2.8v-3.2h-2.8zm0 4.6h2.8v-3.3h-2.8zm4-4.6h2.8v-3.2h-2.8zm0 4.6h2.8v-3.3h-2.8zm3.7 1.9c2.1.9 4.1 1.8 6.1 2.7l-.7 1.3c-2.2-1.1-4.2-2-6.1-2.9zm3.2-9.7h-2.8v3.2h2.8zm-2.8 7.8h2.8v-3.3h-2.8z" fill="#fafbfc"/></svg>