<svg enable-background="new 0 0 400 400" viewBox="0 0 400 400" xmlns="http://www.w3.org/2000/svg"><g fill="#010105"><path d="m328.07 329.21c-.39-11.63-6.22-18.02-16.92-20.28-6.31-1.33-12.57-2.92-18.88-4.39-.86-7.36-.36-7.81 6.92-6.76 9.04 1.3 18.09 2.57 27.15 3.71 8.73 1.1 13.21-2.65 13.22-11.15.05-39.33.02-78.66.01-117.99 0-1.29-.23-2.59-.37-4.04-20.37 0-40.46 0-60.85 0-.11 1.16-.27 2.11-.27 3.06.02 52.33-.08 104.66.21 156.98.06 10.27 1.52 20.55 2.61 30.79.97 9.08-2.57 13.41-11.08 12.9-6.5-.39-8.88-2.87-8.88-9.41-.01-62.66 0-125.32 0-187.98 0-1.97 0-3.94 0-6.25-18.3 0-36.2 0-54.87 0v5.74 144.99c0 7.57-1.91 9.34-9.56 8.92-6.46-.35-9.61-4.14-9.26-10.32.74-13.12 1.6-26.26 1.68-39.39.23-36.33.17-72.66.02-108.99-.04-8.94-.85-17.88-1.32-27.09 5.92 4.49 11.93 9.09 18 13.6 1.15.86 2.56 1.94 3.86 1.95 16.96.13 33.91.09 51.16.09 0-20.36 0-40.25 0-60.04-27.47 0-54.71 0-82.63 0-1.73-3.94-3.78-8.61-6.25-14.24 29.86 5.49 59.3 3.56 88.65 3.98 0-19.56 0-38.46 0-58.58 10.3 2.87 20.56 5.3 30.49 8.68 4.74 1.61 4.76 5.99.32 8.64-3.08 1.84-6.81 2.58-10.09 4.13-1.24.58-2.9 2.05-2.92 3.15-.22 11.11-.13 22.24-.13 33.95h8.37c14.83 0 29.67.11 44.49-.12 2.19-.03 4.76-1.22 6.45-2.68 5.41-4.67 10.49-9.72 16.21-15.1 7.11 6.38 14.85 13.14 22.29 20.22 1.1 1.05 1.56 4.09.83 5.35-.7 1.22-3.32 1.84-5.1 1.84-29 .11-57.99.08-86.99.08-1.97 0-3.94 0-6.23 0v60.76h6.42c15.67 0 31.33-.08 47 .07 3.26.03 5.62-.73 7.68-3.38 2.74-3.54 5.89-6.76 9.08-10.35 6.14 4.01 12.3 7.67 18.04 11.89 5.88 4.33 5.54 8.38-.5 12.58-.82.57-1.64 1.3-2.57 1.52-7.07 1.7-7.3 6.69-7.26 12.81.25 37.99.17 75.99.11 113.99-.03 17.74-7.45 27.27-24.37 31.66-1.13.3-2.3.3-3.97.5z"/><path d="m29.6 103.67c8.8.83 16.53 1.89 24.3 2.23 11.47.5 22.95.57 34.43.66 13.16.1 26.34-.32 39.48.17 6.55.25 11.53-1.31 15.52-6.61 2.28-3.03 5.18-5.6 7.9-8.47 7.18 5.38 14.1 10.29 20.65 15.65 1.62 1.33 2.05 4.1 3.03 6.21-2.09.96-4.18 2.73-6.28 2.76-18.32.22-36.65.13-54.98.13-1.8 0-3.61 0-5.82 0v50.46c14.47 6.1 20.7-5.56 29.02-13.33 7.22 5.41 14.38 10.52 21.16 16.09 1.39 1.14 2.04 4.11 1.72 6.03-.18 1.07-3.04 2.38-4.7 2.4-13.83.19-27.66.11-41.48.12-1.8 0-3.6 0-6.33 0v59.7c9.94 0 20.55.08 31.16-.11 1.19-.02 2.49-1.48 3.51-2.49 3.89-3.85 7.69-7.79 11.74-11.92 7.29 5.47 14.43 10.61 21.25 16.16 1.36 1.1 2.51 4.34 1.85 5.55-.85 1.55-3.62 2.86-5.58 2.88-19.66.21-39.32.13-58.98.13-1.99 0-3.98 0-6.76 0-4.42 52.13-32.77 89.32-74.46 118.73-1.26-1.58-2.43-3.06-4.04-5.08 35.21-29.76 58.3-65.93 61.31-112.74-18.81 0-37.64 0-57.57 0-1.75-3.71-4.04-8.57-6.06-12.86 21.51.82 42.88 1.64 65.15 2.49 0-20.64 0-40.3 0-60.97-12.12.64-24.37 1.09-36.58 2.08-3.2.26-4.97-.09-6.14-3.16-1.42-3.72-3.14-7.31-4.63-10.71 15.76.9 31.54 1.8 47.79 2.72 0-17.8 0-34.67 0-51.96-11.64 0-23.08-.15-34.51.06-5.3.1-10.59.82-15.88 1.39-2.42.26-4.04-.18-5.01-2.77-1.38-3.68-3.19-7.22-5.18-11.62z"/><path d="m141.77 31.79c8.8 4.13 17.1 7.83 25.18 11.97 1.52.78 3.28 3.7 2.87 4.97-.56 1.75-3.25 4.23-4.74 4.05-10.49-1.25-14.75 5.45-19.38 13.09-7.21 11.88-17.35 21.28-28.5 30.11-1.38-1.31-2.67-2.53-4.23-4.01 13.78-17.86 22.05-38.16 28.8-60.18z"/><path d="m41.87 36.31c1.49-1.37 2.7-2.48 4.47-4.11 4.84 4.1 9.81 8.15 14.59 12.41 8.45 7.54 17.09 15.09 21.55 25.79 1.84 4.42 2.44 9.59 2.51 14.44.09 5.67-3.47 9.01-8.36 9.29-4.49.26-7.61-2.13-8.58-7.87-3.28-19.37-13.13-35.22-26.18-49.95z"/></g><path d="m361.2 9.6.8-1c.9.7 1.9 1.4 2.9 2.3l-.9 1.1c-1-1-2-1.8-2.8-2.4zm.5 10.6c.9-2.1 1.6-4.3 2.3-6.7.4.2.8.4 1.3.6-.7 2.1-1.5 4.3-2.2 6.6zm.4-15.2.9-.9c1 .8 2 1.6 2.8 2.4l-1 1c-.9-.9-1.8-1.7-2.7-2.5zm12.5-1.2h1.2v1.4h2.7v1.1h-2.7v2.7h-1.2v-.6h-1.8v1.3h4.9v3.8h-1.2v-.5h-3.7c0 .4-.1.9-.1 1.2h5.1v1h-5.2c0 .5-.1.9-.2 1.2h6v1h-5.2c1.1 1.3 2.9 2 5.5 2.2-.4.4-.7.8-.9 1.3-2.9-.5-4.8-1.6-5.7-3.5h-.1c-.8 1.7-2.7 2.9-5.9 3.6-.2-.4-.6-.8-.9-1.1 2.8-.6 4.6-1.4 5.4-2.5h-4.8v-1h5.3c.1-.3.2-.7.2-1.2h-4.9v-1h5c0-.4 0-.8.1-1.2h-3.5v.5h-1.2v-3.8h4.9v-1.3h-1.8v.5h-1.2v-2.7h-2.7v-1h2.6v-1.4h1.2v1.4h4.7v-1.4zm-6.6 8.3h3.6c0-.4 0-.9 0-1.4h-3.6zm1.9-4.6h4.7v-1.3h-4.7zm6.6 3.2h-3.7v1.4h3.7z" fill="#fafbfc"/><path d="m385.3 3.8h1.3v2.2h2.8v-2.2h1.3v2.2h4.1v9.1h1.7v1.3h-16.9v-1.3h1.7v-9.1h4.1v-2.2zm.4 13.1.7 1.2c-1.8.9-3.8 1.9-6 2.9-.2-.4-.5-.8-.8-1.3 2.3-1 4.3-1.9 6.1-2.8zm-3.1-6.4h2.8v-3.2h-2.8zm0 4.6h2.8v-3.3h-2.8zm4-4.6h2.8v-3.2h-2.8zm0 4.6h2.8v-3.3h-2.8zm3.7 1.9c2.1.9 4.1 1.8 6.1 2.7l-.7 1.3c-2.2-1.1-4.2-2-6.1-2.9zm3.2-9.7h-2.8v3.2h2.8zm-2.8 7.8h2.8v-3.3h-2.8z" fill="#fafbfc"/></svg>