<svg enable-background="new 0 0 400 400" viewBox="0 0 400 400" xmlns="http://www.w3.org/2000/svg"><g fill="#010105"><path d="m256.67 317.26c1.09 1.85 2 3.41 3.49 5.94-9.52 6.08-18.77 12.49-28.5 18.04-9.51 5.42-19.36 10.33-29.4 14.68-4.41 1.91-6.34 4.44-7.18 8.84-.39 2.05-2 3.86-3.06 5.78-1.9-1.18-4.47-1.93-5.57-3.63-4.15-6.41-8.09-12.99-11.47-19.82-.89-1.79.79-4.72.8-7.12.08-19.83.05-39.66.05-59.49 0-46.16.1-92.31-.08-138.47-.04-10.06-1.1-20.12-1.69-30.26 4.74 2.99 9.8 6.41 15.1 9.42 2.2 1.25 4.89 2.3 7.36 2.31 37.32.14 74.65.16 111.97-.04 2.42-.01 5.25-1.59 7.14-3.28 3.44-3.08 6.31-6.79 9.69-10.54 6.14 4.06 12.28 7.71 17.95 11.99 5.8 4.37 5.53 7.93-.23 12.26-.93.7-1.86 1.59-2.93 1.86-6.47 1.68-7.23 6.11-7.06 12.06.42 14.82-.18 29.66.24 44.48.34 11.95 1.35 23.9 2.46 35.82.83 8.85-5.55 15.18-14.35 13.81-5.78-.9-5.47-5.26-5.53-9.65-41.13 0-82.05 0-123.33 0v107.87c22.22-4.89 43.12-13.14 64.13-22.86zm-64.23-95.8h123.16c0-13.25 0-26.12 0-38.91-41.27 0-82.14 0-123.16 0zm-.01-49.91h123.17c0-12.95 0-25.52 0-37.96-41.29 0-82.19 0-123.17 0z"/><path d="m135.62 161c8.06 4.58 15.82 8.73 23.24 13.4 1.75 1.1 3.83 4.66 3.25 5.83-.91 1.84-4.18 3.92-6.09 3.62-9.02-1.44-13.5 3.98-18.73 9.91-9.44 10.73-19.8 20.64-29.81 30.87-1.72 1.76-3.6 3.36-5.88 5.47 4.36 1.68 8.33 2.84 11.9 4.73 2.14 1.14 3.67 3.44 5.47 5.21-1.73 1.66-3.24 4.4-5.21 4.79-7.77 1.53-8.86 6.21-8.52 13.2.59 11.97-.06 23.99.21 35.98.53 23.62 1.18 47.24 2.14 70.84.19 4.64-1.81 6.39-5.63 7.1-1.78.33-3.66.19-5.49.09-5.62-.3-7.77-2.48-7.86-8.12-.09-6.33-.03-12.66-.03-18.99 0-32.49 0-64.98 0-97.47 0-1.79 0-3.59 0-5.87-17.92 10.85-35.29 21.37-52.89 32.02-1.36-2.09-2.33-3.58-3.85-5.93 41.97-28.22 79.43-60.73 103.78-106.68z"/><path d="m243.08 244.17c1.2-.56 2.83-1.32 4.94-2.3 8.93 16.47 17.6 33.11 30.43 47.85 9.82-6.59 19.66-12.75 29-19.6 9.25-6.77 17.99-14.23 27.33-21.69 5.79 5.49 11.91 11.08 17.69 16.99 1.23 1.26 1.24 3.71 1.81 5.61-1.94.52-4.11 1.89-5.78 1.43-7.49-2.09-13.78-.37-20.7 3.15-14.16 7.21-28.97 13.15-44.14 19.89 24.36 25.58 54.56 40.52 88.2 49.91.08 1.03.22 1.98.22 2.93 0 .8-.17 1.6-.33 2.91-10.07-.34-19.57.77-24.74 10.96-51.94-24.44-87.17-62.99-103.93-118.04z"/><path d="m30.37 64.76c13.8.96 27.31 2.26 40.84 2.73 13.61.47 27.24.1 41.4.1-1.45-12.77-2.83-24.93-4.29-37.86 10.86 1.77 22.06 1.43 32.3 6.22 4.14 1.94 4.32 5.96.34 8.58-2.99 1.98-6.69 2.85-9.87 4.59-1.27.69-2.87 2.44-2.81 3.63.23 4.78 1.06 9.53 1.73 14.81 7.09 0 13.87.14 20.64-.12 1.39-.05 2.87-1.45 4.06-2.51 5.32-4.78 10.56-9.65 16.37-15 3.48 3.03 7.82 6.79 12.13 10.58 3.13 2.75 6.48 5.3 9.21 8.4 1.3 1.48 2.27 4.27 1.77 5.99-.36 1.24-3.4 2.38-5.25 2.4-17.16.18-34.32.11-51.49.11-1.97 0-3.94 0-6.38 0 .74 6.46 1.63 12.33 2.02 18.24.43 6.39-1.68 8.75-7.54 9.37-5.73.6-8.94-1.9-9.8-8.01-.88-6.24-1.49-12.52-2.28-19.34-1.72-.08-3.48-.24-5.25-.25-15.5-.02-30.99-.14-46.49.04-7.47.09-14.93.83-22.4 1.09-1.18.04-3.04-.54-3.47-1.39-2.07-4.11-3.77-8.42-5.49-12.4z"/><path d="m275.54 77.41c-1.2 7.64-2.21 14.69-3.45 21.69-.74 4.18-2.64 7.57-7.49 8.04-7.56.72-10.65-2.15-9.89-9.71.65-6.41 1.78-12.78 2.83-20.02-4.61 0-8.86-.16-13.09.04-7.14.32-14.26.96-21.4 1.23-1.12.04-2.87-.83-3.34-1.78-2.05-4.09-3.74-8.36-5.46-12.31 14.87 1.22 29.5 2.42 44.8 3.68 1.22-13.81 2.33-26.35 3.53-40 9.77 3.45 19.59 6.74 29.24 10.49 1.57.61 3.46 3.36 3.24 4.83-.26 1.84-2.25 4.07-4.05 4.89-2.96 1.36-6.48 1.45-9.55 2.62-1.4.53-2.99 2.23-3.28 3.65-.83 4.01-1.03 8.15-1.54 12.83h20.87c7.67 0 15.35-.36 22.99.13 5.27.34 8.74-1.69 11.98-5.45 3.79-4.4 7.98-8.46 12.4-13.08 2.66 2.26 5.15 4.34 7.6 6.48 4.89 4.27 9.91 8.41 14.55 12.94 1.44 1.41 2.87 4.23 2.38 5.79-.45 1.43-3.44 2.24-5.44 2.94-1.19.41-2.64.08-3.97.08-26.16 0-52.33 0-78.49 0-1.96 0-3.91 0-5.97 0z"/><path d="m34.12 200.42c-.83-1.94-1.58-3.72-2.03-4.76 16.18-12.92 32.23-25.27 47.74-38.27 15.63-13.1 28.63-28.67 40.04-46.37 7.47 4.37 14.87 8.44 21.92 13.05 1.69 1.11 3.08 4.13 2.89 6.11-.11 1.17-3.72 3.07-5.53 2.83-8.84-1.14-14.34 3.57-20.04 9.36-23.7 24.05-51.15 42.82-81.89 56.78-.89.4-1.8.74-3.1 1.27z"/></g><path d="m361.2 9.6.8-1c.9.7 1.9 1.4 2.9 2.3l-.9 1.1c-1-1-2-1.8-2.8-2.4zm.5 10.6c.9-2.1 1.6-4.3 2.3-6.7.4.2.8.4 1.3.6-.7 2.1-1.5 4.3-2.2 6.6zm.4-15.2.9-.9c1 .8 2 1.6 2.8 2.4l-1 1c-.9-.9-1.8-1.7-2.7-2.5zm12.5-1.2h1.2v1.4h2.7v1.1h-2.7v2.7h-1.2v-.6h-1.8v1.3h4.9v3.8h-1.2v-.5h-3.7c0 .4-.1.9-.1 1.2h5.1v1h-5.2c0 .5-.1.9-.2 1.2h6v1h-5.2c1.1 1.3 2.9 2 5.5 2.2-.4.4-.7.8-.9 1.3-2.9-.5-4.8-1.6-5.7-3.5h-.1c-.8 1.7-2.7 2.9-5.9 3.6-.2-.4-.6-.8-.9-1.1 2.8-.6 4.6-1.4 5.4-2.5h-4.8v-1h5.3c.1-.3.2-.7.2-1.2h-4.9v-1h5c0-.4 0-.8.1-1.2h-3.5v.5h-1.2v-3.8h4.9v-1.3h-1.8v.5h-1.2v-2.7h-2.7v-1h2.6v-1.4h1.2v1.4h4.7v-1.4zm-6.6 8.3h3.6c0-.4 0-.9 0-1.4h-3.6zm1.9-4.6h4.7v-1.3h-4.7zm6.6 3.2h-3.7v1.4h3.7z" fill="#fafbfc"/><path d="m385.3 3.8h1.3v2.2h2.8v-2.2h1.3v2.2h4.1v9.1h1.7v1.3h-16.9v-1.3h1.7v-9.1h4.1v-2.2zm.4 13.1.7 1.2c-1.8.9-3.8 1.9-6 2.9-.2-.4-.5-.8-.8-1.3 2.3-1 4.3-1.9 6.1-2.8zm-3.1-6.4h2.8v-3.2h-2.8zm0 4.6h2.8v-3.3h-2.8zm4-4.6h2.8v-3.2h-2.8zm0 4.6h2.8v-3.3h-2.8zm3.7 1.9c2.1.9 4.1 1.8 6.1 2.7l-.7 1.3c-2.2-1.1-4.2-2-6.1-2.9zm3.2-9.7h-2.8v3.2h2.8zm-2.8 7.8h2.8v-3.3h-2.8z" fill="#fafbfc"/></svg>