<svg enable-background="new 0 0 400 400" viewBox="0 0 400 400" xmlns="http://www.w3.org/2000/svg"><path d="m284.17 250.36v44.47h7.45c12.33 0 24.67.13 36.99-.13 2.16-.05 4.76-1.26 6.35-2.78 5.01-4.82 9.62-10.05 14.65-15.39 7.3 6.64 14.43 12.89 21.22 19.48 1.42 1.38 2.76 4.69 2.06 5.93-.93 1.63-3.91 2.91-6.01 2.93-25.66.19-51.32.13-76.99.13-1.8 0-3.59 0-5.18 0 0 12.56-.08 24.65.03 36.75.06 6.99.7 13.98.55 20.95-.15 7.1-5.27 10.83-12.21 9.34-4.55-.97-5.26-4.46-5.25-8.41.03-17.5.01-34.99.01-52.49 0-1.81 0-3.61 0-5.29-25.73 0-51.08 0-76.95 0-1.73-3.92-3.79-8.6-5.52-12.51 27.21.68 54.5 1.37 82.14 2.06 0-15.67 0-30.23 0-45.1-14.56 0-28.98 0-43.79 0-.1 1.44-.26 2.89-.29 4.34-.12 6.94-2.2 9.2-8.66 9.33-4.92.1-8.43-3.21-8.76-8.92-.29-4.98-.08-9.99.02-14.99.28-14.48.76-28.95.88-43.43.16-19.16.17-38.33-.03-57.49-.08-7.25-.94-14.49-1.47-22.19 5.62 4.29 11.09 8.57 16.68 12.67 1.39 1.02 3.19 2.07 4.81 2.09 13 .16 25.99.07 38.99.03.46 0 .92-.27 1.65-.5 0-12.9 0-25.8 0-39.26-2.66 0-5.1 0-7.55 0-12.83 0-25.66-.13-38.49.05-6.81.1-13.61.89-20.42.97-1.46.02-3.56-1.35-4.3-2.68-1.92-3.44-3.24-7.21-4.52-10.18 25.01.76 49.98 1.52 75.07 2.28 0-17.77 0-34.34 0-51.74 2.64.53 5.47.97 8.23 1.68 6.42 1.66 12.91 3.15 19.14 5.36 2.12.75 5.17 3.66 4.95 5.16-.33 2.23-2.83 4.74-5.05 5.96-3.12 1.71-6.83 2.36-10.32 3.47v29.48c11.54 0 22.83.07 34.11-.1 1.22-.02 2.62-1.24 3.59-2.24 4.97-5.13 9.83-10.36 15.12-15.98 7.56 6.88 15.18 13.51 22.42 20.54 3.13 3.04 1.63 6.78-2.71 7.75-1.44.32-2.98.21-4.47.21-20.85.03-41.68.03-62.51.03-1.79 0-3.57 0-5.59 0v39.81c13.16 0 26.11.06 39.05-.1 1.18-.02 2.59-1.28 3.48-2.32 3.1-3.65 6.03-7.45 9.34-11.6 6.78 4.83 13.47 9.16 19.65 14.13 4.81 3.87 4.52 7.75-1.07 9.88-9.08 3.45-11.27 9.27-10.77 18.61.9 16.95.03 33.99.33 50.98.23 13.13.96 26.25 1.76 39.36.53 8.62-4.2 13.85-12.61 13.47-3.69-.16-5.56-1.71-5.41-5.53.1-2.65.02-5.31.02-8.31-14.63-.02-29.02-.02-43.84-.02zm-16.55-10.68c0-15.44 0-30.45 0-45.44-14.8 0-29.22 0-43.78 0v45.44zm60-.01c0-15.43 0-30.45 0-45.42-14.64 0-28.89 0-43.22 0v45.42zm-59.84-55.87c0-14.21 0-27.98 0-42.05-14.69 0-29.24 0-43.93 0v42.05zm60-41.98c-14.83 0-29.18 0-43.52 0v41.82h43.52c0-14.04 0-27.78 0-41.82z" fill="#010105"/><path d="m112.07 299.07c1.29 19.83 2.15 38.77 3.87 57.62 1.02 11.26-4.3 16.7-14.52 13.63-4.69-1.41-5.51-4.7-5.5-8.82.02-18.83.01-37.67.01-56.5 0-1.79 0-3.59 0-5.02-20.22 0-39.92 0-60.42 0-1.75-3.87-3.92-8.64-5.86-12.92 22.04.8 43.87 1.58 66.01 2.38 0-15.65 0-30.09 0-44.96-12.33 0-24.7 0-37.22 0-.12.39-.37.83-.39 1.28-.41 8.86-4.32 11.64-13.01 9.58-4.49-1.06-6.56-3.7-6.4-8.13.4-10.98 1.05-21.95 1.34-32.93.41-15.48.9-30.96.76-46.44-.16-16.78-1.01-33.55-1.57-50.54 5.34 3.89 10.96 8.35 16.97 12.2 2.61 1.67 5.99 2.8 9.08 2.95 8.31.4 16.66.14 24.99.14h5.51c0-13.8 0-26.9 0-39.8-18.79 0-37.35 0-56.8 0-1.72-3.81-3.85-8.57-5.85-13 20.99.8 41.68 1.6 62.38 2.39 0-17.98 0-34.74 0-52.16 9.13 2.27 18.43 4.33 27.54 7.03 2.56.76 4.56 3.4 6.82 5.18-2.1 2.14-4.19 4.29-6.31 6.42-.22.22-.6.28-.9.41-9.52 4-9.53 4-9.52 14.62 0 5.33.02 10.67.05 16 0 .32.13.65.39 1.93 5.67 0 11.63-.52 17.46.13 7.86.87 13.72-1.56 18.56-7.75 2.85-3.64 6.47-6.68 10.07-10.32 7.81 6.92 15.64 13.59 23.13 20.62 3.04 2.85 1.72 6.39-2.38 7.34-1.59.37-3.29.38-4.95.38-18.83.02-37.67.02-56.5.02-1.78 0-3.57 0-5.59 0v40.59c7.99 0 16-.58 23.87.16 8.16.77 14.08-1.71 18.48-8.52 1.24-1.92 3.03-3.49 4.88-5.57 6.31 4.25 12.74 8.08 18.59 12.65 5.15 4.03 4.68 7.84-.54 11.6-.13.1-.28.2-.43.25-8.96 2.65-9.57 9.21-9.33 17.32.59 20.32.16 40.66.41 60.99.09 7.81.71 15.63 1.44 23.41.6 6.41-1.16 9.83-7.29 10.79-10.2 1.6-12.59-.43-11.47-8.64.11-.78-.12-1.6-.22-2.68-12.77 0-25.35 0-38.27 0v44.43c7.19 0 14.3.14 21.4-.12 1.38-.05 2.82-1.51 4.02-2.57 5.35-4.71 10.63-9.52 16.27-14.59 6.4 5.72 13.8 12.12 20.9 18.86 1.38 1.31 2.6 4.33 1.99 5.75-.64 1.49-3.55 2.79-5.48 2.82-17.83.21-35.66.12-53.5.13-1.83-.02-3.62-.02-6.97-.02zm39.43-65.79c0-14.15 0-27.99 0-41.72-13 0-25.55 0-38.09 0v41.72zm-55.89-.04c0-14.09 0-27.84 0-41.81-12.56 0-24.81 0-37.33 0v41.81zm17.64-52.86h38.49c0-12.73 0-25 0-37.62-12.9 0-25.61 0-38.49 0zm-17.51.19c0-12.88 0-25.18 0-37.82-12.59 0-24.99 0-37.46 0v37.82z" fill="#010105"/><g fill="#fafbfc"><path d="m361.2 9.6.8-1c.9.7 1.9 1.4 2.9 2.3l-.9 1.1c-1-1-2-1.8-2.8-2.4zm.5 10.6c.9-2.1 1.6-4.3 2.3-6.7.4.2.8.4 1.3.6-.7 2.1-1.5 4.3-2.2 6.6zm.4-15.2.9-.9c1 .8 2 1.6 2.8 2.4l-1 1c-.9-.9-1.8-1.7-2.7-2.5zm12.5-1.2h1.2v1.4h2.7v1.1h-2.7v2.7h-1.2v-.6h-1.8v1.3h4.9v3.8h-1.2v-.5h-3.7c0 .4-.1.9-.1 1.2h5.1v1h-5.2c0 .5-.1.9-.2 1.2h6v1h-5.2c1.1 1.3 2.9 2 5.5 2.2-.4.4-.7.8-.9 1.3-2.9-.5-4.8-1.6-5.7-3.5h-.1c-.8 1.7-2.7 2.9-5.9 3.6-.2-.4-.6-.8-.9-1.1 2.8-.6 4.6-1.4 5.4-2.5h-4.8v-1h5.3c.1-.3.2-.7.2-1.2h-4.9v-1h5c0-.4 0-.8.1-1.2h-3.5v.5h-1.2v-3.8h4.9v-1.3h-1.8v.5h-1.2v-2.7h-2.7v-1h2.6v-1.4h1.2v1.4h4.7v-1.4zm-6.6 8.3h3.6c0-.4 0-.9 0-1.4h-3.6zm1.9-4.6h4.7v-1.3h-4.7zm6.6 3.2h-3.7v1.4h3.7z"/><path d="m385.3 3.8h1.3v2.2h2.8v-2.2h1.3v2.2h4.1v9.1h1.7v1.3h-16.9v-1.3h1.7v-9.1h4.1v-2.2zm.4 13.1.7 1.2c-1.8.9-3.8 1.9-6 2.9-.2-.4-.5-.8-.8-1.3 2.3-1 4.3-1.9 6.1-2.8zm-3.1-6.4h2.8v-3.2h-2.8zm0 4.6h2.8v-3.3h-2.8zm4-4.6h2.8v-3.2h-2.8zm0 4.6h2.8v-3.3h-2.8zm3.7 1.9c2.1.9 4.1 1.8 6.1 2.7l-.7 1.3c-2.2-1.1-4.2-2-6.1-2.9zm3.2-9.7h-2.8v3.2h2.8zm-2.8 7.8h2.8v-3.3h-2.8z"/></g></svg>