<svg enable-background="new 0 0 400 400" viewBox="0 0 400 400" xmlns="http://www.w3.org/2000/svg"><g fill="#010105"><path d="m53.74 370.53c-2.01-4.39-4.13-9.04-6.55-14.32 47.31 5.45 94.15 1.25 141.32 3.08 0-13.13 0-25.67 0-38.87-1.81 0-3.59 0-5.38 0-25.16 0-50.33-.07-75.49.06-5.13.03-10.3.56-15.37 1.38-3.91.64-6.25-.11-7.5-4.17-.96-3.12-2.63-6.02-4.51-10.17 36.54 5.23 72.34 2.21 108.38 3.18 0-8.44 0-16.19 0-24.12-11.85 0-23.6-.1-35.35.06-3.63.05-7.23.99-10.87 1.19-1 .06-2.58-.8-3.02-1.67-2.06-4.12-3.83-8.39-5.95-13.17 6.08.7 11.47 1.74 16.88 1.86 22.8.51 45.62.36 68.4 1.27 8.63.35 15.1-1.81 20.06-8.79 1.53-2.16 3.45-4.04 5.38-6.28 7.5 5.7 14.5 10.75 21.14 16.24 1.46 1.21 2.72 4.32 2.16 5.86-.52 1.45-3.57 2.76-5.52 2.79-16.66.22-33.33.12-49.99.12-1.79 0-3.58 0-5.64 0v24.27c1.64.08 3.26.24 4.88.24 20.33.02 40.66.13 60.99-.14 2.6-.03 5.69-1.55 7.66-3.36 5.12-4.71 9.73-9.97 14.62-15.08 7.39 6.47 14.8 12.66 21.8 19.3 1.62 1.54 1.82 4.58 2.68 6.93-2.05.72-4.11 2.07-6.16 2.08-33.49.13-66.99.1-100.48.1-1.95 0-3.9 0-6 0v38.28c1.85.09 3.46.24 5.08.24 32.16.01 64.32-.03 96.48.08 3.25.01 5.57-.87 7.83-3.24 4.81-5.05 9.94-9.8 15.22-14.96 7.41 6.59 15.07 13.22 22.44 20.16 1.18 1.11 1.91 3.92 1.34 5.32-.55 1.33-3.01 2.06-4.77 2.64-1.2.4-2.64.08-3.97.08-90.48.02-180.97.01-271.45.13-6.78.01-13.56.89-20.77 1.4z"/><path d="m69.82 123.82h95.44c0-9.39 0-18.64 0-28.96-7.76.57-15.36.66-22.79 1.86-4.54.73-6.76-.39-8.23-4.53-1.15-3.25-2.82-6.31-4.3-9.54 11.8 1.13 23.3 2.23 35.26 3.37 0-9.77 0-18.69 0-27.72-6.6 0-13.33-.38-20 .09-10.66.75-10.65.99-15.13-8.75-.61-1.33-1.07-2.74-1.76-4.53 7.78.72 15.21 1.02 22.51 2.18 7.49 1.2 13.74.48 17.9-6.79 1.21-2.12 3.12-3.85 5.16-6.3 5.88 4.32 11.87 8.21 17.24 12.82 4.65 4 4.55 8.15-.87 10.13-8.39 3.06-7.98 8.99-7.91 15.77.19 19.5.02 39 .1 58.5.02 4.76-1.46 7.92-6.58 9.02-6.66 1.43-9.15.23-11.04-6.43-1.35 0-2.82 0-4.29 0-28.83 0-57.67-.05-86.5.1-2.22.01-4.39 1.58-6.65 2.18-3.92 1.05-7.87 2.36-11.86 2.56-1.08.05-3.27-3.43-3.36-5.36-.38-8.15-.16-16.33-.16-24.49 0-21.17 0-42.33 0-63.5 0-1.76 0-3.52 0-6.09 5.42 2.85 9.98 5.5 14.78 7.61 1.58.7 4.18.7 5.63-.15 10.11-5.91 19.57-12.67 26.07-23.16 5.53 3.96 10.99 7.51 15.96 11.63 1.79 1.48 2.43 4.34 3.59 6.57-2.19.76-4.69 2.6-6.51 2.08-8.19-2.34-14.17 1.84-20.75 5.43-5.48 2.98-11.61 4.83-17.55 6.88-2.76.95-3.97 2.22-3.89 5.31.22 7.95.07 15.92.07 23.88 7.2 1.05 13.35 1.23 17.81-5.23 2.25-3.25 5.29-5.95 8.26-9.21 7.56 5.61 14.59 10.59 21.28 16 1.3 1.05 2.17 4.11 1.57 5.56-.55 1.33-3.33 2.43-5.14 2.46-14.32.2-28.64.11-43.37.11.01 9.68.01 19.06.01 28.64z"/><path d="m32.85 296.77c-2.73-6.33 1.17-6.88 4.81-7.83 31.69-8.29 62.96-17.81 92.63-31.93 21.01-10.01 40.57-22.22 56.92-39.06 3.12-3.21 6.01-6.64 9.2-10.18 7.06 4.32 14.11 8.37 20.87 12.86 4.93 3.27 4.76 5.66-.56 9.09 2.72 1.59 5.14 3.11 7.66 4.45 37.57 20.06 77.46 33.17 119.5 39.8 7.21 1.14 14.46 2.03 21.7 3.01 3.53.48 3.56.5 3.17 5.78-2.53.37-5.33.25-7.65 1.24-4.35 1.86-9.81 3.36-12.31 6.81-4.37 6.01-8.56 5.11-14.33 3.33-40.98-12.64-80.63-28.22-116.53-52.16-4.84-3.23-9.55-6.65-14.52-10.13-50.41 38.35-109.93 52.85-170.56 64.92z"/><path d="m290.51 189.71c-20.08 15.53-42.82 23.41-66.75 29.36-.7-1.94-1.3-3.6-1.85-5.13 10.09-4.74 20.24-8.89 29.77-14.17s18.45-11.68 28.51-18.15c-3.23-2.59-5.22-4.52-7.51-5.97-15.72-9.95-31.44-19.91-47.32-29.59-2.67-1.63-6.16-1.88-9.23-2.9-.98-.32-2.24-.84-2.65-1.64-2-3.95-3.76-8.02-5.9-12.69 6.7.76 12.59 1.85 18.51 2.02 18.29.51 36.6.68 54.9.97 1.83.03 3.66 0 5.5 0 6.5 0 13.47 1.48 19.35-.43 5.64-1.82 10.15-7.15 15.8-11.43 5.21 4.24 11.35 8.57 16.67 13.73 4.86 4.72 4.11 9.18-2.31 10.8-8.5 2.15-12.73 8.12-17.37 14.42-4.73 6.42-10.01 12.42-15.35 18.97 4.89 3.55 10.08 6.82 14.68 10.76 6.79 5.83 13.58 11.77 19.53 18.41 2.63 2.93 4.23 7.66 4.47 11.67.46 7.96-6.95 11.91-13.7 7.59-3.17-2.03-5.84-4.9-8.51-7.62-7.47-7.58-14.78-15.32-22.25-22.91-2.1-2.09-4.49-3.9-6.99-6.07zm-54.37-47.55c17.54 9.16 34.44 18.01 51.4 26.76.92.47 2.85.54 3.39-.05 7.31-7.94 13.44-16.71 18.64-26.72-24.78.01-48.87.01-73.43.01z"/><path d="m169.21 145.02c7.77 5.83 14.81 10.84 21.47 16.31 1.44 1.18 2.35 4.19 1.94 6.01-.27 1.23-3.28 2.59-5.08 2.61-18.49.19-36.98.12-55.47.12-1.78 0-3.56 0-5.61 0v35.2c23.8-3.03 47.27-6.01 71.17-9.05.34 1.59.73 3.44 1.27 5.96-11.71 2.63-23.25 5.65-34.94 7.77-32.81 5.96-65.68 11.57-98.54 17.24-3.8.66-6.51 1.64-7.61 6.12-.7 2.87-3.47 5.23-5.32 7.82-2.09-2.38-4.72-4.48-6.17-7.2-3.66-6.86-6.8-14.01-10.39-21.55 24.41-1.89 48.45-3.75 72.77-5.63 0-12.21 0-24.12 0-35.94-19.61 0-39.16 0-59.63 0-1.74-3.83-3.89-8.6-6.29-13.9 6.69.74 12.75 1.68 18.85 2.01 9.96.55 19.93.9 29.9.98 19.66.15 39.31-.04 58.97.12 3.45.03 6-.81 8.24-3.46 3.29-3.93 6.88-7.62 10.47-11.54z"/><path d="m233.93 29.15c6.14 4.74 11.11 8.91 16.45 12.53 2.3 1.56 5.35 2.71 8.09 2.79 11.15.31 22.32.02 33.48.2 3.3.05 5.64-.82 7.63-3.54 2.42-3.32 5.25-6.35 8.25-9.91 5.75 4.23 11.48 7.94 16.59 12.37 4.94 4.29 4.06 8.85-2 11.62-4.43 2.02-6.61 4.55-6.16 9.84.59 6.95.1 13.98.16 20.98.07 7.91 2.72 10.7 10.33 11.97 9.61 1.61 18.81.71 27.82-3.08 4.9-2.06 15.01 4.12 15.14 9.4.04 1.69-1.61 4.17-3.16 4.98-3.03 1.57-6.47 2.68-9.85 3.17-13.23 1.9-26.51 2.4-39.53-1.29-13.12-3.72-17.34-9.6-17.34-23.06 0-10.8 0-21.6 0-32.75-16.62 0-32.86 0-50.26 0 .55 29.73-12.49 51.71-40.41 64.64-.81-.91-1.9-2.15-3.08-3.49 4.12-4.53 8.36-8.93 12.3-13.59 10.54-12.45 15.09-27.17 15.51-43.23.26-9.78.04-19.55.04-30.55z"/><path d="m274.72 323.47c4.62 4.65 9.81 9.54 14.53 14.84 1.29 1.45 1.77 4.25 1.42 6.22-.15.87-3.69 2.16-5.05 1.62-9.58-3.77-17.21 1.33-25.26 4.91-5.42 2.41-10.96 4.55-16.64 6.89-1.18-1.88-2.13-3.39-2.85-4.54 11.26-9.96 22.26-19.69 33.85-29.94z"/><path d="m107.54 328.41c.97-1.98 1.75-3.58 3-6.15 10.77 4.6 21.46 8.91 31.9 13.74 5.24 2.42 8.5 6.86 8.57 12.96.04 3.45-.73 6.77-4.52 8.01-3.97 1.31-7.44.03-9.44-3.53-6.64-11.8-16.78-19.42-29.51-25.03z"/></g><path d="m361.2 9.6.8-1c.9.7 1.9 1.4 2.9 2.3l-.9 1.1c-1-1-2-1.8-2.8-2.4zm.5 10.6c.9-2.1 1.6-4.3 2.3-6.7.4.2.8.4 1.3.6-.7 2.1-1.5 4.3-2.2 6.6zm.4-15.2.9-.9c1 .8 2 1.6 2.8 2.4l-1 1c-.9-.9-1.8-1.7-2.7-2.5zm12.5-1.2h1.2v1.4h2.7v1.1h-2.7v2.7h-1.2v-.6h-1.8v1.3h4.9v3.8h-1.2v-.5h-3.7c0 .4-.1.9-.1 1.2h5.1v1h-5.2c0 .5-.1.9-.2 1.2h6v1h-5.2c1.1 1.3 2.9 2 5.5 2.2-.4.4-.7.8-.9 1.3-2.9-.5-4.8-1.6-5.7-3.5h-.1c-.8 1.7-2.7 2.9-5.9 3.6-.2-.4-.6-.8-.9-1.1 2.8-.6 4.6-1.4 5.4-2.5h-4.8v-1h5.3c.1-.3.2-.7.2-1.2h-4.9v-1h5c0-.4 0-.8.1-1.2h-3.5v.5h-1.2v-3.8h4.9v-1.3h-1.8v.5h-1.2v-2.7h-2.7v-1h2.6v-1.4h1.2v1.4h4.7v-1.4zm-6.6 8.3h3.6c0-.4 0-.9 0-1.4h-3.6zm1.9-4.6h4.7v-1.3h-4.7zm6.6 3.2h-3.7v1.4h3.7z" fill="#fafbfc"/><path d="m385.3 3.8h1.3v2.2h2.8v-2.2h1.3v2.2h4.1v9.1h1.7v1.3h-16.9v-1.3h1.7v-9.1h4.1v-2.2zm.4 13.1.7 1.2c-1.8.9-3.8 1.9-6 2.9-.2-.4-.5-.8-.8-1.3 2.3-1 4.3-1.9 6.1-2.8zm-3.1-6.4h2.8v-3.2h-2.8zm0 4.6h2.8v-3.3h-2.8zm4-4.6h2.8v-3.2h-2.8zm0 4.6h2.8v-3.3h-2.8zm3.7 1.9c2.1.9 4.1 1.8 6.1 2.7l-.7 1.3c-2.2-1.1-4.2-2-6.1-2.9zm3.2-9.7h-2.8v3.2h2.8zm-2.8 7.8h2.8v-3.3h-2.8z" fill="#fafbfc"/></svg>