<svg enable-background="new 0 0 400 400" viewBox="0 0 400 400" xmlns="http://www.w3.org/2000/svg"><g fill="#010105"><path d="m344.83 112.12c-8.81 0-16.79 0-25.26 0-1.82 9.74-3.35 19.53-5.51 29.19-12.42 55.78-32.86 108.01-68.51 153.42-15.95 20.31-34.21 38.16-55.94 52.3-.68.44-1.4.81-2.48 1.43-1.04-1.61-1.99-3.09-2.18-3.38 13.69-14.47 27.61-27.88 40.02-42.57 21.12-25.01 35.64-54.04 47.97-84.19 13.91-34.01 22.63-69.37 27.67-106.02-9.67 0-19.25 0-29.17 0-14.51 63.9-40.05 121.43-95.19 161.82-1.21-1.46-2.36-2.84-3.85-4.64 21.5-21.33 39.31-45.17 52.14-72.56 12.65-27.01 22.17-55 27.56-84.9-9.71 0-19.02-.16-28.32.17-1.44.05-3.17 2.11-4.14 3.65-11.21 17.79-23.75 34.56-38.08 49.97-4.75 5.12-9.37 10.36-14.44 15.97-2.47-2.71-3.86-4.25-4.7-5.17 11.06-16.02 22.45-31.2 32.42-47.27 17.38-28.02 29.11-58.54 36.85-90.55.96-3.97 2.29-4.39 5.75-3.06 7.74 2.98 15.71 5.4 23.36 8.58 2.08.86 3.37 3.61 5.02 5.49-2.07 1.71-4.11 4.86-6.21 4.9-10.54.23-14.33 7.03-17.61 15.49-4.13 10.62-9.12 20.91-13.86 31.62 1.49.07 2.62.18 3.75.18 35.33.01 70.66.06 105.99-.12 2.12-.01 4.64-1.34 6.26-2.83 3.4-3.12 6.34-6.76 9.78-10.53 6.32 4.2 12.72 8.05 18.66 12.52 5.28 3.97 5.05 9.93-1.16 12.12-8.87 3.13-9.99 9.23-10.09 17.07-.17 14.47-.58 28.95-1.32 43.41-1.4 27.39-2.75 54.79-4.8 82.13-1.48 19.69-3.62 39.36-6.28 58.93-2.02 14.87-5.62 29.43-16.52 40.89-8.41 8.85-18.62 14.22-30.81 16.3-3.53-10-11.36-14.97-20.83-17.69-11.32-3.25-22.73-6.23-34.14-9.18-4.21-1.09-6.29-2.86-3.28-7.45 12.81 2.61 25.73 5.42 38.72 7.81 6.83 1.26 13.77 2 20.7 2.57 10.04.83 16.72-4.3 21.19-12.85 5.74-10.97 7.44-23.02 8.88-35.06 2.41-20.29 4.75-40.6 6.58-60.94 1.28-14.24 1.81-28.55 2.41-42.84 1.1-26.09 2-52.19 2.97-78.29.08-1.78.03-3.58.03-5.84z"/><path d="m88.64 163.78c-9.74.57-19.01 1.1-28.85 1.68-1.97-4.38-4.1-9.11-6.47-14.37 7.4.69 13.96 1.62 20.55 1.86 13.63.49 27.28.69 40.92.77 1.71.01 3.78-1.11 5.07-2.34 5.29-5.03 10.34-10.3 16.2-16.21 6.43 6.75 12.75 13.14 18.72 19.85 1.43 1.61 2.82 4.77 2.14 6.33-.65 1.51-3.96 2.58-6.12 2.62-14.63.22-29.27.12-44.28.12v59.93c6.95 0 14.05-.42 21.09.12 6.55.5 11.39-1.16 15.42-6.6 2.93-3.96 6.97-7.11 10.98-11.07 4.58 3.92 9.22 7.86 13.82 11.83 2.77 2.39 5.75 4.61 8.17 7.32 1.36 1.52 2.79 4.19 2.31 5.76-.43 1.37-3.49 2.69-5.4 2.71-20.16.19-40.32.12-60.48.12-1.82 0-3.63 0-5.86 0v94.31c20.78-7.59 41.12-15.01 61.96-22.61.49 1.09 1.34 3 2.63 5.86-9.87 6.26-19.44 12.85-29.51 18.57-9.81 5.58-20.06 10.41-30.26 15.26-3 1.43-4.5 2.99-4.06 6.36.19 1.45.21 3.17-.4 4.42-.73 1.48-2.11 3.46-3.43 3.64-1.61.21-4.4-.76-5-2.02-3.81-7.91-7.33-15.99-10.51-24.17-.63-1.63.94-4 .94-6.03.07-29.99.05-59.98.04-89.97 0-.98-.12-1.96-.24-3.62-2.7 0-5.31-.11-7.91.02-11.28.56-22.56 1.28-33.85 1.68-1.58.06-3.95-.91-4.66-2.14-2.13-3.69-3.61-7.76-5.19-11.33 17.08.72 34.09 1.45 51.5 2.19.02-20.58.02-40.29.02-60.85z"/><path d="m29 169.99c-1.56-1.77-2.85-3.24-4.48-5.09 33.2-39.36 52.53-84.97 60.98-136.01 8.59 2.04 17.29 3.86 25.8 6.33 2.01.58 4.77 3.42 4.69 5.1-.09 1.84-2.91 4.85-4.81 5.08-8.56 1.03-11.44 6.48-13.63 13.9-3.06 10.32-7.25 20.29-11.08 30.74 1.07.18 2.15.52 3.23.53 13 .04 26 .19 38.99-.13 2.27-.05 4.82-1.72 6.69-3.3 5.18-4.39 10.07-9.13 15.56-14.18 7.15 6.44 15.04 13.29 22.61 20.47 2.87 2.72 1.42 6.11-2.57 6.76-1.79.29-3.65.22-5.48.22-25.66.01-51.33.29-76.99-.2-6.07-.12-8.43 2.46-10.74 7.11-10.53 21.25-25.08 39.58-41.76 56.29-1.99 1.99-4.16 3.8-7.01 6.38z"/></g><path d="m361.2 9.6.8-1c.9.7 1.9 1.4 2.9 2.3l-.9 1.1c-1-1-2-1.8-2.8-2.4zm.5 10.6c.9-2.1 1.6-4.3 2.3-6.7.4.2.8.4 1.3.6-.7 2.1-1.5 4.3-2.2 6.6zm.4-15.2.9-.9c1 .8 2 1.6 2.8 2.4l-1 1c-.9-.9-1.8-1.7-2.7-2.5zm12.5-1.2h1.2v1.4h2.7v1.1h-2.7v2.7h-1.2v-.6h-1.8v1.3h4.9v3.8h-1.2v-.5h-3.7c0 .4-.1.9-.1 1.2h5.1v1h-5.2c0 .5-.1.9-.2 1.2h6v1h-5.2c1.1 1.3 2.9 2 5.5 2.2-.4.4-.7.8-.9 1.3-2.9-.5-4.8-1.6-5.7-3.5h-.1c-.8 1.7-2.7 2.9-5.9 3.6-.2-.4-.6-.8-.9-1.1 2.8-.6 4.6-1.4 5.4-2.5h-4.8v-1h5.3c.1-.3.2-.7.2-1.2h-4.9v-1h5c0-.4 0-.8.1-1.2h-3.5v.5h-1.2v-3.8h4.9v-1.3h-1.8v.5h-1.2v-2.7h-2.7v-1h2.6v-1.4h1.2v1.4h4.7v-1.4zm-6.6 8.3h3.6c0-.4 0-.9 0-1.4h-3.6zm1.9-4.6h4.7v-1.3h-4.7zm6.6 3.2h-3.7v1.4h3.7z" fill="#fafbfc"/><path d="m385.3 3.8h1.3v2.2h2.8v-2.2h1.3v2.2h4.1v9.1h1.7v1.3h-16.9v-1.3h1.7v-9.1h4.1v-2.2zm.4 13.1.7 1.2c-1.8.9-3.8 1.9-6 2.9-.2-.4-.5-.8-.8-1.3 2.3-1 4.3-1.9 6.1-2.8zm-3.1-6.4h2.8v-3.2h-2.8zm0 4.6h2.8v-3.3h-2.8zm4-4.6h2.8v-3.2h-2.8zm0 4.6h2.8v-3.3h-2.8zm3.7 1.9c2.1.9 4.1 1.8 6.1 2.7l-.7 1.3c-2.2-1.1-4.2-2-6.1-2.9zm3.2-9.7h-2.8v3.2h2.8zm-2.8 7.8h2.8v-3.3h-2.8z" fill="#fafbfc"/></svg>