<svg enable-background="new 0 0 400 400" viewBox="0 0 400 400" xmlns="http://www.w3.org/2000/svg"><g fill="#010105"><path d="m326.39 242.25c7.42 5.62 14.29 10.58 20.83 15.95 1.51 1.24 3 4.27 2.47 5.76-.52 1.48-3.53 2.25-5.58 2.96-1.19.41-2.64.08-3.97.08-77.83 0-155.66 0-233.49 0-1.98 0-3.95 0-6.25 0v22.93h6.14c74.33 0 148.66-.05 222.99.12 4.66.01 7.86-1.22 10.51-4.91 1.92-2.68 4.27-5.06 6.72-7.9 5.76 4.03 11.49 7.72 16.84 11.89 5.01 3.91 5.12 7.86-.55 10.36-8.09 3.57-9.98 9.71-11.21 17.48-1.6 10.13-3.63 20.32-6.84 30.03-5.29 16.02-18.88 25.17-35.53 25.11-2.05-17.88-18.78-17.69-30.69-24.56.83-2.06 1.72-4.26 2.61-6.46 10.07 2.43 19.86 4.91 29.71 7.16 10.7 2.44 15.51-.04 18.16-10.56 3.06-12.15 5.21-24.54 7.9-37.52-3.02 0-4.98 0-6.94 0-74.66 0-149.32-.08-223.99.16-5.44.02-10.86 2.35-16.32 3.45-4.84.97-7.06-.74-7.06-5.43-.02-47.5-.01-94.99 0-142.49 0-.79.12-1.57.23-2.84 2.95 1.58 5.73 2.71 8.09 4.41 7.64 5.53 16.05 7.04 25.37 6.52 10.63-.59 21.33-.25 31.99-.06 3.04.05 4.54-.97 5.34-3.82 3.64-12.89 7.38-25.75 11.28-39.34 7.95 2.1 16.61 4.15 25.08 6.82 1.93.61 3.18 3.35 4.74 5.12-1.78 1.53-3.5 4.3-5.35 4.38-10.16.45-14.8 7.42-19.36 14.92-2.3 3.79-5.11 7.28-8.38 11.85h6.1c36 0 72-.06 107.99.09 4.01.02 6.92-.88 9.39-4.15 2.58-3.41 5.68-6.44 8.77-9.88 6.27 4.13 12.37 7.84 18.13 12.03 5.54 4.02 5.25 8.56-.36 12.37-.28.19-.54.45-.84.53-9.05 2.32-9.45 8.86-9.17 16.72.54 15.15.18 30.33.15 45.49-.01 7.38-8.65 13.06-15.17 9.86-1.02-.5-1.76-2.27-1.96-3.55-.32-2.1-.09-4.29-.09-6.85-61.54 0-122.76 0-184.38 0v20.46h5.55c67 0 133.99-.03 200.99.08 3.81.01 6.62-.91 9.1-3.83 3.23-3.77 6.8-7.24 10.31-10.94zm-226.03-68.08v20.47h184.07c0-7 0-13.7 0-20.47-61.49 0-122.59 0-184.07 0zm-.04 51.34h184.19c0-6.87 0-13.43 0-20.16-61.53 0-122.73 0-184.19 0z"/><path d="m146.95 76.91c-35.09.96-69.69-1.39-104.8 1.67-2.01-4.32-4.21-9.07-6.81-14.68 37.65 5.61 74.72 1.75 112.14 3.31 0-11.59 0-22.63 0-34.4 5.14.71 10.48 1.39 15.8 2.2 3.77.58 7.64.95 11.22 2.16 2.08.71 5.27 3.14 5.09 4.37-.31 2.11-2.56 4.39-4.57 5.68-2.84 1.81-8.3 2.15-8.95 4.25-1.39 4.53-.43 9.79-.43 15.21 1.99.09 3.75.23 5.51.23 25.5.01 51-.16 76.49.15 5.2.06 8.59-1.52 11.86-5.4 7.29-8.63 7.5-8.52 16.91-2.34 3.47 2.28 7.03 4.52 10.08 7.3 3.88 3.53 3.55 6.78-.48 10.05-1.28 1.04-2.67 2.27-4.2 2.65-6.61 1.64-7.3 6.14-6.93 12 .48 7.8.04 15.66.18 23.49.12 6.77 2.53 10.32 9.16 10.93 10.24.95 20.58 1.04 30.88 1.11 6.79.04 13.65-.1 20.34-1.08 6.92-1.01 11.24-5.69 12.42-12.64 1.85-10.8 3.39-21.65 5.05-32.47.32-2.11.65-4.21.99-6.42 4.4-.4 5.64 1.38 5.59 5.42-.13 10.81.27 21.63.26 32.45 0 5.01 2.59 8.34 6.11 11.4 6.59 5.74 5.83 11.99-2.65 14.28-9.84 2.67-20.14 4.65-30.3 4.96-17.95.55-35.95-.12-53.91-.8-12.53-.47-21.66-4.66-21.25-22.12.32-13.66.03-27.33 0-40.99 0-.32-.16-.63-.35-1.37-30.76 0-61.62 0-92.36 0-1.76 6.8-3.05 13.66-5.32 20.18-5.33 15.34-17.3 24.4-31.16 31.41-19.28 9.76-39.96 15.35-60.93 19.95-10.51 2.31-21.12 4.19-32.25 6.37-.58-2.45-1.09-4.59-1.69-7.12 9.18-2.17 18.05-4.1 26.82-6.38 22.76-5.92 44.98-13.19 64.31-27.21 11.47-8.32 19.55-18.92 21.76-33.31.19-1.12.2-2.28.37-4.45z"/><path d="m69.59 313.53c-2.53 11.67-4.69 23.22-7.61 34.57-1.83 7.11-5.13 14-11.56 18.05-3.56 2.24-8.31 3.71-12.47 3.59-6.95-.2-9.78-7.46-5.7-13.21 1.13-1.59 2.54-3.21 4.19-4.18 14.01-8.19 21.21-20.96 25-36.2 1.3-5.21 1.79-5.26 8.15-2.62z"/><path d="m230.32 312.6c1.33-2.05 2.31-3.55 3.53-5.43 12.44 6.05 24.81 11.97 33.06 23.33 2.28 3.14 2.98 7.98 3.01 12.05.03 4.05-3.05 6.87-7.22 7.81-4.08.92-6.57-1.44-8.63-4.49-.19-.28-.4-.55-.5-.86-4.42-12.95-12.65-23.24-23.25-32.41z"/><path d="m175.2 314.6c.89-.75 2.28-1.92 4.18-3.53 10.66 10.45 24.42 18.18 27.97 34.29.63 2.86.12 6.29-.89 9.1-1.28 3.57-4.12 5.98-8.38 5.91-4.13-.07-5.83-3.03-6.87-6.22-1.28-3.93-1.47-8.27-3.08-12.02-3.92-9.1-8.39-17.96-12.93-27.53z"/><path d="m111.61 315.24c1.78-.83 3.27-1.53 5.76-2.69 5.49 9.86 11.53 19.41 16.17 29.61 2.21 4.86 2.24 10.91 2.37 16.44.09 3.79-2.29 6.9-6.29 8.07-3.47 1.02-6.84.59-8.91-2.51-1.17-1.75-1.91-4.3-1.72-6.38 1.34-14.37-1.97-27.88-7.05-41.11-.12-.32-.15-.65-.33-1.43z"/></g><path d="m361.2 9.6.8-1c.9.7 1.9 1.4 2.9 2.3l-.9 1.1c-1-1-2-1.8-2.8-2.4zm.5 10.6c.9-2.1 1.6-4.3 2.3-6.7.4.2.8.4 1.3.6-.7 2.1-1.5 4.3-2.2 6.6zm.4-15.2.9-.9c1 .8 2 1.6 2.8 2.4l-1 1c-.9-.9-1.8-1.7-2.7-2.5zm12.5-1.2h1.2v1.4h2.7v1.1h-2.7v2.7h-1.2v-.6h-1.8v1.3h4.9v3.8h-1.2v-.5h-3.7c0 .4-.1.9-.1 1.2h5.1v1h-5.2c0 .5-.1.9-.2 1.2h6v1h-5.2c1.1 1.3 2.9 2 5.5 2.2-.4.4-.7.8-.9 1.3-2.9-.5-4.8-1.6-5.7-3.5h-.1c-.8 1.7-2.7 2.9-5.9 3.6-.2-.4-.6-.8-.9-1.1 2.8-.6 4.6-1.4 5.4-2.5h-4.8v-1h5.3c.1-.3.2-.7.2-1.2h-4.9v-1h5c0-.4 0-.8.1-1.2h-3.5v.5h-1.2v-3.8h4.9v-1.3h-1.8v.5h-1.2v-2.7h-2.7v-1h2.6v-1.4h1.2v1.4h4.7v-1.4zm-6.6 8.3h3.6c0-.4 0-.9 0-1.4h-3.6zm1.9-4.6h4.7v-1.3h-4.7zm6.6 3.2h-3.7v1.4h3.7z" fill="#fafbfc"/><path d="m385.3 3.8h1.3v2.2h2.8v-2.2h1.3v2.2h4.1v9.1h1.7v1.3h-16.9v-1.3h1.7v-9.1h4.1v-2.2zm.4 13.1.7 1.2c-1.8.9-3.8 1.9-6 2.9-.2-.4-.5-.8-.8-1.3 2.3-1 4.3-1.9 6.1-2.8zm-3.1-6.4h2.8v-3.2h-2.8zm0 4.6h2.8v-3.3h-2.8zm4-4.6h2.8v-3.2h-2.8zm0 4.6h2.8v-3.3h-2.8zm3.7 1.9c2.1.9 4.1 1.8 6.1 2.7l-.7 1.3c-2.2-1.1-4.2-2-6.1-2.9zm3.2-9.7h-2.8v3.2h2.8zm-2.8 7.8h2.8v-3.3h-2.8z" fill="#fafbfc"/></svg>