<svg enable-background="new 0 0 400 400" viewBox="0 0 400 400" xmlns="http://www.w3.org/2000/svg"><path d="m385.2 377.6.6-.7c.6.4 1.3.9 1.9 1.5l-.6.7c-.8-.5-1.4-1-1.9-1.5zm.3 7.1c.6-1.4 1.1-2.9 1.5-4.5.3.1.6.3.9.4-.5 1.4-1 2.9-1.5 4.4zm.2-10.1.6-.6c.7.5 1.3 1.1 1.9 1.6l-.7.7c-.6-.6-1.2-1.2-1.8-1.7zm8.4-.8h.8v.9h1.8v.7h-1.8v1.8h-.8v-.3h-1.2v.9h3.3v2.6h-.8v-.4h-2.5c0 .3 0 .6-.1.8h3.4v.7h-3.5c0 .3-.1.6-.1.8h4v.7h-3.5c.7.9 1.9 1.3 3.6 1.5-.2.2-.4.5-.6.9-1.9-.3-3.2-1.1-3.8-2.3-.5 2.1-1.8 2-3.9 2.4-.2-.3-.4-.5-.6-.8 1.9-.4 3.1-.9 3.6-1.7h-3.2v-.7h3.5c.1-.2.1-.5.2-.8h-3.3v-.7h3.4c0-.2 0-.5 0-.8h-2.4v.3h-.8v-2.6h3.3v-.9h-1.2v.3h-.8v-1.8h-1.8v-.7h1.8v-.9h.8v.9h3.2zm-4.4 5.5h2.4c0-.3 0-.6 0-.9h-2.4zm1.2-3.1h3.2v-.8h-3.2zm4.4 2.2h-2.4v.9h2.5v-.9z" fill="#fafafb"/><path d="m389.2 385.8h.9v1.5h1.9v-1.5h.9v1.5h2.7v6h1.1v.9h-11.3v-.9h1.1v-6h2.7zm.2 8.7.5.8c-1.2.6-2.5 1.3-4 1.9-.2-.3-.3-.6-.6-.8 1.6-.6 3-1.3 4.1-1.9zm-2-4.3h1.9v-2.1h-1.9zm0 3.1h1.9v-2.2h-1.9zm2.7-3.1h1.9v-2.1h-1.9zm0 3.1h1.9v-2.2h-1.9zm2.4 1.3c1.4.6 2.7 1.2 4.1 1.8l-.5.9c-1.5-.7-2.8-1.4-4.1-1.9zm2.2-6.5h-1.9v2.1h1.9zm-1.9 5.2h1.9v-2.2h-1.9z" fill="#fafafb"/><path d="m27.95 371.51c-.9-2.43-1.52-4.11-2.36-6.38 53.74-25.28 103.35-56.33 140.56-103.59 36.93-46.91 59.02-100.94 73.58-159.07-2.03-.12-3.59-.29-5.15-.29-31.5-.02-63 .05-94.5-.1-3.62-.02-5.58 1.09-7.46 4.23-23.41 39.12-52.18 73.53-89.37 100.4-.94.68-1.89 1.36-2.87 1.99-.55.36-1.16.61-1.91 1-1.58-1.97-3.12-3.89-4.87-6.07 59.06-46.67 94.65-107.92 113.58-179.86 9.41 2.64 18.2 5.01 26.9 7.65 1.81.55 3.64 1.82 4.9 3.25 2.63 3 1.5 7.09-2.43 8.28-3.63 1.1-7.51 1.29-11.22 2.16-1.26.29-2.89 1.16-3.39 2.21-7.01 14.84-13.85 29.76-21 45.24 1.98.09 3.71.24 5.43.24 28.5.01 57-.08 85.5.11 4.22.03 7.25-1 9.82-4.34 2.53-3.28 5.49-6.24 8.6-9.72 6.22 4.15 12.56 8.02 18.49 12.45 5.11 3.82 4.8 7.9-.27 11.75-.4.3-.8.69-1.25.81-8.77 2.35-10.71 9.75-12.83 17.11-7.19 24.95-16.39 49.14-27.7 72.53-.77 1.59-1.07 3.92-.54 5.56 13.67 42.28 36.26 78.71 70.94 107.05 22.2 18.14 47.44 30.49 74.89 38.48 4.54 1.32 4.54 1.32 2.73 6.22-9.64.35-18 3.15-22 13.57-67.8-31.25-108.42-85.69-134.22-154.91-41.07 81.25-106.37 132.33-190.58 162.04z" fill="#010100"/></svg>