<svg enable-background="new 0 0 400 400" viewBox="0 0 400 400" xmlns="http://www.w3.org/2000/svg"><path d="m385.2 377.6.6-.7c.6.4 1.3.9 1.9 1.5l-.6.7c-.8-.5-1.4-1-1.9-1.5zm.3 7.1c.6-1.4 1.1-2.9 1.5-4.5.3.1.6.3.9.4-.5 1.4-1 2.9-1.5 4.4zm.2-10.1.6-.6c.7.5 1.3 1.1 1.9 1.6l-.7.7c-.6-.6-1.2-1.2-1.8-1.7zm8.4-.8h.8v.9h1.8v.7h-1.8v1.8h-.8v-.3h-1.2v.9h3.3v2.6h-.8v-.4h-2.5c0 .3 0 .6-.1.8h3.4v.7h-3.5c0 .3-.1.6-.1.8h4v.7h-3.5c.7.9 1.9 1.3 3.6 1.5-.2.2-.4.5-.6.9-1.9-.3-3.2-1.1-3.8-2.3-.5 2.1-1.8 2-3.9 2.4-.2-.3-.4-.5-.6-.8 1.9-.4 3.1-.9 3.6-1.7h-3.2v-.7h3.5c.1-.2.1-.5.2-.8h-3.3v-.7h3.4c0-.2 0-.5 0-.8h-2.4v.3h-.8v-2.6h3.3v-.9h-1.2v.3h-.8v-1.8h-1.8v-.7h1.8v-.9h.8v.9h3.2zm-4.4 5.5h2.4c0-.3 0-.6 0-.9h-2.4zm1.2-3.1h3.2v-.8h-3.2zm4.4 2.2h-2.4v.9h2.5v-.9z" fill="#fafafb"/><path d="m389.2 385.8h.9v1.5h1.9v-1.5h.9v1.5h2.7v6h1.1v.9h-11.3v-.9h1.1v-6h2.7zm.2 8.7.5.8c-1.2.6-2.5 1.3-4 1.9-.2-.3-.3-.6-.6-.8 1.6-.6 3-1.3 4.1-1.9zm-2-4.3h1.9v-2.1h-1.9zm0 3.1h1.9v-2.2h-1.9zm2.7-3.1h1.9v-2.1h-1.9zm0 3.1h1.9v-2.2h-1.9zm2.4 1.3c1.4.6 2.7 1.2 4.1 1.8l-.5.9c-1.5-.7-2.8-1.4-4.1-1.9zm2.2-6.5h-1.9v2.1h1.9zm-1.9 5.2h1.9v-2.2h-1.9z" fill="#fafafb"/><g fill="#010100"><path d="m129.46 230c5.95.37 11.18.72 16.41 1.01 6.14.35 12.28.93 18.43.94 46.65.08 93.3.01 139.95.11 3.47.01 5.81-.82 7.96-3.73 4.14-5.6 8.8-10.82 13.28-16.26 8.45 6.69 16.79 13.31 25.16 19.9 2.15 1.69 4.36 3.33 3.19 6.55-1.16 3.22-3.75 3.69-6.84 3.68-34.49-.06-68.97.03-103.46-.13-3.96-.02-6.31 1.11-8.36 4.57-16.04 27.03-34.83 51.94-57.76 73.57-4.93 4.65-9.91 9.26-14.66 14.47 47.68-3.58 94.92-9.48 143.04-21.32-13.99-14.38-27.25-28-40.8-41.94 1.12-1.27 2.5-2.83 3.94-4.47 26.02 18.95 50.84 37.95 70.97 62.25 5.47 6.6 8.58 14.19 6.25 23.11-1.63 6.25-8.18 8.67-13.12 4.39-2.43-2.11-4.27-5.05-5.93-7.87-4.63-7.88-9.07-15.88-13.51-23.87-1.88-3.39-4.06-4.27-8.06-2.95-37.28 12.34-75.75 19.6-114.37 26.1-7.53 1.27-15.11 2.24-22.69 3.14-3.93.47-6.5 1.86-6.29 6.31.05.98.11 2.19-.38 2.93-1.06 1.57-2.33 3.83-3.79 4.07-1.41.23-3.89-1.36-4.66-2.81-4.33-8.16-8.3-16.51-12.44-24.91 10.09-2.67 15.61-10.14 21.48-17.01 19.43-22.72 36.02-47.38 50.11-73.73.53-.99.91-2.06 1.58-3.62-1.99-.12-3.55-.31-5.11-.29-22.64.31-45.28.54-67.91 1.07-3.71.09-5.84-.76-7.15-4.3-1.06-2.89-2.74-5.56-4.46-8.96z"/><path d="m84.56 149.41c-14.6 23-31.56 44.07-51.12 63.43-.96-.73-1.85-1.37-2.7-2.07-.76-.63-1.48-1.32-2.65-2.39 43.91-51.99 73.49-111.11 88.41-178.48 9.64 3.93 19.05 7.52 28.19 11.7 1.93.88 2.86 3.94 4.25 5.99-2.16 1.23-4.3 2.5-6.5 3.66-.56.29-1.32.42-1.95.32-8.7-1.35-10.81 4.68-13.44 11.1-8.55 20.86-17.55 41.54-26.61 62.86 1.76.73 4.38 1.65 6.83 2.89 2.05 1.04 4.18 2.18 5.79 3.77 3.24 3.22 2.75 7.14-1.59 7.99-9.47 1.85-9.47 7.94-9.44 15.58.25 58.15.08 116.3.18 174.45.02 10.81.61 21.62.96 32.42.1 3.1.18 6.62-3.51 7.34-3.92.76-8.06.56-12.08.4-.62-.03-1.42-2.08-1.67-3.3-.29-1.44-.09-2.99-.09-4.48 0-69.15 0-138.29 0-207.44 0-1.78 0-3.56 0-5.33-.42-.15-.84-.28-1.26-.41z"/><path d="m236.32 58.12c-24.15 51.72-63.26 86.81-112.07 112.56-.65-.77-1.41-1.59-2.06-2.48-.57-.78-1.01-1.66-1.2-1.99 11.93-9.21 24.4-17.42 35.17-27.45 21.23-19.79 40.82-41.19 53.65-67.69 5.27-10.9 9.81-22.17 14.37-33.4 1.34-3.3 2.77-4.22 6.29-3.33 7.23 1.82 14.61 3.07 21.9 4.67 3.02.67 5.76 1.79 5.81 5.7.06 4.24-3.22 4.57-6.06 5.27-2.56.63-5.19.94-9.12 1.62 5.38 7.3 9.89 14.44 15.4 20.7 23.74 26.99 50.93 49.73 83.78 64.94 8.68 4.02 18.03 6.59 26.99 10.06 1.48.57 2.49 2.33 3.72 3.55-1.52.85-3.05 2.44-4.57 2.43-9.56-.06-17.15 3.39-22.25 12.04-47.38-24.38-81.08-62.24-109.75-107.2z"/><path d="m162.35 164.52c4.72.53 8.44 1.23 12.18 1.32 20.13.47 40.25.87 60.38 1.13 12.16.16 24.33.17 36.48-.1 2.12-.05 4.74-1.31 6.21-2.87 5.01-5.31 9.61-11 14.79-17.04 8.62 7 17.21 13.73 25.42 20.88 1.49 1.3 2.5 4.85 1.77 6.49-.68 1.52-3.97 2.62-6.12 2.63-41.31.19-82.63.15-123.94.26-5.64.01-11.28.8-16.92.72-1.64-.02-3.81-1.45-4.78-2.88-2-2.97-3.37-6.38-5.47-10.54z"/></g></svg>