<svg enable-background="new 0 0 400 400" viewBox="0 0 400 400" xmlns="http://www.w3.org/2000/svg"><path d="m385.2 377.6.6-.7c.6.4 1.3.9 1.9 1.5l-.6.7c-.8-.5-1.4-1-1.9-1.5zm.3 7.1c.6-1.4 1.1-2.9 1.5-4.5.3.1.6.3.9.4-.5 1.4-1 2.9-1.5 4.4zm.2-10.1.6-.6c.7.5 1.3 1.1 1.9 1.6l-.7.7c-.6-.6-1.2-1.2-1.8-1.7zm8.4-.8h.8v.9h1.8v.7h-1.8v1.8h-.8v-.3h-1.2v.9h3.3v2.6h-.8v-.4h-2.5c0 .3 0 .6-.1.8h3.4v.7h-3.5c0 .3-.1.6-.1.8h4v.7h-3.5c.7.9 1.9 1.3 3.6 1.5-.2.2-.4.5-.6.9-1.9-.3-3.2-1.1-3.8-2.3-.5 2.1-1.8 2-3.9 2.4-.2-.3-.4-.5-.6-.8 1.9-.4 3.1-.9 3.6-1.7h-3.2v-.7h3.5c.1-.2.1-.5.2-.8h-3.3v-.7h3.4c0-.2 0-.5 0-.8h-2.4v.3h-.8v-2.6h3.3v-.9h-1.2v.3h-.8v-1.8h-1.8v-.7h1.8v-.9h.8v.9h3.2zm-4.4 5.5h2.4c0-.3 0-.6 0-.9h-2.4zm1.2-3.1h3.2v-.8h-3.2zm4.4 2.2h-2.4v.9h2.5v-.9z" fill="#fafafb"/><path d="m389.2 385.8h.9v1.5h1.9v-1.5h.9v1.5h2.7v6h1.1v.9h-11.3v-.9h1.1v-6h2.7zm.2 8.7.5.8c-1.2.6-2.5 1.3-4 1.9-.2-.3-.3-.6-.6-.8 1.6-.6 3-1.3 4.1-1.9zm-2-4.3h1.9v-2.1h-1.9zm0 3.1h1.9v-2.2h-1.9zm2.7-3.1h1.9v-2.1h-1.9zm0 3.1h1.9v-2.2h-1.9zm2.4 1.3c1.4.6 2.7 1.2 4.1 1.8l-.5.9c-1.5-.7-2.8-1.4-4.1-1.9zm2.2-6.5h-1.9v2.1h1.9zm-1.9 5.2h1.9v-2.2h-1.9z" fill="#fafafb"/><g fill="#010100"><path d="m118.53 190.6c35.84 5.44 70.92 1.83 106.17 3.21 0-33.27 0-65.68 0-97.83-28.41 0-56.62 0-85.63 0-1.76-3.85-3.95-8.64-6.39-13.97 30.8 4.94 61.21 2.15 91.74 3.03 0-18.71 0-36.78 0-56.05 10.3 2.73 20.7 5.12 30.84 8.33 4.04 1.28 4.33 5.89.68 8.26-3.12 2.03-7 2.86-10.39 4.52-1.36.67-3.3 2.11-3.33 3.24-.26 10.29-.15 20.6-.15 31.24 1.93.15 3.36.35 4.8.35 17.83.02 35.66.12 53.49-.12 2.3-.03 5.08-1.35 6.78-2.96 5.05-4.79 9.67-10.03 15.03-15.71 8.04 7.32 15.95 14.35 23.61 21.65 1.18 1.13 2.16 3.97 1.54 5.08-.72 1.28-3.3 2.12-5.07 2.12-28.49.1-56.99.07-85.48-.02-4.61-.01-9.21-.46-14.22-.73v98.99c1.56.11 3.3.34 5.03.34 24.5.02 48.99-.06 73.49.1 3.53.02 5.93-1.18 8.19-3.69 4.56-5.06 9.32-9.95 14.3-15.23 7.78 7 15.54 13.77 22.98 20.86 1.41 1.34 2.73 4.56 2.05 5.84-.78 1.47-3.81 2.45-5.87 2.44-34.81-.05-69.62-.29-104.43-.49-1.96-.01-3.93 0-6.87 0 13.92 24.8 31.37 45.64 50.66 65.17 19.59 19.84 42.73 33.68 69.11 42.57-.12 3.26.56 6.42-3.89 6.24-9.2-.37-16.05 3.45-20.7 11.82-47.88-27.8-76.45-72.14-104.21-117.9v5.22c0 36.83-.15 73.65.09 110.48.08 11.46 1.36 22.9 1.86 34.36.4 9.26-5.93 13.75-14.69 10.77-3.23-1.1-4.93-3.04-4.86-6.61.12-6.16.02-12.33.02-18.5 0-43.16 0-86.32 0-129.48 0-1.8 0-3.6 0-5.4-.37-.25-.74-.5-1.11-.75-28.13 51.57-65.75 94.04-116.79 124.03-1.01-1.07-1.81-1.87-2.56-2.71-.76-.87-1.47-1.79-2.73-3.35 45.98-32.05 79.11-74.56 102.75-125.25-1.02-.28-1.77-.68-2.51-.67-23.29.48-46.58.86-69.85 1.64-4.87.16-8.27-.35-9.66-5.68-.69-2.66-2.19-5.13-3.82-8.8z"/><path d="m75.83 151.72c-11.98 18.74-24.33 36.69-39.81 52.88-1.94-1.7-3.64-3.19-5.77-5.05 35.39-51.06 57.03-107.49 68.69-168.88 9.56 3.97 19.5 7.93 29.23 12.34 1.48.67 2.79 3.48 2.72 5.24-.06 1.33-2.26 3.18-3.86 3.69-3.12 1-6.55.99-9.73 1.86-1.49.41-3.43 1.61-3.9 2.91-7.96 22.15-15.72 44.37-23.67 66.99 2.91.91 6.6 1.75 9.99 3.25 1.74.77 3.95 2.62 4.12 4.17s-1.63 4.4-3.13 4.86c-8.46 2.6-8.43 8.84-8.4 16.03.21 48.98-.16 97.97.24 146.95.17 20.94 1.79 41.86 2.59 62.79.36 9.48-4.36 13.61-13.62 12.3-3.52-.5-5.88-2.09-5.66-6.17.14-2.66-.02-5.33-.02-7.99 0-67.48 0-134.95 0-202.43-.01-1.91-.01-3.83-.01-5.74z"/><path d="m274.26 178.77c-2.75-2.29-4.53-3.76-6.53-5.42 13.36-20.17 26.72-40.18 33.98-64.49 9.01 4.86 17.48 9.23 25.68 14.06 1.43.84 2.73 3.93 2.27 5.41-.44 1.41-3.47 3.16-5.01 2.88-9.05-1.66-13.43 3.56-18.42 9.98-10.04 12.93-21.18 25.02-31.97 37.58z"/><path d="m144.78 117.31c1.16-1.45 2.28-2.85 3.77-4.71 15.52 11.27 32.26 20.78 42.98 37.28 3.55 5.47 6.04 11.51 4.99 18.26-.73 4.65-2.5 8.77-8.15 9.21-5.7.44-8.14-3.41-9.34-7.94-4.06-15.39-12.94-27.91-23.07-39.73-3.56-4.15-7.33-8.13-11.18-12.37z"/></g></svg>