<svg enable-background="new 0 0 400 400" viewBox="0 0 400 400" xmlns="http://www.w3.org/2000/svg"><g fill="#010100"><path d="m197.2 369.07c-1.53-12.3-8.53-18.95-20.29-20.97-3.92-.67-7.79-1.66-11.68-2.51-6.17-1.36-6.46-1.95-3.89-9.05 7.67 1.27 15.45 2.8 23.3 3.76 5.21.64 10.55.86 15.79.55 4.81-.29 7.47-3.6 7.51-8.4.12-13.82.04-27.65.04-41.88-21.95 0-43.67 0-65.97 0-.62 5.98-1.45 12.03-1.85 18.11-1.59 23.82-9.85 44.96-25.08 63.35-.31.37-.72.66-1.38 1.27-.74-.53-1.52-1.04-2.24-1.63-.77-.63-1.48-1.33-1.55-1.4 3.75-11.39 8.53-22.15 10.67-33.41 2.59-13.64 3.77-27.68 4.07-41.58.55-25.82.12-51.66-.09-77.48-.11-13.48-.62-26.96-.94-40.44-.04-1.47 0-2.95 0-5.59 5.9 3.76 10.88 7.21 16.14 10.16 2.48 1.39 5.49 2.5 8.27 2.54 17.33.23 34.66.02 52 .2 3.54.04 5.93-1.11 8.09-3.78 2.81-3.48 5.93-6.69 9.08-10.2 5.99 3.89 11.83 7.39 17.34 11.35 6.55 4.71 6.76 10.26-.58 13.29-8.72 3.6-8.97 9.44-8.91 17.17.3 40 .14 80 .14 119.99-.02 22.7-5.47 29.95-27.99 36.58zm-54.97-135.33h65.35c0-13.28 0-26.29 0-39.26-21.99 0-43.56 0-65.35 0zm65.6 10.69c-22.21 0-43.88 0-65.48 0v36.01h65.48c0-12.15 0-23.92 0-36.01z"/><path d="m68 155.91c-12.34 16.34-24.32 32.2-36.55 48.4-1.58-1.2-2.49-1.81-3.3-2.53-.74-.66-1.37-1.43-2.15-2.26 18.3-26.01 33.83-53.42 46.02-82.73 12.07-29.01 21.39-58.82 26.83-90.38 10.11 3.76 19.64 7.09 28.96 10.95 1.86.77 4.13 3.71 3.94 5.4-.18 1.64-3.2 3.08-5.14 4.35-.92.6-2.27.96-3.35.83-7.31-.91-9.52 3.31-11.8 9.49-8.84 23.97-18.42 47.66-27.92 71.94 2.16.96 5.72 2.03 8.65 4.02 2.28 1.54 5.25 4.28 5.18 6.4-.06 1.92-3.54 4.66-5.99 5.38-5.2 1.53-6.55 4.23-6.52 9.55.27 61.49.21 122.99.34 184.48.02 7.48.77 14.95.92 22.43.16 7.55-7.57 12.72-14.52 9.63-1.52-.68-2.73-2.67-3.46-4.32-.56-1.26-.15-2.95-.15-4.45 0-67 0-133.99 0-200.99.01-1.74.01-3.49.01-5.59z"/><path d="m104.19 166.28c-1.3-2.16-2.32-3.85-3.53-5.85 7.36-4.71 14.8-9.02 21.75-14.02 35.45-25.47 65.43-55.97 85.88-94.98 3.06-5.85 5.24-12.2 7.37-18.47.81-2.38 1.69-3.58 4.1-2.94 8.47 2.25 16.98 4.41 25.34 7.04 1.87.59 3.18 2.96 4.75 4.51-1.7 1.47-3.18 3.46-5.15 4.3-2.86 1.22-6.07 1.61-10.17 2.61 6.04 7 11.44 13.86 17.46 20.13 33.66 35.11 73.82 59.49 120.8 72.39 3.84 1.05 4.02 3.24 3.28 6.52-3.47.52-7.18.62-10.56 1.71-3.73 1.21-7.63 2.76-10.57 5.22-2.6 2.17-4.34 2.47-7.33 1.21-38.29-16.07-69.47-41.52-96.11-72.88-8.14-9.58-15.54-19.8-23.64-30.19-28.28 52.2-71.01 88.13-123.67 113.69z"/><path d="m291.9 263.79c21.33-29.19 38.58-60.01 44.26-96.67 9.16 2.89 17.91 5.43 26.47 8.52 1.91.69 3.11 3.31 4.64 5.04-1.89 1.54-3.74 4.35-5.68 4.41-8.1.27-11.3 5.13-14.35 11.78-11.39 24.79-26.03 47.54-45.05 67.91 5.88 6.25 11.9 12.36 17.6 18.76 13.67 15.32 26.73 31.2 33.53 50.91 2.43 7.05 3.12 14.86 3.6 22.39.37 5.83-2.64 8.95-7.38 9.68-5.1.78-8.36-2.1-10.07-6.33-1.79-4.43-2.9-9.15-4.04-13.82-7.12-29.14-21.13-54.72-39.94-77.85-1.14-1.4-2.2-2.9-3.59-4.73z"/><path d="m277.34 166.83c10.15 3.54 20.01 6.72 29.64 10.49 3.39 1.33 3.31 4.85-.03 6.39-3.41 1.58-7.19 2.7-10.91 3.16-3.18.4-4.48 1.76-5.52 4.58-6.76 18.24-14.1 36.23-25.51 52.19-5.21 7.29-10.81 14.31-16.41 21.68 7.11 8.93 14.52 17.84 21.48 27.09 10.3 13.7 19.92 27.89 25.52 44.29 2.46 7.21 4.52 14.57 2.63 22.42-1.06 4.41-3.54 7.2-7.94 7.78-4.54.6-7.92-1.81-9.38-5.87-1.61-4.48-2.56-9.24-3.46-13.94-5.55-29.14-18.4-54.96-35.84-78.65-2.35-3.19-2.89-5.29-.39-8.97 17.76-26.19 28.67-55.28 35.37-86.05.37-1.77.42-3.61.75-6.59z"/><path d="m167.38 132.84c5.35.78 9.87 1.88 14.42 2.02 23.61.71 47.22 1.25 70.84 1.61 1.96.03 4.35-1.29 5.84-2.72 4.64-4.48 8.95-9.31 13.8-14.45 7.59 5.95 15.16 11.61 22.34 17.73 1.74 1.48 2.21 4.46 3.26 6.75-2.29.88-4.58 2.5-6.88 2.52-21.33.2-42.66-.08-63.98.18-16.12.2-32.25.92-48.36 1.6-3.15.13-4.84-.74-5.96-3.75-1.37-3.69-3.29-7.18-5.32-11.49z"/></g><path d="m361.2 9.6.8-1c.9.7 1.9 1.4 2.9 2.3l-.9 1.1c-1-1-2-1.8-2.8-2.4zm.5 10.6c.9-2.1 1.6-4.3 2.3-6.7.4.2.8.4 1.3.6-.7 2.1-1.5 4.3-2.2 6.6zm.4-15.2.9-.9c1 .8 2 1.6 2.8 2.4l-1 1c-.9-.9-1.8-1.7-2.7-2.5zm12.5-1.2h1.2v1.4h2.7v1.1h-2.7v2.7h-1.2v-.6h-1.8v1.3h4.9v3.8h-1.2v-.5h-3.7c0 .4-.1.9-.1 1.2h5.1v1h-5.2c0 .5-.1.9-.2 1.2h6v1h-5.2c1.1 1.3 2.9 2 5.5 2.2-.4.4-.7.8-.9 1.3-2.9-.5-4.8-1.6-5.7-3.5h-.1c-.8 1.7-2.7 2.9-5.9 3.6-.2-.4-.6-.8-.9-1.1 2.8-.6 4.6-1.4 5.4-2.5h-4.8v-1h5.3c.1-.3.2-.7.2-1.2h-4.9v-1h5c0-.4 0-.8.1-1.2h-3.5v.5h-1.2v-3.8h4.9v-1.3h-1.8v.5h-1.2v-2.7h-2.7v-1h2.6v-1.4h1.2v1.4h4.7v-1.4zm-6.6 8.3h3.6c0-.4 0-.9 0-1.4h-3.6zm1.9-4.6h4.7v-1.3h-4.7zm6.6 3.2h-3.7v1.4h3.7z" fill="#fbfafc"/><path d="m385.3 3.8h1.3v2.2h2.8v-2.2h1.3v2.2h4.1v9.1h1.7v1.3h-16.9v-1.3h1.7v-9.1h4.1v-2.2zm.4 13.1.7 1.2c-1.8.9-3.8 1.9-6 2.9-.2-.4-.5-.8-.8-1.3 2.3-1 4.3-1.9 6.1-2.8zm-3.1-6.4h2.8v-3.2h-2.8zm0 4.6h2.8v-3.3h-2.8zm4-4.6h2.8v-3.2h-2.8zm0 4.6h2.8v-3.3h-2.8zm3.7 1.9c2.1.9 4.1 1.8 6.1 2.7l-.7 1.3c-2.2-1.1-4.2-2-6.1-2.9zm3.2-9.7h-2.8v3.2h2.8zm-2.8 7.8h2.8v-3.3h-2.8z" fill="#fbfafc"/></svg>