<svg enable-background="new 0 0 400 400" viewBox="0 0 400 400" xmlns="http://www.w3.org/2000/svg"><path d="m232.93 186.47c-22.79 0-45.05 0-67.92 0-.65 7.76-1.24 15.5-1.95 23.23-1.85 20.03-4.02 39.99-10.13 59.3-8.29 26.2-23.29 47.49-45.1 64.31-23.58 18.19-50.67 28.73-79.04 37.96-.78-2.02-1.46-3.81-2.35-6.13 6.07-2.84 11.9-5.51 17.69-8.28 18.48-8.84 36.59-18.21 52.68-31.19 23.04-18.59 37.05-42.71 42.76-71.26 3.76-18.83 5.03-38.15 7.37-57.26.42-3.41.59-6.86.91-10.65-15.07 0-29.64 0-44.49 0-.11 1.46-.27 2.74-.28 4.02-.1 7.2-1.56 8.81-8.16 8.87-7.25.07-11.1-2.87-11.02-9.2.17-13.81.96-27.62 1.03-41.43.16-29.83.11-59.66-.07-89.49-.04-6.61-.98-13.21-1.56-20.65 5.86 4.37 11.23 8.69 16.95 12.49 2.31 1.53 5.38 2.71 8.11 2.71 60.99.15 121.99.08 182.99.2 3.81.01 6.56-.87 8.96-3.93 2.86-3.64 6.18-6.92 9.69-10.78 6.42 4.41 12.92 8.42 18.89 13.1 4.63 3.64 4.28 7.32-.26 11.17-1.39 1.17-2.89 2.55-4.56 2.98-5.77 1.48-6.13 5.44-6.09 10.49.2 29 .25 58-.04 86.99-.05 5.15 1.44 8.48 5.78 10.88 1.58.88 3.37 1.88 4.3 3.32 1.06 1.63 1.96 3.96 1.59 5.71-.22 1.02-3.03 2.12-4.68 2.13-22.83.14-45.66.09-68.49.09-1.81 0-3.63 0-6.25 0v6.11 130.99c0 13.52 3.4 17.65 17.02 18.51 13.27.84 26.61 1.03 39.91.97 7.79-.04 15.57-1.17 23.36-1.71 14.23-.98 19.06-11.28 20.4-21.31 2.15-16.12 4.11-32.26 6.17-48.55 1.79.39 3.22.7 5.36 1.16v5.21c0 14.83.08 29.66-.03 44.5-.05 7.33 1.96 13.14 8.82 17.1 5.86 3.39 5.64 9.15-.83 11.6-7.82 2.96-16.2 5.62-24.46 6.05-25.74 1.34-51.53 1.82-77.31 2.05-6.87.06-13.89-1.48-20.6-3.2-10.44-2.68-15.06-9.3-15.06-20.07-.01-47.66 0-95.33 0-142.99-.01-1.94-.01-3.9-.01-6.12zm-129.72-10.85h197.43c0-37.28 0-74.18 0-111.16-65.96 0-131.62 0-197.43 0z" fill="#010100"/><g fill="#fbfafc"><path d="m361.2 9.6.8-1c.9.7 1.9 1.4 2.9 2.3l-.9 1.1c-1-1-2-1.8-2.8-2.4zm.5 10.6c.9-2.1 1.6-4.3 2.3-6.7.4.2.8.4 1.3.6-.7 2.1-1.5 4.3-2.2 6.6zm.4-15.2.9-.9c1 .8 2 1.6 2.8 2.4l-1 1c-.9-.9-1.8-1.7-2.7-2.5zm12.5-1.2h1.2v1.4h2.7v1.1h-2.7v2.7h-1.2v-.6h-1.8v1.3h4.9v3.8h-1.2v-.5h-3.7c0 .4-.1.9-.1 1.2h5.1v1h-5.2c0 .5-.1.9-.2 1.2h6v1h-5.2c1.1 1.3 2.9 2 5.5 2.2-.4.4-.7.8-.9 1.3-2.9-.5-4.8-1.6-5.7-3.5h-.1c-.8 1.7-2.7 2.9-5.9 3.6-.2-.4-.6-.8-.9-1.1 2.8-.6 4.6-1.4 5.4-2.5h-4.8v-1h5.3c.1-.3.2-.7.2-1.2h-4.9v-1h5c0-.4 0-.8.1-1.2h-3.5v.5h-1.2v-3.8h4.9v-1.3h-1.8v.5h-1.2v-2.7h-2.7v-1h2.6v-1.4h1.2v1.4h4.7v-1.4zm-6.6 8.3h3.6c0-.4 0-.9 0-1.4h-3.6zm1.9-4.6h4.7v-1.3h-4.7zm6.6 3.2h-3.7v1.4h3.7z"/><path d="m385.3 3.8h1.3v2.2h2.8v-2.2h1.3v2.2h4.1v9.1h1.7v1.3h-16.9v-1.3h1.7v-9.1h4.1v-2.2zm.4 13.1.7 1.2c-1.8.9-3.8 1.9-6 2.9-.2-.4-.5-.8-.8-1.3 2.3-1 4.3-1.9 6.1-2.8zm-3.1-6.4h2.8v-3.2h-2.8zm0 4.6h2.8v-3.3h-2.8zm4-4.6h2.8v-3.2h-2.8zm0 4.6h2.8v-3.3h-2.8zm3.7 1.9c2.1.9 4.1 1.8 6.1 2.7l-.7 1.3c-2.2-1.1-4.2-2-6.1-2.9zm3.2-9.7h-2.8v3.2h2.8zm-2.8 7.8h2.8v-3.3h-2.8z"/></g></svg>