<svg enable-background="new 0 0 400 400" viewBox="0 0 400 400" xmlns="http://www.w3.org/2000/svg"><path d="m337.01 39.9c8.86 7.07 17.25 13.62 25.42 20.43 1.29 1.07 2.59 3.76 2.09 4.94-.69 1.6-2.97 2.76-4.81 3.55-1.27.55-2.95.18-4.45.18-32.33 0-64.65 0-96.98 0-1.81 0-3.62 0-5.86 0-.09 1.95-.24 3.55-.24 5.16-.01 26.16.06 52.32-.09 78.48-.02 3.42 1.03 5.22 4.05 6.93 23.6 13.41 46.83 27.41 67.67 44.97 8.3 7 16.3 14.49 20.62 24.71 1.82 4.3 2.69 9.26 2.8 13.95.15 6.74-6.55 10.3-11.77 6.03-4.65-3.8-8.55-8.8-11.91-13.85-18.23-27.4-42.44-48.43-69.68-66.32-.24-.16-.63-.08-1.41-.16-.09 1.58-.27 3.14-.27 4.71-.01 46.16-.26 92.31.13 138.47.13 15.76 1.99 31.51 2.8 47.27.4 7.64-2.07 9.97-9.51 10.05-8.06.09-10.01-1.91-10.01-10.46-.01-94.31 0-188.62 0-282.93 0-2.14 0-4.28 0-6.66-1.4-.15-2.34-.34-3.28-.34-18.5 0-36.99-.07-55.49.08-5.31.04-10.61.94-15.92.98-1.48.01-3.61-1.26-4.35-2.56-1.95-3.41-3.3-7.17-5.33-11.77 4.21.45 7.54 1.05 10.89 1.13 27.11.7 54.22 1.53 81.33 1.88 23.99.31 47.99-.03 71.98.16 3.91.03 6.5-1.18 8.86-4.14 3.91-4.91 8.16-9.58 12.72-14.87z" fill="#010100"/><path d="m127.25 72.3c6.2 4.11 12.19 7.71 17.76 11.87 6.08 4.54 5.75 8.61-.54 12.92-1.23.84-2.5 1.86-3.89 2.18-5.79 1.33-6.3 5.21-6.28 10.38.18 46.49.2 92.99-.03 139.48-.03 5.24 1.43 8.73 5.57 11.73 2.92 2.12 7.56 4.02 5.97 8.71-1.63 4.81-6.4 2.37-9.67 2.39-24.99.21-49.99.11-74.99.11-1.8 0-3.61 0-6.09 0 0 5.65-.19 10.92.06 16.18.22 4.57-.99 7.97-5.92 8.77-5.39.87-10.57-1.83-11.19-6.69-.76-6.02-.41-12.2-.37-18.31.37-59.13.87-118.26 1.07-177.39.03-7.75-1.38-15.5-2.19-24.01 5.92 4.24 11.47 8.53 17.36 12.27 2.49 1.58 5.7 2.77 8.6 2.82 15.83.27 31.66-.02 47.49.23 4.13.07 6.88-1.21 9.27-4.42 2.28-3.06 4.99-5.78 8.01-9.22zm-71.96 22.91v167.02h62.88c0-55.87 0-111.38 0-167.02-21.06 0-41.69 0-62.88 0z" fill="#010100"/><g fill="#fbfafc"><path d="m361.2 9.6.8-1c.9.7 1.9 1.4 2.9 2.3l-.9 1.1c-1-1-2-1.8-2.8-2.4zm.5 10.6c.9-2.1 1.6-4.3 2.3-6.7.4.2.8.4 1.3.6-.7 2.1-1.5 4.3-2.2 6.6zm.4-15.2.9-.9c1 .8 2 1.6 2.8 2.4l-1 1c-.9-.9-1.8-1.7-2.7-2.5zm12.5-1.2h1.2v1.4h2.7v1.1h-2.7v2.7h-1.2v-.6h-1.8v1.3h4.9v3.8h-1.2v-.5h-3.7c0 .4-.1.9-.1 1.2h5.1v1h-5.2c0 .5-.1.9-.2 1.2h6v1h-5.2c1.1 1.3 2.9 2 5.5 2.2-.4.4-.7.8-.9 1.3-2.9-.5-4.8-1.6-5.7-3.5h-.1c-.8 1.7-2.7 2.9-5.9 3.6-.2-.4-.6-.8-.9-1.1 2.8-.6 4.6-1.4 5.4-2.5h-4.8v-1h5.3c.1-.3.2-.7.2-1.2h-4.9v-1h5c0-.4 0-.8.1-1.2h-3.5v.5h-1.2v-3.8h4.9v-1.3h-1.8v.5h-1.2v-2.7h-2.7v-1h2.6v-1.4h1.2v1.4h4.7v-1.4zm-6.6 8.3h3.6c0-.4 0-.9 0-1.4h-3.6zm1.9-4.6h4.7v-1.3h-4.7zm6.6 3.2h-3.7v1.4h3.7z"/><path d="m385.3 3.8h1.3v2.2h2.8v-2.2h1.3v2.2h4.1v9.1h1.7v1.3h-16.9v-1.3h1.7v-9.1h4.1v-2.2zm.4 13.1.7 1.2c-1.8.9-3.8 1.9-6 2.9-.2-.4-.5-.8-.8-1.3 2.3-1 4.3-1.9 6.1-2.8zm-3.1-6.4h2.8v-3.2h-2.8zm0 4.6h2.8v-3.3h-2.8zm4-4.6h2.8v-3.2h-2.8zm0 4.6h2.8v-3.3h-2.8zm3.7 1.9c2.1.9 4.1 1.8 6.1 2.7l-.7 1.3c-2.2-1.1-4.2-2-6.1-2.9zm3.2-9.7h-2.8v3.2h2.8zm-2.8 7.8h2.8v-3.3h-2.8z"/></g></svg>