<svg enable-background="new 0 0 400 400" viewBox="0 0 400 400" xmlns="http://www.w3.org/2000/svg"><path d="m374.8 390.4.4-.4c.7.5 1.3 1 1.8 1.4l-.5.5c-.5-.6-1.1-1.1-1.7-1.5zm1 7.3-.6-.3c.5-1.4 1.1-2.8 1.5-4.3.2.1.4.2.6.3-.5 1.3-1 2.8-1.5 4.3zm-.4-10.3.4-.4c.4.3 1 .8 1.7 1.4l-.5.5c-.4-.5-1-1-1.6-1.5zm2.5.3h1.7v-1h.6v1h3.5v-1h.6v1h1.8v.5h-1.8v1.4h-2v1h3.2v2h-3.2v.9h3.3v.5h-3.4c0 .3-.1.6-.1.9h4v.5h-3.7c.7.9 1.9 1.5 3.8 1.7-.1.2-.2.4-.3.6-2.1-.4-3.5-1.1-4-2.1-.4 1-1.8 1.7-4 2.2-.1-.2-.2-.4-.3-.6 2.1-.4 3.4-1 3.8-1.8h-3.4v-.5h3.6c.1-.3.1-.6.2-.9h-3.3v-.5h3.4c0-.3 0-.6 0-.9h-3.2v-2h3.3v-1h-2.1v-1.4h-1.7v-.5zm1.1 3.5v1h2.7c0-.3 0-.4 0-.4 0-.1 0-.2 0-.2 0-.1 0-.2 0-.3h-2.7zm1.2-3v.9h3.5v-.9zm4.7 3h-2.6v.6.4h2.6z" fill="#fafafb"/><path d="m393.6 386.7h.6v1.5h2.7v6.1h1.1v.6h-11v-.6h1.1v-6.1h2.7v-1.5h.6v1.5h2.1v-1.5zm-2.7 8.8.4.6c-1.2.6-2.5 1.3-3.8 1.9-.1-.2-.2-.4-.3-.6 1.2-.6 2.5-1.2 3.7-1.9zm-2.2-6.7v2.4h2.1v-2.4zm0 3v2.5h2.1v-2.5zm2.8-3v2.4h2.1v-2.4zm0 3v2.5h2.1v-2.5zm6 6.1c-1.4-.7-2.7-1.3-3.9-1.8l.3-.6c1.5.6 2.7 1.2 3.9 1.7zm-1.2-9.1h-2.1v2.4h2.1zm-2.1 3v2.5h2.2v-2.5z" fill="#fafafb"/><g fill="#010100"><path d="m35.01 67.06c6.25 4.55 11.77 8.75 17.52 12.64 1.8 1.21 4.17 2.17 6.3 2.2 15.66.18 31.33.19 46.99-.02 2-.03 4.43-1.17 5.89-2.59 3.57-3.46 6.69-7.39 10.43-11.62 6.49 4.45 13.07 8.56 19.19 13.28 4.27 3.29 3.88 7.51-.31 10.9-1.02.83-2.16 1.77-3.39 2.04-7.73 1.71-8.68 6.75-8.63 13.91.34 47.16.22 94.33.1 141.49-.01 3.82.68 6.65 4.22 8.69 2.57 1.48 5.11 3.32 7.02 5.55 1.65 1.91 2.39 4.6 3.53 6.95-2.16.84-4.31 2.4-6.48 2.41-25.65.17-51.32.11-76.99.11-1.82 0-3.64 0-6.23 0 0 4.68-.13 9.11.04 13.54.15 3.92-.03 7.39-4.86 8.38-4.67.96-10.55-1.07-12.16-4.76-.9-2.05-1.33-4.49-1.3-6.74.21-12.81.89-25.62.92-38.42.13-53.33.14-106.66.03-159.99-.01-5.7-1.13-11.4-1.83-17.95zm77.29 25.22c-19.45 0-38.53 0-57.78 0v169.97h57.78c0-56.73 0-113.11 0-169.97z"/><path d="m185.02 346.6c0-2.46 0-4.75 0-7.16 12.33 1.66 24.45 3.34 36.58 4.89 3.29.42 6.65.65 9.95.53 7.93-.29 11.41-3.98 11.43-11.99.05-19 .02-37.99.02-56.99 0-13.66 0-27.32 0-41.14-.72-.24-1.32-.62-1.91-.62-21.99.08-43.99.16-65.98.32-3.48.03-7 .18-10.43.75-3.7.62-5.45-.97-6.69-4.18-1.24-3.22-2.88-6.28-4.85-10.48 30.19 6.49 59.75 3.58 89.53 4.36 0-21.26 0-42.01 0-63.21-9.06 0-18.16-.17-27.24.05-8.47.21-16.92.88-25.38 1.18-.87.03-2.15-.85-2.59-1.66-2.05-3.76-3.87-7.65-6.2-12.35 5.81.76 10.76 1.72 15.75 2 12.61.72 25.24 1.35 37.86 1.62 12.66.27 25.33.18 37.99-.06 2.2-.04 4.92-1.1 6.45-2.64 5.16-5.16 9.9-10.75 14.85-16.23 9.14 7.19 16.96 13.11 24.44 19.44 1.44 1.22 2.26 4.18 1.91 6.07-.2 1.05-3.39 2.17-5.25 2.19-15.83.17-31.66.1-47.49.1-1.79 0-3.58 0-5.51 0v63.42h21.61c5.83 0 11.76-.66 17.48.15 9.42 1.34 15.75-2.24 20.64-10 2.37-3.76 5.64-6.95 8.87-10.85 2.09 1.61 4.02 3.07 5.92 4.56 6.54 5.15 13.24 10.11 19.5 15.59 1.81 1.58 2.31 4.65 3.41 7.03-2.3.92-4.6 2.62-6.91 2.63-28.16.18-56.32.12-84.48.12-1.82 0-3.65 0-6.29 0v5.94 96.98c0 21.29-10.01 32.43-31.75 34.94-.7-12.55-9.13-17.5-20.04-19.88-8.26-1.76-16.51-3.54-25.2-5.42z"/><path d="m241.6 28.89c8.84 2.4 17.38 4.51 25.76 7.14 2.16.68 3.8 2.99 5.68 4.56-1.75 1.8-3.19 4.19-5.31 5.26-2.88 1.45-6.27 1.89-9.44 2.77 9.47 21 57.23 73.08 108.95 88.83-.12 1.67-.24 3.42-.38 5.33-9.22.63-17.27 3.12-22.66 11.78-20.01-11.04-36.59-25.93-51.38-42.98-14.71-16.96-29.9-33.55-41.04-54.5-12.88 21.97-26.97 41.98-45.6 58.34-18.42 16.17-38.04 30.7-59.61 43.26-1.2-1.86-2.26-3.49-3.54-5.47 44.54-32.11 81.04-70.51 98.57-124.32z"/><path d="m128.37 351.41c-1.51-1.66-2.95-3.24-3.72-4.09 12.23-15.19 25.08-29.62 36.15-45.31 11.01-15.61 18.15-33.45 24.4-52.79 9.15 3.94 18.29 7.62 27.12 11.92 1.55.76 2.56 4.19 2.39 6.28-.09 1.1-3.46 3.03-4.99 2.74-8.12-1.55-11.29 3.48-14.76 9.37-16.15 27.46-37.3 50.47-62.93 69.37-1.06.78-2.17 1.49-3.66 2.51z"/><path d="m288.21 260.09c1.45-1.58 2.54-2.77 4.24-4.63 9.76 8.33 19.64 16.18 28.85 24.75 12.18 11.35 24.16 23.09 31.76 38.18 2.91 5.78 4.68 12.35 5.79 18.77 1.03 5.92-1.71 9.86-5.66 10.9-4.82 1.28-8.55-.81-11.33-6.61-5.02-10.46-9.38-21.27-15-31.39-9.24-16.64-21.21-31.36-34.27-45.19-1.36-1.44-2.68-2.92-4.38-4.78z"/></g></svg>