<svg enable-background="new 0 0 400 400" viewBox="0 0 400 400" xmlns="http://www.w3.org/2000/svg"><g fill="#010103"><path d="m354.88 327.03c6.14 5.48 13.33 11.68 20.19 18.22 1.56 1.49 1.96 4.19 2.89 6.33-2.12.86-4.25 2.48-6.37 2.48-66.83.13-133.67.06-200.5.16-10.13.02-20.26.77-30.94 1.21-1.96-4.38-4.1-9.17-6.49-14.52 37.12 5.88 73.88 2.82 110.91 3.79 0-21.3 0-42 0-62.56-27.07 0-53.97 0-81.78 0-1.69-3.89-3.79-8.69-6.39-14.67 29.75 6 58.89 3.6 88.25 4.1 0-50.51 0-100.45 0-150.92-1.59-.09-3.19-.25-4.8-.25-17.17-.02-34.34-.19-51.5.06-10.63.16-21.25 1.1-31.89 1.35-1.61.04-3.94-1.36-4.75-2.77-2.04-3.56-3.4-7.52-5.38-12.11 32.99 5.88 65.52 2.82 98.28 3.74 0-14.38 0-28.13 0-42.09-27.65 1.79-55.36 3.58-83.42 5.4 0-3.38 0-5.45 0-7.63 14.45-1.83 28.8-3.3 43.04-5.53 35.12-5.5 69.96-12.3 102.99-26.08 5.2-2.17 9.99-5.31 15.12-7.68 1.27-.59 3.59-.55 4.62.24 6.06 4.68 12.06 9.47 17.66 14.68 1.76 1.64 2.2 4.7 3.24 7.11-2.43.99-5.32 3.36-7.23 2.74-12.59-4.09-23.78 1.48-35.42 4.24-13.08 3.1-26.23 5.92-39.31 9.04-1.39.33-3.54 1.85-3.55 2.85-.23 13.96-.16 27.93-.16 42.34 2.01.11 3.63.27 5.25.27 18.83.02 37.67.12 56.5-.13 2.45-.03 5.3-1.44 7.22-3.08 5.29-4.51 10.19-9.49 15.71-14.73 7.22 6.46 14.97 13.2 22.43 20.24 1.12 1.06 1.8 4.22 1.07 5.19-1.03 1.37-3.57 2.23-5.47 2.23-32.17.13-64.33.09-96.5.09-1.94 0-3.88 0-5.97 0v150.85c1.69.12 3.15.31 4.61.31 16 .02 32 .12 48-.11 2.17-.03 4.74-1.23 6.39-2.71 5.31-4.77 10.28-9.92 15.72-15.26 7.46 6.61 15.12 13.24 22.51 20.13 1.16 1.08 2.01 3.79 1.45 5.08-.57 1.32-3.02 2.54-4.67 2.57-11 .23-22 .13-33 .13-18.33 0-36.67 0-55 0-1.94 0-3.89 0-6.02 0v62.9c1.84.1 3.46.26 5.09.26 21.17.02 42.33.11 63.49-.12 2.48-.03 5.35-1.39 7.35-2.99 5.59-4.42 10.82-9.34 16.53-14.39z"/><path d="m142.88 242.15c1.11 2.11 2.18 4.13 3.23 6.12-26.42 19.34-54.49 35.05-84.21 47.88-.76.33-1.5.75-2.3.97-6.2 1.73-9.83 5.22-9.85 12.23-.01 2.2-2.33 4.38-3.59 6.57-1.99-1.58-4.74-2.75-5.85-4.81-4.49-8.29-8.47-16.86-12.49-25.01 14.31-4.42 28.2-8.74 42.11-13 2.57-.79 4.1-1.73 4.09-5.05-.15-39.82-.1-79.64-.11-119.46 0-.82-.13-1.64-.24-2.9-8.33 0-16.6-.16-24.87.06-4.97.13-9.92 1.08-14.89 1.16-1.49.02-3.63-1.31-4.4-2.64-1.95-3.4-3.3-7.15-4.98-10.97 16.56.77 32.58 1.52 48.93 2.29 0-34.35 0-67.89 0-102.81 10.35 2.91 20.72 5.4 30.77 8.83 4.66 1.59 4.67 6.08.27 8.68-3.07 1.81-6.87 2.36-10.12 3.93-1.4.67-3.17 2.51-3.18 3.83-.16 25.16-.09 50.32-.05 75.47 0 .3.21.6.53 1.48 4.39 0 9.01.2 13.6-.12 1.4-.1 2.87-1.44 4.02-2.52 5.09-4.77 10.08-9.65 15.53-14.89 7.16 6.12 14.82 12.42 22.11 19.13 1.32 1.22 1.96 4.39 1.35 6.12-.47 1.34-3.36 2.55-5.19 2.58-15.16.21-30.32.13-45.48.14-1.97 0-3.93 0-6.22 0v119.15c17.31-7.56 34.16-14.9 51.48-22.44z"/><path d="m306 198.27c-9.41.44-18.31.86-27.76 1.31-1.9-4.36-3.99-9.17-6.55-15.04 6.18.87 11.6 1.68 17.04 2.37 5.54.71 11.09 1.29 16.79 1.95 0-17 0-33.21 0-50.3 10.09 2.53 20.19 4.86 30.12 7.75 1.9.55 4.34 3.29 4.38 5.07.04 1.82-2.18 4.45-4.08 5.4-3.5 1.77-7.49 2.58-11.63 3.91v27.42c5.68.78 11.15 1.78 15.34-4.26 2.72-3.92 6.45-7.14 10.27-11.27 7.37 5.49 14.96 10.79 22.05 16.69 1.56 1.29 1.92 4.75 1.69 7.09-.08.85-3.52 1.92-5.44 1.94-12.82.17-25.65.09-38.48.09-1.79 0-3.58 0-5.34 0 0 9.08-.08 17.55.03 26.01.05 3.81.39 7.62.74 11.42.87 9.39-6.77 11.5-12.93 11.05-5.05-.37-6.29-4.12-6.27-8.57.04-11.49.01-22.99.01-34.48.02-1.6.02-3.22.02-5.55z"/><path d="m181.93 200.79c-9.58 0-18.69-.37-27.75.16-4.58.27-7.59-.18-9.02-5.05-.96-3.27-2.6-6.33-3.83-9.22 13.36 1.33 26.63 2.66 40.11 4.01 0-17.95 0-34.66 0-51.95 9.15 2.37 18.33 4.47 27.3 7.26 2.42.75 4.17 3.63 6.23 5.54-2.19 2.08-4.37 4.17-6.57 6.24-.11.1-.31.11-.47.17-9.76 3.33-9.76 3.33-9.76 13.46v18.96c8.54-2.24 11.47-10.36 18.47-14.42 6.53 4.33 13.71 8.74 20.41 13.79 1.7 1.28 3.02 4.99 2.39 6.87-.56 1.65-4.06 3.19-6.3 3.25-11.45.32-22.91.15-35.31.15.47 10.55.92 20.63 1.37 30.7.07 1.66.19 3.33.19 4.99-.01 8.24-5.66 12.56-13.52 10.3-3.29-.95-4.01-3.45-3.98-6.6.1-11.33.04-22.65.04-33.98 0-1.65 0-3.28 0-4.63z"/></g><path d="m377.9 391.2c-.2.3-.4.5-.6.8-.7-.6-1.4-1-2.2-1.5.2-.3.4-.5.5-.8.6.4 1.4.8 2.3 1.5zm-1.8 6.1c-.2-.2-.5-.4-.9-.6.4-.6.8-1.2 1.2-1.9s.7-1.3.9-1.9c.3.3.5.5.8.7-.7 1.3-1.4 2.6-2 3.7zm2.2-9c-.3.3-.5.5-.6.8-.6-.6-1.3-1.1-2-1.5.3-.3.5-.5.6-.7.6.5 1.3.9 2 1.4zm.3.2v-.9h2 4.5c-.3 1.3-.6 2.5-1 3.6s-.9 2.1-1.4 3c.4.5 1 1 1.6 1.4s1.2.8 1.9 1.1c-.3.2-.5.4-.8.8-.4-.3-1-.7-1.6-1.2s-1.2-1.1-1.6-1.6c-.5.6-1.1 1.1-1.7 1.6s-1.4.9-2.1 1.4c-.1-.3-.3-.5-.7-.8.6-.2 1.2-.5 1.9-1s1.4-1.1 2-1.8c-.5-.8-.9-1.6-1.2-2.5s-.6-2-.8-3.2c-.4.1-.7.1-1 .1zm2.5 2.7c.3 1 .7 1.7 1 2.2.3-.5.6-1.1 1-2s.6-1.9.9-3h-3.2-.4c.1.9.3 1.8.7 2.8z" fill="#fcfafa"/><path d="m396.5 388.5v1.5 3.6h1.5v.9c-.4 0-1 0-1.7 0h-7.9c-.5 0-.9 0-1.2 0v-.9h1.3v-3.5c0-.7 0-1.2 0-1.6h2.4c0-.8 0-1.4 0-1.7h1c0 .3-.1.8-.1 1.7h1.5c0-.8 0-1.4 0-1.7h1c0 .3-.1.9-.1 1.7zm-8.2 9.2c-.2-.3-.5-.5-.8-.8.8-.3 1.4-.6 1.9-.9s1-.7 1.4-1.1c.3.3.6.5.9.8-1.6 1-2.8 1.6-3.4 2zm2.6-6.8v-1.6h-1.5v1.6zm0 2.7v-1.9h-1.5v1.9zm2.4-2.7v-1.6h-1.5v1.6zm0 2.7v-1.9h-1.5v1.9zm.2 2 .7-.8c.4.2.9.5 1.6.8s1.3.7 1.8 1c-.3.3-.5.5-.8.8-.4-.3-1.5-1-3.3-1.8zm2-4.7v-1.6h-1.4v1.6zm0 2.8v-1.9h-1.4v1.9z" fill="#fcfafa"/></svg>