<svg enable-background="new 0 0 400 400" viewBox="0 0 400 400" xmlns="http://www.w3.org/2000/svg"><g fill="#010103"><path d="m230.84 320.75c15.48 3.78 30.59 6.99 45.41 11.2 19.44 5.52 38.76 11.53 57.91 17.98 4.83 1.63 9.11 5.38 13.13 8.77 3.35 2.82 4.71 6.91 2.54 11.23-2.06 4.1-6.06 4.03-9.62 3.22-4.48-1.01-8.95-2.5-13.13-4.41-34.9-15.93-71.19-27.56-108.69-35.46-2.35-.49-5.42-.35-7.42.79-27.17 15.47-56.46 25.04-86.96 30.9-20.53 3.95-41.28 6.72-61.94 9.97-1.45.23-2.96.03-4.79.03-.38-1.88-.75-3.76-1.25-6.28 46.35-8.83 92.68-17.47 136.21-40.72-31.87-7.23-62.4-14.15-93.1-21.11 9.75-12.7 19.3-25.13 29.34-38.21-1.84-.28-2.45-.46-3.06-.46-25.16.06-50.32.1-75.48.24-4.31.02-8.63.65-12.94.64-1.36 0-3.38-.8-3.95-1.86-2.02-3.75-3.55-7.78-5.56-12.36 5.75.75 10.78 1.78 15.85 1.99 13.63.57 27.28.94 40.92 1.11 15 .18 30-.13 44.99.15 4.13.08 6.4-1.19 7.88-4.95 3.05-7.71 6.36-15.32 9.53-22.98.61-1.48 1.1-3.02 1.76-4.85 8.76 3.32 17.17 6.41 25.49 9.73 2.99 1.19 5.8 3.03 5.34 6.95-.48 4.01-3.81 4.05-6.77 4.49-.66.1-1.35.51-1.95.38-8.83-1.96-11.54 4.67-15.35 10.81h96.7c1.13-7.12 2.26-14.28 3.58-22.64 10 2.73 20.05 5.15 29.86 8.33 3.84 1.24 3.76 5.15.03 7.06-2.74 1.4-6.04 1.65-8.96 2.77-1.78.68-3.31 2.02-4.95 3.07.23.58.46 1.15.7 1.73h5.23c16.5 0 33 .1 49.49-.13 2.13-.03 4.64-1.32 6.29-2.79 5.34-4.73 10.36-9.82 15.61-14.88 7 6.21 14.34 12.48 21.34 19.12 1.53 1.45 2.69 4.36 2.35 6.3-.2 1.15-3.69 2.43-5.7 2.44-31.49.15-62.99.12-94.49.1-2.35 0-4.34-.18-5.5 2.84-7.3 19.06-19.28 34.8-34.67 48.07-.33.31-.56.76-1.25 1.68zm-114.24-18.37c3.62.59 6.22 1.04 8.83 1.45 26.89 4.2 53.78 8.44 80.7 12.51 1.88.28 4.4-.12 5.87-1.22 12.16-9.01 22.48-19.8 30.04-33 2.42-4.23 4.27-8.79 6.74-13.94-3.01 0-4.81 0-6.62 0-26.83 0-53.68.45-80.49-.24-9.8-.25-17.44 1.27-22.43 10.34-1.09 1.98-3.08 3.48-4.68 5.17-5.8 6.12-11.61 12.23-17.96 18.93z"/><path d="m169.89 64.74c-2.48-.15-3.93-.32-5.38-.32-19.82-.02-39.65-.14-59.47.05-8.3.08-16.59.97-24.89 1.21-1.38.04-3.47-1-4.1-2.15-2.04-3.76-3.55-7.81-5.64-12.62 6 .8 11.26 1.64 16.56 2.18 6.28.64 12.57 1.38 18.87 1.44 20.99.18 41.98-.1 62.97.2 4.71.07 6.45-1.63 7.12-5.88 1.19-7.51 2.64-14.98 4.16-23.49 9.29 2.46 18.59 4.6 27.65 7.49 3.7 1.18 3.48 5.15.02 7.19-.98.58-2.13 1.15-3.24 1.22-7.82.47-11.05 5.01-11.01 13.1 1.62.07 3.5.23 5.38.23 29.49.02 58.97-.09 88.46.12 4.64.03 7.89-1.17 10.54-4.97 1.79-2.56 4.21-4.69 6.8-7.5 5.88 4.14 11.9 7.95 17.39 12.41 4.35 3.54 4.23 6.69-.82 9.36-6.82 3.6-9.49 9.22-11.67 16.12-3.8 12-9.29 23.14-20.26 30.59-9.32 6.32-19.85 8.05-31.02 8.84-.16-1.55-.24-3.02-.46-4.46-.65-4.38-2.41-7.98-7.01-9.38-9.04-2.76-17.99-5.94-27.19-8.04-5.05-1.15-5.62-3.06-3.49-7.34 10.77 2 21.6 4.17 32.49 5.95 5.72.93 11.55 1.29 17.35 1.69 5.89.41 10.74-1.97 14.54-6.36 6.55-7.57 8.85-16.83 10.79-26.87-2.09-.13-3.68-.31-5.27-.31-31.99-.02-63.97.05-95.96-.1-3.65-.02-5.58 1.13-7.36 4.34-7.8 14.04-20.58 22.24-34.7 28.8-25.87 12.03-53.45 17.6-81.5 22.14-2.1-3.71-2.68-5.56 2.46-7.13 20.26-6.22 40.57-12.43 60.37-19.95 14.25-5.42 26.36-14.66 36.52-27.8z"/><path d="m268.7 156.01c-13.25 0-25.7-.09-38.15.04-4.98.05-9.95.75-14.93.79-1.48.01-3.7-.82-4.32-1.96-2.13-3.9-3.71-8.11-5.79-12.86 5.11.71 9.59 1.68 14.1 1.9 15.94.77 31.89 1.24 47.83 1.95 2.97.13 4.15-.98 4.47-3.87.73-6.75 1.68-13.47 2.65-20.97 8.32 1.88 16.6 3.51 24.72 5.74 1.93.53 3.31 3.04 4.94 4.63-1.79 1.52-3.5 3.13-5.39 4.52-.75.55-1.89.86-2.84.82-6.19-.29-7.39 3.62-7.5 9.1h24.42 4.5c6.5 0 13.57 1.6 19.33-.46 5.5-1.97 9.63-7.75 14.9-12.33 5.28 3.91 11.36 7.99 16.92 12.67 4.08 3.44 3.97 6.12-.78 8.53-7.12 3.61-9.36 9.31-11.17 16.64-3.07 12.34-6.79 24.72-11.99 36.29-5.77 12.84-17.55 18.29-31.81 20.21-.69-13.34-10.75-16.69-20.67-20.13-4.68-1.62-9.44-3.04-14.45-4.64.7-2.12 1.31-3.97 2.09-6.33 6.97 1.73 13.69 3.38 20.41 5.05 4.18 1.04 8.33 2.23 12.54 3.15 9.65 2.12 15.84-.13 19.53-9.23 3.77-9.3 5.97-19.26 8.58-29.01.89-3.3.95-6.82 1.47-10.82-8.42 0-16.22 0-24.03 0-9.66 0-19.33.11-28.99-.06-2.99-.05-4.32.95-5.33 3.79-5.44 15.35-12.47 29.76-25.15 40.68-15.13 13.02-33.18 19.98-52.05 25.27-.8.22-1.59.49-2.39.7-7.84 2.07-6.46 2.2-8.24-5.37 32.18-12.12 60.97-28.24 72.57-64.43z"/><path d="m32.58 225.97c-1.16-2.52-1.98-4.31-3-6.53 31.02-12.45 58.04-29.17 69.84-63.73-2.31-.12-4.03-.33-5.75-.28-16.62.49-33.23 1.09-49.85 1.44-1.39.03-3.43-1.17-4.1-2.39-2.05-3.76-3.58-7.81-5.7-12.61 4.5.75 8.27 1.76 12.07 1.93 17.1.8 34.22 1.32 51.32 2.07 3.03.13 4.16-1.11 4.47-3.89.8-7.09 1.71-14.16 2.68-22.05 8.33 1.62 16.89 3.08 25.33 5.08 1.89.45 3.34 2.79 4.99 4.26-1.53 1.59-2.91 3.38-4.65 4.69-1.13.85-2.76 1.24-4.21 1.43-6.04.79-6.94 4.92-6.76 10.43h23.49 2.5c6.66 0 13.35.38 19.98-.1 7.72-.57 8.66-9.44 14.95-12.86 5.44 4 11.42 7.94 16.86 12.52 4.24 3.57 4.32 6.26-.34 8.55-8 3.92-9.71 10.52-11.1 18.33-2.03 11.4-4.29 22.93-11.91 32.39-6.79 8.43-15.8 12.71-26.94 14.92.09-20.71-17.41-21.11-30.05-27.16.52-4.7 2.55-5.92 7.34-4.4 8.52 2.71 17.19 5.08 25.96 6.79 7.78 1.52 12.47-1.21 14.94-8.94 3.06-9.58 5.11-19.49 7.72-29.77-2.17-.32-3.4-.66-4.63-.67-15.99-.04-31.98-.1-47.97.1-1.48.02-3.85 1.41-4.28 2.68-10.82 32.01-34.4 50.37-65.03 61.29-5.92 2.13-11.85 4.23-18.17 6.48z"/></g><path d="m377.9 391.2c-.2.3-.4.5-.6.8-.7-.6-1.4-1-2.2-1.5.2-.3.4-.5.5-.8.6.4 1.4.8 2.3 1.5zm-1.8 6.1c-.2-.2-.5-.4-.9-.6.4-.6.8-1.2 1.2-1.9s.7-1.3.9-1.9c.3.3.5.5.8.7-.7 1.3-1.4 2.6-2 3.7zm2.2-9c-.3.3-.5.5-.6.8-.6-.6-1.3-1.1-2-1.5.3-.3.5-.5.6-.7.6.5 1.3.9 2 1.4zm.3.2v-.9h2 4.5c-.3 1.3-.6 2.5-1 3.6s-.9 2.1-1.4 3c.4.5 1 1 1.6 1.4s1.2.8 1.9 1.1c-.3.2-.5.4-.8.8-.4-.3-1-.7-1.6-1.2s-1.2-1.1-1.6-1.6c-.5.6-1.1 1.1-1.7 1.6s-1.4.9-2.1 1.4c-.1-.3-.3-.5-.7-.8.6-.2 1.2-.5 1.9-1s1.4-1.1 2-1.8c-.5-.8-.9-1.6-1.2-2.5s-.6-2-.8-3.2c-.4.1-.7.1-1 .1zm2.5 2.7c.3 1 .7 1.7 1 2.2.3-.5.6-1.1 1-2s.6-1.9.9-3h-3.2-.4c.1.9.3 1.8.7 2.8z" fill="#fcfafa"/><path d="m396.5 388.5v1.5 3.6h1.5v.9c-.4 0-1 0-1.7 0h-7.9c-.5 0-.9 0-1.2 0v-.9h1.3v-3.5c0-.7 0-1.2 0-1.6h2.4c0-.8 0-1.4 0-1.7h1c0 .3-.1.8-.1 1.7h1.5c0-.8 0-1.4 0-1.7h1c0 .3-.1.9-.1 1.7zm-8.2 9.2c-.2-.3-.5-.5-.8-.8.8-.3 1.4-.6 1.9-.9s1-.7 1.4-1.1c.3.3.6.5.9.8-1.6 1-2.8 1.6-3.4 2zm2.6-6.8v-1.6h-1.5v1.6zm0 2.7v-1.9h-1.5v1.9zm2.4-2.7v-1.6h-1.5v1.6zm0 2.7v-1.9h-1.5v1.9zm.2 2 .7-.8c.4.2.9.5 1.6.8s1.3.7 1.8 1c-.3.3-.5.5-.8.8-.4-.3-1.5-1-3.3-1.8zm2-4.7v-1.6h-1.4v1.6zm0 2.8v-1.9h-1.4v1.9z" fill="#fcfafa"/></svg>