<svg enable-background="new 0 0 400 400" viewBox="0 0 400 400" xmlns="http://www.w3.org/2000/svg"><path d="m385.2 377.6.6-.7c.6.4 1.3.9 1.9 1.5l-.6.7c-.8-.5-1.4-1-1.9-1.5zm.3 7.1c.6-1.4 1.1-2.9 1.5-4.5.3.1.6.3.9.4-.5 1.4-1 2.9-1.5 4.4zm.2-10.1.6-.6c.7.5 1.3 1.1 1.9 1.6l-.7.7c-.6-.6-1.2-1.2-1.8-1.7zm8.4-.8h.8v.9h1.8v.7h-1.8v1.8h-.8v-.3h-1.2v.9h3.3v2.6h-.8v-.4h-2.5c0 .3 0 .6-.1.8h3.4v.7h-3.5c0 .3-.1.6-.1.8h4v.7h-3.5c.7.9 1.9 1.3 3.6 1.5-.2.2-.4.5-.6.9-1.9-.3-3.2-1.1-3.8-2.3-.5 2.1-1.8 2-3.9 2.4-.2-.3-.4-.5-.6-.8 1.9-.4 3.1-.9 3.6-1.7h-3.2v-.7h3.5c.1-.2.1-.5.2-.8h-3.3v-.7h3.4c0-.2 0-.5 0-.8h-2.4v.3h-.8v-2.6h3.3v-.9h-1.2v.3h-.8v-1.8h-1.8v-.7h1.8v-.9h.8v.9h3.2zm-4.4 5.5h2.4c0-.3 0-.6 0-.9h-2.4zm1.2-3.1h3.2v-.8h-3.2zm4.4 2.2h-2.4v.9h2.5v-.9z" fill="#fafafb"/><path d="m389.2 385.8h.9v1.5h1.9v-1.5h.9v1.5h2.7v6h1.1v.9h-11.3v-.9h1.1v-6h2.7zm.2 8.7.5.8c-1.2.6-2.5 1.3-4 1.9-.2-.3-.3-.6-.6-.8 1.6-.6 3-1.3 4.1-1.9zm-2-4.3h1.9v-2.1h-1.9zm0 3.1h1.9v-2.2h-1.9zm2.7-3.1h1.9v-2.1h-1.9zm0 3.1h1.9v-2.2h-1.9zm2.4 1.3c1.4.6 2.7 1.2 4.1 1.8l-.5.9c-1.5-.7-2.8-1.4-4.1-1.9zm2.2-6.5h-1.9v2.1h1.9zm-1.9 5.2h1.9v-2.2h-1.9z" fill="#fafafb"/><g fill="#010100"><path d="m189.7 288.17c0-16.77 0-32.56 0-48.63-1.48-.13-2.76-.36-4.04-.35-20.64.28-41.28.57-61.92.92-3.79.07-9.14 2.1-11.02.32-3.36-3.18-4.62-8.56-7.22-13.99 4.96.55 9.1 1.36 13.26 1.43 39.62.64 79.25.77 118.85 1.97 11.37.35 20.34-2.12 27.55-10.92 1.76-2.15 4.13-3.8 6.33-5.78 7.36 5.84 14.66 11.37 21.59 17.33 1.57 1.35 1.88 4.15 2.77 6.29-1.99.81-3.98 2.3-5.97 2.31-25.5.16-50.99.1-76.49.1-1.82 0-3.64 0-5.89 0v48.83h4.46c19 0 38 .1 56.99-.13 2.32-.03 5.03-1.31 6.84-2.86 5.32-4.53 10.27-9.49 15.68-14.58 6.64 5.94 14.06 12.35 21.16 19.1 1.42 1.35 2.67 4.35 2.1 5.91-.5 1.4-3.6 2.6-5.57 2.61-31.83.16-63.66.11-95.49.11-1.97 0-3.94 0-6.26 0v52.18c1.7.08 3.47.23 5.25.23 32.33.01 64.66-.02 96.99.06 3.22.01 5.57-.75 7.8-3.27 5.28-5.97 10.94-11.61 16.67-17.63 8.48 7.39 16.84 14.44 24.87 21.85 1.54 1.42 1.79 4.24 2.64 6.41-2.37.8-4.75 2.3-7.12 2.3-75.49.12-150.98.1-226.47.1-18.5 0-37-.16-55.49.07-8.62.11-17.25.83-25.85 1.57-3.92.34-6.63-.22-7.88-4.54-.95-3.28-2.67-6.35-4.18-9.81 51.81 5.61 103.23 1.49 154.92 3.17 0-17.82 0-34.88 0-52.7-1.75 0-3.51 0-5.27 0-20.5 0-41-.13-61.49.08-6.62.07-13.26.9-19.85 1.66-2.72.31-4.31-.16-5.35-2.92-1.45-3.86-3.35-7.55-5.29-11.83 32.64 5.13 64.89 1.84 97.39 3.03z"/><path d="m94.41 101.81h96.08c0-24.57 0-48.95 0-74.1 9.54 2.46 19.17 4.68 28.59 7.56 2.27.69 3.88 3.56 5.79 5.42-2.01 2.04-4.01 4.1-6.05 6.12-.21.2-.63.18-.95.28-9.82 3.13-9.82 3.13-9.82 13.33v41.24h101.4c0-16.92 0-33.96 0-51.63 9.14 2.25 18.46 4.25 27.56 6.99 2.6.78 4.55 3.74 6.8 5.69-2.33 2.15-4.65 4.31-6.99 6.44-.23.21-.62.23-.93.33-8.83 2.97-9.07 2.98-8.76 12.14.37 10.96 1.2 21.9 1.88 32.84.23 3.79.41 8.17-3.73 9.37-3.89 1.12-8.36.74-12.48.23-1.12-.14-2.31-3-2.71-4.78-.47-2.05-.11-4.3-.11-7.29-1.95 0-3.69 0-5.43 0-68.48 0-136.97-.01-205.45.06-2.41 0-4.9.59-7.23 1.31-7.87 2.44-14.45.59-14.17-9.52.5-18.44.14-36.89.14-56.67 10.01 2.84 20.5 5.45 30.71 8.91 3.82 1.29 3.82 5.53.15 7.85-3.01 1.9-6.6 3.07-10.09 3.98-3.09.8-4.34 2.09-4.27 5.42.21 9.31.07 18.62.07 28.48z"/><path d="m197.16 156.3c-43.34 47.98-101.08 69.32-161.61 85.9-.54-1.68-1.04-3.07-1.41-4.48-.25-.96-.32-1.97-.52-3.24 55.61-16.25 107.16-39.48 146.45-86.2-11.75 0-22.26 0-33.11 0 0-3.66 0-6.7 0-10.28 9.44 0 18.74-.17 28.02.08 3.84.11 6.6-.87 8.95-4 2.48-3.3 5.48-6.21 8.65-9.74 6.33 4.27 12.75 8.07 18.55 12.67 5.93 4.7 5.23 8.52-1.45 12.02-1.62.85-3.29 1.58-5.58 2.67 22.84 20.71 48.94 35.07 77.25 45.82 28.03 10.64 56.9 17.84 86.54 21.37 1.24 4.49.63 6.93-4.27 7.74-5.95.98-10.62 4.3-13.74 9.78-.65 1.15-3.24 2.22-4.52 1.85-43.62-12.56-85.09-29.67-120.79-58.53-9.31-7.52-18.2-15.53-27.41-23.43z"/></g></svg>