<svg enable-background="new 0 0 400 400" viewBox="0 0 400 400" xmlns="http://www.w3.org/2000/svg"><path d="m385.2 377.6.6-.7c.6.4 1.3.9 1.9 1.5l-.6.7c-.8-.5-1.4-1-1.9-1.5zm.3 7.1c.6-1.4 1.1-2.9 1.5-4.5.3.1.6.3.9.4-.5 1.4-1 2.9-1.5 4.4zm.2-10.1.6-.6c.7.5 1.3 1.1 1.9 1.6l-.7.7c-.6-.6-1.2-1.2-1.8-1.7zm8.4-.8h.8v.9h1.8v.7h-1.8v1.8h-.8v-.3h-1.2v.9h3.3v2.6h-.8v-.4h-2.5c0 .3 0 .6-.1.8h3.4v.7h-3.5c0 .3-.1.6-.1.8h4v.7h-3.5c.7.9 1.9 1.3 3.6 1.5-.2.2-.4.5-.6.9-1.9-.3-3.2-1.1-3.8-2.3-.5 2.1-1.8 2-3.9 2.4-.2-.3-.4-.5-.6-.8 1.9-.4 3.1-.9 3.6-1.7h-3.2v-.7h3.5c.1-.2.1-.5.2-.8h-3.3v-.7h3.4c0-.2 0-.5 0-.8h-2.4v.3h-.8v-2.6h3.3v-.9h-1.2v.3h-.8v-1.8h-1.8v-.7h1.8v-.9h.8v.9h3.2zm-4.4 5.5h2.4c0-.3 0-.6 0-.9h-2.4zm1.2-3.1h3.2v-.8h-3.2zm4.4 2.2h-2.4v.9h2.5v-.9z" fill="#fafafb"/><path d="m389.2 385.8h.9v1.5h1.9v-1.5h.9v1.5h2.7v6h1.1v.9h-11.3v-.9h1.1v-6h2.7zm.2 8.7.5.8c-1.2.6-2.5 1.3-4 1.9-.2-.3-.3-.6-.6-.8 1.6-.6 3-1.3 4.1-1.9zm-2-4.3h1.9v-2.1h-1.9zm0 3.1h1.9v-2.2h-1.9zm2.7-3.1h1.9v-2.1h-1.9zm0 3.1h1.9v-2.2h-1.9zm2.4 1.3c1.4.6 2.7 1.2 4.1 1.8l-.5.9c-1.5-.7-2.8-1.4-4.1-1.9zm2.2-6.5h-1.9v2.1h1.9zm-1.9 5.2h1.9v-2.2h-1.9z" fill="#fafafb"/><g fill="#010100"><path d="m222.76 370.17c-1.27-15.81-12.7-19.73-25.44-22.13-3.89-.73-7.74-1.62-12.03-2.53.45-2.54.88-4.91 1.37-7.71 8.23 1.23 16.06 2.46 23.91 3.56 4.27.6 8.57 1.31 12.86 1.39 6.06.12 10.07-2.91 10.14-8.73.31-23.45.13-46.9.13-70.64-15.17 0-29.93 0-45.19 0-.11 1.35-.29 2.77-.33 4.2-.18 6.2-1.76 7.72-8.27 7.84-7.26.14-10.96-2.3-10.89-7.92.11-8.98.53-17.96 1.12-26.92 1.56-23.76 1.02-47.49.08-72.22-11.37 8.42-21.85 16.18-32.5 24.07-1.4-1.63-2.47-2.86-3.53-4.09.55.47 1.11.94 1.66 1.41 14.47-15.05 28.95-30.09 42.75-44.45-8.51-14.76-15.28-28.95-30.06-36.74 1.25-2.02 2.17-3.5 3.39-5.45 14.29 6.94 28.43 13.48 37.2 29.24 10.17-15.9 19.86-31.05 29.74-46.48-21.98 0-42.58-.12-63.18.11-3.84.04-6.68.15-7.92-4.37-.95-3.44-2.76-6.65-4.55-10.79 25.49 5.61 50.46 3.62 75.33 4.11 3.72.07 5.77-.94 6.88-4.63 4.1-13.64 8.41-27.22 12.65-40.82.24-.77.58-1.52 1.09-2.85 10.21 4.51 20.22 8.84 30.11 13.43 1.23.57 2.81 2.85 2.5 3.72-.57 1.62-2.21 3.53-3.79 3.97-3.32.94-6.87 1.24-10.34 1.35-3 .1-4.81.98-6.01 3.98-2.81 7.06-6.02 13.97-9.31 21.48 2.09.12 3.66.29 5.23.29 18.83.02 37.66-.04 56.49.06 3.18.02 5.51-.66 7.8-3.2 4.56-5.06 9.67-9.62 15.07-14.9 7.48 6.64 15.35 13.23 22.72 20.33 3.38 3.26 1.62 7.08-3.09 7.78-1.47.22-2.99.1-4.49.1-25.16 0-50.32 0-75.49 0-1.76 0-3.53 0-5.29 0-.32.47-.64.93-.96 1.4 12.38 14.42 24.77 28.84 38.14 44.42 8.39-10.76 15.87-20.35 23.59-30.25 6.24 4.37 12.72 8.73 18.94 13.42 1.38 1.04 2.2 3.24 2.51 5.04.09.52-2.66 2.39-3.79 2.14-11.23-2.44-18.65 5.01-27.01 10.04-1.95 1.17-3.79 2.54-6.08 4.08 18.96 14.69 38.93 26.24 62 32.08.88 3.76.59 6-4.22 6.16-8.79.3-15.98 4.12-21.13 11.85-14.68-9.03-28.02-19.39-40.61-30.81-20.05-18.17-33.73-41.03-47.67-63.74-1.26-2.05-2.67-5.16-4.45-5.5-4.17-.8-8.62-.34-12.93-.08-.74.05-1.54 1.58-2.05 2.57-14.38 28.05-33.92 52.05-57.25 73.09-.36.33-.67.71-1.29 1.38 6.73 5.52 12.44 11.12 22.7 10.82 28.8-.82 57.65-.37 86.48-.19 4.06.03 6.91-.95 9.28-4.27 2.21-3.09 4.89-5.84 7.74-9.17 5.93 4.39 11.85 8.36 17.27 12.9 4.15 3.48 4.18 6.8-.59 9.07-7.63 3.63-8.27 9.36-7.97 16.57.9 21.77 1.33 43.56 2.05 65.35.26 7.91-.8 10.19-6.19 11.81-9.54 2.86-12.69.58-12.92-9.33-.01-.66-.1-1.32-.19-2.38-14.57 0-29.11 0-44.32 0v5.89c0 22.66-.44 45.34.13 67.98.55 19.41-10.06 29.46-27.73 32.81zm71.88-149.66c-35.51 0-70.73 0-106.17 0v32.21h106.17c0-10.86 0-21.43 0-32.21zm.15-37.76c-35.65 0-70.88 0-106.36 0v27.43h106.36c0-9.22 0-18.03 0-27.43z"/><path d="m88.26 56.88v234.44h21.18c0-67.47 0-134.68 0-202.49 9.28 2.32 18.63 4.37 27.77 7.14 2.38.72 4.09 3.67 6.1 5.6-2.11 2.1-3.92 4.71-6.4 6.17-2.91 1.7-7.84 1.5-9.27 3.77-1.67 2.65-.56 7.09-.56 10.75.02 50.33-.06 100.66.2 151 .06 10.79 1.49 21.56 2.09 32.35.48 8.7-1.98 11.06-10.64 10.8-6.41-.2-8.69-2.48-8.79-8.81-.03-1.95 0-3.9 0-6.42-2.32 0-4.11 0-5.89 0-14.67 0-29.34-.17-44 .1-4.53.08-9.16.9-13.53 2.15-8.01 2.29-12.68-.76-12.68-8.96-.01-60.83.03-121.66-.05-182.5-.01-7.26-.62-14.51-1-22.69 10.31 2.69 19.96 5 29.43 7.87 1.93.59 4.47 3.33 4.45 5.07-.01 1.86-2.44 4.05-4.31 5.45-1.65 1.24-3.93 1.95-6.02 2.23-4.54.61-6.09 2.51-6.07 7.43.22 56 .14 112 .14 168v5.85h19.93c0-85.4 0-170.49 0-256.22 9.06 2.27 18.25 4.27 27.21 7.01 2.59.79 6.03 3.44 6.43 5.72.73 4.05-3.37 5.56-6.76 6.67-2.83.9-5.73 1.61-8.96 2.52z"/><path d="m127.21 348.24c-1.01-2.02-1.88-3.77-3-6 26.2-14.06 44.56-35.53 58.68-61.49 8.28 5.61 16.06 10.65 23.52 16.14 1.49 1.09 2.5 3.99 2.24 5.85-.15 1.04-3.57 2.61-5.17 2.27-10.55-2.24-17.18 2.78-24.02 10.19-13.92 15.09-30.67 24.98-52.25 33.04z"/><path d="m275.18 294.2c1.07-2.32 1.96-4.24 2.99-6.47 1.42.49 2.71.74 3.8 1.33 15.76 8.52 31.74 16.67 47.12 25.82 7.27 4.32 13.14 10.77 15.45 19.53 1.54 5.84.23 11.95-3.7 13.26-2.48.83-5.98.68-8.26-.5-2.64-1.37-4.91-4.06-6.55-6.67-11.5-18.36-27.58-31.77-45.74-43-1.66-1.03-3.28-2.12-5.11-3.3z"/></g></svg>