<svg enable-background="new 0 0 400 400" viewBox="0 0 400 400" xmlns="http://www.w3.org/2000/svg"><path d="m385.2 377.6.6-.7c.6.4 1.3.9 1.9 1.5l-.6.7c-.8-.5-1.4-1-1.9-1.5zm.3 7.1c.6-1.4 1.1-2.9 1.5-4.5.3.1.6.3.9.4-.5 1.4-1 2.9-1.5 4.4zm.2-10.1.6-.6c.7.5 1.3 1.1 1.9 1.6l-.7.7c-.6-.6-1.2-1.2-1.8-1.7zm8.4-.8h.8v.9h1.8v.7h-1.8v1.8h-.8v-.3h-1.2v.9h3.3v2.6h-.8v-.4h-2.5c0 .3 0 .6-.1.8h3.4v.7h-3.5c0 .3-.1.6-.1.8h4v.7h-3.5c.7.9 1.9 1.3 3.6 1.5-.2.2-.4.5-.6.9-1.9-.3-3.2-1.1-3.8-2.3-.5 2.1-1.8 2-3.9 2.4-.2-.3-.4-.5-.6-.8 1.9-.4 3.1-.9 3.6-1.7h-3.2v-.7h3.5c.1-.2.1-.5.2-.8h-3.3v-.7h3.4c0-.2 0-.5 0-.8h-2.4v.3h-.8v-2.6h3.3v-.9h-1.2v.3h-.8v-1.8h-1.8v-.7h1.8v-.9h.8v.9h3.2zm-4.4 5.5h2.4c0-.3 0-.6 0-.9h-2.4zm1.2-3.1h3.2v-.8h-3.2zm4.4 2.2h-2.4v.9h2.5v-.9z" fill="#fafafb"/><path d="m389.2 385.8h.9v1.5h1.9v-1.5h.9v1.5h2.7v6h1.1v.9h-11.3v-.9h1.1v-6h2.7zm.2 8.7.5.8c-1.2.6-2.5 1.3-4 1.9-.2-.3-.3-.6-.6-.8 1.6-.6 3-1.3 4.1-1.9zm-2-4.3h1.9v-2.1h-1.9zm0 3.1h1.9v-2.2h-1.9zm2.7-3.1h1.9v-2.1h-1.9zm0 3.1h1.9v-2.2h-1.9zm2.4 1.3c1.4.6 2.7 1.2 4.1 1.8l-.5.9c-1.5-.7-2.8-1.4-4.1-1.9zm2.2-6.5h-1.9v2.1h1.9zm-1.9 5.2h1.9v-2.2h-1.9z" fill="#fafafb"/><g fill="#010100"><path d="m211.55 198.7c5.51 2.65 10.8 5.3 16.19 7.74 1.76.8 3.77 1.49 5.66 1.49 29.16.09 58.33.06 87.49.05.66 0 1.31-.13 2.33-.23 0-9.1 0-18.15 0-27.68-2.06 0-3.85 0-5.64 0-29 0-58-.04-86.99.04-4.13.01-8.25.81-12.38.91-5.42.12-7.23-1.71-7.25-7.11-.06-13.33.11-26.67-.07-40-.1-7.45-.73-14.89-1.17-23.29 11.09 2.94 22.29 3.26 32.18 8.69 3.82 2.1 3.79 5.97-.07 8.34-2.93 1.79-6.28 3.16-9.62 3.94-3.9.91-4.91 2.83-3.55 7h5.64c27.33 0 54.66-.07 81.99.08 3.81.02 6.64-.92 9.15-3.83 3.26-3.77 6.89-7.23 10.65-11.13 6.77 5.05 13.48 9.63 19.59 14.88 1.84 1.58 2.88 5.14 2.65 7.64-.1 1.12-4.25 2.65-6.56 2.66-39.66.16-79.33.12-118.99.12-1.32 0-2.64 0-4.34 0v20.93h5.47c26.83 0 53.66-.12 80.49.11 4.56.04 7.91-.91 10.63-4.67 2.13-2.95 4.79-5.51 7.69-8.78 5.7 4.31 11.55 8.34 16.93 12.93 3.92 3.35 3.95 6.66-.58 8.72-8.18 3.72-8.51 9.98-8.23 17.42.18 4.6.84 7.98 5 10.94 2.78 1.97 4.12 5.96 6.1 9.05-3.24.59-6.49 1.67-9.73 1.68-35.83.12-71.66.08-107.49.08-1.97 0-3.95 0-6.29 0v23.52h5.04c24.33 0 48.66-.07 72.99.08 3.46.02 5.99-.82 8.25-3.46 3.34-3.91 6.96-7.56 10.74-11.62 7.8 5.99 14.99 11.32 21.89 17.01 1.2.99 2.16 4.21 1.49 5.11-1.13 1.52-3.64 2.8-5.59 2.83-18.33.21-36.66.12-54.99.12-19.82 0-39.64 0-59.83 0v23.93h5.48c24.66 0 49.33-.07 73.99.08 3.44.02 6.04-.77 8.27-3.43 3.31-3.93 6.86-7.66 10.43-11.61 7.75 5.8 14.67 10.7 21.2 16.07 1.6 1.31 3.08 4.54 2.52 6.17-.5 1.46-3.87 2.73-5.98 2.74-36.5.16-72.99.12-109.49.12-1.99 0-3.98 0-6.39 0v22.93h5.34c23.83 0 47.66-.06 71.49.07 3.43.02 6-.74 8.28-3.39 3.25-3.78 6.84-7.27 10.45-11.06 7.21 5.37 14.12 10.25 20.66 15.57 1.62 1.32 2.06 4.09 3.04 6.2-2.09.93-4.17 2.66-6.26 2.67-35.66.17-71.33.12-106.99.12-1.96 0-3.91 0-6.23 0 0 4.65-.38 8.8.1 12.86.6 5.11 3.96 8.71 8.83 9.74 8.41 1.77 16.94 3.72 25.47 3.97 19.48.58 38.99.25 58.49.13 4.13-.03 8.29-.59 12.39-1.19 9.7-1.41 16.15-6.59 18.31-16.43 2.3-10.5 4.52-21.01 6.82-31.72 1.59.21 3.34.44 5.48.72 0 3.4.02 6.69 0 9.97-.04 5.5.04 11-.19 16.49-.31 7.46 1.57 14.01 6.46 19.86 4.16 4.98 3.44 9.05-2.66 11.28-6.77 2.48-13.99 4.47-21.14 5.01-13.92 1.05-27.93 1.12-41.91 1.25-17.66.16-35.34.25-52.99-.2-6.91-.17-13.93-1.32-20.66-2.99-12.02-2.99-19.88-12.52-19.96-24.95-.27-43.83-.12-87.66-.12-131.49.04-.43.3-.87.6-1.8z"/><path d="m143.69 372.95c-.33-.29-.55-.39-.57-.51-1.58-13.69-11.47-17.89-23.02-20.31-4.35-.91-8.65-2.07-13.03-3.13 0-2.78 0-5.22 0-7.03 12.37 1.36 24.53 3 36.74 3.92 7.33.56 8.1-.66 8.11-7.81.01-12.33.01-24.66-.01-36.99 0-1.43-.14-2.87-.25-5.03-4.79 2.43-8.91 4.94-13.34 6.68-14.06 5.53-28.18 10.92-42.4 16.02-3.33 1.19-4.99 2.7-6.07 6.14-1.01 3.24-3.59 5.99-5.47 8.95-2.29-2.68-4.97-5.11-6.76-8.09-2.29-3.81-3.85-8.04-6.12-12.94-2.35 8.27-3.81 16.01-6.77 23.12-2.97 7.14-6.82 14.11-11.42 20.31-4.69 6.32-10.76 11.62-16.46 17.62-2.01-2.14-3.35-3.58-4.48-4.78 4.54-7.34 9.54-14.19 13.25-21.69 6.51-13.16 8.41-27.65 9.05-42.06.9-20.28.79-40.61.86-60.92.03-7.62-.67-15.24-1.09-24.06 6.02 4.07 11.04 7.75 16.37 10.94 2.28 1.36 5.16 2.39 7.77 2.41 22.16.19 44.32.02 66.48.19 3.69.03 6.23-.88 8.43-3.92 2.42-3.35 5.38-6.31 8.66-10.08 6.75 4.94 13.5 9.69 20.01 14.73 2.58 1.99 2.32 4.79-.11 6.83-2.13 1.79-4.48 3.69-7.06 4.49-5.04 1.56-6.16 4.52-6.11 9.56.26 29.99.13 59.98.13 89.97 0 15.69-5.42 22.62-20.71 26.47-1.45.39-2.92.64-4.61 1zm-70.53-121.52c.54.2.95.42 1.4.52 13.26 2.98 26.68 5.4 39.71 9.15 5.97 1.72 11.54 5.57 16.61 9.35 3.48 2.6 3.54 9.67 1.03 12.31-3.38 3.56-7.24 2.8-10.9.57-5.24-3.2-10.21-6.87-15.54-9.9-10.08-5.73-20.8-9.91-32.81-13.02v44.31c.68 0 1.37.12 2-.02 22-4.79 44.05-9.42 65.99-14.5 11.37-2.63 11.29-2.98 11.29-14.72 0-10.6 0-21.2 0-31.93-26.63 0-52.65 0-78.77 0-.01 2.83-.01 5.3-.01 7.88z"/><path d="m71 35.25c9.84 2.78 19.97 5.17 29.74 8.6 5.7 2 5.7 6.39.34 9.32-3.59 1.96-7.68 3.01-11.83 4.58v31.94h102.08c0-20.98 0-42.02 0-63.97 9.83 2.6 19.71 5.04 29.45 7.97 1.78.54 4.1 3.03 4.13 4.66.03 1.74-2.09 3.85-3.75 5.21-1.47 1.2-3.55 2.06-5.45 2.27-5.98.69-7.07 4.01-6.85 9.52.46 11.3.14 22.62.14 34.31h105.38c0-18.11 0-36.15 0-54.8 9.23 2.34 18.58 4.42 27.7 7.22 2.37.73 4.05 3.71 6.05 5.65-1.86 1.9-3.71 3.81-5.59 5.69-.22.22-.56.36-.87.47-3.09 1.12-7.64 1.37-8.92 3.54-1.62 2.76-.81 7.09-.64 10.72.57 11.95 1.32 23.9 2.02 35.85.21 3.63.27 7.78-3.75 8.84-3.96 1.04-8.41.83-12.52.28-1.18-.16-2.37-3.29-2.79-5.22-.48-2.22-.11-4.63-.11-7.79-2.14 0-4.05 0-5.96 0-71.97 0-143.95-.01-215.92.05-2.41 0-4.96.43-7.22 1.27-9.24 3.47-14.82-.12-14.84-9.88-.05-18.47-.02-36.9-.02-56.3z"/><path d="m148.34 150.33c5.34 3.31 10.79 6.45 15.94 10.03 1.63 1.14 2.43 3.46 3.61 5.24-1.99.86-3.96 1.74-5.97 2.54-.43.17-1.01.11-1.49.01-5.92-1.21-9.17 1.65-12.33 6.51-5.15 7.91-11.29 15.17-17.48 23.32 6.38 0 12.68-.69 18.76.15 11.44 1.58 20.39-1.72 27.04-11.19.77-1.09 1.65-2.1 2.78-3.51 7.7 5.88 15.01 11.28 22.04 17.03 1.2.98 1.84 3.67 1.43 5.23-.3 1.16-2.63 2.08-4.22 2.53-1.55.44-3.3.16-4.97.16-44.47 0-88.95-.06-133.42.06-8.12.02-16.23.74-25.01 1.17-1.89-4.39-3.97-9.21-6.01-13.97 16.97 1.04 33.73 2.07 50.7 3.11-2.67-16.04-7.44-30.18-15.89-42.99-1.11-1.68-1.37-3.91-2.19-6.4-4.63.24-10.23.62-15.84.73-1.25.02-3.19-.57-3.67-1.48-2.06-3.92-3.69-8.07-5.16-11.39 24.2 1.05 48.31 2.1 72.42 3.15.3-.63.61-1.25.91-1.88-6.52-10-13.04-20.01-19.89-30.51 1.39-3.2 3.95-4.2 8.04-1.5 5.26 3.47 11 6.24 16.13 9.88 9.84 7 10.84 12.6 4.27 23.21h16.7c5.33 0 10.71-.45 15.98.11 6.66.71 11.47-1.46 15.28-6.88 1.87-2.66 4.48-4.81 6.95-7.4 7.21 5.41 14.2 10.47 20.93 15.86 1.3 1.04 2.6 3.93 2.04 5-.76 1.45-3.29 2.72-5.09 2.75-12.65.23-25.32.13-37.98.13-1.62 0-3.25 0-4.87 0-.15.42-.31.8-.47 1.19zm-57.51 47.67c8.68 0 16.77-.14 24.85.07 2.9.07 4.6-.88 5.85-3.42 5.06-10.28 10.38-20.44 15.28-30.79 2.14-4.53 3.51-9.42 5.28-14.29-25.36 0-49.88 0-75.23 0 2 1.79 3.45 2.88 4.66 4.2 6.04 6.61 12.69 12.79 17.83 20.05 4.97 7.04 7.58 15.26 1.48 24.18z"/></g></svg>