<svg enable-background="new 0 0 400 400" viewBox="0 0 400 400" xmlns="http://www.w3.org/2000/svg"><g fill="#010103"><path d="m325.6 223.22c-22.16 0-43.94 0-66.07 0v48.47c1.48.08 3.06.23 4.65.23 21.33.02 42.67.12 64-.14 2.4-.03 5.33-1.53 7.07-3.28 5.13-5.18 9.79-10.82 14.93-16.61 8.22 7.08 16.27 13.74 23.9 20.84 1.44 1.34 1.92 4.6 1.49 6.7-.2.99-3.58 1.89-5.52 1.9-34.83.11-69.67.08-104.5.08-1.95 0-3.9 0-6.34 0 0 13.28-.35 25.92.1 38.52.45 12.45 1.84 24.86 2.52 37.3.16 2.88-.5 6.01-1.55 8.72-1.8 4.63-6.5 6.18-12.74 5.32-4.94-.68-4.85-4.21-5.02-7.76-.16-3.32-.47-6.63-.48-9.95-.04-23.82-.02-47.64-.02-72.15-2.08 0-3.86 0-5.64 0-21.83 0-43.67-.16-65.5.07-9.46.1-18.94.8-28.37 1.66-4.25.39-6.9-.41-8.19-4.82-.88-2.98-2.48-5.75-4.19-9.6 37.44 5.59 74.31 2.13 111.49 3.43 0-16.5 0-32.54 0-48.87-19.92 0-39.85 0-60.54 0 0 2.38.11 4.8-.02 7.21-.32 5.75-4.38 8.83-11.15 8.56-6.03-.24-9.18-3.11-8.81-9 .7-11.27 2.49-22.51 2.64-33.78.4-30.83.32-61.66.11-92.5-.05-6.88-1.39-13.76-2.17-21.01 6.25 4.37 12.28 8.78 18.55 12.84 1.95 1.27 4.52 2.22 6.82 2.22 43.67.13 87.33.14 131-.03 2.27-.01 4.96-1.44 6.71-3.02 3.43-3.11 6.33-6.79 9.9-10.72 6.52 4.48 13.1 8.64 19.25 13.35 3.68 2.82 3.49 6.83-.14 9.74-2.56 2.06-5.79 3.27-8.41 5.28-1.33 1.02-2.77 2.95-2.78 4.47-.17 25-.41 50 0 75 .21 12.78 1.67 25.53 2.57 38.3.27 3.92-.33 7.45-4.61 8.94-4.6 1.6-9.24 1.82-13.22-1.43-1.06-.86-1.48-2.9-1.6-4.44-.29-3.13-.12-6.29-.12-10.04zm-66.07-115.94v47.88h65.95c0-16.18 0-31.93 0-47.88-22.11 0-43.87 0-65.95 0zm-.09 105.98h66.05c0-16.18 0-32.04 0-47.9-22.21 0-44.07 0-66.05 0zm-17.84-57.99c0-16.22 0-32.1 0-47.88-20.3 0-40.21 0-60.31 0v47.88zm.15 10.14c-20.39 0-40.43 0-60.36 0v47.9h60.36c0-16.04 0-31.81 0-47.9z"/><path d="m79.83 30.21c9.67 2.39 19.67 4.63 29.49 7.5 2.04.6 4.76 3.63 4.69 5.44-.08 2.22-2.56 4.55-4.43 6.41-1.08 1.07-2.98 1.38-4.56 1.89-8.59 2.82-8.6 2.8-8.6 12.1 0 9.17.23 18.34-.1 27.5-.15 4.17 1.18 6.58 4.73 8.81 12.32 7.72 23.86 16.45 32.8 28.14 6.11 8 10.22 16.74 9.54 27.15-.43 6.59-2.88 9.74-8.36 10.68-4.46.76-8-1.7-10.15-7.63-1.92-5.3-3.59-10.7-5.06-16.14-3.73-13.85-12.58-24.26-23.11-35.32-.13 2.98-.27 4.69-.27 6.4-.01 68.5-.16 137 .11 205.5.06 14.44 1.84 28.86 2.47 43.3.37 8.59-3.83 12.16-12.31 11.47-4.16-.33-6.37-2.53-6.76-6.58-.18-1.82-.09-3.66-.09-5.5 0-102.16 0-204.33 0-306.49-.03-7.8-.03-15.59-.03-24.63z"/><path d="m50.91 96.1h7.5c0 8.48.02 16.91-.01 25.34-.05 14.82-.85 29.6-5.39 43.81-1.69 5.28-4.32 10.4-7.34 15.07-3.09 4.78-8.12 6.62-13.92 6.01-5.7-.6-9.2-5.09-7.33-10.5 1.32-3.84 3.29-7.74 5.91-10.8 11.73-13.73 16.38-30.12 18.56-47.49.89-7.03 1.35-14.13 2.02-21.44z"/><path d="m306.78 29.28c7.51 3.34 15.75 6.79 23.75 10.72 1.66.82 3.34 3.45 3.32 5.22-.01 1.21-3.06 3.54-4.58 3.41-9.64-.82-13.63 5.9-18.59 12.25-8.97 11.49-18.65 22.43-28.22 33.81-2.41-1.61-3.99-2.66-4.97-3.32 9.79-20.76 19.39-41.1 29.29-62.09z"/><path d="m173.25 34.92c1.7-1.8 3.03-3.22 4.81-5.1 13.14 10.71 28.22 18.88 38.41 32.9 3.9 5.38 6.84 11.31 5.41 18.03-.59 2.77-2.96 6.24-5.4 7.23-2.13.86-6.3-.52-8.11-2.35-2.82-2.84-4.91-6.7-6.42-10.49-6.19-15.54-15.07-29.1-28.7-40.22z"/></g><path d="m377.9 391.2c-.2.3-.4.5-.6.8-.7-.6-1.4-1-2.2-1.5.2-.3.4-.5.5-.8.6.4 1.4.8 2.3 1.5zm-1.8 6.1c-.2-.2-.5-.4-.9-.6.4-.6.8-1.2 1.2-1.9s.7-1.3.9-1.9c.3.3.5.5.8.7-.7 1.3-1.4 2.6-2 3.7zm2.2-9c-.3.3-.5.5-.6.8-.6-.6-1.3-1.1-2-1.5.3-.3.5-.5.6-.7.6.5 1.3.9 2 1.4zm.3.2v-.9h2 4.5c-.3 1.3-.6 2.5-1 3.6s-.9 2.1-1.4 3c.4.5 1 1 1.6 1.4s1.2.8 1.9 1.1c-.3.2-.5.4-.8.8-.4-.3-1-.7-1.6-1.2s-1.2-1.1-1.6-1.6c-.5.6-1.1 1.1-1.7 1.6s-1.4.9-2.1 1.4c-.1-.3-.3-.5-.7-.8.6-.2 1.2-.5 1.9-1s1.4-1.1 2-1.8c-.5-.8-.9-1.6-1.2-2.5s-.6-2-.8-3.2c-.4.1-.7.1-1 .1zm2.5 2.7c.3 1 .7 1.7 1 2.2.3-.5.6-1.1 1-2s.6-1.9.9-3h-3.2-.4c.1.9.3 1.8.7 2.8z" fill="#fcfafa"/><path d="m396.5 388.5v1.5 3.6h1.5v.9c-.4 0-1 0-1.7 0h-7.9c-.5 0-.9 0-1.2 0v-.9h1.3v-3.5c0-.7 0-1.2 0-1.6h2.4c0-.8 0-1.4 0-1.7h1c0 .3-.1.8-.1 1.7h1.5c0-.8 0-1.4 0-1.7h1c0 .3-.1.9-.1 1.7zm-8.2 9.2c-.2-.3-.5-.5-.8-.8.8-.3 1.4-.6 1.9-.9s1-.7 1.4-1.1c.3.3.6.5.9.8-1.6 1-2.8 1.6-3.4 2zm2.6-6.8v-1.6h-1.5v1.6zm0 2.7v-1.9h-1.5v1.9zm2.4-2.7v-1.6h-1.5v1.6zm0 2.7v-1.9h-1.5v1.9zm.2 2 .7-.8c.4.2.9.5 1.6.8s1.3.7 1.8 1c-.3.3-.5.5-.8.8-.4-.3-1.5-1-3.3-1.8zm2-4.7v-1.6h-1.4v1.6zm0 2.8v-1.9h-1.4v1.9z" fill="#fcfafa"/></svg>