<svg enable-background="new 0 0 400 400" viewBox="0 0 400 400" xmlns="http://www.w3.org/2000/svg"><g fill="#010103"><path d="m208.69 36.48c6.07 4.28 12.14 8.79 18.48 12.91 2.07 1.35 4.81 2.32 7.25 2.34 29.49.16 58.98.18 88.47-.04 2.42-.02 5.27-1.51 7.15-3.19 3.45-3.08 6.31-6.8 9.86-10.75 6.52 4.54 13.14 8.67 19.2 13.52 4.3 3.44 3.92 6.19-.22 9.86-1.11.98-2.31 2.12-3.67 2.53-6.36 1.9-7.44 6.1-7.38 12.36.37 41.65.15 83.31.42 124.96.06 9.95 1.43 19.89 1.86 29.84.27 6.29-3.17 9.28-9.66 9.18-6.71-.11-9.54-2.83-9.62-9.27-.02-1.82 0-3.64 0-5.88-34.52 0-68.73 0-103.67 0 0 3.17.11 6.27-.02 9.36-.29 6.43-4.93 9.7-12.35 8.84-5.51-.64-7.97-4.63-7.46-10.74 1.06-12.59 2.38-25.2 2.48-37.81.32-39.15.22-78.31.06-117.47-.05-13.4-.76-26.78-1.18-40.55zm121.75 122.3c0-15.12 0-29.82 0-44.37-34.59 0-68.78 0-102.95 0v44.37zm.12 11.49c-34.65 0-68.75 0-102.97 0v44.36h102.97c0-14.87 0-29.44 0-44.36zm-.05-66.49c0-14.33 0-28.06 0-42.01-34.51 0-68.71 0-102.94 0v42.01z"/><path d="m38.1 86.28c24.54.8 48.88 1.59 73.39 2.38 0-20.71 0-40.42 0-61.06 9.79 2.62 19.65 5.04 29.35 8.01 2.01.61 4.92 3.44 4.73 4.88-.28 2.1-2.92 3.96-4.73 5.74-.65.64-1.8.8-2.74 1.11-8.93 3-8.93 3-8.93 12.7v27.92c9.09 0 17.7.09 26.3-.11 1.23-.03 2.58-1.32 3.61-2.3 5.18-4.91 10.27-9.91 15.7-15.18 7.19 6.4 14.71 12.91 21.95 19.72 1.3 1.22 2.42 4.11 1.84 5.46-.59 1.36-3.38 2.48-5.22 2.49-19.32.18-38.65.11-57.98.11-1.81 0-3.61 0-6.17 0 0 5.14-.26 9.92.16 14.64.12 1.33 2.03 2.78 3.43 3.69 12.97 8.39 26.28 16.29 38.93 25.12 7.42 5.18 12.96 12.39 14.96 21.7 1.63 7.55-1.05 13.45-6.71 15.05-4.68 1.32-7.98-.99-10.22-4.35-3.67-5.51-6.64-11.49-10.03-17.2-7.66-12.88-18.05-23.25-29.79-32.86-.38.91-.71 1.32-.71 1.74.03 23.66-.15 47.32.27 70.96.18 10.28 1.47 20.55 2.47 30.8.98 10.01-2.03 13.98-10.77 13.61-6.69-.29-9.18-2.85-9.19-9.68-.02-32.49-.01-64.98-.01-97.47 0-2.1 0-4.21 0-6.31-19.36 35.32-44.69 64.92-78.86 87.2-1.11-1.53-2.24-3.08-3.72-5.13 32.56-31.58 57.51-68.17 73.81-111.2-2.1-.12-3.67-.32-5.23-.29-16.64.31-33.28.55-49.92 1.07-3.1.1-4.99-.48-6.06-3.55-1.19-3.39-2.76-6.68-3.91-9.41z"/><path d="m286.52 285c7.04-.02 6.78-.02 6.79 6.05.01 10.79.43 21.59.59 32.38.09 6.02 3.34 9.98 8.25 12.71 9.54 5.3 6.65 13.28-.74 15.95-9.57 3.46-19.55 6.36-29.6 7.8-27.57 3.96-55.42 3.96-83.18 2.92-16.22-.61-32.5-2.2-48.5-4.84-13.44-2.21-18.43-9.52-18.51-23.18-.12-18.15-.03-36.31-.03-54.47 0-8.94 0-17.89 0-27.9 9.52 2.67 20.04 5.21 30.24 8.68 4.45 1.51 4.59 5.91.52 8.4-3.17 1.94-7.09 2.61-10.56 4.12-1.29.56-3.2 1.88-3.21 2.86-.03 17.64-.17 35.29.52 52.91.31 7.97 5.1 12.24 12.96 13.43 6.07.92 12.2 1.73 18.33 1.91 15.96.48 31.94.99 47.9.73 13.93-.23 27.85-1.5 41.77-2.31 13.92-.82 18.89-10.44 20.7-20.58 2.11-11.75 3.51-23.63 5.23-35.45.11-.63.32-1.26.53-2.12z"/><path d="m309.23 268.9c1.9-2.05 3.35-3.61 5.67-6.11 12.33 9.9 24.71 19.36 36.52 29.48 9.27 7.95 17.39 17.12 19.85 29.66.77 3.93.28 8.2-.19 12.24-.5 4.25-3.4 7.43-7.57 7.21-3.23-.18-7.04-1.81-9.33-4.07-2.44-2.42-4.07-6.17-4.9-9.62-5.47-22.7-19.9-39.44-36.06-55.09-1.17-1.14-2.39-2.22-3.99-3.7z"/><path d="m76.23 267.58c2.5.51 4.54.92 6.79 1.38-2.13 18.68-3.98 36.99-10.96 54.26-3.75 9.27-9.18 17.39-17.63 23.04-5.21 3.49-10.94 5.79-17.39 4.22-6.9-1.68-9.11-7.73-4.75-13.32 1.91-2.45 4.3-4.8 6.97-6.34 20.47-11.82 30.37-30.45 34.63-52.85.63-3.23 1.45-6.43 2.34-10.39z"/><path d="m183.5 252.55c1.03-2.03 1.85-3.65 2.88-5.69 20.14 8.15 40.14 16.2 54.61 33.39 4.57 5.43 7.21 11.55 6.14 18.85-.96 6.53-7.35 10.23-12.94 6.74-3.65-2.28-7.32-5.7-9.17-9.49-8.9-18.3-22.44-31.99-39.75-42.26-.55-.34-.98-.85-1.77-1.54z"/></g><path d="m377.9 391.2c-.2.3-.4.5-.6.8-.7-.6-1.4-1-2.2-1.5.2-.3.4-.5.5-.8.6.4 1.4.8 2.3 1.5zm-1.8 6.1c-.2-.2-.5-.4-.9-.6.4-.6.8-1.2 1.2-1.9s.7-1.3.9-1.9c.3.3.5.5.8.7-.7 1.3-1.4 2.6-2 3.7zm2.2-9c-.3.3-.5.5-.6.8-.6-.6-1.3-1.1-2-1.5.3-.3.5-.5.6-.7.6.5 1.3.9 2 1.4zm.3.2v-.9h2 4.5c-.3 1.3-.6 2.5-1 3.6s-.9 2.1-1.4 3c.4.5 1 1 1.6 1.4s1.2.8 1.9 1.1c-.3.2-.5.4-.8.8-.4-.3-1-.7-1.6-1.2s-1.2-1.1-1.6-1.6c-.5.6-1.1 1.1-1.7 1.6s-1.4.9-2.1 1.4c-.1-.3-.3-.5-.7-.8.6-.2 1.2-.5 1.9-1s1.4-1.1 2-1.8c-.5-.8-.9-1.6-1.2-2.5s-.6-2-.8-3.2c-.4.1-.7.1-1 .1zm2.5 2.7c.3 1 .7 1.7 1 2.2.3-.5.6-1.1 1-2s.6-1.9.9-3h-3.2-.4c.1.9.3 1.8.7 2.8z" fill="#fcfafa"/><path d="m396.5 388.5v1.5 3.6h1.5v.9c-.4 0-1 0-1.7 0h-7.9c-.5 0-.9 0-1.2 0v-.9h1.3v-3.5c0-.7 0-1.2 0-1.6h2.4c0-.8 0-1.4 0-1.7h1c0 .3-.1.8-.1 1.7h1.5c0-.8 0-1.4 0-1.7h1c0 .3-.1.9-.1 1.7zm-8.2 9.2c-.2-.3-.5-.5-.8-.8.8-.3 1.4-.6 1.9-.9s1-.7 1.4-1.1c.3.3.6.5.9.8-1.6 1-2.8 1.6-3.4 2zm2.6-6.8v-1.6h-1.5v1.6zm0 2.7v-1.9h-1.5v1.9zm2.4-2.7v-1.6h-1.5v1.6zm0 2.7v-1.9h-1.5v1.9zm.2 2 .7-.8c.4.2.9.5 1.6.8s1.3.7 1.8 1c-.3.3-.5.5-.8.8-.4-.3-1.5-1-3.3-1.8zm2-4.7v-1.6h-1.4v1.6zm0 2.8v-1.9h-1.4v1.9z" fill="#fcfafa"/></svg>