<svg enable-background="new 0 0 400 400" viewBox="0 0 400 400" xmlns="http://www.w3.org/2000/svg"><g fill="#010103"><path d="m225.26 365.08c-.96-1.2-1.81-2.21-2.6-3.27-.38-.51-.64-1.1-1.15-1.99 35.76-29 58.97-65.89 70.39-110.91-5.96 0-11.64 0-17.33 0-1.7 7.19-8.42 10.89-15.04 7.45-2.23-1.16-4.32-4.78-4.43-7.37-.31-6.94.67-13.93.81-20.91.42-21.13.69-42.27 1.03-63.4.02-1.11.12-2.22.23-4.12 6.31 3.38 12.04 6.63 17.95 9.52 2.14 1.05 4.68 1.74 7.05 1.77 12.83.17 25.66-.08 38.48.18 3.76.08 6.26-1.04 8.4-3.99 2.24-3.09 4.83-5.92 7.61-9.28 5.83 4.19 11.8 8.08 17.3 12.55 4.6 3.74 4.71 7.48-.58 9.68-8.73 3.62-8.76 9.99-8.47 17.54.39 10.15.25 20.33.01 30.48-.08 3.53.58 6.12 3.98 7.65 1.04.47 2.28 1.12 2.78 2.04 1.33 2.45 2.3 5.09 3.41 7.66-2.19.68-4.37 1.92-6.57 1.95-14.83.17-29.66.08-44.48.1-1.57 0-3.14.16-4.81 1.06 4.18 1.35 8.37 2.68 12.54 4.05 1.89.62 3.82 1.18 5.6 2.05 2.79 1.36 6.8 2.74 5.49 6.48-.81 2.3-4.27 4.95-6.73 5.15-7.07.6-10.24 4.39-12.27 10.64-1.63 5.02-4.3 9.71-6.64 14.82 8.79 5.78 17.97 11.17 26.42 17.54 11.79 8.88 23.39 18.09 34.35 27.96 5.7 5.13 9.3 12.08 7.4 20.61-.94 4.21-3.51 6.9-7.39 6.8-2.68-.07-6.2-1.71-7.78-3.82-7.56-10.12-13.71-21.4-22.01-30.81-10.26-11.64-22.15-21.84-34.04-33.34-17.64 29.06-39.47 51.9-68.91 67.48zm102.3-182.59c-18.17 0-35.72 0-53.16 0v55.74h53.16c0-18.77 0-37.17 0-55.74z"/><path d="m110.93 367.78c-.99-1.34-2.15-2.9-3.61-4.87 38.68-28.71 63.06-66.3 72.56-113.97-6.37 0-12.53 0-18.72 0-2.16 6.93-3.84 8.23-10.76 8.22-6.34-.01-8.87-2.45-8.77-8.73.43-28.3.91-56.6 1.38-84.91.01-.78.14-1.56.28-3.13 6.47 3.36 12.37 6.62 18.46 9.48 2.46 1.15 5.33 1.92 8.03 1.96 11.99.21 24-.05 35.99.18 3.38.06 5.59-1.01 7.55-3.63 2.38-3.19 5.09-6.13 8.08-9.68 5.93 4.38 12.02 8.37 17.49 13.08 4.63 3.99 4.36 6.79-1.08 9.55-6.45 3.27-8.17 7.86-7.8 14.79.6 11.13.29 22.32.08 33.49-.06 3.21.86 5.33 3.53 7.03 1.95 1.24 3.91 2.69 5.33 4.47 1.13 1.41 2.28 3.7 1.86 5.15-.31 1.08-3.1 2.03-4.8 2.05-14.16.16-28.33.09-42.49.09-1.64 0-3.28 0-4.92 0-.07.33-.14.66-.22.99 3.95 1.13 7.94 2.13 11.83 3.43 2.97.99 6.03 2 8.66 3.62 3.22 1.99 3.24 5.35-.04 7.2-2.97 1.68-6.58 2.19-9.69 3.67-1.73.82-3.64 2.27-4.42 3.93-3.52 7.48-6.66 15.14-9.72 22.22 10.28 7.75 20.29 14.88 29.79 22.66 3.77 3.09 6.95 7.27 9.32 11.55 1.64 2.96 2.35 7.11 1.77 10.43-.44 2.51-3.24 5.81-5.61 6.44s-6.47-.8-8.11-2.76c-3.25-3.89-5.46-8.7-7.87-13.25-5.76-10.86-13.55-19.95-23.54-28.32-16.52 29.76-39.97 51.78-69.82 67.57zm101.94-185.51c-17.58 0-34.68 0-52.08 0v55.89h52.08c0-18.73 0-37.03 0-55.89z"/><path d="m68.29 28.54c9.75 2.48 19.25 4.61 28.54 7.45 2.42.74 4.16 3.69 6.21 5.62-2.12 2.09-3.93 4.72-6.43 6.13-3.1 1.74-8.25 1.49-9.8 3.86-1.77 2.73-.6 7.39-.62 11.22-.04 5.66.31 11.35-.12 16.98-.32 4.23 1.31 6.66 4.66 8.94 11.22 7.64 21.24 16.61 28.87 27.98 4.93 7.34 7.8 15.38 7.47 24.36-.24 6.5-3.12 10.43-8.02 10.93-4.17.43-8.34-3.27-9.9-8.93-2.16-7.82-3.29-16.1-6.61-23.39-3.73-8.17-9.41-15.44-14.24-23.11-.56.21-1.12.43-1.68.64-.14 1.17-.41 2.34-.41 3.51-.02 74.13-.14 148.27.11 222.4.04 11.76 1.7 23.52 2.6 35.29.09 1.16.14 2.33.16 3.49.13 7.5-2.36 10.19-9.47 10.25-8.1.07-10.58-2.27-10.58-10.17-.01-79.3 0-158.6-.01-237.9 0-27.49-.02-54.98-.09-82.46-.03-4.09-.4-8.19-.64-13.09z"/><path d="m181.1 126.81c-10.18 7.15-20.08 14.75-30.63 21.32-11.53 7.18-23.65 13.4-36.08 20.35-1.35-2.71-2.27-4.57-3.17-6.38 53-32.73 95.68-74.18 117.73-134.27 9.04 2.42 18.07 4.56 26.88 7.38 2.18.7 3.67 3.58 5.48 5.45-1.94 1.55-3.71 3.47-5.89 4.55-2.17 1.07-4.76 1.3-8.07 2.13 5.15 6.5 9.74 12.75 14.8 18.59 28.42 32.78 62.75 56.76 104.47 69.63 2.54.78 5.14 1.35 7.72 1.97 5.08 1.21 5.09 1.2 4.4 7.3-8.75 1.04-17.33 2.84-23.21 11.16-49.4-21.4-85.88-57-113.58-102.83-5.57 8.5-10.73 16.94-16.45 24.98-12.3 17.31-26.54 32.89-42.82 46.57-.72.6-1.18 1.51-1.76 2.27.01 0 .18-.17.18-.17z"/><path d="m180.93 126.98c11.2 1.19 22.39 2.98 33.62 3.41 15.62.6 31.28.24 46.92.06 1.53-.02 3.31-1.37 4.52-2.57 4.02-3.96 7.84-8.13 11.9-12.39 7.26 5.45 14.13 10.35 20.65 15.69 1.61 1.32 2.06 4.05 3.05 6.14-2.05.95-4.09 2.71-6.15 2.72-23.79.19-47.59-.06-71.38.21-10.77.12-21.53 1.07-32.28 1.77-2.57.17-4.42-.11-5.47-2.9-1.55-4.17-3.45-8.21-5.2-12.31-.01 0-.18.17-.18.17z"/><path d="m50.77 90.76c2.69.63 4.44 1.04 6.24 1.46 0 9.65.74 19.18-.18 28.54-1.25 12.66-3.03 25.39-6.11 37.71-1.48 5.94-6.32 11.09-9.94 16.4-1.05 1.55-3.04 2.56-4.76 3.53-3.73 2.12-8.35 3.16-10.97-.38-1.89-2.57-2.44-7.36-1.47-10.51 1.32-4.28 4.27-8.25 7.18-11.82 11.34-13.95 16.39-30.19 18.15-47.73.56-5.56 1.2-11.12 1.86-17.2z"/></g><path d="m377.9 391.2c-.2.3-.4.5-.6.8-.7-.6-1.4-1-2.2-1.5.2-.3.4-.5.5-.8.6.4 1.4.8 2.3 1.5zm-1.8 6.1c-.2-.2-.5-.4-.9-.6.4-.6.8-1.2 1.2-1.9s.7-1.3.9-1.9c.3.3.5.5.8.7-.7 1.3-1.4 2.6-2 3.7zm2.2-9c-.3.3-.5.5-.6.8-.6-.6-1.3-1.1-2-1.5.3-.3.5-.5.6-.7.6.5 1.3.9 2 1.4zm.3.2v-.9h2 4.5c-.3 1.3-.6 2.5-1 3.6s-.9 2.1-1.4 3c.4.5 1 1 1.6 1.4s1.2.8 1.9 1.1c-.3.2-.5.4-.8.8-.4-.3-1-.7-1.6-1.2s-1.2-1.1-1.6-1.6c-.5.6-1.1 1.1-1.7 1.6s-1.4.9-2.1 1.4c-.1-.3-.3-.5-.7-.8.6-.2 1.2-.5 1.9-1s1.4-1.1 2-1.8c-.5-.8-.9-1.6-1.2-2.5s-.6-2-.8-3.2c-.4.1-.7.1-1 .1zm2.5 2.7c.3 1 .7 1.7 1 2.2.3-.5.6-1.1 1-2s.6-1.9.9-3h-3.2-.4c.1.9.3 1.8.7 2.8z" fill="#fcfafa"/><path d="m396.5 388.5v1.5 3.6h1.5v.9c-.4 0-1 0-1.7 0h-7.9c-.5 0-.9 0-1.2 0v-.9h1.3v-3.5c0-.7 0-1.2 0-1.6h2.4c0-.8 0-1.4 0-1.7h1c0 .3-.1.8-.1 1.7h1.5c0-.8 0-1.4 0-1.7h1c0 .3-.1.9-.1 1.7zm-8.2 9.2c-.2-.3-.5-.5-.8-.8.8-.3 1.4-.6 1.9-.9s1-.7 1.4-1.1c.3.3.6.5.9.8-1.6 1-2.8 1.6-3.4 2zm2.6-6.8v-1.6h-1.5v1.6zm0 2.7v-1.9h-1.5v1.9zm2.4-2.7v-1.6h-1.5v1.6zm0 2.7v-1.9h-1.5v1.9zm.2 2 .7-.8c.4.2.9.5 1.6.8s1.3.7 1.8 1c-.3.3-.5.5-.8.8-.4-.3-1.5-1-3.3-1.8zm2-4.7v-1.6h-1.4v1.6zm0 2.8v-1.9h-1.4v1.9z" fill="#fcfafa"/></svg>