<svg enable-background="new 0 0 400 400" viewBox="0 0 400 400" xmlns="http://www.w3.org/2000/svg"><path d="m53.92 100.24c6.48 4.95 11.97 9.23 17.57 13.35 1.41 1.03 3.17 2.22 4.78 2.24 21.49.15 42.97.1 64.74.1 0-27.79 0-55.3 0-83.97 10.08 2.78 20.35 5.17 30.3 8.52 5.09 1.72 5.08 6.65.28 9.28-2.86 1.57-6.33 1.99-9.29 3.42-1.4.68-3.15 2.52-3.17 3.84-.2 18.99-.12 37.99-.1 56.99 0 .46.22.93.4 1.64h68.88c0-27.43 0-54.66 0-82.78 9.58 2.48 19.31 4.79 28.87 7.65 1.96.59 4.71 3.31 4.6 4.89-.14 2.02-2.61 4.06-4.42 5.72-1.02.94-2.7 1.51-4.13 1.63-6.02.5-7.5 3.56-7.35 9.46.45 17.64.16 35.29.16 53.71h5.55c19.16 0 38.33-.09 57.49.08 3.8.03 6.6-.83 8.95-3.94 2.5-3.3 5.48-6.24 8.87-10.04 6.64 4.67 13.38 9.13 19.77 14.04 3.23 2.49 3.02 5.88-.23 8.46-2.45 1.95-5.13 3.73-7.94 5.09-2.54 1.22-3.61 2.62-3.6 5.6.15 64.49.12 128.98.32 193.47.03 8.62.97 17.26 1.74 25.87.89 9.9-6.28 15.75-15.66 12.25-1.5-.56-2.93-3.09-3.18-4.88-.49-3.59-.15-7.3-.15-11.35-81.62 0-162.99 0-245.01 0 0 3.62.06 7.23-.01 10.83-.11 5.96-3.01 8.63-9.17 8.59-6.53-.05-10.2-2.81-10.07-8.47.25-10.97.94-21.93 1.47-32.9.16-3.32.58-6.64.59-9.96.04-63.32.1-126.65-.05-189.97 0-9.1-1.11-18.19-1.8-28.46zm263.91 240.01c0-36.61 0-72.9 0-109.5-23.9 0-47.63 0-71.56 0v109.5zm-89.4-.02c0-36.7 0-73.03 0-109.49-23.3 0-46.2 0-69.08 0v109.49zm-87.32.1c0-36.95 0-73.28 0-109.6-22.9 0-45.32 0-67.79 0v109.6zm105.4-214.11v94.44h71.13c0-31.61 0-62.95 0-94.44-23.8 0-47.25 0-71.13 0zm-87.06.1v94.27h69.07c0-31.57 0-62.79 0-94.27-23.08 0-45.85 0-69.07 0zm-18.32 94.48c0-31.8 0-63.14 0-94.43-22.88 0-45.29 0-67.72 0v94.43z" fill="#010103"/><g fill="#fcfafa"><path d="m377.9 391.2c-.2.3-.4.5-.6.8-.7-.6-1.4-1-2.2-1.5.2-.3.4-.5.5-.8.6.4 1.4.8 2.3 1.5zm-1.8 6.1c-.2-.2-.5-.4-.9-.6.4-.6.8-1.2 1.2-1.9s.7-1.3.9-1.9c.3.3.5.5.8.7-.7 1.3-1.4 2.6-2 3.7zm2.2-9c-.3.3-.5.5-.6.8-.6-.6-1.3-1.1-2-1.5.3-.3.5-.5.6-.7.6.5 1.3.9 2 1.4zm.3.2v-.9h2 4.5c-.3 1.3-.6 2.5-1 3.6s-.9 2.1-1.4 3c.4.5 1 1 1.6 1.4s1.2.8 1.9 1.1c-.3.2-.5.4-.8.8-.4-.3-1-.7-1.6-1.2s-1.2-1.1-1.6-1.6c-.5.6-1.1 1.1-1.7 1.6s-1.4.9-2.1 1.4c-.1-.3-.3-.5-.7-.8.6-.2 1.2-.5 1.9-1s1.4-1.1 2-1.8c-.5-.8-.9-1.6-1.2-2.5s-.6-2-.8-3.2c-.4.1-.7.1-1 .1zm2.5 2.7c.3 1 .7 1.7 1 2.2.3-.5.6-1.1 1-2s.6-1.9.9-3h-3.2-.4c.1.9.3 1.8.7 2.8z"/><path d="m396.5 388.5v1.5 3.6h1.5v.9c-.4 0-1 0-1.7 0h-7.9c-.5 0-.9 0-1.2 0v-.9h1.3v-3.5c0-.7 0-1.2 0-1.6h2.4c0-.8 0-1.4 0-1.7h1c0 .3-.1.8-.1 1.7h1.5c0-.8 0-1.4 0-1.7h1c0 .3-.1.9-.1 1.7zm-8.2 9.2c-.2-.3-.5-.5-.8-.8.8-.3 1.4-.6 1.9-.9s1-.7 1.4-1.1c.3.3.6.5.9.8-1.6 1-2.8 1.6-3.4 2zm2.6-6.8v-1.6h-1.5v1.6zm0 2.7v-1.9h-1.5v1.9zm2.4-2.7v-1.6h-1.5v1.6zm0 2.7v-1.9h-1.5v1.9zm.2 2 .7-.8c.4.2.9.5 1.6.8s1.3.7 1.8 1c-.3.3-.5.5-.8.8-.4-.3-1.5-1-3.3-1.8zm2-4.7v-1.6h-1.4v1.6zm0 2.8v-1.9h-1.4v1.9z"/></g></svg>