<svg enable-background="new 0 0 400 400" viewBox="0 0 400 400" xmlns="http://www.w3.org/2000/svg"><path d="m374.8 390.4.4-.4c.7.5 1.3 1 1.8 1.4l-.5.5c-.5-.6-1.1-1.1-1.7-1.5zm1 7.3-.6-.3c.5-1.4 1.1-2.8 1.5-4.3.2.1.4.2.6.3-.5 1.3-1 2.8-1.5 4.3zm-.4-10.3.4-.4c.4.3 1 .8 1.7 1.4l-.5.5c-.4-.5-1-1-1.6-1.5zm2.5.3h1.7v-1h.6v1h3.5v-1h.6v1h1.8v.5h-1.8v1.4h-2v1h3.2v2h-3.2v.9h3.3v.5h-3.4c0 .3-.1.6-.1.9h4v.5h-3.7c.7.9 1.9 1.5 3.8 1.7-.1.2-.2.4-.3.6-2.1-.4-3.5-1.1-4-2.1-.4 1-1.8 1.7-4 2.2-.1-.2-.2-.4-.3-.6 2.1-.4 3.4-1 3.8-1.8h-3.4v-.5h3.6c.1-.3.1-.6.2-.9h-3.3v-.5h3.4c0-.3 0-.6 0-.9h-3.2v-2h3.3v-1h-2.1v-1.4h-1.7v-.5zm1.1 3.5v1h2.7c0-.3 0-.4 0-.4 0-.1 0-.2 0-.2 0-.1 0-.2 0-.3h-2.7zm1.2-3v.9h3.5v-.9zm4.7 3h-2.6v.6.4h2.6z" fill="#fafafb"/><path d="m393.6 386.7h.6v1.5h2.7v6.1h1.1v.6h-11v-.6h1.1v-6.1h2.7v-1.5h.6v1.5h2.1v-1.5zm-2.7 8.8.4.6c-1.2.6-2.5 1.3-3.8 1.9-.1-.2-.2-.4-.3-.6 1.2-.6 2.5-1.2 3.7-1.9zm-2.2-6.7v2.4h2.1v-2.4zm0 3v2.5h2.1v-2.5zm2.8-3v2.4h2.1v-2.4zm0 3v2.5h2.1v-2.5zm6 6.1c-1.4-.7-2.7-1.3-3.9-1.8l.3-.6c1.5.6 2.7 1.2 3.9 1.7zm-1.2-9.1h-2.1v2.4h2.1zm-2.1 3v2.5h2.2v-2.5z" fill="#fafafb"/><g fill="#010100"><path d="m37.42 338.76c50.75 4.46 101.22 1.29 151.6 2.23 1.46.03 2.92-.12 4.64-.2 0-12.52 0-24.78 0-37.35-.9-.14-1.83-.42-2.76-.42-31.16.02-62.32.07-93.48.11-.67 0-1.33.01-2 .04-4.12.17-9.75 2.08-12 .11-3.54-3.1-4.81-8.81-7.39-14.12 39.48 6.66 78.48 2.2 117.63 3.95 0-12.78 0-24.69 0-36.65-38.7 2.38-77.27 4.75-116.3 7.15 0-2.81 0-4.87 0-7.51 9.24-1.03 18.76-2.01 28.27-3.16 22.42-2.7 44.88-5.13 67.23-8.32 27.63-3.95 55.06-9.08 81.64-17.83 11.5-3.79 22.81-8.21 34.06-12.7 3.02-1.2 4.71-.85 6.77 1.49 4.83 5.5 10.04 10.67 14.83 16.21 1.15 1.33 2.17 4.02 1.56 5.25-.59 1.2-3.78 2.34-5.08 1.78-13.27-5.74-25.36 1.07-37.79 3.39-19.06 3.55-38.01 7.69-57.37 11.66v38.69c1.88.09 3.5.25 5.12.25 24.66.02 49.33.1 73.99-.12 2.46-.02 5.32-1.41 7.28-3.02 5.26-4.34 10.12-9.15 15.76-14.33 6.92 6.16 14.85 12.9 22.37 20.08 3.1 2.96 1.29 6.91-3.03 7.53-1.31.19-2.66.06-4 .06-37.16 0-74.32 0-111.48 0-1.83 0-3.65 0-5.9 0v38h5.3c35.49 0 70.99-.05 106.48.07 3.44.01 5.84-.98 8.29-3.41 4.72-4.69 9.88-8.95 15.41-13.89 6.84 6.14 14.88 13.04 22.51 20.37 2.97 2.86 1.14 6.48-3.13 6.95-1.65.18-3.33.07-5 .07-89.82 0-179.64-.05-269.46.05-14.98.02-29.96.55-44.93 1.07-2.73.1-4.29-.28-5.25-3.04-1.29-3.73-3.04-7.31-4.39-10.49z"/><path d="m347.91 55.87c6.31 4.25 12.73 8.1 18.6 12.66 5.3 4.12 4.72 8.14-.97 11.89-.55.37-1.1.88-1.72 1-8.81 1.72-11.45 8.72-14.3 15.94-9.69 24.51-22.82 46.88-41.75 65.57-21.48 21.2-47.15 35.58-75.08 46.18-11.64 4.42-23.63 7.89-35.36 12.06-4.6 1.64-6.95.72-7.11-4.64 24.85-10.04 49.82-20.06 71.75-34.98-3.31-4.94-6.67-9.34-9.39-14.12-9.27-16.28-22.07-29.48-35.66-42.22-9.08 7.66-17.93 15.13-27.1 22.86-1.58-1.72-2.77-3.01-4.12-4.48 30.42-32.16 54.09-68.06 65.56-111.5 9.76 3.89 19.2 7.5 28.48 11.48 1.7.73 2.74 2.98 4.08 4.52-1.68 1.37-3.3 2.85-5.09 4.07-.77.53-1.96.84-2.87.7-12.93-1.97-13.98 8.37-17.81 16.97h5.47c22.33 0 44.65-.1 66.98.1 3.76.03 6.22-1.16 8.46-3.97 2.68-3.37 5.71-6.47 8.95-10.09zm-39.34 82.08c12.62-18.08 21.24-37.58 27.75-58.76-27.84 0-54.79-.01-81.74.04-.88 0-2.16.38-2.56 1.02-2.69 4.29-5.19 8.7-7.93 13.37 8.79 3.63 17.03 6.66 24.96 10.39 16.11 7.57 33.56 13.73 39.52 33.94zm-86.95-17.42c10.34 7.17 20.6 13.67 30.17 21.08 10.3 7.98 21.02 16.08 22.02 32.01 9.44-8.89 18.89-17.79 29.04-27.35-8.6-.81-12.1-6.43-16.09-11.18-12.81-15.26-28.96-26.17-45.99-36.28-6.53 7.4-12.78 14.49-19.15 21.72z"/><path d="m79.17 94.41c0 3.81-.03 6.94.01 10.06.25 19.31.51 38.62.77 57.94.12 9.05 5.65 13.55 13.63 15.45 17.95 4.28 36.22 5.03 54.52 3.42 10.4-.91 20.71-2.89 31.05-4.43 4.94-.74 9.2-.03 12.25 4.54 4.04 6.05 2.23 11.12-4.84 12.63-3.4.73-6.86 1.39-10.32 1.67-30.08 2.38-60.15 3.51-89.94-2.66-15.85-3.29-22.71-10.94-23.34-27.16-.84-21.62-.68-43.28-.95-64.93-.02-1.96 0-3.92 0-6.37-7.39.54-14.32.93-21.22 1.61-2.59.25-3.94-.57-4.87-2.94-1.45-3.69-3.16-7.27-4.42-10.12 27.76.79 55.62 1.58 84.97 2.41-4.12-9.99-6.88-19.08-11.47-27.12-4.57-8-10.97-14.95-16.77-22.62 1.13-1.32 2.39-2.8 3.94-4.61 12.02 8.75 24.13 16.99 32.66 29.18 6.67 9.53 6.83 15.17 1.08 24.48h13.11c8.17 0 16.35.27 24.49-.16 2.63-.14 5.63-1.58 7.66-3.34 3.99-3.48 7.42-7.6 11.39-11.77 7.38 5.77 14.67 11.27 21.66 17.11 1.19.99 2.12 4.29 1.45 5.08-1.21 1.45-3.71 2.54-5.68 2.55-38.16.14-76.33.11-114.49.11-1.95-.01-3.89-.01-6.33-.01z"/></g></svg>