<svg enable-background="new 0 0 400 400" viewBox="0 0 400 400" xmlns="http://www.w3.org/2000/svg"><path d="m385.2 377.6.6-.7c.6.4 1.3.9 1.9 1.5l-.6.7c-.8-.5-1.4-1-1.9-1.5zm.3 7.1c.6-1.4 1.1-2.9 1.5-4.5.3.1.6.3.9.4-.5 1.4-1 2.9-1.5 4.4zm.2-10.1.6-.6c.7.5 1.3 1.1 1.9 1.6l-.7.7c-.6-.6-1.2-1.2-1.8-1.7zm8.4-.8h.8v.9h1.8v.7h-1.8v1.8h-.8v-.3h-1.2v.9h3.3v2.6h-.8v-.4h-2.5c0 .3 0 .6-.1.8h3.4v.7h-3.5c0 .3-.1.6-.1.8h4v.7h-3.5c.7.9 1.9 1.3 3.6 1.5-.2.2-.4.5-.6.9-1.9-.3-3.2-1.1-3.8-2.3-.5 2.1-1.8 2-3.9 2.4-.2-.3-.4-.5-.6-.8 1.9-.4 3.1-.9 3.6-1.7h-3.2v-.7h3.5c.1-.2.1-.5.2-.8h-3.3v-.7h3.4c0-.2 0-.5 0-.8h-2.4v.3h-.8v-2.6h3.3v-.9h-1.2v.3h-.8v-1.8h-1.8v-.7h1.8v-.9h.8v.9h3.2zm-4.4 5.5h2.4c0-.3 0-.6 0-.9h-2.4zm1.2-3.1h3.2v-.8h-3.2zm4.4 2.2h-2.4v.9h2.5v-.9z" fill="#fafafb"/><path d="m389.2 385.8h.9v1.5h1.9v-1.5h.9v1.5h2.7v6h1.1v.9h-11.3v-.9h1.1v-6h2.7zm.2 8.7.5.8c-1.2.6-2.5 1.3-4 1.9-.2-.3-.3-.6-.6-.8 1.6-.6 3-1.3 4.1-1.9zm-2-4.3h1.9v-2.1h-1.9zm0 3.1h1.9v-2.2h-1.9zm2.7-3.1h1.9v-2.1h-1.9zm0 3.1h1.9v-2.2h-1.9zm2.4 1.3c1.4.6 2.7 1.2 4.1 1.8l-.5.9c-1.5-.7-2.8-1.4-4.1-1.9zm2.2-6.5h-1.9v2.1h1.9zm-1.9 5.2h1.9v-2.2h-1.9z" fill="#fafafb"/><g fill="#010100"><path d="m188.47 355.86c-.11 1.34-.4 2.5-.26 3.61.77 5.79-2.39 8.49-7.44 10-7.51 2.24-11.03-.39-10.92-8.25.59-40.45 1.16-80.91 1.74-121.36.03-1.77 0-3.54 0-5.44-15.44 11.31-30.41 22.28-45.59 33.4-1.27-1.5-2.03-2.3-2.68-3.19-.58-.79-1.03-1.67-1.81-2.95 29.91-22.51 54.33-49.84 74.03-82.29-1.74-.15-2.95-.38-4.16-.35-14.64.36-29.28.64-43.91 1.26-2.88.12-4.25-.66-5.23-3.16-1.39-3.52-3-6.96-4.85-11.21 4.59.41 8.45.91 12.33 1.07 16.11.67 32.23 1.28 48.35 1.76 1.37.04 3.57-.75 4.03-1.77 5.38-11.91 10.5-23.95 15.95-36.57-13.02 0-24.79-.5-36.5.13-13.07.71-9.12 2.46-14.69-8.69-.59-1.19-1.08-2.43-1.56-3.68-.1-.27.04-.63.09-1.16 8.09.71 16.16 1.64 24.26 2.06 9.3.48 18.63.61 27.94.63 1.12 0 2.81-1.44 3.26-2.59 1.26-3.23 2.13-6.63 2.95-10.02 1.77-7.41 3.41-14.85 5.18-22.6-1.44-.17-2.54-.42-3.63-.41-19.48.31-38.99.12-58.41 1.3-6.59.4-9.67-.97-11.25-7.05-.61-2.34-2-4.48-2.7-5.98 25.73.73 51.43 1.46 78.04 2.21 1.74-15.18 3.4-29.6 5.12-44.65 10.19 2.66 20.24 5.18 30.2 8.02 1.43.41 3.28 2.37 3.35 3.69.07 1.35-1.53 3.47-2.91 4.08-3.3 1.47-7.03 1.98-10.35 3.41-1.63.7-3.64 2.41-3.96 3.98-1.38 6.64-2.19 13.39-3.27 20.53 1.59.11 3.01.29 4.44.29 15 .02 30 .13 45-.11 2.34-.04 5.07-1.26 6.88-2.81 4.93-4.19 9.45-8.85 14.57-13.73 8.09 6.26 16.19 12.32 23.97 18.75 1.29 1.07 2.14 4.22 1.5 5.64-.6 1.33-3.45 2.3-5.31 2.31-29 .14-58 .1-87 .1-1.82 0-3.64 0-5.82 0-2.81 11.87-5.57 23.56-8.45 35.76h26.84c9.83 0 19.67.18 29.5-.13 2.34-.07 5.02-1.32 6.86-2.86 4.46-3.71 8.51-7.91 13.12-12.28 7.49 5.38 15.02 10.51 22.16 16.13 1.58 1.25 2.87 4.66 2.27 6.36-.53 1.5-3.88 2.82-5.99 2.83-30.67.18-61.33.23-92 0-4.68-.04-6.82 1.17-8.41 5.74-3.81 10.95-8.39 21.64-12.82 32.85 1.38.12 2.77.33 4.16.34 33.33.02 66.67.08 100-.12 2.46-.01 5.4-1.41 7.26-3.1 5.16-4.68 9.87-9.85 14.93-15 7.77 6.25 15.3 11.98 22.36 18.25 1.78 1.58 2.93 5.01 2.6 7.33-.18 1.23-4.17 2.68-6.45 2.71-20.16.21-40.33.12-60.5.12-1.59 0-3.18 0-6.52 0 6.43 8.75 11.56 16.72 17.66 23.85 16.23 18.97 35.52 34.02 58.82 43.52 2.33.95 4.11 2.15 3.03 4.62-.59 1.35-2.51 2.77-3.99 2.97-8.33 1.08-14.41 5.57-19.62 12.64-7.14-6.36-14.03-12.6-21.07-18.68-1.3-1.12-3.63-2.58-4.71-2.11-2.64 1.15-5.62 2.15-5.58 6.52.24 27 .05 54 .19 81 .04 8.64.83 17.28.94 25.92.1 8.28-8.74 13.97-16.15 10.44-1.12-.54-2.01-2.53-2.16-3.94-.32-3.12-.1-6.29-.1-9.88-39.25-.01-78.11-.01-117.15-.01zm-.04-10.26h116.76c0-15.93 0-31.62 0-48.09-13.37.56-26.32 1.16-39.27 1.55-1.51.05-3.84-.63-4.45-1.71-2.14-3.81-3.68-7.96-5.45-11.95 16.61 1.05 32.76 2.08 49.26 3.13 0-15.25 0-29.16 0-43.51-1.93 0-3.56-.05-5.19.01-10.14.37-20.27.84-30.41 1.08-1.35.03-3.42-.65-3.96-1.66-2.13-3.9-3.79-8.05-5.85-12.63 2.37.14 4.17.21 5.97.34 11.26.81 22.52 1.82 33.79 2.28 2.18.09 4.84-1.57 6.59-3.18 2.52-2.31 4.41-5.32 6.25-7.62-8.06-14.49-15.84-28.6-23.85-42.58-.66-1.15-2.92-1.95-4.44-1.96-22.16-.12-44.33-.16-66.49.06-1.81.02-4.3 1.59-5.31 3.18-10.18 16.11-21.92 30.95-35.1 44.69-.96 1-1.76 2.15-2.9 3.56 4.53 2.39 8.67 4.23 12.42 6.65 3.06 1.98 5.41 1.78 7.92-.66 8.79-8.53 17.62-17.01 26.9-25.97 5.58 3.59 12.31 7.8 18.92 12.21 3.03 2.03 8.05 3.56 6.23 8.32-1.83 4.76-6.86 2.69-10.67 2.74-2.95.04-6.27-1.15-8.8-.17-12.94 5-25.68 10.53-38.8 16.01v38.78c12.1 1.39 23.63 2.11 31-9.99.41-.67 1.19-1.1 1.98-1.79 5.46 4.59 10.99 8.89 16.03 13.7 1.48 1.41 2.2 4.33 2.01 6.45-.08.89-3.41 2.1-5.28 2.12-13.5.18-27 .09-40.49.11-1.76 0-3.51.15-5.32.23z"/><path d="m94.31 112.35c8.66 2.17 15.23.12 20.19-6.8 2.12-2.96 4.76-5.54 7.22-8.37 7.58 6.11 14.47 11.36 20.93 17.09 1.51 1.34 2.26 4.38 2.03 6.49-.11.98-3.4 2.26-5.26 2.29-13.16.2-26.32.11-39.48.11-1.78 0-3.56 0-5.85 0 0 7.37-.25 14.17.18 20.93.11 1.65 2.2 3.49 3.79 4.69 11.87 8.94 23.35 18.26 32.07 30.51 5.02 7.05 8.63 14.6 7.95 23.57-.44 5.82-3.38 9.14-8.27 9.52-4.81.37-8.09-1.28-9.03-6.4-3.17-17.31-11.43-32.11-22.53-45.5-1.04-1.25-2.11-2.48-3.69-4.35-.24 1.47-.46 2.19-.46 2.91.02 56.31-.05 112.63.17 168.94.05 11.29 1.35 22.57 1.84 33.86.37 8.41-5.93 13.1-14.09 10.92-4.46-1.19-5.15-4.23-5.14-8.36.1-58.81.07-117.62.07-176.44 0-1.82 0-3.63 0-5.45-14.43 31.38-30.23 61.89-49.38 90.93-1.8-1.24-3.27-2.26-5.14-3.56 24.98-45.94 40.8-94.78 50.03-146.47-8.34 0-16.1-.18-23.85.07-4.46.14-8.89 1.17-13.36 1.34-1.39.05-3.47-1.06-4.13-2.25-2.07-3.75-3.62-7.79-5.31-11.57 16.94.85 33.72 1.7 50.6 2.55 0-28.82 0-56.53 0-85.44 10.3 2.83 20.58 5.16 30.49 8.58 5.57 1.92 5.53 6.74.22 9.45-3.93 2-8.36 3.03-12.81 4.58z"/></g></svg>