<svg enable-background="new 0 0 400 400" viewBox="0 0 400 400" xmlns="http://www.w3.org/2000/svg"><path d="m385.2 377.6.6-.7c.6.4 1.3.9 1.9 1.5l-.6.7c-.8-.5-1.4-1-1.9-1.5zm.3 7.1c.6-1.4 1.1-2.9 1.5-4.5.3.1.6.3.9.4-.5 1.4-1 2.9-1.5 4.4zm.2-10.1.6-.6c.7.5 1.3 1.1 1.9 1.6l-.7.7c-.6-.6-1.2-1.2-1.8-1.7zm8.4-.8h.8v.9h1.8v.7h-1.8v1.8h-.8v-.3h-1.2v.9h3.3v2.6h-.8v-.4h-2.5c0 .3 0 .6-.1.8h3.4v.7h-3.5c0 .3-.1.6-.1.8h4v.7h-3.5c.7.9 1.9 1.3 3.6 1.5-.2.2-.4.5-.6.9-1.9-.3-3.2-1.1-3.8-2.3-.5 2.1-1.8 2-3.9 2.4-.2-.3-.4-.5-.6-.8 1.9-.4 3.1-.9 3.6-1.7h-3.2v-.7h3.5c.1-.2.1-.5.2-.8h-3.3v-.7h3.4c0-.2 0-.5 0-.8h-2.4v.3h-.8v-2.6h3.3v-.9h-1.2v.3h-.8v-1.8h-1.8v-.7h1.8v-.9h.8v.9h3.2zm-4.4 5.5h2.4c0-.3 0-.6 0-.9h-2.4zm1.2-3.1h3.2v-.8h-3.2zm4.4 2.2h-2.4v.9h2.5v-.9z" fill="#fafafb"/><path d="m389.2 385.8h.9v1.5h1.9v-1.5h.9v1.5h2.7v6h1.1v.9h-11.3v-.9h1.1v-6h2.7zm.2 8.7.5.8c-1.2.6-2.5 1.3-4 1.9-.2-.3-.3-.6-.6-.8 1.6-.6 3-1.3 4.1-1.9zm-2-4.3h1.9v-2.1h-1.9zm0 3.1h1.9v-2.2h-1.9zm2.7-3.1h1.9v-2.1h-1.9zm0 3.1h1.9v-2.2h-1.9zm2.4 1.3c1.4.6 2.7 1.2 4.1 1.8l-.5.9c-1.5-.7-2.8-1.4-4.1-1.9zm2.2-6.5h-1.9v2.1h1.9zm-1.9 5.2h1.9v-2.2h-1.9z" fill="#fafafb"/><g fill="#010100"><path d="m127.83 99.13c6.88 6.24 13.62 12.14 20.03 18.37 1.28 1.25 2.3 4.25 1.66 5.59-.64 1.33-3.52 2.18-5.43 2.2-12.99.12-25.98-.05-38.98-.1-1.45-.01-2.91.17-4.89.29 0 9.38-.14 18.49.15 27.6.05 1.43 1.92 2.9 3.15 4.16 9.39 9.63 19.08 18.98 28.16 28.89 5.15 5.62 8.11 12.57 7.43 20.56-.46 5.45-3.64 8.68-8.42 8.69-3.78 0-5.58-2.3-6.86-5.48-3.6-8.93-6.91-18.01-11.06-26.68-3.09-6.48-7.3-12.42-11.01-18.6-.46.17-.92.35-1.37.52-.07 1.4-.21 2.8-.21 4.2-.01 49.32-.14 98.63.07 147.95.06 14.29 1.02 28.58 1.76 42.86.45 8.71-7.32 14.36-15.37 10.63-1.43-.66-2.65-3.35-2.7-5.13-.25-10.49-.13-20.99-.13-31.49 0-47.48 0-94.97 0-142.45 0-1.79 0-3.58 0-5.37-.38-.16-.77-.32-1.15-.47-13.71 33.37-29.4 65.59-53.17 93.57-1.68-1.23-3.11-2.27-5.27-3.86 28.08-46.4 45.15-96.73 55.53-150.11-7.14 0-14.04-.21-20.92.06-6.63.26-13.25.9-19.84 1.64-2.82.32-4.21-.59-5.17-3.2-1.35-3.68-3.08-7.22-4.54-10.57 18.15.95 35.99 1.89 54.04 2.84 0-29.46 0-57.69 0-86.77 7.25 1.59 14.76 3.15 22.21 4.93 2.88.69 5.83 1.54 8.43 2.92 4.08 2.15 4.4 6.31.42 8.66-3.34 1.98-7.43 2.65-11.02 4.27-1.32.6-3.06 2.26-3.07 3.45-.19 20.31-.14 40.63-.14 61.57 6.66.18 13.16 2.37 17.86-4.91 2.6-3.98 6.28-7.24 9.82-11.23z"/><path d="m311.42 254.98c8.54 0 17 .12 25.45-.13 1.32-.04 2.77-1.6 3.85-2.75 3.86-4.12 7.58-8.37 11.62-12.88 7.35 5.83 14.61 11.33 21.5 17.27 1.4 1.21 2.2 4.27 1.73 6.08-.32 1.2-3.37 2.37-5.21 2.39-18.99.21-37.99.27-56.98.13-3.37-.02-4.91.86-5.92 4.23-5.77 19.25-14.52 36.78-31.44 50.22 6.97 2.34 13.01 4.35 19.04 6.39 16.97 5.74 34.23 10.78 49.49 20.63 4.9 3.16 9.77 6.37 11.72 12.42 1.31 4.06 1.62 7.85-1.78 11.03-3.29 3.07-6.99 2.66-10.63.77-3.54-1.84-7.13-3.65-10.44-5.87-20.69-13.86-42.97-24.58-66.05-33.71-1.86-.74-4.77-.9-6.37.05-26.74 15.86-55.59 25.9-86 31.76-9.76 1.88-19.55 3.57-29.83 5.44-.18-2.56-.33-4.65-.5-7.08 35.63-7.93 70.31-17.77 101.4-37.19.08-.59.17-1.19.25-1.78-25.3-7.27-50.61-14.55-76.07-21.87 6.82-11.14 13.8-22.54 21.32-34.82-9.63 0-18.33-.16-27.03.06-5.31.13-10.61.75-15.89 1.35-2.57.29-3.93-.57-4.86-3-1.41-3.68-3.18-7.22-5.01-11.27 9.71.86 18.76 1.94 27.85 2.4 8.81.44 17.65.41 26.46.16 1.41-.04 3.39-2.02 4.05-3.55 5.11-11.85 9.96-23.82 15.21-36.53 8.42 3.37 17.5 6.84 26.41 10.71 1.42.62 3.17 3.26 2.85 4.45-.47 1.72-2.44 3.67-4.2 4.26-2.93.99-6.19 1.27-9.31 1.32s-4.75 1.37-5.99 4.13c-2.21 4.95-4.78 9.74-7.33 14.87h77.82c.83-10.53 1.62-20.56 2.48-31.49 9.96 2.41 19.73 4.66 29.41 7.24 1.43.38 3.42 2.35 3.4 3.55-.04 1.62-1.42 3.76-2.87 4.68-2.18 1.39-4.84 2.32-7.41 2.75-4.04.67-5.74 2.7-5.58 6.73.08 1.94-.35 3.92-.61 6.45zm-123.11 39.52c23.01 6.52 45.78 13 68.58 19.34 1.19.33 3.07 0 3.98-.78 14.72-12.61 23.5-28.82 28.7-47.35-.86-.24-1.32-.49-1.79-.49-25.3.05-50.6.1-75.89.27-1.29.01-3.06.72-3.79 1.71-6.72 9.05-13.26 18.24-19.79 27.3z"/><path d="m343.59 57.72c-19.06 0-37.3 0-56.18 0v6.14c0 32.15.06 64.31-.11 96.46-.01 2.49-1 6.63-2.5 7.14-3.71 1.26-7.99 1.02-12.03.94-.64-.01-1.76-2.33-1.76-3.58-.04-42.48.03-84.95.09-127.43 0-.14.13-.29.46-1.01 5.84 3.08 11.58 6.32 17.52 9.13 2.45 1.16 5.33 1.95 8.03 1.99 12.66.2 25.32-.05 37.98.18 3.68.07 6.27-.84 8.47-3.86 2.33-3.2 5.13-6.06 8.14-9.54 6.07 4.52 12.19 8.56 17.69 13.32 4.14 3.59 3.81 7.54-1.27 9.37-8.1 2.92-8.25 8.53-8.18 15.55.28 28.49.12 56.98.12 85.46 0 7.76-6.82 12.68-14.02 9.95-.99-.38-1.92-1.79-2.21-2.9-.41-1.57-.24-3.3-.24-4.97-.01-31.99-.01-63.97-.01-95.96.01-1.95.01-3.92.01-6.38z"/><path d="m226.83 57.7c-17.53 0-34.28 0-51.65 0v6.1c0 32.64.01 65.29-.01 97.93 0 6.9-7.68 11.36-13.54 7.61-1.2-.76-1.73-3.33-1.73-5.08-.17-36.3-.23-72.61-.31-108.91-.01-5.98 0-11.95 0-19.19 5.62 3.22 10.29 6.24 15.26 8.62 3.02 1.45 6.5 2.59 9.81 2.68 11.32.32 22.65-.03 33.97.21 3.85.08 6.62-.9 8.92-4.02 2.25-3.07 4.89-5.84 7.81-9.27 5.92 4.24 11.89 8.1 17.35 12.57 4.44 3.64 3.87 8.32-1.55 10.55-6.08 2.5-7.43 6.25-7.34 12.54.4 27.81-.05 55.63.32 83.43.1 7.6-4.61 12.21-14.08 10.38-3.21-.62-3.27-3.17-3.27-5.83.04-26.15.03-52.3.03-78.44.01-7.13.01-14.27.01-21.88z"/><path d="m144.17 229.08c-1.21-1.66-2.35-3.24-3.17-4.36 7.78-7.23 15.73-13.77 22.68-21.24 16.51-17.73 24.2-39.37 26.25-63.2.83-9.6 1.53-19.22 1.95-28.84.31-6.93.06-13.87.06-21.19 7.47 1.29 15.47 2.44 23.35 4.17 2.09.46 5.32 2.63 5.34 4.06.03 2.1-2 5.68-3.76 6.1-8.55 2.05-7.84 8.76-8.77 15.02-1.99 13.43-3.74 26.94-6.57 40.21-6.03 28.21-23.3 48.34-47.27 63.31-3.23 1.99-6.55 3.86-10.09 5.96z"/><path d="m266.7 224c-.2-.33-.49-.95-.89-1.49-.79-1.06-1.64-2.07-3.23-4.06 2.49-2.11 5.05-4.19 7.52-6.38 17.88-15.89 26.84-36.5 30.74-59.51 3.29-19.36 5.26-38.87 3.2-58.56-.2-1.95-.03-3.93-.03-6.73 9.77 1.97 19.02 3.67 28.16 5.83 1.51.36 3.32 2.57 3.56 4.14.19 1.24-1.68 2.96-2.91 4.19-.77.77-2.03 1.39-3.11 1.48-7.96.64-7.84 6.54-8.68 12.35-2.52 17.39-4.52 34.93-8.42 52.02-5.14 22.52-20.36 38.39-38.29 51.89-1.99 1.5-4.06 2.89-6.11 4.32-.25.17-.59.2-1.51.51z"/><path d="m318.99 165.98c1.19-1.93 2.13-3.46 3.52-5.71 5.02 4.27 10.04 7.99 14.41 12.38 7.24 7.27 14.3 14.77 20.98 22.57 4.09 4.77 5.95 10.7 5.45 17.14-.37 4.8-3.79 9.32-7.53 9.35-4.46.03-6.79-3.14-8-6.97-5.78-18.36-15.07-34.62-28.83-48.76z"/><path d="m206.12 166.29c1.06-1.51 1.99-2.85 3.26-4.65 13.02 10.9 26.87 20.53 35.32 35.52 2.42 4.3 4.65 9.2 2.3 14.16-1.11 2.35-3.63 5.23-5.85 5.55-2.25.32-5.47-1.7-7.23-3.65-1.78-1.96-2.32-5.07-3.32-7.7-5.51-14.48-14.64-26.73-24.48-39.23z"/></g></svg>