<svg enable-background="new 0 0 400 400" viewBox="0 0 400 400" xmlns="http://www.w3.org/2000/svg"><path d="m385.2 377.6.6-.7c.6.4 1.3.9 1.9 1.5l-.6.7c-.8-.5-1.4-1-1.9-1.5zm.3 7.1c.6-1.4 1.1-2.9 1.5-4.5.3.1.6.3.9.4-.5 1.4-1 2.9-1.5 4.4zm.2-10.1.6-.6c.7.5 1.3 1.1 1.9 1.6l-.7.7c-.6-.6-1.2-1.2-1.8-1.7zm8.4-.8h.8v.9h1.8v.7h-1.8v1.8h-.8v-.3h-1.2v.9h3.3v2.6h-.8v-.4h-2.5c0 .3 0 .6-.1.8h3.4v.7h-3.5c0 .3-.1.6-.1.8h4v.7h-3.5c.7.9 1.9 1.3 3.6 1.5-.2.2-.4.5-.6.9-1.9-.3-3.2-1.1-3.8-2.3-.5 2.1-1.8 2-3.9 2.4-.2-.3-.4-.5-.6-.8 1.9-.4 3.1-.9 3.6-1.7h-3.2v-.7h3.5c.1-.2.1-.5.2-.8h-3.3v-.7h3.4c0-.2 0-.5 0-.8h-2.4v.3h-.8v-2.6h3.3v-.9h-1.2v.3h-.8v-1.8h-1.8v-.7h1.8v-.9h.8v.9h3.2zm-4.4 5.5h2.4c0-.3 0-.6 0-.9h-2.4zm1.2-3.1h3.2v-.8h-3.2zm4.4 2.2h-2.4v.9h2.5v-.9z" fill="#fafafb"/><path d="m389.2 385.8h.9v1.5h1.9v-1.5h.9v1.5h2.7v6h1.1v.9h-11.3v-.9h1.1v-6h2.7zm.2 8.7.5.8c-1.2.6-2.5 1.3-4 1.9-.2-.3-.3-.6-.6-.8 1.6-.6 3-1.3 4.1-1.9zm-2-4.3h1.9v-2.1h-1.9zm0 3.1h1.9v-2.2h-1.9zm2.7-3.1h1.9v-2.1h-1.9zm0 3.1h1.9v-2.2h-1.9zm2.4 1.3c1.4.6 2.7 1.2 4.1 1.8l-.5.9c-1.5-.7-2.8-1.4-4.1-1.9zm2.2-6.5h-1.9v2.1h1.9zm-1.9 5.2h1.9v-2.2h-1.9z" fill="#fafafb"/><g fill="#010100"><path d="m315.64 370.06c1.6-10.27-4.77-14.4-12.27-17.39-5.53-2.21-11.27-3.91-17.43-6.02.26-1.9.55-3.97.85-6.18 9.03 1.22 17.83 2.57 26.67 3.56 9.65 1.08 13.09-2.14 13.12-11.86.03-8.97.01-17.95.01-27.34-19.96 0-39.49 0-58.86 0 0 10.14-.29 20.09.09 30.01.34 8.95 1.58 17.86 2.13 26.81.39 6.37-2.8 9.32-9.42 9.41-7.96.11-10.58-2.09-10.59-9.01-.02-17.17-.01-34.33-.01-51.5 0-1.81 0-3.63 0-5.79-19.94 0-39.52 0-59.7 0-3.16 24.9-9.12 48.69-29.38 66.41-.7-.57-1.6-1.21-2.41-1.96-.72-.67-1.34-1.45-2.4-2.63 10.32-13.02 14.7-28.52 16.65-44.56 1.84-15.15 2.78-30.47 3.11-45.74.5-22.99.23-45.99.08-68.99-.05-7.75-.75-15.49-1.21-24.39 5.86 3.95 10.63 7.49 15.72 10.47 2.43 1.42 5.47 2.51 8.23 2.52 40 .16 79.99.06 119.99.19 3.67.01 6.27-.77 8.36-3.94 2.28-3.45 5.06-6.56 8.02-10.33 6.27 4.76 12.48 9.15 18.29 14.02 3 2.52 2.96 5.82-.15 8.64-.61.56-1.22 1.22-1.96 1.53-7.74 3.19-8.41 9.25-8.34 16.82.37 39.99-.17 80 .35 119.99.2 15.68-10.49 23.37-21.29 26.21-1.75.44-3.58.6-6.25 1.04zm10.6-76.27c0-13.4 0-26.61 0-39.93-19.88 0-39.39 0-58.87 0v39.93zm-76.44-39.98c-19.13 0-37.83 0-56.64 0-.61 13.46-1.21 26.52-1.81 39.81h58.46c-.01-13.35-.01-26.32-.01-39.81zm17.4-10.26h59.04c0-12.5 0-24.88 0-37.17-19.87 0-39.39 0-59.04 0zm-74.01.05h56.48c0-12.64 0-24.88 0-37.3-18.94 0-37.62 0-56.48 0z"/><path d="m81.33 29.08c8.55 1.97 17.01 3.68 25.33 5.93 3.69 1 8.93 1.85 8.98 6.57.05 4.85-4.91 6.18-8.95 7.36-7.6 2.23-7.62 2.18-7.62 10.04v54.51c6.35.25 12.49 2.09 17.23-4.29 2.95-3.97 6.72-7.34 10.53-11.42 7.73 6.37 14.97 12.14 21.89 18.26 1.12 1 1.71 4.21.96 5.32-.98 1.44-3.52 2.47-5.43 2.52-9.16.25-18.33.12-27.49.12-5.65 0-11.3 0-17.64 0 0 7.35-.12 14.44.13 21.52.04 1.09 1.68 2.29 2.8 3.16 11.85 9.21 23.81 18.42 32.22 31.04 3.7 5.55 6.49 11.99 8.33 18.42 2.41 8.43-2.05 14.8-9.04 14.96-4.11.09-6.66-1.75-7.76-5.57-1.06-3.66-1.87-7.39-2.89-11.06-4.19-15.06-13.22-27.24-23.46-40.02-.2 1.85-.36 2.6-.36 3.35.02 56.99-.04 113.98.18 170.96.04 10.78 1.19 21.57 1.86 32.35.23 3.72-.19 7.69-4.14 8.67-3.97.98-8.34.65-12.5.31-.96-.08-2.09-2.38-2.51-3.84-.44-1.54-.15-3.3-.15-4.97 0-58.49 0-116.98 0-175.46 0-1.82 0-3.64 0-5.46-13.81 33.8-30.5 65.99-49.98 96.97-1.09-.58-1.83-.91-2.5-1.36-.81-.54-1.56-1.19-2.65-2.04 12.41-23.81 22.8-48.38 31.21-73.78 8.41-25.38 13.85-51.45 18.8-78.65-12.35.57-24.12.94-35.87 1.76-3.09.21-4.57-.62-5.62-3.33-1.36-3.52-2.96-6.95-4.51-10.54 17.08 1.04 33.74 2.05 50.62 3.07 0-29.05 0-56.94 0-85.38z"/><path d="m239.55 27.68c9.42 5.6 18.53 11.63 25.37 20.46 5.4 6.97 5.49 12.12.27 19.31 1.25.18 2.28.46 3.31.46 23.16.03 46.32.09 69.47-.1 1.98-.02 4.31-1.29 5.84-2.67 2.69-2.43 4.89-5.4 7.68-8.59 7.19 5.38 14.41 10.39 21.15 15.98 3.88 3.22 3.06 7.65-1.65 8.02-12.66.97-19.01 10.46-26.89 18.03-1.55 1.48-2.86 3.2-4.11 4.62-4.28-1.61-4.91-4.01-3.66-7.66 1.93-5.61 3.43-11.37 5.18-17.3-53.94 0-107.36 0-160.42 0-1.72 7.2-2.99 14.2-5.11 20.94-2.26 7.18-6.12 13.43-14.19 15.43-4.25 1.06-8.43.89-11.18-3.16-2.92-4.3-1.48-8.23 1.73-11.73 1.24-1.35 2.45-2.82 3.97-3.78 12.53-7.97 14.95-20.82 16.64-34.05.42-3.27.81-6.53 1.24-9.94h6.16v15.71h75.49c-3.9-13.6-9.36-26.14-19.96-36.01.85-1.13 1.51-2.07 2.25-2.94.3-.35.78-.57 1.42-1.03z"/><path d="m203.49 93.69c11.28 3 21.62 5.28 31.62 8.59 5.45 1.8 5.38 6.67.19 9.49-2.86 1.55-6.12 2.54-9.32 3.2-2.95.61-3.65 2.06-3.61 4.81.13 9.16-.03 18.31.08 27.47.07 6.45 2.55 10.14 8.91 10.52 16.06.95 32.17 1.25 48.27 1.48 5.45.08 10.92-.71 16.35-1.38 6.62-.82 9.75-3.71 10.99-10.32 1.59-8.45 2.88-16.95 4.29-25.38 4.04-.04 5.55 1.57 5.15 5.49-.58 5.6-.67 11.26-.97 16.89-.27 5.1 2.48 8.31 6.47 10.99 5.59 3.76 5.72 7.95.29 12.14-6.19 4.78-13.69 6.05-21.15 6.28-19.95.61-39.91.89-59.87.95-6.44.02-12.95-.68-19.32-1.72-11.06-1.8-16.8-8.75-16.91-19.91-.13-12.82.03-25.64-.18-38.46-.1-6.45-.76-12.89-1.28-21.13z"/><path d="m333.18 119.22c1.04-1.17 2.01-2.25 3.72-4.17 8.75 7.75 17.55 15.07 25.74 23.01 4.58 4.43 7.5 10.19 7.41 16.95-.07 5.48-2.46 9.08-6.62 9.91-5.29 1.05-7.34-2.74-8.49-6.59-3.59-11.93-8.76-22.97-16.63-32.68-1.67-2.07-3.31-4.14-5.13-6.43z"/><path d="m178.12 116.21c1.11-.09 1.76-.18 2.4-.2.99-.03 1.98-.01 3.2-.01 0 8.19.61 16.28-.2 24.22-.61 5.96-2.47 11.98-4.82 17.52-2.33 5.48-6.99 8.61-13.44 8.46-7.46-.18-11-6.02-7.36-12.6.78-1.4 1.9-2.9 3.25-3.67 12.05-6.85 15.76-18.11 16.67-30.91.07-.81.18-1.62.3-2.81z"/><path d="m244.98 98.83c1.42-2.03 2.36-3.37 4-5.71 10.02 5.5 20.2 10.62 29.86 16.58 5.6 3.46 8.87 9.29 7.98 16.1-.34 2.6-2.63 5.67-4.93 7.11-2.92 1.83-5.78-.25-7.41-3.09-7.25-12.61-16.93-22.93-29.5-30.99z"/></g></svg>