<svg enable-background="new 0 0 400 400" viewBox="0 0 400 400" xmlns="http://www.w3.org/2000/svg"><path d="m385.2 377.6.6-.7c.6.4 1.3.9 1.9 1.5l-.6.7c-.8-.5-1.4-1-1.9-1.5zm.3 7.1c.6-1.4 1.1-2.9 1.5-4.5.3.1.6.3.9.4-.5 1.4-1 2.9-1.5 4.4zm.2-10.1.6-.6c.7.5 1.3 1.1 1.9 1.6l-.7.7c-.6-.6-1.2-1.2-1.8-1.7zm8.4-.8h.8v.9h1.8v.7h-1.8v1.8h-.8v-.3h-1.2v.9h3.3v2.6h-.8v-.4h-2.5c0 .3 0 .6-.1.8h3.4v.7h-3.5c0 .3-.1.6-.1.8h4v.7h-3.5c.7.9 1.9 1.3 3.6 1.5-.2.2-.4.5-.6.9-1.9-.3-3.2-1.1-3.8-2.3-.5 2.1-1.8 2-3.9 2.4-.2-.3-.4-.5-.6-.8 1.9-.4 3.1-.9 3.6-1.7h-3.2v-.7h3.5c.1-.2.1-.5.2-.8h-3.3v-.7h3.4c0-.2 0-.5 0-.8h-2.4v.3h-.8v-2.6h3.3v-.9h-1.2v.3h-.8v-1.8h-1.8v-.7h1.8v-.9h.8v.9h3.2zm-4.4 5.5h2.4c0-.3 0-.6 0-.9h-2.4zm1.2-3.1h3.2v-.8h-3.2zm4.4 2.2h-2.4v.9h2.5v-.9z" fill="#fafafb"/><path d="m389.2 385.8h.9v1.5h1.9v-1.5h.9v1.5h2.7v6h1.1v.9h-11.3v-.9h1.1v-6h2.7zm.2 8.7.5.8c-1.2.6-2.5 1.3-4 1.9-.2-.3-.3-.6-.6-.8 1.6-.6 3-1.3 4.1-1.9zm-2-4.3h1.9v-2.1h-1.9zm0 3.1h1.9v-2.2h-1.9zm2.7-3.1h1.9v-2.1h-1.9zm0 3.1h1.9v-2.2h-1.9zm2.4 1.3c1.4.6 2.7 1.2 4.1 1.8l-.5.9c-1.5-.7-2.8-1.4-4.1-1.9zm2.2-6.5h-1.9v2.1h1.9zm-1.9 5.2h1.9v-2.2h-1.9z" fill="#fafafb"/><g fill="#010100"><path d="m141.27 93.42c6.6 4.32 12.62 8.13 18.5 12.15 5.97 4.08 12.58 1.8 18.91 1.96.97.02 2.21-2.24 2.96-3.64 12.04-22.43 22.72-45.45 29.54-70.09.13-.46.46-.87.96-1.81 9.8 3.81 19.68 7.52 29.41 11.59 1.49.62 3.42 3.23 3.11 4.38-.43 1.64-2.66 2.9-4.3 4.07-.74.53-1.92.65-2.89.63-10.09-.17-15.17 5.64-19.81 14.04-7.7 13.92-16.94 27-25.77 40.81 1.28.1 2.65.31 4.02.31 38.33.02 76.66-.03 114.98.09 3.41.01 5.51-1.07 7.38-3.83 2.6-3.83 5.64-7.37 8.75-11.35 6.23 4.29 12.41 8.16 18.13 12.61 5.67 4.41 5.29 8.11-.61 12.18-.41.28-.78.72-1.23.84-8.31 2.15-8.3 8.3-8.28 15.34.2 65.32.12 130.65.12 195.97v7.17c6.14-5.55 11.35-10.26 17.28-15.62 6.66 6.82 13.43 13.42 19.77 20.4 3.44 3.79 2.37 6-2.76 6.82-2.28.37-4.63.52-6.94.53-77.82.05-155.64.04-233.47.13-5.31.01-10.62.79-15.93.91-1.37.03-3.48-.72-4.01-1.75-2.05-3.93-3.6-8.12-5.33-12.22 13.02 1.22 25.68 2.4 39.23 3.67 0-41.74.29-82.48-.08-123.22-.36-40.75 1.78-81.54-1.64-123.07zm135.33 24.75v220.39h41.02c0-73.7 0-147.03 0-220.39-13.84 0-27.3 0-41.02 0zm-17.96 220.62c0-73.79 0-147.17 0-220.54-13.8 0-27.24 0-40.81 0v220.54zm-58.09-.11c0-73.35 0-146.79 0-220.26-13.43 0-26.77 0-40.07 0v220.26z"/><path d="m32.2 336.05c32.09-35.46 57.51-74.99 81.3-115.6 6.59 2.69 6.62 2.79 3.73 8.82-17.61 36.76-37 72.55-58.32 107.31-1.36 2.21-1.38 5.5-1.3 8.27.1 3.61 1.31 7.2 1.33 10.8.02 3.68-2.95 5.2-6.23 3.49-1.6-.83-3.23-1.9-4.37-3.25-5.33-6.39-10.51-12.9-16.14-19.84z"/><path d="m28.47 134.22c1.48-5.13 3.8-6.08 8.47-3.86 14.87 7.05 29.82 13.96 42.53 24.64 6.15 5.17 11.83 10.89 11.92 19.82.04 4.23-.79 7.89-5.45 9.57-4.51 1.63-7.73-.31-10.64-3.34-1.14-1.19-2.23-2.51-3.02-3.95-9.53-17.45-24-29.94-40.41-40.5-1.09-.71-2.14-1.5-3.4-2.38z"/><path d="m55.79 46.45c1.26-1.91 2.41-3.67 3.85-5.86 18.46 8.98 37.28 17.01 50.98 33.05 4.04 4.73 6.61 10.22 5.34 16.45-.56 2.73-2.49 5.97-4.78 7.37-3.01 1.84-6.88 1.23-9.5-1.83-2.15-2.51-4.48-5.01-5.98-7.9-8.67-16.7-21.49-29.39-37.16-39.45-.84-.53-1.65-1.09-2.75-1.83z"/></g></svg>