<svg enable-background="new 0 0 400 400" viewBox="0 0 400 400" xmlns="http://www.w3.org/2000/svg"><path d="m385.2 377.6.6-.7c.6.4 1.3.9 1.9 1.5l-.6.7c-.8-.5-1.4-1-1.9-1.5zm.3 7.1c.6-1.4 1.1-2.9 1.5-4.5.3.1.6.3.9.4-.5 1.4-1 2.9-1.5 4.4zm.2-10.1.6-.6c.7.5 1.3 1.1 1.9 1.6l-.7.7c-.6-.6-1.2-1.2-1.8-1.7zm8.4-.8h.8v.9h1.8v.7h-1.8v1.8h-.8v-.3h-1.2v.9h3.3v2.6h-.8v-.4h-2.5c0 .3 0 .6-.1.8h3.4v.7h-3.5c0 .3-.1.6-.1.8h4v.7h-3.5c.7.9 1.9 1.3 3.6 1.5-.2.2-.4.5-.6.9-1.9-.3-3.2-1.1-3.8-2.3-.5 2.1-1.8 2-3.9 2.4-.2-.3-.4-.5-.6-.8 1.9-.4 3.1-.9 3.6-1.7h-3.2v-.7h3.5c.1-.2.1-.5.2-.8h-3.3v-.7h3.4c0-.2 0-.5 0-.8h-2.4v.3h-.8v-2.6h3.3v-.9h-1.2v.3h-.8v-1.8h-1.8v-.7h1.8v-.9h.8v.9h3.2zm-4.4 5.5h2.4c0-.3 0-.6 0-.9h-2.4zm1.2-3.1h3.2v-.8h-3.2zm4.4 2.2h-2.4v.9h2.5v-.9z" fill="#fafafb"/><path d="m389.2 385.8h.9v1.5h1.9v-1.5h.9v1.5h2.7v6h1.1v.9h-11.3v-.9h1.1v-6h2.7zm.2 8.7.5.8c-1.2.6-2.5 1.3-4 1.9-.2-.3-.3-.6-.6-.8 1.6-.6 3-1.3 4.1-1.9zm-2-4.3h1.9v-2.1h-1.9zm0 3.1h1.9v-2.2h-1.9zm2.7-3.1h1.9v-2.1h-1.9zm0 3.1h1.9v-2.2h-1.9zm2.4 1.3c1.4.6 2.7 1.2 4.1 1.8l-.5.9c-1.5-.7-2.8-1.4-4.1-1.9zm2.2-6.5h-1.9v2.1h1.9zm-1.9 5.2h1.9v-2.2h-1.9z" fill="#fafafb"/><g fill="#010100"><path d="m342.38 231.16c8.71 6.95 17.29 13.55 25.52 20.56 1.69 1.44 2.95 4.56 2.66 6.66-.16 1.19-3.9 2.66-6.03 2.67-36.99.16-73.99.21-110.98 0-4.42-.03-6.26 1.13-7.57 5.42-10.39 34.12-32.7 58.41-63.23 75.84-18.99 10.85-39.19 18.83-60.4 26.08-.85-2.24-1.64-4.32-2.55-6.71 7.82-3.54 15.55-6.86 23.12-10.51 20.79-10.01 40.46-21.71 56.72-38.44 13.21-13.59 22.72-29.44 28.84-47.34.42-1.21.57-2.51.95-4.24-4.18 0-7.99-.01-11.79 0-20.99.07-41.99.09-62.98.27-6.81.06-13.62.68-20.43.73-1.44.01-3.53-.98-4.2-2.15-2.14-3.71-3.75-7.72-5.91-12.36 35.97 6.59 71.55 2.84 108.34 4.15 1.47-20.93 2.9-41.34 4.37-62.4-5.25 0-9.21 0-13.18 0-12.5 0-25 .16-37.49-.09-3.92-.08-6.16 1.4-8.71 4.26-11.26 12.66-22.9 24.99-34.42 37.42-.77.83-1.78 1.45-3.1 2.5-1.48-1.65-2.86-3.2-4.5-5.03 21.42-25.37 36.41-54.08 46.64-86.29 8.95 3.29 17.63 6.33 26.16 9.77 1.29.52 2.65 2.94 2.52 4.35-.13 1.39-2.09 2.62-3.29 3.88-.21.22-.61.38-.92.36-12.97-.67-14.38 10.91-20.55 18.88 2.3.19 3.68.4 5.06.4 36.5.02 72.99.07 109.49-.11 2.28-.01 5.05-1.34 6.74-2.95 5.27-5.02 10.14-10.48 15.25-15.87 7.95 6.25 15.82 12.13 23.26 18.52 1.8 1.55 2.14 4.8 3.16 7.26-2.28.91-4.55 2.6-6.84 2.62-27 .18-53.99.12-80.99.12-1.97 0-3.93 0-6.14 0-1.72 20.75-3.4 41.04-5.14 61.96 1.54.07 3.12.21 4.7.21 22 .01 44 .11 65.99-.14 2.41-.03 5.38-1.49 7.08-3.26 5.14-5.36 9.81-11.22 14.77-17z"/><path d="m321.25 103.64c-11.65-10.32-23.3-20.63-35.15-31.13 1.1-1.61 2.28-3.34 3.87-5.67 5.96 3.61 11.83 6.94 17.48 10.62 16.34 10.62 32.84 21.14 45.63 36.12 3.65 4.27 6.17 9.77 8.21 15.09 1.91 4.99-.22 9.96-3.92 11.7-4.75 2.23-8.58.15-11.32-3.54-4.85-6.53-9.34-13.33-13.88-20.07-2.34-3.48-4.86-4.6-9.49-3.9-30.86 4.67-61.78 9.06-92.74 13.05-19.28 2.48-38.65 4.19-58.01 6.02-2.76.26-3.75 1.35-4.27 3.73-.42 1.94-.74 4.04-1.74 5.67-1.28 2.09-3.21 3.78-4.86 5.64-1.7-1.86-3.99-3.45-4.99-5.63-2.12-4.66-3.56-9.64-5.3-14.48-1.23-3.43-2.49-6.84-3.52-9.67 34.69-19.06 57.93-48.52 77.55-81.45.85-1.43 1.59-2.91 2.4-4.36.07-.13.26-.2 1.25-.92 8.57 4.18 17.67 8.45 26.56 13.14 1.21.64 2.03 3.5 1.72 5.08-.26 1.32-2.27 2.83-3.78 3.27-2.52.72-5.3 1.06-7.9.82-5.49-.51-8.84 2.33-12.09 6.2-17.24 20.54-37.29 37.98-59.39 53.1-.8.55-1.58 1.15-2.37 1.72.07.48.15.95.22 1.43 49.72-3.16 99.44-6.31 149.16-9.47.22-.73.45-1.42.67-2.11z"/><path d="m32.59 336.47c31.59-35.29 56.56-74.74 80.1-115.98 1.95 1.24 3.82 2.43 6.1 3.88-4.09 9.68-7.53 19.41-12.17 28.53-14.37 28.31-29.1 56.44-43.92 84.53-2.31 4.37-4.45 8.46-3.58 13.56.25 1.46.34 3.08-.05 4.47-.64 2.27-1.73 4.41-2.63 6.6-2.12-1.01-4.88-1.48-6.24-3.12-6.04-7.24-11.69-14.84-17.61-22.47z"/><path d="m263.32 285.56c1.19-1.78 2.11-3.13 3.52-5.23 10.81 5.86 21.77 11.32 32.24 17.58 20.89 12.48 41.03 26.04 57.17 44.62 4.72 5.43 8.74 11.38 8.01 19.22-.64 6.87-5.52 10.17-11.86 7.38-2.77-1.22-5.76-3.2-7.33-5.67-19.83-31.12-47.8-53.72-77.46-74.59-1.35-.96-2.62-2.02-4.29-3.31z"/><path d="m30.61 134.45c1-1.64 1.76-2.9 2.53-4.15.35-.57.71-1.13 1.12-1.79 18.27 7.09 36.02 14.03 51.01 26.3 6.27 5.13 11.68 11.01 12.06 19.77.17 3.95-.31 7.93-4.47 9.75-4.28 1.87-8.54 1.18-12.11-1.88-1.6-1.38-3.01-3.15-4.04-5-9.26-16.63-23.49-28.15-39.05-38.33-2.2-1.45-4.4-2.92-7.05-4.67z"/><path d="m53.4 43.72c1.26-2.03 2.29-3.7 3.62-5.86 18.77 7.25 37.67 14.02 52.18 28.79 4.52 4.6 7.84 10.24 6.78 16.96-.46 2.91-2.34 7.12-4.54 7.86-2.91.98-7.11-.21-10.12-1.72-2.27-1.14-3.86-4.08-5.21-6.52-8.97-16.32-22.93-27.33-38.5-36.68-1.38-.83-2.68-1.8-4.21-2.83z"/></g></svg>