<svg enable-background="new 0 0 400 400" viewBox="0 0 400 400" xmlns="http://www.w3.org/2000/svg"><path d="m385.2 377.6.6-.7c.6.4 1.3.9 1.9 1.5l-.6.7c-.8-.5-1.4-1-1.9-1.5zm.3 7.1c.6-1.4 1.1-2.9 1.5-4.5.3.1.6.3.9.4-.5 1.4-1 2.9-1.5 4.4zm.2-10.1.6-.6c.7.5 1.3 1.1 1.9 1.6l-.7.7c-.6-.6-1.2-1.2-1.8-1.7zm8.4-.8h.8v.9h1.8v.7h-1.8v1.8h-.8v-.3h-1.2v.9h3.3v2.6h-.8v-.4h-2.5c0 .3 0 .6-.1.8h3.4v.7h-3.5c0 .3-.1.6-.1.8h4v.7h-3.5c.7.9 1.9 1.3 3.6 1.5-.2.2-.4.5-.6.9-1.9-.3-3.2-1.1-3.8-2.3-.5 2.1-1.8 2-3.9 2.4-.2-.3-.4-.5-.6-.8 1.9-.4 3.1-.9 3.6-1.7h-3.2v-.7h3.5c.1-.2.1-.5.2-.8h-3.3v-.7h3.4c0-.2 0-.5 0-.8h-2.4v.3h-.8v-2.6h3.3v-.9h-1.2v.3h-.8v-1.8h-1.8v-.7h1.8v-.9h.8v.9h3.2zm-4.4 5.5h2.4c0-.3 0-.6 0-.9h-2.4zm1.2-3.1h3.2v-.8h-3.2zm4.4 2.2h-2.4v.9h2.5v-.9z" fill="#fafafb"/><path d="m389.2 385.8h.9v1.5h1.9v-1.5h.9v1.5h2.7v6h1.1v.9h-11.3v-.9h1.1v-6h2.7zm.2 8.7.5.8c-1.2.6-2.5 1.3-4 1.9-.2-.3-.3-.6-.6-.8 1.6-.6 3-1.3 4.1-1.9zm-2-4.3h1.9v-2.1h-1.9zm0 3.1h1.9v-2.2h-1.9zm2.7-3.1h1.9v-2.1h-1.9zm0 3.1h1.9v-2.2h-1.9zm2.4 1.3c1.4.6 2.7 1.2 4.1 1.8l-.5.9c-1.5-.7-2.8-1.4-4.1-1.9zm2.2-6.5h-1.9v2.1h1.9zm-1.9 5.2h1.9v-2.2h-1.9z" fill="#fafafb"/><g fill="#010100"><path d="m340.93 349.2c-63.44 0-126.05 0-189.52 0 0 3.37-.13 6.62.03 9.86.21 4.33-.22 8.06-5.55 8.93-6.11.99-11.44-1.59-12.93-6.65-.64-2.19-.94-4.56-.91-6.85.55-42.93 1.24-85.85 1.69-128.78.06-6.09-1.02-12.2-1.66-19.32 5.68 3.89 10.64 7.63 15.95 10.78 2.54 1.51 5.74 2.7 8.64 2.71 58.96.15 117.93.08 176.89.2 3.72.01 6.13-.81 8.04-4.23 2.25-4.04 5.22-7.69 8.26-12.06 6.67 5.24 13.45 10.05 19.6 15.57 4.74 4.26 4.22 9.29-1.61 11.45-8.84 3.28-10.1 9.06-9.87 17.53.65 24.47.19 48.96.5 73.44.15 11.63 1.16 23.24 1.55 34.86.22 6.65-2.62 9.96-8.9 11.19-7.23 1.42-10.18-.99-10.18-8.31-.02-3.28-.02-6.58-.02-10.32zm-189.19-10.59h188.87c0-16.63 0-32.88 0-49.33-63.06 0-125.8 0-188.87 0zm-.08-60.02h188.85c0-16.31 0-32.21 0-48.05-63.15 0-125.87 0-188.85 0z"/><path d="m148.25 34.84c5.87 3.72 12.34 8 19 11.94 2.02 1.19 4.58 2.06 6.89 2.06 46.97.12 93.95.13 140.92-.04 2.05-.01 4.66-1.41 6.04-3 3.38-3.86 6.19-8.22 9.55-12.82 6.6 5.04 13.27 9.71 19.43 14.97 5.2 4.44 4.88 9.67-1.44 12.15-8.7 3.4-9.74 9.17-9.43 17.36.62 16.3-.02 32.64.24 48.96.26 15.79 1.12 31.57 1.49 47.36.22 9.34-6.95 14.37-15.64 11.02-1.24-.48-2.39-2.59-2.59-4.08-.41-2.92-.12-5.93-.12-9.28-51.82 0-103.19 0-155.44 0 0 2.77-.06 5.68.02 8.59.09 3.08-1.5 4.68-4.38 5-2.14.23-4.32.31-6.47.14-6.16-.47-8.48-3.27-8.35-9.34.65-31.27 1.5-62.55 1.73-93.82.13-15.73-.92-31.47-1.45-47.17zm174.11 79.89c-51.92 0-103.28 0-154.72 0v46.69h154.72c0-15.66 0-30.92 0-46.69zm-.11-55.35c-51.75 0-103.16 0-154.65 0v45.24h154.65c0-15.31 0-30.23 0-45.24z"/><path d="m32.32 335.44c15.19-19.54 30.58-38.13 44.6-57.69 14.02-19.57 26.67-40.12 40.09-60.48 1.27.73 2.97 1.7 5.26 3.02-3.19 7.26-6.24 14.53-9.54 21.69-15.23 33.1-32.84 64.91-52.23 95.76-1.6 2.55-1.91 6.04-2.36 9.16-.4 2.78.18 5.71-.35 8.44-.33 1.7-1.61 3.87-3.05 4.5-1.08.47-3.43-.8-4.62-1.93-2.27-2.16-4.19-4.71-6.13-7.2-4.15-5.35-8.24-10.77-11.67-15.27z"/><path d="m29.65 134.64c1.81-5.44 4.36-6.05 9.19-4 15.18 6.44 30.38 12.75 43.38 23.14 6.55 5.24 12.59 11.04 13.13 20.24.26 4.32-.18 8.46-4.82 10.54-4.13 1.85-9.71.23-13.01-3.7-.96-1.14-1.94-2.32-2.64-3.62-9.48-17.62-24.79-29.23-41.03-39.88-1.37-.89-2.75-1.78-4.2-2.72z"/><path d="m51.73 43.82c1.55-2.32 2.74-4.09 3.99-5.96 17.79 6.59 35.3 12.91 50.15 24.64 5.29 4.18 9.79 8.99 11.57 15.81 1.48 5.66.09 10.68-3.77 12.84-4.5 2.52-10.81 1.27-14.36-3.35-4.05-5.26-7.44-11.04-11.59-16.21-8.57-10.67-19.77-18.17-31.4-25.08-1.4-.82-2.82-1.64-4.59-2.69z"/></g></svg>