<svg enable-background="new 0 0 400 400" viewBox="0 0 400 400" xmlns="http://www.w3.org/2000/svg"><g fill="#010100"><path d="m153.54 371.77c-1.76-1.19-3.4-2.29-5.32-3.59 2.62-4.61 5.22-9.01 7.65-13.49 9.87-18.16 14.76-37.66 15.07-58.26.63-42.95 1.17-85.9 1.6-128.85.09-8.64-.49-17.29-.75-25.93-.03-1.1 0-2.19 0-4.33 5.98 3.97 11.06 7.62 16.42 10.79 2.29 1.35 5.18 2.31 7.82 2.37 11.32.26 22.66-.06 33.99.2 4.09.1 6.9-1.04 9.23-4.44 2.05-3 4.7-5.58 7.68-9.04 6.12 4.63 12.31 9.02 18.14 13.83 3.36 2.77 2.48 5.82-.88 8.24-.14.1-.26.23-.41.28-7.92 2.42-7.84 8.48-7.81 15.33.21 54.49.13 108.97.12 163.46 0 17.27-7.44 25.7-25.29 28.34-.32-19.5-16.86-18.13-29.42-22.65.12-.91.25-1.98.39-3.04.13-.98.29-1.96.51-3.51 6.88 1.3 13.63 2.65 20.41 3.83 2.44.42 4.96.51 7.44.6 4.12.14 6.52-2.23 7.65-5.89.63-2.04 1-4.24 1.01-6.37.08-16.16.05-32.33.03-48.49 0-.81-.14-1.61-.24-2.75-16.08 0-31.99 0-48.37 0-1.02 9.24-2.09 18.59-3.08 27.93-2.64 24.8-13.13 45.75-30.85 63.17-.83.81-1.78 1.47-2.74 2.26zm84.94-104.05c0-16.65 0-32.71 0-49-16.26 0-32.17 0-48.09 0v49zm.2-107.31c-16.49 0-32.51 0-48.41 0v47.17h48.41c0-15.87 0-31.32 0-47.17z"/><path d="m76.66 175.64c-10.64 0-20.95-.45-31.19.14-8.21.47-8.19 1.04-11.54-6.22-1.23-2.66-2.39-5.34-3.46-7.74 15.39 1.1 30.55 2.19 46.12 3.3 0-28.42 0-55.81-.01-83.2-15.04 0-30.08 0-45.7 0-1.68-3.95-3.69-8.65-6.04-14.17 5.7.79 10.79 1.8 15.92 2.13 9.12.59 18.27.96 27.42 1.07 14.49.17 28.99-.06 43.49.12 3.62.04 6.09-.93 8.6-3.72 4.32-4.81 9.29-9.03 14.51-14 7.3 6.57 15.12 13.44 22.68 20.59.99.94 1.45 3.78.76 4.81-.87 1.3-3.16 2.3-4.84 2.32-17.66.16-35.32.1-52.98.1-1.82 0-3.64 0-5.89 0v83.39c5.2 0 10.34.17 15.45-.11 1.42-.08 2.98-1.31 4.11-2.39 5.14-4.97 10.16-10.07 15.61-15.52 7.73 6.88 15.49 13.6 22.96 20.63 1.12 1.06 1.72 3.94 1.08 5.25-.66 1.34-3.13 2.47-4.83 2.51-10.99.23-21.99.13-32.99.13-6.99 0-13.98 0-21.4 0v95.84c18.41-6.5 36.56-12.9 55.02-19.41.79 1.5 1.69 3.23 2.96 5.65-4.5 2.53-8.87 5.13-13.36 7.48-27.29 14.3-55.82 25.7-85.01 35.41-4.39 1.46-6.81 3.51-7.14 8.1-.09 1.29-.62 2.59-1.13 3.81-1.72 4.1-4.69 4.68-6.87.93-4.97-8.58-9.5-17.43-14.1-25.98 16.24-3.42 31.96-6.73 47.67-10.02 2.53-.53 4.5-1.04 4.49-4.58-.15-31.66-.1-63.31-.11-94.97-.02-.49-.16-.97-.26-1.68z"/><path d="m322.32 370.99c-.78-2.56-1.42-4.78-2.12-6.99-1.9-5.98-5.78-10.1-11.87-11.75-7.66-2.08-15.39-3.9-23.55-5.95.4-2.27.83-4.64 1.32-7.42 7.97 1.16 15.63 2.29 23.3 3.37 3.94.55 7.89 1.15 11.86 1.46 7.52.59 11.67-3.23 11.67-10.81-.01-59.98-.03-119.96-.13-179.94-.01-5.6-.56-11.19-.9-17.58 10.19 2.61 19.72 4.81 29.06 7.64 2.32.7 4.02 3.46 6.01 5.27-2.08 2.17-4.16 4.35-6.25 6.52-.1.11-.31.12-.46.17-3.28 1.04-8.12 1.14-9.45 3.36-1.71 2.85-.71 7.39-.71 11.2-.02 56.81-.01 113.63-.02 170.44-.02 17.38-10.04 28.68-27.76 31.01z"/><path d="m285.59 152.14c7.52 1.76 15.43 3.57 23.3 5.49 1.92.47 3.97.99 5.55 2.08 1.77 1.22 4.53 3.41 4.28 4.64-.45 2.16-2.52 4.52-4.55 5.7-2.65 1.54-6.05 1.74-8.86 3.08-1.36.64-3 2.56-3.01 3.91-.08 38.63-.01 77.26.16 115.9.03 6.14.77 12.28.91 18.42.15 6.89-2.72 9.67-9.54 9.72-6.2.04-8.2-2.23-8.22-9.68-.04-16.82-.01-33.64-.01-50.46 0-23.81 0-47.63 0-71.44-.01-12.3-.01-24.59-.01-37.36z"/><path d="m351.3 79.02c7.29 5.95 14.54 11.78 21.67 17.76 1.22 1.02 2.3 2.55 2.76 4.06.9 2.92.47 5.4-3.51 5.33-1.33-.03-2.67.01-4 .01-57.33 0-114.65-.06-171.98.08-7.62.02-15.24 1.01-22.84 1.73-2.8.26-4.6-.17-5.64-3.2-1.32-3.85-3.22-7.51-4.88-11.26 41.91 4.75 83.55 1.61 125.11 2.44 13.83.27 27.67.21 41.49-.1 2.62-.06 5.64-1.5 7.69-3.24 4.81-4.1 9.14-8.74 14.13-13.61z"/><path d="m285.27 90.81c-2.46-2.56-3.71-3.87-5.4-5.63 12.66-15.35 21.14-32.92 28.22-51.74 8.85 3.88 17.22 7.39 25.42 11.28 1.52.72 3.5 3.23 3.2 4.37-.42 1.62-2.75 2.76-4.3 4.06-.23.19-.64.23-.96.22-10.27-.46-15.76 5.86-21.69 13.29-6.95 8.71-15.9 15.84-24.49 24.15z"/><path d="m194.12 39.35c.74-1.46 1.4-2.77 2.31-4.55 15.35 8.56 30.56 16.9 41.39 31.15 3.44 4.52 5.57 9.75 4.11 15.34-.68 2.62-3.05 5.3-5.38 6.87-3.04 2.05-6.47 1.01-9-1.68-1.35-1.43-2.78-3.03-3.42-4.82-6.01-16.89-16.77-30.4-30.01-42.31z"/></g><path d="m361.2 9.6.8-1c.9.7 1.9 1.4 2.9 2.3l-.9 1.1c-1-1-2-1.8-2.8-2.4zm.5 10.6c.9-2.1 1.6-4.3 2.3-6.7.4.2.8.4 1.3.6-.7 2.1-1.5 4.3-2.2 6.6zm.4-15.2.9-.9c1 .8 2 1.6 2.8 2.4l-1 1c-.9-.9-1.8-1.7-2.7-2.5zm12.5-1.2h1.2v1.4h2.7v1.1h-2.7v2.7h-1.2v-.6h-1.8v1.3h4.9v3.8h-1.2v-.5h-3.7c0 .4-.1.9-.1 1.2h5.1v1h-5.2c0 .5-.1.9-.2 1.2h6v1h-5.2c1.1 1.3 2.9 2 5.5 2.2-.4.4-.7.8-.9 1.3-2.9-.5-4.8-1.6-5.7-3.5h-.1c-.8 1.7-2.7 2.9-5.9 3.6-.2-.4-.6-.8-.9-1.1 2.8-.6 4.6-1.4 5.4-2.5h-4.8v-1h5.3c.1-.3.2-.7.2-1.2h-4.9v-1h5c0-.4 0-.8.1-1.2h-3.5v.5h-1.2v-3.8h4.9v-1.3h-1.8v.5h-1.2v-2.7h-2.7v-1h2.6v-1.4h1.2v1.4h4.7v-1.4zm-6.6 8.3h3.6c0-.4 0-.9 0-1.4h-3.6zm1.9-4.6h4.7v-1.3h-4.7zm6.6 3.2h-3.7v1.4h3.7z" fill="#fbfafc"/><path d="m385.3 3.8h1.3v2.2h2.8v-2.2h1.3v2.2h4.1v9.1h1.7v1.3h-16.9v-1.3h1.7v-9.1h4.1v-2.2zm.4 13.1.7 1.2c-1.8.9-3.8 1.9-6 2.9-.2-.4-.5-.8-.8-1.3 2.3-1 4.3-1.9 6.1-2.8zm-3.1-6.4h2.8v-3.2h-2.8zm0 4.6h2.8v-3.3h-2.8zm4-4.6h2.8v-3.2h-2.8zm0 4.6h2.8v-3.3h-2.8zm3.7 1.9c2.1.9 4.1 1.8 6.1 2.7l-.7 1.3c-2.2-1.1-4.2-2-6.1-2.9zm3.2-9.7h-2.8v3.2h2.8zm-2.8 7.8h2.8v-3.3h-2.8z" fill="#fbfafc"/></svg>