<svg enable-background="new 0 0 400 400" viewBox="0 0 400 400" xmlns="http://www.w3.org/2000/svg"><path d="m374.8 390.4.4-.4c.7.5 1.3 1 1.8 1.4l-.5.5c-.5-.6-1.1-1.1-1.7-1.5zm1 7.3-.6-.3c.5-1.4 1.1-2.8 1.5-4.3.2.1.4.2.6.3-.5 1.3-1 2.8-1.5 4.3zm-.4-10.3.4-.4c.4.3 1 .8 1.7 1.4l-.5.5c-.4-.5-1-1-1.6-1.5zm2.5.3h1.7v-1h.6v1h3.5v-1h.6v1h1.8v.5h-1.8v1.4h-2v1h3.2v2h-3.2v.9h3.3v.5h-3.4c0 .3-.1.6-.1.9h4v.5h-3.7c.7.9 1.9 1.5 3.8 1.7-.1.2-.2.4-.3.6-2.1-.4-3.5-1.1-4-2.1-.4 1-1.8 1.7-4 2.2-.1-.2-.2-.4-.3-.6 2.1-.4 3.4-1 3.8-1.8h-3.4v-.5h3.6c.1-.3.1-.6.2-.9h-3.3v-.5h3.4c0-.3 0-.6 0-.9h-3.2v-2h3.3v-1h-2.1v-1.4h-1.7v-.5zm1.1 3.5v1h2.7c0-.3 0-.4 0-.4 0-.1 0-.2 0-.2 0-.1 0-.2 0-.3h-2.7zm1.2-3v.9h3.5v-.9zm4.7 3h-2.6v.6.4h2.6z" fill="#fafafb"/><path d="m393.6 386.7h.6v1.5h2.7v6.1h1.1v.6h-11v-.6h1.1v-6.1h2.7v-1.5h.6v1.5h2.1v-1.5zm-2.7 8.8.4.6c-1.2.6-2.5 1.3-3.8 1.9-.1-.2-.2-.4-.3-.6 1.2-.6 2.5-1.2 3.7-1.9zm-2.2-6.7v2.4h2.1v-2.4zm0 3v2.5h2.1v-2.5zm2.8-3v2.4h2.1v-2.4zm0 3v2.5h2.1v-2.5zm6 6.1c-1.4-.7-2.7-1.3-3.9-1.8l.3-.6c1.5.6 2.7 1.2 3.9 1.7zm-1.2-9.1h-2.1v2.4h2.1zm-2.1 3v2.5h2.2v-2.5z" fill="#fafafb"/><g fill="#010100"><path d="m34 61.73c1.47.76 2.29 1 2.87 1.52 8.57 7.75 18.64 9.34 29.94 8.95 20.47-.69 40.98-.28 61.47-.11 3.52.03 5.93-.97 8.06-3.7 2.64-3.38 5.63-6.48 8.83-10.11 6.35 4.35 12.7 8.28 18.57 12.84 4.98 3.87 4.52 7.39-.66 11.23-.27.2-.52.48-.82.57-8.87 2.64-9.06 9.25-9.01 17.09.31 48.81-.11 97.63.29 146.45.16 19.93 1.72 39.86 2.71 59.78.19 3.83.31 8.26-4.14 8.97-4.3.68-8.98-.28-13.33-1.24-.98-.22-1.73-3.36-1.86-5.21-.28-3.94-.09-7.92-.09-12.23-28.88 0-57.27 0-86.42 0 0 3.15.03 6.26-.01 9.37-.08 7.37-3.09 10.28-10.39 10.1-6.45-.15-8.66-3.09-8.38-10.72.83-22.44 2.13-44.87 2.26-67.32.33-56.48.11-112.97.11-169.45 0-1.99 0-3.98 0-6.78zm102.45 224.13c0-33.2 0-65.89 0-98.54-11.96 0-23.53 0-35.1 0v98.54zm-35.08-203.47v94.17h35.04c0-31.6 0-62.82 0-94.17-11.86 0-23.3 0-35.04 0zm-50.66 203.36h32.81c0-32.93 0-65.62 0-98.52-11.05 0-21.79 0-32.81 0zm-.05-109.16h32.78c0-31.56 0-62.78 0-94.04-11.1 0-21.82 0-32.78 0z"/><path d="m343.07 169.29c-40.73-24.94-69.18-60.4-92.12-101.5-21.61 42.49-49.62 78.33-90.69 103.32-1.17-1.66-2.35-3.35-3.53-5.02 42.05-37.59 74.8-80.79 88.29-136.84 7.13 1.74 14.94 3.29 22.48 5.68 2.53.8 5.76 3.47 6.24 5.79.84 4.05-3.46 5.03-6.52 6.2-1.53.59-3.23.74-4.86 1.09-5.08 1.09-8.39 8.17-5.7 12.6 21.07 34.72 48.18 63.19 85.13 81.21 7.58 3.7 15.57 6.65 23.54 9.47 3.45 1.22 4.56 2.84 3.37 6.69-9.95.1-19.21 2.66-25.63 11.31z"/><path d="m138.76 370.55c-.65-1.97-1.21-3.65-1.88-5.7 10.64-3.36 21.02-6.61 31.38-9.92 48.98-15.64 94.98-37.13 134.8-70.25 10.84-9.01 20.71-19.19 31.58-29.34 7.52 5.51 15.84 11.26 23.73 17.55 3.92 3.13 2.76 6.81-2.2 7.49-3.53.48-7.24-.51-10.82-.21-2.62.22-5.69.8-7.65 2.37-57.01 45.68-122.62 72.27-193.41 87.4-1.61.35-3.28.37-5.53.61z"/><path d="m176.51 288.97c-.37-.8-.83-1.66-1.18-2.56-.35-.92-.58-1.88-.96-3.13 50-21.37 95.71-48.38 126.63-95.81 8.24 6.1 16.29 11.91 24.11 18.01 1.31 1.02 2.71 3.92 2.17 4.85-.87 1.49-3.29 2.13-5.12 2.99-.55.26-1.36.22-1.97.04-9.2-2.64-15.32 1.9-21.63 8.02-32.59 31.62-72.24 51.08-114.71 65.51-2.05.7-4.09 1.39-6.15 2.06-.29.1-.64.02-1.19.02z"/><path d="m177.58 218.21c-3.09-4.45-1.84-6.43 2.54-8.5 32.87-15.49 60.32-37.5 80.44-68.1 1.54-2.35 2.84-4.85 4.62-7.9 8.28 5.37 16.48 10.56 24.49 16.04 1.24.85 2.42 3.21 2.11 4.51-.32 1.34-2.38 2.46-3.91 3.23-1.11.56-2.63.69-3.9.5-7.06-1.07-12.19 1.71-16.99 6.86-23.95 25.73-53.81 41.88-86.88 52.62-.77.28-1.57.48-2.52.74z"/></g></svg>