<svg enable-background="new 0 0 400 400" viewBox="0 0 400 400" xmlns="http://www.w3.org/2000/svg"><path d="m374.8 390.4.4-.4c.7.5 1.3 1 1.8 1.4l-.5.5c-.5-.6-1.1-1.1-1.7-1.5zm1 7.3-.6-.3c.5-1.4 1.1-2.8 1.5-4.3.2.1.4.2.6.3-.5 1.3-1 2.8-1.5 4.3zm-.4-10.3.4-.4c.4.3 1 .8 1.7 1.4l-.5.5c-.4-.5-1-1-1.6-1.5zm2.5.3h1.7v-1h.6v1h3.5v-1h.6v1h1.8v.5h-1.8v1.4h-2v1h3.2v2h-3.2v.9h3.3v.5h-3.4c0 .3-.1.6-.1.9h4v.5h-3.7c.7.9 1.9 1.5 3.8 1.7-.1.2-.2.4-.3.6-2.1-.4-3.5-1.1-4-2.1-.4 1-1.8 1.7-4 2.2-.1-.2-.2-.4-.3-.6 2.1-.4 3.4-1 3.8-1.8h-3.4v-.5h3.6c.1-.3.1-.6.2-.9h-3.3v-.5h3.4c0-.3 0-.6 0-.9h-3.2v-2h3.3v-1h-2.1v-1.4h-1.7v-.5zm1.1 3.5v1h2.7c0-.3 0-.4 0-.4 0-.1 0-.2 0-.2 0-.1 0-.2 0-.3h-2.7zm1.2-3v.9h3.5v-.9zm4.7 3h-2.6v.6.4h2.6z" fill="#fafafb"/><path d="m393.6 386.7h.6v1.5h2.7v6.1h1.1v.6h-11v-.6h1.1v-6.1h2.7v-1.5h.6v1.5h2.1v-1.5zm-2.7 8.8.4.6c-1.2.6-2.5 1.3-3.8 1.9-.1-.2-.2-.4-.3-.6 1.2-.6 2.5-1.2 3.7-1.9zm-2.2-6.7v2.4h2.1v-2.4zm0 3v2.5h2.1v-2.5zm2.8-3v2.4h2.1v-2.4zm0 3v2.5h2.1v-2.5zm6 6.1c-1.4-.7-2.7-1.3-3.9-1.8l.3-.6c1.5.6 2.7 1.2 3.9 1.7zm-1.2-9.1h-2.1v2.4h2.1zm-2.1 3v2.5h2.2v-2.5z" fill="#fafafb"/><g fill="#010100"><path d="m115.88 324.69c-21.32 0-41.92 0-63.47 0 0 2.61.02 5.18 0 7.76-.06 8.15-2.58 10.8-10.18 10.73-6.4-.06-8.62-2.63-8.25-10.66 3.79-83.92 1.05-167.88 1.77-251.82.07-8.42-1.09-16.86-1.77-26.49 5.08 4 9.69 7.36 13.98 11.08 3.06 2.65 6.19 3.81 10.34 3.75 16.49-.24 32.99-.18 49.49-.03 3.28.03 5.64-.77 7.69-3.42 2.74-3.54 5.85-6.79 9.25-10.67 7.03 4.85 14.13 9.42 20.83 14.51 3.86 2.93 3.33 6.56-.71 9.36-1.09.75-2.25 1.61-3.5 1.89-8.08 1.82-9.13 7.15-9.09 14.63.31 57.65-.05 115.31.29 172.96.12 20.93 1.49 41.86 2.5 62.78.46 9.49-6.03 14.9-15.09 11.65-1.77-.64-3.57-3.42-3.89-5.44-.63-3.92-.19-7.98-.19-12.57zm-.29-84.24c-21.3 0-42.02 0-62.77 0v73.98h62.77c0-24.83 0-49.26 0-73.98zm-62.9-10.82h62.81c0-23.62 0-46.86 0-70.27-21.06 0-41.8 0-62.81 0zm.06-80.92h62.65c0-23.32 0-46.36 0-69.45-21.05 0-41.68 0-62.65 0z"/><path d="m256.22 136.86v35.73c10.66 0 21.14-.36 31.57.13 6.36.3 11.02-1.36 15.09-6.4 3.42-4.24 7.85-7.66 12.19-11.78 7.06 6.26 14.59 12.74 21.83 19.53 1.31 1.23 2.36 4.07 1.83 5.55-.47 1.3-3.33 2.44-5.14 2.45-23.83.16-47.65.11-71.48.11-1.8 0-3.61 0-5.76 0v40.53c1.56.08 3.17.22 4.77.22 19.66.02 39.32.12 58.98-.13 2.44-.03 5.32-1.43 7.2-3.09 5.21-4.63 9.99-9.73 15.18-14.88 7.2 6.43 14.5 12.7 21.46 19.34 1.52 1.45 2.97 4.68 2.33 6.2-.63 1.49-3.95 2.6-6.09 2.6-60.81.13-121.63.05-182.44.17-9.77.02-19.55.84-29.94 1.32-1.93-4.26-4.09-9.03-6.61-14.59 32.77 5.33 64.88 2.12 97.27 3.24 0-13.75 0-26.97 0-40.65-1.66-.09-3.27-.28-4.87-.26-17.47.28-34.95.57-52.42.93-3.63.07-8.85 2.03-10.53.34-3.29-3.32-4.59-8.6-6.58-12.78 24.76.87 49.36 1.73 74.38 2.6 0-11.85 0-22.54 0-33.21-24.73 1.93-49.3 3.85-74.3 5.81-.19-3.24-.31-5.31-.4-7.02 25.16-3.82 49.91-7.58 74.64-11.33 0-12.65 0-24.39 0-37.31 10.13 2.82 20.12 5.43 29.98 8.5 1.61.5 3.71 3.1 3.58 4.56-.16 1.87-1.97 4.31-3.73 5.18-3.67 1.82-7.77 2.76-11.96 4.16v10.55c17.6-4.86 34.64-10.26 49.7-21.79 6.61 5.88 13.33 11.52 19.55 17.67 1.39 1.38 1.76 4.75 1.17 6.8-.33 1.14-4.05 2.55-5.44 1.96-14.47-6.12-27.64 1.53-41.26 3.66-7.98 1.24-15.8 3.54-23.75 5.38z"/><path d="m188.03 355c0 4.08.15 7.41-.04 10.71-.27 4.83-2.98 6.72-9.14 6.68-6.12-.04-9.22-2.01-9.14-6.7.11-7.64 1.12-15.27 1.17-22.9.18-25.98.1-51.96.12-77.94 0-1.81 0-3.61 0-6.32 5.95 3.19 11.19 6.31 16.7 8.82 3.05 1.39 6.56 2.46 9.87 2.47 34.97.17 69.95.01 104.92.22 4.5.03 7.5-1.28 10-4.85 1.88-2.69 4.2-5.09 6.75-8.12 5.95 4.33 11.93 8.22 17.35 12.77 4.44 3.72 4.15 7.29-1 9.67-6.53 3.01-7.81 7.55-7.56 14.21.52 13.8.31 27.64.06 41.46-.07 3.79 1.07 6.1 4.21 8.17 3.16 2.08 8.21 3.89 6.73 8.73-1.46 4.77-6.52 2.84-10.06 2.85-44.8.11-89.6.07-134.4.07-1.97 0-3.94 0-6.54 0zm.29-10.43h122.31c0-21.59 0-42.82 0-64.09-40.93 0-81.49 0-122.31 0z"/><path d="m229.96 24.97c8.83 7.46 17.47 13.57 24.61 21.1 9.99 10.54 10.77 17.09 4.52 28.75h5.55c21.49 0 42.98-.11 64.47.09 4.64.04 8.33-.66 11.1-4.79 1.73-2.59 4.16-4.71 6.45-7.23 6.21 4.91 12.51 9.56 18.36 14.72 1.89 1.67 3.67 4.75 3.49 7.02-.11 1.4-3.93 3.25-6.27 3.58-6.33.89-10.78 3.87-14.53 9.07-3.78 5.23-8.46 9.83-12.97 14.49-1.48 1.52-2.51 4.69-5.97 2.56-3.45-2.13-1.07-4.38-.4-6.45 2.47-7.52 5.15-14.98 7.95-23.06-54.27 0-107.77 0-160.94 0-1.42 6.68-2.24 13.3-4.35 19.48-1.57 4.58-4.42 8.89-7.42 12.77-2.97 3.85-7.54 5.83-12.42 4.94-2.81-.52-6.17-1.97-7.8-4.12-2.33-3.09-1.64-7.1 1.18-10.05 2.29-2.39 4.96-4.42 7.51-6.55 9.34-7.81 14.12-17.85 14.83-29.93.2-3.31.53-6.61.83-10.33h6.1c.26 4.42.51 8.84.78 13.51h72.15c-3.26-16.51-9.23-31.58-21.01-43.97.8-.99 1.43-1.74 2.03-2.53.53-.65.98-1.36 2.17-3.07z"/></g></svg>