<svg enable-background="new 0 0 400 400" viewBox="0 0 400 400" xmlns="http://www.w3.org/2000/svg"><path d="m385.2 377.6.6-.7c.6.4 1.3.9 1.9 1.5l-.6.7c-.8-.5-1.4-1-1.9-1.5zm.3 7.1c.6-1.4 1.1-2.9 1.5-4.5.3.1.6.3.9.4-.5 1.4-1 2.9-1.5 4.4zm.2-10.1.6-.6c.7.5 1.3 1.1 1.9 1.6l-.7.7c-.6-.6-1.2-1.2-1.8-1.7zm8.4-.8h.8v.9h1.8v.7h-1.8v1.8h-.8v-.3h-1.2v.9h3.3v2.6h-.8v-.4h-2.5c0 .3 0 .6-.1.8h3.4v.7h-3.5c0 .3-.1.6-.1.8h4v.7h-3.5c.7.9 1.9 1.3 3.6 1.5-.2.2-.4.5-.6.9-1.9-.3-3.2-1.1-3.8-2.3-.5 2.1-1.8 2-3.9 2.4-.2-.3-.4-.5-.6-.8 1.9-.4 3.1-.9 3.6-1.7h-3.2v-.7h3.5c.1-.2.1-.5.2-.8h-3.3v-.7h3.4c0-.2 0-.5 0-.8h-2.4v.3h-.8v-2.6h3.3v-.9h-1.2v.3h-.8v-1.8h-1.8v-.7h1.8v-.9h.8v.9h3.2zm-4.4 5.5h2.4c0-.3 0-.6 0-.9h-2.4zm1.2-3.1h3.2v-.8h-3.2zm4.4 2.2h-2.4v.9h2.5v-.9z" fill="#fafafb"/><path d="m389.2 385.8h.9v1.5h1.9v-1.5h.9v1.5h2.7v6h1.1v.9h-11.3v-.9h1.1v-6h2.7zm.2 8.7.5.8c-1.2.6-2.5 1.3-4 1.9-.2-.3-.3-.6-.6-.8 1.6-.6 3-1.3 4.1-1.9zm-2-4.3h1.9v-2.1h-1.9zm0 3.1h1.9v-2.2h-1.9zm2.7-3.1h1.9v-2.1h-1.9zm0 3.1h1.9v-2.2h-1.9zm2.4 1.3c1.4.6 2.7 1.2 4.1 1.8l-.5.9c-1.5-.7-2.8-1.4-4.1-1.9zm2.2-6.5h-1.9v2.1h1.9zm-1.9 5.2h1.9v-2.2h-1.9z" fill="#fafafb"/><g fill="#010100"><path d="m220.16 100.2c8.45 3.4 16.51 6.44 24.35 9.96 1.6.72 3.4 3.29 3.28 4.88-.12 1.57-2.52 2.98-3.96 4.42-.22.22-.59.32-.91.39-3.2.7-7.72.34-9.29 2.32-2.53 3.17-3.1 7.9-4.71 12.56 2.15.1 3.87.26 5.6.26 22.33.02 44.66-.1 66.99.12 4.07.04 6.92-1.04 9.38-4.21 2.34-3.01 5.08-5.7 8.22-9.17 6.51 4.35 13.2 8.31 19.28 13.06 4.25 3.32 3.69 7.58-.55 10.91-1.04.82-2.19 1.73-3.42 2.02-6.93 1.65-9.18 6.66-10.91 12.99-4.3 15.67-9.28 31.16-13.98 46.72-.23.76-.32 1.56-.63 3.13 7.47 0 14.55.14 21.61-.12 1.36-.05 2.8-1.56 3.97-2.65 5.24-4.84 10.4-9.78 15.9-14.97 7.09 6.21 14.69 12.66 21.97 19.46 1.27 1.19 2.21 4.54 1.47 5.64-1 1.47-3.79 2.38-5.83 2.39-28 .15-55.99.1-83.99.11-1.96 0-3.92 0-6.58 0v6.35c0 38.83.03 77.66-.01 116.49-.02 16.46-7.17 25.77-22.74 30.35-3.5 1.03-5.11.5-5.87-3.31-1.55-7.85-6.21-13.09-14.14-15.09-7.23-1.83-14.46-3.61-22.17-5.53.32-2.29.65-4.66 1.03-7.46 10.28 1.43 20.22 2.84 30.18 4.19 2.14.29 4.31.53 6.46.51 6.54-.05 9.78-3.02 10.55-9.53.12-.99.11-2 .11-2.99 0-36.66 0-73.32 0-109.99 0-.99-.09-1.98-.15-3.22-28.44 0-56.77 0-85.66 0-1.81-4.11-3.93-8.91-6.39-14.49 4.28.75 7.81 1.61 11.38 1.94 8.6.79 17.22 1.81 25.84 1.89 27.49.24 54.99 0 82.49.19 3.92.03 5.59-1.16 6.41-4.88 1.45-6.58 3.32-13.07 5.22-20.41-2.28 0-4.04 0-5.8 0-25 0-49.99-.1-74.99.09-4.75.04-9.47 1.62-14.23 1.81-6.47.27-7.68-1.58-5.87-7.82 5.78-19.92 11.72-39.8 17.3-59.78 1.74-6.2 2.49-12.65 3.79-19.53zm-4.69 75.47h87.09c2.64-10.02 5.22-19.85 7.95-30.24-28.24 0-55.53-.02-82.83.07-.88 0-2.29.87-2.56 1.65-3.26 9.34-6.36 18.73-9.65 28.52z"/><path d="m29.89 345.57c21.84-3.83 43.06-7.55 64.41-11.3 0-28.81 0-56.73 0-84.7-13.06 0-25.83-.09-38.6.06-3.63.04-7.24.96-10.88 1.14-.97.05-2.47-.91-2.92-1.81-2.07-4.11-3.86-8.36-5.49-11.98 19.07.88 38.12 1.76 57.7 2.66 0-14.3 0-27.66 0-41.99-12.9.51-25.77 1.03-39.01 1.56-1.68-3.46-3.62-7.46-5.74-11.82-7.18 3.77-14.05 7.37-21.42 11.23-1.18-1.68-2.26-3.22-3.78-5.37 35.13-22.69 63.91-50.97 82.33-89.21 8.55 4.16 16.53 7.82 24.23 11.99 1.63.88 3.29 3.83 3 5.49-.27 1.59-2.87 3.2-4.79 3.98-1.91.78-4.23.54-7.52.86 6.33 2.72 11.94 4.65 17.09 7.43 10.06 5.43 20.14 10.93 29.69 17.19 5.63 3.69 9.78 9.37 9.69 16.6-.03 2.64-1.38 6.6-3.3 7.53-2.21 1.07-6.3.3-8.52-1.22-3.48-2.38-6.28-5.89-9.02-9.22-11.74-14.24-26.57-24.54-42.72-34.18-17.02 21.41-37.58 38.86-61.52 55.03 8.98.85 16.56 2.02 24.18 2.21 14.16.34 28.33.19 42.49-.01 1.87-.03 4.12-1.15 5.51-2.48 4.06-3.91 7.78-8.17 11.72-12.4 7.68 5.78 14.7 10.83 21.38 16.28 1.49 1.22 3.04 4.55 2.39 5.7-.92 1.65-3.81 3.02-5.89 3.06-14.15.26-28.31.14-42.82.14v40.92c7.06 0 13.86.14 20.65-.12 1.38-.05 2.9-1.37 4.01-2.47 3.9-3.84 7.64-7.84 11.69-12.03 7.56 5.76 14.77 11.07 21.71 16.72 1.24 1.01 2.39 4.17 1.78 4.99-1.15 1.54-3.61 2.9-5.54 2.93-16.66.22-33.33.12-50 .14-1.32 0-2.63.11-4.28.18v79.96c15.89-4.85 31.24-9.54 46.58-14.23 2.89 5.63 2.87 5.88-2.7 8.54-28.44 13.55-58.35 23.16-88.3 32.64-1.59.5-3.15 1.17-4.77 1.44-6.76 1.14-11.66 3.94-12.31 11.69-.14 1.63-2.07 3.12-3.17 4.67-1.66-1.24-3.97-2.12-4.86-3.77-4.31-8.07-8.23-16.31-12.36-24.65z"/><path d="m239.28 27.73c8.96 2.51 17.43 4.85 25.87 7.3 1.57.46 3.14 1.18 4.5 2.1 3.72 2.54 3.49 6.34-.74 7.98-3.03 1.17-6.44 1.76-9.69 1.82-3.28.06-5.18 1.19-6.62 4.09-1.4 2.81-3.36 5.35-5.05 8.02-.16.25-.12.63-.25 1.39 1.24.13 2.46.38 3.67.38 26 .02 51.99.08 77.99-.1 2.2-.01 4.93-1.08 6.48-2.6 4.86-4.78 9.27-10.01 14.07-15.31 8.94 6.73 16.89 12.43 24.43 18.62 1.69 1.38 2.91 4.7 2.5 6.76-.25 1.29-3.94 2.67-6.11 2.69-16.83.23-33.67.13-50.5.13-25.5 0-50.99.06-76.49-.08-3.32-.02-5.43 1.05-7.59 3.52-12.95 14.82-28.75 26.09-46.06 36.4-1.21-2.04-2.27-3.82-3.63-6.11 26.46-19.49 43.55-45.41 53.22-77z"/><path d="m182.33 43.57c7.98 6.2 15.84 12.04 23.32 18.33 1.56 1.31 2.84 4.71 2.2 6.37-.56 1.47-3.96 2.61-6.1 2.62-35.97.16-71.94.16-107.91.04-3.45-.01-5.72.87-8.01 3.64-15.04 18.2-39.31 37.81-56.06 45.59-1.05-1.74-2.13-3.53-3.46-5.74 30.58-21.87 51.69-50.54 63.09-86.85 9.57 2.88 18.97 5.49 28.16 8.66 1.87.65 4.25 3.56 4.11 5.23-.14 1.63-3.18 3.04-5.01 4.48-.34.27-.98.27-1.46.22-10.3-1.05-14.2 6.15-17.99 14.23 1.38.16 2.59.42 3.8.42 20.48.03 40.97.11 61.45-.12 2.28-.03 5-1.44 6.7-3.07 4.55-4.35 8.65-9.16 13.17-14.05z"/><path d="m174.99 325.34c25.86-8.82 50.35-19.87 73.3-34.59 1.24 1.68 2.3 3.12 3.83 5.19-7.66 6.47-15.04 13.16-22.9 19.21-8.69 6.7-17.74 12.94-26.81 19.12-3.18 2.17-5.42 4.16-5.71 8.48-.19 2.81-2.5 5.47-3.87 8.19-2.21-2.02-4.95-3.7-6.52-6.14-3.96-6.13-7.39-12.61-11.32-19.46z"/><path d="m293.83 298.09c.63-1.39 1-2.31 1.45-3.19.3-.58.7-1.1 1.3-2.03 13.88 5.42 28.11 10.06 41.47 16.51 8.96 4.33 16.98 10.84 24.84 17.12 4.26 3.4 7.03 8.51 5.96 14.55-1.12 6.3-6.52 8.88-11.9 5.43-3.03-1.94-5.86-4.44-8.19-7.19-12.86-15.22-29.01-26.19-46.01-36.11-2.85-1.65-5.73-3.26-8.92-5.09z"/><path d="m339.31 234.62c6.7 4.66 13.08 8.86 19.14 13.48 1.46 1.11 1.88 3.6 2.78 5.45-1.82.84-3.9 2.72-5.41 2.33-8.1-2.07-13.52 2.59-19.82 6.29-13.1 7.71-26.72 14.52-40.35 21.83-1.71-2.28-2.76-3.69-4.28-5.71 18.12-12.1 34.75-25.63 47.94-43.67z"/><path d="m142.33 260.54c6.41 2.99 13.69 6.15 20.7 9.81 1.51.79 3.09 3.52 2.82 5.04-.26 1.45-2.97 3.6-4.46 3.49-8.61-.61-12.18 4.97-16.38 11.1-6.14 8.96-13.41 17.14-20.45 25.97-2.28-2.06-3.46-3.13-4.06-3.67 7.33-17.38 14.5-34.38 21.83-51.74z"/><path d="m45.68 267.48c1.44-1.36 2.51-2.37 3.93-3.71 10.39 10.68 20.82 21.18 26.47 35.18 1.49 3.7 1.85 8.05 1.85 12.1 0 4.13-2.27 7.33-6.8 7.91-4.47.58-6.88-2.24-7.97-5.99-1.2-4.12-1.7-8.44-2.66-12.64-2.67-11.78-7.54-22.62-14.82-32.85z"/><path d="m192.21 244.97c.77-1.16 1.66-2.52 3.11-4.71 10.69 5.56 21.48 10.66 31.72 16.69 6.09 3.59 10.85 8.89 10.39 16.99-.19 3.4-1.04 6.08-4.61 7.47-3.77 1.47-6.15-.49-8.15-3-4.23-5.32-7.71-11.33-12.44-16.12-6.05-6.13-13.02-11.34-20.02-17.32z"/><path d="m115.74 82.47c1.3-1.98 2.28-3.48 3.41-5.21 11.12 4.36 22.22 8.18 30.93 16.61 3.89 3.77 6.78 8.1 5.77 13.56-.47 2.52-2.52 5.28-4.66 6.81-2.89 2.06-6.04.69-8.47-1.77-.93-.94-1.89-1.94-2.48-3.09-5.66-11.06-14.29-19.43-24.5-26.91z"/><path d="m270.99 83.65c1.08-2.19 1.81-3.65 3.17-6.41 10.53 5.51 21.02 10.59 31.07 16.44 4.23 2.47 6.84 7.11 5.72 12.35-.52 2.46-2.29 5.85-4.26 6.49-2.51.82-5.81-.6-8.71-1.33-.8-.2-1.55-1.29-2-2.14-5.69-10.88-14.18-19.08-24.99-25.4z"/></g></svg>