<svg enable-background="new 0 0 400 400" viewBox="0 0 400 400" xmlns="http://www.w3.org/2000/svg"><path d="m385.2 377.6.6-.7c.6.4 1.3.9 1.9 1.5l-.6.7c-.8-.5-1.4-1-1.9-1.5zm.3 7.1c.6-1.4 1.1-2.9 1.5-4.5.3.1.6.3.9.4-.5 1.4-1 2.9-1.5 4.4zm.2-10.1.6-.6c.7.5 1.3 1.1 1.9 1.6l-.7.7c-.6-.6-1.2-1.2-1.8-1.7zm8.4-.8h.8v.9h1.8v.7h-1.8v1.8h-.8v-.3h-1.2v.9h3.3v2.6h-.8v-.4h-2.5c0 .3 0 .6-.1.8h3.4v.7h-3.5c0 .3-.1.6-.1.8h4v.7h-3.5c.7.9 1.9 1.3 3.6 1.5-.2.2-.4.5-.6.9-1.9-.3-3.2-1.1-3.8-2.3-.5 2.1-1.8 2-3.9 2.4-.2-.3-.4-.5-.6-.8 1.9-.4 3.1-.9 3.6-1.7h-3.2v-.7h3.5c.1-.2.1-.5.2-.8h-3.3v-.7h3.4c0-.2 0-.5 0-.8h-2.4v.3h-.8v-2.6h3.3v-.9h-1.2v.3h-.8v-1.8h-1.8v-.7h1.8v-.9h.8v.9h3.2zm-4.4 5.5h2.4c0-.3 0-.6 0-.9h-2.4zm1.2-3.1h3.2v-.8h-3.2zm4.4 2.2h-2.4v.9h2.5v-.9z" fill="#fafafb"/><path d="m389.2 385.8h.9v1.5h1.9v-1.5h.9v1.5h2.7v6h1.1v.9h-11.3v-.9h1.1v-6h2.7zm.2 8.7.5.8c-1.2.6-2.5 1.3-4 1.9-.2-.3-.3-.6-.6-.8 1.6-.6 3-1.3 4.1-1.9zm-2-4.3h1.9v-2.1h-1.9zm0 3.1h1.9v-2.2h-1.9zm2.7-3.1h1.9v-2.1h-1.9zm0 3.1h1.9v-2.2h-1.9zm2.4 1.3c1.4.6 2.7 1.2 4.1 1.8l-.5.9c-1.5-.7-2.8-1.4-4.1-1.9zm2.2-6.5h-1.9v2.1h1.9zm-1.9 5.2h1.9v-2.2h-1.9z" fill="#fafafb"/><g fill="#010100"><path d="m294.07 229.85v26.4c0 24-.01 48 .01 72 .01 7.99 3.69 13.13 11.56 13.49 13.26.6 26.58.41 39.86-.08 6.4-.24 10.87-3.95 11.66-10.86 1.28-11.21 2.53-22.43 3.77-33.65.36-3.27.69-6.54 1.06-9.99h6.19c.08 1.84.2 3.61.23 5.37.21 10.31.44 20.63.59 30.94.1 6.58 2.75 11.77 7.8 16.01 6.34 5.32 5.84 11.6-1.99 14.29-8.06 2.76-16.73 4.52-25.24 5.02-14.24.83-28.57.5-42.85.26-4.77-.08-9.6-1.01-14.25-2.14-10.9-2.65-15.61-8.76-15.62-20.02-.05-33.67-.02-67.33-.02-101 0-1.95 0-3.9 0-6.17-8.47 0-16.4 0-24.53 0-1.38 10.42-3.03 20.74-4.08 31.13-4.05 40.2-25.69 68.16-60.18 87.36-14.22 7.92-41.77 18.55-54.14 20.68-.64-1.73-1.3-3.53-2.07-5.62 7.37-3.25 14.57-6.19 21.57-9.55 20.22-9.7 39.42-20.97 54.51-38.01 12.72-14.36 19.48-31.62 22.81-50.21 1.9-10.61 2.72-21.41 3.98-32.13.13-1.11-.09-2.26-.15-3.67-9.8 0-19.38 0-29.52 0 0 3.24.15 6.2-.03 9.14-.38 6.39-4.39 9.63-11.1 9.18-6.08-.41-8.89-3.4-8.34-9.9 4.84-57.06 1.37-114.23 2.27-171.34.13-8.44-1.16-16.9-1.75-25.35-.1-1.47-.01-2.95-.01-5.38 5.62 4.16 10.74 7.74 15.62 11.64 3.01 2.4 6.09 3.41 10.01 3.4 35.5-.14 71-.15 106.5.01 3.89.02 6.55-1.06 8.89-4.09 2.53-3.27 5.5-6.21 8.58-9.63 6.27 4.12 12.57 7.85 18.39 12.2 5.19 3.88 4.85 7.79-.3 11.67-.66.5-1.32 1.14-2.08 1.36-7.66 2.24-8.49 7.68-8.42 14.84.36 34.16-.11 68.33.28 102.5.19 16.95 1.6 33.88 2.44 50.82.11 2.16.17 4.33.09 6.5-.24 6.63-4.35 10.08-11.7 9.91-5.86-.13-8.27-2.99-8.34-9.9-.02-2.32 0-4.65 0-7.41-10.63-.02-20.99-.02-31.96-.02zm31.78-57.47c-40.51 0-80.51 0-120.42 0v47.04h120.42c0-15.86 0-31.3 0-47.04zm-120.49-65.95h120.38c0-15.17 0-29.95 0-44.85-40.31 0-80.34 0-120.38 0zm-.14 55.13h120.5c0-14.96 0-29.55 0-44.2-40.3 0-80.33 0-120.5 0z"/><path d="m85.83 174.98c-19.06 0-37.47 0-56.63 0-1.67-3.9-3.73-8.69-5.56-12.98 20.71 1.13 41.17 2.24 61.65 3.35 0-46.52 0-91.6 0-137.63 9.85 2.53 19.9 4.89 29.79 7.81 1.97.58 4.59 3.24 4.62 4.98.03 1.8-2.61 3.77-4.31 5.43-.77.75-2.07.98-3.16 1.39-8.82 3.35-8.82 3.35-8.82 13.09v97.48 6.61c8.71 0 16.97.11 25.22-.12 1.19-.03 2.4-1.59 3.5-2.56 5.49-4.85 10.94-9.75 16.57-14.78 5.99 5.31 13.21 11.47 20.08 18.01 1.67 1.59 2.14 4.42 3.16 6.69-2.14.81-4.28 2.3-6.43 2.32-18.66.19-37.33.11-55.99.11-1.8 0-3.6 0-5.86 0-.1 2.2-.26 3.98-.26 5.77-.01 47.16-.21 94.32.12 141.47.09 13.6 1.91 27.19 2.57 40.8.44 9.07-2.46 11.58-11.48 11.02-6.8-.42-8.79-2.48-8.79-9.25-.01-61.15 0-122.31 0-183.46.01-1.84.01-3.66.01-5.55z"/><path d="m25.89 311.3c-1.75-1.48-3.13-2.64-4.64-3.92 16.77-35.49 24.42-73.18 28.2-112.71 9.19 2.82 18.04 5.34 26.72 8.38 1.82.64 4.16 3.2 4.11 4.81-.04 1.56-2.84 3.06-4.47 4.53-.35.31-.91.56-1.37.55-9.01-.09-11.03 5.4-12.64 13.26-5.62 27.46-14.25 53.9-30.23 77.38-1.76 2.58-3.71 5.04-5.68 7.72z"/><path d="m144.33 58.15c9.1 3.54 17.62 6.69 25.96 10.28 1.61.69 3.52 3.22 3.39 4.75-.13 1.59-2.33 3.38-4.04 4.37-1.64.95-3.91 1.62-5.73 1.32-6.41-1.03-8.03 3.22-9.93 7.85-7.71 18.77-18.35 35.68-32.62 50.21-.58.59-1.22 1.12-1.94 1.77-1.66-.73-3.29-1.45-5.55-2.45 15.18-23.92 24.16-49.97 30.46-78.1z"/><path d="m118.08 204.75c1.61-1.45 2.96-2.67 4.69-4.23 15.74 16.52 31.99 32.51 36.57 55.93 1.02 5.2-.05 11.17-1.6 16.36-.68 2.29-5.01 4.87-7.6 4.79-2.11-.07-5.19-3.59-5.93-6.13-2.04-6.98-2.12-14.62-4.72-21.33-4.89-12.65-10.95-24.85-16.65-37.18-1.24-2.7-2.98-5.17-4.76-8.21z"/><path d="m25.46 64.77c1.58-1.47 2.89-2.68 4.56-4.23 15.36 15.93 31.32 31.22 36.33 53.72 1.17 5.24.4 11.17-.62 16.56-.69 3.63-4.35 6.92-8.11 5.8-2.67-.8-5.53-4.31-6.39-7.19-2.37-7.9-2.72-16.51-5.74-24.09-4.7-11.81-10.93-23.02-16.56-34.46-1.02-2.05-2.26-3.99-3.47-6.11z"/></g></svg>