<svg enable-background="new 0 0 400 400" viewBox="0 0 400 400" xmlns="http://www.w3.org/2000/svg"><path d="m385.2 377.6.6-.7c.6.4 1.3.9 1.9 1.5l-.6.7c-.8-.5-1.4-1-1.9-1.5zm.3 7.1c.6-1.4 1.1-2.9 1.5-4.5.3.1.6.3.9.4-.5 1.4-1 2.9-1.5 4.4zm.2-10.1.6-.6c.7.5 1.3 1.1 1.9 1.6l-.7.7c-.6-.6-1.2-1.2-1.8-1.7zm8.4-.8h.8v.9h1.8v.7h-1.8v1.8h-.8v-.3h-1.2v.9h3.3v2.6h-.8v-.4h-2.5c0 .3 0 .6-.1.8h3.4v.7h-3.5c0 .3-.1.6-.1.8h4v.7h-3.5c.7.9 1.9 1.3 3.6 1.5-.2.2-.4.5-.6.9-1.9-.3-3.2-1.1-3.8-2.3-.5 2.1-1.8 2-3.9 2.4-.2-.3-.4-.5-.6-.8 1.9-.4 3.1-.9 3.6-1.7h-3.2v-.7h3.5c.1-.2.1-.5.2-.8h-3.3v-.7h3.4c0-.2 0-.5 0-.8h-2.4v.3h-.8v-2.6h3.3v-.9h-1.2v.3h-.8v-1.8h-1.8v-.7h1.8v-.9h.8v.9h3.2zm-4.4 5.5h2.4c0-.3 0-.6 0-.9h-2.4zm1.2-3.1h3.2v-.8h-3.2zm4.4 2.2h-2.4v.9h2.5v-.9z" fill="#fafafb"/><path d="m389.2 385.8h.9v1.5h1.9v-1.5h.9v1.5h2.7v6h1.1v.9h-11.3v-.9h1.1v-6h2.7zm.2 8.7.5.8c-1.2.6-2.5 1.3-4 1.9-.2-.3-.3-.6-.6-.8 1.6-.6 3-1.3 4.1-1.9zm-2-4.3h1.9v-2.1h-1.9zm0 3.1h1.9v-2.2h-1.9zm2.7-3.1h1.9v-2.1h-1.9zm0 3.1h1.9v-2.2h-1.9zm2.4 1.3c1.4.6 2.7 1.2 4.1 1.8l-.5.9c-1.5-.7-2.8-1.4-4.1-1.9zm2.2-6.5h-1.9v2.1h1.9zm-1.9 5.2h1.9v-2.2h-1.9z" fill="#fafafb"/><g fill="#010100"><path d="m333.64 240c-7.72 0-14.89-.21-22.02.16-1.56.08-3.64 1.89-4.43 3.44-11.86 23.36-26.84 44.45-45.79 62.55-22.74 21.72-49.47 37.52-77.64 51.03-7.32 3.51-14.75 6.79-22.59 10.38-1.11-1.98-2.05-3.65-3.28-5.85 7.4-4.04 14.67-7.89 21.83-11.94 29.58-16.77 56.98-36.33 79.19-62.46 11.47-13.49 21.4-28 29.19-43.94.42-.87.77-1.77 1.46-3.37-13.09 0-25.66-.13-38.21.17-1.45.03-2.97 2.32-4.25 3.75-9.36 10.38-18.21 21.27-28.11 31.1-15.72 15.6-35.49 25.05-55.35 34.15-3.92 1.8-7.88 3.49-11.74 5.19-4.14-4.75-4.05-5.19 1.04-8.09 27.87-15.91 53.24-34.78 72.27-61.13.87-1.21 1.69-2.47 2.48-3.73.14-.22.02-.6.02-1.39-9.93 0-19.86-.12-29.78.12-1.58.04-3.16 1.61-4.66 2.59-11.1 7.29-22.19 14.61-33.67 22.19-1.61-2.43-2.76-4.16-4.07-6.13 24.13-17.53 44.68-37.81 58.48-64.63-15.33 0-30.31 0-46.15 0-1.61-3.96-3.58-8.79-5.78-14.18 6.03.77 11.41 1.59 16.82 2.12 6.45.63 12.92 1.4 19.38 1.42 44 .12 88 .02 132 .15 3.72.01 6.26-1.17 8.65-3.81 4.45-4.92 9.12-9.63 14.04-14.8 7.83 6.93 15.49 13.53 22.89 20.42 1.18 1.1 2.14 4.03 1.5 5.11-.86 1.45-3.35 2.64-5.18 2.68-10.49.25-21 .13-31.5.13-34.17 0-68.33 0-102.5 0-1.76 0-3.53 0-5.29 0-.08.37-.15.74-.23 1.11 2.46 1.11 5.2 1.84 7.28 3.44 1.75 1.34 3.63 3.65 3.71 5.59.05 1.22-3.11 2.63-4.92 3.8-.66.42-1.66.7-2.4.54-7.57-1.62-11.34 3.15-15.26 8.39-3.36 4.5-7.47 8.44-11.75 13.2 1.87.19 3.07.42 4.28.42 37.83.02 75.67.07 113.5-.12 2.23-.01 4.88-1.54 6.58-3.16 3.22-3.06 5.9-6.7 9.09-10.44 6.29 4.19 12.57 7.97 18.38 12.36 5.35 4.04 5.08 7.51-.18 11.54-1.05.81-2.14 1.77-3.36 2.12-6.79 1.95-7.25 6.96-7.64 13.04-1.78 28.22-5.12 56.23-13.8 83.34-6.05 18.89-18.49 30.28-38.3 33.21-1.13.17-2.29.13-4.27.23 1.23-11.6-7.09-15.45-15.54-19.12-7.29-3.16-14.64-6.19-22.33-9.43.79-1.91 1.53-3.68 2.33-5.62 10.67 2.9 21.02 5.76 31.4 8.52 2.4.64 4.86 1.1 7.33 1.41 8.7 1.08 15.69-2.17 19.57-11.36 4.29-10.16 8.26-20.79 10.05-31.61 3.36-20.29 5.06-40.86 7.42-61.31.08-.93-.11-1.91-.19-3.49z"/><path d="m313 153.71c-34.46 0-68.21 0-102.32 0-.1 1.9-.24 3.51-.27 5.13-.14 6.64-2.48 8.68-9.82 8.52-6.23-.14-8.78-2.69-8.72-8.84.36-33.46.88-66.93 1.03-100.39.04-8.56-1.06-17.13-1.67-26.23 5.87 4.19 11.38 8.43 17.22 12.16 2.35 1.5 5.42 2.64 8.16 2.66 29.65.19 59.31.05 88.96.2 3.56.02 5.89-1.12 8.03-3.81 2.69-3.37 5.74-6.45 9.08-10.15 6.34 4.31 12.87 8.25 18.82 12.93 4.92 3.87 4.52 6.87-.39 10.86-.9.73-1.84 1.58-2.9 1.89-6.33 1.89-7.5 6.1-7.38 12.38.46 23.15.16 46.31.28 69.47.03 5.31.82 10.61.9 15.92.13 8.19-8.47 13.53-15.8 9.68-1.53-.8-2.63-3.2-3.08-5.07-.53-2.19-.13-4.61-.13-7.31zm-.21-96.33c-34.29 0-68.14 0-102.09 0v38.35h102.09c0-12.87 0-25.46 0-38.35zm.07 49.19c-34.33 0-68.15 0-102.06 0v36.64h102.06c0-12.34 0-24.3 0-36.64z"/><path d="m32.94 172.16c-1.87-4.27-3.93-8.97-5.76-13.15 19.56.9 39.07 1.81 58.88 2.72 0-45.4 0-89.79 0-134.92 3.13.62 6.62 1.21 10.05 2.01 6.29 1.47 12.66 2.75 18.77 4.78 2.34.78 4.06 3.41 6.07 5.2-1.97 2.05-3.84 4.2-5.94 6.09-.8.73-2.11.91-3.22 1.28-7.61 2.55-7.62 2.55-7.62 10.36v98 6.45c8.08 0 15.69.11 23.29-.11 1.23-.03 2.61-1.3 3.61-2.3 3.77-3.76 7.42-7.64 11.49-11.87 7.58 5.74 14.93 11.1 21.97 16.84 1.18.96 1.92 4.1 1.23 5.3-.8 1.39-3.39 2.43-5.22 2.45-16.66.18-33.33.11-50 .12-1.95 0-3.9 0-6.39 0v6c0 46.83-.23 93.67.14 140.5.11 14.44 1.84 28.86 2.8 43.29.25 3.73.4 7.58-3.79 9.45-4.63 2.06-9.44 2.31-13.83-.48-1.32-.84-2.24-2.83-2.65-4.47-.48-1.89-.24-3.97-.24-5.97-.01-60.33-.01-120.66-.01-181 0-2.15 0-4.29 0-6.57-17.89 0-35.42 0-53.63 0z"/><path d="m29.14 310.52c-1.61-1.38-2.84-2.45-4.26-3.67 18.32-35.23 23.89-73.57 28.26-113 8.79 3 17.35 5.77 25.78 8.92 1.63.61 3.96 2.89 3.76 4.02-.29 1.68-2.53 3.04-3.97 4.51-.22.23-.56.46-.86.48-8.1.61-9.61 6.03-11.01 12.99-6.12 30.45-17.99 58.57-36.03 83.98-.37.53-.89.96-1.67 1.77z"/><path d="m139.58 57.65c8.95 2.89 17.07 5.27 24.99 8.21 2.14.79 3.66 3.26 5.46 4.96-1.95 1.78-3.82 4.98-5.86 5.08-9.13.47-11.55 6.31-13.65 13.8-5.41 19.35-16.34 35.87-27.9 52.29-1.83-1.29-3.54-2.5-5.75-4.05 11.77-25.41 18.89-52.03 22.71-80.29z"/><path d="m29.67 65.49c1.65-1.46 2.99-2.64 4.66-4.12 15.08 15.39 30.29 30.36 35.89 51.84 1.33 5.09.84 10.71.75 16.07-.03 1.63-1.29 3.42-2.39 4.82-3.99 5.07-10.24 4.33-12.42-1.72-1.44-4-2.02-8.35-2.71-12.58-2.94-18.07-11.22-33.86-20.74-49.15-.96-1.55-1.85-3.14-3.04-5.16z"/><path d="m117 198.01c.66-.43 1.9-1.23 4-2.59 4.72 6.64 9.59 13.07 14.01 19.79 7.5 11.42 14.58 23.13 16.51 37 .51 3.68.22 7.59-.42 11.27-.77 4.49-3.86 6.74-8.56 6.59-4.88-.15-6.55-3.67-7.34-7.48-1.27-6.16-1.3-12.64-3.1-18.61-4.59-15.19-9.86-30.18-15.1-45.97z"/></g></svg>