<svg enable-background="new 0 0 400 400" viewBox="0 0 400 400" xmlns="http://www.w3.org/2000/svg"><path d="m385.2 377.6.6-.7c.6.4 1.3.9 1.9 1.5l-.6.7c-.8-.5-1.4-1-1.9-1.5zm.3 7.1c.6-1.4 1.1-2.9 1.5-4.5.3.1.6.3.9.4-.5 1.4-1 2.9-1.5 4.4zm.2-10.1.6-.6c.7.5 1.3 1.1 1.9 1.6l-.7.7c-.6-.6-1.2-1.2-1.8-1.7zm8.4-.8h.8v.9h1.8v.7h-1.8v1.8h-.8v-.3h-1.2v.9h3.3v2.6h-.8v-.4h-2.5c0 .3 0 .6-.1.8h3.4v.7h-3.5c0 .3-.1.6-.1.8h4v.7h-3.5c.7.9 1.9 1.3 3.6 1.5-.2.2-.4.5-.6.9-1.9-.3-3.2-1.1-3.8-2.3-.5 2.1-1.8 2-3.9 2.4-.2-.3-.4-.5-.6-.8 1.9-.4 3.1-.9 3.6-1.7h-3.2v-.7h3.5c.1-.2.1-.5.2-.8h-3.3v-.7h3.4c0-.2 0-.5 0-.8h-2.4v.3h-.8v-2.6h3.3v-.9h-1.2v.3h-.8v-1.8h-1.8v-.7h1.8v-.9h.8v.9h3.2zm-4.4 5.5h2.4c0-.3 0-.6 0-.9h-2.4zm1.2-3.1h3.2v-.8h-3.2zm4.4 2.2h-2.4v.9h2.5v-.9z" fill="#fafafb"/><path d="m389.2 385.8h.9v1.5h1.9v-1.5h.9v1.5h2.7v6h1.1v.9h-11.3v-.9h1.1v-6h2.7zm.2 8.7.5.8c-1.2.6-2.5 1.3-4 1.9-.2-.3-.3-.6-.6-.8 1.6-.6 3-1.3 4.1-1.9zm-2-4.3h1.9v-2.1h-1.9zm0 3.1h1.9v-2.2h-1.9zm2.7-3.1h1.9v-2.1h-1.9zm0 3.1h1.9v-2.2h-1.9zm2.4 1.3c1.4.6 2.7 1.2 4.1 1.8l-.5.9c-1.5-.7-2.8-1.4-4.1-1.9zm2.2-6.5h-1.9v2.1h1.9zm-1.9 5.2h1.9v-2.2h-1.9z" fill="#fafafb"/><g fill="#010100"><path d="m143.57 227.42c-28.35 8.81-55.73 17.42-83.19 25.76-3.68 1.12-5.71 2.86-6.14 6.58-.08.66-.05 1.44-.4 1.94-1.26 1.82-3.03 5.18-3.94 4.97-2.22-.5-4.97-2.23-5.92-4.22-3.71-7.76-6.81-15.81-9.99-23.4 26.71-26.1 47.29-56.24 67.35-88.39-13.26 3.83-25.32 7.31-37.38 10.8-1.27.37-2.49 1.04-3.78 1.21-4.96.67-7.97 2.83-8.68 8.32-.28 2.14-2.93 3.97-4.51 5.95-1.91-1.69-4.52-3.03-5.59-5.14-3.31-6.5-6.13-13.25-8.89-20.02-.51-1.25-.36-3.37.41-4.44 25.37-35.49 42.4-75.15 58.08-115.5.12-.3.33-.56.94-1.56 3.93 2.19 7.96 4.35 11.89 6.65 5.3 3.09 10.67 6.12 15.74 9.57 1.35.92 2.75 3.67 2.28 4.86-.63 1.61-2.93 2.74-4.73 3.64-1.1.55-2.67.59-3.93.34-6.41-1.24-9.65 1.83-12.68 7.29-15.62 28.13-33.52 54.77-53.85 79.74-1.04 1.28-1.93 2.68-3.63 5.04 6.38-.55 11.85-.99 17.31-1.49 14.23-1.29 28.47-2.5 42.67-4.04 1.91-.21 4.49-1.71 5.29-3.34 7.03-14.27 13.74-28.71 20.53-43.11.49-1.04.9-2.11 1.57-3.7 8.25 4.63 16.43 8.95 24.28 13.81 1.94 1.2 2.81 4.11 4.17 6.24-2.26 1.39-4.78 4.26-6.75 3.92-9.06-1.55-12.19 4.21-15.94 10.62-22.82 39.05-50.75 74.08-83.7 105.09-1.09 1.02-2.13 2.1-3.14 3.2-.19.21-.17.62-.42 1.65 30.42-5.47 60.53-10.88 91.91-16.52-6.36-10.98-11.97-20.67-17.74-30.64 1.27-1.04 2.65-2.17 4.26-3.49 13.9 13.48 27 27.25 34.93 44.82 2.27 5.03 2.54 11.21 2.67 16.88.1 4.4-3.08 7.31-7.7 7.68-4.64.37-7.63-1.99-8.73-6.47-1.73-7.01-3.3-14.09-4.93-21.1z"/><path d="m276.84 147.26c26.11 15.93 53.7 26.02 82.99 31.66 1.62.31 3.24.87 4.87.9 4.87.09 6.68 2.16 4.8 7.13-10.15 1.28-20.7 2.12-26.39 13.27-28.89-10.09-55.23-24.61-80.04-42.25-31.02 22.26-65.97 34.46-103.01 43.1-.5-1.72-.99-3.39-1.65-5.62 32.94-11.64 65.05-24.52 92.8-46.1-7.59-8.96-15.18-17.32-22.11-26.2-13.78-17.67-24.61-37.14-33.18-57.81-1.53-3.7-3.48-4.49-7.13-4.09-12.81 1.43-12.82 1.33-17.87-10.44-.32-.74-.61-1.49-1.24-3.02 3.78.42 6.97 1.01 10.16 1.1 15.97.44 31.94.96 47.91 1.07 26.33.17 52.65-.05 78.98.14 4.06.03 6.88-1.08 9.32-4.27 2.41-3.14 5.3-5.93 8.33-9.25 6.2 4.14 12.46 7.87 18.21 12.29 5.53 4.25 5.16 7.64-.46 11.93-.13.1-.26.24-.41.29-10.04 3.19-13.12 12.38-17.62 20.37-10.78 19.16-22.2 37.9-36.74 54.53-3.23 3.72-6.74 7.24-10.52 11.27zm36.59-85.84c-36.83 0-72.94 0-109.72 0 15.59 29.63 34.86 55.46 60.35 76.65 21.48-22.62 37.06-48.27 49.37-76.65z"/><path d="m248.52 196.09c9.56 2.37 19.1 4.47 28.44 7.23 2.31.68 3.99 3.47 5.97 5.29-1.97 2.08-3.89 4.22-5.95 6.21-.54.52-1.53.6-2.32.86-8.48 2.77-8.48 2.77-8.48 11.47v29.08c2.29.13 4.36.33 6.44.34 5.83.05 11.76-.65 17.47.18 8.2 1.19 13.47-2.5 18.23-8.33 2.83-3.46 6.12-6.55 9.66-10.29 5.36 4.7 10.56 9.24 15.76 13.79 2.13 1.86 4.6 3.46 6.28 5.67 1.32 1.74 2.75 4.65 2.13 6.26-.61 1.58-3.75 3.06-5.8 3.08-20.99.22-41.98.14-62.97.14-2.15 0-4.29 0-6.81 0v75.93h24.04c10.33 0 20.66-.15 30.98.08 3.51.08 5.92-1.05 8.2-3.58 4.44-4.94 9.14-9.64 13.97-14.69 7.57 6.66 15.17 13.12 22.43 19.95 1.38 1.3 2.38 4.55 1.69 6.03-.65 1.39-3.76 2.28-5.8 2.28-42.65.13-85.3.1-127.94.1-16.83 0-33.65-.16-50.48.08-7.13.1-14.26.86-21.36 1.65-2.95.33-4.58-.27-5.64-3.18-1.36-3.72-3.18-7.26-5.09-11.54 32.55 5.07 64.74 1.78 97.16 2.99 0-25.49 0-50.41 0-75.26-21.29 0-42.65 0-64.95 0-1.73-3.67-3.97-8.41-5.93-12.58 23.51.69 47.05 1.39 70.69 2.09-.02-20.85-.02-40.58-.02-61.33z"/><path d="m32.07 294.13c1.74-1.57 3.07-2.77 4.87-4.39 14.74 15.9 30.95 30.36 36.36 52.29.94 3.82.37 8.27-.5 12.21-1 4.55-5.09 6.49-10.13 6.1-4.36-.34-6.27-3.21-6.55-6.93-1.65-22.16-10.7-41.31-24.05-59.28z"/><path d="m74.34 281.63c1.78-1.58 3-2.65 4.48-3.96 15.39 11.83 31.46 22.86 40.94 40.31 2.45 4.5 3 10.4 3.13 15.69.12 4.74-4.47 9.16-8.24 9.41-5.1.34-7.45-3.18-8.96-7.23-1.39-3.71-2.33-7.59-3.38-11.42-3.89-14.18-11.91-25.83-21.99-36.25-1.95-2.03-3.79-4.15-5.98-6.55z"/><path d="m112.46 267.63c1.71-4.2 3.79-4.58 7.36-2.27 14.11 9.14 28.36 18.08 38.9 31.58 4.06 5.2 7.26 10.96 6.26 17.82-.4 2.78-1.76 5.76-3.57 7.91-3.46 4.11-8.38 3.84-11.33-.69-2.32-3.56-3.95-7.65-5.36-11.69-5.59-16.07-16.14-28.47-28.69-39.45-1.24-1.08-2.44-2.19-3.57-3.21z"/></g></svg>