<svg enable-background="new 0 0 400 400" viewBox="0 0 400 400" xmlns="http://www.w3.org/2000/svg"><g fill="#010100"><path d="m51.04 374.92c-1.63-1.76-2.75-2.97-3.32-3.58 8-11.31 16.36-22.04 23.54-33.52 11.58-18.5 17.54-39.18 19.47-60.72 2.1-23.33 3.42-46.77 4.11-70.19.65-21.94.08-43.91-.08-65.87-.03-4.6-.63-9.19-1.05-14.89 6.23 3.76 11.5 7.11 16.95 10.13 2.09 1.16 4.59 2.2 6.91 2.21 26.33.15 52.66.1 78.99.08 1.29 0 2.57-.26 3.4-.34 0-36.29 0-72.21 0-109.4 9.66 2.47 19.85 4.89 29.88 7.84 1.73.51 4.02 3.39 3.88 4.97-.18 1.96-2.32 4.17-4.18 5.44-1.98 1.36-4.56 2.11-6.98 2.47-3.71.56-4.69 2.31-4.67 5.99.17 23.66.09 47.33.09 70.99v12.07h6.23c30 0 59.99-.1 89.99.12 4.3.03 7.21-1.23 9.78-4.46 2.58-3.24 5.49-6.21 8.42-9.48 6.04 3.95 12.02 7.56 17.67 11.64 6.27 4.53 6.05 8.46-.25 12.8-.14.09-.26.25-.41.29-9.59 2.49-9.44 9.61-9.4 17.69.27 56.99.15 113.99.14 170.98 0 17.36-10 28.59-27.42 30.88-.25-.2-.7-.39-.72-.61-.98-12.56-8.83-18.18-20.28-20.33-5.53-1.04-11.01-2.33-16.8-3.57.43-2.46.84-4.84 1.33-7.67 8.18 1.19 16.14 2.52 24.15 3.44 5.23.6 10.55 1 15.78.69 4.41-.26 6.74-3.57 6.75-7.91.06-32.16.02-64.33-.01-96.49 0-.29-.23-.57-.43-1.03-11.7 4.18-23.36 8.48-35.11 12.51-42.33 14.5-85.85 24.48-129.49 33.97-8.1 1.76-16.18 3.64-24.3 5.3-3.03.62-4.74 1.9-5.75 5.1-.98 3.1-3.3 5.77-5.03 8.63-2.17-2.67-4.8-5.1-6.41-8.08-2.96-5.47-5.32-11.27-8.57-17.01-5.65 40.62-24.5 73.35-56.8 98.92zm58.29-103.76c72.77-6.08 143.68-23.62 213.47-45.55 0-25.98 0-51.27 0-76.88-69.91 0-139.62 0-209.55 0v27.02c2.22.3 4.17.76 6.14.81 25.83.59 51.32 4.2 76.48 9.64 13.86 3 27.44 7.66 40.77 12.6 4.42 1.64 8.67 5.9 11.07 10.07 1.68 2.92 1.26 8.31-.35 11.53-2.02 4.04-6.89 3.45-10.74 1.77-6.22-2.72-12.45-5.49-18.4-8.76-26.83-14.76-55.79-22.72-85.84-27.27-6.3-.96-12.66-1.58-18.78-2.33-1.43 29.37-2.83 57.89-4.27 87.35z"/><path d="m323.38 45.18c8.12 3.89 15.71 7.29 23.02 11.2 1.89 1.01 2.93 3.6 4.36 5.47-1.98 1.49-4.06 4.36-5.92 4.22-9.47-.7-14.49 4.89-19.61 11.59-15.02 19.69-35.1 33.34-56.14 45.74-1.11.66-2.35 1.1-3.72 1.72-1.13-1.65-2.14-3.13-3.5-5.12 26.99-19.46 46.66-44.87 61.51-74.82z"/><path d="m85.53 53.58c.96-1.21 1.55-2.01 2.2-2.76.31-.36.71-.62 1.54-1.33 18.24 13.95 38.75 25.04 54.03 42.81 4.42 5.14 7.46 10.97 6.79 18.11-.35 3.69-1.51 6.77-5.39 8.15-3.9 1.38-6.83-.24-9.32-2.98-1.22-1.34-2.34-2.85-3.12-4.47-10.02-20.7-24.76-37.65-41.69-52.89-1.6-1.43-3.16-2.9-5.04-4.64z"/></g><path d="m361.2 9.6.8-1c.9.7 1.9 1.4 2.9 2.3l-.9 1.1c-1-1-2-1.8-2.8-2.4zm.5 10.6c.9-2.1 1.6-4.3 2.3-6.7.4.2.8.4 1.3.6-.7 2.1-1.5 4.3-2.2 6.6zm.4-15.2.9-.9c1 .8 2 1.6 2.8 2.4l-1 1c-.9-.9-1.8-1.7-2.7-2.5zm12.5-1.2h1.2v1.4h2.7v1.1h-2.7v2.7h-1.2v-.6h-1.8v1.3h4.9v3.8h-1.2v-.5h-3.7c0 .4-.1.9-.1 1.2h5.1v1h-5.2c0 .5-.1.9-.2 1.2h6v1h-5.2c1.1 1.3 2.9 2 5.5 2.2-.4.4-.7.8-.9 1.3-2.9-.5-4.8-1.6-5.7-3.5h-.1c-.8 1.7-2.7 2.9-5.9 3.6-.2-.4-.6-.8-.9-1.1 2.8-.6 4.6-1.4 5.4-2.5h-4.8v-1h5.3c.1-.3.2-.7.2-1.2h-4.9v-1h5c0-.4 0-.8.1-1.2h-3.5v.5h-1.2v-3.8h4.9v-1.3h-1.8v.5h-1.2v-2.7h-2.7v-1h2.6v-1.4h1.2v1.4h4.7v-1.4zm-6.6 8.3h3.6c0-.4 0-.9 0-1.4h-3.6zm1.9-4.6h4.7v-1.3h-4.7zm6.6 3.2h-3.7v1.4h3.7z" fill="#fbfafc"/><path d="m385.3 3.8h1.3v2.2h2.8v-2.2h1.3v2.2h4.1v9.1h1.7v1.3h-16.9v-1.3h1.7v-9.1h4.1v-2.2zm.4 13.1.7 1.2c-1.8.9-3.8 1.9-6 2.9-.2-.4-.5-.8-.8-1.3 2.3-1 4.3-1.9 6.1-2.8zm-3.1-6.4h2.8v-3.2h-2.8zm0 4.6h2.8v-3.3h-2.8zm4-4.6h2.8v-3.2h-2.8zm0 4.6h2.8v-3.3h-2.8zm3.7 1.9c2.1.9 4.1 1.8 6.1 2.7l-.7 1.3c-2.2-1.1-4.2-2-6.1-2.9zm3.2-9.7h-2.8v3.2h2.8zm-2.8 7.8h2.8v-3.3h-2.8z" fill="#fbfafc"/></svg>