<svg enable-background="new 0 0 400 400" viewBox="0 0 400 400" xmlns="http://www.w3.org/2000/svg"><path d="m374.8 390.4.4-.4c.7.5 1.3 1 1.8 1.4l-.5.5c-.5-.6-1.1-1.1-1.7-1.5zm1 7.3-.6-.3c.5-1.4 1.1-2.8 1.5-4.3.2.1.4.2.6.3-.5 1.3-1 2.8-1.5 4.3zm-.4-10.3.4-.4c.4.3 1 .8 1.7 1.4l-.5.5c-.4-.5-1-1-1.6-1.5zm2.5.3h1.7v-1h.6v1h3.5v-1h.6v1h1.8v.5h-1.8v1.4h-2v1h3.2v2h-3.2v.9h3.3v.5h-3.4c0 .3-.1.6-.1.9h4v.5h-3.7c.7.9 1.9 1.5 3.8 1.7-.1.2-.2.4-.3.6-2.1-.4-3.5-1.1-4-2.1-.4 1-1.8 1.7-4 2.2-.1-.2-.2-.4-.3-.6 2.1-.4 3.4-1 3.8-1.8h-3.4v-.5h3.6c.1-.3.1-.6.2-.9h-3.3v-.5h3.4c0-.3 0-.6 0-.9h-3.2v-2h3.3v-1h-2.1v-1.4h-1.7v-.5zm1.1 3.5v1h2.7c0-.3 0-.4 0-.4 0-.1 0-.2 0-.2 0-.1 0-.2 0-.3h-2.7zm1.2-3v.9h3.5v-.9zm4.7 3h-2.6v.6.4h2.6z" fill="#fafafb"/><path d="m393.6 386.7h.6v1.5h2.7v6.1h1.1v.6h-11v-.6h1.1v-6.1h2.7v-1.5h.6v1.5h2.1v-1.5zm-2.7 8.8.4.6c-1.2.6-2.5 1.3-3.8 1.9-.1-.2-.2-.4-.3-.6 1.2-.6 2.5-1.2 3.7-1.9zm-2.2-6.7v2.4h2.1v-2.4zm0 3v2.5h2.1v-2.5zm2.8-3v2.4h2.1v-2.4zm0 3v2.5h2.1v-2.5zm6 6.1c-1.4-.7-2.7-1.3-3.9-1.8l.3-.6c1.5.6 2.7 1.2 3.9 1.7zm-1.2-9.1h-2.1v2.4h2.1zm-2.1 3v2.5h2.2v-2.5z" fill="#fafafb"/><g fill="#010100"><path d="m302.68 206.04c5.99 4.38 11.98 8.31 17.44 12.88 4.31 3.61 4.32 6.71-.6 8.89-8.37 3.71-8.69 9.91-8.6 17.66.35 31.99.19 63.98.13 95.97-.03 15.45-12.2 27.96-27.64 28.47-.42-1.37-.94-2.75-1.27-4.18-1.8-7.88-6.43-12.9-14.42-14.77-7.23-1.69-14.42-3.59-21.88-5.45.51-2.56.99-4.95 1.47-7.36 10.24 1.47 20.22 2.97 30.23 4.31 2.63.35 5.34.55 7.96.31 4.67-.43 8.17-3.11 8.26-7.83.31-15.12.11-30.26.11-45.74-11.98 3.67-23.38 7.83-35.12 10.63-37.76 9.02-75.6 17.69-113.5 26.06-5.54 1.22-9.17 2.75-9.59 8.78-.07.97-.28 2.09-.84 2.84-.95 1.28-2.14 3.07-3.39 3.22-1.14.14-3.07-1.35-3.69-2.6-2.65-5.35-4.94-10.88-7.37-16.34-1.07-2.41-2.13-4.82-3.71-8.41-7.2 23.73-21.13 41.6-39.34 56.92-1.37-1.55-2.65-3-3.37-3.81 6.11-9.95 12.6-19.07 17.57-28.94 8.37-16.63 10.88-34.9 11.25-53.23.51-24.6-.07-49.22-.19-73.83-.01-1.12 0-2.23 0-3.95 5.7 3.54 10.75 7.01 16.13 9.88 2.63 1.41 5.85 2.39 8.81 2.4 52.98.14 105.97.06 158.95.2 3.73.01 6.23-1.01 8.41-3.94 2.29-3.04 4.97-5.78 7.8-9.04zm-9.17 75.75c0-18.06 0-35.28 0-52.37-57.64 0-114.86 0-172.17 0v20.8c1.38.14 2.51.32 3.65.37 21.6.8 43.27.82 64.79 2.66 12.75 1.09 25.39 4.57 37.8 7.97 4.29 1.17 8.54 4.74 11.33 8.36 1.77 2.3 1.62 6.9.83 10.11-.94 3.83-5.01 4.16-8.36 3.63-3.72-.59-7.49-1.55-10.96-3-20.1-8.45-40.59-15.62-62.28-18.65-12.1-1.69-24.27-2.97-36.03-4.38-1.38 18.35-2.71 35.98-4.09 54.27 58.79-4.74 117.31-16.11 175.49-29.77z"/><path d="m52.64 32.49c6.28 4.17 11.41 7.82 16.8 11.03 2.14 1.28 4.87 2.2 7.34 2.21 30.15.15 60.3.03 90.45.18 3.88.02 6.55-.93 8.73-4.26 2.08-3.18 4.77-5.96 7.65-9.46 5.99 4.23 12.1 8.15 17.73 12.67 3.98 3.2 3.62 5.61-.25 8.97-.63.54-1.25 1.21-2 1.47-6.42 2.25-6.94 7.15-6.87 13.09.06 4.69 1.14 7.9 5.35 10.12 1.54.81 3.07 2.22 3.87 3.74 1.51 2.87.81 5.26-2.83 5.8-1.47.22-2.99.11-4.49.11-38.81 0-77.62 0-116.44 0-1.98 0-3.96 0-6.48 0-.36 5.18-.74 10.08-1.03 14.98-1.47 24.56-2.67 49.16-11.07 72.63-5.24 14.63-12.81 28.02-22.33 40.28-3.83-2.2-4.77-4.61-2.8-8.65 10.17-20.87 14.33-43.29 17.09-66.16 3.63-30.02 3.01-60.12 2.72-90.22-.05-5.81-.7-11.6-1.14-18.53zm18.67 22.71v23.4h103.83c0-7.91 0-15.59 0-23.4-34.76 0-69.06 0-103.83 0z"/><path d="m300.72 173.77c22.7 8.6 46.18 11.66 70 14.26.11 1.12.22 2.07.27 3.03.04.82.01 1.64.01 2.79-3.55.7-6.89 1.46-10.27 2.01-4.99.81-8.64 3.5-10.8 7.94-1.16 2.38-2.46 2.96-4.99 2.31-19.82-5.04-39.39-10.79-57.61-20.29-3.18-1.66-5.65-1.58-8.77-.2-21.57 9.56-44.5 14.19-67.55 18.36-1.12.2-2.29.13-3.81.21-.59-2.12-1.13-4.11-1.78-6.46 22.21-5.81 43.94-11.73 63.58-22.28-6.35-6.75-12.7-13.23-18.72-20-4.87-5.46-9.63-11.06-13.89-17-2.39-3.33-4.98-3.8-8.52-3.13-7.41 1.41-7.44 1.36-10.67-5.46-1.27-2.69-2.45-5.42-3.86-8.57 30.48 4.85 60.72 1.76 90.86 2.77 5.19.17 9.18-.85 12.46-5.2 2.16-2.86 5.27-5.01 8.27-7.77 5.87 3.81 12.3 7.62 18.33 11.99 5.21 3.78 5.53 7.9-.03 10.42-11.59 5.24-17.62 15.73-25.79 24.25-5.19 5.4-10.78 10.36-16.72 16.02zm-56.73-38.63c11.87 12.22 24.36 21.77 38.02 29.77.95.55 3.25.02 4.18-.82 6.99-6.37 13.89-12.85 20.62-19.49 2.72-2.68 4.95-5.86 7.95-9.46-24.03 0-46.79 0-70.77 0z"/><path d="m117.06 118.68h30.67c-.44-8.86-.87-17.54-1.34-27.01 8.67 2.39 17.27 4.52 25.69 7.23 1.99.64 4.63 3.16 4.68 4.88.04 1.76-2.56 3.79-4.33 5.33-1.2 1.05-2.95 1.47-4.47 2.15-4.24 1.89-4.24 1.88-3.31 8.34 4.21-.88 8.94-.81 12.42-2.87 3.68-2.18 6.17-6.39 9.44-10 6.64 4.89 12.62 9.05 18.24 13.65 1.15.94 1.72 3.89 1.12 5.3-.54 1.27-3.04 2.38-4.69 2.41-10.32.22-20.66.11-30.98.11-1.81 0-3.62 0-5.81 0v26.24c4.72-.53 9.9 2.32 14.2-2.2 3.54-3.73 6.91-7.62 10.78-11.91 6.86 5.54 13.63 10.83 20.12 16.43 1.08.93 1.67 3.51 1.18 4.84-.47 1.27-2.57 2.19-4.13 2.7-1.36.45-2.97.13-4.47.13-28.82 0-57.64-.15-86.46.07-12.12.09-24.24 1.05-36.36 1.38-1.39.04-3.47-1.11-4.11-2.31-2.01-3.79-3.48-7.87-5.28-12.12 10.38 1.16 20.42 2.29 30.82 3.45 0-9.27 0-17.67 0-26.72-5.78.53-11.37.82-16.88 1.63-2.92.43-4.69.12-5.73-2.95-1.31-3.86-3.01-7.6-4.69-11.75 9.37 1.14 18.16 2.2 27.8 3.37-.43-9.37-.82-17.76-1.24-26.77 8.43 2.41 16.46 4.44 24.27 7.12 2.14.74 4.67 3.26 5.02 5.31.25 1.44-2.73 3.65-4.56 5.17-1.23 1.02-2.95 1.47-4.47 2.13-4.09 1.77-4.09 1.76-3.14 7.24zm30.05 35.74c0-9.02 0-17.5 0-25.92-10.37 0-20.25 0-30.22 0v25.92z"/><path d="m303 55.25c-15.93 0-31.21 0-46.73 0-3.19 14.34-3.38 29.82-15.1 40.78-7.84 7.34-17.24 12.26-27.21 16.57-1.27-1.74-2.32-3.19-3.98-5.47 31.26-17.05 29.89-46.2 27.7-76.52 6.94 4.59 13.12 8.91 19.56 12.79 2.27 1.36 5.17 2.25 7.81 2.32 9.99.27 19.99 0 29.98.17 3.22.05 5.64-.62 7.79-3.23 2.95-3.57 6.32-6.8 9.7-10.36 5.9 3.73 11.81 7.12 17.34 11.05 6.26 4.45 6.45 10.12-.48 12.99-8.84 3.66-9.38 9.72-9.11 17.66.49 14.41 2.32 16.78 16.56 15.82 5.73-.39 11.39-2.12 17.05-3.38 4.93-1.09 10.54 2.13 12.06 7.12 1.54 5.02-.42 8.63-6.27 10.53-11.11 3.61-22.57 3.35-34.05 2.55-.83-.06-1.64-.27-2.46-.36-15.38-1.67-20.12-6.95-20.16-22.57-.02-9.31 0-18.62 0-28.46z"/><path d="m65.26 215.73c-1.06-1.82-1.97-3.38-3.1-5.32 16.96-10.78 30.93-24.5 42.09-41.34 6.61 3.54 13.01 6.69 19.08 10.37 1.85 1.12 2.82 3.69 4.19 5.59-1.8 1.23-3.62 3.54-5.4 3.51-8.71-.17-14.73 4.93-21.21 9.54-10.86 7.73-22.81 13.35-35.65 17.65z"/><path d="m153.09 177.9c1.33-2.21 2.26-3.74 3.71-6.16 9 4.12 18.04 7.79 26.62 12.34 5.75 3.06 9.42 8.33 7.67 15.29-.63 2.49-2.92 5.65-5.12 6.34-2.24.69-5.32-1.27-8.02-2.12-.27-.08-.51-.45-.65-.74-5.37-10.7-13.47-18.83-24.21-24.95z"/></g></svg>