<svg enable-background="new 0 0 400 400" viewBox="0 0 400 400" xmlns="http://www.w3.org/2000/svg"><path d="m374.8 390.4.4-.4c.7.5 1.3 1 1.8 1.4l-.5.5c-.5-.6-1.1-1.1-1.7-1.5zm1 7.3-.6-.3c.5-1.4 1.1-2.8 1.5-4.3.2.1.4.2.6.3-.5 1.3-1 2.8-1.5 4.3zm-.4-10.3.4-.4c.4.3 1 .8 1.7 1.4l-.5.5c-.4-.5-1-1-1.6-1.5zm2.5.3h1.7v-1h.6v1h3.5v-1h.6v1h1.8v.5h-1.8v1.4h-2v1h3.2v2h-3.2v.9h3.3v.5h-3.4c0 .3-.1.6-.1.9h4v.5h-3.7c.7.9 1.9 1.5 3.8 1.7-.1.2-.2.4-.3.6-2.1-.4-3.5-1.1-4-2.1-.4 1-1.8 1.7-4 2.2-.1-.2-.2-.4-.3-.6 2.1-.4 3.4-1 3.8-1.8h-3.4v-.5h3.6c.1-.3.1-.6.2-.9h-3.3v-.5h3.4c0-.3 0-.6 0-.9h-3.2v-2h3.3v-1h-2.1v-1.4h-1.7v-.5zm1.1 3.5v1h2.7c0-.3 0-.4 0-.4 0-.1 0-.2 0-.2 0-.1 0-.2 0-.3h-2.7zm1.2-3v.9h3.5v-.9zm4.7 3h-2.6v.6.4h2.6z" fill="#fafafb"/><path d="m393.6 386.7h.6v1.5h2.7v6.1h1.1v.6h-11v-.6h1.1v-6.1h2.7v-1.5h.6v1.5h2.1v-1.5zm-2.7 8.8.4.6c-1.2.6-2.5 1.3-3.8 1.9-.1-.2-.2-.4-.3-.6 1.2-.6 2.5-1.2 3.7-1.9zm-2.2-6.7v2.4h2.1v-2.4zm0 3v2.5h2.1v-2.5zm2.8-3v2.4h2.1v-2.4zm0 3v2.5h2.1v-2.5zm6 6.1c-1.4-.7-2.7-1.3-3.9-1.8l.3-.6c1.5.6 2.7 1.2 3.9 1.7zm-1.2-9.1h-2.1v2.4h2.1zm-2.1 3v2.5h2.2v-2.5z" fill="#fafafb"/><g fill="#010100"><path d="m169.9 320.07c-20.4 0-39.37-.04-58.34.08-1.49.01-3.04 1-4.44 1.77-7.77 4.26-13.12 1.32-13.12-7.31-.01-17.65 0-35.31 0-53.56 8.32 2.04 16.37 3.75 24.23 6.1 2.21.66 3.85 3.22 5.75 4.91-1.9 1.87-3.48 4.46-5.76 5.47-8.06 3.59-8.15 3.38-8.15 12.37v20.42c1.91.1 3.53.25 5.15.26 18 .02 35.99-.09 53.99.09 3.72.04 5.45-1 5.8-4.82 1.43-15.83 3.02-31.65 4.62-48.1-3.15-.17-4.91-.34-6.67-.34-26.66-.02-53.32.05-79.98-.08-3.46-.02-5.88.98-8.18 3.58-14.42 16.23-31.73 28.81-50.49 39.51-1.13.64-2.33 1.16-3.68 1.83-1.17-1.6-2.23-3.06-2.84-3.9 11.57-11.54 23.82-22.11 34.02-34.4 10.12-12.2 18.17-26.12 27.72-40.16 7.12 2.88 15.44 6.05 23.55 9.67 1.4.63 2.98 3.36 2.67 4.69-.4 1.7-2.42 3.73-4.14 4.23-2.96.86-6.27.44-9.36.96-1.78.3-3.43 1.38-5.14 2.12.15.51.3 1.01.46 1.52h5.27c73.32 0 146.63-.03 219.95.09 4.06.01 6.82-1.04 9.18-4.42 2.46-3.51 5.57-6.57 8.66-10.13 7.05 5.15 14.1 9.89 20.66 15.22 4.54 3.69 3.81 8.26-1.76 8.92-11.63 1.38-11.44 9.57-12.46 17.89-2.77 22.57-5.81 45.12-13.01 66.82-6.32 19.06-19.77 29.6-39.66 32.73-.52-2.02-1-3.75-1.41-5.49-1.44-6.06-4.72-10.52-10.75-12.74-9.01-3.32-18-6.72-27.33-10.22.52-2.14 1.01-4.17 1.62-6.7 9.45 2.45 18.64 5.01 27.92 7.16 5.47 1.27 11.08 2.08 16.66 2.74 6.11.72 10.47-2.34 13.84-7.18 5.87-8.45 8.13-18.23 9.55-28.07 2.52-17.41 4.29-34.94 6.35-52.42.12-.98.01-1.98.01-3.38-45.21 0-90.24 0-135.19 0-1.09 17.55-2.17 34.9-3.26 52.5h76.96c0-15.57 0-31.12 0-47.52 8.95 2.18 17.15 3.91 25.16 6.31 2.14.64 3.67 3.31 5.47 5.05-1.83 1.72-3.36 4.13-5.53 5.05-8.35 3.54-8.42 3.36-8.42 12.65 0 9.83.17 19.67-.08 29.49-.11 4.37.05 9.29-5.02 11.6-6.23 2.85-11.23-.38-11.3-7.19-.02-1.78 0-3.56 0-5.7-10.18 0-19.66 0-29.13 0-16 0-31.99-.05-47.99.08-1.53.01-3.9.75-4.44 1.86-9.25 18.84-25.56 28.84-44.75 33.85-20.51 5.36-41.44 9.21-62.29 13.12-12.06 2.26-24.33 3.36-36.51 4.94-.96.12-1.94.02-3.35.02-.11-2.09-.22-4.03-.35-6.46 9.34-1.54 18.45-3.06 27.57-4.56 24.64-4.04 48.93-9.6 71.68-20.06 8.61-3.96 16.16-10.29 23.99-15.82 1.98-1.42 3.31-3.91 5.82-6.94z"/><path d="m245.4 206.07c.54-2.33 1.02-4.35 1.57-6.71 10.77 2.75 21.15 5.52 31.6 8.01 4.34 1.03 8.81 1.89 13.25 2.06 7.23.28 13.48-2.94 16.52-9.28 3.91-8.15 7.17-16.79 9.26-25.57 2.77-11.6 4.17-23.53 6.09-35.33.29-1.78.21-3.61.32-5.76-40.73 0-81.13 0-121.12 0-2.48 15.27-4.91 30.28-7.36 45.34h67.83c0-13.1 0-26.14 0-40.16 8.95 2.27 17.11 4.12 25.12 6.52 1.85.55 4.5 3.12 4.35 4.49-.21 1.91-2.58 4.95-4.25 5.11-10.09.95-9.56 7.72-9.21 14.94.31 6.48.1 12.99.05 19.49-.05 6.57-1.82 8.69-7.32 8.94-6.77.31-7.73-.55-8.65-7.64-.04-.31-.26-.59-.55-1.22-1.11-.07-2.39-.23-3.67-.23-22.16-.01-44.33-.04-66.49.04-1.72.01-3.96.16-5.06 1.2-14.13 13.22-31.23 20.3-49.94 23.15-23.92 3.64-47.99 6.29-72.07 9.38-1.16-5.06-1.36-7.47 4.35-8.16 26.05-3.15 51.94-7.37 76.62-16.81 5.1-1.95 9.94-4.59 14.88-6.94.52-.25.92-.73 2.29-1.86-14.51 0-27.92-.02-41.33.05-.8 0-1.81.56-2.36 1.18-3.31 3.76-7.28 3.08-11.36 1.89-3.91-1.14-4.15-4.34-4.15-7.61-.01-14.64 0-29.28 0-45.07 9.02 2.42 17.45 4.49 25.72 7.07 1.59.5 3.41 2.93 3.55 4.6.12 1.35-2.12 2.91-3.33 4.37-.1.12-.28.23-.43.24-10.92.57-10.77 8.02-9.97 15.95.21 2.13.03 4.29.03 6.8 1.51.17 2.77.43 4.02.43 15.33.03 30.66-.07 45.99.1 3.16.04 4.76-1.04 6-3.86 5.82-13.19 7.34-27.12 7.87-42.04-1.94 0-3.54 0-5.14 0-25.16 0-50.33-.09-75.49.14-2.64.02-5.77 1.36-7.82 3.1-15.55 13.23-32.86 23.64-51.05 33.26-1.16-1.82-2.12-3.33-3.43-5.39 27.64-18.4 49.52-41.88 64.6-72.08 8.53 4.23 16.59 8.06 24.43 12.29 1.41.76 2.95 3.42 2.61 4.74-.42 1.65-2.57 3.08-4.27 4.09-1.19.7-2.93.87-4.36.7-6.74-.81-10.95 2.47-14.04 8.6 1.57.12 2.96.31 4.34.31 67.49.01 134.98-.01 202.46.09 3.37.01 5.56-1.02 7.55-3.64 2.72-3.56 5.81-6.84 9.33-10.91 7.2 5.3 14.54 10.35 21.43 15.94 3.33 2.7 2.76 6.89-1.35 7.75-12.58 2.62-13.19 12.27-14.88 22.05-2.23 12.92-4.72 25.84-8.13 38.48-4.11 15.24-12.16 28.18-26.69 35.71-4.94 2.56-10.54 3.88-15.91 5.54-2.74.84-4.03-.24-4.51-3.4-1.14-7.51-5.48-12.6-12.8-15.16-8.43-2.96-16.8-6.12-25.54-9.31z"/><path d="m281.96 74.07c-1.01 6.15-2.08 12.01-2.91 17.9-.71 5.04-3.46 7.64-8.5 8.04-6.78.54-9.7-2.49-8.51-9.14.96-5.37 2.05-10.71 3.14-16.36-11.39 0-22.32-.11-33.25.06-3.63.06-7.24.91-10.88 1.17-.95.07-2.51-.46-2.85-1.17-2.08-4.28-3.9-8.7-5.64-12.7 18.02.92 35.86 1.83 53.94 2.75 1.7-13.17 3.24-25.16 4.86-37.72 9.18 2.21 18.32 4.27 27.36 6.7 1.65.44 4.16 2.48 4.05 3.57-.17 1.73-1.98 3.55-3.52 4.82-1.35 1.11-3.22 1.9-4.96 2.17-6.47 1.02-9.06 4.9-9.28 11.15-.09 2.73-.94 5.43-1.53 8.62 16.34 0 32.14.07 47.94-.12 1.52-.02 3.27-1.4 4.47-2.6 4.71-4.69 9.24-9.56 14.39-14.95 7.81 6.73 15.65 13.33 23.24 20.2 1.04.94 1.68 3.92 1.01 4.81-1.09 1.43-3.42 2.66-5.25 2.68-15.66.2-31.33.12-46.99.12-13.32 0-26.63 0-40.33 0z"/><path d="m115.72 27.79c8.84 1.43 16.71 2.64 24.55 4 1.77.31 3.56.93 5.17 1.73 3.71 1.84 4.07 4.51.62 6.71-3.32 2.12-7.05 3.58-11.11 5.58.7 5.96 1.43 12.19 2.23 18.99 6.33 0 12.46.13 18.57-.11 1.22-.05 2.5-1.38 3.55-2.34 4.41-4.03 8.75-8.15 13.6-12.68 7.03 5.34 14.81 10.95 22.23 17.01 3.58 2.92 2.22 7.11-2.3 8.11-1.44.32-2.98.2-4.48.2-14.66.01-29.33.01-43.99.01-1.63 0-3.26 0-5.58 0 .74 4.73 1.35 8.93 2.05 13.12.91 5.38-.75 8.03-5.82 9.1-6.69 1.41-9.16.17-10.29-5.67-1.03-5.35-1.71-10.76-2.61-16.55-2.85 0-5.48 0-8.11 0-19.33.02-38.66-.04-57.99.11-5.14.04-10.27.84-15.41 1.03-1.2.05-3.08-.62-3.57-1.53-2.09-3.91-3.79-8.04-5.26-11.27 29.43.69 58.76 1.37 88.82 2.08-1.69-13.08-3.23-25-4.87-37.63z"/></g></svg>