<svg enable-background="new 0 0 400 400" viewBox="0 0 400 400" xmlns="http://www.w3.org/2000/svg"><g fill="#010100"><path d="m218.13 226.67c-13.65 0-25.46-.4-37.23.14-8.05.37-8.02.95-11.06-6.6-.98-2.45-1.94-4.91-2.73-6.9 13.62.9 27.27 2.15 40.94 2.6 13.78.45 27.59.1 41.67.1 0-17 0-33.59 0-50.37-.26-.13-.69-.53-1.11-.52-17.47.26-34.95.42-52.42.96-4.53.14-7.58-.39-8.67-5.49-.67-3.14-2.29-6.07-3.08-8.08 21.55 1.09 43.2 2.19 65.24 3.31 0-17.66 0-34.08 0-50.58-.15-.13-.39-.53-.63-.53-15.8.03-31.61-.02-47.41.2-8.31.12-16.61.77-24.92 1.01-.88.03-2.27-.85-2.62-1.66-1.83-4.21-3.4-8.54-5.12-12.99 9.77 1.02 19.13 2.04 28.51 2.95 3.64.35 7.3.59 10.95.59 36.83.04 73.65-.01 110.48.09 3.22.01 5.6-.78 7.86-3.18 4.8-5.07 9.92-9.84 15.34-15.15 7.54 6.79 15.24 13.58 22.7 20.64 1.05 1 1.76 4.03 1.1 4.8-1.17 1.35-3.51 2.31-5.37 2.32-28.99.14-57.99.1-86.98.1-1.96 0-3.93 0-6.18 0v50.52c7.11 0 14.27-.65 21.28.15 11.51 1.31 20.77-1.38 27.28-11.54 1.67-2.6 4.17-4.68 6.58-7.32 8.14 7.33 15.87 14.13 23.35 21.19 1.05.99 1.74 3.93 1.07 4.82-1.07 1.43-3.41 2.63-5.23 2.65-14.99.21-29.99.12-44.99.12-9.65 0-19.29 0-29.3 0v51h18.92c12.5 0 25 .14 37.49-.13 2.34-.05 5.09-1.24 6.88-2.79 5.28-4.56 10.17-9.57 15.61-14.78 7.33 6.6 15.05 13.4 22.52 20.47 1.02.96 1.58 3.79.91 4.79-.88 1.33-3.18 2.37-4.88 2.4-13.16.19-26.33.11-39.49.11-11.12 0-22.25 0-33.98 0v5.85c0 31.16-.02 62.32.03 93.48.01 3.31.31 6.64.65 9.94.5 4.83 3.74 8.04 8.07 8.22 14.59.6 29.22.65 43.83.57 6.02-.03 9.2-3.69 9.98-9.69 1.81-13.98 3.77-27.94 5.72-42.28h6.32c0 10.56.23 21.02-.08 31.47-.21 7.09 1.42 12.85 7.14 17.68 5.42 4.57 4.35 10.98-1.98 14.26-8.19 4.25-17.24 4.84-26.21 4.75-16.6-.17-33.21-.5-49.79-1.28-13.66-.64-20.17-7.73-20.21-21.41-.1-34.99-.03-69.99-.04-104.98 0-1.97 0-3.94 0-6.24-13.01 0-25.59 0-38.87 0-.61 7.77-.89 15.7-1.93 23.53-1.88 14.14-3.38 28.41-6.55 42.27-6.77 29.58-24.95 51.02-50.78 66.08-11.15 6.5-22.91 11.95-34.68 18.02-1.64-2.79-2.7-4.61-3.54-6.03 10.97-7.11 21.91-13.73 32.35-21.06 24.78-17.39 37.73-42.05 41.92-71.47 2.38-16.89 3.6-33.93 5.37-51.1z"/><path d="m37.59 96.53c14.3 11.08 29.09 15.06 45.51 11.65 0-23.62 0-47.63 0-72.15 8.95 2.22 18.31 4.23 27.44 6.99 2.54.77 5.81 3.52 6.26 5.84.74 3.8-3.12 5.34-6.41 6.3-2.86.84-5.77 1.5-9.03 2.33v51.39c8.25 0 16.67.1 25.08-.12 1.17-.03 2.45-1.5 3.41-2.55 3.35-3.66 6.57-7.43 10.16-11.51 6.34 4.5 12.61 8.57 18.43 13.2 5.11 4.06 4.77 7.37-.42 11.15-1.07.78-2.15 1.75-3.37 2.11-6.38 1.86-6.85 6.38-6.79 12.2.3 27.99.18 55.98.07 83.97-.01 3.28.68 5.63 3.55 7.52 2.76 1.82 5.34 4.02 7.65 6.39 1.13 1.16 2.3 3.35 1.91 4.6-.36 1.15-2.74 2.29-4.28 2.36-9.3.43-18.62.64-27.93.75-9.11.11-18.23.02-27.58.02v77.74c12.28-3.96 24.28-7.84 37.29-12.04-5-9.41-9.57-18.02-14.48-27.27.96-.94 2.34-2.3 4.03-3.96 12.53 12.46 24.74 24.47 31.74 40.54 2.68 6.14 4.42 12.54 2.41 19.36-1.51 5.13-4.89 7.96-9.63 7.68-5.25-.3-6.79-4.12-7.68-8.4-1.35-6.47-2.59-12.96-3.94-19.8-12.38 5.34-23.97 10.74-35.87 15.37-17.62 6.86-35.38 13.37-53.25 19.56-3.83 1.33-4.94 3.24-5.65 6.76-.54 2.67-2.25 5.11-3.45 7.65-2.27-1.89-5.3-3.34-6.68-5.74-4.06-7.05-7.47-14.47-11.39-22.25 19.87-4.1 39.37-8.13 58.86-12.15 0-28 0-55.25 0-82.77-9.68 0-19.09 0-28.74 0-.14 1.05-.34 2.01-.39 2.97-.3 6.05-1.71 7.54-7.71 8.13-8.97.89-11.07-1.29-10.93-10.51.66-44.94 1.22-89.89 1.8-134.83.03-2.13 0-4.28 0-8.48zm63.76 22.93v108.76h29.17c0-36.41 0-72.44 0-108.76-9.86 0-19.42 0-29.17 0zm-17.82 108.76c0-36.4 0-72.43 0-108.75-9.68 0-19.07 0-28.72 0v108.75z"/><path d="m275.94 85.57c8.59-19.42 16.95-38.32 25.45-57.55 7.08 2.87 14.86 5.77 22.37 9.24 2.11.97 3.43 3.65 5.11 5.54-2.23 1.43-4.45 4.02-6.71 4.06-6.87.12-10.65 3.38-14.55 8.87-8.15 11.48-17.46 22.12-26.58 33.46-2.65-1.87-4.34-3.08-5.09-3.62z"/><path d="m195.76 34.69c1.64-1.81 2.96-3.26 4.42-4.87 12.77 9.16 25.18 18.33 34.23 31.18 3.5 4.97 6.04 10.38 5.59 16.67-.31 4.33-1.53 8.34-6.54 9.39-4.59.96-7.8-.93-9.65-6.49-5.74-17.33-14.55-32.73-28.05-45.88z"/></g><path d="m361.2 9.6.8-1c.9.7 1.9 1.4 2.9 2.3l-.9 1.1c-1-1-2-1.8-2.8-2.4zm.5 10.6c.9-2.1 1.6-4.3 2.3-6.7.4.2.8.4 1.3.6-.7 2.1-1.5 4.3-2.2 6.6zm.4-15.2.9-.9c1 .8 2 1.6 2.8 2.4l-1 1c-.9-.9-1.8-1.7-2.7-2.5zm12.5-1.2h1.2v1.4h2.7v1.1h-2.7v2.7h-1.2v-.6h-1.8v1.3h4.9v3.8h-1.2v-.5h-3.7c0 .4-.1.9-.1 1.2h5.1v1h-5.2c0 .5-.1.9-.2 1.2h6v1h-5.2c1.1 1.3 2.9 2 5.5 2.2-.4.4-.7.8-.9 1.3-2.9-.5-4.8-1.6-5.7-3.5h-.1c-.8 1.7-2.7 2.9-5.9 3.6-.2-.4-.6-.8-.9-1.1 2.8-.6 4.6-1.4 5.4-2.5h-4.8v-1h5.3c.1-.3.2-.7.2-1.2h-4.9v-1h5c0-.4 0-.8.1-1.2h-3.5v.5h-1.2v-3.8h4.9v-1.3h-1.8v.5h-1.2v-2.7h-2.7v-1h2.6v-1.4h1.2v1.4h4.7v-1.4zm-6.6 8.3h3.6c0-.4 0-.9 0-1.4h-3.6zm1.9-4.6h4.7v-1.3h-4.7zm6.6 3.2h-3.7v1.4h3.7z" fill="#fbfafc"/><path d="m385.3 3.8h1.3v2.2h2.8v-2.2h1.3v2.2h4.1v9.1h1.7v1.3h-16.9v-1.3h1.7v-9.1h4.1v-2.2zm.4 13.1.7 1.2c-1.8.9-3.8 1.9-6 2.9-.2-.4-.5-.8-.8-1.3 2.3-1 4.3-1.9 6.1-2.8zm-3.1-6.4h2.8v-3.2h-2.8zm0 4.6h2.8v-3.3h-2.8zm4-4.6h2.8v-3.2h-2.8zm0 4.6h2.8v-3.3h-2.8zm3.7 1.9c2.1.9 4.1 1.8 6.1 2.7l-.7 1.3c-2.2-1.1-4.2-2-6.1-2.9zm3.2-9.7h-2.8v3.2h2.8zm-2.8 7.8h2.8v-3.3h-2.8z" fill="#fbfafc"/></svg>