<svg enable-background="new 0 0 400 400" viewBox="0 0 400 400" xmlns="http://www.w3.org/2000/svg"><g fill="#010100"><path d="m28.99 301.48c5.72-.93 10.73-1.74 16.16-2.62-1.1-72.71 1.28-144.88-1.41-217.32 5.6 4.13 11.3 8.36 17.02 12.56 5.12 3.75 10.91 1.41 16.4 1.57.55.02 1.28-1.74 1.72-2.76 8.05-18.77 16.2-37.5 20.31-57.66.13-.62.58-1.18 1.14-2.26 8.17 3.02 16.44 5.84 24.47 9.22 1.91.8 4.33 3.61 4.16 5.25-.18 1.69-3.15 4.29-5.03 4.4-9 .55-13.3 6.19-17.43 13.26-6.01 10.32-12.97 20.09-19.79 30.49 1.35.14 2.55.37 3.76.38 18.82.02 37.65.13 56.47-.13 2.4-.03 5.18-1.62 7.07-3.29 3.32-2.95 6.08-6.53 9.48-10.31 6.31 4.35 12.64 8.29 18.45 12.88 4.9 3.87 4.58 7.07-.2 10.98-.9.73-1.83 1.62-2.89 1.93-6.85 2.01-7.64 6.77-7.6 13.25.29 48.97.16 97.95.16 146.92v6.5c7.34-1.57 14.07-3.01 21.17-4.53.36 1.91.68 3.63 1.13 6.01-11.15 3.67-22.04 7.7-33.18 10.85-33.51 9.47-67.09 18.7-100.73 27.71-4.7 1.26-6.48 3.47-6.62 7.99-.11 3.57.38 8.2-4.03 9.23-4.78 1.11-6.22-3.75-7.97-6.89-4.26-7.66-8.07-15.56-12.19-23.61zm53.47-8.88c0-62.27 0-124.28 0-186.28-7.11 0-13.85 0-20.63 0v189.75c7.14-1.2 13.81-2.32 20.63-3.47zm35.73-7.1c0-59.9 0-119.56 0-179.26-6.5 0-12.61 0-18.95 0v182.69c6.45-1.16 12.61-2.28 18.95-3.43zm36.36-6.56c0-58.21 0-115.45 0-172.55-6.62 0-12.85 0-19.06 0v176.59c6.68-1.41 12.94-2.74 19.06-4.04z"/><path d="m195.16 149.73c23.29 5.33 45.93 3.52 68.91 3.88 0-41.33 0-82.33 0-124.28 9.76 2.61 19.51 5.04 29.11 7.95 1.89.57 4.62 3.15 4.47 4.55-.2 1.94-2.66 3.72-4.32 5.41-.66.67-1.75.93-2.67 1.32-8.66 3.64-8.66 3.64-8.66 12.82v86 6.21c7.37 0 14.56-.66 21.57.15 11.68 1.36 21.16-1.24 27.79-11.62 1.49-2.33 3.86-4.1 6.28-6.59 7.84 6.88 15.62 13.57 23.18 20.49.95.87 1.54 3.56.93 4.39-.99 1.33-3.11 2.51-4.78 2.55-9.99.23-20 .12-30 .12-14.66 0-29.31 0-44.38 0v74.31c.55.14 1.3.52 2.06.52 14.5.04 29 .12 43.5-.07 1.66-.02 3.69-1.25 4.88-2.53 4.74-5.12 9.21-10.49 14.24-16.29 7.96 7.2 15.89 14.18 23.51 21.47 1.09 1.05 1.62 4.26.84 5.3-1.03 1.37-3.6 2.21-5.51 2.22-26 .14-52 .09-78 .09-1.79 0-3.57 0-5.93 0v5.89c0 20.33-.32 40.67.1 61 .36 17.24 1.51 34.47 2.43 51.69.26 4.9-1.89 7.95-6.81 8.58-1.64.21-3.33.23-4.99.15-5.99-.31-7.96-2.37-7.97-8.39-.02-22.83-.01-45.67-.01-68.5 0-14.83 0-29.67 0-44.5 0-1.79 0-3.57 0-5.91-2.3 0-4.08-.02-5.86 0-21.81.32-43.62.57-65.42 1.08-3.34.08-5.21-.66-6.3-3.92-1.2-3.6-2.9-7.04-4.66-11.21 27.33 5.99 54.47 3.23 81.87 4.03 0-25 0-49.57 0-74.45-.57-.14-1.34-.5-2.1-.49-17.98.27-35.96.42-53.93.99-4.81.15-8.31-.34-9.69-5.71-.69-2.74-2.17-5.23-3.68-8.7z"/><path d="m329.55 68.69c8.47 3.45 16.57 6.4 24.3 10.12 2.23 1.07 3.39 4.36 5.04 6.64-2.39 1.53-4.85 4.43-7.16 4.32-6.89-.32-10.08 3.36-13.76 8.44-9.74 13.46-20.26 26.35-30.5 39.45-1.12 1.43-2.41 2.72-3.72 4.19-1.77-1.52-3.15-2.69-4.77-4.08 14.64-20.89 23.71-44.1 30.57-69.08z"/><path d="m199.18 73.05c1.23-1.04 2.48-2.09 4.17-3.52 11.17 10.83 22.49 21.31 31.01 34.25 3.04 4.62 5.16 9.98 6.92 15.27 1.06 3.18 1 6.88.82 10.31-.3 5.53-3.51 8.53-8.8 8.93-5.26.4-8.36-1.56-9.33-7.46-2.01-12.34-4.56-24.48-10.84-35.43-4.29-7.47-9.11-14.63-13.95-22.35z"/></g><path d="m361.2 9.6.8-1c.9.7 1.9 1.4 2.9 2.3l-.9 1.1c-1-1-2-1.8-2.8-2.4zm.5 10.6c.9-2.1 1.6-4.3 2.3-6.7.4.2.8.4 1.3.6-.7 2.1-1.5 4.3-2.2 6.6zm.4-15.2.9-.9c1 .8 2 1.6 2.8 2.4l-1 1c-.9-.9-1.8-1.7-2.7-2.5zm12.5-1.2h1.2v1.4h2.7v1.1h-2.7v2.7h-1.2v-.6h-1.8v1.3h4.9v3.8h-1.2v-.5h-3.7c0 .4-.1.9-.1 1.2h5.1v1h-5.2c0 .5-.1.9-.2 1.2h6v1h-5.2c1.1 1.3 2.9 2 5.5 2.2-.4.4-.7.8-.9 1.3-2.9-.5-4.8-1.6-5.7-3.5h-.1c-.8 1.7-2.7 2.9-5.9 3.6-.2-.4-.6-.8-.9-1.1 2.8-.6 4.6-1.4 5.4-2.5h-4.8v-1h5.3c.1-.3.2-.7.2-1.2h-4.9v-1h5c0-.4 0-.8.1-1.2h-3.5v.5h-1.2v-3.8h4.9v-1.3h-1.8v.5h-1.2v-2.7h-2.7v-1h2.6v-1.4h1.2v1.4h4.7v-1.4zm-6.6 8.3h3.6c0-.4 0-.9 0-1.4h-3.6zm1.9-4.6h4.7v-1.3h-4.7zm6.6 3.2h-3.7v1.4h3.7z" fill="#fbfafc"/><path d="m385.3 3.8h1.3v2.2h2.8v-2.2h1.3v2.2h4.1v9.1h1.7v1.3h-16.9v-1.3h1.7v-9.1h4.1v-2.2zm.4 13.1.7 1.2c-1.8.9-3.8 1.9-6 2.9-.2-.4-.5-.8-.8-1.3 2.3-1 4.3-1.9 6.1-2.8zm-3.1-6.4h2.8v-3.2h-2.8zm0 4.6h2.8v-3.3h-2.8zm4-4.6h2.8v-3.2h-2.8zm0 4.6h2.8v-3.3h-2.8zm3.7 1.9c2.1.9 4.1 1.8 6.1 2.7l-.7 1.3c-2.2-1.1-4.2-2-6.1-2.9zm3.2-9.7h-2.8v3.2h2.8zm-2.8 7.8h2.8v-3.3h-2.8z" fill="#fbfafc"/></svg>