<svg enable-background="new 0 0 400 400" viewBox="0 0 400 400" xmlns="http://www.w3.org/2000/svg"><g fill="#010100"><path d="m190.98 84.55c5.87 3.59 11.18 7.01 16.68 10.1 1.62.91 3.76 1.22 5.67 1.23 12.17.11 24.33-.05 36.5.13 3.3.05 5.64-.78 7.62-3.5 2.35-3.22 5.1-6.13 8.15-9.73 5.82 4.33 11.83 8.39 17.35 13.03 4.4 3.7 4.18 7.43-1.09 9.72-7.1 3.08-8.89 7.94-7.82 14.87.25 1.63.25 3.36 0 4.99-.98 6.36.77 11.14 6.68 14.53 1.63.93 2.04 3.99 3.01 6.07-2.02.73-4.04 2.07-6.07 2.08-21.83.15-43.66.09-65.5.1-1.81 0-3.62 0-5.71 0-.17 1.42-.42 2.51-.43 3.61-.02 11.67-.07 23.33.04 35 .05 5.95 1.93 8.41 7.66 9.12 7.57.93 15.21 1.77 22.82 1.84 26.66.22 53.33.13 80 .04 4.81-.02 9.64-.43 14.43-.96 7.69-.86 12.2-4.83 13.82-12.93 2.21-11.06 3.88-22.22 5.83-33.59 1.49.26 3.23.57 5.45.97 0 8.93.26 17.9-.08 26.86-.26 6.69 1.89 11.8 6.95 16.23 6.91 6.05 5.98 12.05-2.94 14.55-9.5 2.66-19.49 4.73-29.3 4.88-37.16.55-74.33.28-111.49.15-5.11-.02-10.32-.56-15.32-1.63-9.97-2.14-13.34-6.38-13.9-16.57-.22-3.99-.15-8-.16-12-.09-30.16-.16-60.33-.25-90.49 0-1.61-.15-3.21-.25-5.09-9.5 10.73-18.68 21.11-28.53 32.23-1.67-2.26-2.72-3.69-4.04-5.49 19.22-27.12 32.89-57.22 41.58-90.61 8.99 4.17 17.72 8 26.2 12.33 1.67.85 3.48 3.73 3.24 5.38-.23 1.61-2.96 2.93-4.7 4.23-.62.46-1.56.56-2.38.7-9.66 1.62-9.66 1.61-14.19 11.84 1.89.09 3.6.23 5.32.23 31.5.01 63-.06 94.5.1 4 .02 6.94-.72 9.25-4.25 1.98-3.03 4.61-5.63 7.44-8.99 6.05 4.47 12.1 8.53 17.66 13.18 4.26 3.56 3.86 8.8-1.32 10.18-8.67 2.31-8.64 8.38-8.97 15.01-.71 14.62-1.26 29.26-2.42 43.84-.84 10.58-2.12 21.17-4 31.61-2.71 15.09-18.4 22.95-30.19 22.06-1.08-15.77-15.05-15.73-25.96-20.52.13-1.51.28-3.21.46-5.23 8.11 1.53 15.72 2.96 23.33 4.4 8.59 1.62 13.73-1.08 15.89-9.41 1.57-6.07 2.48-12.4 2.91-18.67 1.37-19.9 2.38-39.83 3.5-59.75.05-.95-.16-1.91-.28-3.14-1.89-.09-3.51-.23-5.14-.23-34.5-.01-69 .04-103.5-.09-3.41-.01-5.49.89-7.07 4-1.94 3.83-4.44 7.38-6.94 11.45zm15.18 54.17h51.05c0-10.93 0-21.64 0-32.25-17.26 0-34.13 0-51.05 0z"/><path d="m107.63 299.75c-24.58 7.53-48.91 14.98-73.73 22.59-1.04-3.31-1.65-5.28-2.35-7.51 42.35-13.59 82.29-31.04 117.79-59.42-2.28-.16-3.68-.34-5.08-.33-25.83.02-51.65.01-77.48.14-5.31.03-10.62.81-15.93.82-1.39 0-3.4-1.21-4.06-2.44-1.94-3.63-3.35-7.54-5.18-11.83 7.09.78 13.71 1.65 20.35 2.2 6.13.5 12.28.91 18.43.92 36.66.08 73.31.04 109.97.04h5.49c-1.13-9.44-9.8-21.75-23.05-32.67 1.06-1.52 2.14-3.09 3.81-5.48 9.03 4.92 18.23 9.2 26.63 14.7 9.89 6.47 11.06 12.52 5.92 23.24 1.73.08 3.3.21 4.87.21 33.32.01 66.65-.06 99.97.11 3.75.02 6.2-1.27 8.57-3.89 5.13-5.66 10.47-11.13 15.94-16.9 8.31 7.29 16.55 14.3 24.48 21.64 1.59 1.48 2.03 4.2 3 6.35-2.3.95-4.59 2.71-6.89 2.71-45.65.16-91.31.12-136.96.12-14 0-28-.15-41.99.13-2.72.05-5.74 1.26-8.04 2.8-14.9 9.98-29.66 20.16-44.4 30.38-1.33.92-3.12 2.52-3.14 3.82-.21 16.8-.14 33.6-.14 51.01 31.95-3.28 62.23-11.9 92.94-19.58.46 1.06.9 1.91 1.18 2.81.29.92.41 1.9.83 4-13.24 5.14-26.35 10.68-39.78 15.32-16.14 5.57-32.54 10.42-48.86 15.46-2.59.8-3.36 2.23-4.03 4.8-.81 3.09-2.41 7.72-4.6 8.32-4.34 1.19-5.11-4.06-7.09-6.91-.09-.13-.08-.33-.16-.47-6.01-10.02-8.44-20.56-7.26-32.48 1.11-11.22.21-22.64.19-33.97-.02-.32-.14-.65-.16-.76z"/><path d="m123.45 228.94c-2.37-13.96-7.1-18.5-22.69-21.79-4.52-.95-9.08-1.74-13.54-2.58-.76-7.69-.35-7.96 6.71-6.9 9.52 1.43 19.06 2.71 28.62 3.85 7.65.91 12.09-2.67 12.2-10.22.21-14.81.06-29.63.06-44.88-17.28 0-34.33 0-51.92 0-1.09 35.56-21.33 59.52-49.31 79.07-1.3-1.37-2.4-2.54-3.8-4.02 2.78-2.96 5.39-5.91 8.17-8.69 17.34-17.3 26.17-38.56 26.85-62.65.99-34.95.8-69.93.97-104.9.02-4.61-.77-9.22-1.25-14.61 4.97 2.98 9.55 5.31 13.64 8.29 4.57 3.33 9.43 4.22 14.93 4.09 11.16-.27 22.33-.18 33.49-.01 3.1.05 5.3-.71 7.27-3.23 2.87-3.65 6.17-6.97 9.65-10.84 6.36 4.35 12.88 8.54 19.08 13.16 3.99 2.97 3.67 8.01-.24 11.07-.91.71-1.92 1.64-2.97 1.77-7.71.97-8.13 5.93-8.09 12.42.26 43.65-.22 87.31.31 130.95.22 17.79-11.99 26.89-25.31 30.6-.89.27-1.91.05-2.83.05zm11.16-93.16c0-12.5 0-24.58 0-36.91-17.2 0-34.18 0-51.12 0v36.91zm-.04-82.41c-17.36 0-34.12 0-51.05 0v35.03h51.05c0-11.85 0-23.28 0-35.03z"/><path d="m260.89 310.29c5.98 3.16 10.68 6.01 15.66 8.21 29.37 13.02 60.11 21.05 92.04 24.36 5.07.52 3.65 3.54 3.64 6.66-3.42.52-6.82.95-10.2 1.55-5.21.93-9.17 3.5-11.66 8.41-.55 1.08-2.81 2.2-3.97 1.94-38.62-8.82-74.23-24.03-104.53-50.16-13.49-11.63-23.85-25.76-32.59-41.45 1.86-1.22 3.36-2.2 5.29-3.46 3.6 4.19 6.87 8.58 10.74 12.36 8.44 8.23 17.21 16.12 25.78 24.22 2.73 2.58 5.01 2.59 8.16.29 16.76-12.24 35.06-22.56 48.28-40.29 7.94 6.9 15.65 13.36 23.04 20.17 2.45 2.26.99 5.63-2.51 6.04-2.77.32-5.8.43-8.42-.36-4.64-1.4-8.54-.51-12.82 1.44-13.75 6.24-27.68 12.08-41.54 18.08-1.02.45-2.04.93-4.39 1.99z"/></g><path d="m361.2 9.6.8-1c.9.7 1.9 1.4 2.9 2.3l-.9 1.1c-1-1-2-1.8-2.8-2.4zm.5 10.6c.9-2.1 1.6-4.3 2.3-6.7.4.2.8.4 1.3.6-.7 2.1-1.5 4.3-2.2 6.6zm.4-15.2.9-.9c1 .8 2 1.6 2.8 2.4l-1 1c-.9-.9-1.8-1.7-2.7-2.5zm12.5-1.2h1.2v1.4h2.7v1.1h-2.7v2.7h-1.2v-.6h-1.8v1.3h4.9v3.8h-1.2v-.5h-3.7c0 .4-.1.9-.1 1.2h5.1v1h-5.2c0 .5-.1.9-.2 1.2h6v1h-5.2c1.1 1.3 2.9 2 5.5 2.2-.4.4-.7.8-.9 1.3-2.9-.5-4.8-1.6-5.7-3.5h-.1c-.8 1.7-2.7 2.9-5.9 3.6-.2-.4-.6-.8-.9-1.1 2.8-.6 4.6-1.4 5.4-2.5h-4.8v-1h5.3c.1-.3.2-.7.2-1.2h-4.9v-1h5c0-.4 0-.8.1-1.2h-3.5v.5h-1.2v-3.8h4.9v-1.3h-1.8v.5h-1.2v-2.7h-2.7v-1h2.6v-1.4h1.2v1.4h4.7v-1.4zm-6.6 8.3h3.6c0-.4 0-.9 0-1.4h-3.6zm1.9-4.6h4.7v-1.3h-4.7zm6.6 3.2h-3.7v1.4h3.7z" fill="#fbfafc"/><path d="m385.3 3.8h1.3v2.2h2.8v-2.2h1.3v2.2h4.1v9.1h1.7v1.3h-16.9v-1.3h1.7v-9.1h4.1v-2.2zm.4 13.1.7 1.2c-1.8.9-3.8 1.9-6 2.9-.2-.4-.5-.8-.8-1.3 2.3-1 4.3-1.9 6.1-2.8zm-3.1-6.4h2.8v-3.2h-2.8zm0 4.6h2.8v-3.3h-2.8zm4-4.6h2.8v-3.2h-2.8zm0 4.6h2.8v-3.3h-2.8zm3.7 1.9c2.1.9 4.1 1.8 6.1 2.7l-.7 1.3c-2.2-1.1-4.2-2-6.1-2.9zm3.2-9.7h-2.8v3.2h2.8zm-2.8 7.8h2.8v-3.3h-2.8z" fill="#fbfafc"/></svg>