<svg enable-background="new 0 0 400 400" viewBox="0 0 400 400" xmlns="http://www.w3.org/2000/svg"><g fill="#010103"><path d="m25.66 331.43c15.61-8.53 30.75-16.86 45.96-25.08 2.47-1.33 5.26-2.07 7.78-3.31 1.8-.89 3.93-1.81 5.03-3.35 15.24-21.2 24.18-44.89 27.45-70.76.47-3.74.85-7.49 1.33-11.86-3.89 0-7.18-.06-10.46.01-15.95.31-31.89.76-47.84.88-2.23.02-4.48-1.49-6.72-2.3.86-1.86 1.48-3.89 2.63-5.55 14.29-20.63 28.7-41.18 42.96-61.84 2.12-3.07 3.58-6.61 5.67-10.54-2.38-.14-3.98-.36-5.57-.31-16.62.5-33.24.83-49.84 1.71-4.8.25-7.8-.51-9.17-5.5-.77-2.83-2.34-5.44-3.69-8.47 8.9.74 17.28 1.78 25.68 2.07 13.48.46 26.97.48 40.45.47 1.4 0 3.09-1.16 4.13-2.26 3.2-3.37 6.15-6.97 9.32-10.63 6.94 5.95 12.89 10.75 18.49 15.94 3.87 3.59 2.68 9.06-2.5 9.87-8.22 1.28-12.24 6.73-16.48 12.89-11.22 16.3-22.88 32.3-34.36 48.43-1.05 1.47-2.08 2.96-3.71 5.28 2.22.16 3.72.36 5.23.36 9.66.03 19.33-.22 28.99.12 4.24.15 7.29-1.04 9.93-4.26 2.21-2.69 4.75-5.09 7.51-8 5.84 4.35 11.73 8.36 17.18 12.9 4.63 3.86 3.99 8.05-1.73 9.55-7.01 1.84-9.23 6.01-10.58 12.78-6.2 30.99-12.73 43.18-37.8 73.89 15.28 16.29 33.96 26.74 55.91 30.18 18.67 2.92 37.55 4.98 56.41 6.06 23.24 1.33 46.56 1.59 69.85 1.69 23.64.1 47.28-.44 70.91-.96 10.59-.23 21.17-1.11 32.08-1.71v4.88c-4.57 1.97-8.72 3.51-12.61 5.55-1.65.87-3.67 2.64-3.94 4.27-1.03 6.21-5.16 5.99-9.89 5.95-34.82-.25-69.64-.04-104.45-.56-27.74-.41-55.45-1.67-82.91-6.41-26.48-4.57-49.53-15.47-68.83-34.32-6.91-6.75-10.99-7.04-19.05-1.73-8.75 5.75-17.29 11.82-25.72 18.04-1.42 1.05-1.96 3.45-2.6 5.33-.35 1.05.2 2.39-.12 3.46-.62 2.05-1.58 3.99-2.4 5.97-2.06-1.03-4.71-1.58-6.08-3.2-4.1-4.81-7.68-10.04-11.83-15.62z"/><path d="m218.37 65.98c-9.42 0-18.7 0-28.25 0 0-3.47 0-6.51 0-10.05 6.21 0 12.19.29 18.11-.15 2.27-.17 4.85-1.56 6.52-3.19 3.42-3.34 6.31-7.21 9.64-11.12 6.79 4.6 13.46 8.71 19.65 13.43 4.99 3.8 4.93 8.37-.65 10.97-6.88 3.2-8 8.2-8.65 14.92-2.25 23.31-5.31 46.53-11.57 69.18-.83 2.99.9 4.03 2.94 5.42 32.32 22.06 61.93 47.29 87.16 77.27 7.86 9.34 14.2 20.04 20.5 30.56 3.03 5.07 4.11 11.15 2.46 17.32-1.16 4.33-3.23 7.87-7.88 8.66-4.56.78-8.03-1.58-10.64-5.15-.87-1.19-1.55-2.56-2.11-3.93-13.15-32.47-33.99-59.75-58.01-84.71-10.83-11.25-22.73-21.48-34.16-32.15-.95-.89-2.04-1.63-3.58-2.84-21.12 52.87-48.7 100.74-97.42 135.05-.6-1.15-1.08-2.21-1.69-3.2-.61-.98-1.35-1.88-1.79-2.48 62.79-61.3 98.28-134.53 99.42-223.81z"/><path d="m56.35 35.39c1.39-1.67 2.52-3.02 3.87-4.63 14.6 9.6 29.92 17.93 40.83 31.68 3.79 4.78 6.43 10.82 8.22 16.7.89 2.92-.45 7.38-2.31 10.1-4.33 6.3-12.13 4.81-15.16-2.39-3.08-7.32-5.91-14.77-9.37-21.91-5.1-10.54-13.84-18.13-22.18-26-1.2-1.14-2.43-2.22-3.9-3.55z"/></g><path d="m377.9 391.2c-.2.3-.4.5-.6.8-.7-.6-1.4-1-2.2-1.5.2-.3.4-.5.5-.8.6.4 1.4.8 2.3 1.5zm-1.8 6.1c-.2-.2-.5-.4-.9-.6.4-.6.8-1.2 1.2-1.9s.7-1.3.9-1.9c.3.3.5.5.8.7-.7 1.3-1.4 2.6-2 3.7zm2.2-9c-.3.3-.5.5-.6.8-.6-.6-1.3-1.1-2-1.5.3-.3.5-.5.6-.7.6.5 1.3.9 2 1.4zm.3.2v-.9h2 4.5c-.3 1.3-.6 2.5-1 3.6s-.9 2.1-1.4 3c.4.5 1 1 1.6 1.4s1.2.8 1.9 1.1c-.3.2-.5.4-.8.8-.4-.3-1-.7-1.6-1.2s-1.2-1.1-1.6-1.6c-.5.6-1.1 1.1-1.7 1.6s-1.4.9-2.1 1.4c-.1-.3-.3-.5-.7-.8.6-.2 1.2-.5 1.9-1s1.4-1.1 2-1.8c-.5-.8-.9-1.6-1.2-2.5s-.6-2-.8-3.2c-.4.1-.7.1-1 .1zm2.5 2.7c.3 1 .7 1.7 1 2.2.3-.5.6-1.1 1-2s.6-1.9.9-3h-3.2-.4c.1.9.3 1.8.7 2.8z" fill="#fcfafa"/><path d="m396.5 388.5v1.5 3.6h1.5v.9c-.4 0-1 0-1.7 0h-7.9c-.5 0-.9 0-1.2 0v-.9h1.3v-3.5c0-.7 0-1.2 0-1.6h2.4c0-.8 0-1.4 0-1.7h1c0 .3-.1.8-.1 1.7h1.5c0-.8 0-1.4 0-1.7h1c0 .3-.1.9-.1 1.7zm-8.2 9.2c-.2-.3-.5-.5-.8-.8.8-.3 1.4-.6 1.9-.9s1-.7 1.4-1.1c.3.3.6.5.9.8-1.6 1-2.8 1.6-3.4 2zm2.6-6.8v-1.6h-1.5v1.6zm0 2.7v-1.9h-1.5v1.9zm2.4-2.7v-1.6h-1.5v1.6zm0 2.7v-1.9h-1.5v1.9zm.2 2 .7-.8c.4.2.9.5 1.6.8s1.3.7 1.8 1c-.3.3-.5.5-.8.8-.4-.3-1.5-1-3.3-1.8zm2-4.7v-1.6h-1.4v1.6zm0 2.8v-1.9h-1.4v1.9z" fill="#fcfafa"/></svg>