<svg enable-background="new 0 0 400 400" viewBox="0 0 400 400" xmlns="http://www.w3.org/2000/svg"><path d="m374.8 390.4.4-.4c.7.5 1.3 1 1.8 1.4l-.5.5c-.5-.6-1.1-1.1-1.7-1.5zm1 7.3-.6-.3c.5-1.4 1.1-2.8 1.5-4.3.2.1.4.2.6.3-.5 1.3-1 2.8-1.5 4.3zm-.4-10.3.4-.4c.4.3 1 .8 1.7 1.4l-.5.5c-.4-.5-1-1-1.6-1.5zm2.5.3h1.7v-1h.6v1h3.5v-1h.6v1h1.8v.5h-1.8v1.4h-2v1h3.2v2h-3.2v.9h3.3v.5h-3.4c0 .3-.1.6-.1.9h4v.5h-3.7c.7.9 1.9 1.5 3.8 1.7-.1.2-.2.4-.3.6-2.1-.4-3.5-1.1-4-2.1-.4 1-1.8 1.7-4 2.2-.1-.2-.2-.4-.3-.6 2.1-.4 3.4-1 3.8-1.8h-3.4v-.5h3.6c.1-.3.1-.6.2-.9h-3.3v-.5h3.4c0-.3 0-.6 0-.9h-3.2v-2h3.3v-1h-2.1v-1.4h-1.7v-.5zm1.1 3.5v1h2.7c0-.3 0-.4 0-.4 0-.1 0-.2 0-.2 0-.1 0-.2 0-.3h-2.7zm1.2-3v.9h3.5v-.9zm4.7 3h-2.6v.6.4h2.6z" fill="#fafafb"/><path d="m393.6 386.7h.6v1.5h2.7v6.1h1.1v.6h-11v-.6h1.1v-6.1h2.7v-1.5h.6v1.5h2.1v-1.5zm-2.7 8.8.4.6c-1.2.6-2.5 1.3-3.8 1.9-.1-.2-.2-.4-.3-.6 1.2-.6 2.5-1.2 3.7-1.9zm-2.2-6.7v2.4h2.1v-2.4zm0 3v2.5h2.1v-2.5zm2.8-3v2.4h2.1v-2.4zm0 3v2.5h2.1v-2.5zm6 6.1c-1.4-.7-2.7-1.3-3.9-1.8l.3-.6c1.5.6 2.7 1.2 3.9 1.7zm-1.2-9.1h-2.1v2.4h2.1zm-2.1 3v2.5h2.2v-2.5z" fill="#fafafb"/><g fill="#010100"><path d="m176 330.65c-40.18 0-79.62 0-119.83 0 0 6.47-.27 12.74.07 18.97.35 6.43-3.55 7.82-9.91 8.3-6.55.49-10.7-2.91-10.41-8.51.58-11.29 1.54-22.55 2.34-33.83.14-1.99.31-3.98.32-5.97.02-63.66.08-127.32-.07-190.97-.02-8.08-1.24-16.15-1.93-24.59 5.65 4.24 11.28 8.53 17 12.71 1.28.94 2.87 2.06 4.32 2.07 16.32.15 32.64.09 49.05.09 0-27.01 0-53.73 0-81.13 9.29 2.35 18.92 4.52 28.35 7.35 2.27.68 3.89 3.52 5.8 5.36-2.01 1.99-4.02 3.99-6.05 5.97-.11.11-.3.15-.45.2-3.25 1.13-8.01 1.35-9.38 3.62-1.72 2.86-.78 7.38-.79 11.19-.05 13.83-.02 27.66-.02 41.49v5.95h24.89c1 0 2-.04 3 .01 12.95.64 26.19 2.03 32.09-14.46 7.65 5.02 14.4 8.92 20.52 13.62 4.96 3.8 4.45 7.46-.59 11.31-.79.6-1.61 1.33-2.53 1.57-7.31 1.91-7.78 7.1-7.75 13.62.23 55.49-.05 110.99.26 166.48.08 13.77 1.71 27.53 2.62 41.29.1 1.5.15 2.99.22 4.49.18 3.9.41 7.97-4.07 9.77-4.85 1.95-9.96 2.22-14.21-1.11-1.64-1.29-2.6-4.23-2.74-6.5-.37-5.95-.12-11.95-.12-18.36zm-68.74-10.81c0-32.51 0-64.43 0-96.47-17.08 0-33.82 0-50.67 0v96.47zm17.44-.16h50.87c0-32.36 0-64.4 0-96.27-17.18 0-33.93 0-50.87 0zm.05-107.13h50.96c0-31.47 0-62.55 0-93.71-17.17 0-34.04 0-50.96 0zm-17.6.15c0-31.53 0-62.72 0-93.89-17.19 0-33.93 0-50.65 0v93.89z"/><path d="m286.22 159.38c15.91-33.12 31.43-66.14 44.01-100.94-26.22 0-51.8 0-77.88 0-.11 1.38-.33 2.79-.33 4.21.01 88.15-.04 176.31.14 264.46.02 11.12 1.27 22.23 2.03 33.35.67 9.85-5.79 12.76-14.24 11.3-1.9-.33-3.68-3.2-4.85-5.28-.71-1.27-.17-3.26-.17-4.93 0-95.82.06-191.64-.09-287.46-.02-11.95-1.19-23.9-1.8-35.85-.07-1.41-.01-2.84-.01-5.21 6.2 4.59 11.53 8.77 17.12 12.55 1.92 1.29 4.5 2.23 6.78 2.25 23 .16 45.99.18 68.99-.03 2.08-.02 4.64-1.43 6.12-3 3.28-3.48 6.01-7.47 9.25-11.62 7.11 5.23 14.09 10 20.65 15.3 4.72 3.82 4.11 7.36-1.13 10.63-.7.44-1.41 1.03-2.18 1.16-8.82 1.42-12 8.18-15.84 15.18-14.64 26.68-29.89 53.02-44.91 79.5-.41.72-.73 1.48-1.26 2.56 6.09 5.35 12.24 10.64 18.26 16.06 20.2 18.23 36.69 39.02 44.59 65.6 4.27 14.36 5.92 29.03 3.02 43.83-5.05 25.73-19.31 39.65-45.28 44.69-.91-8.76-6.25-14.19-14.01-17.17-8.81-3.39-17.85-6.17-27.42-9.43.33-1.67.74-3.81 1.04-5.35 13.13 2.16 25.66 4.61 38.3 6.21 16.76 2.12 26.48-5.65 28.72-22.75 3.71-28.34-2.73-54.52-18.02-78.49-10.37-16.3-22.98-30.58-39.6-41.33z"/></g></svg>