<svg enable-background="new 0 0 400 400" viewBox="0 0 400 400" xmlns="http://www.w3.org/2000/svg"><g fill="#010100"><path d="m352.7 177.71c5.91 4.13 11.81 7.88 17.28 12.18 5.8 4.57 5.55 7.61-.32 12.2-.91.71-1.85 1.55-2.91 1.9-6.12 2.01-6.94 6.32-6.89 12.27.29 40.16.15 80.32.15 120.48 0 19.19-8.59 29.43-28.22 33.03-.84-15.35-11.79-19.71-24.53-22.09-4.06-.76-8.07-1.75-12.01-2.61-.61-7.43.13-7.82 7.28-6.76 10.01 1.49 20.07 2.8 30.16 3.58 6.55.5 10.17-3.05 10.18-9.49.09-42.99.04-85.99.02-128.98 0-.46-.23-.93-.43-1.69-14.24 0-28.49 0-43.31 0 0 8.12-.25 16.07.1 23.98.19 4.37 4.56 7.84 10.03 8.1 4.91.23 9.85-.48 14.78-.52 2.58-.02 5.68-.3 7.61.97 2.04 1.35 4.12 4.42 4.06 6.67-.07 2.15-2.44 5.19-4.56 6.14-8.26 3.72-17.18 3.23-26 2.72-2.15-.12-4.3-.45-6.41-.86-11.85-2.31-16.68-8.2-16.74-20.44-.05-8.81-.01-17.63-.01-27.03-9.8 0-19.25-.1-28.7.16-.87.02-2.11 2.18-2.45 3.53-2.62 10.5-5.19 20.96-11.6 30.04-9.4 13.3-22.43 21.41-37.51 27.36-.93-1.72-1.69-3.14-2.74-5.08 19.59-13.48 32.78-30.88 33.97-55.73-14.01 0-27.76 0-41.92 0v6.25 144.98c0 1.67.05 3.34-.05 5-.53 8.44-6.3 12.31-14.39 9.69-3.93-1.27-5.91-5.13-5.61-9.97 1.05-17.25 2.6-34.51 2.79-51.77.4-36.99.1-73.99-.02-110.98-.02-5.13-.62-10.25-1.02-16.52 5.54 3.68 10.13 7.21 15.17 9.91 3.19 1.71 7.03 3.1 10.58 3.12 45.16.21 90.32.08 135.48.22 4.32.01 7.61-.76 10.26-4.45 2.3-3.22 5.26-5.98 8.45-9.51z"/><path d="m273.97 111.83c-32.22 27.93-68.73 44.27-108.65 54.46-.75-1.95-1.46-3.78-2.36-6.12 30.96-12.54 61.45-25.89 86.55-50.99-3.7 0-6.13-.03-8.55.01-17.31.29-34.62.59-51.93.9-.5.01-1 .05-1.5.07-3.78.22-9.11 2.08-10.99.3-3.35-3.18-4.61-8.55-6.52-12.54h99c-12.12-11.7-27.05-19.75-42.43-27.11.99-5.42 1.08-5.68 6.04-4.02 13.84 4.63 27.59 9.53 41.41 14.22 1.59.54 3.95 1.24 5.04.51 10.27-6.91 20.34-14.12 30.98-21.6-39.91 0-78.77 0-118.43 0-1.7-3.82-3.83-8.58-6.18-13.85 7.13.69 13.53 1.59 19.95 1.87 11.47.5 22.95.79 34.42.86 22 .13 44-.1 65.99.15 4.56.05 7.92-1.12 10.95-4.43 2.79-3.06 5.99-5.73 9.51-9.05 7.1 6.53 14.35 12.6 20.85 19.38 5.17 5.39 3.66 9.04-3.59 10.66-.96.22-1.98.6-2.91.46-9.12-1.38-16.78 2.37-24.57 6.38-10.76 5.54-21.81 10.52-32.13 15.45.64 3.76 1.21 7.15 1.9 11.21h17.41c11.67 0 23.34-.22 34.99.1 4.9.14 8.68-.91 11.53-5.07 1.29-1.89 3.11-3.43 5.05-5.52 6.79 4.62 13.7 8.89 20.11 13.81 5.14 3.94 4.37 7.36-1.52 9.83-.46.19-.91.58-1.37.59-9.8.25-15.53 7.19-21.97 13.12-7.95 7.31-16.17 14.33-24.44 21.61-1.85-1.66-3.3-2.97-4.85-4.37 8.15-11.02 16.11-21.8 24.73-33.46-18.68 0-36.15 0-54.33 0v6.29c0 12.5.11 25-.03 37.5-.22 19.09-8.18 28.48-27.05 32.25-.25-.21-.67-.4-.71-.65-1.79-11.92-8.69-18.41-20.61-20.14-5.52-.8-10.91-2.51-16.55-3.85.32-2.34.61-4.44 1.01-7.38 6.66.92 13.29 1.96 19.96 2.71 6.1.69 12.23 1.37 18.36 1.5 5 .11 8.3-3.16 8.36-8.01.18-12.13.07-24.27.07-38.04z"/><path d="m103.5 323.04c15.89-4.58 31.3-9.03 47.34-13.65.6 1.79 1.3 3.88 2.28 6.81-8.42 3.62-16.76 7.66-25.42 10.84-22.29 8.18-44.68 16.07-67.11 23.85-3.23 1.12-4.87 2.63-5.6 5.95-.71 3.23-2.23 6.28-4.27 9.46-8.47-8.38-11.91-19.29-18.36-29.29 18.15-3.47 35.63-6.81 53.35-10.2 0-37.58 0-74.81 0-113.16-12.93.64-25.68 1.02-38.38 2.07-3.75.31-5.88-.01-7.18-3.75-1.19-3.43-2.89-6.68-4.3-9.88 16.56.85 32.99 1.69 49.82 2.56 0-17.63 0-34.34 0-51.95-8.58.61-17 .93-25.35 1.94-2.97.36-4.24-.29-5.25-2.85-1.51-3.84-3.24-7.6-4.48-10.49 18.02.56 36.25 1.05 54.47 1.76 3.51.14 5.95-.99 8.22-3.54 3.86-4.34 7.97-8.45 12.02-12.71 7.43 5.66 14.75 10.9 21.61 16.68 1.78 1.5 2.13 4.68 3.14 7.09-2.15.83-4.29 2.33-6.46 2.37-11.66.24-23.32.1-34.98.12-1.62 0-3.24.14-5.14.22v50.68c6.22 0 12.32.16 18.41-.12 1.38-.06 2.88-1.46 3.98-2.59 4.19-4.28 8.23-8.69 12.53-13.27 7.7 5.89 15.43 11.58 22.84 17.67 1.44 1.18 2.42 4.09 2.04 5.88-.25 1.18-3.28 2.5-5.09 2.52-16.32.19-32.65.11-48.98.11-1.79 0-3.59 0-5.69 0-.01 36.39-.01 72.25-.01 108.87z"/><path d="m243.83 322.41c-.19 1.59-.35 2.55-.41 3.51-.42 6.67-6.05 10.86-12.4 8.69-1.7-.58-3.89-3.09-3.91-4.74-.26-22.79-.17-45.58-.17-69.24 6.32 3.51 11.98 6.88 17.86 9.81 2.42 1.2 5.29 1.99 7.98 2.05 9.65.24 19.32-.05 28.97.17 3.47.08 5.98-.86 8.19-3.55 2.94-3.58 6.21-6.88 9.49-10.46 5.96 3.96 11.8 7.5 17.25 11.56 6.57 4.89 6.43 10.67-1.08 13.71-7.74 3.13-9.57 8.08-8.46 15.4.2 1.3.2 2.69 0 3.99-.79 5.03.91 8.63 5.65 10.8 1.16.53 2.2 1.54 3.04 2.54 2.29 2.75 1.43 5.05-2.08 5.58-1.63.25-3.32.18-4.98.18-19.65.01-39.3.01-58.95.01-1.83-.01-3.64-.01-5.99-.01zm-.05-9.76h45.9c0-10.25 0-20.14 0-30.25-15.39 0-30.46 0-45.9 0z"/><path d="m89.61 29.99c8.79 2.49 17.59 4.75 26.19 7.6 1.84.61 2.97 3.34 4.43 5.09-1.87 1.41-3.55 3.42-5.66 4.1-3.23 1.03-6.75 1.15-11.47 1.84 2.11 1.77 3.33 2.93 4.67 3.91 15.22 11.08 30.3 22.34 41.93 37.42 4.39 5.69 8.09 11.8 7.48 19.52-.29 3.72-1.32 7.03-5.14 8.35-4.07 1.41-7.71.23-10.06-3.38-2.26-3.47-4.31-7.12-6.01-10.89-8.13-18.02-20.24-32.99-35.52-47.21-14.09 41.57-38.85 74.51-74.32 99.6-1.09-1.31-2.24-2.69-3.69-4.42 35.14-33.33 57.53-73.59 67.17-121.53z"/><path d="m135.31 239.75c7.82 2.68 16.04 5.28 24.05 8.41 1.92.75 3.16 3.26 4.71 4.96-1.8 1.42-3.51 3.92-5.42 4.08-7.9.67-11.74 5.56-15.65 11.79-7.22 11.52-15.54 22.34-23.22 33.59-2.65 3.88-5.19 4.78-8.05 1.61 7.89-21.54 15.66-42.78 23.58-64.44z"/><path d="m39.01 243.87c14.51 15.26 29.7 29.63 35.48 50.59 1.48 5.37 1.48 10.87-2.18 15.73-2.44 3.24-5.9 5.2-9.48 3.72-2.45-1.01-5.05-4-5.69-6.58-1.73-7.05-2.17-14.41-3.63-21.54-2.55-12.45-9.13-23.06-16.09-33.45-1.01-1.51-1.97-3.06-3.12-4.85 1.55-1.18 2.95-2.26 4.71-3.62z"/></g><path d="m361.2 9.6.8-1c.9.7 1.9 1.4 2.9 2.3l-.9 1.1c-1-1-2-1.8-2.8-2.4zm.5 10.6c.9-2.1 1.6-4.3 2.3-6.7.4.2.8.4 1.3.6-.7 2.1-1.5 4.3-2.2 6.6zm.4-15.2.9-.9c1 .8 2 1.6 2.8 2.4l-1 1c-.9-.9-1.8-1.7-2.7-2.5zm12.5-1.2h1.2v1.4h2.7v1.1h-2.7v2.7h-1.2v-.6h-1.8v1.3h4.9v3.8h-1.2v-.5h-3.7c0 .4-.1.9-.1 1.2h5.1v1h-5.2c0 .5-.1.9-.2 1.2h6v1h-5.2c1.1 1.3 2.9 2 5.5 2.2-.4.4-.7.8-.9 1.3-2.9-.5-4.8-1.6-5.7-3.5h-.1c-.8 1.7-2.7 2.9-5.9 3.6-.2-.4-.6-.8-.9-1.1 2.8-.6 4.6-1.4 5.4-2.5h-4.8v-1h5.3c.1-.3.2-.7.2-1.2h-4.9v-1h5c0-.4 0-.8.1-1.2h-3.5v.5h-1.2v-3.8h4.9v-1.3h-1.8v.5h-1.2v-2.7h-2.7v-1h2.6v-1.4h1.2v1.4h4.7v-1.4zm-6.6 8.3h3.6c0-.4 0-.9 0-1.4h-3.6zm1.9-4.6h4.7v-1.3h-4.7zm6.6 3.2h-3.7v1.4h3.7z" fill="#fbfafc"/><path d="m385.3 3.8h1.3v2.2h2.8v-2.2h1.3v2.2h4.1v9.1h1.7v1.3h-16.9v-1.3h1.7v-9.1h4.1v-2.2zm.4 13.1.7 1.2c-1.8.9-3.8 1.9-6 2.9-.2-.4-.5-.8-.8-1.3 2.3-1 4.3-1.9 6.1-2.8zm-3.1-6.4h2.8v-3.2h-2.8zm0 4.6h2.8v-3.3h-2.8zm4-4.6h2.8v-3.2h-2.8zm0 4.6h2.8v-3.3h-2.8zm3.7 1.9c2.1.9 4.1 1.8 6.1 2.7l-.7 1.3c-2.2-1.1-4.2-2-6.1-2.9zm3.2-9.7h-2.8v3.2h2.8zm-2.8 7.8h2.8v-3.3h-2.8z" fill="#fbfafc"/></svg>