<svg enable-background="new 0 0 400 400" viewBox="0 0 400 400" xmlns="http://www.w3.org/2000/svg"><path d="m374.8 390.4.4-.4c.7.5 1.3 1 1.8 1.4l-.5.5c-.5-.6-1.1-1.1-1.7-1.5zm1 7.3-.6-.3c.5-1.4 1.1-2.8 1.5-4.3.2.1.4.2.6.3-.5 1.3-1 2.8-1.5 4.3zm-.4-10.3.4-.4c.4.3 1 .8 1.7 1.4l-.5.5c-.4-.5-1-1-1.6-1.5zm2.5.3h1.7v-1h.6v1h3.5v-1h.6v1h1.8v.5h-1.8v1.4h-2v1h3.2v2h-3.2v.9h3.3v.5h-3.4c0 .3-.1.6-.1.9h4v.5h-3.7c.7.9 1.9 1.5 3.8 1.7-.1.2-.2.4-.3.6-2.1-.4-3.5-1.1-4-2.1-.4 1-1.8 1.7-4 2.2-.1-.2-.2-.4-.3-.6 2.1-.4 3.4-1 3.8-1.8h-3.4v-.5h3.6c.1-.3.1-.6.2-.9h-3.3v-.5h3.4c0-.3 0-.6 0-.9h-3.2v-2h3.3v-1h-2.1v-1.4h-1.7v-.5zm1.1 3.5v1h2.7c0-.3 0-.4 0-.4 0-.1 0-.2 0-.2 0-.1 0-.2 0-.3h-2.7zm1.2-3v.9h3.5v-.9zm4.7 3h-2.6v.6.4h2.6z" fill="#fafafb"/><path d="m393.6 386.7h.6v1.5h2.7v6.1h1.1v.6h-11v-.6h1.1v-6.1h2.7v-1.5h.6v1.5h2.1v-1.5zm-2.7 8.8.4.6c-1.2.6-2.5 1.3-3.8 1.9-.1-.2-.2-.4-.3-.6 1.2-.6 2.5-1.2 3.7-1.9zm-2.2-6.7v2.4h2.1v-2.4zm0 3v2.5h2.1v-2.5zm2.8-3v2.4h2.1v-2.4zm0 3v2.5h2.1v-2.5zm6 6.1c-1.4-.7-2.7-1.3-3.9-1.8l.3-.6c1.5.6 2.7 1.2 3.9 1.7zm-1.2-9.1h-2.1v2.4h2.1zm-2.1 3v2.5h2.2v-2.5z" fill="#fafafb"/><g fill="#010100"><path d="m352.58 371.55c-24.35-15.82-46.29-33.49-64.79-55.77-12.25 13.7-26.06 24.97-41.28 34.24-13.3 8.1-27.46 14.79-41.08 22.39-5.03 2.8-7.2 1.05-8.48-4.43 30.28-17.05 58.01-37.72 81.04-64.58-25.75-34.62-32.08-76.06-42.39-116.24-9.82 63.24-28.76 122.32-74.37 170.54-1.76-1.68-3.48-3.33-5.19-4.96 50.75-69.17 64.29-148.97 68.48-231.74-7.54 0-14.63 0-21.72 0-6.97 0-13.94 0-21.82 0-1.85-3.96-4.2-9.01-6.28-13.48 16.47 1.03 32.93 2.05 50.68 3.16 0-26.89 0-52.57 0-79.22 7.91 1.75 15.44 3.32 22.92 5.11 2.89.69 5.82 1.57 8.45 2.91 4.26 2.17 4.71 5.97.72 8.54-3.11 2-7.07 2.65-10.49 4.23-1.39.64-3.38 2.14-3.39 3.27-.21 17.95-.15 35.9-.15 54.19 1.3.07 2.59.21 3.87.21 26.66.03 53.33.12 79.99-.05 2.31-.01 5.05-1.27 6.83-2.83 5.24-4.58 10.1-9.6 15.51-14.83 7.57 6.8 15.43 13.66 23.04 20.8 2.59 2.43 1.12 6.29-2.47 7.18-1.42.35-2.98.21-4.47.21-39 .01-77.99.01-116.99.01-1.97 0-3.95 0-6.17 0-1.64 17.71-3.25 34.99-4.9 52.78 1.28.12 2.69.37 4.09.38 26.66.1 53.32.25 79.98.11 2.22-.01 4.94-1.53 6.53-3.2 3.31-3.47 6.01-7.52 9.21-11.65 6.53 5.65 13.09 10.98 19.25 16.75 5.31 4.97 4.44 10.11-2.55 11.8-7.78 1.87-10.29 6.44-12.44 13.62-6.71 22.4-13.72 44.78-22.15 66.57-4.19 10.84-11.57 20.5-17.87 30.46-1.97 3.12-1.97 5 .63 7.59 20.57 20.47 42.67 38.66 70.64 48.32 1.7.59 3.65 1.23 4.74 2.49.71.83.62 3.23-.1 4.18-.78 1.03-2.76 1.79-4.12 1.65-8.62-.86-15.85 1.31-20.94 9.29zm-107.35-187.97c5.82 33.94 30.59 93.09 43.83 104.68 20.41-32.1 30.43-67.83 38.48-104.68-27.8 0-54.86 0-82.31 0z"/><path d="m90.93 245.59c-9.4 0-18.36-.2-27.3.06-7.13.21-14.25 1.12-21.38 1.37-1.36.05-3.39-1.16-4.05-2.37-1.98-3.61-3.43-7.51-4.97-11.01 19.08.96 38.06 1.91 57.4 2.88 0-22.12 0-43.02 0-64.13-8.54 0-17.02-.53-25.39.13-12.22.96-12.19 1.33-17.03-9.76-.46-1.04-.77-2.15-1.37-3.82 7.14.73 13.82 1.83 20.52 2.02 18.63.53 37.28.74 55.92.84 1.64.01 3.53-1.48 4.89-2.72 5.28-4.81 10.39-9.8 15.79-14.94 6.16 6.17 12.74 12.52 18.98 19.21 1.33 1.43 2.26 4.33 1.73 6.05-.39 1.28-3.41 2.47-5.28 2.49-15.16.2-30.32.11-45.48.11-1.79 0-3.58 0-5.59 0v63.81c6.69 0 13.14.14 19.58-.11 1.38-.06 2.88-1.36 4.03-2.42 5.25-4.86 10.38-9.84 16.04-15.24 7.23 6.47 14.94 13.22 22.41 20.23 1.07 1 1.85 3.76 1.24 4.73-.82 1.3-3.14 2.3-4.82 2.31-17.49.16-34.99.1-52.48.11-1.95 0-3.9 0-6.05 0v91.65c17.53-8.21 34.41-16.12 51.67-24.2 2.25 2.78 2.88 5.42-1.27 8.98-13.94 11.97-28.68 22.72-44.87 31.4-3.48 1.87-5.42 4.07-4.82 8.17.16 1.08-.02 2.47-.6 3.36-1.01 1.54-2.31 3.7-3.74 3.92-1.46.22-4.02-1.19-4.72-2.58-3.82-7.56-7.51-15.21-10.55-23.11-.78-2.03 1.42-5.03 1.48-7.61.21-9.33.08-18.66.08-27.99 0-18.66 0-37.32 0-55.98 0-1.8 0-3.59 0-5.84z"/><path d="m79.62 90.82c16.79 0 32.77.07 48.74-.11 1.53-.02 3.24-1.38 4.51-2.51 5.34-4.74 10.55-9.64 16.22-14.86 7.07 6.31 14.96 13.12 22.56 20.25 2.87 2.69 1.21 6.69-2.75 7.34-1.46.24-2.99.07-4.49.07-17.49 0-34.97.07-52.46-.02-10.8-.06-21.61-.21-32.41-.65-3.69-.15-5.59 1.09-7.27 4.36-10.78 20.89-24.93 39.25-42.3 55.1-.36.33-.83.52-1.4.87-1.48-1.29-2.95-2.59-3.61-3.17 9.09-14.85 18.73-29.01 26.72-44.04 13.42-25.24 22.26-52.19 26.22-80.6.42-3.01 1.74-3.56 4.31-2.95 7.42 1.76 14.91 3.25 22.23 5.35 2.07.6 5.37 3.49 5.09 4.41-.72 2.37-3.01 5.87-4.88 6.01-10.23.73-12.19 8.05-14.58 15.86-2.95 9.62-6.73 18.99-10.45 29.29z"/><path d="m285.8 42.05c13.4 4.46 25.78 10.3 36.88 18.63 5.1 3.82 8.49 8.85 6.37 15.35-.89 2.72-3.61 5.59-6.23 6.83-3.41 1.6-6.27-.82-8.09-4.01-6.95-12.24-16.66-21.82-28.32-29.56-3.29-2.2-3.18-2.35-.61-7.24z"/></g></svg>