<svg enable-background="new 0 0 400 400" viewBox="0 0 400 400" xmlns="http://www.w3.org/2000/svg"><path d="m374.8 390.4.4-.4c.7.5 1.3 1 1.8 1.4l-.5.5c-.5-.6-1.1-1.1-1.7-1.5zm1 7.3-.6-.3c.5-1.4 1.1-2.8 1.5-4.3.2.1.4.2.6.3-.5 1.3-1 2.8-1.5 4.3zm-.4-10.3.4-.4c.4.3 1 .8 1.7 1.4l-.5.5c-.4-.5-1-1-1.6-1.5zm2.5.3h1.7v-1h.6v1h3.5v-1h.6v1h1.8v.5h-1.8v1.4h-2v1h3.2v2h-3.2v.9h3.3v.5h-3.4c0 .3-.1.6-.1.9h4v.5h-3.7c.7.9 1.9 1.5 3.8 1.7-.1.2-.2.4-.3.6-2.1-.4-3.5-1.1-4-2.1-.4 1-1.8 1.7-4 2.2-.1-.2-.2-.4-.3-.6 2.1-.4 3.4-1 3.8-1.8h-3.4v-.5h3.6c.1-.3.1-.6.2-.9h-3.3v-.5h3.4c0-.3 0-.6 0-.9h-3.2v-2h3.3v-1h-2.1v-1.4h-1.7v-.5zm1.1 3.5v1h2.7c0-.3 0-.4 0-.4 0-.1 0-.2 0-.2 0-.1 0-.2 0-.3h-2.7zm1.2-3v.9h3.5v-.9zm4.7 3h-2.6v.6.4h2.6z" fill="#fafafb"/><path d="m393.6 386.7h.6v1.5h2.7v6.1h1.1v.6h-11v-.6h1.1v-6.1h2.7v-1.5h.6v1.5h2.1v-1.5zm-2.7 8.8.4.6c-1.2.6-2.5 1.3-3.8 1.9-.1-.2-.2-.4-.3-.6 1.2-.6 2.5-1.2 3.7-1.9zm-2.2-6.7v2.4h2.1v-2.4zm0 3v2.5h2.1v-2.5zm2.8-3v2.4h2.1v-2.4zm0 3v2.5h2.1v-2.5zm6 6.1c-1.4-.7-2.7-1.3-3.9-1.8l.3-.6c1.5.6 2.7 1.2 3.9 1.7zm-1.2-9.1h-2.1v2.4h2.1zm-2.1 3v2.5h2.2v-2.5z" fill="#fafafb"/><g fill="#010100"><path d="m264.31 180c0-11.5 0-22.43 0-33.9-8.54 0-16.84-.34-25.08.16-3.39.21-6.59 2.66-10.03 3.34-6 1.18-8.27-.93-8.27-6.96-.01-21.32 0-42.65 0-65.26 13.46 8.85 26.8 16.19 43.33 11.48 0-8.97 0-18.37 0-28.8-11.2.5-22.09.99-32.99 1.48-.16.01-.32.07-.49.1-8.59 1.33-8.6 1.33-12.21-6.54-.96-2.09-1.88-4.19-3.24-7.24 3.1.22 5.44.35 7.79.56 7.94.71 15.86 2.01 23.8 2.08 28.99.25 57.98-.01 86.97.21 4.58.03 7.95-1.12 10.81-4.64 3.15-3.88 6.59-7.51 10.38-11.8 7.47 6.41 14.14 11.83 20.36 17.72 1.32 1.25 1.68 4.41 1.17 6.34-.28 1.07-3.29 1.98-5.07 2-15.99.15-31.99.09-47.99.09-1.96 0-3.93 0-6.2 0v29.39c6.87 0 13.64.12 20.41-.11 1.21-.04 2.57-1.33 3.53-2.36 3.41-3.63 6.69-7.4 10.48-11.64 6.35 4.41 12.93 8.56 19.02 13.34 4.75 3.74 4.31 9.44-1.39 11.42-7.71 2.68-8.85 7.64-8.06 14.49.34 2.96.21 6 .02 8.99-.37 5.95-.49 11.56 6.24 14.66 1.24.57 2.58 4.01 2.01 4.79-1.02 1.42-3.42 2.54-5.26 2.57-15.48.19-30.97.11-46.88.11v33.2c12.38 3.36 21.79-.11 27.01-13.36 6.78 5.29 12.84 9.58 18.36 14.48 4.34 3.85 3.92 6.98-1.34 9.62-5.36 2.69-6.79 6.36-6.68 12.23.4 21.15.05 42.32.21 63.48.07 8.64.85 17.28 1.05 25.93.16 6.62-3.07 9.94-9.47 10.35-6.41.41-8.74-1.68-9.05-8.08-.05-.96-.22-1.92-.36-3.18-30.63 0-61.05 0-91.47.01-2.32 9.19-7.2 12.45-15.12 9.39-1.99-.77-4.19-3.42-4.55-5.51-.7-4.03-.21-8.28-.12-12.43.61-27.61 1.43-55.22 1.78-82.83.14-10.94-.74-21.88-1.17-33.27 4.2 2.98 8.66 5.76 12.67 9.09 4.46 3.7 9.21 5.55 15.05 4.89 3.13-.37 6.32-.08 10.04-.08zm15.94-.32h19.39c0-39.83 0-79.35 0-118.99-6.62 0-12.88 0-19.39 0zm-35.11 100.45h37.46c0-13.53 0-26.6 0-39.65-12.7 0-25.05 0-37.46 0zm55.07.02h37.05c0-13.51 0-26.58 0-39.7-12.52 0-24.72 0-37.05 0zm-17.58-50.36c0-13.36 0-26.23 0-39.24-12.65 0-24.99 0-37.35 0v39.24zm17.67-.17h36.89c0-13.29 0-26.2 0-39.12-12.49 0-24.58 0-36.89 0zm-62.03-130.19v36.77h25.99c0-12.44 0-24.48 0-36.77-8.75 0-17.15 0-25.99 0zm79.05-.05v36.79h26.25c0-12.48 0-24.53 0-36.79-8.8 0-17.23 0-26.25 0z"/><path d="m29.98 369.34c-5.71-1.02-6.6-3.12-5.21-7.3 8.15-24.53 13.14-49.77 15.76-75.44 1.84-18.02 3.07-36.11 4.28-54.19 3.49-52.55 2.93-105.17 2.67-157.78-.06-12.25-1.61-24.5-2.47-36.75-.07-.97-.01-1.95-.01-3.82 6.18 4.17 11.66 8.11 17.42 11.62 2.13 1.3 4.87 2.21 7.34 2.22 34.83.14 69.65.06 104.48.15 3.05.01 5.29-.6 7.24-3.19 2.88-3.83 6.22-7.31 9.75-11.39 6.68 5.34 13.25 10.38 19.55 15.73 3.76 3.19 3.69 7.01-.23 10.09-2.7 2.12-6.22 3.17-8.99 5.21-1.56 1.15-3.33 3.36-3.33 5.1-.17 44.16-.49 88.32.08 132.47.24 18.73 1.37 37.6 4.07 56.12 2.95 20.22 9.8 39.44 24.49 54.65 21.08 21.82 46.68 34.29 77.15 36.09 9.96.59 19.94.75 29.92 1.04 8.34.24 14.7-3.19 17.75-11.06 3.7-9.58 6.8-19.38 10.14-29.1.53-1.55.97-3.13 1.45-4.67 5.01-.01 6.38 2.5 5.81 6.97-.72 5.6-1.04 11.24-1.62 16.86-.84 8.11.57 15.41 6.23 21.78 5.53 6.23 4.64 11.09-3.28 13.5-8.15 2.49-16.8 4.16-25.31 4.54-24.85 1.11-49.63-.31-73.5-7.91-46.17-14.69-74.43-46.22-84.45-93.47-2.84-13.4-4.19-27.33-4.36-41.04-.66-53.97-.59-107.94-.78-161.91-.01-1.96 0-3.92 0-6.14-39.39 0-78.31 0-118 0v5.24c0 17.5.3 35-.06 52.49-.81 39.27-1.6 78.54-3.05 117.78-1.18 32.11-5.24 63.93-15.03 94.66-4.43 13.88-10.53 27.2-15.9 40.85z"/><path d="m128.42 107.07v45.98c12.73 3.97 21.74-.76 27.74-12.89 6.47 4.93 12.52 9.06 17.96 13.86 4.34 3.82 3.93 7.57-1.46 9.63-7.01 2.68-7.93 7.26-7.73 13.85.44 14.99.49 30.01-.03 44.99-.21 5.99 2.01 9.74 6.53 12.82.41.28 1.06.45 1.22.83.71 1.68 1.95 3.56 1.65 5.1-.19.97-2.77 2.06-4.29 2.08-12 .17-24 .09-36 .11-1.79 0-3.57.15-5.59.23v68.1c12.44-3.67 24.39-7.19 37.6-11.09-6.07-10.88-11.67-20.92-17.5-31.37 1.11-1.03 2.52-2.35 4.29-4 13.23 15 27.23 29.2 34.45 48.08 1.93 5.04 1.87 11.06 1.71 16.61-.16 5.5-4.48 9.13-9.31 9.18-5.13.05-7.14-1.83-8.14-8.57-1.09-7.33-1.79-14.71-2.69-22.29-11.19 4.75-21.49 9.67-32.18 13.53-16.09 5.81-32.42 10.93-48.7 16.2-2.77.9-4.4 1.99-5.1 5.16-.77 3.52-2.71 6.78-4.13 10.16-.82.08-1.65.15-2.47.23-4.94-9.34-9.87-18.68-15.23-28.8 17.53-3.48 34.2-6.79 51.21-10.17 0-23.51 0-46.92 0-70.77-6.22 0-12.44 0-19.22 0 0 1.66-.19 3.3.03 4.88.88 6.3-2.53 9.34-10.44 9.19-6.46-.13-9.17-4.29-8.48-10.73.92-8.59 1.7-17.22 1.8-25.85.24-20.66.14-41.33-.04-62-.06-6.6-.79-13.2-1.29-21.08 5.41 4.06 10.04 7.18 14.25 10.79 4.26 3.65 8.75 5.71 14.48 4.95 2.77-.37 5.64-.06 8.86-.06 0-15.66 0-31.04 0-47.14-9.19.55-18.1 1.08-27.48 1.64-2.15-4.56-4.38-9.3-6.35-13.5 15.18.63 30.26 1.19 45.33 1.95 3.46.18 5.99-.79 8.27-3.39 3.29-3.75 6.88-7.23 10.89-11.4 7.73 5.98 15.24 11.65 22.53 17.59.9.74 1.4 3.66.8 4.23-1.52 1.46-3.74 2.95-5.73 3.02-9.16.31-18.33.14-27.49.14-1.31-.01-2.63-.01-4.53-.01zm-.04 126.39h19.23c0-23.28 0-46.18 0-69.12-6.56 0-12.79 0-19.23 0zm-16.19.18c0-23.37 0-46.37 0-69.23-6.62 0-12.84 0-18.83 0v69.23z"/></g></svg>