<svg enable-background="new 0 0 400 400" viewBox="0 0 400 400" xmlns="http://www.w3.org/2000/svg"><path d="m374.8 390.4.4-.4c.7.5 1.3 1 1.8 1.4l-.5.5c-.5-.6-1.1-1.1-1.7-1.5zm1 7.3-.6-.3c.5-1.4 1.1-2.8 1.5-4.3.2.1.4.2.6.3-.5 1.3-1 2.8-1.5 4.3zm-.4-10.3.4-.4c.4.3 1 .8 1.7 1.4l-.5.5c-.4-.5-1-1-1.6-1.5zm2.5.3h1.7v-1h.6v1h3.5v-1h.6v1h1.8v.5h-1.8v1.4h-2v1h3.2v2h-3.2v.9h3.3v.5h-3.4c0 .3-.1.6-.1.9h4v.5h-3.7c.7.9 1.9 1.5 3.8 1.7-.1.2-.2.4-.3.6-2.1-.4-3.5-1.1-4-2.1-.4 1-1.8 1.7-4 2.2-.1-.2-.2-.4-.3-.6 2.1-.4 3.4-1 3.8-1.8h-3.4v-.5h3.6c.1-.3.1-.6.2-.9h-3.3v-.5h3.4c0-.3 0-.6 0-.9h-3.2v-2h3.3v-1h-2.1v-1.4h-1.7v-.5zm1.1 3.5v1h2.7c0-.3 0-.4 0-.4 0-.1 0-.2 0-.2 0-.1 0-.2 0-.3h-2.7zm1.2-3v.9h3.5v-.9zm4.7 3h-2.6v.6.4h2.6z" fill="#fafafb"/><path d="m393.6 386.7h.6v1.5h2.7v6.1h1.1v.6h-11v-.6h1.1v-6.1h2.7v-1.5h.6v1.5h2.1v-1.5zm-2.7 8.8.4.6c-1.2.6-2.5 1.3-3.8 1.9-.1-.2-.2-.4-.3-.6 1.2-.6 2.5-1.2 3.7-1.9zm-2.2-6.7v2.4h2.1v-2.4zm0 3v2.5h2.1v-2.5zm2.8-3v2.4h2.1v-2.4zm0 3v2.5h2.1v-2.5zm6 6.1c-1.4-.7-2.7-1.3-3.9-1.8l.3-.6c1.5.6 2.7 1.2 3.9 1.7zm-1.2-9.1h-2.1v2.4h2.1zm-2.1 3v2.5h2.2v-2.5z" fill="#fafafb"/><g fill="#010100"><path d="m67.84 341.2c14.84-1.94 70.86-20.56 82.58-27.54-6.81-10.59-13.61-21.15-20.57-31.97 1.46-1.23 2.95-2.49 4.82-4.07 15.49 14.08 30.56 28.38 39.16 47.9 2.67 6.06 4.56 12.6 2.22 19.37-1.48 4.3-3.87 8.03-8.98 8.09-4.96.06-6.75-3.94-7.79-7.82-2.1-7.79-3.77-15.69-5.79-24.27-4.85 2.86-8.67 5.48-12.78 7.48-21.34 10.4-42.69 20.8-64.22 30.8-4.22 1.96-6.58 4.17-7.36 8.8-.38 2.26-2.46 4.23-3.78 6.33-1.89-1.66-4.35-2.98-5.56-5.04-3.6-6.16-6.8-12.56-9.92-18.99-.53-1.09.06-2.73.19-4.12.14-1.47.49-2.93.49-4.39.03-55.14.09-110.29-.05-165.43-.02-9.28-.95-18.55-1.5-28.65 6.18 3.6 11.78 7.07 17.6 10.14 2.23 1.18 4.94 2.02 7.44 2.04 22.16.15 44.32-.01 66.47.19 3.76.03 6.23-1.08 8.37-4.02 2.25-3.08 4.88-5.88 7.68-9.21 5.7 4.05 11.52 7.84 16.92 12.15 4.98 3.98 5.04 7.24-.56 9.88-7.17 3.38-8.08 8.51-7.91 15.5.42 17.15-.04 34.32.22 51.47.12 7.96.84 15.93 1.73 23.84 1.11 9.92-2.21 14.36-11.41 14.42-6.04.04-7.52-1.46-7.57-7.7-.01-1.47 0-2.94 0-4.68-26.86 0-53.29 0-80.16 0 .02 26.47.02 52.84.02 79.5zm-.14-90.56h80.08c0-12.12 0-23.88 0-35.9-26.74 0-53.26 0-80.08 0zm-.01-46.99h79.92c0-11.4 0-22.44 0-33.4-26.81 0-53.23 0-79.92 0z"/><path d="m329.45 373.69c-.18-1.25-.35-2.52-.56-3.78-1.18-7.11-4.68-12.5-11.82-14.67-6.19-1.88-12.48-3.46-18.78-4.92-6.42-1.48-6.64-1.73-3.92-8.73 8.86 1.23 17.86 2.47 26.86 3.73.49.07.97.3 1.46.33 13.16.88 18.57 1.59 18.49-15.4-.39-86.49-.18-172.98-.18-259.46 0-1.98 0-3.95 0-6.05-.93-.23-1.54-.52-2.16-.52-42.66.04-85.31.05-127.97.24-5.62.03-11.25.87-16.85 1.55-2.99.36-5.02-.16-6.21-3.31-1.32-3.51-3.14-6.84-4.66-10.07 50.63 4.32 101.1 1.32 151.51 2.1 1.7.03 3.84-1.02 5.07-2.27 3.61-3.65 6.86-7.66 10.5-11.81 6.24 4.28 12.39 8.2 18.2 12.58 5.3 4 5.03 7.62-.33 11.51-.81.59-1.62 1.31-2.54 1.57-6.92 1.92-7.66 6.69-7.64 13.18.23 86.32.18 172.64.09 258.96 0 4.94-.3 10.05-1.53 14.8-2.94 11.35-13.3 18.96-27.03 20.44z"/><path d="m219.06 275.41c0 3.7.09 6.53-.02 9.34-.2 5.22-3.29 7.42-10.22 7.41-6.1-.01-8.94-2.25-8.86-7.52.62-40.09 1.33-80.18 2.03-120.27 0-.28.23-.55.52-1.23 4.9 2.79 9.66 5.77 14.66 8.23 2.71 1.33 5.83 2.47 8.79 2.52 14.98.25 29.98.01 44.96.2 3.35.04 5.59-.98 7.6-3.55 2.76-3.52 5.84-6.8 9.01-10.44 6.15 4.27 12.38 8.13 18.07 12.67 6.08 4.86 5.67 7.98-.75 12.28-.28.18-.5.51-.8.59-8.63 2.24-9.03 8.48-8.82 16.02.49 17.64.3 35.31.05 52.96-.06 4.43 1.13 7.47 4.72 10.12 2.77 2.04 7.47 4.17 5.57 8.23-.86 1.84-5.93 2.33-9.09 2.35-23.65.19-47.3.1-70.95.1-1.94-.01-3.91-.01-6.47-.01zm59.22-90.99c-19.92 0-39.47 0-58.88 0v81.28h58.88c0-27.16 0-54.07 0-81.28z"/><path d="m76.04 115.58c-14.28 12.91-28.42 25.69-42.87 38.76-1.8-2.53-2.93-4.12-4.26-6 35.38-33.72 63.13-72.37 76.83-120.89 9.66 3.82 18.91 7.3 27.95 11.24 1.52.66 3.22 3.49 2.96 4.99-.27 1.57-2.59 3.35-4.39 3.97-2.9 1-6.1 1.14-10.07 1.78 8.86 4.71 17.12 8.83 25.11 13.42 11.12 6.4 21.93 13.29 29.99 23.61 3.66 4.69 6.29 9.8 5.76 16-.31 3.69-1.58 7.02-5.35 8.27-3.56 1.18-6.99.33-9.52-2.62-1.61-1.88-3.18-3.86-4.4-6-11.24-19.75-27.85-34.13-46.09-46.54-12.48 18.75-24.85 37.33-37.49 56.33 5.18.62 10.93 1.68 16.72 1.91 8.98.36 17.99.29 26.97.07 1.88-.05 4.06-1.18 5.53-2.47 4-3.5 7.7-7.34 11.98-11.5 6.94 5.28 14.29 10.62 21.28 16.38 1.23 1.01 1.72 4.07 1.16 5.71-.39 1.14-3.15 2.06-4.86 2.08-20.15.22-40.3.2-60.45.35-4.48.03-9.01.17-13.42.87-3.59.57-5.19-.81-6.3-3.88-.78-2.14-1.96-4.16-2.77-5.84z"/><path d="m197.47 112.78c5.3.45 9.73 1.06 14.18 1.15 20.45.43 40.9.79 61.35.96 1.87.02 4.15-1.07 5.55-2.38 5.09-4.77 9.89-9.85 15.28-15.3 7.83 7.05 15.62 13.73 23 20.83 3.3 3.18 1.58 7.24-2.93 7.9-1.3.19-2.66.06-3.99.06-29.13.02-58.26-.01-87.39.12-5.14.02-10.26.86-15.41 1.03-1.32.04-3.35-.68-3.89-1.68-2.03-3.76-3.58-7.77-5.75-12.69z"/></g></svg>