<svg enable-background="new 0 0 400 400" viewBox="0 0 400 400" xmlns="http://www.w3.org/2000/svg"><g fill="#010103"><path d="m40.85 326.49c-1.96-4.39-4.05-9.05-6.01-13.44 23.79.81 47.4 1.61 70.84 2.4 0-38.78 0-76.47 0-114.75 4.61 3.08 9.52 6.08 14.09 9.52 3.38 2.55 6.86 3.49 11.07 3.44 15.83-.19 31.66-.18 47.49.01 3.52.04 4.99-1.07 5.67-4.48 1.12-5.67 2.71-11.24 4.27-17.47-2.2-.12-3.94-.29-5.67-.29-28.66-.02-57.33-.1-85.99.06-6.12.03-12.26.79-18.36 1.53-4.04.49-7.02.03-8.38-4.51-.94-3.13-2.57-6.06-4.18-9.71 9.33.86 18.03 1.67 26.72 2.47 1.49.14 2.98.31 4.47.32 29.83.02 59.66-.03 89.49.08 3.33.01 5.15-.6 5.77-4.29 1.17-7.02 2.84-13.96 4.43-21.51 7.97 2.36 16.09 4.56 24.03 7.28 1.81.62 3 3.05 4.47 4.65-1.64 1.21-3.26 2.47-4.95 3.62-.53.36-1.27.63-1.89.59-6.53-.42-7.86 3.87-8.55 9.61h5.11c28.66 0 57.33.08 85.99-.14 2.62-.02 5.59-1.53 7.76-3.19 4.62-3.53 8.81-7.61 13.88-12.08 5.26 3.92 11.73 8.74 18.18 13.58 1.73 1.3 3.79 2.39 5 4.07 1.02 1.42 1.57 3.67 1.25 5.35-.18.94-2.48 1.73-3.95 2.11-1.41.36-2.98.1-4.48.1-42.33 0-84.66.07-126.98-.1-4.14-.02-5.85 1.14-6.63 5.2-1.05 5.49-2.85 10.84-4.56 17.08h5.95c22.5 0 45-.18 67.49.14 5.11.07 8.49-1.45 11.12-5.61 1.51-2.38 3.39-4.52 5.6-7.42 6.07 4.37 12.33 8.33 17.94 13.07 4.89 4.13 4.23 8.83-1.88 11.12-6.6 2.48-7.64 6.58-7.54 12.89.35 23.66.14 47.33.14 70.99v6.02c10.22 0 19.99.13 29.76-.14 1.49-.04 3.12-1.69 4.35-2.93 4.79-4.85 9.44-9.83 14.22-14.84 8.33 6.26 16.56 12.21 24.47 18.56 1.76 1.41 3.46 4.29 3.31 6.36-.27 3.77-3.9 3.26-6.71 3.26-99.99 0-199.97-.03-299.96.06-8.96.01-17.91.86-27.66 1.36zm82.76-37.81h158.2c0-5.1 0-9.87 0-14.79-52.83 0-105.46 0-158.2 0zm158.02-24.98c0-5.39 0-10.28 0-15.24-52.78 0-105.19 0-157.9 0v15.24zm.16 35.7c-52.89 0-105.28 0-158.02 0v15.11h158.02c0-5.09 0-9.86 0-15.11zm-158.07-61.73h157.85c0-5.04 0-9.75 0-14.36-52.8 0-105.18 0-157.85 0z"/><path d="m61.06 116.01c0-29.24 0-57.45 0-85.64 5.04 3.58 10.49 7.63 16.15 11.36 1.81 1.19 4.2 2.1 6.33 2.11 28.83.14 57.65.16 86.48-.04 2.29-.02 4.86-1.56 6.78-3.06 3.64-2.85 6.89-6.18 10.59-9.57 5.87 4.79 12.26 9.83 18.41 15.15 1.15 1 2.16 3.44 1.71 4.66-.43 1.16-2.77 1.87-4.4 2.27-1.58.39-3.31.15-4.98.15-37.49 0-74.98 0-112.47 0-1.97 0-3.94 0-6.25 0v15.59h5.04c23.83 0 47.66-.19 71.48.14 5.47.08 9.59-1.07 12.85-5.48 1.26-1.71 3.06-3.02 4.91-4.8 5.1 3.86 10.41 7.56 15.29 11.76 1.32 1.14 2.01 3.86 1.73 5.66-.14.87-3.19 1.81-4.93 1.82-33.33.11-66.65.08-99.98.08-1.98 0-3.96 0-6.33 0v13.76h5.19c22.99 0 45.99-.14 68.98.11 4.89.05 8.6-1.05 11.66-4.89 1.53-1.92 3.63-3.39 5.85-5.4 5.03 4.06 10.16 7.95 14.94 12.23 1.36 1.21 2.85 4.44 2.26 5.21-1.16 1.51-3.71 2.69-5.69 2.7-29.16.16-58.32.11-87.48.11-5.14 0-10.29 0-15.77 0v13.59h6.01c30.99 0 61.99-.06 92.98.08 3.78.02 6.61-.87 9.16-3.76 2.85-3.22 6.18-6.02 9.78-9.46 6.39 5.14 12.8 10.08 18.89 15.38 1.21 1.06 2.18 4.21 1.5 5.17-.93 1.33-3.52 2.08-5.4 2.09-37.99.11-75.98.01-113.97.22-3 .02-6.36 1.43-8.92 3.13-7.75 5.16-15.2 10.78-22.77 16.21-1.58 1.13-3.2 2.2-4.47 4.32 31.35-2.1 62.71-4.21 94.06-6.31.08-.45.17-.91.25-1.36-3.11-2.37-6.22-4.74-9.26-7.06.37-4.29 2.34-5.23 6-3.45 8.34 4.06 17 7.54 24.98 12.19 5.72 3.33 9.99 8.65 8.78 16.06-.38 2.31-2 5.6-3.78 6.19-2.36.77-6.36.25-8.02-1.39-3.48-3.43-6.02-7.86-8.69-12.05-1.97-3.1-4.08-3.59-7.83-2.99-31.3 5.01-62.66 9.7-94.02 14.31-3.1.46-4.45 1.76-5.61 4.54-.9 2.17-3.07 3.81-4.67 5.69-1.89-1.84-4.47-3.35-5.54-5.58-2.29-4.76-5.85-10.28-5.02-14.77.77-4.13 6.62-7.31 10.2-10.94 5.09-5.17 10.14-10.36 15.2-15.55-.24-.6-.48-1.21-.71-1.81-10.34.65-20.7 1.08-31 2.09-3.25.32-4.87-.22-5.99-3.28-1.37-3.7-3.16-7.24-4.93-11.22 11.96 1.3 23.41 2.54 34.46 3.73z"/><path d="m216.4 158.05c-.5-2.8-.82-4.59-1.12-6.27 15.76-3.64 31.64-6.82 47.24-11.01 32.08-8.62 62.89-20.22 89.78-40.5 1.07-.81 3.67-1.02 4.63-.29 5.57 4.19 10.98 8.62 16.16 13.29 1.22 1.1 2.01 3.59 1.68 5.16-.2.94-3.15 2.13-4.57 1.83-10.5-2.24-18.99 3.1-27.91 6.92-27.89 11.95-57.05 19.55-86.84 24.83-12.86 2.3-25.83 4.02-39.05 6.04z"/><path d="m215.68 74.48c12.61-3.79 25.07-7.23 37.33-11.27 24.33-8.01 47.19-18.93 67.34-35.04 1.02-.81 3.33-1.32 4.24-.73 5.45 3.51 10.72 7.31 15.92 11.18 1.29.96 2.37 2.41 3.11 3.85 2.04 3.99.13 6.85-4.37 6.81-.83-.01-1.77.07-2.47-.28-7.02-3.46-12.89-.5-19.22 2.56-29.38 14.25-60.43 23.08-92.73 27.6-.82.11-1.65.23-2.44.47-4.55 1.4-7.18.23-6.71-5.15z"/><path d="m336.53 62.91c5.93 6.02 17.06 8.32 20.63 19.76-2.45.24-3.71.73-4.69.4-8.62-2.91-15.72.97-23.03 4.66-25.43 12.87-52.81 19.41-80.66 24.28-8.79 1.54-17.65 2.65-26.46 3.95-1.96-4.8.02-6.24 4.34-7.21 26.91-6.02 53.49-13.25 78.04-26.14 10.82-5.67 20.86-12.85 31.83-19.7z"/><path d="m59.01 370.64c30.26-9.55 60.49-18.51 83.58-42.81 6.9 4.94 13.93 9.63 20.49 14.89 1.69 1.35 1.93 4.51 2.84 6.84-2.12.61-4.23 1.28-6.38 1.8-.61.15-1.4.09-1.97-.18-7.66-3.63-13.86.39-20.46 3.47-23.18 10.8-47.74 16.99-72.83 21.36-4.2.72-4.53-2.1-5.27-5.37z"/><path d="m245.43 336.5c.22-1.78.43-3.39.72-5.72 5.88 1.04 11.74 1.81 17.46 3.15 17.71 4.15 35.42 8.35 53.02 12.93 4.24 1.1 8.18 3.55 12.08 5.71 5.49 3.03 7.67 7.97 7.48 14.15-.22 6.93-4.9 10.34-11.43 8.04-1.86-.65-3.77-1.56-5.24-2.84-18.76-16.3-41.28-24.98-64.57-32.16-3.14-.97-6.22-2.12-9.52-3.26z"/></g><path d="m377.9 391.2c-.2.3-.4.5-.6.8-.7-.6-1.4-1-2.2-1.5.2-.3.4-.5.5-.8.6.4 1.4.8 2.3 1.5zm-1.8 6.1c-.2-.2-.5-.4-.9-.6.4-.6.8-1.2 1.2-1.9s.7-1.3.9-1.9c.3.3.5.5.8.7-.7 1.3-1.4 2.6-2 3.7zm2.2-9c-.3.3-.5.5-.6.8-.6-.6-1.3-1.1-2-1.5.3-.3.5-.5.6-.7.6.5 1.3.9 2 1.4zm.3.2v-.9h2 4.5c-.3 1.3-.6 2.5-1 3.6s-.9 2.1-1.4 3c.4.5 1 1 1.6 1.4s1.2.8 1.9 1.1c-.3.2-.5.4-.8.8-.4-.3-1-.7-1.6-1.2s-1.2-1.1-1.6-1.6c-.5.6-1.1 1.1-1.7 1.6s-1.4.9-2.1 1.4c-.1-.3-.3-.5-.7-.8.6-.2 1.2-.5 1.9-1s1.4-1.1 2-1.8c-.5-.8-.9-1.6-1.2-2.5s-.6-2-.8-3.2c-.4.1-.7.1-1 .1zm2.5 2.7c.3 1 .7 1.7 1 2.2.3-.5.6-1.1 1-2s.6-1.9.9-3h-3.2-.4c.1.9.3 1.8.7 2.8z" fill="#fcfafa"/><path d="m396.5 388.5v1.5 3.6h1.5v.9c-.4 0-1 0-1.7 0h-7.9c-.5 0-.9 0-1.2 0v-.9h1.3v-3.5c0-.7 0-1.2 0-1.6h2.4c0-.8 0-1.4 0-1.7h1c0 .3-.1.8-.1 1.7h1.5c0-.8 0-1.4 0-1.7h1c0 .3-.1.9-.1 1.7zm-8.2 9.2c-.2-.3-.5-.5-.8-.8.8-.3 1.4-.6 1.9-.9s1-.7 1.4-1.1c.3.3.6.5.9.8-1.6 1-2.8 1.6-3.4 2zm2.6-6.8v-1.6h-1.5v1.6zm0 2.7v-1.9h-1.5v1.9zm2.4-2.7v-1.6h-1.5v1.6zm0 2.7v-1.9h-1.5v1.9zm.2 2 .7-.8c.4.2.9.5 1.6.8s1.3.7 1.8 1c-.3.3-.5.5-.8.8-.4-.3-1.5-1-3.3-1.8zm2-4.7v-1.6h-1.4v1.6zm0 2.8v-1.9h-1.4v1.9z" fill="#fcfafa"/></svg>