<svg enable-background="new 0 0 400 400" viewBox="0 0 400 400" xmlns="http://www.w3.org/2000/svg"><g fill="#010103"><path d="m300.94 316.4c-64.86 0-128.96 0-193.38 0-.17 1.62-.25 3.07-.49 4.49-.81 4.77-5.02 7.64-10.37 7.17-5.12-.44-5.91-3.85-5.9-8.12.06-19 .03-37.99.03-56.99 0-1.8 0-3.61 0-5.92-8.92 2.16-17.36 3.86-25.58 6.31-4.92 1.47-6.97.44-6.55-5.29 7.4-2.66 15.21-5.29 22.88-8.27 31.34-12.21 60.23-28.28 83.31-53.41 7.6-8.27 7.67-8.27 17.89-3.32 3.74 1.81 7.51 3.64 10.97 5.9 1.44.94 3.32 3.6 2.9 4.48-.77 1.61-2.97 3.21-4.79 3.53-5.7.98-11.63.98-16.02 5.62-.33.35-.64.72-1.28 1.45 1.21.23 2.09.54 2.97.54 13.5.03 27 .11 40.49-.08 1.95-.03 4.15-.99 5.77-2.17 3.74-2.74 7.19-5.87 11.36-9.35 6.47 5.6 13.09 10.88 19.07 16.81 1.77 1.75 1.71 5.34 2.5 8.09-2.73.59-5.6 2.02-8.17 1.6-4.97-.81-9.26-.56-13.7 2.21-5.86 3.66-12.13 6.64-18.01 11.15h5.17c23.5 0 46.99-.12 70.49.11 4.09.04 6.89-1.03 9.25-4.3 2.22-3.08 4.88-5.85 7.79-9.27 6.04 4.46 12.11 8.5 17.65 13.16 3.85 3.25 3.43 5.24-.46 8.5-.13.11-.23.28-.37.33-8.53 2.92-8.55 9.66-8.38 17.12.37 16.15.14 32.32.11 48.49-.01 7.73-7.95 12.54-14.77 8.81-1.16-.64-1.9-2.55-2.26-4.01-.42-1.55-.12-3.27-.12-5.37zm-.16-33.1c-30.2 0-59.94 0-90.03 0v22.33h90.03c0-7.49 0-14.62 0-22.33zm-193.4 22.36h86.19c0-7.71 0-15.08 0-22.23-28.95 0-57.47 0-86.19 0zm193.27-31.99c0-7.22 0-13.95 0-20.82-30.14 0-60 0-89.84 0v20.82zm-106.92-.02c0-7.23 0-13.97 0-20.8-28.94 0-57.6 0-86.14 0v20.8zm-64.47-31.87c.07.35.13.7.2 1.04h4.85c16.3 0 32.65-.79 48.88.26 12.31.79 21.97-2 29.24-12.22 1.81-2.54 4.38-4.55 7.45-7.68-19.71 0-37.96-.01-56.22.03-.94 0-1.98.32-2.82.79-10.54 5.9-21.06 11.85-31.58 17.78z"/><path d="m135.66 204.8c-3.36-15.22-17.54-14.64-27.66-20.36.45-1.61.92-3.3 1.55-5.55 6.1 1.08 12.06 2.15 18.02 3.2 2.94.52 5.88 1.09 8.83 1.51 7.8 1.12 13.19-2.78 15.14-11.17-1.48-.09-2.92-.25-4.35-.25-25.32-.02-50.65-.07-75.97.09-2.24.01-4.42 1.74-6.72 2.15-3.59.65-7.32 1.43-10.88 1.05-2.71-.29-2.86-2.85-2.01-5.56 3-9.66 5.72-19.41 8.52-29.14.5-1.73.92-3.49 1.57-5.98-7.35.43-14.14.69-20.89 1.29-3.17.28-4.89-.73-5.93-3.74-1.25-3.59-2.91-7.03-4.48-10.75 9.45 1.05 18.58 1.94 27.67 3.15 4.43.59 6.39-.45 7.17-5.37 2.19-13.75 5.08-27.39 7.73-41.07.28-1.42.78-2.8 1.31-4.68 4.97 3.1 9.5 6.19 14.29 8.8 2.21 1.2 4.93 2.05 7.42 2.07 18.99.17 37.98-.01 56.98.17 4.01.04 6.94-.77 9.23-4.34 1.95-3.05 4.64-5.62 7.57-9.07 6.14 4.58 12.32 8.95 18.2 13.69 3.08 2.49 2.91 5.41-.59 7.75-.14.09-.25.25-.4.29-10.57 3.28-10.38 12.16-10.82 20.73-.18 3.46-.45 6.92-.67 10.31 11.27 4.45 16.35-5.31 23.86-10.37 5.58 4.48 11.25 8.79 16.57 13.48 1.36 1.2 2.59 3.94 2.12 5.42-.4 1.26-3.32 2.37-5.14 2.4-12.64.2-25.29.11-38.29.11-1.35 9.05-2.67 17.84-4.01 26.78 10.95 3.96 14.89-6.6 22.41-10.37 5.34 4.29 10.9 8.51 16.12 13.11 1.4 1.23 1.79 3.61 2.64 5.46-1.83.71-3.65 2-5.49 2.03-12.64.18-25.28.09-38.19.09-3.57 17.92-15.26 27.52-32.43 32.64zm25.84-110.62c-24.56 0-48.5-.02-72.44.09-.95 0-2.55 1.15-2.75 2-2.09 9.31-3.96 18.66-5.93 28.23h50.16c-7.96-11.63-20.65-15.2-31.91-21.9 1.53-1.25 3.32-2.48 4.72-2.13 8.36 2.06 16.79 4.06 24.87 6.98 4 1.45 8.09 4.23 10.61 7.57 1.57 2.08.29 6.31.29 9.79 5.64 0 11.47.17 17.28-.14 1.19-.06 3.18-1.79 3.28-2.89.8-8.89 1.23-17.83 1.82-27.6zm-2.77 41.2c-27.28 0-54.14 0-81.24 0-2.22 8.95-4.41 17.73-6.67 26.83h53.6c.27-.54.53-1.07.8-1.61-6.45-4.17-12.8-8.51-19.4-12.43-3.11-1.85-6.75-2.78-10-4.41-.87-.43-1.22-1.91-1.8-2.91 1.01-.56 2.18-1.77 3.02-1.57 9.35 2.19 18.82 4.07 27.91 7.09 8.54 2.84 9.94 7.78 5.59 15.92h24.4c1.25-8.93 2.49-17.73 3.79-26.91z"/><path d="m332.31 87.17c-5.68 26.39-15.77 50.51-33.73 71.24 23.15 12.6 47.97 18.31 72.92 23.31.6 3.95-.8 5.84-4.5 6.32-7.67.99-13.3 4.9-16.61 13.17-9.18-3.71-18.4-6.9-27.13-11.09-11.37-5.47-22.41-11.62-33.45-17.75-2.51-1.4-4.14-1.57-6.61.05-21.68 14.15-46 21.74-70.91 28.52-.56-2.12-1.05-3.99-1.64-6.2 22.74-8.22 44.29-18.01 63.23-33.7-13.44-15.49-23.46-32.96-32.16-51.34.72-.57 1.2-1.03 1.74-1.38.83-.54 1.7-1 3.23-1.89 11.71 15.52 22.28 32.15 38.62 44.09 14.71-18.87 23.75-39.67 28.08-63.35-10.43 0-20.07 0-29.7 0-9.33 0-18.66.14-27.99-.08-3.17-.07-5.15.92-7.07 3.45-8.83 11.62-19.76 21.05-32.11 30.06-1.36-1.39-2.69-2.74-4.28-4.36 22.25-26.15 36.83-55.79 47.24-88.13 8.31 3.8 16.42 7.22 24.21 11.26 1.95 1.01 4.22 4.25 3.89 6.01-.33 1.78-3.69 3-5.75 4.43-.25.17-.67.21-.97.15-9.33-1.93-12.76 3.93-15.65 11.26-2.05 5.2-5.07 10.02-7.92 15.51 1.64.1 2.88.25 4.11.25 22.66.01 45.31.09 67.97-.12 2.3-.02 4.98-1.36 6.79-2.9 4.02-3.43 7.6-7.38 11.63-11.39 7.2 5.66 14.34 11.1 21.2 16.85 1.24 1.04 2.21 3.71 1.73 5.08-.44 1.27-2.98 2.51-4.62 2.54-11.12.24-22.27.13-33.79.13z"/><path d="m39.9 99.12c-2.2-2.28-3.57-3.71-5.31-5.52 17.09-20.57 30.95-42.88 39.28-68.84 8.35 3.28 16.28 6.12 23.92 9.6 1.95.89 2.97 3.8 4.42 5.79-2.13 1.28-4.42 3.86-6.38 3.62-8.97-1.07-12.12 4.99-15.69 11.77 1.9.11 3.47.28 5.04.28 26.99.02 53.97-.05 80.96.09 3.3.02 5.63-.96 7.79-3.36 3.53-3.94 7.32-7.65 11.06-11.53 7.27 5.17 14.05 9.7 20.43 14.73 1.73 1.36 2.23 4.27 3.3 6.46-2.07.95-4.14 2.73-6.22 2.74-41.84.16-83.66.15-125.47.05-3.42-.01-5.69.89-8.09 3.52-9.29 10.18-18.95 20.03-29.04 30.6z"/><path d="m303.99 335.14c1.04-2.25 1.98-4.28 3.09-6.68 14.84 5.67 29.39 10.84 42 20.03 5.67 4.14 9.88 9.42 9.1 17.22-.35 3.56-1.44 6.6-5.05 7.85-3.65 1.27-7.24 1.09-10.17-1.85-1.16-1.17-2.32-2.44-3.13-3.86-7.54-13.34-19.13-22.35-31.93-30.1-1.23-.76-2.42-1.62-3.91-2.61z"/><path d="m82.54 325.02c2.03.72 4.02 1.42 6.27 2.21-2.79 14.27-6.29 28.03-17.24 38.43-6.12 5.81-13.13 9.54-22.01 8.6-4.86-.51-7.72-3.07-8.4-7.72-.64-4.35 2.3-6.7 5.78-8.35 1.94-.92 3.99-1.63 6.05-2.25 12.42-3.73 21.14-11.5 26.09-23.52 1.01-2.44 2.24-4.79 3.46-7.4z"/><path d="m236.38 322.4c7.17 7.56 14.64 14.88 21.44 22.79 4.15 4.82 6.72 10.75 6.19 17.45-.46 5.91-3.35 8.6-8.79 8.79-3.91.14-6.4-1.45-7.31-5.28-3.39-14.23-9.25-27.33-18.51-39.36 2.23-1.4 4.12-2.59 6.98-4.39z"/><path d="m147.02 326.31c1.53-1.3 3.02-2.57 4.84-4.11 9.55 8.73 19.9 16.53 25.18 28.58 1.75 4 2.2 8.9 1.97 13.33-.23 4.33-3.55 6.94-8.12 7.27-4.9.35-6.65-3.13-7.83-6.89-2.21-7.08-3.64-14.46-6.42-21.29-2.35-5.77-6.16-10.94-9.62-16.89z"/></g><path d="m377.9 391.2c-.2.3-.4.5-.6.8-.7-.6-1.4-1-2.2-1.5.2-.3.4-.5.5-.8.6.4 1.4.8 2.3 1.5zm-1.8 6.1c-.2-.2-.5-.4-.9-.6.4-.6.8-1.2 1.2-1.9s.7-1.3.9-1.9c.3.3.5.5.8.7-.7 1.3-1.4 2.6-2 3.7zm2.2-9c-.3.3-.5.5-.6.8-.6-.6-1.3-1.1-2-1.5.3-.3.5-.5.6-.7.6.5 1.3.9 2 1.4zm.3.2v-.9h2 4.5c-.3 1.3-.6 2.5-1 3.6s-.9 2.1-1.4 3c.4.5 1 1 1.6 1.4s1.2.8 1.9 1.1c-.3.2-.5.4-.8.8-.4-.3-1-.7-1.6-1.2s-1.2-1.1-1.6-1.6c-.5.6-1.1 1.1-1.7 1.6s-1.4.9-2.1 1.4c-.1-.3-.3-.5-.7-.8.6-.2 1.2-.5 1.9-1s1.4-1.1 2-1.8c-.5-.8-.9-1.6-1.2-2.5s-.6-2-.8-3.2c-.4.1-.7.1-1 .1zm2.5 2.7c.3 1 .7 1.7 1 2.2.3-.5.6-1.1 1-2s.6-1.9.9-3h-3.2-.4c.1.9.3 1.8.7 2.8z" fill="#fcfafa"/><path d="m396.5 388.5v1.5 3.6h1.5v.9c-.4 0-1 0-1.7 0h-7.9c-.5 0-.9 0-1.2 0v-.9h1.3v-3.5c0-.7 0-1.2 0-1.6h2.4c0-.8 0-1.4 0-1.7h1c0 .3-.1.8-.1 1.7h1.5c0-.8 0-1.4 0-1.7h1c0 .3-.1.9-.1 1.7zm-8.2 9.2c-.2-.3-.5-.5-.8-.8.8-.3 1.4-.6 1.9-.9s1-.7 1.4-1.1c.3.3.6.5.9.8-1.6 1-2.8 1.6-3.4 2zm2.6-6.8v-1.6h-1.5v1.6zm0 2.7v-1.9h-1.5v1.9zm2.4-2.7v-1.6h-1.5v1.6zm0 2.7v-1.9h-1.5v1.9zm.2 2 .7-.8c.4.2.9.5 1.6.8s1.3.7 1.8 1c-.3.3-.5.5-.8.8-.4-.3-1.5-1-3.3-1.8zm2-4.7v-1.6h-1.4v1.6zm0 2.8v-1.9h-1.4v1.9z" fill="#fcfafa"/></svg>