<svg enable-background="new 0 0 400 400" viewBox="0 0 400 400" xmlns="http://www.w3.org/2000/svg"><g fill="#010103"><path d="m348.95 182.29c7.43 5.6 14.34 10.52 20.86 15.91 1.53 1.27 2.61 4.32 2.23 6.22-.24 1.2-3.56 2.53-5.5 2.53-43.66.14-87.31.11-130.97.11-1.96 0-3.92 0-6.19 0v31.93h5.74c33.16 0 66.32-.12 99.48.13 5.14.04 8.9-1.05 11.84-5.31 1.69-2.44 3.89-4.53 6.27-7.25 5.58 3.95 11.32 7.58 16.55 11.84 5.39 4.39 5.45 7.4-.79 10.59-6.76 3.45-7.65 8.77-8.53 15.18-2.68 19.56-5.17 39.19-9.03 58.53-3.81 19.05-12.84 35.46-30.87 44.89-6.5 3.4-13.86 5.14-21.7 7.96-.24-12.75-8.22-17.14-17.38-20.43-7.02-2.52-14.03-5.08-21.63-7.84.56-2.01 1.18-4.24 1.85-6.67 12.24 3.24 23.99 6.13 35.61 9.47 13.3 3.83 21.88 3.26 31.28-14.87 6.37-12.29 8.53-25.81 10.54-39.26 2.13-14.29 3.52-28.69 5.21-43.04.11-.98.02-1.98.02-3.76-2.08 0-4 0-5.92 0-34.99 0-69.98-.04-104.97.07-3.04.01-6.22.69-9.1 1.73-6.57 2.38-12.13-.16-12.07-8.29.37-49.15.29-98.31.1-147.46-.04-9.44-1.21-18.88-1.83-28.32-.08-1.25-.01-2.52-.01-4.58 6.11 3.4 11.31 7.18 17.12 9.27 4.93 1.77 10.56 1.71 15.9 2.15.63.05 1.84-1.7 2.07-2.77 2.7-12.48 5.34-24.98 7.78-37.52.47-2.39.52-4.39 3.74-3.56 7.54 1.95 15.09 3.85 22.62 5.84 1.1.29 2.36.71 3.09 1.49 1.27 1.35 3.14 3.14 2.98 4.54-.17 1.49-2.18 3.32-3.8 3.97-2.89 1.16-6.12 1.46-9.16 2.28-1.18.32-2.68.8-3.28 1.71-5.13 7.73-10.08 15.58-15.42 23.89 1.77.12 3.16.3 4.55.3 18.5.02 36.99-.12 55.49.11 4.34.05 7.62-.67 10.15-4.5 1.9-2.88 4.46-5.33 7.24-8.58 6.07 4.55 12.14 8.84 17.89 13.52 3.23 2.63 3.38 6.41-.61 8.07-9.3 3.88-9.36 11.19-9.07 19.51.6 16.96.48 33.95.82 50.93.11 5.31.72 10.61 1.16 15.91.3 3.63-.49 7.29-4.2 8.08-4.2.88-8.7.44-13.06.23-.52-.03-1.25-2.17-1.35-3.37-.21-2.47-.06-4.97-.06-7.93-31.19 0-62.05 0-93.22 0v31.12h5.13c31.83 0 63.65-.06 95.48.09 3.67.02 6.31-.94 8.67-3.69 3.21-3.77 6.73-7.31 10.26-11.1zm-26.61-57.88c-31.29 0-62.17 0-92.85 0v31.05h92.85c0-10.47 0-20.58 0-31.05zm-93.09-10.83h93.01c0-9.93 0-19.5 0-29.16-31.16 0-61.99 0-93.01 0z"/><path d="m91.52 121.53c-13.46 0-26.06-.12-38.66.07-4.13.06-8.24 1.14-12.36 1.23-1.37.03-3.38-1.23-4.05-2.47-2.06-3.77-3.61-7.82-5.03-11.03 24.1 1 48.41 2 73.14 3.03 0-14.89 0-28.58 0-42.52-21.13 2.33-42.05 4.64-63.16 6.97-.54-2.36-.98-4.26-1.54-6.69 9.15-1.42 18.14-2.65 27.07-4.22 23.91-4.22 47.56-9.5 69.67-19.95 6.15-2.9 11.89-6.64 18-9.65 1.54-.76 4.21-.89 5.56-.04 6.47 4.05 12.8 8.37 18.85 13.01 1.31 1.01 1.89 3.83 1.64 5.66-.13.93-3.09 2.44-4.34 2.1-14.53-3.88-27.29 3.4-40.74 6.17-4.37.9-8.65 2.21-13.27 3.4v44.99c7.74 0 15.6-.72 23.27.17 10.79 1.26 19.12-1.83 25.34-10.69 1.06-1.5 2.14-2.99 3.39-4.73 7.83 5.93 14.81 10.97 21.44 16.44 1.45 1.2 2.43 4.06 2.11 5.89-.19 1.1-3.33 2.37-5.15 2.38-21.5.17-42.99.11-64.49.11-1.82 0-3.64 0-5.54 0-1.38 3.35-.52 5.06 2.59 6.8 16.78 9.45 33.56 18.92 49.99 28.96 6.76 4.13 12.19 10.01 12.13 18.9-.03 4.42-.31 8.8-5.66 10.46-5.21 1.62-8.86-.69-11.34-4.86-10.84-18.23-26.86-31.13-43.82-43.1-1.2-.85-2.46-1.61-4.21-2.75-.14 1.79-.37 3.17-.32 4.54.68 19.95 1.42 39.91 2.1 59.86.24 7.14-2.55 9.91-9.8 9.97-6.57.05-9.37-2.92-9.38-9.97-.01-18.5 0-36.99 0-55.49 0-1.6 0-3.2 0-4.8-.4-.23-.8-.47-1.2-.7-17.69 30.39-41.91 54.26-71.44 72.91-.39-.37-.84-.65-1.09-1.05-.78-1.27-1.48-2.59-2.39-4.2 26.36-24.14 47.78-51.89 62.69-85.11z"/><path d="m131.65 211.85c10.53 2.79 20.02 5.09 29.34 7.93 2.01.61 4.94 3.33 4.77 4.76-.25 2.09-2.88 3.92-4.58 5.78-.41.45-1.19.57-1.8.82-9.97 4.19-9.97 4.19-9.97 15.32v61.49 6.19c14.1-6.99 25.22-16.57 36.47-26.87 1.48 1.2 2.96 2.41 5.36 4.37-6.03 8.33-11.75 16.61-17.9 24.57-3.45 4.46-7.31 8.7-11.52 12.45-4.84 4.31-8.84 8.65-9.05 15.67-.05 1.62-2.32 4.35-3.74 4.46-1.76.14-4.43-1.46-5.43-3.09-4.14-6.81-7.81-13.91-11.63-20.92-.39-.72-.92-1.55-.87-2.29.51-6.96 1.6-13.91 1.63-20.87.13-25.49-.03-50.98-.18-76.48-.01-3.94-.52-7.88-.9-13.29z"/><path d="m36.65 368.96c-1.46-1.6-2.78-3.04-3.87-4.24 6.1-8.38 12.39-16.32 17.93-24.75 11.11-16.89 16.52-35.94 17.97-55.82 1.52-21.04 1.62-42.18 2.21-63.28.1-3.43-.47-6.88-.78-11.06 9.75 2.46 19.23 4.6 28.51 7.39 2.24.67 4.97 3.28 5.36 5.39.28 1.49-2.78 4.93-4.74 5.28-9.76 1.77-11.78 7.46-11.64 16.68.19 12.4-1.76 24.82-2.47 37.25-2.11 36.77-20.35 64.48-48.48 87.16z"/><path d="m209.24 276.19h7.25c-.61 11.61-.8 23.02-1.95 34.34-.66 6.52-2.45 13.03-4.53 19.28-1.98 5.95-5.63 10.96-12.25 12.74-4.28 1.15-8.55.97-11.36-2.77-2.79-3.71-1.34-7.57 1.17-11.02.88-1.21 1.73-2.5 2.83-3.47 14.12-12.45 17.5-29.14 18.57-46.76.04-.64.14-1.28.27-2.34z"/><path d="m234.88 276.95c2.27-.78 3.96-1.36 5.95-2.04 6.29 13.38 12.83 26.47 14.84 41.1.51 3.73-.47 7.93-1.74 11.58-1.52 4.37-6.97 6.14-11.84 4.47-4.21-1.45-5.44-5.26-4.78-8.84 2.83-15.48 1.73-30.7-2.43-46.27z"/><path d="m262.88 273.05c-.34.31.12-.16.63-.56.77-.6 1.59-1.16 2.92-2.12 11.01 10.78 22.78 20.83 27.85 36.07.95 2.86 1.01 6.24.64 9.28-.55 4.45-3.53 7-8.09 7.31-4.4.3-6.82-2.31-7.82-6.17-1.12-4.31-1.19-8.98-2.8-13.07-4-10.11-8.61-19.97-13.33-30.74z"/><path d="m293.06 266.52c1.65-1.36 3.04-2.5 4.6-3.78 10.07 7.64 19.8 15.36 26.85 25.87 3.21 4.78 5.42 9.97 4.51 15.91-.62 4.07-2.39 7.19-7.11 7.65-4.65.45-8.03-1.23-8.96-5.88-2.99-15-10.12-27.92-19.89-39.77z"/></g><path d="m377.9 391.2c-.2.3-.4.5-.6.8-.7-.6-1.4-1-2.2-1.5.2-.3.4-.5.5-.8.6.4 1.4.8 2.3 1.5zm-1.8 6.1c-.2-.2-.5-.4-.9-.6.4-.6.8-1.2 1.2-1.9s.7-1.3.9-1.9c.3.3.5.5.8.7-.7 1.3-1.4 2.6-2 3.7zm2.2-9c-.3.3-.5.5-.6.8-.6-.6-1.3-1.1-2-1.5.3-.3.5-.5.6-.7.6.5 1.3.9 2 1.4zm.3.2v-.9h2 4.5c-.3 1.3-.6 2.5-1 3.6s-.9 2.1-1.4 3c.4.5 1 1 1.6 1.4s1.2.8 1.9 1.1c-.3.2-.5.4-.8.8-.4-.3-1-.7-1.6-1.2s-1.2-1.1-1.6-1.6c-.5.6-1.1 1.1-1.7 1.6s-1.4.9-2.1 1.4c-.1-.3-.3-.5-.7-.8.6-.2 1.2-.5 1.9-1s1.4-1.1 2-1.8c-.5-.8-.9-1.6-1.2-2.5s-.6-2-.8-3.2c-.4.1-.7.1-1 .1zm2.5 2.7c.3 1 .7 1.7 1 2.2.3-.5.6-1.1 1-2s.6-1.9.9-3h-3.2-.4c.1.9.3 1.8.7 2.8z" fill="#fcfafa"/><path d="m396.5 388.5v1.5 3.6h1.5v.9c-.4 0-1 0-1.7 0h-7.9c-.5 0-.9 0-1.2 0v-.9h1.3v-3.5c0-.7 0-1.2 0-1.6h2.4c0-.8 0-1.4 0-1.7h1c0 .3-.1.8-.1 1.7h1.5c0-.8 0-1.4 0-1.7h1c0 .3-.1.9-.1 1.7zm-8.2 9.2c-.2-.3-.5-.5-.8-.8.8-.3 1.4-.6 1.9-.9s1-.7 1.4-1.1c.3.3.6.5.9.8-1.6 1-2.8 1.6-3.4 2zm2.6-6.8v-1.6h-1.5v1.6zm0 2.7v-1.9h-1.5v1.9zm2.4-2.7v-1.6h-1.5v1.6zm0 2.7v-1.9h-1.5v1.9zm.2 2 .7-.8c.4.2.9.5 1.6.8s1.3.7 1.8 1c-.3.3-.5.5-.8.8-.4-.3-1.5-1-3.3-1.8zm2-4.7v-1.6h-1.4v1.6zm0 2.8v-1.9h-1.4v1.9z" fill="#fcfafa"/></svg>