<svg enable-background="new 0 0 400 400" viewBox="0 0 400 400" xmlns="http://www.w3.org/2000/svg"><g fill="#010103"><path d="m238.46 206v31.93h5.62c30.83 0 61.66-.1 92.49.1 4.55.03 7.92-.82 10.59-4.72 1.95-2.85 4.57-5.24 7.23-8.21 5.59 3.96 11.3 7.62 16.56 11.83 5.35 4.28 5.59 7.48-.31 10.16-9.62 4.39-8.34 12.77-9.56 20.5-2.97 18.84-5.15 37.86-9.25 56.45-4.21 19.04-14.19 34.87-32.68 43.51-5.78 2.7-12.19 4.06-19.19 6.32-.17-12.48-8.33-16.91-17.7-20.26-7.01-2.51-13.97-5.13-21.44-7.88.65-2.14 1.31-4.27 2.01-6.59 12.94 3.43 25.54 6.92 38.22 10.09 11.75 2.94 19.28-.24 25.82-10.51 6.65-10.45 9.76-22.21 11.54-34.22 2.53-17.08 4.35-34.26 6.43-51.4.18-1.46.02-2.95.02-4.86-1.75-.08-3.35-.21-4.96-.21-33-.01-65.99-.03-98.99.04-2.43.01-4.95.45-7.27 1.17-8.2 2.54-11.72.12-11.72-8.33 0-50.99.08-101.99-.09-152.98-.03-8.58-1.16-17.17-1.82-26.28 10.96 4.56 19.9 14.7 34.23 10.27 2.96-14.02 6.07-28.74 9.35-44.29 8.69 2.39 17.62 4.61 26.37 7.42 1.99.64 3.32 3.31 4.95 5.04-1.93 1.64-3.82 4.62-5.79 4.68-8.59.24-12.81 5.37-16.46 12.16-2.8 5.21-6.48 9.96-10.22 15.6 2.33.13 3.89.3 5.45.3 16.33.02 32.66-.11 48.99.1 4.05.05 6.89-.86 9.19-4.39 2.05-3.15 4.86-5.81 7.59-8.99 5.91 4.26 11.77 8.07 17.14 12.48 4.66 3.84 4.65 6.88-.58 9.7-6.41 3.45-7.71 8.13-7.4 14.9.56 12.47-.02 24.99.22 37.49.19 9.81.66 19.63 1.5 29.41.39 4.5-1.48 6.59-5.35 7.47-1.92.44-3.97.32-5.97.44-4.63.26-8-.99-7.57-6.88-29.09 0-57.98 0-87.19 0v31.41h5.61c28.5 0 56.99-.06 85.49.07 3.43.02 5.99-.76 8.26-3.4 3.35-3.9 7.02-7.53 10.95-11.7 7.75 5.97 15.03 11.41 22.07 17.15 1.11.9 1.95 3.53 1.43 4.68-.67 1.45-2.75 2.46-4.43 3.17-1.13.48-2.63.1-3.96.1-39.66 0-79.32 0-118.98 0-1.97-.04-3.96-.04-6.44-.04zm-.03-52.38h87.04c0-10.53 0-20.75 0-31.03-29.22 0-58.09 0-87.04 0zm87.24-70.88c-29.27 0-58.13 0-87.1 0v29.44h87.1c0-9.86 0-19.33 0-29.44z"/><path d="m38.98 169.3c-1.12-2.01-2.07-3.71-3.39-6.08 27.65-15.71 49.97-36.14 59.68-67.68-17.08 0-33.7-.38-50.29.23-5.07.18-8.19-.05-9.66-5.39-.82-2.99-2.42-5.76-3.93-9.22 5.62.67 10.61 1.58 15.62 1.8 15.79.68 31.58 1.04 47.36 1.68 3.39.14 4.19-1.45 4.52-4.37 1.8-15.68 4.32-31.31 2.06-47.17-.09-.6.14-1.25.31-2.52 10.13 1.95 20.07 3.65 29.87 5.93 1.93.45 4.57 3.08 4.64 4.78.06 1.68-2.63 3.58-4.33 5.14-.8.73-2.1.94-3.2 1.32-8.6 3-8.43 3.01-9.19 11.86-.7 8.07-1.84 16.1-2.85 24.66 1.75.11 3.34.3 4.92.3 12.16.02 24.33.16 36.49-.11 2.35-.05 5.05-1.28 6.9-2.81 4.22-3.49 8.01-7.5 12.3-11.61 6.75 5.11 13.84 10.28 20.69 15.76 3.97 3.18 2.93 7.4-2.03 8.85-1.55.45-3.3.33-4.95.33-23.66.02-47.32.2-70.98-.14-5.22-.07-7.15 1.65-7.26 6.07 14.06 7.47 28.07 14.38 41.51 22.27 6.93 4.07 13.16 9.54 19.1 15.03 4.43 4.1 6.43 9.91 5.11 15.98-.6 2.76-2.48 6.51-4.69 7.32-2.54.93-7.07.13-9.01-1.72-5.39-5.13-9.91-11.17-14.72-16.89-10.82-12.87-23.53-23.51-37.89-32.2-.68-.41-1.47-.62-2.48-1.04-15.72 28.91-40.05 47.46-70.23 59.64z"/><path d="m189.27 169.09c6.47 4.92 13.25 9.75 19.59 15.09 1.69 1.42 3.09 4.57 2.73 6.59-.25 1.38-3.74 3.03-5.83 3.09-10.31.32-20.63.14-31.7.14v6.01c0 45.47-.32 90.95.14 136.42.22 21.71-11.9 30.83-27.87 33.34-.55-2.05-1.03-4.14-1.68-6.17-1.94-6.05-5.53-10.65-11.85-12.48-5.88-1.7-11.8-3.27-17.75-4.7-6.82-1.64-6.84-1.54-4.75-8.89 6.54.96 13.18 2.05 19.86 2.86 5.76.7 11.56 1.39 17.35 1.52 6.11.14 9.42-3.15 9.43-9.13.06-45.64.03-91.28.01-136.92 0-.46-.21-.92-.44-1.85-1.28 0-2.56 0-3.85 0-33.48.02-66.96.01-100.44.11-4.64.01-9.29.44-13.91.97-2.83.32-4.29-.7-5.23-3.28-1.36-3.73-2.99-7.37-4.8-11.78 4.67.69 8.77 1.74 12.9 1.84 28.27.69 56.55 1.27 84.82 1.7 14.49.22 28.98-.04 43.47.1 3.41.03 5.87-.77 8.23-3.48 3.39-3.88 7.42-7.17 11.57-11.1z"/><path d="m49.59 218.81c6.09 3.41 11.18 6.45 16.46 9.13 2.12 1.08 4.64 1.86 7 1.91 10.32.2 20.65-.09 30.97.18 3.72.1 6.22-.94 8.4-3.95 2.22-3.06 5.01-5.71 8.05-9.1 5.93 4.41 11.98 8.45 17.48 13.13 4.04 3.43 3.99 6.36-.68 8.58-7.86 3.75-8.85 9.66-8.41 17.31.56 9.62.31 19.31.05 28.96-.1 3.6.93 5.99 4.08 7.68 1.6.85 3.26 1.9 4.36 3.28 1.23 1.54 2.85 3.86 2.43 5.3-.38 1.3-3.25 2.61-5.05 2.66-10.82.24-21.64.12-32.47.12-11.8 0-23.6 0-35.31 0-2.21 9.55-3.75 11.15-10.36 11.06-6.48-.09-9-2.73-8.84-9.23.61-23.93 1.24-47.87 1.81-71.8.13-4.75.03-9.51.03-15.22zm16.84 74.79h45.71c0-17.91 0-35.59 0-53.12-15.51 0-30.58 0-45.71 0z"/><path d="m218.29 273.21h6.83c.18 18.29.16 36.33-6.41 53.57-2.37 6.22-6.24 11.36-13.36 12.95-4.03.9-7.2-.4-9.64-3.59-2.47-3.24-2.14-6.48.25-9.61 1.41-1.85 2.67-3.89 4.39-5.41 11.37-10.08 14.76-23.59 16.56-37.83.42-3.27.9-6.53 1.38-10.08z"/><path d="m265.61 272.09c2.69-4.05 5.19-4.26 8.25-.58 6.77 8.14 14.13 15.82 20.47 24.28 4.11 5.48 6.68 12.27 3.62 19.15-1.13 2.54-4.51 5.27-7.14 5.59-2.31.28-5.38-2.34-7.41-4.37-1.36-1.36-1.87-3.9-2.12-5.99-1.58-13.38-7.24-25.05-14.64-36.04-.45-.67-.73-1.44-1.03-2.04z"/><path d="m241.82 274.4c1.95-.61 3.64-1.14 5.71-1.79 7.23 14.35 14.99 28.27 14.53 44.91-.05 1.96-.41 3.97-.99 5.84-1.72 5.47-5.8 7.89-11.01 6.75-4.49-.98-6.56-5.31-6.03-10.97.78-8.21 1.7-16.49 1.39-24.69-.25-6.51-2.26-12.96-3.6-20.05z"/><path d="m296.1 263.49c.89-.78 2.12-1.84 3.61-3.13 10.83 8.16 21.41 16.41 28.52 28.16 2.67 4.41 4.54 9.1 3.15 14.6-1.16 4.61-3.98 6.67-8.45 6.93-4.52.26-6.6-2.81-7.77-6.41-1.69-5.18-2.17-10.9-4.57-15.69-4.14-8.23-9.35-15.92-14.49-24.46z"/></g><path d="m377.9 391.2c-.2.3-.4.5-.6.8-.7-.6-1.4-1-2.2-1.5.2-.3.4-.5.5-.8.6.4 1.4.8 2.3 1.5zm-1.8 6.1c-.2-.2-.5-.4-.9-.6.4-.6.8-1.2 1.2-1.9s.7-1.3.9-1.9c.3.3.5.5.8.7-.7 1.3-1.4 2.6-2 3.7zm2.2-9c-.3.3-.5.5-.6.8-.6-.6-1.3-1.1-2-1.5.3-.3.5-.5.6-.7.6.5 1.3.9 2 1.4zm.3.2v-.9h2 4.5c-.3 1.3-.6 2.5-1 3.6s-.9 2.1-1.4 3c.4.5 1 1 1.6 1.4s1.2.8 1.9 1.1c-.3.2-.5.4-.8.8-.4-.3-1-.7-1.6-1.2s-1.2-1.1-1.6-1.6c-.5.6-1.1 1.1-1.7 1.6s-1.4.9-2.1 1.4c-.1-.3-.3-.5-.7-.8.6-.2 1.2-.5 1.9-1s1.4-1.1 2-1.8c-.5-.8-.9-1.6-1.2-2.5s-.6-2-.8-3.2c-.4.1-.7.1-1 .1zm2.5 2.7c.3 1 .7 1.7 1 2.2.3-.5.6-1.1 1-2s.6-1.9.9-3h-3.2-.4c.1.9.3 1.8.7 2.8z" fill="#fcfafa"/><path d="m396.5 388.5v1.5 3.6h1.5v.9c-.4 0-1 0-1.7 0h-7.9c-.5 0-.9 0-1.2 0v-.9h1.3v-3.5c0-.7 0-1.2 0-1.6h2.4c0-.8 0-1.4 0-1.7h1c0 .3-.1.8-.1 1.7h1.5c0-.8 0-1.4 0-1.7h1c0 .3-.1.9-.1 1.7zm-8.2 9.2c-.2-.3-.5-.5-.8-.8.8-.3 1.4-.6 1.9-.9s1-.7 1.4-1.1c.3.3.6.5.9.8-1.6 1-2.8 1.6-3.4 2zm2.6-6.8v-1.6h-1.5v1.6zm0 2.7v-1.9h-1.5v1.9zm2.4-2.7v-1.6h-1.5v1.6zm0 2.7v-1.9h-1.5v1.9zm.2 2 .7-.8c.4.2.9.5 1.6.8s1.3.7 1.8 1c-.3.3-.5.5-.8.8-.4-.3-1.5-1-3.3-1.8zm2-4.7v-1.6h-1.4v1.6zm0 2.8v-1.9h-1.4v1.9z" fill="#fcfafa"/></svg>