<?xml version="1.0" encoding="utf-8"?>
<svg version="1.1" id="zdic.net" xmlns="http://www.w3.org/2000/svg" xmlns:xlink="http://www.w3.org/1999/xlink" x="0px" y="0px"
	 viewBox="0 0 400 400" style="enable-background:new 0 0 400 400;" xml:space="preserve">
<g>
	<path d="M130.78,92.9c17.79,0,35.1,0,53.03,0c0-7.8-0.08-15.39,0.02-22.97c0.14-10.24,0.33-20.49,0.72-30.72
		c0.1-2.7,0.82-5.42,1.58-8.03c0.94-3.24,3.43-5.02,6.72-4.89c1.41,0.06,3.63,1.14,4,2.25c1.69,5.16,3.41,10.43,4.05,15.79
		c0.6,5.03-0.27,10.22-0.3,15.34c-0.07,11.08-0.02,22.16-0.02,33.99c6.42,0,12.72,0.05,19.03-0.02c3.24-0.04,6.48-0.44,9.72-0.37
		c1.56,0.04,3.22,0.56,4.62,1.28c2.99,1.54,3.85,4.49,2.98,7.35c-0.42,1.38-2.66,2.94-4.23,3.12c-7.54,0.87-15.13,1.49-22.72,1.82
		c-10.33,0.44-10.34,0.29-10.34,10.36c0,18.37,0.07,36.75-0.07,55.12c-0.02,3.04,0.84,4.29,3.9,4.32
		c6.86,0.08,13.72,0.29,20.58,0.54c6.79,0.25,10.44,3.78,10.8,10.44c-6.59,3.83-13.8,3.4-21.05,2.91
		c-3.35-0.23-6.72-0.08-10.08-0.06c-2.65,0.01-3.48,1.27-3.46,4c0.09,14.75-0.05,29.49-0.11,44.24
		c-0.17,41.61-0.31,83.23-0.55,124.84c-0.02,2.7-0.5,5.47-1.19,8.09c-0.8,3.07-2.59,5.28-6.22,5.52c-3.76,0.25-5.31-2.33-5.93-5.07
		c-1.14-5.07-2.27-10.28-2.27-15.43c-0.03-51.36,0.17-102.73,0.3-154.09c0.01-3.23,0-6.47,0-10.64c-4.42,0-8.6,0.06-12.78-0.01
		c-12.86-0.22-25.73-0.43-38.59-0.81c-3.09-0.09-2.99,1.71-3.08,3.82c-0.68,14.98-1.11,29.98-2.21,44.93
		c-1.31,17.8-3.22,35.57-4.86,53.35c-1.92,20.89-3.67,41.8-5.89,62.67c-0.47,4.42-2.03,9.05-4.33,12.82
		c-1.35,2.21-5.07,3.51-7.92,3.96c-0.83,0.13-2.79-3.94-3.47-6.3c-2.28-7.97-0.49-15.92,1.11-23.71
		c9.47-46.01,11.88-92.59,11.65-139.4c-0.01-2.11-0.39-4.23-0.55-6.34c-0.5-6.62,0.84-6.04-7.02-6.4
		c-4.84-0.23-9.72,0.44-14.58,0.68c-3.49,0.17-6.99,0.51-10.47,0.35c-1.91-0.09-4.37-0.51-5.54-1.76c-1.72-1.85-3.12-4.49-3.43-6.95
		c-0.14-1.12,2.48-3.52,4.1-3.78c6.97-1.11,14.03-1.87,21.08-2.31c5.57-0.35,11.17-0.07,16.93-0.07c0-23.31,0-45.64,0-68.84
		c-6.37-0.12-12.67-0.2-18.97-0.39c-3.1-0.09-6.32,0.07-9.25-0.73c-1.93-0.52-4-2.22-5.05-3.97c-2.4-4.01-1.24-6.69,3.3-7.31
		c7.28-1,14.63-1.55,21.96-2.02c8.18-0.52,8.17-0.39,8.19-8.35c0.03-12.98,0.02-25.96,0.15-38.94c0.07-7.23,1.92-14.04,5.51-20.66
		c4.08,0.84,6.68,3.51,7.83,7.15c1.22,3.88,2.21,8.01,2.28,12.05c0.28,14.48,0.13,28.98,0.15,43.47
		C130.55,89.57,130.69,91.05,130.78,92.9z M130.6,107.94c0,22.81,0,45.57,0,68.69c1.4,0,2.75,0.01,4.09,0
		c15.22-0.17,30.44-0.42,45.66-0.43c3.1,0,4.01-0.87,3.99-3.99c-0.13-20.09-0.06-40.19-0.08-60.29c0-1.19-0.11-2.37-0.2-3.97
		C166.2,107.94,148.75,107.94,130.6,107.94z"/>
	<path d="M283.38,193.91c-6.7,10.72-13.39,20.68-19.32,31.07c-10.33,18.11-25.4,32-40.06,46.3c-3.25,3.18-7.28,4.14-11.76,3.46
		c-1.94-0.29-2.54-1.09-2.57-3.2c-0.08-4.91,1.51-8.53,5.25-12.01c21.31-19.83,37.7-43.5,53.1-68.03
		c4.17-6.65,5.69-11.92,1.29-18.78c-2.73-4.26-4-9.43-6.51-13.86c-3.37-5.94-2.9-11.92-1.4-18.11c2.16-8.95,6.68-16.69,12.61-23.55
		c11.51-13.31,24.58-24.86,39.87-33.73c3.9-2.26,6.57-1.87,8.69,1.16c1.74,2.49,1.05,6.65-1.72,9.05
		c-8.11,7.04-16.19,14.13-24.47,20.98c-8.69,7.18-16.26,15.14-20.23,25.97c-1.15,3.13-1.91,6.17-0.16,9.33
		c0.36,0.64,0.55,1.4,0.73,2.12c2.73,11.39,8.34,20.91,16.47,29.53c6.89,7.3,12.45,15.92,18.09,24.3
		c12.08,17.94,12.44,36.46,2.29,55.52c-10.07,18.92-22.57,36.21-34.93,53.63c-9.75,13.74-19.25,27.67-28.98,41.43
		c-2.22,3.14-4.84,6.03-7.5,8.82c-1.16,1.22-2.82,2.41-4.4,2.67c-2.41,0.39-6.24,0.88-7.15-0.36c-1.29-1.77-1.27-5.38-0.38-7.65
		c1.52-3.9,3.83-7.6,6.36-10.97c13.96-18.56,28.19-36.92,42.14-55.49c11.46-15.26,21.08-31.46,26.2-50.14
		c2.29-8.37,1.39-15.42-2.66-23.24C297.26,210.54,290.28,202.76,283.38,193.91z"/>
	<path d="M171.1,146.11c-0.83,2.19-1.81,6.58-4.1,10.12c-1.3,2.01-4.67,3.58-7.21,3.73c-10.74,0.64-15.26-6.72-14.65-17.05
		c0.19-3.32,1.92-7.01,4.05-9.64c4.09-5.06,9.51-3.76,14.65-1.42C169.01,134.19,170.88,138.59,171.1,146.11z"/>
</g>
</svg>
