<svg enable-background="new 0 0 400 400" viewBox="0 0 400 400" xmlns="http://www.w3.org/2000/svg"><g fill="#010102"><path d="m118 245.9v104.8c0 3.1-.1 6.3-1.2 9.1-.8 2-3 4.3-5 4.8-2.8.6-4.7-1.4-5.3-4.7-3.2-16.4-3.3-32.8-2.6-49.4.9-23.7 1.2-47.4 1.4-71.1.4-46.3.5-92.6 1-138.9.2-15.9 1.9-31.7 6.8-46.9.8-2.5 2.9-5.1 5.1-6.5 9-5.9 19.3-8.7 29.9-8.9 34.6-.7 69.2-.8 103.8-1.1 11.4-.1 22.7 0 34.1.1 1.9 0 4.2.2 5.5 1.2 1.7 1.4 3.1 3.7 3.6 5.8.2.7-2.3 2.8-3.9 3.2-4.3 1.2-8.8 2.4-13.3 2.5-25.1.3-50.3.2-75.4.4-17.7.1-35.4.4-53.1.8-3.9.1-7.8.5-11.6 1-9.6 1.4-16.7 9.2-16.9 18.5-1.4 58.4-2.7 116.8-4 175.3z"/><path d="m294.2 160.4c1.1 4.4 3 8.8 3 13.1.1 17.4.2 34.8-1 52-.6 7.7-3.2 15.8-7.1 22.4-4.7 8.1-13.8 11-23 11.6-10 .7-20.1.7-30.1 1-5.6.2-6.5 1-6.5 6.6v73.1c0 6.3 0 12.6-.4 18.9-.2 3.5-1.2 6.9-5.7 7.1-2.8.1-4.6-.5-5.5-3.9-3.6-14.5-3.3-29.2-2.7-43.9.6-14.4.6-28.9.7-43.3 0-4.6-.5-9.3-.7-13.7-10.9-.9-21.5-1.7-32.1-2.7-6-.5-12-.8-17.8-2.1-7.7-1.7-13.3-7-14.8-14.6-2.4-12.2-4.4-24.5-5.1-36.9s.3-24.9.8-37.4c.1-3.1.1-7.6 4.4-7.4 3.7.1 6.4 3.3 6.5 7.3.3 8.9 0 17.8.2 26.6.3 11.2.9 22.3 1.6 33.5.2 2.5.9 5.1 1.6 7.5 2.2 7.3 6.4 11.1 14 11.2 30.5.3 61.1.4 91.6.4 7.1 0 13.5-5.2 15.8-12 3.3-10 3.4-20.3 3-30.7-.4-11.5-.4-23-.2-34.6.3-4.9 2.6-8.7 9.5-9.1z"/><path d="m223.3 69.6c11.3.8 19.3.7 27.1 2.1 16.7 3 28 14.7 30.2 31.7 1.4 10.6.7 21.3-2 31.8-2.5 9.5-8.7 14.7-17 18.5-15.4 7.1-31.8 7.5-48.2 6-8-.7-15.8-3-23.8-4.5-10.4-1.9-16.2-8.9-19.6-18.2-6-16.7-4.8-33.5 2.2-49.2 3.7-8.3 13.1-12.6 22.2-14.4 10.6-2 21.4-2.9 28.9-3.8zm1.3 78.8c0-.3.1-.7.1-1 3.7 0 7.6.6 11.2-.1 7.7-1.7 15.3-3.8 22.8-6.2 4.1-1.3 6.6-4.7 7.2-9.1 1.1-7.7 2.7-15.4 2.8-23.1.2-14.3-6.9-23.1-21-24.6-12.6-1.4-25.5-1.6-38.2-.6-7.7.6-15.2 4-22.6 6.7-1.8.6-3.6 2.9-4.2 4.9-3.6 10.2-5.3 20.7-3.2 31.5 1.8 9.4 5.8 16.7 16.7 17.9 9.6.9 19 2.4 28.4 3.7z"/><path d="m222 170.8c10.1 1 20.4 1.3 30.4 3 15.1 2.5 19.8 15.2 17.3 28.6-1.6 8.5-6.4 13.3-14.6 16.1-22.4 7.6-44.4 7.4-66.5-.7-9.8-3.6-11.3-11.8-11.9-20.2-.3-4.4.7-9.1 2.2-13.3.9-2.5 3.3-5.2 5.7-6.5 11.7-6.1 24.5-6.7 37.4-7zm.6 40c12.8-.4 22.5-.9 31.1-6.1 1.4-.8 2.8-2.7 3-4.3.4-3 .1-6.2-.5-9.2-.3-1.6-1.6-3.3-3-4.2-1.6-1-3.7-1.2-5.6-1.4-18.4-2.2-36.7-1.7-54.8 3.1-1 .3-2.2.8-2.8 1.6-3.6 4.9.7 16.5 6.7 17.3 9.6 1.5 19.2 2.4 25.9 3.2z"/><path d="m257 121.4c-6.9 1.1-13.7 2.7-20.6 3.2-14.4 1-28.8 1.7-43.1-1.4-1.6-.3-3.2-.8-4.6-1.5-2.4-1.2-2.5-5.6 0-6.5 3.4-1.3 7-2.9 10.6-3 14.9-.3 29.9-.2 44.8-.1 1.8 0 3.6.1 5.3.3 4.5.6 7.7 2.5 7.6 9z"/></g><path d="m385.2 377.6.6-.7c.6.4 1.3.9 1.9 1.5l-.6.7c-.8-.5-1.4-1-1.9-1.5zm.3 7.1c.6-1.4 1.1-2.9 1.5-4.5.3.1.6.3.9.4-.5 1.4-1 2.9-1.5 4.4zm.2-10.1.6-.6c.7.5 1.3 1.1 1.9 1.6l-.7.7c-.6-.6-1.2-1.2-1.8-1.7zm8.4-.8h.8v.9h1.8v.7h-1.8v1.8h-.8v-.3h-1.2v.9h3.3v2.6h-.8v-.4h-2.5c0 .3 0 .6-.1.8h3.4v.7h-3.5c0 .3-.1.6-.1.8h4v.7h-3.5c.7.9 1.9 1.3 3.6 1.5-.2.2-.4.5-.6.9-1.9-.3-3.2-1.1-3.8-2.3-.5 1.1-1.8 2-3.9 2.4-.2-.3-.4-.5-.6-.8 1.9-.4 3.1-.9 3.6-1.7h-3.2v-.7h3.5c.1-.2.1-.5.2-.8h-3.3v-.7h3.4c0-.2 0-.5 0-.8h-2.4v.3h-.8v-2.6h3.3v-.9h-1.2v.3h-.8v-1.8h-1.8v-.7h1.8v-.9h.8v.9h3.2zm-4.4 5.5h2.4c0-.3 0-.6 0-.9h-2.4zm1.2-3.1h3.2v-.8h-3.2zm4.4 2.2h-2.4v.9h2.5v-.9z" fill="#fcfbfa"/><path d="m389.2 385.8h.9v1.5h1.9v-1.5h.9v1.5h2.7v6h1.1v.9h-11.3v-.9h1.1v-6h2.7zm.2 8.7.5.8c-1.2.6-2.5 1.3-4 1.9-.2-.3-.3-.6-.6-.8 1.6-.6 3-1.3 4.1-1.9zm-2-4.3h1.9v-2.1h-1.9zm0 3.1h1.9v-2.2h-1.9zm2.7-3.1h1.9v-2.1h-1.9zm0 3.1h1.9v-2.2h-1.9zm2.4 1.3c1.4.6 2.7 1.2 4.1 1.8l-.5.9c-1.5-.7-2.8-1.4-4.1-1.9zm2.2-6.5h-1.9v2.1h1.9zm-1.9 5.2h1.9v-2.2h-1.9z" fill="#fcfbfa"/></svg>