<svg enable-background="new 0 0 400 400" viewBox="0 0 400 400" xmlns="http://www.w3.org/2000/svg"><path d="m374.8 390.4.4-.4c.7.5 1.3 1 1.8 1.4l-.5.5c-.5-.6-1.1-1.1-1.7-1.5zm1 7.3-.6-.3c.5-1.4 1.1-2.8 1.5-4.3.2.1.4.2.6.3-.5 1.3-1 2.8-1.5 4.3zm-.4-10.3.4-.4c.4.3 1 .8 1.7 1.4l-.5.5c-.4-.5-1-1-1.6-1.5zm2.5.3h1.7v-1h.6v1h3.5v-1h.6v1h1.8v.5h-1.8v1.4h-2v1h3.2v2h-3.2v.9h3.3v.5h-3.4c0 .3-.1.6-.1.9h4v.5h-3.7c.7.9 1.9 1.5 3.8 1.7-.1.2-.2.4-.3.6-2.1-.4-3.5-1.1-4-2.1-.4 1-1.8 1.7-4 2.2-.1-.2-.2-.4-.3-.6 2.1-.4 3.4-1 3.8-1.8h-3.4v-.5h3.6c.1-.3.1-.6.2-.9h-3.3v-.5h3.4c0-.3 0-.6 0-.9h-3.2v-2h3.3v-1h-2.1v-1.4h-1.7v-.5zm1.1 3.5v1h2.7c0-.3 0-.4 0-.4 0-.1 0-.2 0-.2 0-.1 0-.2 0-.3h-2.7zm1.2-3v.9h3.5v-.9zm4.7 3h-2.6v.6.4h2.6z" fill="#fbfafc"/><path d="m393.6 386.7h.6v1.5h2.7v6.1h1.1v.6h-11v-.6h1.1v-6.1h2.7v-1.5h.6v1.5h2.1v-1.5zm-2.7 8.8.4.6c-1.2.6-2.5 1.3-3.8 1.9-.1-.2-.2-.4-.3-.6 1.2-.6 2.5-1.2 3.7-1.9zm-2.2-6.7v2.4h2.1v-2.4zm0 3v2.5h2.1v-2.5zm2.8-3v2.4h2.1v-2.4zm0 3v2.5h2.1v-2.5zm6 6.1c-1.4-.7-2.7-1.3-3.9-1.8l.3-.6c1.5.6 2.7 1.2 3.9 1.7zm-1.2-9.1h-2.1v2.4h2.1zm-2.1 3v2.5h2.1v-2.5z" fill="#fbfafc"/><g fill="#010000"><path d="m201.6 72.2c15.9 0 31.8-.3 47.7.1 8.2.3 16.4 2 24.5 3 1 .1 1.9.4 2.8.4 11.4.3 18.8 6.4 24.3 15.9 5.1 8.9 5 18.3 4.5 28.1-.4 9.7.7 19.4.8 29.2.2 33.1.3 66.2.5 99.3 0 2 .8 4.1 1.2 6.1.3 1.6.9 3.2.8 4.7-.7 5.7-1.8 11.4-2.4 17.2-.5 4.5-.3 9-.6 13.5-.9 11.4-1.4 23-7.1 33.4-1.5 2.7-4.3 4.8-6.6 6.9-2.1 1.9-4.6 3.6-6.9 5.3-.8.6-1.5 1.4-2.3 1.6-9.5 1.5-18.9 4-28.4 4.2-35.7.5-71.5.2-107.2 0-3.5 0-7-1.8-10.5-2.8-1.2-.3-2.4-.9-3.7-1-10.3-1.3-19.8-4.8-24.1-14.8-3.2-7.4-4.4-15.8-5.7-23.9-.8-5.4.1-11-.3-16.5-.2-3.1-1.6-6-2.3-9.1-.3-1.4-.6-2.8-.6-4.2 0-41.6-.1-83.2.1-124.8 0-3.3 2.2-6.6 2.5-10 .6-7.4.4-14.9.8-22.4.6-11.8 3.2-23.2 13.7-29.8 4.5-2.8 9.3-7 15.8-6.2 2.4.3 4.9-1.6 7.4-1.7 19.8-.7 39.5-1.3 59.3-1.9.7.1 1.3.1 2 .2zm93.4 172.4c-.1 0-.1 0-.2 0 0-13.3.1-26.6 0-39.9 0-4-1.7-6.5-6.3-7.1-4.2-.5-8.4-1.8-12.5-3.2-7.4-2.7-14.7-5.6-22-8.6-2.5-1-4.8-3.1-7.4-3.7-10.3-2.4-20.7-4.6-31.1-6.6-9.4-1.9-18.7-1.8-27.9 1-5.1 1.5-10.1 3.4-15.2 4.7-3.4.9-7.3-.2-9.9 3.7-.8 1.2-3.8.9-5.9 1.2-2 .4-4.1.4-5.9 1.1-7.3 3-14.4 6.4-21.7 9.4-4.8 2-9.9 3.2-14.6 5.3-1.4.6-2.8 3-2.8 4.6.4 12 1.4 23.9 1.9 35.8.4 10.6.2 21.3.7 32 .4 9.4 1 18.8 2 28.1.5 4.9 1.1 10.4 3.6 14.4 3.4 5.5 8.7 8.5 16 9.4 12.7 1.6 25.1 4.4 38 4.2 24.2-.5 48.3-.3 72.5-.6 8.9-.1 18 1.1 26.3-3.6.6-.3 1.3-.7 1.8-.6 6.7 1.8 9.2-4.1 12.8-7.5 1.7-1.6 2.1-4.8 2.8-7.4.8-2.8 1.3-5.6 1.9-8.4 1-4.6 2.6-9.1 2.8-13.7.5-14.8.3-29.4.3-44zm-184-86.7c.4 0 .7.1 1.1.1 0 7.1-.2 14.3.1 21.4.2 5.7 2.5 7.6 7.7 6.2 6.3-1.6 12.8-3.1 18.7-5.6 6-2.6 11.2-7 18.3-6.1.9.1 1.8-1.1 2.9-1.6 2.4-1 4.8-2 7.2-2.9 1-.4 2.2-.2 3.3-.5 4.6-1.2 9.2-2.5 13.8-3.7 4.2-1 8.5-1.8 12.7-2.9.9-.2 1.8-1.4 2.1-2.4 2.3-6.8-1.1-10.6-8.3-10.4-6.5.2-13 1.6-19.4-2.2-4.1-2.5-9.5-2.7-13.9-4.8-2.9-1.4-5.9-3.7-7.5-6.5-4.8-8.2-2.6-22.2 4.1-29.1 1.4-1.5 3.3-2.9 5.2-3.4 9.5-2.5 19.1-5.8 28.8-6.5 11.3-.8 22.8.7 34.2 1.2 1.2.1 2.4.9 3.7 1.1 2.5.6 5 .9 7.5 1.5 5.5 1.1 11.5 1.3 16.4 3.7 6.9 3.3 9.6 9.7 9.5 17.6-.2 11.9-3 22.7-20 24.2-7.5.6-14.9 2.6-22.5 3.3-3.8.3-5.4 1.9-5.5 5.3-.1 3.5-.5 7.6 4.4 8.4 5.1.8 10.3 1.1 15.4 2.1 6.6 1.4 13.1 3.2 19.7 4.9.8.2 1.4 1.3 2.2 1.8.9.7 2 1.9 2.8 1.8 5.9-1.4 10 2.7 14.9 4.4 5.9 2 11.6 4.3 17.4 6.5 4.7 1.7 7 .6 7-3.1 0-10.2.2-20.4.1-30.6-.1-8.7-1.1-17.6-.4-26.2 1.2-13.9-4.5-25-12.1-35.6-.6-.8-1.9-1-2.9-1.4-13.9-4.2-28.3-3.4-42.4-4.1-15.2-.7-30.5-.1-45.8-.1-11 0-21.9-.2-32.9-.1-5 0-10.2-.2-15 1.1-6.7 1.8-13.4 4.5-19.6 7.6-2.5 1.3-4.4 4.6-5.5 7.5-1.4 3.7-2 7.7-2.5 11.7-1.8 15.5-3.4 31-5 46.4zm91.8-46.1c0-.1 0-.2 0-.3-3.1 0-6.2-.2-9.2 0-8.7.7-17.5.8-26 2.6-3.2.7-7.6 4.9-7.9 7.9-.3 3.6 2.1 9.1 5.1 11.1 4.7 3 10.7 4.6 16.4 5.3 7 .8 14.2 0 21.4-.3 5.3-.2 10.7-.4 15.9-1 7.5-.8 15.1-1.6 22.5-3.2 2.3-.5 4.6-3.2 6-5.4 2.5-3.8 2-9.9-.9-11-5.8-2.3-11.8-4.8-18-5.5-8.4-.9-16.9-.2-25.3-.2z"/><path d="m202.8 300c-9.8-.9-19.8-1-29.4-2.9-5.3-1.1-10.8-3-16-4.9-10.5-3.8-11.8-11.9-15.3-20.3-6-14.4-3.3-29.1-3.2-43.6 0-6.3 1.8-13.6 5.3-18.7 3.9-5.8 9.2-11.6 17.5-12.6 3.9-.5 7.5-2.8 11.4-3.2 7.4-.9 14.8-1.5 22.2-1.3 14.6.2 29.1.9 43.7 1.7 10.6.6 22.1 10.7 25.5 20.9 5.5 16.7 3.2 33.7 2.3 50.6-.3 5.8-2 12.2-5.2 17-4 6.1-9.5 10.5-17.7 12.7-13.7 3.3-27.3 3.7-41.1 4.6zm-17.5-95.5v1c-4.1 0-8.1-.1-12.2 0-7.8.2-18.8 6.6-19.2 17.1-.3 6.1-.7 12.3-1.9 18.3-2.8 14.4-.5 27.6 8 39.5 1.1 1.5 3.7 2.5 5.7 2.8 10.1 1.4 20.3 1.7 30.2 3.7 15.9 3.1 31.2-.2 46.6-3.4.6-.1 1.3-.5 1.7-.9 3.4-5.2 10-8.7 8.3-16.5-.2-.7.1-1.6.5-2.4 4-8.8 2.1-18.1 2.2-27.1.1-5.3-1.9-10.6-2.6-15.9-.8-5.5-8.8-14.5-14.2-15-6.4-.6-12.9-.9-19.4-1-11.3-.3-22.5-.2-33.7-.2z"/><path d="m205.1 269.3c-8.1-1.7-16.4-2.8-24.2-5.5-3-1-5.3-5.3-7-8.5-1.6-3.1-2.3-6.8-2.8-10.3-.3-2.2.6-4.6 1-6.9.1-.4.7-.9.7-1.2-.5-7.4 5.3-10.3 9.9-14 .8-.7 1.8-1.7 2.7-1.7 7.5-.4 15.1-.6 22.6-.7 2.9-.1 5.8.4 8.6.2 7.2-.5 11.4 4.6 14.8 9.3 4.4 5.9 5.6 13.7 4 20.9-1.2 5.6-4 10.3-10.5 13.3-6.6 3.1-12.8 3.8-19.6 3.9 0 .4-.1.8-.2 1.2zm3.9-12.6c2.3-1 6.8-2 9.9-4.6 7.3-6 5.4-14.2-1.7-16.6-3.5-1.2-7.2-2.9-10.8-3.1-6.1-.2-12.5-1.3-18.4 2.1-3.4 2-5 4.9-4.3 8.5.9 4.5.1 10.4 6.7 11.4 5.5.8 11 1.4 18.6 2.3z"/></g></svg>