<?xml version="1.0" encoding="utf-8"?>
<svg version="1.1" id="zdic.net" xmlns="http://www.w3.org/2000/svg" xmlns:xlink="http://www.w3.org/1999/xlink" x="0px" y="0px"
	 viewBox="0 0 400 400" style="enable-background:new 0 0 400 400;" xml:space="preserve">
<g>
	<path d="M255.88,288.13c7-1.03,13.41-1.89,19.79-2.99c1.03-0.18,2.06-1.27,2.77-2.19c5.17-6.68,6.32-14.56,6.3-22.65
		c-0.02-10.12-0.41-20.23-0.58-30.35c-0.04-2.12,0.06-4.25,0.29-6.36c0.7-6.4,2.48-8.21,9.27-9.47c3.95,6.56,6,13.84,6.86,21.42
		c2,17.44,0.58,34.65-4.06,51.58c-0.37,1.36-1.25,2.69-2.2,3.76c-7.55,8.5-17.1,12.65-28.41,13.07c-3.86,0.14-7.7,0.68-12.04,1.08
		c-0.59,13.22-1.17,26.39-1.79,40.21c7.28,1.5,14.52,3.17,21.83,4.46c12.16,2.15,24.43,3.71,36.53,6.17
		c8.44,1.72,16.09,5.49,21.43,12.72c1.23,1.67,2.11,3.59,3.23,5.55c-5.98,3.94-12.22,5.1-18.51,2.91
		c-22.16-7.71-45.27-11.16-68.16-15.58c-11.88-2.29-24.09-3.04-35.81-5.9c-8.34-2.03-16.95-5.21-23.89-10.09
		c-7.6-5.33-12.91-13.67-15.47-22.92c-1.75-6.32-3.07-12.93-3.37-19.46c-1.27-27.74,1.08-55.12,9.11-81.88
		c1.17-3.9,2.86-6.04,6.94-6.25c1.59-0.08,3.17-0.55,4.88-0.86c3.21,5.6,4.08,11.53,3.08,17.74c-2.18,13.55-5.28,27.01-6.44,40.64
		c-1.05,12.36-1.01,25,0.33,37.32c1.71,15.66,16.36,28.49,30.98,30.42c5.64,0.74,11.22,2.02,17.16,3.12
		c0.25-4.89,0.39-9.25,0.7-13.59c1.4-19.55,3.11-39.08,4.2-58.65c0.94-16.88,0.38-33.74-4.02-50.21c-0.59-2.22-2.05-4.52-3.74-6.08
		c-9.1-8.37-18.25-16.72-27.7-24.69c-8.31-7.01-10.19-15.81-7.69-25.67c1.65-6.49,3.54-13.23,7-18.83c2.38-3.85,7.24-7,11.67-8.62
		c23.16-8.48,46.62-6.96,69.88-0.32c9.78,2.79,14.88,10.63,15.03,22.56c0.08,6.56-1.07,13.15-1.73,19.71
		c-0.08,0.83-0.29,1.86-0.84,2.41c-7.18,7.26-14.64,14.09-25.66,14.61c-0.12,0.01-0.25,0.02-0.37,0.03
		c-5.73,0.08-9.46-5.39-7.24-10.79c0.33-0.79,1.4-1.34,2.21-1.86c3.47-2.22,6.95-4.42,10.47-6.56c3.91-2.39,6.06-5.82,6.43-10.39
		c0.18-2.24,0.45-4.47,0.53-6.71c0.23-6.62,0.12-6.83-6.21-9.07c-8.03-2.83-16.38-3.33-24.76-2.68c-10.69,0.83-21.36,1.94-32,3.22
		c-1.7,0.21-3.73,1.61-4.73,3.06c-5.24,7.6-5.72,15.78-2.06,24.18c0.52,1.2,1.51,2.29,2.52,3.16c7.2,6.19,14.35,12.45,21.72,18.43
		c10.85,8.81,15.78,20.57,16.23,34.03c0.55,16.48,0.13,32.99,0.13,49.48C255.88,284.86,255.88,286.21,255.88,288.13z"/>
	<path d="M111.43,193.68c8.07,0.11,15.4,0.18,22.73,0.34c2.6,0.06,5.26,0.05,7.79,0.56c3.41,0.68,5.6,2.97,6.92,6.24
		c1.14,2.82,0.66,4.42-2.34,5.77c-6.11,2.74-12.4,2.24-18.77,2.04c-3.59-0.12-7.2,0.21-10.79,0.53c-2.09,0.19-3.1,1.28-3.16,3.72
		c-0.6,21.86-1.45,43.71-2.02,65.57c-0.26,10.09-0.04,20.2-0.04,30.57c2.8,0,6.26,0.12,9.69-0.03c7.23-0.32,14.46-0.83,21.69-1.15
		c1.98-0.09,4.01,0.04,5.96,0.4c6.56,1.22,8.62,5.85,5.15,11.57c-0.49,0.81-1.64,1.5-2.59,1.7c-22.9,4.74-45.92,8.81-69.4,8.22
		c-7.52-0.19-15.01-2.11-22.46-3.51c-1.2-0.23-2.89-1.82-3.01-2.93c-0.24-2.26-1.3-5.26,1.87-6.56c3.31-1.36,6.65-3.03,10.12-3.55
		c7.88-1.19,15.86-1.75,23.8-2.59c0.86-0.09,1.7-0.32,2.32-0.44c0-33.07,0-66,0-100c-6.52,0-12.35,0.07-18.17-0.03
		c-3.11-0.05-6.34,0.05-9.3-0.75c-2.5-0.67-5.28-2.03-6.9-3.95c-3.76-4.47-2.37-8.37,3.27-9.16c7.15-1,14.38-1.43,21.6-1.82
		c9.19-0.5,9.13-0.39,9.24-9.31c0.27-22.24,0.54-44.48,0.98-66.72c0.06-2.8-0.77-3.83-3.43-3.91c-8.24-0.25-16.48-0.47-24.7-0.93
		c-6.46-0.36-10.4-3.65-10.66-8.87c-0.06-1.19,0.98-3.1,2.01-3.58c6.26-2.88,12.69-4.53,19.83-4.36
		c17.74,0.43,35.49-0.03,53.24,0.26c4.65,0.08,9.31,1.42,13.89,2.5c2.77,0.66,4.35,2.63,4.51,5.71c0.16,3.02-1.29,4.93-3.96,5.49
		c-5.93,1.25-11.9,2.44-17.91,3.11c-5.68,0.63-11.43,0.56-17.01,0.79C111.43,140.92,111.43,166.74,111.43,193.68z"/>
	<path d="M244.03,25.75c9.09,1.5,12.8,6.4,11.95,15.22c-0.7,7.31-1.38,14.63-1.92,21.96c-0.28,3.85,1.07,6.11,5.36,7.45
		c27.4,8.58,49.96,25.11,70.62,44.43c3.27,3.05,5.36,7.45,7.64,11.42c0.82,1.43,1.29,4.69,0.74,5c-2.14,1.2-5.01,2.53-7.13,1.99
		c-3.64-0.93-7.28-2.77-10.31-5.04c-12.18-9.16-23.96-18.85-36.2-27.92c-11.23-8.32-23.5-14.55-38.08-12.94
		c-12.57,1.39-24.36,5.2-34.4,13.35c-13.58,11.02-27.32,21.86-40.69,33.13c-3.65,3.08-7,1.23-10.54,1.16
		c-0.28,0-0.63-0.38-0.81-0.67c-0.81-1.32,0.72-10.53,1.97-11.72c16.05-15.45,32.91-29.98,51.69-41.99
		c6.76-4.33,14.54-7.12,22-10.29c2.68-1.14,4.15-2.8,4.16-5.48c0.03-6.09,0.03-12.2-0.37-18.27
		C239.23,39.21,240.66,32.42,244.03,25.75z"/>
</g>
</svg>
