<svg enable-background="new 0 0 400 400" viewBox="0 0 400 400" xmlns="http://www.w3.org/2000/svg"><path d="m374.8 390.4.4-.4c.7.5 1.3 1 1.8 1.4l-.5.5c-.5-.6-1.1-1.1-1.7-1.5zm1 7.3-.6-.3c.5-1.4 1.1-2.8 1.5-4.3.2.1.4.2.6.3-.5 1.3-1 2.8-1.5 4.3zm-.4-10.3.4-.4c.4.3 1 .8 1.7 1.4l-.5.5c-.4-.5-1-1-1.6-1.5zm2.5.3h1.7v-1h.6v1h3.5v-1h.6v1h1.8v.5h-1.8v1.4h-2v1h3.2v2h-3.2v.9h3.3v.5h-3.4c0 .3-.1.6-.1.9h4v.5h-3.7c.7.9 1.9 1.5 3.8 1.7-.1.2-.2.4-.3.6-2.1-.4-3.5-1.1-4-2.1-.4 1-1.8 1.7-4 2.2-.1-.2-.2-.4-.3-.6 2.1-.4 3.4-1 3.8-1.8h-3.4v-.5h3.6c.1-.3.1-.6.2-.9h-3.3v-.5h3.4c0-.3 0-.6 0-.9h-3.2v-2h3.3v-1h-2.1v-1.4h-1.7v-.5zm1.1 3.5v1h2.7c0-.3 0-.4 0-.4 0-.1 0-.2 0-.2 0-.1 0-.2 0-.3h-2.7zm1.2-3v.9h3.5v-.9zm4.7 3h-2.6v.6.4h2.6z" fill="#fbfafc"/><path d="m393.6 386.7h.6v1.5h2.7v6.1h1.1v.6h-11v-.6h1.1v-6.1h2.7v-1.5h.6v1.5h2.1v-1.5zm-2.7 8.8.4.6c-1.2.6-2.5 1.3-3.8 1.9-.1-.2-.2-.4-.3-.6 1.2-.6 2.5-1.2 3.7-1.9zm-2.2-6.7v2.4h2.1v-2.4zm0 3v2.5h2.1v-2.5zm2.8-3v2.4h2.1v-2.4zm0 3v2.5h2.1v-2.5zm6 6.1c-1.4-.7-2.7-1.3-3.9-1.8l.3-.6c1.5.6 2.7 1.2 3.9 1.7zm-1.2-9.1h-2.1v2.4h2.1zm-2.1 3v2.5h2.1v-2.5z" fill="#fbfafc"/><g fill="#010000"><path d="m200.6 155.3c9.6.8 20.3 1.5 30.9 2.7 15 1.8 24.6 10.3 30 24.3 5.5 14.1 7.6 28.7 7.8 43.8.2 20.6-1 41.1-5.9 61.3-1.8 7.6-5.6 13-12.2 17.1-12.5 7.9-26 12.3-40.8 12.7-21.7.7-43-2.3-63.7-8.8-2.1-.7-4-2.4-5.8-4-8.7-7.5-9.7-18.1-11.2-28.6-2.7-18.6-5.5-37.2-4.1-56.1 1-14.6 3.5-28.9 8.4-42.8.7-1.9 2.1-3.7 3.6-5 10.1-9.2 22.5-13.3 35.8-14.7 8.7-.9 17.4-1.2 27.2-1.9zm53.5 86.5c-37.8 0-75 0-113.5 0 0 5.1-.2 10.5 0 15.9.4 12.4 1.9 24.6 9.7 35 2.5 3.4 5.3 6.1 9.6 6.7 7 1.1 14 2.4 21.1 3.1 17.4 1.7 34.7 1.6 51.8-2.2 6.9-1.5 12.6-6 15.7-12.6 6.8-14.3 5.4-29.6 5.6-45.9zm-.1-16.6c.5-12.4 1.1-24.5-2.9-35.9-1.7-4.9-5.5-10.2-9.8-12.6-6.1-3.5-13.5-5.9-20.5-6.4-12.9-.9-25.9-.5-38.8.1-7.5.4-15.1 1.6-22.3 3.8-4.4 1.3-9.9 4-11.8 7.7-6.9 13.5-9.2 28-5.9 43.3z"/><path d="m199 344c30.4 0 60.7-.1 91.1.1 4.8 0 9.7.8 14.4 1.6 3.2.5 4.7 2.4 4.9 6 .2 3.7-1.9 4.7-4.4 5.2-6.3 1.3-12.7 3.1-19 3.1-44.8-.1-89.6-.7-134.3-.9-11.5-.1-23 1-34.5.7-8.9-.2-17.7-1.8-26.5-2.6-4.1-.4-3.1-3.7-3.5-5.8-.2-1.1 1.3-3.3 2.4-3.7 4.9-1.4 9.9-3.2 14.9-3.3 31.5-.3 63-.1 94.5-.1 0-.1 0-.2 0-.3z"/><path d="m270.5 90.9c0 16 .1 30.6-.1 45.1 0 3-.2 6.3-1.3 9-.8 1.9-3.3 3.6-5.4 4.4-2.9 1.1-4.2-1.4-5.2-3.8-4.5-10.5-3.9-21.5-3.8-32.5.1-6.6 0-13.2 0-20.1-7.3 1.2-12.4 3.2-16.6 8.1-4.9 5.6-10.7 10.4-16.3 15.3-2 1.7-4.7 2.9-7.3 3.6-4 1.1-6.7-1.4-5.3-5.2 1.5-4 3.4-8.2 6.3-11.3 4.9-5.3 10.3-10.5 16.3-14.6 5.8-4 12.3-7 18.9-9.5 4.2-1.5 5.5-3.9 5.7-7.8.2-5.5.4-10.9.9-16.4.2-2.5 1-5.1 1.8-7.5 1.8-5.5 3.6-6 8.2-2.6 4.2 3.1 4.2 7.3 3.5 11.8-.8 5.4-1.4 10.9-2.3 16.3-.5 3.5 1 5.1 4.2 5.6 13.8 2.2 24.9 9.7 35.4 18.3 5.4 4.4 9.5 9.7 10.8 16.8.8 4.3-1.9 7.2-6.2 6-2.4-.6-4.6-2.2-6.5-3.9-5.9-5.1-11.2-11-17.5-15.5-5.3-3.6-11.8-6.2-18.2-9.6z"/><path d="m131.2 94.3c-9.8 3.7-18.8 5.5-25.1 13.4-4.3 5.3-9.4 10.6-16.7 11.9-2 .4-5.4.2-6.1-.9-1-1.6-.5-4.5.2-6.6 1.7-5.5 6.1-9 10.5-12.4 4.6-3.6 8.8-7.8 13.8-10.8 4.7-2.9 10.1-4.9 15.3-6.9 7.8-3 8.9-4.7 7.9-13.3-.5-4.5-.5-9.1-.4-13.6 0-2.2.4-4.6 1.2-6.6.8-1.9 2.5-5.2 3.5-5.1 2.3.2 5.4 1.7 6.5 3.5 1.5 2.7 1.9 6.3 2.1 9.6.4 5.9.1 11.9.3 17.9.1 3.1 2.1 4.6 5 5.7 12.1 4.4 24.1 9.1 33.1 18.6 4.1 4.2 7.2 9.4 10.3 14.4.8 1.3.4 4.8-.6 5.5-1.7 1.2-4.7 1.7-6.7 1-2.4-.8-4.6-2.9-6.5-4.8-8.5-8.1-17.3-15.7-28.8-19.4-.8-.2-1.5-.5-2.3-.6-.3-.1-.6.1-1.6.3-.5 11.6-1 23.4-1.7 35.2-.2 4-.8 8.1-1.9 11.9-1.6 5.6-4.4 6.9-11.2 5.8-.1-17.4-.1-35-.1-53.7z"/></g></svg>