<svg enable-background="new 0 0 400 400" viewBox="0 0 400 400" xmlns="http://www.w3.org/2000/svg"><path d="m374.8 390.4.4-.4c.7.5 1.3 1 1.8 1.4l-.5.5c-.5-.6-1.1-1.1-1.7-1.5zm1 7.3-.6-.3c.5-1.4 1.1-2.8 1.5-4.3.2.1.4.2.6.3-.5 1.3-1 2.8-1.5 4.3zm-.4-10.3.4-.4c.4.3 1 .8 1.7 1.4l-.5.5c-.4-.5-1-1-1.6-1.5zm2.5.3h1.7v-1h.6v1h3.5v-1h.6v1h1.8v.5h-1.8v1.4h-2v1h3.2v2h-3.2v.9h3.3v.5h-3.4c0 .3-.1.6-.1.9h4v.5h-3.7c.7.9 1.9 1.5 3.8 1.7-.1.2-.2.4-.3.6-2.1-.4-3.5-1.1-4-2.1-.4 1-1.8 1.7-4 2.2-.1-.2-.2-.4-.3-.6 2.1-.4 3.4-1 3.8-1.8h-3.4v-.5h3.6c.1-.3.1-.6.2-.9h-3.3v-.5h3.4c0-.3 0-.6 0-.9h-3.2v-2h3.3v-1h-2.1v-1.4h-1.7v-.5zm1.1 3.5v1h2.7c0-.3 0-.4 0-.4 0-.1 0-.2 0-.2 0-.1 0-.2 0-.3h-2.7zm1.2-3v.9h3.5v-.9zm4.7 3h-2.6v.6.4h2.6z" fill="#fbfafc"/><path d="m393.6 386.7h.6v1.5h2.7v6.1h1.1v.6h-11v-.6h1.1v-6.1h2.7v-1.5h.6v1.5h2.1v-1.5zm-2.7 8.8.4.6c-1.2.6-2.5 1.3-3.8 1.9-.1-.2-.2-.4-.3-.6 1.2-.6 2.5-1.2 3.7-1.9zm-2.2-6.7v2.4h2.1v-2.4zm0 3v2.5h2.1v-2.5zm2.8-3v2.4h2.1v-2.4zm0 3v2.5h2.1v-2.5zm6 6.1c-1.4-.7-2.7-1.3-3.9-1.8l.3-.6c1.5.6 2.7 1.2 3.9 1.7zm-1.2-9.1h-2.1v2.4h2.1zm-2.1 3v2.5h2.1v-2.5z" fill="#fbfafc"/><g fill="#010000"><path d="m165.7 198c17-2 22.8-11.7 22.5-25.9-.2-9.9-.2-19.8-.1-29.7 0-1.8.8-3.9 1.9-5.3 2.9-3.4 6.2-2.9 8.4.9 4.3 7.7 5.1 16.1 4.2 24.5-1 9.5-2.5 19-4.9 28.2-3.3 12.6-13.9 17-25.2 20.1-1.4.4-2.9.8-4.3.6-8.4-.8-10.5 4.3-12.1 11.3-5.6 24.5-8.4 49.3-6.6 74.3 1 13.6 5.3 26.9 7.9 40.4 1.1 5.5 2 11.1 2.3 16.8.1 1.8-1.5 5-2.8 5.2-1.9.4-4.9-.7-6.2-2.2-5.8-6.6-7.6-14.8-9-23.2-3.3-19-6.7-38-6.2-57.4.7-29.6 4.4-58.8 15.5-86.5 6.1-15.3 6.8-30.8 3.5-46.7-1-4.6-1.5-9.3-2.7-13.8-.3-1.3-2-3.2-3.2-3.2-4.4-.3-5.6-3.3-5.6-6.6 0-12.2.2-24.3.7-36.5.3-6.1-1.9-8.4-7.2-5.3-4.9 2.8-9 7.1-13.5 10.7-4.7 3.8-9.2 8.1-14.4 11.2-4.3 2.6-7 .5-6.3-4.5.4-2.9 1.8-6 3.7-8.2 4.4-5.2 8.9-10.5 14.3-14.5 4.8-3.5 10.6-6 16.4-7.8 4.6-1.4 6.6-2.9 6.7-8 .1-6.8 1.3-13.5 2-20.2 6.8-.1 9.7 2.6 9.8 9v1.9c0 13.4.3 13.7 12.4 18.8 13 5.5 23 14.4 28.4 27.7 1 2.6 2 5.2-1.1 7.3-3.3 2.2-5.6.1-7.7-1.9-4.5-4.2-8.5-9-13.3-12.9-4.7-3.9-10-7-15-10.5-.6.2-1.3.5-1.9.7-1 15.3-2 30.6-3.1 46.3 12.2 1.5 13.1 12.1 14.6 21.4 2.7 16 1.7 32-2.3 47.7-.2.8-.4 1.6-.5 2.4.1 1.1 0 2.1 0 3.4z"/><path d="m288.2 294c-11.5 10.1-22.4 20.3-33.9 29.7-8.9 7.3-18.5 13.7-27.9 20.3-4.2 3-8.9 4.6-14.3 2.7 0-4.8 1.2-8.4 5.5-11.5 21.2-15.3 41.9-31.3 60.2-50.1.7-.7 1.5-1.1 2.7-1.9-4.5-4.1-8.4-7.7-13-11.9-1.8 2-3.3 4-5.1 5.7-12.3 11.9-23.3 25.4-38.3 34.4-7.9 4.7-15.4 6.9-21.9 6.6-2.7-6.6-2.6-6.9 2.9-10.5 6.3-4.2 13.1-7.9 19-12.7 11.6-9.4 22.8-19.5 34.4-29.4-7.8-5.9-7.6-5.7-13.9-.9-12.2 9.1-24.9 17.6-39.9 21.7-1.6.4-3.2.9-4.8.8-2.3-.3-4.5-1.1-6.8-1.7 1.3-2.9 1.8-7.1 4-8.6 7.1-4.6 14.7-8.2 22.2-12 8.6-4.3 17.2-8.5 23.3-16.3 1.6-2 2.7-4.3 4.6-7.3-10.2 0-19.3.1-28.4 0-4.5-.1-9-.4-13.5-1-1.6-.2-3.3-1.4-4.6-2.5-4-3.7-3.5-6.6 1.5-8.4 3.1-1.1 6.6-1.9 9.8-1.9 28.6-.1 57.2-.1 85.8 0 2.7 0 5.8 0 8.1 1.2 2.2 1.1 4.4 3.4 5 5.6.4 1.2-2.2 4.4-3.9 4.9-4.6 1.3-9.4 2.1-14.2 2.3-11 .3-22 .1-33.2.1-1.6 4.5-1.2 7.5 3.3 10.9 10.9 8.3 21.5 17.2 31.3 26.8 4.4 4.4 7.2 10.7 9.7 16.6 1.3 3.1.8 7.2.4 10.7-1.9 14.9-13.7 22.4-23.8 31.1-13.3 11.5-28.9 19.2-44.4 26.9-2.9 1.4-6.6 1.5-9.9 1.6-3.5.1-4.8-2.2-3.1-5.2 1.3-2.2 3.3-4.4 5.5-5.8 14.6-8.8 29.4-17.2 43.9-26.1 7.6-4.7 13.7-10.9 16.8-19.6 2.1-6.1 1.7-11.9-1.1-15.3z"/><path d="m294.5 173.5c.3 10.6-1.2 21-5.3 30.9-.8 2.1-2.6 4.2-4.5 5.3-17.6 10-35.8 9.9-54.1 1.9-2.1-.9-3.9-2.9-5.3-4.8-7.2-9.5-8.5-20.6-6.8-31.9 1.3-9.1 3.7-18 5.9-27 .5-1.8 2-3.7 3.5-4.9 6.3-4.9 13.2-8 21.5-7.4 6.8.5 13.7 0 20.3 1.1 15 2.4 24 13.2 24.7 28.6.3 2.6.1 5.4.1 8.2zm-12.8-3.4c-.8-7.7-1.1-15.2-8.1-18-12.2-4.8-25-6.8-37.1.9-1.1.7-2.1 2.1-2.3 3.4-.8 4.6-1.3 9.2-1.8 13.8 16.3-.1 32.4-.1 49.3-.1zm-49.4 14.2c-.7 6.9.1 14.6 6.7 17.3 12.1 5 24.9 5.3 37.1-.9 1.5-.8 3-2.6 3.4-4.3 1-3.7 1.3-7.6 2-12.1-16.4 0-32.6 0-49.2 0z"/><path d="m266.3 74.4v41.9c0 2.1.5 4.5-.3 6.2-1 2.1-3 4.5-5 5-1.5.3-4.3-1.9-5.3-3.7-4.4-7.9-3.3-16.6-2.9-25.2.3-6.9.1-13.9-.2-20.8-.1-3.3-2.4-4.3-5.1-2.7-3 1.7-6.1 3.6-8.5 6.1-3.9 3.9-7 8.5-10.8 12.5-2.3 2.5-5 4.6-7.9 6.4-1.3.9-4.2 1.6-4.7 1-1.2-1.4-2.4-4-1.9-5.6 1.4-4.4 3.2-8.8 5.7-12.6 2.1-3.2 5.6-5.5 8-8.5 4.8-6 10.8-10.4 18.3-11.9 7.2-1.5 8.4-6.4 8.8-12.4.2-3.2.9-6.4 2-9.4.7-2 1.1-5.3 4.7-4.2 3.4 1.1 6.5 2.8 6.1 7.1-.2 2.6-1 5.1-1.5 7.6-1.6 7.9-1.1 9.3 6.6 11.4 11.7 3.2 20.5 10.4 27.6 19.7 3.2 4.2 4.9 9.7 6.9 14.8.5 1.4 0 4.3-1.1 4.9-1.7 1.1-4.6 1.7-6.2.9-2.8-1.4-5.1-3.8-7.3-6.2-7.1-7.5-12.7-16.5-22.7-21-1.1-.4-2.1-.8-3.3-1.3z"/><path d="m98.5 276.2c.7-16.3 1.5-32.5 6.7-48.1.8-2.4 1.6-5.1 3-7.1s3.8-4.7 5.6-4.6c3.6.3 7.1 2.1 6.2 7.2-1.8 10.2-2.6 20.6-5.3 30.5-4.7 17.3-3.1 34.3-.3 51.5 1.6 10 2.4 20.2 3.4 30.3.4 4.2-1.5 7-6.1 6.5-1.7-.2-4.3-1.4-4.6-2.7-1.9-6.8-3.9-13.7-4.7-20.7-1.6-14.1-2.6-28.5-3.9-42.8z"/><path d="m164.5 269.6c.9-15.5 1.4-27.2 2.3-38.8.3-3.1 1.7-6.2 3-9.2.5-1.3 2.3-3.1 3-3 1.9.4 4.2 1.6 5 3.1 1.2 2.2 1.6 5 1.5 7.5-.1 11.5-.2 23-.9 34.5-1 14.9 4.4 28.6 7.5 42.8 1.8 8.2 4.9 16.1 6.7 24.3s-.5 9.9-7.5 9c-1.5-.2-3.3-1.8-4-3.3-7.1-13.3-10.8-27.7-13.3-42.4-1.7-9.4-2.6-18.9-3.3-24.5z"/><path d="m100.4 210.1c-2.1-.2-4.2-.6-6.2-.7-4.1-.1-4.8-3.1-4.4-6 .2-1.6 2.2-3.4 3.8-4.3 1.4-.9 3.4-1 5.1-1 15.2-.5 28.7-14.6 28-29.7-.3-6.1-2.4-11.6-6.9-16.1-2.3-2.4-4.5-5.2-5.9-8.2-.7-1.6-.1-4.5 1-5.8.8-.9 3.8-.8 5.3-.1 16.3 7.5 20.2 24 19 38.2-1.7 20.3-24.4 34.5-38.8 33.7z"/></g></svg>