<svg enable-background="new 0 0 400 400" viewBox="0 0 400 400" xmlns="http://www.w3.org/2000/svg"><path d="m374.8 390.4.4-.4c.7.5 1.3 1 1.8 1.4l-.5.5c-.5-.6-1.1-1.1-1.7-1.5zm1 7.3-.6-.3c.5-1.4 1.1-2.8 1.5-4.3.2.1.4.2.6.3-.5 1.3-1 2.8-1.5 4.3zm-.4-10.3.4-.4c.4.3 1 .8 1.7 1.4l-.5.5c-.4-.5-1-1-1.6-1.5zm2.5.3h1.7v-1h.6v1h3.5v-1h.6v1h1.8v.5h-1.8v1.4h-2v1h3.2v2h-3.2v.9h3.3v.5h-3.4c0 .3-.1.6-.1.9h4v.5h-3.7c.7.9 1.9 1.5 3.8 1.7-.1.2-.2.4-.3.6-2.1-.4-3.5-1.1-4-2.1-.4 1-1.8 1.7-4 2.2-.1-.2-.2-.4-.3-.6 2.1-.4 3.4-1 3.8-1.8h-3.4v-.5h3.6c.1-.3.1-.6.2-.9h-3.3v-.5h3.4c0-.3 0-.6 0-.9h-3.2v-2h3.3v-1h-2.1v-1.4h-1.7v-.5zm1.1 3.5v1h2.7c0-.3 0-.4 0-.4 0-.1 0-.2 0-.2 0-.1 0-.2 0-.3h-2.7zm1.2-3v.9h3.5v-.9zm4.7 3h-2.6v.6.4h2.6z" fill="#fbfafc"/><path d="m393.6 386.7h.6v1.5h2.7v6.1h1.1v.6h-11v-.6h1.1v-6.1h2.7v-1.5h.6v1.5h2.1v-1.5zm-2.7 8.8.4.6c-1.2.6-2.5 1.3-3.8 1.9-.1-.2-.2-.4-.3-.6 1.2-.6 2.5-1.2 3.7-1.9zm-2.2-6.7v2.4h2.1v-2.4zm0 3v2.5h2.1v-2.5zm2.8-3v2.4h2.1v-2.4zm0 3v2.5h2.1v-2.5zm6 6.1c-1.4-.7-2.7-1.3-3.9-1.8l.3-.6c1.5.6 2.7 1.2 3.9 1.7zm-1.2-9.1h-2.1v2.4h2.1zm-2.1 3v2.5h2.1v-2.5z" fill="#fbfafc"/><g fill="#010000"><path d="m308.3 363.2c-9.1 3-9.8 2.9-11.8-5.8-1.4-6.1-2.2-12.5-2.4-18.7-.9-25.6-1.3-51.2-2.1-76.9-.6-19.3-1.3-38.6-1.9-57.9-.8-24.1-2.1-48.3-2.4-72.4-.2-13.8 1.2-27.5 1.3-41.3.1-12.1-2.4-23.8-10.1-34.4-9 7.6-17.8 15.2-27.2 23.1 4.5 3.6 8.9 6.7 13 10.3 5.2 4.6 10.3 9.4 14.9 14.5 1.4 1.5 2.1 5.3 1.2 6.8-1.7 2.9-5.2 2.5-7.8.7-7.5-5.4-14.9-10.9-22.3-16.4-3.2-2.4-6.4-4.9-9.3-7.2-7.2 6.4-13.9 13-21.4 18.7-3.7 2.8-8.7 4.3-13.3 5.3-4.1.9-6-2.1-4.2-6.1.8-1.7 2.1-3.3 3.5-4.5 8.3-7.2 16.7-14.3 25.6-21.9-8.2-6.5-16-12.8-23.9-18.9-7.9-6.2-8-6.1-15.6.2-7.8 6.4-15.6 12.7-23.3 19 6.5 5.5 13 10.6 18.9 16.3 2.5 2.5 4.4 6 5.6 9.4 1.5 4.2-.5 6.5-4.8 5.3-3.8-1.1-7.4-3.3-10.5-5.7-6.9-5.3-13.6-11.1-20.2-16.6-12.1 9.3-20.7 23.6-38.2 23.6-1.8-6.3-.5-10.6 4.7-14.2 6.9-4.8 13.4-10.3 20-15.6 1.1-.9 2.1-1.9 3.4-3.1-9.8-8.4-18.4-17.8-30.5-23.3-5.6 9.5-9 19.4-8.9 30.1.2 23.4.9 46.7.9 70.1-.1 35.6-.4 71.1-1 106.7-.3 22.9-1.2 45.7-1.9 68.6-.2 7.3-.6 14.6-.9 21.9 0 .6-.1 1.3-.2 1.9-1.2 6.6-3.7 9.8-8 9.1-5.6-.9-4.9-6-4.8-9.6.3-16.2 1.2-32.4 1.6-48.6.4-14 .4-27.9.5-41.9.3-53.6.5-107.2.9-160.8.1-10-.1-20.2 1.1-30.1 2.4-19.5 10.2-28.7 29.5-32.6 13.7-2.7 27.9-4 42-4.1 28.5-.1 57.1 1 85.6 1.9 7.6.3 15.1 1.6 22.6 3 9.2 1.7 15.9 7.2 18.8 15.9 2.9 8.3 5.7 17.1 6 25.8.8 17.8-.4 35.7-.2 53.5.1 15.7 1 31.4 1.5 47.2.8 24.3 1.5 48.6 2.2 73 .6 20.3 1.3 40.5 2 60.8.6 15.3 1.2 30.5 1.8 45.9zm-150.2-292c9-7.3 17.5-14.4 26.1-21.4-.1-.4-.3-.9-.4-1.3-15.7 1.1-31.3 2.2-48.3 3.4 8.2 7 15.2 13 22.6 19.3zm105.8-19.3c-16.5-.9-31.4-1.8-46.4-2.6-.1.3-.2.7-.3 1 7.9 6.9 15.7 13.8 23.7 20.8 7.6-6.2 14.7-12.2 23-19.2z"/><path d="m255.3 218c-6.9 5.4-14.3 8.1-22.7 7.9-6.9-.2-7.4-.6-9.3-8.4 4.9-1.9 9.9-3.9 15-5.8 2.1-.8 4.9-.8 6.3-2.2 1.9-1.8 3.5-4.6 3.7-7.1.1-1.5-2.3-3.9-4.2-4.9-8.8-4.9-18.3-6.8-28.5-6.3-6.3.4-8.9-2.2-7.9-6.8.3-1.5 2-3.4 3.4-3.8 14.5-3.8 28.3-1.8 41.3 5.5 2.2 1.2 3.9 3.3 6.4 5.5 3-11.5 6.1-22.7 2.2-34.3-2.2-6.7-13.5-11.4-22.2-10.6-7.3.7-14.8-.1-22.2-.2-.5 0-1-.1-1.4-.2-3.5-1.2-7-3.3-6.1-7 .6-2.3 4.1-4.9 6.8-5.5 4.7-.9 9.7-.6 14.6-.5 5.8.1 11.7 0 17.5 1 21 3.5 27.1 15.5 28.1 33.2.7 13.1-.7 26-9.1 37-.7.9-.8 2.7-.6 4 1.2 7.8 3.1 15.6 3.8 23.5 1.1 11 1.8 22 2 33 .3 23.2.1 46.5.1 69.7 0 .8.3 1.9-.1 2.4-1.1 1.6-2.3 3.7-3.9 4.1-1.3.4-4.3-1-4.6-2.2-1.6-5.3-3.3-10.8-3.7-16.4-.5-8.1.3-16.2.5-24.3.3-14.4.7-28.9.5-43.3-.3-12.3-1.9-24.6-5.7-37z"/><path d="m146.3 235.3c-1.5 26.7-3 53.4-4.5 80.1-.4 7.1-.7 14.2-1.3 21.3-.2 2-.9 4.6-2.3 5.7-1.8 1.4-4.6 2.1-6.9 2-1.2-.1-3.2-2.5-3.3-3.9-.1-6.5.3-13.1.6-19.7 1-20.1 2.2-40.1 3-60.2.8-20.4 1-40.8 1.9-61.2 1-22.3 12.7-32.8 34.7-34.4 4-.3 8.2-.3 12-1.4 2.2-.6 5.4-2.8 5.7-4.6.6-3.6 2.2-9-3.2-10.4-6.9-1.8-14.2-3.1-21.3-3.4-8.1-.3-16.2.8-24.2 1.3-.8 0-1.7.2-2.4 0-3.4-.9-7.4-1-7.9-5.8-.5-5.1 4.1-5.1 7-5.7 17.4-3.6 34.9-3.2 52.1.4 11.3 2.3 16.6 12.9 13.1 24-4.4 14.1-10.1 18.1-25.2 17.6-16.9-.5-25.6 6.7-27.4 23.8-1.2 11.4-1.1 23-1.6 34.5z"/><path d="m194.3 301.6c-5.7 6.7-11.6 13.8-17.7 20.7-5 5.6-10.5 10.7-18.4 11.9-3.6.6-5.8-1.3-4.7-4.8.7-2.4 2.1-4.8 3.8-6.5 4.7-4.9 9.8-9.4 14.8-14.1 14.3-13.6 18.5-30.6 16.5-49.7-.6-5.6-.6-11.3-.8-17.6-6.9-.4-13.7-.8-20.6-1.4-2.5-.2-5.4-.5-7.4-1.8-1.5-1-2.7-3.7-2.6-5.6.1-1.5 1.9-3.9 3.5-4.3 4.6-1.4 9.3-2.7 14.1-2.8 11.8-.4 23.7-.2 35.5-.2 2.2 0 4.5.5 6.7.9 7.6 1.6 7.6 1.6 9 9.6-7 6-16.2 3-23.6 5.4 0 11.7-.1 23.1.1 34.6.1 3.2.8 6.4 1.5 9.6 1.6 6.3 3.8 12.2 9.1 16.7 5 4.3 9.7 9.2 14 14.2 3 3.5 5.4 7.7 7.6 11.8.8 1.4.7 4.8.1 5.1-2 .9-4.6 1.3-6.7.8-1.7-.4-3.2-2.1-4.6-3.4-9.7-9.6-19.3-19.2-29.2-29.1z"/><path d="m215.3 273.7c.8-4.9 1.7-11.6 3.2-18.2.7-3.2 1.8-7.2 6.3-6.5 4.1.6 5.4 4 5.5 8 .3 12.2.4 24.3 1.4 36.4.4 4.3-.7 6.2-4.3 6.8-1.5.3-3.8-.3-4.7-1.4-5.4-6.7-6.7-14.8-7.4-25.1z"/><path d="m215 209.6c-5.2 1.1-10.3 3-15.3 3-11.5 0-22.9-1-34.4-1.5-4.6-.2-7.4-2.9-6.2-7 .6-2.2 4.7-4.6 7.2-4.7 10.9-.2 21.7.5 32.6.9 2.7.1 5.5.4 8.2.6 7 .4 7 .3 7.9 8.7z"/><path d="m174.8 265.8c-2.3 9.9-4.5 19.7-6.9 29.6-.8 3.4-2.8 6.2-6.6 5.7-4.1-.6-4.3-4.3-4.4-7.5-.1-1-.1-2 .2-2.9 4.2-11.7 3.1-23.9 3.9-35.9.1-1.8 1-4.5 2.3-5.1 1.4-.7 4 .2 5.6 1.1 3.7 2.2 5.4 7.5 5.9 15z"/></g></svg>