<svg enable-background="new 0 0 400 400" viewBox="0 0 400 400" xmlns="http://www.w3.org/2000/svg"><path d="m374.8 390.4.4-.4c.7.5 1.3 1 1.8 1.4l-.5.5c-.5-.6-1.1-1.1-1.7-1.5zm1 7.3-.6-.3c.5-1.4 1.1-2.8 1.5-4.3.2.1.4.2.6.3-.5 1.3-1 2.8-1.5 4.3zm-.4-10.3.4-.4c.4.3 1 .8 1.7 1.4l-.5.5c-.4-.5-1-1-1.6-1.5zm2.5.3h1.7v-1h.6v1h3.5v-1h.6v1h1.8v.5h-1.8v1.4h-2v1h3.2v2h-3.2v.9h3.3v.5h-3.4c0 .3-.1.6-.1.9h4v.5h-3.7c.7.9 1.9 1.5 3.8 1.7-.1.2-.2.4-.3.6-2.1-.4-3.5-1.1-4-2.1-.4 1-1.8 1.7-4 2.2-.1-.2-.2-.4-.3-.6 2.1-.4 3.4-1 3.8-1.8h-3.4v-.5h3.6c.1-.3.1-.6.2-.9h-3.3v-.5h3.4c0-.3 0-.6 0-.9h-3.2v-2h3.3v-1h-2.1v-1.4h-1.7v-.5zm1.1 3.5v1h2.7c0-.3 0-.4 0-.4 0-.1 0-.2 0-.2 0-.1 0-.2 0-.3h-2.7zm1.2-3v.9h3.5v-.9zm4.7 3h-2.6v.6.4h2.6z" fill="#fbfafc"/><path d="m393.6 386.7h.6v1.5h2.7v6.1h1.1v.6h-11v-.6h1.1v-6.1h2.7v-1.5h.6v1.5h2.1v-1.5zm-2.7 8.8.4.6c-1.2.6-2.5 1.3-3.8 1.9-.1-.2-.2-.4-.3-.6 1.2-.6 2.5-1.2 3.7-1.9zm-2.2-6.7v2.4h2.1v-2.4zm0 3v2.5h2.1v-2.5zm2.8-3v2.4h2.1v-2.4zm0 3v2.5h2.1v-2.5zm6 6.1c-1.4-.7-2.7-1.3-3.9-1.8l.3-.6c1.5.6 2.7 1.2 3.9 1.7zm-1.2-9.1h-2.1v2.4h2.1zm-2.1 3v2.5h2.1v-2.5z" fill="#fbfafc"/><g fill="#010000"><path d="m228 160.1c-7.6-.3-14.7-.6-21.8-1-8.4-.4-11.5-3.6-10.9-11.2 6.5-3.7 13.4-5 20.9-4.9 25.2.4 50.4.2 75.5.4 2.9 0 5.8.6 8.6 1.4 3.2.9 4.9 3.1 5.1 6.8.1 3.7-2 5.1-4.8 5.6-4.2.8-8.6 1.2-12.9 1.4-4.8.2-9.6.1-15.7.1 0 8.7-.1 16.3.1 23.9 0 1.3 1.4 3.3 2.6 3.8 3.7 1.6 7.5 3 11.5 3.8 11.9 2.5 20.3 11 21.8 23.1 1.9 15.4 4.3 30.9 4.6 46.4.5 22.6-3.5 44.6-14.2 64.8-2.4 4.4-7 8.2-11.3 11-22.9 15-47 16.7-70.6 2.6-11.7-7-19.3-18.3-22-32.5-6-31.2-7.6-62.4.4-93.5 1.7-6.6 3.3-13.6 9.5-17.5 4.4-2.8 9.5-4.6 14.4-6.4 9.1-3.3 9.2-3.1 9.2-12.9 0-4.8 0-9.6 0-15.2zm59.7 154.4c1-1.4 2.3-2.6 2.6-4 2.4-8.9 5.3-17.7 6.8-26.8 2.1-12.6 1.7-13.6-10.4-17.9-14-5-20.9-15-23.5-28.9-2.3-12.4-4.4-24.8-6.6-37.4-4.1 0-8.4 0-13.1 0-.1 1.6-.3 3-.3 4.4-.1 8.8-.1 17.5-.4 26.3-.6 16.5-4.9 30.6-22.5 37.1-5.5 2-12.6 4.6-14.8 9-2.4 4.8-.3 12 .5 18.1 1.1 8.3 3.2 16.4 7.9 22.5 9-11.6 17.9-23.1 26.9-34.5 4.2-5.4 9.8-6.3 16.2-4.6 6 1.6 10 6 13.3 10.8 5.7 8.5 11.3 17 17.4 25.9zm-37-23.3c-4.2 5.8-8.4 11.3-12.4 17.1-3.3 4.8-6.6 9.6-9.5 14.7-2.5 4.3-1.9 5.9 2.7 6.8 5.6 1.1 11.1 2.1 16.8 2.7 10.2 1 19.9-.4 28.5-6.5-5.9-15.7-16.6-30-26.1-34.8zm-23.2-89.9c-15.5 1.6-19.9 11.2-21.7 23.1-.1 1-.4 1.9-.6 2.8-1.6 10.6-2.5 21.1.3 32.2 5.3-2.8 10.3-5.1 14.9-8 2-1.2 4.2-3.5 4.6-5.6 1.7-8.7 3.2-17.5 3.8-26.3.4-6.1-.8-12.4-1.3-18.2zm46.2-.4c-1.1 12.8-.8 25.2 3.4 37.1 3.3 9.4 9.2 16.1 18.9 17.2 0-10.2.5-20.6-.1-30.8-.9-13.6-6.3-22.1-22.2-23.5zm-29.7-16c4.1-.2 8-.2 11.8-.6.8-.1 2.2-1.5 2.2-2.3-.2-7.4-.6-14.7-.9-22.2-4.6 0-8.9 0-13.1 0z"/><path d="m120.8 228c-3.5-1.1-6.7-2.3-10-3.2-17.9-4.8-24.6-18.5-26.9-35-2.6-18.4.1-36.5 5-54.3 2.2-8.1 9.8-10.9 16.3-14.2 4.2-2.1 9.2-2.7 14.5-4.1.4-6.3 1-13.3 1.5-21.3-8.4 0-16.2.2-23.9-.1-3.1-.1-6.4-1.1-9-2.6-1.5-.9-2.3-3.9-2.2-5.9.1-1.2 2.5-2.8 4-3.1 4.3-.8 8.6-1.1 13-1.3 2.7-.1 5.5.3 8.3.3 9.4.1 9.5.1 9.5-9.2.1-8.1 0-16.2 0-24.3 0-5.5 2.4-9.9 6.3-13.5 7 2 9.6 11.8 9.1 17.3-.8 7.9-1.1 15.8-1.7 23.6-.2 3.2 1.2 5.1 4.4 5 6.9-.1 13.8-.4 20.7-.5 3.2-.1 6.5-.3 9.6.4 3.9.8 5.2 4 5.3 7.7.2 3.8-3 4.2-5.3 4.4-6.7.5-13.4.4-20.2.5-.6 0-1.3-.3-1.9-.3-8.6-.4-9.9.7-10.7 9-.3 3.2-.4 6.5-1 9.7-.6 3.1.4 4.6 3.3 5.2 3.9.9 7.8 2.2 11.8 2.6 16.1 1.7 23.9 8.4 27.9 24.3 3.3 13.1 1.2 26.1-1.4 39-1.1 5.4-2.7 10.7-4.3 15.9-5 16.3-16.2 25.3-32.9 27.4-3.2.4-4.2 1.6-4.1 4.5.1 5 0 10 0 15.8 8.6 1.8 17.9 1 27.3.6 3.8-.2 7.8 0 11.5.9 4.4 1.1 7.1 4.3 7.7 9.2-7.4 5.1-15.7 5.4-24.2 4.9-5.7-.3-11.3-.6-17-.7-4.1-.1-6.1 1.8-6.1 6.2.1 24.2.1 48.4 0 72.6 0 5.6.1 11.3-.4 16.9-.2 2.2-1.3 4.8-2.8 6.4-2.8 2.8-7.3 1.6-8.1-2.4-1.6-7.2-3.5-14.6-3.5-21.9 0-23.4.9-46.7 1.4-70.1.1-6.5-.8-7.7-7.5-7.7-8.3 0-16.5.8-24.8.9-3.5.1-7.4.1-10.4-1.3-2.5-1.2-4.8-4.3-5.6-7-1-3.7 3.1-3.9 5.4-4.8 8.6-3.4 17.3-1.1 26-.4 3.8.3 7.7-.1 11.6-.1 3.4-.1 4.9-1.5 4.7-5.1-.4-5.5-.2-11-.2-16.8zm44.5-61.7c-1.6-9.3-2.9-17.6-4.7-25.7-.4-1.9-2.5-4.2-4.4-4.7-6.3-1.9-12.9-3.2-19.9-4.8v35.3c9.5-.1 18.7-.1 29-.1zm-43.5-.1c0-9.3.1-17.9-.1-26.5 0-1.9-.9-3.8-1.7-5.5-.4-.9-2-2-2.5-1.8-5.5 2.4-12.9 3.6-15.7 7.9-4.9 7.6-6.7 17-3.8 25.9zm40.9 14.8c-8.2 0-16.1-.1-24 .1-.9 0-2.5 1.3-2.5 2-.2 10-.1 19.9-.1 29.9 16.5-1.8 23.9-10.8 26.6-32zm-65.7.3c2 6.8 3.9 12.7 5.5 18.7 2.5 9.5 10.4 10.3 18.6 12-.5-10.5-1-20.4-1.5-30.7-7.2 0-14.1 0-22.6 0z"/><path d="m328.3 140.8c-7.5 3.6-13.7 1.4-19.1-2.4-10.8-7.7-21.3-15.9-31.8-23.9-1.5-1.2-2.7-2.9-4.3-3.9-10.4-6.4-13.9-16.4-13.6-27.8.3-11 1.5-21.9 2.9-32.8.4-2.8 3.3-5.2 5-7.7 2.4 2.4 6.1 4.5 6.9 7.3 1.4 4.8 1.1 10.2 1.2 15.3.2 8.7.1 17.5.5 26.2.1 1.9 1.3 4 2.5 5.6 7.4 9.6 17.5 15.8 28 21.4 7.1 3.7 13.8 8 18.1 15 1.5 2.3 2.4 4.8 3.7 7.7z"/><path d="m225.3 46.6c8 4 12.1 11.1 12.4 19.4.4 10.4-.7 21-1.7 31.4-.3 2.8-2.1 5.8-4.1 7.9-8.4 8.6-16.8 17.3-26 25-4.9 4.1-11.4 6.5-17.5 9-2.4 1-6.3 2.2-8.1-1.6-2-4-.1-7.5 2.9-9.8 6.2-4.9 13.1-9 19.4-13.8 5.6-4.3 11.5-8.6 16.1-13.9 8.4-9.5 6.5-20.8 3.6-31.8-1.9-7.1-2.9-14 1.8-20.4.1-.5.5-.8 1.2-1.4z"/></g></svg>