<svg enable-background="new 0 0 400 400" viewBox="0 0 400 400" xmlns="http://www.w3.org/2000/svg"><g fill="#010102"><path d="m114.9 74.3c-7.1 0-13.6.1-20-.1-2.9-.1-6.1-.3-8.4-1.6-2-1.2-3.5-4-4.2-6.4-.2-.8 2.4-2.8 4-3.8 1.1-.7 2.7-1.1 4.1-1.1 29.9 0 59.8.1 89.6.3 3.6 0 7.2.7 7.3 5.2 0 1.6-1.5 4.3-2.8 4.6-3.8 1.1-7.9 1.3-11.8 1.8-1.1.1-2.2-.5-3.3-.6-10.8-1.1-11.9 0-12.3 10.7-.2 5.2-.8 10.4-.8 15.5 0 1.3 1.5 2.6 2.4 3.9.1.1.3.2.4.2 13.2 4.7 19.6 14.2 21.4 28 3.3 25.4 6.9 50.8 5.6 76.5-1.2 22.6-3.1 45.2-5.9 67.7-2.6 21.3-17.9 34.3-39.4 35.1-5.9.2-12-.4-17.9-1.1-20.1-2.7-27.5-15.9-31-33.7-2.7-14.1-4.3-28.5-5.1-42.9-1-17.6-1.4-35.4-.9-53 .5-16.5 1.6-33.1 4.1-49.3 1.6-10 5-20.4 17.1-23.7 3.9-1.1 6.3-3.8 6.4-8.4.2-7.6.9-15.2 1.4-23.8zm13.3 40.3c.2 2.9.5 5.8.5 8.6-.5 16.9-1.4 33.7-1.6 50.5-.3 24.1-8.6 44.9-24.5 62.8-1 1.1-2 2.8-1.9 4.1.8 10.1 1.9 20.1 3 31.3 1.9-2.5 3.1-4 4.2-5.5 4.9-6.8 9.6-13.8 17.3-18.1 4.6-2.5 5.4-6.7 4.7-11.6-.4-2.8-.4-5.9.3-8.6.6-2.6 1.9-5.4 5.7-4.6 3.6.7 5.2 2.9 5 6.6-.2 3.9-.2 7.8-.4 11.7-.2 3.3 1 5.5 4.1 7 6.2 3 11.4 7.3 15.6 12.9 1.9 2.6 4.3 4.9 7.1 8 .9-9.5 1.1-18 2.7-26.2 1.1-5.9-1.2-10.1-4.3-14.2-2.7-3.7-6.1-6.9-8.4-10.7-3.4-5.6-8-11.4-8.7-17.5-2.3-20.7-3.3-41.6-4.5-62.5-.4-7.8-.1-15.7-.1-23.9-6.1-.1-10.7-.1-15.8-.1zm-20.1 170c2.4 7.3 7.7 9.7 13.9 10.8 4.6.8 9.3 1.7 13.9 1.9 8.9.5 17-2 23.8-7.9 1.1-.9 2-3.4 1.5-4.4-5.6-11.4-13.8-20.3-26-24.9-1.2-.5-3.6.3-4.6 1.3-7.6 7.6-15.1 15.5-22.5 23.2zm-8.3-68.6c.6 0 1.2.1 1.8.1 5.4-6.8 8.4-14.9 10.4-23.2 3.8-15.9 3.2-32.2 3-48.4-.1-9.3-.7-18.6-1.2-28.3-4.4 1.5-7.6 3.3-8.3 7.8-1.9 11.6-4.9 23.2-5.4 34.9-1 18.9-.3 38-.3 57.1zm58.5-100c-.4 1.1-.8 1.7-.8 2.3.2 21.4-.3 42.8 1 64.1.7 11.7 5.5 22.8 12.2 33 .6-2.2.7-4.4.8-6.6.2-5.3.7-10.7.5-16-.4-18.3-.4-36.6-1.7-54.8-.7-8.6-5.1-16-12-22zm-29-42.3v27.3c4.6-.2 9.2-.4 14-.7-.6-9.2-1.2-17.8-1.8-26.6-4.4 0-8 0-12.2 0z"/><path d="m247 365.2c-4-8.8-3.7-18.1-3-27.5.6-7.4.4-14.8.6-22.3.1-2.9-1.4-4.1-4.2-4.1-9.9 0-19.7 0-29.6-.1-3.9-.1-7.8-.3-11.6-.9-5.3-.8-8.8-3.8-10.3-10.4 5.1-1.1 10.1-3 15.2-3.2 11-.5 22.1-.1 33.1-.1h5.6c.6-4.8 1.1-9.3 1.8-14.6-7.6 0-14.6.1-21.7 0-5.2-.1-10.4-.2-15.5-.9-2-.3-4.4-1.7-5.6-3.4-1.3-1.8-1.9-4.5-1.6-6.7.1-.9 3.3-1.8 5.2-1.9 9.2-.4 18.4-.5 27.6-.9 2.2-.1 4.3-.7 6.7-1.1-1.5-5.8-2.9-10.9-3.9-15-10.1 0-19.5.1-28.9 0-5-.1-9.7-1.2-12.7-5.7-1.9-2.8-2.4-5.3 2.1-5.6 5.9-.5 11.9-1 17.8-1.2 4.8-.2 9.6 0 15.3 0-1.9-5.7-3.3-10.3-5-14.8-.4-1.1-1.6-1.9-2.7-2.6-1.9-1.2-3.9-2.2-5.9-3.3-12.9-7.2-18.2-18.3-15.8-33.2.3-2.1.8-4.1 1-6.2 1.7-13.6 11-19 23-22.3 12.6-3.5 25-2.1 37.5-.6 3.4.4 6.8.6 10.1 1.2 12.6 2.2 20.9 10.8 21.6 23.5.4 6.7-.4 13.6-1 20.3-.8 8.4-6.2 13.8-12.8 17.8-6.9 4.2-7.9 10.9-10 18.9h22.8c4.9 0 9.8 0 13.4 4.2 2 2.4 2 4.3-1.2 6.1-6.8 3.9-13.9 3.7-21.2 2.1-.9-.2-1.9-.5-2.8-.7-13.4-1.7-17.7 1.8-20.1 17.1 9.2 0 18.3-.3 27.3.1 4.1.2 8.4 1 12 2.6 1.8.8 2.9 4.1 3.3 6.4.1.8-2.9 2.9-4.7 3-8.3.8-16.8 2-25 1.3-13.5-1-14.6-.5-15.5 14.8 2.3.3 4.6.9 6.9.9 9.6.1 19.2-.2 28.7.2 3.6.1 7.5 1 10.6 2.8 2 1.1 3.1 4.2 3.9 6.7.1.4-3.1 2.7-4.8 2.9-6.9.6-13.8.8-20.7.9-6.4 0-12.9-.3-19.3-.5-3.1-.1-4.2 1.8-4.4 4.6-1 14.1-2 28.1-3.1 42.2-.1 1.1-.1 2.3-.1 3.4-.1 5.8-4 5.9-8.4 5.8zm.5-198.1c-6.1.4-10.8.5-15.4 1-10.6 1-16.3 5.6-18 15.3-.8 4.5-.9 9.4-.1 14 .6 3.9 1.4 8.3 6.5 9.9 13.7 4.3 27.7 6.8 42 4.3 6.2-1.1 12.9-2.6 15.9-8.9 3.9-8.1 3.4-16.7 0-25-2-4.8-5.9-7.9-11-8.6-7-1.1-14.1-1.5-19.9-2zm-8.1 57.6c3.6 8.9 6.9 17 10.2 25.1.3-.1.6-.1 1-.2 2.1-8.2 4.1-16.5 6.2-25-6 .1-11.3.1-17.4.1z"/><path d="m245.2 82.3c-6.9 2.1-14 3.6-20.5 6.6-11.6 5.4-22.7 11.8-34 17.7-2.5 1.3-5.2 3.3-7.7-.1-1.7-2.3-.3-8.5 2.5-10 17.4-9.2 33.2-21.6 53-26 5.1-1.1 6.2-4 6.4-8.6.3-7.2 1.1-14.4 2-21.6.2-1.5 2-4 2.8-3.9 1.9.3 4.5 1.3 5.2 2.8 1.3 2.9 2 6.4 2 9.6 0 5.2-1 10.3-1.1 15.5-.1 4.1 1.9 6.4 6.2 7.9 6.6 2.2 13.2 5.1 19.3 8.7 10.6 6.2 20.8 13.1 31.1 19.8 1.7 1.1 3.9 2.6 4.5 4.3.9 2.7.7 5.9 1 8.8-2.8.2-6 1.4-8.2.4-4.4-1.9-8.5-4.7-12.1-7.9-11.9-10.5-25.1-18.3-40.7-21.6-3.6-.8-7.4-1-11.1-1.5-.4-.2-.5-.6-.6-.9z"/><path d="m248.9 150.7c-7.6-1.6-15.3-2.6-22.6-4.8-9.3-2.7-14.5-12.8-13.7-22.5 1.4-17 13.1-21.6 26-22.1 11.6-.5 22.9 1.2 33.9 5.1 8 2.9 11.5 7.7 11.4 16-.1 15.7-10.6 26.1-27.4 27.1-2.4.1-4.9 0-7.3 0-.1.4-.2.8-.3 1.2zm-6-37.5c-4.1 1.4-9.9 2.9-15.3 5.4-1.5.7-2.4 4.5-2.1 6.8.4 2.9 1.6 7.4 3.5 8.1 11.1 3.7 22.6 5.8 34.2 1.7 6.2-2.2 7.3-4.2 6.8-11-.4-4.6-3.2-7.7-8.5-8.6-5.5-1-11.2-1.5-18.6-2.4z"/><path d="m251.2 182.1c5.1.4 10.3.7 15.4 1.3 1.5.2 3.4.8 4.4 1.8 1.6 1.6 2.9 3.7 3.7 5.9.1.4-2.7 2.3-4.4 2.9-14 4.6-28.1 6-42.2.5-2.4-.9-4.9-2.1-3.8-5.1.6-1.6 2.4-3.5 4-3.8 7.5-1.7 15.1-2.8 22.7-4.2.1.2.1.5.2.7z"/></g><path d="m385.2 377.6.6-.7c.6.4 1.3.9 1.9 1.5l-.6.7c-.8-.5-1.4-1-1.9-1.5zm.3 7.1c.6-1.4 1.1-2.9 1.5-4.5.3.1.6.3.9.4-.5 1.4-1 2.9-1.5 4.4zm.2-10.1.6-.6c.7.5 1.3 1.1 1.9 1.6l-.7.7c-.6-.6-1.2-1.2-1.8-1.7zm8.4-.8h.8v.9h1.8v.7h-1.8v1.8h-.8v-.3h-1.2v.9h3.3v2.6h-.8v-.4h-2.5c0 .3 0 .6-.1.8h3.4v.7h-3.5c0 .3-.1.6-.1.8h4v.7h-3.5c.7.9 1.9 1.3 3.6 1.5-.2.2-.4.5-.6.9-1.9-.3-3.2-1.1-3.8-2.3-.5 1.1-1.8 2-3.9 2.4-.2-.3-.4-.5-.6-.8 1.9-.4 3.1-.9 3.6-1.7h-3.2v-.7h3.5c.1-.2.1-.5.2-.8h-3.3v-.7h3.4c0-.2 0-.5 0-.8h-2.4v.3h-.8v-2.6h3.3v-.9h-1.2v.3h-.8v-1.8h-1.8v-.7h1.8v-.9h.8v.9h3.2zm-4.4 5.5h2.4c0-.3 0-.6 0-.9h-2.4zm1.2-3.1h3.2v-.8h-3.2zm4.4 2.2h-2.4v.9h2.5v-.9z" fill="#fcfbfa"/><path d="m389.2 385.8h.9v1.5h1.9v-1.5h.9v1.5h2.7v6h1.1v.9h-11.3v-.9h1.1v-6h2.7zm.2 8.7.5.8c-1.2.6-2.5 1.3-4 1.9-.2-.3-.3-.6-.6-.8 1.6-.6 3-1.3 4.1-1.9zm-2-4.3h1.9v-2.1h-1.9zm0 3.1h1.9v-2.2h-1.9zm2.7-3.1h1.9v-2.1h-1.9zm0 3.1h1.9v-2.2h-1.9zm2.4 1.3c1.4.6 2.7 1.2 4.1 1.8l-.5.9c-1.5-.7-2.8-1.4-4.1-1.9zm2.2-6.5h-1.9v2.1h1.9zm-1.9 5.2h1.9v-2.2h-1.9z" fill="#fcfbfa"/></svg>