<svg enable-background="new 0 0 400 400" viewBox="0 0 400 400" xmlns="http://www.w3.org/2000/svg"><g fill="#010102"><path d="m157 310.3c10.8 0 21-.1 31.2 0 5.2.1 10.4.2 15.4 1.1 4 .7 7.6 3 8.4 8-6.1 4.1-13 4.4-20 4.4-14.6-.1-29.2-.5-43.8-.5-12.3 0-24.7.5-37 .5-3.9 0-7.7-.7-11.6-1.1-4.1-.4-5.5-2.9-5.6-6.9 0-4 3.3-4.1 5.3-4.3 7.7-.8 15.5-1.1 23.2-1.3 7.2-.2 14.5 0 22.7 0-.5-42.1-1-83.7-1.6-126-3.4-.3-6.5-.7-9.7-.7-8-.1-15.9.2-23.9 0-3.9-.1-7.3-1.5-9.1-5.4-1.3-2.7-1-5 2.2-5.5 5.5-1 11.1-1.9 16.7-2.1 7.9-.4 15.8-.1 23.4-.1 1-8.3 1.5-15.5 2.9-22.6 2.3-11.4 9.5-17 21.3-17.1 4.5-.1 9.1-.2 13.6.1 2.4.1 5.1.5 6.9 1.8 1.6 1.3 2.7 3.9 3 6.1.1 1-2.4 2.9-3.9 3.2-3.4.7-7 .7-10.6.8-2.3.1-4.5-.2-6.8-.2-7.8.1-12.1 3.7-13.4 11.3-.2 1.3-.2 2.6-.2 3.9v12.9c10.5 0 20.5-.1 30.5.1 3.5.1 7.3.4 10.4 1.8 2.1.9 3.2 3.9 4.8 6-1.7 1.3-3.3 3.5-5.1 3.6-8.8.4-17.7.2-26.5.1-.8 0-1.6-.3-2.4-.3-9.1-.5-9.8.3-9.9 9.2-.3 37-.6 74-.9 111 .1 2.6.1 5 .1 8.2z"/><path d="m222.2 227.5c0-10.5-.3-23.6.1-36.7.4-13.7 2.5-27.1 7.8-39.8 1.4-3.4 4.1-6.4 6.5-9.3 8.8-11 21.2-15.9 34.3-19.7 4.7-1.4 9.8-3.2 13.4-6.4 7.2-6.6 7.1-16 6.7-24.9-.1-1.9-2.8-4.7-4.9-5.3-5.6-1.8-11.5-3.4-17.4-3.8-8.9-.6-17.8 0-26.8.1-1.6 0-3.3 0-4.9-.2-3.6-.3-6-2-6.4-6-.4-4.3 2.9-5.1 5.7-6 2.3-.7 4.8-1 7.2-.8 14.2 1 28.5 1.5 42.5 3.6 15.7 2.4 20 16.6 17.7 29.6-.8 4.4-1.5 9.3-3.8 12.9-2.9 4.7-6.7 9.5-11.3 12.2-9.2 5.3-19 9.8-28.9 13.5-8.5 3.1-15.4 7.6-17.7 16.4-2.8 10.4-5.8 21.1-6.3 31.7-.8 14.8.6 29.8 1 44.7.1 4.5.4 9.1.2 13.6-.6 17.8 3.7 35 6.4 52.4 3.1 19.8 6.7 39.6 10 59.4.5 2.9.4 6.2-3.2 7.2-3.5 1-5.9 0-7.8-3.6-4.8-9.3-6.5-19.2-8.1-29.3-2.6-16.8-6-33.5-8-50.3-1.9-17.5-2.6-35-4-55.2z"/><path d="m260.7 227.2c-.3-17.9 5-34.6 13.6-49.6 5.3-9.2 13.5-17 23.8-21.7 3.4-1.5 6.3-1 8.3 1.6 2.1 2.7.6 5.4-1.6 7.7-6.1 6.1-11.8 12.6-18 18.5-6 5.8-7.8 13.4-9.7 20.8-7.4 28.4-4.6 56.3 5.4 83.5 6.4 17.4 14.2 34.4 21.2 51.6 1.3 3.3 2.3 6.8 2.6 10.3.2 1.7-1.2 4.8-2.2 5-2 .4-5.4-.1-6.4-1.6-3.9-5.5-8-11.1-10.5-17.4-6.2-15.6-12.4-31.4-16.9-47.5-3.9-13.9-5.6-28.5-8-42.9-1-5.9-1.1-12.1-1.6-18.3z"/><path d="m218 117.2c-9.3 2.8-9.3 2.8-14.2-3.6-11.2-14.7-22.6-29.3-33.7-44-3.2-4.3-5.9-8.9-9.1-13.2-1.5-2-3.5-3.9-5.7-5.1-3.1-1.6-5.9-1.2-8.2 2.3-12.2 18.6-24.4 37.1-36.9 55.4-2.3 3.4-5.5 6.3-8.8 8.7-1.3.9-4.1.4-5.9-.3-.6-.2-.7-3.3-.1-4.7 2.4-5.8 4.4-11.9 7.8-17.1 10.8-16.8 22-33.2 33.5-49.6 9-12.9 19.7-13.5 30-1.7 15.8 18.1 31.8 36 44.1 56.8 2.9 4.9 4.7 10.5 7.2 16.1z"/><path d="m124.9 245.1c.8 14.9.1 29.8-5 44.1-.7 1.8-2 3.8-3.5 4.8-4.2 2.8-7.1 1.3-7.5-3.8-.1-1.8 0-3.6.1-5.3 1-17.8 2.4-35.5 3-53.3.2-7-1.2-14.1-1.6-21.1-.2-2.9.1-5.8.7-8.6 1-4.3 3.2-5.1 6.8-2.4 5.3 3.9 6.7 10 6.9 16 .4 9.8.1 19.7.1 29.6z"/><path d="m184.1 199.5c6.3 1.3 8 3.3 8 9.1 0 12.5-.3 25 0 37.5.2 8.7 1.3 17.4 1.7 26.1.3 6.3.1 12.6.1 19-2.5.7-4.2 1.2-5.9 1.5-2.3.5-3.5-.2-4-2.8-5.5-27.2-8.4-54.4-2.7-81.9.7-2.8 1.9-5.7 2.8-8.5z"/><path d="m159.6 104.4c-8-1.3-15.5-2.5-23-3.6-3-.4-3.8-2.2-4.2-5-.3-2.9 1.1-3.9 3.4-4.9 9.8-4.3 20-2.7 30.1-2.2 3.8.2 7.8.7 11.3 2.2 1.9.8 3.5 3.7 3.8 5.9.2 1.1-2.6 3.5-4.3 3.9-5.7 1.7-11.5 2.6-17.1 3.7z"/></g><path d="m385.2 377.6.6-.7c.6.4 1.3.9 1.9 1.5l-.6.7c-.8-.5-1.4-1-1.9-1.5zm.3 7.1c.6-1.4 1.1-2.9 1.5-4.5.3.1.6.3.9.4-.5 1.4-1 2.9-1.5 4.4zm.2-10.1.6-.6c.7.5 1.3 1.1 1.9 1.6l-.7.7c-.6-.6-1.2-1.2-1.8-1.7zm8.4-.8h.8v.9h1.8v.7h-1.8v1.8h-.8v-.3h-1.2v.9h3.3v2.6h-.8v-.4h-2.5c0 .3 0 .6-.1.8h3.4v.7h-3.5c0 .3-.1.6-.1.8h4v.7h-3.5c.7.9 1.9 1.3 3.6 1.5-.2.2-.4.5-.6.9-1.9-.3-3.2-1.1-3.8-2.3-.5 1.1-1.8 2-3.9 2.4-.2-.3-.4-.5-.6-.8 1.9-.4 3.1-.9 3.6-1.7h-3.2v-.7h3.5c.1-.2.1-.5.2-.8h-3.3v-.7h3.4c0-.2 0-.5 0-.8h-2.4v.3h-.8v-2.6h3.3v-.9h-1.2v.3h-.8v-1.8h-1.8v-.7h1.8v-.9h.8v.9h3.2zm-4.4 5.5h2.4c0-.3 0-.6 0-.9h-2.4zm1.2-3.1h3.2v-.8h-3.2zm4.4 2.2h-2.4v.9h2.5v-.9z" fill="#fcfbfa"/><path d="m389.2 385.8h.9v1.5h1.9v-1.5h.9v1.5h2.7v6h1.1v.9h-11.3v-.9h1.1v-6h2.7zm.2 8.7.5.8c-1.2.6-2.5 1.3-4 1.9-.2-.3-.3-.6-.6-.8 1.6-.6 3-1.3 4.1-1.9zm-2-4.3h1.9v-2.1h-1.9zm0 3.1h1.9v-2.2h-1.9zm2.7-3.1h1.9v-2.1h-1.9zm0 3.1h1.9v-2.2h-1.9zm2.4 1.3c1.4.6 2.7 1.2 4.1 1.8l-.5.9c-1.5-.7-2.8-1.4-4.1-1.9zm2.2-6.5h-1.9v2.1h1.9zm-1.9 5.2h1.9v-2.2h-1.9z" fill="#fcfbfa"/></svg>