<svg enable-background="new 0 0 400 400" viewBox="0 0 400 400" xmlns="http://www.w3.org/2000/svg"><path d="m266.6 259.9c-12.3 3.7-24.4 7.5-36.5 10.9-10.5 3-21.2 2.9-31.9 1.6-5.6-.7-7.7-4.1-6.6-9 .5-2.1 1.6-3.2 3.7-3.4 11.9-1.5 23.9-3.1 35.8-4.6 8.7-1.1 17.1-3.3 24.7-7.9 2.5-1.5 3.6-2.9 2.3-6-1.8-4.1-3-8.5-4.3-12.9-.7-2.4-2-3.9-4.3-5.1-7.8-3.9-15.9-5.6-24.7-4.3-8.2 1.2-16.3.9-24.3-1-4.8-1.2-7.6-4.2-7.7-8.3 0-2 .6-3.2 2.6-4 7.9-3.3 16.1-4.3 24.4-3.4 10.9 1.1 21.7 2.9 32.5 4.6 1.9.3 4.1 1.5 5.2 3 4.9 6.8 9.5 13.8 14.3 20.7.7 1.1 1.4 2.2 2.4 3.9 2.8-3.8 5.4-7.1 7.7-10.7 4.3-6.9 9.4-13.5 10.9-21.8 1.1-6.1-.2-11.9-2.7-17.4-.4-.9-1.3-1.7-2.1-2.4-9.7-8.1-20.9-11.2-33.4-11.6-13.6-.4-27.1-1.5-40.7-2.4-2.2-.2-4.5-1.1-6.6-2-2.8-1.2-3-3.7-3-6.4-.1-2.8 2.1-3.1 3.7-3.4 6.3-1.1 12.6-1.9 19-2.7 3.3-.4 6.6-.6 9.9-1.1 1.9-.3 2.9-1.3 2.9-3.6-.2-34.2-.3-68.3-.6-102.5-.1-8.3 2-14.1 7.3-18.5 5.7 3.7 8 9.5 8.3 15.7.6 9.8.3 19.6.4 29.5v28.6c7.2 0 13.8-.1 20.4 0 9.4.2 18.8.3 28.1.8 2.1.1 4.2 1.2 6.1 2.3 2.4 1.5 2.8 4 2.4 6.7-.3 2.6-1.9 3.5-4.2 4.3-10.3 3.1-20.8 2.6-31.2 2.1-6.9-.3-13.9-.7-21.7-1.1v18.1c-.1 5.4-.1 10.8-.4 16.2-.1 2.1.6 2.9 2.6 3.3 8.2 1.8 16.3 3.8 24.5 5.7 16.1 3.8 27.5 20.3 25.4 36.6-1.4 11.3-4.7 22-9.2 32.4-.5 1.2-1.4 2.2-2.3 3.2-4.6 4.7-9.2 9.3-13.9 13.8-1.4 1.4-1.8 2.6-1.2 4.6 8.3 27.6 16.6 55.2 24.8 82.8 2.6 8.7 5.3 17.3 7.5 26.1 1.5 6-.9 10.6-5.6 12.8-1.8.8-2.9.7-4.1-1.1-5.8-8.4-9.6-17.7-12.4-27.3-5.9-20.7-11.5-41.5-17.4-62.2-2.1-7.4-4.5-14.7-6.8-22.2z" fill="#000001"/><path d="m99.2 97.4c.1 13 3.2 22.2 7.7 31.1.5.9 1.4 1.7 2.1 2.5 7.2 8.1 14.8 15.8 21.5 24.3 10.5 13.3 12.9 28.3 6.1 43.9-3.5 8-8.1 15.7-13.1 22.9-6.4 9.1-11.8 18.4-12.6 29.8-.6 8.5 3.2 15.2 11.3 17.1 6 1.4 12.4 1.3 18.7 1.4 3.4 0 6-2 8.2-4.9 7.1-9.3 12.1-19.3 12.4-31.2.1-3.4-.3-6.8-.6-10.2-2.1-21.9 3.6-41.8 15.9-59.9 2.4-3.5 5.7-5.9 9.9-6.7 1-.2 2.6.5 3.1 1.3 2.8 4.2 2.9 8.8.6 13.2s-4.6 8.8-7.5 12.9c-5.9 8.4-7.3 17.6-6.1 27.5 2.1 18.4-1.8 35.7-8.2 52.8-5.4 14.5-24.3 22.9-38.4 20.5-3.9-.7-7.7-1.9-11.6-2.7-9.1-2-14.4-8.4-18.4-16.2-4.3-8.3-6.8-17.1-3.9-26.2 1.7-5.2 4.7-10.3 8-14.7 6.2-8.4 12.4-16.7 16.2-26.5 1.5-3.8 2.6-7.8 3.5-11.7 2.3-9.9-2.2-18-8-25.3-5.8-7.2-12.5-13.8-18.7-20.7-10.3-11.7-14.6-25.2-13.3-40.7 1-11.3 3.7-22.2 8.4-32.5.7-1.6 1.7-3.2 3-4.2 5.4-4.5 10.7-9.3 16.6-13.1 8.2-5.2 17.4-4.9 26.7-3.5 11.6 1.7 22.3 5.3 31.4 13 10 8.4 13.1 19.2 10.7 31.5-1.1 5.8-3.4 11.4-5.3 17-.3 1-1.1 1.9-1.8 2.7-5.1 5.3-10.2 10.8-15.5 15.9-5.6 5.5-12.3 7.3-20.1 5.6-2.9-.7-2.9-2.8-3.2-4.7-.2-1.2.5-3 1.4-3.8 7.2-6.2 14.4-12.4 21.9-18.3 11.2-8.9 10.8-20.8 6.4-31.5-1.3-3.1-5.5-5.3-8.8-7.1-11.7-6.2-23.9-8.7-36.6-3.2-2.7 1.2-5.4 3.1-7.4 5.3-7.7 8.6-12.7 18.3-12.6 27.3z" fill="#000001"/><g fill="#fafafb"><path d="m362.1 8.8c1.1.8 2.1 1.6 3.1 2.4l-1 1.1c-1.3-1.1-2.3-2-3-2.5zm1.9 4.8c.5.2.9.4 1.4.5-.6 2.3-1.3 4.5-1.9 6.8l-1.5-.5c.8-2.1 1.4-4.3 2-6.8zm-1-9.4c1.3.9 2.4 1.8 3.4 2.5l-1 1.1c-1.4-1.2-2.4-2.1-3.2-2.6zm3.7 2.2v-1.4h10.3v1.2c-.5 3.6-1.8 6.8-4 9.4 1.5 1.6 3.4 2.8 5.7 3.8-.3.4-.7.8-1.1 1.4-2.3-1.1-4.1-2.5-5.6-4.1-1.6 1.6-3.6 3.1-5.9 4.3-.3-.5-.7-.9-1-1.3 2.4-1.1 4.4-2.5 6-4.1-1.9-2.5-3-5.6-3.3-9.3h-1.1zm8.8 0h-6.4c.3 3.3 1.3 6 3 8.2 2-2.3 3.1-5.1 3.4-8.2z"/><path d="m385.3 3.8h1.3v2.2h2.8v-2.2h1.3v2.2h4.1v9.1h1.7v1.3h-16.9v-1.3h1.7v-9.1h4.1v-2.2zm.4 13.1.7 1.2c-1.8.9-3.8 1.9-6 2.9-.2-.4-.5-.8-.8-1.3 2.3-1 4.3-1.9 6.1-2.8zm-3.1-6.4h2.8v-3.2h-2.8zm0 4.6h2.8v-3.3h-2.8zm4-4.6h2.8v-3.2h-2.8zm0 4.6h2.8v-3.3h-2.8zm3.7 1.9c2.1.9 4.1 1.8 6.1 2.7l-.7 1.3c-2.2-1.1-4.2-2-6.1-2.9zm3.2-9.7h-2.8v3.2h2.8zm-2.8 7.8h2.8v-3.3h-2.8z"/></g></svg>