<svg enable-background="new 0 0 400 400" viewBox="0 0 400 400" xmlns="http://www.w3.org/2000/svg"><g fill="#000001"><path d="m167.1 219.1c-6.8 3.4-13.7 6.7-20.4 10.3-4.1 2.2-7.8 5-11.6 7.6-1.9 1.3-2.4 3.1-1.7 5.5 2.4 8.5 4.4 17.1 6.6 25.6-.3.2-.5.3-.8.5-3.4-4.8-6.9-9.5-10.2-14.3-1.6-2.4-3-4.9-4.3-7.5-4.4-8.4-10.1-15.2-19.3-19.1-9.1-3.9-13-12-13.9-21.4-.8-7.5.7-14.7 3.1-21.8 2.1-6.6 5.6-12.1 11-16.6 5.8-4.8 11.3-9.9 17.2-14.5 5.7-4.4 12.2-7.1 19.6-6.8.4 0 .9 0 1.3.1.2 0 .3.2 2 1.5-1.3.6-2.7.9-3.5 1.7-6.9 7.7-14.1 15.3-20.6 23.4-7.2 9-10 19.7-10.9 31.1-.3 3.5 2.7 3.5 4.6 5.4 2.5-4.2 5-8.2 7.1-12.4 2.2-4.5 5.4-7.8 9.6-10.6 6.5-4.2 12.7-8.8 19-13.4 1.2-.9 2.3-2.4 2.8-3.8 2.3-7.6 4.7-15.2 6.6-22.9 1.9-7.9 6.8-12.6 14-15.5 9.9-3.9 19.9-3.4 29.9-1 8.3 2 15.6 5.5 21.3 12 7.6 8.7 9 18.9 7.5 29.9-.2 1.5-.6 3-.8 4.6-1.3 8.1-4.4 14.8-12.4 18.5-3.6 1.7-6.7 4.6-10 7.1-5.5 4.3-8 15.4-4.9 21.6.4.9 1.3 1.5 2 2.2l29.1 29.1c.8.8 1.5 1.6 2 2.9-1.6-.5-3.2-.9-4.8-1.4-6-1.9-12-4-18-5.5-4.3-1.1-7.5-3.3-10.2-6.7-2.2-2.8-4.6-5.3-7-7.9-2.7-3-6-4.7-10.2-4.9-2.3-.1-3.7.7-4.6 2.9-3.1 7.3-1.3 17.2 4.4 22.7 4.4 4.3 8.7 8.5 10.2 14.8.1.6.2 1.3.5 2.3-6.9-1.6-14.1-1.4-18.9-7.7-3.7-4.8-8.1-9.1-11.8-13.9-4.4-5.5-5.6-11.9-3.9-18.8.8-3.2 2.2-5.9 5-7.9 3-2.1 5.7-4.5 8.5-6.9 4.3-3.5 7-8.1 8.5-13.9-13.5-4.8-25.6-11.5-32.6-25.4-7.8 9-16.7 16.6-19.5 28.4-1.5 6.3-.9 7.6 5.3 9.4 4.3 1.3 8.5.7 12.7-.7 2.6-.9 5.3-1.7 8-2.1 3.4-.4 6.1 1 7.4 4.2zm52-51.4c.2-7.4-1.8-12.6-6.7-16.5-2.2-1.8-4.5-3.6-7-5-7-3.9-14.1-7.4-22.4-3-5.3 2.8-10.2 6.2-12.8 11.5-2.5 5.1-3 10.9-1.7 16.6 2.2 9.2 5.9 16 17 17.7 5.8.9 11.2.7 16.4-2.2 3-1.7 5.8-3.7 8.9-5.1 6.6-3.1 8.9-8.4 8.3-14z"/><path d="m298.4 288.9c-21 3-42.1 6-63.8 9 .2 3.1.1 6.3.8 9.3 2.6 13 8.3 24.9 13.9 36.8 4.6 9.7 9.7 19.1 14.6 28.7-3.7-.3-6.9-.9-9.4-4.6-6.4-9.5-12.9-19-20-28.1-8.9-11.3-14-24.5-19.8-37.3-2.3-5.2-4.9-7.3-10.7-6.8-7 .6-14.1.2-21.2.1-2 0-3.2.5-4.2 2.4-5.6 11.3-12 22.2-16.9 33.8-5.7 13.8-14.9 24.4-26.8 33-3.5 2.6-7.1 5-10.7 7.5-.3-.2-.5-.5-.8-.7 1.7-2.5 3.2-5.1 5.2-7.4 14.8-16.6 25.1-35.4 29.6-57.3.7-3.5.9-7.2 1.3-11.1-22.3-2.5-44.2-5-66.1-7.4 0-.4-.1-.9-.1-1.3 10.1-2 20.2-5 30.4-5.9 20.3-1.9 40.8-3.6 61.2-3.8 37.4-.2 74.6 2.9 111.4 10 .7.1 1.4.4 2.1.6.1.1 0 .3 0 .5z"/><path d="m197.2 27.7c7.9 13.1 15.5 25.5 23.1 38 2.2 3.6 4.6 7.1 6.5 10.8 9.2 17.4 24.1 28.3 41.2 37 12.8 6.5 25.4 13.3 38.1 20.1.9.5 1.8 1.2 2.5 2.6-4.5-.4-9.1-.5-13.6-1.2-17.2-2.8-33.6-8.2-48.2-17.6-8.2-5.3-15.3-12.4-22.8-18.7-9.5-7.9-18.9-15.9-28.7-24.1-29.6 32.9-62.8 60-107.2 69.4.9-.6 1.9-1.3 2.9-2 23-14.5 44.6-30.8 64.7-49 18.4-16.6 31.6-36.8 39.7-60.2.4-1.5 1-2.9 1.8-5.1z"/><path d="m253.2 267.2c4.4-9.6 8.8-19 13.4-28.9-3.8-1-7.2-1.9-10.6-2.8-4.4-1.2-8.7-2.5-13-3.7-10-2.8-16.3-10-22.4-19.2 4.9 1.2 8.9 2 12.8 3.3 6.1 2 12 4.5 18 6.6 2.2.8 4.4 1.6 6.7 1.9 4.3.6 7-1.4 7.3-5.7.4-6.4-.3-12.8-4.4-18.2-5.8-7.6-11.4-15.2-17-22.9-.7-.9-1.3-1.9-1.8-3.1 6.9 2.9 14.3 4.2 19.9 9.8 6.5 6.5 13.6 12.3 20.5 18.4.9.8 1.8 1.5 2.9 2.4 3-5 4-10 2.6-15.4 0-.1-.1-.2-.1-.3-3.3-13.2-3.3-13.3-13.8-22.1-8.7-7.3-17.5-14.6-26.2-21.9-.9-.7-1.7-1.6-3.1-2.8 10 .5 18.7 2.8 26.8 7.2 11.8 6.3 21 15.4 27.2 27.2 7.7 14.6 5.3 33.8-5 46.8-6.1 7.7-11.7 15.8-17.1 24-5.5 8.4-12.8 14.5-21.8 18.8-.7.2-1.3.4-1.8.6z"/><path d="m233.2 115.7c-7.6 4.3-15.4 6.2-23.5 6.5-15.3.6-30.4-1.5-45.1-5.1-1-3.4-.3-5.2 3.3-6.2 7.4-2.1 14.7-4.8 22-7.2 1.4-.4 3-.6 4.5-.3 6.6 1.2 13.2 2.6 19.8 3.7 7 1.3 13 4.3 19 8.6z"/><path d="m205.8 164.4c-.1 6.9-5.4 12.8-11.5 12.7-7.1-.1-11.9-4.8-11.8-11.7.1-5.6 4.7-12 8.4-12 11.1.2 15 3.1 14.9 11z"/></g><path d="m362.1 8.8c1.1.8 2.1 1.6 3.1 2.4l-1 1.1c-1.3-1.1-2.3-2-3-2.5zm1.9 4.8c.5.2.9.4 1.4.5-.6 2.3-1.3 4.5-1.9 6.8l-1.5-.5c.8-2.1 1.4-4.3 2-6.8zm-1-9.4c1.3.9 2.4 1.8 3.4 2.5l-1 1.1c-1.4-1.2-2.4-2.1-3.2-2.6zm3.7 2.2v-1.4h10.3v1.2c-.5 3.6-1.8 6.8-4 9.4 1.5 1.6 3.4 2.8 5.7 3.8-.3.4-.7.8-1.1 1.4-2.3-1.1-4.1-2.5-5.6-4.1-1.6 1.6-3.6 3.1-5.9 4.3-.3-.5-.7-.9-1-1.3 2.4-1.1 4.4-2.5 6-4.1-1.9-2.5-3-5.6-3.3-9.3h-1.1zm8.8 0h-6.4c.3 3.3 1.3 6 3 8.2 2-2.3 3.1-5.1 3.4-8.2z" fill="#fafafb"/><path d="m385.3 3.8h1.3v2.2h2.8v-2.2h1.3v2.2h4.1v9.1h1.7v1.3h-16.9v-1.3h1.7v-9.1h4.1v-2.2zm.4 13.1.7 1.2c-1.8.9-3.8 1.9-6 2.9-.2-.4-.5-.8-.8-1.3 2.3-1 4.3-1.9 6.1-2.8zm-3.1-6.4h2.8v-3.2h-2.8zm0 4.6h2.8v-3.3h-2.8zm4-4.6h2.8v-3.2h-2.8zm0 4.6h2.8v-3.3h-2.8zm3.7 1.9c2.1.9 4.1 1.8 6.1 2.7l-.7 1.3c-2.2-1.1-4.2-2-6.1-2.9zm3.2-9.7h-2.8v3.2h2.8zm-2.8 7.8h2.8v-3.3h-2.8z" fill="#fafafb"/></svg>