<svg enable-background="new 0 0 400 400" viewBox="0 0 400 400" xmlns="http://www.w3.org/2000/svg"><path d="m295.4 41.3c-7.5.4-14.9.9-22.4 1.3-28.5 1.7-56.9 3.3-85.4 5-11.5.7-23 .9-34.4 2.2-7.5.8-12.4 6.3-14.1 13.3-1.7 7.2-2.1 14.8-2.7 22.3-.1 1.1 1.1 2.6 2.1 3.3 5.1 3.7 10.9 4.8 17 3.9 30-4.4 60-2.3 90-1 12.9.5 25.8 3.1 38.6 4.7 0 .4.1.8.1 1.3-4.1 1.6-8.2 3.5-12.4 4.9-11.5 3.9-23.2 6.3-35.5 5-7.4-.7-11.6 2.6-13.4 9.9-2.1 8.6-.6 17.1.2 25.7.4 4.4 2.6 5.8 6.3 6.4 6.3 1.1 12.6.7 18.7-1 8.3-2.3 16.5-2.6 23.2 3.4 3.4 3 6.1 7.2 8.2 11.4 8.1 16.2 11.1 33.8 11.6 51.7.6 19.2.1 38.5.4 57.7.3 15.9.8 31.8 2 47.7.5 6.6 3.1 13.1 4.8 19.6 2.7 10 5.4 20 8.3 30.8-8.9-9.3-16-19.2-19.2-31-4.5-16.3-7.8-32.8-11.3-49.3-1.2-5.9-1.8-12-2.1-18.1-.2-3.8-1.9-5.8-5.2-7.1-7.2-3-14.8-3.6-22.5-3.1-16.7 1.2-33.5 2.7-50.2 4.2-15.9 1.4-25.5-5.7-29.6-20-1.2-4.3-2.4-8.8-3-13.2-1.3-10.3-2.6-20.6-3-31-.8-20.4 2.7-40.3 7.6-60 1.3-5.4 2.9-10.7 4.9-16 .5 12.9.9 25.8 1.6 38.7 1.2 24 3.4 47.8 9.7 71.1 2 7.4 6.5 11.7 12.5 15.2 3.3 2 6.8 1.3 10.4-.2.6-46.7 1.1-93.4 1.7-140.5-22.5-2.2-44.8-4.4-67.7-6.6v3.9c0 18.6.4 37.2-.1 55.7-.4 12.6-1.9 25.1-3.3 37.6-2.4 22-5.1 43.9-7.6 65.9-3.8 34.3-16.6 64.6-39.6 90.5-.3.3-.6.6-1.6 1.5 2.1-6.4 3.9-12.1 5.7-17.8 9.5-30 17.3-60.5 22.6-91.6 1.6-9.3 1.9-18.9 2.8-28.4 1.2-14 2.5-28 3.6-42 1.6-19.4.3-38.7-3.2-57.8-4.3-23.3-4.2-46.4 1.6-69.4.4-1.4 1.5-3 2.7-3.8 16.3-10.9 34.4-16.2 53.8-18.1 6.4-.6 12.8-1.1 19.1-2 12.1-1.8 23.8 1.3 35.5 2.9 20.6 2.9 41.1 6.1 61.6 9.2.2 0 .4.2.6.2-.1.5-.1.7 0 .9zm-25.4 215.1c.3-1.3.6-2.2.8-3.2 3.7-17.3 4.1-34.9 3.1-52.4-.6-11-3.3-21.6-8.9-31.3-2.4-4.2-6-7.2-10.6-7.6-8.3-.7-16.7-.6-25.1-.5-.8 0-2 1.8-2.3 2.9-4.3 18-4.2 36.1-1.9 54.3 1.4 11.2 4.3 22.1 9.9 32.1.6 1.1 1.9 2.3 3 2.5 10.6 1.1 21.1 2.1 32 3.2z" fill="#000001"/><g fill="#fafafb"><path d="m362.1 8.8c1.1.8 2.1 1.6 3.1 2.4l-1 1.1c-1.3-1.1-2.3-2-3-2.5zm1.9 4.8c.5.2.9.4 1.4.5-.6 2.3-1.3 4.5-1.9 6.8l-1.5-.5c.8-2.1 1.4-4.3 2-6.8zm-1-9.4c1.3.9 2.4 1.8 3.4 2.5l-1 1.1c-1.4-1.2-2.4-2.1-3.2-2.6zm3.7 2.2v-1.4h10.3v1.2c-.5 3.6-1.8 6.8-4 9.4 1.5 1.6 3.4 2.8 5.7 3.8-.3.4-.7.8-1.1 1.4-2.3-1.1-4.1-2.5-5.6-4.1-1.6 1.6-3.6 3.1-5.9 4.3-.3-.5-.7-.9-1-1.3 2.4-1.1 4.4-2.5 6-4.1-1.9-2.5-3-5.6-3.3-9.3h-1.1zm8.8 0h-6.4c.3 3.3 1.3 6 3 8.2 2-2.3 3.1-5.1 3.4-8.2z"/><path d="m385.3 3.8h1.3v2.2h2.8v-2.2h1.3v2.2h4.1v9.1h1.7v1.3h-16.9v-1.3h1.7v-9.1h4.1v-2.2zm.4 13.1.7 1.2c-1.8.9-3.8 1.9-6 2.9-.2-.4-.5-.8-.8-1.3 2.3-1 4.3-1.9 6.1-2.8zm-3.1-6.4h2.8v-3.2h-2.8zm0 4.6h2.8v-3.3h-2.8zm4-4.6h2.8v-3.2h-2.8zm0 4.6h2.8v-3.3h-2.8zm3.7 1.9c2.1.9 4.1 1.8 6.1 2.7l-.7 1.3c-2.2-1.1-4.2-2-6.1-2.9zm3.2-9.7h-2.8v3.2h2.8zm-2.8 7.8h2.8v-3.3h-2.8z"/></g></svg>