<svg enable-background="new 0 0 400 400" viewBox="0 0 400 400" xmlns="http://www.w3.org/2000/svg"><g fill="#000001"><path d="m237.3 228.1c-.4-4.3-1.9-7.7-4.9-10.7-7.3-7.4-14.2-15.2-21.5-22.6-2-2-2.9-4.2-3-7-1.1-21.6-2.3-43.3-3.5-64.9-.7-12.3-.8-24.6-2.2-36.7-1.1-9.6-3.6-19.1-5.4-28.6-1.5-8.1-2.8-16.2-.4-24.3 1.2-4.2 2.2-4.5 6.1-2.6 4 2 5.9 5.5 6.7 9.7 5.4 28 9.7 56.2 9.2 84.9-.1 3.4-1 7.8.7 10s6.2 2.3 9.4 3.2c10.7 2.8 21.5 5.1 32 8.4 19 5.9 34 17 43.3 35.1 5.8 11.1 11.1 22.4 12.9 34.9.8 5.3.4 10.8.6 16.2.1 2.1-.8 3.2-3 3.3-1.8.1-3.7.7-5.8 1.2-.4-1.2-.9-2.2-1.2-3.3-4-12.3-7.9-24.6-12.2-36.8-4.5-12.7-13.3-22.2-24.5-29.6-10.7-7.1-23.1-9.8-35.4-12.5-5.1-1.1-10.1-2.4-15.6-3.7 0 5.6-.1 10.8.1 16.1 0 .6 1.4 1.5 2.3 1.7 7.7 2.3 15.5 4.4 23.2 6.7 15.9 4.8 26.7 15.8 35.3 29.5 8.2 13.1 12.3 27.6 15.3 42.5 3.5 17.4 6.4 35 9.1 52.5.7 4.3-.1 8.8-.4 13.2-.2 2.2-3.9 4.6-6.2 4.5-3.4-.2-5.4-1.8-5.7-4.6-3-25.9-6.1-51.8-13.2-77-3.7-13.2-9.4-25.3-19.4-34.9-3.6-3.5-7.8-6.7-12.3-8.8-8-3.8-16.5-6.7-25.2-10.2 0 3.9.3 6.5 2.6 8.8 9.3 9.6 19.1 18.8 27.6 29.1 5 6.1 8.3 13.7 11.6 21 6.1 13.5 8.5 28 9.9 42.7 2.7 26.6 1.2 53.2.9 79.9 0 .4-.1.9-.1 1.3-.2 6.4-1.2 7.4-7.6 7.4-.8 0-1.9-.9-2.4-1.7-3-4.6-3.2-9.8-3.3-15-.3-15.9-.2-31.8-1-47.7-1-23.1-5.2-45.6-13.8-67.2-5.1.1-6.3.7-6 6 .5 8 1.6 16 3 24 2.6 15.5 5.6 30.9 8.1 46.3.6 3.5 0 7.2-.6 10.8-.4 2.8-2.7 3.7-5.3 3.2-2.4-.4-5-.5-5.7-3.9-3.7-18.9-7.7-37.7-11.3-56.5-1-5.1-.8-10.3-1.6-15.4-.4-2.4-1.8-4.5-2.8-6.8-.4 0-.9 0-1.3 0-1.3 3.1-2.7 6.1-3.7 9.3-3.4 10.9-3.3 22-1.8 33.2 1.7 13.3 3.7 26.5 5.3 39.8.4 3.7-.1 7.5-.5 11.2-.3 2.6-2.1 4.1-4.9 4-2.5-.1-4.5-.5-5.4-3.7-6.1-21.7-10.3-43.6-9.4-66.3.5-11.8 3.3-23.2 7.9-34 .5-1.1 1.5-2.1 2.4-3 5.5-5 12.1-7.9 19.2-9.9 1.8-.5 3.3-1.2 4.8-1.7z"/><path d="m84.2 241.9c0-2.3-.2-4.2.1-6 .2-1.2.7-2.6 1.6-3.3 8.7-7.1 17.7-13.6 28-18.2 6.2-2.7 10.5-7.4 13.3-13.3 3-6.2 5.4-12.7 8.3-19.6-3.8-.7-6.6-1.4-9.6-1.6-11.5-.7-18.1-7.4-21.3-17.8-5.2-17.3-5.9-34.8-2.2-52.4.4-1.7 1.9-3.5 3.4-4.5 3.5-2.2 7.1-.7 7.9 3.3.5 2.6.4 5.2.5 7.9 0 1.3-.2 2.6-.2 4 0 6.4.8 7.3 7 7.7 4.8.3 9.6.5 14.8.8.5-6.4 1.1-12.4 1.5-18.4 0-.7-1-1.9-1.7-2.2-11.2-3.7-17.1-11.5-18.4-23.1-.6-5.2-1.8-10.2-2.5-15.4-.3-2.6-1.5-3.6-4-3.6-4.3 0-8.6 0-12.9-.1-3.9-.1-5.7-1.4-6.3-4.5-.8-4.2-.1-5.8 4.1-6.6 5.5-1.1 11.1-1.9 16.7-2.4 2.7-.3 3.6-1.7 3.8-4 .3-3.2.2-6.4.8-9.6s1.6-6.4 2.8-9.5c.3-.8 2-1.5 3-1.4 5.1.9 6.8 3.7 6.4 9-.3 3.9-.3 7.9-.2 11.9 0 .8 1.3 2.1 2 2.2 8.5.7 16.9 1.2 26 1.7.4-5.4.8-10.7 1.1-15.9.3-4.8 2.6-7.9 7-8.8 1-.2 2.8.4 3.2 1.1 1.3 3.1 2.5 6.3 3.2 9.5.5 2.6-.1 5.3.1 7.9.3 4.5 2.3 6.5 6.9 6.9 2.2.2 4.4-.4 6.6-.1 1.7.2 4.2.8 4.7 1.9.9 2.2.6 4.9.6 7.4 0 .3-1.3.7-2 .9-4.3 1.1-8.6 2.2-12.9 3-2.2.4-3.1 1.3-3.4 3.6-1.1 8.1-2.5 16.2-3.8 24.2-.7 4.4-3.1 7.5-7.4 8.9-.9.3-1.9.7-2.8 1-4.4 1.6-7.2 4-6.6 9.5.4 4.4-.4 9-.6 13.9 5.8.4 11.4.7 17.5 1.1.4-4.8.8-9.4 1.2-14 .2-2.1.2-4.2.7-6.2.7-3 3.1-4.1 5.9-4.3 2.9-.3 4.3 1.3 4.8 3.9 1 6 2.5 11.9 2.8 17.9.6 12.9-.7 25.6-4.2 38.1-2 7.2-6.4 11.3-13.5 13-2.7.7-5.3 1.5-8 2.2-2.8.7-4 2.7-3.8 5.4.1 1.8.2 3.6.7 5.2 2.6 8.5 6.3 16.1 14 21.4 7.2 4.9 14.1 10.3 20.7 16 3.4 3 5.9 7 8.6 10.8 1.4 2 .5 3.5-1.6 4.5-3.1 1.5-6.2 1.5-9.3.1-2.7-1.3-5.3-2.7-7.8-4.4-4.3-2.9-8.4-6.2-12.7-9-6.9-4.6-12.1-10.6-16.1-17.8-1.8-3.3-3.7-6.5-5.9-10.2-5.7 12.3-14.9 20.8-25.3 28.2-10.5 7.3-21.4 13.4-35.3 12.2zm46.6-175.1c0 5.8-.6 11.3.1 16.7 1.2 9 7.5 13.1 16 11.3 3.4-.7 5.8-2.2 6.9-5.7 1.1-3.8 2.9-7.4 3.8-11.3.6-2.8.4-5.9.2-8.8-.1-.8-1.5-2.2-2.3-2.2-8.2-.1-16.3 0-24.7 0zm5.8 99.1c0-6.3 0-12.2 0-18.2 0-2.1-1-3.8-3.2-4-5.4-.6-10.8-1-16.3-1.5-1.4 7.6-.7 14 2.8 20 .5.8 1.2 1.9 1.9 2 4.7.7 9.3 1.1 14.8 1.7zm16.7 1c4-1.7 7.6-3.2 11.2-4.9.5-.2 1.1-.9 1.2-1.5 1-3.7 2-7.4 2.7-11.2.4-2.4-.5-4.7-3-5.2-4.2-.9-8.5-1.4-13.2-2.1.4 8.9.7 16.6 1.1 24.9z"/><path d="m253.9 54.3c-8.5-1.1-17-2-25.5-3.4-1.6-.2-3.3-1.9-4.2-3.3-1.7-2.9-.6-4.8 2.4-6.3 7-3.6 14.4-4.1 21.9-3.3 12.1 1.3 24.2 2.1 36.1 4.4 17.2 3.3 25 16.3 21.2 33.5-.8 3.7-1.9 7.3-2.4 11-.4 3.1-2.1 5.1-4.5 6.9-8.8 6.8-18.6 8.5-29.4 6.7-8-1.3-15.9.4-23.4 3-4 1.3-6.4 9.2-3.9 12.7.5.7 1.7.9 2.6 1.1 13 2.9 26.1 5.6 39.1 8.7 10 2.5 18.2 7.8 22.8 17.6 2.1 4.4.6 6.7-4.4 6.8-1.6 0-3.2-.6-4.8-1-.3-.1-.7-.2-.9-.4-17.5-11.3-37.7-14.5-57.5-18.9-7-1.6-11.6-6.3-11.3-13.5.3-6.5 2.2-13 3.6-19.4.2-.9 1.4-1.7 2.3-2.2 9.5-5.5 19.5-8.5 30.6-7.8 6.1.4 12.4-.2 18.5-.4 7.6-.2 11.3-4 10.7-11.6-.4-4.6-1.7-9.1-2.8-13.6-.3-1-1.3-2-2.2-2.7-6.3-4.6-13.5-6.3-21.2-6.3-4.4 0-8.8 0-13.2 0-.1.7-.1 1.2-.2 1.7z"/><path d="m148.7 292.7h18.1c3.6 0 7.3-.4 10.9-.1 2.2.2 4.6.9 6.6 1.9 2.9 1.4 5.2 4.2 4.7 7.3-.3 1.8-3.2 3.4-5.2 4.4s-4.5 1.5-6.7 1.5c-17-.2-34-.6-51-1-10.3-.2-20.5-.6-30.8-.8-2.5 0-4.3-.9-4.9-3-.5-2-.3-4.3.3-6.2.2-.8 2.3-1.3 3.6-1.5 12.4-1.1 24.9-2 37.3-3 1-.1 1.9-.2 3.1-.3 0-6.8 0-13.5 0-20.7-6.4-.2-12.8-.4-19.2-.7-4.2-.2-8.4-.5-12.5-1.3-3.6-.8-5.1-3.4-4.7-6.6.3-2.7 1.2-4.8 4.6-4.8 5.7 0 11.5-.3 17.2-.5 2.9-.1 5.7-.2 8.6-.5 5-.5 6.5-2.1 6.7-7.2.1-3.2-.1-6.4-.4-9.6-.6-6.9 1.2-12.9 6-17.8 6.2 2.8 9.1 7.5 8.5 14-.4 4.2-1.5 8.3-1.4 12.5.1 7 1.4 8.1 7.5 8.1 4.9 0 9.9-.6 14.8-1.2 6.4-.7 10.7 1.8 11.7 7.4.2 1-.5 2.5-1.3 3.1-4 2.9-8.6 3.8-13.4 4-5 .1-9.9.2-14.9.3-2.8.1-4.1 1.1-3.9 4.2.3 5.6.1 11.3.1 18.1z"/><path d="m87.8 213c-1-.1-2-.1-3-.2-5.7-.6-6.7-1.6-7.2-7.2-.1-.8.8-1.7 1.3-2.6.1-.2.6-.3.9-.4 11.5-4.4 21.3-11.4 30.1-19.9 2.2-2.1 4.4-2.2 6.9-.9 2.4 1.3 2.4 3.4 2.1 5.7-.5 4.6-2 8.6-5.6 11.6-4.6 3.6-9 7.6-13.9 10.6-3.3 2-7.5 2.7-11.3 4-.1-.2-.2-.5-.3-.7z"/><path d="m276.4 76c-6.9 4.4-14.7 6.1-22.7 5.4-8.1-.8-16.1-2.4-24.2-3.7-1.7-.3-2.6-1-2.4-2.8s-.7-3.7 2.1-4.8c6.5-2.8 13.3-4 20.3-3.8 5.6.2 11.3.1 16.9.7 5.9.6 9 3.7 10 9z"/><path d="m170.5 190.9c.1-1.5.1-2.2.1-3 .1-2.6 1-5.3 3.5-5.7 1.8-.3 4.2 1 5.7 2.3 1.8 1.5 3.4 3.5 4.5 5.6 4.1 8.2 10.2 14.3 18.6 18 3.4 1.5 3.2 4.3 3.4 7.1 0 .5-.5 1.4-1 1.5-2.4.7-5 2.2-7.2 1.8-13.3-2.5-21.4-11.3-26.8-23.1-.6-1.6-.6-3.5-.8-4.5z"/></g><path d="m362.1 8.8c1.1.8 2.1 1.6 3.1 2.4l-1 1.1c-1.3-1.1-2.3-2-3-2.5zm1.9 4.8c.5.2.9.4 1.4.5-.6 2.3-1.3 4.5-1.9 6.8l-1.5-.5c.8-2.1 1.4-4.3 2-6.8zm-1-9.4c1.3.9 2.4 1.8 3.4 2.5l-1 1.1c-1.4-1.2-2.4-2.1-3.2-2.6zm3.7 2.2v-1.4h10.3v1.2c-.5 3.6-1.8 6.8-4 9.4 1.5 1.6 3.4 2.8 5.7 3.8-.3.4-.7.8-1.1 1.4-2.3-1.1-4.1-2.5-5.6-4.1-1.6 1.6-3.6 3.1-5.9 4.3-.3-.5-.7-.9-1-1.3 2.4-1.1 4.4-2.5 6-4.1-1.9-2.5-3-5.6-3.3-9.3h-1.1zm8.8 0h-6.4c.3 3.3 1.3 6 3 8.2 2-2.3 3.1-5.1 3.4-8.2z" fill="#fafafb"/><path d="m385.3 3.8h1.3v2.2h2.8v-2.2h1.3v2.2h4.1v9.1h1.7v1.3h-16.9v-1.3h1.7v-9.1h4.1v-2.2zm.4 13.1.7 1.2c-1.8.9-3.8 1.9-6 2.9-.2-.4-.5-.8-.8-1.3 2.3-1 4.3-1.9 6.1-2.8zm-3.1-6.4h2.8v-3.2h-2.8zm0 4.6h2.8v-3.3h-2.8zm4-4.6h2.8v-3.2h-2.8zm0 4.6h2.8v-3.3h-2.8zm3.7 1.9c2.1.9 4.1 1.8 6.1 2.7l-.7 1.3c-2.2-1.1-4.2-2-6.1-2.9zm3.2-9.7h-2.8v3.2h2.8zm-2.8 7.8h2.8v-3.3h-2.8z" fill="#fafafb"/></svg>