<svg enable-background="new 0 0 400 400" viewBox="0 0 400 400" xmlns="http://www.w3.org/2000/svg"><path d="m190.91 297c7.87 1.78 15.75 3.59 23.63 5.34 3.88.87 7.75 1.98 11.68 2.4 6.37.67 8.13-.84 8.63-7.23.8-10.1 1.75-20.21 1.95-30.34.47-24.31.55-48.62.78-72.93.02-1.62 0-3.24 0-5.78-4.43 1.65-8.13 2.94-11.76 4.39-24.07 9.58-48.14 19.14-72.17 28.83-9.24 3.73-16.5-.18-17.65-10.09-.42-3.6-.25-7.33.09-10.96 1.13-12.05 2.76-24.07 3.65-36.14 1.21-16.41 2.44-32.85 2.69-49.3.24-15.95-.98-31.87-6.3-47.19-1.65-4.74.17-7.03 5.06-5.94 9.86 2.21 18.13 7.3 23.98 15.73 1.05 1.51 1.63 3.77 1.49 5.61-1.07 14.22-3.01 28.4-3.45 42.64-.63 20.15-.22 40.32-.22 60.49 0 5.39 1.21 6.8 6.57 5.59 17.78-3.99 35.48-8.37 53.2-12.63 4.67-1.12 9.3-2.39 14.22-3.65 0-3.72 0-7.21 0-10.69 0-27.83-.05-55.66.03-83.49.03-9.12-1.51-17.82-5.39-26.11-.83-1.77-1.45-3.75-1.63-5.68-.33-3.52 1.34-6.04 5.06-5.93 10.16.3 19.32 3.6 26.43 11.01 4.11 4.28 3.06 9.76 2.07 15.16-2 10.91-4.72 21.85-5.18 32.85-.99 23.62-1.21 47.29-.86 70.93.44 29.61 1.75 59.2 2.75 88.8.53 15.62 1.76 31.24 1.59 46.86-.14 13.15-2.4 26.14-9.95 37.52-4.36 6.57-7.94 6.94-13.56 1.31-1.17-1.17-2.46-2.35-3.25-3.78-9.24-16.61-23.82-27.99-38.35-39.45-2.4-1.9-4.52-4.16-6.77-6.25.33-.65.64-1.28.94-1.9z" fill="#010102"/><g fill="#fcfafa"><path d="m378.6 9.2.8-1c.9.7 1.9 1.4 2.9 2.3l-.9 1.1c-1.1-.9-2-1.7-2.8-2.4zm.5 10.7c.9-2.1 1.6-4.3 2.3-6.7.4.2.8.4 1.3.6-.7 3.1-1.5 4.3-2.2 6.6zm.4-15.2.9-.9c1 .8 2 1.6 2.8 2.4l-1 1c-1-.9-1.9-1.8-2.7-2.5zm12.5-1.3h1.2v1.4h2.7v1.1h-2.7v2.7h-1.2v-.5h-1.8v1.3h4.9v3.8h-1.2v-.5h-3.7c0 .4-.1.9-.1 1.2h5.1v1h-5.2c0 .5-.1.9-.3 1.2h6v1h-5.2c1.1 1.3 2.9 2 5.5 2.2-.4.4-.7.8-.9 1.3-2.9-.5-4.8-1.6-5.7-3.5h-.1c-.8 1.7-2.7 2.9-5.9 3.6-.2-.4-.6-.8-.9-1.1 2.8-.6 4.6-1.4 5.4-2.5h-4.8v-1h5.3c.1-.3.2-.7.2-1.2h-4.9v-1h5c0-.4 0-.8.1-1.2h-3.6v.5h-1.2v-3.8h4.9v-1.3h-1.8v.5h-1.1v-2.7h-2.6v-1.1h2.6v-1.4h1.2v1.4h4.7v-1.4zm-6.7 8.4h3.6c0-.4 0-.9 0-1.4h-3.6zm1.9-4.7h4.7v-1.2h-4.7zm6.7 3.3h-3.7v1.4h3.7z"/><path d="m384.7 21.4h1.3v2.2h2.8v-2.2h1.3v2.2h4.1v9.1h1.7v1.3h-16.9v-1.3h1.7v-9.1h4.1v-2.2zm.3 13.2.7 1.2c-1.8.9-3.8 1.9-6 2.9-.2-.4-.5-.8-.8-1.3 2.4-1 4.4-2 6.1-2.8zm-3.1-6.5h2.8v-3.2h-2.8zm0 4.6h2.8v-3.3h-2.8v3.2zm4.1-4.6h2.8v-3.2h-2.8zm0 4.6h2.8v-3.3h-2.8zm3.6 1.9c2.1.9 4.1 1.8 6.1 2.7l-.7 1.3c-2.2-1.1-4.2-2-6.1-2.9zm3.3-9.7h-2.8v3.2h2.8zm-2.8 7.8h2.8v-3.3h-2.8z"/></g></svg>