<svg enable-background="new 0 0 400 400" viewBox="0 0 400 400" xmlns="http://www.w3.org/2000/svg"><path d="m261.33 304.43c7.6 1.33 15.2 2.69 22.81 3.98 3.59.61 7.2 1.12 10.82 1.57 4.86.6 7.57-2.11 8.78-6.36.76-2.68 1.12-5.55 1.15-8.34.14-12.5.06-25 .12-37.5.3-56.98.59-113.95.96-170.93.05-8.47-2.58-15.87-7.2-22.9-1.85-2.82-4.1-7.29-3.07-9.66 1.68-3.87 6.5-3.43 10.65-2.61 8.49 1.66 16.24 4.9 22.89 10.41 5.11 4.23 5.53 8.44 4.03 14.71-2.76 11.58-6.35 23.27-6.81 35.03-1.39 35.92-2.1 71.9-1.85 107.85.19 28.09 2.42 56.16 3.33 84.25.46 14.37-1.39 28.55-7.19 41.9-1.76 4.04-3.44 8.78-8.76 9.28-5.35.51-8.09-3.73-10.23-7.57-8.27-14.88-21.49-24.76-34.4-35.02-2.4-1.91-4.6-4.08-6.89-6.12.29-.67.57-1.32.86-1.97z"/><path d="m170.61 260.08c9.98 9.88 19.61 19.25 29.05 28.82 7.48 7.58 8.89 17.32 8.16 27.28-.51 7.09-6.31 9.5-11.69 4.86-5.52-4.75-10.32-10.34-15.28-15.71-8.21-8.9-16.3-17.91-24.65-27.11-25.13 25.37-54.63 41.52-89.24 47.68-.49-.69-.97-1.38-1.46-2.07 1.76-1.54 3.37-3.3 5.3-4.58 15.1-9.99 30.7-19.3 45.26-30.02 9.42-6.94 17.34-15.9 26.22-24.23-12.13-11.44-23.5-22.17-34.87-32.89-3.15-2.97-6.35-5.89-9.44-8.91-1.18-1.15-2.64-2.37-3.08-3.83-.72-2.36-.7-4.94-.99-7.42 2.17.53 4.69.52 6.46 1.66 17.7 11.52 35.28 23.22 53.24 35.1 8.6-10.9 15.14-23.03 18.26-36.82 1.28-5.65 1.87-11.45 2.78-17.18.77-4.89 4.42-7.39 8.48-4.74 6.61 4.31 12.79 9.37 18.76 14.55 2.7 2.35 2.83 5.57.49 8.96-10.81 15.59-21.38 31.32-31.76 46.6z"/><path d="m155.54 138.46c-23.18 20.37-48.63 36.09-79.45 41.57 21.56-17.59 46.26-31.07 65.54-52.76-12.17-8.83-23.97-17.41-35.79-25.95-2.16-1.56-4.55-2.82-6.57-4.53-1.48-1.25-2.87-2.85-3.65-4.59-.59-1.32-.14-3.09-.15-4.67 1.4.09 2.95-.18 4.16.34 7.32 3.13 14.67 6.24 21.82 9.75 10.72 5.26 21.29 10.84 32.31 16.48 9.08-12.11 17.28-24.7 21.6-39.46.41-1.41.5-2.94.56-4.43.25-6.48 1.74-7.54 8.06-5.45 7.75 2.56 14.69 6.24 19.07 13.58 3.39 5.69 2.58 8.04-2.11 12.78-10.27 10.37-20.12 21.16-29.92 31.55 9.1 6.8 17.93 13.25 26.59 19.91 7.59 5.84 10.87 14.25 12.14 23.29.37 2.61-1.26 7.05-3.25 8.01-2.25 1.09-6.65.14-8.88-1.56-10.85-8.26-21.28-17.07-31.86-25.68-3.37-2.7-6.74-5.39-10.22-8.18z"/><path d="m242.03 209.27c.93-13.25 2.64-26.51 2.58-39.75-.07-13.87-.3-27.94-6.17-41.11-2.16-4.84.57-8.92 5.33-7.47 6.32 1.93 12.66 4.98 17.79 9.06 2.3 1.83 2.35 7.32 2.29 11.14-.31 19.61-1.34 39.2-1.41 58.81-.04 10.67-1.07 20.86-6.33 30.3-2.56 4.58-3.99 4.77-7.1.65-4.82-6.37-8-13.38-6.98-21.63z"/><g fill="#fafafa"><path d="m374.8 390.4 1.4-.4c.7.5 1.3 1 1.8 1.4l-.5.5c-1.5-.6-2.1-1.1-2.7-1.5zm1 7.3-.6-.3c.5-1.4 1.1-2.8 1.5-4.3.2.1.4.2.6.3-.5 1.3-1 2.8-1.5 4.3zm-.4-10.3.4-.4c.4.3 1 .8 1.7 1.4l-.5.5c-.4-.5-1-1-1.6-1.5zm2.5.3h1.7v-1h.6v1h3.5v-1h.6v1h1.8v.5h-1.8v1.4h-2v1h3.2v2h-3.2v.9h3.3v.5h-3.4c0 .3-.1.6-.1.9h4v.5h-3.7c.7.9 1.9 1.5 3.8 1.7-.1.2-.2.4-.3.6-2.1-.4-3.5-1.1-4-2.1-.4 1-1.8 1.7-4 2.2-.1-.2-.2-.4-.3-.6 2.1-.4 3.4-1 3.8-1.8h-3.4v-.5h3.6c.1-.3.1-.6.2-.9h-3.3v-.5h3.4c0-.3 0-.6 0-.9h-3.2v-2h3.3v-1h-2.1v-1.4h-1.7v-.5zm1.1 3.5v1h2.7c0-.3 0-.4 0-.4 0-.1 0-.2 0-.2 0-.1 0-.2 0-.3h-2.7zm1.2-3v.9h3.5v-.9zm4.7 3h-2.6v.6.4h2.6z"/><path d="m393.6 386.7h.6v1.5h2.7v6.1h1.1v.6h-11v-.6h1.1v-6.1h2.7v-1.5h.6v1.5h2.1v-1.5zm-2.7 8.8.4.6c-1.2.6-2.5 1.3-3.8 1.9-.1-.2-.2-.4-.3-.6 1.2-.6 2.5-1.2 3.7-1.9zm-2.2-6.7v2.4h2.1v-2.4zm0 3v2.5h2.1v-2.5zm2.8-3v2.4h2.1v-2.4zm0 3v2.5h2.1v-2.5zm6 6.1c-1.4-.7-2.7-1.3-3.9-1.8l.2-.6c1.5.6 2.7 1.2 3.9 1.7zm-1.2-9.1h-2.1v2.4h2.1zm-2.1 3v2.5h2.1v-2.5z"/></g></svg>