<svg enable-background="new 0 0 400 400" viewBox="0 0 400 400" xmlns="http://www.w3.org/2000/svg"><g fill="#010103"><path d="m148.78 265.02c-22.45 11.61-45.17 22.03-65.29 37.05-1.33.99-2.63 2.05-3.87 3.16-5.11 4.59-8.68 4.38-10.87-1.98-1.94-5.65-2.19-11.94-2.7-17.99-.12-1.39 1.4-3.52 2.75-4.35 10.58-6.46 18.36-15.59 23.68-26.46 6.4-13.1 11.78-26.7 17.51-40.12.69-1.61.77-3.48 1.39-6.46-11.78 3.34-22.69 6.42-33.58 9.52-1.11.32-2.29.59-3.28 1.15-9.19 5.2-16.99.9-24.58-3.78-1.42-.87-2.01-3.09-2.98-4.69 1.74-1.03 3.38-2.66 5.25-2.99 21.03-3.77 42.1-7.35 63.32-11.01 0-13.62 0-26.54 0-39.98-5.1.33-10 .86-14.91.89-3.12.02-6.44-.18-9.28-1.29-2.16-.84-3.71-3.25-6.49-5.86 11.41-3.09 20.96-5.67 30.73-8.32 0-9.67.34-19.15-.09-28.59-.52-11.61-1.31-23.23-2.71-34.76-.66-5.48-3.27-10.69-4.48-16.14-.5-2.27-.37-5.28.8-7.11.89-1.4 4.34-2.61 5.82-1.97 7.12 3.05 14.14 6.43 20.79 10.38 2.82 1.67 3.18 4.87 2.34 8.76-2.11 9.85-3.73 19.9-4.44 29.94-.73 10.43-.16 20.95-.16 31.75 6.12-1.39 12.31-2.93 18.57-4.15 2.9-.56 5.99-.9 8.88-.53 1.83.23 4.36 1.61 4.96 3.11.63 1.58-.01 4.62-1.25 5.8-2.83 2.71-6.13 5.21-9.68 6.81-6.18 2.8-12.73 4.79-19.05 7.29-1.13.45-2.71 1.7-2.77 2.66-.72 12.25-1.2 24.52-1.81 38.18 8.25-2.91 15.81-5.14 22.99-8.25 5.99-2.59 14.87-2.09 19.58 2.17 3.62 3.28 3.36 6.32-1.3 7.57-11.84 3.18-23.83 5.85-35.78 8.63-5.43 1.27-10.9 2.34-16.72 3.58 3.44 4.08 6.56 7.51 9.35 11.19 1.85 2.43 1.87 4.67-.38 7.53-13.35 16.98-26.39 34.2-39.54 51.34.3.34.6.69.9 1.03 18.92-6.64 37.84-13.28 56.76-19.92-2.48-6.18-5.09-12.4-7.43-18.71-.5-1.36-.04-3.09-.02-4.65 1.39.2 2.93.08 4.13.67 3.58 1.74 7.28 3.42 10.49 5.73 12.97 9.33 14.62 23.1 11.23 36.54-.38 1.52-2.59 3.67-3.89 3.63-1.99-.06-4.67-1.27-5.76-2.88-2.64-3.88-4.59-8.33-7.13-13.12z"/><path d="m235.07 128c6.63-1.59 12.85-3.33 19.18-4.51 2.83-.53 6.03-.48 8.79.29 4.4 1.23 5.55 5.29 2.26 8.43-3.19 3.05-7.02 5.58-10.92 7.67-3.93 2.1-8.18 3.89-12.51 4.86-5.12 1.16-7.53 3.51-7.41 8.93.22 10.73.07 21.47.07 32.61 7.22-2.27 14.89-4.3 22.27-7.1 7.48-2.84 14.74-3.78 22.05-.06 2.02 1.03 4.07 2.44 5.47 4.18 3.29 4.11 2.24 7.04-2.94 7.8-10.34 1.52-20.76 2.5-31.1 4-7.85 1.13-15.64 2.71-24.69 4.3 2.5 3.04 4.35 5.44 6.35 7.7 5.34 6.05 4.99 6.73.17 13.1-7.81 10.33-15.06 21.1-22.57 31.66-4.33 6.09-8.72 12.15-13.56 18.88 20.06-6.85 39.46-13.47 59.04-20.15-2.67-7.73-5.42-15.7-8.21-23.81 1.84-.58 2.37-.95 2.71-.82 11.58 4.16 21.62 10.92 25.39 22.8 2.07 6.51.19 14.35-.41 21.55-.11 1.33-3.05 3.71-4.02 3.42-2.49-.75-5.26-2.28-6.72-4.34-2.36-3.32-3.76-7.32-5.93-11.8-13.98 7.17-28.13 14.09-41.95 21.62-10.93 5.96-21.79 12.2-30.19 21.79-2.21 2.52-4.92 2.15-6.78-.46-4.9-6.87-6.02-14.6-4.4-22.76.21-1.06.96-2.23 1.81-2.91 16.68-13.38 25.48-32.13 34.31-50.76 3.1-6.53 4.95-13.65 7.95-22.14-7.09 2.17-12.96 3.3-18.24 5.72-9.01 4.12-17.65 3.7-26.31-.37-1.61-.76-2.75-2.53-4.11-3.84 1.52-1.28 2.86-3.28 4.59-3.71 12.71-3.12 25.5-5.91 38.26-8.84 1.59-.37 3.16-.87 4.8-1.33 0-13.18 0-26.11 0-38.54-5.88 0-11.49.22-17.07-.09-2.73-.15-5.65-.85-8.02-2.14-1.47-.8-2.07-3.18-3.19-5.07 8.43-2.46 15.86-4.77 23.37-6.75 3.83-1.01 5.52-2.86 5.24-7.01-1.41-21.37-2.52-42.76-4.04-64.12-.23-3.16-2.55-6.13-3.12-9.33-.49-2.76-.81-6.4.59-8.35.98-1.37 5.31-1.42 7.59-.57 5.41 2.01 10.65 4.62 15.65 7.51 4.12 2.39 4.94 6.06 4.27 11.11-1.78 13.31-2.78 26.73-3.68 40.14-.48 7.1-.09 14.26-.09 21.61z"/><path d="m363.09 61.5c-5.26 9.61-6.74 19.7-6.9 29.82-.39 24.12-.59 48.25-.07 72.37.7 32.1 1.93 64.2 3.39 96.27.87 19.18.72 38.27-2.48 57.2-1.83 10.81-7.21 19.54-17.29 24.92-3.61 1.93-5.96 1.35-8.41-1.91-10.19-13.54-20.58-26.93-30.87-40.39-.8-1.05-1.56-2.15-2.18-3.31-.53-.98-.83-2.09-1.68-4.28 3.49.72 6.15 1.18 8.76 1.82 7.87 1.91 15.69 4.05 23.6 5.75 4.39.94 7.06-1.56 7.77-5.78 1.17-6.87 2.74-13.77 2.94-20.7.87-30.45 1.54-60.91 1.81-91.37.16-17.81-.41-35.63-.95-53.44-.67-22.27-1.57-44.57-10.68-65.45-1.99-4.56-4.75-8.77-6.9-13.26-.94-1.98-1.24-4.26-1.83-6.4 2.2-.45 4.43-1.4 6.59-1.26 14.71.96 25.97 8.31 35.38 19.4z"/><path d="m283.52 107.94c11.69.48 20.96 2.35 27.64 10.41 1.19 1.43 1.5 4.13 1.24 6.12-.87 6.72-3.02 13.36-3.15 20.07-.27 13.78 1.07 27.61.57 41.38-.52 14.38-2.13 28.75-3.93 43.04-.5 3.96-3.36 7.62-5.57 12.35-7.13-7.89-9.71-16.09-7.83-24.51 6.05-27.06 5.49-54.13 1.25-81.21-.97-6.2-4.47-12-6.76-18.01-1.07-2.81-2.04-5.67-3.46-9.64z"/></g><path d="m6.44 374.46.42-.45c.65.47 1.27.95 1.85 1.44l-.45.49c-.65-.56-1.25-1.06-1.82-1.48m.93 7.33-.63-.26c.55-1.36 1.05-2.8 1.53-4.33.19.1.38.19.59.27-.47 1.29-.96 2.73-1.49 4.32m-.38-10.38.44-.42c.43.34 1.01.82 1.74 1.44l-.49.49c-.53-.51-1.09-1.01-1.69-1.51m2.5.35h1.72v-1.04h.59v1.04h3.52v-1.04h.59v1.04h1.75v.53h-1.75v1.42h-2.03v.97h3.22v2.03h-3.24c0 .35-.01.66-.03.93h3.32v.53h-3.37c-.03.27-.08.58-.15.94h3.96v.53h-3.71c.67.92 1.93 1.48 3.79 1.68-.13.24-.23.44-.29.59-2.13-.38-3.48-1.08-4.04-2.12-.43.97-1.77 1.72-4.03 2.23-.09-.19-.2-.37-.33-.55 2.1-.42 3.37-1.03 3.81-1.83h-3.36v-.53h3.58c.08-.29.13-.61.16-.94h-3.33v-.53h3.39c.02-.27.04-.58.04-.93h-3.23v-2.03h3.25v-.97h-2.07v-1.42h-1.73zm1.12 3.44v1h2.65c.01-.3.02-.44.01-.4v-.25-.35zm1.19-2h3.52v-.91h-3.52zm4.71 2h-2.63v.59c0 .15-.01.28-.01.4h2.64z" fill="#fbfcfa"/><path d="m13.56 383.74h.63v1.52h2.72v6.07h1.13v.6h-11.06v-.6h1.13v-6.07h2.73v-1.52h.63v1.52h2.1v-1.52zm-2.69 8.83.38.56c-1.24.63-2.53 1.25-3.85 1.85-.1-.21-.21-.42-.34-.63 1.37-.55 2.63-1.15 3.81-1.78m-2.13-4.27h2.1v-2.45h-2.1zm0 3.04h2.1v-2.46h-2.1zm2.72-3.04h2.1v-2.45h-2.1zm0 3.04h2.1v-2.46h-2.1zm6.07 3.6c-1.41-.71-2.7-1.3-3.86-1.78l.35-.56c1.45.62 2.75 1.19 3.88 1.72zm-1.25-9.09h-2.1v2.45h2.1zm-2.09 5.49h2.1v-2.46h-2.1z" fill="#fbfcfa"/></svg>