<svg enable-background="new 0 0 400 400" viewBox="0 0 400 400" xmlns="http://www.w3.org/2000/svg"><g fill="#010103"><path d="m264.47 313.04c3.65.35 7.32.59 10.95 1.08 4.43.6 8.83 1.46 13.26 2.15 8.06 1.25 11.57-.98 13.3-8.82.67-3.05.99-6.24.99-9.37.05-68.79.19-137.59-.16-206.38-.04-7.76-2.87-15.51-4.47-23.25-.27-1.29-.99-2.49-1.26-3.78-.99-4.73 2-8.2 6.34-6.36 6.49 2.74 12.88 6.19 18.39 10.51 2.24 1.76 2.97 6.63 2.86 10.03-.61 17.43-2.21 34.84-2.55 52.28-.59 30.11-.92 60.25-.57 90.36.32 27.26 1.51 54.51 2.69 81.76.6 13.88-2.75 26.65-8.95 38.85-.96 1.9-2.29 3.66-3.68 5.28-2.52 2.93-4.96 2.78-8.06.27-11.23-9.11-22.72-17.91-34.02-26.94-2.18-1.74-3.96-3.97-5.93-5.98.27-.57.57-1.13.87-1.69z"/><path d="m124.65 147.46c-.59 2.03-1.23 4.22-1.83 6.31-5.19 1.05-8.21-1.56-9.36-5.7-1.63-5.87-2.73-11.93-3.54-17.98-2.14-16.09-3.96-32.23-6.04-48.33-.29-2.25-1.51-4.36-2.09-6.6-.35-1.34-.89-3.32-.25-4.05.72-.82 2.71-.88 4.09-.72 6.04.7 12.15 2.7 18.07 2.22 22.82-1.85 45.75-3.45 68.29-7.21 11.76-1.96 20.35 1.88 29 7.82 4.98 3.41 6.06 8.08 2.4 12.52-8.61 10.46-11.31 23.01-14.32 35.62-1.65 6.92-3.91 13.7-6.22 20.43-.78 2.27-2.32 4.43-3.97 6.24-3.61 3.96-7 3.87-8.96-.71-1.62-3.77-4.06-3.11-6.8-2.9-15.89 1.22-31.77 2.52-47.67 3.6-3.4.22-6.85-.33-10.8-.56zm-.39-41.16c12.59-1.02 24.77-2.19 36.97-2.95 11.08-.69 22.08-5.07 33.34-.4.36-3.74.69-7.03.98-10.33.07-.83.03-1.66.04-2.49.06-9.02-.54-9.93-9.42-9.66-12.44.38-24.88 1.17-37.3 1.95-8.4.53-16.79 1.36-25.79 2.1.38 7.18.76 14.04 1.18 21.78zm69.31 7.11c-16.86 1.25-32.74 2.71-48.65 3.47-6.6.31-13.55 2.91-19.68-1.57v21.37c21.74-1.78 42.91-3.52 64.7-5.31 1.01-4.97 2.25-11.09 3.63-17.96z"/><path d="m133.56 248.75c-1.61-6.61-3.02-12.4-4.58-18.81 12.32 2.92 22.6 16.02 22.04 26.74-.08 1.63-.25 3.5-1.1 4.77-1.18 1.77-3.04 4.28-4.62 4.29-1.96.02-5.08-1.79-5.71-3.52-1.9-5.27-4.94-5.42-9.56-4.05-11.93 3.55-23.98 6.71-35.97 10.09-6.63 1.87-15.74-4.98-14.83-11.69.3-2.22 2.56-4.47 4.44-6.1 3.64-3.15 8.09-5.43 11.39-8.86 5.72-5.95 10.82-12.49 17.06-19.82-9.09.88-16.95 1.44-24.75 2.46-4.94.65-6.53-2.56-7.81-6.02-1.27-3.45-1.76-6.82 1.26-10.15 7.21-7.97 14.16-16.17 21.03-24.44 5.39-6.49 9.05-13.7 9.2-22.51.07-4.13 3.27-5.66 6.61-3.05 4.27 3.33 8.2 7.27 11.61 11.48 2.78 3.43.27 6.59-2.29 9.17-8.21 8.28-16.47 16.52-24.7 24.77-.82.83-1.7 1.61-2.43 2.51-2.1 2.62-1.6 5.01 1.65 5.56 5.22.89 10.56 1.17 15.87 1.47.84.05 1.96-1.05 2.58-1.9 4.86-6.58 9.32-13.34 10.18-21.84.42-4.17 2.96-5.68 6.58-3.38 4.17 2.65 8.35 5.48 11.89 8.88 4.49 4.32 4.14 7.42-.54 11.74-12.83 11.86-25.72 23.67-38.59 35.49-.49.45-1.14.77-1.5 1.3-1.35 1.99-2.61 4.03-3.9 6.06 2.27.21 4.55.67 6.81.58 7.47-.28 14.92-.78 22.68-1.22z"/><path d="m181.45 245.85h25.58c-1.42-5.76-2.6-10.57-3.78-15.38.48-.26.97-.52 1.45-.78 6.97 3.52 15.53 5.81 19 13.15 2.17 4.59 1.24 11.36-.12 16.7-1.11 4.39-7.81 3.77-10.07-1.08-1.82-3.9-3.98-4.38-7.71-3.37-11.36 3.07-22.82 5.77-34.18 8.83-7.02 1.89-15.95-5.29-14.78-12.58.32-1.98 2.47-4.26 4.38-5.29 11.01-5.95 17.69-16.1 26.83-25.89-8.75.38-16.01.38-23.2 1.13-5.22.54-7.39-2.27-8.59-6.36-1.19-4.07-1.14-7.41 2.75-11.05 6-5.6 10.89-12.43 15.92-19 5.19-6.78 9.14-14.07 9.09-23.12-.03-4.47 2.93-5.69 6.81-3.59.73.39 1.4.89 2.08 1.38 12.86 9.31 13.2 13.33 2.16 24.4-6.11 6.13-12.2 12.29-18.22 18.51-4.07 4.2-3.49 6.33 2.21 7.73 4.34 1.07 8.76 1.82 13.18 2.5.93.14 2.42-.37 2.94-1.1 5.93-8.15 12.94-15.75 13.84-26.55.26-3.11 2.78-4.28 4.96-2.79 5.28 3.61 10.53 7.44 15 11.97 2.95 2.99.96 6.39-2.02 8.99-13.31 11.57-26.58 23.18-39.81 34.84-2.3 2.03-4.32 4.38-6.46 6.59.25.4.51.8.76 1.21z"/><path d="m270.33 133.14c-.31 16.42-.79 32.84-.86 49.26-.06 13.12.43 26.25.58 39.38.08 6.76-3.1 13.38-6.55 14.09-2.97.61-9.41-5.36-10.27-11.59-1.19-8.64-1.46-17.52-1.08-26.25 1.09-25.06 2.57-50.08-3.57-74.81-.36-1.45 1.39-4.66 2.77-5.1 7.64-2.39 20 7.25 18.98 15.02z"/><path d="m103.37 294.47c-1.35 10.07-1.81 21.12-9.3 29.78-2.71 3.14-6.51 5.61-10.28 7.46-2.85 1.4-5.11-.04-6-3.77-2.26-9.42-.73-17.4 5.82-25.01 4.6-5.34 7.5-12.11 11.36-18.12.98-1.53 2.72-2.57 4.11-3.83 1.22 1.63 3 3.1 3.54 4.93.74 2.49.52 5.26.75 8.56z"/><path d="m230.91 305c-.44 2.29-.71 6.9-2.34 10.95-.91 2.28-4.01 4.98-6.23 5.08-2.55.12-6.79-1.8-7.6-3.89-4.44-11.38-8.16-23.05-11.82-34.71-.47-1.49.84-3.53 1.33-5.32 1.64.53 3.54.71 4.88 1.66 4.86 3.46 9.62 7.08 14.25 10.84 4.18 3.4 7.85 7.24 7.53 15.39z"/><path d="m127.42 305.27c.5-6.13.84-12.28 1.59-18.38.22-1.77 1.6-3.4 2.44-5.09 1.49 1.16 3.51 2.02 4.38 3.54 3.44 6.02 6.96 12.06 9.6 18.45 2.39 5.79-3.06 16.78-8.82 19.42-3.74 1.71-8.17-.89-8.58-5.45-.37-4.13-.08-8.32-.08-12.48-.17 0-.35-.01-.53-.01z"/><path d="m166.85 287c0-1.33-.15-2.68.03-3.99.45-3.2 2.51-4.32 4.7-1.98 4.95 5.31 9.47 11.03 14.13 16.62 4.02 4.83-.73 17.63-4.82 21.01-3.53 2.92-8.71 1.1-9.9-4.18-2.03-9.02-3.22-18.24-4.77-27.37.2-.03.42-.07.63-.11z"/></g><path d="m6.44 374.46.42-.45c.65.47 1.27.95 1.85 1.44l-.45.49c-.65-.56-1.25-1.06-1.82-1.48m.93 7.33-.63-.26c.55-1.36 1.05-2.8 1.53-4.33.19.1.38.19.59.27-.47 1.29-.96 2.73-1.49 4.32m-.38-10.38.44-.42c.43.34 1.01.82 1.74 1.44l-.49.49c-.53-.51-1.09-1.01-1.69-1.51m2.5.35h1.72v-1.04h.59v1.04h3.52v-1.04h.59v1.04h1.75v.53h-1.75v1.42h-2.03v.97h3.22v2.03h-3.24c0 .35-.01.66-.03.93h3.32v.53h-3.37c-.03.27-.08.58-.15.94h3.96v.53h-3.71c.67.92 1.93 1.48 3.79 1.68-.13.24-.23.44-.29.59-2.13-.38-3.48-1.08-4.04-2.12-.43.97-1.77 1.72-4.03 2.23-.09-.19-.2-.37-.33-.55 2.1-.42 3.37-1.03 3.81-1.83h-3.36v-.53h3.58c.08-.29.13-.61.16-.94h-3.33v-.53h3.39c.02-.27.04-.58.04-.93h-3.23v-2.03h3.25v-.97h-2.07v-1.42h-1.73zm1.12 3.44v1h2.65c.01-.3.02-.44.01-.4v-.25-.35zm1.19-2h3.52v-.91h-3.52zm4.71 2h-2.63v.59c0 .15-.01.28-.01.4h2.64z" fill="#fbfcfa"/><path d="m13.56 383.74h.63v1.52h2.72v6.07h1.13v.6h-11.06v-.6h1.13v-6.07h2.73v-1.52h.63v1.52h2.1v-1.52zm-2.69 8.83.38.56c-1.24.63-2.53 1.25-3.85 1.85-.1-.21-.21-.42-.34-.63 1.37-.55 2.63-1.15 3.81-1.78m-2.13-4.27h2.1v-2.45h-2.1zm0 3.04h2.1v-2.46h-2.1zm2.72-3.04h2.1v-2.45h-2.1zm0 3.04h2.1v-2.46h-2.1zm6.07 3.6c-1.41-.71-2.7-1.3-3.86-1.78l.35-.56c1.45.62 2.75 1.19 3.88 1.72zm-1.25-9.09h-2.1v2.45h2.1zm-2.09 5.49h2.1v-2.46h-2.1z" fill="#fbfcfa"/></svg>