<svg enable-background="new 0 0 400 400" viewBox="0 0 400 400" xmlns="http://www.w3.org/2000/svg"><g fill="#010103"><path d="m207.9 334.08c.91-2.36 1.69-4.78 2.74-7.07 9.49-20.68 19.84-41.02 28.36-62.1 12.34-30.52 20.93-62.23 25.82-95.4-12.31.09-25.98 6.12-35.59-9.26 12.87-1.46 24.9-2.82 37.26-4.22.5-3.73 1.26-7.13 1.36-10.55.48-16.93 1.03-33.86.98-50.79-.01-4.84-1.62-9.78-3.14-14.47-1.3-4.02.36-5.26 3.78-5.61 6.8-.69 18.4 5.57 21.38 11.72.73 1.5.89 3.49.7 5.18-1.37 12.53-3.06 25.04-4.32 37.58-.75 7.44-.92 14.94-1.4 23.28 7.02-1.28 13.8-2.3 20.48-3.8 5.3-1.19 10.54-2.79 15.68-4.56 4.29-1.48 8.12-.99 11.85 1.4 9.93 6.38 13.88 17.31 9.16 28.04-4.49 10.19-4.84 20.92-5.96 31.65-3.4 32.69-5.99 65.55-17.93 96.66-4.48 11.66-9.23 23.18-17.41 32.87-1.18 1.39-2.37 2.82-3.77 3.98-8.12 6.76-12.63 5.65-18.64-3.01-5.86-8.46-12.66-16.26-18.98-24.41-1.22-1.57-2.12-3.38-3.98-6.39 3.51.21 5.42.12 7.23.48 5.04 1.02 10.01 2.38 15.06 3.35 8.93 1.71 12.39-.02 16.66-8.04 8.8-16.54 14.57-34.19 18.6-52.41 5.05-22.82 6.55-46.02 6.93-69.32.03-1.66-.08-3.33-.22-4.99-.79-9.44-2.19-10.56-11.81-9.57-6.28.64-12.56 1.59-18.86 1.72-4.64.09-6.22 1.94-6.81 6.34-3.37 25.19-8.38 50.03-16.95 74.05-7.62 21.35-16.39 42.18-30.07 60.46-5.97 7.98-12.73 15.39-19.37 22.85-1.99 2.23-4.79 3.74-7.21 5.58-.54-.38-1.08-.8-1.61-1.22z"/><path d="m243.23 138.82c-16.17 3.3-30.63 6.24-46.51 9.48 1.73-3.16 2.82-5.43 4.16-7.54 2.23-3.5 4.67-6.87 6.91-10.36 2.43-3.79 1.22-6.23-3.62-6.26-5.8-.03-11.63.49-17.41 1.09-7.75.8-15.47 1.91-22.62 2.8v23.53c8.75-.96 16.95-2.09 25.2-2.66 5-.35 12.32 4.55 15.05 10.2-13.55 2.06-26.68 4.05-39.76 6.03-1.3 9.08 7.46 16.98 17.23 15.61 4.43-.62 9.01-.99 13.18-2.44 5.36-1.87 15.82 3.17 19.24 8.23 2.22 3.29-.19 5.1-2.92 5.84-3.82 1.04-7.8 2.04-11.72 2.05-9.43.03-19.06.56-28.25-1.09-13.52-2.42-21.22-11.53-22.97-25.74-10.28 1.26-20.21 1.49-26.72-10.05 8.85-1.08 17.24-2.11 25.75-3.15 0-7.7 0-15.25 0-23.8-9.07 1.65-17.49 3.1-25.85 4.83-.7.15-1.34 2.12-1.47 3.3-1.74 15.5-3.12 31.05-5.11 46.53-4.91 38.23-14.1 75.17-36.2 107.52-5.46 7.99-13.03 14.56-19.74 21.68-1.17 1.24-2.9 1.95-4.37 2.91-.44-.3-.89-.6-1.33-.9 1.18-2.76 2.31-5.55 3.54-8.28 7.1-15.74 15.37-31.07 21.06-47.3 8.89-25.34 16.8-51.18 19.45-78.05 1.49-15.19.96-30.6.97-45.91 0-3.01-1.59-6.07-2.66-9.03-1.44-3.98.3-5.58 4.04-5.97 16.19-1.69 32.36-3.47 48.56-5.05 3.61-.35 4.59-1.84 4.55-5.39-.22-17.93.82-35.92-3.88-53.55-.94-3.53 3.06-6.2 7.11-4.51 4.43 1.85 8.71 4.15 12.78 6.69 3.54 2.21 5.82 5.21 4.37 10.01-.78 2.6-.54 5.51-.85 9.47 6.52-1.04 12.62-1.55 18.46-3.06 9.17-2.37 17.45-1.2 24.88 4.64 1.44 1.13 2.22 3.09 3.3 4.67-1.58.94-3.07 2.43-4.77 2.72-10.13 1.7-20.29 3.33-30.49 4.54-3.86.46-7.86-.28-12.27-.49-.46 6.66-.94 13.56-1.47 21.22 2.51 0 4.78.21 7-.04 10.07-1.1 20.21-1.86 30.17-3.66 9.16-1.66 16.06 1.19 21.42 8.29 4.89 6.46 9.42 13.14 14.58 20.4z"/><path d="m168.3 301.77c-16.31 20.79-37.09 31.43-62.8 31.7-.34-.64-.67-1.28-1.01-1.93 1.58-.9 3.09-1.94 4.74-2.69 12-5.44 23.99-11.04 33.21-20.73 5.11-5.37 9.32-11.63 13.63-17.7.63-.89.04-3.44-.85-4.47-6.39-7.44-13.13-14.59-19.49-22.07-1.76-2.06-2.73-4.85-3.79-7.42-.37-.89.11-2.13.2-3.2 1.22.13 2.7-.15 3.61.45 5.01 3.26 9.89 6.74 14.81 10.14 4.49 3.11 8.98 6.21 13.85 9.58 5.37-12.71 8.9-25.24 7.11-39.32-10.87 1.55-21.65 2.39-32.08 4.76-11.34 2.58-20.09-.19-28.22-10.21 17.26-2.31 33.61-4.51 50.74-6.81-4.06-6.29-7.75-11.78-11.16-17.43-.94-1.55-1.05-3.6-1.55-5.42 2.01-.2 4.12-.89 6-.5 3.88.8 7.67 2.11 11.46 3.31 6.02 1.9 10.16 5.42 10.53 12.25.08 1.47.61 2.92 1.08 5.05 7.6-1.23 15.26-2.31 22.86-3.73 7.97-1.48 14.04 2.76 20.22 6.49 1.07.65 1.91 3.75 1.29 4.65-.92 1.35-3.16 2.24-4.95 2.46-9.52 1.21-19.08 2.16-29.13 3.25.61.92.86 1.51 1.29 1.9 7.88 7.36 7.78 7.31 3.48 16.95-4.86 10.9-9.53 21.89-14.33 32.97 4.41 4.14 8.73 8.25 13.11 12.28 7.97 7.34 11.5 16.4 11.05 27.19-.16 3.94-.77 7.25-5.02 8.75-4.19 1.48-6.71-1.15-8.88-3.82-5.76-7.11-11.25-14.43-16.87-21.65-1.28-1.64-2.67-3.24-4.14-5.03z"/></g><path d="m6.44 374.46.42-.45c.65.47 1.27.95 1.85 1.44l-.45.49c-.65-.56-1.25-1.06-1.82-1.48m.93 7.33-.63-.26c.55-1.36 1.05-2.8 1.53-4.33.19.1.38.19.59.27-.47 1.29-.96 2.73-1.49 4.32m-.38-10.38.44-.42c.43.34 1.01.82 1.74 1.44l-.49.49c-.53-.51-1.09-1.01-1.69-1.51m2.5.35h1.72v-1.04h.59v1.04h3.52v-1.04h.59v1.04h1.75v.53h-1.75v1.42h-2.03v.97h3.22v2.03h-3.24c0 .35-.01.66-.03.93h3.32v.53h-3.37c-.03.27-.08.58-.15.94h3.96v.53h-3.71c.67.92 1.93 1.48 3.79 1.68-.13.24-.23.44-.29.59-2.13-.38-3.48-1.08-4.04-2.12-.43.97-1.77 1.72-4.03 2.23-.09-.19-.2-.37-.33-.55 2.1-.42 3.37-1.03 3.81-1.83h-3.36v-.53h3.58c.08-.29.13-.61.16-.94h-3.33v-.53h3.39c.02-.27.04-.58.04-.93h-3.23v-2.03h3.25v-.97h-2.07v-1.42h-1.73zm1.12 3.44v1h2.65c.01-.3.02-.44.01-.4v-.25-.35zm1.19-2h3.52v-.91h-3.52zm4.71 2h-2.63v.59c0 .15-.01.28-.01.4h2.64z" fill="#fbfcfa"/><path d="m13.56 383.74h.63v1.52h2.72v6.07h1.13v.6h-11.06v-.6h1.13v-6.07h2.73v-1.52h.63v1.52h2.1v-1.52zm-2.69 8.83.38.56c-1.24.63-2.53 1.25-3.85 1.85-.1-.21-.21-.42-.34-.63 1.37-.55 2.63-1.15 3.81-1.78m-2.13-4.27h2.1v-2.45h-2.1zm0 3.04h2.1v-2.46h-2.1zm2.72-3.04h2.1v-2.45h-2.1zm0 3.04h2.1v-2.46h-2.1zm6.07 3.6c-1.41-.71-2.7-1.3-3.86-1.78l.35-.56c1.45.62 2.75 1.19 3.88 1.72zm-1.25-9.09h-2.1v2.45h2.1zm-2.09 5.49h2.1v-2.46h-2.1z" fill="#fbfcfa"/></svg>