<svg enable-background="new 0 0 400 400" viewBox="0 0 400 400" xmlns="http://www.w3.org/2000/svg"><g fill="#fafbfc"><path d="m346.9 398 5.4-7.3h-5.2v-.6h5.9v.6l-5.4 7.2h5.5l-.1.6h-6.2v-.5z"/><path d="m354.7 390.1h2.8c2.3 0 3.9 1.6 3.9 4.1s-1.6 4.3-3.9 4.3h-2.8zm.6 7.8h2c2.2 0 3.3-1.6 3.3-3.6 0-1.8-1-3.6-3.3-3.6h-2z"/><path d="m363.9 390.1v8.4h-.6v-8.4z"/><path d="m372.5 396.3c-.4 1.3-1.4 2.3-3.2 2.3-2.4 0-3.7-1.9-3.7-4.3 0-2.3 1.2-4.3 3.7-4.3 1.8 0 2.9 1 3.2 2.4h-.6c-.4-1.1-1.1-1.8-2.5-1.8-2.1 0-3 1.9-3 3.7s.9 3.7 3 3.7c1.4 0 2.1-.7 2.5-1.7z"/><path d="m373.8 398.5v-1.5h.6v1.5z"/><path d="m376.2 398.5v-8.4h1c1.3 2 4.4 6.7 4.9 7.6-.1-1.2-.1-2.4-.1-3.8v-3.8h.7v8.4h-.9c-1.2-1.9-4.4-6.8-5-7.7.1 1.1 0 2.3 0 3.9v3.9h-.6z"/><path d="m390 394.4h-4.3v3.5h4.7l-.1.6h-5.2v-8.4h5.1v.6h-4.5v3.1h4.3z"/><path d="m394.2 390.7h-2.8v-.6h6.3v.6h-2.8v7.8h-.7z"/></g><path d="m131.07 208.21c-12.58 1.21-24.53 1.81-36.29 3.65-9.77 1.53-16.26-3.02-22.35-9.31-.57-.59-.5-1.8-.92-3.53 20.51-1.51 40.61-2.99 60.99-4.48 0-6.53 0-12.57 0-18.74-8.38.54-16.44 1.06-23.56 1.52-1.86 2.21-3.15 5.24-4.93 5.55-4.01.71-6.59-2.28-7.29-6.01-1.48-7.81-2.43-15.71-3.75-23.55-1.99-11.77-4.1-23.52-6.2-35.27-.14-.8-.69-1.51-.93-2.3-.5-1.64-.91-3.3-1.36-4.95 1.74-.27 3.68-1.17 5.2-.72 9.49 2.83 18.78-.32 28.15-.69 4.59-.18 9.14-1.07 13.91-1.66 0-6.41 0-12.32 0-18.77-5.82.49-11.4.98-16.98 1.41-8.79.68-16.95-.89-23.54-7.23-1.1-1.06-1.61-2.74-2.39-4.13 1.57-.67 3.1-1.84 4.7-1.92 12.6-.66 25.22-1.12 38.38-1.66-1.28-7.44-2.41-14.43-3.71-21.39-1.11-5.93 1.47-8.51 7.15-6.27 4.91 1.94 9.6 4.56 14.14 7.29 4.41 2.65 5.74 6.67 3.74 11.63-.61 1.52-.95 3.15-1.69 5.69 6.11-1.06 11.57-1.99 17.03-2.96 7.69-1.36 14.46 1.25 20.73 5.2 1.36.86 2.63 3.48 2.31 4.93-.32 1.44-2.57 3.25-4.17 3.48-8.7 1.26-17.47 2.09-26.22 3.03-3.46.37-6.93.64-10.79.99v18.41c9.28-1.2 18.56-1.9 27.61-3.75 5.36-1.1 9.51.42 13.46 3.18 4.08 2.86 7.82 6.21 11.62 9.45 2.89 2.46 3.44 5.94.92 8.38-9.06 8.78-9.85 20.7-12.93 31.8-1.81 6.55-3.71 13.08-5.93 19.5-1.94 5.61-6.34 7.82-10.75 2.45-4.3-5.23-10.04-3.1-15.33-3.02-3.11.05-6.22.58-9.59.92v18.23c7.89-1.09 15.47-1.93 22.96-3.21 8.65-1.48 14.97 3.2 21.33 7.68.98.69 1.65 3.4 1.08 4.32-.79 1.29-2.84 2.39-4.43 2.52-10.77.9-21.55 1.62-32.34 2.19-8.9.47-8.76.35-8.95 9.09-.16 7.48-.35 14.99-1.22 22.4-.39 3.3-2.13 6.61-3.89 9.55-1.79 3-4.92 2.59-6.96-1.29-4.81-9.16-9.03-18.57-6.84-29.45.48-2.54.53-5.17.82-8.18zm18.3-74.87c9.76-.13 19.19-4.37 28.51 2.11 0-5.44.32-9.95-.16-14.36-.19-1.74-2.08-4.64-3.32-4.7-8.32-.42-16.66-.22-25.03-.22zm-16.8-15.07c-8.71.78-17.01 1.52-25.23 2.26v16.46c8.64-.52 16.97-1.02 25.23-1.51 0-6.02 0-11.43 0-17.21zm-24.24 30v17.87c8.27-.67 16.22-1.31 24.15-1.94 0-6.12 0-11.5 0-17.15-8.2.42-16.06.81-24.15 1.22zm68.24-4.47c-9.41.55-18.13 1.06-26.98 1.58v16.7c4.89-.37 9.39-1.3 13.78-.91 8.42.75 9.38.42 11.24-7.76.66-2.9 1.2-5.83 1.96-9.61z" fill="#010000"/><path d="m241.78 94.93c-.74 10.51-1.45 20.48-2.22 31.39 9.7-.63 18.46-.89 27.14-1.83 14.68-1.6 29.29-3.78 43.97-5.42 8.08-.91 14.26 3.92 20.22 8.3 3.23 2.38 1.65 6.55-2.62 6.93-9.76.88-19.56 1.27-29.35 1.88-2.12.13-4.24.37-7.94.7 6.94 4.65 6.23 10.06 5.22 16.11-1.31 7.84-1.51 15.87-2 23.83-1.08 17.42-1.45 34.9-3.24 52.24-1.42 13.7-1.04 15.52-7.12 21.5-1.39-2.56-3.34-4.78-3.82-7.27-1.62-8.43-3.42-16.92-3.86-25.45-.95-18.11-.97-36.26-1.62-54.39-.24-6.79-1.01-13.58-1.86-20.33-.4-3.18-1.67-5.05-6.01-4.41-7.63 1.12-15.43 1.07-23.16 1.39-1.06.04-2.15-.64-3.82-1.17-.87 6.86-1.61 13.54-2.57 20.19-2.8 19.4-7.9 38.11-18.37 54.86-4.79 7.66-10.37 14.95-19.33 19.64.6-2.18.91-4.49 1.84-6.52 6.98-15.16 11.83-31.02 14.97-47.34 4.06-21.11 6.06-42.4 3.96-63.96-.84-8.61-1.14-17.19-5.04-25.23-1.61-3.33 1.82-6.2 6.49-5.33 3.38.64 6.57 2.28 9.93 3.1 1.87.46 4.35.9 5.85.07 9.43-5.23 18.95-10.39 27.83-16.47 4.92-3.37 8.88-8.28 12.8-12.9 2.12-2.49 3.85-3.89 7.1-2.4 6.44 2.96 13.04 5.59 19.37 8.76 1.87.93 3.06 3.22 5.49 5.94-23.26 9.08-44.84 19.51-68.23 23.59z" fill="#010000"/><path d="m260.51 321.12c3.93 3.66 6.98 6.23 9.67 9.14.98 1.06 1.93 3.43 1.4 4.29-.79 1.29-2.85 2.38-4.44 2.48-5.81.37-11.64.3-17.46.38-26.28.34-52.57.68-78.85 1-5.05.06-10.1.01-15.49.01-.22 1.34-.56 3.77-1.02 6.18-.9 4.74-4.09 6.32-7.96 3.32-2.33-1.81-4.55-4.73-5.23-7.54-1.83-7.54-2.84-15.29-4.13-22.97-2.72-16.17-5.35-32.35-8.2-48.49-.36-2.04-1.74-3.92-2.77-5.81-1.93-3.52-.39-5.08 3.07-5.1 2.46-.01 4.92.67 7.39.89 6.7.61 13.43 1.78 20.12 1.57 15.76-.49 31.54-1.28 47.24-2.67 14.37-1.28 28.7-3.25 42.96-5.43 7.99-1.22 15.24-.3 21.72 4.55 5.04 3.78 10.01 7.68 14.69 11.89 3.73 3.35 2.74 6.96.32 11.11-8 13.7-15.53 27.68-23.03 41.2zm-105.02 3.78c2.07 0 3.71.1 5.34-.01 15.93-1.08 31.86-2.14 47.79-3.3 10.6-.78 21.2-1.66 31.78-2.65 1.2-.11 3.12-1.04 3.33-1.92 3.09-12.89 6.32-25.77 8.7-38.8 1.18-6.48-.53-7.7-7.32-8.2-3.64-.27-7.31-.72-10.94-.55-19.44.9-38.87 1.96-58.3 2.99-7.6.4-15.2.86-23.21 1.32.95 17.09 1.88 33.94 2.83 51.12z" fill="#010000"/></svg>