<svg enable-background="new 0 0 400 400" viewBox="0 0 400 400" xmlns="http://www.w3.org/2000/svg"><g fill="#fafbfc"><path d="m346.9 398 5.4-7.3h-5.2v-.6h5.9v.6l-5.4 7.2h5.5l-.1.6h-6.2v-.5z"/><path d="m354.7 390.1h2.8c2.3 0 3.9 1.6 3.9 4.1s-1.6 4.3-3.9 4.3h-2.8zm.6 7.8h2c2.2 0 3.3-1.6 3.3-3.6 0-1.8-1-3.6-3.3-3.6h-2z"/><path d="m363.9 390.1v8.4h-.6v-8.4z"/><path d="m372.5 396.3c-.4 1.3-1.4 2.3-3.2 2.3-2.4 0-3.7-1.9-3.7-4.3 0-2.3 1.2-4.3 3.7-4.3 1.8 0 2.9 1 3.2 2.4h-.6c-.4-1.1-1.1-1.8-2.5-1.8-2.1 0-3 1.9-3 3.7s.9 3.7 3 3.7c1.4 0 2.1-.7 2.5-1.7z"/><path d="m373.8 398.5v-1.5h.6v1.5z"/><path d="m376.2 398.5v-8.4h1c1.3 2 4.4 6.7 4.9 7.6-.1-1.2-.1-2.4-.1-3.8v-3.8h.7v8.4h-.9c-1.2-1.9-4.4-6.8-5-7.7.1 1.1 0 2.3 0 3.9v3.9h-.6z"/><path d="m390 394.4h-4.3v3.5h4.7l-.1.6h-5.2v-8.4h5.1v.6h-4.5v3.1h4.3z"/><path d="m394.2 390.7h-2.8v-.6h6.3v.6h-2.8v7.8h-.7z"/></g><path d="m300.18 253.47c6.7-1.07 13.04-2.1 19.38-3.1 10.98-1.73 21.56-.89 31.27 5.1 1.41.87 2.89 1.82 3.89 3.08 1.06 1.34 2.59 3.6 2.11 4.57-.69 1.4-2.95 2.7-4.63 2.83-7.62.58-15.28.63-22.91 1.07-10.62.61-21.24 1.3-31.84 2.2-1.19.1-2.95 1.56-3.27 2.71-2.39 8.78-4.48 17.65-6.52 25.92 4.32 3.14 8.4 5.47 11.58 8.69 1.67 1.69 2.87 5.29 2.21 7.39-.51 1.65-4.16 3.16-6.47 3.26-9.48.38-19.03-.47-28.45.34-22.64 1.95-45.23 4.54-67.84 6.96-12.22 1.31-24.2.22-35.93-3.3-1.5-.45-2.51-2.51-3.74-3.82 1.65-.84 3.25-2.29 4.96-2.43 32.96-2.73 65.77-6.59 98.26-12.97 5.02-.99 7.93-2.81 8.71-8.17 1.07-7.36 2.75-14.63 4.34-22.83-5.34.43-9.91.69-14.46 1.19-23.44 2.54-46.88 5.15-70.31 7.72-16.34 1.79-32.66 4.03-49.06 5.05-5.66.35-11.58-2.17-17.23-3.87-1.32-.4-2.03-2.83-3.02-4.33 1.58-.92 3.12-2.57 4.73-2.65 45.51-2.33 90.72-7.46 135.79-14.02 3.61-.53 7.34-.51 10.84-1.42 1.61-.42 3.86-2.37 3.99-3.81.52-5.41.56-10.9.27-16.33-.23-4.18-2.51-7.63-7.03-7.66-8.6-.06-17.31-.23-25.8.95-20.53 2.85-40.95 6.47-61.42 9.71-5.74.91-21.54-3.48-25.28-7.33 5.72-.76 10.88-1.35 16.01-2.16 29.81-4.7 59.92-8.06 89.29-14.71 17.8-4.03 31.41 1.01 45.16 10.15.28.18.56.37.81.58 8.18 6.86 8.02 9.64-.62 15.72-3.31 2.32-7.1 4.41-7.77 9.72z" fill="#010000"/><path d="m241 118.19c0 19.8.29 39.28-.14 58.74-.18 8.24-1.69 16.47-3.05 24.64-.33 1.96-2.27 4.81-3.86 5.09-1.63.29-4.29-1.64-5.53-3.32-5.09-6.86-6.7-14.77-5.33-23.14 3.27-19.98 2.76-40.03 2.07-60.84-20.25 2.95-39.99 5.83-59.2 8.64-1.74 8.24-2.94 15.96-5.16 23.37-.81 2.7-3.62 5.58-6.25 6.77-4.87 2.2-8.5.2-9.91-4.96-1.4-5.14-1.54-10.03 1.26-15.32 4.63-8.77 8.06-18.18 12.01-27.31.38-.87.85-1.7 1.9-3.77 1.9 2.73 3.86 4.59 4.6 6.84 1.31 4.01 3.81 4.86 7.52 4.32 17.54-2.55 35.09-5.04 52.49-7.53 1.44-8.35 1.75-15.73-1.11-22.9-1.48-3.7-3.38-6.26-8.4-5.57-11.06 1.51-22.21 2.12-33.03-1.75-2.08-.74-4.05-1.8-6.08-2.71-.06-.58-.12-1.15-.18-1.73 2.22-.96 4.36-2.35 6.68-2.82 21.94-4.41 43.93-8.63 65.88-13 5.98-1.19 11.98-4.09 17.82-3.72 6.32.41 12.52 3.55 18.62 5.89 1.42.54 2.23 2.66 3.32 4.06-1.57 1.02-3.01 2.59-4.72 2.99-14.85 3.51-29.74 6.82-44.62 10.2-.64.14-1.24.42-2.52.87 9.75 6.87 7.17 16.58 6.52 27.03 15.62-3.33 30.89-6.12 45.9-9.96 8.44-2.16 16.05-2.34 23.99 1.62 10.91 5.44 21.81 10.75 30.18 19.96 1.08 1.19 2.08 2.46 3.71 4.4-2.7 1.08-4.71 2.29-6.86 2.66-14.43 2.48-28.03 6.97-39.89 15.86-.22.16-.63.06-1.72.13.29-1.79.4-3.46.84-5.04 1.47-5.26 3.28-10.44 4.55-15.75 1.96-8.21-.07-11.03-8.59-10.61-10.59.53-21.19 1.64-31.7 3.08-7.34 1.01-14.53 3-22.01 4.59z" fill="#010000"/><path d="m37.23 137.24c8.54-1.66 15.35 1.83 22.26 5.17 1.95.95 4.59 1.94 6.45 1.38 11.23-3.4 22.33-7.2 33.44-11 1.69-.58 3.53-1.54 4.62-2.88 4.19-5.11 8.94-4.33 13.65-1.37 5.17 3.26 10.41 6.58 14.96 10.61 5.94 5.27 5.34 6.23 1.2 12.96-4.84 7.87-9.19 16.09-13.21 24.42-2.06 4.27-3.3 9.06-4.15 13.75-.42 2.31.39 5.2 1.53 7.36 3.97 7.56 3.11 10.66-5.05 12.35-13.94 2.89-28 5.18-42.52 7.81 0 1.6.05 3.57-.01 5.53-.08 2.49.36 5.23-.53 7.41-1.18 2.9-3.43 5.37-5.22 8.03-1.94-2.25-5.07-4.24-5.62-6.79-2.15-10.02-3.64-20.18-5.08-30.34-2.74-19.42-5.49-38.8-14.77-56.5-.38-.73-.79-1.49-.97-2.29-.38-1.77-.63-3.58-.98-5.61zm31.68 71.39c8.62-2.83 16.49-5.32 24.28-8.06 1.15-.4 2.52-1.83 2.74-2.98 2.8-14.44 5.72-28.86 7.91-43.4.84-5.6-1.8-8.01-7.4-7.04-10.68 1.86-21.21 4.54-31.92 6.91 1.49 18.52 2.91 36.18 4.39 54.57z" fill="#010000"/><path d="m245.36 151.59c3.04-2.74 6.3-5.27 9.06-8.27 4.31-4.69 8.48-9.54 12.3-14.63 1.6-2.14 2.8-3.15 5.12-1.52 5.16 3.63 10.35 7.22 15.41 10.97 3.22 2.38 1.7 4.64-1.08 5.44-11.76 3.35-23.61 6.4-35.46 9.44-1.5.38-3.19.05-4.78.05-.19-.49-.38-.99-.57-1.48z" fill="#010000"/><path d="m211.79 175.62c-1.8 1.94-2.57 2.99-3.55 3.8-7.77 6.47-15.55 12.91-23.37 19.33-1.53 1.26-3.11 2.53-4.85 3.44-.79.41-2.5.36-3-.2-4.59-5.15-9.01-10.46-14.13-16.49 2.13-.59 3.86-1.41 5.62-1.51 12.99-.76 25.68-2.96 37.94-7.47 1.28-.47 2.71-.48 5.34-.9z" fill="#010000"/><path d="m257.22 173.84c3.44-.25 6.93-.98 10.3-.64 4.92.5 9.78 1.69 14.62 2.8 1.36.31 2.76 1.14 3.78 2.11 3.69 3.53 5.93 10.36 3.67 12.52-3.73 3.56-8.33 1.96-11.95-.23-7.17-4.33-13.94-9.33-20.87-14.05.16-.83.3-1.67.45-2.51z" fill="#010000"/><path d="m174.18 148.78c5.19-4.98 10.57-3.78 15.68-2.78 5.89 1.15 12.63 1.18 15.66 7.86.86 1.89 1.62 5.27.67 6.21-1.71 1.7-5.13 3.36-7.14 2.74-5.3-1.64-10.37-4.25-15.26-6.96-3.27-1.8-6.09-4.44-9.61-7.07z" fill="#010000"/></svg>