<svg enable-background="new 0 0 400 400" viewBox="0 0 400 400" xmlns="http://www.w3.org/2000/svg"><path d="m93.48 171.42c-1.07-21.16-1.98-46.6-3.86-71.97-.62-8.3-3.91-16.37-5.71-24.61-.48-2.21-.86-5.92.26-6.69 1.95-1.34 5.24-1.58 7.71-1.07 3.01.62 5.66 2.78 8.64 3.75 3.67 1.2 7.57 2.78 11.28 2.59 24.07-1.23 48.1-3.01 72.16-4.38 17.6-1 35.24-1.44 52.83-2.52 14.4-.88 28.76-2.34 43.14-3.54.33-.03.72.01.98-.14 9.3-5.39 16.79-1.27 23.9 4.6 4.23 3.49 8.45 7 12.54 10.66 3.43 3.06 4.15 7.4 1.98 10.92-5.83 9.44-5.09 19.8-5.1 30.03-.05 40.98-.04 81.97.25 122.95.12 17.12 1.33 34.24 1.4 51.37.04 10.44-.41 20.99-2.03 31.28-1.08 6.9-4.34 13.53-7.11 20.08-1.59 3.76-5.2 4.65-8.2 1.87-4.33-4.02-8.87-8.22-11.84-13.22-4.41-7.42-9.35-10.94-18.63-10.45-26.91 1.44-53.87 1.78-80.81 2.48-24.95.64-49.91 1.28-74.86 1.66-4 .06-6.07.87-6.82 5.15-.53 3.01-2.16 5.94-3.79 8.61-2.84 4.65-6.04 4.82-9.46.54-6.89-8.61-9.35-18.38-8.18-29.42 2.51-23.61 5.11-47.23 6.72-70.9 1.46-21.73 1.68-43.54 2.61-69.63zm201.01-30.69c-2.93.34-4.73.65-6.53.73-13.23.59-26.52 2.18-39.68 1.43-18.94-1.08-30.85-17.21-29-35.97.87-8.79.15-17.73.15-27.01-15.38 1.47-29.44 2.81-44.56 4.25 2.31 2.05 3.72 3.18 4.99 4.45 3.04 3.03 4.23 5.87.77 9.85-3.47 3.99-6.04 8.75-8.97 13.2-8.49 12.89-18.22 24.7-31.12 33.41-4.9 3.31-10.41 5.7-16.62 9.04 8.41-11.64 16.43-21.52 23.07-32.26 6.78-10.97 12.04-22.83 11.31-36.67-16.2 1.09-31.89 2.14-48.19 3.24-.56 75.18-1.12 150.01-1.68 224.47 4.92 0 9.56.21 14.17-.03 31.22-1.68 62.44-3.42 93.65-5.24 12.61-.74 25.21-1.73 37.82-2.61 4.81-.33 9.62-.82 14.43-.96 8.37-.24 15.4 3.16 22.23 8.8 3.83-57.31 4.72-114.4 3.76-172.12zm.09-18.42c-1.47-11.79-2.8-24.76-4.98-37.59-.37-2.19-4.3-5.23-6.74-5.37-12.35-.72-24.76-.7-37.14-.73-3.71-.01-7.43.67-9.79.9 1.13 4.48 3 8.58 3.01 12.68.01 6.4-1.44 12.79-1.9 19.22-.61 8.5 2.68 13.84 10.9 15.16 6.36 1.03 13.1.33 19.6-.33 8.61-.87 17.15-2.46 27.04-3.94z"/><path d="m190.55 225.11c0-11.4 0-21.99 0-33.07-11.01.94-21.73 1.64-32.41 2.82-9.87 1.09-17.51-2.64-23.73-9.9-.78-.91-1.52-2.57-1.18-3.48.3-.81 2.1-1.4 3.27-1.49 15.75-1.09 31.51-2.1 47.26-3.08 6.13-.38 7.48-.13 6.42-7.05-1.13-7.35-.77-14.91-1.3-22.37-.15-2.08-.96-4.16-1.74-6.14-1.84-4.66.29-7.88 5.25-7.73 9.25.3 19.41 13.17 18.27 22.3-.71 5.7-.13 11.55-.13 17.79 10.17-1.13 20.38-2.02 30.52-3.45 9.3-1.31 17.62 0 24.16 7.28 1.24 1.38 1.82 3.37 2.7 5.08-1.61.66-3.17 1.72-4.83 1.91-14.36 1.61-28.73 3.05-43.1 4.55-3.63.38-7.26.78-11.48 1.24-.71 10.68-1.41 21.35-2.15 32.63 7.98-1.18 15.39-1.91 22.63-3.46 5.9-1.26 11.22-.77 16.17 2.58 4.66 3.16 9.29 6.4 13.71 9.87 2.68 2.1 1.9 4.57.52 7.51-4.98 10.62-9.63 21.4-14.11 32.24-.4.98 1.18 2.91 2.05 4.26 1.72 2.66 3.59 5.22 5.39 7.82-2.98.73-5.93 1.94-8.94 2.1-16.94.9-33.89 1.51-50.83 2.28-7.12.32-14.22.79-21.52 1.19-.13.74-.15 1.39-.36 1.98-.69 1.89-1.44 3.75-2.17 5.62-2.46-1.04-6.36-1.46-7.13-3.23-2.54-5.83-4.8-12.05-5.63-18.32-2.15-16.29-3.88-32.59-10.54-47.89-.35-.81 1.09-3.38 2.03-3.59 2.02-.44 4.52-.46 6.36.38 12.06 5.55 24.12 1.14 36.57.82zm-19.18 52.74c19.5-2.05 38.61-4.02 57.7-6.2 1.08-.12 2.67-2.02 2.78-3.21.84-9.06 1.51-18.15 1.94-27.24.2-4.24-2.15-6.37-6.55-6.16-10.45.48-20.9.75-31.34 1.31-9.21.5-18.4 1.28-28.07 1.97 1.18 13.19 2.33 26.03 3.54 39.53z"/><g fill="#fafafa"><path d="m374.8 390.4 1.4-.4c.7.5 1.3 1 1.8 1.4l-.5.5c-1.5-.6-2.1-1.1-2.7-1.5zm1 7.3-.6-.3c.5-1.4 1.1-2.8 1.5-4.3.2.1.4.2.6.3-.5 1.3-1 2.8-1.5 4.3zm-.4-10.3.4-.4c.4.3 1 .8 1.7 1.4l-.5.5c-.4-.5-1-1-1.6-1.5zm2.5.3h1.7v-1h.6v1h3.5v-1h.6v1h1.8v.5h-1.8v1.4h-2v1h3.2v2h-3.2v.9h3.3v.5h-3.4c0 .3-.1.6-.1.9h4v.5h-3.7c.7.9 1.9 1.5 3.8 1.7-.1.2-.2.4-.3.6-2.1-.4-3.5-1.1-4-2.1-.4 1-1.8 1.7-4 2.2-.1-.2-.2-.4-.3-.6 2.1-.4 3.4-1 3.8-1.8h-3.4v-.5h3.6c.1-.3.1-.6.2-.9h-3.3v-.5h3.4c0-.3 0-.6 0-.9h-3.2v-2h3.3v-1h-2.1v-1.4h-1.7v-.5zm1.1 3.5v1h2.7c0-.3 0-.4 0-.4 0-.1 0-.2 0-.2 0-.1 0-.2 0-.3h-2.7zm1.2-3v.9h3.5v-.9zm4.7 3h-2.6v.6.4h2.6z"/><path d="m393.6 386.7h.6v1.5h2.7v6.1h1.1v.6h-11v-.6h1.1v-6.1h2.7v-1.5h.6v1.5h2.1v-1.5zm-2.7 8.8.4.6c-1.2.6-2.5 1.3-3.8 1.9-.1-.2-.2-.4-.3-.6 1.2-.6 2.5-1.2 3.7-1.9zm-2.2-6.7v2.4h2.1v-2.4zm0 3v2.5h2.1v-2.5zm2.8-3v2.4h2.1v-2.4zm0 3v2.5h2.1v-2.5zm6 6.1c-1.4-.7-2.7-1.3-3.9-1.8l.2-.6c1.5.6 2.7 1.2 3.9 1.7zm-1.2-9.1h-2.1v2.4h2.1zm-2.1 3v2.5h2.1v-2.5z"/></g></svg>