<svg enable-background="new 0 0 400 400" viewBox="0 0 400 400" xmlns="http://www.w3.org/2000/svg"><g fill="#010102"><path d="m272.45 173.35c-.96-1.32-1.84-2.04-2.05-2.92-2.29-9.35-8.69-10.28-17.04-9.48-23.98 2.31-48.07 3.51-72.01 6.12-21.09 2.3-42.05 5.9-63.06 8.95-7.71 1.12-15.14-5.4-14.4-13.21.7-7.42 2.39-14.74 3.13-22.15 2.02-20.29.99-40.51-2.13-60.64-.25-1.61-1.06-3.13-1.58-4.7-1.69-5.06 1.31-8.76 6.3-7.01 4.42 1.55 8.78 3.99 12.34 7.01 1.84 1.56 2.41 5.2 2.62 7.98.39 5.25.11 10.55.11 16.72 11-1.6 21.88-3.19 33.79-4.93-.89-10.76-1.36-21.02-2.77-31.16-.57-4.07.52-5.61 4-5.14 6.78.91 12.56 4.52 15.48 10.45 1.51 3.07-.08 7.72-.43 11.65-.45 5.12-1.13 10.23-1.56 15.36-.11 1.25.1 2.66.61 3.8 1.96 4.4 1.22 5.63-3.8 6.13-15.19 1.51-30.37 3.06-46.2 4.66v19.57c7.91-.93 15.92-1.79 23.89-2.84 5.43-.71 10.8-1.84 16.24-2.49 6.13-.74 11.38 1.82 16.18 5.25 1.03.74 2.22 2.88 1.85 3.59-.61 1.16-2.39 2.22-3.77 2.38-12.38 1.38-24.77 2.58-37.17 3.78-5.78.56-11.56.97-18.54 1.55 0 3.75-.16 7.65.05 11.53.17 3.15 2.32 4.07 5.25 3.86 11.94-.86 23.89-1.59 35.82-2.52 14.24-1.11 28.46-2.66 42.72-3.49 17.6-1.02 35.22-1.62 52.84-2.13 4.69-.14 6.99-1.52 6.87-6.58-.1-4.09.62-8.2 1.05-13.09-9.71.47-18.77.83-27.81 1.37-5.63.34-11.25.99-16.87 1.43-6.22.49-10.47-3.51-14.01-7.48-2.38-2.67 1.26-3.31 3.27-3.47 5.96-.49 11.96-.62 17.92-1.16 9.09-.83 18.14-2.06 27.24-2.75 3.22-.24 6.53.59 9.98.96 0-5.08 0-10.2 0-15.95-7.83.82-15.52 1.41-23.15 2.48-7.05 1-14.03 2.52-21.04 3.8-7.01 1.29-13.77-4.43-12.53-11.42 2.04-11.49 1.98-22.74-1.06-34.03-.91-3.38 1.66-5.54 5.41-4.86 6.27 1.14 13.16 7.67 11.85 14.36-.98 5.01-.75 10.26-1.13 15.4-.22 2.96.88 4.15 4 4.1 11.33-.18 22.66-.19 33.98-.13 2.83.02 3.68-1.02 3.7-3.83.05-8.61-1.28-16.84-5.2-24.61-.68-1.34-1.16-4-.51-4.53 1.17-.94 3.59-1.44 4.93-.85 5.89 2.57 11.76 5.31 17.28 8.58 3.24 1.92 3.56 5.3 2.84 9.21-1.46 7.95-2.74 16.02-3.07 24.09-.69 17.12-.5 34.28-1.14 51.41-.29 8.15-1.83 16.21-9.51 22.02z"/><path d="m184.75 320.05c0-9.63 0-18.4 0-27.57-10.17.57-20.08.99-29.96 1.71-8.21.6-14.51-2.92-19.81-8.67-1.02-1.11-1.36-2.85-2.01-4.3 1.49-.47 2.96-1.28 4.46-1.34 15.59-.67 31.18-1.21 48.12-1.84-1.08-7.8-2.1-14.93-3.01-22.07-.23-1.82-.84-4.65.03-5.32 1.74-1.34 4.78-2.6 6.57-1.94 7.21 2.62 13.48 7.12 16.11 14.54 1.28 3.61.22 8.04.22 12.67 8.79-.84 17.69-1.41 26.49-2.62 8.87-1.22 15.99 1.68 21.93 7.97 1.04 1.1 1.36 2.87 2.01 4.33-1.46.53-2.89 1.39-4.39 1.53-15.87 1.45-31.76 2.77-48.35 4.2-.83 8.99-1.66 17.97-2.56 27.82 4.44-.43 8-.85 11.57-1.1 20.06-1.42 40.12-2.79 60.18-4.2 3.98-.28 7.94-.65 11.92-.95 13.84-1.06 23.66 6.4 32.43 15.69 1.48 1.57 2.88 5.17 2.08 6.45-1.12 1.8-4.32 3.2-6.63 3.19-7.97-.04-15.93-.8-23.9-1.23-18.59-1.01-37.17-2.59-55.76-2.82-22.12-.27-44.29.1-66.39 1.18-18.4.9-36.73 3.19-55.08 4.96-9.76.94-18.15-1.66-24.63-9.22-1.11-1.29-1.54-3.16-2.28-4.76 1.63-.58 3.23-1.58 4.88-1.66 21.92-1.09 43.86-2.04 65.79-3.07 9.92-.48 19.84-1.04 29.97-1.56z"/><path d="m206.62 185.13c1.99-.21 3.43-.57 4.84-.49 18.73 1.01 37.2-.96 55.45-4.96 6.86-1.51 13.21-.48 19.37 2.35 2.79 1.28 6.16 2.78 5.42 6.76-.69 3.76-4.24 3.88-7.12 4.19-8.05.88-16.13 1.5-23.07 2.12v20.99c6.44-.55 12.7-.68 18.81-1.69 9.27-1.53 17.93-.7 25.52 5.16 1.78 1.37 2.79 3.75 4.15 5.67-2.06.98-4.07 2.68-6.19 2.82-13.92.97-27.87 1.6-42.64 2.39 0 1.62.05 3.38-.01 5.13-.33 10.13-.5 20.28-1.2 30.39-.14 2.09-2.3 4.03-3.52 6.05-1.79-1.29-4.26-2.19-5.26-3.93-4.25-7.42-7.28-15.17-5.74-24.16.68-3.99.12-8.19.12-12.64-9.14.66-17.92.99-26.62 1.99-9.63 1.1-15.5-4.22-21.86-11.81 16.21-2.9 31.77-2.15 47.35-4.02 0-6.82 0-13.78 0-20.8-23.22 2.54-33.6-3.22-37.8-11.51z"/><path d="m94.35 282.23c17.53-9.95 31.29-22.84 35.3-44.46-6.38 1.02-12.52 1.73-18.53 3.02-8.28 1.77-16.29 2.01-23.17-3.65-2.35-1.93-3.74-5.02-5.56-7.58 2.81-.89 5.57-2.3 8.45-2.59 12.89-1.31 25.81-2.31 38.71-3.43 2.24-.2 3.86-.99 3.41-3.73-.13-.81.05-1.67-.04-2.49-.46-4.11.29-9.16-1.86-12.04-1.69-2.26-6.95-2.23-10.67-2.52-6.2-.49-11.65-2.54-16.42-6.44-1.31-1.07-2.35-2.47-4.47-4.74 2.92-.31 4.46-.66 5.99-.6 16.53.68 32.85-.9 49.09-3.9 6.86-1.27 13.71-.58 19.72 3.26 1.69 1.08 2.5 3.53 3.72 5.35-1.82 1.13-3.53 2.99-5.46 3.25-7.56 1.01-15.19 1.52-23.68 2.29 9.1 6.35.28 12.94 1.44 19.88 7.18-.46 14.43-.81 21.66-1.44 5.35-.47 9.94.92 13.51 4.92 1.09 1.22 2.17 3.09 2.02 4.53-.09.89-2.46 2.03-3.91 2.21-8.56 1.05-17.14 2.09-25.74 2.69-11.44.81-11.15.74-14.83 11.29-7.27 20.88-22.45 33.12-43.51 38.54-1.32.34-2.8.04-4.21.04-.33-.55-.64-1.11-.96-1.66z"/></g><path d="m378.6 9.2.8-1c.9.7 1.9 1.4 2.9 2.3l-.9 1.1c-1.1-.9-2-1.7-2.8-2.4zm.5 10.7c.9-2.1 1.6-4.3 2.3-6.7.4.2.8.4 1.3.6-.7 3.1-1.5 4.3-2.2 6.6zm.4-15.2.9-.9c1 .8 2 1.6 2.8 2.4l-1 1c-1-.9-1.9-1.8-2.7-2.5zm12.5-1.3h1.2v1.4h2.7v1.1h-2.7v2.7h-1.2v-.5h-1.8v1.3h4.9v3.8h-1.2v-.5h-3.7c0 .4-.1.9-.1 1.2h5.1v1h-5.2c0 .5-.1.9-.3 1.2h6v1h-5.2c1.1 1.3 2.9 2 5.5 2.2-.4.4-.7.8-.9 1.3-2.9-.5-4.8-1.6-5.7-3.5h-.1c-.8 1.7-2.7 2.9-5.9 3.6-.2-.4-.6-.8-.9-1.1 2.8-.6 4.6-1.4 5.4-2.5h-4.8v-1h5.3c.1-.3.2-.7.2-1.2h-4.9v-1h5c0-.4 0-.8.1-1.2h-3.6v.5h-1.2v-3.8h4.9v-1.3h-1.8v.5h-1.1v-2.7h-2.6v-1.1h2.6v-1.4h1.2v1.4h4.7v-1.4zm-6.7 8.4h3.6c0-.4 0-.9 0-1.4h-3.6zm1.9-4.7h4.7v-1.2h-4.7zm6.7 3.3h-3.7v1.4h3.7z" fill="#fcfafa"/><path d="m384.7 21.4h1.3v2.2h2.8v-2.2h1.3v2.2h4.1v9.1h1.7v1.3h-16.9v-1.3h1.7v-9.1h4.1v-2.2zm.3 13.2.7 1.2c-1.8.9-3.8 1.9-6 2.9-.2-.4-.5-.8-.8-1.3 2.4-1 4.4-2 6.1-2.8zm-3.1-6.5h2.8v-3.2h-2.8zm0 4.6h2.8v-3.3h-2.8v3.2zm4.1-4.6h2.8v-3.2h-2.8zm0 4.6h2.8v-3.3h-2.8zm3.6 1.9c2.1.9 4.1 1.8 6.1 2.7l-.7 1.3c-2.2-1.1-4.2-2-6.1-2.9zm3.3-9.7h-2.8v3.2h2.8zm-2.8 7.8h2.8v-3.3h-2.8z" fill="#fcfafa"/></svg>