<svg enable-background="new 0 0 400 400" viewBox="0 0 400 400" xmlns="http://www.w3.org/2000/svg"><g fill="#fafbfc"><path d="m346.9 398 5.4-7.3h-5.2v-.6h5.9v.6l-5.4 7.2h5.5l-.1.6h-6.2v-.5z"/><path d="m354.7 390.1h2.8c2.3 0 3.9 1.6 3.9 4.1s-1.6 4.3-3.9 4.3h-2.8zm.6 7.8h2c2.2 0 3.3-1.6 3.3-3.6 0-1.8-1-3.6-3.3-3.6h-2z"/><path d="m363.9 390.1v8.4h-.6v-8.4z"/><path d="m372.5 396.3c-.4 1.3-1.4 2.3-3.2 2.3-2.4 0-3.7-1.9-3.7-4.3 0-2.3 1.2-4.3 3.7-4.3 1.8 0 2.9 1 3.2 2.4h-.6c-.4-1.1-1.1-1.8-2.5-1.8-2.1 0-3 1.9-3 3.7s.9 3.7 3 3.7c1.4 0 2.1-.7 2.5-1.7z"/><path d="m373.8 398.5v-1.5h.6v1.5z"/><path d="m376.2 398.5v-8.4h1c1.3 2 4.4 6.7 4.9 7.6-.1-1.2-.1-2.4-.1-3.8v-3.8h.7v8.4h-.9c-1.2-1.9-4.4-6.8-5-7.7.1 1.1 0 2.3 0 3.9v3.9h-.6z"/><path d="m390 394.4h-4.3v3.5h4.7l-.1.6h-5.2v-8.4h5.1v.6h-4.5v3.1h4.3z"/><path d="m394.2 390.7h-2.8v-.6h6.3v.6h-2.8v7.8h-.7z"/></g><path d="m229.6 293.93c6.26 1.12 12.53 2.22 18.78 3.37 6.85 1.26 13.66 2.78 20.54 3.81 6.99 1.05 9.68-.77 9.8-7.5.6-31.6 1.01-63.2 1.24-94.81.12-16.49-.23-32.99-.39-49.48-.01-1.3-.21-2.6-.37-4.42-8.84.84-17.43 1.53-25.98 2.49-6.1.68-12.16 1.8-18.25 2.57-9.45 1.19-18.81-3.74-21.48-11.96 21.82-2.9 43.49-5.77 66.35-8.8-.97-18.69-1.69-36.59-2.97-54.46-.29-4-2.72-7.81-3.72-11.82-1.25-4.97 1.16-8.06 5.96-6.77 6.14 1.66 12.3 4 17.77 7.21 5.02 2.95 5.78 8.14 4.59 14.08-1.95 9.74-3.31 19.62-4.31 29.51-.62 6.06-.11 12.24-.11 18.85 3.97-.28 8.19-.81 12.41-.83 10.69-.03 18.47 5.94 25.26 13.25 3.2 3.44 1.25 6.94-3.98 7-9.31.11-18.64-.3-27.95-.48-2.11-.04-4.22-.01-6.69-.01 0 13.55-.33 26.84.07 40.12.81 26.93 2 53.86 3.06 80.78.59 15.12 1.61 30.24 1.7 45.36.05 9.01-2.11 17.82-7.21 25.57-3.27 4.97-5.83 5.48-10.74 2.12-1.91-1.31-3.92-2.71-5.31-4.51-10.45-13.46-24.49-22.37-38.74-31.05-3.48-2.12-6.74-4.58-10.11-6.88.25-.76.52-1.53.78-2.31z" fill="#010000"/><path d="m97.59 169.79c-.07.96.05 2.02-.26 2.92-.6 1.7-1.6 4.76-2.18 4.71-2.07-.2-5.13-.96-5.84-2.44-2.55-5.32-4.71-10.91-6.24-16.6-2.71-10.08-4.67-20.36-7.32-30.46-.9-3.43-2.95-6.55-4.78-10.46 14.03-.88 27.8-1.73 42.71-2.66-1.93-7.65-3.68-14.57-5.49-21.73-10.36 2.49-17.42-1.53-23.33-8.33-.8-.92-1.14-2.25-1.7-3.39 1.14-.5 2.25-1.32 3.42-1.44 24.29-2.39 48.59-4.71 72.89-7.03 4.63-.44 9.26-.85 13.89-1.28 6.95-.64 12.2 2.64 16.64 7.48 1.02 1.11 1.37 2.83 2.03 4.27-1.42.6-2.8 1.56-4.27 1.74-9.54 1.18-19.1 2.19-30.25 3.43 7.55 5.01 11.17 10.87 7.36 19.75 6.87-.69 12.83-.82 18.57-2 5.34-1.1 9.94-.24 14.15 2.85 3.88 2.84 7.68 5.83 11.25 9.05 2.95 2.66 3.05 5.98.12 8.73-5.49 5.16-7.65 11.87-9.64 18.8-2.21 7.66-4.44 15.32-7.15 22.81-2.83 7.82-7.31 8.73-12.68 2.41-2.71-3.19-5.4-4.17-9.35-3.86-21.36 1.67-42.74 3.25-64.12 4.61-2.62.14-5.31-1.15-8.43-1.88zm31.33-47.38v36.95c7.36-1.06 13.81-1.98 20.31-2.92 0-12.08 0-23.78 0-35.74-7.1.6-13.82 1.17-20.31 1.71zm32.22 31.84c4.87.65 9.55.24 13.18 2 4.81 2.33 6.6.38 7.48-3.43 1.33-5.79 2.53-11.69 2.96-17.6 1.11-15.44-1.3-17.62-16.82-15.95-1.29.14-3.32 1.8-3.46 2.94-1.31 10.67-2.28 21.38-3.34 32.04zm-43.35 6.28c-1.26-12.25-2.5-24.28-3.77-36.49-7.4.84-13.93 1.59-20.75 2.37 1.44 12.36 2.85 24.4 4.29 36.73 6.84-.89 13.36-1.73 20.23-2.61zm1.29-68.33c10.14 4.69 7.96 13.1 8.65 20.71 7.7-.93 14.84-1.8 22.96-2.78-.99-6.4-1.75-12.26-2.93-18.05-.23-1.12-2.17-2.78-3.2-2.69-7.92.66-15.8 1.69-25.48 2.81z" fill="#010000"/><path d="m130.23 234.4c-13.11 1.25-25.32 2.41-37.52 3.57-8.18.78-17.4-4.26-21.85-12.46 2.74-.54 5.22-1.27 7.75-1.48 21.86-1.79 43.75-3.3 65.59-5.26 13.22-1.19 26.45-2.61 39.56-4.69 9.34-1.48 16.5 2.43 23.48 7.36 1.17.83 2.24 3.58 1.72 4.59-.73 1.42-2.95 2.74-4.63 2.89-10.1.91-20.22 1.48-30.34 2.14-8.76.57-17.53 1.09-27.13 1.69 5.74 6.85 2.19 14.2 2.25 21.26.17 21.15.09 42.29-.01 63.44-.01 2.62-.46 5.32-1.22 7.83-1.37 4.5-4.89 5.52-7.74 1.93-5.81-7.33-8.92-15.79-8.88-25.31.07-16.13.12-32.27-.02-48.4-.05-6.13-.63-12.25-1.01-19.1z" fill="#010000"/><path d="m99.83 191.24c4.29-.5 7.38-.89 10.47-1.22 15.15-1.62 30.31-3.12 45.44-4.89 9.02-1.05 19.12 4.15 22.3 12.71-4.01.62-7.8 1.37-11.63 1.76-15.33 1.58-30.65 3.16-46 4.51-7.39.65-13.11-2.92-17.81-8.29-.92-1.03-1.47-2.39-2.77-4.58z" fill="#010000"/><path d="m204.53 287.85c-.53 2.91-.48 6.12-1.77 8.65s-3.54 5.36-6.03 6.3c-3.53 1.33-6.17-1.49-7.91-4.58-1.87-3.32-3.92-6.58-5.38-10.08-4.32-10.41-8.41-20.92-12.54-31.4-.48-1.22-.98-2.56-.93-3.82.06-1.53.69-3.04 1.08-4.56 1.5.44 3.3.5 4.45 1.39 9.51 7.32 18.74 15.02 24.94 25.5 2.18 3.69 3.28 8.02 4.88 12.06-.26.18-.52.36-.79.54z" fill="#010000"/><path d="m64.64 307.41c1.13-1.7 2.19-3.44 3.39-5.1 8.76-12.12 17.71-24.17 21.22-39.11.7-2.99.94-6.2.75-9.26-.2-3.25 1.07-4.21 4-4.01 5.01.34 16.68 9.52 17.51 14.3.29 1.68-.44 4.02-1.55 5.37-10.92 13.22-22.05 26.26-36.64 35.7-2.33 1.51-5.07 2.36-7.63 3.51-.35-.46-.7-.93-1.05-1.4z" fill="#010000"/><path d="m256.39 199.03c-.32 2.12-.19 4.46-1.09 6.3-1.05 2.16-2.82 5.23-4.6 5.46-2.49.33-6.26-.82-7.76-2.7-4.21-5.29-7.82-11.14-11.15-17.05-3.42-6.07-6.34-12.42-9.23-18.77-.6-1.31-.07-3.13-.06-4.72 1.55.03 3.46-.52 4.59.18 7.3 4.57 14.62 9.16 21.57 14.24 5.56 4.09 8.03 10.01 7.73 17.06z" fill="#010000"/></svg>