<svg enable-background="new 0 0 400 400" viewBox="0 0 400 400" xmlns="http://www.w3.org/2000/svg"><g fill="#fafbfc"><path d="m346.9 398 5.4-7.3h-5.2v-.6h5.9v.6l-5.4 7.2h5.5l-.1.6h-6.2v-.5z"/><path d="m354.7 390.1h2.8c2.3 0 3.9 1.6 3.9 4.1s-1.6 4.3-3.9 4.3h-2.8zm.6 7.8h2c2.2 0 3.3-1.6 3.3-3.6 0-1.8-1-3.6-3.3-3.6h-2z"/><path d="m363.9 390.1v8.4h-.6v-8.4z"/><path d="m372.5 396.3c-.4 1.3-1.4 2.3-3.2 2.3-2.4 0-3.7-1.9-3.7-4.3 0-2.3 1.2-4.3 3.7-4.3 1.8 0 2.9 1 3.2 2.4h-.6c-.4-1.1-1.1-1.8-2.5-1.8-2.1 0-3 1.9-3 3.7s.9 3.7 3 3.7c1.4 0 2.1-.7 2.5-1.7z"/><path d="m373.8 398.5v-1.5h.6v1.5z"/><path d="m376.2 398.5v-8.4h1c1.3 2 4.4 6.7 4.9 7.6-.1-1.2-.1-2.4-.1-3.8v-3.8h.7v8.4h-.9c-1.2-1.9-4.4-6.8-5-7.7.1 1.1 0 2.3 0 3.9v3.9h-.6z"/><path d="m390 394.4h-4.3v3.5h4.7l-.1.6h-5.2v-8.4h5.1v.6h-4.5v3.1h4.3z"/><path d="m394.2 390.7h-2.8v-.6h6.3v.6h-2.8v7.8h-.7z"/></g><path d="m257.31 179.63c-7.58 1.74-13.95 3.2-20.94 4.81 1.22 1.12 1.89 1.8 2.63 2.4 6.48 5.21 7 7.99 4.75 15.95-4.74 16.76-8.46 33.83-13.75 50.41-8.44 26.44-21.84 49.92-44.56 67-2.07 1.55-4.71 2.34-7.7 2.85 24.83-41.77 45.86-84.39 45.06-135.17-4.31 1.35-8.16 2.61-12.03 3.74-4.74 1.39-11.09-2.62-15.23-9.08-2.9-4.52-.73-8.11 2.49-10.38 21.89-15.48 30-39.63 39.78-62.67 4.23-9.95 7.57-20.2 4.28-31.39-.99-3.38 1.39-5.99 4.77-4.99 7.25 2.14 14.46 4.65 21.31 7.83 3.86 1.79 3.26 5.57 1.27 9.07-13.89 24.4-27.72 48.85-41.55 73.28-.39.68-.63 1.45-1.31 3.04 21.16-1.56 41.6-3.08 62.61-4.63-.62-1.35-.93-2.4-1.52-3.25-5.6-8.07-11.26-16.09-16.85-24.15-1.04-1.49-2.39-3.06-2.63-4.74-.28-1.95.49-4.06.8-6.09 1.6.54 3.42.75 4.76 1.68 9.73 6.69 19.35 13.52 29.02 20.29 10.82 7.57 14.29 18.31 13.23 30.92-.32 3.77-1.34 7.33-5.6 8.55-4.18 1.2-7.17-1.26-8.54-4.43-3.32-7.71-8.35-9.18-15.92-6.49-4.31 1.53-9.08 1.77-13.64 2.63-.29.05-.52.39-.52.39 3.74 3.1 7.79 5.97 11.25 9.42 4.05 4.04 4.5 8.88 3.38 14.69-3.53 18.38-6.45 36.88-9.33 55.37-.97 6.22-1.44 12.57-1.56 18.87-.13 6.63-.29 13.4.89 19.86.98 5.37 4.11 10.01 10.22 11.8 12.28 3.59 24.37 2.12 36.29-1.3 2.29-.66 4.8-3.24 5.73-5.53 3.73-9.2 6.86-18.65 10.24-27.99.88-2.43 1.85-4.83 3.33-8.68 1.75 2.77 3.17 4.17 3.62 5.84 3.32 12.33 6.49 24.69 9.61 37.07 2.06 8.15 1.03 11.12-7.03 13.51-9.31 2.76-18.96 5.21-28.59 5.86-10.69.72-21.86.73-32.23-1.6-17.26-3.88-26.11-14.55-26.42-31.16-.55-29.73.46-59.49.16-89.24-.07-7.92-2.56-15.81-4.03-24.17z" fill="#010000"/><path d="m113.6 128.95c-7.03 1.96-13.69 3.91-20.39 5.68-8.04 2.11-15.57-5.03-14.46-13.28 1.45-10.82 2.68-21.66 3.77-32.52.26-2.59-.48-5.28-.64-7.92-.25-4.33 1.77-6.15 5.98-5.48 8.09 1.28 14.06 9.92 12.36 17.87-1.32 6.16-2.63 12.32-3.89 18.49-.65 3.17-.31 5.25 3.97 4.38 5.52-1.12 11.15-1.73 16.73-2.57 2.81-.42 4.46-1.65 5.35-4.76 4.59-16.12 5.77-32.28 1.75-48.67-1.13-4.6.62-6.95 4.98-5.52 6.21 2.04 12.13 5.03 18.01 7.96.92.46 1.57 2.82 1.32 4.1-2.88 14.28-5.96 28.52-9.14 43.52 7.98-.91 15.55-1.57 23.06-2.69 10.61-1.58 11.04-1.75 10.44-12.71-.43-7.87-2.3-15.65-3.41-23.49-.24-1.7-.63-4.54.14-4.98 1.39-.81 3.97-.89 5.4-.09 5.64 3.15 11.22 6.49 16.37 10.36 1.58 1.19 2.68 4.48 2.32 6.51-2.26 12.88-4.85 25.71-7.64 38.49-1.28 5.85-3.02 11.71-10.22 14.68-2.23-5.68-4.42-11.3-6.84-17.48-7.25 1.22-14.53 3.1-21.9 3.54-9.88.59-15.16 5.23-19.6 14.11-3.26 6.52-10.03 11.97-16.4 16.09-8.25 5.33-17.08 10.6-27.77 9.61-.91-.08-1.81-.17-3.78-.35 13.48-9.55 27.37-17.2 34.13-32.88z" fill="#010000"/><path d="m141.66 168.09c7.04-1.25 14.08-2.29 21.03-3.78 9.24-1.97 16.57 2.37 23.68 7 3.09 2.01 2.21 5.78-1.56 6.72-4.48 1.11-9.15 1.46-13.76 1.99-11.71 1.36-23.42 2.84-35.17 3.82-3.38.28-4.34 1.86-5.45 4.5-8.48 20.09-19.06 38.87-35.6 53.56-12.67 11.25-26.96 19.99-42.91 25.87-1.97.72-4.21.69-6.33 1.01-.23-.53-.45-1.05-.68-1.58 3.08-2.58 6.11-5.23 9.26-7.72 18.37-14.54 35.62-30.14 47.28-50.88 3.72-6.61 6.92-13.5 11.05-21.6-11.07 1.73-20.54 2.88-29.87 4.76-9.71 1.95-16.07-3.46-22.53-9.06-.21-.18-.25-.61-.29-.93-.03-.32.04-.65.13-1.81 6.78-.98 13.74-2.04 20.72-2.99 10.53-1.43 21.07-2.83 31.62-4.12 2.7-.33 3.7-1.49 3.57-4.21-.18-3.82-.06-7.66-.02-11.5.03-2.99 1.26-4.96 4.56-4.32 7.74 1.5 14.13 5.58 19.7 10.97.93.87 1 2.62 1.57 4.3z" fill="#010000"/><path d="m82.6 265.58c14.44-3.53 27.68-6.77 41.8-10.23-1.3-11.44-2.43-22.63-3.9-33.77-.77-5.83 1.28-8.06 6.79-6.15 3.26 1.13 6.37 2.81 9.37 4.55 6.75 3.92 8.87 6.11 6.2 14.4-1.62 5.05-1.22 10.74-1.78 16.67 10.18-3.05 19.65-3.71 28.77 1.01 2.33 1.2 4.6 2.74 6.43 4.59 1.26 1.28 2.83 4.15 2.29 4.92-1.16 1.64-3.52 3.14-5.53 3.35-9.25.98-18.56 1.48-27.84 2.19-1.29.1-2.57.39-4.21.64 0 16.53.36 32.85-.16 49.14-.24 7.3.61 15-3.81 21.77-2.81 4.3-4.3 4.73-7 .37-4.96-8-7.55-16.23-6.53-26.3 1.38-13.67.34-27.58.34-42.33-14.08 4.15-27.93 7.76-41.23-4.82z" fill="#010000"/><path d="m195.11 235.08c-1.6 2.04-2.83 4.82-4.93 5.88-1.75.88-5.15.55-6.72-.66-6.31-4.86-12.09-10.39-18.26-15.44-7.07-5.79-14.35-11.33-21.53-16.99-1.17-.92-2.76-1.72-3.29-2.95-.8-1.84-.83-4.02-1.19-6.05 1.69-.12 3.52-.72 5.05-.27 10.81 3.17 21.65 6.29 32.3 9.94 10.42 3.57 17.63 14.57 18.57 26.54z" fill="#010000"/></svg>