<svg enable-background="new 0 0 400 400" viewBox="0 0 400 400" xmlns="http://www.w3.org/2000/svg"><g fill="#fafbfc"><path d="m346.9 398 5.4-7.3h-5.2v-.6h5.9v.6l-5.4 7.2h5.5l-.1.6h-6.2v-.5z"/><path d="m354.7 390.1h2.8c2.3 0 3.9 1.6 3.9 4.1s-1.6 4.3-3.9 4.3h-2.8zm.6 7.8h2c2.2 0 3.3-1.6 3.3-3.6 0-1.8-1-3.6-3.3-3.6h-2z"/><path d="m363.9 390.1v8.4h-.6v-8.4z"/><path d="m372.5 396.3c-.4 1.3-1.4 2.3-3.2 2.3-2.4 0-3.7-1.9-3.7-4.3 0-2.3 1.2-4.3 3.7-4.3 1.8 0 2.9 1 3.2 2.4h-.6c-.4-1.1-1.1-1.8-2.5-1.8-2.1 0-3 1.9-3 3.7s.9 3.7 3 3.7c1.4 0 2.1-.7 2.5-1.7z"/><path d="m373.8 398.5v-1.5h.6v1.5z"/><path d="m376.2 398.5v-8.4h1c1.3 2 4.4 6.7 4.9 7.6-.1-1.2-.1-2.4-.1-3.8v-3.8h.7v8.4h-.9c-1.2-1.9-4.4-6.8-5-7.7.1 1.1 0 2.3 0 3.9v3.9h-.6z"/><path d="m390 394.4h-4.3v3.5h4.7l-.1.6h-5.2v-8.4h5.1v.6h-4.5v3.1h4.3z"/><path d="m394.2 390.7h-2.8v-.6h6.3v.6h-2.8v7.8h-.7z"/></g><path d="m273.3 206.41c11.05 6.17 7.46 13.08 3.26 21.24-8.11 15.79-14.68 32.38-22.8 48.17-2.77 5.38-2.26 7.97 1.83 11.96 21.33 20.8 45.04 37.79 73.22 48.17 4.7 1.73 9.05 4.39 13.57 6.62-.08.77-.16 1.55-.23 2.32-4.55 1.05-9.05 2.74-13.64 3.02-11.78.7-23.62.51-35.41 1.18-7.49.43-13.6-2.19-18.18-7.55-9.29-10.86-18.1-22.13-27.04-33.28-2.58-3.22-4.96-6.61-7.85-10.49-20.29 28.2-48.16 42.87-81.81 47.19-3.33.43-6.82-.44-10.24-.71-.09-.69-.19-1.37-.28-2.06 4.63-1.96 9.17-4.15 13.89-5.83 20.46-7.25 38.4-18.37 52.79-34.71 4.92-5.59 9.03-11.92 13.28-18.07.73-1.06.94-3.42.26-4.36-9.96-13.71-20.02-27.34-30.28-40.82-1.87-2.46-4.84-4.05-7.05-6.29-1.15-1.17-2.71-3.2-2.35-4.25.44-1.29 2.59-2.48 4.18-2.81 6.38-1.29 11.76.55 15.91 5.77 8.9 11.2 17.85 22.37 26.78 33.54.51.64 1.07 1.25 2.08 2.41 9.91-18.47 16.54-37.39 16.05-59.07-6.96.56-13.98 1.06-20.98 1.71-13.9 1.27-27.8 2.48-41.67 3.99-9.45 1.03-15.07-5.11-20.94-10.68-2.16-2.05-.57-3.62 2-3.88 6.6-.68 13.22-1.3 19.83-1.91 14.21-1.32 28.42-2.61 43-3.95-2.87-7.28-5.57-14.04-8.19-20.84-.59-1.54-1.04-3.16-1.34-4.78-.61-3.36 1.57-4.79 4-3.4 7.31 4.17 14.4 8.75 21.31 13.57 1.26.88 1.53 3.56 1.75 5.47.29 2.42.07 4.91.07 7.79 9.77-1.04 18.84-1.74 27.83-3.03 9.22-1.32 17.13 1.6 24.3 6.8 1.96 1.43 2.8 4.41 4.15 6.68-2.26.98-4.47 2.63-6.8 2.83-8.91.75-17.87 1.04-26.81 1.5-.48.27-.96.55-1.45.84z" fill="#010000"/><path d="m143.7 272.85c-3.4-7.05-6.1-12.65-9.18-19.05-3.34.81-7.5 1.61-11.54 2.83-14.92 4.52-29.82 9.12-44.68 13.8-7.7 2.42-16.72-3.43-16.55-11.62.2-9.61 2.02-19.21 1.98-28.8-.06-14.28-1.02-28.56-1.86-42.83-.17-2.9-1.37-5.78-2.29-8.6-1.53-4.69.15-7.05 5.09-6.91 9.45.27 16.65 7.53 16.37 16.88-.56 18.62-1.35 37.23-1.96 55.85-.2 5.95.89 6.74 6.67 5.4 3.23-.75 6.44-1.77 9.71-2.17 4.08-.49 5.33-2.26 5.24-6.46-.44-20.3-.54-40.61-.69-60.92-.12-17.16.08-34.32-.27-51.48-.2-10.13-1.14-20.27-5.47-29.7-1.21-2.64-1.69-5.52.98-7.05 2.01-1.15 5.44-2 7.15-1.04 5.27 2.95 10.44 6.4 14.8 10.54 2.06 1.96 3.1 5.98 3.04 9.03-.55 26.12-1.43 52.22-2.26 78.33-.55 17.12-1.18 34.24-1.75 51.36-.03.8.19 1.6.36 2.95 6.55-1.16 12.92-2.09 19.17-3.58 1.01-.24 1.93-2.91 2.04-4.51.55-7.79.99-15.6 1.14-23.41.17-8.99-.2-18 .04-26.99.21-7.5-1.31-14.47-4.52-21.22-.76-1.6-.47-3.7-.67-5.57 2-.13 4.34-.99 5.93-.25 5.99 2.77 11.88 5.82 17.52 9.24 3.02 1.83 3.68 4.87 2.85 8.67-1.62 7.43-3.15 14.98-3.61 22.55-.89 14.44-.56 28.96-1.63 43.38-.57 7.81-2.63 15.58-4.73 23.17-.69 2.66-3.57 4.7-6.42 8.18z" fill="#010000"/><path d="m201.44 163.18c-.51 2.2-.94 3.96-1.32 5.74-.93 4.41-2.81 5.61-6.42 3.07-2.39-1.68-4.74-4.52-5.43-7.27-1.9-7.53-3.15-15.24-4.24-22.95-2.5-17.71-4.63-35.48-7.23-53.18-.54-3.66-2.46-7.12-4.14-11.75 2.72-.24 5.62-1.43 7.51-.52 13.09 6.3 26.15 2.81 39.3.65 17.02-2.8 34.1-5.22 51.11-8.08 11.23-1.89 27.57 4.72 33.45 14.66 1.21 2.05 1.16 6.56-.28 8.17-9.36 10.47-10.04 23.43-11.79 36.28-1.59 11.65-3.42 23.33-6.21 34.74-3.01 12.26-9.07 13.83-17.24 4.18-5.18-6.12-9.99-8.25-17.98-7.1-13.29 1.91-26.79 2.36-40.21 3.33-2.8.21-5.63.03-8.88.03zm-2.21-45.44c1.86 0 3.21.2 4.47-.03 11.25-2.08 22.45-4.42 33.72-6.31 11.99-2.01 24.08-5.3 36.81 1.42-.39-6.78-.32-12.9-1.19-18.89-1.15-7.88-2.7-9.34-10.42-8.76-15.38 1.16-30.72 2.9-46.06 4.48-6.38.66-12.74 1.54-19.71 2.39.82 8.83 1.58 17.04 2.38 25.7zm74.34 5.06c-25.17 1.71-49.12 3.34-73.22 4.97.45 7.9.91 15.79 1.38 24.08 11.9-1.87 23.32-3.75 34.78-5.45 10.86-1.62 21.91-5.49 33.06 3.55 1.39-9.46 2.61-17.74 4-27.15z" fill="#010000"/></svg>