<svg enable-background="new 0 0 400 400" viewBox="0 0 400 400" xmlns="http://www.w3.org/2000/svg"><path d="m222.52 103.92c9.33-1.75 18.68-3.19 27.88-5.31 7.42-1.71 13.83.16 19.88 4.04 3.91 2.51 7.59 5.39 11.31 8.19 4.92 3.71 5.34 6.21 2.08 11.37-1.23 1.95-2.44 3.91-4.28 6.87 5.38-.56 9.98-.5 14.29-1.59 12.33-3.13 22.53.92 31.88 8.51.76.62 1.55 1.37 1.97 2.23.82 1.69 2.44 4.31 1.84 5.1-1.13 1.46-3.53 2.3-5.53 2.64-2.6.43-5.32.11-7.98.11-13.33 0-26.67.08-40-.07-2.59-.03-3.85.77-4.64 3.2-1.55 4.72-3.37 9.35-5.13 14.15 1.91 1.72 3.94 3.22 5.53 5.1 1.07 1.27 1.53 3.07 2.26 4.63-1.56.69-3.07 1.82-4.68 2-6.93.76-13.89 1.24-22.11 1.93 17.77 11.5 35.16 21.29 54.38 26.53 18.97 5.17 38.48 8.38 57.75 12.44.04.87.09 1.74.13 2.62-6.95 2.44-13.72 5.78-20.87 7.13-11.53 2.17-23.28 3.34-34.99 4.33-6.68.57-12.76-1.96-17.86-6.45-16.24-14.3-32.45-28.63-48.75-42.86-1.38-1.2-3.37-2.58-4.99-2.47-11.11.7-22.2 1.72-33.28 2.82-1.21.12-2.67 1.16-3.39 2.2-6.11 8.84-12.07 17.78-18.35 27.09 2.16.26 5.06 1.23 7.77.86 20.88-2.88 41.71-6.09 62.58-8.98 2.34-.32 5.3-.04 7.2 1.17 5.84 3.71 11.51 7.78 16.85 12.18 3.43 2.83 3.79 6.93 1.75 10.92-4.66 9.1-4.75 18.97-4.43 28.74.47 14.45 1.65 28.87 2.41 43.31.54 10.14.52 20.32 1.41 30.42 1.2 13.66-5.14 24.43-12.41 34.93-2.01 2.9-4.89 3.34-7.85 1.2-1.75-1.26-3.42-2.64-5.03-4.09-10.25-9.26-20.47-18.54-30.69-27.83-.45-.41-.81-.94-.9-2.65 5.74.88 11.48 1.75 17.22 2.64 1.31.2 2.59.56 3.9.76 10.07 1.61 12.75.32 13.55-9.67.89-11.18.21-22.48.21-34.02-19.67.05-40.02 6-60.49 3.43-3.95 10.88-7.7 22.87-12.64 34.35-4.99 11.58-12.83 21.23-23.91 28.33 20.51-42.39 25.94-86.89 21.08-132.97-.32-3.01-2.05-5.88-3.24-9.16-16.39 11.61-32.29 23.12-52.69 24.11-.33-.55-.66-1.1-.99-1.65 1.38-1.15 2.69-2.41 4.17-3.43 10.95-7.52 22.26-14.57 32.8-22.62 9.09-6.94 14.94-16.8 20.68-27.24-3.87 0-7.42-.32-10.9.07-6.39.73-10.07-2.18-12.4-8.75 3.3-.61 6.39-1.31 9.52-1.73 5.92-.81 11.89-1.32 17.78-2.27 1.34-.22 3.07-1.46 3.59-2.68 2-4.7 3.58-9.58 5.75-15.56-8.45 1.52-15.85 3.06-23.32 4.14-7.81 1.13-15.72 2.67-23.53 2.36-4.74-.19-9.36-3.54-14.41-5.63-1.3 8.27-2.63 17.33-4.17 26.35-7.12 41.79-19.24 81.99-42.12 117.94-8.64 13.58-20.83 24.93-31.57 37.14-1.31 1.49-3.71 2.01-5.61 2.98-.4-.4-.8-.79-1.2-1.19 1.07-2.3 1.83-4.83 3.27-6.88 23.55-33.71 38.12-71.46 48.75-110.74 5.79-21.4 10.71-43.21 13.6-65.16 2.67-20.33 5.15-40.97 2.73-61.65-.4-3.44-1.34-6.84-2.25-10.2-1.33-4.9-.16-6.8 4.91-7.08 12.12-.69 24.24-1.21 36.36-1.92 16.41-.97 32.81-2.06 50.13-3.15-2.34-6.11-4.44-11.57-6.52-17.05-1.71-4.5-3.62-8.95-4.97-13.55-1.04-3.54 1.47-6.15 4.4-4.59 7.28 3.89 14.35 8.19 21.37 12.53 4.7 2.91 5.32 7.67 5.06 12.72-.14 2.61-.02 5.24-.02 8.42 10.78-1.26 21.3-2.48 31.82-3.72 7.75-.92 15.54-1.63 23.25-2.86 9.8-1.57 17.39 3.25 24.91 8.17 1.44.94 2.96 4.28 2.37 5.24-1.1 1.79-3.6 3.43-5.73 3.75-5.24.79-10.6.81-15.91 1.13-23.57 1.39-47.16 2.56-70.72 4.23-23.87 1.69-47.72 3.83-71.56 5.98-1.21.11-3.01 2.01-3.24 3.3-1.68 9.64-3.18 19.33-4.45 29.04-.94 7.21-1.45 14.47-2.21 22.34 9.24-.78 17.95-1.48 26.64-2.25 10.26-.91 20.51-2.08 30.79-2.74 4.78-.3 7.91-1.5 8.12-6.93.16-4.11.75-8.19 1.23-13.12-4.7.61-8.88 1.4-13.1 1.63-6.96.39-13.95.75-20.89.42-2.77-.13-5.6-1.92-8.09-3.45-1.15-.7-1.56-2.59-2.31-3.95 1.26-.61 2.48-1.62 3.8-1.77 11.89-1.35 23.79-2.55 35.7-3.79 1.44-.15 2.89-.31 4.67-.51-.59-4.8-.99-9.23-1.72-13.62-.75-4.5 1.41-6.16 5.48-6.17 1.66-.01 3.55-.27 4.94.41 7.24 3.54 14.55 7.16 19.32 14.85zm-31.63 177.32c7.4-.65 14.13-1.5 20.87-1.77 13.24-.53 26.23-6.54 40.03-1.42-.43-8.88-.83-17.3-1.28-26.48-18.97 1.67-37.68 3.32-56.87 5.02-.83 7.46-1.74 15.63-2.75 24.65zm59.01-39.99c0-1.88.09-3.04-.02-4.19-.39-4.13-.73-8.27-1.3-12.38-.78-5.56-3.36-7.91-9.1-7.41-13.55 1.18-27.08 2.68-40.6 4.2-1.2.14-3.16 1.3-3.26 2.16-.76 6.5-1.15 13.04-1.71 20.25 10.55-1.23 20.06-2.43 29.59-3.43 8.58-.89 17.2-4.64 26.4.8zm-37.72-104.43c2.05-.09 3.83-.09 5.59-.27 8.56-.88 17.1-1.95 25.68-2.67 11.92-1.01 11.8-.9 11.62-12.9-.06-4.29-1.8-6.19-5.94-5.93-9.91.63-19.82 1.25-29.71 2.09-1.11.09-2.77 1.34-3.06 2.36-1.55 5.55-2.75 11.2-4.18 17.32zm40.29 10.03c-14.12 1.08-28.28 2.15-42.44 3.29-.66.05-1.63.66-1.83 1.24-1.88 5.23-3.63 10.5-5.67 16.51 12.21-1.61 23.49-3.05 34.74-4.62 4.19-.59 9.77-.15 12.12-2.63 2.62-2.77 2.28-8.33 3.22-12.68.04-.16-.04-.34-.14-1.11z" fill="#010102"/><g fill="#fcfafa"><path d="m378.6 9.2.8-1c.9.7 1.9 1.4 2.9 2.3l-.9 1.1c-1.1-.9-2-1.7-2.8-2.4zm.5 10.7c.9-2.1 1.6-4.3 2.3-6.7.4.2.8.4 1.3.6-.7 3.1-1.5 4.3-2.2 6.6zm.4-15.2.9-.9c1 .8 2 1.6 2.8 2.4l-1 1c-1-.9-1.9-1.8-2.7-2.5zm12.5-1.3h1.2v1.4h2.7v1.1h-2.7v2.7h-1.2v-.5h-1.8v1.3h4.9v3.8h-1.2v-.5h-3.7c0 .4-.1.9-.1 1.2h5.1v1h-5.2c0 .5-.1.9-.3 1.2h6v1h-5.2c1.1 1.3 2.9 2 5.5 2.2-.4.4-.7.8-.9 1.3-2.9-.5-4.8-1.6-5.7-3.5h-.1c-.8 1.7-2.7 2.9-5.9 3.6-.2-.4-.6-.8-.9-1.1 2.8-.6 4.6-1.4 5.4-2.5h-4.8v-1h5.3c.1-.3.2-.7.2-1.2h-4.9v-1h5c0-.4 0-.8.1-1.2h-3.6v.5h-1.2v-3.8h4.9v-1.3h-1.8v.5h-1.1v-2.7h-2.6v-1.1h2.6v-1.4h1.2v1.4h4.7v-1.4zm-6.7 8.4h3.6c0-.4 0-.9 0-1.4h-3.6zm1.9-4.7h4.7v-1.2h-4.7zm6.7 3.3h-3.7v1.4h3.7z"/><path d="m384.7 21.4h1.3v2.2h2.8v-2.2h1.3v2.2h4.1v9.1h1.7v1.3h-16.9v-1.3h1.7v-9.1h4.1v-2.2zm.3 13.2.7 1.2c-1.8.9-3.8 1.9-6 2.9-.2-.4-.5-.8-.8-1.3 2.4-1 4.4-2 6.1-2.8zm-3.1-6.5h2.8v-3.2h-2.8zm0 4.6h2.8v-3.3h-2.8v3.2zm4.1-4.6h2.8v-3.2h-2.8zm0 4.6h2.8v-3.3h-2.8zm3.6 1.9c2.1.9 4.1 1.8 6.1 2.7l-.7 1.3c-2.2-1.1-4.2-2-6.1-2.9zm3.3-9.7h-2.8v3.2h2.8zm-2.8 7.8h2.8v-3.3h-2.8z"/></g></svg>