<svg enable-background="new 0 0 400 400" viewBox="0 0 400 400" xmlns="http://www.w3.org/2000/svg"><path d="m5.17 384 .55-.58c.85.61 1.65 1.24 2.4 1.87l-.59.64c-.83-.73-1.62-1.38-2.36-1.93m1.22 9.53-.82-.34c.71-1.76 1.37-3.64 1.98-5.63.24.13.5.25.76.36-.6 1.67-1.24 3.54-1.92 5.61m-.5-13.5.57-.54c.56.44 1.31 1.06 2.26 1.87l-.65.64c-.67-.66-1.4-1.32-2.18-1.97m3.25.46h2.24v-1.36h.77v1.36h4.57v-1.36h.76v1.36h2.28v.69h-2.28v1.84h-2.64v1.26h4.18v2.64h-4.21c0 .45-.02.86-.05 1.21h4.32v.69h-4.38c-.04.34-.1.75-.19 1.22h5.15v.69h-4.82c.87 1.19 2.51 1.92 4.93 2.19-.17.31-.3.57-.37.76-2.77-.49-4.52-1.41-5.26-2.76-.56 1.26-2.3 2.23-5.24 2.9-.12-.24-.26-.48-.43-.72 2.73-.55 4.38-1.34 4.96-2.38h-4.38v-.69h4.65c.1-.38.17-.79.21-1.22h-4.32v-.69h4.4c.03-.34.05-.75.05-1.21h-4.2v-2.64h4.23v-1.26h-2.69v-1.84h-2.24zm1.46 4.46v1.29h3.45c.01-.4.02-.57.01-.53v-.32-.45h-3.46zm1.55-2.59h4.57v-1.19h-4.57zm6.11 2.59h-3.42v.77c-.01.19-.01.37-.02.53h3.44z" fill="#fafbfc"/><path d="m32.63 379.16h.82v1.98h3.54v7.89h1.46v.78h-14.37v-.78h1.46v-7.89h3.54v-1.98h.82v1.98h2.73zm-3.49 11.48.5.73c-1.61.82-3.28 1.63-5 2.42-.13-.27-.28-.55-.44-.82 1.75-.73 3.4-1.5 4.94-2.33m-2.78-5.55h2.73v-3.18h-2.73zm0 3.95h2.73v-3.2h-2.73zm3.54-3.95h2.73v-3.18h-2.73zm0 3.95h2.73v-3.2h-2.73zm7.89 4.68c-1.84-.92-3.51-1.7-5.02-2.32l.45-.73c1.89.8 3.57 1.55 5.04 2.23zm-1.62-11.81h-2.73v3.18h2.73zm-2.73 7.13h2.73v-3.2h-2.73z" fill="#fafbfc"/><g fill="#000001"><path d="m251.21 267.32c0 11.04-.56 22.38.15 33.65.79 12.46 8.37 19.62 22.11 20.59 15.92 1.12 31.9.85 47.66-2.55 4.19-.9 7.11-2.92 8.01-7.11 2.32-10.85 4.47-21.73 6.66-32.6.16-.81-.13-1.84.28-2.45.93-1.41 2.16-2.62 3.26-3.91.92 1.34 2.46 2.6 2.68 4.05 1.49 10.02 2.56 20.1 4.07 30.11.74 4.91 2.15 9.71 3.23 14.57 1.52 6.87.36 9.92-6.36 11.7-8.13 2.15-16.52 3.87-24.89 4.5-12.92.97-25.92 1.19-38.89 1.07-5.89-.06-11.93-1.12-17.63-2.71-15.03-4.21-23.18-13.97-23.53-29.58-.51-23.26.05-46.54-.12-69.81-.08-10.56-.83-21.12-1.31-32.6-9.72 8.36-11.97 18.64-14.53 28.85-1.61 6.42-3.45 12.82-5.67 19.05-2.45 6.87-5.65 7.33-11.02 2.76-1.86-1.58-4.89-2.66-7.32-2.55-13.94.65-27.86 1.74-41.79 2.65-1.66.11-3.44.38-4.98-.06-3.8-1.1-6.08-.07-6.43 3.83-4.89 1.2-7.74-1.19-8.81-4.96-1.75-6.19-3.15-12.55-3.97-18.93-1.62-12.53-3.36-24.97-9.02-36.48-.39-.8-.17-1.91-.25-3.23 1.67-.11 3.15-.42 4.58-.26 19.21 2.08 38.03-2.02 56.99-3.67 9.74-.85 19.42-2.6 29.17-3.15 3.12-.18 6.68 1.73 9.51 3.51 3.89 2.46 7.28 5.71 10.9 8.64 2.3-4.91 3.81-5.49 8.64-3.28 1.21.55 2.68.98 3.46 1.93 4.68 5.7 10.86 4.64 16.83 3.72 15.23-2.35 30.37-5.42 45.66-7.21 4.89-.57 10.45 1.27 15.16 3.28 4.33 1.86 8.03 5.29 11.79 8.29 3.46 2.76 2.9 5.67.94 9.61-5.51 11.1-10.31 22.56-15.18 33.97-.36.83.77 2.48 1.49 3.56 1.85 2.75 3.86 5.39 5.8 8.08-3.1.72-6.16 1.86-9.29 2.09-19.05 1.42-38.12 2.71-57.19 3.86-3.36.18-6.79-.5-10.85-.82zm-104.46-21.43c11.02-1.19 21.7-2.48 32.41-3.46 7.4-.67 14.88-1.54 22.24-1.08 3.5.22 4.91-.94 5.32-3.35 1.61-9.62 3.25-19.26 4.07-28.97.55-6.52-1.3-8.08-7.79-7.94-11.12.25-22.23.74-33.34 1.36-8.56.48-17.11 1.3-25.95 1.99 1.01 13.8 2 27.28 3.04 41.45zm138.93 7.03c6.89-.8 12.96-1.39 18.98-2.31 1.17-.18 2.96-1.55 3.09-2.55 1.47-10.81 2.78-21.65 3.86-32.5.36-3.65-2-5.43-5.57-5.3-6.53.22-13.05.57-21.02.93 6.92 5.82 6.18 11.85 4.53 18.52-1.8 7.35-2.54 14.98-3.87 23.21zm-12.71-39.87c-4.7 0-8.65.17-12.57-.05-3.39-.19-4.79 1.37-5.16 4.5-.56 4.76-1.41 9.49-1.8 14.27-.7 8.64-1.15 17.31-1.73 26.39 7.67-1.24 14.31-2.31 21.23-3.43.36-14.25 2.11-28.21.03-41.68z"/><path d="m50.17 333.61c.9-2.07 1.57-4.29 2.75-6.19 20.15-32.47 31.83-68.16 40.03-105.17 7.19-32.43 10.62-65.25 9.61-98.48-.15-4.8-.54-9.62-1.24-14.38-.45-3.08-1.23-6.28-2.68-9-1.34-2.51-3.76-4.45-5.55-7.59 36.31-3.7 72.72-3.7 109.46-7.15-4.11-6.95-8.02-13.47-11.82-20.05-1.74-3.02-3.58-6.04-4.81-9.28-1.35-3.56.51-5.74 3.82-4.35 10.61 4.43 21.34 9.15 28.57 18.47 2.73 3.52 3.12 8.86 4.78 14.02 18.56-1.62 37.79-2.79 56.87-5.17 11.26-1.4 21.16.13 29.85 7.43 1.45 1.22 3.1 3.64 2.79 5.12-.31 1.47-2.9 3.4-4.59 3.5-9.29.55-18.62.37-27.92.87-27.72 1.48-55.44 3.15-83.16 4.77-17.26 1.01-34.52 2.06-51.78 3.12-6.79.42-13.57.92-20.53 1.4-3.86 18.25-3.52 36.69-4.71 55.02-3.26 50.4-13.19 99.17-40.03 142.91-6.29 10.25-15.08 18.97-22.92 28.24-1.32 1.56-3.62 2.3-5.47 3.42-.42-.5-.87-.99-1.32-1.48z"/><path d="m118.15 316.76c5.77-.66 10.79-1.37 15.84-1.78 9.77-.79 19.56-1.48 29.35-2.07 2.47-.15 3.65-.9 3.53-3.55-.16-3.46-.04-6.94-.04-10.77-11.34-.04-23.77 5.37-32.27-8.47 7.33-.83 13.93-1.58 20.35-2.31-4.19-8.32-8.33-16.53-13.01-25.81 8.18.17 13.25 3.86 18.09 7.68 6.1 4.82 4.02 11.21 2.61 17.36.3.09.62.3.91.25 4.85-.73 12 .21 14.08-2.59 4.99-6.76 8.11-15.09 10.99-23.14 1.85-5.17 3.69-6.92 8.77-4.68.91.4 1.8.88 2.63 1.42 9.54 6.17 9.67 8.26 1.12 15.42-3.65 3.05-7.21 6.19-10.46 10.25 5.35-.38 10.7-.99 16.05-1.06 5.46-.07 10.57 3.64 12.5 8.99-12.39 1.56-24.62 3.1-37.07 4.67-.4 4.57-.81 9.11-1.27 14.3 8.31-.87 16.06-1.25 23.64-2.6 7.49-1.34 13.83.65 19.65 4.91 1.42 1.04 2.07 3.14 3.07 4.76-1.64.82-3.22 2.22-4.91 2.36-13.73 1.16-27.48 2.08-42.16 3.13 0 6.65.42 13.3-.18 19.87-.3 3.31-2.46 6.44-3.79 9.66-2.19-2.67-5.39-5.01-6.37-8.07-2.04-6.32-2.9-13.02-4.37-20.18-8.98.78-18.83 1.71-28.7 2.48-7.74.59-13.16-2.32-18.58-10.43z"/><path d="m238.37 121.11c4.24.93 8.45 2.01 12.73 2.73 3.16.53 6.52 1.29 9.57.74 10.91-1.98 21.78-4.23 32.54-6.88 6.22-1.53 11.87-.87 17.25 2.24 4.02 2.32 7.88 4.95 11.7 7.59 3.72 2.57 3.45 5.68 1.66 9.57-4.15 9-7.82 18.23-11.73 27.35-1.36 3.17-.85 5.5 2.1 7.67 1.35.99 1.8 3.22 2.65 4.89-1.76.67-3.51 1.86-5.29 1.93-16.93.65-33.87 1.12-50.94 1.64-.36 1.03-.56 2.01-1.02 2.84-.86 1.56-2.36 4.45-2.72 4.32-2.2-.77-5.29-1.81-5.98-3.57-1.9-4.88-3.04-10.11-3.98-15.3-2.26-12.54-4.12-25.16-6.39-37.7-.53-2.94-2.07-5.7-3.15-8.54.34-.52.67-1.02 1-1.52zm21.51 49.25c12.48-1.56 24.11-2.97 35.7-4.59.85-.12 2.06-1.81 2.12-2.82.52-8.77.95-17.55 1.04-26.34.01-1.19-1.99-3.47-2.99-3.43-12.19.45-24.36 1.24-35.87 1.91z"/><path d="m127.11 135.8c14.48-1.27 28.3-2.48 42.17-3.69-1.73-8.2-3.35-15.88-4.99-23.61 8.73-1.22 21.17 12.26 20.49 21.52 7.62-.78 15.17-1.5 22.7-2.33 6.76-.75 12.94.74 18.29 4.9 1.38 1.07 2.04 3.08 3.03 4.66-1.65.92-3.24 2.47-4.97 2.64-9.24.91-18.53 1.41-27.79 2.16-17.37 1.4-34.75 2.82-52.11 4.35-6.15.53-13.14-3.4-16.82-10.6z"/><path d="m203.33 173.85c1.27 2.31 2.16 3.95 3.06 5.59-1.95.54-3.89 1.45-5.87 1.57-10.77.68-21.55 1.19-32.34 1.68-1.94.09-3.9-.22-6.17-.36-.5 1.77-.97 3.46-1.5 5.35-3.47.79-5.65-1.12-6.3-4-2.17-9.61-3.95-19.31-5.94-29.27 1.07-.12 2.26-.56 3.28-.31 14.07 3.44 27.54.38 40.98-3.51 1.47-.43 3.19-.08 4.78.04.63.05 1.31.36 1.82.74 3.71 2.79 8.52 4.92 10.79 8.61 2.92 4.73-4.09 6.99-5.12 11.15-.27 1.1-1.09 2.05-1.47 2.72zm-40.89 1.57c9.3-1.35 18.32-2.39 27.17-4.22 1.42-.29 2.68-4.08 2.89-6.36.1-1.07-2.48-3.44-3.82-3.42-8.72.1-17.43.68-26.24 1.12z"/><path d="m192.25 229.72c1.1.97 1.84 1.41 2.29 2.05.62.89 1.03 1.92 1.52 2.9-1.11.5-2.21 1.41-3.33 1.43-6.81.14-13.62-.06-20.42.17-1.68.06-3.47 1.03-4.94 1.99-3.05 1.99-4.91.05-6.03-2.07-1.53-2.89-2.22-6.21-3.47-9.26-1.87-4.56-3.93-9.04-6.09-13.97 1.1-.35 2.09-.82 3.12-.99 9.43-1.5 18.89-2.79 28.28-4.48 5.58-1.01 16.59 4.17 18.23 9.4.35 1.12-.79 2.99-1.7 4.16-2.22 2.85-4.71 5.51-7.46 8.67zm-6.61-13.47c-6.7.66-13.01 1.28-19.48 1.91.43 3.51.78 6.45 1.17 9.38.04.3.28.58.48.96.4.1.88.37 1.32.32 2.95-.33 5.88-.84 8.84-1.09 7.51-.64 8.31-3.98 7.67-11.48z"/></g></svg>