<svg enable-background="new 0 0 400 400" viewBox="0 0 400 400" xmlns="http://www.w3.org/2000/svg"><path d="m69.97 299.83c7.74 1.67 14.29 3.24 20.9 4.47 5.21.97 10.51 1.52 15.76 2.29 4.07.59 6.79-.92 9.08-4.46 7.73-11.99 12-25.27 13.9-39.14 1.83-13.3 2.18-26.8 3.38-40.2.34-3.78-1.26-5.81-4.45-7.34-9.39-4.48-19.02-3.18-28.85-2-18.07 2.18-30.42 13.16-41.78 25.92-1.66 1.86-3.27 3.78-5.04 5.54-3.63 3.6-7.47 3.12-8.51-1.78-1.19-5.58-1-11.49-1.06-17.26-.06-6.04 2.95-9.72 8.41-12.82 3.85-2.18 7.26-6.65 8.94-10.86 7.19-17.97 11.05-36.32 1.92-54.97-.22-.45-.46-.93-.49-1.41-.18-2.73-.29-5.47-.42-8.2 2.57.71 5.29 1.08 7.67 2.2 8.37 3.91 16.65 6.04 25.86 2.44 8.79-3.43 17.92-6 26.85-9.1 3.53-1.22 5.49-3.63 6.14-7.65 2.03-12.59 5.01-25.05 6.59-37.69 1.11-8.9-.08-8.74-9.08-6.71-15.83 3.56-31.79 6.68-47.85 8.94-5.03.71-10.65-1.57-15.76-3.23-1.7-.55-2.65-3.41-3.95-5.22 1.84-1.23 3.53-3.14 5.54-3.58 14.74-3.2 29.84-5.11 44.22-9.44 10.14-3.06 19.45-9.06 28.88-14.21 3.72-2.03 6.8-3.2 11.13-1.65 11.1 3.98 21.29 9.12 29.64 17.77 3.39 3.51 2.62 5.62-.26 8.61-6.9 7.19-14.15 14.16-20.2 22.04-5.19 6.77-8.91 14.67-13.25 22 5.13 3.72 9.46 6.86 15.21 11.02-5.15 2.49-8.61 4.89-12.43 5.87-16.54 4.24-33.18 8.05-49.79 12.04-3.02.73-6.03 1.53-9.21 2.34 1.93 18.97-2.88 36.42-10.28 54.13 17.76-2.74 34.57-5.64 50.42-12.26 5.06-2.11 9.42-2.53 14.03.46 7.21 4.68 14.53 9.18 21.6 14.06 2.21 1.52 3.63 4.11 1.26 6.84-12.18 14-12.79 31.22-13.44 48.4-.57 15.26-3.03 30.38-9.48 44.06s-16.88 24.59-31.1 31.2c-4.11 1.91-6.4-.32-8.44-3.01-3.82-5.03-7.02-10.57-11.13-15.33-5.64-6.54-11.91-12.54-17.86-18.81-.98-1.02-1.71-2.27-3.22-4.31z"/><path d="m359.94 298.58c-2.4.43-4.78 1.19-7.19 1.25-21.14.56-42.28.7-62.91-4.87-8.03-2.17-14.24-6.16-17.83-14.9-9.51-23.2-15.56-47.26-20.08-71.77-4.78-25.93-8.73-52.05-18.01-76.92-4.03-10.81-8.75-21.27-16.5-29.97-2.62-2.94-6.21-5-9.02-7.8-1.22-1.22-1.6-3.28-2.37-4.97 1.56-.68 3.15-1.99 4.69-1.94 14.81.48 32.11 13.07 35.95 27.38 7.54 28.16 14.27 56.53 21.43 84.79 7.82 30.88 22.07 57.91 49.14 76.11 9.8 6.59 21.24 10.75 31.95 15.98 3.83 1.87 7.71 3.64 11.56 5.45-.27.72-.54 1.45-.81 2.18z"/><g fill="#fafafa"><path d="m374.8 390.4 1.4-.4c.7.5 1.3 1 1.8 1.4l-.5.5c-1.5-.6-2.1-1.1-2.7-1.5zm1 7.3-.6-.3c.5-1.4 1.1-2.8 1.5-4.3.2.1.4.2.6.3-.5 1.3-1 2.8-1.5 4.3zm-.4-10.3.4-.4c.4.3 1 .8 1.7 1.4l-.5.5c-.4-.5-1-1-1.6-1.5zm2.5.3h1.7v-1h.6v1h3.5v-1h.6v1h1.8v.5h-1.8v1.4h-2v1h3.2v2h-3.2v.9h3.3v.5h-3.4c0 .3-.1.6-.1.9h4v.5h-3.7c.7.9 1.9 1.5 3.8 1.7-.1.2-.2.4-.3.6-2.1-.4-3.5-1.1-4-2.1-.4 1-1.8 1.7-4 2.2-.1-.2-.2-.4-.3-.6 2.1-.4 3.4-1 3.8-1.8h-3.4v-.5h3.6c.1-.3.1-.6.2-.9h-3.3v-.5h3.4c0-.3 0-.6 0-.9h-3.2v-2h3.3v-1h-2.1v-1.4h-1.7v-.5zm1.1 3.5v1h2.7c0-.3 0-.4 0-.4 0-.1 0-.2 0-.2 0-.1 0-.2 0-.3h-2.7zm1.2-3v.9h3.5v-.9zm4.7 3h-2.6v.6.4h2.6z"/><path d="m393.6 386.7h.6v1.5h2.7v6.1h1.1v.6h-11v-.6h1.1v-6.1h2.7v-1.5h.6v1.5h2.1v-1.5zm-2.7 8.8.4.6c-1.2.6-2.5 1.3-3.8 1.9-.1-.2-.2-.4-.3-.6 1.2-.6 2.5-1.2 3.7-1.9zm-2.2-6.7v2.4h2.1v-2.4zm0 3v2.5h2.1v-2.5zm2.8-3v2.4h2.1v-2.4zm0 3v2.5h2.1v-2.5zm6 6.1c-1.4-.7-2.7-1.3-3.9-1.8l.2-.6c1.5.6 2.7 1.2 3.9 1.7zm-1.2-9.1h-2.1v2.4h2.1zm-2.1 3v2.5h2.1v-2.5z"/></g></svg>