<svg enable-background="new 0 0 400 400" viewBox="0 0 400 400" xmlns="http://www.w3.org/2000/svg"><path d="m5.17 384 .55-.58c.85.61 1.65 1.24 2.4 1.87l-.59.64c-.83-.73-1.62-1.38-2.36-1.93m1.22 9.53-.82-.34c.71-1.76 1.37-3.64 1.98-5.63.24.13.5.25.76.36-.6 1.67-1.24 3.54-1.92 5.61m-.5-13.5.57-.54c.56.44 1.31 1.06 2.26 1.87l-.65.64c-.67-.66-1.4-1.32-2.18-1.97m3.25.46h2.24v-1.36h.77v1.36h4.57v-1.36h.76v1.36h2.28v.69h-2.28v1.84h-2.64v1.26h4.18v2.64h-4.21c0 .45-.02.86-.05 1.21h4.32v.69h-4.38c-.04.34-.1.75-.19 1.22h5.15v.69h-4.82c.87 1.19 2.51 1.92 4.93 2.19-.17.31-.3.57-.37.76-2.77-.49-4.52-1.41-5.26-2.76-.56 1.26-2.3 2.23-5.24 2.9-.12-.24-.26-.48-.43-.72 2.73-.55 4.38-1.34 4.96-2.38h-4.38v-.69h4.65c.1-.38.17-.79.21-1.22h-4.32v-.69h4.4c.03-.34.05-.75.05-1.21h-4.2v-2.64h4.23v-1.26h-2.69v-1.84h-2.24zm1.46 4.46v1.29h3.45c.01-.4.02-.57.01-.53v-.32-.45h-3.46zm1.55-2.59h4.57v-1.19h-4.57zm6.11 2.59h-3.42v.77c-.01.19-.01.37-.02.53h3.44z" fill="#fafbfc"/><path d="m32.63 379.16h.82v1.98h3.54v7.89h1.46v.78h-14.37v-.78h1.46v-7.89h3.54v-1.98h.82v1.98h2.73zm-3.49 11.48.5.73c-1.61.82-3.28 1.63-5 2.42-.13-.27-.28-.55-.44-.82 1.75-.73 3.4-1.5 4.94-2.33m-2.78-5.55h2.73v-3.18h-2.73zm0 3.95h2.73v-3.2h-2.73zm3.54-3.95h2.73v-3.18h-2.73zm0 3.95h2.73v-3.2h-2.73zm7.89 4.68c-1.84-.92-3.51-1.7-5.02-2.32l.45-.73c1.89.8 3.57 1.55 5.04 2.23zm-1.62-11.81h-2.73v3.18h2.73zm-2.73 7.13h2.73v-3.2h-2.73z" fill="#fafbfc"/><g fill="#000001"><path d="m197.12 195.96c-1.43 3.11-2.59 6.06-4.09 8.81-2.1 3.86-4.42 3.92-7.18.49-6.09-7.57-7.78-16.18-6.92-25.75 1.3-14.55 2.79-29.14 2.87-43.71.1-17.89-1.08-35.8-1.94-53.69-.16-3.25-1.35-6.48-2.3-9.65-1.46-4.86.71-7.38 5.71-6.39.64.13 1.34.32 1.85.7 7.92 5.87 16.76 3.93 25.44 2.94 16.33-1.87 32.64-3.84 48.95-5.86 3.29-.41 6.69-.77 9.74-1.92 5.96-2.26 11.02-1.12 15.8 2.76 3.36 2.72 6.81 5.33 10.24 7.96 4.15 3.19 5.39 7.31 2.89 11.87-3.71 6.75-3.68 14.09-3.68 21.33-.02 22.47.38 44.94.48 67.41.04 9.84-.83 19.54-5.46 28.56-2.95 5.76-5.39 6.58-10.2 2.22-2.8-2.54-5.36-5.51-7.37-8.71-1.66-2.65-3.44-3.51-6.44-3.3-19.73 1.38-39.46 2.65-59.2 3.89-2.97.2-5.96.04-9.19.04zm2.27-113.89v31.83c8.74-1.58 17.02-3.3 25.38-4.53 16.75-2.48 33.37-8.04 51.37-2.14-.46-8.39-.77-16.3-1.37-24.2-.57-7.55-1.22-8.46-8.83-7.86-14.73 1.16-29.41 2.91-44.11 4.45-7.37.77-14.75 1.61-22.44 2.45zm74.53 73.23c-24.95 1.18-50.22 2.37-75.58 3.57v25.01c15.92-1.86 31.5-3.82 47.11-5.47 9.21-.98 18.7-4.39 28.47 3.8 0-9.95 0-18.22 0-26.91zm-75.04-31.44v25.48c10.98-1.67 21.79-3.38 32.62-4.96 14.53-2.11 28.98-6.28 43.51-1.86 0-7.89 0-15.67 0-23.87-25.79 1.77-50.63 3.47-76.13 5.21z"/><path d="m204.9 246.24c17.99-2.73 34.84-5.29 51.7-7.85 8.36-1.27 16.71-2.7 25.1-3.71 8.29-1 14.89 2.76 20.42 8.51 3.07 3.19 2.36 5.3-2.04 6-21.48 3.38-42.99 6.62-64.49 9.86-3.12.47-6.3.55-9.41 1.1-7.85 1.39-15.53 1.77-23.15-4.04-1.12 14.32-3.31 27.61-.36 40.67 1.78 7.86 9.32 11.37 16.55 12.85 9.06 1.85 18.4 2.99 27.64 3.1 16.11.2 32.21-.51 47.77-5.65 9.17-3.03 15.63-8.47 18.58-17.85 1.79-5.7 3.79-11.33 5.71-16.99.73-2.15 1.5-4.28 2.26-6.41.5-.13 1-.27 1.5-.4 1.13 2.13 2.7 4.15 3.32 6.42 3.06 11.19 5.61 22.53 8.85 33.67 2.48 8.55 1.34 13.39-7.08 16.32-9.32 3.24-19.09 5.89-28.87 6.95-14.51 1.58-29.21 2.18-43.82 2.03-15.28-.15-30.51-1.8-45.21-6.64-14.78-4.87-23.02-15.24-23.98-30.43-.91-14.41.17-28.93-.57-43.36-.46-9.02-2.48-17.98-4.15-26.9-.72-3.84-3.47-8.06.08-11.16 3.87-3.38 8.03-.19 11.37 1.94 4.03 2.56 7.91 5.62 11.15 9.12 4.91 5.3 6.47 11.53 2.63 18.33-.47.85-.63 1.86-1.5 4.52z"/><path d="m125.17 148.67v10.36c0 46.64.06 93.27-.05 139.91-.02 10.29-.36 20.59-1.16 30.84-.24 3.08-2.15 6.31-4.06 8.91-2.59 3.51-5.77 3.27-8-.53-6.13-10.48-9.89-21.19-8.28-34.04 2.4-19.07 3.82-38.35 4.2-57.57.82-41.6.9-83.22.93-124.84.01-20.11-1.44-40.15-6.02-59.85-1.35-5.8 1.32-9 6.78-6.79 7.26 2.94 14.01 7.31 20.59 11.66 1.37.91 1.87 4.64 1.33 6.69-4.93 18.86-4.6 38.18-5.22 57.41-.05 1.41 1.6 3.32 2.97 4.27 7.22 5 14.79 9.51 21.88 14.67 7.45 5.42 8.74 13.34 7.2 21.85-1.09 6.06-6.8 7.99-11.03 3.43-5.19-5.58-9.74-11.77-14.44-17.8-2.23-2.86-4.17-5.94-6.25-8.92-.46.11-.91.22-1.37.34z"/><path d="m91.54 156.85c-2.45 10.8-4.54 23.09-8.23 34.87-1.56 4.99-5.98 9.49-10.03 13.19-4.05 3.69-6.93 2.54-9.41-2.37-3.29-6.51-3-13.23-.54-19.84 5.48-14.77 11.11-29.49 16.84-44.17.58-1.5 2.35-3.73 3.31-3.61 1.56.19 3.81 1.81 4.21 3.25 1.5 5.56 2.39 11.27 3.85 18.68z"/></g></svg>