<svg enable-background="new 0 0 400 400" viewBox="0 0 400 400" xmlns="http://www.w3.org/2000/svg"><path d="m184.92 216.95c13.31 7.34 13.91 19.54 13.28 33.04-1.06 22.6-.49 45.28-1.41 67.89-.3 7.43-2.27 15.08-5 22.03-2.56 6.51-6.52 6.48-10.44.63-5.34-7.97-6.65-17.05-4.95-26.31 4.18-22.77 3.64-45.74 3.23-68.69-.12-6.52-2.1-13-3.39-20.48-13.69 12.2-26.55 23.93-45.09 25.71 26.65-25.9 53.87-51.14 69.27-87.22-6.84 1.13-13.05 2.14-19.26 3.19-9.94 1.67-18.46-1.05-25.33-8.43-1.03-1.1-1.33-2.89-1.97-4.36 1.58-.66 3.12-1.77 4.74-1.89 15.08-1.17 30.18-2.14 45.26-3.27 1.18-.09 2.99-.56 3.35-1.36 2.4-5.46 4.68-10.99 6.57-16.64.58-1.73-.46-3.94-.32-5.89.18-2.43.08-6.24 1.41-6.92 2.27-1.17 6.21-1.45 8.28-.18 4.47 2.73 8.21 6.65 12.21 10.13 3.66 3.19 2.97 6.59.42 10.08-1.65 2.27-3.22 4.59-5.71 8.14 7.66-.6 14.15-.95 20.6-1.64 16.51-1.78 33-3.71 49.5-5.59 1.98-.23 3.99-.33 5.93-.77 12.01-2.74 20.87 3.34 29.12 10.62 1.56 1.37 3.07 5.33 2.33 6.24-1.41 1.72-4.46 2.92-6.83 2.92-15.97-.04-31.96-.99-47.91-.62-18.94.45-37.85 1.82-56.76 3.12-2.18.15-5.17 1.82-6.17 3.66-9.79 18.02-20.08 35.66-33.93 50.97-.34.35-.49.85-1.03 1.89z"/><path d="m282.49 225.74c3.75 4.63 6.57 8.41 9.75 11.85.87.94 2.86 1.35 4.26 1.22 7.11-.64 14.35-.89 21.26-2.48 12.32-2.83 21.22 2.97 29.63 10.44 1.3 1.16 1.66 3.38 2.45 5.12-1.85.84-3.7 2.38-5.56 2.41-14.99.2-29.99.12-44.98.12-1.98 0-3.97 0-6.53 0-.13 1.88-.28 3.46-.35 5.05-.78 19.28-1.06 38.59-2.52 57.81-.79 10.31-4.8 19.99-11.67 28.08-3.97 4.68-6.16 4.79-10.93.97-9.75-7.8-19.48-15.61-29.14-23.52-1.02-.84-1.49-2.34-2.21-3.54 1.31-.45 2.62-1.25 3.94-1.28 7.16-.17 14.34.08 21.49-.24 8.23-.37 12.94-3.79 13.17-11.33.51-16.58.01-33.18-.08-50.67-8.48 1.04-15.48 1.92-22.49 2.75-8.4.99-16.8 2.45-25.23 2.76-9.09.34-16.18-3.85-21.83-13.41 22.46-2.1 43.77-4.08 65.88-6.15-2.54-6.55-4.94-12.74-7.87-20.31 4.18.68 7.14 1.39 10.13 1.56 1.62.09 4-.18 4.83-1.24 4.83-6.14 9.54-12.41 13.77-18.97 1.31-2.04 2.19-6 1.09-7.53-1.54-2.15-5.06-3.79-7.82-3.94-3.13-.17-6.39 1.47-9.55 2.46-8.4 2.61-16.69 5.63-25.2 7.82-6.91 1.78-13.66.61-19.01-4.61-1.71-1.67-3.23-3.88-3.96-6.13-1.05-3.25.08-5.45 4.16-5.3 20.29.78 39.89-4.15 59.76-6.99 4.36-.63 9.62-.28 13.42 1.66 6.57 3.36 12.81 7.78 18.29 12.75 5.76 5.23 4.04 9.09-2.92 12.58-12.85 6.45-25.33 13.64-37.43 20.23z"/><path d="m110.17 138.63c0 3.73.01 6 0 8.26-.37 56.64-.7 113.28-1.15 169.92-.05 5.97-.35 12-1.28 17.89-.58 3.67-2.17 7.33-4.02 10.59-2.28 4.01-5.55 4.03-8.07.31-7.49-11.05-11-22.65-9.11-36.57 2.59-19.05 3.94-38.38 4.28-57.62.84-47.13 1.29-94.28.84-141.41-.16-16.49-3.49-32.95-5.16-49.45-.26-2.58-.32-6.32 1.18-7.64 1.57-1.39 5.6-1.48 7.75-.45 6.26 2.97 12.23 6.61 18.09 10.34 3.02 1.92 4.02 4.84 2.84 8.68-5.06 16.57-4.65 33.81-5.98 50.84-.24 3.04.82 4.18 3.91 4.99 6.69 1.77 13.37 3.85 19.69 6.63 6.18 2.73 11.08 16.82 8.74 23.13-1.63 4.4-7.64 5.97-11.72 2.49-5.05-4.3-9.61-9.18-14.32-13.87-1.87-1.84-3.58-3.86-6.51-7.06z"/><path d="m273.77 95.42c-16.35-1.03-20.37-2.45-25.2-9.32 1.68-.46 3.08-1.02 4.53-1.21 7.57-1.01 15.17-1.82 22.71-2.98 1.21-.19 2.9-1.63 3.18-2.78 2.12-8.84 3.83-17.78 5.99-26.61.36-1.48 2.12-3.44 3.48-3.65 2.14-.33 4.94-.03 6.63 1.18 4.3 3.06 9 6.17 11.96 10.37 4.16 5.91-3.13 9.19-4.9 13.81-.5 1.31-1.41 2.46-2.13 3.69 7.77 0 15.2-.57 22.5.18 5.85.6 11.04 3.69 14.41 8.86.9 1.38 1.76 3.91 1.11 4.9-.86 1.3-3.24 2.21-4.96 2.21-12.31-.06-24.62-.22-36.92-.76-4.12-.18-6.28 1.38-8.21 4.76-3.37 5.92-6.89 11.8-10.91 17.28-2.2 3-5.57 5.14-8.42 7.66-.7-.46-1.4-.91-2.1-1.37 2.37-8.58 4.75-17.18 7.25-26.22z"/><path d="m208.14 85.93c7.08 0 13.39-.16 19.68.11 1.7.07 3.34 1.42 5.01 2.19-1.3 1.56-2.3 3.94-3.94 4.54-4.96 1.79-10.1 3.41-15.31 4.11-4.09.55-4.75 2.32-4.65 5.84.12 4.3.06 8.67-.63 12.89s-3.61 5.13-6.02 1.66c-2.65-3.81-3.97-8.54-5.85-12.88-.39-.89-.67-1.83-1.12-3.11-7.31 1.72-14.54 3.4-21.75 5.11-10.86 2.59-24.74-5.1-28.75-16.71 2.31-.57 4.54-1.56 6.78-1.6 11.32-.21 22.65-.16 33.98-.25 1.81-.01 3.62-.24 7.05-.48-3.77-7.41-7.22-14.02-10.5-20.73-1.09-2.23-1.73-4.68-2.57-7.03 2.72-.92 5.63-2.97 8.1-2.52 5.45.98 10.96 2.68 15.86 5.21 1.97 1.02 3.02 4.92 3.43 7.66.8 5.37.85 10.86 1.2 15.99z"/><path d="m76.9 149.08c-1.76 9.1-3.44 19.4-5.83 29.54-1.48 6.24-4.85 11.65-10.6 15.18-3.73 2.29-6.52 1.59-8.64-2.31-3.54-6.48-3.27-13.01-.63-19.67 5.08-12.8 10.08-25.63 15.23-38.4.68-1.68 2.07-3.08 3.13-4.61 1.57 1.56 4.01 2.86 4.54 4.72 1.32 4.56 1.76 9.39 2.8 15.55z"/><g fill="#fafafa"><path d="m374.8 390.4 1.4-.4c.7.5 1.3 1 1.8 1.4l-.5.5c-1.5-.6-2.1-1.1-2.7-1.5zm1 7.3-.6-.3c.5-1.4 1.1-2.8 1.5-4.3.2.1.4.2.6.3-.5 1.3-1 2.8-1.5 4.3zm-.4-10.3.4-.4c.4.3 1 .8 1.7 1.4l-.5.5c-.4-.5-1-1-1.6-1.5zm2.5.3h1.7v-1h.6v1h3.5v-1h.6v1h1.8v.5h-1.8v1.4h-2v1h3.2v2h-3.2v.9h3.3v.5h-3.4c0 .3-.1.6-.1.9h4v.5h-3.7c.7.9 1.9 1.5 3.8 1.7-.1.2-.2.4-.3.6-2.1-.4-3.5-1.1-4-2.1-.4 1-1.8 1.7-4 2.2-.1-.2-.2-.4-.3-.6 2.1-.4 3.4-1 3.8-1.8h-3.4v-.5h3.6c.1-.3.1-.6.2-.9h-3.3v-.5h3.4c0-.3 0-.6 0-.9h-3.2v-2h3.3v-1h-2.1v-1.4h-1.7v-.5zm1.1 3.5v1h2.7c0-.3 0-.4 0-.4 0-.1 0-.2 0-.2 0-.1 0-.2 0-.3h-2.7zm1.2-3v.9h3.5v-.9zm4.7 3h-2.6v.6.4h2.6z"/><path d="m393.6 386.7h.6v1.5h2.7v6.1h1.1v.6h-11v-.6h1.1v-6.1h2.7v-1.5h.6v1.5h2.1v-1.5zm-2.7 8.8.4.6c-1.2.6-2.5 1.3-3.8 1.9-.1-.2-.2-.4-.3-.6 1.2-.6 2.5-1.2 3.7-1.9zm-2.2-6.7v2.4h2.1v-2.4zm0 3v2.5h2.1v-2.5zm2.8-3v2.4h2.1v-2.4zm0 3v2.5h2.1v-2.5zm6 6.1c-1.4-.7-2.7-1.3-3.9-1.8l.2-.6c1.5.6 2.7 1.2 3.9 1.7zm-1.2-9.1h-2.1v2.4h2.1zm-2.1 3v2.5h2.1v-2.5z"/></g></svg>