<svg enable-background="new 0 0 400 400" viewBox="0 0 400 400" xmlns="http://www.w3.org/2000/svg"><path d="m184.28 153.26c-11.56 6-20.44 15.55-32.6 19.26-.5-.58-.99-1.16-1.49-1.74 2.59-2.71 4.92-5.74 7.81-8.06 16.82-13.51 29.91-30.19 42.15-48.52-11.76 2.63-23.25 6.57-33.14-5.58 18.79-3.11 36.53-6.05 54.23-8.99 0-8.41 0-16.59 0-25.25-14.34 3.69-27.92 6.9-41.96 5.13-.15-.55-.3-1.1-.44-1.65 2.33-.97 4.67-1.9 6.97-2.92 14.38-6.4 28.79-12.74 43.1-19.3 2.52-1.15 5.02-2.9 6.8-4.99 3.86-4.52 7.24-9.43 11.4-14.96 8.82 4.2 18.46 9.48 23.31 21-13.87 4.92-27.18 9.65-40.5 14.38.05.13 8.41 24.49 8.48 24.7 13.46-.91 26-5.61 38.64-9.85 8.16-2.74 16.49-4.79 24.84-1.87 3.88 1.36 7.49 4.22 10.49 7.15 2.93 2.86 1.62 5.66-2.52 6.01-5.79.48-11.64.35-17.43.89-14.49 1.35-28.97 2.93-43.52 5.14 31.49 27.1 67.96 43.07 108.58 50.25v2.16c-2.02 1.04-3.97 2.79-6.08 3-16.86 1.69-33.8 4.23-50.63.66-4.73-1-9.67-3.89-13.18-7.29-14.82-14.34-29.11-29.22-43.65-43.84-1.44-1.45-3.29-2.48-5.36-4-.99 13.93-1.9 26.64-2.9 40.69 4.66-1.93 9.28-3.38 13.42-5.71 3.66-2.06 6.79-3.1 10.6-.56 6.63 4.41 13.43 8.57 20.11 12.91 3.66 2.39 4.63 5.75 2.22 9.43-4.83 7.38-4.95 15.54-4.94 23.94.01 12.64-.42 25.28-.98 37.91-.28 6.44-2.64 12.23-6.95 17.24-3.39 3.94-5.41 4.12-8.4-.27-2.34-3.43-4.42-7.05-6.35-10.72-3.1-5.89-6.99-8.69-14.32-7.2-12.33 2.52-24.9 3.92-37.37 5.74-3.04.44-4.41 1.77-4.76 5.11-.23 2.23-2.3 4.27-3.55 6.39-2.11-1.34-4.88-2.2-6.21-4.09-5.65-8.06-4.89-17.26-3.93-26.45 1.85-17.7 3.84-35.4.63-53.16-.11-.62-.35-1.22-.62-2.12zm14.35 32.37c8.02-3.04 15.26-5.74 22.46-8.53 6.74-2.62 13.61-3.47 20.37-.66 1.95.81 3.21 3.31 4.78 5.03-1.95 1.23-3.77 3.17-5.88 3.56-13.79 2.53-27.64 4.72-41.68 7.06v27.9c11.15-2.79 21.85-4.94 32.19-8.23 7.13-2.27 13.53-2.61 20.07 1.17 3.61 2.09 6.1.67 7.25-3.09.48-1.55.63-3.26.59-4.89-.4-15.42-.82-30.84-1.35-46.25-.18-5.35-2.88-7.65-8.4-7.5-1.49.04-3 .17-4.46.46-15.18 2.96-30.35 5.95-45.95 9.02.01 7.26.01 15.53.01 24.95zm23.95-37.67c0-13.76 0-26.67 0-40.91-2.36 1.3-3.89 1.64-4.52 2.58-8.06 12.14-15.99 24.37-24.75 37.79 1.72 1.06 4.52 4.28 7.09 4.1 7.69-.52 15.28-2.36 22.18-3.56z"/><path d="m124.81 125.62c-8.88 2.11-18.14 3.44-27.68 1.76-1.24-.22-3.18 1.23-4.19 2.43-6 7.12-11.81 14.41-17.73 21.61-.95 1.15-1.97 2.37-3.22 3.11-1.58.93-3.42 1.4-5.16 2.06.13-2.15-.4-4.64.5-6.4 5.67-11.09 12.12-21.79 17.39-33.05 4.22-9.01 7.83-18.56 3.06-28.75-.2-.42-.14-.99-.1-1.48.04-.48.2-.96.3-1.41 9-1.95 19.24 2.46 23.22 10.59.8 1.64-.13 4.77-1.27 6.59-3.67 5.9-7.8 11.52-11.76 17.24.3.54.61 1.09.91 1.63 8.45-2.83 16.92-5.58 25.29-8.63.87-.32 1.52-2.4 1.54-3.67.34-23.17.05-46.25-8.58-68.33-2.31-5.92-.03-9.15 6.09-8.09 4.71.81 9.33 3.18 13.51 5.67 3.36 2 5.98 5.23 8.79 7.77-6.4 20.49-6.34 41.46-8.66 63.27 3.85-1.5 6.9-3.04 10.12-3.84 3.79-.94 7.82-1.97 11.58-1.53 2.12.25 4.55 3.09 5.51 5.34.39.9-2.46 4.11-4.4 4.92-7.32 3.07-14.86 5.58-22.44 8.34v29.91c6.11-3.02 11.91-5.87 17.7-8.73.39.51.79 1.03 1.18 1.54-.94 1.32-1.63 2.95-2.85 3.92-4.16 3.31-8.48 6.43-12.79 9.56-3.1 2.25-4.86 4.84-4.8 9.06.24 17.49.4 35-.03 52.49-.22 8.92-1.27 17.89-2.95 26.65-.62 3.23-4.11 5.91-6.29 8.84-2.68-2.7-6.16-4.96-7.87-8.17-4.3-8.06-2.66-16.73-1.34-25.34 2.54-16.55 4.78-33.15 7.11-49.74.06-.42-.25-.89-.61-2.07-5.97 4.7-11.81 8.99-17.3 13.68-8.59 7.34-16.94 14.96-25.43 22.41-.69.6-1.93 1.37-2.54 1.13-8.09-3.17-16.2-6.38-20.14-15.12-1.12-2.49-.63-3.77 2.15-4.8 12.72-4.72 25.51-9.3 37.94-14.71 8.05-3.51 15.55-8.3 23.2-12.68 1.26-.72 2.87-2.28 2.9-3.48.23-10.46.14-20.91.14-31.5z"/><path d="m104.99 253.44c5.68 3.35 9.24 7.51 11.31 12.98 7.31 19.35 19.01 35.26 36.11 47.21 12.34 8.62 26.41 11.87 40.84 13.06 15.19 1.25 30.5 1.16 45.76 1.13 6.04-.01 12.07-1.47 19.45-2.44-4.28-12.54-8.23-24.14-12.19-35.74.52-.36 1.03-.72 1.55-1.08 1.75 1.24 3.72 2.27 5.23 3.76 13.85 13.6 29.14 25.25 46.14 34.68 2.7 1.5 4.66 4.34 6.96 6.56-2.6 2.15-4.88 5.42-7.84 6.26-11.16 3.15-22.41 6.49-33.86 7.91-15.79 1.97-31.83 3.46-47.7 3.03-30.07-.81-57.63-9.67-80-30.88-17.61-16.69-27.39-37.73-32.54-61.13-.31-1.45.43-3.11.78-5.31z"/><path d="m283.96 246.59c10.65 3.48 21.3 6.95 31.95 10.44 10.19 3.34 16.06 11.11 19.29 20.63 1.31 3.85.5 8.76-.44 12.94-.89 3.98-4.36 5.68-8.13 3.39-7.19-4.38-14.58-8.64-21.04-13.97-9.72-8.02-18.74-16.89-28.01-25.45-2.41-2.22-1.95-5.01 1.09-6.16 1.5-.57 3.24-.52 4.87-.75.14-.36.28-.71.42-1.07z"/><path d="m70.35 258.12c4.99 6.69 4.9 13.88 5.53 20.66 1.39 14.99-1.15 29.5-7.29 43.25-1.47 3.28-3.49 6.5-5.91 9.14-4.81 5.23-12.72 3.66-14.59-3.21-2.35-8.61-2.94-17.68 2.1-25.61 8.06-12.7 15.51-25.55 18.15-40.63.17-1.02 1.05-1.94 2.01-3.6z"/><path d="m215.69 281.69c-.83 2.29-1.32 4.79-2.57 6.82-4.12 6.7-6.89 7.35-12.49 1.97-10.29-9.9-20.24-20.17-30.08-30.53-1.31-1.39-1.64-4.31-1.32-6.35.13-.8 3.61-2 5.04-1.51 10.93 3.73 21.87 7.51 32.51 11.98 4.09 1.71 8.39 12.39 8.91 17.62z"/><g fill="#fafafa"><path d="m374.8 390.4 1.4-.4c.7.5 1.3 1 1.8 1.4l-.5.5c-1.5-.6-2.1-1.1-2.7-1.5zm1 7.3-.6-.3c.5-1.4 1.1-2.8 1.5-4.3.2.1.4.2.6.3-.5 1.3-1 2.8-1.5 4.3zm-.4-10.3.4-.4c.4.3 1 .8 1.7 1.4l-.5.5c-.4-.5-1-1-1.6-1.5zm2.5.3h1.7v-1h.6v1h3.5v-1h.6v1h1.8v.5h-1.8v1.4h-2v1h3.2v2h-3.2v.9h3.3v.5h-3.4c0 .3-.1.6-.1.9h4v.5h-3.7c.7.9 1.9 1.5 3.8 1.7-.1.2-.2.4-.3.6-2.1-.4-3.5-1.1-4-2.1-.4 1-1.8 1.7-4 2.2-.1-.2-.2-.4-.3-.6 2.1-.4 3.4-1 3.8-1.8h-3.4v-.5h3.6c.1-.3.1-.6.2-.9h-3.3v-.5h3.4c0-.3 0-.6 0-.9h-3.2v-2h3.3v-1h-2.1v-1.4h-1.7v-.5zm1.1 3.5v1h2.7c0-.3 0-.4 0-.4 0-.1 0-.2 0-.2 0-.1 0-.2 0-.3h-2.7zm1.2-3v.9h3.5v-.9zm4.7 3h-2.6v.6.4h2.6z"/><path d="m393.6 386.7h.6v1.5h2.7v6.1h1.1v.6h-11v-.6h1.1v-6.1h2.7v-1.5h.6v1.5h2.1v-1.5zm-2.7 8.8.4.6c-1.2.6-2.5 1.3-3.8 1.9-.1-.2-.2-.4-.3-.6 1.2-.6 2.5-1.2 3.7-1.9zm-2.2-6.7v2.4h2.1v-2.4zm0 3v2.5h2.1v-2.5zm2.8-3v2.4h2.1v-2.4zm0 3v2.5h2.1v-2.5zm6 6.1c-1.4-.7-2.7-1.3-3.9-1.8l.2-.6c1.5.6 2.7 1.2 3.9 1.7zm-1.2-9.1h-2.1v2.4h2.1zm-2.1 3v2.5h2.1v-2.5z"/></g></svg>