<svg enable-background="new 0 0 400 400" viewBox="0 0 400 400" xmlns="http://www.w3.org/2000/svg"><g fill="#010100"><path d="m73.25 302.96c6.93 1.15 13.83 2.66 20.81 3.37 15.63 1.59 15.26 2.39 15.82-12.33.93-24.61 1.33-49.24 1.94-73.86.04-1.62.01-3.23.01-4.85-.45-.32-.9-.65-1.34-.97-3.28 3.62-6.49 7.31-9.86 10.85-7.94 8.31-16.06 16.44-23.9 24.84-3.48 3.73-7.49 5.39-12.04 3.29-5.16-2.39-10.31-5.15-14.76-8.64-3.73-2.92-3.09-7.54 1.26-9.28 21.27-8.5 37.11-25 55.82-37.26 2.93-1.92 4.09-4.13 4.03-7.75-.23-15.16-.1-30.33-.1-45.49 0-1.64 0-3.27 0-5.49-7.62 1.51-14.7 3.15-21.85 4.27-10.83 1.7-21.3 1.06-30.04-6.7-1.27-1.13-1.98-2.9-2.95-4.37 1.57-.68 3.09-1.76 4.72-1.97 12.68-1.65 25.43-2.79 38.05-4.76 11.78-1.84 11.81-2.21 11.71-13.97-.11-12.15-.06-24.31-.76-36.43-.28-4.85-2.32-9.61-3.61-14.39-.6-2.24-2.05-4.54-1.77-6.63.27-2 1.9-4.91 3.58-5.45 7.24-2.35 23.68 6.04 25.81 13.3.96 3.26.74 7.27-.18 10.6-4.1 14.76-4.59 29.79-4.56 45.03 6.61 0 12.99-.38 19.29.16 3.16.27 6.45 1.8 9.17 3.55 1.64 1.05 3.22 3.65 3.15 5.48-.06 1.41-2.57 3.52-4.3 3.91-8.57 1.93-17.25 3.38-25.89 5.01-.63.12-1.24.28-2.07.47v46.07c9.19-6.44 17.8-12.47 26.42-18.5.56.51 1.13 1.01 1.69 1.52-.8 1.72-1.24 3.78-2.47 5.11-6.76 7.33-13.42 14.8-20.72 21.56-3.95 3.65-5.39 7.29-4.99 12.49.81 10.43 1.07 20.91 1.68 31.36 1.28 21.91 3.01 43.81 3.81 65.74.51 13.98-.58 27.95-7.77 40.61-4.81 8.47-9.46 9.17-14.6.86-8.72-14.12-21-24.34-33.98-34.04-1.8-1.34-3.3-3.08-4.94-4.63.21-.57.44-1.13.68-1.69z"/><path d="m283.66 299.29c14.03-.88 27.84-3.8 42.53-5.45-2.39-5.03-4.67-9.56-6.69-14.2-1.9-4.34-5.45-8.66-.3-14.77 10.43 9.59 21.03 18.63 30.73 28.54 4.91 5.02 4.1 22.2.02 28.27-2.94 4.38-8.71 4.38-11.52-.45-2.41-4.13-4.18-8.67-5.84-13.18-1.13-3.06-2.81-3.63-5.69-2.75-17.43 5.34-34.93 10.49-52.32 15.96-8.32 2.62-18.84-3.7-19.41-12.48-.13-2.09 1.2-5.16 2.87-6.36 19.26-13.74 27.87-35.65 42.11-53.21-.23-.38-.47-.76-.7-1.14-5.21 1.07-10.43 2.08-15.63 3.21-7.46 1.62-14.89 3.33-22.34 5-.96.22-1.97.74-2.88.6-6.26-.91-7.02-6.65-8.78-11.02-.93-2.3-.76-6.58.77-8.07 8.62-8.45 14.18-18.84 19.74-29.24 4.23-7.91 7.92-16.11 11.97-24.12 4.89-9.67 7.66-19.66 6.75-30.69-.53-6.51 3.52-9.06 9.21-5.65 5.49 3.29 10.4 7.63 15.26 11.87 3.44 3 2.14 6.79.12 10.01-5.4 8.59-11.01 17.05-16.56 25.54-7.56 11.55-15.16 23.08-22.72 34.63-3.24 4.95-2.37 7.6 3.61 7.88 8.76.41 17.58-.2 26.37-.55.9-.03 2.11-.99 2.57-1.85 5.53-10.33 12.86-19.95 13.24-32.39.02-.49.31-.96.34-1.45.49-8.59 2.1-9.97 10.15-6.15 5.71 2.71 10.91 6.75 15.77 10.86 3 2.54 2.38 6.18-.14 9.39-20.08 25.49-40.11 51.01-60.12 76.54-1.2 1.53-2.11 3.27-3.16 4.92.21.66.44 1.3.67 1.95z"/><path d="m224.77 295.59c-1.45-6.58-2.9-12.52-3.98-18.53-.29-1.59.58-3.39.92-5.09 1.93.64 4.34.75 5.71 2 9.05 8.26 16.6 17.7 21.7 28.95 2.07 4.56-1.22 17.96-5.14 20.82-3.31 2.42-8.27.89-10.32-3.46-2.11-4.48-3.9-9.11-6.22-14.61-17.61 5.78-35.1 11.35-52.43 17.35-4.55 1.57-8.19 1.09-11.49-1.98-3.93-3.66-7.81-7.55-6.73-13.65.23-1.34 1.12-2.98 2.21-3.68 14.1-8.96 22.37-23.02 31.79-36.06 4.27-5.92 8.48-11.88 13.54-18.96-9.07 2.09-16.88 3.86-24.67 5.69-3.55.83-7.21 1.46-10.59 2.76-3.65 1.41-6.17.32-8.18-2.53-5.42-7.7-6.35-11.37.29-19.49 9.18-11.21 15.92-24.44 23.44-36.97 2.98-4.96 5.18-10.39 7.83-15.56 3.94-7.66 6.19-15.55 5.61-24.39-.55-8.34 3.21-10.49 10.3-6.24 3.96 2.37 7.59 5.39 11.01 8.51 4.92 4.49 5.08 6.86 1.37 12.53-4.83 7.38-9.77 14.69-14.65 22.04-8.28 12.47-16.54 24.95-24.81 37.43-2.72 4.1-1.78 6.48 3.04 6.43 8.14-.09 16.29-.66 24.42-1.22 1.1-.08 2.56-1.02 3.1-1.98 5.41-9.66 12.62-18.48 14.45-29.86.42-2.61.35-5.3.75-7.91.53-3.42 2.01-5.42 6.12-4.27 7.61 2.13 13.91 6.3 19.26 11.92 3.57 3.75 3.37 7-.01 11.03-21.17 25.25-42.35 50.5-63.41 75.84-1.68 2.02-2.43 4.82-3.61 7.25 2.66.11 5.36.59 7.96.26 10.36-1.31 20.68-2.86 31.42-4.37z"/><path d="m170.84 128.09c2.18-.41 4.09-.98 6.03-1.11 30.18-2.08 60.39-3.76 90.53-6.28 16.03-1.34 31.98-3.83 47.89-6.31 10.46-1.63 18.3 3.25 25.92 9.01 1.1.83 1.91 3.6 1.35 4.69-.74 1.43-2.91 2.75-4.6 2.94-7.75.88-15.54 1.33-23.32 1.97-31.95 2.65-63.89 5.34-95.85 7.96-9.77.8-19.54 1.73-29.33 2.05-6.93.23-17.21-8.1-18.62-14.92z"/><path d="m257.33 114.11c1.01-1.79 1.9-3.66 3.05-5.36 9.01-13.35 18.15-26.61 27.06-40.02 2.98-4.48 4.67-9.39 3.62-15.05-.73-3.96 1.49-6.04 5.49-5.39 8.93 1.44 16.83 5.14 23.17 11.69 3.57 3.69 3.26 6.95-.78 10.12-18.43 14.46-36.89 28.87-55.39 43.23-1.39 1.08-3.21 1.61-4.82 2.39-.47-.53-.94-1.07-1.4-1.61z"/><path d="m237.32 99.23c-.19 2.32-.16 4.67-.61 6.94-.81 4.02-2.15 7.9-6.91 8.72-4.67.8-8.15-1.41-10.42-5.29-4.61-7.89-9.14-15.82-13.42-23.89-2.56-4.83-4.78-9.88-6.74-14.98-.53-1.37-.06-3.78.9-4.84.7-.77 3.33-.68 4.49.03 8.48 5.14 16.91 10.38 25.14 15.91 6.09 4.08 8 10.28 7.57 17.4z"/></g><path d="m385.2 377.6.6-.6c.6.4 1.3.9 1.9 1.5l-.6.7c-.8-.6-1.4-1.1-1.9-1.6zm.3 7.1c.6-1.4 1.1-2.9 1.5-4.5.3.1.6.3.9.4-.5 1.4-1 2.9-1.5 4.4zm.2-10.1.6-.6c.7.5 1.3 1.1 1.9 1.6l-.7.7c-.6-.6-1.2-1.2-1.8-1.7zm8.4-.8h.8v.9h1.8v.7h-1.8v1.8h-.8v-.3h-1.2v.9h3.3v2.6h-.8v-.4h-2.5c0 .3 0 .6-.1.8h3.4v.7h-3.5c0 .3-.1.6-.1.8h4v.7h-3.5c.7.9 1.9 1.3 3.6 1.5-.2.2-.4.5-.6.9-1.9-.3-3.2-1.1-3.8-2.3-.5 1.1-1.8 2-3.9 2.4-.2-.3-.4-.5-.6-.8 1.9-.4 3.1-.9 3.6-1.7h-3.2v-.7h3.5c.1-.2.1-.5.2-.8h-3.3v-.7h3.4c0-.2 0-.5 0-.8h-2.4v.3h-.8v-2.6h3.3v-.9h-1.2v.3h-.8v-1.8h-1.8v-.7h1.8v-.9h.8v.9h3.2zm-4.4 5.5h2.4c0-.3 0-.6 0-.9h-2.4zm1.2-3.1h3.2v-.8h-3.2zm4.4 2.2h-2.4v.9h2.5v-.9z" fill="#fcfbfa"/><path d="m389.2 385.8h.9v1.5h1.8v-1.5h.9v1.5h2.7v6h1.1v.9h-11.3v-.9h1.1v-6h2.7v-1.5zm.2 8.7.5.8c-1.2.6-2.5 1.3-4 1.9-.2-.3-.3-.6-.6-.8 1.6-.6 3-1.3 4.1-1.9zm-2-4.3h1.9v-2.1h-1.9zm0 3.1h1.9v-2.2h-1.9zm2.7-3.1h1.9v-2.1h-1.9zm0 3.1h1.9v-2.2h-1.9zm2.4 1.3c1.4.6 2.7 1.2 4.1 1.8l-.5.9c-1.5-.7-2.8-1.4-4.1-1.9zm2.2-6.5h-1.9v2.1h1.9zm-1.9 5.2h1.9v-2.2h-1.9z" fill="#fcfbfa"/></svg>