<svg enable-background="new 0 0 400 400" viewBox="0 0 400 400" xmlns="http://www.w3.org/2000/svg"><path d="m5.17 384 .55-.58c.85.61 1.65 1.24 2.4 1.87l-.59.64c-.83-.73-1.62-1.38-2.36-1.93m1.22 9.53-.82-.34c.71-1.76 1.37-3.64 1.98-5.63.24.13.5.25.76.36-.6 1.67-1.24 3.54-1.92 5.61m-.5-13.5.57-.54c.56.44 1.31 1.06 2.26 1.87l-.65.64c-.67-.66-1.4-1.32-2.18-1.97m3.25.46h2.24v-1.36h.77v1.36h4.57v-1.36h.76v1.36h2.28v.69h-2.28v1.84h-2.64v1.26h4.18v2.64h-4.21c0 .45-.02.86-.05 1.21h4.32v.69h-4.38c-.04.34-.1.75-.19 1.22h5.15v.69h-4.82c.87 1.19 2.51 1.92 4.93 2.19-.17.31-.3.57-.37.76-2.77-.49-4.52-1.41-5.26-2.76-.56 1.26-2.3 2.23-5.24 2.9-.12-.24-.26-.48-.43-.72 2.73-.55 4.38-1.34 4.96-2.38h-4.38v-.69h4.65c.1-.38.17-.79.21-1.22h-4.32v-.69h4.4c.03-.34.05-.75.05-1.21h-4.2v-2.64h4.23v-1.26h-2.69v-1.84h-2.24zm1.46 4.46v1.29h3.45c.01-.4.02-.57.01-.53v-.32-.45h-3.46zm1.55-2.59h4.57v-1.19h-4.57zm6.11 2.59h-3.42v.77c-.01.19-.01.37-.02.53h3.44z" fill="#fafbfc"/><path d="m32.63 379.16h.82v1.98h3.54v7.89h1.46v.78h-14.37v-.78h1.46v-7.89h3.54v-1.98h.82v1.98h2.73zm-3.49 11.48.5.73c-1.61.82-3.28 1.63-5 2.42-.13-.27-.28-.55-.44-.82 1.75-.73 3.4-1.5 4.94-2.33m-2.78-5.55h2.73v-3.18h-2.73zm0 3.95h2.73v-3.2h-2.73zm3.54-3.95h2.73v-3.18h-2.73zm0 3.95h2.73v-3.2h-2.73zm7.89 4.68c-1.84-.92-3.51-1.7-5.02-2.32l.45-.73c1.89.8 3.57 1.55 5.04 2.23zm-1.62-11.81h-2.73v3.18h2.73zm-2.73 7.13h2.73v-3.2h-2.73z" fill="#fafbfc"/><g fill="#000001"><path d="m229.25 236.59c2.5 2.88 4.58 5.04 6.37 7.42 2.09 2.77 2.48 5.63.04 8.63-9 11.09-17.91 22.27-27.75 34.53 12.59 8.2 24.34 16.51 36.71 23.77 20.04 11.77 42.86 15.78 64.89 21.93 6.07 1.7 12.17 3.33 18.2 5.17 2.16.66 4.15 1.84 6.44 4.14-2.73 1.22-5.36 2.94-8.22 3.59-18.19 4.12-36.51 6.71-55.28 6.58-12.17-.08-20.71-6.38-28.83-13.89-14.29-13.2-28.32-26.68-42.98-40.54-12.77 13.98-27.54 26.55-45.54 34.61-17.52 7.85-35.23 15.31-54.92 14.84-.26-.54-.52-1.09-.78-1.63 1.63-1.01 3.19-2.16 4.9-3 20.88-10.25 42.51-19.26 60.59-34.36 8.5-7.1 16.38-14.96 25.44-23.31-13-10.26-24.88-19.64-37.16-29.33 6.73-4.21 13.15-3.59 18.88-.31 5.71 3.27 10.78 7.7 15.98 11.81 2.98 2.35 5.68 5.07 8.49 7.61 7.5-6.28 15.7-23.07 17.74-36.23-17.19-.63-34.27 6.65-52.22 1.16-15.77 11.76-31.75 24.99-52.45 29.57-.33-.46-.65-.93-.98-1.39 4.67-4.09 9.46-8.07 13.99-12.31 11.93-11.14 24.04-22.17 29.7-38.2.5-1.4 1.11-2.78 1.41-4.23.99-4.79 2.51-5.98 6.13-3.01 5.63 4.63 10.43 10.27 16.92 16.83 10.23-1.06 22.78-2.29 35.31-3.68 13.03-1.44 26.03-3.2 39.08-4.5 6.67-.66 11.75 3.05 16.22 7.49.94.94 1.77 2.78 1.48 3.91-.23.87-2.22 1.65-3.52 1.83-11.17 1.57-22.33 2.96-34.28 4.5z"/><path d="m282.72 162.16c-3.17 20.45-14.65 33.45-31.68 41.82-4.18 2.06-8.77 4.18-14.4 3.47 4.76-5.27 8.8-10.07 13.19-14.52 12.27-12.44 17.9-28.05 19.87-44.75 2.16-18.27 2.84-36.72 3.8-55.12.43-8.19-1.32-16.09-4.51-23.77-1.13-2.72-.44-6.2-.59-9.34 3.32.03 6.99-.83 9.9.29 4.75 1.83 9.11 4.77 13.41 7.6 3.01 1.98 4.24 4.92 2.87 8.68-4.71 12.89-4.37 26.36-4.64 41.35 8.03-8.74 18.37-13.28 22.65-23.94 1.72-4.28 6.1-5.86 9.1-2.54 4.03 4.46 7.09 9.88 9.94 15.23.44.83-2.05 4.34-3.81 5.05-11.52 4.66-23.18 8.98-34.87 13.2-2.69.97-3.94 2.36-4.3 5.21-.71 5.59-1.53 11.19-2.83 16.66-.7 2.96.38 3.86 2.65 5.3 10.35 6.57 20.67 13.21 30.67 20.3 8.02 5.68 10.93 14.15 9.85 23.66-.35 3.06-2.13 6.91-4.52 8.55-2.98 2.04-6.89.38-9.35-2.51-8.3-9.74-16.49-19.56-24.64-29.43-2.49-3.01-4.68-6.28-7.76-10.45z"/><path d="m126.38 123.62c6.61-5.94 14.14-10.84 17.12-19.69 1.42-4.23 4.61-5.13 7.71-2.47 3.57 3.07 6.77 6.76 9.37 10.69 1.85 2.8.85 5.23-2.88 6.9-10.48 4.67-20.71 9.87-31.01 14.94-.97.47-2.26 1.31-2.44 2.19-1.22 5.67-2.35 11.39-3.08 17.14-.12.97 1.6 2.67 2.84 3.24 9.47 4.35 18.06 9.87 25.2 17.59 3.72 4.02 5.65 15.82 3.06 20.64-2.09 3.88-6.97 4.52-10.48.63-5.11-5.66-9.74-11.78-14.33-17.88-2.96-3.94-5.49-8.2-8.83-13.26-6.54 27.07-21.27 45.14-49.13 50.12 4.02-4.53 7.93-9.16 12.08-13.57 15.05-15.98 23.05-35.18 25.13-56.75 1.56-16.19 2.85-32.49 2.83-48.73-.01-8.93-3.1-17.83-4.53-26.78-.39-2.41-.66-5.67.61-7.26.98-1.23 4.82-1.26 6.77-.41 5.75 2.5 11.48 5.29 16.58 8.88 1.74 1.22 2.85 5.59 2.09 7.76-5.25 14.95-3.97 30.5-4.68 46.08z"/><path d="m160.77 160.17c2.61 0 5.38-.76 7.42.13 7.76 3.39 15.46 1.11 23.05.1 8.85-1.18 17.59-3.31 26.33-5.25 4.55-1.01 8.46-.5 12.07 2.67 3.12 2.74 6.55 5.12 9.8 7.71 3.21 2.56 3.25 5.19.78 8.56-3.91 5.34-7.37 11.01-11.14 16.73 1.82 1.6 3.48 2.71 4.65 4.21 1.03 1.32 1.5 3.06 2.22 4.62-1.47.53-2.92 1.45-4.41 1.52-15.61.81-31.22 1.52-46.84 2.18-2.4.1-4.26.02-5.27 3.12-.93 2.84-5.4 2.51-7.15-.71-1.56-2.86-2.77-6.15-3.14-9.36-1.37-11.92-3.17-23.67-8.61-34.55-.1-.22.08-.6.24-1.68zm20.45 34.17c10.31-1.33 20.04-2.48 29.71-3.96 1.41-.22 3.24-1.8 3.73-3.16 1.55-4.36 2.52-8.93 3.78-13.4 1.05-3.73-.83-5.77-4.16-5.65-11.04.41-22.06 1.23-33.05 1.89-.01 8.42-.01 16.03-.01 24.28z"/><path d="m151.89 83.77c15.79-.66 30.26-1.27 44.84-1.89-2.72-9.4-5.33-18.41-7.93-27.42-.36-1.27-.84-2.55-.91-3.85-.19-3.56 1.88-4.9 4.66-3.07 6.2 4.09 12.15 8.58 17.99 13.17 1.05.82 1.48 2.89 1.55 4.41.2 4.44.07 8.9.07 14.03 3.61-.6 7.29-1.17 10.97-1.82 6.82-1.21 13.35-.29 19.11 3.52 1.77 1.17 2.57 3.82 3.81 5.79-1.85 1.15-3.61 3.08-5.56 3.31-13.34 1.57-26.72 2.89-40.11 4.08-9.41.84-18.85 1.75-28.29 1.91-8.23.14-14.69-3.76-20.2-12.17z"/><path d="m167.29 137.58c4.22-.52 8.44-1.05 12.66-1.55 11.37-1.34 22.75-2.55 34.1-4.05 6.82-.9 12.35 1.94 17.61 5.53 1.17.8 2.54 3.07 2.16 3.93-.57 1.31-2.53 2.64-4.02 2.8-7.26.8-14.56 1.15-21.84 1.77-7.94.68-15.91 1.18-23.79 2.29-8.41 1.19-12.24-4.89-17.36-9.04.17-.56.33-1.12.48-1.68z"/><path d="m187.35 121.89c-7.73 2.35-12.26-2.82-17.15-7.01-.64-.55-1.32-2.11-1.04-2.48.6-.77 1.78-1.39 2.79-1.5 13.2-1.38 26.42-2.62 39.62-3.98 6.79-.7 12.23 2.49 17.49 6.05 1.04.7 2.03 2.54 1.85 3.67-.16 1.05-1.81 2.02-2.98 2.72-.8.48-1.9.56-2.88.61-12.62.67-25.23 1.3-37.7 1.92z"/><path d="m102.15 137.63c-2.11 2.85-3.64 6.77-6.46 8.29-3.96 2.13-7.21-.81-9.11-4.59-4.7-9.33-9.43-18.65-13.89-28.1-.73-1.54-.12-3.7-.14-5.57 1.82.33 3.87.23 5.41 1.07 4.38 2.36 8.72 4.85 12.76 7.74 6.9 4.93 10.85 11.55 9.88 20.55.52.2 1.04.4 1.55.61z"/><path d="m267.05 125.34c-.34 3.99.38 8.87-4.51 10.53-5.42 1.83-8.3-2.17-10.48-6.27-3.59-6.73-7.05-13.54-10.27-20.45-.73-1.58-.26-3.72-.34-5.6 1.87.2 3.87.05 5.58.69 3.25 1.22 6.32 2.92 9.49 4.36 7.2 3.24 11.43 8.34 10.53 16.74z"/></g></svg>