<svg enable-background="new 0 0 400 400" viewBox="0 0 400 400" xmlns="http://www.w3.org/2000/svg"><path d="m5.17 384 .55-.58c.85.61 1.65 1.24 2.4 1.87l-.59.64c-.83-.73-1.62-1.38-2.36-1.93m1.22 9.53-.82-.34c.71-1.76 1.37-3.64 1.98-5.63.24.13.5.25.76.36-.6 1.67-1.24 3.54-1.92 5.61m-.5-13.5.57-.54c.56.44 1.31 1.06 2.26 1.87l-.65.64c-.67-.66-1.4-1.32-2.18-1.97m3.25.46h2.24v-1.36h.77v1.36h4.57v-1.36h.76v1.36h2.28v.69h-2.28v1.84h-2.64v1.26h4.18v2.64h-4.21c0 .45-.02.86-.05 1.21h4.32v.69h-4.38c-.04.34-.1.75-.19 1.22h5.15v.69h-4.82c.87 1.19 2.51 1.92 4.93 2.19-.17.31-.3.57-.37.76-2.77-.49-4.52-1.41-5.26-2.76-.56 1.26-2.3 2.23-5.24 2.9-.12-.24-.26-.48-.43-.72 2.73-.55 4.38-1.34 4.96-2.38h-4.38v-.69h4.65c.1-.38.17-.79.21-1.22h-4.32v-.69h4.4c.03-.34.05-.75.05-1.21h-4.2v-2.64h4.23v-1.26h-2.69v-1.84h-2.24zm1.46 4.46v1.29h3.45c.01-.4.02-.57.01-.53v-.32-.45h-3.46zm1.55-2.59h4.57v-1.19h-4.57zm6.11 2.59h-3.42v.77c-.01.19-.01.37-.02.53h3.44z" fill="#fafbfc"/><path d="m32.63 379.16h.82v1.98h3.54v7.89h1.46v.78h-14.37v-.78h1.46v-7.89h3.54v-1.98h.82v1.98h2.73zm-3.49 11.48.5.73c-1.61.82-3.28 1.63-5 2.42-.13-.27-.28-.55-.44-.82 1.75-.73 3.4-1.5 4.94-2.33m-2.78-5.55h2.73v-3.18h-2.73zm0 3.95h2.73v-3.2h-2.73zm3.54-3.95h2.73v-3.18h-2.73zm0 3.95h2.73v-3.2h-2.73zm7.89 4.68c-1.84-.92-3.51-1.7-5.02-2.32l.45-.73c1.89.8 3.57 1.55 5.04 2.23zm-1.62-11.81h-2.73v3.18h2.73zm-2.73 7.13h2.73v-3.2h-2.73z" fill="#fafbfc"/><g fill="#000001"><path d="m276.8 201.82c19.38-2.96 36.87-6.09 54.49-8.18 12.64-1.5 22.24 5.42 30.38 14.19 2.84 3.06 1.14 7.01-2.98 7.98-1.91.45-3.97.33-5.97.34-17.66.1-35.33-.03-52.98.32-11.41.23-22.81 1.15-32.78 1.69-.94 13.07-1.83 25.62-2.79 39.04 6.7-.99 12.95-1.52 19.01-2.89 13.25-3 23.41 2.65 32.46 11.21 3.9 3.68 2.75 7.25-2.72 7.68-7.9.63-15.9.12-23.85.11-8.13-.01-16.26 0-25.2 0-.23 11.43-.18 22.53-.75 33.59-.75 14.59-1.91 29.16-3.11 43.72-.21 2.58-1.12 5.25-2.34 7.54-.74 1.39-2.72 2.94-4.11 2.91-1.3-.02-3.29-1.82-3.7-3.22-1.29-4.42-2.67-8.99-2.8-13.53-.63-21.63-.86-43.28-1.23-64.92-.02-1.32 0-2.64 0-5.01-8.48 1.1-16.61 2.01-24.7 3.24-7.33 1.12-14.57 3.41-22 .51-4.65-1.82-8.39-4.53-10.65-10.51 19.07-2.46 37.67-4.87 56.35-7.28 0-10.14.11-19.79-.08-29.43-.05-2.24-.75-4.7-1.89-6.61-.76-1.26-2.99-2.62-4.31-2.41-18.99 3.06-37.93 6.46-56.91 9.62-8.83 1.47-16.89-.43-23.45-6.82-1.18-1.15-1.57-3.1-2.33-4.68 1.57-.69 3.09-1.79 4.72-2.01 20.9-2.84 41.81-5.55 62.72-8.32.44-.06.85-.39 1.4-.66-4.72-15.61-9.33-31.16-14.23-46.62-.44-1.38-2.58-2.85-4.13-3.12-5.82-1-10.76-3.41-14.62-7.86-.76-.87-.96-2.23-1.42-3.36 1.03-.4 2.04-1.09 3.09-1.17 9.95-.72 19.92-1.11 29.85-2.03 9.56-.89 19.07-2.3 28.98-3.53-5.24-9.04-10.16-17.29-14.79-25.7-.91-1.65-.67-3.94-.95-5.94 1.82.31 3.86.2 5.42 1 4.71 2.44 9.32 5.1 13.82 7.92 6.83 4.28 11.08 10.06 9.22 19.64 8.34-2.01 15.92-3.49 23.28-5.68 8.79-2.62 17.16-1.64 25.12 2.31 2.34 1.16 5.2 4 5.35 6.24.25 3.75-3.75 4.38-6.89 5-5.46 1.08-10.91 2.17-16.83 3.34 1.31 1.43 2.26 2.53 3.27 3.56 2.39 2.42 2.07 4.73.5 7.62-7.21 13.22-14.19 26.57-21.94 41.17zm-59.24-41.5c3.49 4.73 6.78 9.06 9.93 13.49 6.96 9.78 14.34 19.43 11.54 32.68-.04.19.37.48.8 1 7.04-1.11 14.22-2.52 21.46-3.26 3.33-.34 4.71-1.97 5.48-4.69 2.68-9.57 5.69-19.08 7.81-28.78 1.31-5.99 1.23-12.27 1.83-19.06-20.29 2.96-39.25 5.74-58.85 8.62z"/><path d="m106.74 180.06c-4.09 7.6-7.49 14.37-11.29 20.91-13.25 22.75-30.08 42.67-48.88 60.97-1.79 1.74-4.43 2.62-6.68 3.89-.48-.53-.97-1.05-1.45-1.58 1.4-2.29 2.76-4.6 4.19-6.87 13.68-21.66 28.1-42.89 40.79-65.11 8.42-14.74 14.37-30.9 21.42-46.43-.42-.38-.84-.76-1.25-1.14-3.87.6-7.72 1.55-11.61 1.74-8.24.4-16.54 1.04-24.72.36-6.19-.51-11.35-4.1-15.3-11.28 18.96-1.03 37.15-1.03 55.92-6.55-.98-16.64-1.09-33.62-3.36-50.32-.99-7.32-6.09-14.19-9.84-20.98-3.03-5.5-1.84-9.19 4.39-9.78 3.01-.28 6.56.02 9.13 1.42 6.7 3.64 13.02 7.98 19.44 12.13 4.3 2.78 5.04 6.58 3.23 11.27-6.39 16.58-6.84 34.07-7.65 51.49-.02.46.24.93.31 1.14 6.81-.84 13.52-2.41 20.19-2.26 4.74.11 9.58 2.18 14.06 4.11 1.69.73 3.8 3.86 3.41 5.24-.54 1.86-3.1 4-5.13 4.43-8.1 1.72-16.34 2.84-24.53 4.17-2.61.43-5.23.83-8.17 1.3v16.91c6.92 1.84 13.98 3.51 20.9 5.63 7.29 2.23 13.89 5.75 17.9 12.62 1.13 1.93 1.92 4.26 2.12 6.48.47 5.17-2.96 8.42-7.7 6.46-6.66-2.77-12.95-6.56-19.13-10.33-4.77-2.91-9.13-6.47-14.47-10.31v6.09c.05 48.49.06 96.98.19 145.46.02 8.71-2.12 16.78-6.32 24.28-3.36 5.99-7.82 6.2-10.54.06-4.44-10.04-11.06-19.71-9.29-31.48 1.13-7.52 3.91-14.83 4.75-22.36 2.05-18.29 3.99-36.63 4.85-55.01.84-17.96.29-35.98.34-53.98.03-.57-.07-1.15-.22-2.79z"/><path d="m281.17 89.36c-7.08-.75-13.93-1.18-20.65-2.4-1.76-.32-3.08-3.1-4.61-4.75 1.66-1.32 3.15-3.41 5.01-3.83 6.47-1.46 13.03-2.62 19.62-3.34 3.29-.36 4.7-1.69 5.15-4.73 1.38-9.3 4.16-18.51.26-27.94-1.36-3.3 1.16-5.48 4.07-5.24 3.65.3 7.57 1.19 10.73 2.95 14.4 8.04 14.42 8.64 5.55 22.08-1.54 2.33-2.89 4.79-5.19 8.62 5.22-1.51 9.18-2.31 12.86-3.78 11-4.4 19.77-.16 27.66 7.02 1.48 1.35 1.74 4.03 2.57 6.09-1.88.68-3.73 1.78-5.66 1.98-13.2 1.41-26.43 2.54-39.62 4.06-1.44.17-3.15 1.98-3.89 3.46-3.53 7.11-6.48 14.52-10.24 21.49-1.53 2.85-4.6 4.87-7.69 6.88-2.75-10.56 2.95-19.69 4.07-28.62z"/><path d="m217.35 121.84c-10.95-4.08-10.94-13.19-12.97-21.99-5.34 1.7-10.46 3.27-15.54 4.97-8.1 2.71-23.9-3.25-28.05-10.8-.72-1.32-.69-3.05-1.06-4.84 14.05-1.47 27.56-2.88 42.15-4.4-1.67-4.64-2.71-8.97-4.73-12.77-2.86-5.4-6.39-10.46-9.74-15.6-2.32-3.55-1.75-5.96 2.02-7.49 5.25-2.14 21.29 1.56 24.07 6.25 1.67 2.82 2.07 6.58 2.41 9.97.57 5.76.64 11.57.95 18.21 7.44-.68 14.32-1.31 21.21-1.95 2.48-.23 4.98-.84 7.42-.66 1.3.09 3.44 1.4 3.53 2.32.12 1.22-1.11 3.35-2.26 3.78-5.26 2-10.64 3.76-16.08 5.21-12.46 3.31-12.29 3.21-11.79 15.95.18 4.34-.93 8.72-1.54 13.84z"/></g></svg>