<svg enable-background="new 0 0 400 400" viewBox="0 0 400 400" xmlns="http://www.w3.org/2000/svg"><path d="m5.17 384 .55-.58c.85.61 1.65 1.24 2.4 1.87l-.59.64c-.83-.73-1.62-1.38-2.36-1.93m1.22 9.53-.82-.34c.71-1.76 1.37-3.64 1.98-5.63.24.13.5.25.76.36-.6 1.67-1.24 3.54-1.92 5.61m-.5-13.5.57-.54c.56.44 1.31 1.06 2.26 1.87l-.65.64c-.67-.66-1.4-1.32-2.18-1.97m3.25.46h2.24v-1.36h.77v1.36h4.57v-1.36h.76v1.36h2.28v.69h-2.28v1.84h-2.64v1.26h4.18v2.64h-4.21c0 .45-.02.86-.05 1.21h4.32v.69h-4.38c-.04.34-.1.75-.19 1.22h5.15v.69h-4.82c.87 1.19 2.51 1.92 4.93 2.19-.17.31-.3.57-.37.76-2.77-.49-4.52-1.41-5.26-2.76-.56 1.26-2.3 2.23-5.24 2.9-.12-.24-.26-.48-.43-.72 2.73-.55 4.38-1.34 4.96-2.38h-4.38v-.69h4.65c.1-.38.17-.79.21-1.22h-4.32v-.69h4.4c.03-.34.05-.75.05-1.21h-4.2v-2.64h4.23v-1.26h-2.69v-1.84h-2.24zm1.46 4.46v1.29h3.45c.01-.4.02-.57.01-.53v-.32-.45h-3.46zm1.55-2.59h4.57v-1.19h-4.57zm6.11 2.59h-3.42v.77c-.01.19-.01.37-.02.53h3.44z" fill="#fafbfc"/><path d="m32.63 379.16h.82v1.98h3.54v7.89h1.46v.78h-14.37v-.78h1.46v-7.89h3.54v-1.98h.82v1.98h2.73zm-3.49 11.48.5.73c-1.61.82-3.28 1.63-5 2.42-.13-.27-.28-.55-.44-.82 1.75-.73 3.4-1.5 4.94-2.33m-2.78-5.55h2.73v-3.18h-2.73zm0 3.95h2.73v-3.2h-2.73zm3.54-3.95h2.73v-3.18h-2.73zm0 3.95h2.73v-3.2h-2.73zm7.89 4.68c-1.84-.92-3.51-1.7-5.02-2.32l.45-.73c1.89.8 3.57 1.55 5.04 2.23zm-1.62-11.81h-2.73v3.18h2.73zm-2.73 7.13h2.73v-3.2h-2.73z" fill="#fafbfc"/><g fill="#000001"><path d="m116.24 174.14c-11.3 32.02-31.77 57.61-54.69 81.57-3.54 3.71-3.65 3.61-8.14 2.74 26.29-34.22 43.15-72.78 56.35-114.36-17 3.19-33.21 6.34-45.94-10.61 3.3-.65 5.43-1.24 7.6-1.47 13.72-1.4 27.44-2.83 41.18-3.98 3.41-.28 3.97-1.75 4.04-4.73.5-21.21-1.39-42.16-6.06-62.86-1.27-5.63 2.21-9.42 7.41-7.12 7.36 3.26 14.43 7.44 20.96 12.15 1.77 1.28 1.76 5.97 1.47 8.99-1.54 15.83-3.43 31.63-5.17 47.44-.05.44.28.92.56 1.74 8.04-1.89 16.05-2.28 23.82 1.16.3.13.66.14.95.29 3.41 1.68 8.2 3.18 7.02 7.64-.59 2.24-5.1 4.17-8.16 4.86-5.97 1.35-12.16 1.71-18.26 2.51-2.25.29-4.49.66-6.38.93-.35.72-.48.87-.49 1.03-1.01 13.48-.93 13.3 11.55 18.44 4.86 2 9.45 4.8 13.85 7.71 4.29 2.83 7.23 15.58 5.14 20.37-1.77 4.08-7.15 5.22-10.98 1.9-4.52-3.91-8.71-8.21-12.95-12.43-2.23-2.21-4.27-4.61-7.52-8.15v6.99c0 44.66.06 89.33-.06 133.99-.02 7.47-.84 14.94-1.29 22.41-.01.17.02.35-.03.5-1.66 4.42-2.15 10.41-7.7 11.19-5.28.74-6.28-5.23-8.23-8.67-6.24-11.03-6.46-22.67-4.42-35.19 2.31-14.21 2.82-28.77 3.21-43.21.72-26.46.77-52.94 1.12-79.42.03-1.44.16-2.9.24-4.35z"/><path d="m203.05 154.31c0 11.03.14 21.66-.03 32.28-.56 36.28-1.63 72.56-1.68 108.85-.02 17.46 1.14 17.55 16.67 17.24 24.91-.5 49.8-2.25 74.69-3.64 10.79-.6 21.55-1.76 32.34-2.37 8.66-.49 14.8 4.35 19.79 10.71 2.87 3.66 1.16 7.54-3.66 8.5-2.89.57-5.96.2-8.95.32-32.07 1.26-64.15 2.38-96.21 3.88-10.77.5-21.49 1.89-32.22 3.06-2.6.28-5.22 1.07-7.64 2.08-7.09 2.99-14.44-.99-15.32-8.67-.26-2.26.08-4.63.41-6.92 1.13-7.88 3.29-15.72 3.41-23.6.59-41.3.93-82.6.71-123.9-.05-8.42.97-17.25-3.33-25.45-2.01-3.83.41-6.51 5-6.76 19.26-1.04 38.55-1.63 57.77-3.19 19.69-1.59 39.31-4.06 58.94-6.27 9.23-1.04 16.25 3.55 23.03 8.71.91.69 1.6 3.28 1.09 3.88-1.16 1.36-3.06 2.66-4.78 2.84-5.94.64-11.95.73-17.92 1.15-23.04 1.62-46.08 3.28-69.12 4.93-10.42.74-20.86 1.47-32.99 2.34z"/><path d="m282.91 240.93c6.49 0 11.58-.2 16.64.07 3.3.17 5.17-1.05 5.4-4.22.47-6.45.82-12.92 1.02-19.39.16-5.33-.25-10.68.1-15.99.49-7.47-3.9-8.78-9.22-8.8-5.77-.01-11.54.96-17.85 1.55 0 1.84.02 3.46 0 5.08-.33 28.3-.5 56.6-1.1 84.9-.17 7.87-.4 16.04-6.83 23.53-1.58-2.88-3.13-5.24-4.23-7.79-4.1-9.43-3.32-19.59-3.73-29.46-1.03-24.57-1.51-49.16-2.24-74.38-7.89.5-15.42.97-23.7 1.5 0 1.99.04 3.92-.01 5.85-.33 15.63-.43 31.28-1.18 46.89-.21 4.33-2.01 8.71-3.72 12.8-1.58 3.8-4.87 4.31-7.44 1.28-4.48-5.27-7.37-11.54-5.51-18.42 4.35-16.04 2.95-31.91-.06-47.86-.43-2.28-.94-4.55-1.29-6.85-.57-3.8 1.45-6.16 5.07-5.09 12.39 3.67 24.23-1.61 37.75-1.15-1.53-7.68-2.95-14.55-4.25-21.43-.4-2.1-1.34-5.58-.52-6.13 2.27-1.51 5.71-3 8.03-2.3 4.69 1.41 9.16 3.94 13.32 6.63 3.56 2.3 5.08 5.89 3.82 10.4-.88 3.16-1.25 6.46-1.97 10.36 8.22.63 15.93-.7 23.24-3.67 3.91-1.58 7-1.48 10.13 1.17.51.43 1 .91 1.57 1.22 8.79 4.83 11.03 12.32 9.94 21.91-.99 8.73-.66 17.6-1.18 26.39-.44 7.29-.45 14.76-2.21 21.75-1.23 4.88-4.76 9.36-7.96 13.49-2.06 2.67-5.46 2.42-7.9-.16-7.02-7.49-13.97-15.08-21.93-23.68z"/><path d="m258.73 64.87c2.33-.17 4.5-.89 6.32-.37 10.35 2.97 20.45.39 30.54-1.23 5.54-.89 10.87-3.02 16.4-3.99 2.78-.49 6.24-.47 8.62.77 5.43 2.84 10.51 6.4 15.49 10.02 3.33 2.42 2.45 5.52.81 8.89-3.99 8.16-7.78 16.43-11.16 24.85-.54 1.34 1.49 3.71 2.35 5.59.77 1.67 1.58 3.31 2.37 4.97-1.62.56-3.23 1.54-4.87 1.61-10.63.44-21.27.83-31.92.93-4.42.04-8.86-.64-13.59-1.02-.16.29-.48.84-.78 1.41-.84 1.57-1.67 3.14-2.5 4.71-2.19-1.2-5.53-1.89-6.34-3.7-1.85-4.16-2.76-8.82-3.51-13.37-1.54-9.32-2.52-18.73-4.17-28.03-.68-3.83-2.48-7.48-4.06-12.04zm22.39 41.67c8.7-.93 17.22-1.76 25.7-2.86 1.09-.14 2.73-1.58 2.87-2.59.96-6.71 1.52-13.47 2.33-20.21.48-4.01-1.6-6.38-5.14-6.41-8.53-.08-17.06.44-25.76.73z"/><path d="m192.7 122.5c-.69 2.36-1.29 4.39-1.86 6.35-5.27 1.12-8.17-1.43-8.97-5.85-1.59-8.8-2.35-17.74-4-26.52-1.37-7.29-3.53-14.43-5.28-21.65-.29-1.21-.66-3.4-.24-3.61 1.51-.75 3.61-1.57 5.01-1.05 10.08 3.68 20.07 1.1 29.99-.32 6.04-.86 11.9-2.96 17.89-4.3 2.21-.5 5.05-1.34 6.74-.43 6.24 3.39 12.33 7.16 17.96 11.47 1.21.93.92 4.94.15 7.12-3.06 8.56-6.68 16.91-9.81 25.44-.38 1.03.91 2.73 1.54 4.07.87 1.84 1.85 3.62 2.79 5.43-1.78.59-3.53 1.62-5.34 1.71-15.42.8-30.84 1.44-46.57 2.14zm31.99-14.95c.39-7.45.88-14.38 1.04-21.31.07-2.9-.73-6.11-4.44-6.08-9.18.08-18.37.56-27.79.88v31.05c10.43-1.51 20.53-2.99 31.19-4.54z"/></g></svg>