<svg enable-background="new 0 0 400 400" viewBox="0 0 400 400" xmlns="http://www.w3.org/2000/svg"><g fill="#010102"><path d="m151.39 281.81c5.27-1.52 9.39-2.69 13.5-3.9.62-.18 1.25-.87 1.78-.77 2.73.49 5.42 1.15 8.13 1.75-1.81 1.69-3.32 4.19-5.46 4.95-20.46 7.28-41.06 14.21-61.57 21.37-16.92 5.91-33.79 11.99-50.67 18.02-6.18 2.21-19.94-3.35-22.75-9.23-1.44-3 .4-5.9 4.05-6.14 5.63-.37 11.27-.62 16.91-.89 6.44-.31 7.29-.86 6.15-6.97-3.08-16.46-6.35-32.89-9.95-49.25-1.13-5.13-3.55-9.98-5.35-14.97-1.87-5.18-.37-7.7 5.01-7.09 25.09 2.84 49.37-2.85 73.77-6.93 5.31-.89 10.51-3.08 15.46-5.35 3.47-1.59 6.62-2.19 9.97-.49 5.42 2.77 11.19 5.12 15.99 8.74 5.04 3.8 4.86 7.94 1.55 13.47-7.92 13.24-12.47 27.74-16.52 43.68zm-33.34 9.86c6.2-1.74 11.72-2.98 16.97-4.92 1.91-.71 4.09-2.87 4.61-4.78 2.03-7.52 3.93-15.13 4.94-22.83 1.03-7.84 1.19-15.82 1.23-23.75.02-3.52-2.02-6.81-6-6.75-6.51.1-13.01.92-21.06 1.57 10.14 8.61 7.78 18.28 5.79 27.99-2.22 10.82-4.21 21.7-6.48 33.47zm-54.05-49.9c2.5 20.75 4.92 40.9 7.41 61.58 6.7-1.56 12.75-2.96 19.01-4.42-7.17-20.16-7.16-40.48-5.49-61.52-7.22 1.5-13.79 2.87-20.93 4.36zm47.56 51.23c.46-15.28 1.01-30.38 1.31-45.48.08-3.79-.41-7.64-1.08-11.38-.2-1.13-2-2.91-2.9-2.81-6.57.67-13.1 1.74-19.94 2.73 7.88 19.94 7.32 40.4 7.19 61.39 5.1-1.48 9.68-2.8 15.42-4.45z"/><path d="m247.73 207.06c1.35-.78 2.52-2.02 3.25-1.8 7.05 2.1 14.1 4.25 20.95 6.91 1.05.41 1.64 3.56 1.42 5.31-.38 3.06-1.56 6.03-2.7 10.09 4.5-.31 8.39-.24 12.15-.88 17.65-3.01 35.22-6.47 52.9-9.27 9.75-1.54 19.58-1.17 28.92 2.74 1.52.63 3.21 1.35 4.24 2.53 2.17 2.51 5.74 5.52 5.51 8.03-.39 4.3-5.26 3.54-8.65 3.65-20.45.65-40.9 1.03-61.34 1.88-10.59.44-21.16 1.66-31.87 2.53-.39 6.3-.86 12.08-1.08 17.86-.54 14.3-.87 28.6-1.46 42.9-.48 11.44-.83 22.92-2.02 34.3-.5 4.81-2.65 9.57-4.74 14.04-.89 1.89-3.56 4.1-5.4 4.08-1.89-.02-4.53-2.19-5.49-4.1-4.39-8.69-5.42-18.03-3.97-27.63 1.8-11.96 4.03-23.87 5.35-35.89 1.42-12.87 2-25.84 2.93-38.77.07-.97.01-1.94.01-4.06-8.93 1-17.72 1.35-26.22 3.11-10.5 2.17-20.72 5.68-31.15 8.25-2.92.72-6.58 1.09-9.15-.05-5.71-2.54-11.01-6.03-16.3-9.39-.98-.62-1.84-2.7-1.52-3.72.28-.88 2.26-1.64 3.55-1.75 20.68-1.76 41.38-3.36 62.06-5.12 5.45-.46 10.9-1.14 16.27-2.14 1.03-.19 2.64-2.68 2.36-3.6-1.46-4.71-3.35-9.3-5.29-13.84-.9-2.08-2.24-3.96-3.52-6.2z"/><path d="m87.98 107.18c4.72 2.36 8.64 4.31 13.66 6.81 2.43-9.68 4.81-19.17 7.3-29.1-11.43.46-21.49.95-31.56 1.22-2.78.07-5.7-.12-8.34-.9-1.74-.52-3.1-2.31-4.62-3.53 1.63-1.18 3.1-2.99 4.9-3.43 7.73-1.89 15.61-3.14 23.34-5.05 18.02-4.46 35.87-9.69 54.03-13.49 6.32-1.32 13.4.26 20 1.32 1.98.32 3.52 3.36 5.27 5.15-1.88 1.64-3.52 4.15-5.69 4.77-14.33 4.05-28.78 7.69-43.19 11.49-.45.12-.84.5-1.27.76 7.43 8.05 7.36 8.01 1.62 18.22-3.82 6.81-7.57 13.67-10.97 20.7-.87 1.8-.92 4.52-.27 6.44 5.51 16.17 6.56 32.84 5.46 49.66-.59 8.91-2.21 17.76-3.48 26.62-.23 1.61-.69 3.36-1.61 4.65-1.24 1.74-3.25 4.5-4.52 4.3-2.2-.35-4.81-2.23-5.98-4.21-2.82-4.79-3.16-10.05-2.66-15.79 1.3-15 1.7-30.07 2.36-45.12.07-1.58-.57-3.19-1.06-5.64-4.7 6.73-8.84 12.9-13.22 18.87-12.48 17.02-26.88 32.2-44.15 44.44-2.97 2.1-6.78 3.02-10.2 4.49-.32-.55-.63-1.11-.95-1.66.72-1.02 1.28-2.21 2.17-3.04 22.21-20.69 40.09-44.7 55.75-70.63 4.88-8.08 4.29-14.61-.28-21.85-.7-1.11-1.28-2.32-1.8-3.52-.19-.43-.04-.99-.04-2.95z"/><path d="m260.55 94.19c4.34-1.92 7.73-2.85 10.46-4.74 8.09-5.6 14.55-1.53 20.79 3.18 6.78 5.1 5.99 5.01 2.86 12.92-2.18 5.52-3.13 11.88-3.11 17.86.09 18.12 1.22 36.23 1.33 54.35.05 7.96-1.48 15.84-6.21 22.75-2.89 4.22-4.84 4.34-7.46-.17-1.5-2.59-3.03-5.18-4.23-7.9-1.45-3.29-3.96-3.63-6.99-3.12-5.2.88-10.4 1.73-15.6 2.59-1.86 2.93-3.94 6.18-6.32 9.92-6.3-6.31-6.94-13.62-6.92-20.59.03-12.78 1.79-25.59 1.46-38.34-.34-12.89-2.25-25.74-3.69-38.58-.23-2.03-1.69-3.9-2.48-5.89-.45-1.12-1.32-2.76-.88-3.37.6-.85 2.28-1.36 3.46-1.29 3.63.21 7.23.98 10.85 1.05 1.25.02 3.34-1.13 3.66-2.17 4.14-13.65 8.83-27.26 8.27-41.79-.13-3.45-1.95-6.83-2.9-10.27-.41-1.5-.58-3.07-.86-4.6 1.69-.23 3.73-1.18 5-.56 6.38 3.13 12.68 6.48 18.76 10.16 3.45 2.08 4.17 5.24 1.88 9-4.53 7.45-9.04 14.94-13.2 22.6-2.75 5.04-4.89 10.4-7.93 17zm-7.92 43.96c.61-.1 1.4-.21 2.18-.37 4.5-.94 8.99-2.46 13.51-2.59 1.95-.05 3.98 2.77 5.97 4.28-1.55 1.68-2.84 4.35-4.7 4.85-5.49 1.46-11.2 2.06-17.14 3.05v34.18c8.37-.68 16.38-1.33 24.84-2.02-.03.08.31-.51.4-1.14 3.22-21.69 2.31-43.44.95-65.19-.18-2.94-.8-6.03-2.05-8.65-.86-1.81-3.16-4.15-4.81-4.15-7.51.01-15.03.77-22.01 1.22 1.01 12.9 1.93 24.62 2.86 36.53z"/><path d="m311.65 180.88c8.88-2.6 17.73-5.32 26.66-7.72 3.11-.83 3-2.69 2.38-4.89-.92-3.27-2.05-6.48-3.44-10.8 8.45 3.48 16.04 6.14 21.44 12.56 3.33 3.96 3.68 13.63.9 18.05-2 3.18-4.56 4.05-7.21.99-2.25-2.61-4.19-5.52-6-8.47-1.37-2.22-2.63-3.05-5.17-1.55-9.43 5.58-19.06 10.83-28.39 16.55-5.38 3.3-5.75 3.54-9.04-2.09-2.18-3.73-4.17-7.57-6.17-11.4-1.71-3.28-.75-6.17 2.47-7.48 9.03-3.68 14.32-11.18 19.56-18.67 4.45-6.36 8.47-13.03 13.38-20.65-8.74.56-15.85 2.31-21.82 6.81-3.29 2.48-4.98 1.42-6.96-1.05-1.04-1.3-1.98-2.68-2.95-4.03-4.63-6.44-4.4-6.73 1.23-11.97 12.23-11.39 19.25-25.71 22.28-41.96.98-5.27.87-10.76 1.15-16.16.15-2.81 3.14-4.66 5.83-2.62 5.26 3.97 10.14 8.52 14.63 13.34.72.77-1 4.45-2.26 6.34-9.66 14.52-19.48 28.94-29.99 44.5 7.94 0 14.67.04 21.41-.05.71-.01 1.7-.56 2.08-1.17 3.92-6.22 9.17-11.97 7.41-20.32-.2-.95.2-2.66.85-3 .95-.5 2.74-.56 3.55.03 4.97 3.62 9.84 7.37 14.57 11.29 2.96 2.45 2.73 5.47-.27 7.58-16.02 11.29-27.5 26.94-40.12 41.49-4.34 5-8.42 10.24-12.61 15.36.21.41.41.78.62 1.16z"/><path d="m194.74 195.73c6.93-1.27 13.86-2.53 21.16-3.87-1.31-5.01-2.43-9.33-3.6-13.82 12.49-.5 24.04 14.74 19.89 25.28-.76 1.92-2.68 4.36-4.38 4.64-1.44.23-3.68-2.05-4.94-3.7-1.68-2.2-2.75-4.86-4.26-7.66-9.61 4.56-20.03 6.88-27.19 15.34-.56.67-3.32.5-4.14-.26-2.29-2.13-4.35-4.61-6.03-7.25-3.9-6.12-3.4-7.07 1.77-12.01 2.96-2.82 5.57-6.25 7.52-9.85 5.83-10.79 11.26-21.8 17.4-33.82-7.87 1.16-13.09 4.31-17.58 8.9-3.47 3.55-5.59 3.56-8.05-.75-1.69-2.96-2.56-6.43-3.52-9.75-.27-.92.11-2.53.8-3.15 6.18-5.57 7.82-13.37 10.18-20.73 4.13-12.93 6.17-26.22 5.14-39.82-.27-3.6-1.65-7.1-2.1-10.69-.26-2.11.32-4.32.52-6.48 1.88.19 3.99-.11 5.58.66 4.92 2.37 9.85 4.85 14.41 7.84 6.21 4.06 5.96 5.14 2.84 11.67-6.24 13.03-12.14 26.23-18.02 39.43-2.56 5.75-4.73 11.67-7.14 17.69 6.55-.61 12.75-1.09 18.92-1.87.97-.12 2.24-1.45 2.59-2.48 2.15-6.34 5.92-12.41 3.38-19.65-.37-1.05.38-3.17 1.29-3.79.79-.54 2.87-.05 3.82.69 3.13 2.46 6.19 5.07 8.95 7.93 4.69 4.86 4.14 6.36.01 11.71-5.18 6.7-9.81 13.86-14.25 21.08-7.56 12.28-14.78 24.76-22.14 37.15.39.46.78.92 1.17 1.39z"/><path d="m373.1 314.06c-.76 4.74-1.74 8.63-5.86 10.58-4.15 1.97-8.03.24-10.93-2.69-7.36-7.44-14.12-15.5-21.67-22.74-11.03-10.57-22.57-20.6-33.79-30.97-1.22-1.12-1.72-3.02-2.56-4.55 2.03-.4 4.33-1.63 6.04-1.07 14.9 4.85 29.32 11.03 41.66 20.78 8.02 6.34 15.13 13.9 22.21 21.33 2.35 2.44 3.31 6.18 4.9 9.33z"/><path d="m151.11 329.58c1.62-1.74 3.04-3.73 4.88-5.19 10.5-8.35 21.67-15.97 31.45-25.08 5.92-5.51 10.13-13.05 14.33-20.13 2.02-3.41 2.02-7.96 3.35-11.85 1.63-4.79 4.98-6.13 8.82-2.99 4.94 4.05 9.33 8.8 13.8 13.4 2.4 2.47 1.48 5.03-.85 6.9-10.72 8.6-21.13 17.67-32.43 25.45-10.47 7.21-21.84 13.16-33.02 19.29-2.66 1.46-6.11 1.47-9.19 2.15-.37-.66-.76-1.31-1.14-1.95z"/><path d="m124.54 131.88c2.24.27 4.89-.14 6.65.92 9.22 5.53 19.66 10.05 26.88 17.6 6.98 7.3 11.18 17.68 10.94 28.63-.06 2.47-1.83 4.9-3.21 8.31-18.41-15.65-29.4-35.21-41.94-53.56.23-.63.45-1.26.68-1.9z"/></g><path d="m378.6 9.2.8-1c.9.7 1.9 1.4 2.9 2.3l-.9 1.1c-1.1-.9-2-1.7-2.8-2.4zm.5 10.7c.9-2.1 1.6-4.3 2.3-6.7.4.2.8.4 1.3.6-.7 3.1-1.5 4.3-2.2 6.6zm.4-15.2.9-.9c1 .8 2 1.6 2.8 2.4l-1 1c-1-.9-1.9-1.8-2.7-2.5zm12.5-1.3h1.2v1.4h2.7v1.1h-2.7v2.7h-1.2v-.5h-1.8v1.3h4.9v3.8h-1.2v-.5h-3.7c0 .4-.1.9-.1 1.2h5.1v1h-5.2c0 .5-.1.9-.3 1.2h6v1h-5.2c1.1 1.3 2.9 2 5.5 2.2-.4.4-.7.8-.9 1.3-2.9-.5-4.8-1.6-5.7-3.5h-.1c-.8 1.7-2.7 2.9-5.9 3.6-.2-.4-.6-.8-.9-1.1 2.8-.6 4.6-1.4 5.4-2.5h-4.8v-1h5.3c.1-.3.2-.7.2-1.2h-4.9v-1h5c0-.4 0-.8.1-1.2h-3.6v.5h-1.2v-3.8h4.9v-1.3h-1.8v.5h-1.1v-2.7h-2.6v-1.1h2.6v-1.4h1.2v1.4h4.7v-1.4zm-6.7 8.4h3.6c0-.4 0-.9 0-1.4h-3.6zm1.9-4.7h4.7v-1.2h-4.7zm6.7 3.3h-3.7v1.4h3.7z" fill="#fcfafa"/><path d="m384.7 21.4h1.3v2.2h2.8v-2.2h1.3v2.2h4.1v9.1h1.7v1.3h-16.9v-1.3h1.7v-9.1h4.1v-2.2zm.3 13.2.7 1.2c-1.8.9-3.8 1.9-6 2.9-.2-.4-.5-.8-.8-1.3 2.4-1 4.4-2 6.1-2.8zm-3.1-6.5h2.8v-3.2h-2.8zm0 4.6h2.8v-3.3h-2.8v3.2zm4.1-4.6h2.8v-3.2h-2.8zm0 4.6h2.8v-3.3h-2.8zm3.6 1.9c2.1.9 4.1 1.8 6.1 2.7l-.7 1.3c-2.2-1.1-4.2-2-6.1-2.9zm3.3-9.7h-2.8v3.2h2.8zm-2.8 7.8h2.8v-3.3h-2.8z" fill="#fcfafa"/></svg>