<svg enable-background="new 0 0 400 400" viewBox="0 0 400 400" xmlns="http://www.w3.org/2000/svg"><path d="m385.2 377.6.6-.6c.6.4 1.3.9 1.9 1.5l-.6.7c-.8-.6-1.4-1.1-1.9-1.6zm.3 7.1c.6-1.4 1.1-2.9 1.5-4.5.3.1.6.3.9.4-.5 1.4-1 2.9-1.5 4.4l-.9-.2zm.2-10.1.6-.6c.7.5 1.3 1.1 1.9 1.6l-.7.7c-.6-.6-1.2-1.2-1.8-1.7zm8.4-.8h.8v.9h1.8v.7h-1.8v1.8h-.8v-.3h-1.2v.9h3.3v2.6h-.8v-.4h-2.5c0 .3 0 .6-.1.8h3.4v.7h-3.5c0 .3-.1.6-.1.8h4v.7h-3.5c.7.9 1.9 1.3 3.6 1.5-.2.2-.4.5-.6.9-1.9-.3-3.2-1.1-3.8-2.3-.5 1.1-1.8 2-3.9 2.4-.2-.3-.4-.5-.6-.8 1.9-.4 3.1-.9 3.6-1.7h-3.2v-.7h3.5c.1-.2.1-.5.2-.8h-3.3v-.7h3.4c0-.2 0-.5 0-.8h-2.4v.3h-.8v-2.6h3.3v-.9h-1.2v.3h-.8v-1.8h-1.8v-.7h1.8v-.9h.8v.9h3.2zm-4.4 5.5h2.4c0-.3 0-.6 0-.9h-2.4zm1.2-3.1h3.2v-.8h-3.2zm4.4 2.2h-2.4v.9h2.5v-.9z" fill="#fcfafa"/><path d="m389.2 385.8h.9v1.5h1.8v-1.5h.9v1.5h2.7v6h1.1v.9h-11.3v-.9h1.1v-6h2.7v-1.5zm.2 8.7.5.8c-1.2.6-2.5 1.3-4 1.9-.2-.3-.3-.6-.6-.8 1.6-.6 3-1.3 4.1-1.9zm-2-4.3h1.9v-2.1h-1.9zm0 3.1h1.9v-2.2h-1.9zm2.7-3.1h1.9v-2.1h-1.9zm.1 3.1h1.9v-2.2h-1.9zm2.3 1.3c1.4.6 2.7 1.2 4.1 1.8l-.5.9c-1.5-.7-2.8-1.4-4.1-1.9zm2.2-6.5h-1.9v2.1h1.9zm-1.9 5.2h1.9v-2.2h-1.9z" fill="#fcfafa"/><g fill="#010101"><path d="m134.63 246.74c-1.96 8.94-3.21 17.54-5.76 25.73-6.11 19.61-16.04 37.03-32.99 49.31-7.92 5.73-16.76 10.27-27.06 10.29-.92 0-1.85-.24-3.98-.53 2.03-2.2 3.3-3.77 4.77-5.14 7.88-7.39 16.32-14.27 23.62-22.2 14.18-15.4 21.4-34.23 24.59-54.68 1.73-11.12 3.03-22.32 4.6-34.05-9.95.59-19.09 1.12-28.76 1.69-.51 2.15-1.19 4.98-1.86 7.81-4.56 1.07-7.62-.65-8.73-4.7-1.67-6.05-3.43-12.21-3.99-18.42-1.39-15.38-1.53-30.9-3.31-46.22-1.29-11.1-4.43-22-6.71-32.99-.13-.63-.02-1.31-.02-2.79 2.46.23 5.17-.21 7.12.8 8.84 4.58 18 3.39 27.2 2.13 6.4-.87 12.77-1.91 19.66-2.95-.91-12.91-.58-25.67-5.22-37.95-1.28-3.39-2.11-8.55-.43-11.11 2.59-3.94 7.53-1.8 11.36-.08 3.33 1.49 6.74 2.97 9.72 5.02 7.32 5.03 8.52 9.05 5.33 17.23-3.1 7.95-5.34 15.98-4.38 24.73 10.52-1.31 21.1-1.27 30.81-4.15 14.01-4.15 21.73 4.35 30.36 11.99 2.59 2.29 3.53 5.29.93 7.86-9.02 8.95-9.59 20.69-11.5 32.17-2.62 15.69-5.71 31.3-8.98 46.87-.88 4.19-1.83 10.33-6.92 10.23-3.59-.07-7.05-4.52-10.65-6.87-1.64-1.07-3.5-2.58-5.26-2.57-6.79.04-13.58.6-20.74.99-.67 6.72-1.5 13.26-1.81 19.83-.06 1.34 1.61 3.04 2.87 4.14 11 9.65 22.15 19.13 33.12 28.82 7.99 7.05 11.66 15.88 10.66 26.68-.38 4.08-.92 7.8-5.3 9.19-4.83 1.52-6.89-2.28-8.96-5.45-9.44-14.49-18.76-29.06-28.17-43.56-1.56-2.35-3.35-4.53-5.23-7.1zm41.24-87.59c0-7.94.34-15.54-.11-23.1-.38-6.32-3.27-8.92-9.76-8.77-9.08.21-18.14 1.09-27.41 1.7v29.7c12.59-.08 24.76-4.27 37.28.47zm-7.55 41.65c1.97-9.37 4.13-19.67 6.24-29.71-12.67 0-24.49 0-36.72 0v31.41c9.91-.56 19.44-1.09 30.48-1.7zm-44.87-39.54c0-10.41 0-20.17 0-30.63-11.37 1.33-22.18 2.59-33.8 3.95.75 10.23 1.47 20.07 2.21 30.24 11.04-1.24 21.35-2.41 31.59-3.56zm-30.59 11.47c.53 11.46 1.07 23.14 1.62 35.09 9.47-1.12 18.62-2.2 28.54-3.38 0-10.49 0-20.83 0-31.71-9.84 0-19.88 0-30.16 0z"/><path d="m250.52 243.6c-3.82 12.2-6.75 24.5-11.49 36.04-9.4 22.87-26.47 38.71-48.75 49-2.7 1.24-5.97 1.24-8.97 1.82-.35-.52-.7-1.04-1.05-1.57 1.36-1.61 2.46-3.57 4.1-4.78 29.44-21.61 44.37-51.29 48.62-86.97 1.16-9.73 2.99-19.43 3.39-29.18.32-7.54-1.21-15.15-1.7-22.74-.16-2.46-.42-5.7.91-7.23 1-1.14 4.62-.56 6.83.09 2.84.82 5.51 2.33 8.12 3.8 9.05 5.11 9.73 7.48 7.14 17.51-1.9 7.37-3.2 14.91-4.35 22.44-.29 1.89.67 4.22 1.65 6.02 12.38 22.69 27.28 43.67 42.92 64.21 8.73 11.47 19.89 19.98 30.98 28.74 2.65 2.09 4.97 4.59 7.44 6.91-.2.56-.4 1.12-.61 1.68-3.72 0-7.44.03-11.17-.01-5.49-.05-11.06-.73-16.47-.09-9.13 1.07-15.24-3.19-19.27-10.42-8.33-14.94-16.26-30.11-24.05-45.34-5.03-9.88-9.54-20.05-14.22-29.93z"/><path d="m232.32 140.22c19.79-4.11 38.47-7.79 57.04-11.96 5.07-1.14 9.44-.81 13.74 1.87 6.49 4.04 13.13 7.86 19.37 12.25 2.08 1.46 4.47 4.56 4.24 6.62-.22 1.89-3.65 3.62-5.89 5.05-11.87 7.59-23.8 15.06-35.72 22.57-2.68 1.69-5.38 3.37-8.06 5.06-.41-.38-.81-.77-1.22-1.15.65-1.55 1.24-3.13 1.96-4.64 3.33-7.04 6.97-13.95 9.98-21.13 2.88-6.85-.47-11.75-7.67-10.55-11.76 1.97-23.31 5.14-35.02 7.46-6.03 1.19-12.2 1.64-19.73 2.61-7.09 12.38-13.59 27.69-26.77 38.01-.56-.32-1.12-.64-1.68-.96.79-2.24 1.44-4.54 2.4-6.71 9.02-20.51 18.16-41.04 22.78-63.05 1.99-9.48 1.81-19.44 2.42-29.19.12-1.92-.41-3.98-1.06-5.83-1.72-4.93-.2-7.65 4.81-6.35 6.61 1.71 13.06 4.52 19.13 7.71 3.45 1.81 3.86 5.26 2.05 9.47-5.84 13.7-11.09 27.65-17.1 42.84z"/></g></svg>