<svg enable-background="new 0 0 400 400" viewBox="0 0 400 400" xmlns="http://www.w3.org/2000/svg"><path d="m275.06 205.49c-14.63 1.95-29.04 3.87-43.6 5.8-2.82 18.62-7.88 36.21-17.82 52.11-10.22 16.36-23.99 28.85-41.13 37.54-3.04 1.54-6.7 1.86-10.75 1.83 27.17-23.88 46.97-51.6 52.48-88.9-7.14 1.37-13.52 3.01-19.99 3.72-8.17.89-16.45 1.55-24.64 1.28-5.06-.17-9.65-2.9-13.91-8.73 5.81-.84 10.42-1.5 15.03-2.17 13.95-2.01 27.91-3.96 41.83-6.16 1.22-.19 3.11-2.09 3.12-3.21.2-16.47.14-32.93.14-50.16-3.14.25-5.94.13-8.56.75-8.09 1.89-15.41-1.01-22.78-3.41-1.42-.46-2.38-2.37-3.55-3.61 1.43-.78 2.8-2.03 4.32-2.26 9.99-1.51 20.01-2.8 30.59-4.24-2.61-15.94-2.86-32.01-11.7-46.08-4.17-6.64-2.88-8.91 4.86-8.95 10.64-.05 18.56 5.96 24.12 13.82 2.44 3.45.95 9.97.55 15.04-.62 7.91-1.84 15.77-2.96 24.87 14.85-2.51 28.78-4.87 43.22-7.31 0-8.55.25-16.83-.06-25.1-.42-11.44-.36-23.02-2.22-34.25-1.36-8.17-5.69-15.81-8.31-23.82-.79-2.4-1.23-5.74-.14-7.72 1.6-2.91 5.07-2.79 8-1.18 7.67 4.23 15.46 8.27 22.85 12.95 3.77 2.38 4.11 6.05 3.07 10.9-2.67 12.46-4.4 25.15-5.92 37.81-1.02 8.52-1.04 17.17-1.57 26.68 7.03-2.08 13.08-4.42 19.34-5.61 9.12-1.74 17.21 2.01 24.73 6.67.91.56 1.11 4.45.22 5.3-1.78 1.69-4.46 2.99-6.91 3.31-12.34 1.59-24.74 2.82-37.35 4.2v53.85c5.66-.83 11.17-1.44 16.59-2.47 12.21-2.32 24.33-5.15 36.59-7.18 7.95-1.31 15.75.24 21.9 5.78 2.07 1.87 4.08 5.76 3.48 8.03-.49 1.86-4.82 3.61-7.58 3.82-20.71 1.61-41.44 2.82-62.17 4.19-2.31.15-4.61.59-7.43.97v5.94c0 43.99.09 87.98-.12 131.96-.03 5.2-1.25 10.57-2.85 15.56-1.8 5.62-6.08 6.55-9.59 1.94-7.77-10.21-11.79-21.42-8.67-34.74 2.38-10.14 4.52-20.56 4.82-30.91.85-28.62.69-57.27.9-85.91.03-.77-.27-1.55-.47-2.54zm.27-11.43c0-18.5 0-36.08 0-54.31-14.84 2.47-29.32 4.88-43.89 7.31v51.34c14.77-1.46 29.22-2.89 43.89-4.34z" fill="#010102"/><path d="m70.72 260.34c0-12.62.24-24.07-.06-35.5-.37-14.13-.82-28.27-1.9-42.35-1.02-13.34-3.77-26.27-11.78-37.59-1.38-1.94-1.03-5.11-1.49-7.71 2.47-.21 5.3-1.3 7.34-.46 6.88 2.82 13.6 6.1 20.15 9.64 4.05 2.2 5.89 5.87 5.49 10.84-1.27 16.07-2.7 32.15-3.22 48.26-.55 16.76-.12 33.56-.12 50.99 9.49-1.78 19.47-3.65 30.67-5.74 0-11.54.22-22.99-.04-34.43-.82-36.42-1.69-72.83-2.85-109.24-.24-7.59-1.33-15.23-2.9-22.66-1.01-4.75-3.9-9.07-5.42-13.76-.9-2.79-.78-5.91-1.12-8.88 2.93-.25 6.33-1.59 8.71-.56 7.27 3.15 14.23 7.08 21.16 10.96 5.29 2.97 6.75 7.65 5.75 13.62-2.37 14.23-4.67 28.49-6.51 42.8-1.08 8.38-1.25 16.87-1.91 26.54 5.89-2.28 11.13-3.77 15.84-6.26 7.14-3.79 14.42-3.88 21.73-1.69 2.31.69 4.79 3.22 5.61 5.49.46 1.28-1.93 4.24-3.69 5.55-8.47 6.27-18.48 7.97-28.66 8.83-3.27.28-6.58.04-10.18.04v80.52c8.48-2.72 16.79-5.94 25.38-7.99 8.16-1.95 16.43-5.96 26.15-2.08-4.49 5.71-9.97 7.59-15.38 9.5-22.98 8.11-46.11 15.8-68.92 24.38-11.31 4.25-22.2 9.73-32.93 15.33-6.1 3.19-11.95 3.44-16.79-.65-5.88-4.97-11.05-10.92-15.78-17.03-2.95-3.81-1.4-5.83 3.6-6.19 11.41-.83 22.82-1.68 34.07-2.52z" fill="#010102"/><g fill="#fcfafa"><path d="m378.6 9.2.8-1c.9.7 1.9 1.4 2.9 2.3l-.9 1.1c-1.1-.9-2-1.7-2.8-2.4zm.5 10.7c.9-2.1 1.6-4.3 2.3-6.7.4.2.8.4 1.3.6-.7 3.1-1.5 4.3-2.2 6.6zm.4-15.2.9-.9c1 .8 2 1.6 2.8 2.4l-1 1c-1-.9-1.9-1.8-2.7-2.5zm12.5-1.3h1.2v1.4h2.7v1.1h-2.7v2.7h-1.2v-.5h-1.8v1.3h4.9v3.8h-1.2v-.5h-3.7c0 .4-.1.9-.1 1.2h5.1v1h-5.2c0 .5-.1.9-.3 1.2h6v1h-5.2c1.1 1.3 2.9 2 5.5 2.2-.4.4-.7.8-.9 1.3-2.9-.5-4.8-1.6-5.7-3.5h-.1c-.8 1.7-2.7 2.9-5.9 3.6-.2-.4-.6-.8-.9-1.1 2.8-.6 4.6-1.4 5.4-2.5h-4.8v-1h5.3c.1-.3.2-.7.2-1.2h-4.9v-1h5c0-.4 0-.8.1-1.2h-3.6v.5h-1.2v-3.8h4.9v-1.3h-1.8v.5h-1.1v-2.7h-2.6v-1.1h2.6v-1.4h1.2v1.4h4.7v-1.4zm-6.7 8.4h3.6c0-.4 0-.9 0-1.4h-3.6zm1.9-4.7h4.7v-1.2h-4.7zm6.7 3.3h-3.7v1.4h3.7z"/><path d="m384.7 21.4h1.3v2.2h2.8v-2.2h1.3v2.2h4.1v9.1h1.7v1.3h-16.9v-1.3h1.7v-9.1h4.1v-2.2zm.3 13.2.7 1.2c-1.8.9-3.8 1.9-6 2.9-.2-.4-.5-.8-.8-1.3 2.4-1 4.4-2 6.1-2.8zm-3.1-6.5h2.8v-3.2h-2.8zm0 4.6h2.8v-3.3h-2.8v3.2zm4.1-4.6h2.8v-3.2h-2.8zm0 4.6h2.8v-3.3h-2.8zm3.6 1.9c2.1.9 4.1 1.8 6.1 2.7l-.7 1.3c-2.2-1.1-4.2-2-6.1-2.9zm3.3-9.7h-2.8v3.2h2.8zm-2.8 7.8h2.8v-3.3h-2.8z"/></g></svg>