<svg enable-background="new 0 0 400 400" viewBox="0 0 400 400" xmlns="http://www.w3.org/2000/svg"><g fill="#010100"><path d="m57.7 323.65c24.48-21.92 46.22-45.94 59.69-76.29-13.47-9.86-22.63-23.59-32.53-35.52-8.1 10.31-16.06 20.46-24.07 30.56-.91 1.14-2.01 2.22-3.24 2.99-.71.44-1.84.21-2.77.28-.07-1.05-.54-2.3-.14-3.11 1.54-3.13 3.38-6.1 5.06-9.16 14.87-27.07 26.99-55.3 33.47-85.55 2.34-10.92 2-22.44 2.66-33.7.23-3.89-1.29-6.38-5.98-5.16-2.55.66-5.27.63-7.86 1.17-8.27 1.7-14.59-1.82-20.09-7.43-.85-.87-1.24-2.19-1.84-3.31 1.13-.53 2.22-1.38 3.39-1.53 13.34-1.67 26.72-3.07 40.05-4.85 14.98-2.01 29.9-4.43 44.87-6.5 8.2-1.13 14.62 3.4 21.03 7.47.98.62 1.58 3.16 1.12 4.33-.48 1.21-2.39 2.45-3.79 2.61-13.37 1.5-26.77 2.77-40.15 4.13-3.44.35-6.86.81-11.63 1.38 6.6 5.24 3.39 10.36 1.79 15.72-3.03 10.15-5.59 20.43-8.81 32.38 9.63-3.18 18.46-5.71 26.99-9.02 8.47-3.29 23.96-.86 29.89 6.05 1.36 1.59 1.68 6.19.43 7.58-11.37 12.74-11.54 29.42-15.99 44.49-8.95 30.37-20.48 59.36-40.74 84.18-12.22 14.97-25.78 28.3-44.29 35.43-1.78.69-3.59 1.29-5.39 1.93-.37-.53-.75-1.04-1.13-1.55zm66.76-92.41c.58-1.31 1.03-2.2 1.39-3.12 7.58-19.38 10.53-39.7 11.93-60.29.54-7.99-2.79-10.25-10.88-8.42-6.6 1.5-13.32 2.44-19.96 3.78-1.08.22-2.54 1.01-2.92 1.92-5.34 12.67-10.52 25.4-15.88 38.44 13.38 6.9 28.3 12.22 36.32 27.69z"/><path d="m159.31 329.03c23.5-6.02 46.22-13.86 65.59-28.99 5.58-4.36 10.53-9.51 15.86-14.38-16.62-22.95-30.39-47.05-53.62-63.45.23-.51.46-1.03.7-1.54 1.57-.57 3.1-1.5 4.71-1.66 14.55-1.44 29.17-2.3 43.64-4.24 12.28-1.64 24.48-4.17 36.58-6.91 8.5-1.93 22.94 3.72 26.33 11.7.72 1.7-.42 5.49-1.96 6.64-7.35 5.5-11.55 12.95-15.49 20.99-6.2 12.67-13.19 24.95-20.23 38.12 8.96 8.42 18.92 17.16 31.3 22.45 15.26 6.51 30.75 12.51 46.02 18.99 2.33.99 4.05 3.41 6.05 5.16-2.63 1.07-5.21 2.94-7.89 3.08-12.45.66-24.93 1.07-37.4 1.1-8.67.03-16.17-3.22-22.18-9.73-8.9-9.64-17.95-19.15-27.09-28.88-14.07 14.59-31.2 24.44-50.36 31.05-11.03 3.81-22.46 4.31-33.92 4.36-2.41.01-4.83-1.31-7.24-2.01.19-.61.39-1.23.6-1.85zm56.6-98.9c11.04 14.43 21.94 28.69 33.12 43.3 9.24-13.85 14.07-28.32 17.69-43.23 1.22-5-1.82-8.01-6.98-7.31-4.77.64-9.51 1.47-14.26 2.26-9.78 1.63-19.56 3.29-29.57 4.98z"/><path d="m203.1 191.91c-.64 2.56-1.42 5.73-2.22 8.95-4.59.51-7.66-1.44-8.45-5.46-1.59-8.11-3.2-16.29-3.71-24.51-1.27-20.4-1.65-40.85-2.96-61.24-.51-8.01-2.53-15.92-4.02-24.78 2.21.16 5.32-.48 7.39.7 8.74 5.01 17.9 2.55 26.81 1.83 18.19-1.47 36.33-3.53 54.48-5.51 9.88-1.08 19.71-2.6 29.58-3.66 2.21-.24 4.96-.05 6.75 1.08 6.43 4.05 12.71 8.37 18.71 13.02 2.72 2.11 2.64 5.67.29 8.04-9.29 9.39-9.3 21.53-10.63 33.42-1.8 16.16-3.99 32.28-6.03 48.42-.08.66-.21 1.31-.38 1.95-2.95 11.51-7.96 12.92-16.49 4.82-1.3-1.23-3.36-2.55-4.97-2.44-24.53 1.65-49.04 3.56-73.55 5.33-3.26.24-6.55.04-10.6.04zm1.46-11.95c6.62-.35 12.93-.5 19.21-1.04 13.4-1.14 26.77-2.69 40.18-3.67 8.31-.61 16.72-3.68 25.02.48.74.37 2.71-.4 3.26-1.21 1.18-1.74 2.24-3.78 2.58-5.82 1.4-8.51 3.13-17.03 3.59-25.61.67-12.41.82-24.9.28-37.32-.41-9.44-3.53-12.06-13.07-11.67-21.1.85-42.18 2.14-63.26 3.37-6.55.38-13.09 1.14-20.3 1.78.85 27.11 1.67 53.65 2.51 80.71z"/><path d="m277.79 153.33c-2.54.73-4.17 1.54-5.84 1.61-11.29.51-22.59.7-33.86 1.44-1.84.12-3.55 2.43-5.03 4.37-4.1 1.28-6.43-1.18-7.07-5.21-1.18-7.53-1.79-15.15-3.07-22.66-.99-5.8-2.64-11.48-4.1-17.62 1.06-.11 2.42-.63 3.54-.32 10.45 2.9 20.29-1.68 30.44-2.38 3.46-.24 6.87-1.14 10.32-1.56 8.12-.98 14.27 2.68 17.05 10.48.57 1.61.22 3.89-.46 5.56-2 4.9-4.26 9.71-6.66 14.43-1.82 3.58-1.94 6.46 1.96 8.68.8.44 1.3 1.43 2.78 3.18zm-16.79-7.77c.51-6.66 1.14-12.91 1.39-19.19.09-2.31-.52-4.67-3.96-4.33-7.69.75-15.4 1.33-23.06 1.98v25.2c8.48-1.21 16.63-2.37 25.63-3.66z"/></g><path d="m385.2 377.6.6-.6c.6.4 1.3.9 1.9 1.5l-.6.7c-.8-.6-1.4-1.1-1.9-1.6zm.3 7.1c.6-1.4 1.1-2.9 1.5-4.5.3.1.6.3.9.4-.5 1.4-1 2.9-1.5 4.4zm.2-10.1.6-.6c.7.5 1.3 1.1 1.9 1.6l-.7.7c-.6-.6-1.2-1.2-1.8-1.7zm8.4-.8h.8v.9h1.8v.7h-1.8v1.8h-.8v-.3h-1.2v.9h3.3v2.6h-.8v-.4h-2.5c0 .3 0 .6-.1.8h3.4v.7h-3.5c0 .3-.1.6-.1.8h4v.7h-3.5c.7.9 1.9 1.3 3.6 1.5-.2.2-.4.5-.6.9-1.9-.3-3.2-1.1-3.8-2.3-.5 1.1-1.8 2-3.9 2.4-.2-.3-.4-.5-.6-.8 1.9-.4 3.1-.9 3.6-1.7h-3.2v-.7h3.5c.1-.2.1-.5.2-.8h-3.3v-.7h3.4c0-.2 0-.5 0-.8h-2.4v.3h-.8v-2.6h3.3v-.9h-1.2v.3h-.8v-1.8h-1.8v-.7h1.8v-.9h.8v.9h3.2zm-4.4 5.5h2.4c0-.3 0-.6 0-.9h-2.4zm1.2-3.1h3.2v-.8h-3.2zm4.4 2.2h-2.4v.9h2.5v-.9z" fill="#fcfbfa"/><path d="m389.2 385.8h.9v1.5h1.8v-1.5h.9v1.5h2.7v6h1.1v.9h-11.3v-.9h1.1v-6h2.7v-1.5zm.2 8.7.5.8c-1.2.6-2.5 1.3-4 1.9-.2-.3-.3-.6-.6-.8 1.6-.6 3-1.3 4.1-1.9zm-2-4.3h1.9v-2.1h-1.9zm0 3.1h1.9v-2.2h-1.9zm2.7-3.1h1.9v-2.1h-1.9zm0 3.1h1.9v-2.2h-1.9zm2.4 1.3c1.4.6 2.7 1.2 4.1 1.8l-.5.9c-1.5-.7-2.8-1.4-4.1-1.9zm2.2-6.5h-1.9v2.1h1.9zm-1.9 5.2h1.9v-2.2h-1.9z" fill="#fcfbfa"/></svg>