<svg enable-background="new 0 0 400 400" viewBox="0 0 400 400" xmlns="http://www.w3.org/2000/svg"><path d="m5.17 384 .55-.58c.85.61 1.65 1.24 2.4 1.87l-.59.64c-.83-.73-1.62-1.38-2.36-1.93m1.22 9.53-.82-.34c.71-1.76 1.37-3.64 1.98-5.63.24.13.5.25.76.36-.6 1.67-1.24 3.54-1.92 5.61m-.5-13.5.57-.54c.56.44 1.31 1.06 2.26 1.87l-.65.64c-.67-.66-1.4-1.32-2.18-1.97m3.25.46h2.24v-1.36h.77v1.36h4.57v-1.36h.76v1.36h2.28v.69h-2.28v1.84h-2.64v1.26h4.18v2.64h-4.21c0 .45-.02.86-.05 1.21h4.32v.69h-4.38c-.04.34-.1.75-.19 1.22h5.15v.69h-4.82c.87 1.19 2.51 1.92 4.93 2.19-.17.31-.3.57-.37.76-2.77-.49-4.52-1.41-5.26-2.76-.56 1.26-2.3 2.23-5.24 2.9-.12-.24-.26-.48-.43-.72 2.73-.55 4.38-1.34 4.96-2.38h-4.38v-.69h4.65c.1-.38.17-.79.21-1.22h-4.32v-.69h4.4c.03-.34.05-.75.05-1.21h-4.2v-2.64h4.23v-1.26h-2.69v-1.84h-2.24zm1.46 4.46v1.29h3.45c.01-.4.02-.57.01-.53v-.32-.45h-3.46zm1.55-2.59h4.57v-1.19h-4.57zm6.11 2.59h-3.42v.77c-.01.19-.01.37-.02.53h3.44z" fill="#fafbfc"/><path d="m32.63 379.16h.82v1.98h3.54v7.89h1.46v.78h-14.37v-.78h1.46v-7.89h3.54v-1.98h.82v1.98h2.73zm-3.49 11.48.5.73c-1.61.82-3.28 1.63-5 2.42-.13-.27-.28-.55-.44-.82 1.75-.73 3.4-1.5 4.94-2.33m-2.78-5.55h2.73v-3.18h-2.73zm0 3.95h2.73v-3.2h-2.73zm3.54-3.95h2.73v-3.18h-2.73zm0 3.95h2.73v-3.2h-2.73zm7.89 4.68c-1.84-.92-3.51-1.7-5.02-2.32l.45-.73c1.89.8 3.57 1.55 5.04 2.23zm-1.62-11.81h-2.73v3.18h2.73zm-2.73 7.13h2.73v-3.2h-2.73z" fill="#fafbfc"/><g fill="#000001"><path d="m217.17 337.9c20.87-20.64 39.7-41.93 45.34-72.04-4.63-1.13-7.32-.56-9.16 3.51-2.12 4.69-4.86 4.7-8.14.53-5.79-7.35-5.88-15.81-5.38-24.65 1.27-22.23 2.6-44.48 2.9-66.74.16-11.89-1.7-23.82-2.83-35.71-.23-2.44-1.28-4.79-1.88-7.2-1.1-4.43.84-6.45 5.33-5.25 2.38.64 4.56 2.01 6.9 2.84 3.5 1.24 6.71 1.6 8.66-2.73 5.77-12.82 11.67-25.58 18.03-39.47-9.68.89-17.74 1.44-25.74 2.43-9.85 1.21-16.27-3.92-22.85-11.48 2.39-.84 3.92-1.75 5.53-1.89 21.03-1.79 42.08-3.36 63.1-5.25 9.09-.82 18.2-1.81 27.15-3.53 9.35-1.8 15.89 3.34 22.73 7.89 1.01.67 1.61 3.13 1.22 4.4-.36 1.16-2.26 2.51-3.57 2.62-9.27.79-18.57 1.3-27.85 1.87-7.61.47-15.22.9-23.52 1.39 1.05 1.77 1.7 2.99 2.47 4.13 2.13 3.11 1.57 5.62-.95 8.44-8.49 9.5-16.74 19.21-25.8 29.67 15.36-2.24 29.9-2.76 43.73-7.91 8.94-3.33 22.44 3.02 25.91 12.07.82 2.14.41 4.88.13 7.3-1.09 9.52-3.34 19.01-3.38 28.52-.11 25.46.81 50.93 1.09 76.4.08 7.41 0 14.94-1.26 22.2-.67 3.85-4.03 7.24-6.17 10.83-3.24-2.09-6.62-3.99-9.67-6.34-1.8-1.39-3.58-3.26-4.48-5.3-3.21-7.35-8.71-8.67-16.01-7.49-6.32 1.02-12.78 1.09-19.54 1.61 7.79 9.72 8.07 9.95.55 19.37-10.05 12.58-19.97 25.37-31.15 36.9-7.93 8.19-18.06 14.08-29.19 17.64-.71.24-1.49.29-2.25.42zm99.82-87.19c.65-11.28 1.23-21.34 1.85-32.21-20.92 1.86-40.65 3.61-60.82 5.4v29.89c10.8-1.49 21.54-3.19 32.34-4.37 8.4-.93 16.9-4.67 26.63 1.29zm-57.79-78.25c9.51-1.04 18.55-1.98 27.56-3.04 6.09-.72 12.14-2.09 18.24-2.31 4.44-.15 8.93 1.11 14.45 1.89-.99-8.77-1.83-17.29-2.96-25.78-.41-3.09-2.72-4.36-5.81-4.21-7.79.38-15.6.47-23.36 1.18-9.35.84-18.65 2.2-28.12 3.35zm59.05 6.64c-19.89 1.79-39.31 3.54-59.39 5.35v27.44c8.23-.84 16.29-1.86 24.37-2.42 11.54-.81 22.91-5.69 35.01-1.26.01-9.55.01-18.76.01-29.11z"/><path d="m169.54 168.76c10.05 7.97 5.27 15.21-.2 23.28 7.05-.49 12.76-.75 18.45-1.31 7.93-.78 15.85-1.74 23.77-2.71 7.13-.87 12.42 2.92 17.49 7.01.87.7 1.42 3.36.88 3.91-1.11 1.14-3.04 1.99-4.65 2.03-9.12.18-18.25.09-27.38.09-.14.56-.28 1.12-.42 1.68.9.69 1.78 1.39 2.69 2.06 8.12 6.03 16.38 11.88 24.33 18.14 4.94 3.9 5.91 9.93 6.34 15.74.15 2-1.11 5.37-2.56 5.92-2.07.79-5.68.44-7.28-.96-8.01-6.99-15.7-14.36-23.26-21.83-4.37-4.32-8.67-8.83-12.3-13.76-3.33-4.52-7.25-5.43-12.45-4.97-5.83.52-9.86 2.14-12.35 8.27-5.69 14.06-14.53 26.3-25.89 36.27-6.14 5.39-13.68 9.23-20.7 13.57-1.39.86-3.33.82-5.5.59 16.37-15.95 28.71-34.32 37.96-55.91-11.12.61-22.09 2.6-28.96-9.45 1.72-.5 3.28-1.26 4.88-1.36 7.96-.5 15.94-1.11 23.91-1.1 4.31 0 6.29-1.58 7.18-5.65 1.27-5.81 2.92-11.53 4.55-17.85-3.54 0-6.4 0-9.63 0-.54 1.72-1.12 3.56-1.69 5.39-4.63 1.21-6.99-1.52-7.83-5.06-1.67-7.07-2.98-14.25-3.9-21.46-1.95-15.12-3.43-30.3-5.39-45.42-.4-3.13-2.03-6.11-3.71-10.94 6.74 1.56 12.07 2.8 18.23 4.23 6.37-10.74 15.96-20.8 14.77-35.69-.09-1.12 2.17-3.48 3.34-3.48 7.47 0 13.92 3.15 19.32 8.06 3.19 2.9 1.29 5.48-1.51 7.85-8.2 6.96-16.25 14.09-23.99 22.22 5.28-.81 10.57-1.59 15.84-2.45 9.48-1.55 18.94-3.25 28.45-4.66 1.87-.28 4.05.08 5.79.82 2.88 1.23 5.67 2.8 8.24 4.6 11.18 7.81 10.55 7.57 4.56 19.3-3.22 6.3-4.33 13.8-5.74 20.89-2.33 11.7-3.79 23.57-6.26 35.24-1.5 7.1-6.99 8.86-11.54 3.41-4.35-5.22-9.21-5.58-14.93-5.13-3.1.22-6.2.33-10.95.58zm-22.31-40.59c6.35-.63 12.09-1.32 17.86-1.74 11.11-.79 22.14-5.05 34.17-.43-.38-6.02-.7-11.59-1.08-17.15-.31-4.43-2.95-6.03-7.1-5.67-14.85 1.29-29.69 2.59-45.2 3.94.45 7.05.87 13.61 1.35 21.05zm51.38 6.72c-17.59 1.44-33.75 2.76-49.95 4.09v21.84c1.48-.15 2.44-.26 3.41-.34 14-1.15 27.73-6.73 43.07-2.13 1.14-7.73 2.24-15.15 3.47-23.46z"/><path d="m181.46 252.84c5.7-.53 9.87-.59 13.91-1.37 7.08-1.38 13.14.9 18.75 4.69 1.58 1.07 2.44 3.21 3.62 4.86-1.92 1.02-3.78 2.76-5.77 2.92-8.28.67-16.59 1.13-24.89 1.14-4.4.01-5.78 1.72-5.77 5.84.01 15.31.1 30.63-.38 45.94-.17 5.35-1.56 10.75-3.06 15.94-.52 1.8-2.94 3.91-4.75 4.18-1.23.18-3.21-2.38-4.32-4.07-5.9-9-5.76-18.8-4.86-29.19 1.02-11.86.24-23.88.24-36.74-4.91.54-10.1.94-15.23 1.73-6.99 1.07-14.41-2.66-18.42-10.29 11.38-1.12 22.39-2.21 34.35-3.39-1.03-9.82-1.83-18.87-2.97-27.89-.7-5.62 1.4-8.04 6.61-5.89 5.14 2.13 10.19 5 14.42 8.56 1.66 1.4 1.52 5.64 1.24 8.49-.45 4.65-1.68 9.24-2.72 14.54z"/><path d="m109.31 209.04c-.55 3.14-.84 6.34-1.67 9.41-8.4 31.02-16.91 62.01-25.32 93.03-.6 2.23-.89 4.57-1.03 6.88-.24 3.86-2.57 4.54-5.46 3.36-2.07-.85-4.53-2.19-5.52-4.01-3.67-6.81-6.98-13.84-10-20.97-.56-1.33.41-3.79 1.4-5.22 4.49-6.51 10.21-12.35 13.72-19.32 8.73-17.32 16.39-35.18 24.72-52.71 1.9-4 4.81-7.53 7.26-11.28.64.27 1.27.55 1.9.83z"/><path d="m348.06 324.82c-.16 1.03-.62 3.31-.83 5.6-.35 3.89-2.07 6.58-6 7.59-4.02 1.02-6.39-1.46-8.16-4.33-4.64-7.47-8.89-15.19-13.55-22.65-5.27-8.44-10.87-16.69-16.21-25.08-1.23-1.93-2.39-4.05-2.86-6.24-.29-1.34.43-3.36 1.42-4.33.57-.56 2.9-.1 3.9.63 10.84 7.95 21.64 15.95 32.31 24.12 7.67 5.86 9.72 14.28 9.98 24.69z"/><path d="m101.37 182.97c-1.56 2.3-2.68 5.82-4.8 6.59-2.46.9-6.74.45-8.61-1.23-10.86-9.76-21.31-19.99-31.69-30.26-1.3-1.29-1.42-3.78-2.09-5.71 2.13-.34 4.47-1.43 6.35-.9 8.88 2.52 17.87 4.92 26.38 8.44 9.85 4.07 12.72 10.82 14.46 23.07z"/><path d="m113.25 108.89c-.07 3.28.49 7.83-4.52 9.69-4.58 1.71-8.14-.53-10.86-3.99-7.68-9.77-15.33-19.58-22.73-29.57-1.19-1.6-1.06-4.17-1.54-6.29 2.2-.03 4.64-.7 6.57.01 7.13 2.64 14.39 5.18 21.04 8.79 9.63 5.22 11.71 9.55 12.04 21.36z"/></g></svg>