<svg enable-background="new 0 0 400 400" viewBox="0 0 400 400" xmlns="http://www.w3.org/2000/svg"><path d="m385.2 377.6.6-.6c.6.4 1.3.9 1.9 1.5l-.6.7c-.8-.6-1.4-1.1-1.9-1.6zm.3 7.1c.6-1.4 1.1-2.9 1.5-4.5.3.1.6.3.9.4-.5 1.4-1 2.9-1.5 4.4l-.9-.2zm.2-10.1.6-.6c.7.5 1.3 1.1 1.9 1.6l-.7.7c-.6-.6-1.2-1.2-1.8-1.7zm8.4-.8h.8v.9h1.8v.7h-1.8v1.8h-.8v-.3h-1.2v.9h3.3v2.6h-.8v-.4h-2.5c0 .3 0 .6-.1.8h3.4v.7h-3.5c0 .3-.1.6-.1.8h4v.7h-3.5c.7.9 1.9 1.3 3.6 1.5-.2.2-.4.5-.6.9-1.9-.3-3.2-1.1-3.8-2.3-.5 1.1-1.8 2-3.9 2.4-.2-.3-.4-.5-.6-.8 1.9-.4 3.1-.9 3.6-1.7h-3.2v-.7h3.5c.1-.2.1-.5.2-.8h-3.3v-.7h3.4c0-.2 0-.5 0-.8h-2.4v.3h-.8v-2.6h3.3v-.9h-1.2v.3h-.8v-1.8h-1.8v-.7h1.8v-.9h.8v.9h3.2zm-4.4 5.5h2.4c0-.3 0-.6 0-.9h-2.4zm1.2-3.1h3.2v-.8h-3.2zm4.4 2.2h-2.4v.9h2.5v-.9z" fill="#fcfafa"/><path d="m389.2 385.8h.9v1.5h1.8v-1.5h.9v1.5h2.7v6h1.1v.9h-11.3v-.9h1.1v-6h2.7v-1.5zm.2 8.7.5.8c-1.2.6-2.5 1.3-4 1.9-.2-.3-.3-.6-.6-.8 1.6-.6 3-1.3 4.1-1.9zm-2-4.3h1.9v-2.1h-1.9zm0 3.1h1.9v-2.2h-1.9zm2.7-3.1h1.9v-2.1h-1.9zm.1 3.1h1.9v-2.2h-1.9zm2.3 1.3c1.4.6 2.7 1.2 4.1 1.8l-.5.9c-1.5-.7-2.8-1.4-4.1-1.9zm2.2-6.5h-1.9v2.1h1.9zm-1.9 5.2h1.9v-2.2h-1.9z" fill="#fcfafa"/><g fill="#010101"><path d="m234 250.27c0 15.17.21 31.12-.08 47.07-.17 9.46-.7 18.96-1.88 28.33-.54 4.27-2.66 8.52-4.81 12.36-2.5 4.46-5.37 4.29-8.49.23-6.24-8.15-7.8-17.31-6.66-27.35 1.84-16.17 4.23-32.36 4.68-48.59.58-20.94-.37-41.93-1.04-62.89-.16-5.07-1.6-10.15-2.86-15.12-1.62-6.38.27-9.36 6.19-7.13 8.88 3.34 17.11.28 25.39-.87 18.07-2.52 35.97-6.23 54-9.08 3.07-.48 6.86.14 9.57 1.62 5.65 3.08 11.08 6.74 16.08 10.81 4.39 3.57 4.7 7.75 2.46 13.01-4.71 11.02-4.71 22.7-4.31 34.34.93 27.1 1.39 54.24 3.44 81.25 1.18 15.51-3.72 28.29-11.88 40.57-3.25 4.88-6.86 5.64-11.16 1.7-7.6-6.95-14.78-14.37-22.3-21.42-4.22-3.96-8.76-7.59-13.16-11.37.07-.55.15-1.1.22-1.65 4 .4 8.01.75 12.01 1.2 4.78.53 9.56 1.1 14.33 1.73 3.61.47 5.77-1.32 6.78-4.5.95-2.99 2.14-6.1 2.17-9.17.19-20.12.1-40.23.1-60.48-22-.33-44.4 6.86-68.79 5.4zm70.58-15.95c-1.11-15.44-1.92-29.2-3.16-42.92-.66-7.26-3.08-9.07-10.44-8.21-17.95 2.1-35.88 4.45-54.28 6.75-.59 15.34-1.2 31.02-1.82 47.18 11.34-1.32 21.86-2.76 32.42-3.71 12.01-1.07 23.99-8.72 37.28.91z"/><path d="m140.11 151.94c9.95-9.02 18.66-18.85 24.31-31.09.71-1.54.48-3.6.4-5.4-.17-3.95 1.53-5.76 5.43-4.73 9.16 2.41 16.73 7.25 21.93 15.32 2.06 3.2 1.39 5.79-2.09 7.87-15.67 9.39-31.22 18.99-46.92 28.34-2.89 1.72-3.85 3.61-4.14 7.02-1.58 18.35-3.49 36.67-5.6 54.96-.41 3.55-.1 5.74 3.24 7.7 12.97 7.64 25.03 16.36 34.06 28.77 4.12 5.66 5.9 18.15 2.74 24.23-2.71 5.21-9.58 5.63-13.64.21-8.17-10.91-15.9-22.14-23.75-33.28-1.81-2.56-3.36-5.31-5.65-8.94-1.31 5.57-2.42 10.23-3.51 14.89-5.92 25.44-18.62 46.43-40.42 61.37-4.09 2.81-8.39 5.43-12.87 7.52-2.68 1.25-5.92 1.32-8.9 1.92-.18-.4-.36-.8-.55-1.2 4.17-4.61 8.38-9.18 12.5-13.83 19.95-22.47 30.36-49.21 35.26-78.46 5.3-31.7 8.13-63.6 8.05-95.75-.04-16.45.49-32.93-.33-49.35-.34-6.75-3.45-13.39-5.51-20.01-1.26-4.07-4.21-8.37-.57-12.13 3.41-3.52 8.01-1.47 11.67.12 5.62 2.44 11.08 5.38 16.26 8.65 4.41 2.78 6.3 6.82 4.41 12.37-7.94 23.31-7.03 47.5-6.66 71.61.02.3.34.55.85 1.3z"/><path d="m305.77 120.53c-4.37-6.04-8.59-11.78-12.73-17.6-3.04-4.29-3.16-7.14-.3-11.26 12.81 8.15 27.38 13.92 37.94 25.2 7.37 7.88 7.9 18.43 5.37 28.67-1.32 5.35-7.71 6.59-11.36 2.27-3.52-4.16-6.16-9.05-9.52-13.37-.96-1.23-3.23-2.43-4.63-2.17-22 4.1-44 8.21-65.9 12.82-10.04 2.11-19.94 5.03-29.74 8.11-4.34 1.36-7.47.25-10.4-2.52-1.56-1.47-2.9-3.22-4.1-5.01-3.8-5.66-3.83-9.39 1.92-12.63 17.73-10 27.22-26.8 37.53-43.11 5.88-9.3 12.08-18.38 13.26-29.7.24-2.26-.13-4.58-.17-6.88-.07-4.35 2.39-6.86 6.22-5.15 6.59 2.95 13.06 6.44 18.95 10.6 4.06 2.87 1.81 6.62-.77 9.94-15.2 19.57-30.29 39.22-45.41 58.85-.39.51-.72 1.06-1.76 2.59 25.58-3.27 50.24-6.42 75.6-9.65z"/><path d="m106.66 172.94c-.36 2.79-.11 5.87-1.26 8.27-1.23 2.58-3.4 5.48-5.88 6.51-3.46 1.44-6.98-.46-8.84-3.86-5.09-9.3-10.06-18.68-14.86-28.14-1.95-3.84-3.52-7.89-4.87-11.98-.45-1.37-.24-3.82.65-4.52.93-.73 3.43-.52 4.59.26 8.11 5.44 16.23 10.9 23.99 16.83 5.3 4.06 6.71 10.1 6.48 16.63z"/></g></svg>