<svg enable-background="new 0 0 400 400" viewBox="0 0 400 400" xmlns="http://www.w3.org/2000/svg"><path d="m5.17 384 .55-.58c.85.61 1.65 1.24 2.4 1.87l-.59.64c-.83-.73-1.62-1.38-2.36-1.93m1.22 9.53-.82-.34c.71-1.76 1.37-3.64 1.98-5.63.24.13.5.25.76.36-.6 1.67-1.24 3.54-1.92 5.61m-.5-13.5.57-.54c.56.44 1.31 1.06 2.26 1.87l-.65.64c-.67-.66-1.4-1.32-2.18-1.97m3.25.46h2.24v-1.36h.77v1.36h4.57v-1.36h.76v1.36h2.28v.69h-2.28v1.84h-2.64v1.26h4.18v2.64h-4.21c0 .45-.02.86-.05 1.21h4.32v.69h-4.38c-.04.34-.1.75-.19 1.22h5.15v.69h-4.82c.87 1.19 2.51 1.92 4.93 2.19-.17.31-.3.57-.37.76-2.77-.49-4.52-1.41-5.26-2.76-.56 1.26-2.3 2.23-5.24 2.9-.12-.24-.26-.48-.43-.72 2.73-.55 4.38-1.34 4.96-2.38h-4.38v-.69h4.65c.1-.38.17-.79.21-1.22h-4.32v-.69h4.4c.03-.34.05-.75.05-1.21h-4.2v-2.64h4.23v-1.26h-2.69v-1.84h-2.24zm1.46 4.46v1.29h3.45c.01-.4.02-.57.01-.53v-.32-.45h-3.46zm1.55-2.59h4.57v-1.19h-4.57zm6.11 2.59h-3.42v.77c-.01.19-.01.37-.02.53h3.44z" fill="#fafbfc"/><path d="m32.63 379.16h.82v1.98h3.54v7.89h1.46v.78h-14.37v-.78h1.46v-7.89h3.54v-1.98h.82v1.98h2.73zm-3.49 11.48.5.73c-1.61.82-3.28 1.63-5 2.42-.13-.27-.28-.55-.44-.82 1.75-.73 3.4-1.5 4.94-2.33m-2.78-5.55h2.73v-3.18h-2.73zm0 3.95h2.73v-3.2h-2.73zm3.54-3.95h2.73v-3.18h-2.73zm0 3.95h2.73v-3.2h-2.73zm7.89 4.68c-1.84-.92-3.51-1.7-5.02-2.32l.45-.73c1.89.8 3.57 1.55 5.04 2.23zm-1.62-11.81h-2.73v3.18h2.73zm-2.73 7.13h2.73v-3.2h-2.73z" fill="#fafbfc"/><g fill="#000001"><path d="m218.27 307.59c1.99.19 4.03.18 5.97.61 7.45 1.65 14.84 3.56 22.3 5.15 9.34 1.98 14.01-.06 18.67-8.26 8.66-15.24 13.11-31.88 15.66-49.07 1.8-12.15 3.3-24.35 4.88-36.54 1.19-9.15-1.98-13.02-11.19-12.38-19.23 1.32-38.43 3.09-57.64 4.72-16.23 1.38-32.45 2.83-48.67 4.26-2.98.26-5.95.62-8.93.83-5.69.39-11.45.98-15.54-4.1-38.51 22.48-50.19 27.35-55.59 23.42 13.48-10.02 27.34-19.63 40.41-30.23 13.08-10.61 25.47-22.13 30.8-39.42-7.14 0-13.39 0-20.12 0-.19.47-.65 1.32-.87 2.23-1.39 5.84-3.24 6.52-7.84 2.47-5.91-5.2-8.69-11.35-8.28-19.74.56-11.59-.46-23.27-.96-34.9-.62-14.33-2.77-28.39-7.24-42.09-1.26-3.88 1.12-6.19 4.85-4.54 16.35 7.25 31.8 2.7 47.21-3.03 7.7-2.86 19.91 1.47 23.27 8.8.85 1.85.36 4.45.07 6.66-1.07 8.04-2.83 16.02-3.33 24.09-.48 7.72 3.63 11.03 11.2 10.26 7.42-.76 14.82-1.65 23.13-2.59 0-14.92-.13-29.65.19-44.36.04-1.65 2.47-3.45 4.13-4.76.53-.42 2.57.14 3.18.87 7.33 8.78 16.61 4.95 25.23 3.72 9.34-1.34 18.49-4.09 27.85-5.21 4.17-.5 8.92.81 12.9 2.49 4.51 1.91 8.6 4.96 12.57 7.93 2.4 1.79 3.86 4.94 1.51 7.45-12.63 13.44-12.9 31.18-17.1 47.59-2.3 8.99-5.04 17.88-7.89 26.71-.84 2.6-2.44 5.13-4.23 7.23-3.62 4.25-6.2 3.93-9.66-.35-.88-1.09-2.57-2.25-3.84-2.2-30.58 1.26-61.15 2.67-91.72 4.08-.77.04-1.53.31-2.36.49 1.87 4.01 3.78 7.66 5.29 11.47 1.78 4.47 1.08 8.12-3.25 11.27-5.34 3.89-10.13 8.53-14.89 13.96 2.41 0 4.84.18 7.23-.03 34.26-2.88 68.52-5.72 102.75-8.85 5.05-.46 9.9-2.87 14.95-3.46 4.45-.53 9.09-.12 13.55.56 2.13.32 4.2 2 6 3.43 10.75 8.6 12.36 9.06 5.78 22.78-4.33 9.04-5.54 19.68-7.5 29.72-3.59 18.38-5.71 37.11-10.32 55.22-3.95 15.53-12.82 28.72-26.57 38.05-3.58 2.43-6.01 1.77-9.21-.78-10.39-8.28-21.08-16.18-31.61-24.28-2.12-1.63-4.05-3.49-6.07-5.25.3-.7.59-1.4.89-2.1zm52-159.56c4.95-19.74 8.97-40.55 10.15-61.78.37-6.62-1.16-7.6-8.3-7.05-9.59.74-19.13 2.31-28.73 2.8-4.04.2-5.54 1.52-6.12 5.19-1.22 7.7-2.66 15.37-4.01 23.05-.62 3.5-.99 6.72 2.85 9.03 1.45.87 2.13 3.04 3.87 5.71-3.87.45-6.55.95-9.26 1.05-16.57.6-33.25.2-49 6.8-3.28 1.37-6.26.27-7.16-3.21-1.18-4.55-2.15-9.28-2.26-13.96-.21-8.63.61-17.29.36-25.92-.19-6.64-3.02-9.28-9.54-8.61-9.32.96-18.55 2.8-27.97 4.28 1.52 24.06 3 47.54 4.5 71.19 1.89 0 3.69.12 5.47-.02 18.87-1.51 37.73-3.08 56.59-4.59 16.72-1.34 33.44-2.76 50.18-3.9 5.73-.39 11.5-.06 18.38-.06z"/><path d="m138.41 250.71c-.72 10.38-3.89 21.48-10.31 31.09-3.02 4.53-8.33 7.79-13.12 10.79-2.95 1.84-5.82.17-6.56-3.64-1.51-7.76-1.22-14.88 4.31-21.56 6.12-7.4 11.16-15.69 16.92-23.4 1.52-2.04 3.94-3.41 5.95-5.08.94 2.51 1.96 5 2.76 7.55.29.9.05 1.98.05 4.25z"/><path d="m182.22 267.79c.06 5.75-2.68 10.25-6.8 13.87-3.97 3.49-7.57 2.58-10.12-2.08-3.72-6.81-2.06-13.93-1.23-20.99.51-4.28.87-8.63 1.98-12.77.56-2.07 2.39-4.13 4.21-5.33.58-.38 3.81 1.71 4.44 3.24 3.18 7.75 5.9 15.69 8.78 23.56-.41.17-.83.34-1.26.5z"/><path d="m267.47 253.21c-.7 7.03-.39 12.46-6.18 14.7-3.51 1.36-8.93-2.31-11.44-8.64-2.85-7.21-4.83-14.78-6.68-22.33-.4-1.64.9-4.4 2.31-5.54.89-.72 3.91.04 5.15 1.1 4.54 3.85 9.12 7.79 12.92 12.34 2.28 2.72 3.14 6.62 3.92 8.37z"/><path d="m203.96 247.83c0-2.45-.44-4.13.1-5.39.86-2 2.08-4.12 3.77-5.32.6-.42 3.6 1.33 4.49 2.74 3.61 5.71 7.13 11.53 10.1 17.6 2.54 5.17 1.03 10.35-1.85 15.07-2.93 4.79-7.46 5.41-10.9.93-2.22-2.89-3.86-6.62-4.53-10.21-.98-5.35-.88-10.9-1.18-15.42z"/></g></svg>