<svg enable-background="new 0 0 400 400" viewBox="0 0 400 400" xmlns="http://www.w3.org/2000/svg"><path d="m5.17 384 .55-.58c.85.61 1.65 1.24 2.4 1.87l-.59.64c-.83-.73-1.62-1.38-2.36-1.93m1.22 9.53-.82-.34c.71-1.76 1.37-3.64 1.98-5.63.24.13.5.25.76.36-.6 1.67-1.24 3.54-1.92 5.61m-.5-13.5.57-.54c.56.44 1.31 1.06 2.26 1.87l-.65.64c-.67-.66-1.4-1.32-2.18-1.97m3.25.46h2.24v-1.36h.77v1.36h4.57v-1.36h.76v1.36h2.28v.69h-2.28v1.84h-2.64v1.26h4.18v2.64h-4.21c0 .45-.02.86-.05 1.21h4.32v.69h-4.38c-.04.34-.1.75-.19 1.22h5.15v.69h-4.82c.87 1.19 2.51 1.92 4.93 2.19-.17.31-.3.57-.37.76-2.77-.49-4.52-1.41-5.26-2.76-.56 1.26-2.3 2.23-5.24 2.9-.12-.24-.26-.48-.43-.72 2.73-.55 4.38-1.34 4.96-2.38h-4.38v-.69h4.65c.1-.38.17-.79.21-1.22h-4.32v-.69h4.4c.03-.34.05-.75.05-1.21h-4.2v-2.64h4.23v-1.26h-2.69v-1.84h-2.24zm1.46 4.46v1.29h3.45c.01-.4.02-.57.01-.53v-.32-.45h-3.46zm1.55-2.59h4.57v-1.19h-4.57zm6.11 2.59h-3.42v.77c-.01.19-.01.37-.02.53h3.44z" fill="#fafbfc"/><path d="m32.63 379.16h.82v1.98h3.54v7.89h1.46v.78h-14.37v-.78h1.46v-7.89h3.54v-1.98h.82v1.98h2.73zm-3.49 11.48.5.73c-1.61.82-3.28 1.63-5 2.42-.13-.27-.28-.55-.44-.82 1.75-.73 3.4-1.5 4.94-2.33m-2.78-5.55h2.73v-3.18h-2.73zm0 3.95h2.73v-3.2h-2.73zm3.54-3.95h2.73v-3.18h-2.73zm0 3.95h2.73v-3.2h-2.73zm7.89 4.68c-1.84-.92-3.51-1.7-5.02-2.32l.45-.73c1.89.8 3.57 1.55 5.04 2.23zm-1.62-11.81h-2.73v3.18h2.73zm-2.73 7.13h2.73v-3.2h-2.73z" fill="#fafbfc"/><g fill="#000001"><path d="m185.28 302.68c3.34 3.52 7.53 5.91 7.62 8.45.17 4.84-5.27 4.79-8.75 5.45-11.01 2.09-21.4 7.55-32.98 6.43-3.43-.33-7.03-.95-10.09-2.4-2.35-1.11-3.97-3.74-5.92-5.69.28-.57.56-1.14.84-1.71 7.93-1.41 15.85-2.85 23.79-4.23 14.82-2.57 14.83-2.56 16.14-17.69.11-1.27.01-2.56.01-4.16-12.77 2.02-25.38 7.41-37.92.38-1.16-.65-1.66-2.47-2.43-3.71 12.66-2.37 24.7-4.65 36.75-6.85 2.95-.54 4.64-1.73 4.91-5.09.4-4.89 1.38-9.73 2.21-15.29-5.56 1.14-10.19 2.58-14.9 2.93-4.88.37-9.84-.18-14.74-.64-.99-.09-1.84-1.61-2.75-2.46 1.03-.9 1.92-2.27 3.11-2.6 4.15-1.16 8.47-1.73 12.59-2.98 2.98-.9 6.01-2.14 8.57-3.88 6.42-4.36 21.89-2.4 26.66 4 .87 1.16.5 3.71-.03 5.38-1.46 4.58-3.33 9.03-4.99 13.54-.27.74-.31 1.56-.59 3.02 6.43-.78 12.45-1.52 19.5-2.38 0-24.85 0-49.89 0-75.27-4.94 1.3-10.47 2.76-15.99 4.24-.3.08-.58.32-.82.54-2.19 2-4.13 16.71-2.56 19.36 2.56 4.33 1.55 7.2-3.17 8.76-7.38 2.44-14.77 4.84-22.17 7.22-6.41 2.07-16.56-1.81-18.28-7.36 4.65-1 9.23-2.41 13.91-2.92 11.38-1.22 18.3-6.42 18.35-18.66.01-1.57.62-3.14 1.2-5.85-8.3 2.37-15.74 4.36-23.09 6.65-6.56 2.04-12.41-.1-18.19-2.65-.92-.4-2.06-2.62-1.76-3.05.98-1.39 2.44-2.99 3.98-3.34 7.27-1.64 14.62-2.98 21.97-4.25 5.07-.88 10.23-1.26 15.24-2.36 1.43-.31 3.23-2.15 3.57-3.59 1.17-4.99 1.78-10.12 2.81-16.51-3.45.92-6.27 1.93-9.17 2.4-5.35.85-10.75 1.89-16.12 1.81-2.4-.04-4.75-2.59-7.13-4 .11-.63.23-1.26.34-1.9 2.36-.95 4.73-1.9 7.1-2.83 6.92-2.75 13.83-5.53 20.79-8.2 1.32-.51 2.85-.83 4.23-.7 1.79.16 3.6.7 5.28 1.36 12.6 4.99 14.41 5.97 7.76 18.3-1.59 2.94-2.33 6.34-3.94 10.86 6.02-1.65 10.66-2.71 15.1-4.3.95-.34 1.72-2.6 1.73-3.98.12-14.26.08-28.52.08-43.14-6.39 1.23-13.82 2.59-21.2 4.19-.81.18-1.14 2.01-2.02 2.56-2.51 1.58-5.2 3.97-7.79 3.94-1.84-.02-4.53-3.16-5.3-5.42-4.38-12.86-11.69-23.74-20.88-33.6-1.65-1.77-1.86-4.9-2.73-7.4 2.54-.72 5.19-2.3 7.59-1.98 5.73.75 11.32 2.53 17.02 3.6 1.51.28 4 .07 4.73-.9 8.58-11.4 17.18-22.81 25.12-34.65 2.03-3.02 2.12-7.53 2.48-11.41.35-3.86 2.2-5.82 5.74-5 5.31 1.22 10.64 2.71 15.62 4.88 4.73 2.07 5.01 4.73 1.31 8.39-12.05 11.91-24.25 23.68-36.38 35.51-.46.44-.88.92-2.24 2.37 9.5-2.02 17.87-3.54 26.09-5.61 22.68-5.69 45.38-11.3 67.91-17.55 11.64-3.23 21.19 1.37 30.8 6.29 3.49 1.78 6.41 4.71 9.52 7.19 3 2.39 2.56 5.07-.21 7.03-12.96 9.16-22.83 21.26-32.71 33.43-1.56 1.93-5.37 4.11-7.01 3.44-2.72-1.12-4.51-4.46-7.76-8.04-5.2.71-12.3 1.67-19.47 2.64v43.37c9.94-2.85 20.01-4.28 28.67-8.56 13.92-6.88 24.17-1.31 34.51 6.81 4.18 3.28 4.53 6.3 2.68 11.84-3.48 10.44-5.23 21.53-6.85 32.48-3 20.35-5.38 40.8-8.04 61.2-.13.98-.42 1.94-.73 2.89-2.33 7.13-6.88 8.43-11.36 2.45-3.27-4.36-6.47-5.19-11.49-4.54-8.88 1.16-17.86 1.51-27.17 2.23v39.72c5.09 0 10.36-.05 15.62.01 12.81.15 25.56.47 37.96-3.94 18.17-6.47 27.96-19.57 30.92-38.14 1.04-6.53 1.15-13.21 2-19.78.28-2.17 1.53-4.22 2.33-6.32.56-.05 1.12-.11 1.68-.16.7 2.3 1.91 4.57 2.03 6.91.88 15.95 4.72 31.12 11.13 45.72 3.47 7.92 1.77 12.16-6.38 17.2-9.4 5.82-19.97 8.63-30.69 9.42-22.37 1.63-44.81 3-67.22 2.92-15.23-.05-29.6-4.68-39.63-17.65-5.89-7.61-8.46-16.45-9.21-25.89-.26-3.26-.36-6.52-.51-9.45-7.52.98-14.53 1.89-22.13 2.88-1.39 6.19-2.85 12.76-4.01 18.02zm2.73-169.17c9.38-2.66 18.22-4.83 26.81-7.72 6.44-2.16 11.19.46 11.14 7.3-.13 17.82-.57 35.63-.66 53.44-.15 30.95-.42 61.91-.02 92.85.13 10.1 2.32 20.17 7.35 29.22 2.91 5.23 6.98 9.03 13.37 9.27 0-15.18.08-29.81-.01-44.44-.3-47.31-.65-94.62-.99-141.93-.04-5.93 1.32-6.87 7.4-6.97 4.34-.07 8.68-1 12.98-1.75 6.76-1.17 12.57-7.52 20.28-3.72.25.12.94-.32 1.24-.66 3.86-4.53 8.27-8.73 11.36-13.74 3.01-4.87.58-8.57-5.16-8.52-5.8.05-11.64.53-17.38 1.38-23.15 3.41-46.27 7.02-69.4 10.59-8.46 1.31-16.9 2.72-25.87 4.17 2.55 7.17 4.88 13.7 7.56 21.23zm93.37 80.72c2.88-7.37 5.8-13.98 4.09-21.57-.76-3.35.96-4.58 3.83-3.14 3.68 1.85 7.15 4.16 10.59 6.45 3.75 2.5 3.3 5.38.96 8.85-4.33 6.43-8.29 13.11-12.13 19.24 2.76 4.65 5.81 8.56 7.47 13 1.32 3.51 1.57 7.75 1.05 11.49-.29 2.09-3.14 3.83-4.84 5.72-1.47-1.84-3.43-3.47-4.31-5.56-1.9-4.47-3.25-9.18-4.92-14.06-5.9 6.54-10.55 13.34-16.75 18.13-6.31 4.87-5.68 10.36-5.1 17.14 5.4-.46 10.47-.94 15.56-1.33 6.78-.52 13.57-1.06 20.36-1.4 2.75-.14 3.6-1.41 3.93-3.96.99-7.73 2.55-15.41 3.3-23.16 1.7-17.7 3.12-35.42 4.52-53.15.93-11.76-5.88-11.99-13.51-10.57-11.36 2.11-22.57 5.06-34.16 7.72v68.88c1.03-1.19 1.68-1.71 2.03-2.37 4.33-8.23 8.68-16.45 12.81-24.78.52-1.04.11-2.88-.47-4.06-2.71-5.51-5.71-10.89-8.45-16.39-1.63-3.28-2.99-6.69-4.46-10.05.43-.25.87-.5 1.3-.75 7.96 4.21 12.36 11.78 17.3 19.68z"/><path d="m112.21 150c4.13-5.96 8.7-11.67 12.25-17.96 3.46-6.14 5.88-12.87 8.92-19.72 8.2 4.28 13.37 10.08 16 18.3 1.14 3.58-1.56 4.38-3.46 5.62-6.98 4.51-14.24 8.61-21.11 13.27-14.92 10.12-14.5 10.25-15.87 28.42-1.2 15.89-3.13 31.74-5.19 47.55-.42 3.22.56 4.23 3.03 5.01 5.85 1.85 11.82 3.4 17.54 5.6 9.37 3.6 14.9 14.64 11.78 22.93-2.58 6.84-8.74 11.29-15.12 2.65-6.12-8.28-12.29-16.53-19-25.56-8.77 42.02-28.94 75.7-64.96 98.43-.79-.51-1.58-1.02-2.37-1.53 1.75-2.74 3.4-5.55 5.28-8.19 9.41-13.27 19.67-26.02 28.15-39.86 12.84-20.95 19.55-44.25 22.93-68.55 3.64-26.13 4.55-52.38 3.5-78.68-.77-19.39-.35-38.98-5.64-57.9-1.91-6.81-4.96-13.32-7.76-19.85-2.03-4.74-1.72-5.58 3.42-6.31 11.09-1.57 20.78 1.1 28.37 9.63 1.03 1.16 1.64 3.19 1.55 4.77-1.05 19.42-2.39 38.83-3.38 58.25-.38 7.58-.06 15.2-.06 22.8.39.3.8.59 1.2.88z"/><path d="m47.67 144.96c1.66.49 2.19.52 2.58.77 14.16 9.2 21.8 34.53 14.94 49.92-1.13 2.54-2.64 5.05-4.49 7.11-3.19 3.53-6.52 3.04-7.84-1.53-1.68-5.84-2.7-11.93-3.36-17.98-1.15-10.55-1.87-21.14-2.61-31.73-.15-2.02.46-4.08.78-6.56z"/></g></svg>