<svg enable-background="new 0 0 400 400" viewBox="0 0 400 400" xmlns="http://www.w3.org/2000/svg"><path d="m385.2 377.6.6-.6c.6.4 1.3.9 1.9 1.5l-.6.7c-.8-.6-1.4-1.1-1.9-1.6zm.3 7.1c.6-1.4 1.1-2.9 1.5-4.5.3.1.6.3.9.4-.5 1.4-1 2.9-1.5 4.4l-.9-.2zm.2-10.1.6-.6c.7.5 1.3 1.1 1.9 1.6l-.7.7c-.6-.6-1.2-1.2-1.8-1.7zm8.4-.8h.8v.9h1.8v.7h-1.8v1.8h-.8v-.3h-1.2v.9h3.3v2.6h-.8v-.4h-2.5c0 .3 0 .6-.1.8h3.4v.7h-3.5c0 .3-.1.6-.1.8h4v.7h-3.5c.7.9 1.9 1.3 3.6 1.5-.2.2-.4.5-.6.9-1.9-.3-3.2-1.1-3.8-2.3-.5 1.1-1.8 2-3.9 2.4-.2-.3-.4-.5-.6-.8 1.9-.4 3.1-.9 3.6-1.7h-3.2v-.7h3.5c.1-.2.1-.5.2-.8h-3.3v-.7h3.4c0-.2 0-.5 0-.8h-2.4v.3h-.8v-2.6h3.3v-.9h-1.2v.3h-.8v-1.8h-1.8v-.7h1.8v-.9h.8v.9h3.2zm-4.4 5.5h2.4c0-.3 0-.6 0-.9h-2.4zm1.2-3.1h3.2v-.8h-3.2zm4.4 2.2h-2.4v.9h2.5v-.9z" fill="#fcfafa"/><path d="m389.2 385.8h.9v1.5h1.8v-1.5h.9v1.5h2.7v6h1.1v.9h-11.3v-.9h1.1v-6h2.7v-1.5zm.2 8.7.5.8c-1.2.6-2.5 1.3-4 1.9-.2-.3-.3-.6-.6-.8 1.6-.6 3-1.3 4.1-1.9zm-2-4.3h1.9v-2.1h-1.9zm0 3.1h1.9v-2.2h-1.9zm2.7-3.1h1.9v-2.1h-1.9zm.1 3.1h1.9v-2.2h-1.9zm2.3 1.3c1.4.6 2.7 1.2 4.1 1.8l-.5.9c-1.5-.7-2.8-1.4-4.1-1.9zm2.2-6.5h-1.9v2.1h1.9zm-1.9 5.2h1.9v-2.2h-1.9z" fill="#fcfafa"/><g fill="#010101"><path d="m133.93 217.27c-11.65 2.28-22.52 4.4-34.64 6.77 7.13 5.02 6 10.13 3.37 16.32-7.81 18.39-15.27 36.98-27.16 53.17-6.26 8.53-13.87 16.09-21.07 23.89-1.37 1.49-3.71 2.09-6.22 2.52 15.51-29.34 34.24-57.17 33.93-90.55-6.42-3.11-11.82-5.41-16.85-8.34-1.46-.85-1.9-3.46-2.8-5.27 1.97-.95 3.86-2.47 5.93-2.77 15.93-2.33 31.9-4.38 47.85-6.63 5.71-.81 11.38-1.92 17.82-3.02 0-15.38 0-30.91 0-46.98-10.1 4.32-20.3 8.61-30.43 13.07-4.09 1.8-8.13 3.78-12.01 6.01-3.4 1.96-5.82 1.3-8.08-1.71-3.27-4.36-4.11-8.65-2.89-14.35 1.65-7.7 1.73-15.82 1.82-23.76.11-10.64-.36-21.29-.7-31.94-.15-4.75-.12-9.49-3.51-13.6-1.04-1.26-1.2-4.71-.24-5.75 1.18-1.28 4.35-2.03 5.96-1.35 4.37 1.83 8.69 4.14 12.36 7.08 1.68 1.34 2.57 4.64 2.51 7.03-.37 16.28-1.31 32.55-1.58 48.83-.12 7.03 2.33 6.85 7.56 5.53 9.59-2.42 19.53-3.44 29.39-5.05 0-11.59.15-23.19-.04-34.79-.25-15.66-1.96-31.14-6.1-46.31-.83-3.06 2.61-6.37 5.51-5.03 7.32 3.38 14.47 7.22 21.31 11.5 1.47.92 2.31 4.66 1.8 6.69-5.2 20.53-5.42 41.5-5.65 62.42-.54 50.62-.65 101.25-.91 151.88-.06 10.49.26 20.99-.23 31.46-.2 4.16-1.61 8.48-3.38 12.31-2.69 5.85-6.71 5.92-9.78.34-5.69-10.36-8.65-20.99-7.09-33.35 2.36-18.75 3.13-37.71 4.14-56.61.53-9.62.1-19.28.1-29.66z"/><path d="m235.43 315.76c-3.29-22.93-1.71-45.7-7.7-67.55-14.38-.12-29.31 6.21-39.48-9.95 2.21-.54 3.82-1.16 5.46-1.29 29.65-2.35 59.3-4.65 88.94-6.95 9.44-.73 18.86-1.79 28.31-2.06 6.23-.18 12.92 5.42 14.08 11.24-15.34 1.5-30.61 3-46.73 4.57 1.48 1.56 2.35 2.67 3.4 3.56 3.62 3.08 4.68 6.86 4.2 11.57-1.73 17.02-3.2 34.07-4.76 51.11-.04.48.08.97.19 2.17 3.06-.2 6.13-.35 9.18-.61 10.59-.9 21.16-1.98 31.76-2.71 11.81-.81 20.06 5.98 27.49 13.87 3.08 3.28 1.46 6.73-3.27 7.21-3.79.38-7.65.13-11.48.01-27.09-.83-54.19-2.59-81.26-2.25-19.2.24-38.37 3.24-57.54 5.14-8.93.89-17.4.44-23.89-6.81-1.14-1.27-1.65-3.1-2.46-4.68 1.62-.51 3.21-1.37 4.86-1.49 19.88-1.4 39.75-2.7 60.7-4.1zm32.24-2.22c.13-1.27.31-2.23.31-3.19.01-17.81.04-35.61-.08-53.42-.02-2.96-.55-5.97-1.27-8.84-.29-1.17-1.78-2.96-2.65-2.92-7.13.31-14.24.99-21.35 1.56-.16.38-.32.76-.49 1.14 6.04 3.5 6.18 9 6.1 14.86-.21 15.47-.07 30.95-.07 46.43v5.97c6.89-.56 13.09-1.07 19.5-1.59z"/><path d="m262.07 110.53c0 12.39.09 24.34-.04 36.3-.06 5.64-.51 11.28-.91 16.91-.1 1.47-.35 3.1-1.09 4.3-1.07 1.75-2.5 4.19-4.07 4.44-1.33.22-3.57-1.97-4.58-3.61-4.37-7.12-5.93-14.66-5.14-23.28.99-10.86.24-21.88.24-33.56-19.5 2.27-37.88 4.41-56.46 6.57-1.9 8.03-3.8 16.39-5.9 24.7-.77 3.04-1.84 6.05-3.12 8.91-1.39 3.1-3.53 3.63-6.29 1.24-6.31-5.44-8.37-15.71-4.77-23.16 3.67-7.61 8-15.04 7.17-24.05-.12-1.35.78-2.8 1.25-4.32 1.02.16 2.2-.01 2.56.45 3.14 4.06 7.47 3.74 11.81 3.43 8.62-.61 17.24-1.17 25.85-1.9 8.59-.73 17.16-1.65 26.56-2.56-.46-5.36-.93-10.72-1.45-16.81-6.06.37-11.94.8-17.83 1.06-5.97.27-11.99.86-17.92.4-6.46-.5-11.33-4.08-14.74-10.83 2.48-.48 4.3-1.02 6.14-1.15 24.88-1.7 49.75-3.39 74.63-4.97 9.24-.59 18.54-1.56 27.74-1.03 5.44.31 9.63 4.44 12.46 10.88-17.91 1.62-35.01 3.17-50.92 4.61-.32 5.42-.64 10.83-.99 16.72 15.7-.95 31.27-1.85 46.83-2.87 5.63-.37 11.26-1.56 16.85-1.33 3.57.14 7.86 1.28 10.45 3.54 5.96 5.23 11.16 11.34 16.5 17.24 2.48 2.75 1.6 5.14-1.96 5.72-13.14 2.17-25.06 7.53-36.79 13.51-.96.49-2.38.06-3.59.06.1-1.23-.1-2.59.36-3.67 2.34-5.5 5-10.88 7.26-16.41 1.74-4.27-.51-8.11-4.95-7.94-16.94.65-33.85 1.61-51.15 2.46z"/><path d="m187.49 229.9c-5 .77-6.85-2.47-7.51-6.47-1.21-7.34-1.81-14.78-3.11-22.1-.94-5.3-2.58-10.47-4.08-16.39 1.89 0 3.93-.6 5.31.1 8.21 4.2 15.77-.35 23.56-1.46 2.29-.32 4.52-1.04 6.79-1.5 6.98-1.41 13.02 1.31 15.94 7.86.88 1.97.49 4.84-.14 7.06-1.4 4.93-3.41 9.68-4.97 14.56-.69 2.14-1.33 4.42 1.43 6.02.73.42 1.38 2.21 1.06 2.9-.36.78-1.83 1.35-2.87 1.45-8.08.81-16.16 1.59-24.25 2.15-5.72.4-5.74.24-7.16 5.82zm1.94-13.14c23.05-4.59 19-1.1 19.52-19.46.01-.33-.04-.66-.04-.99-.01-3.16-1.53-4.54-4.71-4.06-4.86.73-9.72 1.41-14.77 2.14z"/><path d="m300.55 214.07c-.77 2.89-1.27 4.8-1.78 6.72-3.9 1.33-6.02-.75-6.63-3.97-.92-4.86-1.01-9.87-1.75-14.77-1.23-8.13-2.7-16.22-4-23.91 7.74-1.05 15.79-2.14 23.84-3.24 5.09-.69 10.17-1.87 15.27-1.96 9.12-.16 14.67 9.94 10.4 17.83-2.44 4.49-4.37 9.29-6.17 14.08-.45 1.19.33 2.97.85 4.36.48 1.28 1.38 2.41 2.84 4.85-11.74.01-22.22.01-32.87.01zm20.74-31.44c-7.88.6-14.2 1.08-20.82 1.59v22.9c5.53-.75 10.76-1.41 15.97-2.22.82-.13 2.1-.87 2.19-1.47.96-6.6 1.72-13.21 2.66-20.8z"/><path d="m231.41 180.26c-.36.1.39-.39.86-.19 8.36 3.48 16.22-.74 24.29-1.5 2.64-.25 5.35-.42 7.87-1.15 6.62-1.9 10.85 1.11 14.26 6.3 2.16 3.28 2.89 6.2.5 10.04-2.42 3.89-3.68 8.51-5.47 12.79-1.06 2.53-1.81 4.68 1.14 6.87 2.35 1.75 1.43 3.53-1.48 3.76-8.11.64-16.25 1.76-24.34 1.54-4.01-.11-5.05.73-5.06 4.29 0 .91-.64 1.81-1.62 4.34-2.28-2.52-4.63-4.09-5.45-6.25-1.21-3.18-1.46-6.76-1.88-10.19-1.24-9.95-2.37-19.93-3.62-30.65zm13.85 30.59c4.9-.71 9.82-1.27 14.66-2.23 1.11-.22 2.68-1.69 2.81-2.74.61-4.92.83-9.9 1.11-14.85.17-3.03-1.27-4.07-4.31-3.7-4.57.56-9.18.79-14.27 1.2z"/><path d="m285.34 298.07c3.4-4.11 6.99-8.09 10.16-12.37 3.92-5.31 7.62-10.8 11.12-16.39 1.09-1.73 1.87-4.12 1.67-6.1-.47-4.49 2.48-5.43 5.04-4.02 5.24 2.88 10.02 6.65 14.68 10.44.66.54.11 4.22-.89 4.86-12.95 8.33-26.09 16.38-39.19 24.46-.37.23-.94.12-1.42.17-.39-.34-.78-.69-1.17-1.05z"/><path d="m221.11 292.28c-.83 4.47-.99 7.7-2.06 10.58-1.87 5.04-8.49 6.14-10.92 1.52-5.06-9.64-9.42-19.67-13.68-29.7-1.3-3.07 1.03-5.13 3.97-3.51 6.33 3.51 12.78 7.08 18.3 11.67 2.62 2.19 3.23 6.79 4.39 9.44z"/><path d="m238.6 149.96c-1.43 1.65-2.67 3.52-4.32 4.9-6.74 5.63-13.49 11.28-20.52 16.54-1.74 1.31-4.91 2.21-6.79 1.54-4.43-1.58-8.85-3.75-12.59-6.58-3.1-2.35-2.2-5.37 1.16-6.3 12.57-3.45 25.14-6.89 37.72-10.3 1.5-.41 3.04-.65 4.57-.97.26.4.51.79.77 1.17z"/><path d="m271.22 147.06c10.26-.84 20.05-1.06 28.68 4.23 4.68 2.87 6.32 8.44 6.17 13.94-.1 3.76-3.76 5.87-6.2 4.29-9.64-6.24-18.78-13.27-28.07-20.05-.3-.22-.25-.92-.58-2.41z"/><path d="m200.41 125.8c8.54-1.53 15.88-1.19 23.36.46 7 1.55 10.1 6.56 11.94 12.63.48 1.58-.04 4.49-1.17 5.28-1.58 1.11-4.7 1.79-6.2.95-8.39-4.7-16.52-9.86-24.65-15-1.1-.69-1.71-2.2-3.28-4.32z"/><path d="m266.5 141.52c4.91-5.14 9.58-9.61 13.71-14.53 2.27-2.72 4.02-6.06 5.26-9.4 1.07-2.89 2.82-3.58 4.8-2.06 3.88 2.96 7.56 6.26 10.81 9.89.75.84-.08 4.82-1.03 5.19-10.48 4.07-21.13 7.73-31.74 11.46-.25.08-.62-.18-1.81-.55z"/></g></svg>