<svg enable-background="new 0 0 400 400" viewBox="0 0 400 400" xmlns="http://www.w3.org/2000/svg"><path d="m204.96 158.1c-1.75 12.49-3.54 25.3-5.42 38.72 4.53 1.05 8.86 1.96 13.14 3.07 3.02.79 5.94 1.9 8.93 2.8 8.06 2.42 11.72 8.48 12.66 16.22.32 2.6-.38 6.55-2.12 7.82-1.77 1.29-6.12 1.08-8.08-.28-7.91-5.48-15.34-11.66-22.95-17.59-.76-.59-1.51-1.19-3.04-2.4-3.94 27.56-7.76 54.36-11.71 82.03 15.51-5.59 30.16-10.87 44.82-16.15.41.61.83 1.21 1.24 1.82-1.3 1.67-2.31 3.76-3.96 4.96-17.47 12.72-34.95 25.45-52.72 37.75-2.11 1.46-6.19 1.21-8.94.38-4.73-1.42-9.2-3.8-13.65-6.04-1.56-.79-3.01-2.15-4.05-3.58-2.57-3.57-1.36-6.53 2.88-7.85 5.07-1.58 10.07-3.38 15.18-4.83 2.69-.76 3.47-2.24 3.8-4.94 3.11-25.73 6.42-51.44 9.65-77.15 3.06-24.4 6.66-48.75 8.89-73.23 1-11.04 1.62-22.57-3.19-33.82-11.18 2.85-18.24-4-25.54-10.32-.01-.63-.02-1.26-.03-1.89 4.51-.87 9-1.86 13.54-2.59 32.27-5.21 64.59-10.18 96.81-15.67 10.02-1.71 17.8 2.43 25.49 7.45 1.25.82 2.6 3.64 2.1 4.52-.92 1.63-3.06 3.31-4.88 3.57-11.34 1.62-22.75 2.75-34.1 4.25-17.78 2.35-35.53 4.85-53.29 7.33-.92.13-1.79.56-3.09.99 1.41 1.51 2.57 2.66 3.63 3.9 3.3 3.86 4.76 8.08 3.75 13.34-1.66 8.59-2.79 17.28-4.3 26.9 6.82-1.87 12.96-3.13 18.79-5.27 7.47-2.74 14.72-6.11 21.99-9.36 5.1-2.28 10.37-3.02 15.51-.99 6.02 2.38 11.88 5.23 17.56 8.33 3.8 2.07 4.58 7.64 1.28 10.88-16.05 15.72-20.15 36.41-23.07 57.15-2.05 14.54-2.24 29.43-2.25 44.16-.01 15.14 4.64 29.22 13.68 41.47 9.49 12.86 23.22 16.04 38.15 14.56 2.9-.29 6.73-3.76 7.88-6.66 3.28-8.27 5.58-16.95 7.92-25.56 1.91-7.03 3.2-14.23 5.05-21.28.42-1.6 2.06-2.88 3.13-4.3 1.01 1.55 2.73 3.02 2.92 4.67.91 7.91.86 15.95 2.18 23.78 1.93 11.42 4.19 22.85 7.33 33.99 2.98 10.56.86 15.65-9.82 18.55-24.23 6.58-46.87 4.29-66.41-12.89-14.79-13.01-21.89-30.22-25.25-49.15-4.14-23.32-2.64-46.62.5-69.94 1.64-12.17 2.7-24.45 3.3-36.72.42-8.63-2.84-10.61-11.53-9.19-9.8 1.55-19.67 2.78-30.29 4.28z" fill="#010100"/><path d="m75.83 291.88c-1.44 6.03-2.39 12.13-4.46 17.83-1.02 2.81-4.12 4.86-6.27 7.25-2.27-2.28-4.99-4.26-6.74-6.89-6.69-10.07-4.96-21.07-3.44-32.21 2.05-15.13 4.08-30.33 4.78-45.56 1.24-27.25 2.11-54.55 1.91-81.82-.13-17.19-.77-34.57-6.18-51.26-1.71-5.28.11-7.7 5.55-6.35 4.85 1.2 9.22 4.3 13.91 6.27 1.99.84 4.47 1.75 6.39 1.27 13.35-3.31 26.56-7.24 39.94-10.38 4.15-.97 9.31-1.45 13 .16 7.34 3.21 14.31 7.58 20.81 12.32 4.46 3.25 3.67 6.04 1.11 10.82-3.5 6.55-6.54 13.41-9.03 20.41-3 8.43-5.21 17.15-7.79 25.73-.76 2.52-.91 4.56 1.76 6.39 1.37.94 1.86 3.18 2.75 4.83-1.69.8-3.31 2.11-5.07 2.32-17.48 2.09-34.98 4.03-52.48 5.92-2.47.27-4.99.04-7.89.04v36.45c15.62-3.68 31.09-7.08 46.4-11.07 4.65-1.21 9.03-1.43 12.95.79 6.47 3.65 12.71 7.78 18.68 12.2 3.53 2.61 3.63 6.14 1.04 10.11-3.42 5.24-6.75 10.68-9.12 16.45-3.4 8.27-5.83 16.94-8.85 25.38-.93 2.58-.45 3.87 1.77 5.7 2.73 2.25 4.59 5.57 6.82 8.43-3.14.94-6.23 2.41-9.44 2.73-20.96 2.04-41.96 3.86-62.81 5.74zm.15-12.89c15.09-2.58 29.48-4.98 43.82-7.58 1.38-.25 3.32-1.52 3.68-2.71 4.13-13.74 6.57-27.77 6.22-42.18-.09-3.76-1.94-5.83-6.05-5.36-6.43.73-12.87 1.32-19.31 1.97-8.7.87-17.4 1.74-26.5 2.65-.62 17.69-1.23 35.25-1.86 53.21zm2.2-112.39c.82.27 1.16.5 1.44.45 13.55-2.5 27.1-4.95 40.61-7.67 1.08-.22 2.28-2.19 2.56-3.53 1.14-5.34 2.34-10.72 2.77-16.15.76-9.55 1.01-19.15 1.4-28.72.13-3.04-1.63-4.07-4.48-3.82-3.97.36-7.96.48-11.91.96-10.03 1.22-20.05 2.59-30.37 3.93-.67 18.27-1.34 36.48-2.02 54.55z" fill="#010100"/><g fill="#fcfbfa"><path d="m385.2 377.6.6-.6c.6.4 1.3.9 1.9 1.5l-.6.7c-.8-.6-1.4-1.1-1.9-1.6zm.3 7.1c.6-1.4 1.1-2.9 1.5-4.5.3.1.6.3.9.4-.5 1.4-1 2.9-1.5 4.4zm.2-10.1.6-.6c.7.5 1.3 1.1 1.9 1.6l-.7.7c-.6-.6-1.2-1.2-1.8-1.7zm8.4-.8h.8v.9h1.8v.7h-1.8v1.8h-.8v-.3h-1.2v.9h3.3v2.6h-.8v-.4h-2.5c0 .3 0 .6-.1.8h3.4v.7h-3.5c0 .3-.1.6-.1.8h4v.7h-3.5c.7.9 1.9 1.3 3.6 1.5-.2.2-.4.5-.6.9-1.9-.3-3.2-1.1-3.8-2.3-.5 1.1-1.8 2-3.9 2.4-.2-.3-.4-.5-.6-.8 1.9-.4 3.1-.9 3.6-1.7h-3.2v-.7h3.5c.1-.2.1-.5.2-.8h-3.3v-.7h3.4c0-.2 0-.5 0-.8h-2.4v.3h-.8v-2.6h3.3v-.9h-1.2v.3h-.8v-1.8h-1.8v-.7h1.8v-.9h.8v.9h3.2zm-4.4 5.5h2.4c0-.3 0-.6 0-.9h-2.4zm1.2-3.1h3.2v-.8h-3.2zm4.4 2.2h-2.4v.9h2.5v-.9z"/><path d="m389.2 385.8h.9v1.5h1.8v-1.5h.9v1.5h2.7v6h1.1v.9h-11.3v-.9h1.1v-6h2.7v-1.5zm.2 8.7.5.8c-1.2.6-2.5 1.3-4 1.9-.2-.3-.3-.6-.6-.8 1.6-.6 3-1.3 4.1-1.9zm-2-4.3h1.9v-2.1h-1.9zm0 3.1h1.9v-2.2h-1.9zm2.7-3.1h1.9v-2.1h-1.9zm0 3.1h1.9v-2.2h-1.9zm2.4 1.3c1.4.6 2.7 1.2 4.1 1.8l-.5.9c-1.5-.7-2.8-1.4-4.1-1.9zm2.2-6.5h-1.9v2.1h1.9zm-1.9 5.2h1.9v-2.2h-1.9z"/></g></svg>