<svg enable-background="new 0 0 400 400" viewBox="0 0 400 400" xmlns="http://www.w3.org/2000/svg"><g fill="#010100"><path d="m127.06 346.36c2.29-2.06 4.32-4.58 6.92-6.11 17.15-10.08 33.28-21.51 47.16-35.81 6.45-6.65 12.24-13.94 19.23-21.98-9.18-5.77-17.06-11.67-25.74-15.95-10.52-5.19-21.76-8.94-32.59-13.53-2.03-.86-5.32-3.4-5.07-4.11.85-2.4 2.74-5.72 4.78-6.16 4.36-.95 9.4-1.39 13.56-.1 7.37 2.3 14.44 5.75 21.36 9.26 10.35 5.24 20.46 10.94 31.52 16.9 4.5-10.99 8.75-21.36 13.55-33.08-9.47 1.41-17.74 2.42-25.93 3.93-6.91 1.27-12.79-1.13-18.31-4.56-1.42-.88-2.07-3.53-2.31-5.46-.06-.5 2.74-1.81 4.3-1.97 13.38-1.34 26.78-2.57 40.18-3.67 3.11-.26 4.83-1.4 5.48-4.59 1.77-8.71 3.76-17.37 5.94-27.33-11.85 2.07-22.01 4.34-32.28 5.5-10.12 1.14-20.38 1.63-30.55 1.42-3.6-.07-7.25-2.87-10.65-4.82-1.15-.66-2.56-3.16-2.17-3.77.94-1.5 2.76-3.19 4.39-3.38 10.22-1.23 20.49-2.02 30.73-3.05 12.55-1.27 25.11-2.57 37.64-4.07 1.22-.15 3.15-1.68 3.24-2.71.82-8.85 1.28-17.73 1.88-26.98-13.7 2.38-26.2 5.09-38.85 6.55-7.96.92-15.41-2.01-22.92-8.02 2.83-1.31 4.44-2.57 6.17-2.78 12.04-1.44 24.11-2.62 36.15-3.98 4.93-.56 9.85-1.23 14.71-2.2.96-.19 2.37-2.04 2.28-3-1.06-11.05-2.24-22.09-3.68-33.1-.48-3.72-2.67-4.61-6.77-4.05-21.56 2.9-43.19 5.28-64.8 7.84-1.97.23-3.94.42-6.15.65-.81 9.81-1.5 19.39-2.4 28.95-4.51 47.65-13.19 94.33-32.13 138.64-10.82 25.32-28.5 45.15-49.65 62.15-5.67 4.56-11.93 8.39-18.05 12.36-1.56 1.02-3.59 1.33-5.4 1.96-.39-.42-.77-.85-1.16-1.27 3.66-4.51 6.96-9.37 11.04-13.46 16.22-16.22 31.27-33.52 41.18-54.24 7.27-15.2 12.1-31.58 17.89-47.48 1.91-5.24 3.39-10.64 5.36-16.89-13.55 9.74-26.18 18.94-38.96 27.92-4.88 3.43-9.95 6.69-15.26 9.38-1.98 1-5.28.97-7.3 0-4.62-2.2-9.13-4.89-13.08-8.12-2.25-1.83-4.08-4.94-4.73-7.79-.83-3.68.42-6.26 5.45-6.74 20.85-1.97 40.23-9.9 60.2-15.5 11.12-3.12 16.61-8.39 18.19-20.59 3.23-24.9 7-49.7 7.28-74.87.12-10.96-1.89-21.45-6.85-31.31-2.11-4.19-1.31-5.56 3.36-5.14 3.6.33 7.4.87 10.66 2.33 15.03 6.72 30.52 5.55 46.02 2.93 39.26-6.62 78.49-13.48 117.72-20.27 7.81-1.35 15.56-1.17 23.12 1.15 2.8.86 5.57 2.29 7.93 4.03 3.56 2.63 3.35 5.7-.81 7.05-5.62 1.82-11.55 2.78-17.4 3.74-21.61 3.55-43.25 6.95-64.88 10.41.02.37-.06.89.07.95 8.98 4.27 7.45 11.62 5.87 19.2-1.21 5.81-1.9 11.72-2.94 18.28 13.6-3.09 26.66-5.53 37.84-13.12 4.38-2.97 8.74-1.55 12.37-.21 6.6 2.45 12.69 6.29 18.9 9.73 4.47 2.48 3.9 5.9 1.45 9.61-4.12 6.24-8.18 12.52-12.15 18.85-1.49 2.38-2.67 4.95-4.59 8.55 4.16-.72 7.48-1.07 10.66-1.9 9.79-2.55 19.46-5.54 29.3-7.87 8.56-2.03 18.5 2.52 22.88 9.79 3.41 5.66 1.56 9.34-5.06 9.76-11.62.74-23.25 1.25-34.86 2.06-7.29.51-14.56 1.28-21.81 2.2-1.06.13-2.53 1.56-2.81 2.65-2.41 9.28-4.59 18.62-6.84 27.93 14.49 3.56 13.8 4.86 15.91 7.96-4.04 4.52-9.72 4.51-15.05 5.23-17.77 2.4-35.57 4.63-53.34 7.09-1.27.18-2.95 1.43-3.43 2.6-5.26 12.87-10.32 25.82-15.8 39.66 46.65 23.91 94.32 48.32 149.99 49.39-.54 5.07-4.12 5.5-6.96 6.05-8.48 1.63-17.02 2.96-25.56 4.19-10.85 1.56-21.77 2.63-32.57 4.45-5.4.91-10.32.38-14.92-2.24-13.43-7.63-26.82-15.33-40.1-23.22-13.13-7.8-26.1-15.87-39.42-23.99-20.81 27.01-47.87 44.52-78.78 56.55-2.04.79-4.45.62-6.69.89-.43-.72-.86-1.42-1.3-2.13zm120.94-156.95c-1.95 10.75-3.86 21.26-5.94 32.73 10.63-1.68 19.89-3.41 29.22-4.54 5.84-.71 9.58-2.43 8.99-9.28-.2-2.36 1.07-4.82 1.49-7.26.83-4.78 1.53-9.59 2.42-15.23-12.53 1.24-23.88 2.36-36.18 3.58zm.59-11.54c11.95-1.99 23.5-3.88 35.03-5.92.84-.15 2.03-1.32 2.13-2.14.82-6.37 1.98-12.78 1.92-19.16-.05-5.85-2.24-7.03-8.05-6.23-2.13.29-4.28.45-6.42.67-7.68.8-15.36 1.6-22.95 2.38-.54 10.15-1.08 19.89-1.66 30.4z"/><path d="m250.16 57.8c.06 10.82-6.62 15.57-14.14 11.39-5.55-3.08-10.88-7.18-15.07-11.91-5.58-6.29-10.12-13.53-14.79-20.58-2.85-4.3-1.37-7.48 3.37-6.66 9.56 1.64 19.93 2.6 28.08 7.17 7.52 4.22 11.45 13.42 12.55 20.59z"/><path d="m102.42 164.23c-.07 8.83-5.18 13.94-11.37 18.17-.87.59-3.43.06-4.22-.82-2.62-2.95-5.5-6.01-6.99-9.56-4.87-11.6-9.17-23.44-13.66-35.21-.29-.76-.44-1.67-.32-2.45.26-1.7.26-3.83 1.3-4.89.65-.66 3.2-.09 4.49.65 3.3 1.88 6.57 3.94 9.51 6.34 5.14 4.2 10.11 8.63 15.01 13.12 4.4 4.05 6.08 9.35 6.25 14.65z"/></g><path d="m385.2 377.6.6-.6c.6.4 1.3.9 1.9 1.5l-.6.7c-.8-.6-1.4-1.1-1.9-1.6zm.3 7.1c.6-1.4 1.1-2.9 1.5-4.5.3.1.6.3.9.4-.5 1.4-1 2.9-1.5 4.4zm.2-10.1.6-.6c.7.5 1.3 1.1 1.9 1.6l-.7.7c-.6-.6-1.2-1.2-1.8-1.7zm8.4-.8h.8v.9h1.8v.7h-1.8v1.8h-.8v-.3h-1.2v.9h3.3v2.6h-.8v-.4h-2.5c0 .3 0 .6-.1.8h3.4v.7h-3.5c0 .3-.1.6-.1.8h4v.7h-3.5c.7.9 1.9 1.3 3.6 1.5-.2.2-.4.5-.6.9-1.9-.3-3.2-1.1-3.8-2.3-.5 1.1-1.8 2-3.9 2.4-.2-.3-.4-.5-.6-.8 1.9-.4 3.1-.9 3.6-1.7h-3.2v-.7h3.5c.1-.2.1-.5.2-.8h-3.3v-.7h3.4c0-.2 0-.5 0-.8h-2.4v.3h-.8v-2.6h3.3v-.9h-1.2v.3h-.8v-1.8h-1.8v-.7h1.8v-.9h.8v.9h3.2zm-4.4 5.5h2.4c0-.3 0-.6 0-.9h-2.4zm1.2-3.1h3.2v-.8h-3.2zm4.4 2.2h-2.4v.9h2.5v-.9z" fill="#fcfbfa"/><path d="m389.2 385.8h.9v1.5h1.8v-1.5h.9v1.5h2.7v6h1.1v.9h-11.3v-.9h1.1v-6h2.7v-1.5zm.2 8.7.5.8c-1.2.6-2.5 1.3-4 1.9-.2-.3-.3-.6-.6-.8 1.6-.6 3-1.3 4.1-1.9zm-2-4.3h1.9v-2.1h-1.9zm0 3.1h1.9v-2.2h-1.9zm2.7-3.1h1.9v-2.1h-1.9zm0 3.1h1.9v-2.2h-1.9zm2.4 1.3c1.4.6 2.7 1.2 4.1 1.8l-.5.9c-1.5-.7-2.8-1.4-4.1-1.9zm2.2-6.5h-1.9v2.1h1.9zm-1.9 5.2h1.9v-2.2h-1.9z" fill="#fcfbfa"/></svg>