<svg enable-background="new 0 0 400 400" viewBox="0 0 400 400" xmlns="http://www.w3.org/2000/svg"><g fill="#010100"><path d="m215.56 90.82c-4.9-9.78-9.6-19.1-14.22-28.46-.72-1.46-1.21-3.09-1.5-4.7-.52-2.86 1.1-4.64 3.64-3.49 7.96 3.6 16.55 6.59 23.28 11.88 6.58 5.17 4.73 13.9 3.68 21.52-.13.93-.48 1.83-.9 3.37 8.51-.88 16.56-1.7 24.61-2.55 10.74-1.13 21.46-2.35 32.2-3.41 8.87-.88 15.41 4.37 22.12 8.9.94.63 1.72 2.91 1.29 3.82-.67 1.42-2.29 2.98-3.77 3.32-3.21.72-6.58.76-9.9.99-34.66 2.34-69.33 4.62-103.99 7-13.09.9-26.18 1.92-39.24 3.14-1.36.13-3.46 1.89-3.68 3.15-.89 5.22-1.53 10.53-1.63 15.81-.22 12.28-.07 24.57-.07 36.87 7.9-6.86 12.43-16.28 13.7-27.65 7.11.08 12.49 2.9 15.99 8.62.86 1.4.76 4.76-.27 5.71-9.05 8.3-18.07 16.83-31.06 18.93-1.6 11.75-2.96 23.45-4.82 35.07-5.83 36.44-16.61 71.14-37.54 101.98-4.83 7.12-10.86 13.46-16.56 19.96-1.61 1.84-4.03 2.97-6.08 4.43-.48-.37-.96-.73-1.44-1.1.88-2.15 1.52-4.45 2.69-6.44 19.17-32.57 30.91-67.89 38.79-104.63 6.93-32.33 10.36-65.01 8.77-98.07-.37-7.83-2.47-15.63-4.35-23.3-1.07-4.35.36-7.09 4.96-6.48 27.29 3.64 54.2-1.83 81.28-3.27 1.46-.09 2.89-.66 4.02-.92z"/><path d="m210.07 199.23c7.06 3.93 15.28 5.91 12.73 16.44 2.52 0 4.71.42 6.66-.08 6.92-1.74 12.83.6 18.33 4.3 1.42.95 2.08 3.04 3.09 4.61-1.7.83-3.35 2.25-5.1 2.4-8.29.69-16.6 1.03-24.91 1.51-1.11.06-2.21.19-2.51.22 1.34 4.6 2.62 8.99 4.11 14.11 8.87-1.45 19.07-3.24 25.32 8.98-7.97 1.09-15.12 2.33-22.32 2.95-3.86.33-5.23 1.96-5.09 5.55.09 2.28.02 4.58.02 7.5 4.21-.49 8.11-.87 11.99-1.4 6.72-.93 12.02 1.69 16.37 6.54 2.12 2.36 1.44 3.86-1.72 4.24-8.74 1.05-17.47 2.11-27.03 3.26-.35 6.2-.7 12.56-1.1 19.67 5.91-.97 11.1-1.63 16.19-2.71 9.65-2.05 17.78.74 24.58 7.52 1.5 1.49 2.12 3.86 3.15 5.82-2.26.78-4.5 2.17-6.78 2.22-4.8.11-9.61-.62-14.42-.75-19.34-.51-38.57.54-57.69 3.7-2.89.48-5.93.07-9.25.07-.24 2.45-.39 4.4-.65 6.35-.33 2.46-.16 5.23-1.28 7.28-1.5 2.74-4.02 4.93-6.11 7.35-2.03-2.23-4.83-4.13-5.95-6.75-3.06-7.17-3.37-14.61-1.73-22.44 1.59-7.58 2.49-15.46 2.46-23.2-.08-16.62-.78-33.25-1.63-49.85-.23-4.5-1.88-8.93-2.82-13.14-5.87 0-10.83 0-15.79 0-.05-.32-.09-.65-.14-.97 6.73-2.56 13.64-4.74 20.16-7.75 19.65-9.08 37.85-20.31 51.54-37.59 2.35-2.96 4.47-6.26 5.95-9.71 1.43-3.35 3.56-3.35 5.94-2.05 5.8 3.16 9.82 7.88 11.34 14.46.64 2.78-.38 4.46-2.94 6.06-7.57 4.71-14.9 9.86-22.97 15.28zm-34.18 105.9c10.31-1.19 20.55-2.37 30.53-3.52 0-6.9 0-13.29 0-19.65-10.44-.48-20.36 4.56-30.53-1.07zm-.05-57.21c10.41-.95 19.69-1.79 29.48-2.68-.57-4.32-1.05-7.56-1.42-10.82-.41-3.56-2.21-4.58-5.78-4.08-6.64.92-13.35 1.35-20.85 2.06-.39 4.19-.86 9.36-1.43 15.52zm.4 24.57c10.02-.79 19.77-1.56 29.38-2.32 0-4.86 0-8.77 0-12.98-9.91-.93-19.8 4.77-29.38-1.92zm35.18-54.32c-2.16-5.41-4.16-10.42-6.01-15.04-11.86 5.48-23.8 11.01-35.74 16.53 13.89 2.86 27.82-.7 41.75-1.49z"/><path d="m286.62 270.32c-11.98 10.32-24.29 19.51-39.98 22.1-.34-.52-.67-1.04-1.01-1.56 1.29-1.11 2.62-2.17 3.87-3.32 9.85-9.14 19.69-18.3 29.52-27.47 2.39-2.23 2.75-4.67 1.91-7.99-4.51-17.81-8.7-35.69-13.15-54.18-3.35.51-7.26.95-11.11 1.72-8.04 1.59-14.26-1.76-19.72-7.11-.73-.71-1.49-2.59-1.16-2.95.78-.85 2.16-1.41 3.36-1.57 9-1.22 18.01-2.31 27.36-3.49-3.53-23.39-.42-47.45-15.88-69.2 5.69 0 10.02-.77 13.89.23 3.52.9 6.59 3.66 9.79 5.72 5.93 3.81 6.39 8.75 4.91 15.52-1.56 7.16-1.13 14.84-.87 22.28.25 7.28 1.36 14.53 2.16 22.43 5.52-1.06 10.95-2.08 16.37-3.16 9.22-1.84 19.22.1 24.18 9.61-12.7 4.07-25.93 4.77-39.34 7.61 3.18 14.51 6.26 28.56 9.64 44 4.58-7.58 6.17-14.45 6.52-21.76.13-2.86.88-5.68 1.34-8.52 3.28.79 6.57 1.53 9.82 2.41.76.21 1.41.87 2.09 1.34 8.7 5.92 8.91 6.94 3.53 15.25-5.59 8.63-10.49 17.72-15.6 26.66-.5.88-.83 2.34-.46 3.16 6.05 13.15 12.22 26.27 22.56 36.78 4.41 4.48 6.13 4.24 8.38-1.65 2.13-5.56 3.44-11.44 5.28-17.12.84-2.58 2.08-5.02 3.14-7.52.57.01 1.13.03 1.7.04.55 1.67 1.39 3.3 1.58 5 .4 3.63.39 7.29.66 10.94 1.01 13.58 2.21 27.15 3.03 40.74.56 9.13-6.07 13.55-13.38 8.02-8.1-6.13-15.28-13.74-21.84-21.56-9.56-11.41-16.36-24.6-21.63-38.54-.32-.93-.86-1.75-1.46-2.89z"/><path d="m115.77 207.15c-2.46 4.23-4.63 8.67-7.44 12.66-6.8 9.65-13.83 19.15-20.95 28.57-1.21 1.6-3.44 3.73-4.98 3.56-7.99-.85-15.97-2.09-23.79-3.88-1.6-.37-3.44-3.66-3.48-5.64-.03-1.56 2.25-3.63 3.99-4.69 16.63-10.07 33.36-19.99 50.09-29.89 1.58-.94 3.38-1.5 5.08-2.24.49.52.99 1.03 1.48 1.55z"/><path d="m186.45 161.08c.49-13.28 1-26.57 1.47-39.86.05-1.49.01-3.01-.24-4.47-.66-3.83.7-5.17 4.29-4.06 9.51 2.94 13.87 10.61 12.63 20.46-1.29 10.21-1.63 20.54-2.64 30.79-.49 4.92-1.34 9.83-2.5 14.63-.4 1.69-2.32 4.36-3.32 4.26-1.73-.17-4.08-1.8-4.78-3.42-2.52-5.86-4.46-11.97-6.62-17.99.57-.11 1.14-.22 1.71-.34z"/><path d="m114.06 162.12c0 1.82.06 2.49-.01 3.15-.43 3.97-.51 8.22-5.27 9.78-4.62 1.51-7.77-.92-10.02-4.55-7.7-12.42-15.37-24.85-22.77-37.44-.99-1.69-.39-4.32-.53-6.51 2.14.31 4.73-.05 6.33 1.04 8.37 5.67 16.58 11.6 24.67 17.66 5.95 4.44 7.98 10.78 7.6 16.87z"/><path d="m321.46 157.11c-2.07 2.98-3.21 6.31-5.38 7.23-1.96.83-6.14-.1-7.44-1.75-6.16-7.78-11.7-16.06-17.34-24.24-.54-.78-.67-2.65-.14-3.17.76-.76 2.52-1.37 3.45-1 6.74 2.69 14.14 4.63 19.79 8.87 3.63 2.72 4.64 8.93 7.06 14.06z"/><path d="m251.12 159.22c-1.23 1.75-2.12 4.38-3.78 5.01-1.7.64-4.87.04-6.13-1.25-6.84-7.02-13.36-14.37-19.8-21.77-.87-1-.66-2.94-.95-4.44 1.38.02 2.9-.33 4.12.12 5.76 2.1 11.54 4.19 17.13 6.7 6.38 2.87 8.6 8.43 9.41 15.63z"/></g><path d="m385.2 377.6.6-.6c.6.4 1.3.9 1.9 1.5l-.6.7c-.8-.6-1.4-1.1-1.9-1.6zm.3 7.1c.6-1.4 1.1-2.9 1.5-4.5.3.1.6.3.9.4-.5 1.4-1 2.9-1.5 4.4zm.2-10.1.6-.6c.7.5 1.3 1.1 1.9 1.6l-.7.7c-.6-.6-1.2-1.2-1.8-1.7zm8.4-.8h.8v.9h1.8v.7h-1.8v1.8h-.8v-.3h-1.2v.9h3.3v2.6h-.8v-.4h-2.5c0 .3 0 .6-.1.8h3.4v.7h-3.5c0 .3-.1.6-.1.8h4v.7h-3.5c.7.9 1.9 1.3 3.6 1.5-.2.2-.4.5-.6.9-1.9-.3-3.2-1.1-3.8-2.3-.5 1.1-1.8 2-3.9 2.4-.2-.3-.4-.5-.6-.8 1.9-.4 3.1-.9 3.6-1.7h-3.2v-.7h3.5c.1-.2.1-.5.2-.8h-3.3v-.7h3.4c0-.2 0-.5 0-.8h-2.4v.3h-.8v-2.6h3.3v-.9h-1.2v.3h-.8v-1.8h-1.8v-.7h1.8v-.9h.8v.9h3.2zm-4.4 5.5h2.4c0-.3 0-.6 0-.9h-2.4zm1.2-3.1h3.2v-.8h-3.2zm4.4 2.2h-2.4v.9h2.5v-.9z" fill="#fcfbfa"/><path d="m389.2 385.8h.9v1.5h1.8v-1.5h.9v1.5h2.7v6h1.1v.9h-11.3v-.9h1.1v-6h2.7v-1.5zm.2 8.7.5.8c-1.2.6-2.5 1.3-4 1.9-.2-.3-.3-.6-.6-.8 1.6-.6 3-1.3 4.1-1.9zm-2-4.3h1.9v-2.1h-1.9zm0 3.1h1.9v-2.2h-1.9zm2.7-3.1h1.9v-2.1h-1.9zm0 3.1h1.9v-2.2h-1.9zm2.4 1.3c1.4.6 2.7 1.2 4.1 1.8l-.5.9c-1.5-.7-2.8-1.4-4.1-1.9zm2.2-6.5h-1.9v2.1h1.9zm-1.9 5.2h1.9v-2.2h-1.9z" fill="#fcfbfa"/></svg>