<svg enable-background="new 0 0 400 400" viewBox="0 0 400 400" xmlns="http://www.w3.org/2000/svg"><g fill="#010100"><path d="m192.28 257.56c-.88-5.37-1.96-10.25-2.34-15.19-.14-1.76 1.42-3.65 2.2-5.48 1.65.84 3.9 1.25 4.86 2.59 3.76 5.26 7.36 10.67 10.54 16.29 2.58 4.56 2.48 9.58.51 14.49-2.42 6.03-6.67 6.75-10.91 1.76-1.17-1.37-1.99-3.04-3.39-5.22-9.7 4.3-19.58 8.5-29.31 13.05-6.54 3.06-15.46-1.31-16.3-8.58-.18-1.55.67-3.96 1.87-4.81 10.4-7.42 14.76-19.06 20.95-29.41 2.2-3.69 4.01-7.61 5.38-12.6-4.48 1.65-9.04 3.13-13.43 4.99-9.71 4.12-10.02 4.1-15.7-4.51-2.39 10.61-4.49 21.14-7.17 31.52-5.43 21.01-12.89 41.33-24.54 59.7-6.02 9.5-13.64 18-20.77 26.77-1.37 1.68-3.8 2.51-5.74 3.72-.49-.45-.98-.9-1.47-1.35 2.65-5.2 5.17-10.47 7.97-15.58 15.16-27.65 23.88-57.48 30.51-88.12 7.45-34.41 8.76-69.21 7.84-104.21-.1-3.81-.06-7.81-1.19-11.37-1.1-3.44-3.5-6.52-5.58-9.58-.91-1.33-2.61-2.09-3.67-3.35-.98-1.18-1.58-2.67-2.35-4.03 1.33-.49 2.64-1.3 4-1.41 7.95-.64 15.9-1.19 23.86-1.65 21.89-1.26 43.79-2.45 66.35-3.71-3.44-8.01-6.57-15.24-9.66-22.49-.98-2.29-2.12-4.57-2.66-6.97-.36-1.61-.41-4.08.53-4.95.89-.83 3.45-.58 4.92.04 3.98 1.68 7.72 3.92 11.64 5.75 9.63 4.5 14.06 11.82 12.26 22.46-.77 4.55 1.46 4.94 5.13 4.54 18.34-1.97 36.7-3.68 55.03-5.71 9.81-1.09 17.39 3.62 24.62 9.04 3.19 2.38 2.18 5.75-1.74 7.09-1.55.53-3.23.81-4.87.88-25.09 1.1-50.2 1.9-75.28 3.28-25.4 1.4-50.76 3.36-76.14 5.12-1.6.11-3.19.54-5 .86-1.72 31.73-3.43 63.2-5.16 95.09.93-1.04 2.15-2.01 2.86-3.27 11.3-19.94 18.48-41.52 24.72-63.41 1.02-3.56-.55-7.85-.84-11.81-.41-5.57 1.67-7.35 6.73-4.99 4.47 2.08 8.59 4.97 12.71 7.73 2.95 1.98 2.38 4.8 1.06 7.54-9.87 20.52-19.71 41.06-29.66 61.55-2.63 5.42-1.63 7.29 4.45 7.13 2.98-.08 5.97-.43 8.9-.97.88-.16 1.88-1.24 2.29-2.15 3.42-7.42 6.44-14.91 5.94-23.4-.3-5.24 1.69-6.86 6.67-5.1 4.33 1.54 8.54 3.75 12.36 6.33 4.06 2.75 4.12 6.34 1.38 10.33-12.24 17.82-24.41 35.68-36.59 53.54-.65.96-1.29 1.95-1.75 3.01-1.34 3.08-.52 4.58 3.02 3.75 6.3-1.46 12.58-2.99 19.15-4.56z"/><path d="m292.68 257.1c7.98-1.6 15.96-3.19 24.54-4.91-.6-3.58-1.26-7.1-1.75-10.64-.22-1.6-.48-3.36-.03-4.84.93-3.02 3.3-4.48 5.35-1.39 4.65 7 9.3 14.1 12.78 21.7 1.35 2.94.18 7.56-1.02 11.01-1.8 5.16-6.58 5.59-9.92 1.11-1.63-2.2-2.46-4.99-4-8.24-2.72.94-5.84 1.81-8.79 3.06-7.64 3.24-15.24 6.59-22.81 10.01-6.19 2.8-14.53-.61-15.97-7.14-.44-1.98.51-5.34 2.03-6.52 12.05-9.38 17.12-23.43 24.4-36.77-5.91 1.6-11.84 3.16-17.74 4.81-6.7 1.88-12.61-3.06-11.89-10.1.11-1.1.45-2.36 1.12-3.19 11-13.56 16.02-30.09 22.81-45.74 1.39-3.19 2.22-6.62 3.57-9.83 2.29-5.44 2.14-10.9 1.09-16.57-.35-1.9-.08-4.77 1.12-5.84 1.15-1.03 3.88-.41 5.9-.27.93.07 1.86.67 2.73 1.13 12.53 6.49 13.41 9.07 6.89 21.37-8.72 16.44-17.53 32.83-26.34 49.22-1.79 3.34-1.64 5.93 2.69 6.45 3.78.45 7.63.62 11.42.44 1.11-.05 2.48-1.52 3.14-2.67 4.09-7.17 6.76-14.87 6.67-23.17-.05-4.64 2.18-6.06 5.75-4.6 4.84 1.98 9.55 4.52 13.81 7.55 3.18 2.26 2.7 5.63.36 8.79-11.96 16.18-23.87 32.4-35.72 48.66-1.29 1.77-2.1 3.89-3.13 5.85.33.41.64.84.94 1.27z"/><path d="m230.75 321.88c-5.13.17-7.28-2.26-7.85-5.82-1.05-6.53-1.47-13.16-2.52-19.69-1.74-10.72-3.77-21.4-5.75-32.48 1.6 0 4-.68 5.72.11 8.97 4.13 17.31.94 25.27-2.42 6.09-2.57 11.11-2.27 16.29 1.47 1.6 1.15 3.51 1.87 5.24 2.86 2.58 1.48 2.69 3.34 1.9 6.26-2.69 9.87-4.91 19.87-7.12 29.86-.19.84.85 2.15 1.62 2.95 1.14 1.19 2.72 1.96 3.81 3.19.81.91 1.69 2.4 1.47 3.38-.19.81-1.92 1.7-3.03 1.78-8.93.69-17.86 1.43-26.8 1.68-4.8.14-9.4-.39-8.25 6.87zm1.65-15.8c6.25-1.22 12.34-2.4 19.51-3.8 0-8.1.13-15.88-.04-23.66-.12-5.31-1.85-6.8-7.09-6.51-3.97.22-7.95.53-11.87 1.18-.94.16-2.37 1.86-2.33 2.8.45 9.9 1.16 19.79 1.82 29.99z"/><path d="m202.66 171.87c10.84-1.42 21.53-2.82 31.97-4.19-3.06-10.27-6.07-20.04-8.82-29.87-.47-1.69.11-3.68.21-5.54 1.98.46 4.22.48 5.88 1.47 3.84 2.29 7.51 4.92 11.06 7.66 7.7 5.96 10.3 13.61 6.67 23.2 3.53 0 6.77-.6 9.68.13 5.2 1.3 10.3 3.18 15.23 5.3 1.22.53 2.5 3.14 2.17 4.39-.31 1.19-2.6 2.47-4.14 2.65-17.8 2.08-35.63 4-53.46 5.88-5.24.54-14.55-5.47-16.45-11.08z"/><path d="m116.74 210.59c-1.1 2.92-1.82 6.08-3.38 8.73-5.66 9.57-11.56 19-17.45 28.43-2.42 3.87-6.4 4.73-10.48 4.23-5.58-.69-11.24-1.48-16.57-3.17-2.35-.74-4.82-3.54-5.55-5.93-.38-1.25 2.54-4.17 4.54-5.39 13.73-8.39 27.6-16.54 41.46-24.73 1.94-1.15 4.02-2.07 6.03-3.1.46.32.93.63 1.4.93z"/><path d="m122.17 175.07c-1.19 2.19-1.93 5.63-3.68 6.26-2.62.94-7.14 1.1-8.78-.51-8.97-8.81-17.36-18.21-25.79-27.56-.78-.86-1.08-3.4-.47-3.98.98-.93 3.02-1.43 4.39-1.12 5.8 1.3 11.6 2.73 17.25 4.56 11.58 3.76 15.99 9.88 17.08 22.35z"/><path d="m149.78 331.43c.73-9.6 1.35-18.86 2.24-28.1.15-1.57 1.5-3.03 2.29-4.54 1.2 1.19 3.01 2.16 3.5 3.59 2.89 8.42 5.68 16.88 8.06 25.46 1.09 3.94-4.46 13.58-8.23 15.01-3.31 1.26-6.08.31-6.95-3.37-.65-2.71-.66-5.56-.91-8.05z"/><path d="m217.75 235.38c11.12-1.88 21.84-3.76 32.6-5.48 5.25-.84 9.87.93 13.85 4.3.91.77 1.66 2.06 1.82 3.21.06.44-1.63 1.51-2.62 1.69-10.28 1.83-20.54 3.84-30.89 5.17-6.08.78-11.96-3.11-14.76-8.89z"/><path d="m316.32 276.35c2.28.82 3.72.91 4.46 1.68 5.06 5.25 10.36 10.36 14.83 16.09 4.36 5.59 3.21 11.98.21 17.92-1.98 3.92-6.85 4.3-8.72.39-5.21-10.95-8.84-22.46-10.78-36.08z"/><path d="m218.07 204.68c11-1.6 21.59-3.34 32.23-4.59 5.67-.66 11.85 3.32 14.89 9.13-2.51.47-4.8.95-7.11 1.31-8.34 1.28-16.65 2.87-25.03 3.66-6.77.64-12.69-3.45-14.98-9.51z"/><path d="m279.24 288.9c.68 1.34 1.39 2.67 2.03 4.02 3.11 6.58 6.56 13.03 9.21 19.78 2.69 6.84-.1 12.71-5.03 17.56-2.36 2.32-6.65 1.51-7.18-1.59-2.19-12.73-3.32-25.54-1.51-38.39.82-.45 1.65-.92 2.48-1.38z"/><path d="m171.59 290.04c12.51 4.59 20.31 22.11 14.57 32.16-1.05 1.84-3.87 4.08-5.48 3.81-1.99-.34-4.7-2.86-5.14-4.86-1.92-8.7-3.18-17.55-4.52-26.36-.23-1.48.34-3.08.57-4.75z"/><path d="m193.63 281.28c7.56 3.58 13.88 8.31 17.05 15.6 2.07 4.75.92 10.18-2.23 14.61-2.08 2.92-5.69 2.84-7.21.36-5.68-9.26-7.43-19.69-7.61-30.57z"/><path d="m296.62 286.69c2.5 1.43 3.97 1.87 4.83 2.84 3.19 3.6 6.23 7.34 9.25 11.09 4.82 6 3.4 12.09-.08 18.03-2.27 3.88-7.06 3.9-8.57-.19-3.59-9.69-5-19.83-5.43-31.77z"/></g><path d="m385.2 377.6.6-.6c.6.4 1.3.9 1.9 1.5l-.6.7c-.8-.6-1.4-1.1-1.9-1.6zm.3 7.1c.6-1.4 1.1-2.9 1.5-4.5.3.1.6.3.9.4-.5 1.4-1 2.9-1.5 4.4zm.2-10.1.6-.6c.7.5 1.3 1.1 1.9 1.6l-.7.7c-.6-.6-1.2-1.2-1.8-1.7zm8.4-.8h.8v.9h1.8v.7h-1.8v1.8h-.8v-.3h-1.2v.9h3.3v2.6h-.8v-.4h-2.5c0 .3 0 .6-.1.8h3.4v.7h-3.5c0 .3-.1.6-.1.8h4v.7h-3.5c.7.9 1.9 1.3 3.6 1.5-.2.2-.4.5-.6.9-1.9-.3-3.2-1.1-3.8-2.3-.5 1.1-1.8 2-3.9 2.4-.2-.3-.4-.5-.6-.8 1.9-.4 3.1-.9 3.6-1.7h-3.2v-.7h3.5c.1-.2.1-.5.2-.8h-3.3v-.7h3.4c0-.2 0-.5 0-.8h-2.4v.3h-.8v-2.6h3.3v-.9h-1.2v.3h-.8v-1.8h-1.8v-.7h1.8v-.9h.8v.9h3.2zm-4.4 5.5h2.4c0-.3 0-.6 0-.9h-2.4zm1.2-3.1h3.2v-.8h-3.2zm4.4 2.2h-2.4v.9h2.5v-.9z" fill="#fcfbfa"/><path d="m389.2 385.8h.9v1.5h1.8v-1.5h.9v1.5h2.7v6h1.1v.9h-11.3v-.9h1.1v-6h2.7v-1.5zm.2 8.7.5.8c-1.2.6-2.5 1.3-4 1.9-.2-.3-.3-.6-.6-.8 1.6-.6 3-1.3 4.1-1.9zm-2-4.3h1.9v-2.1h-1.9zm0 3.1h1.9v-2.2h-1.9zm2.7-3.1h1.9v-2.1h-1.9zm0 3.1h1.9v-2.2h-1.9zm2.4 1.3c1.4.6 2.7 1.2 4.1 1.8l-.5.9c-1.5-.7-2.8-1.4-4.1-1.9zm2.2-6.5h-1.9v2.1h1.9zm-1.9 5.2h1.9v-2.2h-1.9z" fill="#fcfbfa"/></svg>