<svg enable-background="new 0 0 400 400" viewBox="0 0 400 400" xmlns="http://www.w3.org/2000/svg"><g fill="#010102"><path d="m84.4 284.79c-1.67 4.92-2.96 10.2-5.22 15.03-2.56 5.47-4.92 5.3-8.59.59-6.38-8.16-6.46-17.41-5.49-27.07 1.76-17.51 3.93-35.02 4.67-52.58.94-22.27 1.16-44.61.67-66.89-.35-16.05-.82-32.26-6.45-47.69-1.21-3.32.44-5.4 3.83-5.12 2.73.23 5.85.78 7.96 2.33 3.43 2.52 6.6 2.17 10.26 1.25 11.43-2.87 22.82-6 34.39-8.23 10.15-1.96 19.14 1.87 26.31 8.88 2.09 2.05 2.97 6.36 2.78 9.53-.81 13.4-3 26.74-3.28 40.14-.49 22.97-.11 45.97.25 68.96.24 15.61 1.3 31.22 1.54 46.83.14 8.77-2.39 17.07-6.81 24.72-4.21 7.3-7.1 7.5-11.77.69-2.82-4.11-5.36-8.42-8.39-12.37-.95-1.24-3.15-2.32-4.67-2.2-10.89.9-21.73 2.13-31.99 3.2zm44.57-64.47c-15.08 1.62-29.36 3.16-44.23 4.76v46.61c13.27 1.19 26.42-7.21 40.96-.05 2.69-17.32 3.1-34.05 3.27-51.32zm-.14-60.01c0-6.33.36-11.96-.08-17.54-.66-8.24-1.79-16.44-2.91-24.64-.5-3.67-2.56-6.38-6.62-6-10.98 1.04-21.94 2.34-33.42 3.59v46.49c5.27-.63 10.48-1.36 15.71-1.85 9.05-.84 18.06-5.29 27.32-.05zm.58 49.82c0-13.65 0-26.86 0-40.12-14.82-1.07-29.07 5.69-44.01 2.26v40.45c14.89.75 28.86-6.95 44.01-2.59z"/><path d="m252.94 89.29c6.59 4.76 5.43 10.86 4.6 17.57-1.49 12.02-2.37 24.19-2.43 36.29-.17 39.49.12 78.99.32 118.49.07 13.65.98 27.32.4 40.93-.59 13.75-2.34 27.47-4.05 41.15-.44 3.5-1.17 8.43-6.13 8.46-4.88.03-6.03-4.73-6.41-8.31-.97-9.08-1.53-18.24-1.55-27.36-.06-30.83.16-61.66.33-92.48.16-28.98.63-57.95.45-86.92-.06-10.09-1.31-20.22-2.66-30.25-.55-4.08-2.78-7.93-4.16-11.66-20.32 3.91-39.3 10.07-59.24 8.31-.13-.62-.27-1.23-.4-1.85 4.78-1.58 9.55-3.19 14.34-4.72 23.78-7.61 47.25-16.06 69.01-28.48 4.61-2.63 8.56-6.76 12.09-10.83 3-3.47 5.96-4.75 9.92-2.6 5.98 3.25 12.07 6.39 17.6 10.3 2.61 1.85 4.04 5.37 6.01 8.14-2.97 1.53-5.8 3.61-8.95 4.49-12.77 3.53-25.64 6.68-38.47 9.97-.2.44-.41.9-.62 1.36z"/><path d="m297.99 243.4c-9.1 15.05-19.31 27.9-33.81 36.46-.54-.42-1.07-.84-1.61-1.25.74-1.47 1.33-3.05 2.24-4.41 10.98-16.48 21.8-33.08 26.36-52.69 1.24-5.33.91-11.07.94-16.62.02-3.49 1.14-5.32 4.81-5.3 4.86.02 15.2 7.82 16.05 12.65.31 1.75-.5 3.81-1.18 5.58-.71 1.84-1.95 3.47-2.82 5.25-1.66 3.4-3.23 6.85-4.75 10.1 7.11 4.66 14.17 9 20.88 13.82 3.48 2.5 6.43 5.76 9.48 8.83 5.27 5.31 6.14 12.05 5.25 18.97-.8 6.26-6.89 8.52-11.31 3.83-9.32-9.9-18-20.41-26.92-30.69-1.08-1.23-2.05-2.55-3.61-4.53z"/><path d="m301.89 150.49c4.22 2.14 8.29 3.75 11.86 6.12 6.89 4.57 13.8 9.2 20.13 14.49 5.6 4.69 6.17 11.6 5.26 18.43-.62 4.65-5.93 6.28-10.06 2.8-5.97-5.03-11.66-10.43-17.14-16-5.11-5.2-9.79-10.81-14.99-16.61-8.93 13.23-17.78 26.13-31.71 34.05-.45-.28-.9-.56-1.35-.85.61-1.47 1.14-2.99 1.85-4.41 6.47-12.9 13.34-25.62 19.32-38.73 4.01-8.79 6.07-18.16 3.32-28.04-.72-2.58.73-4.71 4.05-4.93 5.75-.37 17.39 7.7 18.37 13.31.3 1.72-.53 3.83-1.33 5.52-2.34 4.91-4.93 9.7-7.58 14.85z"/><path d="m194.83 239.68c9.21 5.4 18.35 10.4 27.11 16.01 5.69 3.64 8.16 9.52 8.15 16.26-.01 5.11-2.82 7.62-7.73 6.07-3.33-1.06-6.67-3.17-9.13-5.67-7.92-8.07-15.44-16.53-23.24-24.99-10.3 14.07-20.44 28.92-36.93 37.09-.57-.49-1.14-.98-1.71-1.47 1.4-2.08 2.75-4.19 4.2-6.23 10.54-14.78 20.71-29.81 26.64-47.15 2.5-7.3 4.91-14.74 2.86-22.83-.86-3.4 1.5-5.17 5.09-4.89 5.51.42 15.72 9.07 16.59 14.48.23 1.42-.54 3.18-1.29 4.55-3.59 6.53-7.33 12.99-10.61 18.77z"/><path d="m158.67 198.34c.97-1.65 1.83-3.38 2.92-4.94 10.97-15.76 21.31-31.88 25.65-50.9 1.11-4.85.82-10.08.65-15.12-.12-3.58 1.52-5.69 5.24-5.42 5.28.38 15.55 8.66 16.56 13.83.33 1.69-.5 3.84-1.35 5.49-2.72 5.27-5.69 10.41-8.52 15.52 6.49 3.99 12.93 7.72 19.11 11.83 5.15 3.43 8.96 8.23 9.75 14.47.33 2.62-.45 6.59-2.23 7.91-1.74 1.29-6.38 1.09-8.05-.38-6.85-6-13.08-12.7-19.48-19.21-1.6-1.63-2.96-3.49-4.64-5.5-9.54 13.62-19.21 26.53-34.21 33.67-.47-.43-.93-.84-1.4-1.25z"/></g><path d="m378.6 9.2.8-1c.9.7 1.9 1.4 2.9 2.3l-.9 1.1c-1.1-.9-2-1.7-2.8-2.4zm.5 10.7c.9-2.1 1.6-4.3 2.3-6.7.4.2.8.4 1.3.6-.7 3.1-1.5 4.3-2.2 6.6zm.4-15.2.9-.9c1 .8 2 1.6 2.8 2.4l-1 1c-1-.9-1.9-1.8-2.7-2.5zm12.5-1.3h1.2v1.4h2.7v1.1h-2.7v2.7h-1.2v-.5h-1.8v1.3h4.9v3.8h-1.2v-.5h-3.7c0 .4-.1.9-.1 1.2h5.1v1h-5.2c0 .5-.1.9-.3 1.2h6v1h-5.2c1.1 1.3 2.9 2 5.5 2.2-.4.4-.7.8-.9 1.3-2.9-.5-4.8-1.6-5.7-3.5h-.1c-.8 1.7-2.7 2.9-5.9 3.6-.2-.4-.6-.8-.9-1.1 2.8-.6 4.6-1.4 5.4-2.5h-4.8v-1h5.3c.1-.3.2-.7.2-1.2h-4.9v-1h5c0-.4 0-.8.1-1.2h-3.6v.5h-1.2v-3.8h4.9v-1.3h-1.8v.5h-1.1v-2.7h-2.6v-1.1h2.6v-1.4h1.2v1.4h4.7v-1.4zm-6.7 8.4h3.6c0-.4 0-.9 0-1.4h-3.6zm1.9-4.7h4.7v-1.2h-4.7zm6.7 3.3h-3.7v1.4h3.7z" fill="#fcfafa"/><path d="m384.7 21.4h1.3v2.2h2.8v-2.2h1.3v2.2h4.1v9.1h1.7v1.3h-16.9v-1.3h1.7v-9.1h4.1v-2.2zm.3 13.2.7 1.2c-1.8.9-3.8 1.9-6 2.9-.2-.4-.5-.8-.8-1.3 2.4-1 4.4-2 6.1-2.8zm-3.1-6.5h2.8v-3.2h-2.8zm0 4.6h2.8v-3.3h-2.8v3.2zm4.1-4.6h2.8v-3.2h-2.8zm0 4.6h2.8v-3.3h-2.8zm3.6 1.9c2.1.9 4.1 1.8 6.1 2.7l-.7 1.3c-2.2-1.1-4.2-2-6.1-2.9zm3.3-9.7h-2.8v3.2h2.8zm-2.8 7.8h2.8v-3.3h-2.8z" fill="#fcfafa"/></svg>