<svg enable-background="new 0 0 400 400" viewBox="0 0 400 400" xmlns="http://www.w3.org/2000/svg"><g fill="#010103"><path d="m256.35 158.74v21.13c9.34-1.22 18.48-1.81 27.31-3.79 5.48-1.23 9.83-.26 14.01 2.67 4.21 2.96 8.19 6.27 12.18 9.54 2.51 2.05 3.62 5.11 1.28 7.44-10.54 10.46-10.4 24.73-14.06 37.66-1.39 4.93-2.76 9.94-4.84 14.59-2.31 5.16-5.99 6.17-9.79 2.15-4.22-4.45-8.89-4.33-14.03-3.84-3.6.34-7.2.75-11.06 1.16v20.8c8.59-.94 17.08-1.84 25.56-2.82 6.76-.78 13.51-1.76 20.28-2.45 10.61-1.09 17.61 5.81 24.88 11.79 1.4 1.15 2.84 4.54 2.22 5.38-1.17 1.58-3.81 2.79-5.88 2.86-8.32.26-16.65-.01-24.98-.02-13.78-.03-27.56-.01-41.97-.01-.11 2.16-.28 3.91-.28 5.65-.02 16.99.26 33.99-.17 50.98-.14 5.5-1.99 10.99-3.36 16.41-.3 1.18-1.89 2.83-2.89 2.83-1.09 0-2.78-1.47-3.16-2.64-2.07-6.45-4.97-12.91-5.46-19.53-1.16-15.74-1.12-31.58-1.57-47.37-.04-1.46-.16-2.92-.27-4.92-12.49 1.8-24.66 3.22-36.71 5.38-10.49 1.88-20.24 1.79-28.23-6.45-1.53-1.58-2.64-3.55-4.91-6.66 24.07-2.24 46.6-4.33 69.22-6.44 0-7.19 0-13.94 0-20.87-8.38.64-16.48 1.05-24.5 2.08-1.19.15-2.01 3.19-3.35 5.48-4.02 1.12-7.26.01-8.79-4.89-1.87-5.97-2.95-12.22-4.05-18.4-2.32-13.04-4.37-26.12-6.68-39.17-.34-1.9-1.56-3.63-2.22-5.48-.42-1.18-1.2-3.09-.72-3.56.91-.89 2.78-1.61 3.93-1.29 14.18 3.98 28.01-1.21 42.01-1.41 1.11-.02 2.21-.59 3.83-1.04-.38-6.62-.75-13.23-1.18-20.65-4.55.58-8.89 1.14-13.23 1.68-9.64 1.21-19.02.96-27.03-5.53-1.95-1.58-3.4-3.79-5.08-5.72.15-.65.31-1.29.46-1.94 14.53-.94 29.05-1.88 44.07-2.85-.8-8.96-1.76-17.22-5.56-25.02-.89-1.83-1.05-5.7.01-6.45 2.31-1.64 5.93-3.1 8.44-2.43 4.56 1.21 8.89 3.71 12.97 6.23 5.57 3.44 6.69 6.96 5.35 13.56-.66 3.25-1.2 6.53-1.97 10.75 3.68-.64 7.01-1.08 10.27-1.82 8.22-1.86 15.94-.28 23.01 3.88 1.95 1.15 2.89 4.02 4.29 6.1-1.99 1.23-3.86 3.23-5.99 3.56-8.52 1.33-17.12 2.16-25.69 3.15-1.92.21-3.88.37-5.92.57zm-16.69 62.13c-8.85.51-17.44 1.01-26.1 1.51.25 5.24.54 11.37.85 17.95 8.71-.89 16.89-1.72 25.25-2.58 0-5.94 0-11.5 0-16.88zm-27.19-9.51c9.3-.6 17.81-1.16 26.2-1.7 0-6.08 0-11.33 0-16.99-9.04.83-17.71 1.62-26.2 2.4zm43.84-4.53c9.36-.57 18.49-1.13 28.36-1.73-.19-2.89-.42-6.63-.67-10.37-.23-3.34-2.33-4.62-5.36-4.64-7.39-.05-14.79-.02-22.33-.02zm.11 27.93c5.86 0 11.15-.48 16.29.15 3.96.49 7.15-.49 8.17-4.53 1.08-4.28 1.77-8.66 2.76-13.65-9.44.66-18.29 1.28-27.23 1.91.01 5.8.01 11.05.01 16.12z"/><path d="m95.74 113.18c-6.04 0-11.33.31-16.57-.08-6.79-.5-12.1-4.33-16.8-8.93-.9-.88-1.42-2.67-1.23-3.91.1-.63 2.14-1.3 3.34-1.37 24.41-1.32 48.68-3.51 72.66-8.72 7.61-1.65 15.36-.05 21.91 4.55 1.86 1.3 3.75 4.16 3.61 6.17-.1 1.48-3.34 3.6-5.43 3.93-10.49 1.69-21.06 2.89-31.6 4.27-2.91.38-5.82.83-9.17 1.31.61 1.05.88 1.85 1.41 2.38 3.72 3.69 3.75 7.33 1.39 12.11-9.27 18.76-17.95 37.82-27.16 56.61-2.68 5.47-6.41 10.42-10.21 16.49 6.4-.9 12.06-1.37 17.57-2.55 11.82-2.54 23.56-5.5 35.36-8.17 2.07-.47 4.75-1.18 6.33-.3 7.65 4.22 15.14 8.78 22.38 13.67 1.05.71 1.12 4.07.53 5.84-3.77 11.28-7.87 22.44-11.82 33.66-.55 1.56-.74 3.27-1.38 4.78-2.97 6.94-4.36 13.35 4.18 17.66 1.1.55 2.26 3.59 1.9 3.94-1.26 1.23-3.14 2.37-4.86 2.5-18.91 1.34-37.83 2.49-57.24 3.72-.44 3.39-.74 7.16-1.5 10.84-.32 1.58-1.65 4.22-2.43 4.19-2.29-.1-5.26-.66-6.62-2.21-1.99-2.26-3.38-5.43-4.01-8.42-1.17-5.5-1.77-11.15-2.3-16.76-1.47-15.65-2.79-31.32-4.95-47.1-11.17 11.53-20.95 23.75-34.58 31.58-.54-.43-1.08-.85-1.62-1.28 1.49-2.57 2.78-5.28 4.5-7.68 18.37-25.61 35.33-52.09 46.17-81.84 4-10.97 5.62-22.81 8.18-34.28.41-1.87.06-3.91.06-6.6zm-3.37 95.04c.76 17.61 1.51 35.17 2.29 53.21 11.81-1.99 22.9-3.82 33.96-5.81.86-.15 2.07-1.32 2.19-2.14 1.76-12.29 3.83-24.57 4.86-36.93.75-9.05-3.01-11.98-12.07-11.17-10.23.91-20.46 1.86-31.23 2.84z"/><path d="m145.24 173c1.54-1.89 2.91-3.96 4.65-5.66 21.39-20.85 41.98-42.5 57.57-68.1 7.01-11.52 11.8-24.46 16.94-37.02 1.47-3.57 1.01-8.1.79-12.16-.22-4.21 2.83-7.56 6.92-6.79 8.76 1.65 18.73 14.54 18.25 23.35-.06 1.1.71 2.48 1.5 3.36 21.03 23.12 43.25 44.95 70.88 60.17 10.57 5.82 22.09 9.91 33.13 14.9 2.92 1.32 5.66 3.05 8.48 4.59-.05.6-.09 1.21-.14 1.81-3.85 1.14-7.63 2.64-11.56 3.34-9.32 1.65-18.76 2.66-28.05 4.44-4.89.94-9.08-.05-12.49-3.16-6.37-5.81-12.87-11.6-18.41-18.15-16.24-19.19-32.03-38.76-48.01-58.17-.72-.88-1.55-1.67-2.74-2.92-2.65 4.14-5.07 8.05-7.6 11.88-20.14 30.47-42.6 58.78-73.98 78.68-3.5 2.22-7.16 4.22-10.86 6.1-1.32.67-2.97.68-4.48.99-.25-.5-.52-.99-.79-1.48z"/></g><path d="m6.44 374.46.42-.45c.65.47 1.27.95 1.85 1.44l-.45.49c-.65-.56-1.25-1.06-1.82-1.48m.93 7.33-.63-.26c.55-1.36 1.05-2.8 1.53-4.33.19.1.38.19.59.27-.47 1.29-.96 2.73-1.49 4.32m-.38-10.38.44-.42c.43.34 1.01.82 1.74 1.44l-.49.49c-.53-.51-1.09-1.01-1.69-1.51m2.5.35h1.72v-1.04h.59v1.04h3.52v-1.04h.59v1.04h1.75v.53h-1.75v1.42h-2.03v.97h3.22v2.03h-3.24c0 .35-.01.66-.03.93h3.32v.53h-3.37c-.03.27-.08.58-.15.94h3.96v.53h-3.71c.67.92 1.93 1.48 3.79 1.68-.13.24-.23.44-.29.59-2.13-.38-3.48-1.08-4.04-2.12-.43.97-1.77 1.72-4.03 2.23-.09-.19-.2-.37-.33-.55 2.1-.42 3.37-1.03 3.81-1.83h-3.36v-.53h3.58c.08-.29.13-.61.16-.94h-3.33v-.53h3.39c.02-.27.04-.58.04-.93h-3.23v-2.03h3.25v-.97h-2.07v-1.42h-1.73zm1.12 3.44v1h2.65c.01-.3.02-.44.01-.4v-.25-.35zm1.19-2h3.52v-.91h-3.52zm4.71 2h-2.63v.59c0 .15-.01.28-.01.4h2.64z" fill="#fbfcfa"/><path d="m13.56 383.74h.63v1.52h2.72v6.07h1.13v.6h-11.06v-.6h1.13v-6.07h2.73v-1.52h.63v1.52h2.1v-1.52zm-2.69 8.83.38.56c-1.24.63-2.53 1.25-3.85 1.85-.1-.21-.21-.42-.34-.63 1.37-.55 2.63-1.15 3.81-1.78m-2.13-4.27h2.1v-2.45h-2.1zm0 3.04h2.1v-2.46h-2.1zm2.72-3.04h2.1v-2.45h-2.1zm0 3.04h2.1v-2.46h-2.1zm6.07 3.6c-1.41-.71-2.7-1.3-3.86-1.78l.35-.56c1.45.62 2.75 1.19 3.88 1.72zm-1.25-9.09h-2.1v2.45h2.1zm-2.09 5.49h2.1v-2.46h-2.1z" fill="#fbfcfa"/></svg>