<svg enable-background="new 0 0 400 400" viewBox="0 0 400 400" xmlns="http://www.w3.org/2000/svg"><path d="m385.2 377.6.6-.6c.6.4 1.3.9 1.9 1.5l-.6.7c-.8-.6-1.4-1.1-1.9-1.6zm.3 7.1c.6-1.4 1.1-2.9 1.5-4.5.3.1.6.3.9.4-.5 1.4-1 2.9-1.5 4.4l-.9-.2zm.2-10.1.6-.6c.7.5 1.3 1.1 1.9 1.6l-.7.7c-.6-.6-1.2-1.2-1.8-1.7zm8.4-.8h.8v.9h1.8v.7h-1.8v1.8h-.8v-.3h-1.2v.9h3.3v2.6h-.8v-.4h-2.5c0 .3 0 .6-.1.8h3.4v.7h-3.5c0 .3-.1.6-.1.8h4v.7h-3.5c.7.9 1.9 1.3 3.6 1.5-.2.2-.4.5-.6.9-1.9-.3-3.2-1.1-3.8-2.3-.5 1.1-1.8 2-3.9 2.4-.2-.3-.4-.5-.6-.8 1.9-.4 3.1-.9 3.6-1.7h-3.2v-.7h3.5c.1-.2.1-.5.2-.8h-3.3v-.7h3.4c0-.2 0-.5 0-.8h-2.4v.3h-.8v-2.6h3.3v-.9h-1.2v.3h-.8v-1.8h-1.8v-.7h1.8v-.9h.8v.9h3.2zm-4.4 5.5h2.4c0-.3 0-.6 0-.9h-2.4zm1.2-3.1h3.2v-.8h-3.2zm4.4 2.2h-2.4v.9h2.5v-.9z" fill="#fcfafa"/><path d="m389.2 385.8h.9v1.5h1.8v-1.5h.9v1.5h2.7v6h1.1v.9h-11.3v-.9h1.1v-6h2.7v-1.5zm.2 8.7.5.8c-1.2.6-2.5 1.3-4 1.9-.2-.3-.3-.6-.6-.8 1.6-.6 3-1.3 4.1-1.9zm-2-4.3h1.9v-2.1h-1.9zm0 3.1h1.9v-2.2h-1.9zm2.7-3.1h1.9v-2.1h-1.9zm.1 3.1h1.9v-2.2h-1.9zm2.3 1.3c1.4.6 2.7 1.2 4.1 1.8l-.5.9c-1.5-.7-2.8-1.4-4.1-1.9zm2.2-6.5h-1.9v2.1h1.9zm-1.9 5.2h1.9v-2.2h-1.9z" fill="#fcfafa"/><g fill="#010101"><path d="m133.41 184.08v6.3c0 17.83-.24 35.67.06 53.5.34 19.96 1 39.92 1.87 59.87.43 9.97-1.66 19.14-6.59 27.73-2.14 3.74-4.51 3.97-7.32.5-4.57-5.64-6.86-12.24-6.54-19.44.75-17.28 2.12-34.53 2.68-51.81.65-20.13.71-40.29 1.01-60.43.01-.79-.13-1.58-.34-3.83-2.24 4.08-3.87 6.98-5.43 9.91-15.42 29.02-36.06 53.86-60.71 75.42-2.2 1.92-5.66 2.39-8.54 3.53 1.15-2.53 1.99-5.27 3.51-7.55 16.17-24.18 33.15-47.86 48.42-72.59 7.93-12.84 12.88-27.52 19.17-41.37-.46-.48-.93-.96-1.39-1.43-7.97 3.03-16.03 5.85-23.88 9.16-8.76 3.7-17.12 3.46-25.33-1.3-1.29-.75-2.75-1.48-3.59-2.63-1.09-1.5-2.59-3.72-2.15-5.05.43-1.29 2.99-2.26 4.77-2.64 17.2-3.68 34.42-7.25 51.66-10.72 2.92-.59 4.27-1.66 4.12-4.89-.48-10.97-.69-21.95-1.04-32.93-.02-.77-.37-1.53-.66-2.65-13.77 4.02-27.31 7.84-42.01 6.45 1.63-.75 3.3-1.43 4.89-2.27 13.94-7.36 27.95-14.6 41.75-22.22 4.26-2.35 7.41-6.03 8.23-11.34.16-1.06 2.61-2.69 3.78-2.52 10.2 1.46 18.67 6.6 26.12 13.44.93.85 1.43 3.72.81 4.37-1.23 1.28-3.33 1.95-5.19 2.33-5.83 1.2-11.73 2.06-17.55 3.27-1.9.39-3.67 1.45-4.3 1.71v15.61 26.59c5.51-1.27 10.76-3.27 16.07-3.47 5.46-.21 11.09.97 16.44 2.33 1.6.41 2.54 3.44 3.78 5.28-1.59 1-3.07 2.53-4.8 2.91-9.39 2.06-18.82 3.94-28.28 5.66-2.68.49-3.48 1.62-3.56 4.27-.36 11.37-.43 11.33 10.08 14.8 8.99 2.97 17.44 6.74 18.15 17.89.16 2.48-.91 5.71-2.61 7.38-.94.93-4.89.06-6.55-1.22-6.3-4.84-12.23-10.17-19.01-15.91z"/><path d="m246.11 81.32c4.92 3.46 4.36 7.07 3.35 11.29-1.28 5.3-2.13 10.82-2.18 16.26-.18 19.82.09 39.65.12 59.48.01 6.45-.05 12.91-.38 19.35-.11 2.09-.91 4.28-1.92 6.13-.89 1.61-2.46 3.81-3.85 3.9-1.35.09-3.29-1.92-4.21-3.46-4.94-8.32-5.75-12.94-4.91-25.19-1.16.3-2.25.42-3.2.85-15.11 6.81-31.22 11.51-44.96 21.31-1.26.9-4.03.82-5.5.05-4.4-2.31-8.72-4.92-12.62-7.97-1.51-1.19-2.55-3.95-2.4-5.88.08-.97 3.24-2.1 5.14-2.43 5.03-.89 10.19-1.16 15.18-2.2 1.24-.26 2.94-2.53 2.93-3.86-.16-22.47-.47-44.95-.97-67.42-.11-4.78-.82-9.37-7.16-10.67-3.06-.63-5.81-3.11-8.52-5.01-.95-.67-1.38-2.08-2.04-3.16 1.06-.65 2.06-1.68 3.2-1.88 9.48-1.63 19.04-2.84 28.48-4.67 15.62-3.02 31.16-6.48 46.76-9.61 7.71-1.55 14.4 1.22 20.43 5.74 1 .75 2.07 3.23 1.7 3.64-1.23 1.35-3 2.71-4.74 3-4.24.72-8.59.8-12.89 1.25-1.3.11-2.55.59-4.84 1.16zm-49.35 7.89c8.59 7.06 1.65 14.82 3.89 21.72 5.19-1.78 10.22-3.89 15.45-5.19 5.21-1.3 10.63-1.78 17.14-2.81-.86-5.58-1.54-11.25-2.75-16.81-.26-1.2-2.63-2.97-3.74-2.78-9.58 1.64-19.1 3.68-29.99 5.87zm36.4 24.51c-10.86 2.1-20.6 3.93-30.31 5.92-1.03.21-2.67 1.29-2.7 2.02-.21 6.53-.12 13.08-.12 18.96 10.73-3.01 21.9-6.13 33.93-9.51-.21-4.66-.49-10.67-.8-17.39zm-34.02 55.47c11.5-2.87 23.08-5.75 34.91-8.7 0-5.99 0-11.52 0-17.63-11.87 2.72-23.1 5.29-34.91 8z"/><path d="m316.47 131.9c9.39 9.36 17.71 17.68 26.05 25.97 4.82 4.79 6.11 11 6.28 17.33.07 2.42-1.38 5.71-3.24 7.02-1.07.75-4.98-1.1-6.57-2.77-8.26-8.68-16.18-17.68-24.23-26.55-1.78-1.96-3.6-3.88-5.8-6.25-12.35 16.77-26.85 29.4-48.68 28.58-.3-.48-.59-.96-.89-1.44 7.25-5.25 15.01-9.95 21.62-15.92 6.7-6.04 12.27-13.33 17.96-19.67-12.46-13.55-23.9-25.99-35.35-38.43-.4-1.41.38-2.9 4.34-2.76 5.3.19 10.86-1.41 15.98-3.19 9.04-3.14 17.8-7.09 26.76-10.49 2.41-.92 5.23-1.89 7.63-1.49 5.53.93 11.05 2.33 16.33 4.23 5.21 1.87 5.24 4.97 2.35 9.77-7.29 12.18-14.09 24.67-20.54 36.06zm-34.66-25.05c8.51 6.29 15.8 11.68 23.53 17.39 2.27-6.04 4.59-11.37 6.22-16.91.81-2.74.67-5.88.4-8.79-.37-3.86-3-5.32-6.4-3.71-7.73 3.68-15.3 7.72-23.75 12.02z"/><path d="m213.79 217.14c8.06-3.41 16.32-6.42 24.12-10.34 9.18-4.61 18.13-9.75 26.79-15.26 2.44-1.55 3.97-5.05 5.1-7.97.92-2.38 1.48-3.83 4.41-3.09 9.41 2.39 17.4 7.37 24.62 13.61 1.22 1.05 2.27 4.33 1.63 5.08-1.29 1.51-3.81 2.81-5.78 2.76-13.02-.31-24.15 6.1-37.95 9.77 8.47 2.62 8.41 8.03 8.46 14.01.19 24.12.69 48.24 1.29 72.35.21 8.45 2.02 16.97 1.3 25.3-.61 7.05-3.6 13.95-5.96 20.76-1.15 3.32-3.47 2.28-5.4.29-5.87-6.03-7.47-13.68-7.33-21.6.38-20.61 1.39-41.21 1.66-61.81.17-12.96-.53-25.92-.91-38.88-.05-1.64-.55-3.26-.81-4.89-.5-3.12-2.04-3.3-4.98-2.63-7.75 1.76-15.6 3.09-23.46 4.31-2.17.34-4.5-.32-6.75-.52-.03-.42-.04-.84-.05-1.25z"/><path d="m305.52 264.73c-7.27 11.27-15.31 21.37-26.72 28.07-.43-.28-.87-.57-1.3-.85.91-1.99 1.66-4.07 2.77-5.94 7.49-12.59 14.65-25.4 18.16-39.71 1.7-6.94 1.73-14.29 2.55-21.46.27-2.41-4.33-5.06-.53-6.83 2.43-1.13 6.55-.92 8.84.46 4.15 2.52 7.93 6.02 10.98 9.81 1.23 1.53.86 5.25-.07 7.42-3 7.02-6.61 13.78-10.18 21.04 13.77 16.55 30.14 30.63 49.19 41.67-.08.55-.17 1.09-.25 1.64-3.36.61-6.69 1.52-10.08 1.77-5.64.41-11.3.48-16.96.53-3.97.03-6.88-1.71-8.83-5.36-5.69-10.67-11.56-21.26-17.57-32.26z"/><path d="m210.54 266.97c6.03 3.01 12.06 5.72 17.77 8.97 5.75 3.27 8 8.84 7.61 15.2-.13 2.21-1.38 5.34-3.06 6.19-1.61.81-5.09-.07-6.61-1.46-6.62-6.06-12.83-12.56-19.16-18.92-.82-.82-1.47-1.8-2.29-2.82-11.6 12.73-22.79 25.18-39.41 30.29-.4-.38-.8-.76-1.2-1.14 1.18-1.55 2.2-3.25 3.56-4.63 10.94-11.06 20.84-22.95 28.4-36.58 4.59-8.28 8.93-16.75 7.56-26.85-.5-3.72 1.64-4.58 5.03-3.61 5.02 1.42 13.81 11.24 14.01 16.4.06 1.64-.86 3.54-1.85 4.95-3.33 4.76-6.9 9.36-10.36 14.01z"/></g></svg>