<svg enable-background="new 0 0 400 400" viewBox="0 0 400 400" xmlns="http://www.w3.org/2000/svg"><g fill="#010100"><path d="m84.26 281.91c25.77-1.93 50.48-3.79 75.51-5.67-.68-5.84-1.31-11.23-2.01-17.27-5.75.54-11.34.8-16.86 1.63-11.47 1.71-18.05-.94-25.77-11.81 7.29-.65 13.82-1.31 20.35-1.79 6.61-.49 13.23-.8 21.07-1.26-1.16-6.09-2.2-11.84-3.38-17.56-.6-2.89-2.67-3.26-5.32-2.98-9.58 1.02-19.17 1.87-28.76 2.77-9.07.85-18.51-4.37-21.84-12.65 4.03-.46 7.85-1.09 11.7-1.29 33.19-1.79 66.41-3.21 99.58-5.36 19.87-1.29 39.68-3.61 59.49-5.69 8.47-.89 14.48 3.91 20.76 8.17.94.64 1.75 3.06 1.27 3.86-.8 1.35-2.61 2.76-4.11 2.9-4.46.42-8.99.09-13.48.3-12.22.57-24.44 1.27-35.61 1.86.31 6.17.6 11.75.89 17.51 2.17 0 4.75.52 7.03-.09 8.46-2.25 14.78 2.44 21.25 6.34 1.4.84 3 4.1 2.5 4.79-1.18 1.62-3.53 3.23-5.46 3.3-9.1.33-18.22.15-27.65.15-.93 7.52-1.7 13.72-2.55 20.6 7.18-.38 13.9-.68 20.61-1.11 12.6-.81 25.19-2.26 37.79-2.36 11.02-.09 18.48 7.46 25.33 15.03 1.84 2.04 1.24 5.05-2.08 5.78-3.04.67-6.23 1.01-9.34.94-31.25-.77-62.52-2.8-93.75-2.18-27.69.55-55.31 4.08-82.98 6.14-8.9.66-17.88 1.56-26.74 1.02-7.67-.49-13.48-5.11-17.44-14.02zm90.09-37.27c14.14-1.38 27.99-2.68 41.82-4.17.87-.09 2.28-1.57 2.28-2.39-.03-5.57-.38-11.13-.64-17.07-16.97 1.13-33.07 2.19-49.17 3.26 8.06 5.27 4.55 13.43 5.71 20.37zm-.12 30.98c15.16-.73 29.82-1.43 44.33-2.12 0-6.89 0-12.97 0-19.46-15.03 1.28-29.65 2.53-44.33 3.78z"/><path d="m161.94 110.6c-2.29-8.62-4.58-17.23-6.9-25.98-12.16.89-24.49 2.66-32.5-11.96 21.19-1.27 41.63-2.49 62.42-3.73-1.37-7.17-2.75-13.65-3.77-20.18-.28-1.76.52-3.68.82-5.53 1.69.4 3.6.43 5.03 1.27 3.28 1.94 6.47 4.1 9.42 6.51 4.59 3.74 9.05 7.71 6.52 15.4 3.96-.36 7.16-.69 10.37-.94 11.25-.89 22.49-2.12 33.75-2.48 6.92-.22 13.76 5.64 15.16 12.26-9.22.85-18.37 1.69-28 2.58.61 1.02.87 1.56 1.22 2.03 4.72 6.37 4.62 6.89-.79 12.51-4.23 4.4-8.25 9-13.35 14.6 3.77-.23 6.15-.34 8.52-.53 13.9-1.15 27.8-2.44 41.71-3.46 10.07-.74 17.36 4.64 23.67 11.65 1 1.11 2.08 3.48 1.57 4.32-.75 1.23-2.9 2.24-4.45 2.24-9.31.01-18.62-.42-27.94-.45-18.46-.06-36.93-.37-55.38.2-14.77.45-29.51 1.88-44.24 3.2-15.21 1.36-30.41 2.95-45.58 4.73-8.18.96-15.67.23-21.42-6.38-1.11-1.28-1.52-3.17-2.26-4.79 1.62-.58 3.21-1.53 4.86-1.68 20.5-1.88 41.01-3.63 61.54-5.41zm14.81-.68c9.66-.7 18.41-1.98 27.11-1.76 6.12.16 8.72-2.25 10.11-7.56.84-3.2 2.18-6.26 3.14-9.43 1.12-3.69 2.08-7.44 3.27-11.76-18.67 1.45-36.28 2.82-54.76 4.25 6.4 7.95 14.92 14.19 11.13 26.26z"/><path d="m133.46 194.41c-.77 1.74-1.53 3.73-2.52 5.6-2.08 3.91-3.88 4.04-6.63.62-4.51-5.6-6.08-11.94-5.25-19.09 1.62-13.94 1.02-27.8-2.29-41.47-.78-3.22.2-4.4 3.31-4.23.83.04 1.73-.04 2.47.26 14.86 6.1 28.93.36 42.86-3.46 8.68-2.38 18.37.71 21.84 9.21.45 1.11.61 2.67.2 3.74-3.8 9.8-2.4 19.91-2.26 29.99.09 6.43-.6 12.88-1.03 19.32-.06.95-.49 1.91-.9 2.8-2.69 5.83-5.24 6.88-8.83 1.91-5.25-7.25-11.48-7.83-19.3-6.69-7.05 1.05-14.24 1.03-21.67 1.49zm.8-32.4c12.34-1.26 24.11-2.46 36.44-3.72-.23-3.16-.73-6.44-.62-9.7.13-4.03-2.02-5.67-5.47-5.32-10.14 1.03-20.25 2.4-30.35 3.63zm36.31 7.47c-12.69.99-24.51 1.92-36.48 2.85-.23 4.35-.45 8.77-.7 13.43 1.42 0 2.24.09 3.04-.01 10.19-1.28 20.39-2.54 30.57-3.98 1.03-.15 2.59-1.28 2.73-2.15.54-3.22.59-6.51.84-10.14z"/><path d="m261.89 200.9c-3.43-3.45-6.83-6.51-9.77-9.95-1.98-2.32-3.74-3.4-7.04-3.05-9.74 1.03-19.54 1.51-29.14 2.19-.37.45-.58.68-.76.94-1.48 2.03-2.97 4.06-4.45 6.08-1.78-1.82-3.84-3.45-5.3-5.5-4.37-6.13-2.09-13.16-2.44-19.87-.62-12.05-1.46-24.09-2.46-36.11-.26-3.11 1.42-5.7 4.22-4.42 11.94 5.44 23.43-.13 35.07-1.02 3.85-.29 7.64-1.88 11.38-3.11 4.5-1.47 8.45-.82 11.97 2.39 1.72 1.57 3.94 2.81 5.12 4.71 1.25 2 2.7 5.02 2.05 6.89-3.92 11.26-1.98 22.66-1.83 34.07.11 8.6.99 17.68-6.62 25.76zm-8.2-48.47c-.25-3.41-.24-6.87-.9-10.2-.23-1.18-2.14-2.93-3.23-2.89-10.83.4-21.65 1.12-32.23 1.74v15.27c12.17-1.31 23.93-2.58 36.36-3.92zm-37.2 29.31c3.72-.7 6.45-1.36 9.23-1.72 8.15-1.05 16.2-4.21 24.6-1.31.58.2 2.23-.71 2.28-1.23.48-4.57.71-9.17 1.01-13.69-12.98 1-24.68 1.89-36.41 2.79-.24 5.07-.46 9.82-.71 15.16z"/><path d="m227.46 295.87c1.29.06 2.68-.2 3.8.23 12.02 4.67 24.17 9.06 35.93 14.32 8.07 3.61 14.94 20.21 12.95 28.91-1.12 4.89-6.26 7.25-10.32 4.2-4.09-3.07-7.66-6.84-11.34-10.43-9.03-8.82-17.97-17.74-26.97-26.58-2.88-2.84-5.65-5.67-4.05-10.65z"/><path d="m108 344.08c3.83-2.19 7.68-4.25 11.4-6.54 11.91-7.34 22.09-16.62 30.05-28.12 2.41-3.48 4.03-7.61 5.42-11.64 1.06-3.07 2.49-4.17 5.48-2.98 7.29 2.9 12.97 7.52 14.9 15.44.36 1.47-.55 4.1-1.76 4.97-9.69 6.99-19.28 14.21-29.53 20.31-9.71 5.78-20.28 9.98-31.98 9.87-.99-.01-1.99-.1-2.97-.24-.23-.02-.41-.4-1.01-1.07z"/></g><path d="m385.2 377.6.6-.6c.6.4 1.3.9 1.9 1.5l-.6.7c-.8-.6-1.4-1.1-1.9-1.6zm.3 7.1c.6-1.4 1.1-2.9 1.5-4.5.3.1.6.3.9.4-.5 1.4-1 2.9-1.5 4.4zm.2-10.1.6-.6c.7.5 1.3 1.1 1.9 1.6l-.7.7c-.6-.6-1.2-1.2-1.8-1.7zm8.4-.8h.8v.9h1.8v.7h-1.8v1.8h-.8v-.3h-1.2v.9h3.3v2.6h-.8v-.4h-2.5c0 .3 0 .6-.1.8h3.4v.7h-3.5c0 .3-.1.6-.1.8h4v.7h-3.5c.7.9 1.9 1.3 3.6 1.5-.2.2-.4.5-.6.9-1.9-.3-3.2-1.1-3.8-2.3-.5 1.1-1.8 2-3.9 2.4-.2-.3-.4-.5-.6-.8 1.9-.4 3.1-.9 3.6-1.7h-3.2v-.7h3.5c.1-.2.1-.5.2-.8h-3.3v-.7h3.4c0-.2 0-.5 0-.8h-2.4v.3h-.8v-2.6h3.3v-.9h-1.2v.3h-.8v-1.8h-1.8v-.7h1.8v-.9h.8v.9h3.2zm-4.4 5.5h2.4c0-.3 0-.6 0-.9h-2.4zm1.2-3.1h3.2v-.8h-3.2zm4.4 2.2h-2.4v.9h2.5v-.9z" fill="#fcfbfa"/><path d="m389.2 385.8h.9v1.5h1.8v-1.5h.9v1.5h2.7v6h1.1v.9h-11.3v-.9h1.1v-6h2.7v-1.5zm.2 8.7.5.8c-1.2.6-2.5 1.3-4 1.9-.2-.3-.3-.6-.6-.8 1.6-.6 3-1.3 4.1-1.9zm-2-4.3h1.9v-2.1h-1.9zm0 3.1h1.9v-2.2h-1.9zm2.7-3.1h1.9v-2.1h-1.9zm0 3.1h1.9v-2.2h-1.9zm2.4 1.3c1.4.6 2.7 1.2 4.1 1.8l-.5.9c-1.5-.7-2.8-1.4-4.1-1.9zm2.2-6.5h-1.9v2.1h1.9zm-1.9 5.2h1.9v-2.2h-1.9z" fill="#fcfbfa"/></svg>