<svg enable-background="new 0 0 400 400" viewBox="0 0 400 400" xmlns="http://www.w3.org/2000/svg"><path d="m377.9 391.2c-.2.3-.4.5-.6.8-.7-.6-1.4-1-2.2-1.5.2-.3.4-.5.5-.8.6.4 1.4.8 2.3 1.5zm-1.8 6.1c-.2-.2-.5-.4-.9-.6.4-.6.8-1.2 1.2-1.9s.7-1.3.9-1.9c.3.3.5.5.8.7-.7 1.3-1.4 2.6-2 3.7zm2.2-9c-.3.3-.5.5-.6.8-.6-.6-1.3-1.1-2-1.5.3-.3.5-.5.6-.7.6.5 1.3.9 2 1.4zm.3.2v-.9h2 4.5c-.3 1.3-.6 2.5-1 3.6s-.9 2.1-1.4 3c.4.5 1 1 1.6 1.4s1.2.8 1.9 1.1c-.3.2-.5.4-.8.8-.4-.3-1-.7-1.6-1.2s-1.2-1.1-1.6-1.6c-.5.6-1.1 1.1-1.7 1.6s-1.4.9-2.1 1.4c-.1-.3-.3-.5-.7-.8.6-.2 1.2-.5 1.9-1s1.4-1.1 2-1.8c-.5-.8-.9-1.6-1.2-2.5s-.6-2-.8-3.2c-.4.1-.7.1-1 .1zm2.5 2.7c.3 1 .7 1.7 1 2.2.3-.5.6-1.1 1-2s.6-1.9.9-3h-3.2-.4c.1.9.3 1.8.7 2.8z" fill="#fbfcfa"/><path d="m396.5 388.5v1.5 3.6h1.5v.9c-.4 0-1 0-1.7 0h-7.9c-.5 0-.9 0-1.2 0v-.9h1.3v-3.5c0-.7 0-1.2 0-1.6h2.4c0-.8 0-1.4 0-1.7h1c0 .3-.1.8-.1 1.7h1.5c0-.8 0-1.4 0-1.7h1c0 .3-.1.9-.1 1.7zm-8.2 9.2c-.2-.3-.5-.5-.8-.8.8-.3 1.4-.6 1.9-.9s1-.7 1.4-1.1c.3.3.6.5.9.8-1.6 1-2.8 1.6-3.4 2zm2.6-6.8v-1.6h-1.5v1.6zm0 2.7v-1.9h-1.5v1.9zm2.4-2.7v-1.6h-1.5v1.6zm0 2.7v-1.9h-1.5v1.9zm.2 2 .7-.8c.4.2.9.5 1.6.8s1.3.7 1.8 1c-.3.3-.5.6-.8.8-.4-.3-1.5-1-3.3-1.8zm2-4.7v-1.6h-1.4v1.6zm0 2.7v-1.9h-1.4v1.9z" fill="#fbfcfa"/><g fill="#010100"><path d="m162.1 341.79c16.85-11.58 31.17-24.08 43.11-38.87-7.6-8.79-14.96-17.32-22.58-26.13-10.1 10.93-21 20.81-35.43 25.96 22.23-23.09 40.43-48.22 45.23-82.02-9.3 1.57-14.52-3.72-19.76-8.85-.86-.85-1.2-2.23-1.78-3.37 1.27-.53 2.52-1.44 3.81-1.52 18.92-1.11 37.87-1.79 56.76-3.23 20.04-1.52 40.05-3.53 60.04-5.73 10.49-1.15 20.64-1.63 29.08 6.05 1.65 1.5 2.45 3.93 3.65 5.93-2.08 1.02-4.13 2.81-6.26 2.92-13.29.7-26.59.99-39.89 1.48-1.89.07-3.76.47-6.42.82 8.21 8.63 7.17 18.35 5.88 28.26-.77 5.89-.84 11.86-1.26 18.32 10.93.34 20.91-1.79 30.61-5.05 7.85-2.65 15.39-2.58 22.68 1.09 2 1 3.21 3.55 4.79 5.39-1.83 1.3-3.51 3.39-5.51 3.78-12.87 2.48-25.78 4.85-38.76 6.68-4.3.61-8.83-.48-13.44-.8 0 11.01-.66 22.58.18 34.04.85 11.69 5.54 15.92 17.47 16.68 7.41.47 14.97-.01 22.36-.94 6.52-.82 11.36-4.4 12.52-11.61.75-4.66 1.8-9.28 2.85-14.61 3.31 6.52 6.16 12.25 9.11 17.93 1.67 3.22 3.98 6.2 5.17 9.58 2.39 6.82.76 10.32-5.89 13.08-12.01 4.99-24.65 6.71-37.56 6.15-5.78-.25-11.65-.69-17.29-1.94-14.94-3.33-23.26-12.88-23.48-28.12-.3-21.46.54-42.93.39-64.39-.08-10.91-1.26-21.81-1.98-33.36-17.1 1.23-33.26 2.4-51.09 3.69 7.06 4.5 4.65 8.34 1.6 12.73-3.18 4.58-5.57 9.71-9.08 15.97 10.24-1.85 19.41-2.65 28.02-5.28 9.92-3.03 19.3 2.67 23.75 7.7 1.31 1.48 1.61 5.52.52 7.18-8.48 12.91-17.13 25.72-26.27 38.17-10.31 14.04-22.6 26.24-36.98 36.16-7.7 5.31-16 9.53-25.57 10.42-.66.07-1.32-.12-3.3-.34zm25.31-71.04c9.33 6.14 18.51 12.17 27.78 18.27 6.62-8.48 11.41-18.77 14.29-30.03 1.06-4.13-.03-6.13-4.42-5.93-8.47.38-16.93.72-25.39 1.23-.96.06-2.18.85-2.73 1.67-3.4 5.08-6.65 10.27-9.53 14.79z"/><path d="m215.36 180.98c-1.14 4.52-2.18 8.64-3.22 12.8-5.7.12-8.62-2.91-9.04-7.64-1.01-11.39-2.08-22.84-2.07-34.26.01-18.34-.21-36.61-4.03-54.63-1.97-9.3-2.06-9.28 7.66-7.17.46.1.95.1 2.6.26 3.24-8.22 6.76-16.6 9.76-25.16.87-2.48.69-5.6.13-8.24-.87-4.09.88-5.91 4.47-5.86 7.59.1 14.3 3.08 19.94 7.97 3.28 2.84 1.13 5.5-1.41 7.95-7.66 7.4-15.19 14.95-22.76 22.45-.43.43-.73 1-1.83 2.53 19.55-2.52 38.06-4.77 56.53-7.38 5.01-.71 9.8-3.11 14.81-3.61 6-.59 8.95 5.04 13.17 8.08 5.27 3.8 3.83 8.48 3.03 13.82-1.47 9.79-2.24 19.75-2.41 29.65-.25 14.77.57 29.55.29 44.31-.08 3.91-2.26 7.89-3.98 11.61-1.7 3.68-4.56 3.49-7.27.94-2.42-2.28-4.96-4.55-6.87-7.23-2.26-3.17-4.78-4.34-8.74-4.11-19.42 1.15-38.85 1.97-58.76 2.92zm68.43-68.45c-.46-4.35-.55-8.48-1.48-12.42-.36-1.53-2.44-3.44-4-3.73-3.7-.7-7.6-.92-11.37-.64-7.61.57-15.19 1.55-22.78 2.44-9.53 1.12-19.05 2.31-28.55 3.47v16.58c22.79-1.9 45.09-3.77 68.18-5.7zm-67.46 42.61v16.02c18.17-1.68 36.02-3.07 53.8-5.08 13.23-1.49 13.19-1.85 12.79-15.14-.01-.29-.27-.57-.67-1.38-21.75 1.85-43.69 3.7-65.92 5.58zm67.26-17.8c0-3.19-.14-6.32.04-9.44.17-3.03-1.24-3.63-3.93-3.42-21.09 1.66-42.19 3.23-63.43 4.84v14.78c22.36-2.24 44.38-4.45 67.32-6.76z"/><path d="m111.91 158.26c-13.09 1.64-25.28 3.03-37.43 4.74-8.46 1.19-14.39-3.08-19.64-8.65-2.89-3.07.24-3.98 2.51-4.29 8.39-1.14 16.81-2.08 25.22-3.05 9.56-1.1 19.14-2.15 28.59-3.2.28-.44.6-.72.6-.99.19-27.93 1.67-55.93-5.44-83.39-1.24-4.79 1.23-8 5.62-6.23 6.95 2.8 13.48 6.82 19.76 10.97 1.36.9 1.48 4.62 1.18 6.91-1.27 9.68-3.48 19.26-4.3 28.97-1.13 13.39-1.31 26.85-1.94 41.12 5.27-.66 9.86-.86 14.28-1.86 9.12-2.07 16.62 1.75 23.9 6.17 1.33.81 2.31 3.41 2.14 5.05-.11 1.06-2.54 2.51-4.05 2.68-9.9 1.13-19.83 2.04-29.76 2.86-6.97.58-6.98.46-6.99 7.15-.06 48.81-.06 97.61-.26 146.42-.02 5.76-.51 11.7-2.02 17.21-.95 3.45-3.7 8.11-6.57 8.92-4.49 1.26-5.25-4.47-7.05-7.57-6.08-10.46-5.05-21.62-3.18-32.98 1.34-8.18 2.4-16.47 2.64-24.74.68-23.79.85-47.6 1.29-71.39.21-11.14.6-22.28.89-33.42.06-2.28.01-4.58.01-7.41z"/><path d="m53.68 271.19c.7-1.25 1.39-2.51 2.12-3.75 11.27-19.11 20.78-39.02 24.43-61.08 1.01-6.12-.34-12.68-.95-19.01-.31-3.23.48-5.18 3.81-5.69 6.04-.92 17.85 6.8 19.31 12.7.22.87.21 1.98-.14 2.79-5.95 13.68-11.77 27.41-18.02 40.95-5.89 12.75-15.37 22.83-25.46 32.34-1.04.98-2.67 1.33-4.02 1.97-.36-.41-.72-.82-1.08-1.22z"/><path d="m136.55 176.97c2.66 1.06 4.65 1.28 5.77 2.39 6.96 6.85 14.18 13.52 20.41 21 5.39 6.48 3.48 14.22.4 21.18-1.98 4.48-8.3 4.28-10.83-.46-3.5-6.56-6.42-13.46-9.22-20.37-2.11-5.2-3.77-10.61-5.4-15.99-.66-2.1-.68-4.41-1.13-7.75z"/><path d="m134.59 122.25c.72-1.58 1.33-3.21 2.16-4.72 3.78-6.82 7.84-13.5 11.37-20.45 1.7-3.34 2.75-7.1 3.54-10.78 1.13-5.23 3.97-7.56 8.7-5.07 4.42 2.33 8.24 6.02 11.82 9.61.83.83.35 4.54-.76 5.46-10.44 8.75-21.12 17.21-31.81 25.65-1.04.82-2.61.97-3.93 1.43-.35-.37-.72-.75-1.09-1.13z"/><path d="m69.22 91.74c1.75.14 3.61-.23 4.86.47 7.34 4.14 14.82 8.14 21.71 12.97 6.49 4.55 6.4 14.01 4.61 21.18-1.18 4.74-7.55 6.58-10.24 2.59-7.57-11.24-14.19-23.12-21.12-34.78-.27-.45.07-1.25.18-2.43z"/></g></svg>