<svg enable-background="new 0 0 400 400" viewBox="0 0 400 400" xmlns="http://www.w3.org/2000/svg"><path d="m377.9 391.2c-.2.3-.4.5-.6.8-.7-.6-1.4-1-2.2-1.5.2-.3.4-.5.5-.8.6.4 1.4.8 2.3 1.5zm-1.8 6.1c-.2-.2-.5-.4-.9-.6.4-.6.8-1.2 1.2-1.9s.7-1.3.9-1.9c.3.3.5.5.8.7-.7 1.3-1.4 2.6-2 3.7zm2.2-9c-.3.3-.5.5-.6.8-.6-.6-1.3-1.1-2-1.5.3-.3.5-.5.6-.7.6.5 1.3.9 2 1.4zm.3.2v-.9h2 4.5c-.3 1.3-.6 2.5-1 3.6s-.9 2.1-1.4 3c.4.5 1 1 1.6 1.4s1.2.8 1.9 1.1c-.3.2-.5.4-.8.8-.4-.3-1-.7-1.6-1.2s-1.2-1.1-1.6-1.6c-.5.6-1.1 1.1-1.7 1.6s-1.4.9-2.1 1.4c-.1-.3-.3-.5-.7-.8.6-.2 1.2-.5 1.9-1s1.4-1.1 2-1.8c-.5-.8-.9-1.6-1.2-2.5s-.6-2-.8-3.2c-.4.1-.7.1-1 .1zm2.5 2.7c.3 1 .7 1.7 1 2.2.3-.5.6-1.1 1-2s.6-1.9.9-3h-3.2-.4c.1.9.3 1.8.7 2.8z" fill="#fbfcfa"/><path d="m396.5 388.5v1.5 3.6h1.5v.9c-.4 0-1 0-1.7 0h-7.9c-.5 0-.9 0-1.2 0v-.9h1.3v-3.5c0-.7 0-1.2 0-1.6h2.4c0-.8 0-1.4 0-1.7h1c0 .3-.1.8-.1 1.7h1.5c0-.8 0-1.4 0-1.7h1c0 .3-.1.9-.1 1.7zm-8.2 9.2c-.2-.3-.5-.5-.8-.8.8-.3 1.4-.6 1.9-.9s1-.7 1.4-1.1c.3.3.6.5.9.8-1.6 1-2.8 1.6-3.4 2zm2.6-6.8v-1.6h-1.5v1.6zm0 2.7v-1.9h-1.5v1.9zm2.4-2.7v-1.6h-1.5v1.6zm0 2.7v-1.9h-1.5v1.9zm.2 2 .7-.8c.4.2.9.5 1.6.8s1.3.7 1.8 1c-.3.3-.5.6-.8.8-.4-.3-1.5-1-3.3-1.8zm2-4.7v-1.6h-1.4v1.6zm0 2.7v-1.9h-1.4v1.9z" fill="#fbfcfa"/><g fill="#010100"><path d="m196.26 212.25c-19.15 1.34-37.92 2.92-55.8 9.68-3.13 1.18-7.97 2.28-10.1.75-4.14-2.97-7.91-7.41-7.4-13.36.11-1.25 1.71-3.22 2.87-3.41 21.85-3.63 35.23-18.15 46.2-35.71 2.53-4.04 4.38-8.5 5.73-11.15 3.96-1.35 7-1.6 8.98-3.17 18.49-14.64 35.6-30.64 47.73-51.21 5.15-8.74 9.15-17.94 10.89-29.4-4.68 1.69-8.65 2.7-12.23 4.5-8.2 4.11-16.05 3.24-23.85-.83-3.68-1.92-7.27-4.01-10.91-6.02.15-.56.29-1.12.44-1.67 1.48-.41 2.96-1.18 4.43-1.18 22.11-.05 43.45-5.29 64.95-9.51 8.39-1.65 16.27-4.2 23.57-8.89 4.69-3.01 10.31-3.39 15.15-.08 8.5 5.82 16.77 11.98 25.01 18.18 2.66 2 3.58 4.75.06 6.84-6.61 3.92-9.19 10.26-10.9 17.18-4.21 16.97-8.94 33.75-17.79 49.04-5.71 9.88-12.94 18.11-24.01 22.21-6.04 2.24-8.5 1.36-11-4.5-4.44-10.44-11.39-19.09-19.03-27.29-1.14-1.22-1.91-2.78-2.85-4.18.26-.44.51-.88.77-1.32 2.27.46 4.61.73 6.8 1.43 6.31 2.03 12.47 4.56 18.86 6.28 6.7 1.81 9.54.08 13.05-5.82 9.85-16.57 14.88-34.71 17.78-53.56.92-6.01-1.85-9.61-7.96-8.94-11.29 1.24-22.49 3.23-33.73 4.91-.09.44-.17.88-.26 1.32 1.1.78 2.11 2.01 3.33 2.26 4.02.83 3.9 3.88 2.61 6.1-9.27 15.91-17.61 32.42-30.38 46.09-12.86 13.77-27.23 25.4-44.24 33.65-1.02.49-1.93 1.19-4.19 2.61 2.32 1.75 4.38 2.96 6.02 4.6 3.51 3.5 3.08 4.94-.99 7.67-12.81 8.61-25.51 17.37-38.26 26.07.18.53.36 1.06.53 1.59 3.04 0 6.07.06 9.11-.01 14.14-.34 28.28-.67 42.42-1.14 1.54-.05 3.4-.56 4.52-1.54 7.62-6.69 15.23-13.41 22.51-20.47 3.08-2.99 5.37-6.55 3.47-11.64-.61-1.64 1.12-4.64 2.58-6.33.57-.66 3.78.04 5.04 1.06 6.28 5.08 12.7 10.08 18.29 15.87 3.95 4.1 2.98 6.49-2.08 9.3-29.34 16.29-58.7 32.54-88.02 48.86-4.15 2.31-8.11 4.98-11.88 8.43 27.65-2.35 55.31-4.7 83.59-7.11-3.35-5.8-6.39-10.87-9.2-16.07-.71-1.31-.7-3-1.03-4.51 1.41-.01 2.87-.27 4.21 0 14.1 2.88 26.96 7.95 36.63 19.43 4.81 5.72 6.96 12.06 6.67 19.26-.26 6.47-5.58 9.22-10.87 5.36-5.89-4.3-11.13-9.49-16.84-14.07-1.5-1.2-3.79-2.43-5.51-2.18-16.76 2.42-33.47 5.14-50.19 7.8-.46.07-.89.38-2.43 1.06 3.65 1.82 6.58 3.33 9.56 4.76 5.04 2.43 6.76 6.31 5.48 11.78-3.74 15.89-4.29 32.06-2.35 48.12 1.85 15.27-4.65 26.09-15.98 34.74-5.86 4.48-10.14 3.14-13.92-3.27-6.52-11.05-15.72-19.22-26.77-25.57-2.28-1.31-3.91-3.75-5.85-5.67.35-.55.71-1.09 1.06-1.64 3.37.58 6.71 1.41 10.1 1.69 8.05.66 16.13 1.54 24.18 1.39 5.25-.1 6.47-3.12 6.43-8.53-.06-8.64 1.29-17.34.62-25.9-.68-8.66-3-17.2-4.82-25.75-.59-2.78-2.49-4.07-5.61-3.21-16.14 4.44-32.46 8.27-48.38 13.37-9.52 3.05-12.17-.05-15.7-7.19-5.68-11.46-5.25-11.41 7.49-14.74 20.17-5.27 38.07-15.5 55.74-26.16 6.06-3.62 11.91-7.55 17.85-11.34z"/><path d="m153.21 82.94c7.9-1.29 15.06-2.62 22.27-3.59 3.98-.54 9.22-2.16 10.9 2.97 1.8 5.5-3.89 6.9-7.4 8.19-7.28 2.67-14.92 4.34-22.35 6.6-1.28.39-3.27 1.64-3.29 2.52-.23 10.94-.15 21.88-.15 32.19 10.21-1.87 21.27-3.93 32.35-5.89 1.62-.29 3.43-.44 4.96 0 1.7.49 3.18 1.74 4.75 2.66-1.34 1.46-2.41 3.71-4.05 4.25-7.07 2.35-14.41 3.91-21.47 6.29-21.37 7.22-42.71 14.53-63.93 22.18-5.58 2.01-10.72 5.29-15.93 8.22-2.95 1.66-5.25 2.02-7.98-.64-5.65-5.53-11.6-10.74-17.43-16.09.2-.53.41-1.07.61-1.6 4.15-.37 8.37-.38 12.44-1.16 17.22-3.33 34.45-6.65 51.57-10.46 8.83-1.97 8.73-2.43 8.73-11.75 0-8.46 0-16.92 0-25.77-4.31.58-8.05 1.12-11.81 1.57-10.3 1.22-20.23.18-29.33-5.25-1.14-.68-1.88-2.05-2.81-3.1 1.23-.57 2.42-1.47 3.71-1.65 11.33-1.64 22.68-3.13 34.02-4.73 1.94-.27 3.84-.85 6.3-1.4-.86-15.89-.91-31.66-9.44-45.84-.76-1.27-.77-2.99-1.12-4.49 1.71-.36 3.57-1.35 5.1-.98 6.93 1.69 13.86 3.48 20.59 5.79 7.51 2.58 8.45 6.39 5.92 13.97-2.5 7.48-3.91 15.33-5.72 23.04-.22 1.07-.01 2.26-.01 3.95z"/><path d="m257.79 279.52c3 1.16 6.14 2.04 8.97 3.51 10.4 5.42 21.1 10.41 30.91 16.76 8.71 5.65 11.83 20.1 7.95 29.71-1.63 4.02-4.83 4.64-8.14 3.05-2.91-1.4-5.92-3.37-7.87-5.87-10.18-13.09-20.1-26.4-29.96-39.75-1.33-1.79-1.8-4.22-2.67-6.35.27-.35.54-.7.81-1.06z"/><path d="m122.28 282.67c6.23 4.12 5.1 9.99 4.65 15.24-1.67 19.15-11.06 33.41-28.08 42.48-6.5 3.46-10.15 1.51-10.82-5.85-.65-7.08 1.71-12.68 7.45-17.43 10.02-8.29 19.3-17.37 23.78-30.16.54-1.56 1.96-2.82 3.02-4.28z"/></g></svg>