<svg enable-background="new 0 0 400 400" viewBox="0 0 400 400" xmlns="http://www.w3.org/2000/svg"><path d="m385.2 377.6.6-.6c.6.4 1.3.9 1.9 1.5l-.6.7c-.8-.6-1.4-1.1-1.9-1.6zm.3 7.1c.6-1.4 1.1-2.9 1.5-4.5.3.1.6.3.9.4-.5 1.4-1 2.9-1.5 4.4l-.9-.2zm.2-10.1.6-.6c.7.5 1.3 1.1 1.9 1.6l-.7.7c-.6-.6-1.2-1.2-1.8-1.7zm8.4-.8h.8v.9h1.8v.7h-1.8v1.8h-.8v-.3h-1.2v.9h3.3v2.6h-.8v-.4h-2.5c0 .3 0 .6-.1.8h3.4v.7h-3.5c0 .3-.1.6-.1.8h4v.7h-3.5c.7.9 1.9 1.3 3.6 1.5-.2.2-.4.5-.6.9-1.9-.3-3.2-1.1-3.8-2.3-.5 1.1-1.8 2-3.9 2.4-.2-.3-.4-.5-.6-.8 1.9-.4 3.1-.9 3.6-1.7h-3.2v-.7h3.5c.1-.2.1-.5.2-.8h-3.3v-.7h3.4c0-.2 0-.5 0-.8h-2.4v.3h-.8v-2.6h3.3v-.9h-1.2v.3h-.8v-1.8h-1.8v-.7h1.8v-.9h.8v.9h3.2zm-4.4 5.5h2.4c0-.3 0-.6 0-.9h-2.4zm1.2-3.1h3.2v-.8h-3.2zm4.4 2.2h-2.4v.9h2.5v-.9z" fill="#fcfafa"/><path d="m389.2 385.8h.9v1.5h1.8v-1.5h.9v1.5h2.7v6h1.1v.9h-11.3v-.9h1.1v-6h2.7v-1.5zm.2 8.7.5.8c-1.2.6-2.5 1.3-4 1.9-.2-.3-.3-.6-.6-.8 1.6-.6 3-1.3 4.1-1.9zm-2-4.3h1.9v-2.1h-1.9zm0 3.1h1.9v-2.2h-1.9zm2.7-3.1h1.9v-2.1h-1.9zm.1 3.1h1.9v-2.2h-1.9zm2.3 1.3c1.4.6 2.7 1.2 4.1 1.8l-.5.9c-1.5-.7-2.8-1.4-4.1-1.9zm2.2-6.5h-1.9v2.1h1.9zm-1.9 5.2h1.9v-2.2h-1.9z" fill="#fcfafa"/><g fill="#010101"><path d="m141.16 211.06c-2.13-4.2-4.37-8.1-6.08-12.21-.76-1.83-.97-4.26-.41-6.1.29-.93 3.43-2.1 4.31-1.57 5.95 3.62 11.86 7.38 17.35 11.66 4.79 3.73 7.72 8.93 6.71 15.26-.44 2.73-1.65 6.85-3.49 7.49-2.57.89-6.99.08-8.94-1.76-3.2-3.02-5.87-2.78-9.37-1.57-18.98 6.52-38.01 12.91-56.99 19.42-7.85 2.7-17.69-3.37-18.13-11.72-.11-2.14 1.1-5.51 2.74-6.39 10.28-5.5 16.49-14.83 23.37-23.56 7.21-9.14 14.37-18.33 22.25-28.4-6.89.34-12.92.35-18.87.99-8.21.89-16.37 2.34-24.57 3.34-1.25.15-3.02-.44-3.9-1.33-6.4-6.48-3.84-17.56 4.19-21.84 4.69-2.5 9.43-5.92 12.56-10.11 13.07-17.5 24.23-36.18 31.49-56.93 1.25-3.57 1.78-7.39 2.56-11.11 1.25-5.95 5.5-8.23 10.07-4.39 4.46 3.76 8.38 8.52 11.29 13.56 1.2 2.08.11 6.69-1.54 9.03-14.02 20.02-28.45 39.75-42.66 59.64-3.05 4.27-2.33 6.32 2.8 6.96 7.25.9 14.58 1.13 21.89 1.48.96.05 2.4-.63 2.88-1.42 6.47-10.74 15.14-20.28 17.5-33.27 1.97-10.85 2.94-11.26 12.74-5.6 3.97 2.3 7.61 5.37 10.91 8.59 3.55 3.46 3.2 7.43-.08 11.06-21.9 24.16-43.79 48.34-65.64 72.56-1.56 1.72-2.69 3.83-4.02 5.75.3.38.6.76.91 1.14 15.18-2.83 30.36-5.68 46.17-8.65z"/><path d="m184.63 241.11c19.29-19.39 33.45-41.31 35.48-70.72-7.63 7.1-14.41 13.34-21.12 19.66-4 3.77-7.83 7.72-11.81 11.51-3.25 3.09-6.48 2.81-9.59-.32-4.45-4.48-7.44-9.18-4.57-15.96 1.26-2.97 1.73-6.47 1.74-9.73.07-22.15.08-44.3-.3-66.45-.07-3.87-2.21-7.68-3.13-11.58-.46-1.95-1.16-4.63-.25-5.9.92-1.28 3.94-2.05 5.62-1.57 3.76 1.08 7.25 3.07 12.04 5.22 7.04-7.38 14.76-15.14 22.01-23.31 1.82-2.05 2.68-5.41 2.96-8.27.41-4.15 2.5-4.89 5.69-3.67 6.69 2.56 12.17 6.85 16.09 12.89 2.28 3.51 1.25 6.13-2.54 7.98-11.92 5.82-23.74 11.87-35.72 17.58-3.39 1.62-5.78 3.51-5.88 7.5-.02.82-.28 1.64-.32 2.46-.22 4.47-1.94 9.79-.1 13.16 1.45 2.65 7.21 3.27 11.2 4.13 6.2 1.34 9.79 5.5 12.02 10.77.95 2.25 1.03 5.95-.24 7.77-1.88 2.7-5.15 1.87-8.04.09-4.9-3.01-9.99-5.72-16.06-9.15v40.29c7.95-4.61 15.14-9.37 22.85-13.05 6.39-3.05 8.98-6.95 8.27-14.19-.94-9.57-.45-19.27-1.17-28.87-.29-3.86-2.02-7.65-3.32-11.4-1.86-5.34.13-8.37 5.47-6.82 5.48 1.58 10.78 4.23 15.67 7.21 1.66 1.01 2.63 4.48 2.54 6.78-.4 10.61-1.53 21.2-1.94 31.81-.6 15.66-2.36 31.09-6.67 46.23-6.03 21.2-19.75 36.18-37.87 47.65-2.22 1.41-5.22 1.6-7.85 2.36-.35-.7-.76-1.4-1.16-2.09z"/><path d="m276.21 167.25c5.75.85 10.24 1.38 14.68 2.19 7.57 1.4 10.93-.33 11.61-7.97 1.5-16.87 2.31-33.79 3.38-50.69.05-.82-.06-1.67-.19-2.49-2.02-12.76-5.25-14.93-17.7-11.93-4.48 1.08-8.98 2.09-13.48 3.14-.87 8.8-1.73 17.51-2.59 26.14 5.75 1.67 11.21 2.91 16.4 4.87 4.36 1.64 9.26 11.03 8.81 15.63-.39 4-4.68 6.21-8.09 3.83-3.8-2.66-7.26-5.82-10.88-8.76-1.76-1.43-3.53-2.83-6.16-4.94 0 2.42.02 3.84 0 5.25-.33 22.13-.42 44.27-1.12 66.39-.28 8.76-1.62 17.52-3.1 26.17-.39 2.26-3.11 4.11-4.76 6.15-1.73-2.13-4.77-4.15-4.96-6.42-1.12-12.9-1.86-25.84-2.17-38.79-.56-23.96-.46-47.94-1.21-71.89-.3-9.65.24-19.74-5.94-28.32-1.94-2.69-.6-4.81 2.01-6.04 1.45-.69 3.21-1.22 4.77-1.08 15.15 1.42 29.65-2.62 44.29-5.23 9.71-1.74 19.94 2.19 24.95 10.53.65 1.08.49 2.85.24 4.22-1.19 6.59-3.29 13.1-3.67 19.72-.86 15.11-.47 30.29-1.41 45.39-.65 10.35-1.47 20.97-8.52 29.61-1.47 1.8-2.86 4.23-4.8 4.92-2.24.8-6.29 1.05-7.4-.27-7.66-9.08-14.75-18.65-22.99-29.33z"/><path d="m287.06 279.96c2.28 1.15 3.75 1.76 5.08 2.59 10.51 6.65 21.05 13.26 31.46 20.08 3.35 2.19 6.31 4.98 9.44 7.49-3.37 3.01-6.27 7.14-10.21 8.76-6.66 2.74-13.89 4.54-21.04 5.6-20.41 3.02-40.78 2.77-60.7-3.35-21.8-6.7-34.51-22.09-40.59-43.49-.53-1.85.23-4.07.39-6.12 2.07.2 4.69-.32 6.08.76 2.36 1.82 4.96 4.38 5.7 7.1 5.63 20.57 21.5 27.37 40.15 29.24 10.44 1.05 21.16-.01 31.69-.83 5.31-.42 6.87-3.59 5.94-8.9-1.01-5.86-2.09-11.7-3.39-18.93z"/><path d="m338.93 274.31c-.18 4.02-1.14 7.1-4.8 8.98-3.74 1.92-6.53-.06-8.91-2.41-9.49-9.35-18.86-18.82-28.2-28.32-1.13-1.15-2.04-2.67-2.62-4.19-1.49-3.92-.05-5.65 4.02-4.75 8.07 1.79 16.08 3.86 24.15 5.62 6.16 1.35 9.86 5.33 11.93 10.91 1.71 4.64 2.97 9.44 4.43 14.16z"/><path d="m180.49 256.46c2.33 3.94 4.75 6.5 5.41 9.45 2.74 12.15 3.22 24.51-1.52 36.22-1.9 4.69-5.78 8.8-9.46 12.48-2.87 2.88-6.08 1.96-8.04-1.93-3.54-7.04-4.24-13.95-.9-21.49 4.09-9.25 7.33-18.87 11.02-28.29.7-1.76 1.8-3.35 3.49-6.44z"/><path d="m94.43 291.7c-1.19 6.06-4.17 11.85-10.18 15.53-3.91 2.4-9.26-.09-9.24-4.7.06-13.04.55-26.09 1.41-39.11.29-4.36 3.54-5.49 5.35-2.36 5.45 9.39 12.02 18.4 12.66 30.64z"/><path d="m235.93 242.21c7.27 1.36 14.22 2.77 21.2 3.94 5.72.96 11.44 15.48 9.67 20.79-1.44 4.31-7.48 6.01-11.75 2.67-7.72-6.03-15.15-12.45-22.48-18.95-1.57-1.39-2.19-3.84-3.24-5.8 2.17-.87 4.34-1.74 6.6-2.65z"/><path d="m108.75 248.15c2.3.81 3.94.92 4.84 1.79 4.15 4.06 8.44 8.05 12.01 12.59 4.56 5.82 4.39 15.11.35 21.33-3.02 4.64-9.03 4.63-10.99-.48-4.18-10.87-5.87-22.29-6.21-35.23z"/><path d="m136.43 239.39c16.27-2.32 29.51 12.58 24.74 26.45-1.67 4.84-7.41 6.52-10.55 2.56-6.75-8.47-10.7-18.42-14.19-29.01z"/></g></svg>