<svg enable-background="new 0 0 400 400" viewBox="0 0 400 400" xmlns="http://www.w3.org/2000/svg"><g fill="#010103"><path d="m151.02 241.95c-4.01-1.22-7.28-2.21-10.42-3.16-9.37 37.87-21.81 74.2-53.98 99.58-.65-.3-1.3-.61-1.94-.91.66-1.88.98-3.99 2.04-5.62 20.13-30.83 31.28-65 38.29-100.84 3.92-20.03 5.23-40.19 4.77-60.52-.07-3.26-.96-6.57-1.88-9.74-1.41-4.82.35-6.74 5.41-6.87 22.87-.6 45.74-1.48 68.61-2.28.28-.01.54-.33 1.15-.73-3.85-7.47-7.72-14.98-12.1-23.49 8.31-.63 13.92 2.89 19.7 5.68 6.9 3.34 8.38 9.35 7.16 17.12 8.15-.56 15.7-1.04 23.24-1.6 7.28-.55 14.58-1.01 21.84-1.82 7.15-.8 12.45 2.85 17.57 6.87 1.25.98 1.68 2.99 2.49 4.53-1.72.74-3.42 2.04-5.17 2.14-9.97.53-19.95.73-29.92 1.13-4.26.17-8.51.55-14.42.94 8.42 5.6 7.18 12.72 5.18 20.62 7.57-.56 14.69-.12 21.29-1.77 13.17-3.29 21.89 3.02 30 11.75 2.53 2.73 3.11 5.89.44 8.46-7.3 7.04-9.43 16.62-13.2 25.43-1.37 3.2-2.82 6.41-4.69 9.33-2.24 3.48-4.95 3.58-8.32.81-1.93-1.59-4.78-2.76-7.26-2.86-8.45-.35-16.92-.13-26.13-.13 3.28 5.95 6.75 10.33 8.15 15.3 1.43 5.07.83 10.72 1.19 17.44 6.97-1.6 14.55-2.95 21.89-5.12 7.5-2.21 14.8-2.48 21.89.68 2.09.93 3.44 3.53 5.13 5.36-1.9 1.31-3.64 3.37-5.73 3.82-11.19 2.37-22.44 4.58-33.75 6.31-3.65.56-7.54-.48-11.94-.85-.14 3-.36 6.08-.4 9.15-.09 6.5-.12 13-.12 19.49.01 7.98 3.96 12.81 11.71 14.25 10.97 2.04 21.89 1.36 32.67-1.2 6.34-1.5 11.18-5.2 13.19-11.68 1.61-5.22 2.9-10.54 4.31-15.82.5-1.86.93-3.73 2.59-5.79.5 1.22 1.08 2.42 1.48 3.67 2.69 8.32 4.79 16.89 8.17 24.92 4.08 9.71 3 14.04-6.62 18.03-19.91 8.27-40.47 10.17-61.44 5.2-13.37-3.17-20.14-12.07-20.25-25.93-.14-18.15.17-36.31-.03-54.46-.07-6.76-1.05-13.5-1.67-20.81-18.8 1.45-36.91 2.85-56.92 4.4 8.58 4.16 6.44 9.9 5.41 15.62-.67 3.72-.51 7.6-.7 11 8.13-1.8 15.95-4.31 23.91-4.97 4.36-.36 9.08 2.16 13.4 3.95 1.16.48 2.11 3.12 1.92 4.6-.13 1-2.34 2.25-3.77 2.5-11.92 2.01-23.88 3.81-36.37 5.76-.62 7.91-1.64 15.81-1.74 23.72-.08 6.8 1.53 7.62 7.83 5.52 11.35-3.78 22.67-7.62 34.03-11.35 1.96-.64 4.07-.85 6.27-1.28 1.35 4.11-.78 5.77-3.26 7.31-12 7.47-24.01 14.92-35.95 22.48-3.93 2.49-7.67 5.27-11.46 7.96-3.32 2.36-5.78 1.59-8.62-1.28-6.52-6.6-5.97-14.25-5.27-22.66 1.55-18.71 2.25-37.51 2.94-56.28.15-3.83-1.24-7.73-1.82-11.01zm-9.03-11.86c13.47-.72 26.32-1.41 39.34-2.11-.65-10.4-1.26-20.08-1.87-29.9-11.26.62-22.1 1.22-32.78 1.81-1.47 9.46-3.02 19.42-4.69 30.2zm51.87-3.05c9.51-.79 18.82-1.56 28.32-2.35 0-10.08 0-19.75 0-29.93-9.61.79-18.77 1.54-28.32 2.32zm41.08-5c8.53 0 16.48-.49 24.33.21 3.69.33 5.14-.89 5.61-3.71.94-5.71 1.39-11.5 2.14-17.24.64-4.86-2.18-6.77-6.29-7.07-6.46-.47-12.95-.72-19.43-.68-1.26.01-3.46 1.67-3.61 2.78-1.17 8.84-1.94 17.73-2.75 25.71zm-88.03-33.54h32.35c-.92-7.51-1.57-13.91-2.61-20.25-.18-1.11-2.09-2.84-3.11-2.78-7.4.47-14.77 1.32-22.33 2.07-1.47 7.17-2.9 14.1-4.3 20.96zm47.74-1.76c8.51-.73 16.61-1.32 24.67-2.23 1.17-.13 3.13-1.82 3.09-2.73-.2-5.44-.78-10.88-1.51-16.29-.12-.89-1.61-2.31-2.44-2.28-8.71.25-17.41.74-24.8 1.11.35 7.8.66 14.86.99 22.42z"/><path d="m133.07 78.88c0 14.29.02 27.9-.03 41.5-.01 1.81-.1 3.7-.65 5.39-.6 1.83-1.77 3.48-2.69 5.2-2.36-1.31-5.91-2.05-6.85-4.04-2.02-4.24-3.03-9.07-3.87-13.76-2.2-12.23-3.92-24.55-6.18-36.78-.67-3.63-2.49-7.05-4.08-11.39 3.18 0 6.06-.77 8.26.13 11.3 4.61 22.98 2.5 34.51 2.36 10.12-.12 20.25-.85 30.35-1.54 28.01-1.91 56.01-3.96 84.02-5.91 7.62-.53 15.26-1.32 22.88-1.22 3.27.04 6.7 1.69 9.73 3.25 2.77 1.42 5.14 3.64 7.6 5.62 8.35 6.71 8.2 8.04 2.02 16.7-3.02 4.23-5.07 9.3-6.84 14.24-2.68 7.48-4.67 15.21-7.07 22.79-.59 1.88-1.38 3.78-2.5 5.39-2.61 3.75-5.4 4.11-8.71 1.01-2.17-2.02-4.15-4.34-5.79-6.81-2.04-3.09-4.16-5.95 1.84-8.1 5.28-1.89 4.85-7.98 5.57-12.55.95-6.05.95-12.25 1.36-18.38.32-4.8-2.11-7.58-6.63-8.48-3.4-.68-6.9-1.47-10.33-1.35-23.58.81-47.17 1.72-70.74 2.85-17.1.82-34.18 2.03-51.27 3.06-4.82.29-9.63.56-13.91.82z"/><path d="m232.54 103.11c-6.11-7.54-15.34-9.5-19.75-16.85.32-.6.64-1.21.96-1.81 8.37 3.1 16.74 6.21 26.23 9.73 2.61-5.33 5.12-10.83 8.03-16.12.66-1.2 2.91-2.57 4.05-2.29 5.07 1.24 9.09 4.37 10.92 9.29.59 1.58-.35 4.47-1.59 5.84-2.85 3.14-6.32 5.72-8.51 7.62 4.06 5.53 7.86 10.53 11.42 15.69.78 1.13 1.11 2.93.87 4.29-.33 1.95-.91 4.38-2.28 5.45-.9.71-3.78-.11-5.1-1.12-5.66-4.36-11.08-9.04-16.85-13.82-9.98 7.2-21.02 11.9-34.14 13.72 9.04-6.88 17.25-13.15 25.74-19.62z"/><path d="m167.73 104.04c-6.29-7.63-16.44-8.63-20.37-16.58.4-.59.79-1.18 1.19-1.78 6.86 2.19 13.86 4.03 20.53 6.71 3.66 1.47 5.36.38 6.49-2.65 1.21-3.23 2.06-6.59 3.12-10.07 4.57-1.13 11.11 1.85 14.3 6.9 4.39 6.95-4.07 8.2-5.3 11.83 3.31 4.64 6.49 8.9 9.42 13.33.77 1.16 1.17 2.9.98 4.26-.25 1.79-.79 4.22-2.05 4.98-1.21.73-3.86.25-5.23-.67-3.72-2.48-7.09-5.5-10.63-8.26-1.03-.81-2.18-1.48-3.44-2.32-10.37 8.8-21.25 16.47-35.37 18.83 9.01-8.38 17.62-16.38 26.36-24.51z"/></g><path d="m6.44 374.46.42-.45c.65.47 1.27.95 1.85 1.44l-.45.49c-.65-.56-1.25-1.06-1.82-1.48m.93 7.33-.63-.26c.55-1.36 1.05-2.8 1.53-4.33.19.1.38.19.59.27-.47 1.29-.96 2.73-1.49 4.32m-.38-10.38.44-.42c.43.34 1.01.82 1.74 1.44l-.49.49c-.53-.51-1.09-1.01-1.69-1.51m2.5.35h1.72v-1.04h.59v1.04h3.52v-1.04h.59v1.04h1.75v.53h-1.75v1.42h-2.03v.97h3.22v2.03h-3.24c0 .35-.01.66-.03.93h3.32v.53h-3.37c-.03.27-.08.58-.15.94h3.96v.53h-3.71c.67.92 1.93 1.48 3.79 1.68-.13.24-.23.44-.29.59-2.13-.38-3.48-1.08-4.04-2.12-.43.97-1.77 1.72-4.03 2.23-.09-.19-.2-.37-.33-.55 2.1-.42 3.37-1.03 3.81-1.83h-3.36v-.53h3.58c.08-.29.13-.61.16-.94h-3.33v-.53h3.39c.02-.27.04-.58.04-.93h-3.23v-2.03h3.25v-.97h-2.07v-1.42h-1.73zm1.12 3.44v1h2.65c.01-.3.02-.44.01-.4v-.25-.35zm1.19-2h3.52v-.91h-3.52zm4.71 2h-2.63v.59c0 .15-.01.28-.01.4h2.64z" fill="#fbfcfa"/><path d="m13.56 383.74h.63v1.52h2.72v6.07h1.13v.6h-11.06v-.6h1.13v-6.07h2.73v-1.52h.63v1.52h2.1v-1.52zm-2.69 8.83.38.56c-1.24.63-2.53 1.25-3.85 1.85-.1-.21-.21-.42-.34-.63 1.37-.55 2.63-1.15 3.81-1.78m-2.13-4.27h2.1v-2.45h-2.1zm0 3.04h2.1v-2.46h-2.1zm2.72-3.04h2.1v-2.45h-2.1zm0 3.04h2.1v-2.46h-2.1zm6.07 3.6c-1.41-.71-2.7-1.3-3.86-1.78l.35-.56c1.45.62 2.75 1.19 3.88 1.72zm-1.25-9.09h-2.1v2.45h2.1zm-2.09 5.49h2.1v-2.46h-2.1z" fill="#fbfcfa"/></svg>