<svg enable-background="new 0 0 400 400" viewBox="0 0 400 400" xmlns="http://www.w3.org/2000/svg"><path d="m5.17 384 .55-.58c.85.61 1.65 1.24 2.4 1.87l-.59.64c-.83-.73-1.62-1.38-2.36-1.93m1.22 9.53-.82-.34c.71-1.76 1.37-3.64 1.98-5.63.24.13.5.25.76.36-.6 1.67-1.24 3.54-1.92 5.61m-.5-13.5.57-.54c.56.44 1.31 1.06 2.26 1.87l-.65.64c-.67-.66-1.4-1.32-2.18-1.97m3.25.46h2.24v-1.36h.77v1.36h4.57v-1.36h.76v1.36h2.28v.69h-2.28v1.84h-2.64v1.26h4.18v2.64h-4.21c0 .45-.02.86-.05 1.21h4.32v.69h-4.38c-.04.34-.1.75-.19 1.22h5.15v.69h-4.82c.87 1.19 2.51 1.92 4.93 2.19-.17.31-.3.57-.37.76-2.77-.49-4.52-1.41-5.26-2.76-.56 1.26-2.3 2.23-5.24 2.9-.12-.24-.26-.48-.43-.72 2.73-.55 4.38-1.34 4.96-2.38h-4.38v-.69h4.65c.1-.38.17-.79.21-1.22h-4.32v-.69h4.4c.03-.34.05-.75.05-1.21h-4.2v-2.64h4.23v-1.26h-2.69v-1.84h-2.24zm1.46 4.46v1.29h3.45c.01-.4.02-.57.01-.53v-.32-.45h-3.46zm1.55-2.59h4.57v-1.19h-4.57zm6.11 2.59h-3.42v.77c-.01.19-.01.37-.02.53h3.44z" fill="#fafbfc"/><path d="m32.63 379.16h.82v1.98h3.54v7.89h1.46v.78h-14.37v-.78h1.46v-7.89h3.54v-1.98h.82v1.98h2.73zm-3.49 11.48.5.73c-1.61.82-3.28 1.63-5 2.42-.13-.27-.28-.55-.44-.82 1.75-.73 3.4-1.5 4.94-2.33m-2.78-5.55h2.73v-3.18h-2.73zm0 3.95h2.73v-3.2h-2.73zm3.54-3.95h2.73v-3.18h-2.73zm0 3.95h2.73v-3.2h-2.73zm7.89 4.68c-1.84-.92-3.51-1.7-5.02-2.32l.45-.73c1.89.8 3.57 1.55 5.04 2.23zm-1.62-11.81h-2.73v3.18h2.73zm-2.73 7.13h2.73v-3.2h-2.73z" fill="#fafbfc"/><g fill="#000001"><path d="m222.61 169.06c-1.7.36-3.07.65-6.04 1.28 1.86-3.03 2.97-4.89 4.13-6.72 9.95-15.7 20.41-31.11 29.7-47.2 5.73-9.92 9.26-20.96 8.47-32.84-.22-3.34 1.79-4.59 4.33-3.16 5.71 3.21 11.42 6.6 16.53 10.66 2.98 2.36 1.88 5.92-.3 8.98-4.81 6.75-9.44 13.63-13.57 21.43 7.71-2.4 15.55-4.45 23.08-7.34 4.38-1.69 8.53-2.23 12.47-.08 4.93 2.69 9.71 5.8 14.09 9.3 3.7 2.96 3.06 4.66-.73 7.85-13.07 11.01-25.99 22.19-38.96 33.31.26.49.52.98.78 1.47 1.33-.11 2.67-.12 3.98-.34 1.47-.25 2.9-.68 4.36-1.03 4.03-.97 8.21-1.51 12.05-2.96 15.05-5.69 25.46 2.96 35.91 11.35 3.05 2.45 2.6 5.55.69 8.94-5.36 9.53-10.36 19.26-15.57 28.88-1.43 2.63-.95 4.2 1.47 6.2 2.35 1.95 3.79 5 5.64 7.57-3 .86-5.96 2.24-9.02 2.48-23.03 1.83-46.09 3.38-69.11 5.24-1.36.11-3.67 2.21-3.67 3.37.06 15.08-.08 30.2.98 45.23.66 9.29 9.53 17.57 18.89 18.74 19.76 2.48 39.49 1.61 59.11-1.83 4.91-.86 8.22-3.55 9.6-8.28 2.45-8.41 4.54-16.94 7.12-25.31.95-3.08 2.99-8.42 4.27-8.34 4.64.28 3.34 4.97 3.95 8.24 2.29 12.22 4.68 24.43 7.14 36.62 1.62 8.02.33 11.26-7.72 13.3-8.97 2.27-18.19 4.18-27.4 4.77-15.75 1.02-31.6 1.51-47.36.98-7.76-.26-15.74-2.49-23.07-5.29-13.1-5.01-18.99-16.19-19.75-29.36-1.29-22.57-1.64-45.21-1.99-67.83-.21-13.83-.31-27.59-3.98-41.07-.61-2.2-.35-4.63-.5-7.21zm24.29 14.84c-1.16 12.03-2.3 23.84-3.49 36.2 19.36-2.51 37.61-4.82 55.82-7.36 1.16-.16 2.72-1.94 2.99-3.2 1.71-8.1 3.5-16.21 4.48-24.41.86-7.16-.46-8.42-7.72-7.63-17.15 1.88-34.25 4.18-52.08 6.4zm-20.32-16.55c1.27.4 3.94.5 5.53 1.87 5.73 4.93 12.01 3.58 18.39 2.42 3.1-.56 6.3-.82 9.26-1.8 2.15-.71 4.8-1.89 5.83-3.67 5.88-10.21 11.39-20.62 16.88-31.05.91-1.74 1.1-3.86 1.71-6.13-1.45 0-2.1-.07-2.73.01-7.86.94-15.72 1.86-23.56 2.94-.77.11-1.46 1.22-2.09 1.95-9.82 11.22-19.62 22.46-29.22 33.46z"/><path d="m143.87 293.24c3.98 0 7.82-.21 11.63.05 5.63.39 11.23 1.11 16.84 1.71 3.61.39 5.86-1.3 6.5-4.7 1.1-5.86 2.39-11.74 2.75-17.66 1.33-22.23 2.39-44.49 3.37-66.74.44-9.97.83-19.96.55-29.92-.69-25.42-1.77-50.83-2.72-76.25-.05-1.32-.4-2.62-.62-3.93-1.42-8.41-3.85-10.01-12.08-7.23-7.3 2.47-14.58 4.8-22.39 3.55-4.46-.71-8.76-1.94-11.02-7.13 1.2-.47 2.17-.94 3.19-1.24 11.93-3.51 23.94-6.79 35.78-10.59 4.65-1.49 8.9-1.44 12.9.98 4.95 3 9.79 6.23 14.38 9.76 3.92 3.02 3.91 7.23 2.78 11.81-1.5 6.07-3.44 12.25-3.52 18.4-.51 39.94-.76 79.88-.69 119.83.03 18.78.91 37.56 1.53 56.34.4 12.08-4.59 22.29-10.89 32.03-2.05 3.17-5.14 5.41-8.8 2.53-13.12-10.3-26.07-20.84-39.47-31.6z"/><path d="m55.27 97.04c16.67-4.71 31.3-8.99 46.05-12.86 2.51-.66 5.92-.27 8.19.97 5.5 3.01 10.8 6.51 15.75 10.36 4.12 3.21 4.45 7.51 2.61 12.6-1.89 5.22-3.49 10.86-3.63 16.36-.7 26.12-.86 52.25-1.24 78.38-.15 10.14-.57 20.29-.54 30.43.05 15.81.34 31.61.63 47.42.23 12.63-4.87 23.26-12.26 32.98-3.54 4.66-6.54 4.48-11.68-.28-8.78-8.14-17.44-16.41-26.23-24.55-2.89-2.68-6.01-5.12-9.02-7.68.14-.5.28-1.01.42-1.51 3.56.53 7.15.9 10.67 1.62 4.87 1 9.66 2.38 14.53 3.4 6.18 1.29 8.97-.13 10.19-6.31 1.48-7.47 2.4-15.09 3.04-22.69 3.35-39.48 4.9-79.03 3.81-118.66-.28-10.12-1.03-20.24-1.61-30.35-.38-6.64-3.27-8.83-9.82-7.27-4.19 1-8.26 2.89-12.48 3.31-6.18.61-12.52.81-18.66.08-2.75-.31-5.17-3.29-8.72-5.75z"/><path d="m99.56 185.36c-.49 2.34-.58 4.86-1.54 6.99-6.98 15.59-14.13 31.1-21.24 46.62-.34.74-.76 1.5-1.32 2.08-3.03 3.12-21.57 4.64-25.02 1.92-2.31-1.82-3.33-3.88-.77-6.65 14.75-15.98 29.39-32.06 44.1-48.08 1.26-1.37 2.79-2.5 4.19-3.75.52.29 1.06.58 1.6.87z"/><path d="m180.81 176.37c-.2 1.77.02 3.73-.66 5.29-6.01 13.84-12.91 27.33-18.04 41.48-3.63 10.01-10.31 12.8-19.62 12.85-1.5.01-3.17.45-4.45-.07-2.14-.87-4.8-1.96-5.75-3.74-.57-1.08 1.34-3.94 2.7-5.52 11.41-13.2 22.96-26.27 34.44-39.4 3.32-3.8 6.52-7.71 9.78-11.57.53.22 1.07.45 1.6.68z"/><path d="m92.1 166.93c-1.54 2.31-2.68 5.95-4.74 6.59-2.38.74-6.64-.25-8.25-2.09-7.29-8.33-14-17.18-20.74-25.98-.86-1.12-.71-3.02-1.03-4.56 1.54-.25 3.29-1.09 4.59-.64 6.22 2.16 12.36 4.55 18.44 7.08 8.44 3.5 10.65 10.68 11.73 19.6z"/><path d="m173.82 162.07c-1.74 2.59-2.94 6.03-5.36 7.56-3.15 1.99-6.53-.03-8.56-2.97-5.91-8.58-11.71-17.24-17.34-26.01-.74-1.15-.26-3.08-.35-4.66 1.52-.06 3.2-.57 4.53-.09 4.96 1.81 9.83 3.87 14.68 5.96 8.59 3.7 11.81 10.62 11.04 19.84.46.12.91.24 1.36.37z"/></g></svg>