<svg enable-background="new 0 0 400 400" viewBox="0 0 400 400" xmlns="http://www.w3.org/2000/svg"><path d="m291.13 239.17c0 8.07-.09 15.51.02 22.95.32 23.14-.02 46.24-4.09 69.12-.46 2.59-1.21 5.23-2.39 7.56-2.37 4.71-6.89 4.91-8.85.01-1.8-4.49-2.71-9.62-2.76-14.48-.24-26.31-.08-52.63-.06-78.95 0-1.79 0-3.59 0-6.13-14.85 1.12-29.21 2.06-43.54 3.34-10.25.92-20.46 2.22-30.68 3.49-8.87 1.1-15.96-2.31-21.91-8.49-3.12-3.24-2.47-5.18 1.88-5.78 8.22-1.13 16.46-2.18 24.72-2.9 3.51-.3 5.22-.9 5.21-5.12-.06-34.15.34-68.3.16-102.45-.04-7.05-1.88-14.08-2.9-21.13-.39-2.69-2.24-3.16-4.56-4.18-5.17-2.27-10.23-5.22-14.59-8.79-2.93-2.4-.28-3.99 2.43-4.25 10.91-1.05 21.85-1.89 32.75-3.05 19.82-2.1 39.62-4.34 59.42-6.6 5.77-.66 11.49-1.92 17.27-2.26 7.89-.47 14.28 3.74 20.45 7.95 1.09.74 2.13 3.4 1.63 4.21-.88 1.43-2.9 2.83-4.57 3-7.91.8-15.87 1.19-25.15 1.81 6.71 5.81 4.62 11.98 3.38 18.44-1.37 7.14-1.93 14.51-2.16 21.8-.62 19.63-.85 39.27-1.29 58.9-.21 9.31-.55 18.62-.81 27.93-.05 1.79-.01 3.58-.01 5.68 5.02-.48 9.51-.57 13.87-1.38 13.06-2.43 23 3.16 31.55 12.1 1.38 1.44 2.6 4.65 1.9 6.02-.77 1.49-3.86 2.49-5.93 2.47-11.64-.08-23.28-.54-34.92-.85-1.78-.03-3.6.01-5.47.01zm-69.48-144.55c5.71 5.24 6.81 10.63 5.76 17.32-1.24 7.94-1.05 16.11-1.47 24.07 16.74.67 32.25-8.15 49.16-2.03-1.45-14.17.87-28.18-6.73-40.82-1.54-2.56-2.84-3.19-5.44-2.61-1.6.36-3.29.37-4.94.53-11.69 1.14-23.38 2.28-36.34 3.54zm3.31 54.89v32.55c3.38-.21 7.14-.48 10.9-.66 12.92-.64 25.46-5.47 38.56-3.48 0-11.26 0-22.46 0-34.12-16.34 1.89-32.24 3.72-49.46 5.71zm-1.42 45.64v31.85c16.63-1.5 33.05-2.98 49.91-4.51 0-10.7 0-21.09 0-31.66-16.4 1.43-32.67 2.83-49.91 4.32z" fill="#010103"/><path d="m124.14 175.68c-5.81 1.12-11.79 2.36-17.81 3.41-5.94 1.04-11.9 4.11-18.4-.68-1.54 31.89-3.04 63-4.53 94.11.71.31 1.42.61 2.14.92 5.47-4.41 10.97-8.78 16.4-13.24 3.6-2.96 7.06-6.08 10.66-9.04 2.15-1.77 4.48-3.14 6.99-.49 2.44 2.57 1.85 5.18-.12 7.62-7.08 8.83-14.33 17.53-21.3 26.44-3.48 4.44-6.73 9.1-9.65 13.92-3.5 5.79-8.09 9.07-12.43 8.13-6.86-1.49-12.09-7.09-11.95-14.02.13-6.79 1.29-13.55 1.87-20.33.99-11.59 2.19-23.17 2.72-34.78.72-15.95.94-31.93 1.27-47.9.28-13.64.57-27.29.56-40.93-.01-11.48-.23-22.97-.85-34.43-.2-3.68-1.66-7.4-3.12-10.87-2.15-5.09-1.53-6.76 4.04-6.76 3.39 0 7.13.42 10.08 1.9 3.5 1.76 6.31 1.77 9.69.15 11.67-5.59 23.46-10.92 35.13-16.51 6.12-2.93 11.03-7.38 14.61-13.18 2.11-3.42 4.92-4.31 8.47-2.49 6.17 3.17 12.85 5.68 18.29 9.82 6.48 4.94 5.38 8.35-2.38 10.58-10.18 2.93-20.39 5.77-31.48 8.91 2.8 2.61 4.83 4.69 7.05 6.52 4.96 4.09 5.37 8.78 3.08 14.59-5.08 12.86-3.5 26.41-4.04 40.26 5.15-1.01 9.73-1.67 14.18-2.84 8.39-2.2 15.72.84 22.9 4.4 1.34.66 3.04 3.25 2.67 4.13-.72 1.68-2.64 3.59-4.38 3.96-7.78 1.66-15.67 2.8-23.51 4.15-3.72.64-7.44 1.33-11.07 1.98 1.52 54.57 18.91 96.21 32.03 103.21 3.1-7.62 6.17-15.16 9.24-22.7.69.13 1.37.26 2.06.39.58 2.62 1.42 5.21 1.68 7.86 1.22 12.39 2.32 24.79 3.35 37.2.25 2.97.25 5.99.06 8.97-.43 6.47-5.72 10.3-11.4 7.21-5.39-2.94-10.73-6.96-14.46-11.77-16.4-21.15-26.18-45.39-30.49-71.71-3.03-18.34-5.19-36.81-7.85-56.07zm-36.65-7.9c13.06-2.45 25.05-4.7 37.23-6.99.17-20.84 1.15-41.09-6.12-60.48-9.85 1.76-19.18 3.43-28.01 5-1.03 20.89-2.03 41.07-3.1 62.47z" fill="#010103"/><g fill="#fbfcfa"><path d="m6.44 374.46.42-.45c.65.47 1.27.95 1.85 1.44l-.45.49c-.65-.56-1.25-1.06-1.82-1.48m.93 7.33-.63-.26c.55-1.36 1.05-2.8 1.53-4.33.19.1.38.19.59.27-.47 1.29-.96 2.73-1.49 4.32m-.38-10.38.44-.42c.43.34 1.01.82 1.74 1.44l-.49.49c-.53-.51-1.09-1.01-1.69-1.51m2.5.35h1.72v-1.04h.59v1.04h3.52v-1.04h.59v1.04h1.75v.53h-1.75v1.42h-2.03v.97h3.22v2.03h-3.24c0 .35-.01.66-.03.93h3.32v.53h-3.37c-.03.27-.08.58-.15.94h3.96v.53h-3.71c.67.92 1.93 1.48 3.79 1.68-.13.24-.23.44-.29.59-2.13-.38-3.48-1.08-4.04-2.12-.43.97-1.77 1.72-4.03 2.23-.09-.19-.2-.37-.33-.55 2.1-.42 3.37-1.03 3.81-1.83h-3.36v-.53h3.58c.08-.29.13-.61.16-.94h-3.33v-.53h3.39c.02-.27.04-.58.04-.93h-3.23v-2.03h3.25v-.97h-2.07v-1.42h-1.73zm1.12 3.44v1h2.65c.01-.3.02-.44.01-.4v-.25-.35zm1.19-2h3.52v-.91h-3.52zm4.71 2h-2.63v.59c0 .15-.01.28-.01.4h2.64z"/><path d="m13.56 383.74h.63v1.52h2.72v6.07h1.13v.6h-11.06v-.6h1.13v-6.07h2.73v-1.52h.63v1.52h2.1v-1.52zm-2.69 8.83.38.56c-1.24.63-2.53 1.25-3.85 1.85-.1-.21-.21-.42-.34-.63 1.37-.55 2.63-1.15 3.81-1.78m-2.13-4.27h2.1v-2.45h-2.1zm0 3.04h2.1v-2.46h-2.1zm2.72-3.04h2.1v-2.45h-2.1zm0 3.04h2.1v-2.46h-2.1zm6.07 3.6c-1.41-.71-2.7-1.3-3.86-1.78l.35-.56c1.45.62 2.75 1.19 3.88 1.72zm-1.25-9.09h-2.1v2.45h2.1zm-2.09 5.49h2.1v-2.46h-2.1z"/></g></svg>