<svg enable-background="new 0 0 400 400" viewBox="0 0 400 400" xmlns="http://www.w3.org/2000/svg"><path d="m5.17 384 .55-.58c.85.61 1.65 1.24 2.4 1.87l-.59.64c-.83-.73-1.62-1.38-2.36-1.93m1.22 9.53-.82-.34c.71-1.76 1.37-3.64 1.98-5.63.24.13.5.25.76.36-.6 1.67-1.24 3.54-1.92 5.61m-.5-13.5.57-.54c.56.44 1.31 1.06 2.26 1.87l-.65.64c-.67-.66-1.4-1.32-2.18-1.97m3.25.46h2.24v-1.36h.77v1.36h4.57v-1.36h.76v1.36h2.28v.69h-2.28v1.84h-2.64v1.26h4.18v2.64h-4.21c0 .45-.02.86-.05 1.21h4.32v.69h-4.38c-.04.34-.1.75-.19 1.22h5.15v.69h-4.82c.87 1.19 2.51 1.92 4.93 2.19-.17.31-.3.57-.37.76-2.77-.49-4.52-1.41-5.26-2.76-.56 1.26-2.3 2.23-5.24 2.9-.12-.24-.26-.48-.43-.72 2.73-.55 4.38-1.34 4.96-2.38h-4.38v-.69h4.65c.1-.38.17-.79.21-1.22h-4.32v-.69h4.4c.03-.34.05-.75.05-1.21h-4.2v-2.64h4.23v-1.26h-2.69v-1.84h-2.24zm1.46 4.46v1.29h3.45c.01-.4.02-.57.01-.53v-.32-.45h-3.46zm1.55-2.59h4.57v-1.19h-4.57zm6.11 2.59h-3.42v.77c-.01.19-.01.37-.02.53h3.44z" fill="#fafbfc"/><path d="m32.63 379.16h.82v1.98h3.54v7.89h1.46v.78h-14.37v-.78h1.46v-7.89h3.54v-1.98h.82v1.98h2.73zm-3.49 11.48.5.73c-1.61.82-3.28 1.63-5 2.42-.13-.27-.28-.55-.44-.82 1.75-.73 3.4-1.5 4.94-2.33m-2.78-5.55h2.73v-3.18h-2.73zm0 3.95h2.73v-3.2h-2.73zm3.54-3.95h2.73v-3.18h-2.73zm0 3.95h2.73v-3.2h-2.73zm7.89 4.68c-1.84-.92-3.51-1.7-5.02-2.32l.45-.73c1.89.8 3.57 1.55 5.04 2.23zm-1.62-11.81h-2.73v3.18h2.73zm-2.73 7.13h2.73v-3.2h-2.73z" fill="#fafbfc"/><g fill="#000001"><path d="m278.41 157.58c-5.98-10.95-11.79-21.56-17.57-32.19-.63-1.16-1.41-2.38-1.56-3.64-.16-1.36-.14-3.34.67-4.05.8-.7 2.95-.63 4.06-.05 5.31 2.75 10.47 5.79 15.68 8.73.7.4 1.41.78 2.96 1.63 3.98-8.66 8.14-16.94 11.58-25.5 2.03-5.06-4.08-11.72-9.45-10.55-9.07 1.97-18.07 4.27-27.05 6.62-8.76 2.29-16.14-.15-19.49-6.72-1.93-3.79-.94-5.9 3.28-6.75 18.37-3.7 36.72-7.55 55.16-10.87 3.14-.57 7.17.31 9.95 1.95 6.86 4.04 13.47 8.59 19.72 13.52 6.94 5.48 6.3 9.31-1.52 13.16-14.4 7.08-25.45 18.5-38.01 28.7 7.16 6.58 5.56 14.77 4.95 23.44 7.31-1.43 14.16-3.17 21.12-3.99 4.3-.51 9.36-.87 13.05.87 8.18 3.87 16 8.72 23.42 13.94 4.62 3.25 3.37 6.25-1.82 8.63-11.6 5.3-23 11.03-34.49 16.57-1.73.83-3.46 1.65-6.76 3.22.73-3.4.9-5.39 1.58-7.19 1.88-4.96 4.2-9.77 5.91-14.78 1.56-4.59-.29-7.4-5.16-7.11-7.92.46-15.79 1.73-23.5 2.63-.16.99-.34 1.5-.24 1.57 9.94 6.63 6.72 16.24 5.77 25.34-.75 7.2-1.51 14.41-2.36 22.48 4.4-.98 8-1.46 11.39-2.6 8.84-2.97 17.47-2.28 25.71 1.62 2.11 1 3.3 3.96 4.91 6.02-2 1.35-3.86 3.52-6.03 3.9-9.45 1.65-18.99 2.87-28.52 4.01-2.24.27-4.59-.39-7.31-.66-.33 4.76-.81 9.64-.99 14.52-.55 14.97-1.06 29.94-1.34 44.92-.03 1.51 1.37 3.43 2.65 4.53 11.44 9.86 25.5 14.76 39.17 20.38 9.98 4.1 20.03 8.07 29.96 12.29 1.65.7 2.88 2.37 4.31 3.59-1.47 1.16-2.8 3.03-4.45 3.38-12.3 2.61-24.61 5.23-37.02 7.2-5.61.89-10.43-1.87-15-5.48-20.41-16.13-36.73-36.17-53.87-55.45-1.09-1.22-1.99-2.61-3.45-4.55-5.39 11.1-9.75 21.32-15.18 30.94-5.41 9.59-11.91 18.58-21.03 25.01-.51-.31-1.02-.62-1.52-.93.8-2.24 1.36-4.59 2.43-6.69 10.25-20.24 18.26-41.34 23.39-63.41 2.67-11.48 3.81-23.25 1.55-35.06-.21-1.12-.5-2.26-.98-3.29-2.54-5.51-.04-9.92 5.51-8.11 6.69 2.19 12.76 6.49 18.73 10.45 1.19.79 1.39 4.32.85 6.25-2.6 9.44-5.71 18.74-8.36 28.17-.41 1.46.03 3.93 1.06 4.9 4.58 4.32 9.52 8.26 14.57 12.55.16-.64.48-1.34.49-2.04.32-26.31.76-52.61.81-78.92.01-6.1-1.2-12.22-2.12-18.29-.47-3.06-1.63-4.73-5.75-3.7-6.06 1.52-12.43 2.07-18.7 2.36-4.29.2-8.17-1.65-10.42-5.71-1.64-2.96-1.35-4.98 2.64-5.53 13.65-1.87 27.28-3.89 40.91-5.86.45-.09.9-.26 1.12-.32z"/><path d="m113 248.08c-15.41 8.87-30.45 17.4-45.33 26.2-3.72 2.2-7.17 2.47-10.82.58-4.28-2.22-8.55-4.5-12.64-7.04-1.63-1.01-3.04-2.64-4.09-4.28-2.38-3.75-.93-6.67 3.43-7.61 6.32-1.35 12.62-2.78 19.39-4.27 0-2.71.01-5.34 0-7.96-.11-37.49.08-75-.55-112.48-.17-9.82-2.68-19.65-4.68-29.36-.41-1.99-3-4.16-5.1-5.06-5.78-2.5-9.91-5.82-12.42-11.54 1.54-.43 2.98-1.07 4.47-1.23 26.45-2.71 52.9-5.3 79.34-8.03 8.25-.85 15.57.93 21.48 6.93 1.18 1.2 1.66 3.08 2.46 4.65-1.44.62-2.83 1.59-4.33 1.79-5.18.69-10.4 1.11-16.53 1.72 2.26 1.92 4.22 2.91 5.13 4.51 1.29 2.27 2.69 5.05 2.49 7.5-.93 11.89-3.28 23.73-3.47 35.62-.65 39.97-.72 79.94-.78 119.91-.03 19.48.75 38.97.53 58.44-.06 5.62-1.57 11.52-3.73 16.74-2.19 5.29-5.3 5.24-8.52.67-7.98-11.31-10.05-23.69-7.93-37.4 1.64-10.63 1.63-21.53 2.15-32.32.26-5.41.05-10.84.05-16.68zm.56-50.59c-11.81 1.68-22.38 7.43-34.21 3.21v46.92c10.97-3.21 21.74-6.32 32.45-9.59.77-.24 1.67-1.68 1.68-2.56.12-12.46.08-24.91.08-37.98zm-2.14-58.84c.51-.32 1.02-.65 1.53-.97-1.47-11.97-2.72-23.97-4.49-35.89-1.24-8.3-1.58-8.4-10.06-7.63-7.35.67-14.67 1.73-23.45 2.78 8.13 5.33 8.87 11.68 7.41 19.49-1.41 7.56-1.14 15.43-1.62 23.35 10.88 1.25 20.44-6.44 30.68-1.13zm-31.3 14v37.94c10.85-1.91 21.45-3.77 32.41-5.7 0-10.97 0-23.29 0-35.22-10.65.98-20.92 1.92-32.41 2.98z"/><path d="m177.98 260.35c-6.58 1.28-12.63 2.18-18.53 3.68-5.94 1.51-11.1.78-15.8-3.3-2.19-1.91-4.66-3.5-7-5.23.05-.57.09-1.15.14-1.72 4.69-.93 9.37-1.94 14.07-2.78 8.48-1.52 16.96-3.08 25.49-4.33 3.25-.48 3.84-2.53 4.25-5.05 1.66-10.1 1.96-20.19-.94-30.1-.39-1.33-2.37-2.66-3.85-3.04-1.21-.31-3.07.47-4.14 1.36-6.5 5.4-12.73 11.14-19.34 16.4-2.14 1.7-5.14 2.32-7.75 3.44-.46-.57-.92-1.14-1.38-1.71 3.37-4.34 6.92-8.56 10.09-13.04 7.76-10.97 14.31-22.48 14.49-36.46.03-2.3-.62-4.6-.81-6.92-.33-4.03 2.04-6.73 5.59-5.25 5.88 2.45 11.45 5.78 16.79 9.29 2.5 1.64 2.09 4.51.31 7.11-3 4.35-5.76 8.86-9.38 14.47 8.55-2.14 15.81-4.08 23.14-5.75 6.56-1.49 12.48 1.02 18.15 3.83 1.17.58 2.44 2.86 2.17 4-.32 1.37-2.07 3.02-3.51 3.4-8.65 2.29-17.39 4.26-26.1 6.33-.57.14-1.14.24-2.01.43 3.38 2.62 6.44 4.83 9.3 7.27 2.8 2.4 3.46 5.24 2.07 8.95-1.72 4.58-2.73 9.42-4.31 15.11 8.56-1.49 15.93-1.8 22.77 2.07.86.49 2.07.57 2.69 1.24 1.49 1.6 2.72 3.43 4.05 5.17-1.84 1.2-3.54 3.11-5.53 3.48-7.67 1.41-15.41 2.42-23.15 3.37-2.47.3-3.59 1.05-4.31 3.7-3.45 12.76-3.37 12.42 7.44 19.75 7.93 5.37 15.23 11.6 13.97 22.91-.38 3.43-.58 6.67-4.43 8.11-3.77 1.41-6.08-.95-8.08-3.38-5.27-6.41-10.34-12.99-15.86-19.98-1.41 2.75-2.97 5.53-4.29 8.42-8.15 17.85-22.43 28.97-40.05 36.29-2.38.99-5.22.84-8.58.28 23.41-18.45 38.6-41.27 42.16-71.82z"/><path d="m174.35 98.81c6.98-1.61 12.49-2.51 17.75-4.18 8.4-2.67 16.72-3.02 24.85.28 2.2.89 4.62 3.41 5.2 5.64.98 3.79-2.97 3.76-5.32 4.34-9.34 2.3-18.68 4.67-28.13 6.4-4.28.78-8.82.13-14.46.13 1.04 9.01 1.93 17.89 3.15 26.71.67 4.89 4.74 5.94 8.63 5.58 9.07-.83 18.09-2.29 27.14-3.35 3.12-.37 6.33-.73 9.42-.37 4.73.54 6.5 4.33 7.25 8.43.74 4.01-2.22 5.88-5.37 6.64-6.1 1.47-12.3 3.06-18.52 3.46-10.9.69-21.86.61-32.8.65-5.27.02-9.12-3.05-10.53-7.77-2.06-6.92-4.06-14.1-4.42-21.25-.7-13.96.07-28-.41-41.98-.21-6.21-1.6-12.46-3.12-18.53-1.52-6.06-.27-8.68 5.93-7.84 5.3.71 10.65 2.51 15.47 4.87 3.72 1.83 3.34 5.98 2.52 9.81-1.43 6.77-2.6 13.62-4.23 22.33z"/></g></svg>