<svg enable-background="new 0 0 400 400" viewBox="0 0 400 400" xmlns="http://www.w3.org/2000/svg"><path d="m377.9 391.2c-.2.3-.4.5-.6.8-.7-.6-1.4-1-2.2-1.5.2-.3.4-.5.5-.8.6.4 1.4.8 2.3 1.5zm-1.8 6.1c-.2-.2-.5-.4-.9-.6.4-.6.8-1.2 1.2-1.9s.7-1.3.9-1.9c.3.3.5.5.8.7-.7 1.3-1.4 2.6-2 3.7zm2.2-9c-.3.3-.5.5-.6.8-.6-.6-1.3-1.1-2-1.5.3-.3.5-.5.6-.7.6.5 1.3.9 2 1.4zm.3.2v-.9h2 4.5c-.3 1.3-.6 2.5-1 3.6s-.9 2.1-1.4 3c.4.5 1 1 1.6 1.4s1.2.8 1.9 1.1c-.3.2-.5.4-.8.8-.4-.3-1-.7-1.6-1.2s-1.2-1.1-1.6-1.6c-.5.6-1.1 1.1-1.7 1.6s-1.4.9-2.1 1.4c-.1-.3-.3-.5-.7-.8.6-.2 1.2-.5 1.9-1s1.4-1.1 2-1.8c-.5-.8-.9-1.6-1.2-2.5s-.6-2-.8-3.2c-.4.1-.7.1-1 .1zm2.5 2.7c.3 1 .7 1.7 1 2.2.3-.5.6-1.1 1-2s.6-1.9.9-3h-3.2-.4c.1.9.3 1.8.7 2.8z" fill="#fbfcfa"/><path d="m396.5 388.5v1.5 3.6h1.5v.9c-.4 0-1 0-1.7 0h-7.9c-.5 0-.9 0-1.2 0v-.9h1.3v-3.5c0-.7 0-1.2 0-1.6h2.4c0-.8 0-1.4 0-1.7h1c0 .3-.1.8-.1 1.7h1.5c0-.8 0-1.4 0-1.7h1c0 .3-.1.9-.1 1.7zm-8.2 9.2c-.2-.3-.5-.5-.8-.8.8-.3 1.4-.6 1.9-.9s1-.7 1.4-1.1c.3.3.6.5.9.8-1.6 1-2.8 1.6-3.4 2zm2.6-6.8v-1.6h-1.5v1.6zm0 2.7v-1.9h-1.5v1.9zm2.4-2.7v-1.6h-1.5v1.6zm0 2.7v-1.9h-1.5v1.9zm.2 2 .7-.8c.4.2.9.5 1.6.8s1.3.7 1.8 1c-.3.3-.5.6-.8.8-.4-.3-1.5-1-3.3-1.8zm2-4.7v-1.6h-1.4v1.6zm0 2.7v-1.9h-1.4v1.9z" fill="#fbfcfa"/><g fill="#010100"><path d="m179.8 306.98c6.16 2.15 12.33 4.26 18.48 6.45 5.8 2.06 11.64 4 17.33 6.32 5.44 2.22 10.09 1.14 13.2-3.53 5.06-7.58 10.66-15.1 14.05-23.45 6.9-17.01 12.48-34.55 18.96-52.91-9.62.99-17.69 1.78-25.75 2.65-13.87 1.5-27.8 2.63-41.59 4.66-18.7 2.75-37.4 5.65-55.88 9.54-12.65 2.66-22.17-5.28-18.91-17.66 4.35-16.49 4.98-33.13 3.27-49.96-.15-1.46-.73-2.88-.99-4.34-1-5.76 2.52-8.92 8.25-7.45 10.71 2.75 16.05 11.23 14.31 22-1.67 10.33-2.92 20.72-4.32 31.09-.52 3.85.56 6.15 5.11 5.63 13.2-1.52 26.43-2.82 39.62-4.47 1.12-.14 2.84-2.27 2.85-3.48.16-21.66.48-43.34-.06-64.99-.37-14.84-2.45-15.7-17.54-13.7-14.64 1.94-29.37 3.36-44.09 4.56-10.31.85-18.04-3.62-24.46-13.53 1.76-.57 3.3-1.4 4.91-1.54 29.65-2.42 59.34-4.42 88.96-7.22 25.46-2.41 50.86-5.57 76.25-8.69 10.26-1.26 18.48 3.05 26.31 8.56 1.21.85 2.17 3.88 1.57 5.06-.79 1.58-3.13 3.11-4.96 3.3-9.09.96-18.23 1.5-27.35 2.14-21.07 1.46-42.14 2.89-63.2 4.35-.63.04-1.26.21-1.84.32-.08.51-.25 1.01-.15 1.07 11.41 7.36 7.15 18.37 6.64 28.5-.07 1.31-.33 2.6-.61 4.7 4.45-.36 8.53-.53 12.57-1.03 15.48-1.9 30.94-3.95 46.42-5.84 2.45-.3 5.33-.91 7.38.02 9.59 4.34 17.42 10.91 22.35 20.37 2.03 3.9.58 7.49-1.95 11.06-2.43 3.44-4.58 7.31-5.82 11.32-8.57 27.55-14.88 55.86-26.82 82.26-4.91 10.86-10.24 21.8-17.15 31.42-5.79 8.07-13.83 14.69-21.52 21.18-4.79 4.04-7.64 2.51-11.6-2.37-9.1-11.21-18.63-22.06-27.91-33.12-2.05-2.44-3.79-5.15-5.67-7.73.45-.49.9-1 1.35-1.52zm24.92-77.58c20.42-1.15 40.07-2.25 60.47-3.39.94-9.31 1.94-18.17 2.69-27.05.38-4.49-1.86-7.25-6.43-7.89-2.29-.32-4.62-.94-6.89-.79-8.78.58-17.53 1.5-26.3 2.14-6.91.51-13.83.79-21.03 1.19-.84 11.94-1.66 23.62-2.51 35.79z"/><path d="m229.56 94.88c-5.94-.94-11.87-1.54-17.6-2.96-1.93-.48-3.34-3.04-4.99-4.65 1.89-1.15 3.66-2.94 5.7-3.33 6.67-1.29 13.47-1.97 20.16-3.16 1.36-.24 3.25-1.44 3.64-2.61 3.01-8.9 5.84-17.87 8.42-26.9.9-3.14 2.25-4.68 5.57-3.87 7.75 1.87 12.03 8.04 16.34 13.86.88 1.19-.18 4.47-1.24 6.27-1.8 3.08-4.3 5.75-7.39 9.74 7.75-1.16 14.16-1.69 20.36-3.14 9.9-2.32 16.54 2.93 22.84 9.06 1.1 1.07 1.89 3.61 1.37 4.85-.46 1.1-2.93 1.82-4.56 1.92-14.6.85-29.21 1.61-43.83 2.18-4.62.18-7.95 1.4-10.7 5.62-3.97 6.1-8.74 11.72-13.53 17.23-1.81 2.08-4.64 3.29-8.19 5.69-.8-10.85 6.88-17.47 7.63-25.8z"/><path d="m153.25 86.27c-4.59-8.21-8.6-15.47-12.71-22.68-2.36-4.14-2.03-5.7 2.39-6.96 8.35-2.39 16.22.2 22.32 5.28 2.85 2.37 2.83 8.39 3.75 12.84.69 3.37.8 6.86 1.13 9.95 5.85 0 11.28-.18 16.69.09 2.06.1 4.07 1.26 6.1 1.93-1.7 1.73-3.11 4.2-5.17 5.03-4.11 1.64-8.57 2.45-12.92 3.46-2.52.59-4.04 1.46-3.84 4.58.32 4.98.21 10 0 14.99-.06 1.43-.83 3.68-1.79 3.99-1.21.4-3.7-.35-4.32-1.39-2.4-4.05-4.34-8.39-6.33-12.68-.69-1.48-1-3.13-1.68-5.32-8.94 2.1-17.76 4.11-26.54 6.26-10.46 2.56-22.72-1.49-28.35-9.76-1.12-1.64-1.32-3.9-1.95-5.87 1.68-.47 3.35-1.28 5.05-1.37 12.78-.65 25.57-1.14 38.35-1.72 2.94-.13 5.89-.38 9.82-.65z"/></g></svg>