<svg enable-background="new 0 0 400 400" viewBox="0 0 400 400" xmlns="http://www.w3.org/2000/svg"><path d="m377.9 391.2c-.2.3-.4.5-.6.8-.7-.6-1.4-1-2.2-1.5.2-.3.4-.5.5-.8.6.4 1.4.8 2.3 1.5zm-1.8 6.1c-.2-.2-.5-.4-.9-.6.4-.6.8-1.2 1.2-1.9s.7-1.3.9-1.9c.3.3.5.5.8.7-.7 1.3-1.4 2.6-2 3.7zm2.2-9c-.3.3-.5.5-.6.8-.6-.6-1.3-1.1-2-1.5.3-.3.5-.5.6-.7.6.5 1.3.9 2 1.4zm.3.2v-.9h2 4.5c-.3 1.3-.6 2.5-1 3.6s-.9 2.1-1.4 3c.4.5 1 1 1.6 1.4s1.2.8 1.9 1.1c-.3.2-.5.4-.8.8-.4-.3-1-.7-1.6-1.2s-1.2-1.1-1.6-1.6c-.5.6-1.1 1.1-1.7 1.6s-1.4.9-2.1 1.4c-.1-.3-.3-.5-.7-.8.6-.2 1.2-.5 1.9-1s1.4-1.1 2-1.8c-.5-.8-.9-1.6-1.2-2.5s-.6-2-.8-3.2c-.4.1-.7.1-1 .1zm2.5 2.7c.3 1 .7 1.7 1 2.2.3-.5.6-1.1 1-2s.6-1.9.9-3h-3.2-.4c.1.9.3 1.8.7 2.8z" fill="#fbfcfa"/><path d="m396.5 388.5v1.5 3.6h1.5v.9c-.4 0-1 0-1.7 0h-7.9c-.5 0-.9 0-1.2 0v-.9h1.3v-3.5c0-.7 0-1.2 0-1.6h2.4c0-.8 0-1.4 0-1.7h1c0 .3-.1.8-.1 1.7h1.5c0-.8 0-1.4 0-1.7h1c0 .3-.1.9-.1 1.7zm-8.2 9.2c-.2-.3-.5-.5-.8-.8.8-.3 1.4-.6 1.9-.9s1-.7 1.4-1.1c.3.3.6.5.9.8-1.6 1-2.8 1.6-3.4 2zm2.6-6.8v-1.6h-1.5v1.6zm0 2.7v-1.9h-1.5v1.9zm2.4-2.7v-1.6h-1.5v1.6zm0 2.7v-1.9h-1.5v1.9zm.2 2 .7-.8c.4.2.9.5 1.6.8s1.3.7 1.8 1c-.3.3-.5.6-.8.8-.4-.3-1.5-1-3.3-1.8zm2-4.7v-1.6h-1.4v1.6zm0 2.7v-1.9h-1.4v1.9z" fill="#fbfcfa"/><g fill="#010100"><path d="m362.14 209.5c-4.61 1.01-9.18 2.39-13.84 2.97-13.65 1.7-27.32 3.42-41.04 4.45-7.02.52-12.9-2.44-17.93-8.01-21.19-23.47-42.74-46.62-64.17-69.88-.21-.23-.54-.35-1.23-.78-5.99 7.66-11.71 15.61-18.08 23-19.92 23.13-40.52 45.6-67.42 61.02-5.17 2.96-10.64 5.43-16.09 7.87-1.84.82-4.03.85-6.06 1.23-.33-.45-.65-.91-.98-1.36 1.73-1.95 3.21-4.22 5.23-5.8 24.89-19.52 47.11-41.69 66.23-66.88 8.6-11.34 15.03-23.9 18.52-37.81.36-1.42.22-2.95.53-4.39.48-2.23.55-5.77 1.84-6.33 2.22-.96 5.77-.95 7.85.24 6.38 3.67 10.45 9.56 13.17 16.4.72 1.81 1.42 3.97 2.83 5.09 20.55 16.37 40.76 33.22 62 48.65 14.9 10.83 32.96 15.41 50.48 20.63 4.77 1.42 9.49 3.02 14.14 4.77 1.55.58 2.83 1.88 4.24 2.85-.05.7-.13 1.39-.22 2.07z"/><path d="m233.41 233.41c0 14.16-.1 26.96.03 39.75.14 14.64.61 29.27.69 43.91.04 8.3-.06 16.64-.84 24.88-.33 3.45-2.26 6.91-4.09 10.01-1.61 2.73-4.04 3.33-6.27.15-6.86-9.77-10.41-20.02-9.5-32.53 1.3-17.86.64-35.86.67-53.81.01-8.32-.32-16.64-.51-24.96-.03-1.48-.14-2.95-.25-5.19-8.94 1.41-17.59 2.62-26.18 4.15-10.36 1.85-20.57 3.09-29.11-5.02-1.96-1.86-3.38-4.29-5.05-6.46.35-.46.7-.91 1.05-1.37 19.44-1.97 38.89-3.95 58.32-5.92 1.96-12.93-1.63-24.83-3.73-36.87-1.07-6.17 1.22-8.84 7.17-6.63 5.84 2.17 11.34 5.37 16.8 8.47 4.57 2.6 5.39 6.7 3.8 11.62-1.01 3.14-1.79 6.42-2.13 9.69-.36 3.44-.08 6.94-.08 11.12 10.6-1.38 21.11-2.33 31.46-4.19 12.49-2.24 21.43 3.81 29.77 11.57 1.21 1.12 2.22 3.95 1.62 5.13-.65 1.29-3.27 2.16-5.05 2.2-11.48.25-22.97.23-34.46.27-7.79.05-15.59.03-24.13.03z"/><path d="m287.61 75.89c7.69 0 14.4-1.16 20.45.33 5.83 1.44 11.23 5.27 16.3 8.8 1.59 1.11 2.39 4.88 1.83 6.97-.31 1.16-4.18 1.94-6.43 1.92-13.13-.14-26.27-.48-39.4-.97-3.09-.11-4.75 1.05-6.37 3.55-3.87 6-7.81 11.99-12.28 17.54-2.38 2.96-5.91 5.01-9.64 7.03-1.91-9.84 5.64-17.35 5.89-27.03-10.79 1.47-19.89-1.34-28.19-10.46 7.48-.98 13.62-1.84 19.78-2.59 3.95-.48 7.99-.52 11.87-1.32 1.56-.32 3.62-1.92 4.06-3.36 2.92-9.63 5.61-19.34 8.06-29.1.99-3.95 3.61-5 6.66-3.88 7.01 2.58 12.95 7.01 16.5 13.67.91 1.71-.04 5.02-1.13 7.06-2.08 3.86-4.88 7.35-7.96 11.84z"/><path d="m115.42 198.45c-.87 3.81-1.36 7.75-2.66 11.41-12.74 35.78-25.63 71.5-38.41 107.26-.72 2.01-.9 4.21-1.34 6.32-1.07 5.13-4.2 6.86-8.03 3.32-4-3.7-6.81-8.73-9.88-13.36-1.06-1.6-1.17-3.8-2-5.59-4.2-9.13-3.66-15.64 4.92-23.61 9.21-8.55 15.1-20.83 21.77-31.89 8.32-13.8 15.8-28.09 23.95-41.99 2.68-4.58 6.3-8.62 9.49-12.91.72.34 1.46.69 2.19 1.04z"/><path d="m189 84.58c6.96 0 12.61-.16 18.24.1 1.66.08 3.26 1.35 4.89 2.08-1.2 1.71-2.03 4.28-3.66 4.96-4.56 1.9-9.4 3.21-14.21 4.38-2.95.72-4.01 2.06-3.93 5.13.15 5.65.07 11.34-.39 16.97-.16 1.92-1.77 3.71-2.72 5.56-1.78-1.04-4.45-1.66-5.17-3.19-2.12-4.55-3.52-9.45-5.08-14.25-.55-1.7-.76-3.51-1.24-5.77-7.87 1.97-15.36 3.9-22.89 5.72-8.97 2.17-24.06-5.29-27.8-13.7-2-4.51 1.13-4.65 4.16-4.74 11.81-.36 23.62-.65 35.43-1.04 2.41-.08 4.81-.46 8.5-.84-4.57-9.4-8.47-17.98-12.88-26.3-2.85-5.38-2.53-7.15 3.32-8.32 8.24-1.65 15.71 1.44 21.87 6.12 2.58 1.96 2.99 7.42 3.41 11.39.57 5.23.15 10.54.15 15.74z"/><path d="m313.07 304.43c0 1.5.19 3.02-.03 4.49-.87 5.87-7.22 8.79-11.86 5.22-2.99-2.3-5.54-5.24-8.05-8.1-11.31-12.87-22.55-25.8-33.79-38.74-.96-1.11-2.16-2.33-2.42-3.66-.39-1.96-.03-4.07.01-6.12 1.84.12 3.89-.24 5.48.44 10.52 4.55 20.88 9.47 31.41 13.99 14.38 6.18 18.99 18.02 19.25 32.48z"/><path d="m128.55 314.09c11.41-8.05 20.86-17.54 28.96-28.43 5.77-7.77 11.25-15.72 12.4-25.69.35-3.02 1.87-3.49 4.41-3.12 7.79 1.14 13.27 5.79 17.66 11.86 2.1 2.9 1.69 5.8-1.26 8.36-8.56 7.4-16.72 15.27-25.54 22.34-9.99 8-21.4 13.27-34.28 14.86-.77.09-1.56-.12-2.35-.18z"/><path d="m45.26 141.47c12.4 1.69 23.76 2.71 33.66 8.7 3.06 1.85 5.93 4.76 7.65 7.87 2.12 3.84 3.29 8.33 4.25 12.67.85 3.84.37 7.71-3.5 10.12-3.63 2.26-7.54 2.37-10.68-.4-11.55-10.22-22.95-20.62-34.18-31.19-1.35-1.28-2.17-4.29-1.64-6 .38-1.16 3.53-1.45 4.44-1.77z"/><path d="m115.65 102.74c-2.3 3.32-3.63 7.29-6.14 8.3-2.84 1.14-7.93.91-9.99-.97-9.07-8.28-17.45-17.31-25.95-26.2-2.4-2.51-4.61-5.29-6.45-8.23-2.06-3.3-.77-5.9 2.96-5.6 13.43 1.09 26.96 3.66 36.96 12.95 4.66 4.33 5.67 12.61 8.61 19.75z"/></g></svg>