<svg enable-background="new 0 0 400 400" viewBox="0 0 400 400" xmlns="http://www.w3.org/2000/svg"><g fill="#010103"><path d="m271.56 315.99c-47.31 10.37-93.97 20.57-140.61 30.85-4.63 1.02-8.57.23-11.96-3.08-3.33-3.25-6.94-6.29-9.82-9.9-1.34-1.69-2.1-4.77-1.51-6.73.37-1.21 3.73-1.94 5.82-2.15 23.3-2.29 46.62-4.43 69.94-6.62 1.97-.19 3.93-.5 6.23-.81 0-11.62 0-23.21 0-35.19-14.28-1.31-28.74 3.87-43.17.27-.51 2.55-1.06 5.28-1.64 8.12-4.83 1.13-8.32-.75-9.66-4.98-1.85-5.8-3.4-11.82-4.08-17.85-1.66-14.85-3.14-29.69-9.52-43.47-1.16-2.51-.03-3.74 2.21-3.52 3.93.39 7.79 1.4 11.7 1.96 4.7.68 9.45 1.83 14.13 1.62 11.95-.54 23.86-1.84 35.8-2.6 3.59-.23 4.68-1.4 3.82-4.97-1.47-6.09-2.39-12.32-3.93-18.39-1.26-5 .62-7.82 5.75-7.73 9.93.19 20.89 12.19 20.23 22.1-.11 1.62-.02 3.25-.02 5.5 11.31-1.77 22.46-2.66 33.14-5.39 15.39-3.94 26.88 1.65 37.16 12.2 2.94 3.02 2.76 5.68.73 9.3-6 10.66-11.57 21.57-17.42 32.6 2.37 1.63 4.08 2.42 5.24 3.71 1.21 1.36 1.88 3.2 2.79 4.83-1.69.81-3.35 2.26-5.08 2.34-12.13.61-24.28.9-36.42 1.37-7.61.29-15.22.72-23.9 1.14v35.12c19.17-2.59 38.81-5.24 58.24-7.86-2.47-6.2-4.91-12.04-7.04-17.98-.34-.96.63-2.39 1.27-4.54 7.45 4.98 14.32 9.54 21.14 14.17 2.34 1.59 4.56 3.35 6.81 5.08 10.48 8.08 14.12 19.99 10.37 32.89-1.06 3.66-3.21 6.44-6.72 6.24-2.49-.14-5.75-2.04-7.11-4.16-3.95-6.13-7.12-12.76-10.6-19.19-.92-1.7-1.84-3.43-2.31-4.3zm-61.84-46.88c13.14-1.26 26.3-2.46 39.44-3.93 1.1-.12 2.69-1.96 2.89-3.18 1.46-9.31 2.67-18.66 3.86-28.01.52-4.08-1.51-6.6-5.52-6.55-13.34.18-26.67.65-40.66 1.03-.01 14.11-.01 26.85-.01 40.64zm-20.09-37.95c-15.27 1.44-30.2 2.86-45.76 4.33.84 12.1 1.67 24.08 2.53 36.42 14.65-.62 28.95-1.22 43.23-1.82 0-13.37 0-25.93 0-38.93z"/><path d="m195.71 95.4c10.46-1.29 20.99-2.23 31.37-3.97 9.64-1.62 19.09-4.4 28.73-6.02 3.57-.6 7.92-.28 11.09 1.29 5.27 2.62 10.21 6.21 14.66 10.11 4.07 3.56 3.68 6.75-.51 10-25.09 19.47-49.78 39.48-75.5 58.08-22.13 16-46.05 29.26-71.96 38.41-6.84 2.42-14.02 3.95-21.12 5.55-2.44.55-5.12.09-7.95-.76 31.84-17.89 64.58-33.9 93.38-56.28-7.65-8.09-15.11-15.66-22.16-23.6-2.15-2.43-3.16-5.86-4.7-8.83 3.25.4 6.64.37 9.72 1.31 4.91 1.49 9.81 3.27 14.37 5.59 6.82 3.47 12.79 7.95 12.89 16.96.44.19.87.38 1.31.56 9.43-9.29 18.91-18.54 28.26-27.91 2.22-2.22 4.21-4.73 5.96-7.34.84-1.26 1.66-3.83 1.06-4.45-1.04-1.09-3.24-1.71-4.83-1.52-9.22 1.11-18.39 2.67-27.61 3.79-9.51 1.16-19.03 3.22-28.64.2-1.14-.36-3.01.77-4.24 1.64-10.29 7.3-20.05 15.46-30.86 21.88-11.4 6.76-23.9 11.51-37.16 13.69-1.9.31-3.87.23-6.2-.75 3.98-2.09 8.03-4.05 11.93-6.28 25.83-14.85 48.83-33 65.43-58.15 3.97-6.01 6.53-13.01 9.21-19.77 1.09-2.75 2.15-3.99 4.98-3.06 7.54 2.49 13.74 6.69 17.01 14.23 1.37 3.15.92 5.84-2.04 8.4-5.66 4.88-10.91 10.23-16.33 15.38.15.55.3 1.08.45 1.62z"/><path d="m172.29 150.18c-3.49 2.37-6.82 5.03-10.49 7.07-9.45 5.25-19.04 10.22-28.59 15.29-.88.47-1.79.95-2.75 1.16-4.59.98-18.91-8.8-19.67-13.45-.54-3.3 1.02-4.85 4.32-5.27 17.28-2.2 34.54-4.53 51.81-6.76 1.52-.2 3.08-.03 4.63-.03.25.66.5 1.33.74 1.99z"/></g><path d="m6.44 374.46.42-.45c.65.47 1.27.95 1.85 1.44l-.45.49c-.65-.56-1.25-1.06-1.82-1.48m.93 7.33-.63-.26c.55-1.36 1.05-2.8 1.53-4.33.19.1.38.19.59.27-.47 1.29-.96 2.73-1.49 4.32m-.38-10.38.44-.42c.43.34 1.01.82 1.74 1.44l-.49.49c-.53-.51-1.09-1.01-1.69-1.51m2.5.35h1.72v-1.04h.59v1.04h3.52v-1.04h.59v1.04h1.75v.53h-1.75v1.42h-2.03v.97h3.22v2.03h-3.24c0 .35-.01.66-.03.93h3.32v.53h-3.37c-.03.27-.08.58-.15.94h3.96v.53h-3.71c.67.92 1.93 1.48 3.79 1.68-.13.24-.23.44-.29.59-2.13-.38-3.48-1.08-4.04-2.12-.43.97-1.77 1.72-4.03 2.23-.09-.19-.2-.37-.33-.55 2.1-.42 3.37-1.03 3.81-1.83h-3.36v-.53h3.58c.08-.29.13-.61.16-.94h-3.33v-.53h3.39c.02-.27.04-.58.04-.93h-3.23v-2.03h3.25v-.97h-2.07v-1.42h-1.73zm1.12 3.44v1h2.65c.01-.3.02-.44.01-.4v-.25-.35zm1.19-2h3.52v-.91h-3.52zm4.71 2h-2.63v.59c0 .15-.01.28-.01.4h2.64z" fill="#fbfcfa"/><path d="m13.56 383.74h.63v1.52h2.72v6.07h1.13v.6h-11.06v-.6h1.13v-6.07h2.73v-1.52h.63v1.52h2.1v-1.52zm-2.69 8.83.38.56c-1.24.63-2.53 1.25-3.85 1.85-.1-.21-.21-.42-.34-.63 1.37-.55 2.63-1.15 3.81-1.78m-2.13-4.27h2.1v-2.45h-2.1zm0 3.04h2.1v-2.46h-2.1zm2.72-3.04h2.1v-2.45h-2.1zm0 3.04h2.1v-2.46h-2.1zm6.07 3.6c-1.41-.71-2.7-1.3-3.86-1.78l.35-.56c1.45.62 2.75 1.19 3.88 1.72zm-1.25-9.09h-2.1v2.45h2.1zm-2.09 5.49h2.1v-2.46h-2.1z" fill="#fbfcfa"/></svg>