<svg enable-background="new 0 0 400 400" viewBox="0 0 400 400" xmlns="http://www.w3.org/2000/svg"><path d="m385.2 377.6.6-.6c.6.4 1.3.9 1.9 1.5l-.6.7c-.8-.6-1.4-1.1-1.9-1.6zm.3 7.1c.6-1.4 1.1-2.9 1.5-4.5.3.1.6.3.9.4-.5 1.4-1 2.9-1.5 4.4l-.9-.2zm.2-10.1.6-.6c.7.5 1.3 1.1 1.9 1.6l-.7.7c-.6-.6-1.2-1.2-1.8-1.7zm8.4-.8h.8v.9h1.8v.7h-1.8v1.8h-.8v-.3h-1.2v.9h3.3v2.6h-.8v-.4h-2.5c0 .3 0 .6-.1.8h3.4v.7h-3.5c0 .3-.1.6-.1.8h4v.7h-3.5c.7.9 1.9 1.3 3.6 1.5-.2.2-.4.5-.6.9-1.9-.3-3.2-1.1-3.8-2.3-.5 1.1-1.8 2-3.9 2.4-.2-.3-.4-.5-.6-.8 1.9-.4 3.1-.9 3.6-1.7h-3.2v-.7h3.5c.1-.2.1-.5.2-.8h-3.3v-.7h3.4c0-.2 0-.5 0-.8h-2.4v.3h-.8v-2.6h3.3v-.9h-1.2v.3h-.8v-1.8h-1.8v-.7h1.8v-.9h.8v.9h3.2zm-4.4 5.5h2.4c0-.3 0-.6 0-.9h-2.4zm1.2-3.1h3.2v-.8h-3.2zm4.4 2.2h-2.4v.9h2.5v-.9z" fill="#fcfafa"/><path d="m389.2 385.8h.9v1.5h1.8v-1.5h.9v1.5h2.7v6h1.1v.9h-11.3v-.9h1.1v-6h2.7v-1.5zm.2 8.7.5.8c-1.2.6-2.5 1.3-4 1.9-.2-.3-.3-.6-.6-.8 1.6-.6 3-1.3 4.1-1.9zm-2-4.3h1.9v-2.1h-1.9zm0 3.1h1.9v-2.2h-1.9zm2.7-3.1h1.9v-2.1h-1.9zm.1 3.1h1.9v-2.2h-1.9zm2.3 1.3c1.4.6 2.7 1.2 4.1 1.8l-.5.9c-1.5-.7-2.8-1.4-4.1-1.9zm2.2-6.5h-1.9v2.1h1.9zm-1.9 5.2h1.9v-2.2h-1.9z" fill="#fcfafa"/><g fill="#010101"><path d="m252.85 290.49c-19.5 19.56-39.65 37.5-69.87 37.35 1.7-1.27 3.28-2.75 5.12-3.78 19.63-10.99 37.56-23.97 51.23-42.23 2.41-3.22 3.07-5.47.32-8.97-9.65-12.29-18.95-24.86-28.41-37.31-.99-1.31-2.2-2.45-3.88-4.31-1.18 2.44-2.21 4.39-3.09 6.42-10.78 24.98-24.82 47.95-44.5 66.82-7.42 7.11-17.03 11.93-25.73 17.66-1.26.83-2.98.95-5.07.83 36.9-44.35 67.7-91.57 77.35-150.62-2.15.13-3.53.15-4.9.32-7.38.9-14.69.86-21.35-2.94-1.42-.81-2.11-2.92-3.14-4.43 1.46-.82 2.85-2.16 4.4-2.38 26.31-3.77 52.36-8.69 77.86-16.34 2.9-.87 6.87-1.56 9.2-.26 8.22 4.55 16.14 9.73 23.75 15.25 3.29 2.39 2.29 5.99.11 9.38-6.08 9.46-11.87 19.1-17.22 27.76 8.48 4.98 16.26 8.96 23.37 13.91 4.67 3.26 5.1 6.79.95 10.51-13.42 12.02-19.18 29.03-29.2 43.22-2.01 2.85-3.89 5.78-6 8.94 12.68 10.67 25.98 19.96 41.73 25.62 11.4 4.1 22.43 9.21 33.53 14.09 1.56.69 2.57 2.62 3.84 3.97-1.54 1.05-3.02 2.88-4.64 3.02-14.4 1.2-28.81 2.44-43.24 2.94-6.5.22-12.11-3.1-16.67-7.93-7.44-7.86-14.95-15.65-22.46-23.45-1.01-1.05-2.17-1.96-3.39-3.06zm-39.53-76.57c.48.57.95 1.13 1.43 1.7 12.88-2.85 25.76-5.67 38.63-8.58.83-.19 2.04-.91 2.2-1.59 2.82-12.06 5.63-24.14 8.04-36.28.21-1.05-2.29-3.72-3.65-3.81-3.93-.26-7.94.25-11.88.75-8.47 1.07-16.92 2.32-25.95 3.58 1.44 2.13 2.93 3.5 3.34 5.14.6 2.37 1.25 5.24.46 7.38-3.95 10.66-8.37 21.16-12.62 31.71zm5.73 12.23c10.58 12.64 21.17 25.29 31.77 37.94.63-.03 1.25-.06 1.88-.1 4.66-11.85 9.77-23.55 13.81-35.62 2.5-7.48-1.18-10.37-9.04-8.89-12.54 2.38-25.14 4.39-38.42 6.67z"/><path d="m101.9 205.58c-6.68 0-12.75 0-19.39 0-.29.85-.67 2.23-1.24 3.53-.73 1.66-1.62 3.24-2.44 4.86-2.37-1.3-6.03-2.05-6.86-4-2.05-4.79-3.56-10.08-3.93-15.27-1.14-16.1-2.61-32.12-7.08-47.71-.81-2.83-2.01-5.55-3.45-9.47 8.02.7 15.36 1.94 22.68 1.81 7.59-.13 15.15-1.59 22.25-2.42 0-9.39.47-18.5-.14-27.53-.52-7.73-2.29-15.37-3.51-23.05-.59-3.72 2.7-6.58 6.82-5.05 5.56 2.06 10.95 4.76 16.11 7.7 3.99 2.28 4.78 5.88 3.97 10.7-1.84 10.92-2.78 22-4.19 33.96 6.43-1.44 11.8-2.94 17.28-3.77 3.3-.5 7.32-1.09 10.04.29 6.59 3.35 12.83 7.54 18.79 11.95 3.57 2.64 3.3 5.99.58 9.99-3.6 5.29-6.22 11.27-8.97 17.09-1.55 3.29-2.27 6.97-3.79 10.27-2.56 5.56-4.3 10.63 2.66 14.53 1.14.64 2.22 3.81 1.68 4.48-1.07 1.32-3.24 2.25-5.04 2.41-10.26.9-20.54 1.7-30.83 2.14-3.65.16-4.85 1.21-4.79 4.95.21 13.79.08 27.58.08 41.93 7.78-1.61 16.25-3.35 25.08-5.18-1.68-8.37-3.29-16.34-5.14-25.53 2.57 1 3.81 1.14 4.55 1.82 8.94 8.18 16.88 17.3 20.52 28.99 1.56 5 .65 10.93-3.03 15.51-2.56 3.19-6.98 2.4-8.96-1.47-.9-1.77-1.5-3.69-2.26-5.53-.69-1.67-1.42-3.33-2.18-5.1-15.55 6.79-30.88 13.49-46.22 20.19-5.64 2.46-11.25 4.98-16.93 7.32-1.64.67-3.66 1.5-5.21 1.11-8.61-2.21-15.77-6.99-20.96-14.15-2.41-3.32-.48-6.31 3.7-7.04 11.42-1.98 22.87-3.85 34.26-6.02 1.32-.25 3.27-2.03 3.34-3.2.86-15.25 1.46-30.51 2.15-46.04zm-19.41-11.24c6.27-.97 12.17-1.76 18.01-2.91.94-.19 2.2-2.01 2.21-3.09.15-13.25.1-26.51.1-39.94-7.09.71-14.26 1.43-21.91 2.2.53 14.35 1.04 28.59 1.59 43.74zm38.31-5.88c4.54-.6 8.99-1.02 13.36-1.84 1.59-.3 4.16-1.39 4.31-2.41 1.67-11.26 3.11-22.56 4.13-33.89.12-1.32-2.56-4.02-4.11-4.16-5.64-.51-11.36-.2-17.7-.2.01 14.63.01 28.33.01 42.5z"/><path d="m279.28 125.18c-21.1 3.77-42.49 7.56-63.86 11.44-5.55 1.01-11.02 2.43-16.56 3.42-10.13 1.81-16.91-5.36-15.21-15.52 2.27-13.48 3.61-26.99.3-40.55-1.09-4.46 1.99-7.48 6.51-6.88 8.42 1.13 14.68 9.48 13.69 18.03-.83 7.09-1.34 14.22-2.23 21.31-.48 3.87 1.35 4.79 4.62 4.37 4.28-.55 8.54-1.24 12.82-1.76 4.28-.51 8.57-.89 13.19-1.35 0-7.75.53-15.38-.12-22.91-1.05-12.19-2.86-24.32-4.39-36.47-.45-3.6 3.57-6.72 7.61-4.99 5.62 2.39 10.94 5.53 16.2 8.67 3.17 1.9 3.69 5.04 3.29 8.72-.91 8.41-1.57 16.86-1.99 25.31-.3 6.11-.06 12.25-.06 19.22 9.1-.73 18.74-1.51 28.09-2.27 0-10.64-.07-20.89.05-31.14.03-2.65.15-7.36 1.02-7.56 2.88-.65 6.62-.54 9.16.86 13.19 7.24 13 7.53 10.88 22.42-1.38 9.69-1.86 19.51-3.36 29.18-.64 4.12-2.31 8.32-4.51 11.88-2.37 3.83-5.93 3.45-8.28-.46-2.29-3.82-4.18-7.87-6.86-12.97z"/></g></svg>