<svg enable-background="new 0 0 400 400" viewBox="0 0 400 400" xmlns="http://www.w3.org/2000/svg"><g fill="#010103"><path d="m96.73 213.33c-6.85.38-13.42.74-20.2 1.11-.15.61-.15 1.31-.46 1.83-.99 1.63-2.35 4.64-3.09 4.51-2.17-.4-5.21-1.6-5.92-3.31-1.93-4.69-3.51-9.72-4.01-14.74-1.1-11.07-.94-22.28-2.27-33.31-1.02-8.48-3.56-16.78-5.37-25.17-.23-1.06-.49-2.93-.07-3.15 1.18-.62 2.76-.92 4.09-.73 5.01.71 10.01 2.47 14.98 2.35 7.42-.17 14.8-1.6 22.52-2.53.11-16.66.62-32.93-5.48-48.51-1.19-3.04-3.32-7.04.55-8.86 2.62-1.23 6.48.07 9.76.47.89.11 1.64 1.09 2.52 1.55 9.42 4.94 11.83 12.61 10.65 22.94-1.08 9.49-.23 19.2-.23 29.34 5.11-.92 10.34-1.63 15.46-2.82 12.24-2.84 20.61 4.22 28.88 11.27 1.06.9 1.42 4.15.65 5.45-7.54 12.72-9.25 27.25-13.13 41.1-.49 1.76-.83 3.56-1.35 5.32-.84 2.85-1.03 5.33 1.78 7.48 1.02.79 1.92 3.24 1.42 4.13-.61 1.1-2.7 1.81-4.2 1.9-8.47.51-16.95.79-25.42 1.15-1.63.07-3.27.16-5.63.28v50.73c5.95-1.17 12.15-2.38 18.75-3.68-.37-6.8-.86-13.39-.99-19.98-.03-1.76 1.03-3.53 1.6-5.3 1.52 1.1 3.63 1.88 4.46 3.36 5 8.94 10.37 17.77 14.26 27.19 2.6 6.29-1.1 12.38-5.35 17.23-2.9 3.31-7.98 1.8-9.55-2.63-1.21-3.42-1.89-7.03-2.95-11.08-9.96 4.08-19.88 8.08-29.76 12.2-8.28 3.46-16.45 7.17-24.77 10.5-2.03.82-5.09 1.63-6.62.7-5.47-3.34-10.99-6.9-15.5-11.38-3.75-3.72-2.04-6.82 3.25-7.66 12.25-1.94 24.5-3.91 36.71-5.86.03-18.39.03-35.81.03-53.39zm17.06-13.68c6.15-.77 12.03-1.5 18.11-2.26.93-6.29 2.26-12.34 2.62-18.44.53-9.09.58-18.23.33-27.33-.04-1.54-2.56-4.13-4.13-4.29-5.4-.54-10.88-.21-16.92-.21-.01 18.07-.01 35.16-.01 52.53zm-17.18 2c0-17.31 0-34.45 0-51.88-6.99.67-13.56 1.3-19.71 1.89v52.54c7.13-.92 13.34-1.73 19.71-2.55z"/><path d="m132.56 329.48c.76-2.05 1.27-4.24 2.32-6.13 20.36-36.62 32.48-75.96 37.97-117.32 2.64-19.89 4.69-39.95 5.46-59.98.55-14.19-1.4-28.49-2.47-42.72-.19-2.57-1.31-5.15-2.39-7.55-2.52-5.63-1.44-7.72 4.59-7.92 11.64-.39 23.3-.41 34.93-1.08 23.9-1.39 47.77-3.11 71.66-4.71 4.98-.33 10.02-.35 14.91-1.2 8.53-1.48 15.16 2.52 21.71 6.81 1.31.86 2.85 3.21 2.5 4.3-.47 1.46-2.52 2.74-4.17 3.41-1.61.66-3.56.56-5.37.61-18.64.49-37.28.74-55.91 1.46-18.11.7-36.19 1.96-54.29 2.74-4.62.2-6.9 1.66-7.02 6.62-.37 15.29-1.34 30.56-1.53 45.85-.53 44.01-8.42 86.48-25.25 127.27-7.23 17.53-18.49 32.25-30.66 46.42-1.49 1.74-3.75 2.81-5.66 4.19-.43-.37-.88-.72-1.33-1.07z"/><path d="m170.34 325.83c7.12-8.05 13.31-14.55 18.93-21.5 15.58-19.26 23.61-41.85 27.43-65.95 3.16-19.97 5.37-40.08 8.14-61.25-11.54 2.02-19.74-1.15-26.25-11.23 9.07-.86 16.9-1.61 25.1-2.39 1.35-14.52 2.77-29.02-2.87-43.12-.62-1.54-1.26-3.09-1.62-4.7-.88-4.02.83-6.28 4.9-5.91 8.71.8 15.6 5.39 21.37 11.58 1.1 1.18 1.09 3.99.71 5.87-1.72 8.6-3.89 17.11-5.61 25.72-.61 3.02-.39 6.21-.57 9.72 12.47-1.1 24.34-2.02 36.19-3.22 9.91-1 19.77-2.38 29.67-3.49 6.8-.76 12.2 2.64 17.23 6.52 1.2.92 2.04 3.13 1.9 4.64-.08.88-2.4 2.08-3.8 2.22-7.44.73-14.91 1.16-22.36 1.7-18.73 1.37-37.45 2.82-56.19 4.06-3.19.21-3.32 2.08-3.42 4.33-.38 8.3-.19 16.68-1.22 24.9-3.5 28.03-7.18 56.17-19.98 81.81-8.54 17.1-21.89 29.98-39.52 37.95-2.11.94-4.61 1.01-8.16 1.74z"/><path d="m335.21 275.61c1.97 7.28 3.87 14.59 5.95 21.84 1.28 4.45 3.03 8.77 4.23 13.24 1.19 4.46-.59 7.76-4.83 9.66-17.9 8-36.71 10.01-56.04 8.26-4.44-.4-8.89-1.13-13.24-2.14-18.43-4.29-27.19-14.87-27.2-33.87 0-23.97.78-47.93.81-71.9.01-8.43-1.32-16.86-1.75-25.3-.11-2.09.9-4.24 1.4-6.37 2.02.85 4.32 1.33 6.02 2.61 12.33 9.29 11.26 22.22 10.45 35.73-1.32 21.86-1.56 43.79-1.77 65.7-.07 7.17 5.27 11.29 11.39 13.81 10.24 4.23 21.01 4.45 31.87 3.48 2.31-.21 4.63-.41 6.93-.75 12.65-1.86 18.79-10.11 21.44-21.83.94-4.15 2.08-8.26 3.13-12.39.39.08.8.15 1.21.22z"/><path d="m271.32 298.88c8.16-6.52 16.33-12.26 23.57-19.01 8.79-8.2 16.23-17.58 19.12-29.77.19-.79 2.42-1.95 3.12-1.63 3.29 1.48 6.76 2.96 9.45 5.28 6.12 5.29 5.91 8.79-.1 14.02-6.15 5.35-12.23 10.77-18.48 16-9.93 8.3-21.57 12.83-34.19 15.1-.78.13-1.59.01-2.49.01z"/><path d="m270.19 262.37c10.79-8.79 20.19-18.36 27.3-29.85 3.06-4.94 4.71-10.86 6.37-16.51.75-2.56 1.65-3.57 3.99-2.77 2.8.95 5.75 1.86 8.16 3.48 6.99 4.71 7.22 8.13 1.38 13.92-6.01 5.95-11.43 12.73-18.22 17.61-7.42 5.34-16.07 8.97-24.26 13.2-1.37.69-3.14.63-4.72.92z"/><path d="m270.05 110.84c8.46 3.25 17.12 6.07 25.31 9.9 4.79 2.24 8.67 14.47 7.34 19.64-1.37 5.33-6.83 7.88-10.67 4.06-8.81-8.77-17.06-18.13-25.15-27.58-2.48-2.89-.97-5.04 3.17-6.02z"/><path d="m269.62 224.89c12.55-12.75 22.82-26.67 23.22-45.63 6.35 0 11.63 1.94 15.72 5.95 1.42 1.39 2.38 5.45 1.43 6.72-8.61 11.55-16.95 23.53-30.37 30.26-2.98 1.49-6.2 2.51-9.31 3.74-.23-.34-.46-.69-.69-1.04z"/></g><path d="m6.44 374.46.42-.45c.65.47 1.27.95 1.85 1.44l-.45.49c-.65-.56-1.25-1.06-1.82-1.48m.93 7.33-.63-.26c.55-1.36 1.05-2.8 1.53-4.33.19.1.38.19.59.27-.47 1.29-.96 2.73-1.49 4.32m-.38-10.38.44-.42c.43.34 1.01.82 1.74 1.44l-.49.49c-.53-.51-1.09-1.01-1.69-1.51m2.5.35h1.72v-1.04h.59v1.04h3.52v-1.04h.59v1.04h1.75v.53h-1.75v1.42h-2.03v.97h3.22v2.03h-3.24c0 .35-.01.66-.03.93h3.32v.53h-3.37c-.03.27-.08.58-.15.94h3.96v.53h-3.71c.67.92 1.93 1.48 3.79 1.68-.13.24-.23.44-.29.59-2.13-.38-3.48-1.08-4.04-2.12-.43.97-1.77 1.72-4.03 2.23-.09-.19-.2-.37-.33-.55 2.1-.42 3.37-1.03 3.81-1.83h-3.36v-.53h3.58c.08-.29.13-.61.16-.94h-3.33v-.53h3.39c.02-.27.04-.58.04-.93h-3.23v-2.03h3.25v-.97h-2.07v-1.42h-1.73zm1.12 3.44v1h2.65c.01-.3.02-.44.01-.4v-.25-.35zm1.19-2h3.52v-.91h-3.52zm4.71 2h-2.63v.59c0 .15-.01.28-.01.4h2.64z" fill="#fbfcfa"/><path d="m13.56 383.74h.63v1.52h2.72v6.07h1.13v.6h-11.06v-.6h1.13v-6.07h2.73v-1.52h.63v1.52h2.1v-1.52zm-2.69 8.83.38.56c-1.24.63-2.53 1.25-3.85 1.85-.1-.21-.21-.42-.34-.63 1.37-.55 2.63-1.15 3.81-1.78m-2.13-4.27h2.1v-2.45h-2.1zm0 3.04h2.1v-2.46h-2.1zm2.72-3.04h2.1v-2.45h-2.1zm0 3.04h2.1v-2.46h-2.1zm6.07 3.6c-1.41-.71-2.7-1.3-3.86-1.78l.35-.56c1.45.62 2.75 1.19 3.88 1.72zm-1.25-9.09h-2.1v2.45h2.1zm-2.09 5.49h2.1v-2.46h-2.1z" fill="#fbfcfa"/></svg>