<svg enable-background="new 0 0 400 400" viewBox="0 0 400 400" xmlns="http://www.w3.org/2000/svg"><path d="m385.2 377.6.6-.6c.6.4 1.3.9 1.9 1.5l-.6.7c-.8-.6-1.4-1.1-1.9-1.6zm.3 7.1c.6-1.4 1.1-2.9 1.5-4.5.3.1.6.3.9.4-.5 1.4-1 2.9-1.5 4.4l-.9-.2zm.2-10.1.6-.6c.7.5 1.3 1.1 1.9 1.6l-.7.7c-.6-.6-1.2-1.2-1.8-1.7zm8.4-.8h.8v.9h1.8v.7h-1.8v1.8h-.8v-.3h-1.2v.9h3.3v2.6h-.8v-.4h-2.5c0 .3 0 .6-.1.8h3.4v.7h-3.5c0 .3-.1.6-.1.8h4v.7h-3.5c.7.9 1.9 1.3 3.6 1.5-.2.2-.4.5-.6.9-1.9-.3-3.2-1.1-3.8-2.3-.5 1.1-1.8 2-3.9 2.4-.2-.3-.4-.5-.6-.8 1.9-.4 3.1-.9 3.6-1.7h-3.2v-.7h3.5c.1-.2.1-.5.2-.8h-3.3v-.7h3.4c0-.2 0-.5 0-.8h-2.4v.3h-.8v-2.6h3.3v-.9h-1.2v.3h-.8v-1.8h-1.8v-.7h1.8v-.9h.8v.9h3.2zm-4.4 5.5h2.4c0-.3 0-.6 0-.9h-2.4zm1.2-3.1h3.2v-.8h-3.2zm4.4 2.2h-2.4v.9h2.5v-.9z" fill="#fcfafa"/><path d="m389.2 385.8h.9v1.5h1.8v-1.5h.9v1.5h2.7v6h1.1v.9h-11.3v-.9h1.1v-6h2.7v-1.5zm.2 8.7.5.8c-1.2.6-2.5 1.3-4 1.9-.2-.3-.3-.6-.6-.8 1.6-.6 3-1.3 4.1-1.9zm-2-4.3h1.9v-2.1h-1.9zm0 3.1h1.9v-2.2h-1.9zm2.7-3.1h1.9v-2.1h-1.9zm.1 3.1h1.9v-2.2h-1.9zm2.3 1.3c1.4.6 2.7 1.2 4.1 1.8l-.5.9c-1.5-.7-2.8-1.4-4.1-1.9zm2.2-6.5h-1.9v2.1h1.9zm-1.9 5.2h1.9v-2.2h-1.9z" fill="#fcfafa"/><g fill="#010101"><path d="m252.34 161.66c-.82-10.32-2.04-19.86-2.25-29.41-.44-20.65-.1-41.32-.64-61.97-.22-8.31.73-17.07-4.82-24.55-.61-.82.75-4.59 1.8-4.89 2.98-.85 6.28-.66 9.45-.76.59-.02 1.2.53 1.8.81 14.38 6.89 14.1 8.21 12.28 23.84-2.05 17.63-1.86 35.51-3.04 53.25-.9 13.54-2.42 27.03-3.7 40.91 5.95-1.01 12.95-1.96 19.83-3.44 6.32-1.36 12.45-3.57 18.77-4.89 2.95-.61 6.72-1.05 9.13.25 7.7 4.16 15.04 9.01 22.29 13.94 3.11 2.12 4.15 5.54 1.16 8.59-8.78 8.94-11.23 20.33-13.41 32.07-2.17 11.72-5.14 23.3-7.87 34.91-.53 2.24-1.38 4.46-2.42 6.52-3.66 7.29-7.65 8.09-13.51 2.56-2.77-2.61-5.45-5.47-7.51-8.64-2.02-3.11-4.24-4.01-7.81-3.44-7.14 1.14-14.33 1.9-22.51 2.95 2.61 2.24 4.34 3.96 6.31 5.37 4.83 3.45 6.33 8.38 6.36 13.93.09 19.5.31 38.99.05 58.49-.17 12.54-2.13 24.83-7.95 36.2-.38.74-.72 1.5-1.16 2.21-4.49 7.33-7.62 7.31-13.03.56-9.15-11.41-18.56-22.62-27.86-33.91-.11-.13-.29-.22-.34-.36-.73-2-1.45-4-2.18-6 2.03.03 4.24-.47 6.05.18 6.09 2.19 12.03 4.79 18.03 7.22 7.45 3.02 8.63 2.57 9.3-5.61 1.83-22.44 2.11-44.87-2.03-67.14-.57-3.07-1.75-6.03-2.76-9.39-6.41.86-12.6 1.69-18.95 2.54-.3.77-.74 1.67-.99 2.62-1.06 3.96-3.1 3.89-5.66 1.37-5.23-5.13-7.82-11.55-8.52-18.69-1.9-19.27-5.69-38.06-13.41-55.94-2.23-5.18-.43-8.29 4.06-6.83 12.43 4.03 23.97-.55 35.79-2.66 4.23-.77 8.37-1.95 11.87-2.77zm-26.73 40.25c10.3-2.38 19.59-4.78 28.99-6.64 16.05-3.16 31.61-10.45 48.74-5.71.55-2.72 1.1-5.13 1.52-7.56 1.87-10.85-2.16-18.31-15.33-15.75-15.44 3-30.91 5.83-46.31 8.99-6.53 1.34-12.92 3.34-19.53 5.08.67 7.51 1.27 14.23 1.92 21.59zm76.49-1.83c-25.62 4.01-50.25 7.87-75.31 11.79.99 8.19 1.94 15.99 2.93 24.13 6.83-1.25 13.3-2.65 19.85-3.58 15.5-2.21 30.52-8.09 46.95-5.98 1.74-8.24 3.48-16.48 5.58-26.36z"/><path d="m125.27 136.32c5.27-2.25 9.9-4.02 14.33-6.18 6.48-3.16 12.69-3.34 19 .41 4.42 2.63 9.15 4.76 13.47 7.53 6.12 3.92 6.82 7.18 2.04 12.51-7.8 8.71-11.87 19.09-15.11 30.02-.84 2.83-.7 4.49 2.12 5.98 1.95 1.03 3.43 2.94 5.12 4.46-.01.56-.02 1.12-.03 1.68-2.83.77-5.63 1.79-8.51 2.28-10.46 1.78-20.96 3.33-31.42 5.15-1.13.2-2.95 1.54-2.96 2.37-.18 14.08-.13 28.17-.13 42.62 8.83-3.02 18.19-6.23 27.98-9.58-1.82-6.32-3.5-12.17-5.18-18.03-.37-1.28-1.02-2.58-.96-3.84.08-1.85.69-3.69 1.07-5.53 1.81.86 4.11 1.27 5.34 2.64 11 12.36 20.57 25.71 27.33 40.94 3.01 6.77 4.27 13.79 1.23 20.65-1.32 2.98-4.2 6.27-7.07 7.17-1.63.51-5.68-3.08-6.91-5.65-4.67-9.7-8.64-19.75-12.8-29.5-10.54 5.21-21.47 10.66-32.43 16.03-16.86 8.24-34.18 15.63-49.18 27.3-1.58 1.23-5.08 1.51-6.91.62-6.87-3.31-13.48-7.18-20.07-11.04-3.44-2.01-3.89-5.71-2.55-8.79.67-1.55 3.86-2.82 5.91-2.82 12.23.02 23.48-3.99 34.83-7.75 7.24-2.4 14.57-4.53 21.77-7.06 1.33-.47 3.08-2.21 3.15-3.45.77-13.78 1.26-27.57 1.79-41.36.02-.47-.21-.96-.45-1.97-7.19 1.67-14.34 3.33-21.67 5.03-.51 3.21-1.07 6.72-1.74 10.89-7.74-2.97-10.85-8.59-12.96-15.28-4.49-14.21-9.07-28.38-13.87-42.49-1.16-3.42-3.42-6.45-4.97-9.76-1.63-3.49-.15-5.8 3.5-5.26 5.4.79 10.71 2.19 16.12 2.89 2.85.36 5.92.2 8.72-.46 7.91-1.85 15.71-4.18 23.6-6.12 2.99-.73 3.96-2.23 3.83-5.25-.71-15.62-.92-31.27-1.97-46.86-.62-9.16-5.44-16.98-10.4-24.52-1.75-2.67-4.15-5.76-1.37-8.47 1.81-1.77 5.63-3.27 7.79-2.56 8.42 2.78 16.65 6.24 24.7 9.99 2.89 1.35 3.99 4.32 3.05 8.09-5.03 20.14-5.59 40.74-6.17 62.33zm-47.85 24.77c2.57 12.44 5.17 24.98 7.85 37.96 7.7-1.88 14.77-3.5 21.75-5.42 1.05-.29 2.43-1.97 2.44-3.03.17-12.43.11-24.85.11-38.16-10.82 2.91-20.95 5.64-32.15 8.65zm47.6 27.56c3.05-.85 6.49-2.17 10.06-2.72 6.11-.94 9.06-4.08 9.62-10.34.71-7.91 2.58-15.73 3.09-23.65.36-5.52-2.38-7.68-7.76-7.01-4.25.53-8.44 1.7-12.58 2.85-.97.27-2.31 1.64-2.32 2.52-.16 12.74-.11 25.48-.11 38.35z"/><path d="m360.06 319.6c0 1.23.2 1.98-.03 2.55-1.33 3.25-1.93 7.62-4.38 9.4-3.44 2.49-7.03-.77-9.35-3.55-14.92-17.85-29.69-35.84-44.48-53.8-.63-.76-1.29-1.67-1.44-2.6-.25-1.55-.68-4.1.02-4.53 1.23-.77 3.62-.9 4.89-.18 6.66 3.75 13.25 7.64 19.61 11.88 10.68 7.11 20.93 14.8 28.87 25.08 3.72 4.8 6.98 9.81 6.29 15.75z"/><path d="m285.31 85.64c1.58.19 3.27.09 4.72.63 19.07 6.97 37.74 14.81 53.94 27.38 5.59 4.34 11.61 8.81 12.71 16.51.41 2.86.17 6.74-1.49 8.76-2.39 2.92-5.77.61-8.47-1.07-21.55-13.39-40.61-29.95-59.51-46.72-1.22-1.09-1.89-2.8-2.81-4.22.29-.43.6-.85.91-1.27z"/><path d="m150.11 323.99c7.04-5.18 14.24-10.17 21.08-15.6 9.69-7.69 18.34-16.44 24.14-27.53 1.89-3.61 3.22-7.62 4.13-11.6.77-3.38 2.51-4.18 5.31-3.17 6.77 2.44 12.37 6.42 15.62 13.08 1.61 3.3 1.54 5.85-2.05 8.45-12.5 9.03-24.19 19.27-37.19 27.48-7.65 4.83-17.17 6.75-25.91 9.8-1.45.51-3.23.07-4.85.07-.08-.34-.18-.66-.28-.98z"/><path d="m184.74 149.83c6.38-9.09 13.21-17.9 18.97-27.37 4.38-7.19 7.39-15.21 6.27-24.07-.33-2.64 1.02-3.55 3.53-3.47 6.65.22 12.46 2.48 16.74 7.57 1.1 1.31 1.71 4.55.88 5.73-9.4 13.31-18.51 27-32.93 35.65-4.21 2.52-8.72 4.54-13.09 6.79-.12-.28-.25-.55-.37-.83z"/></g></svg>