<svg enable-background="new 0 0 400 400" viewBox="0 0 400 400" xmlns="http://www.w3.org/2000/svg"><path d="m385.2 377.6.6-.6c.6.4 1.3.9 1.9 1.5l-.6.7c-.8-.6-1.4-1.1-1.9-1.6zm.3 7.1c.6-1.4 1.1-2.9 1.5-4.5.3.1.6.3.9.4-.5 1.4-1 2.9-1.5 4.4l-.9-.2zm.2-10.1.6-.6c.7.5 1.3 1.1 1.9 1.6l-.7.7c-.6-.6-1.2-1.2-1.8-1.7zm8.4-.8h.8v.9h1.8v.7h-1.8v1.8h-.8v-.3h-1.2v.9h3.3v2.6h-.8v-.4h-2.5c0 .3 0 .6-.1.8h3.4v.7h-3.5c0 .3-.1.6-.1.8h4v.7h-3.5c.7.9 1.9 1.3 3.6 1.5-.2.2-.4.5-.6.9-1.9-.3-3.2-1.1-3.8-2.3-.5 1.1-1.8 2-3.9 2.4-.2-.3-.4-.5-.6-.8 1.9-.4 3.1-.9 3.6-1.7h-3.2v-.7h3.5c.1-.2.1-.5.2-.8h-3.3v-.7h3.4c0-.2 0-.5 0-.8h-2.4v.3h-.8v-2.6h3.3v-.9h-1.2v.3h-.8v-1.8h-1.8v-.7h1.8v-.9h.8v.9h3.2zm-4.4 5.5h2.4c0-.3 0-.6 0-.9h-2.4zm1.2-3.1h3.2v-.8h-3.2zm4.4 2.2h-2.4v.9h2.5v-.9z" fill="#fcfafa"/><path d="m389.2 385.8h.9v1.5h1.8v-1.5h.9v1.5h2.7v6h1.1v.9h-11.3v-.9h1.1v-6h2.7v-1.5zm.2 8.7.5.8c-1.2.6-2.5 1.3-4 1.9-.2-.3-.3-.6-.6-.8 1.6-.6 3-1.3 4.1-1.9zm-2-4.3h1.9v-2.1h-1.9zm0 3.1h1.9v-2.2h-1.9zm2.7-3.1h1.9v-2.1h-1.9zm.1 3.1h1.9v-2.2h-1.9zm2.3 1.3c1.4.6 2.7 1.2 4.1 1.8l-.5.9c-1.5-.7-2.8-1.4-4.1-1.9zm2.2-6.5h-1.9v2.1h1.9zm-1.9 5.2h1.9v-2.2h-1.9z" fill="#fcfafa"/><g fill="#010101"><path d="m127.21 331.09c-4.16-18.09-8.9-35.33-17.4-51.31-.91-1.72-1.77-3.71-1.78-5.59-.01-1.06 1.89-3.15 2.7-3.04 6.79.9 13.52 2.19 21.88 3.65 6.12-5.8 14.19-12.42 15.92-23.74.17-1.11 3.21-2.99 3.82-2.63 4.93 2.89 9.94 5.82 14.22 9.55 3.09 2.69 1.74 5.51-1.96 7.34-5.18 2.56-10.21 5.44-15.1 9.27 4.28-.26 8.58-.39 12.84-.81 25.94-2.58 51.89-5.14 77.8-7.95 4.91-.53 9.76-1.95 14.56-3.26 4.67-1.28 8.95-.81 12.7 2.24 5.17 4.2 10.33 8.42 15.23 12.92 5.41 4.97 5.21 9.09-.54 13.59-9.59 7.5-13.99 18.29-19.39 29.57 9.74-.8 18.9-.75 27.72-2.46 16.43-3.18 29.88 1.73 41.2 13.27 2.02 2.06 3.84 5.82 3.43 8.42-.67 4.26-5.15 3.26-8.35 3.16-34.59-1.03-69.17-2.69-103.76-3.07-34.6-.38-69.1 2.39-103.44 6.73-8.9 1.12-17.78 2.48-26.71 3.33-9.71.92-18.13-1.92-24.26-9.93-2.85-3.72-2.37-5.35 2.27-5.82 8.09-.83 16.24-1.09 24.36-1.57 10.6-.62 21.19-1.23 32.04-1.86zm94.97-53.68c-.05.52-.1 1.05-.15 1.57 1.33.96 2.59 2.05 4 2.87 3.99 2.32 3.47 5.28 1.85 8.9-5.04 11.23-9.84 22.57-15.02 34.52 10.02-.84 19.43-1.54 28.81-2.54 1.08-.11 2.39-1.68 2.89-2.87 2.28-5.33 4.45-10.72 6.38-16.18 1.77-4.98 3.64-9.99 4.65-15.15 1.5-7.64-1.5-11.01-9.18-11.1-8.08-.09-16.15-.02-24.23-.02zm-16.82 48.61c.88-8.79 2.09-17.15 2.41-25.55.21-5.56-.56-11.23-1.49-16.75-.41-2.43-1.75-5.04-5.39-4.65-8.35.89-16.72 1.59-24.31 2.29 5.64 14.91.19 30.71 4.33 46.19 7.49-.46 15.37-.96 24.45-1.53zm-64.67 4.09c9.19-.53 18.55-1.07 28.4-1.63-.79-4.73-1.23-9.01-2.25-13.15-2.29-9.31-4.74-18.59-7.48-27.78-.42-1.4-2.85-3.32-4.12-3.16-7.66.97-15.24 2.47-23.17 3.86 2.83 13.78 5.66 27.52 8.62 41.86z"/><path d="m262.24 222.85c1.67 0 2.73.24 3.63-.04 11.03-3.38 19.86 1.32 27.97 7.89 1.93 1.56 2.75 4.51 4.08 6.82-2.33.89-4.65 2.5-7 2.54-16.65.29-33.38-.7-49.95.56-22.97 1.76-45.82 5.15-68.72 7.82-7.21.84-13.46-1.04-18.21-6.77-.68-.82-1.55-2.48-1.21-2.94.65-.9 2.04-1.56 3.21-1.73 7.89-1.1 15.79-2.31 23.73-2.93 3.68-.29 4.35-1.75 4.19-4.96-1.06-21.59-2.22-43.18-2.87-64.78-.33-10.85.02-21.62-6.16-31.31-1.83-2.87-.06-5.1 2.98-5.05 2.87.05 5.73 1.2 8.58 1.92 2.04.52 4.07 1.67 6.08 1.6 15.97-.5 31.81-2.13 47.04-7.33 7.34-2.51 13.94-2.02 20.15 2.94 4.02 3.21 8.4 5.98 12.44 9.18 3.12 2.47 4.1 5.98 1.86 9.34-6.64 9.95-6.44 21.49-7.74 32.6-1.73 14.66-2.73 29.4-4.08 44.63zm-15.31-58.17c0-6.73.1-13.04-.03-19.35-.13-6.1-1.46-7.77-7.43-7.16-13.63 1.41-27.21 3.39-41.41 5.22v26.68c15.79-4.37 31.16-12.19 48.87-5.39zm-49.16 43.94v23.22c16.29-2.13 32.14-4.19 47.83-6.24 0-7.51 0-14.26 0-21.65-16.13 1.58-31.88 3.12-47.83 4.67zm48.86-35.13c-16.53 2.03-32.6 3.99-48.9 5.99v19.51c16.12-2.91 31.34-10.13 47.94-5.78.33-6.78.63-13.04.96-19.72z"/><path d="m243.09 71.82c11.25-1.93 21.16-3.81 31.13-5.29 9.17-1.37 17.04 1.8 23.41 8.31 1.39 1.42 2.24 4.23 1.9 6.15-.18 1.01-3.44 2.02-5.34 2.1-17.78.75-35.56 1.38-53.35 1.83-2.81.07-4.05 1.2-5.24 3.51-3.13 6.05-6.34 12.08-9.95 17.85-1.72 2.76-4.3 5.04-6.73 7.28-.78.72-2.69 1.2-3.43.74-.76-.47-1.17-2.32-.95-3.41 1.09-5.36 2.44-10.67 3.7-16 .42-1.76.85-3.52 1.44-5.98-9.86 1.47-18.21-.75-25.89-9.25 6.46-1.03 11.7-2.02 16.99-2.68 12.55-1.56 12.89-1.44 14.9-13.84.76-4.72-.07-9.79-.79-14.61-.67-4.5.22-6.24 4.79-6.66 6.87-.63 11.51 3.86 16.36 7.49 8.08 6.06 8.15 8.33 1.68 16-1.45 1.72-2.63 3.65-4.63 6.46z"/><path d="m148.39 93.51c-11.32 3.05-21.86 5.9-32.42 8.72-8.92 2.38-23.2-3.06-28.18-10.87-.81-1.27-.79-3.05-1.26-5.01 19.41-1.77 38.34-3.49 59.16-5.39-4.79-6.77-8.85-12.32-12.68-18.01-1.21-1.8-3.12-5.04-2.51-5.79 1.62-1.95 4.62-4.22 6.78-3.95 6 .73 12.09 2.1 17.63 4.45 2.1.89 3.36 5.02 3.96 7.89.88 4.18.81 8.55 1.2 13.56 6.41-.44 12.47-.88 18.53-1.27 1.32-.09 2.78-.35 3.94.1 1.01.39 2.5 1.94 2.32 2.5-.46 1.39-1.51 3.15-2.74 3.61-5.12 1.89-10.3 4.02-15.65 4.78-5.16.74-4.53 3.52-4.22 6.99.46 5.07.79 10.17.88 15.26.02 1.29-.92 3.61-1.63 3.69-1.41.17-3.6-.45-4.34-1.52-2.32-3.36-4.34-6.98-6.04-10.69-1.22-2.7-1.74-5.68-2.73-9.05z"/><path d="m156.32 197.04c-1 1.79-1.84 3.7-3.04 5.35-10.83 14.89-21.82 29.67-32.52 44.66-2.18 3.05-3.27 6.86-4.99 10.26-2.23 4.42-5.99 4.76-8.13.3-1.96-4.09-3.11-8.69-3.88-13.19-.61-3.55-.24-7.3-.09-10.95.34-8.19.42-8.09 8.25-10.56 2.33-.74 4.61-1.91 6.64-3.27 9.79-6.56 19.47-13.28 29.24-19.86 2.16-1.45 4.53-2.59 6.81-3.87.57.37 1.14.75 1.71 1.13z"/><path d="m121.17 121.05c9.05 2 18.48 3.77 27.71 6.24 6.96 1.86 11.21 6.99 12.65 14.01.42 2.04.16 5.1-1.11 6.34-1.24 1.21-4.68 1.63-6.28.76-12.82-6.93-25.45-14.2-38.04-21.52-1-.58-1.3-2.39-1.92-3.63 2.11-.66 4.21-1.32 6.99-2.2z"/><path d="m97.47 156.83c12.81.09 25.58 1.25 36.58 8.48 3.4 2.23 5.3 7.24 6.97 11.35.73 1.8-.11 5.51-1.55 6.59-1.47 1.09-4.8.61-6.89-.25-3.97-1.63-7.75-3.82-11.39-6.12-7.02-4.43-13.94-9.01-20.76-13.74-1.68-1.16-2.78-3.16-4.15-4.77.4-.51.8-1.03 1.19-1.54z"/></g></svg>