<svg enable-background="new 0 0 400 400" viewBox="0 0 400 400" xmlns="http://www.w3.org/2000/svg"><path d="m385.2 377.6.6-.6c.6.4 1.3.9 1.9 1.5l-.6.7c-.8-.6-1.4-1.1-1.9-1.6zm.3 7.1c.6-1.4 1.1-2.9 1.5-4.5.3.1.6.3.9.4-.5 1.4-1 2.9-1.5 4.4l-.9-.2zm.2-10.1.6-.6c.7.5 1.3 1.1 1.9 1.6l-.7.7c-.6-.6-1.2-1.2-1.8-1.7zm8.4-.8h.8v.9h1.8v.7h-1.8v1.8h-.8v-.3h-1.2v.9h3.3v2.6h-.8v-.4h-2.5c0 .3 0 .6-.1.8h3.4v.7h-3.5c0 .3-.1.6-.1.8h4v.7h-3.5c.7.9 1.9 1.3 3.6 1.5-.2.2-.4.5-.6.9-1.9-.3-3.2-1.1-3.8-2.3-.5 1.1-1.8 2-3.9 2.4-.2-.3-.4-.5-.6-.8 1.9-.4 3.1-.9 3.6-1.7h-3.2v-.7h3.5c.1-.2.1-.5.2-.8h-3.3v-.7h3.4c0-.2 0-.5 0-.8h-2.4v.3h-.8v-2.6h3.3v-.9h-1.2v.3h-.8v-1.8h-1.8v-.7h1.8v-.9h.8v.9h3.2zm-4.4 5.5h2.4c0-.3 0-.6 0-.9h-2.4zm1.2-3.1h3.2v-.8h-3.2zm4.4 2.2h-2.4v.9h2.5v-.9z" fill="#fcfafa"/><path d="m389.2 385.8h.9v1.5h1.8v-1.5h.9v1.5h2.7v6h1.1v.9h-11.3v-.9h1.1v-6h2.7v-1.5zm.2 8.7.5.8c-1.2.6-2.5 1.3-4 1.9-.2-.3-.3-.6-.6-.8 1.6-.6 3-1.3 4.1-1.9zm-2-4.3h1.9v-2.1h-1.9zm0 3.1h1.9v-2.2h-1.9zm2.7-3.1h1.9v-2.1h-1.9zm.1 3.1h1.9v-2.2h-1.9zm2.3 1.3c1.4.6 2.7 1.2 4.1 1.8l-.5.9c-1.5-.7-2.8-1.4-4.1-1.9zm2.2-6.5h-1.9v2.1h1.9zm-1.9 5.2h1.9v-2.2h-1.9z" fill="#fcfafa"/><g fill="#010101"><path d="m282.25 223.29v17.72c5.78-.45 11.36-.73 16.9-1.36 9.72-1.11 19.38-2.96 29.12-3.52 9.53-.55 17.67 4.08 25.02 9.68 1.16.89 1.66 4.23.96 5.73-5.03 10.71-5.01 22.29-6.02 33.63-1.33 14.9-2.07 29.94-7.35 44.05-2.15 5.75-6.24 10.85-9.89 15.92-2.11 2.93-5.1 2.73-7.73.11-8.37-8.32-16.78-16.61-25.09-24.98-1.33-1.34-2.26-3.06-3.38-4.61.2-.41.39-.82.59-1.23 5.17.59 10.39.93 15.5 1.83 13.15 2.33 15.15 1.21 16.81-11.55 1.52-11.69 2.78-23.42 3.76-35.16 1.1-13.17-3.98-18.62-17.3-18.29-10.62.26-21.22 1.29-32.27 2.01v31.85c6.36-.75 12.55-1.47 19.25-2.26-1.16-4.83-2.4-9.1-3.13-13.45-.26-1.52.73-3.25 1.14-4.89 1.5.43 3.35.43 4.43 1.35 5.43 4.61 11.08 9.07 15.82 14.33 4.61 5.11 3.25 17.77-1.58 22.61-3 3-8.8 1.67-10.87-2.53-.66-1.34-1.09-2.78-1.63-4.18-.53-1.38-1.07-2.76-1.75-4.5-13.23 5.41-26.32 10.58-39.23 16.14-4.91 2.12-9.03 1.57-12.91-1.7-3.66-3.08-7.72-5.93-10.61-9.65-3.47-4.48-1.71-7.13 3.99-7.59 6.77-.55 13.52-1.3 20.49-1.99 0-10.56 0-20.82 0-31.44-13.47 1.1-26.61 2.18-40.06 3.28.53 12.4 1.43 24.33 1.42 36.26-.01 11.26-.81 22.53-1.66 33.76-.2 2.68-1.58 5.48-3.06 7.81-2.08 3.27-5.29 3.86-7.89.73-5.82-6.99-9.01-14.61-7.39-24.28 1.52-9.1 1.78-18.48 1.88-27.74.07-6.78-1.15-13.56-1.54-20.35-.23-3.93-1.75-6.34-5.62-7.72-2.91-1.03-5.67-2.78-8.14-4.66-3.71-2.82-3.29-5.2 1.09-6.57 2.48-.78 5.15-.91 7.74-1.33-.26-6.03 1.2-7.39 7.53-6.7 1.97.21 4.39.21 5.75 1.34 9.08 7.46 19.65 4.43 29.71 4.4 6.74-.02 13.48-1 20.32-1.56 0-5.89 0-11.18 0-17.14-3.98.22-7.72.44-11.47.62-3.48.16-7.06.88-10.4.26-3.72-.69-5.4.19-5.53 3.98-5.13 1.05-8.69-1.2-9.73-5.68-2.16-9.32-3.87-18.78-5.19-28.26-1.81-13-3.41-26.01-9.32-37.97-1.26-2.54-.62-3.81 2.12-4.02 1.32-.1 2.73-.23 3.97.12 15.96 4.49 31.69.04 47.45-1.38 12.39-1.12 25.01-1.99 36.95-5.15 10.92-2.89 19.56.15 28.28 5.33 6.79 4.03 7.83 8.09 3.18 14.3-7.1 9.48-8.4 20.66-10.7 31.72-1.74 8.36-4.17 16.71-7.48 24.57-2.65 6.31-6.31 6.03-10.63.6-.81-1.02-2.72-1.7-4.09-1.66-6.65.15-13.28.61-20.53 1.01zm2.46-42.85c8.88-2.09 16.58-1.65 24.52 4.66-.55-7.53-.85-13.4-1.54-19.23-.12-1.03-1.88-2.64-2.91-2.66-9.05-.21-18.11-.12-27.17-.12 4.11 5.27 9 9.13 7.1 17.35zm-47.6 3.41c9.04-.4 17.54-.77 27.07-1.19-1.52-5.57-2.6-10.19-4.13-14.66-.38-1.13-2.23-2.57-3.32-2.51-6.74.41-13.46 1.22-20.83 1.95.39 5.21.76 10.27 1.21 16.41zm2.47 12.49v16.77c8.63-.49 16.66-.95 24.78-1.41 0-5.63 0-10.77 0-15.36-8.52 0-16.59 0-24.78 0zm43.99 13.23c7.96-2.14 15.39-1.42 22.74 3.2.47-7.15.86-13.17 1.3-19.89-8.15.44-15.86.86-24.05 1.3.01 4.99.01 9.71.01 15.39z"/><path d="m58.85 125.87c1.94-.32 3.8-.97 5.63-.88 25.83 1.29 50.48-4.76 74.94-11.96 6.58-1.94 23.32 4.89 25.6 11.48.81 2.33-.94 6.34-2.74 8.64-15.14 19.35-30.57 38.48-47.18 59.28 3.65 2.84 6.55 5.34 9.69 7.5 5.44 3.73 9.95 2.71 13.77-2.81 3.21-4.66 6.71-9.15 9.56-14.01 2.05-3.5 3.58-7.4 4.73-11.31 1.1-3.72 2.86-5.67 6.77-4.37 6.11 2.04 10.49 6.2 13.65 11.73 1.84 3.21-.61 4.42-2.69 5.86-9.38 6.54-18.75 13.09-28.7 20.05 4.18 2.1 7.67 3.86 11.16 5.61 7.77 3.89 10.35 10.97 11.03 18.85.55 6.5-4.75 9.77-10.17 6.07-7.53-5.15-14.53-11.07-21.73-16.7-1.4-1.09-2.67-2.34-4.99-4.38v6.42c0 31.99-.01 63.98 0 95.97 0 8.07-.89 15.95-5.14 23.02-3.82 6.37-6.45 6.57-10.5.58-5.96-8.81-6.84-18.53-5.71-29.01 1.76-16.33 3.05-32.74 3.61-49.16.49-14.12-.12-28.29-.66-42.42-.19-4.88-1.62-9.71-2.69-15.77-17.79 18.79-35.77 35.5-58.93 45.12-.44-.47-.88-.93-1.32-1.4 2.48-2.72 4.81-5.59 7.45-8.13 18.87-18.16 36.83-37.18 51.68-58.79 8.55-12.44 15.76-25.81 23.55-38.77.51-.85.97-1.77 1.23-2.72 1.57-5.75-1-8.37-6.8-7.07-10.84 2.43-21.67 4.96-32.56 7.18-4.21.86-8.56 1.18-12.86 1.45-6.28.39-16.25-7.55-18.68-15.15z"/><path d="m203.07 97.8c0 13.98-.08 27.6.02 41.22.22 32.04-2.55 63.76-9.98 94.99-7.4 31.09-18.8 60.29-40.43 84.56-2.45 2.75-5.46 4.99-8.21 7.47-.48-.29-.95-.58-1.43-.87.81-2.32 1.33-4.79 2.46-6.94 19.39-36.93 30.16-76.44 35.53-117.6 3-22.97 4.83-46.01 3.53-69.19-.59-10.44-1.49-20.89-2.75-31.27-.47-3.86-2.21-7.61-3.65-11.29-1.32-3.36-.91-5.61 3.04-6.05 6.09-.69 12.18-1.48 18.3-1.79 37.89-1.91 75.44-6.71 112.86-12.73 10.08-1.62 17.7 3.35 24.85 9.11 3.34 2.69 2.29 5.93-1.96 6.75-5.2 1-10.54 1.29-15.82 1.83-29.41 3-58.83 5.98-88.25 8.97-8.75.88-17.51 1.76-28.11 2.83z"/><path d="m286.08 146.06c1.56-5.01 3.12-10.02 4.53-14.55-5.64-2.52-10.99-4.92-16.33-7.31.13-.73.26-1.45.4-2.18 5.34-1.36 10.64-2.94 16.05-3.99 3.33-.64 5.4-1.96 6.08-5.41 1.01-5.19 2.39-10.31 3.28-15.52.83-4.87 3.34-6.87 7.38-4.22 4.51 2.95 8.54 6.84 12.07 10.94 1.05 1.22-.29 4.5-.62 7.58 1.39.12 3.58.33 5.76.52 6.33.55 12.03 2.63 16.27 7.52 1.03 1.19 1.9 3.64 1.34 4.77-.59 1.19-2.94 1.98-4.58 2.1-9.78.7-19.58 1.02-29.35 1.82-1.77.15-3.79 1.59-5.05 3-3.86 4.33-7.27 9.06-11.14 13.37-1.23 1.37-3.36 1.93-5.08 2.87-.35-.43-.68-.87-1.01-1.31z"/><path d="m253.09 121c4.57 0 8.57-.28 12.5.12 1.82.19 3.5 1.7 5.25 2.61-1.32 1.34-2.41 3.12-4 3.93-2.48 1.26-5.25 2.03-7.98 2.68-3.75.89-4.88 2.68-4.26 6.71.59 3.82-.25 7.86-.49 12.29-8.24-2.41-9.29-8.73-11.85-14.79-14.73 7.26-25.99 2.91-35.34-10.97 10.24-3.43 19.91-.7 30.17-2.21-3.08-4.51-5.86-8.71-8.78-12.81-2.97-4.17-2.57-5.5 2.22-6.96 6.8-2.09 12.75.72 18.46 3.62 1.59.81 2.46 3.75 2.95 5.87.7 3.05.76 6.24 1.15 9.91z"/><path d="m110.12 51.8c8.8 2.63 17.8 5.27 26.77 8.02 4.58 1.4 6.95 4.95 8.18 9.3 1.09 3.82 2.19 7.67 2.8 11.58.61 3.95-.22 7.83-3.98 10.01s-7.89 2.28-11.03-1.02c-7.43-7.8-14.62-15.84-21.84-23.84-1.88-2.09-3.72-4.3-5.15-6.7-.83-1.39-1.58-3.7-.97-4.85.63-1.21 2.95-1.51 5.22-2.5z"/></g></svg>