<svg enable-background="new 0 0 400 400" viewBox="0 0 400 400" xmlns="http://www.w3.org/2000/svg"><g fill="#010100"><path d="m80.57 140.99c1.94-.33 4.89-1.82 6.98-1.03 8.83 3.35 17.38-.25 26.03-.25 6.69.01 10.83-2.73 13.53-9.06 3.31-7.77 7.69-15.08 11.48-22.65 1.01-2.02 1.6-4.26 2.78-7.49-6.21.79-11.42 1.55-16.65 2.08-3.39.34-6.87.06-10.22.59-1.68.27-3.59 1.41-4.68 2.74-10.23 12.47-22.67 21.91-37.69 27.86-1.77.7-3.68 1.06-6.98 1.98 1.72-2.01 2.31-2.95 3.13-3.63 16.4-13.65 29.01-30.28 37.51-49.76 3-6.87 4.37-14.58 5.62-22.05.65-3.89 2.15-4.85 5.48-4.33 6.4 1.01 12.14 3.37 16.66 8.24 3.18 3.43 3.59 6.64.39 10.53-4.51 5.48-8.56 11.34-12.32 18.06 8.23-2.17 16.61-3.93 24.65-6.66 5.02-1.7 9.44-1.63 13.82.95 3.72 2.19 7.47 4.44 10.77 7.17 4.84 4.01 4.16 6.1-.75 10.03-12.67 10.13-25.04 20.63-37.54 30.98.32.63.64 1.26.96 1.88 8.17-1.45 16.47-2.4 24.46-4.52 5.92-1.56 10.76-.92 15.3 2.95 1.65 1.4 3.27 2.84 4.85 4.32 6.9 6.5 7.17 9.1 3.87 18-1.65 4.44-2.83 9.33-2.86 14.03-.14 27.15.07 54.3.26 81.45.12 17.14.68 34.28.53 51.42-.08 9.03-2.13 17.79-7.18 25.58-4.28 6.59-7.14 7.09-12.91 1.58-4.45-4.24-8.37-9.03-12.84-13.25-5.07-4.8-10.51-9.2-15.74-13.84-1.18-1.04-2.15-2.32-4.15-4.52 3.12 0 4.97-.26 6.71.05 5.22.93 10.38 2.2 15.61 3.11 6.18 1.07 8.4-.27 9.43-6.37 1.19-7.02 2.23-14.12 2.59-21.22.71-13.79.92-27.6 1.3-41.4.02-.62-.25-1.25-.44-2.15-20.79 1.78-41.43 3.55-62.52 5.36-5.62 31.83-14.4 62.77-38.35 86.67-.87-.32-1.74-.64-2.62-.97 13.9-28.25 23-57.83 26.15-89.07 3.15-30.91 5.16-61.78-4.41-93.39zm59.4 40.09c7.9-.98 15.04-1.87 22.67-2.81-.92-8.09-1.72-16.16-2.78-24.21-.68-5.12-4.64-8.97-9.82-8.74-5.89.27-11.73 1.52-19.11 2.55 2.02 1.48 2.92 2.18 3.86 2.82 5.32 3.66 7.47 8.47 6.37 15.02-.82 4.86-.8 9.84-1.19 15.37zm-16 2.67c-.53-11.8 1.62-23.03-3.72-34.2-5.07 1.07-10.08 2.01-15.01 3.27-.92.24-2.17 1.73-2.18 2.65-.16 10.05-.1 20.1-.1 30.7 7.02-.81 13.73-1.58 21.01-2.42zm38.73 8.61c-6.79.7-12.9 1.23-18.96 2.04-1.61.21-4.35 1.12-4.47 1.99-1.05 7.9-1.63 15.86-2.3 23.23h25.73c0-8.49 0-17.72 0-27.26zm-39.1 30.39c0-8.99 0-17.65 0-26.41-7.24 1-14.07 1.94-21.05 2.9-.54 9.09-1.06 17.78-1.6 26.83 8.06-1.18 15.37-2.25 22.65-3.32z"/><path d="m251.34 259.78c-9.6.89-18.67 1.78-27.76 2.56-6.59.57-12.64-.62-17.18-5.97-1.03-1.21-1.81-2.63-3.69-5.42 16.78-1.85 32.29-3.55 48.53-5.34-.82-7.37-1.55-14.61-2.45-21.82-.38-3.02-2.25-4.07-5.31-3.69-10.39 1.3-20.79 2.44-31.19 3.65-7.67.89-14.07-1.69-19.23-7.27-1.01-1.09-1.26-2.87-1.86-4.33 1.35-.44 2.67-1.12 4.06-1.27 13.36-1.49 26.73-2.88 40.16-4.31-3.6-11.29-7.5-22.52-10.69-33.96-1.53-5.5-3.46-9.32-9.65-10.83-3.21-.78-5.89-4.1-8.54-6.57-.9-.84-1.46-2.67-1.23-3.86.13-.67 2.18-1.27 3.41-1.36 6.64-.45 13.29-.68 19.93-1.09 8.1-.49 16.19-1.08 24.68-1.66-2.49-7.47-4.79-14.19-6.95-20.95-.7-2.2-1.23-4.5-1.44-6.8-.3-3.22 1.24-4.48 4.24-2.85 7.54 4.09 14.65 8.95 19.05 16.43 1.86 3.17 1.73 7.52 2.6 11.78 7.44-.71 15.5-1.44 23.55-2.24 7.81-.78 14.47 1.62 19.79 7.35 1.15 1.24 1.57 3.15 2.33 4.76-1.46.56-2.89 1.44-4.39 1.61-5.71.65-11.46 1.07-17.75 1.62 2.66 3 4.87 5.44 7.02 7.94 2.35 2.73 2.04 5.12-.35 7.92-8.3 9.7-16.37 19.6-25.15 30.17 3.43-.21 6.15-.32 8.86-.54 10.27-.86 20.52-2.02 30.81-2.55 9.73-.5 16.58 5.16 22.29 12.19 2.63 3.23 1.37 5.67-3.01 5.86-5.98.25-11.98-.14-17.98-.15-15.63-.03-31.26-.01-46.12-.01-.6 8.12-1.22 16.46-1.9 25.56 7.94-.7 15.26-.87 22.39-2.1 10.85-1.86 18.62 3.09 25.54 10.33 1.06 1.11 2.04 4 1.49 4.57-1.2 1.25-3.39 2.13-5.19 2.14-10.99.06-21.99-.17-32.98-.29-3.79-.04-7.58-.01-11.89-.01 0 3.96.1 7.42-.02 10.88-.66 19.45-1.33 38.9-2.14 58.34-.11 2.61-.54 5.41-1.67 7.71-.98 2-3.17 3.4-4.83 5.07-1.56-1.78-3.96-3.33-4.51-5.38-1.2-4.44-1.87-9.13-2.02-13.74-.62-19.13-.96-38.27-1.41-57.41-.04-1.29-.14-2.61-.25-4.67zm-20.7-95.81c9.07 13.32 19.66 25.01 19.23 42.1 4.32-.34 8.6-.94 12.88-.94 2.86 0 4.1-1.25 5.1-3.66 4.31-10.44 8.82-20.79 13.08-31.25 1.35-3.31 2.12-6.85 3.35-10.92-18.15 1.58-35.44 3.09-53.64 4.67z"/><path d="m302.73 85.94c5.44-.86 9.94-1.12 14.18-2.33 9.89-2.81 16.64 2.44 22.86 8.63 3.09 3.08 1.93 5.7-2.58 6.15-7.75.78-15.54 1.11-23.32 1.64-5.13.34-10.29.49-15.38 1.17-1.34.18-2.81 1.82-3.61 3.16-2.71 4.55-4.97 9.37-7.77 13.86-1.11 1.77-3.19 2.93-4.83 4.36-.55-.26-1.09-.53-1.64-.79.65-6.09 1.3-12.18 1.93-18.07-5.18-1.06-10.07-1.74-14.72-3.17-1.62-.5-2.67-2.83-3.97-4.33 1.47-1.21 2.77-3.03 4.45-3.5 4.45-1.27 9.15-1.68 13.58-3.02 1.58-.48 3.61-2.5 3.81-4.03.95-7.37 1.48-14.81 1.87-22.23.16-3.19 1.5-4.8 4.53-4.46 6.91.78 12.59 4.14 16.83 9.51.89 1.13.6 3.83-.07 5.42-1.59 3.81-3.72 7.38-6.15 12.03z"/><path d="m233.46 92c6.45 0 12.25-.17 18.04.1 1.86.09 3.67 1.35 5.5 2.08-1.46 1.57-2.63 3.92-4.42 4.57-5.57 2.05-11.37 3.45-17.25 5.16.36 5.11.84 10.2.99 15.3.04 1.5-.89 3.02-1.37 4.53-1.61-.63-3.85-.8-4.7-1.97-2.09-2.88-3.64-6.18-5.22-9.4-.78-1.6-1.15-3.41-1.96-5.93-15.66 6.51-29.65 6.25-40.04-10.9 11.79-3.14 22.96-.51 35.1-2.18-3.7-5.89-6.9-11.19-10.32-16.34-2.93-4.42-2.34-7.4 2.71-7.49 5.78-.11 11.67 1.44 17.33 2.95 1.45.39 2.73 3.26 3.18 5.2 1.09 4.8 1.68 9.73 2.43 14.32z"/></g><path d="m378.6 9.2.8-1c.9.7 1.9 1.4 2.9 2.3l-.9 1.1c-1.1-.9-2-1.7-2.8-2.4zm.5 10.7c.9-2.1 1.6-4.3 2.3-6.7.4.2.8.4 1.3.6-.7 2.1-1.5 4.2-2.2 6.6zm.4-15.2.9-.9c1 .8 2 1.6 2.8 2.4l-1 1c-1-.9-1.9-1.8-2.7-2.5zm12.5-1.3h1.2v1.4h2.7v1.1h-2.7v2.7h-1.2v-.5h-1.8v1.3h4.9v3.8h-1.2v-.5h-3.7c0 .4-.1.9-.1 1.2h5.1v1h-5.2c0 .5-.1.9-.2 1.2h6v1h-5.2c1.1 1.3 2.9 2 5.5 2.2-.4.4-.7.8-.9 1.3-2.9-.5-4.8-1.6-5.7-3.5h-.1c-.8 1.7-2.7 2.9-5.9 3.6-.2-.4-.6-.8-.9-1.1 2.8-.6 4.6-1.4 5.4-2.5h-4.8v-1h5.3c.1-.3.2-.7.2-1.2h-4.9v-1h5c0-.4 0-.8.1-1.3h-3.6v.5h-1.2v-3.7h4.9v-1.3h-1.8v.5h-1.2v-2.7h-2.6v-1.1h2.6v-1.4h1.2v1.4h4.7v-1.4zm-6.7 8.4h3.6c0-.4 0-.9 0-1.4h-3.6zm1.9-4.7h4.7v-1.2h-4.7zm6.7 3.3h-3.7v1.4h3.7z" fill="#fbfcfa"/><path d="m384.7 21.4h1.3v2.2h2.8v-2.2h1.3v2.2h4.1v9.1h1.7v1.3h-16.9v-1.3h1.7v-9.1h4.1v-2.2zm.3 13.2.7 1.2c-1.8.9-3.8 1.9-6 2.9-.2-.4-.5-.8-.8-1.3 2.4-1 4.4-2 6.1-2.8zm-3.1-6.5h2.8v-3.2h-2.8zm0 4.6h2.8v-3.3h-2.8zm4.1-4.6h2.8v-3.2h-2.8zm0 4.6h2.8v-3.3h-2.8v3.2zm3.6 1.9c2.1.9 4.1 1.8 6.1 2.7l-.7 1.3c-2.2-1.1-4.2-2-6.1-2.9zm3.3-9.7h-2.8v3.2h2.8zm-2.8 7.8h2.8v-3.3h-2.8z" fill="#fbfcfa"/></svg>