<svg enable-background="new 0 0 400 400" viewBox="0 0 400 400" xmlns="http://www.w3.org/2000/svg"><path d="m377.9 391.2c-.2.3-.4.5-.6.8-.7-.6-1.4-1-2.2-1.5.2-.3.4-.5.5-.8.6.4 1.4.8 2.3 1.5zm-1.8 6.1c-.2-.2-.5-.4-.9-.6.4-.6.8-1.2 1.2-1.9s.7-1.3.9-1.9c.3.3.5.5.8.7-.7 1.3-1.4 2.6-2 3.7zm2.2-9c-.3.3-.5.5-.6.8-.6-.6-1.3-1.1-2-1.5.3-.3.5-.5.6-.7.6.5 1.3.9 2 1.4zm.3.2v-.9h2 4.5c-.3 1.3-.6 2.5-1 3.6s-.9 2.1-1.4 3c.4.5 1 1 1.6 1.4s1.2.8 1.9 1.1c-.3.2-.5.4-.8.8-.4-.3-1-.7-1.6-1.2s-1.2-1.1-1.6-1.6c-.5.6-1.1 1.1-1.7 1.6s-1.4.9-2.1 1.4c-.1-.3-.3-.5-.7-.8.6-.2 1.2-.5 1.9-1s1.4-1.1 2-1.8c-.5-.8-.9-1.6-1.2-2.5s-.6-2-.8-3.2c-.4.1-.7.1-1 .1zm2.5 2.7c.3 1 .7 1.7 1 2.2.3-.5.6-1.1 1-2s.6-1.9.9-3h-3.2-.4c.1.9.3 1.8.7 2.8z" fill="#fbfcfa"/><path d="m396.5 388.5v1.5 3.6h1.5v.9c-.4 0-1 0-1.7 0h-7.9c-.5 0-.9 0-1.2 0v-.9h1.3v-3.5c0-.7 0-1.2 0-1.6h2.4c0-.8 0-1.4 0-1.7h1c0 .3-.1.8-.1 1.7h1.5c0-.8 0-1.4 0-1.7h1c0 .3-.1.9-.1 1.7zm-8.2 9.2c-.2-.3-.5-.5-.8-.8.8-.3 1.4-.6 1.9-.9s1-.7 1.4-1.1c.3.3.6.5.9.8-1.6 1-2.8 1.6-3.4 2zm2.6-6.8v-1.6h-1.5v1.6zm0 2.7v-1.9h-1.5v1.9zm2.4-2.7v-1.6h-1.5v1.6zm0 2.7v-1.9h-1.5v1.9zm.2 2 .7-.8c.4.2.9.5 1.6.8s1.3.7 1.8 1c-.3.3-.5.6-.8.8-.4-.3-1.5-1-3.3-1.8zm2-4.7v-1.6h-1.4v1.6zm0 2.7v-1.9h-1.4v1.9z" fill="#fbfcfa"/><g fill="#010100"><path d="m94.08 287.75c-.49 6.94 1.24 14.6-3.22 21.71-6.31-3.62-7.14-9.61-7.97-15.17-2.24-14.94-3.84-29.97-6.04-44.91-1.12-7.64-2.73-15.27-7.68-22.26-13.4 12.7-26.81 24.66-44.32 30.27-.48-.48-.96-.96-1.44-1.44 1.24-1.62 2.19-3.62 3.76-4.8 26.07-19.62 45.91-44.73 63.44-71.85 6.05-9.36 11.6-19.13 13.44-30.33.71-4.32 0-8.86.15-13.29.06-1.84.17-4.16 1.26-5.29.72-.74 3.59-.27 4.89.59 5.36 3.55 10.69 7.22 15.63 11.33 2.27 1.89 3.54 4.7.86 7.86-2.34 2.76.36 3.39 2.34 4.4 10.33 5.3 20.82 10.32 30.79 16.24 5.39 3.2 10.44 7.86 10.01 15.05-.18 2.96-1.65 7.16-3.85 8.32-2.2 1.17-7 .32-8.99-1.48-10.08-9.15-19.64-18.86-29.32-28.45-2.1-2.08-3.91-4.46-5.2-5.94-14.99 21.18-29.91 42.23-45.21 63.85 3.18.22 6.83 1.22 10.14.56 11.36-2.24 22.61-5.06 33.91-7.67.64-.15 1.4-.22 1.88-.6 8.99-7.12 17.87-2.87 26.56.5 4.14 1.6 7.99 4.07 11.75 6.48 5.14 3.29 5.83 6.46 1.42 10.37-9.57 8.48-14.37 19.78-19.71 30.84-1.32 2.73-1.35 4.45 1.36 6.7 2.61 2.17 4.15 5.62 6.16 8.5-3.38 1.39-6.66 3.54-10.17 4.04-15.38 2.22-30.85 3.94-46.63 5.87zm.19-9.94c11.04-2.96 21.89-5.82 32.69-8.84.83-.23 1.78-1.49 1.95-2.4 2.31-12.71 4.6-25.43 6.62-38.19.51-3.23-.78-5.53-4.93-4.53-4.02.96-8.14 1.54-12.22 2.28-9.6 1.74-19.2 3.47-28.59 5.17 1.49 15.43 2.92 30.24 4.48 46.51z"/><path d="m192.45 70.46c2.04 5.6 3.58 9.85 5.19 14.26 17.21-2.3 34.3-4.54 51.37-6.97.95-.13 2.29-1.77 2.37-2.79.17-2.1-.27-4.29-.68-6.4-1.45-7.52-3.74-9.61-11.46-10.72-6.24-.89-12.5-1.7-18.72-2.76-2.02-.35-3.93-1.39-5.89-2.11-.12-.56-.23-1.12-.35-1.68 2.33-1.1 4.55-2.78 6.99-3.21 24.18-4.31 48.36-8.68 72.64-12.39 6.42-.98 13.2-.04 19.76.64 2.3.24 4.4 2.34 6.59 3.59.04.64.09 1.27.13 1.91-3.63 1.71-7.09 4.12-10.91 5.02-14.51 3.44-29.13 6.39-42.67 9.3.93 5.65 2.03 12.29 3.26 19.68 6.08-.74 13.1-1.45 20.07-2.47 16.25-2.37 32.48-4.89 48.72-7.34.49-.07 1.04-.16 1.49-.02 11.74 3.74 23.59 7.25 32.79 16.15.48.46 1.08.92 1.3 1.5 1.17 3.01 3.79 6.71 2.87 8.91-.84 2.01-5.46 2.99-8.56 3.4-12.17 1.61-23.52 5.62-34.5 10.89-1.91.92-3.83 1.81-6.7 2.03.88-2 1.74-4.01 2.65-5.99 2.35-5.12 5.14-10.09 7-15.38 2.42-6.92-.04-10.57-7.4-10.2-12.6.63-25.17 1.92-37.72 3.3-8.21.9-16.36 2.46-24.66 3.74-.8 11.7-1.42 23.13-2.44 34.52-.44 4.92-1.54 9.81-2.72 14.63-.32 1.3-2.01 2.26-3.08 3.37-.95-1.08-2.5-2.03-2.76-3.26-1.35-6.32-2.79-12.66-3.42-19.07-.92-9.25-1.18-18.56-1.76-28.55-6.49.79-12.84 1.51-19.17 2.34-9.55 1.25-19.08 2.66-28.64 3.81-4.07.49-6.36 1.65-7.82 6.3-2.58 8.19-6.47 16.02-10.4 23.71-1.77 3.47-4.78 6.85-9.54 5.74-3.41-.8-6.02-8.17-4.39-12.72 1.62-4.52 3.89-8.8 5.92-13.17 4.33-9.31 8.69-18.61 13.06-27.9.36-.74.84-1.39 2.19-3.64z"/><path d="m243.6 295.45c-10.5 1.9-19.29 3.34-28.02 5.12-14.62 2.98-29.19 6.21-43.79 9.27-5.52 1.16-16.87-4.28-20.17-10.24 3.12-.91 5.96-2.18 8.91-2.53 26.7-3.17 53.42-6.22 80.14-9.18 2.71-.3 4.02-1.49 3.93-4.01-.1-2.63-.32-5.3-.94-7.85-1.04-4.3-.16-5.82 4.11-4.95 4.18.86 8.25 2.45 12.19 4.14.89.38 1.44 2.51 1.42 3.82-.02 1.39-.89 2.76-1.76 5.15 5.62-.57 10.62-.85 15.55-1.61 23.43-3.61 46.81-7.55 70.28-10.93 9.79-1.41 18.39 2 24.78 9.71 1.53 1.84 3.01 5.26 2.27 7-.69 1.61-4.37 2.67-6.75 2.7-19.98.28-39.97-.03-59.94.46-14.77.36-29.53 1.6-44.28 2.65-1.38.1-3.47 1.46-3.84 2.66-10.89 35.35-37.14 53.74-70.6 64.2-3.95 1.23-7.97 2.31-12.04 3.03-1.52.27-3.25-.71-4.89-1.11.83-1.51 1.34-3.38 2.56-4.44 1.43-1.25 3.43-1.92 5.27-2.63 22.28-8.65 42.2-20.56 55.47-41.22 3.61-5.65 6.3-11.88 10.14-19.21z"/><path d="m290.42 196.09c4.26 3.1 8.44 5.36 11.59 8.61 4.05 4.18 2.67 8-2.28 10.92-14.6 8.62-29 17.58-43.56 26.27-8.71 5.19-17.57 10.12-26.36 15.18-1.67.96-3.31 1.96-4.58 3.95 22.13-3.76 44.27-7.53 68.1-11.58-2.93-3.12-5.07-5.2-6.96-7.5-.75-.92-1.34-2.34-1.24-3.46.05-.59 1.87-1.61 2.7-1.44 10.37 2.09 21.28 3.3 27.49 13.62 1.13 1.87 1.77 4.35 1.74 6.54-.07 6.49-4.83 9.25-10.21 5.89-3.22-2.01-6.35-4.36-8.96-7.09-2.2-2.3-4.39-2.6-7.08-1.83-24.54 7.04-49.13 13.93-73.57 21.31-4.33 1.31-7.25-.06-8.97-2.93-1.84-3.05-2.33-6.98-2.97-10.61-.09-.51 2.3-1.51 3.58-2.21 16.73-9.1 33.47-18.18 50.21-27.27-.27-.67-.54-1.33-.8-2-4.03.75-8.06 1.47-12.08 2.26-4.07.8-8.2 1.41-12.16 2.59-6.97 2.09-13.95 4.28-20.71 6.96-3.94 1.56-6.27-.66-8.22-2.82-2.13-2.34-3.3-5.55-5.03-8.63 20.24-5.99 35.32-16.77 42.96-36.34 8.92.58 12.11 2.96 13.62 10.02-11.46 7.64-22.83 15.23-34.21 22.81.24.51.48 1.03.73 1.54 8.49-.76 16.98-1.49 25.47-2.31 4.62-.44 9.3-.7 13.82-1.67 3.23-.69 6.74-1.81 9.26-3.82 8.09-6.42 15.41-13.66 18.68-24.96z"/><path d="m347.17 352.57c.26 3.86-.67 8.12-4.7 9.27-2.83.81-6.79-.28-9.55-1.8-3.41-1.87-6.52-4.71-9.01-7.75-13.8-16.89-30.9-29.59-49.84-40.03-.73-.4-1.76-.59-2.14-1.2-.88-1.4-1.45-3-2.14-4.52 1.57-.4 3.4-1.53 4.66-1.08 8.28 2.97 16.53 6.06 24.61 9.52 13.9 5.95 27.67 12.2 39.46 21.95 6.42 5.31 8.7 9.46 8.65 15.64z"/><path d="m210.85 169.03c1.52-.78 2.98-1.68 4.56-2.32 11.54-4.69 23.09-9.33 34.64-13.97 7.45-2.99 13.46-7.86 18.33-14.16 1.76-2.28 3.62-3.09 6.34-1.55 4.48 2.53 9.14 4.75 13.53 7.42 1.19.72 2.53 2.84 2.24 3.89-.32 1.18-2.29 2.22-3.75 2.72-13.96 4.79-27.97 9.45-41.96 14.17-.44.15-.8.52-1.29.85 5.1 2.43 10.07 4.78 15.03 7.16 4.91 2.35 5.95 7.03 6.26 11.67.11 1.65-1.7 4.62-3.07 4.91-2.4.51-6.1.34-7.57-1.18-4.59-4.73-8.87-9.93-12.34-15.53-2.65-4.27-4.94-6.2-10.13-4.38-4.01 1.41-8.44 1.69-12.72 2.2-2.52.3-5.11.05-7.67.05-.14-.65-.28-1.3-.43-1.95z"/><path d="m45.6 154.09c.96-1.7 1.58-3.74 2.92-5.04 10.01-9.67 18.9-20.2 25.1-32.72 4.55-9.18 7.73-18.75 5.38-29.29-.65-2.89.45-4.41 3.67-4.23 7.76.43 13.75 4.63 19.26 9.44 1.06.92 1.11 4.37.26 5.88-12.79 22.62-28.17 42.87-51.78 55.39-1.13.6-2.37.98-3.56 1.46-.42-.3-.83-.6-1.25-.89z"/><path d="m161.41 118.91c-.82 1.38-1.59 4.38-3.14 4.87-2.37.75-6.06.75-7.85-.64-13.54-10.55-24.59-23.28-31.7-39.1-.41-.92-.57-2.71-.08-3.1.87-.67 2.58-1.12 3.53-.71 8.51 3.64 17.2 7 25.31 11.41 10.2 5.56 11.71 16.2 13.93 27.27z"/><path d="m316.34 152.47c6.46 3.79 12.9 7.14 18.86 11.2 4.39 3 3.82 5.18-1.08 7.03-14.87 5.63-29.73 11.28-44.61 16.86-1.3.49-2.77.53-4.17.78-.3-.36-.6-.72-.9-1.08.96-1.47 1.63-3.32 2.93-4.35 5.59-4.43 11.23-8.81 17.11-12.84 5.12-3.5 9.63-7.1 9.7-14.04.03-.95 1.13-1.9 2.16-3.56z"/><path d="m196.15 137.57c15.8-4.1 31.15-8.12 46.52-12 .98-.25 3.16.48 3.18.86.1 1.5.08 3.59-.84 4.45-2.03 1.91-4.62 3.22-6.99 4.76-6.55 4.25-13.13 8.46-19.65 12.76-5.47 3.61-11.06 3.06-15.45-1.83-2.33-2.6-4.43-5.4-6.58-8.15-.25-.33-.2-.91-.19-.85z"/><path d="m318.62 99.89c-1.4.58-2.8 1.16-4.2 1.75-9.58 4.05-19.13 8.16-28.76 12.09-.99.4-2.4-.25-3.62-.42.47-1.27.6-2.9 1.48-3.76 3.2-3.11 7.22-5.54 9.85-9.04 2.77-3.68 4.27-8.31 6.38-12.49.53-1.05 1.12-2.62 1.99-2.87 4.35-1.22 15.51 8.52 15.24 13.09.55.57 1.1 1.11 1.64 1.65z"/><path d="m284.24 123.17c6.43-4.01 29.28-2.15 33.63 2.2 2.59 2.58 3.48 8.75 1.49 11.61-2.69 3.87-6.2 2.41-9.32.86-6.96-3.47-13.81-7.15-20.63-10.86-1.7-.93-3.15-2.31-5.17-3.81z"/><path d="m215.02 198.75c-1.45 3.05-2.1 7.01-4.07 7.85-1.96.83-6.08-.71-7.81-2.56-5.66-6.06-10.76-12.65-15.83-19.22-1.28-1.66-.82-4.03 1.93-3.48 7.85 1.56 15.73 3.5 21.5 9.55 1.9 2.01 2.77 5.01 4.28 7.86z"/><path d="m211.08 104.61c.14-.29.23-.63.45-.85 4.71-4.74 9.91-2.35 14.88-.78 5.05 1.59 10.39 3.12 11.59 9.54.8 4.32-.6 5.92-4.98 5.64-5.21-.33-18.94-8.81-21.94-13.55z"/></g></svg>