<svg enable-background="new 0 0 400 400" viewBox="0 0 400 400" xmlns="http://www.w3.org/2000/svg"><path d="m377.9 391.2c-.2.3-.4.5-.6.8-.7-.6-1.4-1-2.2-1.5.2-.3.4-.5.5-.8.6.4 1.4.8 2.3 1.5zm-1.8 6.1c-.2-.2-.5-.4-.9-.6.4-.6.8-1.2 1.2-1.9s.7-1.3.9-1.9c.3.3.5.5.8.7-.7 1.3-1.4 2.6-2 3.7zm2.2-9c-.3.3-.5.5-.6.8-.6-.6-1.3-1.1-2-1.5.3-.3.5-.5.6-.7.6.5 1.3.9 2 1.4zm.3.2v-.9h2 4.5c-.3 1.3-.6 2.5-1 3.6s-.9 2.1-1.4 3c.4.5 1 1 1.6 1.4s1.2.8 1.9 1.1c-.3.2-.5.4-.8.8-.4-.3-1-.7-1.6-1.2s-1.2-1.1-1.6-1.6c-.5.6-1.1 1.1-1.7 1.6s-1.4.9-2.1 1.4c-.1-.3-.3-.5-.7-.8.6-.2 1.2-.5 1.9-1s1.4-1.1 2-1.8c-.5-.8-.9-1.6-1.2-2.5s-.6-2-.8-3.2c-.4.1-.7.1-1 .1zm2.5 2.7c.3 1 .7 1.7 1 2.2.3-.5.6-1.1 1-2s.6-1.9.9-3h-3.2-.4c.1.9.3 1.8.7 2.8z" fill="#fbfcfa"/><path d="m396.5 388.5v1.5 3.6h1.5v.9c-.4 0-1 0-1.7 0h-7.9c-.5 0-.9 0-1.2 0v-.9h1.3v-3.5c0-.7 0-1.2 0-1.6h2.4c0-.8 0-1.4 0-1.7h1c0 .3-.1.8-.1 1.7h1.5c0-.8 0-1.4 0-1.7h1c0 .3-.1.9-.1 1.7zm-8.2 9.2c-.2-.3-.5-.5-.8-.8.8-.3 1.4-.6 1.9-.9s1-.7 1.4-1.1c.3.3.6.5.9.8-1.6 1-2.8 1.6-3.4 2zm2.6-6.8v-1.6h-1.5v1.6zm0 2.7v-1.9h-1.5v1.9zm2.4-2.7v-1.6h-1.5v1.6zm0 2.7v-1.9h-1.5v1.9zm.2 2 .7-.8c.4.2.9.5 1.6.8s1.3.7 1.8 1c-.3.3-.5.6-.8.8-.4-.3-1.5-1-3.3-1.8zm2-4.7v-1.6h-1.4v1.6zm0 2.7v-1.9h-1.4v1.9z" fill="#fbfcfa"/><g fill="#010100"><path d="m232.71 137.93c-1.64-15.05-2.66-29.16-4.91-43.07-1.22-7.57-4.68-14.75-6.85-22.19-.93-3.2-2.65-7.44-1.37-9.73 2.12-3.8 6.54-1.05 10-.49.32.05.63.21.95.31 16.27 5.02 18.68 9.84 17.5 26.6-1.06 15.04-.22 30.21-.22 45.94 7.94-1.25 16.14-1.77 23.85-3.97 9.38-2.67 16.97.68 24.42 5.16 1.81 1.09 2.64 3.82 3.92 5.8-2.15 1.25-4.19 3.32-6.46 3.63-13.99 1.9-28.04 3.41-42.06 5.06-.63.07-1.25.26-2.36.49 4.61 33.65 11.16 66.61 24.59 99.02 9.39-20.37 15.69-40.3 12.56-62.02-1.63-11.34.11-13.31 10.84-9.61 4.49 1.55 8.92 3.76 12.73 6.56 1.73 1.28 3.14 5.11 2.52 7.12-4.09 13.31-8.4 26.59-13.37 39.6-4.37 11.46-9.76 22.52-14.53 33.83-.59 1.41-.8 3.81 0 4.83 6.41 8.25 12.7 16.65 19.84 24.24 5.35 5.69 9.18 4.56 11.13-3.09 2.38-9.3 3.7-18.87 5.5-28.33.87-4.6 1.78-9.19 2.67-13.78.8-.03 1.61-.06 2.41-.1.69 3 1.64 5.96 2.03 9 2.73 21.41 5.08 42.87 8.11 64.23 1.4 9.86-1.62 13.15-11.25 10.13-15.21-4.77-26.59-14.83-36.22-27.07-5.54-7.04-10.7-14.36-16.25-21.84-15.53 19.96-34.05 36.27-57.33 46.44-.54-.51-1.09-1.01-1.63-1.52 1.26-1.66 2.39-3.43 3.79-4.96 12.05-13.12 24.33-26.02 36.11-39.36 4.14-4.69 9.07-10.12 10-15.81.85-5.23-3.06-11.3-5.09-16.92-10.88-30.1-18.51-60.97-22.47-92.74-.24-1.94-.78-3.85-1.23-6-11.07 1.49-21.87 2.94-33.77 4.54-.55 39.71-1.12 80.14-1.68 120.58.51.22 1.03.45 1.54.67 2.99-1.9 6.09-3.66 8.94-5.74 7.93-5.79 15.72-11.76 23.63-17.56 2.01-1.47 4.23-2.94 6.47-.06 2.08 2.67 1.42 4.9-.81 7.02-.48.46-.95.93-1.41 1.42-10.36 11.06-20.73 22.1-31.04 33.2-1.69 1.82-3.22 3.83-4.6 5.9-2.81 4.22-6.31 6.99-11.66 5.55-6.25-1.68-9.52-5.88-9.18-12.48.48-9.45 1.48-18.87 2.2-28.3.3-3.98.55-7.96.63-11.95.3-14.64.86-29.29.67-43.93-.25-19.29-.98-38.58-1.85-57.86-.16-3.49-1.74-7.01-3.08-10.35-1.72-4.29-.9-6.25 3.57-6.03 3.4.17 7.02.7 10.05 2.12 3.74 1.76 7.19 2.59 11.34 1.89 9.28-1.57 18.63-2.69 28.17-4.02z"/><path d="m111.29 260.35c2.94 3.71 5.92 6.71 7.89 10.27 1.08 1.94 1.55 5.62.44 7.17-10.4 14.42-20.68 28.99-32.14 42.55-5.22 6.18-12.94 10.27-19.67 15.11-1.11.8-2.98.54-5.68.96 16.49-23.39 36.03-43.97 37.13-73.56-4.95-1.65-7-.35-8.45 3.61-.92 2.53-3.46 4.47-5.27 6.67-1.96-1.87-4.16-3.55-5.84-5.65-5.71-7.1-5.33-15.48-4.58-23.85 1.23-13.73 3.16-27.42 3.68-41.17.83-21.62 1.33-43.28.83-64.9-.37-16.21-.8-32.61-6.3-48.26-1.49-4.23.08-6.24 4.62-5.43 3.65.65 6.99 2.87 10.59 4.02 2.19.7 4.74 1.36 6.89.91 13.46-2.79 26.94-5.59 40.25-9 10.84-2.78 18.72 2.52 26.3 8.58 7.13 5.69 6.51 8.66 3.57 17.18-2.48 7.18-3.16 15.25-3.24 22.95-.35 35.32-.25 70.65-.22 105.97.01 12.16-2.48 23.73-7.49 34.79-2.73 6.03-5.09 6.41-9.79 1.57-.81-.84-1.74-1.61-2.35-2.59-6.15-9.88-15.2-10.87-25.45-8.51-1.72.38-3.55.38-5.72.61zm32.59-61.74c-16.41 2.09-32.43 4.13-49.12 6.25v44.48c5.68-1.01 11.35-2.31 17.08-2.97 7.98-.93 15.63-4.79 24.02-2.65.94.24 3.3-1.68 3.62-2.95 3.44-13.72 4.89-27.67 4.4-42.16zm1.46-62.66c-.43-9.78-.25-19.79-1.49-29.62-1.17-9.29-4.45-11.01-13.69-9.87-10.52 1.3-21.03 2.61-31.58 3.64-2.99.29-3.46 1.64-3.45 4.16.04 8.81-.09 17.63-.13 26.44-.02 3.92 0 7.84 0 12.21 16.94-2.34 33.13-4.58 50.34-6.96zm-.23 48.46c0-10.93 0-22.47 0-34.48-16.66 1.84-33.06 3.65-49.77 5.5v36.49c16.53-2.49 32.67-4.93 49.77-7.51z"/><path d="m167.36 319.72c-.34 2.28-.19 4.8-1.16 6.77-1.06 2.15-2.83 4.53-4.89 5.46-2.94 1.31-5.78-.03-7.53-3.07-6.79-11.76-13.66-23.47-20.41-35.26-1.31-2.29-2.45-4.74-3.17-7.26-.34-1.19.1-3.07.92-3.95.54-.58 2.65-.37 3.62.21 10.67 6.44 21.47 12.9 28.49 23.58 2.5 3.8 3.34 8.7 4.93 13.1-.27.13-.54.28-.8.42z"/><path d="m299.08 109.29c-.95 1.48-2.19 5.3-4.82 7.05-3.7 2.46-7.44.04-9.88-3.23-7.04-9.44-13.98-18.97-20.74-28.61-.99-1.4-.82-3.62-1.18-5.46 2.02-.06 4.29-.75 6-.06 6.89 2.78 13.66 5.9 20.39 9.07 8.14 3.83 9.35 11.44 10.23 21.24z"/></g></svg>