<svg enable-background="new 0 0 400 400" viewBox="0 0 400 400" xmlns="http://www.w3.org/2000/svg"><path d="m377.9 391.2c-.2.3-.4.5-.6.8-.7-.6-1.4-1-2.2-1.5.2-.3.4-.5.5-.8.6.4 1.4.8 2.3 1.5zm-1.8 6.1c-.2-.2-.5-.4-.9-.6.4-.6.8-1.2 1.2-1.9s.7-1.3.9-1.9c.3.3.5.5.8.7-.7 1.3-1.4 2.6-2 3.7zm2.2-9c-.3.3-.5.5-.6.8-.6-.6-1.3-1.1-2-1.5.3-.3.5-.5.6-.7.6.5 1.3.9 2 1.4zm.3.2v-.9h2 4.5c-.3 1.3-.6 2.5-1 3.6s-.9 2.1-1.4 3c.4.5 1 1 1.6 1.4s1.2.8 1.9 1.1c-.3.2-.5.4-.8.8-.4-.3-1-.7-1.6-1.2s-1.2-1.1-1.6-1.6c-.5.6-1.1 1.1-1.7 1.6s-1.4.9-2.1 1.4c-.1-.3-.3-.5-.7-.8.6-.2 1.2-.5 1.9-1s1.4-1.1 2-1.8c-.5-.8-.9-1.6-1.2-2.5s-.6-2-.8-3.2c-.4.1-.7.1-1 .1zm2.5 2.7c.3 1 .7 1.7 1 2.2.3-.5.6-1.1 1-2s.6-1.9.9-3h-3.2-.4c.1.9.3 1.8.7 2.8z" fill="#fbfcfa"/><path d="m396.5 388.5v1.5 3.6h1.5v.9c-.4 0-1 0-1.7 0h-7.9c-.5 0-.9 0-1.2 0v-.9h1.3v-3.5c0-.7 0-1.2 0-1.6h2.4c0-.8 0-1.4 0-1.7h1c0 .3-.1.8-.1 1.7h1.5c0-.8 0-1.4 0-1.7h1c0 .3-.1.9-.1 1.7zm-8.2 9.2c-.2-.3-.5-.5-.8-.8.8-.3 1.4-.6 1.9-.9s1-.7 1.4-1.1c.3.3.6.5.9.8-1.6 1-2.8 1.6-3.4 2zm2.6-6.8v-1.6h-1.5v1.6zm0 2.7v-1.9h-1.5v1.9zm2.4-2.7v-1.6h-1.5v1.6zm0 2.7v-1.9h-1.5v1.9zm.2 2 .7-.8c.4.2.9.5 1.6.8s1.3.7 1.8 1c-.3.3-.5.6-.8.8-.4-.3-1.5-1-3.3-1.8zm2-4.7v-1.6h-1.4v1.6zm0 2.7v-1.9h-1.4v1.9z" fill="#fbfcfa"/><g fill="#010100"><path d="m87.07 282.24c5.49-2.36 10.4-4.3 15.13-6.62.96-.47 1.73-2.35 1.73-3.58.08-31.66.19-63.33-.1-94.99-.05-5.37-1.94-10.72-2.9-16.1-.57-3.18-2.6-3.6-5.41-3.61-3.16-.02-3.39 1.8-3.62 4.13-.14 1.45-.76 2.84-1.21 4.43-5.08.1-8.63-2.15-9.65-6.89-1.67-7.76-2.73-15.64-4.04-23.48-2.13-12.75-4.24-25.51-6.42-38.25-.19-1.12-.97-2.12-1.29-3.23-.49-1.67-.83-3.39-1.23-5.09 1.88-.32 4.05-1.41 5.61-.85 13.34 4.87 25.8-.77 38.46-3.12 6.49-1.21 12.72-3.77 19.11-5.58 1.57-.45 3.64-1.08 4.86-.44 7.6 3.95 15.12 8.07 22.37 12.61 1.03.64 1.1 4.07.52 5.85-3.77 11.63-7.84 23.16-11.8 34.73-.43 1.25-.6 2.6-1.13 3.8-1.81 4.06-2 7.43 2.73 9.82 1.16.59 1.59 2.63 2.36 4-1.48.81-2.89 2.12-4.45 2.33-10.01 1.35-20.06 2.46-31.56 3.81 10.16 6.37 8.18 15.11 7.36 23.73-.73 7.59-.94 15.24-1.42 23.51 3.83-1.01 7.08-2.01 10.4-2.71 5.7-1.2 11.34-.95 16.25 2.49 1.71 1.2 3.97 3.7 3.67 5.13-.33 1.64-3.05 3.42-5.06 3.97-6.08 1.65-12.32 2.73-18.5 4.02-2.27.47-4.54.92-7.3 1.48-.72 16.58-1.44 33.14-2.19 50.52 8.5-3.58 16.54-6.96 24.57-10.35.61-.26 1.19-.7 1.82-.8 2.21-.34 4.43-.56 6.65-.83-1.24 2.19-1.97 5.04-3.8 6.46-11.19 8.65-22.56 17.07-34.02 25.37-11.18 8.1-22.58 15.9-33.77 23.99-3.65 2.64-7.37 3.84-11.61 2.16-5.09-2.01-10.14-4.16-15.12-6.45-1.3-.6-2.41-1.81-3.34-2.96-3.09-3.81-2.02-7.08 2.57-8.73 6.09-2.19 12.06-4.75 18.21-6.76 2.68-.88 3.23-2.29 3.08-4.75-.94-15.42-2.03-30.85-2.6-46.29-.41-11.11-2.91-21.64-6.57-32.06-.86-2.43-.67-6.3.78-8.11 1-1.25 5.26-.74 7.61.16 3.69 1.41 7.15 3.58 10.43 5.84 3.66 2.53 5.07 6.26 4.97 10.8-.46 20.48-.77 40.95-1.12 61.43-.05 1.79-.02 3.57-.02 6.06zm5.92-134.45c8.12-1.78 15.68-3.44 23.25-5.09 11.99-2.61 11.99-2.61 13.95-14.79.05-.33.21-.64.24-.97.72-7.26 1.8-14.51 2.06-21.78.26-7.33-1.98-9.59-9.08-9.06-11.03.81-22.01 2.23-33.46 3.44 1.02 16.22 2.02 32.05 3.04 48.25z"/><path d="m244.94 175.12c12.2-3.43 23.52-6.44 34.72-9.83 7.94-2.4 15.83-3.99 23.93-1.25 2.64.89 5.28 2.15 7.49 3.8 1.41 1.06 2.95 3.28 2.76 4.76-.17 1.31-2.49 2.9-4.14 3.37-12.45 3.54-25.02 6.64-37.44 10.27-9.22 2.69-18.35 4.46-28.29 1.1 0 23.2-.07 45.96.05 68.71.03 5.14.55 10.29 1.13 15.4 1.44 12.7 6.89 18.58 19.5 20.6 12.71 2.04 25.44 2.27 38.04-1.04 10.69-2.81 17.73-9.29 20.77-20.07 2.35-8.3 4.9-16.54 7.52-24.76.61-1.91 1.85-3.61 2.8-5.41.67.01 1.34.03 2.01.04 1.35 5.5 2.62 11.03 4.08 16.51 2.96 11.03 5.77 22.12 9.14 33.02 2.32 7.51 1.72 11.25-5.6 13.97-9.26 3.43-18.84 6.62-28.56 8.12-16.95 2.61-34.16 2.99-51.14-.15-22.12-4.09-34.73-17.81-35.69-40.32-.92-21.74-.56-43.54-.37-65.32.2-22.8.66-45.6 1.42-68.39.32-9.5.82-18.93-2.15-28.1-1.07-3.29-2.68-6.41-4.07-9.59-.93-2.13-2.53-4.2-2.66-6.37-.13-2.25.49-5.34 2-6.65 1.45-1.25 5.1-1.72 6.7-.75 7.09 4.29 13.97 8.98 20.54 14.03 3.7 2.84 3.88 7.03 3.12 11.77-2.5 15.71-4.46 31.5-6.49 47.28-.55 4.57-.68 9.2-1.12 15.25z"/><path d="m170.62 166.03c-10.68 9.93-15.69 23.31-28.23 28.8-.57-.44-1.13-.87-1.7-1.31 2.29-4.27 4.44-8.62 6.89-12.78 13.97-23.68 26.84-47.89 33.48-74.77 2.09-8.47 2.45-17.38 3.45-26.1.16-1.4-.42-2.93-.84-4.35-1.38-4.66-.29-6.25 4.62-5.79 8.99.86 16.41 5.19 22.71 11.39 2.99 2.94 2.55 6.51.61 10.1-10.42 19.32-20.76 38.69-31.14 58.04-.78 1.46-1.6 2.9-2.79 5.05 3.82 3.73 7.7 7.54 11.61 11.33 4.04 3.93 4.83 8.92 4.59 14.2-.14 3.15-.67 6.28-.67 9.43-.05 37.33.16 74.67-.2 112-.07 7.18-2.12 14.36-3.58 21.48-.41 2.01-1.77 3.94-3.06 5.63-2.9 3.79-5.44 3.89-8.51.23-7.57-9.05-8.4-19.81-6.61-30.75 3.24-19.76 4.63-39.6 4.37-59.6-.16-13 .58-26.04-.23-38.99-.66-10.8-3.01-21.47-4.77-33.24z"/></g></svg>