<svg enable-background="new 0 0 400 400" viewBox="0 0 400 400" xmlns="http://www.w3.org/2000/svg"><path d="m385.2 377.6.6-.6c.6.4 1.3.9 1.9 1.5l-.6.7c-.8-.6-1.4-1.1-1.9-1.6zm.3 7.1c.6-1.4 1.1-2.9 1.5-4.5.3.1.6.3.9.4-.5 1.4-1 2.9-1.5 4.4l-.9-.2zm.2-10.1.6-.6c.7.5 1.3 1.1 1.9 1.6l-.7.7c-.6-.6-1.2-1.2-1.8-1.7zm8.4-.8h.8v.9h1.8v.7h-1.8v1.8h-.8v-.3h-1.2v.9h3.3v2.6h-.8v-.4h-2.5c0 .3 0 .6-.1.8h3.4v.7h-3.5c0 .3-.1.6-.1.8h4v.7h-3.5c.7.9 1.9 1.3 3.6 1.5-.2.2-.4.5-.6.9-1.9-.3-3.2-1.1-3.8-2.3-.5 1.1-1.8 2-3.9 2.4-.2-.3-.4-.5-.6-.8 1.9-.4 3.1-.9 3.6-1.7h-3.2v-.7h3.5c.1-.2.1-.5.2-.8h-3.3v-.7h3.4c0-.2 0-.5 0-.8h-2.4v.3h-.8v-2.6h3.3v-.9h-1.2v.3h-.8v-1.8h-1.8v-.7h1.8v-.9h.8v.9h3.2zm-4.4 5.5h2.4c0-.3 0-.6 0-.9h-2.4zm1.2-3.1h3.2v-.8h-3.2zm4.4 2.2h-2.4v.9h2.5v-.9z" fill="#fcfafa"/><path d="m389.2 385.8h.9v1.5h1.8v-1.5h.9v1.5h2.7v6h1.1v.9h-11.3v-.9h1.1v-6h2.7v-1.5zm.2 8.7.5.8c-1.2.6-2.5 1.3-4 1.9-.2-.3-.3-.6-.6-.8 1.6-.6 3-1.3 4.1-1.9zm-2-4.3h1.9v-2.1h-1.9zm0 3.1h1.9v-2.2h-1.9zm2.7-3.1h1.9v-2.1h-1.9zm.1 3.1h1.9v-2.2h-1.9zm2.3 1.3c1.4.6 2.7 1.2 4.1 1.8l-.5.9c-1.5-.7-2.8-1.4-4.1-1.9zm2.2-6.5h-1.9v2.1h1.9zm-1.9 5.2h1.9v-2.2h-1.9z" fill="#fcfafa"/><g fill="#010101"><path d="m42.59 347.29c1.68-1.13 3.23-2.55 5.05-3.33 28.92-12.49 52.07-32.57 72.81-55.67 5.17-5.75 7.47-12.8 3.96-20.81-1.83-4.16.12-6.66 4.34-5.37 7.06 2.16 14.18 4.68 20.6 8.26 5.54 3.08 5.1 7.87.2 11.95-1.36 1.13-2.38 2.66-3.78 4.27 15.34 6.44 30.22 12.7 44.1 18.53 0-12.68.26-25.78-.1-38.87-.2-7.5-2.04-8.69-9.58-8.07-5.26.43-10.51.98-15.75 1.52-.6.06-1.22.35-1.73.69-5.24 3.56-6.41 3.52-10.19-1.62-2.15-2.92-3.88-6.18-5.53-9.42-2.33-4.59-3.91-9.64-6.71-13.9-3.93-5.98-8.69-11.42-13.56-17.69.88-.35 2.68-1.67 4.48-1.67 3.79-.01 8.17-.41 11.25 1.28 8.16 4.46 16.31 2.06 24.39 1.14 16.34-1.86 32.62-4.22 48.9-6.58 7.53-1.09 15.08-2.22 21.27-7.51 1.26-1.07 3.92-1.47 5.55-.96 7.39 2.28 14.18 5.76 19.38 11.74 3.58 4.13 2.88 6.44-1.57 9.65-5.45 3.94-10.45 8.5-15.62 12.77 1.54 2.09 2.38 3.11 3.09 4.22 3.38 5.29.62 10.93-5.65 11.38-13.76 1-27.52 1.91-41.28 2.86-.74.05-1.48.17-2.06.23 3.87 3.4 9.42 6.05 10.83 10.12 1.47 4.26-1.05 9.89-2.05 16.45 7.09-1.23 13.49-1.86 19.59-3.55 5.56-1.55 10.89-4.06 16.16-6.51 7.2-3.34 13.93-2.86 20.05 2.1 1.61 1.31 3.23 3.79 3.12 5.63-.08 1.3-2.91 2.95-4.8 3.54-17.67 5.54-35.41 10.72-54.08 4.29-1.5 7.59-2.91 14.71-4.48 22.69 11.18 3.91 22.5 8.08 33.96 11.85 36.64 12.04 74.44 15.06 112.73 14.09 3.66-.09 7.34-.22 10.99.02 2.13.14 4.21 1 6.31 1.54.07.55.15 1.11.22 1.66-2.19 1.29-4.23 3.18-6.6 3.77-19.66 4.84-39.23 10.27-59.14 13.81-14.38 2.56-28.65.01-42.18-6.64-38.79-19.06-77.81-37.64-116.66-56.57-3.18-1.55-4.8-1.08-7.12 1.36-17.05 17.91-34.88 35.06-57.66 45.48-8.6 3.93-18.3 5.51-27.58 7.85-2.25.57-4.81-.13-7.23-.24-.22-.61-.43-1.18-.64-1.76zm110.53-118.41c2.69 6.72 5.55 12.88 7.59 19.3 1.05 3.31 2.56 4.18 5.65 3.78 18.09-2.37 36.2-4.6 54.26-7.16 2.22-.32 5.38-1.93 6.06-3.72 2.27-5.95 3.9-12.2 5.17-18.46.58-2.86-1.61-4.54-4.68-4.41-1.66.07-3.33.12-4.98.36-22.77 3.38-45.55 6.79-69.07 10.31z"/><path d="m226.38 57.29c-8.18 7.3-16.51 14.45-24.52 21.93-20.13 18.79-42.66 33.87-68.08 44.55-3.33 1.4-6.81 2.87-11.16-.18 2.29-1.77 4.16-3.46 6.27-4.8 19.83-12.6 39.13-25.93 56-42.41 11.02-10.76 21.04-22.32 25.41-37.58.9-3.13 1.28-6.5 1.29-9.76.01-2.94 1.02-4.59 3.88-4.53 9.24.18 16.99 4.11 23.62 10.24.72.67.45 3.53-.38 4.56-2.87 3.6-6.18 6.84-9.76 10.67 9.42 5.57 18.44 11.18 27.72 16.32 30.93 17.16 63.27 30.78 98.07 38 4.06.84 8.24 1.25 12.16 2.5 1.87.6 3.26 2.7 4.87 4.11-1.59.87-3.13 2.37-4.79 2.52-18.01 1.59-36.11 4.27-54.07.65-6.12-1.23-12.26-4.38-17.43-8.01-20.96-14.72-41.54-29.98-62.27-45.02-2.67-1.94-5.42-3.76-8.14-5.63.44.62.88 1.24 1.31 1.87z"/><path d="m109.64 91.92c8.47 6.03 10.79 13.35 9.75 23.27-1.46 14.02-.6 28.26-1.43 42.37-.82 13.9-2.47 27.75-3.83 41.61-.14 1.47-.44 3.06-1.18 4.29-1.56 2.59-3.46 4.98-5.22 7.45-2.62-2.06-6.05-3.61-7.71-6.27-4.06-6.5-5.53-13.66-3.19-21.41 5.58-18.49 10.01-37.24 9.7-56.72-.14-8.75-1.21-17.44-5.5-25.81-5.63 4.67-10.62 9.62-16.37 13.4-15.12 9.93-30.51 19.45-45.96 28.87-1.93 1.18-4.83.78-7.29 1.11 1.36-2.15 2.26-4.91 4.15-6.36 24.78-18.9 49.26-38.12 68.2-63.29 8.09-10.76 14.26-22.4 15.16-36.25.26-4.01 4.35-6.86 8.5-4.85 6.62 3.21 13.01 7.23 18.72 11.88 3.58 2.91.36 6.36-2.03 8.96-6.62 7.16-13.37 14.21-19.96 21.4-4.83 5.24-9.48 10.65-14.51 16.35z"/><path d="m289.6 137.82c1.92 4.32 3.23 7.26 4.54 10.2-3.15 1.1-6.22 2.83-9.45 3.19-10.72 1.2-21.52 1.74-32.24 2.94-2.82.31-5.54 1.96-8.21 3.18-2.83 1.29-5.4.87-5.85-2.24-1.8-12.39-6.58-23.55-13.1-34.09-.14-.23-.02-.64-.02-1.91 3.6-.28 7.57-1.59 10.9-.63 7.29 2.09 14.21.82 21.09-.89 6.25-1.55 12.28-3.97 18.42-5.96.91-.3 1.96-.68 2.84-.5 9.81 1.99 19.38 4.61 27.41 11.28-5.85 5.52-11.64 10.99-16.33 15.43zm-44.36-11.65c1.6 7.47 3 14.04 4.65 21.78 7.7-1.93 15.33-3.77 22.89-5.85 1.01-.28 2.11-1.66 2.44-2.75 1.25-4.1 2.41-8.25 3.19-12.46.57-3.05-.55-5.34-4.29-4.81-9.59 1.33-19.17 2.71-28.88 4.09z"/><path d="m266.34 174.37c9.16 3.81 17.34 6.99 25.31 10.61 4.82 2.19 9.37 5.01 13.97 7.68 4.53 2.63 5.92 7.26 6.14 11.9.29 6.04-4.9 9.48-10.52 7.18-2.85-1.17-5.5-3.11-7.85-5.15-10.28-8.95-20.41-18.07-30.82-27.33-12.36 12.02-26.83 20.48-43.46 25.08-2.15.59-4.51.4-6.78.57-.14-.57-.28-1.15-.42-1.72 4.78-2.85 9.79-5.38 14.29-8.62 6.33-4.55 12.51-9.36 18.32-14.54 5.54-4.94 9.44-11.17 10.9-18.61.57-2.88 1.99-5.01 4.94-4.03 4.34 1.44 8.77 3.14 12.55 5.65 3.77 2.5 3.18 5.2-.75 7.44-.86.49-1.65 1.11-2.47 1.66-.96.64-1.92 1.28-3.35 2.23z"/><path d="m216.36 131.86c-2.7 3.54-5.45 7.01-8.06 10.59-2.16 2.96-4.16 5.92.95 8.25 1.18.54 1.87 2.17 3.55 4.22-4.46.79-8.04 1.52-11.64 2.05-10 1.47-20.02 2.8-30.01 4.33-1.25.19-2.3 1.42-3.53 1.96-2.38 1.03-4.78 2.3-7.27 2.59-.73.08-2.05-2.74-2.67-4.4-3.93-10.49-7.74-21.02-11.7-31.84.74-.1 2.39-.73 3.87-.44 13.43 2.59 26.01-1.23 38.49-5.16 9.25-2.93 20.85-.25 28.02 7.85zm-49.4 23.36c7.77-1.56 15.53-3.08 23.26-4.73.62-.13 1.5-1.1 1.51-1.69.06-4.26.28-8.58-.33-12.77-.2-1.35-2.93-3.53-4.19-3.33-7.91 1.24-15.74 3.04-23.16 4.56.99 6.14 1.88 11.65 2.91 17.96z"/><path d="m181.76 181.01c7.39 3.64 13.97 6.63 20.27 10.12 1.81 1 3.14 3.29 4.13 5.28 1.66 3.34 1.13 7.17-2.04 8.75-2.08 1.04-6.05.49-8.06-.93-6.35-4.5-12.18-9.75-18.21-14.7-.63-.52-1.33-.96-2.13-1.54-6.19 4.53-11.94 9.7-18.53 13.32-8.95 4.92-18.51 8.74-27.91 12.82-1.46.63-3.44.09-5.17.09-.14-.51-.28-1.02-.42-1.53 1.23-.91 2.41-1.91 3.7-2.73 13.34-8.48 26.7-17.06 37.1-29.13 3.65-4.23 5.94-9.82 8.07-15.1 1.09-2.7 2.48-3.68 4.69-2.8 4.42 1.77 8.8 3.78 12.91 6.18 2.87 1.68 2.52 3.82-.33 5.74-2.94 1.96-5.63 4.27-8.07 6.16z"/><path d="m182.41 103.33c3.3-4.26 7.62-3.86 11.55-4.75 13.1-2.96 26.09-6.42 39.24-9.1 6.12-1.25 12.5-1.4 18.77-1.52 2.51-.05 5.18 1.08 7.53 2.19 1.48.7 2.51 2.37 3.74 3.6-1.38 1.25-2.57 3.22-4.16 3.62-7.71 1.92-15.5 3.58-23.32 5.03-9.78 1.81-19.56 3.81-29.43 4.79-7.97.78-15.99-.27-23.92-3.86z"/></g></svg>