<svg enable-background="new 0 0 400 400" viewBox="0 0 400 400" xmlns="http://www.w3.org/2000/svg"><g fill="#010102"><path d="m128.27 253.64c-.43 20.63-.51 40.94-1.43 61.2-.41 8.88-2.39 17.72-4.03 26.51-.35 1.86-2.36 4.79-3.56 4.78-1.86-.03-4.66-1.78-5.36-3.49-2.1-5.15-3.92-10.55-4.86-16.02-1.81-10.57 1.75-20.72 3.22-31.05 1.83-12.76 2.89-25.64 4.46-40.12-12.9 3.37-24.27 6.06-35.47 9.36-9.21 2.72-18.06 6.78-27.35 9.13-9.84 2.49-18.86-1.36-27.19-6.46-1-.62-1.73-3.09-1.31-4.23.41-1.1 2.39-2.01 3.82-2.27 27.74-5.11 55.5-10.07 83.23-15.25 1.28-.24 3.17-2.12 3.21-3.29.29-7.64.15-15.29.15-24.01-8.31 1.98-16.1 3.8-23.85 5.76-.46.12-.56 1.34-1.01 1.91-1.04 1.35-2.07 3.5-3.33 3.66-1.32.18-3.32-1.26-4.28-2.55-5.5-7.3-6.39-16.24-8.41-24.77-2.37-10.01-4.25-20.17-7.35-29.95-2.13-6.71-5.93-12.89-9.1-19.25-1.15-2.31-2.63-4.46-4.82-8.1 7.19 0 13.03.03 18.87-.01 3.08-.02 6.29.36 9.23-.35 10.16-2.45 20.22-5.34 30.34-7.97 2.55-.66 3.92-1.67 3.8-4.72-.26-6.8-.08-13.62-.08-21.23-3.94.62-7.42 1.28-10.93 1.71-7.58.93-15.15 2.07-22.76 2.42-2.45.12-5-1.94-7.51-3 .06-.72.13-1.44.19-2.16 3.81-1.29 7.6-2.63 11.43-3.86 8.99-2.9 18.03-5.68 26.98-8.72 1.08-.37 2.52-2.03 2.46-3.02-.68-12.92-1.09-25.89-2.71-38.7-.6-4.76-4.27-9.1-6.37-13.72-.7-1.53-1.62-3.69-1.04-4.86.57-1.14 3.27-2.29 4.46-1.86 7.11 2.55 14.49 4.84 20.94 8.63 5.5 3.23 3.24 9.59 2.67 14.74-1.24 11.37-2.77 22.7-4.26 34.68 7.89-2.3 14.74-4.7 21.78-6.17 3.71-.78 7.96-.67 11.59.37 4.03 1.15 4.44 4.41 1.29 7.24-2.05 1.85-4.55 3.43-7.12 4.42-8.34 3.21-16.78 6.18-25.24 9.04-2.58.87-3.69 2.03-3.59 4.92.24 6.46.07 12.93.07 20.51 8.11-2.72 15.73-4.57 22.69-7.82 7.18-3.35 13.85-3.29 20.46.32 6.1 3.33 11.94 7.17 17.67 11.11.95.65 1.59 3.66.97 4.38-13.78 16.19-18.13 36.79-26.34 55.58-2.57 5.89-5.95 11.54-9.73 16.74-3.64 5.01-6.29 4.52-11.16.71-1.46-1.14-4.48-.82-6.66-.43-7.93 1.44-7.91 1.55-7.91 9.47v18.72c8.51-2.33 16.38-4.85 24.42-6.58 7.76-1.67 15.67-2.78 23.56-3.6 2.64-.28 5.7.58 8.1 1.83 1.9.99 3.08 3.38 4.58 5.14-1.93 1.37-3.68 3.5-5.81 3.97-7.61 1.67-15.37 2.66-23.02 4.14-10.38 2.02-20.75 4.24-31.69 6.49zm-12.68-68.25c-6.37-.52-12.18-.81-17.93-1.59-1.66-.23-3.12-1.89-4.67-2.9 1.48-1.11 2.8-2.68 4.47-3.24 5.02-1.69 10.22-2.84 15.25-4.53 1.24-.42 2.93-2.02 2.97-3.12.26-7.92.14-15.85.14-24.5-12.73 3.06-24.71 5.94-37 8.89 3.46 20.78 6.82 41 10.25 61.6 9.31-2.63 17.99-5.07 26.52-7.48 0-8.05 0-15.49 0-23.13zm12.6-18.53c4.8 0 8.81-.44 12.65.19 1.88.31 3.43 2.58 5.13 3.97-1.25 1.41-2.25 3.32-3.81 4.13-3.52 1.82-7.38 2.99-10.99 4.66-1.16.53-2.81 1.75-2.84 2.7-.23 7.62-.13 15.25-.13 24.07 3.87-1.32 6.85-2.65 9.97-3.31 3.08-.65 6.31-.62 10.31-.97-.51.75-.27.5-.15.2 8.23-19.67 11.76-40.44 14.14-61.45.5-4.44-2.95-6.87-7.67-5.64-8.01 2.09-15.98 4.36-23.91 6.75-1.08.33-2.55 1.79-2.58 2.77-.22 7.47-.12 14.94-.12 21.93z"/><path d="m160.45 326.8c10.79-9.7 22.61-18.49 32.07-29.35 9.52-10.93 17.66-23.38 24.59-36.14 6.93-12.75 11.62-26.72 17.28-40.16-.45-.5-.9-1.01-1.34-1.51-4.34 1.12-8.77 1.98-12.99 3.44-5.83 2.02-10.84.78-15.24-3.14-1.32-1.18-1.95-3.14-2.89-4.75 1.58-.76 3.1-1.93 4.76-2.21 12.43-2.11 25.03-3.4 37.29-6.22 12.38-2.85 25.34-5.46 36.35-11.34 10.84-5.79 18.88-2.54 27.57 2.28 2.73 1.51 4.82 4.51 6.66 7.19 1.7 2.48 1.4 4.62-.54 7.82-3.07 5.07-4.78 11.3-5.71 17.26-1.89 12.13-2.68 24.43-4.28 36.61-2.17 16.48-5.05 32.84-12.03 48.11-4.28 9.36-10.32 17.45-18.57 23.75-1.19.91-2.44 1.75-3.75 2.47-8.07 4.48-10.37 3.65-13.72-4.91-2.78-7.11-5.13-14.42-8.44-21.27-2.11-4.37-5.64-8.05-8.07-13.24 2.36.63 4.78 1.08 7.06 1.93 3.73 1.39 7.29 3.23 11.04 4.54 7.49 2.63 9.91 2.04 13.05-5.2 3.48-8.04 6.78-16.37 8.5-24.9 3.24-16.05 5.44-32.32 7.7-48.54.51-3.69-.2-7.63-.86-11.38-1.29-7.38-3.71-8.95-11.09-7.46-6.66 1.35-13.26 2.97-19.91 4.32-3.97.81-8.01 1.33-12.63 2.08 3.47 2.93 6.4 5.11 8.98 7.64 4.72 4.65 4.73 6.46.92 12-6.32 9.18-13.19 18.05-18.72 27.69-7.84 13.66-16.32 26.65-28.13 37.24-11.63 10.42-24.71 18.52-39.03 24.66-1.75.75-3.69 1.07-5.55 1.59-.12-.28-.23-.59-.33-.9z"/><path d="m226.64 51.08c10.05-1.26 19.24.14 26.31 8.64 15.49 18.61 28.18 39.09 40.73 59.73 13.73 22.57 30.76 42.31 53.73 56.07 6.8 4.08 14.35 6.9 21.43 10.53 3.83 1.96 7.51 4.26 11.04 6.71 1.05.73 2.26 2.92 1.88 3.65-.64 1.21-2.47 2.46-3.85 2.52-9.96.45-19.94.72-29.91.81-3.81.04-7.64-.45-11.44-.86-8.63-.94-15.6-5.09-20.15-12.33-10.26-16.31-20.38-32.72-30.03-49.4-12.75-22.03-24.49-44.69-40.53-64.61-3.81-4.73-8.85-8.46-13.27-12.71-2.42-2.32-4.72-4.77-7.07-7.17.38-.52.75-1.05 1.13-1.58z"/><path d="m245.98 141.44c-19.11 28.83-37.06 58.26-65.48 78.81-.59-.36-1.19-.73-1.78-1.09 1.1-2.41 1.95-4.97 3.33-7.2 8.66-13.96 17.82-27.63 26.05-41.83 7.37-12.73 12.41-26.44 12.47-41.48.01-3.28 1.59-3.95 4.47-3.45 6.93 1.21 14.93 7.31 20.94 16.24z"/></g><path d="m378.6 9.2.8-1c.9.7 1.9 1.4 2.9 2.3l-.9 1.1c-1.1-.9-2-1.7-2.8-2.4zm.5 10.7c.9-2.1 1.6-4.3 2.3-6.7.4.2.8.4 1.3.6-.7 3.1-1.5 4.3-2.2 6.6zm.4-15.2.9-.9c1 .8 2 1.6 2.8 2.4l-1 1c-1-.9-1.9-1.8-2.7-2.5zm12.5-1.3h1.2v1.4h2.7v1.1h-2.7v2.7h-1.2v-.5h-1.8v1.3h4.9v3.8h-1.2v-.5h-3.7c0 .4-.1.9-.1 1.2h5.1v1h-5.2c0 .5-.1.9-.3 1.2h6v1h-5.2c1.1 1.3 2.9 2 5.5 2.2-.4.4-.7.8-.9 1.3-2.9-.5-4.8-1.6-5.7-3.5h-.1c-.8 1.7-2.7 2.9-5.9 3.6-.2-.4-.6-.8-.9-1.1 2.8-.6 4.6-1.4 5.4-2.5h-4.8v-1h5.3c.1-.3.2-.7.2-1.2h-4.9v-1h5c0-.4 0-.8.1-1.2h-3.6v.5h-1.2v-3.8h4.9v-1.3h-1.8v.5h-1.1v-2.7h-2.6v-1.1h2.6v-1.4h1.2v1.4h4.7v-1.4zm-6.7 8.4h3.6c0-.4 0-.9 0-1.4h-3.6zm1.9-4.7h4.7v-1.2h-4.7zm6.7 3.3h-3.7v1.4h3.7z" fill="#fcfafa"/><path d="m384.7 21.4h1.3v2.2h2.8v-2.2h1.3v2.2h4.1v9.1h1.7v1.3h-16.9v-1.3h1.7v-9.1h4.1v-2.2zm.3 13.2.7 1.2c-1.8.9-3.8 1.9-6 2.9-.2-.4-.5-.8-.8-1.3 2.4-1 4.4-2 6.1-2.8zm-3.1-6.5h2.8v-3.2h-2.8zm0 4.6h2.8v-3.3h-2.8v3.2zm4.1-4.6h2.8v-3.2h-2.8zm0 4.6h2.8v-3.3h-2.8zm3.6 1.9c2.1.9 4.1 1.8 6.1 2.7l-.7 1.3c-2.2-1.1-4.2-2-6.1-2.9zm3.3-9.7h-2.8v3.2h2.8zm-2.8 7.8h2.8v-3.3h-2.8z" fill="#fcfafa"/></svg>