<svg enable-background="new 0 0 400 400" viewBox="0 0 400 400" xmlns="http://www.w3.org/2000/svg"><g fill="#010103"><path d="m65.86 301.08c-1.18 2.51-2.32 5.09-3.58 7.6-2.26 4.49-4.81 4.81-7.68.65-3.84-5.57-6.45-11.54-5.68-18.66 1.96-18 4.55-35.98 5.31-54.03.86-20.26.24-40.61-.26-60.9-.17-6.89-1.75-13.78-3.06-20.6-1.02-5.33 1.17-8.06 6.27-5.95 9.05 3.73 17.66-.61 26.47-.51.63.01 1.88-1.88 1.82-2.82-.74-10.92-1.63-21.84-2.59-32.75-.32-3.67-2.83-4.32-6.07-4.12-9.36.57-16.78-3.25-22.59-10.43-.6-.74-.96-1.67-1.8-3.16 1.62-.55 2.89-1.28 4.2-1.38 18.39-1.41 36.8-2.66 55.18-4.13 7.95-.64 15.88-1.57 23.79-2.59 9.33-1.2 17.53 1.04 24.22 7.72 3.34 3.33 2.68 5.57-2.03 6.28-8.21 1.24-16.48 2.13-24.75 2.82-3.81.32-6.05 1.33-6.53 5.63-1.22 10.84-2.83 21.64-4.42 33.46 4.84-.79 8.37-1.22 11.83-1.96 11.3-2.39 25.84 3.93 30.97 14.32 1.22 2.47 1.01 6.79-.39 9.18-2.82 4.81-4.13 9.65-4.14 15.11-.04 37.83-.13 75.65-.26 113.48-.03 9.67-3.64 18.15-9.33 25.8-3.32 4.46-6.63 4.49-9.76-.43-3.29-5.17-6.06-10.7-8.72-16.24-1.34-2.8-2.79-3.79-6.06-3.55-16.08 1.21-32.18 2.18-48.29 3-3.88.18-7.85-.53-12.07-.84zm1.73-12.39c14.94-1.28 29.15-2.74 43.39-3.61 8.9-.54 18.27-4.18 27.3 3.86 5.13-23.68 5.38-46.56 5.58-69.94-3.77 0-6.9.02-10.03 0-12.63-.09-18.17-3.39-21.35-15.61-2.31-8.88-2.69-18.3-3.43-27.52-.49-6.06-.09-12.19-.09-18.18-3.52.28-6.47.52-9.71.77-1.05 6.43-1.87 12.82-3.18 19.12-3.2 15.37-6.97 30.94-18.1 42.51-7.64 7.95-8.91 16.55-8.96 26.54-.08 13.74-.89 27.48-1.42 42.06zm75.16-84.21c0-13.43.25-26.54-.14-39.63-.13-4.48-3.21-7.74-8-8.19-3.72-.35-7.5-.07-12.64-.07 1.39 12.38 2.15 24.31 4.2 36.02 1.95 11.1 2.01 15.08 16.58 11.87zm-58.24-44.31c-2.63 0-5.28.21-7.89-.05-4.23-.41-5.31 1.39-5.31 5.45-.01 9.97-.56 19.94-.88 29.91-.12 3.83-.23 7.65-.28 11.48-.05 3.8-.01 7.6-.01 12.41 9.39-19.33 12.17-39.02 14.37-59.2zm25.6-15.05c0-13.11 0-25.91 0-39.31-4.69.47-8.51.86-11.84 1.19.87 2.77 2.19 5.12 2.25 7.5.23 10.66.1 21.33.1 32.12 2.87-.45 5.93-.94 9.49-1.5z"/><path d="m353.02 172.64c-4.16.63-8.29 1.57-12.47 1.82-12.07.72-24.15 1.33-36.24 1.63-5.76.14-10.49-2.32-14.13-7.07-15.25-19.96-30.62-39.82-45.95-59.73-1.08-1.41-2.14-2.84-3.19-4.24-7.15 13.12-13.9 26.04-21.15 38.67-11.71 20.4-24.49 40.07-41.59 56.51-2.69 2.59-6.08 4.46-9.15 6.66-.53-.51-1.07-1.01-1.6-1.52 1.69-3.26 3.12-6.69 5.11-9.76 17.81-27.54 34.25-55.78 45.55-86.76 4.94-13.55 7.15-27.59 8.28-41.85.14-1.74-.5-3.59-.99-5.33-1.13-4.06.06-6.33 4.08-5.55 5.26 1.02 10.26 3.36 15.35 5.22.91.33 1.72 1 2.51 1.61 7.75 5.9 12.17 7.64 4.89 18.9-2.16 3.34-3.99 6.93-5.53 10.59-.55 1.29-.42 3.82.46 4.62 16.49 14.99 32.16 31.14 50.08 44.22 13.49 9.85 29.91 15.7 45.01 23.34 3.64 1.84 7.23 3.77 10.84 5.65-.04.8-.11 1.59-.17 2.37z"/><path d="m284.74 274.87c3.12 2.67 6.19 5.41 9.38 8 9.67 7.87 19.43 15.63 29.05 23.55 5.34 4.4 5.3 6.57-.23 10.26-9 6-18.9 9.51-29.73 10.49-14.55 1.31-29.03.47-42.77-4.29-11.14-3.86-22.78-7.68-30.33-17.9-1.56-2.11-3.07-4.42-3.93-6.87-3.73-10.63-7.25-21.34-10.71-32.07-.34-1.06-.13-2.98.57-3.49.76-.56 2.89-.45 3.55.23 2.79 2.87 5.87 5.74 7.71 9.21 2.94 5.54 4.74 11.67 7.45 17.35 4.33 9.06 12.68 13.35 21.75 15.14 11.33 2.25 22.94 3.52 34.48 4.17 9.71.55 12.43-3.73 9.51-13.11-1.72-5.54-3.81-10.97-5.69-16.47-.4-1.17-.62-2.4-.93-3.6.28-.2.58-.4.87-.6z"/><path d="m246.52 238.59c2.97-10.81 5.95-21.63 9.34-33.96-7.04 1.17-12.35 2.05-17.66 2.92-9.17 1.5-18.32 3.14-27.51 4.43-6.25.88-11.62-1.79-14.17-7.04 5.44-.99 10.77-1.6 15.9-2.96 16.5-4.37 32.89-9.12 49.4-13.46 2.92-.77 6.6-1.23 9.19-.11 6.07 2.63 11.83 6.07 17.41 9.67 2.71 1.75 2.38 4.59-.07 6.79-11.24 10.1-22.47 20.22-33.81 30.21-2.01 1.77-4.5 2.98-6.77 4.45-.42-.31-.84-.62-1.25-.94z"/><path d="m294.87 247.86c11.57 2.72 23.23 5.15 34.65 8.38 2.61.74 5.1 3.92 6.46 6.58 2.39 4.68 4.01 9.78 5.7 14.79 1.13 3.36-.01 6.19-2.96 8.28-2.94 2.08-5.75 1.44-8.26-.6-7.49-6.08-14.88-12.28-22.31-18.44-3.72-3.08-7.69-5.91-11.04-9.34-1.92-1.97-2.84-4.92-4.21-7.43.66-.73 1.31-1.48 1.97-2.22z"/><path d="m192.23 277.68c-1.54 8.83-2.35 16.61-4.44 24.04-1 3.56-4.01 6.88-6.84 9.54-3.54 3.32-5.89 2.64-8.48-1.41-3.5-5.48-3.47-11.46-1.49-17.26 3.42-10.04 7.29-19.94 11.04-29.87 1.24-3.28 3.87-3.78 5.26-.6 2.26 5.17 3.49 10.79 4.95 15.56z"/><path d="m212.87 161.67c3.65-.68 7.33-1.24 10.95-2.06 7.25-1.64 14.45-3.47 21.69-5.13 7.94-1.81 15.14.02 21.5 4.94 3.46 2.67 3.29 5.68-.58 6.55-11.89 2.69-23.81 5.59-35.89 6.91-7.18.78-13.35-3.55-17.92-9.16.09-.69.17-1.37.25-2.05z"/><path d="m272.15 270.02c.11 7.76-5.5 10.85-11.33 7.04-6.1-3.98-11.8-8.59-17.54-13.1-3-2.35-5.82-4.96-8.49-7.67-.94-.96-2.02-3.06-1.6-3.79.7-1.19 2.69-2.52 3.95-2.35 8.64 1.15 17.83-.68 25.86 3.8 6.6 3.69 7.76 10.68 9.15 16.07z"/><path d="m99.11 259.07c-6.96-.08-13.19-2.4-18.13-7.59-1.02-1.07-1.31-2.84-1.94-4.29 1.34-.45 2.65-1.13 4.03-1.3 8.38-1 16.78-1.87 25.17-2.8 8.18-.92 15.98-.16 22.29 5.8 1.15 1.09 2.09 3.19 1.88 4.65-.13.92-2.52 1.98-3.99 2.17-9.71 1.23-19.43 2.25-29.31 3.36z"/></g><path d="m6.44 374.46.42-.45c.65.47 1.27.95 1.85 1.44l-.45.49c-.65-.56-1.25-1.06-1.82-1.48m.93 7.33-.63-.26c.55-1.36 1.05-2.8 1.53-4.33.19.1.38.19.59.27-.47 1.29-.96 2.73-1.49 4.32m-.38-10.38.44-.42c.43.34 1.01.82 1.74 1.44l-.49.49c-.53-.51-1.09-1.01-1.69-1.51m2.5.35h1.72v-1.04h.59v1.04h3.52v-1.04h.59v1.04h1.75v.53h-1.75v1.42h-2.03v.97h3.22v2.03h-3.24c0 .35-.01.66-.03.93h3.32v.53h-3.37c-.03.27-.08.58-.15.94h3.96v.53h-3.71c.67.92 1.93 1.48 3.79 1.68-.13.24-.23.44-.29.59-2.13-.38-3.48-1.08-4.04-2.12-.43.97-1.77 1.72-4.03 2.23-.09-.19-.2-.37-.33-.55 2.1-.42 3.37-1.03 3.81-1.83h-3.36v-.53h3.58c.08-.29.13-.61.16-.94h-3.33v-.53h3.39c.02-.27.04-.58.04-.93h-3.23v-2.03h3.25v-.97h-2.07v-1.42h-1.73zm1.12 3.44v1h2.65c.01-.3.02-.44.01-.4v-.25-.35zm1.19-2h3.52v-.91h-3.52zm4.71 2h-2.63v.59c0 .15-.01.28-.01.4h2.64z" fill="#fbfcfa"/><path d="m13.56 383.74h.63v1.52h2.72v6.07h1.13v.6h-11.06v-.6h1.13v-6.07h2.73v-1.52h.63v1.52h2.1v-1.52zm-2.69 8.83.38.56c-1.24.63-2.53 1.25-3.85 1.85-.1-.21-.21-.42-.34-.63 1.37-.55 2.63-1.15 3.81-1.78m-2.13-4.27h2.1v-2.45h-2.1zm0 3.04h2.1v-2.46h-2.1zm2.72-3.04h2.1v-2.45h-2.1zm0 3.04h2.1v-2.46h-2.1zm6.07 3.6c-1.41-.71-2.7-1.3-3.86-1.78l.35-.56c1.45.62 2.75 1.19 3.88 1.72zm-1.25-9.09h-2.1v2.45h2.1zm-2.09 5.49h2.1v-2.46h-2.1z" fill="#fbfcfa"/></svg>