<svg enable-background="new 0 0 400 400" viewBox="0 0 400 400" xmlns="http://www.w3.org/2000/svg"><path d="m377.9 391.2c-.2.3-.4.5-.6.8-.7-.6-1.4-1-2.2-1.5.2-.3.4-.5.5-.8.6.4 1.4.8 2.3 1.5zm-1.8 6.1c-.2-.2-.5-.4-.9-.6.4-.6.8-1.2 1.2-1.9s.7-1.3.9-1.9c.3.3.5.5.8.7-.7 1.3-1.4 2.6-2 3.7zm2.2-9c-.3.3-.5.5-.6.8-.6-.6-1.3-1.1-2-1.5.3-.3.5-.5.6-.7.6.5 1.3.9 2 1.4zm.3.2v-.9h2 4.5c-.3 1.3-.6 2.5-1 3.6s-.9 2.1-1.4 3c.4.5 1 1 1.6 1.4s1.2.8 1.9 1.1c-.3.2-.5.4-.8.8-.4-.3-1-.7-1.6-1.2s-1.2-1.1-1.6-1.6c-.5.6-1.1 1.1-1.7 1.6s-1.4.9-2.1 1.4c-.1-.3-.3-.5-.7-.8.6-.2 1.2-.5 1.9-1s1.4-1.1 2-1.8c-.5-.8-.9-1.6-1.2-2.5s-.6-2-.8-3.2c-.4.1-.7.1-1 .1zm2.5 2.7c.3 1 .7 1.7 1 2.2.3-.5.6-1.1 1-2s.6-1.9.9-3h-3.2-.4c.1.9.3 1.8.7 2.8z" fill="#fbfcfa"/><path d="m396.5 388.5v1.5 3.6h1.5v.9c-.4 0-1 0-1.7 0h-7.9c-.5 0-.9 0-1.2 0v-.9h1.3v-3.5c0-.7 0-1.2 0-1.6h2.4c0-.8 0-1.4 0-1.7h1c0 .3-.1.8-.1 1.7h1.5c0-.8 0-1.4 0-1.7h1c0 .3-.1.9-.1 1.7zm-8.2 9.2c-.2-.3-.5-.5-.8-.8.8-.3 1.4-.6 1.9-.9s1-.7 1.4-1.1c.3.3.6.5.9.8-1.6 1-2.8 1.6-3.4 2zm2.6-6.8v-1.6h-1.5v1.6zm0 2.7v-1.9h-1.5v1.9zm2.4-2.7v-1.6h-1.5v1.6zm0 2.7v-1.9h-1.5v1.9zm.2 2 .7-.8c.4.2.9.5 1.6.8s1.3.7 1.8 1c-.3.3-.5.6-.8.8-.4-.3-1.5-1-3.3-1.8zm2-4.7v-1.6h-1.4v1.6zm0 2.7v-1.9h-1.4v1.9z" fill="#fbfcfa"/><g fill="#010100"><path d="m302.43 133.36c-16.09 1.49-31.88 2.96-47.13 4.37-.69.96-.9 1.21-1.05 1.49-1.24 2.29-2.02 6.02-3.8 6.57-3.88 1.2-6.93-1.94-7.71-5.41-1.7-7.55-2.97-15.26-3.73-22.96-2.16-21.97-3.6-44.04-9.41-65.46-1.29-4.76 1.41-5.99 4.79-5.8 4.59.26 9.1 1.7 13.69 2.23 3.33.38 6.89.75 10.08-.01 12.58-3 25.03-6.53 37.57-9.7 8.63-2.19 27.49 6.75 31.48 14.87.48.97.5 2.61 0 3.54-5.3 9.79-6.95 20.53-7.01 31.32-.2 36.31-.1 72.63.3 108.93.24 21.45 1.27 42.89 1.91 64.33.57 18.95 1.85 37.92 1.42 56.84-.34 14.94-4.96 28.91-17.52 38.67-7.81 6.07-10.5 5.14-14.42-4.35-4.7-11.37-11.34-21.44-20.04-30.12-2.89-2.88-6.02-5.5-9.05-8.24.15-.5.3-.99.45-1.49 2.29.19 4.63.19 6.87.62 7.14 1.37 14.19 3.47 21.39 4.23 7.18.75 8.95-1.16 9.39-8.24.81-13.1 1.71-26.21 1.98-39.33.47-22.47.68-44.95.66-67.42-.02-21.8-.46-43.6-.73-65.41-.01-.95-.17-1.9-.38-4.07zm-47.99-35.64v29.07c16.27-1.73 32.15-3.43 48.43-5.16-.3-5.92-.71-12.04-.91-18.16-.39-11.8-.62-23.62-1-35.42-.3-9.21-5.2-14.77-13.81-14.09-10.38.82-20.69 2.78-30.98 4.49-1.19.2-2.98 1.94-3.02 3.01-.25 8.09-.14 16.18-.14 24.4 5.55-1.25 10.51-2.56 15.55-3.45 5.63-.99 11.37-1.27 16.26 2.44 4.28 3.24 3.94 5.66-.87 8.02-9.18 4.52-18.96 5.54-29.51 4.85z"/><path d="m100 182.66c0 24.13.89 48.31-.26 72.39-1.07 22.5-4.27 44.89-6.65 67.32-.24 2.27-1.1 4.53-2.02 6.65-2.31 5.36-7.31 6.17-10.13 1.07-3.08-5.55-4.92-11.83-6.95-17.91-1.9-5.69-.57-11.14.83-16.96 3.05-12.69 5.63-25.63 6.87-38.61 3.92-40.94 4.24-82.05 4.11-123.15-.07-23.27-.49-46.52-7.44-69.07-1.14-3.69.82-5.77 4.8-4.99 4.54.89 8.93 2.54 13.45 3.59 2.16.5 4.69 1.03 6.68.4 10.89-3.48 21.55-7.69 32.53-10.83 3.87-1.1 8.48-.32 12.62.4 7.8 1.36 14.41 5.14 18.91 11.84.97 1.45 1.62 3.76 1.22 5.38-4.03 16.23-8.53 32.34-12.42 48.6-1.85 7.72-2.59 15.71-4.02 23.54-.41 2.26-1.22 4.51-2.24 6.57-2.3 4.61-5.84 5.84-9.63 2.52-3.42-3-6.93-2.7-10.62-2.16-8.04 1.16-16.04 2.65-24.07 3.93-3.23.51-4.77 1.78-4.61 5.51.35 7.98.11 15.99.11 23.98-.36-.01-.72-.01-1.07-.01zm37.56-41.72c.35-.97.69-1.57.79-2.21 3.06-19.83 3.21-39.8 2.31-59.76-.34-7.5-5-11.35-12.3-10.67-8.56.81-17.05 2.47-25.51 4.03-1.1.2-2.69 2.04-2.72 3.16-.22 9.14-.12 18.29-.12 27.98 2.94-.83 5.43-1.57 7.95-2.24 5.85-1.56 11.82-2.82 17.54-.01 1.91.94 3.12 3.33 4.64 5.06-1.87 1.26-3.59 3.25-5.63 3.66-7.61 1.52-15.32 2.51-23.15 3.73v28.94c12.18-.4 23.61-9.54 36.2-1.67z"/><path d="m185.44 279.37c11.49-3.82 22.4-10.83 34.93-13.04.42.63.85 1.25 1.27 1.88-2.48 2.36-4.86 4.84-7.46 7.06-9.48 8.09-19.18 15.92-28.46 24.23-3.43 3.07-5.81 7.26-8.86 10.78-3.31 3.81-5.24 3.58-8.14-.66-5.01-7.32-5.15-14.31-.11-21.31 4.14-5.75 5.95-12.05 6.04-19.12.29-21.81.64-43.62 1.3-65.42.31-10.35-.76-20.22-6.05-29.34-.63-1.09-.82-2.44-1.68-5.12 5.71.37 10.52.89 15.33.97 16.62.26 32.35-2.5 45.5-13.83.91-.78 2.81-1.35 3.79-.94 6.87 2.9 13.84 5.7 20.35 9.3 6.02 3.32 7.17 6.08 2.92 11.13-7.61 9.05-8.03 20.11-11.05 30.51-2.17 7.46-4.69 14.87-7.7 22.03-2.21 5.28-4.24 5.4-9.37 2.78-1.63-.84-3.86-1.24-5.65-.92-11.27 2.05-22.5 4.3-33.7 6.68-1.21.26-3.06 1.79-3.07 2.76-.2 13.12-.13 26.24-.13 39.59zm43.95-57.55c1.23-14.63 2.76-28.29 3.4-41.99.41-8.71-3.1-11.47-11.29-9.4-10.61 2.68-21.05 6.02-31.53 9.2-1.08.33-2.68 1.48-2.72 2.3-.24 5.86-.13 11.74-.13 17.92 2.71-.64 4.63-1.15 6.57-1.53 7.81-1.51 15.6-3.2 23.47-4.31 1.83-.26 3.94 1.51 5.92 2.35-1.4 1.64-2.51 3.8-4.27 4.8-3 1.7-6.32 3.24-9.68 3.81-7.63 1.3-15.37 1.97-23.38 2.94v19.31c14.58-.07 27.33-10.18 43.64-5.4z"/><path d="m201.67 249.42c5.78.61 11.65.81 17.33 1.96 4.41.9 7.96.28 11.67-2.19 10.69-7.11 19.97-15.5 25.8-27.14 1.38-2.76 3.29-3.54 6.03-3.01 8 1.56 13.29 6.19 15.84 13.34-15.36 6.74-30.42 13.34-45.49 19.95.17.47.35.93.52 1.4 6.86 2.38 13.81 4.53 20.56 7.19 8.4 3.31 16.67 7.16 21.78 15.05 1.87 2.88 2.92 6.66 3.15 10.12.24 3.56-2.46 4.87-5.85 3.56-1.53-.59-2.94-1.54-4.31-2.46-20.27-13.71-41.32-25.93-64.54-34.07-1.03-.36-1.91-1.12-2.87-1.69.12-.67.25-1.34.38-2.01z"/><path d="m148.3 238.52c-.49 2.53-.9 5.08-1.5 7.59-4.51 18.79-9.01 37.59-13.68 56.34-.56 2.24-2.17 4.22-3.3 6.32-1.99-1.31-4.37-2.28-5.88-4-5.18-5.94-7.75-13.08-7.99-20.9-.06-1.94.72-4.66 2.11-5.77 10.7-8.5 16.62-20.47 23.6-31.68 1.72-2.77 3.37-5.57 5.06-8.36.52.14 1.05.3 1.58.46z"/><path d="m216.57 147.42c-.92 1.93-1.53 5.7-3.54 6.73-2 1.02-6.27.23-8.05-1.39-5.81-5.32-11.13-11.23-16.25-17.24-1.94-2.28.51-6.18 4.12-6.65 8.67-1.14 15.4 3.56 21.53 8.53 1.85 1.5 1.38 5.88 2.19 10.02z"/><path d="m114.03 199.06c7.95-1.13 15.59-.4 22.67 3.22 4.9 2.51 7.58 10.19 6.5 16.64-.67 4.01-3.64 6.28-6.57 3.91-7.9-6.38-15.15-13.59-22.55-20.57-.47-.46-.05-1.86-.05-3.2z"/><path d="m131.56 164.53c7.23-1.83 22.76 3.97 26.49 9.55 2.58 3.86 2.04 11.57-1.54 14.72-1.06.93-4.29 1.16-5.12.32-6.4-6.48-12.52-13.24-18.54-20.08-.92-1.06-.88-2.98-1.29-4.51z"/></g></svg>