<svg enable-background="new 0 0 400 400" viewBox="0 0 400 400" xmlns="http://www.w3.org/2000/svg"><g fill="#010100"><path d="m120.37 261.01c-9.25 1.27-18.32 2.31-27.31 3.79-10.38 1.72-20.3-2.44-25.27-12.09 17.81-2.11 35.12-4.16 52.82-6.25 0-7.83 0-15.75 0-24.55-6.86.4-13.88.8-19.78 1.14-2.14 2.44-3.63 4.14-5.12 5.84-2.03-1.94-5.25-3.56-5.86-5.88-1.84-7.02-2.35-14.38-3.97-21.47-2.32-10.12-5.18-20.12-7.77-30.19-.16-.61-.02-1.29-.02-3.35 13.56 3.89 26.91 2.96 41.36.07-1.36-7.39-2.77-15-4.18-22.62-.47 0-.94.01-1.42.01-.5 1.62-.81 3.32-1.54 4.83-.7 1.45-2.34 3.96-2.66 3.83-1.98-.83-4.82-1.93-5.31-3.57-1.62-5.36-2.87-10.94-3.3-16.51-.54-7.08-.13-14.24-.13-22.6-11.97 3.24-21.44 1.73-28.58-9.42 9.22-1.09 17.69-2.09 27.33-3.23-1.53-10.74-3.04-21.28-4.57-32.05 7.08-3.08 17.9 3.39 18.03 11.7.1 6.3.02 12.61.02 19.67 9-1.27 17.18-2.3 25.29-3.71.97-.17 2.31-2.4 2.26-3.62-.4-9.43-.94-18.85-1.78-28.25-.36-3.98 1.91-6.38 5.93-5.41 8.85 2.12 15.39 11.75 14.26 20.86-.55 4.39-.93 8.81-1.47 13.93 8.19-1.87 15.17-.65 21.49 3.69.82.56 1.87.97 2.41 1.73.89 1.27 2.35 3.22 1.93 4.06-.65 1.31-2.62 2.58-4.15 2.74-7.57.78-15.18 1.2-23.36 1.78-.99 9.42-2.06 18.46-2.78 27.53-.12 1.5 1.27 3.12 1.95 4.69.56 1.28 1.93 3.19 1.53 3.72-.86 1.1-2.62 1.97-4.07 2.05-5.65.34-11.32.3-16.98.49-.94.03-1.87.47-4.02 1.04 10.01 4.23 9.97 11.08 5.09 20.13 6.81-1.36 12.03-2.02 17-3.49 7.98-2.36 15.05-.95 21.65 3.83 1.88 1.36 3.83 2.65 5.69 4.04 5.08 3.8 4.74 5.17 1.88 10.71-4.11 7.93-7.32 16.34-10.68 24.64-.4.99.37 2.76 1.1 3.82.82 1.19 2.48 1.81 3.28 3 .83 1.24 1.63 2.98 1.38 4.29-.14.77-2.35 1.52-3.68 1.62-10.78.8-21.57 1.44-32.35 2.14-1.63.11-3.26.33-5.05.51v23.61c7.24-1.06 14.01-1.58 20.54-3.11 9.26-2.17 16.56 1.91 23.78 6.46 1.27.8 2.64 3.38 2.22 4.46-.55 1.43-2.74 2.93-4.38 3.12-12.54 1.46-25.12 2.61-37.69 3.85-1.29.13-2.58.18-4.08.28 0 11.78.02 23.23 0 34.67-.02 11.95.22 23.91-.27 35.84-.18 4.32-1.33 10.27-6.44 10.44-2.41.08-5.53-5.36-7.41-8.8-4.84-8.89-3.56-18.47-3.01-28.17.81-13.84.22-27.78.22-42.31zm16.51-52.94c6.84-.78 13.43-1.38 19.95-2.41 1.12-.18 2.71-2.11 2.81-3.34.63-7.6 1.09-15.22 1.08-22.84 0-1.36-2.43-3.84-3.78-3.87-6.54-.17-13.1.32-20.06.59zm-38.9-27.31c.53 10.96 1.03 21.34 1.56 32.12 7.16-1.01 14.1-1.99 20.44-2.89 0-10.87 0-21.17 0-31.6-7.74.84-14.61 1.58-22 2.37zm41.75-49.86c0-8.04 0-15.61 0-23.51-8.6.98-16.9 1.92-25.3 2.88v25.14c8.69-1.55 16.91-3.02 25.3-4.51z"/><path d="m264.55 312.05c1.47.36 2.96.68 4.42 1.1 5.57 1.63 11.07 3.5 16.7 4.88 6.04 1.48 9.44.33 11.66-5.47 4.31-11.25 9.02-22.6 11.23-34.34 2.86-15.29 3.58-30.99 4.95-46.54.63-7.18-2.87-9.89-10.05-9.06-19.64 2.28-39.29 4.37-58.94 6.53-4.95.54-9.91 1.06-14.87 1.57-1.32.14-2.93.74-3.93.22-6.19-3.21-9.47 1.36-13.55 4.48-4.62 3.52-9.53 6.69-14.49 9.71-2.01 1.22-4.5 1.64-6.77 2.42-.28-.37-.56-.75-.84-1.12 1.17-1.43 2.3-2.89 3.51-4.29 9.75-11.25 18.35-23.27 24.05-37.1 1.42-3.44 1.83-7.36 2.21-11.12.13-1.27-1.29-2.69-2.64-5.26-1.31 3.03-1.94 4.5-2.69 6.21-4.33 1.1-7.21-1.37-8.01-5.16-1.88-8.88-4.02-17.89-4.29-26.9-.5-17.03-2.1-33.82-6.27-50.33-.75-2.98-2.03-5.83-3.16-9.01 5.3-2.04 9.74.05 14.02 1.99 2.83 1.28 4.77 1.1 7-1.1 4.62-4.55 9.91-8.5 14.08-13.4 2.76-3.24 4.35-7.62 5.89-11.71 1.07-2.82 2.3-3.89 5.11-2.65 6.88 3.05 12.57 7.47 15.99 14.32 1.86 3.7.79 6.02-3.37 7.54-12.92 4.72-25.72 9.77-38.84 14.81.55 8.51 1.11 17.08 1.72 26.6 6.39-1.25 12.31-2.44 18.25-3.56 7.14-1.34 14.58 2.09 18.91 9.61-11.94 2.09-23.39 4.1-35.65 6.25.4 8.38.86 17.74 1.35 27.99 8.54-.52 16.95-.76 25.29-1.59 13.22-1.31 26.38-3.19 39.6-4.43 3.13-.29 6.41 1.03 10.33 1.74 4.7-8.83 4.37-18.95 5.51-28.93-10.15-1.03-20.31 4.36-29.5-1.96-2.61-1.79-4.67-4.39-6.98-6.62.2-.47.39-.95.59-1.42 12.41-1.19 24.82-2.38 37.82-3.62 1.43-7.79 1.67-16.29-.43-24.82-.84-3.42-2.73-5.03-6.46-4.54-5.59.73-11.24 1.75-16.83 1.53-3.68-.15-7.59-1.74-10.83-3.65-2.56-1.52-2.19-4 1.24-4.8 11.62-2.71 23.22-5.49 34.89-7.99 1.96-.42 4.57-.23 6.22.78 5.51 3.36 10.88 6.99 15.96 10.95 3.16 2.47 3.77 6.24.83 9.24-7.04 7.21-8.16 16.32-9.49 25.62-2.36 16.41-4.96 32.79-8.12 49.06-.74 3.81-3.33 8.82-6.46 10.24-4.33 1.97-7.29-3.16-10.42-6.08-1.4-1.3-3.56-2.71-5.28-2.6-17.75 1.14-35.47 2.58-53.2 3.97-.75.06-1.47.48-1.96.64 3.01 3.24 6.06 6.3 8.84 9.58 3.79 4.47 3.61 6.64-.71 10.54-2.08 1.87-4.36 3.51-6.55 5.26.34.59.67 1.18 1.01 1.77 7.51-.44 15.04-.59 22.51-1.39 16.01-1.73 31.99-3.79 47.97-5.78 1.96-.24 3.94-.69 5.8-1.35 10.46-3.68 19.59-1.12 25.77 8 1.16 1.72 1.07 5.38.02 7.32-6.48 12-6.45 25.26-8.16 38.21-1.88 14.3-3.28 28.72-6.28 42.79-2.76 12.9-9.44 24.15-20.2 32.36-5.53 4.22-6.96 3.54-11.73-1.3-6.53-6.61-13.56-12.72-20.33-19.1-1.42-1.34-2.63-2.91-3.93-4.37.34-.45.65-.91.96-1.37z"/><path d="m214.89 271.7c-1.11 4.75-2.52 11.34-4.26 17.83-.45 1.68-1.71 3.28-2.96 4.57-2.99 3.07-6.69 7.9-10.62 5.44-2.96-1.85-4.2-7.6-4.74-11.81-.39-2.98 1.33-6.43 2.69-9.41 3.37-7.4 7.01-14.68 10.71-21.92.73-1.44 2.24-2.48 3.39-3.7 1.29 1.36 3.35 2.55 3.72 4.13.98 4.15 1.24 8.48 2.07 14.87z"/><path d="m234.92 249.47c5.39 9.09 10.07 16.74 9.93 25.68-.06 3.91-2.93 8.26-5.62 11.5-2.65 3.2-7.55 1.63-8.72-3.13-1.31-5.35-1.29-11.08-1.45-16.65-.09-3.28.17-6.71 1.07-9.84.69-2.33 2.66-4.3 4.79-7.56z"/><path d="m254.95 259.04c0-2.5-.32-5.05.11-7.47.29-1.62 1.34-3.53 2.65-4.36.69-.44 3.16.77 3.99 1.87 2.99 3.96 5.72 8.13 8.36 12.33 2.89 4.6 1.94 9.22-.46 13.68-3.26 6.05-8.47 6.47-11.46.27-2.36-4.9-2.92-10.66-4.28-16.04.37-.1.73-.19 1.09-.28z"/><path d="m280.82 250.16c-.04-.67-.42-1.92-.11-2.97.49-1.65 1.09-3.64 2.33-4.55.74-.54 3.03.36 4.2 1.19 2.56 1.82 4.92 3.94 7.25 6.06 4.7 4.26 5.74 9.37 3.59 15.34-2.34 6.5-7.27 7.62-12.09 2.57-4.6-4.84-5.06-10.94-5.17-17.64z"/></g><path d="m378.6 9.2.8-1c.9.7 1.9 1.4 2.9 2.3l-.9 1.1c-1.1-.9-2-1.7-2.8-2.4zm.5 10.7c.9-2.1 1.6-4.3 2.3-6.7.4.2.8.4 1.3.6-.7 2.1-1.5 4.2-2.2 6.6zm.4-15.2.9-.9c1 .8 2 1.6 2.8 2.4l-1 1c-1-.9-1.9-1.8-2.7-2.5zm12.5-1.3h1.2v1.4h2.7v1.1h-2.7v2.7h-1.2v-.5h-1.8v1.3h4.9v3.8h-1.2v-.5h-3.7c0 .4-.1.9-.1 1.2h5.1v1h-5.2c0 .5-.1.9-.2 1.2h6v1h-5.2c1.1 1.3 2.9 2 5.5 2.2-.4.4-.7.8-.9 1.3-2.9-.5-4.8-1.6-5.7-3.5h-.1c-.8 1.7-2.7 2.9-5.9 3.6-.2-.4-.6-.8-.9-1.1 2.8-.6 4.6-1.4 5.4-2.5h-4.8v-1h5.3c.1-.3.2-.7.2-1.2h-4.9v-1h5c0-.4 0-.8.1-1.3h-3.6v.5h-1.2v-3.7h4.9v-1.3h-1.8v.5h-1.2v-2.7h-2.6v-1.1h2.6v-1.4h1.2v1.4h4.7v-1.4zm-6.7 8.4h3.6c0-.4 0-.9 0-1.4h-3.6zm1.9-4.7h4.7v-1.2h-4.7zm6.7 3.3h-3.7v1.4h3.7z" fill="#fbfcfa"/><path d="m384.7 21.4h1.3v2.2h2.8v-2.2h1.3v2.2h4.1v9.1h1.7v1.3h-16.9v-1.3h1.7v-9.1h4.1v-2.2zm.3 13.2.7 1.2c-1.8.9-3.8 1.9-6 2.9-.2-.4-.5-.8-.8-1.3 2.4-1 4.4-2 6.1-2.8zm-3.1-6.5h2.8v-3.2h-2.8zm0 4.6h2.8v-3.3h-2.8zm4.1-4.6h2.8v-3.2h-2.8zm0 4.6h2.8v-3.3h-2.8v3.2zm3.6 1.9c2.1.9 4.1 1.8 6.1 2.7l-.7 1.3c-2.2-1.1-4.2-2-6.1-2.9zm3.3-9.7h-2.8v3.2h2.8zm-2.8 7.8h2.8v-3.3h-2.8z" fill="#fbfcfa"/></svg>