<svg enable-background="new 0 0 400 400" viewBox="0 0 400 400" xmlns="http://www.w3.org/2000/svg"><g fill="#010100"><path d="m69.68 106.37c-.84-12.64-5.04-24.4-14.96-41.75 1.69-.56 3.53-1.89 4.74-1.45 5.74 2.08 11.65 4.09 16.78 7.27 2.46 1.53 4.23 5.46 4.76 8.57 1.29 7.48 1.67 15.13 2.46 23.15 10.45-2.28 20.8-4.49 31.1-6.89.94-.22 2.22-1.68 2.28-2.63.78-13.22 1.5-26.45 1.88-39.69.07-2.52-1.34-5.1-2.19-7.61-1.27-3.76.52-5.68 3.96-5.61 7.48.17 14.58 2.26 20.11 7.4 1.62 1.51 2.4 5.38 1.73 7.62-2.89 9.68-6.49 19.16-9.76 28.73-.68 1.98-1.06 4.06-1.71 6.63 4.13-1.31 7.5-3.05 10.96-3.29 3.8-.26 7.88.32 11.46 1.61 1.89.68 3.9 3.55 4.08 5.59.12 1.32-2.75 3.67-4.67 4.26-7.27 2.23-14.64 4.21-22.1 5.68-3.17.62-4.54 1.91-5.22 4.83-1.68 7.26-3.34 14.53-5.39 21.69-.84 2.92-.31 4.65 2.28 6.06.99.54 1.8 1.49 2.57 2.36 3.52 3.99 2.73 7.05-2.49 8.25-10.81 2.49-21.7 4.7-32.37 6.98 3.75 3.14 9.09 5.58 10.7 9.53 1.55 3.8-.75 9.18-1.57 15.44 7.73-3.28 14.63-5.88 21.24-9.11 5.58-2.72 18.44-1.59 23.08 2.64 2.85 2.59 2.59 5.37.88 8.53-3.96 7.31-7.68 14.75-11.67 22.04-1.33 2.43-1.46 4.26.15 6.76 2.82 4.37 1.92 6.25-3.13 7.19-10.09 1.88-20.21 3.54-30.41 5.31v26.78c6.65-2.03 13-4.29 19.52-5.86 8.64-2.09 17.38-3.9 26.16-5.29 2.59-.41 5.77.47 8.12 1.76 1.83 1.01 3.91 3.65 3.81 5.44-.1 1.71-2.66 4.27-4.54 4.7-7.58 1.73-15.33 2.73-23 4.09-9.94 1.76-19.86 3.6-30.17 5.48 0 4.85-.17 9.65.03 14.43.66 16.12 1.74 32.23 2.05 48.35.12 6.22-1.14 12.52-2.24 18.7-.33 1.86-2.27 3.44-3.47 5.14-1.62-1.3-3.66-2.32-4.79-3.96-5.12-7.44-6.57-15.8-5.63-24.69 1.52-14.36 3.11-28.71 4.37-43.09.33-3.75-.44-7.6-.76-12.19-4.17 1.5-8.23 2.66-12.04 4.39-8.01 3.64-15.96 7.41-23.79 11.42-10.63 5.45-24.7 2.02-31.46-7.91-2.19-3.23-1.02-5.53 2.96-6.21 19.79-3.42 39.54-7.03 59.35-10.27 4.49-.73 5.52-2.74 5.32-6.9-.32-6.79-.09-13.6-.09-20.65-7.05 1.59-13.64 3.07-19.51 4.4-1.75 2.86-3.31 5.4-4.86 7.94-1.9-2.36-4.49-4.44-5.55-7.12-2.57-6.46-4.33-13.24-6.6-19.83-2.6-7.52-5.5-14.94-8.04-22.47-.53-1.57-.08-3.48-.08-5.23 1.55.01 3.5-.58 4.57.14 8.27 5.58 16.76 3.18 25.33 1.22 4.67-1.07 9.42-1.8 14.96-2.83-1.32-6.92-2.56-13.65-3.95-20.35-.18-.85-.96-2-1.72-2.25-9.42-3.2-8.78-11.47-9.48-18.91-.7-7.42-.96-14.88-1.47-23.33-5.34 1.17-10.5 2.06-15.52 3.46-9.4 2.63-17.57.92-24.74-7.31 12.34-2.41 24.7-4.81 37.39-7.28zm16 38.05c7.12-1.35 13.61-2.51 20.06-3.88.89-.19 2.08-1.33 2.25-2.21 2-9.97 3.82-19.97 5.83-30.67-9.8 2.43-18.66 4.54-27.44 6.92-.95.26-2.13 2.13-2.09 3.22.3 8.63.86 17.23 1.39 26.62zm13.33 70.27c7.15-2.38 13.73-4.51 20.25-6.83.93-.33 2.05-1.52 2.19-2.45.98-6.32 1.89-12.67 2.46-19.04.29-3.31-1.72-5.03-5.06-4.19-5.94 1.5-11.85 3.14-17.7 4.96-.91.28-2.03 1.78-2.05 2.74-.16 7.97-.09 15.95-.09 24.81zm-30.8 7.07c6.4-1.36 12.26-2.5 18.03-3.94 1.05-.26 2.54-1.76 2.56-2.73.21-7.94.12-15.88.12-24.38-9.18 2.04-17.68 3.94-26.58 5.92 1.98 8.49 3.86 16.53 5.87 25.13z"/><path d="m285.1 241.85c-4-5.41-7.63-10.32-12.16-16.45 3.42 0 5.8-.64 7.62.11 8.43 3.46 16.78 7.12 25 11.04 8.97 4.28 11.81 12.73 13.12 21.62.33 2.25-1.47 6.46-3.16 6.99-2.72.85-6.75.3-9.17-1.28-4.41-2.88-8.21-6.77-11.93-10.57-2.1-2.14-4.09-2.96-7.01-2.28-11.23 2.61-22.49 5.09-34.44 7.78 1.88 2.34 2.97 3.79 4.16 5.15 2.79 3.2 4.04 6.67 2.98 11.01-2.98 12.19.81 24.15 1.75 36.16 1.26 16.1-.86 30.77-11.78 43.44-5.45 6.32-7.9 6.32-12.02-.78-5.67-9.78-13.12-17.99-22.15-24.78-1.38-1.04-2.61-2.27-4.8-4.19 5.9.56 10.48 1.21 15.08 1.37 3.61.12 7.29-.05 10.84-.66 4.56-.79 6.64-3.77 6.6-8.54-.13-13 .14-26-.15-38.99-.1-4.24-1.11-8.57-2.43-12.62-.45-1.4-3.25-3.14-4.7-2.93-12.59 1.86-25.39 3.04-36.07 11.43-2.1 1.65-6.16 2.07-8.92 1.4-8.04-1.95-13.41-7.62-17.74-13.3 8.76-3.93 17.44-6.41 24.45-11.27 13.64-9.46 26.35-20.26 39.42-30.54.75-.59 1.3-1.43 1.94-2.16-.12-.51-.24-1.02-.37-1.53-8.32 1.45-16.74 2.47-24.91 4.5-4.53 1.13-8.54 4.21-12.99 5.88-1.8.68-4.97.81-6.04-.27-3.13-3.15-5.79-6.88-8.13-10.69-2.19-3.57-.87-5.45 3.38-5.96 17.21-2.06 28.46-12.6 37.09-26.56 1.28-2.08 1.23-5.1 1.41-7.72.37-5.61 1.96-6.81 6.69-4.17 3.76 2.1 7.44 4.45 10.77 7.17 4.95 4.03 4.67 5.81-.51 9.38-9.17 6.32-18.3 12.7-27.43 19.09-.76.53-1.39 1.26-2.8 2.57 2.45 0 4.01.06 5.56-.01 5.15-.25 10.39-1.35 15.42-.69 19.32 2.52 27.3-12.62 37.97-23.65.32-.34.44-.89.61-1.36 2.53-7.04 3.6-7.71 10.14-3.68 4.47 2.76 8.36 6.52 12.26 10.12 2.22 2.04 1.81 3.38-1.32 4.99-7.31 3.76-14.46 7.93-21.22 12.6-19.57 13.52-38.92 27.35-58.33 41.1-2.2 1.56-4.21 3.38-6.31 5.08.21.35.42.71.63 1.06 24.61-4.46 49.22-8.91 74.1-13.41z"/><path d="m237.61 157.37c.92.22 2.08.17 2.74.72 1.06.9 2.4 2.15 2.47 3.32.06.9-1.52 2.52-2.61 2.77-6.42 1.46-12.9 2.7-19.38 3.86-16.85 3.02-32.93 7.99-46.92 18.32-.94.69-1.85 1.42-2.71 2.21-4.83 4.39-5.79 4.27-9-1.38-1.15-2.03-2.19-4.12-3.17-6.23-1.71-3.7-1.55-6.16 1.83-9.84 4.41-4.81 6.77-11.6 9.6-17.73 1.41-3.06 1.9-6.55 3.23-11.36-6.05 1.74-11.37 2.32-15.63 4.74-4.81 2.74-9.08 2.68-13.75.87-2.78-1.08-5.72-2.11-8.06-3.87-1.74-1.31-2.62-3.75-3.88-5.68 1.88-.75 3.71-1.96 5.64-2.18 12.16-1.34 24.35-2.45 36.11-3.6 1.36-8.22 3.13-15.2 3.45-22.24.18-3.99-2.01-8.09-3.2-12.38-6.6 4.5-12.35 8.41-18.09 12.33-.64-.58-1.28-1.16-1.92-1.74 1.11-2.08 1.99-4.34 3.37-6.23 8.15-11.1 17.01-21.73 24.38-33.32 3.69-5.8 4.82-13.27 6.83-20.07.46-1.56 0-3.55-.48-5.21-1.12-3.84.43-6.54 4.18-5.38 5.9 1.84 11.66 4.6 16.94 7.83 3.2 1.96 1.05 4.91-.9 7.19-4.06 4.74-8.04 9.54-11.65 14.79 10.65-1.03 20.17-4.66 29.21-9.5 8.41-4.5 16.93-4.3 25.54-1.19 1.65.59 2.84 2.46 4.24 3.73-1.43 1.18-2.67 2.96-4.31 3.45-19.06 5.74-38.03 11.97-58.31 11.73-1.11-.01-2.68.47-3.28 1.28-3.54 4.74-6.86 9.64-11.12 15.73 5.46.26 10.57 1.41 15.3.54 11.56-2.14 23.13-4.44 33.66-10.34 2.31-1.29 6.27-1.08 8.89-.06 4.09 1.58 7.73 4.38 11.48 6.78 3.38 2.17 3.73 5.32 1.16 8.03-5.14 5.4-6.55 12.11-7.7 18.16 4 .88 7.98 1.31 11.54 2.76 1.44.59 1.98 3.4 2.92 5.2-1.48.78-2.88 1.87-4.46 2.27-3.17.79-7.55.14-9.36 2.05-1.83 1.92-1.07 6.24-1.58 9.48-1.04 6.39-2.14 12.76-3.24 19.39zm-8.75-27.48c-12.08 2.52-23.52 5.16-35.06 7.21-6.88 1.23-10.64 4.27-11.45 11.63-.69 6.27-2.85 12.38-4.59 19.5 16.26-3.26 31.62-6.33 47.04-9.42 1.37-9.75 2.66-18.93 4.06-28.92zm.29-8.44c.3-6.7.7-12.81.81-18.92.12-6.77-2.27-8.85-9.24-7.61-10.39 1.84-20.71 4.01-30.06 5.84-1.23 9.21-2.43 18.23-3.72 27.9 13.97-2.38 27.65-4.72 42.21-7.21z"/><path d="m244.74 165.29c18.03-6.72 33.88-16.35 45.29-32.64-6.27-8.27-12.77-16.14-21.91-21.48-1.36-.79-1.99-2.83-2.95-4.3 1.69-1.05 3.35-2.93 5.09-3.01 6.55-.31 12.17.68 15.14 8.3 1.77 4.54 6.14 8.07 9.8 12.63 7.9-11.18 10.2-22.7 9.5-35.51-5.42 0-10.86.97-15.75-.26-5.15-1.3-7.87-.11-11.12 3.75-5.12 6.07-11.26 11.19-18.83 14.08-.53-.31-1.05-.62-1.58-.93 1.1-2.22 1.83-4.74 3.36-6.6 10.89-13.17 19.78-27.52 26.46-43.27 2.93-6.89 3.46-13.7 1.53-20.92-.53-1.99-.5-5.21.69-6.26 1.23-1.09 4.43-.84 6.33-.08 4.6 1.85 9.08 4.08 13.34 6.62 6.29 3.75 6.52 10.59 1.91 16.38-7.6 9.55-14.57 19.6-21.23 30.67 12.95-4.5 25.95-8.88 38.84-13.56 7.54-2.74 14.97-3.01 22.36.03 1.6.66 4.01 2.76 3.8 3.69-.39 1.69-2.2 3.84-3.86 4.34-9.82 2.99-19.77 5.56-29.68 8.27-1.11.3-2.21.63-3.26.92 0 .5-.12.87.02 1.08 4.09 6.23 4.93 12.46 1.5 19.51-4.11 8.47-7.46 17.31-11.43 26.67 8.02 7.17 18.13 13.36 29.29 17.14 13.31 4.5 27.09 7.62 40.65 11.39 1.64.45 3.18 1.24 6.11 2.41-2.9 1.59-4.45 2.78-6.19 3.35-14.22 4.66-28.88 6.1-43.77 5.5-5.28-.22-9.31-2.66-12.96-6.51-7.2-7.61-14.78-14.86-22.44-22.5-15.29 13.83-33.01 21.6-53.08 23.6-.32-.84-.65-1.67-.97-2.5z"/><path d="m286.56 278.56c4.47.77 9.05 1.15 13.39 2.39 10.02 2.86 20.21 5.44 29.8 9.43 11.96 4.98 17.26 18.57 17.07 30.35-.02 1.52-2.46 3.96-4.12 4.3-4.6.92-9.15.55-13-3.04-13.77-12.79-27.68-25.42-41.48-38.18-1.02-.95-1.61-2.36-2.41-3.56.26-.57.51-1.13.75-1.69z"/><path d="m192.4 297.69c-.75 12.39-5.16 21.78-11.01 30.57-2.29 3.44-4.91 6.69-7.57 9.87-2.35 2.81-4.7 2.59-6.93-.4-4.55-6.08-4.48-15.83-.37-21.97 6.07-9.09 11.71-18.48 17.59-27.69.74-1.16 1.9-2.07 2.86-3.09.88 1.09 2.12 2.04 2.56 3.29 1.27 3.54 2.21 7.19 2.87 9.42z"/><path d="m213.39 150.83c-.06.55.1 1.7-.35 2.5-1.29 2.3-2.82 4.46-4.26 6.68-1.76-1.84-3.89-3.45-5.2-5.57-2.25-3.65-4.14-7.54-5.87-11.47-.58-1.31-.74-3.33-.09-4.46.43-.74 2.71-.84 4.03-.57 5.69 1.15 11.77 7.76 11.74 12.89z"/><path d="m197.22 105.19c11.46-3.67 20.85 2.72 18.76 11.67-.46 1.98-2.18 4.3-3.93 5.11-1.05.48-3.81-1.28-4.94-2.72-3.42-4.36-6.41-9.05-9.89-14.06z"/></g><path d="m378.6 9.2.8-1c.9.7 1.9 1.4 2.9 2.3l-.9 1.1c-1.1-.9-2-1.7-2.8-2.4zm.5 10.7c.9-2.1 1.6-4.3 2.3-6.7.4.2.8.4 1.3.6-.7 2.1-1.5 4.2-2.2 6.6zm.4-15.2.9-.9c1 .8 2 1.6 2.8 2.4l-1 1c-1-.9-1.9-1.8-2.7-2.5zm12.5-1.3h1.2v1.4h2.7v1.1h-2.7v2.7h-1.2v-.5h-1.8v1.3h4.9v3.8h-1.2v-.5h-3.7c0 .4-.1.9-.1 1.2h5.1v1h-5.2c0 .5-.1.9-.2 1.2h6v1h-5.2c1.1 1.3 2.9 2 5.5 2.2-.4.4-.7.8-.9 1.3-2.9-.5-4.8-1.6-5.7-3.5h-.1c-.8 1.7-2.7 2.9-5.9 3.6-.2-.4-.6-.8-.9-1.1 2.8-.6 4.6-1.4 5.4-2.5h-4.8v-1h5.3c.1-.3.2-.7.2-1.2h-4.9v-1h5c0-.4 0-.8.1-1.3h-3.6v.5h-1.2v-3.7h4.9v-1.3h-1.8v.5h-1.2v-2.7h-2.6v-1.1h2.6v-1.4h1.2v1.4h4.7v-1.4zm-6.7 8.4h3.6c0-.4 0-.9 0-1.4h-3.6zm1.9-4.7h4.7v-1.2h-4.7zm6.7 3.3h-3.7v1.4h3.7z" fill="#fbfcfa"/><path d="m384.7 21.4h1.3v2.2h2.8v-2.2h1.3v2.2h4.1v9.1h1.7v1.3h-16.9v-1.3h1.7v-9.1h4.1v-2.2zm.3 13.2.7 1.2c-1.8.9-3.8 1.9-6 2.9-.2-.4-.5-.8-.8-1.3 2.4-1 4.4-2 6.1-2.8zm-3.1-6.5h2.8v-3.2h-2.8zm0 4.6h2.8v-3.3h-2.8zm4.1-4.6h2.8v-3.2h-2.8zm0 4.6h2.8v-3.3h-2.8v3.2zm3.6 1.9c2.1.9 4.1 1.8 6.1 2.7l-.7 1.3c-2.2-1.1-4.2-2-6.1-2.9zm3.3-9.7h-2.8v3.2h2.8zm-2.8 7.8h2.8v-3.3h-2.8z" fill="#fbfcfa"/></svg>