<svg enable-background="new 0 0 400 400" viewBox="0 0 400 400" xmlns="http://www.w3.org/2000/svg"><g fill="#010102"><path d="m152.14 80.92c-12.57 1.79-24.66 3.5-35.48 5.04 1.18 4.75 2.76 9.26 3.31 13.9.57 4.74.13 9.59.13 14.93 7.3-2.18 13.42.36 19.18 3.73 1.89 1.11 3.01 3.54 4.48 5.36-2 1.15-3.89 2.89-6.03 3.31-5.03 1-10.23 1.17-15.28 2.1-1.57.29-4.02 1.85-4.13 3.01-.74 7.9-.97 15.85-1.38 24.19 3.26-.27 5.9-.14 8.37-.75 7.59-1.87 13.51 2.2 19.54 5.47 1.47.8 2.67 3.49 2.58 5.23-.05.98-2.93 2.39-4.65 2.61-7.41.91-14.87 1.57-22.32 2.05-3.13.2-4.41 1.3-4.34 4.53.16 7.95.05 15.9.05 24.48 5.11-1.13 10.46-2.05 15.65-3.52 8.94-2.52 24.02 3.05 28.24 11.29 1.08 2.11 1.03 5.91-.19 7.89-5.93 9.62-6.59 20.36-7.83 31.09-2.14 18.61-4.04 37.27-7.13 55.73-1.82 10.9-7.48 20.2-17.86 25.73-5.53 2.95-7.58 2.16-10.98-3.05-4.35-6.66-9.21-13-13.92-19.43-1.73-2.36-3.64-4.58-4.89-7.93 1.32.2 2.68.26 3.96.62 4.95 1.38 9.83 3.02 14.82 4.26 6.87 1.7 8.49 1.37 10.77-5.14 3.1-8.85 6.06-17.97 7.33-27.21 2.3-16.76 3.52-33.69 4.78-50.58.55-7.37-1.63-9.73-9.21-9.63-6.92.09-13.99.8-20.7 2.44-13 3.16-25.84 7.03-38.67 10.87-6.15 1.84-12.89-3.06-12.61-10.12.19-4.76 1.74-9.46 2.22-14.23 1.15-11.56 2.46-23.13 2.88-34.72.5-13.47.17-26.98.11-40.47-.07-15.52-1.99-30.8-6.1-45.78-1.55-5.65-.36-7.01 5.37-6.34.66.08 1.4.08 1.94.38 13.02 7.36 26.48 2.72 39.73 1.28 9.72-1.06 19.32-3.11 29.01-4.5 7.23-1 16.78 4.6 19.25 11.88zm-76.07 94.98c0 5.6.38 11.69-.07 17.72-1.21 16.1 2.87 15.27 15.36 11.72 11.2-3.19 11.24-3.07 11.24-14.7 0-5.7 0-11.39 0-17.02-9.01.77-17.04 1.46-26.53 2.28zm3.19-85.4c-.69 10.46-1.39 20.98-2.15 32.3 9.2-1.62 17.44-3.07 25.8-4.54-.16-10.41 1.17-20.47-3.9-30.15-6.17.74-12.37 1.49-19.75 2.39zm-1.64 72.03c7.7-1.02 15.07-1.92 22.42-3.06 1.01-.16 2.61-1.44 2.63-2.24.19-8.23.12-16.47.12-24.71-8.7 1.23-16.68 2.35-25.16 3.55-.01 8.12-.01 16.69-.01 26.46z"/><path d="m348.17 261.96c.64 1.56 1.51 3.07 1.88 4.69 1.93 8.57 3.73 17.17 5.59 25.76.32 1.46.75 2.9 1.06 4.36 2.39 11.23-.45 17.02-11.05 21.06-13.22 5.04-27.04 6.39-41.1 5.65-5.31-.28-10.62-.59-15.92-1.01-20.43-1.64-40.66-19.11-40.69-47.53-.01-14.65-.07-29.31-.11-43.96-.01-1.98 0-3.96 0-6.22-6.41 1.7-12.38 3.53-18.47 4.83-5.93 1.26-15.3-5.52-16.1-11.52-.55-4.13 2.98-3.84 5.43-3.99 4.59-.27 9.28.4 13.81-.23 16.06-2.21 16.22-2.35 16.24-18.57.01-6.07-.96-12.15-1.62-18.22-.36-3.31.66-5.07 4.23-5.14 10.24-.22 18.09 9.29 15.72 18.99-1.17 4.79-2.03 9.66-3.2 15.32 4.57-1.07 8.53-1.9 12.43-2.93 3.84-1.01 7.62-2.24 11.95-3.52-1.73-15.22.19-30.73-6.97-45.01-1.77-3.53.29-6.77 4.35-7.06 6.89-.5 12.71 2.26 17.5 6.94 1.19 1.17 1.75 3.6 1.64 5.39-.69 11.57-1.64 23.12-2.62 36.33 9.66-3.5 18.21-5.75 25.9-9.68 5.29-2.7 9.56-3.57 14.18.04 3.9 3.05 7.78 6.2 11.16 9.78 2.82 2.98 1.74 6.14-.61 9.41-4.23 5.88-8.16 12-11.81 18.25-5.1 8.74-9.81 17.7-14.76 26.53-.63 1.12-1.54 2.28-2.62 2.9-1.14.66-2.64.71-3.98 1.02.03-1.24-.13-2.52.13-3.7 3.3-14.88 6.72-29.73 9.98-44.62.81-3.7-2.13-5.91-6.45-4.77-6.9 1.82-13.73 3.91-20.56 5.88-3.38 21.8 1.29 44.47-6.83 66.5-5.35-2.98-5.81-7.21-5.93-11.53-.4-14.64-.73-29.28-1.12-43.92-.05-1.97-.26-3.93-.44-6.53-8.34 2.48-16.23 4.74-24.05 7.25-.88.28-1.87 1.94-1.86 2.96.21 20.46-.66 41.03 1.37 61.32 1.05 10.48 8.94 18.84 20.52 21.46 13.69 3.1 27.46 3.27 40.95-.63 13.83-3.99 14.89-6.21 17.57-22.49 1.09-6.61 2.3-13.21 3.45-19.81.6 0 1.21-.01 1.83-.03z"/><path d="m191.3 178.27c5.24.58 9.3.93 13.32 1.51 8.11 1.17 12.35-2.2 10.43-10.13-2.83-11.7-6.72-23.18-10.85-34.49-2.03-5.57-2.85-10.64-1.06-16.38 2.42-7.76 4.35-15.68 6.33-23.57 1.76-7.02-.8-9.46-7.78-7.68-4.32 1.1-8.65 2.14-13.76 3.41-.28 10.77-.74 22.03-.82 33.29-.15 22.16.04 44.33-.13 66.49-.21 27.14-.49 54.28-1.04 81.41-.25 12.13-.8 24.29-2.09 36.34-.52 4.92-2.97 9.79-5.24 14.34-1.85 3.7-4.92 3.38-7.87-.4-5.84-7.47-7.86-15.92-6.65-25.33 2.02-15.64 4.8-31.26 5.51-46.97 1.64-36.4 3.04-72.85 2.94-109.27-.06-20.62-.18-41.65-7.93-61.51-.36-.93 1.92-4.15 2.94-4.13 3.01.04 6.62.34 8.89 2.03 6.14 4.57 12.36 4.11 18.85 1.76 5.15-1.86 10.37-3.71 15.21-6.23 4-2.09 7.63-2.25 11.28.01 3.93 2.44 7.87 4.96 11.39 7.93 2.99 2.53 3.29 5.75-.13 8.47-9.27 7.37-14.67 17.44-19.78 27.79-2.92 5.91-2.38 11.13 1.64 16.24 7.06 8.98 12.83 18.81 15.35 29.96 1.79 7.96 2.7 16.27 2.72 24.43.01 5.58-3.74 10.19-8.48 13.44-2.98 2.05-6.19 2.54-9.1-.16-7.68-7.11-15.27-14.3-24.09-22.6z"/><path d="m236.42 153.24c3.12-6.71 6.8-13.22 9.25-20.16 4.57-12.95 9.04-26.01 12.31-39.33 1.43-5.83.08-12.45-.61-18.65-.32-2.9.09-4.13 3.01-4.15 7.91-.07 14.55 3.24 20.32 8.23 2.54 2.2 2.78 5.11.92 8.55-5.36 9.91-10.24 20.08-15.58 30.67 14.52-1.22 28.26-3.58 41.64-7.99 9.16-3.02 18.34-6.47 28.11-2.45 3.38 1.39 8.33 1.62 8.16 6.65-.17 4.96-5.15 4.72-8.4 5.35-19.38 3.73-38.8 7.28-58.28 10.49-3.6.59-7.77.14-11.19-1.14-4.59-1.72-6.65-.25-9.15 3.46-4.07 6.05-8.79 11.68-13.47 17.29-1.5 1.79-3.75 2.95-5.66 4.4-.46-.41-.92-.81-1.38-1.22z"/><path d="m60.96 258.75c-1.35 7.28-2.3 13.81-3.89 20.18-.6 2.42-2.35 4.79-4.15 6.61-2.44 2.45-5.75 2.33-6.75-1.15-1.28-4.44-2.38-9.41-1.68-13.86 1.49-9.44 4.13-18.7 6.47-27.99.35-1.38 1.6-2.53 2.43-3.79 1.05.94 2.7 1.69 3.05 2.84 1.72 5.8 3.12 11.71 4.52 17.16z"/><path d="m71.02 259.52c.41-4.91.88-11.85 1.68-18.75.16-1.35 1.59-2.55 2.43-3.82 1.26 1.05 3.23 1.86 3.65 3.18 1.97 6.1 3.54 12.34 5.19 18.55.21.78.09 1.65.09 2.48-.01 6.79-3.5 12.29-7.71 12.2-3.72-.09-5.46-3.94-5.33-13.84z"/><path d="m130.36 247.72c-1.89 3.02-3.79 6.05-5.69 9.08-2.74-2.31-6.63-4.09-7.97-7.03-2.65-5.8-4.06-12.2-5.58-18.44-.34-1.42.98-3.24 1.53-4.87 1.38.52 3.11.67 4.07 1.61 3.29 3.25 6.6 6.56 9.34 10.26 1.78 2.39 2.59 5.51 4.3 9.39z"/><path d="m95.9 232.04c6.17 6.51 9.66 14.41 10.8 23.24.28 2.16-1.23 4.79-2.48 6.86-2.43 4.01-6.35 3.92-8.47-.3-1.22-2.43-1.65-5.33-2.05-8.07-.72-4.89-1.44-9.82-1.56-14.75-.06-2.35 1.24-4.73 1.93-7.1.6.04 1.21.08 1.83.12z"/></g><path d="m378.6 9.2.8-1c.9.7 1.9 1.4 2.9 2.3l-.9 1.1c-1.1-.9-2-1.7-2.8-2.4zm.5 10.7c.9-2.1 1.6-4.3 2.3-6.7.4.2.8.4 1.3.6-.7 3.1-1.5 4.3-2.2 6.6zm.4-15.2.9-.9c1 .8 2 1.6 2.8 2.4l-1 1c-1-.9-1.9-1.8-2.7-2.5zm12.5-1.3h1.2v1.4h2.7v1.1h-2.7v2.7h-1.2v-.5h-1.8v1.3h4.9v3.8h-1.2v-.5h-3.7c0 .4-.1.9-.1 1.2h5.1v1h-5.2c0 .5-.1.9-.3 1.2h6v1h-5.2c1.1 1.3 2.9 2 5.5 2.2-.4.4-.7.8-.9 1.3-2.9-.5-4.8-1.6-5.7-3.5h-.1c-.8 1.7-2.7 2.9-5.9 3.6-.2-.4-.6-.8-.9-1.1 2.8-.6 4.6-1.4 5.4-2.5h-4.8v-1h5.3c.1-.3.2-.7.2-1.2h-4.9v-1h5c0-.4 0-.8.1-1.2h-3.6v.5h-1.2v-3.8h4.9v-1.3h-1.8v.5h-1.1v-2.7h-2.6v-1.1h2.6v-1.4h1.2v1.4h4.7v-1.4zm-6.7 8.4h3.6c0-.4 0-.9 0-1.4h-3.6zm1.9-4.7h4.7v-1.2h-4.7zm6.7 3.3h-3.7v1.4h3.7z" fill="#fcfafa"/><path d="m384.7 21.4h1.3v2.2h2.8v-2.2h1.3v2.2h4.1v9.1h1.7v1.3h-16.9v-1.3h1.7v-9.1h4.1v-2.2zm.3 13.2.7 1.2c-1.8.9-3.8 1.9-6 2.9-.2-.4-.5-.8-.8-1.3 2.4-1 4.4-2 6.1-2.8zm-3.1-6.5h2.8v-3.2h-2.8zm0 4.6h2.8v-3.3h-2.8v3.2zm4.1-4.6h2.8v-3.2h-2.8zm0 4.6h2.8v-3.3h-2.8zm3.6 1.9c2.1.9 4.1 1.8 6.1 2.7l-.7 1.3c-2.2-1.1-4.2-2-6.1-2.9zm3.3-9.7h-2.8v3.2h2.8zm-2.8 7.8h2.8v-3.3h-2.8z" fill="#fcfafa"/></svg>