<svg enable-background="new 0 0 400 400" viewBox="0 0 400 400" xmlns="http://www.w3.org/2000/svg"><g fill="#010102"><path d="m129.42 89.14v30.63c4.9-.37 8.63-.73 12.36-.92 6.12-.3 10.88 2.66 14.99 6.76.93.93 1.16 2.57 1.71 3.88-1.33.53-2.61 1.35-3.98 1.55-8.53 1.24-17.07 2.33-26.15 3.55-.45 7.57-.9 15.12-1.4 23.55 3.28-.3 6.02-.37 8.69-.84 8.48-1.48 16.27-.46 22.54 6.04.93.97 1.91 2.75 1.61 3.78-.27.92-2.25 1.69-3.57 1.87-8.87 1.23-17.78 2.21-26.65 3.47-1.14.16-3.03 1.43-3.05 2.22-.23 8.25-.14 16.51-.14 25.29 6.39-1.22 13.13-2.12 19.65-3.84 6.62-1.75 12.43-.6 17.97 3.05.56.37 1.09.76 1.64 1.13 15.34 10.46 12.92 12.41 6.55 23.87-5.7 10.24-4.81 21.89-6.11 33.05-1.95 16.8-3.34 33.7-6.21 50.35-2.09 12.1-8.84 22.07-19 29.5-3.52 2.57-6.02 1.94-9.16-.76-10.3-8.89-20.85-17.5-31.28-26.23-1.39-1.17-2.68-2.46-4.01-3.7.24-.6.48-1.19.72-1.79 5.38.88 10.76 1.78 16.14 2.65 5.4.87 10.77 1.97 16.2 2.52 5.12.52 8.71-1.7 11.09-6.6 5.19-10.68 6.97-22.13 8.24-33.68 1.58-14.36 2.82-28.75 4.08-43.14 1.16-13.28-1.87-17.22-14.99-16.07-20.95 1.85-42.05 3.48-62.07 10.89-6.28 2.33-13.31-2.89-12.84-10.14.4-6.08 2.28-12.05 2.99-18.13 1.17-10.05 2.61-20.14 2.72-30.22.21-19.29-.05-38.61-.91-57.89-.36-8.04-2.57-16.02-4.27-23.96-1.26-5.86.11-7.36 5.92-6.35 5.47.95 9.82 4.98 16.02 4.28 19.3-2.18 38.69-3.62 58.02-5.54 7.49-.74 13.83 1.31 18.95 6.74.99 1.05 1.61 3.07 1.34 4.43-.15.77-2.42 1.46-3.79 1.61-10.57 1.15-21.14 2.18-30.56 3.14zm-46.44 36.32c10.42-.9 19.57-1.69 29.56-2.56-.63-9.85-1.11-18.92-1.84-27.97-.22-2.74-1.61-4.36-4.99-3.96-5.42.64-10.92.59-16.35 1.18-1.16.13-2.96 1.63-3.09 2.67-1.23 9.81-2.16 19.65-3.29 30.64zm28.71 75.39c0-9.02 0-17.27 0-25.91-9.86.18-19.73 3.89-29.36-3.1-.44 9.91-1.04 18.65-1.12 27.39-.04 3.96 3.67 6.77 8.16 6.08 7.5-1.16 14.9-2.95 22.32-4.46zm-28.17-66.21v28.61c9.5-.77 18.8-1.52 28.26-2.29 0-8.44 0-16.17 0-24.06-9.3 0-18.63 3.75-28.26-2.26z"/><path d="m255.71 293.98c9.53 7.54 9.63 8.28.77 16.28-10.63 9.6-21.41 19.08-34.61 25.08-6.42 2.92-13.04 5.58-21.91 4.55 17.63-12.3 33.67-24.49 41.99-44.3-4.2-.84-7.17-.96-9.14 3.24-1.62 3.46-4.06 1.92-5.81-.26-5.3-6.59-7.02-14.13-5.88-22.48 2.97-21.87 2.42-43.78.53-65.69-.19-2.26-1.17-4.47-1.9-6.67-1.32-3.93.45-6.07 4.53-5.37.32.06.67.14.94.32 10.59 7.02 21.95 2.53 32.89 1.77 9.88-.69 19.68-2.78 29.46-4.57 3.7-.68 7.23-2.3 10.85-3.43 4.14-1.29 7.87-.43 11.17 2.35 1.02.86 1.94 1.87 3.05 2.57 6.66 4.12 8.15 9.53 5.48 16.95-1.54 4.26-2 9.12-1.98 13.7.09 18.13.91 36.26.69 54.38-.07 5.38-2.43 10.82-4.22 16.07-1.05 3.08-3.5 3.19-5.94 1.1-.63-.54-1.49-.94-1.89-1.62-4.42-7.61-11.44-7.63-18.93-6.81-9.82 1.07-19.69 1.87-30.14 2.84zm-18.23-7.95c19.43-2.73 38.64-5.37 57.81-8.26 1.36-.21 3.24-2.16 3.5-3.55.81-4.45.98-9.01 1.39-13.57-20.54 1.91-40.06 3.67-59.56 5.64-1.13.11-2.94 1.81-3 2.86-.3 5.44-.14 10.9-.14 16.88zm63.2-60.77c-.38-5.15-.52-9.46-1.07-13.7-.52-3.97-3.3-5.61-7.1-5.45-5.64.24-11.29.43-16.9 1.02-12.02 1.27-24.02 2.77-36.65 4.26-.36 6.95-.71 13.59-1.08 20.66 6.52-1.36 11.99-2.73 17.53-3.62 14.71-2.4 29.07-9.14 45.27-3.17zm-62.33 15.25v18.36c10.09-2.25 19.75-4.58 29.5-6.52 10.61-2.1 21.18-6.03 32.4-1.36 0-5.88 0-11.25 0-16.97-20.79 2.18-41.21 4.32-61.9 6.49z"/><path d="m160.69 325.21c.88-2.1 1.54-4.33 2.67-6.27 17.12-29.38 26.67-61.32 32.71-94.58 4.55-25.04 5.5-50.22 4.71-75.52-.19-6.19-1.94-12.38-3.44-18.45-1.01-4.11-.38-5.64 3.99-5.66 2.28-.01 4.94.08 6.78 1.18 8.39 5.03 17.25 2.4 25.71 1.4 18.77-2.24 37.43-5.49 56.13-8.31 7.72-1.16 22.62 5.82 26.22 12.69.79 1.51.33 4.18-.43 5.93-3.49 8.03-7.42 15.87-10.85 23.93-.53 1.24.43 3.42 1.26 4.85.8 1.38 2.49 2.23 3.46 3.54.71.97 1.49 2.55 1.15 3.43-.33.86-2.02 1.58-3.17 1.67-17.06 1.41-34.12 2.68-51.18 4.06-11.09.89-22.18 1.92-33.27 2.84-1.63.14-3.28.02-5.28.02-.59 6.93-.99 13.84-1.8 20.7-3.97 33.59-12.03 66.03-29.46 95.38-5.13 8.65-12.17 16.18-18.57 24.04-1.53 1.88-4 3-6.04 4.47-.42-.45-.86-.89-1.3-1.34zm86.42-190.25c-9.17.87-17.37 1.64-26.56 2.51-.95 11.61-1.91 23.34-2.88 35.23 11.23-1.3 21.34-2.46 31.7-3.66-.75-11.35-1.49-22.39-2.26-34.08zm44.26 28.6c.53-8.68 1.28-17.08 1.38-25.49.02-1.84-2.22-5.29-3.49-5.32-9.47-.26-18.96.16-28.92.37 7.84 11.88-.26 23.21 2.13 34.11 9.34-1.19 18.53-2.36 28.9-3.67z"/><path d="m265.53 87.11c14.09-.91 27.84-1.75 41.58-2.69 6.62-.46 13.24-1.51 19.85-1.48 3.07.02 6.93 1.16 9.06 3.22 6.98 6.75 13.33 14.16 20.78 22.23-16.78 4.8-31.77 9.09-47.76 13.66.8-2.44 1.19-4.29 1.98-5.95 2.31-4.8 4.93-9.44 7.13-14.28 1.72-3.78-.56-7.21-4.7-6.95-17.91 1.13-35.84 2.09-53.7 3.79-18.17 1.72-36.25 4.31-54.39 6.31-3.39.37-6.88-.26-10.45-.44-1.9 7.52-3.67 15.25-5.86 22.85-1.1 3.8-2.76 7.48-4.6 11-1.73 3.31-4.1 4.01-7.05.86-6.72-7.17-7.79-17.41-2.99-25.89 4.42-7.8 8.42-15.82 8.65-25.15.03-1.4 1.08-3.23 2.24-3.96.66-.42 2.47.96 3.76 1.54.14.06.29.21.35.35 3.13 7.5 9.11 6.65 15.63 5.98 15.64-1.61 31.35-2.61 46.91-3.85-3.82-9.65-7.42-18.73-11.01-27.81-.36-.92-.92-1.87-.92-2.8 0-1.91.31-3.81.5-5.72 1.82.36 3.84.34 5.43 1.15 3.98 2.05 7.88 4.31 11.62 6.77 9.15 6.03 11.34 11.73 8.95 22.51-.34 1.4-.6 2.83-.99 4.75z"/><path d="m287.18 299.34c9.95 4.37 19.77 8.32 29.24 12.97 6.84 3.36 8.32 10.39 9.58 17.17.51 2.74 1.23 5.81.46 8.3-.78 2.53-2.89 5.47-5.17 6.44-1.63.69-5.1-.98-6.73-2.62-3.37-3.4-6-7.52-9.05-11.26-5.57-6.83-11.23-13.58-16.83-20.38-2.28-2.78-4.14-5.68-1.5-10.62z"/><path d="m68.46 257.1c-1.53 5.92-3.21 13.28-5.44 20.48-.69 2.23-2.55 4.38-4.4 5.91-1.93 1.59-5.26 3.9-6.63 3.21-2.25-1.14-4.65-4.38-4.76-6.83-.21-4.79.38-9.91 1.98-14.41 2.94-8.26 6.8-16.19 10.39-24.21.55-1.22 1.67-2.18 2.52-3.27 1.1.91 2.89 1.64 3.17 2.75 1.19 4.77 1.92 9.65 3.17 16.37z"/><path d="m94.41 263.12c-1.8 3.64-3.12 7.34-5.35 10.38-1.12 1.52-4.16 2.84-5.84 2.4-1.73-.46-3.82-3.06-4.07-4.94-.59-4.53-.42-9.2-.14-13.79.3-4.96.91-9.92 1.77-14.81.23-1.32 1.91-3.41 2.84-3.36 1.41.07 3.52 1.42 3.98 2.7 2.42 6.84 4.44 13.81 6.81 21.42z"/><path d="m101.79 243.3c1.41-3.06 2.82-6.12 4.22-9.17 2.12 2.23 4.77 4.16 6.24 6.76 2.43 4.28 4.88 8.84 5.83 13.58.71 3.52-.14 7.89-1.7 11.22-2.47 5.26-8.17 5.08-10-.43-1.95-5.87-2.34-12.26-3.36-18.44-.16-.97-.02-1.99-.02-2.99-.41-.18-.81-.36-1.21-.53z"/><path d="m124.67 237.44c0-1.49-.29-3.07.08-4.46.35-1.31 1.16-3.02 2.21-3.45.9-.37 2.83.49 3.63 1.39 3.29 3.72 6.5 7.53 9.39 11.56 2.7 3.77 3.11 8.19 1 12.29-1.18 2.31-3.37 5.45-5.34 5.63-2.1.19-5.62-2.17-6.52-4.28-2.05-4.79-2.92-10.09-4.16-15.21-.27-1.1-.04-2.32-.04-3.48-.08.01-.16.01-.25.01z"/></g><path d="m378.6 9.2.8-1c.9.7 1.9 1.4 2.9 2.3l-.9 1.1c-1.1-.9-2-1.7-2.8-2.4zm.5 10.7c.9-2.1 1.6-4.3 2.3-6.7.4.2.8.4 1.3.6-.7 3.1-1.5 4.3-2.2 6.6zm.4-15.2.9-.9c1 .8 2 1.6 2.8 2.4l-1 1c-1-.9-1.9-1.8-2.7-2.5zm12.5-1.3h1.2v1.4h2.7v1.1h-2.7v2.7h-1.2v-.5h-1.8v1.3h4.9v3.8h-1.2v-.5h-3.7c0 .4-.1.9-.1 1.2h5.1v1h-5.2c0 .5-.1.9-.3 1.2h6v1h-5.2c1.1 1.3 2.9 2 5.5 2.2-.4.4-.7.8-.9 1.3-2.9-.5-4.8-1.6-5.7-3.5h-.1c-.8 1.7-2.7 2.9-5.9 3.6-.2-.4-.6-.8-.9-1.1 2.8-.6 4.6-1.4 5.4-2.5h-4.8v-1h5.3c.1-.3.2-.7.2-1.2h-4.9v-1h5c0-.4 0-.8.1-1.2h-3.6v.5h-1.2v-3.8h4.9v-1.3h-1.8v.5h-1.1v-2.7h-2.6v-1.1h2.6v-1.4h1.2v1.4h4.7v-1.4zm-6.7 8.4h3.6c0-.4 0-.9 0-1.4h-3.6zm1.9-4.7h4.7v-1.2h-4.7zm6.7 3.3h-3.7v1.4h3.7z" fill="#fcfafa"/><path d="m384.7 21.4h1.3v2.2h2.8v-2.2h1.3v2.2h4.1v9.1h1.7v1.3h-16.9v-1.3h1.7v-9.1h4.1v-2.2zm.3 13.2.7 1.2c-1.8.9-3.8 1.9-6 2.9-.2-.4-.5-.8-.8-1.3 2.4-1 4.4-2 6.1-2.8zm-3.1-6.5h2.8v-3.2h-2.8zm0 4.6h2.8v-3.3h-2.8v3.2zm4.1-4.6h2.8v-3.2h-2.8zm0 4.6h2.8v-3.3h-2.8zm3.6 1.9c2.1.9 4.1 1.8 6.1 2.7l-.7 1.3c-2.2-1.1-4.2-2-6.1-2.9zm3.3-9.7h-2.8v3.2h2.8zm-2.8 7.8h2.8v-3.3h-2.8z" fill="#fcfafa"/></svg>