<svg enable-background="new 0 0 400 400" viewBox="0 0 400 400" xmlns="http://www.w3.org/2000/svg"><path d="m235.61 288.76c2.14.37 4.37.48 6.4 1.17 8.49 2.86 16.91 5.94 25.39 8.84 8.42 2.88 11.09 1.7 15.16-6.21 5.51-10.73 6.87-22.45 8.26-34.16 2-16.81 3.79-33.65 5.83-50.46 1.02-8.39-1.88-12.7-10.33-13.84-14.56-1.96-28.25 2.29-41.86 6.56-4.62 1.45-8.92 2.83-12.98-1.15-4.27-4.19-4.05-8.91-2.55-14.28 3.46-12.39 6.51-24.89 10.08-38.69-6.34.91-11.05 1.48-15.72 2.28-9.35 1.61-19.35-3.31-22.49-11.83 5.56-1.02 10.99-2.18 16.46-2.98 6.25-.9 12.56-1.34 18.8-2.31 1.38-.21 3.58-1.74 3.65-2.78.85-12.92 1.39-25.87 1.96-38.81.03-.78-.37-1.57-.63-2.63-10.66 1.48-19.22-1.65-25.97-11.95 4.88-.59 8.84-1.14 12.81-1.55 19.32-2.01 38.66-3.91 57.97-5.99 7.99-.86 15.75-1.03 21.89 5.26 1.26 1.29 1.8 3.28 2.67 4.95-1.59.63-3.13 1.63-4.77 1.83-14.65 1.78-29.32 3.43-42.99 5-.69 4.81-1.12 8.98-1.92 13.07-1.98 10.19-4.12 20.36-6.39 31.48 13.22-1.5 25.21-2.85 37.2-4.23 7.76-.89 15.49-2.28 23.27-2.63 10.16-.46 17.53 5.33 23.76 12.59 2.51 2.92.78 4.98-2.45 5.69-1.92.42-3.97.28-5.96.36-24.42.98-48.84 1.89-73.25 3.06-1.31.06-3.36 1.99-3.64 3.34-1.88 9.1-3.36 18.29-4.99 27.44-1.48 8.33 2.36 11.89 10.73 10 10.68-2.4 21.3-5.15 32.08-6.92 4.19-.69 9.32-.24 13.02 1.65 5.81 2.98 10.93 7.42 16.01 11.65 3.85 3.21 4.36 7.75 1.45 11.68-9.59 12.93-10.05 28.09-11.6 43.16-1.88 18.32-4 36.65-7.02 54.82-2.12 12.77-10 22.21-21.18 28.8-4.55 2.69-7.3 2.52-10.2-1.8-8.66-12.9-20.15-22.98-31.86-32.89-1.79-1.52-3.27-3.4-4.89-5.11.26-.48.53-.98.79-1.48z"/><path d="m75.66 335.43c.47-1.51.77-3.11 1.44-4.52 13.12-27.39 18.64-56.54 21.05-86.6 1.49-18.56.07-36.84-2.3-55.15-.33-2.54-1.67-4.99-2.76-7.38-1.7-3.75-.7-6.03 3.38-5.77 3.54.23 6.98 1.76 10.5 2.52 2.34.51 4.84 1.25 7.11.89 12.6-1.97 25.13-4.39 37.74-6.3 2.47-.38 5.61.06 7.68 1.35 5.05 3.14 10.11 6.55 14.21 10.78 1.79 1.84 2 6.07 1.58 9.03-.98 6.99-4.01 13.86-4.01 20.78-.04 30.96.03 61.95 1.44 92.87.59 12.94-3.02 23.4-10.43 33.25-3.63 4.83-6.44 5.4-10.57 1.06-9.6-10.1-18.86-20.51-28.89-31.49 2.48.25 4.51.22 6.42.69 4.83 1.19 9.58 2.69 14.4 3.89 5.86 1.46 8.8-.24 9.21-6.29 1.21-17.73 2-35.5 3.04-54.72-6.63 3.9-11.85 6.89-16.98 10.02-3.4 2.08-6.9 4.1-9.96 6.62-5.08 4.18-10.15 4.33-15.61 1.04-.95-.57-2.02-.96-3.5-1.65-5.23 25.1-13.59 48.27-32.29 66.1-.63-.36-1.27-.69-1.9-1.02zm36.94-76.28c13.82-4.43 27.49-8.78 41.12-13.29.91-.3 1.94-1.81 2-2.81.23-4.1.09-8.23.09-11.81-14.19-4.46-27.68-8.69-40.9-12.85-.76 13.5-1.51 26.72-2.31 40.76zm42.46-44.7c-.39-6.51-.66-13.97-1.33-21.4-.46-5.09-3.78-7.22-9.13-6.65-8.74.94-17.5 1.66-26.2 2.81-1.44.19-3.7 2.04-3.79 3.26-.41 5.54-.18 11.12-.18 15.71 13.69 2.11 26.86 4.14 40.63 6.27z"/><path d="m83.67 159.94c-.84 7.51-1.54 15.24-2.65 22.91-.49 3.4-1.52 6.79-2.83 9.97-1.73 4.18-3.88 4.49-7.14 1.52-7.84-7.13-9.65-14.89-6.1-24.55 2.9-7.89 6.64-15.67 4.26-24.57-.28-1.06.9-2.8 1.86-3.77.41-.41 2.5.01 2.99.67 5.76 7.78 13.63 5.57 22.02 4.32-.47-6.73-.88-13.78-1.47-20.82-1.17-13.9-2.32-27.81-3.76-41.68-.42-4.06-1.98-7.99-2.71-12.04-.38-2.08-.94-5.26.13-6.2 1.51-1.34 4.45-1.09 6.78-1.5.14-.02.33.09.45.2 7.8 6.88 16.59 3.75 25.01 2.12 11.39-2.2 22.59-5.36 33.98-7.49 3.85-.72 8.36-.39 12.01.98 5.52 2.07 10.63 5.34 15.76 8.35 2.99 1.75 3.97 4.86 2.32 7.79-5.25 9.29-5.72 19.67-7.14 29.8-1.56 11.14-2.63 22.34-3.99 34.18 19.82-3.24 25.29 12.41 34.66 24.1-13.61 3.43-26.12 6.59-39.27 9.91.37-1.5.57-3.04 1.13-4.43 1.29-3.23 2.85-6.37 4.14-9.6 2.05-5.13-.76-9.17-6.2-8.55-23.56 2.71-47.09 5.66-70.65 8.32-4.41.48-8.91.06-13.59.06zm76.17-64.7c0-.45.1-1.26-.02-2.03-.6-3.93-1.16-7.88-1.91-11.78-1.24-6.41-3.04-7.65-9.6-6.96-5.61.59-11.23 1.13-16.84 1.74-7.04.77-14.08 1.59-21.07 2.39v67.24c6.06-.74 11.76-1.43 17.83-2.17-.62-8.76-1.08-17.21-1.87-25.62-.47-5.08-1.49-10.12-2.16-15.19-.21-1.64-.6-4.48.02-4.77 1.75-.82 4.72-1.53 5.9-.61 4.27 3.31 8.5 1.65 12.8.9 5.52-.97 11.01-2.04 16.92-3.14zm-.03 46.27c0-11.51 0-22.71 0-34.2-6.08.8-12.26 1.6-18.91 2.47-.61 11.1-1.2 21.94-1.83 33.36 7.12-.56 13.37-1.05 20.74-1.63z"/><g fill="#fafafa"><path d="m374.8 390.4 1.4-.4c.7.5 1.3 1 1.8 1.4l-.5.5c-1.5-.6-2.1-1.1-2.7-1.5zm1 7.3-.6-.3c.5-1.4 1.1-2.8 1.5-4.3.2.1.4.2.6.3-.5 1.3-1 2.8-1.5 4.3zm-.4-10.3.4-.4c.4.3 1 .8 1.7 1.4l-.5.5c-.4-.5-1-1-1.6-1.5zm2.5.3h1.7v-1h.6v1h3.5v-1h.6v1h1.8v.5h-1.8v1.4h-2v1h3.2v2h-3.2v.9h3.3v.5h-3.4c0 .3-.1.6-.1.9h4v.5h-3.7c.7.9 1.9 1.5 3.8 1.7-.1.2-.2.4-.3.6-2.1-.4-3.5-1.1-4-2.1-.4 1-1.8 1.7-4 2.2-.1-.2-.2-.4-.3-.6 2.1-.4 3.4-1 3.8-1.8h-3.4v-.5h3.6c.1-.3.1-.6.2-.9h-3.3v-.5h3.4c0-.3 0-.6 0-.9h-3.2v-2h3.3v-1h-2.1v-1.4h-1.7v-.5zm1.1 3.5v1h2.7c0-.3 0-.4 0-.4 0-.1 0-.2 0-.2 0-.1 0-.2 0-.3h-2.7zm1.2-3v.9h3.5v-.9zm4.7 3h-2.6v.6.4h2.6z"/><path d="m393.6 386.7h.6v1.5h2.7v6.1h1.1v.6h-11v-.6h1.1v-6.1h2.7v-1.5h.6v1.5h2.1v-1.5zm-2.7 8.8.4.6c-1.2.6-2.5 1.3-3.8 1.9-.1-.2-.2-.4-.3-.6 1.2-.6 2.5-1.2 3.7-1.9zm-2.2-6.7v2.4h2.1v-2.4zm0 3v2.5h2.1v-2.5zm2.8-3v2.4h2.1v-2.4zm0 3v2.5h2.1v-2.5zm6 6.1c-1.4-.7-2.7-1.3-3.9-1.8l.2-.6c1.5.6 2.7 1.2 3.9 1.7zm-1.2-9.1h-2.1v2.4h2.1zm-2.1 3v2.5h2.1v-2.5z"/></g></svg>