<svg enable-background="new 0 0 400 400" viewBox="0 0 400 400" xmlns="http://www.w3.org/2000/svg"><path d="m152.14 144.88c10.01-2.87 18.28-.87 25.96 4.36 3.85 2.62 7.9 4.95 11.61 7.75 1.6 1.21 2.56 3.27 3.81 4.94-1.81 1.29-3.45 2.96-5.45 3.81-6.24 2.65-12.74 4.71-18.9 7.54-4.97 2.28-9.51 5.47-14.38 7.99-1.57.81-3.58.79-5.39 1.15.31-1.69.33-3.5.98-5.05 2.05-4.9 4.56-9.62 6.46-14.57 1.68-4.36.41-6.35-4.15-5.65-9.33 1.44-18.6 3.37-27.79 5.57-11.94 2.85-23.73 6.34-35.66 9.19-6.1 1.46-12.39 2.13-19.11 3.25-.95 4.73-1.63 10.01-3.14 15.06-1.56 5.22-3.69 10.3-5.99 15.25-1.57 3.37-4.14 3.39-6.77.75-6.45-6.48-7.54-17.45-2.66-24.99 4.73-7.3 8.88-14.83 8.47-24.03-.06-1.41 1.07-4.03 1.8-4.08 1.52-.12 3.15 1.11 4.73 1.79.14.06.28.21.34.36 3.34 7.59 9.09 7.88 16.44 4.58-.61-12.07-1.11-24.79-1.96-37.48-.52-7.78-.99-15.64-2.54-23.25-1.61-7.89-4.63-15.48-6.75-23.27-.6-2.21-1.05-5.19-.02-6.86.68-1.1 4.14-.67 6.34-.56 1.26.07 2.7.6 3.69 1.39 5.28 4.24 11.07 3.44 17 2.05 12.83-2.99 25.52-6.33 36.35-14.37 3.84-2.85 7.83-3.17 12.13-.92 5.45 2.85 11.06 5.39 16.49 8.28 5.23 2.78 6.41 6.09 3.33 11.05-10.88 17.48-12.2 37.29-14.36 56.92-.37 3.74-.56 7.51-.91 12.05zm-56.42 13.3c3.41-.44 6.69-1.12 9.99-1.23 3.57-.12 4.4-1.81 4.27-5.07-.5-12.97-.74-25.96-1.26-38.93-.1-2.61-1.07-5.17-1.5-7.78-.3-1.81-.38-3.65-.55-5.48 2.21.09 5.19-.7 6.49.43 4.72 4.11 9.2 2.27 13.83.45 4.02-1.58 8.07-3.09 11.94-4.98 1.18-.58 2.31-2.21 2.54-3.52.4-2.26.28-4.67.02-6.97-1.01-8.82-4.28-11.23-13.08-9.42-9.9 2.03-19.77 4.2-29.58 6.57-1.02.25-2.22 2.23-2.31 3.48-.45 6.14-.73 12.3-.76 18.45-.1 17.79-.04 35.58-.04 54zm24.29-4.96c5.98-1.47 10.89-2.68 15.76-3.87 1.57-14.63 3.1-28.9 4.74-44.18-5.56 1.81-10.28 3.26-14.92 4.92-.88.32-1.99 1.46-2.07 2.3-1.23 13.34-2.32 26.71-3.51 40.83z"/><path d="m103.23 313.24c3.5.61 5.73.77 7.82 1.4 5.55 1.68 10.98 3.75 16.55 5.31 5.11 1.44 6.9.25 8.29-4.94.51-1.91.97-3.91.98-5.88.05-14.32-.03-28.65-.07-42.97 0-.6-.12-1.2-.32-2.94-10.18 7.76-19.73 14.83-29 22.25-2.7 2.16-4.9 3.02-8.02 1.29-1.99-1.11-4.19-1.85-6.41-2.8-6.79 20.03-14.93 38.92-31.3 52.62-.68-.33-1.36-.66-2.05-.99.51-1.72.8-3.55 1.58-5.15 8.59-17.67 16.21-35.68 19.53-55.2 3.23-18.95 3.28-38.04 2.12-57.16-.5-8.24-.17-16.59-6.11-23.55-2.51-2.94-.2-5.35 2.81-5.48 3.2-.14 6.45 1.08 9.7 1.55 2.53.37 5.33 1.3 7.6.63 9.98-2.98 19.74-6.73 29.75-9.59 3.75-1.07 8.35-1.6 11.89-.39 5.39 1.84 10.21 5.38 15.26 8.23 3.7 2.09 4.65 5.63 3.02 9.01-6.42 13.28-4.63 27.33-4.36 41.22.21 10.46.87 20.92 1.53 31.36.88 13.93 1.64 27.87 3.02 41.75 1.41 14.08-3.85 25.67-12.14 36.35-2.18 2.81-4.98 2.61-7.5.72-2.24-1.68-4.2-3.78-6.12-5.84-8.72-9.37-17.38-18.78-26.06-28.19-.38-.42-.71-.94-1.99-2.62zm-3.3-92.21c12.4 4.17 24.19 8.13 36.17 12.16-.72-10.39-1.29-21.32-2.29-32.21-.54-5.9-2.93-7.34-8.86-5.9-6.89 1.67-13.76 3.44-20.52 5.53-1.31.41-2.81 2.41-3 3.84-.78 5.72-1.08 11.51-1.5 16.58zm-3.52 50.04c12.39-4.35 24.66-8.72 36.99-12.91 2.38-.81 3.55-1.76 3.5-4.46-.05-2.69-.38-4.46-3.34-5.67-6.13-2.51-12.07-5.51-17.98-8.51-5.1-2.59-10.06-5.46-15.08-8.21-1.38 13.38-2.71 26.33-4.09 39.76z"/><path d="m326.8 341.44c-6.63-8.44-9.44-17.74-9.34-28.86-7.11 1.23-13.93 2.12-20.62 3.61-26.21 5.84-52.41 11.73-78.54 17.94-5.43 1.29-10.59 3.83-15.73 6.13-3.96 1.78-7.02 1.35-9.56-2.29-3.71-5.33-5.43-10.37-2.2-17.1 2.51-5.22 3.58-11.5 3.83-17.37.96-22.93 1.53-45.89 1.83-68.84.1-7.44-.66-14.97-1.83-22.33-.62-3.9-2.57-7.75-4.62-11.21-2.03-3.41-3.48-6.84-1.21-10.19 2.26-3.33 6.15-2.56 9.08-.98 4.79 2.58 9.46 5.52 13.67 8.95 1.6 1.3 2.53 4.4 2.45 6.64-.85 22.08-2.1 44.14-2.98 66.22-.46 11.63-.46 23.29-.6 34.93-.08 6.15 2.76 8.13 8.74 7.32 14.14-1.9 28.3-3.87 42.51-5 18.72-1.48 37.51-2.1 56.26-3.37 1.49-.1 3.8-2.29 4.07-3.81 1.47-8.31 2.91-16.67 3.44-25.08.78-12.27 1.25-24.61.98-36.9-.25-11.43-1.37-22.86-2.65-34.23-.43-3.84-2.77-7.43-3.77-11.25-.53-2.02-.52-4.5.23-6.38.27-.67 3.8-.84 5.24-.09 7.18 3.75 14.27 7.7 21.15 11.97 3 1.86 4.34 4.94 2.8 8.69-6.17 15.06-7.31 30.86-7.5 46.93-.22 18.79-.83 37.59-2.04 56.34-.63 9.73-2.32 19.58-9.83 27.03-.87.92-1.98 1.6-3.26 2.58z"/><path d="m191.48 147.21c12.04-1.99 22.63-3.73 33.85-5.58-2.06-15.15-3.13-30.16-10.53-43.84-1.16-2.14-.79-5.11-1.12-7.7 2.67-.12 5.55-.97 7.96-.24 15.27 4.63 18.95 11.15 17.24 27.46-.75 7.21-.13 14.57-.13 22.56 9.33-1.63 18.43-3.11 27.44-4.96 1.09-.22 2.55-2.54 2.5-3.83-.6-14.62-1.4-29.23-2.28-43.83-.23-3.8-.54-7.69-1.52-11.34-1.18-4.37-3.19-8.51-4.72-12.8-.73-2.04-2.17-4.69-1.45-6.15.79-1.59 3.73-3 5.7-2.95 9.18.19 16.89 4.57 23.9 10 1.27.98 1.39 4.25 1.08 6.31-1.11 7.35-2.64 14.63-4.35 23.69 7.67-1.48 14.21-2.22 20.42-4.08 7.93-2.38 15.69-3.11 23.36.1 2.11.88 3.55 3.38 5.3 5.14-1.94 1.43-3.74 3.79-5.86 4.13-11.94 1.89-23.94 3.4-35.94 4.79-2.38.28-4.89-.52-7.84-.89-.85 9.39-1.69 18.71-2.61 28.97 8.03-1.3 15.47-2.45 22.89-3.74 5.89-1.02 11.72-2.36 17.61-3.31 11.52-1.84 20.28 3.84 28.1 11.17 3.14 2.95 1.97 5.69-2.36 6.75-2.4.59-4.92.84-7.39.92-13.81.4-27.63.43-41.43 1.09-27.6 1.31-54.78 5.85-81.73 11.71-8.05 1.75-15.51 1.25-21.95-4.39-1.29-1.11-2.17-2.67-4.14-5.16z"/><path d="m216.26 225.22c2-3.15 3.85-6.41 6.04-9.43 7.42-10.23 12.83-21.49 15.26-33.79 1.21-6.12.39-12.79-.35-19.11-.44-3.77.85-5.65 3.95-4.79 5.14 1.43 10.12 3.66 14.84 6.16.89.47.93 4.03.25 5.7-3.38 8.28-7.13 16.4-10.91 24.94 2.81 1.66 6.01 2.91 8.36 5.09 2.96 2.74 5.69 5.97 7.56 9.5.86 1.62.17 5.46-1.18 6.45-1.33.98-5.01.43-6.55-.82-4.48-3.63-8.4-7.94-12.74-12.17-6.92 8.57-12.59 18.53-22.92 23.63-.53-.45-1.07-.9-1.61-1.36z"/><path d="m293.05 190.08c5.3 3.14 10.45 6.11 15.53 9.2 4.36 2.65 5.26 7.1 5.28 11.65.01 1.55-1.1 3.84-2.35 4.45-1.17.57-3.67-.14-4.77-1.17-4.85-4.53-9.41-9.36-14.05-14.11-1.15-1.18-2.16-2.5-3.42-3.96-6.8 6.59-10.93 16.12-22.62 18.97 2.26-4.05 3.65-7.15 5.57-9.9 6.4-9.15 10.44-19.24 11.85-30.26.43-3.35-.12-6.9-.72-10.27-.83-4.62.08-6.61 4.48-5.52 5.31 1.32 10.35 4.08 15.14 6.86.92.53.82 4.39-.03 6.11-3.07 6.22-6.66 12.18-9.89 17.95z"/><path d="m288.48 276.69c-6.31 7.11-10.65 16.13-21.13 18.68 2.18-3.42 4.36-6.83 6.53-10.25 5.82-9.19 10.82-18.79 12.26-29.7.53-4.01.26-8.33-.66-12.27-1-4.25 1-5.82 4.14-4.98 4.23 1.13 8.34 3.22 12.01 5.65 1.01.67.92 4.3.17 6.08-2.89 6.86-6.25 13.53-9.33 20.06 5.03 2.7 9.87 5.2 14.61 7.87 5.56 3.13 7.57 8.3 7.19 14.31-.13 2.04-1.27 5.05-2.76 5.68-1.53.64-4.67-.5-6.03-1.9-5.19-5.38-9.94-11.18-14.87-16.82-.64-.77-1.31-1.5-2.13-2.41z"/><path d="m241.02 283.87c-6.63 7.02-13.13 14-19.78 20.83-.91.94-2.56 1.15-4.73.88.97-1.58 1.85-3.22 2.92-4.72 7.74-10.88 14.67-22.19 16.65-35.68.61-4.17.25-8.55-.15-12.78-.45-4.78.75-6.54 5.38-5.32 3.6.95 7.23 2.67 10.13 4.96 1.24.97 1.45 4.55.75 6.43-2.02 5.42-4.75 10.57-7.19 15.8 4.05 2.92 7.97 5.64 11.77 8.52 4.2 3.18 4.85 7.74 4.35 12.57-.4 3.83-3.21 5.77-6.68 3.94-2.94-1.55-5.58-4.03-7.75-6.61-2.4-2.88-4.11-6.33-5.67-8.82z"/><path d="m222.89 232.92c6.83-1.25 13.15-2.37 19.46-3.55 16.12-3.03 32.22-6.24 48.38-9.05 6.25-1.09 12.72-1.11 18.34 2.54 1.74 1.13 2.69 3.45 4.01 5.23-1.94.99-3.8 2.6-5.83 2.86-23.49 3.11-47.01 6.01-70.52 8.97-6.22.78-10.86-1.32-13.84-7z"/><g fill="#fafafa"><path d="m374.8 390.4 1.4-.4c.7.5 1.3 1 1.8 1.4l-.5.5c-1.5-.6-2.1-1.1-2.7-1.5zm1 7.3-.6-.3c.5-1.4 1.1-2.8 1.5-4.3.2.1.4.2.6.3-.5 1.3-1 2.8-1.5 4.3zm-.4-10.3.4-.4c.4.3 1 .8 1.7 1.4l-.5.5c-.4-.5-1-1-1.6-1.5zm2.5.3h1.7v-1h.6v1h3.5v-1h.6v1h1.8v.5h-1.8v1.4h-2v1h3.2v2h-3.2v.9h3.3v.5h-3.4c0 .3-.1.6-.1.9h4v.5h-3.7c.7.9 1.9 1.5 3.8 1.7-.1.2-.2.4-.3.6-2.1-.4-3.5-1.1-4-2.1-.4 1-1.8 1.7-4 2.2-.1-.2-.2-.4-.3-.6 2.1-.4 3.4-1 3.8-1.8h-3.4v-.5h3.6c.1-.3.1-.6.2-.9h-3.3v-.5h3.4c0-.3 0-.6 0-.9h-3.2v-2h3.3v-1h-2.1v-1.4h-1.7v-.5zm1.1 3.5v1h2.7c0-.3 0-.4 0-.4 0-.1 0-.2 0-.2 0-.1 0-.2 0-.3h-2.7zm1.2-3v.9h3.5v-.9zm4.7 3h-2.6v.6.4h2.6z"/><path d="m393.6 386.7h.6v1.5h2.7v6.1h1.1v.6h-11v-.6h1.1v-6.1h2.7v-1.5h.6v1.5h2.1v-1.5zm-2.7 8.8.4.6c-1.2.6-2.5 1.3-3.8 1.9-.1-.2-.2-.4-.3-.6 1.2-.6 2.5-1.2 3.7-1.9zm-2.2-6.7v2.4h2.1v-2.4zm0 3v2.5h2.1v-2.5zm2.8-3v2.4h2.1v-2.4zm0 3v2.5h2.1v-2.5zm6 6.1c-1.4-.7-2.7-1.3-3.9-1.8l.2-.6c1.5.6 2.7 1.2 3.9 1.7zm-1.2-9.1h-2.1v2.4h2.1zm-2.1 3v2.5h2.1v-2.5z"/></g></svg>