<svg enable-background="new 0 0 400 400" viewBox="0 0 400 400" xmlns="http://www.w3.org/2000/svg"><path d="m241.73 204.88c-7.11.51-13.18.95-20.19 1.46 2.54 2.57 4.66 4.52 6.56 6.67 2.58 2.93 3.29 5.84 1.63 9.98-2.51 6.26-3.87 12.99-5.63 19.54-6.45 24.07-14.6 47.49-30.61 67.05-6.14 7.5-14 13.64-21.31 20.13-1.67 1.48-4.29 1.89-6.48 2.8-.24-.36-.48-.71-.72-1.07 1.34-2.03 2.55-4.17 4.04-6.09 20.82-26.67 32.94-57.08 38.88-90.15.94-5.22 2.01-10.45 2.38-15.72.3-4.33-.34-8.72-.54-12.66-6.06-1.86-8.05.3-8.68 5.08-.23 1.78-1.91 3.37-2.93 5.05-2-1.3-5.27-2.22-5.77-3.95-2.24-7.74-4.91-15.67-5.2-23.61-.79-22.14-2.25-44.13-7.27-65.77-.62-2.69-1.86-5.24-3.16-8.8 2.2-.22 4.19-.72 6.12-.53 2.12.2 4.16 1.18 6.28 1.56 7.11 1.28 10.02-.16 12.41-6.85 3.12-8.73 6.25-17.5 8.57-26.46.93-3.59.17-7.83-.67-11.59-.69-3.09.14-4.59 2.87-5.1 9.22-1.72 17.45.91 24.7 6.47 3.38 2.59 1.7 5.3-.65 8.04-8.78 10.24-17.36 20.64-26 30.99-.49.59-.8 1.33-1.73 2.91 16.74-2.71 32.59-5.21 48.42-7.86 8-1.34 15.94-3.08 23.96-4.34 2.01-.32 4.54-.08 6.24.92 5.85 3.46 11.57 7.17 17.06 11.16 3.56 2.58 3.77 6.15.87 9.54-6.51 7.62-7.99 16.84-9.14 26.39-2 16.47-4.56 32.88-6.89 49.32-.07.49-.01 1.06-.24 1.47-1.94 3.5-3.28 8.93-6.11 9.88-2.55.86-6.75-3.2-10.23-5.08-1.39-.75-2.79-2.1-4.19-2.09-4.62.01-9.24.51-14.26.85.3.87.36 1.74.82 2.24 6.25 6.74 6.57 14.98 6.03 23.43-1.16 18.24-2.48 36.46-3.48 54.71-.26 4.79.23 9.64.68 14.43.5 5.28 3.96 8.6 8.27 11.17 7.77 4.64 16.57 5.03 25.13 5 8.58-.02 17.23-1.14 25.7-2.65 7.14-1.27 12.93-5.31 15.97-12.29 2.65-6.08 5.08-12.25 7.61-18.38.72-1.75 1.44-3.51 2.16-5.26.45.04.9.08 1.35.11.59 3.28.94 6.64 1.83 9.84 2.26 8.13 4.9 16.16 7.14 24.29 1.8 6.52.69 10.29-5.48 12.58-10.67 3.97-21.57 7.87-32.71 9.89-15.43 2.8-31.14 2.4-46.55-1.37-16.76-4.1-25.8-14.73-25.88-31.94-.1-22.77.75-45.54.79-68.31 0-8.74-1.11-17.49-1.77-27.03zm40.3-53.15c-.75-10.06-1.1-18.96-2.29-27.75-.29-2.15-3.39-5.61-5.15-5.59-12.54.18-25.07 1.11-37.76 1.81.26 1.34.24 1.58.33 1.66.63.53 1.26 1.08 1.95 1.53 5.55 3.61 7.98 8.48 7.15 15.26-.54 4.36-.1 8.85-.1 13.4 11.28-.02 22.52-5.91 35.87-.32zm-38.16 39.15c10.03 0 19.29.06 28.56-.08 1.01-.01 2.72-1 2.89-1.79 1.79-8.66 3.33-17.38 5.06-26.69-12.5 1.23-23.8 2.35-35.36 3.49-.42 8.99-.8 17.43-1.15 25.07zm-43.79-33.71c9.83-.86 19.14-1.67 28.93-2.52-.42-11.08-.32-21.64-5.09-31.83-8.6 1.24-17.04 2.45-25.87 3.73.69 10.29 1.34 20.15 2.03 30.62zm2.35 13.2v27.2c10.1-1.19 19.21-2.26 28.6-3.36-.5-9.17-.97-17.83-1.45-26.65-9.44.97-18.33 1.89-27.15 2.81z"/><path d="m116.41 197.3c0 2.21-.01 4.17 0 6.12.25 38.12.64 76.25.61 114.37 0 5.47-1.25 11.24-3.29 16.31-2.14 5.31-5.57 5.01-8.58.04-5.74-9.47-7.91-19.45-5.67-30.57 1.24-6.14 1.35-12.57 1.38-18.88.1-27.82-.01-55.63-.05-83.45 0-.82-.09-1.63-.2-3.37-5.34.51-10.54.86-15.69 1.54-5.26.69-10.48 1.72-15.72 2.55-9.98 1.6-18.84-2.52-22.4-11.05 17.94-2.01 35.65-3.99 54.75-6.13-1.68-12.56-3.42-24.81-4.9-37.08-.31-2.61.29-5.33.47-8 2.68.22 5.43.16 8.03.74 1.89.42 3.62 1.63 5.36 2.58 11.15 6.12 10.93 6.23 8.5 18.59-1.33 6.74-1.51 13.7-2.28 21.19 9.4-1.17 17.79-1.89 26.07-3.32 11.96-2.06 21.03 2.79 28.76 11.16 1.07 1.16 2.19 4.01 1.69 4.53-1.36 1.4-3.57 2.71-5.46 2.73-7.14.08-14.29-.5-21.43-.59-9.77-.11-19.56-.01-29.95-.01z"/><path d="m115.61 115.42c-16.99 15.26-35.54 25.26-58.31 25.8 15.21-10.98 32.1-19.52 44.46-35.17-9.17-5.7-18.29-11.34-27.38-17.05-1.81-1.14-3.72-2.31-5.08-3.9-.78-.91-1.07-2.96-.56-4 .34-.69 2.65-1.03 3.77-.64 10.51 3.64 20.98 7.39 31.41 11.28 7.35 2.74 7.87 3.1 11.12-4.26 2.98-6.74 4.98-14 6.64-21.21 1.2-5.19 3.18-7.06 7.66-4.18 4.7 3.02 8.97 6.81 13.02 10.69 2.57 2.46 2.36 5.37-.14 8.41-5.14 6.27-9.89 12.86-15.07 19.68 4.8 2.71 9.18 5.33 13.69 7.71 8.06 4.26 13.37 10.77 16.3 19.32 1.33 3.89 2.53 7.91-1.42 10.96-4.03 3.11-7.38.01-10.36-2.06-9.96-6.92-19.72-14.14-29.75-21.38z"/><path d="m308.21 246.91c10.76 8.45 19.97 16.72 23.95 28.78 1.28 3.89-.28 9.1-1.66 13.35-1.09 3.36-5.88 2.96-7.92-.48-2.28-3.82-4.24-7.82-6.73-12.48-12.18 4.98-24.16 9.78-36.05 14.77-5.42 2.27-11.97.28-14.13-5.19-.7-1.77-.18-4.65.88-6.33 1.73-2.77 4.42-4.92 6.59-7.44 9.36-10.88 13.59-23.77 14.37-37.88.14-2.58-.55-5.25-1.15-7.81-1.03-4.39-.25-5.84 4.24-5.23 4.55.62 9.12 1.81 13.4 3.48 3.95 1.54 3.7 4.47 1.85 8.17-6.36 12.76-12.31 25.72-18.94 39.73 9.28-1.34 17.51-2.53 25.96-3.74-1.48-6.9-6.36-12.93-4.66-21.7z"/><path d="m134.46 255.98c-.5-9.95-.98-19.9-1.53-29.85-.05-.97-.4-1.94-.73-2.88-2.72-7.7-1.02-9.88 7.1-8.3 3.35.65 6.58 2.24 9.67 3.81 3.38 1.72 3.26 4.89 2.92 8.25-1.38 13.52-2.78 27.04-3.7 40.59-.3 4.4.77 8.91 1.33 13.36.6 4.8 3.66 6.88 8.25 6.82 3.81-.05 7.63-.6 11.43-.52 2.58.05 5.75.04 7.57 1.46 2.05 1.6 3.86 4.75 3.9 7.26.03 1.73-2.9 4.68-4.9 5.07-10.87 2.14-21.88 1.91-32.46-1.42-2.62-.83-5.35-4.37-6.18-7.2-1.75-5.95-2.66-12.23-3.19-18.44-.51-5.95-.11-11.98-.11-17.97.21-.02.42-.03.63-.04z"/><path d="m50.65 310.62c.63-1.77 1.14-3.6 1.92-5.31 7.92-17.43 14.41-35.39 17.58-54.27 1.46-8.71.74-17.79.78-26.71.01-1.7-.9-3.5-1.71-5.08-2.09-4.06-.33-7.47 4.35-7.15 6.9.47 12.6 3.91 17.18 9.01.82.92 1.22 2.91.86 4.11-5.42 17.7-10.66 35.47-16.66 52.98-3.85 11.25-10.64 21.02-18.5 29.94-1.22 1.38-2.9 2.36-4.36 3.53-.49-.34-.96-.7-1.44-1.05z"/><path d="m155.99 161.36c-.09 4.86-3.96 7.88-8.35 5.75-3.73-1.81-7.16-4.56-10.14-7.49-2.91-2.87-5.34-6.34-7.46-9.86-.85-1.41-.79-3.87-.14-5.44.28-.69 3.17-.82 4.67-.43 4.3 1.14 8.57 2.47 12.7 4.11 5.92 2.36 8.08 7.42 8.72 13.36z"/><g fill="#fafafa"><path d="m374.8 390.4 1.4-.4c.7.5 1.3 1 1.8 1.4l-.5.5c-1.5-.6-2.1-1.1-2.7-1.5zm1 7.3-.6-.3c.5-1.4 1.1-2.8 1.5-4.3.2.1.4.2.6.3-.5 1.3-1 2.8-1.5 4.3zm-.4-10.3.4-.4c.4.3 1 .8 1.7 1.4l-.5.5c-.4-.5-1-1-1.6-1.5zm2.5.3h1.7v-1h.6v1h3.5v-1h.6v1h1.8v.5h-1.8v1.4h-2v1h3.2v2h-3.2v.9h3.3v.5h-3.4c0 .3-.1.6-.1.9h4v.5h-3.7c.7.9 1.9 1.5 3.8 1.7-.1.2-.2.4-.3.6-2.1-.4-3.5-1.1-4-2.1-.4 1-1.8 1.7-4 2.2-.1-.2-.2-.4-.3-.6 2.1-.4 3.4-1 3.8-1.8h-3.4v-.5h3.6c.1-.3.1-.6.2-.9h-3.3v-.5h3.4c0-.3 0-.6 0-.9h-3.2v-2h3.3v-1h-2.1v-1.4h-1.7v-.5zm1.1 3.5v1h2.7c0-.3 0-.4 0-.4 0-.1 0-.2 0-.2 0-.1 0-.2 0-.3h-2.7zm1.2-3v.9h3.5v-.9zm4.7 3h-2.6v.6.4h2.6z"/><path d="m393.6 386.7h.6v1.5h2.7v6.1h1.1v.6h-11v-.6h1.1v-6.1h2.7v-1.5h.6v1.5h2.1v-1.5zm-2.7 8.8.4.6c-1.2.6-2.5 1.3-3.8 1.9-.1-.2-.2-.4-.3-.6 1.2-.6 2.5-1.2 3.7-1.9zm-2.2-6.7v2.4h2.1v-2.4zm0 3v2.5h2.1v-2.5zm2.8-3v2.4h2.1v-2.4zm0 3v2.5h2.1v-2.5zm6 6.1c-1.4-.7-2.7-1.3-3.9-1.8l.2-.6c1.5.6 2.7 1.2 3.9 1.7zm-1.2-9.1h-2.1v2.4h2.1zm-2.1 3v2.5h2.1v-2.5z"/></g></svg>