<svg enable-background="new 0 0 400 400" viewBox="0 0 400 400" xmlns="http://www.w3.org/2000/svg"><path d="m230.22 256.91c-.56 1.83-1.07 3.92-1.84 5.91-1.63 4.21-3.37 4.59-6.25 1.16-5.74-6.84-8.82-14.82-9.27-23.72-1.26-25.24-3.22-50.38-9.93-74.89-1.45-5.28-3.33-10.44-4.92-15.68-1.72-5.65.33-8.24 5.64-6.17 18.19 7.07 36 .7 53.93-1 1.23-.12 2.82-1.29 3.43-2.42 8.71-16.06 17.32-32.18 25.8-48.36.66-1.25.86-3.71.11-4.47-.82-.83-3.07-.73-4.54-.37-6.94 1.67-13.77 4.72-20.75 5.07-8.24.42-12.76 4.7-17.39 10.47-7.36 9.17-16.55 16.36-26.84 22.07-1.5.83-3.22 1.25-5.49.98 4.11-5.52 8.28-11 12.32-16.57 10.81-14.92 20.07-30.62 22.96-49.19.68-4.37.69-8.96.21-13.36-.34-3.06.42-4.2 3.23-4.88 6.98-1.67 19.51 3.34 23.4 9.41 1.79 2.8 1.28 5.02-.53 7.73-4.78 7.16-9.19 14.56-14.38 22.88 2.96-.73 4.91-.96 6.67-1.68 9.51-3.91 19.03-7.81 28.43-11.98 3.56-1.58 7.02-2.28 10.46-.45 6.3 3.33 12.61 6.69 18.61 10.52 4.07 2.6 4.24 5.77.42 8.4-21 14.49-35.28 35.63-54.17 54.1 6.08-.6 11.06-.91 15.98-1.61 10.34-1.47 20.62-3.35 30.98-4.62 3.15-.39 7.06-.28 9.62 1.26 7.81 4.68 15.22 10.05 22.61 15.39 3.05 2.21 3.45 5.57.8 8.27-11.08 11.32-13.18 25.82-15.63 40.55-2.99 17.98-7.06 35.78-10.96 53.6-1.02 4.68-2.62 10.21-7.85 11.33-5.29 1.14-8.7-3.64-11.52-7.38-2.93-3.88-5.74-5.04-10.78-4.42-17.48 2.16-35.04 3.61-52.59 5.11-3.05.25-6.21-.59-9.98-.99zm40.91-104.4c-.27.44-.54.88-.81 1.32 6.61 3.14 6.76 8.23 5.95 14.34-1.12 8.48-1.17 17.09-1.7 25.95 13.8-1.24 26.94-5.87 40.56-1.1 1.51-9.28 3.41-18.05 4.25-26.92.73-7.77-5.99-15.74-13.52-15.67-11.58.12-23.15 1.33-34.73 2.08zm-11.39 44.06c-.95-14.45 1.87-28.77-4.31-42.41-11.22 1.88-21.64 3.62-33.01 5.52 1.24 13.99 2.45 27.78 3.71 42.02 11.47-1.75 22.09-3.37 33.61-5.13zm14.04 41.35c7.65 0 15.53-.09 23.4.05 2.82.05 6.78 1.9 8.18.65 2.01-1.8 2.39-5.64 3.04-8.7 1.78-8.36 3.33-16.76 5.15-26.05-13.76.95-26.44 1.83-39.77 2.76zm-14.34 4.11c0-11.59 0-22.49 0-33.53-11.03-.98-22.1 5.61-32.63-2.95 1.68 14.69 3.25 28.42 4.87 42.53 9.42-2.05 18.74-4.08 27.76-6.05z"/><path d="m169.39 218.06c3.01 1.83 5.99 3.35 8.6 5.36 1.11.85 2.05 2.79 1.9 4.1-.1.94-2.07 2.2-3.33 2.39-4.43.64-8.93.84-13.4 1.27-7.58.73-15.15 1.51-23.37 2.33-.75 19.01-1.49 37.53-2.25 56.74 9.41-2.05 18.26-4.04 27.13-5.9 3.24-.68 6.53-1.34 9.81-1.43 1.24-.03 3.46 1.46 3.57 2.43.15 1.43-.8 3.85-1.97 4.4-6.58 3.1-13.24 6.12-20.1 8.53-26.48 9.29-53.03 18.38-79.57 27.47-9.9 3.39-26.16-1.78-32.52-10.16-2.96-3.9-2.12-5.81 2.7-6.69 10.61-1.93 21.17-4.13 31.8-5.91 3.89-.65 5.3-2.49 5.23-6.26-.3-15.97-.37-31.95-.76-47.92-.16-6.4-6.56-8.81-12.98-4.77-3.19 2.01-6.25 4.53-8.65 7.42-2.87 3.46-5.06 3.03-7.66.09-3.51-3.97-4.88-7.22-2.71-13.88 6.3-19.36 7.45-38.78-4.43-56.95-2.8-4.29-1.4-6.84 3.82-6.99 1.31-.04 2.87-.07 3.89.58 4.98 3.12 9.72 1.53 14.75.04 5.31-1.58 10.85-2.39 16.82-3.65 1.64-23.25 5.38-47.36-2.1-71.04-4.17-.56-8.06-.66-11.67-1.7-3.28-.94-6.46-2.61-9.31-4.52-1.6-1.07-2.42-3.28-3.6-4.98 1.94-.55 3.85-1.47 5.81-1.6 25.27-1.71 50.15-5.51 74.23-13.64 8.79-2.96 17.56-3.41 26.32.01 1.37.54 2.96 1.11 3.85 2.16 1.28 1.52 2.82 3.57 2.7 5.28-.09 1.32-2.4 3.14-4.03 3.56-5.92 1.55-11.96 2.63-17.96 3.82-2.56.51-5.14.85-9.01 1.47 11.71 6.78 4.36 15.47 3.77 23.17-1.11 14.73-3.11 29.39-4.45 44.1-.54 5.91 3.5 8.69 9.04 6.18 6.58-2.99 13.05-6.5 20.36-3.17 5.86 2.67 11.75 5.55 17.02 9.21 8.44 5.88 8.52 8.78 1.03 16-9.54 9.22-15.02 20.52-18.32 33.05zm-45.04 75.19c-.83-18.23-1.46-36.01-2.56-53.76-.26-4.17-2.1-8.24-3.18-12.36-.39-1.47-1.42-3.8-.87-4.3 1.31-1.17 3.36-1.92 5.16-2.04 7.04-.44 14.11-.55 21.16-.81 7.02-.26 11.51-2.81 12.28-10.82 1.03-10.66 3.27-21.2 4.56-31.85.52-4.27-2.6-7.06-6.52-6.13-6.49 1.54-12.98 3.67-18.94 6.63-5.26 2.61-7.44 2.99-10.98-1.68-2.84-3.75-4.42-7.74-1.66-12.38 1-1.68 1.59-3.66 2.12-5.57 4.81-17.33 3.2-34.98 2.37-52.56-.2-4.36-1.32-8.67-2.09-13.47-7.59 1.47-14.33 2.77-20.65 3.99.26 3.52.65 6.31.65 9.1-.03 19.45.15 38.9-.38 58.34-.23 8.43-2.29 16.71-8.34 23.75-4.58-4.58-10.04-3.23-15.21-2.9-11.35.73-11.35.85-12.29 12.03-.06.66-.26 1.31-.29 1.97-.44 10.63-.99 21.26-1.15 31.9-.03 1.79 1.26 4.34 2.72 5.18 1.06.61 3.54-.79 5.15-1.72 1.71-.98 3-2.68 4.7-3.66 6.95-4.01 25.18 2.17 28.28 9.68.5 1.21.11 3.57-.79 4.45-4.93 4.81-4.98 11.02-5.44 17.14-.26 3.48-.57 6.96-.6 10.44-.09 8.58-.03 17.17-.03 26.09 7.53-1.55 14.81-3.04 22.82-4.68z"/><path d="m320.88 277.4c2.03.95 4.26 1.63 6.09 2.89 7.93 5.47 15.78 11.05 23.58 16.7 11.89 8.61 10.74 25.37 7.31 34.07-2.01 5.09-6.42 5.93-10.27 2-2.16-2.21-3.82-5-5.37-7.72-6.91-12.11-13.66-24.3-20.54-36.42-2.02-3.56-3.82-7.03-.8-11.52z"/><path d="m210.52 295.2c-2.41 8.87-4.46 17.85-7.36 26.56-2.27 6.83-7.38 11.74-13.68 15.22-4.34 2.4-7.5 1.34-8.98-3.3-2.36-7.42-2.03-14.44 2.65-21.28 6.25-9.15 11.79-18.79 17.82-28.1.93-1.44 2.8-2.28 4.24-3.39.98 1.36 2.47 2.6 2.85 4.12.8 3.18 1.01 6.5 1.47 9.76.33.14.66.27.99.41z"/><path d="m310.35 319.11c-.07 1.16.24 2.53-.27 3.44-1.6 2.88-3.02 7.16-5.44 7.92-2.41.75-6.32-1.62-8.85-3.56-2.1-1.61-3.43-4.46-4.64-6.97-4.74-9.86-9.41-19.76-13.84-29.77-.95-2.14-1.4-4.88-.98-7.14.51-2.79 2.62-4.38 5.54-2.2 9.89 7.4 19.28 15.38 25.33 26.38 1.94 3.52 2.56 7.77 3.79 11.68-.23.07-.43.14-.64.22z"/><path d="m258 315.59c-1.1 4.14-1.44 7.94-3.13 10.99-1.28 2.31-4.19 4.87-6.55 5.05-1.98.15-5.05-2.56-6.13-4.75-1.87-3.77-2.99-8.04-3.67-12.23-1.47-8.97-2.7-18-3.46-27.06-.18-2.14 1.89-4.46 2.93-6.7 1.91 1.24 4.44 2.06 5.6 3.79 3.67 5.5 7.21 11.16 10.05 17.12 2.08 4.38 3 9.32 4.36 13.79z"/><g fill="#fafafa"><path d="m374.8 390.4 1.4-.4c.7.5 1.3 1 1.8 1.4l-.5.5c-1.5-.6-2.1-1.1-2.7-1.5zm1 7.3-.6-.3c.5-1.4 1.1-2.8 1.5-4.3.2.1.4.2.6.3-.5 1.3-1 2.8-1.5 4.3zm-.4-10.3.4-.4c.4.3 1 .8 1.7 1.4l-.5.5c-.4-.5-1-1-1.6-1.5zm2.5.3h1.7v-1h.6v1h3.5v-1h.6v1h1.8v.5h-1.8v1.4h-2v1h3.2v2h-3.2v.9h3.3v.5h-3.4c0 .3-.1.6-.1.9h4v.5h-3.7c.7.9 1.9 1.5 3.8 1.7-.1.2-.2.4-.3.6-2.1-.4-3.5-1.1-4-2.1-.4 1-1.8 1.7-4 2.2-.1-.2-.2-.4-.3-.6 2.1-.4 3.4-1 3.8-1.8h-3.4v-.5h3.6c.1-.3.1-.6.2-.9h-3.3v-.5h3.4c0-.3 0-.6 0-.9h-3.2v-2h3.3v-1h-2.1v-1.4h-1.7v-.5zm1.1 3.5v1h2.7c0-.3 0-.4 0-.4 0-.1 0-.2 0-.2 0-.1 0-.2 0-.3h-2.7zm1.2-3v.9h3.5v-.9zm4.7 3h-2.6v.6.4h2.6z"/><path d="m393.6 386.7h.6v1.5h2.7v6.1h1.1v.6h-11v-.6h1.1v-6.1h2.7v-1.5h.6v1.5h2.1v-1.5zm-2.7 8.8.4.6c-1.2.6-2.5 1.3-3.8 1.9-.1-.2-.2-.4-.3-.6 1.2-.6 2.5-1.2 3.7-1.9zm-2.2-6.7v2.4h2.1v-2.4zm0 3v2.5h2.1v-2.5zm2.8-3v2.4h2.1v-2.4zm0 3v2.5h2.1v-2.5zm6 6.1c-1.4-.7-2.7-1.3-3.9-1.8l.2-.6c1.5.6 2.7 1.2 3.9 1.7zm-1.2-9.1h-2.1v2.4h2.1zm-2.1 3v2.5h2.1v-2.5z"/></g></svg>