<svg enable-background="new 0 0 400 400" viewBox="0 0 400 400" xmlns="http://www.w3.org/2000/svg"><path d="m126.04 147.36c6.47-1.09 13-1.93 19.4-3.34 10.09-2.22 18.2 1.65 25.54 7.85 3 2.54 2.97 6.48.66 9.08-9.73 10.91-8.65 24.62-10.64 37.62-1.98 12.94-4.45 25.8-6.86 38.66-.39 2.06-1.27 4.27-2.6 5.84-1.37 1.62-3.72 3.67-5.35 3.44-1.64-.23-2.99-2.97-4.32-4.73-.58-.76-.78-1.8-1.29-3.06-15.65 1.67-31.29 3.33-47.32 5.04-.34 1.31-.57 2.97-1.2 4.46-.57 1.36-1.81 3.7-2.32 3.59-1.78-.38-4.36-1.28-4.85-2.63-1.73-4.79-3.48-9.8-3.86-14.82-.89-11.77-.59-23.63-1.54-35.39-1.08-13.39-2.92-26.72-4.6-40.06-.32-2.52-1.4-4.93-2.18-7.53 9.64-.48 18.76-.89 27.87-1.42 3.81-.22 7.62-.6 11.39-1.19 1.15-.18 2.65-1.04 3.14-2.01 5.35-10.49 10.55-21.06 15.75-31.63.2-.4.03-.98.03-2.21-5.48.83-10.83 2.42-16.13 2.27-7.49-.21-11.1 4.57-15.73 9.03-7.77 7.48-16.23 14.27-24.61 21.08-1.98 1.61-4.82 2.18-7.26 3.23-.27-.42-.54-.84-.82-1.26 2.22-3.05 4.46-6.07 6.65-9.14 8.96-12.6 18.6-24.8 26.57-38 4.71-7.8 6.84-17.17 9.98-25.88.48-1.33.36-2.98.16-4.44-.67-4.74.53-6.15 5.2-4.87 7.74 2.13 13.66 7.04 17.25 14.09.94 1.85-.02 5.57-1.39 7.52-4.3 6.09-9.22 11.74-13.4 18.73 6.58-2.17 13.35-3.9 19.68-6.64 4.74-2.05 8.65-1.37 12.6 1.17 3.5 2.25 6.88 4.67 10.27 7.08 4.21 3 3.94 4.55-.01 7.92-11.73 10.01-23.26 20.25-34.87 30.4.32.72.67 1.44 1.01 2.15zm21.1 50.42c-7.84.68-14.74 1.28-21.92 1.91-.76 9.79-1.49 19.28-2.19 28.41h19.67c1.48-10.14 2.89-19.79 4.44-30.32zm-21.27-39.78c4.93 10.4-.25 20.07.84 29.61 3.64-.32 6.95-1 10.2-.8 3.38.21 6.71 1.26 10.67 2.06 0-8.83.19-17.41-.09-25.97-.11-3.38-2.24-5.19-6.07-4.96-4.96.28-9.95.06-15.55.06zm-16.2.87c-6.85.87-12.16 1.55-16.72 2.13v31.17c6.46-.78 11.99-1.45 18.29-2.21-.53-10.47-1.03-20.45-1.57-31.09zm-15.3 43.88v29.48c5.4-.54 10.25-1.03 15.35-1.54 0-9.9 0-19.43 0-28.91-5.23.33-10.24.65-15.35.97z"/><path d="m196.22 169.31c-8.23 5.62-16.07 11.02-23.97 16.32-.71.47-1.84.31-4.23.64 4.08-5.6 7.35-10.28 10.8-14.81 8.21-10.77 15.53-22.04 19.18-35.25 1.05-3.79 1.56-7.78 1.8-11.71.28-4.42 2.86-7.06 6.09-4.6 5.23 3.98 9.47 9.33 13.75 14.43.61.73-.62 3.4-1.5 4.88-1.42 2.39-3.25 4.54-5.81 8 13.45-1.75 25.61-3.34 38.12-4.96-3.11-4.56-5.89-8.56-8.58-12.63-.91-1.37-1.79-2.83-2.31-4.37-1.32-3.9.46-5.89 4.39-5.02 1.61.35 3.15 1.06 4.76 1.39 9.57 1.94 16.42 6.44 16.12 18.2 11.47-3.66 20.87-1.59 28.18 9.08-10.68 1.7-21.36 3.39-31.86 5.06.41 3.76.83 7.6 1.33 12.1 3.87-.55 7.76-1.02 11.61-1.66 6.46-1.09 11.75 1.35 16.37 5.49.94.84 1.47 2.57 1.43 3.86-.02.51-2.09 1.21-3.29 1.37-9.02 1.23-18.05 2.34-27.28 3.51-.36 2.97-.71 5.86-1.17 9.71 5.26-.74 9.96-1.32 14.64-2.1 8.04-1.33 16.28 2.53 19.56 10.17-11.8 1.51-23.32 2.99-34.9 4.47v11.03c5.22-.58 10.15-.92 15.01-1.72 9.24-1.51 17.56.46 24.73 6.41 1.7 1.41 2.43 3.98 3.61 6.02-2.12.61-4.21 1.64-6.36 1.77-24.68 1.58-49.38 3.03-74.07 4.53-2.49.15-4.97.46-7.45.66-3.5.28-6.45.7-8.05 4.91-1.3 3.42-4.01 1.92-5.77-.39-4.09-5.38-5.33-11.28-5.07-18.18.59-15.66.19-31.36.19-46.61zm48.2-13.19c-11.71 1.25-23.13 2.47-34.35 3.67.47 3.66.97 7.55 1.49 11.57 7.85-.54 15.45-1.04 23.04-1.59 12.34-.88 12.34-.9 9.82-13.65zm-33.94 61.33c9.38-1.17 18.4-2.26 27.41-3.42 9.68-1.25 9.74-1.36 8.37-11.04-.02-.15-.16-.29-.29-.52-11.72.86-23.48 1.72-35.5 2.6.01 3.58.01 7.65.01 12.38zm35.37-37.24c-11.82 1.07-23.13 2.09-34.48 3.11v10.51c11.74-1.18 23.14-2.32 34.48-3.46 0-3.86 0-6.66 0-10.16z"/><path d="m258.12 291.85c13.62 8.32 26.27 17.34 40.04 24.09 13.74 6.74 28.59 11.2 43.56 16.9-5.79 5.97-12.65 6.02-19.05 7.15-8.17 1.44-16.43 2.39-24.58 3.89-5.69 1.05-10.88-.01-14.91-3.81-10.28-9.68-20.21-19.72-30.25-29.65-1.64-1.63-3.1-3.44-4.9-5.46-21.54 20.89-46.61 31.5-76.68 27.98-.24-.51-.48-1.01-.73-1.52 1.77-.8 3.5-1.7 5.31-2.4 12.36-4.78 24.98-8.96 37.02-14.44 10.08-4.58 18.22-12.12 25.3-21.35-13.34-14.21-24.07-30.76-40.63-41.73-.97-.64-2-1.32-2.68-2.22-.82-1.08-1.31-2.43-1.94-3.66 1.26-.57 2.47-1.48 3.78-1.64 19.61-2.4 39.23-4.66 58.84-7.06 4.84-.59 10.14-3.17 14.33-1.9 5.91 1.8 11.21 6.03 16.33 9.83 3.18 2.36 2.46 5.92-.62 8.04-13.64 9.41-18.24 24.97-27.54 38.96zm-11.66-10.25c3.37-9.77 6.37-17.97 8.98-26.3 1.07-3.42-2.04-7.41-5.28-6.84-10.02 1.75-19.97 3.89-29.1 5.72 7.95 8.59 16.05 17.33 25.4 27.42z"/><path d="m241.11 108.71c4.73-7.55 9.98-14.84 14.05-22.73 5.16-10 10.06-20.32 6.84-32.27-.89-3.29.66-5.1 4.21-4.97 7.32.28 12.65 4.66 17.76 9.11.96.84.71 4.18-.13 5.76-2.07 3.94-4.79 7.54-6.88 12.81 6.37-.92 12.81-1.5 19.09-2.83 7.96-1.69 15.22-.85 21.64 4.34 1.33 1.08 2.15 2.8 3.2 4.23-1.49.81-2.91 2.09-4.49 2.34-10.47 1.68-20.95 3.52-31.5 4.5-4.54.42-9.27-1.09-15.13-1.89-7.17 8.44-14.96 18.82-27.71 22.82-.31-.41-.63-.82-.95-1.22z"/><path d="m198.93 90.6c-8.39 11-17.05 22.24-31.26 26.68-.44-.4-.89-.8-1.33-1.19 1.75-2.44 3.24-5.13 5.3-7.28 9.34-9.76 14.49-21.84 18.46-34.35 1.49-4.68.63-10.18.45-15.29-.13-3.92 1.58-6.28 5.03-4.89 5.47 2.2 10.7 5.12 15.74 8.23 2.59 1.6 2.61 4.4.8 7.03-2.14 3.11-4.18 6.28-7.12 10.72 7.97-1.01 14.63-1.53 21.16-2.76 7.08-1.33 12.1 2.41 17.14 6.15 1.95 1.45 2.18 3.92-.81 4.3-14.35 1.82-28.57 6.25-43.56 2.65z"/><path d="m80.4 260.89c.9 3.36 2.38 6.67 2.6 10.07.7 10.57-1.02 20.86-5.83 30.37-3.22 6.37-9.07 10.61-11.96 8.68-4.69-3.13-4.74-8.46-4.22-13.46.26-2.55 1.23-5.14 2.35-7.48 3.78-7.92 7.73-15.76 11.7-23.58.85-1.67 2.04-3.16 3.08-4.74.76.05 1.52.1 2.28.14z"/><path d="m171.39 275.62c-.25 3.27.21 6.06-.8 8.14-1.02 2.11-3.3 4.51-5.39 4.91-1.81.35-5.19-1.42-6.02-3.14-4.31-8.96-8.16-18.14-11.86-27.37-1.21-3.03 1.16-4.45 3.48-3.01 6.57 4.07 13.07 8.37 19.01 13.29 1.64 1.34 1.2 5.19 1.58 7.18z"/><path d="m96.23 287.1c1.19-7.54 2.29-15.09 3.66-22.59.25-1.37 1.64-2.53 2.5-3.79 1.08.91 2.69 1.62 3.14 2.78 2.63 6.76 5.36 13.52 7.32 20.49 1.3 4.61-6.12 14.56-10.74 14.56-1.79 0-4.38-2.17-5.15-3.98-.9-2.11-.21-4.9-.21-7.39-.17-.03-.34-.05-.52-.08z"/><path d="m272.74 100.26c8.26-.98 15.83-1.49 23.11 1.26 4.41 1.66 8.67 13.08 7.11 17.61-1 2.92-5.26 5.03-7.66 3.05-7.4-6.12-14.43-12.69-21.56-19.13-.42-.37-.45-1.19-1-2.79z"/><path d="m140.66 279.2c-1.42 3.55-2.49 8.01-4.85 11.64-2.71 4.16-8.59 3.08-9.45-1.8-1.61-9.1-2.36-18.36-3.27-27.57-.11-1.08.75-2.86 1.64-3.26.77-.35 2.65.45 3.3 1.31 3.87 5.09 7.57 10.32 11.23 15.57.62.89.75 2.13 1.4 4.11z"/><path d="m210.91 99.83c12.86-1.06 15.06 3.79 18.7 13.29.58 1.52-.35 4.86-1.59 5.54-1.8 1-5.12 1.28-6.73.24-6.1-3.98-11.85-8.53-17.56-13.09-1.27-1.01-1.81-2.93-2.69-4.43 1.63-.52 3.22-1.23 4.88-1.49 1.64-.26 3.33-.06 4.99-.06z"/><g fill="#fafafa"><path d="m374.8 390.4 1.4-.4c.7.5 1.3 1 1.8 1.4l-.5.5c-1.5-.6-2.1-1.1-2.7-1.5zm1 7.3-.6-.3c.5-1.4 1.1-2.8 1.5-4.3.2.1.4.2.6.3-.5 1.3-1 2.8-1.5 4.3zm-.4-10.3.4-.4c.4.3 1 .8 1.7 1.4l-.5.5c-.4-.5-1-1-1.6-1.5zm2.5.3h1.7v-1h.6v1h3.5v-1h.6v1h1.8v.5h-1.8v1.4h-2v1h3.2v2h-3.2v.9h3.3v.5h-3.4c0 .3-.1.6-.1.9h4v.5h-3.7c.7.9 1.9 1.5 3.8 1.7-.1.2-.2.4-.3.6-2.1-.4-3.5-1.1-4-2.1-.4 1-1.8 1.7-4 2.2-.1-.2-.2-.4-.3-.6 2.1-.4 3.4-1 3.8-1.8h-3.4v-.5h3.6c.1-.3.1-.6.2-.9h-3.3v-.5h3.4c0-.3 0-.6 0-.9h-3.2v-2h3.3v-1h-2.1v-1.4h-1.7v-.5zm1.1 3.5v1h2.7c0-.3 0-.4 0-.4 0-.1 0-.2 0-.2 0-.1 0-.2 0-.3h-2.7zm1.2-3v.9h3.5v-.9zm4.7 3h-2.6v.6.4h2.6z"/><path d="m393.6 386.7h.6v1.5h2.7v6.1h1.1v.6h-11v-.6h1.1v-6.1h2.7v-1.5h.6v1.5h2.1v-1.5zm-2.7 8.8.4.6c-1.2.6-2.5 1.3-3.8 1.9-.1-.2-.2-.4-.3-.6 1.2-.6 2.5-1.2 3.7-1.9zm-2.2-6.7v2.4h2.1v-2.4zm0 3v2.5h2.1v-2.5zm2.8-3v2.4h2.1v-2.4zm0 3v2.5h2.1v-2.5zm6 6.1c-1.4-.7-2.7-1.3-3.9-1.8l.2-.6c1.5.6 2.7 1.2 3.9 1.7zm-1.2-9.1h-2.1v2.4h2.1zm-2.1 3v2.5h2.1v-2.5z"/></g></svg>