<svg enable-background="new 0 0 400 400" viewBox="0 0 400 400" xmlns="http://www.w3.org/2000/svg"><g fill="#fafbfc"><path d="m346.9 398 5.4-7.3h-5.2v-.6h5.9v.6l-5.4 7.2h5.5l-.1.6h-6.2v-.5z"/><path d="m354.7 390.1h2.8c2.3 0 3.9 1.6 3.9 4.1s-1.6 4.3-3.9 4.3h-2.8zm.6 7.8h2c2.2 0 3.3-1.6 3.3-3.6 0-1.8-1-3.6-3.3-3.6h-2z"/><path d="m363.9 390.1v8.4h-.6v-8.4z"/><path d="m372.5 396.3c-.4 1.3-1.4 2.3-3.2 2.3-2.4 0-3.7-1.9-3.7-4.3 0-2.3 1.2-4.3 3.7-4.3 1.8 0 2.9 1 3.2 2.4h-.6c-.4-1.1-1.1-1.8-2.5-1.8-2.1 0-3 1.9-3 3.7s.9 3.7 3 3.7c1.4 0 2.1-.7 2.5-1.7z"/><path d="m373.8 398.5v-1.5h.6v1.5z"/><path d="m376.2 398.5v-8.4h1c1.3 2 4.4 6.7 4.9 7.6-.1-1.2-.1-2.4-.1-3.8v-3.8h.7v8.4h-.9c-1.2-1.9-4.4-6.8-5-7.7.1 1.1 0 2.3 0 3.9v3.9h-.6z"/><path d="m390 394.4h-4.3v3.5h4.7l-.1.6h-5.2v-8.4h5.1v.6h-4.5v3.1h4.3z"/><path d="m394.2 390.7h-2.8v-.6h6.3v.6h-2.8v7.8h-.7z"/></g><path d="m227.01 99.12c6.81-.82 13.67-1.31 20.41-2.54 12.38-2.26 24.61-5.45 37.04-7.32 10.39-1.56 19.03 3.36 26.57 10.13.85.76 1.31 2.41 1.25 3.61-.08 1.94-.18 4.27-1.25 5.72-9.4 12.77-11.36 28.05-15.06 42.8-1.36 5.41-3.5 10.77-6.2 15.64-2.73 4.94-5.31 4.88-10.02 1.52-.9-.64-2.39-.79-3.56-.68-15.04 1.48-30.07 3.05-45.77 4.67v19.13c6.61-.76 13.78-1.43 20.9-2.44 9.52-1.34 18.98-3.79 28.51-4.07 4.79-.14 9.75 3.29 14.48 5.44 1.08.49 2.17 2.45 2.06 3.62-.08.85-2.07 1.96-3.34 2.17-15.88 2.62-31.75 5.39-47.71 7.44-5.04.65-10.34-.73-16-1.23-.25 4.22-.86 9.43-.75 14.63.08 4.03 2.99 6 6.83 5.55 7.08-.84 14.1-2.12 21.15-3.18 17.4-2.62 34.79-5.21 52.19-7.81.82-.12 1.73-.01 2.47-.31 13.12-5.49 22.77 1.45 32.06 9.11 4.65 3.84 5.78 8.5 2.55 13.31-7.65 11.42-8.67 24.52-10.78 37.45-2.41 14.71-4.89 29.42-8.07 43.97-2.18 9.98-10.21 16.15-17.45 22.5-2.9 2.54-5.91 1.6-8.91-.98-8.93-7.67-18.12-15.03-27.18-22.55-1.48-1.23-2.79-2.65-4.18-3.98.28-.58.56-1.15.84-1.73 6.85.55 13.73.85 20.54 1.72 8.87 1.13 13.69-1.01 18.19-8.75 5.32-9.15 6.45-19.43 8-29.59 1.6-10.5 3.01-21.04 4.66-31.53 1.61-10.24-1.65-14.81-11.98-14.41-10.77.41-21.57 1.51-32.21 3.21-15.53 2.48-30.94 5.75-46.38 8.76-2.27.44-4.52 1.12-6.66 1.98-3.8 1.52-7.4 1.83-10.74-.99-3.72-3.15-5.55-7.05-4.39-11.96 7.89-33.31 6.6-67.08 4.74-100.81-.51-9.19-3.02-18.28-4.83-27.37-.96-4.84 1.27-7.55 5.9-5.64 4.51 1.86 6.67-.07 8.97-3.12 5.41-7.17 11.2-14.08 16.1-21.58 2.23-3.41 3.31-7.89 3.83-12.03.5-4.06 2.28-5.53 5.81-4.64 7.98 2.03 14.67 6.38 19.52 13 2.62 3.57.66 6.42-2.91 8.53-12.58 7.46-25.08 15.04-37.61 22.58-.69.41-1.34.88-2 1.33.12.59.24 1.16.37 1.72zm3.94 34.29c2.46-.56 3.73-.78 4.95-1.13 6.85-1.98 13.6-4.4 20.55-5.9 8.65-1.86 17.49-4.7 27.31 1.03 0-6.19.07-11.62-.02-17.05-.07-4.39-1.93-6.8-6.81-6.21-14.14 1.7-28.3 3.25-43.07 4.93-.97 8.11-1.9 15.86-2.91 24.33zm51.5 2.38c-17.98 2.31-35 4.5-51.81 6.66v19.87c16.33-1.22 31.36-9.19 48.06-5.45 1.23-6.87 2.41-13.53 3.75-21.08z" fill="#010000"/><path d="m125.92 160.61c2.5 2.32 4.68 3.51 5.52 5.32 1.22 2.64 2.09 5.75 2.01 8.63-.18 6.57-1.03 13.12-1.66 20.33 12.41-2.2 23.98-3.54 35.14-6.46 9.79-2.56 17.55 1 25.38 5.46 1.3.74 2.89 3.66 2.49 4.2-1.24 1.67-3.23 3.46-5.18 3.81-7.34 1.33-14.78 2.16-22.19 3.1-11.53 1.46-23.07 2.85-35.33 4.35-.77 23.06-1.55 46.07-2.36 70.11 2.86-.9 4.77-1.23 6.43-2.06 11.87-5.94 23.64-12.09 35.58-17.89 1.85-.9 5.45-1.33 6.44-.28 2.46 2.61.26 5.14-1.93 7.17-12.84 11.86-25.69 23.71-38.5 35.59-3.78 3.51-7.45 7.14-11.21 10.68-3.24 3.05-6.38 2.65-9.76-.03-7.26-5.75-8.87-11.08-6.44-20.05 1.25-4.62 2.22-9.46 2.33-14.22.49-21.47.62-42.94.86-64.42.01-.48-.23-.96-.48-1.95-7.48 1.21-14.98 2.4-22.46 3.63-4.58.76-9.14 1.7-13.73 2.34-7.12.99-17.92-4.74-21.17-11.95 19.09-2.75 37.86-5.45 57.47-8.27-.43-9.35-.51-18.62-1.47-27.8-.35-3.35-3-5.46-7.38-4.53-6.16 1.3-12.49 1.8-18.74 2.64-.16-.65-.32-1.31-.47-1.96 6.04-2.96 12.19-5.7 18.08-8.92 8.57-4.69 17.09-9.52 25.35-14.74 2.69-1.7 4.71-4.65 6.64-7.31 2.35-3.23 4.95-4.57 8.76-2.71 5.62 2.75 11.42 5.17 16.82 8.29 1.67.96 3.4 4.01 3.04 5.64-.34 1.56-3.22 2.99-5.25 3.68-10.5 3.55-21.05 6.85-32.63 10.58z" fill="#010000"/><path d="m131.99 98.53c-3.73-10.36-7.1-19.69-10.44-29.04-.56-1.56-1.33-3.14-1.43-4.74-.12-2.03.36-4.09.58-6.14 1.96.49 4.3.45 5.8 1.55 5.99 4.42 11.78 9.12 17.54 13.85 6.36 5.22 5.64 12.2 4.51 19.23-.13.8-.32 1.59-.62 3.04 8.54-.58 16.9-.32 24.9-1.92 8.4-1.68 14.74.66 20.23 6.47 4.44 4.7 8.66 9.62 12.8 14.6 2.12 2.55 1.51 4.91-1.92 5.37-12.16 1.64-23.47 5.76-34.43 11.09-.81.39-1.93.13-3.68.21.35-1.67.51-3.04.93-4.31 1.37-4.09 2.93-8.12 4.24-12.22 1.77-5.53-1.92-9.87-7.66-9.05-19.7 2.82-39.39 5.72-59.11 8.44-3.1.43-6.3.06-9.92.06-.73 2.91-1.34 5.59-2.06 8.24-2.25 8.32-4.45 16.65-6.85 24.93-.54 1.87-1.55 3.7-2.74 5.25-1.74 2.27-3.74 2.28-5.88.13-7.69-7.73-9.49-18.12-4.48-27.69 3.95-7.53 7.72-15.05 7.79-23.87.01-1.39 1.19-3.22 2.38-3.97.66-.41 2.49.94 3.75 1.59 1.4.73 2.8 2.35 4.11 2.26 13.88-.98 27.72-2.2 41.66-3.36z" fill="#010000"/><path d="m205.32 250.77c4.56 2.22 5.56 6.27 6.03 10.4 1.28 11.33 1.96 22.61-5.63 32.42-.51.66-1.01 1.33-1.59 1.91-5.09 5.12-8.32 4.57-11.27-1.92-2.23-4.9-2.79-9.9-.62-14.96 3.6-8.39 7.21-16.77 10.9-25.11.44-1 1.38-1.76 2.18-2.74z" fill="#010000"/><path d="m226.74 275.98c1.38-7.51 2.4-14.56 4.11-21.43.45-1.79 3.04-3.04 4.65-4.54 1.11 1.28 2.7 2.39 3.23 3.87 2.11 5.87 4.24 11.77 5.69 17.83 1.4 5.87-1.32 10.69-5.75 14.4-4.08 3.42-7.22 2.75-9.46-2.07-1.23-2.65-1.75-5.62-2.47-8.06z" fill="#010000"/><path d="m262.47 244.92c3.76 5.05 7.81 9.91 11.19 15.2 3.43 5.36 2.22 13.19-1.96 17.46-2.51 2.56-4.92 2.77-7.79.39-4.22-3.51-5.35-8.28-5.87-13.31-.44-4.29-1.03-8.64-.72-12.9.18-2.43 2.01-4.75 3.1-7.12.69.09 1.37.18 2.05.28z" fill="#010000"/><path d="m307.28 257.83c-.36 1.99-.53 2.97-.72 3.94-.75 3.9-1 8.6-5.95 9.21-5.06.63-8-3.42-9.47-7.43-2.26-6.16-3.7-12.66-5.04-19.1-.29-1.37.96-3.56 2.17-4.54.69-.56 3.08.14 4.13.99 3.86 3.13 7.74 6.31 11.09 9.95 1.91 2.06 2.8 5.07 3.79 6.98z" fill="#010000"/></svg>