<svg enable-background="new 0 0 400 400" viewBox="0 0 400 400" xmlns="http://www.w3.org/2000/svg"><path d="m346.9 398 5.4-7.3h-5.2v-.6h5.9v.6l-5.4 7.2h5.5l-.1.6h-6.2v-.5z" fill="#fafbfc"/><path d="m354.7 390.1h2.8c2.3 0 3.9 1.6 3.9 4.1s-1.6 4.3-3.9 4.3h-2.8zm.6 7.8h2c2.2 0 3.3-1.6 3.3-3.6 0-1.8-1-3.6-3.3-3.6h-2z" fill="#fafbfc"/><path d="m363.9 390.1v8.4h-.6v-8.4z" fill="#fafbfc"/><path d="m372.5 396.3c-.4 1.3-1.4 2.3-3.2 2.3-2.4 0-3.7-1.9-3.7-4.3 0-2.3 1.2-4.3 3.7-4.3 1.8 0 2.9 1 3.2 2.4h-.6c-.4-1.1-1.1-1.8-2.5-1.8-2.1 0-3 1.9-3 3.7s.9 3.7 3 3.7c1.4 0 2.1-.7 2.5-1.7z" fill="#fafbfc"/><path d="m373.8 398.5v-1.5h.6v1.5z" fill="#fafbfc"/><path d="m376.2 398.5v-8.4h1c1.3 2 4.4 6.7 4.9 7.6-.1-1.2-.1-2.4-.1-3.8v-3.8h.7v8.4h-.9c-1.2-1.9-4.4-6.8-5-7.7.1 1.1 0 2.3 0 3.9v3.9h-.6z" fill="#fafbfc"/><path d="m390 394.4h-4.3v3.5h4.7l-.1.6h-5.2v-8.4h5.1v.6h-4.5v3.1h4.3z" fill="#fafbfc"/><path d="m394.2 390.7h-2.8v-.6h6.3v.6h-2.8v7.8h-.7z" fill="#fafbfc"/><g fill="#010000"><path d="m259.75 316.2c7.02 1.06 14.05 2.04 21.05 3.21 6.49 1.08 12.56-1.63 16.24-7.15 6.64-9.97 8.69-21.41 10.8-32.85 2.19-11.92 4.3-23.85 6.54-35.75 1.96-10.4-1.77-15.71-12.3-15.42-9.6.26-19.22 1.45-28.72 2.95-14.39 2.27-28.69 5.15-43.02 7.83-1.45.27-2.92.78-4.21 1.48-3.84 2.09-7.59 2.69-11.06-.56-3.67-3.43-5.48-7.09-4.61-12.74 2.33-15.06 4.86-30.25 5.22-45.43.56-24.08 1.4-48.3-2.79-72.23-.94-5.38-2.5-10.65-3.83-15.95-1.27-5.04.42-7.07 5.46-6.01 3.53.74 6.95 1.97 11.33 3.25 4.78-9.02 9.88-18.14 14.4-27.53 1.19-2.47.9-5.8.77-8.71-.18-3.99 1.58-6.12 5.58-5.45 7.77 1.29 14.47 4.93 20.12 10.34 3.37 3.23 3.07 5.58-.82 8.63-9.37 7.36-18.81 14.64-27.95 22.99 5.35-1.12 10.72-2.14 16.05-3.39 8.08-1.89 16.12-3.91 24.17-5.92 7.23-1.8 24.17 3.9 27.89 10.12 1.27 2.12 1.69 6.44.39 8.13-9.12 11.86-10.9 26.16-14.44 39.93-1.65 6.41-3.66 12.8-6.28 18.86-2.85 6.59-5.33 6.38-11.94 4.12-3.85-1.32-8.74.14-13.12.64-9.71 1.11-19.4 2.4-29.37 3.64v20c12.26-1.94 24.19-3.64 36.04-5.75 7.98-1.42 15.65-1.4 22.45 3.47 1.81 1.3 2.69 3.89 4 5.89-1.89.8-3.72 2-5.69 2.35-13.24 2.36-26.46 5-39.8 6.55-5.64.66-11.56-1.1-18.5-1.89 0 6.05-.46 13.4.17 20.66.4 4.6 4.57 5.12 8.46 4.57 13.31-1.87 26.63-3.73 39.92-5.76 10.99-1.68 21.92-3.73 32.92-5.35 9.47-1.39 26.18 7.75 29.71 16.61 1 2.51.8 6.67-.68 8.79-7.97 11.35-9.81 24.49-12.25 37.55-2.68 14.34-5.53 28.65-8.56 42.92-2.79 13.13-11.16 22.4-21.71 29.98-3.56 2.55-6.61 1.76-9.64-1.31-8.39-8.49-16.99-16.78-25.61-25.04-1.23-1.18-3.07-1.73-4.62-2.57.6-.9 1.22-1.8 1.84-2.7zm19.02-196.65c0-6.67.12-12.94-.13-19.2-.04-.92-1.87-2.64-2.69-2.54-13.94 1.73-27.84 3.7-41.73 5.61-.75 7.89-1.42 15.01-2.12 22.35 15.57-3.21 29.71-10.55 46.67-6.22zm-1.52 10.13c-15.96 1.96-30.88 3.8-45.75 5.63v21.19c14.11-2.62 27.83-5.16 42.18-7.82.99-5.29 2.2-11.73 3.57-19z"/><path d="m109.81 123.16c-.92-10.63-1.82-21.07-2.73-31.57-14.52 2.1-24.91-4.03-27.31-12.52 2.07-.37 4.08-.85 6.11-1.08 25.38-2.94 50.77-5.85 76.16-8.77 8.83-1.01 17.4-.75 24.19 6.1 1.18 1.19 1.72 3.03 2.55 4.58-1.55.77-3.02 1.97-4.65 2.23-7.68 1.25-15.4 2.24-23.32 3.35 3.45 7.9-.52 15.28-1.17 22.86-.18 2.14-1.27 4.3-1.02 6.35.22 1.87 1.26 4.35 2.72 5.18 1.46.82 4.37.64 5.82-.34 10.72-7.24 27.42-3.06 33.09 8.56 2.34 4.78-.34 8.53-2.53 12.5-3.2 5.78-6.12 11.71-9.07 17.62-1.35 2.71-1.67 5.22 1.56 7.16.89.54 1.86 2.77 1.51 3.2-.92 1.14-2.47 2.27-3.89 2.44-9.22 1.07-18.47 1.87-27.92 2.79-.54 5.18-1 10.26-1.62 15.33-.63 5.09-1.42 10.16-2.26 16.12 7.7-.99 15.07-1.71 22.36-2.93 9.09-1.52 15.59 3.61 22.04 8.4 3.05 2.27 1.9 5.76-2.1 6.44-6.02 1.03-12.19 1.29-18.3 1.8-24.83 2.09-49.66 4.11-74.49 6.25-7.77.67-15.52 1.69-23.28 2.48-9.37.95-14.57-5.56-21.63-11.9 3.2-.82 5.1-1.6 7.06-1.77 12.91-1.14 25.83-2.21 38.76-3.17 2.54-.19 3.46-1.06 3.34-3.67-.38-8.8-.63-17.6-.77-26.41-.06-4.02-2.16-6.33-5.84-5.63-5.09.97-9.99 2.94-14.97 4.49-2.2.69-5.93 2.5-6.34 1.93-1.91-2.67-3.79-5.94-4.01-9.11-.3-4.38.79-8.88 1.47-13.31 1.3-8.47-.26-16.5-3.28-24.39-.65-1.71-1.35-4.39-.53-5.4.91-1.11 3.53-.94 5.43-1.08 2.57-.2 5.23.18 7.73-.32 6.82-1.35 13.56-3.04 21.13-4.79zm12.08-33.25c4.11 4.81 4.53 9.73 3.46 15.25-1.13 5.85-1.57 11.85-2.01 17.81-.16 2.15.45 4.4.94 6.55.38 1.65 2.01 3.71 1.47 4.7-.64 1.16-2.98 1.72-4.66 1.9-7.59.83-15.2 1.45-22.8 2.11-2.28.2-4.14.37-4.18 3.56-.07 5.64-.66 11.28-.92 16.92-.51 11.21.57 12.18 10.93 7.72 7.77-3.34 14.53-1.98 21.14 2.41 3.38 2.24 5.6 5.63 3.28 9.32-6.01 9.57-3.58 19.88-4.09 30.59 6.21-.63 11.82-1.21 17.55-1.79 0-3.49.05-6.14-.01-8.8-.21-9.8-.27-19.61-.79-29.39-.15-2.91-1.94-6.34 1.63-7.69 1.96-.74 4.76.75 7.19 1.24 1.5.3 3.11 1.13 4.48.84 5.67-1.22 11.28-2.71 16.86-4.3 1-.29 2.39-1.45 2.49-2.33.78-7.25 1.85-14.54 1.74-21.79-.11-6.76-5.36-9.86-11.92-7.68-3.27 1.08-6.45 2.67-9.36 4.5-2.82 1.77-5.53 3.78-8.44.91-3.05-3.01-6.04-6.3-4.13-11.32 3.92-10.3 2.31-20.94 1.69-31.49-.05-.87-1.91-2.42-2.79-2.33-6.08.62-12.12 1.61-18.75 2.58z"/><path d="m164.82 274.19c1.67 1.02 2.44 1.32 2.97 1.85 9.63 9.64 19.24 19.3 28.85 28.96 6.18 6.22 5.67 8.7-2.46 11.87-12.52 4.88-25.6 4.01-38.46 2.75-9.18-.9-18.46-2.83-27.19-5.78-18.35-6.2-30.17-18.91-34.11-38.24-.55-2.69-.41-5.53-.58-8.23 5.79-.94 10.2 1.41 11.03 7.07 3.01 20.62 18.33 25.56 35.31 28.37 5.21.86 10.61 1.07 15.9.92 6.47-.18 8.55-2.52 8.71-9.02.16-6.47.03-12.95.03-20.52z"/><path d="m83.61 264.43c-1.29 10.46-2.12 19.54-3.63 28.52-.99 5.9-4.53 10.55-9.34 14.25-3.63 2.79-6.36 2.06-8.64-1.59-3.87-6.18-4.42-12.83-2.09-19.59 3.98-11.57 8.16-23.07 12.43-34.54.62-1.67 2.2-2.98 3.34-4.46 1.39 1.3 3.46 2.34 4.03 3.93 1.72 4.75 2.86 9.73 3.9 13.48z"/><path d="m194.95 265.01c-1.07 4.13-1.23 8.27-5.81 9.58-4.39 1.26-7.34-1.34-9.28-4.95-4.8-8.91-9.54-17.86-14.07-26.91-.69-1.38-.15-3.38-.18-5.09 1.71.13 3.79-.33 5.06.47 6.85 4.32 14.16 8.26 19.93 13.78 2.95 2.81 2.99 8.65 4.35 13.12z"/><path d="m199.76 283.79c.31-1.5.49-3.85 1.28-5.97 3.1-8.35 6.36-16.65 9.66-24.93.44-1.09 1.44-2.61 2.32-2.71.96-.11 2.68 1 3.02 1.94 1.36 3.84 3.28 7.84 3.21 11.75-.15 7.68-1.48 15.34-2.36 23-.05.47-.42.89-.63 1.34-2.73 5.78-7.79 10.24-10.82 8.74-4.91-2.42-5.21-7.53-5.68-13.16z"/><path d="m145 263.04c-1.5 2.09-2.67 5.46-4.58 5.96-2.78.72-7.36.48-8.96-1.32-6.82-7.65-12.89-15.97-19.05-24.2-.7-.93-.63-3.01-.06-4.11.41-.79 2.37-1.35 3.44-1.11 5.65 1.25 11.38 2.38 16.82 4.3 8.29 2.93 11.51 8.97 12.39 20.48z"/><path d="m238.94 248.12c2.68 7.9 6.09 15.66 7.7 23.77.72 3.61-1.48 8.4-3.66 11.82-2.86 4.5-7.18 3.85-9.73-.94-.97-1.83-1.59-4.11-1.53-6.17.22-7.79.58-15.59 1.36-23.34.19-1.88 2.16-3.58 3.3-5.37.86.08 1.71.16 2.56.23z"/><path d="m302.93 258.24c-.29 1.47-.45 2.12-.55 2.77-.62 4.13-.82 9.25-5.92 9.76-5.06.5-8.06-3.74-9.4-8.17-1.77-5.85-3.03-11.88-4.01-17.91-.25-1.56 1.13-3.6 2.27-5 .27-.34 2.9.68 3.93 1.63 3.76 3.49 7.49 7.06 10.83 10.94 1.53 1.79 2.12 4.38 2.85 5.98z"/><path d="m258.67 257.8c0-3.16-.31-6.37.13-9.47.22-1.52 1.85-2.83 2.84-4.24 1.14.81 2.75 1.38 3.34 2.49 3.25 6.09 6.66 12.15 9.2 18.55 1.79 4.51-1.28 8.32-4.27 11.44-2.14 2.22-5.19 2.25-6.9-.46-1.89-3-3.38-6.41-4.25-9.84-.68-2.66-.14-5.63-.14-8.46.02-.01.03-.01.05-.01z"/></g></svg>