<svg enable-background="new 0 0 400 400" viewBox="0 0 400 400" xmlns="http://www.w3.org/2000/svg"><path d="m346.9 398 5.4-7.3h-5.2v-.6h5.9v.6l-5.4 7.2h5.5l-.1.6h-6.2v-.5z" fill="#fafbfc"/><path d="m354.7 390.1h2.8c2.3 0 3.9 1.6 3.9 4.1s-1.6 4.3-3.9 4.3h-2.8zm.6 7.8h2c2.2 0 3.3-1.6 3.3-3.6 0-1.8-1-3.6-3.3-3.6h-2z" fill="#fafbfc"/><path d="m363.9 390.1v8.4h-.6v-8.4z" fill="#fafbfc"/><path d="m372.5 396.3c-.4 1.3-1.4 2.3-3.2 2.3-2.4 0-3.7-1.9-3.7-4.3 0-2.3 1.2-4.3 3.7-4.3 1.8 0 2.9 1 3.2 2.4h-.6c-.4-1.1-1.1-1.8-2.5-1.8-2.1 0-3 1.9-3 3.7s.9 3.7 3 3.7c1.4 0 2.1-.7 2.5-1.7z" fill="#fafbfc"/><path d="m373.8 398.5v-1.5h.6v1.5z" fill="#fafbfc"/><path d="m376.2 398.5v-8.4h1c1.3 2 4.4 6.7 4.9 7.6-.1-1.2-.1-2.4-.1-3.8v-3.8h.7v8.4h-.9c-1.2-1.9-4.4-6.8-5-7.7.1 1.1 0 2.3 0 3.9v3.9h-.6z" fill="#fafbfc"/><path d="m390 394.4h-4.3v3.5h4.7l-.1.6h-5.2v-8.4h5.1v.6h-4.5v3.1h4.3z" fill="#fafbfc"/><path d="m394.2 390.7h-2.8v-.6h6.3v.6h-2.8v7.8h-.7z" fill="#fafbfc"/><g fill="#010000"><path d="m196.08 244.92c11.52-1.27 22.03-2.42 32.7-3.6 0-5.97 0-11.43 0-17.34-7.02.46-14.04.92-21.51 1.41-.41 1.18-.93 2.69-1.49 4.31-3.94 1.18-6.77-.64-7.75-4.16-2.32-8.25-4.19-16.64-6.06-25.01-2.01-9.03-3.81-18.11-5.81-27.66-10.85 6.18-19.05 15.38-31.96 16.1 1.12-1.28 2.19-2.61 3.37-3.82 9.75-10.03 19.74-19.84 29.25-30.1 11.79-12.72 19.7-27.81 25.49-43.74-5.99 0-12 .87-17.61-.24-5.72-1.13-10.38-5.11-15.2-10.91 5.76-.88 10.21-1.64 14.68-2.24 6.42-.86 12.83-1.83 19.28-2.34 4.1-.32 5.42-2.47 5.42-6.09.01-7.45.11-14.9-.05-22.34-.13-5.95 1.35-7.93 6.82-5.98 5.98 2.14 11.51 5.69 16.95 9.08.89.55.86 3.66.31 5.25-1.84 5.31-4.1 10.47-6.65 16.78 6.26-.94 11.57-1.67 16.86-2.56 4.9-.82 9.82-1.63 14.66-2.75 9.02-2.09 16.14 2.42 23.31 6.59 1.11.64 2.25 3.16 1.82 4.08-.69 1.49-2.57 3.18-4.13 3.39-9.21 1.24-18.48 2.07-27.73 3.05-2.08.22-4.15.49-6.46.76 17.39 22.17 38.04 39.15 63.94 49.45 8.48 3.37 16.66 7.52 24.93 11.42 1.54.73 2.86 1.93 5.24 3.57-2.65 1.29-4.24 2.51-5.99 2.84-9.29 1.76-18.59 3.58-27.96 4.82-7.85 1.03-14.84-1.28-20.14-8-5.85 7.33-8.9 15.27-10.58 24.06-1.48 7.78-3.85 15.42-6.28 22.97-.76 2.39-2.74 4.54-4.6 6.35-.84.82-3.55 1.26-4.04.69-4.97-5.76-10.89-1.21-16.28-1.64-2.92-.23-5.92.63-9.46 1.07-.4 4.95-.81 10.13-1.32 16.38 4.47-.56 8.34-.93 12.18-1.55 7.9-1.26 16.73 2.95 19.99 10.53-5.56.88-10.85 1.72-16.15 2.55-5.23.82-10.46 1.62-15.91 2.47-.36 4.55-.71 8.97-1.11 14.09 9.11-1.23 17.66-1.96 26.02-3.61 8.87-1.75 16.44.66 23.38 5.73 1.35.99 2.86 3.93 2.34 4.83-.88 1.5-3.26 2.73-5.14 2.95-8.25.95-16.56 1.41-24.83 2.21-19.84 1.92-39.71 3.65-59.5 6.03-10.39 1.25-17.93-2.54-25.24-11.42 17.55-1.92 34.03-3.72 50.69-5.54 0-4.71 0-8.98 0-13.76-11.63.78-24.11 4.55-32.69-9.41zm4.83-86.44c.22.56.43 1.13.65 1.69 24.87-2.99 49.74-5.99 75.74-9.11-9.1-11.65-17.13-22.19-25.47-32.47-3.11-3.84-6.69-7.39-10.49-10.55-4.17-3.46-9.86-1.62-11.7 3.33-5.42 14.57-12.4 28.25-22.57 40.15-2.01 2.36-4.11 4.64-6.16 6.96zm38.46 7.13c6.02 5.1 5.7 10.51 5.38 16.38-.55 9.85-.15 19.76-.15 29.99 6.93-.57 14.45-1.19 23.06-1.9 1.46-13.41 2.86-26.71 4.37-39.99.49-4.31-1.79-5.75-5.49-5.63-8.59.27-17.16.71-27.17 1.15zm-39.16 4.25c2.27 15.61 4.48 30.76 6.76 46.44 7.4-.7 14.58-1.37 21.88-2.06 0-11.14.23-21.6-.11-32.03-.14-4.23-1.33-8.48-2.48-12.59-.29-1.03-2.34-2.34-3.48-2.24-7.41.62-14.79 1.59-22.57 2.48z"/><path d="m57.02 99.38c1.55-.27 2.82-.79 4.02-.67 19.7 2.08 39.04-1.56 58.46-3.65 10.38-1.12 20.72-2.72 31.06-4.17 6.04-.85 10.94 1.95 15.99 4.59 12.92 6.77 13.76 8.01 5.53 20.05-7.15 10.47-7.56 22.41-10.04 33.99-2.07 9.71-4.42 19.38-6.92 28.99-.65 2.51-2.02 4.95-3.53 7.08-2.78 3.91-6.25 3.62-9.38-.01-1.07-1.24-3.14-2.29-4.74-2.29-5.47.01-10.97.33-16.4 1.01-1.33.17-3.4 2.16-3.46 3.39-.34 6.79-.16 13.61-.16 21.27 2.98-.22 6.04-.28 9.05-.7 7.82-1.1 15.37-.88 21.72 4.57 1.38 1.18 2.01 3.23 2.98 4.88-1.67.8-3.27 2.06-5.03 2.33-9.8 1.53-19.64 2.82-29.48 4.19v22.22c7.37-.92 14.42-1.68 21.43-2.7 8-1.17 14.07 3.15 20.21 7.04 1.18.75 2.17 3.32 1.78 4.62-.37 1.25-2.57 2.56-4.09 2.75-9.4 1.12-18.84 1.87-28.25 2.86-17.35 1.82-34.74 3.38-52.02 5.75-6.42.88-18.3-6.06-20.36-12.44 5.61-.78 11.09-1.62 16.59-2.28 9.23-1.12 18.5-2.01 27.71-3.3 1.42-.2 3.66-1.97 3.72-3.13.37-6.29.17-12.61.17-19.88-12.53 1.92-24.79 3.25-32.84-10.56 3.73-.44 7.07-.93 10.43-1.22 5.79-.5 11.6-.96 17.4-1.3 3.55-.21 5.33-1.39 5.13-5.47-.35-6.94-.1-13.91-.1-20.65-7.71 0-14.79 0-22.47 0-.3 1.39-.75 3.09-1.01 4.83-.58 3.84-3.05 4.99-6 2.42-1.42-1.23-2.74-3.13-3.1-4.93-1.56-7.79-3.63-15.62-3.9-23.49-.65-19.33-2.69-38.41-7.16-57.22-.65-2.71-1.77-5.31-2.94-8.77zm85.97 72.54c1.14-6.71 2.8-13.84 3.47-21.06 1.16-12.56 1.75-25.18 2.48-37.77.16-2.8-.39-5.85-3.91-5.85-9.83.01-19.65.4-29.35.64 1.36 3.28 3.21 5.79 3.31 8.37.27 6.79-.34 13.61-.39 20.43-.09 11.94-.03 23.87-.03 35.25 7.78-.01 15.6-.01 24.42-.01zm-61.25 3.89c6.52-.35 12.81-.49 19.03-1.2 1.08-.12 2.68-2.64 2.69-4.06.05-8.3-.13-16.61-.57-24.9-.49-9.44-1-18.9-2.22-28.25-.38-2.94-2.93-7.8-4.78-7.95-6.63-.52-13.39.61-20.19 1.13 2 21.71 3.97 42.98 6.04 65.23z"/><path d="m280.92 291.81c1.7.22 3.26-.05 4.15.6 7.06 5.17 14.37 10.11 20.86 15.94 4.71 4.23 2.54 19.59-2.53 23.42-3.47 2.62-8.42 1.39-10.58-3.62-4.32-10.03-8.05-20.31-11.82-30.57-.58-1.56-.08-3.51-.08-5.77z"/><path d="m75.35 298.55c-.9 9.03-.91 19.33-7.71 27.75-2.57 3.18-6 7.98-9.93 5.22-2.83-1.99-3.72-7.67-4.13-11.84-.28-2.83 1.47-6.02 2.81-8.81 3.65-7.61 7.49-15.14 11.43-22.61.74-1.4 2.28-2.38 3.45-3.55 1.12 1.29 2.89 2.43 3.23 3.91.68 2.86.56 5.91.85 9.93z"/><path d="m196.54 309.18c-1.05 9.57-.88 18.41-6.95 25.5-2.93 3.42-6.22 8.09-10.95 5.91-4.34-2-4.32-7.61-3.61-12.07.51-3.19 1.9-6.34 3.42-9.24 3.31-6.32 6.88-12.5 10.5-18.64.76-1.29 2.17-2.2 3.28-3.29 1.09 1.33 2.73 2.5 3.16 4.02.79 2.82.89 5.85 1.15 7.81z"/><path d="m88.76 313.27c1.13-8.87 2.03-17.28 3.41-25.6.24-1.47 2.49-2.61 3.81-3.9.99 1.11 2.46 2.07 2.9 3.37 2.08 6.1 4.12 12.23 5.72 18.47 1.46 5.67-.1 11.02-4 15.25-1.57 1.71-4.53 3.32-6.59 3.04-1.66-.23-3.24-3.22-4.24-5.28-.82-1.71-.75-3.85-1.01-5.35z"/><path d="m164.3 298.46c-.54 2.18-.55 4.04-1.42 5.32-1.95 2.87-4.33 5.45-6.54 8.15-2.76-2.37-7.14-4.28-7.97-7.19-2.19-7.7-3.05-15.81-3.89-23.82-.16-1.5 1.96-3.68 3.56-4.69.62-.39 3.08 1.34 4.12 2.6 3.26 3.95 6.45 8 9.23 12.29 1.48 2.28 2.07 5.14 2.91 7.34z"/><path d="m244.91 297.29c.22-.49.62-2.68 1.42-2.83 1.27-.24 3.15.5 4.15 1.47 3.33 3.23 6.53 6.62 9.52 10.17 4.43 5.27 4.42 15.97.2 21.64-3.08 4.15-8.81 3.5-10.5-1.68-1.79-5.46-2.67-11.24-3.66-16.94-.63-3.56-.72-7.24-1.13-11.83z"/><path d="m117.7 295.42c0-3.48-.29-7 .14-10.43.19-1.49 1.64-3.57 2.93-3.94 1.1-.32 3.39 1.08 4.13 2.33 3.02 5.1 5.94 10.3 8.35 15.71 2.43 5.47 1.01 10.7-2.49 15.39-2.73 3.67-6.5 4.04-8.96.27-2-3.06-3.25-6.79-4.07-10.4-.65-2.84-.13-5.94-.13-8.93z"/><path d="m220.69 296.67c5.25 6.71 11.19 13.48 11.94 22.18.45 5.27-2.18 11.07-7.32 14.47-2.88 1.9-7.12.03-7.42-3.74-.59-7.4-.61-14.87-.53-22.3.04-3.47.88-6.93 1.35-10.39.66-.07 1.32-.14 1.98-.22z"/><path d="m245.91 205.08c1.19-3.72 2.63-7.38 3.51-11.17 1.1-4.74 1.91-9.56 2.53-14.38.42-3.21 1.76-5.15 5.09-4.48 2.39.48 4.79 1.4 6.93 2.59 2.94 1.63 3.73 3.75 1.19 6.79-5.11 6.11-9.89 12.49-14.86 18.71-.86 1.07-2.03 1.89-3.06 2.83-.44-.3-.89-.6-1.33-.89z"/><path d="m226.33 200.41c-2.03 2.99-3.87 5.68-5.71 8.38-2.35-1.9-5.78-3.34-6.84-5.8-2.46-5.71-3.9-11.88-5.43-17.94-.27-1.08.77-2.81 1.71-3.73.36-.35 2.37.47 3.2 1.23 2.93 2.68 6 5.32 8.39 8.46 1.9 2.49 2.88 5.68 4.68 9.4z"/><path d="m122.08 156.57c1.6-5.83 3.44-11.61 4.7-17.51.92-4.3 1.35-8.76 1.47-13.16.09-3.3 1.36-5.73 4.48-4.89 4.34 1.17 8.4 3.45 12.44 5.52.42.21.36 2.53-.22 3.35-6.09 8.52-12.3 16.95-18.56 25.35-.7.94-1.91 1.5-2.88 2.23-.47-.3-.95-.59-1.43-.89z"/><path d="m85.15 128.93c9.24 4.41 15.72 17.66 12.57 26.08-.86 2.3-3.51 3.94-5.34 5.88-1.74-2.02-4.48-3.79-5.04-6.09-2.02-8.4-4.01-16.93-2.19-25.87z"/></g></svg>