<svg enable-background="new 0 0 400 400" viewBox="0 0 400 400" xmlns="http://www.w3.org/2000/svg"><path d="m183 249.63c-17.36 21.31-37.92 36.7-59.31 51.25-12.14 8.25-25.09 14.51-38.71 19.63-4.31 1.62-6.96.43-8.91-4.18 37.47-19.13 68.19-46.27 94.44-80.09-11.63 1.33-22.23 2.56-32.83 3.75-6.36.71-12.72 1.74-19.09 1.91-8.61.23-14.95-5.07-21.14-10.18-.93-.77-1.35-2.75-1.15-4.03.11-.71 1.98-1.53 3.12-1.63 16.73-1.42 33.47-2.64 50.19-4.1 10.95-.96 21.87-2.24 33.1-3.41 0-9.98 0-20.06 0-30.14-5.04.23-9.92.38-14.8.7-12.11.8-23.84.19-33.17-9.01-1-.98-1.62-2.93-1.43-4.3.1-.75 2.25-1.67 3.52-1.72 10.76-.46 21.53-.66 32.29-1.12 4.09-.17 8.16-.81 13.16-1.33-.48-7.3-.66-14.68-1.55-21.97-.83-6.78-2.52-13.45-3.68-20.19-.63-3.7 2.24-6.76 5.59-5.27 7.68 3.41 15.36 7.09 22.36 11.69 4.39 2.88 1.06 7.9.55 11.94-.88 6.92-2 13.81-3.1 21.22 6.39-.84 11.73-1.32 16.99-2.29 11.02-2.04 21.23-.4 30.31 6.31 1.25.92 2.15 3.22 2.03 4.79-.09 1.16-1.95 2.86-3.27 3.14-4.45.95-9 1.61-13.54 1.97-10.82.87-21.66 1.5-32.72 2.24v31.82c5.68-.38 11.35-.61 16.99-1.18 8.15-.82 16.28-1.9 24.42-2.83 5.86-.68 11.73-1.34 17.6-1.94 9.8-1 17.89 2.96 25.21 8.95 1.41 1.15 2.83 2.42 3.85 3.9 1.18 1.71 3.06 4.99 2.64 5.37-1.86 1.67-4.42 3.5-6.75 3.53-8.09.12-16.2-.65-24.3-.78-10.16-.17-20.34-.23-30.49.02-7.89.19-15.76.92-23.82 1.43 35.54 36.51 75.41 66.16 125.34 79.56-1.25 4.73-3.78 6.54-9.9 6.89-14.69.84-29.39 1.55-44.1 2-7.67.24-13.53-2.94-18.32-9.42-6.05-8.18-13.3-15.48-19.85-23.3-8.33-9.94-16.53-19.99-24.71-30.04-4.44-5.45-8.73-11.02-13.71-17.32-.15 2.02-.33 3.33-.33 4.64-.02 28-.06 56 .03 83.99.02 4.94.6 9.87.96 14.8.47 6.54-2.71 11.41-7.38 15.37-.87.74-3.55.62-4.4-.18-1.86-1.73-3.29-4.04-4.55-6.31-6.65-11.96-8.56-24.51-4.94-37.91 1.06-3.91 1.18-8.16 1.21-12.25.12-17.64.05-35.29.05-54.39z" fill="#010100"/><path d="m196.28 80.47c-4.75 5.31-9.61 10.9-14.63 16.35-8.85 9.62-17.12 19.91-26.84 28.56-17.53 15.6-35.34 31.03-54.22 44.91-10.36 7.61-23.11 12.04-34.91 17.63-4.68 2.22-9.67 3.8-14.6 5.41-1.08.35-2.52-.43-3.8-.69.35-1.16.35-2.72 1.12-3.41 2.81-2.49 5.89-4.68 8.86-6.99 14.99-11.65 30.4-22.8 44.84-35.09 14.6-12.43 28.74-25.49 42.17-39.18 14.63-14.92 26.2-32.2 33.95-51.77.72-1.81.63-4.2.21-6.16-1.34-6.2 2.14-10.14 8.36-8.93 1.88.37 4.1.84 5.4 2.08 7.14 6.76 12.34 14.76 13.7 24.71.23 1.71-.96 3.61-1.64 5.94 10.95 10.3 22.19 21.06 33.65 31.56 7.4 6.78 15.14 13.18 22.73 19.76 13.01 11.28 26.43 21.76 43.32 27.01 14.58 4.53 28.96 9.73 43.32 14.95 2.83 1.03 5.14 3.5 7.69 5.31-2.62 1.22-5.16 3.25-7.87 3.51-13.26 1.29-26.58 1.96-39.85 3.13-8.52.75-16.97.64-25.06-2.17-3.41-1.19-6.82-3.28-9.39-5.82-5.02-4.97-9.46-10.53-14.09-15.88-10.44-12.07-21.01-24.03-31.23-36.28-10.59-12.69-20.83-25.66-31.19-38.45z" fill="#010100"/><g fill="#fbfcfa"><path d="m346.9 398 5.4-7.3h-5.2v-.6h4.9v.6l-5.4 7.2h5.5l-.1.6h-6.2v-.5z"/><path d="m354.7 390.1h2.8c2.3 0 3.9 1.6 3.9 4.1s-1.6 4.3-3.9 4.3h-2.8zm.6 7.8h2c2.2 0 3.3-1.6 3.3-3.6 0-1.8-1-3.6-3.3-3.6h-2z"/><path d="m363.9 390.1v8.4h-.6v-8.4z"/><path d="m372.5 396.3c-.4 1.3-1.4 2.3-3.2 2.3-2.4 0-3.7-1.9-3.7-4.3 0-2.3 1.2-4.3 3.7-4.3 1.8 0 2.9 1 3.2 2.4h-.6c-.4-1.1-1.1-1.8-2.5-1.8-2.1 0-3 1.9-3 3.7s.9 3.7 3 3.7c1.4 0 2.1-.7 2.5-1.7z"/><path d="m373.8 398.5v-1.5h.6v1.5z"/><path d="m376.2 398.5v-8.4h1c1.3 2 4.4 6.6 4.9 7.6-.1-1.2-.1-2.4-.1-3.8v-3.8h.7v8.4h-.9c-1.2-1.9-4.4-6.8-5-7.7.1 1.1 0 2.3 0 3.9v3.9h-.6z"/><path d="m390 394.4h-4.3v3.5h4.7l-.1.6h-5.2v-8.4h5.1v.6h-4.5v3.1h4.3z"/><path d="m394.2 390.7h-2.8v-.6h6.3v.6h-2.8v7.8h-.7z"/></g></svg>