<svg enable-background="new 0 0 400 400" viewBox="0 0 400 400" xmlns="http://www.w3.org/2000/svg"><path d="m93.61 327.31c2.05-9.85 3.98-18.27 5.52-26.75 1.2-6.58 2.02-13.24 2.84-19.89 1.39-11.22 2.65-22.45 3.93-33.68.15-1.32.09-2.66.09-3.99.01-14.66-.04-29.32.02-43.98.04-10.42-.63-20.6-6.76-29.67-.91-1.34-1.22-4.69-.46-5.25 1.85-1.34 4.53-2.26 6.81-2.13 5.52.31 11.06 2.18 16.49 1.85 11.93-.72 23.8-2.47 35.71-3.71 7.52-.78 15.07-1.33 22.58-2.13 11.57-1.24 23.1-2.89 34.69-3.85 18.65-1.55 36.59-6.31 54.58-11.03 2.18-.57 5.19-.7 6.98.37 7.26 4.35 14.25 9.16 21.23 13.97 3.36 2.31 3.83 5.8 1.84 9.08-8.55 14.07-8.4 29.84-8.58 45.34-.4 34.31-.23 68.64-.07 102.96.06 13.58-2.42 26.42-9.61 38.02-1.37 2.22-4.12 4.34-6.6 4.92-3.06.72-4.24-2.28-5.63-4.93-3.45-6.6-7.44-12.93-11.46-19.22-.61-.95-2.51-1.6-3.76-1.53-15.81.87-31.6 1.9-47.4 2.87-6.1.37-12.2.73-18.3 1.04-13.36.69-26.73 1.27-40.09 2.03-9.71.55-19.41 1.17-29.08 2.13-1.45.14-3.18 2.04-3.98 3.55-4.83 9.13-7.89 9.46-13.3.46-3.4-5.63-5.83-11.85-8.23-16.85zm174.25-8.72c.41-9.43 1.06-17.96 1.09-26.5.12-36.48.04-72.96.09-109.44 0-2.1.4-4.24.84-6.31 1.84-8.64-1.15-12.54-10.06-12.29-18.03.52-36.06 1.17-54.07 2.02-6.37.3-12.72 1.29-19.07 2.11-9.24 1.2-18.47 2.52-27.7 3.82-11.6 1.63-23.2 3.28-34.91 4.94-.72 12.04-1.54 23.37-2.03 34.73-.79 18.19-1.44 36.39-2.01 54.58-.45 14.26-.6 28.52-1.07 42.78-.18 5.53-.85 11.05-1.36 17.35 4.1-.56 7.13-1.15 10.19-1.35 11.86-.75 23.73-1.34 35.59-2.05 4.44-.26 8.87-.62 13.29-1.04 13.57-1.29 27.13-2.62 40.69-3.94 4.41-.43 8.83-.88 13.24-1.29 12.34-1.16 24.78-6.4 37.26 1.88z" fill="#010100"/><path d="m106.56 101.83c30.76-1.98 61.26-3.94 92.92-5.97-12.44-10.95-19.26-24.67-27.44-37.41-1.83-2.84-3.14-6.06-4.35-9.24-1.31-3.45.73-6 4.2-5.09 13.46 3.54 26.78 7.18 36.9 17.98 5.8 6.19 10.21 23.31 3.38 31.95 7.23-.74 13.96-1.27 20.65-2.15 8.75-1.15 17.48-2.46 26.18-3.92 11.08-1.86 22.2-3.65 33.17-6.05 6.63-1.44 12.05 1.02 16.66 4.62 8.61 6.72 16.92 13.92 24.64 21.64 5.74 5.74 3.26 11.38-4.66 12.84-15.4 2.83-30.44 7-44.93 12.99-.3.12-.56.42-.86.45-2.12.23-4.25.41-6.38.6.49-2.23.58-4.64 1.53-6.65 3.27-6.88 7.69-13.33 10.07-20.48 2.41-7.23 1.18-9.52-6.4-8.93-15.73 1.22-31.46 2.54-47.18 3.95-9.81.88-19.61 1.86-29.38 3.06-12.01 1.47-23.99 3.23-35.99 4.81-8.12 1.07-16.23 2.16-24.37 3.06-10.28 1.13-20.57 2.14-30.88 3.03-2.22.19-4.5-.36-7.63-.65-.36.89-.82 2.34-1.49 3.69-5.48 11.06-11.07 22.06-16.48 33.16-3.2 6.56-12.61 7.67-17.42 5.74-4-1.6-6.76-11.1-4.35-16.88 2.17-5.2 5.76-9.79 8.23-14.88 5.19-10.69 9.98-21.56 15.1-32.29 1.67-3.5 3.66-6.88 5.84-10.09 1.84-2.7 3.81-2.28 4.93.76 2.02 5.48 3.91 10.99 5.79 16.35z" fill="#010100"/><path d="m194.73 257.06c-9.76 35.23-37.08 46.32-66.53 54.62-.46-.63-.93-1.25-1.39-1.88 1.49-.95 2.9-2.06 4.48-2.83 10.66-5.22 20.37-11.83 29.08-19.87 10.83-9.98 15.98-22.94 18.53-37 1.52-8.36 2.21-16.88 3.06-25.35.54-5.41.87-10.86 1-16.3.2-8.28-.92-16.28-4.96-23.77-2.41-4.47-.58-8.29 3.66-7.51 6.97 1.28 14.04 2.99 20.52 5.79 6.97 3.01 6.08 6.22 3.02 11.98-2.81 5.3-4 10.54-4.26 16.35-.4 9.02-1.16 18.03-1.84 28.03 4.62-3.51 9.17-6.2 12.73-9.85 7.65-7.85 14.97-16.04 22.03-24.43 2.34-2.78 4.54-2.72 6.72-1.07 5.42 4.11 10.95 8.21 15.68 13.05 3.92 4.03 1.85 7.45-3.49 9.09-13.19 4.05-26.23 8.63-39.29 13.09-5.06 1.73-10.02 3.71-15.19 5.64-.26.92-.57 2.18-.95 3.42-1.17 3.79.34 5.13 4.16 5.82 16.28 2.94 32 7.53 45.91 17.01 8.19 5.58 11.02 17.46 7.9 25.12-2.2 5.4-6.06 6.6-10.63 2.8-10.01-8.29-19.67-16.99-29.59-25.39-6.36-5.37-12.92-10.51-20.36-16.56z" fill="#010100"/><path d="m134.66 215.1c13.5.76 28.77 10.85 31.57 20.68 1.81 6.32 1.45 12.66-2.3 18.38-2.21 3.37-5.19 3.5-7.6.54-3.69-4.53-7.21-9.26-10.25-14.24-3.7-6.08-6.94-12.44-10.11-18.82-.87-1.76-.83-3.99-1.31-6.54z" fill="#010100"/><g fill="#fbfcfa"><path d="m346.9 398 5.4-7.3h-5.2v-.6h4.9v.6l-5.4 7.2h5.5l-.1.6h-6.2v-.5z"/><path d="m354.7 390.1h2.8c2.3 0 3.9 1.6 3.9 4.1s-1.6 4.3-3.9 4.3h-2.8zm.6 7.8h2c2.2 0 3.3-1.6 3.3-3.6 0-1.8-1-3.6-3.3-3.6h-2z"/><path d="m363.9 390.1v8.4h-.6v-8.4z"/><path d="m372.5 396.3c-.4 1.3-1.4 2.3-3.2 2.3-2.4 0-3.7-1.9-3.7-4.3 0-2.3 1.2-4.3 3.7-4.3 1.8 0 2.9 1 3.2 2.4h-.6c-.4-1.1-1.1-1.8-2.5-1.8-2.1 0-3 1.9-3 3.7s.9 3.7 3 3.7c1.4 0 2.1-.7 2.5-1.7z"/><path d="m373.8 398.5v-1.5h.6v1.5z"/><path d="m376.2 398.5v-8.4h1c1.3 2 4.4 6.6 4.9 7.6-.1-1.2-.1-2.4-.1-3.8v-3.8h.7v8.4h-.9c-1.2-1.9-4.4-6.8-5-7.7.1 1.1 0 2.3 0 3.9v3.9h-.6z"/><path d="m390 394.4h-4.3v3.5h4.7l-.1.6h-5.2v-8.4h5.1v.6h-4.5v3.1h4.3z"/><path d="m394.2 390.7h-2.8v-.6h6.3v.6h-2.8v7.8h-.7z"/></g></svg>