<svg enable-background="new 0 0 400 400" viewBox="0 0 400 400" xmlns="http://www.w3.org/2000/svg"><path d="m252.78 211.85c0-5.32 0-10.26 0-16.1-6.48.32-12.85.71-19.23.94-4.81.18-9.83 1.01-14.37-.06-2.75-.65-4.77-4.38-7.13-6.73 1.04-.97 1.96-2.58 3.14-2.8 9.78-1.84 19.6-3.43 29.41-5.1 2.38-.41 4.76-.84 7.23-1.28 0-4.92 0-9.55 0-14.76-11.89 2.37-23.47 5.25-35.22 6.78-6.35.82-13-.68-20.08-1.18-.39 2.83-.94 6.81-1.48 10.79-2.02 14.92-3.05 30.05-6.32 44.69-3.6 16.12-8.7 31.98-14.18 47.6-5.62 16.01-15.91 29.55-25.98 43-2.94 3.92-7.28 6.78-10.98 10.13-.58-.36-1.16-.73-1.75-1.09.52-2.18.59-4.62 1.63-6.52 9.6-17.49 17.4-35.79 23.38-54.75 6.07-19.26 10.52-38.93 13.39-59.03 2.9-20.28 5.43-40.53 4.66-61.01-.45-11.97-1.81-23.92-2.99-35.85-.22-2.19-1.51-4.28-2.33-6.4-1.86-4.79.14-8.46 5.21-9.09 4.07-.51 8.17-.77 12.27-1.02 16.97-1.03 33.94-1.99 50.9-3.06 1.59-.1 3.14-.83 3.83-1.02-2.27-12.48-4.51-24.8-6.75-37.12.6-.47 1.21-.93 1.81-1.4 8.04 2.08 14.91 6.26 20.74 12.59 7.4 8.03 1.39 16.34.8 24.95 15.47-2.62 30.78-5.85 46.26-7.59 9.16-1.03 17.49 3.26 24.42 9.36 2.83 2.49 1.59 6.31-2.08 7.24-2.2.56-4.48.83-6.75 1.02-15.57 1.36-31.13 2.73-46.71 3.93-4.13.32-8.31.05-12.99.35 8.66 3.88 9.13 10.42 5.97 18.71 6.36-1.1 12.21-1.45 17.62-3.2 9.78-3.15 18.26-1.68 26.12 4.82 2.11 1.75 4.69 2.93 6.99 4.47 4.67 3.13 5.21 6.08 2.25 11-1.24 2.06-2.32 4.21-3.81 6.95 13.82-3.64 22.42 3.63 31.46 13.76-3.42 1.25-6.07 2.96-8.79 3.08-8.48.37-17 .26-25.49.07-3.08-.07-3.92 1.22-5.01 3.94-3.27 8.24-2.81 14.95 7.86 19.58-2.98 2.09-4.59 4.1-6.47 4.39-6.81 1.03-13.71 1.52-20.58 2.14-7.69.7-15.38 1.33-23.36 2.01v16.05c6.04-.89 11.96-1.65 17.84-2.65 5.93-1.01 11.78-2.76 17.74-3.18 3.35-.23 7.32.83 10.15 2.64 4.11 2.64 7.88 6.14 10.91 9.98 1.53 1.93 1.82 5.52 1.42 8.17-1.09 7.22-3.81 14.29-4.1 21.5-.37 9.16 1.03 18.38 1.66 27.58.05.66.06 1.33.07 2 .34 17.6.81 35.2.93 52.8.05 7.13-2 13.84-6.21 19.75-3.86 5.42-8.04 5.9-12.53.99-7.9-8.64-15.56-17.49-23.27-26.3-.58-.66-.71-1.7-1.34-3.33 5.67.97 10.72 1.7 15.71 2.72 4.49.91 7.37-.31 7.56-4.96.46-11.05.15-22.12.15-32.96-10.96.86-22.58 1.78-35.01 2.76v5.37c0 10.83.38 21.68-.14 32.49-.31 6.44-1.87 12.84-3.24 19.18-.31 1.41-2.17 2.49-3.44 3.86-6.2-5.93-7-13.46-8.01-20.55-1.3-9.1-1.47-18.37-2.17-27.56-.28-3.71-.69-7.41-1.04-11.15-11.27-.46-21.94 6.33-32.86-.12-6.85 22.47-12.87 45.25-33.57 59.28-.56-.26-1.12-.53-1.68-.79.73-2.22 1.19-4.58 2.23-6.64 10.2-20.11 17.07-41.42 19.7-63.66 2.22-18.77 3.52-37.87-1.47-56.62-1.04-3.91.85-6.44 4.83-6.63 14.04-.7 28.07-1.41 42.66-2.15zm-54.41-52.9c17.21-1.37 35.18-2.81 53.38-4.26 0-5.88 0-11.61 0-17.63-5.59.59-10.94 1.03-16.25 1.74-7.48.99-15 2.49-21.89-2-1.67-1.09-2.84-2.97-4.24-4.49.23-.5.46-1 .69-1.5 13.23-1.66 26.45-3.32 40.72-5.12-1.92-6.34-3.96-12.12-5.36-18.04-.77-3.25-2.43-3.95-5.26-3.65-6.52.68-13.05 1.34-19.57 2-7.12.73-14.25 1.45-22.22 2.27zm107.76 83.75c-.82-6.56-1.39-11.9-2.24-17.18-.18-1.13-1.2-2.75-2.16-3.04-4.63-1.36-9.34-3.02-14.09-3.27-4.48-.24-9.08 1-13.56 1.89-1.13.23-2.87 1.57-2.91 2.47-.26 6.08-.13 12.18-.13 18.39 11.88-.63 23.1-6.37 35.09.74zm-34.8 12.79v18.63c12-1.28 23.65-5.11 35.42-.04 0-7.65 0-14.75 0-21.59-11.84 1-23.44 1.99-35.42 3zm-48.59 22.98c10.6-.95 20.31-1.81 29.91-2.67 0-6.55 0-12.59 0-18.66-9-.44-17.37 5.35-26.85.99-.97 6.43-1.93 12.81-3.06 20.34zm29.95-34.63c0-7.2 0-13.91 0-20.61-8.02 1.01-15.74 1.98-23.32 2.94-1.3 6.72-2.51 13-3.91 20.25 9.72-.92 18.32-1.73 27.23-2.58zm44.3-95.07c0-3.65.49-6.89-.17-9.88-.47-2.13-2.45-5.59-3.79-5.61-7.96-.12-15.94.59-23.61 1.01v17.49c9.29-1.01 18.17-1.98 27.57-3.01zm-1.21 13.14c-8.96 1.06-17.77 2.1-26.39 3.12v13.89c8.22-.86 16.05-1.68 24.67-2.58.51-4.27 1.08-9.03 1.72-14.43z" fill="#010100"/><path d="m77.24 301.52c5.58 1.4 10.59 2.69 15.63 3.9 2.53.61 5.2 1.71 7.61 1.34 1.66-.26 3.91-2.43 4.31-4.13 1.16-4.91 1.82-9.99 2.14-15.04.57-8.92.77-17.86 1.06-26.79.37-11.1.68-22.2 1-33.3.05-1.59.01-3.18.01-6.19-9.51 12.12-18.19 23.09-26.75 34.14-3.71 4.79-7.93 6.35-13.5 4.56-2.63-.85-5.64-1.2-7.79-2.74-2.99-2.14-6.32-4.77-7.69-7.96-1.78-4.16 2.54-6.79 5.51-8.09 10.6-4.67 17.71-13.52 26.18-20.72 7.77-6.61 15.54-13.25 23-20.2 1.66-1.55 2.86-4.45 2.9-6.75.26-14.64.13-29.29.13-44.74-6.55 1.25-12.7 2.32-18.8 3.6-10.7 2.25-20.66.99-29.32-6.17-1.27-1.05-1.88-2.88-2.8-4.35 1.53-.63 3-1.55 4.59-1.85 10.09-1.92 20.21-3.68 30.31-5.55 4.16-.77 8.37-1.43 12.42-2.62 1.41-.41 3.41-2.23 3.43-3.44.23-14.99.56-30-.03-44.98-.26-6.54-.66-13.37-4.17-19.47-1.15-1.99-1.88-4.93-1.32-7.03.76-2.85 1.51-6.77 6.32-5.98 8.48 1.4 16.21 4.53 21.77 11.17 3.44 4.11 3.47 9.34 1.7 14.51-5.33 15.54-5.57 31.61-4.97 47.8 4.94.53 9.68.78 14.31 1.62 2.99.54 5.81 1.99 8.74 2.96 2.92.96 4.26 2.77 3.83 5.95-.41 3.03-1.99 4.52-4.99 5.06-7.85 1.41-15.66 3.02-23.78 4.61v38.82c7.83-6.67 15.19-12.93 22.54-19.19.71.4 1.41.79 2.12 1.19-.52 2.22-.39 4.95-1.66 6.57-6.49 8.26-13.2 16.36-20.17 24.22-2.15 2.42-3.21 4.62-3.14 7.84.45 18.59.58 37.19 1.11 55.79.44 15.54 1.98 31.08 1.75 46.6-.22 13.98-3.99 27.43-11.85 39.3-1.42 2.14-4.48 5.22-5.98 4.82-2.55-.68-5.61-3.39-6.44-5.91-4.72-14.34-14.58-25.04-24.26-35.92-1.33-1.49-2.8-2.85-4.09-4.37-.38-.46-.41-1.23-.92-2.89z" fill="#010100"/><g fill="#fbfcfa"><path d="m346.9 398 5.4-7.3h-5.2v-.6h4.9v.6l-5.4 7.2h5.5l-.1.6h-6.2v-.5z"/><path d="m354.7 390.1h2.8c2.3 0 3.9 1.6 3.9 4.1s-1.6 4.3-3.9 4.3h-2.8zm.6 7.8h2c2.2 0 3.3-1.6 3.3-3.6 0-1.8-1-3.6-3.3-3.6h-2z"/><path d="m363.9 390.1v8.4h-.6v-8.4z"/><path d="m372.5 396.3c-.4 1.3-1.4 2.3-3.2 2.3-2.4 0-3.7-1.9-3.7-4.3 0-2.3 1.2-4.3 3.7-4.3 1.8 0 2.9 1 3.2 2.4h-.6c-.4-1.1-1.1-1.8-2.5-1.8-2.1 0-3 1.9-3 3.7s.9 3.7 3 3.7c1.4 0 2.1-.7 2.5-1.7z"/><path d="m373.8 398.5v-1.5h.6v1.5z"/><path d="m376.2 398.5v-8.4h1c1.3 2 4.4 6.6 4.9 7.6-.1-1.2-.1-2.4-.1-3.8v-3.8h.7v8.4h-.9c-1.2-1.9-4.4-6.8-5-7.7.1 1.1 0 2.3 0 3.9v3.9h-.6z"/><path d="m390 394.4h-4.3v3.5h4.7l-.1.6h-5.2v-8.4h5.1v.6h-4.5v3.1h4.3z"/><path d="m394.2 390.7h-2.8v-.6h6.3v.6h-2.8v7.8h-.7z"/></g></svg>