<svg enable-background="new 0 0 400 400" viewBox="0 0 400 400" xmlns="http://www.w3.org/2000/svg"><path d="m85.6 239.66c-4.6 35.83-15.72 68.7-48.66 89.92.82-1.8 1.39-3.76 2.49-5.37 14.96-21.95 23.4-46.54 28.32-72.33 2.15-11.25 2.55-22.87 3.19-34.35 1.23-22.12 2.35-44.25 2.95-66.39.32-11.75-.01-23.58-1.12-35.27-.55-5.81-3.59-11.36-5.37-17.07-.84-2.71-1.35-5.53-2.01-8.3.49-.47.99-.93 1.48-1.4 5.66 1.29 11.8 1.63 16.88 4.11 6.79 3.32 12.54.82 18.58-.95 9.81-2.88 19.52-6.12 29.33-9 1.62-.47 3.94-.49 5.27.35 5.65 3.56 11.16 7.38 16.49 11.41 2.59 1.96 2.95 4.55 1.33 7.81-3.55 7.12-4.75 14.76-4.85 22.81-.38 27.87-1.44 55.72-1.8 83.59-.18 14.59.52 29.19.93 43.79.21 7.6 1.49 15.28.8 22.78-1.46 15.94.02 32.32-5.89 47.67-2.47 6.43-5.79 12.36-12 16.3-2.74 1.74-4.52 1.55-6.37-.74-4.02-4.96-7.8-10.14-12.04-14.91-5.54-6.24-11.49-12.13-17.11-18.3-1.06-1.17-1.42-2.99-2.1-4.51 1.59.09 3.27-.13 4.76.32 6.53 1.96 12.97 4.25 19.52 6.15 4.27 1.24 7.45-1.63 8.28-7.98 1-7.65 1.8-15.37 2.05-23.08.56-17.76.74-35.52 1.07-53.29.03-1.59 0-3.17 0-6.28-8.51 10.8-16.18 20.3-23.54 30.02-2.24 2.96-4.55 3.61-7.42 1.77-4.32-2.75-8.45-5.81-13.44-9.28zm5.6-85c17.16 1.23 29.41 5.28 39.58 12.85 0-5.79.02-11.36 0-16.93-.05-13.23-.64-26.49.01-39.69.35-7.15-2.81-12.59-9.95-11.73-7.89.94-15.68 2.88-23.38 4.9-1.47.39-2.95 3.03-3.31 4.85-.57 2.89-.03 5.98-.24 8.97-.84 12.14-1.78 24.29-2.71 36.78zm39.8 23.44c-8.39 6.84-9.97 7.38-16.95 2.79-6.9-4.54-14.14-8.9-18.38-16.53-.71-1.28-2.11-2.18-3.19-3.25-.45.17-.89.34-1.34.5-1.02 22.66-2.05 45.32-3.07 67.85 2.58-.81 5.69-1.39 8.43-2.72 10.85-5.25 21.61-10.69 32.32-16.21 1.01-.52 2.06-2.13 2.08-3.25.17-9.48.1-18.96.1-29.18z" fill="#010100"/><path d="m251.99 282.1c-13.94 1.68-27.31 2.97-40.56 5.03-7.67 1.19-15.22 3.37-22.66 5.64-3.88 1.18-7.24.74-10.76-.71-7.33-3.03-13.81-7.12-18.66-14.63 3.2-.93 5.74-2.17 8.36-2.33 8.92-.57 17.9-.37 26.79-1.18 14.19-1.31 28.33-3.21 42.5-4.83 4.24-.49 8.49-.89 14.25-1.49-4.27-6.93-8.13-13.18-12.74-20.64 4.25 0 7.13-.71 9.39.16 3.95 1.52 6.54.58 9.03-2.48 4.97-6.12 10.15-12.06 15.07-18.22 2.44-3.05.93-6.42-3.05-6.28-5.38.19-10.81.81-16.07 1.96-11.11 2.42-22.42 4.48-33.08 8.28-6.73 2.39-11.74 1.55-16.82-2.45-1.42-1.12-2.28-2.95-4.16-5.47 4.94-1.32 8.85-2.69 12.88-3.38 11.74-2 23.62-3.29 35.28-5.71 9.83-2.04 19.37-5.47 29.15-7.81 2.66-.64 6.25-.41 8.51.95 4.72 2.83 9.35 6.19 13.05 10.22 4 4.35 2.47 8.96-2.5 12.28-10.85 7.24-21.56 14.67-32.33 22.04-.53.37-1.19.7-1.49 1.23-1.38 2.33 5.26 13.88 7.99 13.7 8.21-.56 16.41-1.21 24.59-2.06 7.65-.8 15.27-1.87 22.9-2.9 4.2-.57 8.53-.82 12.55-2.05 11.92-3.65 21.59 1.11 30.67 7.83 2.59 1.91 6.1 4.02 4.5 9.21-4.05.63-8.49 1.63-12.97 1.94-5.14.35-10.33-.01-15.49.1-12.77.28-25.54.49-38.3 1.03-9.71.41-19.4 1.29-29.82 2.01v5.87c0 13.5.29 27-.09 40.49-.3 10.52-4.67 19.65-12.04 27.11-4.45 4.5-7.72 3.83-11.34-1.44-5.27-7.66-10.41-15.43-16.01-22.84-2.24-2.96-5.64-5.03-8.35-7.67-1.06-1.03-1.68-2.5-2.51-3.76.24-.36.49-.73.73-1.09 1.99.46 4.02.77 5.95 1.42 4.77 1.61 9.53 3.27 14.2 5.13 4.11 1.64 7.21 0 8.36-3.55 2.15-6.6 4-13.41 4.93-20.27.81-6.02.17-12.21.17-18.39z" fill="#010100"/><path d="m183.07 181.07c2.02 3.73 3.4 6.81 5.3 9.53.82 1.18 2.83 2.44 4.1 2.26 15.35-2.19 30.65-4.64 45.46-6.94 0-6.09.17-11.96-.2-17.8-.05-.79-2.74-1.93-4.27-2.03-7.75-.52-15.51-.82-23.28-1.06-5.23-.17-9.46-2.15-13.15-6.7 12.79-5.7 26.68-4.25 39.95-7.84 0-8.38.23-16.86-.14-25.31-.11-2.59-1.91-5.09-2.85-7.66-.81-2.23-1.5-4.51-2.24-6.76 3.22-1 6.86-3.47 9.58-2.69 6.52 1.85 12.71 5.04 18.78 8.18.99.51 1.25 3.59.93 5.32-1.47 7.96-3.27 15.86-5.15 24.76 8.71-2.78 15.88-5.24 23.16-7.34 7.54-2.17 14.42.87 21.02 3.84 3.13 1.41 2.31 6.71-1.47 8.11-6.52 2.43-13.25 4.36-20.02 5.98-7.4 1.78-14.93 2.97-22.28 4.4-.49 7.25-.95 14.13-1.46 21.67 13.76-2.93 27.25-4.99 40.23-8.77 16.48-4.8 30.98-1.13 44.99 7.33 2.78 1.68 5.79 3.17 8.16 5.33 4.65 4.22 3.6 7.83-2.4 10.12-5.32 2.03-10.76 3.9-15.76 6.56-7.62 4.06-14.9 8.75-22.32 13.18-1.36.81-2.71 1.64-5.42 3.28.94-3.21 1.36-5.03 2-6.76 2.61-6.99 5.32-13.94 7.95-20.93 1.47-3.9-.11-5.73-4.09-5.31-13.03 1.4-26.09 2.65-39.07 4.48-13.08 1.84-26.07 4.33-39.11 6.49-8.86 1.47-17.73 2.85-26.59 4.29-1.29.21-2.56.65-3.85.69-8.76.3-8.6.33-11.69 9.02-2.5 7.02-5.1 14.06-8.4 20.72-1 2.02-4.77 4.23-6.77 3.84-3.91-.76-8.26-3.13-7.57-8.2.6-4.42 2.37-8.71 3.89-12.97 3.56-9.95 7.25-19.86 10.99-29.74.56-1.4 1.7-2.57 3.06-4.57z" fill="#010100"/><path d="m221.6 126.98c-3.34-8.42-6.3-15.91-9.76-24.62-5.04 1.35-10.76 2.47-16.16 4.45-6.6 2.42-12.65 1.98-18.45-1.8-3.28-2.14-6.49-4.41-9.49-6.91-.91-.76-1.46-2.55-1.3-3.74.08-.59 2.12-1.17 3.33-1.32 11.54-1.4 23.07-2.79 34.63-3.99 3.59-.37 4.4-1.73 2.67-4.82-2.77-4.96-5.67-9.85-8.17-14.94-1.23-2.5-1.71-5.36-2.52-8.06 2.86-.41 5.79-1.41 8.57-1.1 4.49.5 8.89 1.87 13.33 2.86 4.13.92 5.95 3.17 5.83 7.68-.13 5.29.66 10.6 1.02 15.41 18.94-2.22 36.92-4.32 55.74-6.52.2-9.08 4.94-18.01 2.32-27.95-.66-2.52.65-5.56 1.32-10.17 8.54 3.92 15.91 6.98 22.93 10.68 3.46 1.82 3.31 5.4 1.58 8.68-2.34 4.45-4.75 8.87-7.73 14.41 6.2-.85 11.4-1.54 16.6-2.27 9.17-1.28 15.97 3.11 21.73 9.45 2.3 2.53.79 5.32-2.78 5.58-10.03.74-20.06 1.34-30.09 2.04-3.6.25-7.23.47-10.78 1.1-1.16.21-2.39 1.47-3.09 2.57-5.73 8.9-11.31 17.9-17.05 26.79-.67 1.04-2.04 1.62-3.08 2.41-.53-1.46-1.77-3.09-1.47-4.34 2.06-8.34 4.45-16.6 7.02-25.94-17.42 2.42-34.16 4.75-50.69 7.05-2.33 8.92 2.7 18.64-6.01 27.33z" fill="#010100"/><g fill="#fbfcfa"><path d="m346.9 398 5.4-7.3h-5.2v-.6h4.9v.6l-5.4 7.2h5.5l-.1.6h-6.2v-.5z"/><path d="m354.7 390.1h2.8c2.3 0 3.9 1.6 3.9 4.1s-1.6 4.3-3.9 4.3h-2.8zm.6 7.8h2c2.2 0 3.3-1.6 3.3-3.6 0-1.8-1-3.6-3.3-3.6h-2z"/><path d="m363.9 390.1v8.4h-.6v-8.4z"/><path d="m372.5 396.3c-.4 1.3-1.4 2.3-3.2 2.3-2.4 0-3.7-1.9-3.7-4.3 0-2.3 1.2-4.3 3.7-4.3 1.8 0 2.9 1 3.2 2.4h-.6c-.4-1.1-1.1-1.8-2.5-1.8-2.1 0-3 1.9-3 3.7s.9 3.7 3 3.7c1.4 0 2.1-.7 2.5-1.7z"/><path d="m373.8 398.5v-1.5h.6v1.5z"/><path d="m376.2 398.5v-8.4h1c1.3 2 4.4 6.6 4.9 7.6-.1-1.2-.1-2.4-.1-3.8v-3.8h.7v8.4h-.9c-1.2-1.9-4.4-6.8-5-7.7.1 1.1 0 2.3 0 3.9v3.9h-.6z"/><path d="m390 394.4h-4.3v3.5h4.7l-.1.6h-5.2v-8.4h5.1v.6h-4.5v3.1h4.3z"/><path d="m394.2 390.7h-2.8v-.6h6.3v.6h-2.8v7.8h-.7z"/></g></svg>