<svg enable-background="new 0 0 400 400" viewBox="0 0 400 400" xmlns="http://www.w3.org/2000/svg"><path d="m98.97 251.69c4.37-.57 8.64-1.43 12.93-1.64 16.2-.8 32.4-1.37 48.6-2.07 6.1-.26 12.2-.77 18.3-.94 3.55-.1 5.67-1.07 5.23-5.17-.38-3.6.69-7.95-1.02-10.58-.99-1.52-6.21-.41-9.52-.26-4.44.2-8.88.99-13.3.85-4.68-.14-9.34-1.08-14.08-1.67-.06 1.25-.17 3.22-.28 5.46-4.66 1.14-8.16-.88-9.68-4.73-2.24-5.69-4.22-11.68-5.01-17.71-2.29-17.5-5.44-34.77-11.1-51.53-.73-2.16-1.04-4.45-1.55-6.68 3.19-.17 6.37-.48 9.56-.46 3.97.03 7.95.57 11.91.47 5.61-.14 11.21-.52 16.8-1.05 16.84-1.58 33.67-3.31 50.5-4.9 8.19-.78 16.4-1.36 24.59-2.09 2.27-.2 4.6-.38 6.78-1.01 10.3-2.96 16.98 3.41 23.91 9.11 2.29 1.89 4.57 3.84 6.59 6.01 2.77 2.98 4.03 6.95 1.07 9.98-12.12 12.38-14.44 28.82-19.33 44.27-1.68 5.32-4.34 10.4-7.16 15.25-1.68 2.9-4.89 2.44-7.14.35-2.93-2.72-5.88-3.41-9.95-3.12-8.34.59-16.75.18-25.38.18v18.09c6.71-.41 13.39-.7 20.03-1.28 4.23-.37 8.4-1.44 12.63-1.74 11.52-.82 23.07-1.98 34.6-1.89 10.89.09 19.04 6.41 25.41 14.8 2.37 3.13 1.44 6.56-2.73 6.91-6.47.54-13.03.36-19.53.02-5.72-.3-11.4-1.71-17.11-1.8-15.43-.26-30.86-.09-46.64-.09 5.7 3.87 11.38 8.26 17.54 11.81 14.26 8.23 28.24 17.22 43.29 23.67 12.11 5.19 25.62 7.12 38.51 10.51 3.45.91 6.94 1.74 10.3 2.93 1.61.57 2.95 1.9 4.41 2.88-1.35 1.05-2.56 2.52-4.09 3.07-6.57 2.36-13.13 4.94-19.91 6.52-8.55 2-17.31 3.11-25.98 4.59-8.24 1.41-13.6-3.9-18.96-8.6-15.87-13.92-31.52-28.11-47.29-42.15-1.19-1.06-2.66-1.8-4.71-3.16v5.25c0 22.33.26 44.67-.21 66.99-.1 4.93-2.23 10.1-4.48 14.63-2.1 4.21-5.03 3.77-7.38-.29-4.02-6.92-8.39-13.89-8.49-22.09-.08-6.47 1.5-12.94 1.95-19.43.86-12.45 1.43-24.92 2.16-38.01-10.91 8.37-20.74 16.19-30.87 23.6-12.77 9.36-27.71 14.46-42.27 20.08-6.12 2.36-12.95 2.95-19.5 4.06-1.14.19-2.52-.99-3.79-1.53.74-1.36 1.15-3.24 2.29-3.97 2.73-1.76 5.75-3.13 8.76-4.4 18.55-7.79 34.13-19.89 48.7-33.44 6.02-5.6 11.71-11.58 17.48-17.46.97-.99 1.55-2.34 2.83-4.33-7.16.52-13.37.89-19.56 1.44-9.82.87-19.6 2.18-29.43 2.68-6.6.34-17.72-6.62-20.23-15.19zm82.72-66.83c-1.23-7.71-2.37-14.79-3.44-21.45-13.43 1.05-25.7 2.02-38.03 2.99 1.03 6.22 2.05 12.4 3.06 18.47 12.76-.01 24.89-.01 38.41-.01zm18.08-22.85c10.44 6.02 3.8 14.45 3.64 21.48 12-.48 23.7-4.88 36.41-.55 0-5.89.48-11.19-.26-16.3-.26-1.77-3.52-4.36-5.49-4.43-11.42-.41-22.86-.2-34.3-.2zm-17.96 36.71c-12.16.86-24.18 1.72-36.98 2.63.38 4.41.85 9.87 1.28 14.87h35.7c0-6.4 0-12.01 0-17.5zm19.42 16.86c7.12-.87 14.05-2.16 21.01-2.47 9.68-.43 14.42-5.73 13.23-15.35-11.39 0-22.71 0-34.24 0z" fill="#010100"/><path d="m274.51 122.71c-18.39 1.42-36.77 2.85-55.16 4.26-4.93.38-9.86.71-14.79 1.02-10.86.69-21.76.99-32.57 2.11-10.88 1.13-21.64 3.43-32.51 4.56-9.72 1.01-19.37 4.15-29.32 1.4-4.67-1.29-5.18 2.41-6.17 5.63-2.95 9.62-5.96 19.24-9.25 28.74-.62 1.8-2.46 3.44-4.15 4.5-1 .63-3.25.52-4.19-.22-7.38-5.78-10.86-18.85-7.02-27.31 1.8-3.96 5.1-7.25 6.87-11.22 2.07-4.66 3.1-9.78 4.82-14.62.81-2.27 2.17-4.35 3.28-6.52 1.95 1.17 4.46 1.92 5.75 3.6 2.62 3.41 6.03 2.44 9.14 2.25 5.72-.35 11.39-1.42 17.1-1.85 10.85-.81 21.72-1.39 32.58-2.05 16.63-1.01 33.26-1.99 49.88-3.02 10.03-.62 20.07-1.19 30.09-2.01 18.66-1.53 37.28-3.52 55.96-4.63 3.63-.22 8.55 1.71 10.97 4.38 7.56 8.35 14.29 17.47 21.17 26.42 2.05 2.67 1.2 4.58-2.38 5.01-4.53.54-9.03 1.65-13.56 1.76-11.33.26-21.6 4.57-32.21 7.66-1.68.49-3.61.1-5.42.12.33-1.85.12-4.06 1.08-5.48 3.21-4.73 7.14-8.99 10.19-13.81 1.31-2.07 2.28-5.68 1.32-7.49-.91-1.72-4.49-2.17-6.99-2.84-1.4-.38-2.98-.07-4.48-.07-.01-.09-.02-.19-.03-.28z" fill="#010100"/><path d="m131.64 74.56c-4.59-6.07-9.07-12.24-13.81-18.18-3.17-3.97-2.65-7.22 2.31-8.36 7.71-1.78 15.57-2.49 22.76 2.03 1.43.9 2.89 2.38 3.45 3.91 1.77 4.88 3.78 9.82 4.44 14.9.58 4.47 2.37 5.48 6.35 5.18 6.58-.5 13.18-.91 19.78-.91 1.69 0 3.38 1.68 5.06 2.58-1.31 2.07-2.22 5.43-4.01 6-7.58 2.4-15.42 3.97-23.82 6.01-.06 7.27 3.27 15.42-1.07 22.99-10.3-2.75-12.56-11.1-14.49-20.13-9.68 2.31-19.11 4.09-28.25 6.86-12.8 3.87-23.34-.28-33.23-7.87-.66-.5-1.51-1.06-1.73-1.76-.78-2.52-2.32-5.45-1.61-7.58.52-1.59 4.03-3.02 6.25-3.09 10.13-.32 20.29-.14 30.45-.14h20.19c.33-.81.65-1.63.98-2.44z" fill="#010100"/><path d="m265.66 63.82c4.33-.29 8.84.12 12.95-1 11.35-3.1 19.69 2.42 27.57 9.01 4.88 4.08 3.65 8.27-2.46 9.86-1.42.37-2.97.3-4.45.3-14.32.02-28.64.02-42.96 0-3.92-.01-7.01.77-9.55 4.52-3.95 5.81-8.6 11.18-13.36 16.36-1.77 1.92-4.62 2.93-7.12 4.05-.89.4-2.89.26-3.16-.25-.56-1.11-.78-2.8-.33-3.94 2.27-5.72 4.79-11.34 7.55-17.74-11.99.41-23.45.51-32.31-10.63 4.51-.91 8.03-1.79 11.61-2.3 7.94-1.12 15.91-1.98 23.84-3.13 1.24-.18 3.05-1.02 3.42-2 2.87-7.57 5.87-15.13 7.95-22.93 1.31-4.92 4.97-8.08 9.55-5.71 6.8 3.52 12.5 8.55 15.84 15.61.62 1.31-.07 3.71-.94 5.13-.97 1.58-2.84 2.61-4.32 3.88.23.3.45.6.68.91z" fill="#010100"/><g fill="#fbfcfa"><path d="m346.9 398 5.4-7.3h-5.2v-.6h4.9v.6l-5.4 7.2h5.5l-.1.6h-6.2v-.5z"/><path d="m354.7 390.1h2.8c2.3 0 3.9 1.6 3.9 4.1s-1.6 4.3-3.9 4.3h-2.8zm.6 7.8h2c2.2 0 3.3-1.6 3.3-3.6 0-1.8-1-3.6-3.3-3.6h-2z"/><path d="m363.9 390.1v8.4h-.6v-8.4z"/><path d="m372.5 396.3c-.4 1.3-1.4 2.3-3.2 2.3-2.4 0-3.7-1.9-3.7-4.3 0-2.3 1.2-4.3 3.7-4.3 1.8 0 2.9 1 3.2 2.4h-.6c-.4-1.1-1.1-1.8-2.5-1.8-2.1 0-3 1.9-3 3.7s.9 3.7 3 3.7c1.4 0 2.1-.7 2.5-1.7z"/><path d="m373.8 398.5v-1.5h.6v1.5z"/><path d="m376.2 398.5v-8.4h1c1.3 2 4.4 6.6 4.9 7.6-.1-1.2-.1-2.4-.1-3.8v-3.8h.7v8.4h-.9c-1.2-1.9-4.4-6.8-5-7.7.1 1.1 0 2.3 0 3.9v3.9h-.6z"/><path d="m390 394.4h-4.3v3.5h4.7l-.1.6h-5.2v-8.4h5.1v.6h-4.5v3.1h4.3z"/><path d="m394.2 390.7h-2.8v-.6h6.3v.6h-2.8v7.8h-.7z"/></g></svg>