<svg enable-background="new 0 0 400 400" viewBox="0 0 400 400" xmlns="http://www.w3.org/2000/svg"><path d="m140 233.8c0-18.42.22-36.24-.14-54.05-.1-5.2-1.86-10.37-2.86-15.61-15.92 2.75-30.59 5.71-45.4 7.65-7.73 1.01-15.77.83-23.52-.09-3.17-.37-6.52-3.65-8.72-6.45-1.81-2.31.69-4.37 3.1-4.92 4.29-.99 8.67-2.16 13.02-2.2 15.4-.14 30.11-3.87 44.82-7.79 12.88-3.43 25.6-7.83 38.69-9.98 6.13-1.01 13.02 2.09 19.44 3.8 1.17.31 2.69 3.2 2.35 4.44-.52 1.88-2.21 4.26-3.93 4.85-6.45 2.2-13.12 3.77-19.71 5.56-2.82.76-5.65 1.48-8.92 2.34 1.71 1 3.09 1.82 4.48 2.61 8.87 5 8.87 5.79 7.29 15.37-2.04 12.42-3.38 24.96-4.97 37.46-.58 4.54-1.01 9.09-1.58 14.31 9.84-1.9 19.63-3.13 28.86 1.74 16.5-22.44 26.53-47.4 32.52-74.03 1.61-7.15 1.69-14.68 2.13-22.05.33-5.49 1.59-8.94 8.68-6.72 7.03 2.21 13.86 5.04 18.15 11.45.93 1.4 1.21 4.67.28 5.66-10.77 11.49-13.62 26.93-21.57 41.41 6.39-1.6 11.62-2.82 16.79-4.23 13.49-3.67 26.92-7.53 40.43-11.11 5.77-1.53 11.18.78 16.06 3.3 6.5 3.35 12.6 7.5 18.68 11.59 1.64 1.1 2.58 3.24 4.7 6.05-4.85 2.72-8.89 5.65-13.4 7.4-11.29 4.38-20.77 11.53-30.43 18.51-1.51 1.09-3.66 1.31-6.78 2.36 4.31-9.17 8.04-16.56 11.2-24.17.84-2.02.85-5.88-.4-6.92-1.9-1.58-5.42-2.34-7.94-1.85-6.68 1.29-13.13 3.77-19.8 5.17-8.45 1.77-17.11 4.41-25.51 3.89-6.55-.41-8.47 2.15-11.83 6.43-7.55 9.64-16.19 18.42-24.27 27.66-1.31 1.5-1.83 3.67-3.05 5.27-.95 1.24-2.33 2.78-3.69 2.97-6.66.93-13.37 1.54-20.07 2.11-5.72.48-11.46.76-17.73 1.16 4.93 2.47 9.47 4.5 13.75 6.98 3.32 1.91 4.12 4.88 3.44 8.88-1.54 9.02-3.26 18.13-3.45 27.24-.32 15.42.85 30.86.67 46.28-.1 8.31-2.18 16.45-6.88 23.62-.09.14-.12.31-.21.44-6.61 9.35-11.96 9.47-17.93-.24-6.28-10.22-14.76-18.46-22.72-27.21-.17-.18-.02-.64-.02-2.06 1.92 0 3.99-.27 5.95.05 4.97.82 9.86 2.1 14.83 2.84 6.02.9 10.05-1.76 9.97-7.66-.32-22.47 2.28-45.09-2.96-67.33-.59-2.51-1.59-5.05-2.98-7.19-.83-1.28-3.01-2.77-4.26-2.52-15.16 3.03-30.23 6.49-45.38 9.56-8.3 1.68-16.73 3.9-25.08 3.79-5.16-.07-10.39-3.84-15.3-6.48-1.19-.64-1.7-3.42-1.6-5.15.05-.73 2.44-1.71 3.87-1.91 16.83-2.42 33.67-4.77 50.53-7.04 13.28-1.82 26.58-3.47 40.31-5.24z" fill="#010100"/><path d="m237.65 75.78c10.49-1.62 21.39-1.95 31.37-5.14 17.66-5.64 30.78.64 42.93 12.77-1.48 6.92-7.87 4.79-12.05 6.54-.71.3-1.65.04-2.48.05-21.59.33-43.18.6-64.76 1.13-1.58.04-4 1.6-4.54 3.01-4.82 12.64-11.93 23.89-20.1 34.54-1.39 1.81-3.32 3.2-5 4.78-.62-.27-1.23-.54-1.85-.81.4-2.83.46-5.77 1.28-8.47 3.1-10.25 6.45-20.42 9.95-31.38-21.61 2.46-42.37 4.82-63.4 7.21.86 7.02 1.93 13.46 2.32 19.94.19 3.07-.7 6.28-1.53 9.3-.22.8-2.06 1.57-3.17 1.58-.75.01-1.86-1.2-2.21-2.09-3.32-8.46-6.51-16.97-9.95-26.02-7.73 1.2-15.5 2.13-23.14 3.7-6.18 1.27-12.11 3.91-18.31 4.81-3.37.48-7.23-1.03-10.6-2.33-6.58-2.55-12.87-5.7-16.47-13.19 3-.62 5.62-1.38 8.3-1.67 12.72-1.4 25.44-2.69 38.17-3.99 3.92-.4 7.85-.83 11.79-1.01 3.38-.16 4.67-1.24 2.96-4.63-3.57-7.07-7.03-14.2-10.54-21.3-.58-1.17-1.13-2.36-1.74-3.51-1.86-3.54-1.24-5.71 3.04-6.69 9.25-2.11 17.84.65 26.09 3.94 4.01 1.6 2.98 6.53 2.97 10.31-.02 6.5 0 13 0 19.78 11.76-1.67 23.02-3.44 34.32-4.83 7.83-.96 15.72-1.4 23.58-2.12 2.93-.27 5.96-.34 8.74-1.18 1.37-.41 3.05-2.28 3.25-3.67 1.56-11.35 3.02-22.73 4.02-34.14.35-3.98 2.5-4.87 5.17-3.81 8.51 3.36 15.91 8.52 20.89 16.34.94 1.48.37 4.74-.66 6.5-2.85 4.86-6.31 9.35-9.54 13.99.3.58.6 1.17.9 1.76z" fill="#010100"/><path d="m357.64 343.79c-7.76 1.61-13.87 3.26-20.08 4.08-7.98 1.06-16.06 1.35-24.08 2.16-9.26.94-15.82-3.91-20.29-10.86-14.03-21.79-27.48-43.97-41.16-65.99-.77-1.23-1.64-2.4-2.76-4.01-4.31 16.43-12.28 30.49-22.47 43.37-7.41 9.37-15.86 17.46-26.68 22.96-8.43 4.29-16.75 8.77-26.28 9.99-1.35.17-2.86-.93-4.29-1.45.65-1.35.93-3.23 2-3.95 6.61-4.48 13.52-8.52 20.1-13.05 19.05-13.12 30.7-31.2 36.46-53.56 3.56-13.83 5.71-27.67 4.87-41.92-.12-2.1-.48-4.21-.89-6.28-1.04-5.29 2.34-8.63 7.23-6.41 6.15 2.8 11.93 6.43 17.81 9.8 2.59 1.48 2.46 3.66 1.51 6.26-1.45 3.96-2.13 8.22-3.78 12.09-3.2 7.51-2.17 13.76 3.46 19.89 8.68 9.45 16.33 19.87 25.31 29 15.32 15.59 33.63 26.99 53.85 35.28 4.96 2.03 10.08 3.74 14.85 6.13 1.78.89 2.81 3.32 5.31 6.47z" fill="#010100"/><path d="m128.28 275.03c-3.7 6.77-7.14 12.47-10.01 18.45-3.22 6.71-3 6.81 1.73 12.55-1.51.7-2.84 1.71-4.28 1.91-8.43 1.13-16.91 1.98-25.33 3.17-1.24.18-2.33 1.64-3.41 2.6-1.54 1.38-3 2.84-4.49 4.27-1.5-1.96-3.86-3.73-4.33-5.91-1.44-6.69-1.82-13.6-3.27-20.29-1.28-5.93-3.47-11.66-5.21-17.5-.43-1.43-.69-2.91-1.03-4.36 1.56-.3 3.5-1.35 4.64-.79 10.71 5.28 20.33-.11 29.9-3.29 7.44-2.48 13.9-2.53 19.77 2.78 2.39 2.14 4.15 4.96 5.32 6.41zm-21.79 21.79c.88-4.96 1.59-9.3 2.44-13.61 1-5.09-1.15-7.24-6.27-6.05-3.79.88-7.64 1.64-11.29 2.95-1.38.5-3.22 2.41-3.2 3.65.08 5.69.74 11.38 1.21 17.41 5.94-1.51 11.57-2.94 17.11-4.35z" fill="#010100"/><path d="m129.72 187.61c-4 7.19-7.46 12.89-10.4 18.86-1.93 3.92-3.63 8.29 1.72 12.39-6.28 1.04-12.56 2.13-18.85 3.11-3.07.48-6.36.23-9.2 1.26-2.1.77-3.67 3.04-5.43 4.7-1.01.95-2.1 2.95-2.85 2.81-1.35-.25-3.18-1.52-3.58-2.75-1.63-5.07-2.97-10.25-4.09-15.46-1.5-6.99-2.61-14.07-4.09-21.06-.39-1.83-1.7-3.46-2.23-5.28-.38-1.3-.15-2.78-.19-4.18 1.15-.03 2.44-.41 3.43-.02 11.73 4.62 22.56-.52 33.09-3.97 6.4-2.09 11-1.44 15.63 2.35 2.86 2.37 5.22 5.35 7.04 7.24zm-19.24 2.97c-7.69-1.9-14.45.97-21.21 2.82v20.27c5.21-1.26 10.06-2.84 15.04-3.51 3.55-.48 4.31-2.57 4.66-5.27.59-4.63.99-9.3 1.51-14.31z" fill="#010100"/><g fill="#fbfcfa"><path d="m346.9 398 5.4-7.3h-5.2v-.6h4.9v.6l-5.4 7.2h5.5l-.1.6h-6.2v-.5z"/><path d="m354.7 390.1h2.8c2.3 0 3.9 1.6 3.9 4.1s-1.6 4.3-3.9 4.3h-2.8zm.6 7.8h2c2.2 0 3.3-1.6 3.3-3.6 0-1.8-1-3.6-3.3-3.6h-2z"/><path d="m363.9 390.1v8.4h-.6v-8.4z"/><path d="m372.5 396.3c-.4 1.3-1.4 2.3-3.2 2.3-2.4 0-3.7-1.9-3.7-4.3 0-2.3 1.2-4.3 3.7-4.3 1.8 0 2.9 1 3.2 2.4h-.6c-.4-1.1-1.1-1.8-2.5-1.8-2.1 0-3 1.9-3 3.7s.9 3.7 3 3.7c1.4 0 2.1-.7 2.5-1.7z"/><path d="m373.8 398.5v-1.5h.6v1.5z"/><path d="m376.2 398.5v-8.4h1c1.3 2 4.4 6.6 4.9 7.6-.1-1.2-.1-2.4-.1-3.8v-3.8h.7v8.4h-.9c-1.2-1.9-4.4-6.8-5-7.7.1 1.1 0 2.3 0 3.9v3.9h-.6z"/><path d="m390 394.4h-4.3v3.5h4.7l-.1.6h-5.2v-8.4h5.1v.6h-4.5v3.1h4.3z"/><path d="m394.2 390.7h-2.8v-.6h6.3v.6h-2.8v7.8h-.7z"/></g></svg>