<svg enable-background="new 0 0 400 400" viewBox="0 0 400 400" xmlns="http://www.w3.org/2000/svg"><path d="m141.32 253.12c-.48-8.63-5.96-15.89-2.51-25.15 2 1.04 4.21 1.53 5.41 2.91 9.46 10.85 18.83 21.85 23.86 35.63 2.45 6.72.76 13.33-2.6 19.32-2.36 4.22-7.57 4.8-10.14.73-3.43-5.42-5.65-11.62-8.25-17.55-.97-2.21-1.56-4.6-2.48-7.36-15.5 7.8-30.69 15.38-45.82 23.11-7.27 3.71-14.19 8.24-21.71 11.32-3.24 1.33-8.15 1.05-11.33-.49-5.43-2.63-10.38-6.52-14.92-10.57-1.56-1.39-2.11-5.05-1.54-7.26.34-1.33 3.68-2.17 5.8-2.69 10.58-2.6 21.2-5.02 31.81-7.51 3.94-.92 7.87-1.87 11.92-2.84 0-16.49 0-32.78 0-49.07-7.13.51-14.15 1.01-21.62 1.55.03-.22.02.61-.23 1.36-.73 2.15-1.55 4.27-2.34 6.41-2.75-1.37-7.07-2.09-7.94-4.22-2.35-5.78-4.03-12.08-4.56-18.3-1.63-19.1-4.75-37.85-11.08-55.99-1.1-3.16-.34-4.76 3.16-4.41 1.28.13 2.56.49 3.78.92 7.35 2.61 14.85 2.16 22.35 1.01 6.76-1.03 13.49-2.19 21.5-3.51-.93-13.81-1.5-27.65-2.93-41.4-.76-7.22-3.35-14.23-4.46-21.43-.4-2.59.21-6.76 1.93-7.94 3.1-2.13 7.42-2.2 10.95.25 4.02 2.8 8.4 5.35 11.66 8.9 2.46 2.68 4.83 6.79 4.74 10.2-.28 11.15-1.84 22.26-2.63 33.41-.35 4.96-.06 9.97-.06 15.53 5.69-1.64 11.13-2.98 16.41-4.77 9.29-3.14 17.31-.14 24.96 4.76 3.98 2.55 7.85 5.3 11.67 8.08 2.64 1.92 4.22 4.56 1.94 7.53-7.45 9.74-9.43 21.71-13.73 32.74-.83 2.12-1.42 4.34-2.36 6.41-1.91 4.18-2.98 7.87 2.51 10.48 1.16.55 2.18 3.52 1.72 4.8-.49 1.35-2.8 2.75-4.41 2.87-11.68.89-23.39 1.42-35.09 2.16-2.09.13-4.16.71-6.44 1.11v44.8c7.87-2 15.54-3.93 23.1-5.84zm-22.1-101.86v47.73c5.91-.79 12.37-1.6 18.81-2.52 2.77-.4 3.8-1.82 4.16-4.94.75-6.61 2.88-13.06 3.62-19.66.64-5.78.38-11.69.05-17.52-.16-2.82-1.86-4.7-5.35-4.39-6.56.57-13.16.82-21.29 1.3zm-40.7 53.44c5.29-.59 10.32-1.14 15.35-1.71 3.83-.43 6.19-1.87 6.22-6.42.08-11.26.6-22.52.9-33.78.08-2.89.01-5.78.01-8.53-9.02 1.2-17.26 2.29-26.08 3.46 1.19 15.49 2.39 31.19 3.6 46.98z" fill="#010100"/><path d="m194.63 305.88c3.43.37 6.87.64 10.27 1.13 7.75 1.13 15.48 2.4 23.23 3.56 5.75.87 13.29-2.87 15.81-9.16 2.7-6.72 5.47-13.9 5.81-20.99 1.28-26.5 1.61-53.04 2.18-79.57.04-1.87-.8-3.76-1.32-6.03-9.34 1.9-18.4 3.74-27.46 5.58-9.09 1.85-18.12 4.24-27.31 5.34-6.28.75-11.94-2.53-16.93-6.36-2.24-1.72-4.28-3.68-6.25-6.54 12.77-4.56 25.97-5.49 38.86-7.79 13-2.32 26.07-4.21 39.57-6.36-3.41-27.86-4.7-55.87-17.31-81.45-16.36 3.55-31.78 11.07-50 7.32 9.08-4.11 17.53-7.44 25.51-11.65 13.83-7.3 27.52-14.9 40.93-22.95 3.3-1.98 5.4-6.08 7.82-9.37 2.98-4.04 6.44-6.1 11.38-3.6 6.23 3.15 12.67 5.98 18.52 9.72 2.35 1.51 3.39 5.08 5.02 7.71-2.51 1.52-4.86 3.47-7.57 4.47-12.04 4.44-24.19 8.61-37.14 13.18 2.77 1.79 4.69 2.94 6.52 4.22 6.37 4.44 6.27 11.65 7.1 18.13 2.31 18.05 4.13 36.17 6.07 54.27.24 2.29.03 4.62.03 7.27 17.12-3.03 33.78-5.97 50.44-8.95 12.06-2.16 31.39 6.87 34.46 17.33-2.5 4.08-6.66 4.53-10.77 4.59-10.83.14-21.68-.32-32.49.14-13.44.57-26.85 1.83-40.69 2.82.57 7.48 1.08 14.33 1.62 21.18.08.98.4 1.94.42 2.91.36 15.76 1.03 31.53.93 47.29-.12 20.64-3.89 40.73-12.51 59.54-3.42 7.47-7.55 14.95-15.2 19.49-4.96 2.94-8.17 2.64-12.59-1.16-10.83-9.34-21.83-18.47-32.65-27.82-1.91-1.65-3.25-3.96-4.85-5.97.2-.47.37-.97.54-1.47z" fill="#010100"/><path d="m282.88 156.21c-3.42-2.92-1.26-5.17.02-7.63 5.23-10.12 10.55-20.21 15.4-30.51 1.33-2.82 1.54-6.33 1.61-9.54.08-4.05 1.73-5.6 5.72-5.58 9.36.06 16.58 4.47 22.69 10.99 2.55 2.72 1.97 5.66-1 7.99-13.37 10.47-26.75 20.94-40.14 31.38-1.38 1.07-2.91 1.96-4.3 2.9z" fill="#010100"/><path d="m228.78 156.37c-1.69 2.48-3.17 6.47-6.03 8.34-3.45 2.26-6.93-.46-9.74-3.17-8.1-7.84-16.36-15.51-24.3-23.51-1.54-1.55-1.87-4.29-2.76-6.48 2.5-.6 5.2-2.15 7.45-1.64 7.88 1.77 15.77 3.8 23.35 6.56 8.35 3.05 9.69 11.02 12.03 19.9z" fill="#010100"/><g fill="#fbfcfa"><path d="m346.9 398 5.4-7.3h-5.2v-.6h4.9v.6l-5.4 7.2h5.5l-.1.6h-6.2v-.5z"/><path d="m354.7 390.1h2.8c2.3 0 3.9 1.6 3.9 4.1s-1.6 4.3-3.9 4.3h-2.8zm.6 7.8h2c2.2 0 3.3-1.6 3.3-3.6 0-1.8-1-3.6-3.3-3.6h-2z"/><path d="m363.9 390.1v8.4h-.6v-8.4z"/><path d="m372.5 396.3c-.4 1.3-1.4 2.3-3.2 2.3-2.4 0-3.7-1.9-3.7-4.3 0-2.3 1.2-4.3 3.7-4.3 1.8 0 2.9 1 3.2 2.4h-.6c-.4-1.1-1.1-1.8-2.5-1.8-2.1 0-3 1.9-3 3.7s.9 3.7 3 3.7c1.4 0 2.1-.7 2.5-1.7z"/><path d="m373.8 398.5v-1.5h.6v1.5z"/><path d="m376.2 398.5v-8.4h1c1.3 2 4.4 6.6 4.9 7.6-.1-1.2-.1-2.4-.1-3.8v-3.8h.7v8.4h-.9c-1.2-1.9-4.4-6.8-5-7.7.1 1.1 0 2.3 0 3.9v3.9h-.6z"/><path d="m390 394.4h-4.3v3.5h4.7l-.1.6h-5.2v-8.4h5.1v.6h-4.5v3.1h4.3z"/><path d="m394.2 390.7h-2.8v-.6h6.3v.6h-2.8v7.8h-.7z"/></g></svg>