<svg enable-background="new 0 0 400 400" viewBox="0 0 400 400" xmlns="http://www.w3.org/2000/svg"><path d="m236 223.9c-6.14 9.09-11.23 17.43-17.1 25.18-9.99 13.19-21.39 25.11-34.59 35.18-7.27 5.54-14.66 10.94-22.26 16.03-1.64 1.1-4.37.59-6.59.82-.28-.64-.55-1.28-.83-1.92 1.53-1.97 2.85-4.15 4.63-5.87 18.15-17.59 34.54-36.61 48.71-57.61 8.58-12.71 13.51-27.04 19.94-40.72.18-.39-.04-.97-.1-1.82-8.55 1.3-17.15 2.06-25.48 4.02-9.43 2.21-16.73-.31-23.02-7.29-1.41-1.57-3.44-2.59-5.18-3.86.25-.59.49-1.17.74-1.76 2.32-.72 4.59-1.78 6.96-2.09 8.94-1.19 17.91-2.12 26.86-3.18 8.3-.99 16.6-1.91 24.86-3.18.97-.15 2.41-2.33 2.33-3.49-.56-9.02-1.3-18.04-2.28-27.02-.58-5.34-1.87-10.59-2.47-15.93-.18-1.58.94-3.3 1.45-4.88 10.67.76 18.88 5.5 25.76 12.55 1.58 1.63 2.79 4.72 2.49 6.9-1.33 9.44-3.29 18.79-5.05 28.38 13.88-1.49 27.02-3.76 40.21-4.03 9.88-.2 18.41 4.96 24.65 12.91 2.53 3.22 1.66 5.58-2.18 6.54-2.84.71-5.81 1.13-8.73 1.22-5.83.18-11.66.05-17.49.05-11.42 0-22.85 0-34.52 0 24.75 44.78 59.43 78.33 103.24 102.81-.26.7-.52 1.4-.78 2.1-3 .7-5.99 1.92-9 1.99-10.16.25-20.42-.75-30.47.33-10.64 1.13-17.46-4.22-22.29-11.79-11.92-18.69-22.95-37.95-34.27-57.03-2.49-4.19-4.68-8.56-8.13-12.82v4.92c0 37.49-.03 74.98.03 112.47.01 6.46-2.2 12.18-5.32 17.6-1.83 3.18-5.42 3.53-7.83.66-1.86-2.22-3.49-4.83-4.47-7.54-3.56-9.78-5.83-19.64-3.61-30.3 1.27-6.07 1.12-12.5 1.15-18.77.1-22.85.03-45.67.03-69.76z" fill="#010100"/><path d="m89.99 215.21c-6.47.39-12.48.75-18.55 1.12-.55 3.09-1.09 6.11-1.62 9.09-6.27 1.09-10.2-1.48-11.68-8.6-1.46-7.02-2.81-14.19-3.01-21.33-.48-17.96-3.31-35.53-7.2-52.99-.51-2.3-1.52-4.48-2.57-7.47 3.7 0 6.48.05 9.26-.01 8.16-.17 16.31-.36 24.46-.58.64-.02 1.26-.35 1.91-.42 8.99-1 8.76-1 9.05-9.83.52-16.4-1.09-32.46-6.04-48.17-1.75-5.55 2.79-10.02 8.17-7.74 6.55 2.78 12.75 6.23 17.32 12.36 3.36 4.51 2.54 9.14 2.38 13.76-.3 8.21-1.18 16.4-1.89 24.6-.28 3.22-.74 6.43-1.15 9.99 6.91-1.66 13.18-3.32 19.51-4.63 6.78-1.4 13 .92 18.62 4.27 4.6 2.74 8.66 6.42 12.86 9.81 3 2.42 4.58 5.59 1.93 9.02-7.6 9.86-10.04 21.78-13.71 33.21-1.59 4.95-2.74 10.05-4.4 14.97-.87 2.57-1.12 4.45 1.85 5.58.58.22 1.16.74 1.49 1.28 1.27 2.07 3.64 4.38 3.37 6.29-.54 3.76-4.32 3.02-7.24 3.24-11.59.88-23.17 1.86-34.9 2.82v50.7c6.78-1.29 13.47-2.56 20.91-3.98-.38-5.01-.76-10.2-1.17-15.39-.29-3.6-.86-7.2-.81-10.8.02-1.45 1.24-4 2.12-4.09 1.66-.18 4.22.55 5.09 1.81 4.45 6.43 8.81 12.97 12.54 19.83 3.31 6.09 6.15 12.52 8.48 19.05 2.02 5.67-2.8 16.67-7.88 19.83-4.17 2.59-8.11 1.65-10.01-3.03-2.12-5.25-3.58-10.77-5.44-16.52-7.46 3.34-15.4 6.92-23.36 10.46-12.06 5.37-24.13 10.73-36.21 16.06-3.98 1.76-8.08 1.91-11.72-.59-5.25-3.59-10.62-7.15-15.28-11.44-4.73-4.36-3.7-7.86 2.37-9.05 12.47-2.45 25.05-4.41 37.53-6.81 1.68-.32 4.41-2 4.43-3.09.27-17.45.19-34.91.19-52.59zm18.6-72.2v54.99c3.87 0 7.84.42 11.65-.16 2.37-.36 5.95-1.76 6.52-3.51 4.97-15.15 5.95-30.85 5.22-46.69-.11-2.32-.26-4.7-3.63-4.66-6.27.07-12.55.03-19.76.03zm-38.8 5.52c1.29 18.51 2.58 36.85 3.9 55.76 5.38-.88 10.76-1.75 15.98-2.6 0-19.13 0-37.82 0-56.68-6.59 1.17-12.83 2.27-19.88 3.52z" fill="#010100"/><path d="m340.75 115.48c-3.1 4.65-8.31 4.1-12.66 5.64-11.02 3.91-21.92 8.18-32.89 12.21-3.42 1.26-6.94 2.23-10.41 3.33-.39-.46-.78-.91-1.18-1.37.82-1.95 1.43-4.03 2.49-5.84 3.89-6.6 8.11-13.01 11.88-19.68 2.9-5.13 1.15-8.52-4.85-8.64-6.9-.14-13.88.29-20.72 1.25-13.74 1.93-27.39 4.45-41.1 6.59-9.37 1.47-18.76 2.77-28.17 4.02-2.16.29-4.39.04-5.52.04-4.38 11.83-8.53 23.08-12.75 34.3-.45 1.2-1.25 2.32-2.08 3.31-3.96 4.74-5.86 4.67-9.21-.58-1.91-2.99-3.67-6.11-5.21-9.32-3.64-7.57-.36-14.06 3.78-20.13 5.17-7.57 8.97-15.46 9.02-24.91.01-1.63 1.87-3.83 3.46-4.65.82-.42 3.61 1.25 4.29 2.59 2.65 5.21 6.66 4.69 11.32 3.8 4.5-.86 9.15-.93 13.72-1.47 8.08-.95 16.15-1.98 24.72-3.04-2.89-8.47-5.74-16.13-8.1-23.93-1.55-5.11-2.82-10.37-3.46-15.66-.5-4.1 2.06-5.45 5.42-3.05 5.06 3.62 9.86 7.6 14.72 11.49 2.31 1.85 5.08 3.47 6.61 5.85 1.94 3.02 3.41 6.61 4 10.14.67 4.05.16 8.3.16 12.67 11.12-1.08 23.08-2.29 35.06-3.37 5.58-.5 11.25-1.39 16.77-.87 3.82.36 8.15 2 11.03 4.49 7.99 6.92 15.18 14.67 19.86 24.79z" fill="#010100"/><g fill="#fbfcfa"><path d="m346.9 398 5.4-7.3h-5.2v-.6h4.9v.6l-5.4 7.2h5.5l-.1.6h-6.2v-.5z"/><path d="m354.7 390.1h2.8c2.3 0 3.9 1.6 3.9 4.1s-1.6 4.3-3.9 4.3h-2.8zm.6 7.8h2c2.2 0 3.3-1.6 3.3-3.6 0-1.8-1-3.6-3.3-3.6h-2z"/><path d="m363.9 390.1v8.4h-.6v-8.4z"/><path d="m372.5 396.3c-.4 1.3-1.4 2.3-3.2 2.3-2.4 0-3.7-1.9-3.7-4.3 0-2.3 1.2-4.3 3.7-4.3 1.8 0 2.9 1 3.2 2.4h-.6c-.4-1.1-1.1-1.8-2.5-1.8-2.1 0-3 1.9-3 3.7s.9 3.7 3 3.7c1.4 0 2.1-.7 2.5-1.7z"/><path d="m373.8 398.5v-1.5h.6v1.5z"/><path d="m376.2 398.5v-8.4h1c1.3 2 4.4 6.6 4.9 7.6-.1-1.2-.1-2.4-.1-3.8v-3.8h.7v8.4h-.9c-1.2-1.9-4.4-6.8-5-7.7.1 1.1 0 2.3 0 3.9v3.9h-.6z"/><path d="m390 394.4h-4.3v3.5h4.7l-.1.6h-5.2v-8.4h5.1v.6h-4.5v3.1h4.3z"/><path d="m394.2 390.7h-2.8v-.6h6.3v.6h-2.8v7.8h-.7z"/></g></svg>