<svg enable-background="new 0 0 400 400" viewBox="0 0 400 400" xmlns="http://www.w3.org/2000/svg"><path d="m90.02 101.96c10.57-13.05 16.75-27.96 22.45-43.06 1.42-3.76 1.86-7.92 2.48-11.94.47-3.07.77-5.8 5.03-4.03 6.56 2.72 13.45 4.81 19.67 8.16 6.84 3.69 6.68 6.78.94 11.85-7.3 6.45-14.63 12.89-21.6 19.69-5.16 5.03-9.76 10.62-14.73 16.09 11.29-2.61 22.37-5.06 33.38-7.78 3.28-.81 6.51-2.12 9.55-3.63 7.27-3.61 14.01-2.69 20.96 1.13 6.11 3.36 12.29 6.53 15.52 13.05.73 1.47.56 4.46-.47 5.55-7.51 7.96-9.67 17.87-11.21 28.15-2.37 15.83-6.15 31.33-12.21 46.15-3.57 8.75-9.73 15.39-18.87 18.58-1.52.53-4.42.03-5.32-1.09-6.66-8.28-13-16.83-19.39-25.33-1.97-2.61-3.81-5.31-6.74-9.4 2.92.26 5.01.08 6.85.66 7.12 2.24 14.07 5.08 21.3 6.83 1.71.41 5.57-2.17 6.16-4.08 2.84-9.13 5.21-18.45 7.15-27.82 2.01-9.74 3.2-19.65 5.01-29.44 1.45-7.81-1.52-10.56-9.44-9.08-13.31 2.49-26.7 4.57-40.05 6.82-4.02.68-8.2.93-12 2.25-1.56.54-3.15 3.34-3.29 5.23-1.23 16.12-2.27 32.25-3.09 48.4-.57 11.09-.67 22.2-1.06 33.3-.25 6.94-.66 13.87-.97 20.81-.07 1.61-.01 3.22-.01 5 17.46-2.39 34.33-4.5 51.13-7.07 9.82-1.5 19.48-4 29.3-5.48 3.18-.48 7.04.09 9.88 1.55 6.35 3.27 12.35 7.26 18.31 11.23 3.05 2.03 4.14 4.9 1.31 8.13-5.01 5.72-4.68 13.13-5.78 19.91-2.46 15.18-3.58 30.59-6.32 45.71-2.69 14.85-5.42 29.89-13.83 42.96-5.79 9-14.11 14.8-23.99 18.57-4.74 1.81-8.31.86-11.09-3.67-6.92-11.25-14.08-22.37-21.06-33.58-.63-1.01-.72-2.36-1.06-3.55.32-.43.64-.87.96-1.3 3.23 1.51 6.48 2.97 9.67 4.55 6.54 3.23 12.48 7.61 20.25 8.19 6.02.45 10.37-3.77 12.32-9.73 5.28-16.14 10.14-32.37 11.04-49.5.56-10.7 1.55-21.39 1.9-32.09.31-9.56-2.17-12.3-11.4-11.68-11.1.74-22.21 2.02-33.19 3.83-11.22 1.85-22.35 4.4-33.4 7.11-4.04.99-7.63 3.71-11.64 4.9-2.19.64-5.97.66-7.06-.67-3.24-3.97-6.69-8.46-7.78-13.27-.81-3.61 2.23-7.95 2.99-12.07 1.41-7.7 3.03-15.44 3.42-23.22.79-15.58-.03-31.27 1.4-46.77 1.13-12.19-.31-23.89-2.33-35.68-.46-2.67-1.75-5.22-2.79-7.77-1.76-4.3-.43-6.95 4.34-6.32 5.38.71 10.57 2.94 15.82 4.56.89.29 1.75.78 2.68 1.2z" fill="#010100"/><path d="m242.15 228.1c-15.24 8.37-28.27 3.87-40.9-3.17-1.5-.84-3.3-3.56-2.92-4.78.53-1.69 2.83-3.67 4.63-3.99 6.28-1.08 12.67-1.63 19.03-2.12 6.74-.53 13.51-.76 20.92-1.16 2.59-19.8 3.79-39.61 2.86-59.69-11.85 2.3-23.44 4.08-33.6-6.55 11.54-6.51 24.23-3.79 34.82-6.98 0-5.35.18-10.42-.03-15.48-.57-13.36-.86-26.77-2.17-40.06-.59-6.04-3.22-11.9-5.13-17.77-2.5-7.71.31-12.1 8.2-10.6 7.53 1.43 14.81 4.47 21.97 7.35 4.41 1.78 5.33 5.11 3.34 9.96-2.07 5.04-3.74 10.6-3.93 16-.52 15.21-.18 30.45-.18 45.99 7.21-1.7 14.93-3.52 22.64-5.37 1.58-.38 3.2-.74 4.66-1.41 14.15-6.5 24.2 2.4 34.39 9.59 3.12 2.2 3.12 6.42 1.58 10.6-6.41 17.34-12.42 34.83-18.58 52.26.5.42 1.01.85 1.51 1.27 1.77-.31 3.56-.51 5.29-.96 10.23-2.63 19.85-.3 29.04 4.01 4.5 2.11 8.72 4.97 12.69 7.99 1.41 1.07 2.72 3.96 2.23 5.39-.53 1.57-3.11 3.24-4.94 3.41-4.63.44-9.34.03-14.02.02-12.05-.03-24.09-.15-36.14.02-5.26.07-10.51.69-15.76 1.17-9.32.85-18.61 1.9-27.94 2.59-3.12.23-4.04 2.02-4.66 4.46-3.7 14.5-6.54 29.28-11.33 43.41-4.6 13.58-11.8 26.05-20.94 37.41-9.44 11.73-21.39 19.63-34.87 25.68-.75.33-1.44.98-2.2 1.05-1.79.17-3.6.08-5.4.09.79-1.64 1.25-3.56 2.42-4.86 7.62-8.48 16.4-16.13 22.89-25.38 10.18-14.49 16.38-31.09 21.4-48.04 2.93-9.94 5.8-19.9 9.13-31.35zm21.7-19.95c9.12-.77 17.58-1.4 26.01-2.35.83-.09 1.8-2.06 2.08-3.29 1.7-7.62 3.37-15.25 4.74-22.93 1.6-8.98 2.99-18.01 4.27-27.05.57-4.02-1.6-5.91-5.58-5.51-9.06.9-18.11 1.87-26.8 2.78-1.6 19.8-3.14 38.75-4.72 58.35z" fill="#010100"/><path d="m273.7 253.44c2.7.84 5.66 1.23 8.07 2.6 14.47 8.2 29.17 16.08 43.13 25.1 17.61 11.38 27.36 27.56 26.09 49.24-.45 7.65-4.89 12.95-10.17 11.42-2.93-.85-5.9-3.09-7.84-5.52-6.55-8.15-12.62-16.69-18.93-25.03-11.25-14.86-22.57-29.66-33.79-44.54-2.79-3.7-5.28-7.63-7.91-11.45.44-.61.89-1.22 1.35-1.82z" fill="#010100"/><path d="m134.57 279.84c-14.51.72-29.1.74-43.5 2.43-9.09 1.06-18.04 4.17-26.76 7.21-6.08 2.12-21.82-4.08-25.87-10.83-.55-.92.46-3.99 1.43-4.38 2.95-1.2 6.21-1.9 9.4-2.2 15.36-1.45 30.78-2.35 46.1-4.12 12.78-1.48 25.4-4.57 38.19-5.59 5.08-.4 10.49 2.73 15.66 4.5 1.48.5 2.86 1.67 3.96 2.84 1.43 1.53 3.77 3.67 3.45 5-.39 1.62-2.99 3.48-4.89 3.83-5.64 1.04-11.4 1.39-17.11 2-.02-.24-.04-.46-.06-.69z" fill="#010100"/><path d="m126.65 154.39c-1.54-.8-4.26-1.37-5.63-3.05-7.25-8.86-14.19-17.97-21.13-27.08-.47-.62-.28-2.1.12-2.92.3-.62 1.53-1.31 2.19-1.17 11.34 2.33 22.04 6.03 30.24 14.78 3.1 3.31 2.08 16.16-1.52 18.51-.9.56-2.2.5-4.27.93z" fill="#010100"/><g fill="#fbfcfa"><path d="m346.9 398 5.4-7.3h-5.2v-.6h4.9v.6l-5.4 7.2h5.5l-.1.6h-6.2v-.5z"/><path d="m354.7 390.1h2.8c2.3 0 3.9 1.6 3.9 4.1s-1.6 4.3-3.9 4.3h-2.8zm.6 7.8h2c2.2 0 3.3-1.6 3.3-3.6 0-1.8-1-3.6-3.3-3.6h-2z"/><path d="m363.9 390.1v8.4h-.6v-8.4z"/><path d="m372.5 396.3c-.4 1.3-1.4 2.3-3.2 2.3-2.4 0-3.7-1.9-3.7-4.3 0-2.3 1.2-4.3 3.7-4.3 1.8 0 2.9 1 3.2 2.4h-.6c-.4-1.1-1.1-1.8-2.5-1.8-2.1 0-3 1.9-3 3.7s.9 3.7 3 3.7c1.4 0 2.1-.7 2.5-1.7z"/><path d="m373.8 398.5v-1.5h.6v1.5z"/><path d="m376.2 398.5v-8.4h1c1.3 2 4.4 6.6 4.9 7.6-.1-1.2-.1-2.4-.1-3.8v-3.8h.7v8.4h-.9c-1.2-1.9-4.4-6.8-5-7.7.1 1.1 0 2.3 0 3.9v3.9h-.6z"/><path d="m390 394.4h-4.3v3.5h4.7l-.1.6h-5.2v-8.4h5.1v.6h-4.5v3.1h4.3z"/><path d="m394.2 390.7h-2.8v-.6h6.3v.6h-2.8v7.8h-.7z"/></g></svg>