<svg enable-background="new 0 0 400 400" viewBox="0 0 400 400" xmlns="http://www.w3.org/2000/svg"><path d="m378.6 9.2.8-1c.9.7 1.9 1.4 2.9 2.3l-.9 1.1c-1.1-.9-2-1.7-2.8-2.4zm.5 10.7c.9-2.1 1.6-4.3 2.3-6.7.4.2.8.4 1.3.6-.7 3.1-1.5 4.3-2.2 6.6zm.4-15.2.9-.9c1 .8 2 1.6 2.8 2.4l-1 1c-1-.9-1.9-1.8-2.7-2.5zm12.5-1.3h1.2v1.4h2.7v1.1h-2.7v2.7h-1.2v-.5h-1.8v1.3h4.9v3.8h-1.2v-.5h-3.7c0 .4-.1.9-.1 1.2h5.1v1h-5.2c0 .6-.1.9-.3 1.2h6v1h-5.2c1.1 1.3 2.9 2 5.5 2.2-.4.4-.7.8-.9 1.3-2.9-.5-4.8-1.6-5.7-3.5h-.1c-.8 1.7-2.7 2.9-5.9 3.6-.2-.4-.6-.8-.9-1.1 2.8-.6 4.6-1.4 5.4-2.5h-4.8v-1h5.3c.1-.3.2-.7.2-1.2h-4.9v-1h5c0-.4 0-.8.1-1.2h-3.6v.5h-1.2v-3.8h4.9v-1.3h-1.8v.5h-1.1v-2.7h-2.6v-1.1h2.6v-1.4h1.2v1.4h4.7v-1.4zm-6.7 8.4h3.6c0-.4 0-.9 0-1.4h-3.6zm1.9-4.7h4.7v-1.2h-4.7zm6.7 3.3h-3.7v1.4h3.7z" fill="#fcfafa"/><path d="m384.7 21.4h1.3v2.2h2.8v-2.2h1.3v2.2h4.1v9.1h1.7v1.3h-16.9v-1.3h1.7v-9.1h4.1v-2.2zm.3 13.2.7 1.2c-1.8.9-3.8 1.9-6 2.9-.2-.4-.5-.7-.8-1.3 2.4-1 4.4-2 6.1-2.8zm-3.1-6.5h2.8v-3.2h-2.8zm0 4.6h2.8v-3.3h-2.8v3.2zm4.1-4.6h2.8v-3.2h-2.8zm0 4.6h2.8v-3.3h-2.8zm3.6 1.9c2.1.9 4.1 1.8 6.1 2.7l-.7 1.3c-2.2-1.1-4.2-2-6.1-2.9zm3.3-9.7h-2.8v3.2h2.8zm-2.8 7.8h2.8v-3.3h-2.8z" fill="#fcfafa"/><g fill="#010103"><path d="m87.95 271.98c3.22-.7 5.07-1.44 6.93-1.46 19.72-.24 39.45-.24 59.17-.61 4.85-.09 9.68-1.24 14.71-1.92 0-2.95 0-5.56 0-8.3-11.08.77-22.13 1.6-33.2 2.25-2.06.12-4.18-.79-6.26-.77-2.16.02-4.16-.93-6.52 1.18-3 2.67-6.98 1.6-8.92-2.02-2.35-4.4-4.48-9.07-5.72-13.88-2.85-11.08-6.05-21.9-12.54-31.55-1.66-2.48-.83-4.77 2.91-4.92 5.11-.21 10.2-.71 15.31-.96 14.37-.71 28.74-1.31 43.1-2.07 1.72-.09 3.72-.53 5.06-1.52 7.47-5.51 14.78-11.23 22.15-16.88-.28-.56-.56-1.11-.84-1.67-4.36.71-8.72 1.48-13.09 2.12-8.88 1.31-17.88 2.07-26.64 3.96-10.95 2.37-21.6 6.22-32.58 8.39-8.66 1.71-17.62 1.89-26.46 2.58-1.16.09-2.4-.84-3.96-1.44 22.82-10.66 46.98-17.9 60.74-41.54 9.41 2.87 9.18 12.28 11.98 19.7 10.68-3.26 21.45-5.87 31.68-9.89 8.75-3.44 15.7-1.18 22.28 4.12 3.54 2.85 6.74 6.2 9.69 9.67 4.05 4.76 2.79 7.92-3.1 9.5-9.41 2.53-18.77 5.27-28.14 7.97-1.03.3-1.98.85-2.8 1.93 8.1-.65 16.23-1.08 24.3-2.01 9.42-1.08 18.96-1.89 28.14-4.11 10.77-2.61 18.17 3.64 26.12 8.35 4.08 2.42 3.03 6.89.44 9.94-6.77 7.97-9.34 17.79-13.1 27.15-2.05 5.1-3.77 11.17-11 11.75-3.27.26-6.53.76-9.8.96-6.93.41-13.87.65-20.8 1.05-7.23.41-14.45.93-21.92 1.42v8.34c8.18-.94 16.11-2.06 24.08-2.71 14.29-1.17 28.59-2.3 42.91-2.88 3.63-.15 7.99.99 10.88 3.09 4.92 3.59 9.18 8.2 13.26 12.79 3.05 3.42.74 7.03-1.71 9.46-7.9 7.85-10.02 18.58-14.69 28.03-1.44 2.91-2.84 5.9-4.7 8.54-2.55 3.63-7.24 4.28-9.6.83-4-5.84-9.57-5.06-15.14-4.9-7.94.23-15.87.62-23.8.98-5.03.23-10.06.54-15.57.85 6.87 10.27 16.62 14.29 27.52 14.99 14.4.93 28.89 1.59 43.28.92 13.37-.62 26.67-2.97 39.96-4.89 7.75-1.12 10.86-7.21 12.99-13.82 2.15-6.65 3.97-13.42 6.18-20.05.4-1.2 1.87-2.52 3.07-2.8.71-.17 2.48 1.46 2.74 2.53 2.81 11.87 5.56 23.75 8.01 35.7 1.51 7.36-2.75 12.59-12.54 14.44-12.99 2.45-26.06 4.75-39.21 5.97-14.97 1.38-30.08 2.35-45.08 1.92-15.79-.45-31.76-1.59-46.11-9.75-8.12-4.61-14.58-10.67-17.23-19.83-1.07-3.71-3.08-4.56-6.45-4.2-6.86.73-13.72 1.49-20.6 1.96-7.42.51-14.87.67-22.3 1.07-2.66.14-5.39-1-7.33 2.75-1.42 2.75-6.82.73-8.94-3.7-2.09-4.37-3.53-9.06-5.09-13.67-3.43-10.17-6.57-20.44-10.23-30.52-.98-2.61-3.41-4.67-5.88-7.91zm97.33 4.05v11.32c5.38-.47 10.43-.86 15.46-1.36 9.47-.94 18.91-2.36 28.4-2.77 5.54-.23 11.33-2 16.76.83 1.56.81 3.05 1.74 4.72 2.7.98-9.61-.54-11.39-9.72-11.73-2.33-.09-4.66-.06-7-.01-16.15.33-32.31.67-48.62 1.02zm-.18 32.88c5.99-.32 11.56-.49 17.1-.94 6.38-.51 12.74-1.81 19.1-1.76 5.98.05 12.83-3.33 17.82 3.19.35.45 2.85.14 3.32-.53 2.64-3.8 4.96-7.82 7.39-11.77-.4-.44-.79-.87-1.19-1.31-21.17 1.18-42.33 2.36-63.54 3.55zm51.48-85.47c1.48-10.07 1.16-10.57-9.01-10.41-13.39.21-26.78.64-40.17.96-1.56.04-3.12.01-4.41.01 1.41 4.14 2.68 7.86 3.97 11.64 16.29-.22 32.73-6.36 49.62-2.2zm-117.36 87.56c14.12 0 27.82.09 41.52-.03 9.62-.08 9.51 2.27 9.15-9.78-.01-.29-.28-.57-.49-.97-16.63 1.04-33.31 2.09-50.19 3.14.01 2.76.01 5.36.01 7.64zm49.51-32.62c-18.04 1.48-35.82 2.94-53.65 4.4.55 2.86.95 4.89 1.25 6.44h52.4c0-4.18 0-7.59 0-10.84zm16.65-41.95v9.73c16.59-1.55 32.78-3.06 49.65-4.63.47-1.85 1.25-4.91 2.1-8.24-17.49 1.07-34.49 2.1-51.75 3.14zm-16.16 12.56c-.67-4.52-1.12-7.51-1.66-11.15-15.1.88-30.2 1.77-45.25 2.65.23 1.78.1 3.72.81 5.27.6 1.31 2.16 3.07 3.32 3.09 14.06.22 28.12.14 42.78.14zm-4.65-31.79c-15.01 1.44-29.99 2.88-44.96 4.31 1.19 7.58 1.18 7.58 9.09 6.53.82-.11 1.66-.01 2.5-.04 8.43-.33 16.87-.56 25.29-1.05 3.17-.18 6.3-.96 9.44-1.47-.49-2.93-.9-5.48-1.36-8.28z"/><path d="m233.88 144.03c-13.06 18.57-32.22 22.12-53.36 20.77-1.45-3.04.33-4.15 2.79-4.76 9.65-2.4 18.54-6.48 26.09-12.91 5-4.25 9.36-9.26 13.96-13.88-5.76-4.8-10.77-9.02-15.82-13.18-1.26-1.03-2.55-2.44-4.01-2.72-3.3-.63-5.26-3.31-4.13-5.38 1.09-2.02 4.87-3.95 7.16-3.64 3.71.51 7.39 2.52 10.66 4.56 4.01 2.51 7.58 5.72 11.34 8.62 5.06-7.19 8.08-19.09 7-28.58-1.71.35-3.41 1.11-5.02.96-5.34-.51-10.64-1.47-15.98-1.98-1.86-.18-4.22-.14-5.62.84-6.82 4.78-13.36 9.96-20.09 14.87-1.17.85-2.77 1.1-4.18 1.62-.36-.33-.72-.66-1.08-.99.85-1.96 1.46-4.06 2.58-5.85 5.77-9.28 12.09-18.25 17.41-27.77 4.46-7.98 6.69-16.75 5.66-26.17-.11-.97 2.89-3.43 4.03-3.19 9.45 1.98 16.31 7.92 21.11 15.97.84 1.4-.66 5.09-2.15 6.8-3.25 3.72-7.18 6.84-10.83 10.2.26.52.51 1.04.77 1.56 3.89-.29 7.81-.39 11.66-.92 9.23-1.26 18.4-3.36 27.66-3.85 5.23-.27 10.71 1.63 15.83 3.29 1.62.53 3.25 3.42 3.35 5.31.06 1.14-2.69 3.18-4.43 3.51-8.63 1.65-17.33 2.87-26.96 4.39 2.27 3.07 4.08 5.85 6.24 8.35 2.88 3.33 3.4 6.07.64 10.19-4.78 7.15-8.59 14.94-12.59 22.08 19.29 13.65 43.03 16.03 65.6 25.1-3.39 2.16-5.53 4.02-8.02 5.02-9.68 3.91-19.32 7.74-30.12 7.84-6.65.06-11.07-3.66-15.55-7.3-7.16-5.79-13.95-12.08-21.6-18.78z"/><path d="m114.23 97.76c-1.58-15.13 2.38-30.26-2.73-45.02-.4-1.16.73-3.71 1.87-4.36 2.11-1.21 5.6-2.82 7.03-1.91 5.19 3.29 11.1 6.73 14.12 11.71 2.18 3.58.69 9.76-.05 14.65-1.15 7.54-3.06 14.96-4.92 23.68 7.01-.75 13.51-.62 19.53-2.26 10.97-2.97 20.82-.39 30.17 4.76 1.45.8 1.51 5.17 1.26 7.79-.48 4.99-2.27 9.89-2.4 14.86-.34 12.84.29 25.81-3.63 38.22-4.94 15.61-7.11 16.15-19.58 6.51-5.69-4.4-11.45-8.73-17.11-13.17-.83-.65-1.28-1.78-1.9-2.69 1.02-.51 2.02-1.39 3.08-1.47 5.92-.46 11.85-.71 17.77-1.08 2.5-.15 4.34-.84 4.31-4.04-.12-10.85.02-21.7-.06-32.54-.04-5.52-5.01-6.15-8.32-6.16-8.86-.04-17.74.99-26.6 1.7-7.7.62-15.39 1.36-23.09 2.07-3.43.32-6.86.66-10.29 1.02-2.76.29-3.9 1.7-3.73 4.6.76 12.69 1.64 25.39 1.9 38.1.1 4.65-1.01 9.43-2.27 13.96-1.44 5.17-4.71 5.42-8.78 1.73-8.23-7.46-9.02-16.89-6.62-26.59 1.98-8.02-.7-15.28-1.76-22.8-.77-5.46-2.46-10.78-3.41-16.21-.19-1.09.9-2.67 1.83-3.6.52-.52 1.95-.36 2.9-.17 13.58 2.7 26.99.14 41.48-1.29z"/><path d="m115.21 145.75c-1.19 1.95-1.86 4-2.58 4.02-1.61.03-3.88-.46-4.73-1.6-1.7-2.27-3.06-5.01-3.8-7.75-2.02-7.48-3.64-15.06-5.56-23.23 1.04-.28 3.04-1.57 4.26-1.04 8.59 3.7 16.2-1.01 24.03-2.72 8.59-1.88 16.81.29 21.37 7.5.83 1.32.21 3.68-.05 5.51-.13.88-1 1.64-1.52 2.46-2.63 4.09-7.04 8.06-.09 12.39.94.58 1.31 3.07.93 4.38-.22.76-2.5 1.31-3.84 1.27-9.59-.31-19.17-.79-28.42-1.19zm14.71-10.11c.45-3.5.87-6.83 1.4-10.94-5.89 0-10.99 0-16.08 0v13.56c4.9-.88 9.48-1.7 14.68-2.62z"/><path d="m78.43 65.73c5.49.77 11.65.28 16.24 2.73 3.48 1.86 5.24 7.35 7.2 11.49.84 1.78.98 4.64.11 6.32-2.84 5.52-7.39 6.23-12.3 1.75-6.05-5.52-11.7-11.48-17.42-17.35-.69-.7-1.35-2.41-.99-2.94.61-.88 2-1.42 3.16-1.67 1.27-.28 2.64-.06 3.97-.06.01-.09.02-.18.03-.27z"/><path d="m143.36 84.19c2.03-5.37 3.96-10.78 6.13-16.1.79-1.94 2.25-3.6 3.23-5.47 2.39-4.57 6.1-5.63 9.97-2.32 3.33 2.85 6.59 5.92 9.18 9.42.92 1.25.41 5.49-.51 5.88-8.7 3.74-17.62 6.94-26.48 10.3-.51-.57-1.01-1.14-1.52-1.71z"/></g></svg>