<svg enable-background="new 0 0 400 400" viewBox="0 0 400 400" xmlns="http://www.w3.org/2000/svg"><g fill="#fafbfa"><path d="m342.2 3.2-6.3 9.2h6.1v1.2h-8.2v-.5l6.2-9.1h-5.7v-1.2h7.8v.4z"/><path d="m344 13.7v-10.9h3.1c1.6 0 3 .5 4.1 1.4 1.1 1 1.6 2.2 1.6 3.9s-.5 3-1.6 4-2.5 1.5-4.2 1.5h-3zm1.4-9.6v8.4h1.6c1.4 0 2.5-.4 3.2-1.1.8-.8 1.2-1.8 1.2-3.2s-.4-2.4-1.2-3.1-1.8-1-3.1-1z"/><path d="m356.3 2.8v10.9h-1.4v-10.9z"/><path d="m366.6 13.2c-.8.4-1.8.6-3 .6-1.6 0-2.8-.5-3.7-1.5s-1.4-2.3-1.4-3.9c0-1.7.5-3.2 1.6-4.2s2.4-1.6 4-1.6c1 0 1.9.1 2.6.4v1.5c-.8-.4-1.6-.6-2.6-.6-1.2 0-2.2.4-3 1.2s-1.1 1.9-1.1 3.3c0 1.3.4 2.3 1.1 3.1s1.6 1.1 2.8 1.1c1.1 0 2-.2 2.8-.7v1.3z"/><path d="m368.2 13c0-.3.1-.5.3-.6.2-.2.4-.3.6-.3.3 0 .5.1.7.3s.3.4.3.6-.1.5-.3.6c-.2.2-.4.3-.7.3s-.5-.1-.6-.3c-.2-.2-.3-.4-.3-.6z"/><path d="m381.1 13.7h-1.7l-5.5-8.4c-.2-.2-.3-.5-.4-.7 0 .2.1.8.1 1.5v7.6h-1.4v-10.9h1.8l5.3 8.3c.3.4.4.6.4.8 0-.3-.1-.8-.1-1.6v-7.5h1.4v10.9z"/><path d="m389.7 13.7h-5.8v-10.9h5.6v1.2h-4.2v3.5h3.9v1.2h-3.9v3.7h4.4z"/><path d="m398.4 4.1h-3.1v9.6h-1.4v-9.6h-3.1v-1.3h7.7v1.3z"/></g><path d="m349.69 272.89c1.43 3.95 3.02 7.84 4.27 11.85 5.31 17.09 10.29 34.29 15.85 51.29 3.93 12.03-.57 19.34-13.08 19.07-24.93-.53-48.6-5.41-68.08-22.46-16.78-14.68-25.29-33.66-26.59-55.59-1.55-26.11 3.04-51.62 9.63-76.78 1.77-6.76-.06-9.99-7-9.12-13.12 1.66-26.17 3.99-39.18 6.45-18.9 3.57-37.66 7.94-56.62 11.1-9.41 1.57-17.52-2.87-23.87-9.86-1.25-1.38-2.12-4.29-1.49-5.8.52-1.24 3.53-2.07 5.41-2.02 36.81.99 72.9-3.93 108.44-13.19 6.08-1.58 11.8-4.48 17.83-6.3 2.86-.86 6.65-1.82 8.99-.67 7.99 3.95 15.77 8.47 23.14 13.49 4.07 2.77 3.93 6.42.23 9.09-13.69 9.9-19.91 24.3-23.73 39.86-5.12 20.88-5.45 42.01 2.37 62.23 6.22 16.08 19.81 25.58 35.1 32.23 7.5 3.26 13.33.36 15.38-7.64 3.53-13.79 6.09-27.82 9.12-41.74.4-1.83 1.12-3.58 1.69-5.37.74-.03 1.47-.08 2.19-.12z" fill="#010104"/><path d="m80.82 176.35c-8.15 9.89-15.82 19.93-24.28 29.26-6.34 6.98-13.56 13.19-20.68 19.42-1.74 1.52-4.58 1.78-6.91 2.63-.41-.49-.82-.97-1.23-1.46 1.48-2.79 2.78-5.7 4.47-8.36 15.71-24.68 31.98-49.01 47.08-74.05 11.87-19.68 20.08-41.18 27.43-62.95 2.61-7.73.89-15.02-2.05-22.31-.97-2.41-1.98-6.46-.8-7.7 1.61-1.7 5.48-2.37 8.06-1.85 11.67 2.34 21.01 8.88 28.62 17.82 2.61 3.06 2.57 7.14 0 10.2-12.57 14.98-19.43 33.27-29.22 49.84-5.92 10.01-11.74 20.09-17.89 29.96-1.67 2.67-1.56 4.31.58 6.42 2.25 2.21 3.97 4.98 6.32 7.06 5.54 4.93 6.25 10.92 5.91 18.01-1.04 21.58-1.66 43.2-1.86 64.81-.17 19.13 1.13 38.29.42 57.39-.35 9.44-3.52 18.83-5.96 28.1-.56 2.12-3.38 5.11-5.13 5.08-2.29-.03-5.45-2.13-6.68-4.25-7.15-12.36-11.21-25.47-7.91-40 7.1-31.18 9-62.81 7.51-94.65-.42-9.05-.21-18.37-4.72-26.76-.3-.57-.7-1.08-1.08-1.66z" fill="#010104"/><path d="m187.46 105.87c-10.03 11.5-19.45 22.9-29.57 33.63-4.49 4.76-10.3 8.34-15.77 12.07-1.87 1.27-4.53 1.38-6.82 2.03-.29-.36-.58-.72-.87-1.08.77-1.46 1.38-3.04 2.35-4.35 6.64-8.95 13.74-17.59 19.96-26.81 10-14.82 18.16-30.7 21.24-48.46 1.22-7.04.34-14.53-.27-21.75-.5-6.01.72-8.47 6.56-8.01 10.08.78 18.2 6.11 25.12 13.03 1.18 1.18.78 5.12-.22 7.11-5.09 10.05-10.63 19.88-16.84 31.33 10.01-1.19 18.75-1.55 27.19-3.36 21.39-4.57 42.61-9.92 63.96-14.69 8.81-1.97 17.25.19 24.93 4.55 2.07 1.18 4.47 4.47 4.16 6.39-.31 1.94-3.57 4.35-5.91 4.86-16.04 3.49-32.14 6.7-48.28 9.67-14.52 2.68-29.13 4.89-43.68 7.4-9.82 1.66-19.12-.24-27.24-3.56z" fill="#010104"/><path d="m264.76 127.21c4.6 1.16 9.92 1.94 14.7 3.96 2.39 1.02 4.94 4.11 5.41 6.64.69 3.71-3.28 4.56-6.11 5.18-15.67 3.45-31.34 6.96-47.1 9.99-9.24 1.78-18.6 3.18-27.98 3.86-7.47.54-14.39-2.2-20.26-6.98-1.16-.94-1.72-2.62-2.56-3.95 1.35-.7 2.67-1.9 4.07-2.01 23.11-1.79 45.55-6.64 67.45-14.2 3.69-1.27 7.72-1.58 12.38-2.49z" fill="#010104"/></svg>