<svg enable-background="new 0 0 400 400" viewBox="0 0 400 400" xmlns="http://www.w3.org/2000/svg"><g fill="#fafbfa"><path d="m342.2 3.2-6.3 9.2h6.1v1.2h-8.2v-.5l6.2-9.1h-5.7v-1.2h7.8v.4z"/><path d="m344 13.7v-10.9h3.1c1.6 0 3 .5 4.1 1.4 1.1 1 1.6 2.2 1.6 3.9s-.5 3-1.6 4-2.5 1.5-4.2 1.5h-3zm1.4-9.6v8.4h1.6c1.4 0 2.5-.4 3.2-1.1.8-.8 1.2-1.8 1.2-3.2s-.4-2.4-1.2-3.1-1.8-1-3.1-1z"/><path d="m356.3 2.8v10.9h-1.4v-10.9z"/><path d="m366.6 13.2c-.8.4-1.8.6-3 .6-1.6 0-2.8-.5-3.7-1.5s-1.4-2.3-1.4-3.9c0-1.7.5-3.2 1.6-4.2s2.4-1.6 4-1.6c1 0 1.9.1 2.6.4v1.5c-.8-.4-1.6-.6-2.6-.6-1.2 0-2.2.4-3 1.2s-1.1 1.9-1.1 3.3c0 1.3.4 2.3 1.1 3.1s1.6 1.1 2.8 1.1c1.1 0 2-.2 2.8-.7v1.3z"/><path d="m368.2 13c0-.3.1-.5.3-.6.2-.2.4-.3.6-.3.3 0 .5.1.7.3s.3.4.3.6-.1.5-.3.6c-.2.2-.4.3-.7.3s-.5-.1-.6-.3c-.2-.2-.3-.4-.3-.6z"/><path d="m381.1 13.7h-1.7l-5.5-8.4c-.2-.2-.3-.5-.4-.7 0 .2.1.8.1 1.5v7.6h-1.4v-10.9h1.8l5.3 8.3c.3.4.4.6.4.8 0-.3-.1-.8-.1-1.6v-7.5h1.4v10.9z"/><path d="m389.7 13.7h-5.8v-10.9h5.6v1.2h-4.2v3.5h3.9v1.2h-3.9v3.7h4.4z"/><path d="m398.4 4.1h-3.1v9.6h-1.4v-9.6h-3.1v-1.3h7.7v1.3z"/></g><path d="m251.67 208.33c-15.09 1.63-29.61 3.11-44.1 4.9-1.28.16-3.04 2.16-3.33 3.57-1.95 9.25-3.09 18.68-5.35 27.85-7.47 30.34-25.8 52.82-51.67 69.5-2.78 1.79-6.45 2.21-9.71 3.26-.36-.6-.73-1.2-1.09-1.8 1.92-2.36 3.76-4.78 5.78-7.06 9.79-11.05 20.5-21.29 27.36-34.76 9.16-18 14.71-36.9 16.71-57.85-8.29 1.32-16.05 2.58-23.81 3.77-9.81 1.51-18.07-1.43-24.55-8.96-.98-1.13-1.64-2.93-1.58-4.37.03-.58 2.39-1.33 3.76-1.52 14.64-2.04 29.28-4.07 43.94-5.86 2.85-.35 3.65-1.43 3.59-4.08-.39-16.76 1.22-33.6-2.58-50.22-.73-3.19-1.72-4.41-5.03-4.66-8.77-.65-14.95-5.41-20.1-14.09 5.55-.74 10.13-1.42 14.74-1.97 27.71-3.27 55.41-6.64 83.15-9.68 8.84-.97 17.83-1.81 26.64-1.17 4.35.32 8.62 3.89 12.57 6.52 1.3.87 2.15 3.49 1.93 5.15-.13.94-2.76 1.98-4.38 2.22-8.18 1.21-16.4 2.17-25.5 3.33 1.58 1.21 2.62 1.87 3.5 2.7 3.45 3.23 4.81 6.6 4.05 11.88-2.05 14.23-2.95 28.62-4.38 43.69 11.16-1.39 20.98-2.63 30.8-3.83 13.33-1.63 23.47 4.52 32.26 13.58 3.36 3.46 2.47 6.4-2.11 7.71-2.2.62-4.57.87-6.86.88-16 .07-31.99.04-47.99.04-1.79 0-3.58 0-6.26 0 0 11.94.19 23.4-.04 34.85-.58 28.62-1.19 57.24-2.15 85.85-.23 6.92-1.67 13.83-3.02 20.65-.35 1.76-2.51 3.17-3.83 4.73-1.37-1.25-3.56-2.28-3.97-3.79-1.67-6.22-3.57-12.53-3.98-18.9-1.13-17.58-1.78-35.2-2.2-52.81-.53-22.13-.65-44.28-.96-66.42-.01-.79-.14-1.6-.25-2.83zm-42.78-70.36c-1.1 19.71-2.15 38.54-3.24 58.13 16.02-1.71 31.05-3.31 46.18-4.93 0-4.19.13-7.36-.02-10.51-.61-12.44-.76-24.94-2.14-37.3-1.1-9.88-2.21-10.24-11.73-9.16-9.71 1.11-19.38 2.5-29.05 3.77z" fill="#010104"/><path d="m150.67 84.03c-2.9 23.08-5.12 45.85-8.72 68.41-7.28 45.67-20.25 89.47-47.35 127.77-6.48 9.16-15.01 16.87-22.65 25.2-1 1.09-2.19 2.17-3.51 2.77-1.48.68-3.21.81-4.84 1.18.26-1.5.16-3.19.83-4.48 5.17-10.05 10.51-20.02 15.75-30.03 22-42 36.5-86.57 43.19-133.4 2.64-18.51 2.02-37.51 2.48-56.29.09-3.67-1.65-7.4-2.68-11.07-.97-3.45-.21-5.28 3.8-5.52 12.61-.75 25.21-1.61 37.8-2.64 26.82-2.19 53.63-4.47 80.44-6.82 11.25-.98 22.5-2.03 33.71-3.42 9.85-1.22 17.32 3.6 24.51 9.07 1.43 1.09 2.75 3.97 2.29 5.45-.44 1.4-3.23 2.76-5.09 2.91-13.91 1.14-27.85 1.93-41.78 2.93-22.04 1.58-44.08 3.23-66.12 4.86-13.6 1-27.18 2.02-42.06 3.12z" fill="#010104"/></svg>