<svg enable-background="new 0 0 400 400" viewBox="0 0 400 400" xmlns="http://www.w3.org/2000/svg"><g fill="#fafbfa"><path d="m342.2 3.2-6.3 9.2h6.1v1.2h-8.2v-.5l6.2-9.1h-5.7v-1.2h7.8v.4z"/><path d="m344 13.7v-10.9h3.1c1.6 0 3 .5 4.1 1.4 1.1 1 1.6 2.2 1.6 3.9s-.5 3-1.6 4-2.5 1.5-4.2 1.5h-3zm1.4-9.6v8.4h1.6c1.4 0 2.5-.4 3.2-1.1.8-.8 1.2-1.8 1.2-3.2s-.4-2.4-1.2-3.1-1.8-1-3.1-1z"/><path d="m356.3 2.8v10.9h-1.4v-10.9z"/><path d="m366.6 13.2c-.8.4-1.8.6-3 .6-1.6 0-2.8-.5-3.7-1.5s-1.4-2.3-1.4-3.9c0-1.7.5-3.2 1.6-4.2s2.4-1.6 4-1.6c1 0 1.9.1 2.6.4v1.5c-.8-.4-1.6-.6-2.6-.6-1.2 0-2.2.4-3 1.2s-1.1 1.9-1.1 3.3c0 1.3.4 2.3 1.1 3.1s1.6 1.1 2.8 1.1c1.1 0 2-.2 2.8-.7v1.3z"/><path d="m368.2 13c0-.3.1-.5.3-.6.2-.2.4-.3.6-.3.3 0 .5.1.7.3s.3.4.3.6-.1.5-.3.6c-.2.2-.4.3-.7.3s-.5-.1-.6-.3c-.2-.2-.3-.4-.3-.6z"/><path d="m381.1 13.7h-1.7l-5.5-8.4c-.2-.2-.3-.5-.4-.7 0 .2.1.8.1 1.5v7.6h-1.4v-10.9h1.8l5.3 8.3c.3.4.4.6.4.8 0-.3-.1-.8-.1-1.6v-7.5h1.4v10.9z"/><path d="m389.7 13.7h-5.8v-10.9h5.6v1.2h-4.2v3.5h3.9v1.2h-3.9v3.7h4.4z"/><path d="m398.4 4.1h-3.1v9.6h-1.4v-9.6h-3.1v-1.3h7.7v1.3z"/></g><path d="m182.02 82.68c-1.48-12.89-2.85-25.9-4.59-38.87-.28-2.12-2.48-3.92-3.25-6.07-.73-2.03-1.68-4.84-.83-6.35.84-1.5 3.91-2.71 5.83-2.49 8.64.97 16.03 5.13 22.77 10.41 2.68 2.1 1.66 4.83.95 7.72-2.73 11.21-5.12 22.51-7.79 34.46 15.64-1.72 30.29-3.26 44.92-4.96 18.14-2.1 36.25-4.6 54.43-6.29 3.77-.35 8.72 1.04 11.55 3.47 8.43 7.25 16.25 15.24 23.94 23.3 3.58 3.76 3 5.35-1.96 7.02-8.32 2.81-16.93 4.82-25.07 8.03-7.39 2.91-14.32 6.97-21.45 10.54-1.19.59-2.3 1.54-3.55 1.77-1.68.31-3.46.09-5.2.1.31-1.63.18-3.55 1.01-4.84 4.62-7.11 9.33-14.17 14.27-21.06 6.38-8.88 5.01-10.96-6.2-12.28-7.54-.88-15.34-.45-22.95.22-17.87 1.58-35.7 3.62-53.54 5.55-30.9 3.34-61.48 8.43-91.6 16.2-4.04 1.04-8.45.58-12.64 1.18-1.67.24-3.95 1.04-4.66 2.31-3.08 5.5-5.39 11.44-8.54 16.9-2.61 4.53-5.83 8.75-9.11 12.84-1.75 2.17-3.76 1.46-5.11-.93-4.32-7.66-5.78-15.48-1.6-23.73 2.25-4.44 4.85-8.79 6.45-13.47 1.69-4.93 2.25-10.24 3.55-15.32.54-2.1 1.71-4.03 2.59-6.04 1.98.88 3.97 1.74 5.94 2.65.28.13.55.45.65.74 3.49 10.03 11.6 8.24 19.15 7.29 23.23-2.92 46.43-6.02 69.64-9.06.32-.06.6-.29 2-.94z" fill="#010104"/><path d="m109.89 360.65c31.55-11.02 62.11-23.89 87.18-45.69-7.4-12.49-14.75-24.89-22.23-37.52-11.62 5.69-23.66 10.73-37.77 8.67 1.39-.86 2.79-1.71 4.17-2.59 10.77-6.88 21.97-13.19 32.19-20.81 9.95-7.41 17.97-16.83 21.18-29.39.81-3.17 3.19-2.99 5.03-1.78 3.98 2.62 7.56 5.84 11.47 8.59 1.72 1.21 3.96 2.82 5.75 2.59 7.38-.95 14.89-1.84 21.94-4.06 7.72-2.43 14.59-2.43 21.31 2.21 4.1 2.83 8.49 5.28 12.29 8.46 3.61 3.02 3.69 6.89-.15 9.23-14.23 8.65-22.31 22.55-31.53 35.53-16.55 23.29-36.89 42.42-62.46 55.48-18.14 9.26-37.92 13-57.95 15.27-3.31.37-6.84-1.23-10.27-1.91-.06-.76-.11-1.52-.15-2.28zm100.83-59.65c6.49-5.79 23.64-30.56 25.54-38.88.77-3.38.02-7.91-1.84-10.73-.91-1.39-6.09-.69-9.04.14-5.58 1.56-11.19 3.41-16.34 6.03-8.72 4.43-17.09 9.56-25.91 14.57 5.95 5.19 11.16 9.11 15.59 13.76 4.36 4.58 7.93 9.92 12 15.11z" fill="#010104"/><path d="m134.94 249.11c13.03-7.75 26.06-15.5 38.94-23.16-7.74-9.19-14.8-17.74-22.14-26.04-.84-.94-3.55-1.14-4.9-.56-6.24 2.68-12.55 4.72-19.83 3.84 4.9-3.8 9.95-7.43 14.68-11.42 10.33-8.7 19.14-18.47 22.12-32.31.21-.97 3.34-2.41 4.22-1.95 4.18 2.24 8 5.14 12.06 7.63 1.7 1.04 3.8 2.55 5.48 2.29 10.29-1.58 20.48-3.78 30.77-5.38 3.61-.56 8.01-1.21 10.97.3 5.37 2.74 10.03 6.94 14.78 10.78 2.33 1.88 2.08 4.18-.01 6.44-9.11 9.89-18.16 19.83-27.2 29.78-19.7 21.68-44.53 34.36-72.61 41.25-2.21.54-4.66.07-7 .07-.11-.51-.22-1.04-.33-1.56zm48.77-31.63c3.74-4.12 7.09-7.35 9.9-10.99 6.28-8.15 12.36-16.46 18.35-24.83.73-1.02.81-2.84.49-4.12-.12-.48-2.28-.77-3.44-.61-3.27.46-6.48 1.39-9.75 1.77-8.4.97-16.17 6.54-25.14 3.46-.49-.17-1.33.21-1.8.59-3.97 3.13-7.89 6.32-11.99 9.62 21.19 11.43 20.5 11.29 23.38 25.11z" fill="#010104"/><path d="m226.29 136.39c1.93 3.34 3.29 5.68 4.64 8.03-2.88.88-5.7 2.2-8.64 2.58-18.93 2.42-37.89 4.65-56.84 6.9-2.63.31-5.28.4-8.04.61-.61 1.73-1.26 3.55-2.03 5.69-5.91-1.75-8.99-5.89-11.03-10.92-2.25-5.54-3.91-11.33-6.43-16.73-2.65-5.67-6.17-10.92-9.01-16.51-2.36-4.65-.99-6.91 4.08-6.2 5.96.83 11.74 3.03 17.7 3.73 4.19.49 8.69.06 12.81-.96 14.8-3.65 29.6-7.39 44.19-11.76 7.06-2.12 13.23-2.39 19.21 2.37 4.42 3.52 9.25 6.55 13.46 10.28 4.68 4.14 3.91 8.11-1.09 11.9-4.71 3.56-9.04 7.62-12.98 10.99zm-70.59 6.52c1.95-.09 3.46.03 4.9-.24 13.49-2.58 26.91-5.58 40.46-7.7 7.39-1.16 11.4-4.74 12.66-11.87.03-.16.09-.32.13-.48 1.46-4.89-.19-7.5-5.36-7.34-4.59.15-9.18 1.06-13.73 1.84-14.14 2.44-28.26 4.98-42.7 7.53 1.23 6.12 2.38 11.91 3.64 18.26z" fill="#010104"/><path d="m251.2 32.12c3.25 1.62 5.74 2.22 7.28 3.77 3.24 3.25 6.5 6.69 8.83 10.6 4.83 8.11 4.18 8.78-4.44 12.08-12.55 4.8-24.93 10.03-37.39 15.08-1.54.62-3.03 1.46-4.63 1.79-1.15.24-2.43-.18-3.66-.3.25-1.36.2-2.87.82-4.02.59-1.11 1.89-1.83 2.86-2.74 6.3-5.93 12.54-11.91 18.9-17.77 4.06-3.75 6.64-8.06 7.33-13.71.23-1.75 2.69-3.21 4.1-4.78z" fill="#010104"/><path d="m149.58 74.1c-1 1.6-2.05 5.25-4.28 6.25-1.97.88-6.11-.36-7.83-2.1-8.28-8.39-16.1-17.24-23.96-26.04-.86-.96-.88-2.68-1.29-4.05 1.5-.41 3.25-1.54 4.47-1.12 8.28 2.85 16.66 5.59 24.6 9.24 6.64 3.04 6.9 10 8.29 17.82z" fill="#010104"/></svg>