<svg enable-background="new 0 0 400 400" viewBox="0 0 400 400" xmlns="http://www.w3.org/2000/svg"><g fill="#fafbfa"><path d="m342.2 3.2-6.3 9.2h6.1v1.2h-8.2v-.5l6.2-9.1h-5.7v-1.2h7.8v.4z"/><path d="m344 13.7v-10.9h3.1c1.6 0 3 .5 4.1 1.4 1.1 1 1.6 2.2 1.6 3.9s-.5 3-1.6 4-2.5 1.5-4.2 1.5h-3zm1.4-9.6v8.4h1.6c1.4 0 2.5-.4 3.2-1.1.8-.8 1.2-1.8 1.2-3.2s-.4-2.4-1.2-3.1-1.8-1-3.1-1z"/><path d="m356.3 2.8v10.9h-1.4v-10.9z"/><path d="m366.6 13.2c-.8.4-1.8.6-3 .6-1.6 0-2.8-.5-3.7-1.5s-1.4-2.3-1.4-3.9c0-1.7.5-3.2 1.6-4.2s2.4-1.6 4-1.6c1 0 1.9.1 2.6.4v1.5c-.8-.4-1.6-.6-2.6-.6-1.2 0-2.2.4-3 1.2s-1.1 1.9-1.1 3.3c0 1.3.4 2.3 1.1 3.1s1.6 1.1 2.8 1.1c1.1 0 2-.2 2.8-.7v1.3z"/><path d="m368.2 13c0-.3.1-.5.3-.6.2-.2.4-.3.6-.3.3 0 .5.1.7.3s.3.4.3.6-.1.5-.3.6c-.2.2-.4.3-.7.3s-.5-.1-.6-.3c-.2-.2-.3-.4-.3-.6z"/><path d="m381.1 13.7h-1.7l-5.5-8.4c-.2-.2-.3-.5-.4-.7 0 .2.1.8.1 1.5v7.6h-1.4v-10.9h1.8l5.3 8.3c.3.4.4.6.4.8 0-.3-.1-.8-.1-1.6v-7.5h1.4v10.9z"/><path d="m389.7 13.7h-5.8v-10.9h5.6v1.2h-4.2v3.5h3.9v1.2h-3.9v3.7h4.4z"/><path d="m398.4 4.1h-3.1v9.6h-1.4v-9.6h-3.1v-1.3h7.7v1.3z"/></g><path d="m294.36 321.73c11.42-1.45 22.88-2.23 34.03-4.49 14.58-2.97 25.14 3.56 34.85 12.79 1.27 1.21 2.13 4.43 1.4 5.74-.9 1.62-3.63 3.06-5.6 3.1-7.64.15-15.3-.28-22.94-.52-33.16-1.07-66.19-.07-98.99 5.53-4.2.72-8.62.1-13.28.1-1.04 2.65-1.87 5.67-3.34 8.33-3.99 7.19-8.51 7.53-13.2.85-6.96-9.91-10.37-20.6-7.17-32.92 4.36-16.82 6.16-33.96 5.88-51.38-.27-17.28-.06-34.57-.06-52.75-14.44 13.92-29.04 26.17-47.1 31.41 4.61-5.26 9.24-11.22 14.57-16.49 13.99-13.82 26.51-28.64 32.98-47.54 1.72-5.03 1.64-10.65 2.81-15.91.33-1.49 1.97-3.6 3.27-3.8 6.94-1.1 17.66 4.31 20.63 10.7.95 2.06.67 5.65-.56 7.57-2.94 4.58-6.78 8.59-10.96 13.68 16.79.94 32.39-1.29 48.6-3.6-4.1-6.88-7.98-13.15-11.59-19.57-.91-1.62-1.79-4.01-1.21-5.48.53-1.36 3.66-3.16 4.55-2.69 6.73 3.58 13.65 7.08 19.53 11.82 3.14 2.53 4.33 7.48 6.85 12.18 7.83-1.75 16.68-3.68 25.5-5.72 8.12-1.88 15.99-.88 23.25 2.87 2.58 1.33 5.56 4.46 5.84 7.05.44 4.02-3.97 4.89-7.18 5.39-9.84 1.55-19.74 2.74-29.61 4.13-4.23.6-8.43 1.35-13.51 2.17 10.9 8.46 1.53 18.83 4.42 28.83 5.74-1.22 11.87-2.15 17.78-3.86 8.88-2.57 17.61-3.49 26.29.33 3.58 1.58 8.2 3 7.86 7.83-.33 4.82-5.24 4.59-8.6 5.1-13.28 2.05-26.62 3.74-39.94 5.57-1.3.18-2.59.39-4.18.63-.41 9.24-.81 18.31-1.25 28.36 9.8-1.98 19.01-3.6 28.11-5.75 9.32-2.2 18.23-1.72 26.41 3.37 2.23 1.39 3.48 4.33 5.18 6.56-2.31 1.61-4.47 4.31-6.95 4.66-12.5 1.72-25.09 2.83-37.65 4.15-2.31.24-4.64.41-6.94.75-8.38 1.25-8.5 1.27-8.72 9.51-.21 6.83-.06 13.65-.06 21.41zm-16.41-27.84c-18.61-.46-36.61 7.23-53.83-.74v36.67c18.62-2.02 36.24-3.94 53.83-5.85 0-10.34 0-20.21 0-30.08zm-55.23-52.95c6.05 0 11.83.41 17.53-.09 11.37-.98 22.71-2.39 34.04-3.82 1.25-.16 3.4-1.71 3.34-2.48-.68-8.36-1.58-16.71-2.84-25-.16-1.05-2.79-2.57-4.17-2.46-15.92 1.17-31.54 6.11-47.9 3.15zm54.98 10c-9.57 1.42-18.53 3.1-27.58 3.99-9.24.9-18.49.42-26.97-4.11v32.46c18.73-1.17 36.68-2.29 54.55-3.41 0-10.17 0-19.13 0-28.93z" fill="#010104"/><path d="m127.93 294.35c-26.75 27.99-54.89 45.19-69.72 41.87 2.17-1.75 3.78-3.22 5.55-4.45 16.46-11.36 32.81-22.86 45.4-38.73 2.45-3.09 4.68-6.37 7.58-10.32-9.78-7.31-19.01-14.62-28.65-21.33-12.53-8.72-12.99-9.94-6.29-23.79 5.66-11.7 9.64-23.93 11.42-38.31-8.96 3.69-17.5 6.11-24.86 10.52-8.29 4.97-14.71 4.11-21.26-2.26-2.74-2.66-5.8-4.97-8.68-7.49-3.02-2.64-3.69-6.13-2.16-9.54 1.46-3.24 4.57-2.28 7.43-1.78 14.1 2.46 27.68-1.75 41.5-3.16 9.28-.94 13.51-4.28 14.5-14.12 2.44-24.25 6.38-48.35 9.08-72.58 1.01-9.11-.78-18.17-5.07-26.6-2.19-4.3.58-8.1 5.95-8.18 2.38-.03 5.16.5 7.1 1.77 7.06 4.64 13.92 9.6 20.71 14.63 4.09 3.03 4.66 7.22 2.32 11.55-14.59 27.08-16.24 58-25.82 86.56-.1.3-.01.66-.01 1.74 10.89-1.99 21.67-3.97 32.8-6 .45-7.17-1.67-13.55-4.39-19.8-2.36-5.41-.98-7.76 4.98-7.95 9.1-.28 16.09 4.87 22.89 9.81 1.43 1.04 1.11 5.06.89 7.64-.16 1.8-1.52 3.5-2.72 6.01 6.1-.97 11.29-1.97 16.53-2.52 1.66-.17 3.44.86 5.16 1.35-1.04 1.34-1.8 3.3-3.16 3.92-5.73 2.6-11.53 5.12-17.51 7.04-3.51 1.13-4.91 2.76-5.52 6.43-3.42 20.25-6.46 40.62-11.11 60.6-2.56 10.99-8.02 21.29-12.5 32.74 4.55 3.29 10.27 7.74 16.3 11.72 10.78 7.12 13.12 17.45 11.46 29.25-.99 7.05-6.51 9.2-11.63 4.37-5.31-5-9.95-10.71-14.92-16.09-4.49-4.84-9.03-9.66-13.57-14.52zm18.77-108.63c-12.34 3.26-23.71 6.14-34.98 9.37-1.43.41-2.87 2.5-3.39 4.11-4.56 14.01-8.91 28.09-13.31 42.15-1.62 5.19-.43 9.68 4.1 12.63 8.04 5.23 16.31 10.1 24.93 15.38 14.06-26.23 21.47-53.59 22.65-83.64z" fill="#010104"/><path d="m330.7 146.41c-12.11 1.59-24.14 3.03-36.1 4.91-1.7.27-3.13 2.63-4.55 4.15-1.31 1.41-2.44 2.99-3.65 4.49-1.6-1.32-3.51-2.41-4.75-4.01-6.69-8.63-5.65-18.31-4.79-28.53 1.37-16.35 1.65-32.84 1.29-49.25-.17-7.46-2.78-14.9-4.67-22.25-.77-3 .13-4.62 2.78-4.15 3.65.65 7.11 2.35 10.71 3.41 1.9.56 4.2 1.52 5.84.94 9.52-3.34 19-6.85 28.28-10.78 4.67-1.98 9.06-3.43 13.82-.91 5.99 3.17 12 6.33 17.87 9.72 3.25 1.88 3.99 4.91 2 8.12-4.42 7.13-5.2 14.93-4.79 23.05.8 16.11 1.39 32.23 2.33 48.33.49 8.28-2.07 15.42-7.01 21.79-3.72 4.79-5.75 4.7-9.18-.17-1.92-2.68-3.47-5.63-5.43-8.86zm2.69-65.15c-1.15-6.85-1.77-12.92-3.28-18.77-1.44-5.6-3.67-6.56-9.35-4.91-8.73 2.54-17.42 5.24-26.08 8.05-.94.31-2.13 1.73-2.16 2.67-.2 5.9-.1 11.82-.1 18.33 13.11-4.4 25.74-9.55 40.97-5.37zm-.71 8.39c-13.78 1.66-27.01 3.26-40.39 4.87v19.53c13.4-3.69 26.09-10.08 40.39-5.18 0-6.44 0-12.23 0-19.22zm-.08 27.64c-13.9 1.71-27.13 3.35-40.2 4.96v19.27c13.18-3.05 26-6.02 39.33-9.11.24-4.08.53-9.14.87-15.12z" fill="#010104"/><path d="m197.86 169.7c-7.03-5.69-10.74-12.51-10.84-20.53-.09-7.58 1.88-15.17 1.97-22.76.17-14.59.16-29.22-.8-43.77-.46-6.95-3.12-13.77-5.03-20.59-.94-3.35.4-4.72 3.45-4.96.94-.08 2.08.16 2.86.67 8.87 5.77 17.55 2.33 26.14-.63 4.85-1.67 9.57-3.77 14.19-6.02 5.59-2.71 11.12-3.48 16.68-.32 5.32 3.03 10.51 6.27 15.73 9.46 3.82 2.33 3.99 5.69 1.77 8.99-4.78 7.1-6.17 14.93-5.83 23.26.63 15.44 1.21 30.88 1.85 46.31.36 8.74-2.47 16.38-8.09 22.93-3.75 4.37-6.08 4.42-8.74-.61s-6.03-6.02-11.16-5.09c-8.97 1.63-18.04 2.73-27.01 4.36-1.42.26-2.76 1.97-3.76 3.3-1.22 1.67-2.06 3.62-3.38 6zm44.49-83.38c-1.12-7.04-1.94-13.22-3.14-19.33-.83-4.26-3.63-5.55-7.84-4.35-9.65 2.75-19.33 5.35-28.93 7.99v21.65c12.68-4.35 24.72-10.35 39.91-5.96zm-39.34 41.72v20.97c12.18-2.59 23.76-5.06 36.42-7.75.32-4.86.73-11.17 1.18-18.09-13.06 1.69-25.29 3.28-37.6 4.87zm-.36-27.8v20.2c12.63-4.7 24.6-10.06 38.05-5.89 0-6.56 0-12.98 0-20.11-12.93 1.97-25.47 3.89-38.05 5.8z" fill="#010104"/></svg>