<svg enable-background="new 0 0 400 400" viewBox="0 0 400 400" xmlns="http://www.w3.org/2000/svg"><g fill="#fafbfa"><path d="m342.2 3.2-6.3 9.2h6.1v1.2h-8.2v-.5l6.2-9.1h-5.7v-1.2h7.8v.4z"/><path d="m344 13.7v-10.9h3.1c1.6 0 3 .5 4.1 1.4 1.1 1 1.6 2.2 1.6 3.9s-.5 3-1.6 4-2.5 1.5-4.2 1.5h-3zm1.4-9.6v8.4h1.6c1.4 0 2.5-.4 3.2-1.1.8-.8 1.2-1.8 1.2-3.2s-.4-2.4-1.2-3.1-1.8-1-3.1-1z"/><path d="m356.3 2.8v10.9h-1.4v-10.9z"/><path d="m366.6 13.2c-.8.4-1.8.6-3 .6-1.6 0-2.8-.5-3.7-1.5s-1.4-2.3-1.4-3.9c0-1.7.5-3.2 1.6-4.2s2.4-1.6 4-1.6c1 0 1.9.1 2.6.4v1.5c-.8-.4-1.6-.6-2.6-.6-1.2 0-2.2.4-3 1.2s-1.1 1.9-1.1 3.3c0 1.3.4 2.3 1.1 3.1s1.6 1.1 2.8 1.1c1.1 0 2-.2 2.8-.7v1.3z"/><path d="m368.2 13c0-.3.1-.5.3-.6.2-.2.4-.3.6-.3.3 0 .5.1.7.3s.3.4.3.6-.1.5-.3.6c-.2.2-.4.3-.7.3s-.5-.1-.6-.3c-.2-.2-.3-.4-.3-.6z"/><path d="m381.1 13.7h-1.7l-5.5-8.4c-.2-.2-.3-.5-.4-.7 0 .2.1.8.1 1.5v7.6h-1.4v-10.9h1.8l5.3 8.3c.3.4.4.6.4.8 0-.3-.1-.8-.1-1.6v-7.5h1.4v10.9z"/><path d="m389.7 13.7h-5.8v-10.9h5.6v1.2h-4.2v3.5h3.9v1.2h-3.9v3.7h4.4z"/><path d="m398.4 4.1h-3.1v9.6h-1.4v-9.6h-3.1v-1.3h7.7v1.3z"/></g><path d="m243.16 295.07c2.55 3.57 5.46 6.82 7.3 10.59.83 1.71.37 5.44-.94 6.57-10.61 9.08-21.37 18.02-32.48 26.48-13.42 10.21-28.67 16.62-45.25 19.74-1.45.27-3 .04-4.82-1.1 4.03-2.44 8.06-4.9 12.1-7.31 18.48-11 35.45-23.69 46.64-42.63 1.89-3.2 3.13-6.78 4.99-10.9-4.7.38-8.33.46-11.85 1.1-1.1.2-2.16 1.8-2.84 2.98-2.73 4.82-4.4 5-7.91.52-6.53-8.33-6.78-17.82-6.08-27.94 1.05-15.05 1.11-30.17 1.27-45.26.04-3.91-.81-7.92-1.88-11.71-.31-1.1-2.8-2.3-4.27-2.26-11.24.28-22.48.96-33.72 1.19-1.52.03-3.09-1.74-4.63-2.68 1.43-.88 2.76-2.11 4.32-2.59 17.75-5.43 35.86-9.86 53.18-16.39 11.51-4.34 21.91-11.62 33.47-17.94-5.49-6.71-3.84-13.66-3.96-20.4-.14-7.3-.5-14.61-.93-21.9-.1-1.73-.89-3.42-1.34-5.02-13.72 1.05-27.52 4.72-39.11-8.79 3.19-.69 4.99-1.34 6.81-1.44 19.98-1.1 39.64-3.96 58.72-10.18 8.29-2.7 16.43-2.67 24.19 1.44 1.97 1.04 3.2 3.45 4.78 5.23-1.96 1.53-3.73 3.98-5.91 4.45-9.56 2.04-19.25 3.49-28.89 5.2-1.45.26-2.88.71-3.49.86.54 3.29 1.52 6.27 1.43 9.21-.34 10.44-1.05 20.86-1.7 32.58 5.27-4.14 9.85-7.58 14.26-11.25 3.83-3.19 7.46-6.64 11.18-9.96 4.37-3.89 6.5-8.61 6.13-14.59-.3-4.68 1.52-6.19 6.03-4.9 2.25.64 4.99 2.1 6.01 4 3.36 6.23 6.41 12.7 8.71 19.37.61 1.77-1.29 5.61-3.13 6.81-12.51 8.1-25.34 15.73-38.03 23.55-12.57 7.74-25.12 15.52-37.07 22.91 3.34-.53 7.73-1.07 12.04-1.96 4.55-.94 9.13-1.91 13.53-3.38 7.39-2.47 14.75-5.09 21.91-8.12 5.73-2.43 11.14-3.18 16.63.24 6.19 3.86 12.39 7.7 18.53 11.65 3.42 2.19 4.17 5.48 1.81 8.58-6.55 8.6-6.46 18.65-6.65 28.59-.25 12.82-.12 25.65-.04 38.48.05 9.18-3.79 16.75-9.67 23.37-3.86 4.35-7.33 4.33-9.76-.93-3.02-6.55-7.37-7.55-13.78-6.92-10.74 1.05-21.56 1.32-32.35 1.98-1.29.06-2.53.55-3.49.78zm-22.72-80.05v17.25c24.12-2.68 46.78-11.98 71.86-11.92-.81-4.91-1.39-9.47-2.36-13.94-.82-3.79-3.66-5.57-7.37-5.33-4.44.29-8.95.65-13.26 1.68-16.42 3.96-32.77 8.2-48.87 12.26zm-.48 44.61c23.95-1.92 46.41-11.27 71.1-10.53 0-5.43 0-11.11 0-17.63-23.42 3.34-46.94 6.69-71.1 10.14zm-.35 26.46c11.78-1.48 23.29-2.84 34.77-4.39 11.41-1.54 22.8-3.26 34.49-4.94.47-4.87 1.01-10.4 1.61-16.52-23.91 3.09-47.2 6.11-70.88 9.18.01 5.19.01 10.45.01 16.67z" fill="#010104"/><path d="m107.43 128.4c8.54-2.41 16.74-5.01 25.1-6.93 3.16-.73 7.09-.82 9.94.45 5.26 2.34 10.16 5.64 14.82 9.08 1.34.99 2.07 3.95 1.77 5.79-.96 5.82-3.27 11.48-3.72 17.31-.89 11.6-.51 23.3-1.39 34.91-.76 10.06-2.36 20.08-3.9 30.07-1.12 7.25-5.65 12.66-10.85 17.48-3.89 3.61-7.46 3.41-10.52-1-6.44-9.26-12.61-18.71-18.84-28.12-.51-.77-.62-1.81-1.33-3.96 5.86 1.32 10.91 2.36 15.9 3.59 7.06 1.74 9.01.93 9.88-6.08 2.19-17.63 4.64-35.29 2.63-53.14-.91-8.09-4.44-11.44-12.46-10.67-5.08.48-10.1 1.85-15.06 3.15-.98.26-1.93 1.93-2.23 3.12-.39 1.57-.15 3.31-.15 4.98-.28 57.31-.62 114.61-.77 171.92-.03 9.86-1.6 19.24-6.53 27.79-1.19 2.05-3.77 4.57-5.7 4.56-1.89-.01-4.71-2.6-5.5-4.68-4.12-10.87-11.17-21.11-8.34-33.71 1.88-8.41 4.06-16.77 5.68-25.23 4.34-22.69 4-45.68 4.19-68.65.19-22.98.63-45.95.98-68.93.03-1.62.26-3.24.45-5.6-8.52 2.21-16.64 4.22-24.65 6.55-.83.24-1.54 2.39-1.57 3.67-.44 15.47-.2 30.99-1.28 46.41-.61 8.65-3 17.24-5.31 25.66-.66 2.39-3.6 4.98-6.03 5.72-1.26.38-4.13-2.78-5.51-4.85-5.12-7.71-5.73-15.76-2.32-24.62 5.93-15.41 5.74-31.65 4.36-47.76-.53-6.16-2.77-12.24-4.73-18.2-1.37-4.17.19-7.13 4.49-6.26 4.18.85 8.17 2.61 12.21 4.07.74.27 1.42 1.54 1.95 1.44 9.05-1.76 18.08-3.64 27.08-5.62.4-.09.76-1.42.75-2.17-.28-15.8.51-31.74-1.4-47.34-1.07-8.46-6.29-16.6-10.46-24.44-3.24-6.07-1.87-9.9 5.15-10.45 1.8-.14 4.02-.42 5.4.41 8.36 5.04 16.76 10.08 24.57 15.89 1.56 1.16 1.61 6 .71 8.57-5.95 17.06-7.04 34.76-7.8 52.55-.04.82.16 1.63.34 3.27z" fill="#010104"/><path d="m254.53 82.36c-7.09-12.39-14.11-23.78-18.3-36.46.39-.46.78-.93 1.17-1.39 1.95.44 4.14.44 5.8 1.39 5.62 3.22 11.16 6.61 16.52 10.24 8.37 5.67 12.22 13.36 9.05 24.35 4.88-.32 9.26-.46 13.6-.93 14.2-1.55 28.35-3.63 42.58-4.62 4.43-.31 9.71 1.24 13.46 3.69 6.92 4.52 13.08 10.23 19.39 15.64 3.16 2.71 3.11 5.32-1.26 6.91-13.99 5.08-27.03 11.91-39.03 20.77-1.12.83-3.07.53-4.63.75.03-1.51-.34-3.18.17-4.51 2.34-6.04 4.99-11.96 7.41-17.97 2.93-7.29-.81-13.14-8.81-12.94-8.79.22-17.59.94-26.32 2.03-19.11 2.39-38.21 4.93-57.25 7.86-9.64 1.49-19.15 3.86-28.65 6.11-1.24.3-2.42 2.12-3.06 3.5-4.25 9.02-8.23 18.17-12.56 27.15-1.35 2.8-3.22 5.49-5.38 7.72-3.13 3.24-5.29 2.84-7.29-1.08-3.95-7.73-4.58-15.52 0-23.31 1.52-2.58 2.81-5.28 4.27-7.89 3.95-7.04 5.02-14.74 5.62-22.63.15-2.03 1.35-4.65 2.92-5.65.95-.6 3.72 1.18 5.35 2.33 1.3.92 1.92 2.78 3.21 3.74 1.44 1.07 3.38 2.41 4.95 2.23 16.65-1.93 33.27-4.15 49.89-6.27 2.13-.25 4.24-.44 7.18-.76z" fill="#010104"/><path d="m329.16 350.77c-.15.89-.2 2.76-.79 4.44-1.66 4.69-4.57 5.81-8.82 3.21-2.38-1.45-4.53-3.36-6.53-5.32-13.29-13.04-26.51-26.14-39.72-39.25-.92-.91-1.9-2.02-2.24-3.21-.47-1.65-.37-3.47-.51-5.22 1.71 0 3.66-.54 5.09.1 13.01 5.8 26.09 11.49 38.84 17.84 10.69 5.32 14.13 15.21 14.68 27.41z" fill="#010104"/><path d="m179.47 189.45c3.47-3.55 6.09-6.24 8.72-8.92 7.78-7.95 13.91-16.91 16.97-27.74.31-1.11.63-2.24.74-3.38.66-7.16.66-7.22 7.67-4.99 2.19.7 4.46 1.51 6.32 2.81 6.9 4.8 7.55 8.69 1.85 14.56-10.64 10.96-21.07 22.34-36.6 26.6-1.51.4-3.07.58-5.67 1.06z" fill="#010104"/></svg>