<svg enable-background="new 0 0 400 400" viewBox="0 0 400 400" xmlns="http://www.w3.org/2000/svg"><g fill="#fafbfa"><path d="m342.2 3.2-6.3 9.2h6.1v1.2h-8.2v-.5l6.2-9.1h-5.7v-1.2h7.8v.4z"/><path d="m344 13.7v-10.9h3.1c1.6 0 3 .5 4.1 1.4 1.1 1 1.6 2.2 1.6 3.9s-.5 3-1.6 4-2.5 1.5-4.2 1.5h-3zm1.4-9.6v8.4h1.6c1.4 0 2.5-.4 3.2-1.1.8-.8 1.2-1.8 1.2-3.2s-.4-2.4-1.2-3.1-1.8-1-3.1-1z"/><path d="m356.3 2.8v10.9h-1.4v-10.9z"/><path d="m366.6 13.2c-.8.4-1.8.6-3 .6-1.6 0-2.8-.5-3.7-1.5s-1.4-2.3-1.4-3.9c0-1.7.5-3.2 1.6-4.2s2.4-1.6 4-1.6c1 0 1.9.1 2.6.4v1.5c-.8-.4-1.6-.6-2.6-.6-1.2 0-2.2.4-3 1.2s-1.1 1.9-1.1 3.3c0 1.3.4 2.3 1.1 3.1s1.6 1.1 2.8 1.1c1.1 0 2-.2 2.8-.7v1.3z"/><path d="m368.2 13c0-.3.1-.5.3-.6.2-.2.4-.3.6-.3.3 0 .5.1.7.3s.3.4.3.6-.1.5-.3.6c-.2.2-.4.3-.7.3s-.5-.1-.6-.3c-.2-.2-.3-.4-.3-.6z"/><path d="m381.1 13.7h-1.7l-5.5-8.4c-.2-.2-.3-.5-.4-.7 0 .2.1.8.1 1.5v7.6h-1.4v-10.9h1.8l5.3 8.3c.3.4.4.6.4.8 0-.3-.1-.8-.1-1.6v-7.5h1.4v10.9z"/><path d="m389.7 13.7h-5.8v-10.9h5.6v1.2h-4.2v3.5h3.9v1.2h-3.9v3.7h4.4z"/><path d="m398.4 4.1h-3.1v9.6h-1.4v-9.6h-3.1v-1.3h7.7v1.3z"/></g><path d="m197.28 138c-28.27 26.28-60.56 44.91-99.43 49.86-8.17 1.04-16.65-.32-24.98-.57-.09-.76-.18-1.52-.27-2.28 2-.7 3.96-1.6 6.01-2.07 34.32-7.96 65.8-21.86 93.26-44.25 1.42-1.16 2.87-2.29 4.18-3.56 2.87-2.77 5.67-5.62 8.89-8.83-10.89-7.71-19.63-18.03-32.31-23.08-2.55-1.02-4.02-.37-6.11 1.16-9.89 7.25-19.92 14.33-30.09 21.18-2.22 1.5-5.24 1.81-7.9 2.66-.29-.52-.59-1.04-.88-1.57 1.58-1.79 3.15-3.58 4.74-5.35 12.4-13.87 25.17-27.43 37.02-41.75 4.45-5.37 7-12.39 9.95-18.88 1.18-2.6 1.42-5.77 1.52-8.7.12-3.91 2.14-4.81 5.18-3.52 7.49 3.17 13.06 8.71 16.41 15.99.97 2.11-.5 5.35-.97 9.03 9.33-1.59 19.36-3.17 29.33-5.07 4.55-.86 9.07-2.1 13.45-3.61 4.35-1.51 8.18-1.08 11.62 1.88 4.28 3.68 8.77 7.2 12.56 11.34 4.64 5.05 4.35 9.27-1.47 12.88-15.03 9.32-24.86 23.92-37.46 35.68-.33.31-.51.8-1.09 1.75 4.23 2.94 8.3 6.05 12.63 8.74 21.63 13.44 44.84 22.05 70.47 24.04 10.55.82 21 3.12 31.44 5.01 1.75.32 3.26 1.96 4.87 2.99-.92 1.22-1.62 3.18-2.81 3.55-17.53 5.42-34.47 13.53-53.3 13.35-4.56-.04-9.63-1.62-13.55-4-20.65-12.52-40.68-25.97-58.6-42.31-.59-.57-1.32-.99-2.31-1.69zm-2.64-20.02c6.94-9.84 13.66-19.05 19.95-28.55 1.16-1.76 1.58-5.46.51-6.82-1.06-1.35-4.48-1.34-6.79-1.13-11.21 1.05-22.42 3.5-33.58 3.2-7.94-.21-11.06 4.37-15.59 8.77 13.79 4.91 23.88 14.39 35.5 24.53z" fill="#010104"/><path d="m247.32 281.6c1.56 1.04 3.18 2.01 4.68 3.13 12.33 9.28 24.62 18.62 36.96 27.89 4.12 3.09 8.52 5.83 12.47 9.12 3.72 3.1 3.71 5.74.21 9.21-6.01 5.94-13.64 8.87-21.72 10.42-35.35 6.76-70.47 6.71-104.64-5.85-28.17-10.36-43.78-31.84-50.2-60.52-.45-2.02-.08-5.78.99-6.25 1.89-.82 5.12-.47 6.88.73 2.45 1.68 5.1 4.28 5.88 7.01 8.18 28.46 28.62 41.39 56.36 45.58 16.89 2.55 33.79 2.65 50.71.86 8.81-.93 11.37-4.8 8.7-13.28-2.19-6.96-5.02-13.72-7.43-20.61-.72-2.06-1.01-4.28-1.49-6.43.56-.34 1.1-.67 1.64-1.01z" fill="#010104"/><path d="m243.52 225.28c3.63 3.41 6.55 5.86 9.07 8.66 1.05 1.17 1.26 3.1 1.86 4.69-1.49.52-2.96 1.44-4.46 1.48-19.78.51-39.56.97-59.35 1.27-11.25.17-22.5.03-34.03.03-.23 1.85-.17 3.38-.65 4.71-.74 2.01-1.85 3.88-2.81 5.82-2.43-1.5-6.26-2.49-7.01-4.58-2.09-5.86-3.13-12.13-4.16-18.31-1.98-11.91-3.57-23.89-5.56-35.8-.43-2.55-1.83-4.95-2.86-7.39-1.48-3.48-.49-5 3.33-4.8 1.31.07 2.7.28 3.88.82 13.99 6.45 28.4 2.58 42.53 1.28 16.16-1.5 32.17-4.59 48.29-6.62 2.94-.37 6.49.28 9.07 1.7 5.78 3.19 11.31 6.92 16.6 10.89 3.58 2.69 3.41 6.05.96 10.06-5.33 8.68-10.05 17.74-14.7 26.09zm-86.81 4.86c1.02.15 1.81.4 2.59.36 8.94-.5 17.88-.98 26.82-1.59 13.57-.94 27.14-1.93 40.7-3.07 1.07-.09 2.76-1.45 2.9-2.4 1.13-7.69 2.31-15.4 2.77-23.15.43-7.08-.89-8.4-7.89-8.14-14.59.53-29.17 1.38-43.74 2.26-8.53.51-17.05 1.34-25.76 2.04.54 11.39 1.07 22.45 1.61 33.69z" fill="#010104"/><path d="m105.53 273.28c-1.52 16.17-3.46 31.51-13.77 44.17-3.25 3.99-7.19 8.29-12.83 6.86-5.33-1.35-4.51-7.05-5.43-11.29-1.26-5.83.11-11.08 2.96-16.24 6.35-11.46 12.41-23.07 18.75-34.54.96-1.74 2.78-3.02 4.21-4.51 1.51 1.62 3.77 3 4.37 4.9 1.11 3.59 1.27 7.47 1.74 10.65z" fill="#010104"/><path d="m315.95 287.01c.07 6.08-5.91 9.88-11.04 6.47-6.21-4.13-11.79-9.18-17.78-13.66-7.05-5.27-14.27-10.32-21.36-15.54-1.58-1.16-3.35-2.44-4.21-4.09-.73-1.4-.58-3.5-.16-5.11.12-.47 2.59-.64 3.9-.42 9.79 1.68 19.64 3.18 29.33 5.36 11.44 2.56 21.19 15.31 21.32 26.99z" fill="#010104"/><path d="m170.79 255.47c3.61-.31 5.77-1.01 7.67-.58 11.33 2.6 22.66 5.24 32.25 12.44 4.88 3.67 9.2 15.92 7.43 21.67-1.22 3.96-6.59 5.67-10.89 2.94-3.76-2.39-7.29-5.26-10.56-8.3-6.71-6.22-13.29-12.58-19.68-19.12-2.14-2.18-3.54-5.08-6.22-9.05z" fill="#010104"/></svg>