<svg enable-background="new 0 0 400 400" viewBox="0 0 400 400" xmlns="http://www.w3.org/2000/svg"><g fill="#fafbfa"><path d="m342.2 3.2-6.3 9.2h6.1v1.2h-8.2v-.5l6.2-9.1h-5.7v-1.2h7.8v.4z"/><path d="m344 13.7v-10.9h3.1c1.6 0 3 .5 4.1 1.4 1.1 1 1.6 2.2 1.6 3.9s-.5 3-1.6 4-2.5 1.5-4.2 1.5h-3zm1.4-9.6v8.4h1.6c1.4 0 2.5-.4 3.2-1.1.8-.8 1.2-1.8 1.2-3.2s-.4-2.4-1.2-3.1-1.8-1-3.1-1z"/><path d="m356.3 2.8v10.9h-1.4v-10.9z"/><path d="m366.6 13.2c-.8.4-1.8.6-3 .6-1.6 0-2.8-.5-3.7-1.5s-1.4-2.3-1.4-3.9c0-1.7.5-3.2 1.6-4.2s2.4-1.6 4-1.6c1 0 1.9.1 2.6.4v1.5c-.8-.4-1.6-.6-2.6-.6-1.2 0-2.2.4-3 1.2s-1.1 1.9-1.1 3.3c0 1.3.4 2.3 1.1 3.1s1.6 1.1 2.8 1.1c1.1 0 2-.2 2.8-.7v1.3z"/><path d="m368.2 13c0-.3.1-.5.3-.6.2-.2.4-.3.6-.3.3 0 .5.1.7.3s.3.4.3.6-.1.5-.3.6c-.2.2-.4.3-.7.3s-.5-.1-.6-.3c-.2-.2-.3-.4-.3-.6z"/><path d="m381.1 13.7h-1.7l-5.5-8.4c-.2-.2-.3-.5-.4-.7 0 .2.1.8.1 1.5v7.6h-1.4v-10.9h1.8l5.3 8.3c.3.4.4.6.4.8 0-.3-.1-.8-.1-1.6v-7.5h1.4v10.9z"/><path d="m389.7 13.7h-5.8v-10.9h5.6v1.2h-4.2v3.5h3.9v1.2h-3.9v3.7h4.4z"/><path d="m398.4 4.1h-3.1v9.6h-1.4v-9.6h-3.1v-1.3h7.7v1.3z"/></g><path d="m167.49 317.74c4.75.54 9.52.92 14.24 1.65 12.2 1.87 16.17-1.49 16.2-14 .01-5.96 0-11.93 0-18.33-1.59 1.05-3.46 2.22-5.27 3.48-9.14 6.39-18.22 12.85-27.43 19.15-1.4.96-3.33 1.6-5.01 1.59-5.15-.02-15.1-8.27-16.47-13.16-.97-3.47.93-4.81 3.73-5.85 16.15-6.03 32.29-12.07 48.37-18.26 1.25-.48 2.87-2.09 2.93-3.24.3-5.78.14-11.59.14-18.24-6.01 1.61-11.37 2.68-16.47 4.5-9.72 3.47-18.31 1.8-25.97-4.87-1.5-1.31-2.47-3.24-3.68-4.88 1.81-.97 3.52-2.49 5.45-2.83 11.1-1.99 22.25-3.7 33.38-5.54 1.94-.32 3.85-.85 6.94-1.55-1.87-6.5-3.66-12.72-5.57-19.38-12.01 3.93-23.2 8.14-35.71 7.12 1.66-.77 3.38-1.43 4.96-2.32 13.29-7.49 26.64-14.88 39.75-22.67 2.15-1.28 4.15-4.24 4.56-6.7.73-4.42 3.53-4.5 6.08-3.32 6.58 3.05 12.94 6.6 19.21 10.24 1.13.65 2.36 3.19 1.93 4-.69 1.31-2.62 2.32-4.21 2.73-5.91 1.54-11.91 2.72-17.85 4.19-1.41.35-2.68 1.26-4.49 2.15 6.63 4.91 16.54 7.94 9.27 20.36 13.17-2.69 25.07-5.11 36.93-7.54-2.96-20.15-4.39-30.93-16.44-47.97-14.52 3.06-29.55 5.66-44.25 9.53-9.98 2.63-17.54-.44-24.67-6.63-.94-.82-1.58-1.99-3.43-4.39 5.84-1.08 10.55-2 15.28-2.81 16.17-2.79 32.34-5.54 49.17-8.42-.44-6.67-.84-12.87-1.27-19.34-14.63 2.74-28.76 4.81-40.12-6.65.02-.72.04-1.44.07-2.17 12.83-1.7 25.67-3.4 39.4-5.21-.8-7.37-1.53-14.11-2.28-21.08-16.76 3.13-32.68 8.03-46.03-5.06-.03-.7-.05-1.4-.08-2.09 4.06-.64 8.1-1.5 12.19-1.89 24.79-2.33 48.75-8.27 72.07-16.8 9.27-3.39 18.24-3.24 26.96 1.19 1.98 1.01 3.24 3.42 4.83 5.19-1.89 1.67-3.53 4.31-5.71 4.86-11.08 2.83-22.31 5.12-33.48 7.59-5.16 1.14-10.33 2.27-16.88 3.71 7.63 4.91 10.43 10.99 6.18 19.81 6.46-1.98 11.2-3.4 15.91-4.89 8-2.54 15.97-2.89 23.9.19 1.52.59 3.15 1.3 4.29 2.4 1.21 1.18 2.94 3.26 2.58 4.29-.61 1.74-2.48 3.83-4.2 4.27-8.02 2.03-16.17 3.58-24.29 5.24-5.83 1.2-11.67 2.31-17.84 3.53-.38 6.47-.75 12.83-1.2 20.43 12.15-2.66 23.57-5.12 34.97-7.68 3.07-.69 6.11-1.57 9.13-2.47 9.64-2.86 18.46-.68 26.52 4.72 1.72 1.15 3.34 4.03 3.15 5.92-.13 1.32-3.31 3.03-5.33 3.36-9.82 1.62-19.71 2.83-29.57 4.21-9.01 1.26-18.01 2.56-28.2 4.01 4.18 2.65 7.38 4.56 10.45 6.66 5.22 3.57 6.72 8.18 5.66 14.68-1.32 8.08-1.16 16.4-1.7 25.83 8.87-2.39 16.32-4.34 23.75-6.4 10.17-2.82 19.45-.44 28 5.1 1.6 1.04 3 3.8 2.86 5.64-.1 1.28-2.88 3.04-4.68 3.37-13.71 2.54-27.47 4.76-41.21 7.13-1.59.27-3.14.82-5.47 1.44 4.6 13.74 9.06 27.02 13.84 41.3 9.49-9.55 14.48-19.69 15.61-31.65.63-6.62 3.94-9.08 9.33-5.24 5.28 3.76 9.6 9.02 13.75 14.1.83 1.01-.28 4.9-1.67 6.24-9.92 9.62-20.14 18.92-30.1 28.16 9.24 15.47 19.98 26.59 33.39 35.06 4.53 2.86 6.44 2.25 8.24-2.88 2.41-6.87 4.1-13.99 6.05-21.01.74-2.64 1.35-5.31 2.02-7.97l1.62-.03c1.02 4.58 1.93 9.19 3.08 13.74 3.21 12.69 6.73 25.31 9.72 38.05 2.48 10.54-2.23 15.48-12.67 13.74-19.46-3.25-34.13-14.23-45.98-29.3-6.45-8.19-12.21-16.93-18.42-25.61-13.78 8.18-26.45 20.48-44.4 20.79-.33-.5-.65-1-.98-1.5 1.61-1.45 3.13-3.03 4.85-4.33 10.62-8 21.28-15.94 31.94-23.87 2.7-2.01 3.35-3.87 1.96-7.5-6-15.62-11.43-31.47-17.32-47.96-6.83 1.33-14.43 2.74-22 4.32-5.52 1.15-10.96 2.68-16.5 3.74-2.58.49-3.79 1.42-3.67 4.19.18 4.13.05 8.27.05 13.28 9.78-3.65 18.95-7.07 28.12-10.48.43.67.86 1.33 1.29 2-1.95 1.89-3.63 4.23-5.9 5.58-6.14 3.65-12.44 7.06-18.86 10.18-3.01 1.47-4 3.27-3.89 6.56.51 15.3 1.1 30.61 1.02 45.91-.05 8.92-2.66 17.38-8.36 24.57-3.72 4.69-7.06 4.52-11.07.25-8.65-9.2-17.58-18.15-26.35-27.23-1.38-1.42-2.53-3.06-3.79-4.6.37-.48.75-.95 1.12-1.43z" fill="#010104"/><path d="m124.14 193.04c8.3-4.33 16.64-8.67 24.97-13.01.57.73 1.14 1.45 1.7 2.18-1.95 2.4-3.54 5.26-5.91 7.12-5.89 4.6-12.08 8.84-18.27 13.04-2.61 1.77-3.64 3.79-3.52 7.02 1.08 28.58 2.09 57.16 2.94 85.75.42 14.21-.92 28.25-5.95 41.68-1.27 3.38-2.96 6.73-5.07 9.64-2.48 3.41-5.81 3.63-8.98.56-1.07-1.04-2.27-2.09-2.94-3.38-7.74-15.1-20.67-25.44-33.08-36.27-1.53-1.34-2.81-2.97-4.2-4.46.21-.46.43-.92.64-1.38 6.74 1.26 13.51 2.37 20.21 3.8 15.01 3.21 18.3.63 18.31-14.71.01-17.83 0-35.65 0-53.48 0-5.56 0-11.13 0-17.66-12.12 11.02-23.82 21.37-35.13 32.12-3.96 3.77-7.99 5.01-12.55 2.47-4.58-2.55-9.2-5.38-12.92-8.99-3.97-3.86-2.88-6.62 1.97-9.23 18.86-10.15 37.68-20.36 56.42-30.71 1.42-.78 2.97-2.86 3-4.37.42-17.64.56-35.28.76-52.92.01-.64-.18-1.29-.39-2.63-3.97.86-7.75 1.72-11.55 2.48-9.36 1.89-18.79 2.99-28.11.17-4.75-1.44-9.17-3.78-11.83-9.22 17.54-3.05 34.7-6.03 52.32-9.09 0-7.83-.08-14.62.02-21.41.13-9.31.26-18.63.63-27.94.32-8.11-1.76-15.43-6.28-22.12-1.12-1.65-2.38-3.26-3.15-5.08-1.73-4.09.08-7.04 4.52-7.13 11.1-.23 20.4 4.22 28.11 11.89 3.46 3.44 3.82 7.71 1.95 12.46-6.56 16.69-6.82 34.31-7.72 52.3 8.58-2.38 16.74-2.67 24.48.52 3.19 1.31 7.58 4.07 8.02 6.73.7 4.22-4.44 5.14-7.87 5.98-6.92 1.69-13.94 2.99-20.95 4.31-3.18.6-4.75 1.79-4.7 5.49.23 15.62.1 31.24.1 47.48z" fill="#010104"/><path d="m243.43 84.1c1.4-2.48 2.74-5 4.21-7.44 5.45-9.09 11.22-18 16.25-27.31 1.51-2.79 1.52-6.67 1.34-10-.22-4.01 2.03-5.47 4.98-4.91 8.3 1.58 15.82 4.95 21.36 11.76 1.79 2.2 1.96 4.3-.36 6.02-14.56 10.75-29.17 21.44-43.8 32.1-.72.53-1.81.55-2.72.81-.42-.34-.84-.69-1.26-1.03z" fill="#010104"/><path d="m327.89 200.92c-.01 5.01-4.19 8.17-8.66 5.3-11.3-7.24-22.16-15.16-33.11-22.94-.87-.62-1.74-2.78-1.36-3.29.76-1.01 2.53-2.11 3.64-1.9 9.88 1.88 19.98 3.24 29.47 6.4 6.76 2.26 9.01 9.28 10.02 16.43z" fill="#010104"/><path d="m225.16 84.87c-.74 1.14-1.73 4.34-3.79 5.33-2.07.99-5.68.58-7.76-.65-3.04-1.8-5.74-4.58-7.83-7.48-4.46-6.19-8.7-12.58-12.47-19.21-1.07-1.89-.22-4.87-.25-7.35 2.16.18 4.66-.27 6.42.67 5.69 3.05 11.2 6.46 16.58 10.03 5.99 3.98 8.35 10.07 9.1 18.66z" fill="#010104"/></svg>