<svg enable-background="new 0 0 400 400" viewBox="0 0 400 400" xmlns="http://www.w3.org/2000/svg"><g fill="#fafbfa"><path d="m342.2 3.2-6.3 9.2h6.1v1.2h-8.2v-.5l6.2-9.1h-5.7v-1.2h7.8v.4z"/><path d="m344 13.7v-10.9h3.1c1.6 0 3 .5 4.1 1.4 1.1 1 1.6 2.2 1.6 3.9s-.5 3-1.6 4-2.5 1.5-4.2 1.5h-3zm1.4-9.6v8.4h1.6c1.4 0 2.5-.4 3.2-1.1.8-.8 1.2-1.8 1.2-3.2s-.4-2.4-1.2-3.1-1.8-1-3.1-1z"/><path d="m356.3 2.8v10.9h-1.4v-10.9z"/><path d="m366.6 13.2c-.8.4-1.8.6-3 .6-1.6 0-2.8-.5-3.7-1.5s-1.4-2.3-1.4-3.9c0-1.7.5-3.2 1.6-4.2s2.4-1.6 4-1.6c1 0 1.9.1 2.6.4v1.5c-.8-.4-1.6-.6-2.6-.6-1.2 0-2.2.4-3 1.2s-1.1 1.9-1.1 3.3c0 1.3.4 2.3 1.1 3.1s1.6 1.1 2.8 1.1c1.1 0 2-.2 2.8-.7v1.3z"/><path d="m368.2 13c0-.3.1-.5.3-.6.2-.2.4-.3.6-.3.3 0 .5.1.7.3s.3.4.3.6-.1.5-.3.6c-.2.2-.4.3-.7.3s-.5-.1-.6-.3c-.2-.2-.3-.4-.3-.6z"/><path d="m381.1 13.7h-1.7l-5.5-8.4c-.2-.2-.3-.5-.4-.7 0 .2.1.8.1 1.5v7.6h-1.4v-10.9h1.8l5.3 8.3c.3.4.4.6.4.8 0-.3-.1-.8-.1-1.6v-7.5h1.4v10.9z"/><path d="m389.7 13.7h-5.8v-10.9h5.6v1.2h-4.2v3.5h3.9v1.2h-3.9v3.7h4.4z"/><path d="m398.4 4.1h-3.1v9.6h-1.4v-9.6h-3.1v-1.3h7.7v1.3z"/></g><path d="m119.1 154.2c-6.71 1.89-12.63 3.38-18.45 5.23-8.74 2.78-17.58 3.5-26.54 1.56-5.29-1.14-9.9-3.61-14.08-9.47 5.66-.95 10.43-1.51 15.07-2.58 14.54-3.35 28.99-7.05 43.56-10.27 5.75-1.27 6.98-4.8 6.97-9.93-.03-12.66-.16-25.33.38-37.97.64-14.89-3.57-28.16-11.55-40.51-3.45-5.35-2.04-9.23 4.25-10 3.54-.44 7.83.32 10.91 2.07 6.18 3.52 11.74 8.13 17.59 12.24 4.44 3.11 4.66 7.01 2.95 11.81-7.32 20.46-8.37 41.83-9.26 62.22 7.38.44 14.23.71 21.05 1.34 2.07.19 4.33.98 6 2.19 1.71 1.24 3.91 3.37 3.86 5.05-.05 1.64-2.39 4.01-4.21 4.65-5.91 2.09-12 3.76-18.11 5.19-9.28 2.18-9.24 2.04-9.47 11.28-.14 5.32-.41 10.64-.9 15.93-.35 3.89.83 5.97 4.54 8.04 8.82 4.92 17.33 10.48 25.56 16.34 5.39 3.84 7.18 10 6.44 16.38-.72 6.22-4.38 7.66-9.37 3.89-4.37-3.3-8.38-7.09-12.45-10.78-4.81-4.35-9.52-8.82-14.34-13.3-.06.22-.41.89-.42 1.58-.38 21.14-.64 42.28-1.12 63.42-.49 21.78-1.17 43.56-1.82 65.34-.23 7.88-3.16 14.92-7.29 21.46-2.99 4.73-7.15 4.84-9.53-.23-6.36-13.53-12.14-26.9-6.57-42.81 6.46-18.41 8.39-37.84 9.08-57.33.62-17.62 1.29-35.24 1.92-52.86.06-1.64.01-3.28-.93-5.34-.92 1.78-1.86 3.54-2.75 5.33-17.28 34.84-40.56 65.18-69.01 91.59-1.92 1.78-5 2.33-7.53 3.45.94-2.38 1.5-5.03 2.89-7.11 15.96-23.93 33.01-47.2 47.74-71.85 9.82-16.42 16.38-34.78 24.38-52.28.28-.55.26-1.26.56-2.96z" fill="#010104"/><path d="m176.9 88.25c7.42-.46 13.66-.95 19.91-1.22 37.68-1.67 74.52-8.27 110.71-18.75 9.28-2.69 18.52-2.25 27.04 2.49 2.4 1.33 3.78 4.49 5.63 6.81-2.22 1.73-4.22 4.5-6.69 5-13.8 2.81-27.67 5.32-41.59 7.46-24.6 3.77-49.25 7.25-73.9 10.73-4.89.69-9.85.84-15.01 1.26 0 37.18.36 73.89-.12 110.59-.36 27.94-1.98 55.85-2.61 83.79-.28 12.32 1.44 13.16 13.67 11.83 30.41-3.29 60.81-6.54 91.49-6.56 8.73-.01 17.65-1.18 26.14-3.22 10.83-2.6 20.71 4.13 25.41 10.11 3.53 4.5 2.03 8.31-3.7 9.31-4.88.86-9.92 1.18-14.88 1.12-32.14-.35-64.16 1.64-96.11 4.97-10.74 1.12-21.53 1.87-32.23 3.29-4.87.65-9.68 2.23-14.34 3.9-5.2 1.87-9.53.49-13.38-2.79-3.87-3.31-3.76-7.6-2.81-12.34 2.03-10.22 4.29-20.48 5.13-30.83 1.11-13.75 1.18-27.6 1.31-41.41.33-32.97.68-65.94.5-98.91-.06-11.25-1.37-22.52-2.68-33.72-.45-3.82-2.8-7.38-3.97-11.16-1.15-3.7-1.89-7.49-2.92-11.75z" fill="#010104"/><path d="m265.89 214.1c-7.61 1.19-14.76 2.31-22.47 3.51-.77 3.06-1.72 6.82-2.98 11.82-2.27-1.72-4.07-2.69-5.35-4.12-5.34-5.96-7.45-13.37-8.03-21.05-1.97-26.1-6.02-51.73-15.17-76.4-1.92-5.17-.4-6.78 5.08-5.9 1.8.29 3.81.31 5.33 1.17 10.45 5.85 20.91 2.3 31.35.23 20.49-4.07 40.95-8.28 61.45-12.29 1.87-.37 4.29-.34 5.84.56 7.57 4.36 15.05 8.9 22.3 13.77 2.87 1.93 3.17 5.47.85 7.97-9.84 10.63-10.77 24.18-13.08 37.42-2.29 13.06-5.25 26-7.99 38.98-.37 1.77-1.16 3.46-1.85 5.14-3.58 8.64-8.66 10.16-14.12 2.73-6.82-9.29-15.4-5.06-23.51-5.13-.7-.01-2.01 2.68-2.04 4.14-.27 13.99.01 28-.56 41.97-.38 9.44-1.7 18.85-2.97 28.22-.5 3.71-1.45 8.83-5.84 8.81-4.6-.03-5.11-5.31-5.25-8.94-.56-14.62-.77-29.26-.97-43.89-.12-9.46-.02-18.92-.02-28.72zm48.81-55.72c.86-5.19 1.86-11.19 2.86-17.19.05-.33.13-.65.16-.98.7-7.5-5.47-14.5-12.81-14.12-5.62.29-11.21 1.1-16.81 1.73-4.31.49-8.61 1.07-14.03 1.76 2.3 1.59 3.5 2.44 4.72 3.25 7.91 5.27 8.21 6.18 6.33 15.57-.86 4.3-1.33 8.69-1.91 12.6 10.76-.89 20.91-1.74 31.49-2.62zm-81.27-20.14c1.53 11.17 3.01 21.93 4.58 33.42 9.68-2.14 18.63-4.11 27.8-6.14.18-10.24 1.48-20.11-4.39-29.24-1.87-2.91-3.59-3.84-6.67-3.1-6.75 1.62-13.5 3.2-21.32 5.06zm71.63 63.77c5.54-9.96 5.55-20.49 7.98-31.42-10.38 1.15-20.02 2.22-30.31 3.36v26c7.23-.69 14.86-4.27 22.33 2.06zm-39.07-24.94c-9.23 1.19-17.83 2.3-26.49 3.41 1.17 8.4 2.38 17.02 3.64 26.02 6.97-.95 13.53-1.71 20.02-2.84 1.09-.19 2.67-1.99 2.7-3.09.25-7.61.13-15.24.13-23.5z" fill="#010104"/></svg>