<svg enable-background="new 0 0 400 400" viewBox="0 0 400 400" xmlns="http://www.w3.org/2000/svg"><g fill="#fafbfa"><path d="m342.2 3.2-6.3 9.2h6.1v1.2h-8.2v-.5l6.2-9.1h-5.7v-1.2h7.8v.4z"/><path d="m344 13.7v-10.9h3.1c1.6 0 3 .5 4.1 1.4 1.1 1 1.6 2.2 1.6 3.9s-.5 3-1.6 4-2.5 1.5-4.2 1.5h-3zm1.4-9.6v8.4h1.6c1.4 0 2.5-.4 3.2-1.1.8-.8 1.2-1.8 1.2-3.2s-.4-2.4-1.2-3.1-1.8-1-3.1-1z"/><path d="m356.3 2.8v10.9h-1.4v-10.9z"/><path d="m366.6 13.2c-.8.4-1.8.6-3 .6-1.6 0-2.8-.5-3.7-1.5s-1.4-2.3-1.4-3.9c0-1.7.5-3.2 1.6-4.2s2.4-1.6 4-1.6c1 0 1.9.1 2.6.4v1.5c-.8-.4-1.6-.6-2.6-.6-1.2 0-2.2.4-3 1.2s-1.1 1.9-1.1 3.3c0 1.3.4 2.3 1.1 3.1s1.6 1.1 2.8 1.1c1.1 0 2-.2 2.8-.7v1.3z"/><path d="m368.2 13c0-.3.1-.5.3-.6.2-.2.4-.3.6-.3.3 0 .5.1.7.3s.3.4.3.6-.1.5-.3.6c-.2.2-.4.3-.7.3s-.5-.1-.6-.3c-.2-.2-.3-.4-.3-.6z"/><path d="m381.1 13.7h-1.7l-5.5-8.4c-.2-.2-.3-.5-.4-.7 0 .2.1.8.1 1.5v7.6h-1.4v-10.9h1.8l5.3 8.3c.3.4.4.6.4.8 0-.3-.1-.8-.1-1.6v-7.5h1.4v10.9z"/><path d="m389.7 13.7h-5.8v-10.9h5.6v1.2h-4.2v3.5h3.9v1.2h-3.9v3.7h4.4z"/><path d="m398.4 4.1h-3.1v9.6h-1.4v-9.6h-3.1v-1.3h7.7v1.3z"/></g><path d="m67.14 247.2c-1.24 3.93-2.32 7.33-3.63 11.45-8.17-5.6-11.39-13.18-12.48-21.45-1.5-11.35-2.04-22.83-3.07-34.25-1.79-19.91-5.69-39.39-12.12-58.35-.58-1.71-1.45-3.69-1.03-5.25.36-1.33 2.81-3.41 3.56-3.13 16.05 6.08 31.12-.62 46.3-3.68 17.55-3.54 34.84-8.36 52.31-12.33 2.57-.58 5.9-.29 8.2.91 7.04 3.68 13.99 7.65 20.51 12.18 5.61 3.89 5.92 7.38 1.51 12.48-9.08 10.49-9.95 23.51-12.21 36.27-3.3 18.6-7.12 37.12-11.03 55.61-.73 3.45-2.65 6.77-4.57 9.8-2.02 3.19-5.15 3.48-8.23 1.29-1.75-1.25-3.79-2.51-4.82-4.28-2.92-5-7.32-4.96-12.03-4.2-13.26 2.16-26.49 4.42-39.76 6.54-2.44.41-4.96.28-7.41.39zm70.15-70.03c1.2-8.47 2.79-17.27 3.58-26.14.5-5.57-4.25-13.27-8.12-13.71-10.46-1.18-20.49 1.57-31.2 3.6.99 1.16 1.33 1.78 1.85 2.12 4.7 3.08 6.01 6.9 4.97 12.72-1.31 7.34-1.02 14.97-1.36 21.4 10.35.01 19.84.01 30.28.01zm-76.17 12.4c5.17-1.27 9.65-2.34 14.11-3.46 4.96-1.24 11.91-1.01 14.34-4.2 2.62-3.44 1.42-10.12 1.15-15.35-.34-6.41-1.31-12.79-2.32-19.14-.47-2.96-2.47-3.8-5.55-2.92-8.41 2.39-16.89 4.51-26.11 6.94 1.46 12.67 2.89 25.09 4.38 38.13zm.96 5.51c1.84 13.88 3.6 27.25 5.41 40.92 8.43-1.8 16.44-3.5 23.75-5.06 0-12.71 0-24.63 0-36.69-10 .16-19.05 5.73-29.16.83zm44.93 30.21c5.61.54 11.36 1.22 17.13 1.56 1.08.06 3.04-1.03 3.25-1.91 2.87-11.81 5.51-23.67 8.42-36.49-9.48 1.05-17.69 1.85-25.85 2.98-1.1.15-2.81 1.93-2.83 2.99-.21 10.58-.12 21.17-.12 30.87z" fill="#010104"/><path d="m244.53 179.99c-13.7 14.43-26.61 28.53-40.09 42.07-9.91 9.96-21.23 18.24-34.33 23.68-3.62 1.5-7.62 2.09-11.45 3.1-.23-.54-.46-1.08-.69-1.62 6.1-5.28 12.18-10.58 18.3-15.84 15.84-13.61 30.97-27.94 41.88-45.95 3.82-6.31 6.56-13.36 9.11-20.33 1.28-3.51 2.74-5.01 6.4-4.32 2.61.49 5.29.61 7.87 1.18 7.63 1.68 9.53 5.02 7.21 12.13 18.21 11.68 36.35 23.77 57.15 30.08 20.39 6.19 41.32 10.62 62.01 15.82 0 .51.01 1.01.01 1.52-1.69.85-3.3 2.13-5.08 2.47-16.11 3.1-32.2 6.45-48.42 8.82-6.81.99-13.5-1.58-18.83-6.42-15.77-14.32-31.5-28.69-47.25-43.04-1.47-1.33-2.96-2.61-3.8-3.35z" fill="#010104"/><path d="m272.49 79.78c-13.89 5.61-28.25 11.21-42.41 17.26-4.36 1.86-8.1 5.15-12.34 7.37-1.85.96-4.98 1.91-6.27 1.03-3.78-2.57-7.28-5.78-10.24-9.29-2.8-3.31.36-5.68 2.42-8.03 5.9-6.73 12.19-13.17 17.5-20.35 4.81-6.5 4.65-14.22 2.88-21.99-.57-2.53-.93-6.1.4-7.75 1.12-1.38 5.04-1.36 7.37-.71 4.76 1.34 9.4 3.26 13.86 5.43 5.61 2.73 6.07 6.04 2.28 11.11-5.67 7.6-11.25 15.26-16.83 22.93-.85 1.16-1.47 2.49-3.06 5.24 14.16-2.91 26.96-5.54 40.46-8.32-1.73-2.71-3.62-4.87-4.58-7.39-.73-1.94-.28-4.32-.36-6.5 1.82.16 3.93-.21 5.41.59 5.11 2.75 10.24 5.58 14.92 8.99 4.85 3.53 8.12 8.5 8.06 14.74-.02 2.2-1.11 5.54-2.69 6.27-1.96.91-5.54.49-7.32-.83-3.39-2.54-6-6.11-9.46-9.8z" fill="#010104"/><path d="m175.09 350.97c7.91-4.41 15.81-8.82 23.73-13.21 19.17-10.63 37.2-22.86 51.77-39.38 7-7.94 13.04-16.78 18.95-25.59 2.02-3.01 2.65-7.1 3.37-10.8.88-4.52 2.36-5.71 6.77-4.15 8.39 2.98 15.05 7.94 17.6 16.89.49 1.72.15 4.65-1.01 5.7-10.94 9.94-22.18 19.56-33.27 29.34-22.39 19.74-47.41 34.65-76.73 41.56-3.48.82-7.14.87-10.72 1.27-.14-.54-.3-1.09-.46-1.63z" fill="#010104"/><path d="m271.72 133.44c10.97-2.24 21.95-4.48 33.2-6.78-1.94-4.42-3.79-8.64-6.09-13.88 2.63.41 3.98.23 4.74.81 7.09 5.41 14.89 10.23 20.71 16.79 2.46 2.78 1.52 9.46.61 14.07-.75 3.76-5.11 3.54-8.12-.35-2.63-3.41-4.88-7.11-7.74-11.33-12.64 5.15-25.39 10.21-38.01 15.57-3.31 1.41-6.46 3.46-9.27 5.73-2.87 2.32-5.33 2.28-8.03.14-1.17-.93-2.34-1.87-3.41-2.9-5.97-5.75-5.81-7.28 0-13.34 4.36-4.55 8.49-9.35 12.41-14.29 5.53-6.98 5.68-14.95 3.27-23.11-1.8-6.11.17-8.94 6.39-7.48 5.41 1.27 10.65 3.62 15.69 6.06 4.2 2.04 2.22 5.41.46 8.02-5.3 7.85-10.81 15.55-16.23 23.32-.37.52-.66 1.1-.99 1.65.13.41.27.86.41 1.3z" fill="#010104"/><path d="m188 153.17c10.09-3.86 20.17-7.72 30.51-11.68-1-2.81-2.13-5.24-2.64-7.79-.25-1.22.34-3.02 1.21-3.9.54-.55 2.62-.28 3.5.34 4.06 2.88 8.05 5.88 11.83 9.12 1.3 1.12 2.2 2.96 2.76 4.65 1.24 3.74 2.06 7.87-1.91 10.38-4.16 2.64-6.67-.93-9.21-3.52-.8-.82-1.48-1.76-2.43-2.9-15.05 8.04-31.19 14.05-44.26 25.54-1.11.97-4.04 1.22-5.25.44-2.89-1.85-5.51-4.3-7.78-6.9-2.99-3.44-.94-6.16 1.62-9.07 6-6.85 12.13-13.66 17.3-21.12 4.91-7.07 6.01-15.31 3.83-23.87-1.31-5.12 1.1-7.67 6.01-6.05 5.01 1.66 9.95 3.73 14.61 6.22 4.38 2.34 4.58 4.61 1.42 8.94-6.39 8.73-12.91 17.36-19.35 26.06-.93 1.26-1.7 2.65-2.54 3.98.25.38.51.76.77 1.13z" fill="#010104"/><path d="m188.68 303.53c10.44-7.63 21.21-14.86 31.25-23 13.31-10.79 23.91-23.99 31.3-39.56 1.09-2.3 1.54-5.05 1.71-7.63.27-4.1 2.03-5.28 5.83-4 6.2 2.08 11.61 5.29 14.34 11.45.76 1.72.67 5.09-.47 6.18-13.95 13.29-27.78 26.74-42.44 39.21-9.77 8.31-21.63 13.49-34.02 17.1-2.42.7-5 .82-7.51 1.21 0-.31 0-.64.01-.96z" fill="#010104"/><path d="m185.96 267.12c5.4-4.54 10.73-9.17 16.21-13.61 10.17-8.23 19.25-17.59 25.36-29.12 3.8-7.17 5.54-15.41 8.42-23.1.5-1.34 2.26-3.35 3.14-3.21 7.27 1.16 13.89 3.84 17.26 11 .76 1.61.74 4.72-.31 5.86-10.56 11.46-21.13 22.95-32.28 33.84-8.66 8.45-19.58 13.61-30.79 17.96-2.04.79-4.33.94-6.5 1.39-.17-.33-.34-.67-.51-1.01z" fill="#010104"/></svg>