<svg enable-background="new 0 0 400 400" viewBox="0 0 400 400" xmlns="http://www.w3.org/2000/svg"><g fill="#fafbfa"><path d="m342.2 3.2-6.3 9.2h6.1v1.2h-8.2v-.5l6.2-9.1h-5.7v-1.2h7.8v.4z"/><path d="m344 13.7v-10.9h3.1c1.6 0 3 .5 4.1 1.4 1.1 1 1.6 2.2 1.6 3.9s-.5 3-1.6 4-2.5 1.5-4.2 1.5h-3zm1.4-9.6v8.4h1.6c1.4 0 2.5-.4 3.2-1.1.8-.8 1.2-1.8 1.2-3.2s-.4-2.4-1.2-3.1-1.8-1-3.1-1z"/><path d="m356.3 2.8v10.9h-1.4v-10.9z"/><path d="m366.6 13.2c-.8.4-1.8.6-3 .6-1.6 0-2.8-.5-3.7-1.5s-1.4-2.3-1.4-3.9c0-1.7.5-3.2 1.6-4.2s2.4-1.6 4-1.6c1 0 1.9.1 2.6.4v1.5c-.8-.4-1.6-.6-2.6-.6-1.2 0-2.2.4-3 1.2s-1.1 1.9-1.1 3.3c0 1.3.4 2.3 1.1 3.1s1.6 1.1 2.8 1.1c1.1 0 2-.2 2.8-.7v1.3z"/><path d="m368.2 13c0-.3.1-.5.3-.6.2-.2.4-.3.6-.3.3 0 .5.1.7.3s.3.4.3.6-.1.5-.3.6c-.2.2-.4.3-.7.3s-.5-.1-.6-.3c-.2-.2-.3-.4-.3-.6z"/><path d="m381.1 13.7h-1.7l-5.5-8.4c-.2-.2-.3-.5-.4-.7 0 .2.1.8.1 1.5v7.6h-1.4v-10.9h1.8l5.3 8.3c.3.4.4.6.4.8 0-.3-.1-.8-.1-1.6v-7.5h1.4v10.9z"/><path d="m389.7 13.7h-5.8v-10.9h5.6v1.2h-4.2v3.5h3.9v1.2h-3.9v3.7h4.4z"/><path d="m398.4 4.1h-3.1v9.6h-1.4v-9.6h-3.1v-1.3h7.7v1.3z"/></g><path d="m139.44 118.88c-1.56 3.14-2.61 5.24-3.65 7.34-2.1-1.2-4.79-1.94-6.19-3.71-2.63-3.31-5.37-6.94-6.55-10.9-4.8-15.96-10.28-31.56-18.96-45.91-1.18-1.95-2.27-5.16-1.43-6.78.72-1.39 4.36-2.13 6.5-1.79 21.62 3.4 43.08.13 64.56-1.36 30.16-2.1 60.29-4.55 90.42-7.04 7.27-.6 14.45-2.27 21.73-2.77 3.56-.24 8.02-.02 10.7 1.91 7.1 5.1 13.76 10.93 20.01 17.08 4.22 4.16 3.14 7.06-.84 11.5-4.94 5.5-9.36 11.51-13.67 17.54-4.83 6.75-8.95 14.03-14.03 20.58-5.11 6.58-9.47 6.38-13.53-.64-2.32-4-4.93-5.12-9.13-4.78-16.21 1.31-32.44 2.44-48.66 3.71-12.91 1.01-25.81 2.05-38.7 3.22-8.76.8-17.49 2-26.25 2.74-4.31.35-8.64.06-12.33.06zm41.31-53.52c-.22.41-.43.83-.65 1.24 7.87 3.14 8.13 9.52 8.15 16.28.02 6.58.68 13.16 1.08 20.08 9.99-.71 19.4-1.56 28.84-1.99 4.81-.21 7.81-1.64 8.32-6.94.3-3.1 1.67-6.09 2.06-9.2.97-7.74 4.58-15.33 1.59-24.11-16.53 1.57-32.96 3.1-49.39 4.64zm-51.43 7.55c2.54 11.46 4.93 22.19 7.43 33.45 13.44-.66 26.4-1.29 40-1.96-4.02-12.33-6.34-23.99-13.67-33.6-.94-1.23-2.93-2.64-4.23-2.47-9.49 1.26-18.93 2.89-29.53 4.58zm109.13 25.08c4.51-.48 7.81-.77 11.08-1.2 2.96-.39 5.88-1.12 8.84-1.36 4.09-.33 8.46-1.27 12.26-.26 5.14 1.35 7.62-.62 9.29-4.71 2.24-5.52 3.98-11.25 6.3-16.73 3.27-7.72-1.15-12.76-7.74-13.16-11.1-.68-22.27-.19-34.16-.19 2.46 2.74 4.38 4.96 6.4 7.09 3 3.16 2.91 5.96.36 9.67-4.39 6.38-8.08 13.24-12.63 20.85z" fill="#010104"/><path d="m224.6 303.93c-.85 9.17-1.64 17.73-2.51 27.04 7.57-.47 14.82-.8 22.03-1.41 17.71-1.49 35.4-3.27 53.12-4.6 6.89-.52 14.5-1.92 20.62.29 7.84 2.84 14.65 8.71 21.55 13.77 1.33.98 1.99 4.7 1.19 6.24-.79 1.53-3.81 2.68-5.85 2.66-10.14-.07-20.29-.53-30.43-.96-13.79-.58-27.57-1.77-41.36-1.79-22.8-.04-45.65-.1-68.4 1.22-20.36 1.18-40.64 4-60.91 6.54-10.78 1.35-23.43-4.48-27-14.39 18.88-1.16 37.42-2.29 56.64-3.47-4.56-15.41-5.48-31.15-15.07-44.11-1.05-1.42-1.36-4.33-.61-5.87.61-1.25 3.44-2.26 5.09-2.01 7.53 1.13 14.42 4.13 19.75 9.66 1.64 1.7 2.46 4.75 2.61 7.24.57 9.29.69 18.62 1.01 27.93.06 1.8.23 3.59.39 6.1 11.19-.76 22.02-1.5 33.66-2.29-.54-10.37-1-20.45-1.63-30.51-.32-5.13-1.33-10.24-1.4-15.37-.09-6.38-1.58-12.03-5.38-17.29-2.77-3.83-.87-7.6 3.72-7.6 8.73-.01 16.06 4.04 22.43 9.53 1.32 1.13 1.1 4.62.81 6.93-.55 4.25-1.68 8.43-2.84 13.96 6.96-1.06 13.21-2 19.45-2.96 7.51-1.16 15.02-3.24 22.52-3.18 4.97.03 10.03 2.85 14.79 4.99 1.3.58 2.55 3.41 2.22 4.86-.34 1.52-2.46 3.5-4.03 3.74-14.76 2.26-29.55 4.35-44.38 6.09-3.68.41-7.54-.6-11.8-.98z" fill="#010104"/><path d="m138.91 157.57c-5.6 28.96-10.21 58.14-17.08 86.78-7.11 29.64-19.49 57.27-39.59 80.75-6.57 7.67-13.58 15.06-22.51 20.1-.56-.23-1.12-.46-1.68-.69.57-1.98.7-4.26 1.79-5.9 12.64-18.98 24.51-38.36 33.33-59.49 9.02-21.59 14.8-44.03 17.7-67.17 1.94-15.48 3.42-31.05 4.24-46.63.25-4.8-2.35-9.74-3.59-14.63-.54-2.14-2-5.1-1.14-6.3 1.16-1.59 4.19-2.56 6.4-2.54 49.89.56 99.29-3.43 147.82-15.6 9.64-2.42 18.5-.49 26.73 4.42 2.1 1.25 4.85 4.76 4.35 6.24-.74 2.2-3.91 4.56-6.39 5.02-10.91 2.05-21.91 3.83-32.95 5.01-20.98 2.25-42.01 4.08-63.02 5.96-18.02 1.65-36.07 3.11-54.41 4.67z" fill="#010104"/><path d="m266.63 222.92c.52 8.22 1.71 15.54 1.21 22.74-.44 6.31-2.45 12.6-4.41 18.68-1.24 3.85-4.17 3.99-6.63.65-3.74-5.06-5.89-10.74-5.87-17.13.02-7.1 0-14.19 0-21.54-11.91 9.02-22.78 20.96-39.56 21.77 12.75-11.61 27.51-21.16 34.94-38.87-4.22.57-7.71.87-11.13 1.54-8.09 1.57-14.79-.79-20.22-6.85-.83-.92-1.23-2.21-1.84-3.33 1.25-.63 2.45-1.69 3.74-1.81 7.94-.73 15.91-1.19 23.85-1.84 3.46-.29 6.9-.82 10.46-1.26 0-5.57 0-10.9 0-16.06-11.26 1.12-21.92 2.19-32.58 3.25-.18-.6-.36-1.2-.54-1.8 1.44-.68 2.88-1.34 4.31-2.04 11.14-5.49 22.45-10.7 33.31-16.69 2.78-1.53 4.51-5.39 6.15-8.48 1.25-2.37 2.61-3.66 4.99-2.27 7.12 4.15 14.19 8.41 21.1 12.89 1.09.71 2.17 3.38 1.68 4.13-.81 1.27-2.82 2.18-4.44 2.44-7 1.11-14.05 1.92-20.59 2.78.55 7.12 1.02 13.29 1.56 20.26 6.38-.84 13.11-1.41 19.7-2.68 8.47-1.63 15.34 1.53 21.7 6.41 1.25.96 2.72 3.62 2.25 4.42-.82 1.4-3.01 2.64-4.72 2.76-9.12.67-18.26.96-27.4 1.42-3.64.18-7.27.48-11.17.75-1.02 2.87-.4 4.32 2.75 5.33 8.21 2.62 16.34 5.51 24.41 8.54 8.08 3.03 13.1 9.11 15.08 17.33.62 2.56-.63 5.57-1.03 8.37-2.77-.56-6.02-.39-8.24-1.82-9.09-5.85-17.85-12.2-26.75-18.33-1.6-1.1-3.35-2.03-6.07-3.66z" fill="#010104"/><path d="m162.96 218.42c-11.05 3.45-21.18 5.4-29.31-6.23 11.64-1.94 22.73-3.79 34.34-5.72 0-6.37 0-12.55 0-18.53-8.91 0-17.21 0-25.52 0-.09-.29-.18-.58-.27-.87 1.91-.71 3.83-1.37 5.71-2.14 9.2-3.78 18.58-7.21 27.47-11.61 3.17-1.57 4.95-5.75 7.75-8.32 1.27-1.17 4.13-2.4 5.15-1.78 6.05 3.73 11.85 7.88 17.5 12.2.96.74 1.31 3.16.91 4.48-.25.81-2.44 1.25-3.82 1.45-7.31 1.02-14.64 1.92-21.17 2.75v19.81c3.27-.68 5.69-1.08 8.06-1.69 7.04-1.8 13.57-.21 19.6 3.34 1.59.94 2.41 3.2 3.58 4.85-1.69.88-3.31 2.29-5.1 2.53-6.9.95-13.85 1.5-20.78 2.25-1.46.16-2.9.49-4.39.75-.94 3.71.09 5.32 3.84 5.91 5.06.79 10.04 2.16 14.98 3.53 5.68 1.58 8.76 5.94 10.28 11.24.52 1.8.13 4.87-1.09 5.9-1.42 1.21-4.71 1.79-6.29.95-4.78-2.55-9.2-5.82-13.61-9.02-2.38-1.73-4.46-3.87-7.36-6.44 0 4.84-.43 8.76.09 12.56 1.2 8.87-.16 17.17-4.37 25.03-2.3 4.3-4.23 4.45-7.17.35-3.69-5.14-5.72-10.8-5.2-17.3.29-3.62.05-7.28.05-12.09-13 11.75-24.66 24.35-42.83 26.12 13.85-13.46 30.91-24.02 38.97-44.26z" fill="#010104"/></svg>