<svg enable-background="new 0 0 400 400" viewBox="0 0 400 400" xmlns="http://www.w3.org/2000/svg"><g fill="#fafbfa"><path d="m342.2 3.2-6.3 9.2h6.1v1.2h-8.2v-.5l6.2-9.1h-5.7v-1.2h7.8v.4z"/><path d="m344 13.7v-10.9h3.1c1.6 0 3 .5 4.1 1.4 1.1 1 1.6 2.2 1.6 3.9s-.5 3-1.6 4-2.5 1.5-4.2 1.5h-3zm1.4-9.6v8.4h1.6c1.4 0 2.5-.4 3.2-1.1.8-.8 1.2-1.8 1.2-3.2s-.4-2.4-1.2-3.1-1.8-1-3.1-1z"/><path d="m356.3 2.8v10.9h-1.4v-10.9z"/><path d="m366.6 13.2c-.8.4-1.8.6-3 .6-1.6 0-2.8-.5-3.7-1.5s-1.4-2.3-1.4-3.9c0-1.7.5-3.2 1.6-4.2s2.4-1.6 4-1.6c1 0 1.9.1 2.6.4v1.5c-.8-.4-1.6-.6-2.6-.6-1.2 0-2.2.4-3 1.2s-1.1 1.9-1.1 3.3c0 1.3.4 2.3 1.1 3.1s1.6 1.1 2.8 1.1c1.1 0 2-.2 2.8-.7v1.3z"/><path d="m368.2 13c0-.3.1-.5.3-.6.2-.2.4-.3.6-.3.3 0 .5.1.7.3s.3.4.3.6-.1.5-.3.6c-.2.2-.4.3-.7.3s-.5-.1-.6-.3c-.2-.2-.3-.4-.3-.6z"/><path d="m381.1 13.7h-1.7l-5.5-8.4c-.2-.2-.3-.5-.4-.7 0 .2.1.8.1 1.5v7.6h-1.4v-10.9h1.8l5.3 8.3c.3.4.4.6.4.8 0-.3-.1-.8-.1-1.6v-7.5h1.4v10.9z"/><path d="m389.7 13.7h-5.8v-10.9h5.6v1.2h-4.2v3.5h3.9v1.2h-3.9v3.7h4.4z"/><path d="m398.4 4.1h-3.1v9.6h-1.4v-9.6h-3.1v-1.3h7.7v1.3z"/></g><path d="m238.68 223.33c-14.87 2.03-29.17 4.16-43.51 5.89-9.25 1.12-17.56-1.45-24.01-8.42-1.67-1.8-2.42-4.46-3.59-6.72 2.29-.7 4.55-1.78 6.89-2.01 6.29-.64 12.61-.87 18.91-1.36 1.78-.14 3.53-.59 5.77-.99-1.23-11.12-2.57-21.97-3.61-32.84-1.35-14.12-3.95-27.88-9.73-40.97-2-4.52 1.71-8.66 6.67-8.14.66.07 1.45-.05 1.97.26 11.89 7.31 24.33 1.7 36.5 1.47 5.45-.1 10.88-1.15 16.98-1.85 0-6.14-.12-12.26.02-18.36.35-14.2.33-28.25-6.55-41.4-1.11-2.13-.55-6.37.97-8.22 1.18-1.45 5.46-1.68 7.64-.75 6.83 2.88 13.48 6.29 19.87 10.04 3.96 2.33 4.86 6.08 3.39 10.85-4.08 13.22-7.02 26.69-6.22 40.69.08 1.31.16 2.62.27 4.27 9.85-1.74 19.5-3.16 29.01-5.22 6.22-1.34 12.07-.69 17.37 2.3 6.05 3.43 11.98 7.28 17.24 11.79 1.71 1.47 2.56 6.49 1.38 8.35-8.58 13.55-10.74 29.19-15.16 44.08-1.27 4.28-2.25 8.64-3.57 13.79 5.09-.51 9.64-.73 14.11-1.47 7.03-1.15 13.5-.59 19.3 4.1 3.48 2.82 7.62 4.89 10.81 7.97 1.8 1.74 3.64 5.33 2.97 7.18-.63 1.75-4.51 3.15-7 3.23-6.8.23-13.62-.54-20.44-.5-23.8.14-47.6.49-71.41.68-2.76.02-3.38 1.24-4.04 3.76-3.19 12.18-5.92 24.57-10.36 36.31-10.36 27.42-31.22 45.41-56.28 58.95-7.11 3.84-14.9 6.51-22.54 9.28-2.8 1.02-6.06.78-9.11 1.12-.22-.51-.45-1.02-.67-1.53 3.75-2.77 7.44-5.62 11.25-8.3 18.03-12.7 35.29-26.19 47.99-44.66 10.55-15.34 16.55-32.47 20.63-50.41.18-.58-.03-1.25-.11-2.24zm28.87-86.26c-1.56 23.67-3.01 45.71-4.5 68.19 10.28-1.1 20.81-2.15 31.32-3.46.96-.12 2.25-1.71 2.49-2.82 1.05-4.85 1.95-9.75 2.59-14.67 1.81-13.99 3.63-27.99 1.55-42.15-.5-3.43-2.14-5.08-5.51-5.08-9.45-.02-18.89-.01-27.94-.01zm-24.66 69.64c1.79-22.12 3.57-44.14 5.39-66.56-12.38 1.23-23.53 2.33-35.5 3.52.53 21.62 1.06 43.15 1.6 65.03 9.59-.66 18.49-1.29 28.51-1.99z" fill="#010104"/><path d="m51.21 123.13c5.44-.37 10.81-.87 16.19-1.09 19.6-.78 38.37-5.69 56.96-11.45 1.74-.54 3.6-.84 5.21-1.65 11.18-5.57 19.74.89 28.23 6.44 4.65 3.04 4.1 6.71-.31 11.81-5.64 6.53-11.52 12.92-16.57 19.9-10.12 13.98-19.75 28.33-29.69 42.68 2.82 3.04 5.54 6.19 8.51 9.09 4.08 3.98 6.24 3.76 9.61-.52 3.51-4.44 7.36-8.64 10.53-13.31 2.46-3.63 4.47-7.68 5.99-11.8 1.57-4.26 3.98-5.99 8.27-4.34 6.81 2.63 10.92 8.03 13.69 14.45 1.23 2.85-.13 4.86-3.1 6.29-10.03 4.83-19.93 9.93-30.01 14.99 5.91 3.73 11.5 7.31 17.14 10.83 7.24 4.51 8.83 11.81 9.11 19.42.22 5.95-5.22 9.28-10.29 6.09-5.02-3.15-9.37-7.39-13.93-11.25-4.71-3.98-9.31-8.09-13.74-11.95v3.75c0 30.66.28 61.33-.18 91.98-.13 8.69-1.86 17.48-4 25.94-.89 3.53-4.75 6.31-7.26 9.43-2.78-2.91-6.36-5.4-8.19-8.82-3.78-7.06-3.96-14.97-3.26-22.87 1.33-15.05 3.1-30.08 3.74-45.16.65-15.14.45-30.33.01-45.48-.22-7.68-1.81-15.32-2.96-24.42-17.93 20.42-36.43 37.65-59.86 48.48-.4-.44-.79-.87-1.19-1.31 1.3-1.58 2.48-3.28 3.91-4.74 23.62-24.03 45.87-49.21 63.67-77.95 6.02-9.73 11.22-19.98 16.41-30.19 1.13-2.23.61-5.29.85-7.97-2.64-.22-5.41-1.07-7.9-.55-14.92 3.12-29.76 6.67-44.67 9.85-7.53 1.63-19.21-6.46-20.92-14.6z" fill="#010104"/><path d="m349.4 320.03c.01.33 0 .67.01 1 .07 9.03-1.88 13.08-7.67 14.37-6.94 1.55-9.4-4.25-12.48-8.57-17.19-24.08-34.26-48.24-51.44-72.32-2.62-3.67-5.85-7.04-4.9-12.04.56-2.94 2.13-4.86 5.16-2.46 19.92 15.79 41.35 29.8 58.75 48.59 10.17 11.01 12.05 16.56 12.57 31.43z" fill="#010104"/><path d="m143.44 78.89c-2.31 3.06-3.79 6.35-6.33 8.09-3.54 2.42-7.87 1.76-11.05-1.19-7.29-6.76-14.42-13.71-21.39-20.8-3.72-3.77-7.11-7.89-10.36-12.08-.82-1.07-1.22-3.52-.56-4.42.9-1.22 3.11-2.35 4.57-2.15 11.61 1.63 23.38 2.92 33.64 9.41 1.23.78 2.87 1.56 3.38 2.75 2.76 6.49 5.23 13.09 8.1 20.39z" fill="#010104"/></svg>