<svg enable-background="new 0 0 400 400" viewBox="0 0 400 400" xmlns="http://www.w3.org/2000/svg"><g fill="#fafbfa"><path d="m342.2 3.2-6.3 9.2h6.1v1.2h-8.2v-.5l6.2-9.1h-5.7v-1.2h7.8v.4z"/><path d="m344 13.7v-10.9h3.1c1.6 0 3 .5 4.1 1.4 1.1 1 1.6 2.2 1.6 3.9s-.5 3-1.6 4-2.5 1.5-4.2 1.5h-3zm1.4-9.6v8.4h1.6c1.4 0 2.5-.4 3.2-1.1.8-.8 1.2-1.8 1.2-3.2s-.4-2.4-1.2-3.1-1.8-1-3.1-1z"/><path d="m356.3 2.8v10.9h-1.4v-10.9z"/><path d="m366.6 13.2c-.8.4-1.8.6-3 .6-1.6 0-2.8-.5-3.7-1.5s-1.4-2.3-1.4-3.9c0-1.7.5-3.2 1.6-4.2s2.4-1.6 4-1.6c1 0 1.9.1 2.6.4v1.5c-.8-.4-1.6-.6-2.6-.6-1.2 0-2.2.4-3 1.2s-1.1 1.9-1.1 3.3c0 1.3.4 2.3 1.1 3.1s1.6 1.1 2.8 1.1c1.1 0 2-.2 2.8-.7v1.3z"/><path d="m368.2 13c0-.3.1-.5.3-.6.2-.2.4-.3.6-.3.3 0 .5.1.7.3s.3.4.3.6-.1.5-.3.6c-.2.2-.4.3-.7.3s-.5-.1-.6-.3c-.2-.2-.3-.4-.3-.6z"/><path d="m381.1 13.7h-1.7l-5.5-8.4c-.2-.2-.3-.5-.4-.7 0 .2.1.8.1 1.5v7.6h-1.4v-10.9h1.8l5.3 8.3c.3.4.4.6.4.8 0-.3-.1-.8-.1-1.6v-7.5h1.4v10.9z"/><path d="m389.7 13.7h-5.8v-10.9h5.6v1.2h-4.2v3.5h3.9v1.2h-3.9v3.7h4.4z"/><path d="m398.4 4.1h-3.1v9.6h-1.4v-9.6h-3.1v-1.3h7.7v1.3z"/></g><path d="m210.39 204.54c-.24.63-.43 1.27-.71 1.87-.91 2.03-1.85 4.05-2.78 6.08-2.13-1.44-4.6-2.57-6.34-4.39-6.7-7.01-8.02-16.19-9.56-25.21-3.67-21.54-9.19-42.5-18.99-62.17-2.6-5.22-.99-7.56 4.89-6.95 8.05.84 16.13 3.29 24.07 2.83 20.23-1.17 40.39-3.62 60.58-5.46 12.58-1.15 25.19-1.93 37.76-3.21 9.57-.98 19.07-2.68 28.64-3.64 3.33-.34 7.49-.54 10.04 1.11 8.2 5.29 16.15 11.09 23.56 17.43 5.25 4.49 4.91 7.94-.03 12.62-7.86 7.45-12.35 16.63-15.46 26.88-3.84 12.68-7.88 25.36-12.83 37.64-5.88 14.59-12.64 15.04-22.17 2.54-1.18-1.54-3.69-2.98-5.56-2.95-28.59.41-57.23.28-85.63 4.41-3.11.44-6.3.38-9.48.57zm54.77-14.41c5.87-.64 11.11-1.14 16.33-1.79 8.4-1.06 16.77-2.68 25.2-3.19 7.37-.45 9.26-.86 11.14-8.15 3.62-13.97 6.98-28.02 10.01-42.14 1.89-8.78-3.14-15.42-12.06-15.68-11.61-.34-23.25.04-34.87.34-4.93.13-9.85.82-14.47 1.24.97 2.89 2.58 5.34 2.47 7.72-.51 10.27-1.67 20.52-2.32 30.79-.64 10.05-.95 20.13-1.43 30.86zm-12.57 1.22c0-2.65.02-4.47 0-6.28-.25-17.81-.47-35.62-.81-53.43-.04-2.3-.42-4.68-1.18-6.84-.36-1.02-2.09-2.38-3.03-2.26-16.43 2.07-32.83 4.35-50.02 6.7 4.09 21.84 8.04 42.95 12.14 64.82 14.23-.9 28.39-1.79 42.9-2.71z" fill="#010104"/><path d="m50.08 146.14c2.42-.71 4.82-1.99 7.26-2.05 17.94-.43 35.22-4.6 52.27-9.57 7.09-2.07 14.07-5.39 20.27-9.41 8.8-5.71 16.87-4.82 25.19.17 3.13 1.88 6.22 3.9 8.99 6.26 3.59 3.06 3.98 6.85.54 9.32-19.78 14.16-31.18 35.25-45.26 54.12-2.16 2.9-4.17 5.92-6.17 8.78 3.52 3.84 6.76 7.38 10.48 11.44 7.91-10.19 16.09-19.92 21.51-31.53.91-1.95.67-4.57.54-6.85-.2-3.44 1.23-4.88 4.61-4.9 6.16-.03 17.93 8.83 18.58 14.75.17 1.55-1.98 3.85-3.63 5.02-10.83 7.72-21.82 15.22-32.76 22.78-.82.56-1.72 1.01-2.82 1.64 7.65 2.52 14.33 4.49 20.84 6.91 6.28 2.33 11.66 6.03 13.49 12.94.57 2.16.68 5.46-.56 6.78-1.13 1.21-4.74 1.28-6.61.42-7.23-3.31-14.22-7.17-21.27-10.86-2.05-1.07-4.02-2.29-6.88-3.93-.24 2.44-.62 4.29-.57 6.13.59 21.29 1.16 42.58 1.92 63.86.41 11.46-1.2 22.58-5.25 33.25-.79 2.08-3.2 5.03-4.75 4.96-2.11-.09-4.95-2.24-6.04-4.28-5.69-10.62-8.45-21.68-5.97-34.05 4.43-22.16 4.41-44.66 2.61-67.09-.45-5.57-3.24-10.95-5.31-17.56-19.98 24.39-41.47 44.42-69.55 55.87-.41-.45-.82-.9-1.23-1.36 1.97-2.12 3.85-4.35 5.93-6.35 20.28-19.57 39.88-39.84 56.34-62.74 10.06-14 18.59-29.12 27.51-43.91 1.86-3.08 4.78-7.49 1.11-10.36-1.91-1.49-6.65-.36-9.67.77-11.97 4.46-23.86 9.2-35.61 14.23-6.61 2.83-12.5 2.43-18.17-1.86-4.17-3.16-8.3-6.38-12.45-9.57.17-.71.36-1.44.54-2.17z" fill="#010104"/><path d="m221.09 330.48c-3.06 3.58-5.29 6.2-7.53 8.81-2.46-2.52-5.47-4.7-7.28-7.62-5.22-8.41-5.35-17.51-4.4-27.31 1.43-14.65 1.53-29.49 1.35-44.23-.13-10.25-1.11-20.57-6.13-30.01-.45-.85 1.06-3.66 2.3-4.26 1.56-.77 4.21-.94 5.64-.1 9.81 5.81 19.98 2.68 30.03 1.55 17.86-2.02 35.37-5.52 52.23-12.09 3.01-1.17 7.59-.96 10.42.54 7.3 3.87 14.23 8.54 20.9 13.45 4.7 3.46 4.15 6.48 1.48 11.68-2.42 4.73-4.81 10.15-4.86 15.29-.19 18.46.59 36.93 1.04 55.39.31 12.61-2.32 24.44-9.59 34.91-5.65 8.13-10.79 7.75-15.72-.8-2.91-5.04-6.1-9.91-8.93-14.99-1.6-2.88-3.74-3.78-6.92-3.56-15.24 1.04-30.5 1.93-45.75 2.87-3.14.2-6.29.36-8.28.48zm73.09-63.81c0-9.2.44-18.32-.15-27.37-.39-6-2.59-7.32-8.56-7.26-2.48.03-4.96.4-7.42.75-10.02 1.41-20.01 3-30.04 4.28-8.85 1.13-17.74 1.92-27.22 2.93v34.78c1.21 0 2.54.19 3.8-.03 9.97-1.76 19.93-3.53 29.87-5.43 13.17-2.52 26.28-5.8 39.72-2.65zm-2.39 47.24c.95-12.19 1.82-23.37 2.74-35.17-25.36 2.48-49.35 4.83-73.21 7.16v32.6c14.68-1.73 28.96-3.36 43.22-5.11 8.48-1.03 16.91-3.83 27.25.52z" fill="#010104"/><path d="m299.22 40.84c9-.1 23.75 10.51 25.58 18.93.36 1.65-1.21 4.52-2.75 5.66-16.94 12.54-34 24.91-51.17 37.12-1.67 1.19-4.36.95-6.57 1.37.52-2.22.47-4.82 1.65-6.6 7.29-10.91 14.82-21.65 22.34-32.4 3.74-5.35 5.84-10.97 4.75-17.7-.67-4.19 1.73-6.33 6.17-6.38z" fill="#010104"/><path d="m158.65 97.23c-.72 1.35-1.48 5.1-3.54 6.05-2.32 1.07-6.63.66-8.65-.92-12.14-9.49-23.91-19.44-35.7-29.37-3.03-2.55-5.84-5.44-8.37-8.49-1.11-1.34-1.27-3.46-1.87-5.23 2.17-.42 4.53-1.61 6.47-1.13 6.56 1.65 13.18 3.4 19.38 6.05 7.43 3.18 14.56 7.12 21.62 11.09 7.84 4.41 9.63 12.17 10.66 21.95z" fill="#010104"/><path d="m247.9 96.47c-.08.32-.19.64-.24.97-.58 3.91-.3 8.58-4.79 10.2-4.51 1.63-7.66-1.82-10.04-4.92-10.08-13.16-19.97-26.47-29.69-39.89-1.01-1.39-.46-3.91-.64-5.9 1.87.08 4.02-.42 5.56.33 12.73 6.2 25.28 12.94 34.26 24.22 3.22 4.04 4.53 9.6 6.71 14.46-.37.18-.75.35-1.13.53z" fill="#010104"/><path d="m317.49 153.47c-1.5.74-3.13 1.31-4.49 2.26-10.48 7.27-20.89 14.65-31.4 21.87-1.03.71-2.61.63-3.94.92.07-1.5-.36-3.26.29-4.44 3.74-6.82 8.11-13.33 11.49-20.32 1.55-3.19 1.76-7.25 1.77-10.91 0-3.4.99-4.94 4.4-5.04 6.11-.18 17.86 7.5 20.01 13.18.12.31.21.62.32.93.52.52 1.04 1.04 1.55 1.55z" fill="#010104"/><path d="m240.96 171.25c-2.08 3.12-3.49 7.3-6.39 9.1-3.97 2.47-8.17-.59-10.06-4.04-4.99-9.1-9.44-18.52-13.58-28.04-.74-1.71.99-4.5 1.59-6.79 1.94.57 4.2.68 5.76 1.78 4.87 3.45 9.66 7.07 14.13 11.01 4.78 4.23 7.71 9.56 6.99 16.45.52.17 1.04.35 1.56.53z" fill="#010104"/></svg>