<svg enable-background="new 0 0 400 400" viewBox="0 0 400 400" xmlns="http://www.w3.org/2000/svg"><g fill="#fafbfa"><path d="m342.2 3.2-6.3 9.2h6.1v1.2h-8.2v-.5l6.2-9.1h-5.7v-1.2h7.8v.4z"/><path d="m344 13.7v-10.9h3.1c1.6 0 3 .5 4.1 1.4 1.1 1 1.6 2.2 1.6 3.9s-.5 3-1.6 4-2.5 1.5-4.2 1.5h-3zm1.4-9.6v8.4h1.6c1.4 0 2.5-.4 3.2-1.1.8-.8 1.2-1.8 1.2-3.2s-.4-2.4-1.2-3.1-1.8-1-3.1-1z"/><path d="m356.3 2.8v10.9h-1.4v-10.9z"/><path d="m366.6 13.2c-.8.4-1.8.6-3 .6-1.6 0-2.8-.5-3.7-1.5s-1.4-2.3-1.4-3.9c0-1.7.5-3.2 1.6-4.2s2.4-1.6 4-1.6c1 0 1.9.1 2.6.4v1.5c-.8-.4-1.6-.6-2.6-.6-1.2 0-2.2.4-3 1.2s-1.1 1.9-1.1 3.3c0 1.3.4 2.3 1.1 3.1s1.6 1.1 2.8 1.1c1.1 0 2-.2 2.8-.7v1.3z"/><path d="m368.2 13c0-.3.1-.5.3-.6.2-.2.4-.3.6-.3.3 0 .5.1.7.3s.3.4.3.6-.1.5-.3.6c-.2.2-.4.3-.7.3s-.5-.1-.6-.3c-.2-.2-.3-.4-.3-.6z"/><path d="m381.1 13.7h-1.7l-5.5-8.4c-.2-.2-.3-.5-.4-.7 0 .2.1.8.1 1.5v7.6h-1.4v-10.9h1.8l5.3 8.3c.3.4.4.6.4.8 0-.3-.1-.8-.1-1.6v-7.5h1.4v10.9z"/><path d="m389.7 13.7h-5.8v-10.9h5.6v1.2h-4.2v3.5h3.9v1.2h-3.9v3.7h4.4z"/><path d="m398.4 4.1h-3.1v9.6h-1.4v-9.6h-3.1v-1.3h7.7v1.3z"/></g><path d="m242.46 320.83c-.2.4-.34.69-.49.98-1.23 2.41-2.45 4.81-3.68 7.22-2.22-1.84-5.37-3.24-6.48-5.61-2.49-5.31-4.84-10.97-5.68-16.71-2.66-18.11-5.9-36.01-12.97-53.01-.51-1.22-1.01-2.48-1.28-3.76-1.05-4.97.46-6.35 5.43-5.79 7.86.89 15.13 4.95 23.41 3.8 8.86-1.23 17.8-1.86 27.25-2.81 0-15.92 0-31.31 0-47.6-8.76 1.25-17.58 1.83-26.05 3.87-13.23 3.18-20.19.8-29.09-7.3-3.22 12.73-6.13 25.58-9.73 38.23-7.6 26.71-20.19 50.88-37.99 72.27-5.1 6.13-6.19 6.91-11.66 7.46.8-2.45 1.24-4.59 2.17-6.48 11.53-23.39 23.24-46.67 30.63-71.86 6.38-21.77 10.72-43.9 11.63-66.54.83-20.62.99-41.28.81-61.91-.09-11.4-.28-23.03-9.65-31.96-2.71-2.58.92-7.95 5.39-7.14 5.91 1.07 11.53 3.7 17.3 5.59 2.42.79 4.96 2.1 7.36 1.96 28.1-1.7 55.88-5.33 82.52-14.99 5.79-2.1 10.9-1.76 16.03 1.58 5.43 3.54 11.24 6.52 16.46 10.32 6.35 4.63 6.59 8.01 1.53 14.07-6 7.19-11.5 14.6-14.6 23.59-.87 2.54-1.09 4.13 1.49 5.83 2.61 1.72 4.94 3.98 7.02 6.33 1.07 1.2 2.2 3.5 1.72 4.61-.5 1.15-2.9 1.98-4.51 2.05-12.13.52-24.31.38-36.41 1.29-20.52 1.54-40.98 3.79-61.49 5.53-3.72.32-7.53-.4-10.84-.61-1.45 18.64-2.9 37.28-4.4 56.6 18.15-2.26 36.33-4.53 55.05-6.86-.93-11.13.81-21.89-6.09-31.31-1.29-1.76-1.83-5.56-.78-7.12 1.12-1.67 4.68-2.79 6.91-2.45 9.23 1.42 17.18 6.01 24.4 11.75 3.49 2.77 2.25 6.58 1.31 10.17-1.32 5.04-2.56 10.1-4 15.78 12.78-1.85 24.45-3.24 36-5.33 6.46-1.17 12.36-.22 17.76 2.91 4.86 2.81 9.53 6.14 13.7 9.89 3.73 3.35 2.66 7.17-2.26 7.72-6.53.73-13.19.24-19.8.23-14.49-.02-28.99-.08-43.48-.09-1.14 0-2.28.29-3.97.52-2.16 15.22-4.32 30.41-6.64 46.79 8.35-2.24 15.86-3.98 23.17-6.3 7.41-2.35 14.25-2.4 20.86 2.26 5.7 4.01 11.87 7.38 17.37 11.64 6.56 5.07 6.85 9.63 1.13 15.53-10.65 10.96-16.49 24.42-20.55 38.77-.5 1.76 1.48 4.2 2.26 6.34.7 1.91 1.32 3.85 1.97 5.78-1.81.55-3.6 1.53-5.42 1.57-17.47.41-34.95.54-52.42 1.03-6.97.2-13.91 1.15-20.87 1.67-2.1.14-4.25.01-6.76.01zm-.49-12.61c19.85-2.43 39.1-4.71 58.31-7.27 1.36-.18 3.17-2.21 3.53-3.68 2.4-9.65 4.51-19.38 6.61-29.11 3-13.89-2.14-19.04-16.15-16.8-9.49 1.52-19.06 2.58-28.61 3.71-9.37 1.11-18.76 2.05-28.97 3.16 1.7 16.15 3.42 32.4 5.28 49.99zm-24.6-187.53c1.28.16 1.78.32 2.25.27 26.83-3.11 53.66-6.18 80.47-9.5 1.31-.16 3.11-2.43 3.36-3.94 1.25-7.34 2.22-14.75 2.95-22.16.64-6.43-3.19-10.58-9.74-10.18-6.6.4-13.16 1.6-19.74 2.41-17.92 2.21-35.84 4.48-53.78 6.51-2.61.29-3.98.82-4.11 3.61-.5 10.88-1.09 21.77-1.66 32.98z" fill="#010104"/><path d="m95.87 308.55c-.84 2.83-1.53 5.12-2.38 7.98-6.93-3.23-10.79-8.26-12.48-14.69-4.31-16.43-9.23-32.58-17.23-47.69-2.46-4.65-.24-7.42 5.02-6.39 21.68 4.24 41.7-.36 60.83-10.66 4.19-2.26 8.76-2.03 12.85.63 5.72 3.71 11.38 7.53 16.93 11.5 4.24 3.04 4.79 7.2.79 11.51-8.31 8.95-12.16 20.04-16.17 31.13-.94 2.61-1.33 4.48 1.51 6.35 1.36.89 1.76 3.27 2.59 4.97-1.69.74-3.34 1.97-5.08 2.14-13.7 1.33-27.41 2.49-41.13 3.6-1.94.16-3.93-.23-6.05-.38zm-1.15-10.54c9.85-2.09 19.21-4.04 28.54-6.14.93-.21 2.17-1.24 2.37-2.11 2.23-9.33 4.73-18.63 6.21-28.09.92-5.9-.4-7.11-6.26-6.57-11.37 1.04-22.69 2.67-34 4.26-.9.13-2.33 2.04-2.21 2.95 1.59 11.63 3.43 23.22 5.35 35.7z" fill="#010104"/><path d="m121.5 113.02c-10.43-13.31-20.68-26.18-30.6-39.29-1.54-2.04-1.58-5.22-2.32-7.87 2.64.37 5.62.09 7.87 1.24 7.53 3.85 14.91 8.02 22.15 12.4 11.6 7.01 18.1 16.58 13.65 31.7 6.05-1.08 11.37-1.97 16.66-2.97 7.79-1.47 15.24-.47 22.3 3.07 1.59.79 3.11 2.03 4.21 3.41 2.93 3.67 2.07 6.66-2.57 7.57-6.33 1.24-12.79 1.89-19.21 2.6-26.17 2.88-51.62 9.1-76.76 16.63-11.13 3.33-20.98 1.24-30.19-5.28-1.48-1.05-3.21-2.18-3.98-3.7-.98-1.92-1.79-4.45-1.32-6.38.29-1.17 3.07-2.23 4.85-2.46 17.76-2.36 35.57-4.42 53.33-6.81 7.54-1.02 14.99-2.62 21.93-3.86z" fill="#010104"/><path d="m104.59 180.55c-6.09-2.06-12.02-3.87-17.76-6.16-1.32-.53-1.96-2.72-2.92-4.15 1.41-.75 2.77-2 4.24-2.16 13.92-1.46 27.39-4.49 40.49-9.57 7.12-2.76 14.76-2.83 21.84.37 2.31 1.04 3.77 3.95 5.63 6.01-1.91 1.52-3.61 3.85-5.77 4.42-15.02 3.91-30.15 7.45-45.75 11.24z" fill="#010104"/><path d="m81.41 207.32c4.82-.7 8.91-.98 12.84-1.92 11.89-2.85 23.69-6.1 35.6-8.9 6.65-1.56 13.3-.71 19.36 2.42 1.76.91 3.76 3.4 3.72 5.12-.04 1.46-2.65 3.68-4.48 4.15-16.04 4.08-31.96 9.01-48.78 8.87-7.78-.07-13.98-3.15-18.26-9.74z" fill="#010104"/></svg>