<svg enable-background="new 0 0 400 400" viewBox="0 0 400 400" xmlns="http://www.w3.org/2000/svg"><g fill="#fafbfa"><path d="m342.2 3.2-6.3 9.2h6.1v1.2h-8.2v-.5l6.2-9.1h-5.7v-1.2h7.8v.4z"/><path d="m344 13.7v-10.9h3.1c1.6 0 3 .5 4.1 1.4 1.1 1 1.6 2.2 1.6 3.9s-.5 3-1.6 4-2.5 1.5-4.2 1.5h-3zm1.4-9.6v8.4h1.6c1.4 0 2.5-.4 3.2-1.1.8-.8 1.2-1.8 1.2-3.2s-.4-2.4-1.2-3.1-1.8-1-3.1-1z"/><path d="m356.3 2.8v10.9h-1.4v-10.9z"/><path d="m366.6 13.2c-.8.4-1.8.6-3 .6-1.6 0-2.8-.5-3.7-1.5s-1.4-2.3-1.4-3.9c0-1.7.5-3.2 1.6-4.2s2.4-1.6 4-1.6c1 0 1.9.1 2.6.4v1.5c-.8-.4-1.6-.6-2.6-.6-1.2 0-2.2.4-3 1.2s-1.1 1.9-1.1 3.3c0 1.3.4 2.3 1.1 3.1s1.6 1.1 2.8 1.1c1.1 0 2-.2 2.8-.7v1.3z"/><path d="m368.2 13c0-.3.1-.5.3-.6.2-.2.4-.3.6-.3.3 0 .5.1.7.3s.3.4.3.6-.1.5-.3.6c-.2.2-.4.3-.7.3s-.5-.1-.6-.3c-.2-.2-.3-.4-.3-.6z"/><path d="m381.1 13.7h-1.7l-5.5-8.4c-.2-.2-.3-.5-.4-.7 0 .2.1.8.1 1.5v7.6h-1.4v-10.9h1.8l5.3 8.3c.3.4.4.6.4.8 0-.3-.1-.8-.1-1.6v-7.5h1.4v10.9z"/><path d="m389.7 13.7h-5.8v-10.9h5.6v1.2h-4.2v3.5h3.9v1.2h-3.9v3.7h4.4z"/><path d="m398.4 4.1h-3.1v9.6h-1.4v-9.6h-3.1v-1.3h7.7v1.3z"/></g><path d="m289.55 204.26c-1.3 17.75-2.59 35.3-3.93 53.64 2.63-.45 5.17-.64 7.56-1.35 6.68-2 13.3-4.18 19.92-6.35 6.75-2.21 13.27-2.67 19.59 1.48 6.11 4.01 12.62 7.44 18.52 11.73 5.25 3.82 5.83 9.26 1.38 13.78-12.07 12.27-16.89 27.91-21.52 44.01 2.13 1.58 4.46 2.93 6.28 4.78 1.28 1.3 3 3.83 2.51 4.83-.75 1.52-3.14 2.84-4.99 3.09-5.1.68-10.29.58-15.41 1.12-20.96 2.23-41.9 4.59-62.86 6.87-1.63.18-3.29.02-5.12.02-.72 3.13-1.26 6.38-2.22 9.5-1.42 4.63-3.22 5.01-6.42 1.5-4.9-5.36-6.95-11.88-8.02-18.96-2.48-16.4-4.98-32.8-8.05-49.09-1.22-6.47-4.13-12.6-5.96-18.97-.6-2.08-.88-4.78-.01-6.54.46-.93 3.86-.98 5.72-.53 4.82 1.17 9.43 3.43 14.28 4.13 4.8.69 9.82.25 14.71-.14 5.27-.42 10.5-1.35 16.43-2.15 0-4.99.07-9.78-.01-14.57-.35-21.81-.68-43.61-1.15-65.42-.13-5.98-.8-11.94-1.06-17.92-.31-7.11-3.66-12.95-7.09-18.9-1.15-1.99-1.85-5.48-.84-7.12 1.04-1.7 4.48-2.95 6.71-2.73 9.52.95 17.78 5.39 25.12 11.22 1.59 1.26 1.96 5.03 1.68 7.5-1.47 12.68-3.34 25.31-5.04 37.96-.06.43.25.91.45 1.58 12.14-.53 23.47-4.03 34.64-8.32 9.09-3.49 18.28-3.42 27.21.31 1.93.81 3.81 3.28 4.31 5.33.29 1.16-2.03 4.04-3.58 4.41-17.88 4.23-35.24 11.1-53.97 11.14-3.12.01-6.23-.54-9.77-.87zm-39.33 123.14c.95.25 1.44.55 1.87.47 19.57-3.56 39.14-7.09 58.68-10.85 1.18-.23 2.7-2.05 2.93-3.33 2.09-11.75 4.56-23.49 5.61-35.34.65-7.26-1.5-12.35-10.4-11.33-5.44.63-10.87 1.32-16.29 2.09-15.72 2.23-31.42 4.5-47.95 6.88 1.83 16.98 3.69 34.24 5.55 51.41z" fill="#010104"/><path d="m276.73 103.73c-11.15-16.06-22.24-31.8-32.99-47.76-1.76-2.61-3.8-7.91-2.72-9.01 3.21-3.26 6.83.35 9.6 2.27 9.55 6.62 19.15 13.24 28.07 20.66 9.05 7.52 15.15 16.88 11.51 30.73 8.14-2.26 15.34-4 22.36-6.28 9.38-3.04 18.69-3.45 27.65.74 2.98 1.39 5.08 4.66 7.59 7.07-2.85 2-5.46 5.18-8.6 5.82-18.04 3.71-36.19 6.95-54.34 10.11-17.15 2.98-34.35 5.69-51.54 8.43-3.41.54-6.89.66-10.02.94-.79 6.23-1.8 12.23-2.28 18.26-1.12 14.08-1.67 28.21-3.02 42.26-4.22 44.04-12.96 86.84-37.73 124.59-6.07 9.26-13.85 17.4-20.87 26.03-.62.76-1.37 1.57-2.24 1.96-1.82.81-3.77 1.36-5.66 2.01.26-2.01-.01-4.29.87-5.97 3.76-7.22 7.86-14.27 11.83-21.39 16.54-29.62 26.35-61.45 31.82-94.83 4.5-27.44 4.26-55.05 3.69-82.66-.1-4.69-3.3-9.54-5.82-13.87-1.6-2.74-2.75-5.31-.74-7.65 1.21-1.41 3.85-2.08 5.9-2.19 26.4-1.39 52.47-5.09 77.68-10.27z" fill="#010104"/><path d="m91.73 326.21c-8.43-6.22-11.95-13.26-12.75-21.68-1.75-18.44-5.12-36.48-12.4-53.63-.52-1.22-1.03-2.47-1.29-3.76-.7-3.48 1.18-5.48 4.65-5 .98.14 1.95.44 2.91.7 20.85 5.72 39.46-1.57 57.54-10.47 6.25-3.08 11.46-3.55 17.26.19 4.61 2.97 9.43 5.6 14.1 8.48 5.1 3.15 6.27 6.71 2.65 11.61-8.82 11.93-11.7 25.87-14.34 39.92-.31 1.63.99 3.62 1.69 5.38.63 1.59 2.49 3.83 2.01 4.49-.99 1.36-3.1 2.42-4.86 2.63-12.36 1.47-24.77 2.59-37.13 4.05-5.57.66-11.07 1.85-16.64 2.81-1.02 4.25-2.06 8.62-3.4 14.28zm2.3-27.73c.95.28 1.29.51 1.56.44 11.59-2.77 23.18-5.52 34.72-8.47.91-.23 1.95-1.85 2.09-2.93 1.25-9.7 2.71-19.41 3.29-29.16.44-7.45-2.08-10.02-9.52-9.19-11.34 1.27-22.58 3.54-33.82 5.61-.78.14-1.79 2.26-1.71 3.38 1.02 13.39 2.22 26.77 3.39 40.32z" fill="#010104"/><path d="m118.95 106.97c-7.93-15.69-15.92-31.16-23.51-46.82-1.37-2.83-2.66-8.19-1.33-9.38 3.47-3.07 6.66 1 9.27 3.19 7.25 6.1 14.43 12.31 21.19 18.93 8.43 8.25 15.18 17.46 11.92 31.28 5.5-1.06 10.13-1.86 14.72-2.84 7.52-1.61 14.67-.53 21.02 3.65 2.1 1.38 3.17 4.33 4.71 6.57-2.16 1.22-4.22 3.23-6.5 3.53-31.64 4.22-62.76 10.55-93.21 20.33-11.05 3.55-21.42.12-29.95-7.7-1.53-1.4-2.86-5.01-2.1-6.43.94-1.75 4.07-2.86 6.41-3.24 22.08-3.63 44.2-7.04 66.3-10.55.6-.11 1.14-.56 1.06-.52z" fill="#010104"/><path d="m73.25 159.08c5.31-.69 10.7-1.03 15.92-2.13 14.05-2.97 28.14-5.86 42-9.59 9.15-2.46 17.74-2.37 26.03 2.03 1.8.96 3.66 3.63 3.68 5.52.01 1.36-2.81 3.61-4.68 3.99-18.49 3.85-36.98 7.83-55.62 10.86-10.27 1.67-20.15-.38-27.41-8.87.02-.61.05-1.21.08-1.81z" fill="#010104"/><path d="m73.38 200.06c6.12-.83 10.8-1.15 15.34-2.13 13.75-2.97 27.56-5.75 41.11-9.46 9.13-2.5 17.71-2.63 26.07 1.73 1.76.92 4.12 3.64 3.79 4.91-.49 1.88-2.91 4.19-4.88 4.61-18.32 3.94-36.65 7.86-55.12 11.01-7.45 1.27-14.93-.63-21.23-5.38-1.49-1.12-2.63-2.7-5.08-5.29z" fill="#010104"/></svg>