<svg enable-background="new 0 0 400 400" viewBox="0 0 400 400" xmlns="http://www.w3.org/2000/svg"><g fill="#fafbfa"><path d="m342.2 3.2-6.3 9.2h6.1v1.2h-8.2v-.5l6.2-9.1h-5.7v-1.2h7.8v.4z"/><path d="m344 13.7v-10.9h3.1c1.6 0 3 .5 4.1 1.4 1.1 1 1.6 2.2 1.6 3.9s-.5 3-1.6 4-2.5 1.5-4.2 1.5h-3zm1.4-9.6v8.4h1.6c1.4 0 2.5-.4 3.2-1.1.8-.8 1.2-1.8 1.2-3.2s-.4-2.4-1.2-3.1-1.8-1-3.1-1z"/><path d="m356.3 2.8v10.9h-1.4v-10.9z"/><path d="m366.6 13.2c-.8.4-1.8.6-3 .6-1.6 0-2.8-.5-3.7-1.5s-1.4-2.3-1.4-3.9c0-1.7.5-3.2 1.6-4.2s2.4-1.6 4-1.6c1 0 1.9.1 2.6.4v1.5c-.8-.4-1.6-.6-2.6-.6-1.2 0-2.2.4-3 1.2s-1.1 1.9-1.1 3.3c0 1.3.4 2.3 1.1 3.1s1.6 1.1 2.8 1.1c1.1 0 2-.2 2.8-.7v1.3z"/><path d="m368.2 13c0-.3.1-.5.3-.6.2-.2.4-.3.6-.3.3 0 .5.1.7.3s.3.4.3.6-.1.5-.3.6c-.2.2-.4.3-.7.3s-.5-.1-.6-.3c-.2-.2-.3-.4-.3-.6z"/><path d="m381.1 13.7h-1.7l-5.5-8.4c-.2-.2-.3-.5-.4-.7 0 .2.1.8.1 1.5v7.6h-1.4v-10.9h1.8l5.3 8.3c.3.4.4.6.4.8 0-.3-.1-.8-.1-1.6v-7.5h1.4v10.9z"/><path d="m389.7 13.7h-5.8v-10.9h5.6v1.2h-4.2v3.5h3.9v1.2h-3.9v3.7h4.4z"/><path d="m398.4 4.1h-3.1v9.6h-1.4v-9.6h-3.1v-1.3h7.7v1.3z"/></g><path d="m246.47 300.79c0-25.68 0-50.9 0-76.53-7.7 1.54-14.92 3.44-22.27 4.36-10.75 1.35-21.33.69-30.38-6.4-1.7-1.33-3.04-3.11-5.43-5.61 3.4-.74 5.4-1.33 7.45-1.6 15.79-2.07 31.59-4.12 47.4-6.05 2.69-.33 3.7-1.36 3.63-4.12-.39-16.47.03-33-1.25-49.4-.55-6.99-4.46-13.75-7.11-20.51-.29-.74-2.4-1.21-3.59-1.08-9.54.99-19.04 2.61-28.6 3.09-6.73.34-13.16-1.9-18.42-6.49-1.56-1.36-2.78-3.09-5.27-5.9 13.68-1.48 25.96-2.46 38.13-4.22 12.26-1.77 24.4-4.33 35.89-6.41-9.36-13.89-18.57-27.38-27.57-41.02-3.29-4.99-6.2-10.24-8.94-15.55-.69-1.33-.71-4.15.13-4.84 1.05-.86 3.69-.86 5.01-.11 14.85 8.44 28.68 18.31 39.41 31.77 6.12 7.68 5.87 16.63 2.43 26.9 9.5-2.71 18.45-4.87 27.13-7.84 9.62-3.29 18.92-3.07 28.28.53 1.23.47 2.79.78 3.55 1.69 1.58 1.91 3.81 4.22 3.73 6.28-.07 1.67-2.9 4.17-4.9 4.66-11.44 2.78-22.96 5.26-34.51 7.48-12.05 2.32-24.17 4.25-37.25 6.52 3.87 3.08 7 5.81 10.38 8.19 4.25 2.98 4.9 6.95 4.6 11.78-.89 14.26-1.43 28.54-2.11 42.81-.15 3.12-.32 6.24-.53 10.26 5.39-1.46 10.24-2.75 15.09-4.08 5.91-1.62 11.77-3.52 17.74-4.85 8.17-1.83 15.86.37 22.97 4.25 2.04 1.11 4.86 4.51 4.39 5.7-.92 2.33-3.63 4.83-6.08 5.5-7.81 2.14-15.82 3.58-23.79 5.11-9.3 1.78-18.64 3.31-27.92 5.15-1.06.21-2.66 1.69-2.67 2.61-.46 24.64-.76 49.28-1.05 73.92 0 .29.29.58.72 1.38 17.17-2.81 34.55-5.52 51.87-8.57 6.95-1.22 13.7-1.12 19.88 2.24 5.81 3.16 11.42 6.79 16.69 10.78 1.77 1.34 3.62 5 2.96 6.54-.83 1.95-4.07 3.16-6.5 4.04-1.79.64-3.95.21-5.95.26-25.29.59-50.66.05-75.84 2.08-24.78 2-49.33 6.66-74 10.03-9.93 1.36-18.4-1.59-24.83-9.5-2.39-2.95-1.62-4.66 2.35-5.17 15.81-2.04 31.64-3.92 47.44-6 9.15-1.2 18.29-2.69 27.51-4.06z" fill="#010104"/><path d="m98.73 251.78c4.49 3.74 8.63 6.55 11.83 10.18 1.29 1.47 1.68 5.73.54 7.05-10.87 12.55-21.45 25.5-33.58 36.75-7.38 6.85-17.28 11-26.17 16.16-1.67.97-3.9.97-5.88 1.42-.18-.38-.36-.76-.54-1.15 3.25-2.99 6.53-5.95 9.74-8.98 14.52-13.72 27.66-28.41 33.6-48.12.48-1.58 1.04-3.18 1.22-4.81.44-4.09-.27-7.42-5.6-6.89-1.37 2.25-2.59 4.62-4.14 6.74-2.12 2.9-4.94 2.84-6.31-.27-4.09-9.26-8.95-17.97-6.12-29.32 2.91-11.65 3.98-23.93 4.44-35.99.84-21.79.69-43.62.81-65.44.04-6.64.32-13.42-.85-19.9-.98-5.39-3.61-10.59-6.1-15.58-2.43-4.87-1.11-8.24 4.32-7.53 4.2.55 8.78 2.46 12.02 5.17 5.65 4.73 11.07 4.84 17.32 2.07 7.29-3.23 14.97-5.71 21.93-9.52 8.59-4.71 16.9-5.46 25.76-1.42 3.48 1.58 7.08 2.89 10.54 4.51 3.64 1.7 5.51 4.65 3.71 8.48-8.9 19-5.69 39.21-5.9 59.01-.17 15.47.59 30.95 1.15 46.42.37 10.3 1.2 20.58 1.69 30.87.43 8.89-.6 17.61-3.99 25.92-1 2.45-2.14 4.88-3.58 7.09-3.57 5.47-5.79 5.69-9.81.68-3.53-4.4-6.5-9.25-9.98-13.71-.95-1.21-2.86-2.5-4.24-2.41-9.26.64-18.47 1.64-27.83 2.52zm39.25-113.1c.26-.83.53-1.3.52-1.76-.16-8.96-.24-17.92-.57-26.87-.52-14.23-5.83-17.5-19.34-12.73-8.38 2.96-17.03 5.12-25.5 7.83-1.13.36-2.59 1.75-2.73 2.81-1.78 13.39-3.35 26.81-5.07 41.07 18.45-4.38 34.12-15.13 52.69-10.35zm-52.47 103.52c5.13-.63 9.9-.96 14.58-1.84 10.6-1.98 21.09-4.62 31.75-6.15 4.08-.59 4.99-2.12 5-5.52.02-6.66.03-13.33.2-19.98.1-4.05.51-8.1.8-12.48-17.98 2.32-35.12 4.53-52.33 6.75zm.23-48.4c17.14-4.52 33.28-13.83 52.32-8.53 0-12.11 0-23.94 0-36.12-17.54 2.89-34.6 5.69-52.32 8.61z" fill="#010104"/><path d="m156.78 303.77c-.82 3.43-1.13 6.64-2.36 9.43-2.15 4.84-6.97 5.64-10.31 1.54-3.34-4.09-6.24-8.61-8.79-13.24-4.94-9-9.52-18.21-14.18-27.36-.66-1.3-1.1-2.8-1.3-4.25-.46-3.42.87-5.1 4.19-3.06 11.82 7.28 22.97 15.42 30.13 27.7 1.57 2.71 1.8 6.21 2.62 9.24z" fill="#010104"/></svg>