<svg enable-background="new 0 0 400 400" viewBox="0 0 400 400" xmlns="http://www.w3.org/2000/svg"><path d="m342.2 3.2-6.3 9.2h6.1v1.2h-8.2v-.5l6.2-9.1h-5.7v-1.2h7.8v.4z" fill="#fafbfa"/><path d="m344 13.7v-10.9h3.1c1.6 0 3 .5 4.1 1.4 1.1 1 1.6 2.2 1.6 3.9s-.5 3-1.6 4-2.5 1.5-4.2 1.5h-3zm1.4-9.6v8.4h1.6c1.4 0 2.5-.4 3.2-1.1.8-.8 1.2-1.8 1.2-3.2s-.4-2.4-1.2-3.1-1.8-1-3.1-1z" fill="#fafbfa"/><path d="m356.3 2.8v10.9h-1.4v-10.9z" fill="#fafbfa"/><path d="m366.6 13.2c-.8.4-1.8.6-3 .6-1.6 0-2.8-.5-3.7-1.5s-1.4-2.3-1.4-3.9c0-1.7.5-3.2 1.6-4.2s2.4-1.6 4-1.6c1 0 1.9.1 2.6.4v1.5c-.8-.4-1.6-.6-2.6-.6-1.2 0-2.2.4-3 1.2s-1.1 1.9-1.1 3.3c0 1.3.4 2.3 1.1 3.1s1.6 1.1 2.8 1.1c1.1 0 2-.2 2.8-.7v1.3z" fill="#fafbfa"/><path d="m368.2 13c0-.3.1-.5.3-.6.2-.2.4-.3.6-.3.3 0 .5.1.7.3s.3.4.3.6-.1.5-.3.6c-.2.2-.4.3-.7.3s-.5-.1-.6-.3c-.2-.2-.3-.4-.3-.6z" fill="#fafbfa"/><path d="m381.1 13.7h-1.7l-5.5-8.4c-.2-.2-.3-.5-.4-.7 0 .2.1.8.1 1.5v7.6h-1.4v-10.9h1.8l5.3 8.3c.3.4.4.6.4.8 0-.3-.1-.8-.1-1.6v-7.5h1.4v10.9z" fill="#fafbfa"/><path d="m389.7 13.7h-5.8v-10.9h5.6v1.2h-4.2v3.5h3.9v1.2h-3.9v3.7h4.4z" fill="#fafbfa"/><path d="m398.4 4.1h-3.1v9.6h-1.4v-9.6h-3.1v-1.3h7.7v1.3z" fill="#fafbfa"/><g fill="#010104"><path d="m128.49 100.28c2.34-.52 4.17-1.21 6.03-1.3 28.7-1.34 56.66-6.69 83.93-15.6 8.76-2.86 17.28-3.52 25.63.58 2.3 1.13 3.91 3.68 5.83 5.58-2.17 1.81-4.1 4.73-6.54 5.26-14.27 3.07-28.66 5.59-43.02 8.27-11.25 2.1-22.52 4.15-34.77 6.4 6.9 7.19 1.54 14.62 1.23 21.9-.45 10.61-2.31 21.17-2.61 31.77-.61 21.46-.83 42.94-.7 64.42.08 14.63.92 29.26 1.61 43.88.38 7.93 6.41 14.12 14.5 13.36 11.68-1.1 23.23-3.53 34.82-5.47 1.11-.18 2.26-.74 3.16-1.43 9.4-7.2 18.3-3.45 26.84 1.56 1.87 1.09 3.39 4.23 3.43 6.45.02 1.44-2.72 3.78-4.6 4.26-9.93 2.54-19.87 5.46-30 6.62-11.69 1.34-23.59 1.42-35.38 1.24-17.77-.28-28-11.08-27.85-28.84.22-25.81.73-51.62.94-77.43.14-17.62.37-35.26-.22-52.86-.28-8.39-2.2-16.75-3.82-25.03-.29-1.47-2.51-3.19-4.16-3.66-5.68-1.63-10.86-3.73-14.28-9.93z"/><path d="m106.14 286.65c11.83-2.14 21.86-8.51 33.25-9.58.31.57.63 1.14.94 1.71-1.86 1.95-3.4 4.44-5.63 5.75-11.74 6.88-23.76 13.28-35.46 20.22-9.55 5.66-18.83 11.78-28.13 17.85-3 1.96-5.84 3.14-9.23 1.23-5.64-3.18-11.55-5.99-16.78-9.75-1.88-1.35-2.58-4.95-2.81-7.61-.06-.71 3.53-2.05 5.57-2.58 9.77-2.54 19.61-4.78 29.36-7.37 4.93-1.31 9.71-3.17 14.08-4.62 0-21.04 0-41.65 0-62.72-13.3 2.71-26.23 7.83-37.37-2.63-.03-.66-.06-1.32-.08-1.99 4.27-.87 8.57-1.6 12.79-2.63 6.92-1.7 13.79-3.63 20.69-5.41 2.64-.68 3.62-2.12 3.59-4.99-.08-8-.03-15.88-3.81-23.36-1.63-3.22-2.89-4.31-6.7-3.55-6.34 1.26-12.94 1.98-18.82-2.08-1.3-.9-2.52-1.9-4.62-3.5 2.41-.96 3.82-1.81 5.33-2.08 15.18-2.65 29.38-8.16 43.23-14.68 7.09-3.33 14.51-3.57 21.88-1.56 1.96.54 3.4 3.01 5.07 4.6-1.61 1.61-2.94 4-4.88 4.7-9.04 3.27-18.25 6.06-27.39 9.06-1.39.46-2.74 1.06-5.61 2.19 13.77 5.1 16.54 14.67 12.31 27.68 8.44-3.81 15.9-4.19 23.49-2.09.95.26 2.07.44 2.75 1.05 1.4 1.26 3.57 2.83 3.52 4.21-.05 1.4-2.14 3.42-3.75 3.96-6.92 2.3-13.94 4.32-21.02 6.1-3.57.9-4.93 2.37-4.94 6.34-.03 17.8-.5 35.61-.8 53.41-.04 1.46-.02 2.94-.02 4.72z"/><path d="m373.96 323.17c-1.89.3-3.77.79-5.67.87-9.97.38-19.94.7-29.92.94-6.07.14-9.96-3.58-12.78-8.27-6.52-10.82-13.01-21.67-19-32.79-6.37-11.82-12.15-23.95-18.69-36.96-1.45 5.4-2.6 9.87-3.86 14.31-8.17 28.81-25.72 49.96-52.36 63.47-3.27 1.66-7.27 1.88-10.93 2.76-.35-.68-.7-1.36-1.05-2.04 1.75-1.78 3.32-3.79 5.27-5.3 22.81-17.61 38.37-40.21 44.91-68.25 2.96-12.68 3.58-25.94 4.88-38.97.79-7.93 1.39-15.96 1.05-23.91-.21-4.98-2.37-9.86-3.53-14.82-.5-2.14-.69-4.35-1.03-6.52 2.23-.2 4.75-1.17 6.64-.46 5.59 2.07 11.01 4.63 16.34 7.31 4.28 2.15 4.6 6.1 3.91 10.35-2.45 15.22-4.86 30.45-7.2 45.69-.21 1.35-.19 3.08.48 4.17 13.58 22 27.87 43.6 47.31 60.88 9.25 8.23 20.36 14.35 30.57 21.51 1.83 1.29 3.36 3 5.03 4.52-.12.51-.24 1.01-.37 1.51z"/><path d="m302.56 179.42c.79-2.23 1.47-4.52 2.4-6.69 3.38-7.9 7.23-15.62 10.13-23.69 1.94-5.4-1.62-9.04-7.06-7.49-9.55 2.72-19.02 5.8-28.38 9.11-4.28 1.51-8.22 3.42-12.95 1.7-.81-.29-2.78 1.19-3.5 2.31-4.12 6.44-7.83 13.15-12.11 19.47-1.72 2.54-4.54 4.34-6.86 6.48-.64-.38-1.27-.76-1.91-1.14.74-2.87 1.25-5.82 2.24-8.61 6.49-18.27 13.73-36.31 19.42-54.82 3.73-12.13 5.43-24.9 7.71-37.45 1.23-6.74.14-13.16-4.13-18.95-1.17-1.59-1.95-4.84-1.1-6.17.96-1.5 4.27-2.75 6.03-2.25 7.27 2.06 14.48 4.52 21.44 7.46 3.68 1.55 5.23 5.12 3.82 9.22-4.95 14.42-9.87 28.85-15.02 43.2-3.3 9.2-6.98 18.27-10.85 28.32 7.42-1.76 14.63-3.16 21.64-5.21 7.31-2.14 14.59-4.54 21.6-7.51 4.69-1.99 8.94-2.3 13.35 0 7.06 3.69 14.27 7.15 21.01 11.35 6.47 4.02 5.58 6.8-.7 10.94-13.71 9.04-26.94 18.81-40.36 28.29-1.43 1.01-2.87 2.03-4.3 3.04-.53-.29-1.04-.6-1.56-.91z"/><path d="m102.43 103.38c8.47 4.53 16.33 8.41 23.85 12.84 7.06 4.16 11.14 10.55 10.64 18.96-.15 2.55-1.4 6.4-3.19 7.14-2.11.88-6.15-.09-7.98-1.76-8.6-7.84-16.74-16.18-25-24.38-.81-.8-1.32-1.89-2.39-3.45-5.33 9.27-9.82 17.7-14.88 25.78-13.34 21.33-27.34 42.19-46.79 58.63-2.45 2.07-5.61 3.3-8.45 4.91-.48-.52-.97-1.04-1.45-1.55 1.15-2.21 2.07-4.59 3.49-6.61 21.55-30.68 41.48-62.22 54.01-97.92 3.39-9.67 5.92-18.8.88-28.74-2.14-4.21.29-7.04 4.97-6.24 10.42 1.77 18.84 7.35 25.58 15.28 2.83 3.33 1.13 6.75-1.24 9.96-4.21 5.7-8.16 11.58-12.05 17.15z"/><path d="m194.77 186.53c-6.03-2.38-8.59-7.07-9.59-12.25-2.64-13.76-6.27-27.15-12.35-39.81-1.5-3.13-.73-4.85 2.97-4.57 1.82.13 3.79.01 5.41.67 6.41 2.62 12.29 1.08 18.1-1.79 2.24-1.11 4.84-1.77 6.69-3.32 12.16-10.23 22.96-3.65 33.77 2.54 4 2.29 4.54 5.85 1.65 9.24-6.06 7.09-8.61 15.64-10.73 24.38-.33 1.35-.03 3.23.72 4.39 2.39 3.71 2.19 4.33-2.48 5.16-10.76 1.92-21.51 3.86-32.22 5.78-.68 3.32-1.26 6.19-1.94 9.58zm.51-17.52c7.46-2.81 13.95-5.18 20.35-7.76.85-.34 1.73-1.71 1.82-2.67.6-6.44 1.31-12.9 1.33-19.35.02-4.3-2.44-5.65-6.67-4.49-6.07 1.66-12.16 3.27-18.12 5.26-1.18.39-2.73 2.5-2.59 3.62 1 8.02 2.39 15.99 3.88 25.39z"/><path d="m211.67 197.72c2.03.21 3.35 0 4.29.5 8.27 4.38 14.43-.32 20.05-5.14 3.85-3.3 7.39-4.04 11.81-2.22 3.23 1.33 6.5 2.57 9.67 4.01 5.06 2.29 6.26 5.26 3.24 9.8-5.08 7.62-6.27 16.29-7.7 24.97-.47 2.87-.34 5.07 2.86 6.33.96.38 1.46 1.92 2.17 2.93-1.13.76-2.16 1.9-3.4 2.21-8.67 2.12-17.39 4.07-25.86 6.02-.78 2.72-1.45 5.03-2.26 7.86-5.83-3.13-6.72-8.11-7.58-13.16-2.18-12.71-4.42-25.42-6.6-38.13-.3-1.76-.41-3.54-.69-5.98zm17.3 41.2c4.39-3.05 9.85-4.8 10.75-7.88 2.19-7.48 2.38-15.58 3.05-23.45.09-1.1-1.74-3.43-2.5-3.35-4.22.42-8.63.86-12.43 2.54-1.16.51-.65 4.96-.78 7.62-.08 1.65-.02 3.32.12 4.97.53 6.04 1.11 12.07 1.79 19.55z"/><path d="m183.44 255.21c-.63 2.54-1.3 5.2-2.15 8.6-5.27-2.99-6.54-7.48-7.39-12.14-1.73-9.44-3.15-18.95-5.11-28.34-.87-4.18-2.6-8.22-4.22-12.21-1.32-3.25-.13-4.89 2.93-4.04 8.89 2.45 15.24-1.89 21.81-6.8 1.97-1.47 5.53-1.84 8.05-1.28 3.82.84 7.34 2.98 11.02 4.48 4.35 1.77 4.78 4.86 2.58 8.42-5.46 8.85-6.32 18.75-6.9 28.73-.08 1.41-.05 3.24.74 4.23 2.61 3.28.63 4.45-2.12 5.22-6.36 1.77-12.78 3.41-19.24 5.13zm-1.33-9.3c3.47-1.55 6.35-2.73 9.12-4.13.73-.37 1.54-1.42 1.58-2.19.46-8.1.95-16.2.92-24.3-.01-1.28-2.87-3.83-3.94-3.6-3.87.84-8.71-.51-11.28 4-.07.12.03.32.05.49 1.17 9.78 2.34 19.57 3.55 29.73z"/><path d="m80.7 276.33c-.46 2.41-.55 4.28-1.19 5.95-1.61 4.14-5.61 5.36-8.05 1.9-7.7-10.97-14.85-22.33-22.08-33.62-.45-.71-.22-2.56.38-3.06.69-.58 2.43-.71 3.21-.23 9.61 5.93 19.61 11.5 25.73 21.49 1.4 2.26 1.46 5.34 2 7.57z"/><path d="m124.99 241.57c0-1.96.03-2.46 0-2.95-.44-6.74 2.24-8.7 8.8-6.43.62.22 1.21.55 1.8.85 10.78 5.46 11.14 7.95 2.53 15.92-6.46 5.98-12.72 12.16-19.22 18.1-.99.9-2.75.96-4.15 1.41.19-1.35.09-2.83.63-4.04 2.74-6.21 5.71-12.32 8.44-18.54.77-1.79 1.03-3.79 1.17-4.32z"/></g></svg>