<svg enable-background="new 0 0 400 400" viewBox="0 0 400 400" xmlns="http://www.w3.org/2000/svg"><g fill="#fafbfa"><path d="m342.2 3.2-6.3 9.2h6.1v1.2h-8.2v-.5l6.2-9.1h-5.7v-1.2h7.8v.4z"/><path d="m344 13.7v-10.9h3.1c1.6 0 3 .5 4.1 1.4 1.1 1 1.6 2.2 1.6 3.9s-.5 3-1.6 4-2.5 1.5-4.2 1.5h-3zm1.4-9.6v8.4h1.6c1.4 0 2.5-.4 3.2-1.1.8-.8 1.2-1.8 1.2-3.2s-.4-2.4-1.2-3.1-1.8-1-3.1-1z"/><path d="m356.3 2.8v10.9h-1.4v-10.9z"/><path d="m366.6 13.2c-.8.4-1.8.6-3 .6-1.6 0-2.8-.5-3.7-1.5s-1.4-2.3-1.4-3.9c0-1.7.5-3.2 1.6-4.2s2.4-1.6 4-1.6c1 0 1.9.1 2.6.4v1.5c-.8-.4-1.6-.6-2.6-.6-1.2 0-2.2.4-3 1.2s-1.1 1.9-1.1 3.3c0 1.3.4 2.3 1.1 3.1s1.6 1.1 2.8 1.1c1.1 0 2-.2 2.8-.7v1.3z"/><path d="m368.2 13c0-.3.1-.5.3-.6.2-.2.4-.3.6-.3.3 0 .5.1.7.3s.3.4.3.6-.1.5-.3.6c-.2.2-.4.3-.7.3s-.5-.1-.6-.3c-.2-.2-.3-.4-.3-.6z"/><path d="m381.1 13.7h-1.7l-5.5-8.4c-.2-.2-.3-.5-.4-.7 0 .2.1.8.1 1.5v7.6h-1.4v-10.9h1.8l5.3 8.3c.3.4.4.6.4.8 0-.3-.1-.8-.1-1.6v-7.5h1.4v10.9z"/><path d="m389.7 13.7h-5.8v-10.9h5.6v1.2h-4.2v3.5h3.9v1.2h-3.9v3.7h4.4z"/><path d="m398.4 4.1h-3.1v9.6h-1.4v-9.6h-3.1v-1.3h7.7v1.3z"/></g><path d="m190.94 99.73c-20.24 3.98-40.32 7.44-60.13 12.03-9.96 2.31-19.22 3.58-28.75-2.86-2.42 7.05-4.43 13.7-6.99 20.13-2.94 7.39-5.92 14.82-9.7 21.79-3.17 5.86-7.65 5.75-10.17-.35-2.36-5.69-3.56-12-4.3-18.15-.3-2.51 1.49-5.66 3.14-7.95 6.19-8.62 13.44-16.61 15.25-27.61.4-2.45.27-5.01.79-7.43.8-3.73 2.89-4.5 5.56-1.82 2.43 2.44 4.83 5.22 6.22 8.32 1.24 2.76 2.74 3.33 5.31 3.05 16.51-1.83 33.04-3.57 49.55-5.45 9.56-1.09 19.09-2.49 28.66-3.5 3.89-.41 6.48-.89 4.86-5.92-1.41-4.37-.58-10.69-3.37-13.03-2.56-2.15-8.61-.02-13.12.01-9.43.07-18.94.78-28.25-.26-7.2-.81-13.74-4.46-18.02-12.45 3.01-.28 5.22-.66 7.43-.67 29.83-.18 59.4-2.89 88.68-8.7 8.61-1.71 17.21-4.4 25.86-4.6 5.93-.14 12.09 2.89 17.82 5.27 1.95.81 4.25 4.15 3.98 5.98-.27 1.82-3.38 4.17-5.57 4.58-8.8 1.65-17.69 2.82-26.59 3.84-10.38 1.19-20.79 2.04-30.22 2.94-.43 6.94-.82 13.25-1.25 20.23 5.91-.48 12.01-.8 18.07-1.5 21.78-2.49 43.55-5.09 65.32-7.7 7.46-.9 13.8 1.27 19.13 6.51 6.29 6.19 12.63 12.33 18.85 18.59 1.48 1.49 2.56 3.38 4.63 6.18-5.48 1.7-10.03 3.56-14.77 4.48-12.74 2.47-24.33 7.73-35.62 13.84-.73.4-1.44 1.05-2.2 1.13-1.74.18-3.51.07-5.27.08.2-1.66-.05-3.56.68-4.93 3.29-6.15 6.93-12.12 10.3-18.23 4.44-8.03 1.77-12.62-7.65-12.53-9.81.1-19.63.53-29.41 1.28-13.09 1.01-26.13 2.6-39.21 3.63-3.55.28-4.42 1.6-4.34 4.91.42 17.31.69 34.62.93 51.93.12 9.09-1.63 17.84-5.92 25.91-3.19 6.02-4.67 5.8-8.4.28-6.46-9.58-5.88-19.79-4.59-30.65 1.83-15.47 2.38-31.09 3.42-46.66.05-.91-.29-1.86-.63-3.97z" fill="#010104"/><path d="m98.87 195.66c2.32-.57 4.61-1.36 6.96-1.66 17.53-2.21 34.84-5.02 50.26-14.64 4.68-2.92 9.6-1.94 14.09 1.1 4.41 2.98 8.81 5.97 13.19 8.98 6.27 4.3 6.84 8.44 1.52 13.88-6.19 6.34-9.85 14.01-13.07 22.16 1.68 1.34 3.31 2.29 4.45 3.65 1.06 1.26 2.53 3.36 2.11 4.37-.53 1.25-2.74 2.25-4.36 2.51-9.35 1.48-18.77 2.54-28.11 4.07-8.99 1.47-17.93 3.29-26.87 5.09-.92.18-2.08 1.09-2.41 1.94-2.02 5.26-3.89 10.57-5.69 15.91-1.7 5.05-.38 6.68 4.75 5.44 11.61-2.82 23.23-5.67 34.71-8.96 11.26-3.22 26.2 2.35 31.61 12.67.93 1.76.85 4.59.18 6.57-6.89 20.6-14.4 40.99-20.89 61.7-4.65 14.84-14.71 23.62-28.36 29.36-3.41 1.43-6.04.69-8.33-2.18-7.37-9.21-14.88-18.3-22.15-27.57-1.43-1.82-2.04-4.28-3.61-7.7 3.33.59 5.22.77 7.03 1.28 6.39 1.8 12.76 3.65 19.11 5.6 6.03 1.85 11.09.21 14.48-4.85 10.23-15.26 15.72-32.22 16.24-50.55.27-9.52-3.96-13.34-13.32-11.71-11.52 2.01-22.94 4.87-34.15 8.2-4.09 1.21-7.5 4.78-11.14 7.38-5.7 4.08-8.92 4.07-12.62-.19-5.14-5.93-5.07-9.31-.01-14.64 8.31-8.76 13.31-19.07 13.37-31.3.02-3.22-1.47-6.41-1.94-9.67-.23-1.62-.31-4.16.61-4.82 1.33-.95 3.93-1.28 5.41-.61 2.67 1.2 5.3 3.01 7.26 5.19 2.43 2.71 5.05 2.82 8.08 2.02 11.06-2.93 22.13-5.82 33.14-8.93 1.52-.43 3.46-1.8 3.91-3.16 1.96-5.98 3.65-12.06 5.04-18.2.92-4.06-1.07-6.76-5.36-6.28-8.72.99-17.36 2.64-26.08 3.62-6.84.78-13.77 1.49-20.61 1.18-2.99-.14-5.86-2.9-8.79-4.48.11-.59.24-1.18.36-1.77z" fill="#010104"/><path d="m296.02 302.28c-24.7 9.24-49.26 18.23-73.64 27.69-5.02 1.95-9.51 5.43-14.01 8.54-3.2 2.21-6.35 2.48-9.19.17-3.71-3.02-7.3-6.31-10.41-9.94-3.43-4-3.01-7.17.82-10.91 2.61-2.55 5.48-4.85 8.22-7.28 10.11-8.98 17.43-19.98 23.55-31.93 9.26-18.07 18.16-36.33 22.47-56.27 1.31-6.08.65-12.89-.49-19.11-1.59-8.66 1.55-12.68 9.95-10.05 6.93 2.17 13.67 5.17 20.14 8.49 5.77 2.95 6.17 5.89 2.97 11.36-14.19 24.24-28.39 48.48-42.53 72.75-3.42 5.88-6.67 11.88-9.81 17.92-.62 1.19-.94 3.25-.32 4.14.56.81 2.73 1.01 4.01.72 20.52-4.73 41-9.58 61.49-14.42.59-.14 1.15-.37 2.19-.7-4.21-7.37-8.51-14.28-12.12-21.54-1.36-2.72-1.57-6.25-1.47-9.39.09-2.63 2.08-3.3 4.19-1.38 15.25 13.89 31.15 27.21 42.92 44.39 6.14 8.96 5.97 19.12 3.29 29.29-1.02 3.87-3.09 8.12-7.19 7.79-2.89-.24-6.52-3.36-8.05-6.16-5.77-10.65-10.84-21.68-16.98-34.17z" fill="#010104"/><path d="m170.83 146.82c-3.43 2.93-6.63 6.19-10.33 8.71-9.07 6.15-19.27 10.94-27.31 18.18-7.34 6.61-13.17 6.54-20.46 1.49-2.58-1.79-5.9-2.73-8.02-4.9-1.58-1.62-2.31-4.59-2.31-6.96 0-.81 3.32-1.88 5.24-2.36 10.58-2.65 21.25-4.98 31.79-7.78 8.32-2.21 16.49-4.99 24.76-7.41 1.81-.53 3.74-.63 5.62-.92.34.65.68 1.3 1.02 1.95z" fill="#010104"/><path d="m228.61 139.66c11.77 1.49 22.84 2.6 33.81 4.35 11.15 1.78 17.1 9.52 20.18 19.7.52 1.73-.04 4.63-1.25 5.79-1.14 1.1-4.08 1.34-5.73.7-5.09-2-9.95-4.6-14.89-6.96-10.49-5.02-20.99-10.05-31.47-15.08-.89-.43-2.1-.71-2.55-1.44-.99-1.59-2.18-3.46-2.08-5.14.02-.8 2.86-1.43 3.98-1.92z" fill="#010104"/><path d="m222.79 131.03c1.8-2.33 2.7-3.74 3.84-4.92 4.17-4.29 8.59-8.34 12.57-12.79 1.69-1.89 2.96-4.44 3.64-6.9 1.31-4.78 3.57-6.55 7.58-3.85 3.55 2.39 6.24 6.14 9.02 9.53 1.22 1.49 1.82 3.53 2.53 5.39 1.81 4.74 1.04 6.29-3.93 7.36-9.87 2.13-19.77 4.16-29.67 6.15-1.24.25-2.58.03-5.58.03z" fill="#010104"/><path d="m127.74 116.75c7.08.88 13.23 1.28 19.22 2.49 6.7 1.35 12 5.11 14.24 11.84.68 2.05.7 5.46-.54 6.74-1.63 1.69-4.87 2.73-7.3 2.53-2.99-.24-6.11-1.63-8.74-3.24-6.21-3.81-12.31-7.85-18.11-12.24-1.49-1.13-2.18-3.9-2.26-5.96-.03-.78 2.66-1.68 3.49-2.16z" fill="#010104"/></svg>