<svg enable-background="new 0 0 400 400" viewBox="0 0 400 400" xmlns="http://www.w3.org/2000/svg"><g fill="#fafbfa"><path d="m342.2 3.2-6.3 9.2h6.1v1.2h-8.2v-.5l6.2-9.1h-5.7v-1.2h7.8v.4z"/><path d="m344 13.7v-10.9h3.1c1.6 0 3 .5 4.1 1.4 1.1 1 1.6 2.2 1.6 3.9s-.5 3-1.6 4-2.5 1.5-4.2 1.5h-3zm1.4-9.6v8.4h1.6c1.4 0 2.5-.4 3.2-1.1.8-.8 1.2-1.8 1.2-3.2s-.4-2.4-1.2-3.1-1.8-1-3.1-1z"/><path d="m356.3 2.8v10.9h-1.4v-10.9z"/><path d="m366.6 13.2c-.8.4-1.8.6-3 .6-1.6 0-2.8-.5-3.7-1.5s-1.4-2.3-1.4-3.9c0-1.7.5-3.2 1.6-4.2s2.4-1.6 4-1.6c1 0 1.9.1 2.6.4v1.5c-.8-.4-1.6-.6-2.6-.6-1.2 0-2.2.4-3 1.2s-1.1 1.9-1.1 3.3c0 1.3.4 2.3 1.1 3.1s1.6 1.1 2.8 1.1c1.1 0 2-.2 2.8-.7v1.3z"/><path d="m368.2 13c0-.3.1-.5.3-.6.2-.2.4-.3.6-.3.3 0 .5.1.7.3s.3.4.3.6-.1.5-.3.6c-.2.2-.4.3-.7.3s-.5-.1-.6-.3c-.2-.2-.3-.4-.3-.6z"/><path d="m381.1 13.7h-1.7l-5.5-8.4c-.2-.2-.3-.5-.4-.7 0 .2.1.8.1 1.5v7.6h-1.4v-10.9h1.8l5.3 8.3c.3.4.4.6.4.8 0-.3-.1-.8-.1-1.6v-7.5h1.4v10.9z"/><path d="m389.7 13.7h-5.8v-10.9h5.6v1.2h-4.2v3.5h3.9v1.2h-3.9v3.7h4.4z"/><path d="m398.4 4.1h-3.1v9.6h-1.4v-9.6h-3.1v-1.3h7.7v1.3z"/></g><path d="m234.44 232.53c-11.23 3.96-22.29 5.82-30.99 13.59-9.57 8.55-16.14 6.92-20-5.39-.98-3.13.36-7.41 1.69-10.73 1.97-4.91 6.08-9.19 7.08-14.18 1.19-5.95 1.13-12.63-.32-18.52-2.33-9.48-1.16-9.62 7.39-11.38 10.88-2.25 21.89-3.93 32.81-5.97 8.91-1.66 9.05-1.73 9.42-10.71.26-6.26.05-12.54.05-19.1-6.48 1.44-13.32 3.49-20.31 4.33-5.16.62-10.56.01-15.74-.79-1.76-.27-3.17-2.8-4.75-4.3 1.67-1.06 3.22-2.69 5.04-3.08 10.87-2.29 21.79-4.41 32.73-6.34 4.06-.71 5.41-2.53 5.14-6.68-.4-6.12-.1-12.28-.1-18.17-7.13.64-14.31 1.93-21.46 1.73-7.1-.21-13.93-2.35-19.21-9.75 4.57-.83 8.2-1.45 11.82-2.15 8.63-1.67 17.24-3.46 25.89-5.02 2.75-.5 3.26-1.91 3.37-4.45.49-12.06-1.54-23.46-7.62-34.08-1.01-1.77-1.57-4.92-.65-6.36.9-1.41 4.05-2.24 6.03-1.97 9.9 1.36 18.89 5.1 26.61 11.58 2.59 2.18 3.2 4.71 1.79 8-2.91 6.79-5.51 13.7-8.24 20.56.36.39.72.78 1.08 1.18 6.5-2.26 13.12-4.23 19.46-6.87 8.82-3.67 17.57-3.44 26.19-.05 2.25.88 3.76 3.66 5.61 5.56-1.91 1.77-3.56 4.53-5.79 5.14-14.4 3.91-28.91 7.43-43.43 10.88-3.24.77-5.14 1.55-5.18 5.62-.06 6.26-1.11 12.5-1.86 20.04 7.03-2.63 13.49-4.28 19.17-7.36 8.79-4.76 16.7-4.33 24.73 1.32 4.35 3.06 9.11 5.53 13.38 8.69 5.49 4.06 5.73 8.2.51 12.76-7.2 6.28-12.23 13.94-16.02 22.45.15.46.19.8.35 1.07 1.23 2 2.48 3.99 3.72 5.99-2.42.81-4.79 2.04-7.28 2.35-13.66 1.7-27.34 3.17-41.39 4.76-.63 9.96-1.21 19.32-1.85 29.47 7.82-1.63 15.26-2.96 22.59-4.76 10.14-2.48 20.14-5.55 30.32-7.83 3.17-.71 7.34-.74 10.01.77 7.06 3.98 13.58 8.93 20.26 13.58 2.82 1.97 3.26 4.8 1.23 7.38-9.45 12.03-12.15 26.75-16.65 40.77-2.49 7.74-7.61 13.12-15.14 16.19-4.08 1.66-7.05.25-9.36-3.26-5.65-8.58-11.36-17.12-16.99-25.71-1.09-1.66-1.9-3.5-2.85-5.26.33-.43.66-.85.99-1.28 5.11 1.59 10.21 3.2 15.32 4.75 12.18 3.69 9.73 3.41 13.62-6.59 2.01-5.18 3-10.85 3.74-16.4.82-6.15-2.76-10-9.23-9.37-9.73.95-19.39 2.66-29.03 4.33-5.71.99-11.33 2.55-17 3.78-2.58.56-3.4 1.99-4.1 4.64-1.73 6.55.5 11.26 4.72 16.07 14.04 16.01 27.13 32.93 41.91 48.21 8.9 9.2 19.91 16.55 30.66 23.72 9.51 6.35 20 11.21 29.96 16.91 1.77 1.01 3.04 2.89 4.55 4.37-.19.53-.39 1.06-.58 1.59-2.32.39-4.67 1.22-6.96 1.11-14.77-.73-29.52-1.71-44.29-2.51-7.48-.4-12.9-4.06-16.65-10.29-14.47-24.08-28.87-48.21-43.29-72.32-.91-1.53-1.72-3.12-2.79-5.09-2.58 8.82-4.49 17.17-7.44 25.13-9.21 24.86-25.01 44.13-49.29 55.7-7.68 3.66-15.69 6.07-25.9 3.92 2.85-2.35 4.69-4.06 6.73-5.51 13.51-9.55 26.23-20 36.53-33.08 12.64-16.06 19.49-34.59 23.01-54.52.69-3.99 1.56-7.98 2.52-12.81zm5.71-43.34c-10.69 2.34-20.21 4.43-30.69 6.72 4.64 3.93 4.04 7.24 2.41 11.21-2.06 5.01-3.47 10.32-4.76 15.6-1.01 4.17 1.13 6.14 5.24 5.01 7.49-2.07 14.91-4.41 22.31-6.8.86-.28 1.9-1.47 2.02-2.35 1.2-9.31 2.23-18.66 3.47-29.39zm15.57-14.76c4.27-.95 7.65-1.72 11.03-2.46 17.9-3.91 17.9-3.91 20.51-22.18.85-5.98-1.98-9-7.94-8.04-6.38 1.02-12.73 2.27-19.03 3.74-1.21.28-2.88 1.98-2.98 3.13-.7 8.26-1.06 16.54-1.59 25.81z" fill="#010104"/><path d="m111.86 180.58c-.34-5.78-.45-10.92-1.06-16-.18-1.46-1.8-2.74-2.75-4.11-1.04 1.12-2.1 2.21-3.11 3.36-.93 1.05-1.7 2.91-2.71 3.04-1.06.13-2.98-1.13-3.39-2.21-1.55-4.13-3-8.37-3.82-12.69-1.81-9.55-3.21-19.17-4.83-29.03-5.4 1.29-9.96 2.11-14.36 3.48-8.56 2.67-14.54-2.04-20.03-7.14-3.01-2.81.47-3.91 2.65-4.3 6.54-1.17 13.13-2.01 19.68-3.1 2.89-.48 5.72-1.26 8.84-1.96-3-11.68-4.74-23.29-15.71-32.3 4.24-1.62 7.25-3.93 9.79-3.5 6.41 1.08 12.76 3.02 18.78 5.49 1.53.63 2.28 4.49 2.4 6.92.32 6.56.11 13.15.11 20.63 10.68-2.18 20.05-4.17 29.45-5.96 3.07-.58 4.03-2.19 4.07-5.14.09-5.82 1.01-11.67.55-17.43-.35-4.5-2.46-8.84-3.4-13.33-.5-2.42-1.17-5.84.04-7.3 1.18-1.42 5.22-1.98 7.06-1.05 7.04 3.56 13.82 7.68 20.45 11.97 2.83 1.83 2.83 4.74 1.51 8.01-2.21 5.48-3.85 11.2-6.02 17.66 8.4-1.65 15.23.08 21.44 3.84 1.9 1.15 3.01 3.6 4.49 5.45-2.1 1.35-4.06 3.46-6.34 3.91-6.02 1.17-12.16 1.73-18.28 2.32-3.58.34-5.51 1.73-6.29 5.53-1.96 9.56-4.38 19.03-6.66 28.73 1.73 1.2 3.76 2.17 5.17 3.71 1.21 1.32 1.71 3.28 2.52 4.96-1.57.71-3.08 1.85-4.71 2.06-6.58.86-13.21 1.4-19.81 2.14-1.24.14-2.44.67-2.83.78 1.13 2.99 2.7 5.66 3.03 8.48.34 2.86-.55 5.87-1.04 10.02 7.44-2.74 14.15-4.84 20.52-7.68 5.88-2.62 11.15-2.6 16.47 1.09 4.64 3.22 9.62 5.98 14.07 9.43 4.44 3.45 4.52 7.81.08 11.35-9.15 7.3-13.49 17.48-17.92 28.01 1.05.87 2.23 1.54 2.98 2.53 1.11 1.48 1.92 3.2 2.86 4.81-1.82.98-3.54 2.55-5.47 2.85-10.01 1.57-20.05 2.95-30.11 4.1-3.2.37-4.24 1.58-4.14 4.73.2 6.13.06 12.27.06 19.01 9.41-2.19 18.22-4.37 27.09-6.24 6.65-1.4 12.91.48 18.56 3.83 1.63.97 2.81 3.72 2.94 5.73.06.96-2.72 2.72-4.42 3.06-12.52 2.49-25.07 4.88-37.67 6.94-4.9.8-6.88 2.51-6.64 7.94.73 16.95 1.46 33.96.83 50.89-.25 6.8-3.62 13.64-6.32 20.16-1.71 4.13-4.12 3.92-7.08.26-7.35-9.08-6.92-19.74-6.2-30.47.93-13.91 1.79-27.82 2.73-42.61-8.23 2.63-15.79 5-23.32 7.48-3.94 1.3-7.88 2.62-11.7 4.21-11.2 4.66-21.25 1.95-30.4-4.97-1.79-1.35-3.36-4.48-3.09-6.54.18-1.41 3.59-3.03 5.77-3.46 19.35-3.88 38.75-7.56 58.15-11.19 3.83-.72 5.67-2.18 5.31-6.55-.48-5.77-.12-11.62-.12-18.2-6.83 1.52-14.09 3.13-22.23 4.95.51-.62.23-.4.11-.11-.72 1.74-1.4 3.5-2.1 5.26-1.79-1.03-4.25-1.63-5.25-3.17-2.4-3.68-4.55-7.64-6.03-11.76-4.74-13.24-9.16-26.59-13.61-39.92-.65-1.94-.73-4.06-1.07-6.1 2.04-.19 4.18-.88 6.1-.5 15.46 3.01 29.86-2.21 45.38-5.09zm-.29 9.45c-10.4 2.34-19.86 4.46-30.01 6.75 2.03 11.1 4.04 22.08 6.16 33.64 7.69-1.89 14.59-3.48 21.41-5.37 1.01-.28 2.31-1.95 2.32-2.99.19-10.46.12-20.92.12-32.03zm-5.92-39.85c5.94-1.55 10.99-3.27 16.18-4.11 6.28-1.01 9.89-3.29 9.84-10.54-.05-6.99 1.34-13.99 2.17-21.64-9.22 1.84-17.69 3.4-26.07 5.33-1.44.33-3.6 2.28-3.57 3.44.21 8.94.88 17.87 1.45 27.52zm21.25 35.98v34.59c6.39-1.94 13.56-2.7 18.89-6.25 3.17-2.11 3.55-8.54 4.98-13.1 1.04-3.31 1.83-6.71 2.6-10.1 1.37-6.03-1.64-9.5-7.73-8.59-6.04.9-12.01 2.19-18.74 3.45z" fill="#010104"/></svg>