<svg enable-background="new 0 0 400 400" viewBox="0 0 400 400" xmlns="http://www.w3.org/2000/svg"><g fill="#fafbfa"><path d="m342.2 3.2-6.3 9.2h6.1v1.2h-8.2v-.5l6.2-9.1h-5.7v-1.2h7.8v.4z"/><path d="m344 13.7v-10.9h3.1c1.6 0 3 .5 4.1 1.4 1.1 1 1.6 2.2 1.6 3.9s-.5 3-1.6 4-2.5 1.5-4.2 1.5h-3zm1.4-9.6v8.4h1.6c1.4 0 2.5-.4 3.2-1.1.8-.8 1.2-1.8 1.2-3.2s-.4-2.4-1.2-3.1-1.8-1-3.1-1z"/><path d="m356.3 2.8v10.9h-1.4v-10.9z"/><path d="m366.6 13.2c-.8.4-1.8.6-3 .6-1.6 0-2.8-.5-3.7-1.5s-1.4-2.3-1.4-3.9c0-1.7.5-3.2 1.6-4.2s2.4-1.6 4-1.6c1 0 1.9.1 2.6.4v1.5c-.8-.4-1.6-.6-2.6-.6-1.2 0-2.2.4-3 1.2s-1.1 1.9-1.1 3.3c0 1.3.4 2.3 1.1 3.1s1.6 1.1 2.8 1.1c1.1 0 2-.2 2.8-.7v1.3z"/><path d="m368.2 13c0-.3.1-.5.3-.6.2-.2.4-.3.6-.3.3 0 .5.1.7.3s.3.4.3.6-.1.5-.3.6c-.2.2-.4.3-.7.3s-.5-.1-.6-.3c-.2-.2-.3-.4-.3-.6z"/><path d="m381.1 13.7h-1.7l-5.5-8.4c-.2-.2-.3-.5-.4-.7 0 .2.1.8.1 1.5v7.6h-1.4v-10.9h1.8l5.3 8.3c.3.4.4.6.4.8 0-.3-.1-.8-.1-1.6v-7.5h1.4v10.9z"/><path d="m389.7 13.7h-5.8v-10.9h5.6v1.2h-4.2v3.5h3.9v1.2h-3.9v3.7h4.4z"/><path d="m398.4 4.1h-3.1v9.6h-1.4v-9.6h-3.1v-1.3h7.7v1.3z"/></g><path d="m236.3 333.66c6.43 1.16 12.92 2.08 19.29 3.52 10.85 2.45 16.65.39 20.76-9.89 3.36-8.4 5.29-17.41 7.43-26.25 1.4-5.78 2.5-11.71 2.91-17.62.4-5.83-1.77-8.78-7.54-9.2-10.59-.77-21.28-1.24-31.86-.62-16.06.95-32.14 2.41-48.07 4.64-18.2 2.54-36.66 4.58-53.1 14.08-3.75 2.17-7.96 1.26-10.51-1.78-2.26-2.68-4.92-6.94-4.29-9.83 6.02-27.65 4.51-55.66 4.33-83.55-.05-8.6-3.11-17.17-4.69-25.77-.31-1.66-.89-4.19-.08-4.92 1.23-1.11 3.87-1.82 5.37-1.25 4.92 1.85 9.59 4.35 15.04 6.93 6.87-8.15 14.79-16.61 19.42-27.44.82-1.92 1.12-4.22 1.04-6.32-.18-4.49 2.48-5.57 5.68-4.18 4.79 2.1 9.61 4.58 13.64 7.85 4.56 3.7 3.71 5.84-1.22 9.08-8.54 5.62-16.83 11.62-24.76 18.33 9.29-2.29 18.58-4.55 27.86-6.88 10.28-2.58 20.52-5.28 30.82-7.77 1.83-.44 4.05-.63 5.75 0 5.59 2.08 11.23 4.22 16.48 7.04 6.72 3.6 7.73 8.48 2.77 14.19-6.05 6.96-8.33 15.32-10.71 23.83-1.87 6.7-4.14 13.32-6.67 19.8-1.05 2.7-2.92 5.29-5 7.34-3.44 3.39-6.91 3.08-8.94-1.1-1.51-3.1-3.52-3.1-6.01-2.72-17.56 2.64-35.1 5.35-52.66 8.02-3.39.52-6.78.94-10.47 1.45v14.4c5.27-.42 10.53-.48 15.66-1.3 26.54-4.24 53.1-8.41 79.54-13.2 8.26-1.5 15.51-.67 22.22 4.1 1.56 1.11 2.38 3.25 3.54 4.92-1.84 1.15-3.58 3.04-5.55 3.33-8.87 1.3-17.84 1.9-26.71 3.19-25.12 3.65-50.2 7.63-75.34 11.2-4.21.6-8.62-.16-13.59-.32.1 2.11-.07 5.38.48 8.52.9 5.19 4.32 6.97 9.5 6.18 11.47-1.75 22.97-3.35 34.49-4.73 23.23-2.79 46.53-5.09 69.71-8.23 7.32-.99 14.26-4.62 21.57-5.79 4.06-.65 9.17.24 12.67 2.33 6.06 3.63 11.3 8.67 16.76 13.27 2.7 2.28 3.68 5.55 1.69 8.49-11.05 16.35-13.09 35.63-17.95 54-1.02 3.85-2.04 7.7-3.09 11.54-3.32 12.16-12.07 19.65-22.56 25.3-1.43.77-5.45-.63-6.51-2.21-7.33-10.91-16.61-19.9-26.39-28.48-1.24-1.09-1.91-2.83-2.84-4.28.24-.41.47-.83.69-1.24zm-87.97-132.12c12.07-2.99 22.66-5.77 33.33-8.22 13.14-3.03 26.06-7.98 40.28-4.68.69-4.36 1.45-8.41 1.96-12.5.55-4.37-1.23-6.92-5.91-6.1-12.24 2.14-24.51 4.17-36.65 6.79-9.61 2.07-19.05 4.94-29.86 7.8-.78 4.17-1.85 9.93-3.15 16.91zm69.14 10.67c.94-5.04 1.83-9.77 2.82-15.09-24.55 4.17-48.14 8.18-71.76 12.2v13.95c13.72-2.7 26.83-5.5 40.03-7.81 9.48-1.67 18.56-6.84 28.91-3.25z" fill="#010104"/><path d="m240.68 91.8c12.4-3.49 24.83-6.86 37.18-10.51 12.63-3.73 23.17.03 32.53 8.48 2.25 2.04 3.32 3.85.83 7.11-2.21 2.89-3.06 6.91-4.13 10.55-4.33 14.74-9.53 29.13-18.84 41.52-3.01 4.01-7.02 7.62-11.28 10.25-5.26 3.24-9.56 2.16-13.97-2.24-8.71-8.69-17.32-17.48-25.9-26.3-.97-.99-1.52-2.4-3.08-4.95 3.36.6 5.37.78 7.26 1.33 8.1 2.37 16.09 5.14 24.26 7.2 5.57 1.4 10.92-.21 14.12-5.15 5.19-7.99 9.19-16.61 9.29-26.42.08-7.89-3.13-11.06-10.81-9.38-14.07 3.08-27.97 6.95-41.94 10.52-.8.2-1.51.78-2.31.92-4.06.73-8.17.93-10.87-2.91-2.68-3.81-1.12-7.37.89-11.12 3.42-6.37 6.37-12.99 9.38-19.57.58-1.27.5-2.84.81-4.85-5.41.74-10.32 1.15-15.12 2.12-9.04 1.82-14.84-3.41-20.26-9.16-2.39-2.54-.03-3.95 2.33-4.26 4.12-.53 8.29-.56 12.42-1.02 24.92-2.8 49.85-5.59 74.75-8.56 6.41-.77 12.71-2.69 19.13-3.18 8.23-.62 15.07 3.38 21.07 8.61.98.86 1.72 3.57 1.14 4.31-1.08 1.39-3.13 2.54-4.92 2.78-4.6.64-9.28.68-13.92 1.05-17.06 1.37-34.11 2.77-51.16 4.2-1.81.15-3.6.62-4.24.73-2.58 3.78-4.8 6.73-6.69 9.86-3.3 5.45-6.4 11.02-9.58 16.54.56.52 1.09 1.01 1.63 1.5z" fill="#010104"/><path d="m140 73.31c1.22.85 2.5 1.63 3.64 2.57 3.63 2.96 4.11 6.63 3.37 11.19-1.76 10.78-2.93 21.65-4.46 33.38 12.04-2.9 23.45-5.64 34.86-8.39.36.69.72 1.38 1.08 2.07-2.03 1.89-3.77 4.39-6.15 5.56-9.98 4.87-20.04 9.63-30.29 13.9-14.86 6.19-30.17 11.34-43.45 20.89-1.69 1.21-5.4 1.3-7.27.27-5.8-3.19-11.46-6.83-16.56-11.04-1.83-1.51-2.61-5.22-2.39-7.8.08-1.01 4.15-2.06 6.51-2.45 9.93-1.65 19.94-2.88 29.85-4.63 5.69-1 11.32-2.53 16.86-4.19 1.52-.46 3.77-2.22 3.79-3.42.25-13.32.21-26.66.03-39.98-.03-2.39-1.06-4.77-1.67-7.31-13.93 1.54-27.69 3.58-39.11-9.53 2.69-.69 4.16-1.4 5.64-1.4 21.09 0 41.59-3.83 61.86-9.26 7.73-2.07 15.27-1.02 22.22 2.76 1.92 1.04 3.01 3.61 4.47 5.47-1.85 1.44-3.53 3.78-5.58 4.18-10.09 1.94-20.27 3.36-30.42 4.97-2.05.32-4.09.67-6.14 1-.22.39-.46.79-.69 1.19z" fill="#010104"/><path d="m115.25 318.94c-.87 10.49-2.09 21.02-10.3 29.07-1.52 1.49-3.29 2.83-5.16 3.81-3.64 1.9-6.73.62-7.62-3.25-1.55-6.76-1.83-13.13 2.82-19.37 4.53-6.07 7.8-13.08 11.81-19.55 1.13-1.83 2.93-3.24 4.42-4.85 1.15 2 2.75 3.89 3.35 6.04.67 2.5.47 5.25.68 8.1z" fill="#010104"/><path d="m221.12 291.48c3.27.35 5.35.14 7.08.83 5.99 2.38 11.95 4.89 17.77 7.67 8.11 3.88 9.44 10.37 8.75 18.84-.18 2.21-2.14 5.43-3.98 6.03-1.92.63-5.51-.64-6.96-2.31-7.18-8.26-13.93-16.89-20.7-25.5-.91-1.16-1.07-2.93-1.96-5.56z" fill="#010104"/><path d="m140.4 307.56c.88-1.45 2.01-3.31 3.13-5.16 1.67 1.03 3.85 1.68 4.92 3.15 5.57 7.64 12.02 15.08 12.81 24.94.32 3.95-1.24 8.39-3.03 12.07-1.65 3.38-5.33 3.6-7.95.8-1.98-2.11-3.83-4.85-4.46-7.61-2.07-9.03-3.55-18.19-5.42-28.19z" fill="#010104"/><path d="m209.2 326.8c-2.17 3.16-3.45 6.77-6 8.31-3.54 2.14-7.01-.78-8.61-3.74-5.03-9.29-9.61-18.83-14.02-28.44-.59-1.28.53-3.76 1.57-5.15.4-.53 3.19-.04 4.22.8 5.49 4.52 11.33 8.82 15.92 14.16 3.17 3.67 4.5 8.92 6.92 14.06z" fill="#010104"/></svg>