<svg enable-background="new 0 0 400 400" viewBox="0 0 400 400" xmlns="http://www.w3.org/2000/svg"><g fill="#fafbfa"><path d="m342.2 3.2-6.3 9.2h6.1v1.2h-8.2v-.5l6.2-9.1h-5.7v-1.2h7.8v.4z"/><path d="m344 13.7v-10.9h3.1c1.6 0 3 .5 4.1 1.4 1.1 1 1.6 2.2 1.6 3.9s-.5 3-1.6 4-2.5 1.5-4.2 1.5h-3zm1.4-9.6v8.4h1.6c1.4 0 2.5-.4 3.2-1.1.8-.8 1.2-1.8 1.2-3.2s-.4-2.4-1.2-3.1-1.8-1-3.1-1z"/><path d="m356.3 2.8v10.9h-1.4v-10.9z"/><path d="m366.6 13.2c-.8.4-1.8.6-3 .6-1.6 0-2.8-.5-3.7-1.5s-1.4-2.3-1.4-3.9c0-1.7.5-3.2 1.6-4.2s2.4-1.6 4-1.6c1 0 1.9.1 2.6.4v1.5c-.8-.4-1.6-.6-2.6-.6-1.2 0-2.2.4-3 1.2s-1.1 1.9-1.1 3.3c0 1.3.4 2.3 1.1 3.1s1.6 1.1 2.8 1.1c1.1 0 2-.2 2.8-.7v1.3z"/><path d="m368.2 13c0-.3.1-.5.3-.6.2-.2.4-.3.6-.3.3 0 .5.1.7.3s.3.4.3.6-.1.5-.3.6c-.2.2-.4.3-.7.3s-.5-.1-.6-.3c-.2-.2-.3-.4-.3-.6z"/><path d="m381.1 13.7h-1.7l-5.5-8.4c-.2-.2-.3-.5-.4-.7 0 .2.1.8.1 1.5v7.6h-1.4v-10.9h1.8l5.3 8.3c.3.4.4.6.4.8 0-.3-.1-.8-.1-1.6v-7.5h1.4v10.9z"/><path d="m389.7 13.7h-5.8v-10.9h5.6v1.2h-4.2v3.5h3.9v1.2h-3.9v3.7h4.4z"/><path d="m398.4 4.1h-3.1v9.6h-1.4v-9.6h-3.1v-1.3h7.7v1.3z"/></g><path d="m249.51 267.63c0-10.24 0-19.99 0-30.33-8.64 1.46-17.08 2.88-25.91 4.37-.59 2.13-1.27 4.6-2.1 7.64-8.14-3.58-11.72-10.12-13.23-17.45-4.24-20.57-9.45-40.75-19.36-59.47-2.21-4.18-.57-7.09 3.3-6.26 16.49 3.54 32.3-1.04 48.21-3.82 10.89-1.9 10.9-2.31 11.32-13.28.2-5.13.03-10.27.03-16.11-14.15 2.57-28.06 4.64-41.73 7.75-9.95 2.26-17.07-1.85-23.81-7.98-.75-.68-1.45-2.8-1.24-2.95 1.53-1.1 3.23-2.41 5.01-2.65 6.92-.93 13.9-1.31 20.82-2.21 13.3-1.74 26.57-3.7 39.7-5.55.53-6.14-2.69-15.4-8.52-25.24-14.55 3.69-29.08 7.94-44.26 7.98-.16-.55-.31-1.09-.47-1.64 1.84-.84 3.64-1.78 5.52-2.52 21.68-8.57 42.85-18.12 62.2-31.3 4.88-3.32 9.33-6.89 10.02-13.55.12-1.19 3.25-3.22 4.61-2.94 12.03 2.4 22.24 8.55 31.07 16.85 3.01 2.83 1.65 6.28-2.65 7.26-4.34.98-9.02.64-13.23 1.94-13.38 4.13-26.6 8.76-40.58 13.43 9.42 6.95 21.64 11.03 15.3 26.68 8.07-1.36 15.23-2.42 22.33-3.79 7.5-1.45 14.99-3 22.4-4.84 10.07-2.5 18.21 1.79 26.02 7.08 1.19.8 2.35 3.81 1.8 4.57-1.19 1.65-3.37 3.28-5.34 3.56-7.4 1.04-14.89 1.4-22.31 2.25-14.98 1.72-29.94 3.61-45.53 5.5v26.44c5.99-.8 12.33-1.43 18.58-2.53 7.02-1.24 13.91-3.2 20.95-4.25 3.13-.47 7.02-.43 9.63 1.03 6.93 3.88 13.57 8.37 19.89 13.2 4.44 3.4 4.65 7.46 1.07 11.19-7.38 7.7-11.26 17-13.98 27.13-2.71 10.09-6.21 19.96-9.39 29.92-.3.95-.74 1.85-1.15 2.76-5.05 11.06-9.88 11.77-17.46 2.17-2.2-2.78-4.31-4.04-7.87-3.73-7.1.64-14.23.9-22.21 1.37v30.1c6.59-.91 13.63-1.53 20.52-2.91 10.12-2.04 18.23 1.95 25.74 7.85 1.37 1.08 2.97 3.96 2.46 4.88-.85 1.51-3.28 2.78-5.15 2.95-9.59.87-19.22 1.35-28.84 1.99-4.96.33-9.93.71-15.73 1.13v29.33c10.24-1.07 20.91-2.09 31.55-3.32 9.24-1.07 18.44-2.38 27.67-3.55 12.65-1.61 21.5 5.41 29.76 13.45 1.04 1.02 1.64 3.76 1.01 4.91-.78 1.41-3.03 2.72-4.71 2.8-6.32.3-12.67.36-18.98.01-27.96-1.54-55.91-1.84-83.78 1.09-18.48 1.94-36.86 4.82-55.33 6.84-8.1.89-17.18-2.07-22.48-12.82 26.23-2.51 51.99-4.97 78-7.45 0-9.99 0-19.54 0-29.8-7.39.96-14.55 1.34-21.43 2.92-9.87 2.27-16.72-2.39-23.03-8.69-2.71-2.71-1.99-4.78 2.01-5.27 7.08-.88 14.23-1.14 21.33-1.8 7.06-.66 14.15-1.49 21.96-2.32zm18.64-75.59c12.88-1.76 25.86-5.8 39.35-.94.88-4.09 1.68-7.94 2.53-11.78 2.3-10.33-1.62-15.56-12.22-15.03-8.91.45-17.78 1.85-26.64 3.05-1.1.15-2.86 1.63-2.89 2.55-.24 7.24-.13 14.49-.13 22.15zm-17.34-21.74c-13.19 2.93-25.88 5.74-39.36 8.73 1.52 7.59 2.92 14.59 4.36 21.79 11.06-1.75 21.23-3.27 31.35-5.07 1.35-.24 3.45-1.9 3.49-2.98.31-7.12.16-14.25.16-22.47zm16.7 33.87v18.91c1.62-.3 3.03-.69 4.46-.81 6.67-.54 13.15-3.96 20.03-1.21 4.77 1.91 6.71 1.14 8.36-3.77 1.73-5.15 3.06-10.43 4.81-16.49-12.79 1.15-24.93 2.23-37.66 3.37zm-16.97 2.47c-10.97 1.2-21.55 2.36-32.74 3.58 1.47 6.49 3.04 13.47 4.75 21.03 8.9-1.5 17.37-2.88 25.81-4.43.83-.15 2.07-1.39 2.09-2.16.17-5.91.09-11.84.09-18.02z" fill="#010104"/><path d="m119.41 195.69c2.79-.73 5.31-1.4 7.84-2.04 7.49-1.89 14.87-1.81 21.71 2.14 1.61.93 3.66 3.24 3.46 4.62-.22 1.52-2.61 3.49-4.37 3.9-7.9 1.85-15.92 3.22-23.89 4.78-1.61.32-3.2.72-5.37 1.21v26.52c10.51-2.15 21.07-4.1 31.53-6.51 6.77-1.56 12.94-.31 18.67 3.07 1.74 1.03 2.6 3.57 3.86 5.42-1.74 1.08-3.38 2.9-5.22 3.13-30.91 3.83-61.09 10.72-90.56 20.84-9.66 3.31-18.43.58-26.01-5.77-1.63-1.36-2.06-4.17-3.04-6.31 2.01-.92 3.93-2.33 6.03-2.67 15.7-2.56 31.45-4.84 47.14-7.44 1.28-.21 3.2-2.11 3.24-3.29.29-7.95.15-15.92.15-24.21-11.4 1.65-22.42 4.69-33.07-.71-2.38-1.21-4.3-3.34-6.43-5.05.11-.56.22-1.12.33-1.67 4.42-.57 8.85-1.09 13.27-1.71 7.23-1.02 14.45-2.06 21.66-3.17 2.98-.46 4.47-1.94 4.33-5.37-.28-6.95-.09-13.92-.09-21.45-5.33.94-10.02 1.82-14.73 2.59-2.29.38-4.62.9-6.91.79-3.25-.16-4.88.72-5.12 4.29-.1 1.54-1.48 3.87-2.71 4.19-1.19.31-3.27-1.19-4.37-2.42-4.87-5.39-7.05-12.04-7.73-19.09-2.31-23.7-6.37-46.99-14.81-69.39-.66-1.74-.63-4.45.33-5.85.64-.94 3.59-.75 5.36-.37 4.52.98 8.92 3.18 13.43 3.35 5.85.23 11.83-.67 17.63-1.72 23.99-4.32 47.94-8.91 71.92-13.3 1.91-.35 4.41-.65 5.89.25 8.02 4.91 15.95 10 23.5 15.59 1.23.91 1.47 5.78.31 6.88-10.98 10.48-12.01 24.76-15.47 38.17-2.74 10.58-5.79 21.09-8.83 31.59-.54 1.89-1.48 3.73-2.57 5.38-2.64 4.02-5.89 4.52-9.73 1.71-.27-.2-.58-.39-.74-.66-5.04-8.87-12.94-7.07-20.82-5.72-8.89 1.52-8.92 1.43-9 10.61-.04 4.79 0 9.58 0 14.87zm-4.15-100.88c-.07.53-.13 1.07-.2 1.6 1.69 1.51 3.71 2.8 4.98 4.61 1.34 1.91 2.8 4.35 2.74 6.52-.32 10.44-1.15 20.87-1.77 31.3-.37 6.09-.7 12.19-1.04 18.22 7.19-.35 13.82-1.24 20.36-.82 6.64.42 7.8.65 9.27-5.68 3.48-15.02 6.65-30.12 9.59-45.26 1.13-5.85-3.34-13.24-7.94-13.06-12.01.49-24 1.66-35.99 2.57zm-36.2 73.56c7.95-1.99 15.53-3.71 22.95-5.92 1.2-.36 2.43-2.91 2.46-4.48.28-12.47.79-24.97.13-37.41-.35-6.62-2.79-13.15-4.57-19.64-.28-1.02-2.17-2.47-3.04-2.31-8.53 1.66-17 3.62-25.67 5.53 2.64 21.84 5.15 42.72 7.74 64.23z" fill="#010104"/><path d="m66.25 277.16c4.63 5.35 4.86 10.64 4.63 15.67-.52 11.55-3.01 22.81-8.54 33.01-2.28 4.21-6.05 7.86-9.81 10.96-3.32 2.74-6.94 1.32-8.18-2.83-1.99-6.64-2.28-12.91 1.67-19.55 6-10.1 10.72-20.96 16.09-31.44.98-1.92 2.5-3.55 4.14-5.82z" fill="#010104"/><path d="m107.32 313.43c-.73 1.98-1.53 5.97-3.53 9.21-3.07 4.96-8.35 4.6-10.97-.59-1.45-2.88-2.43-6.2-2.76-9.41-.92-9.05-1.43-18.15-2.02-27.23-.12-1.8-.32-3.8.31-5.39.61-1.53 2.06-3.07 3.54-3.75.56-.26 2.65 1.63 3.31 2.92 5.29 10.23 11.55 20.16 12.12 34.24z" fill="#010104"/><path d="m142.11 300.42c-.41 1.99-.34 4.42-1.41 6.13-1.32 2.11-3.43 4.81-5.48 5.06-2.01.25-5.55-1.73-6.35-3.61-3.1-7.28-5.51-14.87-7.9-22.42-1.1-3.46-1.89-7.09-2.18-10.69-.12-1.47 1.13-3.54 2.39-4.44.67-.47 3.1.62 4.06 1.63 7.11 7.5 14.24 15.03 16.32 25.73.16.82.35 1.63.55 2.61z" fill="#010104"/><path d="m178.05 288.16c-1.47 2.58-2.53 6.83-4.52 7.32-2.76.69-7.71-.45-9.12-2.56-5.67-8.44-10.5-17.47-15.21-26.51-.69-1.33.59-4.04 1.64-5.68.28-.43 3.33.35 4.67 1.24 4.97 3.3 9.85 6.75 14.57 10.4 4.91 3.81 7.12 9.03 7.97 15.79z" fill="#010104"/><path d="m124.65 141.4c1.79-4.35 3.67-8.66 5.36-13.05 2.05-5.31 5.47-10.33 3.19-16.64-.26-.71 2.39-3.49 3.81-3.6 6.43-.48 10.81 3.58 14.66 8.05.51.59-.07 2.92-.88 3.7-7.24 7.09-14.62 14.03-22.04 20.94-.81.76-2.09 1.01-3.16 1.49-.31-.28-.62-.59-.94-.89z" fill="#010104"/><path d="m99.99 140.99c-1.17 1.98-2.3 5.68-3.66 5.77-2.46.16-6.15-1.14-7.39-3.07-3.72-5.8-6.57-12.16-9.56-18.4-.46-.95-.23-2.83.46-3.55.59-.61 2.69-.68 3.41-.1 4.86 3.92 9.71 7.89 14.14 12.27 1.44 1.43 1.59 4.15 2.6 7.08z" fill="#010104"/></svg>