<svg enable-background="new 0 0 400 400" viewBox="0 0 400 400" xmlns="http://www.w3.org/2000/svg"><path d="m377.9 391.2c-.2.3-.4.5-.6.8-.7-.6-1.4-1-2.2-1.5.2-.3.4-.5.5-.8.6.4 1.4.8 2.3 1.5zm-1.8 6.1c-.2-.2-.5-.4-.9-.6.4-.6.8-1.2 1.2-1.9s.7-1.3.9-1.9c.3.3.5.5.8.7-.7 1.3-1.4 2.6-2 3.7zm2.2-9c-.3.3-.5.5-.6.8-.6-.6-1.3-1.1-2-1.5.3-.3.5-.5.6-.7.6.5 1.3.9 2 1.4zm.3.2v-.9h2 4.5c-.3 1.3-.6 2.5-1 3.6s-.9 2.1-1.4 3c.4.5 1 1 1.6 1.4s1.2.8 1.9 1.1c-.3.2-.5.4-.8.8-.4-.3-1-.7-1.6-1.2s-1.2-1.1-1.6-1.6c-.5.6-1.1 1.1-1.7 1.6s-1.4.9-2.1 1.4c-.1-.3-.3-.5-.7-.8.6-.2 1.2-.5 1.9-1s1.4-1.1 2-1.8c-.5-.8-.9-1.6-1.2-2.5s-.6-2-.8-3.2c-.4.1-.7.1-1 .1zm2.5 2.7c.3 1 .7 1.7 1 2.2.3-.5.6-1.1 1-2s.6-1.9.9-3h-3.2-.4c.1.9.3 1.8.7 2.8z" fill="#fbfafc"/><path d="m396.5 388.5v1.5 3.6h1.5v.9c-.4 0-1 0-1.7 0h-7.9c-.5 0-.9 0-1.2 0v-.9h1.3v-3.5c0-.7 0-1.2 0-1.6h2.4c0-.8 0-1.4 0-1.7h1c0 .3-.1.8-.1 1.7h1.5c0-.8 0-1.4 0-1.7h1c0 .3-.1.9-.1 1.7zm-8.2 9.2c-.2-.3-.5-.5-.8-.8.8-.3 1.4-.6 1.9-.9s1-.7 1.4-1.1c.3.3.6.5.9.8-1.6 1-2.8 1.6-3.4 2zm2.6-6.8v-1.6h-1.5v1.6zm0 2.7v-1.9h-1.5v1.9zm2.4-2.7v-1.6h-1.5v1.6zm0 2.7v-1.9h-1.5v1.9zm.2 2 .7-.8c.4.2.9.5 1.6.8s1.3.7 1.8 1c-.3.3-.5.5-.8.8-.4-.3-1.5-1-3.3-1.8zm2-4.7v-1.6h-1.4v1.6zm0 2.7v-1.9h-1.4v1.9z" fill="#fbfafc"/><g fill="#010103"><path d="m135.82 332.37c37.36-27.51 66.14-61.09 80.04-106.8-11.94 2.09-23.14 4.1-34.36 5.99-11.66 1.97-20.68-3.39-30.2-10.51 6.06-3.94 12.02-3.32 17.54-4.05 16.29-2.18 32.64-3.93 48.94-6.08 1.49-.2 3.83-1.94 3.95-3.16 1.08-10.5 2.15-21.04 2.37-31.58.1-5.1 1.65-7.6 6.54-5.94 6.1 2.07 12.15 4.46 17.93 7.29 5.84 2.86 6.08 5.33 3.19 11.11-2.93 5.87-5.34 12-8.37 18.94 13.58-1.83 26.09-3.22 38.48-5.27 15.06-2.48 30.01-5.57 45.04-8.27 11.83-2.13 20.9 4.11 29.53 10.64 3.86 2.92 2.49 6.68-2.5 7.53-5.54.95-11.19 1.37-16.8 1.82-20.87 1.66-41.76 3.14-62.63 4.88-10.42.87-20.81 2.25-31.23 3.17-3.47.31-5.72 1.28-7.12 4.85-6.05 15.45-11.37 31.28-22.41 44.85 7.63 2.63 14.76 3.26 21.91 1.85 21.29-4.19 42.62-8.27 63.78-13.06 14.86-3.36 28.63 1 37.9 13.28 1.95 2.58 2.78 5.2-.03 7.46-8.94 7.21-12.14 17.6-15.8 27.76-1.13 3.12-2.06 6.33-3.4 9.36-1.91 4.33-3.06 7.91 2.11 11.32 3.27 2.16 2.16 5.27-1.68 6.54-1.09.36-2.25.6-3.4.69-26 2.11-52 4.23-78.01 6.21-3.32.25-4.75 1.62-4.99 4.84-.12 1.61-.55 3.32-1.32 4.72-2.6 4.69-7.06 4.9-8.73-.05-2.67-7.93-4.72-16.17-6.05-24.43-1.84-11.45-2.59-23.08-4.19-34.58-.46-3.3-2.25-6.42-3.21-9.03-11.19 10.28-21.56 20.78-32.96 30.03-11.44 9.29-24.22 16.67-39.86 17.68zm97.09-2.13c4.84-.5 8.79-.82 12.72-1.34 15.79-2.08 31.56-4.23 47.35-6.31 2.58-.34 3.97-1.54 4.59-4.2 2.41-10.47 5.18-20.86 7.5-31.35 2.08-9.38-.98-13.51-10.67-12.69-12.84 1.09-25.6 3.32-38.35 5.3-8.94 1.39-17.82 3.2-26.83 4.84 1.24 15.42 2.44 30.25 3.69 45.75z"/><path d="m105.26 178.4c-8.03 10.04-15.05 19.09-22.35 27.9-9.97 12.03-21.83 21.92-35.26 29.88-1.19.7-2.84.62-4.28.9.6-1.39.89-3.06 1.83-4.15 26.54-30.43 47.94-64.21 64.68-100.86 5.7-12.47 9.89-25.68 14.02-38.79 1.71-5.43 1.57-11.48 2-17.26.42-5.75 2.37-7.36 7.62-5.22 8.32 3.38 15.65 8.2 20.19 16.25.76 1.35 1.1 3.72.42 4.97-6.59 12.09-13.51 24-20.2 36.03-7.1 12.77-14.06 25.63-21.43 39.07 2.57 3.02 5.67 6.65 8.75 10.3 4.2 4.98 5.9 10.16 4.12 17.02-1.65 6.34-1.7 13.16-1.91 19.79-.93 29.11-1.37 58.24-2.58 87.33-.57 13.57-2.28 27.11-3.94 40.61-.38 3.11-2.38 6.19-4.21 8.9-2.23 3.3-5.93 3.62-7.83.26-6.82-12.08-14.78-24.07-8.79-39.13 6.17-15.49 8.08-31.8 8.83-48.28 1.01-22.26 1.97-44.53 2.52-66.8.14-5.83-1.33-11.7-2.2-18.72z"/><path d="m305.45 110.13c6.87-1.8 13.82-3.37 20.6-5.45 9.78-3 18.01 1.36 26.04 5.52 4.61 2.39 3.92 6.23-.94 8.33-2.08.9-4.44 1.41-6.71 1.58-13.91 1.07-27.82 2.12-41.75 2.88-3.77.2-5.51 1.81-6.84 5.14-5.84 14.57-13.4 28.2-23.42 40.35-1.07 1.3-3.09 1.82-4.66 2.71-.09-1.85-.75-3.89-.19-5.52 3.69-10.82 7.65-21.55 11.48-32.33.54-1.51.79-3.12 1.46-5.87-9.5 5.22-17.43 2.65-24.91-2.45-1.09-.74-1.74-2.14-2.6-3.24 1.19-.65 2.32-1.66 3.59-1.9 7.66-1.47 15.34-2.78 23.02-4.11 3.15-.55 5.2-1.57 5.68-5.48 1.47-11.99 3.66-23.9 5.16-35.89.38-3.01-.75-6.22-1.25-9.32-.87-5.53 1.25-8.11 6.84-7.21 9.29 1.48 16.81 6.3 21.8 14.24 1.08 1.72.21 5.29-.77 7.57-4.22 9.81-8.82 19.46-13.28 29.16.54.43 1.1.86 1.65 1.29z"/><path d="m207.07 122.77c-5.05-15.24-8.06-30.54-17.71-43.16-2.88-3.77-.08-5.83 2.98-6.37 3.69-.66 7.6-.32 11.4-.11 1.95.11 3.87.86 5.8 1.36 8.74 2.24 8.95 2.83 9.7 11.63.98 11.37 2.41 22.71 3.72 34.73 4.42-.54 8.27-1.02 12.13-1.48 1.31-.16 2.76-.64 3.92-.26 1.21.4 2.81 1.55 2.98 2.57.15.92-1.21 2.66-2.28 3.09-3.52 1.41-7.17 2.59-10.86 3.47-3.25.78-4.18 2.47-3.71 5.66 1.1 7.37 2.01 14.77 2.9 22.17.15 1.29.2 2.83-.36 3.91-.93 1.8-2.4 3.32-3.64 4.96-1.86-1.43-4.67-2.49-5.4-4.36-2.62-6.78-4.54-13.84-6.72-20.79-.48-1.55-.93-3.1-1.66-5.54-9.52 3.49-18.89 6.35-27.73 10.35-7.44 3.37-13.58 3.57-19.23-2.89-2.94-3.37-6.27-6.4-9.03-9.9-.95-1.21-1.51-4.07-.78-4.92.99-1.15 3.5-1.73 5.16-1.44 16.22 2.9 32.03-.13 48.42-2.68z"/></g></svg>