<svg enable-background="new 0 0 400 400" viewBox="0 0 400 400" xmlns="http://www.w3.org/2000/svg"><g fill="#010100"><path d="m240.97 259.16c-9.17 1.05-17.37 1.99-26.96 3.09 3.63 3.38 6.6 5.91 9.29 8.71 2.92 3.04 3.38 5.7-.4 9.09-3.78 3.38-6.57 7.88-9.68 11.98-9.04 11.91-17.31 24.51-27.21 35.66-14.65 16.48-34.07 25.73-54.91 32.09-.25.08-.59-.12-1.82-.41.95-1.63 1.5-3.28 2.61-4.33 1.93-1.82 4.08-3.46 6.35-4.84 20.96-12.7 35.37-31.57 48.34-51.69 6.43-9.97 10.13-21.1 12.56-33.67-5.63 1.34-10.59 2.37-15.46 3.71-9.85 2.7-17.68-2.67-25.87-6.43-.98-.45-1.57-2.45-1.65-3.78-.03-.45 2.01-1.36 3.17-1.52 25.35-3.38 50.76-6.41 76.06-10.1 14.93-2.18 29.81-4.94 44.52-8.28 12.41-2.81 22.92.49 32.7 7.63 3.78 2.76 3.23 5.54-1.35 7.01-2.17.69-4.56.81-6.87.89-13.44.47-26.88.85-41.4 1.3 1.28 1.84 1.64 2.53 2.16 3.08 7.34 7.68 6.75 7.43 2.78 17.17-6.01 14.75-9.47 30.19-7.57 46.27 1.42 11.97 6.79 16.92 20.76 18.84 13.39 1.83 26.98 2.44 40.2-.87 18.52-4.64 26.26-11.02 29.6-33.22.82-5.47 1.59-10.96 2.38-16.43.59-.05 1.19-.09 1.78-.14.64 1.69 1.52 3.33 1.89 5.08 2.75 12.85 5.48 25.67 12.91 36.91 2.15 3.26 1.59 6.65-.77 9.74-7 9.17-16.27 15.23-27.09 18.67-22.17 7.05-44.74 8.22-67.37 2.65-18.88-4.65-33.89-19.33-32.83-41.73.68-14.29 1.7-28.57 1.83-42.86.07-6.35-1.7-12.7-2.68-19.27z"/><path d="m99.62 175.44c-19.47 23.88-41.16 43.41-68.49 55.8-.42-.4-.84-.81-1.27-1.21 1.34-1.65 2.63-3.34 4.04-4.93 17.54-19.81 36.1-38.81 52.35-59.62 15.54-19.9 28.11-41.96 37.29-65.75 3.18-8.24 4.57-16.57 4.35-25.35-.16-6.32 2.15-8.4 7.43-5.28 7.75 4.58 14.75 10.55 21.63 16.44 2.37 2.03 2 5.19-.75 7.87-3.07 2.98-5.88 6.35-8.25 9.91-12.62 18.97-25.12 38.03-37.47 57.18-.73 1.13-.13 3.36.32 4.94.29 1.02 1.35 1.89 2.2 2.67 6.65 6.11 8.32 13.17 7.3 22.38-2.23 20.13-3.13 40.41-4.18 60.65-1.23 23.76-1.64 47.56-3.24 71.29-.66 9.85-3.14 19.64-5.56 29.27-.72 2.85-3.69 6.62-6.25 7.19-4.02.9-6.02-3.16-7.29-6.78-.6-1.72-1.15-3.49-1.99-5.1-5.44-10.46-5.73-20.96-2.1-32.25 5.35-16.67 7.53-34.02 8.34-51.51.98-21.26 2.06-42.52 2.71-63.8.22-7.6-.68-15.22-1.12-24.01z"/><path d="m244.12 100.12c-.47 8.5-.91 16.42-1.39 25.04 8.63-1.26 16.63-2.26 24.57-3.63 9.15-1.58 18.26-3.42 27.35-5.28 11.35-2.33 19.4 3.82 27.18 10.54.81.7 1.35 2.57.99 3.5-.35.89-2.01 1.68-3.14 1.76-6.3.44-12.62.85-18.93.92-37.85.39-75.25 4.88-112.27 12.57-8.41 1.75-15.82-.26-22.87-4.4-1.63-.96-2.63-2.98-4.5-5.2 22.53-2.8 43.85-5.45 65.26-8.1 0-8.43 0-16.31 0-24.87-6.83.59-13.06 1.39-19.31 1.58-6.09.18-12.22-.12-18.31-.54-1.7-.12-3.49-1.16-4.93-2.2-1.07-.76-2.47-2.43-2.23-3.29.29-1.08 2.01-2.29 3.27-2.51 5.06-.88 10.21-1.28 15.28-2.09 8.33-1.34 16.62-2.87 25.51-4.42-.76-12.69 2.09-25.44-4.8-37.22-3.1-5.3.24-10.31 6.44-9.05 6.41 1.31 12.64 3.88 18.7 6.48 3.29 1.41 4.21 4.36 3.38 8.33-1.83 8.72-2.97 17.58-4.61 27.75 8.97-2.31 16.66-3.99 24.16-6.29 10.39-3.19 17.34 3.38 25.26 7.31.08.68.16 1.36.25 2.04-3.53 1.42-6.95 3.44-10.62 4.17-13.03 2.56-26.13 4.7-39.69 7.1z"/><path d="m272.9 209.81c-.48-8.07-.93-15.66-1.4-23.48-11.66-1.2-23.92 5.16-34.54-3.98 10.69-5.48 22.69-4.28 34.17-7.15.02-9.99-.76-19.97-4.12-29.6-2.01-5.75.14-8.73 5.96-7.33 5.28 1.27 10.58 2.95 15.47 5.29 5.77 2.76 5.59 4.42 3.72 10.37-1.75 5.57-2.35 11.49-3.61 18.06 3.95-.98 6.74-1.39 9.34-2.36 7.61-2.84 15.11-1.27 22.52.54 1.92.47 3.42 2.68 5.11 4.09-1.73 1.02-3.35 2.64-5.19 2.97-8.49 1.5-17.02 2.86-25.59 3.81-4.1.46-6.24 1.82-6.37 6.19-.21 6.76-.77 13.51-1.21 20.85 11.17-1.99 21.76-3.77 32.3-5.78 7.6-1.45 14.51.33 21.12 3.86 1.13.6 2.2 1.61 2.89 2.7.75 1.17 1.77 3.09 1.31 3.89-.68 1.17-2.53 2.15-3.97 2.28-5.79.52-11.6.72-17.41.96-23.6.96-47.03 3.22-70.29 7.6-6.18 1.17-12.84-.1-19.27-.47-1.39-.08-3.04-.79-4-1.77-1.01-1.03-1.91-2.79-1.76-4.1.11-.88 2.07-2.04 3.32-2.2 11.7-1.49 23.42-2.78 35.13-4.17 2.05-.26 4.11-.69 6.37-1.07z"/><path d="m186.34 186.44c13.33-3.5 25.22-7.03 36.52.46.1.56.21 1.11.31 1.67-3.98 1.15-7.92 2.53-11.96 3.41-6.97 1.53-14.03 2.65-21 4.22-1.2.27-2.89 1.81-2.99 2.89-.65 6.93-.93 13.89-1.35 21.37 9.91-2.76 19.26-5.39 28.64-7.97 2.23-.61 4.49-1.22 6.77-1.44.89-.09 2.65.85 2.68 1.39.06 1.11-.61 2.4-1.31 3.37-.41.57-1.47.67-2.24 1-23.29 9.77-46.54 19.63-69.91 29.19-2.31.95-5.87 1.03-7.96-.11-4.44-2.44-8.49-5.74-12.27-9.16-1.11-1-1.25-3.71-.87-5.43.17-.75 2.88-1.55 4.25-1.3 13.19 2.39 25.21-2.42 38-5.76-.49-8.05-.97-16.06-1.46-24.08-11.13-.89-23.01 6.83-32.03-3.83 0-.62 0-1.23.01-1.85 10.26-1.52 20.51-3.03 31.27-4.62-.78-10.7-1.15-21.08-5.3-30.88-2.28-5.37-.53-8.13 5.08-6.82 6.73 1.57 13.24 4.18 19.7 6.69 3.07 1.2 3.51 3.67 2.49 7.02-1.95 6.37-3.24 12.96-5.07 20.57z"/></g><path d="m374.8 390.4.4-.4c.7.5 1.3 1 1.8 1.4l-.5.5c-.5-.6-1.1-1.1-1.7-1.5zm1 7.3-.6-.3c.5-1.4 1.1-2.8 1.5-4.3.2.1.4.2.6.3-.5 1.3-1 2.8-1.5 4.3zm-.4-10.3.4-.4c.4.3 1 .8 1.7 1.4l-.5.5c-.4-.5-1-1-1.6-1.5zm2.5.3h1.7v-1h.6v1h3.5v-1h.6v1h1.8v.5h-1.8v1.4h-2v1h3.2v2h-3.2v.9h3.3v.5h-3.4c0 .3-.1.6-.1.9h4v.5h-3.7c.7.9 1.9 1.5 3.8 1.7-.1.2-.2.4-.3.6-2.1-.4-3.5-1.1-4-2.1-.4 1-1.8 1.7-4 2.2-.1-.2-.2-.4-.3-.6 2.1-.4 3.4-1 3.8-1.8h-3.4v-.5h3.6c.1-.3.1-.6.2-.9h-3.3v-.5h3.4c0-.3 0-.6 0-.9h-3.2v-2h3.3v-1h-2.1v-1.4h-1.7v-.5zm1.1 3.5v1h2.7c0-.3 0-.4 0-.4 0-.1 0-.2 0-.2 0-.1 0-.2 0-.3h-2.7zm1.2-3v.9h3.5v-.9zm4.7 3h-2.6v.6.4h2.6z" fill="#fafafb"/><path d="m393.6 386.7h.6v1.5h2.7v6.1h1.1v.6h-11v-.6h1.1v-6.1h2.7v-1.5h.6v1.5h2.1v-1.5zm-2.7 8.8.4.6c-1.2.6-2.5 1.3-3.8 1.9-.1-.2-.2-.4-.3-.6 1.2-.6 2.5-1.2 3.7-1.9zm-2.2-6.7v2.4h2.1v-2.4zm0 3v2.5h2.1v-2.5zm2.8-3v2.4h2.1v-2.4zm0 3v2.5h2.1v-2.5zm6 6.1c-1.4-.7-2.7-1.3-3.9-1.8l.3-.6c1.5.6 2.7 1.2 3.9 1.7zm-1.2-9.1h-2.1v2.4h2.1zm-2.1 3v2.5h2.1v-2.5z" fill="#fafafb"/></svg>