<svg enable-background="new 0 0 400 400" viewBox="0 0 400 400" xmlns="http://www.w3.org/2000/svg"><g fill="#010100"><path d="m270 241.57c12.86-2.11 25.04-3.71 37.04-6.18 11.96-2.46 20.95 3.19 29.68 9.69 2.83 2.1 1.3 5.75-2.71 6.88-2.22.62-4.57.95-6.88 1.04-20.28.75-40.61.86-60.85 2.25-19.51 1.34-38.93 3.96-59.84 6.17 2.81 3.29 4.55 5.22 6.17 7.25 3.44 4.3 3.11 6.17-1.46 9.2-3.16 2.09-6.31 4.21-9.81 6.55 3.72 2.26 6.98 4.21 10.2 6.22 3.26 2.03 4.45 5.06 3.15 8.6-3.91 10.66-2.1 21.74-2.61 32.65-.23 4.98 2.69 3.95 5.52 2.62 9.78-4.58 19.54-9.21 29.31-13.81.9-.43 1.77-1.03 2.72-1.23 1.33-.27 2.72-.23 4.08-.32-.61 1.38-.85 3.17-1.88 4.09-10.17 9.11-20.5 18.04-30.71 27.11-5.1 4.53-10.15 9.12-15 13.91-3 2.96-5.35 2.29-7.32-.77-2.43-3.76-4.71-7.64-6.7-11.65-.74-1.48-.78-3.48-.64-5.2.96-12.21 2.39-24.38 2.95-36.61.23-5.07-1.32-10.21-2.25-16.65-21.78 16.45-42.99 30.28-68.63 34.89-.34-.56-.69-1.12-1.03-1.68 1.9-1.27 3.69-2.76 5.72-3.77 23.71-11.75 43.27-28.47 59.29-49.42 1.8-2.35 3.28-4.95 4.91-7.43-.18-.47-.36-.94-.54-1.41-6.15 1.25-12.5 1.92-18.42 3.89-11.88 3.95-20.53-2.24-29.11-8.5-3.06-2.23-2.14-4.41 1.69-5.29 1.45-.33 2.95-.51 4.43-.63 17.72-1.41 35.43-2.83 53.16-4.13 2.73-.2 3.38-1.48 3.2-3.85-.35-4.46-.65-8.92-1.02-14.05-6.54 0-13.01.34-19.42-.09-6.49-.44-12.84-1.82-16.98-9.79 12.28-.99 23.75-1.91 34.89-2.81 0-6.9 0-13.29 0-18.48-10.93-.6-21.09-1.15-31.24-1.72-.66-.04-1.38-.05-1.96-.31-3.06-1.33-7.66-1.5-7.26-6.17.38-4.47 4.77-2.82 7.32-3.1 8.25-.93 16.57-1.25 24.86-1.86 2.3-.17 4.59-.5 8.34-.91-1.89-6.36-3.26-12.41-5.5-18.12-2.26-5.78-.85-8.83 5.28-7.8 5.3.89 10.54 2.97 15.36 5.41 1.49.76 2.17 4.44 2.07 6.73-.17 3.84-1.27 7.63-2.09 12.1 14.1-1.89 27.04-3.63 41.28-5.54-1.03-6.78-2.09-13.06-2.89-19.38-.31-2.47-.02-5.01-.01-7.52 2.54.02 5.25-.52 7.58.19 3.95 1.19 7.73 3.02 11.46 4.84 3.93 1.91 5.78 4.71 3.65 9.28-1.1 2.35-1.46 5.04-2.42 8.54 7.16-1.79 13.63-3.69 20.22-4.98 8.39-1.64 15.02 3.23 21.57 7.21 2.64 1.61-.03 4.1-1.9 4.84-3.84 1.51-7.84 2.76-11.88 3.54-10.07 1.94-20.2 3.55-30.55 5.33-.57 5.27-1.11 10.33-1.65 15.34 8.02 0 15.61-.33 23.14.14 3.9.24 7.78 1.68 11.51 3.03 1.42.51 2.38 2.29 3.54 3.49-1.25 1.09-2.37 2.9-3.77 3.15-9.64 1.71-19.32 3.26-29.03 4.52-7.4.96-7.7 1.03-8.24 8.68-.13 1.82-.52 3.62-.69 5.43-.19 1.74-.24 3.54-.4 6.36zm-11.23-47.98c-12.17 1.29-24.01 2.48-35.83 3.89-1.24.15-3.28 1.5-3.33 2.38-.31 5.56-.16 11.15-.16 17.56 12.98-2.3 25.17-4.43 37.33-6.72.79-.15 1.87-1.56 1.9-2.41.18-4.93.09-9.87.09-14.7zm-2.14 31.26c-12.19 1.81-24.62 3.66-36.88 5.49v17.61c11.71-1.45 23.01-2.77 34.26-4.39 1.01-.15 2.42-2.15 2.5-3.37.29-4.78.12-9.59.12-15.34z"/><path d="m104.62 160.09c12.29 5.18 11.79 14.3 10.26 25.77-2.41 18.06-2.22 36.49-2.83 54.77-.83 24.78-1.2 49.58-2.15 74.35-.29 7.59-1.54 15.19-2.93 22.68-.65 3.5-2.39 6.91-4.21 10.04-2.68 4.6-5.41 4.85-8.23.35-7.17-11.41-12.03-22.77-8.06-37.45 4.39-16.24 6.64-33.23 8.07-50.04 1.91-22.35 2.26-44.84 2.98-67.28.2-6.25-.69-12.54-1.67-19.1-18.82 23.12-37.05 46.57-63.48 61.21-.58-.49-1.16-.99-1.74-1.48 1.68-2.46 3.11-5.14 5.07-7.34 25.51-28.65 46.48-60.32 63.43-94.71 7.6-15.42 14.12-31.22 17.11-48.19 1.05-5.98.47-12.26.6-18.4.13-6.25 2.51-8.19 8.49-6.42 9.14 2.71 15.98 8.83 21.75 16.03 1.15 1.44 1.2 5.61.02 6.79-10.47 10.52-14.35 24.54-20.67 37.28-5.98 12.05-12.51 23.83-18.8 35.73-.86 1.58-1.76 3.15-3.01 5.41z"/><path d="m269.5 294.4c6.38-10.27 16.23-17.63 19.49-29.57.89-3.24 3.68-4.19 6.32-2.42 5.36 3.59 10.7 7.32 15.46 11.64 3.79 3.44 2.71 5.91-2.23 8.04-10.51 4.52-20.95 9.2-31.41 13.85-1.47.66-2.85 1.52-4.71 2.53 14.52 12.59 29.35 23.93 47.18 30.1 14.86 5.13 30.2 8.85 45.28 13.36 1.84.55 3.39 2.08 5.08 3.16-1.62 1.15-3.09 2.96-4.87 3.35-12.13 2.65-24.27 5.26-36.5 7.38-10.16 1.76-19.14-1.17-26.32-8.75-13.27-14.01-26.37-28.19-39.76-42.09-7.94-8.24-16.17-16.22-24.51-24.05-2.23-2.1-5.48-3.08-8.05-4.87-1.3-.9-2.14-2.47-3.18-3.73 1.48-.8 2.93-2.19 4.46-2.29 7.48-.51 14.04 2 19.58 7.04 6 5.49 11.94 11.06 18.69 17.32z"/><path d="m236.44 74.66c-7.01-10.13-13.65-19.63-20.16-29.23-.74-1.1-1.42-3.54-.97-3.88 1.15-.9 3.14-1.65 4.44-1.27 6.99 2.04 14.12 3.89 20.74 6.84 9.85 4.39 12.98 11.72 10.78 22.4-.19.92-.1 1.89-.21 4.4 16.97-4.01 33.35-7.31 49.36-11.86 10.01-2.85 17.8 1.74 26.15 5.08 1.06.43 2.32 2.59 2.06 3.56-.35 1.3-1.95 2.85-3.29 3.19-8.99 2.23-17.98 4.65-27.11 6.1-22.63 3.58-45.29 7.05-68.03 9.83-16.65 2.04-33.43 3.31-50.19 4.14-5.8.29-11.83-1.37-17.52-2.95-1.93-.54-3.16-3.6-4.71-5.5 1.93-.88 3.79-2.31 5.79-2.55 16.49-1.99 33.01-3.76 49.51-5.61 7.87-.9 15.73-1.82 23.36-2.69z"/><path d="m309.32 131.33c2.22 3.55 3.83 6.12 5.86 9.36-10.76.87-19.99 1.59-29.22 2.37-4.13.35-8.28.64-12.36 1.35-1.57.27-3.05 1.48-4.41 2.48-1.58 1.15-3.66 3.91-4.33 3.58-2.01-1-4.22-2.9-4.93-4.94-1.78-5.14-2.68-10.57-4.12-15.84-2.16-7.94-3.16-16.47-10.85-21.72-.7-.48-1.05-2.04-.9-2.99.09-.55 1.47-1.1 2.34-1.26 1.29-.23 2.7-.33 3.97-.08 16.12 3.13 31.11-2.35 46.35-6 .64-.15 1.29-.37 1.87-.69 11-6.16 19.21-.76 27.09 6.41 2.57 2.34 2.19 4.17.18 6.67-5.72 7.1-11.2 14.38-16.54 21.3zm-10.69-2.38c1.31-5.79 2.69-11.76 3.99-17.75.7-3.23-.3-5.56-4.01-4.97-10.59 1.69-21.14 3.62-32.07 5.52.88 7.47 1.71 14.49 2.53 21.42 10.05-1.44 19.52-2.79 29.56-4.22z"/><path d="m225.31 151.2c-2.01.81-3.52 1.8-5.12 2-10.85 1.38-21.71 2.75-32.59 3.79-3.32.32-5.51.75-6.18 4.65-.29 1.66-2.53 2.98-3.88 4.46-.99-1.53-2.52-2.94-2.89-4.6-1.7-7.6-3.3-15.23-4.5-22.92-.9-5.76-2.68-10.89-6.87-15.1-.71-.71-1.45-2.57-1.12-2.92.77-.83 2.27-1.64 3.31-1.47 15.34 2.53 29.29-3.06 42.85-8.45 9.23-3.67 15.51-.83 22.08 4.52 2.83 2.31 2.96 4.47.83 7.64-3.78 5.61-6.81 11.72-10.43 17.45-2.12 3.37-1.74 5.71 1.68 7.75.92.55 1.51 1.67 2.83 3.2zm-43.7-1.93c8.71-1.63 16.69-3.07 24.63-4.69 1.12-.23 2.74-1.22 2.95-2.13 1.44-6.29 2.79-12.61 3.71-18.99.57-3.94-1.92-5.52-5.57-4.6-8.03 2.03-16.03 4.22-23.98 6.55-1.13.33-2.73 1.87-2.71 2.82.12 6.95.59 13.89.97 21.04z"/></g><path d="m385.2 377.6.6-.7c.6.4 1.3.9 1.9 1.5l-.6.7c-.8-.5-1.4-1-1.9-1.5zm.3 7.1c.6-1.4 1.1-2.9 1.5-4.5.3.1.6.3.9.4-.5 1.4-1 2.9-1.5 4.4zm.2-10.1.6-.6c.7.5 1.3 1.1 1.9 1.6l-.7.7c-.6-.6-1.2-1.2-1.8-1.7zm8.4-.8h.8v.9h1.8v.7h-1.8v1.8h-.8v-.3h-1.2v.9h3.3v2.6h-.8v-.4h-2.5c0 .3 0 .6-.1.8h3.4v.7h-3.5c0 .3-.1.6-.1.8h4v.7h-3.5c.7.9 1.9 1.3 3.6 1.5-.2.2-.4.5-.6.9-1.9-.3-3.2-1.1-3.8-2.3-.5 1.1-1.8 2-3.9 2.4-.2-.3-.4-.5-.6-.8 1.9-.4 3.1-.9 3.6-1.7h-3.2v-.7h3.5c.1-.2.1-.5.2-.8h-3.3v-.7h3.4c0-.2 0-.5 0-.8h-2.4v.3h-.8v-2.6h3.3v-.9h-1.2v.3h-.8v-1.8h-1.8v-.7h1.8v-.9h.8v.9h3.2zm-4.4 5.5h2.4c0-.3 0-.6 0-.9h-2.4zm1.2-3.1h3.2v-.8h-3.2zm4.4 2.2h-2.4v.9h2.5v-.9z" fill="#fbfcfa"/><path d="m389.2 385.8h.9v1.5h1.9v-1.5h.9v1.5h2.7v6h1.1v.9h-11.3v-.9h1.1v-6h2.7zm.2 8.7.5.8c-1.2.6-2.5 1.3-4 1.9-.2-.3-.3-.6-.6-.8 1.6-.6 3-1.3 4.1-1.9zm-2-4.3h1.9v-2.1h-1.9zm0 3.1h1.9v-2.2h-1.9zm2.7-3.1h1.9v-2.1h-1.9zm0 3.1h1.9v-2.2h-1.9zm2.4 1.3c1.4.6 2.7 1.2 4.1 1.8l-.5.9c-1.5-.7-2.8-1.4-4.1-1.9zm2.2-6.5h-1.9v2.1h1.9zm-1.9 5.2h1.9v-2.2h-1.9z" fill="#fbfcfa"/></svg>