<svg enable-background="new 0 0 400 400" viewBox="0 0 400 400" xmlns="http://www.w3.org/2000/svg"><path d="m377.9 391.2c-.2.3-.4.5-.6.8-.7-.6-1.4-1-2.2-1.5.2-.3.4-.5.5-.8.6.4 1.4.8 2.3 1.5zm-1.8 6.1c-.2-.2-.5-.4-.9-.6.4-.6.8-1.2 1.2-1.9s.7-1.3.9-1.9c.3.3.5.5.8.7-.7 1.3-1.4 2.6-2 3.7zm2.2-9c-.3.3-.5.5-.6.8-.6-.6-1.3-1.1-2-1.5.3-.3.5-.5.6-.7.6.5 1.3.9 2 1.4zm.3.2v-.9h2 4.5c-.3 1.3-.6 2.5-1 3.6s-.9 2.1-1.4 3c.4.5 1 1 1.6 1.4s1.2.8 1.9 1.1c-.3.2-.5.4-.8.8-.4-.3-1-.7-1.6-1.2s-1.2-1.1-1.6-1.6c-.5.6-1.1 1.1-1.7 1.6s-1.4.9-2.1 1.4c-.1-.3-.3-.5-.7-.8.6-.2 1.2-.5 1.9-1s1.4-1.1 2-1.8c-.5-.8-.9-1.6-1.2-2.5s-.6-2-.8-3.2c-.4.1-.7.1-1 .1zm2.5 2.7c.3 1 .7 1.7 1 2.2.3-.5.6-1.1 1-2s.6-1.9.9-3h-3.2-.4c.1.9.3 1.8.7 2.8z" fill="#fbfafc"/><path d="m396.5 388.5v1.5 3.6h1.5v.9c-.4 0-1 0-1.7 0h-7.9c-.5 0-.9 0-1.2 0v-.9h1.3v-3.5c0-.7 0-1.2 0-1.6h2.4c0-.8 0-1.4 0-1.7h1c0 .3-.1.8-.1 1.7h1.5c0-.8 0-1.4 0-1.7h1c0 .3-.1.9-.1 1.7zm-8.2 9.2c-.2-.3-.5-.5-.8-.8.8-.3 1.4-.6 1.9-.9s1-.7 1.4-1.1c.3.3.6.5.9.8-1.6 1-2.8 1.6-3.4 2zm2.6-6.8v-1.6h-1.5v1.6zm0 2.7v-1.9h-1.5v1.9zm2.4-2.7v-1.6h-1.5v1.6zm0 2.7v-1.9h-1.5v1.9zm.2 2 .7-.8c.4.2.9.5 1.6.8s1.3.7 1.8 1c-.3.3-.5.5-.8.8-.4-.3-1.5-1-3.3-1.8zm2-4.7v-1.6h-1.4v1.6zm0 2.7v-1.9h-1.4v1.9z" fill="#fbfafc"/><g fill="#010103"><path d="m191.54 186.46c14.61-4.13 23.57 3.64 33.23 11.25 4.97-19.57 4.52-38.53-1.35-57.66-2.99.74-5.99 1.14-8.71 2.23-8.65 3.47-14.71-1.29-20.46-6.41-3.48-3.1-2.7-5.61 1.92-6.36 5.23-.84 10.6-.75 15.86-1.43 25.65-3.31 50.31-10.42 74.31-19.89 5.08-2.01 9.94-2.79 14.89-.63 6.23 2.71 12.4 5.59 18.36 8.84 4.24 2.31 5.07 6.69 2.52 10.32-8.01 11.37-8.4 24.48-9.99 37.53-3.3 27.16-7.22 54.25-10.89 81.37-.2 1.47-.34 2.96-.55 4.81 20.83 8.58 43.72 10.94 64.98 19.55-5.51 6.96-49.87 12.58-71.46 9.77-2.94 7.82-5.14 16.08-9.04 23.45-5.09 9.61-11.46 18.55-17.46 27.65-1.04 1.58-2.93 2.7-4.6 3.76-7.26 4.6-11.96 3.86-17.18-2.97-9.19-12.01-18.26-24.1-27.27-36.25-.87-1.18-.9-2.99-1.32-4.5 1.65.13 3.51-.2 4.92.45 8.6 3.94 16.93 8.53 25.69 12.06 8.89 3.58 10.74 2.74 14.87-5.9 4.44-9.28 8.35-18.82 12.21-28.35.57-1.41.29-4.09-.7-5.08-12.45-12.49-25.1-24.78-37.72-37.11-.34-.33-.82-.52-1.25-.78-18.99 42.7-51.53 81.88-74.44 88.14 1.45-2.76 2.19-4.69 3.36-6.3 12.46-17.24 25.96-33.83 37.15-51.86 7.78-12.54 12.38-27.06 18.44-40.67 1.34-3.02.7-5.2-1.98-7.24-7.4-5.63-14.66-11.44-21.92-17.24-1.31-1.07-2.37-2.42-4.42-4.55zm91.83 56.7c1.63-7.95 3.55-15 4.46-22.18 2.47-19.43 4.97-38.87 6.53-58.38.82-10.22-.2-20.6-.58-30.9-.14-3.83-1.99-6.32-6.37-5.7-7.88 1.12-15.81 1.95-23.61 3.45-8.08 1.55-16.04 3.74-25.02 5.88 4.62 2.09 8.14 3.53 11.51 5.26 3.57 1.84 4.55 4.67 3.59 8.76-4.67 19.68-9.13 39.42-13.53 59.17-.3 1.36.05 3.58.98 4.38 12.86 11.08 26.25 21.47 42.04 30.26z"/><path d="m151.16 143.95c1.93 1.55 3.11 2.63 4.41 3.51 6.89 4.7 7.33 6.65 5.98 15.08-1.62 10.11-2.54 20.34-3.7 29.94 6.21.85 11.54 1.36 16.76 2.38 2.38.47 4.99 1.48 6.71 3.1 2.01 1.89 3.15 4.69 4.67 7.1-2.43 1.03-4.78 2.65-7.3 2.99-6.89.92-13.85 1.29-21.63 1.96v27.83c0 20.49.47 41-.17 61.47-.43 13.58-2.42 27.11-3.81 40.65-.18 1.78-.57 3.78-1.57 5.17-1.61 2.23-3.8 4.03-5.75 6.01-1.87-2.1-4.85-3.94-5.41-6.34-1.38-5.94-2.24-12.13-2.27-18.23-.2-35.99-.1-71.98-.1-107.97 0-1.8 0-3.59 0-5.96-10.49 1.87-20.45 3.49-30.29 5.6-1.14.25-2.33 3.18-2.44 4.93-1 15.96-3.05 31.75-8.25 46.93-8.71 25.39-25.27 44.62-47.55 59.1-3.59 2.34-7.57 4.69-13.46 2.49 2.39-2.9 4.14-5.42 6.27-7.56 13.33-13.4 25.73-27.52 32.95-45.29 6.71-16.53 11.96-33.48 11.76-51.62-.01-1.3-.15-2.61-.26-4.41-5.55 1.58-10.88 2.82-16.01 4.63-12.22 4.32-22.58.58-31.89-7.2-1.76-1.47-3.72-5.16-3.03-6.5.99-1.9 4.26-3.4 6.7-3.64 14.65-1.45 29.34-2.49 44.92-3.74-.55-14.11-.65-27.23-1.75-40.27-.51-5.96-2.92-10.95-10.92-11.77-5.05-.51-9.85-4.31-14.53-7.04-1.24-.72-1.6-2.95-2.37-4.49 1.45-.65 2.84-1.66 4.34-1.88 14.11-2.07 28.38-3.36 42.34-6.15 13.6-2.72 27-6.61 40.3-10.61 10.23-3.08 20.23-3.57 30.31-.14 2.46.84 4.93 2.19 6.88 3.89 3.95 3.44 3.06 8.09-2.02 9.51-7.96 2.22-16.11 3.81-24.18 5.65-1.19.29-2.45.48-4.64.89zm-43.37 8.87c.42 4.56 1.27 8.55 1.06 12.49-.66 12.18-1.73 24.34-2.69 37.23 11.3-1.97 21.49-3.74 31.84-5.55 0-9.55-.15-18.52.05-27.49.16-7.16-2.48-13.31-6.2-19.11-.62-.97-2.38-2-3.4-1.81-7.33 1.33-14.59 2.96-20.66 4.24z"/><path d="m128.58 118.04c.73-2.16 1.15-4.48 2.24-6.44 6.26-11.31 12.78-22.47 18.99-33.81 3.58-6.54 5.25-13.51 3.68-21.11-.76-3.69 1.84-5.9 5.17-5.62 12.33 1.01 23.07 5.79 31.33 15.19 2.76 3.14 1.67 6.72-1.48 9.17-18.07 14.08-36.21 28.08-54.39 42.03-1.09.84-2.66 1.07-4.01 1.58-.51-.33-1.02-.66-1.53-.99z"/><path d="m122 112.1c0 1 .34 2.17-.06 2.96-1.52 2.98-2.67 7.32-5.11 8.33-2.36.97-7.19-.6-9.15-2.71-11.26-12.17-22.01-24.81-32.87-37.35-2.28-2.63-4.53-5.36-6.29-8.34-.98-1.67-.9-3.95-1.3-5.96 2.16-.28 4.66-1.41 6.43-.7 6.29 2.52 12.67 5.12 18.39 8.69 7.7 4.81 14.96 10.36 22.12 15.96 6.1 4.77 7.57 11.79 7.84 19.12z"/></g></svg>