<svg enable-background="new 0 0 400 400" viewBox="0 0 400 400" xmlns="http://www.w3.org/2000/svg"><path d="m247.61 295.91c2.13.31 4.3.44 6.38.96 7.88 1.98 15.65 4.42 23.6 6.02 6.18 1.25 8.95-.62 11.96-6.33 8.81-16.72 14.48-34.57 18.26-52.99 4.84-23.58 5.53-47.51 5.01-71.5-.02-.83-.07-1.67-.17-2.49-.95-7.79-1.98-8.64-9.83-7.66-7.41.93-14.83 1.85-22.18 3.15-1.37.24-3.15 2.07-3.53 3.49-5.13 19.04-9.21 38.42-15.22 57.17-8.87 27.65-21.39 53.77-39.33 76.81-7.12 9.15-15.73 17.17-23.86 25.5-1.85 1.89-4.54 2.96-6.84 4.41-.42-.34-.85-.68-1.27-1.01.82-1.97 1.49-4.02 2.48-5.91 11.74-22.36 24.22-44.37 35.13-67.13 13.31-27.76 22.55-57.09 29.55-87.08.14-.61.02-1.29.02-2.42-5.82.55-11.66.61-17.28 1.77-7.58 1.56-12.85-1.88-17.73-6.72-.86-.85-1.92-2.73-1.56-3.32.62-1.02 2.23-1.78 3.52-1.99 10.64-1.68 21.31-3.26 31.98-4.77 3.23-.46 4.98-1.45 5.67-5.29 4.04-22.34 5.97-44.83 5.52-67.5-.08-4.05-1.55-8.11-2.62-12.09-.95-3.51.29-4.95 3.78-5.19 6.74-.47 18.28 6.03 21.03 12.25.7 1.58 1.04 3.59.77 5.29-2.46 15.88-5.17 31.73-7.64 47.61-1.01 6.52-1.61 13.1-2.52 20.73 10.8-2.95 20.96-5.21 30.75-8.57 7.09-2.44 12.64-2.48 17.65 3.17 3.35 3.78 6.22 8.26 8.17 12.9 1.15 2.73 1.17 6.97-.18 9.54-4.6 8.73-4.8 18.16-5.95 27.53-3.24 26.53-5.88 53.17-10.35 79.49-3.11 18.31-9.16 36.11-20.54 51.34-2.92 3.91-6.69 7.46-10.74 10.19-5.03 3.4-8.73 2.62-12.82-1.9-3-3.31-5.25-7.28-8.19-10.66-5.9-6.78-12.06-13.33-18.05-20.03-1.38-1.54-2.52-3.3-3.78-4.96.32-.6.63-1.21.95-1.81z" fill="#010100"/><path d="m123.85 164.93c16.81-2.99 32.49-5.73 48.15-8.58 5.06-.92 10.04-2.23 15.09-3.18 8.56-1.61 16.1 1.47 23.15 5.78 1.49.91 3.14 4.05 2.61 5.21-.77 1.7-3.31 3.27-5.31 3.61-8.02 1.36-16.14 2.13-24.19 3.28-14.46 2.06-28.88 4.46-43.37 6.25-5.62.69-11.4.11-17.53.11-2.8 13.25-5.74 27.14-8.67 41.01 8.92 6.31 18.86 5.37 28.78 3.16 14.23-3.17 28.33-6.94 42.6-9.91 3.26-.68 7.38.04 10.39 1.53 5.48 2.72 10.45 6.46 15.58 9.86 3.25 2.15 3.99 5.09 2.48 8.7-3.51 8.37-7.09 16.71-10.37 25.17-2.58 6.65-4.62 13.51-7.13 20.19-1.02 2.71-.89 4.49 1.57 6.42 1.49 1.16 2.13 3.41 3.15 5.18-2.03.79-4.01 2.11-6.09 2.29-16.72 1.48-33.45 2.81-50.19 4.02-4.26.31-8.56.05-13.07.05-.47 2.95-.76 5.91-1.47 8.77-.39 1.57-1.47 4.22-2.23 4.21-1.94-.01-4.7-.68-5.65-2.08-1.9-2.81-3.44-6.19-3.99-9.52-1.13-6.86-1.43-13.86-2.22-20.78-1.64-14.33-3.38-28.64-5.11-42.96-.07-.6-.5-1.15-1.26-2.83-9.86 30.58-23.08 57.96-48.51 77.32-.57-.29-1.15-.57-1.72-.86 1.04-2.66 1.9-5.4 3.15-7.96 10.96-22.55 22.5-44.86 29.39-69.13 7.76-27.35 15.26-54.75 15.17-83.54-.03-10.62.15-21.24-.09-31.85-.06-2.73-1.26-5.46-2.08-8.14-1.45-4.74.81-7.73 5.57-6.57 3.48.85 6.82 2.57 9.97 4.34 2.53 1.42 4.57 1.93 7.34.43 9.34-5.06 18.88-9.76 28.23-14.79 6.01-3.23 11.74-6.81 15.38-13.05 2.15-3.68 5.34-4.47 9.75-2.81 7.03 2.65 14.28 4.75 19.45 10.59 3.72 4.2 3.03 6.61-2.25 8.32-15.94 5.15-31.87 10.32-47.91 15.14-5.86 1.76-12.04 2.4-17.99 3.9-1.3.33-3.05 2.04-3.21 3.29-1.55 12.52-2.82 25.07-4.14 37.62-.4 3.77-.71 7.53-1.2 12.79zm8.35 119.81c14.21-2.35 27.97-4.51 41.66-7.03 1.83-.34 4.44-2.23 4.81-3.84 2.59-11.14 5.01-22.35 6.84-33.64 1.43-8.87-.96-12.61-10.96-11.62-14.97 1.49-29.83 4.11-45.09 6.3.89 16.23 1.8 32.76 2.74 49.83z" fill="#010100"/><g fill="#fafafb"><path d="m374.8 390.4.4-.4c.7.5 1.3 1 1.8 1.4l-.5.5c-.5-.6-1.1-1.1-1.7-1.5zm1 7.3-.6-.3c.5-1.4 1.1-2.8 1.5-4.3.2.1.4.2.6.3-.5 1.3-1 2.8-1.5 4.3zm-.4-10.3.4-.4c.4.3 1 .8 1.7 1.4l-.5.5c-.4-.5-1-1-1.6-1.5zm2.5.3h1.7v-1h.6v1h3.5v-1h.6v1h1.8v.5h-1.8v1.4h-2v1h3.2v2h-3.2v.9h3.3v.5h-3.4c0 .3-.1.6-.1.9h4v.5h-3.7c.7.9 1.9 1.5 3.8 1.7-.1.2-.2.4-.3.6-2.1-.4-3.5-1.1-4-2.1-.4 1-1.8 1.7-4 2.2-.1-.2-.2-.4-.3-.6 2.1-.4 3.4-1 3.8-1.8h-3.4v-.5h3.6c.1-.3.1-.6.2-.9h-3.3v-.5h3.4c0-.3 0-.6 0-.9h-3.2v-2h3.3v-1h-2.1v-1.4h-1.7v-.5zm1.1 3.5v1h2.7c0-.3 0-.4 0-.4 0-.1 0-.2 0-.2 0-.1 0-.2 0-.3h-2.7zm1.2-3v.9h3.5v-.9zm4.7 3h-2.6v.6.4h2.6z"/><path d="m393.6 386.7h.6v1.5h2.7v6.1h1.1v.6h-11v-.6h1.1v-6.1h2.7v-1.5h.6v1.5h2.1v-1.5zm-2.7 8.8.4.6c-1.2.6-2.5 1.3-3.8 1.9-.1-.2-.2-.4-.3-.6 1.2-.6 2.5-1.2 3.7-1.9zm-2.2-6.7v2.4h2.1v-2.4zm0 3v2.5h2.1v-2.5zm2.8-3v2.4h2.1v-2.4zm0 3v2.5h2.1v-2.5zm6 6.1c-1.4-.7-2.7-1.3-3.9-1.8l.3-.6c1.5.6 2.7 1.2 3.9 1.7zm-1.2-9.1h-2.1v2.4h2.1zm-2.1 3v2.5h2.1v-2.5z"/></g></svg>