<svg enable-background="new 0 0 400 400" viewBox="0 0 400 400" xmlns="http://www.w3.org/2000/svg"><g fill="#010100"><path d="m239.59 329.63c3.31-.36 5.02-.74 6.73-.7 6.8.13 13.6.39 20.4.59 3.42.1 5.84-1.53 6.78-4.75 1.25-4.29 2.83-8.65 3.05-13.03.47-9.27.14-18.58.14-27.87-24.54-.4-48.54 7.31-73.24 4.29-2.88 9.12-5.72 19.34-9.33 29.28-5.01 13.79-13.51 25.5-23.27 36.31-3.11 3.45-3.74 3.55-8.18 2.84.67-1.74 1.16-3.43 1.94-4.98 10.72-21.5 19.8-43.7 22.71-67.64 1.84-15.09 1.42-30.46 1.66-45.71.11-6.96-.25-13.99-1.15-20.89-.44-3.37-2.71-6.48-4-9.77-.78-2-2.3-4.63-1.6-6.03.77-1.53 3.91-2.97 5.69-2.65 4.15.75 8.06 2.73 12.16 3.9 2.59.74 5.36 1.39 8.01 1.25 21.55-1.11 42.4-5.51 62.47-13.59 2.32-.93 5.4-1.12 7.82-.49 9.01 2.35 16.86 7.18 23.19 13.86 1.5 1.58 1.33 6.34.09 8.64-4.35 8.07-5.89 16.64-5.55 25.51 1.12 29.06 2.84 58.1 3.7 87.17.38 12.92-5.44 24.16-12.96 34.34-2.15 2.92-5.46 1.83-8.03-.18-5.11-3.99-10.03-8.23-15.21-12.13-6.11-4.6-12.41-8.95-18.62-13.43-1.38-1.02-2.74-2.11-5.4-4.14zm-31.41-85.41c8.02-1.75 15.28-3.33 22.54-4.9 15.1-3.28 29.85-9.71 46.22-4.74 0-2.2.02-4.01 0-5.82-.06-4.16.15-8.35-.27-12.47-1.05-10.26-3.4-11.83-13.67-9.73-.33.07-.64.2-.96.26-16.04 2.55-32.1 5-48.1 7.77-1.49.26-3.59 2.43-3.76 3.9-.93 8.21-1.34 16.47-2 25.73zm-3 36.12c5.76-1.06 10.92-2.15 16.13-2.94 18.55-2.81 36.53-11.76 55.96-4.88 0-9.28 0-18.19 0-27.75-23.15 2.79-45.9 5.53-69.29 8.34-.83 8.01-1.77 17.17-2.8 27.23z"/><path d="m233 96.55c-10.87 1.32-21.02 2.96-31.24 3.67-9.21.64-18.42-.03-25.67-7.04-1.26-1.22-2.31-2.66-4.46-5.17 20.79-1.79 40.25-3.47 60.2-5.19-.12-13.03.98-25.37-7.29-35.97-1.8-2.31-4.34-5.35-1.31-7.86 2.09-1.73 6.02-3.11 8.35-2.33 7.5 2.51 14.75 5.86 21.86 9.36 3.8 1.87 4.82 5.22 3.65 9.69-1.9 7.3-3.06 14.78-4.82 23.65 13.07-3.1 24.64-5.82 36.19-8.59 8.42-2.02 16.62-1.37 24.14 2.88 2.29 1.29 3.61 4.29 5.38 6.51-2.28 1.66-4.38 4.38-6.88 4.81-13.39 2.35-26.88 4.15-40.33 6.11-5.26.77-10.56 1.32-15.78 2.33-1.28.25-3.17 1.77-3.3 2.88-.81 7.05-1.2 14.15-1.78 21.97 9.71-1.96 18.7-3.44 27.51-5.65 9.94-2.49 18.35.97 26.43 5.88 1.51.92 2.83 3.54 2.72 5.27-.08 1.24-2.59 3.09-4.21 3.33-8.19 1.24-16.45 2.01-24.68 3.01-9.38 1.14-18.76 2.34-28.76 3.59-.65 8.37-1.29 16.73-2 25.82 10.35-1.78 19.98-3.3 29.55-5.11 15.82-2.99 31.57-6.41 47.42-9.18 12.98-2.26 23.33 3.69 32.25 12.29 3.51 3.39 2.15 6.62-2.7 7.91-1.27.34-2.61.55-3.92.61-23.09 1.06-46.27 1.16-69.25 3.39-24.1 2.34-48.03 6.49-71.97 10.3-11.61 1.85-23.02 4.96-34.59 7.09-7.94 1.46-15.69.74-21.85-5.36-1.32-1.31-2.01-3.26-2.99-4.91 1.7-.84 3.32-2.17 5.11-2.44 12.14-1.87 24.33-3.37 36.47-5.26 14.07-2.19 28.1-4.65 42.29-7.02 0-8.54 0-16.64 0-25.52-9.87 1.79-19.54 3.11-28.98 5.38-9.74 2.34-17.23-1.18-24.04-7.41-.84-.77-1.76-2.77-1.38-3.3.74-1.04 2.31-1.85 3.64-2.05 11.99-1.76 24.01-3.35 36.01-5.01 14.98-2.07 14.98-2.08 14.98-17.16.03-3.29.03-6.57.03-10.2z"/><path d="m76.16 219.35c-1.26 7.65-2.26 13.7-3.42 20.72-8.74-5.41-11.55-12.53-12.82-20.39-1.83-11.3-2.73-22.77-5.1-33.94-2.65-12.45-6.26-24.72-9.92-36.93-2.16-7.21-1.05-9.04 6.25-7.79 2.28.39 4.78.61 6.71 1.72 5.94 3.39 11.62 2.12 17.62.2 11.43-3.65 22.86-7.16 32.4-14.93 3.58-2.92 7.76-3.01 11.78-1.19 6.67 3.01 13.28 6.17 19.75 9.57 4.43 2.33 4.32 5.74 1.51 11.6-3.28 6.83-6.56 13.83-8.44 21.12-2.14 8.3-2.86 16.99-3.85 25.55-.14 1.24 1.54 2.76 2.5 4.05 1.31 1.76 2.75 3.44 4.13 5.15-1.86 1.1-3.59 2.74-5.6 3.21-18.08 4.28-36.2 8.34-53.5 12.28zm-2.27-10.53c12.31-4.27 23.43-8.07 34.49-12.04 1.03-.37 2.34-1.69 2.42-2.66 1.14-13.24 2.42-26.48 2.95-39.74.27-6.73-3.64-9.61-10.62-8.05-11.76 2.63-23.37 5.9-35.84 9.11 2.19 17.71 4.32 34.95 6.6 53.38z"/></g><path d="m385.2 377.6.6-.7c.6.4 1.3.9 1.9 1.5l-.6.7c-.8-.5-1.4-1-1.9-1.5zm.3 7.1c.6-1.4 1.1-2.9 1.5-4.5.3.1.6.3.9.4-.5 1.4-1 2.9-1.5 4.4zm.2-10.1.6-.6c.7.5 1.3 1.1 1.9 1.6l-.7.7c-.6-.6-1.2-1.2-1.8-1.7zm8.4-.8h.8v.9h1.8v.7h-1.8v1.8h-.8v-.3h-1.2v.9h3.3v2.6h-.8v-.4h-2.5c0 .3 0 .6-.1.8h3.4v.7h-3.5c0 .3-.1.6-.1.8h4v.7h-3.5c.7.9 1.9 1.3 3.6 1.5-.2.2-.4.5-.6.9-1.9-.3-3.2-1.1-3.8-2.3-.5 1.1-1.8 2-3.9 2.4-.2-.3-.4-.5-.6-.8 1.9-.4 3.1-.9 3.6-1.7h-3.2v-.7h3.5c.1-.2.1-.5.2-.8h-3.3v-.7h3.4c0-.2 0-.5 0-.8h-2.4v.3h-.8v-2.6h3.3v-.9h-1.2v.3h-.8v-1.8h-1.8v-.7h1.8v-.9h.8v.9h3.2zm-4.4 5.5h2.4c0-.3 0-.6 0-.9h-2.4zm1.2-3.1h3.2v-.8h-3.2zm4.4 2.2h-2.4v.9h2.5v-.9z" fill="#fbfcfa"/><path d="m389.2 385.8h.9v1.5h1.9v-1.5h.9v1.5h2.7v6h1.1v.9h-11.3v-.9h1.1v-6h2.7zm.2 8.7.5.8c-1.2.6-2.5 1.3-4 1.9-.2-.3-.3-.6-.6-.8 1.6-.6 3-1.3 4.1-1.9zm-2-4.3h1.9v-2.1h-1.9zm0 3.1h1.9v-2.2h-1.9zm2.7-3.1h1.9v-2.1h-1.9zm0 3.1h1.9v-2.2h-1.9zm2.4 1.3c1.4.6 2.7 1.2 4.1 1.8l-.5.9c-1.5-.7-2.8-1.4-4.1-1.9zm2.2-6.5h-1.9v2.1h1.9zm-1.9 5.2h1.9v-2.2h-1.9z" fill="#fbfcfa"/></svg>