<svg enable-background="new 0 0 400 400" viewBox="0 0 400 400" xmlns="http://www.w3.org/2000/svg"><g fill="#010100"><path d="m199.82 225.92c0-10.29.18-19.76-.05-29.21-.19-7.84-2.92-10.01-10.45-7.59-7.53 2.41-14.74 5.81-22.08 8.77-.9.36-1.81 1.08-2.7 1.05-3.74-.15-10.94-11.23-8.88-14.22 6.17-8.95 3.93-18.55 2.64-27.99-.84-6.2-2.63-12.29-4.12-18.4-1.25-5.12 2.41-9.3 7.1-6.89 12.91 6.64 23.18-2.76 34.63-4.7.78-.13 1.81-1.9 1.82-2.92.12-9.99.3-20-.06-29.98-.24-6.64-1.91-7.54-8.55-7.83-5.79-.26-11.56-1.06-17.33-1.7-1.12-.13-2.45-.35-3.23-1.04-1.53-1.36-2.75-3.07-4.09-4.64 1.77-.93 3.46-2.43 5.33-2.7 27.74-4.1 55.53-7.8 83.23-12.14 8.95-1.4 17.67-4.34 26.47-6.69 9.64-2.56 17.55 1.41 24.95 6.72 2.94 2.11 2.63 4.71-1.25 5.58-9.04 2.02-18.12 3.85-27.21 5.66-4.47.89-8.99 1.55-14.37 2.47 1.76 1.3 2.76 2.06 3.79 2.78 4.93 3.41 4.68 5.29 2.88 10.89-2.72 8.43-4.34 17.22-6.14 25.92-.67 3.25 1.59 4.06 4.35 3.43 9.38-2.12 18.81-4.06 28.08-6.57 5.14-1.4 9.8-1.56 14.23 1.61 5.13 3.67 10.42 7.16 15.26 11.18 4.17 3.45 4.15 5.49-.14 8.61-10.84 7.89-12.87 20.53-17.52 31.74-.3.73.88 2.2 1.56 3.19 1.08 1.57 2.33 3.03 4.36 5.62-4.58.84-8.02 1.62-11.5 2.08-10.52 1.42-21.07 2.66-31.58 4.15-1.12.16-2.85 1.41-2.98 2.35-1.53 10.82-2.8 21.67-4.26 33.45 6.67-.79 12.86-1.4 19-2.28 10.34-1.49 20.64-3.32 31-4.7 11.96-1.59 26.06 6.94 31.31 19.36-4.05.61-7.86 1.69-11.66 1.65-15.64-.14-31.31-1.49-46.9-.76-21.22.99-42.41 3.08-63.52 5.45-11.83 1.33-23.55 3.89-35.2 6.46-6.44 1.42-12.74 3.69-18.87 6.17-3.68 1.5-6.95 1.96-10.42.04-4.94-2.74-10.02-5.3-14.7-8.43-1.63-1.09-2.28-3.65-3.37-5.54 1.72-.97 3.37-2.61 5.17-2.8 10.41-1.08 20.87-1.58 31.27-2.74 7.89-.89 15.69-2.46 24.7-3.92zm48.37-6.29c0-8.45.44-16.42-.14-24.33-.43-5.84-1.63-11.77-3.5-17.31-1.79-5.31-1.35-6.92 4.45-6.96 4.46-.03 9.02 1.06 13.37.46 7.37-1.02 14.64-2.83 21.87-4.65 1.49-.38 3.27-2.05 3.78-3.52 2.56-7.36 4.81-14.84 7.06-22.3 3.06-10.15-1.41-15.05-11.74-12.22-8.6 2.36-16.9 5.77-25.42 8.43-2.07.64-5.12 1.04-6.61-.01-2.78-1.95-4.89-4.95-6.97-7.74-.75-1.01-1.29-2.99-.8-3.97 5.29-10.64 2.77-21.89 2.62-32.9-.06-4.16-1.42-8.3-2.2-12.57-9.79 1.42-18.64 2.7-26.81 3.89.17 2.58 1.1 5.09.32 6.84-5.06 11.29-4.38 23.38-5.28 35.24-.09 1.18.93 2.59 1.75 3.65 1.25 1.61 2.78 3 4.18 4.48-1.99.92-3.95 1.9-5.97 2.72-.74.3-1.65.18-2.46.34-10.73 2.1-21.48 4.09-32.14 6.48-1.45.33-3.3 2.61-3.5 4.18-1.12 9.06-1.72 18.18-2.64 27.27-.65 6.39.99 8.22 7.18 6.51 6.53-1.8 12.8-4.5 19.3-6.41 2.72-.8 6.16-1.62 8.51-.63 4.52 1.91 8.73 4.82 12.58 7.92 1.26 1.02 2.05 4.45 1.31 5.85-5.83 10.99-3.82 23.27-7.13 35.26 12.22-1.42 23.56-2.7 35.03-4z"/><path d="m288.37 284c2.63 2.2 5.42 4.25 7.87 6.64 6.44 6.26 12.43 13.01 19.19 18.88 4.47 3.88 9.92 6.66 15.01 9.8 9.33 5.75 9.87 11.84 1.49 18.83-8.43 7.04-18.47 10.43-29.07 12.28-18.12 3.15-36.24 4.51-54.4-.08-27.54-6.96-46.51-23.39-56.14-50.29-3.97-11.09-7.82-22.22-11.88-33.28-1.14-3.1.69-3.95 2.85-4.61 3.71-1.13 8.64 1.35 10.52 5.73 1.43 3.32 2.4 6.92 3.07 10.49 5.75 30.83 22.29 45.51 54.68 51.62 10.92 2.06 21.52.06 32.06-2.5 1.91-.46 3.74-1.36 5.49-2.29 7.46-3.94 8.93-7.58 6-15.47-2.26-6.07-4.89-12-7.16-18.07-.76-2.04-.88-4.31-1.3-6.48.59-.4 1.15-.8 1.72-1.2z"/><path d="m70.78 223.37c-.24.3-.37.41-.44.55-1.26 2.82-.5 7.33-5.23 7.35-4.58.02-5.54-4.16-6.18-7.34-1.98-9.91-3.48-19.91-4.98-29.91-1.18-7.88-1.46-15.95-3.35-23.64-1.35-5.47-4.48-10.58-7.26-15.6-2.54-4.58-2.16-5.74 3.13-6.04 1.65-.09 3.57-.41 4.94.26 10.64 5.24 20.89 1.34 30.98-1.49 8.28-2.32 16.35-5.52 24.25-8.95 5.13-2.23 10-2.62 14.92-.42 5.29 2.37 10.49 5.02 15.49 7.94 2.46 1.44 4.79 3.91 1.99 6.93-8.42 9.1-11.09 20.6-13.9 32.09-1.18 4.83-2.37 9.65-3.67 14.45-1.03 3.81-2.69 7.25 1.87 10.54 2.42 1.74 1.16 4.55-2.29 5.11-16.67 2.72-33.34 5.42-50.27 8.17zm-1.02-11.59c1.33.07 2.02.27 2.61.11 9.92-2.64 19.84-5.28 29.71-8.08.78-.22 1.67-1.56 1.76-2.46 1.4-13.19 2.84-26.38 3.9-39.6.43-5.32-2.3-8.33-7.43-7.52-11.84 1.87-23.56 4.51-35.61 6.9 1.73 17.33 3.38 33.79 5.06 50.65z"/><path d="m305.32 255.49c5.4 1 11.19 1.08 16.12 3.18 10.93 4.66 21.76 9.77 32.01 15.76 7.68 4.49 9.74 14.12 6.49 22.54-2.83 7.32-8.38 9.25-14.36 4.15-4.89-4.17-8.8-9.46-13.26-14.15-8.11-8.53-16.31-16.97-24.42-25.5-1.27-1.34-2.23-2.97-3.33-4.47.25-.51.5-1.01.75-1.51z"/><path d="m158.84 291.16c-1.41 16.67-6.19 29.5-15.37 40.57-2.66 3.21-6.11 5.48-10.49 3.96-4.71-1.63-7.65-5.43-7.12-10.27.6-5.46 1.77-11.15 4.12-16.05 3.35-6.99 8.19-13.26 12.04-20.04 2.28-4.01 3.75-8.46 5.83-12.6.67-1.34 2.13-2.28 3.22-3.4 1.09 1.15 2.69 2.12 3.18 3.49 1.94 5.39 3.52 10.9 4.59 14.34z"/><path d="m228.22 252.6c12.97.02 30.97 13.27 32.91 25.47.69 4.34-1.37 9.65-3.57 13.77-2.03 3.81-7.8 3.2-11.56-1.22-3.85-4.53-7.07-9.63-10.2-14.7-3.49-5.66-6.56-11.57-9.8-17.38-2.12-3.79-1.31-5.94 2.22-5.94z"/></g><path d="m385.2 377.6.6-.7c.6.4 1.3.9 1.9 1.5l-.6.7c-.8-.5-1.4-1-1.9-1.5zm.3 7.1c.6-1.4 1.1-2.9 1.5-4.5.3.1.6.3.9.4-.5 1.4-1 2.9-1.5 4.4zm.2-10.1.6-.6c.7.5 1.3 1.1 1.9 1.6l-.7.7c-.6-.6-1.2-1.2-1.8-1.7zm8.4-.8h.8v.9h1.8v.7h-1.8v1.8h-.8v-.3h-1.2v.9h3.3v2.6h-.8v-.4h-2.5c0 .3 0 .6-.1.8h3.4v.7h-3.5c0 .3-.1.6-.1.8h4v.7h-3.5c.7.9 1.9 1.3 3.6 1.5-.2.2-.4.5-.6.9-1.9-.3-3.2-1.1-3.8-2.3-.5 1.1-1.8 2-3.9 2.4-.2-.3-.4-.5-.6-.8 1.9-.4 3.1-.9 3.6-1.7h-3.2v-.7h3.5c.1-.2.1-.5.2-.8h-3.3v-.7h3.4c0-.2 0-.5 0-.8h-2.4v.3h-.8v-2.6h3.3v-.9h-1.2v.3h-.8v-1.8h-1.8v-.7h1.8v-.9h.8v.9h3.2zm-4.4 5.5h2.4c0-.3 0-.6 0-.9h-2.4zm1.2-3.1h3.2v-.8h-3.2zm4.4 2.2h-2.4v.9h2.5v-.9z" fill="#fbfcfa"/><path d="m389.2 385.8h.9v1.5h1.9v-1.5h.9v1.5h2.7v6h1.1v.9h-11.3v-.9h1.1v-6h2.7zm.2 8.7.5.8c-1.2.6-2.5 1.3-4 1.9-.2-.3-.3-.6-.6-.8 1.6-.6 3-1.3 4.1-1.9zm-2-4.3h1.9v-2.1h-1.9zm0 3.1h1.9v-2.2h-1.9zm2.7-3.1h1.9v-2.1h-1.9zm0 3.1h1.9v-2.2h-1.9zm2.4 1.3c1.4.6 2.7 1.2 4.1 1.8l-.5.9c-1.5-.7-2.8-1.4-4.1-1.9zm2.2-6.5h-1.9v2.1h1.9zm-1.9 5.2h1.9v-2.2h-1.9z" fill="#fbfcfa"/></svg>