<svg enable-background="new 0 0 400 400" viewBox="0 0 400 400" xmlns="http://www.w3.org/2000/svg"><path d="m231.52 317.78c0-13.12 0-25.87 0-37.71-9.93 0-19.55.21-29.15-.09-5.1-.16-10.19-1.1-15.25-1.92-1.58-.26-3.44-.91-4.46-2.03-1.8-1.98-3.05-4.46-4.53-6.73 2.12-.49 4.22-1.23 6.37-1.45 15.66-1.6 31.33-3.09 46.65-4.59 0-14.5 0-28.07 0-41.19-11.21 0-21.72 0-32.38 0-.63 1.96-.9 3.84-1.81 5.32-1.06 1.71-2.62 4.19-4.09 4.28-1.58.09-4.31-1.9-4.78-3.5-2.06-7.11-3.93-14.33-5.07-21.64-3.24-20.67-5.92-41.42-9.16-62.09-1.43-9.14-4.95-17.49-11.37-24.51-1.63-1.78-2.15-4.58-3.18-6.91 2.51-.4 5.02-.85 7.54-1.17.81-.1 1.74-.09 2.47.22 13.06 5.56 26.66 3.34 39.75 1.44 25.57-3.72 50.93-8.93 76.37-13.54 1.3-.24 2.59-.59 3.82-1.06 18.62-7.17 34.03.49 48.75 10.75 3.25 2.27 5.86 5.77 2.39 9.68-9.12 10.28-11.6 23.24-15.39 35.78-5.75 19.06-11.73 38.05-18.05 56.92-1.31 3.91-4 7.7-6.96 10.63-4.45 4.4-9.36 3.21-11.79-2.45-1.39-3.23-3.2-4.56-6.77-4.19-8.9.93-17.83 1.58-27.53 2.41v41.99c9.72-1.66 19.75-2.91 29.54-5.17s19.26-3.85 28.39 1.87c1.4.88 3.02 1.63 4.03 2.86 1.06 1.29 2.31 3.28 1.99 4.59-.28 1.15-2.55 2.34-4.09 2.57-18.89 2.77-37.8 5.36-56.7 8-1.46.2-2.92.39-4.62.61v40.24c5.71-.5 11.26-.9 16.8-1.48 20.81-2.21 41.6-4.67 62.44-6.68 12.42-1.19 22.47 4.87 31.82 12.07 1.4 1.08 2.59 4.05 2.08 5.52-.46 1.32-3.37 2.49-5.23 2.53-24.81.53-49.66.1-74.42 1.38-38.31 1.99-76.7 4.03-114.33 12.44-13.07 2.92-23.84-1.47-33.73-9.29-1.33-1.06-1.72-3.31-2.55-5.01 1.6-.57 3.18-1.51 4.81-1.64 25.34-2.06 50.68-3.97 76.02-6.04 5.11-.4 10.17-1.32 15.36-2.02zm23-162.32c16.4-5.04 31.43-6.78 46.11 2.01 3.26-14.19 4.89-27.46 4.26-40.96-.15-3.27-2.22-4.73-5.37-4.48-8.92.71-17.85 1.34-26.74 2.33-7.46.83-14.87 2.12-23.42 3.37 2.83 1.98 4.7 3.28 6.56 4.6 4.08 2.88 4.76 6.08 3.04 11.12-2.24 6.55-2.85 13.69-4.44 22.01zm-61.8 7.15c12.94-1.5 25.51-2.95 39.07-4.52-1.03-9.69-1.44-18.49-3.03-27.08-1.51-8.16-3.89-9.45-11.74-8.96-.5.03-1 .03-1.5.08-9.71.8-19.42 1.6-29.39 2.42 2.15 12.45 4.27 24.67 6.59 38.06zm62.15 40.7c11.05-1.66 22.56-5.42 34.37.69 3.78-14.58 7.29-28.13 10.77-41.58-15.08 2.46-29.71 4.86-45.14 7.38zm-24.3 3.86c0-11.75 0-22.79 0-33.96-12.02.86-23.67 1.69-35.8 2.55 1.22 11.44 2.45 22.89 3.72 34.78 10.94-1.14 21.41-2.25 32.08-3.37z" fill="#010100"/><path d="m93.93 199.91c-7.42.86-14 2.21-20.59 2.21-7.35 0-14.72-1.17-22.06-1.98-1.23-.14-2.72-.81-3.48-1.73-.95-1.16-2-3.05-1.66-4.24.29-1.01 2.43-1.86 3.87-2.1 13.41-2.27 26.84-4.38 40.26-6.58.8-.13 1.55-.54 2.72-.97 0-20.01.31-40.15-.14-60.27-.21-9.25-1.57-18.51-3.07-27.66-.68-4.16-3.03-8.04-4.5-12.08-1.31-3.6-.54-5.68 3.88-5.76 11.79-.19 22.02 4.28 31.65 10.41 3.34 2.12 4.19 5.38 2.35 9.16-5.88 12.11-7.03 25.07-7.24 38.31-.2 12.63-1.14 25.24-1.74 37.86-.08 1.64-.01 3.28-.01 6.12 7.29-1.85 14.02-3.25 20.55-5.3 6.24-1.96 18.28 1.72 21.88 7.17 1.8 2.73.22 4.16-2.03 4.87-5.35 1.69-10.75 3.3-16.22 4.56-6.95 1.59-14.02 2.65-20.95 4.32-1.3.31-3.06 2.41-3.09 3.72-.58 19.96-.9 39.93-1.33 59.9-.08 3.61-.35 7.22-.58 11.66 2.11-.68 3.64-1.08 5.1-1.65 14.23-5.55 28.45-11.13 42.67-16.69.46-.18.97-.48 1.42-.43 2.11.21 4.2.53 6.3.81-1.14 1.48-1.98 3.45-3.47 4.36-9.64 5.89-19.4 11.61-29.18 17.28-19.26 11.16-38.63 22.14-57.81 33.44-4.55 2.68-8.47 6.41-12.82 9.44-1.31.91-3.48 1.94-4.66 1.45-8.48-3.49-16.92-7.25-22.8-14.7-1.42-1.8-1.9-4.34-2.81-6.53 1.89-.78 3.71-1.95 5.67-2.29 18-3.07 34.73-9.97 51.42-16.98 1.07-.45 2.37-2.01 2.37-3.06.16-25.13.13-50.25.13-76.05z" fill="#010100"/><g fill="#fafafb"><path d="m374.8 390.4.4-.4c.7.5 1.3 1 1.8 1.4l-.5.5c-.5-.6-1.1-1.1-1.7-1.5zm1 7.3-.6-.3c.5-1.4 1.1-2.8 1.5-4.3.2.1.4.2.6.3-.5 1.3-1 2.8-1.5 4.3zm-.4-10.3.4-.4c.4.3 1 .8 1.7 1.4l-.5.5c-.4-.5-1-1-1.6-1.5zm2.5.3h1.7v-1h.6v1h3.5v-1h.6v1h1.8v.5h-1.8v1.4h-2v1h3.2v2h-3.2v.9h3.3v.5h-3.4c0 .3-.1.6-.1.9h4v.5h-3.7c.7.9 1.9 1.5 3.8 1.7-.1.2-.2.4-.3.6-2.1-.4-3.5-1.1-4-2.1-.4 1-1.8 1.7-4 2.2-.1-.2-.2-.4-.3-.6 2.1-.4 3.4-1 3.8-1.8h-3.4v-.5h3.6c.1-.3.1-.6.2-.9h-3.3v-.5h3.4c0-.3 0-.6 0-.9h-3.2v-2h3.3v-1h-2.1v-1.4h-1.7v-.5zm1.1 3.5v1h2.7c0-.3 0-.4 0-.4 0-.1 0-.2 0-.2 0-.1 0-.2 0-.3h-2.7zm1.2-3v.9h3.5v-.9zm4.7 3h-2.6v.6.4h2.6z"/><path d="m393.6 386.7h.6v1.5h2.7v6.1h1.1v.6h-11v-.6h1.1v-6.1h2.7v-1.5h.6v1.5h2.1v-1.5zm-2.7 8.8.4.6c-1.2.6-2.5 1.3-3.8 1.9-.1-.2-.2-.4-.3-.6 1.2-.6 2.5-1.2 3.7-1.9zm-2.2-6.7v2.4h2.1v-2.4zm0 3v2.5h2.1v-2.5zm2.8-3v2.4h2.1v-2.4zm0 3v2.5h2.1v-2.5zm6 6.1c-1.4-.7-2.7-1.3-3.9-1.8l.3-.6c1.5.6 2.7 1.2 3.9 1.7zm-1.2-9.1h-2.1v2.4h2.1zm-2.1 3v2.5h2.1v-2.5z"/></g></svg>