<svg enable-background="new 0 0 400 400" viewBox="0 0 400 400" xmlns="http://www.w3.org/2000/svg"><g fill="#fafbfc"><path d="m342.2 3.2-6.3 9.2h6.1v1.2h-8.2v-.5l6.2-9.1h-5.7v-1.2h7.8v.4z"/><path d="m344 13.7v-10.9h3.1c1.6 0 3 .5 4.1 1.4 1.1 1 1.6 2.2 1.6 3.9s-.5 3-1.6 4-2.5 1.5-4.2 1.5h-3zm1.4-9.6v8.4h1.6c1.4 0 2.5-.4 3.2-1.1.8-.8 1.2-1.8 1.2-3.2s-.4-2.4-1.2-3.1-1.8-1-3.1-1z"/><path d="m356.3 2.8v10.9h-1.4v-10.9z"/><path d="m366.6 13.2c-.8.4-1.8.6-3 .6-1.6 0-2.8-.5-3.7-1.5s-1.4-2.3-1.4-3.9c0-1.7.5-3.2 1.6-4.2s2.4-1.6 4-1.6c1 0 1.9.1 2.6.4v1.5c-.8-.4-1.6-.6-2.6-.6-1.2 0-2.2.4-3 1.2s-1.1 1.9-1.1 3.3c0 1.3.4 2.3 1.1 3.1s1.6 1.1 2.8 1.1c1.1 0 2-.2 2.8-.7v1.3z"/><path d="m368.2 13c0-.3.1-.5.3-.6.2-.2.4-.3.6-.3.3 0 .5.1.7.3s.3.4.3.6-.1.5-.3.6c-.2.2-.4.3-.7.3s-.5-.1-.6-.3c-.2-.2-.3-.4-.3-.6z"/><path d="m381.1 13.7h-1.7l-5.5-8.4c-.2-.2-.3-.5-.4-.7 0 .2.1.8.1 1.5v7.6h-1.4v-10.9h1.8l5.3 8.3c.3.4.4.6.4.8 0-.3-.1-.8-.1-1.6v-7.5h1.4v10.9z"/><path d="m389.7 13.7h-5.8v-10.9h5.6v1.2h-4.2v3.5h3.9v1.2h-3.9v3.7h4.4z"/><path d="m398.4 4.1h-3.1v9.6h-1.4v-9.6h-3.1v-1.3h7.7v1.3z"/></g><path d="m228.89 275.55c3.42 3.69 7.23 7.1 10.17 11.15 3.87 5.35 3.13 7.74-1.95 12-10.83 9.09-21.31 18.64-32.47 27.32-15.43 12-32.7 20.35-52.26 23.32-1.67.25-3.41.03-5.23-.92 9-5.94 18.09-11.73 26.96-17.86 15.24-10.52 28.52-23.03 37.61-39.39 2.42-4.35 3.81-9.26 6.11-15.04-6.18.49-10.69.85-15.6 1.24-.73 1.67-1.48 3.66-2.45 5.54-2.65 5.09-5.48 5.56-9.01 1.21-5.58-6.88-9.56-14.61-9.1-23.7.4-7.78 2.19-15.5 2.37-23.26.42-17.92.48-35.86.18-53.78-.17-9.82-1.88-19.49-6.11-28.58-1.21-2.61.25-5.12 3.09-4.81 4.17.45 8.23 1.92 12.33 2.97 2.49.64 5.02 1.99 7.47 1.86 27.65-1.51 54.88-5.26 80.69-16.02 6.53-2.73 12.91-3.06 19.08.76 7.48 4.62 14.89 9.37 22.29 14.12 4.1 2.63 4.21 6.35 1.79 9.94-6.99 10.36-8.22 21.85-7.54 33.89 1.03 18.26 1.25 36.59 3.06 54.76 1.02 10.22-1.68 18.64-7.05 26.72-1.27 1.91-3.02 3.52-4.7 5.13-2.33 2.23-4.69 2.18-6.85-.32-1.09-1.26-2.57-2.37-3.15-3.83-2.24-5.71-6.58-6.15-11.96-6.07-19.28.28-38.58.11-57.86.11.04.51.07 1.02.09 1.54zm67.85-89.53c-1.26-7.78-1.84-14.74-3.59-21.4-2.25-8.55-7.94-11.79-16.62-10.19-23.89 4.39-47.76 8.92-72.1 13.48v24.91c18.59-2.54 36.96-5.17 55.36-7.52 11.92-1.52 23.88-4.68 36.95.72zm-2.23 75.58c.6-11.01 1.13-20.59 1.7-30.93-31.19 3.52-61.41 6.92-92.28 10.4v21.89c1.56 0 3.2.15 4.81-.02 17.47-1.82 34.94-3.65 52.39-5.55 10.98-1.2 22.26-6.35 33.38 4.21zm1.18-64.65c-30.87 2.18-61.12 4.32-91.49 6.46v27.28c15.44-2.8 30.57-5.47 45.68-8.3 15.11-2.82 30.1-7.4 45.81-2.63 0-7.45 0-14.7 0-22.81z" fill="#010102"/><path d="m170.92 127.03c-1.2 7.31-2.42 15.31-3.85 23.27-8.5 47.29-22.35 92.63-48.7 133.41-10.91 16.88-23.79 32.07-39.26 44.95-2.56 2.13-5.38 6.13-9.21 3.11-.72-.57 1.52-5.81 3.2-8.36 16.64-25.29 33.53-50.4 45.75-78.31 13.95-31.87 23.42-65.01 27.97-99.41 3.17-24.02 4.82-48.23 7.21-72.36.78-7.87-1.93-14.62-5.89-21.21-1.16-1.92-2.01-5.85-1-6.86 1.82-1.81 5.78-3.61 7.72-2.78 6.93 2.95 13.59 6.7 19.92 10.81 2.55 1.66 4.42 3 7.78 2.84 32.45-1.48 64.58-4.94 95.86-14.21.16-.05.34-.03.49-.1 21.22-10.32 34.78 3.97 48.88 15.61 4.49 3.71 3.79 9.7-1.24 13.98-9.28 7.9-15.07 18.07-20.18 28.8-.28.6-.48 1.23-.81 2.1 1.73 1.47 3.75 2.73 5.12 4.5 1.29 1.66 2.74 4 2.47 5.78-.18 1.14-3.3 2.42-5.21 2.6-8.6.81-17.23 1.29-25.86 1.83-33.02 2.05-65.97 4.58-98.56 10.75-3.86.72-8.06-.43-12.6-.74zm1.78-13.32c3.89 0 7.05.3 10.13-.05 16.16-1.85 32.36-3.49 48.43-5.94 16.87-2.58 33.63-5.93 50.39-9.17 1.68-.33 4.01-2.05 4.39-3.54 1.93-7.54 3.76-15.16 4.77-22.87 1.46-11.13-3.72-15.7-14.85-14.34-30.96 3.81-61.94 7.44-92.89 11.33-1.42.18-3.39 1.89-3.77 3.26-1.28 4.62-2.13 9.38-2.85 14.13-1.34 8.96-2.48 17.95-3.75 27.19z" fill="#010102"/><path d="m331.89 343.05c-1.05 1.63-2.36 5.55-5.08 7.42-3.64 2.51-7.44-.18-10.18-2.96-6.42-6.52-12.44-13.44-18.91-19.9-9.06-9.06-18.5-17.74-27.52-26.85-2.23-2.25-3.97-5.32-5-8.33-1.17-3.4.99-5.5 4.27-4.25 16.74 6.36 34.07 11.54 49.01 21.82 10.74 7.39 12.17 19.18 13.41 33.05z" fill="#010102"/></svg>