<svg enable-background="new 0 0 400 400" viewBox="0 0 400 400" xmlns="http://www.w3.org/2000/svg"><g fill="#fafbfc"><path d="m342.2 3.2-6.3 9.2h6.1v1.2h-8.2v-.5l6.2-9.1h-5.7v-1.2h7.8v.4z"/><path d="m344 13.7v-10.9h3.1c1.6 0 3 .5 4.1 1.4 1.1 1 1.6 2.2 1.6 3.9s-.5 3-1.6 4-2.5 1.5-4.2 1.5h-3zm1.4-9.6v8.4h1.6c1.4 0 2.5-.4 3.2-1.1.8-.8 1.2-1.8 1.2-3.2s-.4-2.4-1.2-3.1-1.8-1-3.1-1z"/><path d="m356.3 2.8v10.9h-1.4v-10.9z"/><path d="m366.6 13.2c-.8.4-1.8.6-3 .6-1.6 0-2.8-.5-3.7-1.5s-1.4-2.3-1.4-3.9c0-1.7.5-3.2 1.6-4.2s2.4-1.6 4-1.6c1 0 1.9.1 2.6.4v1.5c-.8-.4-1.6-.6-2.6-.6-1.2 0-2.2.4-3 1.2s-1.1 1.9-1.1 3.3c0 1.3.4 2.3 1.1 3.1s1.6 1.1 2.8 1.1c1.1 0 2-.2 2.8-.7v1.3z"/><path d="m368.2 13c0-.3.1-.5.3-.6.2-.2.4-.3.6-.3.3 0 .5.1.7.3s.3.4.3.6-.1.5-.3.6c-.2.2-.4.3-.7.3s-.5-.1-.6-.3c-.2-.2-.3-.4-.3-.6z"/><path d="m381.1 13.7h-1.7l-5.5-8.4c-.2-.2-.3-.5-.4-.7 0 .2.1.8.1 1.5v7.6h-1.4v-10.9h1.8l5.3 8.3c.3.4.4.6.4.8 0-.3-.1-.8-.1-1.6v-7.5h1.4v10.9z"/><path d="m389.7 13.7h-5.8v-10.9h5.6v1.2h-4.2v3.5h3.9v1.2h-3.9v3.7h4.4z"/><path d="m398.4 4.1h-3.1v9.6h-1.4v-9.6h-3.1v-1.3h7.7v1.3z"/></g><path d="m159.92 322.42c-1.87 6.88-2.95 12.62-5.01 17.99-2.41 6.29-5.72 6.71-10.14 1.59-6.6-7.64-8.13-16.96-7.43-26.59 1.16-15.88 3.55-31.71 4.02-47.6.42-13.9-1.19-27.85-6.52-41.02-.69-1.69-1.38-3.39-2.2-5.02-3.86-7.63-3.39-8.45 5.58-8.14 8.1.28 16.43 2.28 24.25 1.02 24.19-3.92 48.29-8.58 72.23-13.86 12.89-2.84 34.66 7.43 38.81 20.02.51 1.54-.05 4.21-1.15 5.37-11.18 11.77-9.92 26.1-8.7 40.46 1.89 22.34 4.6 44.69-1.54 66.85-1.93 6.96-4.33 13.66-10.21 18.4-4.02 3.24-6.04 2.99-7.91-1.78-2.71-6.93-4.81-14.09-7.2-21.15-2.34-6.92-3.41-7.95-10.72-7.85-22.09.32-44.18.86-66.16 1.31zm-4.14-57.18c10.14-2.83 18.92-5.15 27.63-7.75 8.66-2.58 17.38-4.58 26.49-3.59 6.39.7 11.73 3.18 15.42 10.01-22.01 8.68-45.21 7.3-66.62 10.4v40.95c8.55-1.04 16.09-1.99 23.63-2.86 13.52-1.55 27.03-3.26 40.58-4.49 6.28-.57 12.26.8 16.53 6.56.46-1.11.88-1.82 1.05-2.58.54-2.42 1.06-4.85 1.45-7.3 3.05-19.21 2.77-38.51.68-57.74-.94-8.67-3.35-17.21-5.39-25.73-.94-3.92-3.75-5.41-7.96-4.91-17.8 2.13-35.64 3.92-53.43 6.15-6.98.88-13.85 2.58-20.04 3.77-.02 13.1-.02 25.37-.02 39.11z" fill="#010102"/><path d="m131.68 115.61c18.89-2.97 36.38-5.71 54.74-8.59 0-10.81.36-21.41-.09-31.98-.56-13.16-3.21-25.94-8.1-38.28-2.54-6.42-1.68-7.07 5.12-7.18 11.59-.17 20.79 5.05 28.9 12.7 3.36 3.17 1.82 7.01 1.11 10.72-3.08 16.1-6.11 32.21-9.14 48.32-.12.63-.02 1.31-.02 2.72 4.88-.45 9.59-.8 14.28-1.34 13.69-1.59 27.35-3.34 41.05-4.83 2.97-.32 4.67-1.44 4.86-4.41.61-9.23 1.17-18.46 1.72-27.7.21-3.51.33-7.02.52-10.91 14.26 2.15 22.65 10.75 29.67 20.88 1.14 1.65.7 5.38-.38 7.44-6.26 12.05-12.82 23.95-19.52 35.76-2.11 3.72-4.66 7.34-7.62 10.42-4.22 4.41-9.71 2.99-10.65-3.05-.77-4.91.28-10.11.52-15.18.04-.81.12-1.61.23-2.99-7.13.7-14.09.96-20.88 2.13-26.13 4.51-52.33 8.75-78.27 14.22-15.58 3.29-30.48 9.19-44.32 17.44-6.88 4.1-9.82 2.8-12.56-4.88-.56-1.56-.8-3.22-1.31-4.8-2-6.25-.73-10.8 5.18-14.8 4.22-2.86 7.7-7.35 10.38-11.79 4.89-8.1 2.95-16.13-1.5-24.07-1.61-2.87-1.59-6.66-2.31-10.02 3.63-.21 7.26-.45 10.89-.59.62-.02 1.25.41 1.88.64 13.22 4.82 15.9 10.62 11.45 23.85-2.11 6.23-3.68 12.65-5.83 20.15z" fill="#010102"/><path d="m345.75 172.36c-10.45-.45-20.89-1.29-31.34-1.27-13.93.03-27.86.52-41.77 1.21-12.1.61-24.21 1.53-36.26 2.77-20.15 2.07-40.35 3.92-60.37 6.94-30.18 4.56-60.22 10.09-90.33 15.11-5.48.91-11.31 2.68-16.5 1.65-5.36-1.07-10.28-4.85-15.09-7.92-1.31-.84-2.46-3.69-2-5.05.45-1.33 2.98-2.56 4.72-2.74 11.4-1.21 22.84-2 34.25-3.15 21.3-2.16 42.61-4.27 63.88-6.78 20.93-2.47 41.87-4.93 62.67-8.25 29.61-4.73 59.14-10.04 88.63-15.52 16.99-3.16 31.51 1.7 44.42 12.29 1.93 1.59 3.86 5.86 3.03 7.49-1.14 2.23-4.91 3.12-7.55 4.58-.14-.46-.27-.91-.39-1.36z" fill="#010102"/><path d="m168.72 129.37c5.52-.95 10.2-2.8 14.63-2.32 10.87 1.19 21.47 3.68 26.26 15.56 2.52 6.25 2.01 11.97-2.78 17.37-16.38-4.65-28.98-13.99-38.11-30.61z" fill="#010102"/></svg>