<svg enable-background="new 0 0 400 400" viewBox="0 0 400 400" xmlns="http://www.w3.org/2000/svg"><g fill="#010100"><path d="m269.76 283.57c2.08 1.47 4.43 2.67 6.19 4.46 11.8 11.97 25.45 21.32 40.16 29.31 4.94 2.68 9.07 6.4 8.99 12.76-.08 6.23-3.66 10.11-8.93 12.73-2.23 1.11-4.45 2.31-6.8 3.11-26.5 9.07-53.56 12.25-81.46 8.53-17.9-2.39-34.94-6.62-49.4-18.14-16.57-13.19-26.8-30.56-33.59-50.31-2.69-7.83-6.02-15.44-8.89-23.21-.57-1.56-.37-3.4-.52-5.11 1.72-.03 3.52-.41 5.14-.03 6.62 1.52 10.55 5.76 12.34 12.33 1.7 6.25 3.51 12.49 5.77 18.55 8.85 23.68 27.73 35.63 50.93 41.08 20.14 4.73 40.65 3.45 60.84-1 9.59-2.11 11.9-6.78 8.42-15.97-3-7.92-6.08-15.8-9.07-23.73-.54-1.44-.81-2.99-1.2-4.5.34-.29.71-.58 1.08-.86z"/><path d="m108.65 142.53c-7.21 7.16-13.53 14.2-20.66 20.31-9.33 8-19.28 15.28-29.02 22.8-1.3 1-2.83 1.83-4.38 2.34-1.06.35-2.35.03-3.53 0 .29-1.17.22-2.67.93-3.45 4.4-4.77 9.07-9.3 13.49-14.05 24.56-26.41 44.59-55.84 57.91-89.47 2.69-6.79 3.3-14.46 4.35-21.8.63-4.44 2.09-6.52 6.27-5.1 8.97 3.05 17.09 7.68 21.14 16.88.75 1.7.34 4.71-.74 6.29-6.37 9.25-13.29 18.13-19.64 27.39-5.44 7.95-10.28 16.31-15.59 24.34-1.43 2.16-1.16 3.5.57 5.06.86.77 1.46 1.83 2.3 2.62 4.79 4.48 6.63 9.48 4.38 16.11-1.25 3.68-1.26 7.86-1.36 11.83-.43 17.3-.42 34.61-1.13 51.89-.32 7.91-1.52 15.86-3.17 23.62-.63 2.99-3.6 5.48-5.51 8.2-2.51-2.42-5.69-4.46-7.37-7.37-2.21-3.82-4.02-8.21-4.59-12.54-.66-5.08-.96-10.74.59-15.49 6.78-20.8 7.39-42.04 6-63.53-.15-2.06-.73-4.1-1.24-6.88z"/><path d="m279 136.81c.49-1.74.76-3.02 1.21-4.24 2.56-7 5.63-13.85 7.6-21.01 1.56-5.65-.82-8.02-6.97-7.38-7.75.8-15.45 2.18-23.14 3.49-17.82 3.04-35.6 6.3-53.45 9.15-2.57.41-5.65-.51-8.09-1.67-3.28-1.56-5.55-.98-7.94 1.45-5.36 5.46-10.55 11.13-16.35 16.08-6.3 5.38-13.17 10.11-19.94 14.91-1.09.77-2.93.49-4.42.7.4-1.43.34-3.37 1.28-4.21 16.87-15.16 27.92-34.64 39.78-53.49 7.22-11.49 12.78-23.69 13.35-37.59.13-3.05 1.44-4.49 4.64-4.42 9.12.18 16.64 4.35 23.65 9.54 3.2 2.37 3 6.47-.4 8.98-13.31 9.86-19.91 25.13-30.93 36.82.19.49.39.99.58 1.48 6.6-.86 13.26-1.36 19.77-2.64 19.37-3.81 39.18-6.35 57.83-12.44 13.83-4.51 22.92 2.26 33.31 7.36 3.66 1.8 6.89 4.67 9.94 7.47 3.12 2.87 2.79 6.32-.58 8.27-13.19 7.66-26.45 15.2-40.73 23.39z"/><path d="m245.19 225.33c.55 8.32-2.2 15.73-6.25 22.71-2.51 4.33-5.57 4.74-8.61.79-5.84-7.58-10.01-16.74-7.77-25.91 4.65-19.05 4.47-38.21 4.38-57.47-.04-8.11-.35-16.26-1.22-24.31-.4-3.68-2.58-7.14-3.69-10.79-1.76-5.81.73-8.54 6.53-6.91 5.58 1.56 11.07 3.49 16.46 5.62 4.45 1.76 5.97 5.18 5.01 10.04-4.95 25.2-6.38 50.68-5.61 76.31.12 3.31.52 6.61.77 9.92z"/><path d="m339.28 293.1c-3.13-1.66-6.78-2.76-9.31-5.08-10.27-9.46-20.15-19.33-30.25-28.96-3.6-3.44-7.52-6.54-11.12-9.99-1.16-1.12-1.74-2.85-2.58-4.31 1.68-.33 3.46-1.19 5.03-.9 8.31 1.52 16.56 3.32 24.83 5.04 8.19 1.7 15.93 4.37 22.82 9.39 8.71 6.33 12.67 15.86 10.45 26.47-1.12 5.4-3.79 7.5-9.87 8.34z"/><path d="m100.55 258.22c1.84 3.99 4.4 7.81 5.4 12 4.94 20.71-1.35 39.7-10.02 58.1-1.57 3.32-4.8 7.42-8.78 5.85-3.12-1.23-5.95-5.11-7.34-8.46-3.73-9-1.73-17.59 2.41-26.33 5.37-11.35 9.58-23.24 14.27-34.9.79-1.97 1.53-3.96 2.29-5.94.59-.1 1.18-.21 1.77-.32z"/><path d="m268.54 164.07c2.5 0 3.96-.28 5.26.04 14.49 3.57 28.27 8.74 40.12 18.14 7.99 6.34 10.49 15.54 6.61 23.97-2.49 5.41-6.11 6.94-11.05 3.78-3.58-2.28-6.79-5.35-9.62-8.56-9.57-10.86-18.91-21.92-28.31-32.93-.9-1.06-1.58-2.32-3.01-4.44z"/><path d="m235.34 277.9c-.53 2.05-.84 4.4-1.74 6.49-2.26 5.28-7.47 7.23-12.25 4.09-3.84-2.52-7.46-5.66-10.42-9.16-6.13-7.23-11.86-14.81-17.52-22.41-1.15-1.55-1.29-3.86-1.89-5.82 1.99-.43 4.19-1.64 5.93-1.16 8.77 2.4 17.66 4.66 26.06 8.09 8.34 3.4 10.36 11.49 11.83 19.88z"/><path d="m155.47 219.18c.8-1.45 1.53-2.94 2.41-4.34 6.59-10.52 13.68-20.75 19.57-31.64 2.46-4.56 2.75-10.45 3.35-15.81.59-5.18 2.46-7.14 6.85-4.53 4.55 2.7 8.44 6.63 12.27 10.38.77.76.63 3.6-.18 4.64-6.17 8-12.05 16.34-19.13 23.49-6.69 6.76-14.72 12.19-22.2 18.16-.46.37-1.24.33-1.86.49-.36-.28-.72-.56-1.08-.84z"/></g><path d="m374.8 390.4.4-.4c.7.5 1.3 1 1.8 1.4l-.5.5c-.5-.6-1.1-1.1-1.7-1.5zm1 7.3-.6-.3c.5-1.4 1.1-2.8 1.5-4.3.2.1.4.2.6.3-.5 1.3-1 2.8-1.5 4.3zm-.4-10.3.4-.4c.4.3 1 .8 1.7 1.4l-.5.5c-.4-.5-1-1-1.6-1.5zm2.5.3h1.7v-1h.6v1h3.5v-1h.6v1h1.8v.5h-1.8v1.4h-2v1h3.2v2h-3.2v.9h3.3v.5h-3.4c0 .3-.1.6-.1.9h4v.5h-3.7c.7.9 1.9 1.5 3.8 1.7-.1.2-.2.4-.3.6-2.1-.4-3.5-1.1-4-2.1-.4 1-1.8 1.7-4 2.2-.1-.2-.2-.4-.3-.6 2.1-.4 3.4-1 3.8-1.8h-3.4v-.5h3.6c.1-.3.1-.6.2-.9h-3.3v-.5h3.4c0-.3 0-.6 0-.9h-3.2v-2h3.3v-1h-2.1v-1.4h-1.7v-.5zm1.1 3.5v1h2.7c0-.3 0-.4 0-.4 0-.1 0-.2 0-.2 0-.1 0-.2 0-.3h-2.7zm1.2-3v.9h3.5v-.9zm4.7 3h-2.6v.6.4h2.6z" fill="#fafafb"/><path d="m393.6 386.7h.6v1.5h2.7v6.1h1.1v.6h-11v-.6h1.1v-6.1h2.7v-1.5h.6v1.5h2.1v-1.5zm-2.7 8.8.4.6c-1.2.6-2.5 1.3-3.8 1.9-.1-.2-.2-.4-.3-.6 1.2-.6 2.5-1.2 3.7-1.9zm-2.2-6.7v2.4h2.1v-2.4zm0 3v2.5h2.1v-2.5zm2.8-3v2.4h2.1v-2.4zm0 3v2.5h2.1v-2.5zm6 6.1c-1.4-.7-2.7-1.3-3.9-1.8l.3-.6c1.5.6 2.7 1.2 3.9 1.7zm-1.2-9.1h-2.1v2.4h2.1zm-2.1 3v2.5h2.1v-2.5z" fill="#fafafb"/></svg>