<svg enable-background="new 0 0 400 400" viewBox="0 0 400 400" xmlns="http://www.w3.org/2000/svg"><path d="m377.9 391.2c-.2.3-.4.5-.6.8-.7-.6-1.4-1-2.2-1.5.2-.3.4-.5.5-.8.6.4 1.4.8 2.3 1.5zm-1.8 6.1c-.2-.2-.5-.4-.9-.6.4-.6.8-1.2 1.2-1.9s.7-1.3.9-1.9c.3.3.5.5.8.7-.7 1.3-1.4 2.6-2 3.7zm2.2-9c-.3.3-.5.5-.6.8-.6-.6-1.3-1.1-2-1.5.3-.3.5-.5.6-.7.6.5 1.3.9 2 1.4zm.3.2v-.9h2 4.5c-.3 1.3-.6 2.5-1 3.6s-.9 2.1-1.4 3c.4.5 1 1 1.6 1.4s1.2.8 1.9 1.1c-.3.2-.5.4-.8.8-.4-.3-1-.7-1.6-1.2s-1.2-1.1-1.6-1.6c-.5.6-1.1 1.1-1.7 1.6s-1.4.9-2.1 1.4c-.1-.3-.3-.5-.7-.8.6-.2 1.2-.5 1.9-1s1.4-1.1 2-1.8c-.5-.8-.9-1.6-1.2-2.5s-.6-2-.8-3.2c-.4.1-.7.1-1 .1zm2.5 2.7c.3 1 .7 1.7 1 2.2.3-.5.6-1.1 1-2s.6-1.9.9-3h-3.2-.4c.1.9.3 1.8.7 2.8z" fill="#fbfafc"/><path d="m396.5 388.5v1.5 3.6h1.5v.9c-.4 0-1 0-1.7 0h-7.9c-.5 0-.9 0-1.2 0v-.9h1.3v-3.5c0-.7 0-1.2 0-1.6h2.4c0-.8 0-1.4 0-1.7h1c0 .3-.1.8-.1 1.7h1.5c0-.8 0-1.4 0-1.7h1c0 .3-.1.9-.1 1.7zm-8.2 9.2c-.2-.3-.5-.5-.8-.8.8-.3 1.4-.6 1.9-.9s1-.7 1.4-1.1c.3.3.6.5.9.8-1.6 1-2.8 1.6-3.4 2zm2.6-6.8v-1.6h-1.5v1.6zm0 2.7v-1.9h-1.5v1.9zm2.4-2.7v-1.6h-1.5v1.6zm0 2.7v-1.9h-1.5v1.9zm.2 2 .7-.8c.4.2.9.5 1.6.8s1.3.7 1.8 1c-.3.3-.5.5-.8.8-.4-.3-1.5-1-3.3-1.8zm2-4.7v-1.6h-1.4v1.6zm0 2.7v-1.9h-1.4v1.9z" fill="#fbfafc"/><g fill="#010103"><path d="m90.7 232.25c5.01 1.96 10.04 3.85 15.01 5.88 9.95 4.06 13.72 2.51 18.05-7.15 4.06-9.07 6.43-18.55 6.66-28.44.26-11.11.06-22.23.06-34.11-5.46 3.71-10.65 7.17-15.77 10.72-11.2 7.78-22.38 15.61-33.56 23.42-6.48 4.53-8.23 4.69-14.54-.34-4.5-3.59-8.76-7.55-12.66-11.78-2.24-2.43-.95-4.82 2.29-5.37 20.86-3.55 38.68-14.72 57.71-22.87 4.74-2.03 9.5-4.07 13.97-6.6 1.39-.79 2.79-3.27 2.62-4.82-.59-5.59-1.74-11.13-2.88-16.65-1.46-7.06-5.35-12.36-11.67-16.03-1.41-.82-2.07-2.92-3.08-4.43 1.72-.7 3.51-2.09 5.16-1.94 3.74.33 7.42 1.42 11.91 2.37 5.4-8.49 11.31-17.32 16.58-26.51 1.08-1.89.46-5.59-.77-7.62-.68-1.12-4.51-1.23-6.46-.52-13.88 5.04-27.56 10.65-41.51 15.48-3.22 1.11-7.43.51-10.87-.45-3.08-.87-5.86-3.13-8.47-5.17-1.25-.97-1.79-2.84-2.65-4.31 1.34-.73 2.6-1.82 4.04-2.14 19.57-4.36 39.21-8.46 58.74-13.01 4.6-1.07 8.78-3.84 13.31-5.33 2.14-.7 5.19-1.14 6.92-.14 7.75 4.48 15.42 9.2 22.62 14.5 4.34 3.19 3.85 7.82-.71 9.39-12.38 4.26-21.09 13.74-31.25 21.15-4.41 3.22-8.55 6.82-11.74 9.39 1.86 9.97 3.56 19.01 5.34 28.55 3.35-1.59 7.2-3.36 11-5.22 6.71-3.28 13.31-6.81 20.14-9.81 1.7-.75 4.1.13 6.18.26-1 1.85-1.54 4.37-3.08 5.43-9.75 6.67-19.66 13.1-29.66 19.4-2.71 1.71-3.82 3.51-3.66 6.81.82 17.11 1.86 34.22 1.88 51.34.02 13.18-2.3 26.3-8.34 38.13-2.67 5.23-7.55 9.46-11.89 13.67-2.97 2.87-6.44 2.23-9.15-1.03-5-6.02-9.89-12.13-14.97-18.07-3.02-3.53-6.4-6.76-9.49-10.24-1.09-1.23-1.81-2.78-2.7-4.19.45-.54.9-1.07 1.34-1.6z"/><path d="m295.13 169.33c-12.93 2.59-25.62 5.13-39.2 7.85 2.04 1.26 3.69 1.82 4.62 2.96 1.03 1.27 2.4 3.55 1.91 4.56-4.56 9.43-3.41 19.63-3.85 29.46-.63 14.11.12 28.27.12 42.41 0 5.83-2.89 10.54-7.11 14.23-.79.69-3.75.05-4.86-.94-6.36-5.62-6.37-12.64-5.86-20.79 1.18-18.69 1.43-37.51.74-56.23-.43-11.47-2.91-12.55-13.8-9.6-9.12 2.47-18.11 5.42-27.1 8.3-3.46 1.11-6.19.75-8.15-2.55-.68-1.14-1.47-2.22-2.13-3.37-5.79-10.14-4.65-11.53 5.46-17.03 13.4-7.29 26.08-15.9 39.03-24.01 2.77-1.74 5.39-3.73 7.63-6.75-11.56 2.47-23.19 4.66-34.64 7.55-4.5 1.14-6.64-.21-8.02-4.07-.56-1.56-.88-3.22-1.5-4.75-1.66-4.14-.02-6.92 3.78-8.31 14.45-5.3 25.72-15.21 36.54-25.55 4-3.82 6.69-9.04 9.83-13.72 3.39-5.07 5.23-5.68 10-2.06 3.56 2.7 6.92 5.73 10 8.97 3.55 3.74 2.63 5.04-2.1 7.41-14.98 7.48-29.77 15.36-44.6 23.15-.77.4-1.25 1.35-2.12 2.34 1.15.44 1.88.97 2.61.97 10.83.06 21.66.15 32.48-.05 1.6-.03 3.53-1.17 4.68-2.38 6.86-7.18 13.74-14.37 20.21-21.89 3.42-3.98 6.2-5.04 9.88-1.3 3.93 3.99 7.46 8.48 10.58 13.14 2.09 3.12 1.48 6.23-2.5 8.17-14.46 7.04-28.9 14.12-43.26 21.37-11.11 5.61-22.11 11.46-33.11 17.29-1.95 1.03-3.7 2.46-5.26 4.7 25.24.4 49.85-4.28 75.61-6.25-3.82-7.66-7.26-14.59-10.71-21.51.46-.38.91-.77 1.37-1.15 1.46.5 3 .83 4.36 1.52 11.13 5.64 20.66 13.39 28.96 22.61 4.76 5.28 4.92 12.71 1.08 18.47-4.03 6.03-10.14 6.21-14 .19-2.67-4.2-4.93-8.64-7.6-13.36z"/><path d="m261.72 301.83c2.23 1.55 3.41 2.33 4.56 3.16 12.67 9.12 25.12 18.58 38.07 27.28 12.91 8.67 13.03 14.23-.35 22.08-11.88 6.97-25.04 10.5-38.41 11.4-17.52 1.18-35.46 2.38-52.71-.05-36.35-5.12-63.02-24.3-75.76-60.09-2.39-6.72-4.94-13.39-7.17-20.16-.49-1.5-.56-4.13.31-4.85 1.2-.99 3.73-1.3 5.27-.75 4.54 1.62 7.47 4.92 9.48 9.5 4.38 9.98 8.3 20.38 14.21 29.43 9.38 14.34 24.76 20.04 40.68 24.03 20.8 5.21 41.53 3.44 62.1-1.34 7.7-1.79 9.8-6.32 7.37-13.86-2.24-6.96-4.54-13.9-6.76-20.87-.36-1.17-.45-2.42-.89-4.91z"/><path d="m191.03 103.84c-.35-1.28-1.22-2.71-.91-3.8.38-1.35 1.5-2.87 2.72-3.55 7.84-4.34 16.37-7.68 23.6-12.86 12.12-8.68 23.53-18.38 35.03-27.9 2.22-1.84 3.69-4.7 5.16-7.29 2.23-3.93 5.26-4.55 8.73-2.19 4.8 3.27 9.5 6.71 13.95 10.43 3.16 2.64 2.78 6.06-.46 7.68-13.78 6.9-27.35 14.25-41.43 20.48-13.78 6.1-28.07 11.03-42.14 16.47-.77.3-1.58.5-2.36.74-.63.6-1.26 1.19-1.89 1.79z"/><path d="m100.94 296.81c-1.86 17.88-6.39 33.28-16.61 46.64-1 1.31-2.22 2.5-3.52 3.52-4.94 3.89-9.75 2.95-12.05-2.83-3.14-7.87-3.57-15.94 1.05-23.49 7.69-12.58 16.69-24.45 20.68-39.01.3-1.11 2.38-2.81 2.92-2.58 1.69.73 3.89 1.99 4.35 3.51 1.51 5.03 2.34 10.27 3.18 14.24z"/><path d="m299.6 274.2c2.6 0 4.01-.37 5.11.06 13.88 5.37 27.12 11.84 37.87 22.5 6.62 6.57 7.12 14.45 4.34 22.63-2.3 6.78-9 8.23-13.58 2.78-6.3-7.5-12.01-15.5-17.77-23.44-4.4-6.05-8.52-12.31-12.69-18.52-1.06-1.57-1.83-3.33-3.28-6.01z"/><path d="m325.51 232.66c-.2 1.98.2 4.34-.74 5.86-1.72 2.79-3.88 6.43-6.55 7.16-2.18.6-6.36-1.84-7.96-4.12-9.25-13.16-18.02-26.65-26.85-40.1-.69-1.05-.59-2.61-.86-3.94 1.4 0 2.96-.42 4.17.06 11.31 4.53 21.81 10.46 31 18.56 4.97 4.38 8.15 9.6 7.79 16.52z"/><path d="m231.05 297.12c-.58 4.09-1.61 8.46-6.08 10.86-4.52 2.42-8.14-.17-11.28-2.84-10.37-8.81-18.12-19.8-24.95-31.44-.56-.95-.73-2.88-.16-3.53.62-.7 2.46-.85 3.55-.51 9.32 2.9 18.7 5.64 27.82 9.08 7.98 3 10.68 9.88 11.1 18.38z"/><path d="m204.58 201.56c9.41 2.56 16.18 6.85 20.34 14.38.67 1.21-.11 4.48-1.25 5.24-14.98 9.88-30.12 19.51-45.29 29.08-1.32.83-3.19.78-4.81 1.15.61-1.55.96-3.28 1.88-4.61 7.85-11.29 15.93-22.43 23.64-33.81 1.5-2.22 1.53-5.39 2.64-7.94.64-1.47 2.08-2.58 2.85-3.49z"/></g></svg>