<svg enable-background="new 0 0 400 400" viewBox="0 0 400 400" xmlns="http://www.w3.org/2000/svg"><path d="m251.14 152.67c11.01-3.51 20.97-6.51 30.79-9.89 7.03-2.42 20.58.7 25.43 6.29 2.75 3.17 2.17 4.95-2.46 5.92-16.55 3.47-33.13 6.82-49.73 10.05-3.22.63-5.19 1.39-5.56 5.32-1.19 12.68-2.86 25.32-4.39 38.34 9.29-1.47 18.24-2.78 27.16-4.31 9.63-1.66 19.17-4.19 28.86-5.03 4.75-.41 10.03 1.52 14.56 3.53 4.31 1.91 8.15 5.06 11.84 8.11 3.01 2.49 1.59 5.04-1.53 5.89-3.15.86-6.56.96-9.87 1.04-15.1.36-30.21.41-45.3.93-8.42.29-16.83 1.28-26.26 2.03 5.96 9.01 11.26 17.21 16.74 25.28 14.76 21.74 31.15 42.03 52.91 57.27 15.43 10.81 31.76 20.07 49.22 27.26.77.32 1.71.49 2.23 1.06 1.46 1.59 2.74 3.35 4.1 5.04-1.61.83-3.13 2.05-4.84 2.43-16.06 3.5-32.38 3.18-48.67 2.83-6.62-.14-11.75-3.7-15.59-8.73-5.75-7.52-11.51-15.09-16.49-23.12-15.5-25.01-30.97-50.06-42.38-77.32-.17-.41-.62-.7-1.21-1.32-3.05 9.14-5.68 18.13-9.02 26.86-11.03 28.84-29.31 51.86-56.81 66.37-10.76 5.68-22.84 8.86-34.35 13.07-.93.34-2.17-.15-4.09-1.51 2.06-1.82 4.01-3.79 6.19-5.45 12.02-9.16 24.67-17.58 36.02-27.49 23.71-20.69 37.37-47.55 45.51-78.65-6.96 1.34-13.24 2.37-19.43 3.79-6.3 1.44-12.54 3.17-18.76 4.93-7.56 2.15-19.91-2.67-23.58-9.46-1.97-3.64.29-4.79 3.42-5.12 9.92-1.03 19.85-1.9 29.76-3.04 9.89-1.13 19.74-2.52 30.43-3.9 1.17-14 2.35-28.12 3.57-42.68-8.01.71-15.07 1.51-22.14 1.88-2.74.14-5.72-.21-8.27-1.19-3.93-1.51-6.01-.67-8.47 2.9-5.83 8.46-12.27 16.51-18.65 24.58-1.47 1.86-3.7 3.13-5.57 4.68-.51-.24-1.02-.48-1.53-.72.55-1.78.88-3.66 1.68-5.32 8.93-18.45 16.46-37.43 20.6-57.55 1.29-6.28 1.36-12.86 1.41-19.31.03-3.74 1.21-5.82 4.79-4.62 6.05 2.03 12.23 4.12 17.71 7.3 5.12 2.97 4.88 5.68 1.79 10.76-5.23 8.6-10.18 17.37-15.25 26.06.37.47.75.95 1.12 1.42 9.92-1.56 19.86-3.05 29.74-4.81.87-.16 2.02-2.16 2.02-3.3.01-17.31-.08-34.62-.31-51.93-.15-11.59-2.46-22.72-7.09-33.42-1.69-3.91.36-7.19 4.52-6.68 8.14.99 16.37 2.33 24.17 4.79 5.62 1.77 7.57 6.02 5.98 11.03-4.87 15.39-3.25 31.34-4.67 47.02-.85 9.4-1.28 18.83-2 29.81z" fill="#010100"/><path d="m109.81 227.13c-16.49 15.16-32.65 29.7-48.36 44.72-3.32 3.18-5.87 4.21-9.32 1.49-6.63-5.23-13.33-10.42-19.52-16.15-3.39-3.14-2.23-7 2.27-7.77 11.97-2.05 22.04-8.28 32.26-14.07 13.74-7.79 27.14-16.16 40.76-24.16 2.75-1.61 3.77-3.51 3.79-6.77.08-11.3.57-22.6.88-33.9.02-.8-.13-1.6-.25-3-10.44 1.4-20.6 2.67-30.72 4.14-9.74 1.42-19.44 2.97-28.97-1-1.06-.44-2.37-.69-3.1-1.46-1.41-1.48-2.49-3.26-3.71-4.92 1.7-.8 3.32-2.03 5.1-2.32 19.32-3.1 38.66-6.1 58.02-8.98 2.68-.4 3.86-1.46 3.78-4.11-.61-21.77-.88-43.55-2.02-65.29-.32-6.14-3.17-12.14-4.9-18.2-1.76-6.17 1.85-10.4 7.82-8.11 8.48 3.27 16.7 7.37 24.66 11.78 4.26 2.36 5.07 6.87 2.94 11.39-9.95 21.14-9.62 43.82-10.39 67.41 4.88-1.77 9.13-3.25 13.34-4.85 5.09-1.94 19.57 2.63 22.01 7.37 1.92 3.73-1.26 5.17-3.93 5.88-9.28 2.45-18.61 4.74-28 6.75-2.85.61-4.28 1.2-4.38 4.56-.3 9.93-1.05 19.86-1.71 31.16 6.76-4.03 12.49-7.44 18.22-10.87 2.56-1.54 4.97-3.44 7.71-4.54 1.68-.67 3.85-.11 5.8-.11-.76 1.63-1.11 3.74-2.36 4.82-8.81 7.62-17.86 14.96-26.69 22.57-1.32 1.14-2.63 3.16-2.65 4.79-.38 25.63-1.01 51.27-.59 76.89.23 14.33 1.55 28.58-3.57 42.38-2.41 6.49-5.48 12.43-11.89 16.05-3.65 2.06-6.82 2.04-9.1-1.56-8.98-14.26-21.14-25.63-33.2-37.11-.89-.85-1.04-2.48-1.53-3.75 1.34-.19 2.8-.82 4.01-.5 8.18 2.14 16.28 4.61 24.48 6.72 5.6 1.44 9.64-1.02 9.96-6.63 1.53-26.21 2.75-52.44 4.06-78.67-.01-.14-.14-.28-1.01-2.07z" fill="#010100"/><g fill="#fafafb"><path d="m374.8 390.4.4-.4c.7.5 1.3 1 1.8 1.4l-.5.5c-.5-.6-1.1-1.1-1.7-1.5zm1 7.3-.6-.3c.5-1.4 1.1-2.8 1.5-4.3.2.1.4.2.6.3-.5 1.3-1 2.8-1.5 4.3zm-.4-10.3.4-.4c.4.3 1 .8 1.7 1.4l-.5.5c-.4-.5-1-1-1.6-1.5zm2.5.3h1.7v-1h.6v1h3.5v-1h.6v1h1.8v.5h-1.8v1.4h-2v1h3.2v2h-3.2v.9h3.3v.5h-3.4c0 .3-.1.6-.1.9h4v.5h-3.7c.7.9 1.9 1.5 3.8 1.7-.1.2-.2.4-.3.6-2.1-.4-3.5-1.1-4-2.1-.4 1-1.8 1.7-4 2.2-.1-.2-.2-.4-.3-.6 2.1-.4 3.4-1 3.8-1.8h-3.4v-.5h3.6c.1-.3.1-.6.2-.9h-3.3v-.5h3.4c0-.3 0-.6 0-.9h-3.2v-2h3.3v-1h-2.1v-1.4h-1.7v-.5zm1.1 3.5v1h2.7c0-.3 0-.4 0-.4 0-.1 0-.2 0-.2 0-.1 0-.2 0-.3h-2.7zm1.2-3v.9h3.5v-.9zm4.7 3h-2.6v.6.4h2.6z"/><path d="m393.6 386.7h.6v1.5h2.7v6.1h1.1v.6h-11v-.6h1.1v-6.1h2.7v-1.5h.6v1.5h2.1v-1.5zm-2.7 8.8.4.6c-1.2.6-2.5 1.3-3.8 1.9-.1-.2-.2-.4-.3-.6 1.2-.6 2.5-1.2 3.7-1.9zm-2.2-6.7v2.4h2.1v-2.4zm0 3v2.5h2.1v-2.5zm2.8-3v2.4h2.1v-2.4zm0 3v2.5h2.1v-2.5zm6 6.1c-1.4-.7-2.7-1.3-3.9-1.8l.3-.6c1.5.6 2.7 1.2 3.9 1.7zm-1.2-9.1h-2.1v2.4h2.1zm-2.1 3v2.5h2.1v-2.5z"/></g></svg>