<svg enable-background="new 0 0 400 400" viewBox="0 0 400 400" xmlns="http://www.w3.org/2000/svg"><g fill="#010100"><path d="m69.71 306.26c5.07 1.31 10.14 2.62 15.21 3.94 4.33 1.12 8.64 2.35 13 3.36 5.02 1.17 8.27-.64 9.01-5.75 1.21-8.36 2.13-16.79 2.61-25.23 1.02-17.92 1.68-35.86 2.53-54.71-1.73.96-2.89 1.39-3.79 2.12-13.05 10.59-26.11 21.17-39.05 31.88-2.54 2.1-4.71 4.69-6.87 7.21-2.18 2.53-4.44 3.81-7.8 2.18-8.04-3.91-15.13-9.04-20.83-15.96-2.75-3.34-2.12-6.48 1.8-7.22 19.8-3.71 36.01-15.01 53.02-24.65 7.09-4.02 14.06-8.24 20.96-12.57 1.33-.83 2.9-2.59 2.95-3.96.52-15.3.77-30.6 1.07-45.9.01-.47-.24-.95-.49-1.85-9.28 1.46-18.52 3.53-27.86 4.17-7.16.49-14.46-.73-21.67-1.47-1.49-.15-3.07-1.38-4.2-2.52-1.07-1.09-2.35-2.83-2.14-4.05.17-.98 2.34-2.06 3.76-2.31 13.56-2.42 27.18-4.52 40.72-7.02 12.22-2.26 12.31-2.44 12.16-14.55-.19-15.47 0-30.98-1.16-46.39-.65-8.64-3.91-17.06-5.55-25.66-.53-2.78-.72-6.92.86-8.45 1.65-1.6 6.06-1.87 8.49-.86 7.48 3.1 14.79 6.75 21.78 10.84 4.95 2.89 6 7.11 3.55 12.01-5.86 11.73-7.12 24.47-8.52 37.16-1.02 9.22-1.43 18.51-2.19 28.79 4.01-1.45 7.34-2.64 10.66-3.85 5.3-1.93 17.56 1.47 21.07 5.85 2.18 2.73 1.17 5.64-3.17 6.99-7.6 2.35-15.35 4.22-23.05 6.24-1.9.5-3.85.84-6.56 1.42v43.24c.59-.27 1.74-.66 2.76-1.27 8.12-4.88 16.22-9.81 24.34-14.69 2.48-1.49 5.03-2.97 7.81.88-1.14 1.29-2.21 2.88-3.63 4.04-9.29 7.57-18.49 15.26-28.09 22.42-3.54 2.64-4.76 5.7-4.74 9.64.16 27.96.32 55.92.57 83.89.11 12.77-1.31 25.22-7 36.84-1.09 2.22-2.42 4.4-4.03 6.26-6.5 7.51-11.42 7.31-16.74-.9-8.22-12.72-19.01-23.09-29.75-33.55-1.27-1.23-2.12-2.9-3.16-4.36.42-.57.89-1.12 1.35-1.67z"/><path d="m253.15 177.26c4.41.66 8.32.22 10.98 1.83 10.29 6.22 20.68 4.48 31.13 1.32 6.97-2.11 13.73-4.89 20.62-7.29 1.51-.52 3.66-1.47 4.66-.84 6.57 4.1 13.08 8.33 19.17 13.1 1.38 1.08 2.16 5.24 1.21 6.59-6.17 8.84-5.47 19.34-7.87 29.07-3.16 12.82-5.8 25.87-10.32 38.22-2.12 5.8-7.49 10.99-12.54 14.99-6.12 4.85-10.15 2.87-13.67-4.07-3.91-7.7-8.36-15.12-12.59-22.65-.75-1.34-1.58-2.65-2.38-3.97.35-.43.69-.86 1.04-1.29 3.87 1.97 7.77 3.86 11.59 5.92 9.19 4.94 13.01 4.23 15.3-5.85 3.44-15.15 5.25-30.68 7.35-46.1.64-4.68-2.83-7.57-7.14-6.89-8.97 1.42-17.82 3.67-26.65 5.84-.92.23-1.84 2.12-2.04 3.36-1.69 10.65-3.91 21.28-4.63 32.01-1.53 22.56-2.46 45.18-3.2 67.78-.42 12.88 4.14 19.33 16.1 24.07 15.9 6.29 31.68 4.48 47.14-1.65 5.54-2.2 9.25-6.69 10.83-12.4 2.47-8.93 4.47-18 6.71-27 .49-1.98 1.21-3.9 1.82-5.85.5-.03.99-.07 1.49-.1.59 1.49 1.54 2.94 1.72 4.49.84 6.93.92 13.99 2.34 20.79 1.13 5.41 3.25 10.79 5.92 15.65 4.76 8.68 4.09 13.42-4.14 18.98-7.97 5.39-16.76 8.78-26.27 10.26-17.31 2.69-34.54 2.58-51.31-2.89-19.78-6.45-29.59-19.35-29.39-40.19.29-29.61 1.88-59.21 2.21-88.83.1-9-2.08-18.03-3.31-27.03-.36-2.73-1.06-5.39-1.88-9.38z"/><path d="m172.53 240.66c-8.64 7.02-15.44 16.09-25.48 20.95-.43-.34-.85-.67-1.28-1.01.78-1.62 1.41-3.34 2.37-4.85 9.82-15.42 20.26-30.48 29.36-46.31 7.26-12.63 13.74-25.87 12.61-41.34-.35-4.85 1.79-6.49 6.51-4.92 6.11 2.03 12.13 4.56 17.78 7.62 5.27 2.86 5.36 6.3 1.62 11.01-3.61 4.56-7.02 9.28-10.41 14-1.44 2.01-2.6 4.21-3.89 6.33.22.47.44.93.67 1.4 6.96-2.58 14.2-4.62 20.79-7.92 4.59-2.3 8.16-2.28 11.87.82 4.22 3.52 8.45 7.04 12.4 10.84 3.85 3.7 3.16 5.74.15 10.19-6.58 9.74-13.18 19.56-18.65 29.94-13.15 24.97-27.11 49.22-47.58 69.18-9.65 9.4-20.71 16.64-32.13 23.48-1.05.63-2.39.79-3.59 1.16-.39-.35-.78-.7-1.18-1.06 1.07-1.72 1.82-3.8 3.27-5.1 19.34-17.36 33.09-38.99 46.63-60.77.26-.41.38-.9.66-1.6-12.8-6.82-15.26-20.98-22.5-32.04zm31.22 16.28c6.08-14.42 12.34-27.02 14.78-41.05.52-2.98-.67-3.91-3.47-3.85-6.45.14-12.9.1-19.35.26-.86.02-2.01.53-2.5 1.2-5.08 6.92-10.05 13.92-15.11 20.98 10.99 4.47 22.39 7.74 25.65 22.46z"/><path d="m300.67 148.72c2.96-4.32 5.98-8.6 8.85-12.98 2.18-3.34 4.35-6.71 6.21-10.23 2.93-5.54 1.39-8.67-4.88-9.04-4.94-.29-9.97.17-14.9.82-28.95 3.81-57.88 7.83-86.84 11.62-3.9.51-7.93.07-10.88.07-3.16 9.16-5.69 17.73-9.14 25.92-1.62 3.84-4.63 7.33-7.67 10.29-4.82 4.69-9.93 3.38-12.7-2.71-3.91-8.6-3.79-16.47 2.98-23.98 7.44-8.25 12.32-18.05 15.37-28.77.64-2.26 1.9-4.34 2.87-6.51.71-.06 1.41-.12 2.12-.18 1.58 4.07 3.16 8.14 5.01 12.88 20.44-1.72 41.37-3.49 61.44-5.18-8.87-15.83-17.59-31.4-26.97-48.14 3.24-.35 5.11-1.13 6.5-.61 9.14 3.37 18.73 6.04 27.12 10.81 10.94 6.21 13.13 16.62 8.07 29.18-.86 2.14-1.83 4.24-3.09 7.13 6.98-.88 13.33-1.58 19.64-2.49 11.67-1.69 23.29-3.7 34.99-5.1 2.49-.3 5.72.79 7.76 2.34 8.85 6.75 17.38 13.91 26.02 20.93.38.31.68.73.98 1.13 4.85 6.4 3 10.77-4.93 12.14-8.82 1.53-17.67 3.01-26.39 5.02-7.09 1.63-14 4.03-21.02 6-1.82.51-3.73.73-5.6 1.08-.31-.48-.61-.96-.92-1.44z"/></g><path d="m385.2 377.6.6-.7c.6.4 1.3.9 1.9 1.5l-.6.7c-.8-.5-1.4-1-1.9-1.5zm.3 7.1c.6-1.4 1.1-2.9 1.5-4.5.3.1.6.3.9.4-.5 1.4-1 2.9-1.5 4.4zm.2-10.1.6-.6c.7.5 1.3 1.1 1.9 1.6l-.7.7c-.6-.6-1.2-1.2-1.8-1.7zm8.4-.8h.8v.9h1.8v.7h-1.8v1.8h-.8v-.3h-1.2v.9h3.3v2.6h-.8v-.4h-2.5c0 .3 0 .6-.1.8h3.4v.7h-3.5c0 .3-.1.6-.1.8h4v.7h-3.5c.7.9 1.9 1.3 3.6 1.5-.2.2-.4.5-.6.9-1.9-.3-3.2-1.1-3.8-2.3-.5 1.1-1.8 2-3.9 2.4-.2-.3-.4-.5-.6-.8 1.9-.4 3.1-.9 3.6-1.7h-3.2v-.7h3.5c.1-.2.1-.5.2-.8h-3.3v-.7h3.4c0-.2 0-.5 0-.8h-2.4v.3h-.8v-2.6h3.3v-.9h-1.2v.3h-.8v-1.8h-1.8v-.7h1.8v-.9h.8v.9h3.2zm-4.4 5.5h2.4c0-.3 0-.6 0-.9h-2.4zm1.2-3.1h3.2v-.8h-3.2zm4.4 2.2h-2.4v.9h2.5v-.9z" fill="#fbfcfa"/><path d="m389.2 385.8h.9v1.5h1.9v-1.5h.9v1.5h2.7v6h1.1v.9h-11.3v-.9h1.1v-6h2.7zm.2 8.7.5.8c-1.2.6-2.5 1.3-4 1.9-.2-.3-.3-.6-.6-.8 1.6-.6 3-1.3 4.1-1.9zm-2-4.3h1.9v-2.1h-1.9zm0 3.1h1.9v-2.2h-1.9zm2.7-3.1h1.9v-2.1h-1.9zm0 3.1h1.9v-2.2h-1.9zm2.4 1.3c1.4.6 2.7 1.2 4.1 1.8l-.5.9c-1.5-.7-2.8-1.4-4.1-1.9zm2.2-6.5h-1.9v2.1h1.9zm-1.9 5.2h1.9v-2.2h-1.9z" fill="#fbfcfa"/></svg>