<svg enable-background="new 0 0 400 400" viewBox="0 0 400 400" xmlns="http://www.w3.org/2000/svg"><g fill="#010100"><path d="m63.66 298.39c9.38.98 18.82 1.59 28.13 3.03 11.77 1.82 17.1-2.32 17.23-14.1.24-22.97.56-45.94.85-68.91.02-1.27 0-2.55 0-5.26-7.05 6.92-13.27 12.79-19.23 18.92-9.04 9.32-17.93 18.79-26.82 28.25-2.89 3.08-6.35 4.69-10.19 2.66-5.77-3.06-11.56-6.28-16.74-10.22-3.43-2.62-2-5.73 1.5-7.99 22.72-14.7 45.41-29.44 68.02-44.31 1.56-1.02 3.36-3.09 3.43-4.74.57-14.3.78-28.61 1.07-42.92.02-.79-.17-1.58-.24-2.24-8.12 1.69-16.04 3.41-23.98 4.96-8.21 1.59-15.91-.19-22.99-4.35-1.96-1.15-3.23-3.47-4.82-5.26 2.12-.96 4.16-2.31 6.39-2.83 13.38-3.11 26.78-6.2 40.24-8.91 5.19-1.05 6.31-3.67 6.2-8.61-.27-12.48-.1-24.99.29-37.47.25-8.19-2.1-15.37-6.67-22-1.03-1.5-2.08-3.04-2.81-4.7-1.51-3.45-.48-5.76 3.36-6.65 8.62-2.01 27.12 5.99 30.73 14.06 1.26 2.8 1.19 6.96.11 9.92-5.46 15.06-6.48 30.69-7.23 46.66 5.17.53 10.1.79 14.93 1.61 2.72.46 5.57 1.42 7.83 2.95 1.5 1.01 2.95 3.52 2.76 5.18-.18 1.64-2.17 3.88-3.83 4.42-5.83 1.89-11.82 3.36-17.83 4.58-3.93.8-5.44 2.51-5.34 6.7.29 11.74.1 23.5.1 35.4 4.66-2.85 9.72-5.95 14.79-9.05.55.49 1.1.97 1.65 1.46-1.03 2.18-1.59 4.82-3.18 6.43-3.37 3.41-7.23 6.36-11.01 9.34-2.4 1.89-3.46 4-3.37 7.2.86 30.94 1.55 61.88 2.31 92.82.3 12.35.06 24.67-4.3 36.42-1.57 4.23-2.76 9.56-8.22 10.34-5.3.75-8.39-3.53-11.17-7.21-9.27-12.27-22.21-19.9-34.72-28.11-2.7-1.77-5.31-3.7-7.95-5.55.24-.65.48-1.29.72-1.92z"/><path d="m227.57 104.8c9.71-2.62 19.53-4.86 29.09-7.95 10.09-3.26 19.75-2.47 29.09 1.86 2.52 1.17 5.54 4.01 5.92 6.45.61 3.98-3.5 5.19-6.78 5.83-10.36 2.03-20.77 3.86-32.03 5.92 3.04 2.79 5.71 5.39 8.53 7.8 13.93 11.88 27.44 24.34 42.05 35.31 8.64 6.49 18.8 11.2 28.75 15.64 9.67 4.31 19.98 7.19 29.94 10.88 1.5.56 2.63 2.14 3.93 3.25-1.5 1.08-2.92 2.92-4.52 3.11-14.53 1.66-29.08 3.13-43.64 4.42-6.38.56-11.14-2.86-15.04-7.5-18.43-21.9-36.95-43.73-55.11-65.86-3.27-3.99-6.06-6.55-11.43-4.9-2.67.82-5.55 1.25-8.34 1.32-7.09.17-10.36 4.14-13.07 10.37-11.4 26.2-27.22 49.18-50.85 66-5 3.56-10.33 6.66-15.63 9.76-1.73 1.01-3.86 1.32-5.81 1.95-.36-.43-.73-.86-1.09-1.28 1.2-1.77 2.25-3.66 3.63-5.29 10.94-12.97 22.72-25.32 32.69-38.99 8.15-11.17 14.17-23.89 21.9-37.23-14.02.29-26.02-.2-34.56-12.48 2.63-.56 4.43-1.11 6.27-1.3 10.24-1.08 20.5-1.98 30.73-3.2 1.55-.18 3.87-1.42 4.25-2.65 3.71-12.03 7.18-24.14 10.51-36.28 1.47-5.37-.17-10.28-3.75-14.35-3.11-3.54-1.76-5.94 1.78-7.22 2.5-.91 5.98-1.69 8.07-.64 6.62 3.31 13.03 7.16 19.05 11.48 4.06 2.91 3.01 6.82.73 11.05-5.82 10.77-11.07 21.86-16.54 32.82.4.62.84 1.26 1.28 1.9z"/><path d="m185.76 252.43c.5-7.76-.08-14.87-4.13-21.4-2.65-4.27-1.38-6.87 3.66-7.3 8.23-.7 15.4 2.53 21.72 7.22 1.51 1.12 1.56 5.03 1.27 7.54-.39 3.35-1.76 6.58-3.13 11.31 18.23-3.05 35.16-5.88 52.25-8.74.8-7.02.82-13.22-3.09-19.12-1.4-2.12-2.26-7.23-1.45-7.7 2.87-1.67 7.09-3.41 9.84-2.43 5.52 1.96 10.58 5.46 15.46 8.85 1.39.96 2.07 3.74 2.09 5.69.03 3.27-.73 6.55-1.27 10.61 6.4-1.17 12.46-2.41 18.57-3.37 13.41-2.11 23.19 4.97 32.28 13.31 1.12 1.02 1.68 4.48.89 5.36-1.45 1.61-4.07 2.91-6.25 2.99-13.3.51-26.61.68-39.91.89-8.38.13-7.25-.69-7.39 7.07-.34 18.76-.46 37.53-1.21 56.27-.34 8.43-1.97 16.8-3.06 25.19-.1.81-.28 1.77-.78 2.35-1.76 2.02-3.68 3.91-5.53 5.85-1.46-1.91-3.95-3.7-4.19-5.75-1.25-10.52-2.3-21.1-2.71-31.68-.65-16.96-.72-33.94-1.11-50.91-.05-2.09-.5-4.18-.86-7.07-11.85 1.36-23.36 2.67-34.88 4.02-4.61.54-9.2 1.22-13.82 1.7-3.24.34-4.69 1.57-5.04 5.23-2.75 29.09-17.87 49.36-44.51 61.07-2.83 1.25-5.99 1.77-9.79 1.67 20.68-16.18 34.24-35.95 36.22-63.65-5.61 1.23-10.83 2.27-16 3.54-8.63 2.11-16.91 1.95-24.11-3.95-1.92-1.57-3.07-4.08-4.58-6.15 2.32-.99 4.56-2.5 6.98-2.89 12.42-2 24.88-3.74 37.57-5.62z"/><path d="m239.3 192.28c0 5.46-.24 10.29.06 15.08.44 7.24-1.63 13.75-4.87 20.06-1.84 3.58-3.43 3.25-5.77.33-5.71-7.14-7.05-15.16-5.54-23.94.47-2.72.55-5.5.88-9.01-13.09 2.96-25.89 7.5-36.71-6.64 12.55-2.19 24.29-4.24 36.43-6.36.49-8.62.15-16.74-3.26-24.59-.75-1.73-1.3-4.85-.41-5.67 1.4-1.3 4.43-2.12 6.18-1.5 4.32 1.55 8.9 3.39 12.2 6.4 1.97 1.8 2.29 6 2.37 9.14.09 3.91-.83 7.85-1.43 12.67 3.63-.69 6.79-1.22 9.91-1.91 8.23-1.83 15.89-.62 22.69 4.45 1.31.98 1.95 2.87 2.9 4.33-1.57.99-3.05 2.6-4.73 2.87-10.14 1.59-20.33 2.86-30.9 4.29z"/></g><path d="m385.2 377.6.6-.7c.6.4 1.3.9 1.9 1.5l-.6.7c-.8-.5-1.4-1-1.9-1.5zm.3 7.1c.6-1.4 1.1-2.9 1.5-4.5.3.1.6.3.9.4-.5 1.4-1 2.9-1.5 4.4zm.2-10.1.6-.6c.7.5 1.3 1.1 1.9 1.6l-.7.7c-.6-.6-1.2-1.2-1.8-1.7zm8.4-.8h.8v.9h1.8v.7h-1.8v1.8h-.8v-.3h-1.2v.9h3.3v2.6h-.8v-.4h-2.5c0 .3 0 .6-.1.8h3.4v.7h-3.5c0 .3-.1.6-.1.8h4v.7h-3.5c.7.9 1.9 1.3 3.6 1.5-.2.2-.4.5-.6.9-1.9-.3-3.2-1.1-3.8-2.3-.5 1.1-1.8 2-3.9 2.4-.2-.3-.4-.5-.6-.8 1.9-.4 3.1-.9 3.6-1.7h-3.2v-.7h3.5c.1-.2.1-.5.2-.8h-3.3v-.7h3.4c0-.2 0-.5 0-.8h-2.4v.3h-.8v-2.6h3.3v-.9h-1.2v.3h-.8v-1.8h-1.8v-.7h1.8v-.9h.8v.9h3.2zm-4.4 5.5h2.4c0-.3 0-.6 0-.9h-2.4zm1.2-3.1h3.2v-.8h-3.2zm4.4 2.2h-2.4v.9h2.5v-.9z" fill="#fbfcfa"/><path d="m389.2 385.8h.9v1.5h1.9v-1.5h.9v1.5h2.7v6h1.1v.9h-11.3v-.9h1.1v-6h2.7zm.2 8.7.5.8c-1.2.6-2.5 1.3-4 1.9-.2-.3-.3-.6-.6-.8 1.6-.6 3-1.3 4.1-1.9zm-2-4.3h1.9v-2.1h-1.9zm0 3.1h1.9v-2.2h-1.9zm2.7-3.1h1.9v-2.1h-1.9zm0 3.1h1.9v-2.2h-1.9zm2.4 1.3c1.4.6 2.7 1.2 4.1 1.8l-.5.9c-1.5-.7-2.8-1.4-4.1-1.9zm2.2-6.5h-1.9v2.1h1.9zm-1.9 5.2h1.9v-2.2h-1.9z" fill="#fbfcfa"/></svg>