<svg enable-background="new 0 0 400 400" viewBox="0 0 400 400" xmlns="http://www.w3.org/2000/svg"><g fill="#010100"><path d="m123.45 232.62c-16.59 13.57-33.27 27.03-49.68 40.81-3.24 2.73-6.27 3.57-10 2.29-8.43-2.87-14.22-9.1-19.25-16-2.05-2.81-1.06-6.05 2.59-6.39 12.74-1.18 23.05-8.28 33.97-13.67 14.31-7.05 28.2-14.96 42.21-22.6 1.3-.71 3.11-2.16 3.13-3.29.2-16.28.14-32.56.14-49.44-6.81.7-14.14 1.65-21.49 2.18-9.76.71-19.54 1.41-29.32 1.44-3.25.01-6.66-1.78-9.7-3.33-1.33-.68-1.92-2.82-2.85-4.3 1.48-.84 2.89-2.19 4.47-2.43 9.52-1.44 19.1-2.52 28.63-3.94 10.34-1.55 20.65-3.34 31.08-5.04.22-1.27.54-2.22.54-3.17-.11-22.95 1.15-45.97-3.03-68.74-.75-4.07-2.13-8.01-3.05-12.05-.55-2.4-.91-4.87-1.07-7.33-.22-3.37 1.75-5.06 4.93-4.71 3.61.4 7.43.7 10.67 2.14 5.59 2.5 11.04 5.5 16.1 8.95 6.13 4.18 6.91 10.05 3.14 16.46-5.18 8.8-6.98 18.55-7.84 28.57-.44 5.13-1.18 10.24-1.57 15.37-.5 6.61-.79 13.24-1.24 20.92 13.87-6.44 26.55-6.43 38.12 3.96-3.5 5.96-9.44 6.59-15.03 7.74-7.77 1.59-15.58 2.99-23.75 4.54-.61 14.76-1.22 29.46-1.87 45.29 6.39-3.6 11.95-6.72 17.51-9.85 2.46-1.38 4.82-3.13 7.45-3.99 1.51-.49 3.49.47 5.26.77-.61 1.38-.84 3.24-1.89 4.08-7.56 6-15.09 12.08-23.02 17.55-4.36 3.01-5.73 6.36-5.7 11.57.09 19.14-.51 38.28-.58 57.42-.04 11.64.67 23.28.58 34.92-.06 8.54-1.74 16.85-5.98 24.45-.73 1.31-1.5 2.6-2.38 3.8-7.1 9.68-11.13 9.2-18.62-.11-8.21-10.2-17.5-19.53-26.3-29.25-1.51-1.67-2.95-3.4-4.42-5.11.36-.55.73-1.09 1.09-1.64 2.63.65 5.25 1.34 7.89 1.95 5.15 1.2 10.26 2.96 15.48 3.4 7.55.64 10.28-1.99 11.07-9.59 1.06-10.25 2-20.51 2.73-30.79.93-13.1 1.6-26.22 2.36-39.34.07-1.12.01-2.26.01-3.38-.51-.35-1.01-.72-1.52-1.09z"/><path d="m274.88 326.09c3.31.73 5.24.92 6.98 1.59 5.43 2.08 10.75 4.47 16.19 6.51 10.35 3.87 15.89 1.67 19.13-9.01 2.97-9.79 5.56-19.91 6.51-30.06 2.48-26.63 3.97-53.35 5.87-80.03.76-10.66-4.04-16.49-14.71-15.88-17.24.98-34.49 2.45-51.63 4.51-11.5 1.39-22.89 3.96-34.24 6.4-5.72 1.23-10.82.68-15.33-2.8-13.67 12.39-27.15 24.44-43.46 32.52-.58-.54-1.16-1.07-1.74-1.61 1.14-1.72 2.14-3.55 3.45-5.13 9.9-11.89 20.39-23.33 29.59-35.73 5.04-6.8 8.24-15.05 11.59-22.94 1.54-3.63 3.47-4.85 6.74-3.55 4.93 1.95 9.89 3.98 14.45 6.66 4.32 2.54 3.95 6.48-.04 9.64-4.63 3.65-9.05 7.56-13.56 11.36.24.49.47.99.71 1.48 4.95-.7 9.9-1.34 14.84-2.11 25.59-3.97 51.18-7.94 76.75-12.01 3.59-.57 7.21-1.35 10.61-2.6 5.62-2.07 10.9-1.41 15.73 1.67 5.45 3.47 10.7 7.28 15.81 11.24 3.47 2.69 4.2 6.44 1.85 10.24-7.49 12.13-7.93 25.74-8.99 39.37-2.28 29.28-2.43 58.83-9.83 87.52-3.4 13.2-9.84 24.67-20.77 33.21-1.55 1.21-3.35 2.19-5.17 2.92-5.66 2.27-9.47.78-12.24-4.59-6.19-12.01-12.88-23.68-22.33-33.54-.99-1.02-1.4-2.61-2.76-5.25z"/><path d="m200.04 75.43c3.24.63 5.67.69 7.75 1.59 10.77 4.65 21.67 2.51 32.32.27 20.26-4.27 40.36-9.29 60.53-13.97 6.67-1.55 12.84.12 18.72 3.24.88.47 1.73.99 2.59 1.5 12.17 7.2 11.57 7.06 6.57 20.06-7.02 18.25-12.95 36.92-19.42 55.39-1.64 4.69-3.25 9.45-5.48 13.87-1.19 2.36-3.38 4.55-5.65 5.97-4.83 3.01-7.44 2.23-9.96-2.93-1.64-3.35-3.35-4.23-7.29-3.65-16.91 2.46-33.91 4.26-50.85 6.53-1.67.22-3.4 1.74-4.65 3.09-3.81 4.12-7.72 3.73-9.12-1.76-1.92-7.52-3.05-15.27-4.13-22.98-1.88-13.49-3.28-27.05-5.22-40.53-.99-6.89-4.29-12.81-9.1-17.96-1.29-1.38-2.61-3.98-2.12-5.41.45-1.3 3.33-1.77 4.51-2.32zm97.36 33.41c1.23-8.43 2.61-15.89 3.32-23.43.44-4.71-2.66-7.83-7.4-8.31-2.13-.21-4.35-.08-6.47.27-13.09 2.2-26.18 4.45-39.24 6.82-8.44 1.53-16.84 3.31-25.48 5.03 1.09 8.92 2.1 17.23 3.15 25.83 11.73-1.99 22.81-4.15 33.98-5.68 12.34-1.67 24.61-6.9 38.14-.53zm-.78 8.08c-24.63 2.94-47.9 5.72-71.48 8.53.72 8.71 1.46 17.58 2.21 26.74 21.02-1.57 41.09-8.74 62.64-7.02 2.15-9.12 4.29-18.24 6.63-28.25z"/><path d="m215.28 313.4c-4.52-.32-11.01-.48-17.41-1.33-6.18-.82-8.81-3.78-9.12-9.88-.48-9.29-.29-18.63-1.02-27.9-.66-8.39-2.28-16.7-3.27-25.07-.26-2.17-.49-4.96.62-6.44.74-.99 4.08-.69 5.93-.05 3.25 1.13 6.45 2.67 9.31 4.57 7.52 5 7.35 6.21 4.79 14.76-1.78 5.96-2.21 12.36-2.89 18.61-.43 3.92-.18 7.91-.26 11.86-.09 4.46 2.49 6.43 6.55 6.4 11.44-.08 22.88-.23 34.32-.6 5.8-.19 11.68-.4 17.34-1.52 5.78-1.14 11.67-2.72 16.92-5.31 9.24-4.55 14.12-4.69 22.12 2.14 2.43 2.08 5.37 5.52 5.24 8.21-.2 4.36-4.78 5.31-8.76 5.65-19.34 1.63-38.67 3.33-58.01 4.86-6.8.54-13.62.65-22.4 1.04z"/><path d="m248.8 208.64c6.2 1.82 12.71 3.19 18.77 5.65 5.84 2.37 5.6 5.29 1.01 9.64-3.89 3.68-7.02 8.15-11.1 12.99 8.61 2.9 16 5.21 23.25 7.88 4.34 1.6 8.54 3.64 12.68 5.73 5.97 3.02 8.68 8.44 8.39 14.7-.14 2.98-2.19 6.69-4.58 8.47-1.72 1.28-6.21.97-8.08-.45-6.2-4.69-12-9.98-17.52-15.48-5.18-5.16-9.81-10.88-15.51-17.28-11.11 16.93-23.99 29-40.27 37.03-.5-.44-1-.88-1.5-1.32 1.21-1.72 2.27-3.58 3.67-5.14 10.87-12.1 19.83-25.46 25.48-40.73 2.5-6.74 3.49-14.04 5.31-21.69z"/></g><path d="m374.8 390.4.4-.4c.7.5 1.3 1 1.8 1.4l-.5.5c-.5-.6-1.1-1.1-1.7-1.5zm1 7.3-.6-.3c.5-1.4 1.1-2.8 1.5-4.3.2.1.4.2.6.3-.5 1.3-1 2.8-1.5 4.3zm-.4-10.3.4-.4c.4.3 1 .8 1.7 1.4l-.5.5c-.4-.5-1-1-1.6-1.5zm2.5.3h1.7v-1h.6v1h3.5v-1h.6v1h1.8v.5h-1.8v1.4h-2v1h3.2v2h-3.2v.9h3.3v.5h-3.4c0 .3-.1.6-.1.9h4v.5h-3.7c.7.9 1.9 1.5 3.8 1.7-.1.2-.2.4-.3.6-2.1-.4-3.5-1.1-4-2.1-.4 1-1.8 1.7-4 2.2-.1-.2-.2-.4-.3-.6 2.1-.4 3.4-1 3.8-1.8h-3.4v-.5h3.6c.1-.3.1-.6.2-.9h-3.3v-.5h3.4c0-.3 0-.6 0-.9h-3.2v-2h3.3v-1h-2.1v-1.4h-1.7v-.5zm1.1 3.5v1h2.7c0-.3 0-.4 0-.4 0-.1 0-.2 0-.2 0-.1 0-.2 0-.3h-2.7zm1.2-3v.9h3.5v-.9zm4.7 3h-2.6v.6.4h2.6z" fill="#fafafb"/><path d="m393.6 386.7h.6v1.5h2.7v6.1h1.1v.6h-11v-.6h1.1v-6.1h2.7v-1.5h.6v1.5h2.1v-1.5zm-2.7 8.8.4.6c-1.2.6-2.5 1.3-3.8 1.9-.1-.2-.2-.4-.3-.6 1.2-.6 2.5-1.2 3.7-1.9zm-2.2-6.7v2.4h2.1v-2.4zm0 3v2.5h2.1v-2.5zm2.8-3v2.4h2.1v-2.4zm0 3v2.5h2.1v-2.5zm6 6.1c-1.4-.7-2.7-1.3-3.9-1.8l.3-.6c1.5.6 2.7 1.2 3.9 1.7zm-1.2-9.1h-2.1v2.4h2.1zm-2.1 3v2.5h2.1v-2.5z" fill="#fafafb"/></svg>