<svg enable-background="new 0 0 400 400" viewBox="0 0 400 400" xmlns="http://www.w3.org/2000/svg"><g fill="#010100"><path d="m281.69 252.95c-.54 6.97-.62 13.48-1.64 19.84-1.51 9.49-3.65 18.88-5.61 28.29-.26 1.28-.78 2.63-1.58 3.63-.88 1.09-2.23 1.81-3.37 2.7-.84-1.13-2.22-2.18-2.42-3.41-.9-5.39-1.9-10.83-2.05-16.27-.31-11.1-.09-22.21-.09-34.92-12.01 3.06-22.24 5.67-32.46 8.27-1.1.28-2.44 1.07-3.28.71-6.8-2.91-13.54-5.94-20.19-9.17-1.08-.52-1.61-2.16-3.34-4.64 20.32-1.84 39.24-3.55 58.66-5.31 0-6.75 0-13.47 0-20.45-6.76.65-13.48 1.29-20.11 1.93-.29.35-.51.6-.7.86-1.51 2.11-3.01 4.22-4.52 6.32-1.93-1.85-4.97-3.39-5.59-5.61-1.98-6.99-3.2-14.2-4.44-21.37-2.44-14.05-4.32-28.22-7.22-42.17-1.04-5-4.36-9.52-7.29-15.62 3.34-.21 6.81-1.51 9.04-.37 10.43 5.3 20.8 2.21 31.15.57 12.07-1.91 12.04-2.13 12.17-14.38.03-2.62 0-5.25 0-8.17-6.53.96-12.6 2.61-18.65 2.54-6.53-.08-13.11-1.45-19.5-2.97-1.86-.44-3.14-3.31-4.68-5.07 1.82-.88 3.56-2.24 5.48-2.55 11.3-1.85 22.63-3.54 33.98-5.09 2.75-.37 3.53-1.47 3.55-4.16.1-12.84.02-25.62-5.17-37.73-1.56-3.65-.27-5.5 3.63-5.33 8.7.38 16.59 3.17 23.54 8.41 2.85 2.15 3.83 4.67 1.81 8.2-4.52 7.95-5.17 16.67-4.56 26.31 5.82-1.7 11.45-3.02 16.84-4.99 9.9-3.64 18.19.54 26.24 5.19 3.46 2 2.49 5.32-2.18 6.56-8.15 2.15-16.43 3.89-24.71 5.47-5.37 1.03-10.85 1.47-16.83 2.25v19.02c7.85-1.85 15.96-3.75 24.06-5.66 1.29-.31 2.75-.37 3.83-1.04 7.62-4.75 14.42-1.82 20.89 2.35 4.6 2.96 8.96 6.33 13.18 9.82 2.1 1.73 3.84 4.42 1.4 6.95-11.33 11.77-12.29 27.63-16.86 42.05-2.05 6.48-3.68 13.1-5.91 19.52-.89 2.57-2.54 5.08-4.42 7.08-2.99 3.17-6.24 2.76-8.57-.92-1.97-3.11-3.91-4.47-8.01-3.6-6.3 1.35-12.86 1.45-19.26 2.43-1.29.2-3.3 1.87-3.36 2.95-.34 5.77-.16 11.57-.16 18.87 11.49-1.89 22.99-2.71 33.81-5.87 11.46-3.35 21.24-1.17 30.77 4.66 2.05 1.26 3.34 3.77 4.97 5.7-2.29 1.4-4.5 3.84-6.88 4.01-9.12.67-18.3.4-27.44.88-11.92.63-23.82 1.64-35.95 2.5zm37.19-81.42c.51-5.16 1.32-11.23 1.64-17.32.26-5.07-2.48-7.67-7.32-7.05-9.32 1.2-18.6 2.7-28.47 4.15v22.81c11.05-.83 22.16-1.68 34.15-2.59zm-79.38 10.14c8.01-1.06 15.25-1.88 22.43-3.08 1.41-.23 3.62-1.86 3.68-2.93.34-6.76.17-13.55.17-20.89-10.02 1.2-19.63 2.36-29.43 3.54 1.08 7.92 2.07 15.28 3.15 23.36zm43.67 26.96c8.93-1.3 17.68-2.56 27.8-4.03 1.68-6.08 3.76-13.58 5.97-21.54-11.38 1.5-21.42 2.73-31.41 4.28-.94.15-2.2 2.23-2.25 3.45-.24 5.8-.11 11.61-.11 17.84zm-18.1 2.54c0-7.05 0-13.75 0-19.98-8.06 0-15.88 0-24.25 0 .85 7.44 1.7 14.91 2.58 22.6 7.45-.9 14.32-1.73 21.67-2.62z"/><path d="m59.58 309.81c2.61.7 5.25 1.33 7.84 2.12 4.6 1.41 9.15 3 13.76 4.37 6.74 2.01 10.28-.37 10.69-7.44.81-13.77 1.61-27.55 2.06-41.34.32-9.6.06-19.22.06-28.98-.62.42-1.74.98-2.61 1.79-11.02 10.36-21.93 20.83-33.08 31.05-1.56 1.43-4.49 2.62-6.4 2.19-8.36-1.87-15.05-6.88-20.8-13.02-3.07-3.28-2.56-5.86 1.24-6.69 16.7-3.64 30.01-13.86 44.24-22.3 5.43-3.22 10.79-6.57 16.07-10.05 1.23-.81 2.75-2.35 2.79-3.6.71-19.1 1.19-38.2 1.74-58.11-8.25 1.35-15.82 3.23-23.48 3.65-6.16.34-12.52-.56-18.57-1.91-2.7-.6-4.86-3.64-7.26-5.57.25-.59.51-1.18.76-1.77 6.79-1.07 13.58-2.12 20.37-3.23 8.18-1.34 16.35-2.8 24.54-4.09 2.77-.44 4.01-1.75 4.07-4.61.45-22.95 1.23-45.92-6.39-68.11-.48-1.41-.94-2.87-1.11-4.34-.43-3.58 1.06-6.32 4.84-5.87 11.05 1.31 20.93 5.42 27.82 14.58 1.16 1.54 1.19 5.1.21 6.89-9.65 17.65-7.71 37.03-9.34 56.71 4.9-1.58 9.12-2.87 13.29-4.29 5.86-2.01 16.94 1.3 20.23 6.35 2.42 3.72-1.09 4.91-3.31 5.6-6.64 2.07-13.43 3.68-20.18 5.36-3.36.83-6.78 1.42-11.2 2.33v51.68c5.05-3 10.37-6.16 15.67-9.33 2.71-1.62 5.3-3.5 8.15-4.82 1.49-.69 3.42-.41 5.16-.57.23.52.46 1.05.7 1.57-1.48 1.64-2.82 3.45-4.48 4.88-7.69 6.63-15.61 12.99-23.11 19.82-1.79 1.63-3.15 4.65-3.24 7.09-.53 15.13-.85 30.28-.85 45.42 0 14.97.55 29.95.67 44.92.08 9.64-1.91 18.84-7.01 27.17-.87 1.41-1.79 2.83-2.9 4.04-6.21 6.81-9.16 6.42-14.57-.81-7.87-10.52-16.15-20.74-24.18-31.14-1.51-1.96-2.68-4.18-4.01-6.28.37-.42.74-.87 1.11-1.31z"/><path d="m142.55 197.19c2.93-1.8 4.64-3.6 6.6-3.94 11.38-1.94 21.58-6.51 30.88-13.18 4.39-3.15 8.73-2.86 12.98-.05 4.43 2.93 8.92 5.84 12.95 9.27 4.28 3.64 4.17 4.78-.45 7.9-13.08 8.84-20.94 22.03-29.89 34.88 9.01 7.19 18.42 14.02 20.39 26.13 1.86 11.44-.73 22.13-7.89 32.36 8.61 2.99 16.59 6.08 24.76 8.53 21.91 6.57 43.61 14.31 65.95 18.84 18.42 3.73 37.62 3.65 56.5 5.03 10.6.78 21.25 1.03 31.86 1.72 1.96.13 3.86 1.17 7 2.17-2.13 1.77-3.06 3.02-4.29 3.5-17 6.63-33.94 13.44-51.11 19.61-12.14 4.37-23.66 1.65-35.06-4.04-27.04-13.51-54.3-26.6-81.59-39.6-9.69-4.62-19.92-7.07-30.91-6.44-7.01.4-13.54 1.67-19.34 5.58-3.4 2.3-6.43 2.49-9.41-.34-3.46-3.3-7.18-6.42-10.07-10.18-2.68-3.48-1.72-4.86 2.74-4.98 13.64-.37 27.29-1.03 40.92-.83 4.88.07 6.11-2.1 6.65-5.82 2.18-14.87.35-29.11-9.36-40.99-5.87-7.18-7.45-13.59-2.71-21.89 2.85-4.99 4.49-10.71 6.31-16.22 1.53-4.66-.59-6.7-5.33-5.45-2.73.72-5.42 1.62-8.08 2.56-7.09 2.49-13.29.24-21-4.13z"/><path d="m153.26 107.62c3.88.52 6.64.61 9.24 1.3 6.71 1.76 13.53 3.29 19.97 5.8 10.52 4.11 14.75 19.79 8.29 29.1-2.69 3.87-6.87 4.76-10.75 1.74-2.72-2.12-5.23-4.68-7.26-7.47-5.86-8.05-11.47-16.28-17.07-24.52-.94-1.37-1.3-3.14-2.42-5.95z"/></g><path d="m385.2 377.6.6-.7c.6.4 1.3.9 1.9 1.5l-.6.7c-.8-.5-1.4-1-1.9-1.5zm.3 7.1c.6-1.4 1.1-2.9 1.5-4.5.3.1.6.3.9.4-.5 1.4-1 2.9-1.5 4.4zm.2-10.1.6-.6c.7.5 1.3 1.1 1.9 1.6l-.7.7c-.6-.6-1.2-1.2-1.8-1.7zm8.4-.8h.8v.9h1.8v.7h-1.8v1.8h-.8v-.3h-1.2v.9h3.3v2.6h-.8v-.4h-2.5c0 .3 0 .6-.1.8h3.4v.7h-3.5c0 .3-.1.6-.1.8h4v.7h-3.5c.7.9 1.9 1.3 3.6 1.5-.2.2-.4.5-.6.9-1.9-.3-3.2-1.1-3.8-2.3-.5 1.1-1.8 2-3.9 2.4-.2-.3-.4-.5-.6-.8 1.9-.4 3.1-.9 3.6-1.7h-3.2v-.7h3.5c.1-.2.1-.5.2-.8h-3.3v-.7h3.4c0-.2 0-.5 0-.8h-2.4v.3h-.8v-2.6h3.3v-.9h-1.2v.3h-.8v-1.8h-1.8v-.7h1.8v-.9h.8v.9h3.2zm-4.4 5.5h2.4c0-.3 0-.6 0-.9h-2.4zm1.2-3.1h3.2v-.8h-3.2zm4.4 2.2h-2.4v.9h2.5v-.9z" fill="#fbfcfa"/><path d="m389.2 385.8h.9v1.5h1.9v-1.5h.9v1.5h2.7v6h1.1v.9h-11.3v-.9h1.1v-6h2.7zm.2 8.7.5.8c-1.2.6-2.5 1.3-4 1.9-.2-.3-.3-.6-.6-.8 1.6-.6 3-1.3 4.1-1.9zm-2-4.3h1.9v-2.1h-1.9zm0 3.1h1.9v-2.2h-1.9zm2.7-3.1h1.9v-2.1h-1.9zm0 3.1h1.9v-2.2h-1.9zm2.4 1.3c1.4.6 2.7 1.2 4.1 1.8l-.5.9c-1.5-.7-2.8-1.4-4.1-1.9zm2.2-6.5h-1.9v2.1h1.9zm-1.9 5.2h1.9v-2.2h-1.9z" fill="#fbfcfa"/></svg>