<svg enable-background="new 0 0 400 400" viewBox="0 0 400 400" xmlns="http://www.w3.org/2000/svg"><g fill="#010100"><path d="m313.64 132.12c-4.98-13.21-9.91-26.19-14.74-39.21-.48-1.31-.4-2.82-.57-4.24 1.54.02 3.22-.36 4.6.12 4.85 1.7 9.86 3.22 14.33 5.67 13.44 7.37 14.83 18.32 6.43 30.93-.91 1.37-2.02 2.61-2.64 4.79 7.57-2.58 15.25-4.9 22.68-7.83 6.61-2.61 12.46-1.03 17.96 2.4 4.63 2.88 4.36 6.6-.99 8.71-7.69 3.03-15.73 5.18-23.65 7.61-2.18.67-4.47 1-8.05 1.78 7.53 4.19 4.71 9.27 3.54 14.85-1.76 8.38-2.03 17.08-3.02 26.43 5-1.45 9.01-2.81 13.13-3.75 6.75-1.55 12 2 16.58 6.08 2.71 2.42 1.04 4.95-2.21 5.82-7.52 2.02-15.03 4.15-22.66 5.68-3.87.78-5.15 2.3-5.05 6.21.25 10.1.08 20.22.08 30.61.95-.23 2.47-.33 3.72-.96 7.34-3.72 14.26-.72 21.22 1.24 1.37.39 2.66 1.41 3.73 2.42 3.02 2.84 2.69 5.45-1.37 6.54-7.66 2.04-15.45 3.85-23.3 4.9-4.15.55-5.96 1.94-5.95 5.96.02 11.79.01 23.57.01 36.19 4.14-.8 9.25-1.22 13.95-2.81 11.04-3.76 20.23.81 29.18 6.01 1.83 1.06 2.35 4.37 3.48 6.64-1.84.77-3.63 2.04-5.53 2.23-17.35 1.75-34.75 3.11-52.08 5.03-7.9.88-15.73 2.54-23.5 4.26-6.73 1.49-13.32 2.95-20.41-.65-.48 7.74-.75 14.81-1.42 21.85-.51 5.44-1.29 10.87-2.42 16.21-.4 1.87-1.96 4.56-3.4 4.86-1.55.31-4.19-1.31-5.31-2.85-7.57-10.41-12.62-21.99-9.52-34.97 7.63-32.05 10.07-64.58 10.61-97.38.19-11.8 1.53-23.59 1.49-35.38-.04-11.07-1.2-22.13-1.87-33.2-.45-.08-.91-.17-1.36-.25-4.44 5.52-8.88 11.04-13.31 16.56-.52.65-.88 1.53-1.54 1.94-1.52.96-3.19 1.71-4.79 2.54.21-1.68.01-3.54.68-5.01 13.37-29.61 24.29-60.06 30.78-91.95 1.62-7.94 2.1-16.13 2.82-24.22.5-5.63 2.31-7 7.26-4.22 5.07 2.84 10.02 5.94 14.72 9.35 5.71 4.15 5.57 7.44.41 12.16-1.4 1.28-2.42 3.17-3.13 4.97-8.16 20.7-16.24 41.42-24.26 62.17-.53 1.36-1.03 3.72-.36 4.34 1.13 1.04 3.33 1.72 4.86 1.42 13.34-2.63 26.62-5.52 39.92-8.35.24-.08.45-.43.24-.25zm-39.16 125.7c-.62 13.68-1.31 28.7-1.99 43.73.91.17 1.4.41 1.84.33 10.75-2 21.52-3.96 32.22-6.2.99-.21 2.17-2.2 2.28-3.45.45-5.12.63-10.27.7-15.42.1-7.61.03-15.22.03-22.76-11.44 1.23-22.69 2.44-35.08 3.77zm3.03-106.69c1.08 3.05 3.98 6.97 3.04 9.37-4.37 11.08-2.56 22.68-4.06 33.95-.08.6.57 1.29.89 1.96 10.56-2.28 20.78-4.36 30.92-6.82 1.33-.32 3.04-2.49 3.13-3.9.36-5.47.43-10.99.07-16.46-.49-7.36-1.47-14.69-2.22-21.82-11.52 1.34-21.98 2.57-31.77 3.72zm-1.7 53.9v41.05c10.81-1.91 21.1-3.68 31.36-5.63 1.01-.19 2.6-1.46 2.61-2.25.17-11.6.12-23.2.12-34.98-10.75 1.04-21.42 7.86-34.09 1.81z"/><path d="m217.28 188.57c-10 2.38-19.12 4.55-29.02 6.9 3.41 2.26 6.16 3.99 8.82 5.86 2.88 2.03 3.13 4.23 1.51 7.63-3.24 6.82-5.72 13.99-9.06 22.39 6.12-1.1 10.69-1.64 15.09-2.79 5.92-1.55 11.63-4 17.61-5.26 3.31-.7 7.67-.94 10.32.66 5.76 3.48 10.93 8.05 15.87 12.68 1.36 1.28 2.23 5.29 1.31 6.46-6.52 8.31-5.54 18.21-6.62 27.67-2.03 17.8-3.51 35.67-6.13 53.38-1.45 9.78-7.85 17.06-16.05 22.53-4.21 2.8-7.48 2.25-9.69-1.79-5.67-10.35-11.19-20.79-16.69-31.23-.48-.92-.45-2.11-.94-4.67 3.61 1.88 6.19 3.1 8.65 4.53 2.87 1.67 5.61 3.58 8.47 5.28 5.71 3.39 9.46 2.09 11.09-4.47 1.73-6.91 3.4-13.96 3.87-21.03.9-13.6 1.13-27.26 1.25-40.9.1-10.34-4.02-13.75-14.26-12.48-7.57.94-15.12 1.98-22.66 3.12-1.08.16-2.73 1-2.93 1.82-2.93 11.86-5.66 23.76-8.69 36.75 7.29-3.69 13.44-6.81 19.81-10.03-1.69-4.59-3.35-8.74-4.69-12.99-.39-1.24.12-2.76.21-4.15 1.23.17 2.64.02 3.67.57 4.24 2.29 8.54 4.54 12.49 7.28 9.33 6.48 12.71 17.46 8.12 27.12-1.12 2.35-3.93 5.23-6.1 5.35-2.02.11-4.72-2.79-6.23-4.99-2.04-2.97-3.22-6.52-5.14-10.61-7.65 5.3-15.32 10.14-22.44 15.67-10.15 7.89-20.47 5.38-25.67-6.73-1.35-3.14-.17-4.38 3.02-4.22 9.47.49 9.47.49 11.62-9.24 2.07-9.33 4.14-18.66 6.41-28.89-9.06 2.32-17.21 4.3-25.27 6.59-.91.26-1.93 2.2-1.91 3.36.14 14.98.76 29.95.61 44.92-.1 9.62-1.25 19.22-1.98 28.83-.07.97-.29 2.12-.88 2.82-1.72 2.05-3.56 5.31-5.56 5.47-1.99.16-4.88-2.46-6.24-4.58-4.35-6.8-2.3-14.47-2.15-21.86.21-10.3.36-20.61.45-30.91.07-7.6.01-15.21.01-23.15-8.02.18-13.95-1.98-18.42-7.22-1.09-1.28-1.53-3.1-2.27-4.67 1.63-.51 3.27-1.5 4.88-1.43 4.11.18 8.2.83 13.3 1.4-1.24-3.57-2.14-6.46-3.26-9.27-1.82-4.59-.64-6.64 4.07-6.02 4.07.53 8.09 1.59 12.04 2.75 4.05 1.19 7.75 2.97 5.75 9.14 9.28-2.46 17.72-4.63 26.1-6.99 1.04-.29 2.49-1.5 2.58-2.4 1.17-11.19 2.12-22.4 3.25-34.89-10.17 3.41-19.18 5.56-26.31 11.9-9.23 8.2-11.44 7.05-16.35-4.48-1.9-4.47-1.06-8.51.77-12.93 5.12-12.36 9.04-25.06 6.19-38.73-.44-2.1-1.46-4.09-1.85-6.2-.73-4 1.33-6.14 5.01-4.63 4.85 2 9.47 4.66 13.92 7.47 3.69 2.33 3.7 5.44 1.65 9.44-5.22 10.21-5.34 21.67-8.22 33.8 4.55-.68 7.91-1.02 11.2-1.71 16.72-3.52 33.41-7.19 50.14-10.65 3.38-.7 5.07-1.98 5.24-5.76.43-9.29 1.66-18.55 1.91-27.84.13-4.89-.91-9.85-1.79-14.72-.84-4.63.87-6.77 5.27-5.05 5.03 1.97 9.85 4.65 14.4 7.57 1.34.86 2.36 3.78 2.01 5.45-1.97 9.52-4.62 18.9-6.62 28.41-1.94 9.25-3.19 18.64-5.17 27.88-.67 3.14-2.06 6.57-4.23 8.78-1.54 1.58-5.17 2.22-7.41 1.61-1.36-.37-2.58-3.91-2.6-6.03-.02-3.9.9-7.81 1.54-12.65z"/><path d="m52.39 306.42c3.41 1.02 6.82 2.06 10.23 3.06 4.3 1.27 8.56 2.66 12.91 3.72 5.08 1.23 7.5-.24 8.42-5.55.91-5.22 1.44-10.53 1.66-15.83.84-19.94 1.49-39.89 2.2-59.84.03-.78-.1-1.57-.24-3.63-2.74 3.01-4.91 5.14-6.79 7.51-7.43 9.33-14.69 18.79-22.22 28.04-1.07 1.31-3.38 2.53-4.96 2.36-9.62-1.03-17.61-5.68-24.3-12.44-2.36-2.39-2.18-5.54 1.49-6.75 17.21-5.71 30.17-17.87 44.03-28.69.52-.41.95-.99 1.53-1.28 10.93-5.54 13.72-14.49 12.83-26.28-.82-10.89.4-21.93.7-32.91.05-1.79.01-3.58.01-5.51-10.84 1.82-21.11 3.62-31.41 5.24-7.93 1.24-15.58-.12-22.84-3.41-1.49-.68-2.55-2.28-3.81-3.46 1.72-1 3.32-2.54 5.16-2.93 16.22-3.41 32.46-6.69 48.73-9.82 3.21-.62 4.33-1.9 4.29-5.23-.16-14.13.72-28.31-.26-42.37-.8-11.33-3.82-22.5-5.64-33.78-.44-2.75-1.14-6.68.27-8.15 1.42-1.48 5.45-1.17 8.13-.62 7.94 1.61 15.16 4.87 20.97 10.79 3.09 3.15 4.34 6.34 1.79 10.62-6.34 10.66-6.74 22.83-8.01 34.66-.99 9.23-1.07 18.55-1.57 28.2 1.28-.29 2.17-.29 2.82-.68 8.4-5.08 16.62-2.86 24.6.88 2.03.95 3.35 3.39 5 5.15-1.64 1.47-3.04 3.7-4.95 4.27-7.92 2.39-16.02 4.15-23.97 6.45-1.47.42-3.59 2.24-3.61 3.45-.25 14.12-.16 28.25-.16 42.47 1.74-1.33 4.16-3.13 6.52-5.01 5.46-4.37 10.79-8.91 16.38-13.09 1.61-1.21 3.96-1.42 5.98-2.09.3.55.6 1.11.9 1.66-1.32 1.81-2.48 3.77-3.98 5.42-8.37 9.26-16.86 18.42-25.19 27.71-1 1.11-1.86 2.82-1.88 4.26-.33 24.46-.52 48.93-.74 73.4-.11 12.45.67 24.99-.65 37.32-.76 7.11-4.75 13.93-7.62 20.74-.72 1.7-2.56 3.08-4.17 4.21-5.19 3.66-6.68 3.13-10.55-1.96-8.56-11.25-17.36-22.32-26-33.51-1.25-1.62-2.21-3.46-3.31-5.2.43-.53.86-1.05 1.28-1.57z"/><path d="m182.79 150.04c-4.76-3.68-8.84-6.82-12.9-9.98-1.05-.82-2.29-1.5-3.05-2.54-.77-1.05-1.05-2.47-1.55-3.72 1.22.02 2.55-.27 3.65.11 5.78 2.05 11.5 4.27 18.26 6.81 3.21-8.44 6.32-16.63 9.93-26.14-12.54 3.4-23.4 6.2-34.16 9.32-8.39 2.43-16.13 1.21-23.37-3.37-1.21-.77-1.87-2.42-2.78-3.67 1.3-.79 2.5-2.01 3.9-2.32 14.88-3.31 29.79-6.48 44.69-9.71.78-.17 1.5-.57 1.49-.56-6.75-13.23-13.47-26.32-20.06-39.47-.59-1.17-.34-2.77-.48-4.16 1.4-.08 2.95-.6 4.18-.18 6.59 2.25 13.21 4.5 19.63 7.2 10.7 4.5 14.3 14.43 9.34 25-1.19 2.54-2.55 5.01-4.53 8.88 7.17-2.73 13.29-4.6 18.99-7.34 8.71-4.18 17.06-3.49 25.32.74 1.54.79 3.49 2.8 3.42 4.14-.07 1.33-2.26 3.2-3.87 3.69-10.76 3.31-21.62 6.32-32.87 9.55 3.37 2.55 6.41 4.76 9.33 7.11 2.02 1.63 2.14 3.37.37 5.55-5.6 6.9-11.01 13.94-16.99 21.57 6.91 3.78 11.73 8.01 12.9 15.32.54 3.38.09 5.88-2.67 7.85-3.08 2.2-5.97 1.56-8.58-.83-3.3-3.02-6.51-6.12-9.93-9.35-9.01 8.01-17 17.03-29.43 19.94 7.14-9.64 14.29-19.28 21.82-29.44z"/></g><path d="m385.2 377.6.6-.7c.6.4 1.3.9 1.9 1.5l-.6.7c-.8-.5-1.4-1-1.9-1.5zm.3 7.1c.6-1.4 1.1-2.9 1.5-4.5.3.1.6.3.9.4-.5 1.4-1 2.9-1.5 4.4zm.2-10.1.6-.6c.7.5 1.3 1.1 1.9 1.6l-.7.7c-.6-.6-1.2-1.2-1.8-1.7zm8.4-.8h.8v.9h1.8v.7h-1.8v1.8h-.8v-.3h-1.2v.9h3.3v2.6h-.8v-.4h-2.5c0 .3 0 .6-.1.8h3.4v.7h-3.5c0 .3-.1.6-.1.8h4v.7h-3.5c.7.9 1.9 1.3 3.6 1.5-.2.2-.4.5-.6.9-1.9-.3-3.2-1.1-3.8-2.3-.5 1.1-1.8 2-3.9 2.4-.2-.3-.4-.5-.6-.8 1.9-.4 3.1-.9 3.6-1.7h-3.2v-.7h3.5c.1-.2.1-.5.2-.8h-3.3v-.7h3.4c0-.2 0-.5 0-.8h-2.4v.3h-.8v-2.6h3.3v-.9h-1.2v.3h-.8v-1.8h-1.8v-.7h1.8v-.9h.8v.9h3.2zm-4.4 5.5h2.4c0-.3 0-.6 0-.9h-2.4zm1.2-3.1h3.2v-.8h-3.2zm4.4 2.2h-2.4v.9h2.5v-.9z" fill="#fbfcfa"/><path d="m389.2 385.8h.9v1.5h1.9v-1.5h.9v1.5h2.7v6h1.1v.9h-11.3v-.9h1.1v-6h2.7zm.2 8.7.5.8c-1.2.6-2.5 1.3-4 1.9-.2-.3-.3-.6-.6-.8 1.6-.6 3-1.3 4.1-1.9zm-2-4.3h1.9v-2.1h-1.9zm0 3.1h1.9v-2.2h-1.9zm2.7-3.1h1.9v-2.1h-1.9zm0 3.1h1.9v-2.2h-1.9zm2.4 1.3c1.4.6 2.7 1.2 4.1 1.8l-.5.9c-1.5-.7-2.8-1.4-4.1-1.9zm2.2-6.5h-1.9v2.1h1.9zm-1.9 5.2h1.9v-2.2h-1.9z" fill="#fbfcfa"/></svg>