<svg enable-background="new 0 0 400 400" viewBox="0 0 400 400" xmlns="http://www.w3.org/2000/svg"><path d="m377.9 391.2c-.2.3-.4.5-.6.8-.7-.6-1.4-1-2.2-1.5.2-.3.4-.5.5-.8.6.4 1.4.8 2.3 1.5zm-1.8 6.1c-.2-.2-.5-.4-.9-.6.4-.6.8-1.2 1.2-1.9s.7-1.3.9-1.9c.3.3.5.5.8.7-.7 1.3-1.4 2.6-2 3.7zm2.2-9c-.3.3-.5.5-.6.8-.6-.6-1.3-1.1-2-1.5.3-.3.5-.5.6-.7.6.5 1.3.9 2 1.4zm.3.2v-.9h2 4.5c-.3 1.3-.6 2.5-1 3.6s-.9 2.1-1.4 3c.4.5 1 1 1.6 1.4s1.2.8 1.9 1.1c-.3.2-.5.4-.8.8-.4-.3-1-.7-1.6-1.2s-1.2-1.1-1.6-1.6c-.5.6-1.1 1.1-1.7 1.6s-1.4.9-2.1 1.4c-.1-.3-.3-.5-.7-.8.6-.2 1.2-.5 1.9-1s1.4-1.1 2-1.8c-.5-.8-.9-1.6-1.2-2.5s-.6-2-.8-3.2c-.4.1-.7.1-1 .1zm2.5 2.7c.3 1 .7 1.7 1 2.2.3-.5.6-1.1 1-2s.6-1.9.9-3h-3.2-.4c.1.9.3 1.8.7 2.8z" fill="#fbfafc"/><path d="m396.5 388.5v1.5 3.6h1.5v.9c-.4 0-1 0-1.7 0h-7.9c-.5 0-.9 0-1.2 0v-.9h1.3v-3.5c0-.7 0-1.2 0-1.6h2.4c0-.8 0-1.4 0-1.7h1c0 .3-.1.8-.1 1.7h1.5c0-.8 0-1.4 0-1.7h1c0 .3-.1.9-.1 1.7zm-8.2 9.2c-.2-.3-.5-.5-.8-.8.8-.3 1.4-.6 1.9-.9s1-.7 1.4-1.1c.3.3.6.5.9.8-1.6 1-2.8 1.6-3.4 2zm2.6-6.8v-1.6h-1.5v1.6zm0 2.7v-1.9h-1.5v1.9zm2.4-2.7v-1.6h-1.5v1.6zm0 2.7v-1.9h-1.5v1.9zm.2 2 .7-.8c.4.2.9.5 1.6.8s1.3.7 1.8 1c-.3.3-.5.5-.8.8-.4-.3-1.5-1-3.3-1.8zm2-4.7v-1.6h-1.4v1.6zm0 2.7v-1.9h-1.4v1.9z" fill="#fbfafc"/><g fill="#010103"><path d="m239.58 150.33c-8.51.73-16.72 1.66-24.95 2.09-8.92.47-17.9 1.02-26.79.47-3.98-.25-7.94-2.86-11.61-4.94-1.2-.68-1.43-3.07-2.1-4.67 1.3-.54 2.57-1.41 3.92-1.56 14.52-1.67 29.06-3.16 43.59-4.84 5.91-.68 11.79-1.71 18.37-2.68 0-8.01.26-15.95-.06-23.87-.44-10.92-.91-21.88-2.22-32.72-.54-4.43-3.28-8.61-5.08-12.88-1.71-4.06-.5-6.66 3.87-6.9 9.68-.55 18.83 1.84 27.26 6.45 3.74 2.04 5.41 4.97 3.21 9.95-2.1 4.75-2.9 10.25-3.37 15.5-1.12 12.41-1.7 24.87-2.49 37.32-.05.8-.01 1.6-.01 3.79 10.89-2.34 21.43-3.75 31.37-6.99 10.42-3.4 19.26-1.2 27.81 4.37 1.69 1.1 3.76 3.65 3.51 5.18-.26 1.6-2.92 3.55-4.85 4.02-7.56 1.83-15.22 3.33-22.9 4.57-11.78 1.91-23.62 3.51-35.63 5.27-.79 9.59-1.12 19.05-2.44 28.37-2.94 20.68-6.41 41.29-9.54 61.95-.27 1.78-.28 4.22.7 5.49 24.29 31.58 50.73 61.04 86.02 80.76 10.21 5.71 21.63 9.26 32.5 13.78 1.23.51 2.67.67 3.72 1.4 1.39.97 2.5 2.36 3.72 3.56-1.47 1.09-2.84 2.95-4.42 3.15-14.96 1.94-29.95 3.75-44.96 5.28-9.27.94-16.3-3.09-21.68-10.64-18.33-25.75-36.79-51.41-55.2-77.11-1.74-2.42-3.5-4.83-5.81-8-1.15 2.88-2 5.09-2.89 7.28-17.44 42.52-47.14 72.19-91.13 86.82-3.3 1.1-6.71 1.9-10.11 2.59-.95.19-2.89-.33-2.97-.78-.2-1.11.05-2.72.79-3.48 1.24-1.27 2.97-2.09 4.53-3.02 22.18-13.21 42.67-28.53 58.55-49.13 17.8-23.1 28.65-49.44 32.9-78.17 3.15-21.33 4.77-42.88 7.05-64.33.06-.77-.11-1.58-.18-2.7z"/><path d="m108.63 217.12c-20.5 33.4-43.19 64.33-79.47 82.04-.56-.37-1.12-.74-1.68-1.11.99-1.72 1.75-3.64 3.01-5.13 11.3-13.32 23.18-26.17 33.94-39.91 14.53-18.57 24.97-39.61 34.13-61.27 2.51-5.94 4.82-11.97 7.6-18.88-7.17.97-13.36 1.81-19.54 2.65-10.64 1.46-21.2 1.44-31.57-1.75-1.71-.53-3.51-1.29-4.81-2.46-1.12-1.01-2.26-2.85-2.08-4.15.13-.94 2.32-2.05 3.72-2.29 18.34-3.08 36.69-6.12 55.08-8.89 3.66-.55 4.99-1.65 4.98-5.56-.04-12.31.89-24.64.52-36.94-.44-14.72-.26-29.64-6.52-43.55-.81-1.8-1.28-3.78-1.76-5.71-.74-2.99.43-4.75 3.52-5.36 7.91-1.56 26.62 7.14 29.83 14.24.73 1.61.7 4.14-.05 5.74-5.11 10.87-4.99 22.66-6.16 34.16-1.28 12.54-1.72 25.17-2.56 38.3 6.11-1.64 11.52-3.14 16.95-4.54 8.04-2.06 15.12.19 21.21 5.44 3.5 3.01 3.29 5.84-1.02 7.67-5.44 2.31-11.27 3.84-17.06 5.16-5.98 1.36-12.14 1.9-18.15 3.16-1.26.26-3.06 2.03-3.14 3.2-.58 8.63-.92 17.28-.96 25.92 0 1.21 1.89 2.77 3.25 3.6 6.06 3.72 12.64 6.7 18.28 10.96 7.1 5.37 8.83 17.05 4.46 23.89-3.78 5.91-7.66 6.41-11.53.66-4.35-6.46-7.88-13.47-11.74-20.25-1.03-1.82-1.97-3.7-2.95-5.55-.45.08-.91.15-1.36.23 0 8.38.14 16.76-.03 25.13-.42 20.45-1.13 40.9-1.43 61.35-.1 7.14.28 14.32 1.09 21.42 1.35 11.87-1.38 22.83-6.8 33.15-1.32 2.51-4.42 5.7-6.63 5.65-2.26-.05-5.23-3.3-6.53-5.85-6.08-11.98-8.5-24.11-5.1-37.96 3.5-14.26 4.63-29.17 5.92-43.88 1.54-17.51 2.13-35.14 3.14-52.73z"/><path d="m300.11 204.7c-10.83 15.45-22.63 28.75-39.62 35.78-.58-.58-1.16-1.16-1.75-1.74 1.64-2.36 3.11-4.87 4.95-7.07 11.17-13.37 20.26-28.09 27.04-44.05 2.8-6.59 3.71-14.06 4.93-21.23.57-3.36 2.32-3.95 4.77-3.25 7.09 2.04 13.72 4.95 18.64 10.88 2.6 3.14 1.89 5.2-.79 8.03-5.22 5.49-9.9 11.49-15.35 17.91 8.39 3.26 15.83 5.82 22.99 9.02 8.94 4 17.22 8.96 19.61 19.61.32 1.44.83 3.06.48 4.39-.88 3.35-1.45 8.62-3.52 9.38-3.08 1.13-8.6.33-10.88-1.9-8.4-8.22-15.93-17.34-23.72-26.18-2.52-2.86-4.82-5.92-7.78-9.58z"/><path d="m194.62 206.58c7.07 3.25 13.06 5.73 18.78 8.71 7.53 3.93 10.46 11.3 7.96 18.89-1.48 4.51-4.02 5.97-8.36 4.15-2.35-.99-4.63-2.62-6.39-4.48-5.49-5.8-10.71-11.85-16.29-18.09-10.23 12.85-20.52 25.38-35.08 33.1-.46-.41-.92-.81-1.38-1.22 1.21-2.06 2.32-4.19 3.66-6.17 9.75-14.51 19.45-29.09 24.82-45.9 1.94-6.06 2.85-12.56 3.36-18.92.3-3.78 1.54-5.65 4.96-4.61 6.42 1.95 12.85 4.11 18.9 6.97 3.4 1.6 3.36 4.55.6 7.78-5.36 6.26-10.22 12.96-15.54 19.79z"/></g></svg>