<svg enable-background="new 0 0 400 400" viewBox="0 0 400 400" xmlns="http://www.w3.org/2000/svg"><path d="m377.9 391.2c-.2.3-.4.5-.6.8-.7-.6-1.4-1-2.2-1.5.2-.3.4-.5.5-.8.6.4 1.4.8 2.3 1.5zm-1.8 6.1c-.2-.2-.5-.4-.9-.6.4-.6.8-1.2 1.2-1.9s.7-1.3.9-1.9c.3.3.5.5.8.7-.7 1.3-1.4 2.6-2 3.7zm2.2-9c-.3.3-.5.5-.6.8-.6-.6-1.3-1.1-2-1.5.3-.3.5-.5.6-.7.6.5 1.3.9 2 1.4zm.3.2v-.9h2 4.5c-.3 1.3-.6 2.5-1 3.6s-.9 2.1-1.4 3c.4.5 1 1 1.6 1.4s1.2.8 1.9 1.1c-.3.2-.5.4-.8.8-.4-.3-1-.7-1.6-1.2s-1.2-1.1-1.6-1.6c-.5.6-1.1 1.1-1.7 1.6s-1.4.9-2.1 1.4c-.1-.3-.3-.5-.7-.8.6-.2 1.2-.5 1.9-1s1.4-1.1 2-1.8c-.5-.8-.9-1.6-1.2-2.5s-.6-2-.8-3.2c-.4.1-.7.1-1 .1zm2.5 2.7c.3 1 .7 1.7 1 2.2.3-.5.6-1.1 1-2s.6-1.9.9-3h-3.2-.4c.1.9.3 1.8.7 2.8z" fill="#fbfafc"/><path d="m396.5 388.5v1.5 3.6h1.5v.9c-.4 0-1 0-1.7 0h-7.9c-.5 0-.9 0-1.2 0v-.9h1.3v-3.5c0-.7 0-1.2 0-1.6h2.4c0-.8 0-1.4 0-1.7h1c0 .3-.1.8-.1 1.7h1.5c0-.8 0-1.4 0-1.7h1c0 .3-.1.9-.1 1.7zm-8.2 9.2c-.2-.3-.5-.5-.8-.8.8-.3 1.4-.6 1.9-.9s1-.7 1.4-1.1c.3.3.6.5.9.8-1.6 1-2.8 1.6-3.4 2zm2.6-6.8v-1.6h-1.5v1.6zm0 2.7v-1.9h-1.5v1.9zm2.4-2.7v-1.6h-1.5v1.6zm0 2.7v-1.9h-1.5v1.9zm.2 2 .7-.8c.4.2.9.5 1.6.8s1.3.7 1.8 1c-.3.3-.5.5-.8.8-.4-.3-1.5-1-3.3-1.8zm2-4.7v-1.6h-1.4v1.6zm0 2.7v-1.9h-1.4v1.9z" fill="#fbfafc"/><g fill="#010103"><path d="m255.51 162.95c20.24 12.74 40.77 22.5 62.79 28.83 15.3 4.4 30.81 8.02 46.21 12.07 1.7.45 3.26 1.46 4.88 2.22-.06.6-.11 1.2-.17 1.81-5.19 1.2-10.35 2.62-15.59 3.55-11.27 2-22.57 3.82-33.88 5.58-8.61 1.34-16.26-1.74-22.95-6.56-13.9-10.01-27.45-20.53-41.12-30.86-2.24-1.69-4.37-3.53-6.77-5.47-6.37 5.85-12.33 11.88-18.88 17.2-19.01 15.46-41.27 20.72-65.3 19.72-1.59-.07-3.14-1.21-4.71-1.86 1.42-1.08 2.7-2.85 4.27-3.14 19.88-3.68 37.75-11.83 53.43-24.43 6.14-4.93 11.27-11.12 18.12-18-10.05-4.86-18.77-9.11-27.53-13.29-1.33-.63-3.07-.6-4.19-1.45-1.4-1.05-2.35-2.69-3.49-4.07 1.73-.98 3.6-2.96 5.17-2.75 5.23.7 10.51 1.73 15.47 3.49 6.54 2.32 12.8 5.44 19.92 8.53 7.8-13.77 12.49-28.47 11.16-45.97-6.49 1.61-12.1 2.8-17.59 4.41-5.86 1.72-11.72 2.99-17.55.51-4.4-1.87-6.8.08-9.75 3.09-7.41 7.6-15.26 14.77-22.98 22.07-.8.76-1.92 1.19-3.96 1.12.82-1.74 1.44-3.63 2.5-5.21 11.99-17.75 21.3-36.86 27.96-57.16 2.29-6.98 3-14.56 3.73-21.94.63-6.37 1.9-7.91 7.55-4.85 6.07 3.28 11.69 7.48 17.15 11.73 2.77 2.16 2.41 4.55-.05 7.9-7.54 10.24-14.22 21.1-21.24 31.72.36.56.71 1.12 1.07 1.67 13.91-3.57 27.85-7.02 41.71-10.77 8.01-2.16 15.78-5.34 23.87-7.03 4.79-1 10.12-.62 14.98.31 4.31.82 8.48 2.96 12.36 5.14 1.47.83 1.97 3.4 2.91 5.18-1.53.73-2.99 1.85-4.6 2.12-14.56 2.45-29.14 4.73-43.71 7.11-1.22.2-2.38.74-3.54 1.12 4.43 3.19 8.72 6.26 13 9.35 2.75 1.98 3.02 4.1 1.27 7.2-7.4 13.17-14.52 26.46-21.93 40.06z"/><path d="m90.58 178.79c-15.45 21.31-33.15 40.18-55.65 53.83-.55-.45-1.11-.9-1.66-1.35 1.55-2.31 3.02-4.67 4.66-6.92 12.52-17.21 25.98-33.82 37.38-51.74 14.98-23.56 28.01-48.31 36.94-74.95 2.74-8.18 5.21-16.37 3.81-25.3-.74-4.71 1.83-6.52 6.43-5.04 8.63 2.77 15.48 8.35 21.62 14.76 1.63 1.7 2.37 3.84.44 6.64-5.19 7.5-10.07 15.24-14.62 23.14-9.78 16.99-19.2 34.17-28.95 51.18-1.32 2.3-1.42 3.85.45 5.62.6.57 1.05 1.29 1.61 1.91 6.58 7.34 8.79 14.94 6.35 25.37-5.07 21.68-3.07 44.05-3.33 66.15-.23 19.99.12 39.99-.04 59.98-.08 9.42-2.26 18.43-7.43 26.48-2.9 4.52-4.62 4.94-7.97.72-8.02-10.12-14.1-21.12-9.84-34.74 4.75-15.16 7.02-30.77 7.82-46.51 1.43-28.07 2.19-56.17 3.22-84.26.05-1.42.01-2.84.01-4.26-.42-.25-.84-.48-1.25-.71z"/><path d="m234.69 246.85c-15.12 3.46-29.85 6.71-44.51 10.24-9.11 2.19-22.91-2.78-26.52-10.84 23.78-3.54 47.26-7.03 71.1-10.58.73-10.23-.32-19.58-4.34-28.57-.74-1.66-1.58-4.44-.8-5.35 1.12-1.29 3.89-2.18 5.59-1.76 6.08 1.5 12.17 3.25 17.94 5.66 3.93 1.65 5.72 4.72 4.05 9.73-1.69 5.08-1.89 10.64-2.93 17.1 9.94-1.79 18.67-3.31 27.38-4.94 4.56-.86 9.27-1.41 13.59-2.99 11.75-4.28 21 1.24 30.12 7.18 1.68 1.09 2.41 3.63 3.57 5.51-1.95.61-3.88 1.61-5.86 1.76-22.83 1.75-45.67 3.38-69.33 5.09-.24 12.74-.58 24.81-.65 36.88-.12 18.48-.12 36.97-.05 55.46.03 8.67-3.15 16.22-7.74 23.28-2.79 4.28-5.12 4.74-7.5.63-5.88-10.18-11.35-20.74-9.25-33.21 4.43-26.24 7.49-52.6 6.14-80.28z"/><path d="m131.55 257.69c.77-18.58 1.84-37.16 2.2-55.75.24-12.43-.37-24.88-4.6-36.85-1.72-4.87.29-7.18 5.43-6.02 4.97 1.12 9.84 2.89 14.6 4.76 3.61 1.42 4.35 4.12 3.42 8.12-1.64 7.04-3.13 14.25-3.43 21.44-.75 17.94-1.17 35.91-.93 53.86.1 7.18.42 14.25-2.27 20.93-1.16 2.88-3.71 5.2-5.62 7.78-2.18-2.13-5.02-3.91-6.39-6.48-1.88-3.53-2.65-7.66-3.9-11.54.51-.08 1-.16 1.49-.25z"/><path d="m333.99 319.83c-.24 1.71-.45 5.06-1.19 8.27-1.4 6.01-5.53 8.01-10.79 4.71-3.28-2.06-6.19-5.07-8.54-8.2-12.27-16.35-24.35-32.86-36.38-49.38-1.63-2.24-2.67-4.91-3.98-7.38 2.93.47 6.07.42 8.77 1.48 14.91 5.9 29.04 13.17 40.9 24.29 7.49 7.04 11.25 14.92 11.21 26.21z"/><path d="m141.41 336.53c3.62-3.42 6.09-6.23 9.02-8.44 13.93-10.49 26.12-22.61 36.6-36.61 4.04-5.39 6.68-11.05 7.82-17.49.68-3.85 2.42-4.63 5.9-3.22 6.4 2.6 12.59 5.53 16.19 11.76.85 1.47.97 4.74-.01 5.66-10.68 10-21.18 20.29-32.66 29.31-11.66 9.16-25.07 15.56-39.5 19.49-.43.11-.96-.12-3.36-.46z"/></g></svg>