<svg enable-background="new 0 0 400 400" viewBox="0 0 400 400" xmlns="http://www.w3.org/2000/svg"><g fill="#fafbfc"><path d="m342.2 3.2-6.3 9.2h6.1v1.2h-8.2v-.5l6.2-9.1h-5.7v-1.2h7.8v.4z"/><path d="m344 13.7v-10.9h3.1c1.6 0 3 .5 4.1 1.4 1.1 1 1.6 2.2 1.6 3.9s-.5 3-1.6 4-2.5 1.5-4.2 1.5h-3zm1.4-9.6v8.4h1.6c1.4 0 2.5-.4 3.2-1.1.8-.8 1.2-1.8 1.2-3.2s-.4-2.4-1.2-3.1-1.8-1-3.1-1z"/><path d="m356.3 2.8v10.9h-1.4v-10.9z"/><path d="m366.6 13.2c-.8.4-1.8.6-3 .6-1.6 0-2.8-.5-3.7-1.5s-1.4-2.3-1.4-3.9c0-1.7.5-3.2 1.6-4.2s2.4-1.6 4-1.6c1 0 1.9.1 2.6.4v1.5c-.8-.4-1.6-.6-2.6-.6-1.2 0-2.2.4-3 1.2s-1.1 1.9-1.1 3.3c0 1.3.4 2.3 1.1 3.1s1.6 1.1 2.8 1.1c1.1 0 2-.2 2.8-.7v1.3z"/><path d="m368.2 13c0-.3.1-.5.3-.6.2-.2.4-.3.6-.3.3 0 .5.1.7.3s.3.4.3.6-.1.5-.3.6c-.2.2-.4.3-.7.3s-.5-.1-.6-.3c-.2-.2-.3-.4-.3-.6z"/><path d="m381.1 13.7h-1.7l-5.5-8.4c-.2-.2-.3-.5-.4-.7 0 .2.1.8.1 1.5v7.6h-1.4v-10.9h1.8l5.3 8.3c.3.4.4.6.4.8 0-.3-.1-.8-.1-1.6v-7.5h1.4v10.9z"/><path d="m389.7 13.7h-5.8v-10.9h5.6v1.2h-4.2v3.5h3.9v1.2h-3.9v3.7h4.4z"/><path d="m398.4 4.1h-3.1v9.6h-1.4v-9.6h-3.1v-1.3h7.7v1.3z"/></g><path d="m64.25 293.24c-.93 4.13-1.48 7.93-2.71 11.51-.67 1.95-2.4 4.87-3.76 4.93-2 .09-5.14-1.48-5.98-3.22-2.79-5.78-6.01-11.8-6.75-18-.88-7.4.48-15.11 1.13-22.66 1.5-17.36 3.62-34.68 4.63-52.07 1.17-20.25 1.64-40.55 2-60.84.24-13.28.45-26.63-6.96-38.7-2.41-3.93-.55-7.05 4.1-7.07 3.86-.01 8.01.58 11.51 2.1 4.15 1.8 7.83 1.82 12.01.59 13.65-4.04 27.34-7.91 41.05-11.73 1.36-.38 3.27-.52 4.37.14 7.66 4.57 15.23 9.31 22.71 14.17 2.6 1.69 2.81 4.21 1.45 7.02-3.7 7.63-4.84 15.75-4.98 24.18-.52 30.28-1.65 60.56-1.75 90.84-.05 14.76 2.16 29.51 2.46 44.29.25 12.5-2.56 24.5-11.13 34.29-5.45 6.23-10.16 5.65-13.85-1.65-2.85-5.63-5.12-11.56-8.08-17.13-.74-1.4-3.2-2.8-4.77-2.71-8.79.54-17.53 1.67-26.31 2.3-3.23.26-6.55-.33-10.39-.58zm50.19-12.37c3.92-28.22 4.43-55.34 3.48-82.84-1.58.43-2.82.85-4.09 1.09-15.23 2.92-29.23 11.71-46.01 9.34-.97 23.88-1.94 47.55-2.93 71.88 7.15-.71 13.69-1.49 20.25-1.97 9.59-.71 19.38-4.66 29.3 2.5zm3.56-89.53c0-4.29 0-8.1 0-11.91 0-17.6.27-35.2-.11-52.79-.18-8.18-5.31-12.35-13.62-11.32-9.34 1.16-18.56 3.21-27.86 4.78-3.88.65-5.33 2.44-5.39 6.67-.17 11.61-1.26 23.2-1.54 34.81-.29 11.92-.06 23.85-.06 36.69 6.12-2.34 13.01-4.58 19.53-7.58 6.59-3.04 13.02-4.53 20.06-1.87 2.75 1.04 5.67 1.61 8.99 2.52z" fill="#010102"/><path d="m225.3 252.67c-5.56 11.24-10.05 23-16.74 33.34-19.66 30.36-46.8 50.43-83.13 56.61-1.37.23-2.93-.63-4.4-.98.99-1.17 1.76-2.68 2.99-3.47 11.86-7.62 24.53-14.21 35.57-22.86 22.39-17.55 36.49-40.92 44.28-68.26 3.75-13.16 6.8-26.41 6.74-40.1-.03-5.67-1.95-11.31-2.82-17-.33-2.16-.96-5.19.13-6.41 1.14-1.28 4.42-1.64 6.35-1.05 7.39 2.28 14.98 4.4 21.8 7.93 6.63 3.42 6.01 6.02 3.04 12.75-3.39 7.67-4.87 16.18-8.06 23.96-3.36 8.22-1.24 13.97 4.28 20.72 14.37 17.55 28.78 34.98 46.23 49.58 18.81 15.75 40.99 25.03 64.04 32.53 2.85.93 5.8 1.66 8.44 3.02 1.36.7 2.7 2.48 2.92 3.94.12.8-1.99 2.61-3.29 2.85-18.85 3.37-37.82 5.5-57.02 4.29-6.26-.4-11.1-3.57-14.62-8.5-14.29-20.02-28.55-40.06-42.57-60.26-5.1-7.35-9.53-15.17-14.16-22.63z" fill="#010102"/><path d="m193.72 143.15c17.07-3.69 33.17-6.84 49.08-10.72 10.79-2.63 21.44-5.95 31.92-9.65 6.39-2.26 12.34-2.17 18.41.2 10.99 4.29 20.66 10.7 29.03 18.98 4.47 4.42 4.08 8.64-1.46 10.52-18.76 6.4-32.71 20.09-48.47 31.03-2.45 1.7-4.81 3.55-7.26 5.27-.35.25-.95.13-2.41.29.78-2.48 1.25-4.62 2.1-6.6 4.85-11.3 9.89-22.51 14.59-33.87.86-2.07 1.41-6.04.41-6.75-2.14-1.52-5.63-2.52-8.13-1.91-21.91 5.31-43.75 10.9-65.53 16.71-5.32 1.42-10.36 2.36-15.51-.09-2.64-1.26-4.09-.36-5.6 2.07-9.15 14.76-19.42 28.65-32.74 40-1.67 1.42-3.56 2.57-5.35 3.85-.41-.32-.83-.64-1.24-.96.64-1.71 1.04-3.55 1.94-5.11 16.19-27.99 29.63-57.2 39.49-88.03 5.18-16.2 9.59-32.52 8.81-49.75-.19-4.15 1.9-5.49 5.48-4.96 10.39 1.56 19.3 6.11 26.14 14.16.95 1.12 1.28 4.2.47 5.14-8.52 9.95-12.63 22.18-17.92 33.78-5.31 11.62-10.42 23.32-16.25 36.4z" fill="#010102"/></svg>