<svg enable-background="new 0 0 400 400" viewBox="0 0 400 400" xmlns="http://www.w3.org/2000/svg"><g fill="#fafbfc"><path d="m342.2 3.2-6.3 9.2h6.1v1.2h-8.2v-.5l6.2-9.1h-5.7v-1.2h7.8v.4z"/><path d="m344 13.7v-10.9h3.1c1.6 0 3 .5 4.1 1.4 1.1 1 1.6 2.2 1.6 3.9s-.5 3-1.6 4-2.5 1.5-4.2 1.5h-3zm1.4-9.6v8.4h1.6c1.4 0 2.5-.4 3.2-1.1.8-.8 1.2-1.8 1.2-3.2s-.4-2.4-1.2-3.1-1.8-1-3.1-1z"/><path d="m356.3 2.8v10.9h-1.4v-10.9z"/><path d="m366.6 13.2c-.8.4-1.8.6-3 .6-1.6 0-2.8-.5-3.7-1.5s-1.4-2.3-1.4-3.9c0-1.7.5-3.2 1.6-4.2s2.4-1.6 4-1.6c1 0 1.9.1 2.6.4v1.5c-.8-.4-1.6-.6-2.6-.6-1.2 0-2.2.4-3 1.2s-1.1 1.9-1.1 3.3c0 1.3.4 2.3 1.1 3.1s1.6 1.1 2.8 1.1c1.1 0 2-.2 2.8-.7v1.3z"/><path d="m368.2 13c0-.3.1-.5.3-.6.2-.2.4-.3.6-.3.3 0 .5.1.7.3s.3.4.3.6-.1.5-.3.6c-.2.2-.4.3-.7.3s-.5-.1-.6-.3c-.2-.2-.3-.4-.3-.6z"/><path d="m381.1 13.7h-1.7l-5.5-8.4c-.2-.2-.3-.5-.4-.7 0 .2.1.8.1 1.5v7.6h-1.4v-10.9h1.8l5.3 8.3c.3.4.4.6.4.8 0-.3-.1-.8-.1-1.6v-7.5h1.4v10.9z"/><path d="m389.7 13.7h-5.8v-10.9h5.6v1.2h-4.2v3.5h3.9v1.2h-3.9v3.7h4.4z"/><path d="m398.4 4.1h-3.1v9.6h-1.4v-9.6h-3.1v-1.3h7.7v1.3z"/></g><path d="m345.01 239.26c.72 5.54 1.52 10.4 1.96 15.29 1.41 15.44 3.44 30.61 10.82 44.71 3.94 7.52 2.1 12-4.98 16.95-12.7 8.87-27.16 13.27-42.2 15.58-22.2 3.41-44.32 3.12-66.27-2.62-19.48-5.1-32.67-16.75-36.73-36.5-2.12-10.29-1.55-21.19-1.64-31.82-.19-22.49-.22-44.98.08-67.46.44-32.45 1.46-64.89 1.74-97.33.09-10.07-.73-20.24-5.19-29.71-1.93-4.09-.26-6.6 4.25-6.46 12.33.38 22.11 6.44 30.67 14.72.86.83 1.13 3.13.65 4.34-6.86 17.14-6.97 35.41-8.9 53.34-1.32 12.22-2.04 24.51-2.94 36.78-.2 2.8-.03 5.63-.03 9.15 7.42-1.93 14.76-3.62 21.96-5.76 14.13-4.2 28.28-8.4 42.26-13.06 10.3-3.44 18.99.51 27.34 5.33 4.66 2.69 2.99 9.01-3.01 10.95-7.88 2.55-15.93 4.66-24.04 6.37-13.14 2.78-26.3 5.64-39.59 7.41-8.15 1.08-16.57.2-24.92.2-.39 1.32-.79 2.08-.81 2.84-.83 22.95-1.84 45.89-2.27 68.84-.12 6.57 1.24 13.21 2.28 19.76 2.37 14.91 12.04 22.39 26.25 24.63 17.18 2.71 34.43 3.24 51.63.2 13.95-2.46 23.92-10.58 28.38-23.75 3.8-11.23 5.53-23.15 8.3-34.73.64-2.75-.43-6.53 4.95-8.19z" fill="#010102"/><path d="m142.09 185.38c9.79-2.89 19.06-5.37 28.15-8.38 7.53-2.5 13.72.23 19.56 4.24 3.67 2.52 2.58 6.43-2.41 7.94-5.53 1.68-11.25 2.81-16.95 3.85-9.19 1.68-18.43 3.1-28.64 4.79v77.49c5.06-1.91 10.45-3.91 15.81-5.96 8.53-3.26 17.01-6.64 25.59-9.76 1.68-.61 3.71-.25 5.57-.34.24.65.48 1.3.72 1.95-2.12 1.92-4 4.25-6.41 5.71-24.18 14.67-48.56 29.01-72.63 43.85-11.87 7.32-23.29 15.4-34.77 23.33-3.74 2.58-7.73 3.22-11.18.84-6.67-4.6-13.26-9.48-19.12-15.06-4.89-4.66-3.27-8.22 3.4-10.05 5.6-1.53 11.09-3.44 16.68-4.97 2.79-.77 3.52-2.34 3.39-5.08-1.38-29.89-2.5-59.8-4.16-89.67-.28-4.96-2.5-9.92-4.39-14.65-1.96-4.92-.88-7.71 4.24-7.74 9.31-.04 18.08 2.3 26.02 7.3 3.11 1.96 3.17 5 2.14 7.97-5.62 16.12-4.55 32.7-3.87 49.33.49 11.98.24 23.98.36 35.98.02 2.44.24 4.89.41 8.17 9.97-3.89 19.36-7.48 28.66-11.29.82-.34 1.5-2.1 1.49-3.2-.18-26.97-.52-53.95-.72-80.92-.15-20.33.01-40.65-.29-60.98-.12-7.96-.67-15.97-1.89-23.82-.77-4.97-2.86-9.8-4.84-14.5-2.71-6.44-1.15-9.35 5.7-9.11 8.9.31 17.46 2.11 25.19 6.85 3.18 1.95 4.06 4.32 3.53 8.31-1.5 11.31-2.53 22.7-3.2 34.09-.71 12.12-.81 24.27-1.16 36.41-.03 2.13.02 4.26.02 7.08z" fill="#010102"/></svg>