<svg enable-background="new 0 0 400 400" viewBox="0 0 400 400" xmlns="http://www.w3.org/2000/svg"><g fill="#fafbfc"><path d="m342.2 3.2-6.3 9.2h6.1v1.2h-8.2v-.5l6.2-9.1h-5.7v-1.2h7.8v.4z"/><path d="m344 13.7v-10.9h3.1c1.6 0 3 .5 4.1 1.4 1.1 1 1.6 2.2 1.6 3.9s-.5 3-1.6 4-2.5 1.5-4.2 1.5h-3zm1.4-9.6v8.4h1.6c1.4 0 2.5-.4 3.2-1.1.8-.8 1.2-1.8 1.2-3.2s-.4-2.4-1.2-3.1-1.8-1-3.1-1z"/><path d="m356.3 2.8v10.9h-1.4v-10.9z"/><path d="m366.6 13.2c-.8.4-1.8.6-3 .6-1.6 0-2.8-.5-3.7-1.5s-1.4-2.3-1.4-3.9c0-1.7.5-3.2 1.6-4.2s2.4-1.6 4-1.6c1 0 1.9.1 2.6.4v1.5c-.8-.4-1.6-.6-2.6-.6-1.2 0-2.2.4-3 1.2s-1.1 1.9-1.1 3.3c0 1.3.4 2.3 1.1 3.1s1.6 1.1 2.8 1.1c1.1 0 2-.2 2.8-.7v1.3z"/><path d="m368.2 13c0-.3.1-.5.3-.6.2-.2.4-.3.6-.3.3 0 .5.1.7.3s.3.4.3.6-.1.5-.3.6c-.2.2-.4.3-.7.3s-.5-.1-.6-.3c-.2-.2-.3-.4-.3-.6z"/><path d="m381.1 13.7h-1.7l-5.5-8.4c-.2-.2-.3-.5-.4-.7 0 .2.1.8.1 1.5v7.6h-1.4v-10.9h1.8l5.3 8.3c.3.4.4.6.4.8 0-.3-.1-.8-.1-1.6v-7.5h1.4v10.9z"/><path d="m389.7 13.7h-5.8v-10.9h5.6v1.2h-4.2v3.5h3.9v1.2h-3.9v3.7h4.4z"/><path d="m398.4 4.1h-3.1v9.6h-1.4v-9.6h-3.1v-1.3h7.7v1.3z"/></g><path d="m171.59 241.85c-9.62 1.31-18.45 3.01-27.35 3.6-11.56.76-23.18.64-34.77.86-.81.02-1.83-.06-2.41-.51-1.47-1.15-2.74-2.54-4.1-3.84 1.43-.95 2.75-2.51 4.29-2.76 8.03-1.28 16.14-2.09 24.18-3.31 12.47-1.89 24.92-3.9 37.33-6.12 1.19-.21 2.98-2.3 2.92-3.43-.3-5.55-1.13-11.07-1.82-16.99-20.24 2.67-39.34 6.07-58.62 2.6-.1-.54-.2-1.07-.31-1.61 3.21-.8 6.37-1.97 9.63-2.34 30.79-3.54 58.95-14.37 84.97-30.88 3.33-2.12 5.42-6.12 8.39-8.92 1.19-1.12 3.35-2.18 4.81-1.9 9.98 1.95 18.1 7.41 24.91 14.71 4.51 4.84 3.09 9.88-3.51 11.23-17.7 3.63-35.26 7.87-52.88 11.89-.79.18-1.54.54-2.84 1 6.04 6.09 4.57 13.4 3.59 21.28 8.47-1.72 16.3-3.66 24.24-4.85 10.83-1.62 21.73-2.74 32.61-3.92 2.12-.23 4.5-.27 6.42.48 2.11.82 3.82 2.65 5.71 4.05-1.5 1.74-2.72 4.57-4.56 5.06-11.03 2.91-22.16 5.55-33.36 7.77-10.08 2-20.29 3.34-30.69 5.02v20.25c7.93-1.34 15.54-2.84 23.21-3.88 14.93-2.01 29.52-6.85 44.87-5.54 8.43.72 15.86 3.94 21.75 9.9 1.97 2 3.66 5.63 3.24 8.14-.25 1.53-4.73 3.23-7.38 3.35-14.46.65-28.95.71-43.42 1.21-13.94.49-27.88 1.27-42.49 1.96-.21 11.05.04 22.09 7.66 30.56 3.46 3.85 9.42 6.15 14.68 7.56 18.12 4.84 36.59 6 55.37 4.67 12.81-.91 25.46-1.71 37.69-6.12 11.24-4.05 19.28-10.97 22.2-22.9 1.86-7.57 3.48-15.2 5.25-22.78.48-2.06 1.15-4.08 1.73-6.11.53-.07 1.05-.14 1.58-.21 1.24 4.42 2.85 8.77 3.66 13.26 1.83 10.17 5.74 19.35 11.74 27.71 5.97 8.31 5.63 13.41-1.72 20.62-8.29 8.12-18.98 11.44-29.93 13.76-35.57 7.53-70.97 7.15-105.98-3.29-5.06-1.51-9.88-3.9-14.71-6.1-17.21-7.85-24.42-22.09-25.47-40.2-.13-2.33-.23-4.66-.39-6.98-.03-.48-.27-.94-.59-1.98-7.49.88-15.08 1.54-22.58 2.72-12.62 1.98-25.11 5.22-37.79 6.15-8.03.59-16.32-1.87-24.41-3.4-1.29-.24-2.14-2.81-3.19-4.31 1.46-.74 2.86-1.92 4.39-2.14 17.23-2.56 34.49-4.9 51.73-7.44 9.36-1.38 18.67-3.17 28.05-4.47 3.21-.45 4.72-1.37 4.55-4.9-.28-5.47-.08-10.96-.08-17.24z" fill="#010102"/><path d="m48.74 216.02c3.97-1.78 7.81-4.02 11.94-5.27 27.37-8.3 54.22-17.89 79.76-30.91 28.29-14.42 52.86-33.3 71.35-59.41 7.68-10.85 13.1-22.68 14.35-36.18.56-6.02 2.98-7.81 7.65-5.3 9.94 5.34 18.65 12.17 23.33 22.98 1.33 3.07 1.26 5.69-1.37 8.11-27.81 25.45-53.65 53.29-87.45 71.45-30.64 16.47-63.24 27.54-96.94 35.59-5.28 1.26-10.77 1.74-16.2 2.24-1.97.18-4.03-.66-6.05-1.04-.12-.76-.25-1.51-.37-2.26z" fill="#010102"/><path d="m171.36 123.68c1.68-7.73 3.57-13.16 3.94-18.69 1.47-22.28 1.52-44.5-6.39-65.89-1.08-2.93-2.78-5.63-4.27-8.4-1.72-3.2-1.47-5.99 2.68-5.81 5.16.23 10.67.53 15.31 2.5 5.54 2.36 10.47 6.32 15.32 10.02 1.29.99 2.38 4.01 1.82 5.39-7.29 17.94-5.52 36.88-6.72 55.51-.65 10.04-2.25 20.07-4.13 29.97-.67 3.53-3.14 6.88-5.35 9.9-1.96 2.67-4.85 2.62-6.36-.55-2.47-5.12-4.43-10.49-5.85-13.95z" fill="#010102"/><path d="m112.05 75.92c2.06 2.81 4.92 5.32 6.04 8.47 6.42 18.09 5.16 35.57-5.85 51.69-2.09 3.05-5.42 5.27-8.27 7.78-3.85 3.39-6.98 1.62-8.74-2.12-4.16-8.87-6.32-17.48-.91-27.32 5.79-10.51 9.68-22.06 14.36-33.18.63-1.49 1.01-3.08 1.5-4.63.62-.23 1.25-.46 1.87-.69z" fill="#010102"/><path d="m253.89 58.24c10.32-5.33 19.63-5.9 29.05-4.23 11.17 1.98 22.47 4.14 28.97 15.12 1.32 2.24 2.48 4.75 2.95 7.28 1.6 8.55-2.78 13.47-11.09 11.47-6.5-1.56-13.09-4.08-18.72-7.62-10.47-6.58-20.27-14.23-31.16-22.02z" fill="#010102"/></svg>