<svg enable-background="new 0 0 400 400" viewBox="0 0 400 400" xmlns="http://www.w3.org/2000/svg"><g fill="#fafbfc"><path d="m342.2 3.2-6.3 9.2h6.1v1.2h-8.2v-.5l6.2-9.1h-5.7v-1.2h7.8v.4z"/><path d="m344 13.7v-10.9h3.1c1.6 0 3 .5 4.1 1.4 1.1 1 1.6 2.2 1.6 3.9s-.5 3-1.6 4-2.5 1.5-4.2 1.5h-3zm1.4-9.6v8.4h1.6c1.4 0 2.5-.4 3.2-1.1.8-.8 1.2-1.8 1.2-3.2s-.4-2.4-1.2-3.1-1.8-1-3.1-1z"/><path d="m356.3 2.8v10.9h-1.4v-10.9z"/><path d="m366.6 13.2c-.8.4-1.8.6-3 .6-1.6 0-2.8-.5-3.7-1.5s-1.4-2.3-1.4-3.9c0-1.7.5-3.2 1.6-4.2s2.4-1.6 4-1.6c1 0 1.9.1 2.6.4v1.5c-.8-.4-1.6-.6-2.6-.6-1.2 0-2.2.4-3 1.2s-1.1 1.9-1.1 3.3c0 1.3.4 2.3 1.1 3.1s1.6 1.1 2.8 1.1c1.1 0 2-.2 2.8-.7v1.3z"/><path d="m368.2 13c0-.3.1-.5.3-.6.2-.2.4-.3.6-.3.3 0 .5.1.7.3s.3.4.3.6-.1.5-.3.6c-.2.2-.4.3-.7.3s-.5-.1-.6-.3c-.2-.2-.3-.4-.3-.6z"/><path d="m381.1 13.7h-1.7l-5.5-8.4c-.2-.2-.3-.5-.4-.7 0 .2.1.8.1 1.5v7.6h-1.4v-10.9h1.8l5.3 8.3c.3.4.4.6.4.8 0-.3-.1-.8-.1-1.6v-7.5h1.4v10.9z"/><path d="m389.7 13.7h-5.8v-10.9h5.6v1.2h-4.2v3.5h3.9v1.2h-3.9v3.7h4.4z"/><path d="m398.4 4.1h-3.1v9.6h-1.4v-9.6h-3.1v-1.3h7.7v1.3z"/></g><path d="m216.78 199.58c-3.43-10.52-6.81-20.86-10.22-31.33-8.78 1.82-17.14 4.36-25.65 5.09-7.63.66-15.48-.27-23.12-1.28-2.85-.38-5.53-2.82-8.03-4.67-1.04-.77-1.4-2.44-2.07-3.7 1.26-.6 2.47-1.55 3.8-1.76 15.24-2.41 30.51-4.68 45.76-7.06 1.78-.28 3.51-.92 5.63-1.49-2.67-9.21-5.28-18.23-8.06-27.81-3.55.79-6.7 1.8-9.92 2.16-8.71.96-17.49 2.5-26.17 2.12-4.89-.21-9.73-3.58-14.4-5.9-1.18-.59-1.63-2.63-2.42-4 1.41-.66 2.77-1.68 4.25-1.92 13.43-2.16 26.89-4.16 40.33-6.26 1.44-.23 2.83-.79 4.68-1.32-1.91-8.64-4.27-16.94-5.51-25.41-1.79-12.25-9.59-20.01-18.29-27.54-2.11-1.82-4.35-5.23-4.04-7.57.27-2.01 3.93-4.73 6.39-5.08 12.17-1.77 23.44 1.03 32.97 9.03 3.56 2.99 3.59 7.48 3.68 11.98.26 13.26.96 26.51 1.54 40.99 9.79-3.14 18.48-5.7 27.01-8.73 8.34-2.97 16.67-3.37 24.8-.05 3.1 1.27 7.42 4.03 7.77 6.58.6 4.35-4.24 5.71-8.02 6.57-14.89 3.37-29.8 6.65-44.69 9.97-.8.18-1.58.5-3.26 1.04 2.23 8.76 4.46 17.48 6.92 27.12 7.81-2.44 15.27-4.47 22.49-7.11 9.15-3.35 18.27-3.78 27.22-.07 2.72 1.13 6.13 3.94 6.57 6.44.67 3.8-3.55 5.18-6.79 5.94-14.05 3.28-28.15 6.39-42.22 9.56-.63.14-1.24.33-2.57.69 1.87 5.64 3.65 11.07 5.48 16.5.37 1.1.95 2.13 1.35 3.22 3.96 10.84 3.99 10.96 14.73 7.44 11.98-3.93 24.06-7.65 35.76-12.3 10.96-4.36 21.15-2.91 31.32 1.81 3.13 1.45 7.39 3.25 6.03 7.28-.8 2.36-4.62 4.48-7.47 5.24-15.06 3.98-30.26 7.45-45.39 11.18-8.33 2.05-16.61 4.26-26.26 6.75 7.95 16.1 15.46 31.31 23.39 47.38 10.02-9.99 16.59-20.46 21.64-31.92 1.61-3.64 2.79-7.47 4.12-11.23 1.61-4.54 5.9-6.53 9.19-3.17 5.52 5.63 10.35 12.03 14.77 18.58 2.13 3.15-.38 6.07-3.02 8.58-11.33 10.79-22.49 21.77-33.7 32.7-.34.33-.53.81-1.04 1.61 10.33 12.09 20.36 24.5 34.18 33.06.28.17.55.37.84.53 9.28 5.13 12.55 4.09 16.02-5.8 3.52-10.02 6.58-20.21 9.85-30.32.41-1.26.67-2.62 1.34-3.74.55-.92 1.79-2.3 2.38-2.14 1.05.27 2.34 1.4 2.64 2.44.83 2.83 1.44 5.78 1.71 8.71 1.78 19.52 3.41 39.06 5.2 58.58.24 2.62 1.21 5.17 1.73 7.77 1.66 8.22-2.63 12.71-10.62 10.18-6.43-2.04-12.73-4.95-18.56-8.39-23.44-13.81-42.7-32.22-58.27-54.5-.57-.82-1.17-1.62-1.8-2.4-.31-.38-.73-.68-1.32-1.21-31.92 28.65-70.37 40.17-112.34 42.1-2.27.1-4.59-1.03-6.88-1.59-.03-.5-.07-.99-.1-1.49 1.86-.79 3.66-1.75 5.57-2.36 24.91-7.87 49.76-15.99 72.22-29.69 11.03-6.73 21.44-14.48 31.92-21.62-9.24-19.22-17.99-37.41-27.07-56.28-11.22 3.24-22.81 6.48-34.34 9.95-8.26 2.49-16.56 4.94-24.61 8.01-11.49 4.39-21.19.86-30.28-5.95-3.57-2.68-3.22-4.88 1.24-6.21 7.79-2.31 15.78-3.95 23.63-6.07 18.75-5.05 37.47-10.21 56.19-15.35.76-.22 1.46-.7 2.27-1.09z" fill="#010102"/><path d="m129.8 201.55c-.92 3.4-1.4 6.99-2.83 10.16-10.4 23.02-20.99 45.95-31.54 68.9-6.34 13.78-11.66 27.86-14.18 42.92-.38 2.3-2.26 6.07-3.56 6.12-2.6.09-5.99-1.25-7.8-3.17-7.06-7.53-9.58-17.3-11.96-27.02-.59-2.4-1.18-4.97-.92-7.37.21-1.95 1.19-4.75 2.68-5.49 11.51-5.76 17.78-16.26 24.64-26.27 11.47-16.75 22.85-33.57 34.45-50.22 2.47-3.54 5.75-6.52 8.66-9.76.79.4 1.58.8 2.36 1.2z" fill="#010102"/><path d="m137.51 103.36c-.97 1.48-2.17 5.4-4.66 6.55-2.3 1.07-6.91.22-8.89-1.57-13.55-12.22-26.74-24.83-39.83-37.54-1.39-1.35-1.4-4.1-2.05-6.2 2.28-.27 4.71-1.19 6.82-.71 12.37 2.8 23.88 7.75 34.93 14 9.33 5.27 12.48 13.63 13.68 25.47z" fill="#010102"/><path d="m106.24 178c-1.6 2.67-2.62 6.57-4.96 7.66-2.39 1.12-7.03.6-9.03-1.12-13.72-11.81-27.07-24.06-40.32-36.4-1.36-1.27-1.25-4.13-1.83-6.25 2.11-.36 4.35-1.37 6.3-.96 12.91 2.71 25.1 7.33 36.54 14.03 8.7 5.09 12.01 12.83 13.3 23.04z" fill="#010102"/><path d="m237.58 53.46c2.24-.47 4.05-1.46 5.49-1.07 14.1 3.84 27.97 8.26 39.92 17.17 6.55 4.88 9.34 11.45 9.12 19.39-.19 6.53-5.31 9.6-10.47 5.7-9.91-7.48-19.45-15.48-28.79-23.66-5.08-4.45-9.45-9.72-14.09-14.66-.41-.44-.5-1.18-1.18-2.87z" fill="#010102"/></svg>