<svg enable-background="new 0 0 400 400" viewBox="0 0 400 400" xmlns="http://www.w3.org/2000/svg"><g fill="#fafbfc"><path d="m342.2 3.2-6.3 9.2h6.1v1.2h-8.2v-.5l6.2-9.1h-5.7v-1.2h7.8v.4z"/><path d="m344 13.7v-10.9h3.1c1.6 0 3 .5 4.1 1.4 1.1 1 1.6 2.2 1.6 3.9s-.5 3-1.6 4-2.5 1.5-4.2 1.5h-3zm1.4-9.6v8.4h1.6c1.4 0 2.5-.4 3.2-1.1.8-.8 1.2-1.8 1.2-3.2s-.4-2.4-1.2-3.1-1.8-1-3.1-1z"/><path d="m356.3 2.8v10.9h-1.4v-10.9z"/><path d="m366.6 13.2c-.8.4-1.8.6-3 .6-1.6 0-2.8-.5-3.7-1.5s-1.4-2.3-1.4-3.9c0-1.7.5-3.2 1.6-4.2s2.4-1.6 4-1.6c1 0 1.9.1 2.6.4v1.5c-.8-.4-1.6-.6-2.6-.6-1.2 0-2.2.4-3 1.2s-1.1 1.9-1.1 3.3c0 1.3.4 2.3 1.1 3.1s1.6 1.1 2.8 1.1c1.1 0 2-.2 2.8-.7v1.3z"/><path d="m368.2 13c0-.3.1-.5.3-.6.2-.2.4-.3.6-.3.3 0 .5.1.7.3s.3.4.3.6-.1.5-.3.6c-.2.2-.4.3-.7.3s-.5-.1-.6-.3c-.2-.2-.3-.4-.3-.6z"/><path d="m381.1 13.7h-1.7l-5.5-8.4c-.2-.2-.3-.5-.4-.7 0 .2.1.8.1 1.5v7.6h-1.4v-10.9h1.8l5.3 8.3c.3.4.4.6.4.8 0-.3-.1-.8-.1-1.6v-7.5h1.4v10.9z"/><path d="m389.7 13.7h-5.8v-10.9h5.6v1.2h-4.2v3.5h3.9v1.2h-3.9v3.7h4.4z"/><path d="m398.4 4.1h-3.1v9.6h-1.4v-9.6h-3.1v-1.3h7.7v1.3z"/></g><path d="m221.14 119.6c-13.79 2.85-27.68 4.8-40.94 8.82-8.46 2.56-24.31-3.39-29.46-8.66-2.49-2.56-.99-4.66 2.28-5.12 7.06-1 14.15-1.79 21.22-2.74 15.78-2.14 31.56-4.33 47.79-6.56-.67-17.24 2.32-34.11-5.9-50-3.89-7.51-.85-11.85 7.28-10.22 7.21 1.44 14.13 4.57 20.99 7.44 2.9 1.21 4.58 3.89 2.88 7.41-5.29 10.92-6.54 22.56-6.28 34.5.05 2.27-.29 4.56-.51 7.63 14.26-2.65 28.25-4.45 41.77-8 13.48-3.54 24.91-.6 35.5 7.44 1.86 1.41 2.78 4.05 4.14 6.13-2.21 1.2-4.32 3.08-6.66 3.46-4.57.74-9.27.55-13.91.89-20.19 1.45-40.37 2.95-60.94 4.45-.43 9.24-.95 17.31-1.16 25.39-.48 18.47-.84 36.95-1.13 55.43-.03 1.7.22 3.83 1.22 5.06 9.73 12.04 19.5 24.05 29.54 35.83 24.13 28.31 53.31 49.43 88.68 61.61 2.2.76 4.51 1.39 6.45 2.59 1.02.63 1.84 2.37 1.84 3.61 0 .73-1.71 1.98-2.76 2.11-9.71 1.21-19.43 2.43-29.18 3.24-5.43.45-10.92.17-16.39.17-14.43.01-24.62-7.65-32.1-18.97-14.48-21.92-28.44-44.18-42.59-66.31-1.42-2.22-2.74-4.5-5.15-6.66-.15 1.51-.44 3.01-.44 4.52.05 26.49.03 52.98.27 79.47.06 6.79.92 13.58 1.51 20.37 1.04 11.9-1.99 23.12-6.38 33.89-1.35 3.31-5.25 5.57-7.98 8.31-2.72-2.74-6.72-5.01-7.92-8.31-3.83-10.53-6.9-21.13-4.01-32.9 5.84-23.72 6.4-48.05 6.3-72.37-.03-6.4 0-12.81 0-18.95-7.73 8.68-15.57 17.83-23.77 26.63-22.61 24.28-49.24 42.52-80.85 53.11-1.86.62-3.96.56-5.94.81-.25-.54-.5-1.07-.75-1.61 1.96-1.55 3.79-3.29 5.89-4.62 20.33-12.9 39.02-27.87 56.02-44.87 19.02-19.02 35.59-40.04 49.55-63.07.91-1.49 1.76-3.32 1.78-5.01.38-24.47.62-48.94.88-73.41-.01-.32-.22-.63-.68-1.96z" fill="#010102"/><path d="m41.56 298.7c1.34-2.31 1.86-4.58 3.25-5.39 16.27-9.56 25.09-25.43 34.44-40.72 7.02-11.48 13.2-23.48 19.76-35.24.81-1.45 1.49-3.05 2.59-4.24.9-.96 2.35-1.4 3.56-2.06.73 1.35 1.98 2.67 2.06 4.06.09 1.73-.63 3.57-1.27 5.27-9.46 25.36-19.09 50.66-28.37 76.09-3.12 8.56-5.35 17.44-7.99 26.17-.24.8-.4 1.63-.76 2.38-1.72 3.61-2.02 8.84-7.17 9.18-4.95.33-7.9-3.71-9.57-7.65-3.85-9.14-7.05-18.54-10.53-27.85z" fill="#010102"/><path d="m279.84 174.9c-4.9 4.69-9.1 8.92-13.53 12.91-5.31 4.78-10.73 9.45-16.29 13.92-.96.77-2.87.37-4.34.51-.06-1.54-.53-3.22-.06-4.57.51-1.5 1.86-2.72 2.89-4.02 11.85-14.98 21.11-31.45 27.77-49.31 1.34-3.58 1.53-7.71 1.66-11.6.15-4.88 2.16-7.16 6.81-5.73 7.38 2.27 14.14 5.93 19.14 12.06 2.48 3.04 1.85 6.14-1.49 8.01-8.12 4.55-12.21 12.44-17.43 20.05 5.7 2.68 11.26 5.08 16.64 7.85 9.8 5.05 18.25 11.73 22.98 21.98 1.14 2.48 1.61 6.05.73 8.53-2.7 7.63-9.47 9.18-15.34 3.56-4.18-4.01-7.61-8.78-11.46-13.15-6.24-7.08-12.54-14.1-18.68-21z" fill="#010102"/><path d="m175.93 175.96c5.42 2.52 10.11 4.54 14.64 6.86 4.12 2.1 8.19 4.36 12.05 6.9 1.57 1.03 2.88 2.82 3.72 4.54 2.84 5.84 1.98 12-1.77 14.62-3.79 2.66-9.11 1.76-13.82-3.26-6.59-7.03-12.71-14.5-19.4-22.2-11.57 12.79-22.98 25.89-38.49 34.09-.56-.42-1.11-.84-1.67-1.26 1.57-2.61 3.01-5.31 4.72-7.83 7.7-11.42 15.85-22.57 23.12-34.26 5.8-9.33 10.41-19.33 10.65-30.74.08-3.74 2.14-5.32 5.59-3.65 5.2 2.52 10.67 4.82 15.2 8.3 5.5 4.22 4.47 7.59-.67 12.23-4.98 4.5-8.98 10.05-13.87 15.66z" fill="#010102"/><path d="m124.17 114.78c0 1.45-.02 2.12 0 2.78.18 4.13.14 8.48-4.45 10.13s-9.31 1.04-13.07-2.47c-12.35-11.53-22.7-24.71-31.72-38.95-.59-.94-.9-2.86-.35-3.52.79-.97 2.67-1.94 3.74-1.64 12.93 3.54 26.24 6.12 37.4 14.31 6.87 5.04 9.03 12 8.45 19.36z" fill="#010102"/><path d="m35.6 153.4c2.19-.2 3.65-.64 4.99-.4 11.93 2.16 23.85 4.39 34.66 10.35 10.82 5.96 15.79 18.26 11.57 28.74-2.46 6.11-5.65 8.06-11.65 5.07-5.19-2.58-10.21-6.29-14.07-10.6-8.08-9.03-15.37-18.76-22.9-28.26-.97-1.21-1.5-2.78-2.6-4.9z" fill="#010102"/></svg>