<svg enable-background="new 0 0 400 400" viewBox="0 0 400 400" xmlns="http://www.w3.org/2000/svg"><g fill="#010100"><path d="m274.51 92.3c-4.29 1.34-7.58 2.31-10.84 3.38-8.89 2.95-19.37.22-25.44-6.84-.73-.85-1.41-2.85-.97-3.38.96-1.16 2.56-2.17 4.05-2.45 11.57-2.14 23.23-3.87 34.77-6.16 18.54-3.68 37.02-7.63 55.51-11.58 5.98-1.28 20.96 5.55 23.69 11.07 1.38 2.79-1.45 6.19-5.84 6.68-4.46.49-8.96.56-13.42 1.07-16.43 1.9-32.84 3.91-50.58 6.04 4.17 3.36 7.26 5.73 10.21 8.26 3.19 2.74 3.37 5.47.62 9.03-7.3 9.45-14.23 19.19-20.79 29.89 6.17-1.19 12.42-2.07 18.49-3.64 10.25-2.66 20.35-5.86 30.58-8.58 2.06-.55 4.94-.75 6.55.28 5.27 3.39 10.4 7.12 14.98 11.37 1.5 1.39 2.28 5.23 1.48 7.15-4.68 11.28-4.52 23.08-4.52 34.86 0 17.32.17 34.65.4 51.97.13 9.98 1.16 20 .53 29.92-.42 6.6-2.68 13.2-4.91 19.52-.85 2.41-3.9 4.04-5.94 6.03-1.42-2.3-3.21-4.47-4.19-6.95-1.45-3.7-2.15-7.68-3.56-11.4-.45-1.17-2.22-2.76-3.25-2.66-14.2 1.34-28.38 2.94-42.57 4.51-.23.03-.42.44-.33.34 3.73 3.2 7.54 6.29 11.15 9.61 2.42 2.22 2 4.56-.15 6.97-9.3 10.4-18.56 20.83-27.72 31.34-10.5 12.04-23.03 21.57-36.5 29.95-1.26.78-2.97.84-4.88.59 18.15-24.26 40.16-45.78 47.06-76.93-3.06-.74-5.74-1.4-8.86-2.15-.13 2.44.1 4.8-.47 6.94-.45 1.7-1.88 3.13-2.88 4.69-1.39-1.01-3.25-1.73-4.09-3.08-5.69-9.22-7.63-18.98-5.88-29.98 2.08-13.09 3.06-26.39 3.92-39.64.75-11.61.76-23.27.95-34.91.17-10.73-1.09-21.21-5.84-31.06-.61-1.26-.8-3.8-.08-4.4 1.31-1.08 3.62-1.84 5.24-1.49 3.04.65 5.86 2.24 8.81 3.34 3.01 1.13 5.65.79 6.73-2.68 3.39-10.91 6.98-21.77 9.81-32.83.83-3.32-.54-7.18-1.03-12.01zm52.67 162c0-10.75 0-22.46 0-34.22-.13 0-.64-.06-1.12.01-.82.13-1.61.4-2.43.52-20.65 2.8-40.58 11.36-62.3 7.97v29.25c11.18-1.58 22.02-3.08 32.85-4.64 4.76-.69 9.54-2.26 14.25-2.04 6.06.28 12.06 1.96 18.75 3.15zm-64.22-73.55c.91 0 1.91.18 2.83-.03 10.69-2.37 21.53-4.22 31.99-7.37 9.49-2.86 18.58-4.84 27.94-.21.21.1.59-.14 1.49-.39-.47-8.82-.86-17.77-1.48-26.71-.24-3.54-2.41-5.49-6.07-4.99-6.73.92-13.46 1.85-20.14 3.09-12.04 2.23-24.03 4.68-36.57 7.15.01 9.73.01 19.49.01 29.46zm-1.08 38.42c9.12-2.01 17.92-4.5 26.88-5.79 12.74-1.83 25.23-9.8 38.57-1.69 0-10.51 0-20.5 0-30.89-4.37 1.05-8.14 2.3-12.02 2.82-17.67 2.36-34.63 9.71-53.44 7.77.01 8.88.01 17.97.01 27.78z"/><path d="m122.33 87.56c2.17-.44 3.28-.96 4.31-.83 16.36 1.94 32.04-2.41 47.8-5.42 10.68-2.04 21.09-5.5 31.67-8.11 2.19-.54 5.09-1.02 6.83-.04 6.02 3.38 11.79 7.26 17.35 11.36 1.08.8 1.75 4.1 1.03 5.12-7.05 9.94-7.28 21.92-10.14 33.07-3.01 11.71-5.38 23.59-8.04 35.4-.29 1.29-.41 2.78-1.16 3.76-1.21 1.58-3.11 4.1-4.28 3.89-2.03-.38-3.97-2.34-5.49-4.04-1-1.13-1.2-2.97-1.75-4.49-15.67 2.48-31.03 4.92-46.78 7.42.12-.13-.15.08-.31.36-1.39 2.42-2.76 4.85-4.13 7.28-2.07-2.32-5.34-4.34-5.98-7-1.99-8.19-3.06-16.6-4.32-24.95-1.51-10.01-2.57-20.08-4.34-30.04-1.23-6.92-3.83-13.41-9.36-18.31-1.04-.95-1.6-2.41-2.91-4.43zm27.61 33.07c.95.16 1.28.28 1.59.24.65-.08 1.29-.3 1.94-.38 16.92-2.18 32.59-11.4 51.02-8.66.51-5.36 1.26-10.57 1.44-15.81.2-5.78-1.28-7.4-6.99-6.93-8.07.66-16.1 1.91-24.13 3.06-9.45 1.36-18.87 2.88-28.57 4.37 1.29 8.43 2.51 16.37 3.7 24.11zm4.09 34.32c7.94-1.97 14.98-3.9 22.11-5.42 7.67-1.63 15.11-6.64 23.35-2 .17.1.57-.23 1.21-.5.88-7.67 1.77-15.52 2.76-24.17-17.72 2.44-34.69 4.77-52.03 7.15.86 8.26 1.7 16.29 2.6 24.94z"/><path d="m130.72 261.16c8.77-3.7 17.53-7.39 26.81-11.31-1.7-3.63-3.37-6.97-4.79-10.4-.36-.88.04-2.08.09-3.13.92.08 1.98-.1 2.75.29 12.16 6.12 18.67 12.84 17.79 26.53-.06.99.07 2.21-.44 2.93-1.58 2.21-3.43 4.24-5.17 6.34-1.58-1.92-3.56-3.65-4.63-5.82-1.45-2.93-2.2-6.21-3.71-10.68-12 7.18-23.6 13.8-34.84 21-4.39 2.81-5.7 3.19-8.76-1.23-.66-.96-1.3-1.93-1.91-2.92-3.83-6.16-3.3-6.23 1.43-11.33 5.51-5.93 10.24-12.61 15.1-19.12 2.97-3.98 5.53-8.27 8.27-12.41-.2-.44-.4-.87-.6-1.31-4.36 1.81-8.92 3.27-13.05 5.51-8.58 4.66-9.2 4.54-13.6-4.28-1.59-3.19-1.33-5.25 1.09-8.29 10.59-13.35 19.06-27.89 22.37-44.94 1.06-5.46 2.84-6.5 7.25-3.16 3.46 2.61 6.14 6.41 8.61 10.06.65.97-.37 3.63-1.33 5.02-6.63 9.51-13.5 18.86-20.13 28.37-.7 1-.96 3.26-.33 3.96.7.79 2.65.66 4.05.6 9.94-.42 16.32-5.01 17.94-15.31.43-2.76 1.43-5.42 2.18-8.13.96-3.5 3.62-4.68 5.61-1.97 3.29 4.49 5.86 9.54 8.4 14.52.5.97-.1 3.06-.91 4.05-9.31 11.46-18.77 22.8-28.18 34.18-2.01 2.44-4 4.9-5.9 7.42-.91 1.21-1.6 2.58-2.38 3.89.29.34.61.71.92 1.07z"/><path d="m197.53 244.66c8.84-3.53 17.68-7.05 26.88-10.72-1.74-4.37-3.33-8.35-5.1-12.78 12.56 1.63 23.19 14.86 21.7 25.98-.21 1.6-.84 3.22-1.62 4.64-1.94 3.5-4.7 3.58-6.75.04-2.15-3.73-3.9-7.69-6.45-12.82-13.25 7.28-26.34 14.48-40.74 22.39-1.9-2.73-4.99-6.53-7.23-10.79-.61-1.17.78-4.39 2.18-5.46 10.19-7.84 14.06-19.95 21.22-29.81-.29-.45-.58-.91-.87-1.36-5.38 2.51-10.95 4.69-16.08 7.63-3.67 2.1-5.41 1.34-6.69-2.33-.54-1.56-1.17-3.14-2.07-4.51-2.05-3.1-1.1-5.32 1.24-7.92 9.49-10.54 14.68-23.12 16.85-37.05.26-1.65.93-4.22 1.94-4.51 1.34-.38 3.44.75 4.79 1.79 1.81 1.4 3.38 3.21 4.77 5.06 5.27 6.99 4.79 7.52-.9 14.12-5.08 5.89-9.25 12.56-13.73 18.95-.61.87-.64 2.13-.95 3.25 12.27 1.74 23.7-7.06 26.94-20.47.59-2.42 1.06-4.87 1.78-7.25 1.13-3.72 4.08-4.03 5.94-1.48 3.06 4.19 5.34 9 7.52 13.74.49 1.06-.44 3.24-1.35 4.4-5.95 7.54-12.3 14.76-18.08 22.42-5.68 7.53-10.85 15.46-16.24 23.21.36.57.73 1.11 1.1 1.64z"/><path d="m106.27 218.79c-2.74 8.41-5.14 16.17-7.8 23.85-7.89 22.72-16.05 45.34-23.74 68.13-3.01 8.93-5.02 18.2-7.49 27.31-.35 1.28-.38 2.82-1.14 3.78-1.76 2.2-3.88 4.12-5.86 6.15-1.73-1.83-4.27-3.37-5.06-5.54-3.92-10.72-7.55-21.55-10.8-32.48-.47-1.59 1.32-4.23 2.64-5.93 7.15-9.16 15.61-17.5 21.51-27.38 10.55-17.66 19.59-36.21 29.26-54.4.85-1.61 1.41-3.46 2.58-4.78.82-.93 2.6-1.75 3.67-1.49 1.01.25 1.65 1.99 2.23 2.78z"/><path d="m304.74 279.38c3.2.67 4.9.71 6.3 1.37 14.5 6.9 28.22 15.01 38.4 27.77 7.07 8.86 10.83 18.96 8.73 30.54-.31 1.73-1.14 3.5-2.17 4.94-3.76 5.31-7.35 5.68-11.02.37-5.83-8.46-10.95-17.41-16.45-26.11-6.83-10.8-13.77-21.54-20.6-32.34-1.02-1.61-1.69-3.44-3.19-6.54z"/><path d="m89.4 184.35c-.37 14.21-6.11 17.29-17.22 10.61-10.13-6.09-16.63-15.62-23.42-24.85-1.97-2.67-3.95-5.35-5.65-8.2-.56-.94-.76-2.75-.22-3.51.61-.84 2.5-1.6 3.41-1.26 11.43 4.28 24.13 4.78 34.63 11.93 6.06 4.13 9.45 9.2 8.47 15.28z"/><path d="m63.48 83.05c3.02-.95 4.47-1.95 5.63-1.68 10.91 2.51 22.25 3.63 32.06 9.82 7.95 5.02 11.74 13.51 9.75 22.64-1.18 5.42-6.59 8.62-11.68 6.28-3.85-1.77-7.93-3.92-10.68-7-8.37-9.36-16.15-19.25-25.08-30.06z"/><path d="m133.64 309.23c-1.92 11.69-4.91 21.19-10.7 29.43-1.76 2.5-6.08 5.29-8.45 4.72-2.8-.68-5.78-4.52-6.78-7.61-1.08-3.34-1.17-8.04.43-11 5.3-9.84 9.82-19.89 12.65-30.72.4-1.51 2-2.71 3.04-4.05 1.29 1.17 3.16 2.09 3.78 3.54 2.4 5.57 4.39 11.31 6.03 15.69z"/><path d="m209.24 268.02c8.84 4.3 18.01 8.05 26.41 13.09 6.51 3.9 9.39 15.62 7.07 22.96-2.03 6.42-7.3 8.17-12.18 3.49-3.67-3.51-6.86-7.68-9.58-11.99-4.15-6.58-7.75-13.51-11.46-20.36-.88-1.63-1.29-3.52-1.91-5.3.55-.63 1.1-1.26 1.65-1.89z"/><path d="m171.76 315.49c-.92 3.14-1.43 6.46-2.83 9.37-2.63 5.45-7.8 5.77-11.41.97-.69-.92-1.42-1.91-1.75-2.98-3.44-11.37-6.84-22.75-10.17-34.16-1.23-4.22 1.02-4.12 4.01-3.08 13.36 4.63 21.38 15.67 22.15 29.88z"/><path d="m178.65 277.23c16.63 2.08 29.48 22.13 24.51 37.42-1.34 4.11-5.52 5.16-8.48 1.87-1.63-1.81-2.95-4.06-3.88-6.33-3.9-9.5-7.63-19.07-11.34-28.65-.5-1.3-.54-2.78-.81-4.31z"/></g><path d="m385.2 377.6.6-.7c.6.4 1.3.9 1.9 1.5l-.6.7c-.8-.5-1.4-1-1.9-1.5zm.3 7.1c.6-1.4 1.1-2.9 1.5-4.5.3.1.6.3.9.4-.5 1.4-1 2.9-1.5 4.4zm.2-10.1.6-.6c.7.5 1.3 1.1 1.9 1.6l-.7.7c-.6-.6-1.2-1.2-1.8-1.7zm8.4-.8h.8v.9h1.8v.7h-1.8v1.8h-.8v-.3h-1.2v.9h3.3v2.6h-.8v-.4h-2.5c0 .3 0 .6-.1.8h3.4v.7h-3.5c0 .3-.1.6-.1.8h4v.7h-3.5c.7.9 1.9 1.3 3.6 1.5-.2.2-.4.5-.6.9-1.9-.3-3.2-1.1-3.8-2.3-.5 1.1-1.8 2-3.9 2.4-.2-.3-.4-.5-.6-.8 1.9-.4 3.1-.9 3.6-1.7h-3.2v-.7h3.5c.1-.2.1-.5.2-.8h-3.3v-.7h3.4c0-.2 0-.5 0-.8h-2.4v.3h-.8v-2.6h3.3v-.9h-1.2v.3h-.8v-1.8h-1.8v-.7h1.8v-.9h.8v.9h3.2zm-4.4 5.5h2.4c0-.3 0-.6 0-.9h-2.4zm1.2-3.1h3.2v-.8h-3.2zm4.4 2.2h-2.4v.9h2.5v-.9z" fill="#fbfcfa"/><path d="m389.2 385.8h.9v1.5h1.9v-1.5h.9v1.5h2.7v6h1.1v.9h-11.3v-.9h1.1v-6h2.7zm.2 8.7.5.8c-1.2.6-2.5 1.3-4 1.9-.2-.3-.3-.6-.6-.8 1.6-.6 3-1.3 4.1-1.9zm-2-4.3h1.9v-2.1h-1.9zm0 3.1h1.9v-2.2h-1.9zm2.7-3.1h1.9v-2.1h-1.9zm0 3.1h1.9v-2.2h-1.9zm2.4 1.3c1.4.6 2.7 1.2 4.1 1.8l-.5.9c-1.5-.7-2.8-1.4-4.1-1.9zm2.2-6.5h-1.9v2.1h1.9zm-1.9 5.2h1.9v-2.2h-1.9z" fill="#fbfcfa"/></svg>