<svg enable-background="new 0 0 400 400" viewBox="0 0 400 400" xmlns="http://www.w3.org/2000/svg"><g fill="#010100"><path d="m108.04 250.88c-2.47 7.53-4.67 14.26-6.88 20.98-7.87 23.95-20.86 44.51-40.6 60.4-5.41 4.36-11.48 7.93-17.42 11.57-1.21.74-3.19.21-4.81.27.53-1.43.72-3.14 1.63-4.25 8.12-9.86 17.71-18.8 24.31-29.57 15.58-25.45 25.24-53.28 28.81-83.12 4.5-37.59 5.57-75.3 4.45-113.08-.25-8.43-1.2-16.93-2.88-25.18-1.1-5.4-3.89-10.52-6.27-15.59-2.43-5.17-1.18-7.82 4.49-7.62 9.59.34 18.83 2.49 27.01 7.67 5.15 3.26 8.74 6.68 3.58 13.89-6.27 8.76-5.35 19.03-5.92 28.86-.89 15.44-1.03 30.93-1.54 46.4-.17 5.29-.51 10.57-.79 16.35.89-.34 1.61-.39 1.91-.77 9.82-12.65 18.75-25.81 23.25-41.45.09-.32.24-.62.32-.95 2.01-9.1 4.6-10.62 12.11-5.24 5.69 4.08 10.73 9.39 15.11 14.9 3.44 4.32 1.56 6.85-3.05 9.64-11.22 6.77-22.1 14.09-33.06 21.29-3.33 2.19-6.28 5.01-9.72 6.99-5.02 2.88-7.28 6.79-7.74 12.66-1.19 15.06-3.08 30.06-4.4 45.11-.11 1.2 1.76 3.28 3.14 3.79 12.04 4.46 22.62 11.1 31.85 20.02 7.18 6.93 10.94 15.1 9.22 25.12-.46 2.67-1.93 6.75-3.72 7.23-2.89.77-6.97-.09-9.58-1.76-3.09-1.98-5.41-5.37-7.61-8.47-8.3-11.65-16.39-23.43-25.2-36.09z"/><path d="m290.08 334.47c-29.86 2.94-59.72 5.88-89.59 8.82-.15-.49-.29-.99-.44-1.48-.56 1.68-.75 3.65-1.78 4.97-1.52 1.95-3.51 4.53-5.54 4.77-1.71.2-4.58-2.18-5.48-4.1-1.67-3.54-2.6-7.53-3.28-11.43-2.44-13.89-4.73-27.8-6.92-41.73-1.09-6.92-3.73-13.04-8.22-18.42-1.15-1.37-1.96-3.02-3.13-4.86 4.14-3.45 9.37-3.73 12.79-1.67 11.04 6.65 22.29 2.56 33.5 2.13.32-.01.66-.28.96-.24 9.49 1.46 13.77-4.62 17.99-11.66 5.9-9.83 12.62-19.16 18.75-28.86 2.3-3.63 4.24-7.56 5.78-11.56 1.63-4.23.28-6.06-4.2-6.01-2.96.03-6.02.37-8.85 1.21-16.84 5.03-33.66 10.15-50.41 15.49-4.1 1.3-7.85 1.46-11.43-.81-4.45-2.82-10.38-3.82-13.08-10.18 2.64-.71 4.77-1.64 6.96-1.81 27.3-2.09 53.93-7.36 79.69-16.72 7.01-2.55 13.42-1.79 19.39 2.41 5.43 3.82 10.92 7.62 15.92 11.96 5.29 4.59 4.63 6.51-1.26 10.51-9.48 6.43-19.29 12.58-27.88 20.08-8.32 7.26-15.28 16.06-22.99 24.35 10.38-2.58 21.48-4.27 31.71-8.21 8.35-3.22 15.27-3.33 22.27 1.94 4.76 3.58 9.47 7.23 14.05 11.03 2.33 1.94 1.98 3.58-.22 6.12-4.16 4.81-8.14 10.04-10.91 15.72-3.99 8.18-6.72 16.96-10.24 25.39-1.22 2.91-1.28 4.75 1.8 6.49 1.86 1.05 3.13 3.16 4.67 4.79-.12.52-.25 1.05-.38 1.57zm-92.52-3.49c2.61-.14 4.44-.09 6.23-.34 15.6-2.19 31.17-4.57 46.79-6.62 14.32-1.88 14.48-1.7 17.91-15.36 2.05-8.17 4.18-16.41 5.16-24.75.88-7.43-2.93-10.34-10.26-9.27-14.74 2.14-29.5 4.23-44.21 6.56-8.45 1.34-16.82 3.11-25.55 4.75 1.32 15.17 2.6 29.84 3.93 45.03z"/><path d="m140.54 207.44c1.72-2.31 3.22-4.82 5.18-6.91 29.03-30.94 50.51-66.78 67.43-105.38 4.13-9.41 5.53-20.07 7.69-30.26 1.11-5.23 3.28-6.89 7.77-3.85 8.16 5.54 13.96 13.2 17.99 22.17 1.18 2.63.66 4.62-2.3 6.03-1.87.89-3.31 2.69-5.66 4.7 6.63 8.56 12.83 17.16 19.66 25.24 17.88 21.18 38.65 39.03 63.51 51.53 11.39 5.73 23.53 9.95 35.2 15.14 2.62 1.17 4.7 3.57 7.03 5.41-2.62 1.05-5.16 2.58-7.88 3.07-16.44 3.01-33.04 3.78-49.48.74-4.88-.9-10.4-3.72-13.6-7.41-10.76-12.4-21.12-25.23-30.68-38.59-9.77-13.65-18.4-28.1-27.54-42.2-.42-.65-.99-1.21-1.9-2.32-4.8 8.27-9.45 16.07-13.89 24-11.6 20.73-24.98 40.24-42.49 56.35-9.36 8.61-20.29 15.51-30.61 23.05-1.11.81-2.85.77-4.3 1.12-.4-.52-.76-1.07-1.13-1.63z"/><path d="m80.59 198.25c-.93 4.35-1.49 8.82-2.89 13.01-1.49 4.45-5.38 6.11-9 3.31-4.19-3.24-8.34-7.27-10.82-11.86-5.8-10.78-10.68-22.06-15.71-33.23-.79-1.75-.4-4.03-.55-6.07 2.04.25 4.31.01 6.07.84 6.41 3.06 12.63 6.53 18.97 9.76 9.89 5.05 13.6 13.49 13.93 24.24z"/><path d="m208.45 184.11c-4.2-.92-9.39-1.81-14.39-3.31-1.24-.37-2.49-2.71-2.55-4.2-.04-.81 2.27-2.2 3.71-2.55 13.49-3.22 26.9-6.98 40.57-9.1 7.45-1.15 15.36.39 23.03 1.13 1.36.13 3.19 2.13 3.53 3.57.23.97-1.58 2.76-2.84 3.65-1.3.91-3.01 1.36-4.61 1.7-9.86 2.14-19.72 4.26-29.61 6.25-5.19 1.03-10.43 1.78-16.84 2.86z"/></g><path d="m385.2 377.6.6-.7c.6.4 1.3.9 1.9 1.5l-.6.7c-.8-.5-1.4-1-1.9-1.5zm.3 7.1c.6-1.4 1.1-2.9 1.5-4.5.3.1.6.3.9.4-.5 1.4-1 2.9-1.5 4.4zm.2-10.1.6-.6c.7.5 1.3 1.1 1.9 1.6l-.7.7c-.6-.6-1.2-1.2-1.8-1.7zm8.4-.8h.8v.9h1.8v.7h-1.8v1.8h-.8v-.3h-1.2v.9h3.3v2.6h-.8v-.4h-2.5c0 .3 0 .6-.1.8h3.4v.7h-3.5c0 .3-.1.6-.1.8h4v.7h-3.5c.7.9 1.9 1.3 3.6 1.5-.2.2-.4.5-.6.9-1.9-.3-3.2-1.1-3.8-2.3-.5 1.1-1.8 2-3.9 2.4-.2-.3-.4-.5-.6-.8 1.9-.4 3.1-.9 3.6-1.7h-3.2v-.7h3.5c.1-.2.1-.5.2-.8h-3.3v-.7h3.4c0-.2 0-.5 0-.8h-2.4v.3h-.8v-2.6h3.3v-.9h-1.2v.3h-.8v-1.8h-1.8v-.7h1.8v-.9h.8v.9h3.2zm-4.4 5.5h2.4c0-.3 0-.6 0-.9h-2.4zm1.2-3.1h3.2v-.8h-3.2zm4.4 2.2h-2.4v.9h2.5v-.9z" fill="#fbfcfa"/><path d="m389.2 385.8h.9v1.5h1.9v-1.5h.9v1.5h2.7v6h1.1v.9h-11.3v-.9h1.1v-6h2.7zm.2 8.7.5.8c-1.2.6-2.5 1.3-4 1.9-.2-.3-.3-.6-.6-.8 1.6-.6 3-1.3 4.1-1.9zm-2-4.3h1.9v-2.1h-1.9zm0 3.1h1.9v-2.2h-1.9zm2.7-3.1h1.9v-2.1h-1.9zm0 3.1h1.9v-2.2h-1.9zm2.4 1.3c1.4.6 2.7 1.2 4.1 1.8l-.5.9c-1.5-.7-2.8-1.4-4.1-1.9zm2.2-6.5h-1.9v2.1h1.9zm-1.9 5.2h1.9v-2.2h-1.9z" fill="#fbfcfa"/></svg>