<svg enable-background="new 0 0 400 400" viewBox="0 0 400 400" xmlns="http://www.w3.org/2000/svg"><path d="m377.9 391.2c-.2.3-.4.5-.6.8-.7-.6-1.4-1-2.2-1.5.2-.3.4-.5.5-.8.6.4 1.4.8 2.3 1.5zm-1.8 6.1c-.2-.2-.5-.4-.9-.6.4-.6.8-1.2 1.2-1.9s.7-1.3.9-1.9c.3.3.5.5.8.7-.7 1.3-1.4 2.6-2 3.7zm2.2-9c-.3.3-.5.5-.6.8-.6-.6-1.3-1.1-2-1.5.3-.3.5-.5.6-.7.6.5 1.3.9 2 1.4zm.3.2v-.9h2 4.5c-.3 1.3-.6 2.5-1 3.6s-.9 2.1-1.4 3c.4.5 1 1 1.6 1.4s1.2.8 1.9 1.1c-.3.2-.5.4-.8.8-.4-.3-1-.7-1.6-1.2s-1.2-1.1-1.6-1.6c-.5.6-1.1 1.1-1.7 1.6s-1.4.9-2.1 1.4c-.1-.3-.3-.5-.7-.8.6-.2 1.2-.5 1.9-1s1.4-1.1 2-1.8c-.5-.8-.9-1.6-1.2-2.5s-.6-2-.8-3.2c-.4.1-.7.1-1 .1zm2.5 2.7c.3 1 .7 1.7 1 2.2.3-.5.6-1.1 1-2s.6-1.9.9-3h-3.2-.4c.1.9.3 1.8.7 2.8z" fill="#fbfafc"/><path d="m396.5 388.5v1.5 3.6h1.5v.9c-.4 0-1 0-1.7 0h-7.9c-.5 0-.9 0-1.2 0v-.9h1.3v-3.5c0-.7 0-1.2 0-1.6h2.4c0-.8 0-1.4 0-1.7h1c0 .3-.1.8-.1 1.7h1.5c0-.8 0-1.4 0-1.7h1c0 .3-.1.9-.1 1.7zm-8.2 9.2c-.2-.3-.5-.5-.8-.8.8-.3 1.4-.6 1.9-.9s1-.7 1.4-1.1c.3.3.6.5.9.8-1.6 1-2.8 1.6-3.4 2zm2.6-6.8v-1.6h-1.5v1.6zm0 2.7v-1.9h-1.5v1.9zm2.4-2.7v-1.6h-1.5v1.6zm0 2.7v-1.9h-1.5v1.9zm.2 2 .7-.8c.4.2.9.5 1.6.8s1.3.7 1.8 1c-.3.3-.5.5-.8.8-.4-.3-1.5-1-3.3-1.8zm2-4.7v-1.6h-1.4v1.6zm0 2.7v-1.9h-1.4v1.9z" fill="#fbfafc"/><g fill="#010103"><path d="m215.08 188.92c19.21-3.29 37.38-6.31 55.51-9.55 15.18-2.72 30.29-5.84 45.48-8.54 14.42-2.56 38.01 9.18 43.81 21.56-10.14 12.48-12.5 27.53-13.78 42.87-1.75 21.01-3.21 42.08-10.15 62.21-5.13 14.89-12.26 28.64-26.53 36.82-11.89 6.82-12.31 6.77-20.25-4.74-5.84-8.46-11.02-17.38-16.48-26.11-.79-1.27-1.6-2.55-2.17-3.92-1.44-3.49-.29-5.09 3.51-4.79 1.63.13 3.22.72 4.82 1.16 3.19.88 6.32 2.28 9.56 2.64 15.75 1.72 22.04-.54 26.33-15.09 7.11-24.1 12.44-48.63 13.91-73.72.93-15.91-8.62-25.13-24.59-24.62-29.97.95-59.76 3.77-87.91 15.14-6.51 2.63-12.53 6.84-18.19 11.1-3.2 2.41-4.94 1.58-6.29-1.02-1.33-2.58-2.42-5.57-2.55-8.43-.31-6.92.26-13.43 4.76-19.68 7.52-10.45 10-23.09 11.91-35.57 1.14-7.47 1.48-15.2 1-22.74-.32-5.12-2.27-10.27-4.22-15.12-2.85-7.11-1.64-9.62 5.87-8.85 7.94.82 15 4.26 20.75 9.88 2.5 2.45 3.14 5.55 1.76 9.15-6.82 17.87-11.85 36.24-14.52 55.21-.64 4.56-.85 9.17-1.35 14.75z"/><path d="m112.93 172.52c-6.31.87-12.35 2.43-18.36 2.3-4.42-.1-8.9-2.13-13.12-3.85-1.53-.62-3.1-2.74-3.33-4.36-.13-.91 2.27-2.71 3.83-3.24 8.47-2.92 17.02-5.58 25.55-8.32 1.58-.51 3.17-.96 4.66-1.4 0-18.81 0-37.52 0-55.88-7.84.5-14.94 1.43-22 1.24-4.7-.12-9.44-1.56-13.99-2.97-1.96-.61-3.47-2.65-5.18-4.04 1.86-1.15 3.58-2.83 5.6-3.36 8.65-2.28 17.46-3.98 26.08-6.35 16-4.39 31.86-9.3 47.89-13.54 4.22-1.11 8.95-1.07 13.32-.55 2.52.3 5.31 2.15 7.09 4.1 3.6 3.94 2.84 7.91-2.09 9.87-8.01 3.18-16.18 6.06-24.48 8.34-6.17 1.7-9.82 3.72-9.84 11.36-.04 14.77-1.47 29.53-2.3 44.29-.02.44.29.9.53 1.56 4.7-1.15 9.31-2.36 13.97-3.41 6.17-1.38 11.94.2 17.27 3.13 4.12 2.27 4.28 4.83.04 6.76-9.49 4.31-19.29 7.94-28.97 11.81-1.22.49-2.51.78-4.7 1.44v54.65c11.91-2.27 22.1-11.33 34.88-12.41.41.48.83.96 1.24 1.44-1.47 2.13-2.5 4.88-4.48 6.3-8.63 6.19-17.54 12-26.34 17.96-17.21 11.65-34.42 23.3-51.6 35-1.5 1.02-3.03 2.22-4.05 3.68-4.05 5.79-12.12 5.78-16.86 1.49-5.97-5.4-11.09-11.82-16.17-18.12-2.51-3.11-.14-5.3 2.95-5.35 22.14-.36 40.51-11.89 60-20.06 1.3-.54 2.83-2.5 2.85-3.81.17-18.65.11-37.3.11-55.7z"/><path d="m274.93 67.7c-7.91 1.41-15.06 2.39-22.07 4-11.96 2.74-23.8 5.99-35.74 8.78-9.18 2.15-17.81-.6-26.18-3.96-1.61-.65-2.53-3.04-3.76-4.63 1.66-1.04 3.22-2.72 5-3.01 21.63-3.54 43.33-6.8 63.85-15 4.46-1.78 9.22-3.45 12.9-6.36 7.71-6.09 15.02-3.68 22.27.02 8.15 4.16 15.35 11.95 20.63 21.18-8.15 7.75-11.93 17.98-14.66 28.39-5.43 20.68-9.98 41.58-15.16 62.33-1.07 4.27-2.79 8.56-5.07 12.32-3.39 5.59-7.41 5.12-10.36-.64-3.82-7.45-3.15-15.02-1.13-22.8 6.3-24.24 8.31-49.04 9.48-73.94.07-1.66 0-3.32 0-6.68z"/><path d="m138.27 251.67c2.37-.46 3.91-1.01 5.45-1.02 43.13-.42 85.21-8.09 126.9-18.38 9.05-2.23 17.8-1.47 26.41 1.66 4.18 1.52 7.71 3.91 9.1 8.51 1.41 4.66.08 7.49-4.72 8.37-4.38.81-8.91.98-13.39 1.13-17.75.61-35.55.38-53.23 1.82-23.52 1.92-46.6 6.84-69.41 12.98-2.89.78-6.67-.25-9.61-1.47-6.66-2.78-13.18-6.07-17.5-13.6z"/></g></svg>