<svg enable-background="new 0 0 400 400" viewBox="0 0 400 400" xmlns="http://www.w3.org/2000/svg"><path d="m377.9 391.2c-.2.3-.4.5-.6.8-.7-.6-1.4-1-2.2-1.5.2-.3.4-.5.5-.8.6.4 1.4.8 2.3 1.5zm-1.8 6.1c-.2-.2-.5-.4-.9-.6.4-.6.8-1.2 1.2-1.9s.7-1.3.9-1.9c.3.3.5.5.8.7-.7 1.3-1.4 2.6-2 3.7zm2.2-9c-.3.3-.5.5-.6.8-.6-.6-1.3-1.1-2-1.5.3-.3.5-.5.6-.7.6.5 1.3.9 2 1.4zm.3.2v-.9h2 4.5c-.3 1.3-.6 2.5-1 3.6s-.9 2.1-1.4 3c.4.5 1 1 1.6 1.4s1.2.8 1.9 1.1c-.3.2-.5.4-.8.8-.4-.3-1-.7-1.6-1.2s-1.2-1.1-1.6-1.6c-.5.6-1.1 1.1-1.7 1.6s-1.4.9-2.1 1.4c-.1-.3-.3-.5-.7-.8.6-.2 1.2-.5 1.9-1s1.4-1.1 2-1.8c-.5-.8-.9-1.6-1.2-2.5s-.6-2-.8-3.2c-.4.1-.7.1-1 .1zm2.5 2.7c.3 1 .7 1.7 1 2.2.3-.5.6-1.1 1-2s.6-1.9.9-3h-3.2-.4c.1.9.3 1.8.7 2.8z" fill="#fbfafc"/><path d="m396.5 388.5v1.5 3.6h1.5v.9c-.4 0-1 0-1.7 0h-7.9c-.5 0-.9 0-1.2 0v-.9h1.3v-3.5c0-.7 0-1.2 0-1.6h2.4c0-.8 0-1.4 0-1.7h1c0 .3-.1.8-.1 1.7h1.5c0-.8 0-1.4 0-1.7h1c0 .3-.1.9-.1 1.7zm-8.2 9.2c-.2-.3-.5-.5-.8-.8.8-.3 1.4-.6 1.9-.9s1-.7 1.4-1.1c.3.3.6.5.9.8-1.6 1-2.8 1.6-3.4 2zm2.6-6.8v-1.6h-1.5v1.6zm0 2.7v-1.9h-1.5v1.9zm2.4-2.7v-1.6h-1.5v1.6zm0 2.7v-1.9h-1.5v1.9zm.2 2 .7-.8c.4.2.9.5 1.6.8s1.3.7 1.8 1c-.3.3-.5.5-.8.8-.4-.3-1.5-1-3.3-1.8zm2-4.7v-1.6h-1.4v1.6zm0 2.7v-1.9h-1.4v1.9z" fill="#fbfafc"/><g fill="#010103"><path d="m247.07 96.8c-9.46 1.94-18.84 3.35-27.9 5.87-10.21 2.84-18.1-1.52-25.95-6.71-.78-.51-1.58-2.51-1.29-2.83.9-.98 2.26-1.91 3.56-2.12 10.98-1.78 22.02-3.21 32.98-5.09 27.47-4.7 54.86-9.9 82.39-14.23 10.24-1.61 19.59 2.29 27.29 9.28 2.98 2.71 1.96 5.67-2.17 6.11-8.58.91-17.24 1.14-25.83 1.99-13.06 1.29-26.09 2.87-39.12 4.37-.44.05-.85.47-1.29.73 7.08 5.81 7.01 5.78 3.48 15.19-.93 2.47-1.76 5.11-1.92 7.72-.88 14.27-1.55 28.56-2.29 42.84-.17 3.26-.36 6.51-.6 10.91 14.79-2.51 28.85-4.73 42.84-7.36 6.51-1.23 12.82-3.46 19.31-4.85 2.65-.57 6.09-1.13 8.17.05 6.88 3.9 13.45 8.39 19.84 13.08 3.53 2.59 2.82 6.61 1.17 10.02-6.41 13.26-7.53 27.43-7.55 41.82-.04 33-.06 66-.12 99-.03 15.99-6.51 28.96-18.75 39.07-6.01 4.96-7.63 4.76-12.68-1.25-8.56-10.19-17.02-20.46-25.48-30.73-.68-.83-.96-1.99-1.95-4.14 2.74.48 4.6.56 6.28 1.15 4.23 1.48 8.33 3.35 12.58 4.76 8.16 2.71 13.2.42 14.83-8.06 1.99-10.39 3.57-21.01 3.82-31.57.81-33.13.98-66.28 1.26-99.42.12-14.84-.42-15.56-14.93-15.12-16.1.49-32.19 1.7-49.71 2.68 0 6.94.06 13.5-.01 20.06-.28 23.97-.72 47.94-.85 71.91-.06 11.65.72 23.3.59 34.94-.06 5.26-1.19 10.55-2.3 15.73-.51 2.35-1.89 4.64-3.32 6.64-4.58 6.38-8.02 6.19-11.71-.69-4.91-9.15-7.02-18.28-4.48-29.15 2.93-12.52 4.01-25.62 4.53-38.52.94-23.45.87-46.94 1.25-70.41.04-2.44.36-4.87.66-8.69-17.87 2.62-35.05 4.95-52.15 7.73-7.47 1.21-7.58 1.62-8.07 9.44-.92 14.44-1.44 28.91-2.45 43.35-1.83 26.36-3.81 52.71-5.93 79.04-.36 4.43-1.36 9.95-6.46 10.67-5.06.71-6.77-4.76-8.49-8.53-4.02-8.83-6.31-17.38-2.34-27.6 6.59-16.96 8.22-35.15 9.2-53.29.52-9.63 1.45-19.26 1.45-28.89 0-11.72.64-23.62-5.67-34.45-2.62-4.49-1.03-6.73 4.06-6.32 3.11.25 6.5.6 9.18 2.02 8.65 4.56 17.62 2.1 26.39 1.57 12.09-.73 24.12-2.57 36.2-3.57 3.93-.33 5.42-1.43 5.44-5.62.05-13.31.68-26.62.84-39.93.11-10.36-1.16-20.5-5.83-30.6z"/><path d="m36.42 275.85c1.19-1.82 2.04-4.02 3.61-5.41 28.17-24.91 50.01-55.16 72.02-85.25 5.88-8.04 10.98-16.65 16.41-25.02.63-.97 1.19-2.02 1.55-3.11 1.4-4.29-.23-6.58-4.44-5.33-11.11 3.31-22.1 7.03-33.07 10.79-5.65 1.93-11.05 4.64-16.77 6.3-2.57.75-5.93.53-8.39-.53-3.92-1.68-7.59-4.15-10.94-6.82-1.77-1.41-2.65-3.94-3.93-5.96 2.16-.88 4.28-2.4 6.49-2.55 21.53-1.53 42.27-6.47 62.35-14.22 3.23-1.25 6.32-3.01 9.24-4.89 4.17-2.69 8.69-3.31 12.8-1.02 6.32 3.52 12.63 7.32 18.15 11.95 5.17 4.33 4.47 6.89-.25 12.04-8.08 8.82-16.17 17.66-23.76 26.9-5.69 6.92-10.61 14.47-15.72 21.54 2.43 4.06 4.71 8.1 7.26 11.96.6.9 2.1 1.3 3.26 1.73 7.62 2.81 15.43 5.19 22.84 8.46 6.94 3.06 9.79 9.14 7.81 16.43-.78 2.87-3.1 6.46-5.59 7.37-2.07.76-6.24-1.16-8.02-3.18-5.93-6.72-11.2-14.02-16.73-21.08-.71-.9-1.46-1.76-2.99-3.59-.95 5.55-2.33 10.17-2.43 14.81-.56 24.63-.47 49.27-1.3 73.89-.45 13.2.4 26.74-4.89 39.33-1.33 3.16-3.98 5.77-6.02 8.63-2.33-2.57-5.46-4.78-6.82-7.8-2.57-5.72-4.65-11.78-5.91-17.91-.8-3.89-.06-8.21.53-12.26 2.24-15.41 4.96-30.76 6.98-46.2 1.12-8.55 1.49-17.23 1.74-25.86.29-9.92.07-19.85-.88-30.06-21.63 22.91-44.85 42.81-72.34 57.27-.62-.45-1.24-.9-1.85-1.35z"/><path d="m296.09 105.05c2.65 0 4.33-.42 5.69.06 15.89 5.69 31.82 11.27 47.54 17.39 11.78 4.58 15.7 14.51 15.81 26.32.06 6.47-4.25 9.79-10.08 7.21-5.07-2.24-10.16-5.07-14.26-8.73-14.46-12.94-28.49-26.36-42.67-39.61-.46-.43-.79-1.01-2.03-2.64z"/><path d="m275.97 255.67c6.79 3.41 13.59 6.82 21.29 10.69.95-5.08 2.16-9.86 2.66-14.71.57-5.58 2.02-7.09 7.28-5.13 4.27 1.58 8.32 3.88 12.16 6.35.76.49.63 3.49-.05 4.84-1.02 2.01-2.95 3.55-4.41 5.36-2.51 3.1-4.96 6.26-7.79 9.85 2.49 2.14 4.98 4.24 7.42 6.4 3.87 3.44 6.92 7.57 6.36 12.89-.28 2.65-1.88 5.92-3.96 7.34-1.28.87-4.96-.69-6.9-2.08-4.57-3.28-8.74-7.11-13.4-10.98-6.02 4.93-11.34 13.7-21.99 15.95.67-1.32 1.22-2.73 2.04-3.94 4.29-6.33 8.58-12.65 13.01-18.88 1.5-2.11 1.54-3.66-.27-5.67-4.86-5.41-9.52-11-14.26-16.52.27-.59.54-1.18.81-1.76z"/><path d="m278.59 198.29c5.24 2.42 10.47 4.85 16.52 7.64.96-4.57 2.19-8.98 2.76-13.48.63-5.02 1.35-5.93 6.18-4.6 3.32.91 6.7 1.99 9.69 3.66 4.73 2.64 4.65 4.6 1.04 8.48-3.69 3.97-7.06 8.24-10.19 11.92 3.46 3.75 7.07 6.67 9.34 10.42 1.94 3.21 3.12 7.33 3.24 11.09.16 5.3-5.12 7.68-9.09 4.15-4.3-3.81-7.93-8.38-12.13-12.92-5.85 6.69-12.13 13.36-20.26 17.73-.35-.28-.7-.56-1.05-.84.77-1.51 1.43-3.08 2.32-4.5 3.77-6.05 7.78-11.97 11.3-18.16.8-1.41.7-4.16-.18-5.52-2.15-3.32-5.05-6.15-7.55-9.25-1.09-1.35-1.97-2.89-2.94-4.34.32-.48.66-.98 1-1.48z"/><path d="m200.65 204.21c5.28 2.27 10.55 4.53 16.69 7.17 1.1-4.83 2.52-9.52 3.13-14.32.46-3.63 1.81-4.79 5.17-3.66 3.29 1.11 6.73 1.94 9.77 3.54 4.53 2.38 4.59 4.1 1.37 8.1-3.41 4.24-6.7 8.59-10.11 12.98 3.11 2.97 6.46 5.2 8.42 8.3 2.11 3.35 3.48 7.44 4.05 11.37.27 1.84-1.66 4.9-3.44 5.86-1.43.77-4.71-.13-6.14-1.42-4-3.65-7.47-7.89-10.99-11.72-6.72 5.91-13.44 11.81-20.16 17.71-.55-.49-1.1-.98-1.65-1.47.89-1.59 1.7-3.24 2.69-4.77 3.7-5.72 7.39-11.44 11.23-17.07 1.56-2.29 1.48-4.09-.34-6.19-3.62-4.2-7.06-8.56-10.58-12.85.3-.52.59-1.04.89-1.56z"/><path d="m226.63 275.61c2.9 2.61 5.5 4.68 7.77 7.07 3.45 3.63 5.69 8.04 4.76 13.1-.39 2.14-2.16 4.62-4.02 5.66-1.11.62-4.04-.8-5.42-2.09-3.99-3.73-7.61-7.85-11.08-11.51-6.66 5.73-13.44 11.56-20.23 17.4-.55-.5-1.11-.99-1.66-1.49.86-1.6 1.6-3.28 2.59-4.79 3.73-5.69 7.51-11.36 11.35-16.97 1.55-2.26 1.49-4.03-.5-6.11-2.99-3.11-5.66-6.52-8.41-9.86-.76-.93-1.31-2.04-1.96-3.06.32-.48.63-.96.95-1.44 5.14 2.3 10.29 4.61 16.14 7.22 1.26-4.66 3.05-9 3.46-13.47s2.6-4.9 5.95-4.19c1.77.37 3.45 1.17 5.15 1.82 8.91 3.42 9.37 5.27 3.4 12.22-2.82 3.28-5.35 6.8-8.24 10.49z"/><path d="m151.14 87.86c-.3 3.63-.95 7.97-5.48 10.6-4.48 2.61-8.72 1.7-12.68-.85-12.25-7.9-20.98-19.32-29.78-30.58-2.45-3.13.57-4.47 2.98-3.98 12.79 2.62 26.04 3.76 37.63 10.64 5.02 2.97 7.31 7.15 7.33 14.17z"/><path d="m168.5 164.99c1.29-1.38 2.44-2.93 3.89-4.11 11.09-9 20.46-19.53 27.62-31.86 2.01-3.46 2.96-7.64 3.88-11.61.84-3.6 2.14-5.87 5.96-3.54 5.63 3.43 11.4 6.79 16.49 10.93 4.15 3.38 3.51 5.31-.86 8.35-12 8.34-23.7 17.14-36.01 24.98-5.99 3.82-13.09 5.89-19.69 8.76-.41-.64-.84-1.27-1.28-1.9z"/></g></svg>