<svg enable-background="new 0 0 400 400" viewBox="0 0 400 400" xmlns="http://www.w3.org/2000/svg"><path d="m342.2 3.2-6.3 9.2h6.1v1.2h-8.2v-.5l6.2-9.1h-5.7v-1.2h7.8v.4z" fill="#fafbfc"/><path d="m344 13.7v-10.9h3.1c1.6 0 3 .5 4.1 1.4 1.1 1 1.6 2.2 1.6 3.9s-.5 3-1.6 4-2.5 1.5-4.2 1.5h-3zm1.4-9.6v8.4h1.6c1.4 0 2.5-.4 3.2-1.1.8-.8 1.2-1.8 1.2-3.2s-.4-2.4-1.2-3.1-1.8-1-3.1-1z" fill="#fafbfc"/><path d="m356.3 2.8v10.9h-1.4v-10.9z" fill="#fafbfc"/><path d="m366.6 13.2c-.8.4-1.8.6-3 .6-1.6 0-2.8-.5-3.7-1.5s-1.4-2.3-1.4-3.9c0-1.7.5-3.2 1.6-4.2s2.4-1.6 4-1.6c1 0 1.9.1 2.6.4v1.5c-.8-.4-1.6-.6-2.6-.6-1.2 0-2.2.4-3 1.2s-1.1 1.9-1.1 3.3c0 1.3.4 2.3 1.1 3.1s1.6 1.1 2.8 1.1c1.1 0 2-.2 2.8-.7v1.3z" fill="#fafbfc"/><path d="m368.2 13c0-.3.1-.5.3-.6.2-.2.4-.3.6-.3.3 0 .5.1.7.3s.3.4.3.6-.1.5-.3.6c-.2.2-.4.3-.7.3s-.5-.1-.6-.3c-.2-.2-.3-.4-.3-.6z" fill="#fafbfc"/><path d="m381.1 13.7h-1.7l-5.5-8.4c-.2-.2-.3-.5-.4-.7 0 .2.1.8.1 1.5v7.6h-1.4v-10.9h1.8l5.3 8.3c.3.4.4.6.4.8 0-.3-.1-.8-.1-1.6v-7.5h1.4v10.9z" fill="#fafbfc"/><path d="m389.7 13.7h-5.8v-10.9h5.6v1.2h-4.2v3.5h3.9v1.2h-3.9v3.7h4.4z" fill="#fafbfc"/><path d="m398.4 4.1h-3.1v9.6h-1.4v-9.6h-3.1v-1.3h7.7v1.3z" fill="#fafbfc"/><g fill="#010102"><path d="m98 190.29c-11.98 3.18-24.05 6.05-35.91 9.65-8.48 2.57-16.78 4.35-25.17.47-2.8-1.3-5.32-3.34-7.72-5.33-1.02-.85-2.27-2.95-1.89-3.61.68-1.2 2.43-2.22 3.87-2.47 6.87-1.18 13.8-1.98 20.68-3.08 14.9-2.39 29.78-4.88 44.67-7.37.95-.16 1.84-.65 3.35-1.2 0-8.09-.1-16.24.02-24.38.25-16.81 1.04-33.62.78-50.41-.17-11.1-1.56-22.2-2.91-33.23-.43-3.5-2.54-6.78-3.82-10.18-1.65-4.36-.35-6.71 4.2-6.43 10.13.62 19.07 4.61 26.39 11.52 1.42 1.34 1.63 5.12.95 7.32-5.7 18.58-7.88 37.64-8.5 56.97-.41 12.62-1.18 25.23-1.74 37.85-.12 2.62-.02 5.26-.02 8.54 4.07-.95 7.62-1.56 11.03-2.62 8.4-2.6 16.43-1.51 24.21 2.14 1.61.75 3.15 1.95 4.31 3.29 1.89 2.16 1.68 3.99-1.63 4.38-8.4 1-16.82 1.87-25.2 2.98-4.1.54-8.14 1.48-12.69 2.33-.08 1.65-.21 3.27-.22 4.88-.35 36.79-.59 73.59-1.09 110.38-.16 11.96-.35 23.99-1.83 35.82-.77 6.18-3.83 12.31-6.86 17.92-3.42 6.34-8.04 6.43-10.82-.02-4.29-9.95-9.22-20.04-6.47-31.58 8.11-34.02 10.36-68.61 10.04-103.45-.09-9.97-.01-19.93-.01-31.08z"/><path d="m264.79 153.69c-11.84 0-22.8 0-34.75 0-5.34 8.34-10.82 18.6-20.8 24.8-.48-.32-.97-.65-1.45-.97 2.17-6.87 4.46-13.71 6.47-20.63 3.01-10.35 6.08-20.69 8.58-31.16.89-3.72.48-7.86.1-11.75-.58-5.84.92-7.81 6.34-6.03 5.26 1.72 10.62 3.89 15.13 7.01 4.96 3.43 4.6 6.45 1.27 11.48-3.73 5.64-7.05 11.55-10.55 17.34.29.45.59.89.88 1.34 9.03-1.49 18.05-2.99 27.83-4.6 0-6.5.21-13.08-.04-19.65-.47-12.28-.7-24.61-2.03-36.81-.67-6.11-3.6-11.96-5.35-17.97-.74-2.54-2.38-6.32-1.31-7.56 1.74-2.01 5.37-3.32 8.19-3.3 8.9.05 16.59 4.18 24.06 8.6 2.91 1.73 3.59 4.44 2.35 7.34-7.24 16.9-6.52 34.78-6.67 52.55-.03 3.95-.01 7.91-.01 12.87 5.24-1.55 10.46-2.86 15.52-4.63 8.43-2.95 15.67-.87 22.24 4.65 3.89 3.27 3.86 5.01-.9 6.26-9.27 2.43-18.72 4.2-28.1 6.17-3.06.64-6.17 1.08-9.94 1.72v33.37c11.18-1.89 22.43-3.84 33.7-5.66 8.51-1.38 17.01-2.99 25.59-3.76 8.79-.79 15.38 4.54 21.82 9.6.83.65 1.56 2.86 1.13 3.38-.91 1.12-2.55 2.15-3.97 2.27-6.45.54-12.94.61-19.4 1.12-20.87 1.64-41.81 2.75-62.58 5.3-17.42 2.14-34.73 5.57-51.91 9.26-10.07 2.17-17.79-1.88-25.66-6.69-.35-.21-.5-.82-.62-1.28-.08-.29.04-.64.12-1.48 7.87-1.07 15.87-2.06 23.84-3.28 12.47-1.9 24.92-3.91 37.34-6.03 1.29-.22 3.4-1.55 3.42-2.4.21-10.27.12-20.54.12-30.79z"/><path d="m174.11 219.55c-4.41.71-7.92 1.5-11.47 1.79-4.76.38-9.57.7-14.31.35-1.74-.13-3.33-2.25-6.03-4.22 2.97-1.19 4.68-1.98 6.45-2.57 6.61-2.18 13.31-4.11 19.84-6.51 2.57-.95 5.15-2.53 7.05-4.48 2.76-2.84 5.82-3.48 8.92-1.77 4.76 2.64 9.41 5.61 13.67 8.98 2.98 2.35 2.32 5.14-.25 8.15-7.66 8.96-15.12 18.11-22.33 27.43-3.28 4.24-2.34 6.88 2.84 10.08 7.51 4.65 13.35 10.73 14.81 19.63.66 4.05-.29 8.45-1.01 12.61-.44 2.53-1.82 4.91-2.48 6.61 60.93 19.69 123.33 27.26 187.03 25.32.61 1.01 1.22 2.02 1.84 3.04-1.33.35-2.72.56-3.98 1.07-19.85 8.02-39.52 16.52-59.58 23.95-10.34 3.83-20.15-1.28-29.75-4.99-26.02-10.06-51.89-20.56-78.17-29.92-8.91-3.17-18.81-4.09-28.34-4.75-4.59-.31-9.74 1.69-13.99 3.89-7.13 3.68-9.62 3.96-15.57-1.43-2.2-2-4.31-4.26-5.85-6.77-1.01-1.64-1.73-4.29-1.08-5.86.5-1.22 3.32-2.02 5.13-2.08 9.77-.33 19.56-.53 29.33-.42 3.68.04 4.67-1.04 4.94-4.76.97-13.39-3.94-24.5-12.82-33.91-3.58-3.79-4.62-7.26-2.86-12.04 2.53-6.85 4.8-13.8 7.09-20.74.45-1.47.51-3.08.93-5.68z"/><path d="m308.7 273.11c1.81 2.76 3.62 5.53 5.43 8.29-3.1.55-6.18 1.3-9.3 1.63-17.02 1.77-34.05 3.38-51.05 5.22-1.17.13-2.37 1.54-3.24 2.61-3.24 4-6.08 4.46-8.6.05-2.47-4.34-3.83-9.46-4.92-14.41-2.28-10.36-3.96-20.84-6.11-31.23-1.18-5.71-3.89-10.59-9.1-13.74-1.13-.68-2.14-1.56-3.41-2.5 3.29-3.2 6.01-4.52 9.91-3.46 22.9 6.25 44.08-1.46 65.42-8.12 3.2-1 7.17-2.18 10.02-1.15 6.64 2.41 12.9 5.95 19.14 9.35 2.78 1.51 3.28 4.23 1.16 6.79-9.83 11.84-11.02 27.13-16.89 40.54.51.06 1.03.1 1.54.13zm-17.95-1.09c1.09-11.03 2.12-21.56 3.17-32.09.43-4.33-1.62-6.21-5.81-5.91-4.46.32-8.93.61-13.38 1.12-9.17 1.06-18.32 2.25-27.92 3.45 1.77 13 3.48 25.55 5.2 38.24 13.38-1.67 25.98-3.23 38.74-4.81z"/><path d="m74.12 204.57c6.97 4.83 12.77 8.53 18.1 12.82 1.04.84 1.05 4.29.25 5.89-6.45 12.91-12.97 25.81-19.94 38.45-8.63 15.64-18.12 30.73-32.89 41.54-2.94 2.15-6.07 4.08-9.26 5.83-1.08.59-2.65.28-3.99.38.41-1.33.52-2.87 1.26-3.97 7.37-10.85 15.35-21.31 22.16-32.49 9.64-15.83 16.75-32.86 20.36-51.15.7-3.53.14-7.29.65-10.88.27-1.74 1.66-3.32 3.3-6.42z"/><path d="m127.54 146.24c.78-1.7 1.49-3.44 2.35-5.09 4.64-8.81 9.56-17.47 13.85-26.44 1.67-3.49 2.08-7.62 2.85-11.5.54-2.71 1.44-3.61 4.4-2.54 8.54 3.07 14.62 8.96 19.62 16.21 1.87 2.72 1.3 4.72-1.64 6.49-11.75 7.1-23.4 14.37-35.12 21.53-1.61.98-3.36 1.72-5.05 2.58-.41-.41-.83-.83-1.26-1.24z"/><path d="m49.46 122.88c10.75 1.3 21.11 3.96 29.24 11.73 5.23 5 5.75 13.08 2.22 19.4-3.55 6.35-9.2 7.45-13.58 1.72-5.31-6.95-9.68-14.65-14.27-22.14-1.85-3.02-3.21-6.33-4.8-9.51.39-.4.79-.8 1.19-1.2z"/><path d="m158.92 147.58c8.97 1.35 17.53 2.52 24.5 8.21 5.74 4.68 8.25 11.05 6.39 18.25-.74 2.84-3.16 6.31-5.68 7.31-2.23.88-7.08-.35-8.31-2.24-6.12-9.41-11.44-19.34-17-29.12-.2-.36.02-.97.1-2.41z"/><path d="m152.05 246.12c-.11.82-.12 1.66-.34 2.45-1.1 4.14-1.67 9.09-7.05 9.61-4.97.48-6.28-4.06-7.98-7.59-4.59-9.54-9.15-19.1-13.61-28.7-.57-1.22-.44-2.75-.64-4.14 1.51.09 3.15-.16 4.52.34 8.63 3.15 15.94 8.26 20.86 16.1 2.21 3.52 3.41 7.68 5.07 11.55-.28.13-.55.25-.83.38z"/></g></svg>