<svg enable-background="new 0 0 400 400" viewBox="0 0 400 400" xmlns="http://www.w3.org/2000/svg"><g fill="#fafbfc"><path d="m342.2 3.2-6.3 9.2h6.1v1.2h-8.2v-.5l6.2-9.1h-5.7v-1.2h7.8v.4z"/><path d="m344 13.7v-10.9h3.1c1.6 0 3 .5 4.1 1.4 1.1 1 1.6 2.2 1.6 3.9s-.5 3-1.6 4-2.5 1.5-4.2 1.5h-3zm1.4-9.6v8.4h1.6c1.4 0 2.5-.4 3.2-1.1.8-.8 1.2-1.8 1.2-3.2s-.4-2.4-1.2-3.1-1.8-1-3.1-1z"/><path d="m356.3 2.8v10.9h-1.4v-10.9z"/><path d="m366.6 13.2c-.8.4-1.8.6-3 .6-1.6 0-2.8-.5-3.7-1.5s-1.4-2.3-1.4-3.9c0-1.7.5-3.2 1.6-4.2s2.4-1.6 4-1.6c1 0 1.9.1 2.6.4v1.5c-.8-.4-1.6-.6-2.6-.6-1.2 0-2.2.4-3 1.2s-1.1 1.9-1.1 3.3c0 1.3.4 2.3 1.1 3.1s1.6 1.1 2.8 1.1c1.1 0 2-.2 2.8-.7v1.3z"/><path d="m368.2 13c0-.3.1-.5.3-.6.2-.2.4-.3.6-.3.3 0 .5.1.7.3s.3.4.3.6-.1.5-.3.6c-.2.2-.4.3-.7.3s-.5-.1-.6-.3c-.2-.2-.3-.4-.3-.6z"/><path d="m381.1 13.7h-1.7l-5.5-8.4c-.2-.2-.3-.5-.4-.7 0 .2.1.8.1 1.5v7.6h-1.4v-10.9h1.8l5.3 8.3c.3.4.4.6.4.8 0-.3-.1-.8-.1-1.6v-7.5h1.4v10.9z"/><path d="m389.7 13.7h-5.8v-10.9h5.6v1.2h-4.2v3.5h3.9v1.2h-3.9v3.7h4.4z"/><path d="m398.4 4.1h-3.1v9.6h-1.4v-9.6h-3.1v-1.3h7.7v1.3z"/></g><path d="m268 219.38c0-19.55-.21-38.68.06-57.81.29-20.95 1.47-41.91 1.37-62.85-.07-14.36.26-28.92-6.08-42.57-2.63-5.66.71-8.98 6.86-7.95 8.37 1.4 15.84 4.79 22.8 9.49 4.48 3.03 4.75 5.85 3.28 10.99-2.21 7.76-4.52 15.74-4.94 23.72-1.26 24.25-1.61 48.55-2.36 72.83-.49 15.95-1.04 31.9-1.54 47.86-.03.8.13 1.61.27 3.17 7.22-1.39 14.17-2.63 21.07-4.08 6.49-1.36 12.91-3.14 19.43-4.34 2.65-.48 5.84-.68 8.18.35 6.06 2.66 11.99 5.78 17.54 9.38 1.73 1.12 2.78 4.39 2.72 6.63-.03 1-3.52 2.57-5.55 2.75-21.01 1.86-42.05 3.48-63.47 5.2-.16 1.96-.39 3.74-.44 5.53-.4 14.97-.86 29.94-1.12 44.91-.41 24.3-1.77 48.5-7.1 72.3-.79 3.52-2.27 6.93-3.81 10.21-.61 1.29-2.27 2.08-3.44 3.09-.96-1.23-2.58-2.37-2.77-3.72-.88-6.24-1.78-12.52-1.9-18.8-.51-24.96-.85-49.93-1.01-74.9-.06-10.14.5-20.28.76-30.43.04-1.63.01-3.26.01-5.56-10.41 1.66-20.22 3.06-29.96 4.83-14.51 2.64-28.9 6.04-43.49 8.12-7.92 1.13-15.93-.81-22.7-5.68-1.29-.93-2.69-3.23-2.36-4.44.33-1.2 2.69-2.35 4.3-2.61 29.95-4.82 59.92-9.51 89.88-14.24 1.45-.21 2.85-.69 5.51-1.38z" fill="#010102"/><path d="m77.46 160.47c7.33-.92 14.68-1.76 22-2.78 5.26-.74 10.46-2.13 15.74-2.47 4.05-.26 6.25-2.04 8.15-5.35 6.65-11.63 15.04-22.39 16.86-36.32.48-3.66 3.26-5.1 6.67-3.02 7.32 4.46 12.61 10.79 15.66 18.8.45 1.17-.15 3.37-1.07 4.34-11.97 12.69-24.31 25.03-36.09 37.88-12.37 13.49-24.26 27.43-36.34 41.19-1.07 1.22-1.99 2.58-3.69 4.8 2.12.28 3.51.9 4.6.55 14.34-4.59 28.63-9.31 43.58-14.21-2.07-5.31-4.07-10.15-5.8-15.09-.5-1.43-.87-4.04-.19-4.51 1.22-.85 3.58-1.14 4.93-.52 6.48 2.98 12.88 6.16 19.12 9.61 9.32 5.16 11.63 19.17 9.2 25.88-1.2 3.32-4.47 6.93-7.66 8.12-2.05.77-6.23-2.05-8.43-4.27-3.09-3.12-5.22-7.19-8.02-11.22-20.88 8.82-43.17 14.28-62.53 26.71-3.18 2.05-5.98 1.93-8.36-1.02-2.89-3.6-5.9-7.16-8.22-11.11-.7-1.2.09-4.64 1.24-5.35 14.27-8.82 25.3-21 35.71-33.84 5.22-6.44 10.25-13.02 16.33-20.77-7.32 1.5-13.32 2.74-19.33 3.95-9.78 1.97-19.48 4.03-28.06 9.67-1.09.72-4.64-.17-5.29-1.31-2.78-4.86-5.16-10.01-7.05-15.28-.44-1.22 1.19-4.07 2.61-4.91 8.01-4.72 14.55-10.87 20.33-18.15 13.93-17.55 23.85-37.16 30.85-58.3 1.33-4.02 1.37-8.48 1.9-12.75.62-5 2.75-6.46 7.43-4.49 7.81 3.3 13.8 8.76 17.18 16.55.76 1.76.28 5.53-1.02 6.49-10.88 8.05-17.19 19.83-25.21 30.16-8.47 10.9-16.5 22.14-24.59 33.33-1.66 2.3-2.73 5.02-4.07 7.55.3.48.61.97.93 1.46z" fill="#010102"/><path d="m241.3 184.88c-1.23 2.71-2.74 7.84-5.66 11.99-3.05 4.35-6.41 4.5-10.12.71-6.14-6.28-11.83-13.01-17.4-19.81-4.94-6.04-9.52-12.39-14.09-18.73-.86-1.19-.89-2.97-1.31-4.48 1.64-.27 3.46-1.13 4.89-.7 10.46 3.09 20.9 6.28 31.24 9.75 8.88 2.98 11.52 10.29 12.45 21.27z" fill="#010102"/><path d="m82.16 300.75c.06 8.89-3.25 15.86-7.45 17.07-3.68 1.06-10.51-3.56-13.51-10.23-5.51-12.25-10.55-24.71-15.57-37.17-.66-1.63-.07-3.75-.05-5.65 1.88.02 3.95-.5 5.59.13 14.93 5.69 27.32 13.99 30.39 31.25.34 1.95.52 3.94.6 4.6z" fill="#010102"/><path d="m245.01 122.18c-.04.35-.06 1.02-.21 1.66-1.15 4.77-1.31 10.36-7.07 12.19-5.63 1.79-9.26-2.36-12.24-5.93-7.46-8.91-14.46-18.21-21.46-27.49-.83-1.1-1.04-3.25-.56-4.55.27-.73 2.72-1.27 3.91-.93 9.38 2.65 18.9 5.02 27.98 8.52 6.86 2.65 9.23 9.12 9.65 16.53z" fill="#010102"/><path d="m122.58 276.13c-1.95 4.05-3.55 8.33-5.97 12.09-1.79 2.77-4.92 2.64-7.5.62-1.95-1.53-4.07-3.15-5.32-5.21-5.75-9.52-11.28-19.18-16.72-28.87-.6-1.06-.61-2.99-.01-3.99.42-.7 2.6-1.06 3.54-.61 8.33 3.96 16.78 7.74 24.72 12.4 4.48 2.63 6.3 7.61 5.94 13.05.44.17.88.35 1.32.52z" fill="#010102"/><path d="m159.54 261.68c-.19 1.24.01 3.66-.98 5.42-1.45 2.58-3.46 6.1-5.78 6.58-2.35.49-6.08-1.6-7.93-3.68-3.14-3.55-5.5-7.86-7.8-12.07-3.26-5.96-6.26-12.07-9.16-18.21-.62-1.32-.36-3.06-.5-4.6 1.55-.13 3.33-.82 4.62-.3 6.28 2.55 12.63 5.05 18.57 8.29 6.78 3.7 9.13 10.19 8.96 18.57z" fill="#010102"/></svg>