<svg enable-background="new 0 0 400 400" viewBox="0 0 400 400" xmlns="http://www.w3.org/2000/svg"><path d="m342.2 3.2-6.3 9.2h6.1v1.2h-8.2v-.5l6.2-9.1h-5.7v-1.2h7.8v.4z" fill="#fafbfc"/><path d="m344 13.7v-10.9h3.1c1.6 0 3 .5 4.1 1.4 1.1 1 1.6 2.2 1.6 3.9s-.5 3-1.6 4-2.5 1.5-4.2 1.5h-3zm1.4-9.6v8.4h1.6c1.4 0 2.5-.4 3.2-1.1.8-.8 1.2-1.8 1.2-3.2s-.4-2.4-1.2-3.1-1.8-1-3.1-1z" fill="#fafbfc"/><path d="m356.3 2.8v10.9h-1.4v-10.9z" fill="#fafbfc"/><path d="m366.6 13.2c-.8.4-1.8.6-3 .6-1.6 0-2.8-.5-3.7-1.5s-1.4-2.3-1.4-3.9c0-1.7.5-3.2 1.6-4.2s2.4-1.6 4-1.6c1 0 1.9.1 2.6.4v1.5c-.8-.4-1.6-.6-2.6-.6-1.2 0-2.2.4-3 1.2s-1.1 1.9-1.1 3.3c0 1.3.4 2.3 1.1 3.1s1.6 1.1 2.8 1.1c1.1 0 2-.2 2.8-.7v1.3z" fill="#fafbfc"/><path d="m368.2 13c0-.3.1-.5.3-.6.2-.2.4-.3.6-.3.3 0 .5.1.7.3s.3.4.3.6-.1.5-.3.6c-.2.2-.4.3-.7.3s-.5-.1-.6-.3c-.2-.2-.3-.4-.3-.6z" fill="#fafbfc"/><path d="m381.1 13.7h-1.7l-5.5-8.4c-.2-.2-.3-.5-.4-.7 0 .2.1.8.1 1.5v7.6h-1.4v-10.9h1.8l5.3 8.3c.3.4.4.6.4.8 0-.3-.1-.8-.1-1.6v-7.5h1.4v10.9z" fill="#fafbfc"/><path d="m389.7 13.7h-5.8v-10.9h5.6v1.2h-4.2v3.5h3.9v1.2h-3.9v3.7h4.4z" fill="#fafbfc"/><path d="m398.4 4.1h-3.1v9.6h-1.4v-9.6h-3.1v-1.3h7.7v1.3z" fill="#fafbfc"/><g fill="#010102"><path d="m255.68 305.53c9.79 4.74 19.59 9.97 29.77 14.31 19 8.1 39 12.96 59.17 17.2 2.93.62 5.55 2.66 8.31 4.05-2.47 1.35-4.84 2.98-7.44 4-15.18 5.96-31.25 7.29-47.26 9.07-11.85 1.32-21.55-3.04-29.82-11.01-8.74-8.42-17.22-17.1-25.56-25.41-8.34 4.61-16.24 9.51-24.58 13.48-19.26 9.15-39.84 13.54-60.94 15.66-1.37.14-2.86-.95-4.29-1.46 1.11-1.2 1.99-3.01 3.36-3.49 13.43-4.79 27.02-9.11 40.39-14.05 13-4.8 23.52-13.57 34.61-22.9-14.13-15.45-28.06-30.83-42.22-46.01-2.2-2.36-5.41-3.8-8.18-5.63-1.66-1.1-3.64-1.87-4.97-3.27-1.28-1.35-3.04-3.88-2.54-4.88.76-1.53 3.19-2.88 5.06-3.11 7.74-.94 15.56-1.18 23.3-2.14 22.37-2.79 44.98-4.11 66.78-10.52 1.4-.41 3.21-.95 4.37-.42 7.32 3.32 14.66 6.66 21.68 10.56 3.52 1.95 3.32 5.41.18 7.82-7.77 5.97-12.28 14.26-17.12 22.45-6.84 11.57-14.12 22.89-22.06 35.7zm-15.33-9.97c12.22-13.91 18.42-28.51 23.11-43.82 1.27-4.15-1.21-5.94-6.25-5.39-9.08.99-18.2 1.67-27.25 2.85-9.63 1.25-19.21 2.92-29.91 4.58 13.82 14.31 26.81 27.78 40.3 41.78z"/><path d="m85.94 228.53c16.23-5.25 31.67-12.63 47.7-18.7-2.64-6.94-5.11-13.46-7.59-19.97.54-.41 1.09-.81 1.63-1.22 10.5 2.4 20.27 6.42 26.84 15.69 4.81 6.79 5.81 14.31 1.68 22.04-3.16 5.9-8.6 6.23-12.45.58-1.95-2.85-3.72-5.82-5.99-9.4-18.33 8.94-36.38 17.69-54.37 26.59-2.51 1.24-4.75 3.07-6.98 4.8-5.04 3.94-6.38 4.07-11.13-.14-1.97-1.75-3.71-3.85-5.2-6.02-4.86-7.08-4.47-9.69 2.25-14.83 13.02-9.96 22.44-23.14 32.33-35.9 3.75-4.84 7.39-9.76 11.72-15.48-13.54 1.9-25.43 5.49-36.91 10.58-6.36 2.82-7.8 2.41-11.05-3.67-1.87-3.5-3.79-7.14-4.62-10.95-.44-2.04.66-5.68 2.28-6.71 21.46-13.69 32.37-35.27 42.95-57.01 4.84-9.95 9.53-20.04 10.49-31.45.48-5.7 3.57-7.04 8.68-4.35 6.61 3.48 13.54 6.86 16.6 14.38.66 1.63.7 4.4-.26 5.68-14.4 19.13-29.03 38.1-43.57 57.13-2.83 3.7-5.66 7.41-8.19 11.32-.77 1.19-1.18 3.48-.53 4.46.65.99 2.88 1.5 4.31 1.33 8.74-1 17.45-2.18 26.15-3.48 1.29-.19 2.85-1.06 3.6-2.11 9.2-12.93 17.93-26.09 19.66-42.5.42-3.99 3.21-4.88 5.99-2.85 6.64 4.84 12.23 10.81 14.82 18.83.47 1.44-.59 3.91-1.73 5.24-6.25 7.32-13.04 14.19-19.08 21.66-16.43 20.32-32.59 40.86-48.83 61.33-.86 1.09-1.46 2.38-2.18 3.58.32.5.65 1.01.98 1.52z"/><path d="m164.01 164.58c17.51 3.93 34.25 1.5 50.78-.82 23.46-3.29 46.86-7.27 70.05-12.07 8.07-1.67 15.09-1.23 22.06 2.25 5.61 2.8 10.97 6.17 16.27 9.54 2.29 1.45 3.59 3.86 1.29 6.31-10.12 10.8-13.27 25.11-19.26 37.98-1.61 3.45-2.91 7.1-4.95 10.28-3.83 5.97-9.68 5.47-12.35-1.14-1.45-3.58-3.58-4.02-6.89-3.73-26.64 2.33-53.3 4.55-79.95 6.79-3.64.31-7.29.54-10.94.77-2.4.15-4.13.57-5.2 3.42-1.21 3.2-4.42 2.73-5.92.39-2.17-3.4-4.07-7.25-4.92-11.16-1.83-8.43-2.32-17.18-4.54-25.48-1.49-5.57-4.99-10.61-7.64-15.85-.91-1.8-1.99-3.51-3-5.27 1.87-.81 3.74-1.62 5.11-2.21zm86.54 38.1c14.27-.05 26.59-6.13 40.21.48 2.12-10.17 4.53-19.59 5.91-29.16.85-5.92-2.22-9.12-7.49-8.7-9.5.76-18.95 2.06-29.28 3.24 1.48 1.3 2.3 2 3.1 2.73 2.47 2.28 2.39 4.27.54 7.33-4.5 7.42-8.3 15.25-12.99 24.08zm-35.9 3.89c-.64-3.99-1.18-7.58-1.79-11.17-.63-3.76-1.22-7.54-1.99-11.27-1.93-9.39-4.5-11.07-13.93-9.57-2.78.44-5.69.26-8.39.96-1.31.34-3.2 2.06-3.23 3.19-.25 10.25-.15 20.51-.15 31.03 10.6-1.14 19.79-2.13 29.48-3.17zm31.95-36.79c-9.57.93-17.27 1.69-24.96 2.44 5.18 2.99 4.74 6.97 4.14 11.62-.93 7.15-1.01 14.4-1.48 22.2 6.53-.8 12.35-1.52 18.89-2.32 1.1-11.1 2.2-22 3.41-33.94z"/><path d="m198.27 88.2c1.51 15.81 3.14 30.99 4.3 46.21.32 4.19-.43 8.55-1.34 12.69-.34 1.57-2.35 3.5-3.9 3.84-1.08.24-3.32-1.7-3.94-3.13-1.77-4.07-3.73-8.3-4.26-12.63-1.44-11.87-1.54-23.94-3.49-35.71-.96-5.75-4.9-11-7.4-16.52-.77-1.71-1.24-3.55-1.85-5.33 1.96-.57 4.16-2.02 5.85-1.57 18.99 5.01 37.19-.61 55.55-3.81 12.6-2.2 25.12-4.8 37.7-7.14 1.25-.23 2.84-.27 3.88.31 6.68 3.67 13.35 7.37 19.79 11.43 2.2 1.39 4.11 3.79 1.96 6.76-7.86 10.85-9.3 24-13.12 36.3-1.96 6.32-3.98 12.68-6.75 18.66-1.83 3.93-4.53 8.27-10.12 7.13-3.94-.8-5.19-5.18-4.07-11.97 2.4-14.57 4.82-29.14 7.11-43.73 1.18-7.52-2.19-11.38-9.72-10.49-18.3 2.16-36.56 4.68-54.83 7.08-3.61.47-7.2 1.03-11.35 1.62z"/><path d="m79.53 300.99c-.5 2.75-.66 5.61-1.56 8.23-1.87 5.45-6.67 6.58-10.89 2.71-1.45-1.33-3-2.82-3.8-4.56-5.03-10.96-9.91-21.98-14.67-33.06-.57-1.32-.06-3.11-.06-4.68 1.69.1 3.59-.26 5.04.38 4.23 1.87 8.45 3.87 12.38 6.3 9.07 5.62 13.4 13.95 13.56 24.68z"/><path d="m119.59 283.32c-.57 6.5-3.27 11.96-6.81 12.81-3.88.93-8.14-1.95-11.23-8.23-4.1-8.34-7.83-16.85-11.81-25.25-1.45-3.05-.91-5.67 2.67-4.48 9.15 3.04 18.2 6.78 23.64 15.47 1.79 2.85 2.4 6.43 3.54 9.68z"/><path d="m154.42 263.81c-.05 9.39-2.28 14.73-5.72 14.98-5.32.38-8.4-3.47-10.7-7.54-4.31-7.62-8.32-15.41-12.26-23.23-.62-1.24-.19-3.02-.24-4.54 1.42-.01 2.99-.42 4.23.05 5.07 1.96 10.19 3.91 15.01 6.41 6.61 3.43 9.53 9.34 9.68 13.87z"/><path d="m223.15 114.24c-3.18-.98-6.85-1.97-10.4-3.29-.86-.32-1.9-1.71-1.85-2.54.05-.78 1.34-1.9 2.27-2.12 10.13-2.44 20.21-5.38 30.49-6.77 4.15-.56 8.97 1.9 13.09 3.83 2.44 1.14 2.23 3.95-.84 4.59-10.69 2.23-21.45 4.15-32.76 6.3z"/><path d="m221.98 141.67c-3.05-1.07-6.5-2.17-9.83-3.54-.9-.37-1.47-1.55-2.19-2.36.82-.68 1.54-1.76 2.47-1.97 10.16-2.36 20.27-5.13 30.56-6.57 4.06-.57 8.58 1.76 12.79 3.1.94.3 1.64 1.9 2.02 3.04.11.32-1.24 1.53-2.04 1.69-11.03 2.23-22.09 4.34-33.78 6.61z"/></g></svg>