<svg enable-background="new 0 0 400 400" viewBox="0 0 400 400" xmlns="http://www.w3.org/2000/svg"><g fill="#fafbfc"><path d="m342.2 3.2-6.3 9.2h6.1v1.2h-8.2v-.5l6.2-9.1h-5.7v-1.2h7.8v.4z"/><path d="m344 13.7v-10.9h3.1c1.6 0 3 .5 4.1 1.4 1.1 1 1.6 2.2 1.6 3.9s-.5 3-1.6 4-2.5 1.5-4.2 1.5h-3zm1.4-9.6v8.4h1.6c1.4 0 2.5-.4 3.2-1.1.8-.8 1.2-1.8 1.2-3.2s-.4-2.4-1.2-3.1-1.8-1-3.1-1z"/><path d="m356.3 2.8v10.9h-1.4v-10.9z"/><path d="m366.6 13.2c-.8.4-1.8.6-3 .6-1.6 0-2.8-.5-3.7-1.5s-1.4-2.3-1.4-3.9c0-1.7.5-3.2 1.6-4.2s2.4-1.6 4-1.6c1 0 1.9.1 2.6.4v1.5c-.8-.4-1.6-.6-2.6-.6-1.2 0-2.2.4-3 1.2s-1.1 1.9-1.1 3.3c0 1.3.4 2.3 1.1 3.1s1.6 1.1 2.8 1.1c1.1 0 2-.2 2.8-.7v1.3z"/><path d="m368.2 13c0-.3.1-.5.3-.6.2-.2.4-.3.6-.3.3 0 .5.1.7.3s.3.4.3.6-.1.5-.3.6c-.2.2-.4.3-.7.3s-.5-.1-.6-.3c-.2-.2-.3-.4-.3-.6z"/><path d="m381.1 13.7h-1.7l-5.5-8.4c-.2-.2-.3-.5-.4-.7 0 .2.1.8.1 1.5v7.6h-1.4v-10.9h1.8l5.3 8.3c.3.4.4.6.4.8 0-.3-.1-.8-.1-1.6v-7.5h1.4v10.9z"/><path d="m389.7 13.7h-5.8v-10.9h5.6v1.2h-4.2v3.5h3.9v1.2h-3.9v3.7h4.4z"/><path d="m398.4 4.1h-3.1v9.6h-1.4v-9.6h-3.1v-1.3h7.7v1.3z"/></g><path d="m197.07 283.14c0 21.44.14 42.05-.08 62.65-.07 6.86-1.52 13.6-6.22 19.03-3.53 4.08-5.75 4.31-8.76-.01-5.76-8.28-9.77-16.72-6.6-27.79 2.8-9.79 3.31-20.26 4.43-30.48.52-4.69.09-9.48.09-15.15-34.15 29.08-72.48 48.18-116.36 55.13-.38-.62-.77-1.24-1.15-1.86 1.9-1.29 3.66-2.92 5.74-3.81 21.71-9.3 43.31-18.76 63.14-31.85 15.48-10.22 29.48-22.15 43.83-36.19-4.48.5-7.63.82-10.77 1.2-18.14 2.17-36.28 4.28-54.4 6.56-8.36 1.05-21.99-5.07-24.98-12.01 1.68-.55 3.3-1.45 4.96-1.55 22.73-1.46 45.46-2.77 68.19-4.23 6.63-.43 13.26-1.02 19.83-1.96 1.33-.19 3.22-2.16 3.42-3.51.49-3.42.16-6.96.16-11.37-3.38.34-6.88.83-10.41 1.03-7.97.47-15.95.66-23.9 1.32-1.97.16-4.26 1.29-5.65 2.71-2.92 3-6.25 3.41-7.93-.44-2.22-5.07-3.57-10.6-4.64-16.07-1.71-8.8-2.73-17.73-4.34-26.56-1.24-6.79-3.94-12.97-8.61-18.27-1.09-1.24-1.8-3.73-1.3-5.15.34-.96 3.23-1.75 4.77-1.46 28.2 5.16 55.89-.77 83.64-4.04 11.97-1.41 23.73-4.57 35.62-6.78 2.08-.39 4.61-.75 6.39.07 8.56 3.94 17.19 7.86 25.29 12.64 4.96 2.92 4.7 4.59.8 9.06-7.12 8.17-9.58 18.46-13.14 28.27-2.26 6.25-4.12 12.68-6.88 18.7-3.77 8.23-8.66 8.59-14.78 1.91-1.16-1.27-3.3-2.46-4.9-2.35-10.28.69-20.53 1.74-30.79 2.71-.81.08-1.6.39-2.7.68-.4 4.77-.8 9.53-1.25 14.97 10.94-.53 21.35-.73 31.72-1.6 14.23-1.19 28.4-3.13 42.63-4.26 10.03-.8 18.27 4.11 25.89 9.97 1.13.86 2.18 2.99 1.88 4.17-.25.97-2.55 1.95-3.98 2-9.8.39-19.61.57-29.41.76-14.62.27-29.25.44-43.87.76-6.11.13-12.21.55-18.74 1.9 5.15 3.74 10.35 7.41 15.45 11.22 26.98 20.17 56.37 35.83 88.26 46.7 9.41 3.21 19.07 5.7 28.55 8.73 1.47.47 2.59 2.02 3.87 3.08-1.46.87-2.84 2.32-4.39 2.53-13.82 1.84-27.64 3.81-41.52 5-8.39.72-15.65-2.63-22.32-8.06-23.1-18.83-46.48-37.3-69.77-55.9-1.02-.82-2.15-1.49-4.01-2.75zm3.54-76.66c.98 0 1.95.1 2.89-.02 9.34-1.19 18.65-3.15 28.02-3.43 10.73-.32 10.62.31 11.19-10.54.21-3.91-1.13-5.73-5.01-5.48-5.13.33-10.27.65-15.39 1.14-9.44.9-18.87 1.93-29.06 2.97 8.65 5.58 8.65 5.58 7.36 15.36zm-59.08 6.23c13.38-1.27 26.31-2.49 40.51-3.83-1.74-5.34-3.11-9.85-4.76-14.25-.28-.75-1.79-1.52-2.69-1.47-11.7.59-23.4 1.33-35.29 2.04.76 5.97 1.45 11.36 2.23 17.51zm1.64 25.5c13.17-1.41 25.9-2.77 38.41-4.11 0-5.42 0-10.16 0-15.28-13.3.89-26.16 1.74-39.55 2.63.38 5.58.72 10.67 1.14 16.76zm56.3-6.44c12.27-1.6 24.49-3.2 37.31-4.87 1.01-4.31 2.18-9.28 3.44-14.65-3.21.37-5.34.61-7.48.86-9.55 1.09-19.12 2.05-28.63 3.41-1.67.24-4.21 1.97-4.42 3.31-.61 3.84-.22 7.85-.22 11.94z" fill="#010102"/><path d="m104.33 58.18c6.72.81 13.52 2.68 20.16 2.23 25.53-1.72 51.04-3.84 76.48-6.49 20.28-2.11 40.42-5.47 60.68-7.79 12.7-1.46 22.89 4.26 31.32 13.3.8.86.76 4-.02 4.6-10.69 8.17-13.05 20.85-17.96 32.17-1.95 4.49-4.24 9.08-7.39 12.75-4.41 5.12-8.41 4.42-12.61-.75-.87-1.07-2.72-1.97-4.08-1.92-19.6.74-39.2 1.51-58.78 2.58-17.92.99-35.82 2.27-53.71 3.65-2.57.2-5.57 1.05-7.46 2.67-4.97 4.25-9.24 3.96-11.7-2.34-2.7-6.92-4.27-14.29-6.37-21.44-1.78-6.04-3.29-12.19-5.55-18.05-1.27-3.3-3.9-6.06-5.76-9.17-.94-1.58-1.52-3.37-2.26-5.07 1.63-.62 3.26-1.24 4.89-1.87.04.31.08.62.12.94zm150.41 39.44c2.75-9.27 6.12-19.66 8.87-30.21 1.67-6.42-.17-8.41-6.56-8.19-5.14.18-10.27.69-15.4 1.08-6.64.5-13.28 1.02-20.98 1.6 2.92 2.08 4.81 3.38 6.66 4.75 2.39 1.78 2.08 3.34.37 5.8-5.32 7.69-10.2 15.68-15.13 23.36 14.16.61 27.45 1.18 42.17 1.81zm-128.74-28.83c1.45 8.67 2.67 16.34 4.03 23.99.6 3.42.4 8 2.5 9.83 1.91 1.67 6.45.51 9.82.28 8.88-.61 17.74-1.38 27.83-2.19-3.72-10.42-7.04-20.11-10.68-29.67-1.13-2.97-3.53-4.39-7.16-3.97-5.6.66-11.26.73-16.9 1.07-2.94.19-5.87.41-9.44.66zm53.51 31.33c8.04-.57 14.66-.97 21.27-1.59 1.07-.1 2.71-1.04 2.97-1.92 3.15-10.83 5.22-21.83 4.68-33.53-12.48.77-24.41 1.5-37.57 2.3 1.84 1.1 2.48 1.69 3.23 1.89 5.69 1.48 6.36 4.94 5.65 10.45-.92 7.14-.23 14.48-.23 22.4z" fill="#010102"/><path d="m201.53 124.71c-7.02 6.55-13.59 12.7-19.95 18.63 5.93 5.05 11.27 9.24 16.16 13.89 4.49 4.27 5.51 11.15 3.05 16.04-2.23 4.41-6.22 5.04-8.95 1.06-6.27-9.14-11.41-19.13-20.73-25.87-.87-.63-1.28-3.55-.63-4.36 6.95-8.58 10.06-18.55 11.25-29.3.05-.47.31-.92.46-1.35 6.23-.73 16.75 5.66 19.34 11.26z" fill="#010102"/><path d="m136.46 114.21c5.06 2.91 10.47 5.42 15.14 8.9 3.97 2.96 3.06 4.93-.79 8.02-5.79 4.65-11.08 9.93-16.83 15.16 5.21 3.83 9.97 7.08 14.44 10.69 6.79 5.48 8.46 13.23 4.59 19.93-2.16 3.74-4.36 4.01-7.45.9-.58-.59-1.17-1.23-1.53-1.96-4.79-9.65-11.24-17.96-19.61-24.81-.92-.75-1.53-3.43-.94-4.24 6.6-9.13 9.95-19.4 11.51-30.4.07-.42.52-.79 1.47-2.19z" fill="#010102"/><path d="m233.21 141.82c5.51 3.34 9.77 5.89 13.99 8.49 5.29 3.26 7.39 10.01 4.92 15.62-1.98 4.49-4.37 5.1-7.77 1.67-6.88-6.95-13.72-13.94-20.31-21.17-.95-1.04-.99-3.79-.33-5.23 1.53-3.28 4.26-6.04 5.6-9.37 2.25-5.61 4.13-11.42 5.5-17.3.67-2.85 1.6-4.83 4.35-3.57 4.92 2.24 9.73 4.87 14.15 7.97 2.08 1.46 3.15 3.95-.21 6.47-6.57 4.94-12.73 10.46-19.89 16.42z" fill="#010102"/></svg>