<svg enable-background="new 0 0 400 400" viewBox="0 0 400 400" xmlns="http://www.w3.org/2000/svg"><path d="m377.9 391.2c-.2.3-.4.5-.6.8-.7-.6-1.4-1-2.2-1.5.2-.3.4-.5.5-.8.6.4 1.4.8 2.3 1.5zm-1.8 6.1c-.2-.2-.5-.4-.9-.6.4-.6.8-1.2 1.2-1.9s.7-1.3.9-1.9c.3.3.5.5.8.7-.7 1.3-1.4 2.6-2 3.7zm2.2-9c-.3.3-.5.5-.6.8-.6-.6-1.3-1.1-2-1.5.3-.3.5-.5.6-.7.6.5 1.3.9 2 1.4zm.3.2v-.9h2 4.5c-.3 1.3-.6 2.5-1 3.6s-.9 2.1-1.4 3c.4.5 1 1 1.6 1.4s1.2.8 1.9 1.1c-.3.2-.5.4-.8.8-.4-.3-1-.7-1.6-1.2s-1.2-1.1-1.6-1.6c-.5.6-1.1 1.1-1.7 1.6s-1.4.9-2.1 1.4c-.1-.3-.3-.5-.7-.8.6-.2 1.2-.5 1.9-1s1.4-1.1 2-1.8c-.5-.8-.9-1.6-1.2-2.5s-.6-2-.8-3.2c-.4.1-.7.1-1 .1zm2.5 2.7c.3 1 .7 1.7 1 2.2.3-.5.6-1.1 1-2s.6-1.9.9-3h-3.2-.4c.1.9.3 1.8.7 2.8z" fill="#fbfafc"/><path d="m396.5 388.5v1.5 3.6h1.5v.9c-.4 0-1 0-1.7 0h-7.9c-.5 0-.9 0-1.2 0v-.9h1.3v-3.5c0-.7 0-1.2 0-1.6h2.4c0-.8 0-1.4 0-1.7h1c0 .3-.1.8-.1 1.7h1.5c0-.8 0-1.4 0-1.7h1c0 .3-.1.9-.1 1.7zm-8.2 9.2c-.2-.3-.5-.5-.8-.8.8-.3 1.4-.6 1.9-.9s1-.7 1.4-1.1c.3.3.6.5.9.8-1.6 1-2.8 1.6-3.4 2zm2.6-6.8v-1.6h-1.5v1.6zm0 2.7v-1.9h-1.5v1.9zm2.4-2.7v-1.6h-1.5v1.6zm0 2.7v-1.9h-1.5v1.9zm.2 2 .7-.8c.4.2.9.5 1.6.8s1.3.7 1.8 1c-.3.3-.5.5-.8.8-.4-.3-1.5-1-3.3-1.8zm2-4.7v-1.6h-1.4v1.6zm0 2.7v-1.9h-1.4v1.9z" fill="#fbfafc"/><g fill="#010103"><path d="m78.2 347.6c1.43-1.38 2.73-2.92 4.31-4.1 14.53-10.8 27.88-22.69 36.97-38.71 7.91-13.94 11.8-29.15 14.37-44.78.86-5.23 1.33-10.54 1.71-15.83.46-6.35-1-12.05-5.41-17.06-1.63-1.86-1.89-4.92-2.78-7.43 2.94-.4 6.02-1.57 8.79-1.05 5.03.94 9.82 3.11 14.81 4.32 2.45.59 5.35.84 7.69.1 18.66-5.85 37.26-11.88 55.81-18.07 5.35-1.78 10.04-1.59 14.44 2.19 3.65 3.14 7.61 5.95 11.11 9.24 2.88 2.71 3.9 6.6.46 9.18-10.09 7.55-13.14 18.6-15.28 29.9-2.68 14.15-5.04 28.4-6.62 42.7-1.94 17.56 6.34 27.95 23.82 30.64 14.99 2.31 30.05 3.25 45.11.03 10.27-2.2 16.97-8.29 19.78-18.27 2.74-9.72 4.84-19.63 7.4-29.41.4-1.54 1.75-2.84 2.65-4.25.9 1.6 2.3 3.12 2.62 4.83.9 4.89 1.43 9.85 1.97 14.8 1.03 9.42 4.92 17.45 11.22 24.5 4.48 5.01 4.37 6.89.13 12.11-6.88 8.46-16.49 12.18-26.62 14.59-19.26 4.57-38.73 5.8-58.35 2.58-6.38-1.05-12.88-1.75-19.05-3.56-18.73-5.5-28.87-19.66-29.31-39.21-.47-20.92 3.18-41.36 6.47-61.86.71-4.42 1.09-8.89 1.57-13.34.35-3.2-1.13-4.73-4.35-4.4-7.6.77-15.2 1.47-22.78 2.38-6.1.73-12.15 1.81-18.25 2.6-6.88.9-6.58.88-7.5 8.06-1.41 11.01-2.57 22.13-5.1 32.91-8.76 37.37-32.06 61.82-68.02 74.54-.87.31-1.84.33-2.77.49-.34-.42-.68-.89-1.02-1.36z"/><path d="m181.19 173.19c-7.11-12.44-13.98-24.48-21.03-36.83 1.69-.8 2.41-1.44 3.1-1.42 10.07.31 19.88 1.97 28.39 7.73 7.62 5.15 9.5 14.44 5.02 22.48-1.19 2.14-2.49 4.23-4.32 7.31 8.3-1.02 15.62-1.74 22.88-2.86 15.56-2.41 31.07-5.11 46.64-7.47 2.36-.36 4.99.13 7.34.79 8.85 2.46 17.49 5.52 24.16 12.25 4.11 4.14 3.2 7.01-2.59 8.03-3.05.54-6.24.39-9.36.39-2.16-.01-4.31-.4-6.47-.45-11.81-.27-23.62-.57-35.43-.69-34.18-.35-68.04 2.99-101.58 9.44-11.06 2.13-21.89 5.5-32.97 7.47-11.51 2.05-20.94-3.37-29.49-10.39-.91-.75-1.61-3.43-1.15-3.85 1.19-1.1 3.05-1.93 4.7-2.02 9.13-.5 18.32-.3 27.4-1.19 14.87-1.45 29.67-3.6 44.51-5.37 7.91-.95 15.85-1.74 23.77-2.6 2.29-.27 4.58-.54 6.48-.75z"/><path d="m229.06 101.03c-5.76 1.41-10.31 2.21-14.64 3.68-4.64 1.57-8.65 1.09-12.65-1.7-3.57-2.49-7.37-4.66-11.07-6.98.09-.5.18-1 .28-1.49 4.27-.83 8.52-1.81 12.81-2.45 8.03-1.19 16.09-2.29 24.16-3.19 3.25-.36 4.99-1.54 5.56-4.97.86-5.23 2.9-10.32 3.25-15.55.4-5.99-.42-12.08-.85-18.11-.15-2.13-.97-4.23-.98-6.35-.02-3.3 2.35-5.12 5.23-4.62 9.1 1.59 17.7 4.41 24.15 11.73 3.1 3.52 3.22 6.66.9 10.79-4.01 7.14-7.39 14.63-11.04 21.98.39.36.78.72 1.17 1.08 7.42-1.44 14.79-3.2 22.26-4.24 10.84-1.51 20.11 2.9 28.68 8.94 2.76 1.94 2.3 4.44-.61 5.84-2.01.96-4.39 1.44-6.63 1.55-15.43.78-30.86 1.51-46.3 2.02-3.07.1-4.71 1.29-6.3 3.77-7.62 11.87-15.45 23.61-23.16 35.42-1.25 1.92-2.25 4-3.37 6-1-.66-1.99-1.31-2.99-1.97.28-2.07.27-4.23.89-6.2 3.5-11.23 7.17-22.4 11.25-34.98z"/><path d="m127.85 106.99c-10.99 4.92-21.69 9.24-31.94 14.47-8.19 4.18-10.49 4.96-17.44-.93-5-4.24-9.18-9.5-13.37-14.6-.99-1.21-1.23-3.94-.53-5.34.53-1.06 3.34-1.91 4.7-1.48 18.84 5.98 36.7-2.25 55.92-3.01-4.11-12.1-6.98-23.75-14.02-33.84-1.42-2.04-1.68-4.9-2.47-7.38 2.55-.74 5.23-2.38 7.63-2.04 6.69.94 13.33 2.48 19.87 4.22 4.53 1.21 6.41 4.34 6.16 9.4-.44 8.92-.12 17.87-.12 27.56 7.98-1.38 14.75-2.57 21.54-3.69 1.79-.3 3.72-.76 5.42-.39 1.68.36 3.16 1.68 4.72 2.57-1.19 1.39-2.12 3.54-3.61 4.05-7.69 2.62-15.52 4.82-23.3 7.18-.78.24-1.54.52-2.66.9.76 8.43 1.51 16.82 2.26 25.22.1 1.16.6 2.4.31 3.44-.65 2.34-1.68 4.58-2.56 6.86-2.31-1.53-5.75-2.55-6.72-4.69-2.8-6.16-4.62-12.76-6.8-19.2-.89-2.62-1.7-5.28-2.99-9.28z"/></g></svg>