<svg enable-background="new 0 0 400 400" viewBox="0 0 400 400" xmlns="http://www.w3.org/2000/svg"><path d="m377.9 391.2c-.2.3-.4.5-.6.8-.7-.6-1.4-1-2.2-1.5.2-.3.4-.5.5-.8.6.4 1.4.8 2.3 1.5zm-1.8 6.1c-.2-.2-.5-.4-.9-.6.4-.6.8-1.2 1.2-1.9s.7-1.3.9-1.9c.3.3.5.5.8.7-.7 1.3-1.4 2.6-2 3.7zm2.2-9c-.3.3-.5.5-.6.8-.6-.6-1.3-1.1-2-1.5.3-.3.5-.5.6-.7.6.5 1.3.9 2 1.4zm.3.2v-.9h2 4.5c-.3 1.3-.6 2.5-1 3.6s-.9 2.1-1.4 3c.4.5 1 1 1.6 1.4s1.2.8 1.9 1.1c-.3.2-.5.4-.8.8-.4-.3-1-.7-1.6-1.2s-1.2-1.1-1.6-1.6c-.5.6-1.1 1.1-1.7 1.6s-1.4.9-2.1 1.4c-.1-.3-.3-.5-.7-.8.6-.2 1.2-.5 1.9-1s1.4-1.1 2-1.8c-.5-.8-.9-1.6-1.2-2.5s-.6-2-.8-3.2c-.4.1-.7.1-1 .1zm2.5 2.7c.3 1 .7 1.7 1 2.2.3-.5.6-1.1 1-2s.6-1.9.9-3h-3.2-.4c.1.9.3 1.8.7 2.8z" fill="#fbfafc"/><path d="m396.5 388.5v1.5 3.6h1.5v.9c-.4 0-1 0-1.7 0h-7.9c-.5 0-.9 0-1.2 0v-.9h1.3v-3.5c0-.7 0-1.2 0-1.6h2.4c0-.8 0-1.4 0-1.7h1c0 .3-.1.8-.1 1.7h1.5c0-.8 0-1.4 0-1.7h1c0 .3-.1.9-.1 1.7zm-8.2 9.2c-.2-.3-.5-.5-.8-.8.8-.3 1.4-.6 1.9-.9s1-.7 1.4-1.1c.3.3.6.5.9.8-1.6 1-2.8 1.6-3.4 2zm2.6-6.8v-1.6h-1.5v1.6zm0 2.7v-1.9h-1.5v1.9zm2.4-2.7v-1.6h-1.5v1.6zm0 2.7v-1.9h-1.5v1.9zm.2 2 .7-.8c.4.2.9.5 1.6.8s1.3.7 1.8 1c-.3.3-.5.5-.8.8-.4-.3-1.5-1-3.3-1.8zm2-4.7v-1.6h-1.4v1.6zm0 2.7v-1.9h-1.4v1.9z" fill="#fbfafc"/><g fill="#010103"><path d="m298.59 210.8c.06.61.01.88.09.93 8.42 4.67 7.14 10.77 3.45 18.08-1.77 3.5-1.82 8.08-1.87 12.19-.24 16.83-.08 33.66-.28 50.5-.26 22.11-.44 44.25-5.93 65.88-.89 3.52-2.04 7.01-3.54 10.31-.64 1.4-2.69 3.29-3.73 3.08-1.38-.27-3.09-2.22-3.45-3.73-1.1-4.66-2.21-9.45-2.29-14.21-.54-36.3-.73-72.61-1.28-108.92-.13-8.6-1.19-17.2-1.95-25.78-.13-1.42-.88-2.79-1.32-4.1-13.7 1.25-26.15 8.58-40.41 6.01-1.03 7.64-1.9 14.86-2.99 22.04-4.06 26.87-11.29 52.65-26.58 75.55-6.65 9.97-15.29 17.96-25.6 24.11-.79.47-1.71.74-3.8 1.62 1.11-2.63 1.46-4.41 2.46-5.7 20.72-26.94 29.81-58.49 34.77-91.24 2.92-19.32 3.66-39.03 4.38-58.6.37-10.03-.65-20.26-6.51-29.28-2.34-3.6-.4-6.92 3.94-6.43 6.17.69 12.3 2.22 18.25 4.06 2.53.78 4.34 1.3 6.84-.06 18.3-9.95 36.58-19.87 50.92-35.49 2.53-2.76 5.71-3.65 8.95-1.4 5.86 4.07 11.79 8.09 17.23 12.68 3.86 3.26 2.43 6.5-3.17 8.38-15.71 5.27-31.41 10.59-47.14 15.81-7.53 2.5-15.17 4.68-22.65 7.34-1.55.55-3.4 2.43-3.7 3.97-1.73 8.91-3.22 17.87-4.39 26.87-.51 3.89-.09 7.9-.09 12.82 18.15-3.27 35.75-6.33 53.3-9.66 11.57-2.2 23.01-5.16 34.61-7.13 10.78-1.83 20.31 2.1 28.81 8.51 1.2.91 2.46 3.59 1.96 4.48-.77 1.38-2.98 2.57-4.67 2.7-15.58 1.2-31.19 2.15-46.78 3.2-1.98.12-3.91.4-5.84.61z"/><path d="m122.93 262.19c-16.03 4.25-31.26 7.65-46.04 12.44-10.59 3.44-19.51 1.77-28.12-4.48-.8-.58-1.59-1.22-2.27-1.95-3.04-3.23-2.39-5.79 1.98-6.53 10.31-1.73 20.7-2.97 31-4.75 14.36-2.49 28.66-5.3 43.68-8.1-.68-8.2-1.32-15.98-2.04-24.73-10.65 2.32-20.33 3.89-29.67 6.61-9.47 2.76-17.35.21-24.8-5.18-1.19-.86-1.75-2.58-2.61-3.9 1.42-.58 2.79-1.5 4.26-1.69 13.12-1.77 26.26-3.41 39.55-5.1-8.09-12.52-11.38-26.1-15.18-39.72-7.41.41-14.68.55-19.82-8.14 19.63-3.11 38.32-6.08 56.54-8.97-4.31-7.73-8.52-14.91-12.34-22.29-1.66-3.21-2.74-6.77-3.61-10.29-.24-.96 1.05-3.17 1.99-3.41 7.13-1.81 23.53 7.92 25.22 15.01 1.51 6.33 1.37 12.57-3.64 17.8.22.42.44.83.66 1.25 9.25-2.57 18.66-4.67 27.69-7.85 7.71-2.72 14.38-1.18 20.94 2.65 3.98 2.32 4.07 4.91-.14 6.74-6.35 2.76-13.01 4.79-19.93 7.27 1.83 1.34 3.85 2.68 5.7 4.22 4.25 3.53 4.16 5.74.79 9.88-6.8 8.36-13.31 16.94-20.86 26.6 6.52-1.47 11.92-2.53 17.24-3.91 9.63-2.5 21.59 1.39 27.75 9.23 2.3 2.92 1.12 5.57-3.03 6.11-4.27.56-8.58.74-12.88 1.04-13.55.93-27.1 1.83-41.38 3.3 5.62 4.47 3.16 9.17 1.88 13.97-.88 3.29-1.03 6.77-1.6 10.84 8.07-1.72 15.26-3.58 22.57-4.72 7.85-1.22 15.79-2.18 23.72-2.43 5.17-.16 10.23 1.56 13.61 6.08 2.48 3.32 1.9 5.28-2.15 5.89-8.2 1.24-16.48 1.94-24.7 3.07-11.33 1.55-22.64 3.3-34.05 4.97-.19 1.58-.46 2.71-.44 3.84.3 23.31.32 46.63 1.15 69.92.27 7.62.14 14.88-2.63 21.98-.72 1.85-1.36 3.8-2.44 5.44-3.12 4.72-6.1 4.78-9.02-.06-4.81-7.96-7.51-16.13-5.86-26 2.03-12.06 2.64-24.41 3.19-36.66.54-11.27.14-22.6.14-35.29zm27.4-95.04c-17.27 2.72-33.32 5.24-50.26 7.91 14.1 9.28 22.2 20.32 14.14 37.37 7.97-1.3 15.84-2.36 23.58-3.99 1.85-.39 4.19-2.34 4.81-4.1 2.96-8.41 5.74-16.91 7.86-25.56.89-3.61-.02-7.65-.13-11.63z"/><path d="m227.07 121.32c3.06-10.2 6.11-20.41 9.34-31.18-6.89 1.1-13.42 3.26-19.78 2.84-6.29-.41-12.32-3.56-16.46-10.39 2.33-.7 4.06-1.51 5.85-1.7 10.07-1.07 20.17-1.87 30.21-3.09 1.39-.17 3.37-1.95 3.71-3.33 2.64-10.62 5.26-21.2 3.09-32.4-1.36-7.02 2.06-9.76 8.47-6.82 6.13 2.81 11.85 6.6 17.55 10.28 3.11 2.01 3.29 4.75 1.2 8.13-3.93 6.34-7.39 12.97-11.68 20.63 8.65-1.82 16.42-2.91 23.84-5.16 10.28-3.13 19.7-2.33 28.3 4.15 1.87 1.41 2.87 3.97 4.27 6-2.2 1.25-4.3 3.33-6.62 3.61-8.57 1.03-17.21 1.47-25.83 2.14-8.94.69-17.9 1.21-26.8 2.23-1.63.19-3.46 2.1-4.46 3.68-5.57 8.84-10.77 17.91-16.42 26.7-1.32 2.06-3.86 3.34-5.83 4.98-.64-.44-1.29-.87-1.95-1.3z"/><path d="m139.97 84.26c-4.51-9.99-7.94-19.37-12.84-27.91-4.33-7.54-.9-10.37 5.59-10 6.62.39 13.24 2.79 19.53 5.18 1.79.68 3.28 4.34 3.42 6.72.43 7.55.16 15.14.16 23.23 9.47-.93 18.16-1.94 26.88-2.52 1.8-.12 4.92.95 5.33 2.18 1.16 3.43-2.19 3.81-4.49 4.47-7.49 2.15-14.97 4.35-22.53 6.21-2.89.71-3.51 1.73-3.2 4.76.77 7.43 1.07 14.92 1.11 22.38.01 1.74-1.5 4.67-2.75 4.94-1.53.32-4.49-1.16-5.16-2.62-2.11-4.64-3.51-9.61-5.04-14.49-1.08-3.46-1.94-6.98-3.17-11.46-12.08 4.17-23.84 7.95-35.35 12.37-3.85 1.48-7.22 1.96-10.21-.63-4.98-4.31-9.76-8.9-14.19-13.76-1.15-1.27-.71-3.99-.99-6.05 1.8-.21 3.59-.58 5.39-.59 10.24-.09 20.5.16 30.73-.21 6.73-.23 13.45-1.32 21.78-2.2z"/><path d="m46.19 340.83c1.47-1.74 2.71-3.79 4.46-5.18 11.08-8.79 20.05-19.41 27.44-31.4 4.12-6.68 7.71-13.52 7.97-21.72.14-4.5 2.56-5.92 6.2-3.5 5.48 3.63 10.63 7.8 15.64 12.07 2.84 2.42 2.11 5.55-.33 7.89-10.31 9.87-20.45 19.95-31.22 29.29-8.22 7.12-18.05 11.62-28.85 13.65-.45-.37-.88-.74-1.31-1.1z"/><path d="m187.05 301.76c-.2 2.89-.1 7.17-4.71 8.95-4.46 1.72-8.07-.55-10.4-3.91-5.94-8.56-11.84-17.2-16.93-26.26-3.05-5.42-1.28-7.77 4.81-6.45 15.99 3.47 27.44 11.11 27.23 27.67z"/></g></svg>