<svg enable-background="new 0 0 400 400" viewBox="0 0 400 400" xmlns="http://www.w3.org/2000/svg"><g fill="#010100"><path d="m137.88 352.29c1.56-4.27 2.96-8.61 4.7-12.81 15.17-36.64 23.26-75.09 28.2-114.17 3.39-26.83 5.13-53.89 7.1-80.88.76-10.39.14-20.88.1-31.32-.02-5.28-1.66-9.6-6.71-12.34-1.88-1.02-3.13-3.2-5.5-5.74 3.17-.89 5.25-1.75 7.41-2.04 22.03-3 44.13-5.58 66.1-8.95 21.64-3.32 43.17-7.35 64.72-11.21 6.95-1.24 13.83-4.92 20.92-1.84 6.48 2.82 12.68 6.38 18.72 10.07 1.46.89 2.76 3.84 2.36 5.39-.33 1.28-3.21 2.55-5.06 2.69-7.45.58-14.95.5-22.4 1.07-20.53 1.59-41.1 2.98-61.56 5.24-18.8 2.07-37.49 5.16-56.23 7.82-.46.06-.88.35-1.9.76 4.22 3.15 2.98 6.95 2.41 11.11-2.04 14.79-3.97 29.62-5.11 44.5-3.46 45.27-8.77 90.19-23.15 133.53-6.68 20.14-15.55 39.24-28.85 55.99-1.33 1.67-3.22 2.9-4.85 4.33-.47-.39-.94-.8-1.42-1.2z"/><path d="m237.07 328.91c10.94-1.22 20.09-2.25 29.86-3.34 0-8.17.12-16.27-.03-24.37-.25-13.98-.27-27.98-1.2-41.92-.33-4.92-3.18-9.63-4.52-14.53-.6-2.2-1.17-5.15-.17-6.8.75-1.25 4.21-1.72 6.13-1.24 6.21 1.55 12.41 3.35 18.35 5.73 4.06 1.62 4.66 4.93 3.57 9.47-2.06 8.63-3.07 17.52-4.75 27.72 11.2-3.32 21.03-6.01 30.72-9.16 7.37-2.4 14.56-3.29 21.6.59 2.67 1.47 5 3.56 7.36 6.27-18.64 8.85-38.42 10.43-58.92 11.22-.51 11.52-1.02 23.07-1.56 35.44 5.59-.51 11-.75 16.32-1.52 11.33-1.65 22.57-4.09 33.94-5.26 11.83-1.22 22.02 4.02 31.39 10.59 1.58 1.11 2.99 4.81 2.29 6.25-.92 1.89-3.97 3.76-6.17 3.85-10.31.41-20.64.31-30.96.2-32.48-.36-64.87.72-96.98 6.03-6.7 1.11-13.33 2.63-19.94 4.2-6.39 1.51-12.5 1.2-18.47-1.63-4.05-1.92-8.32-3.46-12.14-5.75-1.69-1.02-2.53-3.47-3.75-5.27 1.81-.93 3.56-2.53 5.43-2.67 11.27-.87 22.56-1.54 33.85-1.98 3.54-.14 4.38-1.08 4.08-4.74-.58-6.95-.39-13.97-.42-20.96-.05-10.88-.82-21.54-6.23-31.43-2.17-3.97-1.01-5.85 3.6-6.31 7.79-.79 14.82 1.54 20.66 6.7 1.16 1.03 1.62 3.52 1.48 5.26-1.32 16-2.84 31.99-4.42 49.36z"/><path d="m274.11 160.58c9.29-1.71 17.35-3.34 25.48-4.61 3.16-.49 4.96-1.47 4.44-4.97-.77-5.26-1.47-10.52-2.19-15.78-9.68 2.92-18.04 5.45-26.4 7.97-.4-.48-.81-.95-1.21-1.43 1.31-1.36 2.43-2.99 3.96-4.05 7.51-5.21 15.44-9.87 22.6-15.51 5.44-4.28 10.15-9.56 14.79-14.75 2.54-2.84 4.75-3.38 7.61-1.05 3.98 3.25 8.24 6.24 11.73 9.95 3.8 4.03 2.82 6.54-2.5 8.04-6.97 1.97-13.98 3.83-21.67 6.5 11.34 2.83 13.21 10.06 10.05 20.23 9.92-6.93 18.36-1.42 26.94 1.57 1.7.59 3.1 2.05 5.94 4.01-12.27 5.85-24.52 5.36-36.59 9.05 0 4.91-.18 10.18.15 15.43.07 1.07 1.86 2.46 3.15 2.95 7.29 2.75 14.76 5.05 22 7.92 7.17 2.84 13.92 6.5 17.93 13.59.97 1.72 2.43 3.64 2.32 5.38-.19 2.92-.61 6.81-2.51 8.34-1.87 1.5-6.48 1.8-8.53.49-6.55-4.16-12.66-9.1-18.59-14.15-5.24-4.47-10.02-9.49-15.28-14.54 0 10.26.06 19.83-.02 29.4-.07 8.67-.6 17.29-5.16 25.02-2.7 4.57-4.62 4.64-7.59.33-4.26-6.18-5.2-12.87-4.02-20.33 1.78-11.26 2.82-22.63 3.24-34.31-10.84 16.49-23.86 29.88-41.53 38.07-.37-.34-.75-.69-1.12-1.03 7.03-9.15 14.7-17.89 20.9-27.58 6.21-9.71 10.95-20.36 16.73-31.34-9.48-.84-19.08 2.03-25.05-8.81z"/><path d="m132.02 311.25c1.96 1.18 3.71 1.9 5.01 3.12 1.21 1.14 1.94 2.79 2.88 4.22-1.56.81-3.05 2.14-4.68 2.34-7.25.89-14.56 1.26-21.81 2.2-8.55 1.11-17.07 2.49-25.54 4.09-1.3.25-2.63 2.17-3.29 3.61-2.49 5.46-5.94 6.45-8.97 1.41-2.88-4.79-4.36-10.6-5.6-16.16-2.12-9.55-3.3-19.3-5.38-28.86-1.58-7.28-3.54-14.56-10.23-19.34-1.02-.73-1.62-2.99-1.31-4.28.21-.87 2.29-1.5 3.63-1.84 1.08-.27 2.34-.11 3.47.13 16.49 3.45 31.68-2.32 47-6.79 5.23-1.53 10.11-4.2 15.27-6 2.42-.84 5.6-1.89 7.62-1 7.07 3.11 13.91 6.81 20.58 10.72 2.8 1.64 2.9 3.98.52 7.03-3.44 4.39-6.65 9.23-8.67 14.38-3.92 10.02-6.95 20.38-10.5 31.02zm-51.36-38.57c1.71 14.12 3.37 27.85 5.08 41.94 8.79-1.7 16.88-3.44 25.03-4.79 4.64-.76 7.63-2.27 7.34-7.75-.14-2.74.97-5.53 1.38-8.32 1.18-7.87 2.35-15.75 3.42-23.64.46-3.39-1.13-5.24-4.6-4.6-12.36 2.27-24.7 4.68-37.65 7.16z"/><path d="m194.39 234.86c14.78-16.9 27.61-34.9 36.39-56.63-10.9 2.39-21.16 4.11-29.91-3.11-.03-.71-.06-1.43-.09-2.14 4.36-1.01 8.73-1.98 13.08-3.03 6.29-1.52 12.6-2.97 18.81-4.74 1.17-.33 2.82-2.13 2.75-3.14-.4-5.9-1.25-11.76-2-18.1-8.11 3.04-15.42 5.78-22.73 8.53-.38-.5-.76-1-1.15-1.49 1-1.08 1.88-2.32 3.03-3.21 10.09-7.82 20.4-15.38 30.26-23.49 3.1-2.55 5.35-6.33 7.38-9.9 1.79-3.15 4.21-4.17 6.83-2.33 4.86 3.4 9.69 7.03 13.74 11.32 3.08 3.25.96 6.5-3.49 7.79-8.34 2.42-16.54 5.35-25.25 8.99 13.58 2.97 9.54 11.39 6.25 19.34 9.66-1.35 17.23.71 24.39 6.64-7.55 6.87-17.19 4.68-25.6 8.04 0 3.42-.24 7.07.14 10.65.12 1.13 1.76 2.5 3.01 3.02 4.12 1.71 8.55 2.74 12.56 4.66 5.39 2.57 7.17 9.85 4.11 15.02-2.19 3.7-5.5 4.27-8.48 1.06-2.47-2.66-4.46-5.78-6.71-8.66-1.17-1.49-2.47-2.89-4.63-5.4 0 11.6.45 21.72-.16 31.77-.39 6.36-2.23 12.65-3.77 18.88-.37 1.49-2.34 3.8-3.24 3.66-1.62-.26-3.63-1.79-4.35-3.32-4.24-9.06-4.68-18.42-2.22-28.17 1.56-6.19 2.12-12.64 2.44-19.34-10.39 16.4-23.29 29.53-41.39 36.83z"/><path d="m119.41 127.44c-14.82-12.58-18.68-30.4-25.72-46.47-.64-1.46-.21-3.4-.27-5.11 1.7-.04 3.72-.7 5.05-.01 8.22 4.26 16.89 8 24.25 13.46 11.56 8.59 13.16 20.1 6.07 32.68-.61 1.09-1.16 2.22-2.03 3.89 6.51-1.22 12.36-2.19 18.15-3.44 8.3-1.79 15.85.14 22.79 4.57 1.54.98 2.3 3.19 3.42 4.83-1.63 1.11-3.15 2.93-4.92 3.22-11.3 1.84-22.78 2.71-33.95 5.1-22.47 4.8-44.83 10.17-67.12 15.72-7.49 1.87-25.41-2.48-30.26-8.55-.81-1.02-1.45-3.1-.95-4.01.64-1.15 2.46-2.06 3.89-2.29 13.61-2.13 27.28-3.92 40.87-6.16 13.35-2.22 26.64-4.84 40.73-7.43z"/><path d="m83.12 193.1c-5.09-2.16-10.24-4.21-15.23-6.56-.9-.42-1.2-2.11-1.77-3.21.98-.49 1.91-1.18 2.94-1.45 14.93-3.79 30.01-7.07 44.76-11.45 8.39-2.49 15.67-.41 23.12 2.45 1.21.46 2.98 2.21 2.8 2.95-.33 1.37-1.7 2.95-3.03 3.5-2.57 1.07-5.4 1.5-8.14 2.17-13.36 3.29-26.72 6.59-40.09 9.86-1.6.39-3.25.57-4.87.85-.16.3-.32.59-.49.89z"/><path d="m83.85 233.27c-5.07-2.21-10.19-4.32-15.16-6.73-.93-.45-1.89-2.2-1.72-3.15.14-.79 1.84-1.63 2.97-1.88 15.84-3.53 31.67-7.12 47.56-10.37 7.31-1.5 14.14 1.12 20.73 3.95 1.08.46 2.49 2.97 2.22 3.31-1.16 1.45-2.74 3.04-4.45 3.49-5.43 1.43-11 2.37-16.51 3.51-10.06 2.09-20.11 4.21-30.18 6.25-1.62.33-3.29.37-4.94.54-.17.36-.35.72-.52 1.08z"/></g><path d="m374.8 390.4.4-.4c.7.5 1.3 1 1.8 1.4l-.5.5c-.5-.6-1.1-1.1-1.7-1.5zm1 7.3-.6-.3c.5-1.4 1.1-2.8 1.5-4.3.2.1.4.2.6.3-.5 1.3-1 2.8-1.5 4.3zm-.4-10.3.4-.4c.4.3 1 .8 1.7 1.4l-.5.5c-.4-.5-1-1-1.6-1.5zm2.5.3h1.7v-1h.6v1h3.5v-1h.6v1h1.8v.5h-1.8v1.4h-2v1h3.2v2h-3.2v.9h3.3v.5h-3.4c0 .3-.1.6-.1.9h4v.5h-3.7c.7.9 1.9 1.5 3.8 1.7-.1.2-.2.4-.3.6-2.1-.4-3.5-1.1-4-2.1-.4 1-1.8 1.7-4 2.2-.1-.2-.2-.4-.3-.6 2.1-.4 3.4-1 3.8-1.8h-3.4v-.5h3.6c.1-.3.1-.6.2-.9h-3.3v-.5h3.4c0-.3 0-.6 0-.9h-3.2v-2h3.3v-1h-2.1v-1.4h-1.7v-.5zm1.1 3.5v1h2.7c0-.3 0-.4 0-.4 0-.1 0-.2 0-.2 0-.1 0-.2 0-.3h-2.7zm1.2-3v.9h3.5v-.9zm4.7 3h-2.6v.6.4h2.6z" fill="#fafafb"/><path d="m393.6 386.7h.6v1.5h2.7v6.1h1.1v.6h-11v-.6h1.1v-6.1h2.7v-1.5h.6v1.5h2.1v-1.5zm-2.7 8.8.4.6c-1.2.6-2.5 1.3-3.8 1.9-.1-.2-.2-.4-.3-.6 1.2-.6 2.5-1.2 3.7-1.9zm-2.2-6.7v2.4h2.1v-2.4zm0 3v2.5h2.1v-2.5zm2.8-3v2.4h2.1v-2.4zm0 3v2.5h2.1v-2.5zm6 6.1c-1.4-.7-2.7-1.3-3.9-1.8l.3-.6c1.5.6 2.7 1.2 3.9 1.7zm-1.2-9.1h-2.1v2.4h2.1zm-2.1 3v2.5h2.1v-2.5z" fill="#fafafb"/></svg>