<svg enable-background="new 0 0 400 400" viewBox="0 0 400 400" xmlns="http://www.w3.org/2000/svg"><g fill="#010100"><path d="m265.35 123.77c8.2-2.47 16.27-4.92 24.35-7.34 7.69-2.3 15.37-2.56 22.97.33 1.54.59 3.23 1.19 4.37 2.29 1.33 1.28 3.13 3.29 2.9 4.66-.29 1.7-2.21 3.98-3.87 4.45-7.97 2.27-16.05 4.16-24.15 5.9-8.53 1.83-17.14 3.32-26.25 5.07 6.51 33.12 10.81 65.99 23.35 98.19 7.43-20.52 11.67-40.03 6.5-60.57-1.9-7.55.59-10.33 8.11-8.35 5.4 1.42 10.73 3.46 15.67 6.03 1.7.88 3.4 4.52 2.94 6.35-4.41 17.68-8.99 35.33-14.16 52.8-2.1 7.1-5.85 13.71-8.66 20.62-.61 1.5-1.14 3.71-.49 4.96 7.86 15.14 17.23 29.33 29.93 40.83 10.52 9.52 13.94 8.35 18.34-5.11 2.73-8.36 5.05-16.84 7.69-25.23.65-2.06 1.84-3.96 2.78-5.93.67.04 1.33.09 2 .13.78 3.57 1.93 7.11 2.29 10.73 2.13 21.15 4.07 42.32 6.07 63.49.16 1.66.38 3.33.3 4.98-.26 5.51-3.94 8.55-9.07 6.67-5.42-1.99-10.71-4.58-15.62-7.63-23.81-14.78-39.57-36.63-52.69-60.74-1.41-2.59-2.72-5.22-4.02-7.72-12.2 14.25-24.81 27.33-41.72 35.08-.5-.5-1-1.01-1.51-1.51 1.95-2.53 3.97-5.01 5.84-7.59 9.56-13.18 19.19-26.31 28.49-39.67 1.11-1.6 1.11-4.78.36-6.75-12.45-32.55-20.76-66.12-25.61-100.6-.42-2.96-.91-5.91-1.42-8.85-.08-.45-.46-.85-.87-1.6-14.86 2.88-29.77 5.76-44.28 8.57-1.71 12.03-3.45 24.31-5.45 38.41 8.33-2.87 15.55-4.99 22.48-7.85 7.99-3.29 15.94-4.88 24.14-1.43 2.09.88 3.66 2.98 5.47 4.53-1.86 1.61-3.46 4.06-5.61 4.69-11.6 3.42-23.28 6.63-35.06 9.36-3.9.9-8.18.14-12.73.14-1.87 9.44-3.87 19.47-5.9 29.7 6.59 3.13 13.11 5.81 20.65 2.52 7.1-3.11 14.48-5.59 21.58-8.7 3.82-1.68 7.28-2.06 10.87.21 3.94 2.49 7.87 4.99 11.81 7.48 5.33 3.38 6.04 6.07 1.68 10.72-6.04 6.44-8.71 14.34-11.41 22.39-1.08 3.21-.93 5.1 2.41 6.73 1.67.81 2.69 2.97 4 4.52-1.94.96-3.79 2.45-5.83 2.81-10.78 1.87-21.61 3.46-32.43 5.13-2.42.37-4.84.72-7.43 1.1-.68 3.34-1.45 7.11-2.39 11.73-6.92-4.6-9.18-10.35-10.23-17.2-1.65-10.8-3.86-21.52-5.88-32.27-.21-1.11-.76-2.16-1.41-3.94-2.34 5.8-4.28 11.04-6.54 16.14-7.78 17.5-17.58 33.64-32.13 46.45-2.36 2.08-4.44 5.24-9.26 3.15 3.63-6.17 6.97-12.24 10.67-18.08 17.59-27.76 27.49-58.14 30.66-90.72 1.29-13.22 2.21-26.49 2.59-39.76.11-3.87-1.64-8.11-3.54-11.64-2.99-5.53-1.61-8.47 4.76-9.25 15.31-1.87 30.61-3.88 45.89-6.03 4.09-.57 8.05-2.14 12.14-2.66 3.8-.49 4.55-2.36 4.16-5.72-1.56-13.7-3.55-27.39-4.3-41.14-.69-12.57-6.78-21.88-14.85-30.63-1.44-1.56-2.75-4.89-2.02-6.38.95-1.96 3.95-4.02 6.13-4.09 10.93-.34 20.56 3.57 28.47 11.07 3.76 3.56 4.22 8.3 3.31 13.42-3.33 18.81-3.18 37.73-1.21 56.67.02.32.32.58.88 1.48zm-59.3 117.03c.8 10.71 1.59 21.31 2.43 32.58 8.12-2.13 15.47-3.97 22.75-6.05 1.02-.29 2.18-1.61 2.47-2.68 1.71-6.38 3.32-12.79 4.7-19.25 1.71-8-.78-10.37-8.98-8.88-7.5 1.36-14.97 2.74-23.37 4.28z"/><path d="m98.23 269.82c-13.4 3.61-26.14 6.67-38.63 10.52-9.18 2.83-15.96-1.29-22.33-6.47-3.57-2.91.17-4.29 2.39-4.79 6.94-1.58 14-2.64 20.95-4.17 11.67-2.57 23.32-5.26 34.91-8.18 1.36-.34 3.2-2.41 3.26-3.74.31-7.81.15-15.63.15-24.4-5.91 1.76-11.32 3.37-16.41 4.89-1.12 2.27-2.16 4.38-3.2 6.49-2.27-1.81-4.98-3.26-6.72-5.48-5.58-7.11-5.83-16.05-7.68-24.42-3.33-15.11-7.42-29.94-14.4-43.86-.89-1.78-.84-4.03-1.22-6.06 2.18-.35 4.63-1.53 6.51-.92 15.49 5.03 29.14-2.82 43.27-5.21 0-8.53 0-16.45 0-25.07-7.92 1.88-15.3 3.09-22.31 5.41-10.26 3.39-17.6-1.05-26.03-8.6 3.85-1.16 6.58-2.23 9.4-2.79 11.39-2.26 22.8-4.45 34.24-6.47 3.55-.63 4.41-2.4 4.28-5.79-.41-10.8.1-21.68-1-32.4-.57-5.53-3.89-10.76-5.75-16.2-.75-2.19-2.07-5.68-1.14-6.63 1.85-1.9 5.29-3.72 7.71-3.33 8.63 1.39 15.75 6.35 21.66 12.47 1.57 1.63.69 5.94.43 8.97-1.08 12.29-2.35 24.57-3.62 37.57 6.84-1.73 12.47-3.02 18.02-4.6 8.77-2.49 16.4.45 23.61 4.92 1.25.78 2.48 3.18 2.17 4.44-.32 1.29-2.44 2.75-3.98 3.03-10.27 1.86-20.6 3.43-30.91 5.09-2.76.44-5.52.89-8.86 1.43v23.87c6.92-1.91 14.08-3.29 20.75-5.88 6.74-2.62 12.66-2.07 18.47 1.76 4.57 3.01 9.13 6.06 13.52 9.33 2.42 1.8 3.31 4.58 1.1 6.95-9.12 9.75-10.32 22.3-12.78 34.49-1.74 8.61-3.92 17.13-6.1 25.64-.61 2.38-1.71 4.71-2.96 6.84-2.74 4.64-6.66 5.69-9.53 1.37-6.88-10.35-15.45-6.22-24.24-4.45v25.98c6.29-1.76 12.46-2.94 18.18-5.23 8.96-3.59 16.98-1.19 24.76 2.91 1.85.97 2.79 3.67 4.15 5.58-1.79 1.22-3.43 3.14-5.38 3.55-12.01 2.5-24.09 4.65-36.14 6.95-1.78.34-3.52.86-5.79 1.42 0 2.83-.05 5.62.01 8.41.38 17.8.72 35.6 1.19 53.4.23 8.44-2.45 16.03-6.37 23.27-2.36 4.36-4.13 4.49-7.45.67-5.45-6.27-7.03-13.88-6.68-21.87.82-18.6 1.91-37.19 2.85-55.79.06-1.26-.17-2.57-.33-4.82zm17.96-89.03c4.98-1.05 9.3-2.31 13.69-2.77 4.37-.46 8.82-.1 13.67-.1.6-3.61 1.57-7.8 1.95-12.05.49-5.48-3.49-10.69-8.22-10.29-6.23.52-12.4 1.81-18.54 3.06-1.01.2-2.39 1.89-2.43 2.94-.24 6.28-.12 12.57-.12 19.21zm-41.55 11.53c8.45-2.36 16.1-4.39 23.64-6.75 1.1-.34 2.43-2.29 2.42-3.49-.04-6.21-.48-12.42-.8-19.18-9.96 3.14-19.24 6.05-29.17 9.18 1.29 6.71 2.54 13.14 3.91 20.24zm39.88 20.43c6.97.3 13.06.68 19.16.72 1 .01 2.62-1.35 2.9-2.37 2.1-7.64 3.93-15.36 6.05-23.89-8.84 1.49-16.2 2.67-23.53 4.04-1.08.2-2.76 1.26-2.85 2.07-.78 6.75-1.25 13.55-1.73 19.43zm-32.79 11.38c5.2-1.36 9.99-2.55 14.73-3.93.92-.27 2.3-1.31 2.3-2 .03-7.36-.17-14.73-.33-22.9-8.17 1.76-14.86 3.2-21.92 4.72 1.66 7.66 3.36 15.53 5.22 24.11z"/><path d="m287.92 72.58c13.38 2.33 25.83 4.42 36.76 11.37 6.55 4.16 8.75 10.87 9.13 17.94.36 6.57-5.3 9.57-11.05 5.74-8.84-5.89-17.23-12.45-25.67-18.92-3.82-2.93-7.42-6.18-10.87-9.55-1.15-1.13-2.36-3.31-1.99-4.55.33-1.11 2.79-1.58 3.69-2.03z"/></g><path d="m374.8 390.4.4-.4c.7.5 1.3 1 1.8 1.4l-.5.5c-.5-.6-1.1-1.1-1.7-1.5zm1 7.3-.6-.3c.5-1.4 1.1-2.8 1.5-4.3.2.1.4.2.6.3-.5 1.3-1 2.8-1.5 4.3zm-.4-10.3.4-.4c.4.3 1 .8 1.7 1.4l-.5.5c-.4-.5-1-1-1.6-1.5zm2.5.3h1.7v-1h.6v1h3.5v-1h.6v1h1.8v.5h-1.8v1.4h-2v1h3.2v2h-3.2v.9h3.3v.5h-3.4c0 .3-.1.6-.1.9h4v.5h-3.7c.7.9 1.9 1.5 3.8 1.7-.1.2-.2.4-.3.6-2.1-.4-3.5-1.1-4-2.1-.4 1-1.8 1.7-4 2.2-.1-.2-.2-.4-.3-.6 2.1-.4 3.4-1 3.8-1.8h-3.4v-.5h3.6c.1-.3.1-.6.2-.9h-3.3v-.5h3.4c0-.3 0-.6 0-.9h-3.2v-2h3.3v-1h-2.1v-1.4h-1.7v-.5zm1.1 3.5v1h2.7c0-.3 0-.4 0-.4 0-.1 0-.2 0-.2 0-.1 0-.2 0-.3h-2.7zm1.2-3v.9h3.5v-.9zm4.7 3h-2.6v.6.4h2.6z" fill="#fafafb"/><path d="m393.6 386.7h.6v1.5h2.7v6.1h1.1v.6h-11v-.6h1.1v-6.1h2.7v-1.5h.6v1.5h2.1v-1.5zm-2.7 8.8.4.6c-1.2.6-2.5 1.3-3.8 1.9-.1-.2-.2-.4-.3-.6 1.2-.6 2.5-1.2 3.7-1.9zm-2.2-6.7v2.4h2.1v-2.4zm0 3v2.5h2.1v-2.5zm2.8-3v2.4h2.1v-2.4zm0 3v2.5h2.1v-2.5zm6 6.1c-1.4-.7-2.7-1.3-3.9-1.8l.3-.6c1.5.6 2.7 1.2 3.9 1.7zm-1.2-9.1h-2.1v2.4h2.1zm-2.1 3v2.5h2.1v-2.5z" fill="#fafafb"/></svg>