<svg enable-background="new 0 0 400 400" viewBox="0 0 400 400" xmlns="http://www.w3.org/2000/svg"><path d="m377.9 391.2c-.2.3-.4.5-.6.8-.7-.6-1.4-1-2.2-1.5.2-.3.4-.5.5-.8.6.4 1.4.8 2.3 1.5zm-1.8 6.1c-.2-.2-.5-.4-.9-.6.4-.6.8-1.2 1.2-1.9s.7-1.3.9-1.9c.3.3.5.5.8.7-.7 1.3-1.4 2.6-2 3.7zm2.2-9c-.3.3-.5.5-.6.8-.6-.6-1.3-1.1-2-1.5.3-.3.5-.5.6-.7.6.5 1.3.9 2 1.4zm.3.2v-.9h2 4.5c-.3 1.3-.6 2.5-1 3.6s-.9 2.1-1.4 3c.4.5 1 1 1.6 1.4s1.2.8 1.9 1.1c-.3.2-.5.4-.8.8-.4-.3-1-.7-1.6-1.2s-1.2-1.1-1.6-1.6c-.5.6-1.1 1.1-1.7 1.6s-1.4.9-2.1 1.4c-.1-.3-.3-.5-.7-.8.6-.2 1.2-.5 1.9-1s1.4-1.1 2-1.8c-.5-.8-.9-1.6-1.2-2.5s-.6-2-.8-3.2c-.4.1-.7.1-1 .1zm2.5 2.7c.3 1 .7 1.7 1 2.2.3-.5.6-1.1 1-2s.6-1.9.9-3h-3.2-.4c.1.9.3 1.8.7 2.8z" fill="#fbfafc"/><path d="m396.5 388.5v1.5 3.6h1.5v.9c-.4 0-1 0-1.7 0h-7.9c-.5 0-.9 0-1.2 0v-.9h1.3v-3.5c0-.7 0-1.2 0-1.6h2.4c0-.8 0-1.4 0-1.7h1c0 .3-.1.8-.1 1.7h1.5c0-.8 0-1.4 0-1.7h1c0 .3-.1.9-.1 1.7zm-8.2 9.2c-.2-.3-.5-.5-.8-.8.8-.3 1.4-.6 1.9-.9s1-.7 1.4-1.1c.3.3.6.5.9.8-1.6 1-2.8 1.6-3.4 2zm2.6-6.8v-1.6h-1.5v1.6zm0 2.7v-1.9h-1.5v1.9zm2.4-2.7v-1.6h-1.5v1.6zm0 2.7v-1.9h-1.5v1.9zm.2 2 .7-.8c.4.2.9.5 1.6.8s1.3.7 1.8 1c-.3.3-.5.5-.8.8-.4-.3-1.5-1-3.3-1.8zm2-4.7v-1.6h-1.4v1.6zm0 2.7v-1.9h-1.4v1.9z" fill="#fbfafc"/><g fill="#010103"><path d="m232.43 119.77c18.87-3.66 38.13-6 56.51-11.34 18.8-5.46 32.98 1.1 46.72 12.12 2.07 1.66 3.04 3.88 1.18 6.01-10.08 11.53-11.66 26.56-16.61 40.17-3.85 10.6-6.69 21.57-10.31 32.26-1.04 3.06-2.77 6.14-4.96 8.5-4.13 4.46-8.98 3.38-12.1-1.87-.73-1.22-2.71-2.52-4.03-2.44-19.08 1.16-38.14 2.49-57.19 4.03-1.23.1-2.28 2.24-3.44 3.41-1.78 1.79-3.58 3.56-5.37 5.33-1.72-1.82-4.54-3.41-4.98-5.5-2.31-11.02-4.26-22.13-5.87-33.27-1.68-11.67-2.68-23.43-4.29-35.11-.88-6.44-4.05-11.83-8.68-16.49-1.48-1.49-2.01-3.9-2.98-5.89 2.12-.58 4.32-1.85 6.34-1.6 4.08.5 8.09 1.72 12.08 2.82 4.5 1.23 7.77.35 10.35-4 10.33-17.35 19.53-35.08 22.31-55.48.18-1.28 2.84-3.46 3.81-3.2 9 2.37 18.08 4.78 24.6 12.2 1.74 1.98 2.77 4.16-.22 5.75-9.46 5.03-14.76 14.19-21.88 21.56-6.89 7.14-14.22 13.86-21.35 20.77.14.41.25.84.36 1.26zm67.71 34.43c1.36-7.11 2.87-13.39 3.69-19.75 1.3-10.03-1.72-12.98-11.85-12.33-.99.06-1.99.17-2.98.29-15.47 1.91-30.93 3.82-46.39 5.76-6.52.82-13.02 1.7-19.96 2.61.86 9.65 1.69 18.85 2.57 28.77 11.81-2.11 23.16-4.05 34.48-6.19 13.32-2.53 26.62-6.51 40.44.84zm-8.74 40.15c2.3-11.15 4.42-21.43 6.56-31.83-24.28 2.19-47.96 4.32-72.02 6.49.83 8.77 1.68 17.78 2.57 27.25 12.5-1.31 24.52-2.68 36.56-3.81 8.63-.81 17.4-3.87 26.33 1.9z"/><path d="m99.3 195.4c-5.6-19.54-11.08-38.3-16.29-57.14-1.39-5.04-3.64-7.77-9.29-8.29-3.77-.35-7.46-2.56-10.95-4.4-1.35-.71-2.05-2.68-3.04-4.07 1.48-.83 2.88-2.2 4.44-2.39 7.42-.91 14.89-1.31 22.31-2.23 12.15-1.51 24.26-3.27 37.07-5.02-3.57-4.66-7.1-8.39-9.59-12.71-4.23-7.34-7.9-15.01-11.56-22.66-.75-1.56-.4-3.64-.56-5.48 1.97-.02 4.25-.7 5.87.05 6.47 2.99 12.96 6.06 19.03 9.78 10.33 6.33 12.44 13.27 8.27 24.53-.39 1.06-.75 2.13-1.58 4.49 7.19-2.13 13.68-3.47 19.69-5.97 10.91-4.53 20.07.08 29.23 4.76 1.47.75 2.76 3.53 2.6 5.23-.11 1.18-2.72 2.64-4.44 3.07-7.37 1.84-14.82 3.34-22.89 5.1 4.39 2.47 8.38 4.33 11.94 6.81 8.11 5.65 7.6 6.9 2.37 15.07-8.73 13.65-16.53 27.89-24.73 41.89.37.36.75.73 1.12 1.09 7.69-1.67 15.34-3.52 23.07-4.97 8.61-1.61 16.36 1.53 23.71 5.45 1.73.92 2.56 3.54 3.81 5.37-1.92 1.07-3.74 2.82-5.76 3.11-9.04 1.27-18.19 1.79-27.21 3.18-19.02 2.93-38.05 5.85-56.93 9.52-14.95 2.91-29.64 7.21-44.56 10.3-4.11.85-8.88.31-12.95-.92-4.53-1.37-8.73-4.06-12.81-6.59-1.6-1-2.49-3.15-3.71-4.77 1.83-1.2 3.56-3.18 5.52-3.46 9.36-1.32 18.81-2.03 28.19-3.25 10.34-1.36 20.62-3.01 30.61-4.48zm-10.84-63.68c17.96 16.98 29.01 36.14 20.85 61.92 8.46-1.41 16.33-2.53 24.09-4.16 1.63-.34 3.67-2.36 4.13-4 3.22-11.3 6.33-22.64 8.98-34.09 2.09-9.03 3.51-18.23 1.72-27.56-19.82 2.62-39.34 5.2-59.77 7.89z"/><path d="m203.08 237.76c2.05-.28 4.09-.7 6.15-.81 28.54-1.5 57.02-3.99 84.89-10.36 10.14-2.32 18.98-1.93 27.68 3.23 1.78 1.06 2.9 3.24 4.32 4.9-1.77 1.22-3.42 3.22-5.33 3.52-13.59 2.14-27.22 3.97-40.85 5.81-3.6.49-7.23.68-11.67 1.08 1.39 1.23 2.11 2.1 3.02 2.63 4.07 2.37 4.37 5.57 3.06 9.81-1.68 5.44-2.67 11.08-4.26 17.99 9.95-2.11 18.47-3.39 26.67-5.79 10.04-2.93 17.9 1.09 25.43 6.58 2.8 2.04 1.72 5.51-2.24 6.46-5.94 1.43-12.03 2.38-18.1 3.2-10.34 1.39-20.71 2.51-31.76 3.83-.51 10.33-1.04 20.84-1.6 32.18 9.27-.81 18.17-1.23 26.96-2.43 13.62-1.86 27.12-5.37 40.77-6.05 10.84-.53 21.16 3.69 28.78 12.37 1.98 2.26 1.06 4.49-1.28 5.16-4.67 1.33-9.52 2.67-14.33 2.79-16.27.42-32.57-.02-48.83.48-18.1.56-36.22 1.31-54.24 2.95-10.52.96-21.11 3.01-31.2 6.08-7.34 2.23-13.75 1.59-20.22-1.39-4.35-2-8.54-4.49-12.46-7.24-1.34-.94-1.66-3.34-2.44-5.07 1.55-.62 3.06-1.69 4.64-1.8 21.04-1.46 42.1-2.72 63.14-4.26 1.33-.1 3.61-2.02 3.62-3.11.06-8.8-.31-17.6-.57-26.4-.02-.8-.21-1.59-.27-2.05-8.39 0-16.52.41-24.58-.16-4.51-.32-9.09-1.84-13.26-3.67-2.34-1.03-3.92-3.8-5.84-5.79.31-.42.61-.83.92-1.25 13.82-1.18 27.64-2.35 42.18-3.59-.23-9.89.63-19.71-5.28-28.29-.81-1.18-3.23-1.64-4.94-1.75-9.2-.61-18.48-.51-27.6-1.73-3.45-.46-6.51-3.77-9.75-5.79.2-.74.43-1.51.67-2.27z"/><path d="m93.99 334.7c-.84 4.18-1.2 7.34-2.15 10.32-.96 3-3.09 3.61-5.85 1.76-5.79-3.86-12.08-19.47-10.19-26.29 5.56-20.1 4.4-40.56 3.15-60.96-.36-5.8-2.48-11.52-4.07-17.21-1.25-4.46.92-7.7 4.95-5.97 14.82 6.36 29.02 1.37 43.28-1.73 9.22-2 18.23-4.96 27.42-7.18 2.64-.64 6.01-1.13 8.25-.04 6.68 3.23 13.07 7.11 19.36 11.08 2.47 1.56 3.94 4.08 1.75 7.23-7.34 10.55-6.37 22.54-6.26 34.52.15 17.6.28 35.24-.85 52.78-.31 4.78-4.79 9.54-8.03 13.81-2.31 3.04-4.25-.1-5.31-1.84-2.42-3.96-4.26-8.29-6.64-12.28-.68-1.14-2.5-2.39-3.7-2.3-18.39 1.32-36.75 2.83-55.11 4.3zm61.06-53.21c-6.57 2.08-13.05 4.87-19.81 6.12-13.12 2.43-25.95 8.24-39.83 4.55v31.61c7.5-.88 14.56-2.22 21.66-2.44 12.36-.38 24.63-6.9 37.98.2 0-13.81 0-26.69 0-40.04zm-59.04 1.53c10.83-3.03 21.55-5.3 31.68-9.11 7.55-2.84 14.41-2.7 21.61-.04 1.79.66 3.52 1.51 5.51 2.37 0-8.26.04-16.06-.04-23.86-.01-1.3-.45-2.61-.81-3.89-1.59-5.62-4.67-8.01-10.26-7-14.98 2.72-29.91 5.7-44.83 8.75-1.09.22-2.72 1.73-2.74 2.68-.19 9.6-.12 19.19-.12 30.1z"/></g></svg>