<svg enable-background="new 0 0 400 400" viewBox="0 0 400 400" xmlns="http://www.w3.org/2000/svg"><g fill="#010100"><path d="m259.85 283.58c2.63 1.66 5.54 3.02 7.79 5.09 1.38 1.26 2.69 3.76 2.42 5.46-1.36 8.63-3.38 17.15-4.87 25.76-.71 4.08-1 8.27-1.06 12.41-.08 5.43 2.03 9.83 7.5 11.72 3.74 1.3 7.57 2.79 11.45 3.11 15.76 1.31 31.48 1.88 47.15-1.61 15.32-3.41 22.54-13.43 24.63-28.17.63-4.44 1.19-8.9 2.01-13.31.22-1.2 1.27-2.24 1.95-3.35.99 1.08 2.59 2.02 2.86 3.25 1 4.53 1.04 9.32 2.42 13.7 2.16 6.89 4.66 13.77 7.91 20.2 1.79 3.54 1.9 5.9-.49 8.87-5.99 7.44-13.97 12.11-22.91 14.24-23.49 5.58-47.26 7.81-71.1 2.06-5.09-1.23-10.09-3.45-14.7-5.99-7.9-4.36-11.98-11.5-11.9-20.52.11-12.8.81-25.6.91-38.4.02-3.1-1.31-6.2-2.33-10.63-3.85 7.98-6.62 14.69-10.18 20.95-14.57 25.55-37.62 39.16-65.54 45.58-5.49 1.26-11.11 2.11-16.72 2.69-1.96.21-4.07-.93-6.11-1.46 1.6-1.16 3.04-2.78 4.83-3.41 18.91-6.68 37.21-14.39 52.28-28.24 11.23-10.32 20.19-22.02 24.46-37.64-7.62.77-15.12 1.44-22.59 2.39-.93.12-1.84 1.68-2.47 2.75-2.31 3.89-5.21 4.35-8.06.79-1.51-1.89-2.77-4.25-3.29-6.59-1.71-7.77-2.73-15.71-4.61-23.43-.96-3.94-3.1-7.6-4.87-11.32-.74-1.56-1.89-2.92-3.42-5.22 2.35-.32 3.72-.57 5.09-.69 12.89-1.06 25.79-2.09 38.69-3.15.66-.05 1.32-.5 1.94-.42 15.8 1.91 18.33-11.87 24.61-21.03 1.63-2.39-.05-4.24-3-3.73-3.43.59-6.77 1.79-10.21 2.23-3.87.49-7.9.99-11.7.43-2.91-.43-4.92-.21-7.12 1.73-6.52 5.73-13.3 11.13-22.14 12.88-1.29.26-2.67.04-5.09.04 12.75-14.09 28.17-25.13 30.9-44.5-.39-.4-.78-.8-1.17-1.2-8.7 6.03-17.4 12.06-26.08 18.11-.82.57-1.49 1.34-2.32 1.9-3.3 2.21-6.46 5.18-10.48 1-4.93-5.13-5.36-9.55-2.09-14.66 2.09-3.27 4.3-7.1 4.51-10.79.64-11.08.42-22.22.29-33.34-.03-2.38-1.1-4.74-1.92-7.98 2.8.29 5.1.52 6.55.67-1.51-7.62-3.09-15.31-4.55-23.01-1.04-5.46-2.36-10.67-7.16-14.34-1.05-.8-1.23-2.74-1.81-4.15 1.35-.45 2.81-1.48 4.04-1.25 12.33 2.29 23.94-2.49 35.92-3.52 7.74-.67 15.42-2.25 23.09-3.65 1.6-.29 3.6-1.17 4.41-2.43 3.6-5.59 6.96-11.35 10.12-17.2 1.02-1.88 1.17-4.24 2.03-7.59-3.9.57-6.58 1.04-9.28 1.33-4.2.44-8.46.5-12.6 1.23-2.19.39-4.76 1.34-6.18 2.92-7.79 8.64-16.39 16.06-27.43 20.24-.62.23-1.24.47-1.88.6-.27.05-.59-.17-2.14-.67 2.38-2.88 4.39-5.47 6.57-7.91 10.24-11.47 19.69-23.41 23.78-38.66.47-1.76 1.36-3.52 1.35-5.27-.03-5.07 2.52-6.27 6.67-4.52 4.55 1.92 9.02 4.1 13.29 6.56 3.16 1.82 3.1 4.2.33 6.83-2.98 2.83-5.57 6.06-8.34 9.11.33.56.65 1.13.98 1.69 6.43-2.85 13.06-5.33 19.24-8.63 7.94-4.24 21.99-1.94 27.91 5.07 2.42 2.86 2.22 5.13-1.25 6.65-12.93 5.66-19.36 18.38-29.44 27.75 6.87-1.1 13.76-2.1 20.61-3.33 4.24-.76 8.64-1.32 12.57-2.93 6.18-2.54 11.63-1.66 17.02 1.71 4.5 2.82 9.16 5.41 13.46 8.51 2.96 2.14 2.93 4.34-.17 7.21-6.66 6.17-12.76 12.96-19.19 19.6 2.38 2.19 4.04 3.73 6.71 6.19-2.63.91-4.27 1.84-5.97 2.01-24.3 2.4-48.61 4.73-72.93 7-6.62.62-13.26 1.04-19.9 1.46-5.88.37-12.21-.2-13.8 8.15 7.23 3.42-2.21 8.9 1.57 13.86 6.29-1.79 13.26-2.95 19.5-5.75 7.65-3.43 13.38-1.07 20.31 4.33-3.27 1.22-5.65 2.55-8.18 2.97-9.5 1.55-19.03 2.98-28.59 4.05-3.29.37-4.84 1.37-4.78 4.74.09 5.62.02 11.24.02 17.32 15.42-4.95 30.73-9.86 46.04-14.77.29.66.59 1.33.88 1.99-4.64 2.9-9.27 5.79-14.42 9 4.32 2.26 8.3 4.09 12.03 6.34 5.96 3.6 6.04 5.32 1.21 9.94-3.58 3.43-7.01 7.01-11.22 11.24 9.76-.22 17.65-3.29 25.25-7.21 7.35-3.8 17.91-2.08 23.67 3.98 2.81 2.96.93 4.42-1.47 6.27-9.7 7.45-19.27 15.06-28.89 22.61.23.48.47.96.7 1.43 5.25-.73 10.55-1.25 15.75-2.24 9.61-1.82 19.15-4.01 28.75-5.84 2.16-.41 4.77-.63 6.67.2 6.21 2.72 12.4 5.62 18.19 9.14 4.53 2.76 4.25 5.71.86 9.25-6.49 6.78-12.71 13.83-19.03 20.77.33.31.66.62 1 .92.05.31.01.68.16.93 4.16 6.89 3.65 7.54-4.48 8.11-13.23.92-26.43 2.19-39.64 3.31-.17.36-.36.74-.55 1.12zm-58.59-173.96c.27 2.57.58 4.83.74 7.1.81 11.65.78 11.51 12.23 9.96 22.21-3.01 44.39-6.29 66.68-8.52 8.29-.83 12.23-4.25 14.1-11.91 1.65-6.76-.8-9.95-7.67-9-14.47 2-28.96 3.83-43.42 5.91-14.09 2.02-28.16 4.25-42.66 6.46zm53.07 162.48c12.35-1.88 23.6-3.57 34.83-5.39.69-.11 1.53-1.2 1.76-1.99 1.41-4.93 2.98-9.84 3.9-14.87.97-5.28-.42-7-5.65-6.58-12.77 1.03-25.51 2.5-39.49 3.91 2.14 1.5 3.18 2.23 4.22 2.95 5.71 3.98 6.09 5.67 3.5 11.94-1.23 2.95-1.9 6.13-3.07 10.03zm-18.97-23.15c-10.91 1.48-20.5 2.79-30.49 4.14 1.2 8.68 2.29 16.65 3.46 25.15 9.42-1.16 18.38-2.26 28.53-3.5-.51-8.78-.99-17.06-1.5-25.79z"/><path d="m148.55 296.74c-17.4 11.33-35.48 21.38-49.65 36.87-6.15 6.72-9.49 6.16-14.2-1.73-3.91-6.54-5.85-13.09-2.86-21.21 2.64-7.17 3.35-15.23 3.86-22.97 1.11-16.92 1.76-33.89 2.2-50.84.34-13.11.13-26.24.03-39.36-.02-2.22-.77-4.43-1.43-8.05-16.46 21.6-34.05 40.19-57.68 52.59-2.15-5.16 1.02-7.13 3.26-9.36 22.19-22.15 40.33-47.33 55.21-74.83 10.68-19.75 20.07-40.19 25.8-61.95 2.42-9.19 2.8-18.97 3.48-28.53.44-6.28 2.94-8.89 8.26-5.9 5.54 3.11 10.62 7.23 15.39 11.48 3.98 3.55 5.06 8.09 1.21 12.78-.71.86-1.06 2.02-1.78 3.44 6.04 2.21 12.2 3.73 17.61 6.66 5.11 2.77 9.71 6.72 13.93 10.78 1.79 1.72 2.76 5.03 2.79 7.64.03 2.48-.99 6.36-2.7 7.16-2.42 1.13-6.26.81-8.83-.37-3.38-1.55-6.12-4.5-9.1-6.89-6.22-4.98-12.41-9.98-18.82-15.15-6.99 15.73-13.79 31.01-21.13 47.5 11.09-3.59 21.49-6.67 31.68-10.35 5.69-2.06 10.85-1.06 15.93 1.18 4.29 1.89 4.62 5.08.54 7.22-4.49 2.36-9.39 4.12-14.31 5.42-7.37 1.95-14.84 3.8-22.38 4.68-4.93.57-10.07-.65-15.62-1.11-4.21 7.24-8.78 15.09-14.24 24.47 4.25.42 7.7 1.67 10.6.88 12.77-3.51 25.48-7.28 37.98-11.64 5.23-1.82 9.65-1.9 14.09 1.17 4.92 3.4 9.8 6.87 14.6 10.43 2.43 1.8 4.24 4.33 2.32 7.29-7.38 11.39-8.5 24.66-11.57 37.34-1.95 8.06-3.87 16.13-5.83 24.19-.31 1.29-.46 2.82-1.25 3.75-2.36 2.78-4.6 6.7-7.65 7.6-4.08 1.21-5.04-3.77-6.77-6.65-.42-.7-.88-1.37-1.26-1.97-13.18 2.63-26.15 5.22-39.95 7.98-.23 3-.67 7.23-.86 11.46-.41 8.97-.8 17.95-.97 26.92-.13 6.96 1.63 8.66 8.38 6.83 8.95-2.43 17.69-5.68 26.49-8.64 3.92-1.32 7.78-2.81 12.33-4.46-2.62-4.77-5.22-9.17-7.46-13.73-.87-1.78-.94-3.95-1.38-5.95 1.86.01 3.88-.45 5.57.1 12.83 4.15 24.27 10.11 29.74 23.62 2.33 5.76 3.03 11.61 1.02 17.49-2.44 7.17-7.36 8.32-12.09 2.54-4.51-5.48-8.21-11.59-12.53-17.82zm-5.71-54.28c1.72-9.82 3.24-18.52 4.8-27.43-1.06 0-1.55-.07-2.02.01-13.71 2.38-27.42 4.74-41.1 7.26-.93.17-2.26 1.53-2.33 2.42-.59 7.43-.93 14.87-1.39 23.17 7.07-1.93 13.56-3.28 19.74-5.49 7.17-2.57 14.1-5.34 22.3.06zm-40.4-29.87c15.87-1.47 29.47-11.26 45.63-5.58.53-6.38 1.05-12.29 1.5-18.21.43-5.63-1.34-7.27-7.05-6.29-10.46 1.79-20.92 3.65-31.35 5.63-1.26.24-3.15 1.15-3.4 2.11-1.94 7.29-3.54 14.66-5.33 22.34z"/><path d="m277 142.97c-1.18 5.22-2.05 9.07-3.14 13.89 2.36-.6 4.01-.97 5.63-1.44 9.25-2.68 18.53-5.27 27.73-8.12 6.25-1.94 12.22-1.37 17.71 1.87 1.88 1.11 2.9 3.69 4.31 5.6-1.8 1.16-3.49 3.03-5.43 3.35-13.09 2.16-26.22 4.16-39.38 5.8-3.49.44-7.17-.58-10.59-.91-.39.61-.65.86-.71 1.15-3.16 15.78-1.56 18.73 14.26 20.71 9.97 1.25 20.2 1.36 30.25.75 11.49-.7 17.08-6.23 20.19-17.54.73-2.65 1.43-5.32 2.53-9.41.99 2.36 1.58 3.28 1.76 4.28 1.23 6.94 3.28 13.44 7.65 19.23 3.18 4.22 2.31 6.63-2.13 10-7.28 5.53-15.81 7.61-24.6 8.78-15 1.99-29.91 1.43-44.47-2.89-15.61-4.64-21.01-12.07-20.74-26.3.11-6 .28-12.01-.08-17.99-.25-4.08-1.13-8.16-2.16-12.13-.94-3.62.12-5.53 3.6-4.57 6 1.68 11.86 3.9 17.81 5.89z"/><path d="m322.48 315c-.99 5.64-2.35 9.92-7.35 12.02-4.87 2.05-9.01 0-11.89-3.64-5.74-7.26-11.04-14.87-16.38-22.44-1.84-2.61-1.51-5.37 2.25-4.87 9.85 1.31 19.9 2.77 27.7 9.63 2.62 2.29 3.83 6.16 5.67 9.3z"/></g><path d="m385.2 377.6.6-.7c.6.4 1.3.9 1.9 1.5l-.6.7c-.8-.5-1.4-1-1.9-1.5zm.3 7.1c.6-1.4 1.1-2.9 1.5-4.5.3.1.6.3.9.4-.5 1.4-1 2.9-1.5 4.4zm.2-10.1.6-.6c.7.5 1.3 1.1 1.9 1.6l-.7.7c-.6-.6-1.2-1.2-1.8-1.7zm8.4-.8h.8v.9h1.8v.7h-1.8v1.8h-.8v-.3h-1.2v.9h3.3v2.6h-.8v-.4h-2.5c0 .3 0 .6-.1.8h3.4v.7h-3.5c0 .3-.1.6-.1.8h4v.7h-3.5c.7.9 1.9 1.3 3.6 1.5-.2.2-.4.5-.6.9-1.9-.3-3.2-1.1-3.8-2.3-.5 1.1-1.8 2-3.9 2.4-.2-.3-.4-.5-.6-.8 1.9-.4 3.1-.9 3.6-1.7h-3.2v-.7h3.5c.1-.2.1-.5.2-.8h-3.3v-.7h3.4c0-.2 0-.5 0-.8h-2.4v.3h-.8v-2.6h3.3v-.9h-1.2v.3h-.8v-1.8h-1.8v-.7h1.8v-.9h.8v.9h3.2zm-4.4 5.5h2.4c0-.3 0-.6 0-.9h-2.4zm1.2-3.1h3.2v-.8h-3.2zm4.4 2.2h-2.4v.9h2.5v-.9z" fill="#fbfcfa"/><path d="m389.2 385.8h.9v1.5h1.9v-1.5h.9v1.5h2.7v6h1.1v.9h-11.3v-.9h1.1v-6h2.7zm.2 8.7.5.8c-1.2.6-2.5 1.3-4 1.9-.2-.3-.3-.6-.6-.8 1.6-.6 3-1.3 4.1-1.9zm-2-4.3h1.9v-2.1h-1.9zm0 3.1h1.9v-2.2h-1.9zm2.7-3.1h1.9v-2.1h-1.9zm0 3.1h1.9v-2.2h-1.9zm2.4 1.3c1.4.6 2.7 1.2 4.1 1.8l-.5.9c-1.5-.7-2.8-1.4-4.1-1.9zm2.2-6.5h-1.9v2.1h1.9zm-1.9 5.2h1.9v-2.2h-1.9z" fill="#fbfcfa"/></svg>