<svg enable-background="new 0 0 400 400" viewBox="0 0 400 400" xmlns="http://www.w3.org/2000/svg"><g fill="#010100"><path d="m271.76 270.02c-1.39 2.07-2.42 4.56-4.24 6.14-11.81 10.24-23.93 20.13-35.68 30.44-7.15 6.28-16.08 10.71-20.4 20.05-1.62 3.5-5.72 4.09-7.84 1-4.05-5.9-7.53-12.3-10.33-18.88-.79-1.86.91-5.68 2.61-7.56 9.62-10.67 12.96-23.42 12.88-37.26-.1-19.27-.52-38.53-.9-57.79-.05-2.41-.68-4.82-1.14-7.83-9.42 8.32-18.08 16.56-27.39 24.01-8.01 6.41-16.65 12.08-25.26 17.69-2.18 1.42-5.3 1.39-7.99 2.03-.22-.55-.45-1.11-.67-1.66 4.55-3.95 9.16-7.85 13.66-11.87 20.78-18.61 40.3-38.35 54.82-62.43 6.81-11.3 12.16-23.25 14.43-36.38.39-2.25.54-4.54.82-7.06-8.5.94-16.47 2.02-24.49 2.62-3.43.26-7.02-.09-10.34-.93-1.4-.35-2.3-2.7-3.42-4.15 1.2-.83 2.29-2.07 3.63-2.44 25.25-6.97 50.57-13.72 75.79-20.81 5.4-1.52 10.53-4.06 15.7-6.34 8.02-3.53 16.26-4.48 24.81-2.52 1.29.29 2.59.73 3.73 1.37 3.39 1.9 6.74 3.99 6.58 8.56-.16 4.49-3.6 6.39-7.13 7.3-12.2 3.14-24.45 6.16-36.78 8.72-10.51 2.18-21.17 3.65-32.3 5.52 6.99 7.8 4.31 15.01-.45 22.39-3.13 4.85-5.63 10.12-8.61 15.56 19.1 8.65 23.19 29.12 35.83 43.83 13.43-18.05 29.51-34.13 33.45-57.46.51-3.02 1.53-4.53 5.17-4.24 10.21.79 18.34 5.17 25.06 12.75 2.03 2.29 1.95 4.17-.03 5.98-3.06 2.79-6.29 5.41-9.54 7.98-15.67 12.36-31.38 24.67-47.04 37.04-1.14.9-2.05 2.11-3.96 4.11 11.43 11.41 22.33 23.07 34.07 33.8 15.51 14.17 33.07 25.08 53.78 30.27 3.19.8 6.29 2.15 9.25 3.61 1.3.64 2.15 2.18 3.2 3.32-1.25.98-2.36 2.46-3.77 2.84-2.86.77-5.89 1.34-8.83 1.28-15.26-.32-30.53-.77-45.78-1.37-5.96-.23-10.11-3.55-13.24-8.55-11.91-19.04-23.65-38.18-35.99-56.94-9.59-14.57-19.91-28.66-30.04-42.88-1.8-2.52-4.25-4.58-6.23-6.67-5.29 8.09-10.35 15.83-15.57 23.82 9.94 13.1 9.59 28.86 9 44.73-.67 18.07-1.15 36.15-1.74 55.05 16.33-7.58 30.33-18.11 47.34-21.5.49.56 1 1.14 1.51 1.71z"/><path d="m139.15 161.91c4.15-11.6 8.3-23.2 12.88-35.98-4.11.26-6.6.07-8.92.62-13.13 3.12-26.28 5.79-39.93 4.65-1.28-.11-3.25 1.76-4.05 3.19-11.2 19.87-22.56 39.7-37.48 57.05-8.32 9.68-17.82 18.36-26.92 27.35-1.57 1.55-3.81 2.41-5.75 3.59-.53-.32-1.06-.63-1.59-.95 1.08-2.67 1.7-5.68 3.33-7.96 5.91-8.24 12.41-16.07 18.25-24.36 22.47-31.93 39.74-66.42 50.19-104.13 2.69-9.72 3.2-19.61-.65-29.38-1.66-4.22-.19-6.43 4.23-5.82 4.48.61 8.84 2.41 13.11 4.07 2.28.89 4.21 2.65 6.38 3.87 10.79 6.08 9.35 12.36 4.23 22.11-7.44 14.18-14.41 28.61-21.01 43.35 14.05-1.63 26.97-5.58 38.69-11.92 8.05-4.36 14.57-3.26 21.85.22 6.09 2.91 11.78 6.2 15.13 12.4 1.42 2.63 1.78 4.83-1.41 6.68-14.25 8.24-26.28 19.2-37.65 30.96-.42.43-1.05.66-1.58.99-.46-.21-.89-.4-1.33-.6z"/><path d="m119.13 274.03c17.64-7.75 30.59-22.79 49.2-26.83.56.66 1.11 1.32 1.67 1.98-2.38 2.71-4.5 5.72-7.18 8.09-8.85 7.82-18.08 15.21-26.83 23.14-10.47 9.5-20.64 19.34-30.84 29.14-6.9 6.62-12.11 5.64-14.91-3.38-1.41-4.55-2.32-9.38-2.54-14.13-.1-2.28 1.31-5.44 3.1-6.86 10.5-8.35 14.09-19.6 14.99-32.38 1.41-19.78 2.3-39.55-.95-59.2-1.07-6.46-3.72-12.65-5.45-19.01-.52-1.92-1.26-4.88-.33-5.85 1.47-1.53 4.64-2.95 6.45-2.37 5.96 1.89 11.7 4.52 17.37 7.2 3.68 1.74 5.04 4.95 4.5 9.11-1.55 11.84-3.12 23.68-4.37 35.55-1.18 11.23-2.05 22.49-2.87 33.75-.52 7.09-.67 14.23-1.01 22.05z"/><path d="m225.11 31.91c10.06 2.15 19.49 3.44 28.45 6.25 11.78 3.7 17.75 21.99 10.81 32.23-1.07 1.58-5.04 2.36-7.25 1.81-9.87-2.43-17.02-9.41-24.37-15.87-4.12-3.62-8.23-7.34-11.74-11.52-2.16-2.57-3.2-6.09-4.74-9.19 3.03-1.27 6.06-2.55 8.84-3.71z"/></g><path d="m385.2 377.6.6-.7c.6.4 1.3.9 1.9 1.5l-.6.7c-.8-.5-1.4-1-1.9-1.5zm.3 7.1c.6-1.4 1.1-2.9 1.5-4.5.3.1.6.3.9.4-.5 1.4-1 2.9-1.5 4.4zm.2-10.1.6-.6c.7.5 1.3 1.1 1.9 1.6l-.7.7c-.6-.6-1.2-1.2-1.8-1.7zm8.4-.8h.8v.9h1.8v.7h-1.8v1.8h-.8v-.3h-1.2v.9h3.3v2.6h-.8v-.4h-2.5c0 .3 0 .6-.1.8h3.4v.7h-3.5c0 .3-.1.6-.1.8h4v.7h-3.5c.7.9 1.9 1.3 3.6 1.5-.2.2-.4.5-.6.9-1.9-.3-3.2-1.1-3.8-2.3-.5 1.1-1.8 2-3.9 2.4-.2-.3-.4-.5-.6-.8 1.9-.4 3.1-.9 3.6-1.7h-3.2v-.7h3.5c.1-.2.1-.5.2-.8h-3.3v-.7h3.4c0-.2 0-.5 0-.8h-2.4v.3h-.8v-2.6h3.3v-.9h-1.2v.3h-.8v-1.8h-1.8v-.7h1.8v-.9h.8v.9h3.2zm-4.4 5.5h2.4c0-.3 0-.6 0-.9h-2.4zm1.2-3.1h3.2v-.8h-3.2zm4.4 2.2h-2.4v.9h2.5v-.9z" fill="#fbfcfa"/><path d="m389.2 385.8h.9v1.5h1.9v-1.5h.9v1.5h2.7v6h1.1v.9h-11.3v-.9h1.1v-6h2.7zm.2 8.7.5.8c-1.2.6-2.5 1.3-4 1.9-.2-.3-.3-.6-.6-.8 1.6-.6 3-1.3 4.1-1.9zm-2-4.3h1.9v-2.1h-1.9zm0 3.1h1.9v-2.2h-1.9zm2.7-3.1h1.9v-2.1h-1.9zm0 3.1h1.9v-2.2h-1.9zm2.4 1.3c1.4.6 2.7 1.2 4.1 1.8l-.5.9c-1.5-.7-2.8-1.4-4.1-1.9zm2.2-6.5h-1.9v2.1h1.9zm-1.9 5.2h1.9v-2.2h-1.9z" fill="#fbfcfa"/></svg>