<svg enable-background="new 0 0 400 400" viewBox="0 0 400 400" xmlns="http://www.w3.org/2000/svg"><g fill="#010100"><path d="m177.12 89.08c-2.38 5.28-7.12 5.17-11.21 5.93-8.47 1.58-17 2.82-24.06 3.96-.17 3.63-.11 6.71-.49 9.73-.74 5.86-1.72 11.69-2.66 17.98 2.9-.44 5.03-.32 6.75-1.11 7.49-3.44 14.36-.65 21.15 2 1.73.67 2.88 2.83 4.29 4.3-1.73 1.36-3.29 3.54-5.22 3.92-8.61 1.71-17.33 2.91-26.62 4.4-.52 7.38-1.03 14.74-1.6 22.75 3.03-.62 5.58-.99 8.04-1.66 7.96-2.18 15.44-.64 22.6 2.94 1.34.67 3.36 2.53 3.14 3.27-.45 1.5-2 3.35-3.46 3.76-5.58 1.54-11.29 2.6-16.97 3.77-3.57.73-7.21 1.16-10.73 2.07-1.1.28-2.7 1.65-2.73 2.56-.22 7.59-.12 15.2-.12 23.63 5.95-.89 12.38-1.37 18.55-2.89 6.89-1.7 23.56 8.71 25.54 13.27.49 1.13.33 3.03-.32 4.09-6.91 11.22-7.01 24.04-8.94 36.45-2.86 18.36-5.29 36.81-9.07 54.98-2.88 13.85-11.31 24.63-23.29 32.4-5.28 3.43-8.23 3-10.3-2.29-4.6-11.76-11.27-22.19-19.21-31.9-.59-.72-.87-1.68-2.11-4.15 3.13.84 5.09 1.05 6.74 1.87 3.71 1.83 7.14 4.28 10.93 5.91 7.72 3.34 13.48 1.72 17.03-5.82 3.51-7.45 6.9-15.3 8.28-23.33 2.97-17.3 4.64-34.83 6.74-52.27.21-1.78-.06-3.67-.39-5.45-1.37-7.27-3.38-8.88-10.68-9.09-17.77-.51-35.14 2.16-52.2 6.8-4.57 1.24-8.86 3.65-13.09 5.88-2.74 1.44-4.83 1.36-7.24-.62-7.24-5.95-8.48-12.69-5.85-21.56 2.62-8.85 4.58-18.08 5.32-27.26 1.35-16.89 1.76-33.87 2.24-50.82.31-10.95-1.76-21.44-7.41-31.11-1.07-1.84-1.58-5.34-.55-6.72 1.09-1.45 4.33-1.49 6.67-1.72 1.22-.12 2.68.44 3.77 1.13 9.19 5.79 18.91 4.7 28.79 2.47 15.68-3.54 31.35-7.12 47.09-10.39 9.08-1.89 16.38 1.98 22.86 7.94zm-88.06 87.22c-.68 9.71-1.32 18.29-1.86 26.88-.26 4.18 2.19 5.62 5.97 5.25 8.4-.84 16.81-1.69 25.19-2.74 1.14-.14 3.02-1.45 3.05-2.26.23-8.06.14-16.13.14-24.44-10.9.71-21.68 5.75-32.49-2.69zm3.01-40.01c9.46-1.61 18.9-3.16 28.29-4.93.87-.16 2.08-1.74 2.11-2.7.27-8.9.62-17.85-3.15-25.37-9.25 0-17.93 0-27.26 0 .01 10.9.01 21.6.01 33zm29.4 6.93c-10.24 1.97-20.08 5.7-30.55-.87-.53 9.99-1.02 19.11-1.56 29.17 11.06-1.58 21.45-3.07 32.11-4.59 0-8.19 0-15.78 0-23.71z"/><path d="m228.37 121.8c-1.08-10.47-2.02-19.5-2.91-28.12-8.52-.51-16.45-.94-24.36-1.5-1.27-.09-2.9-.44-3.67-1.3-1.69-1.89-2.94-4.17-4.37-6.29 2.04-.88 4-2.26 6.12-2.55 31.89-4.48 63.52-10.31 94.69-18.43 9.19-2.39 17.4.33 25.4 4.26 1.25.62 2.84 2.78 2.57 3.73-.41 1.4-2.2 3.04-3.67 3.37-8.4 1.91-16.89 3.46-25.34 5.16-1.42.29-2.81.7-4.27 1.07.23.53.28.92.5 1.11 7.28 6.13 7.27 6.13 3.95 15.17-.63 1.71-1.26 3.45-1.63 5.22-.36 1.76-.38 3.59-.65 6.52 6.3-1.97 11.98-3.98 17.78-5.48 2.9-.75 6.44-1.62 8.99-.63 9.25 3.58 18.46 7.44 27.17 12.16 6.14 3.33 5.36 6.34 1.14 11.99-5.52 7.39-10.16 15.47-14.81 23.47-3.83 6.59-7.01 13.56-10.73 20.22-1.35 2.42-3.15 4.77-5.26 6.55-3.79 3.22-8.27 2.35-10.17-2.17-1.74-4.15-4.08-4.97-8.38-4.37-19.72 2.75-39.5 5.12-59.26 7.62-6.75.86-13.5 1.8-20.27 2.49-2.54.26-4.1.8-5.12 3.59-.77 2.11-3.24 5.07-4.85 5.01-1.98-.08-4.91-2.55-5.59-4.6-2.27-6.89-3.91-14-5.43-21.11-1.46-6.81-2.56-13.7-3.65-20.58-.96-6.02-3.72-10.86-8.29-14.9-1.3-1.15-1.77-3.24-2.62-4.9 1.89-.65 3.79-1.87 5.67-1.83 4.3.09 8.6 1.22 12.88 1.17 9.23-.11 18.43-.7 28.44-1.12zm77 41.33c2.7-8.6 5.37-16.75 7.8-24.98 1.16-3.93 2.27-7.94 2.72-11.99.47-4.23-1.8-7.37-6.22-7.3-5.74.09-11.46 1.08-17.21 1.49-3.46.25-4.64 2.25-5.23 5.33-1.55 8.13-3.33 16.21-4.94 24.32-.55 2.79-.86 5.63-1.39 9.22 9.45-3.69 16.68.91 24.47 3.91zm-96.55-30.72c1.42 12.79 2.79 25.17 4.18 37.72 7.28-.73 13.47-1.35 19.98-2-1.41-12.7-2.74-24.68-4.09-36.83-6.74.37-12.98.72-20.07 1.11zm38.56-4v36.84c6.42-.99 12.41-1.91 18.63-2.86.66-12.59 1.3-24.78 1.97-37.63-7.31 1.29-13.92 2.46-20.6 3.65zm22-43.39c-8.75 1.64-16.25 3.05-22.66 4.25-.67 10.19-1.29 19.52-1.95 29.54 8.92-1.5 16.81-2.83 24.61-4.14 0-10.08 0-19.66 0-29.65z"/><path d="m272.68 242.42c-.22 3.79-.19 6.64-.59 9.43-.48 3.44-1.82 6.82-1.91 10.24-.54 18.97-.67 37.95-1.25 56.92-.22 7.12-1.1 14.24-2.01 21.31-.31 2.41-1.18 4.99-2.56 6.95-1.39 1.97-3.64 4.3-5.72 4.52-1.55.16-3.95-2.48-5.06-4.4-2.15-3.72-3.86-7.74-5.35-11.78-.77-2.1-1.5-4.8-.84-6.74 4.49-13.03 4.4-26.49 4.43-39.97.02-10.5.08-20.99.1-31.49 0-1.33.14-2.72-.17-3.99-1.88-7.73-.3-8.47-8.94-6.59-12.3 2.67-24.55 5.57-36.8 8.43-8.3 1.94-21.86-3.22-26.6-10.23-2.14-3.17-.89-5.68 3.16-6.12 12.39-1.34 24.78-2.58 37.16-3.95 18.49-2.04 36.98-4.07 55.45-6.26 18.79-2.22 37.68-3.97 56.3-7.19 12.58-2.17 22.55 1.08 31.44 9.48 1.2 1.13 2.36 2.39 3.24 3.77 2.49 3.91 1.18 6.42-3.52 6.35-12.65-.19-25.3-1.01-37.93-.78-17.72.35-35.46 1.4-52.03 2.09z"/><path d="m292.87 266.98c1.78-.37 3.32-1.22 4.45-.85 19.87 6.55 39.3 13.9 52.42 31.64 6.13 8.29 6.71 17.52 4.25 27.09-1.36 5.31-5.01 7.06-9.86 4.22-3.92-2.3-7.67-5.4-10.49-8.94-13.28-16.66-26.22-33.59-39.26-50.43-.49-.64-.78-1.4-1.51-2.73z"/><path d="m232.84 212.76c-5.06-.81-10.68-1.42-16.12-2.75-1.87-.46-3.3-2.71-4.93-4.14 1.68-.97 3.27-2.48 5.07-2.82 20.16-3.81 40.35-7.42 60.53-11.16 2.76-.51 5.62-1.04 8.15-2.19 8.46-3.82 15.5-.28 22.36 4.04 1.22.77 2.64 2.63 2.48 3.78-.15 1.07-2.16 2.42-3.55 2.71-14.73 3.05-29.46 6.17-44.28 8.75-9.62 1.68-19.39 2.5-29.71 3.78z"/><path d="m168.67 330.35c2.76-2.98 5.46-6.01 8.28-8.93 11.78-12.24 21.23-26.01 27.25-41.96 1.27-3.35 2.04-7.02 2.29-10.6.29-4.22 2.76-5.4 5.5-3.45 5.63 4 10.82 8.67 15.9 13.37 2.36 2.18 1.55 4.72-.67 6.97-4.3 4.37-8.66 8.72-12.64 13.38-11.05 12.97-24.16 23.24-39.48 30.68-1.7.83-3.52 1.41-5.29 2.11-.37-.52-.76-1.04-1.14-1.57z"/><path d="m50.77 244.99c7.22 7.45 7.46 15.75 8 23.46.72 10.36-1.46 20.49-7.29 29.43-2.27 3.48-4.79 7.27-9.79 6.2-4.53-.97-5.98-4.91-6.86-8.89-1.33-6.01-1.21-11.2 2.45-17.25 4.93-8.16 7.22-17.92 10.69-26.98.69-1.81 1.65-3.53 2.8-5.97z"/><path d="m94.8 238.66c9.63 2.59 17.4 6.26 22.56 14.04 3.48 5.24 4 10.89 1.06 16.51-2.47 4.72-5.87 5.1-9.53 1.27-1.25-1.31-2.4-2.82-3.17-4.44-3.48-7.34-6.87-14.73-10.14-22.17-.58-1.32-.47-2.95-.78-5.21z"/><path d="m90.65 270.63c-.78 2.49-1.32 5.64-2.71 8.34-2.26 4.38-5.76 4.57-8.39.47-1.95-3.03-3.52-6.4-4.7-9.82-2.37-6.89-4.39-13.9-6.45-20.89-.29-.99-.36-2.56.21-3.15.58-.59 2.41-.8 3.11-.32 6.82 4.72 13.97 9.22 17.23 17.4.91 2.27 1.06 4.82 1.7 7.97z"/><path d="m122.33 231.57c.71-.29 1.28-.69 1.86-.73 7.45-.56 22.1 9.2 24.36 16.31.54 1.7.82 3.58.75 5.36-.16 4.39-1.68 9.21-6.01 9.73-2.65.32-6.24-3.21-8.63-5.75-2.08-2.21-3.13-5.42-4.49-8.25-2.63-5.45-5.17-10.96-7.84-16.67z"/></g><path d="m374.8 390.4.4-.4c.7.5 1.3 1 1.8 1.4l-.5.5c-.5-.6-1.1-1.1-1.7-1.5zm1 7.3-.6-.3c.5-1.4 1.1-2.8 1.5-4.3.2.1.4.2.6.3-.5 1.3-1 2.8-1.5 4.3zm-.4-10.3.4-.4c.4.3 1 .8 1.7 1.4l-.5.5c-.4-.5-1-1-1.6-1.5zm2.5.3h1.7v-1h.6v1h3.5v-1h.6v1h1.8v.5h-1.8v1.4h-2v1h3.2v2h-3.2v.9h3.3v.5h-3.4c0 .3-.1.6-.1.9h4v.5h-3.7c.7.9 1.9 1.5 3.8 1.7-.1.2-.2.4-.3.6-2.1-.4-3.5-1.1-4-2.1-.4 1-1.8 1.7-4 2.2-.1-.2-.2-.4-.3-.6 2.1-.4 3.4-1 3.8-1.8h-3.4v-.5h3.6c.1-.3.1-.6.2-.9h-3.3v-.5h3.4c0-.3 0-.6 0-.9h-3.2v-2h3.3v-1h-2.1v-1.4h-1.7v-.5zm1.1 3.5v1h2.7c0-.3 0-.4 0-.4 0-.1 0-.2 0-.2 0-.1 0-.2 0-.3h-2.7zm1.2-3v.9h3.5v-.9zm4.7 3h-2.6v.6.4h2.6z" fill="#fafafb"/><path d="m393.6 386.7h.6v1.5h2.7v6.1h1.1v.6h-11v-.6h1.1v-6.1h2.7v-1.5h.6v1.5h2.1v-1.5zm-2.7 8.8.4.6c-1.2.6-2.5 1.3-3.8 1.9-.1-.2-.2-.4-.3-.6 1.2-.6 2.5-1.2 3.7-1.9zm-2.2-6.7v2.4h2.1v-2.4zm0 3v2.5h2.1v-2.5zm2.8-3v2.4h2.1v-2.4zm0 3v2.5h2.1v-2.5zm6 6.1c-1.4-.7-2.7-1.3-3.9-1.8l.3-.6c1.5.6 2.7 1.2 3.9 1.7zm-1.2-9.1h-2.1v2.4h2.1zm-2.1 3v2.5h2.1v-2.5z" fill="#fafafb"/></svg>