<svg enable-background="new 0 0 400 400" viewBox="0 0 400 400" xmlns="http://www.w3.org/2000/svg"><g fill="#010100"><path d="m249.24 181.84c-9.07 1.67-18.13 3.33-27.37 5.03 4.91 3.52 9.94 6.43 14.1 10.28 5.9 5.46 5.3 6.69-.88 11.92-3.32 2.81-5.75 6.68-7.98 11.09 14.6-2.36 29.19-4.72 43.94-7.1-4.37-7.91-8.51-15.28-12.49-22.72-.71-1.33-.78-2.99-1.15-4.5 1.41-.3 2.98-1.15 4.21-.81 6.37 1.78 12.85 3.4 18.89 5.99 4.49 1.93 5.98 8.22 4.44 14.15-.37 1.44-.96 2.81-1.78 5.18 7.51-1.32 14.44-2.49 21.34-3.77 3.75-.7 7.45-1.7 11.21-2.39 10.88-2.01 20.17 2.77 29.37 7.35 3.22 1.6 2.6 4.89-1.29 6.09-4.24 1.3-8.75 1.87-13.19 2.39-14.66 1.74-29.34 3.31-44.35 4.99-.46 6.73-.9 13.13-1.39 20.35 6.02-1.11 11.45-1.68 16.61-3.16 8.62-2.47 16.83-1.21 24.83 1.98 1.92.77 3.17 3.23 4.73 4.91-1.79 1.32-3.42 3.44-5.4 3.84-13.01 2.62-26.1 4.86-39.16 7.24-.31.06-.58.27-1.25.59-.37 5.04-.76 10.27-1.2 16.27 8.04-1.33 15.44-2.77 22.9-3.73s15.05-1.56 21.48 3.62c1.28 1.03 2.8 2.89 2.68 4.22-.12 1.24-2.13 3.02-3.56 3.32-8.44 1.74-16.94 3.19-25.44 4.6-5.87.97-11.77 1.72-17.99 2.62-.37 7.59-.73 14.97-1.11 22.99 10.62-1.14 20.49-2 30.31-3.33 8.38-1.14 16.65-3.25 25.05-4.07 3.95-.38 8.21.87 12.12 2.09 5.06 1.58 10.01 3.64 14.78 5.95 1.66.81 2.65 3 3.95 4.56-1.63 1.24-3.14 3.3-4.92 3.58-6.05.92-12.2 1.28-18.32 1.72-27.18 1.94-54.36 3.71-81.53 5.81-13.24 1.03-26.43 2.66-39.64 4.04-.63.07-1.25.3-1.64.4-1.01 7.13-1.98 14.01-2.97 20.89-.09.66-.1 1.44-.46 1.92-2.21 2.93-4.52 5.8-6.8 8.68-2.37-2.09-5.21-3.86-7.01-6.36-2.39-3.33-4.22-7.13-5.85-10.92-2.83-6.58-2.76-12.75-.3-20.03 3.42-10.08 5.26-21 5.83-31.67.92-17.03.25-34.16-.68-51.71-12.16 9.65-23.56 19.53-38.11 24.2-.47-.41-.94-.83-1.41-1.24.88-1.44 1.47-3.24 2.7-4.27 18.16-15.26 29.46-35.49 39.98-56.1 3.04-5.97 3.4-13.3 5.21-20.94-4.48.36-7.8.32-10.97 1-1.61.35-3.39 1.69-4.32 3.09-2.52 3.82-4.85 4.49-7.02.58-2.68-4.8-4.41-10.23-5.9-15.57-1.5-5.41-1.64-11.24-3.43-16.53-1.32-3.88-4.37-7.17-6.58-10.77-.71-1.15-1.96-2.76-1.6-3.57.45-1.04 2.22-1.6 3.53-2.12.72-.28 1.69-.22 2.47-.02 16.65 4.19 32.14-1.33 46.66-7.71 10.98-4.83 18.84-1.05 27.36 3.8 3.44 1.96 3.6 5.23 1.9 8.71-3.34 6.84-6.46 13.78-9.9 20.57-1.83 3.62-2.17 6.52 2.01 8.62.66.33 1.07 1.18 1.59 1.79.07.71.11 1.4.16 2.1zm15.24 112.9c-13.81 1.09-27.29 2.16-41.15 3.26v23.89c13.05-1.71 25.84-3.32 38.6-5.17.97-.14 2.39-1.94 2.43-3.02.24-6.1.12-12.21.12-18.96zm.5-67.28c-16.11 1.93-32.09 3.84-48.07 5.76-.15.39-.3.79-.45 1.18 6.99 5.08 8.78 12.23 8.03 20.57 13.91-2.03 27.09-3.96 40.49-5.92 0-7.57 0-14.5 0-21.59zm-68.51-72.47c1.05 7.77 2 14.73 2.98 21.94 9.62-1.8 18.72-3.38 27.74-5.33 1.3-.28 2.88-2.21 3.17-3.62 1-4.84 1.69-9.78 2.11-14.71.27-3.2-1.03-5.76-4.92-4.96-10.17 2.1-20.32 4.36-31.08 6.68zm27.23 130.81c13.56-1.78 27.28-3.59 41.21-5.42 0-5.75 0-10.99 0-16.23-13.58 1.23-27 2.45-41.21 3.74z"/><path d="m50.29 160.05c1.57-1.96 3-4.05 4.74-5.85 15.15-15.65 28.24-32.79 37.61-52.54 4.01-8.45 7.05-17.19 6.06-26.88-.45-4.38 1.76-6.35 5.69-4.59 6 2.68 12 5.73 17.21 9.67 5.34 4.04 4.64 5.9.34 10.96-6.86 8.07-13.26 16.52-20.5 25.61 2.02.27 2.66.56 3.13.39 12.37-4.7 24.7-9.54 37.12-14.1 2.43-.89 5.66-1.71 7.81-.83 6.05 2.48 11.91 5.59 17.5 9.01 3.08 1.88 2.61 4.9-.32 6.95-16.87 11.83-28.19 29.08-42.48 43.43-2.2 2.21-4.19 4.61-5.69 8 7.65-2.47 15.42-4.65 22.92-7.52 4.18-1.6 8.14-2.11 11.88.1 6.82 4.02 13.59 8.21 19.94 12.92 1.44 1.07 2.35 5.53 1.37 6.78-8.64 11.07-10.01 24.82-14.33 37.44-3.06 8.95-5.18 18.21-8.29 27.14-1.26 3.61-3.52 7.21-6.25 9.88-3.6 3.53-8.12 2.6-10.27-1.98-1.73-3.7-3.83-3.82-7.4-3.38-14.18 1.73-28.42 3-42.63 4.47-3.86.4-7.67.14-10 4.75-1.55 3.07-4.99 2.92-6.56-.54-1.69-3.73-3.16-7.71-3.82-11.73-2.56-15.73-4.88-31.5-7.03-47.29-.89-6.53-3.7-11.91-7.68-17.01-1.44-1.85-1.8-4.53-2.65-6.84 2.47-.41 5.15-1.65 7.38-1.09 15.14 3.86 29.7-.81 44.44-2.61 1.07-.13 2.24-1.36 2.93-2.37 8.75-12.76 17.53-25.5 26.04-38.42 1.63-2.48 2.12-5.71 3.14-8.59-2.96.1-5.94-.03-8.86.35-7.44.97-14.81 4.22-22.33-.19-.78-.46-3.48 1.21-4.54 2.51-10.71 13.23-23.68 23.79-38.07 32.69-1.96 1.21-4.26 1.9-6.4 2.83-.39-.52-.77-1.02-1.15-1.53zm93.91 47.2c1.41-7.94 2.72-14.74 3.82-21.58 1.27-7.87-1.43-10.7-9.13-9.33-6.02 1.07-11.97 2.54-17.9 4.04-1.02.26-2.48 1.58-2.5 2.45-.21 6.89-.11 13.8-.11 20.9 8.27-.14 17.25-4.02 25.82 3.52zm-68.9 3.72c8.84-1.15 17.02-2.22 25.33-3.3 0-8.32 0-16.22 0-24.75-9.34 1.05-18.31 2.05-27.69 3.11.8 8.56 1.55 16.43 2.36 24.94zm25.27 7.61c-8.23 0-16.21 0-24.33 0 .9 9.26 1.77 18.1 2.66 27.22 6.57-1.22 12.44-2.16 18.21-3.51 1.33-.31 3.25-2.02 3.3-3.15.32-6.78.16-13.58.16-20.56zm42.4-6.01c-7.97.9-15.34 1.61-22.66 2.67-1.15.17-2.94 1.81-2.98 2.83-.27 6.74-.14 13.5-.14 19.89h20.53c1.64-7.92 3.37-16.31 5.25-25.39z"/><path d="m267.37 134.02c17.13 4.92 31.45-.06 45.04-8.89 1.44-.94 3.52-1.65 5.15-1.42 8.55 1.18 17 2.76 24.2 8.14 3.55 2.66 4.2 5.42.9 8.57-6.5 6.18-9.82 14.02-12.24 22.44-.82 2.87-1.57 5.21 1.33 7.45 1.12.86 1.39 2.81 2.05 4.27-1.61.61-3.19 1.63-4.84 1.76-12.91 1.04-25.84 1.84-38.74 2.93-1.16.1-2.28 1.61-3.28 2.61-1.63 1.62-3.14 3.35-4.7 5.03-1.73-1.87-4.43-3.48-5.02-5.66-2.16-7.99-3.61-16.17-5.36-24.27-1.29-5.98-2.04-12.15-7.21-16.51-.87-.73-1.48-3.05-.98-3.84.84-1.3 2.69-1.95 3.7-2.61zm20.65 33.48c8.96-1.3 17.24-2.49 25.69-3.72.3-6.2.72-11.96.79-17.72.04-3.38-1.37-5.98-5.43-5.03-7.06 1.64-14.1 3.41-21.09 5.32-.68.19-1.44 1.8-1.39 2.71.33 5.92.89 11.82 1.43 18.44z"/><path d="m296.29 91.92c9.8-3.01 19.54-6.2 29.4-8.98 10.18-2.88 18.92 1.18 26.92 6.87 3.02 2.15 1.82 4.91-2.74 5.99-6.94 1.63-13.98 2.85-20.97 4.24-11.73 2.33-23.47 4.28-35.54 3.21-1.57-.14-3.99 1.85-4.95 3.49-4.04 6.84-7.55 13.99-11.56 20.85-.87 1.48-3 2.22-4.56 3.3-.42-1.98-1.43-4.04-1.16-5.92 2.22-15.77 4.99-31.46 6.91-47.26.71-5.83-.05-11.92-.76-17.81-.93-7.71 2.67-11.05 9.82-7.94 5.57 2.42 11 5.36 16.06 8.71 4.23 2.8 4.38 6.62 1.57 11.2-3.69 6.03-6.54 12.57-9.75 18.89.42.39.87.77 1.31 1.16z"/><path d="m227.24 93.94c-3.55-8.61-7.07-16.92-10.36-25.32-.9-2.31-2.33-5.76-1.35-7.13 1.26-1.75 4.84-2.89 7.2-2.58 5.83.77 11.65 2.16 17.25 3.98 3.92 1.28 5.37 4.37 5.31 8.98-.17 13.74.41 27.49.67 41.23.07 3.83.43 7.71-.06 11.47-.3 2.25-1.53 5.6-3.16 6.19-3.38 1.22-5.89-1.13-7.06-4.58-1.55-4.56-3.17-9.1-4.75-13.64-.54-1.55-1.07-3.1-1.91-5.51-8.28 3-16.59 5.36-24.32 8.99-9.79 4.59-17.71 2.01-25.11-4.54-1.24-1.1-2.59-3.1-2.39-4.46.16-1.05 2.56-2.19 4.13-2.55 14.22-3.26 28.48-6.35 42.72-9.5.64-.13 1.23-.39 3.19-1.03z"/><path d="m60.49 291.64c.49 16.63-4.15 29.13-12.67 40.21-4.71 6.13-9.36 5.6-13.04-1.25-3.04-5.66-3.97-16.89 1.32-22.96 7.14-8.18 11.44-18.15 13.98-28.82.44-1.84 2.09-3.38 3.18-5.06 1.52 1.57 3.85 2.9 4.41 4.76 1.51 5.03 2.25 10.29 2.82 13.12z"/><path d="m109.5 273.15c2.05-.12 3.42-.58 4.51-.21 8.12 2.76 15.72 6.55 21.39 13.17 5.08 5.93 5.34 16.09 1.01 21.85-3.44 4.57-6.43 4.8-10.09.56-8.71-10.06-11.96-22.66-16.82-35.37z"/><path d="m104.58 303.48c-.64 2.54-.83 5.32-2.04 7.55-1.24 2.28-3.27 5.34-5.32 5.64-2.09.31-5.14-1.86-6.81-3.78-1.99-2.29-3.26-5.36-4.33-8.28-2.95-8.08-5.61-16.26-8.43-24.39-1.26-3.61.43-4.76 3.62-4.14 10.76 2.1 22.94 16.72 23.31 27.4z"/><path d="m144.12 266.62c2.15.47 4.52.52 6.42 1.49 6.33 3.22 12.8 6.31 18.64 10.29 7.07 4.82 8.14 15.42 2.8 22-2.48 3.06-6.23 2.92-8.35.51-8.61-9.82-14.57-21.36-20.75-32.72.41-.52.82-1.05 1.24-1.57z"/></g><path d="m374.8 390.4.4-.4c.7.5 1.3 1 1.8 1.4l-.5.5c-.5-.6-1.1-1.1-1.7-1.5zm1 7.3-.6-.3c.5-1.4 1.1-2.8 1.5-4.3.2.1.4.2.6.3-.5 1.3-1 2.8-1.5 4.3zm-.4-10.3.4-.4c.4.3 1 .8 1.7 1.4l-.5.5c-.4-.5-1-1-1.6-1.5zm2.5.3h1.7v-1h.6v1h3.5v-1h.6v1h1.8v.5h-1.8v1.4h-2v1h3.2v2h-3.2v.9h3.3v.5h-3.4c0 .3-.1.6-.1.9h4v.5h-3.7c.7.9 1.9 1.5 3.8 1.7-.1.2-.2.4-.3.6-2.1-.4-3.5-1.1-4-2.1-.4 1-1.8 1.7-4 2.2-.1-.2-.2-.4-.3-.6 2.1-.4 3.4-1 3.8-1.8h-3.4v-.5h3.6c.1-.3.1-.6.2-.9h-3.3v-.5h3.4c0-.3 0-.6 0-.9h-3.2v-2h3.3v-1h-2.1v-1.4h-1.7v-.5zm1.1 3.5v1h2.7c0-.3 0-.4 0-.4 0-.1 0-.2 0-.2 0-.1 0-.2 0-.3h-2.7zm1.2-3v.9h3.5v-.9zm4.7 3h-2.6v.6.4h2.6z" fill="#fafafb"/><path d="m393.6 386.7h.6v1.5h2.7v6.1h1.1v.6h-11v-.6h1.1v-6.1h2.7v-1.5h.6v1.5h2.1v-1.5zm-2.7 8.8.4.6c-1.2.6-2.5 1.3-3.8 1.9-.1-.2-.2-.4-.3-.6 1.2-.6 2.5-1.2 3.7-1.9zm-2.2-6.7v2.4h2.1v-2.4zm0 3v2.5h2.1v-2.5zm2.8-3v2.4h2.1v-2.4zm0 3v2.5h2.1v-2.5zm6 6.1c-1.4-.7-2.7-1.3-3.9-1.8l.3-.6c1.5.6 2.7 1.2 3.9 1.7zm-1.2-9.1h-2.1v2.4h2.1zm-2.1 3v2.5h2.1v-2.5z" fill="#fafafb"/></svg>