<svg enable-background="new 0 0 400 400" viewBox="0 0 400 400" xmlns="http://www.w3.org/2000/svg"><g fill="#010100"><path d="m124.06 292.82c-9.34 2.61-18.2 4.78-26.86 7.59-7.45 2.41-14.44 1.68-21.21-1.69-4.3-2.14-8.45-4.64-12.42-7.34-1.07-.73-1.91-3.02-1.56-4.21.31-1.05 2.38-2.13 3.75-2.24 14.59-1.1 29.21-1.75 43.78-3.04 11.57-1.02 23.08-2.75 34.62-4.16 2.62-.32 3.46-1.47 3.27-4.33-.99-14.93-1.37-29.9-2.61-44.81-.8-9.7-2.55-19.34-4.17-28.96-.66-3.92.84-6.98 4.78-6.65 4.06.34 8.55.93 11.93 2.95 6.14 3.66 12.13 3.21 18.61 2.03 19.25-3.51 38.62-6.43 57.78-10.39 6.36-1.32 12.35-2.2 18.61-.58 1.92.5 4.03.91 5.6 2.01 2.01 1.42 3.57 3.49 5.32 5.28-2 1.48-3.83 3.88-6.03 4.29-9.62 1.81-19.34 3.09-29.04 4.47-15.28 2.18-30.54 4.54-45.87 6.32-6.16.72-12.47.12-18.99.12v18.44c12.05-2.12 23.79-4.16 35.52-6.27 10.29-1.85 20.53-4.06 30.87-5.55 8.55-1.23 16.28 1.02 24.03 8.61-4.44 1.76-7.53 3.77-10.81 4.15-17.5 1.98-35.05 3.54-52.57 5.26-4.8.47-9.58 1.16-14.39 1.42-4.44.24-8.91.05-13.67.05v18.52c12.14-2.26 24.02-4.54 35.93-6.67 12.74-2.28 25.5-4.46 38.26-6.63 5.63-.96 10.55.89 14.84 4.38 1.27 1.04 2.96 3.13 2.64 4.18-.47 1.53-2.4 3.14-4.04 3.67-3.13 1-6.47 1.43-9.76 1.79-22.62 2.51-45.24 4.98-67.88 7.34-3.24.34-6.54.05-10.06.05v12.92c5.05-.41 9.96-.68 14.83-1.21 26.76-2.88 53.54-5.56 80.25-8.87 12.64-1.57 25.12-4.42 37.68-6.61 1.24-.22 2.71-.26 3.84.21 7.64 3.15 15.33 6.22 22.75 9.84 3.22 1.58 6.53 4.37 5.41 8.64-1.11 4.24-5.21 4.2-8.7 4.13-16.31-.31-32.62-1.33-48.91-.98-21.93.47-43.84 1.97-65.76 3.05-.46.02-.91.31-1.79.64.44.76.67 1.55 1.19 1.97 10.37 8.31 20.7 16.67 31.27 24.73 1.21.92 4.25.82 5.61-.07 8.37-5.47 16.32-11.44 22.03-19.96 4.58-6.83 5.74-7.01 12.52-2.02 3.45 2.54 6.84 5.42 9.46 8.77 4.16 5.3 2.72 7.2-3.77 8.88-11.51 2.98-22.81 6.76-34.2 10.21-.09.69-.18 1.39-.26 2.08 9.04 4.42 17.9 9.25 27.14 13.18 18.89 8.03 38.94 12.05 58.92 16.29 2.96.63 5.76 1.99 8.63 3-.07.75-.13 1.5-.2 2.25-3.52 1.15-6.97 2.7-10.58 3.37-14.18 2.64-28.37 5.21-42.62 7.39-10.93 1.67-20.64-2.05-28.42-9.45-17.36-16.5-34.27-33.47-51.39-50.23-5.35-5.23-10.75-10.41-16.19-15.55-3.22-3.04-6.56-4.71-11.56-3.92-10.32 1.64-20.79 2.27-31.2 3.38-1.42.15-2.8.68-5.56 1.38 9.91 3.2 7.84 8.83 6.36 15.99-2.34 11.4-2.36 23.29-3.48 36.24 3.98-1.05 6.52-1.49 8.9-2.39 11.98-4.49 23.88-9.16 35.88-13.59 1.42-.52 3.24.05 4.87.12-.91 1.39-1.53 3.18-2.78 4.11-16.4 12.23-32.84 24.4-49.45 36.34-1.4 1-5 1.13-5.98.12-3.9-4.01-7.5-8.42-10.49-13.14-1.12-1.77-.86-4.96-.22-7.22 4.13-14.76 3.05-29.67 1.4-44.55-.36-2.86-2.23-5.52-3.63-8.87z"/><path d="m247.71 108.69c0-10.33 0-20.44 0-31.66-7.6 2.04-14.82 3.73-21.86 5.96-5.64 1.79-20.32-1.82-23.91-6.55-.7-.92-1.3-2.83-.83-3.49.72-1.03 2.35-1.74 3.7-1.96 12.93-2.11 25.88-4.08 38.82-6.12 1.3-.2 2.57-.59 4.21-.98.3-9.98-.55-19.58-4.66-28.76-.81-1.8-.57-4.07-.81-6.13 2.04-.14 4.2-.79 6.08-.31 5.44 1.38 10.79 3.14 16.14 4.89 4.6 1.5 5.33 4.85 4.26 9.16-1.44 5.75-2.68 11.56-4.27 18.51 7.05-1.38 13.14-2.48 19.19-3.8 3.89-.85 7.78-1.79 11.54-3.08 10.17-3.47 17.7 2.13 24.98 7.54 3.64 2.7 2.12 6.29-2.85 6.95-7.4.99-14.87 1.48-22.31 2.2-9.87.96-19.75 1.94-29.83 2.93-.82 10.4-1.58 19.95-2.43 30.69 6.12-2.33 11.5-4.23 16.76-6.4 8.49-3.5 25.47 2.84 29.26 11.15 1.72 3.76-1.2 5.73-3.38 8.03-8.44 8.89-16.81 17.84-25.81 27.4 7.6 4.22 14.15 7.65 20.49 11.43 6.37 3.8 12.21 8.37 14.05 16.05.66 2.74.47 5.9-.16 8.68-.93 4.13-4.2 5.85-7.98 4.16-4.65-2.08-9.17-4.66-13.28-7.66-7.8-5.67-15.18-11.91-22.96-17.62-1.27-.93-4.24-1.18-5.44-.34-13.98 9.82-29.67 14.66-46.44 16.54-3.24.36-6.48.78-9.72 1.17-.3-.59-.61-1.18-.91-1.77 1.71-1.23 3.25-2.87 5.15-3.63 14.53-5.81 28.49-12.6 41.05-23.04-4.33-3.06-8.42-6.1-12.66-8.92-9.95-6.64-19.99-13.15-29.93-19.82-1.11-.74-1.73-2.21-2.57-3.34 1.61-.92 3.14-2.41 4.86-2.68 9.83-1.56 19.71-2.81 29.56-4.22 1.61-.23 3.19-.74 4.9-1.16zm-16.18 15.45c11.06 4.69 21.11 9.01 31.24 13.17.93.38 2.95.09 3.35-.57 4.99-8.2 10-16.42 14.49-24.9 1.35-2.55.17-5.21-3.69-3.85-14.8 5.22-29.57 10.51-45.39 16.15z"/><path d="m188.94 141.88c-4.45.95-7.92 1.7-11.43 2.45.16.44.18.86.39 1.01 8.54 5.99 8.36 5.82 1.26 13.31-3.48 3.68-6.14 8.14-8.58 13.37 5.74-.84 11.48-1.67 17.22-2.52 2.3-.34 4.6-1.09 6.87-1.02 1.49.05 2.93 1.24 4.4 1.92-1.11.94-2.07 2.38-3.34 2.75-27.34 8.05-54.73 15.97-82.09 23.97-2.54.74-5.19 1.5-7.39 2.88-4.77 2.99-9.18 2.58-13.35-.78-3.86-3.11-7.64-6.37-11.13-9.88-1.12-1.13-1.22-3.26-1.79-4.94 1.66-.5 3.29-1.29 4.99-1.47 13.83-1.42 27.67-2.72 42.14-4.12-3.81-9.14-7.33-17.56-11.2-26.85 2.86.3 4.4.46 6.82.71-5.2-13.5-6.04-28.25-18-38.5.45-.35.9-.69 1.35-1.04 2.27-.16 4.61-.79 6.78-.42 15.42 2.63 29.94-1.88 44.53-5.49 6.07-1.5 11.81-4.43 17.92-5.58 3.23-.61 7.15.68 10.34 2.07 3.53 1.53 6.58 4.15 9.59 6.13-3.95 6.98-7.4 13.17-10.93 19.31-2.08 3.61-2.3 6.71 1.72 9.2.89.54 1.42 1.68 2.91 3.53zm-59.31-1.71c9.02-1.44 17.63-2.96 26.28-4.15 14.28-1.95 14.29-1.86 17.41-15.55.04-.16.12-.31.15-.47.95-4.65-.8-6.69-5.44-6.15-2.63.3-5.24.78-7.85 1.25-11.18 2.02-22.35 4.08-33.8 6.17 1.1 6.34 2.1 12.17 3.25 18.9zm34.84 5.01c-9.66 1.08-19.16 2.3-28.7 3.15-4.51.4-7.53 1.99-8.21 7.31 10.43 3.35 10.65 12.01 9.5 21.26 7.31-1.12 13.87-2.03 20.37-3.21 1.22-.22 2.79-1.33 3.26-2.43 3.48-8.2 5.3-16.68 3.78-26.08z"/><path d="m142.95 59.97c-.03-8.25-.24-15.61-3.81-22.54-.89-1.73-1.2-4.25-.61-6.03.25-.77 3.55-1.09 5.28-.72 4.98 1.05 10.12 1.97 14.71 4.04 5.98 2.69 6.55 5.42 4.8 11.71-.87 3.13-1.12 6.43-1.87 11.04 8-2.91 14.83-5.28 21.57-7.87 5.75-2.21 18.54.31 22.81 4.7 2.72 2.8 1.62 5.61-2.85 6.55-10.22 2.15-20.46 4.23-30.74 6.11-10.49 1.92-10.53 1.79-11.75 12.14-.15 1.28-.02 2.6-.02 4.74 12.03-3.06 24.05-6.19 35.51 3.98-2.43.99-3.93 1.92-5.55 2.21-20.07 3.64-40.13 7.39-60.27 10.62-5.84.94-11.97.74-17.89.17-2.7-.26-5.19-2.69-7.78-4.14.13-.68.26-1.36.39-2.04 13.18-2.43 26.35-4.85 39.29-7.24 0-5.19 0-9.93 0-15.14-12.02 1.19-23.48 2.69-34.99 3.3-5.34.28-10.85-.81-16.11-2.03-2.13-.5-3.78-3.01-5.65-4.61.22-.48.43-.96.65-1.44 18.09-2.48 36.19-4.96 54.88-7.51z"/></g><path d="m374.8 390.4.4-.4c.7.5 1.3 1 1.8 1.4l-.5.5c-.5-.6-1.1-1.1-1.7-1.5zm1 7.3-.6-.3c.5-1.4 1.1-2.8 1.5-4.3.2.1.4.2.6.3-.5 1.3-1 2.8-1.5 4.3zm-.4-10.3.4-.4c.4.3 1 .8 1.7 1.4l-.5.5c-.4-.5-1-1-1.6-1.5zm2.5.3h1.7v-1h.6v1h3.5v-1h.6v1h1.8v.5h-1.8v1.4h-2v1h3.2v2h-3.2v.9h3.3v.5h-3.4c0 .3-.1.6-.1.9h4v.5h-3.7c.7.9 1.9 1.5 3.8 1.7-.1.2-.2.4-.3.6-2.1-.4-3.5-1.1-4-2.1-.4 1-1.8 1.7-4 2.2-.1-.2-.2-.4-.3-.6 2.1-.4 3.4-1 3.8-1.8h-3.4v-.5h3.6c.1-.3.1-.6.2-.9h-3.3v-.5h3.4c0-.3 0-.6 0-.9h-3.2v-2h3.3v-1h-2.1v-1.4h-1.7v-.5zm1.1 3.5v1h2.7c0-.3 0-.4 0-.4 0-.1 0-.2 0-.2 0-.1 0-.2 0-.3h-2.7zm1.2-3v.9h3.5v-.9zm4.7 3h-2.6v.6.4h2.6z" fill="#fafafb"/><path d="m393.6 386.7h.6v1.5h2.7v6.1h1.1v.6h-11v-.6h1.1v-6.1h2.7v-1.5h.6v1.5h2.1v-1.5zm-2.7 8.8.4.6c-1.2.6-2.5 1.3-3.8 1.9-.1-.2-.2-.4-.3-.6 1.2-.6 2.5-1.2 3.7-1.9zm-2.2-6.7v2.4h2.1v-2.4zm0 3v2.5h2.1v-2.5zm2.8-3v2.4h2.1v-2.4zm0 3v2.5h2.1v-2.5zm6 6.1c-1.4-.7-2.7-1.3-3.9-1.8l.3-.6c1.5.6 2.7 1.2 3.9 1.7zm-1.2-9.1h-2.1v2.4h2.1zm-2.1 3v2.5h2.1v-2.5z" fill="#fafafb"/></svg>