<svg enable-background="new 0 0 400 400" viewBox="0 0 400 400" xmlns="http://www.w3.org/2000/svg"><path d="m162.46 38.89c4.98-.75 5.53-.39 6.31 3.98.15.83.3 1.69.22 2.52-1.58 16.43 3.45 31.68 8.82 46.74 3.63 10.18 11.46 15.63 21.66 16.26.61-7.01 1.51-14.03 1.75-21.07.39-11.54.38-23.1.47-34.65.01-1.58-.24-3.17-.48-4.74-.78-4.92.31-9.25 4.02-13.02 3.36 2.08 5.03 5.4 5.27 9.1.31 4.94-.03 9.92-.18 14.88-.16 5.08-.66 10.16-.57 15.23.07 4.03 2.46 5.69 6.41 4.76 13.67-3.23 19.5-8.46 22.43-25.36.78-4.48 1.2-9.03 2.19-13.46.67-2.98 1.81-3.7 4.8-4.57 2.32 5.53 2.44 11.31 1.74 17.12-.39 3.25-1.36 6.44-1.7 9.7-.8 7.54-5.39 12.96-10 18.32-4.61 5.35-10.74 7.57-17.7 8.14-7.69.63-9.31 2.73-8.95 10.51.64 13.74.64 13.74 12.62 20 5.91 3.09 11.82 6.18 17.75 9.26 5.1 2.65 9.01 6.51 12.26 11.26 10.24 14.99 14.65 31.36 13.62 49.57-.72 12.77.02 25.61-.12 38.42-.04 3.23-1 6.45-1.46 9.69-.17 1.21-.59 2.67-.12 3.64 1.57 3.24.62 6.27.24 9.54-.36 3.2.77 6.55 1.03 9.85.13 1.68-.24 3.41-.34 5.11-.07 1.29-.21 2.61-.05 3.88.45 3.52 1.65 7.05 1.48 10.52-1.22 23.82-2.75 47.63-4.06 71.44-.12 2.27-1.06 2.94-3.02 3.58-2.46.81-2.73-1.07-3.4-2.28-3.16-5.75-3.31-12.07-2.53-18.29 2.2-17.72 2.14-35.53 2.61-53.33.33-12.48 1.82-24.92 2.22-37.4.23-7.16-.82-14.36-1.01-21.54-.16-5.82.21-11.65.14-17.47-.03-2.49-.08-5.18-.99-7.43-2.66-6.52-.28-13.01-.47-19.49-.05-1.83-.22-3.8-.94-5.44-3.78-8.51-7.87-16.89-11.63-25.41-3.54-8.03-9.65-13.39-17.48-16.7-9.16-3.87-18.49-7.32-27.83-10.76-10.58-3.89-19.5-10.12-26.97-18.48-.81-.9-1.48-2.1-1.75-3.27-2.2-9.71-4.33-19.43-6.38-29.17-.34-1.61-.21-3.34-.19-5.01.07-7 .19-13.99.28-20.99 0-1.24-.02-2.49-.02-3.69z" fill="#010100"/><path d="m129.37 365.72c-1.12-9.03.7-17.31 2.01-25.65 1.84-11.71 3.58-23.44 5.04-35.21.47-3.75-.14-7.62-.12-11.43.08-12.92.42-25.85.27-38.77-.11-8.98-1.1-17.96-1.29-26.94-.16-7.4-.43-14.92.68-22.19.83-5.49 3.86-10.62 5.71-15.98 1.1-3.16 3.18-5.03 6.19-6.25 6.86-2.79 13.81-5.42 20.45-8.69 3.81-1.87 7.44-4.48 10.47-7.44 3.14-3.07 4.73-7.11 3.93-11.87-.75-4.45-1.03-8.98-1.52-13.52 7.08.11 11.73 4.27 11.5 10.75-.19 5.25-1.18 10.49-2 15.71-.43 2.69-1.89 4.8-4.33 6.31-2.24 1.39-4.43 2.97-6.35 4.77-6.29 5.88-13.98 8.47-22.22 10.05-8.32 1.6-12.49 5.66-12.87 14.1-.51 11.29-.16 22.63-.02 33.95.12 9.74.63 19.49.67 29.23.04 10.68.66 21.38-1.63 32-.69 3.22.18 6.75.1 10.14-.08 3.14-.37 6.29-.75 9.41-.6 4.91-1.84 9.79-1.94 14.7-.21 10.51-3.92 19.85-8.6 28.95-.43.84-1.07 1.58-1.68 2.32-.39.45-.9.83-1.7 1.55z" fill="#010100"/><path d="m172.56 205.78c8.82-3.24 17.7-3.72 26.6-4 5.71-.17 11.43-.38 17.14-.3 1.84.02 3.94.51 5.41 1.51 1.29.88 2.52 2.76 2.58 4.26.06 1.24-1.37 3.31-2.57 3.69-2.84.92-5.92 1.37-8.92 1.43s-5.77.43-7.8 2.72c-.83.94-1.64 2.47-1.5 3.61 1.11 8.68-1 17.09-1.95 25.59-1.95 17.52-3.06 35.04-.67 52.65.5 3.72-.31 7.6-.32 11.4-.03 8.68-.21 17.37.18 26.04.36 7.91 1.41 15.79 2.14 23.69.27 2.98.4 5.94-2.89 7.83-3.57-6.69-6.92-12.92-6.68-21.09.85-28.92 1.13-57.86 1.12-86.79-.01-14.18-1.13-28.35-1.77-42.53-.02-.5-.28-.99-.61-2.07-3.04 3.32-4.76.78-7.17-.83-2.05-1.37-4.88-1.83-7.43-2.15-2.89-.35-4.37-1.69-4.89-4.66z" fill="#010100"/><g fill="#fbfafc"><path d="m342.2 3.2-6.3 9.2h6.1v1.2h-8.2v-.5l6.2-9.1h-5.7v-1.2h7.8v.4z"/><path d="m344 13.7v-10.9h3.1c1.6 0 3 .5 4.1 1.4 1.1 1 1.6 2.2 1.6 3.9s-.5 3-1.6 4-2.5 1.5-4.2 1.5h-3zm1.4-9.6v8.4h1.6c1.4 0 2.5-.4 3.2-1.1.8-.8 1.2-1.8 1.2-3.2s-.4-2.4-1.2-3.1-1.8-1-3.1-1z"/><path d="m356.3 2.8v10.9h-1.4v-10.9z"/><path d="m366.6 13.2c-.8.4-1.8.6-3 .6-1.6 0-2.8-.5-3.7-1.5s-1.4-2.3-1.4-3.9c0-1.7.5-3.2 1.6-4.2s2.4-1.6 4-1.6c1 0 1.9.1 2.6.4v1.5c-.8-.4-1.6-.6-2.6-.6-1.2 0-2.2.4-3 1.2s-1.1 1.9-1.1 3.3c0 1.3.4 2.3 1.1 3.1s1.6 1.1 2.8 1.1c1.1 0 2-.2 2.8-.7v1.3z"/><path d="m368.2 13c0-.3.1-.5.3-.6.2-.2.4-.3.6-.3.3 0 .5.1.7.3s.3.4.3.6-.1.5-.3.6c-.2.2-.4.3-.7.3s-.5-.1-.6-.3c-.2-.2-.3-.4-.3-.6z"/><path d="m381.1 13.7h-1.7l-5.5-8.4c-.2-.2-.3-.5-.4-.7 0 .2.1.8.1 1.5v7.6h-1.4v-10.9h1.8l5.3 8.3c.3.4.4.6.4.8 0-.3-.1-.8-.1-1.6v-7.5h1.4v10.9z"/><path d="m389.7 13.7h-5.8v-10.9h5.6v1.2h-4.2v3.5h3.9v1.2h-3.9v3.7h4.4z"/><path d="m398.4 4.1h-3.1v9.6h-1.4v-9.6h-3.1v-1.3h7.7v1.3z"/></g></svg>