<svg enable-background="new 0 0 400 400" viewBox="0 0 400 400" xmlns="http://www.w3.org/2000/svg"><path d="m36.86 326.94c-1.39-7.91-5.31-14.39-3.8-21.93.58-2.9 1.65-5.28 4.21-7.11 12.78-9.08 24.94-19.15 38.31-27.23 17.24-10.41 27.48-25.03 31.73-44.29 1.48-6.7 2.2-13.33 1.07-20.38-1.31-8.2-1.18-16.67-1.32-25.02-.17-10.01-.61-19.96-4.84-29.24-2.19-4.8-2.19-9.45-.94-14.45.52-2.08.27-4.63-.43-6.69-2.57-7.62-5.59-15.08-8.2-22.68-.92-2.68-1.3-5.57-1.65-8.4-.78-6.39 3.03-10.9 9.43-10.65 9.28.36 17.37 4.03 21.05 13.58 2.7 7.01 6.05 13.82 8.22 20.98 1.7 5.61 1.92 11.65 2.98 17.47 2.9 15.93 6.16 31.81 8.77 47.79 1.53 9.38 2.22 18.9 2.98 28.38.37 4.56-.42 9.07-2.57 13.26-.82 1.6-1.56 3.26-2.09 4.98-4.45 14.52-14.03 25.95-22.68 37.96-5.91 8.2-12.04 16.13-20.17 22.32-13.94 10.62-28.32 20.56-44.54 27.39-4.68 1.96-9.93 2.57-15.52 3.96z" fill="#010100"/><path d="m258.3 73.79c2.91 3.05 5.63 5.4 7.72 8.22 1.99 2.69 3.41 5.84 4.94 8.85 2.92 5.77 2.15 11.68.65 17.66-1.13 4.52-1.8 9.15-3.01 13.64-1.26 4.66-.89 8.97.63 13.57 6.15 18.58 12.12 37.23 17.89 55.93 6.89 22.37 20.25 39.94 39.43 52.98 7.49 5.09 15.67 9.26 23.83 13.22 6.65 3.22 10.51 8.23 12.66 15.02.55 1.75.22 2.64-1.37 3.57-5.22 3.01-10.81 4.2-16.78 3.76-5.07-.37-10.14-.71-15.2-1.18-1.1-.1-2.29-.51-3.21-1.12-13.43-8.89-26.92-17.68-40.13-26.89-2.82-1.97-4.73-5.36-6.79-8.28-13.9-19.68-22.56-41.64-27.48-65.08-3.78-18.02-7.59-36.07-10.13-54.28-1.13-8.06.03-16.71 3.77-24.44 3.92-8.08 8.03-16.07 12.58-25.15z" fill="#010100"/><g fill="#fbfafc"><path d="m342.2 3.2-6.3 9.2h6.1v1.2h-8.2v-.5l6.2-9.1h-5.7v-1.2h7.8v.4z"/><path d="m344 13.7v-10.9h3.1c1.6 0 3 .5 4.1 1.4 1.1 1 1.6 2.2 1.6 3.9s-.5 3-1.6 4-2.5 1.5-4.2 1.5h-3zm1.4-9.6v8.4h1.6c1.4 0 2.5-.4 3.2-1.1.8-.8 1.2-1.8 1.2-3.2s-.4-2.4-1.2-3.1-1.8-1-3.1-1z"/><path d="m356.3 2.8v10.9h-1.4v-10.9z"/><path d="m366.6 13.2c-.8.4-1.8.6-3 .6-1.6 0-2.8-.5-3.7-1.5s-1.4-2.3-1.4-3.9c0-1.7.5-3.2 1.6-4.2s2.4-1.6 4-1.6c1 0 1.9.1 2.6.4v1.5c-.8-.4-1.6-.6-2.6-.6-1.2 0-2.2.4-3 1.2s-1.1 1.9-1.1 3.3c0 1.3.4 2.3 1.1 3.1s1.6 1.1 2.8 1.1c1.1 0 2-.2 2.8-.7v1.3z"/><path d="m368.2 13c0-.3.1-.5.3-.6.2-.2.4-.3.6-.3.3 0 .5.1.7.3s.3.4.3.6-.1.5-.3.6c-.2.2-.4.3-.7.3s-.5-.1-.6-.3c-.2-.2-.3-.4-.3-.6z"/><path d="m381.1 13.7h-1.7l-5.5-8.4c-.2-.2-.3-.5-.4-.7 0 .2.1.8.1 1.5v7.6h-1.4v-10.9h1.8l5.3 8.3c.3.4.4.6.4.8 0-.3-.1-.8-.1-1.6v-7.5h1.4v10.9z"/><path d="m389.7 13.7h-5.8v-10.9h5.6v1.2h-4.2v3.5h3.9v1.2h-3.9v3.7h4.4z"/><path d="m398.4 4.1h-3.1v9.6h-1.4v-9.6h-3.1v-1.3h7.7v1.3z"/></g></svg>