<svg enable-background="new 0 0 400 400" viewBox="0 0 400 400" xmlns="http://www.w3.org/2000/svg"><path d="m144.69 65.11c5.52 5.12 7.77 11.12 7.93 17.7.17 6.76-.65 13.54-.79 20.31-.07 3.58.35 7.17.61 10.75.14 1.94 1.15 2.78 3.22 3.14 8.76 1.5 17.67 2.6 26.17 5.1 7.63 2.24 15.1 5.54 22.05 9.42 6.38 3.56 8.96 10.24 9.75 17.38.1.94-.75 2.37-1.59 2.97-12.9 9.26-26.89 16.42-41.93 21.59-6.69 2.3-13.22 5.06-19.87 7.63 0 7.25-.08 14.25.09 21.24.02.95 1.13 2.51 1.97 2.69 3.26.71 6.61 1.08 9.95 1.36 1.45.12 2.95-.26 4.41-.5 15.67-2.58 27.21 4.41 36.17 16.31 6.98 9.28 10.32 20.13 10.9 31.7.12 2.4-.89 4.89-1.51 7.3-2.56 9.96-10.06 15.31-18.6 19.55-8.52 4.24-17.37 7.06-26.93 3.98-2.41-.78-4.98-2.08-6.68-3.88-6.08-6.46-12.47-12.79-17.52-20.03-5.94-8.53-7.76-18.68-7.51-29.08.75-30.63 1.68-61.26 2.2-91.9.15-8.67-.74-17.36-1.39-26.03-1.25-16.85 3.1-32.61 8.9-48.7zm3.99 170.31c-.14 13.23 5.98 23.79 14.27 33.35 1.75 2.01 3.88 4.1 6.27 5.07 7.45 3.02 20.22-4.02 22.92-12.4 3.31-10.26 3.27-20.63.34-30.96-2.06-7.28-6.97-11.81-14.14-14.18-8.17-2.69-15.32.61-22.56 3.51-4 1.6-6.63 4.26-6.54 8.98.05 2.21-.36 4.42-.56 6.63zm10.65-72.15c10.12-.29 26.25-7.19 33.22-14.33.74-.76 1.26-1.97 1.42-3.04 1.03-7.19-1.03-10.66-8.15-12.3-8.86-2.04-17.86-3.52-26.8-5.23-2.97-.57-5.95.71-6.78 3.55-2.28 7.86-4.21 15.89-2.26 24.09 1.74 7.3 1.31 6.95 9.35 7.26z" fill="#010100"/><path d="m208.11 300.8c4.12 1.26 7.77 2.29 11.35 3.52.79.27 1.43 1.21 1.98 1.96 5.13 7.07 9.54 14.6 11.91 23.02 3.75 13.27 14.87 16.64 24.94 17.24.82.05 2.22-1.12 2.48-1.99.41-1.35.51-3.11-.02-4.36-4.35-10.17-3.66-20.98-4.16-31.63-.85-18.4-.4-36.89-3.97-55.09 5.72-.75 9.42.98 10.86 5.97 2.22 7.71 3.69 15.63 5.76 23.38.8 3.01 2.05 6 3.66 8.66 2.04 3.35 7.95 5.08 11.86 2.24 2.05-1.49 4.43-2.5 6.57-3.86 6.17-3.9 9.8-9.45 9.63-16.83-.14-5.7-1.01-11.39-1.57-17.08-.13-1.35-.3-2.7-.45-4.11 5.72.91 11.61 7.49 12.81 14.34 1.46 8.29.96 16.49-1.84 24.46-3.86 10.97-10.67 15.7-22.36 15.69-4.16-.01-8.27.06-11.99 2.32-2.38 1.45-3.84 2.98-3.4 6.32 1.32 10.08 2.11 20.24 3.29 30.34.14 1.21 1.11 2.71 2.15 3.38 5.18 3.32 11.12 3.94 17.07 4.07 8.71.19 17.32.79 25.78 3.15 2.55.71 5.44.37 8.16.26 2.72-.12 3.28.4 2.56 3.07-1.22 4.52-5.73 7.77-10.6 7.31-17.18-1.65-34.36-3.41-51.53-5.13-1.58-.16-3.17-.49-4.74-.45-8.47.24-15.34-4.06-22.56-7.58-19.41-9.47-28.15-26.55-33.26-46.23-.5-1.87-.26-3.93-.37-6.36z" fill="#010100"/><path d="m67.41 109.28c4.51 1.55 6.94 4.72 8.28 8.43 2.27 6.25 4.3 12.61 5.89 19.06 3.94 16.02 8.76 31.87 10.36 48.38.79 8.22.85 16.54 2.04 24.7 1.92 13.08 4.9 26 6.67 39.09 1.08 7.98 4.96 14.48 8.5 21.3 3.56 6.86 7.07 13.78 7.39 21.76.03.63.16 1.3.01 1.9-.35 1.4-.49 3.66-1.33 3.97-2.09.79-4.27 1.45-6.39-1.19-5.57-6.95-10.18-14.38-12.71-22.9-7.39-24.84-14.88-49.65-21.75-74.64-4.36-15.88-5.29-32.34-6.38-48.75-.51-7.68-2.23-15.28-3.34-22.92-.9-6.24.62-12.12 2.76-18.19z" fill="#010100"/><path d="m65.15 59.33c-2.06-5.29-1.93-5.73 2.32-8.69 4.7-3.27 9.18-6.92 14.15-9.69 4.38-2.44 9.24-4.08 14.01-5.71 3.11-1.06 7.13.83 8.45 3.39 1.38 2.67.18 7.29-2.41 9.41-4.62 3.8-10.04 5.82-15.8 7.04-6.82 1.45-13.68 2.81-20.72 4.25z" fill="#010100"/><g fill="#fbfafc"><path d="m342.2 3.2-6.3 9.2h6.1v1.2h-8.2v-.5l6.2-9.1h-5.7v-1.2h7.8v.4z"/><path d="m344 13.7v-10.9h3.1c1.6 0 3 .5 4.1 1.4 1.1 1 1.6 2.2 1.6 3.9s-.5 3-1.6 4-2.5 1.5-4.2 1.5h-3zm1.4-9.6v8.4h1.6c1.4 0 2.5-.4 3.2-1.1.8-.8 1.2-1.8 1.2-3.2s-.4-2.4-1.2-3.1-1.8-1-3.1-1z"/><path d="m356.3 2.8v10.9h-1.4v-10.9z"/><path d="m366.6 13.2c-.8.4-1.8.6-3 .6-1.6 0-2.8-.5-3.7-1.5s-1.4-2.3-1.4-3.9c0-1.7.5-3.2 1.6-4.2s2.4-1.6 4-1.6c1 0 1.9.1 2.6.4v1.5c-.8-.4-1.6-.6-2.6-.6-1.2 0-2.2.4-3 1.2s-1.1 1.9-1.1 3.3c0 1.3.4 2.3 1.1 3.1s1.6 1.1 2.8 1.1c1.1 0 2-.2 2.8-.7v1.3z"/><path d="m368.2 13c0-.3.1-.5.3-.6.2-.2.4-.3.6-.3.3 0 .5.1.7.3s.3.4.3.6-.1.5-.3.6c-.2.2-.4.3-.7.3s-.5-.1-.6-.3c-.2-.2-.3-.4-.3-.6z"/><path d="m381.1 13.7h-1.7l-5.5-8.4c-.2-.2-.3-.5-.4-.7 0 .2.1.8.1 1.5v7.6h-1.4v-10.9h1.8l5.3 8.3c.3.4.4.6.4.8 0-.3-.1-.8-.1-1.6v-7.5h1.4v10.9z"/><path d="m389.7 13.7h-5.8v-10.9h5.6v1.2h-4.2v3.5h3.9v1.2h-3.9v3.7h4.4z"/><path d="m398.4 4.1h-3.1v9.6h-1.4v-9.6h-3.1v-1.3h7.7v1.3z"/></g></svg>