<svg enable-background="new 0 0 400 400" viewBox="0 0 400 400" xmlns="http://www.w3.org/2000/svg"><path d="m309.02 354.95c-6.81.04-14.15-1.33-21.32-3.84-4.42-1.55-8.29-3.77-10.83-7.82-3.81-6.09-7.81-12.09-11.22-18.41-2.51-4.67-3.42-9.85-3.56-15.3-.15-6.1-1.35-12.17-2.08-18.26-.11-.93-.39-1.96-.14-2.8 1.77-5.88 3.51-11.77 5.61-17.54.61-1.67 2.31-2.97 3.6-4.35 11.46-12.28 19.44-26.46 22.53-43.04 2.06-11.03 2.37-22.11-2.39-32.76-1.55-3.47-2.97-7.06-3.93-10.73-2.09-7.95-7-13.76-12.4-19.79-13.68-15.27-30.33-26.3-47.94-36.17-6.37-3.57-10.62-8.7-10.91-16.05-.2-5.01.62-10.1 1.39-15.1 1.03-6.7 5.54-11.81 8.69-17.53.47-.85 1.53-1.43 2.41-1.98 7.34-4.65 14.46-9.72 22.14-13.72 4.27-2.22 9.51-3.82 14.24-3.66 11.96.4 23.8 2.35 35.12 6.66 7.01 2.68 11.05 7.66 11.78 15.12.19 1.92 1.01 2.68 2.73 2.71 4.15.07 6.18 2.38 7.07 6.23.42 1.84 1.22 3.62 2.06 5.32 2.31 4.63 3.15 8.99.33 14-1.13 2.01-.36 5.39.19 8 1.09 5.18.43 9.54-3.79 13.21-2.47 2.14-4.26 5.08-6.79 7.12-3.24 2.61-6.67 5.31-10.47 6.85-9.4 3.82-12.4 8.81-9.66 18.61 1.54 5.49 3.68 10.82 5.56 16.21.17.49.4 1.01.75 1.37 6.76 6.88 9.06 15.65 10.27 24.79 1.54 11.6 2.22 23.25-.16 34.81-.55 2.67-2.3 5.09-3.44 7.64-1.39 3.13-2.69 6.29-4.08 9.42-1.1 2.49-2.05 5.09-3.46 7.41-4.82 7.98-10.04 15.72-14.67 23.8-5.68 9.9-6.2 20.99-6.32 32.07-.01.93.7 1.97 1.29 2.8 3.95 5.64 7.92 11.28 12 16.82.67.9 1.88 1.78 2.95 1.95 8.26 1.31 16.55 2.49 24.85 3.58 1.03.14 2.31-.27 3.23-.83 9.75-5.98 19.61-11.82 29.07-18.24 2.46-1.67 3.5-5.34 5.46-7.88 1.22-1.58 2.72-3.29 4.48-4.01 2.4-.98 4.05.92 3.41 3.46-.97 3.88-1.83 7.81-3.08 11.61-.88 2.69-2.21 5.25-3.52 7.77-1.09 2.09-2.79 3.27-5.38 3.24-1.25-.02-2.66.63-3.73 1.37-2.43 1.69-4.83 3.48-7.01 5.47-8.55 7.85-18.86 10.5-30.93 10.39zm-45.07-282.78c-.08.22-.15.44-.23.66-2.95.25-5.92.34-8.84.79-8.94 1.37-16.53 4.78-21.24 13.23-2.14 3.85-5.13 7.26-7.93 10.71-5.1 6.29-5.18 6.75-.05 13.19.92 1.15 1.99 2.2 3.08 3.18 6.41 5.77 13.29 10.77 21.62 13.49 2.1.69 4.16 1.61 6.11 2.65 6.03 3.23 12.21 3.01 18.46.92 10.16-3.39 19.29-8.69 27.45-15.56 1.88-1.59 3.69-4.15 4.05-6.49.77-5.06 1.31-10.37.58-15.38-.96-6.62-4.59-11.67-11.9-13.16-4.24-.87-8.34-2.39-12.53-3.5-6.19-1.62-12.42-3.15-18.63-4.73zm3.45 218.14c.32.12.65.24.97.36.54-1.22 1.4-2.43 1.48-3.68.04-.65-1.29-1.39-2.46-2.54.01 2.63.01 4.24.01 5.86z" fill="#010100"/><path d="m31.73 115.89c4.27-4.27 9.79-4.11 14.94-4.16 10.91-.12 21.83.28 32.74.55 18.88.47 37.65 2.09 56.32 4.92 3.28.5 6.74-.31 10.12-.4 1.12-.03 2.5-.06 3.33.52 2.81 1.98 5.74 1.75 8.81 1.11 1.14-.24 2.3-.35 3.46-.48 4.6-.53 6.28.67 7.49 5.49-5.15 4.02-11.27 4.76-17.57 4.81-6.88.06-13.76.1-20.64.01-5.89-.08-9.52 2.7-12.75 7.63-3.71 5.67-4.45 11.07-3.26 17.6.72 3.93-.68 8.26-1.17 12.75 5.68 2.28 6.32 8.08 6.6 13.47.73 13.76.94 27.55 1.21 41.32.03 1.46-.78 3.04-1.53 4.38-.86 1.54-.99 2.72.57 3.78 2.27 1.55 2.73 3.69 2.51 6.34-.4 4.75-.19 9.57-.88 14.27-.29 1.97-2.24 3.69-3.49 5.61 6.27 6.61 6.6 13.85.23 16.31-4.28-4.73-6.59-10.4-7.36-16.72-1.15-9.46-1.77-19.01-3.33-28.4-3.43-20.69-7.51-41.26-10.93-61.95-1.48-8.98-2.04-18.11-2.9-27.18-.53-5.54-2.21-7.03-7.63-7.65-12.5-1.44-25-2.96-37.44-4.85-5.99-.91-11.69-3.07-16.18-7.51-.45-.43-.79-.97-1.27-1.57z" fill="#010100"/><path d="m135.9 48.18c4.43.39 8.88.59 13.27 1.23 4.52.65 8.16 2.78 9.97 7.34.75 1.9.51 2.97-1.41 4.06-6.3 3.56-13.09 5.69-20.21 6.07-16.86.9-32.91 5.55-49.1 9.67-1.89.48-4.2.36-6.06-.27-3.2-1.08-6.31-1.76-9.56-.74-3.68 1.16-6.35-.1-9.52-2.21-3.48-2.32-4.31-5-4.49-8.65-.1-2.09.34-2.93 2.54-3.37 17.54-3.47 35.03-7.19 52.58-10.61 7.22-1.4 14.55-2.23 21.83-3.33.05.27.1.54.16.81z" fill="#010100"/><path d="m67.32 280.46c-.53-5.42-1.3-10.83-1.56-16.27-.84-17.64-5.02-34.74-8.17-52.01-2.33-12.76-3.43-25.57-1.82-38.54.36-2.9.07-5.93-.24-8.86-.66-6.23.18-10.3 3.43-14.58 4.55 2.31 6.47 6.26 6.41 11.08-.07 4.97-.83 9.92-.95 14.89-.04 1.86.81 3.75 1.37 5.6.77 2.48 1.95 4.88 2.43 7.41 1.44 7.58 2.51 15.23 3.94 22.81.7 3.73.35 7.14-1.73 10.31-1.28 1.95-1.24 3.85-.39 5.99 5.21 13.07 4.91 26.83 4.07 40.43-.25 4.09-3.91 7.96-6 11.94-.26-.07-.52-.14-.79-.2z" fill="#010100"/><path d="m156.27 153.43c2.91 3.47 5.41 6.33 7.75 9.31.52.66.71 1.74.7 2.62-.01 2.22-.1 4.46-.38 6.66-1.34 10.28.86 20.23 2.57 30.24.43 2.5 1.07 5.06.93 7.55-.6 10.63 3.26 20.39 5.51 30.47.41 1.82.47 3.74.57 5.62.48 8.97.81 17.95 1.43 26.9.33 4.82-.53 9.17-4.32 13.28-1.19-4.18-2.78-8.29-3.49-12.54-4.51-27.03-9.07-54.06-13.09-81.17-1.89-12.73-.87-25.53 1.82-38.94z" fill="#010100"/><g fill="#fbfafc"><path d="m342.2 3.2-6.3 9.2h6.1v1.2h-8.2v-.5l6.2-9.1h-5.7v-1.2h7.8v.4z"/><path d="m344 13.7v-10.9h3.1c1.6 0 3 .5 4.1 1.4 1.1 1 1.6 2.2 1.6 3.9s-.5 3-1.6 4-2.5 1.5-4.2 1.5h-3zm1.4-9.6v8.4h1.6c1.4 0 2.5-.4 3.2-1.1.8-.8 1.2-1.8 1.2-3.2s-.4-2.4-1.2-3.1-1.8-1-3.1-1z"/><path d="m356.3 2.8v10.9h-1.4v-10.9z"/><path d="m366.6 13.2c-.8.4-1.8.6-3 .6-1.6 0-2.8-.5-3.7-1.5s-1.4-2.3-1.4-3.9c0-1.7.5-3.2 1.6-4.2s2.4-1.6 4-1.6c1 0 1.9.1 2.6.4v1.5c-.8-.4-1.6-.6-2.6-.6-1.2 0-2.2.4-3 1.2s-1.1 1.9-1.1 3.3c0 1.3.4 2.3 1.1 3.1s1.6 1.1 2.8 1.1c1.1 0 2-.2 2.8-.7v1.3z"/><path d="m368.2 13c0-.3.1-.5.3-.6.2-.2.4-.3.6-.3.3 0 .5.1.7.3s.3.4.3.6-.1.5-.3.6c-.2.2-.4.3-.7.3s-.5-.1-.6-.3c-.2-.2-.3-.4-.3-.6z"/><path d="m381.1 13.7h-1.7l-5.5-8.4c-.2-.2-.3-.5-.4-.7 0 .2.1.8.1 1.5v7.6h-1.4v-10.9h1.8l5.3 8.3c.3.4.4.6.4.8 0-.3-.1-.8-.1-1.6v-7.5h1.4v10.9z"/><path d="m389.7 13.7h-5.8v-10.9h5.6v1.2h-4.2v3.5h3.9v1.2h-3.9v3.7h4.4z"/><path d="m398.4 4.1h-3.1v9.6h-1.4v-9.6h-3.1v-1.3h7.7v1.3z"/></g></svg>