<svg enable-background="new 0 0 400 400" viewBox="0 0 400 400" xmlns="http://www.w3.org/2000/svg"><path d="m182.71 181.04c-1.33-2.92-.66-4.82 1.44-6.96 8.39-8.54 16.73-17.14 24.69-26.07 4.54-5.1 3.98-9.52-.08-15.07-4.88-6.67-9.21-13.74-14.24-20.29-3.32-4.32-7.29-8.18-11.25-11.94-2.25-2.13-4.76-2.11-7.69-.12-10.25 6.96-20.8 13.5-31.12 20.36-2.52 1.67-4.76 3.85-6.85 6.06-2.68 2.84-5.46 3.12-8.39.51-1.49-1.33-3.22-2.43-4.57-3.88-1.58-1.7-1.69-3.33.54-4.99 7.84-5.79 15.58-11.71 23.29-17.67 5.7-4.4 11.16-9.12 16.96-13.37 7.94-5.82 15.9-11.64 24.2-16.92 15.56-9.91 28.81-22.65 43-34.23 3.05-2.49 7.89-1.22 7.78 2.59-.33 11.93 6.48 21.79 8.74 32.94 3.77 18.57.68 36-7.77 52.69-.42.83-1.08 1.55-1.7 2.27-5.67 6.52-6.65 12.25-2.27 19.8 6.8 11.72 14.14 23.13 21.13 34.75 1.22 2.02 1.74 4.46 2.64 6.68 1.85 4.56 3.74 9.11 5.59 13.67 2.74 6.73 4.47 13.58 3.78 21.01-.28 2.95.95 6.01 1.16 9.04.22 3.23.01 6.49.03 9.73.02 3.71-.19 7.45.21 11.12.56 5.12-.34 9.74-2.65 14.37-1.27 2.54-1.63 5.63-1.94 8.52-.47 4.38.28 8.92-2.24 12.98-.45.72-.34 1.86-.28 2.79.44 7.17-1.16 14.04-2.38 21.05-2.12 12.19-3.16 24.56-4.8 36.83-.64 4.74.08 9.77-3.14 14.03-2.38 3.15-4.68 3.39-6.84.22-3.4-5.01-4.92-10.44-4.09-16.55 1.81-13.32 3.63-26.65 5.14-40.01.95-8.4.57-17.01 2.15-25.27 3.47-18.22 3.12-36.56 2.12-54.82-1.01-18.48-6.9-35.65-17.64-51-1.69-2.42-2.72-5.4-3.62-8.26-1.33-4.23-3.75-7.31-7.86-8.96-3.41-1.36-6-.64-8.58 1.98-4.09 4.15-8.18 8.31-12.4 12.33-5.59 5.31-12.25 8.14-20.2 8.06zm39.24-55.49c4.03-2.36 7.02-4.62 7.91-8.91 1.07-5.18 2.87-10.23 3.55-15.45.88-6.67 1.53-13.48 1.23-20.18-.26-5.99-4.07-10.1-10.08-11.64-1.01-.26-2.43-.21-3.26.33-6.69 4.29-13.31 8.69-19.87 13.17-.66.45-1.24 1.77-1.08 2.52.81 3.7 1.15 7.79 3 10.94 5.87 9.89 12.32 19.44 18.6 29.22z" fill="#010100"/><path d="m142.66 276.03c.86-5.21 1.71-10.42 2.62-15.62.12-.7.43-1.46.88-2.01 6.9-8.56 10.04-19.03 14.83-28.66 2.98-6 7.1-11.44 10.73-17.12 1.36-2.13 3.16-2.03 5.22-1.06 3.53 1.67 7.49 8.6 6.67 12.18-.22.94-1.2 1.69-1.75 2.57-2.56 4.1-5.14 8.2-7.6 12.36-.35.58-.43 1.95-.07 2.23 4.67 3.66 9.35 7.65 15.66 7.66 7.58.01 11.01-3.41 14.28-10.5 1.9-4.11 2.93-8.6 4.5-12.87 1.19-3.25 3.2-5.88 6.95-6.1 1.12-.07 2.64.65 3.41 1.52 5.15 5.79 5.45 11.9 2.18 19.04-5.23 11.41-11.26 22.17-19.11 32.04-3.76 4.73-6.06 10.62-9.13 15.92-5.46 9.42-14.29 13.56-24.59 14.89-2.46.32-5.17-.78-7.68-1.53-4.33-1.3-9.14-1.39-12.04-6-3.35-5.34-5.66-10.86-5.48-17.24.01-.53 0-1.06 0-1.59-.16-.06-.32-.09-.48-.11zm27.5-21.62c-1.88 2.71-3.6 5.23-5.36 7.73-2.79 3.97-6.05 7.78-6.28 12.91-.08 1.82.3 4.02 1.3 5.47 2.43 3.52 11.51 5.03 15.25 2.9.54-.31 1.11-.68 1.49-1.17 3.38-4.35 6.88-8.62 9.96-13.17.92-1.37 2.38-3.85.02-5.3-5.29-3.25-10.79-6.2-16.38-9.37z" fill="#010100"/><g fill="#fbfafc"><path d="m342.2 3.2-6.3 9.2h6.1v1.2h-8.2v-.5l6.2-9.1h-5.7v-1.2h7.8v.4z"/><path d="m344 13.7v-10.9h3.1c1.6 0 3 .5 4.1 1.4 1.1 1 1.6 2.2 1.6 3.9s-.5 3-1.6 4-2.5 1.5-4.2 1.5h-3zm1.4-9.6v8.4h1.6c1.4 0 2.5-.4 3.2-1.1.8-.8 1.2-1.8 1.2-3.2s-.4-2.4-1.2-3.1-1.8-1-3.1-1z"/><path d="m356.3 2.8v10.9h-1.4v-10.9z"/><path d="m366.6 13.2c-.8.4-1.8.6-3 .6-1.6 0-2.8-.5-3.7-1.5s-1.4-2.3-1.4-3.9c0-1.7.5-3.2 1.6-4.2s2.4-1.6 4-1.6c1 0 1.9.1 2.6.4v1.5c-.8-.4-1.6-.6-2.6-.6-1.2 0-2.2.4-3 1.2s-1.1 1.9-1.1 3.3c0 1.3.4 2.3 1.1 3.1s1.6 1.1 2.8 1.1c1.1 0 2-.2 2.8-.7v1.3z"/><path d="m368.2 13c0-.3.1-.5.3-.6.2-.2.4-.3.6-.3.3 0 .5.1.7.3s.3.4.3.6-.1.5-.3.6c-.2.2-.4.3-.7.3s-.5-.1-.6-.3c-.2-.2-.3-.4-.3-.6z"/><path d="m381.1 13.7h-1.7l-5.5-8.4c-.2-.2-.3-.5-.4-.7 0 .2.1.8.1 1.5v7.6h-1.4v-10.9h1.8l5.3 8.3c.3.4.4.6.4.8 0-.3-.1-.8-.1-1.6v-7.5h1.4v10.9z"/><path d="m389.7 13.7h-5.8v-10.9h5.6v1.2h-4.2v3.5h3.9v1.2h-3.9v3.7h4.4z"/><path d="m398.4 4.1h-3.1v9.6h-1.4v-9.6h-3.1v-1.3h7.7v1.3z"/></g></svg>