<svg enable-background="new 0 0 400 400" viewBox="0 0 400 400" xmlns="http://www.w3.org/2000/svg"><path d="m97.2 125.01c7.85-3.97 15.76-7.99 23.68-11.99 15.22-7.68 30.53-15.18 45.62-23.12 4.93-2.59 9.5-6.01 13.84-9.55 12.37-10.07 26.05-17.64 41.16-22.74 4.8-1.62 10.32-2.83 13.83-6.05 3.5-3.23 4.89-8.75 7.21-13.27.48-.93.99-1.84 1.45-2.71 13.09 1.35 23.26 10.12 25.72 23.29 4.14 22.15 2.81 44.09-4.38 65.53-.6 1.8-2.21 3.53-3.79 4.69-5.45 4.01-11.28 7.51-16.57 11.7-2.47 1.96-4.04 5.05-6.21 7.88 1.32 1.01 2.2 1.71 3.11 2.39 12.96 9.57 25.82 19.29 38.96 28.61 4.38 3.11 7.11 7.08 9.24 11.74 6.21 13.62 7.67 28.13 7.77 42.82.14 20.67.17 41.35-.1 62.02-.25 19.11-2.33 38.07-5.7 56.88-.15.84-.69 1.84-1.36 2.3-2.7 1.84-5.52 3.5-8.43 5.3-6.95-8.32-9.39-17.83-8.68-28.25.56-8.14 2.01-16.28 1.84-24.39-.26-12.27-1.33-24.53-2.53-36.75-1.82-18.56-3.98-37.09-6.16-55.61-.26-2.22-1.09-4.65-2.42-6.4-4.02-5.29-7.9-10.87-12.77-15.31-13.15-12-27.96-21.64-44.49-28.43-1.43-.59-3.22-.39-4.85-.37-.93.01-1.85.45-2.78.62-8.18 1.5-15.45 4.36-22.13 9.89-10.87 9-24.27 12.64-38.03 14.86-11.63 1.88-23.3 2.89-35.08 2.41-.19-.43-.37-.7-.42-.99-1.04-5.79-1.03-5.79 4.38-8.38 16.52-7.92 32.99-15.93 49.57-23.71 5.07-2.38 10.45-4.06 15.65-6.17 1.65-.67 3.36-1.44 4.68-2.59 3.71-3.23 3.41-7.41-.53-10.21-9.07-6.46-18.09-12.97-27.24-19.3-1.21-.84-3.32-1.42-4.58-.95-5.33 1.98-10.59 4.2-15.69 6.72-3.59 1.78-6.77 4.37-10.33 6.24-2.78 1.46-5.76 2.91-8.8 3.4-6.6 1.04-11.98-3.88-13.66-12.05zm113.35 4.06c4.31.26 8.05-1.31 11.13-3.99 5.99-5.19 11.63-10.78 17.58-16.02 5.6-4.93 7.22-11.48 8.03-18.42.37-3.11-.86-5.55-3.93-6.41-2.29-.64-4.85-1.24-7.12-.86-6.77 1.14-13.54 2.45-20.15 4.27-11.2 3.09-21.54 7.99-30.85 15.16-3.7 2.85-4.13 5.93-2.65 9.59 1.01 2.48 2.36 5.22 4.37 6.84 6.87 5.51 14.6 9.31 23.59 9.84z" fill="#010100"/><path d="m155.18 223.15c7.19 3.22 11.95 7.22 13.17 14.77.8 4.97 2.56 9.79 3.95 14.66 1.21 4.24 4.57 6.16 8.49 6.61 8.92 1.02 17.44-1.55 25.97-3.63.62-.15 1.27-1.53 1.35-2.38.63-6.75 1.07-13.52 1.66-20.27.51-5.78 2.93-7.28 8.54-5.65 6.09 1.77 10.07 5.14 11.93 11.66 3.75 13.1 4.22 26.4 3.1 39.73-1.83 21.87-5.02 43.57-11.13 64.73-3.48 12.07-17.45 23.06-30.09 23.51-5.93.21-11.88.1-17.81-.08-1.17-.04-2.6-.81-3.43-1.69-8.18-8.83-11.77-19.8-13.6-31.31-2.03-12.71-5.16-25.06-9.69-37.09-.4-1.06-.62-2.26-.61-3.4.19-17.07.09-34.17 3.28-51.02 1.2-6.32 3.18-12.48 4.92-19.15zm21.05 74.59c.42 13.47 2.48 24.55 5.25 35.58 1.09 4.36 3.6 5.69 7.5 6.08 6.43.64 12.2-2.6 13.85-8.76 2.82-10.51 5.6-21.07 7.48-31.77.82-4.69.05-9.94-1.19-14.63-1.24-4.72-5.57-6.35-10.35-5.17-6.06 1.49-12.1 3.06-18.18 4.48-1.75.41-2.8 1.13-3.01 3.03-.47 4.41-1.06 8.81-1.35 11.16z" fill="#010100"/><g fill="#fbfafc"><path d="m342.2 3.2-6.3 9.2h6.1v1.2h-8.2v-.5l6.2-9.1h-5.7v-1.2h7.8v.4z"/><path d="m344 13.7v-10.9h3.1c1.6 0 3 .5 4.1 1.4 1.1 1 1.6 2.2 1.6 3.9s-.5 3-1.6 4-2.5 1.5-4.2 1.5h-3zm1.4-9.6v8.4h1.6c1.4 0 2.5-.4 3.2-1.1.8-.8 1.2-1.8 1.2-3.2s-.4-2.4-1.2-3.1-1.8-1-3.1-1z"/><path d="m356.3 2.8v10.9h-1.4v-10.9z"/><path d="m366.6 13.2c-.8.4-1.8.6-3 .6-1.6 0-2.8-.5-3.7-1.5s-1.4-2.3-1.4-3.9c0-1.7.5-3.2 1.6-4.2s2.4-1.6 4-1.6c1 0 1.9.1 2.6.4v1.5c-.8-.4-1.6-.6-2.6-.6-1.2 0-2.2.4-3 1.2s-1.1 1.9-1.1 3.3c0 1.3.4 2.3 1.1 3.1s1.6 1.1 2.8 1.1c1.1 0 2-.2 2.8-.7v1.3z"/><path d="m368.2 13c0-.3.1-.5.3-.6.2-.2.4-.3.6-.3.3 0 .5.1.7.3s.3.4.3.6-.1.5-.3.6c-.2.2-.4.3-.7.3s-.5-.1-.6-.3c-.2-.2-.3-.4-.3-.6z"/><path d="m381.1 13.7h-1.7l-5.5-8.4c-.2-.2-.3-.5-.4-.7 0 .2.1.8.1 1.5v7.6h-1.4v-10.9h1.8l5.3 8.3c.3.4.4.6.4.8 0-.3-.1-.8-.1-1.6v-7.5h1.4v10.9z"/><path d="m389.7 13.7h-5.8v-10.9h5.6v1.2h-4.2v3.5h3.9v1.2h-3.9v3.7h4.4z"/><path d="m398.4 4.1h-3.1v9.6h-1.4v-9.6h-3.1v-1.3h7.7v1.3z"/></g></svg>