<svg enable-background="new 0 0 400 400" viewBox="0 0 400 400" xmlns="http://www.w3.org/2000/svg"><path d="m146.85 146c7.58-1.25 14.87-2.46 22.17-3.64 6.9-1.12 13.79-2.28 20.71-3.26 2.78-.39 4.01-2.36 4.2-4.5.41-4.6.85-9.35.16-13.86-1.28-8.24-3.27-16.39-5.24-24.5-.32-1.31-1.89-2.92-3.2-3.29-6.63-1.9-12.08-5.48-16.72-10.51-1.2-1.3-2.69-2.41-4.23-3.32-5.4-3.18-7.11-2.84-11.18 1.84-4.18 4.8-8.41 9.54-12.58 14.35-5.58 6.44-12.87 8.94-21.12 9.52-3.29.23-3.26-2.55-4.22-4.28-.35-.63.4-2.28 1.11-3.04 7.55-8.16 15.36-16.08 22.71-24.41 2.61-2.96 4.14-6.87 6.26-10.28.91-1.47.57-2.43-.63-3.54-2.49-2.31-4.85-4.74-7.26-7.14-5.57-5.56-6.62-9.07-4.98-17.37 1.46.73 2.93 1.27 4.18 2.12 11.63 7.94 23.3 15.83 34.76 24 2.69 1.92 4.61 4.89 6.9 7.37 4.37 4.73 8.58 9.64 13.19 14.12 2.93 2.85 6.27 3.02 10.44 1.26 11.87-5 21.03-13.78 31.16-21.22 9.91-7.27 19.57-14.89 29.56-22.05 2.14-1.53 5.21-1.89 7.92-2.41.56-.11 2 1.39 2.08 2.23.26 2.95.23 5.94.03 8.89-.07.98-.81 2.14-1.59 2.81-2.81 2.41-5.75 4.69-8.69 6.95-7.16 5.51-6.95 13.5.66 18.4 4.18 2.69 8.55 5.1 12.85 7.6 4.19 2.44 7.3 5.76 8.65 10.52.88 3.11-.69 5.19-3.85 4.4-2.45-.61-4.76-2.15-6.9-3.61-7.24-4.97-14.36-10.11-21.56-15.14-4.18-2.91-8.24-3.1-13.35-1.36-10.04 3.42-18.57 8.49-26.2 15.94-4.61 4.5-7.14 8.66-6.56 15.23.62 7.05.24 14.2.08 21.3-.05 2.19.81 3.26 2.65 4.08 6.57 2.96 13.5 3.31 20.55 3.1 4.97-.15 9.96-.45 14.9-.15 4.12.25 8.07 1.48 10.48 5.75-6.36 2.82-12.85 3.35-19.4 3.71-5.8.32-11.61.7-17.39 1.26-1.63.16-3.24.96-4.77 1.66-4.17 1.91-6.33 4.56-6.04 9.82 1.79 31.89 1.25 63.81-.12 95.69-.32 7.37-2.4 14.65-3 22.03-.82 9.9-.98 19.86-1.44 29.79-.22 4.75-.04 9.56-.78 14.23-.86 5.46-4.13 8.84-9.16 10.71-.12-.71-.32-1.37-.32-2.03-.02-16.01-.38-32.04.11-48.03.38-12.38 1.97-24.72 2.8-37.09.71-10.68 1.1-21.38 1.63-32.08.03-.53.08-1.1-.09-1.58-3.55-10.29-2.34-20.96-2.48-31.51-.08-6.26-.01-12.51-.02-18.77-.01-5.24-2.59-8.35-7.84-8.31-5.57.04-11.14.85-16.71 1.35-2.21.2-4.41.58-6.63.75-8.24.68-12.95-2.23-16.65-10.5z" fill="#010100"/><path d="m243.12 234.56c1.69 7.04 3.42 14.11 5.09 21.2 2.15 9.13 11.25 14.85 20.51 12.72.88-.2 2.04-1.12 2.25-1.92.79-3.01 2.27-6.34 1.64-9.14-3.42-15.27-2.64-30.79-3.41-46.22-.3-5.93-.49-11.87-.55-17.8-.02-1.81-.6-2.87-2.3-3.17-3.71-.65-7.48-1.85-11.16-1.64-5.51.31-9.27-1.97-12.74-6.05 6.46-2.98 13.12-3.56 19.78-3.64 14.09-.15 28.19-.08 42.28 0 2.31.01 4.67.37 6.92.9 7.13 1.66 14.11.14 21.14-.71 5.2-.63 7.78 1.09 9.78 6.63-4.7.56-9.3 1.04-13.88 1.69-1.97.28-4.03.6-5.82 1.41-3.15 1.42-5.49 3.35-5.98 7.42-1.16 9.78-3.07 19.47-4.3 29.24-.68 5.39-3.76 8.05-8.58 9.21-3.29.79-6.64 1.36-10 1.84-6.33.9-9.72 5.14-10.4 10.8-.78 6.44-.3 13.05-.16 19.58.02.8 1.16 1.97 2.04 2.3 8.66 3.21 17.68 2.95 26.68 2.35.9-.06 2-1.35 2.51-2.33 4.03-7.69 7.94-15.44 11.9-23.17.51-1 1.08-1.97 1.77-3.21 3.59 5.2 4.34 10.81 3.1 16.33-1.29 5.73-3.62 11.22-5.62 16.78-.33.91-1.14 1.9-1.99 2.34-6.15 3.19-12.47 5.75-19.68 4.75-2.62-.36-5.31-.67-7.92-.46-2.68.22-5.49.69-7.91 1.78-3.13 1.4-5.01 3.87-4.72 7.81.34 4.75.2 9.54.03 14.31-.07 2.12.65 3.71 2.5 4.26 3.8 1.12 7.66 2.31 11.57 2.67 3.86.35 7.82-.45 11.73-.46 2.11-.01 3.12-.95 3.53-2.78.41-1.85.41-3.83 1.08-5.57.62-1.63 1.66-3.26 2.96-4.38.51-.44 2.67.11 3.31.87 5.3 6.23 7.69 13.41 5.82 21.54-1.5 6.49-3.29 12.91-5.18 19.29-.48 1.62-1.6 3.22-2.82 4.42-13.08 12.81-29.11 17.23-46.93 15.82-6.2-.49-12.35-1.78-18.47-3.02-1.7-.34-3.49-1.52-4.68-2.82-7.17-7.88-11.17-17.17-11.62-27.86-.31-7.41-.3-14.84-.7-22.24-.19-3.55.88-5.89 4.33-7.01.78-.25 1.49-.74 2.45-1.23 2.41 4.34 4.9 8.51 7.08 12.83 1.45 2.88 3.62 4.11 6.65 3.79 3.99-.42 7.98-.94 11.93-1.65.92-.17 2.17-1.16 2.4-2.01.95-3.55 1.95-7.16 2.19-10.8.3-4.42-.01-8.9-.34-13.34-.08-1-1.17-2.43-2.12-2.78-5.37-1.96-10.77-3.91-16.29-5.37-8.62-2.27-13.45-8.16-15.03-16.34-1.38-7.11-1.72-14.48-1.94-21.75-.13-4.92.72-5.33 6.29-6.01zm32.51 90.07c-9.35-1.12-16.35.17-22.83 4.31-2.48 1.58-3.76 3.57-3.95 6.38-.44 6.6.21 11.45 8.18 13.63 4.86 1.33 9.91 2.52 14.91 2.65 12.24.33 23.99-1.85 34.67-8.45 5.17-3.2 6.06-8.08 6.2-13.37.07-2.65-1.33-4.56-3.9-5.61-5.67-2.3-11.52-2.51-17.48-1.69-5.85.8-11.7 1.59-15.8 2.15zm6.14-107.91c.71 2.19 1.95 6.15 3.32 10.08.2.58 1.12 1.46 1.48 1.37 4.27-1.17 8.49-2.48 12.71-3.82.28-.09.43-.69.59-1.07 3.15-7.7 5.17-15.69 5.55-23.99.25-5.45-2.52-8.91-7.98-10.87-4.73-1.7-9.22-.48-12.44 3.43-.36.44-.51 1.12-.58 1.71-.83 7.04-1.62 14.08-2.65 23.16z" fill="#010100"/><path d="m127.03 259.34c4.93-4.59 10.06-8.65 14.25-13.52 2.97-3.45 4.76-7.96 6.91-12.08.87-1.66 1.86-3.16 3.78-2.36 1.1.45 2.41 1.96 2.48 3.05.25 4.28.13 8.59-.04 12.88-.06 1.45-.86 2.86-.99 4.32-.72 8.17-6.53 10.94-13.31 12.76-3.16.85-6.35 1.61-9.45 2.65-3.54 1.18-6 3.6-6.71 7.36-1.7 9.03-3.55 18.05-4.84 27.15-.75 5.32-.51 10.78-.74 16.18-.1 2.29.55 3.47 3.25 3.33 4.44-.24 8.91-.18 13.35-.01 1.93.07 2.98-.62 3.57-2.33.73-2.09 1.56-4.15 2.22-6.26.86-2.73 2.15-5.03 5.13-6.12 4.7 5.33 6.53 11.74 6.65 18.47.1 5.78-.64 11.6-1.34 17.37-.41 3.41-2.17 6.22-4.86 8.62-8.43 7.52-17.44 13.84-28.91 15.67-10.23 1.63-20.09-.31-29.59-3.87-2.24-.84-3.98-3.4-5.6-5.44-10.63-13.37-13.21-28.47-9.51-45.03 2.66-.11 4.72.58 6.48 2.64 2.2 2.57 4.76 4.83 7.08 7.3 3.16 3.37 6.98 4.16 11.33 3.11 9.24-2.23 8.63-.87 10.38-10.51 2.28-12.58 2.11-25.31.26-38-.35-2.44-1.23-3.6-3.84-4.02-9.09-1.47-18.12-3.29-27.2-4.88-12.43-2.18-14.77-12.35-13.85-21.71.07-.7 1.22-1.77 1.95-1.84 1.48-.15 3.58-.28 4.44.57 2.37 2.38 4.21 5.29 6.31 7.95 4.8 6.04 11.2 8.86 18.79 9.18 2.96.12 5.95-.09 8.9.18 2.37.22 3.43-.9 4.25-2.84 2.91-6.91 2.18-14.15 2.01-21.33-.02-.64-1.05-1.63-1.77-1.81-3.98-1.01-7.99-2.51-12.02-2.58-13.55-.26-19.74-7.36-21.17-19.71-.59-5.15-.83-10.35-1.29-15.52-.51-5.68-1.88-7.25-7.47-8.57-1.12-.27-2.3-.41-3.46-.43-5.51-.1-8.83-2.95-10.71-8.87 4.3-1.06 8.47-2.57 12.76-3.06 8.3-.95 16.66-1.51 25.01-1.88 12.91-.58 25.83-.98 38.75-1.19 3.99-.06 8.04.49 11.98 1.23 4.04.76 7.41 2.85 9.69 7-6.85 1.26-13.37 2.49-19.92 3.64-5.92 1.04-6.87 1.45-7.38 7.4-.44 5.1-.09 10.34.55 15.43 1.21 9.67.98 11.51-4.63 19.53 6.01 4.25 5.39 10.26 4.23 16.51-.93 5.14-.66 10.13 3.86 14.29zm-18.93 95.84c4.61-.74 9.54-1.05 14.15-2.39 6.23-1.82 12.33-3.84 13.79-11.97 1.59-8.88-.15-12.33-9.3-12.63-8.21-.27-16.46.35-24.67.98-3.84.3-7.67 1.38-11.38 2.48-1.34.4-2.87 1.69-3.39 2.96-1.15 2.81-1.95 5.83-2.48 8.83-.89 4.97 1.71 8.7 6.65 9.51 5.41.88 10.88 1.47 16.63 2.23zm1.99-168.69c-2.8-.77-5.27-1.35-7.68-2.13-2.43-.79-4.61-.24-7.04.26-5.47 1.13-7.83 4.13-8.36 9.58-.64 6.51-2.39 13.04-.44 19.48.9 2.99 2.42 7.02 4.78 8.08 5.48 2.46 11.57 2.39 16.94-1.25.83-.57 1.71-1.8 1.72-2.73.12-10.36.08-20.72.08-31.29z" fill="#010100"/><g fill="#fbfafc"><path d="m342.2 3.2-6.3 9.2h6.1v1.2h-8.2v-.5l6.2-9.1h-5.7v-1.2h7.8v.4z"/><path d="m344 13.7v-10.9h3.1c1.6 0 3 .5 4.1 1.4 1.1 1 1.6 2.2 1.6 3.9s-.5 3-1.6 4-2.5 1.5-4.2 1.5h-3zm1.4-9.6v8.4h1.6c1.4 0 2.5-.4 3.2-1.1.8-.8 1.2-1.8 1.2-3.2s-.4-2.4-1.2-3.1-1.8-1-3.1-1z"/><path d="m356.3 2.8v10.9h-1.4v-10.9z"/><path d="m366.6 13.2c-.8.4-1.8.6-3 .6-1.6 0-2.8-.5-3.7-1.5s-1.4-2.3-1.4-3.9c0-1.7.5-3.2 1.6-4.2s2.4-1.6 4-1.6c1 0 1.9.1 2.6.4v1.5c-.8-.4-1.6-.6-2.6-.6-1.2 0-2.2.4-3 1.2s-1.1 1.9-1.1 3.3c0 1.3.4 2.3 1.1 3.1s1.6 1.1 2.8 1.1c1.1 0 2-.2 2.8-.7v1.3z"/><path d="m368.2 13c0-.3.1-.5.3-.6.2-.2.4-.3.6-.3.3 0 .5.1.7.3s.3.4.3.6-.1.5-.3.6c-.2.2-.4.3-.7.3s-.5-.1-.6-.3c-.2-.2-.3-.4-.3-.6z"/><path d="m381.1 13.7h-1.7l-5.5-8.4c-.2-.2-.3-.5-.4-.7 0 .2.1.8.1 1.5v7.6h-1.4v-10.9h1.8l5.3 8.3c.3.4.4.6.4.8 0-.3-.1-.8-.1-1.6v-7.5h1.4v10.9z"/><path d="m389.7 13.7h-5.8v-10.9h5.6v1.2h-4.2v3.5h3.9v1.2h-3.9v3.7h4.4z"/><path d="m398.4 4.1h-3.1v9.6h-1.4v-9.6h-3.1v-1.3h7.7v1.3z"/></g></svg>