<svg enable-background="new 0 0 400 400" viewBox="0 0 400 400" xmlns="http://www.w3.org/2000/svg"><g fill="#010100"><path d="m160.04 99.21c3.71-.46 7.2.53 10.53 2.15 5.23 2.54 10.19 5.85 15.64 7.67 13.63 4.56 27.56 5.45 41.57 1.39 1.01-.29 2.02-.65 2.97-1.1 1.43-.68 2.81-1.46 4.38-2.29-.37-.62-.6-1.19-.98-1.64-6.42-7.53-10.11-16.27-12.03-25.92-1.13-5.7-2.84-11.28-4.36-16.89-1.58-5.79-4.31-10.97-7.96-15.77-1.62-2.13-2.64-4.78-3.59-7.32-.33-.88.04-2.5.7-3.15 1.14-1.12 2.54-1.92 4.49-.8 6.07 3.46 12.43 6.43 18.39 10.06 4.79 2.91 9.81 4.22 15.32 4.33 2.75.05 5.5.62 8.24.54 7.42-.21 14.15 1.74 20.54 5.46 1.71 1 4.06.89 6.09 1.38 1.09.26 2.35.45 3.15 1.13 3.86 3.26 7.38 6.95 11.4 9.98 6.2 4.66 10.34 10.38 10.59 18.28.18 5.8.04 11.62-.19 17.43-.28 6.94-5.13 10.2-10.91 12.01-4.31 1.35-8.95 1.62-13.38 2.64-3.16.73-6.32 1.68-9.3 2.94-2.11.89-2.65 2.53-1.33 4.92 4.01 7.29 10.74 11.59 17.39 15.8 4.25 2.69 9.32 4.04 13.82 6.37 3.3 1.72 6.27 4.06 9.72 6.35-5.1 4.29-10.21 4.13-15.35 2.92-7.66-1.8-14.45-4.89-20.86-10.01-8.47-6.76-14.76-14.62-19.35-24.25-2.64-5.53-4.52-6.07-10.41-4.57-9.64 2.46-19.34 4.72-28.92 7.4-4.86 1.36-9.52.63-14.1-.48-16.57-4.02-30.31-12.79-41.54-25.56-.2-.23-.33-.53-.47-.81-.05-.09.02-.21.1-.59zm110.02 6.63c2.65-.42 5.5-.71 8.24-1.39 1.34-.33 3.14-1.14 3.62-2.22 2.84-6.42 4.64-13.21 1.58-19.96-3.95-8.7-10.74-14.82-19.97-17.33-7.83-2.13-15.93-3.26-23.93-4.73-3.33-.61-5.86 2.44-4.89 5.72 1.91 6.49 3.84 12.98 5.72 19.47 2.89 9.95 9.18 16.4 19.4 18.69 3.29.74 6.66 1.15 10.23 1.75z"/><path d="m180.85 305.6c5.86-2.16 11.41-1.23 17-.86 5.54.38 11.13.08 17.13.08-3.19-9.73-6.17-18.82-9.15-27.92.25-.28.5-.56.76-.84 2.58 1.64 5.76 2.78 7.62 5.02 3.26 3.93 6.05 8.36 8.44 12.9 4.28 8.12 7.86 16.61 12.25 24.67 3.46 6.37 9.41 10.55 15.25 14.59 3.67 2.53 7.1 2.07 10.72-1.03 5.57-4.77 11.89-7.58 19.71-7.88.02 4.23.82 7.86-2.84 11.61-10.79 11.05-23.07 19.88-36.76 26.85-2.06 1.05-4.29 1.8-6.48 2.55-1.07.37-2.26.4-3.34.58-2.6-5.3-2.59-5.29 1.79-8.89 2.29-1.88 4.65-3.7 6.83-5.7 1.23-1.13 2.36-2.47 3.18-3.91 2.02-3.56 1.77-4.53-1.31-7.2-6.73-5.83-13.61-11.49-20.14-17.53-3.79-3.51-8.32-4.95-13.06-6.02-5.46-1.23-11.04-2.01-16.48-3.31-4.52-1.05-8.46-3.22-11.12-7.76z"/><path d="m136.69 140.41c12.75 2.8 24.54 5.28 36.27 8.02 5.02 1.17 9.97 2.72 14.84 4.42 2.61.91 4.4 3.01 4.62 5.95.08 1.07-.06 2.38-.62 3.25-3.57 5.53-5.26 11.73-5.17 18.09.13 9.5 1.02 18.99 1.87 28.46.16 1.82 1.37 3.73 2.55 5.25 4.72 6.14 9.59 12.16 11.57 19.88 1.38 5.41-.86 7.49-6.33 6.29-3.42-.75-5.8-2.38-7.64-5.44-3.67-6.07-7.61-11.98-11.61-17.83-6.1-8.93-8.55-18.41-5.68-29.14 1.14-4.27 1.47-8.76 2.03-13.17.24-1.88.27-3.81.12-5.7-.39-4.98-.68-5.26-5.62-6.31-4.66-.99-9.29-2.16-13.99-2.85-3.1-.45-5.13-1.79-6.82-4.38-3.12-4.77-6.53-9.34-10.39-14.79z"/><path d="m311.87 224.28c-6.44-.04-11.32-.71-14.91-5.75-2.14-3.01-5.34-5.45-8.5-7.49-3.97-2.57-5.5-1.7-7.92 2.25-1.84 3-4.25 5.65-6.4 8.47-.44.57-.91 1.15-1.2 1.8-5.82 12.9-14.02 23.92-25.96 31.7-4.36 2.84-9.38 4.68-14.18 7.02-1.02-3.38.02-5.32 2-7.34 14.03-14.32 26.43-29.82 33.26-49.01 1.53-4.3 2.16-8.79.29-13.5-.75-1.89.52-4.58.91-7.23 7.4 2.44 13.43 6.03 18.76 10.77 7.2 6.4 14.53 12.68 21.29 19.52 1.8 1.81 1.68 5.52 2.56 8.79z"/><path d="m85.78 191.18c2.62-.44 4.57-.93 6.54-1.06 4.62-.32 8.86-1.7 12.93-3.89 3.44-1.85 6.97-3.59 10.57-5.1 4.09-1.71 6.99-4.47 9.27-8.26 3.89-6.48 9.04-7.66 15.64-3.95 3.33 1.87 4.26 4.44 3.08 8.11-1.87 5.82-.94 11.61.91 17.16 2.76 8.32 5.92 16.51 9.03 24.72.54 1.43 1.54 2.73 2.49 3.97 3.07 3.99 3.5 8.68 4.02 13.89-3.78-.4-7.23-.64-10.63-1.22-.76-.13-1.55-1.33-1.93-2.2-6.07-13.84-12.52-27.54-16.24-42.29-.32-1.28-1.29-3.38-2.01-3.4-2.61-.08-6.04-.36-7.73 1.1-6.42 5.53-13.57 8.77-21.93 9.82-3.71.47-6.85.26-9.33-2.98-1.16-1.49-2.75-2.62-4.68-4.42z"/><path d="m84.01 127.36c.46-2.87.8-5.59 1.38-8.27.17-.78 1-1.43 1.59-2.08.19-.21.58-.25.88-.33 8.71-2.29 15.09-7.95 21.53-13.92 7.21-6.68 15.22-12.48 22.92-18.63 8.64-6.91 14.18-15.61 15.52-26.68 6.43-1.28 14.03 5.15 13.6 11.42-.05.67-.41 1.44-.87 1.93-13.91 14.54-26.94 30.03-43.28 42.04-6.9 5.07-14.24 9.55-21.47 14.15-3.94 2.51-6.7 2.49-11.8.37z"/><path d="m206.39 176.3c.61-3.22 1.17-6.44 1.85-9.64.14-.67.55-1.47 1.09-1.85 3.64-2.56 7.18-5.36 11.12-7.35 1.71-.86 4.34-.24 6.48.13 10.37 1.81 18.95 6.19 22.75 16.85 2.04 5.73 1.38 11.54-.45 17.16-.46 1.4-2.07 2.63-3.43 3.51-5.85 3.81-12.62 4.55-19.29 5.79-5.62 1.04-9.12-1.15-12.3-5.45-4.25-5.73-7.69-11.66-7.82-19.15zm10.95 2.42c-.25 4.12 2.04 8.1 6.06 10.89 2.5 1.73 9.07.24 11.43-2.7 3.67-4.58 5.81-8.64 1.74-11.47-3.95-2.75-8.22-5.04-12.46-7.34-.66-.36-1.99.09-2.82.52-3.69 1.95-3.6 5.61-3.95 10.1z"/><path d="m260.18 90.5c-1.4-.45-3.32-.49-3.7-1.28-1.44-2.96-3.14-6.12-3.3-9.28-.19-3.77 2.28-7.13 7.74-6.49 1.67.19 3.37.26 5.02.58 2.86.56 5.63 1.29 5.98 4.98.41 4.34-1.41 8.41-4.76 9.68-2.23.85-4.63 1.22-6.98 1.81z"/></g><path d="m342.2 3.2-6.3 9.2h6.1v1.2h-8.2v-.5l6.2-9.1h-5.7v-1.2h7.8v.4z" fill="#fbfafc"/><path d="m344 13.7v-10.9h3.1c1.6 0 3 .5 4.1 1.4 1.1 1 1.6 2.2 1.6 3.9s-.5 3-1.6 4-2.5 1.5-4.2 1.5h-3zm1.4-9.6v8.4h1.6c1.4 0 2.5-.4 3.2-1.1.8-.8 1.2-1.8 1.2-3.2s-.4-2.4-1.2-3.1-1.8-1-3.1-1z" fill="#fbfafc"/><path d="m356.3 2.8v10.9h-1.4v-10.9z" fill="#fbfafc"/><path d="m366.6 13.2c-.8.4-1.8.6-3 .6-1.6 0-2.8-.5-3.7-1.5s-1.4-2.3-1.4-3.9c0-1.7.5-3.2 1.6-4.2s2.4-1.6 4-1.6c1 0 1.9.1 2.6.4v1.5c-.8-.4-1.6-.6-2.6-.6-1.2 0-2.2.4-3 1.2s-1.1 1.9-1.1 3.3c0 1.3.4 2.3 1.1 3.1s1.6 1.1 2.8 1.1c1.1 0 2-.2 2.8-.7v1.3z" fill="#fbfafc"/><path d="m368.2 13c0-.3.1-.5.3-.6.2-.2.4-.3.6-.3.3 0 .5.1.7.3s.3.4.3.6-.1.5-.3.6c-.2.2-.4.3-.7.3s-.5-.1-.6-.3c-.2-.2-.3-.4-.3-.6z" fill="#fbfafc"/><path d="m381.1 13.7h-1.7l-5.5-8.4c-.2-.2-.3-.5-.4-.7 0 .2.1.8.1 1.5v7.6h-1.4v-10.9h1.8l5.3 8.3c.3.4.4.6.4.8 0-.3-.1-.8-.1-1.6v-7.5h1.4v10.9z" fill="#fbfafc"/><path d="m389.7 13.7h-5.8v-10.9h5.6v1.2h-4.2v3.5h3.9v1.2h-3.9v3.7h4.4z" fill="#fbfafc"/><path d="m398.4 4.1h-3.1v9.6h-1.4v-9.6h-3.1v-1.3h7.7v1.3z" fill="#fbfafc"/></svg>