<svg enable-background="new 0 0 400 400" viewBox="0 0 400 400" xmlns="http://www.w3.org/2000/svg"><path d="m177.54 365.93c-5.01-11.3-6.14-22.84-3.63-34.81.58-2.75.55-5.72.3-8.54-.51-5.71-2.34-10.65-7.1-14.64-3.99-3.34-7.08-7.79-10.46-11.83-3.58-4.28-12.37-6.89-17.58-5.06-.29.1-.56.29-.83.45-7.86 4.77-15.69 9.57-23.59 14.27-1.94 1.16-3.05 2.54-3.56 4.85-1.69 7.57-1.21 15.14-.82 22.78.25 4.8-.04 9.72-.88 14.45-.76 4.26-3.63 7.54-7.41 10.09-3.99-6.79-4.54-14.02-3.91-21.55 1.33-15.72 2.56-31.45 3.69-47.18 1.64-22.65 5.42-44.83 15.47-65.44 2.9-5.96 6.87-11.42 10.63-16.92.93-1.35 2.86-2.17 4.48-2.86 6.16-2.6 8.99-8.48 13.09-13.1.61-.69.64-2 .72-3.03 1.79-25.16 3.57-50.32 5.29-75.49.59-8.67 1.1-17.35 1.42-26.04.11-2.9-.19-5.9-.85-8.72-1.29-5.56-2.86-11.07-4.56-16.52-.37-1.18-1.65-2.72-2.73-2.91-6.53-1.18-13.12-2.03-19.69-2.98-3.34-.48-6.86-.45-9.97-1.56-3.04-1.09-5.65-3.35-8.45-5.09.03-.5.05-.99.08-1.49 4.17-2.18 8.25-4.55 12.53-6.47 2.68-1.21 5.8-1.42 8.47-2.65 11.21-5.17 22.95-2.73 34.46-2.43 30.82.79 61.62 2.28 92.44 2.91 12.68.26 25.4-.97 38.1-1.52 1.56-.07 3.13-.15 5.07-.24 0 3.39.14 6.55-.09 9.68-.07.94-1.01 2.03-1.85 2.66-4.9 3.68-10.46 5.37-16.59 5.5-5.38.11-10.77.34-16.14.76-4.85.38-6.21 4.58-7.98 8.11-.26.51.45 1.78 1.03 2.39 1.4 1.46 1.47 2.84.42 4.51-3.25 5.16-3.89 10.41-2.13 16.49 2.39 8.29 1.18 16.33-2.89 24.28-2.59 5.06-3.38 11.06-4.87 16.67-.18.68.05 1.75.51 2.28 6.15 6.98 6.06 15.3 5.12 23.76-1.1 9.99-3.06 19.96-3.3 29.96-.19 8.17 1.55 16.4 2.56 24.59.11.91 1.01 1.81 1.73 2.53 3.5 3.55 7.07 7.02 10.58 10.55 6.23 6.25 7.61 14.26 7.81 22.54.21 8.47.26 16.96-.1 25.42-.18 4.08 2.15 6.74 3.92 9.76 1.22 2.08 1.45 3.64.67 6.22-1.05 3.48-.91 7.54-.37 11.22.71 4.84.46 9.5-.6 14.17-.61 2.71-.45 5.16 1.15 7.55 3.51 5.26 4.91 10.97 4.3 17.41-.51 5.36.1 10.81-.05 16.21-.14 5.03-1.68 9.37-6.9 11.48-2.09.85-3.45.59-4.73-1.44-4.03-6.37-5.34-13.29-4.58-20.68.81-7.89.45-15.68-2.16-23.23-.47-1.36-1.52-2.78-2.7-3.61-8.17-5.69-16.49-11.17-24.66-16.86-2.42-1.69-4.49-3.87-6.81-5.73-4.34-3.47-6.94-3.42-11.05.14-6.65 5.76-13.33 11.49-19.89 17.35-1.11.99-2.02 2.46-2.48 3.88-3.05 9.43-2.54 18.99-.88 28.61.57 3.32 1.1 6.72 1.04 10.08-.12 7.45-4.91 12.2-13.33 13.67-1.36.22-2.74.27-3.93.39zm42.07-109.04c6.3.56 7.87 2.35 8.89 8.16.6 3.45 1.59 7.05 3.33 10.04 2.18 3.73 7.51 4.87 8.73 9.67.02.08.14.18.23.21 4.97 1.29 9.9 2.78 14.93 3.76 2.29.45 3.01-1.23 2.53-3.49-.71-3.31-1.12-6.69-1.82-10-2.94-13.87-5.86-27.74-8.93-41.58-1.98-8.93-7.68-14.49-16.17-17.63-19.26-7.12-39.3-9.64-59.6-9.27-10.28.18-19.4 4.41-26.43 12.71-3.94 4.65-8.93 8.41-13.44 12.58-.69.64-1.68 1.19-1.99 1.99-4.29 11.25-8.87 22.42-12.53 33.88-1.62 5.07-.89 10.69 1.92 16.03 2.49-.93 4.87-1.74 7.2-2.68 10.12-4.12 16.04-13.22 23.91-20.35 1.96 1.72 3.92 3.32 5.73 5.07s3.53 3.35 6.11.82c3.07 7.15 5.98 13.96 8.93 20.74.41.95.82 2.11 1.6 2.65 3.8 2.64 7.72 5.09 11.64 7.65 7.82-7.32 15.19-14.66 23.06-21.42 5.74-4.93 10.07-10.42 11.49-17.96.1-.53.42-.99.68-1.58zm12.84-108.9c-13.12-.9-25.78-1.74-38.43-2.66-6.66-.49-13.15.43-19.27 2.89-2.22.89-4.11 3.08-5.67 5.06-2.66 3.36-4.95 7.01-7.36 10.57-.56.83-1.44 1.78-1.39 2.63.33 5.49.55 11.01 1.46 16.42.9 5.36 1.8 5.56 7.27 5.77 18.05.67 36.24-.86 54.06 3.45 1.99.48 7.18-3.73 7.3-5.89.72-12.6 1.35-25.18 2.03-38.24zm-69.06-43.06c.21 1.02.33 1.84.55 2.63 1.74 6.32 3.71 12.59 5.15 18.97.69 3.06 2.21 4.13 5.08 4.26 13.84.61 27.67 1.54 41.51 1.79 4.76.08 9.56-1.46 14.32-2.33 1.82-.33 2.58-1.55 2.6-3.41.05-3.49-.06-7.02.41-10.46.89-6.56-2.19-10.63-7.57-13.64-6.55-3.67-13.09-7.37-19.51-11.26-1.97-1.19-3.43-1.15-5.47-.15-9.46 4.62-18.39 10.54-29.2 11.89-2.59.33-5.13 1.1-7.87 1.71zm7.77-15.94c8.19-3.82 15.91-7.5 23.71-11 1.77-.79 3.82-1.25 5.76-1.31 7.57-.25 14.34 2.11 20.41 6.65 1.94 1.45 4.01 2.8 6.19 3.85 3.65 1.76 6.93-.02 7.75-3.99.56-2.69 1.4-5.38 1.55-8.1.26-4.8.36-9.64-.03-14.43-.19-2.35-1.86-3.82-4.83-3.91-15.66-.45-31.31-1.45-46.97-1.59-4.56-.04-9.18 1.99-13.66 3.41-.84.27-1.73 2.15-1.67 3.24.46 8.88 1.14 17.75 1.79 27.18z" fill="#010100"/><g fill="#fbfafc"><path d="m342.2 3.2-6.3 9.2h6.1v1.2h-8.2v-.5l6.2-9.1h-5.7v-1.2h7.8v.4z"/><path d="m344 13.7v-10.9h3.1c1.6 0 3 .5 4.1 1.4 1.1 1 1.6 2.2 1.6 3.9s-.5 3-1.6 4-2.5 1.5-4.2 1.5h-3zm1.4-9.6v8.4h1.6c1.4 0 2.5-.4 3.2-1.1.8-.8 1.2-1.8 1.2-3.2s-.4-2.4-1.2-3.1-1.8-1-3.1-1z"/><path d="m356.3 2.8v10.9h-1.4v-10.9z"/><path d="m366.6 13.2c-.8.4-1.8.6-3 .6-1.6 0-2.8-.5-3.7-1.5s-1.4-2.3-1.4-3.9c0-1.7.5-3.2 1.6-4.2s2.4-1.6 4-1.6c1 0 1.9.1 2.6.4v1.5c-.8-.4-1.6-.6-2.6-.6-1.2 0-2.2.4-3 1.2s-1.1 1.9-1.1 3.3c0 1.3.4 2.3 1.1 3.1s1.6 1.1 2.8 1.1c1.1 0 2-.2 2.8-.7v1.3z"/><path d="m368.2 13c0-.3.1-.5.3-.6.2-.2.4-.3.6-.3.3 0 .5.1.7.3s.3.4.3.6-.1.5-.3.6c-.2.2-.4.3-.7.3s-.5-.1-.6-.3c-.2-.2-.3-.4-.3-.6z"/><path d="m381.1 13.7h-1.7l-5.5-8.4c-.2-.2-.3-.5-.4-.7 0 .2.1.8.1 1.5v7.6h-1.4v-10.9h1.8l5.3 8.3c.3.4.4.6.4.8 0-.3-.1-.8-.1-1.6v-7.5h1.4v10.9z"/><path d="m389.7 13.7h-5.8v-10.9h5.6v1.2h-4.2v3.5h3.9v1.2h-3.9v3.7h4.4z"/><path d="m398.4 4.1h-3.1v9.6h-1.4v-9.6h-3.1v-1.3h7.7v1.3z"/></g></svg>