<svg enable-background="new 0 0 400 400" viewBox="0 0 400 400" xmlns="http://www.w3.org/2000/svg"><path d="m306.77 125.73c-.13 4.86-.25 8.97-4.34 12.45-5.78 4.92-8.12 11.78-7.81 19.39.38 9.38 2.18 18.5 5.51 27.29.44 1.17 1.18 2.24 1.88 3.29 5.8 8.72 11.63 17.43 17.77 26.61-1.99.23-3.59.46-5.2.57-2.64.18-5.29.22-7.93.42-5.08.38-6.52 1.15-6.81 6.28-.34 6.07.01 12.26.85 18.29 1.16 8.24 2.13 16.35-.05 24.56-.39 1.47-.06 3.15.01 4.74.49 10.48 1.17 20.96 1.42 31.45.08 3.32-.72 6.73-1.59 9.98-.47 1.77-1.95 3.27-2.97 4.89-.35-.11-.69-.22-1.04-.32-.37-3.4-.86-6.79-1.1-10.2-1.15-16.17-2.16-32.36-3.36-48.53-.7-9.4-1.66-18.79-2.51-28.18-.29-3.17-2.08-4.95-5.13-5.63-4.05-.9-7.72-.02-11.28 2.81-.32-4.5-.37-7.9 2.8-11.44 11.28-12.57 13.98-27.41 9.73-43.59-.34-1.3-1.58-2.46-2.6-3.48-8.51-8.54-15.82-17.96-21.15-28.83-.51-1.03-1.02-2.06-1.83-3.69 5.34.85 10.22 1.4 14.98 2.47 3.32.75 5.24-.76 5.62-3.43.61-4.33 1.32-8.97.39-13.12-2.05-9.16-4.41-18.38-8.01-27.01-1.86-4.47-6.34-8.05-10.14-11.48-22.38-20.24-48.75-31.49-78.6-35.71-7.72-1.09-13.72.96-19.66 4.48-2.66 1.58-4.53 4.65-6.42 7.28-.57.8-.38 2.57.1 3.6.96 2.09 2.07 4.25 3.62 5.92 12.35 13.29 22.13 28.35 31.28 43.93 6.97 11.87 14.46 23.43 21.96 34.98 2.53 3.89 5.93 7.2 8.67 10.97 2.17 2.98 4.1 6.17 5.81 9.44 1.51 2.87-.23 5.25-3.34 4.28-2.77-.86-5.93-2.33-7.6-4.53-6.72-8.86-13-18.06-19.26-27.26-1.73-2.53-3.91-4.01-6.69-4.97-8.69-3-17.73-3.45-26.71-2.8-14.68 1.06-29.35 2.43-43.93 4.43-4.84.67-9.36 3.68-14.02 5.65-1.43.61-2.81 1.34-4.81 2.31.99-3.42 1.94-6.2 2.59-9.05 3.58-15.9 11.51-29.97 18.48-44.45 4.22-8.78 8.66-17.45 12.75-26.29 1.4-3.03 2.38-6.37 2.93-9.67.66-3.99 2.96-6.27 6.22-8.18 8.63-5.03 18.26-7.18 27.66-10.06 11.54-3.54 22.5-.76 33.33 2.64 23.44 7.35 45.14 18.09 64.25 33.82 8.9 7.33 14.3 16.48 16.88 27.6 1.72 7.42 3.91 14.73 5.83 22.11.59 2.29 1.73 3.28 4.24 3.04 2.69-.27 5.44-.07 8.33-.07zm-153.82-52.68c-3.73 4.43-7.23 8.21-10.29 12.32-3.59 4.83-7.12 9.76-10.06 14.99-2.57 4.57-4.81 9.46-6.27 14.48-1.42 4.86 1.11 7.12 6.1 6.9 10.37-.45 20.75-.74 31.12-1.1 7.8-.27 15.6-.54 24.51-.85-7.89-18.74-21.02-32.45-35.11-46.74z" fill="#010100"/><path d="m180.69 365.86c-3.07-3.96-4.39-8.09-4.47-12.67-.08-5-.21-10.04-3.11-14.39-.8-1.2-2.17-2.32-3.52-2.8-3.88-1.38-7.95-2.26-11.83-3.65-2.13-.76-2.93-.02-3.92 1.71-3.32 5.79-6.73 11.52-10.32 17.15-1.21 1.89-3.04 3.39-4.74 5.24-2.81-3.54-2.74-6.88-1.92-10.58.72-3.23 1.06-6.61 1.06-9.92 0-2.28-1.57-3.58-4.06-4-5.64-.96-11.27-2.02-16.8-3.42-2.43-.61-3.62.16-5.05 1.88-1.6 1.93-3.41 3.84-5.51 5.15-2.95 1.85-4.99 1.16-6.34-1.98-.81-1.88-1.64-4.19-1.26-6.07 2.07-10.3-3.05-16.53-11.29-21.21-1.84-1.05-3.75-1.99-5.52-3.14-4.6-2.99-6.47-7.87-5.38-13.06 3.48 2.53 6.88 5.53 10.76 7.65 3.17 1.74 6.89 2.51 10.42 3.56 1.61.48 2.65-.27 3.48-1.86 3.76-7.16 4.88-14.84 4.69-22.76-.02-.74-1.52-2.07-2.31-2.05-4.74.12-9.47.55-14.21.9-1.05.08-2.2.56-3.13.28-1.49-.45-3.77-1.12-4.04-2.15-.42-1.56.01-4.14 1.12-5.15 3.77-3.42 7.4-7.06 13.14-7.6 4.03-.38 7.94-2.11 11.89-3.3 4.12-1.24 6.03-4.27 5.98-8.36-.03-3.04-.55-6.09-1.06-9.11-.16-.92-.83-2.01-1.59-2.54-11.93-8.14-14.63-19.88-13.04-33.27.36-3.04 1.34-6.01 1.65-9.05.39-3.77 2.89-4.55 5.84-4.21 2.1.24 4.35 1.18 6.05 2.46 5.39 4.07 10.87 5.36 17.18 2.18 2.71-1.37 5.72-2.16 8.69-3.24 4.72 5.33 5.94 11.55 4.71 18.15-1.28 6.86-3.08 13.63-4.87 20.38-.33 1.23-1.53 2.47-2.65 3.21-3.78 2.5-7.77 4.5-9.54 9.27-2.47 6.65-4.23 13.35-3.36 20.46.16 1.29 1.16 2.69 2.15 3.63 8.49 7.95 18.62 10.31 29.98 8.88 5.67-.72 11.4-1.02 17.12-1.19 2.67-.08 4.02-1.23 4.3-3.6.74-6.08 1.43-12.18 1.91-18.29.26-3.27-.21-6.59.09-9.85.81-8.81-2.51-16.1-7.84-22.76-5.19-6.49-6.22-14.03-5.24-21.95.43-3.44 1.42-6.83 2.33-10.19.19-.71 1.14-1.7 1.72-1.69.82.01 1.96.64 2.39 1.35 3.08 5.07 8.99 6.59 13.98 3.44 3.14-1.98 6.19-4.1 9.43-5.9.82-.46 2.49-.36 3.23.19 3.1 2.33 4.19 5.77 4.33 9.5.36 9.76-1.44 19.17-4.67 28.36-1.44 4.11-2.52 8.27-7.1 10.24-.76.33-1.32 1.88-1.41 2.91-.96 11.51-1.76 23.04-2.73 34.56-.17 1.98.63 2.81 2.24 3.58 6.21 2.96 12.34 6.11 18.57 9.02 1.91.89 2.93 2.06 3.37 4.13 1.07 4.94 2.14 9.78 5.71 13.88 1.36 1.55.94 4.77 1.04 7.25.04 1.09-.64 2.22-.98 3.33-1.77 5.81-4.84 10.27-10.83 12.74-5.16 2.13-10.02 5.06-14.85 7.9-1.4.82-2.96 2.38-3.28 3.85-.96 4.41-1.65 8.93-1.87 13.44-.28 5.42-1.29 10.45-4.91 15.15zm-2.93-69.4c-1.99-2.53-3.69-4.97-5.7-7.1-.75-.79-2.37-1.41-3.4-1.19-5.17 1.1-10.29 2.44-15.37 3.88-.88.25-2.08 1.33-2.17 2.13-1.02 9.29.72 17.91 6.8 25.3.55.67 1.53 1.44 2.27 1.41 2.83-.13 5.68-.43 8.47-.94 1.78-.32 2.39-1.41 2.1-3.5-.34-2.43-.11-5.04.4-7.46.33-1.57 1.7-4.23 2.41-4.17 2.05.18 4.14 1.28 5.95 2.43.96.61 1.37 2.08 2.03 3.16 1.54 2.5 3.07 5 4.69 7.63 5.23-2.28 10.17-4.41 15.08-6.57.46-.2.96-.55 1.2-.97 3.7-6.53 5.52-13.84-2.32-19.34-.95-.67-1.96-1.25-2.93-1.89-6.43-4.2-10.22-2.38-15.06 2.41-1.49 1.47-2.85 3.06-4.45 4.78zm-59.71-15.92c-3.45 7.06-6.17 13.64-6.95 20.92-.28 2.58-.26 4.36 2.89 5.23 2.15.59 4.15 2.13 5.92 3.61 3.79 3.16 8.27 4.52 12.89 5.8 5.71 1.58 10.73.11 13.74-4.61 2.93-4.61 3.47-10.19 1.06-15.48-.57-1.25-1.78-2.51-3.01-3.1-8.74-4.21-17.56-8.22-26.54-12.37zm-.91-76.39c-6.87.02-6.87.02-10.58 5.66-.7 1.06-1.33 2.18-2.11 3.17-1.05 1.32-1.16 2.47-.19 3.98 1.71 2.67 3.47 5.37 4.69 8.27 1.9 4.55 5.68 5.31 9.8 5.44 3.79.12 9.68-3.19 10.17-5.9.8-4.46 1.31-8.98 1.64-13.5.24-3.35-1.71-5.38-4.94-5.97-2.81-.51-5.66-.77-8.48-1.15zm56.65.22c1.55 4.27 2.95 8.24 4.47 12.17.27.7.92 1.52 1.59 1.77 8.11 3.04 11.3 4.54 13.97-5.98.18-.72.45-1.42.53-2.15.37-3.43 1.12-6.9.92-10.3-.22-3.64-3.08-4.89-6.28-3.27-4.99 2.51-9.95 5.08-15.2 7.76z" fill="#010100"/><g fill="#fbfafc"><path d="m342.2 3.2-6.3 9.2h6.1v1.2h-8.2v-.5l6.2-9.1h-5.7v-1.2h7.8v.4z"/><path d="m344 13.7v-10.9h3.1c1.6 0 3 .5 4.1 1.4 1.1 1 1.6 2.2 1.6 3.9s-.5 3-1.6 4-2.5 1.5-4.2 1.5h-3zm1.4-9.6v8.4h1.6c1.4 0 2.5-.4 3.2-1.1.8-.8 1.2-1.8 1.2-3.2s-.4-2.4-1.2-3.1-1.8-1-3.1-1z"/><path d="m356.3 2.8v10.9h-1.4v-10.9z"/><path d="m366.6 13.2c-.8.4-1.8.6-3 .6-1.6 0-2.8-.5-3.7-1.5s-1.4-2.3-1.4-3.9c0-1.7.5-3.2 1.6-4.2s2.4-1.6 4-1.6c1 0 1.9.1 2.6.4v1.5c-.8-.4-1.6-.6-2.6-.6-1.2 0-2.2.4-3 1.2s-1.1 1.9-1.1 3.3c0 1.3.4 2.3 1.1 3.1s1.6 1.1 2.8 1.1c1.1 0 2-.2 2.8-.7v1.3z"/><path d="m368.2 13c0-.3.1-.5.3-.6.2-.2.4-.3.6-.3.3 0 .5.1.7.3s.3.4.3.6-.1.5-.3.6c-.2.2-.4.3-.7.3s-.5-.1-.6-.3c-.2-.2-.3-.4-.3-.6z"/><path d="m381.1 13.7h-1.7l-5.5-8.4c-.2-.2-.3-.5-.4-.7 0 .2.1.8.1 1.5v7.6h-1.4v-10.9h1.8l5.3 8.3c.3.4.4.6.4.8 0-.3-.1-.8-.1-1.6v-7.5h1.4v10.9z"/><path d="m389.7 13.7h-5.8v-10.9h5.6v1.2h-4.2v3.5h3.9v1.2h-3.9v3.7h4.4z"/><path d="m398.4 4.1h-3.1v9.6h-1.4v-9.6h-3.1v-1.3h7.7v1.3z"/></g></svg>