<svg enable-background="new 0 0 400 400" viewBox="0 0 400 400" xmlns="http://www.w3.org/2000/svg"><g fill="#010100"><path d="m85.98 234.1c-3.12-11.54-3.36-22.73-.3-33.73 3.03-10.89 6.84-21.57 10.41-32.31.45-1.35 1.42-2.56 2.27-3.75 8.31-11.66 20.41-18.57 32.35-25.64 2.35-1.39 3.08-2.9 2.94-5.55-1.48-26.24 1.66-52.3 3.3-78.41.12-1.9.31-3.81.39-5.71.28-6.32 1.41-9.19 5.73-14.2 3.8 1.04 5.79 4.06 6.34 7.51 1.13 7.18 2.38 14.47 2.26 21.7-.34 19.71-1.38 39.41-2.09 59.12-.12 3.46 1.64 4.85 4.89 3.57 2.42-.95 4.52-2.69 6.82-3.97 11.49-6.39 15.35-17.32 16.85-29.29.96-7.65.84-15.44 1.14-23.16s.27-15.47.89-23.17c.24-2.98 1.9-5.85 2.91-8.77h1.21c2.91 4.71 5.83 9.42 8.71 14.15.25.4.32 1.05.19 1.52-1.61 6.16.2 12.21.62 18.29 1.03 14.81.09 29.37-4.1 43.75-2.01 6.89-6.1 11.43-12.3 14.36-3.82 1.81-7.88 3.13-11.65 5.03-4.71 2.37-9.29 5.02-13.78 7.78-.94.58-1.74 2.16-1.78 3.31-.82 20.86-1.53 41.73-2.19 62.59-.05 1.43.46 2.9.81 4.33 2.71 11.14 9.81 20.35 13.69 30.98 1.27 3.49 2.1 7.14 3.23 11.05-4.58.07-7.48-.6-9.64-4.2-3.64-6.08-7.79-11.87-11.89-17.66-1.57-2.21-3.61-4.08-5.81-6.53-1.64 2.66-3.07 4.5-3.99 6.56-2.61 5.87-7.5 9.63-12.19 13.58-3.19 2.69-6.03 5.24-6.31 10.07-.1 1.79-3.35 3.4-5.16 5.09-.32-.22-.64-.45-.96-.67 0-4.2-.09-8.41.07-12.61.03-.9.79-2.01 1.54-2.61 7.79-6.23 11.39-14.58 13.07-24.17.56-3.21 2.77-6.09 3.77-9.27 1.27-4 2.46-8.1 3-12.25 1.7-13.06 2.5-26.17 1.17-39.33-.33-3.24-2.96-4.52-5.7-2.54-6.94 5.04-14 9.96-20.57 15.46-5.95 4.98-8.64 12-9.35 19.6-.69 7.38-.87 14.82-1.34 22.22-.46 7.14-3.56 12.93-9.47 17.88z"/><path d="m264.03 34.91c4.08 1.66 6.81 4.47 7.49 8.56 1.38 8.28 5.26 15.33 9.77 22.18 3.26 4.96 6.38 10.01 9.38 15.12 3.93 6.71 8.52 12.84 13.9 18.49 2.14 2.25 3.43 5.52 4.46 8.55.89 2.6-1.53 4.63-4.12 3.57-2.18-.89-4.08-2.44-6.12-3.68-2.58-1.56-5.1-3.26-7.81-4.58-1.48-.72-3.28-.76-4.93-1.15-6.34-1.48-6.92-1.5-9.04 4.58-1.32 3.79-2.52 8.26-1.78 12.03 2.71 13.81 1.54 27.18-2.57 40.46-.15.48-.18 1-.42 2.42 6.48.1 12.67.13 18.85.3 3.46.1 7.06-.08 10.33.83 2.64.74 4.87 2.92 7.28 4.47-.13.39-.26.78-.39 1.18-4.65 1.08-9.35 1.98-13.95 3.27-5.33 1.49-10.61 1.83-15.95.31-2.07-.59-3.48.31-4.1 1.99-.9 2.45-1.85 5.04-1.93 7.6-.4 12.93-.49 25.86-.78 38.79-.04 1.78.41 2.93 2.2 3.19 6.67.99 13.34 1.94 20.02 2.85 3.66.5 7.44.54 10.97 1.5 2.58.7 4.84 2.58 7.75 4.21-7.84 5.09-15.58 6.26-23.65 5.53-4.84-.44-9.61-1.63-14.44-2.08-3.55-.33-7.16.09-10.75-.01-3.67-.1-7.33-.56-11-.63-6.32-.11-12.73-.65-18.96.13-7.99 1-14.44-2.38-21.08-5.61-.62-.3-.89-1.33-1.44-2.2 6.72-2.9 13.54-3.1 20.45-3.02 6.33.07 12.67-.01 18.99-.31 4.32-.21 7.09-2.8 7.85-7.02 1.1-6.13 2.37-12.28 2.71-18.47.46-8.23.11-16.51.11-25.41-6.75-.47-13.59-.86-20.42-1.46-5.36-.47-10.75-.93-16.03-1.94-3.43-.65-6.5-2.51-8.68-6.54 5.53-.44 10.64-1.04 15.76-1.21 7.73-.26 15.47-.13 23.21-.36 4.56-.13 7.63-3.21 6.93-7.62-2.38-15.12-.13-30.26-.49-45.38-.05-2.13-.52-3.41-2.55-4.01-2.53-.75-5-1.75-7.58-2.24-4.71-.89-8.72-.26-11.76 4.38-2.88 4.41-6.61 8.25-11.73 10.42-2.08.88-3.28.51-4.54-1.23-3.31-4.58-3-12.91 1.52-16.66 12.33-10.24 20.13-23.57 26.91-37.7.92-1.91 1.8-3.89 3.05-5.56 4.35-5.8 6.71-12.42 8.47-19.33.15-.47.39-.91.63-1.5zm-1.43 56.97v.11c2.22 0 4.45.18 6.65-.03 7.81-.76 10.24-4.89 7.1-11.97-2.01-4.52-4.6-8.65-9.41-10.63-1.08-.44-3.3-.35-3.77.33-3.51 5.1-6.91 10.3-9.95 15.7-1.85 3.29.21 6.31 3.99 6.47 1.8.09 3.59.02 5.39.02z"/><path d="m260.08 249.95c7.37 3.28 11.74 8.56 12.28 16.94.23 3.62 1.21 7.24 2.28 10.73.49 1.57 2.05 2.81 3.28 4.4 9.05-7.68 18.54-13.63 30.25-14.91.19.22.4.37.44.54 1.08 5.83.98 5.66-4.23 8.56-3.19 1.78-6.29 3.89-8.98 6.35-8.04 7.38-15.9 14.97-23.71 22.59-.99.97-1.75 2.66-1.8 4.04-.4 11.01-.46 22.04-.94 33.05-.13 2.98 1.06 4.23 3.56 4.25 6.11.03 12.25.12 18.31-.45 6.9-.65 11.04.88 13.43 6.21-3.78 2.03-7.57 4.09-11.39 6.09-.52.27-1.27.42-1.82.28-8.65-2.17-17.26-.34-25.89.09-9.28.47-18.43-.46-27.28-3.39-1.73-.58-3.34-1.69-4.83-2.8-1.43-1.07-2.49-2.67-3.96-3.66-6.87-4.61-9.39-11.54-10.02-19.24-1.24-15.19-2.47-30.4-3.03-45.63-.18-4.93 1.6-9.96 2.72-14.89.96-4.23 2.17-8.4 3.48-12.54.3-.94 1.48-2.25 2.24-2.24 1.22.02 3.15.71 3.49 1.61 1.12 2.92 2.34 6.07 2.28 9.11-.12 6.01-.87 12.03-1.73 17.99-1.46 10.14.35 20.05 1.45 30.05 1 9.08 4.65 17.33 7.37 25.88.25.79 1.27 1.68 2.09 1.89 4.61 1.2 9.25 2.29 13.92 3.19.8.16 2.39-.57 2.62-1.23.74-2.14 1.59-4.51 1.35-6.68-.61-5.66-.59-11.16 1.37-16.58.43-1.17.59-2.48.64-3.74.56-14.61 1.16-29.23 1.52-43.85.06-2.56-.53-5.32-1.53-7.68-2.79-6.57-2.87-8.03.77-14.33z"/><path d="m161.01 318.71c-4.03 2.33-7.85 4.32-11.44 6.67-6.4 4.19-13.51 5.39-20.91 5.11-1.07-.04-2.07-2.06-3.33-3.42 1.47-.92 2.32-1.5 3.22-2 8.21-4.62 16.49-9.12 24.6-13.91 3.34-1.97 6.28-4.63 9.5-6.83 2.24-1.53 4.53-3.14 7.03-4.11 3.56-1.38 7.16.86 7.08 4.72-.4 19.07 5.84 37.45 5.56 56.49-.03 1.81.41 3.69-2.99 4.48-1.85-3.95-4.09-7.98-5.67-12.24-3.96-10.69-7.61-21.5-11.4-32.26-.25-.69-.62-1.33-1.25-2.7z"/><path d="m108.12 298.71c-.48-.66-.57-.73-.6-.83-2.21-6.39-2.19-6.36 3.53-9.81 9.8-5.91 20.69-9.11 31.46-12.59 1.28-.41 2.99-.08 4.32.41 2.34.86 3.15 4.18 1.39 5.5-12.02 8.95-25.55 14.3-40.1 17.32z"/><path d="m284.64 186.23c2.49 1.43 4.32 2.24 5.86 3.41 6.74 5.16 12.26 11.2 14.5 19.75.84 3.2-1.27 4.3-3.15 5.76-2.06 1.61-4.02 1.03-5.76-.44-5.42-4.58-9.01-10.33-10.24-17.36-.59-3.38-.76-6.83-1.21-11.12z"/><path d="m223.89 209.17c1.34-4.87 2.41-9.27 3.81-13.56.42-1.3 1.66-2.38 2.67-3.42 2.94-3.04 6.1-5.88 8.91-9.03 2.41-2.7 4.76-1.11 6.28.37 1.24 1.2 2.34 4.63 1.65 5.41-6.77 7.57-12.4 16.54-23.32 20.23z"/><path d="m288.17 147.66c.45-2.77.26-5.27 1.28-7.08 3.19-5.68 5.64-11.91 10.76-16.29.98-.84 2.78-1.9 3.58-1.52 1.53.72 3.66 2.39 3.66 3.67-.01 3.04-.32 6.6-1.93 9-3.89 5.74-9.02 10.35-17.35 12.22z"/><path d="m230.31 125.38c7.28 1.94 12.77 4.65 16.58 9.72 1.47 1.96 2.11 4.83 2.31 7.35.13 1.67-.88 4.68-1.94 4.95-2.53.66-5.56 1.15-7.38-2.3-1.72-3.26-4.39-6.03-6.04-9.31-1.52-2.99-2.21-6.39-3.53-10.41z"/></g><path d="m342.2 3.2-6.3 9.2h6.1v1.2h-8.2v-.5l6.2-9.1h-5.7v-1.2h7.8v.4z" fill="#fbfafc"/><path d="m344 13.7v-10.9h3.1c1.6 0 3 .5 4.1 1.4 1.1 1 1.6 2.2 1.6 3.9s-.5 3-1.6 4-2.5 1.5-4.2 1.5h-3zm1.4-9.6v8.4h1.6c1.4 0 2.5-.4 3.2-1.1.8-.8 1.2-1.8 1.2-3.2s-.4-2.4-1.2-3.1-1.8-1-3.1-1z" fill="#fbfafc"/><path d="m356.3 2.8v10.9h-1.4v-10.9z" fill="#fbfafc"/><path d="m366.6 13.2c-.8.4-1.8.6-3 .6-1.6 0-2.8-.5-3.7-1.5s-1.4-2.3-1.4-3.9c0-1.7.5-3.2 1.6-4.2s2.4-1.6 4-1.6c1 0 1.9.1 2.6.4v1.5c-.8-.4-1.6-.6-2.6-.6-1.2 0-2.2.4-3 1.2s-1.1 1.9-1.1 3.3c0 1.3.4 2.3 1.1 3.1s1.6 1.1 2.8 1.1c1.1 0 2-.2 2.8-.7v1.3z" fill="#fbfafc"/><path d="m368.2 13c0-.3.1-.5.3-.6.2-.2.4-.3.6-.3.3 0 .5.1.7.3s.3.4.3.6-.1.5-.3.6c-.2.2-.4.3-.7.3s-.5-.1-.6-.3c-.2-.2-.3-.4-.3-.6z" fill="#fbfafc"/><path d="m381.1 13.7h-1.7l-5.5-8.4c-.2-.2-.3-.5-.4-.7 0 .2.1.8.1 1.5v7.6h-1.4v-10.9h1.8l5.3 8.3c.3.4.4.6.4.8 0-.3-.1-.8-.1-1.6v-7.5h1.4v10.9z" fill="#fbfafc"/><path d="m389.7 13.7h-5.8v-10.9h5.6v1.2h-4.2v3.5h3.9v1.2h-3.9v3.7h4.4z" fill="#fbfafc"/><path d="m398.4 4.1h-3.1v9.6h-1.4v-9.6h-3.1v-1.3h7.7v1.3z" fill="#fbfafc"/></svg>