<svg enable-background="new 0 0 400 400" viewBox="0 0 400 400" xmlns="http://www.w3.org/2000/svg"><path d="m246.11 50.82c-.74.6-1.44 1.26-2.23 1.77-3.28 2.14-6.62 4.2-9.88 6.38-.94.63-2.07 1.4-2.45 2.36-1.62 4.14-3.58 8.27-4.32 12.59-1.8 10.51-12.62 20.62-23.28 20.9-2.86.07-5.1.97-6.95 3.16-3.85 4.57-6.74 9.28-7.78 15.57-.63 3.82.34 6.63 1.13 9.91 1.85 7.75 6.91 13.61 11.33 19.85.57.8 1.8 1.1 2.53 1.82 4.58 4.55 5.49 10.09 5.48 16.41-.01 12.22-6.84 21.51-12.18 31.5-1 1.87-1.95 3.76-3.03 5.58-2.71 4.57-1.91 8.88 1.37 12.62 5.26 6.01 11.84 9.45 20.08 9.23 1.95-.05 2.8-.71 3.14-2.67 1.15-6.73 2.89-13.27 7.93-18.15-4.66-8.9-4.03-16.76 2-18.96-.62 2.25-1.05 4.13-1.66 5.95-1.81 5.46-1.03 7.63 3.42 11.23 1.38 1.12 2.48 2.93 3.03 4.64 1.8 5.59 1.68 5.63 5.86 8.92-2.22 1.04-5.27.06-6.53-2.12-.79-1.37-1.42-2.87-2.37-4.12-1.48-1.97-3.53-1.9-4.47.34-1.71 4.07-3.03 8.3-4.5 12.47-.56 1.58.12 2.61 1.66 2.68 1.86.09 4 .36 5.55-.4 5.2-2.58 10.69-3.3 16.32-3.18 2.28.05 3.05-1 3.82-2.85 1.18-2.82 2.56-5.58 4.17-8.18 2.55-4.12 6.55-5.66 11.15-5.87.16.27.32.54.49.82-1.91 1.12-3.75 2.42-5.76 3.31-3.1 1.37-4.74 3.78-5.61 6.87-.99 3.53-1.9 7.08-2.93 10.59-.15.51-.9.82-1.16 1.33-1.74 3.31-4.07 6.51-4.86 10.05-.44 1.96 1.73 4.51 2.57 6.44-3.98-.7-5.67-2.68-4.7-7.35.72-3.46 2.27-6.75 3.6-10.51-1.8-1.9-4.62-2.43-7.43-1.85-5.27 1.08-10.45 2.57-16.2 4.02 2.06 13.35-3.66 24-12.39 33.46-.82.89-2.18 1.29-3.29 1.91-.28-.28-.57-.55-.85-.83.91-1.27 1.72-2.63 2.74-3.8 1.91-2.19 3.12-4.51 2.32-7.53-1-3.78-2.45-5.43-6.36-5.4-3.75.03-7.64.48-11.21 1.57-3.87 1.19-5.32 5.17-6.27 8.59-.92 3.35-2.03 6.37-4.23 9.05-1.86 2.27-2.34 4.25.32 6.77 4.3 4.06 5.26 15 2.34 20.4-1.97 3.65-1.43 4.74.91 8.06 2.51 3.57 5.69 7.6 5.92 11.59.27 4.59 1.4 9.25.9 13.82-.69 6.34-.29 13.11-3.73 18.75-4.87 7.98-8.57 16.82-15.84 23.17-1.06.92-2.42 1.51-3.63 2.25-.24-.2-.48-.4-.72-.6.53-1.01.8-2.4 1.64-2.97 6.71-4.56 8.09-11.76 8.37-18.81.37-9.15.34-18.55-3.09-27.26-1.36-3.46-4.05-6.6-6.75-9.26-2.92-2.88-3.3-4.17-.91-7.39 1.34-1.81 2.72-4.02 2.92-6.17.77-8.1-.66-15.66-7.29-21.3-3.18-2.7-5.8-6.35-11.27-6.18.95-1.38 1.37-2.5 2.18-3.1 2.55-1.9 3.68-4.48 3.42-7.46-.41-4.73-1.13-9.43-1.83-14.13-.13-.89-.66-1.77-1.18-2.53-2.62-3.84-5.2-7.72-7.97-11.45-3.43-4.61-3.3-9.35-.99-14.31.22-.48.38-.98.53-1.49.05-.19-.02-.41-.08-1.25-7.41 1.48-14.8 2.22-16.76-7.97 1.74.44 3.64.9 5.52 1.39 6.65 1.73 12.28-1.46 12.99-8.24.76-7.23 4.37-12.51 10.21-15.81 4.22-2.39 9.32-4.28 14.36-1.36 1.52.88 2.61.84 3.99-.15 1.89-1.36 3.83-2.69 5.91-3.73 9.05-4.52 13.07-12.42 14.27-21.89.29-2.25-.94-5.27-2.48-7.08-5.68-6.68-10.88-13.61-13.5-22.06-.8-2.59-.75-5.64-.36-8.37.72-5 1.99-9.92 3.08-15.13-5.82.29-10.13-1.53-12.28-7.97 2.61.89 4.64 1.59 6.68 2.28 4.98 1.69 7.6-.13 7.8-5.28.14-3.55-.95-6.2-4.05-8.34-4.58-3.16-8.89-6.39-14.99-5.71-6.77.76-10.47 8.11-8.48 14.54 1.74 5.63 5.86 9.11 8.93 13.52 1.29 1.86 2.05 3.51 1.76 5.8-.36 2.82-.39 5.68-.59 8.88-1.87-.21-3.59-.4-6.1-.68 3.98-5.39 5.02-10.36-.86-14-2.83 2.86-5.68 5.67-8.42 8.56-.41.44-.59 1.3-.54 1.94.1 1.37.41 2.72.65 4.08 1.04 6-3.73 11.53-9.85 11.15-1.42-.09-2.78-1.11-4.17-1.7.1-.32.2-.64.3-.96 2.25-.5 4.51-.99 6.76-1.52 2-.47 4.22-1.03 4.34-3.5.12-2.63-.16-5.37-2.81-6.96-.9-.54-1.86-1.12-2.86-1.31-4.85-.94-7.48-4.53-10.03-8.22-.46-.67-.77-1.57-.79-2.37-.03-.8.38-1.62.6-2.43.86.42 2 .63 2.51 1.31 1 1.34 1.48 3.05 2.45 4.42 2.75 3.87 7.19 5.22 11.19 3.57 4.07-1.69 6.17-5.94 5.28-10.7-.62-3.33-1.89-6.7-1.71-9.99.27-4.67 1.48-9.3 2.6-13.88.22-.91 1.83-2 2.88-2.09 5.25-.45 10.52-.68 15.79-.75 1.11-.01 2.36.83 3.33 1.57 3.61 2.75 7.14 5.63 10.96 8.67 1.02-2.58 1.96-4.88 2.86-7.2 1.95-5 5.39-8.27 10.76-9.32.52-.1 1.01-.38 1.53-.41 4.69-.33 7.35-2.96 9.49-7.06 5.71-10.95 15.09-17.76 26.47-21.99 2.22-.83 4.61-1.72 7.09.82-1.01.53-1.74 1.01-2.55 1.32-2.87 1.09-5.79 2.03-8.64 3.19-3.16 1.28-6.27 2.7-7.66 6.2-.04.1-.1.22-.18.26-4.28 2.03-4.49 7.1-7.53 10.08-.7.69-1.22 1.83-1.3 2.81-.09 1.12.39 2.3.62 3.45 1.13-.24 2.52-.15 3.35-.79 4.05-3.07 7.93-6.36 11.91-9.53 2.57-2.04 5.34-3.64 8.72-3.56.19.3.38.62.57.93zm-71.01 138.75c-.87-5.61-1.49-6.42-5.25-7.32-7.72-1.84-16.16 4.64-16.61 12.72-.05.82-.25 1.67-.54 2.44-1.2 3.1-2.48 6.18-3.7 9.27-.1.26-.1.66.03.91 1.95 3.84.76 7.65-.01 11.49-.65 3.25-.24 6.1 2.38 8.65 5.01 4.87 8.37 10.74 10.2 17.6 1.29 4.84 1.8 9.17-1.51 13.54-1.2 1.59-2.32 4.23.16 6.21 6.9 5.53 12.72 11.77 13.89 21.09.53 4.23.93 8.29-1.73 12.21-2.4 3.54-1.92 5.05 1.19 8.3.44.46.88.94 1.18 1.48 5.1 9.34 9.02 18.91 6.94 29.97-.51 2.72-.08 5.62-.08 8.44.33.02.66.05.99.07 3-5.26 7.44-9.87 7.53-16.45.08-5.82.48-11.69-.15-17.45-.69-6.37-1.84-12.79-8.42-16.52-2.08-1.18-1.39-3.53-.19-5.61 1.15-2 2.24-4.28 2.43-6.51.26-3.12-.2-6.34-.62-9.48-.43-3.27-1.81-6.03-5-7.62-1.39-.7-2.62-1.73-4.44-2.95 1.65-1.12 2.84-2.13 4.2-2.81 3.56-1.78 5.69-4.63 6.73-8.4.36-1.33.61-2.7 1.13-3.97 1.8-4.38 4.11-8.14 9.07-9.86 4.39-1.52 8.57-.64 12.85-.06 5.97.81 6.07.94 6.66 6.57.02.16.26.29.52.57.4-.19 1.14-.3 1.24-.62 1.62-4.95 4.88-9.43 3.89-15.11-1.03-5.96-.9-6.01-7.01-6.6-5.91-.57-11.46-1.89-15.53-6.76-1.29-1.54-2.86-2.84-4.3-4.24-4.1-3.99-5.37-12.67-2.34-17.53 2.8-4.49 5.85-8.83 8.78-13.24 3.93-5.91 4.93-12.55 4.53-19.43-.09-1.63-1.25-3.19-2.2-5.47-2.18 3.24-3.8 5.46-5.23 7.8-2.89 4.73-5.95 9.38-11.05 11.97-5.56 2.82-7.76 7.24-7.48 13.26.04.85-.22 1.99-.78 2.56-3.96 3.98-8.24 4.42-12.89 1.47-3.05-1.94-3.33-3.43-.93-7.11 1.79 1.51 3.36 3.77 5.33 4.22 1.85.43 4.14-1.07 6.14-1.69zm40.54-109.53c-.71-3.61-2.01-5.96-4.24-7.11-2.82-1.46-5.12-.29-7.29 1.4-1.25.97-2.3 2.2-3.57 3.14-2.15 1.59-1.83 3.34-.54 5.22 2.28 3.33 8.79 4.44 12.27 1.81 1.42-1.09 2.26-2.95 3.37-4.46z" fill="#010100"/><path d="m232.18 106.8c2.81 3.54 5.55 6.5 7.74 9.83 3.94 5.99 3.17 12.33.3 18.47-.63 1.35-2.39 2.18-3.49 3.13 2.42 2.78 4.85 5.26 6.92 8.01 2.69 3.57 3.17 7.39.91 11.56-1.45 2.67-2.11 5.78-3.51 8.48-.69 1.32-2.28 3.02-3.46 3.01-1.44-.01-3.39-1.29-4.24-2.59-4.15-6.37-5.04-13.38-2.63-20.59 1.22-3.65.41-6.2-2.17-9.02-5.67-6.21-6.17-14.15-1.87-21.32 1.69-2.81 3.43-5.59 5.5-8.97zm1.79 7.28c-1.21 1.26-2.27 2.45-3.4 3.55-3.26 3.17-3.91 6.86-2.29 11.02.65 1.67 1.33 3.34 2.16 4.93 1.66 3.17 3.69 3.35 6.04.63 4.57-5.28 3.42-15.61-2.51-20.13zm3.34 50.84c.73-.69 1.59-1.16 1.92-1.88 2.47-5.4 2.15-10.84-.24-16.14-.43-.96-1.81-1.93-2.84-2.04-.68-.07-1.93 1.28-2.21 2.21-1.96 6.33-1.14 12.23 3.37 17.85z" fill="#010100"/><g fill="#fbfafc"><path d="m342.2 3.2-6.3 9.2h6.1v1.2h-8.2v-.5l6.2-9.1h-5.7v-1.2h7.8v.4z"/><path d="m344 13.7v-10.9h3.1c1.6 0 3 .5 4.1 1.4 1.1 1 1.6 2.2 1.6 3.9s-.5 3-1.6 4-2.5 1.5-4.2 1.5h-3zm1.4-9.6v8.4h1.6c1.4 0 2.5-.4 3.2-1.1.8-.8 1.2-1.8 1.2-3.2s-.4-2.4-1.2-3.1-1.8-1-3.1-1z"/><path d="m356.3 2.8v10.9h-1.4v-10.9z"/><path d="m366.6 13.2c-.8.4-1.8.6-3 .6-1.6 0-2.8-.5-3.7-1.5s-1.4-2.3-1.4-3.9c0-1.7.5-3.2 1.6-4.2s2.4-1.6 4-1.6c1 0 1.9.1 2.6.4v1.5c-.8-.4-1.6-.6-2.6-.6-1.2 0-2.2.4-3 1.2s-1.1 1.9-1.1 3.3c0 1.3.4 2.3 1.1 3.1s1.6 1.1 2.8 1.1c1.1 0 2-.2 2.8-.7v1.3z"/><path d="m368.2 13c0-.3.1-.5.3-.6.2-.2.4-.3.6-.3.3 0 .5.1.7.3s.3.4.3.6-.1.5-.3.6c-.2.2-.4.3-.7.3s-.5-.1-.6-.3c-.2-.2-.3-.4-.3-.6z"/><path d="m381.1 13.7h-1.7l-5.5-8.4c-.2-.2-.3-.5-.4-.7 0 .2.1.8.1 1.5v7.6h-1.4v-10.9h1.8l5.3 8.3c.3.4.4.6.4.8 0-.3-.1-.8-.1-1.6v-7.5h1.4v10.9z"/><path d="m389.7 13.7h-5.8v-10.9h5.6v1.2h-4.2v3.5h3.9v1.2h-3.9v3.7h4.4z"/><path d="m398.4 4.1h-3.1v9.6h-1.4v-9.6h-3.1v-1.3h7.7v1.3z"/></g></svg>