<svg enable-background="new 0 0 400 400" viewBox="0 0 400 400" xmlns="http://www.w3.org/2000/svg"><path d="m312.56 296.93c0 2.73.25 5.19-.11 7.56-.17 1.1-1.33 2.28-2.35 2.99-24.93 17.37-51.43 31.94-79.15 44.38-14.86 6.68-30.11 11.91-46.33 14.03-18.63 2.44-37 1.17-55.13-3.75-.8-.22-1.58-.6-2.29-1.03-21.82-13.47-33.54-33.12-36.09-58.53-1.59-15.81-4.12-31.56-5.16-47.4-1.02-15.63-1.66-31.4-.74-47 1.33-22.51 4.05-44.94 6.55-67.37.59-5.3 2.54-10.48 4.07-15.65 3.2-10.86 6.51-21.69 9.88-32.49.33-1.04 1.36-1.95 2.25-2.69.71-.58 1.69-.91 2.6-1.16 6.45-1.78 10.94-5.75 14.36-11.52 1.34-2.25 4.17-3.8 6.6-5.18 8.82-5.04 18.86-6.01 28.5-8.4 14.78-3.67 29.35-8.17 44.11-11.93 21.33-5.44 42.62-11.15 64.19-15.47 8.27-1.66 17.27-.05 25.89.6 3.75.28 6.47 2.95 7.84 6.66.71 1.93.52 3.19-1.62 4.29-10.58 5.42-21.84 7.89-33.63 8.41-10.5.47-20.91 1.51-30.93 5.03-1.72.6-2.68 1.35-2.85 3.21-1.73 19.53-6.67 38.33-12.76 56.89-.7 2.15-.86 4.57-.81 6.85.15 6.78.64 13.56.78 20.34.05 2.41.82 3.78 3.05 4.9 9.08 4.57 17.89 9.7 27.11 13.97 7.9 3.67 12.87 9.87 16.8 17.11 7.69 14.18 8.21 29.35 5.54 44.85-.41 2.39-1.03 4.76-1.69 7.1-2.61 9.19-6.59 16.95-16.22 21.23-8.28 3.68-15.78 9.07-23.77 13.45-2.88 1.58-4.38 3.79-5.19 6.77-2.12 7.75-.72 15.37.82 22.97 1.61 7.99 3.48 15.93 5.08 23.93.45 2.23 1.45 3.52 3.71 3.36 3.12-.21 6.49.01 9.29-1.11 7.62-3.04 15.07-6.32 22.05-10.97 13.35-8.89 27.8-15.78 43.72-19.01.49-.08 1.02-.1 2.03-.22zm-121.22-123.41c0-.01 0-.02 0-.04-14.07-.47-28.15-1.06-42.23-1.32-3.29-.06-6.78.52-9.88 1.64-11.61 4.17-20.73 12.17-29.8 20.17-.71.63-1.15 1.77-1.33 2.75-1.03 5.61-2.27 11.22-2.83 16.89-1.03 10.34-.44 20.54 4.4 30.06.42.83.89 1.75 1.6 2.29 11.9 9.12 24.83 15.41 40.22 16.15 13.94.67 27.73-.4 41.48-2.27 13.25-1.8 26.31-4.56 38.21-11.07 4.89-2.67 9.6-5.41 12.25-10.97 5.48-11.51 8.05-23.62 8.38-36.21.19-7.25-1.64-14.15-6.46-19.81-2.84-3.33-5.65-6.68-10.84-6.79-14.39-.31-28.78-.96-43.17-1.47zm10.18-20.24c.08-1.1.14-1.93.19-2.77 1.24-19.24 2.43-38.49 3.76-57.73.32-4.53 1.36-9.01 1.69-13.54.49-6.86-3.15-10.14-9.91-9.13-7.12 1.06-14.26 2.05-21.31 3.47-20.47 4.13-38.95 11.71-50.95 30.21-1.43 2.21-3.8 3.93-4.8 6.27-5.95 13.84-10.96 28.01-13.07 43.01-.61 4.33-.66 8.8 1.55 13.13 9.19-2.61 18.11-5.25 27.1-7.65 3.76-1 7.63-1.88 11.49-2.14 13.1-.88 26.23-1.45 39.35-2.17 4.94-.28 9.89-.64 14.91-.96zm-95.35 109.78c-1.72 5.96-3.39 11.53-4.86 17.14-.26.98.06 2.37.61 3.26 3.39 5.48 5.26 11.48 6.71 17.7 1.34 5.77 2.73 11.55 4.61 17.16 2.64 7.86 7.01 14.45 14.2 19.27 5.91 3.96 12.51 5.64 19.04 7.59 4.5 1.34 9.34 2.78 13.89 2.43 10.31-.78 20.63-2.18 30.76-4.23 6.55-1.33 12.79-4.21 19.13-6.52 1.54-.56 2.37-1.64 2.09-3.7-1.98-14.59-3.77-29.2-5.65-43.8-.58-4.47-1.23-8.93-1.86-13.42-9.09.77-17.77 1.23-26.39 2.28-17.39 2.13-34.18.46-50.38-6.57-7.05-3.05-14.32-5.63-21.9-8.59z" fill="#010100"/><path d="m150.23 206.32c9.95-4.08 19.94-2.47 29.83-2.05 4.52.19 9.02 1.01 13.52 1.55.31.04.64.08.93.18 2.9 1.03 6.64 1.89 6.64 5.37 0 1.69-2.98 3.71-4.98 5.02-5.82 3.79-12.42 4.94-19.17 4.04-8.16-1.1-16.23-2.83-24.35-4.18-2.02-.34-2.58-1.31-2.45-3.22.14-2.22.03-4.45.03-6.71z" fill="#010100"/><g fill="#fbfafc"><path d="m342.2 3.2-6.3 9.2h6.1v1.2h-8.2v-.5l6.2-9.1h-5.7v-1.2h7.8v.4z"/><path d="m344 13.7v-10.9h3.1c1.6 0 3 .5 4.1 1.4 1.1 1 1.6 2.2 1.6 3.9s-.5 3-1.6 4-2.5 1.5-4.2 1.5h-3zm1.4-9.6v8.4h1.6c1.4 0 2.5-.4 3.2-1.1.8-.8 1.2-1.8 1.2-3.2s-.4-2.4-1.2-3.1-1.8-1-3.1-1z"/><path d="m356.3 2.8v10.9h-1.4v-10.9z"/><path d="m366.6 13.2c-.8.4-1.8.6-3 .6-1.6 0-2.8-.5-3.7-1.5s-1.4-2.3-1.4-3.9c0-1.7.5-3.2 1.6-4.2s2.4-1.6 4-1.6c1 0 1.9.1 2.6.4v1.5c-.8-.4-1.6-.6-2.6-.6-1.2 0-2.2.4-3 1.2s-1.1 1.9-1.1 3.3c0 1.3.4 2.3 1.1 3.1s1.6 1.1 2.8 1.1c1.1 0 2-.2 2.8-.7v1.3z"/><path d="m368.2 13c0-.3.1-.5.3-.6.2-.2.4-.3.6-.3.3 0 .5.1.7.3s.3.4.3.6-.1.5-.3.6c-.2.2-.4.3-.7.3s-.5-.1-.6-.3c-.2-.2-.3-.4-.3-.6z"/><path d="m381.1 13.7h-1.7l-5.5-8.4c-.2-.2-.3-.5-.4-.7 0 .2.1.8.1 1.5v7.6h-1.4v-10.9h1.8l5.3 8.3c.3.4.4.6.4.8 0-.3-.1-.8-.1-1.6v-7.5h1.4v10.9z"/><path d="m389.7 13.7h-5.8v-10.9h5.6v1.2h-4.2v3.5h3.9v1.2h-3.9v3.7h4.4z"/><path d="m398.4 4.1h-3.1v9.6h-1.4v-9.6h-3.1v-1.3h7.7v1.3z"/></g></svg>