<svg enable-background="new 0 0 400 400" viewBox="0 0 400 400" xmlns="http://www.w3.org/2000/svg"><path d="m374.8 390.4.4-.4c.7.5 1.3 1 1.8 1.4l-.5.5c-.5-.6-1.1-1.1-1.7-1.5zm1 7.3-.6-.3c.5-1.4 1.1-2.8 1.5-4.3.2.1.4.2.6.3-.5 1.3-1 2.8-1.5 4.3zm-.4-10.3.4-.4c.4.3 1 .8 1.7 1.4l-.5.5c-.4-.5-1-1-1.6-1.5zm2.5.3h1.7v-1h.6v1h3.5v-1h.6v1h1.8v.5h-1.8v1.4h-2v1h3.2v2h-3.2v.9h3.3v.5h-3.4c0 .3-.1.6-.1.9h4v.5h-3.7c.7.9 1.9 1.5 3.8 1.7-.1.2-.2.4-.3.6-2.1-.4-3.5-1.1-4-2.1-.4 1-1.8 1.7-4 2.2-.1-.2-.2-.4-.3-.6 2.1-.4 3.4-1 3.8-1.8h-3.4v-.5h3.6c.1-.3.1-.6.2-.9h-3.3v-.5h3.4c0-.3 0-.6 0-.9h-3.2v-2h3.3v-1h-2.1v-1.4h-1.7v-.5zm1.1 3.5v1h2.7c0-.3 0-.4 0-.4 0-.1 0-.2 0-.2 0-.1 0-.2 0-.3h-2.7zm1.2-3v.9h3.5v-.9zm4.7 3h-2.6v.6.4h2.6z" fill="#fbfafc"/><path d="m393.6 386.7h.6v1.5h2.7v6.1h1.1v.6h-11v-.6h1.1v-6.1h2.7v-1.5h.6v1.5h2.1v-1.5zm-2.7 8.8.4.6c-1.2.6-2.5 1.3-3.8 1.9-.1-.2-.2-.4-.3-.6 1.2-.6 2.5-1.2 3.7-1.9zm-2.2-6.7v2.4h2.1v-2.4zm0 3v2.5h2.1v-2.5zm2.8-3v2.4h2.1v-2.4zm0 3v2.5h2.1v-2.5zm6 6.1c-1.4-.7-2.7-1.3-3.9-1.8l.3-.6c1.5.6 2.7 1.2 3.9 1.7zm-1.2-9.1h-2.1v2.4h2.1zm-2.1 3v2.5h2.1v-2.5z" fill="#fbfafc"/><g fill="#010000"><path d="m195.45 95.32c3.62-.5 6.66-.38 9.74 2.26 5.82 4.97 12.86 7.65 20.44 8.87 2.12.34 3.52.07 4.3-2.35.97-2.99 2.42-5.83 3.74-8.89-3.94-1.83-4.98-5.34-5.88-9-1.26-5.12-2.31-10.34-4.13-15.27-.97-2.63-3.07-5.06-5.19-7.02-6.77-6.25-13.9-12.11-20.64-18.39-2.34-2.18-3.95-5.14-5.89-7.74.17-.24.35-.49.52-.73 1.62.51 3.22 1.11 4.87 1.53 11.19 2.86 20.89 8.32 29.41 16.16 4.59 4.22 9.78 7.79 14.57 11.81 1.55 1.3 2.8 1.39 4.54.58 12.98-5.98 20.88-15.5 21.33-30.28.02-.52.1-1.04.18-1.82 5.17 2.21 8.07 6.15 9.68 11.16.27.83.26 1.99-.11 2.76-2.8 5.78-4.75 11.87-8.35 17.38-4.46 6.82-11.08 10.3-17.67 14.01-2.96 1.67-4.03 3.39-3.92 6.89.78 24.79 1.37 49.59 1.8 74.39.06 3.34 1.47 4.68 4.27 4.21 3.81-.63 7.78-1.35 11.2-3.02 7.21-3.53 13.95-8.01 21.17-11.5 3.67-1.78 7.96-2.27 12.02-3.35.92 2.64 1.54 4.42 2.15 6.14-15.55 11.58-34.57 17.86-47.71 32.23 4.78 7.74 10.86 12.17 19.12 13.65 3.46.62 7.07 1.54 8.76 5.98-10.8.43-21.38 2.74-31.38-2.26-1.99-.99-3.63-3.17-4.82-5.17-3.2-5.38-5.39-6.68-11.39-4.94-5.68 1.64-11.2 3.86-16.84 5.65-2.5.79-5.1 1.37-7.7 1.64-3.45.36-6.13-1.22-8.33-4.57 3.09-1.88 6.02-3.93 9.18-5.51 7.38-3.69 14.86-7.2 22.35-10.66 2.08-.96 2.95-2.11 2.85-4.55-.71-17.58-1.3-35.17-1.8-52.76-.07-2.37-.86-3.13-3.14-3.7-6.36-1.59-12.65-3.47-18.89-5.49-8.76-2.87-13.51-9.03-14.41-18.33z"/><path d="m99.51 159.99c3.68.7 6.96 1.03 10.04 1.98 3.64 1.13 4.04 3.01 2.92 6.66-.78 2.53-1.36 5.39-.98 7.94.65 4.35 2.81 5.63 7.23 5.7 16.95.26 33.89.55 50.84.83 1.24.02 2.49 0 3.48 0 2.55-4.12-1.3-10.83 6.04-12.3 5.76 7.8 10.95 15.75 8.08 26.2-1.73 6.29-1.31 12.59-.13 18.86.9 4.83-.31 9.37-1 14.08-.91 6.23-4.02 10.55-8.76 14.38-9.53 7.69-19.93 12.81-32.48 12.39-8.03-.27-15.67-2.34-23.1-5.26-.39-.15-.82-.31-1.13-.58-5.68-4.92-11.55-9.65-16.94-14.87-4.94-4.78-7.65-10.96-8.16-17.82-.21-2.87.54-5.82.98-8.72.67-4.47 1.87-8.9 2.08-13.39.54-11.74.67-23.49.99-36.08zm14.48 54.77c-.25 0-.51 0-.76 0 0 4.13-.12 8.27.08 12.39.05 1.17.73 2.65 1.61 3.38 3.84 3.17 7.95 6 11.79 9.17 2.48 2.04 5.06 3.13 8.32 3.3 4.75.25 9.48.97 14.21 1.57 6.21.8 11.86-.55 16.63-4.6 1.49-1.27 2.89-3.21 3.32-5.07 1.38-5.97 2.56-12.02 3.29-18.1.6-5.01.62-10.11.57-15.17-.03-2.83-1.38-4.36-4.79-4.41-12.28-.17-24.56-.55-36.82-1.26-5.55-.32-10.66-.02-15.36 3.3-1.33.94-2.17 1.68-2.11 3.43.1 4.02.02 8.05.02 12.07z"/><path d="m217.34 226.97c8.27 2.53 15.27 5.85 18.9 14.04 1.99 4.49 5.29 8.39 7.87 12.63 1.93 3.17 4.78 3.79 7.96 2.88 3.54-1.01 7.13-2.13 10.4-3.78 9.04-4.58 17.93-9.47 27.01-14.31 3.49 3.07 3.01 6.85-1.76 9.86-11.01 6.95-22.01 13.93-33.16 20.67-2.79 1.69-3.74 3.58-3.81 6.79-.46 21.82-1.41 43.64-1.58 65.46-.06 7.56 1.65 15.13 2.55 22.7.06.51.11 1.03.2 1.85-6.69-.99-12.61-2.27-16.55-8.73-5.95-9.75-7.75-20.32-7.48-31.36.34-14.04 1.11-28.07 1.76-42.1.17-3.77-1.69-4.97-5.39-3.36-3.85 1.67-7.6 3.89-11.63 4.79-6.77 1.51-13.71 1.11-20.43-.8-4.5-1.28-7.15-3.84-9.05-8.59 5.66-.8 11.18-2.26 16.68-2.19 9.25.13 16.31-3.82 22.52-10 2.47-2.46 4.63-5.25 7.07-7.75 1.22-1.25 1.1-2.22.27-3.59-2.63-4.35-5.38-8.65-7.64-13.19-1.9-3.81-3.16-7.93-4.71-11.92z"/><path d="m128.65 216.01c7.56-5.06 15.62-3.55 23.54-2.6 1.32.16 3.02 1.94 3.48 3.32.63 1.89-.04 3.92-2.32 4.92-6.07 2.67-12.48 3.76-18.89 2.4-5.68-1.2-5.17-.6-5.81-8.04z"/></g></svg>