<svg enable-background="new 0 0 400 400" viewBox="0 0 400 400" xmlns="http://www.w3.org/2000/svg"><path d="m374.8 390.4.4-.4c.7.5 1.3 1 1.8 1.4l-.5.5c-.5-.6-1.1-1.1-1.7-1.5zm1 7.3-.6-.3c.5-1.4 1.1-2.8 1.5-4.3.2.1.4.2.6.3-.5 1.3-1 2.8-1.5 4.3zm-.4-10.3.4-.4c.4.3 1 .8 1.7 1.4l-.5.5c-.4-.5-1-1-1.6-1.5zm2.5.3h1.7v-1h.6v1h3.5v-1h.6v1h1.8v.5h-1.8v1.4h-2v1h3.2v2h-3.2v.9h3.3v.5h-3.4c0 .3-.1.6-.1.9h4v.5h-3.7c.7.9 1.9 1.5 3.8 1.7-.1.2-.2.4-.3.6-2.1-.4-3.5-1.1-4-2.1-.4 1-1.8 1.7-4 2.2-.1-.2-.2-.4-.3-.6 2.1-.4 3.4-1 3.8-1.8h-3.4v-.5h3.6c.1-.3.1-.6.2-.9h-3.3v-.5h3.4c0-.3 0-.6 0-.9h-3.2v-2h3.3v-1h-2.1v-1.4h-1.7v-.5zm1.1 3.5v1h2.7c0-.3 0-.4 0-.4 0-.1 0-.2 0-.2 0-.1 0-.2 0-.3h-2.7zm1.2-3v.9h3.5v-.9zm4.7 3h-2.6v.6.4h2.6z" fill="#fbfafc"/><path d="m393.6 386.7h.6v1.5h2.7v6.1h1.1v.6h-11v-.6h1.1v-6.1h2.7v-1.5h.6v1.5h2.1v-1.5zm-2.7 8.8.4.6c-1.2.6-2.5 1.3-3.8 1.9-.1-.2-.2-.4-.3-.6 1.2-.6 2.5-1.2 3.7-1.9zm-2.2-6.7v2.4h2.1v-2.4zm0 3v2.5h2.1v-2.5zm2.8-3v2.4h2.1v-2.4zm0 3v2.5h2.1v-2.5zm6 6.1c-1.4-.7-2.7-1.3-3.9-1.8l.3-.6c1.5.6 2.7 1.2 3.9 1.7zm-1.2-9.1h-2.1v2.4h2.1zm-2.1 3v2.5h2.1v-2.5z" fill="#fbfafc"/><g fill="#010000"><path d="m276.83 248.94c-2.38-4.8-3.35-9.79-3.18-14.9.27-8.04.93-16.07 1.36-24.11 1.06-19.84-4.7-38.29-11.58-56.5-3.86-10.22-11.88-15.04-22.05-17.58-14.81-3.7-29.91-4.68-45.02-5.62-9.09-.57-18.21-.76-27.3-1.25-2.51-.14-3.89.58-5.09 2.99-5.2 10.46-6.35 21.62-6.63 33.04-.21 8.58-.82 17.14-1.35 25.71-.1 1.66-.46 3.36-.99 4.94-7.09 21.18-14.55 42.24-21.22 63.55-3.69 11.8-6.12 23.99-8.98 36.04-.49 2.08-1.35 3.28-3.42 3.95-3.57 1.16-7.05 2.62-11.14 4.17 1.19-3.67 2.16-6.77 3.19-9.85 3.92-11.75 8.32-23.37 11.66-35.29 3.02-10.79 4.96-21.88 7.26-32.86 4.81-22.9 9.54-45.82 14.29-68.74.24-1.14.67-2.36.47-3.44-2.03-11.23 1.83-21.83 3.45-32.65 1.09-7.33 2.57-14.6 3.96-21.88.33-1.72-.02-2.71-1.71-3.48-3.47-1.57-6.75-3.57-10.26-5.04-11.53-4.81-17.38-14.47-21.52-25.38-3.37-8.88-4.5-18.26-4.53-27.76 2.68-1.64 4.45-1.45 6.13 1.54 4.54 8.11 9.96 15.72 12.91 24.69.98 2.96 2.75 5.73 4.53 8.34 3 4.41 9.42 5.61 13.88 2.75.67-.43 1.1-1.45 1.35-2.29 1.97-6.79.73-13.66.59-20.53-.11-5.53.78-11.07 1.25-16.93 5.9 1.3 9.44 4.39 10.8 9.01 1.76 5.95 2.61 12.17 3.8 18.28.49 2.49.81 5.02 1.28 7.52.77 4.11 3.07 6 6.9 4.27 5.51-2.49 11.12-5.35 15.64-9.25 5.49-4.73 9.9-10.71 15.31-16.03-.38 1.86-.74 3.73-1.13 5.59-.35 1.66-.89 3.29-1.07 4.97-.92 8.21-4.48 14.84-10.54 20.58-5.37 5.08-11.92 7.39-18.6 8.98-6.03 1.44-9.06 4.73-9.94 10.37-1.63 10.38-2.76 8.92 6.93 13.51 10.73 5.08 22.46 5.79 34.06 6.99 10.74 1.11 21.61 1.86 32.13 4.12 17.56 3.77 30.75 13.29 36.15 31.46 1.17 3.95 2.93 7.75 1.81 12.02-.94 3.58.03 6.93 1.47 10.14 1.19 2.65 1.58 5.28.41 7.97-2.24 5.17-.43 10.21.35 15.29 2.26 14.74 3.7 29.46-.72 44.1-1.14 3.72-1.08 3.74-5.35 4.48z"/><path d="m186.44 245.02c-4.21-1.87-7.41-3.42-10.72-4.72-3.68-1.44-5.48-4.07-5.84-8.81 3.5-.73 7.07-1.35 10.56-2.25 1.56-.41 3.16-1.16 4.43-2.14 3.09-2.39 6-5.01 8.95-7.5 1.34 2.08 3.33 5.06 5.19 8.13 2.48 4.08 6.05 6.34 10.75 7.01 4.99.71 6.26 1.95 7.66 7.7-3.76.75-7.47 1.72-11.25 2.19-3.86.47-6.95 1.76-8.83 6.01 4.28 3.19 8.57 6.6 13.07 9.69 6.48 4.44 12.92 8.81 17.63 15.36 2.18 3.03 3.02 6.24 2.08 9.56-2.48 8.75-5.31 17.4-8.1 26.05-.26.79-1.14 1.54-1.92 1.98-4.9 2.7-9.75 5.53-14.81 7.9-5.96 2.79-11.12 6.16-13.29 13.85 3.89 1.69 7.82 3.63 11.92 5.1 3.95 1.41 6.84 3.58 8.11 8.11-5.27.82-10.36 1.58-15.43 2.42-4.25.7-6.63 3.86-6.25 8.17.55 6.39.13 6.84-6.94 7.18-.91-3.6-2.02-7.23-2.71-10.95-1.16-6.26-3.42-7.61-9.51-8.17-4.83-.45-7.12-3.05-8.94-7.49 3.78-.41 7.33-1.07 10.88-1.09 2.15-.01 3.5-.68 4.29-2.46 1.1-2.48 2.02-5.04 3.1-7.77-6.13-2.62-11.74-5.41-17.62-7.41-5.7-1.94-8.75-6-10.93-11.13-3.94-9.24-3.36-18.85-2.17-28.48.19-1.57.7-3.11.85-4.68.84-8.28 5.77-13.23 12.98-16.55 4.9-2.25 9.82-4.52 14.41-7.32 2.87-1.8 5.15-4.55 8.4-7.49zm-3.74 48.04c-3.28-.17-6.1-.16-8.89-.5-3.35-.41-6.67-1.1-10-1.67-2.73-.47-6.11 2.37-5.39 4.62 2.76 8.66 7.79 15.1 17.12 17.34 4.33 1.04 7.81-1.25 7.93-5.61.1-3.8-.01-7.6-.14-11.4-.03-1.1-.48-2.18-.63-2.78zm16.5-26.65c-.71 2.03-1.42 4-2.1 5.98-1.71 5.02.03 9.3 3.97 12.09 3.91 2.76 8.66 4.04 13.52 2 2.16-.9 3.45-2.4 1.99-4.95-1.73-3.02-3.15-6.24-5.11-9.1-2.83-4.12-7.11-5.75-12.27-6.02zm-13.32 14.81c0-4.2-.01-7.87 0-11.55.01-2.74-1.2-4.71-3.74-5.68-2.52-.96-4.99-1.53-7.34.73-1.74 1.67-3.68 3.26-5.8 4.4-4.17 2.25-5.1 5.46-3.61 9.69.1.29.22.57.43 1.13 6.44.42 12.95.83 20.06 1.28zm10.85 33.13c3.47-1.88 5.88-3.5 8.52-4.53 3.31-1.28 4.54-3.8 5.22-6.92.87-4.02.47-4.82-3.38-5.99-1.92-.58-3.87-1.08-5.82-1.56-2.52-.62-5.67 1.51-5.96 4.09-.26 2.31-.66 4.68-.44 6.97.25 2.53 1.14 4.98 1.86 7.94z"/><path d="m203.61 207.13c-.31-12.49-.72-24.98-.86-37.48-.03-3.08-1.16-5.13-3.78-6.31-3.17-1.42-6.43-2.67-9.71-3.82-3.55-1.24-4.66-2.56-4.08-5.32.77-3.67 3.25-6.1 6.35-5.48 5.37 1.07 10.71 2.41 15.96 3.97 6.57 1.96 12.98 4.47 19.58 6.35 12.9 3.7 23.26 16.5 22.94 29.92-.21 8.97-1.58 17.91-2.55 26.86-.08.7-.94 1.6-1.65 1.89-1.75.71-3.63 1.12-5.98 1.81-.4-3.14-.94-6.11-1.13-9.1-.54-8.46-.88-16.93-1.39-25.39-.34-5.75-1.84-11.31-7.61-13.62-3.67-1.47-7.99-1.41-12.04-1.74-.6-.05-1.77 1.43-1.93 2.34-1.36 7.37-2.41 14.8-3.83 22.16-.63 3.28-1.57 6.58-2.99 9.58-.79 1.67-2.86 2.74-4.36 4.08-.32-.23-.63-.47-.94-.7z"/></g></svg>