<svg enable-background="new 0 0 400 400" viewBox="0 0 400 400" xmlns="http://www.w3.org/2000/svg"><path d="m374.8 390.4.4-.4c.7.5 1.3 1 1.8 1.4l-.5.5c-.5-.6-1.1-1.1-1.7-1.5zm1 7.3-.6-.3c.5-1.4 1.1-2.8 1.5-4.3.2.1.4.2.6.3-.5 1.3-1 2.8-1.5 4.3zm-.4-10.3.4-.4c.4.3 1 .8 1.7 1.4l-.5.5c-.4-.5-1-1-1.6-1.5zm2.5.3h1.7v-1h.6v1h3.5v-1h.6v1h1.8v.5h-1.8v1.4h-2v1h3.2v2h-3.2v.9h3.3v.5h-3.4c0 .3-.1.6-.1.9h4v.5h-3.7c.7.9 1.9 1.5 3.8 1.7-.1.2-.2.4-.3.6-2.1-.4-3.5-1.1-4-2.1-.4 1-1.8 1.7-4 2.2-.1-.2-.2-.4-.3-.6 2.1-.4 3.4-1 3.8-1.8h-3.4v-.5h3.6c.1-.3.1-.6.2-.9h-3.3v-.5h3.4c0-.3 0-.6 0-.9h-3.2v-2h3.3v-1h-2.1v-1.4h-1.7v-.5zm1.1 3.5v1h2.7c0-.3 0-.4 0-.4 0-.1 0-.2 0-.2 0-.1 0-.2 0-.3h-2.7zm1.2-3v.9h3.5v-.9zm4.7 3h-2.6v.6.4h2.6z" fill="#fbfafc"/><path d="m393.6 386.7h.6v1.5h2.7v6.1h1.1v.6h-11v-.6h1.1v-6.1h2.7v-1.5h.6v1.5h2.1v-1.5zm-2.7 8.8.4.6c-1.2.6-2.5 1.3-3.8 1.9-.1-.2-.2-.4-.3-.6 1.2-.6 2.5-1.2 3.7-1.9zm-2.2-6.7v2.4h2.1v-2.4zm0 3v2.5h2.1v-2.5zm2.8-3v2.4h2.1v-2.4zm0 3v2.5h2.1v-2.5zm6 6.1c-1.4-.7-2.7-1.3-3.9-1.8l.3-.6c1.5.6 2.7 1.2 3.9 1.7zm-1.2-9.1h-2.1v2.4h2.1zm-2.1 3v2.5h2.1v-2.5z" fill="#fbfafc"/><g fill="#010000"><path d="m163.87 164.44c-.36 7.45-.66 13.79-.96 20.12-.58 12.07-.65 24.19-1.85 36.21-1.73 17.39-3.83 34.77-6.68 52.01-1.01 6.08-4.26 11.95-7.25 17.51-10 18.54-22.69 35-39 48.52-4.73 3.93-9.61 7.08-16.21 6.79-3.87-.17-7.78.58-11.88.94-.19-1.46-.63-2.75-.42-3.93.17-.99.92-2.39 1.74-2.67 8.65-2.93 15.2-8.26 20.57-15.7 5.94-8.24 13.02-15.64 19.1-23.79 13.35-17.88 20.31-38.29 22.03-60.38 1.39-17.85 2.13-35.75 2.9-53.64.28-6.45-.07-12.93-.37-19.39-.05-1.05-1.14-2.45-2.13-3-4.9-2.7-10.14-2.66-15.45-1.41-1.44.34-2.84.85-4.27 1.23-7.19 1.89-12.78-.76-16.26-7.85 6.69-3.56 13.92-4.51 21.35-4.75 4.11-.13 8.29-.28 12.29-1.13 6.04-1.27 8.26-4.06 8.35-10.2.07-4.43-.58-8.87-.78-13.31-.11-2.39.05-4.78.12-7.18.2-7.29.61-14.58.59-21.87-.02-12.08-.39-24.17-.41-36.25-.01-2.38-.84-3.29-2.98-3.93-7.03-2.11-14.22-2.22-21.43-1.84-10.68.57-21.36 1.35-32.04 1.94-1.88.1-3.84-.04-5.66-.48-3.93-.95-6.66-6.1-5.31-9.85.23-.64 1.08-1.23 1.78-1.51 5.88-2.41 11.81-4.68 17.68-7.11 5.77-2.39 11.77-2.13 17.82-1.99 21.93.48 43.87 1.45 65.79 1.14 26.05-.37 52.08-2.07 78.13-2.76 6.6-.18 13.25 1.24 19.87 1.95 2.84.3 5.72.48 8.51 1.06 2.03.42 4.1 1.15 5.86 2.21 2.52 1.52 3.53 4.25 2.69 6.9-.46 1.44-2.33 2.75-3.87 3.48-5.94 2.81-12.35 2.39-18.42 1.13-9.88-2.05-19.64-.66-29.44-.13-24.33 1.32-48.65 2.82-72.98 4.13-2.26.12-3.53.87-4.89 2.66-2.64 3.48-3.38 7.19-3.43 11.5-.29 24.59-.78 49.19-1.39 73.78-.07 2.86.81 4.1 3.46 4.32 7.48.64 14.96 1.25 22.44 1.89 2.21.19 4.45.26 6.6.71 2.55.53 4.87 2.08 4.8 4.78-.08 2.84-1.03 5.73-2.05 8.43-.22.6-2.31.68-3.53.68-10.93.05-21.84.03-33.13.03z"/><path d="m162.54 366.52c-.15-6.53 1.69-11.22 7.25-13.88 3.71-1.78 7.25-4.02 11.11-5.36 7.08-2.46 13.25-6.13 18.17-11.78 10.32-11.83 20.2-23.94 27.37-38.09 4.22-8.33 4.44-17.33 5.78-26.19.79-5.23 1.86-10.42 2.46-15.67.49-4.27.4-8.6.69-12.89.17-2.52.3-5.09.94-7.51 1.12-4.23.86-8.33.04-12.54-.93-4.78-1.65-9.61-2.23-14.44-.34-2.83-1.44-4.55-4.35-5.25-4.11-.99-8.18-2.18-12.22-3.44-3.95-1.23-7.51-3-8.62-8.48 4.72-.52 9.26-1.45 13.81-1.44 12.71.03 25.43.45 38.14.73 5.15.11 10.32.48 15.46.29 2-.07 4.08-1.11 5.91-2.1 3.54-1.92 6-4.55 5.31-9.13-.64-4.22.66-8.16 2.42-11.97.57-1.24 1.12-2.55 1.37-3.88 1.17-6.33-3.48-12.27-9.98-12.62-14.28-.78-28.56-1.64-42.85-2.04-4.49-.13-9.05.86-13.5 1.74-3.28.65-5.51-.62-7.57-2.79-4.47-4.71-5.99-10.67-6.73-16.82-.81-6.73-1.04-13.53-1.85-20.26-.8-6.65 2.14-12.39 3.74-18.49.61-2.33.74-4.95.38-7.33-.63-4.2 2.75-7.82 7.09-7.12 5.65.91 11.26 2.21 16.94 2.66 9.49.74 19.02.96 28.54 1.37 14.49.63 28.99 1.21 43.48 1.9 1.43.07 3.24.36 4.14 1.26 1.21 1.21 2.28 3.12 2.31 4.75.02 1.2-1.51 2.84-2.76 3.53-1.49.82-3.56 1.44-5.15 1.1-9.9-2.1-19.84-1.01-29.77-.75-9.53.25-19.06.55-28.59.96-7.07.3-13.53 2.22-17.25 8.86-2.89 5.15-2.82 10.9-2.77 16.7.05 6.02 3.36 8.7 8.33 10.8 8.74 3.69 17.96 3.79 27.15 4.22 11.84.56 23.77.41 34.99 5.12.58.25 1.2.43 1.79.65 6.1 2.33 6.71 3.07 5.9 9.42-2.03 15.87-4.21 31.72-6.4 47.56-.11.83-.62 1.85-1.28 2.32-6.35 4.5-13.17 7.02-21.16 5.26-4.32-.95-8.76-1.39-13.16-1.99-.82-.11-1.7.02-2.53.16-5.6.98-6.61 1.67-7.31 7.22-1.94 15.55-3.56 31.15-5.45 46.71-.38 3.1-.85 6.39-2.2 9.15-6.08 12.42-8.45 25.91-11.93 39.09-.58 2.19-1.65 4.31-2.84 6.25-3.82 6.21-7.87 12.28-11.71 18.48-6.85 11.04-15.64 19.99-27.44 25.75-.57.28-1.11.76-1.7.84-7.26.97-13.59 4.5-20.23 7.2-2.86 1.18-6.09 1.45-9.48 2.2z"/></g></svg>