<svg enable-background="new 0 0 400 400" viewBox="0 0 400 400" xmlns="http://www.w3.org/2000/svg"><path d="m374.8 390.4.4-.4c.7.5 1.3 1 1.8 1.4l-.5.5c-.5-.6-1.1-1.1-1.7-1.5zm1 7.3-.6-.3c.5-1.4 1.1-2.8 1.5-4.3.2.1.4.2.6.3-.5 1.3-1 2.8-1.5 4.3zm-.4-10.3.4-.4c.4.3 1 .8 1.7 1.4l-.5.5c-.4-.5-1-1-1.6-1.5zm2.5.3h1.7v-1h.6v1h3.5v-1h.6v1h1.8v.5h-1.8v1.4h-2v1h3.2v2h-3.2v.9h3.3v.5h-3.4c0 .3-.1.6-.1.9h4v.5h-3.7c.7.9 1.9 1.5 3.8 1.7-.1.2-.2.4-.3.6-2.1-.4-3.5-1.1-4-2.1-.4 1-1.8 1.7-4 2.2-.1-.2-.2-.4-.3-.6 2.1-.4 3.4-1 3.8-1.8h-3.4v-.5h3.6c.1-.3.1-.6.2-.9h-3.3v-.5h3.4c0-.3 0-.6 0-.9h-3.2v-2h3.3v-1h-2.1v-1.4h-1.7v-.5zm1.1 3.5v1h2.7c0-.3 0-.4 0-.4 0-.1 0-.2 0-.2 0-.1 0-.2 0-.3h-2.7zm1.2-3v.9h3.5v-.9zm4.7 3h-2.6v.6.4h2.6z" fill="#fbfafc"/><path d="m393.6 386.7h.6v1.5h2.7v6.1h1.1v.6h-11v-.6h1.1v-6.1h2.7v-1.5h.6v1.5h2.1v-1.5zm-2.7 8.8.4.6c-1.2.6-2.5 1.3-3.8 1.9-.1-.2-.2-.4-.3-.6 1.2-.6 2.5-1.2 3.7-1.9zm-2.2-6.7v2.4h2.1v-2.4zm0 3v2.5h2.1v-2.5zm2.8-3v2.4h2.1v-2.4zm0 3v2.5h2.1v-2.5zm6 6.1c-1.4-.7-2.7-1.3-3.9-1.8l.3-.6c1.5.6 2.7 1.2 3.9 1.7zm-1.2-9.1h-2.1v2.4h2.1zm-2.1 3v2.5h2.1v-2.5z" fill="#fbfafc"/><g fill="#010000"><path d="m122.73 241.94c-3.78-7.85-3.38-15.22.03-22.65 3-6.54 6.59-12.92 8.61-19.75 2.01-6.83 2.6-14.11 3.41-21.24 1.21-10.63 2.5-21.29 2.88-31.97.19-5.27-1.71-10.6-2.4-15.94-1.47-11.44-2.84-22.9-4.03-34.37-.14-1.39.66-3.33 1.69-4.32 20.82-19.9 43.48-37.45 67.54-53.3 5.53-3.64 10.04-2.81 14.9-.16 2.75 1.5 5.27 3.57 7.55 5.74 14.27 13.6 28.24 27.52 42.77 40.84 5.04 4.62 5.32 9.64 4.49 15.46-.03.21-.1.41-.19.6-6.27 13.55-5.3 28.08-5.69 42.42-.26 9.54-.65 19.08-.54 28.61.05 4.06.96 8.16 1.91 12.14 3.32 13.9 6.84 27.75 10.26 41.62.17.71.24 1.44.4 2.49-4.18.46-8.25.9-12.68 1.39-1.62-5.08-3.25-10.07-4.81-15.08-4.12-13.24-8.76-26.43-9.56-40.38-.61-10.65-.4-21.37-.17-32.05.31-14.2 1.05-28.39 1.46-42.58.05-1.68-.38-3.68-1.3-5.05-10.49-15.54-23.5-28.6-38.99-39.19-3.55-2.43-6.59-2.34-10.69-.33-11.42 5.62-20.2 14.63-30.17 22.1-4.15 3.11-8.21 6.38-12.02 9.89-2.79 2.56-5.3 5.49-7.6 8.52-3.88 5.1-5.34 10.64-3.94 17.26 2.26 10.66 4.13 21.44 5.37 32.27.56 4.9-.77 10.03-1.33 15.04-.7 6.29-2.71 12.71-1.99 18.82 1.3 10.93-1.9 20.28-7.17 29.28-2.99 5.11-6.79 9.77-9.6 14.97-1.85 3.43-3.04 7.38-3.7 11.23-.53 3.21-1.9 5.46-4.7 7.67z"/><path d="m250.54 362.08c-5.02-1.23-9.72-2.36-14.4-3.58-.54-.14-1-.75-1.42-1.22-4.44-4.99-8.93-9.93-13.25-15.02-1.13-1.33-1.79-3.09-2.51-4.72-1.54-3.48-2.98-7.01-4.46-10.52-2.24-5.33-2.61-5.61-9-6.64-2.89 8.56-5.8 17.16-8.69 25.77-1.82 5.42-3.69 10.82-5.37 16.28-.67 2.16-1.58 3.4-4.1 3.4-2.41 0-4.82.55-7.47.89-1.85-4.24-1.28-8.58-.83-12.83.35-3.36.89-6.75 1.85-9.98.82-2.76 1.99-5.56 3.64-7.9 6.65-9.37 6.65-23.56-.29-32.81-5.39-7.19-11.29-14.06-16.1-21.62-6.44-10.13-7.19-21.5-4.89-33.12.16-.79.43-1.73.98-2.26 8.74-8.32 17.05-17.12 27.65-23.25 11.92-6.9 23.79-5.7 35.42.34 7.79 4.05 10.59 11.41 7.75 20.69-2.5 8.18-6.22 15.99-8.74 24.16-2.89 9.39-4.98 19.02-7.53 28.51-1.42 5.27 1.48 9.46 3.35 13.84 3.71 8.7 9.81 15.77 16.2 22.61 7.23 7.72 11.42 17.64 12.21 28.98zm-71.58-109.04c1.43 6.18 5.64 9.93 11.35 12.49 3.45 1.55 7.1 3.05 9.98 5.41 3.15 2.57 6 2.64 9.17.91.86-.47 1.79-1.75 1.81-2.68.11-3.54-1.7-6.55-4.45-8.35-5.7-3.73-11.67-7.07-17.68-10.3-3.88-2.1-7.5-1.52-10.18 2.52zm27.13-22.75c-.02.11-.04.22-.06.33-.74 0-1.49.08-2.22-.01-3.95-.51-6.84 2.05-8.28 4.73-1.4 2.62.36 5.94 2.64 8.25 1.63 1.65 3.47 3.1 5.09 4.76 3.39 3.47 7.85 2.29 11.91 2.8.34.04 1.03-.73 1.16-1.22 1.08-4.28 2.24-8.56 3.02-12.9.47-2.62-.97-4.55-3.63-5.11-3.18-.68-6.42-1.1-9.63-1.63zm-28.55 40.73c1.65 11.48 9.95 16.85 17.22 22.78 3.11 2.53 5.36 1.56 8.16-1.13 2.57-2.47.96-4.99-.29-6.87-1.63-2.48-3.82-5.02-6.38-6.38-5.84-3.09-12.06-5.47-18.71-8.4z"/><path d="m165 187.72c16.92-7.42 32.93-15.38 34.78-37.81-4.2.63-8.07.63-11.5 1.85-7.43 2.64-14.64 5.9-22.39 9.1.41-3.42.6-6.37 1.2-9.25.19-.89 1.33-1.83 2.27-2.29 6.26-3.08 12.51-6.23 18.92-9 9.55-4.13 9.75-12.03 6.99-20.22-.23-.69-1.81-1.31-2.76-1.3-4.97.08-9.94.39-14.92.58-1.9.07-3.95.46-5.68-.1-2.3-.74-4.81-1.82-6.41-3.53-2.92-3.11-2.32-4.65 1.44-6.47 9.4-4.55 19.5-5.45 29.69-5.69 8.79-.22 17.24-1.91 25.3-5.37 4.95-2.12 9.77-1.39 14.55.18 3.43 1.13 4.7 3.79 4.63 8.84-4 1.22-8.11 2.49-12.22 3.74-4.25 1.29-8.47 2.72-12.79 3.76-2.29.55-3.75 1.83-4.1 3.87-.72 4.25-1.33 8.55-1.45 12.84-.2 7.39 1 14.96-.16 22.17-2.53 15.73-10.22 28.7-24.49 36.7-3.55 1.99-8 2.71-12.14 3.26-6.35.84-6.51.47-8.76-5.86z"/><path d="m224.97 84.08c-12.26 8.9-25.48 7.99-39.26 4.69.46-1.57.81-2.77 1.16-3.97 1.24-4.18 3.68-6.37 8.02-6.42 6.76-.09 13.53-.02 20.29.31 3.89.18 7.36 1.71 9.79 5.39z"/></g></svg>