<svg enable-background="new 0 0 400 400" viewBox="0 0 400 400" xmlns="http://www.w3.org/2000/svg"><path d="m374.8 390.4.4-.4c.7.5 1.3 1 1.8 1.4l-.5.5c-.5-.6-1.1-1.1-1.7-1.5zm1 7.3-.6-.3c.5-1.4 1.1-2.8 1.5-4.3.2.1.4.2.6.3-.5 1.3-1 2.8-1.5 4.3zm-.4-10.3.4-.4c.4.3 1 .8 1.7 1.4l-.5.5c-.4-.5-1-1-1.6-1.5zm2.5.3h1.7v-1h.6v1h3.5v-1h.6v1h1.8v.5h-1.8v1.4h-2v1h3.2v2h-3.2v.9h3.3v.5h-3.4c0 .3-.1.6-.1.9h4v.5h-3.7c.7.9 1.9 1.5 3.8 1.7-.1.2-.2.4-.3.6-2.1-.4-3.5-1.1-4-2.1-.4 1-1.8 1.7-4 2.2-.1-.2-.2-.4-.3-.6 2.1-.4 3.4-1 3.8-1.8h-3.4v-.5h3.6c.1-.3.1-.6.2-.9h-3.3v-.5h3.4c0-.3 0-.6 0-.9h-3.2v-2h3.3v-1h-2.1v-1.4h-1.7v-.5zm1.1 3.5v1h2.7c0-.3 0-.4 0-.4 0-.1 0-.2 0-.2 0-.1 0-.2 0-.3h-2.7zm1.2-3v.9h3.5v-.9zm4.7 3h-2.6v.6.4h2.6z" fill="#fbfafc"/><path d="m393.6 386.7h.6v1.5h2.7v6.1h1.1v.6h-11v-.6h1.1v-6.1h2.7v-1.5h.6v1.5h2.1v-1.5zm-2.7 8.8.4.6c-1.2.6-2.5 1.3-3.8 1.9-.1-.2-.2-.4-.3-.6 1.2-.6 2.5-1.2 3.7-1.9zm-2.2-6.7v2.4h2.1v-2.4zm0 3v2.5h2.1v-2.5zm2.8-3v2.4h2.1v-2.4zm0 3v2.5h2.1v-2.5zm6 6.1c-1.4-.7-2.7-1.3-3.9-1.8l.3-.6c1.5.6 2.7 1.2 3.9 1.7zm-1.2-9.1h-2.1v2.4h2.1zm-2.1 3v2.5h2.1v-2.5z" fill="#fbfafc"/><g fill="#010000"><path d="m67.37 263.64c-1.2-4.82.25-7.76 3.98-10.85 13.23-10.96 21.92-25.38 29.33-40.67 7.55-15.57 9.79-31.81 7.23-48.88-1.1-7.33-1.31-14.78-2.24-22.14-.54-4.26-1.73-8.45-2.61-12.67-.26-1.23-.71-2.47-.71-3.71.02-3.61 1.45-4.41 4.89-3.62 4.38 1.01 7.16 3.42 9.76 7.17 3.9 5.6 5.46 11.45 5.55 18.09.06 4.33.82 5.25 5.24 5.41 4.81.18 9.71-.19 14.46-1.02 7.92-1.38 15.72-3.45 23.62-4.92 2.35-.44 3.72-1.45 4.21-3.55 1.41-6.06 3.36-12.11 3.82-18.26.74-9.79.65-19.66.5-29.49-.06-3.9-3.2-5.37-6.78-3.65-1.4.67-2.78 1.58-3.87 2.68-8.75 8.8-19.74 11.91-31.69 12.5-2.33.12-3.73-1.78-3-4.35 1.13-3.97 2.14-7.75 6.49-10.19 9.88-5.53 19.16-12.15 29.07-17.63 7.13-3.94 10.3-9.97 11.91-17.35 1.42-6.51 2.77-13.03 4.17-19.55.15-.71.49-1.37.74-2.04 4.41 1.05 6.95 3.72 7.49 8.7.42 3.87-.03 7.84.36 11.72.53 5.33 1.27 10.67 2.4 15.89.34 1.57 2.05 3.34 3.58 4.07 5.92 2.8 12.12 5 18.03 7.82 5.5 2.62 10.85 5.59 16.09 8.71 1.72 1.03 2.87 3.02 4.55 4.88-9.54 4.42-18.7 4.69-28.01.92-2.74-1.11-5.43-2.42-8.26-3.24-5.73-1.65-9.32.71-10.32 6.51-.12.7-.26 1.62.08 2.13 3.05 4.59 2.99 9.63 2.15 14.72-.86 5.18-1.98 10.32-2.95 15.48-.11.57-.19 1.47.13 1.73 3.37 2.82 5.63 6.82 11.01 7.19 24.95 1.74 49.87 3.85 74.79 5.92 2.24.19 3.42-.34 4.35-2.47 2.8-6.4 3.35-13.1 2.97-19.92-.43-7.51-1.12-15.01-1.52-22.53-.11-2.12-.89-3.21-2.93-3.17-4.31.08-8.62.15-12.92.49-2.3.18-4.54 1.08-6.84 1.36-4.77.57-9.34-3.98-8.69-8.68.1-.7 1.02-1.5 1.75-1.86 3.51-1.73 7.1-3.3 10.64-4.96 2.01-.94 4.05-1.85 5.97-2.95 4.05-2.31 7.03-5.34 8.57-10.07 2.55-7.84 5.77-15.46 8.87-23.6 4.2 4.28 7.36 8.81 7.99 14.56.73 6.64 3.47 11.88 9.13 15.56 5.15 3.35 10.22 6.81 15.36 10.17 4.86 3.17 9.7 6.34 13.24 11.47-6.46 3.35-12.53 3.09-18.9.55-3.86-1.54-8.01-2.87-12.11-3.2-4.65-.37-5.05.57-5.33 5.3-.8 13.55-1.51 27.1-2.54 40.63-.25 3.35.46 5.12 3.76 6.36 6.04 2.26 11.84 5.15 17.83 7.57 2.47 1 3.81 2.37 4.51 5.05 2.41 9.33 5.03 18.6 7.78 27.83 1 3.34 1.54 6.54.51 9.94-2.05 6.79.34 13.44.67 20.16.72 14.6 1.53 29.21 1.72 43.83.06 4.66-1.79 9.32-2.61 14.01-.42 2.38-.55 4.81-.7 7.23-.55 8.45-.74 16.94-1.73 25.33-.39 3.32-2.29 6.54-3.84 9.63-3.93 7.89-7.34 15.82-14.33 22.12-7.28 6.56-14.74 11.05-24.54 12.29-10.72 1.36-21.2 4.14-31.26 8.21-4.16 1.68-8.36 1.79-12.75 1.66-12.82-.38-25.65-.73-38.47-.63-20.53.16-40.01-4.42-59.14-11.54-6.16-2.29-13.03-2.6-19.49-4.16-4.81-1.16-9.48-2.93-14.23-4.34-2.58-.77-1.91-2.86-1.67-4.44.12-.82 1.43-1.81 2.39-2.09 7.8-2.28 15.57-1.43 23.16.93 22.27 6.9 45.21 10.25 68.25 13.06 14.05 1.72 27.92-.12 41.7-2.73 11.85-2.25 23.76-4.3 34.87-9.37 11.59-5.29 21.24-12.59 26.91-24.45 3.47-7.26 7.45-14.28 8.78-22.37.1-.63.3-1.26.26-1.89-.87-14.68 1.71-29.16 2.62-43.73 1.55-24.8-2.39-49.01-8.46-72.94-.29-1.13-1.46-2.3-2.53-2.94-7.34-4.35-15.44-6.54-23.86-7.07-19.91-1.27-39.55-4.5-59.24-7.42-1.52-.23-3.19-.07-4.7.28-8.31 1.9-16.68.4-25.01.71-3.86.15-7.81.54-11.53 1.54-14.72 3.96-29.34 8.28-44.05 12.27-2.33.63-3.57 1.75-3.78 3.95-.59 6.22-1.34 12.44-1.5 18.67-.16 6.33-2.29 11.55-6.91 15.8-1.09 1.01-2.1 2.13-3.3 2.98-3.85 2.75-5.73 6.23-4.99 11.09.18 1.19-.45 2.68-1.11 3.8-1.71 2.92-3.77 5.64-5.45 8.58-1.49 2.6-3.28 4.46-6.37 5.16-.93.21-2.04 1.76-2.2 2.82-.35 2.29-1.48 3.59-3.25 5.04-3.41 2.79-6.58 5.94-9.45 9.28-4.4 5.1-9.61 5.67-15.52 3.79z"/><path d="m204.8 313.8c-4.91-.74-10.41-1.26-15.75-2.49-2.76-.63-5.48-2.16-7.79-3.87-5.36-3.97-10.52-8.23-15.61-12.55-1.04-.89-1.89-2.56-1.98-3.93-.62-8.6 1.82-16.78 3.82-25.01 1.02-4.22 2.11-8.42 3.19-12.62.81-3.17 1.53-6.34 4.33-8.58.92-.74 1.63-2.05 1.9-3.22 1.03-4.36 3.41-7.57 7.16-10.04 3.69-2.43 7.44-4.94 9.06-9.45.2-.56 1.01-1.05 1.64-1.29 7.2-2.71 14.42-5.4 21.65-8.03 1.47-.53 3.01-1.03 4.55-1.19 12.23-1.26 24.45-3.27 36.69-3.37 10.28-.09 20.58 2.06 30.86 3.25 2.5.29 3.52 1.86 2.94 4.22-1.26 5.12-2.52 10.25-4.06 15.3-2.56 8.39-5.33 16.71-8.05 25.05-.32.99-.74 2-1.35 2.83-4.31 5.83-6.93 12.85-12.99 17.5-1.32 1.01-.94 4.13-1.51 6.23-.43 1.58-.83 3.3-1.76 4.58-10.61 14.53-25.52 21.83-42.78 24.99-4.46.81-9.03 1.09-14.16 1.69zm.33-77.79c.79 2.04.94 4.23 2.06 5.01 4.06 2.81 4.84 6.95 5.5 11.26 1.48 9.74 3.91 19.01 11.68 25.97 2.83 2.54 5.24 5.54 8.03 8.13.89.83 2.33 1.32 3.57 1.46 6.68.74 11.51-3.13 15.95-7.21 1.76-1.62 2.63-4.27.61-7.1-6.14-8.64-11.37-17.79-14.9-27.88-2.14-6.14-5.8-11.28-11.76-14.4-.79-.41-1.84-.9-2.59-.69-5.87 1.67-11.7 3.49-18.15 5.45zm-13.1 16.17c-.33-.07-.65-.13-.98-.2-2.98 8.45-6.1 16.86-8.84 25.38-.68 2.12-.48 4.68-.1 6.93.69 4.13 2 8.43 5.85 10.46 5.13 2.69 10.66 4.65 16.13 6.64 3.64 1.32 7.24.72 10.71-1.45-7.66-16.07-15.22-31.91-22.77-47.76zm81.54-28.79c-11.03-1.56-21.33 1.59-32.07 2.5 10.26 8.28 15.3 19.82 21.07 31.27 2.06-1.22 4.61-.78 5.19-4.01 1.74-9.69 3.75-19.33 5.81-29.76z"/></g></svg>