<svg enable-background="new 0 0 400 400" viewBox="0 0 400 400" xmlns="http://www.w3.org/2000/svg"><path d="m374.8 390.4.4-.4c.7.5 1.3 1 1.8 1.4l-.5.5c-.5-.6-1.1-1.1-1.7-1.5zm1 7.3-.6-.3c.5-1.4 1.1-2.8 1.5-4.3.2.1.4.2.6.3-.5 1.3-1 2.8-1.5 4.3zm-.4-10.3.4-.4c.4.3 1 .8 1.7 1.4l-.5.5c-.4-.5-1-1-1.6-1.5zm2.5.3h1.7v-1h.6v1h3.5v-1h.6v1h1.8v.5h-1.8v1.4h-2v1h3.2v2h-3.2v.9h3.3v.5h-3.4c0 .3-.1.6-.1.9h4v.5h-3.7c.7.9 1.9 1.5 3.8 1.7-.1.2-.2.4-.3.6-2.1-.4-3.5-1.1-4-2.1-.4 1-1.8 1.7-4 2.2-.1-.2-.2-.4-.3-.6 2.1-.4 3.4-1 3.8-1.8h-3.4v-.5h3.6c.1-.3.1-.6.2-.9h-3.3v-.5h3.4c0-.3 0-.6 0-.9h-3.2v-2h3.3v-1h-2.1v-1.4h-1.7v-.5zm1.1 3.5v1h2.7c0-.3 0-.4 0-.4 0-.1 0-.2 0-.2 0-.1 0-.2 0-.3h-2.7zm1.2-3v.9h3.5v-.9zm4.7 3h-2.6v.6.4h2.6z" fill="#fbfafc"/><path d="m393.6 386.7h.6v1.5h2.7v6.1h1.1v.6h-11v-.6h1.1v-6.1h2.7v-1.5h.6v1.5h2.1v-1.5zm-2.7 8.8.4.6c-1.2.6-2.5 1.3-3.8 1.9-.1-.2-.2-.4-.3-.6 1.2-.6 2.5-1.2 3.7-1.9zm-2.2-6.7v2.4h2.1v-2.4zm0 3v2.5h2.1v-2.5zm2.8-3v2.4h2.1v-2.4zm0 3v2.5h2.1v-2.5zm6 6.1c-1.4-.7-2.7-1.3-3.9-1.8l.3-.6c1.5.6 2.7 1.2 3.9 1.7zm-1.2-9.1h-2.1v2.4h2.1zm-2.1 3v2.5h2.1v-2.5z" fill="#fbfafc"/><g fill="#010000"><path d="m228.77 366.32c-.29-4.69 1.3-7.81 3.93-10.69 7.73-8.49 12.84-18.59 17.29-29.08 3.06-7.21 6.05-14.47 9.52-21.48 3.83-7.71 4.47-16.05 5.63-24.31.91-6.51 1.37-13.07 2.21-19.59.28-2.2-.61-3.49-2.5-3.54-5.67-.17-11.35-.03-17.03-.01-4.46.02-6.35 2.24-7.41 6.66-2.3 9.66-5.05 19.24-8.28 28.62-1.49 4.32-3.31 8.39-3.21 13.09.03 1.29-.6 2.67-1.15 3.9-8 17.83-17.47 34.82-29.11 50.55-.36.49-.76.95-1.28 1.6-2.5-3.32-1.55-6.39.17-9.28 4.32-7.29 9.03-14.36 13.12-21.77 10.51-19.08 16.76-39.73 21.62-60.85.8-3.48 1.6-6.97 2.56-11.18-4.65-.48-9.01-1.12-13.4-1.34-5.07-.25-10.18.13-15.24-.22-3.96-.27-7.69-1.52-9.39-6.1 7.4.39 14.54 1 21.68 1.08 4.62.05 9.28-.48 13.87-1.13 2.99-.42 4.56-2.16 4.62-5.68.15-8.58.75-17.16 1.33-25.73.12-1.81-.43-2.99-1.99-3.44-3.74-1.06-7.5-2.14-11.32-2.8-4.58-.79-7.72-2.57-9.82-6.48 8.5 0 16.82-.01 25.14.02.4 0 .85.17 1.18.4 3.92 2.81 8.26 2.56 12.8 2.2 4.33-.34 8.71.04 14.13.11 1.58-1.58 1.71-4.85 1.54-8.14-.22-4.33-.91-8.67-.79-12.99.34-12.15 4.67-23.38 8.47-34.73 1.75-5.21 3.2-10.52 4.86-16-.95-.46-1.76-.92-2.61-1.25-10.29-3.91-20.59-7.81-30.89-11.7-3.97-1.5-6.5-.62-8.78 2.97-4.77 7.51-9.54 15.03-14.31 22.55-.56.88-1.16 1.72-1.84 2.73-1.18-.46-2.22-.86-3.55-1.38 2.1-5.56 2.51-11.37 7.16-15.78 2.89-2.75 4.97-6.59 6.67-10.29 1.84-4.01.88-5.94-3.12-7.68-3.54-1.54-7.22-2.86-10.94-3.91-2.14-.6-3.37.56-4.4 2.85-2.45 5.48-5.35 10.78-8.45 15.92-1.05 1.75-3.23 2.83-4.91 4.23-3.19-4.16-3.33-8.99-.6-12.76 3.1-4.27 6.28-8.49 9.43-12.73-7.13-7.65-19.18-7.23-25.2-16.28 10.37.68 19.54 4.94 28.95 9.51 2.03-4.06 3.95-7.89 6.06-12.12-6.23-3.52-12.38-6.8-18.33-10.42-3.78-2.29-7.52-4.79-10.79-7.74-2.26-2.03-3.68-5-5.15-7.97 4.95.2 9.64-1.22 13.81 3.21 5.85 6.21 11.92 12.44 20.03 15.92 1.54.66 3.14 1.17 5.02 1.87 2.92-6.99 5.78-13.8 8.61-20.62 1.05-2.54 3.17-5.32 2.73-7.59-.43-2.24-3.53-3.93-5.38-5.93-3.6-3.89-7.28-7.71-10.65-11.79-1.57-1.9-2.48-4.35-3.92-6.97 7.3.41 12.32 3.87 16.72 8.49 2.49 2.61 5.04 5.18 7.31 7.97 2.68 3.28 5.64 5.94 9.96 6.8.86.17 1.85.73 2.38 1.42 5.3 6.84 12.79 10.61 20.09 14.7 1.77.99 3.42 2.49 4.63 4.13 4.64 6.32 8.99 12.86 13.65 19.17 1.48 2.01 1.88 3.9 1.24 6.19-.9 3.21-.55 6.17.4 9.51 3.25 11.35 2.61 22.23-4.63 32.39-2.47 3.46-3.18 8.16-4.71 12.29-5.75 15.53-6.82 32-9.68 48.11-.43 2.4.32 3.43 2.44 3.74 5.86.85 11.71 1.87 17.6 2.35 10.77.88 21.57 1.36 32.34 2.16 1.46.11 2.85 1.14 4.28 1.74-.07.36-.14.73-.21 1.09-4.77 1.19-9.48 2.7-14.31 3.48-4.77.77-7.5 3.55-9.33 7.59-1.13 2.5-2.08 5.09-2.96 7.7-1.28 3.77-3.51 6.81-6.93 8.8-6.96 4.04-13.99 7.96-21.06 11.82-1.56.85-2.3 1.83-2.4 3.64-.31 5.29-1.09 10.57-1.15 15.86-.09 8.67-2.82 16.62-5.73 24.59-3.05 8.35-5.72 16.85-8.92 25.14-5.23 13.5-13.31 25.26-23.02 35.9-1.75 1.91-4.24 3.15-6.4 4.71zm15.8-115.37c5.85 0 11.02.29 16.13-.13 2.27-.19 4.51-1.66 6.57-2.88.78-.46 1.34-1.82 1.43-2.82.41-4.41.86-8.85.82-13.27-.03-3.74-.49-7.53-1.22-11.2-.38-1.93-1.97-2.95-4.21-3.64-4.96-1.51-9.14-.29-13.07 2.45-1.22.85-2.44 2.34-2.75 3.73-.95 4.22-1.54 8.53-2.09 12.82-.63 4.89-1.07 9.79-1.61 14.94zm35.38-32.75c-2.41-.19-5.78-.99-5.9 2.6-.28 7.89-.31 15.83.22 23.7.31 4.57 1.46 5.12 5.91 3.57 11.16-3.88 18.3-11.76 21.63-23.06 1.27-4.34.03-5.89-4.44-6.06-5.81-.22-11.61-.49-17.42-.75zm-20.04-143.47c-1.55-2.04-2.52-4.44-4.27-5.36-2.53-1.33-5.59-1.79-8.49-2.2-1.02-.14-2.65.67-3.27 1.55-3.57 5.13-6.94 10.4-10.34 15.65-2.02 3.12-1.99 6.49 1.13 8.39 3.61 2.2 7.81 3.54 11.92 4.7 1.24.35 3.86-.73 4.38-1.85 3.13-6.67 5.85-13.54 8.94-20.88zm20.32 55.22c.03-.17.06-.33.1-.5.95 0 1.91.09 2.85-.02 4.37-.51 4.74-.99 4.31-5.34-.16-1.58-.49-3.16-.43-4.73.08-1.97-.81-2.72-2.62-3.19-8.08-2.07-16.28-3.85-24.15-6.55-5.31-1.82-8.82-1.02-11.93 3.61-1.91 2.84-1.68 5.42 1.59 6.73 6.37 2.56 12.76 5.07 19.25 7.3 3.56 1.23 7.35 1.82 11.03 2.69zm-2.78-21.75c7.06.02 8.2-1.21 6.52-6.58-1.29-4.1-3.05-8.1-5.08-11.89-1.74-3.24-4.65-5.49-8.42-6.19-.76-.14-1.96.07-2.42.59-3.71 4.21-7.35 8.48-10.87 12.85-1.73 2.14-.56 4.59 2.08 5.35 3.55 1.01 7.02 2.28 10.53 3.42 2.99.97 5.99 1.92 7.66 2.45zm-54.73-3.03c.64.99.91 1.9 1.52 2.28 3.95 2.42 7.93 4.82 12.02 6.99.93.5 2.61.52 3.51 0 4.18-2.42 4.41-9.67.27-12.02-3.65-2.07-7.64-3.56-11.52-5.19-.51-.21-1.67.01-1.89.39-1.39 2.44-2.6 4.98-3.91 7.55z"/><path d="m107.95 141.28c14.94.64 29.59 1.27 44.57 1.92 1.03-13.68 2.03-26.94 3.02-40.16 3.86-.71 6.73.08 8.27 3.76.2.48.59.88.85 1.34 3.71 6.47 7.92 12.41 14.55 16.36 3.3 1.97 5.14 5.2 5.3 9.18-4.13 1.57-7.5 1.13-10.71-2.14-3.16-3.23-6.87-5.91-10.83-9.24-.18 4.08-.34 7.6-.5 11.13-.47 10.8-.72 21.62-1.49 32.39-.41 5.71 1.49 10.84 2.71 16.17.25 1.11.8 2.55.34 3.35-3.4 5.97-1.89 12.67-3.05 18.94-.3 1.62-.63 3.34-1.42 4.75-2.57 4.63-5.25 9.2-8.11 13.66-.77 1.2-2.15 2.35-3.49 2.77-4.94 1.55-9.97 2.85-15 4.1-1 .25-2.51.29-3.19-.28-2.68-2.27-5.67-2.11-8.71-1.51-6.09 1.2-11.35 1.35-15.88-4.53-3.27-4.24-8.75-6.72-10.83-12.17-.44-1.15-.77-2.45-.71-3.66.84-16.62 1.72-33.24 2.72-49.85.12-2.04 1.02-4.03 1.47-6.07 1.01-4.64 2.28-9.25 2.87-13.95.92-7.23 1.37-14.51 2.03-21.94-3.69-.72-6.62-.85-8.83 2.32-1.02 1.47-2.34 2.75-3.67 3.96-1.55 1.42-2.1 2.96-1.73 5.08.17.99-.1 2.43-.76 3.13-5.18 5.57-11.2 10.05-18.47 12.51-1.12.38-3.01-.27-4.01-1.09-1.66-1.36-1.27-2.85.37-4.47 11.27-11.1 21.92-22.75 30.99-35.75 1.27-1.82 2.51-3.68 3.77-5.51 1.67-2.43 3.25-2.52 4.62.16 1.18 2.31 2.29 4.94 2.4 7.48.46 11.09.55 22.2.75 33.3.06 1.25-.09 2.5-.21 4.56zm45.11 11.39c-9.24-.91-18.37-1.8-27.51-2.7-5.78-.57-11.58-1.58-17.25.51-1.12.41-2.79 1.26-2.89 2.07-.16 1.27.41 3.17 1.36 3.94 5.98 4.83 10.98 10.5 15.38 16.76 2.48 3.53 5.16 6.93 7.82 10.48 4.24-1.86 7.59-4.5 10.23-8.03 3.29-4.4 6.33-9.02 9.93-13.16 2.55-2.93 2.88-6.12 2.93-9.87zm-48.41 59.13c6.6-6.37 12.63-12.16 18.62-17.98 2.52-2.44 2.58-5.2.14-7.74-5.14-5.35-10.33-10.66-15.51-15.98-.47-.48-1.04-.87-2.01-1.67-3.95 14.45-7.05 28.35-1.24 43.37zm25.58-14.17c-5.29 4.66-10.37 8.68-14.9 13.25-3.23 3.26-1.59 7.68 2.78 8.97 6.51 1.92 12.91 1.43 19.34-.56 2.52-.78 3.43-2.36 3.2-4.68-.8-7.97-5.36-13.44-10.42-16.98zm21.96-27.4c-4.61 4.62-8.47 8.85-12.71 12.64-3.06 2.73-3.57 5.88-1.94 9.09 2.38 4.68 5.24 9.14 8.18 13.5 1.87 2.78 3.56 2.76 5.75.34.66-.73.99-1.84 1.24-2.84 2.02-8.1 2.45-16.33 1.66-24.6-.25-2.54-1.32-5-2.18-8.13z"/><path d="m167.89 252.68c-8.43 3.05-16.88 2.59-25.36 2.24-13.22-.54-26.48-.41-39.65-1.44-9.55-.74-19-2.85-28.47-4.46-1.04-.18-1.94-1.11-3-1.75 1.09-2.53 2.56-3.51 5.22-3.27 9.38.84 18.77 1.6 28.18 2.12 5.15.28 10.34.08 15.51-.01 11.2-.18 22.39-.55 33.59-.58 5.6-.02 10.61 1.73 13.98 7.15z"/><path d="m138.93 266.97c4.27 2.52 5.86 6.39 6.7 10.56 1.07 5.29 1.65 10.68 2.69 15.97.39 2.01 1.2 4.06 2.3 5.79 3.97 6.26 7.95 12.54 12.31 18.53 2.39 3.29 5.62 5.96 8.34 9.03 1.5 1.7 2.93 3.53 4.03 5.51.99 1.78-.02 2.69-1.96 2.82-4.2.28-8.33-1.19-10.63-4.1-6.95-8.8-13.8-17.79-19.53-27.4-6.7-11.23-6.43-23.8-4.25-36.71z"/><path d="m67.4 324.31c-1.55-4.7.15-6.6 3.16-8.44 7.75-4.74 15.67-9.33 21.62-16.49 2.33-2.8 4.1-5.7 4.81-9.43 1.35-7.16 3.2-14.22 4.83-21.3 5.13.71 7.74 3.89 6.58 8.83-1.28 5.43-3.52 10.64-4.92 16.05-3.63 13.96-14.5 21.33-25.71 28.21-2.92 1.79-6.94 1.77-10.37 2.57z"/></g></svg>