<svg enable-background="new 0 0 400 400" viewBox="0 0 400 400" xmlns="http://www.w3.org/2000/svg"><path d="m374.8 390.4.4-.4c.7.5 1.3 1 1.8 1.4l-.5.5c-.5-.6-1.1-1.1-1.7-1.5zm1 7.3-.6-.3c.5-1.4 1.1-2.8 1.5-4.3.2.1.4.2.6.3-.5 1.3-1 2.8-1.5 4.3zm-.4-10.3.4-.4c.4.3 1 .8 1.7 1.4l-.5.5c-.4-.5-1-1-1.6-1.5zm2.5.3h1.7v-1h.6v1h3.5v-1h.6v1h1.8v.5h-1.8v1.4h-2v1h3.2v2h-3.2v.9h3.3v.5h-3.4c0 .3-.1.6-.1.9h4v.5h-3.7c.7.9 1.9 1.5 3.8 1.7-.1.2-.2.4-.3.6-2.1-.4-3.5-1.1-4-2.1-.4 1-1.8 1.7-4 2.2-.1-.2-.2-.4-.3-.6 2.1-.4 3.4-1 3.8-1.8h-3.4v-.5h3.6c.1-.3.1-.6.2-.9h-3.3v-.5h3.4c0-.3 0-.6 0-.9h-3.2v-2h3.3v-1h-2.1v-1.4h-1.7v-.5zm1.1 3.5v1h2.7c0-.3 0-.4 0-.4 0-.1 0-.2 0-.2 0-.1 0-.2 0-.3h-2.7zm1.2-3v.9h3.5v-.9zm4.7 3h-2.6v.6.4h2.6z" fill="#fbfafc"/><path d="m393.6 386.7h.6v1.5h2.7v6.1h1.1v.6h-11v-.6h1.1v-6.1h2.7v-1.5h.6v1.5h2.1v-1.5zm-2.7 8.8.4.6c-1.2.6-2.5 1.3-3.8 1.9-.1-.2-.2-.4-.3-.6 1.2-.6 2.5-1.2 3.7-1.9zm-2.2-6.7v2.4h2.1v-2.4zm0 3v2.5h2.1v-2.5zm2.8-3v2.4h2.1v-2.4zm0 3v2.5h2.1v-2.5zm6 6.1c-1.4-.7-2.7-1.3-3.9-1.8l.3-.6c1.5.6 2.7 1.2 3.9 1.7zm-1.2-9.1h-2.1v2.4h2.1zm-2.1 3v2.5h2.1v-2.5z" fill="#fbfafc"/><g fill="#010000"><path d="m242.49 278.17c-.86-6.69-1.83-13.37-2.55-20.08-.67-6.2-3.45-8.89-9.66-8.91-8.7-.02-11.01 2-11.25 10.7-.11 4.1.61 8.22.86 12.34.19 3.16.42 6.34.25 9.49-.15 2.77-1.26 5.28-4.21 7.23-.71-5.53-1.4-10.71-2.03-15.89-.91-7.46-1.71-14.94-2.76-22.39-.15-1.04-1.27-2.24-2.26-2.79-1.55-.85-3.37-1.22-5.08-1.77-16.99-5.44-24.74-20.76-18.96-37.6 1.1-3.19 2.28-6.14 5.97-7.65 3.41-1.4 5.1-4.57 5.49-8.36.4-3.92.95-7.83 4.64-10.5 1.54 1.09 3.03 2.27 4.65 3.25 3.9 2.37 8.07 3.38 12.72 3.02 5.16-.4 10.37-.39 15.54-.24 2.17.06 3.64-.35 4.63-2.33.47-.94 1.01-1.95 1.79-2.6 1-.83 2.59-2.13 3.37-1.82 1.53.61 3.56 2.02 3.83 3.4.94 4.7 3.41 7.07 8.08 8.07 6.16 1.31 12.34 2.52 17.25 7.3 8.92 8.68 11.01 22.3 3.85 32.44-4.14 5.86-10.46 9.03-17.4 10.95-3.45.95-6.74 2.44-10.13 3.61-2.19.76-2.6 2.43-2.8 4.47-.83 8.22-1.77 16.43-2.7 24.64-.08.69-.37 1.35-.57 2.03-.2.02-.38.01-.56-.01zm-38.26-71.91c-.04 6.11 1.82 7.48 7.27 5.88 1.22-.36 2.44-.79 3.69-.93 6.36-.73 14.7 3.58 12.02 13.27-.63 2.28-1.96 4.43-3.24 6.46-1.79 2.84-2.55 5.78-1.71 9.06.38 1.51 1.12 2.3 2.95 1.95 2.8-.54 5.66-.79 8.5-1.09 7.99-.86 7.91-.88 11.65-8.1 1.07-2.07 1.16-3.57-.51-5.32-6.72-7.08-11.55-15.03-11.12-25.28.04-1.05.09-2.25-.37-3.12-.52-1.01-1.46-2.27-2.44-2.51-5.82-1.4-11.47-1.05-16.8 2.1-1.89 1.12-4.01 1.97-6.12 2.59-2.9.85-4.37 2.42-3.77 5.04zm51.1 31.18c3.08-1.42 5.76-3.01 8.65-3.91 4.49-1.39 6.48-4.6 7.81-8.73 2.15-6.68 1.21-12.42-4.11-17.38-4.75-4.43-10.26-7.43-16.22-9.74-3.31-1.28-9.63 2.67-9.92 6.2-.51 6.19 1.48 8.52 7.75 8.94 4.88.32 9.22 1.99 13.09 4.81-.84 4.98-4.02 7.99-7.65 10.74-.77.58-1.68 1.84-1.53 2.59.41 2.14 1.33 4.18 2.13 6.48zm-61.52-26.86c-6.02 7-6.2 11.9 0 18.18 3.38 3.42 7.41 6.29 11.48 8.87 1.48.94 4.06.77 5.96.32 4.4-1.04 4.11-5.05 4.62-8.43.35-2.31-.34-3.35-3.04-3.44-5.35-.18-10.06-1.75-12.91-7.03-1.64-3.03-4.04-5.64-6.11-8.47z"/><path d="m178.45 350.86c-13.48.52-26.39 1.01-39.29 1.52-4.87.19-9.74.4-14.61.6-5.06.2-5.06.2-7.21-4.7 3.96-2.93 8.48-3.91 13.34-3.79 3.7.09 7.41.36 11.09.12 2.04-.14 4.07-1.04 6-1.84 1.97-.82 2.95-2.25 3-4.66.61-33.92 1.32-67.85 2.01-101.77.02-.84 0-1.68 0-3.34-5.46-.55-10.87-1.08-16.29-1.63-4.09-.42-8.28-.45-12.24-1.41-4.77-1.16-7.18-4.83-8.06-10.04h3.36 26.41c4.6 0 7.01-1.77 7.35-6.38.27-3.76-.35-7.58-.54-11.38-.69-13.32-1.61-26.64-1.96-39.97-.22-8.66-.08-17.39.81-25.99.63-6.09 2.77-12.03 4.37-18.57 4.71 3.75 5.57 7.96 5.28 12.56-.35 5.5-.96 10.99-1.17 16.49-.8 20.13-1.7 40.26-2.02 60.4-.06 3.86 2.2 7.79 3.66 11.59.33.87 1.75 1.83 2.7 1.87 4.58.2 6.91 3.17 9.2 6.93-3.08.68-5.94 1.28-8.78 1.95-6.18 1.46-8.35 4.23-8.27 10.46.42 32.76.85 65.52 1.17 98.29.02 2.21.68 3.39 2.71 3.88 2.87.69 5.72 1.53 8.63 1.94 4.19.59 7.25 2.5 9.35 6.87z"/><path d="m215.59 348.09c4.04 4.97 1.41 8.97-.68 12.77-2.31 4.19-10.49 6.31-14.67 4.13-.56-.29-1.29-.54-1.57-1.03-4.28-7.43-8.09-15.02-5.6-24.01.48-1.72 1.29-3.36 2.04-5 3.22-7.04 4.41-14.56 3.25-22.03-.65-4.17-3.51-8.03-5.52-11.95-1.44-2.81-3.5-5.35-4.55-8.27-.7-1.95-.13-4.36-.13-7.28 5.5 3.99 9 8.27 11.06 13.82 2.02 5.42 4.26 10.77 6.69 16.02.48 1.04 2.19 2.05 3.41 2.14 12.04.92 24.1 1.61 36.14 2.48 1.93.14 2.56-.64 3.04-2.3 1.72-5.89 3.47-11.78 5.42-17.6.87-2.59 1.99-5.16 3.43-7.46 2.1-3.35 4.98-4.58 8.75-4.24-2.34 6.95-4.28 14.01-7.09 20.71-3.89 9.27-3.01 18.25.63 27.13 2.99 7.29 4.07 14.63 2.45 22.36-.94 4.47-5.08 8.39-9.67 8.65-3.05.17-6.14-.07-9.2-.29-.68-.05-1.52-.67-1.92-1.27-.63-.95-.95-2.11-1.41-3.18-1.76-4.17-3.53-8.34-5.37-12.69 1.19-.52 2.12-.93 3.34-1.47.74 1.88 1.37 3.64 2.12 5.34 2.15 4.84 8.75 7.61 13.65 5.68.61-.24 1.09-.94 1.51-1.52 3.67-4.97 4.38-10.08 2.13-16.11-2.1-5.65-5.26-9.37-11.29-9.91-7.67-.69-15.37-1.38-23.06-1.41-5.36-.02-10.74 1.01-16.09 1.67-.98.12-2.19.48-2.82 1.16-4.7 5.14-7.06 10.96-4.99 18.05 1.11 3.81 4.91 3.59 7.5 5.08.55.31 2.37-1.17 3.35-2.11 1.97-1.88 3.76-3.95 5.72-6.06z"/><path d="m272.28 106.43c-12.58-4.88-25.23-2.58-37.83-1.48-5.49.48-10.98.98-16.46 1.57-1.67.18-2.71-.3-2.93-1.98-.21-1.65-.69-3.44-.28-4.97 1.39-5.15 3.34-9.81 8.85-12.34 4.49-2.06 8.37-5.46 12.82-7.62 5.02-2.43 5.46-6.54 5.17-11.13-.1-1.67-.47-3.4-1.12-4.93-2.74-6.38-.94-11.79 3.3-16.73 1.79-2.09 3.14-4.86 6.87-3.81 3.83 1.07 5.82 3.44 6.6 7.26.7 3.42.67 6.12-2.64 8.56-5.13 3.78-7.51 9.26-7.82 15.68-.1 2.08.69 2.79 2.49 3.63 5.55 2.59 11.11 5.24 16.34 8.4 6.9 4.17 9.28 11.81 6.64 19.89zm-35.56-11.38c.9.62 1.82 1.79 2.69 1.75 4.43-.19 8.85-.7 13.27-1.1-5.07-2.64-9.92-7.69-15.96-.65z"/><path d="m152.93 35.91c4.53 1.54 7.58 5.59 7.45 10.74-.1 4.21-.91 8.4-1.41 12.59-.2 1.68-.21 3.41-.65 5.03-1.73 6.4 1.64 10.68 6.2 14.09 2.73 2.04 6.03 3.53 9.28 4.64 7.38 2.52 10.19 5.98 10.05 13.73-.05 2.52-.51 5.05-1 7.53-.62 3.11-3.04 4.24-5.78 2.7-11.3-6.35-23-7.2-35.19-2.88-2.06.73-4.3 1.19-6.47 1.31-3.29.18-5.19-1.53-5.51-4.84-.58-5.97 1.41-11.49 3.5-16.93.31-.8 1.3-1.36 2.03-1.96 4.5-3.7 8.95-7.46 13.55-11.04 1.81-1.41 2.68-2.88 2.74-5.27.2-8.89.66-17.78 1.03-26.67.03-.89.11-1.81.18-2.77zm1.41 48.93c-7.05 4.52-7.58 5.41-5.63 9.35 4.42-.7 8.89-1.42 14.05-2.24-3.21-2.72-5.78-4.89-8.42-7.11z"/><path d="m207.38 154.73c1.71-.61 3.12-1.06 4.48-1.62 4-1.64 4.87-5.35 2.05-8.63-3.56-4.15-10.49-6.12-15.7-4.37-.6.2-1.24.81-1.52 1.39-1.47 3.05-2.82 6.14-4.33 9.47 3.94 2.8 7.8 5.54 12.18 8.64-4.73 2.19-9.03 4.19-13.93 6.46-6.54-16.95-7.34-34.1-5.85-52.57 3.72 1.55 6.72 2.51 9.42 4.01 2.55 1.42 3.64 3.95 3.77 6.94.21 4.75 2.19 6.45 6.88 6.07 4.39-.36 8.6-1.23 11.99-4.38.68-.63 1.51-1.1 2.66-1.91 1.11 7.59 2.17 14.77 3.21 21.96.46 3.15.67 6.34 1.4 9.43.63 2.67-.38 4.26-2.49 5.48-1.28.74-2.53 1.62-3.91 2.05-4.94 1.53-7.98-.18-9.45-5.14-.29-1.01-.53-2.03-.86-3.28z"/><path d="m252.61 154.31c3.49 0 6.16.23 8.75-.11 1.15-.15 2.74-1.25 3.1-2.29 1.56-4.38.56-6.25-3.64-8.2-4.67-2.17-9.6-2.73-14.58-1.89-1.79.3-3.66 1.49-5.01 2.78-2.36 2.26-4.35 4.9-6.86 7.82 2.4 1.57 4.53 3.3 6.93 4.45 2.92 1.39 2.68 3.62 2.49 6.14-.19 2.62-1.91 2.86-3.95 3.55-3.97 1.35-5.77-.53-7.42-3.65-2.85-5.4-3.48-10.83-.85-16.46 3.58-7.66 5.2-15.63 4.45-24.62 2.72 2.49 5.41 5.02 8.19 7.45 1.41 1.23 2.82 2.72 4.5 3.33 5.8 2.1 9.22.54 11.86-5.48 1.6-3.65 3.92-5.61 8.32-5.29.76 14.17 1.52 28.29 2.29 42.68-4.14.44-8 .9-11.87 1.2-.69.05-1.82-.35-2.07-.87-1.53-3.2-2.88-6.5-4.63-10.54z"/><path d="m130.33 189.2c.22-18.03 3.68-34.92 9.99-51.7 3.95 2.39 5.03 5.82 5.41 9.53.91 8.92-1.51 17.42-3.46 25.97-.35 1.54-.99 3.03-1.26 4.58-1.01 5.81-4.77 9.15-10.68 11.62z"/><path d="m134.42 280.78c5.17 2.75 7.22 7.12 7.34 12.32.08 3.55-.29 7.22-1.14 10.67-1.87 7.58-4.07 15.1-6.42 22.55-.4 1.25-2.28 2.03-3.47 3.03-.8-1.07-2.14-2.06-2.3-3.21-.58-4.16-1.62-8.52-.93-12.53 1.86-10.92 4.52-21.7 6.92-32.83z"/><path d="m169.97 278.23c1.66 3.06 4 5.93 4.87 9.2 2.49 9.38 4.47 18.9 6.47 28.4.65 3.09.68 6.31 1.12 9.45.25 1.81-.71 2.69-2.2 2.73-.85.03-2.1-.61-2.54-1.34-5.74-9.31-8.36-19.6-8.88-30.42-.28-5.79-.05-11.6-.05-17.41.4-.2.8-.4 1.21-.61z"/><path d="m181.21 193.35c-.74-.76-1.67-1.4-2.2-2.28-5.66-9.51-8.35-19.86-8.38-30.88-.02-5.82.46-11.64.54-17.46.04-2.61 1.22-3.09 3.59-2.44 1 17.56.09 35.47 7.31 52.24-.28.28-.57.55-.86.82z"/></g></svg>