<svg enable-background="new 0 0 400 400" viewBox="0 0 400 400" xmlns="http://www.w3.org/2000/svg"><path d="m374.8 390.4.4-.4c.7.5 1.3 1 1.8 1.4l-.5.5c-.5-.6-1.1-1.1-1.7-1.5zm1 7.3-.6-.3c.5-1.4 1.1-2.8 1.5-4.3.2.1.4.2.6.3-.5 1.3-1 2.8-1.5 4.3zm-.4-10.3.4-.4c.4.3 1 .8 1.7 1.4l-.5.5c-.4-.5-1-1-1.6-1.5zm2.5.3h1.7v-1h.6v1h3.5v-1h.6v1h1.8v.5h-1.8v1.4h-2v1h3.2v2h-3.2v.9h3.3v.5h-3.4c0 .3-.1.6-.1.9h4v.5h-3.7c.7.9 1.9 1.5 3.8 1.7-.1.2-.2.4-.3.6-2.1-.4-3.5-1.1-4-2.1-.4 1-1.8 1.7-4 2.2-.1-.2-.2-.4-.3-.6 2.1-.4 3.4-1 3.8-1.8h-3.4v-.5h3.6c.1-.3.1-.6.2-.9h-3.3v-.5h3.4c0-.3 0-.6 0-.9h-3.2v-2h3.3v-1h-2.1v-1.4h-1.7v-.5zm1.1 3.5v1h2.7c0-.3 0-.4 0-.4 0-.1 0-.2 0-.2 0-.1 0-.2 0-.3h-2.7zm1.2-3v.9h3.5v-.9zm4.7 3h-2.6v.6.4h2.6z" fill="#fbfafc"/><path d="m393.6 386.7h.6v1.5h2.7v6.1h1.1v.6h-11v-.6h1.1v-6.1h2.7v-1.5h.6v1.5h2.1v-1.5zm-2.7 8.8.4.6c-1.2.6-2.5 1.3-3.8 1.9-.1-.2-.2-.4-.3-.6 1.2-.6 2.5-1.2 3.7-1.9zm-2.2-6.7v2.4h2.1v-2.4zm0 3v2.5h2.1v-2.5zm2.8-3v2.4h2.1v-2.4zm0 3v2.5h2.1v-2.5zm6 6.1c-1.4-.7-2.7-1.3-3.9-1.8l.3-.6c1.5.6 2.7 1.2 3.9 1.7zm-1.2-9.1h-2.1v2.4h2.1zm-2.1 3v2.5h2.1v-2.5z" fill="#fbfafc"/><g fill="#010000"><path d="m185.15 357.97c12.18-5.14 24.28-10.48 36.57-15.35 9.53-3.78 18.34-8.57 26.33-15.02 5.93-4.79 12.09-9.33 18.43-13.57 5.11-3.41 8.28-8.04 10.53-13.54 4.87-11.9 6.89-24.45 7.98-37.13.57-6.61.22-13.32.02-19.98-.04-1.22-1.05-2.79-2.08-3.53-5.03-3.56-10.71-4.77-16.6-2.91-6.75 2.14-13.34 4.76-19.95 7.29-1.03.39-1.93 1.28-2.72 2.1-7.35 7.72-16.84 8.65-26.67 8.39-.64-.02-1.57-.96-1.81-1.67-.73-2.19-1.2-4.48-1.85-7.06 2.61 0 5.17.55 7.36-.12 3.58-1.09 7.14-2.62 10.28-4.63 3.91-2.5 7.19-5.99 11.1-8.47 4.07-2.59 8.45-4.82 12.92-6.63 11.66-4.71 22.25-10.9 30.47-20.62.77-.91 1.53-2.15 1.58-3.27 1.09-21.58 2.34-43.17 2.98-64.76.3-10.04-.97-20.12-.92-30.18.06-11.9 1.96-23.61 5.29-35.09.85-2.92 1.35-6.02 1.44-9.06.14-4.99 1.9-9.25 4.9-13.45 5.27 2.77 8.24 7.2 9.82 12.65 2.19 7.52 1.38 15.13.36 22.72-1.36 10.08-3.3 20.12-3.93 30.24-.39 6.22.97 12.6 1.99 18.84.55 3.35.17 6.01-1.8 8.87-1.33 1.94-2.13 4.59-2.25 6.97-1.13 21.17-2.15 42.35-2.98 63.53-.15 3.86.36 7.84 1.19 11.62.88 4.01.72 7.75-.98 11.41-2.48 5.35-2.87 10.59-.22 16.1.83 1.73.56 4.14.33 6.19-1.39 12.42-2.61 24.87-4.49 37.22-1.34 8.84-4.94 17.04-9.32 24.85-.15.28-.28.61-.52.79-7.01 5.3-13.48 11.62-21.15 15.65-18.55 9.73-37.65 18.43-56.59 27.41-1.55.73-3.68.9-5.37.53-5.58-1.22-11.09-2.75-16.59-4.31-1.25-.36-2.32-1.35-3.47-2.06.12-.3.26-.63.39-.96z"/><path d="m86.03 173.07c-1.83-6.41-1.57-12.79 1.58-18.73 6.75-12.7 13.57-25.38 20.81-37.81 2.63-4.51 6.32-8.47 9.88-12.35 20.7-22.58 41.53-45.06 62.26-67.63 1.36-1.49 2.5-2 4.28-.94 1.72 1.03 3.64 1.77 5.23 2.97.91.69 1.92 2.03 1.89 3.05-.14 5.22 2.63 9.14 5.67 12.78 23.36 27.99 42.29 59.09 62.6 89.22.17.25.22.58.41 1.08-5.57 1.03-11.05 2.09-16.56 3.02-.65.11-1.71-.29-2.1-.82-14.02-18.89-28.01-37.8-41.93-56.76-1.56-2.12-2.53-4.66-4.03-6.83-1.13-1.63-2.57-3.08-4.04-4.44-1.91-1.77-3.95-1.91-6.65-1.28-7.61 1.77-13.58 5.75-19.08 11.18-8.53 8.41-17.43 16.44-26.39 24.39-4.97 4.41-9.06 9.39-12.67 14.94-8.36 12.89-16.93 25.64-25.55 38.36-3.74 5.5-8.68 7.44-15.61 6.6z"/><path d="m125.41 209.06c-10.82 10.12-18.87 22.13-34.73 23.06.38-5.81.67-11.28 1.17-16.73.07-.8 1.06-1.94 1.84-2.17 6.89-2 10.82-7.23 14.77-12.71 8.79-12.21 17.86-24.21 26.82-36.3.5-.68 1.04-1.32 1.54-1.96 8.65 3.25 14.1 12.04 13.06 22.79-.87 8.93-2.85 17.75-4.4 26.61-1.11 6.36-2.75 12.67-3.32 19.07-.38 4.22.54 8.61 1.18 12.87 1.06 7.12 2.29 14.22 3.63 21.29.29 1.55 1.06 3.25 2.13 4.38 6.2 6.53 12.58 12.89 18.86 19.35 4.75 4.88 8.89 10.18 11.08 17.16-3.96.72-7.67 1.51-11.43 2.02-.9.12-2-.5-2.86-1.02-4.08-2.47-8.11-5.01-12.14-7.55-.8-.5-1.67-1.03-2.23-1.75-8.92-11.46-17.71-23.05-22.78-36.85-1.17-3.18-1.59-6.81-1.53-10.23.17-9.95.96-19.9 1.1-29.85.06-3.57-1.06-7.16-1.76-11.48z"/><path d="m186.97 255.24c1.42-8.35 2.63-15.63 3.9-22.9 2.72-15.52 3.11-31.21 2.97-46.88-.06-6.36-1.4-12.78-2.73-19.05-1.31-6.2-1.59-12.1 1.64-18.17 1.07.66 2.04 1.22 2.98 1.84 13.66 9.1 27.3 18.24 40.99 27.3 3.96 2.62 8.14 4.93 12.08 7.58 2.5 1.68 5.27 4.1 4.13 7.16-.73 1.96-3.69 3.62-5.99 4.38-5.78 1.9-11.34 1.16-16.56-2.43-2.27-1.56-5.09-2.73-7.8-3.17-5.52-.9-8.78.96-10.29 6.28-3.33 11.68-6.25 23.48-9.26 35.26-1.72 6.75-3.93 13.25-9.22 18.12-1.78 1.63-4.03 2.78-6.84 4.68z"/></g></svg>