<svg enable-background="new 0 0 400 400" viewBox="0 0 400 400" xmlns="http://www.w3.org/2000/svg"><path d="m374.8 390.4.4-.4c.7.5 1.3 1 1.8 1.4l-.5.5c-.5-.6-1.1-1.1-1.7-1.5zm1 7.3-.6-.3c.5-1.4 1.1-2.8 1.5-4.3.2.1.4.2.6.3-.5 1.3-1 2.8-1.5 4.3zm-.4-10.3.4-.4c.4.3 1 .8 1.7 1.4l-.5.5c-.4-.5-1-1-1.6-1.5zm2.5.3h1.7v-1h.6v1h3.5v-1h.6v1h1.8v.5h-1.8v1.4h-2v1h3.2v2h-3.2v.9h3.3v.5h-3.4c0 .3-.1.6-.1.9h4v.5h-3.7c.7.9 1.9 1.5 3.8 1.7-.1.2-.2.4-.3.6-2.1-.4-3.5-1.1-4-2.1-.4 1-1.8 1.7-4 2.2-.1-.2-.2-.4-.3-.6 2.1-.4 3.4-1 3.8-1.8h-3.4v-.5h3.6c.1-.3.1-.6.2-.9h-3.3v-.5h3.4c0-.3 0-.6 0-.9h-3.2v-2h3.3v-1h-2.1v-1.4h-1.7v-.5zm1.1 3.5v1h2.7c0-.3 0-.4 0-.4 0-.1 0-.2 0-.2 0-.1 0-.2 0-.3h-2.7zm1.2-3v.9h3.5v-.9zm4.7 3h-2.6v.6.4h2.6z" fill="#fbfafc"/><path d="m393.6 386.7h.6v1.5h2.7v6.1h1.1v.6h-11v-.6h1.1v-6.1h2.7v-1.5h.6v1.5h2.1v-1.5zm-2.7 8.8.4.6c-1.2.6-2.5 1.3-3.8 1.9-.1-.2-.2-.4-.3-.6 1.2-.6 2.5-1.2 3.7-1.9zm-2.2-6.7v2.4h2.1v-2.4zm0 3v2.5h2.1v-2.5zm2.8-3v2.4h2.1v-2.4zm0 3v2.5h2.1v-2.5zm6 6.1c-1.4-.7-2.7-1.3-3.9-1.8l.3-.6c1.5.6 2.7 1.2 3.9 1.7zm-1.2-9.1h-2.1v2.4h2.1zm-2.1 3v2.5h2.1v-2.5z" fill="#fbfafc"/><g fill="#010000"><path d="m164.83 55.09c11.64 17.78 16.13 37.04 13.73 57.96-.34 2.94-.51 5.93-.41 8.88.32 9.6 5.62 15.23 15.19 15.71 7.69.39 15.2-.82 22.23-4.22.86-.41 1.67-.96 2.57-1.25 11.47-3.72 17.76-12.83 23.33-22.6 4.78-8.37 7.02-17.4 6.73-27.08-.48-15.83 1-31.53 3.6-48.25 2.86 2.71 5.54 4.73 7.54 7.27 5.89 7.46 8.38 16.39 9.58 25.58 2.42 18.52 3.56 37.13 3.09 55.83-.05 2.12-.8 3.45-2.53 4.67-11.26 7.94-22.48 15.89-35.29 21.29-9.98 4.2-20.49 5.93-31.1 7.37-6.93.94-13.82 2.18-20.76 2.93-2.56.28-3.23 1.54-3.41 3.61-.27 3.27-.74 6.56-.66 9.83.45 19.3 1.69 38.54 5.01 57.58.27 1.54 1.46 3.29 2.74 4.22 13.17 9.51 28.15 14.97 43.66 19.18 10.37 2.82 20.61 6.05 29.16 12.82 3.91 3.09 7.14 7.03 10.95 10.86-6.41 4.41-12.56 5.71-19.18 4.82-3.56-.48-7.11-1.19-10.61-1.98-4.83-1.09-9.43-2.4-13.59-5.6-3.15-2.42-7.3-4.1-11.24-4.82-12.09-2.2-23.43-6.41-34.64-11.27-14.86-6.44-29.83-12.62-44.76-18.9-.97-.41-2.01-1.05-2.98-.99-4.77.3-8.92-1.35-12.98-3.56-.86-.47-2.02-.61-3.02-.54-3.59.25-7.23.39-10.74 1.08-3.05.6-5.28-.35-7.58-2.11-7.28-5.58-12.06-12.97-15.76-21.2-4.32-9.61-7.32-19.6-9.5-29.9-.87-4.11-2.23-8.16-3.81-12.07-2.03-5.02-3.26-10.05-2.31-15.56 2.58-.03 4.23 1.22 5.61 3.35 10.96 16.91 23.89 32.16 39.01 45.48 13.61 11.99 29.39 19.86 47.43 23.95 3.21-5.46 4.53-11.49 5.02-17.71.96-12.29-1.49-24.28-3.4-36.31-1.17-7.32-2.67-14.58-3.85-21.9-.22-1.37.03-2.98.56-4.28 2.47-6.11 3.19-12.28 2.49-18.92-1.93-18.33-3.32-36.72-5.06-55.07-.9-9.51 2.21-15.6 9.94-18.18z"/><path d="m121.14 314.35c8.18 1.92 16.53.92 24.09 5.31 13.45 7.82 27.06 15.33 41.81 20.65 27.29 9.84 54.4 9.28 81.49-.55 4.97-1.81 9.73-4.21 14.74-5.88 8.96-3 14.03-9.67 17.89-17.74 6.16-12.89 7.48-26.42 5.25-40.34-4.83-30.14-11.1-59.98-19.03-89.46-.13-.5-.22-1.01.25-2.27 4 2.52 8.26 4.72 11.95 7.62 8.83 6.94 15.05 15.96 19.79 26.11 2.97 6.36 2.89 12.86 1.97 19.58-.2 1.48.25 3.49 1.17 4.61 3.13 3.78 4.18 7.89 3.25 12.65-.32 1.66-.27 3.39-.54 5.06-.51 3.21.02 6.04 2.38 8.46 4.89 5.01 3.83 11.27 2.99 17.15-2.78 19.45-8.24 38.27-14.32 56.91-.37 1.14-1.46 2.36-2.54 2.92-6.95 3.61-13.97 7.09-21.02 10.52-1.19.58-2.6.88-3.93.95-7.2.38-14.48.07-21.58 1.08-9.83 1.39-19.52 3.74-29.27 5.69-1.24.25-2.52.46-3.7.92-8.42 3.3-16.49.13-24.59-1.43-14.25-2.73-28.46-5.72-42.68-8.62-.93-.19-1.9-.36-2.73-.78-13.51-6.81-25.78-15.47-37.22-25.3-3.95-3.42-6.62-7.64-5.87-13.82z"/></g></svg>