<svg enable-background="new 0 0 400 400" viewBox="0 0 400 400" xmlns="http://www.w3.org/2000/svg"><path d="m374.8 390.4.4-.4c.7.5 1.3 1 1.8 1.4l-.5.5c-.5-.6-1.1-1.1-1.7-1.5zm1 7.3-.6-.3c.5-1.4 1.1-2.8 1.5-4.3.2.1.4.2.6.3-.5 1.3-1 2.8-1.5 4.3zm-.4-10.3.4-.4c.4.3 1 .8 1.7 1.4l-.5.5c-.4-.5-1-1-1.6-1.5zm2.5.3h1.7v-1h.6v1h3.5v-1h.6v1h1.8v.5h-1.8v1.4h-2v1h3.2v2h-3.2v.9h3.3v.5h-3.4c0 .3-.1.6-.1.9h4v.5h-3.7c.7.9 1.9 1.5 3.8 1.7-.1.2-.2.4-.3.6-2.1-.4-3.5-1.1-4-2.1-.4 1-1.8 1.7-4 2.2-.1-.2-.2-.4-.3-.6 2.1-.4 3.4-1 3.8-1.8h-3.4v-.5h3.6c.1-.3.1-.6.2-.9h-3.3v-.5h3.4c0-.3 0-.6 0-.9h-3.2v-2h3.3v-1h-2.1v-1.4h-1.7v-.5zm1.1 3.5v1h2.7c0-.3 0-.4 0-.4 0-.1 0-.2 0-.2 0-.1 0-.2 0-.3h-2.7zm1.2-3v.9h3.5v-.9zm4.7 3h-2.6v.6.4h2.6z" fill="#fbfafc"/><path d="m393.6 386.7h.6v1.5h2.7v6.1h1.1v.6h-11v-.6h1.1v-6.1h2.7v-1.5h.6v1.5h2.1v-1.5zm-2.7 8.8.4.6c-1.2.6-2.5 1.3-3.8 1.9-.1-.2-.2-.4-.3-.6 1.2-.6 2.5-1.2 3.7-1.9zm-2.2-6.7v2.4h2.1v-2.4zm0 3v2.5h2.1v-2.5zm2.8-3v2.4h2.1v-2.4zm0 3v2.5h2.1v-2.5zm6 6.1c-1.4-.7-2.7-1.3-3.9-1.8l.3-.6c1.5.6 2.7 1.2 3.9 1.7zm-1.2-9.1h-2.1v2.4h2.1zm-2.1 3v2.5h2.1v-2.5z" fill="#fbfafc"/><g fill="#010000"><path d="m113.37 339.11c-3.23-5.28-3.39-9.88-2.36-14.52 1.58-7.11 1.36-13.95-1.26-20.88-3.1-8.21-5.67-16.63-8.38-24.98-.45-1.37-.76-2.91-.63-4.32.98-10.66 2.39-21.28 3.03-31.96.36-5.98-.19-12.06-.82-18.05-2.4-22.71-2.76-45.49-2.34-68.28.1-5.17-1.19-9.79-4.55-13.49-9.96-10.99-10.57-23.48-6.51-36.87.46-1.52 1.03-3.03 1.27-4.58 1.57-10.19 6.96-18.21 13.34-26.1 8.62-10.66 18.34-19.92 29.38-27.94 4.8-3.49 9.55-7.06 14.12-10.84 1.96-1.61 3.68-1.66 5.79-.75 3.53 1.52 5.4 4.32 6.17 7.94.53 2.48.91 5 1.38 7.5.99 5.23 2.74 10.11 5.48 14.77 6.21 10.59 12.27 21.29 17.96 32.16 5.97 11.42 5.99 23.4 1.98 35.47-.35 1.07-1.1 2.02-1.75 2.97-5.35 7.77-12.31 13.6-20.99 17.3-2.74 1.17-3.8 2.7-2.89 5.81 2.27 7.71-.67 15.11-1.99 22.53-2.61 14.59-5.49 29.13-8.59 43.63-1.03 4.83-2.76 9.57-4.71 14.12-3.64 8.49-5.12 17.39-6.21 26.46-.42 3.51-1.37 7.07-2.7 10.34-3.75 9.21-8.23 18.14-11.66 27.47-2.43 6.61-3.34 13.76-5.45 20.51-1.47 4.77-3.83 9.25-6.11 14.58zm3.98-43.66c1.97-1.81 4.36-2.99 5.04-4.81 2.78-7.51 5.55-15.09 7.41-22.86 7.68-32.08 11.42-65.04 21.93-96.51 3.7-11.08-2.91-20.25-14.6-21.33-5.89-.55-11.84-.52-17.76-.65-4.34-.09-6.51 2.12-6.72 6.43-.55 11.54-1.21 23.07-1.69 34.61-.28 6.76-1.07 13.63-.28 20.29 2.28 19.22 3.36 38.37.98 57.67-1.17 9.31.52 18.32 5.69 27.16zm25.28-154.84c0-.12.01-.23.01-.35 2.22 0 4.45.1 6.66-.02 10.3-.56 19.75-3.49 27.73-10.31 2.05-1.75 4.56-8.49 3.46-10.33-2.48-4.16-5.07-8.29-8.04-12.09-1.89-2.42-4.68-3.33-7.99-2.26-2.89.93-6.01 2.01-8.94 1.79-14.24-1.05-28.46-2.46-42.68-3.87-4.8-.48-8.34 2.55-12.45 4.01-.39.14-.7 1.07-.7 1.64-.01 4.51-.28 9.06.2 13.53.44 4.07 2.7 7.09 6.87 8.67 3.44 1.31 6.52 3.57 9.95 4.88 4.09 1.57 8.33 2.95 12.63 3.72 4.35.77 8.85.69 13.29.99zm.57-84.61c-8.01 6.44-15.8 12.46-23.3 18.83-3.01 2.56-5.6 5.72-7.99 8.9-2.72 3.63-.99 9.62 4.15 10.22 9.35 1.1 18.64 2.76 28 3.67 8.1.78 16.28 1.05 24.28-1.3 2.78-.81 3.63-2.22 2.28-4.85-.87-1.69-1.45-3.58-2.55-5.09-5.73-7.86-11.46-15.73-17.45-23.39-2.03-2.61-4.85-4.61-7.42-6.99z"/><path d="m229.28 50.42c6.81 2.63 13.6 4.73 18.77 10.01.84.86 2.5 1.68 3.52 1.44 2.69-.64 4.65.33 6.78 1.67 10.05 6.32 20.02 12.77 30.29 18.7 6.08 3.51 10.69 8.26 13.22 14.52 2.79 6.92 5.17 14.16 6.45 21.48.83 4.74-.58 9.88-1.08 14.83-.49 4.96-.98 9.92-1.73 14.84-.21 1.38-1.06 2.9-2.08 3.88-4.63 4.49-10.19 7.29-16.36 9.32-11.76 3.86-23.53 7.81-34.96 12.53-5.03 2.08-9.47 5.86-13.74 9.4-2.81 2.34-3.03 6.11-2.93 9.73.62 22.57 1.2 45.15 1.76 67.72.5 20.14.69 40.29 1.58 60.41.37 8.42 2.32 16.76 3.28 25.17.47 4.17.68 8.45.31 12.61-.22 2.44-1.8 4.75-2.77 7.13-.46-.04-.92-.07-1.38-.11-2.6-10.22-5.28-20.42-7.77-30.67-.87-3.59-1.2-7.32-1.97-10.94-2.91-13.68-.96-27.47-.88-41.2.07-13.25.87-26.5.73-39.75-.08-7.81-1.57-15.59-2.07-23.41-.83-13.01-1.6-26.04.9-38.99.58-2.98 1.84-5.06 4.57-6.73 8.4-5.14 16.58-10.66 24.91-15.91 1.97-1.24 2.57-2.39 2.05-4.84-3.11-14.82-6.03-29.67-8.88-44.54-1.51-7.89-2.29-15.95-4.23-23.73-1.31-5.26-3.65-10.41-6.33-15.15-1.58-2.79-4.76-4.68-7.18-7.01-3.61-3.46-4.06-7.63-2.78-12.41zm25.74 27.39c1.48 7.49 2.93 14.5 4.23 21.53 2.5 13.5 6.2 26.8 6.58 40.67.07 2.44 1.06 4.96 2.07 7.24.51 1.14 1.91 2.13 3.13 2.66 10.99 4.69 25.39-3.89 27.09-15.14.35-2.3 1-4.55 1.28-6.86 1.21-10 .13-19.51-6.73-27.49-9.91-11.55-22.99-17.88-37.65-22.61z"/></g></svg>