<svg enable-background="new 0 0 400 400" viewBox="0 0 400 400" xmlns="http://www.w3.org/2000/svg"><path d="m374.8 390.4.4-.4c.7.5 1.3 1 1.8 1.4l-.5.5c-.5-.6-1.1-1.1-1.7-1.5zm1 7.3-.6-.3c.5-1.4 1.1-2.8 1.5-4.3.2.1.4.2.6.3-.5 1.3-1 2.8-1.5 4.3zm-.4-10.3.4-.4c.4.3 1 .8 1.7 1.4l-.5.5c-.4-.5-1-1-1.6-1.5zm2.5.3h1.7v-1h.6v1h3.5v-1h.6v1h1.8v.5h-1.8v1.4h-2v1h3.2v2h-3.2v.9h3.3v.5h-3.4c0 .3-.1.6-.1.9h4v.5h-3.7c.7.9 1.9 1.5 3.8 1.7-.1.2-.2.4-.3.6-2.1-.4-3.5-1.1-4-2.1-.4 1-1.8 1.7-4 2.2-.1-.2-.2-.4-.3-.6 2.1-.4 3.4-1 3.8-1.8h-3.4v-.5h3.6c.1-.3.1-.6.2-.9h-3.3v-.5h3.4c0-.3 0-.6 0-.9h-3.2v-2h3.3v-1h-2.1v-1.4h-1.7v-.5zm1.1 3.5v1h2.7c0-.3 0-.4 0-.4 0-.1 0-.2 0-.2 0-.1 0-.2 0-.3h-2.7zm1.2-3v.9h3.5v-.9zm4.7 3h-2.6v.6.4h2.6z" fill="#fbfafc"/><path d="m393.6 386.7h.6v1.5h2.7v6.1h1.1v.6h-11v-.6h1.1v-6.1h2.7v-1.5h.6v1.5h2.1v-1.5zm-2.7 8.8.4.6c-1.2.6-2.5 1.3-3.8 1.9-.1-.2-.2-.4-.3-.6 1.2-.6 2.5-1.2 3.7-1.9zm-2.2-6.7v2.4h2.1v-2.4zm0 3v2.5h2.1v-2.5zm2.8-3v2.4h2.1v-2.4zm0 3v2.5h2.1v-2.5zm6 6.1c-1.4-.7-2.7-1.3-3.9-1.8l.3-.6c1.5.6 2.7 1.2 3.9 1.7zm-1.2-9.1h-2.1v2.4h2.1zm-2.1 3v2.5h2.1v-2.5z" fill="#fbfafc"/><path d="m136.03 282.14c-11.19-9.46-22.08-18.57-32.85-27.83-5.89-5.06-11.22-10.69-14.8-17.7-1.29-2.52-2.19-5.23-3.43-8.27 2.33-.31 4.19-.46 6.02-.82 2.2-.43 3.71.36 5.32 1.88 13.37 12.62 27.64 24.09 43.55 33.41 2.52 1.48 5.19 2.71 8.48 4.41.79-6.38 1.87-12.1 2.12-17.87.42-9.61.34-19.25.41-28.88.02-3.37-1.31-5.98-4.21-8.02-3.89-2.74-7.86-5.53-11.14-8.94-3.17-3.29-6.52-7.03-8.03-11.2-6.67-18.51-12.72-37.24-18.96-55.9-2.79-8.35-2.92-17.06-3.51-25.72-.22-3.22-.85-6.48-1.79-9.57-3.34-11.09-6.54-22.23-5.67-33.96.36-4.93 1.47-9.83 2.71-14.63.28-1.09 2.4-2.03 3.84-2.39.86-.22 2.65.54 2.98 1.31 1.82 4.22 3.37 8.56 4.9 12.9.87 2.48 1.25 5.17 2.34 7.54 2.43 5.25 7.01 7.42 12.74 6.7 13.76-1.72 27.53-3.44 41.31-4.98 20.11-2.25 40.24-4.32 60.35-6.59 1.09-.12 2.58-1.19 2.99-2.19 1.81-4.39 3.7-8.81 4.81-13.41 1.72-7.08 5.38-12.56 11.54-16.66 5.63 2.92 7.55 8.05 7.7 13.91.12 4.65-.26 9.32-.56 13.97-.98 15.33-1.66 30.69-3.12 45.98-1.93 20.21-6.99 39.78-12.99 59.15-2.18 7.04-3.26 14.43-4.9 21.64-.27 1.2-.6 2.59-1.4 3.43-8.96 9.48-9.9 20.38-6 32.22.96 2.91 1.88 5.84 2.92 8.73 1.45 4.05 5.02 5.16 8.64 2.88 14.03-8.82 27.48-18.32 38.9-30.53 4.66-4.98 10.98-7.05 17.73-7.6 3.01-.24 5.82 4.01 4.29 6.7-.85 1.5-2.24 2.78-3.61 3.87-15.01 11.92-30.17 23.67-45.04 35.77-3.56 2.9-6.32 6.83-9.22 10.47-1.41 1.78-2.27 3.99-3.73 6.65 8.44 3.69 16.37 7.44 24.51 10.65 10.33 4.08 20.94 7.46 31.22 11.66 5.05 2.06 9.59 5.35 14.42 7.97 4.93 2.68 5.76 7.4 6.57 12.35-5.04 1.7-9.99 1.61-14.74-.1-6.97-2.5-13.91-5.13-20.64-8.21-3.6-1.65-6.61-4.56-10.09-6.54-7.05-4.01-14.56-6.8-23.61-7.64 0 3.57-.43 7.04.08 10.37 1.49 9.73 3.73 19.35 4.94 29.11.74 6.01.14 12.19.14 18.45-2.43-.48-4.95-.8-7.35-1.54-1.03-.32-2.08-1.32-2.64-2.29-6.07-10.4-7.97-21.95-9.47-33.68-1.31-10.29-3.08-20.54-7.6-30.05-5.25-11.05-6.5-23.18-9.53-34.84-1.12-4.3-2.22-8.63-2.94-13.01-.45-2.72-1.89-4.09-4.33-4.14-5.9-.13-11.84-.31-17.71.13-5.79.44-11.52 1.69-17.3 2.43-2.61.33-4.38 1.49-4.97 4.05-.85 3.68-1.95 7.36-2.26 11.1-.72 8.63-.53 17.36-1.62 25.94-2.91 22.84-4.53 45.74-5.24 68.76-.24 7.92-2.85 15.77-4.44 23.65-.63 3.1-1.42 6.17-2.1 9.12-.44.15-.65.29-.83.27-3.15-.35-7.21.32-9.19-1.39-1.94-1.67-1.7-5.81-2.54-8.84-1.28-4.59-1.26-9.02.2-13.66 2.29-7.26 4.24-14.64 5.97-22.06.68-2.92.69-6.1.43-9.11-.14-1.63-1.21-3.42-2.35-4.69-2.56-2.85-4.34-2.7-7.03-.05-10.39 10.21-21.32 19.75-34.73 25.89-6.5 2.97-13.38 3.7-20.86 2.75 0-2.83-.24-5.58.12-8.26.14-1.05 1.46-2.15 2.49-2.85 11.68-7.88 23.63-15.38 35.03-23.64 5.78-4.19 10.61-9.68 15.82-14.64.88-.81 1.51-1.94 2.54-3.28zm47.43-82.55c9.94-.11 18.8-4.18 27.45-9.11 3.69-2.1 6.44-4.81 7.71-8.82 2.71-8.56 5.52-17.1 7.86-25.76 1.44-5.32 1.89-10.86.02-16.3-.92-2.67-2.39-4.07-5.58-3.87-19.44 1.27-38.9 2.12-58.32 3.58-9.5.72-18.82 2.83-27.67 6.66-2.51 1.09-3.42 2.37-3.07 5.22 1.75 14.29 6.99 27.18 15.04 39.01.5.74 1.24 1.52 2.05 1.82 11.06 4.1 22.36 7.16 34.51 7.57zm48.05-96.63h.12c0-2.86-.03-5.72.01-8.58.05-3.43-1.64-5.85-4.81-6.64-3.25-.81-6.74-1.61-9.99-1.23-16.92 1.98-33.79 4.39-50.7 6.52-3.42.43-6.92.38-10.38.36-2.95-.02-6-.9-8.82-.37-6.65 1.25-13.19 3.04-19.73 4.81-.87.24-2.02 1.59-2.04 2.44-.08 4.44-.29 8.97.44 13.32.73 4.29 2.48 8.42 3.88 12.59.55 1.64 1.81 1.93 3.53 1.78 26.16-2.3 52.34-4.39 78.48-6.9 5.16-.5 10.25-2.32 15.21-4.01 2.89-.98 4.78-3.17 4.4-6.82-.26-2.37.24-4.84.4-7.27z" fill="#010000"/></svg>