<svg enable-background="new 0 0 400 400" viewBox="0 0 400 400" xmlns="http://www.w3.org/2000/svg"><path d="m159.66 366.77c-3.87-3.93-7.64-7.63-11.22-11.51-.65-.71-.77-2.13-.74-3.21.33-11.87.75-23.74 1.13-35.61.04-1.15 0-2.31 0-3.85-1.81.64-3.38 1.16-4.93 1.76-9.08 3.52-18.19 6.97-27.2 10.66-2.16.89-4.2 2.36-5.94 3.95-4.58 4.17-9.04 8.62-15.76 8.55-3.19-.03-6.37-.98-9.79-1.55 1.01-3.67 1.67-6.78 2.76-9.73.42-1.13 1.69-2.07 2.76-2.82 12.65-8.9 25.5-17.53 37.94-26.71 7.55-5.57 13.77-12.58 17.93-21.16.53-1.09.93-2.42.83-3.6-.93-11.3-1.91-22.6-3.1-33.88-.11-1.03-1.72-2.69-2.64-2.7-3.76-.03-7.66-.05-11.23.93-3.61.99-6.98 3.01-10.29 4.87-4.43 2.48-8.67 5.32-13.07 7.86-5.25 3.03-10.1 6.38-13.98 11.24-2.19 2.74-5.35 4.79-8.33 6.77-3.99 2.65-8.47 3.14-13.43 1.79-.46-3.55-1.11-7.18-1.3-10.84-.05-.97 1.09-2.39 2.06-2.98 17.63-10.58 33.56-23.38 48.63-37.27 6.71-6.18 12.02-13.4 14.35-22.46 1.9-7.41.82-14.51-2.34-21.35-.41-.88-1.18-1.84-2.03-2.24-18.36-8.66-34.48-20.73-50.24-33.28-7.78-6.19-14.82-13.3-22.36-19.8-5.1-4.4-6.48-9.56-4.28-15.81.17-.49.23-1.01.4-1.8 7.02 1.48 13.94 2.85 20.79 4.49 1.28.31 2.34 1.7 3.43 2.65 8.06 7.03 15.91 14.33 24.22 21.05 5.86 4.74 12.67 7.74 20.58 6.76 1.24-.15 2.46-.5 4.04-.83-.32-4.5-.61-8.91-.94-13.32-1.23-16.38-2.51-32.77-3.66-49.16-.22-3.16-.13-6.37.19-9.53.52-5.18 3.13-6.56 7.66-4.29 4.17 2.08 8.26 4.34 12.53 6.19 2.34 1.01 3.35 2.6 3.93 4.89 2.13 8.37 1.75 16.83.93 25.29-.61 6.32-1.81 12.61-2.06 18.94-.14 3.7.9 7.5 1.77 11.17.34 1.43 1.5 2.82 2.61 3.89 3.04 2.94 4.64 2.83 7.63-.15 8.55-8.55 16.91-17.3 25.72-25.57 5.3-4.98 9.73-10.43 11.73-17.37 2.64-9.17 15.8-7.94 20.06-2.16 1.69 2.29 2.53 4.6.96 7.29-1.69 2.9-3.01 6.08-5.05 8.71-18.48 23.9-37.06 47.73-55.67 71.53-1.36 1.74-1.77 3.36-1.45 5.53.9 5.97 1.48 11.99 2.4 17.96.22 1.43.99 3.01 2 4.06 3.9 4.04 8.11 7.79 11.98 11.86 2.35 2.47 5.01 4 8.25 4.98 9.02 2.72 17.99 5.62 26.92 8.6 1.86.62 2.71.31 3.82-1.33 4.16-6.17 9.43-7.94 16.24-4.91 4.01 1.78 7.7 4.41 11.26 7.04 5.54 4.1 10.8 8.59 17.49 10.77 4.04 1.32 8.14 1.83 12-.32.99-.55 2.08-2.29 1.92-3.3-1.68-11.08-3.53-22.14-5.55-33.17-.25-1.34-1.5-2.77-2.68-3.64-11.85-8.74-23.85-17.3-35.68-26.08-6.98-5.18-12.95-11.31-15.62-19.92-2.83-9.11-1.41-11.26 7.96-10.49 3.98.33 8.34 1.49 11.61 3.67 7.91 5.26 15.29 11.33 22.87 17.09 1.08.82 2.1 1.74 3.46 2.87 1.85-6.08.91-11.45-1.68-16.73-1.77-3.6-3.57-7.22-4.89-10.99-2.27-6.45-.72-12.66 1.54-18.87 4.33-11.84 11.28-22.01 19.33-31.53 2.88-3.4 5.54-7.01 8.65-10.17 7.68-7.79 13.39-16.88 18.27-26.58 1.47-2.93 3.17-5.75 4.76-8.62 2.43-4.4 2.42-4.4 7.32-3.14 8.04 2.07 12.98 7.92 13.68 17.45.36 4.88-.56 9.86-.89 14.8-.14 2.05-1.33 3.02-3.13 3.89-16.91 8.13-29.59 20.66-38.12 37.32-3.74 7.3-4.71 15.87-3.19 24.45.52-.76.88-1.3 1.66-2.46.4 5.78.78 10.98 1.12 16.19.13 1.9.36 3.82.25 5.72-.2 3.59 1.95 5.02 4.94 5.23 2.15.15 4.41-.21 6.51-.77 8.75-2.33 13.58-9.28 18.56-16.04 1.19-1.62 2.27-3.33 3.48-4.94 4.46-5.97 10.82-7.71 18.09-8.11 1.54 6.94.98 13.6-2.7 19.4-4.81 7.59-10.16 14.87-15.74 21.92-2.02 2.55-5.46 3.95-8.11 6.05-4.16 3.28-8.27 6.62-12.27 10.09-5.07 4.41-7.65 10.12-7.77 16.8-.16 8.9-.12 17.8-.06 26.7.01.9.56 2.03 1.23 2.67 4.27 4.04 9.09 4.56 14.26 1.75 3.82-2.07 7.71-3.99 11.48-6.14 1.52-.86 3.03-1.96 4.13-3.29 5.39-6.57 12.26-9.54 20.69-9 5.69.37 9.13 6.99 5.86 11.58-1.58 2.22-3.52 4.26-5.6 6.02-14.46 12.29-29.04 24.45-43.47 36.78-1.27 1.09-2.52 3.14-2.46 4.69.38 9.4.72 18.83 1.92 28.14 1.13 8.8 3.55 17.44 4.88 26.22.61 4 .57 8.32-.23 12.28-1.34 6.64-9.1 9.92-15.06 6.78-.82-.43-1.38-1.54-1.85-2.45-5.14-9.96-7-20.62-6.28-31.71.84-12.93-.08-25.63-4.32-37.95-.5-1.44-1.67-2.98-2.96-3.77-14.09-8.64-28.24-17.18-42.45-25.62-1.16-.69-2.89-.46-4.36-.55-.49-.03-1.03.25-1.5.49-9.99 5.28-20.06 4.94-30.48 1.11-5.64-2.07-11.64-3.15-17.48-4.66-.79-.2-1.62-.29-2.53-.45-2.92 8.39-3.08 16.77-1.77 25.24.13.81.86 1.66 1.53 2.24 5.32 4.55 10.67 9.06 16.07 13.51.96.79 2.15 1.34 3.3 1.82 9.36 3.95 18.81 7.71 28.1 11.82 9.13 4.04 15.65 11 20.83 19.65-6.41 2.54-12.73 2.18-18.88.44-5.38-1.51-10.5-3.91-15.84-5.59-7.03-2.21-14.13-4.22-21.27-6.08-3.39-.88-5.43.98-6.9 4.05-3.23 6.76-3.56 13.9-3.15 21.14.38 6.78 1.01 13.54-.9 20.21-1.65 5.83-4.45 10.97-9.34 15.61z" fill="#010105"/><g fill="#fafbfa"><path d="m377.9 391.2c-.2.3-.4.5-.6.8-.7-.6-1.4-1-2.2-1.5.2-.3.4-.5.5-.8.6.4 1.4.8 2.3 1.5zm-1.8 6.1c-.2-.2-.5-.4-.9-.6.4-.6.8-1.2 1.2-1.9s.7-1.3.9-1.9c.3.3.5.5.8.7-.7 1.3-1.4 2.6-2 3.7zm2.2-9c-.3.3-.5.5-.6.8-.6-.6-1.3-1.1-2-1.5.3-.3.5-.5.6-.7.6.5 1.3.9 2 1.4zm.3.2v-.9h2 4.5c-.3 1.3-.6 2.5-1 3.6s-.9 2.1-1.4 3c.4.5 1 1 1.6 1.4s1.2.8 1.9 1.1c-.3.2-.5.4-.8.8-.4-.3-1-.7-1.6-1.2s-1.2-1.1-1.6-1.6c-.5.6-1.1 1.1-1.7 1.6s-1.4.9-2.1 1.4c-.1-.3-.3-.5-.7-.8.6-.2 1.2-.5 1.9-1s1.4-1.1 2-1.8c-.5-.8-.9-1.6-1.2-2.5s-.6-2-.8-3.2c-.4.1-.7.1-1 .1zm2.5 2.7c.3 1 .7 1.7 1 2.2.3-.5.6-1.1 1-2s.6-1.9.9-3h-3.2-.4c.1.9.3 1.8.7 2.8z"/><path d="m396.5 388.5v1.5 3.6h1.5v.9c-.4 0-1 0-1.7 0h-7.9c-.5 0-.9 0-1.2 0v-.9h1.3v-3.5c0-.7 0-1.2 0-1.6h2.4c0-.8 0-1.4 0-1.7h1c0 .3-.1.8-.1 1.7h1.5c0-.8 0-1.4 0-1.7h1c0 .3-.1.9-.1 1.7zm-8.2 9.2c-.2-.3-.5-.5-.8-.8.8-.3 1.4-.6 1.9-.9s1-.7 1.4-1.1c.3.3.6.5.9.8-1.6 1-2.8 1.6-3.4 2zm2.6-6.8v-1.6h-1.5v1.6zm0 2.7v-1.9h-1.5v1.9zm2.4-2.7v-1.6h-1.5v1.6zm0 2.7v-1.9h-1.5v1.9zm.2 2 .7-.8c.4.2.9.5 1.6.8s1.3.7 1.8 1c-.3.3-.5.5-.8.8-.4-.3-1.5-1-3.3-1.8zm2-4.7v-1.6h-1.4v1.6zm0 2.7v-1.9h-1.4v1.9z"/></g></svg>