<svg enable-background="new 0 0 400 400" viewBox="0 0 400 400" xmlns="http://www.w3.org/2000/svg"><path d="m129.82 364.33c2.12-4.77 3.63-9.95 6.48-14.24 10.01-15.1 20.46-29.92 30.82-44.79 1.2-1.72 1.52-3 .5-5.09-7.2-14.75-14.19-29.59-21.24-44.41-.4-.84-.74-1.72-1.21-2.81 3.47-.57 6.35-.47 9.25 1.89 8.96 7.29 18.15 14.3 27.56 21.65 3.53-5.41 5.36-11.25 6.4-17.43 1.39-8.24-.56-16.25-1.49-24.33-.8-6.95-1.65-13.89-2.23-20.86-.17-2.06-.92-2.99-2.79-3.51-7.35-2.03-14.63-.92-21.65 1.1-9.55 2.75-18.93 6.08-28.3 9.43-12.55 4.49-25.31 7.86-38.73 7.7-4.94-.06-9.86-.96-14.86-2.16 2.02-1.01 4.07-1.96 6.05-3.05 4.88-2.71 7.43-6.73 7.1-12.47-.31-5.5-.51-11.01-.62-16.53-.04-2.16-.98-2.91-3.03-3.11-4.51-.45-9-1.12-13.69-2.41 31.49-15.81 62.99-31.62 94.65-47.51-4.99-9.22-9.7-18.35-14.87-27.2-1.29-2.2-4.1-3.51-6.45-5.43-12.4 11.61-24.59 23.01-37.2 34.81-.14-5.71-.68-10.49 2.92-15.36 13.18-17.8 25.83-35.99 38.68-54.04.49-.69.96-1.39 1.63-2.36-2.54-1.29-4.89-2.71-7.42-3.63-.77-.28-2.26.58-3.05 1.31-6.93 6.4-13.64 13.05-20.67 19.33-9.33 8.34-19.98 14.61-31.68 19.08-.56.21-1.14.38-2.43.81 3.74-7.08 5.24-14.37 11.37-19.64 6.56-5.64 12.28-12.3 18.07-18.78 4.45-4.98 7.45-10.79 7.88-17.67.19-2.95-.26-5.58-2.12-8.04-2.28-3.02-4.24-6.28-6.58-9.82 9.77.98 18.39 3.99 26.72 7.97 11.65 5.57 22.18 12.9 32.05 21.11 12.38 10.3 24.44 21 36.62 31.54.77.66 1.39 1.49 2.35 2.55-8.44 2.22-15.94.88-22.89-3.36-7.95-4.85-16.3-6.27-25.29-3.77-.5.14-.97.36-1.78.66.34 1.15.6 2.25 1 3.29 9.56 25.01 19.04 50.05 28.76 75 5.67 14.56 9.39 29.55 9.33 45.17-.04 9.4-1.47 18.79-2.33 28.19-1.32 14.36-2.7 28.7-3.97 43.06-.11 1.2.27 2.52.71 3.67 3.12 8.33 8.2 15.31 15.06 20.91 8.74 7.14 17.05 14.64 22.99 24.76-3.18 3.42-7.31 4.29-11.5 3.14-7.54-2.07-14.94-4.7-22.36-7.19-.83-.28-1.49-1.12-2.19-1.74-2.46-2.17-4.73-4.59-7.37-6.51-6.76-4.91-13.79-4.25-19.83 1.53-13.4 12.83-26.82 25.65-40.24 38.47-.6.57-1.22 1.13-1.84 1.69-.35-.19-.7-.38-1.05-.57zm23.82-168.84c.55.07.79.18.95.11 7.9-3.28 15.8-6.57 23.69-9.88.47-.2 1.01-.42 1.33-.8 3.56-4.26 1.73-12.91-3.49-15.13-5.68-2.41-11.52-3.95-16.57 1.58-1.18 1.29-3.35 2.33-3.57 3.72-1.06 6.76-1.61 13.6-2.34 20.4zm-21.64-14.66c-4.98 2.82-9.6 5.35-14.12 8.07-.74.45-1.25 1.63-1.47 2.56-1.13 4.84-2.13 9.71-3.16 14.58-.33 1.57-.58 3.15-.96 5.22 9.05-3.79 17.47-7.32 26.02-10.9-2.14-6.64-4.15-12.86-6.31-19.53z" fill="#010105"/><path d="m312.16 250.54c-3.62.64-7.78 1.37-12.61 2.23-.58-5.53-1.21-10.84-1.66-16.17-.33-4.01-.12-8.08-.67-12.05-1.3-9.41-5.66-16.71-15.47-19.18-5.82-1.47-11.78-2.66-17.75-3.16-8.87-.76-16.73-5.95-20.51-14.78 10.43 1.62 20.65 3.23 30.87 4.79 2.72.41 5.45.9 8.19.97 4.84.12 8.25-2.15 8.88-6.86.59-4.43.09-9.03-.27-13.53-.07-.92-1.55-1.88-2.56-2.56-15.42-10.29-30.86-20.54-46.3-30.8-.87-.58-1.71-1.19-2.97-2.07 5.68-1.38 10.88-.58 16.03.16 8.91 1.28 17.08 4.72 25.06 8.75 2.9 1.46 6.02 2.67 9.18 3.37 4.2.94 7.25-1.09 8-5.23.85-4.7.88-8.98-3.3-12.96-12.5-11.92-24.53-24.34-36.78-36.53-.82-.81-1.92-1.33-2.89-1.99.26-.33.52-.66.78-.98 6.05 2.42 11.99 5.15 18.16 7.21 11.02 3.68 20.46 10.06 29.93 16.48 2.89 1.96 5.63 4.28 8.76 5.74 7.32 3.4 9.71 9.69 11.14 16.9 2.7 13.63 1.78 27.23-.24 40.79-3.53 23.63-7.27 47.26-11 71.46z" fill="#010105"/><g fill="#fafbfa"><path d="m377.9 391.2c-.2.3-.4.5-.6.8-.7-.6-1.4-1-2.2-1.5.2-.3.4-.5.5-.8.6.4 1.4.8 2.3 1.5zm-1.8 6.1c-.2-.2-.5-.4-.9-.6.4-.6.8-1.2 1.2-1.9s.7-1.3.9-1.9c.3.3.5.5.8.7-.7 1.3-1.4 2.6-2 3.7zm2.2-9c-.3.3-.5.5-.6.8-.6-.6-1.3-1.1-2-1.5.3-.3.5-.5.6-.7.6.5 1.3.9 2 1.4zm.3.2v-.9h2 4.5c-.3 1.3-.6 2.5-1 3.6s-.9 2.1-1.4 3c.4.5 1 1 1.6 1.4s1.2.8 1.9 1.1c-.3.2-.5.4-.8.8-.4-.3-1-.7-1.6-1.2s-1.2-1.1-1.6-1.6c-.5.6-1.1 1.1-1.7 1.6s-1.4.9-2.1 1.4c-.1-.3-.3-.5-.7-.8.6-.2 1.2-.5 1.9-1s1.4-1.1 2-1.8c-.5-.8-.9-1.6-1.2-2.5s-.6-2-.8-3.2c-.4.1-.7.1-1 .1zm2.5 2.7c.3 1 .7 1.7 1 2.2.3-.5.6-1.1 1-2s.6-1.9.9-3h-3.2-.4c.1.9.3 1.8.7 2.8z"/><path d="m396.5 388.5v1.5 3.6h1.5v.9c-.4 0-1 0-1.7 0h-7.9c-.5 0-.9 0-1.2 0v-.9h1.3v-3.5c0-.7 0-1.2 0-1.6h2.4c0-.8 0-1.4 0-1.7h1c0 .3-.1.8-.1 1.7h1.5c0-.8 0-1.4 0-1.7h1c0 .3-.1.9-.1 1.7zm-8.2 9.2c-.2-.3-.5-.5-.8-.8.8-.3 1.4-.6 1.9-.9s1-.7 1.4-1.1c.3.3.6.5.9.8-1.6 1-2.8 1.6-3.4 2zm2.6-6.8v-1.6h-1.5v1.6zm0 2.7v-1.9h-1.5v1.9zm2.4-2.7v-1.6h-1.5v1.6zm0 2.7v-1.9h-1.5v1.9zm.2 2 .7-.8c.4.2.9.5 1.6.8s1.3.7 1.8 1c-.3.3-.5.5-.8.8-.4-.3-1.5-1-3.3-1.8zm2-4.7v-1.6h-1.4v1.6zm0 2.7v-1.9h-1.4v1.9z"/></g></svg>