<svg enable-background="new 0 0 400 400" viewBox="0 0 400 400" xmlns="http://www.w3.org/2000/svg"><path d="m154 281.2c0-4.37.06-8.36-.01-12.35-.42-24.28-.91-48.55-1.27-72.83-.03-2.19-.92-3.25-2.74-4.02-6.02-2.56-12.37-3.27-18.72-2.42-9.75 1.31-19.42 3.23-29.13 4.82-1.97.32-2.72 1.24-3.04 3.27-2.39 15.07-2 30.23-1.75 45.39.15 8.71.14 17.41-2.68 25.8-2.19 6.51-5.66 12.05-12.29 15.52-2.87-4.99-4.21-10.33-4.74-15.91-.73-7.71.79-15.19 2.46-22.65 3.64-16.25 4.16-32.73 3.78-49.32-.45-19.29-.47-38.59-.69-57.89-.29-26.29-.51-52.59-.98-78.88-.07-4.1.87-6.95 5.32-8.52 7.53 9.11 14.24 18.49 11.62 31.77-.95 4.8-.65 9.89-.57 14.84.08 5.15 3.03 8.73 7.75 10.13 4.4 1.31 9.15 2.52 13.64 2.22 9.37-.62 18.66-2.29 28-3.44 2.32-.29 3.1-1.46 3.31-3.69 1.49-15.83 3.08-31.65 4.64-47.47.63-6.43 1.27-12.87 1.91-19.28 7.04-.71 14.32 5.08 15.92 10.72 1.34 4.73 2.46 9.73 2.43 14.6-.19 31.38-.66 62.76-1.15 94.13-.31 19.61-.56 39.23-1.32 58.83-.81 20.88-3.01 41.64-6.74 62.22-.35 1.94-1.06 2.71-2.93 2.93-3.16.35-6.26.91-10.03 1.48zm-54.68-154.63c0 11.64-.36 22.98.18 34.28.21 4.49 2.28 8.93 3.81 13.29.3.85 2.16 1.83 3.13 1.68 15.26-2.41 30.51-4.96 45.73-7.63.88-.15 2.16-1.51 2.21-2.36.55-9.93 1.21-19.88 1.21-29.82-.01-7.14-2.46-9.77-9.17-11.97-1.3-.43-2.66-.68-4-1.02-14.62-3.76-28.52.87-43.1 3.55z" fill="#010105"/><path d="m275.58 131.61c-4.94-.78-9.68-1.71-14.46-2.24-5.09-.56-9.49-2.44-13.69-5.32-5.59-3.82-11.43-7.26-17.99-11.39-.68 6.47-1.96 12.4-1.78 18.28.28 9.61 1.51 19.2 2.32 28.8.58 6.86 1.21 13.73 1.61 20.6.12 2.01.72 3.25 2.41 4.39 11.07 7.46 22.04 15.07 33.12 22.53 1.86 1.26 2.63 2.64 2.69 4.9.34 11.87.79 23.74 1.37 35.59.07 1.39.8 3.16 1.83 4.03 5.13 4.3 8.14 9.68 9.98 16.11 6.87 24 18.29 46.22 27.43 69.34 2.88 7.3 3.96 15.31 5.81 23.01.5 2.05.83 4.15 1.33 6.74-2.87-.5-5.51-.96-8.15-1.42-.42-.07-.82-.27-1.24-.27-7.7-.05-12.2-4.53-16.37-10.52-9.8-14.05-15.23-29.59-18.23-46.29-2.94-16.37-9.59-31.32-18.91-45.08-.18-.26-.3-.55-.55-1-19.99 18.47-42.3 29.11-70.37 23.85.59-2.48 1.09-4.6 1.55-6.52 22.81-2.38 44.24-6.89 57.02-29.37-8.52-2.62-16.49-5-24.4-7.53-8-2.56-15.22-6.41-20.65-13.06-.37-.46-.67-.97-1.23-1.79 6.98-1.06 13.46-.19 19.68 1.93 5.9 2 11.49 4.95 17.42 6.84 5.18 1.65 10.64 2.48 16 3.5 2.15.41 3.27-.52 3.22-3.01-.13-7 .08-14-.15-20.99-.05-1.39-1.15-3.16-2.31-4.02-7.36-5.42-15.86-8.35-24.58-10.76-9.79-2.71-19.55-5.56-29.31-8.37-1-.29-1.95-.72-3.72-1.39 5.32-1.78 9.93-3.29 14.52-4.87 3.58-1.23 8.64-1.56 10.3-4.09 1.79-2.72.5-7.54.36-11.44-1.44-39.41-2.91-78.82-4.37-118.24-.04-1.05 0-2.09 0-3.17 7.36 1.6 12.05 7.65 11.63 14.81-.11 1.9-.04 3.83-.31 5.71-1.38 9.66 2.64 17.27 8.91 24.1 4.94 5.38 10.67 9.64 17.19 12.89 9.35 4.67 17.47 10.81 23.09 19.83.62.99 1.19 2 1.75 3.02.13.26.11.61.23 1.35z" fill="#010105"/><g fill="#fafbfa"><path d="m377.9 391.2c-.2.3-.4.5-.6.8-.7-.6-1.4-1-2.2-1.5.2-.3.4-.5.5-.8.6.4 1.4.8 2.3 1.5zm-1.8 6.1c-.2-.2-.5-.4-.9-.6.4-.6.8-1.2 1.2-1.9s.7-1.3.9-1.9c.3.3.5.5.8.7-.7 1.3-1.4 2.6-2 3.7zm2.2-9c-.3.3-.5.5-.6.8-.6-.6-1.3-1.1-2-1.5.3-.3.5-.5.6-.7.6.5 1.3.9 2 1.4zm.3.2v-.9h2 4.5c-.3 1.3-.6 2.5-1 3.6s-.9 2.1-1.4 3c.4.5 1 1 1.6 1.4s1.2.8 1.9 1.1c-.3.2-.5.4-.8.8-.4-.3-1-.7-1.6-1.2s-1.2-1.1-1.6-1.6c-.5.6-1.1 1.1-1.7 1.6s-1.4.9-2.1 1.4c-.1-.3-.3-.5-.7-.8.6-.2 1.2-.5 1.9-1s1.4-1.1 2-1.8c-.5-.8-.9-1.6-1.2-2.5s-.6-2-.8-3.2c-.4.1-.7.1-1 .1zm2.5 2.7c.3 1 .7 1.7 1 2.2.3-.5.6-1.1 1-2s.6-1.9.9-3h-3.2-.4c.1.9.3 1.8.7 2.8z"/><path d="m396.5 388.5v1.5 3.6h1.5v.9c-.4 0-1 0-1.7 0h-7.9c-.5 0-.9 0-1.2 0v-.9h1.3v-3.5c0-.7 0-1.2 0-1.6h2.4c0-.8 0-1.4 0-1.7h1c0 .3-.1.8-.1 1.7h1.5c0-.8 0-1.4 0-1.7h1c0 .3-.1.9-.1 1.7zm-8.2 9.2c-.2-.3-.5-.5-.8-.8.8-.3 1.4-.6 1.9-.9s1-.7 1.4-1.1c.3.3.6.5.9.8-1.6 1-2.8 1.6-3.4 2zm2.6-6.8v-1.6h-1.5v1.6zm0 2.7v-1.9h-1.5v1.9zm2.4-2.7v-1.6h-1.5v1.6zm0 2.7v-1.9h-1.5v1.9zm.2 2 .7-.8c.4.2.9.5 1.6.8s1.3.7 1.8 1c-.3.3-.5.5-.8.8-.4-.3-1.5-1-3.3-1.8zm2-4.7v-1.6h-1.4v1.6zm0 2.7v-1.9h-1.4v1.9z"/></g></svg>