<svg enable-background="new 0 0 400 400" viewBox="0 0 400 400" xmlns="http://www.w3.org/2000/svg"><path d="m112.15 345.19c8.72-4.25 17.48-8.45 26.16-12.79 4.62-2.31 9.42-4.46 13.6-7.43 7.18-5.12 9.42-17.15 5.1-24.82-.37-.66-1.21-1.14-1.94-1.51-8.59-4.37-17.68-6.51-27.32-5.69-11.62.99-22.84-.28-33.48-5.34-.65-.31-1.29-.65-2.84-1.44 5.05-.49 9.16-1.17 13.29-1.24 18.86-.32 37.71-.52 56.57-.64 7.77-.05 15.46-.35 22.82-3.19 10.11-3.9 14.91-11.38 15.88-22.05.6-6.57-1.46-10.81-7.16-14.29-9.41-5.76-19.02-10.12-30.36-9.74-6.17.21-11.94 1.73-17.44 4.33-10.42 4.94-21.21 8.57-32.76 9.55-8.79.75-17.56.68-26.36-1.51 28.7-8.9 57.39-17.79 86.59-26.84-2.69-6.29-2.65-13.41-9.15-17.88-4.95-3.4-9.27-7.75-13.72-11.83-1.16-1.07-2.2-2.62-2.58-4.13-8.65-34.62-17.21-69.26-25.76-103.9-.35-1.42-.48-2.93-.5-4.39-.05-6.89-.15-13.79.04-20.68.08-2.77-.78-4.79-2.6-6.79-4.35-4.76-8.51-9.69-13.37-15.27 5.1 0 9.39.22 13.65-.06 4.53-.29 8.4.84 12.24 3.29 6.33 4.05 12.92 7.7 19.45 11.43 1.25.71 2.72 1.29 4.13 1.43 31.94 3.3 63.89 6.52 95.83 9.77 3.01.31 6.02.69 8.99 1.56-27.8 2.09-55.59 4.18-84.31 6.34 2.01 1.63 3.28 2.69 4.58 3.71 6.66 5.25 13.55 10.25 19.91 15.83 4.59 4.03 9.64 5.92 15.58 6.78 24.01 3.48 47.97 7.26 71.95 10.95 1.13.17 2.23.51 2.88.66-12.54 0-25.52-.21-38.48.08-7.39.17-14.84.71-22.12 1.95-4.12.7-8.02 3-11.85 4.91-1.92.96-2.15 2.68-.96 4.83 5.44 9.82 10.57 19.81 16.11 29.57 1.3 2.28 3.59 4.11 5.71 5.8 11.24 8.95 24.56 12.26 38.42 14.63 10.78 1.84 21.36 4.94 32.02 7.49-.06.41-.13.81-.19 1.22-5.62.4-11.23.84-16.85 1.19-17.77 1.12-35.54 2.18-53.31 3.36-1.19.08-2.8.67-3.42 1.56-10.86 15.68-21.61 31.45-32.36 47.2-.11.16-.1.39-.17.72 2.17 1.75 4.47 3.44 6.57 5.34 12.38 11.17 14.6 25.19 11.19 40.69-.2.89-1.36 1.89-2.3 2.26-8.45 3.35-16.8 7.06-25.48 9.69-10.17 3.08-15.57 9.6-17.17 19.8-.35 2.27.05 3.83 2.04 5.42 13.68 10.91 27.22 21.98 40.8 33.01.72.59 1.4 1.23 1.82 2.44-12.71-4.94-25.42-9.88-38.37-14.92-3.72 10.36-7.35 20.5-11.1 30.95-2.13-6.57-3.99-12.82-6.2-18.94-1.18-3.26-2.86-6.36-4.52-9.42-1.36-2.51-3.42-3.32-6.41-2.54-12.8 3.38-25.64 6.56-38.47 9.81-.7.18-1.42.31-2.13.47-.12-.23-.26-.49-.41-.75zm57.88-162.93c.59-.03.91.01 1.2-.07 15.5-4.23 31-8.48 46.51-12.67 1.69-.46 2.32-1.29 2.53-3.04 1.88-15.42-1.79-29.66-9.35-42.94-3.87-6.8-9.88-11.28-17.72-12.78-1.18-.23-3.06.24-3.79 1.1-11.31 13.18-22.49 26.46-33.64 39.77-.48.57-.84 1.82-.55 2.38 4.88 9.47 9.87 18.89 14.81 28.25zm-20.15-44.95c1.22-1.26 1.96-2 2.67-2.77 8.48-9.18 16.75-18.55 25.52-27.45 3.83-3.89 4.21-7.88 2.39-12.34-1.18-2.89-2.78-5.78-4.81-8.13-9.18-10.56-20.66-18.03-33.28-23.84-1.76-.81-3.63-1.39-6.02-2.3 4.55 25.84 8.98 50.99 13.53 76.83zm58.73 45.15c-7.91 4.66-15.14 8.91-22.55 13.27 3.84 6.23 7.47 12.12 11.24 18.23 3.68-2.92 7.08-5.57 10.41-8.32.49-.4.85-1.24.86-1.89.07-6.83.04-13.67.04-21.29z" fill="#010105"/><g fill="#fafbfa"><path d="m377.9 391.2c-.2.3-.4.5-.6.8-.7-.6-1.4-1-2.2-1.5.2-.3.4-.5.5-.8.6.4 1.4.8 2.3 1.5zm-1.8 6.1c-.2-.2-.5-.4-.9-.6.4-.6.8-1.2 1.2-1.9s.7-1.3.9-1.9c.3.3.5.5.8.7-.7 1.3-1.4 2.6-2 3.7zm2.2-9c-.3.3-.5.5-.6.8-.6-.6-1.3-1.1-2-1.5.3-.3.5-.5.6-.7.6.5 1.3.9 2 1.4zm.3.2v-.9h2 4.5c-.3 1.3-.6 2.5-1 3.6s-.9 2.1-1.4 3c.4.5 1 1 1.6 1.4s1.2.8 1.9 1.1c-.3.2-.5.4-.8.8-.4-.3-1-.7-1.6-1.2s-1.2-1.1-1.6-1.6c-.5.6-1.1 1.1-1.7 1.6s-1.4.9-2.1 1.4c-.1-.3-.3-.5-.7-.8.6-.2 1.2-.5 1.9-1s1.4-1.1 2-1.8c-.5-.8-.9-1.6-1.2-2.5s-.6-2-.8-3.2c-.4.1-.7.1-1 .1zm2.5 2.7c.3 1 .7 1.7 1 2.2.3-.5.6-1.1 1-2s.6-1.9.9-3h-3.2-.4c.1.9.3 1.8.7 2.8z"/><path d="m396.5 388.5v1.5 3.6h1.5v.9c-.4 0-1 0-1.7 0h-7.9c-.5 0-.9 0-1.2 0v-.9h1.3v-3.5c0-.7 0-1.2 0-1.6h2.4c0-.8 0-1.4 0-1.7h1c0 .3-.1.8-.1 1.7h1.5c0-.8 0-1.4 0-1.7h1c0 .3-.1.9-.1 1.7zm-8.2 9.2c-.2-.3-.5-.5-.8-.8.8-.3 1.4-.6 1.9-.9s1-.7 1.4-1.1c.3.3.6.5.9.8-1.6 1-2.8 1.6-3.4 2zm2.6-6.8v-1.6h-1.5v1.6zm0 2.7v-1.9h-1.5v1.9zm2.4-2.7v-1.6h-1.5v1.6zm0 2.7v-1.9h-1.5v1.9zm.2 2 .7-.8c.4.2.9.5 1.6.8s1.3.7 1.8 1c-.3.3-.5.5-.8.8-.4-.3-1.5-1-3.3-1.8zm2-4.7v-1.6h-1.4v1.6zm0 2.7v-1.9h-1.4v1.9z"/></g></svg>