<svg enable-background="new 0 0 400 400" viewBox="0 0 400 400" xmlns="http://www.w3.org/2000/svg"><path d="m385.2 377.6.6-.7c.6.4 1.3.9 1.9 1.5l-.6.7c-.8-.5-1.4-1-1.9-1.5zm.3 7.1c.6-1.4 1.1-2.9 1.5-4.5.3.1.6.3.9.4-.5 1.4-1 2.9-1.5 4.4zm.2-10.1.6-.6c.7.5 1.3 1.1 1.9 1.6l-.7.7c-.6-.6-1.2-1.2-1.8-1.7zm8.4-.8h.8v.9h1.8v.7h-1.8v1.8h-.8v-.3h-1.2v.9h3.3v2.6h-.8v-.4h-2.5c0 .3 0 .6-.1.8h3.4v.7h-3.5c0 .3-.1.6-.1.8h4v.7h-3.5c.7.9 1.9 1.3 3.6 1.5-.2.2-.4.5-.6.9-1.9-.3-3.2-1.1-3.8-2.3-.5 1.1-1.8 2-3.9 2.4-.2-.3-.4-.5-.6-.8 1.9-.4 3.1-.9 3.6-1.7h-3.2v-.7h3.5c.1-.2.1-.5.2-.8h-3.3v-.7h3.4c0-.2 0-.5 0-.8h-2.4v.3h-.8v-2.6h3.3v-.9h-1.2v.3h-.8v-1.8h-1.8v-.7h1.8v-.9h.8v.9h3.2zm-4.4 5.5h2.4c0-.3 0-.6 0-.9h-2.4zm1.2-3.1h3.2v-.8h-3.2zm4.4 2.2h-2.4v.9h2.5v-.9z" fill="#fcfafa"/><path d="m389.2 385.8h.9v1.5h1.9v-1.5h.9v1.5h2.7v6h1.1v.9h-11.3v-.9h1.1v-6h2.7zm.2 8.7.5.8c-1.2.6-2.5 1.3-4 1.9-.2-.3-.3-.6-.6-.8 1.6-.6 3-1.3 4.1-1.9zm-2-4.3h1.9v-2.1h-1.9zm0 3.1h1.9v-2.2h-1.9zm2.7-3.1h1.9v-2.1h-1.9zm0 3.1h1.9v-2.2h-1.9zm2.4 1.3c1.4.6 2.7 1.2 4.1 1.8l-.5.9c-1.5-.7-2.8-1.4-4.1-1.9zm2.2-6.5h-1.9v2.1h1.9zm-1.9 5.2h1.9v-2.2h-1.9z" fill="#fcfafa"/><path d="m229.78 185.96c-1.79 1.48-3.07 2.41-4.2 3.5-2.56 2.46-4.84 5.27-7.62 7.44-3.75 2.92-7.86 5.37-11.81 8.03-19.43 13.05-40.6 18.63-63.94 14.85-2.87-.47-5.7-1.14-6.54-4.83 4.76-3.81 10.44-5.87 16.58-5.67 25.07.81 43.73-12.21 60.68-28.33 7.53-7.16 10.57-17.16 13.04-27.16 1.75-7.08 3.61-14.16 5.97-21.05 2.61-7.62 2.45-14.99-.62-22.29-2.12-5.05-4.07-10.29-7.02-14.85-3.29-5.08-5.93-10.21-6.57-16.25-.2-1.89-.87-2.9-2.94-2.8-5.17.23-9.19-2.26-13.2-5.24-8.15-6.06-16.14-12.43-25.84-16.01-15.96-5.89-32.09-6.79-48.15-.76-4.69 1.76-9.15 4.57-13.11 7.67-2.35 1.84-3.44 5.26-5.22 7.88-2.3 3.38-4.24 6.79-3.61 11.14.1.71-.53 1.82-1.16 2.3-3.45 2.63-6.97 5.18-10.54 7.65-3.95 2.75-8.12 2.68-11.67-.46-.91-.8-1.47-2.69-1.26-3.92.61-3.74 1.5-7.45 2.62-11.07.84-2.72 2.42-5.2 3.28-7.91 1.55-4.89 4.95-7.97 9.22-10.39 7.83-4.43 15.5-9.18 23.49-13.29 10.6-5.44 22.53-6.45 33.91-9.23 2.44-.6 5.38.77 8.07 1.33 8.81 1.82 17.62 3.65 26.42 5.57 1.52.33 2.98 1.02 4.41 1.69 13.13 6.13 24.33 14.84 34.15 25.44 2.23 2.41 4.61 4.7 7.08 6.85 2.87 2.49 4.65 5.56 6.39 8.9 1.22 2.34 3.73 4.2 6.03 5.73 2.8 1.87 4.43 4.14 5.42 7.38 2 6.57 4.82 12.89 6.68 19.49 2.9 10.31 1.91 20.83.52 31.25-1.05 7.87-2.48 15.69-3.74 23.53-.08.52-.37 1.09-.25 1.55 2.52 9.84-.32 19.61-.52 29.4-.32 15.92.09 31.76 1.37 47.64 1.14 14.04 1.38 28.16 2.06 42.24.05 1.14.27 2.29.56 3.41 1.26 4.9 3.02 9.73 3.78 14.7 1.19 7.77 4.01 14.66 10.11 19.58 9.8 7.9 19.95 15.36 30.02 22.91 2.28 1.71 4.88 2.99 7.25 4.58 2.75 1.84 4.66 4.26 4.79 8-7.67 1.1-14.52-1.09-20.96-4.75-9.11-5.19-18.82-9.69-26.95-16.15-12.6-10-27.19-17.81-36.59-31.64-5.23-7.7-10.14-15.53-11.56-24.81-.67-4.37-.02-9.02.49-13.48 1.01-8.84 2.31-17.65 3.56-26.46.2-1.44.49-3.01 1.23-4.21 2.92-4.72 4.03-9.77 4.25-15.32.53-13.66 1.54-27.3 2.35-40.95.02-.39-.06-.8-.19-2.35z" fill="#010100"/></svg>