<svg enable-background="new 0 0 400 400" viewBox="0 0 400 400" xmlns="http://www.w3.org/2000/svg"><path d="m385.2 377.6.6-.7c.6.4 1.3.9 1.9 1.5l-.6.7c-.8-.5-1.4-1-1.9-1.5zm.3 7.1c.6-1.4 1.1-2.9 1.5-4.5.3.1.6.3.9.4-.5 1.4-1 2.9-1.5 4.4zm.2-10.1.6-.6c.7.5 1.3 1.1 1.9 1.6l-.7.7c-.6-.6-1.2-1.2-1.8-1.7zm8.4-.8h.8v.9h1.8v.7h-1.8v1.8h-.8v-.3h-1.2v.9h3.3v2.6h-.8v-.4h-2.5c0 .3 0 .6-.1.8h3.4v.7h-3.5c0 .3-.1.6-.1.8h4v.7h-3.5c.7.9 1.9 1.3 3.6 1.5-.2.2-.4.5-.6.9-1.9-.3-3.2-1.1-3.8-2.3-.5 1.1-1.8 2-3.9 2.4-.2-.3-.4-.5-.6-.8 1.9-.4 3.1-.9 3.6-1.7h-3.2v-.7h3.5c.1-.2.1-.5.2-.8h-3.3v-.7h3.4c0-.2 0-.5 0-.8h-2.4v.3h-.8v-2.6h3.3v-.9h-1.2v.3h-.8v-1.8h-1.8v-.7h1.8v-.9h.8v.9h3.2zm-4.4 5.5h2.4c0-.3 0-.6 0-.9h-2.4zm1.2-3.1h3.2v-.8h-3.2zm4.4 2.2h-2.4v.9h2.5v-.9z" fill="#fcfafa"/><path d="m389.2 385.8h.9v1.5h1.9v-1.5h.9v1.5h2.7v6h1.1v.9h-11.3v-.9h1.1v-6h2.7zm.2 8.7.5.8c-1.2.6-2.5 1.3-4 1.9-.2-.3-.3-.6-.6-.8 1.6-.6 3-1.3 4.1-1.9zm-2-4.3h1.9v-2.1h-1.9zm0 3.1h1.9v-2.2h-1.9zm2.7-3.1h1.9v-2.1h-1.9zm0 3.1h1.9v-2.2h-1.9zm2.4 1.3c1.4.6 2.7 1.2 4.1 1.8l-.5.9c-1.5-.7-2.8-1.4-4.1-1.9zm2.2-6.5h-1.9v2.1h1.9zm-1.9 5.2h1.9v-2.2h-1.9z" fill="#fcfafa"/><path d="m127.38 35.21c8.15 2.27 14.71 10.87 15.17 19.87.52 10.06.72 20.13 1.3 30.19.47 8.14 1.56 16.25 1.93 24.39.76 16.97-2.5 33.58-5.32 50.18-3.94 23.15-6.15 46.43-6.8 69.87-.34 12.29-.73 24.59-.55 36.87.14 9.1.9 18.22 1.95 27.27.4 3.46 1.95 6.97 3.7 10.04 3.57 6.23 7.38 12.35 11.58 18.16 2.73 3.77 6.87 5.88 11.64 6.51 2.94.38 4.67-.39 5.45-3.63 1.78-7.33 1.14-14.55-.5-21.72-2.64-11.58-5.41-23.15-5.07-35.13.3-10.81 1.25-21.61 1.27-32.41.01-11.91 3.01-23.24 5.15-34.79 1.75-9.44 3.1-19.07 3.37-28.65.53-18.95-.69-37.97.42-56.88 1.33-22.76-4.63-44.34-8.2-66.34-.53-3.24-1.14-6.47-1.69-9.7-.05-.29.08-.6.17-1.2 2.73.25 5.48.28 8.11.85 1.12.24 2.29 1.44 2.95 2.5 5.14 8.32 7.1 17.63 7.98 27.19 1.99 21.74 3.85 43.5 5.78 65.25.23 2.63 2.48 4.82 5.53 5.18 1.56.18 3.21.16 4.74-.15 16.58-3.38 33.32-2.83 50.02-1.63 7.5.54 14.13 3.58 18.65 10.58-4.72 2.67-9.75 4.02-14.89 3.91-9.51-.19-19.01-.91-28.51-1.55-9.12-.62-18.17-.54-27.25.88-6.49 1.02-10.19 4.71-11.42 10.64-1.04 5.03-1.56 10.3-1.39 15.43.63 18.86-2.2 37.45-4.19 56.08-1.2 11.22.05 22.21.52 33.3.22 5.29.16 10.59.26 15.88.04 2.33-.02 4.67.24 6.98.52 4.57 2.44 8.2 6.23 11.25 11.47 9.25 24.83 13.89 38.89 17.15 14.43 3.34 28.82 6.87 43.24 10.27 5.16 1.22 8.33 3.92 10.52 9.79-5.35.34-10.55 1.48-15.51.81-12.36-1.67-24.62-4.09-36.9-6.37-10.85-2.02-21.4-5.07-31.54-9.53-4.57-2.01-9.13-.01-10.47 4.88-1.11 4.05-1.53 8.3-1.94 12.5-.09.89 1.01 2.21 1.91 2.84 9.41 6.65 20.11 9.78 31.38 11.18 9.66 1.19 19.48 1.67 28.61 5.46 3.72 1.55 7.17 3.72 10.75 5.61-.13.55-.27 1.1-.4 1.65-6.62 0-13.25.31-19.84-.06-16.3-.92-32.71-2.04-48.29-7.12-10.61-3.46-20.68-8.66-30.81-13.46-2.46-1.16-4.34-3.69-6.27-5.8-6.13-6.72-12.64-13.17-18.07-20.41-5.98-7.98-7.31-17.94-9.22-27.48-4.68-23.36-5.76-47-2.9-70.59 4.09-33.75 9.07-67.4 13.7-101.09 2.09-15.18.65-30.17-1.59-45.25-1.83-12.33-2.43-24.85-3.55-37.29-.11-1.03-.03-2.06-.03-3.16z" fill="#010100"/></svg>