<svg enable-background="new 0 0 400 400" viewBox="0 0 400 400" xmlns="http://www.w3.org/2000/svg"><path d="m385.2 377.6.6-.7c.6.4 1.3.9 1.9 1.5l-.6.7c-.8-.5-1.4-1-1.9-1.5zm.3 7.1c.6-1.4 1.1-2.9 1.5-4.5.3.1.6.3.9.4-.5 1.4-1 2.9-1.5 4.4zm.2-10.1.6-.6c.7.5 1.3 1.1 1.9 1.6l-.7.7c-.6-.6-1.2-1.2-1.8-1.7zm8.4-.8h.8v.9h1.8v.7h-1.8v1.8h-.8v-.3h-1.2v.9h3.3v2.6h-.8v-.4h-2.5c0 .3 0 .6-.1.8h3.4v.7h-3.5c0 .3-.1.6-.1.8h4v.7h-3.5c.7.9 1.9 1.3 3.6 1.5-.2.2-.4.5-.6.9-1.9-.3-3.2-1.1-3.8-2.3-.5 1.1-1.8 2-3.9 2.4-.2-.3-.4-.5-.6-.8 1.9-.4 3.1-.9 3.6-1.7h-3.2v-.7h3.5c.1-.2.1-.5.2-.8h-3.3v-.7h3.4c0-.2 0-.5 0-.8h-2.4v.3h-.8v-2.6h3.3v-.9h-1.2v.3h-.8v-1.8h-1.8v-.7h1.8v-.9h.8v.9h3.2zm-4.4 5.5h2.4c0-.3 0-.6 0-.9h-2.4zm1.2-3.1h3.2v-.8h-3.2zm4.4 2.2h-2.4v.9h2.5v-.9z" fill="#fcfafa"/><path d="m389.2 385.8h.9v1.5h1.9v-1.5h.9v1.5h2.7v6h1.1v.9h-11.3v-.9h1.1v-6h2.7zm.2 8.7.5.8c-1.2.6-2.5 1.3-4 1.9-.2-.3-.3-.6-.6-.8 1.6-.6 3-1.3 4.1-1.9zm-2-4.3h1.9v-2.1h-1.9zm0 3.1h1.9v-2.2h-1.9zm2.7-3.1h1.9v-2.1h-1.9zm0 3.1h1.9v-2.2h-1.9zm2.4 1.3c1.4.6 2.7 1.2 4.1 1.8l-.5.9c-1.5-.7-2.8-1.4-4.1-1.9zm2.2-6.5h-1.9v2.1h1.9zm-1.9 5.2h1.9v-2.2h-1.9z" fill="#fcfafa"/><path d="m142.9 125.99c0-1.62-.38-3.02.07-4.06 2.17-5.01 4.28-10.03 9.28-13.19 7.79-4.92 15.58-9.87 23.02-15.31 4.14-3.02 7.95-6.72 11.21-10.68 6.59-8.01 6.02-14.97 1.22-24.5-.33-.66-.75-1.29-1.21-1.87-5.55-7-4.28-13.91.35-21.09 1.35.47 2.83.74 4.05 1.46 1.72 1.01 3.66 2.04 4.78 3.59 14.89 20.58 32.65 39.42 39.43 64.97 2.6 9.79 4.86 19.61 3.59 29.75-.5 4.01-2.23 7.9-3.6 11.78-3.96 11.18-7.97 22.33-12.08 33.45-.69 1.86-.48 3 .95 4.4 7.94 7.8 15.57 15.94 23.72 23.51 6.72 6.25 8.23 13.85 7.07 22.28-1.46 10.59-5.92 19.91-12.14 28.63-10.49 14.71-15.63 31.32-15.9 49.39-.03 1.83.56 3.76 1.28 5.48 2.2 5.28 4.42 10.56 6.98 15.67 2.21 4.41 4.51 8.86 7.44 12.78 4.78 6.39 3.94 13.44 3.09 20.46-.39 3.27-3.75 4.33-6.41 2.28-11.58-8.89-20.58-19.82-25.54-33.7-4.57-12.78-7.12-25.97-6-39.6.35-4.26 1.55-8.52 2.88-12.6 5.48-16.8 11.11-33.55 16.82-50.28.74-2.16.66-3.98-.75-5.6-2.57-2.94-4.88-6.34-8.01-8.51-19.02-13.17-21.6-34.33-13.92-53.79 4.13-10.46 8.01-20.95 10.15-32.02 1.73-8.97-.12-17.32-5-24.91-4.13-6.43-13.21-6.9-18.41-1.31-1.44 1.55-2.98 3.06-4.69 4.27-11.9 8.35-24.89 14.39-38.91 18.22-.81.22-1.66.34-2.5.46-.61.09-1.23.1-2.31.19z" fill="#010100"/></svg>