<svg enable-background="new 0 0 400 400" viewBox="0 0 400 400" xmlns="http://www.w3.org/2000/svg"><path d="m385.2 377.6.6-.7c.6.4 1.3.9 1.9 1.5l-.6.7c-.8-.5-1.4-1-1.9-1.5zm.3 7.1c.6-1.4 1.1-2.9 1.5-4.5.3.1.6.3.9.4-.5 1.4-1 2.9-1.5 4.4zm.2-10.1.6-.6c.7.5 1.3 1.1 1.9 1.6l-.7.7c-.6-.6-1.2-1.2-1.8-1.7zm8.4-.8h.8v.9h1.8v.7h-1.8v1.8h-.8v-.3h-1.2v.9h3.3v2.6h-.8v-.4h-2.5c0 .3 0 .6-.1.8h3.4v.7h-3.5c0 .3-.1.6-.1.8h4v.7h-3.5c.7.9 1.9 1.3 3.6 1.5-.2.2-.4.5-.6.9-1.9-.3-3.2-1.1-3.8-2.3-.5 1.1-1.8 2-3.9 2.4-.2-.3-.4-.5-.6-.8 1.9-.4 3.1-.9 3.6-1.7h-3.2v-.7h3.5c.1-.2.1-.5.2-.8h-3.3v-.7h3.4c0-.2 0-.5 0-.8h-2.4v.3h-.8v-2.6h3.3v-.9h-1.2v.3h-.8v-1.8h-1.8v-.7h1.8v-.9h.8v.9h3.2zm-4.4 5.5h2.4c0-.3 0-.6 0-.9h-2.4zm1.2-3.1h3.2v-.8h-3.2zm4.4 2.2h-2.4v.9h2.5v-.9z" fill="#fcfafa"/><path d="m389.2 385.8h.9v1.5h1.9v-1.5h.9v1.5h2.7v6h1.1v.9h-11.3v-.9h1.1v-6h2.7zm.2 8.7.5.8c-1.2.6-2.5 1.3-4 1.9-.2-.3-.3-.6-.6-.8 1.6-.6 3-1.3 4.1-1.9zm-2-4.3h1.9v-2.1h-1.9zm0 3.1h1.9v-2.2h-1.9zm2.7-3.1h1.9v-2.1h-1.9zm0 3.1h1.9v-2.2h-1.9zm2.4 1.3c1.4.6 2.7 1.2 4.1 1.8l-.5.9c-1.5-.7-2.8-1.4-4.1-1.9zm2.2-6.5h-1.9v2.1h1.9zm-1.9 5.2h1.9v-2.2h-1.9z" fill="#fcfafa"/><path d="m143.81 358.55c5.19-.58 10.27-1.22 15.37-1.7 4.95-.46 9.96-.42 14.85-1.21 4.54-.74 4.62-1.43 4.76-5.9.27-8.47 1.21-16.95.89-25.39-.36-9.61-1.72-19.18-2.85-28.74-.1-.84-1.54-1.85-2.55-2.2-7.61-2.61-15.32-4.93-22.9-7.65-2.71-.97-5.28-2.58-7.62-4.29-3.16-2.31-5.06-2.37-7.6.49-7.39 8.33-14.72 16.71-22.17 24.98-.9 1-2.31 1.81-3.63 2.14-4.38 1.09-8.83 1.92-13.48 2.89.08-3.65 1.13-6.09 4.09-8.21 8.56-6.13 14.91-14.36 20.76-23.02 1.64-2.42 3.68-4.59 5.71-6.71 2.45-2.55 2.53-4.75.05-7.33-3.57-3.72-5.34-8.32-6.49-13.24-.42-1.79.39-2.66 1.98-2.88 5.24-.72 9.78.88 13.63 4.44.84.78 1.58 1.75 2.15 2.75 8.8 15.28 23.73 20.89 39.62 24.27 14.32 3.05 29.09 3.2 43.26-.23 10.41-2.52 20.93-6.31 28.37-15.31-7.37-4.99-14.83-9.85-22.08-14.99-14.35-10.18-28.43-20.75-42.94-30.69-7.76-5.32-15.96-9.88-22.89-16.47-9.84-9.37-11.46-20.72-9.63-33.27.35-2.4.76-4.82.75-7.23-.04-16.86-.25-33.72 1.91-50.5.04-.3-.05-.61-.12-1.31-4.59 1.16-9.49.99-12.64 5.43-3.35 4.71-7.33 9.06-10.13 14.07-2.83 5.08-2.36 10.63.86 15.72 1.36 2.15 2.92 4.2 3.98 6.49.95 2.05 1.87 4.37 1.84 6.56-.06 3.99-1.89 5.04-5.68 3.99-.71-.2-1.42-.51-2.15-.56-8.48-.63-11.92-6.66-14.56-13.54-4.13-10.76-2.16-20.58 4.65-29.63.19-.25.39-.52.64-.71 14.22-10.92 27.21-23.71 45.32-28.6 4.71-1.27 9.27-3.66 13.43-6.27 4.98-3.12 7.89-7.61 7.13-14.12-.66-5.67-.15-11.46-.72-17.15-.33-3.29-1.61-6.53-2.77-9.68-.69-1.87-.38-3.07.94-4.5 4.54-4.9 4.49-4.95 10.6-2.48 6.68 2.7 9.36 6.62 9.34 13.91-.02 5.71-.27 11.42-.23 17.13.06 8.14 4.72 12.48 12.24 14.35 3.8.94 7.55 2.1 11.37 2.98 13.2 3.04 22.76 11.31 30.98 21.47 5.94 7.33 10.16 15.52 9.92 25.2-.12 4.7-1.33 9.38-2.14 14.05-.12.67-.59 1.38-1.09 1.87-12.86 12.63-30.66 12.79-44.06 1.91-1.51-1.22-1.17-4.72-1.72-7.31 5.67-1.16 10.33.06 14.85 1.94 2.83 1.18 5.52 2.7 8.35 3.87 4.47 1.86 8.15.78 10.75-3.31 4.15-6.54 5.01-13.46 1.34-20.47-8.21-15.68-22-24.39-38.15-30.03-1.89-.66-3.89-1.04-5.81-1.61-4.84-1.43-9.62-1.73-14.64-.44-6.23 1.61-12.8 2.02-18.88 4.02-10.04 3.3-12.61 8.4-12.74 18.92-.11 8.85-1.3 17.7-2.18 26.53-1.23 12.34-2.49 24.6-.43 37.06 1.61 9.77 7.76 16.48 13.85 23.3 1.57 1.76 4.54 2.25 7.87 3.78 1.83-9.34 3.7-17.67 5.04-26.09 1.45-9.1 2.65-18.26 3.49-27.43.55-6 .21-12.07.36-18.11.11-4.24.27-8.48.65-12.7.14-1.51.73-3.15 1.59-4.39 1.84-2.66 5.1-2.58 7.13-.1 2.85 3.48 3.74 7.28 3.1 11.84-.96 6.8-1.05 13.72-1.93 20.54-1.74 13.55-3.77 27.06-5.65 40.59-.39 2.83-.61 5.69-.98 8.52-.57 4.35-1.21 8.7-1.91 13.68 21.9 14.51 44.49 29.47 66.05 43.76 5.01-4.45 9.42-8.73 14.22-12.52 3.09-2.43 6.69-4.27 10.2-6.1 1.09-.57 2.66-.23 4.1-.31.75 3.39.51 6.03-1.97 8.6-4.78 4.96-9.21 10.25-13.76 15.43-2.49 2.83-2 5.77 1 7.94 5.14 3.73 10.27 7.49 15.21 11.49 4.25 3.44 6.86 8.03 7.89 13.44.7 3.71-.59 4.97-4.05 3.35-3.5-1.64-6.83-3.82-9.87-6.22-4.48-3.55-8.58-7.58-12.97-11.24-1.69-1.4-3.69-2.48-5.67-3.46-2.49-1.24-4.96-1.21-7.58.15-4.89 2.53-9.98 4.66-14.86 7.19-1.58.82-2.92 2.27-4.1 3.66-4.2 4.94-5.14 10.67-5 17.1.35 15.46.79 30.97-2.71 46.37 6.09 2.79 12.28 3.27 18.5 3.61 3.91.21 7.87.12 11.7.76 4.77.8 8.25 3.6 10.02 8.43-4.32 2.44-8.92 3.16-13.59 2.66-6.31-.68-12.55-2.04-18.87-2.62-3.96-.37-8.04-.17-12 .31-13.11 1.61-26.24.46-39.36.63-7.6.09-15.19 1.21-22.8 1.34-5.14.09-10.34-.47-15.44-1.24-4.58-.64-4.53-.94-5.91-6.49zm79.16-65.14c-12-1.12-23.07 2.24-34.51 2.99 0 1.63-.04 2.89.01 4.14.54 15.35 1.08 30.7 1.64 46.05.33 9.06.34 9.2 9.37 9.71 7.64.43 15.21-.18 22.77-2.9-.51-9.61-.19-19.1 2.45-28.37.06-.2.05-.42.04-.63-.59-10.15-1.16-20.29-1.77-30.99z" fill="#010100"/></svg>