<svg enable-background="new 0 0 400 400" viewBox="0 0 400 400" xmlns="http://www.w3.org/2000/svg"><path d="m385.2 377.6.6-.7c.6.4 1.3.9 1.9 1.5l-.6.7c-.8-.5-1.4-1-1.9-1.5zm.3 7.1c.6-1.4 1.1-2.9 1.5-4.5.3.1.6.3.9.4-.5 1.4-1 2.9-1.5 4.4zm.2-10.1.6-.6c.7.5 1.3 1.1 1.9 1.6l-.7.7c-.6-.6-1.2-1.2-1.8-1.7zm8.4-.8h.8v.9h1.8v.7h-1.8v1.8h-.8v-.3h-1.2v.9h3.3v2.6h-.8v-.4h-2.5c0 .3 0 .6-.1.8h3.4v.7h-3.5c0 .3-.1.6-.1.8h4v.7h-3.5c.7.9 1.9 1.3 3.6 1.5-.2.2-.4.5-.6.9-1.9-.3-3.2-1.1-3.8-2.3-.5 1.1-1.8 2-3.9 2.4-.2-.3-.4-.5-.6-.8 1.9-.4 3.1-.9 3.6-1.7h-3.2v-.7h3.5c.1-.2.1-.5.2-.8h-3.3v-.7h3.4c0-.2 0-.5 0-.8h-2.4v.3h-.8v-2.6h3.3v-.9h-1.2v.3h-.8v-1.8h-1.8v-.7h1.8v-.9h.8v.9h3.2zm-4.4 5.5h2.4c0-.3 0-.6 0-.9h-2.4zm1.2-3.1h3.2v-.8h-3.2zm4.4 2.2h-2.4v.9h2.5v-.9z" fill="#fcfafa"/><path d="m389.2 385.8h.9v1.5h1.9v-1.5h.9v1.5h2.7v6h1.1v.9h-11.3v-.9h1.1v-6h2.7zm.2 8.7.5.8c-1.2.6-2.5 1.3-4 1.9-.2-.3-.3-.6-.6-.8 1.6-.6 3-1.3 4.1-1.9zm-2-4.3h1.9v-2.1h-1.9zm0 3.1h1.9v-2.2h-1.9zm2.7-3.1h1.9v-2.1h-1.9zm0 3.1h1.9v-2.2h-1.9zm2.4 1.3c1.4.6 2.7 1.2 4.1 1.8l-.5.9c-1.5-.7-2.8-1.4-4.1-1.9zm2.2-6.5h-1.9v2.1h1.9zm-1.9 5.2h1.9v-2.2h-1.9z" fill="#fcfafa"/><path d="m202.12 366.43c-5.31-10.97-10.28-21.14-15.13-31.36-.46-.98-.33-2.28-.33-3.44-.03-7.83-.01-15.67-.01-24.06-2.09.21-4.07 0-5.72.64-5.62 2.17-11.22 4.42-16.64 7.03-7.35 3.53-14.54 7.38-21.76 11.17-1.28.67-2.38 1.72-3.5 2.66-4.06 3.39-7.85 7.16-12.18 10.15-8.83 6.1-18.03 3.53-27.08.29-.52-.19-.97-1.04-1.14-1.67-.52-1.93-.89-3.9-1.29-5.71 6.09-3.11 12.25-5.71 17.86-9.21 21.78-13.59 40.92-30.2 56.19-50.97 6.74-9.17 11.32-19.33 12.36-30.89.3-3.33-.17-5.53-3.87-6.63-23.8-7.06-31.03-41.9-22.48-58.3.81-1.54 1.89-3.07 3.19-4.21 4.38-3.85 8.9-7.54 13.39-11.26 5.81-4.83 8.04-11.27 8.17-18.55.01-.75-1.15-1.87-2-2.22-7.74-3.17-15.47-6.36-23.33-9.23-12.54-4.59-21.27-13.26-27.15-24.97-6.28-12.51-10.49-25.62-11.47-39.72-.29-4.2 3.06-3.51 5-4.79 1.94-1.27 3.1-.42 4.45 1.18 7.61 8.98 15.19 17.99 23.06 26.74 6.53 7.27 14.79 11.5 24.61 12.62 2.03.23 2.85-.48 3.46-2.23 3.04-8.65 2.65-17.36.11-25.95-3.92-13.25-2.74-25.95 3.5-38.65 4.98 3.38 9.09 7.5 10.99 13.08s2.83 11.48 4.26 17.22c.64 2.56 1.14 5.25 2.3 7.58 2.96 5.96 2.89 12 1.47 18.27-.94 4.17.05 7.06 2.77 8.33.97.45 2.55.55 3.45.07 5.23-2.8 10.63-5.43 15.38-8.92 3.42-2.51 6.04-6.18 8.8-9.52 2.63-3.18 4.94-6.62 7.46-9.9 3.33-4.33 7.75-7.2 12.9-8.84.86-.27 2.46.23 3.05.94 3.22 3.83 4.11 8.37 2.79 13.14-1.43 5.2-3.14 10.33-4.94 15.42-.51 1.44-1.76 2.61-2.62 3.93-8.66 13.32-22.24 20.92-34.65 29.88-.95.68-1.88 1.38-2.86 2.01-12.52 7.95-12.96 19.63-9.79 31.31.39 1.45 2.31 2.59 3.7 3.66 9.42 7.27 16.28 16.31 19.32 27.96 1.61 6.17 1.43 12.4.03 18.58-.26 1.14-.97 2.39-1.86 3.14-9.43 8.05-14.18 18.48-14.83 30.6-.36 6.81.44 13.7 1.05 20.53.14 1.53 1.33 3.35 2.59 4.32 13.32 10.33 28.22 17.92 43.54 24.76 10.95 4.89 21.84 9.93 31.21 17.55 3.96 3.22 7.39 7.11 11.4 11.03-13.29 6.81-25.53 7.26-37.78.06-6.74-3.96-13.3-8.48-20.5-11.33-6.58-2.6-13.88-3.41-20.91-4.78-3.09-.6-4.55 1.85-5.65 4.18-3.02 6.39-2.79 13.19-2.2 19.97.87 9.85.63 19.54-4.26 28.48-1.58 2.83-3.6 5.43-5.88 8.83z" fill="#010100"/></svg>