<svg enable-background="new 0 0 400 400" viewBox="0 0 400 400" xmlns="http://www.w3.org/2000/svg"><path d="m385.2 377.6.6-.7c.6.4 1.3.9 1.9 1.5l-.6.7c-.8-.5-1.4-1-1.9-1.5zm.3 7.1c.6-1.4 1.1-2.9 1.5-4.5.3.1.6.3.9.4-.5 1.4-1 2.9-1.5 4.4zm.2-10.1.6-.6c.7.5 1.3 1.1 1.9 1.6l-.7.7c-.6-.6-1.2-1.2-1.8-1.7zm8.4-.8h.8v.9h1.8v.7h-1.8v1.8h-.8v-.3h-1.2v.9h3.3v2.6h-.8v-.4h-2.5c0 .3 0 .6-.1.8h3.4v.7h-3.5c0 .3-.1.6-.1.8h4v.7h-3.5c.7.9 1.9 1.3 3.6 1.5-.2.2-.4.5-.6.9-1.9-.3-3.2-1.1-3.8-2.3-.5 1.1-1.8 2-3.9 2.4-.2-.3-.4-.5-.6-.8 1.9-.4 3.1-.9 3.6-1.7h-3.2v-.7h3.5c.1-.2.1-.5.2-.8h-3.3v-.7h3.4c0-.2 0-.5 0-.8h-2.4v.3h-.8v-2.6h3.3v-.9h-1.2v.3h-.8v-1.8h-1.8v-.7h1.8v-.9h.8v.9h3.2zm-4.4 5.5h2.4c0-.3 0-.6 0-.9h-2.4zm1.2-3.1h3.2v-.8h-3.2zm4.4 2.2h-2.4v.9h2.5v-.9z" fill="#fcfafa"/><path d="m389.2 385.8h.9v1.5h1.9v-1.5h.9v1.5h2.7v6h1.1v.9h-11.3v-.9h1.1v-6h2.7zm.2 8.7.5.8c-1.2.6-2.5 1.3-4 1.9-.2-.3-.3-.6-.6-.8 1.6-.6 3-1.3 4.1-1.9zm-2-4.3h1.9v-2.1h-1.9zm0 3.1h1.9v-2.2h-1.9zm2.7-3.1h1.9v-2.1h-1.9zm0 3.1h1.9v-2.2h-1.9zm2.4 1.3c1.4.6 2.7 1.2 4.1 1.8l-.5.9c-1.5-.7-2.8-1.4-4.1-1.9zm2.2-6.5h-1.9v2.1h1.9zm-1.9 5.2h1.9v-2.2h-1.9z" fill="#fcfafa"/><g fill="#010100"><path d="m258.73 335.67c-5.57.55-11.12 1.32-16.7 1.62-11.72.63-23.46 1.47-35.19 1.36-8.13-.08-16.27-1.51-23.2-6.56-4.14-3.02-7.18-6.88-9.22-11.52-.38-.88-.4-2.04-.23-3.01.86-4.8 1.73-9.59 2.84-14.34.31-1.33 1.18-2.73 2.19-3.67 7.98-7.44 17.14-12.17 28.29-12.96 8.34-.59 16.61-2.16 24.95-2.77 6.64-.48 13.35.08 20-.26 12.15-.62 17.41-10.83 15.26-22.31-.13-.68-.57-1.4-1.06-1.91-4.27-4.4-8.49-8.85-12.92-13.08-4.06-3.87-8.4-7.45-12.58-11.21-8.35-7.52-11.41-17.57-13.29-28.14-1.53-8.6-2.94-17.22-4.45-26.15-2.2.68-5.16 1.43-8 2.48-18.05 6.71-36.05 13.56-54.13 20.19-2.88 1.06-4.35 3.01-5 5.62-1.09 4.38-3.63 7.77-6.38 11.18-1.4 1.74-2.19 4-3.18 6.06-1.26 2.64-2.14 5.52-3.72 7.95-3.12 4.8-6.33 9.48-8.02 15.05-.86 2.82-2.66 4.81-6.27 4.57-.47-2.24-1-4.49-1.36-6.77-.1-.61.21-1.37.54-1.94 1.1-1.96 2.41-3.81 3.41-5.81 2.65-5.28 5.26-10.59 7.75-15.95 1.77-3.82 3.38-7.73 4.93-11.64.41-1.04.36-2.25.57-3.66-4.94-.64-9.19.98-13.45 2.49-9.16 3.24-18.27 6.65-27.51 9.65-3.89 1.26-5.15.33-6.91-3.45.81-.4 1.59-.87 2.44-1.19 16.43-6.21 32.89-12.37 49.29-18.66 1.33-.51 2.6-1.78 3.4-3.01 13.57-20.89 27.01-41.85 40.61-62.71 2.12-3.25 4.92-6.04 7.38-9.07 2.24-2.76 4.44-5.57 6.67-8.34.52-.65 1.04-1.35 1.71-1.83 5.85-4.2 11.68-8.43 17.62-12.5 3.7-2.53 4.37-4.31 2.64-8.56-.44-1.08-.89-2.15-1.33-3.23-1.79-4.35-2.39-4.78-7.08-3.85-2.37.47-4.65 1.4-6.93 2.25-5.05 1.9-10.14 3.71-15.07 5.9-2.67 1.18-4.97 3.19-7.58 4.56-1.6.84-3.45 1.55-5.23 1.65-4.32.23-8.65.08-13.1.08 0-3.6-.73-7.18.27-10.2.61-1.86 3.7-3.21 5.94-4.16 2.15-.91 4.77-.68 6.96-1.53 8.69-3.35 17.3-6.92 25.93-10.43.88-.36 1.78-.72 2.58-1.21 3.59-2.23 3.65-4.13.68-6.96-6.67-6.34-14.51-10.97-22.27-15.75-3.42-2.11-6.72-4.43-9.95-6.83-2.42-1.8-2.7-2.83-2.26-6.46 18.69 4.92 34.3 14.49 48.22 28.61 6.44-2.27 13.61-4.71 20.72-7.34 7.14-2.64 14.11-5.74 21.32-8.15 4.83-1.61 8.49 2.11 7.52 7.18-.15.81-.9 1.76-1.63 2.16-3.42 1.87-6.78 3.99-10.43 5.25-5.87 2.03-11.34 4.58-16.28 8.41-2.49 1.93-5.35 3.4-8.07 5.02-1.97 1.17-2.81 2.63-2.05 4.97.91 2.8 1.59 5.67 2.42 8.68 1.02-.19 1.86-.25 2.63-.51 7.81-2.58 15.95-2.84 23.92-2.04 13.77 1.39 23.93 8.94 28.77 21.79 1.66 4.39.11 10.42-1.19 15.38-1.39 5.29-4.8 9.69-8.84 13.69-9.97 9.87-20.13 19.44-32.55 26.21-3.98 2.17-7.97 4.36-12.12 6.17-5.1 2.22-6.5 4.07-6.62 9.52-.05 2.3-.3 4.66-.88 6.88-.8 3.05-.94 5.95-.13 9.04 1.1 4.19 1.73 8.51 2.76 12.73 1.49 6.09 3.3 12.03 8.25 16.44 1.57 1.4 2.79 3.19 4.18 4.79 4.02 4.63 8.12 9.02 13.21 12.69 4.45 3.21 7.93 7.87 11.5 12.17 2.24 2.69 3.61 5.94 3.33 9.7-.08 1.09.32 2.34.86 3.32 1.42 2.6.72 4.87-.73 7.12-.8 1.25-1.88 2.42-2.28 3.79-1.92 6.57-7.24 9.01-12.96 11.01-11.13 3.9-22.62 4.05-34.23 3.54-11.57-.51-22.77.98-33.12 6.9-7.76 4.45-10.98 11.19-8.81 19.83.1.39.27.84.55 1.1 7.21 6.78 14.44 12.73 25.67 11.09 11.82-1.73 23.84-2.11 35.76-3.18 4.88-.44 9.71-.39 14.46-2.67 2.82-1.35 6.85-.78 10.19-.24 3.22.53 4.82 6.13 3.41 9.12-4.47 9.47-11.81 16.42-19.7 22.92-4.27 3.51-9.33 4.86-14.65 5.52-.95.12-1.92.14-2.84.37-19.44 4.96-38.39 1.17-57.31-3.2-8.55-1.98-15.87-6.8-23.8-10.22-5.36-2.32-5.35-7.58-6.05-12.96 3.01.96 5.97.98 7.46 4.19.36.79 1.16 1.54 1.95 1.93 11.08 5.52 21.96 11.73 34.61 12.87 9.15.83 18.41 1.96 27.52 1.39 6.48-.4 12.73-3.66 19.2-5.19 5.57-1.32 9.28-5.42 13.51-8.58 1.88-1.4 2.16-4.94 3.17-7.5-.37-.26-.72-.52-1.08-.78zm-92.55-145.5c.3.26.6.52.91.78 4.88-1.69 9.9-3.04 14.61-5.12 14.41-6.35 28.72-12.94 43.01-19.56.87-.4 1.65-1.77 1.82-2.79.93-5.63 1.76-11.28 2.41-16.94.57-4.93.94-9.89 1.24-14.84.28-4.61.47-9.24.45-13.85-.01-1.93-.65-3.85-1.07-6.12-1.67.85-2.53 1.25-3.36 1.71-.93.51-1.86 1.02-2.74 1.6-9.57 6.33-17.24 14.65-24.35 23.52-1.9 2.37-3.39 5.08-5.04 7.66-1.74 2.72-3.16 5.72-5.25 8.13-4.49 5.19-9.17 10.04-12 16.58-2.32 5.35-6.07 10.07-9.08 15.14-.73 1.23-1.05 2.72-1.56 4.1zm73.94-34.02c4.59.23 7.62-1.35 10.53-3.39 3.79-2.66 7.37-5.83 11.52-7.71 8.46-3.84 15.21-9.56 20.67-16.86 5.62-7.53 7.45-17.26-2.53-23.2-7.68-4.57-15.97-7.19-24.91-7.62-4.34-.21-9.35 2.15-9.73 5.03-.82 6.11-3.35 11.89-2.73 18.32.55 5.66.31 11.43.04 17.14-.16 3.44-1.03 6.84-1.58 10.26-.42 2.55-.82 5.1-1.28 8.03z"/><path d="m212.48 137.88c4.4 2.32 4.76 7.74 1.5 12.28-2.49 3.48-5.14 7.17-6.38 11.18-2.27 7.36-6.19 9.9-14.88 8.08 0-3.15-.04-6.4.04-9.65.01-.56.36-1.27.79-1.63 6.66-5.49 11.95-12.24 17.37-18.87.41-.47.95-.84 1.56-1.39z"/><path d="m267.8 130.46c-.74 3.42-3.94 4.19-6.49 5.13-1.71.63-4.58.52-5.84-.55-3.2-2.7-3.28-12.02-.92-15.63 1.13-1.73 1.68-3.82 2.59-5.71.71-1.48 1.7-1.63 3.34-1.01 3.37 1.27 5.42 3.13 5.67 7 .23 3.56 1.06 7.08 1.65 10.77z"/></g></svg>