<svg enable-background="new 0 0 400 400" viewBox="0 0 400 400" xmlns="http://www.w3.org/2000/svg"><path d="m385.2 377.6.6-.7c.6.4 1.3.9 1.9 1.5l-.6.7c-.8-.5-1.4-1-1.9-1.5zm.3 7.1c.6-1.4 1.1-2.9 1.5-4.5.3.1.6.3.9.4-.5 1.4-1 2.9-1.5 4.4zm.2-10.1.6-.6c.7.5 1.3 1.1 1.9 1.6l-.7.7c-.6-.6-1.2-1.2-1.8-1.7zm8.4-.8h.8v.9h1.8v.7h-1.8v1.8h-.8v-.3h-1.2v.9h3.3v2.6h-.8v-.4h-2.5c0 .3 0 .6-.1.8h3.4v.7h-3.5c0 .3-.1.6-.1.8h4v.7h-3.5c.7.9 1.9 1.3 3.6 1.5-.2.2-.4.5-.6.9-1.9-.3-3.2-1.1-3.8-2.3-.5 1.1-1.8 2-3.9 2.4-.2-.3-.4-.5-.6-.8 1.9-.4 3.1-.9 3.6-1.7h-3.2v-.7h3.5c.1-.2.1-.5.2-.8h-3.3v-.7h3.4c0-.2 0-.5 0-.8h-2.4v.3h-.8v-2.6h3.3v-.9h-1.2v.3h-.8v-1.8h-1.8v-.7h1.8v-.9h.8v.9h3.2zm-4.4 5.5h2.4c0-.3 0-.6 0-.9h-2.4zm1.2-3.1h3.2v-.8h-3.2zm4.4 2.2h-2.4v.9h2.5v-.9z" fill="#fcfafa"/><path d="m389.2 385.8h.9v1.5h1.9v-1.5h.9v1.5h2.7v6h1.1v.9h-11.3v-.9h1.1v-6h2.7zm.2 8.7.5.8c-1.2.6-2.5 1.3-4 1.9-.2-.3-.3-.6-.6-.8 1.6-.6 3-1.3 4.1-1.9zm-2-4.3h1.9v-2.1h-1.9zm0 3.1h1.9v-2.2h-1.9zm2.7-3.1h1.9v-2.1h-1.9zm0 3.1h1.9v-2.2h-1.9zm2.4 1.3c1.4.6 2.7 1.2 4.1 1.8l-.5.9c-1.5-.7-2.8-1.4-4.1-1.9zm2.2-6.5h-1.9v2.1h1.9zm-1.9 5.2h1.9v-2.2h-1.9z" fill="#fcfafa"/><path d="m150.04 365.66c.75-1.87.89-3.72 1.88-4.46 7.22-5.4 11.27-12.98 15.38-20.72 4.4-8.3 9.53-16.21 14.34-24.28.65-1.09 1.43-2.12 1.92-3.28 1.95-4.55 1.54-5.6-2.78-7.9-6.92-3.68-13.88-7.3-20.73-11.09-1.14-.63-2.29-1.9-2.68-3.12-3.85-11.99-7.57-24.03-11.25-36.07-.41-1.36-.63-2.93-.39-4.31 1.96-11.16 3.99-22.31 6.19-33.43.25-1.26 1.5-2.93 2.65-3.3 10.36-3.36 20.7-6.84 31.24-9.52 6.83-1.73 11.7-4.37 11.67-12.23 0-.93.37-1.86.58-2.79 1.09-4.91-2.63-8.43-7.59-7.04-2.02.57-3.95 1.52-5.84 2.47-8.53 4.26-17.14 8.37-25.48 12.95-4.17 2.29-8.21 3.13-12.69 1.79-2.62-.78-4.92-.23-7.3.97-4.88 2.46-9.86 4.7-15.38 7.3.57-4.54 1-8.41 1.58-12.27.08-.54.79-1.36 1.28-1.42 11.64-1.31 19.64-9.06 27.94-16.04 5.08-4.27 9.67-9.19 14.15-14.11 3.88-4.26 3.63-9.34 1.26-14.26-1.56-3.23-3.33-6.41-5.4-9.34-3.66-5.17-2.83-11.18-3.46-16.88-.81-7.33-.91-7.65-8.2-9.03-9.11-1.73-18.16-.35-27.24.24-8.63.56-16.75-.74-23.1-7.37-.99-1.03-1.78-2.25-3.01-3.84 7.12-.61 13.65-1.05 20.15-1.76 10.94-1.19 21.85-2.62 32.79-3.81 2.91-.32 4.12-1.79 3.92-4.48-.64-8.65-1.48-17.28-2.06-25.93-.3-4.52-.62-9.09-.24-13.59.4-4.72 2.82-8.6 7.28-11.28 3.8 4.09 6.48 8.87 7.78 14.22 2.75 11.31 5.24 22.69 7.61 34.1.5 2.43 1.48 4.06 3.78 4.41 7.5 1.14 15.01 2.5 22.57 2.97 7.71.47 15.47 0 23.21-.1 4.02-.05 6.72-2.25 6.52-6.34-.68-13.79 2.53-27.17 3.87-40.75.51-5.15 1.3-10.28 1.96-15.37 9.43-.67 17.07 6.51 16.25 15.74-.49 5.44-2.11 10.78-3.27 16.15-1.66 7.69-2.89 15.4-1.93 23.33.3 2.45 1.49 3.68 3.69 4.52 7.25 2.75 14.73 2.5 22.28 2.19 4.95-.2 9.93-.02 14.88.26 1.37.08 2.9.85 3.97 1.76 1.76 1.5 2.22 3.29-.07 4.98-2.38 1.77-4.71 3.62-7 5.51-4.69 3.87-10.4 3.08-15.82 3.46-5.71.39-11.43.45-17.15.68-4.44.18-5.98 1.56-6.74 5.85-1.77 10-3.53 20-5.38 29.98-.88 4.77-1.95 9.51-3 14.56 3.59 1.51 7.07 2.99 10.56 4.45 10.07 4.19 20.14 8.36 30.21 12.56 4.17 1.74 4.56 6.97 1.57 10.23-5.76 6.29-11.83 6.95-19.67 3.99-9.58-3.62-19.66-5.88-29.48-8.9-2.7-.83-4.99-.44-7.21 1.01-4.73 3.09-7.27 7.62-8.06 13.09-.12.86.9 2.52 1.7 2.76 3.74 1.1 7.55 2.21 11.4 2.64 16.91 1.9 28.42 13.19 30.6 30.32 1.21 9.53-.45 18.85-2.42 28.06-1.56 7.33-3.86 14.51-6 21.7-.39 1.31-1.32 2.77-2.44 3.51-6 3.96-12.14 7.7-18.23 11.52-3.22 2.02-6.46 4.03-9.66 6.1-4.15 2.68-5.32 6.57-3.62 11.01 2.11 5.51 4.37 10.99 7.07 16.23 4.3 8.35 5.78 17.02 3.84 26.15-.37 1.72-1.79 3.57-3.26 4.61-2.05 1.45-3.84 1.03-5.13-1.79-6.16-13.48-12.56-26.85-18.88-40.26-1.48-3.14-3.9-3.5-5.78-.57-3.65 5.7-6.91 11.65-10.6 17.32-3.69 5.65-7.23 11.52-11.7 16.52-6.08 6.78-14.45 8.71-24.2 8.86zm80.41-248.93c-5.88-1.18-11.51-2.9-17.23-3.28-5.87-.39-11.87.25-17.74 1-3.93.5-7.77 1.85-11.55 3.12-.83.28-1.8 1.88-1.75 2.82.76 13.12 3.37 25.44 14.69 34.09 1.66 1.27 3.1 1.65 5.11 1.67 7.3.07 13.5-3.22 19.81-6.16.94-.44 1.86-1.73 2.09-2.78 2.23-9.91 4.31-19.85 6.57-30.48zm-37.81 101.47c-2.42.2-4.7-.13-6.54.63-6.24 2.57-12.37 5.43-18.43 8.41-1.11.55-2.02 2.07-2.44 3.34-2.44 7.37 1.43 13.75 3.2 20.83 8.93-2.04 17.52-4 26.22-5.98-.67-9.1-1.32-17.83-2.01-27.23zm31.98 29.07c5.94.78 11.88.95 17.35-1.92.92-.49 1.89-2.01 1.86-3.02-.26-7.77-3.29-14.05-10.18-18.22-5.22-3.16-10.91-4.49-16.89-4.67-.81-.02-2 .94-2.42 1.76-3.94 7.57-3.85 15.39-1.27 23.36.66 2.04 1.83 2.85 3.96 2.74 2.52-.13 5.06-.03 7.59-.03zm-32.09 37.55c.12-4.15.53-8.03.21-11.85-.14-1.62-1.47-3.66-2.87-4.54-6.59-4.17-19.48-2.87-25.99 2.64 1.65 3.88 3.26 7.98 5.17 11.93.43.88 1.93 1.73 2.96 1.75 6.54.14 13.09.07 20.52.07zm21.93.14c1.72-.18 2.73-.09 3.6-.41 6.83-2.47 13.64-5 20.43-7.59.59-.22 1.08-.99 1.38-1.62 2-4.2.27-8.13-4.49-8.81-6.16-.89-12.42-1.1-18.65-1.49-.68-.04-1.72.46-2.05 1.02-2.83 4.86-4.68 9.97-3.32 15.73.49 2.03 1.27 3.69 3.1 3.17z" fill="#010100"/></svg>