<svg enable-background="new 0 0 400 400" viewBox="0 0 400 400" xmlns="http://www.w3.org/2000/svg"><path d="m385.2 377.6.6-.7c.6.4 1.3.9 1.9 1.5l-.6.7c-.8-.5-1.4-1-1.9-1.5zm.3 7.1c.6-1.4 1.1-2.9 1.5-4.5.3.1.6.3.9.4-.5 1.4-1 2.9-1.5 4.4zm.2-10.1.6-.6c.7.5 1.3 1.1 1.9 1.6l-.7.7c-.6-.6-1.2-1.2-1.8-1.7zm8.4-.8h.8v.9h1.8v.7h-1.8v1.8h-.8v-.3h-1.2v.9h3.3v2.6h-.8v-.4h-2.5c0 .3 0 .6-.1.8h3.4v.7h-3.5c0 .3-.1.6-.1.8h4v.7h-3.5c.7.9 1.9 1.3 3.6 1.5-.2.2-.4.5-.6.9-1.9-.3-3.2-1.1-3.8-2.3-.5 1.1-1.8 2-3.9 2.4-.2-.3-.4-.5-.6-.8 1.9-.4 3.1-.9 3.6-1.7h-3.2v-.7h3.5c.1-.2.1-.5.2-.8h-3.3v-.7h3.4c0-.2 0-.5 0-.8h-2.4v.3h-.8v-2.6h3.3v-.9h-1.2v.3h-.8v-1.8h-1.8v-.7h1.8v-.9h.8v.9h3.2zm-4.4 5.5h2.4c0-.3 0-.6 0-.9h-2.4zm1.2-3.1h3.2v-.8h-3.2zm4.4 2.2h-2.4v.9h2.5v-.9z" fill="#fcfafa"/><path d="m389.2 385.8h.9v1.5h1.9v-1.5h.9v1.5h2.7v6h1.1v.9h-11.3v-.9h1.1v-6h2.7zm.2 8.7.5.8c-1.2.6-2.5 1.3-4 1.9-.2-.3-.3-.6-.6-.8 1.6-.6 3-1.3 4.1-1.9zm-2-4.3h1.9v-2.1h-1.9zm0 3.1h1.9v-2.2h-1.9zm2.7-3.1h1.9v-2.1h-1.9zm0 3.1h1.9v-2.2h-1.9zm2.4 1.3c1.4.6 2.7 1.2 4.1 1.8l-.5.9c-1.5-.7-2.8-1.4-4.1-1.9zm2.2-6.5h-1.9v2.1h1.9zm-1.9 5.2h1.9v-2.2h-1.9z" fill="#fcfafa"/><path d="m85.21 344.19c1.7-.25 3.5-.14 4.96-.8 3.41-1.54 6.83-1.8 10.49-1.32 10.49 1.35 21.14 1.56 31.33 4.85 2.88.93 4.44-.16 4.94-3.13.54-3.25.01-6.18-3.19-7.92-4.08-2.23-8.28-4.26-12.3-6.6-6.85-3.98-13.64-8.08-20.39-12.24-2.47-1.53-2.84-3.98-2.33-6.68 8.66 1.04 16.36 4.15 23.73 8.22 4.45 2.45 8.82 5.08 13.44 7.16 5.42 2.44 10.7 1.23 13.61-2.51 2.6-3.34 2.28-6.99-.81-9.9-10.33-9.75-20.67-19.48-30.92-29.31-1.28-1.23-2.02-3.02-2.7-4.88 4.65.3 9.13-.73 12.45 4.18 2.2 3.25 6.17 5.35 9.46 7.8 5.51 4.1 11.11 8.06 16.68 12.09 1.03.74 2.01 1.57 3.09 2.22 2.53 1.53 4.37 1.35 6.3-1.45 10.46-15.19 21.07-30.28 31.79-45.28 2.94-4.11 6.5-7.77 9.69-11.71 6.53-8.07 13.28-15.99 19.4-24.36 3.8-5.2 4.56-11.2 2.87-17.79-1.75-6.84-2.28-13.99-3.45-20.98-1.51-9.09-2.82-18.22-4.78-27.22-1.47-6.77-3.69-13.38-5.85-19.98-.65-1.98-2.21-3.66-3.68-5.98-1.17 1.55-1.86 2.43-2.52 3.33-10.15 13.81-22.8 24.36-39.06 30.37-4.85 1.8-9.54 4.07-14.25 6.23-9.8 4.48-21.9-1.44-24.65-11.97-1.83-7.03-3.11-14.21-4.46-21.36-.2-1.05.58-2.28.9-3.43 1.4.49 3.02.68 4.15 1.52 3.68 2.76 5.56 6.33 6.24 11.16.59 4.24 2.83 8.39 4.93 12.25 2.09 3.85 7.11 5.04 10.85 2.91 1-.57 1.87-2.14 2.01-3.33 1.03-9.03 1.87-18.09 2.73-27.14.1-1.05.06-2.12-.01-3.18-.48-7.13.32-7.71-8.18-9.52-5.76-1.22-11.79-1.12-17.69-1.68-3.9-.37-7.79-.8-11.67-1.35-3.08-.43-5.61-1.81-7.25-5.52 2.61-.53 5-1.46 7.39-1.43 24.99.24 50.01-.13 74.78 4.17 2.48.43 5.08.41 7.6.28 3.68-.18 4.95-1.69 3.74-5.17-1.81-5.17-3.95-10.26-6.36-15.18-3.2-6.54-7.58-12.61-10.05-19.39-4.4-12.09-5.61-24.73-2.87-38.25 3.78 3.19 7.2 6.06 10.61 8.96.73.62 1.35 1.35 2.08 1.96 8.82 7.36 12.67 17.04 13.22 28.26.01.21-.05.46.04.63 4.05 7.22 2.46 15.56 4.58 23.17 1.07 3.86 1.67 7.85 2.44 11.79.61 3.14 3.13 4.35 5.63 4.07 13.19-1.45 25.81 3.01 38.81 3.44 4.87.16 5.58-.23 5.34-5.1-.09-1.87.28-3.77.41-5.66.47-6.42 1.13-12.83 1.33-19.25.23-7.57.89-11.39 4.15-18.72 3.5.86 5.78 3.12 6.62 6.51 1.82 7.38 3.69 14.78 5 22.26 1.08 6.14 1.51 12.41 1.95 18.64.15 2.12.99 2.85 2.86 3.38 4.27 1.2 8.54 2.44 12.68 4 3.9 1.46 6.22 4.55 7.43 8.63-4 2.52-8.23 1.6-12.41 1.24-1.37-.12-2.73-.37-4.1-.45-5.63-.32-6.9.64-7.5 6.27-.31 2.94-.15 5.93-.17 8.9-.02 2.43-.25 4.78-2.96 5.74-2.68.95-7.69-.51-8.91-2.62-3.27-5.65-7.2-11.05-6.63-18.14.23-2.87-1.99-3.62-4.16-3.77-11.62-.77-23.25-1.43-34.87-2.08-4.2-.24-5.68 1.55-3.98 5.28 7.28 15.97 8.69 33.3 11.9 50.22 2.4 12.6 4.35 25.25 4.89 38.11.13 3.13-.62 5.49-2.5 7.83-10.37 12.91-21.31 25.26-33.87 36.13-1.74 1.5-3.23 3.36-4.55 5.26-8.63 12.45-16.64 25.35-27.26 36.31-2.52 2.6-4.34 5.74-4.27 9.64.03 1.99.8 3.12 2.54 4.29 5.88 3.95 11.64 8.11 17.22 12.48 1.42 1.11 2.23 3.2 2.91 5 1.36 3.63 2.35 7.4 3.67 11.04.96 2.64-1.28 9.88-3.8 11.12-4.71 2.31-9.33 5.82-14.27 6.37-5.76.65-11.83-1.19-17.73-2.2-5.39-.93-10.79-1.97-16.07-3.39-5.09-1.37-9.94-3.7-15.06-4.86-6.68-1.51-13.55-2.15-20.29-3.42-7.16-1.35-14.29-2.89-21.38-4.56-2.46-.61-2.4-.9-1.7-3.51zm99.38 4.18c.06-8.68-11.7-21.55-20.51-22.41-.57-.06-1.36-.02-1.73.32-5.9 5.5-11.71 11.12-13.21 19.53-.32 1.78.18 3.75.57 5.57.13.61 1 1.33 1.67 1.52 6.09 1.7 12.21 3.3 18.33 4.91 6 1.59 15.96-2.65 14.88-9.44zm12.4-223.91c-8.36-.93-16.83-1.93-25.33-2.77-1.19-.12-2.5.4-3.66.86-.54.21-1.14.97-1.2 1.54-.41 3.88-.89 7.78-.96 11.68-.07 4.22.55 4.65 4.68 4.71 1.69.02 3.45-.3 5.06.06 6.95 1.55 11.84-1.38 16.18-6.51 2.4-2.83 5.46-5.06 5.23-9.57zm-32.92 30.15c.4.15.8.31 1.2.46 3.01-1.5 6.04-2.95 9-4.55.62-.33 1.38-1.29 1.29-1.83-.12-.75-.87-1.74-1.57-1.98-2.36-.81-4.83-1.34-7.83-2.12-.75 3.54-1.42 6.78-2.09 10.02z" fill="#010100"/></svg>