<svg enable-background="new 0 0 400 400" viewBox="0 0 400 400" xmlns="http://www.w3.org/2000/svg"><path d="m385.2 377.6.6-.7c.6.4 1.3.9 1.9 1.5l-.6.7c-.8-.5-1.4-1-1.9-1.5zm.3 7.1c.6-1.4 1.1-2.9 1.5-4.5.3.1.6.3.9.4-.5 1.4-1 2.9-1.5 4.4zm.2-10.1.6-.6c.7.5 1.3 1.1 1.9 1.6l-.7.7c-.6-.6-1.2-1.2-1.8-1.7zm8.4-.8h.8v.9h1.8v.7h-1.8v1.8h-.8v-.3h-1.2v.9h3.3v2.6h-.8v-.4h-2.5c0 .3 0 .6-.1.8h3.4v.7h-3.5c0 .3-.1.6-.1.8h4v.7h-3.5c.7.9 1.9 1.3 3.6 1.5-.2.2-.4.5-.6.9-1.9-.3-3.2-1.1-3.8-2.3-.5 1.1-1.8 2-3.9 2.4-.2-.3-.4-.5-.6-.8 1.9-.4 3.1-.9 3.6-1.7h-3.2v-.7h3.5c.1-.2.1-.5.2-.8h-3.3v-.7h3.4c0-.2 0-.5 0-.8h-2.4v.3h-.8v-2.6h3.3v-.9h-1.2v.3h-.8v-1.8h-1.8v-.7h1.8v-.9h.8v.9h3.2zm-4.4 5.5h2.4c0-.3 0-.6 0-.9h-2.4zm1.2-3.1h3.2v-.8h-3.2zm4.4 2.2h-2.4v.9h2.5v-.9z" fill="#fcfafa"/><path d="m389.2 385.8h.9v1.5h1.9v-1.5h.9v1.5h2.7v6h1.1v.9h-11.3v-.9h1.1v-6h2.7zm.2 8.7.5.8c-1.2.6-2.5 1.3-4 1.9-.2-.3-.3-.6-.6-.8 1.6-.6 3-1.3 4.1-1.9zm-2-4.3h1.9v-2.1h-1.9zm0 3.1h1.9v-2.2h-1.9zm2.7-3.1h1.9v-2.1h-1.9zm0 3.1h1.9v-2.2h-1.9zm2.4 1.3c1.4.6 2.7 1.2 4.1 1.8l-.5.9c-1.5-.7-2.8-1.4-4.1-1.9zm2.2-6.5h-1.9v2.1h1.9zm-1.9 5.2h1.9v-2.2h-1.9z" fill="#fcfafa"/><path d="m228.19 34.68c5.86 3.17 11.25 5.54 15.97 8.85 2.93 2.05 4.89 5.5 7.25 8.35 2.02 2.44 3.48 2.69 5.66.43 5.66-5.87 12.79-9.34 20.13-12.42 5.09-2.13 5.56-1.95 11.2 1.6-1.14 2.07-2.02 4.45-3.56 6.26-2.72 3.22-3.85 6.94-4.82 10.89-.95 3.87-2.24 7.69-3.71 11.4-3.84 9.73-7.84 19.4-11.83 29.07-.78 1.9-.39 3.01 1.15 4.58 2.91 2.99 5.31 6.49 7.82 9.86 2.96 3.99 5.84 8.04 8.71 12.1 11.15 15.77 15.97 33.22 13.9 52.49-.13 1.25-.44 2.7.02 3.77 2.22 5.19.49 10.02-1.17 14.8-5.25 15.14-12.92 28.94-23.14 41.33-1.98 2.4-3.23 5.4-4.9 8.06-.54.86-1.26 1.68-2.08 2.28-4.95 3.65-9.97 7.19-14.92 10.84-4.42 3.25-7.69 7.31-8.33 12.97-.14 1.2 0 2.59.49 3.68 2.03 4.54 3.73 9.34 6.49 13.42 5.05 7.47 8.38 15.88 13.94 23.12 5.24 6.83 9.12 14.74 13.28 22.35 1.53 2.8 2.15 6.11 3.16 9.1-4.74 2.44-8.54 1.68-12.1-2.21-5.58-6.1-11.03-12.33-16.71-18.33-2.61-2.76-5.63-5.13-10.08-5.58-1.33 7.18-2.56 14.24-3.95 21.28-.76 3.85-2.23 7.34-6.27 8.94-3.48 1.37-4.94.96-5.95-2.61-1.14-4.04-1.76-8.24-2.34-12.41-.31-2.18-.04-4.45-.06-6.67-.02-2.47.03-5.7-2.68-6.13-2.22-.35-5.29.78-7.06 2.32-4.37 3.83-8.21 8.26-12.27 12.45-3.61 3.73-6.99 7.74-10.92 11.11-4.65 4-6.85 8.78-7.32 14.8-.13 1.61-1.73 3.68-3.22 4.51-3.56 1.97-4.98 1.2-7.04-2.38-3.73-6.48-4.88-13.69-6.24-20.88-2.98-15.76-5.7-31.57-10.1-47.06-1.47-5.19-.97-10.91-1.81-16.32-1.31-8.45-3.26-16.81-4.44-25.28-1-7.19-1.31-14.49-1.88-21.74-.49-6.27.06-12.14 3.32-17.96 2.58-4.61 3.55-10.14 5.13-15.29.26-.85.32-2.01-.06-2.75-3.75-7.25-8.92-13.29-16.65-16.3-7.43-2.89-12.33 1.03-13.02 9.34-.43 5.13.4 10.35-1.76 15.31-.31.72.15 1.84.41 2.72 1.67 5.6 3.88 10.99 7.55 15.6 3.06 3.84 1.88 7.52-.11 11.13-.47.86-2.08 1.63-3.1 1.56-5.85-.41-11.13-1.89-14.5-7.47-9.86-16.37-12.52-34.14-9.45-52.65 1.22-7.32 4.45-14.32 6.98-21.39.82-2.29.57-3.98-1.04-5.71-2.31-2.49-4.49-5.08-6.73-7.63-5.4-6.15-5.87-13.34-4.36-20.92 1.18-5.9 1.97-11.93 3.82-17.62 1.16-3.58 3.29-7.42 6.12-9.77 6.19-5.14 13.51-7.43 21.66-4.59 2.4.84 4.79 1.79 7.26 2.31 10.98 2.28 17 10.88 23.73 18.54.65.74.31 2.36.44 3.57.23 2.13-.18 4.68.84 6.32 3.82 6.11 2.27 12.47 1.58 18.82-.1.9-.56 1.88-1.14 2.58-2.8 3.39-5.76 6.65-8.53 10.06-2.17 2.66-4.15 5.47-6.49 8.58 7.72 4.62 13.38 10.93 21.77 13.4 5.92 1.75 11.46 4.76 17.47 7.33 1.86-6.14 3.91-12.55 5.75-19.02 3.39-11.96 8.52-22.92 16.52-32.61 7.69-9.31 14.88-19.04 22.14-28.7.97-1.29 1.63-3.27 1.5-4.86-1.25-15.31-2.7-30.61-4.1-45.92-.38-4.07-.77-8.16-1.22-13zm-49.07 294.17c4.58-1.14 7.74-3.56 9.79-7.43 1.82-3.46 3.38-7.09 5.52-10.34 6.65-10.07 13.22-20.23 20.43-29.89 4.62-6.19 7.51-12.35 5.26-20.07-.45-1.53-1.01-3.28-2.09-4.32-5.73-5.5-11.65-10.8-17.48-16.21-1-.93-1.94-1.95-2.74-3.06-5-6.88-9.17-14.19-11.56-22.44-.95-3.3-2.38-6.47-3.57-9.66-5.87 1.77-9.07 4.22-10.75 9.42-3.18 9.84-6.49 19.7-8.71 29.78-1.98 8.98-2.74 18.37.54 27.3 4.54 12.39 7.47 25.1 9.4 38.11.96 6.49 2.42 12.88 5.96 18.81zm61.86-160.38c0-.07 0-.13 0-.2-7.09 0-14.18-.02-21.27.03-.69 0-1.62.14-2.02.59-4.84 5.53-11.3 9.98-11 18.73.15 4.35-.42 4.99 3.89 5.35 7.33.62 14.73.49 22.11.52 6.33.03 12.67-.15 19.01-.24 4.61-.06 9.26.23 13.83-.27 4.74-.53 6.71-3.32 6.85-8.12.11-3.91.18-7.84.51-11.74.24-2.87-1.29-4.12-3.7-4.6-1.22-.24-2.53-.04-3.79-.04-8.15-.01-16.28-.01-24.42-.01zm19.93 45.7c-.16-.35-.32-.7-.48-1.05-5.14 0-10.29-.05-15.43.01-11.06.12-22.13 2.44-33.16-.54-2.32-.63-4.34 1.4-3.55 3.7 1.39 4.03 2.79 8.25 5.18 11.7 3.3 4.75 7.51 8.88 11.36 13.24 1.86 2.11 9.03 2.37 11.08.38 6.37-6.21 12.85-12.32 18.99-18.75 2.39-2.51 4.02-5.77 6.01-8.69zm-36.81-61.2c14.94-.56 29.67-1.11 44.41-1.66 0-1.38.06-2.23-.02-3.07-.06-.62-.23-1.26-.48-1.83-4.34-10.01-11.34-17.46-21.25-22.12-1.77-.83-3.1-.56-4.52.86-4.2 4.19-8.81 8-12.74 12.41-3.67 4.13-6.4 8.94-5.4 15.41z" fill="#010100"/></svg>