<svg enable-background="new 0 0 400 400" viewBox="0 0 400 400" xmlns="http://www.w3.org/2000/svg"><path d="m385.2 377.6.6-.7c.6.4 1.3.9 1.9 1.5l-.6.7c-.8-.5-1.4-1-1.9-1.5zm.3 7.1c.6-1.4 1.1-2.9 1.5-4.5.3.1.6.3.9.4-.5 1.4-1 2.9-1.5 4.4zm.2-10.1.6-.6c.7.5 1.3 1.1 1.9 1.6l-.7.7c-.6-.6-1.2-1.2-1.8-1.7zm8.4-.8h.8v.9h1.8v.7h-1.8v1.8h-.8v-.3h-1.2v.9h3.3v2.6h-.8v-.4h-2.5c0 .3 0 .6-.1.8h3.4v.7h-3.5c0 .3-.1.6-.1.8h4v.7h-3.5c.7.9 1.9 1.3 3.6 1.5-.2.2-.4.5-.6.9-1.9-.3-3.2-1.1-3.8-2.3-.5 1.1-1.8 2-3.9 2.4-.2-.3-.4-.5-.6-.8 1.9-.4 3.1-.9 3.6-1.7h-3.2v-.7h3.5c.1-.2.1-.5.2-.8h-3.3v-.7h3.4c0-.2 0-.5 0-.8h-2.4v.3h-.8v-2.6h3.3v-.9h-1.2v.3h-.8v-1.8h-1.8v-.7h1.8v-.9h.8v.9h3.2zm-4.4 5.5h2.4c0-.3 0-.6 0-.9h-2.4zm1.2-3.1h3.2v-.8h-3.2zm4.4 2.2h-2.4v.9h2.5v-.9z" fill="#fcfafa"/><path d="m389.2 385.8h.9v1.5h1.9v-1.5h.9v1.5h2.7v6h1.1v.9h-11.3v-.9h1.1v-6h2.7zm.2 8.7.5.8c-1.2.6-2.5 1.3-4 1.9-.2-.3-.3-.6-.6-.8 1.6-.6 3-1.3 4.1-1.9zm-2-4.3h1.9v-2.1h-1.9zm0 3.1h1.9v-2.2h-1.9zm2.7-3.1h1.9v-2.1h-1.9zm0 3.1h1.9v-2.2h-1.9zm2.4 1.3c1.4.6 2.7 1.2 4.1 1.8l-.5.9c-1.5-.7-2.8-1.4-4.1-1.9zm2.2-6.5h-1.9v2.1h1.9zm-1.9 5.2h1.9v-2.2h-1.9z" fill="#fcfafa"/><g fill="#010100"><path d="m34.65 338.96c-2.5-9.43-2.06-18.64.46-27.78 3.44-12.47 4.14-25.07 1.6-37.74-1.4-7 .27-13.71 1.17-20.5 2.53-19.01 5.62-37.95 7.65-57.01.76-7.16-.74-14.57-1.29-21.86-.86-11.41-1.78-22.81-2.71-34.61 1.8-.55 3.57-1.11 5.35-1.64 81.27-24.16 162.52-48.4 243.88-72.26 5.76-1.69 12.37-.85 18.55-.55 3.5.17 5.69 2.93 6.8 6.42-9.08 6.2-18.86 10.95-29.28 14.32-15.76 5.1-32.02 7.94-48.29 10.9-9.12 1.66-17.97 4.81-26.89 7.49-48.97 14.7-97.91 29.51-146.9 44.12-3.56 1.06-5.69 3.07-6.21 6.34-.88 5.62-1.75 11.33-1.65 16.99.23 13.23 1.87 26.47 1.43 39.66-1.01 30.61-2.61 61.23-7.48 91.53-1.44 8.97-3.76 17.81-5.86 26.67-1.37 5.83-5 9.05-10.33 9.51z"/><path d="m363.54 156.24c-5.72 3.12-10.87 4.71-16.31 4.52-6.44-.22-12.86-1.12-19.3-1.48-5.7-.31-11.41-.26-17.12-.42-2.61-.07-3.26 1.23-3.46 3.69-1.16 14.79-1.78 29.67-3.98 44.31-2.58 17.15-6.39 34.17-13.2 50.27-4.33 10.25-11.14 18.47-21.58 23.16-.55.25-1.15.4-2.8.98 1.12-5.53 1.47-10.58 3.19-15.11 4.27-11.27 9.17-22.31 13.81-33.44.98-2.35 1.91-4.71 2.86-7.07 3.82-9.44 5.83-19.07 4.82-29.43-.89-9.16-.63-18.43-.94-27.65-.16-4.96-1.93-9.27-5.43-12.84-3.21-3.28-3.57-8.85-.58-12.42.58-.69 2.05-.97 3.07-.89 11.4.89 22.86 1.46 34.18 2.96 10.67 1.41 21.27 3.6 31.79 5.92 3.59.81 6.86 3.04 10.98 4.94z"/><path d="m157.73 146.76c3.75-.06 7.24.63 10.13 3.02 2.95 2.45 4.58 5.5 3.23 9.5-4.83 14.33-6.48 29.06-5.79 44.13.33 7.32-1.06 14.46-4.75 20.8-2.08 3.58-5.06 6.74-8.03 9.68-14.74 14.58-30.67 27.71-48.79 37.93-13.21 7.45-27.55 11.32-42.73 11.94-.3.01-.6-.1-.99-.16-.71-4.76-.48-8.75 3.72-12.44 4.11-3.61 8.04-6.54 13.64-7.09 16.27-1.59 29.14-10.78 42.25-19.35 12.18-7.96 21.91-18.21 29.09-30.96 1.94-3.44 2.24-7 2.65-10.63 2.02-18.21 3.96-36.44 5.93-54.66.07-.51.26-1 .44-1.71z"/><path d="m196.14 290.91c4.08-8.29 7.81-16.49 12.1-24.39 2.76-5.08 7.12-9.37 9.39-14.62 7.53-17.4 9.52-35.26 2.19-53.38-1.2-2.98-2.87-5.5-5.64-7.45-2.3-1.62-4.28-3.81-6.07-6.02-3.47-4.27-4.62-9.19-2.15-14.26 3.51-7.21 7.05-14.45 11.24-21.28 5.82-9.47 12.31-18.53 18.36-27.86 1.35-2.08 2.58-2.08 4.37-.95 2.39 1.52 3.76 3.83 3.12 6.45-1.02 4.16-2.1 8.49-4.18 12.18-5.41 9.59-11.32 18.9-17.17 28.23-1.29 2.06-1.66 3.71-.65 6.1 3.97 9.35 7.55 18.87 11.52 28.22 6.02 14.18 5.41 28.51-.13 42.37-5.26 13.15-11.68 25.85-17.85 38.62-3.55 7.36-11.54 10.67-18.45 8.04z"/><path d="m143.41 155.44c-25.71 14.99-50.25 31.83-78.62 40.98-2.34-3.26-1.92-5.1.65-7.04 19.08-14.43 39.13-27.18 61.5-35.97.69-.27 1.42-.45 2.08-.77 5.12-2.48 9.77-1.94 14.39 2.8z"/><path d="m139.55 187.22c1.71 5.02.99 8.06-2.48 10.99-15.06 12.73-31.34 23.1-50.8 27.68-2.26.53-4.59.78-6.9 1.04-1.23.14-2.49.02-3.81.02-.82-3.41-.16-5.6 3.23-7.47 17.88-9.88 35.57-20.11 53.41-30.06 2.16-1.19 4.83-1.47 7.35-2.2z"/></g></svg>