<svg enable-background="new 0 0 400 400" viewBox="0 0 400 400" xmlns="http://www.w3.org/2000/svg"><path d="m385.2 377.6.6-.7c.6.4 1.3.9 1.9 1.5l-.6.7c-.8-.5-1.4-1-1.9-1.5zm.3 7.1c.6-1.4 1.1-2.9 1.5-4.5.3.1.6.3.9.4-.5 1.4-1 2.9-1.5 4.4zm.2-10.1.6-.6c.7.5 1.3 1.1 1.9 1.6l-.7.7c-.6-.6-1.2-1.2-1.8-1.7zm8.4-.8h.8v.9h1.8v.7h-1.8v1.8h-.8v-.3h-1.2v.9h3.3v2.6h-.8v-.4h-2.5c0 .3 0 .6-.1.8h3.4v.7h-3.5c0 .3-.1.6-.1.8h4v.7h-3.5c.7.9 1.9 1.3 3.6 1.5-.2.2-.4.5-.6.9-1.9-.3-3.2-1.1-3.8-2.3-.5 1.1-1.8 2-3.9 2.4-.2-.3-.4-.5-.6-.8 1.9-.4 3.1-.9 3.6-1.7h-3.2v-.7h3.5c.1-.2.1-.5.2-.8h-3.3v-.7h3.4c0-.2 0-.5 0-.8h-2.4v.3h-.8v-2.6h3.3v-.9h-1.2v.3h-.8v-1.8h-1.8v-.7h1.8v-.9h.8v.9h3.2zm-4.4 5.5h2.4c0-.3 0-.6 0-.9h-2.4zm1.2-3.1h3.2v-.8h-3.2zm4.4 2.2h-2.4v.9h2.5v-.9z" fill="#fcfafa"/><path d="m389.2 385.8h.9v1.5h1.9v-1.5h.9v1.5h2.7v6h1.1v.9h-11.3v-.9h1.1v-6h2.7zm.2 8.7.5.8c-1.2.6-2.5 1.3-4 1.9-.2-.3-.3-.6-.6-.8 1.6-.6 3-1.3 4.1-1.9zm-2-4.3h1.9v-2.1h-1.9zm0 3.1h1.9v-2.2h-1.9zm2.7-3.1h1.9v-2.1h-1.9zm0 3.1h1.9v-2.2h-1.9zm2.4 1.3c1.4.6 2.7 1.2 4.1 1.8l-.5.9c-1.5-.7-2.8-1.4-4.1-1.9zm2.2-6.5h-1.9v2.1h1.9zm-1.9 5.2h1.9v-2.2h-1.9z" fill="#fcfafa"/><g fill="#010100"><path d="m75.12 73.06c6.61 3.15 12.88 4.67 18.21 8.97 5.62 4.54 12.21 7.88 18.77 11.99 4.91-19.79 9.72-39.18 14.74-59.42 2.05 1.33 4.1 2.09 5.31 3.55 2.96 3.56 5.02 7.69 4.71 12.49-.66 10.15-1.48 20.29-2.24 30.43-.25 3.36-1.33 7.16 1.85 9.48 3.28 2.4 6.86.58 9.82-1.18 8.72-5.2 17.59-10.23 24.71-17.69 1.91-2 4.17-2.26 6.88-1.38-.38 4.11-.93 7.85-3.95 11.25-10.28 11.57-20.38 23.3-30.24 35.22-4.93 5.96-9.59 12.4-10.22 20.45-.36 4.56.42 9.23.94 13.82.09.75 1.47 1.82 2.36 1.93 7.05.89 13.37 3.67 19.75 6.62 3.75 1.73 8.2 1.9 12.25 3.06 5.99 1.73 12.01 3.47 17.83 5.67 6.08 2.29 10.66 6.55 13.15 12.64.86 2.09.97 4.48 1.42 6.73.02.1-.01.21-.01.32-.42 19.35-.41 19.36-8.72 36.72-.56 1.18-1.56 2.22-2.54 3.12-7.24 6.68-15.61 11.12-25.38 12.79-1.35.23-2.65.79-3.99 1.04-6.09 1.13-11.45 3.72-15.88 8.04-3.48 3.4-7.6 4.84-12.36 4.49-2.03-.15-3.16.69-3.81 2.53-1.66 4.68-3.5 9.31-5.04 14.03-.99 3.02.45 4.73 3.69 4.75 1.05.01 2.13-.45 3.15-.32 2.44.31 5.21.23 7.21 1.4 4.29 2.51 8.65 3.72 13.58 3.23 14.96-1.5 28.59 2.72 41.89 9.18 9.53 4.63 13.81 12.25 15.21 22.22 1.04 7.39-1.67 14.22-2.87 21.27-.4 2.36-1.7 4.73-3.12 6.73-3.31 4.65-6.85 9.14-10.49 13.54-.95 1.15-2.48 1.98-3.9 2.56-8.14 3.3-16.27 6.65-24.53 9.63-7.99 2.89-16.04 1.37-24.12-.23-9.3-1.84-15.96-7.21-21.53-14.52-5.41-7.09-10.99-14.03-12.78-23.12-.8-4.06-1.93-8.05-.01-12.13.32-.68.25-1.72 0-2.48-2.8-8.53-3.24-17.19-1.75-26 1.85-10.92.19-21.76-.7-32.62-.21-2.49.02-5.03.18-7.54.37-5.81 1.38-11.63 1.15-17.41-.62-15.34 1.67-30.46 2.83-45.66.75-9.93 1.1-19.9 1.57-29.85.36-7.63.7-15.25.86-22.89.03-1.59-.34-3.47-1.21-4.74-6.51-9.52-13.13-18.97-19.85-28.34-5.27-7.27-9.45-15.05-12.78-24.37zm51.03 233.5c-.38.02-.76.05-1.15.07 1.92 7.88 3.14 16.02 5.94 23.58 3.01 8.12 7.26 15.66 16.73 18.61 8.46 2.63 16.13 2.04 23.01-3.64 3.99-3.29 7.85-6.8 11.4-10.55 6.96-7.35 7.34-19.9.47-27.27-3.32-3.56-7.43-6.74-11.76-8.95-13.73-7.02-27.36-3.8-40.82 1.39-3.02 1.17-5.32 2.79-3.82 6.76zm16.67-134.81c-2.33.88-6.14 2.23-9.86 3.81-.58.25-.99 1.55-1 2.36-.07 10.59-.06 21.17-.01 31.76 0 .85.3 2.19.88 2.48 3.81 1.92 4.2 5.68 4.91 9.1.58 2.81 2.21 3.64 4.67 4.31 2.26.61 4.31 2 6.52 2.88 1.15.46 2.73 1.15 3.61.71 4.32-2.13 8.92-4.07 12.57-7.1 4.61-3.82 8.49-8.55 12.5-13.05 6.16-6.91 5.89-17.89-.96-24.04-9.05-8.12-20.05-11.88-33.83-13.22z"/><path d="m252.83 219.84c.28.93.5 1.66.93 3.08.71-6.01 1.23-11.28 2-16.52.32-2.16-.43-3.23-2.3-4.17-14.65-7.36-27.06-17.76-38.86-28.94-3.85-3.65-7.01-7.87-9.3-13.32 6.4 1.02 12.29 2.33 18.25 2.8 6.13.48 10.67 3.87 15.21 7.24 2.89 2.15 6 2.17 9.06 1.67 1.77-.29 3.33-1.94 5.49-3.3-.6-5.81-1.24-12.33-1.98-18.83-.07-.61-.66-1.33-1.21-1.7-10.83-7.25-18.71-17.46-27.24-27.02-3.87-4.34-7.43-8.98-11.25-13.37-1.72-1.97-3.68-3.74-5.61-5.52-4.83-4.43-9.92-8.6-14.47-13.29-1.95-2.01-2.82-5.06-4.31-7.88 6.8-3.69 13.52-4.28 20.46-3.81 5.18.35 10.36.93 15.54.93 3.66 0 7.41-.46 10.96-1.35 1.97-.49 3.63-2.26 5.84-3.73 2.38 2.69 6.41 1.98 10.28 1.98 16.97.01 33.93-.11 50.9.08 4.62.05 9.24.99 13.85 1.66 2.59.38 4.52 1.66 4.96 4.56.43 2.83-1.42 3.87-3.47 4.97-5.97 3.21-11.92 6.46-17.8 9.83-1.08.62-2.29 1.77-2.57 2.9-1.74 7.02-5.54 12.92-9.32 18.95-5.69 9.08-10.88 18.49-12.22 29.38-.41 3.31-.06 6.72-.06 11 1.82-.85 3.62-1.15 4.5-2.21 2.61-3.14 4.9-6.55 7.23-9.92.9-1.3 1.39-2.89 2.34-4.13 2.46-3.2 6.51-2.66 8.41.73 1.69 3.02 1.64 5.64.3 8.88-4.85 11.74-8.69 23.92-14.13 35.37-4.55 9.59-5.19 19.28-4.49 29.39.39 5.67.57 6.3 6.16 6.83 6.49.62 13.08.47 19.62.33 6.16-.14 9.48 2.4 9.05 7.77-.11 1.42-.91 3.05-1.9 4.08-5.18 5.38-12.03 6.73-19.08 7.52-5.15.57-10.29 1.25-15.7 1.91-.67 7.71-1.31 15.29-1.99 22.86-1.69 18.89-3.28 37.79-5.18 56.67-.35 3.51-1.72 6.98-3.08 10.29-.62 1.5-2.17 2.86-3.62 3.73-1.98 1.18-3.78.7-4.95-1.62-3.25-6.48-4.83-13.3-4.51-20.55.3-6.86.9-13.72.87-20.58-.06-16.22-.41-32.44-.65-48.65-.07-4.38-.52-5.2-4.87-5.86-4.59-.69-9.27-.79-13.9-1.28-3.24-.35-6.55-.62-9.65-1.55-1.63-.49-3.25-2.08-4.16-3.6-1.2-2-1.37-4.42 1.52-5.49 3.92-1.45 7.82-3.44 11.89-3.95 9.02-1.12 10.18-1.11 18.21-5.25zm-20.29-127.48c.97 5.67 2.95 9.89 6.07 13.41 4.71 5.3 9.6 10.46 14.62 15.48 4.24 4.24 8.3 3.4 10.93-1.98 3.26-6.65 6.49-13.32 9.76-19.97 2.33-4.74 2.18-5.09-3.11-6.39-.62-.15-1.24-.29-1.87-.34-8.77-.62-17.52-1.43-26.3-1.74-3.24-.11-6.54.96-10.1 1.53z"/><path d="m248.39 54.14c-6.66 0-13.35.33-19.98-.13-3.7-.25-7.38-1.61-10.93-2.85-2.11-.74-2.18-5.64-.3-6.94 5.76-3.96 12.24-5.72 19.15-5.85 12.26-.23 24.53-.36 36.79-.38 1.97 0 4.12.37 5.84 1.24 1.55.78 2.96 2.29 3.82 3.83.94 1.68.25 3.02-1.6 4.38-8.12 5.95-17.49 5.45-26.75 5.73-2.01.06-4.02.01-6.04.01z"/></g></svg>