<svg enable-background="new 0 0 400 400" viewBox="0 0 400 400" xmlns="http://www.w3.org/2000/svg"><path d="m385.2 377.6.6-.7c.6.4 1.3.9 1.9 1.5l-.6.7c-.8-.5-1.4-1-1.9-1.5zm.3 7.1c.6-1.4 1.1-2.9 1.5-4.5.3.1.6.3.9.4-.5 1.4-1 2.9-1.5 4.4zm.2-10.1.6-.6c.7.5 1.3 1.1 1.9 1.6l-.7.7c-.6-.6-1.2-1.2-1.8-1.7zm8.4-.8h.8v.9h1.8v.7h-1.8v1.8h-.8v-.3h-1.2v.9h3.3v2.6h-.8v-.4h-2.5c0 .3 0 .6-.1.8h3.4v.7h-3.5c0 .3-.1.6-.1.8h4v.7h-3.5c.7.9 1.9 1.3 3.6 1.5-.2.2-.4.5-.6.9-1.9-.3-3.2-1.1-3.8-2.3-.5 1.1-1.8 2-3.9 2.4-.2-.3-.4-.5-.6-.8 1.9-.4 3.1-.9 3.6-1.7h-3.2v-.7h3.5c.1-.2.1-.5.2-.8h-3.3v-.7h3.4c0-.2 0-.5 0-.8h-2.4v.3h-.8v-2.6h3.3v-.9h-1.2v.3h-.8v-1.8h-1.8v-.7h1.8v-.9h.8v.9h3.2zm-4.4 5.5h2.4c0-.3 0-.6 0-.9h-2.4zm1.2-3.1h3.2v-.8h-3.2zm4.4 2.2h-2.4v.9h2.5v-.9z" fill="#fcfafa"/><path d="m389.2 385.8h.9v1.5h1.9v-1.5h.9v1.5h2.7v6h1.1v.9h-11.3v-.9h1.1v-6h2.7zm.2 8.7.5.8c-1.2.6-2.5 1.3-4 1.9-.2-.3-.3-.6-.6-.8 1.6-.6 3-1.3 4.1-1.9zm-2-4.3h1.9v-2.1h-1.9zm0 3.1h1.9v-2.2h-1.9zm2.7-3.1h1.9v-2.1h-1.9zm0 3.1h1.9v-2.2h-1.9zm2.4 1.3c1.4.6 2.7 1.2 4.1 1.8l-.5.9c-1.5-.7-2.8-1.4-4.1-1.9zm2.2-6.5h-1.9v2.1h1.9zm-1.9 5.2h1.9v-2.2h-1.9z" fill="#fcfafa"/><path d="m108.12 189.91c7.65-.7 15.07-.54 22.06-2.17 18.35-4.28 36.5-9.4 54.76-14.03 2.45-.62 3.09-1.62 3.15-4.06.86-33.7 1.76-67.4 2.86-101.1.25-7.51 1.39-14.98 2.03-22.48.18-2.08 1.02-3.44 2.84-4.53 3.18-1.9 6.2-4.06 9.37-6.17 6.85 6.2 9.89 14.21 10.42 22.93.67 11.09.33 22.24.57 33.36.28 13.02.37 26.06 1.17 39.05 1.16 18.94 2.34 37.82 1.33 56.85-.49 9.31 1.09 18.78 2.25 28.11 2.7 21.77 5.72 43.49 8.61 65.24 1.58 11.9 8.45 19.94 19.01 24.77 9.07 4.15 18.97 5.15 28.81 5.83 8.65.59 17.35.55 25.97 1.38 3.81.37 7.6 1.91 11.18 3.43 5.64 2.39 8.43 7.08 9.47 13.02.44 2.51-.12 4.13-2.68 4.78-6.75 1.71-13.42 4.01-20.28 4.97-13.66 1.91-27.47 2.65-41.17.37-4.31-.72-8.3-3.14-12.57-4.25-11.31-2.93-19.96-10.11-28.23-17.68-3.61-3.3-5.98-7.92-9.11-11.79-3.98-4.93-7.72-10.17-12.34-14.43-6.21-5.73-13.4-8.34-22.42-6.08-20.39 5.09-40.11 12.16-59.83 19.25-.9.32-1.95 1.67-2.03 2.62-.47 5.59-1.04 11.21-.9 16.81.28 11.89-.41 14.47-7.71 23.14.04.1.05.24.12.29 7.11 4.42 8.02 11.28 2.33 17.47-1.83 1.99-6.63 1.96-8.39-.06-7.16-8.22-10.54-17.62-11.1-28.67-.83-16.27-2.02-32.63-4.62-48.69-4.84-29.85-5.78-59.86-6.28-89.98-.13-7.79-1.7-15.55-2.63-23.33-1.61-13.46-1.72-26.84 1.73-40.11.76-2.92 2.23-3.76 4.71-2.73 4.83 2 9.83 3.71 11.35 9.85.96 3.87 3 7.47 4.22 11.29 2.43 7.59 6.13 14.33 11.73 20.07.99 1.01 1.38 3.02 1.33 4.54-.13 4.1-.66 8.18-1.09 12.92zm21.62 75.88c13.52-.92 26.7-3.43 39.68-7.08 8.8-2.47 17.31-5.63 24.76-11.14 1.34-.99 1.89-1.92 1.5-3.7-.75-3.41-1.07-6.9-1.69-10.34-.85-4.68-1.49-9.43-2.83-13.98-1.43-4.84-5.57-6.75-10.16-8.15-4.03-1.23-5.31 2.07-7.62 3.77-.17.12-.34.26-.46.43-1.16 1.6-2.42 1.34-4.11.67-3.1-1.23-6.31-2.57-9.57-2.91-4.17-.43-8.48-.27-12.65.26-11.77 1.48-23.09 4.43-32.77 11.78-.81.62-1.63 1.72-1.74 2.68-.73 6.42-1.28 12.86-1.86 19.29-.52 5.75 1.03 10.94 4.53 15.47.75.98 2.11 1.9 3.29 2.05 3.87.51 7.79.64 11.7.9zm-13.41-64.24c-.22.02-.45.03-.67.05-.61 2.02-1.21 4.03-2 6.63 1.61-.57 2.55-.9 3.67-1.29-.36-1.92-.68-3.66-1-5.39z" fill="#010100"/></svg>