<svg enable-background="new 0 0 400 400" viewBox="0 0 400 400" xmlns="http://www.w3.org/2000/svg"><path d="m385.2 377.6.6-.7c.6.4 1.3.9 1.9 1.5l-.6.7c-.8-.5-1.4-1-1.9-1.5zm.3 7.1c.6-1.4 1.1-2.9 1.5-4.5.3.1.6.3.9.4-.5 1.4-1 2.9-1.5 4.4zm.2-10.1.6-.6c.7.5 1.3 1.1 1.9 1.6l-.7.7c-.6-.6-1.2-1.2-1.8-1.7zm8.4-.8h.8v.9h1.8v.7h-1.8v1.8h-.8v-.3h-1.2v.9h3.3v2.6h-.8v-.4h-2.5c0 .3 0 .6-.1.8h3.4v.7h-3.5c0 .3-.1.6-.1.8h4v.7h-3.5c.7.9 1.9 1.3 3.6 1.5-.2.2-.4.5-.6.9-1.9-.3-3.2-1.1-3.8-2.3-.5 1.1-1.8 2-3.9 2.4-.2-.3-.4-.5-.6-.8 1.9-.4 3.1-.9 3.6-1.7h-3.2v-.7h3.5c.1-.2.1-.5.2-.8h-3.3v-.7h3.4c0-.2 0-.5 0-.8h-2.4v.3h-.8v-2.6h3.3v-.9h-1.2v.3h-.8v-1.8h-1.8v-.7h1.8v-.9h.8v.9h3.2zm-4.4 5.5h2.4c0-.3 0-.6 0-.9h-2.4zm1.2-3.1h3.2v-.8h-3.2zm4.4 2.2h-2.4v.9h2.5v-.9z" fill="#fcfafa"/><path d="m389.2 385.8h.9v1.5h1.9v-1.5h.9v1.5h2.7v6h1.1v.9h-11.3v-.9h1.1v-6h2.7zm.2 8.7.5.8c-1.2.6-2.5 1.3-4 1.9-.2-.3-.3-.6-.6-.8 1.6-.6 3-1.3 4.1-1.9zm-2-4.3h1.9v-2.1h-1.9zm0 3.1h1.9v-2.2h-1.9zm2.7-3.1h1.9v-2.1h-1.9zm0 3.1h1.9v-2.2h-1.9zm2.4 1.3c1.4.6 2.7 1.2 4.1 1.8l-.5.9c-1.5-.7-2.8-1.4-4.1-1.9zm2.2-6.5h-1.9v2.1h1.9zm-1.9 5.2h1.9v-2.2h-1.9z" fill="#fcfafa"/><g fill="#010100"><path d="m172.45 285.16c-2.19-8.54-4.28-16.73-6.38-24.91-3.7-14.46-7.42-28.92-11.04-43.4-.5-2.02-1.4-3.3-3.34-4.2-4.22-1.96-8.43-4-12.46-6.32-5.38-3.11-10.7-6.36-15.84-9.84-5.53-3.74-10.49-3.55-14.87 1.36-5.59 6.26-10.88 12.77-13.17 21.09-1.36 4.97-.27 9.69 2.05 14.12.53 1.01 1.74 1.78 2.8 2.36 11.6 6.39 23.15 12.85 34.88 18.99 3.37 1.76 1.49 4.08 1.56 6.22.08 2.35-1.83 2.03-3.35 2.35-8.31 1.78-15.85-.73-23.29-4.01-3.87-1.71-7.8-3.3-11.76-4.81-4.32-1.65-7.1-.21-7.24 4.4-.16 5.03.55 10.1 1.07 15.13.09.86 1 1.83 1.78 2.4 9.66 7.08 19.27 14.23 29.1 21.07 3.27 2.27 7.01 4.01 10.75 5.43 3.59 1.36 4.28 3.57 3.2 7.34-5.4-1.03-10.86-2.04-16.31-3.13-8.9-1.79-18.02-2.79-26.17-7.33-.61-.34-2.05.07-2.69.62-2.83 2.41-3.72 5.75-3.08 9.22 1.75 9.62 5.38 18.87 11.26 26.36 5.21 6.63 12.94 11.16 21.21 14.08 3.89 1.37 7.78 2.78 11.56 4.42 6.1 2.63 8.52 6.68 7.64 12.44-9.57-.08-18.5-2.81-27.06-6.87-6.89-3.27-13.64-6.83-20.55-10.03-3.41-1.58-5.88-4-8.06-6.93-7.88-10.55-11.44-22.5-12.04-35.55-.64-13.95 1.04-27.7 2.66-41.5 2.32-19.78 4.07-39.64 6.26-59.44.32-2.94 1.28-6 2.7-8.59 3.92-7.15 8.29-14.05 12.37-21.11.71-1.22 1.24-2.72 1.29-4.11.36-12.08.64-24.16.78-36.25.02-1.54-.56-3.35-1.45-4.61-6.4-8.97-13-17.8-19.42-26.76-.78-1.08-1.35-2.72-1.2-4 2.42-20.63 4.97-41.24 7.5-61.85.04-.3.2-.59.39-1.15 3.94.22 7.05 1.79 9.06 5.3.63 1.1 1.21 2.26 1.59 3.46 2.97 9.26 9.65 14.3 18.88 15.86 6.55 1.11 13.24 1.53 19.88 1.96 1.27.08 3.12-.87 3.86-1.93 2.65-3.81 4.93-7.89 7.38-11.84 1.39-2.24 2.64-4.62 4.31-6.62 1.99-2.38 4.65-3.63 8.3-2.85-1.52 5.08-2.72 10.2-4.56 15.08-4.21 11.16-5.54 22.76-6.26 34.54-.59 9.71-3.82 18.41-10.94 25.37-.61.59-1.22 1.19-1.73 1.87-4.36 5.86-10.06 9.92-16.84 12.47-2.94 1.11-4.06 2.61-3.69 6.08 1.31 12.33 2.21 24.7 3.11 37.07.16 2.21.98 3.29 2.97 4.17 15.87 7.03 31.72 14.12 47.5 21.37 1.62.74 2.98 2.45 3.99 4.02 1.19 1.84 1.69 4.12 2.81 6.03 4.36 7.41 5.82 15.37 4.56 23.79-1.61 10.75 1.18 21 2.83 31.44.78 4.91.08 10.07-.12 15.12-.1 2.49-1.54 3.97-4.16 4.3-1.46.12-2.86.7-4.77 1.24zm-39.75-194.21c.09-5.2-2.08-7.71-7.28-8.46-.94-.14-1.88-.31-2.82-.43-8.01-1.01-16.05-4.29-23.96.47-.89.54-2.06.66-2.89 1.27-1.69 1.22-3.84 2.32-4.73 4.03-3.65 7 2.81 21.28 10.53 23.46 4.16 1.17 8.44 1.95 12.7 2.67 1.37.23 3.23.2 4.26-.55 7.7-5.56 14.87-11.54 14.19-22.46z"/><path d="m234.91 281.69c-1.94-4.33-2.08-8.74-1.11-13.12 2.74-12.34 3.45-24.71 1.78-37.27-1.09-8.14.02-16.1 3.63-23.55.77-1.59 2.13-3.16 3.62-4.1 6.54-4.13 13.29-7.91 19.81-12.07 1.53-.98 3.22-2.78 3.51-4.44.89-5.06 1.84-10.3 1.45-15.36-.54-6.92-2.39-13.74-3.51-20.63-1.06-6.48-5.36-9.64-11.29-10.04-6.93-.47-13.94-.18-20.89.2-7.22.4-7.47.56-9.09 7.54-1.26 5.44-1.63 11.09-2.65 16.6-.53 2.88-1.37 5.76-2.52 8.44-1.13 2.62-3.35 4.26-6.72 4.72-.74-5.2-1.48-10.28-2.18-15.37-.72-5.25-1.5-10.49-2.08-15.76-.23-2.08-1.23-3.03-3.16-3.16-4.22-.29-8.46-.47-12.68-.82-1.77-.15-3.77-.19-5.18-1.06-1.03-.63-1.61-2.52-1.76-3.91-.17-1.68.74-2.93 2.73-3.24 3.35-.51 6.66-1.26 9.99-1.88 7.9-1.47 11.9-5.49 12.69-13.42.83-8.29.27-16.54-2.36-24.5-.47-1.43-1.69-2.93-2.98-3.7-3.81-2.27-7.88-4.11-11.77-6.27-3.65-2.03-6.13-5.05-7.26-9.45 2.37 0 4.48-.09 6.59.01 16.3.79 32.35-1.82 48.47-3.49 5.06-.52 10.1-1.29 15.17-1.6 3.65-.22 6.6-1.48 8.73-4.37 2.95-4 6.01-7.96 8.51-12.24 3.57-6.1 6.68-12.48 10.03-18.81 4.61.13 7.12 1.85 8.56 6.26 1.65 5.06 2.18 10.04-.57 15.06-1.87 3.41-3.16 7.13-4.89 11.14 4.11.56 7.93 1.09 11.76 1.59 6.41.83 12.81 1.84 19.25 2.35 3.35.26 5.01 2.02 5.97 4.74.84 2.38 1.88 4.91 1.83 7.35-.17 9.83-.52 19.66-1.28 29.46-.21 2.66-1.83 5.37-3.3 7.75-7.43 12.09-17.65 20.11-32.25 21.57-1.78.18-3.51.94-5.28 1.08-3.59.27-4.86 2.51-4.62 5.59.46 5.97.9 11.81 5.02 16.96 6.01 7.52 8.42 16.53 8.28 26.14-.02 1.12-.83 2.67-1.76 3.26-12.81 8.25-24.88 17.7-38.96 23.9-.96.42-2.02 1.97-2.03 3-.13 11.75-.05 23.51-.07 35.27-.01 6.2-.51 12.31-4.09 17.68-2.12 3.26-5.06 5.29-9.09 5.97zm23.36-196.44c-8.47-2.19-16.8-3.85-24.52 1.06-4.7 2.99-8.86 6.83-13.19 10.39-.56.46-.84 1.48-.92 2.27-.95 8.81.12 17.32 3.66 25.5.78 1.79 1.8 2.49 3.82 2.47 9.97-.11 19.94-.04 29.91-.06.81 0 1.62-.15 2.61-.24-.46-13.87-.91-27.52-1.37-41.39zm52.45 19.44c-.21-5.33-1.6-10.25-4.12-13.88-4.69-6.73-16.18-10.14-24.18-8.27-6.39 1.5-9.02 4.93-9.68 11.15-1.13 10.68-.17 21.15 2.22 31.53.2.87 1.58 1.83 2.59 2.1 7.86 2.13 15.21.37 22.5-2.84 5.55-2.44 8.79-6.3 9.59-12.27.33-2.51.72-5.01 1.08-7.52z"/></g></svg>