<svg enable-background="new 0 0 400 400" viewBox="0 0 400 400" xmlns="http://www.w3.org/2000/svg"><path d="m385.2 377.6.6-.7c.6.4 1.3.9 1.9 1.5l-.6.7c-.8-.5-1.4-1-1.9-1.5zm.3 7.1c.6-1.4 1.1-2.9 1.5-4.5.3.1.6.3.9.4-.5 1.4-1 2.9-1.5 4.4zm.2-10.1.6-.6c.7.5 1.3 1.1 1.9 1.6l-.7.7c-.6-.6-1.2-1.2-1.8-1.7zm8.4-.8h.8v.9h1.8v.7h-1.8v1.8h-.8v-.3h-1.2v.9h3.3v2.6h-.8v-.4h-2.5c0 .3 0 .6-.1.8h3.4v.7h-3.5c0 .3-.1.6-.1.8h4v.7h-3.5c.7.9 1.9 1.3 3.6 1.5-.2.2-.4.5-.6.9-1.9-.3-3.2-1.1-3.8-2.3-.5 1.1-1.8 2-3.9 2.4-.2-.3-.4-.5-.6-.8 1.9-.4 3.1-.9 3.6-1.7h-3.2v-.7h3.5c.1-.2.1-.5.2-.8h-3.3v-.7h3.4c0-.2 0-.5 0-.8h-2.4v.3h-.8v-2.6h3.3v-.9h-1.2v.3h-.8v-1.8h-1.8v-.7h1.8v-.9h.8v.9h3.2zm-4.4 5.5h2.4c0-.3 0-.6 0-.9h-2.4zm1.2-3.1h3.2v-.8h-3.2zm4.4 2.2h-2.4v.9h2.5v-.9z" fill="#fcfafa"/><path d="m389.2 385.8h.9v1.5h1.9v-1.5h.9v1.5h2.7v6h1.1v.9h-11.3v-.9h1.1v-6h2.7zm.2 8.7.5.8c-1.2.6-2.5 1.3-4 1.9-.2-.3-.3-.6-.6-.8 1.6-.6 3-1.3 4.1-1.9zm-2-4.3h1.9v-2.1h-1.9zm0 3.1h1.9v-2.2h-1.9zm2.7-3.1h1.9v-2.1h-1.9zm0 3.1h1.9v-2.2h-1.9zm2.4 1.3c1.4.6 2.7 1.2 4.1 1.8l-.5.9c-1.5-.7-2.8-1.4-4.1-1.9zm2.2-6.5h-1.9v2.1h1.9zm-1.9 5.2h1.9v-2.2h-1.9z" fill="#fcfafa"/><g fill="#010100"><path d="m86.51 310.09c-.94-.46-1.94-.95-3.29-1.62 2.79-1.66 1.79-3.37.54-5.32-.48-.75-.32-2.02-.2-3.03.21-1.68.62-3.33 1.12-5.9 2.66-1.74 2.84-2.69-.5-5.56-2-1.71-2.94-3.49-1.99-5.99-3.45-1.53-4.2-4.43-2.72-9.12-2.49-2.79-6.1-5.09-6.89-8.12-1.18-4.56-3-8.3-5.55-12.21-2.1-3.23-2.33-7.75-3.06-11.76-.21-1.17.51-2.65 1.16-3.79.48-.85 1.53-1.37 2.5-2.18-1.52-.83-2.64-1.44-3.99-2.17 1.04-1.48 1.88-2.66 2.95-4.16-.84-.58-1.68-1.16-2.52-1.74.37-.12.74-.25 1.11-.37-.21-2.15.37-5.35-.79-6.22-2.35-1.75-4.84-4.31-9.36-4.06-.27-5.77-.69-12.14-.72-18.5 0-.86 1.97-1.72 3.43-2.91.15 3.63 1.49 4.99 4.4 6.25 3.07 1.32 5.6 3.86 9.04 5.11 1.78.65 2.62 3.9 3.84 6 1.26 2.18 3.18 2.32 4.55.16 1.3-2.05 2.4-4.23 3.62-6.41-.66-.91-1.26-1.74-2.07-2.85 5.96-1.86 4.62-7.01 5.33-11.2.09-.56-.53-1.32-.97-1.86-1.15-1.39-2.29-2.8-3.6-4.03-4.1-3.84-6.18-8.19-3.4-14-1.24 0-2.11 0-3.27 0 1.85-2.46 1.12-4.47-1.12-6.06 2.63-4.4 1.49-7.28-2.43-7.75-2.23 2.2-4.23 4.17-5.42 5.34-2.15-1.53-3.59-2.81-5.24-3.7-4.56-2.43-6.34-6.01-5.67-11.19.42-3.23.12-6.57.07-9.85-.05-2.94-.2-5.6 2.52-7.97 1.18-1.03.66-4.02.92-6.11-.31-.1-.63-.19-.94-.29 1.2-.55 2.4-1.11 3.83-1.77-5.98-4.32.49-7 1.04-10.52-.11-.1-.25-.34-.39-.34-7.37.09-6.15-1.25-6.87-7-.45-3.57-.49-7.19-.65-10.79-.18-4.18.6-5.3 4.79-6.88v3.75c1.43-.48 2.54-.86 4.6-1.55-1.7 2.55-2.94 4.41-4.3 6.45 3.3 1.77 6.11 2.43 9.2.96 1.7-.81 1.95-1.67.76-3.14-1.72-2.14-3.33-4.37-5.11-6.71 1.8-2.19 3.52-4.29 4.46-5.44-.85-6.15-1.57-11.38-2.38-17.26-.23-.19-1.04-.84-1.78-1.43-.46-3.2 3.93-7.2-1.92-9.43.77-5.23-2.68-8.18-6.14-11.47-1.5-1.42-1.44-4.48-2.24-7.32h4.37c11.24 0 22.49.2 33.72-.09 5.51-.14 10.5.59 14.86 4.59 2.35-3.58 5.31-4.66 9.2-3.95 1.92.35 4-.21 6.01-.22 32.45-.05 64.89-.07 97.34-.12 26.19-.05 52.38-.14 78.57-.21h4c-.05 5.81-5.62 5.94-7.99 9.26-4.06-4.84-9.31-6.19-14.57-5.5-2.78.37-5.43 3.11-7.68 5.27-.68.66.18 2.92.35 4.62-2.01-.82-3.54-1.78-5.17-1.98-.89-.11-1.93 1.09-2.9 1.7.4.18.81.35 1.21.53.95 1.71 1.88 3.43 2.86 5.12 1.67 2.87 3.38 5.73 5.07 8.59.29-.08.57-.16.86-.23.45-1.58.97-3.14 1.34-4.74 1.04-4.52 1.98-4.99 5.89-2.82 3.97 2.2 5.28 2.05 9.01-1.16.93 1.09.42 4 3.28 2.84 2.26-.92 2.65-2.65 2.23-4.65-.67-3.24.55-5.52 3.14-7.33 2.7-1.88 5.17-3.86 6.57-7.12.46-1.08 2.77-1.81 4.29-1.91 3.9-.28 7.86-.35 11.74.01 1.03.09 2.37 1.89 2.71 3.13.39 1.43-.28 3.12-.28 4.69 0 1.74-.24 3.72.47 5.18 1.11 2.26 1.07 3.85-.86 5.51-1.11.95-1.98 2.18-3.22 3.58 4.59 2.61 4.52 6.72 4.14 11.17-.16 1.87.74 3.98 1.61 5.77 1.63 3.34 5.19 5.58 4.19 10.37-.62 2.98.9 6.35 1.02 9.56.13 3.25-.7 6.56-.35 9.76.45 4.04-1.37 8.18 1.36 12.22 1.64 2.43 2.49 5.48 1.77 9.03-.55 2.72.49 6.1 1.75 8.74 1.29 2.71 2.06 5.02 1.36 8.07-.58 2.54.17 5.37-.29 7.96-1 5.6 1.63 10.49 2.39 15.72.48 3.32-.65 6.85-.91 10.29-.22 2.96-.27 5.93-.32 8.9-.01.93-.08 2.09.41 2.76 2.04 2.81 1.8 5.97 1.8 9.15-.01 54.61-.01 109.22-.01 163.84v4.51c-5.6.31-11.06.65-16.52.86-.51.02-1.32-.68-1.49-1.21-.16-.5.16-1.36.56-1.81.76-.86 1.73-1.53 2.63-2.3-1.54-3.89-3.15-7.7-.59-11.69-2.19-.79-4.81.95-4.86 3.74-.07 3.55-3.09 4.33-5.02 6.13-.42.4-1.17.48-1.78.64-2.7.71-4.22 1.89-1.64 4.6-2.33.72-4.36 1.65-6.48 1.93-2.5.32-5.07.08-7.58.08-2.1-7.79-7.78-8.85-15.5-7.36-.59 1.54-1.55 4.06-2.77 7.25-.16.01-1.27.1-2.38.1-31.6.01-63.2.16-94.8-.16-4.63-.05-9.1 1.22-13.84.46-4.76-.76-9.73-.26-14.6-.29-4.88-.02-9.76-.12-14.63.05-2.31.08-3.92-.69-5.62-2.19-1.97-1.74-4.51-2.83-6.59-4.47-1.08-.86-1.71-2.29-2.72-3.69-.14 3.68-6.62 4.4-3.34 9.39-2.41 0-4.34 0-6.73 0 .85-1.13 1.66-1.86 1.99-2.77.21-.57-.31-1.39-.5-2.11-.59.26-1.63.44-1.71.81-.99 4.95-4.69 4.35-8.32 4.39-15.37.13-30.73.39-46.1.59-1.77.02-3.55 0-5.64 0 0-5.52.05-10.68-.01-15.85-.12-10.69-1.12-21.45-.25-32.06 1.06-12.99-.61-25.88 0-38.8.14-3-.15-6.22 2.55-7.87.96.91 1.78 1.54 2.41 2.33.66.82 1.3 1.73 1.66 2.71 1.37 3.74 2.63 7.52 3.93 11.28.24.69.88 1.58.65 2.04-1.4 2.9.78 4.71 1.75 6.96.61 1.42.68 3.1.9 4.67.07.5-.39 1.27-.16 1.54 3.75 4.34 2.49 11.74 8.75 14.46 1.03.45 2.61.57 3.58.1 3.16-1.6 6.09-3.54 6.18-7.86zm154.42-185.86c-1.31-1.51-2.39-3.84-3.61-3.92-2.2-.14-1.88-1.3-1.81-2.41.15-2.32.7-4.62.74-6.94.04-1.99-.39-3.98-.62-6.01-2.03.98-4.4 2.61-4.79 2.23-1.7-1.68-2.97-3.87-4.07-6.05-.28-.55.42-2.05 1.09-2.56 5.15-3.89 6.92-9.03 6.16-15.28-.15-1.25.05-2.54.06-3.81.01-4.02-3.04-6.24-6.7-4.9-.68.25-1.39.44-1.45.47-3.1-2.06-5.76-3.83-8.42-5.6-.02.41-.05.83-.07 1.24-1.38.35-2.76.93-4.16 1.01-1.87.1-2.4.96-1.54 2.39.54.91 1.67 1.48 2.58 2.15 2.06 1.53 4.14 3.02 5.24 3.82-1.13 4.32-1.93 7.59-2.87 10.83-.26.92-.69 2.06-1.41 2.52-3.34 2.16-3.52 2.88-1.75 6.44.54 1.09 1.04 2.92.51 3.68-1.69 2.41-1.12 4.47 0 6.77 1.07 2.18 1.85 4.5 2.87 6.71 2.21 4.8.45 8.95-1.95 13.54-2.07-3.5-4.3-1.31-6.8-.57-1.75-2.61-3.73-5.09-5.16-7.84-1.35-2.59-2.12-5.48-3.26-8.56.13-.62 1.09-2.46.58-3.07-2.37-2.83-3.52-5.89-2.69-10.34-1.97 1.26-3.27 1.92-4.37 2.82-9.02 7.41-7.6 5.55-3.42 14.15.23.48.63.93.69 1.42.16 1.53.81 3.45.16 4.55-1.66 2.79-1.32 5.53-.6 8.27 1.34 5.07 2.95 10.06 4.5 15.27 4.76-.52 8.22 2.35 11.5 5.36 3.97 3.64 6.25 3.35 9.34 1.73.66.63 1.34 1.27 1.99 1.89 6.4-2.77 10.58.28 10.23 7.31-.05.94.05 1.9.2 2.83.99 6.33 3.43 12.44 2.89 19.01-.02.27.2.61.4.85 3.06 3.62 3.03 8.04 2.97 12.35-.02 1.69-.64 3.61-1.6 4.99-2.79 3.97-2.85 8.57.17 12.46.62.8 1.42 1.76 1.45 2.66.15 4.02.21 8.06-.01 12.07-.17 3.09-1.75 5.05-5.21 5.25-1.74.1-3.59.55-5.12 1.36-3.03 1.61-3.64 1.09-4.9-1.98-2.25-5.5 1.34-11.13-.89-16.49-.06-.14-.28-.22-.49-.37-2.44.61-5.03 4.21-7.26-.57-3.15 3.52-6.61 5.84-10.86 5.47 1.53 3.79 3.98 7.08 3.83 10.25-.15 3.15-2.92 6.17-4.59 9.34 2.34-.74 8.13 1.76 9.48 4.19 1.2 2.18.92 4.31-1.13 5.96 2.23 2.49 2.66 6.07.68 9-1.67 2.46-1.68 4.89-1.04 7.56.27 1.12.77 2.46.4 3.4-1.52 3.8.22 6.73 1.68 10.09 3.99 9.15 11.87 14.66 18.49 21.62 2.41-2.52 4.13-1.46 6.24.06 3.17 2.28 4.82 5.16 5.44 8.92.18 1.06 1.25 1.97 1.92 2.96.83-.69 1.7-1.34 2.46-2.1.42-.42.65-1.02.95-1.52-1.45-2.02-2.81-3.9-4.36-6.05 3.06-.74 5.82-3.53 8.58.26.27.37 1.19.48 1.75.38 2.92-.52 5.83-1.14 9.09-1.8.6.72 1.6 1.93 3.29 3.98 2.43-1.86 4.64-3.55 6.84-5.24-.52-.52-1.04-1.04-1.55-1.55 4.79 1.45 4.79 1.45 7.44-2.98-1.32-1.49-2.72-2.94-3.94-4.54-.41-.54-.73-1.62-.47-2.14 2.22-4.43 4.57-8.79 6.89-13.17.76.12 1.28.25 1.79.28.9.04 1.8.02 2.7.02-.19-.93-.19-1.95-.59-2.79-2.35-4.91-2.23-5.86 1.8-9.64.75-.7 1.68-1.21 2.62-1.88-1.45-1.56-2.5-2.49-3.29-3.59-1-1.4-2.42-2.89-2.56-4.44-.3-3.22.53-6.66-3.72-7.93 1.45-4.41 2.74-8.37 4.11-12.54-2.03-.66-4.69-1.53-7.9-2.58 2.88-2.84.09-3.45-1.55-4.51 2.27-3.22-.04-5.12-1.73-7.4-2.44 1.86-4.77 3.62-7.74 5.87-1.68-2.1-3.26-4.07-4.67-5.84-1.88.81-3.27 1.4-4.66 1.99-.2-1.28.15-1.8.28-2.37.55-2.29 2.15-4.82-.07-6.82-3.31-2.99-3.05-6.65-2.74-10.46.18-2.24.31-4.5.31-6.75.01-1.37-.59-2.8-.34-4.1.94-4.87 4.2-9.38 2.05-14.7-.16-.41.15-1.03.3-1.53 1.48-4.67 3.41-9.07 3.29-14.33-.06-2.65-.46-4.46-1.82-6.4-.47-.68-.91-1.38-1.14-1.74 1.26-1.73 2.35-3.24 3.65-5.02 2.64 2.22 5.33 1.28 6.25-1.93.63-2.2-.44-4.89-.76-7.36-.18-1.45-.37-2.89-.68-5.26 4.1.87 7.28 1.54 10.91 2.31.94-1.91 1.64-4.36-.01-7.1-.48-.8-.54-1.92-.58-2.91-.08-1.99-.05-3.98-.01-5.98.04-1.99.05-3.99.27-5.96.33-2.88 1.12-5.73 1.16-8.6.03-1.86-.46-4.47-3.37-3.74-2.77.69-4.05-.04-3.99-2.84-7.06-.35-7.26-.46-6.58-3.53 2.47 1.31 4.09.5 10.95-5.46-1.57-2.07-2.14-4.08-.09-6.41 2.93-3.33 2.81-3.89.01-7.98-2.71 1.68-7.09-.16-8.66 4.35-.13.37-1.96.34-2.95.17-.79-.13-1.48-.78-2.24-1.15-2.42-1.17-4.05-.28-4.01 2.37.02 1.21.82 2.41.89 3.63.1 1.76.5 3.98-.36 5.22-2.11 3.02-1.68 5.94-.92 9.09.31 1.29.67 2.66.55 3.96-.4 4.22-1.2 8.4-1.49 12.62-.21 3.01-1.79 4.73-4.09 6.19-.85-.68-1.59-1.26-2.37-1.89-1.01.67-2 1.27-3.04 1.91zm1.88 226.24c2.84-.85 5.67-2.37 8.48-2.33 2.19.03 3.22-.35 3.8-2.2 3.98 1.21 10.82.95 12.4-.72 1.65-1.75 3.31-2.25 5.64-1.65 2.34.6 4.59-1.31 4.75-3.76.08-1.25.01-2.51.01-3.67 3.49-1.42 4.8-7.71 1.79-9.66-5.32-3.45-9.9-7.41-13.51-12.64-1.15-1.67-2.42-1.08-3.68.66-1.9 2.61-4.31 4.84-6.88 7.66-.82-1.64-1.16-2.33-1.57-3.14-1.75 1.12-3.32 2.13-4.94 3.16-.84-1.07-1.61-2.05-2.18-2.78-1.99 1.78-3.76 3.6-5.77 5.09-2.07 1.53-6.67.38-8-1.77-1.54-2.49-4.55-3.32-6.96-1.7-1.91 1.28-3.62 2.85-5.53 4.38-.38-.3-.93-.53-1.16-.95-2.59-4.55-7.52-3.34-11.17-3.54-2.21-.12-4.09-.09-6.12-1.11-1.08-.55-2.53-.33-3.78-.6-1.35-.29-2.89-.44-3.95-1.2-1.52-1.09-2.79-2.61-3.96-4.1-.49-.62-.52-1.64-.64-2.5-.2-1.36-.24-2.75-.47-4.11-.11-.69-.91-1.63-.68-1.95 2.61-3.66.2-6.59-1.25-9.65 3.63-4.62 1.28-15.18-3.95-16.49 2.63-2.28 4.64-4.77 3.73-8.51-.92-.46-1.83-.93-2.76-1.4.49-.85 1.42-1.8 1.23-2.24-1.68-3.81-3.5-7.58-5.54-11.21-.15-.27-2.45.35-3.45 1.01-.51.34-.81 1.98-.45 2.51 1.6 2.36.87 3.9-1.26 5.28-1.06.69-1.94 1.69-3.04 2.29-1.99 1.08-2.29 2.46-1.37 4.42 1.11 2.37.46 4.31-1.67 5.8-.7.48-1.42.95-2 1.55-.28.29-.24.87-.35 1.32.44.07.9.26 1.31.18.56-.11 1.09-.42 1.16-.45 1.66 1.56 3.03 2.85 4.77 4.49-.24 1.26-.59 3.09-.96 5.03-2.7-.95-3.55-.08-2.83 2.48.48 1.73.73 3.53 1.27 5.24.79 2.5 1.12 5.59 2.8 7.25 2.46 2.43 2.37 5.03 2.16 7.76-.22 2.99-2.11 4.75-4.92 6-2.57 1.14-3.36-.9-4.81-1.86-1.03-.68-2.07-1.92-3.11-1.93-2.81-.03-2.6-1.83-2.74-3.65-.17-2.12-.47-4.23-.71-6.35-.44-.43-.28-.95 0-1.39 2.72-4.45 2.48-6.9-3.52-5.94-3.27.52-7.26-3.31-7.07-6.76.14-2.41.43-4.62-.98-6.75-.23-.34.06-1.01.1-1.53.14-1.81.28-3.62.49-6.35 1.5-1.63 3.75-4.02 5.94-6.47 1.42-1.59.99-8.27-.76-8.62-2.8-.55-2.59-2.63-3.22-4.41-.3-.86-.59-1.91-1.24-2.43-2.37-1.9-4.89-3.61-7.35-5.38-3.03 2.63-5.32 5.2-5.99 9.07-.31 1.77-1.45 3.52-2.59 5-2.3 2.99-1.91 6.22-.77 9.26 1.17 3.09 3.03 5.92 4.68 9.05 4.69.29 5.59 1.07 4.7 6.12-.5 2.85-2.13 5.5-3.28 8.32 3.76 2 4 5.64-4.6 9.78-1.64-2.88-3.28-5.77-5.05-8.88.42-.54 1.04-1.33 1.93-2.48-1.27-.47-2.34-.64-3.08-1.22-.77-.61-1.61-1.56-1.74-2.46-.5-3.48-.93-7-1-10.52-.04-2.15.32-4.42 1.07-6.43 1.04-2.79.41-5.37-2-7.18-1.51-1.13-2.68-2.7-4-4.08.18-.22.35-.43.53-.65-1.7-.46-3.4-.91-4.98-1.33-2.59 6.69-4.89 13.25-3.41 20.59-1.35.12-2.22.2-3.26.3.34 3.05.78 5.87.93 8.7.16 2.91.04 5.83.04 8.82 2.3 1.86 4.43 4.02 3.34 7.39-1.6 4.95.35 9.31 5.17 11.01.39.14.75.35.97.45-.63 1.88-1.64 3.63-1.74 5.43-.2 3.48.03 6.99.21 10.49.15 2.99.77 5.59 4.56 6.09 1.23.16 2.38 1.3 3.46 2.15 2.06 1.62 4.04 3.34 6.28 5.21 3.27-1.46 4.03-1.36 4.89 1.08.55 1.57 4.39 5.85 5.97 6.18 1.28.27 2.69-.06 4.05-.12.05-.33.11-.66.16-.98 1.38.74 3.21 1.16 4.01 2.31.67.96.14 2.76.13 4.19 3.37-.86 3.37-.86 5.57-3.61 3.2-4.02 8.5-4.53 12.55-1.2 1.92 1.58 4.97 1.51 6.63-.28.91-.98 1.61-2.14 2.46-3.29 1.24 1.01 2.38 1.94 3.61 2.95 2.17-1.59 4.26-3.13 6.53-4.79 1.26 3.51 4.14 3.38 6.7 3.66 2.03.23 4.1.05 6.77.05.48-.42 1.56-1.37 2.01-1.77.25-1.58.43-3.3.54-3.3 3.16.15 6.51-3.66 9.07.09 1.52-.61 2.94-1.74 3.95-1.45 1.94.55 3.64 1.91 5.45 2.93.49.28.98.61 1.51.75 1.51.4 3.27.33 4.51 1.12 3.24 2.06 4.16 1.72 5.11-2.18.24-.97 1.03-2.35 1.81-2.53 2.21-.55 5.6 2.13 6.06 4.48zm-86.32-214.69c.12-.09.47-.34.77-.63 1.14-1.14 3.25-2.13 1.76-4.09-1.55-2.05-3.02.09-4.63.46-4.08.95-6.92 6.87-12.2 3.19-.23-.16-.93.38-1.43.54-1.91.61-3.8 1.55-5.75 1.7-2.87.22-4.63 1.67-6.14 3.88-1.37 2-3.88 3.59-1.7 6.56.21.29-.59 1.23-.77 1.91-.15.58-.09 1.22-.12 1.76 1.77-.27 3.16-.78 4.5-.64 5.2.53 10.42 1.39 14.49-3.17.11-.13.39-.11 1.38-.34.72 2.86 1.5 5.73 2.15 8.62.68 3.04 1.05 6.16 1.94 9.13.48 1.61.64 2.6-.78 3.81-2.41 2.05-4.59 4.36-6.85 6.58-.21.21-.36.56-.38.85-.17 3.77-.47 7.54-.41 11.31.05 3.7 1.26 7.31-2.03 10.62-5.53 5.56-10.65 11.53-15.87 17.38-.62.69-1.33 1.83-1.18 2.59.95 4.73 10.45 9.17 14.24 6.17 3.29-2.59 5.74-6.38 8.06-9.97.74-1.14 1.06-2.26 2.31-3.27 1.27-1.02 2.3-3.21 2.23-4.83-.1-2.09-2.13-1.17-3.57-1.05-1.73.15-2.9-.66-2.67-2.63.27-2.31.48-4.63.93-6.91.5-2.56 1.97-3.97 4.81-4.06 1.49-.05 3.17-.62 4.37-1.5 1.85-1.34 3.17-.93 4.79.28 1.24.93 2.75 1.52 4.13 2.26.33-.23.65-.46.98-.68-.18-1.54-.37-3.08-.55-4.62-.09-.8-.24-1.6-.26-2.39-.05-2.46.74-5.32-.24-7.31-2.6-5.26-1.91-9.48 2.3-13.35.08-.08-.01-.34-.05-.87-1.39.5-2.65.96-4.25 1.54 2.21-3.14 3.95-6.21 1.96-9.44-2.37-3.84-2.85-7.62-1.36-11.78.19-.54.1-1.18.14-1.83-1.33-.18-2.44-.34-3.24-.45-.62-1.8-1.14-3.33-1.81-5.33zm-43.04-3.22c-.11-1.71-.19-2.79-.27-4.1 1.41.58 2.55 1.04 4.18 1.7 1.26-2.81 2.45-5.45 3.52-7.84 5.06 1.89 8.03-3.81 12.71-2.89-.19-1.2-.32-2.05-.45-2.87 8.4-2.32 8.4-2.32 14.49-8.86 2.27-2.44 4.54-4.87 6.92-7.44-2.2-1.67-3.95-3-5.81-4.41-1.79 3.62-3.94 2.4-5.99.58-2.81 1.9-5.42 3.7-8.09 5.42-.65.42-1.47.81-2.23.83-2.66.07-5.39-.4-7.98.04-4 .67-7.15 4.89-7.26 8.56-5.43 1.23-10.73 2.57-16.1 3.59-3.09.59-4.94 1.68-5.11 5.22-.16 3.48-4.39 6.27-7.51 5.11-.29 1.44-.16 3.13-.93 4.16-1.58 2.13-.75 3.79.78 4.95 1.97 1.48 4.32 3.36 6.54 3.41 3.41.08 6.85-1.25 10.27-2.02.26-.06.46-.42.69-.64 2.08-2.05 3.78-4.92 7.63-2.5zm175.77 206.71c3.63 4.41 6.87 8.35 10.09 12.27 2.68-.77 3.59-2.24 2.55-5-.4-1.05.11-2.44.2-3.67.12-1.62.25-3.25.35-4.87.06-.93-.2-1.98.15-2.77 1.94-4.39.38-8.35-1.65-12.06-1.92-3.51-4.9-3.88-8.01-1.46-.83.65-1.67 1.29-2.51 1.94-3.26 2.56-3.78 4.7-1.84 8.41 1.32 2.53 2.2 5.03.67 7.21zm27.22-7.61c.96.67 1.79 1.25 3.01 2.09-1.61 2.01-3.81 3.66-4.36 5.74-.57 2.13.48 4.69.8 6.98 7.73.49 7.85.4 10.32-8.19.56-1.93-3.02-6.68-6.02-7.81-1.36-.51-3.06-1.63-3.75 1.19zm-166.79-277.29c.14.34.58 1.43.85 2.09 2.12-.15 3.74-.47 5.32-.33 2.78.26 5.53.93 8.31 1.11.53.03 1.3-1.32 1.71-2.15.57-1.17.91-2.46 1.61-4.45-1.19-1.13-3-2.85-5.33-5.05-.38 2.02-.56 3-.64 3.43-1.65.26-3.11.17-4.23.75-2.48 1.27-4.81 2.88-7.6 4.6zm73.14-8.87c-1.57-1.97-3.05-3.84-4.62-5.81-1.27 1-2.33 1.84-3.4 2.68-1.05.82-2.11 1.64-3.17 2.46-.03-.31-.06-.61-.1-.92-1.51-.07-3.02-.13-4.53-.2-.04.33-.07.67-.11 1 1.32 1.03 2.64 2.08 3.97 3.1 6.78 5.19 7.13 5.13 11.96-2.31zm-113.85 195.4c-.83-2.93-1.39-4.93-1.97-6.93-.21-.71-.43-1.41-.73-2.08-1.55-3.52-3-3.97-5.58-2.27-1.75-.23-3.05-.4-4.35-.57-.2.34-.39.68-.59 1.02 3.94 1.24.17 6.05 4.05 7.38 2.87.99 5.68 2.13 9.17 3.45zm169.52-174c-1.78 1.68-3.45 3.24-5.21 4.9 1.47 2.61 3.76 4.49 6.15 3.37 3.21-1.5 5.91-4.13 8.67-6.46.43-.36.03-1.71.01-2.61-.85.12-1.83.02-2.51.42-1.33.79-2.48 1.86-3.71 2.81-1.16-.82-2.09-1.49-3.4-2.43zm-148.44-13.52c.74.17.96.3 1.12.25 2.63-.78 5.25-1.57 7.87-2.38 2.59-.81 4.23-3.92 3.42-6.45-.77-2.42-3.15-3.18-4.77-1.28-2.62 3.09-4.97 6.4-7.64 9.86zm55.15 110.08c2.11-1.84 3.96-3.54 5.91-5.12 1.57-1.28 2.56-2.53.83-4.41-1.82-1.98-5.16-2.54-6.64-1.06-2.18 2.18-2.31 6.43-.1 10.59zm86.96 54.98c2.94 2.21 5.34 3.76 7.42 5.66 1.75 1.59 3.05.62 3.99-.53.9-1.1 2.76-2.42.65-4.22-1.87-1.61-3.44-4.06-6.23-1.51-1.04-.95-1.93-1.77-3.06-2.8-1.14 1.4-2.14 2.63-2.77 3.4zm-167.08 117.67c.27-2.23.59-3.58.54-4.92-.04-.98-.28-2.36-.95-2.82-1.45-1.01-3.17-1.83-4.89-2.15-.99-.19-2.24.65-3.25 1.24-.31.18-.43 1.47-.26 1.55.85.45 1.81.69 2.74.98.34.11.69.16.25.06.46 1.91.48 3.43 1.17 4.53 1.34 2.12 3.39 2.25 4.65 1.53zm214.93-37.8c-.64-.14-1.28-.29-1.91-.43-1.87 5.15-3.09 10.39-1.45 16.09 6.27-2.12 6.68-6.05 1.67-10.94.59-1.67 1.14-3.19 1.69-4.72zm-214.48 50.22c6.85-3.85 6.9-4.92.59-9.34-4.66 3.28-4.7 3.73-.59 9.34zm55.28-277.09c-.69 3.57.23 8.96 2.54 9.88 1.7.68 4.18-.62 6.31-1.06.15-.03.24-.32.35-.49-1.39-1.83-1.39-1.83-3.55.34-3.24-1.96-.07-8.13-5.65-8.67zm1.74-2.5c.87-2.82 1.8-5.11 2.15-7.49.11-.74-1.23-2.09-2.18-2.44-.64-.24-2.13.55-2.58 1.29-1.89 3.07-.51 5.57 2.61 8.64zm129.66 5.91c4.08-.9 4.37-6.15.93-11.34-3.49 3.45-1.73 7.29-.93 11.34zm-227.89 258.45c-1.21 1.35-2.27 2.54-3.32 3.72 2.64 2.15 7.21-1.47 9.74 3.65.87-2.55 1.47-4.32 2.08-6.09-3.45 1.12-3.45 1.12-8.5-1.28zm249.84-286.38c-1.76-1.52-3.04-3.36-3.86-3.17-1.34.31-3.49 2.21-3.31 2.96.37 1.51 2.07 2.7 3.22 4.03 1.13-1.1 2.25-2.18 3.95-3.82zm-249.66 63.8c.52.33 1.04.66 1.56.99 1.19-1.57 2.49-3.07 3.51-4.74.39-.64.37-2.33.1-2.44-1.32-.51-2.84-1-4.17-.79-.73.12-1.66 1.62-1.73 2.56-.1 1.45.46 2.94.73 4.42zm13.77 240.08c-6.36-1.14-6.36-1.14-7.33 3.19 2.12 1.85 3.85 4.81 7.64 2.5-1.85-1.36-3.61-2.66-5.74-4.23 1.96-.52 3.32-.89 5.43-1.46zm120.15-252.07c1.9-1.33 3.31-1.98 4.2-3.05.6-.72.86-2.2.53-3.06-.26-.69-1.69-1.37-2.5-1.27-.68.08-1.53 1.23-1.74 2.05-.37 1.47-.31 3.06-.49 5.33zm73.36 108.17c-.35.25-.7.51-1.04.76.67 2.04 1.34 4.09 2.32 7.06 1.66-1.69 2.65-2.7 3.65-3.71-1.65-1.38-3.29-2.74-4.93-4.11zm30.71-144.55c-.99-2.61-1.94-5.08-2.88-7.55-2.7 6.34-1.93 8.32 2.88 7.55zm-234.64 299.78c1.58.51 3.23.86 4.71 1.58 1.37.67 2.45 2.4 4.22.63-6.42-5.39-6.42-5.39-8.93-2.21zm90.19-234.62c4.12.17 4.93-1.15 3.77-6.02-1.6 1.82-4.75 2.43-3.77 6.02zm-20.34-68.21c-2.19-1.93-3.75-3.29-5.97-5.24v6.32c1.81-.33 3.38-.61 5.97-1.08zm50.57 33.69c-.67-1.35-1.25-2.52-2.23-4.49-1.31 2.24-2.22 3.81-3.14 5.38.24.2.48.39.72.59 1.47-.46 2.93-.93 4.65-1.48zm-32.6-27.85c-1.53-1.9-2.52-3.14-3.52-4.37-.31.14-.61.29-.92.43-.27 1.27-.54 2.54-.83 3.94zm-93.64 253.49c1.36-.47 2.66-.93 3.96-1.38-.08-.36-.16-.72-.25-1.08-1.76.37-3.52.74-5.97 1.26.94 1.42 1.55 2.35 2.17 3.29.28-.19.57-.37.85-.56-.24-.5-.49-.99-.76-1.53zm253.26-57.77c.87-1.54 1.48-2.61 2.08-3.68-.71-.22-1.54-.8-2.1-.61-2.25.78-1.21 2.15.02 4.29zm-89.39 100.63c2.48-1.7 3.03-3.41 0-5.47zm-106-318.76c-1.32 1.24-2.33 2.18-3.33 3.12.19.24.38.48.57.72 1.44-.32 2.89-.63 4.63-1.02-.67-1-1.11-1.68-1.87-2.82zm32.06.11c-.41 3.43.59 4.13 4.71 3.33-1.75-1.24-2.98-2.11-4.71-3.33z"/><path d="m242.79 280.87c-1.29-1.71-2.6-3.43-4.04-5.32-.73.95-1.37 1.76-1.97 2.6-1.11 1.53-2.32 2.77-4.48 2.06-.37-.12-.83.08-1.26.09-1.7.05-3.22 2-5.16-.09-2.16-2.33-4.37-4.15-4.02-7.98.31-3.44-.64-6.99-.94-10.51-.06-.68.29-1.4.48-2.09.4-1.46.81-2.91 1.28-4.63h5.12c-.13.22-.25.44-.38.66 1.21 1.04 2.51 1.99 3.61 3.13.89.92 1.5 2.1 2.3 3.11.63.8 1.31 2.05 2.07 2.12 1.03.11 2.62-.41 3.14-1.2 1-1.54 1.44-3.45 2.07-5.22.67-1.87 1.3-3.76 1.97-5.7 3.73.36 5.97 2.37 7.71 5.21 1.74 2.83 2.79 6.16 6.13 7.86.58.29.69 2.06.57 3.09-.41 3.5-.76 7.04-1.65 10.43-.5 1.93-1.92 3.64-3.07 5.36-1.31 1.96-2.77 3.83-4.39 6.05-2.23-.15-3.07-5.49-7.86-3.53.92-1.8 1.82-3.61 2.77-5.5z"/><path d="m154.56 183.54c-.39-3.15 1.45-3.79 3.46-4.22.27.34.54.67.81 1.01-1.42 1.07-2.85 2.14-4.27 3.21z"/></g></svg>