<svg enable-background="new 0 0 400 400" viewBox="0 0 400 400" xmlns="http://www.w3.org/2000/svg"><path d="m385.2 377.6.6-.7c.6.4 1.3.9 1.9 1.5l-.6.7c-.8-.5-1.4-1-1.9-1.5zm.3 7.1c.6-1.4 1.1-2.9 1.5-4.5.3.1.6.3.9.4-.5 1.4-1 2.9-1.5 4.4zm.2-10.1.6-.6c.7.5 1.3 1.1 1.9 1.6l-.7.7c-.6-.6-1.2-1.2-1.8-1.7zm8.4-.8h.8v.9h1.8v.7h-1.8v1.8h-.8v-.3h-1.2v.9h3.3v2.6h-.8v-.4h-2.5c0 .3 0 .6-.1.8h3.4v.7h-3.5c0 .3-.1.6-.1.8h4v.7h-3.5c.7.9 1.9 1.3 3.6 1.5-.2.2-.4.5-.6.9-1.9-.3-3.2-1.1-3.8-2.3-.5 1.1-1.8 2-3.9 2.4-.2-.3-.4-.5-.6-.8 1.9-.4 3.1-.9 3.6-1.7h-3.2v-.7h3.5c.1-.2.1-.5.2-.8h-3.3v-.7h3.4c0-.2 0-.5 0-.8h-2.4v.3h-.8v-2.6h3.3v-.9h-1.2v.3h-.8v-1.8h-1.8v-.7h1.8v-.9h.8v.9h3.2zm-4.4 5.5h2.4c0-.3 0-.6 0-.9h-2.4zm1.2-3.1h3.2v-.8h-3.2zm4.4 2.2h-2.4v.9h2.5v-.9z" fill="#fcfafa"/><path d="m389.2 385.8h.9v1.5h1.9v-1.5h.9v1.5h2.7v6h1.1v.9h-11.3v-.9h1.1v-6h2.7zm.2 8.7.5.8c-1.2.6-2.5 1.3-4 1.9-.2-.3-.3-.6-.6-.8 1.6-.6 3-1.3 4.1-1.9zm-2-4.3h1.9v-2.1h-1.9zm0 3.1h1.9v-2.2h-1.9zm2.7-3.1h1.9v-2.1h-1.9zm0 3.1h1.9v-2.2h-1.9zm2.4 1.3c1.4.6 2.7 1.2 4.1 1.8l-.5.9c-1.5-.7-2.8-1.4-4.1-1.9zm2.2-6.5h-1.9v2.1h1.9zm-1.9 5.2h1.9v-2.2h-1.9z" fill="#fcfafa"/><g fill="#010100"><path d="m274.99 366.17c-1.01 0-2.25 0-3.5 0-21.84 0-43.69-.01-65.53.02-2.26 0-4.26.08-5.74-2.27-.77-1.22-2.51-1.83-3.72-2.66-.4.22-.69.28-.75.43-1.53 3.76-4.47 4.16-8.16 4.16-21.83-.04-43.67.18-65.5.29-.3 0-.59-.14-1.09-.27 0-34.93 0-69.84 0-104.85 5.96.76 5.74 7.67 10.54 10.07 1.73-5.2 2.44-10.29 1.76-15.57-.12-.94-.5-1.9-.38-2.8.82-6.06-3.41-9.81-6.52-13.95-1.28-1.71-3.54-2.68-5.3-4.06-.37-.29-.75-.88-.74-1.32.11-8.46.67-16.93.34-25.36-.62-16-1.02-31.98-.61-48 .26-9.95-.5-19.91-.65-29.87-.21-14.88-.34-29.76-.4-44.64-.07-15.48.05-30.96-.08-46.44-.02-2.74.65-3.71 3.5-3.65 13.13.26 26.26.51 39.39.43 14.93-.09 29.85-.54 44.78-.79 2.01-.03 4.02.26 6.03.26 11.38.02 22.76 0 34.14-.01h28.17c.02 110.14.02 220.32.02 330.85zm-95.97-223.58c1.39.54 2.44.91 3.46 1.35 1.09.47 2.81.77 3.09 1.56.63 1.79 1.12 3.99.66 5.75-1.79 6.81-2.3 13.54-.16 20.34.12.38.14.82.08 1.22-.34 2.08-1.06 4.17-1 6.24.11 3.45.67 6.89 1.14 10.32.41 3.02.04 5.76-1.55 8.49-1.01 1.74-2.04 4.15-1.62 5.9.92 3.77-.68 7.08-.97 10.59-.37 4.43-2.4 9.06-1.58 13.17.85 4.23-.78 6.52-2.87 9.24-2.99 3.89-2.71 5.6.63 9.02 1.2 1.24 2 3.15 2.32 4.88.35 1.89-.26 3.93-.14 5.88.26 4.37.73 8.72 1.08 13.08.58 7.13 1.36 14.25 1.63 21.39.19 5.11.97 10.23-.96 15.39-1.13 3.01-1 6.6-.9 9.91.08 2.67 1.02 5.31 1.44 7.98.44 2.81-.75 4.61-3.54 5.48-1.71.53-3.36 1.32-4.92 2.2-.77.43-1.28 1.31-1.73 1.8 1.9.71 4.14.94 4.38 1.76.42 1.43-.4 3.22-.67 4.86-.19 1.16-.33 2.32-.49 3.48.38.1.75.21 1.13.31 2.57-1.88 5.42-3.41 6.47-6.92.24-.82 1.46-1.62 2.4-1.92 6.03-1.89 12.11-.28 17.99.59 4.53.67 7.34-.92 10.51-3.23-5.13-6.13-6.5-7.78-16.37-4.11-3.7 1.38-7.8 1.49-11.6-.33 1.25-5.99 2.44-11.66 3.61-17.35.15-.71.42-1.57.17-2.16-2.29-5.44.83-11.63-2.38-16.92-.12-.2 0-.65.15-.9 3.64-6.08.65-12.79 1.67-19.23 1.03-6.49-.97-13.46-1.56-20.22-.12-1.39.08-2.81.16-4.22.05-.97-.13-2.06.25-2.89 1.17-2.56 3.27-4.9 3.68-7.54.56-3.57-.24-7.33-.19-11.01.03-2.18.68-4.34.82-6.52.08-1.28-.28-2.6-.47-3.89-.18-1.24-.53-2.46-.54-3.7-.01-1.13.52-2.27.48-3.39-.29-6.59-.09-13.12 1.58-19.55.26-.99.03-2.1.08-3.15.18-3.66.52-7.33.54-10.99.01-2.46-.09-5.01-.74-7.36-.82-2.96-.89-5.73.86-8.19 1.85-2.6 1.85-5.27 1.13-8.11-1.16-4.56.27-8.69 4-11.07 2.51 2.77 5.5 3.02 9.17 2.38 3.73-.65 6.08-2.62 8.83-6.3-1.92 0-3.22.14-4.48-.04-1.52-.22-4.11-.39-4.32-1.13-.81-2.84-2.52-3.29-4.98-3.09-.7.06-1.47-.16-2.13-.45-2.77-1.2-5.47-2.57-8.27-3.71-2.85-1.17-3.71-4.08-1.73-6.43.75-.88 1.53-1.74 2.26-2.57 4.83 1.64 9.01 1.46 12.34-2.72 2.43 1.03 5.89-.14 6.74-2.56.64-1.83 1.02-3.86-2.04-4.19-.77-.08-2.02-.83-2.09-1.39-.57-4.91-3.99-6.85-8.07-8.27-4.06-1.42-8.7-8.33-7.84-12.6.95-4.79.09-9.32-.73-13.91-.19-1.04-1.27-1.93-1.94-2.88-.73.78-1.9 1.44-2.12 2.35-1.1 4.45-3.53 8.58-3.04 13.43.13 1.28-.16 2.87-.84 3.93-2.24 3.45-4.65 6.81-7.22 10.03-.78.97-2.24 1.87-3.44 1.95-4.83.32-8.08 5.49-5.82 9.38.74 1.28 1.39 2.62 2.26 3.81 3.62 4.98 3.89 8.72.66 13.85-1.54 2.45-1.49 4.69 0 7.12.93 1.52 1.86 3.13 2.31 4.83 1.09 4.19 2.64 4.72 5.89 1.87zm42.72-8.91c3.27 1.21 6.52-.08 8.61-3.05.74-1.05 2.17-1.58 3.24-2.41 3.27-2.54 7.06-3.27 11.07-3.64 1.34-.13 2.66-1.25 3.84-2.13 1.87-1.39 3.64-2.92 5.41-4.43 4.22-3.62 4.17-9.08-.05-12.57-.62-.52-.95-1.38-1.58-1.9-.95-.8-1.95-1.7-3.08-2.1-2.98-1.04-6.1-1.69-9.05-2.79-.75-.28-1.51-1.63-1.56-2.53-.13-2.57-2.57-5.3-5.05-4.85-2.61.48-2.47 2.84-2.43 4.8.03 1.24.77 2.47.78 3.7.03 2.17-.11 4.37-.45 6.51-.23 1.45-1.57 3-1.24 4.18.42 1.47 1.98 2.66 3.15 3.87.8.83 2.05 1.35 2.6 2.29.49.85.63 2.22.29 3.13-.29.77-1.41 1.53-2.28 1.71-.97.2-2.14-.1-3.1-.49-3.97-1.62-6.54.44-9.02 3.03 3.51 4.58 3.51 4.73-.1 9.67zm-68.74 158.78c.25.12.51.24.76.36-.31.83-.59 1.67-.93 2.48-1.99 4.76-4.02 9.5-5.98 14.27-1.3 3.16-2.65 6.32-3.7 9.56-.39 1.19.01 2.64.05 3.97 1.24-.58 2.66-.94 3.67-1.79 1.25-1.05 2.17-2.5 3.23-3.78.68-.83 1.42-1.62 2.03-2.5.94-1.35 1.54-3.08 2.74-4.09 3.53-2.95 5.85-6.42 6.89-10.99.43-1.92 2.17-3.53 3.24-5.32.51-.86 1.36-1.95 1.18-2.73-.67-2.78.64-4.89 1.77-7.16 1.12-2.25 2.24-4.56 2.9-6.97.62-2.25-.88-3.67-2.8-4.77-1.97-1.13-2.81.32-3.99 1.34-3.26 2.83-5.68 6.04-6.55 10.48-.38 1.93-2.09 3.59-3.18 5.39-.46.74-.89 1.5-1.33 2.25zm59.39-2.17c-.23.08-.46.16-.7.24.41 1.26.47 2.84 1.28 3.73 4.36 4.83 3.48 12.09 7.99 16.81.12.13.17.41.14.6-.53 3.62 2.28 5.52 4.48 7.12 1.39 1.01 4.5 1.06 6 .15 1.86-1.13 1.64-3.63-.06-5.51-1.06-1.18-2.04-2.44-2.98-3.72-.74-1-1.47-2.02-2.01-3.13-.67-1.36-.74-3.47-1.78-4.13-4.96-3.16-5.03-8.97-7.41-13.44-1.69-3.17-3.19-7.1-2.34-11.29.25-1.22-.91-3.04-1.92-4.1-.79-.83-2.59-1.51-3.52-1.16-.87.33-1.86 2.26-1.65 3.23.8 3.67 2.06 7.24 3.18 10.83.38 1.28.86 2.52 1.3 3.77zm17.37-75.94c-.87-1.7-1.61-3.28-2.46-4.8-.98-1.74-2.47-3.31-2.98-5.17-.7-2.58-1.58-4.68-3.45-6.82-1.54-1.77-.87-5.29-2.06-7.59-2.12-4.11-2.93-8.3-2.58-12.82.11-1.47.04-2.96.01-4.45-.04-2.47-2.63-5.64-4.53-5.13-2.49.67-3.29 2.88-3.01 5.28.54 4.51 1.25 9 1.9 13.5 1.03 7.12 3.97 13.27 9.21 18.27.67.64 1.23 1.44 1.68 2.25 1.58 2.83 3.03 5.73 4.69 8.51.39.65 1.39.94 2.11 1.39.45-.71.89-1.44 1.47-2.42zm-60.51-53.42c-.44.01-.88.03-1.33.04.41 5.96-5.71 9.84-4.38 16.14.12.55-.49 1.39-.96 1.89-4.69 4.99-6.98 11.23-9.07 17.55-.14.42 1.08 1.84 1.68 1.86 5.94.11 9.63-3.63 9.59-9.68-.02-2.79.46-4.93 3.1-6.73 2.09-1.43 3.51-3.92 5.02-6.08.44-.63.58-2.24.17-2.57-3.07-2.52-2.15-5.92-2.41-9.11-.08-1.13-.91-2.21-1.41-3.31zm64.76-90.92c-3.31 4.89-2.85 10.14-2.17 15.39.23 1.82 1.56 2.76 3.11 1.97.83-.42 1.55-2.14 1.43-3.16-.4-3.34-1.29-6.56.16-9.92.81-1.91.01-3.51-2.53-4.28zm-103.78 156.75c2.37-.58 6.11-6.87 5.08-8.79-.25-.47-1.47-.83-2.08-.65-4.31 1.26-5.7 5.77-3 9.44zm8.59-10.51c.26.2.53.4.79.6 1.13-.39 2.58-1.43 3.34-1.06 2.13 1.04 3.69.18 4.49-1.33.91-1.71.05-3.42-1.76-4.47-.59-.34-1.06-.91-1.8-1.58-1.76 2.74-3.41 5.29-5.06 7.84zm21.33 27.6c-2.48-2.97-7.26-4.01-11.57-2.52 3.37 4.55 7.73 5.49 11.57 2.52zm-26.5 55.22c-1.3 1.67-2.01 2.57-2.71 3.49-1.58 2.07-.73 6.42 1.53 7.44.6.27 1.42.24 2.08.1.24-.05.57-1 .41-1.3-1.08-2.09-1.25-4.06-.01-6.21.28-.5-.56-1.62-1.3-3.52zm79.16-146.67c-.41.15-.81.29-1.22.44 0 2.02-.28 4.11.14 6.04.16.76 1.89 1.73 2.85 1.67 1.82-.11 2.43-1.81 1.71-3.26-.88-1.76-2.3-3.27-3.48-4.89zm50.13-23.01c1.42 1.51 2.32 2.45 3.21 3.4.66-1.11 1.73-2.18 1.84-3.35.07-.74-1.19-2.18-1.98-2.28-.75-.09-1.67 1.15-3.07 2.23zm-120.74 216.9c-1.21 1.76-3.37 3.16-1.29 5.36.42.44 2.51.18 2.89-.39 1.38-2.01.31-3.59-1.6-4.97zm-6.16-69.82c-.49.13-.97.26-1.46.4v7.1c.35.13.69.25 1.04.38.69-.76 2.01-1.59 1.93-2.27-.19-1.91-.96-3.75-1.51-5.61zm81.04 54.99c-.74 1.42-1.45 2.19-1.28 2.58.47 1.06 1.3 1.97 1.99 2.94.58-.73 1.72-1.55 1.61-2.16-.16-.97-1.16-1.78-2.32-3.36zm-64.47 34.16c1.22-1.41 2.18-2.52 3.14-3.63-1.58-.09-3.16-.18-5.34-.3.91 1.62 1.36 2.42 2.2 3.93zm116.16-256.28c.47.2.94.41 1.4.61.7-1.27 1.41-2.53 2.11-3.8-.74-.22-2.06-.72-2.12-.61-.57 1.21-.96 2.52-1.39 3.8zm-135.73 188.57c.31.12.62.23.93.35.45-.96 1.29-1.93 1.26-2.87-.03-.93-.93-1.83-1.45-2.75-.32.13-.64.27-.96.4.07 1.62.15 3.25.22 4.87zm36.07-53.39c0-.33 0-.67 0-1-1.79-.36-3.57-.75-5.37-1.02-.22-.03-.79.59-.76.84.06.42.46 1.12.75 1.13 1.8.1 3.59.05 5.38.05z"/><path d="m196.07 113.52c-3.79-.41-7.41-.5-10.85-1.31-1.33-.31-2.59-2.11-3.3-3.53-.69-1.38-1.17-3.27-.82-4.71.86-3.5 4.99-5.55 8.46-4.38 3.29 1.11 6.65 2.2 9.62 3.93 1.22.71 2.38 3.29 2.02 4.6-.68 2.51-1.23 6.01-5.13 5.4z"/><path d="m177.96 132.08c-1.22-3.29.79-4.3 2.89-4.77.64-.14 2.34 1.29 2.35 2.01 0 3.95-3.14 2.21-5.24 2.76z"/><path d="m240.56 119.87c.8-2.2 1.25-3.45 2.15-5.94 1.54 1.87 2.58 3.14 3.62 4.4-.07.36-.14.72-.21 1.08-1.67.14-3.34.28-5.56.46z"/></g></svg>