<svg enable-background="new 0 0 400 400" viewBox="0 0 400 400" xmlns="http://www.w3.org/2000/svg"><path d="m385.2 377.6.6-.7c.6.4 1.3.9 1.9 1.5l-.6.7c-.8-.5-1.4-1-1.9-1.5zm.3 7.1c.6-1.4 1.1-2.9 1.5-4.5.3.1.6.3.9.4-.5 1.4-1 2.9-1.5 4.4zm.2-10.1.6-.6c.7.5 1.3 1.1 1.9 1.6l-.7.7c-.6-.6-1.2-1.2-1.8-1.7zm8.4-.8h.8v.9h1.8v.7h-1.8v1.8h-.8v-.3h-1.2v.9h3.3v2.6h-.8v-.4h-2.5c0 .3 0 .6-.1.8h3.4v.7h-3.5c0 .3-.1.6-.1.8h4v.7h-3.5c.7.9 1.9 1.3 3.6 1.5-.2.2-.4.5-.6.9-1.9-.3-3.2-1.1-3.8-2.3-.5 1.1-1.8 2-3.9 2.4-.2-.3-.4-.5-.6-.8 1.9-.4 3.1-.9 3.6-1.7h-3.2v-.7h3.5c.1-.2.1-.5.2-.8h-3.3v-.7h3.4c0-.2 0-.5 0-.8h-2.4v.3h-.8v-2.6h3.3v-.9h-1.2v.3h-.8v-1.8h-1.8v-.7h1.8v-.9h.8v.9h3.2zm-4.4 5.5h2.4c0-.3 0-.6 0-.9h-2.4zm1.2-3.1h3.2v-.8h-3.2zm4.4 2.2h-2.4v.9h2.5v-.9z" fill="#fcfafa"/><path d="m389.2 385.8h.9v1.5h1.9v-1.5h.9v1.5h2.7v6h1.1v.9h-11.3v-.9h1.1v-6h2.7zm.2 8.7.5.8c-1.2.6-2.5 1.3-4 1.9-.2-.3-.3-.6-.6-.8 1.6-.6 3-1.3 4.1-1.9zm-2-4.3h1.9v-2.1h-1.9zm0 3.1h1.9v-2.2h-1.9zm2.7-3.1h1.9v-2.1h-1.9zm0 3.1h1.9v-2.2h-1.9zm2.4 1.3c1.4.6 2.7 1.2 4.1 1.8l-.5.9c-1.5-.7-2.8-1.4-4.1-1.9zm2.2-6.5h-1.9v2.1h1.9zm-1.9 5.2h1.9v-2.2h-1.9z" fill="#fcfafa"/><g fill="#010100"><path d="m208.68 214.95c3.73 4.52 6.77 8.19 10.05 12.16-4.23 2.29-5.94-2.38-9.09-2.7-1.86 1.71-.8 5.87-5.08 6.27-.6-1.67-1.22-3.4-1.84-5.14 2.43-1.71 5.72-2.21 6.11-6.19-2.59-.87-5.24-1.76-8.31-2.79-1 6.03-4.95 11.04-4.15 17.47.16 1.31-1.63 2.96-2.73 4.28-.72.87-1.88 1.35-2.73 2.13-1.34 1.23-1.26 2.28-.3 4.07 1.88 3.49 3.41 7.27 4.31 11.12.36 1.54-1.31 3.55-2.5 6.43 2.49-.94 4.53-1.26 6-2.35 3.71-2.74 9.18-2.67 12.16.76.53.6.07 2.06.07 3.12-.87-.22-1.74-.5-2.63-.65-1.07-.19-2.41-.74-3.18-.32-2.2 1.21-4.18 2.84-6.3 4.34 2.14 2.73 4.21.73 6.79.6-.46.65-.78 1.69-1.39 1.9-3.37 1.18-4.56 3.8-5.19 7.05.62.38 1.16.68 1.66 1.04 3 2.15 5.72 2.69 8.25-.84.71-.99 2.23-1.4 3.33-2.04 6.35 7.68 7.62 7.75 11.34.74-1.03-1.18-2.1-2.42-3.54-4.08 4.88.13 4.96-2.61 4.46-5.98-.18-1.23-.03-3.2.75-3.77 3.12-2.3 2.58-5.16 1.99-8.22-.82-4.28.37-5.57 4.65-5.44.69.02 1.85-.4 2.01-.88.63-1.91 1.47-3.96-.46-5.97-2.46 2.41-4.48 5.57-8.96 4.03.99-3.66.77-7.19-3.52-9.39 2.36-1.95 4.27-3.78 6.42-5.24 2.23-1.51 2.95-3.32 2.42-5.91-.58-2.85-1.03-5.66 2.54-7.3.56-.26.8-3.14.16-3.76-3.76-3.67-1.69-8.56-2.99-12.7-.09-.29.68-.78.83-1.25.47-1.49 1.35-3.09 1.16-4.52-.6-4.44.16-5.77 4.64-7.04 1.01-.29 1.89-1.05 2.83-1.59-.66-.87-1.28-1.76-1.98-2.59-.26-.31-1.03-.56-1-.69 1.14-4.32-4.82-6.13-3.61-10.63.61-2.3-1.15-3.47-3.5-2.85-.91.24-1.81.56-2.73.74-.38.07-.81-.16-1.22-.25.36-2.42.71-4.77 1.1-7.39 1.78 1.25 3.58 2.5 5.69 3.98-1.29-5.1-2.51-9.93-3.7-14.6 1.75-1.58 3.32-2.82 4.68-4.27 2.96-3.14 3.64-3.26 7.21-.79.6.41 1.2.82 1.76 1.2.24-.23.5-.36.49-.48-.46-6.57-1.12-13.12-1.31-19.7-.05-1.69 1.18-3.53 2.15-5.09.97-1.54 1.04-2.73.2-4.37-.53-1.04-.24-2.49-.36-4.42-1.68-.95-1.68-.95-5.98 2.68-.74-1.51-1.22-4.01-2.36-4.36-1.32-.41-3.22 1.07-4.91 1.75-1.51-2.78-1.48-3.74-.09-6.99.27-.64.22-1.73-.17-2.28-1.55-2.25-1.74-4.3.05-5.83-.53-2.61-1.16-4.78-1.36-7-.2-2.2.57-3.82 2.87-5.06 1.4-.76 2.63-3.08 2.72-4.77.23-4.08-.5-8.13 2.21-11.87 1.12-1.54.64-3.62-1.72-4.63-4.99-2.14-9.69-4.55-12.28-9.88-1.13-2.33-5.35-1.93-7.06.6-3.02 4.48-5.78 9.13-8.54 13.77-.34.57-.35 1.71 0 2.28 2.8 4.58 2.03 9.7 1.92 14.56-.04 1.93-2.57 3.72-3.64 5.75-.66 1.24-.72 2.81-1 4.24-.37 1.87-.1 4.18-1.12 5.56-5.01 6.81-12.1 10.78-20.01 13.31-.88.28-2.33-.18-3.09-.81-2.44-2.02-4.68-4.28-6.53-6 0-2.67.01-4.8 0-6.93-.02-3.38.34-6.72-1.36-9.98-2.11-4.06.98-6.91 2.44-8.87-1.41-5.4-3.77-10.04-3.42-14.46.27-3.46-1.17-7.5.02-9.77 1.6-3.06 1.39-6 2.11-8.94.42-1.72-.19-2.84-2-3.28-3.81-.91-7.58-2-11.42-2.73-.98-.18-2.28.57-3.22 1.21-.84.57-1.31 1.67-2.1 2.36-4.82 4.22-6.48 9.1-3.78 15.26.52 1.18.12 2.94-.28 4.31-.6 2.06-2.2 3.97-.11 6.08.21.22.05 1.05-.19 1.44-3.41 5.64-3.69 12.45-2.21 17.89 1.58 5.78-.16 10.78.06 16.1.17 3.92-1.41 6.96-3.66 8.85-2.33-.1-4.03-.15-5.73-.27-.83-.06-1.72-.1-2.46-.43-4.25-1.9-8.51-3.8-12.66-5.91-.77-.39-1.45-1.72-1.51-2.66-.38-6.17-.41-6.24-6.71-5.43-.41.05-.83-.04-.31-.01-2.1-4.18-4.07-7.82-5.74-11.59-.68-1.52-.67-3.34-1.04-5.01-.81-3.58.34-7.86-4.79-9.7-2.06-.74-3.63-3.42-4.93-5.52-1.41-2.27-3.44-2.07-5.28-1.7-1.17.24-2.39 1.46-3.05 2.57-.72 1.22-.87 2.8-1.18 4.24-.71 3.29-1.36 6.6-2.11 10.26 6.26.95 6.57 5.84 5.72 11.51-.15.98.52 2.54 1.32 3.12 2.46 1.79 2.97 3.96 2.12 6.68-.87 2.76.07 4.98 2.09 6.87 5.67 5.27 11.14 10.78 17.1 15.7 2.33 1.92 5.77 2.46 8.65 3.75 2.87 1.28 5.65 2.78 8.53 4.05.97.43 2.14.42 3.42.65.05.93.11 2.06.21 3.78 2.2-1.23 4.08-2.28 5.5-3.07 1.82 1.03 3.89 1.55 4.84 2.87 1.67 2.32 3.39 5.02 3.77 7.75.72 5.12.51 10.36.64 15.56.02.71-.02 1.7-.45 2.11-2.7 2.55-1.27 5.05-.41 7.83.92 2.96 1.34 6.13 1.6 9.24.24 2.86-2.54 5.11-5.46 5.14-1.61.01-3.2.64-4.82.73-.88.05-2.03-.15-2.64-.7-1.56-1.4-2.62-1.71-4.08.25-1.45 1.95-3.33 2-5.02-.02-1.49-1.79-3.04-3.53-4.78-5.54-2.18 1.89-4.29 3.73-6.55 5.69-3.17-4.38-7.33-2.8-11.32-1.91-.68.15-1.39.92-1.76 1.59-1.4 2.49-2.82 4.99-3.9 7.63-.47 1.16-.31 2.68-.12 4 .32 2.29.87 4.55 1.4 7.2-1.05 0-2.25.31-2.49-.05-2.52-3.66-3.86-.78-5.51.74 1.3 3.29 3.45 3.78 6.32 2.36 2.68-1.33 5.44-1.66 8.27-.44 5.6 2.43 11.27 1 16.91.26 3.73-.49 7.18-.75 10.63 1.58 3.11 2.1 7.43 1.12 10.43-1.86 1.67 5.31 4.95 9.83 4.6 15.6-.19 3.06-.19 6.16 0 9.22.33 5.49-.31 10.81-2.53 15.83-1.94 4.39-1.58 8.63.14 12.92 1.2 2.99 2.32 5.94.2 9.05-.3.43-.05 1.42.23 2.03.38.86.93 1.69 1.57 2.38 4.16 4.52 4.61 9.19 1.04 14.35-1.91 2.77-1.54 5.64.94 8.05 1.44 1.4 3.08 2.6 4.43 4.08 1.83 2.01 3.66 4.07 5.12 6.35 1.42 2.21 1.26 4.43-1.65 5.79-3.99-2.24-8.07-5.9-12.43.09-.22-.24-.44-.47-.67-.71.6-1.62 1.2-3.23 1.83-4.9-2.67-1.68-5.41-3.41-8.46-5.33-.96 2.53-1.92 5.28-3.05 7.97-1.55 3.7-3.14 4.5-7.73 3.8 1.27-1.76 2.39-3.33 4.15-5.78-2.59.44-4.57.55-6.39 1.15-1.87.6-3.58 1.68-5.62 2.67-.45-3.41-.85-6.42-1.25-9.39 6.17-2.57 8.45-5.64 7.88-11.11-.17-1.67-1.2-3.26-1.93-4.85-.92-2-2.07-3.91-2.84-5.97-.22-.59.52-1.55.83-2.34.74-1.89 2.13-3.8 2.07-5.66-.1-3.22-1.28-6.38-1.68-9.61-.64-5.12-1.06-10.27-1.49-15.41-.26-3.15.04-6.41-.65-9.45-1.08-4.8-5.75-6.32-10.29-4.29-4.4 1.97-9.07 3.35-12.98 4.76-1.65-2.77-2.86-4.97-4.28-7.02-.2-.29-1.42.12-3.18.33 3.44 2.94 2.66 5.35.82 7.94-1.17 1.65-.82 3.3 1.05 4.61 1.71 1.2 3.2 2.71 5 4.28-6.26 5.64-12.27 11.12-18.37 16.51-3.06 2.7-6.27 5.21-5.74 10.04-2.71 0-4.99 0-8.07 0 .55-2.88 1.06-5.55 1.67-8.71-.33-.07-1.32-.61-1.83-.32-1.55.88-3.18 1.88-4.26 3.24-.64.8-.53 2.41-.38 3.61.25 1.91.82 3.77 1.34 5.97-2.03 0-3.05 0-4.31 0 0-1.43 0-2.76 0-4.09-1.58-1.02-3.08-1.99-4.6-2.98 2.64-2.57 2.51-3.38-1.1-7.17 1.5-1 2.99-2 4.76-3.18-1.17-.67-2.14-1.23-3.1-1.79-.91-.53-1.82-1.06-1.94-1.13 0-2.29-.03-3.97.01-5.65.02-.81-.1-1.85.33-2.38 1.55-1.9 3.18-3.77 5.03-5.36.93-.8 2.41-.97 3.99-1.56.74 3.32 1.38 6.17 2.11 9.46-2.31.27-4.44.52-6.57.77-.18.23-.36.47-.54.7 3.94 2.99 7.74 6.2 11.89 8.89 2.13 1.38 4.11.63 4.11-1.89-1.46-1.03-3.16-1.63-3.6-2.73-.38-.94.67-2.46 1.3-4.38-.2-.3-.89-1.33-1.11-1.65 1.72-2.78 3.31-5.37 4.91-7.97.33.53.66 1.06.99 1.6 1.26.89 2.75 2.75 3.72 2.51 3.92-.96 6.73-3.37 6.74-8.11-1.74 0-3.52 0-4.39 0-1.78-3.57-3.4-6.54-4.73-9.63-.37-.87-.15-2.18.21-3.14 1.3-3.47 3.36-6.93-.94-9.81 2.85-5.61 5.6-11.03 8.73-17.22-5.24.54-4.34-2.82-4.99-5.5-1.04-4.28-2.59-8.44-4.02-12.61-.68-1.99-1.56-3.9-2.38-5.9 2.05-1.78 3.97-3.43 6.34-5.48-5.05-2.63-5.69-7.46-6.63-12.14-.16-.82-.5-1.88-.16-2.48 1.86-3.24-.21-5.06-2.25-6.97-.62-.58-1.18-1.21-1.77-1.83-3.8-3.94-3.98-5.3-1.55-10.72-1.1.41-2.39.58-3.26 1.28-2.81 2.27-5.35 1.7-6.55-1.66-1.51-4.24-6.57-5.65-10.13-2.67-1.95 1.62-3.73 3.48-5.41 5.38-2.38 2.7-2.07 7.07.41 9.8.75.83 1.4 1.85 1.77 2.9 1.41 3.94 2.48 8.02 4.07 11.89 3.06 7.42 7.04 14.52 6.82 22.92-.08 3.1-.36 5.85-3.04 8.24-3.1 2.76-2.61 6.6.35 9.36 3.99 3.74 3.2 8.66 3.34 12.96-2.62.65-5.05.98-7.21 1.94-.83.37-1.26 2.14-1.44 3.34-1.07 6.86-.36 8.18 5.51 10.31.44-.99.89-2.02 1.35-3.04 1-2.23 4.02-2.7 5.27-.68 3.34 5.39 6.54 10.86 9.8 16.3-.22.28-.44.56-.66.84-1.27-.89-3.02-1.49-3.74-2.71-3.43-5.79-5.45-6.59-11.57-3.95-2.16-2.66-3.88-2.69-5.82-.06-2.12 2.88-4.2 5.79-6.5 8.97 6.14 1.46 6.04 6.96 8.49 11.55-2.11-.24-3.61-.41-5.43-.61v12.67c-3.09 0-6.42 0-10.12 0 1.46-2.82 1.03-4.91-1.33-6.58-.48-.34-.74-1.28-.75-1.95-.06-4.66-.03-9.31-.03-14.13 1.44-.37 2.8-.58 4.04-1.09 1.03-.42 2.2-.99 2.8-1.85.57-.82.47-2.1.67-3.18-1.04.15-2.09.23-3.11.48-.58.14-1.08.56-1.62.85-.26-.23-.52-.46-.77-.69 2.25-2.72 4.5-5.43 6.8-8.2 1.52.87 2.76 1.58 4.71 2.7-.36-1.51-.36-2.44-.79-3.07-.61-.9-2.16-1.54-2.21-2.35-.1-1.85-.02-4.04.89-5.53 1.5-2.46 1.49-4.61.69-7.22-.47-1.53-.09-3.34-.09-5.39-1.1-.39-2.33-.84-4.13-1.48-.69 5.3-1.35 10.29-2.07 15.8-1.55-.73-2.23-1.05-3.05-1.44-.69 3.24 1.81 6.69-1.41 9.84-.43-3.71-.82-7.09-1.23-10.56 2.92-.75 2.51-2.14 1.69-4.59-1.16-3.42-1.29-7.21-1.73-10.85-.19-1.55-.03-3.15-.03-4.98.86 0 1.55.02 2.25 0 2.93-.08 4.28-1.63 3.03-4.31-1.19-2.56-.83-4.37 1.33-6.27-.89-.94-1.66-1.75-2.5-2.64-1.17 1-2.19 1.87-3.4 2.91-.25-1.28-.45-2.29-.5-2.57 1.17-1.96 2.03-3.4 3.1-5.19 1.52.89 3.46 2.03 5.45 3.19 1.31-1.5 2.6-3 3.92-4.51-.49-.74-1.87-1.94-1.95-3.23-.07-1.12 1.33-2.33 2.33-3.89-2.26-.19-4.79-.4-7.8-.66.38 1.95.72 3.25.85 4.58.04.47-.44.99-.68 1.49-.54-.34-1.4-.56-1.55-1.03-.4-1.19-.33-2.54-.76-3.72-.46-1.27-1.3-2.4-1.92-3.62-.27-.52-.57-1.11-.57-1.67-.04-8.37-.03-16.74-.03-25.23 2.53.95 4.44.26 5.28-3.1.56-2.26.5-3.65-1.76-4.9-3.51-1.94-5.27-6.28-3.95-9.9.39-1.06 2.15-1.62 3.65-2.66-.86-3.39-.06-7.32-2.67-11-1.44-2.03-1.01-5.4-1.46-8.47 1.08.13 1.56.05 1.85.25 4.48 3.04 8.19 1.47 9.21-4.08.45-2.45 1.09-4.54 4.24-5.4.11 4.34 3.54 3.67 6.39 4.51 3.19.94 6.08 2.89 9.1 4.41 1.22.61 2.42 1.26 3.22 1.68 2.38-1.88 4.51-3.56 6.64-5.24.07.45.15.89.22 1.34 1.8.68 3.7 1.17 5.35 2.1 1.01.57 2 1.7 2.33 2.79.48 1.59.72 2.94 3.45 2.02.19-3.36.51-6.99.55-10.62.02-1.82-1.26-2.72-3.11-2.91-5.28-.53-10.57-2.86-15.81.55-1.13-1.67-2.02-3.1-3.05-4.42-.56-.72-1.31-1.71-2.05-1.78-5.41-.47-7.27-5.04-9.13-8.72-2.91-5.77-4.72-12.09-6.89-17.9 3.26.27 7.19.59 11.79.96-1.56 2.18-2.7 3.34-3.32 4.73-1.72 3.86.12 6.23 4.56 6.09 3.27-.1 3.27-.1 5.12 2.18-.3.54-.6 1.09-.92 1.64-3.49 6.03-3.44 6.6 1.85 11.11.89.76 2.25 1.36 3.39 1.36 3.34 0 7.36-5.94 8.16-8.93 1.08-4.01 3.61-7.63 5.64-11.36.37-.67 1.28-1.05 1.31-1.07 0-2.99.07-5.38-.05-7.77-.03-.6-.55-1.32-1.05-1.73-1.55-1.29-3.3-2.34-4.76-3.71-1.19-1.11-2.88-2.51-2.94-3.84-.12-2.73 1.93-4.18 4.93-4.59v7.15c5.11 1.08 7.15.43 7.98-2.53-.62-.3-1.26-.62-1.91-.94-2.28-1.1-3.31-2.27-1.32-4.82 2.39-3.06 1.34-5.21-2.5-5.58-2.18-.21-3.34-1.43-4.9-2.78-2.54-2.21-5.72-4.36-8.91-4.92-2.63-.46-1.07 2.07-.08 3.45-.33.2-.67.39-1 .59-1.1-1.12-2.21-2.25-3.67-3.73 1.29-.45 1.89-.66 2.84-.99-2.08-1.54-3.86-2.84-5.63-4.14.05-.29.1-.58.15-.87 6.51 1.11 13.01 2.23 19.97 3.42 1.49-2.94 4.35-2.71 7.45-1.33 2.84 1.26 5.84 1.67 8.51.04 3.27-2.01 6.14.52 9.21.24.8-.07 1.62-.04 2.41-.18 3.06-.57 6.11-1.69 9.16-1.7 12.59-.05 25.18.29 37.77.39 10.38.08 20.75.02 31.35.02.04 2.22 1.1 2.16 3.73 1.65 5.89-1.14 11.95-1.65 17.96-1.82 13.03-.36 26.07-.37 39.11-.46 1.03-.01 2.06.41 3.09 1.13-3.69 2.49-8.9 1.6-11.38 6.92.47.33 1.21.85 1.95 1.36-.14.18-.28.37-.42.55-.72-.47-1.55-.83-2.13-1.43-3.16-3.27-5.53-3.59-9.14-.81-.71.55-1.43 2.24-1.11 2.77 3.18 5.21 6.58 10.29 10.32 16.04.94-2.21 1.63-4.1 2.54-5.87.49-.96 1.37-1.72 2.08-2.57.59 1.03 1.38 2.01 1.71 3.12.29.95.06 2.06.06 3.75 4.04-3.06 7.62-5.77 11.55-8.75.69 1.49 1.27 2.77 1.63 3.55-2.58 1.87-4.84 3.63-7.23 5.19-.99.65-2.24 1.17-3.41 1.26-4.06.3-6.55 3.44-5.91 7.56.45 2.9.92 5.83.99 8.76.02 1.01-.92 2.42-1.83 2.98-1.82 1.12-2.24 2.31-1.96 4.42.37 2.73.09 5.55.09 8.69.27.08 1.34.4 2.4.72-.81 5.13-.65 5.28 4.51 6.32 1.64.33 3.39.71 4.77 1.58 2.11 1.34 3.38 3.14 1.34 5.75-.78 1.01-1.12 2.46-1.38 3.76-.58 2.92.01 6.07-2.47 8.57-.66.66-.75 2.65-.25 3.59 4.47 8.5 1.01 16.94.23 25.46-.79 8.73-1 17.52-1.35 26.29-.04 1.09.78 2.2.89 3.33.14 1.33-.34 2.77-.06 4.05 1.11 5.02-3.35 8.45-3.6 12.92-.21 3.67.56 7.38.85 11.08.09 1.15.38 2.49-.07 3.44-3.13 6.75-2.38 13.91-2.27 20.96.05 3.12-.41 5.88-2.53 8.21-1.4 1.53-1.58 3.12-.55 4.91 3.01 5.27 2.56 10.32-.33 15.63-1.85 3.39-.43 6.96 1.26 10.27.88 1.72 1.82 3.57 2 5.43.4 4 2.4 5.41 6.13 3.82 3.79-1.62 4.2-1.41 5.26 2.76-2.55 2.82-5.03.45-7.57-.18-2.25 2.4-4.56 4.71-6.69 7.19-1.86 2.15-3.11 4.11-1.79 7.57 2.38 6.24-.27 11.53-6.28 14.49.31-1.78.6-3.41.92-5.18-1.6-.87-3.15-1.72-4.66-2.54 2.63-2.72 5.17-5.34 8.34-8.61-2.14-.6-3.72-1.05-5.95-1.68-.15-3.73-4.34-4.42-7.82-5.91 2.57-4.38 4.68-8.68 9.92-10.2-6.8-.86-12.68 1.13-18.46 4.02-.41-1.03-.59-1.89-1.05-2.54-.66-.94-1.49-2.37-2.33-2.43-1.07-.08-2.55.74-3.28 1.64-1.38 1.69-2.36 3.72-3.55 5.69 1.59 1.52 4.7 1.52 4.09 4.8-3.26.9-6.27 1.02-9.09-1.45-2.56-2.24-5.35-4.34-7.79-.55-1.28-.76-2.27-1.81-3.28-1.83-1.48-.04-2.97.32-3.5 2.44-.71 2.77-2.05 2.96-3.91.93-4.24-4.63-3.54-8.28 2.17-11.21.56-.29 1.11-.6 1.66-.89-2.07-4.85-2.99-9.45-.39-14.51 1.05-2.04.51-4.97.47-7.49-.05-3.27.46-6.11 2.9-8.71 3.02-3.21 1.62-7.34 1.12-11.11-.31-2.33-1.08-4.6-1.64-6.9-.32-1.33-.74-2.65-.89-4.01-.12-1.11.09-2.25.15-3.37.03-.46.22-.98.08-1.38-1.49-4.32.81-8.44 5.34-8.84 2.86-.26 5.06-1.56 7.55-2.71 3.25-1.5 7.03-1.85 10.59-2.63.43-.09 1.17.13 1.4.46 1.49 2.19 3.47 1.46 5.46 1.12.87-.15 2.35-.24 2.58.18.44.79.4 2.03.14 2.97-.68 2.39-2.66 3.08-4.87 2.04-.69-.33-1.53-.19-3.2-.32zm-95.6-76.68c-1.48 1.14-2.57 1.98-3.65 2.82-1.07.84-2.14 1.68-3.21 2.52-.06-.33-.13-.66-.19-.99-1.91 0-3.84-.15-5.73.05-1.45.15-2.87.7-4.29 1.12-3.35 1-4.59 3.76-2.92 6.79 1.55 2.81 3.08 5.53 2.08 8.98-.2.69.5 1.65.86 2.72.8-.98 1.3-1.58 1.96-2.39 3.83 2.49 7.54 4.74 11.04 7.29.83.6 1.4 2.28 1.25 3.35-.48 3.43-1.36 6.8-2.04 10.01 5.84 5.31 11.03.52 16.64-.26-2.22-8.03-9.29-11.55-14.69-17.3 2.37-.93 4.59-2.65 6.34-2.26 2.06.45 3.71 2.74 5.65 4.32 1.93-.99 3.98-2.05 5.98-3.08-1.39-5.29-2.65-6.04-7.55-5.65-2.44.2-4.93-.29-7.59-.49 1.16-6.12 5.07-11.67.06-17.55zm17.92-62.94c.18-5.92-4.4-8.16-7.75-11.31.38-.68.67-1.24.99-1.77 2.12-3.58 1.84-9.62-.41-12.57-2.89-3.79-6.02-1.21-9.18-.64-1.46.26-3.08-.34-4.63-.54-2-.26-4.19-1.13-5.97-.61-2.99.87-5.36.39-7.71-1.37-.71-.53-1.48-.97-2.57-1.67-.15 6.48-4.9 8.92-9.14 11.81.7 1.31 1.32 2.46 2.02 3.77 4.04-3.2 7.75-6.15 10.78-8.55 3.91 2.38 7.32 4.46 10.74 6.55-.65 2.43-5.04 3.57-3.1 7.85 5.8-4.77 8.29.54 11.69 3.46-.81 1.42-1.64 2.85-2.56 4.45.85.65 1.55 1.18 2.18 1.66 1.37-1.09 2.46-2.11 3.7-2.9 1.27-.81 2.46-.76 2.88 1.03.61 2.58 2.17 3.02 4.48 2.17 1.1-.39 2.26-.53 3.56-.82zm-15.37 144.75c-.88 1.6-1.68 3.06-2.59 4.72 1.7.19 2.9.33 4.58.52-1.11 1.35-2.23 2.2-2.58 3.3-.28.9 0 2.48.65 3.08 2.41 2.2 4.35 1.95 7.15-.56 3.53 2.06 7.09 4.13 10.65 6.22 4.34 2.55 5.01 7.47.94 10.31-2.69 1.87-2.74 3.62-1.46 5.98.61 1.14 1.42 2.88 2.33 3.01 2.09.3 3.7-.76 4.39-3.17.54-1.88 1.53-3.74 2.73-5.27 1.41-1.8 1.84-3.57.99-5.58-.77-1.83-1.61-3.69-2.74-5.31-1.7-2.44-1.57-4.74.57-6.52 2.26-1.88 2.25-3.96 1.69-6.66-3.14 1.52-6.37 2.65-9-.04-2.93-3-6.27-2.07-10.03-2.14.55 1.31.93 2.23 1.29 3.09-.4.28-.66.54-.73.49-2.85-1.74-5.68-3.51-8.83-5.47zm-48.5-92.82c-6.83-5.75-6.83-5.75-12.94-1.51.2.94.41 1.95.56 2.66 1.4-.49 2.73-.96 4.06-1.43.13.28.27.56.4.84-.86 1.13-1.72 2.26-3.15 4.14 3.95-.96 6.89 2.27 10.37.03 2.65-1.71 4.55-.8 5.71 2.29.41 1.11 1.01 2.14 1.59 3.36 2.52-1.73 4.65-3.19 6.87-4.72.77 1.69 1.42 3.12 2.16 4.75 2.02-.58 4.02-.93 5.8-1.74.87-.4 1.88-1.66 1.89-2.54.03-1.6-.3-3.42-1.08-4.79-3.33-5.81-15.55-10.78-22.24-9.25-.89 2.36-.58 4.28 2.3 5.18-.87 1.01-1.54 1.81-2.3 2.73zm19.57 38.09c.26.1.53.19.79.29 1.05-2.45 2.94-4.88 2.98-7.34.08-4.39-.55-8.9-1.6-13.18-1.17-4.78-9.19-6.89-13.1-3.75-.56.45-.81 1.31-1.2 1.97.61.33 1.19.82 1.85.96 2.81.61 3.72 2.14 3.69 4.92-.01 1.56.54 3.72 1.64 4.58 3.4 2.65 4.93 5.88 4.75 10.08-.02.49.13.98.2 1.47zm87.33-113.39c1.23 3.95 3.99 4.48 7.09 4.78 4.73.46 5.41 1.76 3.74 5.84-.33.8-.48 2.06-.07 2.68.37.54 1.65.71 2.5.64 2.38-.19 3.64-1.43 3.35-4-.18-1.57-.39-3.21-.13-4.73.16-.94 1.09-2.32 1.87-2.47 1.61-.31 3.15.19 3 2.53-.06.92.4 1.87.66 2.96 4.97-3.65 5.51-6.19 2.88-10.97-6.72 1.55-13.35 3.08-19.68 4.54-1.76-.61-3.48-1.2-5.21-1.8zm-39.48 7.25c3.92 1.82 6.79 1.48 7.26-1.08.65-3.54-.2-6.77-2.97-9.21-2.71-2.39-4.35-1.92-5.44 1.44-.45 1.4-1.02 2.9-.9 4.3.32 3.97-.61 7.13-4.77 8.79 1.9 2.41 3.51 4.63 5.32 6.67.5.57 1.69 1 2.37.81.6-.17 1.41-1.37 1.31-1.98-.39-2.43-1.12-4.81-1.7-7.21-.21-.84-.33-1.69-.48-2.53zm99.45 93.58c-.23 1.82-.53 3.45-.6 5.08-.04.94.06 2.04.51 2.83 2.32 4.05 2.22 5.15-1.2 8.2 1.43 1.92 2.87 3.85 4.99 6.71.9-1.94 1.88-3.19 2.02-4.52.27-2.62-.22-5.32.15-7.92.7-4.93-.97-8.33-5.56-10.28-.18-.06-.37-.12-.31-.1zm-34.59-73.55c1.09-1.2 2.07-2.28 3.05-3.37 2.96-3.27 2.36-7.2-1.64-9.21-1.59-.8-3.52-.91-5.21-1.31-2.56 6.31-1.86 8.8 3.8 13.89zm-112.38 107.88c.26-1.51.54-3.02.78-4.53.51-3.16 1.42-6.32 1.41-9.48-.01-2.97-2.21-4.71-5.26-5.49-2.54 7.18-.71 13.49 3.07 19.5zm14.69-17.3c-2.31 4.16-4.5 8.09-6.68 12.03.33.27.65.53.98.8 2.61-1.81 7.23-.07 8.26-4.17 1.05-4.18 3.77-9.15-2.25-12.42-.9.75-1.84 1.53-2.91 2.43 1.09.57 1.83.94 2.6 1.33zm3.81 47.91c-2.46 2.01-4.45 3.48-6.26 5.15-2.59 2.4-2.65 4.07.46 8.01.79 1 3.14.78 5.05 1.18.27-5.06.48-9.24.75-14.34zm-66.27-14.06c.74 1.6 1.4 3.03 2.06 4.45-.23-.06-.47-.12-.7-.18-.75 2.31-1.51 4.62-2.39 7.31 2.36-.19 3.83-.38 5.3-.42 2.64-.07 2.3-1.67 1.63-3.26-.29-.69-1.08-1.17-1.72-1.82 3.72-3.18.66-6.63.95-10.86-2.12 1.96-3.49 3.25-5.13 4.78zm54.07-78.54c.32 3.66.63 7.01.89 10.35.31 3.99.33 4.02 4.54 3.86 2.33-8.21 1.16-11.6-5.43-14.21zm35.59-46.21c-1.09 1.73-2.42 3.29-3.09 5.1-.35.97.08 2.7.8 3.48 1.39 1.48 3.32 2.44 4.88 3.79 1.42 1.23 2.47.97 2.63-.73.1-1.07-.45-2.65-1.26-3.27-1.67-1.28-2.46-2.61-1.61-4.57.99-2.27-.32-3.02-2.35-3.8zm-81.1 46.7c-1.76.36-3.29.9-4.84.95-3.65.12-3.95 2.18-3.42 5.09.48 2.66 2.38 3.67 4.72 2.29 2.96-1.72 4.12-4.28 3.54-8.33zm184 168.29c5.29-3.3 5.86-4.19 4.04-6.61-1.16-1.55-2.73-2.51-4.57-1.05-2.6 2.05-2.42 4.72.53 7.66zm-46.74-224.97c.7 4.66 1.36 8.98 2.04 13.5 1.2-.34 2-.57 3.03-.86-1.12-.87-1.92-1.5-2.72-2.11 4.19-6.32 3.87-8.14-2.35-10.53zm9.52 198.3c-.95.34-2.12.42-2.82 1.05-3.5 3.15-3.58 5.15-.63 10.06 1.09-.55 2.18-1.09 3.23-1.62-1.97-5.46-1.97-5.46.22-9.49zm-111.49-30.32c2.13-2.15 4-3.87 5.61-5.81.38-.45.13-2.06-.36-2.41-.52-.38-1.78-.14-2.51.24-2.89 1.48-3.8 3.95-2.74 7.98zm57.82 29.54c-1.38-1.94-2.64-3.72-4.01-5.66-.98 2.85-1.7 4.85-2.33 6.88-.13.41-.04 1.16.23 1.35.4.28 1.18.44 1.58.23 1.39-.73 2.69-1.64 4.53-2.8zm-26.55-184.9c.35.2.7.41 1.05.61 1.55-.58 3.24-.96 4.59-1.83.54-.35.36-1.81.51-2.77-1.67.29-3.47.31-4.95 1-.7.34-.81 1.96-1.2 2.99zm72.17 12.08c1.57 2.08 2.45 3.24 3.65 4.82 1.12-1.09 2.34-1.92 2.93-3.07.23-.44-.89-2.23-1.57-2.35-1.35-.23-2.82.28-5.01.6zm-42.26 202.89c-1.62-1.83-3.25-3.66-5.02-5.66-.98 1.06-1.71 1.85-2.52 2.72 2.19 2.13 3.66 5.24 7.54 2.94zm-13.05-146.28c1.02 3.05 1.84 5.53 2.96 8.88 1.1-1.34 2.26-2.11 2.24-2.85-.07-2.9-1.84-4.7-5.2-6.03zm10.73 131.62c1.24-.76 2.18-1.34 3.64-2.23-1.84-2.24-3.47-4.22-5.11-6.21-.19.12-.37.23-.56.35.66 2.6 1.31 5.2 2.03 8.09zm43.32-232.08c1.67-1.02 3.17-1.79 4.48-2.8.43-.33.67-1.36.49-1.88-.17-.49-1.02-1.02-1.59-1.05-2.22-.12-4.21 2.9-3.38 5.73zm23.68-2.57c1.76-.24 3.16-.43 5.12-.69-1.49-1.63-2.64-2.88-3.86-4.22-.94.64-1.69 1.16-2.55 1.74.43 1.06.82 2.01 1.29 3.17zm-20.06 42.48c.25.31.5.61.76.92 1.26-.74 3.16-1.2 3.64-2.28.76-1.74-.41-3.17-2.69-3.68-.59 1.71-1.15 3.38-1.71 5.04zm-6.21 8.06c1.53-1.61 2.63-2.63 3.51-3.82.16-.21-.65-1.61-.92-1.59-1.38.14-2.73.57-4.26.95.57 1.52.89 2.38 1.67 4.46zm-57.79 55.05c.2-.29.39-.57.59-.86-1.18-1.93-2.36-3.86-3.89-6.37-.68 1.86-1.16 3.15-1.63 4.45 1.9 1.08 3.41 1.93 4.93 2.78zm-87.99 102.98c-.37.14-.74.29-1.11.43-.32 1.81-.65 3.62-.97 5.43.27.18.53.36.8.54 1.03-1.1 2.44-2.06 2.93-3.36.27-.71-1.04-2.01-1.65-3.04zm153.11-23.29c4.09-4.83 4.09-4.83 2.51-6.77-3.98 4.01-3.98 4.01-2.51 6.77zm-56.41-56.42c1.25 3.02 1.42 3.07 5.41 1.71-.6-1.17-1.18-2.3-1.81-3.52-1.35.68-2.38 1.19-3.6 1.81zm8.13-16.31c0-2.32 0-3.73 0-5.13-.24-.11-.48-.23-.71-.34-.68 1.34-1.43 2.65-1.94 4.05-.05.11 1.47.8 2.65 1.42zm-7.57-59.67c.33.17.66.35.99.52.59-.97 1.59-1.94 1.62-2.92.02-.71-1.28-1.45-1.99-2.18-.2.22-.41.45-.61.67-.01 1.3-.01 2.61-.01 3.91z"/><path d="m316.68 239.2c1.18 4.55 2.34 8.69 3.29 12.88.22.94-.14 2.08-.44 3.06-1.5 4.89-.24 8.82 4.43 10.96 3.05 1.39 4.15 3.17 3.67 6.29-.11.72-.02 1.48-.02 2.22.01 4.2 1.26 5.12 5.42 4.33.88-.17 2.47.27 2.73.87.33.74-.08 2.24-.7 2.89-2.25 2.36-5.11 1.68-6.49-1.36-.39-.87-.66-1.85-1.27-2.54-1.01-1.14-2.36-1.8-3.32.02-.93 1.77-1.78 3.63-2.32 5.54-1.07 3.87-.1 5.16 4.05 5.57 2.31.22 3.87 1.34 4.22 3.59.25 1.61.51 3.23 2.35 3.08 1.22-.1 2.4-1.2 3.52-1.96.5-.34.8-.96 1.34-1.64 1.44.92 2.83 1.81 4.24 2.71 4.53-10.79 3.28-17.71-8.38-22.08 2.09-4.26 4.17-8.51 6.25-12.76.2.03.4.06.6.1.17 2.46.24 4.94.52 7.39.32 2.82 1.3 3.29 3.71 1.96 5.05-2.78 6.03-5.04 4.4-10.69-.19-.67-1.19-1.27-1.94-1.59-1.04-.45-2.21-.61-3.82-1.02 1.63-1.8 3.07-3.38 4.52-4.97-1.46-.98-4.49 1.58-4.38-2.48 1.46-.72 3.04-1.49 4.78-2.34.48 1.55.88 2.83 1.38 4.44 1.64-2.68 2.43-5.28.97-7.89-1.66-2.98-1.37-6.02-1.39-9.21-.02-2.98-1-5.94-1.6-9.11.19-.03 1.09.03 1.79-.32 1.6-.79 3.82-1.43 4.48-2.77.98-2.03 1.11-4.38-.72-6.74-1.35-1.75-1.45-4.46-2.2-7.09 4.39-.07 5.52-2.84 5.39-6.17-.05-1.26-1.14-3.26-2.11-3.51-1.29-.33-3.78.32-4.26 1.28-1.22 2.46-1.53 5.36-2.35 8.03-.32 1.02-.97 2.65-1.62 2.73-1.55.19-3.82.14-4.61-.81-.7-.84-.33-4 .47-4.43 2.93-1.56 3.42-4.15 3.94-6.84.28-1.45.37-2.94.47-4.42.3-4.69-1.64-7.15-6.37-7.78-.8-.11-1.73.74-2.75 1.22-.11-2.61-1.83-5.29.75-7.7.2-.19.15-.81.02-1.16-.91-2.46.55-3.31 2.54-3.63 2.67-.43 3.26-2.09 3.82-4.54.63-2.74 2.29-5.27 3.67-7.8.8-1.46 1.93-2.74 2.98-4.2.98.79 1.78 1.44 3.45 2.8 1.35-5.82 2.57-11.06 3.88-16.71-4.31.11-4.7-3.1-4.66-6.25.05-4.29-3.74-3.8-5.56-4.87 0-2.13 0-3.9 0-5.67-.27-.04-.55-.09-.82-.13 1.84-2.29 3.68-4.58 5.56-6.91-3.04-1.46-3.04-1.46-8.24 1.09.49-.9.92-2.53 1.49-2.58 5.79-.57 8.27-4.56 9.95-9.35 5.11 1.12 5.44 6.1.89 14.11 4.75 1.66 5.3 5.38 4.8 9.77-.22 1.96-.18 4.17.5 5.98 2.03 5.38.3 10.14-1.58 15.06-.66 1.74-.47 3.81-.59 5.74-.24 3.76-.59 7.52-.59 11.28 0 3.32.29 6.66.71 9.96.3 2.29 1.18 4.51 1.54 6.8.24 1.53.94 3.15-1.1 4.48-1.94 1.27-3.11.33-4.53-.57-.43-.27-.91-.48-1.57-.82-.27 1.02-.51 1.9-.76 2.84 2.27 1.03 4.41 1.91 6.47 2.96 1.76.91 2.58 2.24 2.03 4.44-.67 2.66-.13 5.97-1.52 8.04-3.74 5.55-.69 11.41-1.57 17.05-1.04 6.67-1.16 13.52-1.32 20.3-.09 3.75.61 7.51.81 11.27.39 7.18.74 14.36.97 21.54.04 1.09-.33 2.43-1.01 3.25-1.92 2.31-1.74 4.31.25 6.37.44.45.66 1.11 1.11 1.54 4.64 4.45 4.28 9.7 2.51 15.2-1.26 3.92-1.87 7.83.21 11.73.28.53.31 1.56-.02 1.98-2.62 3.37-2.42 7.26-2.55 11.22-.1 3.04-1.03 6.06-1.73 9.87 2.61 2.43.92 6.06-.31 9.48-.92 2.53-5.17 3.02-8.56 1.57-1.22-.52-2.71-.42-4.08-.6-.15.33-.31.66-.46.99-.61-1.52-1.21-3.04-1.87-4.69 1.68-.92 3.15-1.73 5.08-2.78-1.55-.72-2.79-1.29-4.06-1.87-3 2.14-3.34 7.58-9.2 6.61 3.98-2.71 3.4-6.66 3.93-10.22.11-.73-.23-1.53-.36-2.3-.83.25-1.8.3-2.45.79-1.26.95-2.29 2.56-3.55.65.79-3.04 1.5-5.77 2.34-9-8.29-1.12-16.79-5.63-26.26-3.24-2.79.7-4.63-.48-6.41-2.37-1.14-1.21-2.46-2.3-3.83-3.24-.45-.31-1.76-.23-1.92.08-.33.64-.46 1.68-.16 2.31 2.05 4.32 1.23 5.98-3.63 6.61-.19-2.29-.36-4.57-.57-6.86-.27-2.87-1.86-4.7-4.62-5.36-.67-.16-1.73.08-2.17.55-.31.34.09 1.37.21 2.08.42 2.5.86 4.99 1.3 7.48-.44.13-.89.26-1.33.39-.71-1.81-1.48-3.6-2.1-5.44-2.04-6.11-2.03-5.87-8.39-5.97-2.37-.04-4.72-1.51-8.18-2.71-1.13 1.26-3.15 3.43-5.08 5.67-1.45 1.69-2.4 3.44.69 4.84-.15.24-.3.49-.44.73-1.19-.29-2.68-.22-3.49-.94-1.29-1.14-3.2-2.49-1.46-4.73.12-.16.18-.39.2-.6.15-1.85.28-3.7.41-5.54-2.26.57-4.58 1.01-6.77 1.79-.84.3-1.39 1.4-2.64 2.74.88-2.22 1.44-3.64 2.33-5.89-2.51.58-4.33 1.01-6.64 1.54 2.26-3.59.41-5.3-2.25-7.02-1.24-.8-1.88-2.52-3-4.12 5.21-1.51 6.69 3.03 10.03 4.45.54-.39 1.27-.92 2.08-1.51 1.16.88 2.28 1.66 3.33 2.53 2.84 2.36 5.23 4.6 9.83 3.36 3.58-.97 7.85-.31 11.11 2.96 1.91 1.92 4.4.8 6.33-.74.81-.65 1.38-1.59 2.24-2.61 3.38 3.49 6.95 2.01 10.33.17 1.92-1.05 3.26-.86 4.74.63 1.12 1.12 2.59 1.9 3.65 3.05 5.37 5.84 11.81 9.05 19.91 8.49.89-.06 2.02.2 2.7.74 2.84 2.24 5.77 3.23 9.37 1.83.71-.28 2.11.32 2.78.96 3.53 3.34 8.01 1.98 12.08 2.57.5.07 1.21-.7 1.67-1.21 1.56-1.73 2.95-3.63 4.6-5.27 2.55-2.54 2.71-5.53 1.45-8.5-.48-1.14-2.23-1.74-3.49-2.65-1 1.6-1.65 2.64-2.69 4.29-1.33-4.5-2.48-8.4-3.64-12.34 2.21-.93 4.82 3.11 7.32-.84-1.38-1.26-2.6-3-4.27-3.76-3.71-1.69-9.37 3.22-9.47 7.76-.03 1.4-.71 2.78-.86 3.35-2.71-.65-4.64-1.13-6.58-1.57-.61-.14-1.42.06-1.85-.27-7.08-5.47-14.99-10.2-15.73-20.68-.27-3.84-1.89-7.56-2.65-11.38-.28-1.39.13-2.92.28-4.38.15-1.39.38-2.77 0-4.25 3.26-5.15 2.62-10.62 1.43-16.25-.93-4.43-.39-8.65 2.66-12.76zm.09 39.12c7.59-2.31 9.77-6.82 5.2-11.28-1.75 1.96-3.37 4.04-5.26 5.83-1.9 1.8-2.19 3.42.06 5.45zm32.61-9.26c-2.39 2.16-4.57 4.13-6.88 6.22 1.49 1.71 2.71 3.12 3.89 4.48 3.88-1.95 4.24-3.23 2.99-10.7zm-3.52-94.16c2.18 1.24 3.99.17 5.64-1.5 2.58-2.6 2.71-4.67.85-8.46-2.01 3.08-4.16 6.38-6.49 9.96z"/><path d="m100.07 277.75c3.6 2.06 4.63 4.6 3.04 8.55-1.3 3.24-2.91 6.35-4.15 9.61-.32.84.23 2.02.39 3.04.17 1.09.63 2.22.47 3.26-1.28 8.31-2.16 16.6-.05 24.93.16.64-.66 1.89-1.36 2.33-2.73 1.71-3.36 3.74-1.93 6.7 2.97 6.16 5.77 12.42 8.8 18.99 1.59-1.97 2.84-3.46.13-5.02 8.89-4.82 9.43-5.61 6.64-9.56 4.98-1.94 6.97-1.91 8.72.26 1.25-.9 2.47-2.42 3.76-2.49.98-.05 2.06 1.75 3.24 2.87.18-2.39.37-4.92.56-7.42-3.81-.98-3.86-.96-9.64 2.38-.56-1.54-.56-1.54 4.06-6.14-.41-.63-.85-1.3-1.24-1.9.14-2.17 5.23-5.24 6.99-4.17 4.67 2.84 9.27 5.81 14.25 8.95.42-2.01.67-4.37 1.44-6.54 1.26-3.58-2.49-3.61-3.58-5.52 3.22-2.8 3.72 1.32 5.78 2.38 3.59-3.23 6.02-.73 8.02 2.22 2.18 3.23 5.26 3.51 9.27 3.06-1.32 4.71 1.06 9.53-2.81 13.69-.87.94-.41 4.29.62 5.6 3.25 4.13 3.19 5.44-1.54 7.63-.47.22-.92.48-1.55.81.75 1.59 1.46 3.08 2.62 5.55-1.72-.81-2.86-1.03-3.5-1.71-2.81-2.98-5.47-6.09-8.2-9.17.14-.05.6-.28 1.09-.36 4.27-.71 6.34-3.29 6.05-7.66-.04-.61-.15-1.32-.5-1.78-.92-1.23-1.98-2.35-3.44-4.04.1-.02-.79-.06-1.48.27-4.16 2.02-7.51.99-10.77-2.14-2.41-2.31-5.33-4.09-8.76-6.65 1.47 5.2.41 10.13 4.1 13.82.56.56 1.04 1.48 1.08 2.26.19 3.63 1.68 5.67 5.63 5.47.53-.03 1.52 1.07 1.62 1.74.37 2.5.46 5.04.67 7.88-1.89.35-3.59.67-5.64 1.05.05-1.08.08-1.83.15-3.35-3.32 1.13-6.22 2.12-9.13 3.1 2.41-2.22 4.42-4.41 4.36-8.25-.06-4.09-2.83-5.85-5.19-8.46-1.28 1.49-1.64 2.36-.89 4.55.98 2.87.21 6.36.03 9.57-.02.3-1.19.67-1.86.77-5.13.8-10.26 1.55-15.39 2.32-.82-3.03-.82-3.15-3.89-2.99-4.41.22-8.48.32-11.62-3.92-1.69-2.29-4.14-1.39-5.53 1.34-2.56 5.05-3.72 5.79-8.41 5.4.12-2.81 1.49-4.69 4.09-5.81 1.16-.5 2.23-1.22 3.26-1.97 3.2-2.32 3.67-6.01 1.23-9.03-2.58-3.19-5.15-6.38-7.84-9.71 3.94-.73 4.25-1.59 2.18-4.41-.5-.68-.37-1.81-.54-2.73.29-.08.58-.15.86-.23.92.64 1.84 1.28 3.03 2.1.48-1.08.88-1.98 1.31-2.93-1.11-.66-2.05-1.14-2.9-1.75-5.63-4.02-5.62-4.03-9.75 1.53.78 1.04 1.58 2.12 2.53 3.39-1.09.49-2.02.94-2.98 1.34-.65.27-1.33.46-2.54.88.73-1.8 1.26-3.1 1.83-4.53-2.39-2.24-3.66.61-5.72 1.32-.66-.86-1.39-1.81-1.67-2.17.73-5.51 5.05-5.85 8.62-7.28 1.69-.68 2.02-4.92.56-5.98-1.01-.73-2.2-1.26-3.07-2.11-.81-.79-1.3-1.89-2.48-3.69-.42 2.18-.77 3.59-.95 5.02-.24 1.84.22 4.31-2.34 4.48-.97.06-2.09-1.81-3.12-2.81-.28-.28-.5-.62-.88-1.11-1.04.92-1.97 1.74-3.22 2.86-.94-1.41-1.84-2.76-2.72-4.07 3.21-4.12 2.24-7.24-2.32-9.65-2.01-1.06-1.95-2.7-.45-4.1 1.14-1.07 2.61-1.79 4.06-2.74 1.03.69 2.06 1.38 3.36 2.25.46-1.18.87-2.21 1.27-3.22-4.64-2.77-7.45-3.19-9.86-1.5-1.02-.68-2.08-1.38-3.13-2.09-.95-.64-1.91-1.29-3.21-2.17-1.82 4.5-5.88 5.11-9.66 6.22-2.17-4.14-4.26-8.13-6.35-12.11.31-.26.63-.51.94-.77 2.57 1.5 5.14 3 7.8 4.55 1.4-1.62 2.69-3.13 4.11-4.78 2.04 1.56 4 3 5.88 4.52 2.61 2.11 4.07-1.45 6.57-1.11.99 2.78 3.35 3.35 6.23 3.18 2.5-.14 4.21.93 4.7 3.67.43 2.39 1.02 4.78 1.86 7.06.53 1.46 1.64 2.7 2.8 4.55 1.64-2.24 2.8-3.81 4.09-5.56 1.37.99 2.62 1.89 4.19 3.03.59-1.71 1.22-3.22 1.64-4.78.55-2.06 1.63-3.41 3.6-4.46 1.17-.63 2.03-2.34 2.44-3.73.76-2.56 2.2-3.99 4.66-5.1 2.29-1.06 4.15-3.07 6.47-4.87z"/><path d="m217.81 207.57c1.18-3.59 2.22-6.77 3.57-10.88-.97-1.36-2.62-3.78-4.4-6.11-.36-.48-1.34-.99-1.78-.83-5.45 2.09-10.08-.93-14.98-2.26-2.24-.61-4.53-2.25-6.47.69-.21.32-1.55.12-2.26-.14-3.39-1.19-6.71-2.59-10.13-3.69-1.79-.58-2.31-1.52-1.98-3.27.24-1.24.12-2.56.41-3.78 1.07-4.48.1-8.55-2.53-12.31 4.99-2.83 4.16-8.47 7-12.16-4.86-3.39-6.27-7.31-4.64-12.67.21-.68.92-1.41 1.59-1.72 5.55-2.62 11.14-5.14 16.72-7.69.38-.17.95-.56 1.15-.43 3.14 2.14 6.45 1.61 9.86.91 1.56-.32 3.23-.05 5.09-.05-.09 1.58-.02 3.28-.36 4.9-.18.85-.94 1.96-1.7 2.25-9.21 3.43-13.24 9.02-12.47 23.56 2.2-.1 4.29 1.56 6.6-.84 1.67-1.73 3.82-.36 3.99 2.19.07 1.02.01 2.04.01 3.1 4.79-.73 5.5-2.43 3.79-8.88.92-.07 1.78-.14 2.65-.21.21.48.41.74.45 1.03.7 5.35 1.29 10.73 2.15 16.05.22 1.34 1.06 3.2 2.1 3.62.97.4 2.62-.72 3.91-1.31.64-.29 1.14-.9 2.04-1.65.89 1.98 1.7 3.77 2.57 5.72-5.31 4.17-5.83 9.72-4.66 15.8.3 1.55.48 3.16.45 4.73-.1 4.55-2.08 6.33-7.74 6.33zm-15.05-42.15c-5.15 3.62-7.45 6.91-6.31 9.43 1.43-.87 3.17-1.45 4.17-2.64 2.22-2.64 4.18-2.92 7.46-.33-1.09 1.62-2.19 3.25-3.4 5.04 1.91 1.54 3.69 2.98 5.78 4.67 1.98-3.36 3.82-6.48 6-10.18-.7-.34-1.97-1.5-2.78-1.24-2.81.93-4.9.12-6.94-1.72-1.24-1.12-2.67-2.04-3.98-3.03zm-7.02-26.53c-5.46 4.67-5.66 5.17-3.96 9.06 4.83-.74 4.86-.8 3.96-9.06z"/><path d="m277.53 72.93c7.64 4.39 4.38 12.19 6.42 18.42-2.47 1.58-6.65 1.54-4.8 6.52 1.2-.11 2.59-.24 4.39-.41.32.95.8 2.39 1.5 4.49-6.13-2.66-9.82 3.11-15.05 2.72-.06.31-.13.62-.19.93 2.82 1.23 5.64 2.46 8.46 3.68 3.99 1.73 4.38 2.41 3.71 7.4 1.87-.55 3.46-1.02 5.64-1.66 0 .83.34 1.93-.06 2.61-2.05 3.55-4.62 4.71-8.02 3.91-.31 4.09.71 4.76 4.32 3.32 1.07-.43 2.64-.12 3.8.33 2.89 1.12 5.67 2.51 9.13 4.07-.48.74-1.34 1.98-2.11 3.27-.57.96-1.02 1.99-1.53 2.99 1.07-.23 2.15-.45 3.42-.72 2.44 5.02 3 11.49 8.94 15.61-1.16.87-2.14 1.61-3.43 2.58 1.83 1.4 3.33 3.25 5.2 3.75 1.38.37 3.23-1.01 5.25-1.22-3.31 1.59-3.03 3.67-1.35 5.94 1.64 2.21 5.32 2.77 7.39 1.23 1.81-1.36 2.23-3.83.73-6.1 1.23.67 2.16 1.08 3 1.64 2.29 1.52 2.25 2.59-.09 4.04-4.85 3.02-5.72 11.04-1.45 14.7.95.81 2.46.97 3.99 1.52-.63 1.66-1.27 3.31-1.88 4.97-.68 1.85-1.57 3.67-1.93 5.59-.47 2.46-1.63 3.26-4.27 2.49-.34-3.71-.81-7.49-.99-11.27-.11-2.34-.93-3.78-3.28-4.36-2.9-.71-4.67-2.39-4.38-5.64.05-.52.06-1.44-.14-1.52-4.46-1.58-3.99-6.76-7.14-9.48-7.69-6.64-15.01-13.72-22.39-20.71-1.51-1.43-2.65-3.26-4.04-5.01.85-.98 1.6-1.84 2.48-2.86-1.02-1.49-2.02-2.95-3.09-4.51.79-1.14 1.56-2.24 2.5-3.58-4.96-3.15-6.96-7.86-7.44-13.41-.1-1.14-.44-2.31-.92-3.36-1.22-2.67-2.94-5.25.88-7.41.43-.24.39-2.01.02-2.83-.82-1.81-1.99-3.46-3.12-5.36.49.02.91-.07 1.21.07 2.87 1.34 5.25 1.67 7.15-1.76 2.94-5.33 3.19-8.48.38-11.46-.64-.68-1.18-1.49-1.66-2.3-1.12-1.88-2.18-3.8-3.48-6.07.95-.8 2.7-2 4.09-3.53 1.88-2.07 3.65-4.29 5.17-6.64 1.26-1.95 1.13-2.1 3.4-1.67-.28 1.12-1.08 2.46-.71 3.29.5 1.15 1.87 1.91 3.27 3.21.94-3.38 1.78-6.37 2.85-10.19 1.89 4.22 4.76 5.42 8.56 3.97-.1 3.24-1.39 3.78-4.68 2.36-1.71 3.51 1.03 4.04 3.87 4.72-.75 1.3-1.11 2.74-1.88 3-.67.23-1.79-.88-2.7-1.39-3.31 7.74-3.31 7.74-5.27 7.49.18-1.96.58-3.93.44-5.86-.07-.93-1.09-2.48-1.77-2.53-1.01-.07-2.49.67-3.07 1.54-1.28 1.84-2.06 3.97-3.25 6.45zm8.64 59.07c-.48 2.25-3.51 3.31-1.31 5.75.38.42 2.15.34 2.48-.1 1.31-1.78 1.46-3.68-1.17-5.65z"/><path d="m300.57 188.8c.02.18.1.8.11 1.43.13 5.13.65 5.46 5.98 5.51 2.24.02 4.47.81 6.61 1.71-6.08.48-7.57 5.03-3.55 12.32 1.89-5.63 4.94-9.02 10.97-6.31-.9 1.94-1.8 3.88-2.9 6.24 2.19-.58 3.69-.97 5.59-1.47-.16 1.4-.26 2.29-.4 3.57-1.51-.27-2.83-.44-4.12-.73-2.28-.53-3.37.1-3.34 2.66.01 1.18-.78 2.36-1.72 3.58-2.07-4.52-5.57-6.06-9.85-6.52-1.12-.12-2.23-.68-3.26-1.19-2.38-1.19-4.57-2.56-3.03-5.91-3.11.45-6.18 1.68-8.81 1.06-2.68-.64-4.93-3.1-7.51-4.87-.83.75-1.57 1.41-2.32 2.09-3.34-4.44-11.22-4.52-10.15-12 .14-1.44.18-2.9.46-4.31.3-1.53.39-3.44 1.35-4.43 2.25-2.34 2.59-4.87 2.29-7.87-.15-1.45.07-3.18.77-4.41.57-1.01 2.16-2.09 3.18-2 .84.08 1.44 1.93 2.29 2.86 2.85 3.12 5.34 6.84 8.78 9.07 3.16 2.05 6.74 2.99 8.05 7.24.35 1.15 2.77 1.69 4.53 2.68zm-.49 6.23c-.23-.38-.47-.75-.7-1.13-2.1.79-4.21 1.58-6.31 2.38-1.71-2.16-3.29-4.18-4.93-6.25-2.29 4.92.16 7.7 3.84 10.22 2.65-1.7 5.38-3.46 8.1-5.22zm-16.64.74c.72-7.13.49-8.02-2.2-9.48-1.48 2-3.46 4-2.08 6.67.6 1.17 2.46 1.68 4.28 2.81z"/><path d="m270.92 237.19c-3.36-1.95-2.94-3.67-.91-5.59 2.99-2.82 5.89-5.74 9.04-8.82 3.56 3.33 7.84 5.35 12.83 5.88.87.09 1.94.98 2.39 1.79 1.62 2.94-.36 10.37-3.16 12.39-2.06 1.49-4.31 2.75-6.16 4.47-3.14 2.92-6.79 3.69-10.8 3.06-.96-.15-2.11-1.07-2.58-1.95-.94-1.75-1.43-3.74-2.17-5.6-.8-2.04-1.68-4.05 1.52-5.63z"/><path d="m268.29 295.43c-.56-.81-1.06-1.37-1.38-2.02-1.79-3.64-3.92-6.36-8.72-4.67-.89.31-2.35-1-4.17-1.85 3.68-2.55 6.75-4.39 9.47-6.64 2.24-1.85 4.34-4.02 6.01-6.39 1.21-1.72 1.89-3.83.25-6.16-.66-.94.1-2.88.3-5.5 3.27 2.2 5.96 3.61 8.15 5.58 2.26 2.03 4.13 4.52 5.98 6.95 1.89 2.5 4.06 5.13.76 8.17-.19 6.6-5.36 8.06-10.2 9.89-2.15.82-4.26 1.74-6.45 2.64z"/><path d="m275.9 56.19c-.84-1.88-1.05-3.4-1.86-3.85-.74-.41-2.12.35-3.57.66-.28-.4-.88-1.24-1.66-2.35-2.59 1.6-5.11 3.3-7.79 4.7-.88.46-2.47.52-3.24.02-3.2-2.11-6.46-2.99-10.23-1.84-2.25.69-4.13-.02-5.57-2.17 3.49-3.77 10.52-4.72 9.15-12.46 2.72.38 5.03.49 7.22 1.07 3.11.83 3.6 2.76 2.47 5.73-.68 1.79-.58 3.93-.49 5.9.02.48 1.84 1.45 2.09 1.25 2.64-2.05 5.22-4.21 7.6-6.56.55-.54.25-1.93.38-3.22-2.25.25-4.1.45-6.2.68.76-3.1 2.16-4.47 5.36-3.74 3.48.79 6.82.93 10.48-.52 2.73-1.08 6.23-.21 9.48-.21.15.67.15 1.37.46 1.86.57.9 1.2 1.92 2.08 2.38.33.17 1.36-1.14 2.15-1.66.96-.63 2.02-1.59 2.99-1.52.67.04 1.53 1.49 1.76 2.45.13.54-.69 1.67-1.34 1.98-4.05 1.95-7.89 4.36-12.81 4.06-1.49-.09-3.18 2.01-4.65 3.25-1.46 1.23-2.76 2.65-4.26 4.11zm-24.51-7.54c.21.11.42.23.62.34 1.03-1.4 2.05-2.81 3.21-4.39-1.12-.53-2.03-.96-3.12-1.47-.26 2.01-.49 3.77-.71 5.52z"/><path d="m166.11 309.65c4.86-2.9 9.37-5.63 13.93-8.27 3.42-1.98 6.77-2.24 9.62 1.19 1.18-1.11 2.08-1.95 2.95-2.77 3.39 1.91 3.39 1.91 7.77.36-.99 2.07-1.92 4.02-3.23 6.77 1.85-.74 2.7-1.07 3.66-1.46 2.19 4.98 4.54.65 7 .19 1.56 3.36-1.61 4.54-3.19 5.8-3.28 2.62-4.05-2.14-6.33-2.78-3.47 2.28-3.72 2.15-6.24-1.6-.57-.85-1.74-1.3-2.82-2.07-1.77 4.21 2.24 5.86 3.11 8.88-5.05 2.98-10.51 4.3-16.3 4.41-2.39.04-4.21-.85-5.54-2.97-1.16-1.87-2.69-3.52-4.39-5.68z"/><path d="m40.62 312.69c1.35.63 2.7 1.25 4.28 1.99 2.07-2.02 4.9-3.68 2.66-7.69-.48-.86 1.05-2.83 2.02-4.16 1.36 2.46.63 6.16 5.25 5.32.09.25.18.49.27.74-1.53 1.83-3.07 3.66-4.47 5.33 1.31 1.09 2.57 2.14 3.84 3.19-.18.41-.35.82-.53 1.22-1.55-.14-3.11-.28-5.15-.46.08.5-.08 1.69.43 2.34 1.41 1.78.57 2.72-1.01 3.37-2.72 1.11-3.68 2.93-2.81 5.79.73 2.4-.23 4.29-1.96 5.96-1.29 1.24-2.42 2.66-3.57 3.96.92.91 2.17 1.65 2.48 2.68.16.53-1.64 1.45-2.04 2.41-.39.93-.2 2.15-.09 3.22.08.8.45 1.58.32 2.47-2.41-2.33-3.49-2.24-5.15.51-.87 1.45-1.72 2.92-2.6 4.36-.09.15-.33.21-.83.51 0-3.19-.54-6.31.15-9.14.7-2.83 2.62-5.36 3.57-7.18-1.59-2.51-2.66-4.19-3.73-5.88.25-.2.51-.4.76-.6 1.14.44 2.27.88 3.78 1.45.22-2 .42-3.84.65-5.99-.74 0-1.49.23-1.81-.05-.63-.55-1.39-1.37-1.39-2.08 0-.62.94-1.7 1.54-1.76 1.87-.18 3.86-.29 5.65.16 2.11.53 2.73-.21 2.84-2.06.06-1.06.15-2.11.22-3.17.12-1.67.07-3.07-2.15-3.51-.85-.17-1.49-1.43-2.22-2.19.29-.36.55-.71.8-1.06z"/><path d="m321.33 357.53c-1.64.46-2.56.67-3.45.99-2.32.83-3.98.33-5.16-2-1.41-2.78-3.64-4.34-7.46-3.51 1.5-2.08 2.72-3.76 4.01-5.54-2.34-2.75-4.64-5.46-7.46-8.78-1.92 9.07-9.79 12.88-14.7 19.96 2.19-.18 3.74-.3 5.29-.43-2.48 3.8-6.28 1.4-9.76 2.44-.3-2.49-.55-4.63-.91-7.58 2.27.71 3.95 1.24 6.41 2.01.46-2.88.95-5.95 1.49-9.35 1.47.82 2.72 1.52 4.04 2.25 4.58-5 5.56-11.1 5.74-17.35 2.88.28 5.56.55 8.24.8 1.87.18 2.57 1.3 2.36 3.05-.09.71-.29 1.45-.63 2.06-2.77 4.91-1.78 6.71 3.81 7.42 1.53.19 2.95 1.2 4.74 1.97-3.75 3.8-3.38 5.88.29 8.02 1.21.68 1.93 2.16 3.11 3.57z"/><path d="m79.99 358.46c-3.06-1.09-5.78-1.89-5.78 2.59-6.46 0-12.76 0-19.28 0 7.36-3.55 7.31-3.53 3.68-10.95-.72-1.46-.98-3.15-1.4-4.55.52-.43.69-.68.84-.67 5.69.53 9.94-1.8 13.24-6.35.44-.61 1.79-.56 2.72-.82.05.94.46 2.08.07 2.76-.77 1.33-1.99 2.4-3.04 3.56-.88.96-1.8 1.89-2.71 2.83.17.35.33.7.5 1.05 1.54-.36 3.08-.72 5.24-1.23 2.3 3.2 6.63 5.77 5.92 11.78z"/><path d="m216.91 337.32c2.33 0 4.32-.08 6.29.04.73.04 1.75.33 2.1.86 1.38 2.11-.75 12.36-2.9 14.37-.68-1.2-1.21-2.5-2.06-3.53-.86-1.04-2.05-1.82-3.26-2.85.47-.96.96-1.96 1.24-2.53-1.84-3.91-3.55-7.54-5.67-12.02-1.53 3.63-2.63 6.67-4.08 9.54-.86 1.72-1.31 4.9-4.63 2.58-.12-.08-.67.39-.97.65-1.63 1.39-3.08.92-3.7-.44 3.76-4.68 7.29-8.98 10.65-13.4.47-.62.4-1.97.09-2.81-.64-1.77-1.61-3.43-2.76-5.78 1.2.73 1.95 1.02 2.47 1.55 1.95 1.96 4.01 1.94 6.34.74.77-.39 1.75-.35 2.64-.5.16.98.59 2 .43 2.92-.58 3.38-1.39 6.76-2.22 10.61z"/><path d="m163.52 356.42c3.92-.29 4.96-3.03 4.37-5.83-.53-2.53-2.34-4.79-3.78-7.54 3.83.36 7.52.7 11.67 1.09-1.82-7.84 2.32-14.15 3.81-21.05.38-.09.76-.18 1.14-.28.62 1.82 1.85 3.69 1.71 5.45-.22 2.76-1.41 5.44-2.1 8.18-.32 1.27-.37 2.61-.62 3.91-.33 1.68-.18 4.12-1.23 4.89-3.33 2.45-4.24 5.1-1.91 8.84-2.05.92-3.87 1.53-5.44 2.52-1.3.82-2.27 2.13-3.46 3.14-.56.48-1.33 1.1-1.93 1.03-.61-.07-1.32-.81-1.64-1.44-.37-.73-.36-1.64-.59-2.91z"/><path d="m218.4 126.76c1.24-.89 2.35-1.69 3.65-2.62-1.69-1.54-3.29-3.01-5.1-4.66 2.35-2.25 4.61-4.41 7.7-7.36.46 3.13.93 5.4 1.09 7.7.1 1.45-.33 2.94-.41 4.41-.15 2.81.46 5.25 3.45 6.4 2 .77 2.73 2.19 1.99 4.26-.54 1.51-.94 2.94 1.28 3.39 2.25.46 2.95-1.02 3.48-2.76.41-1.36.88-2.7 1.75-3.97 1.16 1.78 4.04 2.71 1.96 5.35-3.6 4.58-6.52 5.52-11.27 3.33.11-1.07.23-2.2.35-3.32-5.58-3.07-6.22-3.72-9.92-10.15z"/><path d="m354.61 88.25c3.08-1.28 5.45-2.26 7.98-3.31 2 2.65-1.05 3.46-2.32 4.85-1.41 1.55-3.06 2.89-4.79 4.5 1.37.72 2.46 1.29 4.09 2.14-1.34 1.25-2.43 2.26-3.07 2.86-2.37-.58-4.21-.98-6.02-1.5-.66-.19-1.47-.5-1.83-1.02-.88-1.25.32-7.91.89-9.39.57-1.47.93-3.57.3-4.86-2.77-5.66-1.46-10.01 4.21-12.44.33-.14.95-.22 1.1-.04.28.34.58 1.12.41 1.31-4.66 5.08-.37 10.54-.95 16.9z"/><path d="m327.71 129.04c1.62.99 3.21 2.03 4.87 2.95 2.02 1.12 3.28 2.46 2.79 5.08-.17.93.73 2.05.88 2.42-1.11 1.46-2.16 2.75-3.09 4.12-.94 1.38-1.76 2.85-2.92 4.76-2.82-3.71-5.41-7.11-7.99-10.51-.13-.17-.34-.43-.28-.54 2.07-4.16-2.07-5.8-3.64-8.74 3.28.09 6.27 4.59 9.47.4z"/><path d="m329.71 104.26c-6.77 3.04-8.81-3.15-13.14-5.8 1.66-1.42 3.06-2.61 4.11-3.5-.88-1.81-1.68-3.45-2.67-5.48 3.62-.62 6.87 2.26 8.78-1.52 3.88 2.37 3.73 6.77-.26 12.78 1.03 1.13 2.06 2.29 3.18 3.52z"/><path d="m277.19 326.89c4 .09 6.35 4.13 4.28 8.15-1.1 2.13-2.04 4.42-2.57 6.75-.6 2.68-2.43 2.41-4.13 2.06-1.62-.34-4.05.08-3.73-3.06.28-2.67.64-4.84 3.02-6.84 1.65-1.38 2-4.31 3.13-7.06z"/><path d="m330.4 231.61c2.6 2.12 5.04 4.11 7.87 6.41-1.29.32-2.14.53-3.01.74-.26-.23-.56-.39-.7-.64-1.18-2.17-2.88-3.11-5.45-2.94-3.85.25-4.07-.42-3.47-4.12.31-1.93-.44-4.03-.75-6.39.72 0 1.8-.29 2.63.05 5.55 2.23 5.87 2.19 8.79-2.15 1.7.53 3.36 1.06 5.33 1.67.24 2.59-.33 3.3-4.73 3.28-3.09-.02-4.95 1.35-6.51 4.09z"/><path d="m325.96 71.48c-2.78.63-5.41 1.23-8.37 1.9 0-1.85-.07-3.42.02-4.98.12-2.24-.14-4.05-2.59-5.17-.69-.31-.65-2.21-.95-3.42 8.22-1.29 9.74.22 11.89 11.67z"/><path d="m350.26 61.07c.41-.78.75-1.9 1.45-2.72 2.06-2.39 4.29-4.62 6.38-6.98 1.97-2.23 2.35-4.58.39-7.1-.63-.81-.95-1.85-1.54-3.04 2.84.03 5.57.29 6.69 2.83 1.1 2.49.33 4.85-1.68 7.17-1.76 2.03-2.57 4.95-3.6 7.56-.95 2.43-1.64 4.97-2.47 7.57-2.88-1.98-1.8-3.8.11-5.63-.21-.22-.43-.45-.64-.67-1.5.29-3 .59-5.09 1.01z"/><path d="m310.04 101.23c-1.26-1.07-2.51-2.14-3.94-3.35-.88 1.21-1.66 2.28-2.46 3.37-3.47-4.55-3.45-5.08.25-8.78 1.87-1.87 3.61-3.91 5.68-5.53.82-.64 2.46-.65 3.54-.31.43.14.4 1.95.45 3.01.02.36-.33.77-.58 1.11-2.23 3.08-3.86 6.31-2.94 10.48z"/><path d="m283.96 106.74c3.12-.41 5.86-1.27 8.87.78 2.42 1.65 4.57-.15 5.8-2.51.83.98 1.66 1.96 2.51 2.97 1.3-.96 2.32-1.71 3.48-2.57 1.54 1.61 4.2 2.65 2.29 6.03-1.41-.68-2.71-1.3-4.25-2.04-1.55 1.36-3.18 2.8-4.81 4.24.02-.3.05-.61.07-.91-3.17-.75-6.32-1.67-9.53-2.19-2.21-.36-3.79-1.09-4.43-3.8z"/><path d="m325.48 245.96c.49.83 1.13 1.61 1.45 2.51.43 1.19.44 2.54.96 3.66.3.64 1.22 1.31 1.91 1.36.58.04 1.44-.67 1.79-1.27 1.42-2.47 2.68-5.02 4.01-7.54 3.21 1.77 5.05 4.6 3.45 7.15-1.3 2.07-4.25 3.6-6.77 4.26-2.4.63-5.18-.17-8.8-.4 1.02-2 2.13-3.3 2.26-4.7.14-1.44-.68-2.97-1.09-4.46.28-.2.56-.38.83-.57z"/><path d="m249.4 96.69c.88-2.73 1.71-5.31 2.65-8.24 1.79 1.36 3.14 2.88 4.82 3.52 1.59.6 3.54.29 5.49.38.42 1.1.96 2.5 1.57 4.11-4.41 3.53-9.61 3.79-14.53.23z"/><path d="m325.15 59.61c-1.43-6.47-.82-12.45 2.48-18.08 3.28 1.66 4.82 6.08 3.52 9.94-.54 1.59-1.12 3.19-1.47 4.83-.52 2.34-1.82 3.47-4.53 3.31z"/><path d="m256.66 344.52c-7.57.28-7.84.09-12.81-7.72 2.03-3.01 3.89-5.76 6.18-9.15.58 1.44 1.27 2.45 1.35 3.52.11 1.45-.33 2.94-.37 4.41-.07 2.83-.56 5.88 3.55 6.59.68.11 1.17 1.27 2.1 2.35z"/><path d="m309.99 76.75c1.46-.96 2.67-1.75 3.97-2.6 2.19 1.79 4.46 3.36 6.35 5.31.9.93 1.86 3.01 1.42 3.78-.85 1.5-2.58 2.61-4.16 3.51-.45.26-1.96-.53-2.41-1.21-1.77-2.72-3.32-5.6-5.17-8.79z"/><path d="m337.66 50.68c1.11-1.69 2.89-3.28 3.14-5.09.26-1.86-.97-3.93-1.75-6.62 4.21 2.19 7.78 4.06 11.08 5.78-.46 1.69-.72 3.22-1.32 4.6-.31.7-1.17 1.43-1.91 1.6-.83.19-2.35.06-2.61-.44-.94-1.79-1.53-1.63-2.81-.29-.73.77-2.08.96-3.14 1.41-.23-.32-.45-.64-.68-.95z"/><path d="m39.96 91.64c-2.14 1.58-4.19 3.1-6.24 4.62-.32-.29-.65-.57-.97-.86.59-2.28 1.17-4.56 1.83-7.14 4.84 1.13 6.12-2.13 6.96-5.78 3.6 2.08 3.67 7.64-.35 14.18-.44-1.76-.87-3.53-1.23-5.02z"/><path d="m197.4 253.54c-.52-5.15-.95-9.35-1.28-12.66 2.68-3.06 4.9-5.59 7.35-8.38 1.28 1.55 2.58 3.14 4.02 4.89-3.82 2.88-9.42 4.04-8.62 9.92.75 1.52 1.51 3.04 2.26 4.56-1.1.49-2.19.98-3.73 1.67z"/><path d="m298.45 49.8c6.87 3.95 9.52 8.14 8.59 13.39-2.69-.28-5.39-.57-8.77-.92 0-.92-.56-2.92.1-3.48 3.12-2.65 2.94-5.37.08-8.99z"/><path d="m190.93 333.88c-1.4-5.35 1.46-8.68 6.22-7.55 1.2.29 2.93 1.55 3.05 2.53.26 2.09-.36 4.29-.76 6.41-.01.06-1.98.15-2.33-.31-1.71-2.21-3.7-2.37-6.18-1.08z"/><path d="m42.01 307.44c-3.23.74-6.24 1.44-9.72 2.23 1.19 2.04 1.87 3.19 2.72 4.65-1.06.2-1.91.36-2.98.56 0-6.26 0-12.26 0-18.48 3.64 2.37 3.57 6.4 4.68 10.22 1.36-.47 2.59-.9 4.06-1.41.37.66.8 1.43 1.24 2.23z"/><path d="m313.49 222.19c4.33.89 7.97 7.73 5.82 11.36-.43.72-2.67 1.16-3.5.7-3.05-1.7-4.22-8.68-2.32-12.06z"/><path d="m313.78 143.49c2.85 3.34 1.92 7.04-2.9 8.75.19-2.71.82-5.2.39-7.5s-1.9-4.41-2.88-6.54c9.26.99 9.26.99 9.57 5.03-1.33-.24-2.67-.48-4-.71-.05.33-.11.65-.18.97z"/><path d="m296.56 85.83c.69-.86 1.28-1.59 1.82-2.27-.73-1.23-1.4-2.38-1.91-3.25 2.57-.69 4.74-1.27 7.69-2.06-.33 3.02-.43 6.32-1.13 9.49-.47 2.11-2.21 2.38-3.88.92-.87-.76-1.57-1.7-2.59-2.83z"/><path d="m259.31 360c1.08-.98 2.15-1.96 3.51-3.2-2.07-1.83-4.08-3.6-6.6-5.82 4.05-.74 8.57.26 9.76-5.04 1.17.95 1.89 1.52 2.03 1.64-1.56 3.75-2.79 7.25-4.47 10.52-.65 1.27-2.32 2.01-3.53 2.99-.24-.36-.47-.72-.7-1.09z"/><path d="m327.41 355c.53-.75 1.25-1.42 1.57-2.25.84-2.2 1.5-4.46 2.45-7.35 1.92 2.42 2.35 3.97 1.06 6.02-.99 1.58-1.57 3.45-2.15 5.25-1.98 6.07-4.52 7.01-9.67 3.85 1.29-.42 3.17-.53 4.26-1.51 1.09-.99 1.4-2.85 2.05-4.33.13.11.28.22.43.32z"/><path d="m48.75 360.93c-4.3 0-8.31 0-13.55 0 2.82-3.34 5.1-6.05 7.64-9.07.91 1.1 1.71 1.7 2.02 2.5 1.81 4.74 1.77 4.76 3.89 6.57z"/><path d="m330.71 97.77c1.91-.82 3.94-2.49 5.03-2.01 3.46 1.53 6.69 3.79 7.78 7.81.15.54-.78 1.55-1.43 2.09-.96.8-2.12 1.38-3.6 2.31.59-1.2 1.1-1.96 1.35-2.8.86-2.86-.03-4.06-3.05-4.25-3.99-.27-3.99-.27-6.08-3.15z"/><path d="m212.99 300.94c3.06 2.41 6.24 4.91 9.4 7.39-2.65 3.1-4.98 2.58-7.32.8-3.28-2.52-3.69-4.86-2.08-8.19z"/><path d="m327.79 128.97c-.94-1.88-1.74-3.85-2.87-5.61-1.03-1.6-2.5-2.92-3.6-4.48-.76-1.08-1.23-2.37-1.92-3.74 4.15-1 4.56 2.79 6.36 3.78 1.39-1.26 2.69-2.42 3.98-3.58.41.27.82.54 1.23.81-1.93 4.12-4.67 8.07-3.25 12.87-.01.02.07-.05.07-.05z"/><path d="m228.35 358.56c.36-4.77-2.16-9.13 1.66-12.66.86-.8 2.26-1.1 3.47-1.4.31-.08 1.26.9 1.19 1.05-.51 1.06-.98 2.4-1.88 2.97-3.78 2.35-.64 4.52.09 7.05-1.22.79-2.51 1.64-4.53 2.99z"/><path d="m39.87 61.33c-.18-.91-.34-1.78-.56-2.91 3.97-.83 7.73-1.73 11.53-2.28.54-.08 1.93 1.57 1.89 2.36-.1 1.98-3.67 3.71-5.54 2.97-3.95-1.54-3.95-1.54-7.32-.14z"/><path d="m187.17 353.43c2.98-2.42 5.58-4.54 8.81-7.17-.3 4.49-.08 8.32-1.77 12.06-.84-3.79-3.9-4.12-7.04-4.89z"/><path d="m253.4 338.99c.41-2.38.82-4.76 1.27-7.36.98.54 1.79.99 2.59 1.43-.04-.23-.07-.46-.11-.69 1.63-.35 3.6-1.43 4.81-.87 1.44.66 2.22 2.73 3.29 4.2-.33.29-.66.57-.98.86-.49-.32-1.1-.55-1.45-.98-2-2.4-3.74-2.19-4.9.65-1.24 3.01-1.76 3.33-4.52 2.76z"/><path d="m236.34 354.58c.2-1.86.19-3.77.64-5.56.69-2.74 1.7-5.4 2.69-8.43 2.99-.3 3.94.72 2.58 4.11-1.39 3.47-3.07 6.82-4.63 10.22-.42-.12-.85-.23-1.28-.34z"/><path d="m69.58 86.93c.43-8.62 2.75-13.64 8.31-13.05-2.81 4.41-5.39 8.46-8.31 13.05z"/><path d="m340.67 64.76c5.38 1.23 7.21 5.34 4.66 9.83-.21.38-.84.85-1.15.77-.47-.11-1.09-.6-1.2-1.05-.82-3.12-1.53-6.27-2.31-9.55z"/><path d="m337.18 131.81c-.75-2.9-1.81-5.41-1.86-7.94-.02-1.18 1.93-2.39 3.44-3.32-.21 3.77 3.11 7.8-1.58 11.26z"/><path d="m34.39 100.93c1.78 1.82 4.54 3.44 4.43 4.8-.18 2.07-2.36 3.97-3.74 6.01-2.16-1.31-2.77-2.6-1.22-4.46.82-.98 1.51-1.91.11-3.2-.41-.37.22-1.86.42-3.15z"/><path d="m74.1 248.23c-4.31-.43-5-4.62-1.61-9.7 2.7 1.5 3.02 3.39 1.61 9.7z"/><path d="m363.04 78.96c-.99.75-2.08 1.57-3.51 2.64-.83-2.7-3.56-4.81.26-7.37 1.21-.81 1.42-3.11 2.21-5.04.79 1.72 1.92 2.86.08 4.75-.62.64.53 3 .96 5.02z"/><path d="m319.37 107.92c-2.64 1.87-4.14 3.71-3.68 6.7.1.64-1.05 2.12-1.42 2.05-.89-.16-1.91-.84-2.4-1.62-.46-.72-.31-1.83-.35-2.14 1.75-2.21 3.22-4.05 5.04-6.34.33.16 1.43.69 2.81 1.35z"/><path d="m265.2 66.92c-4.18-5.31-3.86-6.87 2.03-10.57-.67 3.53-1.35 7.05-2.03 10.57z"/><path d="m219.3 143.87c1.18 1.83 2.63 3.56 3.41 5.54.34.87-.68 2.27-1.08 3.43-1.21-.79-3.2-1.37-3.47-2.41-.49-1.89.04-4.04.14-6.08.33-.15.67-.32 1-.48z"/><path d="m63.24 327.81c1.05 1.2 2.91 2.36 2.97 3.61.08 1.75-1.11 3.6-1.92 5.33-.13.28-1.31.43-1.63.17-.46-.38-.81-1.19-.79-1.79.11-2.27.39-4.53.61-6.8.26-.18.51-.35.76-.52z"/><path d="m337.34 160.26c3.4 1.72 4.21 8.51 1.34 10.63-2.3-3.23-2.63-6.67-1.34-10.63z"/><path d="m32.13 73.71c5.36 1.32 5.4 4.07 0 9.94 0-3.43 0-6.59 0-9.94z"/><path d="m242.59 350.55c6.02-2.26 6.77-2.11 8.42 1.69-2 .62-3.98 1.22-6.25 1.92-.69-1.15-1.37-2.28-2.17-3.61z"/><path d="m221.58 137.2c.85 1.28 1.59 2.4 2.51 3.77-1.97.93-3.74 1.77-5.51 2.6-2.74-3.54-2.74-3.54 3-6.37z"/><path d="m339.43 231.73c2.46-.84 4.54-2.84 5.66.09.54 1.43-.15 4.82-.82 4.97-3.91.9-2.49-3.42-4.84-5.06z"/><path d="m313.01 44.44c1.68-1.08 3.24-2.65 5.08-3.1 1.52-.37 3.27.68 3.25 3.27-2.59.4-5.11.8-7.64 1.2-.23-.46-.46-.92-.69-1.37z"/><path d="m204.23 354.46c-.77 1.19-1.54 2.38-2.46 3.8.45.66 1.08 1.57 1.67 2.43-.21.25-.28.39-.33.38-1.79-.19-3.58-.4-5.37-.6.97-1.4 1.88-2.84 2.91-4.18.7-.91 1.56-1.69 2.35-2.53.42.23.83.46 1.23.7z"/><path d="m347.37 108.33c-1.85-3.2-1.85-3.2 4.35-6.21.42 1 .84 1.98 1.3 3.07-1.27.76-2.34 1.41-3.43 2.02-.72.41-1.48.75-2.22 1.12z"/><path d="m339.3 353.98c.71 4.32.71 4.32-5 6.79-1.97-5 3.4-4.45 5-6.79z"/><path d="m238.46 333.24c.86-2.16 1.24-3.62 1.99-4.85.43-.71 1.53-1.53 2.21-1.43.85.12 1.92.99 2.24 1.79.18.45-.83 1.65-1.56 2.12-1.3.83-2.78 1.38-4.88 2.37z"/><path d="m297.56 121.61c-1.06-.74-2.12-1.48-3.46-2.42-1.21.67-2.72 1.5-4.23 2.34-.23-.19-.46-.38-.68-.58 1.13-1.39 2.16-3.83 3.41-3.95 2.43-.23 4.85 1.01 4.96 4.61z"/><path d="m212.89 235.55c1.81 1.39 3.43 2.65 5.68 4.39-3.25.17-5.7.3-8.69.45 1.05-1.7 1.95-3.15 3.01-4.84z"/><path d="m78.22 344.59c-1.26-3.23-.78-5.47 1.44-6.13.65-.19 2.14.4 2.3.91.96 3.24-1.68 3.99-3.74 5.22z"/><path d="m346.28 145.71c.61 1.21 2 2.75 1.66 3.57-.61 1.45-2.27 2.46-3.48 3.65-.31-.22-.63-.43-.94-.65.5-2.04 1-4.09 1.5-6.13.41-.15.83-.3 1.26-.44z"/><path d="m320.51 194.59c.83.89 1.46 1.57 2.35 2.52-1.48 1.28-2.88 2.47-4.28 3.68-2.44-3.17-2.44-3.17 1.93-6.2z"/><path d="m217.81 354.04c-1.99 0-3.94 0-6.14 0-.05-.93-.1-1.81-.14-2.47 1.49-1.7 5.41-.04 6.28 2.47z"/><path d="m55.59 343.97c-2.65 0-4.81 0-7.28 0 .41-1.25.75-2.29 1.27-3.85 1.67 2.13 5.28-.28 6.01 3.85z"/><path d="m270.04 80.31c-.04 2.29 1.7 5.24-1.82 6.15-.56.14-1.51 0-1.79-.38-.3-.4-.27-1.43.05-1.85 1.08-1.39 2.36-2.62 3.56-3.92z"/><path d="m206.86 356.59c2.15.93 4.3 1.87 7.25 3.14-5.79 1.93-5.79 1.93-7.25-3.14z"/><path d="m70.98 96.64c-4.03.03-3.75-3.59-5.53-5.5 3.52-.18 5.1 1.36 5.53 5.5z"/><path d="m166.93 327.72c0-1.17 0-2.28 0-4.59 2.2 1.52 3.76 2.6 5.32 3.67-.15.31-.29.61-.44.92-1.57 0-3.14 0-4.88 0z"/><path d="m291.84 340.44c-1.92.86-2.76 1.24-3.98 1.78-.63-1.94-1.21-3.74-1.79-5.53.28-.22.56-.44.84-.66 1.46 1.31 2.92 2.62 4.93 4.41z"/><path d="m333.56 111.22c-.91-1.86-1.63-3.35-2.36-4.83.18-.28.35-.56.53-.84 1.78.87 3.56 1.74 5.88 2.87-1.64 1.13-2.69 1.86-4.05 2.8z"/><path d="m212.3 151.05c-1.52-1.65-3.05-3.3-4.57-4.96 3.27-.16 5.73.47 4.57 4.96z"/><path d="m53.36 43.21c-2.84-1.42-4.87-2.44-6.89-3.45.06-.29.13-.58.19-.88 2.17.47 4.37.87 6.5 1.49.24.07.12 1.37.2 2.84z"/><path d="m266.12 326.79c-.52-1.7-1.04-3.39-1.56-5.09.2-.23.4-.46.6-.68.98.89 2.35 1.62 2.81 2.73.35.85-.45 2.18-.73 3.29-.37-.08-.74-.17-1.12-.25z"/><path d="m303.69 359.23c1.1-.7 2.13-1.77 3.31-1.98.75-.13 1.72 1.01 2.59 1.59-.15.3-.31.61-.46.91-1.63.17-3.26.35-4.88.52-.19-.34-.38-.69-.56-1.04z"/><path d="m329.57 75.16c1.58.86 3.16 1.71 5.32 2.88-4.3 2.49-4.33-1.15-5.32-2.88z"/><path d="m222.19 213.56c.72-1.1 1.43-2.2 2.15-3.3.51.52 1.52 1.37 1.43 1.51-.66 1.03-1.53 1.92-2.34 2.85-.42-.36-.83-.71-1.24-1.06z"/><path d="m41.74 44.43c-1.47-.36-2.79-.38-2.89-.75-.36-1.24-.29-2.61-.38-3.93.31-.06.62-.11.92-.17.66 1.37 1.32 2.73 2.35 4.85z"/><path d="m103.48 158.68c-.06-1.32-.5-2.77-.11-3.95 1.06-3.19-.25-4.56-3.74-5.01 1.79-2.07 3.33-3.87 5.21-6.05 1.39 1.79 2.67 3.42 4 5.12-1.17 3.05-2.55 6.63-3.92 10.21-.48-.09-.96-.21-1.44-.32z"/><path d="m113 62.58c.35-1.01.71-2.05 1.15-3.31 2.59.39 5.01.75 7.58 1.14-2.78 3.49-4.68 3.96-8.73 2.17z"/></g></svg>