<svg enable-background="new 0 0 400 400" viewBox="0 0 400 400" xmlns="http://www.w3.org/2000/svg"><path d="m362.1 8.8c1.1.8 2.1 1.6 3.1 2.4l-1 1.1c-1.3-1.1-2.3-2-3-2.5zm1.9 4.8c.5.2.9.4 1.4.5-.6 2.3-1.3 4.5-1.9 6.8l-1.5-.5c.8-2.1 1.4-4.3 2-6.8zm-1-9.4c1.3.9 2.4 1.8 3.4 2.5l-1 1.1c-1.4-1.2-2.4-2.1-3.2-2.6zm3.7 2.2v-1.4h10.3v1.2c-.5 3.6-1.8 6.8-4 9.4 1.5 1.6 3.4 2.8 5.7 3.8-.3.4-.7.8-1.1 1.4-2.3-1.1-4.1-2.5-5.6-4.1-1.6 1.6-3.6 3.1-5.9 4.3-.3-.5-.7-.9-1-1.3 2.4-1.1 4.4-2.5 6-4.1-1.9-2.5-3-5.6-3.3-9.3h-1.1zm8.8 0h-6.4c.3 3.3 1.3 6 3 8.2 2-2.3 3.1-5.1 3.4-8.2z" fill="#fbfcfa"/><path d="m385.3 3.8h1.3v2.2h2.8v-2.2h1.3v2.2h4.1v9.1h1.7v1.3h-16.9v-1.3h1.7v-9.1h4.1v-2.2zm.4 13.1.7 1.2c-1.8.9-3.8 1.9-6 2.9-.2-.4-.5-.8-.8-1.3 2.3-1 4.3-1.9 6.1-2.8zm-3.1-6.4h2.8v-3.2h-2.8zm0 4.6h2.8v-3.3h-2.8zm4-4.6h2.8v-3.2h-2.8zm0 4.6h2.8v-3.3h-2.8zm3.7 1.9c2.1.9 4.1 1.8 6.1 2.7l-.7 1.3c-2.2-1.1-4.2-2-6.1-2.9zm3.2-9.7h-2.8v3.2h2.8zm-2.8 7.8h2.8v-3.3h-2.8z" fill="#fbfcfa"/><g fill="#010101"><path d="m216.37 62.94c6.46-.51 11.93-1.06 17.41-1.27 1.08-.04 2.51.93 3.28 1.85 6.03 7.25 11.93 14.62 17.9 21.93 5.25 6.42 11.12 11.93 19.61 13.81 1.95.43 3.1-.05 4.36-1.51 3.78-4.38 5.72-9.11 3.65-14.91-.46-1.28-.46-2.72-.88-4.03-.98-3.1-.18-5.81.91-8.81 1.62-4.51 3.3-9.36 3.21-14.03-.16-8.06 2.87-14.59 7.22-21.17 4.11 1.8 7.29 4.72 9.81 8.22 8.86 12.28 13.86 26.1 15.86 41.04.14 1.02-.1 2.5-.77 3.16-6.36 6.33-8.35 14.4-9 22.86-.86 11.06-.26 22.06 3.59 32.62.76 2.09 2.19 4.08 3.73 5.72 3.84 4.1 7.98 7.91 11.89 11.94 5.04 5.19 7.64 11.28 6.53 19.07-4.85-1.62-9.44-3.12-14-4.71-.65-.23-1.25-.8-1.69-1.36-3.19-4.05-7.57-5.57-12.47-6.13-1.74-.2-2.97.23-3.36 2-1.07 4.82-3.08 9.7-2.9 14.48.48 12.94-1.4 25.58-3.26 38.26-4.11 27.99-8.26 55.97-12.3 83.96-.25 1.73.05 3.6.37 5.35 1.78 9.76-1.56 18.86-3.6 28.12-1.67 7.59-3.92 14.99-8.92 21.17-1.5 1.85-3.26 3.5-4.9 5.25-.4-.06-.8-.12-1.2-.18-.46-4.01-1.52-8.06-1.27-12.03.73-11.52 1.92-23.01 3.07-34.5.82-8.21 1.98-16.39 2.75-24.61.27-2.84-.15-5.78-2.66-7.81-1.8-1.46-3.35-1.82-4.99.5-6.53 9.17-14.84 16.52-23.89 23.12-12.5 9.11-25.37 17.79-35.19 30.06-1.16 1.45-2.81 2.6-4.41 3.6-4.35 2.71-8.82 4.39-14.06 2.09-2.79-1.22-5.88-1.73-8.8-2.68-.82-.27-1.76-.82-2.18-1.52-2.54-4.27-2.24-4.92 1.74-7.75 11.22-7.98 22.66-15.69 33.4-24.27 4.77-3.81 8.15-9.39 11.95-14.32.78-1.02 1.06-2.77.91-4.11-2.99-26.75-6.12-53.49-9.08-80.24-.31-2.82-1.45-4.54-3.99-5.35-4.12-1.31-8.28-2.5-12.43-3.72-1.92-.56-3.97-.82-5.77-1.65-4.66-2.14-5.6-7.15-2.18-10.87 16.65-18.11 33.24-36.27 50.01-54.28 3.38-3.63 7.45-6.6 11.1-9.98 4.15-3.84 5.62-11.72 3.17-16.75-.39-.81-1.26-1.4-1.95-2.05-7.88-7.41-15.98-14.6-23.55-22.31-3.65-3.72-6.58-8.26-9.3-12.76-1.39-2.33-1.61-5.36-2.48-8.51zm26.48 217.23c7.13-2.75 14.22-5.44 21.27-8.25.69-.27 1.21-1.14 1.64-1.84 3.69-6.02 6.24-12.42 6.62-19.59.13-2.42.75-4.81 1.01-7.23.75-6.93 2.09-13.87 2-20.79-.16-13.12-1.26-26.22-1.7-39.33-.08-2.52 1.15-5.07 1.63-7.63.41-2.2.8-4.44.88-6.67.18-5.24-.36-10.57.37-15.72.95-6.62-.3-9.76-7.97-13.04-12.59 13-25.58 26.37-38.49 39.82-.57.6-.75 1.92-.6 2.82 3.14 19.22 6.35 38.43 9.55 57.65 1.42 8.55 3.5 17.08.83 25.76-1.57 5.1.03 9.54 2.96 14.04z"/><path d="m153.14 330.6c-10.91.33-21.7.71-32.5.91-1.04.02-2.42-.77-3.09-1.61-3.05-3.8-5.92-7.75-8.8-11.68-.47-.65-1.02-1.54-.95-2.25 1.17-11.07-3.52-20.96-6.34-31.2-.85-3.07-1.05-5.88-.24-8.98 3.67-14.14 7.18-28.32 10.76-42.49.15-.59.38-1.16.57-1.74 10.84 4.08 12.74 11.18 10.41 18.76-1.25 4.08-1.68 8.5-1.86 12.8-.3 7 3.73 11.41 10.05 13.3 4.71 1.41 9.71 2.03 14.63 2.5 4.41.42 8.9.06 13.34.21 2.02.07 2.97-.73 3.69-2.6 3.23-8.29 4.62-16.93 5.15-25.75.09-1.48.2-2.97.51-4.41 1.57-7.45 9.09-11.18 15.99-7.96.36.17.69.46.94.77.26.32.37.77.62 1.1 4.92 6.45 5.89 13.5 3.6 21.24-4.77 16.13-9.39 32.3-14.05 48.46-.72 2.5-2.26 4.06-4.67 5.15-3.95 1.79-7.66 4.11-11.62 5.87-2.76 1.22-4.46 2.93-4.94 5.94-.2 1.23-.77 2.38-1.2 3.66zm4.62-28.39c-3.39-4.41-7.28-7.38-12.66-8.24-3.75-.6-7.45-1.59-11.18-2.32-.87-.17-1.9-.22-2.71.08-3.18 1.16-6.34 2.4-9.41 3.82-.7.33-1.5 1.55-1.43 2.27.56 5.14 1.34 10.25 2.07 15.51 13.77 2.53 25.48-.82 35.32-11.12z"/><path d="m85.57 316.59c-.32-.89-.84-1.84-1-2.85-1.4-8.52-7.55-12.85-14.52-16.34-8.42-4.21-10.09-7.14-8.82-16.83 5.33 1.81 9.72 5.01 13.79 8.65 6.94 6.2 12.35 13.37 13.94 22.86.43 2.6.38 4.77-3.39 4.51z"/></g></svg>