<svg enable-background="new 0 0 400 400" viewBox="0 0 400 400" xmlns="http://www.w3.org/2000/svg"><path d="m362.1 8.8c1.1.8 2.1 1.6 3.1 2.4l-1 1.1c-1.3-1.1-2.3-2-3-2.5zm1.9 4.8c.5.2.9.4 1.4.5-.6 2.3-1.3 4.5-1.9 6.8l-1.5-.5c.8-2.1 1.4-4.3 2-6.8zm-1-9.4c1.3.9 2.4 1.8 3.4 2.5l-1 1.1c-1.4-1.2-2.4-2.1-3.2-2.6zm3.7 2.2v-1.4h10.3v1.2c-.5 3.6-1.8 6.8-4 9.4 1.5 1.6 3.4 2.8 5.7 3.8-.3.4-.7.8-1.1 1.4-2.3-1.1-4.1-2.5-5.6-4.1-1.6 1.6-3.6 3.1-5.9 4.3-.3-.5-.7-.9-1-1.3 2.4-1.1 4.4-2.5 6-4.1-1.9-2.5-3-5.6-3.3-9.3h-1.1zm8.8 0h-6.4c.3 3.3 1.3 6 3 8.2 2-2.3 3.1-5.1 3.4-8.2z" fill="#fbfcfa"/><path d="m385.3 3.8h1.3v2.2h2.8v-2.2h1.3v2.2h4.1v9.1h1.7v1.3h-16.9v-1.3h1.7v-9.1h4.1v-2.2zm.4 13.1.7 1.2c-1.8.9-3.8 1.9-6 2.9-.2-.4-.5-.8-.8-1.3 2.3-1 4.3-1.9 6.1-2.8zm-3.1-6.4h2.8v-3.2h-2.8zm0 4.6h2.8v-3.3h-2.8zm4-4.6h2.8v-3.2h-2.8zm0 4.6h2.8v-3.3h-2.8zm3.7 1.9c2.1.9 4.1 1.8 6.1 2.7l-.7 1.3c-2.2-1.1-4.2-2-6.1-2.9zm3.2-9.7h-2.8v3.2h2.8zm-2.8 7.8h2.8v-3.3h-2.8z" fill="#fbfcfa"/><path d="m136.47 229.27c1.16 5.44 2.44 10.85 3.45 16.32.69 3.73 1.14 7.4-.59 11.21-.82 1.8.14 4.37.05 6.58-.22 5.26-.57 10.51-.89 15.76-.06 1.05-.24 2.1-.35 3.15-.26 2.38.62 3.5 3.2 3.37 6.1-.29 12.21-.61 18.31-.54 4.74.06 9.47.69 14.21 1.05 3.06.23 6.12.45 9.18.66 4.93.33 9.85.65 15.31 1.01 0-2.33.03-5.02-.01-7.72-.17-12.71-.22-25.43-.61-38.13-.14-4.73-1.11-9.43-1.64-14.16-.3-2.71-1-5.5-.64-8.14 1.26-9.46-1.39-18.54-2.29-27.77-.74-7.59-2.03-15.12-2.88-22.7-.31-2.73-1.26-4.54-3.71-6.07-10.32-6.47-20.57-13.08-30.69-19.86-7.95-5.32-14.2-12.36-19.22-20.49-.58-.95-.98-2.13-1.08-3.24-.79-8.44-2.17-16.9-2.04-25.34.15-9.58 1.59-19.15 2.7-28.71.11-.95 1.66-2.07 2.77-2.44.62-.2 1.97.79 2.53 1.57 3.96 5.57 5.22 11.96 5.27 18.66.05 6.25-.25 12.52.14 18.75.33 5.25.99 10.58 2.39 15.62.79 2.84 2.89 5.81 5.25 7.63 6.43 4.97 13.2 9.53 20.04 13.93 4.06 2.61 8.5 4.63 12.89 6.98 2.03-4.35 1.72-8.69 1.31-13.01-2.67-28.18-4.94-56.36-2.37-84.68.44-4.88 1.62-9.57 4.54-13.72 3.99 1.68 6.36 4.71 5.79 8.69-1.96 13.65 1.85 26.99 1.8 40.52-.04 12.19.22 24.39.7 36.57.3 7.59 1.19 15.16 1.94 22.73.34 3.39 2.1 4.53 4.61 2.79 9.56-6.63 19.65-12.58 27.81-21.08 7.76-8.08 11.46-17.74 11.1-28.84-.34-10.36-1.53-20.72-1.45-31.07.05-6.86-2-13.79.29-20.61.34-1 .45-2.15 1.04-2.97.55-.76 1.59-1.63 2.4-1.61.65.01 1.65 1.19 1.84 2.01 1.64 7.32 3.44 14.63 4.62 22.03 2.59 16.12 4.05 32.37 4.25 48.71.09 7.64-1.58 14.69-7.8 19.98-4.74 4.03-9.29 8.3-13.95 12.43-.87.77-2 1.29-2.76 2.14-7.29 8.18-17.06 11-27.32 12.81-.93.16-1.84.42-2.84.66-.72 11.5-.57 22.78 1.76 33.98.82 3.92 1.18 7.94 1.65 11.92 1.21 10.29 3.08 20.57 3.36 30.89.44 16.06-.13 32.15-.51 48.22-.07 2.81.81 4.12 3.33 4.69.93.21 1.88.63 2.8.56 9.18-.73 17.77 2.25 26.56 4.03 2.47.5 5.04.59 7.57.61 4.27.03 5.4-.95 6.35-5.07.17-.72.46-1.48.38-2.18-1.32-10.83-.28-21.72-1.58-32.64-1.39-11.73-3.5-23.66-1.38-35.61.28-1.61 1.15-3.12 1.98-5.3 3.72 4.5 5.47 9.19 6.14 14.2 1.03 7.66 1.61 15.39 2.54 23.07 3.4 28.15 4.09 56.38 2.6 84.67-.06 1.21-.52 2.44-.98 3.59-.7 1.76-2.05 3.4-2.27 5.19-.72 6.05-4.66 9.34-9.4 12.25-4.59 2.82-8.84 6.1-14.68 6.16-3 .03-5.97 1.11-8.98 1.53-2.7.37-5.45.68-8.17.67-6.46-.02-12.93-.5-19.38-.33-13.03.36-24.67-3.86-35.88-9.96-3-1.63-6.48-2.38-9.59-3.83-3.25-1.52-6.4-3.28-9.46-5.15-3.43-2.1-6.75-4.39-10.04-6.71-.91-.64-1.74-1.56-2.26-2.54-3.35-6.28-5.32-12.85-4.5-20.11.2-1.79-.2-3.82-.9-5.5-1.54-3.68-2.14-7.39-2.27-11.39-.75-22.4 1.17-44.66 3.4-66.89.17-1.73 2.2-3.27 3.37-4.9.6.16 1.22.31 1.84.46zm119.49 90.49c-.32-.04-.65-.07-.97-.11 0-3.5-.15-7 .05-10.49.14-2.51-.7-3.29-3.22-3.31-9.02-.07-17.96-.91-26.72-3.24-6.77-1.81-13.64-2.6-20.7-2.75-9.3-.19-18.64-.81-27.86-1.99-7.88-1.01-15.51-1.26-23.22 1-2.17.63-4.73-.16-7.11-.17-2.01-.01-5.24-.52-5.78.42-1.05 1.84-.87 4.56-.69 6.88.15 1.95 1.12 3.83 1.56 5.77 1.1 4.85 2.04 9.74 3.17 14.58 1.08 4.62 4 7.84 8.16 9.99.94.49 2 .82 2.82 1.46 8.46 6.6 18.59 9.3 28.68 11.68 7.38 1.74 15.04 2.65 22.62 3.15 11.95.79 23.97 1.16 35.4-3.62.86-.36 1.83-.53 2.77-.6 4.31-.34 7.37-2.42 8.07-6.74 1.18-7.26 2-14.6 2.97-21.91z" fill="#010101"/></svg>