<svg enable-background="new 0 0 400 400" viewBox="0 0 400 400" xmlns="http://www.w3.org/2000/svg"><path d="m362.1 8.8c1.1.8 2.1 1.6 3.1 2.4l-1 1.1c-1.3-1.1-2.3-2-3-2.5zm1.9 4.8c.5.2.9.4 1.4.5-.6 2.3-1.3 4.5-1.9 6.8l-1.5-.5c.8-2.1 1.4-4.3 2-6.8zm-1-9.4c1.3.9 2.4 1.8 3.4 2.5l-1 1.1c-1.4-1.2-2.4-2.1-3.2-2.6zm3.7 2.2v-1.4h10.3v1.2c-.5 3.6-1.8 6.8-4 9.4 1.5 1.6 3.4 2.8 5.7 3.8-.3.4-.7.8-1.1 1.4-2.3-1.1-4.1-2.5-5.6-4.1-1.6 1.6-3.6 3.1-5.9 4.3-.3-.5-.7-.9-1-1.3 2.4-1.1 4.4-2.5 6-4.1-1.9-2.5-3-5.6-3.3-9.3h-1.1zm8.8 0h-6.4c.3 3.3 1.3 6 3 8.2 2-2.3 3.1-5.1 3.4-8.2z" fill="#fbfcfa"/><path d="m385.3 3.8h1.3v2.2h2.8v-2.2h1.3v2.2h4.1v9.1h1.7v1.3h-16.9v-1.3h1.7v-9.1h4.1v-2.2zm.4 13.1.7 1.2c-1.8.9-3.8 1.9-6 2.9-.2-.4-.5-.8-.8-1.3 2.3-1 4.3-1.9 6.1-2.8zm-3.1-6.4h2.8v-3.2h-2.8zm0 4.6h2.8v-3.3h-2.8zm4-4.6h2.8v-3.2h-2.8zm0 4.6h2.8v-3.3h-2.8zm3.7 1.9c2.1.9 4.1 1.8 6.1 2.7l-.7 1.3c-2.2-1.1-4.2-2-6.1-2.9zm3.2-9.7h-2.8v3.2h2.8zm-2.8 7.8h2.8v-3.3h-2.8z" fill="#fbfcfa"/><g fill="#010101"><path d="m286.48 365.96c-.34-1.39-.67-2.29-.76-3.22-.35-3.35-1.92-5.58-5.18-6.89-2.86-1.15-3.76-3.57-3.43-6.74.24-2.31-.17-4.74-.63-7.04-.35-1.74-1.16-3.4-1.88-5.05-3.85-8.9-6.12-17.91-6.01-27.9.12-11.49-1.9-23-2.65-34.52-.8-12.27-1.36-24.56-1.68-36.84-.1-3.84.57-7.78 1.45-11.54 4.36-18.68 9.75-37.03 17.33-54.71.85-1.99.52-4.85-.11-7.07-3.33-11.77-8.29-22.86-14.63-33.34-1.6-2.64-3.36-3.02-6.49-2.57-21.6 3.12-40.91 12.82-60.82 20.78-1.42.57-2.56 1.83-3.86 2.72-10.81 7.38-22.09 13.78-35.08 16.57-1.4.3-2.76 1.06-4 1.83-10.91 6.73-21.74 13.58-32.68 20.27-5.95 3.64-12.03 7.09-18.1 10.53-4.06 2.3-8.36 1.85-12.77.78-.83-3.21-.47-5.64 2.86-7.64 2.85-1.71 5.26-4.27 7.56-6.75 3.16-3.4 6.83-5.8 11.06-7.74 4.58-2.1 8.96-4.73 13.19-7.49 5.15-3.35 10.23-6.85 15.03-10.67 9.81-7.8 20.75-13.01 32.6-17.17 11.83-4.16 23.01-10.21 34.39-15.6 10.44-4.94 21.05-9.33 32.13-12.73 4.5-1.38 8.61-4.38 12.58-7.11 3.43-2.37 4.58-5.71 2.91-10.03-2.07-5.35-1.8-6.15 2.7-9.64 2.45-1.9 3.1-3.91 3.1-6.97-.01-7.6.23-15.24 1.11-22.77.36-3.06 2.48-6 4.15-8.78.47-.78 2.32-1.36 3.29-1.1 5.04 1.35 7.18 5.33 8.06 10.04 1.2 6.39 1.22 12.79.11 19.27-3.14 18.34.08 35.79 7.72 52.63 4.23 9.34 8.63 18.69 11.71 28.43 1.46 4.63 1 10.46-.34 15.25-2.66 9.44-6.63 18.51-9.89 27.79-2.98 8.49-5.6 17.1-8.62 25.57-1.73 4.86-2.62 9.69-2.4 14.89.68 16.2.33 32.48 1.82 48.6 1.56 16.84 4.65 33.54 7.37 50.25 1.62 9.98 1.31 16.83-2.22 23.42z"/><path d="m111.26 306.83c-3.11-6.9-1.98-12.4 4.2-16.72 4.14-2.89 6.18-7.32 7.96-11.94.88-2.29 2.33-4.53 4-6.34 12.79-13.87 25.62-27.7 38.63-41.36 2.79-2.93 6.31-5.19 9.58-7.64 1.35-1.01 2.87-1.82 4.4-2.53 6.12-2.84 10.76-7.1 14.28-12.96 1.88-3.13 5.07-5.47 7.97-8.49 4.36 7.8 7.07 14.87 6.05 23.34-.86 7.08-.92 14.39-.22 21.5.85 8.69.23 17.13-1.64 25.54-.91 4.12-1.27 8.09.26 12.15 2.13 5.67 1.1 11.54.68 17.31-1.29 17.9-3.97 35.55-10.19 52.51-.61 1.65-1.21 3.01-3.79 1.9 1.08-9.11-2.58-17.57-4.62-26.4-2.33-10.08-1.37-20.53.55-30.66 1.84-9.71 1.31-19.27.68-29.03-.54-8.38.69-16.88 1.19-25.33.17-2.84.49-5.67.74-8.43-3.72-1.82-6.42-1.09-9.34 1.79-11.01 10.87-22.41 21.34-33.43 32.2-3.9 3.85-7.14 8.38-10.66 12.61-5.49 6.6-10.94 13.23-16.44 19.82-2.95 3.5-6.57 5.97-10.84 7.16z"/><path d="m183.49 35.03c6.74 1.67 12.33 4.83 16.82 9.85.56.62.71 1.73.79 2.64 1.03 10.86 2.12 21.72 2.94 32.61.18 2.34-.72 4.75-1.04 7.14-1.41 10.56-6.88 18.28-14.81 25.46-9.9 8.97-20.37 16.78-31.97 23.27-3.1 1.73-5.93 4.03-8.68 6.32-7.95 6.64-16.65 11.65-27.09 13.03-2.18.29-4.75 1.23-6.08-2.19 6-5.16 12.08-10.4 18.18-15.62 12.48-10.69 24.9-21.44 37.49-31.99 3.63-3.04 7.55-5.88 11.71-8.12 5.84-3.15 8.31-7.83 7.36-14.1-1.39-9.2-3.29-18.33-4.85-27.5-1.16-6.77-2.44-13.56-.77-20.8z"/></g></svg>