<svg enable-background="new 0 0 400 400" viewBox="0 0 400 400" xmlns="http://www.w3.org/2000/svg"><path d="m362.1 8.8c1.1.8 2.1 1.6 3.1 2.4l-1 1.1c-1.3-1.1-2.3-2-3-2.5zm1.9 4.8c.5.2.9.4 1.4.5-.6 2.3-1.3 4.5-1.9 6.8l-1.5-.5c.8-2.1 1.4-4.3 2-6.8zm-1-9.4c1.3.9 2.4 1.8 3.4 2.5l-1 1.1c-1.4-1.2-2.4-2.1-3.2-2.6zm3.7 2.2v-1.4h10.3v1.2c-.5 3.6-1.8 6.8-4 9.4 1.5 1.6 3.4 2.8 5.7 3.8-.3.4-.7.8-1.1 1.4-2.3-1.1-4.1-2.5-5.6-4.1-1.6 1.6-3.6 3.1-5.9 4.3-.3-.5-.7-.9-1-1.3 2.4-1.1 4.4-2.5 6-4.1-1.9-2.5-3-5.6-3.3-9.3h-1.1zm8.8 0h-6.4c.3 3.3 1.3 6 3 8.2 2-2.3 3.1-5.1 3.4-8.2z" fill="#fbfcfa"/><path d="m385.3 3.8h1.3v2.2h2.8v-2.2h1.3v2.2h4.1v9.1h1.7v1.3h-16.9v-1.3h1.7v-9.1h4.1v-2.2zm.4 13.1.7 1.2c-1.8.9-3.8 1.9-6 2.9-.2-.4-.5-.8-.8-1.3 2.3-1 4.3-1.9 6.1-2.8zm-3.1-6.4h2.8v-3.2h-2.8zm0 4.6h2.8v-3.3h-2.8zm4-4.6h2.8v-3.2h-2.8zm0 4.6h2.8v-3.3h-2.8zm3.7 1.9c2.1.9 4.1 1.8 6.1 2.7l-.7 1.3c-2.2-1.1-4.2-2-6.1-2.9zm3.2-9.7h-2.8v3.2h2.8zm-2.8 7.8h2.8v-3.3h-2.8z" fill="#fbfcfa"/><path d="m139.62 365.94c-1.83-10.33-3.6-20.22-5.33-30.13-.18-1.03-.25-2.12-.15-3.17 1.28-13.31-.88-26.43-2.09-39.61-.39-4.25-.29-8.3.63-12.55.73-3.36.07-7.16-.57-10.65-1.02-5.61-.6-11.1-.1-16.72.41-4.54.06-9.39-1.12-13.78-2.11-7.87-1.21-15.13 1.82-22.52.93-2.27.91-5.2.48-7.69-.5-2.9-.03-5.24 1.89-7.29.54-.57 1.73-1.25 2.25-1.02 7.44 3.32 14.26 0 21.22-1.83 1.13-.3 2.29-.49 3.37-.91 3.2-1.25 6.18-1.75 8.2 2.37.87-.92 1.53-1.53 2.1-2.23 1.31-1.6 2.79-2.18 4.99-1.89 2.12.28 4.42-.04 6.51-.58 3.27-.84 6.39-2.29 9.67-3.09 3.38-.82 4.31-3.04 4.32-6.07 0-.63-.02-1.29-.19-1.89-3.14-11.33-2-22.94-2.33-34.45-.13-4.56.08-9.13-.21-13.67-.19-2.9-.93-5.78-1.57-8.63-.87-3.86-3.78-5.09-7.33-5.29-1.58-.09-3.18-.03-4.77.05-7.86.4-13.68-6.77-11.67-14.79 6.62-.82 13.33-1.65 20.04-2.49 3.39-.43 4.95-2.14 3.91-5.37-4.38-13.6-3.53-28.39-9.58-41.57-.93-2.03-2.24-3.94-3.63-5.7-1.51-1.9-3.56-3.38-4.96-5.34-2.53-3.54-1.11-6.42 3.16-7.03 6.5-.94 12.98-1.99 19.48-2.91 1.42-.2 2.88-.03 4.79-.03.66-1.95 2.68-2.31 5.21-2.3 5.51.02 11.01-.48 16.52-.42 5.27.06 9.64 2.09 12.33 7.11-1.31 1.23-2.63 2.29-3.73 3.54-.81.93-1.81 2.07-1.9 3.19-.23 2.9-1.32 4.75-4.24 5.56-.68.19-1.41 1.28-1.58 2.08-3.17 14.68-7.18 29.22-8.02 44.33-.1 1.86.26 2.74 2.05 3.16 2.99.69 5.97 1.43 8.91 2.28 1.5.43 3.1.91 4.34 1.8 2.86 2.05 2.61 4.03-.24 6.06-5.4 3.85-11.29 6.57-17.67 8.38-4.87 1.38-6.05 3.08-6.07 8.21-.01 3.07.29 6.14.49 9.2.53 8.02-1.25 15.71-2.61 23.55-1.36 7.85-1.16 15.99-1.2 24.01-.01 1.12 2.4 2.88 3.95 3.22 2.3.51 4.83.17 7.25-.04 13.2-1.18 26.23.01 39.12 2.86 1.53.34 3.02.98 4.45 1.67 4.76 2.29 7.02 6.45 5.53 11.47-1.85 6.21-1.88 12.43-1.82 18.82.08 8.35-.78 16.71-1.11 25.07-.35 8.79-1.78 17.76-.49 26.32 1.61 10.72-1.36 21-.75 31.49.26 4.44.17 8.94.79 13.33.83 5.84-1.35 11.05-2.76 16.44-.18.7-1.14 1.44-1.89 1.7-1.89.65-3.88 1.03-6.1 1.59-1.87-5-2.23-10.1-2.29-15.27-.07-6.03.82-12.34-.65-18.03-2.15-8.32-1.29-16.56-1.73-24.83-.06-1.08-.46-2.33-1.12-3.17-6.39-8.08-8.24-17.9-11.02-27.45-3.25-11.16-7.16-22.12-10.92-33.12-1.11-3.24-3.16-4.8-7.14-4.7-12.82.35-25.66.18-38.49.08-2.09-.02-3.23.56-4.09 2.53-1.66 3.78-3.81 7.34-5.44 11.12-1.27 2.97-2.05 6.15-3.08 9.22-.4 1.18-.79 2.41-1.4 3.48-4.22 7.35-8.52 14.65-12.75 22-.56.98-1.15 2.1-1.22 3.19-1.17 19.35-2.86 38.67-2.05 58.11.22 5.27-1.06 10.67-2.13 15.91-.84 4.13-2.66 8.05-3.6 12.16-.64 2.82-.63 5.8-.68 8.72-.07 1.79.3 3.57-2.19 4.84z" fill="#010101"/></svg>