<svg enable-background="new 0 0 400 400" viewBox="0 0 400 400" xmlns="http://www.w3.org/2000/svg"><path d="m362.1 8.8c1.1.8 2.1 1.6 3.1 2.4l-1 1.1c-1.3-1.1-2.3-2-3-2.5zm1.9 4.8c.5.2.9.4 1.4.5-.6 2.3-1.3 4.5-1.9 6.8l-1.5-.5c.8-2.1 1.4-4.3 2-6.8zm-1-9.4c1.3.9 2.4 1.8 3.4 2.5l-1 1.1c-1.4-1.2-2.4-2.1-3.2-2.6zm3.7 2.2v-1.4h10.3v1.2c-.5 3.6-1.8 6.8-4 9.4 1.5 1.6 3.4 2.8 5.7 3.8-.3.4-.7.8-1.1 1.4-2.3-1.1-4.1-2.5-5.6-4.1-1.6 1.6-3.6 3.1-5.9 4.3-.3-.5-.7-.9-1-1.3 2.4-1.1 4.4-2.5 6-4.1-1.9-2.5-3-5.6-3.3-9.3h-1.1zm8.8 0h-6.4c.3 3.3 1.3 6 3 8.2 2-2.3 3.1-5.1 3.4-8.2z" fill="#fbfcfa"/><path d="m385.3 3.8h1.3v2.2h2.8v-2.2h1.3v2.2h4.1v9.1h1.7v1.3h-16.9v-1.3h1.7v-9.1h4.1v-2.2zm.4 13.1.7 1.2c-1.8.9-3.8 1.9-6 2.9-.2-.4-.5-.8-.8-1.3 2.3-1 4.3-1.9 6.1-2.8zm-3.1-6.4h2.8v-3.2h-2.8zm0 4.6h2.8v-3.3h-2.8zm4-4.6h2.8v-3.2h-2.8zm0 4.6h2.8v-3.3h-2.8zm3.7 1.9c2.1.9 4.1 1.8 6.1 2.7l-.7 1.3c-2.2-1.1-4.2-2-6.1-2.9zm3.2-9.7h-2.8v3.2h2.8zm-2.8 7.8h2.8v-3.3h-2.8z" fill="#fbfcfa"/><g fill="#010101"><path d="m175.67 101.79c4.26 7.21 6.33 14.89 6.96 23.02.65 8.45 1.09 16.93 4.26 24.96 1.39 3.52 3 4.47 6.6 3.44 11.08-3.2 22.18-6.36 33.18-9.81 1.3-.41 2.9-2.49 2.95-3.85.22-5.78.44-11.64-.32-17.35-1.15-8.59-3.12-17.08-4.73-25.61-.15-.82-.47-1.78-.2-2.48 1.75-4.6-.41-8.96-.54-13.4-.2-6.92-2.58-13.18-4.27-19.69-1.99-7.68 1.15-14.55 3.87-21.79 3.19 3.33 4.41 7.22 5.02 11.26 2.61 17.28 4.97 34.6 7.71 51.87 1.65 10.39 3.11 20.75 2.53 31.29-.17 3.16 1.88 4.47 4.42 4.78 2.37.29 4.83-.09 7.24-.3 2.84-.25 5.68-.57 8.51-.96 3.41-.48 5.86.96 7.96 3.51 5.25 6.38 9.19 13.49 11.65 21.34 2.03 6.47-1.24 15.15-6.82 19.02-.45.31-1.29.59-1.66.38-2.45-1.45-4.68-.05-7.03.29-3.61.52-7.29 1.02-10.92.9-5.13-.17-7.89 2.08-8 7.06-.28 11.98-.78 23.95-.92 35.93-.05 4.51.55 9.04 1.05 13.54.28 2.51.29 4.79-2.13 6.98-1.59-9.11-3.13-17.81-4.63-26.51-1.53-8.87-3.1-17.74-4.52-26.63-.36-2.25-1.49-3.29-3.6-3.03-5.85.73-11.8 1.13-17.47 2.58-5.9 1.5-11.53 4.07-17.27 6.2-5.54 2.05-7.12 6.78-8.08 11.95-.37 1.98-.49 4.09-1.32 5.87-.85 1.84-2.41 3.35-3.66 5-.36-.16-.73-.33-1.09-.49-.75-3.57-1.52-7.14-2.26-10.72-.82-3.96-1.66-4.54-5.59-3.64-8.57 1.95-17.08 4.16-25.71 5.81-4.23.81-6.24 2.75-6.68 6.98-.15 1.43-1.49 2.74-2.32 4.17-.72-.54-.95-.63-1.03-.78-2.54-5.47-2.78-5.91-8.74-4.87-7.07 1.23-14.05 3.03-21.02 4.79-.84.21-1.89 1.66-1.94 2.58-.2 3.59-.03 7.2-.01 10.81.01 2.51-.81 4.54-3.61 5.77-1.79-4.23-3.75-8.29-5.21-12.54-.9-2.64-2.36-3.26-4.9-3.14-3.91.19-7.85-.08-11.77.1-2.11.1-3.56-.59-4.3-2.44-3.26-8.08-4.7-16.16-.52-24.5 1.01-2.02.86-4.61 1.29-7.18 1.73-.69 2.15.16 2.3 2.1.48 5.91.95 11.83 1.89 17.68.74 4.63 1.36 4.77 5.88 3.63 6.64-1.67 6.8-1.78 7.52-8.51.31-2.94.22-5.92.43-8.88.14-2.04-.78-3.16-2.66-3.67-1.94-.52-3.91-.96-5.81-1.63-3.25-1.14-3.85-4.22-1.14-6.27 4.14-3.13 5.42-6.99 4.87-12.21-1.57-14.86-2.82-29.76-3.86-44.66-.48-6.9.48-13.75 3.37-20.41 2.55 1.5 2.89 3.92 3.27 6.42.51 3.3 1.3 6.56 1.85 9.86 1.35 8.13 2.95 16.24 3.85 24.42.75 6.81.79 13.7.92 20.56.09 5.01 3.22 8.44 8.32 7.51 5.05-.93 9.97-2.75 14.77-4.65 1.15-.46 2.15-2.71 2.23-4.19.16-3.14-.28-6.32-.57-9.47-1.7-18.25-3.43-36.5-5.13-54.75-.65-6.96-1.4-13.92-1.78-20.9-.14-2.49.68-5.03 1.08-7.62 3.56.64 5.19 2.28 6.28 4.79 4.47 10.32 6.93 21.1 7.63 32.3.11 1.67.05 3.48-.49 5.04-1.63 4.67-1.06 9.12.68 13.58 2.94 7.56 3.39 15.44 3.18 23.45-.07 2.8.58 5.65 1.18 8.42.59 2.72 2.74 4.36 5.32 4.13 4.59-.4 9.16-1.24 13.66-2.26 3.67-.83 7.24-2.15 10.82-3.36 1.98-.66 4.26-1.11 5.71-2.42 1.27-1.15 2.26-3.42 2.18-5.13-.75-15.78-1.76-31.54-2.68-47.3-.19-3.13.71-5.51 4.52-6.07zm12.35 61.6c.39 6.81.67 12.77 1.13 18.72.14 1.87.5 3.83 1.29 5.49.43.91 2.04 1.92 2.99 1.81 12.23-1.44 24.13-4.29 35.64-8.73 1.86-.72 2.42-1.82 2.58-3.77.4-4.91.65-9.92 1.9-14.65.8-3.04.31-5.11-1.52-7.21-2-2.29-4.07-4.2-7.61-3.29-6.04 1.55-12.15 2.82-18.23 4.24-6.74 1.57-13.08 4.12-18.17 7.39zm-13.52 2.05c-11.7 4.25-22.81 8.26-33.88 12.38-.64.24-1.39 1.39-1.36 2.07.31 5.78.48 11.6 1.34 17.32.55 3.63 2.37 4.43 6.02 3.77 1.33-.24 2.55-1.05 3.88-1.29 1.39-.25 3.25-.71 4.2-.06 3.47 2.4 6.67 1.3 9.87-.17 3.36-1.54 6.56-3.42 9.91-4.98 2.38-1.11 3.19-2.9 3.04-5.35-.29-4.85-.38-9.73-.92-14.56-.32-2.97-1.32-5.87-2.1-9.13zm67.2 11.63c7.06.98 13.43.43 19.76-1.12 5.52-1.35 8.43-4.63 8.88-10.4.55-7.04-1.64-12.89-7.41-16.87-5.73-3.95-11.82-6.47-18.78-2.05-4.14 2.63-4.21 2.31-3.76 7.43.31 3.58.09 7.2.29 10.8.22 3.99.65 7.98 1.02 12.21zm-138.94 20.77c.51 3.76 1.03 7.52 1.51 11.28.27 2.13 1.49 3.04 3.48 2.43 6.43-1.99 12.85-4.04 19.21-6.24.88-.3 2.01-1.61 2-2.45-.05-5.73-.63-11.43-3.5-16.56-1.36-2.42-3.38-3.62-6.35-2.41-2.64 1.07-5.37 1.9-8.07 2.81-8 2.71-8 2.71-8.28 11.14z"/><path d="m297.7 344.19c-.13-2.22-.82-4.58-.3-6.63 2.83-11.05 6-22.01 8.99-33.01 1-3.68 1.85-7.39 2.68-11.11.27-1.22.59-2.59.28-3.73-.94-3.48-.32-6.72 1.14-9.83 1.95-4.14 1.09-7.91-1.48-11.31-2.12-2.81-4.62-5.34-6.97-8.01-7.91 7.53-8.93 19.55-19.12 24.24-.32-.16-.65-.31-.97-.47.99-2.45 1.67-5.09 3.02-7.32 4.8-7.94 6.84-16.79 9.07-25.62 1.11-4.42.13-7.78-2.8-11.29-5.9-7.08-11.41-14.49-16.92-21.87-4.19-5.61-1.79-7.93 3.34-9.68.67-.23 1.94.52 2.59 1.16 7.23 7.09 14.4 14.26 21.97 21.79 2.64-10.12 6.49-20.47 7.78-31.13 1.16-9.55-.62-19.43-.85-29.17-.09-4.09.14-8.26.87-12.27.43-2.35 2.15-4.47 3.41-6.93 3.92 2.33 5.56 5.5 5.92 9.31.24 2.52.43 5.16-.06 7.61-1.47 7.32.02 14.55.04 21.81.02 6.83-1.4 13.67-1.34 20.49.09 11.15-5.65 20.71-7.64 31.25-.28 1.48-.44 3.25.09 4.58 1.78 4.39 3.91 8.65 5.9 12.95 2.16 4.68 4.67 9.24 6.34 14.09.79 2.29.32 5.21-.22 7.71-1.38 6.37-2.78 12.78-4.79 18.97-4.42 13.56-9.13 27.04-14.01 40.44-.57 1.57-2.96 2.47-4.5 3.68-.46-.23-.96-.47-1.46-.7z"/><path d="m154.75 363.23c-3.42-1.48-6.36-.3-9.19 1.64-.48.33-1.19.38-1.81.43-4.51.32-9.01.81-13.52.84-3.12.02-6.26-.53-9.36-1.06-.64-.11-1.48-1.21-1.54-1.91-.05-.65.68-1.8 1.31-2.01 3.3-1.08 6.64-2.54 10.03-2.74 11.19-.66 21.83-3.94 32.72-6.07 7.33-1.44 14.88-1.88 22.35-2.33 1.32-.08 3.54 1.72 3.99 3.09.71 2.2-1.74 2.05-3.17 2.4-9.66 2.37-19.32 4.72-28.98 7.07-.92.22-1.84.42-2.83.65z"/><path d="m186.91 305.45c-4.21 3.75-8.69 4.76-13.25 4.8-8.41.07-16.33 2.17-24.13 4.98-7.29 2.62-14.71 3.91-22.68 2.38-.25-1.24-.52-2.54-.93-4.56 6.15-1.56 12.13-3.19 18.17-4.57 9.18-2.1 18.36-4.26 27.62-5.92 3.56-.63 7.37-.16 11.02.25 1.35.14 2.56 1.57 4.18 2.64z"/></g></svg>