<svg enable-background="new 0 0 400 400" viewBox="0 0 400 400" xmlns="http://www.w3.org/2000/svg"><path d="m362.1 8.8c1.1.8 2.1 1.6 3.1 2.4l-1 1.1c-1.3-1.1-2.3-2-3-2.5zm1.9 4.8c.5.2.9.4 1.4.5-.6 2.3-1.3 4.5-1.9 6.8l-1.5-.5c.8-2.1 1.4-4.3 2-6.8zm-1-9.4c1.3.9 2.4 1.8 3.4 2.5l-1 1.1c-1.4-1.2-2.4-2.1-3.2-2.6zm3.7 2.2v-1.4h10.3v1.2c-.5 3.6-1.8 6.8-4 9.4 1.5 1.6 3.4 2.8 5.7 3.8-.3.4-.7.8-1.1 1.4-2.3-1.1-4.1-2.5-5.6-4.1-1.6 1.6-3.6 3.1-5.9 4.3-.3-.5-.7-.9-1-1.3 2.4-1.1 4.4-2.5 6-4.1-1.9-2.5-3-5.6-3.3-9.3h-1.1zm8.8 0h-6.4c.3 3.3 1.3 6 3 8.2 2-2.3 3.1-5.1 3.4-8.2z" fill="#fbfcfa"/><path d="m385.3 3.8h1.3v2.2h2.8v-2.2h1.3v2.2h4.1v9.1h1.7v1.3h-16.9v-1.3h1.7v-9.1h4.1v-2.2zm.4 13.1.7 1.2c-1.8.9-3.8 1.9-6 2.9-.2-.4-.5-.8-.8-1.3 2.3-1 4.3-1.9 6.1-2.8zm-3.1-6.4h2.8v-3.2h-2.8zm0 4.6h2.8v-3.3h-2.8zm4-4.6h2.8v-3.2h-2.8zm0 4.6h2.8v-3.3h-2.8zm3.7 1.9c2.1.9 4.1 1.8 6.1 2.7l-.7 1.3c-2.2-1.1-4.2-2-6.1-2.9zm3.2-9.7h-2.8v3.2h2.8zm-2.8 7.8h2.8v-3.3h-2.8z" fill="#fbfcfa"/><path d="m263.63 295.41c-3.66 3.19-6.31 5.98-9.42 8.1-8.48 5.79-16.94 11.67-25.81 16.8-8.93 5.17-17.61 10.59-25.24 17.55-1.93 1.76-3.74 1.87-5.61.44-1.78-1.36-2.66-3.03-1.46-5.52.72-1.5.64-3.47.66-5.23.06-5.92-.17-11.85.06-17.77.21-5.36 2.04-10.14 5.07-14.77 7.28-11.14 15.04-21.76 25-30.72 3.35-3.02 5.94-6.88 8.9-10.33.89-1.04 1.7-2.34 2.85-2.91 3.19-1.59 3.89-3.98 3.86-7.41-.17-18.33-.08-36.65-.08-54.98 0-1.16 0-2.32 0-4.22-1.39.41-2.6.51-3.5 1.08-7.21 4.61-14.36 9.31-21.54 13.98-3.28 2.14-6.46 4.47-9.89 6.33-3.61 1.95-4.56 4.97-5.17 8.72-.89 5.49-2.39 10.88-3.77 16.28-.24.94-.97 2.07-1.79 2.49-3.72 1.9-5.84 5.16-7.66 8.64-2.07 3.97-5.13 6.84-8.64 9.53-1.65 1.26-3.08 3.59-3.41 5.63-.67 4.15-.48 8.44-.74 12.67-.2 3.17-.93 6.09-5.28 7.62-.58-3-1.86-5.9-1.52-8.58 1.49-11.52-.73-22.85-1.2-34.26-.48-11.86-1.72-23.74-1.33-35.56.23-6.82-.85-13.43-.89-20.16-.06-11.76-.27-23.52-.63-35.28-.16-5.28-.71-10.56-1.42-15.8-.12-.9-1.87-2.11-2.99-2.27-5.97-.86-12.04-1.1-17.96-2.19-10.04-1.84-16.71-9.17-18.61-19.16-.73-3.82-2.53-7.43-3.29-11.24-1.35-6.84-2.28-13.77-3.37-20.66-.49-3.13-1.08-6.25-1.38-9.4-.23-2.39-.28-4.83.02-7.2.11-.9 1.38-2.24 2.2-2.31.89-.07 2.53.96 2.72 1.78 1.73 7.38 6.95 12.77 10.73 18.94 1.83 2.98 4.46 5.6 7.13 7.91 3.06 2.64 5.91 5.26 8.05 8.8 1.98 3.28 4.81 6.04 7.26 9.04.36-.09.72-.19 1.08-.28 1.58-4.53 3.63-8.95 4.63-13.6 1.81-8.37 2.94-16.89 4.46-25.32.99-5.48-1.65-10.08-3.21-14.99-.72-2.27-.99-4.73-1.07-7.11-.03-.84 1.01-2.31 1.76-2.45 1.01-.19 2.71.28 3.24 1.07 4.94 7.36 11.22 14.34 12.19 23.41.72 6.68 3.9 12.19 5.9 18.23 1.59 4.8 3.7 4.99 7.28 1.56 4.89-4.69 10.17-8.99 14.83-13.89 4.56-4.79 5.27-10.93 4.07-17.24-.89-4.65-1.37-9.21.66-13.98 3.77 1.22 6.81 3.2 7.28 7.39.48 4.25.49 8.56.69 12.84.04.85-.09 1.72.06 2.54 2.2 12.69.39 25.39-.04 38.07-.23 6.79-3.88 11.86-10.18 14.98-2.9 1.44-5.56 3.41-8.14 5.39-.65.5-.96 2.08-.72 2.97 1.57 5.9 3.44 11.71 4.99 17.61 1.07 4.09.9 4.05 4.96 3.36 8.7-1.49 17.19-3.55 24.95-8 3.13-1.79 5.67-4.7 9.71-5 .68-.05 1.71-2.59 1.66-3.94-.28-7.09-1.07-14.16-1.26-21.25-.21-7.72-.04-15.46.11-23.19.06-2.96 2.65-4.43 5.39-3.32.19.08.36.22.56.31 7.42 3.56 7.07 3.51 5.92 11.6-.76 5.39-.28 10.94-.44 16.42-.15 5.38-.51 10.75-.59 16.13-.11 7.4.15 14.82-.08 22.22-.3 9.31-.99 18.62-1.38 27.93-.11 2.63-.41 5.56.55 7.85 2.29 5.45 1.48 10.75.57 16.18-.53 3.13-1.21 6.27-1.36 9.43-.1 2.03 1.03 4.11.96 6.15-.36 11.23-.53 22.5-1.59 33.67-.49 5.2-2.78 9.9-6.36 14.43-11.06 13.95-25.17 24.76-36.99 37.85-2.1 2.32-2.62 6.37-3.15 9.74-.66 4.17-.65 8.45-.8 12.69-.1 2.95 1.62 4.24 4.42 3.31 1.17-.39 2.25-1.17 3.27-1.91 7.89-5.73 15.73-11.54 23.66-17.21 2.04-1.46 4.36-2.55 6.59-3.75 2.27-1.23 5.46-1.3 5.75-4.92.04-.46.86-.88 1.35-1.29 3.91-3.26 7.97-6.36 11.67-9.84 1.75-1.64 3.13-3.88 4.08-6.1.84-1.95 1.61-3.06 3.89-2.66 2.07.37 4.18.51 5.84.7 1 4.5 2.71 8.68 2.71 12.86 0 7.64-1.01 15.29-1.6 22.93-.67 8.75-1.14 17.53-2.09 26.25-.47 4.35-1.66 8.65-2.85 12.88-1 3.55-2.44 6.99-3.75 10.45-.52 1.38-1.08 2.77-1.86 4.01-1.26 2.01-3.35 3.1-5.42 1.95-1.26-.7-1.91-2.67-2.56-4.19-.3-.69-.01-1.67.15-2.5 1.57-8.16 3.25-16.3 4.72-24.47.56-3.1.78-6.27.93-9.43.36-7.39.72-14.78.77-22.17-.02-2.36-1-4.72-1.68-7.76zm-18.6-152.34c-.22-3.85-2.19-5.17-5.63-3.56-5.85 2.75-11.74 5.24-18.21 6.34-4.68.8-9.23 2.28-13.86 3.39-2.58.62-4.46 1.96-5.04 4.65-.87 4.03-1.45 8.13-2.53 12.09-.85 3.12-1.83 6.35-3.52 9.04-2.6 4.15-2.7 4.56.2 8.77 1.69 2.45 3.33 5.22 3.97 8.07 1.28 5.68 2.77 6.71 8.01 4.23.67-.32 1.33-.68 1.91-1.13 9.76-7.6 20.74-13.55 29.67-22.29 1.71-1.68 2.86-3.3 3.05-5.61.68-7.98 1.32-15.98 1.98-23.99zm-67.59 70.91c8.52.35 14.15-5.08 13.9-12.43-.07-1.9-.17-3.82-.44-5.7-.72-4.98-.53-10.6-8.17-11.27 1.12-2.38 2.08-4.21 2.86-6.12 1.11-2.71 2.08-5.48 3.13-8.21.96-2.52 1.8-5.1 2.97-7.51 1.07-2.21-.38-6.88-2.34-6.41-3.63.87-7.07 2.57-10.53 4.07-.37.16-.4 1.34-.42 2.05-.33 13.87-.65 27.73-.94 41.6-.08 3.26-.02 6.52-.02 9.93zm-6.28-138.94c-.4.11-.79.22-1.19.32-1.01 4.54-2.13 9.06-2.99 13.63-.86 4.56-1.42 9.17-2.21 13.74-.13.74-.86 1.35-1.11 2.09-.96 2.91-1.93 5.81-2.62 8.79-.1.41 1.44 1.79 2.08 1.7 6.68-.89 13.35-1.92 19.99-3.07 1.77-.31 2.36-1.74 1.67-3.42-1.08-2.62-2.25-5.21-3.44-7.79-1.23-2.68-2.72-5.25-3.76-7.99-2.25-5.96-4.29-11.99-6.42-18zm5.12 50.52c2.17 6.29 2.13 12.44.97 18.68-.24 1.3.49 2.88 1.08 4.2.27.61 1.33 1.35 1.92 1.27 3.21-.45 6.47-.87 9.53-1.85 2.06-.66 3.09-2.48 3.03-4.99-.14-5.29.06-10.58.1-15.88.03-4.71-2.27-6.45-6.85-5-3.1.99-6.13 2.23-9.78 3.57zm16.5-16.45c5.29-3.04 10.11-5.75 14.85-8.59.59-.35 1.03-1.33 1.13-2.07.62-4.5 1.34-9 1.57-13.52.1-1.99-.71-4.11-1.51-6-.25-.59-2.27-1.17-2.71-.81-3.07 2.51-6.48 4.89-8.7 8.07-2.12 3.03-3.92 5.92-8.05 6.72 1.13 5.31 2.19 10.32 3.42 16.2zm-3.32 107.02c-3.5 2.52-6.87 4.88-10.15 7.36-.68.51-1.5 1.45-1.49 2.18.1 6.18.38 12.35.61 18.61 8.28-2.87 15.84-22.08 11.03-28.15zm-56.46-124.46c-1.62 6.21 2.08 15.71 7.02 19.05 4.64 3.13 10.53 3.82 13.83 1.32-4.35-9.28-12.13-15-20.85-20.37z" fill="#010101"/></svg>