<svg enable-background="new 0 0 400 400" viewBox="0 0 400 400" xmlns="http://www.w3.org/2000/svg"><path d="m362.1 8.8c1.1.8 2.1 1.6 3.1 2.4l-1 1.1c-1.3-1.1-2.3-2-3-2.5zm1.9 4.8c.5.2.9.4 1.4.5-.6 2.3-1.3 4.5-1.9 6.8l-1.5-.5c.8-2.1 1.4-4.3 2-6.8zm-1-9.4c1.3.9 2.4 1.8 3.4 2.5l-1 1.1c-1.4-1.2-2.4-2.1-3.2-2.6zm3.7 2.2v-1.4h10.3v1.2c-.5 3.6-1.8 6.8-4 9.4 1.5 1.6 3.4 2.8 5.7 3.8-.3.4-.7.8-1.1 1.4-2.3-1.1-4.1-2.5-5.6-4.1-1.6 1.6-3.6 3.1-5.9 4.3-.3-.5-.7-.9-1-1.3 2.4-1.1 4.4-2.5 6-4.1-1.9-2.5-3-5.6-3.3-9.3h-1.1zm8.8 0h-6.4c.3 3.3 1.3 6 3 8.2 2-2.3 3.1-5.1 3.4-8.2z" fill="#fbfcfa"/><path d="m385.3 3.8h1.3v2.2h2.8v-2.2h1.3v2.2h4.1v9.1h1.7v1.3h-16.9v-1.3h1.7v-9.1h4.1v-2.2zm.4 13.1.7 1.2c-1.8.9-3.8 1.9-6 2.9-.2-.4-.5-.8-.8-1.3 2.3-1 4.3-1.9 6.1-2.8zm-3.1-6.4h2.8v-3.2h-2.8zm0 4.6h2.8v-3.3h-2.8zm4-4.6h2.8v-3.2h-2.8zm0 4.6h2.8v-3.3h-2.8zm3.7 1.9c2.1.9 4.1 1.8 6.1 2.7l-.7 1.3c-2.2-1.1-4.2-2-6.1-2.9zm3.2-9.7h-2.8v3.2h2.8zm-2.8 7.8h2.8v-3.3h-2.8z" fill="#fbfcfa"/><path d="m139.91 66.52c4.59-.11 8.18.97 10.74 4.97 5.99 9.36 12.32 18.51 18.38 27.83 4.23 6.51 8.59 12.89 14.78 17.74 1.06.83 2.23 1.53 4.26 2.9.95-5.72 2.22-10.75 2.54-15.83.79-12.63.05-25.21-2.24-37.69-.46-2.53-1.84-3.76-4.01-5.11-9.94-6.19-20.87-6.89-32.08-6.59-2.64.07-5.3-.03-7.94-.26-8.9-.77-10.7-7.4-10.28-13.59.05-.67 1.23-1.48 2.05-1.84 9.66-4.24 19.72-3.77 29.94-2.82 28.29 2.65 55.18 10.93 81.95 19.76 2.41.79 4.87 1.56 7.09 2.74 4.88 2.58 6.18 8.16 3.66 12.89-10.64 20.02-24.97 37.55-37.79 56.09-7.06 10.2-11.49 21.45-12.41 33.9-.09 1.16.69 3.04 1.61 3.52 3.04 1.58 6.46 4.01 9.52 3.73 16.77-1.52 32.2 4.05 47.95 8.09 4.92 1.26 9.8 2.7 14.75 3.86 1.88.44 2.58 1.24 2.7 3.17.5 7.83 1.27 15.64 1.73 23.47.14 2.38-.07 4.88-.63 7.2-1.49 6.17-3.39 12.25-4.85 18.42-.56 2.37-1.81 3.79-3.95 4.45-3.84 1.19-7.73 2.2-11.58 3.35-1.61.48-3.27.96-4.73 1.77-3.51 1.93-4.43 4.82-2.88 8.55 6.3 15.15 12.85 30.21 18.78 45.5 1.58 4.07 1.45 8.86 1.75 13.34.15 2.14-1.16 3.79-3.44 4.38-2.35.61-4.03-.1-5.39-2.17-1.57-2.39-3.22-4.77-5.16-6.86-9.61-10.34-14.52-23.09-19.26-36.05-2.49-6.82-5.42-13.62-10.91-18.82-4.88-4.63-10.73-7.14-17.37-7.67-1.07-.09-2.95.73-3.24 1.56-1.32 3.72-3.22 7.63-3.1 11.41.99 31.05 2.38 62.08 3.66 93.12.11 2.54.54 5.07.53 7.61-.03 4.74-2.96 8.37-7.87 9.77-2-7.87-4-15.73-6-23.6-.55-2.16-.95-4.36-1.63-6.46-2.7-8.27-3.8-16.72-2.78-25.36 1.37-11.54-.58-22.83-2.37-34.13-.95-5.99-1.03-11.91-.69-18 .42-7.39-3.71-13.24-8.81-18.31-5.95-5.92-12.9-7.01-20.32-3.13-.98.51-1.98 1.32-2.53 2.25-13.35 22.39-26.22 45.02-35.35 69.57-2.24 6.03-4.77 11.98-7.54 17.79-1.53 3.21-4.17 5.59-8.2 6.22-2.16-7.89-2.21-15.9.38-23.44 3.35-9.78 7.52-19.3 11.82-28.71 7.04-15.4 14.48-30.61 21.92-46.26-5.38-3.6-10.79-7.46-16.45-10.91-2.65-1.62-3.3-3.38-3.09-6.4 1.15-16.5 2.04-33.02 2.99-49.53.21-3.69 3.47-6.36 6.29-4.32 7.79 5.64 16.01 3.49 24.18 2.22 6.68-1.05 13.28-2.67 19.91-4.04 2.17-.45 2.92-1.58 2.36-3.85-.83-3.39-1.52-6.83-2.03-10.28-.39-2.65-1.76-4.44-3.51-6.43-2.54-2.88-4.47-6.37-6.27-9.8-1.26-2.41-1.93-5.15-2.74-7.78-2.29-7.41-6.16-13.52-11.86-19.08-9.68-9.44-13.79-21.84-15.4-35.08-.08-.62.03-1.27.09-1.9.07-.29.22-.58.37-1.04zm85.52 123.71c.49 3.31.09 7.4 1.74 10.34 3.03 5.39 7.25 10.11 11.04 15.06.4.52 1.26.76 1.96.97 4.24 1.3 8.46 2.7 12.76 3.79 5.02 1.27 9.7.33 13.69-3.08.81-.7 1.67-1.8 1.78-2.79.41-3.78.84-7.6.66-11.38-.33-6.9-3.43-9.87-10.3-10.41-10.73-.85-21.47-1.62-33.33-2.5zm-13.66-123.99c-7.66 16.42-7.54 40.59.33 49.68 8.35-13.84 21.26-24.58 26.15-40.86-8.95-2.97-17.65-5.87-26.48-8.82zm-67.23 129.05c.61 3.21 1.33 6.41 1.81 9.65.41 2.82 2.13 3.75 4.68 4.2 6.25 1.1 9.83-2.92 13.44-6.82 3.23-3.49 3.67-10.25 1.12-14.54-2.19-3.7-9.21-6.95-13.21-6.08-.48.1-.95.41-1.35.73-4.1 3.28-6.73 7.29-6.49 12.86zm42.92.78c-.51.08-1.02.16-1.54.24-2.01 3.8-4.35 7.47-5.88 11.45-.61 1.6.25 4.02 1.07 5.77.26.56 2.56.28 3.91.18 1.03-.08 2.13-.31 3.04-.78.68-.35 1.52-1.15 1.59-1.82.31-2.93.75-5.93.4-8.81-.26-2.15-1.68-4.15-2.59-6.23zm25.49 8.74c1.18 4.82 2.19 8.95 3.2 13.08.33.15.66.3.99.45 1.11-1.37 3.1-2.7 3.18-4.13.24-4.55-2.75-7.2-7.37-9.4z" fill="#010101"/></svg>