<svg enable-background="new 0 0 400 400" viewBox="0 0 400 400" xmlns="http://www.w3.org/2000/svg"><path d="m362.1 8.8c1.1.8 2.1 1.6 3.1 2.4l-1 1.1c-1.3-1.1-2.3-2-3-2.5zm1.9 4.8c.5.2.9.4 1.4.5-.6 2.3-1.3 4.5-1.9 6.8l-1.5-.5c.8-2.1 1.4-4.3 2-6.8zm-1-9.4c1.3.9 2.4 1.8 3.4 2.5l-1 1.1c-1.4-1.2-2.4-2.1-3.2-2.6zm3.7 2.2v-1.4h10.3v1.2c-.5 3.6-1.8 6.8-4 9.4 1.5 1.6 3.4 2.8 5.7 3.8-.3.4-.7.8-1.1 1.4-2.3-1.1-4.1-2.5-5.6-4.1-1.6 1.6-3.6 3.1-5.9 4.3-.3-.5-.7-.9-1-1.3 2.4-1.1 4.4-2.5 6-4.1-1.9-2.5-3-5.6-3.3-9.3h-1.1zm8.8 0h-6.4c.3 3.3 1.3 6 3 8.2 2-2.3 3.1-5.1 3.4-8.2z" fill="#fbfcfa"/><path d="m385.3 3.8h1.3v2.2h2.8v-2.2h1.3v2.2h4.1v9.1h1.7v1.3h-16.9v-1.3h1.7v-9.1h4.1v-2.2zm.4 13.1.7 1.2c-1.8.9-3.8 1.9-6 2.9-.2-.4-.5-.8-.8-1.3 2.3-1 4.3-1.9 6.1-2.8zm-3.1-6.4h2.8v-3.2h-2.8zm0 4.6h2.8v-3.3h-2.8zm4-4.6h2.8v-3.2h-2.8zm0 4.6h2.8v-3.3h-2.8zm3.7 1.9c2.1.9 4.1 1.8 6.1 2.7l-.7 1.3c-2.2-1.1-4.2-2-6.1-2.9zm3.2-9.7h-2.8v3.2h2.8zm-2.8 7.8h2.8v-3.3h-2.8z" fill="#fbfcfa"/><path d="m85.2 223.59c-.31-20.87.07-39.3 3.21-57.56 2.81-16.36 7.26-32.21 14.7-47.12.98-1.96 2.24-3.84 3.68-5.49 13.8-15.82 27.56-31.68 41.53-47.34 13-14.57 29.04-24.61 47.72-30.2 4.76-1.43 9.69-.27 14.11 2.07 1.01.53 1.91 1.78 2.31 2.9 2.58 7.19 6.81 13.2 12.9 17.72 9.31 6.92 14.3 16.83 19.04 26.89 3.44 7.3 7.89 13.53 14.3 18.63 9.22 7.35 12.62 17.74 11.9 29.09-.42 6.66-2.6 13.22-4.18 19.78-.35 1.46-1.35 2.87-2.35 4.06-17.09 20.45-29.25 43.55-36.58 69.12-2.86 9.99-3.46 20.25-.7 30.47 1.45 5.37 6.53 7.58 11.38 5 .28-.15.56-.3.84-.46 5.02-2.91 9.74-3.5 15.5-.88 11.16 5.08 23.02 8.65 32.79 16.49 7.47 5.99 14.76 12.18 19.55 20.65 6.5 11.46 4.44 22.62-1.71 33.48-.34.61-1.03 1.06-1.62 1.49-7.91 5.83-13.62 13.47-16.92 22.59-4.69 12.95-12.58 13.73-23.07 9.89-1.49-.54-2.91-1.26-4.38-1.88-3.6-1.52-6.62-3.45-7.77-7.64-.61-2.2-1.67-4.85-5.16-3.11-.57.29-1.94-.32-2.54-.91-1.79-1.77-3.64-3.58-5.01-5.67-5.96-9.14-11.52-18.54-17.67-27.55-5.55-8.12-13.32-10.7-21.83-7.86-1.52.51-2.98 1.59-4.12 2.75-12.43 12.7-26.66 22.94-42.58 30.74-13.93 6.83-28.56 8.19-43.59 4.11-1.11-.3-2.23-1.14-2.98-2.04-6.31-7.57-8.93-16.64-10.72-26.12-6.16-32.53-10.21-65.3-9.98-96.09zm15.46 10.86c1.08 2.06 2.15 3.87 3.02 5.77 4.24 9.23 5.41 19.1 5.63 29.09.22 9.73-.25 19.49.26 29.2.53 10.03 3.18 19.63 8.73 28.19.57.89 1.92 1.85 2.88 1.82 7.59-.2 14.69-1.9 20.22-7.64 3.45-3.58 7.05-7.04 10.3-10.81 1.01-1.17 1.65-3.24 1.46-4.77-2.77-21.95-5.68-43.88-8.67-65.8-.15-1.13-.98-2.62-1.93-3.13-8.38-4.51-16.85-8.87-25.34-13.17-.76-.39-2.19-.47-2.78-.02-4.66 3.66-9.18 7.47-13.78 11.27zm110.41-156.15c-.58-3.44-1-6.91-1.78-10.31-1.12-4.89-3.85-8.75-8.47-10.87-1.2-.55-3.1-.59-4.27-.02-6.42 3.1-11.39 8-16.01 13.33-5.38 6.21-11.37 11.63-18.81 15.4-5.66 2.87-11.02 6.33-16.61 9.35-1.96 1.06-2.91 2.44-3.36 4.58-1.42 6.66-3.69 12.87-7.63 18.64-5.24 7.69-1.97 16.67 6.72 20.19 7.26 2.95 14.61 5.68 21.75 8.87 3.59 1.6 6.61.99 9.55-.97 5.44-3.62 8.78-8.78 10.43-15.07.67-2.56 1.23-5.16 2.09-7.65 4.95-14.26 13.36-26.41 23.39-37.49 2.19-2.41 3.34-4.76 3.01-7.98zm-34.29 214.78c9.07-3.83 17.38-8.58 23.94-15.9 1.01-1.12 1.74-2.93 1.76-4.43.14-11.98.03-23.96.12-35.94.02-2.18.5-4.39.99-6.53 2.03-8.86 4.37-17.66 6.16-26.57 1.59-7.94-1.65-13.03-9.35-15.66-1.99-.68-4.06-1.2-6.13-1.6-9.12-1.76-10.13-1.14-14.81 6.83-5.03 8.57-5.18 17.88-5 27.4.2 10.67.79 21.41-2.43 31.86-1.02 3.3-2.49 5.78-6.37 5.64 1.48 2.26 3.41 4.2 4.1 6.51.98 3.27 1.48 6.82 1.39 10.23-.18 6.73 1.3 12.76 5.63 18.16zm68.48-168.64c-.27-.09-.55-.18-.82-.27-.01-8.68-3.64-16.16-7.65-23.57-2.96-5.47-7.59-7.58-13.5-7.91-2.1-.12-3.16.52-4.15 2.39-9.02 17.02-18.15 33.97-27.26 50.94-3.15 5.86-3.02 8.1 1.4 13.16 1.43 1.64 3.47 2.73 5.1 4.22 2.01 1.84 4.26 3.58 5.74 5.8 3.48 5.23 12.15 6.35 16.81 2.1 9.7-8.84 15.05-20.33 19.79-32.16 1.9-4.74 3.05-9.79 4.54-14.7zm-103.25 94.09c6.06-.01 8.34-1.64 10.26-7.33 1.29-3.81 2.27-7.76 3.94-11.4 2.88-6.28 3.16-12.59 1.38-19.13-.22-.81-.37-1.66-.41-2.5-.15-2.91-1.36-5.29-3.54-7.18-9.18-7.96-19.88-12.76-31.66-15.34-2.02-.44-3.18.26-3.87 2.17-3.13 8.74-6.56 17.39-9.37 26.23-1.91 6.01-2.19 12.33-.45 18.51.52 1.86 1.33 4.07 2.75 5.16 9.07 7.02 19.66 10 30.97 10.81zm92.62 75.68c-.17 7.77 1.78 15.6 5.94 22.83 5.37 9.32 12.13 17.56 19.61 25.27 2.38 2.46 4.76 3.02 7.61 1.78 1.79-.77 3.54-1.87 5-3.17 5.6-4.95 9.44-10.92 10.66-18.49.52-3.21 1.5-6.41 2.71-9.44 1.66-4.15.98-7.84-1.38-11.37-9.2-13.8-22.37-21.5-38.36-24.79-.65-.13-1.52 0-2.09.35-5.78 3.55-11.31 7.3-9.71 15.5.06.31.01.64.01 1.53z" fill="#010101"/></svg>