<svg enable-background="new 0 0 400 400" viewBox="0 0 400 400" xmlns="http://www.w3.org/2000/svg"><path d="m237.23 41.31c.44 5.04-.2 5.83-4.91 7.54-5.26 1.91-10.47 3.98-15.6 6.22-3.11 1.36-4 3.62-3.01 7.23 4.09 14.8 7.88 29.67 11.65 44.55.55 2.17 1.64 3.06 3.68 3.65 7.4 2.13 14.69.97 22.02-.35 2.59-.47 5.25-.77 7.88-.76 2.07.01 4.01.81 4.43 3.3.41 2.42-1.68 2.79-3.11 3.33-9.3 3.51-18.66 6.88-28 10.29-.78.29-1.58.53-2.96.98 1.77 5.05 2.98 10.26 5.35 14.86 3.87 7.52 8.71 14.43 14.19 20.99 10.1 12.09 18.45 25.41 23.69 40.35 1.41 4.03 1.09 8.72 1.26 13.12.13 3.52 0 6.87 2.61 9.84.81.93.47 3.29.03 4.81-1.26 4.37-2.8 8.66-4.33 12.95-.38 1.07-1 2.11-1.72 2.99-7.38 9.04-14.47 18.33-22.34 26.91-3.63 3.95-8.7 6.65-13.32 9.6-4.61 2.94-9.08 5.91-11.59 10.99-.45.91-.89 2.01-.8 2.97.53 5.36 1.22 10.71 1.89 16.4 4.1 0 8.11.11 12.1-.08.99-.05 2.07-.93 2.87-1.68 4.57-4.27 9.21-8.48 13.56-12.97 4.04-4.18 8.59-7.31 13.99-9.57 2.16-.91 3.8-3.5 5.2-5.64 1.8-2.76 3.76-4.93 7.14-5.73 1-.24 2.07-1.41 2.54-2.42 1.08-2.29 1.79-4.75 2.68-7.12.41-1.09.59-2.63 1.39-3.12 2.17-1.32 4.55-2.53 6.99-2.95.57-.1 2.11 3.01 2.48 4.79.36 1.78.28 3.94-.42 5.59-4.46 10.4-5.19 21.58-7.03 32.51-1.92 11.39-3.52 22.83-5.44 34.21-.32 1.87-1.22 3.82-2.37 5.35-4.32 5.74-8.86 11.32-13.92 16.79.26-2.1.5-4.2.78-6.29.18-1.36.42-2.72.62-4.08.65-4.43.41-9.37 6.41-10.53-2.67-8.73-.43-16.74 1.42-24.79.88-3.81 1.82-7.63 2.27-11.5.35-2.99-.14-6-3.57-7.39-3.42-1.38-6.99-.45-9.71 2.63 1.94 1.96 1.63 3.5-.54 5.34-8.48 7.2-16.85 14.55-25.18 21.92-4.69 4.15-10.01 6.23-16.29 5.78-2.17-.15-3.93-.72-4.5-3.13-.15-.61-.4-1.23-.76-1.74-8.5-12.03-5.81-25.51-4.87-38.7.18-2.51 1.98-4.87 2.83-7.36.47-1.35.89-2.9.71-4.27-2.11-15.75-4.38-31.48-6.46-47.24-.23-1.72.45-3.58.78-5.36.65-3.52 1.61-7.01 1.97-10.56.77-7.65.15-15.33 1.58-23.05.9-4.83-.95-10.25-1.89-15.34-.77-4.16-1.28-8.08 1.53-11.77.59-.78.6-2.23.43-3.3-.44-2.93-1.43-5.8-1.63-8.73-.24-3.53-.32-7.18.33-10.63.43-2.25-.12-3.22-1.75-4.39-5.93-4.25-12.42-4.68-19.1-2.65-4.23 1.29-8.3 3.13-12.36 4.92-1.09.48-1.94 1.57-2.78 2.49-2.79 3.05-5.3 6.38-8.32 9.17-4.19 3.86-9.23 2.95-12.9-1.3-7.71-8.94-11.81-18.95-10.49-30.92.32-2.94.11-5.93.13-8.9.07-12.42.36-24.82 4.57-36.72.35-.99.64-2.1 1.31-2.85 4.71-5.34 7.37-11.77 10.36-18.11 2.55-5.41 6.07-10.37 9.14-15.54.88-1.48 1.94-1.79 3.69-1.39 5.36 1.24 10.87 1.91 16.16 3.38 7.09 1.98 13.85-.17 20.73-.87 2.11-.21 4.22-.47 6.28-.96 4.64-1.09 8.75-.74 12.81 2.32 1.79 1.36 4.77 1.14 7.51 1.69zm-72.02 90.65c1.09-.29 2.1-.52 3.09-.82 12.03-3.67 24.06-7.36 36.09-11.04 4.67-1.43 5.62-2.77 5.1-7.7-.15-1.45-.44-3-1.14-4.24-5.69-10.13-6.67-21.28-7.2-32.52-.35-7.26-7.68-15.53-14.85-16.59-.4-.06-.84 0-1.24.1-3.08.73-6.17 1.44-9.24 2.24-3.24.85-5.6 2.51-6.6 6.05-2.78 9.86-6.09 19.58-8.64 29.49-3.13 12.14-1.88 23.91 4.63 35.03zm62.36 41.41c.38-.03.76-.06 1.14-.08.79 2.3 2.14 4.56 2.29 6.9 1.01 14.88 1.11 29.74-3.04 43.3.94 1.97 2.19 3.35 2.12 4.65-.37 6.44-1.12 12.86-1.69 19.29-.5 5.71-.71 11.65-4.06 16.46-2.26 3.25-1.79 5.7.11 8.66 7.65-.75 13.01-5.12 17.3-11.07 5.02-6.96 9.91-14.01 14.81-21.05.53-.76.92-1.67 1.18-2.57 1.24-4.38 2.46-8.76 3.59-13.17 1.02-3.97 1.34-7.95-.62-11.77-2.41-4.69-2.33-6.33 1.24-10.17 1.37-1.48 1.22-2.69 0-3.77-.97-.87-2.29-1.65-3.54-1.85-3.75-.59-6.57-2.49-8.34-5.7-2.29-4.15-4.4-8.42-6.37-12.74-2.11-4.63-4.95-8.41-10.07-9.86-.85-.24-2.22-.17-2.78.36-1.28 1.2-2.21 2.77-3.27 4.18z" fill="#010000"/><path d="m135.49 175.54c2.79 2.34 5.36 4.36 7.8 6.54 10.36 9.31 19.6 19.62 27.96 30.77 8.17 10.9 11.62 23.15 11.33 36.59-.13 6.04-.39 12.08-.72 18.11-.07 1.2-.45 2.55-1.12 3.53-4.45 6.55-6.27 13.93-6.29 21.65-.01 8.14.86 16.27.96 24.41.03 2.63-1.25 5.26-1.74 7.92-.39 2.12-.54 4.29-.72 6.45-.42 4.94-.46 9.94-1.32 14.8-.67 3.81-3.35 6.43-7.33 7.69-1.9-4.87-3.4-9.44-2.4-14.82 1.44-7.79 2.38-15.72 2.79-23.64.18-3.51-1.25-7.17-2.32-10.65-.57-1.86-2.27-2.49-4.39-2.19-9.65 1.34-19.33 2.48-28.97 3.89-1.07.16-2.38 1.3-2.88 2.33-3.76 7.61-3.17 15.62-1.8 23.64.44 2.6 1.29 5.14 1.76 7.74 1.33 7.39 6.52 11.33 12.73 14.29 3.13 1.49 6.31 1.73 9.18-.87 1.98-1.8 4.38-1.95 6.47-.56 3.04 2.02 5.83 4.44 8.89 6.81-6.23 6.6-13.46 8.29-21.54 7.41-2-.22-3.97-.74-5.97-.87-11.05-.67-15.6-8.92-19.98-17.23-.81-1.55-.82-3.73-.63-5.56.91-8.5.15-16.66-3.98-24.32-.42-.78-.74-1.95-.47-2.7 3.5-9.6.32-18.81-1.56-28.08-2.49-12.24-5.12-24.45-7.61-36.69-.24-1.17-.13-2.52.2-3.67 1.18-4.06 2.83-8.01 3.74-12.12 1.42-6.4 4.52-11.52 9.93-15.2 2.53-1.73 3.56-4.14 4.18-7.09 2.7-12.83 7.06-25.04 14.27-36.11.4-.61.85-1.2 1.55-2.2zm7.13 27.84c-5.44 5.11-10.76 10.09-16.02 15.12-.47.45-.56 1.32-.81 1.99-1.81 4.82-3.47 9.7-5.49 14.43-1.43 3.36-2.26 6.62-.69 10.07.92 2.02 1.85 4.07 4.62 4.18 9.39.39 18.78 1.02 28.18 1.16 2.86.04 5.86-.89 8.57-1.97 3.49-1.39 4.5-4.46 2.74-7.81-1.03-1.97-.88-3.52.2-5.32 2.17-3.6 1.25-6.16-2.62-7.61-3.37-1.26-4.03-2.58-3.65-6.22.15-1.45.26-3.51-.57-4.35-4.59-4.64-9.47-9.01-14.46-13.67zm15.41 62.54c-6.8 3.97-12.98 1.88-19.14-.69-1.27-.53-2.59-.95-3.91-1.33-.69-.2-1.45-.36-2.14-.28-3.64.44-7.26.98-10.89 1.45-4.14.53-6.07 2.56-5.3 6.53.61 3.15 1.66 6.38 3.25 9.15 1.88 3.28 4.79 5.94 6.83 9.15 3.22 5.06 8.08 7.5 13.38 9.58 2.73 1.07 4.29.18 4.62-2.35.51-3.94 2.93-6.7 5.13-9.65 2.98-3.99 6.06-7.91 8.88-12.01.72-1.05.94-2.68.83-3.99-.15-1.65-.87-3.24-1.54-5.56z" fill="#010000"/><g fill="#fafafb"><path d="m361.2 9.6.8-1c.9.7 1.9 1.4 2.9 2.3l-.9 1.1c-1-1-2-1.8-2.8-2.4zm.5 10.6c.9-2.1 1.6-4.3 2.3-6.7.4.2.8.4 1.3.6-.7 2.1-1.5 4.3-2.2 6.6zm.4-15.2.9-.9c1 .8 2 1.6 2.8 2.4l-1 1c-.9-.9-1.8-1.7-2.7-2.5zm12.5-1.2h1.2v1.4h2.7v1.1h-2.7v2.7h-1.2v-.6h-1.8v1.3h4.9v3.8h-1.2v-.5h-3.7c0 .4-.1.9-.1 1.2h5.1v1h-5.2c0 .5-.1.9-.2 1.2h6v1h-5.2c1.1 1.3 2.9 2 5.5 2.2-.4.4-.7.8-.9 1.3-2.9-.5-4.8-1.6-5.7-3.5h-.1c-.8 1.7-2.7 2.9-5.9 3.6-.2-.4-.6-.8-.9-1.1 2.8-.6 4.6-1.4 5.4-2.5h-4.8v-1h5.3c.1-.3.2-.7.2-1.2h-4.9v-1h5c0-.4 0-.8.1-1.2h-3.5v.5h-1.2v-3.8h4.9v-1.3h-1.8v.5h-1.2v-2.7h-2.7v-1h2.6v-1.4h1.2v1.4h4.7v-1.4zm-6.6 8.3h3.6c0-.4 0-.9 0-1.4h-3.6zm1.9-4.6h4.7v-1.3h-4.7zm6.6 3.2h-3.7v1.4h3.7z"/><path d="m385.3 3.8h1.3v2.2h2.8v-2.2h1.3v2.2h4.1v9.1h1.7v1.3h-16.9v-1.3h1.7v-9.1h4.1v-2.2zm.4 13.1.7 1.2c-1.8.9-3.8 1.9-6 2.9-.2-.4-.5-.8-.8-1.3 2.3-1 4.3-1.9 6.1-2.8zm-3.1-6.4h2.8v-3.2h-2.8zm0 4.6h2.8v-3.3h-2.8zm4-4.6h2.8v-3.2h-2.8zm0 4.6h2.8v-3.3h-2.8zm3.7 1.9c2.1.9 4.1 1.8 6.1 2.7l-.7 1.3c-2.2-1.1-4.2-2-6.1-2.9zm3.2-9.7h-2.8v3.2h2.8zm-2.8 7.8h2.8v-3.3h-2.8z"/></g></svg>