<svg enable-background="new 0 0 400 400" viewBox="0 0 400 400" xmlns="http://www.w3.org/2000/svg"><g fill="#010000"><path d="m180.16 161.63c2.2-.99 4.3-1.69 6.13-2.83 2.04-1.27 3.95-2.83 5.68-4.51.5-.49.57-2.09.15-2.73-2.31-3.48-4.96-6.74-7.25-10.24-1.83-2.78-2.82-3.02-4.84-.44-4.1 5.24-8.07 10.58-12.29 15.72-1.26 1.54-3.17 2.54-4.79 3.79-.35-.3-.69-.6-1.04-.91 3.78-5.95 7.56-11.9 11.83-18.63-5.15.54-9.98 1.05-14.8 1.55-2.95.31-5.9.62-8.85.92-.07-.45-.15-.91-.22-1.36 1.53-.38 3.03-.93 4.58-1.12 5.21-.65 10.48-.99 15.66-1.82 3.4-.54 6.84-1.38 9.99-2.73 4.35-1.86 8.47-4.28 12.65-6.52 1.95-1.04 3.81-2.25 5.74-3.33.5-.28 1.11-.35 1.67-.52.13.64.32 1.27.37 1.91.05.7-.27 1.54 0 2.1 2.56 5.15 2.62 10.61 1.03 15.82-1.83 6.01-.5 10.01 5.17 12.87 1.69.85 2.8 2.87 4.17 4.35-.22.28-.43.56-.65.84-.87-.41-1.8-.73-2.6-1.25-2.74-1.8-5.44-3.65-8.13-5.52-2.04-1.41-3.78-1.85-5.81.31-2.34 2.49-5.06 4.61-7.82 7.06 3.9 3.73 7.24 6.93 10.59 10.14-.18.27-.36.54-.54.82-2.86-1.91-5.89-3.6-8.53-5.77-4.15-3.41-4.04-3.54-8.58-.63-5.92 3.8-5.95 3.81-2.48 9.95 2.86 5.06 5.54 10.26 8.78 15.06 2.86 4.24 3.19 8.67 2.37 13.34-1.78 10.12-3.43 20.29-5.74 30.3-1.29 5.61-2.35 11.02-1.42 16.81.27 1.67-1.14 3.55-1.46 5.39-1 5.62-1.79 11.27-2.8 16.89-.24 1.33-1.03 2.56-1.56 3.83-.37-.08-.73-.15-1.1-.23 0-3.75-.23-7.51.04-11.24.82-10.93 1.65-21.86 2.89-32.74.4-3.47 1.76-6.94 3.24-10.15 3.27-7.09 3.7-14.33 2.54-21.95-1.25-8.24-4.19-15.82-7.89-23.18-.52-1.04-1.01-2.14-1.73-3.02-1.51-1.84-3.18-2.6-5.42-.82-3.98 3.17-8.16 6.09-12.08 9.33-.94.78-1.81 2.52-1.62 3.63 1.14 6.57 2.58 13.09 3.98 19.61.15.69.6 1.36 1.05 1.93 3.58 4.55 7.32 8.99 10.76 13.66 1.65 2.24 2.75 4.88 4.41 7.91-8.73-3.53-13.92-9.96-19.32-16.34-.39.65-.68 1.21-1.03 1.73-1.93 2.82-2.37 5.26-.1 8.51 2.7 3.86 4.17 8.49 4.37 14.24-6.1-3.16-6.71-9.56-9.99-13.96-4.24 3.93-3.11 8.72-2.97 13.1.15 4.5 1.08 8.97 1.1 13.83-.54-.84-1.3-1.61-1.58-2.52-.98-3.13-1.77-6.31-2.67-9.46-.67-2.35-1.53-4.65-1.99-7.03-.16-.85.43-1.98.95-2.81 1.81-2.89 4.33-5.19 4.61-9.13.13-1.89 2.63-3.72 4.25-5.39 3.41-3.51 5.06-7.36 3.75-12.38-1.07-4.1-1.6-8.34-2.4-12.51-.1-.51-.26-1.24-.62-1.42-4.15-2.03-1.65-4.12.18-5.63 6.34-5.24 12.8-10.35 19.35-15.33 2.88-2.19 6.22-3.78 9.12-5.95.94-.71 1.18-2.38 1.56-3.2zm4.63-24.35c-.3.41-.6.82-.9 1.22 3.49 3.07 7 6.12 10.46 9.22 2.02 1.81 3.65 1.54 3.92-1.15.47-4.58.44-9.21.45-13.82 0-.86-.85-1.72-1.09-2.17-4.52 2.36-8.68 4.53-12.84 6.7z"/><path d="m239.86 231.69c-4.6-3.56-9.2-7.12-13.84-10.7.36 2.58.55 5.34 1.16 8 1.37 6.05.3 12-1.1 17.77-1.85 7.65.08 13.97 4.55 20.13 3.01 4.16 5.36 8.79 7.95 13.25.33.56.28 1.34.53 2.6-6.69-5.75-10.1-13.21-14.83-19.84-3.22 11.6-3.51 23.64-8.25 35.26-2.2-2.82-1.63-5.32-1.24-7.71 1.62-9.93 3.31-19.85 4.99-29.77.9-5.31 1.89-10.6 2.76-15.92 1.46-8.88-.2-17.49-2.57-25.99-.64-2.3-1.97-2.31-3.97-.71-2.64 2.1-5.39 4.08-8.23 5.91-1.15.74-2.63.96-3.96 1.42-.32-.41-.63-.82-.95-1.24.58-.17 1.29-.19 1.73-.54 4.02-3.2 8.04-6.41 11.93-9.77.52-.45.59-1.83.37-2.64-1-3.68-2.14-7.31-3.31-10.94-.49-1.5-1.17-1.98-3.08-1.31-3.16 1.12-5.7 2.83-8.13 5.08-1.47 1.36-3.58 2.04-5.4 3.02-.28-.3-.56-.59-.85-.89.7-.9 1.23-2.07 2.14-2.66 3.86-2.5 7.89-4.74 11.75-7.24 2.57-1.66 1.31-4.06.94-6.33-1.06-6.55-2.01-13.13-2.93-19.7-.14-.98.11-2.02.95-3.17.7 2.66 1.44 5.31 2.08 7.99.44 1.84.55 3.78 1.11 5.58 2.4 7.72 4.87 15.43 7.4 23.11 1.14 3.47 1.84 7.35 3.91 10.19 2.7 3.69 6.55 6.55 9.93 9.74 2.47 2.34 4.96 4.65 7.45 6.97-.32.36-.66.7-.99 1.05z"/><path d="m224.54 300.94c3.65 3.77 2.27 9.42 3 14.52 1.34 9.3 3.05 18.62 1.6 28.09-.26 1.71-.69 3.39-1.77 5.06-.25-1.27-.51-2.54-.76-3.8-1.22-6.1-2.47-12.19-3.64-18.3-.37-1.92-1.24-2.71-3.27-2.42-4.07.57-8.17.9-12.23 1.53-.6.09-1.62 1.5-1.46 1.94 3.46 9.5.57 18.8-.71 28.14-.42 3.07-.85 6.15-1.27 9.22-.33-.02-.67-.05-1-.07 0-5.29-.01-10.57 0-15.86 0-3.67.05-7.34.03-11-.01-3.29-.15-6.57-.08-9.86.04-1.93-.7-2.65-2.62-2.62-4.16.08-8.33.02-12.87.02-2.58 10.51-5.33 21.25-11.84 30.6.09-.64.14-1.29.28-1.92 2.01-9.29 3.92-18.61 6.08-27.87 1.15-4.96 1.59-9.98 2.1-15.02.71-6.99 2.88-8.91 9.95-8.46 3.95.25 7.52-1.3 11.24-1.69 4.77-.5 9.68.42 14.53.57 1.37.06 2.75-.44 4.71-.8zm-1.6 21.42c0-6.46 0-12.07 0-17.93-11.47.08-22.95-.57-33.68 1.87-.35 4.43-.56 8.4-1 12.34-.29 2.61.19 3.79 3.26 3.69 6.7-.22 13.42 0 20.14.02 3.61.03 7.22.01 11.28.01z"/><path d="m252.95 80.62c2.88 2.53 3.1 4.5 2.19 7.21-1.39 4.13-2.82 8.44-3.04 12.74-.32 6.3.55 12.64.67 18.97.08 3.89-.23 7.79-.45 11.69-.28 4.95-.56 9.9-1.02 14.84-.14 1.46-.89 2.86-1.36 4.29-.32-.03-.65-.07-.97-.1-.56-5.27-1.36-10.53-1.59-15.82-.16-3.67-.61-4.42-4.34-3.68-3.17.62-6.35 1.26-9.49 2.02-2.81.68-5.61 1.44-8.33 2.4-.6.21-1.16 1.39-1.2 2.15-.15 2.64.12 5.31-.14 7.94-.19 1.94-.95 3.82-1.59 6.25-6.49-7.48-3.15-44.08 4.18-50.97 0 1.92.11 3.55-.02 5.15-.35 4.21-.69 8.42-1.27 12.6-.55 3.96-1.48 7.86-2.06 11.82-.13.86.24 2.36.82 2.64 1.05.51 2.57.73 3.68.38 5.47-1.75 10.89-3.67 16.27-5.67 1.06-.39 2.7-1.34 2.73-2.09.24-5.25.13-10.51.13-15.81-6.34 1.12-12.37 3.92-18.82 2.35-.1-.36-.2-.72-.3-1.08 2.58-1.01 5.1-2.21 7.74-2.97 3.47-1 7.13-1.41 10.53-2.6 1-.35 1.64-2.39 1.99-3.77 1.74-6.74 3.3-13.5 5.06-20.88z"/><path d="m156.49 87.46c3.19-1.1 6.37-2.2 9.05-3.12-1.1-12.71-2.14-24.75-3.18-36.79.4-.13.8-.25 1.19-.38.48.65 1.11 1.24 1.42 1.97 3.76 8.8 5.11 18.03 4.64 27.55-.35 6.97-1.59 8.38 6.87 6.54.9-.19 1.89.1 2.83.1 3.46.01 6.96.27 10.39-.07 4.86-.48 7.71-.31 11.17 1.73-5.3.22-4.49 4.39-5.58 7.34-2.32 6.24-4.67 12.47-7.02 18.7-2.78 7.39-5.56 14.77-9.05 22.33-.33-1.08-.75-2.13-.97-3.23-2.55-12.57-4.56-25.2-3.88-38.11.19-3.68.98-5.51-4.57-3.86-2.16.64-4.35 1.15-6.48 1.88-2.7.91-5.78-.12-6.83-2.58zm23.51 30.45c.51.06 1.02.13 1.53.19.44-.89.94-1.76 1.3-2.68 1.39-3.52 2.56-7.13 4.15-10.56 2.35-5.07 4.71-10.06 6.05-15.58.77-3.18-.36-3.7-2.71-3.49-4.2.37-8.38 1.04-13.05 1.65.92 10.3 1.82 20.39 2.73 30.47z"/><path d="m181.38 79.23c.15-2.86.3-5.71.46-8.57.02-.3.27-.68.16-.9-2.72-5.36-.48-11.64-3.13-17.01-.18-.37-.36-.84-.29-1.22.96-5.66.21-11.09-2.38-16.45 2.32-.47 3.5.32 4 2.26 1.73 6.66 4.19 13.24 4.96 20.02.7 6.2-.36 12.61-.81 18.92-.08 1.16-1 2.27-1.54 3.4-.48-.15-.95-.3-1.43-.45z"/><path d="m197.16 78.32c-4.48-3.94-6.59-32.34-3.28-40.58 2.61 3.32 4.05 6.77 4.02 10.84-.06 7.28-.02 14.55-.13 21.83-.04 2.53-.38 5.05-.61 7.91z"/></g><path d="m361.2 9.6.8-1c.9.7 1.9 1.4 2.9 2.3l-.9 1.1c-1-1-2-1.8-2.8-2.4zm.5 10.6c.9-2.1 1.6-4.3 2.3-6.7.4.2.8.4 1.3.6-.7 2.1-1.5 4.3-2.2 6.6zm.4-15.2.9-.9c1 .8 2 1.6 2.8 2.4l-1 1c-.9-.9-1.8-1.7-2.7-2.5zm12.5-1.2h1.2v1.4h2.7v1.1h-2.7v2.7h-1.2v-.6h-1.8v1.3h4.9v3.8h-1.2v-.5h-3.7c0 .4-.1.9-.1 1.2h5.1v1h-5.2c0 .5-.1.9-.2 1.2h6v1h-5.2c1.1 1.3 2.9 2 5.5 2.2-.4.4-.7.8-.9 1.3-2.9-.5-4.8-1.6-5.7-3.5h-.1c-.8 1.7-2.7 2.9-5.9 3.6-.2-.4-.6-.8-.9-1.1 2.8-.6 4.6-1.4 5.4-2.5h-4.8v-1h5.3c.1-.3.2-.7.2-1.2h-4.9v-1h5c0-.4 0-.8.1-1.2h-3.5v.5h-1.2v-3.8h4.9v-1.3h-1.8v.5h-1.2v-2.7h-2.7v-1h2.6v-1.4h1.2v1.4h4.7v-1.4zm-6.6 8.3h3.6c0-.4 0-.9 0-1.4h-3.6zm1.9-4.6h4.7v-1.3h-4.7zm6.6 3.2h-3.7v1.4h3.7z" fill="#fafafb"/><path d="m385.3 3.8h1.3v2.2h2.8v-2.2h1.3v2.2h4.1v9.1h1.7v1.3h-16.9v-1.3h1.7v-9.1h4.1v-2.2zm.4 13.1.7 1.2c-1.8.9-3.8 1.9-6 2.9-.2-.4-.5-.8-.8-1.3 2.3-1 4.3-1.9 6.1-2.8zm-3.1-6.4h2.8v-3.2h-2.8zm0 4.6h2.8v-3.3h-2.8zm4-4.6h2.8v-3.2h-2.8zm0 4.6h2.8v-3.3h-2.8zm3.7 1.9c2.1.9 4.1 1.8 6.1 2.7l-.7 1.3c-2.2-1.1-4.2-2-6.1-2.9zm3.2-9.7h-2.8v3.2h2.8zm-2.8 7.8h2.8v-3.3h-2.8z" fill="#fafafb"/></svg>