<svg enable-background="new 0 0 400 400" viewBox="0 0 400 400" xmlns="http://www.w3.org/2000/svg"><path d="m177.68 365.9c-.41-10.15-1.04-20.07-1.14-30-.07-6.7-2.29-9.51-9.09-8.82-4.91.5-9.77 1.79-14.57 3.04-1.4.37-2.57 1.77-3.77 2.77-7.92 6.63-16.77 10.68-27.36 9.74-2.3-.21-4.57-.79-7.31-1.27 1.32-5.88.01-12.06 4.99-16.92 3.69-3.61 6.89-7.79 9.92-12 5.62-7.8 12.83-13.65 20.91-18.69 20.76-12.96 31.57-32.44 36.18-55.9.2-1.04.43-2.08.57-3.13 1.81-13.34 1.81-13.34-7.4-23.12-3.92-4.16-7.84-8.33-12.27-13.02-2.45 5.73-4.92 11.04-6.99 16.5-2.1 5.54-3.79 11.23-5.68 16.84-4.01 11.9-11.54 17.59-24.56 18.35-1.77-7.18-2.16-14.5-1.8-21.91.87-18.18 6.46-35.34 11.26-52.68 1.52-5.51 3.43-10.9 5.07-16.38.58-1.94 1.46-3.25 3.7-3.12.31.02.62-.12.93-.17 5.56-1.06 5.52-1.04 8.28 3.73 3.21 5.55 7.95 9.43 13.97 11.41 6.22 2.05 12.62 3.54 18.92 5.34 1.85.53 2.63-.31 3.38-1.86 4.13-8.57 6.11-17.67 5.97-27.08-.19-12.71-.96-25.42-1.52-38.12-.22-4.87-.46-9.75-.96-14.59-.13-1.25-1.01-2.75-2.01-3.51-3.71-2.79-7.85-4.09-12.54-2.71-2.65.78-4.93-.29-6.56-2.21-2.03-2.38-3.7-5.08-5.56-7.7 8.53-8.58 17.53-15.77 27.08-22.29 12.2-8.33 25.05-15.48 38.94-20.58 2.36-.87 5.19-1.05 7.7-.73 1.56.2 3.58 1.62 4.22 3.03.92 2.02.79 4.29-1.39 6.26-12.36 11.15-24.54 22.49-36.86 33.69-1.55 1.41-1.99 2.56-1.24 4.61 1.97 5.37 3.33 10.97 5.52 16.24 4.35 10.47 5.43 21.47 6.22 32.58.78 10.99 1.87 21.97 2.66 32.96.18 2.49 1.32 3.15 3.54 3.8 4.37 1.28 7.41.09 10.69-3.01 9.22-8.74 18.81-17.09 28.51-25.82 4.33 4.87 7.36 9.88 6.44 16.63-1.22 8.91-2.96 17.88.31 26.72 1.35 3.66 2.7 7.4 4.69 10.71 5.06 8.4 4.52 17.29 2.48 26.17-.5 2.19-3.06 4.93-5.16 5.45-2.42.6-5.42-.47-7.32-3.29-3.73-5.53-6.27-11.51-7.87-17.93-1.68-6.73-6.08-11-12.26-13.61-.81-.34-2.39-.14-2.96.44-13.38 13.65-24.22 28.94-29.2 47.68-3.21 12.12-1.91 24.18 1.9 36 .31.96 1.08 1.81 1.76 2.6 6.37 7.39 12.55 14.95 19.22 22.07 6 6.41 12.69 12.18 18.8 18.5 6.42 6.64 7.73 19.27 3.15 27.33-.3.52-1.08.96-1.7 1.08-2.29.44-4.59.93-6.91 1-.92.03-2.1-.79-2.77-1.57-4.03-4.64-7.99-9.35-11.89-14.1-4.77-5.81-10.42-10.16-17.93-11.86-2.15-.49-3.2 0-4.13 2.05-4.26 9.34-8.46 18.73-13.19 27.83-2.35 4.52-5.38 8.88-8.9 12.56-3.64 3.79-8.76 4.8-15.11 3.99z" fill="#010000"/><g fill="#fafafb"><path d="m361.2 9.6.8-1c.9.7 1.9 1.4 2.9 2.3l-.9 1.1c-1-1-2-1.8-2.8-2.4zm.5 10.6c.9-2.1 1.6-4.3 2.3-6.7.4.2.8.4 1.3.6-.7 2.1-1.5 4.3-2.2 6.6zm.4-15.2.9-.9c1 .8 2 1.6 2.8 2.4l-1 1c-.9-.9-1.8-1.7-2.7-2.5zm12.5-1.2h1.2v1.4h2.7v1.1h-2.7v2.7h-1.2v-.6h-1.8v1.3h4.9v3.8h-1.2v-.5h-3.7c0 .4-.1.9-.1 1.2h5.1v1h-5.2c0 .5-.1.9-.2 1.2h6v1h-5.2c1.1 1.3 2.9 2 5.5 2.2-.4.4-.7.8-.9 1.3-2.9-.5-4.8-1.6-5.7-3.5h-.1c-.8 1.7-2.7 2.9-5.9 3.6-.2-.4-.6-.8-.9-1.1 2.8-.6 4.6-1.4 5.4-2.5h-4.8v-1h5.3c.1-.3.2-.7.2-1.2h-4.9v-1h5c0-.4 0-.8.1-1.2h-3.5v.5h-1.2v-3.8h4.9v-1.3h-1.8v.5h-1.2v-2.7h-2.7v-1h2.6v-1.4h1.2v1.4h4.7v-1.4zm-6.6 8.3h3.6c0-.4 0-.9 0-1.4h-3.6zm1.9-4.6h4.7v-1.3h-4.7zm6.6 3.2h-3.7v1.4h3.7z"/><path d="m385.3 3.8h1.3v2.2h2.8v-2.2h1.3v2.2h4.1v9.1h1.7v1.3h-16.9v-1.3h1.7v-9.1h4.1v-2.2zm.4 13.1.7 1.2c-1.8.9-3.8 1.9-6 2.9-.2-.4-.5-.8-.8-1.3 2.3-1 4.3-1.9 6.1-2.8zm-3.1-6.4h2.8v-3.2h-2.8zm0 4.6h2.8v-3.3h-2.8zm4-4.6h2.8v-3.2h-2.8zm0 4.6h2.8v-3.3h-2.8zm3.7 1.9c2.1.9 4.1 1.8 6.1 2.7l-.7 1.3c-2.2-1.1-4.2-2-6.1-2.9zm3.2-9.7h-2.8v3.2h2.8zm-2.8 7.8h2.8v-3.3h-2.8z"/></g></svg>