<svg enable-background="new 0 0 400 400" viewBox="0 0 400 400" xmlns="http://www.w3.org/2000/svg"><g fill="#010000"><path d="m60.34 329.21c.24-5.16 1.15-8.59 4.19-11.9 14.38-15.63 27.63-32.14 37.47-51.12.1-.19.21-.37.31-.55 3.47-6.64 4.96-13.24 2.93-20.97-1.8-6.85-3.88-13.14-8.2-18.91-8.19-10.94-15.75-22.35-23.73-33.45-2.83-3.93-5.08-7.91-5.59-12.87-.42-4.07-1.44-8.09-2.31-12.8 5.09 2.67 10.3 3.65 14.06 7.75 7.17 7.79 14.55 15.4 22 23.25 4.1-6.32 5.2-13.24 5.23-20.2.03-8.46-.06-17.03-1.35-25.36-1.09-7.04-.6-13.71 1.08-20.38 1.41-5.61.8-11.06.23-16.67-1.05-10.31-1.98-20.68-2.12-31.03-.08-5.63 1.7-11.26 2.41-16.92.7-5.58-.29-10.93-2.52-16.12-2.76-6.45-1.57-10.02 4.7-13.3 2.8-1.47 5.51-4.13 9.3-1.78 4.3 2.66 6.97 6.17 6.92 11.34-.15 13.35-.58 26.7-.51 40.05.05 9.74.57 19.49 1.2 29.21.24 3.63 1.37 7.2 2.26 11.57 5.49-6.6 8.88-13.32 11.83-20.32 2.13-5.06 4.16-10.2 6.8-14.99 2.65-4.83 7.01-7.82 12.78-8.93 2.86 4.88 2.98 10.17 1.71 15.33-2.66 10.79-6.41 21.13-11.8 31.02-6.68 12.24-12.31 25.05-18.29 37.66-3.55 7.48-2.98 15.55-2.61 23.46.82 17.35 1.48 34.74 3.24 52.01.9 8.85 3.99 17.48 6.21 26.18.29 1.14 1.08 2.42 2.03 3.07 11.51 7.82 18.12 19.36 24.1 31.4 1.4 2.83 2.78 5.66 4.28 8.72-3.1.6-5.48.27-7.91-1.59-6.56-5.02-13.32-9.76-20.22-14.78-3.8 7.38-5.79 15.06-6.83 23.02-.89 6.82-1.42 13.7-2.65 20.45-.52 2.81-2.46 5.37-3.76 8.04-.35-.11-.7-.23-1.05-.34-1.54-6.2-2.95-12.44-4.67-18.59-1.74-6.21-3.53-12.43-5.82-18.45-1.88-4.94-5.11-9-10.42-10.93-2.4-.87-3.88-.45-5.56 1.77-7.46 9.92-16.23 18.51-27.5 24.04-3.54 1.71-7.52 2.51-11.85 3.91z"/><path d="m204.91 217.68c3.94-1.31 5.89.17 7.59 3.18 4.8 8.51 5.7 17.81 6.36 27.26.4 5.69 1.24 11.35 2 17 .18 1.31.56 2.85 2.58 2.42 8.12-1.74 16.23-.8 24.35.05.31.03.62-.06 1.35-.15 1.08-6.89 4.23-13.28 3.16-20.91-1.34-9.49-1.46-19.19-1.49-28.8-.02-4.68 2.23-8.79 6.81-11.09 2.01-1.01 3.37-.84 4.67 1.31 3.52 5.82 5.62 12.04 6.32 18.79.53 5.14.82 10.37 1.99 15.37 1.2 5.13 4.75 8.93 9.33 11.56.76.44 2.27.41 2.99-.07 5.03-3.34 10.01-6.76 14.86-10.34 4.63-3.42 7.18-8.2 6.94-13.93-.32-7.49-.59-15.08-1.98-22.42-2.05-10.77 1.69-19.26 8.64-27.36 6.05 4.86 11.45 9.5 10.97 18.42-.28 5.3.88 10.75 1.89 16.03.54 2.84 2.5 5.06 5.58 6 1.27.39 2.59 1.06 3.54 1.97 2.78 2.64 2.66 4.02-.22 6.55-4.95 4.33-9 9.15-10.44 15.89-.97 4.59-4.28 7.81-8.13 10.18-6.58 4.05-13.42 7.67-19.99 11.73-4.94 3.05-9.67 6.43-14.4 9.8-2.11 1.5-2.82 3.69-2.71 6.38.62 15.73-.92 31.35-3.25 46.86-.71 4.75-2.6 9.35-4.14 13.95-1.91 5.7-4.08 11.31-5.99 17.01-.82 2.46-1.93 4.46-4.57 5.22-2.25.65-4.28.85-5.81-1.58-.89-1.42-2.34-2.47-3.32-3.84-2.81-3.94-5.96-6.72-11.31-4.7-.8.3-2.28-.3-3.03-.96-4.31-3.77-8.56-7.61-12.67-11.59-.96-.93-1.4-2.48-1.92-3.8-1.28-3.3-1.78-7.15-3.8-9.88-7.29-9.82-9.98-20.81-10.87-32.8-1.24-16.68-3.53-33.29-5.14-49.95-.31-3.2.34-6.52.74-9.76.76-6.39 1.68-12.77 2.52-19zm51.28 86.05c-.34-.06-.69-.11-1.03-.17 0-1.8.15-3.62-.03-5.4-.57-5.78-2.55-10.89-7.27-14.65-1.6-1.27-2.96-1.51-4.83-.35-3.68 2.29-7.37 4.7-11.35 6.36-5.46 2.27-7.02 6.72-6.84 11.71.14 4.01.69 8.56 2.73 11.85 4.43 7.15 9.82 13.73 15.05 20.35 1.96 2.48 7.69 1.06 8.33-2.01 1.89-9.21 3.51-18.46 5.24-27.69z"/><path d="m182.11 133.29c.23-9.51 3.35-19.23 7.95-28.51.45-.91 1.81-1.64 2.89-1.93 7.02-1.89 14.03-.79 21.1.01 4.66.52 9.78.95 14.1-.42 7.48-2.38 14.89-1.83 22.32-1.32 10.59.73 21.04 2.5 30.42 8.03 9.77 5.77 13.6 13.81 12.23 25.08-1.3 10.67-5.13 20.47-9.73 30.05-.4.83-1.02 1.62-1.69 2.25-9.56 8.93-20.52 14.69-33.82 15.83-9.17.79-18.27 2.34-27.41 3.41-1.17.14-2.43-.66-3.67-.93-1.45-.32-3.12-1.13-4.35-.71-4.35 1.49-5.82 1.61-8.64-2.3-5.32-7.36-10.66-14.77-15.14-22.64-4.32-7.59-6.64-16.03-6.56-25.9zm30.78 41.17c7.29-5.72 15.28-6.8 23.57-6.58 1.84.05 4.02.14 5.42 1.1 4.15 2.85 7.87 2.86 11.59-.53.08-.07.18-.11.28-.15 10.2-4.19 16.27-11.62 19.63-22.24 3.13-9.88-.11-20.11-9.99-23.31-7.36-2.39-15.23-3.46-22.96-4.43-6.16-.78-12.65-1.58-18.64-.45-6.52 1.23-12.61 4.68-19.18 7.27 3.42 16.38 6.79 32.58 10.28 49.32z"/></g><path d="m361.2 9.6.8-1c.9.7 1.9 1.4 2.9 2.3l-.9 1.1c-1-1-2-1.8-2.8-2.4zm.5 10.6c.9-2.1 1.6-4.3 2.3-6.7.4.2.8.4 1.3.6-.7 2.1-1.5 4.3-2.2 6.6zm.4-15.2.9-.9c1 .8 2 1.6 2.8 2.4l-1 1c-.9-.9-1.8-1.7-2.7-2.5zm12.5-1.2h1.2v1.4h2.7v1.1h-2.7v2.7h-1.2v-.6h-1.8v1.3h4.9v3.8h-1.2v-.5h-3.7c0 .4-.1.9-.1 1.2h5.1v1h-5.2c0 .5-.1.9-.2 1.2h6v1h-5.2c1.1 1.3 2.9 2 5.5 2.2-.4.4-.7.8-.9 1.3-2.9-.5-4.8-1.6-5.7-3.5h-.1c-.8 1.7-2.7 2.9-5.9 3.6-.2-.4-.6-.8-.9-1.1 2.8-.6 4.6-1.4 5.4-2.5h-4.8v-1h5.3c.1-.3.2-.7.2-1.2h-4.9v-1h5c0-.4 0-.8.1-1.2h-3.5v.5h-1.2v-3.8h4.9v-1.3h-1.8v.5h-1.2v-2.7h-2.7v-1h2.6v-1.4h1.2v1.4h4.7v-1.4zm-6.6 8.3h3.6c0-.4 0-.9 0-1.4h-3.6zm1.9-4.6h4.7v-1.3h-4.7zm6.6 3.2h-3.7v1.4h3.7z" fill="#fafafb"/><path d="m385.3 3.8h1.3v2.2h2.8v-2.2h1.3v2.2h4.1v9.1h1.7v1.3h-16.9v-1.3h1.7v-9.1h4.1v-2.2zm.4 13.1.7 1.2c-1.8.9-3.8 1.9-6 2.9-.2-.4-.5-.8-.8-1.3 2.3-1 4.3-1.9 6.1-2.8zm-3.1-6.4h2.8v-3.2h-2.8zm0 4.6h2.8v-3.3h-2.8zm4-4.6h2.8v-3.2h-2.8zm0 4.6h2.8v-3.3h-2.8zm3.7 1.9c2.1.9 4.1 1.8 6.1 2.7l-.7 1.3c-2.2-1.1-4.2-2-6.1-2.9zm3.2-9.7h-2.8v3.2h2.8zm-2.8 7.8h2.8v-3.3h-2.8z" fill="#fafafb"/></svg>