<svg enable-background="new 0 0 400 400" viewBox="0 0 400 400" xmlns="http://www.w3.org/2000/svg"><path d="m221.37 367.8c-8.31-.89-16.6-2.06-24.93-2.58-5.9-.36-11.86.47-17.77.23-10.26-.43-20.5-1.18-30.74-1.97-7.61-.59-15.21-1.33-22.77-2.27-3.53-.44-7.09-1.2-10.43-2.39-10.96-3.92-21.73-8.4-32.77-12.09-6.11-2.04-8.82-6.32-9.95-11.95-1.89-9.44-3.74-18.91-4.96-28.45-.56-4.33.24-8.88.74-13.29.52-4.61.43-8.95-1.78-13.26-.8-1.55-.52-3.9-.15-5.77 1.52-7.6 3-15.12 1.61-22.96-.81-4.58-1.23-9.26-1.42-13.91-.25-6.11-.5-12.26-.05-18.34.51-6.8.79-13.55-.62-20.23-2.5-11.9-1.69-23.83-.8-35.78.34-4.49-.2-9.16 2.46-13.26.29-.45.27-1.26.12-1.83-2.36-9-1.11-17.96-.44-27.06 1.3-17.53 1.81-35.12 2.19-52.7.11-5.27.3-9.82 5.73-12.34.65-.3 1.15-.93 1.69-1.44 5.74-5.37 11.99-9.06 20.33-6.74 5.13 1.43 10.01.23 14.84-1.66 1.17-.46 2.77-.05 4.12.2 2.34.43 4.61 1.26 6.96 1.53 2.3.27 4.67-.05 6.99.08 9.29.53 18.25-1.03 27.31-3.1 6.61-1.51 13.65-1.31 20.51-1.44 18.23-.32 36.48-.06 54.69-.73 8.96-.33 17.85-2.27 26.78-3.38 7.32-.91 14.51-2.43 22.06-1.86 5.83.44 11.78-.98 17.69-1.3 3.46-.19 7.07-.37 10.4.37 8.08 1.81 11.83 5.45 13.51 16.94.81 5.52.4 11.21.74 16.81.22 3.55.2 7.29 1.34 10.57 2.36 6.81.94 13.65 1.19 20.48.09 2.49.23 5.15 1.14 7.41 1.7 4.23 2.02 8.35.57 12.62-1.28 3.77-1.15 7.39.48 11.08.66 1.49.93 3.3.84 4.93-.78 14.91 1.65 29.59 2.9 44.36.64 7.56.04 15.22 0 22.84-.02 4.76-.03 9.52-.07 14.28-.01 1.15.22 2.54-.33 3.41-2.08 3.3-1.97 6.91-1.72 10.47 1.01 14.4-3.22 28.12-5.25 42.13-.94 6.47-1.46 13.01-2.19 19.51-.13 1.15-.25 2.32-.61 3.41-2.99 9.27-5.67 18.65-9.18 27.72-2.43 6.28-6.23 12.02-9.02 18.18-3.85 8.5-10.85 12.75-19.5 13.14-12.2.56-23.85 2.36-35.21 7.14-8.55 3.64-17.95 3.8-27.27 4.24zm-96.83-63.46c2.9-2.21 4.85-4.3 7.26-5.39 3.72-1.69 7.71-2.9 11.67-3.96 7.56-2.03 15.3-3.43 22.73-5.81 7.33-2.35 7.2-2.75 7.2-10.31 0-1.38-.1-2.77.02-4.13.42-4.66-.63-8.97-2.54-13.23-1.28-2.86-2.24-5.96-2.72-9.05-.88-5.65-1.73-11.37-1.77-17.06-.03-4.62-2.44-7.02-5.92-8.9-2.78-1.51-5.69-2.82-8.64-3.96-3.65-1.41-7.44-2.48-11.1-3.85-5.96-2.23-11.67-4.94-16.9-9.46 1.71-.58 3.06-1.39 4.44-1.45 4.85-.22 9.73-.54 14.55-.15 7.6.61 15.14 1.38 22.55-.65.13-.4.26-.6.24-.79-1.13-16.07-2.18-32.14-3.46-48.19-.41-5.12-3.45-7.58-8.48-6.5-4.79 1.03-9.43 2.91-14.03 4.71-3.53 1.39-6.78 3.5-10.33 4.81-4.1 1.52-8.41 1.56-12.81.48 1.11-4.47 4.06-7.01 7.54-8.94 4.16-2.31 8.47-4.36 12.74-6.48 20.5-10.14 41.28-19.79 60.47-32.35 6.07-3.97 11.65-8.68 17.51-13.09-9.67-14.34-18.9-28.05-28.21-41.7-.49-.72-1.66-1.32-2.56-1.38-8.08-.61-16.21-2.1-24 1.78-1.35.67-3.1.67-4.67.73-21.91.95-43.83 1.86-65.74 2.79-1.73.07-3.46.26-5.43.41.37 1.05.46 1.71.8 2.21 4.14 6.27 3.68 12.73 1.58 19.63-2.09 6.87-4.35 13.92-4.81 21-1.12 17.02-1.16 34.11-1.76 51.17-.63 18.12-1.5 36.22-2.07 54.34-.17 5.26-.25 10.64.69 15.78 1.11 6.07 1.18 11.91-.03 17.91-.88 4.35-1.28 8.67-.3 13.2 1.07 4.92 1.38 10.03 1.68 15.07.47 7.92.31 15.89 1.07 23.77.8 8.31 2.51 16.53 3.5 24.83.3 2.52 1.13 4.27 3.34 5.25 5.4 2.41 10.69 5.22 16.31 6.96 11.29 3.5 22.77 6.41 34.18 9.51.89.24 1.94.26 2.83.04 9.47-2.4 18.73-.53 28.01 1.22 6.62 1.24 13.17 4.53 20.01.82.33-.18.84-.06 1.26-.05 6.04.15 12.08.46 18.11.43 9.73-.05 19.47-.15 29.19-.57 6.02-.26 12-1.27 18.01-1.71 2.39-.17 4.9.77 7.22.39 8.36-1.37 16.64-3.2 24.99-4.6 2.34-.39 3.07-1.46 3.59-3.55 2.68-10.79 5.5-21.54 8.28-32.3 2.27-8.81 4.85-17.55 6.75-26.43 1.63-7.65 2.44-15.48 3.69-23.22 2.26-14.03 4.51-28.05 3.37-42.36-.53-6.65-1.19-13.31-1.27-19.97-.31-25.55.1-51.12-.74-76.65-.68-20.86-2.75-41.67-4.23-62.51-.05-.7-.15-1.87-.52-2-3.94-1.42-7.1-4.84-12.08-3.63-8.93 2.17-17.87 4.6-27.26 3.76-6.2-.56-12.22.5-18.17 2.27-1.99.59-4.16.81-6.25.85-8.15.16-16.33-.12-24.46.36-5.6.33-11.14 1.62-17.49 2.61 1.17 1.05 1.43 1.41 1.79 1.58 10.69 5.09 17.3 13.84 21.92 24.39.08.19.22.36.32.55 3.07 5.49 8.78 6.4 13.35 2.05 4.11-3.92 9.43-5.12 14.66-6.2 1.66-.34 3.85.86 5.42 1.91.37.25-.36 3.09-1.27 4.16-4.1 4.81-8.21 9.65-12.79 13.99-2.37 2.25-3.02 4.31-1.57 6.88 4.25 7.54 8.21 15.31 13.19 22.35 4.23 5.97 7.64 12.21 9.78 19.09.99 3.18.86 6.71 1.29 10.59-2.22-.3-3.47-.39-4.68-.64-5.48-1.12-8.5-5.46-11.56-9.43-2.26-2.94-4.84-3.16-7.95-2.92-.13.51-.28.81-.27 1.1.65 17.37 1.32 34.74 1.98 52.11.09 2.39 1.53 3.83 3.67 4.15 3.42.51 7.02 1.31 10.34.76 5.49-.91 10.78-2.99 16.24-4.21 4.37-.98 8.53-.12 12.82 3.28-3.33 3.03-6.1 6.14-9.42 8.45-8.22 5.73-17.43 8.98-27.43 10.1-4.74.53-6.47 2.67-6.79 7.15-.77 10.67-.84 21.47-2.59 31.98-3.34 20.05-9.4 39.32-19.89 56.96-1.43 2.4-3.29 2.59-4.75.24-.79-1.27-1.21-2.98-1.19-4.48.03-2.31.59-4.61.89-6.92.57-4.44.49-8.81-1.29-12.97-.57 0-.9-.07-1.2.01-14.62 3.91-29.22 7.87-43.86 11.71-2.29.6-4.71.94-7.08.97-4.4.06-8.7-.61-12.89 1.98-2.23 1.38-5.4 1.77-8.12 1.68-3.45-.11-6.92-.97-10.28-1.88-2.24-.66-4.34-1.91-7.42-3.28zm58.98-94.47c8.98-.41 17.83-.73 26.68-1.23 6.39-.36 12.58-1.62 18.29-4.72 1.86-1.01 2.75-2.23 2.52-4.53-.66-6.53-1.12-13.09-1.57-19.64-1.2-17.54-2.35-35.08-3.54-52.62-.11-1.57-.2-3.2-.67-4.69-1.17-3.73-5.21-5.21-8.62-3.29-12.16 6.88-24.26 13.87-36.52 20.56-2.86 1.56-3.41 3.32-3 6.28 1.55 11.03 2.55 22.09.63 33.21-.26 1.48-.16 3.31.51 4.6 2.5 4.83 3.13 10.05 3.78 15.3.41 3.35.93 6.68 1.51 10.77zm-6.05 76.23c1.09 0 1.75.13 2.33-.02 13.58-3.56 27.17-7.11 40.71-10.85.96-.26 1.93-1.89 2.18-3.03 1.63-7.44 3.25-14.88 4.48-22.39.92-5.62 1.59-11.33 1.75-17.02.16-5.76-1.88-7.66-7.58-8.49-.31-.05-.63-.11-.94-.12-10.94-.61-21.76.32-32.45 2.64-.83.18-1.72 1.11-2.16 1.92-2.77 5.06-2.36 10.57-2.39 16.1-.04 5.89-.41 11.82-1.3 17.64-1.18 7.81-3.01 15.53-4.63 23.62z" fill="#010000"/><g fill="#fafafb"><path d="m361.2 9.6.8-1c.9.7 1.9 1.4 2.9 2.3l-.9 1.1c-1-1-2-1.8-2.8-2.4zm.5 10.6c.9-2.1 1.6-4.3 2.3-6.7.4.2.8.4 1.3.6-.7 2.1-1.5 4.3-2.2 6.6zm.4-15.2.9-.9c1 .8 2 1.6 2.8 2.4l-1 1c-.9-.9-1.8-1.7-2.7-2.5zm12.5-1.2h1.2v1.4h2.7v1.1h-2.7v2.7h-1.2v-.6h-1.8v1.3h4.9v3.8h-1.2v-.5h-3.7c0 .4-.1.9-.1 1.2h5.1v1h-5.2c0 .5-.1.9-.2 1.2h6v1h-5.2c1.1 1.3 2.9 2 5.5 2.2-.4.4-.7.8-.9 1.3-2.9-.5-4.8-1.6-5.7-3.5h-.1c-.8 1.7-2.7 2.9-5.9 3.6-.2-.4-.6-.8-.9-1.1 2.8-.6 4.6-1.4 5.4-2.5h-4.8v-1h5.3c.1-.3.2-.7.2-1.2h-4.9v-1h5c0-.4 0-.8.1-1.2h-3.5v.5h-1.2v-3.8h4.9v-1.3h-1.8v.5h-1.2v-2.7h-2.7v-1h2.6v-1.4h1.2v1.4h4.7v-1.4zm-6.6 8.3h3.6c0-.4 0-.9 0-1.4h-3.6zm1.9-4.6h4.7v-1.3h-4.7zm6.6 3.2h-3.7v1.4h3.7z"/><path d="m385.3 3.8h1.3v2.2h2.8v-2.2h1.3v2.2h4.1v9.1h1.7v1.3h-16.9v-1.3h1.7v-9.1h4.1v-2.2zm.4 13.1.7 1.2c-1.8.9-3.8 1.9-6 2.9-.2-.4-.5-.8-.8-1.3 2.3-1 4.3-1.9 6.1-2.8zm-3.1-6.4h2.8v-3.2h-2.8zm0 4.6h2.8v-3.3h-2.8zm4-4.6h2.8v-3.2h-2.8zm0 4.6h2.8v-3.3h-2.8zm3.7 1.9c2.1.9 4.1 1.8 6.1 2.7l-.7 1.3c-2.2-1.1-4.2-2-6.1-2.9zm3.2-9.7h-2.8v3.2h2.8zm-2.8 7.8h2.8v-3.3h-2.8z"/></g></svg>