<svg enable-background="new 0 0 400 400" viewBox="0 0 400 400" xmlns="http://www.w3.org/2000/svg"><path d="m108.97 145.4c1.56.78 2.8 1.08 3.59 1.84 11.4 11.06 18.39 24.39 20.77 40.16 1.05 6.91-.5 13.49-1.87 20.12-3.08 14.89-3.72 29.87-1.03 44.85 2.01 11.21 8.34 19.81 18.33 25 5.16 2.68 11.17 4.2 16.97 5.06 7.83 1.17 15.84 1.67 23.75 1.53 4.5-.08 8.98-1.97 13.45-3.13 4.95-1.28 9.84-2.8 14.81-3.96 5.76-1.34 8.66-5.9 11.67-10.17 7.08-10.07 11.35-21.25 12.21-33.62.06-.91 0-2.01-.46-2.74-2.47-4-2.17-8.36-1.65-12.66.71-5.88.44-11.6-1.56-17.22-.41-1.16-.55-2.49-.51-3.74.24-8.8.55-17.59.87-26.38.04-1.15 0-2.45.5-3.43 5.2-10.16 10.51-20.27 15.76-30.35 2.66.16 4 1.59 4.32 3.76.51 3.5.24 6.76-1.92 9.98-6.75 10.01-9.83 21.47-10.34 33.27-.26 6.05 2.34 12.2 3.48 18.34 3.86 20.8 3.53 41.32-2.57 61.85-2.71 9.11-7.93 14.95-16 18.89-10.1 4.92-20.2 9.78-31.74 10.48-4.51.27-5.68 2.84-3.7 6.89 7.25 14.84 14.55 29.66 21.73 44.53.96 2 2.05 2.64 4.32 2.57 5.49-.18 11 .29 16.48.07 7.67-.3 15.11-1.87 21.97-5.4 3.69 4.2 3.38 7.28-1.58 8.95-5.97 2.01-12.22 3.27-18.41 4.57-15.43 3.26-30.88 6.46-46.37 9.43-2.92.56-6.07-.19-9.1-.11-2.47.07-4.92.51-7.39.75-1.22.12-2.5.44-3.67.23-16.25-2.99-32.48-6.05-48.72-9.09-3.02-.56-4.3-2.69-5.29-5.5 4.7-2.82 9.6-2.72 14.55-2.08 6.82.88 13.61 2.09 20.45 2.71 7.11.65 9.11-.93 9.78-7.94.99-10.41 5.14-19.79 8.56-29.46 1.78-5.04 2.56-10.44 3.82-15.67.42-1.76 0-2.84-1.97-3.14-1.77-.27-3.56-.59-5.26-1.16-2.8-.94-5.53-2.11-8.93-3.42-1.6 0-4.43.75-6.6-.14-6.44-2.64-13.6-4.8-18.65-9.23-6.03-5.3-11.55-11.87-13.72-20.2-1.28-4.92-2.39-9.88-3.46-14.85-.3-1.42-.29-2.94-.19-4.4.36-5.27 1.34-10.55 1.12-15.78-.4-9.37 2.05-18.3 3.46-27.37 2.21-14.2-.94-26.85-9.17-38.49-4.37-6.13-4.23-6.23-4.89-15zm74.01 207.52c.05.31.11.61.16.92 6.5-1.27 13.1-2.2 19.48-3.91 4.58-1.23 4.79-3.05 2.11-6.9-1.62-2.33-3.21-4.74-4.4-7.3-3.48-7.47-6.7-15.06-10.18-22.53-.57-1.22-1.93-2.06-2.93-3.07-.98 1.04-2.04 2.01-2.92 3.13-.34.44-.35 1.21-.37 1.83-.35 11.1-3.37 21.17-10.61 29.89-1.19 1.44-1.36 4.25-.97 6.23.16.84 2.94 1.41 4.6 1.65 1.97.27 4.01.06 6.03.06z" fill="#010000"/><path d="m170.2 209.97c-7.23 7.41-9.43 19.03-20.23 24.01-.37-1.83-.71-3.52-1.09-5.4 4.44-1.55 5.87-4.91 6.03-9.19.18-4.9 2.39-8.98 4.88-13.18 4.36-7.35 8.42-14.95 11.69-22.82 1.32-3.18.22-7.37.22-10.92-2.89-1.1-4.21-.39-5.7 1.5-2.74 3.47-5.75 6.8-9.06 9.73-1.72 1.53-4.26 2.22-6.54 2.98-.73.24-2.3-.26-2.57-.85-.32-.7.06-2.09.62-2.77 2.11-2.51 4.66-4.68 6.6-7.3 3.58-4.84 6.84-9.91 10.25-14.87 1.62-2.35 3.28-4.66 4.93-6.99.79-1.12 1.99-2.13 2.3-3.37 1.87-7.48 3.44-15.03 1.96-22.81-.2-1.04-.92-2.25-.6-3.06 2.29-5.64.69-11.57 1.51-17.29.67-4.61 1.68-9.18 2.13-13.8.46-4.84.4-9.72.63-14.59.12-2.42.14-4.88.63-7.24.73-3.5 3.03-4.28 6.12-2.43 6.54 3.91 13.77 5.29 21.24 5.73.8.05 1.62-.28 2.43-.43.56-4.22.14-7.91-2.17-11.61-4.54-7.27-8.68-14.8-12.74-22.34-.83-1.55-.61-3.66-.97-6.18 7.23 2.61 12.01 6.57 15.95 11.93 6.93 9.44 11.64 19.86 14.74 31.07.59 2.11 1.74 3.42 3.82 4.21 6.79 2.56 13.17 5.77 17.82 11.67.52.66 1.6 1.26 2.39 1.23 3-.11 4.84 1.6 6.74 3.54 5.26 5.38 10.64 10.66 15.94 16.01.65.65 1.58 1.48 1.6 2.24.17 7.92 5.49 13.55 8.76 20.08 1.87 3.73 3.81 7.45 5.35 11.32.57 1.44.09 3.29.09 4.85-3.12 1.01-4.93.76-6.16-2.52-1.25-3.32-3.47-6.28-5.37-9.33-4.51-7.28-8.92-14.62-13.65-21.76-7.5-11.3-17.1-20.19-30.18-24.66-6.68-2.28-7.1-1.99-9.22 4.57-2.47 7.65-4.75 15.35-7.3 22.98-1.64 4.92-3.46 6.05-7.71 5.22.84-8.38 1.06-16.91 2.81-25.12.78-3.68 2.34-7.09 1.56-10.95-.68-3.39-4.03-5.47-7.34-4.76-.96.2-2.08 0-3.07-.26-2.86-.76-5.76-1.47-8.51-2.54-2.4-.94-3.89-.11-4.26 2.06-.73 4.23-1.17 8.52-1.5 12.8-.46 5.99-.73 12-1.05 18.01-.13 2.42-.26 4.85-.28 7.27-.04 4.96-.13 9.93.04 14.89.08 2.25.4 4.61 1.18 6.7 1.48 3.96 3.24 7.84 5.14 11.61 2.38 4.72 4.9 9.35 9.36 12.63 1.43 1.05 2.52 2.82 3.3 4.48 2.25 4.76 4.26 9.63 6.38 14.49-3.23.87-5.43-.15-7.75-2.07-4.46-3.7-8.43-7.64-10.72-13.11-1.05-2.5-2.87-4.45-6.04-4.9-3.01 5.1-2.74 10.6-1.28 15.9 2.01 7.31 6.01 13.62 10.97 19.42 4.59 5.37 8.79 11.08 13.13 16.66 1.23 1.59 2.6 3.15 3.42 4.94.65 1.44.57 3.21.81 4.84-1.54-.22-3.58.12-4.55-.75-6.48-5.76-12.7-11.8-19.07-17.67-1.08-.99-2.47-1.65-3.71-2.46-.67 1.22-1.56 2.38-1.98 3.68-2.32 7.37-4.53 14.77-6.77 22.16-.12.41-.16.9-.42 1.19-.65.73-1.41 1.37-2.12 2.04-.49-.84-1.41-1.69-1.38-2.5.15-3.9.34-7.83.92-11.69 1.04-6.85.37-10.23-3.33-14.15z" fill="#010000"/><g fill="#fafafb"><path d="m361.2 9.6.8-1c.9.7 1.9 1.4 2.9 2.3l-.9 1.1c-1-1-2-1.8-2.8-2.4zm.5 10.6c.9-2.1 1.6-4.3 2.3-6.7.4.2.8.4 1.3.6-.7 2.1-1.5 4.3-2.2 6.6zm.4-15.2.9-.9c1 .8 2 1.6 2.8 2.4l-1 1c-.9-.9-1.8-1.7-2.7-2.5zm12.5-1.2h1.2v1.4h2.7v1.1h-2.7v2.7h-1.2v-.6h-1.8v1.3h4.9v3.8h-1.2v-.5h-3.7c0 .4-.1.9-.1 1.2h5.1v1h-5.2c0 .5-.1.9-.2 1.2h6v1h-5.2c1.1 1.3 2.9 2 5.5 2.2-.4.4-.7.8-.9 1.3-2.9-.5-4.8-1.6-5.7-3.5h-.1c-.8 1.7-2.7 2.9-5.9 3.6-.2-.4-.6-.8-.9-1.1 2.8-.6 4.6-1.4 5.4-2.5h-4.8v-1h5.3c.1-.3.2-.7.2-1.2h-4.9v-1h5c0-.4 0-.8.1-1.2h-3.5v.5h-1.2v-3.8h4.9v-1.3h-1.8v.5h-1.2v-2.7h-2.7v-1h2.6v-1.4h1.2v1.4h4.7v-1.4zm-6.6 8.3h3.6c0-.4 0-.9 0-1.4h-3.6zm1.9-4.6h4.7v-1.3h-4.7zm6.6 3.2h-3.7v1.4h3.7z"/><path d="m385.3 3.8h1.3v2.2h2.8v-2.2h1.3v2.2h4.1v9.1h1.7v1.3h-16.9v-1.3h1.7v-9.1h4.1v-2.2zm.4 13.1.7 1.2c-1.8.9-3.8 1.9-6 2.9-.2-.4-.5-.8-.8-1.3 2.3-1 4.3-1.9 6.1-2.8zm-3.1-6.4h2.8v-3.2h-2.8zm0 4.6h2.8v-3.3h-2.8zm4-4.6h2.8v-3.2h-2.8zm0 4.6h2.8v-3.3h-2.8zm3.7 1.9c2.1.9 4.1 1.8 6.1 2.7l-.7 1.3c-2.2-1.1-4.2-2-6.1-2.9zm3.2-9.7h-2.8v3.2h2.8zm-2.8 7.8h2.8v-3.3h-2.8z"/></g></svg>