<svg enable-background="new 0 0 400 400" viewBox="0 0 400 400" xmlns="http://www.w3.org/2000/svg"><g fill="#010000"><path d="m154.28 114.76c3.9.09 7.16.93 10.71 2.44 8.22 3.51 16.96 5.8 25.52 8.48 2.39.75 4.9 1.11 7.73 1.74.26-3.5.52-6.62.71-9.75 1.15-18.4 2.21-36.81 3.5-55.21.21-3.01-.78-3.99-3.53-4.57-15.17-3.23-29.83-8.06-43.79-14.83-4.21-2.04-8.07-4.82-12.08-7.26.17-.31.33-.63.5-.94 9.71 1.91 19.43 3.8 29.14 5.74 15.46 3.09 30.97 5.95 46.34 9.43 7.08 1.6 13.88 4.45 20.81 6.73 1.29.42 2.6.81 3.96 1.24 1.54-2.05-.13-5.83 4.3-6.45.76 3.38 1.82 6.78 2.26 10.27 2.11 16.96 3.27 33.98 1.61 51.04-.48 4.91-2 9.73-3.14 14.57-1.4 5.91-2.45 11.82-.49 18.12-5.49 1.58-10.79 1.69-16.11.7-8.21-1.52-16.47-2.9-24.59-4.83-5.02-1.19-9.75-3.52-14.72-4.97-10.92-3.17-20.67-8.55-29.84-15.13-1.09-.78-2.44-1.64-3.68-1.66-3.21-.04-4.54-1.73-5.12-4.9zm89.03-1.32c-.21-3.07-.33-6.14-.64-9.2-1.1-10.63-2.64-21.24-3.22-31.9-.24-4.45-1.92-6.86-5.58-8.43-1.74-.75-3.59-1.22-5.4-1.82-2.51-.83-5.08-1.5-7.5-2.54-4.44-1.9-8.66.59-8.96 5.33-1.2 19.23-.37 38.57-3.76 57.69-1.3 7.31 3.38 12.65 10.86 13.64 5.14.68 10.34.99 15.48 1.63 2.05.26 3.07-.53 3.94-2.25 3.57-6.96 4.94-14.37 4.78-22.15z"/><path d="m150.68 330.68c11 3.87 21.43 7.06 31.48 11.19 15.85 6.51 32.13 11.1 49.13 13.28 7.37.94 9.1-.05 9.25-7.6.14-6.87-.73-13.76-.56-20.63.66-26.69 1.56-53.37 2.68-80.13 3.92 5.87 7.88 12.3 6.84 19.27-1.4 9.37 1.13 17.95 2.48 26.84 2.16 14.26 1.68 28.55-.3 42.76-1.14 8.15-3.22 16.17-4.79 24.26-.43 2.21-1.64 3.43-3.71 4.21-8.98 3.37-17.9 2.33-26.81-.2-1.32-.37-2.69-.73-3.88-1.38-11.81-6.55-24.76-9.66-37.7-12.95-8.8-2.24-16.65-6.28-21.79-14.27-.4-.62-.77-1.26-1.1-1.92-.35-.67-.62-1.35-1.22-2.73z"/><path d="m157.97 218.68c2.37-.1 4.85-.71 7.09-.21 7.04 1.57 14.04 2.51 21.3 2.85 7.08.34 14.05 2.77 21.09 4.14 3.52.68 7.14.84 10.64 1.58 1.93.41 4.17 1.08 5.47 2.42 2.05 2.11 4.28 2.65 6.56 1.55 3.37-1.64 5.13-.06 6.76 2.45.69 1.06 1.36 2.12 2.02 3.14-3.06 3.11-4.19 3.25-6.95.67-2.78-2.59-6.07-3.16-9.7-3.07-2.88.07-6.07.87-8.18-2.6-2.75 3.17-4.02 6.55-4.27 10.51-1.57 24.74-3 49.49-5.02 74.19-.46 5.67-2.66 11.31-4.78 16.68-.84 2.12-3.65 3.46-5.56 5.16-1.28-2-3.24-3.85-3.68-6.02-.63-3.11-.31-6.46-.07-9.68.13-1.75.97-3.45 1.45-5.18 1.22-4.38 3.55-8.8 3.42-13.15-.3-10.2 4.98-19.16 5.58-28.94.77-12.56.47-25.19.49-37.8 0-.81-1.1-1.92-1.97-2.37-5.79-3.05-11.95-4.88-18.54-4.98-9.22-.14-16.61-4.26-23.19-10.21.02-.38.03-.75.04-1.13z"/></g><path d="m361.2 9.6.8-1c.9.7 1.9 1.4 2.9 2.3l-.9 1.1c-1-1-2-1.8-2.8-2.4zm.5 10.6c.9-2.1 1.6-4.3 2.3-6.7.4.2.8.4 1.3.6-.7 2.1-1.5 4.3-2.2 6.6zm.4-15.2.9-.9c1 .8 2 1.6 2.8 2.4l-1 1c-.9-.9-1.8-1.7-2.7-2.5zm12.5-1.2h1.2v1.4h2.7v1.1h-2.7v2.7h-1.2v-.6h-1.8v1.3h4.9v3.8h-1.2v-.5h-3.7c0 .4-.1.9-.1 1.2h5.1v1h-5.2c0 .5-.1.9-.2 1.2h6v1h-5.2c1.1 1.3 2.9 2 5.5 2.2-.4.4-.7.8-.9 1.3-2.9-.5-4.8-1.6-5.7-3.5h-.1c-.8 1.7-2.7 2.9-5.9 3.6-.2-.4-.6-.8-.9-1.1 2.8-.6 4.6-1.4 5.4-2.5h-4.8v-1h5.3c.1-.3.2-.7.2-1.2h-4.9v-1h5c0-.4 0-.8.1-1.2h-3.5v.5h-1.2v-3.8h4.9v-1.3h-1.8v.5h-1.2v-2.7h-2.7v-1h2.6v-1.4h1.2v1.4h4.7v-1.4zm-6.6 8.3h3.6c0-.4 0-.9 0-1.4h-3.6zm1.9-4.6h4.7v-1.3h-4.7zm6.6 3.2h-3.7v1.4h3.7z" fill="#fafafb"/><path d="m385.3 3.8h1.3v2.2h2.8v-2.2h1.3v2.2h4.1v9.1h1.7v1.3h-16.9v-1.3h1.7v-9.1h4.1v-2.2zm.4 13.1.7 1.2c-1.8.9-3.8 1.9-6 2.9-.2-.4-.5-.8-.8-1.3 2.3-1 4.3-1.9 6.1-2.8zm-3.1-6.4h2.8v-3.2h-2.8zm0 4.6h2.8v-3.3h-2.8zm4-4.6h2.8v-3.2h-2.8zm0 4.6h2.8v-3.3h-2.8zm3.7 1.9c2.1.9 4.1 1.8 6.1 2.7l-.7 1.3c-2.2-1.1-4.2-2-6.1-2.9zm3.2-9.7h-2.8v3.2h2.8zm-2.8 7.8h2.8v-3.3h-2.8z" fill="#fafafb"/></svg>