<svg enable-background="new 0 0 400 400" viewBox="0 0 400 400" xmlns="http://www.w3.org/2000/svg"><path d="m123.08 140.57c4.49 5.41 6.61 11.32 6.14 18.11-.43 6.15.02 12.09 4.12 17.16.33.41.54.92.85 1.46 12.37-9.69 24.36-18.94 36.16-28.43 2.66-2.14 5.26-3.14 8.63-3.01 1.27.05 3.51-1 3.73-1.92 1.05-4.46 4.76-5.58 8.35-7.61 2.07 2.62 4 5.24 6.11 7.71 1.84 2.15 3.59 4.52 5.87 6.1 4.47 3.1 7.88 6.9 10.37 11.74.85 1.65 2.48 3.23 4.15 4.06 4.93 2.44 9.04 5.82 12.78 9.76 1.16 1.22 2.48 2.35 3.9 3.23 3.56 2.21 7.07 1.64 8.72-2.12 1.88-4.28 3.38-8.91 4.01-13.52 1.05-7.75 1.18-15.61 1.9-23.41.22-2.37 1.1-4.69 1.68-7.05 6.01 2.01 9.39 6.7 7.71 12.56-5.2 18.16-3.41 36.84-4.96 55.27-.25 3-1.58 5.91-2.57 9.41 3.53 2.2 3.4 6.4 3.16 10.73-.26 4.55-.13 9.12-.44 13.67-.44 6.63.11 13.01 2.59 19.31.98 2.5.75 5.57.67 8.37-.09 3.27.04 6.8-1.13 9.73-1.14 2.88-3.79 5.15-5.8 7.72.06.07.16.34.32.39 5.74 1.83 7 6.35 7.59 11.69.79 7.15 2.11 14.25 3.3 21.35.22 1.33.76 2.64 1.36 3.86 3.56 7.22 7.23 14.38 10.75 21.62 2.97 6.12 4.02 12.62 3.68 19.96-3.17-.74-6.05-1.25-8.78-2.18-.64-.22-1.23-1.91-1.1-2.82.49-3.54-.95-5.56-3.99-7.32-2.03-1.18-3.82-3.3-4.94-5.41-3.95-7.49-7.6-15.14-11.27-22.77-.85-1.78-1.83-2.61-3.97-2.81-3.97-.37-7.56-.38-11.13 2.01-1.77 1.19-4.48 1.56-6.7 1.39-9.15-.69-17.33 1.81-24.97 6.66-1.6 1.01-3.33 2.05-5.13 2.46-3.06.69-6.22.94-9.35 1.29-3.88.44-5.45-2.52-7.21-5.45-1.41 1.5-2.57 2.82-3.82 4.03-3.56 3.45-7.87 4.95-12.77 5.73-5.69.91-11.34 2.41-16.77 4.31-1.95.68-3.94 3.01-4.66 5.04-1.14 3.22-1.34 6.8-1.71 10.24-.3 2.73.13 5.58-.52 8.2-.43 1.73-1.88 3.59-3.39 4.59-2.57 1.7-4.43 1.07-5.39-1.86-1.5-4.6-3.34-9.33-3.54-14.06-.34-8.22.63-16.48.71-24.73.05-4.61-.64-9.22-.92-13.83-.61-9.73-1.27-19.45-1.73-29.18-.6-12.71-1.07-25.42-1.49-38.14-.04-1.26.7-2.53.89-3.82.24-1.62.73-3.39.33-4.88-1.47-5.59-1.89-11.18-1.87-16.97.01-5.13-1.71-10.25-1.87-15.4-.33-10.15-.01-20.33-.15-30.49-.11-7.61-.45-15.21-.83-22.81-.19-3.72 1.26-6.51 4.34-8.92zm8.61 50.2c.13 1.86.17 3.34.33 4.81.63 5.72.81 11.39-1.08 16.96-.39 1.14-.48 2.54-.24 3.72 2.6 13.2 5.55 26.34 4.81 39.94-.01.11 0 .21.01.32.46 6.5 4.31 10.15 10.7 10.15 6.47 0 12.94.14 19.4-.05 3.99-.12 7.98-.68 11.96-1.15 11.79-1.4 23.68-3.58 34 5.55.87-4.07 3.53-5.04 7.07-5.29 3.01-.22 5.95-1.39 8.97-1.73 2.3-.26 4.92-.47 6.94.38 2.88 1.22 5.18.46 6.42-1.59 1.95-3.22 3.98-6.51 2.54-10.92-1.49-4.56-2.77-9.43-2.83-14.18-.16-13.13.32-26.28.64-39.42.05-1.92-.59-3.06-2.2-4.11-7.71-5.04-15.39-10.15-22.99-15.37-4.62-3.17-9.28-6.32-13.55-9.93-5.16-4.36-9.91-9.2-14.92-13.9-9.17 7.08-18.24 13.88-27.06 20.98-2.99 2.41-5.58 5.41-7.97 8.44-1.36 1.72-2.77 2.67-4.85 3.07-5.29 1.02-10.55 2.17-16.1 3.32zm62.4 124.97c8.48-7.33 17.82-12.38 29.98-6.05 1.33-4.24 4.75-5.42 8.39-6.51 5.36-1.61 10.66-3.46 15.94-5.34.9-.32 2.25-1.44 2.16-2-.19-1.19-.94-2.61-1.91-3.29-1.11-.78-2.72-.87-4.04-1.25-.74-3.88 1.85-5.85 4.2-7.65-3.15-3.26-6.15-6.37-9.38-9.72-3.75 3.83-8.44 3.34-13.06 2.42-2.99-.6-5.85-1.87-8.82-2.6-.89-.22-2.04.24-2.98.61-1.55.61-2.96 1.78-4.54 2.03-2.91.47-5.9.58-8.86.61-7.32.06-14.8 1.68-21.36-1.99-10.58 4.65-20.94 8.42-32.48 5.8-1.85-.42-3.81-.42-5.64-.9-2.4-.63-3.72.39-4.18 2.54-.5 2.36-1.05 4.8-.94 7.18.26 5.34.64 10.58-2.58 15.34-.4.59-.17 1.84.14 2.64 2.05 5.33 4.29 10.59 6.28 15.95.64 1.72 1.57 2.36 3.29 2.11 7.01-1.01 14.12-1.55 20.99-3.16 7.44-1.74 14.61-4.61 21.99-6.66 2.17-.62 4.64-.11 7.41-.11zm48.01-9.1c-1.21 1.04-2.27 1.94-3.24 2.77 1.77 2.6 3.35 3.07 5.3.99-.69-1.25-1.33-2.42-2.06-3.76zm8.14-46.94v5.16c1.28-.55 2.27-.98 3.75-1.61-1.33-1.26-2.34-2.22-3.75-3.55z" fill="#010000"/><path d="m167.85 143.48c-4.87-7.63-6.78-15.91-8.12-24.44-.89-5.63-2.39-11.16-3.65-16.72-.4-1.75-1.38-3.51-1.25-5.21.34-4.73-1.72-7.8-5.68-9.99-3.47-1.93-5.83-4.86-7.04-8.63-1.29-4.02-4.46-6.28-7.59-8.65-3.73-2.81-7.58-12.16-7.07-17.02 4.03-.11 7.12.66 9.63 4.7 2.92 4.69 7.02 8.7 10.91 12.71 1.51 1.56 3.86 2.3 5.9 3.45 3.04-4.97 3.47-9.89 3.42-14.89-.02-2.12-.18-4.23-.27-6.35-.31-8.1 3.75-12.55 12.17-13.16 3.25 11.67.78 24.67 7.58 36.24 1.38-1.22 2.24-1.94 3.05-2.71 12.51-11.9 25.02-23.82 37.54-35.72 1.11-1.05 2-2.57 3.96-1.14 1.97 1.44 1.72 3.16.66 4.72-6.66 9.77-11.01 21.08-21.56 28.17-8.31 5.59-15.44 12.91-23.4 19.06-4.04 3.12-5.84 7.08-5.75 11.73.1 5.35.94 10.7 1.63 16.03.56 4.39 1.81 8.73 1.94 13.12.15 5.87-2.42 10.79-7.01 14.7z" fill="#010000"/><g fill="#fafafb"><path d="m361.2 9.6.8-1c.9.7 1.9 1.4 2.9 2.3l-.9 1.1c-1-1-2-1.8-2.8-2.4zm.5 10.6c.9-2.1 1.6-4.3 2.3-6.7.4.2.8.4 1.3.6-.7 2.1-1.5 4.3-2.2 6.6zm.4-15.2.9-.9c1 .8 2 1.6 2.8 2.4l-1 1c-.9-.9-1.8-1.7-2.7-2.5zm12.5-1.2h1.2v1.4h2.7v1.1h-2.7v2.7h-1.2v-.6h-1.8v1.3h4.9v3.8h-1.2v-.5h-3.7c0 .4-.1.9-.1 1.2h5.1v1h-5.2c0 .5-.1.9-.2 1.2h6v1h-5.2c1.1 1.3 2.9 2 5.5 2.2-.4.4-.7.8-.9 1.3-2.9-.5-4.8-1.6-5.7-3.5h-.1c-.8 1.7-2.7 2.9-5.9 3.6-.2-.4-.6-.8-.9-1.1 2.8-.6 4.6-1.4 5.4-2.5h-4.8v-1h5.3c.1-.3.2-.7.2-1.2h-4.9v-1h5c0-.4 0-.8.1-1.2h-3.5v.5h-1.2v-3.8h4.9v-1.3h-1.8v.5h-1.2v-2.7h-2.7v-1h2.6v-1.4h1.2v1.4h4.7v-1.4zm-6.6 8.3h3.6c0-.4 0-.9 0-1.4h-3.6zm1.9-4.6h4.7v-1.3h-4.7zm6.6 3.2h-3.7v1.4h3.7z"/><path d="m385.3 3.8h1.3v2.2h2.8v-2.2h1.3v2.2h4.1v9.1h1.7v1.3h-16.9v-1.3h1.7v-9.1h4.1v-2.2zm.4 13.1.7 1.2c-1.8.9-3.8 1.9-6 2.9-.2-.4-.5-.8-.8-1.3 2.3-1 4.3-1.9 6.1-2.8zm-3.1-6.4h2.8v-3.2h-2.8zm0 4.6h2.8v-3.3h-2.8zm4-4.6h2.8v-3.2h-2.8zm0 4.6h2.8v-3.3h-2.8zm3.7 1.9c2.1.9 4.1 1.8 6.1 2.7l-.7 1.3c-2.2-1.1-4.2-2-6.1-2.9zm3.2-9.7h-2.8v3.2h2.8zm-2.8 7.8h2.8v-3.3h-2.8z"/></g></svg>