<svg enable-background="new 0 0 400 400" viewBox="0 0 400 400" xmlns="http://www.w3.org/2000/svg"><g fill="#010000"><path d="m254.42 367.03c-3.26-10.88-6.26-20.88-9.25-30.89-4.05-13.59-8.48-27.09-11.96-40.83-1.83-7.21-2.05-14.83-2.85-22.28-.76-7.13-1.7-14.19-7.21-19.49-.99-.95-2.72-1.66-4.08-1.63-8.58.23-17.15.66-25.71 1.15-.84.05-1.97.73-2.39 1.45-2.93 5.07-4.32 10.41-3.49 16.41.97 7.06.62 14.11-1.41 21.08-3.82 13.11-7.61 26.24-10.84 39.5-1.26 5.16-1.12 10.7-1.36 16.07-.22 4.85-3.6 8.66-8.44 8.96-.53.03-1.28-.24-1.61-.64-3.39-4.18-5.91-8.84-4.18-14.32 3.37-10.68 3.74-21.64 3.89-32.68.18-14.2.45-28.41.93-42.61.1-3.04-.83-5.13-3.15-6.76-6.76-4.74-13.69-9.26-20.31-14.2-6.87-5.12-13.47-10.6-20.15-15.95-2.45-1.96-3.72-4.58-3.67-7.72.09-5.8-1.85-10.47-7-13.56-1.98-1.19-2.43-3.07-2.77-5.34-4.87-32.31-4.49-64.88-5.14-97.41-.11-5.61-.02-11.22-.02-17.05 5.42.94 9.02 4.23 11.1 9.37 3.03 7.47 2.01 15.22 1.59 22.93-.52 9.63-1.82 19.3-1.38 28.88.55 12.03 2.18 24.04 4.03 35.96 1.16 7.49 3.18 14.9 5.5 22.13 4.07 12.64 13.18 21.06 24.73 26.87 13.51 6.8 27.84 10.65 43.06 10.81 5.14.05 9.94-1.17 14.83-2.88 10.77-3.79 20.43-9.11 28.34-17.43.73-.76 1.67-1.32 2.39-2.09 4.91-5.25 10.87-8.67 17.85-10.29 1.95-.45 2.94-1.52 3.57-3.47 2.5-7.76 5.3-15.42 7.82-23.17 1.74-5.37 3.81-10.51 7.3-15.04.81-1.06 1.12-2.69 1.21-4.09.69-11.74 1.07-23.51 2.03-35.22.27-3.34 1.83-6.7 3.36-9.78 1.47-2.95 4.26-4.53 7.62-5.11 5.35-.92 7.03.23 7.39 5.58.1 1.45.06 3.04-.4 4.39-2.68 7.8-3.85 15.83-3.64 24.04.41 15.67-3.84 30.61-7.03 45.72-.48 2.28-1.34 4.53-1.46 6.82-.4 7.49-4.35 12.38-10.19 16.77-10.07 7.58-19.59 15.89-29.43 23.79-1.84 1.47-2.58 3.01-2.59 5.36-.05 15.38 2.92 30.35 6.12 45.27 3.41 15.94 7.25 31.78 10.74 47.7 1.18 5.37 1.75 10.88 2.87 16.27.91 4.34-3.06 5.3-5.16 8.65z"/><path d="m152.79 82.25c14.18 7.41 19.8 18.48 15.91 32.93-4.31 16.03-9.7 31.76-14.69 47.61-.8 2.54-2.24 3.2-8.61 4.53-2.37-28.77-3.36-57.17 7.39-85.07z"/><path d="m197.32 35.42c6.98 4.22 9.65 10.83 9.96 18.04.39 8.85-.08 17.77-.75 26.61-.53 6.95-2.08 13.81-2.87 20.74-.38 3.28-2.74 3.61-4.91 3.64-.99.02-2.46-1.61-2.94-2.81-5.37-13.37-6.31-27.42-5.06-41.53.62-6.96 2.91-13.78 4.57-20.63.34-1.37 1.27-2.61 2-4.06z"/><path d="m235.69 103.67c9.61 4.72 14.44 12.37 15.52 22.23 1.23 11.35.41 22.59-2.86 33.66-1.09 3.71-3.29 4.74-6.91 4.98-.26-4.34-.53-8.62-.78-12.9-.08-1.48-.25-2.98-.13-4.45.45-5.54-1.02-10.14-5.88-13.39-.96-.64-1.91-1.92-2.08-3.03-1.13-7.57-1.89-15.18.97-22.58.57-1.46 1.35-2.84 2.15-4.52z"/></g><path d="m361.2 9.6.8-1c.9.7 1.9 1.4 2.9 2.3l-.9 1.1c-1-1-2-1.8-2.8-2.4zm.5 10.6c.9-2.1 1.6-4.3 2.3-6.7.4.2.8.4 1.3.6-.7 2.1-1.5 4.3-2.2 6.6zm.4-15.2.9-.9c1 .8 2 1.6 2.8 2.4l-1 1c-.9-.9-1.8-1.7-2.7-2.5zm12.5-1.2h1.2v1.4h2.7v1.1h-2.7v2.7h-1.2v-.6h-1.8v1.3h4.9v3.8h-1.2v-.5h-3.7c0 .4-.1.9-.1 1.2h5.1v1h-5.2c0 .5-.1.9-.2 1.2h6v1h-5.2c1.1 1.3 2.9 2 5.5 2.2-.4.4-.7.8-.9 1.3-2.9-.5-4.8-1.6-5.7-3.5h-.1c-.8 1.7-2.7 2.9-5.9 3.6-.2-.4-.6-.8-.9-1.1 2.8-.6 4.6-1.4 5.4-2.5h-4.8v-1h5.3c.1-.3.2-.7.2-1.2h-4.9v-1h5c0-.4 0-.8.1-1.2h-3.5v.5h-1.2v-3.8h4.9v-1.3h-1.8v.5h-1.2v-2.7h-2.7v-1h2.6v-1.4h1.2v1.4h4.7v-1.4zm-6.6 8.3h3.6c0-.4 0-.9 0-1.4h-3.6zm1.9-4.6h4.7v-1.3h-4.7zm6.6 3.2h-3.7v1.4h3.7z" fill="#fafafb"/><path d="m385.3 3.8h1.3v2.2h2.8v-2.2h1.3v2.2h4.1v9.1h1.7v1.3h-16.9v-1.3h1.7v-9.1h4.1v-2.2zm.4 13.1.7 1.2c-1.8.9-3.8 1.9-6 2.9-.2-.4-.5-.8-.8-1.3 2.3-1 4.3-1.9 6.1-2.8zm-3.1-6.4h2.8v-3.2h-2.8zm0 4.6h2.8v-3.3h-2.8zm4-4.6h2.8v-3.2h-2.8zm0 4.6h2.8v-3.3h-2.8zm3.7 1.9c2.1.9 4.1 1.8 6.1 2.7l-.7 1.3c-2.2-1.1-4.2-2-6.1-2.9zm3.2-9.7h-2.8v3.2h2.8zm-2.8 7.8h2.8v-3.3h-2.8z" fill="#fafafb"/></svg>