<svg enable-background="new 0 0 400 400" viewBox="0 0 400 400" xmlns="http://www.w3.org/2000/svg"><path d="m69.32 213.31c.11-10.04 3.29-27.99 6.71-45.89 4.22-22.08 10.17-43.7 17.59-64.92.51-1.47 1.13-3.03 2.13-4.19 9.15-10.69 16.48-22.56 23.06-34.94 6.03-11.35 14.92-19.93 25.91-26.46 1.44-.85 2.39-1.09 3.86.14 33.21 27.91 69.33 51.49 107.45 72.08 1.12.6 2.17 1.36 3.33 1.86 17.22 7.43 29.39 20.79 40.89 34.91 8.73 10.73 16.34 22.16 21.71 34.98 7.38 17.61 7.09 35.71 3.53 54.03-3.17 16.29-8.7 31.83-15.15 47.07-.41.96-.95 1.92-1.63 2.69-19.87 22.66-40.52 44.57-63.38 64.25-10.71 9.22-22.98 15.93-37.19 18.3-8.38 1.4-16.54 1.21-24.5-2.63-8.09-3.91-16.42-7.37-24.78-10.69-6.68-2.65-12.56-6.3-18.06-10.94-14.82-12.51-29.81-24.83-44.91-37.01-4.88-3.93-7.12-9.42-9.81-14.61-11.28-21.77-16.76-45.03-16.76-78.03zm214.51-9.69c-4.61 5-8.84 9.61-13.11 14.18-.71.76-1.53 1.64-2.46 1.93-11.7 3.67-23.43 5.85-35.41.92-2.23-.92-3.08-2.03-3.16-4.36-.29-8.51 2.76-15.91 8-22.25 6.94-8.41 14.45-16.35 21.58-24.61 1.12-1.31 2.04-3.25 2.11-4.94.43-11.43-5.06-19.84-14.15-26.15-11.4-7.91-22.82-15.79-34.32-23.55-6.81-4.59-14.48-7.04-22.65-7.35-6.16-.23-9.4 3.08-9.69 9.3-.11 2.41.03 4.92.63 7.25 1.95 7.58 4.34 15.05 6.24 22.64 3.73 14.87 4.96 29.88 1.48 45-1.16 5.06-2.57 6.05-7.86 5.84-4.61-.18-6.49-2.07-7.46-6.63-.99-4.64-1.87-9.4-3.69-13.73-4.94-11.7-10.28-23.23-15.63-34.76-1.28-2.76-1.52-5.21-.56-8.15 3.7-11.26 7.41-22.53 10.68-33.92 2.86-9.94-1.28-16.73-10.96-19.38-3.01-.82-5.4-.72-7.49 2.03-1.59 2.09-3.56 3.95-5.6 5.63-3.75 3.11-5.42 7.12-6.92 11.7-6.54 20.01-13.61 39.85-20.39 59.79-3.98 11.69-7.02 23.59-6.05 36.1.5 6.5 2.42 11.83 8.7 15.76 15.98 10 31.28 21.09 47.26 31.1 5.27 3.3 6.21 7.13 5.33 12.38-.21 1.25-.42 2.52-.83 3.71-1.45 4.25-4.09 6.49-8.53 6.15-3.63-.28-7.28-1.24-10.75-2.42-7.61-2.58-15.03-5.72-22.67-8.2-5.51-1.79-11.28-2.6-17.24-1.81-2.44 16.22 1.57 30.51 12.58 42.2 18.66 19.82 40.61 33.51 68.88 34.47 5.47.19 10.81 1.43 13.68 7.62 1.98-7.74 2.54-15.04 1.84-22.47-.96-10.2-4.82-19.43-9.07-28.6-5.69-12.25-6.44-24.84-1.99-37.7 2.71-7.85 4.18-8.38 11.01-3.52 6.87 4.89 11.92 11.46 16.2 18.57 7.81 12.98 15.39 26.09 22.89 39.25 1.33 2.33 3.06 3.33 5.47 3.69 5.39.79 9.22-1.79 12.2-5.87 4-5.47 7.86-11.06 11.78-16.59 1.16-1.64 2.85-3.1 3.43-4.92 4.8-14.89 9.98-29.7 13.83-44.84 2.64-10.34.52-20.57-7.16-30.49z" fill="#010000"/><g fill="#fafafb"><path d="m361.2 9.6.8-1c.9.7 1.9 1.4 2.9 2.3l-.9 1.1c-1-1-2-1.8-2.8-2.4zm.5 10.6c.9-2.1 1.6-4.3 2.3-6.7.4.2.8.4 1.3.6-.7 2.1-1.5 4.3-2.2 6.6zm.4-15.2.9-.9c1 .8 2 1.6 2.8 2.4l-1 1c-.9-.9-1.8-1.7-2.7-2.5zm12.5-1.2h1.2v1.4h2.7v1.1h-2.7v2.7h-1.2v-.6h-1.8v1.3h4.9v3.8h-1.2v-.5h-3.7c0 .4-.1.9-.1 1.2h5.1v1h-5.2c0 .5-.1.9-.2 1.2h6v1h-5.2c1.1 1.3 2.9 2 5.5 2.2-.4.4-.7.8-.9 1.3-2.9-.5-4.8-1.6-5.7-3.5h-.1c-.8 1.7-2.7 2.9-5.9 3.6-.2-.4-.6-.8-.9-1.1 2.8-.6 4.6-1.4 5.4-2.5h-4.8v-1h5.3c.1-.3.2-.7.2-1.2h-4.9v-1h5c0-.4 0-.8.1-1.2h-3.5v.5h-1.2v-3.8h4.9v-1.3h-1.8v.5h-1.2v-2.7h-2.7v-1h2.6v-1.4h1.2v1.4h4.7v-1.4zm-6.6 8.3h3.6c0-.4 0-.9 0-1.4h-3.6zm1.9-4.6h4.7v-1.3h-4.7zm6.6 3.2h-3.7v1.4h3.7z"/><path d="m385.3 3.8h1.3v2.2h2.8v-2.2h1.3v2.2h4.1v9.1h1.7v1.3h-16.9v-1.3h1.7v-9.1h4.1v-2.2zm.4 13.1.7 1.2c-1.8.9-3.8 1.9-6 2.9-.2-.4-.5-.8-.8-1.3 2.3-1 4.3-1.9 6.1-2.8zm-3.1-6.4h2.8v-3.2h-2.8zm0 4.6h2.8v-3.3h-2.8zm4-4.6h2.8v-3.2h-2.8zm0 4.6h2.8v-3.3h-2.8zm3.7 1.9c2.1.9 4.1 1.8 6.1 2.7l-.7 1.3c-2.2-1.1-4.2-2-6.1-2.9zm3.2-9.7h-2.8v3.2h2.8zm-2.8 7.8h2.8v-3.3h-2.8z"/></g></svg>