<svg enable-background="new 0 0 400 400" viewBox="0 0 400 400" xmlns="http://www.w3.org/2000/svg"><path d="m269.93 366.99c-2.67-17.86-4.93-34.88-7.85-51.78-1.97-11.39-1.87-22.79-1.74-34.22.03-2.69-.84-4.63-2.57-6.49-6.1-6.55-13.88-9.75-22.51-10.58-10.32-.98-20.71-1.54-31.08-1.79-4.77-.12-9.26-.59-13.41-2.96-2.62-1.49-5.28-2.01-8.17-.96-4.77 1.72-9.49 1.06-14.37.21-7.48-1.3-15-2.81-22.59-.02-3.81 1.4-6.01 3.54-6.98 7.62-3.51 14.71-3.37 29.64-3.14 44.59.17 10.96-.18 21.85-4.02 32.3-1.91 5.2-4.5 10.02-9.24 14.15-3.49-12.21-12.3-22.33-10.41-35.92 1.55-11.12 2.65-22.31 3.56-33.5.54-6.63.29-13.33.49-19.99.08-2.53-1.26-3.89-3.37-4.82-5.48-2.42-11.17-2.16-16.86-1.16-6.25 1.1-12.41 2.8-18.69 3.59-9.22 1.15-16.47-2.21-20.89-9.18 5.19-1.02 10.24-2.04 15.29-3.01 13.83-2.64 27.67-5.25 41.51-7.9 5.23-1 8.41-4.29 8.61-9.76.16-4.31-.18-8.7-.83-12.97-.94-6.16-.5-11.89 2.5-17.53 1.03-1.93 1.33-4.76.83-6.91-3.5-15.15-1.93-30.36-.95-45.57.53-8.15.97-16.3 1.59-24.44.15-1.96-.44-2.89-2.3-3.39-11.24-2.98-22.47-6.03-33.71-9.05-10.77-2.89-17.47-10.92-18.35-22.13 4.21-.22 8.08-.22 12.14 2.08 7.02 3.99 15.15 4.62 23.06 5.26 5.89.47 11.84.15 17.75.28 2.13.05 3.18-.98 4.1-2.77 4.26-8.26 6.26-17.05 6.38-26.3.15-11.27 1.11-22.43 4.33-33.3.3-1.01.6-2.01.94-3.13 5.41 1.08 8.61 4.52 10.48 9.3 2.39 6.14 2.52 12.59 2.47 19.09-.09 10.8.08 21.61.01 32.42-.01 2.34 1.03 3.15 3.06 3.97 22.09 8.95 45.51 12.27 68.72 16.53 10.62 1.95 21.26 3.82 31.86 5.92 2 .4 2.86-.23 3.77-1.75 4.58-7.59 6.09-15.99 6.4-24.64.28-7.83-.11-15.7.33-23.52.49-8.72 2.67-17.09 6.97-25.23.63 1.05 1.08 1.79 1.6 2.66 1.18-.97 2.22-1.82 3.43-2.81 4.22 6.23 6.58 12.97 7.5 20.15 1.23 9.56 2.43 19.15 3 28.76.22 3.77-1.21 7.66-2.06 11.45-.37 1.63-1.31 3.13-1.77 4.75-1.24 4.42.89 8.58 5.14 10.24 9.33 3.65 19.16 4.24 29.02 4.75 3.98.21 8.11.44 11.86 1.63 6.15 1.96 9.22 9.42 6.84 15.41-.28.69-1.3 1.31-2.1 1.54-6.1 1.77-12.16 3.78-18.38 4.97-2.95.57-6.24-.36-9.33-.87-2.28-.38-4.49-1.24-6.74-1.8-10.81-2.69-18.39 3.03-18.34 14.18.01 3.76.78 7.59 1.72 11.26 3.13 12.19 1.64 24.46.91 36.7-.78 13.14-1.62 26.23.6 39.33.39 2.29 1.38 3.08 3.45 3.63 10.23 2.71 20.43 5.52 30.6 8.43 1.91.54 3.75 1.49 5.44 2.56 6.13 3.87 8.12 9.89 5.88 17.66-6.26.69-12.32-.94-18.42-2.15-6.43-1.27-12.87-2.49-19.31-3.72-.52-.1-1.06-.09-1.58-.09-6.52-.06-7.01.48-6.51 6.86.72 9.2.65 18.28-.69 27.53-.95 6.55.58 13.46 1.1 20.21.31 4.01.75 8.02 1.23 12.02.96 8.02-1.91 14.38-8.41 19.01-2.61 1.86-5.59 3.26-8.8 5.11zm-8.34-168.71c0-14.1 0-28.2 0-42.29 0-5.63-2.49-9.12-8.07-10.41-6.58-1.52-13.23-2.79-19.9-3.89-10.42-1.71-20.96-2.45-31.17-5.66-16.04-5.05-32.77-5.11-49.4-5.41-1.05-.02-2.8 1.25-3.1 2.25-2.01 6.78-4.2 13.56-5.44 20.5-5.03 28.22-4.72 56.74-4.23 85.25.03 1.92.83 2.75 2.52 2.91 3.68.35 7.41 1.12 11.04.78 6.51-.62 12.95-2 19.44-2.94 7.92-1.15 15.42-.5 21.82 5.13.72.64 2.39.66 3.46.38 11.3-2.92 22.48-3.83 33.53 1.08 2.41 1.07 4.94 1.88 7.39 2.88 7.11 2.91 13.64 1.69 19.84-2.58 1.63-1.12 2.34-2.33 2.33-4.41-.11-14.53-.06-29.05-.06-43.57z" fill="#010000"/><g fill="#fafafb"><path d="m361.2 9.6.8-1c.9.7 1.9 1.4 2.9 2.3l-.9 1.1c-1-1-2-1.8-2.8-2.4zm.5 10.6c.9-2.1 1.6-4.3 2.3-6.7.4.2.8.4 1.3.6-.7 2.1-1.5 4.3-2.2 6.6zm.4-15.2.9-.9c1 .8 2 1.6 2.8 2.4l-1 1c-.9-.9-1.8-1.7-2.7-2.5zm12.5-1.2h1.2v1.4h2.7v1.1h-2.7v2.7h-1.2v-.6h-1.8v1.3h4.9v3.8h-1.2v-.5h-3.7c0 .4-.1.9-.1 1.2h5.1v1h-5.2c0 .5-.1.9-.2 1.2h6v1h-5.2c1.1 1.3 2.9 2 5.5 2.2-.4.4-.7.8-.9 1.3-2.9-.5-4.8-1.6-5.7-3.5h-.1c-.8 1.7-2.7 2.9-5.9 3.6-.2-.4-.6-.8-.9-1.1 2.8-.6 4.6-1.4 5.4-2.5h-4.8v-1h5.3c.1-.3.2-.7.2-1.2h-4.9v-1h5c0-.4 0-.8.1-1.2h-3.5v.5h-1.2v-3.8h4.9v-1.3h-1.8v.5h-1.2v-2.7h-2.7v-1h2.6v-1.4h1.2v1.4h4.7v-1.4zm-6.6 8.3h3.6c0-.4 0-.9 0-1.4h-3.6zm1.9-4.6h4.7v-1.3h-4.7zm6.6 3.2h-3.7v1.4h3.7z"/><path d="m385.3 3.8h1.3v2.2h2.8v-2.2h1.3v2.2h4.1v9.1h1.7v1.3h-16.9v-1.3h1.7v-9.1h4.1v-2.2zm.4 13.1.7 1.2c-1.8.9-3.8 1.9-6 2.9-.2-.4-.5-.8-.8-1.3 2.3-1 4.3-1.9 6.1-2.8zm-3.1-6.4h2.8v-3.2h-2.8zm0 4.6h2.8v-3.3h-2.8zm4-4.6h2.8v-3.2h-2.8zm0 4.6h2.8v-3.3h-2.8zm3.7 1.9c2.1.9 4.1 1.8 6.1 2.7l-.7 1.3c-2.2-1.1-4.2-2-6.1-2.9zm3.2-9.7h-2.8v3.2h2.8zm-2.8 7.8h2.8v-3.3h-2.8z"/></g></svg>