<svg enable-background="new 0 0 400 400" viewBox="0 0 400 400" xmlns="http://www.w3.org/2000/svg"><path d="m92.13 351.84c5.31-2.82 10.8-3.28 16.49-3.29 3.86-.01 7.82-.39 11.55-1.34 5.31-1.35 8.08-5.37 8.39-10.72.3-5.17.09-10.38.09-15.57 0-17.18-.05-34.36.06-51.54.02-2.38-.73-3.57-2.89-4.51-5.82-2.53-11.9-2.67-18.07-2.61-4.11.04-8.27.09-12.33-.44-4.23-.56-7.71-2.77-10.2-7.42 3.58-1.14 6.86-2.51 10.29-3.2 7.52-1.5 15.1-1.83 22.74-.4 6.05 1.13 9.42-2.1 9.67-8.33.27-6.87 1.3-13.71 1.33-20.57.06-13.98-.29-27.96-.66-41.94-.02-.91-1.51-2.17-2.58-2.59-6.82-2.66-14.01-3.04-21.23-3.33-4.53-.18-9.08-.54-13.55-1.27-1.85-.3-3.81-1.48-5.18-2.82-3.02-2.93-2.27-5.93 1.32-7.96 2.92-1.66 5.9-1.92 9.16-1.72 8.23.5 16.47.81 24.7 1.12.92.04 1.86-.36 2.79-.56 3.3-.68 4.7-2.38 4.94-6.08 1.02-15.75-1.1-31.34-1.98-46.99-.36-6.35-.82-12.7-1.45-19.02-.21-2.15-.81-4.37-1.7-6.34-3.86-8.48-8.14-16.77-11.77-25.34-1.75-4.12-4.63-5.78-8.6-6.4-2.2-.34-4.43-.5-6.61-.92-3.2-.62-5.79-2.05-6.41-5.75 7.12-4.51 14.95-6.09 23.24-6.51 5.79-.29 11.53-1.75 17.33-1.97 8.32-.32 16.7-.37 25.01.15 14.33.89 28.28 3.99 42 8.21 2.53.78 5.45.6 8.16.4 7.89-.57 15.56.36 23.26 2.18 14.73 3.48 29.57 6.54 44.37 9.76 7.8 1.7 15.59.94 23.4-.01 5.56-.68 10.39.93 14.64 5.87-6.97-1.11-13.26-2.12-20-3.19v12.49c-8.33-.48-16.24-.82-24.13-1.46-2.44-.2-3.81.26-4.96 2.59-5.62 11.39-12.09 22.42-16.97 34.11-3.64 8.71-8.61 16.18-14.63 23.2-4.74 5.53-7.24 12.06-8.54 19.2-.58 3.16-2.02 6.17-3.1 9.23-.28.79-.76 1.52-1 2.33-1.2 4.07-.54 5.76 3.49 6.83 4.48 1.2 9.1 1.87 13.67 2.71 4.39.8 7.21 3.3 8.02 7.1.34 1.59-.04 2.52-1.64 3.19-4.88 2.02-9.74.93-14.7.46-3.58-.34-7.3.21-10.86.89-1.05.2-2.33 2.12-2.54 3.4-3.47 21.72-4.64 43.62-4.94 65.58-.02 1.21.82 3.01 1.81 3.56 3.48 1.95 7.1 3.76 10.85 5.11 6.61 2.37 9.2 3.81 12.01 7.89-5.05.71-9.91 1.38-14.76 2.08-5.93.85-8.25 3.19-8.24 9.31 0 8.05.28 16.11.73 24.15.7 12.38 1.73 24.75 2.43 37.13.15 2.73 1.06 4.23 3.69 5.03 4.15 1.27 8.25 2.71 12.3 4.25 3.7 1.41 6.21 3.95 6.78 8.58-11.03 2.44-22.09 4.88-33.16 7.33.04.21.09.43.13.64-.19-.08-.49-.11-.55-.24-1.81-4.31-5.48-4.65-9.55-5.06-18.55-1.9-37.05.02-55.55.56-4.55.13-8.45-.96-12.49-2.67-2.11-.89-4.63-1.1-6.97-1.14-6.14-.1-12.29.29-18.41.04-4.55-.16-6.6-1.85-7.94-5.44zm33.33-298.54c1.93 3.13 3.56 6.12 5.5 8.89 5.72 8.17 9.63 17.06 11.64 26.85 1.27 6.2 3.72 12.25 4.3 18.49 1.53 16.56 2.39 33.18 3.38 49.79.15 2.52 1.21 3.62 3.49 3.95 5.55.81 11.08 2.01 16.66 2.33 8.01.47 16.05.37 24.08.37 2.88 0 4.73-1.47 5.89-4.35 2.68-6.68 5.77-13.19 8.57-19.81.6-1.41.59-3.07 1.02-4.57.5-1.76.76-3.78 1.82-5.14 10.5-13.35 20.21-27.18 27.38-42.66.39-.85.9-1.79 1.62-2.3 4.6-3.23 6.93-8.19 9.82-12.72 2.34-3.67 1.75-6.22-2.15-8.37-1.72-.95-3.71-1.64-5.66-1.93-7.85-1.18-15.75-2.09-23.61-3.23-12.55-1.82-25.32-2.46-37.37-6.96-5.43-2.03-11.04-2.65-16.81-2.61-8.58.06-17.19.23-25.73-.42-5.35-.41-9.31 1.91-13.84 4.4zm43.18 295.05c8.57-.48 16.99-.91 25-4.29 2.62-1.11 4.16-2.52 3.65-5.69-.38-2.39-.11-4.87-.32-7.3-1.22-14.25-2.62-28.48-3.7-42.74-.35-4.62.31-9.31.09-13.95-.35-7.32-4.49-10.91-11.79-10.63-1.16.05-2.31.26-3.45.49-5.85 1.19-11.66 1.83-17.6.36-3.79-.94-7.71-1.36-11.58-1.96-2.78-.43-5.18 1.1-5.65 3.77-3.33 18.75-7.55 37.41-5.25 56.72.47 3.95.08 8.02.03 12.03-.09 7.26 1.51 9.61 8.54 10.7 7.28 1.12 14.67 1.68 22.03 2.49zm21.62-96.04c0-5.08-.77-9.22.13-12.96 4.49-18.61 4.06-37.55 4.4-56.45.07-4.01-2.52-6.07-6.46-5.61-3.22.38-6.52 1-9.69.67-7.47-.77-14.89-2-22.31-3.16-1.91-.3-3.07.17-3.54 2.08-1.09 4.41-2.48 8.77-3.21 13.23-2.95 18.06-3.31 36.23-1.91 54.47.16 2.05.86 3.1 2.82 3.44 8.11 1.42 16.19 3.18 24.35 4.16 5.27.64 10.67.13 15.42.13z" fill="#010000"/><g fill="#fafafb"><path d="m361.2 9.6.8-1c.9.7 1.9 1.4 2.9 2.3l-.9 1.1c-1-1-2-1.8-2.8-2.4zm.5 10.6c.9-2.1 1.6-4.3 2.3-6.7.4.2.8.4 1.3.6-.7 2.1-1.5 4.3-2.2 6.6zm.4-15.2.9-.9c1 .8 2 1.6 2.8 2.4l-1 1c-.9-.9-1.8-1.7-2.7-2.5zm12.5-1.2h1.2v1.4h2.7v1.1h-2.7v2.7h-1.2v-.6h-1.8v1.3h4.9v3.8h-1.2v-.5h-3.7c0 .4-.1.9-.1 1.2h5.1v1h-5.2c0 .5-.1.9-.2 1.2h6v1h-5.2c1.1 1.3 2.9 2 5.5 2.2-.4.4-.7.8-.9 1.3-2.9-.5-4.8-1.6-5.7-3.5h-.1c-.8 1.7-2.7 2.9-5.9 3.6-.2-.4-.6-.8-.9-1.1 2.8-.6 4.6-1.4 5.4-2.5h-4.8v-1h5.3c.1-.3.2-.7.2-1.2h-4.9v-1h5c0-.4 0-.8.1-1.2h-3.5v.5h-1.2v-3.8h4.9v-1.3h-1.8v.5h-1.2v-2.7h-2.7v-1h2.6v-1.4h1.2v1.4h4.7v-1.4zm-6.6 8.3h3.6c0-.4 0-.9 0-1.4h-3.6zm1.9-4.6h4.7v-1.3h-4.7zm6.6 3.2h-3.7v1.4h3.7z"/><path d="m385.3 3.8h1.3v2.2h2.8v-2.2h1.3v2.2h4.1v9.1h1.7v1.3h-16.9v-1.3h1.7v-9.1h4.1v-2.2zm.4 13.1.7 1.2c-1.8.9-3.8 1.9-6 2.9-.2-.4-.5-.8-.8-1.3 2.3-1 4.3-1.9 6.1-2.8zm-3.1-6.4h2.8v-3.2h-2.8zm0 4.6h2.8v-3.3h-2.8zm4-4.6h2.8v-3.2h-2.8zm0 4.6h2.8v-3.3h-2.8zm3.7 1.9c2.1.9 4.1 1.8 6.1 2.7l-.7 1.3c-2.2-1.1-4.2-2-6.1-2.9zm3.2-9.7h-2.8v3.2h2.8zm-2.8 7.8h2.8v-3.3h-2.8z"/></g></svg>