<svg enable-background="new 0 0 400 400" viewBox="0 0 400 400" xmlns="http://www.w3.org/2000/svg"><path d="m253.73 309.2c0-2.39-.68-4.83.18-6.49.98-1.9 3.15-3.42 5.13-4.51 1.37-.76 3.29-.64 4.98-.73 4.09-.21 6.83-4.55 4.41-7.89-3.09-4.27-1.35-8.45.97-11.1 4.83-5.53 4.34-11.36 3.29-17.62-.39-2.31.03-5.13-3.63-5.32-3.35 3.61-1.6 10.19-7.38 12.97-.67-3.17-1.52-6.09-1.86-9.07-.41-3.53-2.57-4.86-5.64-5.42-3.92-.72-5.33-3.61-2.94-6.75 5.12-6.76 6.79-14.58 6.92-22.71.1-6.54-.86-13.09-.98-19.64-.15-8.04-.08-16.08.16-24.12.77-25.75 1.7-51.49 2.46-77.23.06-1.95-.37-4.06-1.12-5.87-4.49-10.93-4.5-22.22-3.34-33.72.45-4.49.15-9.08-.15-13.6-.31-4.73.22-6.06 4.71-8.51 3.17 4.66 4.39 9.93 4.73 15.43.33 5.29.24 10.61.78 15.87.31 3.07 1.41 6.07 2.3 9.05 1.1 3.71 2.3 7.39 3.57 11.05.47 1.36 1.01 2.8 1.91 3.89 8.02 9.74 16.12 19.41 24.19 29.1 1.14 1.37 2.27 2.75 4 4.85-3.18-1.19-5.53-2.08-7.88-2.94-1.49-.54-2.96-1.23-4.5-1.53-4.23-.8-8.59-1.17-11.63-5.12-2.48 4.44-3.36 8.85-2.82 13.27 2.23 18.22-1.19 36.15-2.51 54.18-.98 13.31-2.41 26.59-3.47 39.9-.11 1.32.62 3.09 1.57 4.06 3.77 3.85 7.77 7.47 11.91 11.38 3.2-5.03 4.92-10.41 3.28-15.8-3.15-10.32-3.02-20.9-3.8-31.43-.17-2.23.78-3.63 2.8-4.43 1.93-.77 3.02.1 4.19 1.63 7.74 10.06 10.24 21.86 11.86 34.05 1.75 13.13-2.17 25.41-5.32 37.8-.74 2.91-.78 5.51.34 8.29 2.66 6.62 4.44 13.45 4.46 20.66 0 1.03.2 2.19.69 3.07 5.18 9.18 6.71 19.33 7.87 29.55 1.36 11.94 1.87 23.9-1.27 35.69-.28 1.07-1.18 1.98-1.79 2.96-.72-.98-1.82-1.86-2.11-2.96-4.55-17.19-9.21-34.36-13.32-51.65-1.26-5.29-.94-10.95-1.32-16.45-.17-2.39-.33-4.88-3.17-5.61-2.95-.76-5.76-.79-8.13 1.86-3.89 4.34-7.88 8.6-12.05 12.66-3.01 2.93-6.64 4.91-11.53 5z" fill="#010000"/><path d="m178.2 46.43c-2.24 9.01-4.48 18.01-6.72 27.02-2.4 9.66-5.14 19.25-7.13 28.99-2.42 11.86-1.67 23.84.07 35.75.78 5.35 1.85 10.66 2.44 16.02.9 8.24 3.67 15.82 7.33 23.16.55 1.1 1.31 2.6.96 3.54-1.31 3.6.45 6.34 1.95 9.23 5.98 11.56 11.99 23.11 15.01 36.81-1.35-.71-2.49-1.01-3.2-1.74-2.89-2.96-5.66-6.03-8.42-9.11-.54-.6-1.15-1.4-1.21-2.15-.49-5.87-4.22-10.02-7.43-14.47-1.49-2.06-3.2-4-4.42-6.21-.96-1.75-1.37-3.81-1.95-5.76-.3-.99-.18-2.2-.71-3.02-7.56-11.77-9.72-25.4-13.32-38.52-.7-2.54-1.37-5.08-2.19-8.14-1.93 2.32-3.61 4.31-5.27 6.33-9.37 11.38-18.6 22.87-28.16 34.08-4.1 4.81-6.06 10.08-5.92 16.27.11 5.06-1.23 9.25-6.52 11.13-.08.03-.2-.04-.41-.08-1.65-3.54-2.41-7.09.72-10.58-7.28-4.11-8.9-10.86-9.77-17.95-2.24-18.3-4.46-36.61-6.59-54.92-.19-1.64.13-3.39.47-5.04 1.75-8.67.23-17.3-.09-25.96-.18-4.96-.2-9.97.24-14.9.33-3.69.89-7.07-.9-10.74-.92-1.87.12-4.74.36-7.14.29-2.85.65-5.69 1.04-8.52.25-1.82-.41-4.2 2.72-4.43.36-.03.81-1.78.86-2.75.12-2.4.04-4.81.04-7.24 4.81.32 6.81 2.54 7.01 7.19.14 3.16.18 6.36.74 9.45.24 1.35 1.46 2.77 2.61 3.67 2.32 1.83 4.82 3.49 7.39 4.94 15.66 8.86 27.23 22.46 40.14 34.5.77.72 1.54 1.43 3.02 2.81 2.79-7.58 5.38-14.68 8.01-21.77 2.5-6.72 4.58-13.65 7.75-20.05 1.94-3.9 5.58-6.96 8.46-10.39.34.24.66.47.99.69zm-72.47 21.57c-.37.13-.75.26-1.12.39-.69 5.63-1.79 11.26-1.95 16.9-.18 6.53 1.04 13.12.68 19.63-1.14 20.26 1.18 40.15 5.33 60.08 3.36.41 6.36-.46 8.31-3.28 6.1-8.82 14.51-15.39 21.86-22.99 1.3-1.35 2.51-2.88 3.36-4.54 3.04-5.91 5.92-11.91 8.84-17.89 1.18-2.41-.93-9.74-3.3-11.01-6.92-3.68-12.76-8.59-17.75-14.63-3.03-3.67-6.22-7.27-9.72-10.49-4.65-4.26-9.68-8.12-14.54-12.17z" fill="#010000"/><g fill="#fafafb"><path d="m361.2 9.6.8-1c.9.7 1.9 1.4 2.9 2.3l-.9 1.1c-1-1-2-1.8-2.8-2.4zm.5 10.6c.9-2.1 1.6-4.3 2.3-6.7.4.2.8.4 1.3.6-.7 2.1-1.5 4.3-2.2 6.6zm.4-15.2.9-.9c1 .8 2 1.6 2.8 2.4l-1 1c-.9-.9-1.8-1.7-2.7-2.5zm12.5-1.2h1.2v1.4h2.7v1.1h-2.7v2.7h-1.2v-.6h-1.8v1.3h4.9v3.8h-1.2v-.5h-3.7c0 .4-.1.9-.1 1.2h5.1v1h-5.2c0 .5-.1.9-.2 1.2h6v1h-5.2c1.1 1.3 2.9 2 5.5 2.2-.4.4-.7.8-.9 1.3-2.9-.5-4.8-1.6-5.7-3.5h-.1c-.8 1.7-2.7 2.9-5.9 3.6-.2-.4-.6-.8-.9-1.1 2.8-.6 4.6-1.4 5.4-2.5h-4.8v-1h5.3c.1-.3.2-.7.2-1.2h-4.9v-1h5c0-.4 0-.8.1-1.2h-3.5v.5h-1.2v-3.8h4.9v-1.3h-1.8v.5h-1.2v-2.7h-2.7v-1h2.6v-1.4h1.2v1.4h4.7v-1.4zm-6.6 8.3h3.6c0-.4 0-.9 0-1.4h-3.6zm1.9-4.6h4.7v-1.3h-4.7zm6.6 3.2h-3.7v1.4h3.7z"/><path d="m385.3 3.8h1.3v2.2h2.8v-2.2h1.3v2.2h4.1v9.1h1.7v1.3h-16.9v-1.3h1.7v-9.1h4.1v-2.2zm.4 13.1.7 1.2c-1.8.9-3.8 1.9-6 2.9-.2-.4-.5-.8-.8-1.3 2.3-1 4.3-1.9 6.1-2.8zm-3.1-6.4h2.8v-3.2h-2.8zm0 4.6h2.8v-3.3h-2.8zm4-4.6h2.8v-3.2h-2.8zm0 4.6h2.8v-3.3h-2.8zm3.7 1.9c2.1.9 4.1 1.8 6.1 2.7l-.7 1.3c-2.2-1.1-4.2-2-6.1-2.9zm3.2-9.7h-2.8v3.2h2.8zm-2.8 7.8h2.8v-3.3h-2.8z"/></g></svg>