<svg enable-background="new 0 0 400 400" viewBox="0 0 400 400" xmlns="http://www.w3.org/2000/svg"><path d="m170.12 267.26c-1.2 9.9-2.46 19.13-3.34 28.39-.3 3.11.41 6.32.59 9.49.22 3.93-.72 5.32-4.87 7.04-3.36-11.35-7.42-22.49-7.19-34.57.05-2.65.23-5.33-.1-7.94-.25-1.97-1.22-3.86-1.87-5.78-.43-.11-.86-.22-1.29-.33-6.24 7.53-12.55 15-18.67 22.61-1.9 2.37-6.8 4.26-9.3 2.79-.57-.34-.86-2.65-.45-2.96 8.77-6.72 12.62-16.85 18.24-25.77 3.04-4.82 6.7-9.25 9.9-13.98.81-1.2 1.39-2.86 1.35-4.29-.22-7.73-.65-15.46-1.09-23.19-.05-.92-.5-2.47-1.04-2.6-5.89-1.41-11.43-4.83-17.85-3.34-.72.17-1.45.33-2.17.5-5.46 1.32-7.71.29-10.57-4.99 4.64-3.37 10.06-3.32 15.42-3.62 2.53-.14 5.05-.42 7.57-.74 1.97-.25 2.79-1.45 3-3.45.39-3.68 1.22-7.33 1.5-11.02.21-2.68.37-5.58-.39-8.09-3.46-11.47-4.23-23.36-5.35-35.12-.71-7.41-2.59-13.21-9.67-16.51-2.98-1.39-4.46-3.94-5.23-7.11-1.8-7.41-5.32-14-9.85-20.12-3.3-4.45-5.22-9.37-4.08-15.45 3.42 1.03 6.67 1.88 9.8 3.02.81.3 1.48 1.42 1.88 2.32 2.61 5.79 4.98 11.69 7.75 17.41 1.32 2.72 3.11 5.3 5.11 7.58 1.14 1.3 3.11 1.88 5.26 3.1.2-3.94.65-7.09.46-10.21-.74-11.98 2.83-22.94 7.17-33.86 3.14-7.9 7.13-14.97 13.53-20.76 3.74-3.39 6.65-7.68 10.11-11.41 2.44-2.63 5.14-5 7.78-7.44 2.32-2.14 4.77-1.96 6.52.5 2.8 3.92 6.13 7.79 7.65 12.23 2.65 7.77 4.1 15.95 6.06 23.95.3 1.23.6 2.47 1.06 3.64 2.61 6.7 5.26 13.38 7.91 20.07 1.51 3.82.65 7.74-1.93 8.68-2.72 1-6.39-1.04-7.29-5-1.39-6.16-4.9-11.17-7.64-16.64-1.96-3.93-2.87-8.39-4.14-12.65-1.43-4.76-2.72-9.57-4.12-14.34-.32-1.11-.71-2.25-1.31-3.22-1.69-2.74-3.35-2.88-5.36-.45-6.9 8.38-12.59 17.52-17.31 27.31-2.81 5.82-2.82 12.1-3.75 18.25-.82 5.39-.32 11-3.01 16.12-.7 1.32-.27 3.35-.05 5.01.61 4.7.34 9.28-1.15 13.8-.28.84-.39 2.02-.01 2.76 2 3.96 1.04 8.04.87 12.14-.12 2.78.3 5.59.64 8.37.53 4.34 1.2 8.67 1.81 13.01-.35.13-.7.25-1.05.38 1.46.96 2.92 1.92 4.38 2.89 11.31-12.97 19.63-28.47 35.44-37.73.11 3.58-.69 5.84-2.35 8.26-4.91 7.14-9.47 14.53-13.93 21.96-2.22 3.7-4.88 6.76-8.38 9.34-2 1.47-3.93 3.71-4.75 6.01-2.15 6.05-3.64 12.33-5.46 18.49-.59 1.99.4 2.77 2.02 3.59 6.82 3.49 14.06 3.78 21.4 2.77 5.45-.75 10.82-2.52 16.27-2.72 7.27-.26 14.35-1.11 21.45-2.6 2.47-.52 5.26.69 7.87.56 2.79-.14 5.75-.47 8.27-1.55 3.79-1.62 4.34-3.85 2.23-7.43-3.97-6.76-6.56-13.99-7.75-21.7-.32-2.08-.59-4.3-.21-6.32.46-2.4-.23-3.76-2.24-4.88-1.94-1.08-3.77-2.36-5.64-3.57-3.01-1.94-4.38-4.74-4.45-8.85 5.43-1.17 10.88-2.36 16.33-3.5.48-.1 1.11-.03 1.52.22 6.43 3.9 13.35 3.35 20.38 2.49 5.25-.65 9.34 1.81 10.9 6.27.25.71.15 2.11-.31 2.43-4.57 3.12-5.03 8-5.84 12.81-1.47 8.77-3.09 17.52-4.63 26.29-.14.81-.13 1.65-.21 2.69 7.79 1.71 15.45 3.38 23.19 5.07-.95 4.01-2.45 5.95-6.01 6.46-5.33.77-10.57 2.21-15.87 3.22-1.91.36-2.75 1.28-2.66 3.17.42 8.51 1.54 16.73 6.21 24.26 3.1 5 5.26 10.6 7.73 15.97.52 1.13.91 2.47.83 3.69-.22 3.41-.52 6.67 3.15 8.73.55.31.51 1.74.65 2.67.87 6.07 1.28 12.25 2.67 18.2 2.23 9.53-.11 18.57-2.33 27.56-1.58 6.42-4.34 12.54-6.43 18.84-.69 2.08-.79 4.36-1.41 6.47-1.06 3.59-1.82 7.4-3.6 10.61-2.71 4.87-6.2 9.32-9.35 13.94-.35-.02-.69-.03-1.04-.05-.15-2.83-.94-5.8-.32-8.44 1.4-5.92 3.61-11.64 5.27-17.51 1.15-4.06 2.06-8.2 2.82-12.35 1.81-9.89 3.79-19.77 5.09-29.74 1.48-11.32-.15-22.42-4.61-32.96-2.84-6.72-5.77-13.47-9.37-19.8-5.35-9.41-6.5-19.84-8.27-30.12-.51-2.95-2.14-3.96-4.52-4.42-1.43-.27-2.97-.23-4.43-.06-16.41 1.83-32.8 3.9-49.23 5.47-5.76.55-11.65.07-17.46-.25-2.02-.11-3.06.49-3.53 2.23-2.46 9.17-3.34 18.27.72 27.32 4.08 9.1 11.09 15.97 17.45 23.3 5.56 6.4 11.74 12.25 17.48 18.49 4.04 4.39 7.5 9.2 8.78 16.05-2.21-.72-4.25-.96-5.79-1.98-3.6-2.38-7.34-4.75-10.32-7.81-7.62-7.82-14.85-16.02-22.24-24.06-.46-.51-1.01-.97-2.01-1.91zm77.03-86.83c.43-.02.86-.04 1.29-.05 1.98-3.35 3.79-6.81 5.98-10.01 2.08-3.02 1.57-6.03.53-9.06-.78-2.27-2.79-3.45-5.03-2.66-2.44.85-6.77.03-6.11 4.61.83 5.76 2.2 11.45 3.34 17.17z" fill="#010000"/><g fill="#fafafb"><path d="m361.2 9.6.8-1c.9.7 1.9 1.4 2.9 2.3l-.9 1.1c-1-1-2-1.8-2.8-2.4zm.5 10.6c.9-2.1 1.6-4.3 2.3-6.7.4.2.8.4 1.3.6-.7 2.1-1.5 4.3-2.2 6.6zm.4-15.2.9-.9c1 .8 2 1.6 2.8 2.4l-1 1c-.9-.9-1.8-1.7-2.7-2.5zm12.5-1.2h1.2v1.4h2.7v1.1h-2.7v2.7h-1.2v-.6h-1.8v1.3h4.9v3.8h-1.2v-.5h-3.7c0 .4-.1.9-.1 1.2h5.1v1h-5.2c0 .5-.1.9-.2 1.2h6v1h-5.2c1.1 1.3 2.9 2 5.5 2.2-.4.4-.7.8-.9 1.3-2.9-.5-4.8-1.6-5.7-3.5h-.1c-.8 1.7-2.7 2.9-5.9 3.6-.2-.4-.6-.8-.9-1.1 2.8-.6 4.6-1.4 5.4-2.5h-4.8v-1h5.3c.1-.3.2-.7.2-1.2h-4.9v-1h5c0-.4 0-.8.1-1.2h-3.5v.5h-1.2v-3.8h4.9v-1.3h-1.8v.5h-1.2v-2.7h-2.7v-1h2.6v-1.4h1.2v1.4h4.7v-1.4zm-6.6 8.3h3.6c0-.4 0-.9 0-1.4h-3.6zm1.9-4.6h4.7v-1.3h-4.7zm6.6 3.2h-3.7v1.4h3.7z"/><path d="m385.3 3.8h1.3v2.2h2.8v-2.2h1.3v2.2h4.1v9.1h1.7v1.3h-16.9v-1.3h1.7v-9.1h4.1v-2.2zm.4 13.1.7 1.2c-1.8.9-3.8 1.9-6 2.9-.2-.4-.5-.8-.8-1.3 2.3-1 4.3-1.9 6.1-2.8zm-3.1-6.4h2.8v-3.2h-2.8zm0 4.6h2.8v-3.3h-2.8zm4-4.6h2.8v-3.2h-2.8zm0 4.6h2.8v-3.3h-2.8zm3.7 1.9c2.1.9 4.1 1.8 6.1 2.7l-.7 1.3c-2.2-1.1-4.2-2-6.1-2.9zm3.2-9.7h-2.8v3.2h2.8zm-2.8 7.8h2.8v-3.3h-2.8z"/></g></svg>