<svg enable-background="new 0 0 400 400" viewBox="0 0 400 400" xmlns="http://www.w3.org/2000/svg"><path d="m378.6 9.2.8-1c.9.7 1.9 1.4 2.9 2.3l-.9 1.1c-1.1-.9-2-1.7-2.8-2.4zm.5 10.7c.9-2.1 1.6-4.3 2.3-6.7.4.2.8.4 1.3.6-.7 2.1-1.5 4.3-2.2 6.6zm.4-15.2.9-.9c1 .8 2 1.6 2.8 2.4l-1 1c-1-.9-1.9-1.8-2.7-2.5zm12.5-1.3h1.2v1.4h2.7v1.1h-2.7v2.7h-1.2v-.5h-1.8v1.3h4.9v3.8h-1.2v-.5h-3.7c0 .4-.1.9-.1 1.2h5.1v1h-5.2c0 .5-.1.9-.2 1.2h6v1h-5.2c1.1 1.3 2.9 2 5.5 2.2-.4.4-.7.8-.9 1.3-2.9-.5-4.8-1.6-5.7-3.5h-.1c-.8 1.7-2.7 2.9-5.9 3.6-.2-.4-.6-.8-.9-1.1 2.8-.6 4.6-1.4 5.4-2.5h-4.8v-1h5.3c.1-.3.2-.7.2-1.2h-4.9v-1h5c0-.4 0-.8.1-1.2h-3.6v.5h-1.2v-3.8h4.9v-1.3h-1.8v.5h-1.2v-2.7h-2.6v-1.1h2.6v-1.4h1.2v1.4h4.7v-1.4zm-6.7 8.4h3.6c0-.4 0-.9 0-1.4h-3.6zm1.9-4.7h4.7v-1.2h-4.7zm6.7 3.3h-3.7v1.4h3.7z" fill="#fafbfc"/><path d="m384.7 21.4h1.3v2.2h2.8v-2.2h1.3v2.2h4.1v9.1h1.7v1.3h-16.9v-1.3h1.7v-9.1h4.1v-2.2zm.3 13.2.7 1.2c-1.8.9-3.8 1.9-6 2.9-.2-.4-.5-.8-.8-1.3 2.4-1 4.4-2 6.1-2.8zm-3.1-6.5h2.8v-3.2h-2.8zm0 4.6h2.8v-3.3h-2.8zm4.1-4.6h2.8v-3.2h-2.8zm0 4.6h2.8v-3.3h-2.8zm3.6 1.9c2.1.9 4.1 1.8 6.1 2.7l-.7 1.3c-2.2-1.1-4.2-2-6.1-2.9zm3.3-9.7h-2.8v3.2h2.8zm-2.8 7.8h2.8v-3.3h-2.8z" fill="#fafbfc"/><g fill="#010104"><path d="m318.86 303.32c-6.88 8.51-13.49 17.05-20.51 25.25-4.64 5.42-10.49 9.17-17.86 10.07-2.65.32-4.22-.35-5.47-2.92-6.44-13.15-7.77-26.96-5.73-41.23 1.86-13.03 4.83-25.82 9.68-38.09.86-2.18 2.31-4.25 3.88-6.01 7.03-7.84 12.9-16.39 15.06-26.83.88-4.26.4-8.82.4-13.24 0-.87-.48-1.88-1.05-2.59-5.62-7.04-11.2-14.12-17.02-21-3.21-3.8-6.92-7.15-11.98-9.1-2.2 3.69-4.28 7.35-6.53 10.89-5.4 8.49-10.66 17.08-16.43 25.31-3.57 5.08-8.32 9.09-14.79 10.25-1.21.22-2.47.14-4.13.22.46-3.83.17-7.34 2.76-10.36 3.54-4.13 4.49-8.9 2.06-13.91-1.88-3.89-3.66-7.99-6.32-11.32-9.34-11.7-11-24.8-8.39-39.03 2.86-15.58 8-30.23 16.1-43.89 4.85-8.18 9.25-16.63 14.17-25.53-2.98-.25-5.5-.84-7.93-.61-12.95 1.25-25.89 2.7-38.83 4.12-.7.08-1.5.39-2 .86-4.26 4.09-9.16 2.99-14.07 1.84-.4-.1-.88-.22-1.15-.5-4.63-4.89-9.24-9.81-14.26-15.16 7.76-1.48 14.9-2.86 22.04-4.19 22.07-4.13 44.1-8.52 66.24-12.22 10.42-1.74 21.07-2.16 31.61-3.12 11.19-1.02 22.37-2.12 33.58-2.89 4.83-.33 9.72-.05 14.57.19 2.58.13 3.79 1.79 4 4.45.22 2.83-1.36 3.5-3.62 4.14-7.54 2.13-15.1 4.23-22.51 6.76-4.71 1.6-9.24 2-13.89.28-2.52-.93-4.27-.23-6.09 1.74-2.28 2.48-4.97 4.59-7.54 6.8-2.3 1.98-3.13 4.32-1.63 7.04 1.67 3.03 3.2 6.27 5.46 8.83 11.53 13.09 14.28 27.5 7.22 43.58-.62 1.42-1.61 2.7-2.58 3.93-1.64 2.08-3.44 4.03-5.09 6.1-3.32 4.16-5.01 8.57-3.51 14.14 1.09 4.05.15 8.81 1.81 12.48 1.63 3.6 5.62 6.07 8.2 9.33 9.77 12.34 16.74 25.96 18.48 41.86.53 4.85-.06 9.14-3.42 13.29-3.07 3.8-5.15 8.48-7.24 12.97-2.35 5.02-4.8 9.91-8.9 13.76-5.14 4.82-8.18 10.89-9.39 17.66-1.41 7.89-2.2 15.89-3.08 23.86-.19 1.72.38 3.52.59 5.22 2.89.69 5.01.11 7.14-1.8 8.82-7.93 18.35-15.12 25.29-24.96 2.63-3.73 4.26-7.76 4.39-12.37.11-3.97 2.68-7.06 6.57-7.83.63-.13 1.62.26 2.08.75 4.27 4.57 7.77 9.17 6.33 16.32-1.49 7.36.91 14.7 1.82 22.05 1.78 14.51 3.54 29.03 4.56 43.6.46 6.58-.94 13.28-1.39 19.92-.13 1.87-1.03 2.4-2.75 2.71-5.32.98-5.3 1.06-8.02-3.42-4.65-7.66-6.66-15.99-6.12-24.91.68-10.99.27-21.83-4.18-32.15-.27-.57-.56-1.12-.69-1.39zm-70.17-197.82c-1.88 1.8-4.2 3.22-5.37 5.29-4.13 7.27-7.88 14.75-11.71 22.19-.57 1.11-.97 2.36-1.19 3.59-2.86 15.67 2.13 29.69 9.28 43.22.32.6 1.43 1.35 1.89 1.2 2.93-1 6.5-1.52 8.53-3.54 5.35-5.34 10.42-11.14 11.23-19.27.06-.63.41-1.23.42-1.85.02-1.11.24-2.4-.23-3.31-5.56-10.82-7.95-22.23-6.84-34.37.06-.63-.04-1.27-.09-1.91-.32-4.31-1.85-8.01-5.92-11.24zm25.25 27.3c5.08-1.36 8.58-3.52 9.06-8.99.31-3.56 1.52-7.03 1.87-10.59.2-1.98.03-4.41-.96-6.03-3.11-5.05-8.21-7.88-13.39-11.23-4.25 13.22-2.02 25.16 3.42 36.84z"/><path d="m79.72 34.77c3.72.52 5.75 2.52 6.75 5.77 4.87 15.76 9.8 31.51 14.67 47.27 3.95 12.8 6.21 25.94 7.66 39.23.34 3.11 1.07 6.23 4.33 7.58 1.04.43 2.97.39 3.65-.29 8.16-8.1 15.53-16.92 16.4-28.92.4-5.57-.85-11.34-1.92-16.92-1.05-5.5-2.93-10.83-4.24-16.28-1.97-8.15 1.19-16.03 8.32-20.38 3.07 9.56 6 19.03 9.14 28.43 5.76 17.19 5.83 34.56 1.76 52.05-.46 1.96-1.48 3.97-2.77 5.51-8.23 9.84-16.57 19.6-24.96 29.3-1.34 1.55-1.69 2.93-1.04 4.87 2.48 7.41 3.16 15.03 3.03 22.85-.08 4.48.68 9.05 1.67 13.45 2.23 9.91 4.87 19.73 7.25 29.62.41 1.69 1.16 2.81 2.87 2.67 1.4-.12 3.37-.28 4.05-1.19 7.3-9.88 14.49-19.84 21.5-29.93 5.29-7.61 10.85-14.93 18.36-20.52 1.08-.8 2.24-1.51 4.03-2.71-.58 5.76.49 10.85-3.65 15.33-8.24 8.91-13.01 19.99-18.23 30.77-3.18 6.56-6.57 13.03-10.22 19.34-1.4 2.41-3.78 4.26-5.73 6.35-4.54 4.86-4.39 9.52.47 13.89 4.58 4.11 9.31 8.06 13.68 12.38 6.25 6.19 13.26 11.21 21.4 14.52 3.17 1.29 3.09 3.97 3.44 6.5.07.5-.84 1.49-1.47 1.68-2.1.64-4.32 1.56-6.41 1.4-6.57-.52-13-1.65-17.99-6.68-4.22-4.26-9.38-6.44-15.72-6.34-3.23 7.26-3.32 14.97-2.75 22.84.38 5.25.66 10.56.27 15.79-.3 4.06-2.43 7.61-5.89 10.4-4.18-5.35-6.5-11.39-7.98-17.82-1.05-4.53-1.86-9.14-3.21-13.58-1.32-4.33-3.92-7.91-8.34-10.5-3.41 5.32-6.88 10.51-10.12 15.83-5.56 9.14-10.71 18.53-16.53 27.49-3.94 6.06-9.34 10.73-16.91 11.91-1.64.26-3.33.17-5.15.26-.65-2.96-.56-5.23 1.64-7.43 9.08-9.05 14.82-20.3 20.45-31.6 5.59-11.22 11.99-21.93 20.12-31.53 3.36-3.97 5.1-8.57 4.53-13.79-.12-1.08-1.11-2.71-2.03-2.97-10.93-3.19-19.2-10.47-27.74-17.43-1.76-1.43-4.19-2.47-6.44-2.78-13.14-1.83-21.26-13.97-19.46-27.8.07-.57.37-1.28.81-1.6 2.21-1.64 9.39-1.08 11.53.82 7.76 6.88 17.19 10.74 26.58 14.65 3 1.25 6.06 2.36 9.69 3.76.72-3.31 1.72-6.24 1.93-9.22.93-12.85.11-25.6-2.28-38.29-1.42-7.53-6.9-10.94-12.96-13.46-5.44-2.26-11.34-3.4-17.01-5.14-5.45-1.67-10.47-4.11-14.14-8.67-.76-.95-1.57-2.19-1.62-3.32-.52-13.23-.91-26.47-1.33-39.88 1.15-.37 2.22-.71 3.39-1.08 2.06 5.15 3.99 10.16 6.07 15.1 1.15 2.73 2.47 5.39 3.84 8.01 4.02 7.73 10.81 11.69 19 13.56.67.15 1.92-.6 2.34-1.28 2.37-3.89 2.94-8.15 1.85-12.55-.97-3.9-2.45-7.69-3.21-11.62-.81-4.21-1.84-8.64-1.35-12.8 1.65-14.16-1.9-27.34-6.46-40.42-2.75-7.89-6.17-15.59-6.23-24.18-.04-7.15 1.44-13.87 5.02-20.28z"/></g></svg>