<svg enable-background="new 0 0 400 400" viewBox="0 0 400 400" xmlns="http://www.w3.org/2000/svg"><path d="m378.6 9.2.8-1c.9.7 1.9 1.4 2.9 2.3l-.9 1.1c-1.1-.9-2-1.7-2.8-2.4zm.5 10.7c.9-2.1 1.6-4.3 2.3-6.7.4.2.8.4 1.3.6-.7 2.1-1.5 4.3-2.2 6.6zm.4-15.2.9-.9c1 .8 2 1.6 2.8 2.4l-1 1c-1-.9-1.9-1.8-2.7-2.5zm12.5-1.3h1.2v1.4h2.7v1.1h-2.7v2.7h-1.2v-.5h-1.8v1.3h4.9v3.8h-1.2v-.5h-3.7c0 .4-.1.9-.1 1.2h5.1v1h-5.2c0 .5-.1.9-.2 1.2h6v1h-5.2c1.1 1.3 2.9 2 5.5 2.2-.4.4-.7.8-.9 1.3-2.9-.5-4.8-1.6-5.7-3.5h-.1c-.8 1.7-2.7 2.9-5.9 3.6-.2-.4-.6-.8-.9-1.1 2.8-.6 4.6-1.4 5.4-2.5h-4.8v-1h5.3c.1-.3.2-.7.2-1.2h-4.9v-1h5c0-.4 0-.8.1-1.2h-3.6v.5h-1.2v-3.8h4.9v-1.3h-1.8v.5h-1.2v-2.7h-2.6v-1.1h2.6v-1.4h1.2v1.4h4.7v-1.4zm-6.7 8.4h3.6c0-.4 0-.9 0-1.4h-3.6zm1.9-4.7h4.7v-1.2h-4.7zm6.7 3.3h-3.7v1.4h3.7z" fill="#fafbfc"/><path d="m384.7 21.4h1.3v2.2h2.8v-2.2h1.3v2.2h4.1v9.1h1.7v1.3h-16.9v-1.3h1.7v-9.1h4.1v-2.2zm.3 13.2.7 1.2c-1.8.9-3.8 1.9-6 2.9-.2-.4-.5-.8-.8-1.3 2.4-1 4.4-2 6.1-2.8zm-3.1-6.5h2.8v-3.2h-2.8zm0 4.6h2.8v-3.3h-2.8zm4.1-4.6h2.8v-3.2h-2.8zm0 4.6h2.8v-3.3h-2.8zm3.6 1.9c2.1.9 4.1 1.8 6.1 2.7l-.7 1.3c-2.2-1.1-4.2-2-6.1-2.9zm3.3-9.7h-2.8v3.2h2.8zm-2.8 7.8h2.8v-3.3h-2.8z" fill="#fafbfc"/><g fill="#010104"><path d="m175.57 349.66c-2.29-4.65-5.22-8.95-5.3-14.58-.28-18.97-6-36.9-10.7-55.03-.79-3.03-1.4-6.27-1.21-9.36.53-8.36-1.13-16.41-2.65-24.52-.43-2.27-.33-4.64-.57-6.96-.95-8.84-2.28-17.65-2.79-26.51-.37-6.5.05-13.09.58-19.6 1.24-15.21 2.23-30.47 4.37-45.56 1.14-8.06 4.2-15.91 6.85-23.69 3.4-10.01 7.27-19.87 10.94-29.79.29-.79.46-1.71.96-2.33 5.4-6.66 7.84-14.68 10.66-22.55 1.86-5.19 5.04-9.51 9.45-12.89 2.65-2.03 5.19-1.29 5.47 2.12.26 3.18.01 6.65-1.01 9.65-2.6 7.6-5.66 15.05-8.75 22.48-1.32 3.19-3.16 6.17-4.75 9.26-1.11 2.16-2.44 4.25-3.24 6.53-3.88 10.96-7.77 21.92-11.37 32.97-6.26 19.25-7.28 39.13-5.81 59.11 1.16 15.74 3.17 31.41 4.8 47.11.22 2.11.35 4.23.61 6.33.73 5.83 7.34 10.56 13.15 9.22.9-.21 1.84-1.61 2.18-2.65 1.82-5.58.88-11.06-.73-16.55-1.9-6.49-4.55-12.95-5.18-19.59-1.02-10.72-.65-21.58-.87-32.37-.33-16.23 4.79-31.27 9.95-46.32 1.75-5.11 3.51-10.22 4.93-15.42.49-1.8.37-4-.18-5.79-1.73-5.6-3.8-11.09-5.92-17.12 2.58 1.32 4.67 2.6 6.93 3.48 1.64.64 3.46.89 5.23 1.06 2.44.24 4.14-.82 5.35-3.1 4.71-8.88 9.41-17.79 14.43-26.5 2.47-4.29 5.49-8.28 8.55-12.18 1.29-1.65 3.32-2.72 5.01-4.06.33.21.65.42.98.63-2.58 6.99-4.89 14.09-7.79 20.94-4.29 10.12-9.32 19.94-13.33 30.17-1.03 2.62.3 6.35 1.1 9.42.58 2.21.34 3.81-1.51 4.9-10.77 6.35-14.11 17.21-17.28 28.19-4.13 14.28-4.02 28.88-3.36 43.53.84 18.69 4.54 36.99 7.5 55.39.57 3.52.48 7.19.34 10.77-.4 10.02.35 19.84 3.55 29.46 1.49 4.46 1.05 8.99-1.94 13.48-2.29-6.35-4.28-12.45-6.68-18.38-2.38-5.86-4.76-11.8-7.91-17.26-3.19-5.53-13.23-4.39-15.81 1.47-.36.81-.26 1.86-.2 2.79 1.23 17.98 2.45 35.96 3.76 53.93.27 3.69 1.05 7.34 1.22 11.03.08 1.74-.7 3.52-1.09 5.28-.32-.02-.62-.03-.92-.04z"/><path d="m147.26 39.17c3.47 2.97 3.44 6.66 2.74 10.4-1.57 8.32-3.17 16.63-4.98 24.89-.46 2.12-1.52 4.2-2.68 6.06-4.01 6.43-5.88 13.46-6.83 20.92-.46 3.62-1.47 7.34-3.1 10.59-3.14 6.26-4.04 12.86-4.44 19.66-.35 5.92-.89 11.83-1.26 17.74-.09 1.46-.02 2.97.3 4.39 2.4 10.74 4.86 21.47 7.36 32.2.31 1.32.57 2.87 1.43 3.8 4.24 4.62 4.94 10.33 5.53 16.16.16 1.55.52 3.17 1.19 4.57 6.73 14.16 5.2 28.18-.66 42.11-.74 1.76-.82 3.01.08 4.9.95 2 1.41 4.88.72 6.92-7.95 23.44-15.75 46.95-24.47 70.11-4.27 11.36-12.11 20.82-20.41 29.7-.41.44-.94.76-2.12 1.69 1.84-7.37 3.06-14.04 5.19-20.4 5.07-15.14 10.74-30.08 15.85-45.21 4.06-12.02 7.69-24.18 11.37-36.33.73-2.41 1.07-4.99 1.16-7.51.17-5.05 1.47-9.56 3.76-14.17 1.38-2.78.64-6.79.35-10.21-.91-10.45-4.76-20.12-8.25-29.9-3.37-9.45-6.98-18.91-9.2-28.65-3.68-16.16-2.11-32.52.89-48.64 3.96-21.3 10.54-41.84 18.94-61.8 1.71-4.07 3.11-8.33 4.18-12.61 1.15-4.66 3.49-8.33 7.36-11.38z"/><path d="m218.92 363.34c-2.22-4.59-1.83-8.64-1.08-12.56 1.2-6.21 3.03-12.18 5.54-18.11 2.51-5.91 3.19-12.64 4.34-19.07.89-5 1.19-10.1 1.9-15.13.22-1.51.6-3.23 1.51-4.38 5.8-7.32 7.31-15.92 8.17-24.88.88-9.28 2.29-18.5 3.36-27.77.19-1.62.11-3.4-.36-4.95-3.3-10.95-6.71-21.86-10.13-32.76-.5-1.61-1.05-3.28-1.96-4.66-4.62-7-6.43-14.82-7.45-23-1.25-9.98-2.86-19.92-4.22-29.89-.16-1.19-.15-2.65.38-3.65 7.88-14.74 15.7-29.52 23.89-44.09 3.88-6.91 8.49-13.41 12.78-20.08.57-.88 1.19-1.75 1.91-2.53 12.06-13.1 24.12-26.22 36.28-39.23.8-.86 2.98-1.68 3.51-1.26.98.78 1.76 2.56 1.63 3.81-.2 1.92-.98 3.92-1.99 5.6-6.72 11.17-13.37 22.38-20.45 33.31-3.03 4.68-7.15 8.65-10.55 13.11-5.19 6.81-10.51 13.56-15.19 20.71-4.7 7.2-9.6 14.18-15.22 20.7-2.44 2.83-4.25 6.29-5.93 9.67-2.84 5.7-.36 11.47.39 17.16 1.02 7.77 2.35 15.5 3.71 23.22.28 1.58 1.32 3.02 1.91 4.56 1.45 3.81 2.98 7.59 4.2 11.47 1.45 4.62 2.12 9.54 3.96 13.99 7.03 16.97 8.9 34.53 5.3 52.36-2.84 14.08-7.04 27.88-10.74 41.79-.4 1.49-1.78 2.72-2.15 4.2-1.19 4.79-2.04 9.67-3.17 14.48-1.15 4.9-2.03 9.94-3.84 14.61-2.98 7.65-6.6 15.06-10.24 23.25z"/></g></svg>