<svg enable-background="new 0 0 400 400" viewBox="0 0 400 400" xmlns="http://www.w3.org/2000/svg"><path d="m378.6 9.2.8-1c.9.7 1.9 1.4 2.9 2.3l-.9 1.1c-1.1-.9-2-1.7-2.8-2.4zm.5 10.7c.9-2.1 1.6-4.3 2.3-6.7.4.2.8.4 1.3.6-.7 2.1-1.5 4.3-2.2 6.6zm.4-15.2.9-.9c1 .8 2 1.6 2.8 2.4l-1 1c-1-.9-1.9-1.8-2.7-2.5zm12.5-1.3h1.2v1.4h2.7v1.1h-2.7v2.7h-1.2v-.5h-1.8v1.3h4.9v3.8h-1.2v-.5h-3.7c0 .4-.1.9-.1 1.2h5.1v1h-5.2c0 .5-.1.9-.2 1.2h6v1h-5.2c1.1 1.3 2.9 2 5.5 2.2-.4.4-.7.8-.9 1.3-2.9-.5-4.8-1.6-5.7-3.5h-.1c-.8 1.7-2.7 2.9-5.9 3.6-.2-.4-.6-.8-.9-1.1 2.8-.6 4.6-1.4 5.4-2.5h-4.8v-1h5.3c.1-.3.2-.7.2-1.2h-4.9v-1h5c0-.4 0-.8.1-1.2h-3.6v.5h-1.2v-3.8h4.9v-1.3h-1.8v.5h-1.2v-2.7h-2.6v-1.1h2.6v-1.4h1.2v1.4h4.7v-1.4zm-6.7 8.4h3.6c0-.4 0-.9 0-1.4h-3.6zm1.9-4.7h4.7v-1.2h-4.7zm6.7 3.3h-3.7v1.4h3.7z" fill="#fafbfc"/><path d="m384.7 21.4h1.3v2.2h2.8v-2.2h1.3v2.2h4.1v9.1h1.7v1.3h-16.9v-1.3h1.7v-9.1h4.1v-2.2zm.3 13.2.7 1.2c-1.8.9-3.8 1.9-6 2.9-.2-.4-.5-.8-.8-1.3 2.4-1 4.4-2 6.1-2.8zm-3.1-6.5h2.8v-3.2h-2.8zm0 4.6h2.8v-3.3h-2.8zm4.1-4.6h2.8v-3.2h-2.8zm0 4.6h2.8v-3.3h-2.8zm3.6 1.9c2.1.9 4.1 1.8 6.1 2.7l-.7 1.3c-2.2-1.1-4.2-2-6.1-2.9zm3.3-9.7h-2.8v3.2h2.8zm-2.8 7.8h2.8v-3.3h-2.8z" fill="#fafbfc"/><path d="m283.06 366.16c-3.07 0-5.6.13-8.11-.07-.92-.07-1.87-.77-2.64-1.4-9.47-7.68-16.1-17.58-21.98-28.09-.82-1.47-2.22-2.98-3.72-3.66-11.19-5.09-18.27-13.59-23.78-24.57-10.11-20.15-21.48-39.66-32.19-59.51-.92-1.7-1.26-3.98-1.14-5.94.34-5.5 1.13-10.96 1.6-16.45.1-1.19-.09-2.61-.67-3.63-6.62-11.84-4.9-24.61-4.21-37.25.25-4.65.94-9.28 1.51-13.9.64-5.2-1.95-8.66-5.98-11.36-.7-.47-1.49-.87-2.29-1.08-7.4-1.94-12.62-6.41-16.07-13.23-.66-1.3-2.4-2.46-3.87-2.85-5.99-1.61-11.17-4.45-15.48-8.9-.29-.3-.62-.58-.97-.82-6.1-4.15-10.19-4.38-11.19 4.21-.5 4.28-.48 8.72.08 12.99 1.03 7.85.42 15.32-2.64 22.69-.87 2.09-.93 4.75-.62 7.05.94 7.03 2.11 14.04 3.48 21 .54 2.74.06 4.4-2.62 5.45-1.66.65-3.16 1.68-5.45 2.93-1.55-4.1-3.39-7.88-4.38-11.87-1.08-4.39-1.67-8.96-1.9-13.48-.14-2.71 1.14-5.47 1.22-8.23.1-3.4.06-6.92-.75-10.18-.85-3.45-2.74-6.63-4.07-9.98-1.85-4.65-2.98-9.32-2.41-14.51.88-8 1.16-16.07 1.55-24.11.17-3.48.79-6.71 3.22-9.36 1.67-1.82 1.88-3.77 1.13-6.12-.7-2.2-1.01-4.54-1.36-6.84-.4-2.64.65-4.49 3.16-5.56 2.44-1.04 4.49-.99 5.99 1.55.37.63 1.07 1.06 1.44 1.69 7.31 12.1 18.66 20.07 29.32 28.75 9.37 7.63 18.72 15.29 28.09 22.93.73.59 1.49 1.14 2.33 1.78 4.87-5.21 6.51-11.24 5.2-17.98-1.49-7.69-3.2-15.33-4.97-22.96-.29-1.25-1.22-2.44-2.09-3.46-6.22-7.23-12.4-14.51-18.82-21.57-2.68-2.95-4.55-5.96-4.52-10.07.03-3.18-1.02-5.61-4.12-7.49-9.78-5.93-11.72-15.68-11.88-26.12-.01-.5.22-1 .35-1.54 6.19 2.73 11.42 6.03 14.66 12.42 3.96 7.82 8.59 15.37 13.54 22.62 3.8 5.57 8.71 10.38 12.84 15.74 4.19 5.44 8.56 10.86 11.87 16.83 2.29 4.13 3.22 9.12 4.23 13.83 1.04 4.87 2.94 9.18 6.84 12.19 4.74 3.66 5.71 8.31 4.18 13.58-1.05 3.6-2.56 7.15-4.4 10.42-2.57 4.59-3.87 9.47-3.86 14.58.02 10.84-2 21.22-5.77 31.36-2.9 7.79-2.2 15.93-1.07 23.88 1.19 8.37 3 16.67 4.91 24.92.59 2.55 2.41 4.82 3.75 7.38-.92 1.24-1.99 2.68-3.12 4.2 4.36 3.64 8.69 7.16 12.93 10.81 7.4 6.38 13.61 13.64 16.91 23.05 1.77 5.06 4.76 9.32 8.17 13.47 14.55 17.71 28.07 36.16 38.89 56.45.48.9.93 1.84 1.72 3.39z" fill="#010104"/></svg>