<svg enable-background="new 0 0 400 400" viewBox="0 0 400 400" xmlns="http://www.w3.org/2000/svg"><path d="m378.6 9.2.8-1c.9.7 1.9 1.4 2.9 2.3l-.9 1.1c-1.1-.9-2-1.7-2.8-2.4zm.5 10.7c.9-2.1 1.6-4.3 2.3-6.7.4.2.8.4 1.3.6-.7 2.1-1.5 4.3-2.2 6.6zm.4-15.2.9-.9c1 .8 2 1.6 2.8 2.4l-1 1c-1-.9-1.9-1.8-2.7-2.5zm12.5-1.3h1.2v1.4h2.7v1.1h-2.7v2.7h-1.2v-.5h-1.8v1.3h4.9v3.8h-1.2v-.5h-3.7c0 .4-.1.9-.1 1.2h5.1v1h-5.2c0 .5-.1.9-.2 1.2h6v1h-5.2c1.1 1.3 2.9 2 5.5 2.2-.4.4-.7.8-.9 1.3-2.9-.5-4.8-1.6-5.7-3.5h-.1c-.8 1.7-2.7 2.9-5.9 3.6-.2-.4-.6-.8-.9-1.1 2.8-.6 4.6-1.4 5.4-2.5h-4.8v-1h5.3c.1-.3.2-.7.2-1.2h-4.9v-1h5c0-.4 0-.8.1-1.2h-3.6v.5h-1.2v-3.8h4.9v-1.3h-1.8v.5h-1.2v-2.7h-2.6v-1.1h2.6v-1.4h1.2v1.4h4.7v-1.4zm-6.7 8.4h3.6c0-.4 0-.9 0-1.4h-3.6zm1.9-4.7h4.7v-1.2h-4.7zm6.7 3.3h-3.7v1.4h3.7z" fill="#fafbfc"/><path d="m384.7 21.4h1.3v2.2h2.8v-2.2h1.3v2.2h4.1v9.1h1.7v1.3h-16.9v-1.3h1.7v-9.1h4.1v-2.2zm.3 13.2.7 1.2c-1.8.9-3.8 1.9-6 2.9-.2-.4-.5-.8-.8-1.3 2.4-1 4.4-2 6.1-2.8zm-3.1-6.5h2.8v-3.2h-2.8zm0 4.6h2.8v-3.3h-2.8zm4.1-4.6h2.8v-3.2h-2.8zm0 4.6h2.8v-3.3h-2.8zm3.6 1.9c2.1.9 4.1 1.8 6.1 2.7l-.7 1.3c-2.2-1.1-4.2-2-6.1-2.9zm3.3-9.7h-2.8v3.2h2.8zm-2.8 7.8h2.8v-3.3h-2.8z" fill="#fafbfc"/><path d="m122.03 366.17c.39-4.42 1.19-8.25 5.3-11.41 10.74-8.28 21.23-16.93 31.42-25.88 3.83-3.36 6.62-7.93 9.74-12.05.39-.51.12-1.83-.26-2.56-1.5-2.91-3.13-5.76-4.78-8.59-4.72-8.11-6.76-17.06-8.41-26.16-2.49-13.75-5.13-27.48-7.61-41.23-.56-3.12-.65-6.32-1.11-9.47-.27-1.87-.58-3.81-1.34-5.51-1.22-2.72-3.69-3.12-5.86-1.1-2.04 1.91-4.08 3.02-7.13 2.33-1.18-.27-2.94.97-4.09 1.94-1.07.91-1.68 2.36-2.56 3.69-2.83-1.12-5.52-2.07-8.11-3.22-2.15-.96-2.43-3.05-.73-4.73 3.17-3.12 6.34-6.26 9.62-9.27.78-.72 1.96-1.22 3.02-1.37 3.12-.46 6.27-.69 9.27-1 .17-.51.32-.72.28-.91-1.43-8.22 2.75-13.85 8.35-19.11 4.55-4.27 8.8-8.9 12.89-13.63 2.88-3.33 6.09-5.8 10.47-6.55 1.99-.34 3.21-1.31 3.53-3.42.7-4.6 3.44-7.79 7.2-10.32 4.66-3.13 9.33-6.26 13.82-9.63 1.3-.97 2.48-2.67 2.83-4.23.91-4.01 2.12-7.57 5.46-10.4 1.4-1.18 1.7-3.65 2.86-6.38-8.43 1.73-12.88-3.43-17.89-7.64-9.37-7.87-16.52-17.2-20.56-28.9-.93-2.69-2.99-5.06-4.82-7.35-5.61-7.03-11.87-13.61-14.98-22.31-.67-1.87-1.23-3.78-1.84-5.68 4.74-.99 8.12-.11 11.31 3.79 8.59 10.5 17.6 20.67 26.69 30.75 7.75 8.6 16.77 15.52 28.86 19.43.23-2.39 1.25-4.85.48-6.46-2.57-5.4-1.8-10.69-.69-16.13.82-4.05 1.7-8.1 2.16-12.2.24-2.14-.34-4.37-.63-6.55-.97-7.44-2.12-14.86-2.91-22.31-.38-3.53 1.1-6.61 3.85-9.2 3.56 1.26 5.99 3.79 6.7 7.35 3.13 15.65 7.61 31.05 7.37 47.29-.17 10.79.61 21.61 1.27 32.39.49 8.02 4.77 14.18 11 18.89 6.84 5.17 14.27 9.6 19.69 16.45.78.99 1.71 2 2.07 3.16 1.79 5.83 5.71 10.04 10.17 13.89 3.14 2.71 5.24 6.01 5.9 10.68-4.5-1.54-8.83-2.07-12.72-4.9-6.75-4.9-13.98-9.15-21.05-13.6-1.22-.77-2.66-1.2-4.42-1.97-.41 6.42-.82 12.42-1.17 18.43-.28 4.84.01 9.75-2.9 14.1-.52.77-.26 2.25-.01 3.32 1.33 5.78 3.35 11.46 3.97 17.3.44 4.13-.81 8.49-1.65 12.68-.32 1.62-.96 2.8.54 4.23 2.52 2.4 2.89 5.18 1.87 8.68-.88 3.02-.57 6.4-.65 9.63-.08 3.13.76 6.48-.12 9.34-2.72 8.9-2.55 17.75-.61 26.65 1.3 5.97-.59 11.53-1.7 17.2-2.37 12.16-4.92 24.29-7.23 36.46-.93 4.88-5 7.28-7.93 11.8-1.61-16.48-3.12-31.93-4.68-47.88-5.15.63-10.15 1.15-15.1 1.93-.82.13-1.72 1.23-2.15 2.1-3.59 7.16-9.43 11.76-16.59 14.94-1.25.56-2.37 1.41-3.61 2.01-8.75 4.23-16.37 9.91-23.38 16.69-3.64 3.52-8.73 5.48-12.83 8.58-3.93 2.97-7.59 6.35-11.08 9.85-3.82 3.85-7.33 5.02-12.07 3.26zm55.69-60.65c6.89 1.24 10.64.16 16.58-4.73 5.82-4.79 11.62-9.56 19.31-11.13.82-.17 1.85-.85 2.2-1.57 2.39-4.92 5.17-9.74 6.78-14.92 2.94-9.45 2.04-19.28 1.77-29.02-.26-9.49-1.81-19.03.54-28.46 1.23-4.95.92-9.69-.55-14.64-2.43-8.2-4.91-16.44-4.73-25.18.12-5.82.17-11.65-.06-17.47-.17-4.16-2.1-7.45-6.05-9.37-2.03-.99-3.6-.98-5.35.73-7.2 7.03-14.72 13.74-21.74 20.94-8.22 8.44-16.5 16.77-26.2 23.52-1.53 1.06-1.97 2.15-1.64 3.97 6.41 35.71 12.75 71.46 19.14 107.33zm47.84-162.96c1.21 4.99 2.32 9.57 3.57 14.71 2.18-2.53 4.08-4.49 5.69-6.67 2.04-2.75.89-5.62-2.42-6.44-2.03-.5-4.08-.95-6.84-1.6zm6.4 103.92c-2.13 4.47-2.03 6.72.57 7.55 2.55.81 3.56-1.07 4.2-3.08.83-2.55-.28-3.56-4.77-4.47z" fill="#010104"/></svg>