<svg enable-background="new 0 0 400 400" viewBox="0 0 400 400" xmlns="http://www.w3.org/2000/svg"><path d="m378.6 9.2.8-1c.9.7 1.9 1.4 2.9 2.3l-.9 1.1c-1.1-.9-2-1.7-2.8-2.4zm.5 10.7c.9-2.1 1.6-4.3 2.3-6.7.4.2.8.4 1.3.6-.7 2.1-1.5 4.3-2.2 6.6zm.4-15.2.9-.9c1 .8 2 1.6 2.8 2.4l-1 1c-1-.9-1.9-1.8-2.7-2.5zm12.5-1.3h1.2v1.4h2.7v1.1h-2.7v2.7h-1.2v-.5h-1.8v1.3h4.9v3.8h-1.2v-.5h-3.7c0 .4-.1.9-.1 1.2h5.1v1h-5.2c0 .5-.1.9-.2 1.2h6v1h-5.2c1.1 1.3 2.9 2 5.5 2.2-.4.4-.7.8-.9 1.3-2.9-.5-4.8-1.6-5.7-3.5h-.1c-.8 1.7-2.7 2.9-5.9 3.6-.2-.4-.6-.8-.9-1.1 2.8-.6 4.6-1.4 5.4-2.5h-4.8v-1h5.3c.1-.3.2-.7.2-1.2h-4.9v-1h5c0-.4 0-.8.1-1.2h-3.6v.5h-1.2v-3.8h4.9v-1.3h-1.8v.5h-1.2v-2.7h-2.6v-1.1h2.6v-1.4h1.2v1.4h4.7v-1.4zm-6.7 8.4h3.6c0-.4 0-.9 0-1.4h-3.6zm1.9-4.7h4.7v-1.2h-4.7zm6.7 3.3h-3.7v1.4h3.7z" fill="#fafbfc"/><path d="m384.7 21.4h1.3v2.2h2.8v-2.2h1.3v2.2h4.1v9.1h1.7v1.3h-16.9v-1.3h1.7v-9.1h4.1v-2.2zm.3 13.2.7 1.2c-1.8.9-3.8 1.9-6 2.9-.2-.4-.5-.8-.8-1.3 2.4-1 4.4-2 6.1-2.8zm-3.1-6.5h2.8v-3.2h-2.8zm0 4.6h2.8v-3.3h-2.8zm4.1-4.6h2.8v-3.2h-2.8zm0 4.6h2.8v-3.3h-2.8zm3.6 1.9c2.1.9 4.1 1.8 6.1 2.7l-.7 1.3c-2.2-1.1-4.2-2-6.1-2.9zm3.3-9.7h-2.8v3.2h2.8zm-2.8 7.8h2.8v-3.3h-2.8z" fill="#fafbfc"/><g fill="#010104"><path d="m171.22 75.62c-2.42 6.62-5.09 13.16-7.19 19.87-1.42 4.54-3.79 9.09-1.92 14.15.09.25-.1.62-.19.92-1.78 6.31-3.47 12.65-5.39 18.92-.81 2.65-2.27 4.99-5.81 6.02.54-4.36.76-8.43 1.57-12.38 3.38-16.53 3.58-33.62 8.73-49.82 1.08-3.4 2.85-6.64 3.54-10.11.91-4.55 1.08-9.24 1.52-13.88.43-4.4 1.65-8.5 4.47-12 2.15-2.67 4.38-2.61 6.16.42 2.29 3.89 2.08 8.1.89 12.31-.11.4-.3.81-.54 1.15-2.76 3.85-2.53 7.2 1.45 10.15.76.56 1.23 1.73 1.5 2.71 1.61 5.88 4.05 11.43 4.73 17.69.66 6.12 3.4 12 4.89 18.06.65 2.62.36 5.46.67 8.19.21 1.85.73 3.67 1.11 5.51.19.92.45 1.83.51 2.76.36 5.14.86 10.27.96 15.42.1 4.93-.59 9.9-.3 14.81.64 10.9-2.95 20.37-8.91 29.19-4.92 7.29-6.12 15.45-5.33 24 .12 1.3 1.1 2.49 1.51 3.79 1.82 5.82 3.58 11.66 5.34 17.49.09.3-.07.77.1.92 2.47 2.16 2.75 5.06 3.32 8.09 1.01 5.39 2.68 10.67 4.14 15.97 3.05 11.06 1.77 22.24.67 33.34-1.1 11.14-4.22 21.72-10.3 31.32-1.48 2.33-2.14 5.16-3.36 7.68-.52 1.08-1.54 1.9-2.2 2.91-.55.84-.81 1.89-1.39 2.7-2.15 2.97-4.39 5.89-6.74 9.02-3.56-5.99-3.85-11.52-.06-17.11.69-1.01 1.07-2.3 1.33-3.51.55-2.54.66-5 2.91-7.09 1.19-1.1.92-3.75 1.34-5.7.65-2.99.96-6.11 2.04-8.93 4.19-10.93 5.02-22.24 4.07-33.74-.4-4.8-.47-9.55-2.61-14.25-1.53-3.36-.64-7.73-1.46-11.52-1.93-8.89-4.39-17.67-6.35-26.56-1.91-8.66-1.31-17.19 2.13-25.5.95-2.28 1.21-4.85 1.8-7.28.49-2.03.72-4.2 1.57-6.07 5.07-11.25 7.41-22.74 5.36-35.19-1.21-7.37-.92-14.97-1.45-22.46-.24-3.46-.56-6.95-1.33-10.32-1.48-6.39-3.3-12.7-5.01-19.04-.26-.97-.68-1.91-1.02-2.86-.49-.05-.98-.11-1.47-.16z"/><path d="m223.33 85.99c-1.79 2.52-3.33 4.57-4.71 6.73-.4.63-.45 1.55-.45 2.34-.02 8.44-4.15 15.08-9.32 21.23-.6.71-1.74.96-3.18 1.7 0-1.48-.17-2.41.03-3.24 1.33-5.56 2.61-11.13 4.17-16.63.85-3 2.2-5.85 3.31-8.78.41-1.09.83-2.17 1.17-3.28 1.58-5.13 3.25-10.23 4.63-15.41.7-2.62 1.12-5.38 1.19-8.08.18-6.98 3.34-12.76 6.75-18.8 3.56 2.41 4.9 5.5 4.39 9.36-.42 3.15-1.5 6.27-1.49 9.4.02 7.57.57 15.1 3.05 22.4 1.59 4.67 3.5 9.39 1.85 14.53-.15.47-.15 1.12.07 1.54 3.58 6.81 3 14.41 4.22 21.68.94 5.61 2.53 11.11 3.76 16.68.53 2.38.9 4.79 1.35 7.18 1.61 8.66-2.07 15.95-6.11 23.09-1.25 2.2-3.14 4.05-4.31 6.28-1.29 2.46-2.11 5.18-3.11 7.79-.81 2.12-1.59 4.25-2.37 6.38-.29.78-.62 1.55-.82 2.35-.77 3.04-1.14 6.24-2.33 9.1-2.68 6.48-2.69 12.94.41 19.02 2.23 4.37 2.91 8.79 2.92 13.48.01 4.38.78 8.43 2.56 12.58 1.83 4.25 2.25 9.12 3.22 13.73.48 2.27.53 4.67 1.27 6.84 3.24 9.59.8 18.61-3.1 27.22-4.5 9.91-9.69 19.51-14.58 29.25-.24.47-.58.96-.61 1.45-.6 8.83-5.86 15.25-11.16 21.63-4.06 4.89-8.11 9.8-12.34 14.55-1.52 1.72-3.47 3.08-5.35 4.43-.48.34-1.82.28-2.11-.11-.37-.49-.33-1.59-.04-2.24 1.63-3.63 3.36-7.22 5.11-10.8 1.34-2.73 2.4-5.68 4.19-8.09 5.77-7.77 10.38-16.03 14.3-24.95 4.99-11.37 8.99-23.05 13.45-34.59 2.14-5.55 2.17-10.98 1.11-16.51-3.23-16.83-6.67-33.63-10.05-50.44-1.15-5.74-.37-11.06 2.56-16.24 1.47-2.6 2.46-5.65 2.91-8.61 1.75-11.36 7.1-21.47 10.76-32.15 2.47-7.2 3.33-14.53 2.9-22.18-.35-6.21-2.48-11.95-3.52-17.93-1.76-10.11-2.67-20.36-3.85-30.56-.26-2.1-.55-3.98-2.7-4.32z"/></g></svg>