<svg enable-background="new 0 0 400 400" viewBox="0 0 400 400" xmlns="http://www.w3.org/2000/svg"><path d="m378.6 9.2.8-1c.9.7 1.9 1.4 2.9 2.3l-.9 1.1c-1.1-.9-2-1.7-2.8-2.4zm.5 10.7c.9-2.1 1.6-4.3 2.3-6.7.4.2.8.4 1.3.6-.7 2.1-1.5 4.3-2.2 6.6zm.4-15.2.9-.9c1 .8 2 1.6 2.8 2.4l-1 1c-1-.9-1.9-1.8-2.7-2.5zm12.5-1.3h1.2v1.4h2.7v1.1h-2.7v2.7h-1.2v-.5h-1.8v1.3h4.9v3.8h-1.2v-.5h-3.7c0 .4-.1.9-.1 1.2h5.1v1h-5.2c0 .5-.1.9-.2 1.2h6v1h-5.2c1.1 1.3 2.9 2 5.5 2.2-.4.4-.7.8-.9 1.3-2.9-.5-4.8-1.6-5.7-3.5h-.1c-.8 1.7-2.7 2.9-5.9 3.6-.2-.4-.6-.8-.9-1.1 2.8-.6 4.6-1.4 5.4-2.5h-4.8v-1h5.3c.1-.3.2-.7.2-1.2h-4.9v-1h5c0-.4 0-.8.1-1.2h-3.6v.5h-1.2v-3.8h4.9v-1.3h-1.8v.5h-1.2v-2.7h-2.6v-1.1h2.6v-1.4h1.2v1.4h4.7v-1.4zm-6.7 8.4h3.6c0-.4 0-.9 0-1.4h-3.6zm1.9-4.7h4.7v-1.2h-4.7zm6.7 3.3h-3.7v1.4h3.7z" fill="#fafbfc"/><path d="m384.7 21.4h1.3v2.2h2.8v-2.2h1.3v2.2h4.1v9.1h1.7v1.3h-16.9v-1.3h1.7v-9.1h4.1v-2.2zm.3 13.2.7 1.2c-1.8.9-3.8 1.9-6 2.9-.2-.4-.5-.8-.8-1.3 2.4-1 4.4-2 6.1-2.8zm-3.1-6.5h2.8v-3.2h-2.8zm0 4.6h2.8v-3.3h-2.8zm4.1-4.6h2.8v-3.2h-2.8zm0 4.6h2.8v-3.3h-2.8zm3.6 1.9c2.1.9 4.1 1.8 6.1 2.7l-.7 1.3c-2.2-1.1-4.2-2-6.1-2.9zm3.3-9.7h-2.8v3.2h2.8zm-2.8 7.8h2.8v-3.3h-2.8z" fill="#fafbfc"/><g fill="#010104"><path d="m127.15 316.69c3.21.1 6.1.42 8.72 2.81 6.97 6.35 14.2 12.43 21.31 18.64.71.62 1.62 1.27 1.89 2.08 1.17 3.6 3.99 5.22 7.19 6.58 5.7 2.42 10.91 5.56 14.96 10.42.57.68 2.1 1.25 2.87.98 7.38-2.61 14.82-5.13 22-8.24 5.98-2.59 11.56-6.12 17.47-8.89 4.49-2.1 9.24-3.63 13.86-5.45.68-.27 1.31-.7 1.94-1.09 5.46-3.35 8.74-7.34 7.73-14.65-1.37-9.93-1.19-20.07-2.17-30.07-.61-6.28-3.2-11.79-7.47-16.79-5.67-6.63-11.46-12.97-18.41-18.32-3.73-2.87-6.74-6.66-10.16-9.96-2.34-2.26-4.62-4.67-7.27-6.51-23.22-16.08-42.81-35.95-60.52-57.79-.33-.41-.73-.83-.89-1.31-4.43-13.1-11.06-25.47-12.96-39.42-1.96-14.43-1.24-28.78 1.13-43.05 1.5-9.04 5.07-17.19 12.09-23.48.16-.14.3-.3.45-.45 3.52-3.35 5.02-3.38 8.67.31.46-2.41.72-4.53 1.3-6.56.39-1.37.89-2.95 1.88-3.86 11.51-10.53 24.24-19.52 39.02-24.47 7.42-2.49 15.85-2.15 23.84-2.7 4.4-.3 8.89-.08 13.27.48 1.67.21 3.26 1.9 4.66 3.17 1.71 1.55 3.17 3.37 4.21 4.5 3.06-.54 5.78-1.9 7.72-1.18 4.29 1.6 8.2 4.22 12.2 6.54.48.28.53 1.32.73 2.02 1.57 5.48 3.35 10.92 4.59 16.47.77 3.46 1.1 7.12.97 10.67-.24 6.76.42 13.22 3.04 19.58 2.33 5.65 3.72 11.65-.19 17.33-.92 1.33-2.39 2.29-3.84 3.63-6.24-10-11.32-19.58-10.46-31.11.13-1.73.93-3.4 1.32-4.74-1.46-4.8-2.81-9.65-4.41-14.41-1.31-3.89-2.81-7.73-4.45-11.49-1.88-4.32-5.81-6.01-10.06-6.02-6.16-.02-11.02-2.54-15.5-6.32-.31-.26-.7-.43-1.18-.72-.89.96-1.72 1.89-2.58 2.79-2.26 2.35-4.51 3.41-7.8 1.37-3.88-2.41-6.15-1.49-8.37 2.6-2.84 5.23-2.83 5.08-8.8 4.69-2.1-.14-4.35.41-6.39 1.07-8.92 2.87-16.08 8.37-22.2 15.31-5.81 6.59-11.75 13.09-17.29 19.9-3.68 4.52-5.36 9.68-4.91 15.91.29 4.11-1.49 8.47-2.84 12.56-1.17 3.53-1.31 6.76.55 10 4.58 7.99 4.82 16.74 4.28 25.57-.17 2.83.57 5.11 2.42 7.22 6.65 7.56 13.25 15.17 19.84 22.78.75.87 1.7 1.76 2.01 2.8 1.41 4.7 5.13 7.11 8.69 10.01 7.12 5.8 13.93 12.02 20.54 18.41 14.49 14 28.77 28.21 43.14 42.32.75.74 1.53 1.5 2.42 2.04 5.42 3.3 9.79 7.62 13.53 12.75 1.43 1.97 3.77 3.34 5.86 4.73 1.57 1.05 2.43 2.02 2 4.08-.5 2.37-.62 4.83-.8 7.26-.07.92-.2 2.14.28 2.76 2.27 2.91 1.19 5.71.16 8.64-.91 2.58-2.49 5.36-2.17 7.85 1.04 8.19-3.23 14.26-7.33 20.35-3.97 5.88-8.37 11.48-12.87 16.97-1.62 1.98-3.87 3.85-6.22 4.76-13.2 5.12-26.36 10.48-39.89 14.58-5.27 1.6-11.47.64-17.1-1.6-5.76-2.29-10.61-5.57-14.37-10.51-3.33-4.38-7.71-7.37-12.58-9.93-3.61-1.9-6.82-4.61-10.06-7.15-.76-.6-1.4-1.98-1.31-2.93.27-2.9-1.16-4.48-3.45-5.83-4.62-2.72-6.57-5.76-7.48-11.29z"/><path d="m170.22 132.47c.43-3.15.96-6.28 1.28-9.44.5-4.93.97-9.87 1.25-14.82.21-3.72 1.1-6.82 4.01-9.59 6.26-5.97 13.53-9.8 21.92-11.47 5.11-1.02 9.69 1.01 12.82 4.75 3.49 4.16 6.33 8.95 8.87 13.77.96 1.83.5 4.54.3 6.81-.96 10.44-2.08 20.87-3.1 31.31-.22 2.21-.51 4.54-3.16 4.81-2.54.26-5.1-.18-6.37-3.03-1.12-2.51-2.29-5-3.54-7.45-2.52-4.91-6.2-5.9-11.22-3.72-4.91 2.13-8.66 4.98-10.21 10.43-.74 2.6-5.78 2.38-8.11-.19-3.14-3.44-4.86-7.43-4.74-12.17zm38.03-21.65c-.25-1.56-.41-3.14-.76-4.67-1.22-5.38-6.04-7.75-10.78-5.11-2.46 1.38-4.74 3.15-6.86 5.03-4.51 3.99-4.7 9.32-.59 13.72.65.69 1.72 1.34 2.63 1.38 4.65.23 9.07-.61 12.75-3.73 2.02-1.72 4.23-3.39 3.61-6.62z"/><path d="m219.43 283.51c-1.53 1.06-2.89 2.02-4.36 3.05.21.75.32 1.48.61 2.13 4.22 9.39 3.93 19.24 2.42 29.04-.46 2.99-2.59 5.84-4.4 8.44-1.02 1.46-2.96 1.37-3.83-.56-1.18-2.65-2.19-5.38-3.05-8.15-.43-1.39-.4-2.92-.55-4.4-.42-4.15-2.79-6.59-6.78-7.29-4.57-.8-9.19-1.33-14.5-2.07-.2 3.58-.51 6.79-.52 10-.01 3.96-1.59 6.7-5.69 8.12-2.23-2.37-4.25-4.88-3.59-8.52.63-3.47-.23-6.54-2.28-9.28-3.1-4.13-4.17-8.05-.4-12.58 2.53-3.05 2.12-6.9 1.24-10.66-1.43-6.15-.16-9.5 4.33-11.95.73-.4 1.59-.86 2.36-.8 9.29.64 18.57 1.31 27.85 2.09 4 .34 6.84 2.21 8.06 6.36.7 2.4 2 4.62 3.08 7.03zm-25.92 11.99c11.22-.41 11.2-3.31 10.99-10.52-.09-3.08-3.4-5.5-6.05-4.94-3.18.67-6.43 1.03-9.63 1.64-2.45.46-5.31.68-6.1 3.6-.93 3.44 1.11 8.39 3.91 9.32 2.16.7 4.58.62 6.88.9z"/></g></svg>