<svg enable-background="new 0 0 400 400" viewBox="0 0 400 400" xmlns="http://www.w3.org/2000/svg"><path d="m378.6 9.2.8-1c.9.7 1.9 1.4 2.9 2.3l-.9 1.1c-1.1-.9-2-1.7-2.8-2.4zm.5 10.7c.9-2.1 1.6-4.3 2.3-6.7.4.2.8.4 1.3.6-.7 2.1-1.5 4.3-2.2 6.6zm.4-15.2.9-.9c1 .8 2 1.6 2.8 2.4l-1 1c-1-.9-1.9-1.8-2.7-2.5zm12.5-1.3h1.2v1.4h2.7v1.1h-2.7v2.7h-1.2v-.5h-1.8v1.3h4.9v3.8h-1.2v-.5h-3.7c0 .4-.1.9-.1 1.2h5.1v1h-5.2c0 .5-.1.9-.2 1.2h6v1h-5.2c1.1 1.3 2.9 2 5.5 2.2-.4.4-.7.8-.9 1.3-2.9-.5-4.8-1.6-5.7-3.5h-.1c-.8 1.7-2.7 2.9-5.9 3.6-.2-.4-.6-.8-.9-1.1 2.8-.6 4.6-1.4 5.4-2.5h-4.8v-1h5.3c.1-.3.2-.7.2-1.2h-4.9v-1h5c0-.4 0-.8.1-1.2h-3.6v.5h-1.2v-3.8h4.9v-1.3h-1.8v.5h-1.2v-2.7h-2.6v-1.1h2.6v-1.4h1.2v1.4h4.7v-1.4zm-6.7 8.4h3.6c0-.4 0-.9 0-1.4h-3.6zm1.9-4.7h4.7v-1.2h-4.7zm6.7 3.3h-3.7v1.4h3.7z" fill="#fafbfc"/><path d="m384.7 21.4h1.3v2.2h2.8v-2.2h1.3v2.2h4.1v9.1h1.7v1.3h-16.9v-1.3h1.7v-9.1h4.1v-2.2zm.3 13.2.7 1.2c-1.8.9-3.8 1.9-6 2.9-.2-.4-.5-.8-.8-1.3 2.4-1 4.4-2 6.1-2.8zm-3.1-6.5h2.8v-3.2h-2.8zm0 4.6h2.8v-3.3h-2.8zm4.1-4.6h2.8v-3.2h-2.8zm0 4.6h2.8v-3.3h-2.8zm3.6 1.9c2.1.9 4.1 1.8 6.1 2.7l-.7 1.3c-2.2-1.1-4.2-2-6.1-2.9zm3.3-9.7h-2.8v3.2h2.8zm-2.8 7.8h2.8v-3.3h-2.8z" fill="#fafbfc"/><path d="m182.19 208.09c-.67 4.22-2.28 8.41-1.79 12.34 1.84 15.05-1.1 29.79-1.9 44.67-.13 2.37.39 4.78.53 7.17.11 1.87.17 3.75.13 5.62-.07 3.77-.33 7.54-.31 11.31.04 10.37.51 20.74.21 31.1-.38 13.24-1.27 26.47-2.09 39.69-.12 1.85-1.08 3.65-1.66 5.48-.39-.06-.77-.11-1.16-.17-.31-4.04-.56-8.08-.94-12.11-1.58-16.71-1.62-33.44-1.15-50.2.07-2.51-.53-5.04-.8-7.57-1.65-15.32-.91-30.67-.37-46.01.04-1.16.34-2.35.19-3.48-2.02-14.26 1.08-28.31 1.73-42.46.25-5.5 1.2-10.99 1.18-16.48-.01-2.93-.72-6.3-2.27-8.73-9.41-14.65-9.43-30.66-7.14-46.94 1.49-10.61 6.27-20.15 11.03-29.63.24-.47.46-1.05.86-1.31 4.94-3.12 6.72-8.4 8.65-13.35 4.51-11.54 11.47-21.32 19.76-30.4 3.68-4.03 6.46-8.88 9.8-13.25 1.85-2.42 3.95-4.66 6.04-6.88 1.84-1.96 3.94-1.96 6.32-.74 2.45 1.25 4.17 3.21 3.65 5.76-1.88 9.35 1.3 18.27 1.79 27.39.25 4.67-.58 9.42-1.12 14.11-.11.98-1.11 1.86-2.23 3.61-2.24-4.19-4.55-7.53-5.88-11.22-2.09-5.79-3.28-11.81-2.07-18.08.5-2.57.74-5.32-2.22-7.37-.69.98-1.34 1.9-1.98 2.82-7.32 10.5-13.67 21.63-21.97 31.52-4.11 4.9-6.19 11.51-9.15 17.36-1.85 3.67-4.09 7.2-3.88 11.6.04.75-.48 1.64-.98 2.27-4.68 5.85-6.41 12.73-7.22 19.98-.3 2.63-.8 5.24-1.29 7.84-.52 2.73-1.13 5.39 1.78 7.34.44.29.49 1.52.35 2.25-1.07 5.78.41 11.33 4.57 16.15 1.14-2.83 2.32-5.48 3.3-8.21 4.52-12.56 11.11-23.97 18.75-34.86 1.75-2.49 3.11-5.27 4.47-8 1.12-2.25 2.56-3.82 5.51-3.81v54.89c-.26.2-.52.39-.78.59-.78-.93-2.01-1.75-2.26-2.8-1.04-4.43-1.59-8.97-2.68-13.38-.88-3.55-2.26-6.98-3.62-11.07-2.46 2.66-5.42 4.05-4.05 7.76.12.33 0 .92-.24 1.19-5.32 6.03-4.93 14.01-7.18 21.08-1.47 4.63-2.5 9.4-3.96 14.04-.76 2.42-1 4.64.02 7.04 2.87 6.69 5.58 13.45 8.46 20.14.79 1.83 2.05 3.39 1.12 5.63-.23.56.43 1.85 1.05 2.36 6.24 5.15 7.53 13 11.27 19.5-.19.25-.38.5-.56.76-.92-.37-2.13-.49-2.72-1.16-4.21-4.8-9.62-8.79-10.84-15.66-.05-.31-.16-.63-.34-.88-3.75-5.18-7.51-10.35-11.72-16.15z" fill="#010104"/></svg>