<svg enable-background="new 0 0 400 400" viewBox="0 0 400 400" xmlns="http://www.w3.org/2000/svg"><path d="m378.6 9.2.8-1c.9.7 1.9 1.4 2.9 2.3l-.9 1.1c-1.1-.9-2-1.7-2.8-2.4zm.5 10.7c.9-2.1 1.6-4.3 2.3-6.7.4.2.8.4 1.3.6-.7 2.1-1.5 4.3-2.2 6.6zm.4-15.2.9-.9c1 .8 2 1.6 2.8 2.4l-1 1c-1-.9-1.9-1.8-2.7-2.5zm12.5-1.3h1.2v1.4h2.7v1.1h-2.7v2.7h-1.2v-.5h-1.8v1.3h4.9v3.8h-1.2v-.5h-3.7c0 .4-.1.9-.1 1.2h5.1v1h-5.2c0 .5-.1.9-.2 1.2h6v1h-5.2c1.1 1.3 2.9 2 5.5 2.2-.4.4-.7.8-.9 1.3-2.9-.5-4.8-1.6-5.7-3.5h-.1c-.8 1.7-2.7 2.9-5.9 3.6-.2-.4-.6-.8-.9-1.1 2.8-.6 4.6-1.4 5.4-2.5h-4.8v-1h5.3c.1-.3.2-.7.2-1.2h-4.9v-1h5c0-.4 0-.8.1-1.2h-3.6v.5h-1.2v-3.8h4.9v-1.3h-1.8v.5h-1.2v-2.7h-2.6v-1.1h2.6v-1.4h1.2v1.4h4.7v-1.4zm-6.7 8.4h3.6c0-.4 0-.9 0-1.4h-3.6zm1.9-4.7h4.7v-1.2h-4.7zm6.7 3.3h-3.7v1.4h3.7z" fill="#fafbfc"/><path d="m384.7 21.4h1.3v2.2h2.8v-2.2h1.3v2.2h4.1v9.1h1.7v1.3h-16.9v-1.3h1.7v-9.1h4.1v-2.2zm.3 13.2.7 1.2c-1.8.9-3.8 1.9-6 2.9-.2-.4-.5-.8-.8-1.3 2.4-1 4.4-2 6.1-2.8zm-3.1-6.5h2.8v-3.2h-2.8zm0 4.6h2.8v-3.3h-2.8zm4.1-4.6h2.8v-3.2h-2.8zm0 4.6h2.8v-3.3h-2.8zm3.6 1.9c2.1.9 4.1 1.8 6.1 2.7l-.7 1.3c-2.2-1.1-4.2-2-6.1-2.9zm3.3-9.7h-2.8v3.2h2.8zm-2.8 7.8h2.8v-3.3h-2.8z" fill="#fafbfc"/><g fill="#010104"><path d="m189.04 152.01c-4.58-1.33-8.9-2.77-13.3-3.79-3.63-.84-6.81-2.27-9.27-5.08-2.63-3-5.82-4.4-9.83-3.74-.62.1-1.27.03-1.91.01-4.02-.11-6.75-2.15-8.39-5.74-.48-1.06-.77-2.21-1.29-3.24-2.07-4.06-6.61-4.82-10.12-2.01-6.42 5.13-13.15 9.71-21.77 10.18-.74.04-1.48.01-2.21-.04-.72-.05-1.44-.16-2.4-.28.05-1.05-.27-2.27.21-2.84 3.06-3.69 4.84-8.62 9.75-10.53 4.54-1.77 8.14-4.57 11.3-8.34 7.22-8.61 14.74-16.97 22.21-25.37 1.25-1.41 2.72-2.68 4.29-3.72 8.45-5.66 17.01-11.16 25.42-16.88 1.33-.91 2.54-2.56 2.99-4.11 2.83-9.65 5.42-19.37 8.1-29.06.16-.6.39-1.17.66-1.96 4.67.99 7.82 3.76 8.94 8.09 1.24 4.78 1.61 9.78 2.51 14.66.73 3.94 1.49 7.9 2.64 11.73.36 1.21 1.96 2.73 3.16 2.89 9.92 1.35 17.69 6.2 24.33 13.53 2.34 2.58 5.63 4.41 8.71 6.19 11.56 6.69 23.37 13.01 32.71 22.84 5.04 5.3 8.49 11.58 10.6 19.07-10.27 2.72-18.1-3.09-27.22-6.81-.98 1.52-2.01 3.72-3.59 5.42-1.78 1.92-4.05 3.38-6.11 5.04-1.33-1.97-3.19-3.78-3.87-5.95-1.3-4.12-1.44-8.34 2.05-11.82.95-.95 1.65-2.17 2.78-3.7-9.63-6.95-19.04-13.96-28.72-20.57-2.42-1.65-5.7-2.1-8.61-2.98-2.21-.67-3.47.21-4.24 2.48-1.95 5.79-1.72 11.69-1.27 17.62.36 4.86.89 9.71 1.11 14.58.08 1.77.61 2.85 2.33 3.14 3.41.58 6.82 1.37 10.26 1.55 3.21.17 4.46.75 4.4 3.89-.08 3.92-.33 7.82-5 9.57-2.35.88-4.34 2.7-6.68 3.64-3.31 1.33-4.3 3.59-4.52 7.02-1.16 18.4-2.93 36.77-3.76 55.18-.77 17 1.31 33.86 5.09 50.47.29 1.28 1.03 2.52 1.78 3.63 4.08 6.05 8.88 11.71 12.21 18.13 9.56 18.46 22 34.93 34.27 51.56 6.14 8.32 11.42 17.1 13.53 27.42.23 1.12.31 2.27.48 3.54-4.61.57-8.24.59-11.72-3.47-10.49-12.23-21.41-24.09-32.47-35.82-6.83-7.25-12.59-15.11-16.92-24.06-2.17-4.48-5.47-8-10-10.8-1.43 3.98-2.73 7.83-4.2 11.63-5.78 14.95-12.1 29.6-22.17 42.32-2.34 2.96-3.92 6.53-5.92 9.78-1.39 2.27-3.23 3.87-6.14 3.86-2.16 0-3.62-.66-3.2-3.1 1.13-6.56 1.83-13.24 3.65-19.61 3.17-11.08 6.73-22.09 10.72-32.9 4.71-12.75 6.54-26.02 8.57-39.33 2.65-17.39 1.19-34.75-.33-52.03-1.22-13.92.25-27.46 2.46-41.07 1.03-6.48 1.91-12.99 2.93-19.91zm-9.16-71.15c-2.82 3.74-5.28 7.62-8.34 10.93-5.69 6.12-11.65 12-17.68 17.79-1.74 1.67-2.04 3.17-.71 4.86 1.81 2.3 3.66 4.64 5.88 6.5 3.18 2.67 5.72 5.52 6.45 9.79.44 2.57 1.33 5.07 2.05 7.73 6.63.06 12.83-.97 18.28-4.64 1.1-.74 2.12-2.49 2.13-3.78.15-14.4.12-28.81.03-43.21-.01-.93-.69-2.24-1.47-2.72-2.05-1.28-4.33-2.17-6.62-3.25z"/><path d="m177.41 201.25c-5.49.87-10.67.07-15.63-2.55-1.21-.64-2.75-.65-4.14-.95-.18 1.5-.56 3.01-.49 4.5.13 2.81 1.31 4.57 4.29 5.83 6.04 2.55 11.31 6.29 13.08 14.1-2.91.12-5.57.27-8.23.31-1.37.02-2.78-.36-4.1-.16-.9.14-2.08.83-2.4 1.58-.29.68.21 1.92.71 2.69 2.45 3.81 5.04 7.54 7.53 11.33.45.69.71 1.54.96 2.34 2.22 7.06-1.69 11.61-9.15 10.39-4.92-.81-9.24-2.98-12.61-6.78-2.18-2.46-4.11-5.17-6.5-7.4-7.54-7.06-9.35-16.31-10.24-25.92-.79-8.47 1.41-16.61 3.07-24.81 2.72-13.47 5.38-26.94 8.18-40.98 3.38 2.42 6.56 4.62 9.62 6.98.51.39.6 1.51.65 2.3.25 4.34.85 8.71.54 13.01-.64 8.89 5.13 13.03 11.61 16.8 1 .58 2.15.89 3.22 1.33 6.86 2.84 10.35 8.4 10.03 16.06z"/><path d="m237.32 188.86c15.06-12.39 27.9-25.65 25.45-46.74 7.34-1.36 13.4 2.87 13.99 9.46.33 3.67.13 7.38.23 11.08.02.93.01 1.98.43 2.75 6.53 12.11 4.03 24.46 1.08 36.83-.44 1.85-1.17 3.62-1.68 5.46-1.24 4.53-3.38 8.28-7.68 10.71-2.47 1.39-4.08 3.52-4.97 6.58-.69 2.34-2.82 5.14-5 5.99-5.5 2.15-9.04 5.74-11.64 10.88-2.59 5.12-4.68 5.64-9.65 3.3-2.98-1.4-3.53-7.25-1.13-9.97 5.75-6.49 11.66-12.87 17-19.69 5.76-7.36 7.54-15.94 5.94-25.21-.3-1.73-.98-2.54-2.64-2.27-3.22.51-6.46.95-9.61 1.75-3.29.83-6.43 1.2-10.12-.91z"/></g></svg>