<svg enable-background="new 0 0 400 400" viewBox="0 0 400 400" xmlns="http://www.w3.org/2000/svg"><path d="m378.6 9.2.8-1c.9.7 1.9 1.4 2.9 2.3l-.9 1.1c-1.1-.9-2-1.7-2.8-2.4zm.5 10.7c.9-2.1 1.6-4.3 2.3-6.7.4.2.8.4 1.3.6-.7 2.1-1.5 4.3-2.2 6.6zm.4-15.2.9-.9c1 .8 2 1.6 2.8 2.4l-1 1c-1-.9-1.9-1.8-2.7-2.5zm12.5-1.3h1.2v1.4h2.7v1.1h-2.7v2.7h-1.2v-.5h-1.8v1.3h4.9v3.8h-1.2v-.5h-3.7c0 .4-.1.9-.1 1.2h5.1v1h-5.2c0 .5-.1.9-.2 1.2h6v1h-5.2c1.1 1.3 2.9 2 5.5 2.2-.4.4-.7.8-.9 1.3-2.9-.5-4.8-1.6-5.7-3.5h-.1c-.8 1.7-2.7 2.9-5.9 3.6-.2-.4-.6-.8-.9-1.1 2.8-.6 4.6-1.4 5.4-2.5h-4.8v-1h5.3c.1-.3.2-.7.2-1.2h-4.9v-1h5c0-.4 0-.8.1-1.2h-3.6v.5h-1.2v-3.8h4.9v-1.3h-1.8v.5h-1.2v-2.7h-2.6v-1.1h2.6v-1.4h1.2v1.4h4.7v-1.4zm-6.7 8.4h3.6c0-.4 0-.9 0-1.4h-3.6zm1.9-4.7h4.7v-1.2h-4.7zm6.7 3.3h-3.7v1.4h3.7z" fill="#fafbfc"/><path d="m384.7 21.4h1.3v2.2h2.8v-2.2h1.3v2.2h4.1v9.1h1.7v1.3h-16.9v-1.3h1.7v-9.1h4.1v-2.2zm.3 13.2.7 1.2c-1.8.9-3.8 1.9-6 2.9-.2-.4-.5-.8-.8-1.3 2.4-1 4.4-2 6.1-2.8zm-3.1-6.5h2.8v-3.2h-2.8zm0 4.6h2.8v-3.3h-2.8zm4.1-4.6h2.8v-3.2h-2.8zm0 4.6h2.8v-3.3h-2.8zm3.6 1.9c2.1.9 4.1 1.8 6.1 2.7l-.7 1.3c-2.2-1.1-4.2-2-6.1-2.9zm3.3-9.7h-2.8v3.2h2.8zm-2.8 7.8h2.8v-3.3h-2.8z" fill="#fafbfc"/><path d="m177.69 209.6c-1.16 2.27-2.16 4.12-3.06 6.03-1.97 4.2-2.65 7.69 1.52 11.71 6 5.78 3.9 13.97-3.67 17.6-1.24.6-2.54 1.12-3.67 1.88-2.09 1.42-3.7 3.23-3.36 6.03.78 6.56-1.3 12.24-4.27 18.09-2.28 4.49-2.68 9.94-3.89 14.98-.34 1.44-.41 2.96-.89 4.35-1.65 4.81-1.51 9.55.34 14.24.79 2 .46 3.5-1.01 5.17-4.61 5.26-9.16 10.59-13.46 16.1-1.74 2.23-3.78 2.03-5.59 1.19-.98-.45-1.82-2.5-1.74-3.76.29-4.31.94-8.6 1.6-12.87.27-1.74.1-2.91-1.55-4.02-1.02-.69-2.08-2.38-1.97-3.51.41-4.34.7-8.68 5.3-11.41 5.31-3.14 6.09-8.91 6.63-14.43.57-5.87 1.78-11.48 4.6-16.71.95-1.76 1.58-3.7 2.39-5.54 2.45-5.57.84-10.71-1.42-15.91-2.5-5.75-1.77-7.57 3.8-10.68 2.79-1.56 4.67-3.65 5.65-6.86 2.54-8.41 5.08-16.84 8.22-25.04 2.64-6.9 1.44-13.23-.97-19.73-1.58-4.24-3.41-8.52-4.08-12.94-1.31-8.63 3.47-15.3 8.62-21.43 8.59-10.23 17.44-20.24 26.3-30.24 1.48-1.67 1.9-3.03.67-4.95-3.08-4.79-5.77-9.88-9.19-14.41-6.5-8.6-12.09-17.59-14.96-28.05 4.23-2.65 4.22-2.64 7.34.77 6.72 7.35 13.78 14.39 18.75 23.18 1.44 2.55 3.59 4.71 5.41 7.05 3.92-3.56 4.87-6.78 4.76-10.45-.4-13.49 2.69-26.5 5.63-39.5.64-2.84 2.08-5.53 3.39-8.18.49-1 1.95-2.52 2.44-2.34 1.47.52 3.31 1.51 3.87 2.8.89 2.06 1.3 4.55 1.12 6.8-.59 7.6-1.6 15.17-2.32 22.76-.61 6.47-1.05 12.95-1.56 19.43.44.24.88.49 1.31.73 2.02-1.16 4.32-2.02 6.02-3.55 3.94-3.54 7.45-7.55 11.41-11.06 2.24-1.99 5.03-3.36 7.57-5.01.31.23.61.46.92.7-.91 2.26-1.5 4.73-2.8 6.74-6.14 9.45-13.2 18.13-21.48 25.85-5.8 5.41-5.5 12.2-.49 18.31 7.05 8.59 13.79 17.45 20.32 26.44 4.69 6.46 3.98 13.85 2.12 21.09-1.02 3.99-2.36 7.93-3.92 11.74-2.77 6.76-1.18 13.53-.59 20.35.54 6.22.83 12.46 1.18 18.69.6 10.78 1.24 21.56 1.71 32.34.19 4.41 3.04 7.01 6.19 9.03 2.93 1.87 3.67 3.9 3.11 7.14-.57 3.27-1.7 5.6-5.43 5.69-.4.01-.8.22-1.22.34 0 3.95-.15 7.85.03 11.74.37 8.04.97 16.07 1.37 24.11.14 2.75 1.18 4.75 3.53 6.29 2.21 1.45 4.33 3.1 6.22 4.93 3.43 3.32 3.14 6.83-1.11 8.69-7.8 3.41-5.9 10.01-5.86 16.05.02 3.48.48 6.97.38 10.44-.08 2.59-1.54 4.55-4.03 5.63-1.4.6-2.29.47-3.01-1.1-2.52-5.48-5.34-10.83-7.66-16.4-.64-1.53-.33-3.8.3-5.44 1.41-3.74.07-6.29-2.71-8.59-3.71-3.07-3.61-5.58.33-8.27 1.89-1.29 2.36-3.02 2.19-5.23-.95-12.24-1.88-24.49-2.64-36.74-.16-2.48-.56-4.47-2.78-5.96-1.29-.86-2.38-2.14-3.3-3.41-2.31-3.21-2.14-5.81 1.03-8.13 2.99-2.19 3.49-4.75 3.11-8.2-.61-5.46-1.15-11.01-.9-16.48.45-10.21-2.13-19.97-3.62-29.9-.31-2.06-1.57-2.52-3.15-1.69-6.94 3.64-14.09 6.99-20.54 11.37-2.03 1.37-2.82 5.6-2.93 8.57-.36 9.9-1.78 19.56-4.07 29.2-1.2 5.04-1.29 10.48-.96 15.68.18 2.81 2.22 5.53 3.56 8.23.6 1.22 1.64 2.22 2.26 3.44 1.58 3.1 1.01 6.12-2.14 7.44-9.85 4.11-11.35 12.67-11.88 21.64-.55 9.31-.7 18.64-.85 27.97-.05 2.88-.88 5.1-2.59 7.5-2.6 3.64-4.58 7.76-6.5 11.83-1.62 3.43-3.38 6.57-7.06 8.3-2.49-2.89-3.41-6.05-2.04-9.67 3.17-8.42.28-12.72-8.25-16.1-3.86-1.53-5.03-3.27-4.02-6.35.31-.95 1.46-2.05 2.42-2.28 2.77-.66 5.63-1.21 8.47-1.26 2.97-.05 4.74-1.62 5.42-4.01.96-3.41 1.57-6.98 1.83-10.52.63-8.75 1.02-17.52 1.4-26.29.12-2.83.2-5.72-.2-8.52-.4-2.81-.52-5.39 1.01-7.93.81-1.35 1.21-2.94 1.95-4.34 1.82-3.46 1.96-7.09 2.19-10.96.51-8.41 1.32-16.95 3.38-25.08 2.05-8.07 1.16-14.33-5.76-19.33-1.21-.91-2.09-2.18-3.47-3.63zm31.43-10.98c2.73-1.58 5.38-2.73 7.57-4.46 7.93-6.24 12.39-14.83 15.65-24.15.24-.69.35-1.46.33-2.19-.1-3.18-2.14-4.71-5.2-3.93-3.08.78-6.1 2.04-9.22 2.34-4.99.48-6.84 3.12-7.52 7.82-1.15 7.92-4 15.66-1.61 24.57zm-29.41-32.73c-3.24 13.86 3.15 24.69 9.92 36.54 1.32-1.83 2.62-2.93 3.02-4.3.85-2.93 1.44-5.97 1.77-9.01.64-5.77 1.09-11.57 1.47-17.36.12-1.87-.35-3.35-2.87-3.63-4.29-.47-8.53-1.4-13.31-2.24zm21.57-36.09c-5.75 5.43-11.17 10.46-16.47 15.61-2.01 1.95-.95 5.19 1.8 5.71 2.27.43 4.73 1.1 6.88.64 2.43-.52 5.83-1.62 6.68-3.45 2.61-5.64 4.22-11.75 1.11-18.51zm17.54 2.65c-1.05 2.67-2.06 4.96-2.88 7.33-1.06 3.07-1.98 6.54.28 9.12 2.37 2.7 6.07 1.8 9.33 1.51.31-.03.6-.2.91-.27 2.84-.61 3.77-2.18 3-5.08-1.52-5.78-5.84-9.04-10.64-12.61z" fill="#010104"/></svg>