<svg enable-background="new 0 0 400 400" viewBox="0 0 400 400" xmlns="http://www.w3.org/2000/svg"><path d="m378.6 9.2.8-1c.9.7 1.9 1.4 2.9 2.3l-.9 1.1c-1.1-.9-2-1.7-2.8-2.4zm.5 10.7c.9-2.1 1.6-4.3 2.3-6.7.4.2.8.4 1.3.6-.7 2.1-1.5 4.3-2.2 6.6zm.4-15.2.9-.9c1 .8 2 1.6 2.8 2.4l-1 1c-1-.9-1.9-1.8-2.7-2.5zm12.5-1.3h1.2v1.4h2.7v1.1h-2.7v2.7h-1.2v-.5h-1.8v1.3h4.9v3.8h-1.2v-.5h-3.7c0 .4-.1.9-.1 1.2h5.1v1h-5.2c0 .5-.1.9-.2 1.2h6v1h-5.2c1.1 1.3 2.9 2 5.5 2.2-.4.4-.7.8-.9 1.3-2.9-.5-4.8-1.6-5.7-3.5h-.1c-.8 1.7-2.7 2.9-5.9 3.6-.2-.4-.6-.8-.9-1.1 2.8-.6 4.6-1.4 5.4-2.5h-4.8v-1h5.3c.1-.3.2-.7.2-1.2h-4.9v-1h5c0-.4 0-.8.1-1.2h-3.6v.5h-1.2v-3.8h4.9v-1.3h-1.8v.5h-1.2v-2.7h-2.6v-1.1h2.6v-1.4h1.2v1.4h4.7v-1.4zm-6.7 8.4h3.6c0-.4 0-.9 0-1.4h-3.6zm1.9-4.7h4.7v-1.2h-4.7zm6.7 3.3h-3.7v1.4h3.7z" fill="#fafbfc"/><path d="m384.7 21.4h1.3v2.2h2.8v-2.2h1.3v2.2h4.1v9.1h1.7v1.3h-16.9v-1.3h1.7v-9.1h4.1v-2.2zm.3 13.2.7 1.2c-1.8.9-3.8 1.9-6 2.9-.2-.4-.5-.8-.8-1.3 2.4-1 4.4-2 6.1-2.8zm-3.1-6.5h2.8v-3.2h-2.8zm0 4.6h2.8v-3.3h-2.8zm4.1-4.6h2.8v-3.2h-2.8zm0 4.6h2.8v-3.3h-2.8zm3.6 1.9c2.1.9 4.1 1.8 6.1 2.7l-.7 1.3c-2.2-1.1-4.2-2-6.1-2.9zm3.3-9.7h-2.8v3.2h2.8zm-2.8 7.8h2.8v-3.3h-2.8z" fill="#fafbfc"/><path d="m167.41 334.24c-1.65-1.38-3.18-2.1-3.82-3.29-5.6-10.57-11.18-21.16-16.44-31.9-2.16-4.4-5.62-6.08-10.05-6.56-1.26-.14-2.54-.03-3.81.01-5.77.18-9.39-2.37-11.4-8.19 3.61 0 7.17-.01 10.73 0 1.37 0 2.76.19 4.11.04 5.24-.59 6.57-3.07 4.24-7.73-.42-.85-1.13-1.74-1.12-2.6.06-4.85-2.62-8.66-4.43-12.85-1.08-2.51-1.03-5.57-1.22-8.4-.4-5.92-.83-11.85-.84-17.78-.01-3.63-1.8-4.65-4.92-4.96-5.95-.58-8.47-3.17-9.55-9.82 2.99 0 5.93-.21 8.84.05 4.27.38 7.39-1.5 9.97-4.53 4.47-5.26 7.4-11.36 9.05-18.01.39-1.56-.03-3.59-.74-5.09-1.64-3.43-3.89-6.57-5.51-10.01-1.74-3.7-4.74-5.42-8.44-5.86-4.47-.54-7.57-2.92-10.5-6.56 4.29-2.13 8.42-4.18 12.76-6.33-1.19-5.33-2.53-10.54-3.52-15.83-2.46-13.18-1.42-25.93 5.28-37.85 1.19-2.12 2.5-4.2 3.5-6.41 3.38-7.52 8.22-13.73 15.28-18.15.96-.6 1.87-1.48 2.45-2.44 5.46-8.99 13.22-15.9 20.43-23.37 4.95-5.13 8.74-11.39 12.99-17.18 1.74-2.37 3.35-4.85 5.16-7.49 3.38 2.79 4.94 5.97 4.07 10.14-.3 1.45-.74 2.87-1.01 4.33-.94 5.05-.56 9.6 2.9 14.01 8.17 10.42 15.9 21.18 23.81 31.81 3.46 4.65 7.18 9.12 10.34 13.96 8.73 13.35 11.49 29.03 16.55 43.8.99 2.9 0 6.5-.14 9.77-.08 1.91-.31 3.8-.4 5.71-.27 5.81 1.95 8.65 7.72 9.86 1.55.33 3.15.44 4.7.77 2.94.63 5.63 1.69 7.12 5.15-6.07.26-11.86.51-17.66.76-5.86.25-5.85.26-7.69 5.77-2.67 8.02-5.36 16.04-8.09 24.21 5.08 3.47 10.85 4.37 16.56 5.35 6.26 1.07 12.54 2.01 18.81 3.04 1.03.17 2.02.55 2.99.82.43 5.16-.03 6.26-4.83 6.35-7.06.13-14.13-.59-21.2-.79-2.51-.07-5.15-.08-7.52.6-4.25 1.22-5.01 4.66-1.97 7.71 7.55 7.58 10 17.18 11.09 27.4.73 6.8 2.57 13.32 6.4 19.09.8 1.21 2.16 2.31 3.51 2.86 4.46 1.81 9.03 3.35 13.56 4.99.06.39.12.77.18 1.16-3.05.86-6.09 2.42-9.15 2.44-7.48.06-12.24 3.25-15.3 10.07-4.6 10.23-9.63 20.27-14.63 30.32-1.6 3.21-2.55 6.41-2.39 10.02.16 3.7.15 7.42.05 11.13-.09 3.29-1.16 6.19-3.99 8.26-4.95-7.56-7.51-15.83-8.93-24.57-1.2-7.41-3.01-14.73-4.02-22.16-.43-3.17.32-6.54.77-9.78.55-3.98-.05-7.75-2.5-10.85-1.27-1.6-3.43-3.25-5.34-3.45-9.05-.95-18.14-1.6-27.23-1.94-4.2-.16-8.45.48-12.64 1.03-4.58.6-6.42 3.48-4.91 7.73 1.78 4.97 2.43 9.95 2.03 15.24-.41 5.27-.1 10.56-.1 16.97zm34.2-163.78c7.41.32 9.35-1.4 9.56-6.3.07-1.59.02-3.19.16-4.77.62-7.05.8-14.19 2.08-21.13 1.4-7.58 3.71-15 5.88-22.41.9-3.08.81-5.95-.93-8.46-3.05-4.41-6.17-8.82-9.74-12.82-5.22-5.85-10.88-11.32-13.38-19.06-.28-.88-.86-1.72-1.47-2.43-4.3-5-2.78-4.85-8.9-1.85-1.97.97-3.96 2.2-5.47 3.77-5.43 5.64-10.62 11.52-16 17.22-1.38 1.46-1.82 2.7-1.24 4.74 2.2 7.74 4.23 15.52 6.18 23.32 3.24 13 7.98 25.71 7.35 39.47-.22 4.84 2.15 6.74 7.04 6.62 1.65-.04 3.37.12 4.97.51 5.41 1.31 10.78 2.76 13.91 3.58zm-35.07 100.04c0 2.65.24 5.33-.06 7.94-.36 3.07 1.03 4.12 3.78 4.44 8.51.99 16.99 2.4 25.52 3.02 5.55.41 11.19-.19 16.78-.48 2.76-.14 4.19-1.46 4.31-4.59.34-8.46.78-16.94 1.7-25.36.81-7.45 2.36-14.83 3.52-22.24.53-3.39-.63-4.35-4.03-3.8-1.41.23-2.95.23-4.35-.06-4.97-1.04-10.07-1.79-14.81-3.51-8.13-2.93-15.56-.36-23.13 1.84-3.2.93-4.96 2.75-4.55 6.41.27 2.4.06 4.87-.13 7.3-.25 3.36.05 6.99-1.17 9.98-2.53 6.21-4.3 12.37-3.38 19.11zm48.78-55.22c-2.14-10.99-4.11-20.96-5.98-30.94-.35-1.88-1.47-1.99-2.96-1.99-6.39 0-12.5-1.05-18.51-3.57-9.96-4.19-10.07-3.96-19.39 1.74-.67.41-1.39 1.07-1.64 1.78-3.71 10.44-5.38 20.83 1.9 30.55 1.03 1.38 2.68 2.69 4.3 3.16 7.9 2.32 15.76.65 23.54-.9 4.21-.84 8.25-1.39 12.49.07 1.72.59 3.83.1 6.25.1zm-62.66-107.47c-.46.07-.91.14-1.37.22-1.22 1.43-2.88 2.68-3.57 4.33-2.82 6.75-5.42 13.75-5.07 21.13.4 8.5 1.51 17.01 2.9 25.41.43 2.61 2.36 5.34 4.39 7.14.94.83 3.74-.41 5.7-.75 1.46-.25 3.02-.33 4.32-.94 1.01-.47 2.23-1.56 2.41-2.54.98-5.41 1.79-10.86 2.39-16.32.19-1.69-.11-3.61-.78-5.18-3.27-7.67-6.62-15.25-7.7-23.69-.4-3.04-2.37-5.88-3.62-8.81zm69.54 55.32c.53 2.24 1.04 4.7 1.74 7.11.21.73.81 1.73 1.43 1.89 3.74 1 7.51 2.32 11.3 2.42 1.92.05 5-1.84 5.64-3.57 1.75-4.74 3.61-9.81-.06-14.78-.8-1.09-.72-2.83-1.06-4.26-.92-3.91-1.67-7.86-2.81-11.7-1.09-3.68-3.22-6.69-7.18-7.84-.77-.22-2.22-.43-2.36-.14-1.48 2.93-3.33 5.86-3.93 9-.8 4.18-.41 8.57-.85 12.83-.31 2.92-1.17 5.79-1.86 9.04zm-54.83 66.74c-2.65-.95-3.58-4.43-6.81-2.82-4.07 2.04-8.15 4.05-12.11 6.28-.86.49-1.76 1.88-1.73 2.82.18 4.86.4 9.74 1.1 14.54.89 6.05 3.35 11.46 8.46 16.46 1.49-4.02 3.16-7.44 4.02-11.05 2.11-8.73.55-18.36 7.07-26.23zm66.75 23.57c-1.23 2.06-2.51 3.41-2.89 4.98-1.07 4.3-2.37 8.69-2.43 13.05-.06 4.31 1.21 8.65 2.12 12.93.17.82 1.29 1.87 2.12 2.05 5.33 1.1 10.52.75 15.3-2.21 1.58-.98 2.16-2.12 1.21-3.93-3.94-7.47-7.78-14.99-11.76-22.44-.74-1.35-1.99-2.43-3.67-4.43zm.96-67.94c-3.74-1.11-7.1-2.01-10.39-3.12-1.84-.62-2.59.06-3.34 1.65-3.73 7.87-2.51 15.21 2.18 22.2.51.76 1.82 1.76 2.34 1.56 1.24-.48 2.85-1.41 3.22-2.52 2.13-6.38 3.95-12.89 5.99-19.77zm-2.36 138.71c5.71-6.7 10.71-15.92 11.9-21.58.72-3.44-.01-4.7-3.33-5.61-1.02-.28-2.07-.47-3.12-.61-4.64-.62-7.13 1.59-7.13 6.33 0 3.6-.15 7.22.11 10.8.27 3.41.98 6.79 1.57 10.67zm-76.22-111.89c-.41-.73-.97-2.24-1.98-3.33-.84-.89-2.18-1.62-3.37-1.75-.67-.07-2.23 1.62-2.1 1.87 1.15 2.33 2.26 4.84 4.06 6.63 1.21 1.22 3.32-.54 3.39-3.42zm-4.16-30.42c1.73-1.93 5.55-1.64 4.72-5.26-.23-1-1.65-2.08-2.74-2.46-3.01-1.02-4.25 1.25-5.55 3.49 1.12 1.33 2.2 2.6 3.57 4.23z" fill="#010104"/></svg>